<?xml version="1.0" encoding="UTF-8" standalone="no"?>
<svg xmlns:xlink="http://www.w3.org/1999/xlink" height="12.5px" width="24.25px" xmlns="http://www.w3.org/2000/svg">
  <g transform="matrix(1.0, 0.0, 0.0, 1.0, -3.3, -17.65)">
    <path d="M3.3 23.05 Q3.3 25.15 6.45 26.7 L6.85 26.9 7.15 27.0 Q10.55 28.45 15.35 28.45 L15.45 28.45 Q20.2 28.45 23.65 27.05 L24.0 26.9 Q27.5 25.3 27.55 23.15 L27.55 23.05 Q27.55 20.85 24.0 19.25 L23.9 19.25 Q22.2 18.45 20.15 18.05 L15.55 17.65 15.45 17.65 Q10.7 17.65 7.3 19.05 L6.85 19.25 Q3.3 20.85 3.3 23.05" fill="url(#gradient0)" fill-rule="evenodd" stroke="none">
      <animate attributeName="d" dur="2s" repeatCount="indefinite" values="M3.3 23.05 Q3.3 25.15 6.45 26.7 L6.85 26.9 7.15 27.0 Q10.55 28.45 15.35 28.45 L15.45 28.45 Q20.2 28.45 23.65 27.05 L24.0 26.9 Q27.5 25.3 27.55 23.15 L27.55 23.05 Q27.55 20.85 24.0 19.25 L23.9 19.25 Q22.2 18.45 20.15 18.05 L15.55 17.65 15.45 17.65 Q10.7 17.65 7.3 19.05 L6.85 19.25 Q3.3 20.85 3.3 23.05;M3.3 23.95 Q3.3 26.3 6.25 28.05 L6.55 28.25 6.85 28.35 Q10.4 30.15 15.45 30.15 L15.55 30.15 Q20.5 30.15 24.0 28.35 L24.3 28.15 Q27.55 26.4 27.55 23.95 L27.55 23.85 Q27.5 21.25 24.0 19.45 L24.0 19.45 Q22.3 18.6 20.25 18.15 L15.45 17.65 15.35 17.65 Q10.35 17.65 6.85 19.45 L6.45 19.65 Q3.3 21.45 3.3 23.95"/>
    </path>
    <path d="M3.3 23.05 Q3.3 20.85 6.85 19.25 L7.3 19.05 Q10.7 17.65 15.45 17.65 L15.55 17.65 20.15 18.05 Q22.2 18.45 23.9 19.25 L24.0 19.25 Q27.55 20.85 27.55 23.05 L27.55 23.15 Q27.5 25.3 24.0 26.9 L23.65 27.05 Q20.2 28.45 15.45 28.45 L15.35 28.45 Q10.55 28.45 7.15 27.0 L6.85 26.9 6.45 26.7 Q3.3 25.15 3.3 23.05" fill="none" stroke="#000000" stroke-linecap="round" stroke-linejoin="round" stroke-opacity="0.0" stroke-width="1.0">
      <animate attributeName="stroke" dur="2s" repeatCount="indefinite" values="#000000;#000001"/>
      <animate attributeName="stroke-width" dur="2s" repeatCount="indefinite" values="0.0;0.0"/>
      <animate attributeName="fill-opacity" dur="2s" repeatCount="indefinite" values="0.0;0.0"/>
      <animate attributeName="d" dur="2s" repeatCount="indefinite" values="M3.3 23.05 Q3.3 20.85 6.85 19.25 L7.3 19.05 Q10.7 17.65 15.45 17.65 L15.55 17.65 20.15 18.05 Q22.2 18.45 23.9 19.25 L24.0 19.25 Q27.55 20.85 27.55 23.05 L27.55 23.15 Q27.5 25.3 24.0 26.9 L23.65 27.05 Q20.2 28.45 15.45 28.45 L15.35 28.45 Q10.55 28.45 7.15 27.0 L6.85 26.9 6.45 26.7 Q3.3 25.15 3.3 23.05;M3.3 23.95 Q3.3 21.45 6.45 19.65 L6.85 19.45 Q10.35 17.65 15.35 17.65 L15.45 17.65 20.25 18.15 Q22.3 18.6 24.0 19.45 L24.0 19.45 Q27.5 21.25 27.55 23.85 L27.55 23.95 Q27.55 26.4 24.3 28.15 L24.0 28.35 Q20.5 30.15 15.55 30.15 L15.45 30.15 Q10.4 30.15 6.85 28.35 L6.55 28.25 6.25 28.05 Q3.3 26.3 3.3 23.95"/>
    </path>
  </g>
  <defs>
    <radialGradient cx="0" cy="0" gradientTransform="matrix(4.0E-4, -0.0071, 0.0147, 4.0E-4, 15.45, 23.05)" gradientUnits="userSpaceOnUse" id="gradient0" r="819.2" spreadMethod="pad">
      <animateTransform additive="replace" attributeName="gradientTransform" dur="2s" from="1" repeatCount="indefinite" to="1" type="scale"/>
      <animateTransform additive="sum" attributeName="gradientTransform" dur="2s" from="15.45 23.05" repeatCount="indefinite" to="15.45 23.95" type="translate"/>
      <animateTransform additive="sum" attributeName="gradientTransform" dur="2s" from="-87.1744" repeatCount="indefinite" to="-87.5611" type="rotate"/>
      <animateTransform additive="sum" attributeName="gradientTransform" dur="2s" from="0.0071 0.0147" repeatCount="indefinite" to="0.0082 0.0147" type="scale"/>
      <animateTransform additive="sum" attributeName="gradientTransform" dur="2s" from="2.6268" repeatCount="indefinite" to="1.1576" type="skewX"/>
      <stop offset="0.0" stop-color="#000000" stop-opacity="0.6">
        <animate attributeName="offset" dur="2s" repeatCount="indefinite" values="0.0;0.0"/>
        <animate attributeName="stop-color" dur="2s" repeatCount="indefinite" values="#000000;#000001"/>
        <animate attributeName="stop-opacity" dur="2s" repeatCount="indefinite" values="0.6;0.6"/>
      </stop>
      <stop offset="1.0" stop-color="#000000" stop-opacity="0.0">
        <animate attributeName="offset" dur="2s" repeatCount="indefinite" values="1.0;1.0"/>
        <animate attributeName="stop-color" dur="2s" repeatCount="indefinite" values="#000000;#000001"/>
        <animate attributeName="stop-opacity" dur="2s" repeatCount="indefinite" values="0.0;0.0"/>
      </stop>
    </radialGradient>
  </defs>
</svg>
