<?xml version="1.0" encoding="UTF-8" standalone="no"?>
<svg xmlns:xlink="http://www.w3.org/1999/xlink" height="12.25px" width="24.6px" xmlns="http://www.w3.org/2000/svg">
  <g transform="matrix(1.0, 0.0, 0.0, 1.0, -3.15, -19.35)">
    <path d="M3.15 24.75 L3.15 24.75 Q3.15 27.05 6.75 28.65 8.8 29.55 11.35 29.95 L15.35 30.25 15.45 30.25 19.6 29.95 Q21.95 29.55 23.9 28.75 L24.1 28.65 Q27.75 27.05 27.75 24.75 L27.75 24.75 Q27.7 22.45 24.1 20.85 L24.0 20.75 Q20.55 19.35 15.55 19.35 L15.45 19.35 Q10.55 19.35 7.05 20.75 L6.75 20.85 Q3.15 22.45 3.15 24.75" fill="url(#gradient0)" fill-rule="evenodd" stroke="none">
      <animate attributeName="d" dur="2s" repeatCount="indefinite" values="M3.15 24.75 L3.15 24.75 Q3.15 27.05 6.75 28.65 8.8 29.55 11.35 29.95 L15.35 30.25 15.45 30.25 19.6 29.95 Q21.95 29.55 23.9 28.75 L24.1 28.65 Q27.75 27.05 27.75 24.75 L27.75 24.75 Q27.7 22.45 24.1 20.85 L24.0 20.75 Q20.55 19.35 15.55 19.35 L15.45 19.35 Q10.55 19.35 7.05 20.75 L6.75 20.85 Q3.15 22.45 3.15 24.75;M3.15 25.45 L3.15 25.55 Q3.2 28.0 6.95 29.85 8.95 30.85 11.5 31.3 L15.45 31.6 15.7 31.6 20.0 31.15 Q22.3 30.7 24.15 29.75 L24.35 29.65 Q27.7 27.95 27.75 25.55 L27.75 25.45 Q27.75 22.95 24.25 21.15 L24.15 21.05 Q20.6 19.35 15.45 19.35 L15.35 19.35 Q10.3 19.35 6.75 21.05 L6.45 21.25 Q3.15 23.0 3.15 25.45"/>
    </path>
    <path d="M3.15 24.75 Q3.15 22.45 6.75 20.85 L7.05 20.75 Q10.55 19.35 15.45 19.35 L15.55 19.35 Q20.55 19.35 24.0 20.75 L24.1 20.85 Q27.7 22.45 27.75 24.75 L27.75 24.75 Q27.75 27.05 24.1 28.65 L23.9 28.75 Q21.95 29.55 19.6 29.95 L15.45 30.25 15.35 30.25 11.35 29.95 Q8.8 29.55 6.75 28.65 3.15 27.05 3.15 24.75 L3.15 24.75" fill="none" stroke="#000000" stroke-linecap="round" stroke-linejoin="round" stroke-opacity="0.0" stroke-width="1.0">
      <animate attributeName="stroke" dur="2s" repeatCount="indefinite" values="#000000;#000001"/>
      <animate attributeName="stroke-width" dur="2s" repeatCount="indefinite" values="0.0;0.0"/>
      <animate attributeName="fill-opacity" dur="2s" repeatCount="indefinite" values="0.0;0.0"/>
      <animate attributeName="d" dur="2s" repeatCount="indefinite" values="M3.15 24.75 Q3.15 22.45 6.75 20.85 L7.05 20.75 Q10.55 19.35 15.45 19.35 L15.55 19.35 Q20.55 19.35 24.0 20.75 L24.1 20.85 Q27.7 22.45 27.75 24.75 L27.75 24.75 Q27.75 27.05 24.1 28.65 L23.9 28.75 Q21.95 29.55 19.6 29.95 L15.45 30.25 15.35 30.25 11.35 29.95 Q8.8 29.55 6.75 28.65 3.15 27.05 3.15 24.75 L3.15 24.75;M3.15 25.45 Q3.15 23.0 6.45 21.25 L6.75 21.05 Q10.3 19.35 15.35 19.35 L15.45 19.35 Q20.6 19.35 24.15 21.05 L24.25 21.15 Q27.75 22.95 27.75 25.45 L27.75 25.55 Q27.7 27.95 24.35 29.65 L24.15 29.75 Q22.3 30.7 20.0 31.15 L15.7 31.6 15.45 31.6 11.5 31.3 Q8.95 30.85 6.95 29.85 3.2 28.0 3.15 25.55 L3.15 25.45"/>
    </path>
  </g>
  <defs>
    <radialGradient cx="0" cy="0" gradientTransform="matrix(4.0E-4, -0.0072, 0.0149, 4.0E-4, 15.45, 24.75)" gradientUnits="userSpaceOnUse" id="gradient0" r="819.2" spreadMethod="pad">
      <animateTransform additive="replace" attributeName="gradientTransform" dur="2s" from="1" repeatCount="indefinite" to="1" type="scale"/>
      <animateTransform additive="sum" attributeName="gradientTransform" dur="2s" from="15.45 24.75" repeatCount="indefinite" to="15.45 25.45" type="translate"/>
      <animateTransform additive="sum" attributeName="gradientTransform" dur="2s" from="-87.0953" repeatCount="indefinite" to="-87.5104" type="rotate"/>
      <animateTransform additive="sum" attributeName="gradientTransform" dur="2s" from="0.0072 0.0149" repeatCount="indefinite" to="0.0081 0.0149" type="scale"/>
      <animateTransform additive="sum" attributeName="gradientTransform" dur="2s" from="2.8335" repeatCount="indefinite" to="1.3393" type="skewX"/>
      <stop offset="0.0" stop-color="#000000" stop-opacity="0.6">
        <animate attributeName="offset" dur="2s" repeatCount="indefinite" values="0.0;0.0"/>
        <animate attributeName="stop-color" dur="2s" repeatCount="indefinite" values="#000000;#000001"/>
        <animate attributeName="stop-opacity" dur="2s" repeatCount="indefinite" values="0.6;0.6"/>
      </stop>
      <stop offset="1.0" stop-color="#000000" stop-opacity="0.0">
        <animate attributeName="offset" dur="2s" repeatCount="indefinite" values="1.0;1.0"/>
        <animate attributeName="stop-color" dur="2s" repeatCount="indefinite" values="#000000;#000001"/>
        <animate attributeName="stop-opacity" dur="2s" repeatCount="indefinite" values="0.0;0.0"/>
      </stop>
    </radialGradient>
  </defs>
</svg>
