<?xml version="1.0" encoding="UTF-8" standalone="no"?>
<svg xmlns:xlink="http://www.w3.org/1999/xlink" height="20.35px" width="92.25px" xmlns="http://www.w3.org/2000/svg">
  <g transform="matrix(1.0, 0.0, 0.0, 1.0, -0.25, 0.0)">
    <path d="M90.0 14.0 L90.0 16.7 89.7 16.95 78.75 16.95 78.5 16.7 78.35 3.6 Q78.35 3.35 78.65 3.35 L83.05 3.25 83.35 3.5 83.35 13.75 89.7 13.75 Q90.0 13.75 90.0 14.0 M61.35 17.2 L59.65 17.5 57.85 17.2 Q56.85 16.75 56.85 16.05 56.85 15.4 57.9 15.0 L59.6 14.65 Q60.5 14.65 61.35 15.0 62.35 15.4 62.35 16.1 62.35 16.8 61.35 17.2 M49.4 3.5 L49.4 13.75 55.75 13.75 56.05 14.0 56.05 16.7 55.75 16.95 44.8 16.95 44.55 16.7 44.4 3.6 Q44.4 3.35 44.7 3.35 L49.1 3.25 49.4 3.5 M28.65 4.25 Q30.6 5.6 30.6 8.35 30.6 10.95 28.2 12.5 26.0 13.9 22.85 14.0 L22.8 17.0 22.55 17.25 18.0 17.5 17.7 17.25 17.6 2.75 Q17.6 2.5 17.9 2.5 L23.6 2.75 Q27.05 3.15 28.65 4.25 M26.1 8.75 Q26.1 7.6 25.2 7.05 24.35 6.55 23.0 6.55 L22.95 10.75 Q26.1 10.5 26.1 8.75 M16.4 5.55 L16.5 5.7 16.4 5.85 13.65 8.55 13.45 8.65 13.3 8.55 Q10.95 7.15 9.1 7.15 8.0 7.15 8.0 7.75 8.0 8.2 10.15 8.85 13.0 9.75 14.15 10.45 16.35 11.7 16.35 13.55 16.35 15.9 14.1 17.0 12.35 17.85 9.4 17.85 7.6 17.85 5.8 17.15 3.95 16.45 2.85 15.35 L2.75 15.15 2.85 15.0 5.55 12.4 5.8 12.35 7.3 13.05 Q8.9 13.8 10.0 13.8 11.25 13.8 11.25 13.1 11.25 12.6 9.1 12.05 6.25 11.35 5.05 10.65 2.9 9.4 2.9 7.3 2.9 5.45 5.35 4.15 7.5 3.05 9.8 3.05 11.6 3.05 13.4 3.7 15.3 4.4 16.4 5.55" fill="url(#gradient0)" fill-rule="evenodd" stroke="none"/>
    <path d="M76.95 3.45 L77.2 3.7 77.1 17.05 76.8 17.3 72.7 17.45 72.45 17.3 68.1 9.4 68.0 17.05 67.75 17.3 63.8 17.45 63.5 17.2 63.5 3.7 Q63.5 3.4 63.75 3.45 L68.0 3.45 Q68.2 3.45 68.25 3.6 L72.6 11.45 72.6 3.7 Q72.6 3.4 72.85 3.45 L76.95 3.45" fill="url(#gradient1)" fill-rule="evenodd" stroke="none"/>
    <path d="M43.0 6.15 L36.5 6.15 36.45 8.45 41.65 8.45 Q41.95 8.45 41.95 8.65 L41.95 11.4 41.65 11.65 36.45 11.65 36.45 13.75 43.0 13.75 43.25 14.0 43.25 16.7 43.0 16.95 31.85 16.95 Q31.55 16.95 31.55 16.7 L31.55 3.2 Q31.55 2.95 31.8 2.95 L43.0 2.95 43.25 3.2 43.25 5.9 43.0 6.15" fill="#ffffff" fill-rule="evenodd" stroke="none"/>
    <path d="M90.0 14.0 L90.0 16.7 89.7 16.95 78.75 16.95 78.5 16.7 78.35 3.6 Q78.35 3.35 78.65 3.35 L83.05 3.25 83.35 3.5 83.35 13.75 89.7 13.75 Q90.0 13.75 90.0 14.0 M76.95 3.45 L77.2 3.7 77.1 17.05 76.8 17.3 72.7 17.45 72.45 17.3 68.1 9.4 68.0 17.05 67.75 17.3 63.8 17.45 63.5 17.2 63.5 3.7 Q63.5 3.4 63.75 3.45 L68.0 3.45 Q68.2 3.45 68.25 3.6 L72.6 11.45 72.6 3.7 Q72.6 3.4 72.85 3.45 L76.95 3.45 M61.35 17.2 L59.65 17.5 57.85 17.2 Q56.85 16.75 56.85 16.05 56.85 15.4 57.9 15.0 L59.6 14.65 Q60.5 14.65 61.35 15.0 62.35 15.4 62.35 16.1 62.35 16.8 61.35 17.2 M49.4 3.5 L49.4 13.75 55.75 13.75 56.05 14.0 56.05 16.7 55.75 16.95 44.8 16.95 44.55 16.7 44.4 3.6 Q44.4 3.35 44.7 3.35 L49.1 3.25 49.4 3.5 M43.0 6.15 L36.5 6.15 36.45 8.45 41.65 8.45 Q41.95 8.45 41.95 8.65 L41.95 11.4 41.65 11.65 36.45 11.65 36.45 13.75 43.0 13.75 43.25 14.0 43.25 16.7 43.0 16.95 31.85 16.95 Q31.55 16.95 31.55 16.7 L31.55 3.2 Q31.55 2.95 31.8 2.95 L43.0 2.95 43.25 3.2 43.25 5.9 43.0 6.15 M28.65 4.25 Q30.6 5.6 30.6 8.35 30.6 10.95 28.2 12.5 26.0 13.9 22.85 14.0 L22.8 17.0 22.55 17.25 18.0 17.5 17.7 17.25 17.6 2.75 Q17.6 2.5 17.9 2.5 L23.6 2.75 Q27.05 3.15 28.65 4.25 M26.1 8.75 Q26.1 7.6 25.2 7.05 24.35 6.55 23.0 6.55 L22.95 10.75 Q26.1 10.5 26.1 8.75 M16.4 5.55 L16.5 5.7 16.4 5.85 13.65 8.55 13.45 8.65 13.3 8.55 Q10.95 7.15 9.1 7.15 8.0 7.15 8.0 7.75 8.0 8.2 10.15 8.85 13.0 9.75 14.15 10.45 16.35 11.7 16.35 13.55 16.35 15.9 14.1 17.0 12.35 17.85 9.4 17.85 7.6 17.85 5.8 17.15 3.95 16.45 2.85 15.35 L2.75 15.15 2.85 15.0 5.55 12.4 5.8 12.35 7.3 13.05 Q8.9 13.8 10.0 13.8 11.25 13.8 11.25 13.1 11.25 12.6 9.1 12.05 6.25 11.35 5.05 10.65 2.9 9.4 2.9 7.3 2.9 5.45 5.35 4.15 7.5 3.05 9.8 3.05 11.6 3.05 13.4 3.7 15.3 4.4 16.4 5.55" fill="none" stroke="url(#gradient2)" stroke-linecap="round" stroke-linejoin="round" stroke-width="5.0"/>
  </g>
  <defs>
    <linearGradient gradientTransform="matrix(0.0, 0.3346, -0.1207, 0.0, 46.1, 276.6)" gradientUnits="userSpaceOnUse" id="gradient0" spreadMethod="pad" x1="-819.2" x2="819.2">
      <stop offset="0.0" stop-color="#ffffff"/>
      <stop offset="1.0" stop-color="#000000"/>
    </linearGradient>
    <linearGradient gradientTransform="matrix(0.0, 0.3346, -0.1207, 0.0, 46.1, 276.6)" gradientUnits="userSpaceOnUse" id="gradient1" spreadMethod="pad" x1="-819.2" x2="819.2">
      <stop offset="0.2901960784313726" stop-color="#efa200"/>
      <stop offset="0.7843137254901961" stop-color="#a31b00"/>
    </linearGradient>
    <linearGradient gradientTransform="matrix(0.0, 0.0116, -0.0114, 0.0, 70.35, 10.45)" gradientUnits="userSpaceOnUse" id="gradient2" spreadMethod="pad" x1="-819.2" x2="819.2">
      <stop offset="0.23529411764705882" stop-color="#efa200"/>
      <stop offset="0.8313725490196079" stop-color="#a31b00"/>
    </linearGradient>
  </defs>
</svg>
