<?xml version="1.0" encoding="UTF-8" standalone="no"?>
<svg xmlns:xlink="http://www.w3.org/1999/xlink" height="15.35px" width="87.25px" xmlns="http://www.w3.org/2000/svg">
  <g transform="matrix(1.0, 0.0, 0.0, 1.0, 0.0, 0.0)">
    <path d="M87.25 14.2 Q87.25 14.45 86.95 14.45 L76.0 14.45 75.75 14.2 75.6 1.1 Q75.6 0.85 75.9 0.85 L80.3 0.75 80.6 1.0 80.6 11.25 86.95 11.25 Q87.25 11.25 87.25 11.5 L87.25 14.2 M74.45 1.2 L74.35 14.55 74.05 14.8 69.95 14.95 69.7 14.8 65.35 6.9 65.25 14.55 65.0 14.8 61.05 14.95 60.75 14.7 60.75 1.2 Q60.75 0.9 61.0 0.95 L65.25 0.95 Q65.45 0.95 65.5 1.1 L69.85 8.95 69.85 1.2 Q69.85 0.9 70.1 0.95 L74.2 0.95 74.45 1.2 M53.3 11.5 L53.3 14.2 53.0 14.45 42.05 14.45 41.8 14.2 41.65 1.1 Q41.65 0.85 41.95 0.85 L46.35 0.75 46.65 1.0 46.65 11.25 53.0 11.25 53.3 11.5 M40.5 3.4 L40.25 3.65 33.75 3.65 33.7 5.95 38.9 5.95 Q39.2 5.95 39.2 6.15 L39.2 8.9 38.9 9.15 33.7 9.15 33.7 11.25 40.25 11.25 40.5 11.5 40.5 14.2 40.25 14.45 29.1 14.45 Q28.8 14.45 28.8 14.2 L28.8 0.7 Q28.8 0.45 29.05 0.45 L40.25 0.45 40.5 0.7 40.5 3.4 M56.9 15.0 L55.1 14.7 Q54.1 14.25 54.1 13.55 54.1 12.9 55.15 12.5 L56.85 12.15 Q57.75 12.15 58.6 12.5 59.6 12.9 59.6 13.6 59.6 14.3 58.6 14.7 L56.9 15.0 M25.9 1.75 Q27.85 3.1 27.85 5.85 27.85 8.45 25.45 10.0 23.25 11.4 20.1 11.5 L20.05 14.5 19.8 14.75 15.25 15.0 14.95 14.75 14.85 0.25 Q14.85 0.0 15.15 0.0 L20.85 0.25 Q24.3 0.65 25.9 1.75 M22.45 4.55 Q21.6 4.05 20.25 4.05 L20.2 8.25 Q23.35 8.0 23.35 6.25 23.35 5.1 22.45 4.55 M10.7 6.15 L10.55 6.05 Q8.2 4.65 6.35 4.65 5.25 4.65 5.25 5.25 5.25 5.7 7.4 6.35 10.25 7.25 11.4 7.95 13.6 9.2 13.6 11.05 13.6 13.4 11.35 14.5 9.6 15.35 6.65 15.35 4.85 15.35 3.05 14.65 1.2 13.95 0.1 12.85 L0.0 12.65 0.1 12.5 2.8 9.9 3.05 9.85 4.55 10.55 Q6.15 11.3 7.25 11.3 8.5 11.3 8.5 10.6 8.5 10.1 6.35 9.55 3.5 8.85 2.3 8.15 0.15 6.9 0.15 4.8 0.15 2.95 2.6 1.65 4.75 0.55 7.05 0.55 8.85 0.55 10.65 1.2 12.55 1.9 13.65 3.05 L13.75 3.2 13.65 3.35 10.9 6.05 10.7 6.15" fill="#ffffff" fill-rule="evenodd" stroke="none"/>
  </g>
</svg>
