<?xml version="1.0" encoding="UTF-8" standalone="no"?>
<svg xmlns:xlink="http://www.w3.org/1999/xlink" height="54.15px" width="165.75px" xmlns="http://www.w3.org/2000/svg">
  <g transform="matrix(1.0, 0.0, 0.0, 1.0, -4.3, 5.1)">
    <path d="M37.05 -1.3 L42.55 41.45 42.35 42.1 41.75 42.5 13.85 46.05 13.15 45.85 12.8 45.3 7.3 2.55 Q7.25 2.15 7.5 1.85 7.75 1.5 8.15 1.45 L36.05 -2.1 36.7 -1.9 37.05 -1.3" fill="#000000" fill-rule="evenodd" stroke="none"/>
    <path d="M37.05 -1.3 L42.55 41.45 42.35 42.1 41.75 42.5 13.85 46.05 13.15 45.85 12.8 45.3 7.3 2.55 Q7.25 2.15 7.5 1.85 7.75 1.5 8.15 1.45 L36.05 -2.1 36.7 -1.9 37.05 -1.3 Z" fill="none" stroke="#ffffff" stroke-linecap="round" stroke-linejoin="round" stroke-width="6.0"/>
    <path d="M164.2 10.45 Q170.05 16.3 170.05 24.55 170.05 32.8 164.2 38.65 158.35 44.5 150.15 44.5 L42.5 44.5 Q34.25 44.5 28.4 38.65 22.55 32.8 22.55 24.55 22.55 16.3 28.35 10.45 L28.4 10.45 Q34.25 4.6 42.5 4.6 L150.15 4.6 Q158.35 4.6 164.2 10.45" fill="#ffffff" fill-rule="evenodd" stroke="none"/>
    <path d="M162.4 12.25 Q167.55 17.4 167.55 24.55 167.55 31.7 162.45 36.8 L162.4 36.85 Q157.3 41.95 150.15 41.95 L42.5 41.95 Q35.3 41.95 30.2 36.8 25.1 31.7 25.1 24.55 25.1 17.4 30.2 12.25 35.3 7.15 42.5 7.15 L150.15 7.15 Q157.3 7.15 162.4 12.25" fill="#663311" fill-rule="evenodd" stroke="none"/>
    <path d="M150.15 8.45 Q156.8 8.45 161.5 13.15 166.25 17.9 166.25 24.55 166.25 31.2 161.5 35.9 156.8 40.65 150.15 40.65 L42.45 40.65 Q35.8 40.65 31.05 35.9 26.35 31.2 26.35 24.55 26.35 17.9 31.05 13.15 35.8 8.45 42.45 8.45 L150.15 8.45" fill="url(#gradient0)" fill-rule="evenodd" stroke="none"/>
    <path d="M150.1 8.45 Q156.75 8.45 161.45 13.15 166.2 17.9 166.2 24.55 L166.2 24.95 26.35 24.95 26.35 24.55 Q26.35 17.9 31.05 13.15 35.8 8.45 42.45 8.45 L150.1 8.45" fill="url(#gradient1)" fill-rule="evenodd" stroke="none"/>
    <path d="M36.7 -1.9 L37.05 -1.3 42.55 41.45 42.35 42.1 41.75 42.5 13.85 46.05 13.15 45.85 12.8 45.3 7.3 2.55 Q7.25 2.15 7.5 1.85 7.75 1.5 8.15 1.45 L36.05 -2.1 36.7 -1.9 M40.55 40.75 L35.35 -0.1 9.35 3.25 14.55 44.1 40.55 40.75" fill="#877012" fill-rule="evenodd" stroke="none"/>
    <path d="M41.65 41.55 L13.75 45.15 10.1 16.75 38.0 13.15 41.65 41.55" fill="#e5e1a3" fill-rule="evenodd" stroke="none"/>
    <path d="M39.8 27.25 L11.9 30.85 8.25 2.45 36.15 -1.15 39.8 27.25" fill="#ffffca" fill-rule="evenodd" stroke="none"/>
    <path d="M39.8 27.2 L11.9 30.8 11.65 28.95 39.55 25.35 39.8 27.2" fill="#e8d160" fill-rule="evenodd" stroke="none"/>
    <path d="M39.8 27.25 L38.15 25.5 34.8 -1.0 36.15 -1.15 39.8 27.25" fill="#f4f0a2" fill-rule="evenodd" stroke="none"/>
    <path d="M13.0 28.75 L11.9 30.85 8.25 2.45 9.6 2.25 13.0 28.75" fill="#f7f4ba" fill-rule="evenodd" stroke="none"/>
    <path d="M34.55 0.15 L10.1 3.25 8.25 2.45 36.15 -1.15 34.55 0.15" fill="#ffffff" fill-rule="evenodd" stroke="none"/>
    <path d="M10.1 3.25 L13.25 28.7 13.0 28.75 9.7 3.05 10.1 3.25" fill="#ffffff" fill-rule="evenodd" stroke="none"/>
    <path d="M13.15 28.45 L38.1 25.55 13.0 28.75 13.15 28.45" fill="#ffffff" fill-rule="evenodd" stroke="none"/>
    <path d="M29.9 15.65 L33.65 24.0 24.6 20.0 16.6 26.2 18.3 16.75 11.95 11.55 20.5 10.6 22.5 3.0 26.8 9.9 35.25 9.05 29.9 15.65" fill="#ffea6e" fill-rule="evenodd" stroke="none"/>
    <path d="M23.8 34.7 L25.7 30.5 28.95 34.1 35.85 33.3 31.25 37.05 34.0 41.45 26.8 39.6 20.05 43.25 21.75 38.05 16.8 35.5 23.8 34.7" fill="#e8d160" fill-rule="evenodd" stroke="none"/>
  </g>
  <defs>
    <linearGradient gradientTransform="matrix(1.0E-4, 0.0197, -0.0197, 1.0E-4, 96.3, 24.55)" gradientUnits="userSpaceOnUse" id="gradient0" spreadMethod="pad" x1="-819.2" x2="819.2">
      <stop offset="0.0" stop-color="#ff3c9d"/>
      <stop offset="0.7137254901960784" stop-color="#ff8855"/>
      <stop offset="0.9333333333333333" stop-color="#fdb5a4"/>
    </linearGradient>
    <linearGradient gradientTransform="matrix(1.0E-4, 0.0151, -0.0197, 1.0E-4, 95.25, 16.0)" gradientUnits="userSpaceOnUse" id="gradient1" spreadMethod="pad" x1="-819.2" x2="819.2">
      <stop offset="0.0" stop-color="#ffffff"/>
      <stop offset="1.0" stop-color="#ffffff" stop-opacity="0.0"/>
    </linearGradient>
  </defs>
</svg>
