<?xml version="1.0" encoding="UTF-8" standalone="no"?>
<svg xmlns:xlink="http://www.w3.org/1999/xlink" height="196.35px" width="240.0px" xmlns="http://www.w3.org/2000/svg">
  <g transform="matrix(1.0, 0.0, 0.0, 1.0, 33.65, 29.85)">
    <path d="M35.1 -17.85 Q35.1 -20.45 36.65 -22.8 38.6 -25.75 42.45 -26.55 45.8 -27.55 49.1 -25.4 50.85 -24.35 51.8 -22.8 52.7 -21.35 52.95 -19.65 53.85 -16.3 51.8 -13.05 L51.0 -11.8 54.1 -0.5 Q68.85 -5.05 85.7 -5.05 116.15 -5.05 139.7 9.7 L148.9 1.65 Q148.3 -0.1 148.65 -1.85 148.75 -5.8 151.75 -8.4 L153.6 -9.55 Q156.05 -10.75 158.9 -10.5 162.6 -9.95 165.1 -6.85 167.5 -4.05 167.05 -0.1 166.8 2.05 165.85 3.65 165.05 5.05 163.5 6.1 160.8 8.55 156.7 8.1 L155.35 8.0 147.35 15.0 152.9 19.65 Q164.3 29.75 171.05 41.6 180.7 43.7 188.4 50.6 L189.0 51.2 190.8 52.9 191.1 53.3 Q193.25 55.5 194.95 57.8 L196.8 60.65 Q201.4 68.0 202.75 76.7 203.2 79.4 203.25 82.35 L203.35 84.2 Q203.35 88.6 202.55 92.75 201.8 97.55 199.85 101.9 L198.55 104.75 Q195.7 110.3 191.1 115.1 L189.8 116.4 188.65 117.45 186.15 119.6 185.5 120.15 Q175.8 127.3 163.55 127.8 158.9 133.5 152.9 138.8 137.95 152.1 119.65 158.15 104.0 163.2 85.7 163.5 L84.85 163.5 Q66.75 163.85 50.45 157.95 34.45 152.75 21.25 141.9 13.2 135.25 7.7 127.75 -3.8 126.9 -12.9 120.15 L-13.55 119.6 -16.1 117.45 -17.2 116.4 -18.6 115.1 Q-23.1 110.3 -25.95 104.75 L-27.25 101.9 Q-29.1 97.55 -29.95 92.85 -30.65 88.7 -30.65 84.2 L-30.65 82.35 -30.2 76.7 Q-28.8 68.0 -24.25 60.65 L-22.35 57.9 Q-20.65 55.5 -18.6 53.3 L-18.2 52.9 -16.4 51.3 -15.75 50.6 Q-8.6 44.25 0.2 41.9 6.9 29.9 18.5 19.65 30.95 8.55 45.8 2.55 L42.75 -8.95 Q41.15 -9.2 39.75 -10.2 36.25 -12.0 35.45 -15.65 35.1 -16.8 35.1 -17.85" fill="#3ebbeb" fill-rule="evenodd" stroke="none"/>
    <path d="M35.1 -17.85 Q35.1 -20.45 36.65 -22.8 38.6 -25.75 42.45 -26.55 45.8 -27.55 49.1 -25.4 50.85 -24.35 51.8 -22.8 52.7 -21.35 52.95 -19.65 53.85 -16.3 51.8 -13.05 L51.0 -11.8 54.1 -0.5 Q68.85 -5.05 85.7 -5.05 116.15 -5.05 139.7 9.7 L148.9 1.65 Q148.3 -0.1 148.65 -1.85 148.75 -5.8 151.75 -8.4 L153.6 -9.55 Q156.05 -10.75 158.9 -10.5 162.6 -9.95 165.1 -6.85 167.5 -4.05 167.05 -0.1 166.8 2.05 165.85 3.65 165.05 5.05 163.5 6.1 160.8 8.55 156.7 8.1 L155.35 8.0 147.35 15.0 152.9 19.65 Q164.3 29.75 171.05 41.6 180.7 43.7 188.4 50.6 L189.0 51.2 190.8 52.9 191.1 53.3 Q193.25 55.5 194.95 57.8 L196.8 60.65 Q201.4 68.0 202.75 76.7 203.2 79.4 203.25 82.35 L203.35 84.2 Q203.35 88.6 202.55 92.75 201.8 97.55 199.85 101.9 L198.55 104.75 Q195.7 110.3 191.1 115.1 L189.8 116.4 188.65 117.45 186.15 119.6 185.5 120.15 Q175.8 127.3 163.55 127.8 158.9 133.5 152.9 138.8 137.95 152.1 119.65 158.15 104.0 163.2 85.7 163.5 L84.85 163.5 Q66.75 163.85 50.45 157.95 34.45 152.75 21.25 141.9 13.2 135.25 7.7 127.75 -3.8 126.9 -12.9 120.15 L-13.55 119.6 -16.1 117.45 -17.2 116.4 -18.6 115.1 Q-23.1 110.3 -25.95 104.75 L-27.25 101.9 Q-29.1 97.55 -29.95 92.85 -30.65 88.7 -30.65 84.2 L-30.65 82.35 -30.2 76.7 Q-28.8 68.0 -24.25 60.65 L-22.35 57.9 Q-20.65 55.5 -18.6 53.3 L-18.2 52.9 -16.4 51.3 -15.75 50.6 Q-8.6 44.25 0.2 41.9 6.9 29.9 18.5 19.65 30.95 8.55 45.8 2.55 L42.75 -8.95 Q41.15 -9.2 39.75 -10.2 36.25 -12.0 35.45 -15.65 35.1 -16.8 35.1 -17.85 Z" fill="none" stroke="#2b2e44" stroke-linecap="round" stroke-linejoin="round" stroke-width="6.0"/>
    <path d="M190.75 52.9 L191.1 53.3 Q193.2 55.5 194.9 57.8 L196.8 60.65 Q201.35 68.0 202.75 76.7 198.9 70.25 194.25 65.4 L192.0 63.0 187.5 59.2 190.75 52.9" fill="#2d81d2" fill-rule="evenodd" stroke="none"/>
    <path d="M187.5 59.2 L192.0 63.0 194.25 65.4 Q198.9 70.25 202.75 76.7 L203.25 82.35 203.3 84.2 Q203.3 88.6 202.5 92.75 201.75 97.6 199.8 101.9 L198.5 104.75 Q195.65 110.3 191.1 115.1 L189.8 116.4 188.65 117.45 190.9 84.35 180.5 69.45 187.5 59.2 M188.4 50.65 L188.95 51.2 185.8 57.9 184.95 57.4 188.4 50.65" fill="#65a2de" fill-rule="evenodd" stroke="none"/>
    <path d="M190.75 52.9 L187.5 59.2 180.5 69.45 190.9 84.35 188.65 117.45 186.1 119.6 188.5 84.05 178.15 69.15 185.8 57.9 188.95 51.2 190.75 52.9" fill="#1e5184" fill-rule="evenodd" stroke="none"/>
    <path d="M186.1 119.6 L185.45 120.15 185.05 119.6 185.65 112.1 187.5 84.05 177.15 69.15 184.75 57.9 184.95 57.4 185.8 57.9 178.15 69.15 188.5 84.05 186.1 119.6" fill="#7baee1" fill-rule="evenodd" stroke="none"/>
    <path d="M134.5 117.15 L132.5 115.1 Q126.95 109.25 123.85 102.3 120.25 94.05 120.25 84.2 120.25 66.1 132.5 53.3 L132.5 53.25 Q164.35 43.8 184.9 57.4 L184.95 57.4 184.75 57.9 177.15 69.15 187.5 84.05 185.65 112.1 Q162.95 125.55 134.5 117.15" fill="#3a89d6" fill-rule="evenodd" stroke="none"/>
    <path d="M185.45 120.15 Q175.1 127.8 161.85 127.8 153.9 127.8 147.0 125.1 140.25 122.45 134.5 117.15 162.95 125.55 185.65 112.1 L185.05 119.6 185.45 120.15 M132.5 53.25 Q144.7 40.6 161.85 40.6 177.05 40.6 188.4 50.65 L184.95 57.4 184.9 57.4 Q164.35 43.8 132.5 53.25" fill="#266fb7" fill-rule="evenodd" stroke="none"/>
    <path d="M183.7 69.45 Q184.3 70.0 185.15 70.0 186.05 70.0 186.65 69.45 187.25 68.9 187.25 68.15 187.25 67.4 186.65 66.85 186.05 66.3 185.15 66.3 184.3 66.3 183.7 66.85 183.1 67.4 183.1 68.15 183.1 68.9 183.7 69.45" fill="#c0d9f1" fill-rule="evenodd" stroke="none"/>
    <path d="M183.7 70.0 Q184.3 70.55 185.15 70.55 186.05 70.55 186.65 70.0 187.25 69.45 187.25 68.7 187.25 67.95 186.65 67.4 186.05 66.85 185.15 66.85 184.3 66.85 183.7 67.4 183.1 67.95 183.1 68.7 183.1 69.45 183.7 70.0" fill="#215e9a" fill-rule="evenodd" stroke="none"/>
    <path d="M182.0 86.4 Q182.6 86.95 183.45 86.95 184.35 86.95 184.95 86.4 185.55 85.85 185.55 85.1 185.55 84.35 184.95 83.8 184.35 83.25 183.45 83.25 182.6 83.25 182.0 83.8 181.4 84.35 181.4 85.1 181.4 85.85 182.0 86.4" fill="#c0d9f1" fill-rule="evenodd" stroke="none"/>
    <path d="M182.0 86.4 Q182.6 86.95 183.45 86.95 184.35 86.95 184.95 86.4 185.55 85.85 185.55 85.1 185.55 84.35 184.95 83.8 184.35 83.25 183.45 83.25 182.6 83.25 182.0 83.8 181.4 84.35 181.4 85.1 181.4 85.85 182.0 86.4" fill="#215e9a" fill-rule="evenodd" stroke="none"/>
    <path d="M40.0 53.25 L40.05 53.3 Q52.3 66.1 52.3 84.2 52.3 94.05 48.6 102.3 45.6 109.25 40.05 115.1 L38.1 117.15 Q9.6 125.55 -13.1 112.1 L-14.95 84.05 -4.5 69.15 -12.2 57.95 -12.45 57.4 Q8.1 43.8 40.0 53.25" fill="#3a89d6" fill-rule="evenodd" stroke="none"/>
    <path d="M40.0 53.25 Q8.1 43.8 -12.45 57.4 L-15.75 50.65 Q-4.5 40.6 10.8 40.6 27.85 40.6 40.0 53.25 M-13.1 112.1 Q9.6 125.55 38.1 117.15 32.3 122.45 25.55 125.2 18.65 127.8 10.8 127.8 -2.55 127.8 -12.9 120.15 L-12.6 119.6 -13.1 112.1" fill="#266fb7" fill-rule="evenodd" stroke="none"/>
    <path d="M-16.1 117.45 L-17.25 116.4 -18.6 115.1 Q-23.1 110.3 -25.95 104.75 L-27.25 101.9 Q-29.15 97.6 -29.95 92.85 -30.7 88.7 -30.7 84.2 L-30.7 82.35 Q-30.7 79.5 -30.2 76.7 -26.35 70.25 -21.8 65.4 L-19.35 63.0 -14.95 59.2 -7.95 69.45 -18.3 84.35 -16.1 117.45 M-16.4 51.3 L-15.75 50.65 -12.45 57.4 -13.25 57.95 -16.4 51.3" fill="#65a2de" fill-rule="evenodd" stroke="none"/>
    <path d="M-13.55 119.6 L-16.1 117.45 -18.3 84.35 -7.95 69.45 -14.95 59.2 -15.6 58.2 -18.2 52.9 -16.4 51.3 -13.25 57.95 -5.5 69.15 -15.95 84.05 -13.55 119.6" fill="#1e5184" fill-rule="evenodd" stroke="none"/>
    <path d="M-30.2 76.7 Q-28.8 68.0 -24.25 60.65 L-22.35 57.9 Q-20.65 55.5 -18.6 53.3 L-18.2 52.9 -15.6 58.2 -14.95 59.2 -19.35 63.0 -21.8 65.4 Q-26.35 70.25 -30.2 76.7" fill="#2d81d2" fill-rule="evenodd" stroke="none"/>
    <path d="M-12.45 57.4 L-12.2 57.95 -4.5 69.15 -14.95 84.05 -13.1 112.1 -12.6 119.6 -12.9 120.15 -13.55 119.6 -15.95 84.05 -5.5 69.15 -13.25 57.95 -12.45 57.4" fill="#7baee1" fill-rule="evenodd" stroke="none"/>
    <path d="M-11.35 69.45 Q-11.95 70.0 -12.8 70.0 -13.7 70.0 -14.3 69.45 -14.9 68.9 -14.9 68.15 -14.9 67.4 -14.3 66.85 -13.7 66.3 -12.8 66.3 -11.95 66.3 -11.35 66.85 -10.75 67.4 -10.75 68.15 -10.75 68.9 -11.35 69.45" fill="#c0d9f1" fill-rule="evenodd" stroke="none"/>
    <path d="M-11.35 70.0 Q-11.95 70.55 -12.8 70.55 -13.7 70.55 -14.3 70.0 -14.9 69.45 -14.9 68.7 -14.9 67.95 -14.3 67.4 -13.7 66.85 -12.8 66.85 -11.95 66.85 -11.35 67.4 -10.75 67.95 -10.75 68.7 -10.75 69.45 -11.35 70.0" fill="#215e9a" fill-rule="evenodd" stroke="none"/>
    <path d="M-9.15 86.4 Q-9.75 86.95 -10.6 86.95 -11.5 86.95 -12.1 86.4 -12.7 85.85 -12.7 85.1 -12.7 84.35 -12.1 83.8 -11.5 83.25 -10.6 83.25 -9.75 83.25 -9.15 83.8 -8.55 84.35 -8.55 85.1 -8.55 85.85 -9.15 86.4" fill="#c0d9f1" fill-rule="evenodd" stroke="none"/>
    <path d="M-9.15 86.4 Q-9.75 86.95 -10.6 86.95 -11.5 86.95 -12.1 86.4 -12.7 85.85 -12.7 85.1 -12.7 84.35 -12.1 83.8 -11.5 83.25 -10.6 83.25 -9.75 83.25 -9.15 83.8 -8.55 84.35 -8.55 85.1 -8.55 85.85 -9.15 86.4" fill="#215e9a" fill-rule="evenodd" stroke="none"/>
    <path d="M37.8 -20.75 Q38.0 -22.05 39.35 -23.45 40.4 -24.5 42.35 -25.1 L42.6 -25.1 43.9 -25.25 Q45.2 -25.0 45.45 -24.5 45.75 -23.95 45.45 -22.4 45.2 -20.85 43.55 -19.3 41.55 -17.6 39.55 -17.9 37.3 -18.3 37.8 -20.75" fill="#aed9ea" fill-rule="evenodd" stroke="none"/>
    <path d="M35.1 -17.85 Q35.1 -20.45 36.65 -22.8 38.6 -25.75 42.45 -26.55 45.75 -27.55 49.1 -25.4 50.8 -24.35 51.8 -22.8 L51.65 -21.65 Q50.65 -16.6 48.45 -14.4 45.85 -11.9 41.2 -12.7 38.1 -13.35 36.5 -15.05 35.4 -16.3 35.1 -17.85 M37.8 -20.75 Q37.3 -18.3 39.55 -17.9 41.55 -17.6 43.55 -19.3 45.2 -20.85 45.45 -22.4 45.75 -23.95 45.45 -24.5 45.2 -25.0 43.9 -25.25 L42.6 -25.1 42.35 -25.1 Q40.4 -24.5 39.35 -23.45 38.0 -22.05 37.8 -20.75" fill="#5eb1d5" fill-rule="evenodd" stroke="none"/>
    <path d="M51.8 -22.8 Q52.7 -21.35 52.95 -19.65 53.85 -16.3 51.8 -13.0 L51.0 -11.8 55.7 5.7 Q51.4 9.95 47.25 8.0 L42.75 -8.95 Q41.1 -9.2 39.75 -10.15 36.25 -11.95 35.4 -15.65 35.1 -16.75 35.1 -17.85 35.4 -16.3 36.5 -15.05 38.1 -13.35 41.2 -12.7 45.85 -11.9 48.45 -14.4 50.65 -16.6 51.65 -21.65 L51.8 -22.8" fill="#4686b0" fill-rule="evenodd" stroke="none"/>
    <path d="M153.6 -9.5 Q156.05 -10.75 158.9 -10.5 162.55 -9.95 165.1 -6.85 167.45 -4.05 167.05 -0.05 166.8 2.05 165.8 3.7 L164.75 4.0 156.55 4.35 Q152.95 3.1 151.65 -1.55 150.8 -4.8 151.7 -7.05 152.3 -8.55 153.6 -9.5 M157.6 -8.4 Q155.15 -7.75 155.8 -5.45 156.3 -3.4 158.8 -2.45 161.0 -1.55 162.55 -1.95 164.1 -2.45 164.5 -3.0 164.85 -3.5 164.5 -4.7 L163.8 -5.95 163.6 -6.2 Q162.3 -7.75 160.7 -8.2 L157.6 -8.4" fill="#5eb1d5" fill-rule="evenodd" stroke="none"/>
    <path d="M165.8 3.7 Q165.0 5.05 163.45 6.15 160.75 8.55 156.7 8.1 L155.3 8.0 141.2 20.3 Q135.35 18.25 135.25 13.55 L148.85 1.65 Q148.3 -0.05 148.6 -1.85 148.7 -5.75 151.7 -8.4 L153.6 -9.5 Q152.3 -8.55 151.7 -7.05 150.8 -4.8 151.65 -1.55 152.95 3.1 156.55 4.35 L164.75 4.0 165.8 3.7" fill="#4686b0" fill-rule="evenodd" stroke="none"/>
    <path d="M157.6 -8.4 L160.7 -8.2 Q162.3 -7.75 163.6 -6.2 L163.8 -5.95 164.5 -4.7 Q164.85 -3.5 164.5 -3.0 164.1 -2.45 162.55 -1.95 161.0 -1.55 158.8 -2.45 156.3 -3.4 155.8 -5.45 155.15 -7.75 157.6 -8.4" fill="#aed9ea" fill-rule="evenodd" stroke="none"/>
    <path d="M85.7 163.5 Q46.35 163.5 18.45 138.8 -9.4 114.1 -9.4 79.25 -9.4 44.35 18.45 19.65 46.35 -5.05 85.7 -5.05 125.05 -5.05 152.85 19.65 180.75 44.35 180.75 79.25 180.75 114.1 152.85 138.8 125.05 163.5 85.7 163.5" fill="#2b9be6" fill-rule="evenodd" stroke="none"/>
    <path d="M144.2 30.45 Q168.65 52.9 168.65 84.6 168.65 116.25 144.2 138.7 119.7 161.05 85.2 161.05 50.6 161.05 25.95 138.7 1.6 116.25 1.6 84.6 1.6 52.9 25.95 30.45 50.6 8.1 85.2 8.1 119.7 8.1 144.2 30.45" fill="#3ebbeb" fill-rule="evenodd" stroke="none"/>
  </g>
</svg>
