<?xml version="1.0" encoding="UTF-8" standalone="no"?>
<svg xmlns:xlink="http://www.w3.org/1999/xlink" height="20.7px" width="202.7px" xmlns="http://www.w3.org/2000/svg">
  <g transform="matrix(1.0, 0.0, 0.0, 1.0, -0.3, -0.05)">
    <path d="M199.85 3.7 L200.5 16.9 200.25 17.15 196.3 17.35 196.0 17.1 195.8 9.3 193.35 16.65 193.1 16.9 190.65 16.9 190.4 16.65 187.9 9.3 187.75 17.1 187.4 17.35 183.5 17.2 183.2 16.95 183.85 3.7 Q183.85 3.45 184.15 3.45 L188.75 3.5 Q188.95 3.5 189.0 3.65 L191.85 11.05 194.75 3.65 Q194.8 3.5 195.0 3.5 L199.6 3.45 199.85 3.7 M180.4 5.85 Q182.3 8.1 182.3 11.05 182.3 13.9 180.3 16.0 178.15 18.25 174.85 18.25 171.0 18.25 168.8 16.2 166.65 14.25 166.65 10.95 166.65 7.75 168.9 5.6 171.2 3.35 175.0 3.35 178.3 3.35 180.4 5.85 M176.85 8.9 Q175.95 7.8 174.55 7.8 173.15 7.8 172.25 8.9 171.45 9.9 171.45 11.15 171.45 12.35 172.25 13.35 173.15 14.45 174.55 14.45 175.95 14.45 176.85 13.35 177.7 12.35 177.7 11.15 177.7 9.9 176.85 8.9 M163.2 2.75 L163.85 6.55 163.55 6.8 163.05 6.75 162.55 6.75 Q159.95 6.75 158.35 7.6 156.4 8.6 156.4 10.65 156.4 12.15 157.55 12.95 158.6 13.7 160.35 13.7 162.3 13.7 164.5 12.55 L164.65 12.5 Q164.95 12.5 164.95 12.7 L165.7 16.0 165.65 16.15 Q164.85 17.0 163.1 17.45 L160.15 17.8 Q156.3 17.8 153.9 15.85 151.45 13.95 151.45 10.65 151.45 6.65 154.7 4.5 157.7 2.55 162.6 2.55 L163.2 2.75 M143.95 5.9 L143.85 6.05 141.1 8.75 140.9 8.85 140.75 8.75 Q138.4 7.35 136.55 7.35 135.45 7.35 135.45 7.95 135.45 8.4 137.6 9.05 140.45 9.95 141.6 10.65 143.8 11.9 143.8 13.75 143.8 16.1 141.55 17.25 139.8 18.1 136.85 18.1 135.05 18.1 133.25 17.4 131.4 16.65 130.3 15.55 L130.2 15.35 130.3 15.2 133.0 12.6 133.25 12.55 134.75 13.25 Q136.35 14.0 137.45 14.0 138.7 14.0 138.7 13.3 138.7 12.8 136.55 12.25 133.7 11.55 132.5 10.85 130.35 9.6 130.35 7.5 130.35 5.65 132.8 4.35 134.95 3.25 137.25 3.25 139.05 3.25 140.85 3.9 142.75 4.6 143.85 5.75 L143.95 5.9 M146.05 17.45 Q145.05 17.0 145.05 16.25 145.05 15.6 146.1 15.2 146.9 14.85 147.8 14.85 L149.55 15.2 Q150.55 15.6 150.55 16.3 150.55 17.05 149.55 17.45 L147.85 17.75 146.05 17.45 M129.3 11.05 Q129.3 13.9 127.3 16.0 125.15 18.25 121.85 18.25 118.0 18.25 115.8 16.2 113.65 14.25 113.65 10.95 113.65 7.75 115.9 5.6 118.2 3.35 122.0 3.35 125.3 3.35 127.4 5.85 129.3 8.1 129.3 11.05 M123.85 8.9 Q122.95 7.8 121.55 7.8 120.15 7.8 119.25 8.9 118.45 9.9 118.45 11.15 118.45 12.35 119.25 13.35 120.15 14.45 121.55 14.45 122.95 14.45 123.85 13.35 124.7 12.35 124.7 11.15 124.7 9.9 123.85 8.9 M112.5 9.45 L112.75 15.95 112.65 16.15 Q111.85 16.95 110.05 17.4 L107.05 17.75 Q103.2 17.75 100.85 15.85 98.45 13.9 98.45 10.65 98.45 6.65 101.75 4.5 104.7 2.55 109.6 2.55 L110.2 2.75 110.85 6.55 110.55 6.8 110.05 6.75 109.55 6.75 Q106.9 6.75 105.3 7.65 103.4 8.65 103.4 10.8 103.4 13.8 106.5 13.8 L107.8 13.65 107.75 11.95 105.65 12.0 105.45 11.95 105.35 11.75 105.45 9.85 Q105.45 9.6 105.7 9.6 L112.15 9.25 Q112.5 9.2 112.5 9.45 M92.3 8.9 Q91.4 7.8 90.0 7.8 88.6 7.8 87.7 8.9 86.9 9.9 86.9 11.15 86.9 12.35 87.7 13.35 88.6 14.45 90.0 14.45 91.4 14.45 92.3 13.35 93.15 12.35 93.15 11.15 93.15 9.9 92.3 8.9 M97.75 11.05 Q97.75 13.9 95.75 16.0 93.6 18.25 90.3 18.25 86.45 18.25 84.25 16.2 82.1 14.25 82.1 10.95 82.1 7.75 84.35 5.6 86.65 3.35 90.45 3.35 93.75 3.35 95.85 5.85 97.75 8.1 97.75 11.05 M81.0 11.8 Q80.85 17.8 74.1 17.8 67.4 17.8 67.4 12.0 L67.45 10.45 67.75 10.2 72.2 10.6 Q72.5 10.65 72.5 10.85 L72.5 11.75 Q72.5 14.05 74.2 14.05 75.3 14.05 75.7 13.15 L75.95 11.45 76.1 3.95 Q76.1 3.7 76.4 3.75 L80.95 3.9 81.2 4.15 81.0 11.8 M66.4 4.05 L66.65 4.3 66.6 4.45 61.9 10.4 66.25 17.15 Q66.25 17.35 65.95 17.4 L60.95 17.55 60.7 17.4 57.85 12.25 57.55 12.3 57.55 16.6 57.25 16.9 52.55 17.15 52.3 16.9 52.2 3.95 Q52.2 3.7 52.5 3.7 L57.4 3.7 57.6 3.75 57.65 3.95 57.6 9.25 61.25 4.05 61.5 3.95 66.4 4.05 M48.4 6.75 L47.9 6.75 Q45.3 6.75 43.7 7.6 41.75 8.6 41.75 10.65 41.75 12.15 42.9 12.95 43.95 13.7 45.7 13.7 47.65 13.7 49.85 12.55 L50.0 12.5 Q50.3 12.5 50.3 12.7 L51.05 16.0 51.0 16.15 Q50.2 17.0 48.45 17.45 L45.5 17.8 Q41.65 17.8 39.25 15.85 36.8 13.95 36.8 10.65 36.8 6.65 40.05 4.5 43.05 2.55 47.95 2.55 L48.55 2.75 49.2 6.55 Q49.25 6.8 48.9 6.8 L48.4 6.75 M31.15 3.55 L35.6 3.6 35.9 3.85 35.5 17.25 35.2 17.5 30.95 17.55 30.75 17.5 30.65 17.3 30.9 3.75 31.15 3.55 M23.2 3.7 L23.2 13.95 29.55 13.95 29.85 14.2 29.85 16.95 29.55 17.2 18.6 17.2 18.35 16.95 18.2 3.8 18.5 3.55 22.9 3.45 23.2 3.7 M14.55 2.75 L15.2 6.55 Q15.25 6.8 14.9 6.8 L14.4 6.75 13.9 6.75 Q11.3 6.75 9.7 7.6 7.75 8.6 7.75 10.65 7.75 12.15 8.9 12.95 9.95 13.7 11.7 13.7 13.65 13.7 15.85 12.55 L16.0 12.5 Q16.3 12.5 16.3 12.7 L17.05 16.0 17.0 16.15 Q16.2 17.0 14.45 17.45 L11.5 17.8 Q7.65 17.8 5.25 15.85 2.8 13.95 2.8 10.65 2.8 6.65 6.05 4.5 9.05 2.55 13.95 2.55 L14.55 2.75" fill="url(#gradient0)" fill-rule="evenodd" stroke="none"/>
    <path d="M199.85 3.7 L200.5 16.9 200.25 17.15 196.3 17.35 196.0 17.1 195.8 9.3 193.35 16.65 193.1 16.9 190.65 16.9 190.4 16.65 187.9 9.3 187.75 17.1 187.4 17.35 183.5 17.2 183.2 16.95 183.85 3.7 Q183.85 3.45 184.15 3.45 L188.75 3.5 Q188.95 3.5 189.0 3.65 L191.85 11.05 194.75 3.65 Q194.8 3.5 195.0 3.5 L199.6 3.45 199.85 3.7 M180.4 5.85 Q182.3 8.1 182.3 11.05 182.3 13.9 180.3 16.0 178.15 18.25 174.85 18.25 171.0 18.25 168.8 16.2 166.65 14.25 166.65 10.95 166.65 7.75 168.9 5.6 171.2 3.35 175.0 3.35 178.3 3.35 180.4 5.85 M176.85 8.9 Q175.95 7.8 174.55 7.8 173.15 7.8 172.25 8.9 171.45 9.9 171.45 11.15 171.45 12.35 172.25 13.35 173.15 14.45 174.55 14.45 175.95 14.45 176.85 13.35 177.7 12.35 177.7 11.15 177.7 9.9 176.85 8.9 M163.2 2.75 L163.85 6.55 163.55 6.8 163.05 6.75 162.55 6.75 Q159.95 6.75 158.35 7.6 156.4 8.6 156.4 10.65 156.4 12.15 157.55 12.95 158.6 13.7 160.35 13.7 162.3 13.7 164.5 12.55 L164.65 12.5 Q164.95 12.5 164.95 12.7 L165.7 16.0 165.65 16.15 Q164.85 17.0 163.1 17.45 L160.15 17.8 Q156.3 17.8 153.9 15.85 151.45 13.95 151.45 10.65 151.45 6.65 154.7 4.5 157.7 2.55 162.6 2.55 L163.2 2.75 M143.95 5.9 L143.85 6.05 141.1 8.75 140.9 8.85 140.75 8.75 Q138.4 7.35 136.55 7.35 135.45 7.35 135.45 7.95 135.45 8.4 137.6 9.05 140.45 9.95 141.6 10.65 143.8 11.9 143.8 13.75 143.8 16.1 141.55 17.25 139.8 18.1 136.85 18.1 135.05 18.1 133.25 17.4 131.4 16.65 130.3 15.55 L130.2 15.35 130.3 15.2 133.0 12.6 133.25 12.55 134.75 13.25 Q136.35 14.0 137.45 14.0 138.7 14.0 138.7 13.3 138.7 12.8 136.55 12.25 133.7 11.55 132.5 10.85 130.35 9.6 130.35 7.5 130.35 5.65 132.8 4.35 134.95 3.25 137.25 3.25 139.05 3.25 140.85 3.9 142.75 4.6 143.85 5.75 L143.95 5.9 M146.05 17.45 Q145.05 17.0 145.05 16.25 145.05 15.6 146.1 15.2 146.9 14.85 147.8 14.85 L149.55 15.2 Q150.55 15.6 150.55 16.3 150.55 17.05 149.55 17.45 L147.85 17.75 146.05 17.45 M129.3 11.05 Q129.3 13.9 127.3 16.0 125.15 18.25 121.85 18.25 118.0 18.25 115.8 16.2 113.65 14.25 113.65 10.95 113.65 7.75 115.9 5.6 118.2 3.35 122.0 3.35 125.3 3.35 127.4 5.85 129.3 8.1 129.3 11.05 M123.85 8.9 Q122.95 7.8 121.55 7.8 120.15 7.8 119.25 8.9 118.45 9.9 118.45 11.15 118.45 12.35 119.25 13.35 120.15 14.45 121.55 14.45 122.95 14.45 123.85 13.35 124.7 12.35 124.7 11.15 124.7 9.9 123.85 8.9 M112.5 9.45 L112.75 15.95 112.65 16.15 Q111.85 16.95 110.05 17.4 L107.05 17.75 Q103.2 17.75 100.85 15.85 98.45 13.9 98.45 10.65 98.45 6.65 101.75 4.5 104.7 2.55 109.6 2.55 L110.2 2.75 110.85 6.55 110.55 6.8 110.05 6.75 109.55 6.75 Q106.9 6.75 105.3 7.65 103.4 8.65 103.4 10.8 103.4 13.8 106.5 13.8 L107.8 13.65 107.75 11.95 105.65 12.0 105.45 11.95 105.35 11.75 105.45 9.85 Q105.45 9.6 105.7 9.6 L112.15 9.25 Q112.5 9.2 112.5 9.45 M92.3 8.9 Q91.4 7.8 90.0 7.8 88.6 7.8 87.7 8.9 86.9 9.9 86.9 11.15 86.9 12.35 87.7 13.35 88.6 14.45 90.0 14.45 91.4 14.45 92.3 13.35 93.15 12.35 93.15 11.15 93.15 9.9 92.3 8.9 M97.75 11.05 Q97.75 13.9 95.75 16.0 93.6 18.25 90.3 18.25 86.45 18.25 84.25 16.2 82.1 14.25 82.1 10.95 82.1 7.75 84.35 5.6 86.65 3.35 90.45 3.35 93.75 3.35 95.85 5.85 97.75 8.1 97.75 11.05 M81.0 11.8 Q80.85 17.8 74.1 17.8 67.4 17.8 67.4 12.0 L67.45 10.45 67.75 10.2 72.2 10.6 Q72.5 10.65 72.5 10.85 L72.5 11.75 Q72.5 14.05 74.2 14.05 75.3 14.05 75.7 13.15 L75.95 11.45 76.1 3.95 Q76.1 3.7 76.4 3.75 L80.95 3.9 81.2 4.15 81.0 11.8 M66.4 4.05 L66.65 4.3 66.6 4.45 61.9 10.4 66.25 17.15 Q66.25 17.35 65.95 17.4 L60.95 17.55 60.7 17.4 57.85 12.25 57.55 12.3 57.55 16.6 57.25 16.9 52.55 17.15 52.3 16.9 52.2 3.95 Q52.2 3.7 52.5 3.7 L57.4 3.7 57.6 3.75 57.65 3.95 57.6 9.25 61.25 4.05 61.5 3.95 66.4 4.05 M48.4 6.75 L47.9 6.75 Q45.3 6.75 43.7 7.6 41.75 8.6 41.75 10.65 41.75 12.15 42.9 12.95 43.95 13.7 45.7 13.7 47.65 13.7 49.85 12.55 L50.0 12.5 Q50.3 12.5 50.3 12.7 L51.05 16.0 51.0 16.15 Q50.2 17.0 48.45 17.45 L45.5 17.8 Q41.65 17.8 39.25 15.85 36.8 13.95 36.8 10.65 36.8 6.65 40.05 4.5 43.05 2.55 47.95 2.55 L48.55 2.75 49.2 6.55 Q49.25 6.8 48.9 6.8 L48.4 6.75 M31.15 3.55 L35.6 3.6 35.9 3.85 35.5 17.25 35.2 17.5 30.95 17.55 30.75 17.5 30.65 17.3 30.9 3.75 31.15 3.55 M23.2 3.7 L23.2 13.95 29.55 13.95 29.85 14.2 29.85 16.95 29.55 17.2 18.6 17.2 18.35 16.95 18.2 3.8 18.5 3.55 22.9 3.45 23.2 3.7 M14.55 2.75 L15.2 6.55 Q15.25 6.8 14.9 6.8 L14.4 6.75 13.9 6.75 Q11.3 6.75 9.7 7.6 7.75 8.6 7.75 10.65 7.75 12.15 8.9 12.95 9.95 13.7 11.7 13.7 13.65 13.7 15.85 12.55 L16.0 12.5 Q16.3 12.5 16.3 12.7 L17.05 16.0 17.0 16.15 Q16.2 17.0 14.45 17.45 L11.5 17.8 Q7.65 17.8 5.25 15.85 2.8 13.95 2.8 10.65 2.8 6.65 6.05 4.5 9.05 2.55 13.95 2.55 L14.55 2.75" fill="none" stroke="url(#gradient1)" stroke-linecap="round" stroke-linejoin="round" stroke-width="5.0"/>
  </g>
  <defs>
    <linearGradient gradientTransform="matrix(0.0, 0.3354, -0.1207, 0.0, 101.65, -137.95)" gradientUnits="userSpaceOnUse" id="gradient0" spreadMethod="pad" x1="-819.2" x2="819.2">
      <stop offset="0.0" stop-color="#ffffff"/>
      <stop offset="1.0" stop-color="#000000"/>
    </linearGradient>
    <linearGradient gradientTransform="matrix(0.0, 0.0115, -0.0136, 0.0, 191.85, 10.35)" gradientUnits="userSpaceOnUse" id="gradient1" spreadMethod="pad" x1="-819.2" x2="819.2">
      <stop offset="0.23529411764705882" stop-color="#efa200"/>
      <stop offset="0.8313725490196079" stop-color="#a31b00"/>
    </linearGradient>
  </defs>
</svg>
