<?xml version="1.0" encoding="UTF-8" standalone="no"?>
<svg xmlns:xlink="http://www.w3.org/1999/xlink" height="15.65px" width="197.7px" xmlns="http://www.w3.org/2000/svg">
  <g transform="matrix(1.0, 0.0, 0.0, 1.0, 0.0, 0.0)">
    <path d="M197.05 1.15 L197.7 14.3 197.45 14.55 193.5 14.75 193.2 14.5 193.0 6.75 190.55 14.1 190.3 14.3 187.85 14.3 187.6 14.1 185.1 6.75 184.95 14.5 Q184.95 14.8 184.6 14.75 L180.7 14.6 180.4 14.35 181.05 1.15 Q181.05 0.9 181.35 0.9 L185.95 0.95 186.2 1.1 189.05 8.5 191.95 1.1 Q192.0 0.95 192.2 0.95 L196.8 0.9 197.05 1.15 M174.05 6.35 Q173.15 5.25 171.75 5.25 170.35 5.25 169.45 6.35 168.65 7.35 168.65 8.6 168.65 9.8 169.45 10.8 170.35 11.9 171.75 11.9 173.15 11.9 174.05 10.8 174.9 9.8 174.9 8.6 174.9 7.35 174.05 6.35 M179.5 8.5 Q179.5 11.35 177.5 13.45 175.35 15.65 172.05 15.65 168.2 15.65 166.0 13.65 163.85 11.7 163.85 8.4 163.85 5.2 166.1 3.05 168.4 0.8 172.2 0.8 175.5 0.8 177.6 3.3 179.5 5.55 179.5 8.5 M162.85 13.6 Q162.05 14.4 160.3 14.85 L157.35 15.2 Q153.5 15.2 151.1 13.3 148.65 11.4 148.65 8.1 148.65 4.1 151.9 1.95 154.9 0.0 159.8 0.0 160.35 0.0 160.4 0.2 L161.05 4.0 160.75 4.25 160.25 4.2 159.75 4.2 Q157.15 4.2 155.55 5.05 153.6 6.05 153.6 8.1 153.6 9.6 154.75 10.4 155.8 11.15 157.55 11.15 159.5 11.15 161.7 10.0 L161.85 9.95 Q162.15 9.95 162.15 10.15 L162.9 13.45 162.85 13.6 M142.25 13.7 Q142.25 13.05 143.3 12.65 L145.0 12.3 146.75 12.65 Q147.75 13.05 147.75 13.75 147.75 14.45 146.75 14.85 L145.05 15.15 143.25 14.85 Q142.25 14.4 142.25 13.7 M141.15 3.35 L141.05 3.5 138.3 6.2 138.1 6.3 137.95 6.2 Q135.6 4.8 133.75 4.8 132.65 4.8 132.65 5.4 132.65 5.85 134.8 6.5 137.65 7.4 138.8 8.1 141.0 9.35 141.0 11.2 141.0 13.55 138.75 14.65 137.0 15.5 134.05 15.5 132.25 15.5 130.45 14.8 128.6 14.1 127.5 13.0 L127.4 12.8 127.5 12.65 130.2 10.05 130.45 10.0 131.95 10.7 Q133.55 11.45 134.65 11.45 135.9 11.45 135.9 10.75 135.9 10.25 133.75 9.7 130.9 9.0 129.7 8.3 127.55 7.05 127.55 4.95 127.55 3.1 130.0 1.8 132.15 0.7 134.45 0.7 136.25 0.7 138.05 1.35 139.95 2.05 141.05 3.2 L141.15 3.35 M126.5 8.5 Q126.5 11.35 124.5 13.45 122.35 15.65 119.05 15.65 115.2 15.65 113.0 13.65 110.85 11.7 110.85 8.4 110.85 5.2 113.1 3.05 115.4 0.8 119.2 0.8 122.5 0.8 124.6 3.3 126.5 5.55 126.5 8.5 M118.75 5.25 Q117.35 5.25 116.45 6.35 115.65 7.35 115.65 8.6 115.65 9.8 116.45 10.8 117.35 11.9 118.75 11.9 120.15 11.9 121.05 10.8 121.9 9.8 121.9 8.6 121.9 7.35 121.05 6.35 120.15 5.25 118.75 5.25 M107.4 0.2 L108.05 4.0 107.75 4.25 107.25 4.2 106.75 4.2 Q104.1 4.2 102.5 5.1 100.6 6.1 100.6 8.25 100.6 11.25 103.7 11.25 L105.0 11.1 104.95 9.4 102.85 9.45 102.65 9.4 102.55 9.2 102.65 7.3 Q102.65 7.05 102.9 7.05 L109.35 6.7 Q109.7 6.65 109.7 6.9 L109.95 13.4 109.85 13.6 Q109.05 14.35 107.25 14.8 L104.25 15.15 Q100.4 15.15 98.05 13.3 95.65 11.35 95.65 8.1 95.65 4.1 98.95 1.95 101.9 0.0 106.8 0.0 L107.4 0.2 M94.95 8.5 Q94.95 11.35 92.95 13.45 90.8 15.65 87.5 15.65 83.65 15.65 81.45 13.65 79.3 11.7 79.3 8.4 79.3 5.2 81.55 3.05 83.85 0.8 87.65 0.8 90.95 0.8 93.05 3.3 94.95 5.55 94.95 8.5 M84.1 8.6 Q84.1 9.8 84.9 10.8 85.8 11.9 87.2 11.9 88.6 11.9 89.5 10.8 90.35 9.8 90.35 8.6 90.35 7.35 89.5 6.35 88.6 5.25 87.2 5.25 85.8 5.25 84.9 6.35 84.1 7.35 84.1 8.6 M73.6 1.2 L78.15 1.35 78.4 1.6 78.2 9.25 Q78.05 15.2 71.3 15.2 64.6 15.2 64.6 9.45 L64.65 7.9 64.95 7.65 69.4 8.05 69.7 8.3 69.7 9.2 Q69.7 11.5 71.4 11.5 72.5 11.5 72.9 10.6 L73.15 8.9 73.3 1.4 Q73.3 1.15 73.6 1.2 M63.85 1.75 L63.8 1.9 59.1 7.85 63.45 14.55 63.15 14.8 58.15 14.95 57.9 14.8 55.05 9.7 54.75 9.75 54.75 14.05 Q54.75 14.3 54.45 14.3 L49.75 14.55 49.5 14.3 49.4 1.4 49.7 1.15 54.6 1.15 54.8 1.2 54.85 1.4 54.8 6.7 58.45 1.5 58.7 1.4 63.6 1.5 63.85 1.75 M46.4 4.0 L46.1 4.25 45.6 4.2 45.1 4.2 Q42.5 4.2 40.9 5.05 38.95 6.05 38.95 8.1 38.95 9.6 40.1 10.4 41.15 11.15 42.9 11.15 44.85 11.15 47.05 10.0 L47.2 9.95 Q47.5 9.95 47.5 10.15 L48.25 13.45 48.2 13.6 Q47.4 14.4 45.65 14.85 L42.7 15.2 Q38.85 15.2 36.45 13.3 34.0 11.4 34.0 8.1 34.0 4.1 37.25 1.95 40.25 0.0 45.15 0.0 L45.75 0.2 46.4 4.0 M33.1 1.3 L32.7 14.65 32.4 14.9 28.15 14.95 27.95 14.9 27.85 14.7 28.1 1.2 28.35 1.0 32.8 1.05 33.1 1.3 M26.75 11.4 L27.05 11.65 27.05 14.35 26.75 14.6 15.8 14.6 15.55 14.35 15.4 1.25 Q15.4 1.0 15.7 1.0 L20.1 0.9 20.4 1.15 20.4 11.4 26.75 11.4 M11.75 0.2 L12.4 4.0 12.1 4.25 11.6 4.2 11.1 4.2 Q8.5 4.2 6.9 5.05 4.95 6.05 4.95 8.1 4.95 9.6 6.1 10.4 7.15 11.15 8.9 11.15 10.85 11.15 13.05 10.0 L13.2 9.95 Q13.5 9.95 13.5 10.15 L14.25 13.45 14.2 13.6 Q13.4 14.4 11.65 14.85 L8.7 15.2 Q4.85 15.2 2.45 13.3 0.0 11.4 0.0 8.1 0.0 4.1 3.25 1.95 6.25 0.0 11.15 0.0 11.7 0.0 11.75 0.2" fill="#ffffff" fill-rule="evenodd" stroke="none"/>
  </g>
</svg>
