<?xml version="1.0" encoding="UTF-8" standalone="no"?>
<svg xmlns:xlink="http://www.w3.org/1999/xlink" height="23.5px" width="223.2px" xmlns="http://www.w3.org/2000/svg">
  <g transform="matrix(1.0, 0.0, 0.0, 1.0, -0.25, 0.15)">
    <path d="M220.95 2.4 L216.05 2.4 215.9 3.1 208.95 3.1 207.8 8.2 211.0 8.2 211.0 20.4 216.4 20.4 216.4 8.3 219.55 8.3 220.95 2.4 M207.25 3.1 L201.9 3.1 200.65 8.2 201.85 8.2 201.85 20.4 207.25 20.4 207.25 3.1 M188.25 2.95 L187.5 2.8 187.05 2.8 186.25 2.8 Q183.65 2.8 182.1 4.15 180.4 5.6 180.4 8.15 180.4 10.6 182.25 12.0 183.25 12.75 185.6 13.55 187.45 14.15 187.45 14.8 187.45 15.6 186.3 15.6 L183.95 15.05 181.7 14.1 180.35 19.1 Q183.35 20.75 186.35 20.75 189.3 20.75 191.15 19.25 193.15 17.6 193.15 14.8 193.15 12.35 191.35 10.9 190.3 10.15 188.05 9.35 186.25 8.7 186.25 8.2 186.25 7.4 187.45 7.4 188.15 7.4 189.45 7.9 190.65 8.25 191.45 8.75 L193.0 3.2 188.45 2.35 188.25 2.95 M199.35 16.0 Q198.5 15.1 197.35 15.1 L196.2 15.3 Q195.7 15.55 195.3 15.95 L194.65 16.85 194.4 18.0 194.65 19.15 195.3 20.05 196.2 20.7 197.35 20.85 Q198.5 20.85 199.35 20.05 200.2 19.2 200.25 18.0 200.2 16.75 199.35 16.0 M173.6 3.1 L172.35 8.2 173.55 8.2 173.55 20.4 178.95 20.4 178.95 3.1 173.6 3.1 M167.85 3.1 L160.9 3.1 159.75 8.2 162.9 8.2 162.9 20.4 168.3 20.4 168.3 8.3 171.5 8.3 172.85 2.4 167.95 2.4 167.85 3.1 M146.6 7.75 L143.25 20.2 140.35 14.85 Q143.15 13.0 143.2 9.35 143.2 6.6 141.4 4.85 139.65 3.1 136.9 3.1 L129.15 3.1 127.95 8.2 129.15 8.2 129.15 20.4 134.55 20.4 134.55 15.3 136.9 20.4 148.75 20.4 149.45 18.0 154.35 18.0 154.85 20.4 160.55 20.4 155.65 3.1 147.05 3.1 145.35 7.75 146.6 7.75 M153.25 13.45 L150.55 13.45 151.95 8.35 153.25 13.45 M135.9 8.15 Q137.7 8.15 137.7 9.6 137.7 11.0 135.9 11.0 L134.55 11.0 134.55 8.15 135.9 8.15 M125.5 5.1 L121.7 3.1 121.35 3.4 Q120.15 2.7 118.45 2.7 115.2 2.7 112.6 5.1 109.55 7.75 109.55 11.55 109.55 15.55 112.25 18.1 114.9 20.7 118.85 20.7 122.55 20.7 125.2 17.9 127.8 15.1 127.85 11.4 L127.85 11.1 127.8 10.7 127.7 9.65 119.6 9.65 118.45 14.15 121.3 14.15 Q120.4 15.35 118.9 15.35 117.25 15.35 116.15 14.45 115.0 13.45 115.0 11.85 115.0 10.25 116.05 9.3 117.05 8.25 118.65 8.3 119.55 8.25 120.7 8.75 L121.6 9.2 125.5 5.1 M102.25 8.5 L107.7 8.5 109.1 2.4 104.25 2.4 104.05 3.1 96.85 3.1 95.65 8.35 96.85 8.35 96.85 20.4 107.25 20.4 108.5 15.0 102.25 15.0 102.25 13.9 107.4 13.9 108.65 9.5 102.25 9.5 102.25 8.5 M93.5 4.85 Q91.75 3.1 89.0 3.1 L81.25 3.1 80.05 8.2 81.25 8.2 81.25 20.4 86.65 20.4 86.65 15.3 89.0 20.4 95.45 20.4 92.45 14.85 Q95.25 13.0 95.3 9.35 L95.25 8.35 Q94.95 6.25 93.5 4.85 M86.65 8.15 L88.0 8.15 Q89.8 8.15 89.85 9.6 89.8 11.0 88.0 11.0 L86.65 11.0 86.65 8.15 M63.55 3.95 L59.2 2.35 58.85 2.95 57.75 2.8 56.7 2.75 Q52.85 2.75 50.3 6.0 48.1 8.75 48.15 11.75 48.1 15.45 50.85 18.05 53.55 20.6 57.35 20.6 60.9 20.55 63.3 18.4 L60.95 13.45 Q59.25 15.2 57.5 15.2 L56.0 14.9 54.85 14.15 54.1 12.95 Q53.8 12.25 53.85 11.45 53.8 10.05 54.9 9.05 56.05 8.05 57.5 8.05 58.25 8.05 59.35 8.55 60.3 9.0 61.0 9.65 L63.55 3.95 M65.55 7.75 L66.75 7.75 63.4 20.4 68.95 20.4 69.65 18.0 74.55 18.0 75.05 20.4 80.75 20.4 75.85 3.1 67.25 3.1 65.55 7.75 M73.45 13.45 L70.75 13.45 72.1 8.35 73.45 13.45 M41.75 11.75 L41.45 13.1 40.8 14.2 39.75 14.9 38.35 15.2 36.95 14.95 Q36.25 14.65 35.8 14.2 35.25 13.75 34.95 13.1 34.7 12.4 34.75 11.65 34.75 10.15 35.8 9.2 36.9 8.2 38.35 8.2 39.85 8.2 40.8 9.25 41.75 10.3 41.75 11.75 M44.9 5.45 Q42.3 2.75 38.4 2.75 34.2 2.75 31.4 5.65 28.95 8.2 28.95 11.4 28.9 15.55 31.65 18.1 34.35 20.65 38.5 20.65 42.55 20.65 45.25 17.75 47.55 15.15 47.55 12.05 47.55 8.2 44.9 5.45 M20.95 9.65 L12.85 9.65 11.7 14.15 14.5 14.15 Q13.65 15.35 12.15 15.35 10.45 15.35 9.4 14.45 8.25 13.45 8.25 11.85 8.2 10.25 9.25 9.3 10.3 8.25 11.85 8.3 12.75 8.25 13.95 8.75 L14.85 9.2 18.7 5.1 14.9 3.1 14.55 3.4 Q13.4 2.7 11.7 2.7 8.45 2.7 5.8 5.1 2.75 7.75 2.75 11.55 2.75 15.55 5.45 18.1 8.1 20.7 12.1 20.7 15.75 20.7 18.4 17.9 21.05 15.1 21.05 11.4 L21.05 11.1 21.0 10.7 20.95 9.65 M22.45 3.1 L21.15 8.2 22.4 8.2 22.4 20.4 27.8 20.4 27.8 3.1 22.45 3.1" fill="none" stroke="#000000" stroke-linecap="round" stroke-linejoin="round" stroke-width="5.0"/>
    <path d="M220.95 2.4 L216.05 2.4 215.9 3.1 208.95 3.1 207.8 8.2 211.0 8.2 211.0 20.4 216.4 20.4 216.4 8.3 219.55 8.3 220.95 2.4 M207.25 3.1 L201.9 3.1 200.65 8.2 201.85 8.2 201.85 20.4 207.25 20.4 207.25 3.1 M188.25 2.95 L187.5 2.8 187.05 2.8 186.25 2.8 Q183.65 2.8 182.1 4.15 180.4 5.6 180.4 8.15 180.4 10.6 182.25 12.0 183.25 12.75 185.6 13.55 187.45 14.15 187.45 14.8 187.45 15.6 186.3 15.6 L183.95 15.05 181.7 14.1 180.35 19.1 Q183.35 20.75 186.35 20.75 189.3 20.75 191.15 19.25 193.15 17.6 193.15 14.8 193.15 12.35 191.35 10.9 190.3 10.15 188.05 9.35 186.25 8.7 186.25 8.2 186.25 7.4 187.45 7.4 188.15 7.4 189.45 7.9 190.65 8.25 191.45 8.75 L193.0 3.2 188.45 2.35 188.25 2.95 M199.35 16.0 Q198.5 15.1 197.35 15.1 L196.2 15.3 Q195.7 15.55 195.3 15.95 L194.65 16.85 194.4 18.0 194.65 19.15 195.3 20.05 196.2 20.7 197.35 20.85 Q198.5 20.85 199.35 20.05 200.2 19.2 200.25 18.0 200.2 16.75 199.35 16.0 M173.6 3.1 L172.35 8.2 173.55 8.2 173.55 20.4 178.95 20.4 178.95 3.1 173.6 3.1 M167.85 3.1 L160.9 3.1 159.75 8.2 162.9 8.2 162.9 20.4 168.3 20.4 168.3 8.3 171.5 8.3 172.85 2.4 167.95 2.4 167.85 3.1 M146.6 7.75 L143.25 20.2 140.35 14.85 Q143.15 13.0 143.2 9.35 143.2 6.6 141.4 4.85 139.65 3.1 136.9 3.1 L129.15 3.1 127.95 8.2 129.15 8.2 129.15 20.4 134.55 20.4 134.55 15.3 136.9 20.4 148.75 20.4 149.45 18.0 154.35 18.0 154.85 20.4 160.55 20.4 155.65 3.1 147.05 3.1 145.35 7.75 146.6 7.75 M153.25 13.45 L150.55 13.45 151.95 8.35 153.25 13.45 M135.9 8.15 Q137.7 8.15 137.7 9.6 137.7 11.0 135.9 11.0 L134.55 11.0 134.55 8.15 135.9 8.15 M125.5 5.1 L121.7 3.1 121.35 3.4 Q120.15 2.7 118.45 2.7 115.2 2.7 112.6 5.1 109.55 7.75 109.55 11.55 109.55 15.55 112.25 18.1 114.9 20.7 118.85 20.7 122.55 20.7 125.2 17.9 127.8 15.1 127.85 11.4 L127.85 11.1 127.8 10.7 127.7 9.65 119.6 9.65 118.45 14.15 121.3 14.15 Q120.4 15.35 118.9 15.35 117.25 15.35 116.15 14.45 115.0 13.45 115.0 11.85 115.0 10.25 116.05 9.3 117.05 8.25 118.65 8.3 119.55 8.25 120.7 8.75 L121.6 9.2 125.5 5.1 M102.25 8.5 L107.7 8.5 109.1 2.4 104.25 2.4 104.05 3.1 96.85 3.1 95.65 8.35 96.85 8.35 96.85 20.4 107.25 20.4 108.5 15.0 102.25 15.0 102.25 13.9 107.4 13.9 108.65 9.5 102.25 9.5 102.25 8.5 M93.5 4.85 Q91.75 3.1 89.0 3.1 L81.25 3.1 80.05 8.2 81.25 8.2 81.25 20.4 86.65 20.4 86.65 15.3 89.0 20.4 95.45 20.4 92.45 14.85 Q95.25 13.0 95.3 9.35 L95.25 8.35 Q94.95 6.25 93.5 4.85 M86.65 8.15 L88.0 8.15 Q89.8 8.15 89.85 9.6 89.8 11.0 88.0 11.0 L86.65 11.0 86.65 8.15 M63.55 3.95 L59.2 2.35 58.85 2.95 57.75 2.8 56.7 2.75 Q52.85 2.75 50.3 6.0 48.1 8.75 48.15 11.75 48.1 15.45 50.85 18.05 53.55 20.6 57.35 20.6 60.9 20.55 63.3 18.4 L60.95 13.45 Q59.25 15.2 57.5 15.2 L56.0 14.9 54.85 14.15 54.1 12.95 Q53.8 12.25 53.85 11.45 53.8 10.05 54.9 9.05 56.05 8.05 57.5 8.05 58.25 8.05 59.35 8.55 60.3 9.0 61.0 9.65 L63.55 3.95 M65.55 7.75 L66.75 7.75 63.4 20.4 68.95 20.4 69.65 18.0 74.55 18.0 75.05 20.4 80.75 20.4 75.85 3.1 67.25 3.1 65.55 7.75 M73.45 13.45 L70.75 13.45 72.1 8.35 73.45 13.45 M41.75 11.75 L41.45 13.1 40.8 14.2 39.75 14.9 38.35 15.2 36.95 14.95 Q36.25 14.65 35.8 14.2 35.25 13.75 34.95 13.1 34.7 12.4 34.75 11.65 34.75 10.15 35.8 9.2 36.9 8.2 38.35 8.2 39.85 8.2 40.8 9.25 41.75 10.3 41.75 11.75 M44.9 5.45 Q42.3 2.75 38.4 2.75 34.2 2.75 31.4 5.65 28.95 8.2 28.95 11.4 28.9 15.55 31.65 18.1 34.35 20.65 38.5 20.65 42.55 20.65 45.25 17.75 47.55 15.15 47.55 12.05 47.55 8.2 44.9 5.45 M20.95 9.65 L12.85 9.65 11.7 14.15 14.5 14.15 Q13.65 15.35 12.15 15.35 10.45 15.35 9.4 14.45 8.25 13.45 8.25 11.85 8.2 10.25 9.25 9.3 10.3 8.25 11.85 8.3 12.75 8.25 13.95 8.75 L14.85 9.2 18.7 5.1 14.9 3.1 14.55 3.4 Q13.4 2.7 11.7 2.7 8.45 2.7 5.8 5.1 2.75 7.75 2.75 11.55 2.75 15.55 5.45 18.1 8.1 20.7 12.1 20.7 15.75 20.7 18.4 17.9 21.05 15.1 21.05 11.4 L21.05 11.1 21.0 10.7 20.95 9.65 M22.45 3.1 L21.15 8.2 22.4 8.2 22.4 20.4 27.8 20.4 27.8 3.1 22.45 3.1" fill="none" stroke="#ffffff" stroke-linecap="round" stroke-linejoin="round" stroke-width="3.0"/>
    <path d="M22.45 3.1 L27.8 3.1 27.8 20.4 22.4 20.4 22.4 8.2 21.15 8.2 22.45 3.1 M20.95 9.65 L21.0 10.7 21.05 11.1 21.05 11.4 Q21.05 15.1 18.4 17.9 15.75 20.7 12.1 20.7 8.1 20.7 5.45 18.1 2.75 15.55 2.75 11.55 2.75 7.75 5.8 5.1 8.45 2.7 11.7 2.7 13.4 2.7 14.55 3.4 L14.9 3.1 18.7 5.1 14.85 9.2 13.95 8.75 Q12.75 8.25 11.85 8.3 10.3 8.25 9.25 9.3 8.2 10.25 8.25 11.85 8.25 13.45 9.4 14.45 10.45 15.35 12.15 15.35 13.65 15.35 14.5 14.15 L11.7 14.15 12.85 9.65 20.95 9.65 M44.9 5.45 Q47.55 8.2 47.55 12.05 47.55 15.15 45.25 17.75 42.55 20.65 38.5 20.65 34.35 20.65 31.65 18.1 28.9 15.55 28.95 11.4 28.95 8.2 31.4 5.65 34.2 2.75 38.4 2.75 42.3 2.75 44.9 5.45 M41.75 11.75 Q41.75 10.3 40.8 9.25 39.85 8.2 38.35 8.2 36.9 8.2 35.8 9.2 34.75 10.15 34.75 11.65 34.7 12.4 34.95 13.1 35.25 13.75 35.8 14.2 36.25 14.65 36.95 14.95 L38.35 15.2 39.75 14.9 40.8 14.2 41.45 13.1 41.75 11.75 M73.45 13.45 L72.1 8.35 70.75 13.45 73.45 13.45 M65.55 7.75 L67.25 3.1 75.85 3.1 80.75 20.4 75.05 20.4 74.55 18.0 69.65 18.0 68.95 20.4 63.4 20.4 66.75 7.75 65.55 7.75 M63.55 3.95 L61.0 9.65 Q60.3 9.0 59.35 8.55 58.25 8.05 57.5 8.05 56.05 8.05 54.9 9.05 53.8 10.05 53.85 11.45 53.8 12.25 54.1 12.95 L54.85 14.15 56.0 14.9 57.5 15.2 Q59.25 15.2 60.95 13.45 L63.3 18.4 Q60.9 20.55 57.35 20.6 53.55 20.6 50.85 18.05 48.1 15.45 48.15 11.75 48.1 8.75 50.3 6.0 52.85 2.75 56.7 2.75 L57.75 2.8 58.85 2.95 59.2 2.35 63.55 3.95 M86.65 8.15 L86.65 11.0 88.0 11.0 Q89.8 11.0 89.85 9.6 89.8 8.15 88.0 8.15 L86.65 8.15 M93.5 4.85 Q94.95 6.25 95.25 8.35 L95.3 9.35 Q95.25 13.0 92.45 14.85 L95.45 20.4 89.0 20.4 86.65 15.3 86.65 20.4 81.25 20.4 81.25 8.2 80.05 8.2 81.25 3.1 89.0 3.1 Q91.75 3.1 93.5 4.85 M102.25 8.5 L102.25 9.5 108.65 9.5 107.4 13.9 102.25 13.9 102.25 15.0 108.5 15.0 107.25 20.4 96.85 20.4 96.85 8.35 95.65 8.35 96.85 3.1 104.05 3.1 104.25 2.4 109.1 2.4 107.7 8.5 102.25 8.5 M125.5 5.1 L121.6 9.2 120.7 8.75 Q119.55 8.25 118.65 8.3 117.05 8.25 116.05 9.3 115.0 10.25 115.0 11.85 115.0 13.45 116.15 14.45 117.25 15.35 118.9 15.35 120.4 15.35 121.3 14.15 L118.45 14.15 119.6 9.65 127.7 9.65 127.8 10.7 127.85 11.1 127.85 11.4 Q127.8 15.1 125.2 17.9 122.55 20.7 118.85 20.7 114.9 20.7 112.25 18.1 109.55 15.55 109.55 11.55 109.55 7.75 112.6 5.1 115.2 2.7 118.45 2.7 120.15 2.7 121.35 3.4 L121.7 3.1 125.5 5.1 M135.9 8.15 L134.55 8.15 134.55 11.0 135.9 11.0 Q137.7 11.0 137.7 9.6 137.7 8.15 135.9 8.15 M153.25 13.45 L151.95 8.35 150.55 13.45 153.25 13.45 M146.6 7.75 L145.35 7.75 147.05 3.1 155.65 3.1 160.55 20.4 154.85 20.4 154.35 18.0 149.45 18.0 148.75 20.4 136.9 20.4 134.55 15.3 134.55 20.4 129.15 20.4 129.15 8.2 127.95 8.2 129.15 3.1 136.9 3.1 Q139.65 3.1 141.4 4.85 143.2 6.6 143.2 9.35 143.15 13.0 140.35 14.85 L143.25 20.2 146.6 7.75 M167.85 3.1 L167.95 2.4 172.85 2.4 171.5 8.3 168.3 8.3 168.3 20.4 162.9 20.4 162.9 8.2 159.75 8.2 160.9 3.1 167.85 3.1 M173.6 3.1 L178.95 3.1 178.95 20.4 173.55 20.4 173.55 8.2 172.35 8.2 173.6 3.1 M199.35 16.0 Q200.2 16.75 200.25 18.0 200.2 19.2 199.35 20.05 198.5 20.85 197.35 20.85 L196.2 20.7 195.3 20.05 194.65 19.15 194.4 18.0 194.65 16.85 195.3 15.95 Q195.7 15.55 196.2 15.3 L197.35 15.1 Q198.5 15.1 199.35 16.0 M188.25 2.95 L188.45 2.35 193.0 3.2 191.45 8.75 Q190.65 8.25 189.45 7.9 188.15 7.4 187.45 7.4 186.25 7.4 186.25 8.2 186.25 8.7 188.05 9.35 190.3 10.15 191.35 10.9 193.15 12.35 193.15 14.8 193.15 17.6 191.15 19.25 189.3 20.75 186.35 20.75 183.35 20.75 180.35 19.1 L181.7 14.1 183.95 15.05 186.3 15.6 Q187.45 15.6 187.45 14.8 187.45 14.15 185.6 13.55 183.25 12.75 182.25 12.0 180.4 10.6 180.4 8.15 180.4 5.6 182.1 4.15 183.65 2.8 186.25 2.8 L187.05 2.8 187.5 2.8 188.25 2.95 M207.25 3.1 L207.25 20.4 201.85 20.4 201.85 8.2 200.65 8.2 201.9 3.1 207.25 3.1 M220.95 2.4 L219.55 8.3 216.4 8.3 216.4 20.4 211.0 20.4 211.0 8.2 207.8 8.2 208.95 3.1 215.9 3.1 216.05 2.4 220.95 2.4" fill="url(#gradient0)" fill-rule="evenodd" stroke="none"/>
  </g>
  <defs>
    <linearGradient gradientTransform="matrix(0.0, 0.0107, -0.1331, 0.0, 111.85, 11.6)" gradientUnits="userSpaceOnUse" id="gradient0" spreadMethod="pad" x1="-819.2" x2="819.2">
      <stop offset="0.0" stop-color="#ffc234"/>
      <stop offset="0.7215686274509804" stop-color="#ff3930"/>
    </linearGradient>
  </defs>
</svg>
