<?xml version="1.0" encoding="UTF-8" standalone="no"?>
<svg xmlns:xlink="http://www.w3.org/1999/xlink" height="26.6px" width="28.8px" xmlns="http://www.w3.org/2000/svg">
  <g transform="matrix(1.0, 0.0, 0.0, 1.0, 0.0, 0.0)">
    <path d="M2.85 26.6 Q0.0 26.6 0.0 18.3 L0.0 8.35 Q0.0 0.0 2.85 0.0 L25.95 0.0 Q28.8 0.0 28.8 8.35 L28.8 18.3 Q28.8 26.6 25.95 26.6 L2.85 26.6" fill="#99ffff" fill-rule="evenodd" stroke="none"/>
    <path d="M0.0 9.15 Q0.0 1.2 2.7 1.2 L24.7 1.2 Q27.45 1.2 27.45 9.15 L27.45 18.65 Q27.45 26.6 24.7 26.6 L2.7 26.6 Q0.0 26.6 0.0 18.65 L0.0 9.15" fill="url(#gradient0)" fill-rule="evenodd" stroke="none"/>
    <path d="M14.35 22.3 L6.05 7.9 22.65 7.9 14.35 22.3" fill="#33cc00" fill-rule="evenodd" stroke="none"/>
    <path d="M14.35 22.3 L6.05 7.9 22.65 7.9 14.35 22.3 Z" fill="none" stroke="#ffcc66" stroke-linecap="round" stroke-linejoin="round" stroke-width="0.05"/>
  </g>
  <defs>
    <linearGradient gradientTransform="matrix(0.0, 0.014, -0.0041, 0.0, 13.7, 13.95)" gradientUnits="userSpaceOnUse" id="gradient0" spreadMethod="pad" x1="-819.2" x2="819.2">
      <stop offset="0.0" stop-color="#ffffff" stop-opacity="0.49803922"/>
      <stop offset="1.0" stop-color="#ffffff" stop-opacity="0.0"/>
    </linearGradient>
  </defs>
</svg>
