<?xml version="1.0" encoding="UTF-8" standalone="no"?>
<svg xmlns:xlink="http://www.w3.org/1999/xlink" height="13.5px" width="14.45px" xmlns="http://www.w3.org/2000/svg">
  <g transform="matrix(1.0, 0.0, 0.0, 1.0, 7.35, -1.5)">
    <path d="M6.65 5.55 L6.6 5.55 6.5 5.35 6.5 5.25 6.35 4.65 6.35 4.55 6.2 4.2 6.25 4.05 Q6.5 3.15 5.8 2.45 L5.0 1.85 5.0 1.9 4.9 1.9 Q3.65 1.3 1.85 1.55 L1.8 1.6 Q0.0 1.9 -1.15 2.9 -1.95 3.65 -1.9 4.55 L-1.85 4.65 -1.65 5.5 -1.65 5.7 -1.5 7.2 -1.5 7.25 -1.45 7.35 -1.45 7.5 -1.4 7.5 -1.4 7.55 -5.05 8.35 -6.1 8.6 -6.85 9.0 Q-7.45 9.6 -7.35 10.5 L-7.3 10.85 -6.9 11.7 -6.85 11.7 Q-6.3 12.3 -5.45 12.1 L-5.05 12.05 -0.7 11.1 -0.65 11.15 -0.65 11.25 -0.65 11.3 -0.65 11.35 -0.65 11.45 -0.5 12.2 -0.25 12.95 -0.3 13.05 -0.1 13.35 -0.05 13.35 0.0 13.45 0.05 13.55 0.5 14.2 1.3 14.7 1.55 14.85 1.7 14.9 2.15 14.95 2.35 14.95 3.25 15.0 3.3 15.0 3.95 14.95 5.05 14.55 5.6 14.3 5.65 14.3 6.3 13.75 Q6.95 13.15 7.0 12.5 L7.0 12.4 7.05 12.4 7.05 11.85 7.1 11.25 7.1 11.15 6.9 10.25 6.95 10.2 6.9 10.15 6.85 9.6 6.8 9.55 6.75 9.4 6.65 9.35 6.65 9.3 6.4 7.85 6.35 7.75 6.3 7.2 6.55 6.8 6.6 6.75 6.55 6.7 6.6 5.75 6.65 5.7 6.65 5.55 M4.8 3.45 L4.95 3.7 4.85 4.1 4.85 4.15 4.85 4.45 4.95 4.8 5.15 5.55 5.2 5.65 5.25 5.9 5.25 6.3 5.1 6.55 Q4.9 6.75 4.95 7.0 L5.05 8.55 5.0 8.6 5.15 8.8 5.15 9.15 5.2 9.25 5.45 10.5 5.65 10.9 5.7 11.2 5.75 11.25 5.75 11.3 5.75 11.35 5.7 11.65 5.7 11.7 5.7 12.0 5.65 12.15 5.7 12.2 5.65 12.25 5.35 12.75 4.85 13.15 Q4.65 13.2 4.55 13.35 L3.55 13.6 3.5 13.65 3.2 13.6 2.5 13.6 2.15 13.55 2.1 13.55 2.05 13.55 2.0 13.5 1.5 13.25 1.25 12.85 1.2 12.85 1.2 12.8 1.1 12.6 1.1 12.55 1.05 12.5 0.95 12.35 0.75 11.45 0.8 11.15 0.8 11.1 0.75 10.15 0.45 9.7 -0.05 9.6 -5.3 10.7 -5.6 10.75 -5.65 10.8 -5.7 10.75 -5.9 10.7 -5.9 10.6 -6.05 10.2 -5.95 10.05 -5.8 9.9 -4.75 9.7 -0.25 8.7 0.2 8.4 0.3 7.95 0.3 7.9 0.25 7.55 0.0 7.25 -0.1 7.1 -0.1 6.95 -0.15 6.8 -0.25 6.0 -0.2 5.55 -0.55 4.4 -0.2 3.9 Q0.55 3.15 2.05 2.9 L4.5 3.15 4.55 3.2 4.8 3.45" fill="#453129" fill-rule="evenodd" stroke="none"/>
    <path d="M0.3 7.95 L-5.9 9.3 -6.5 9.7 -6.6 10.4 -6.55 10.8 -6.15 11.35 -5.55 11.5 0.55 10.2 1.0 9.95 1.3 9.4 1.3 8.65 0.95 8.1 0.3 7.95" fill="#9e6720" fill-rule="evenodd" stroke="none"/>
    <path d="M1.0 9.95 Q1.4 9.6 1.25 8.8 L1.1 9.25 0.2 9.95 -5.0 10.95 -5.2 11.25 Q-5.5 11.55 -5.8 11.45 L-5.1 11.45 0.55 10.2 1.0 9.95" fill="#aa8052" fill-rule="evenodd" stroke="none"/>
    <path d="M0.45 7.95 Q-5.8 9.15 -6.2 9.5 -5.75 9.25 -5.25 9.5 L1.05 8.2 0.9 8.1 0.45 7.95" fill="#7f4f08" fill-rule="evenodd" stroke="none"/>
    <path d="M5.75 8.0 L5.6 11.85 Q5.4 12.55 4.6 13.2 L3.75 13.7 Q5.6 13.05 5.9 12.0 6.2 10.85 5.75 8.0" fill="#ffffff" fill-rule="evenodd" stroke="none"/>
    <path d="M5.6 5.3 Q5.6 3.45 5.4 3.15 L-0.8 4.9 -0.55 6.85 0.05 9.9 0.4 11.85 0.6 13.0 0.65 13.2 1.75 14.15 3.65 14.35 5.55 13.6 Q6.3 13.1 6.35 12.4 L6.2 10.65 5.8 8.65 5.6 5.3" fill="#ceb27a" fill-rule="evenodd" stroke="none"/>
    <path d="M4.2 4.8 L2.4 5.45 3.3 14.35 4.65 14.05 5.25 13.8 4.55 9.65 4.2 4.8" fill="#aa8052" fill-rule="evenodd" stroke="none"/>
    <path d="M2.45 5.15 L0.5 5.25 1.8 14.25 3.1 14.35 3.75 14.35 3.0 10.3 2.45 5.15" fill="#9e6720" fill-rule="evenodd" stroke="none"/>
    <path d="M0.7 5.4 L-1.15 4.55 0.1 9.9 0.2 11.5 0.4 12.65 1.15 13.9 2.1 14.4 0.7 5.4" fill="#7f4f08" fill-rule="evenodd" stroke="none"/>
    <path d="M5.95 6.55 L5.95 5.8 5.85 5.25 Q6.0 6.25 4.75 6.7 L2.15 7.15 Q1.25 7.25 0.1 6.55 L-0.9 5.8 -0.7 7.4 Q-0.3 8.05 0.7 8.35 L2.85 8.45 Q4.0 8.35 4.85 7.75 L5.95 6.55" fill="#7f4f08" fill-rule="evenodd" stroke="none"/>
    <path d="M6.25 11.1 Q6.35 11.95 5.25 12.25 L2.8 12.65 Q1.95 12.75 0.95 12.1 L0.15 11.4 0.5 12.95 Q1.4 14.25 3.6 14.0 5.8 13.55 6.45 12.2 L6.4 11.45 6.25 11.1" fill="#7f4f08" fill-rule="evenodd" stroke="none"/>
    <path d="M4.8 7.5 L5.85 6.3 5.9 5.55 5.75 5.0 5.1 5.75 Q4.25 6.6 3.25 6.75 L1.25 6.95 Q0.25 6.85 -0.9 5.7 L-0.8 7.1 Q-0.35 7.75 0.6 8.05 L2.8 8.2 Q3.95 8.05 4.8 7.5" fill="#bcbcbc" fill-rule="evenodd" stroke="none"/>
    <path d="M4.4 2.4 L1.95 2.25 Q0.55 2.5 -0.35 3.1 -1.25 3.8 -1.15 4.55 -1.0 5.3 0.05 5.65 L2.5 5.85 Q3.9 5.55 4.8 4.9 5.7 4.25 5.6 3.5 5.45 2.8 4.4 2.4" fill="#ba9552" fill-rule="evenodd" stroke="none"/>
    <path d="M6.35 12.0 L6.45 11.25 6.15 10.2 6.25 10.55 6.25 10.8 Q5.65 12.2 3.55 12.5 L1.5 12.15 Q0.5 11.75 0.1 11.1 L0.4 12.7 Q0.85 13.35 1.7 13.6 L3.65 13.7 Q5.75 13.4 6.35 12.0" fill="#bcbcbc" fill-rule="evenodd" stroke="none"/>
    <path d="M6.25 10.8 L6.3 10.25 6.25 10.05 Q6.3 10.7 5.45 11.3 4.6 12.0 3.4 12.2 L1.35 11.95 0.1 11.1 0.15 11.45 Q0.5 12.05 1.5 12.4 L3.55 12.5 Q5.65 12.2 6.25 10.8" fill="#e2e2e2" fill-rule="evenodd" stroke="none"/>
    <path d="M-0.9 5.7 L-0.9 6.0 Q-0.5 6.6 0.6 6.85 L2.7 6.95 4.65 6.25 Q5.5 5.75 5.75 5.1 L5.65 4.7 5.6 4.5 5.5 4.4 Q5.6 5.1 4.65 5.75 3.75 6.45 2.55 6.6 L0.45 6.45 Q-0.5 6.2 -0.9 5.7" fill="#e2e2e2" fill-rule="evenodd" stroke="none"/>
    <path d="M5.75 5.0 Q5.6 5.8 4.45 6.4 L4.6 7.6 5.75 6.5 Q6.15 5.9 5.75 5.0" fill="#ffffff" fill-rule="evenodd" stroke="none"/>
    <path d="M6.3 10.65 Q6.2 11.45 5.3 11.9 L5.4 13.15 5.9 12.8 6.3 12.2 Q6.55 11.8 6.45 11.2 L6.3 10.65" fill="#ffffff" fill-rule="evenodd" stroke="none"/>
    <path d="M4.8 2.55 Q5.55 3.2 5.3 4.0 5.15 4.55 4.1 5.15 L3.15 5.7 4.45 5.2 Q5.45 4.7 5.65 3.95 5.75 3.4 5.3 2.95 L4.8 2.55" fill="#ffe8c0" fill-rule="evenodd" stroke="none"/>
    <path d="M-0.9 5.95 L-0.7 7.1 -0.15 7.75 Q0.55 8.2 1.75 8.25 L1.45 6.95 0.55 6.85 Q-0.45 6.65 -0.9 5.95" fill="#6d6d6d" fill-rule="evenodd" stroke="none"/>
    <path d="M-0.7 6.2 L-0.9 5.8 -0.75 7.25 -0.45 7.55 -0.1 7.85 0.3 7.95 0.1 6.65 -0.7 6.2" fill="#474747" fill-rule="evenodd" stroke="none"/>
    <path d="M5.55 11.85 L5.65 12.3 6.05 12.4 6.3 12.2 6.25 11.75 5.9 11.65 5.55 11.85" fill="#000000" fill-rule="evenodd" stroke="none"/>
    <path d="M0.1 11.2 L0.4 12.6 Q1.05 13.75 2.75 13.75 L2.55 12.55 1.6 12.4 Q0.55 12.05 0.1 11.2" fill="#6d6d6d" fill-rule="evenodd" stroke="none"/>
    <path d="M1.05 13.4 L1.3 13.45 1.05 12.25 0.65 12.0 0.3 11.65 0.1 11.2 0.45 12.85 1.05 13.4" fill="#474747" fill-rule="evenodd" stroke="none"/>
    <path d="M3.2 13.25 L3.35 13.6 3.85 13.6 4.05 13.2 3.85 12.85 3.4 12.85 3.2 13.25" fill="#000000" fill-rule="evenodd" stroke="none"/>
    <path d="M0.9 12.75 L0.95 13.1 1.3 13.2 1.55 12.95 1.5 12.6 1.15 12.55 0.9 12.75" fill="#3d3d3d" fill-rule="evenodd" stroke="none"/>
    <path d="M1.9 13.65 L1.65 12.45 1.4 12.35 1.6 13.6 1.9 13.65" fill="#474747" fill-rule="evenodd" stroke="none"/>
    <path d="M0.75 12.75 L0.75 13.1 1.1 13.25 1.45 13.0 1.4 12.6 1.05 12.5 0.75 12.75" fill="#000000" fill-rule="evenodd" stroke="none"/>
    <path d="M4.5 7.7 L4.25 6.45 3.9 6.6 4.1 7.85 4.5 7.7" fill="#ffffff" fill-rule="evenodd" stroke="none"/>
    <path d="M5.25 13.2 L5.1 12.0 4.75 12.15 4.95 13.35 5.25 13.2" fill="#ffffff" fill-rule="evenodd" stroke="none"/>
    <path d="M3.85 7.95 L3.65 6.7 3.35 6.8 3.55 8.05 3.85 7.95" fill="#ffffff" fill-rule="evenodd" stroke="none"/>
    <path d="M4.65 13.45 L4.5 12.3 4.2 12.4 4.4 13.55 4.65 13.45" fill="#ffffff" fill-rule="evenodd" stroke="none"/>
    <path d="M2.25 8.3 L2.05 7.0 1.75 7.05 1.95 8.3 2.25 8.3" fill="#6d6d6d" fill-rule="evenodd" stroke="none"/>
    <path d="M3.25 13.75 L3.0 12.6 2.75 12.55 2.95 13.8 3.25 13.75" fill="#6d6d6d" fill-rule="evenodd" stroke="none"/>
    <path d="M0.85 8.15 L0.6 6.8 0.3 6.7 0.55 8.1 0.85 8.15" fill="#474747" fill-rule="evenodd" stroke="none"/>
    <path d="M5.05 6.05 L5.15 6.5 5.5 6.6 5.8 6.35 5.75 6.0 5.4 5.85 5.05 6.05" fill="#000000" fill-rule="evenodd" stroke="none"/>
    <path d="M2.45 7.65 L2.6 8.05 3.05 8.0 3.25 7.65 3.05 7.25 2.6 7.3 2.45 7.65" fill="#000000" fill-rule="evenodd" stroke="none"/>
    <path d="M-0.1 7.15 L-0.1 7.5 0.25 7.65 0.55 7.4 0.5 7.0 0.15 6.9 -0.1 7.15" fill="#000000" fill-rule="evenodd" stroke="none"/>
    <path d="M1.05 4.6 L2.55 4.75 Q3.35 4.5 3.85 4.05 4.35 3.55 3.85 3.0 3.5 2.65 2.9 2.6 2.2 2.55 1.85 2.9 L1.65 3.3 1.7 3.65 Q1.95 3.85 2.2 3.85 L2.6 3.75 2.65 3.45" fill="none" stroke="#603200" stroke-linecap="round" stroke-linejoin="round" stroke-width="0.05"/>
  </g>
</svg>
