<?xml version="1.0" encoding="UTF-8" standalone="no"?>
<svg xmlns:xlink="http://www.w3.org/1999/xlink" height="49.25px" width="36.45px" xmlns="http://www.w3.org/2000/svg">
  <g transform="matrix(1.0, 0.0, 0.0, 1.0, 1.55, -21.5)">
    <path d="M7.0 33.0 L6.9 24.5 30.0 25.5 30.0 33.0 29.95 45.4 29.9 45.4 30.0 51.45 30.55 51.45 Q32.45 56.85 31.7 62.25 L30.65 66.8 Q16.6 68.85 3.75 66.45 1.9 64.55 1.6 62.25 1.0 59.35 2.6 55.85 4.25 52.45 7.65 51.1 L7.15 50.95 7.1 43.65 7.0 43.6 7.0 33.0" fill="#000000" fill-rule="evenodd" stroke="none"/>
    <path d="M7.0 33.0 L7.0 43.6 7.1 43.65 7.15 50.95 7.65 51.1 Q4.25 52.45 2.6 55.85 1.0 59.35 1.6 62.25 1.9 64.55 3.75 66.45 16.6 68.85 30.65 66.8 L31.7 62.25 Q32.45 56.85 30.55 51.45 L30.0 51.45 29.9 45.4 29.95 45.4 30.0 33.0 30.0 25.5 6.9 24.5 7.0 33.0 Z" fill="none" stroke="#001000" stroke-linecap="round" stroke-linejoin="round" stroke-width="6.0"/>
    <path d="M7.1 43.65 L7.0 43.6 7.0 33.0 6.9 24.5 30.0 25.5 30.0 33.0 29.95 45.4 29.9 45.4 10.65 44.15 7.1 43.65" fill="#011e04" fill-rule="evenodd" stroke="none"/>
    <path d="M7.1 43.65 L10.65 44.15 29.9 45.4 30.0 51.9 26.9 52.55 18.8 53.2 11.3 52.1 7.15 50.95 7.1 43.65" fill="#7cdc02" fill-rule="evenodd" stroke="none"/>
    <path d="M31.7 62.25 L30.65 66.8 Q16.6 68.85 3.75 66.45 1.9 64.55 1.6 62.25 16.65 66.35 31.7 62.25" fill="#5ca600" fill-rule="evenodd" stroke="none"/>
    <path d="M1.6 62.25 Q1.0 59.35 2.6 55.85 4.4 52.1 8.35 50.85 L30.55 51.45 Q32.45 56.85 31.7 62.25 16.65 66.35 1.6 62.25 M11.55 61.25 Q15.05 61.25 18.3 60.25 22.95 58.9 23.05 56.15 23.1 52.2 13.1 52.2 10.85 52.2 8.35 53.1 5.3 54.05 4.55 55.5 L4.4 55.85 4.3 56.05 Q4.2 58.1 6.45 59.7 8.7 61.25 11.55 61.25" fill="#7cdc02" fill-rule="evenodd" stroke="none"/>
    <path d="M16.3 53.25 L13.25 52.9 12.65 53.0 11.65 52.9 9.05 54.15 Q7.45 54.95 7.35 55.75 7.35 57.65 12.1 57.65 L16.05 57.3 Q18.45 56.75 18.45 55.15 18.55 53.8 16.3 53.25 M11.55 61.25 Q8.7 61.25 6.45 59.7 4.2 58.1 4.3 56.05 L4.4 55.85 4.55 55.5 Q5.3 54.05 8.35 53.1 10.85 52.2 13.1 52.2 23.1 52.2 23.05 56.15 22.95 58.9 18.3 60.25 15.05 61.25 11.55 61.25" fill="#a4ff31" fill-rule="evenodd" stroke="none"/>
    <path d="M16.3 53.25 Q18.55 53.8 18.45 55.15 18.45 56.75 16.05 57.3 L12.1 57.65 Q7.35 57.65 7.35 55.75 7.45 54.95 9.05 54.15 L11.65 52.9 12.65 53.0 13.25 52.9 16.3 53.25" fill="#c0ff70" fill-rule="evenodd" stroke="none"/>
  </g>
</svg>
