<?xml version="1.0" encoding="UTF-8" standalone="no"?>
<svg xmlns:xlink="http://www.w3.org/1999/xlink" height="76.6px" width="80.85px" xmlns="http://www.w3.org/2000/svg">
  <g transform="matrix(1.0, 0.0, 0.0, 1.0, 5.7, -6.3)">
    <path d="M5.55 79.9 L4.5 75.85 Q3.25 70.65 2.55 62.55 L2.1 62.5 Q2.65 42.7 -2.7 13.4 -1.6 7.45 14.2 10.1 L55.75 10.1 Q63.9 9.1 68.0 10.1 L69.15 10.1 69.1 10.45 Q71.65 11.35 72.15 13.25 68.4 35.9 68.2 62.7 L67.8 62.75 Q66.85 70.35 65.65 75.8 L64.7 79.9 5.55 79.9 M35.75 60.8 Q34.75 60.8 34.05 61.45 33.35 62.1 33.35 62.95 33.35 63.8 34.05 64.4 34.75 65.05 35.75 65.05 36.65 65.05 37.3 64.5 L37.4 64.4 Q38.1 63.8 38.1 62.95 38.1 62.1 37.4 61.45 36.75 60.9 35.95 60.8 L35.75 60.8 35.95 60.8 Q36.75 60.9 37.4 61.45 38.1 62.1 38.1 62.95 38.1 63.8 37.4 64.4 L37.3 64.5 Q36.65 65.05 35.75 65.05 34.75 65.05 34.05 64.4 33.35 63.8 33.35 62.95 33.35 62.1 34.05 61.45 34.75 60.8 35.75 60.8 M35.75 47.5 Q34.75 47.5 34.05 48.15 33.35 48.75 33.35 49.6 33.35 50.5 34.05 51.1 34.75 51.75 35.75 51.75 36.65 51.75 37.4 51.1 38.1 50.5 38.1 49.6 38.1 48.75 37.4 48.15 36.65 47.5 35.75 47.5 36.65 47.5 37.4 48.15 38.1 48.75 38.1 49.6 38.1 50.5 37.4 51.1 36.65 51.75 35.75 51.75 34.75 51.75 34.05 51.1 33.35 50.5 33.35 49.6 33.35 48.75 34.05 48.15 34.75 47.5 35.75 47.5" fill="#000000" fill-rule="evenodd" stroke="none"/>
    <path d="M64.7 79.9 L65.65 75.8 Q66.85 70.35 67.8 62.75 L68.2 62.7 Q68.4 35.9 72.15 13.25 71.65 11.35 69.1 10.45 L69.15 10.1 68.0 10.1 Q63.9 9.1 55.75 10.1 L14.2 10.1 Q-1.6 7.45 -2.7 13.4 2.65 42.7 2.1 62.5 L2.55 62.55 Q3.25 70.65 4.5 75.85 L5.55 79.9" fill="none" stroke="#001200" stroke-linecap="round" stroke-linejoin="round" stroke-width="6.0"/>
    <path d="M35.75 47.5 Q36.65 47.5 37.4 48.15 38.1 48.75 38.1 49.6 38.1 50.5 37.4 51.1 36.65 51.75 35.75 51.75 34.75 51.75 34.05 51.1 33.35 50.5 33.35 49.6 33.35 48.75 34.05 48.15 34.75 47.5 35.75 47.5 M35.75 60.8 L35.95 60.8 Q36.75 60.9 37.4 61.45 38.1 62.1 38.1 62.95 38.1 63.8 37.4 64.4 L37.3 64.5 Q36.65 65.05 35.75 65.05 34.75 65.05 34.05 64.4 33.35 63.8 33.35 62.95 33.35 62.1 34.05 61.45 34.75 60.8 35.75 60.8" fill="none" stroke="#000000" stroke-linecap="round" stroke-linejoin="round" stroke-width="6.0"/>
    <path d="M28.25 23.0 L33.2 16.6 33.3 16.4 33.25 16.35 34.75 16.35 37.2 16.35 41.1 16.35 41.45 16.4 41.05 16.45 42.45 17.9 43.45 19.05 43.5 19.55 Q43.5 24.15 41.15 27.1 38.55 30.3 34.0 30.3 L32.0 30.25 31.85 30.25 31.65 30.2 31.4 30.1 31.4 30.0 Q29.3 26.7 28.25 23.0" fill="url(#gradient0)" fill-rule="evenodd" stroke="none"/>
    <path d="M32.0 30.25 L34.0 30.3 Q38.55 30.3 41.15 27.1 43.5 24.15 43.5 19.55 L43.45 19.05 44.45 20.25 44.7 20.55 45.6 21.65 45.95 22.2 46.2 22.5 Q45.4 26.7 42.9 30.15 L42.75 30.3 40.5 30.65 32.0 30.25" fill="url(#gradient1)" fill-rule="evenodd" stroke="none"/>
    <path d="M31.4 30.1 L31.65 30.2 31.85 30.25 32.0 30.25 40.5 30.65 42.75 30.3 42.95 30.2 43.0 30.25 Q42.3 31.15 40.45 31.6 L37.05 32.0 34.45 32.2 Q33.0 32.85 32.4 33.6 31.7 34.3 30.9 36.5 L28.6 35.05 Q29.85 32.15 31.35 30.1 L31.4 30.1" fill="url(#gradient2)" fill-rule="evenodd" stroke="none"/>
    <path d="M28.25 23.0 Q29.3 26.7 31.4 30.0 L31.4 30.1 31.35 30.1 Q29.85 32.15 28.6 35.05 25.15 32.85 23.45 30.3 23.45 28.65 25.5 26.4 L28.25 23.0 M46.2 22.5 L48.95 26.3 Q49.95 27.85 50.7 30.15 48.9 32.7 45.45 34.95 L43.0 30.25 42.95 30.2 42.9 30.15 Q45.4 26.7 46.2 22.5" fill="#000000" fill-rule="evenodd" stroke="none"/>
    <path d="M45.45 34.95 L37.45 40.0 37.25 39.85 33.45 38.05 30.9 36.5 Q31.7 34.3 32.4 33.6 33.0 32.85 34.45 32.2 L37.05 32.0 40.45 31.6 Q42.3 31.15 43.0 30.25 L45.45 34.95" fill="url(#gradient3)" fill-rule="evenodd" stroke="none"/>
    <path d="M72.15 13.25 Q68.4 35.9 68.2 62.7 L37.4 64.7 34.7 57.45 32.8 64.6 2.1 62.5 Q2.65 42.7 -2.7 13.4 -1.6 7.45 14.2 10.1 L55.75 10.1 Q64.65 9.0 68.75 10.3 L69.15 10.3 69.15 10.45 Q71.65 11.35 72.15 13.25" fill="#011e04" fill-rule="evenodd" stroke="none"/>
    <path d="M4.5 75.85 Q3.1 69.95 2.4 60.35 4.8 54.45 37.05 55.7 69.25 57.0 67.8 62.5 66.85 70.25 65.65 75.8 L64.7 79.9 5.55 79.9 4.5 75.85" fill="#011e04" fill-rule="evenodd" stroke="none"/>
    <path d="M46.0 29.45 L35.9 48.85 26.2 30.25 29.85 15.7 29.45 7.65 42.0 7.65 41.55 15.7 46.0 29.45" fill="#289504" fill-rule="evenodd" stroke="none"/>
    <path d="M4.1 7.95 L7.75 23.3 19.45 25.3 13.0 32.55 33.6 45.9 35.2 49.15 6.95 34.6 15.0 27.7 5.3 27.7 0.45 7.95 4.1 7.95 M32.4 43.05 L15.0 32.15 21.1 24.5 9.35 22.45 6.15 7.95 14.2 7.95 32.4 43.05" fill="#748a51" fill-rule="evenodd" stroke="none"/>
    <path d="M33.6 45.9 L13.0 32.55 19.45 25.3 7.75 23.3 4.1 7.95 6.15 7.95 9.35 22.45 21.1 24.5 15.0 32.15 32.4 43.05 33.6 45.9" fill="#bde083" fill-rule="evenodd" stroke="none"/>
    <path d="M65.1 7.95 L67.15 7.95 63.5 23.3 51.8 25.3 58.25 32.55 37.65 45.9 38.85 43.05 56.25 32.15 50.15 24.5 61.9 22.45 65.1 7.95" fill="#bde083" fill-rule="evenodd" stroke="none"/>
    <path d="M65.1 7.95 L61.9 22.45 50.15 24.5 56.25 32.15 38.85 43.05 57.05 7.95 65.1 7.95 M37.65 45.9 L58.25 32.55 51.8 25.3 63.5 23.3 67.15 7.95 70.75 7.95 65.9 27.7 56.25 27.7 64.3 34.6 36.05 49.15 37.65 45.9" fill="#748a51" fill-rule="evenodd" stroke="none"/>
    <path d="M38.75 51.45 Q40.1 52.8 40.1 54.65 40.1 56.5 38.75 57.8 37.45 59.15 35.6 59.15 33.75 59.15 32.4 57.8 31.1 56.5 31.1 54.65 31.1 52.8 32.4 51.45 33.75 50.15 35.6 50.15 37.45 50.15 38.75 51.45 M38.55 54.65 Q38.55 53.4 37.7 52.55 36.8 51.7 35.6 51.7 34.4 51.7 33.5 52.55 32.65 53.4 32.65 54.65 32.65 55.85 33.5 56.7 34.4 57.6 35.6 57.6 36.8 57.6 37.7 56.7 38.55 55.85 38.55 54.65" fill="url(#gradient4)" fill-rule="evenodd" stroke="none"/>
    <path d="M37.35 52.9 Q36.6 52.15 35.6 52.15 34.55 52.15 33.8 52.9 33.1 53.65 33.1 54.65 33.1 55.7 33.8 56.4 34.55 57.15 35.6 57.15 36.6 57.15 37.35 56.4 38.1 55.7 38.1 54.65 38.1 53.65 37.35 52.9 38.1 53.65 38.1 54.65 38.1 55.7 37.35 56.4 36.6 57.15 35.6 57.15 34.55 57.15 33.8 56.4 33.1 55.7 33.1 54.65 33.1 53.65 33.8 52.9 34.55 52.15 35.6 52.15 36.6 52.15 37.35 52.9 M38.55 54.65 Q38.55 55.85 37.7 56.7 36.8 57.6 35.6 57.6 34.4 57.6 33.5 56.7 32.65 55.85 32.65 54.65 32.65 53.4 33.5 52.55 34.4 51.7 35.6 51.7 36.8 51.7 37.7 52.55 38.55 53.4 38.55 54.65" fill="#000000" fill-rule="evenodd" stroke="none"/>
    <path d="M37.35 52.9 Q38.1 53.65 38.1 54.65 38.1 55.7 37.35 56.4 36.6 57.15 35.6 57.15 34.55 57.15 33.8 56.4 33.1 55.7 33.1 54.65 33.1 53.65 33.8 52.9 34.55 52.15 35.6 52.15 36.6 52.15 37.35 52.9 Z" fill="none" stroke="#000000" stroke-linecap="round" stroke-linejoin="round" stroke-width="0.25"/>
    <path d="M34.1 53.7 Q34.1 53.35 34.35 53.1 34.6 52.85 34.95 52.85 35.3 52.85 35.55 53.1 L35.8 53.7 35.55 54.3 34.95 54.55 34.35 54.3 34.1 53.7" fill="#ffffff" fill-opacity="0.5921569" fill-rule="evenodd" stroke="none"/>
    <path d="M38.1 66.15 Q37.2 65.3 36.0 65.3 34.8 65.3 33.9 66.15 33.05 67.0 33.05 68.25 33.05 69.45 33.9 70.3 34.8 71.2 36.0 71.2 37.2 71.2 38.1 70.3 38.95 69.45 38.95 68.25 38.95 67.0 38.1 66.15 M39.15 65.05 Q40.5 66.4 40.5 68.25 40.5 70.1 39.15 71.4 37.85 72.75 36.0 72.75 34.15 72.75 32.8 71.4 31.5 70.1 31.5 68.25 31.5 66.4 32.8 65.05 34.15 63.75 36.0 63.75 37.85 63.75 39.15 65.05" fill="url(#gradient5)" fill-rule="evenodd" stroke="none"/>
    <path d="M38.1 66.15 Q38.95 67.0 38.95 68.25 38.95 69.45 38.1 70.3 37.2 71.2 36.0 71.2 34.8 71.2 33.9 70.3 33.05 69.45 33.05 68.25 33.05 67.0 33.9 66.15 34.8 65.3 36.0 65.3 37.2 65.3 38.1 66.15 M37.75 66.5 Q37.0 65.75 36.0 65.75 34.95 65.75 34.2 66.5 33.5 67.25 33.5 68.25 33.5 69.3 34.2 70.0 34.95 70.75 36.0 70.75 37.0 70.75 37.75 70.0 38.5 69.3 38.5 68.25 38.5 67.25 37.75 66.5 38.5 67.25 38.5 68.25 38.5 69.3 37.75 70.0 37.0 70.75 36.0 70.75 34.95 70.75 34.2 70.0 33.5 69.3 33.5 68.25 33.5 67.25 34.2 66.5 34.95 65.75 36.0 65.75 37.0 65.75 37.75 66.5" fill="#000000" fill-rule="evenodd" stroke="none"/>
    <path d="M37.75 66.5 Q38.5 67.25 38.5 68.25 38.5 69.3 37.75 70.0 37.0 70.75 36.0 70.75 34.95 70.75 34.2 70.0 33.5 69.3 33.5 68.25 33.5 67.25 34.2 66.5 34.95 65.75 36.0 65.75 37.0 65.75 37.75 66.5 Z" fill="none" stroke="#000000" stroke-linecap="round" stroke-linejoin="round" stroke-width="0.25"/>
    <path d="M34.75 66.7 Q35.0 66.45 35.35 66.45 L35.95 66.7 36.2 67.3 35.95 67.9 35.35 68.15 34.75 67.9 34.5 67.3 Q34.5 66.95 34.75 66.7" fill="#ffffff" fill-opacity="0.5921569" fill-rule="evenodd" stroke="none"/>
  </g>
  <defs>
    <linearGradient gradientTransform="matrix(0.0109, 0.0, 0.0, 0.0089, 37.2, 23.6)" gradientUnits="userSpaceOnUse" id="gradient0" spreadMethod="pad" x1="-819.2" x2="819.2">
      <stop offset="0.0" stop-color="#b10101"/>
      <stop offset="1.0" stop-color="#750202"/>
    </linearGradient>
    <linearGradient gradientTransform="matrix(0.0109, 0.0, 0.0, 0.0089, 37.2, 23.6)" gradientUnits="userSpaceOnUse" id="gradient1" spreadMethod="pad" x1="-819.2" x2="819.2">
      <stop offset="0.0" stop-color="#750202"/>
      <stop offset="1.0" stop-color="#640202"/>
    </linearGradient>
    <linearGradient gradientTransform="matrix(0.0073, 0.0067, -0.0047, 0.0043, 37.05, 35.05)" gradientUnits="userSpaceOnUse" id="gradient2" spreadMethod="pad" x1="-819.2" x2="819.2">
      <stop offset="0.00784313725490196" stop-color="#c10202"/>
      <stop offset="1.0" stop-color="#4b0101"/>
    </linearGradient>
    <linearGradient gradientTransform="matrix(0.0073, 0.0067, -0.0047, 0.0043, 37.05, 35.05)" gradientUnits="userSpaceOnUse" id="gradient3" spreadMethod="pad" x1="-819.2" x2="819.2">
      <stop offset="0.0" stop-color="#980101"/>
      <stop offset="1.0" stop-color="#5c0101"/>
    </linearGradient>
    <radialGradient cx="0" cy="0" gradientTransform="matrix(0.0058, 0.0, 0.0, 0.0058, 35.6, 54.65)" gradientUnits="userSpaceOnUse" id="gradient4" r="819.2" spreadMethod="pad">
      <stop offset="0.34509803921568627" stop-color="#dbdbdb"/>
      <stop offset="1.0" stop-color="#a3a3a3"/>
    </radialGradient>
    <radialGradient cx="0" cy="0" gradientTransform="matrix(0.0058, 0.0, 0.0, 0.0058, 36.0, 68.25)" gradientUnits="userSpaceOnUse" id="gradient5" r="819.2" spreadMethod="pad">
      <stop offset="0.34509803921568627" stop-color="#dbdbdb"/>
      <stop offset="1.0" stop-color="#a3a3a3"/>
    </radialGradient>
  </defs>
</svg>
