<?xml version="1.0" encoding="UTF-8" standalone="no"?>
<svg xmlns:xlink="http://www.w3.org/1999/xlink" height="78.55px" width="82.8px" xmlns="http://www.w3.org/2000/svg">
  <g transform="matrix(1.0, 0.0, 0.0, 1.0, 5.75, -2.7)">
    <path d="M74.05 10.25 L67.35 74.9 66.3 78.25 5.65 78.25 4.65 74.2 Q4.3 74.2 2.6 60.75 L-0.05 30.45 Q-1.4 19.35 -2.75 10.6 -2.1 8.55 -0.05 7.25 0.25 6.9 0.95 6.9 L3.65 6.2 9.05 5.9 Q10.35 5.55 11.7 5.9 L13.4 5.9 68.0 6.55 67.65 6.9 69.0 6.9 69.7 6.9 70.7 7.25 Q73.75 8.55 74.05 10.25" fill="#0b3810" fill-rule="evenodd" stroke="none"/>
    <path d="M74.05 10.25 L67.35 74.9 66.3 78.25 5.65 78.25 4.65 74.2 Q4.3 74.2 2.6 60.75 L-0.05 30.45 Q-1.4 19.35 -2.75 10.6 -2.1 8.55 -0.05 7.25 0.25 6.9 0.95 6.9 L3.65 6.2 9.05 5.9 Q10.35 5.55 11.7 5.9 L13.4 5.9 68.0 6.55 67.65 6.9 69.0 6.9 69.7 6.9 70.7 7.25 Q73.75 8.55 74.05 10.25 Z" fill="none" stroke="#002003" stroke-linecap="round" stroke-linejoin="round" stroke-width="6.0"/>
    <path d="M67.65 6.9 L41.7 25.05 38.0 78.25 67.35 74.9 66.3 78.25 38.0 78.25 34.95 78.25 5.65 78.25 5.0 74.9 34.95 78.25 29.6 24.75 3.65 6.2 13.4 5.9 20.8 5.9 36.0 27.1 50.8 5.9 68.0 6.55 67.65 6.9" fill="#2f4f32" fill-rule="evenodd" stroke="none"/>
    <path d="M67.35 74.9 L38.0 78.25 41.7 25.05 67.65 6.9 69.0 6.9 69.35 6.9 70.7 7.25 Q73.4 8.55 74.05 10.25 L67.35 74.9 M50.8 5.9 L36.0 27.1 20.8 5.9 50.8 5.9 M13.4 5.9 L3.65 6.2 29.6 24.75 34.95 78.25 5.0 74.9 Q4.65 74.9 2.6 60.75 -0.05 29.45 -2.75 10.6 -2.1 7.9 0.95 6.9 L3.65 6.2 9.05 5.9 Q11.05 5.55 13.4 5.9" fill="#011e04" fill-rule="evenodd" stroke="none"/>
    <path d="M20.55 62.55 L19.9 57.0 Q36.2 67.5 51.8 57.0 L51.8 62.1 Q43.7 66.6 36.9 66.9 29.95 67.2 20.55 62.55 M17.2 46.5 L16.65 40.9 Q36.6 53.9 55.25 40.5 L55.25 46.05 Q46.0 51.65 37.6 52.2 29.15 52.7 17.2 46.5 M15.1 28.1 L14.2 22.25 Q37.6 35.0 57.6 21.95 L57.35 27.65 Q47.15 33.75 38.0 34.35 28.85 34.9 15.1 28.1" fill="#a5bf7c" fill-rule="evenodd" stroke="none"/>
    <path d="M14.4 21.35 Q17.8 21.35 19.45 23.4 21.85 25.75 21.85 28.75 21.85 31.45 19.45 33.5 17.8 35.85 14.4 35.85 11.7 35.85 9.7 33.5 7.7 31.45 7.7 28.75 7.7 25.75 9.7 23.4 11.7 21.35 14.4 21.35 M19.15 28.75 Q19.15 26.75 18.1 25.05 16.45 24.05 14.4 24.05 12.75 24.05 11.4 25.05 10.05 26.75 10.05 28.75 10.05 30.45 11.4 31.8 12.75 33.15 14.4 33.15 16.45 33.15 18.1 31.8 19.15 30.45 19.15 28.75" fill="url(#gradient0)" fill-rule="evenodd" stroke="none"/>
    <path d="M19.15 28.75 Q19.15 30.45 18.1 31.8 16.45 33.15 14.4 33.15 12.75 33.15 11.4 31.8 10.05 30.45 10.05 28.75 10.05 26.75 11.4 25.05 12.75 24.05 14.4 24.05 16.45 24.05 18.1 25.05 19.15 26.75 19.15 28.75 M18.45 28.75 Q18.45 27.1 17.45 25.75 16.45 24.75 14.4 24.75 13.05 24.75 11.7 25.75 10.7 27.1 10.7 28.75 10.7 30.45 11.7 31.15 13.05 32.5 14.4 32.5 16.45 32.5 17.45 31.15 18.45 30.45 18.45 28.75 18.45 30.45 17.45 31.15 16.45 32.5 14.4 32.5 13.05 32.5 11.7 31.15 10.7 30.45 10.7 28.75 10.7 27.1 11.7 25.75 13.05 24.75 14.4 24.75 16.45 24.75 17.45 25.75 18.45 27.1 18.45 28.75" fill="#000000" fill-rule="evenodd" stroke="none"/>
    <path d="M18.45 28.75 Q18.45 30.45 17.45 31.15 16.45 32.5 14.4 32.5 13.05 32.5 11.7 31.15 10.7 30.45 10.7 28.75 10.7 27.1 11.7 25.75 13.05 24.75 14.4 24.75 16.45 24.75 17.45 25.75 18.45 27.1 18.45 28.75 Z" fill="none" stroke="#000000" stroke-linecap="round" stroke-linejoin="round" stroke-width="0.25"/>
    <path d="M14.4 26.1 L14.75 27.1 14.4 28.1 13.75 28.45 12.75 28.1 Q12.4 27.75 12.4 27.1 12.4 26.75 12.75 26.1 13.05 25.75 13.75 25.75 14.4 25.75 14.4 26.1" fill="#ffffff" fill-opacity="0.5921569" fill-rule="evenodd" stroke="none"/>
    <path d="M59.25 21.7 Q61.95 21.7 63.95 23.7 66.3 25.75 66.3 28.75 66.3 31.45 63.95 33.5 61.95 35.5 59.25 35.5 56.2 35.5 54.5 33.5 52.5 31.45 52.5 28.75 52.5 25.75 54.5 23.7 56.2 21.7 59.25 21.7 M56.2 31.8 Q57.55 33.15 59.25 33.15 61.25 33.15 62.6 31.8 63.6 30.45 63.6 28.75 63.6 26.75 62.6 25.4 61.25 24.05 59.25 24.05 57.55 24.05 56.2 25.4 54.5 26.75 54.5 28.75 54.5 30.45 56.2 31.8" fill="url(#gradient1)" fill-rule="evenodd" stroke="none"/>
    <path d="M59.25 25.05 Q57.55 25.05 56.2 25.75 55.55 27.1 55.55 28.75 55.55 30.45 56.2 31.15 57.55 32.5 59.25 32.5 60.9 32.5 61.95 31.15 63.3 30.45 63.3 28.75 63.3 27.1 61.95 25.75 60.9 25.05 59.25 25.05 60.9 25.05 61.95 25.75 63.3 27.1 63.3 28.75 63.3 30.45 61.95 31.15 60.9 32.5 59.25 32.5 57.55 32.5 56.2 31.15 55.55 30.45 55.55 28.75 55.55 27.1 56.2 25.75 57.55 25.05 59.25 25.05 M56.2 31.8 Q54.5 30.45 54.5 28.75 54.5 26.75 56.2 25.4 57.55 24.05 59.25 24.05 61.25 24.05 62.6 25.4 63.6 26.75 63.6 28.75 63.6 30.45 62.6 31.8 61.25 33.15 59.25 33.15 57.55 33.15 56.2 31.8" fill="#000000" fill-rule="evenodd" stroke="none"/>
    <path d="M59.25 25.05 Q60.9 25.05 61.95 25.75 63.3 27.1 63.3 28.75 63.3 30.45 61.95 31.15 60.9 32.5 59.25 32.5 57.55 32.5 56.2 31.15 55.55 30.45 55.55 28.75 55.55 27.1 56.2 25.75 57.55 25.05 59.25 25.05 Z" fill="none" stroke="#000000" stroke-linecap="round" stroke-linejoin="round" stroke-width="0.25"/>
    <path d="M59.25 26.1 L59.6 27.1 59.25 28.1 Q58.9 28.45 58.25 28.45 L57.2 28.1 Q56.9 27.75 56.9 27.1 56.9 26.75 57.2 26.1 57.9 25.75 58.25 25.75 58.9 25.75 59.25 26.1" fill="#ffffff" fill-opacity="0.5921569" fill-rule="evenodd" stroke="none"/>
    <path d="M18.1 42.25 Q16.45 42.25 15.45 43.25 14.4 44.6 14.4 45.95 14.4 47.3 15.45 48.65 16.45 49.65 18.1 49.65 19.45 49.65 20.5 48.65 21.85 47.3 21.85 45.95 21.85 44.6 20.5 43.25 19.45 42.25 18.1 42.25 M18.1 40.2 Q20.15 40.2 21.85 41.9 23.5 43.6 23.5 45.95 23.5 48.3 21.85 50.0 20.15 51.65 18.1 51.65 15.75 51.65 14.1 50.0 12.4 48.3 12.4 45.95 12.4 43.6 14.1 41.9 15.75 40.2 18.1 40.2" fill="#e9e9e9" fill-rule="evenodd" stroke="none"/>
    <path d="M18.1 42.25 Q19.45 42.25 20.5 43.25 21.85 44.6 21.85 45.95 21.85 47.3 20.5 48.65 19.45 49.65 18.1 49.65 16.45 49.65 15.45 48.65 14.4 47.3 14.4 45.95 14.4 44.6 15.45 43.25 16.45 42.25 18.1 42.25 M15.75 48.3 Q16.45 48.95 18.1 48.95 19.15 48.95 20.15 48.3 21.15 46.95 21.15 45.95 21.15 44.95 20.15 43.6 19.15 42.9 18.1 42.9 16.45 42.9 15.75 43.6 14.75 44.95 14.75 45.95 14.75 46.95 15.75 48.3 14.75 46.95 14.75 45.95 14.75 44.95 15.75 43.6 16.45 42.9 18.1 42.9 19.15 42.9 20.15 43.6 21.15 44.95 21.15 45.95 21.15 46.95 20.15 48.3 19.15 48.95 18.1 48.95 16.45 48.95 15.75 48.3" fill="#000000" fill-rule="evenodd" stroke="none"/>
    <path d="M15.75 48.3 Q14.75 46.95 14.75 45.95 14.75 44.95 15.75 43.6 16.45 42.9 18.1 42.9 19.15 42.9 20.15 43.6 21.15 44.95 21.15 45.95 21.15 46.95 20.15 48.3 19.15 48.95 18.1 48.95 16.45 48.95 15.75 48.3 Z" fill="none" stroke="#000000" stroke-linecap="round" stroke-linejoin="round" stroke-width="0.25"/>
    <path d="M17.8 45.25 Q17.8 45.6 17.1 45.6 16.45 45.6 16.45 45.25 L16.1 44.95 Q16.1 44.25 16.45 43.9 16.45 43.6 17.1 43.6 17.8 43.6 17.8 43.9 18.1 44.25 18.1 44.95 L17.8 45.25" fill="#ffffff" fill-opacity="0.5921569" fill-rule="evenodd" stroke="none"/>
    <path d="M60.25 41.9 Q61.95 43.6 61.95 45.95 61.95 48.3 60.25 49.65 58.55 51.35 56.2 51.35 54.2 51.35 52.5 49.65 50.8 48.3 50.8 45.95 50.8 43.6 52.5 41.9 54.2 40.2 56.2 40.2 58.55 40.2 60.25 41.9 M58.9 43.25 Q57.9 42.25 56.2 42.25 54.85 42.25 53.85 43.25 52.5 44.25 52.5 45.95 52.5 47.3 53.85 48.65 54.85 49.3 56.2 49.3 57.9 49.3 58.9 48.65 59.9 47.3 59.9 45.95 59.9 44.25 58.9 43.25" fill="#e9e9e9" fill-rule="evenodd" stroke="none"/>
    <path d="M58.9 43.25 Q59.9 44.25 59.9 45.95 59.9 47.3 58.9 48.65 57.9 49.3 56.2 49.3 54.85 49.3 53.85 48.65 52.5 47.3 52.5 45.95 52.5 44.25 53.85 43.25 54.85 42.25 56.2 42.25 57.9 42.25 58.9 43.25 M54.2 43.6 Q53.15 44.95 53.15 45.95 53.15 46.95 54.2 47.95 55.2 48.95 56.2 48.95 57.55 48.95 58.55 47.95 59.6 46.95 59.6 45.95 59.6 44.95 58.55 43.6 57.55 42.9 56.2 42.9 55.2 42.9 54.2 43.6 55.2 42.9 56.2 42.9 57.55 42.9 58.55 43.6 59.6 44.95 59.6 45.95 59.6 46.95 58.55 47.95 57.55 48.95 56.2 48.95 55.2 48.95 54.2 47.95 53.15 46.95 53.15 45.95 53.15 44.95 54.2 43.6" fill="#000000" fill-rule="evenodd" stroke="none"/>
    <path d="M54.2 43.6 Q55.2 42.9 56.2 42.9 57.55 42.9 58.55 43.6 59.6 44.95 59.6 45.95 59.6 46.95 58.55 47.95 57.55 48.95 56.2 48.95 55.2 48.95 54.2 47.95 53.15 46.95 53.15 45.95 53.15 44.95 54.2 43.6 Z" fill="none" stroke="#000000" stroke-linecap="round" stroke-linejoin="round" stroke-width="0.25"/>
    <path d="M56.2 45.25 Q56.2 45.6 55.55 45.6 55.2 45.6 54.85 45.25 L54.5 44.95 Q54.5 44.25 54.85 43.9 55.2 43.6 55.55 43.6 56.2 43.6 56.2 43.9 56.55 44.25 56.55 44.95 L56.2 45.25" fill="#ffffff" fill-opacity="0.5921569" fill-rule="evenodd" stroke="none"/>
    <path d="M23.5 61.1 Q23.5 60.1 22.5 59.4 21.85 58.4 20.5 58.4 19.45 58.4 18.45 59.4 18.1 60.1 18.1 61.1 18.1 62.1 18.45 63.1 19.45 63.8 20.5 63.8 21.85 63.8 22.5 63.1 23.5 62.1 23.5 61.1 23.5 62.1 22.5 63.1 21.85 63.8 20.5 63.8 19.45 63.8 18.45 63.1 18.1 62.1 18.1 61.1 18.1 60.1 18.45 59.4 19.45 58.4 20.5 58.4 21.85 58.4 22.5 59.4 23.5 60.1 23.5 61.1 M22.85 58.75 Q23.85 59.75 23.85 61.1 23.85 62.45 22.85 63.1 21.85 64.45 20.5 64.45 19.45 64.45 18.1 63.1 17.45 62.45 17.45 61.1 17.45 59.75 18.1 58.75 19.45 57.75 20.5 57.75 21.85 57.75 22.85 58.75" fill="#000000" fill-rule="evenodd" stroke="none"/>
    <path d="M24.2 57.75 Q25.55 59.05 25.55 61.1 25.55 63.1 24.2 64.8 22.5 66.15 20.5 66.15 18.45 66.15 17.1 64.8 15.75 63.1 15.75 61.1 15.75 59.05 17.1 57.75 18.45 56.05 20.5 56.05 22.5 56.05 24.2 57.75 M22.85 58.75 Q21.85 57.75 20.5 57.75 19.45 57.75 18.1 58.75 17.45 59.75 17.45 61.1 17.45 62.45 18.1 63.1 19.45 64.45 20.5 64.45 21.85 64.45 22.85 63.1 23.85 62.45 23.85 61.1 23.85 59.75 22.85 58.75" fill="#e9e9e9" fill-rule="evenodd" stroke="none"/>
    <path d="M23.5 61.1 Q23.5 62.1 22.5 63.1 21.85 63.8 20.5 63.8 19.45 63.8 18.45 63.1 18.1 62.1 18.1 61.1 18.1 60.1 18.45 59.4 19.45 58.4 20.5 58.4 21.85 58.4 22.5 59.4 23.5 60.1 23.5 61.1 Z" fill="none" stroke="#000000" stroke-linecap="round" stroke-linejoin="round" stroke-width="0.25"/>
    <path d="M19.45 60.75 L19.15 60.1 Q19.15 59.75 19.45 59.75 19.45 59.4 19.8 59.4 20.15 59.4 20.5 59.75 20.8 59.75 20.8 60.1 L20.5 60.75 Q20.15 61.1 19.8 61.1 19.45 61.1 19.45 60.75" fill="#ffffff" fill-opacity="0.5921569" fill-rule="evenodd" stroke="none"/>
    <path d="M50.8 63.1 Q51.8 63.8 52.85 63.8 54.2 63.8 54.85 63.1 55.85 62.1 55.85 61.1 55.85 60.1 54.85 59.4 54.2 58.4 52.85 58.4 51.8 58.4 50.8 59.4 50.15 60.1 50.15 61.1 50.15 62.1 50.8 63.1 50.15 62.1 50.15 61.1 50.15 60.1 50.8 59.4 51.8 58.4 52.85 58.4 54.2 58.4 54.85 59.4 55.85 60.1 55.85 61.1 55.85 62.1 54.85 63.1 54.2 63.8 52.85 63.8 51.8 63.8 50.8 63.1 49.45 62.45 49.45 61.1 49.45 59.75 50.8 58.75 51.5 57.75 52.85 57.75 54.2 57.75 55.2 58.75 56.2 59.75 56.2 61.1 56.2 62.45 55.2 63.1 54.2 64.45 52.85 64.45 51.5 64.45 50.8 63.1" fill="#000000" fill-rule="evenodd" stroke="none"/>
    <path d="M57.9 61.1 Q57.9 63.1 56.2 64.45 54.85 65.8 52.85 65.8 50.8 65.8 49.15 64.45 48.1 63.1 48.1 61.1 48.1 59.05 49.15 57.75 50.8 56.05 52.85 56.05 54.85 56.05 56.2 57.75 57.9 59.05 57.9 61.1 M50.8 63.1 Q51.5 64.45 52.85 64.45 54.2 64.45 55.2 63.1 56.2 62.45 56.2 61.1 56.2 59.75 55.2 58.75 54.2 57.75 52.85 57.75 51.5 57.75 50.8 58.75 49.45 59.75 49.45 61.1 49.45 62.45 50.8 63.1" fill="#e9e9e9" fill-rule="evenodd" stroke="none"/>
    <path d="M50.8 63.1 Q50.15 62.1 50.15 61.1 50.15 60.1 50.8 59.4 51.8 58.4 52.85 58.4 54.2 58.4 54.85 59.4 55.85 60.1 55.85 61.1 55.85 62.1 54.85 63.1 54.2 63.8 52.85 63.8 51.8 63.8 50.8 63.1 Z" fill="none" stroke="#000000" stroke-linecap="round" stroke-linejoin="round" stroke-width="0.25"/>
    <path d="M52.85 59.4 L53.15 60.1 52.85 60.75 Q52.5 61.1 52.15 61.1 51.8 61.1 51.5 60.75 51.15 60.4 51.15 60.1 51.15 59.75 51.5 59.4 51.8 59.05 52.15 59.05 52.5 59.05 52.85 59.4" fill="#ffffff" fill-opacity="0.5921569" fill-rule="evenodd" stroke="none"/>
  </g>
  <defs>
    <radialGradient cx="0" cy="0" gradientTransform="matrix(0.009, 0.0, 0.0, 0.009, 14.4, 28.75)" gradientUnits="userSpaceOnUse" id="gradient0" r="819.2" spreadMethod="pad">
      <stop offset="0.34509803921568627" stop-color="#dbdbdb"/>
      <stop offset="1.0" stop-color="#a3a3a3"/>
    </radialGradient>
    <radialGradient cx="0" cy="0" gradientTransform="matrix(0.009, 0.0, 0.0, 0.0089, 59.25, 28.75)" gradientUnits="userSpaceOnUse" id="gradient1" r="819.2" spreadMethod="pad">
      <stop offset="0.34509803921568627" stop-color="#dbdbdb"/>
      <stop offset="1.0" stop-color="#a3a3a3"/>
    </radialGradient>
  </defs>
</svg>
