<?xml version="1.0" encoding="UTF-8" standalone="no"?>
<svg xmlns:xlink="http://www.w3.org/1999/xlink" height="78.55px" width="82.8px" xmlns="http://www.w3.org/2000/svg">
  <g transform="matrix(1.0, 0.0, 0.0, 1.0, 5.75, -2.7)">
    <path d="M67.3 73.9 Q67.0 74.55 67.0 75.55 L66.65 75.55 Q66.65 77.6 66.3 78.25 L5.65 78.25 Q5.3 77.6 5.0 75.9 4.3 74.2 3.95 72.55 3.95 72.2 3.65 72.2 L3.65 71.85 3.95 71.85 3.95 71.55 3.65 70.85 3.65 70.5 3.3 69.85 3.65 69.85 2.95 67.5 2.95 66.15 2.95 65.8 2.95 65.15 Q2.95 64.8 2.6 64.8 L2.6 64.45 2.95 64.45 Q2.6 62.45 2.6 60.75 L0.95 40.9 -0.4 29.8 -2.75 10.6 Q-2.45 7.9 0.6 6.9 L3.3 6.2 9.0 5.9 Q10.35 5.55 11.4 5.9 L13.05 5.9 58.2 6.2 58.55 5.9 63.6 5.9 63.6 6.55 67.65 6.55 67.65 6.9 69.0 6.9 69.35 6.9 Q70.0 6.9 70.35 7.25 L70.7 7.25 Q73.4 8.55 74.05 10.25 72.7 18.0 72.05 27.1 L70.7 37.2 68.65 62.45 68.35 64.1 69.0 64.1 69.0 64.45 69.0 65.15 Q68.65 66.5 68.35 69.5 68.0 70.2 68.0 70.5 67.65 70.85 67.65 71.55 L67.65 71.85 Q67.65 73.2 67.3 73.9" fill="#59743d" fill-rule="evenodd" stroke="none"/>
    <path d="M67.3 73.9 Q67.0 74.55 67.0 75.55 L66.65 75.55 Q66.65 77.6 66.3 78.25 L5.65 78.25 Q5.3 77.6 5.0 75.9 4.3 74.2 3.95 72.55 3.95 72.2 3.65 72.2 L3.65 71.85 3.95 71.85 3.95 71.55 3.65 70.85 3.65 70.5 3.3 69.85 3.65 69.85 2.95 67.5 2.95 66.15 2.95 65.8 2.95 65.15 Q2.95 64.8 2.6 64.8 L2.6 64.45 2.95 64.45 Q2.6 62.45 2.6 60.75 L0.95 40.9 -0.4 29.8 -2.75 10.6 Q-2.45 7.9 0.6 6.9 L3.3 6.2 9.0 5.9 Q10.35 5.55 11.4 5.9 L13.05 5.9 58.2 6.2 58.55 5.9 63.6 5.9 63.6 6.55 67.65 6.55 67.65 6.9 69.0 6.9 69.35 6.9 Q70.0 6.9 70.35 7.25 L70.7 7.25 Q73.4 8.55 74.05 10.25 72.7 18.0 72.05 27.1 L70.7 37.2 68.65 62.45 68.35 64.1 69.0 64.1 69.0 64.45 69.0 65.15 Q68.65 66.5 68.35 69.5 L67.65 71.85" fill="none" stroke="#012001" stroke-linecap="round" stroke-linejoin="round" stroke-width="6.0"/>
    <path d="M52.85 5.9 L67.65 6.55 67.65 6.9 68.65 6.9 69.35 6.9 Q70.0 6.9 70.35 7.25 L70.7 7.25 Q73.4 8.55 74.05 10.25 72.7 18.0 72.05 27.1 64.95 10.6 52.85 5.9 M-0.4 29.8 L-2.75 10.6 Q-2.45 7.9 0.6 6.9 L3.3 6.2 9.0 5.9 Q10.7 5.55 13.05 5.9 L20.8 5.9 Q6.65 10.95 -0.4 29.8" fill="#679735" fill-rule="evenodd" stroke="none"/>
    <path d="M70.7 37.2 L68.65 62.45 Q68.35 64.45 68.35 66.15 L68.35 67.5 68.35 68.85 Q68.0 69.85 68.0 70.5 67.65 70.85 67.65 71.55 L67.0 74.55 67.0 74.9 Q66.65 77.6 66.3 78.25 L5.3 78.25 Q5.0 77.6 5.0 74.9 4.3 73.2 3.95 71.55 L3.65 70.85 3.65 70.5 3.3 69.85 3.65 69.85 2.95 67.5 2.95 66.15 Q2.6 63.45 2.6 60.75 L0.95 40.9 Q6.35 14.95 22.5 8.9 32.95 4.2 47.1 7.9 L47.45 8.25 Q48.45 8.25 49.45 8.9 64.65 13.95 70.7 37.2 M60.6 57.4 L53.85 45.25 60.6 57.4 M12.05 57.4 L18.8 45.25 12.05 57.4" fill="#011e04" fill-rule="evenodd" stroke="none"/>
    <path d="M72.05 27.1 L70.7 37.2 Q64.65 13.95 49.45 8.9 48.45 8.25 47.45 8.25 L47.1 7.9 Q32.95 4.2 22.5 8.9 6.35 14.95 0.95 40.9 L-0.4 29.8 Q6.65 10.95 20.8 5.9 L52.85 5.9 Q64.95 10.6 72.05 27.1" fill="#b0d49c" fill-rule="evenodd" stroke="none"/>
    <path d="M18.8 45.25 L12.05 57.4 M53.85 45.25 L60.6 57.4" fill="none" stroke="#b0d49c" stroke-linecap="round" stroke-linejoin="round" stroke-width="2.0"/>
    <path d="M5.0 75.9 Q4.3 74.2 3.95 72.55 3.95 72.2 3.65 72.2 L3.65 71.85 68.0 71.85 68.0 72.2 Q67.65 72.2 67.65 72.55 L67.0 75.55 5.0 75.9" fill="#cdd8c7" fill-rule="evenodd" stroke="none"/>
    <path d="M2.6 64.8 L2.6 64.45 69.0 64.1 69.0 64.45 68.65 65.15 Q68.35 66.8 68.35 68.15 L3.65 68.5 Q2.95 66.8 2.95 65.15 2.95 64.8 2.6 64.8" fill="#cdd8c7" fill-rule="evenodd" stroke="none"/>
    <path d="M45.95 63.45 L45.95 75.7 26.4 75.7 26.4 63.45 45.95 63.45" fill="#6c9f37" fill-rule="evenodd" stroke="none"/>
    <path d="M62.95 7.9 L58.9 17.65 Q55.55 24.4 49.8 27.75 43.4 32.15 34.3 31.15 19.8 29.45 12.75 12.3 L10.35 5.9 15.75 5.9 Q17.8 13.3 20.8 18.0 24.85 24.05 31.95 26.4 L37.65 27.1 Q41.05 27.1 44.05 26.1 49.8 24.05 53.15 18.65 55.85 14.3 58.55 5.9 L63.6 5.9 62.95 7.9" fill="#cdd8c7" fill-rule="evenodd" stroke="none"/>
    <path d="M55.85 5.9 L54.2 9.9 Q53.5 12.3 51.15 16.3 48.8 19.7 45.4 21.7 41.35 24.75 35.3 24.05 25.2 23.05 20.8 11.6 L18.45 5.9 22.5 5.9 Q25.2 18.35 34.3 21.35 38.35 22.05 42.7 20.35 45.4 19.35 47.8 15.3 49.45 12.3 51.8 5.9 L55.85 5.9" fill="#cdd8c7" fill-rule="evenodd" stroke="none"/>
    <path d="M41.5 28.3 L41.5 63.45 31.45 63.45 31.45 28.3 41.5 28.3" fill="#cdd8c7" fill-rule="evenodd" stroke="none"/>
    <path d="M39.2 38.95 Q38.15 40.0 36.65 40.0 35.15 40.0 34.1 38.95 33.05 37.9 33.05 36.4 33.05 34.9 34.1 33.85 35.15 32.8 36.65 32.8 38.15 32.8 39.2 33.85 40.3 34.9 40.3 36.4 40.3 37.9 39.2 38.95" fill="#011e04" fill-rule="evenodd" stroke="none"/>
    <path d="M39.2 56.15 Q38.15 57.2 36.65 57.2 35.15 57.2 34.1 56.15 33.05 55.1 33.05 53.6 33.05 52.1 34.1 51.05 35.15 50.0 36.65 50.0 38.15 50.0 39.2 51.05 40.3 52.1 40.3 53.6 40.3 55.1 39.2 56.15" fill="#011e04" fill-rule="evenodd" stroke="none"/>
    <path d="M39.2 72.65 Q38.15 73.7 36.65 73.7 35.15 73.7 34.1 72.65 33.05 71.6 33.05 70.1 33.05 68.6 34.1 67.55 35.15 66.5 36.65 66.5 38.15 66.5 39.2 67.55 40.3 68.6 40.3 70.1 40.3 71.6 39.2 72.65" fill="#011e04" fill-rule="evenodd" stroke="none"/>
  </g>
</svg>
