<?xml version="1.0" encoding="UTF-8" standalone="no"?>
<svg xmlns:xlink="http://www.w3.org/1999/xlink" height="78.95px" width="82.85px" xmlns="http://www.w3.org/2000/svg">
  <g transform="matrix(1.0, 0.0, 0.0, 1.0, 5.75, -2.5)">
    <path d="M70.75 7.1 Q73.45 8.4 74.1 10.1 L72.4 21.55 Q72.1 24.25 72.1 26.95 L71.4 33.35 Q71.05 35.0 71.05 37.05 70.75 38.4 70.75 40.05 70.4 43.45 70.4 46.8 69.4 54.2 68.7 62.3 L68.7 66.0 68.7 67.35 68.7 68.7 68.35 68.7 68.35 69.0 68.35 69.7 68.35 70.35 67.7 73.75 Q67.7 73.05 68.05 71.4 L67.35 74.05 Q67.0 74.05 67.0 74.4 L67.0 74.75 66.35 78.45 5.7 78.45 5.0 75.75 5.0 75.1 5.0 74.75 4.0 71.4 4.0 70.7 4.0 70.35 3.65 70.35 3.65 69.7 Q3.35 68.7 3.35 67.35 L3.35 66.0 2.65 60.6 1.65 47.5 1.65 46.8 Q1.3 43.75 1.3 40.75 L-0.05 32.35 Q-0.05 31.0 -0.4 29.95 -0.4 27.6 -0.7 25.6 -0.7 23.55 -1.05 21.55 L-2.75 10.45 Q-2.4 7.75 0.95 6.75 L2.3 6.4 Q3.0 6.4 3.35 6.05 L5.0 6.05 6.05 6.05 6.35 5.75 9.05 5.75 10.4 5.75 13.45 5.75 Q19.85 5.05 60.3 6.4 L66.7 6.4 66.7 6.75 68.05 6.75 69.4 6.75 Q70.05 6.75 70.4 7.1 L70.75 7.1 M68.05 71.4 L68.05 70.7 68.05 70.35 68.35 70.35 68.05 70.35 68.05 70.7 68.05 71.4" fill="#583939" fill-rule="evenodd" stroke="none"/>
    <path d="M70.75 7.1 Q73.45 8.4 74.1 10.1 L72.4 21.55 Q72.1 24.25 72.1 26.95 L71.4 33.35 Q71.05 35.0 71.05 37.05 70.75 38.4 70.75 40.05 70.4 43.45 70.4 46.8 69.4 54.2 68.7 62.3 L68.7 66.0 68.7 67.35 68.7 68.7 68.35 68.7 68.35 69.0 68.35 69.7 68.35 70.35 67.7 73.75 Q67.7 73.05 68.05 71.4 L67.35 74.05 Q67.0 74.05 67.0 74.4 L67.0 74.75 66.35 78.45 5.7 78.45 5.0 75.75 5.0 75.1 5.0 74.75 4.0 71.4 4.0 70.7 4.0 70.35 3.65 70.35 3.65 69.7 Q3.35 68.7 3.35 67.35 L3.35 66.0 2.65 60.6 1.65 47.5 1.65 46.8 Q1.3 43.75 1.3 40.75 L-0.05 32.35 Q-0.05 31.0 -0.4 29.95 -0.4 27.6 -0.7 25.6 -0.7 23.55 -1.05 21.55 L-2.75 10.45 Q-2.4 7.75 0.95 6.75 L2.3 6.4 Q3.0 6.4 3.35 6.05 L5.0 6.05 6.05 6.05 6.35 5.75 9.05 5.75 10.4 5.75 13.45 5.75 Q19.85 5.05 60.3 6.4 L66.7 6.4 66.7 6.75 68.05 6.75 69.4 6.75 Q70.05 6.75 70.4 7.1 L70.75 7.1 M68.35 70.35 L68.05 70.35 68.05 70.7 68.05 71.4" fill="none" stroke="#012001" stroke-linecap="round" stroke-linejoin="round" stroke-width="6.0"/>
    <path d="M65.0 6.75 L67.7 6.75 69.4 6.75 Q65.7 66.0 55.9 78.45 L14.45 78.45 Q6.7 74.4 2.3 6.4 3.0 6.4 3.35 6.05 L5.0 6.05 9.05 5.75 10.4 5.75 34.0 50.5 65.0 6.75" fill="#679735" fill-rule="evenodd" stroke="none"/>
    <path d="M69.4 6.75 Q70.05 6.75 70.4 7.1 L70.75 7.1 Q73.45 8.4 74.1 10.1 73.1 15.5 72.4 21.55 72.1 24.25 72.1 26.95 L71.4 33.35 Q71.05 35.0 71.05 37.05 70.75 38.4 70.75 40.05 70.4 43.45 70.4 46.8 69.4 54.2 68.7 62.3 L68.7 66.0 68.7 67.35 Q68.35 68.0 68.35 68.7 L68.35 69.0 68.35 69.7 67.7 73.75 Q67.7 73.05 68.05 71.4 L68.05 70.75 67.7 71.4 Q67.35 72.75 67.35 74.05 67.0 74.05 67.0 74.4 L67.0 74.75 66.35 78.45 55.9 78.45 Q65.7 66.0 69.4 6.75 M14.45 78.45 L5.7 78.45 5.0 75.75 5.0 75.1 5.0 74.75 4.0 71.4 4.0 70.7 4.0 70.35 3.65 70.35 3.65 69.7 Q3.35 68.7 3.35 67.35 L3.35 66.0 2.65 60.6 1.65 47.5 1.65 46.8 0.95 40.75 Q0.65 36.7 -0.05 32.35 -0.05 31.0 -0.4 29.95 -0.4 27.6 -0.7 25.6 -0.7 23.55 -1.05 21.55 L-2.75 10.45 Q-2.4 7.75 0.65 6.75 L2.3 6.4 Q6.7 74.4 14.45 78.45 M68.05 70.7 Q68.05 70.35 68.35 69.7 68.05 70.05 68.05 70.35 L68.05 70.7" fill="#537e27" fill-rule="evenodd" stroke="none"/>
    <path d="M13.1 5.75 Q19.5 5.05 60.3 6.4 55.55 11.8 50.85 15.15 46.15 18.85 37.7 18.85 28.6 19.2 22.9 14.5 16.8 10.45 13.1 5.75" fill="#807f7f" fill-rule="evenodd" stroke="none"/>
    <path d="M10.4 5.75 L12.75 5.75 13.1 5.75 Q16.8 10.45 22.9 14.5 28.6 19.2 37.7 18.85 46.15 18.85 50.85 15.15 55.55 11.8 60.3 6.4 L65.0 6.75 34.0 50.5 10.4 5.75" fill="#b3b3b3" fill-rule="evenodd" stroke="none"/>
    <path d="M6.45 5.8 L13.1 5.8 Q28.3 31.05 37.55 55.35 22.65 49.8 10.85 36.9 L23.65 29.7 3.0 23.7 6.45 5.8" fill="#002003" fill-rule="evenodd" stroke="none"/>
    <path d="M6.45 5.8 L3.0 23.7 23.65 29.7 10.85 36.9 Q22.65 49.8 37.55 55.35 L38.15 56.95 38.85 58.95 36.75 57.95 Q16.75 48.2 6.05 35.3 L19.05 29.55 0.1 24.75 3.25 13.6 6.45 5.8" fill="#e5f0cf" fill-rule="evenodd" stroke="none"/>
    <path d="M28.1 63.8 Q33.9 51.1 45.55 31.25 L60.5 6.4 66.8 6.4 68.4 22.4 50.75 29.45 61.35 36.7 48.55 49.25 36.65 58.5 28.1 63.8 M26.45 67.45 L26.35 67.8 26.2 67.85 26.45 67.45" fill="#002003" fill-rule="evenodd" stroke="none"/>
    <path d="M66.8 6.4 L69.45 13.95 71.45 25.25 54.9 29.7 66.1 36.35 Q51.85 51.9 30.75 65.05 L30.6 65.2 Q30.4 65.25 30.25 65.4 L26.45 67.45 27.15 65.85 28.1 63.8 36.65 58.5 48.55 49.25 61.35 36.7 50.75 29.45 68.4 22.4 66.8 6.4" fill="#e5f0cf" fill-rule="evenodd" stroke="none"/>
    <path d="M29.95 65.0 L29.95 78.45 26.25 78.45 26.25 66.65 29.95 65.0" fill="#e5f0cf" fill-rule="evenodd" stroke="none"/>
    <path d="M40.05 66.65 Q41.4 68.35 41.4 70.35 41.4 72.05 40.05 73.75 39.05 75.1 37.05 75.1 35.0 75.1 33.65 73.75 32.3 72.05 32.3 70.35 32.3 68.35 33.65 66.65 35.0 65.3 37.05 65.3 39.05 65.3 40.05 66.65 M39.4 68.0 Q38.05 67.0 37.05 67.0 35.7 67.0 34.65 68.0 34.0 68.7 34.0 70.35 34.0 71.4 34.65 72.05 35.7 73.4 37.05 73.4 38.05 73.4 39.4 72.05 40.05 71.4 40.05 70.35 40.05 68.7 39.4 68.0" fill="#ccff33" fill-rule="evenodd" stroke="none"/>
    <path d="M39.4 68.0 Q40.05 68.7 40.05 70.35 40.05 71.4 39.4 72.05 38.05 73.4 37.05 73.4 35.7 73.4 34.65 72.05 34.0 71.4 34.0 70.35 34.0 68.7 34.65 68.0 35.7 67.0 37.05 67.0 38.05 67.0 39.4 68.0" fill="#94bb03" fill-rule="evenodd" stroke="none"/>
    <path d="M35.35 69.35 Q35.35 69.0 35.7 68.7 L36.7 68.7 37.05 69.35 Q37.05 70.05 36.7 70.35 L35.7 70.35 Q35.35 70.05 35.35 69.35" fill="#ffffff" fill-opacity="0.5921569" fill-rule="evenodd" stroke="none"/>
    <path d="M22.9 20.2 Q27.95 21.2 32.0 24.6 32.3 27.95 29.95 30.65 26.9 34.0 23.2 36.05 18.85 37.7 14.1 37.05 14.1 34.0 12.75 30.3 10.75 25.95 11.75 21.2 11.75 19.85 12.75 19.85 L22.9 20.2 M28.6 23.25 Q26.9 21.9 23.2 21.2 L16.15 20.55 12.75 20.9 Q12.45 21.2 15.15 21.9 17.5 23.25 21.55 23.9 L27.95 25.25 Q30.65 25.6 30.95 24.9 30.95 24.6 28.6 23.25" fill="#d8e2cc" fill-rule="evenodd" stroke="none"/>
    <path d="M28.6 23.25 Q30.95 24.6 30.95 24.9 30.65 25.6 27.95 25.25 L21.55 23.9 Q17.5 23.25 15.15 21.9 12.45 21.2 12.75 20.9 L16.15 20.55 23.2 21.2 Q26.9 21.9 28.6 23.25" fill="#b1bba6" fill-rule="evenodd" stroke="none"/>
    <path d="M21.3 25.9 L25.55 26.4 29.9 26.6 31.3 26.25 30.7 27.4 30.8 27.4 30.55 27.65 28.4 29.1 24.8 30.95 Q22.8 31.8 21.35 31.8 L17.95 31.15 Q15.95 30.4 14.95 29.05 L16.95 28.85 Q18.05 28.45 18.2 27.85 L18.2 27.65 18.4 26.95 18.5 26.8 Q18.85 26.25 19.55 26.05 L21.3 25.9" fill="#e9f3df" fill-rule="evenodd" stroke="none"/>
    <path d="M47.15 20.9 Q50.85 19.85 54.2 19.85 57.25 19.85 57.6 20.55 L55.25 21.9 Q52.55 22.9 48.85 23.9 45.1 24.9 42.4 24.9 39.4 25.25 39.4 24.9 39.4 23.9 41.4 22.9 43.45 21.55 47.15 20.9" fill="#b1bba6" fill-rule="evenodd" stroke="none"/>
    <path d="M47.15 20.9 Q43.45 21.55 41.4 22.9 39.4 23.9 39.4 24.9 39.4 25.25 42.4 24.9 45.1 24.9 48.85 23.9 52.55 22.9 55.25 21.9 L57.6 20.55 Q57.25 19.85 54.2 19.85 50.85 19.85 47.15 20.9 M57.6 19.55 Q58.25 19.85 58.6 20.9 59.6 25.6 57.6 30.3 56.25 33.65 55.9 36.7 51.5 37.7 47.15 35.7 43.1 34.0 40.05 30.3 37.7 27.95 38.05 24.25 42.1 21.2 47.15 19.85 L57.6 19.55" fill="#d8e2cc" fill-rule="evenodd" stroke="none"/>
    <path d="M54.9 28.4 Q53.95 29.7 52.45 30.9 51.0 32.0 48.7 32.3 46.35 32.55 44.5 31.5 42.75 30.55 41.3 29.0 L39.35 27.0 39.15 26.7 39.2 26.7 38.6 25.6 39.85 26.0 43.75 26.1 48.2 26.5 Q50.25 26.9 52.25 27.85 L53.25 28.3 54.9 28.4" fill="#e9f3df" fill-rule="evenodd" stroke="none"/>
    <path d="M29.3 26.95 Q29.3 24.9 30.65 22.25 L39.4 22.25 Q40.75 24.6 40.75 26.6 38.05 25.6 35.7 25.6 32.0 25.6 29.3 26.95" fill="#d8e2cc" fill-rule="evenodd" stroke="none"/>
    <path d="M40.75 26.6 Q40.75 28.6 39.4 30.65 L30.65 30.65 Q29.3 28.95 29.3 26.95 32.0 25.6 35.7 25.6 38.05 25.6 40.75 26.6" fill="#c9d3c1" fill-rule="evenodd" stroke="none"/>
    <path d="M22.45 70.35 L7.65 70.35 7.65 66.8 22.45 66.8 22.45 70.35" fill="#002003" fill-rule="evenodd" stroke="none"/>
    <path d="M63.05 66.1 L63.05 69.4 47.2 69.4 47.2 66.1 63.05 66.1" fill="#002003" fill-rule="evenodd" stroke="none"/>
  </g>
</svg>
