<?xml version="1.0" encoding="UTF-8" standalone="no"?>
<svg xmlns:xlink="http://www.w3.org/1999/xlink" height="86.8px" width="80.45px" xmlns="http://www.w3.org/2000/svg">
  <g transform="matrix(1.0, 0.0, 0.0, 1.0, 4.55, 1.45)">
    <path d="M4.15 6.95 L11.25 3.55 Q12.25 2.9 13.25 2.9 L15.65 1.55 Q20.0 6.6 30.8 7.95 46.95 9.3 53.7 1.9 L54.05 2.2 72.9 10.65 Q68.55 31.15 70.9 45.65 L70.9 51.05 68.55 79.3 42.6 82.0 28.45 82.0 28.1 82.35 2.5 79.3 1.8 72.9 2.15 73.25 -1.2 44.65 Q1.8 27.45 -1.55 10.3 L3.85 7.25 3.5 7.25 3.85 6.95 Q3.85 6.25 4.15 6.95" fill="#0e3512" fill-rule="evenodd" stroke="none"/>
    <path d="M4.15 6.95 L11.25 3.55 Q12.25 2.9 13.25 2.9 L15.65 1.55 Q20.0 6.6 30.8 7.95 46.95 9.3 53.7 1.9 L54.05 2.2 72.9 10.65 Q68.55 31.15 70.9 45.65 L70.9 51.05 68.55 79.3 42.6 82.0 28.45 82.0 28.1 82.35 2.5 79.3 1.8 72.9 2.15 73.25 -1.2 44.65 Q1.8 27.45 -1.55 10.3 L3.85 7.25 3.5 7.25 3.85 6.95" fill="none" stroke="#012001" stroke-linecap="round" stroke-linejoin="round" stroke-width="6.0"/>
    <path d="M64.15 6.6 L66.85 7.95 Q62.15 38.9 70.9 45.65 L70.9 51.05 Q65.85 47.35 63.5 37.55 60.1 26.45 64.15 6.6 M-1.2 44.65 Q1.5 41.6 2.5 38.9 L4.85 28.8 Q5.85 22.1 5.2 16.35 4.85 10.95 3.5 7.25 L3.85 6.95 4.15 6.95 6.55 5.9 Q10.25 20.75 6.55 36.55 3.5 44.65 -0.9 47.65 L-1.2 44.65 M31.15 64.85 Q32.5 69.2 44.6 76.95 L68.9 72.6 68.9 75.6 43.6 80.0 33.85 72.25 Q31.45 70.9 31.45 66.85 L31.15 64.85 M2.5 75.6 L1.8 72.9 2.15 73.25 2.15 73.6 25.05 77.3 29.45 72.25 31.15 74.25 26.4 79.65 2.5 75.6" fill="#e5f0cf" fill-rule="evenodd" stroke="none"/>
    <path d="M70.9 45.65 Q62.15 38.9 66.85 7.95 L72.9 10.65 Q68.55 31.15 70.9 45.65 M45.95 23.45 Q49.65 15.35 54.05 2.2 L57.1 3.25 Q50.7 24.75 40.25 39.9 L32.5 50.0 Q30.8 52.05 30.8 53.4 L30.8 55.75 31.15 64.85 31.45 66.85 Q31.45 70.9 33.85 72.25 L43.6 80.0 68.9 75.6 68.55 79.3 42.6 82.0 41.6 82.0 33.5 76.3 28.45 82.0 28.1 82.35 2.5 79.3 2.5 75.6 26.4 79.65 31.15 74.25 29.45 72.25 Q28.8 71.25 28.45 68.55 L27.45 53.75 Q27.1 52.05 28.8 48.35 L32.15 44.65 Q19.35 28.15 11.25 3.55 12.25 2.9 13.25 2.9 L14.95 1.9 Q18.65 13.65 23.05 23.45 25.05 28.5 30.1 36.2 L34.5 40.95 38.55 36.2 Q41.25 33.2 45.95 23.45 M3.5 7.25 Q4.85 10.95 5.2 16.35 5.85 22.1 4.85 28.8 L2.5 38.9 Q1.5 41.6 -1.2 44.65 1.8 27.45 -1.55 10.3 L3.5 7.25" fill="#679735" fill-rule="evenodd" stroke="none"/>
    <path d="M54.05 2.2 Q49.65 15.35 45.95 23.45 34.5 29.5 23.05 23.45 18.65 13.65 14.95 1.9 L15.65 1.55 Q19.7 6.6 30.8 7.95 46.95 9.3 53.7 1.9 L54.05 2.2" fill="#9fa39f" fill-rule="evenodd" stroke="none"/>
    <path d="M64.15 6.6 Q60.1 26.45 63.5 37.55 65.85 47.35 70.9 51.05 L68.9 72.6 44.6 76.95 Q32.5 69.2 31.15 64.85 L30.8 55.75 30.8 53.4 Q30.8 52.05 32.5 50.0 L40.25 39.9 Q50.7 24.75 57.1 3.25 L64.15 6.6 M-0.9 47.65 Q3.5 44.65 6.55 36.55 10.25 20.75 6.55 5.9 L11.25 3.55 Q19.35 28.15 32.15 44.65 L28.8 48.35 Q27.1 52.05 27.45 53.75 L28.45 68.55 Q28.8 71.25 29.45 72.25 L25.05 77.3 2.15 73.6 2.15 73.25 -0.9 47.65" fill="#023307" fill-rule="evenodd" stroke="none"/>
    <path d="M23.05 23.45 Q34.5 29.5 45.95 23.45 41.25 33.2 38.55 36.2 L34.5 40.95 30.1 36.2 Q25.05 28.5 23.05 23.45" fill="#c8c8c8" fill-rule="evenodd" stroke="none"/>
    <path d="M28.45 82.0 L33.5 76.3 41.6 82.0 28.45 82.0" fill="#003506" fill-rule="evenodd" stroke="none"/>
    <path d="M23.4 58.65 L45.0 58.4 49.0 61.25 Q50.55 62.0 49.2 62.9 L45.4 65.9 22.95 66.3 21.45 65.9 Q20.65 65.4 20.5 64.8 19.85 63.05 20.25 60.7 20.55 58.65 23.4 58.65 M44.1 62.7 Q44.8 62.2 43.7 61.6 L41.0 60.05 25.0 60.35 Q23.4 62.6 25.4 64.65 L40.95 64.5 44.1 62.7" fill="#e5f0cf" fill-rule="evenodd" stroke="none"/>
    <path d="M44.1 62.7 L40.95 64.5 25.4 64.65 Q23.4 62.6 25.0 60.35 L41.0 60.05 43.7 61.6 Q44.8 62.2 44.1 62.7" fill="#679735" fill-rule="evenodd" stroke="none"/>
    <path d="M23.4 46.85 L45.0 46.6 49.0 49.45 Q50.55 50.2 49.2 51.1 L45.4 54.1 22.95 54.5 21.45 54.1 Q20.65 53.6 20.5 53.0 19.85 51.25 20.25 48.9 20.55 46.85 23.4 46.85 M44.1 50.9 Q44.8 50.4 43.7 49.8 L41.0 48.25 25.0 48.55 Q23.4 50.8 25.4 52.85 L40.95 52.7 44.1 50.9" fill="#e5f0cf" fill-rule="evenodd" stroke="none"/>
    <path d="M44.1 50.9 L40.95 52.7 25.4 52.85 Q23.4 50.8 25.0 48.55 L41.0 48.25 43.7 49.8 Q44.8 50.4 44.1 50.9" fill="#679735" fill-rule="evenodd" stroke="none"/>
    <path d="M26.1 48.7 Q27.45 48.7 28.45 49.35 29.45 50.35 29.45 51.7 29.45 52.7 28.45 53.75 27.45 54.4 26.1 54.4 25.05 54.4 24.05 53.75 23.05 52.7 23.05 51.7 23.05 50.35 24.05 49.35 25.05 48.7 26.1 48.7 M27.75 50.0 L26.1 49.7 24.75 50.0 Q24.05 50.7 24.05 51.7 24.05 52.4 24.75 52.7 25.4 53.4 26.1 53.4 27.1 53.4 27.75 52.7 28.45 52.4 28.45 51.7 28.45 50.7 27.75 50.0" fill="url(#gradient0)" fill-rule="evenodd" stroke="none"/>
    <path d="M27.75 50.0 Q28.45 50.7 28.45 51.7 28.45 52.4 27.75 52.7 27.1 53.4 26.1 53.4 25.4 53.4 24.75 52.7 24.05 52.4 24.05 51.7 24.05 50.7 24.75 50.0 L26.1 49.7 27.75 50.0 M27.45 50.35 Q27.1 50.0 26.1 50.0 25.4 50.0 25.05 50.35 24.75 50.7 24.75 51.7 L25.05 52.7 Q25.4 53.05 26.1 53.05 27.1 53.05 27.45 52.7 L28.1 51.7 Q28.1 50.7 27.45 50.35 28.1 50.7 28.1 51.7 L27.45 52.7 Q27.1 53.05 26.1 53.05 25.4 53.05 25.05 52.7 L24.75 51.7 Q24.75 50.7 25.05 50.35 25.4 50.0 26.1 50.0 27.1 50.0 27.45 50.35" fill="#000000" fill-rule="evenodd" stroke="none"/>
    <path d="M27.45 50.35 Q28.1 50.7 28.1 51.7 L27.45 52.7 Q27.1 53.05 26.1 53.05 25.4 53.05 25.05 52.7 L24.75 51.7 Q24.75 50.7 25.05 50.35 25.4 50.0 26.1 50.0 27.1 50.0 27.45 50.35 Z" fill="none" stroke="#000000" stroke-linecap="round" stroke-linejoin="round" stroke-width="0.25"/>
    <path d="M25.05 50.35 L25.75 50.35 26.1 51.05 25.75 51.35 25.4 51.7 Q25.05 51.7 25.05 51.35 L25.05 51.05 25.05 50.35" fill="#ffffff" fill-opacity="0.5921569" fill-rule="evenodd" stroke="none"/>
    <path d="M26.4 60.1 Q27.45 60.1 28.8 60.8 29.45 61.45 29.45 62.8 29.45 64.15 28.8 64.85 27.45 65.85 26.4 65.85 25.05 65.85 24.05 64.85 23.4 64.15 23.4 62.8 23.4 61.45 24.05 60.8 25.05 60.1 26.4 60.1 M26.5 61.15 L26.3 61.15 Q25.4 61.15 25.05 61.45 24.4 62.15 24.4 62.8 24.4 63.5 25.05 64.15 25.4 64.85 26.4 64.85 27.1 64.85 27.75 64.15 28.45 63.5 28.45 62.8 28.45 62.15 27.75 61.45 27.15 61.15 26.5 61.15" fill="url(#gradient1)" fill-rule="evenodd" stroke="none"/>
    <path d="M26.5 61.15 Q27.1 61.2 27.45 61.8 28.1 62.15 28.1 62.8 28.1 63.5 27.45 64.15 27.1 64.5 26.4 64.5 25.4 64.5 25.05 64.15 24.75 63.5 24.75 62.8 24.75 62.15 25.05 61.8 25.4 61.2 26.3 61.15 25.4 61.2 25.05 61.8 24.75 62.15 24.75 62.8 24.75 63.5 25.05 64.15 25.4 64.5 26.4 64.5 27.1 64.5 27.45 64.15 28.1 63.5 28.1 62.8 28.1 62.15 27.45 61.8 27.1 61.2 26.5 61.15 27.15 61.15 27.75 61.45 28.45 62.15 28.45 62.8 28.45 63.5 27.75 64.15 27.1 64.85 26.4 64.85 25.4 64.85 25.05 64.15 24.4 63.5 24.4 62.8 24.4 62.15 25.05 61.45 25.4 61.15 26.3 61.15 L26.5 61.15" fill="#000000" fill-rule="evenodd" stroke="none"/>
    <path d="M26.3 61.15 Q25.4 61.2 25.05 61.8 24.75 62.15 24.75 62.8 24.75 63.5 25.05 64.15 25.4 64.5 26.4 64.5 27.1 64.5 27.45 64.15 28.1 63.5 28.1 62.8 28.1 62.15 27.45 61.8 27.1 61.2 26.5 61.15 L26.3 61.15 Z" fill="none" stroke="#000000" stroke-linecap="round" stroke-linejoin="round" stroke-width="0.25"/>
    <path d="M26.1 61.8 L26.1 62.5 26.1 62.8 25.4 62.8 25.05 62.8 25.05 62.5 25.05 61.8 25.4 61.8 26.1 61.8" fill="#ffffff" fill-opacity="0.5921569" fill-rule="evenodd" stroke="none"/>
    <path d="M44.6 48.7 Q45.65 49.7 45.65 51.05 45.65 52.05 44.6 53.05 43.6 53.75 42.25 53.75 41.25 53.75 40.25 53.05 39.55 52.05 39.55 51.05 39.55 49.7 40.25 48.7 L42.25 48.35 44.6 48.7 M44.6 51.05 Q44.6 50.0 43.95 49.7 43.25 49.0 42.25 49.0 41.6 49.0 40.9 49.7 40.25 50.0 40.25 51.05 40.25 51.7 40.9 52.05 41.6 52.7 42.25 52.7 43.25 52.7 43.95 52.05 44.6 51.7 44.6 51.05" fill="url(#gradient2)" fill-rule="evenodd" stroke="none"/>
    <path d="M44.3 51.05 Q44.3 50.0 43.6 50.0 43.25 49.35 42.25 49.35 41.6 49.35 41.25 50.0 40.9 50.0 40.9 51.05 40.9 51.7 41.25 52.05 41.6 52.4 42.25 52.4 43.25 52.4 43.6 52.05 44.3 51.7 44.3 51.05 44.3 51.7 43.6 52.05 43.25 52.4 42.25 52.4 41.6 52.4 41.25 52.05 40.9 51.7 40.9 51.05 40.9 50.0 41.25 50.0 41.6 49.35 42.25 49.35 43.25 49.35 43.6 50.0 44.3 50.0 44.3 51.05 M44.6 51.05 Q44.6 51.7 43.95 52.05 43.25 52.7 42.25 52.7 41.6 52.7 40.9 52.05 40.25 51.7 40.25 51.05 40.25 50.0 40.9 49.7 41.6 49.0 42.25 49.0 43.25 49.0 43.95 49.7 44.6 50.0 44.6 51.05" fill="#000000" fill-rule="evenodd" stroke="none"/>
    <path d="M44.3 51.05 Q44.3 51.7 43.6 52.05 43.25 52.4 42.25 52.4 41.6 52.4 41.25 52.05 40.9 51.7 40.9 51.05 40.9 50.0 41.25 50.0 41.6 49.35 42.25 49.35 43.25 49.35 43.6 50.0 44.3 50.0 44.3 51.05 Z" fill="none" stroke="#000000" stroke-linecap="round" stroke-linejoin="round" stroke-width="0.25"/>
    <path d="M41.25 50.7 L41.25 50.0 41.9 50.0 Q42.25 50.0 42.25 50.35 L41.9 50.7 41.25 50.7" fill="#ffffff" fill-opacity="0.5921569" fill-rule="evenodd" stroke="none"/>
    <path d="M39.55 61.8 Q39.55 60.8 40.25 59.8 41.25 59.1 42.6 59.1 43.6 59.1 44.6 59.8 45.65 60.8 45.65 61.8 45.65 62.8 44.6 63.85 43.6 64.85 42.6 64.85 41.25 64.85 40.25 63.85 39.55 62.8 39.55 61.8 M42.6 60.1 Q41.6 60.1 40.9 60.8 40.25 61.15 40.25 61.8 40.25 62.8 40.9 63.15 41.6 63.85 42.6 63.85 43.25 63.85 43.95 63.15 44.6 62.8 44.6 61.8 44.6 61.15 43.95 60.8 43.25 60.1 42.6 60.1" fill="url(#gradient3)" fill-rule="evenodd" stroke="none"/>
    <path d="M42.6 60.1 Q43.25 60.1 43.95 60.8 44.6 61.15 44.6 61.8 44.6 62.8 43.95 63.15 43.25 63.85 42.6 63.85 41.6 63.85 40.9 63.15 40.25 62.8 40.25 61.8 40.25 61.15 40.9 60.8 41.6 60.1 42.6 60.1 M43.6 60.8 Q43.25 60.45 42.6 60.45 41.6 60.45 41.25 60.8 40.9 61.15 40.9 61.8 40.9 62.8 41.25 62.8 41.6 63.5 42.6 63.5 43.25 63.5 43.6 62.8 44.3 62.8 44.3 61.8 44.3 61.15 43.6 60.8 44.3 61.15 44.3 61.8 44.3 62.8 43.6 62.8 43.25 63.5 42.6 63.5 41.6 63.5 41.25 62.8 40.9 62.8 40.9 61.8 40.9 61.15 41.25 60.8 41.6 60.45 42.6 60.45 43.25 60.45 43.6 60.8" fill="#000000" fill-rule="evenodd" stroke="none"/>
    <path d="M43.6 60.8 Q44.3 61.15 44.3 61.8 44.3 62.8 43.6 62.8 43.25 63.5 42.6 63.5 41.6 63.5 41.25 62.8 40.9 62.8 40.9 61.8 40.9 61.15 41.25 60.8 41.6 60.45 42.6 60.45 43.25 60.45 43.6 60.8 Z" fill="none" stroke="#000000" stroke-linecap="round" stroke-linejoin="round" stroke-width="0.25"/>
    <path d="M41.25 62.5 L41.9 62.5 42.25 62.8 41.9 63.15 41.6 63.5 41.25 63.15 41.25 62.5" fill="#ffffff" fill-opacity="0.5921569" fill-rule="evenodd" stroke="none"/>
  </g>
  <defs>
    <radialGradient cx="0" cy="0" gradientTransform="matrix(0.004, 0.0, 0.0, 0.0037, 26.1, 51.7)" gradientUnits="userSpaceOnUse" id="gradient0" r="819.2" spreadMethod="pad">
      <stop offset="0.34509803921568627" stop-color="#dbdbdb"/>
      <stop offset="1.0" stop-color="#a3a3a3"/>
    </radialGradient>
    <radialGradient cx="0" cy="0" gradientTransform="matrix(0.004, 0.0, 0.0, 0.0037, 26.4, 62.8)" gradientUnits="userSpaceOnUse" id="gradient1" r="819.2" spreadMethod="pad">
      <stop offset="0.34509803921568627" stop-color="#dbdbdb"/>
      <stop offset="1.0" stop-color="#a3a3a3"/>
    </radialGradient>
    <radialGradient cx="0" cy="0" gradientTransform="matrix(0.004, 0.0, 0.0, 0.0037, 42.25, 51.05)" gradientUnits="userSpaceOnUse" id="gradient2" r="819.2" spreadMethod="pad">
      <stop offset="0.34509803921568627" stop-color="#dbdbdb"/>
      <stop offset="1.0" stop-color="#a3a3a3"/>
    </radialGradient>
    <radialGradient cx="0" cy="0" gradientTransform="matrix(0.004, 0.0, 0.0, 0.0037, 42.6, 61.8)" gradientUnits="userSpaceOnUse" id="gradient3" r="819.2" spreadMethod="pad">
      <stop offset="0.34509803921568627" stop-color="#dbdbdb"/>
      <stop offset="1.0" stop-color="#a3a3a3"/>
    </radialGradient>
  </defs>
</svg>
