<?xml version="1.0" encoding="UTF-8" standalone="no"?>
<svg xmlns:xlink="http://www.w3.org/1999/xlink" height="244.7px" width="289.1px" xmlns="http://www.w3.org/2000/svg">
  <g transform="matrix(1.0, 0.0, 0.0, 1.0, 23.3, 40.0)">
    <path d="M168.0 45.95 Q175.65 50.55 182.65 56.85 L184.05 58.15 Q188.4 62.25 192.1 66.7 L195.85 71.55 196.35 72.3 201.8 81.35 201.85 81.4 202.05 81.85 202.25 82.3 Q204.9 83.0 207.4 84.25 L209.05 85.15 210.25 85.9 212.95 87.95 214.55 89.35 Q216.55 91.25 218.45 93.7 L221.1 97.4 222.6 100.15 Q229.55 101.25 234.7 107.95 235.7 109.15 236.5 110.45 237.8 112.7 238.75 115.2 241.05 120.8 241.05 127.7 L241.05 129.35 246.2 129.8 Q249.65 128.8 250.75 127.75 252.85 125.95 255.55 126.2 258.4 126.35 260.15 128.65 262.0 130.7 261.75 133.5 261.5 136.35 259.3 138.25 257.15 139.85 254.45 139.65 251.6 139.55 250.0 137.25 248.9 136.05 245.95 134.25 L240.55 133.75 Q239.75 138.55 237.7 142.65 L236.5 144.9 234.7 147.4 Q228.45 155.6 219.6 155.6 L216.5 155.35 Q213.25 158.95 209.55 161.25 208.7 161.8 207.8 162.3 204.45 164.0 200.8 164.75 L199.7 164.95 198.0 165.15 197.95 165.15 195.7 165.25 194.15 165.2 192.4 167.4 191.6 168.35 190.75 169.4 187.55 172.8 182.75 177.55 181.0 179.05 179.85 180.05 180.05 179.8 177.95 181.6 175.55 183.35 169.1 187.8 Q168.2 188.25 167.4 188.75 L164.05 190.6 162.2 191.55 Q154.65 195.25 146.4 197.45 L142.65 198.4 140.6 198.9 138.8 198.95 136.7 199.1 126.2 200.5 Q115.45 201.2 105.35 199.2 L103.0 198.95 102.5 199.0 102.45 198.95 100.25 198.5 Q90.75 196.5 82.15 192.5 L80.3 191.65 76.75 189.8 Q71.55 186.95 66.65 183.35 L62.45 180.05 58.2 176.2 57.8 175.85 54.0 172.05 52.0 169.85 48.65 165.85 48.4 165.5 45.8 161.95 44.55 161.85 44.5 161.85 42.8 161.65 41.7 161.45 Q38.0 160.7 34.7 158.95 L32.95 157.95 Q29.25 155.65 26.05 152.05 L22.9 152.3 Q14.0 152.3 7.8 144.1 L6.0 141.6 4.8 139.35 Q2.75 135.25 1.95 130.45 L-3.45 130.95 Q-6.4 132.75 -7.5 133.95 -9.15 136.25 -11.95 136.35 -14.65 136.55 -16.8 134.95 -19.0 133.05 -19.25 130.2 -19.5 127.4 -17.65 125.35 -15.9 123.05 -13.1 122.9 -10.35 122.65 -8.3 124.45 -7.15 125.5 -3.7 126.5 L1.5 126.05 1.4 124.4 Q1.45 117.5 3.75 111.9 4.7 109.4 6.0 107.15 L7.8 104.7 Q12.9 97.95 19.9 96.85 L21.4 94.15 24.0 90.4 Q25.95 87.95 27.95 86.05 L29.5 84.6 32.25 82.6 33.45 81.8 Q34.2 81.35 35.1 80.95 38.25 79.3 41.85 78.65 44.5 73.9 47.85 69.45 L47.9 69.45 Q49.25 67.55 50.9 65.75 54.2 61.8 58.15 58.15 L60.85 55.7 Q79.35 39.55 103.15 35.2 L104.6 34.95 106.65 34.65 Q107.75 32.95 109.75 31.5 L121.9 -36.0 134.2 31.85 Q135.95 33.3 137.0 34.95 152.05 37.25 165.1 44.35 L168.0 45.95" fill="#000000" fill-rule="evenodd" stroke="none"/>
    <path d="M168.0 45.95 Q175.65 50.55 182.65 56.85 L184.05 58.15 Q188.4 62.25 192.1 66.7 L195.85 71.55 196.35 72.3 201.8 81.35 201.85 81.4 202.05 81.85 202.25 82.3 Q204.9 83.0 207.4 84.25 L209.05 85.15 210.25 85.9 212.95 87.95 214.55 89.35 Q216.55 91.25 218.45 93.7 L221.1 97.4 222.6 100.15 Q229.55 101.25 234.7 107.95 235.7 109.15 236.5 110.45 237.8 112.7 238.75 115.2 241.05 120.8 241.05 127.7 L241.05 129.35 246.2 129.8 Q249.65 128.8 250.75 127.75 252.85 125.95 255.55 126.2 258.4 126.35 260.15 128.65 262.0 130.7 261.75 133.5 261.5 136.35 259.3 138.25 257.15 139.85 254.45 139.65 251.6 139.55 250.0 137.25 248.9 136.05 245.95 134.25 L240.55 133.75 Q239.75 138.55 237.7 142.65 L236.5 144.9 234.7 147.4 Q228.45 155.6 219.6 155.6 L216.5 155.35 Q213.25 158.95 209.55 161.25 208.7 161.8 207.8 162.3 204.45 164.0 200.8 164.75 L199.7 164.95 198.0 165.15 197.95 165.15 195.7 165.25 194.15 165.2 192.4 167.4 191.6 168.35 190.75 169.4 187.55 172.8 182.75 177.55 181.0 179.05 179.85 180.05 180.05 179.8 177.95 181.6 175.55 183.35 169.1 187.8 Q168.2 188.25 167.4 188.75 L164.05 190.6 162.2 191.55 Q154.65 195.25 146.4 197.45 L142.65 198.4 140.6 198.9 138.8 198.95 136.7 199.1 126.2 200.5 Q115.45 201.2 105.35 199.2 L103.0 198.95 102.5 199.0 102.45 198.95 100.25 198.5 Q90.75 196.5 82.15 192.5 L80.3 191.65 76.75 189.8 Q71.55 186.95 66.65 183.35 L62.45 180.05 58.2 176.2 57.8 175.85 54.0 172.05 52.0 169.85 48.65 165.85 48.4 165.5 45.8 161.95 44.55 161.85 44.5 161.85 42.8 161.65 41.7 161.45 Q38.0 160.7 34.7 158.95 L32.95 157.95 Q29.25 155.65 26.05 152.05 L22.9 152.3 Q14.0 152.3 7.8 144.1 L6.0 141.6 4.8 139.35 Q2.75 135.25 1.95 130.45 L-3.45 130.95 Q-6.4 132.75 -7.5 133.95 -9.15 136.25 -11.95 136.35 -14.65 136.55 -16.8 134.95 -19.0 133.05 -19.25 130.2 -19.5 127.4 -17.65 125.35 -15.9 123.05 -13.1 122.9 -10.35 122.65 -8.3 124.45 -7.15 125.5 -3.7 126.5 L1.5 126.05 1.4 124.4 Q1.45 117.5 3.75 111.9 4.7 109.4 6.0 107.15 L7.8 104.7 Q12.9 97.95 19.9 96.85 L21.4 94.15 24.0 90.4 Q25.95 87.95 27.95 86.05 L29.5 84.6 32.25 82.6 33.45 81.8 Q34.2 81.35 35.1 80.95 38.25 79.3 41.85 78.65 44.5 73.9 47.85 69.45 L47.9 69.45 Q49.25 67.55 50.9 65.75 54.2 61.8 58.15 58.15 L60.85 55.7 Q79.35 39.55 103.15 35.2 L104.6 34.95 106.65 34.65 Q107.75 32.95 109.75 31.5 L121.9 -36.0 134.2 31.85 Q135.95 33.3 137.0 34.95 152.05 37.25 165.1 44.35 L168.0 45.95 Z" fill="none" stroke="#2e442b" stroke-linecap="round" stroke-linejoin="round" stroke-width="8.0"/>
    <path d="M217.8 127.1 L246.0 129.7 Q249.4 128.65 250.55 127.65 252.65 125.85 255.35 126.05 258.2 126.25 259.95 128.55 261.75 130.6 261.55 133.4 261.3 136.2 259.1 138.15 256.95 139.75 254.2 139.55 251.4 139.45 249.8 137.15 248.7 135.95 245.7 134.15 L217.35 131.6 Q215.25 129.35 217.8 127.1" fill="#6fa439" fill-rule="evenodd" stroke="none"/>
    <path d="M260.4 132.7 Q260.2 134.45 258.85 135.55 257.55 136.65 255.85 136.45 254.15 136.25 253.05 134.85 252.0 133.55 252.2 131.8 252.4 130.1 253.7 129.0 255.05 127.9 256.75 128.1 258.45 128.3 259.5 129.7 260.6 131.0 260.4 132.7" fill="#86c859" fill-rule="evenodd" stroke="none"/>
    <path d="M260.55 131.6 Q260.45 132.7 259.6 133.4 258.7 134.05 257.65 133.95 256.55 133.8 255.9 132.95 255.2 132.1 255.3 131.0 255.4 129.95 256.3 129.2 257.15 128.55 258.25 128.7 259.3 128.8 260.0 129.65 260.65 130.55 260.55 131.6" fill="#c8e6b3" fill-rule="evenodd" stroke="none"/>
    <path d="M209.5 102.8 Q213.95 99.75 219.4 99.75 L221.8 99.9 Q229.15 100.85 234.5 107.85 L236.25 110.35 Q237.6 112.6 238.55 115.1 225.05 102.7 209.5 102.8 M237.5 142.55 L236.25 144.8 234.5 147.3 Q228.25 155.5 219.4 155.5 L215.75 155.1 Q212.4 154.45 209.45 152.35 221.8 154.95 237.5 142.55" fill="#5e7a30" fill-rule="evenodd" stroke="none"/>
    <path d="M209.5 102.8 Q225.05 102.7 238.55 115.1 240.8 120.7 240.85 127.6 240.8 135.95 237.5 142.55 221.8 154.95 209.45 152.35 206.7 150.45 204.3 147.3 198.0 139.2 198.0 127.6 198.0 116.0 204.3 107.85 206.7 104.7 209.5 102.8" fill="#668635" fill-rule="evenodd" stroke="none"/>
    <path d="M207.6 162.2 Q204.25 163.9 200.6 164.65 L199.5 164.85 197.8 165.05 197.75 165.05 195.5 165.1 Q186.0 165.1 178.5 158.85 175.55 156.3 172.85 152.8 L169.65 148.1 Q163.4 137.35 163.4 123.2 163.4 105.8 172.85 93.6 174.75 91.15 176.75 89.2 L177.25 88.8 Q179.4 86.75 181.75 85.3 188.05 81.4 195.5 81.4 201.8 81.4 207.2 84.15 L208.85 85.05 210.05 85.8 212.75 87.85 212.7 88.95 Q223.95 129.75 207.7 160.9 L207.6 162.2" fill="#7da541" fill-rule="evenodd" stroke="none"/>
    <path d="M212.75 87.85 L214.35 89.25 Q225.6 130.0 209.35 161.15 L207.6 162.2 207.7 160.9 Q223.95 129.75 212.7 88.95 L212.75 87.85" fill="#628033" fill-rule="evenodd" stroke="none"/>
    <path d="M214.35 89.25 Q216.35 91.15 218.25 93.6 L220.9 97.3 223.0 101.3 Q225.75 107.05 226.85 113.6 L227.6 119.35 227.75 123.2 Q227.65 135.35 223.05 145.05 L220.9 149.1 218.25 152.8 216.4 155.05 Q213.1 158.8 209.35 161.15 225.6 130.0 214.35 89.25" fill="#87b123" fill-rule="evenodd" stroke="none"/>
    <path d="M221.25 106.5 Q222.0 106.5 222.55 105.95 223.1 105.4 223.1 104.65 223.1 103.9 222.55 103.35 222.0 102.75 221.25 102.75 220.5 102.75 219.95 103.35 219.4 103.9 219.4 104.65 219.4 105.4 219.95 105.95 220.5 106.5 221.25 106.5" fill="#ffffff" fill-rule="evenodd" stroke="none"/>
    <path d="M221.25 107.2 Q222.0 107.2 222.55 106.65 223.1 106.1 223.1 105.35 223.1 104.6 222.55 104.05 222.0 103.45 221.25 103.45 220.5 103.45 219.95 104.05 219.4 104.6 219.4 105.35 219.4 106.1 219.95 106.65 220.5 107.2 221.25 107.2" fill="#415423" fill-rule="evenodd" stroke="none"/>
    <path d="M223.55 123.4 Q224.3 123.4 224.85 122.85 225.4 122.3 225.4 121.55 225.4 120.8 224.85 120.25 224.3 119.65 223.55 119.65 222.8 119.65 222.25 120.25 221.7 120.8 221.7 121.55 221.7 122.3 222.25 122.85 222.8 123.4 223.55 123.4" fill="#ffffff" fill-rule="evenodd" stroke="none"/>
    <path d="M223.55 124.05 Q224.3 124.05 224.85 123.5 225.4 122.95 225.4 122.2 225.4 121.45 224.85 120.9 224.3 120.3 223.55 120.3 222.8 120.3 222.25 120.9 221.7 121.45 221.7 122.2 221.7 122.95 222.25 123.5 222.8 124.05 223.55 124.05" fill="#415423" fill-rule="evenodd" stroke="none"/>
    <path d="M220.75 143.0 Q221.5 143.0 222.05 142.45 222.6 141.9 222.6 141.15 222.6 140.4 222.05 139.85 221.5 139.25 220.75 139.25 220.0 139.25 219.45 139.85 218.9 140.4 218.9 141.15 218.9 141.9 219.45 142.45 220.0 143.0 220.75 143.0" fill="#ffffff" fill-rule="evenodd" stroke="none"/>
    <path d="M220.75 144.1 Q221.5 144.1 222.05 143.55 222.6 143.0 222.6 142.25 222.6 141.5 222.05 140.95 221.5 140.35 220.75 140.35 220.0 140.35 219.45 140.95 218.9 141.5 218.9 142.25 218.9 143.0 219.45 143.55 220.0 144.1 220.75 144.1" fill="#415423" fill-rule="evenodd" stroke="none"/>
    <path d="M24.3 123.8 Q26.85 126.05 24.75 128.3 L-3.65 130.85 Q-6.6 132.65 -7.7 133.85 -9.35 136.15 -12.15 136.25 -14.85 136.45 -17.0 134.85 -19.2 132.9 -19.45 130.1 -19.7 127.3 -17.85 125.25 -16.1 122.95 -13.3 122.8 -10.55 122.55 -8.5 124.35 -7.35 125.4 -3.9 126.4 L24.3 123.8" fill="#6fa439" fill-rule="evenodd" stroke="none"/>
    <path d="M-18.2 129.1 Q-18.0 130.85 -16.65 131.95 -15.35 133.05 -13.65 132.85 -11.95 132.65 -10.85 131.25 -9.8 129.95 -10.0 128.2 -10.2 126.5 -11.5 125.4 -12.85 124.3 -14.55 124.5 -16.25 124.7 -17.3 126.1 -18.4 127.4 -18.2 129.1" fill="#86c859" fill-rule="evenodd" stroke="none"/>
    <path d="M-18.2 128.5 Q-18.1 129.6 -17.25 130.3 -16.35 130.95 -15.3 130.85 -14.2 130.7 -13.55 129.85 -12.85 129.0 -12.95 127.9 -13.05 126.85 -13.95 126.1 -14.8 125.45 -15.9 125.6 -16.95 125.7 -17.65 126.55 -18.3 127.45 -18.2 128.5" fill="#c8e6b3" fill-rule="evenodd" stroke="none"/>
    <path d="M3.55 111.8 Q4.5 109.3 5.8 107.05 L7.6 104.55 Q12.95 97.6 20.25 96.6 L22.7 96.45 Q28.1 96.45 32.6 99.5 17.05 99.4 3.55 111.8 M32.6 149.1 Q29.7 151.15 26.3 151.8 L22.7 152.2 Q13.8 152.2 7.6 144.0 L5.8 141.5 4.6 139.25 Q20.25 151.7 32.6 149.1" fill="#5e7a30" fill-rule="evenodd" stroke="none"/>
    <path d="M3.55 111.8 Q17.05 99.4 32.6 99.5 35.4 101.4 37.8 104.55 44.1 112.7 44.1 124.3 44.1 135.9 37.8 144.0 35.4 147.15 32.6 149.1 20.25 151.7 4.6 139.25 1.3 132.65 1.2 124.3 1.25 117.4 3.55 111.8" fill="#668635" fill-rule="evenodd" stroke="none"/>
    <path d="M32.7 157.85 Q16.45 126.7 27.75 85.95 L29.3 84.5 29.4 85.65 Q18.1 126.4 34.35 157.6 L34.5 158.85 32.7 157.85" fill="#628033" fill-rule="evenodd" stroke="none"/>
    <path d="M29.3 84.5 Q30.6 83.4 32.05 82.5 L33.25 81.7 Q34.0 81.25 34.9 80.85 40.25 78.1 46.55 78.1 54.05 78.1 60.3 82.0 62.7 83.45 64.85 85.5 L65.3 85.95 Q67.35 87.85 69.25 90.3 78.65 102.5 78.65 119.9 78.65 134.0 72.45 144.8 L69.25 149.5 Q66.55 153.0 63.55 155.55 56.05 161.8 46.55 161.8 L44.35 161.75 44.3 161.75 42.6 161.55 41.5 161.35 Q37.8 160.6 34.5 158.85 L34.35 157.6 Q18.1 126.4 29.4 85.65 L29.3 84.5" fill="#7da541" fill-rule="evenodd" stroke="none"/>
    <path d="M32.7 157.85 Q28.95 155.45 25.65 151.7 L23.8 149.5 21.2 145.8 19.0 141.75 Q14.4 132.05 14.35 119.9 14.35 117.9 14.5 116.05 14.65 113.05 15.2 110.3 16.3 103.7 19.05 98.0 20.0 95.95 21.2 94.0 L23.8 90.3 Q25.75 87.85 27.75 85.95 16.45 126.7 32.7 157.85" fill="#87b123" fill-rule="evenodd" stroke="none"/>
    <path d="M21.2 103.0 Q20.45 103.0 19.9 102.45 19.35 101.9 19.35 101.15 19.35 100.4 19.9 99.85 20.45 99.25 21.2 99.25 21.95 99.25 22.5 99.85 23.05 100.4 23.05 101.15 23.05 101.9 22.5 102.45 21.95 103.0 21.2 103.0" fill="#ffffff" fill-rule="evenodd" stroke="none"/>
    <path d="M23.05 102.1 Q23.05 102.85 22.5 103.4 21.95 103.95 21.2 103.95 20.45 103.95 19.9 103.4 19.35 102.85 19.35 102.1 19.35 101.35 19.9 100.8 20.45 100.2 21.2 100.2 21.95 100.2 22.5 100.8 23.05 101.35 23.05 102.1" fill="#415423" fill-rule="evenodd" stroke="none"/>
    <path d="M18.65 120.0 Q17.9 120.0 17.35 119.45 16.8 118.9 16.8 118.15 16.8 117.4 17.35 116.85 17.9 116.25 18.65 116.25 19.4 116.25 19.95 116.85 20.5 117.4 20.5 118.15 20.5 118.9 19.95 119.45 19.4 120.0 18.65 120.0" fill="#ffffff" fill-rule="evenodd" stroke="none"/>
    <path d="M18.65 120.95 Q17.9 120.95 17.35 120.4 16.8 119.85 16.8 119.1 16.8 118.35 17.35 117.8 17.9 117.2 18.65 117.2 19.4 117.2 19.95 117.8 20.5 118.35 20.5 119.1 20.5 119.85 19.95 120.4 19.4 120.95 18.65 120.95" fill="#415423" fill-rule="evenodd" stroke="none"/>
    <path d="M21.6 139.85 Q20.85 139.85 20.3 139.3 19.75 138.75 19.75 138.0 19.75 137.25 20.3 136.7 20.85 136.1 21.6 136.1 22.35 136.1 22.9 136.7 23.45 137.25 23.45 138.0 23.45 138.75 22.9 139.3 22.35 139.85 21.6 139.85" fill="#ffffff" fill-rule="evenodd" stroke="none"/>
    <path d="M21.6 140.7 Q20.85 140.7 20.3 140.15 19.75 139.6 19.75 138.85 19.75 138.1 20.3 137.55 20.85 136.95 21.6 136.95 22.35 136.95 22.9 137.55 23.45 138.1 23.45 138.85 23.45 139.6 22.9 140.15 22.35 140.7 21.6 140.7" fill="#415423" fill-rule="evenodd" stroke="none"/>
    <path d="M32.15 117.3 L32.15 117.25 Q32.1 100.6 38.15 86.3 39.15 83.8 40.4 81.4 43.6 75.2 47.85 69.55 L47.95 69.55 50.95 65.8 Q54.25 61.9 58.2 58.25 L60.95 55.75 Q79.4 39.6 103.2 35.3 L104.65 35.05 116.2 33.9 119.8 33.8 120.55 33.8 121.15 33.8 123.9 33.85 Q146.6 34.35 165.15 44.4 L168.05 46.05 Q175.7 50.55 182.65 56.9 L184.1 58.25 Q188.5 62.35 192.15 66.75 L195.9 71.65 Q199.6 76.8 201.85 81.4 L203.9 86.3 Q210.15 102.0 210.15 117.25 L210.15 117.3 209.9 124.55 209.8 125.0 Q208.0 144.75 197.2 160.95 L192.4 167.4 191.6 168.35 190.75 169.4 187.55 172.8 182.75 177.55 181.0 179.05 179.85 180.05 180.05 179.8 177.95 181.6 175.55 183.35 169.1 187.8 Q168.2 188.25 167.4 188.75 L164.05 190.6 162.2 191.55 Q154.65 195.25 146.4 197.45 L142.65 198.4 140.6 198.9 140.6 199.25 Q121.8 203.35 103.05 199.25 L103.0 199.05 100.25 198.5 Q90.75 196.5 82.15 192.5 L80.3 191.65 76.75 189.8 Q71.55 186.95 66.65 183.35 L62.45 180.05 58.2 176.2 57.8 175.85 54.0 172.05 52.0 169.85 48.65 165.85 48.4 165.5 Q45.95 162.35 43.9 159.1 34.1 143.6 32.65 126.85 L32.5 124.55 Q32.1 120.15 32.15 117.4 L32.25 117.25 32.15 117.3" fill="#9dcf27" fill-rule="evenodd" stroke="none"/>
    <path d="M32.15 117.4 L32.15 117.3 32.25 117.25 32.15 117.4" fill="url(#gradient0)" fill-rule="evenodd" stroke="none"/>
    <path d="M167.8 45.85 Q175.45 50.45 182.45 56.75 L183.85 58.05 Q188.2 62.15 191.9 66.6 L195.65 71.45 Q199.35 76.6 201.6 81.25 L203.65 86.2 Q209.9 101.85 209.9 117.05 L209.9 117.15 209.65 124.4 209.55 124.85 Q209.0 130.85 207.65 136.6 L207.95 133.6 208.05 133.15 208.25 125.9 208.25 125.8 Q208.25 110.6 202.0 94.95 L199.95 90.05 Q197.7 85.4 194.05 80.2 L190.3 75.4 Q186.6 70.95 182.25 66.85 L180.8 65.55 Q173.8 59.2 166.2 54.65 L163.25 53.0 Q144.7 42.95 122.05 42.45 L119.3 42.4 118.7 42.4 117.9 42.4 114.3 42.5 102.75 43.65 101.35 43.9 Q77.55 48.2 59.05 64.4 L56.3 66.85 Q52.4 70.5 49.05 74.45 L46.1 78.15 46.0 78.15 Q41.7 83.85 38.5 90.05 37.25 92.4 36.3 94.95 33.95 100.4 32.6 106.1 33.9 95.65 37.9 86.2 38.9 83.65 40.15 81.25 43.35 75.05 47.65 69.35 L47.7 69.35 Q49.05 67.45 50.7 65.65 54.0 61.7 57.9 58.05 L60.65 55.6 Q79.15 39.45 102.95 35.1 L104.35 34.85 115.95 33.75 119.55 33.6 120.3 33.6 120.95 33.6 123.65 33.7 Q146.35 34.15 164.9 44.25 L167.8 45.85" fill="#679735" fill-rule="evenodd" stroke="none"/>
    <path d="M175.0 75.4 Q175.5 75.9 175.5 76.65 175.5 77.4 175.0 77.95 174.5 78.45 173.75 78.45 173.0 78.45 172.55 77.95 172.0 77.4 172.0 76.65 172.0 75.9 172.55 75.4 173.0 74.9 173.75 74.9 174.5 74.9 175.0 75.4" fill="#9dcf27" fill-rule="evenodd" stroke="none"/>
    <path d="M133.45 48.25 Q128.6 51.75 121.7 51.75 114.85 51.75 109.95 48.25 105.1 44.7 105.1 39.75 105.1 34.8 109.95 31.3 114.85 27.8 121.7 27.8 128.6 27.8 133.45 31.3 138.35 34.8 138.35 39.75 138.35 44.7 133.45 48.25" fill="#def482" fill-rule="evenodd" stroke="none"/>
    <path d="M133.45 48.25 Q128.6 51.75 121.7 51.75 114.85 51.75 109.95 48.25 105.1 44.7 105.1 39.75 105.1 34.8 109.95 31.3 114.85 27.8 121.7 27.8 128.6 27.8 133.45 31.3 138.35 34.8 138.35 39.75 138.35 44.7 133.45 48.25 Z" fill="none" stroke="#2e442b" stroke-linecap="round" stroke-linejoin="round" stroke-width="0.1"/>
    <path d="M121.2 -31.2 L121.4 -32.9 121.9 -36.0 134.2 31.95 135.15 39.6 Q133.9 42.45 130.1 44.0 128.6 44.55 126.95 44.9 L121.2 -31.2" fill="#cccccc" fill-rule="evenodd" stroke="none"/>
    <path d="M121.4 -32.9 L121.2 -31.2 113.15 43.45 Q110.0 42.0 108.95 39.6 L109.75 31.5 121.4 -32.9" fill="#999999" fill-rule="evenodd" stroke="none"/>
    <path d="M121.2 -31.2 L126.95 44.9 122.05 45.35 Q117.55 45.3 114.0 43.85 L113.15 43.45 121.2 -31.2" fill="#c4c4c4" fill-rule="evenodd" stroke="none"/>
    <path d="M123.3 52.1 Q130.15 52.1 135.05 55.9 139.9 59.65 139.9 65.0 139.9 70.3 135.05 74.1 130.15 77.85 123.3 77.85 116.4 77.85 111.5 74.1 106.65 70.3 106.65 65.0 106.65 59.65 111.5 55.9 116.4 52.1 123.3 52.1" fill="#def482" fill-rule="evenodd" stroke="none"/>
    <path d="M123.3 52.1 Q130.15 52.1 135.05 55.9 139.9 59.65 139.9 65.0 139.9 70.3 135.05 74.1 130.15 77.85 123.3 77.85 116.4 77.85 111.5 74.1 106.65 70.3 106.65 65.0 106.65 59.65 111.5 55.9 116.4 52.1 123.3 52.1 Z" fill="none" stroke="#2e442b" stroke-linecap="round" stroke-linejoin="round" stroke-width="0.1"/>
    <path d="M122.75 39.75 L122.8 39.6 122.75 39.65 122.75 39.45 122.8 39.55 135.1 55.95 135.95 58.5 Q138.55 70.95 128.45 73.0 L126.75 73.45 122.75 39.75 M122.8 39.6 L122.8 39.55 122.8 39.6" fill="#e1e1e1" fill-rule="evenodd" stroke="none"/>
    <path d="M122.75 39.75 L122.75 39.65 122.8 39.6 122.75 39.75 126.75 73.45 Q119.3 74.8 113.05 69.6 L122.75 39.75" fill="#d5d5d5" fill-rule="evenodd" stroke="none"/>
    <path d="M122.75 39.65 L122.75 39.75 113.05 69.6 112.2 68.9 Q108.3 64.0 110.75 58.5 L111.85 55.7 122.75 39.65" fill="#b3b3b3" fill-rule="evenodd" stroke="none"/>
    <path d="M122.8 39.6 L122.75 39.65 M122.8 39.55 L135.1 55.95 M111.85 55.7 L122.75 39.65 M122.8 39.55 L122.8 39.6 Z" fill="none" stroke="#2e442b" stroke-linecap="round" stroke-linejoin="round" stroke-width="0.05"/>
  </g>
  <defs>
    <radialGradient cx="0" cy="0" gradientTransform="matrix(0.1078, 0.0, 0.0, 0.1091, 119.55, 119.6)" gradientUnits="userSpaceOnUse" id="gradient0" r="819.2" spreadMethod="pad">
      <stop offset="0.0" stop-color="#e7e7e7"/>
      <stop offset="0.7215686274509804" stop-color="#999999"/>
      <stop offset="0.9882352941176471" stop-color="#626262"/>
    </radialGradient>
  </defs>
</svg>
