<?xml version="1.0" encoding="UTF-8" standalone="no"?>
<svg xmlns:xlink="http://www.w3.org/1999/xlink" height="66.7px" width="32.9px" xmlns="http://www.w3.org/2000/svg">
  <g transform="matrix(1.0, 0.0, 0.0, 1.0, 2.4, 16.8)">
    <path d="M6.1 -11.4 Q1.5 -8.25 0.8 -2.8 -0.05 2.35 2.65 6.7 L2.55 6.75 2.7 7.15 5.3 12.95 Q6.25 12.45 7.9 12.4 L11.4 13.25 16.1 14.55 18.0 16.25 20.4 13.05 22.1 10.8 22.0 10.6 Q26.55 7.45 27.35 2.0 28.15 -3.5 24.7 -8.0 21.55 -12.5 16.0 -13.6 10.55 -14.55 6.1 -11.4 Z" fill="none" stroke="#001200" stroke-linecap="round" stroke-linejoin="round" stroke-width="6.0"/>
    <path d="M6.15 -11.5 Q10.65 -14.65 16.1 -13.7 21.65 -12.65 24.8 -8.1 28.25 -3.6 27.45 1.85 26.7 7.4 22.0 10.5 20.7 11.45 19.35 12.05 L16.3 12.9 12.1 12.75 Q9.8 12.2 7.9 11.2 L5.1 9.05 3.25 7.25 Q0.0 2.6 0.9 -2.95 1.6 -8.35 6.15 -11.5" fill="#289504" fill-rule="evenodd" stroke="none"/>
    <path d="M24.75 -4.95 Q27.25 -1.55 26.8 2.5 26.2 6.6 22.85 9.05 19.55 11.45 15.5 10.8 11.3 10.1 8.8 6.7 6.25 3.3 6.85 -0.75 7.35 -4.9 10.65 -7.3 14.0 -9.75 18.15 -9.05 22.2 -8.35 24.75 -4.95" fill="#54bb03" fill-rule="evenodd" stroke="none"/>
    <path d="M24.05 -3.45 Q25.15 -1.9 24.9 -0.05 24.65 1.8 23.15 2.85 21.7 3.95 19.85 3.65 18.0 3.35 16.9 1.8 15.75 0.3 16.0 -1.55 16.25 -3.4 17.7 -4.5 19.2 -5.55 21.05 -5.25 22.9 -4.95 24.05 -3.45" fill="#ffffff" fill-opacity="0.69411767" fill-rule="evenodd" stroke="none"/>
    <path d="M20.55 8.65 L22.2 10.65 20.5 12.85 18.1 16.1 16.2 14.4 16.45 14.4 18.25 12.6 18.8 12.0 20.0 9.7 20.55 8.65" fill="#e6e6e6" fill-rule="evenodd" stroke="none"/>
    <path d="M20.55 8.65 L20.0 9.7 18.8 12.0 18.25 12.6 16.45 14.4 16.2 14.4 11.5 13.1 8.05 12.25 6.95 10.05 6.15 7.3 Q5.9 6.25 5.95 5.3 9.05 4.5 12.95 5.25 17.65 6.1 20.55 8.65" fill="#c8c8c8" fill-rule="evenodd" stroke="none"/>
    <path d="M8.05 12.25 Q6.4 12.3 5.45 12.8 L2.8 7.0 2.7 6.6 Q4.2 5.75 5.95 5.3 5.9 6.25 6.15 7.3 L6.95 10.05 8.05 12.25" fill="#a2a2a2" fill-rule="evenodd" stroke="none"/>
    <path d="M15.95 0.05 Q22.05 0.4 27.5 2.65 L27.5 39.75 Q19.6 51.0 11.4 47.6 7.3 45.85 4.75 41.85 L0.0 8.5 Q3.65 -0.75 15.95 0.05" fill="#011e04" fill-rule="evenodd" stroke="none"/>
    <path d="M15.95 0.05 Q3.65 -0.75 0.0 8.5 L4.75 41.85 Q7.3 45.85 11.4 47.6 19.6 51.0 27.5 39.75 L27.5 2.65 Q22.05 0.4 15.95 0.05 Z" fill="none" stroke="#001200" stroke-linecap="round" stroke-linejoin="round" stroke-width="3.0"/>
  </g>
</svg>
