<?xml version="1.0" encoding="UTF-8" standalone="no"?>
<svg xmlns:xlink="http://www.w3.org/1999/xlink" height="23.7px" width="200.75px" xmlns="http://www.w3.org/2000/svg">
  <g transform="matrix(1.0, 0.0, 0.0, 1.0, -0.25, -0.25)">
    <path d="M192.3 3.5 L188.95 9.4 188.95 3.5 183.55 3.5 182.35 8.75 183.55 8.75 183.55 20.95 188.95 20.95 188.95 14.85 192.3 20.95 198.5 20.95 193.5 11.95 198.15 3.5 192.3 3.5 M181.7 3.5 L176.35 3.5 176.35 14.2 Q176.35 15.9 174.5 15.9 173.8 15.9 173.35 15.5 172.9 15.1 172.9 14.45 L172.9 3.5 167.5 3.5 166.3 8.75 167.5 8.75 167.5 15.15 Q167.5 17.45 169.05 19.15 170.9 21.25 174.35 21.25 177.55 21.25 179.6 19.7 181.7 17.95 181.7 14.8 L181.7 3.5 M163.0 15.7 L161.85 15.85 Q161.35 16.15 160.95 16.5 L160.3 17.4 Q160.05 18.0 160.1 18.55 160.05 19.2 160.3 19.7 L160.95 20.6 161.85 21.25 163.0 21.45 Q164.15 21.4 165.05 20.6 165.9 19.75 165.9 18.55 165.9 17.35 165.05 16.55 164.15 15.65 163.0 15.7 M142.95 6.1 Q140.5 8.7 140.5 11.95 L140.5 12.5 Q140.65 16.3 143.2 18.65 145.9 21.2 150.05 21.2 154.1 21.2 156.8 18.3 159.1 15.7 159.1 12.65 L159.1 12.5 Q159.05 8.65 156.45 5.9 153.85 3.15 149.95 3.15 145.75 3.15 142.95 6.1 M149.9 8.75 Q151.4 8.7 152.35 9.75 153.3 10.85 153.3 12.3 L153.3 12.5 153.0 13.65 152.35 14.75 151.3 15.45 149.9 15.75 148.45 15.5 147.3 14.75 146.5 13.65 146.3 12.5 146.3 12.25 Q146.25 10.75 147.3 9.7 148.45 8.7 149.9 8.75 M135.65 9.05 L137.3 10.2 139.85 4.45 135.5 2.75 135.15 3.35 134.05 3.25 133.0 3.15 Q129.15 3.15 126.6 6.5 124.4 9.25 124.45 12.3 L124.45 12.5 Q124.5 16.1 127.15 18.6 129.85 21.15 133.65 21.15 137.2 21.15 139.6 18.95 L137.25 14.0 Q135.55 15.75 133.8 15.75 L132.3 15.45 Q131.65 15.15 131.15 14.7 L130.4 13.5 130.15 12.5 130.15 12.0 Q130.1 10.6 131.2 9.55 132.35 8.55 133.8 8.55 134.55 8.55 135.65 9.05 M120.7 15.7 L119.55 15.85 118.65 16.5 Q118.2 16.9 118.0 17.4 L117.75 18.55 118.0 19.7 118.65 20.6 119.55 21.25 120.7 21.45 Q121.85 21.4 122.7 20.6 123.55 19.75 123.6 18.55 123.55 17.35 122.7 16.55 121.85 15.65 120.7 15.7 M111.6 3.35 L110.85 3.25 110.4 3.25 109.6 3.25 Q107.0 3.2 105.45 4.6 103.75 6.05 103.75 8.65 103.7 11.1 105.5 12.5 L105.6 12.55 Q106.6 13.3 108.95 14.15 110.8 14.7 110.8 15.35 110.8 16.15 109.65 16.15 L107.3 15.6 105.05 14.65 103.7 19.65 Q106.7 21.3 109.7 21.3 112.65 21.3 114.5 19.8 116.5 18.15 116.5 15.35 116.5 13.7 115.7 12.5 L114.7 11.5 Q113.65 10.75 111.4 9.9 109.6 9.25 109.6 8.75 109.6 7.9 110.8 7.9 111.5 7.9 112.8 8.4 114.0 8.75 114.8 9.25 L116.35 3.65 111.8 2.75 111.6 3.35 M103.0 2.8 L98.15 2.8 97.95 3.5 90.75 3.5 89.6 8.85 90.75 8.85 90.75 20.95 101.15 20.95 102.4 15.55 96.15 15.55 96.15 14.45 101.3 14.45 102.55 10.0 96.15 10.0 96.15 9.0 101.6 9.0 103.0 2.8 M83.55 3.5 L80.65 7.25 77.5 3.5 72.05 3.5 70.85 8.9 72.05 8.9 72.05 20.95 77.45 20.95 77.45 11.6 80.75 15.05 83.85 11.3 83.85 20.95 88.85 20.95 88.85 3.5 83.55 3.5 M65.85 20.95 L71.55 20.95 66.65 3.5 58.0 3.5 56.35 8.25 57.55 8.25 54.15 20.95 59.75 20.95 60.45 18.55 65.3 18.55 65.85 20.95 M61.55 14.0 L62.9 8.85 64.25 14.0 61.55 14.0 M47.25 9.25 L48.2 9.7 52.05 5.55 48.25 3.5 47.9 3.8 Q46.75 3.1 45.0 3.1 41.8 3.1 39.15 5.55 36.1 8.25 36.1 12.1 L36.1 12.5 Q36.25 16.25 38.8 18.65 41.45 21.25 45.45 21.25 49.1 21.25 51.75 18.45 54.2 15.9 54.35 12.5 L54.4 11.95 54.4 11.65 54.35 11.25 54.3 10.2 46.15 10.2 45.0 14.7 47.85 14.7 Q46.95 15.9 45.5 15.9 43.8 15.9 42.7 15.0 41.6 14.05 41.55 12.5 L41.55 12.4 Q41.55 10.85 42.6 9.8 43.65 8.75 45.2 8.8 46.1 8.75 47.25 9.25 M30.55 3.5 L28.8 7.4 27.1 3.5 21.0 3.5 26.15 13.15 26.15 20.95 31.55 20.95 31.55 13.15 36.55 3.5 30.55 3.5 M20.75 3.5 L15.45 3.5 12.6 7.25 9.45 3.5 3.95 3.5 2.75 8.9 3.95 8.9 3.95 20.95 9.35 20.95 9.35 11.6 12.65 15.05 15.75 11.3 15.75 20.95 20.75 20.95 20.75 3.5" fill="none" stroke="#000000" stroke-linecap="round" stroke-linejoin="round" stroke-width="5.0"/>
    <path d="M192.3 3.5 L188.95 9.4 188.95 3.5 183.55 3.5 182.35 8.75 183.55 8.75 183.55 20.95 188.95 20.95 188.95 14.85 192.3 20.95 198.5 20.95 193.5 11.95 198.15 3.5 192.3 3.5 M181.7 3.5 L176.35 3.5 176.35 14.2 Q176.35 15.9 174.5 15.9 173.8 15.9 173.35 15.5 172.9 15.1 172.9 14.45 L172.9 3.5 167.5 3.5 166.3 8.75 167.5 8.75 167.5 15.15 Q167.5 17.45 169.05 19.15 170.9 21.25 174.35 21.25 177.55 21.25 179.6 19.7 181.7 17.95 181.7 14.8 L181.7 3.5 M163.0 15.7 L161.85 15.85 Q161.35 16.15 160.95 16.5 L160.3 17.4 Q160.05 18.0 160.1 18.55 160.05 19.2 160.3 19.7 L160.95 20.6 161.85 21.25 163.0 21.45 Q164.15 21.4 165.05 20.6 165.9 19.75 165.9 18.55 165.9 17.35 165.05 16.55 164.15 15.65 163.0 15.7 M142.95 6.1 Q140.5 8.7 140.5 11.95 L140.5 12.5 Q140.65 16.3 143.2 18.65 145.9 21.2 150.05 21.2 154.1 21.2 156.8 18.3 159.1 15.7 159.1 12.65 L159.1 12.5 Q159.05 8.65 156.45 5.9 153.85 3.15 149.95 3.15 145.75 3.15 142.95 6.1 M149.9 8.75 Q151.4 8.7 152.35 9.75 153.3 10.85 153.3 12.3 L153.3 12.5 153.0 13.65 152.35 14.75 151.3 15.45 149.9 15.75 148.45 15.5 147.3 14.75 146.5 13.65 146.3 12.5 146.3 12.25 Q146.25 10.75 147.3 9.7 148.45 8.7 149.9 8.75 M135.65 9.05 L137.3 10.2 139.85 4.45 135.5 2.75 135.15 3.35 134.05 3.25 133.0 3.15 Q129.15 3.15 126.6 6.5 124.4 9.25 124.45 12.3 L124.45 12.5 Q124.5 16.1 127.15 18.6 129.85 21.15 133.65 21.15 137.2 21.15 139.6 18.95 L137.25 14.0 Q135.55 15.75 133.8 15.75 L132.3 15.45 Q131.65 15.15 131.15 14.7 L130.4 13.5 130.15 12.5 130.15 12.0 Q130.1 10.6 131.2 9.55 132.35 8.55 133.8 8.55 134.55 8.55 135.65 9.05 M120.7 15.7 L119.55 15.85 118.65 16.5 Q118.2 16.9 118.0 17.4 L117.75 18.55 118.0 19.7 118.65 20.6 119.55 21.25 120.7 21.45 Q121.85 21.4 122.7 20.6 123.55 19.75 123.6 18.55 123.55 17.35 122.7 16.55 121.85 15.65 120.7 15.7 M111.6 3.35 L110.85 3.25 110.4 3.25 109.6 3.25 Q107.0 3.2 105.45 4.6 103.75 6.05 103.75 8.65 103.7 11.1 105.5 12.5 L105.6 12.55 Q106.6 13.3 108.95 14.15 110.8 14.7 110.8 15.35 110.8 16.15 109.65 16.15 L107.3 15.6 105.05 14.65 103.7 19.65 Q106.7 21.3 109.7 21.3 112.65 21.3 114.5 19.8 116.5 18.15 116.5 15.35 116.5 13.7 115.7 12.5 L114.7 11.5 Q113.65 10.75 111.4 9.9 109.6 9.25 109.6 8.75 109.6 7.9 110.8 7.9 111.5 7.9 112.8 8.4 114.0 8.75 114.8 9.25 L116.35 3.65 111.8 2.75 111.6 3.35 M103.0 2.8 L98.15 2.8 97.95 3.5 90.75 3.5 89.6 8.85 90.75 8.85 90.75 20.95 101.15 20.95 102.4 15.55 96.15 15.55 96.15 14.45 101.3 14.45 102.55 10.0 96.15 10.0 96.15 9.0 101.6 9.0 103.0 2.8 M83.55 3.5 L80.65 7.25 77.5 3.5 72.05 3.5 70.85 8.9 72.05 8.9 72.05 20.95 77.45 20.95 77.45 11.6 80.75 15.05 83.85 11.3 83.85 20.95 88.85 20.95 88.85 3.5 83.55 3.5 M65.85 20.95 L71.55 20.95 66.65 3.5 58.0 3.5 56.35 8.25 57.55 8.25 54.15 20.95 59.75 20.95 60.45 18.55 65.3 18.55 65.85 20.95 M61.55 14.0 L62.9 8.85 64.25 14.0 61.55 14.0 M47.25 9.25 L48.2 9.7 52.05 5.55 48.25 3.5 47.9 3.8 Q46.75 3.1 45.0 3.1 41.8 3.1 39.15 5.55 36.1 8.25 36.1 12.1 L36.1 12.5 Q36.25 16.25 38.8 18.65 41.45 21.25 45.45 21.25 49.1 21.25 51.75 18.45 54.2 15.9 54.35 12.5 L54.4 11.95 54.4 11.65 54.35 11.25 54.3 10.2 46.15 10.2 45.0 14.7 47.85 14.7 Q46.95 15.9 45.5 15.9 43.8 15.9 42.7 15.0 41.6 14.05 41.55 12.5 L41.55 12.4 Q41.55 10.85 42.6 9.8 43.65 8.75 45.2 8.8 46.1 8.75 47.25 9.25 M30.55 3.5 L28.8 7.4 27.1 3.5 21.0 3.5 26.15 13.15 26.15 20.95 31.55 20.95 31.55 13.15 36.55 3.5 30.55 3.5 M20.75 3.5 L15.45 3.5 12.6 7.25 9.45 3.5 3.95 3.5 2.75 8.9 3.95 8.9 3.95 20.95 9.35 20.95 9.35 11.6 12.65 15.05 15.75 11.3 15.75 20.95 20.75 20.95 20.75 3.5" fill="none" stroke="#ffffff" stroke-linecap="round" stroke-linejoin="round" stroke-width="3.0"/>
    <path d="M20.75 3.5 L20.75 20.95 15.75 20.95 15.75 11.3 12.65 15.05 9.35 11.6 9.35 20.95 3.95 20.95 3.95 8.9 2.75 8.9 3.95 3.5 9.45 3.5 12.6 7.25 15.45 3.5 20.75 3.5 M30.55 3.5 L36.55 3.5 31.55 13.15 31.55 20.95 26.15 20.95 26.15 13.15 21.0 3.5 27.1 3.5 28.8 7.4 30.55 3.5 M45.2 8.8 Q43.65 8.75 42.6 9.8 41.55 10.85 41.55 12.4 41.55 14.0 42.7 15.0 43.8 15.9 45.5 15.9 46.95 15.9 47.85 14.7 L45.0 14.7 46.15 10.2 54.3 10.2 54.35 11.25 54.4 11.65 54.4 11.95 Q54.4 15.65 51.75 18.45 49.1 21.25 45.45 21.25 41.45 21.25 38.8 18.65 36.1 16.1 36.1 12.1 36.1 8.25 39.15 5.55 41.8 3.1 45.0 3.1 46.75 3.1 47.9 3.8 L48.25 3.5 52.05 5.55 48.2 9.7 47.25 9.25 Q46.1 8.75 45.2 8.8 M61.55 14.0 L64.25 14.0 62.9 8.85 61.55 14.0 M60.45 18.55 L59.75 20.95 54.15 20.95 57.55 8.25 56.35 8.25 58.0 3.5 66.65 3.5 71.55 20.95 65.85 20.95 65.3 18.55 60.45 18.55 M83.55 3.5 L88.85 3.5 88.85 20.95 83.85 20.95 83.85 11.3 80.75 15.05 77.45 11.6 77.45 20.95 72.05 20.95 72.05 8.9 70.85 8.9 72.05 3.5 77.5 3.5 80.65 7.25 83.55 3.5 M103.0 2.8 L101.6 9.0 96.15 9.0 96.15 10.0 102.55 10.0 101.3 14.45 96.15 14.45 96.15 15.55 102.4 15.55 101.15 20.95 90.75 20.95 90.75 8.85 89.6 8.85 90.75 3.5 97.95 3.5 98.15 2.8 103.0 2.8 M111.6 3.35 L111.8 2.75 116.35 3.65 114.8 9.25 Q114.0 8.75 112.8 8.4 111.5 7.9 110.8 7.9 109.6 7.9 109.6 8.75 109.6 9.25 111.4 9.9 113.65 10.75 114.7 11.5 116.5 12.9 116.5 15.35 116.5 18.15 114.5 19.8 112.65 21.3 109.7 21.3 106.7 21.3 103.7 19.65 L105.05 14.65 107.3 15.6 109.65 16.15 Q110.8 16.15 110.8 15.35 110.8 14.7 108.95 14.15 106.6 13.3 105.6 12.55 103.75 11.15 103.75 8.65 103.75 6.05 105.45 4.6 107.0 3.2 109.6 3.25 L110.4 3.25 110.85 3.25 111.6 3.35 M120.7 15.7 Q121.85 15.65 122.7 16.55 123.55 17.35 123.6 18.55 123.55 19.75 122.7 20.6 121.85 21.4 120.7 21.45 L119.55 21.25 118.65 20.6 118.0 19.7 117.75 18.55 118.0 17.4 Q118.2 16.9 118.65 16.5 L119.55 15.85 120.7 15.7 M137.3 10.2 L135.65 9.05 Q134.55 8.55 133.8 8.55 132.35 8.55 131.2 9.55 130.1 10.6 130.15 12.0 130.1 12.8 130.4 13.5 L131.15 14.7 Q131.65 15.15 132.3 15.45 L133.8 15.75 Q135.55 15.75 137.25 14.0 L139.6 18.95 Q137.2 21.15 133.65 21.15 129.85 21.15 127.15 18.6 124.4 16.0 124.45 12.3 124.4 9.25 126.6 6.5 129.15 3.15 133.0 3.15 L134.05 3.25 135.15 3.35 135.5 2.75 139.85 4.45 137.3 10.2 M149.9 8.75 Q148.45 8.7 147.3 9.7 146.25 10.75 146.3 12.25 146.25 12.95 146.5 13.65 L147.3 14.75 148.45 15.5 149.9 15.75 151.3 15.45 152.35 14.75 153.0 13.65 153.3 12.3 Q153.3 10.85 152.35 9.75 151.4 8.7 149.9 8.75 M142.95 6.1 Q145.75 3.15 149.95 3.15 153.85 3.15 156.45 5.9 159.1 8.7 159.1 12.65 159.1 15.7 156.8 18.3 154.1 21.2 150.05 21.2 145.9 21.2 143.2 18.65 140.45 16.1 140.5 11.95 140.5 8.7 142.95 6.1 M161.85 15.85 L163.0 15.7 Q164.15 15.65 165.05 16.55 165.9 17.35 165.9 18.55 165.9 19.75 165.05 20.6 164.15 21.4 163.0 21.45 L161.85 21.25 160.95 20.6 160.3 19.7 Q160.05 19.2 160.1 18.55 160.05 18.0 160.3 17.4 L160.95 16.5 Q161.35 16.15 161.85 15.85 M181.7 3.5 L181.7 14.8 Q181.7 17.95 179.6 19.7 177.55 21.25 174.35 21.25 170.9 21.25 169.05 19.15 167.5 17.45 167.5 15.15 L167.5 8.75 166.3 8.75 167.5 3.5 172.9 3.5 172.9 14.45 Q172.9 15.1 173.35 15.5 173.8 15.9 174.5 15.9 176.35 15.9 176.35 14.2 L176.35 3.5 181.7 3.5 M192.3 3.5 L198.15 3.5 193.5 11.95 198.5 20.95 192.3 20.95 188.95 14.85 188.95 20.95 183.55 20.95 183.55 8.75 182.35 8.75 183.55 3.5 188.95 3.5 188.95 9.4 192.3 3.5" fill="url(#gradient0)" fill-rule="evenodd" stroke="none"/>
  </g>
  <defs>
    <linearGradient gradientTransform="matrix(0.0, 0.0101, -0.1195, 0.0, 100.6, 12.25)" gradientUnits="userSpaceOnUse" id="gradient0" spreadMethod="pad" x1="-819.2" x2="819.2">
      <stop offset="0.0" stop-color="#ffc234"/>
      <stop offset="0.7215686274509804" stop-color="#ff3930"/>
    </linearGradient>
  </defs>
</svg>
