<?xml version="1.0" encoding="UTF-8" standalone="no"?>
<svg xmlns:xlink="http://www.w3.org/1999/xlink" height="13.65px" width="4.1px" xmlns="http://www.w3.org/2000/svg">
  <g transform="matrix(1.0, 0.0, 0.0, 1.0, 0.0, 0.0)">
    <path d="M1.0 0.15 L2.9 0.05 3.55 6.55 0.65 6.6 1.0 0.15" fill="#ca8557" fill-rule="evenodd" stroke="none"/>
    <path d="M2.9 0.05 L3.5 0.2 4.1 6.55 3.55 6.55 2.9 0.05" fill="#9b5a31" fill-rule="evenodd" stroke="none"/>
    <path d="M0.65 6.6 L0.05 6.6 0.5 0.2 1.0 0.15 0.65 6.6" fill="#95572f" fill-rule="evenodd" stroke="none"/>
    <path d="M3.35 9.75 L3.35 13.6 0.85 13.6 0.85 9.75 Q1.55 9.15 2.7 9.35 L3.35 9.75" fill="#eaeaea" fill-rule="evenodd" stroke="none"/>
    <path d="M3.3 9.8 L3.3 13.65 2.8 13.65 2.75 9.5 3.3 9.8" fill="#d0d0d0" fill-rule="evenodd" stroke="none"/>
    <path d="M1.3 9.4 L1.4 13.65 0.9 13.65 0.9 9.8 1.3 9.4" fill="#d0d0d0" fill-rule="evenodd" stroke="none"/>
    <path d="M2.0 11.75 Q0.1 11.95 0.0 10.5 L0.0 6.55 Q1.85 4.6 4.1 6.55 L4.1 10.5 Q3.95 11.9 2.0 11.75" fill="#412514" fill-rule="evenodd" stroke="none"/>
    <path d="M3.35 7.5 L3.35 11.35 0.85 11.35 0.85 7.5 Q1.55 6.9 2.7 7.1 L3.35 7.5" fill="#eaeaea" fill-rule="evenodd" stroke="none"/>
    <path d="M3.3 7.55 L3.3 11.4 2.8 11.4 2.75 7.25 3.3 7.55" fill="#d0d0d0" fill-rule="evenodd" stroke="none"/>
    <path d="M1.3 7.15 L1.4 11.4 0.9 11.4 0.9 7.55 1.3 7.15" fill="#d0d0d0" fill-rule="evenodd" stroke="none"/>
    <path d="M3.15 12.15 Q2.7 12.55 2.1 12.55 1.5 12.55 1.1 12.15 0.65 11.75 0.65 11.2 0.65 10.65 1.1 10.25 1.5 9.85 2.1 9.85 2.7 9.85 3.15 10.25 3.55 10.65 3.55 11.2 3.55 11.75 3.15 12.15" fill="#222222" fill-rule="evenodd" stroke="none"/>
    <path d="M3.65 1.05 L3.65 2.05 Q2.15 1.55 0.4 2.05 L0.4 1.05 Q2.05 0.35 3.65 1.05" fill="#95572f" fill-rule="evenodd" stroke="none"/>
  </g>
</svg>
