<?xml version="1.0" encoding="UTF-8" standalone="no"?>
<svg xmlns:xlink="http://www.w3.org/1999/xlink" height="6.9px" width="12.4px" xmlns="http://www.w3.org/2000/svg">
  <g transform="matrix(1.0, 0.0, 0.0, 1.0, 0.0, 0.0)">
    <path d="M10.6 5.9 Q8.8 6.9 6.2 6.9 3.55 6.9 1.75 5.9 0.0 4.9 0.0 3.45 0.0 2.0 1.75 1.0 3.55 0.0 6.2 0.0 8.8 0.0 10.6 1.0 12.4 2.0 12.4 3.45 12.4 4.9 10.6 5.9" fill="url(#gradient0)" fill-rule="evenodd" stroke="none"/>
    <path d="M10.6 5.9 Q8.8 6.9 6.2 6.9 3.55 6.9 1.75 5.9 0.0 4.9 0.0 3.45 0.0 2.0 1.75 1.0 3.55 0.0 6.2 0.0 8.8 0.0 10.6 1.0 12.4 2.0 12.4 3.45 12.4 4.9 10.6 5.9" fill="url(#gradient1)" fill-rule="evenodd" stroke="none"/>
  </g>
  <defs>
    <radialGradient cx="0" cy="0" gradientTransform="matrix(0.0063, 0.0, 0.0, 0.0035, 6.2, 3.45)" gradientUnits="userSpaceOnUse" id="gradient0" r="819.2" spreadMethod="pad">
      <stop offset="0.20392156862745098" stop-color="#ffd52b"/>
      <stop offset="0.5019607843137255" stop-color="#ffb366"/>
      <stop offset="0.7686274509803922" stop-color="#ff6666"/>
      <stop offset="1.0" stop-color="#ff6666" stop-opacity="0.0"/>
    </radialGradient>
    <radialGradient cx="0" cy="0" gradientTransform="matrix(0.0063, 0.0, 0.0, 0.0035, 6.2, 3.45)" gradientUnits="userSpaceOnUse" id="gradient1" r="819.2" spreadMethod="pad">
      <stop offset="0.20392156862745098" stop-color="#ffd52b"/>
      <stop offset="0.5019607843137255" stop-color="#ffb366"/>
      <stop offset="0.7686274509803922" stop-color="#ff6666"/>
      <stop offset="1.0" stop-color="#ff6666" stop-opacity="0.0"/>
    </radialGradient>
  </defs>
</svg>
