<?xml version="1.0" encoding="UTF-8" standalone="no"?>
<svg xmlns:xlink="http://www.w3.org/1999/xlink" height="15.15px" width="7.1px" xmlns="http://www.w3.org/2000/svg">
  <g transform="matrix(1.0, 0.0, 0.0, 1.0, 0.0, 0.0)">
    <path d="M1.6 0.1 L1.9 0.0 2.0 0.0 Q3.25 1.15 4.45 0.9 L6.8 8.9 7.1 11.1 Q7.2 13.0 6.7 14.65 L6.3 15.0 6.0 15.1 5.95 15.15 5.75 15.15 5.65 15.05 5.45 15.0 Q3.35 13.25 2.3 10.3 L1.3 6.9 1.15 6.75 1.25 6.7 0.45 3.8 0.4 3.85 0.4 3.8 0.45 3.7 0.0 2.2 Q1.1 1.8 1.55 0.15 L1.6 0.05 1.6 0.1" fill="#000000" fill-rule="evenodd" stroke="none"/>
    <path d="M1.6 0.1 L1.6 0.05 1.55 0.15 Q1.1 1.8 0.0 2.2 L0.45 3.7 0.4 3.8 0.4 3.85 0.45 3.8 1.25 6.7 1.15 6.75 1.3 6.9 2.3 10.3 Q3.35 13.25 5.45 15.0 L5.65 15.05 5.75 15.15 5.95 15.15 6.0 15.1 6.3 15.0 6.7 14.65 Q7.2 13.0 7.1 11.1 L6.8 8.9 4.45 0.9 Q3.25 1.15 2.0 0.0 L1.9 0.0 1.6 0.1 Z" fill="none" stroke="#440000" stroke-linecap="round" stroke-linejoin="round" stroke-width="0.05"/>
    <path d="M2.6 9.35 L0.9 3.6 0.95 2.75 1.15 2.6 1.15 3.05 2.75 8.75 Q3.5 11.15 4.75 12.45 L5.7 13.25 5.55 13.8 4.6 13.05 Q3.3 11.7 2.6 9.35" fill="#ecbd02" fill-rule="evenodd" stroke="none"/>
    <path d="M0.65 1.95 Q1.3 1.35 1.55 0.15 L1.9 0.0 2.0 0.0 Q3.25 1.15 4.45 0.9 L6.8 8.9 7.1 11.1 Q7.2 13.0 6.7 14.65 L6.3 15.0 5.75 15.15 4.6 13.65 4.25 13.2 3.9 12.75 Q3.2 11.6 2.65 10.15 L0.35 2.1 0.65 1.95" fill="#884400" fill-rule="evenodd" stroke="none"/>
    <path d="M4.05 1.0 L6.4 9.0 6.7 11.2 Q6.85 13.15 6.3 14.75 L5.95 15.15 5.45 15.0 Q3.35 13.25 2.3 10.3 L0.0 2.2 Q1.1 1.8 1.55 0.15 L1.5 0.05 1.6 0.05 Q2.8 1.25 4.05 1.0" fill="#fff8bb" fill-rule="evenodd" stroke="none"/>
    <path d="M3.2 1.4 L3.35 1.45 Q3.5 1.95 3.8 1.95 L5.85 8.95 Q6.6 12.15 5.75 14.45 L5.55 14.6 5.35 14.5 Q3.3 13.05 2.25 10.05 L0.3 3.05 Q0.5 2.9 0.35 2.35 L0.4 2.25 Q1.1 1.8 1.55 0.75 2.4 1.45 3.2 1.4" fill="#a57f32" fill-rule="evenodd" stroke="none"/>
    <path d="M0.55 3.75 L0.6 2.9 Q1.3 2.4 1.6 1.7 L1.6 1.75 Q2.2 2.2 3.1 2.15 3.25 2.75 3.55 2.9 L5.2 8.6 Q5.9 11.1 5.5 12.8 L5.2 13.9 4.2 13.2 Q2.95 11.85 2.2 9.5 L0.55 3.75" fill="#fffb68" fill-rule="evenodd" stroke="none"/>
    <path d="M2.85 2.15 L3.35 2.85 5.05 8.55 Q5.75 11.05 5.3 12.75 5.4 11.4 4.9 9.5 L3.25 3.8 Q2.95 3.7 2.75 3.1 L1.3 2.75 1.3 2.65 0.4 3.75 0.4 2.85 1.45 1.7 1.45 1.75 2.85 2.15" fill="#ffffff" fill-rule="evenodd" stroke="none"/>
    <path d="M1.0 5.6 L1.5 7.35 5.15 6.25 4.65 4.5 1.0 5.6" fill="#c1b033" fill-rule="evenodd" stroke="none"/>
    <path d="M1.0 6.05 L1.35 7.15 4.8 6.1 4.45 5.0 1.0 6.05" fill="#fffb68" fill-rule="evenodd" stroke="none"/>
    <path d="M1.4 1.95 Q1.4 7.25 4.85 13.8 L5.45 14.75 5.45 13.65 Q2.15 7.95 2.0 1.8 L1.4 0.9 1.4 1.95" fill="#ce9717" fill-rule="evenodd" stroke="none"/>
    <path d="M1.65 2.2 Q1.7 7.6 4.95 13.45 L5.35 14.35 5.35 13.35 Q2.15 7.3 2.05 2.1 L1.55 1.4 1.65 2.2" fill="#fffb68" fill-rule="evenodd" stroke="none"/>
    <path d="M2.1 8.0 L1.35 7.45 Q1.1 7.0 1.15 6.4 1.15 5.9 1.45 5.6 1.75 5.3 2.2 5.35 L2.85 5.95 3.15 6.95 2.8 7.85 2.1 8.0" fill="url(#gradient0)" fill-rule="evenodd" stroke="none"/>
    <path d="M1.7 7.1 L1.55 6.6 Q1.55 6.3 1.7 6.15 L2.1 6.05 2.45 6.35 2.6 6.85 2.4 7.3 2.05 7.4 1.7 7.1" fill="url(#gradient1)" fill-rule="evenodd" stroke="none"/>
    <path d="M1.05 1.3 L1.25 0.85 1.65 0.65 2.1 0.85 2.3 1.3 2.1 1.75 1.65 1.9 1.25 1.75 1.05 1.3" fill="url(#gradient2)" fill-rule="evenodd" stroke="none"/>
    <path d="M3.55 5.75 L3.75 5.3 4.15 5.1 4.6 5.3 4.8 5.75 4.6 6.2 4.15 6.35 3.75 6.2 3.55 5.75" fill="url(#gradient3)" fill-rule="evenodd" stroke="none"/>
    <path d="M4.55 13.95 L4.75 13.5 5.15 13.3 5.6 13.5 5.8 13.95 5.6 14.4 5.15 14.55 4.75 14.4 4.55 13.95" fill="url(#gradient4)" fill-rule="evenodd" stroke="none"/>
  </g>
  <defs>
    <radialGradient cx="0" cy="0" gradientTransform="matrix(0.001, -0.001, 9.0E-4, 0.0015, 2.1, 6.7)" gradientUnits="userSpaceOnUse" id="gradient0" r="819.2" spreadMethod="pad">
      <stop offset="0.0" stop-color="#d1a461"/>
      <stop offset="0.7215686274509804" stop-color="#c9a269"/>
      <stop offset="1.0" stop-color="#624b20"/>
    </radialGradient>
    <radialGradient cx="0" cy="0" gradientTransform="matrix(5.0E-4, -5.0E-4, 4.0E-4, 8.0E-4, 2.0, 6.55)" gradientUnits="userSpaceOnUse" id="gradient1" r="819.2" spreadMethod="pad">
      <stop offset="0.0" stop-color="#fef7bc"/>
      <stop offset="0.7215686274509804" stop-color="#a57f32"/>
      <stop offset="1.0" stop-color="#614f27"/>
    </radialGradient>
    <radialGradient cx="0" cy="0" gradientTransform="matrix(8.0E-4, 0.0, 0.0, 8.0E-4, 1.75, 1.15)" gradientUnits="userSpaceOnUse" id="gradient2" r="819.2" spreadMethod="pad">
      <stop offset="0.0" stop-color="#fef7bc"/>
      <stop offset="0.7215686274509804" stop-color="#a57f32"/>
      <stop offset="1.0" stop-color="#b7974d"/>
    </radialGradient>
    <radialGradient cx="0" cy="0" gradientTransform="matrix(8.0E-4, 0.0, 0.0, 8.0E-4, 4.25, 5.6)" gradientUnits="userSpaceOnUse" id="gradient3" r="819.2" spreadMethod="pad">
      <stop offset="0.0" stop-color="#fef7bc"/>
      <stop offset="0.7215686274509804" stop-color="#a57f32"/>
      <stop offset="1.0" stop-color="#b7974d"/>
    </radialGradient>
    <radialGradient cx="0" cy="0" gradientTransform="matrix(8.0E-4, 0.0, 0.0, 8.0E-4, 5.25, 13.8)" gradientUnits="userSpaceOnUse" id="gradient4" r="819.2" spreadMethod="pad">
      <stop offset="0.0" stop-color="#fef7bc"/>
      <stop offset="0.7215686274509804" stop-color="#a57f32"/>
      <stop offset="1.0" stop-color="#b7974d"/>
    </radialGradient>
  </defs>
</svg>
