<?xml version="1.0" encoding="UTF-8" standalone="no"?>
<svg xmlns:xlink="http://www.w3.org/1999/xlink" height="60.55px" width="35.95px" xmlns="http://www.w3.org/2000/svg">
  <g transform="matrix(1.0, 0.0, 0.0, 1.0, 3.75, 6.25)">
    <path d="M0.55 -2.1 L22.35 -3.25 22.9 12.35 Q24.35 13.75 24.25 15.65 L24.4 16.15 Q24.35 17.5 23.0 18.95 L23.35 30.1 22.9 30.3 Q26.2 32.05 27.9 36.35 29.5 40.7 29.1 44.3 28.9 47.25 27.2 49.65 15.2 52.7 1.9 50.15 1.15 47.25 0.7 44.3 -0.25 37.55 1.25 30.75 L1.8 30.75 1.6 21.05 Q-0.3 19.25 -0.75 17.1 -0.5 14.8 1.15 13.15 L1.2 13.15 0.55 -2.1" fill="#a2a2a2" fill-rule="evenodd" stroke="none"/>
    <path d="M0.55 -2.1 L1.2 13.15 1.15 13.15 Q-0.5 14.8 -0.75 17.1 -0.3 19.25 1.6 21.05 L1.8 30.75 1.25 30.75 Q-0.25 37.55 0.7 44.3 1.15 47.25 1.9 50.15 15.2 52.7 27.2 49.65 28.9 47.25 29.1 44.3 29.5 40.7 27.9 36.35 26.2 32.05 22.9 30.3 L23.35 30.1 23.0 18.95 Q24.35 17.5 24.4 16.15 L24.25 15.65 Q24.35 13.75 22.9 12.35 L22.35 -3.25 0.55 -2.1 Z" fill="none" stroke="#a90156" stroke-linecap="round" stroke-linejoin="round" stroke-width="6.0"/>
    <path d="M3.85 -2.25 L4.65 13.05 1.2 13.15 0.55 -2.1 3.85 -2.25 M19.35 12.5 L19.05 -3.05 22.35 -3.25 22.85 12.35 19.35 12.5" fill="#aaaaaa" fill-rule="evenodd" stroke="none"/>
    <path d="M3.85 -2.25 L19.05 -3.05 19.35 12.5 4.65 13.05 3.85 -2.25" fill="#c8c8c8" fill-rule="evenodd" stroke="none"/>
    <path d="M4.65 13.05 L19.35 12.5 22.85 12.35 Q24.35 13.75 24.2 15.65 L24.35 16.15 Q24.3 17.5 22.95 18.95 22.45 19.9 21.0 20.15 L19.25 20.45 16.7 21.05 8.3 21.45 4.35 21.25 1.6 21.05 Q-0.3 19.25 -0.75 17.1 -0.5 14.8 1.15 13.15 L1.2 13.15 4.65 13.05" fill="#b7b7b7" fill-rule="evenodd" stroke="none"/>
    <path d="M22.95 18.95 L23.3 30.1 19.5 31.5 Q16.0 32.55 12.45 32.95 L4.75 32.1 1.8 31.3 1.6 21.05 4.35 21.25 8.3 21.45 16.7 21.05 19.25 20.45 21.0 20.15 Q22.45 19.9 22.95 18.95" fill="#c7175e" fill-rule="evenodd" stroke="none"/>
    <path d="M18.25 14.35 L11.4 13.85 Q7.4 14.05 4.6 15.15 1.9 16.25 2.0 17.55 2.1 18.85 5.0 19.6 L11.9 20.1 Q15.9 19.85 18.65 18.8 21.4 17.75 21.3 16.45 21.2 15.15 18.25 14.35" fill="#dae4e9" fill-rule="evenodd" stroke="none"/>
    <path d="M15.0 15.05 L11.55 14.8 Q9.6 14.95 8.2 15.45 6.85 16.05 6.9 16.7 6.95 17.3 8.4 17.65 L11.85 17.95 15.2 17.25 Q16.55 16.75 16.5 16.15 16.45 15.5 15.0 15.05" fill="#ffffff" fill-rule="evenodd" stroke="none"/>
    <path d="M14.85 33.05 Q12.7 33.75 12.8 35.45 12.95 37.45 15.25 38.15 L18.95 38.6 Q23.5 38.6 23.35 36.15 23.25 35.2 21.65 34.15 L19.2 32.6 18.25 32.65 17.65 32.6 Q16.05 32.6 14.85 33.05 M19.7 43.1 Q16.35 43.1 13.3 41.9 8.85 40.15 8.6 36.7 8.35 31.7 17.85 31.7 19.9 31.7 22.3 32.8 25.2 34.0 26.0 35.9 L26.2 36.25 26.25 36.55 Q26.4 39.15 24.35 41.15 22.4 43.1 19.7 43.1" fill="#eb3e83" fill-rule="evenodd" stroke="none"/>
    <path d="M14.85 33.05 Q16.05 32.6 17.65 32.6 L18.25 32.65 19.2 32.6 21.65 34.15 Q23.25 35.2 23.35 36.15 23.5 38.6 18.95 38.6 L15.25 38.15 Q12.95 37.45 12.8 35.45 12.7 33.75 14.85 33.05" fill="#f59fc1" fill-rule="evenodd" stroke="none"/>
    <path d="M0.7 44.3 Q-0.2 37.8 1.1 31.2 L1.25 30.75 22.15 29.95 Q23.45 30.5 24.4 31.35 26.6 33.15 27.9 36.35 29.5 40.7 29.1 44.3 15.0 49.5 0.7 44.3 M19.7 43.1 Q22.4 43.1 24.35 41.15 26.4 39.15 26.25 36.55 L26.2 36.25 26.0 35.9 Q25.2 34.0 22.3 32.8 19.9 31.7 17.85 31.7 8.35 31.7 8.6 36.7 8.85 40.15 13.3 41.9 16.35 43.1 19.7 43.1" fill="#c7175e" fill-rule="evenodd" stroke="none"/>
    <path d="M0.7 44.3 Q15.0 49.5 29.1 44.3 28.9 47.25 27.2 49.65 15.2 52.7 1.9 50.15 1.15 47.25 0.7 44.3" fill="#930941" fill-rule="evenodd" stroke="none"/>
  </g>
</svg>
