<?xml version="1.0" encoding="UTF-8" standalone="no"?>
<svg xmlns:xlink="http://www.w3.org/1999/xlink" height="65.0px" width="65.6px" xmlns="http://www.w3.org/2000/svg">
  <g transform="matrix(1.0, 0.0, 0.0, 1.0, 5.4, -6.2)">
    <path d="M49.95 10.75 L54.8 15.05 57.2 17.05 39.1 38.2 38.9 39.5 Q38.4 41.4 36.7 42.75 35.15 44.05 33.25 44.25 L33.05 44.2 25.0 51.05 25.1 51.1 23.7 54.5 22.65 57.0 22.5 57.0 Q22.0 62.1 18.05 65.45 14.0 68.65 8.85 68.15 3.75 67.7 0.45 63.7 -2.8 59.75 -2.35 54.55 -1.8 49.45 2.15 46.2 5.85 43.1 10.6 43.25 L10.6 43.1 11.05 43.05 16.7 42.35 26.1 34.35 Q26.85 33.1 28.05 32.15 L29.3 31.3 48.15 9.2 49.95 10.75" fill="#a2a2a2" fill-rule="evenodd" stroke="none"/>
    <path d="M49.95 10.75 L48.15 9.2 29.3 31.3 28.05 32.15 Q26.85 33.1 26.1 34.35 L16.7 42.35 11.05 43.05 10.6 43.1 10.6 43.25 Q5.85 43.1 2.15 46.2 -1.8 49.45 -2.35 54.55 -2.8 59.75 0.45 63.7 3.75 67.7 8.85 68.15 14.0 68.65 18.05 65.45 22.0 62.1 22.5 57.0 L22.65 57.0 23.7 54.5 25.1 51.1 25.0 51.05 33.05 44.2 33.25 44.25 Q35.15 44.05 36.7 42.75 38.4 41.4 38.9 39.5 L39.1 38.2 57.2 17.05 54.8 15.05 49.95 10.75 Z" fill="none" stroke="#a90156" stroke-linecap="round" stroke-linejoin="round" stroke-width="6.0"/>
    <path d="M11.95 50.1 L31.8 32.85 35.95 38.05 16.45 54.35 11.95 50.1" fill="#c8c8c8" fill-rule="evenodd" stroke="none"/>
    <path d="M35.95 38.05 L37.95 40.35 18.45 56.95 16.45 54.35 35.95 38.05" fill="#e6e6e6" fill-rule="evenodd" stroke="none"/>
    <path d="M10.2 48.25 L30.35 31.05 31.8 32.85 11.95 50.1 10.2 48.25" fill="#a2a2a2" fill-rule="evenodd" stroke="none"/>
    <path d="M10.2 48.25 L11.95 50.1 M18.45 56.95 L16.45 54.35 11.95 50.1" fill="none" stroke="#283757" stroke-linecap="round" stroke-linejoin="round" stroke-opacity="0.49803922" stroke-width="0.1"/>
    <path d="M50.0 11.0 L29.7 35.15 27.6 33.65 48.2 9.5 50.0 11.0" fill="#a2a2a2" fill-rule="evenodd" stroke="none"/>
    <path d="M54.85 15.3 L34.85 38.6 29.7 35.15 50.0 11.0 54.85 15.3" fill="#c8c8c8" fill-rule="evenodd" stroke="none"/>
    <path d="M54.85 15.3 L57.25 17.3 37.2 40.8 34.85 38.6 54.85 15.3" fill="#e6e6e6" fill-rule="evenodd" stroke="none"/>
    <path d="M34.85 38.6 L37.2 40.8 M29.7 35.15 L34.85 38.6 M27.6 33.65 L29.7 35.15" fill="none" stroke="#283757" stroke-linecap="round" stroke-linejoin="round" stroke-opacity="0.49803922" stroke-width="0.1"/>
    <path d="M34.55 31.2 Q36.35 31.75 37.75 33.35 39.15 35.1 39.25 37.25 L39.15 38.3 38.95 39.75 Q38.45 41.6 36.75 43.0 35.2 44.3 33.3 44.45 L31.7 44.5 Q30.55 44.45 29.55 43.85 28.15 43.25 27.1 42.05 25.7 40.25 25.5 38.05 L25.6 37.05 26.05 34.95 Q26.7 33.55 28.1 32.4 29.35 31.45 30.75 31.0 L33.05 30.85 34.55 31.2" fill="#b7b7b7" fill-rule="evenodd" stroke="none"/>
    <path d="M37.55 39.05 Q37.8 36.8 36.4 35.05 35.0 33.25 32.7 33.0 30.45 32.75 28.7 34.15 26.85 35.6 26.6 37.85 26.35 40.15 27.8 41.9 29.2 43.7 31.45 43.95 33.75 44.2 35.5 42.8 37.3 41.35 37.55 39.05" fill="#dae3e9" fill-rule="evenodd" stroke="none"/>
    <path d="M34.4 42.2 Q35.2 42.3 35.8 41.8 36.4 41.3 36.5 40.5 36.6 39.7 36.1 39.15 35.6 38.55 34.8 38.45 34.05 38.35 33.45 38.85 32.85 39.3 32.75 40.1 32.65 40.9 33.15 41.5 L34.4 42.2" fill="#ffffff" fill-rule="evenodd" stroke="none"/>
    <path d="M13.7 44.05 Q15.25 44.5 16.6 45.35 18.35 46.35 19.75 48.1 21.05 49.7 21.8 51.45 L22.5 54.2 Q22.7 55.65 22.55 57.2 22.1 62.35 18.1 65.65 14.1 68.9 8.9 68.4 3.85 67.95 0.55 63.9 -2.65 60.0 -2.25 54.8 -1.75 49.7 2.25 46.4 6.25 43.2 11.4 43.55 L13.7 44.05" fill="#c7175e" fill-rule="evenodd" stroke="none"/>
    <path d="M8.6 64.95 Q12.45 65.35 15.55 63.05 18.55 60.6 18.95 56.75 19.4 52.85 17.05 49.9 14.55 46.8 10.7 46.4 6.85 45.95 3.9 48.4 0.85 50.75 0.4 54.65 0.0 58.5 2.4 61.55 4.75 64.5 8.6 64.95" fill="#eb3e83" fill-rule="evenodd" stroke="none"/>
    <path d="M5.05 54.9 Q6.8 55.1 8.15 54.1 9.5 53.0 9.7 51.25 9.85 49.55 8.8 48.2 7.75 46.8 6.0 46.6 4.3 46.45 2.95 47.55 1.55 48.6 1.4 50.3 1.2 52.05 2.3 53.45 3.35 54.75 5.05 54.9" fill="#ffffff" fill-opacity="0.49803922" fill-rule="evenodd" stroke="none"/>
    <path d="M17.55 45.05 L15.3 45.25 12.8 45.85 11.1 46.6 Q10.65 45.0 10.7 43.3 L11.1 43.3 16.8 42.55 Q16.8 43.55 17.55 45.05" fill="#a2a2a2" fill-rule="evenodd" stroke="none"/>
    <path d="M17.55 45.05 Q18.9 45.8 20.5 47.55 L23.05 50.6 23.1 50.75 Q23.15 51.6 22.55 53.1 L22.15 53.95 21.0 56.0 20.4 56.8 Q17.0 55.85 14.15 52.3 11.85 49.55 11.1 46.6 L12.8 45.85 15.3 45.25 17.55 45.05" fill="#c8c8c8" fill-rule="evenodd" stroke="none"/>
    <path d="M20.4 56.8 L21.0 56.0 22.15 53.95 22.55 53.1 Q23.15 51.6 23.1 50.75 L23.05 50.6 25.2 51.35 23.75 54.75 22.7 57.25 20.4 56.8" fill="#e6e6e6" fill-rule="evenodd" stroke="none"/>
  </g>
</svg>
