<?xml version="1.0" encoding="UTF-8" standalone="no"?>
<svg xmlns:xlink="http://www.w3.org/1999/xlink" height="109.35px" width="98.25px" xmlns="http://www.w3.org/2000/svg">
  <g transform="matrix(1.0, 0.0, 0.0, 1.0, -1.45, 10.6)">
    <path d="M82.8 36.35 Q84.3 39.25 84.3 42.55 84.3 46.2 82.8 49.1 81.75 51.65 79.9 53.5 L79.2 54.2 79.9 60.4 96.7 80.45 90.5 84.45 90.85 84.8 90.1 84.8 89.4 85.55 79.9 89.55 77.35 83.35 78.1 90.65 Q74.1 92.1 69.7 93.2 L67.9 93.9 67.9 93.55 59.85 95.0 59.5 85.9 58.75 95.4 58.4 95.4 52.55 95.4 Q49.65 95.75 46.35 95.4 L46.35 95.75 44.55 95.75 44.55 95.4 42.35 95.4 39.8 95.4 Q34.7 94.65 30.35 93.2 L30.35 93.55 28.5 93.2 26.35 92.45 Q23.75 91.35 21.2 90.65 L22.7 85.55 20.5 90.25 Q19.4 89.55 18.65 89.55 L17.95 89.55 17.6 89.55 Q17.2 89.55 16.85 89.2 L16.85 88.8 11.0 85.9 11.0 86.25 9.9 85.55 9.55 85.55 7.0 84.1 Q6.3 83.35 5.2 83.0 L4.45 82.25 20.5 60.4 21.2 54.2 20.5 53.1 Q18.65 51.65 17.6 49.45 16.1 46.2 16.1 42.2 16.1 40.35 16.85 38.15 16.85 36.35 18.3 34.55 19.05 33.05 20.5 31.6 22.3 29.8 24.85 28.7 L25.25 22.15 26.7 13.4 74.1 13.75 74.8 22.15 75.9 29.05 Q77.7 30.15 79.9 32.0 79.9 32.35 80.25 32.35 81.75 34.15 82.8 36.35" fill="#723710" fill-rule="evenodd" stroke="none"/>
    <path d="M82.8 36.35 Q81.75 34.15 80.25 32.35 79.9 32.35 79.9 32.0 77.7 30.15 75.9 29.05 L74.8 22.15 74.1 13.75 26.7 13.4 25.25 22.15 24.85 28.7 Q22.3 29.8 20.5 31.6 19.05 33.05 18.3 34.55 16.85 36.35 16.85 38.15 16.1 40.35 16.1 42.2 16.1 46.2 17.6 49.45 18.65 51.65 20.5 53.1 L21.2 54.2 20.5 60.4 4.45 82.25 5.2 83.0 Q6.3 83.35 7.0 84.1 L9.55 85.55 9.9 85.55 11.0 86.25 11.0 85.9 16.85 88.8 16.85 89.2 Q17.2 89.55 17.6 89.55 L17.95 89.55 18.65 89.55 Q19.4 89.55 20.5 90.25 L22.7 85.55 21.2 90.65 Q23.75 91.35 26.35 92.45 L28.5 93.2 30.35 93.55 30.35 93.2 Q34.7 94.65 39.8 95.4 L42.35 95.4 44.55 95.4 44.55 95.75 46.35 95.75 46.35 95.4 Q49.65 95.75 52.55 95.4 L58.4 95.4 58.75 95.4 59.5 85.9 59.85 95.0 67.9 93.55 67.9 93.9 69.7 93.2 Q74.1 92.1 78.1 90.65 L77.35 83.35 79.9 89.55 89.4 85.55 90.1 84.8 90.85 84.8 90.5 84.45 96.7 80.45 79.9 60.4 79.2 54.2 79.9 53.5 Q81.75 51.65 82.8 49.1 84.3 46.2 84.3 42.55 84.3 39.25 82.8 36.35 Z" fill="none" stroke="#830645" stroke-linecap="round" stroke-linejoin="round" stroke-width="6.0"/>
    <path d="M25.3 22.5 L26.75 13.75 74.15 14.1 74.85 22.5 Q51.55 34.5 25.3 22.5" fill="#a2a2a2" fill-rule="evenodd" stroke="none"/>
    <path d="M25.3 22.5 Q51.55 34.5 74.85 22.5 L79.95 60.75 Q77.75 61.1 76.3 61.85 L73.75 62.2 65.4 63.65 57.0 64.4 36.2 63.65 32.2 62.95 29.3 62.55 Q28.95 62.2 27.85 62.2 L24.9 61.85 Q22.75 61.5 20.9 60.75 L25.3 22.5" fill="#c8c8c8" fill-rule="evenodd" stroke="none"/>
    <path d="M82.15 44.7 L82.15 45.45 Q81.8 48.35 80.7 51.25 79.6 53.85 77.75 55.65 73.4 60.0 66.85 60.0 60.65 60.0 56.25 55.65 54.45 53.85 53.35 52.0 51.9 48.35 51.9 44.7 L48.6 44.7 48.6 45.45 Q48.6 48.35 47.5 50.9 46.4 53.45 44.25 55.65 39.85 60.0 33.65 60.0 27.1 60.0 23.1 55.3 20.9 53.85 20.2 51.65 18.35 48.35 18.35 44.7 18.35 42.55 19.1 40.35 19.1 39.6 19.8 38.5 L20.2 37.8 20.55 36.7 Q21.25 35.25 23.1 34.15 27.1 29.8 33.65 29.8 39.85 29.8 44.25 34.15 44.6 34.15 44.6 34.5 46.4 36.35 47.5 38.5 L48.25 40.7 52.25 40.7 Q52.6 39.6 53.35 38.5 L53.7 38.15 54.1 36.7 Q54.8 35.25 56.25 34.15 60.65 29.8 66.85 29.8 73.4 29.8 77.75 34.15 L77.75 34.9 Q79.95 36.7 80.7 38.5 81.8 40.7 81.8 42.55 82.15 43.6 82.15 44.7" fill="#a2a2a2" fill-rule="evenodd" stroke="none"/>
    <path d="M81.8 40.7 Q81.4 40.35 81.4 38.9 L80.3 38.5 80.3 38.9 Q81.05 39.25 81.05 40.35 L80.3 40.7 Q81.05 40.7 81.4 42.15 81.8 42.9 81.8 44.0 L81.8 44.7 81.8 45.45 Q82.15 44.7 82.5 44.7 L82.5 42.55 Q82.5 40.7 81.8 40.7 M59.9 31.95 L60.25 31.95 61.35 33.05 Q60.65 31.6 60.65 30.85 L61.35 31.6 Q61.35 30.5 65.0 29.4 L70.85 29.05 71.95 29.05 72.65 30.85 72.65 29.05 Q73.05 29.05 75.95 30.5 78.85 31.6 78.85 33.05 L78.5 34.15 77.75 35.25 78.85 34.9 79.6 34.9 77.75 36.35 80.7 35.25 Q79.95 35.95 79.6 36.7 L81.8 35.6 Q82.15 35.6 82.85 38.5 83.6 40.35 83.6 41.8 L83.25 42.55 83.25 44.0 Q83.6 44.7 82.85 45.1 L82.15 45.8 83.25 45.8 Q82.5 47.25 81.8 50.55 80.7 52.75 78.5 53.85 L77.75 53.1 Q78.15 54.55 77.05 55.3 L74.5 56.4 Q72.3 57.85 70.1 57.85 68.3 57.85 66.85 57.1 64.65 56.4 63.2 56.4 L62.85 55.3 62.1 55.65 Q60.65 55.65 58.45 52.75 56.25 50.2 56.25 48.35 L56.65 46.9 Q55.55 46.55 55.55 46.15 L55.15 44.0 55.15 42.55 Q55.55 38.5 56.25 38.5 L55.9 37.8 Q55.55 37.45 55.55 37.05 L55.55 36.7 54.45 38.5 Q54.8 36.7 55.9 35.6 L55.9 36.35 57.0 34.9 Q58.8 32.7 59.55 32.35 59.2 32.7 59.2 33.05 L58.8 33.4 57.7 34.9 58.1 36.7 59.2 34.5 60.25 32.7 59.9 31.95 M55.15 42.55 Q55.15 42.9 56.25 44.7 L56.25 42.55 56.25 41.45 56.65 40.7 56.25 40.0 55.9 41.45 55.9 41.8 55.15 42.55 M16.9 38.15 Q16.9 36.7 17.65 35.95 L17.65 36.7 Q18.0 35.95 19.1 34.9 L20.9 32.7 20.9 33.4 19.8 34.9 20.2 36.7 Q20.55 35.6 21.25 34.15 L22.0 32.7 22.0 31.95 23.45 33.05 23.45 32.7 23.1 30.85 23.45 31.6 Q23.45 30.15 27.1 29.4 30.0 28.7 32.55 28.7 34.05 28.7 34.4 29.05 L34.75 30.85 34.75 29.05 38.05 30.5 Q40.95 31.6 40.95 33.05 L40.6 34.15 40.25 35.25 Q40.6 34.9 40.95 34.9 41.3 34.9 41.65 34.55 L39.85 36.35 42.8 35.25 42.15 36.5 Q42.45 36.15 43.5 35.6 44.6 35.6 44.95 38.5 L45.35 41.45 45.35 42.55 45.35 44.0 Q45.35 44.35 44.95 44.7 L44.6 45.45 45.35 45.45 Q44.6 46.9 43.85 50.55 42.4 52.75 40.6 53.85 L39.85 53.1 Q40.6 54.2 39.15 55.3 L36.6 56.4 Q34.75 57.45 31.85 57.45 L28.95 57.1 Q26.75 56.4 25.3 56.4 25.3 55.65 24.9 54.9 24.9 55.65 24.2 55.3 23.1 55.3 20.55 52.75 18.35 50.2 18.35 48.0 18.35 47.65 18.7 46.9 17.65 46.55 17.65 45.8 L17.25 44.0 17.25 42.55 Q17.65 38.5 18.7 38.5 L18.0 37.45 17.25 37.05 Q16.9 37.8 16.9 38.15 M77.05 36.35 L77.75 34.5 Q77.75 33.8 77.05 33.4 75.95 32.7 74.15 31.95 L67.2 31.6 67.2 33.4 67.2 36.7 Q65.4 31.95 64.3 31.95 63.55 31.95 61.0 34.5 58.45 36.7 58.1 38.15 58.45 38.15 58.8 38.5 L59.55 38.5 60.25 38.5 60.25 38.9 58.45 39.25 Q57.7 39.6 57.7 40.35 L59.35 40.7 58.45 40.7 Q58.1 41.05 57.35 41.05 56.25 44.7 58.45 48.7 L59.9 48.7 Q60.25 48.35 61.35 48.35 62.05 48.05 63.05 48.0 L63.2 48.0 62.45 48.7 61.75 49.45 Q61.35 49.8 61.35 50.2 61.0 50.2 60.65 50.55 L60.25 50.55 Q61.0 52.35 64.3 54.2 66.45 54.9 69.4 54.9 73.75 54.9 76.7 52.35 L78.85 50.2 Q79.95 48.35 80.3 46.55 80.7 42.9 80.3 42.55 L80.3 42.15 Q79.6 41.45 77.4 40.7 L78.15 40.7 79.6 40.35 Q80.3 38.9 78.15 36.35 L75.95 38.15 Q75.95 37.8 76.7 36.7 L77.05 36.35 M40.95 50.2 L40.95 49.8 Q42.05 48.35 42.4 46.55 42.8 42.55 42.4 42.15 L42.4 41.8 39.15 40.7 39.5 40.7 40.6 40.35 41.7 40.35 Q42.4 38.5 40.6 36.35 L37.7 38.15 38.75 36.7 38.75 36.35 39.5 34.5 Q39.5 33.8 38.75 33.05 38.4 32.7 36.6 31.95 32.95 30.5 28.95 31.25 L28.95 33.4 Q29.3 34.5 29.3 36.7 27.45 31.6 26.75 31.6 25.3 31.6 23.1 34.15 20.55 36.7 19.8 38.15 L20.9 38.5 21.25 38.5 22.0 38.5 22.35 38.5 20.9 39.25 Q19.8 39.6 19.45 40.0 L19.8 40.0 19.8 40.35 22.0 40.35 21.25 40.7 20.9 40.7 Q19.8 41.05 19.1 40.7 18.35 44.7 20.9 48.35 L22.0 48.35 23.45 48.35 24.9 48.0 24.55 48.7 Q24.2 48.7 23.8 49.45 23.45 49.8 23.1 49.8 L23.1 50.2 22.75 50.55 Q23.1 52.35 26.4 53.85 28.95 54.9 31.1 54.9 35.85 54.9 38.75 52.35 40.25 51.25 40.95 50.2 M44.6 42.15 Q44.6 40.7 43.85 40.35 43.5 40.35 43.5 38.9 L42.4 38.5 43.15 40.35 42.4 40.7 Q42.8 40.7 43.5 41.8 44.25 42.9 44.25 43.6 L43.85 44.7 43.85 45.45 Q44.25 44.7 44.6 44.7 L44.6 42.15 M19.1 40.35 L18.35 39.6 Q18.35 40.7 18.0 41.45 L17.25 42.55 Q17.25 42.9 18.35 44.35 L18.35 42.55 Q18.0 42.55 18.0 42.15 18.0 41.8 18.7 41.05 19.1 40.7 19.1 40.35 M33.7 56.4 L34.75 56.4 Q35.5 56.0 35.5 55.3 L34.75 56.0 33.7 56.4 M33.65 56.4 L32.55 56.0 31.85 56.0 31.5 55.65 30.4 56.4 30.0 55.65 28.95 56.4 28.2 56.4 Q27.45 56.0 27.1 56.0 27.85 56.75 28.95 56.75 L29.65 56.75 Q30.4 56.75 30.0 57.1 L30.4 57.1 30.75 56.4 32.95 56.4 33.65 56.4 M73.75 55.65 L73.75 55.3 72.65 56.0 Q71.95 56.4 71.55 56.4 L70.5 56.4 Q70.1 56.4 70.1 56.0 L69.75 56.0 68.65 56.4 68.3 56.4 67.95 56.0 Q67.2 56.4 66.85 56.4 L66.1 56.4 65.4 56.0 Q66.1 56.75 66.85 56.75 L67.55 56.75 Q68.3 56.75 68.3 57.1 L68.65 56.4 69.4 56.4 70.85 56.75 72.65 56.4 Q73.75 56.4 73.75 55.65" fill="#743f1d" fill-rule="evenodd" stroke="none"/>
    <path d="M81.8 40.7 Q82.5 40.7 82.5 42.55 L82.5 44.7 Q82.15 44.7 81.8 45.45 L81.8 44.7 81.8 44.0 Q81.8 42.9 81.4 42.15 81.05 40.7 80.3 40.7 L81.05 40.35 Q81.05 39.25 80.3 38.9 L80.3 38.5 81.4 38.9 Q81.4 40.35 81.8 40.7 M59.9 31.95 L60.25 32.7 59.2 34.5 58.1 36.7 57.7 34.9 58.8 33.4 59.2 33.05 Q59.2 32.7 59.55 32.35 L59.9 31.95 M55.15 42.55 L55.9 41.8 55.9 41.45 56.25 40.0 56.65 40.7 56.25 41.45 56.25 42.55 56.25 44.7 Q55.15 42.9 55.15 42.55 M44.6 42.15 L44.6 44.7 Q44.25 44.7 43.85 45.45 L43.85 44.7 44.25 43.6 Q44.25 42.9 43.5 41.8 42.8 40.7 42.4 40.7 L43.15 40.35 42.4 38.5 43.5 38.9 Q43.5 40.35 43.85 40.35 44.6 40.7 44.6 42.15 M22.0 31.95 L22.0 32.7 21.25 34.15 Q20.55 35.6 20.2 36.7 L19.8 34.9 20.9 33.4 20.9 32.7 21.65 31.95 22.0 31.6 22.0 31.95 M19.1 40.35 Q19.1 40.7 18.7 41.05 18.0 41.8 18.0 42.15 18.0 42.55 18.35 42.55 L18.35 44.35 Q17.25 42.9 17.25 42.55 L18.0 41.45 Q18.35 40.7 18.35 39.6 L19.1 40.35" fill="#6b3716" fill-rule="evenodd" stroke="none"/>
    <path d="M55.15 42.55 L55.15 44.0 55.55 46.15 Q55.55 46.55 56.65 46.9 L56.25 48.35 Q56.25 50.2 58.45 52.75 60.65 55.65 62.1 55.65 L62.85 55.3 63.2 56.4 Q64.65 56.4 66.85 57.1 68.3 57.85 70.1 57.85 72.3 57.85 74.5 56.4 L77.05 55.3 Q78.15 54.55 77.75 53.1 L78.5 53.85 Q80.7 52.75 81.8 50.55 82.5 47.25 83.25 45.8 L82.15 45.8 82.85 45.1 Q83.6 44.7 83.25 44.0 L83.25 42.55 83.6 41.8 Q83.6 40.35 82.85 38.5 82.15 35.6 81.8 35.6 L79.6 36.7 Q79.95 35.95 80.7 35.25 L77.75 36.35 79.6 34.9 78.85 34.9 77.75 35.25 78.5 34.15 78.85 33.05 Q78.85 31.6 75.95 30.5 73.05 29.05 72.65 29.05 L72.65 30.85 71.95 29.05 70.85 29.05 65.0 29.4 Q61.35 30.5 61.35 31.6 L60.65 30.85 Q60.65 31.6 61.35 33.05 L60.25 31.95 59.9 31.95 59.55 32.35 Q58.8 32.7 57.0 34.9 L55.9 36.35 55.9 35.6 56.25 35.25 56.25 34.9 Q57.0 33.4 58.45 32.35 62.85 27.95 69.4 27.95 75.6 27.95 79.95 32.35 79.95 32.7 80.3 32.7 81.8 34.5 82.85 36.7 84.35 39.6 84.35 42.9 84.35 46.55 82.85 49.45 81.8 52.0 79.95 53.85 75.6 58.2 69.4 58.2 62.85 58.2 58.45 53.85 56.65 52.0 55.55 50.2 54.1 46.9 54.1 43.6 L54.1 42.9 54.1 40.7 54.45 38.5 55.55 36.7 55.55 37.05 Q55.55 37.45 55.9 37.8 L56.25 38.5 Q55.55 38.5 55.15 42.55 M46.4 43.6 Q46.4 46.55 44.95 49.1 43.85 51.65 42.05 53.85 37.7 58.2 31.1 58.2 24.9 58.2 20.55 53.45 18.7 52.0 17.65 49.8 16.15 46.55 16.15 42.55 16.15 40.7 16.9 38.5 L16.9 38.15 Q16.9 37.8 17.25 37.05 L18.0 37.45 18.7 38.5 Q17.65 38.5 17.25 42.55 L17.25 44.0 17.65 45.8 Q17.65 46.55 18.7 46.9 18.35 47.65 18.35 48.0 18.35 50.2 20.55 52.75 23.1 55.3 24.2 55.3 24.9 55.65 24.9 54.9 25.3 55.65 25.3 56.4 26.75 56.4 28.95 57.1 L31.85 57.45 Q34.75 57.45 36.6 56.4 L39.15 55.3 Q40.6 54.2 39.85 53.1 L40.6 53.85 Q42.4 52.75 43.85 50.55 44.6 46.9 45.35 45.45 L44.6 45.45 44.95 44.7 Q45.35 44.35 45.35 44.0 L45.35 42.55 45.35 41.45 44.95 38.5 Q44.6 35.6 43.5 35.6 42.45 36.15 42.15 36.5 L42.8 35.25 39.85 36.35 41.65 34.55 Q41.3 34.9 40.95 34.9 40.6 34.9 40.25 35.25 L40.6 34.15 40.95 33.05 Q40.95 31.6 38.05 30.5 L34.75 29.05 34.75 30.85 34.4 29.05 Q34.05 28.7 32.55 28.7 30.0 28.7 27.1 29.4 23.45 30.15 23.45 31.6 L23.1 30.85 23.45 32.7 23.45 33.05 22.0 31.95 22.0 31.6 21.65 31.95 20.9 32.7 19.1 34.9 Q18.0 35.95 17.65 36.7 L17.65 35.95 18.35 34.9 Q19.1 33.4 20.55 31.95 24.9 27.6 31.1 27.6 37.7 27.6 42.05 32.35 42.4 32.35 42.4 32.7 44.25 34.5 44.95 36.7 46.05 38.5 46.4 40.7 L46.4 42.9 46.4 43.6" fill="#5b2b0c" fill-rule="evenodd" stroke="none"/>
    <path d="M77.05 36.35 Q76.3 36.7 74.85 38.5 L75.6 36.7 75.95 36.7 76.3 34.5 76.3 34.15 75.95 33.8 Q76.3 33.4 76.7 33.4 75.95 33.4 75.6 33.8 L74.85 34.9 74.85 34.15 74.5 34.15 74.15 34.9 74.15 33.05 73.75 34.15 Q74.15 32.7 72.3 32.35 L69.4 31.95 69.0 32.35 Q68.65 32.7 68.3 32.7 L67.55 32.7 67.55 33.05 Q67.55 34.15 67.95 35.25 67.95 35.95 66.85 37.45 L66.1 34.9 Q65.4 33.05 64.65 33.05 L64.3 33.8 63.9 33.05 62.1 34.15 Q60.65 34.9 60.65 35.6 60.65 36.7 61.75 37.8 L60.65 37.05 60.25 36.7 60.25 37.45 Q59.55 37.45 58.8 37.8 58.8 38.15 59.55 38.5 L58.8 38.5 Q58.45 38.15 58.1 38.15 58.45 36.7 61.0 34.5 63.55 31.95 64.3 31.95 65.4 31.95 67.2 36.7 L67.2 33.4 67.2 31.6 74.15 31.95 Q75.95 32.7 77.05 33.4 77.75 33.8 77.75 34.5 L77.05 36.35 M38.75 36.35 Q38.75 36.7 36.95 38.5 36.95 37.45 37.7 36.7 L38.75 35.6 37.7 36.35 38.75 34.15 38.05 33.4 37.7 33.8 Q36.95 34.5 36.95 34.9 L36.95 34.15 36.6 34.15 36.2 35.25 36.2 33.05 35.5 34.15 Q36.2 32.7 34.75 32.35 33.3 31.6 31.5 31.6 31.1 31.6 30.75 32.35 L30.75 32.7 29.65 32.7 Q29.65 34.15 30.0 34.9 30.0 35.95 28.95 37.45 L28.2 34.9 Q27.45 33.05 26.75 33.05 L26.75 33.4 26.4 33.8 26.0 33.05 Q25.3 33.05 24.2 34.15 22.75 34.9 22.75 35.6 22.75 36.35 23.1 37.45 L22.35 36.7 22.35 37.45 20.9 37.45 Q20.9 38.15 21.25 38.5 L20.9 38.5 19.8 38.15 Q20.55 36.7 23.1 34.15 25.3 31.6 26.75 31.6 27.45 31.6 29.3 36.7 29.3 34.5 28.95 33.4 L28.95 31.25 Q32.95 30.5 36.6 31.95 38.4 32.7 38.75 33.05 39.5 33.8 39.5 34.5 L38.75 36.35" fill="#8c4e27" fill-rule="evenodd" stroke="none"/>
    <path d="M59.55 38.5 Q58.8 38.15 58.8 37.8 59.55 37.45 60.25 37.45 L60.25 36.7 60.65 37.05 61.75 37.8 Q60.65 36.7 60.65 35.6 60.65 34.9 62.1 34.15 L63.9 33.05 64.3 33.8 64.65 33.05 Q65.4 33.05 66.1 34.9 L66.85 37.45 Q67.95 35.95 67.95 35.25 67.55 34.15 67.55 33.05 L67.55 32.7 68.3 32.7 Q68.65 32.7 69.0 32.35 L69.4 31.95 72.3 32.35 Q74.15 32.7 73.75 34.15 L74.15 33.05 74.15 34.9 74.5 34.15 74.85 34.15 74.85 34.9 75.6 33.8 Q75.95 33.4 76.7 33.4 76.3 33.4 75.95 33.8 L76.3 34.15 76.3 34.5 75.95 36.7 75.6 36.7 74.85 38.5 Q76.3 36.7 77.05 36.35 L76.7 36.7 Q75.95 37.8 75.95 38.15 L78.15 36.35 Q80.3 38.9 79.6 40.35 L78.15 40.7 77.4 40.7 Q79.6 41.45 80.3 42.15 L80.3 42.55 Q80.7 42.9 80.3 46.55 79.95 48.35 78.85 50.2 L75.2 52.75 74.85 52.35 Q74.85 53.1 73.75 53.85 72.3 54.55 70.85 54.55 70.1 54.55 69.75 54.2 L69.4 53.1 69.4 53.45 69.75 54.55 66.85 54.2 Q65.75 53.85 66.1 52.75 L65.75 53.1 65.4 53.85 65.4 50.2 Q64.3 52.75 64.3 53.1 63.2 52.35 62.85 52.35 61.75 51.65 61.35 50.9 L61.0 50.9 Q61.0 50.55 60.65 50.55 61.0 50.2 61.35 50.2 61.35 49.8 61.75 49.45 L62.45 48.7 63.2 48.0 63.05 48.0 61.75 48.0 59.55 48.35 Q59.2 48.35 58.8 48.0 L58.8 47.25 59.55 46.9 58.45 46.15 58.45 45.45 Q58.45 44.7 59.2 44.7 L60.25 44.35 59.9 44.35 58.1 44.7 58.1 44.35 58.45 44.0 57.7 44.0 57.7 42.55 Q57.7 41.8 58.45 41.45 L59.55 40.7 59.35 40.7 57.7 40.35 Q57.7 39.6 58.45 39.25 L60.25 38.9 60.25 38.5 59.55 38.5 M38.75 36.35 L38.75 36.7 37.7 38.15 40.6 36.35 Q42.4 38.5 41.7 40.35 L40.6 40.35 39.5 40.7 39.15 40.7 42.4 41.8 42.4 42.15 Q42.8 42.55 42.4 46.55 42.05 48.35 40.95 49.8 L40.95 50.2 37.3 52.75 Q36.95 52.35 36.95 52.0 L36.6 52.0 Q37.3 53.1 35.85 53.85 L32.55 54.2 Q32.2 54.2 31.85 53.85 L31.5 53.1 31.85 54.55 28.95 54.2 Q27.85 53.85 28.2 52.35 L27.85 52.35 27.85 53.1 27.45 53.45 27.45 49.8 26.75 53.1 Q25.3 52.35 24.9 52.35 23.8 51.65 23.45 50.9 L23.1 50.55 23.1 50.2 23.1 49.8 Q23.45 49.8 23.8 49.45 24.2 48.7 24.55 48.7 L24.9 48.0 23.8 48.0 21.65 48.0 20.9 48.0 20.9 47.25 21.65 46.55 Q20.9 46.55 20.55 46.15 L20.55 45.1 Q20.55 44.7 21.25 44.7 L22.35 44.35 21.65 44.35 20.2 44.35 20.55 44.0 19.8 44.0 19.8 42.55 Q19.8 41.45 20.2 41.05 L21.25 40.7 22.0 40.35 19.8 40.35 19.8 40.0 19.45 40.0 Q19.8 39.6 20.9 39.25 L22.35 38.5 22.0 38.5 21.25 38.5 Q20.9 38.15 20.9 37.45 L22.35 37.45 22.35 36.7 23.1 37.45 Q22.75 36.35 22.75 35.6 22.75 34.9 24.2 34.15 25.3 33.05 26.0 33.05 L26.4 33.8 26.75 33.4 26.75 33.05 Q27.45 33.05 28.2 34.9 L28.95 37.45 Q30.0 35.95 30.0 34.9 29.65 34.15 29.65 32.7 L30.75 32.7 30.75 32.35 Q31.1 31.6 31.5 31.6 33.3 31.6 34.75 32.35 36.2 32.7 35.5 34.15 L36.2 33.05 36.2 35.25 36.6 34.15 36.95 34.15 36.95 34.9 Q36.95 34.5 37.7 33.8 L38.05 33.4 38.75 34.15 37.7 36.35 38.75 35.6 37.7 36.7 Q36.95 37.45 36.95 38.5 38.75 36.7 38.75 36.35 M40.95 44.7 Q41.3 45.1 41.3 45.8 41.7 44.35 41.3 43.6 41.3 42.55 40.6 42.15 L40.25 42.15 38.75 41.05 39.85 42.15 39.15 42.15 38.75 41.8 Q38.75 42.55 40.6 44.35 40.25 44.35 40.25 44.7 L40.95 44.7 M60.65 44.7 Q61.75 42.9 64.3 41.45 64.3 41.05 63.9 41.05 L62.85 41.45 62.1 41.45 62.1 41.05 Q61.75 41.05 61.35 41.8 61.0 42.15 61.0 42.55 L60.25 42.9 Q60.25 44.0 60.65 44.7 M71.2 33.8 Q70.85 33.8 70.85 34.15 70.5 34.15 70.5 34.5 70.5 34.9 70.1 34.9 L70.1 35.95 Q70.85 35.6 71.95 35.95 L73.05 37.05 73.4 37.05 73.75 36.35 73.4 35.25 72.65 34.9 71.2 34.9 70.85 34.9 Q71.55 34.5 71.55 33.8 L71.2 33.8 M65.0 35.95 Q64.65 35.95 64.3 35.6 L64.3 37.45 Q64.3 37.8 65.0 38.15 65.4 38.15 65.4 38.5 L65.75 38.15 65.4 36.35 Q65.4 35.95 65.0 35.95 M74.15 42.9 Q74.15 41.45 73.05 40.35 L72.3 39.6 Q71.55 38.9 70.1 38.5 68.65 38.9 67.55 39.6 65.75 41.05 65.75 42.9 L65.75 43.25 Q65.75 44.35 66.1 44.7 L65.4 45.45 Q65.0 45.8 65.0 46.55 L65.4 47.65 66.45 48.0 68.3 47.65 Q68.65 48.0 69.75 48.0 70.85 48.35 71.95 48.0 71.55 48.35 70.1 48.7 69.0 49.1 68.65 50.2 68.3 50.55 68.3 51.25 68.65 53.1 71.55 52.75 73.75 52.75 75.6 50.55 L75.95 50.2 76.3 48.7 Q76.7 48.35 76.7 46.9 77.05 45.1 75.95 43.6 L75.6 42.9 74.15 42.9 M77.05 42.15 Q76.7 41.8 76.3 42.15 L76.7 42.15 Q76.7 42.55 78.5 44.35 78.15 44.35 77.75 44.7 78.15 44.7 78.85 45.1 L79.25 45.8 79.6 43.6 Q79.25 42.55 78.15 42.15 L77.75 42.15 77.05 41.45 77.75 42.55 Q77.4 42.15 77.05 42.15 M33.3 33.4 Q32.95 33.4 32.55 33.8 L32.55 34.5 32.55 34.9 32.2 35.6 Q32.95 35.25 34.05 35.6 34.75 35.95 35.1 36.7 L35.1 37.05 35.5 35.95 35.1 34.9 34.75 34.9 32.95 34.9 Q33.65 34.15 33.65 33.4 L33.3 33.4 M26.75 35.6 L26.75 37.8 Q27.45 37.8 27.45 38.15 L27.85 38.15 27.85 37.8 27.45 36.35 Q27.45 35.95 27.1 35.6 L26.75 35.6 M26.0 41.05 L24.9 41.45 24.55 41.05 23.8 41.05 Q23.45 41.05 23.1 41.8 L23.1 42.15 22.35 42.9 Q22.35 43.6 22.75 44.7 23.8 42.55 26.0 41.45 L26.0 41.05 M36.6 42.55 Q36.2 41.05 35.1 40.35 L34.4 39.6 Q33.65 38.9 32.2 38.5 30.75 38.9 29.65 39.6 27.85 40.7 27.45 42.9 27.45 44.0 27.85 44.7 L27.45 45.1 Q26.75 45.8 26.75 46.15 L26.75 46.55 27.45 47.25 Q28.2 48.0 28.95 48.0 29.65 48.0 30.0 47.25 30.75 48.0 31.85 48.0 33.3 48.0 34.4 47.25 L34.4 47.65 Q33.65 48.35 32.2 48.7 31.1 49.1 30.75 49.8 L30.75 50.9 Q30.75 52.75 33.65 52.75 35.85 52.35 37.7 50.55 38.05 50.55 38.4 49.8 38.4 49.45 38.75 48.7 L38.75 46.9 Q38.75 44.7 38.4 43.6 38.05 42.9 37.7 42.9 L36.6 42.55 M28.95 50.9 L29.65 50.9 Q28.95 50.2 28.95 49.8 L28.55 49.45 28.55 50.55 Q28.55 50.9 28.95 50.9 M66.1 50.9 L67.55 50.9 Q66.85 50.55 66.85 50.2 66.45 49.8 66.1 49.8 L66.1 50.9" fill="#a36f3c" fill-rule="evenodd" stroke="none"/>
    <path d="M54.1 43.6 L46.4 43.6 46.4 42.9 46.4 40.7 54.1 40.7 54.1 42.9 54.1 43.6" fill="#481f04" fill-rule="evenodd" stroke="none"/>
    <path d="M40.95 44.7 L40.25 44.7 Q40.25 44.35 40.6 44.35 38.75 42.55 38.75 41.8 L39.15 42.15 39.85 42.15 38.75 41.05 40.25 42.15 40.6 42.15 Q41.3 42.55 41.3 43.6 41.7 44.35 41.3 45.8 41.3 45.1 40.95 44.7 M65.0 35.95 Q65.4 35.95 65.4 36.35 L65.75 38.15 65.4 38.5 Q65.4 38.15 65.0 38.15 64.3 37.8 64.3 37.45 L64.3 35.6 Q64.65 35.95 65.0 35.95 M71.2 33.8 L71.55 33.8 Q71.55 34.5 70.85 34.9 L71.2 34.9 72.65 34.9 73.4 35.25 73.75 36.35 73.4 37.05 73.05 37.05 71.95 35.95 Q70.85 35.6 70.1 35.95 L70.1 34.9 Q70.5 34.9 70.5 34.5 70.5 34.15 70.85 34.15 70.85 33.8 71.2 33.8 M60.65 44.7 Q60.25 44.0 60.25 42.9 L61.0 42.55 Q61.0 42.15 61.35 41.8 61.75 41.05 62.1 41.05 L62.1 41.45 62.85 41.45 63.9 41.05 Q64.3 41.05 64.3 41.45 61.75 42.9 60.65 44.7 M77.05 42.15 Q77.4 42.15 77.75 42.55 L77.05 41.45 77.75 42.15 78.15 42.15 Q79.25 42.55 79.6 43.6 L79.25 45.8 78.85 45.1 Q78.15 44.7 77.75 44.7 78.15 44.35 78.5 44.35 76.7 42.55 76.7 42.15 L76.3 42.15 Q76.7 41.8 77.05 42.15 M71.55 40.0 Q71.95 40.0 72.3 39.6 71.95 40.7 72.3 41.45 72.65 42.15 73.4 42.55 72.65 42.55 72.3 42.9 L71.95 44.0 71.95 41.05 70.5 40.35 71.95 40.7 71.95 40.35 71.55 40.0 M33.3 33.4 L33.65 33.4 Q33.65 34.15 32.95 34.9 L34.75 34.9 35.1 34.9 35.5 35.95 35.1 37.05 35.1 36.7 Q34.75 35.95 34.05 35.6 32.95 35.25 32.2 35.6 L32.55 34.9 32.55 34.5 32.55 33.8 Q32.95 33.4 33.3 33.4 M26.0 41.05 L26.0 41.45 Q23.8 42.55 22.75 44.7 22.35 43.6 22.35 42.9 L23.1 42.15 23.1 41.8 Q23.45 41.05 23.8 41.05 L24.55 41.05 24.9 41.45 26.0 41.05 M26.75 35.6 L27.1 35.6 Q27.45 35.95 27.45 36.35 L27.85 37.8 27.85 38.15 27.45 38.15 Q27.45 37.8 26.75 37.8 L26.75 35.6 M33.65 39.6 L34.4 39.6 Q34.05 40.7 34.75 41.45 L35.1 42.55 Q34.75 42.55 34.75 42.9 L34.4 43.6 Q33.65 41.8 33.65 40.7 L32.55 40.35 33.65 40.35 33.65 39.6 M28.95 50.9 Q28.55 50.9 28.55 50.55 L28.55 49.45 28.95 49.8 Q28.95 50.2 29.65 50.9 L28.95 50.9 M66.1 50.9 L66.1 49.8 Q66.45 49.8 66.85 50.2 66.85 50.55 67.55 50.9 L66.1 50.9" fill="#9c5c33" fill-rule="evenodd" stroke="none"/>
    <path d="M59.35 40.7 L59.55 40.7 58.45 41.45 Q57.7 41.8 57.7 42.55 L57.7 44.0 58.45 44.0 58.1 44.35 58.1 44.7 59.9 44.35 60.25 44.35 59.2 44.7 Q58.45 44.7 58.45 45.45 L58.45 46.15 59.55 46.9 58.8 47.25 58.8 48.0 Q59.2 48.35 59.55 48.35 L61.75 48.0 63.05 48.0 Q62.05 48.05 61.35 48.35 60.25 48.35 59.9 48.7 L58.45 48.7 Q56.25 44.7 57.35 41.05 58.1 41.05 58.45 40.7 L59.35 40.7 M21.25 40.7 L20.2 41.05 Q19.8 41.45 19.8 42.55 L19.8 44.0 20.55 44.0 20.2 44.35 21.65 44.35 22.35 44.35 21.25 44.7 Q20.55 44.7 20.55 45.1 L20.55 46.15 Q20.9 46.55 21.65 46.55 L20.9 47.25 20.9 48.0 21.65 48.0 23.8 48.0 24.9 48.0 23.45 48.35 22.0 48.35 20.9 48.35 Q18.35 44.7 19.1 40.7 19.8 41.05 20.9 40.7 L21.25 40.7" fill="#91552f" fill-rule="evenodd" stroke="none"/>
    <path d="M66.1 44.7 Q65.75 44.35 65.75 43.25 L65.75 42.9 Q65.75 41.05 67.55 39.6 68.65 38.9 70.1 38.5 71.55 38.9 72.3 39.6 L73.05 40.35 Q74.15 41.45 74.15 42.9 73.4 42.9 73.05 44.7 L72.3 47.25 72.3 47.65 71.95 48.0 Q70.85 48.35 69.75 48.0 68.65 48.0 68.3 47.65 L68.3 46.55 Q68.3 44.7 66.1 44.7 M71.55 40.0 L71.95 40.35 71.95 40.7 70.5 40.35 71.95 41.05 71.95 44.0 72.3 42.9 Q72.65 42.55 73.4 42.55 72.65 42.15 72.3 41.45 71.95 40.7 72.3 39.6 71.95 40.0 71.55 40.0 M27.85 44.7 Q27.45 44.0 27.45 42.9 27.85 40.7 29.65 39.6 30.75 38.9 32.2 38.5 33.65 38.9 34.4 39.6 L35.1 40.35 Q36.2 41.05 36.6 42.55 35.5 42.9 35.1 44.35 34.75 46.55 34.75 47.25 L34.4 47.25 Q33.3 48.0 31.85 48.0 30.75 48.0 30.0 47.25 L30.4 47.25 30.75 46.55 Q30.75 44.7 28.55 44.7 L27.85 44.7 M33.65 39.6 L33.65 40.35 32.55 40.35 33.65 40.7 Q33.65 41.8 34.4 43.6 L34.75 42.9 Q34.75 42.55 35.1 42.55 L34.75 41.45 Q34.05 40.7 34.4 39.6 L33.65 39.6" fill="#ad753f" fill-rule="evenodd" stroke="none"/>
    <path d="M74.15 42.9 L75.6 42.9 75.95 43.6 Q77.05 45.1 76.7 46.9 76.7 48.35 76.3 48.7 L75.95 50.2 75.6 50.55 Q73.75 52.75 71.55 52.75 68.65 53.1 68.3 51.25 68.3 50.55 68.65 50.2 69.0 49.1 70.1 48.7 71.55 48.35 71.95 48.0 L72.3 47.65 72.3 47.25 73.05 44.7 Q73.4 42.9 74.15 42.9 M68.3 47.65 L66.45 48.0 65.4 47.65 65.0 46.55 Q65.0 45.8 65.4 45.45 L66.1 44.7 Q68.3 44.7 68.3 46.55 L68.3 47.65 M36.6 42.55 L37.7 42.9 Q38.05 42.9 38.4 43.6 38.75 44.7 38.75 46.9 L38.75 48.7 Q38.4 49.45 38.4 49.8 38.05 50.55 37.7 50.55 35.85 52.35 33.65 52.75 30.75 52.75 30.75 50.9 L30.75 49.8 Q31.1 49.1 32.2 48.7 33.65 48.35 34.4 47.65 L34.4 47.25 34.75 47.25 Q34.75 46.55 35.1 44.35 35.5 42.9 36.6 42.55 M30.0 47.25 Q29.65 48.0 28.95 48.0 28.2 48.0 27.45 47.25 L26.75 46.55 26.75 46.15 Q26.75 45.8 27.45 45.1 L27.85 44.7 28.55 44.7 Q30.75 44.7 30.75 46.55 L30.4 47.25 30.0 47.25" fill="#d7a356" fill-rule="evenodd" stroke="none"/>
    <path d="M60.65 50.55 Q61.0 50.55 61.0 50.9 L61.35 50.9 Q61.75 51.65 62.85 52.35 63.2 52.35 64.3 53.1 64.3 52.75 65.4 50.2 L65.4 53.85 65.75 53.1 66.1 52.75 Q65.75 53.85 66.85 54.2 L69.75 54.55 69.4 53.45 69.4 53.1 69.75 54.2 Q70.1 54.55 70.85 54.55 72.3 54.55 73.75 53.85 74.85 53.1 74.85 52.35 L75.2 52.75 78.85 50.2 76.7 52.35 Q73.75 54.9 69.4 54.9 66.45 54.9 64.3 54.2 61.0 52.35 60.25 50.55 L60.65 50.55 M23.1 50.2 L23.1 50.55 23.45 50.9 Q23.8 51.65 24.9 52.35 25.3 52.35 26.75 53.1 L27.45 49.8 27.45 53.45 27.85 53.1 27.85 52.35 28.2 52.35 Q27.85 53.85 28.95 54.2 L31.85 54.55 31.5 53.1 31.85 53.85 Q32.2 54.2 32.55 54.2 L35.85 53.85 Q37.3 53.1 36.6 52.0 L36.95 52.0 Q36.95 52.35 37.3 52.75 L40.95 50.2 Q40.25 51.25 38.75 52.35 35.85 54.9 31.1 54.9 28.95 54.9 26.4 53.85 23.1 52.35 22.75 50.55 L23.1 50.2" fill="#854e2c" fill-rule="evenodd" stroke="none"/>
    <path d="M33.65 56.4 L32.95 56.4 30.75 56.4 30.4 57.1 30.0 57.1 Q30.4 56.75 29.65 56.75 L28.95 56.75 Q27.85 56.75 27.1 56.0 27.45 56.0 28.2 56.4 L28.95 56.4 30.0 55.65 30.4 56.4 31.5 55.65 31.85 56.0 32.55 56.0 33.65 56.4 M33.7 56.4 L34.75 56.0 35.5 55.3 Q35.5 56.0 34.75 56.4 L33.7 56.4 M73.75 55.65 Q73.75 56.4 72.65 56.4 L70.85 56.75 69.4 56.4 68.65 56.4 68.3 57.1 Q68.3 56.75 67.55 56.75 L66.85 56.75 Q66.1 56.75 65.4 56.0 L66.1 56.4 66.85 56.4 Q67.2 56.4 67.95 56.0 L68.3 56.4 68.65 56.4 69.75 56.0 70.1 56.0 Q70.1 56.4 70.5 56.4 L71.55 56.4 Q71.95 56.4 72.65 56.0 L73.75 55.3 73.75 55.65" fill="#7b4420" fill-rule="evenodd" stroke="none"/>
    <path d="M83.6 73.85 L81.05 70.2 Q79.25 67.65 78.85 66.6 L82.15 70.6 78.15 62.95 78.15 62.55 82.85 69.5 Q85.45 73.5 87.6 76.05 83.6 72.05 82.85 71.7 L84.7 75.7 Q83.95 74.95 83.6 73.85 M81.4 82.95 L79.95 81.5 Q80.7 83.7 80.7 84.45 L80.7 85.15 78.85 81.9 Q78.15 81.5 77.75 80.8 77.75 80.05 77.4 79.35 L77.05 77.85 75.2 73.5 75.2 73.15 Q77.05 77.85 78.5 79.7 L75.2 69.15 75.2 68.75 77.75 75.3 Q78.85 78.25 79.95 80.05 L79.95 79.7 79.65 78.35 82.85 84.8 81.4 82.95 M79.95 81.5 L79.6 81.15 79.6 81.5 79.95 81.5" fill="#a60c49" fill-rule="evenodd" stroke="none"/>
    <path d="M83.6 73.85 Q83.95 74.95 84.7 75.7 L82.85 71.7 Q83.6 72.05 87.6 76.05 85.45 73.5 82.85 69.5 L78.15 62.55 78.15 62.95 82.15 70.6 78.85 66.6 Q79.25 67.65 81.05 70.2 L83.6 73.85 M78.5 86.6 L77.4 83.7 76.7 86.25 72.3 87.35 68.3 72.75 71.55 88.8 68.65 89.55 67.95 85.9 67.95 89.9 59.9 90.6 59.55 86.25 59.2 90.6 53.35 90.6 52.25 91.0 46.05 90.25 46.05 89.15 45.7 90.25 42.05 89.9 42.05 84.05 40.95 89.9 40.6 89.9 39.5 89.55 Q33.3 88.45 27.85 86.6 L27.45 85.5 27.1 86.6 Q23.1 85.5 19.1 83.7 L19.8 81.9 18.35 82.6 14.7 81.15 16.9 75.3 17.65 74.25 13.25 79.35 11.45 78.6 18.35 66.95 Q18.35 66.6 18.7 66.6 L18.7 66.2 19.1 66.2 18.7 67.3 18.7 67.65 Q18.0 68.75 18.0 69.15 L18.7 68.05 Q19.45 65.85 22.35 61.5 L24.9 61.85 26.75 62.2 27.45 62.2 29.3 62.55 32.2 63.3 30.75 75.3 33.3 66.2 32.55 72.75 36.2 64.05 Q46.8 64.75 56.65 64.4 L65.4 64.05 68.3 63.3 73.4 62.2 73.75 62.2 75.95 61.85 76.3 61.85 78.85 61.1 92.0 77.85 Q90.9 80.05 88.35 81.15 L85.8 77.15 87.6 82.25 87.25 82.6 86.9 81.9 78.15 69.85 77.75 70.2 85.45 82.6 83.25 84.8 Q81.05 85.9 78.5 86.6 M4.85 82.95 L4.5 82.6 20.55 60.75 22.35 61.5 Q21.25 61.5 20.55 61.1 L4.85 82.95 M68.3 63.65 L65.4 64.05 67.55 67.65 69.4 72.05 69.75 72.05 69.75 70.95 Q69.4 67.3 68.3 63.65 70.1 68.05 73.4 74.25 73.4 73.15 72.65 69.5 L71.2 63.3 Q71.95 65.5 72.65 66.2 L73.75 68.75 Q73.4 65.5 73.4 64.05 L73.4 62.55 68.3 63.65 M81.4 82.95 L82.85 84.8 79.65 78.35 79.95 79.7 79.95 80.05 Q78.85 78.25 77.75 75.3 L75.2 68.75 75.2 69.15 78.5 79.7 Q77.05 77.85 75.2 73.15 L75.2 73.5 77.05 77.85 77.4 79.35 Q77.75 80.05 77.75 80.8 78.15 81.5 78.85 81.9 L80.7 85.15 80.7 84.45 Q80.7 83.7 79.95 81.5 L81.4 82.95 M27.85 62.55 L23.1 81.5 29.3 62.95 27.85 62.55 M23.1 64.75 L21.25 68.05 Q19.8 70.2 19.45 71.3 L18.0 75.7 18.0 76.05 17.25 78.25 18.0 77.15 19.05 75.75 Q18.7 76.1 18.7 76.8 L18.0 81.5 22.35 69.85 19.8 73.85 23.1 64.75 M75.95 64.4 Q75.95 62.95 76.3 62.2 L73.75 62.55 Q73.75 62.95 74.15 63.3 L74.85 65.1 75.6 67.3 75.95 67.3 75.95 64.4 M79.95 81.5 L79.6 81.5 79.6 81.15 79.95 81.5" fill="url(#gradient0)" fill-rule="evenodd" stroke="none"/>
    <path d="M94.55 77.85 L96.75 80.8 Q93.8 82.95 90.55 84.8 L88.7 81.9 94.55 77.85 M89.45 85.9 Q84.7 88.05 79.95 89.9 L78.5 86.6 Q81.05 85.9 83.25 84.8 L87.25 82.6 87.6 82.25 89.45 85.9 M77.75 87.0 L78.15 91.0 77.75 91.0 Q74.15 92.45 69.75 93.55 L68.65 89.55 71.55 88.8 76.3 87.7 77.75 87.0 M67.95 93.9 Q63.9 95.0 59.9 95.35 L59.9 90.6 67.95 89.9 67.95 93.9 M59.2 90.6 L58.8 95.75 58.45 95.75 52.25 95.75 Q49.7 96.1 46.4 95.75 L46.05 90.25 52.25 91.0 53.35 90.6 59.2 90.6 M44.6 95.75 L42.4 95.75 42.05 89.9 45.7 90.25 44.6 95.75 M39.85 95.75 L39.5 95.75 Q39.15 95.35 38.75 95.35 L39.5 89.55 40.6 89.9 40.95 89.9 39.85 95.75 M37.3 95.35 Q33.65 94.65 30.4 93.55 L29.65 89.9 28.55 93.55 27.85 86.6 Q33.3 88.45 39.5 89.55 L37.3 95.35 M25.3 92.45 L21.25 91.0 22.35 85.9 20.55 90.6 Q19.45 89.9 18.7 89.9 L18.0 89.9 19.1 83.7 16.9 89.15 Q13.6 87.7 11.05 86.25 L13.6 81.5 18.7 83.7 19.1 83.7 Q23.1 85.5 27.1 86.6 26.4 90.25 25.3 92.45 M9.95 85.9 L9.6 85.9 7.05 84.45 Q7.4 83.35 8.9 80.8 L9.25 79.35 9.95 76.4 9.6 79.35 Q9.25 80.0 9.25 81.05 9.3 80.05 9.95 79.7 L13.25 81.5 9.95 85.9" fill="url(#gradient1)" fill-rule="evenodd" stroke="none"/>
    <path d="M83.25 84.8 L85.45 82.6 77.75 70.2 78.15 69.85 86.9 81.9 87.25 82.6 83.25 84.8" fill="url(#gradient2)" fill-rule="evenodd" stroke="none"/>
    <path d="M90.55 84.8 L90.9 85.15 90.15 85.15 89.45 85.9 87.6 82.25 85.8 77.15 88.35 81.15 88.7 81.9 90.55 84.8 M69.75 93.55 L67.95 94.25 67.95 93.9 67.95 89.9 67.95 85.9 68.65 89.55 69.75 93.55 M46.4 95.75 L46.4 96.1 44.6 96.1 44.6 95.75 45.7 90.25 46.05 89.15 46.05 90.25 46.4 95.75 M42.4 95.75 L39.85 95.75 40.95 89.9 42.05 84.05 42.05 89.9 42.4 95.75" fill="url(#gradient3)" fill-rule="evenodd" stroke="none"/>
    <path d="M79.95 60.75 L94.55 77.85 88.7 81.9 88.35 81.15 Q90.9 80.05 92.0 77.85 L78.85 61.1 Q79.25 60.75 79.95 60.75" fill="url(#gradient4)" fill-rule="evenodd" stroke="none"/>
    <path d="M20.55 60.75 L20.9 57.85 Q49.7 64.4 79.25 57.85 L79.95 60.75 Q79.25 60.75 78.85 61.1 L76.3 61.85 75.95 61.85 73.75 62.2 73.4 62.2 68.3 63.3 65.4 64.05 56.65 64.4 Q46.8 64.75 36.2 64.05 34.4 64.05 32.2 63.3 L29.3 62.55 27.45 62.2 26.75 62.2 24.9 61.85 22.35 61.5 20.55 60.75" fill="url(#gradient5)" fill-rule="evenodd" stroke="none"/>
    <path d="M7.05 84.45 Q6.35 83.7 5.25 83.35 L4.85 82.95 20.55 61.1 Q21.25 61.5 22.35 61.5 19.45 65.85 18.7 68.05 L18.0 69.15 Q18.0 68.75 18.7 67.65 L18.7 67.3 19.1 66.2 18.7 66.2 18.7 66.6 Q18.35 66.6 18.35 66.95 17.25 68.05 14.0 73.15 11.05 76.8 9.95 79.7 9.3 80.05 9.25 81.05 9.25 80.0 9.6 79.35 L9.95 76.4 9.25 79.35 8.9 80.8 Q7.4 83.35 7.05 84.45" fill="url(#gradient6)" fill-rule="evenodd" stroke="none"/>
    <path d="M36.2 64.05 L32.55 72.75 33.3 66.2 30.75 75.3 32.2 63.3 Q34.4 64.05 36.2 64.05 M27.85 62.55 L29.3 62.95 23.1 81.5 27.85 62.55 M23.1 64.75 L19.8 73.85 22.35 69.85 18.0 81.5 18.7 76.8 Q18.7 76.1 19.05 75.75 L18.0 77.15 17.25 78.25 18.0 76.05 18.0 75.7 19.45 71.3 Q19.8 70.2 21.25 68.05 L23.1 64.75" fill="#de2e75" fill-rule="evenodd" stroke="none"/>
    <path d="M18.35 66.95 L11.45 78.6 13.25 79.35 17.65 74.25 16.9 75.3 14.7 81.15 18.35 82.6 19.8 81.9 19.1 83.7 18.7 83.7 13.6 81.5 16.9 75.3 13.25 81.5 9.95 79.7 Q11.05 76.8 14.0 73.15 17.25 68.05 18.35 66.95" fill="url(#gradient7)" fill-rule="evenodd" stroke="none"/>
    <path d="M11.05 86.25 L11.05 86.6 9.95 85.9 13.25 81.5 16.9 75.3 13.6 81.5 11.05 86.25" fill="#bf2361" fill-rule="evenodd" stroke="none"/>
    <path d="M18.0 89.9 L17.65 89.9 Q17.25 89.9 16.9 89.55 L16.9 89.15 19.1 83.7 18.0 89.9" fill="#f579aa" fill-rule="evenodd" stroke="none"/>
    <path d="M30.4 93.55 L30.4 93.9 28.55 93.55 26.4 92.8 26.75 92.8 27.1 86.6 27.45 85.5 27.85 86.6 28.55 93.55 29.65 89.9 30.4 93.55" fill="url(#gradient8)" fill-rule="evenodd" stroke="none"/>
    <path d="M26.4 92.8 Q26.0 92.45 25.3 92.45 26.4 90.25 27.1 86.6 L26.75 92.8 26.4 92.8" fill="url(#gradient9)" fill-rule="evenodd" stroke="none"/>
    <path d="M38.75 95.35 L37.3 95.35 39.5 89.55 38.75 95.35" fill="url(#gradient10)" fill-rule="evenodd" stroke="none"/>
    <path d="M65.4 64.05 L68.3 63.65 Q69.4 67.3 69.75 70.95 L69.75 72.05 69.4 72.05 67.55 67.65 65.4 64.05" fill="url(#gradient11)" fill-rule="evenodd" stroke="none"/>
    <path d="M75.95 64.4 L75.95 67.3 75.6 67.3 74.85 65.1 74.15 63.3 Q73.75 62.95 73.75 62.55 L76.3 62.2 Q75.95 62.95 75.95 64.4" fill="url(#gradient12)" fill-rule="evenodd" stroke="none"/>
    <path d="M68.3 63.65 L73.4 62.55 73.4 64.05 Q73.4 65.5 73.75 68.75 L72.65 66.2 Q71.95 65.5 71.2 63.3 L72.65 69.5 Q73.4 73.15 73.4 74.25 70.1 68.05 68.3 63.65" fill="url(#gradient13)" fill-rule="evenodd" stroke="none"/>
    <path d="M77.4 83.7 L77.75 87.0 76.3 87.7 71.55 88.8 68.3 72.75 72.3 87.35 76.7 86.25 77.4 83.7" fill="url(#gradient14)" fill-rule="evenodd" stroke="none"/>
    <path d="M44.6 71.7 L44.6 70.2 48.6 69.85 53.35 69.5 Q53.0 72.05 53.7 76.4 53.7 77.85 54.1 79.7 L54.1 80.05 54.1 81.5 53.0 82.6 51.55 77.15 51.15 85.9 49.7 86.25 Q49.7 80.8 48.25 76.05 L47.5 85.5 46.4 84.45 46.4 82.25 46.4 81.9 45.7 75.3 44.6 84.8 43.15 84.05 44.6 71.7" fill="url(#gradient15)" fill-rule="evenodd" stroke="none"/>
    <path d="M44.6 71.7 L43.15 84.05 44.6 84.8 45.7 75.3 46.4 81.9 Q46.05 81.15 46.05 80.8 L45.7 78.25 45.7 80.05 45.7 80.8 Q45.35 81.9 45.35 82.6 L45.35 87.0 Q43.5 85.9 42.05 85.9 L43.5 78.25 44.6 71.7 M46.4 82.25 L46.4 84.45 47.5 85.5 48.25 76.05 Q49.7 80.8 49.7 86.25 L51.15 85.9 51.55 77.15 53.0 82.6 54.1 81.5 54.45 82.95 53.35 83.7 52.6 84.45 52.25 83.35 52.25 82.25 51.9 79.7 52.25 87.0 49.7 87.7 49.0 87.7 49.0 83.7 Q48.65 82.35 48.6 81.0 L48.6 79.7 Q48.25 81.15 48.25 83.35 48.25 85.9 48.6 87.7 46.8 86.25 46.05 86.6 L46.4 82.25" fill="url(#gradient16)" fill-rule="evenodd" stroke="none"/>
    <path d="M54.1 81.5 L54.1 80.05 55.15 83.35 Q54.45 83.35 53.7 84.05 L53.0 85.5 Q52.25 84.5 52.25 83.45 L52.25 87.0 52.25 87.35 49.35 88.05 48.6 88.05 46.05 87.35 46.05 86.6 Q46.8 86.25 48.6 87.7 48.25 85.9 48.25 83.35 48.25 81.15 48.6 79.7 L48.6 81.0 48.6 87.7 48.6 88.05 Q48.6 87.7 49.0 87.7 L49.7 87.7 52.25 87.0 51.9 79.7 52.25 82.25 52.25 83.35 52.6 84.45 53.35 83.7 54.45 82.95 54.1 81.5 M45.7 80.8 L45.7 82.25 45.7 87.7 Q43.15 86.6 42.4 86.6 L42.05 85.9 Q43.5 85.9 45.35 87.0 L45.35 82.6 Q45.35 81.9 45.7 80.8" fill="#be1c5d" fill-rule="evenodd" stroke="none"/>
    <path d="M71.2 78.95 L71.95 80.8 69.75 81.5 68.3 76.4 69.4 81.9 65.4 84.45 64.65 79.35 64.65 84.45 61.35 84.8 61.75 79.35 60.65 85.9 57.35 85.9 59.2 70.95 59.55 70.95 58.45 84.05 60.25 83.7 62.1 77.15 62.1 82.95 63.9 83.35 64.3 75.7 65.75 82.95 68.3 81.15 67.2 72.75 70.1 79.7 71.2 78.95" fill="url(#gradient17)" fill-rule="evenodd" stroke="none"/>
    <path d="M59.55 70.95 L67.2 68.4 71.2 78.95 70.1 79.7 67.2 72.75 68.3 81.15 65.75 82.95 64.3 75.7 63.9 83.35 62.1 82.95 62.1 77.15 60.25 83.7 58.45 84.05 59.55 70.95" fill="url(#gradient18)" fill-rule="evenodd" stroke="none"/>
    <path d="M28.55 77.15 L30.4 72.75 30.4 72.4 34.75 73.5 39.15 74.25 39.15 74.95 Q38.75 74.95 38.75 75.3 L38.05 81.9 Q37.7 82.6 37.7 83.35 L36.6 83.7 35.85 79.35 34.4 85.15 32.55 85.5 Q33.3 81.5 32.55 77.85 L30.75 84.05 29.65 83.35 30.75 76.8 27.1 82.95 26.4 81.9 28.55 77.15" fill="url(#gradient19)" fill-rule="evenodd" stroke="none"/>
    <path d="M31.5 86.25 Q32.2 84.05 32.2 82.95 L32.2 81.9 32.55 80.8 32.55 80.05 Q31.85 81.15 31.5 82.6 30.75 84.8 30.75 85.9 29.65 84.45 28.95 84.45 L28.95 83.7 29.65 80.8 29.65 80.4 30.0 79.7 30.0 78.6 Q29.3 80.05 28.95 81.9 L27.85 84.45 Q26.75 83.35 24.9 82.95 26.0 81.9 27.85 77.85 L28.55 77.15 26.4 81.9 27.1 82.95 30.75 76.8 29.65 83.35 30.75 84.05 32.55 77.85 Q33.3 81.5 32.55 85.5 L34.4 85.15 35.85 79.35 36.6 83.7 37.7 83.35 37.7 84.05 36.6 84.45 35.85 84.8 35.85 81.15 34.75 86.25 32.2 86.25 31.5 86.25" fill="url(#gradient20)" fill-rule="evenodd" stroke="none"/>
    <path d="M38.75 75.3 Q38.4 83.35 38.75 84.8 37.7 84.8 35.85 85.9 L35.85 84.8 35.1 87.0 32.2 87.0 31.5 86.25 32.2 86.25 34.75 86.25 35.85 81.15 35.85 84.8 36.6 84.45 37.7 84.05 37.7 83.35 Q37.7 82.6 38.05 81.9 L38.75 75.3 M32.2 81.9 L30.75 86.6 Q30.75 86.25 29.65 85.9 28.95 85.15 28.55 85.15 L28.95 84.45 Q29.65 84.45 30.75 85.9 30.75 84.8 31.5 82.6 31.85 81.15 32.55 80.05 L32.55 80.8 32.2 81.9 M29.65 80.8 L27.85 85.15 26.75 84.45 Q26.0 83.7 24.9 83.7 L24.9 82.95 Q26.75 83.35 27.85 84.45 L28.95 81.9 Q29.3 80.05 30.0 78.6 L30.0 79.7 29.65 80.4 29.65 80.8" fill="#be1c5d" fill-rule="evenodd" stroke="none"/>
    <path d="M33.6 6.75 Q31.85 6.75 30.55 5.5 29.3 4.25 29.3 2.45 29.3 0.65 30.55 -0.6 31.85 -1.9 33.6 -1.9 35.4 -1.9 36.7 -0.6 37.95 0.65 37.95 2.45 37.95 4.25 36.7 5.5 35.4 6.75 33.6 6.75" fill="#ff6dbd" fill-rule="evenodd" stroke="none"/>
    <path d="M41.05 7.55 Q39.3 7.55 38.0 6.3 36.75 5.05 36.75 3.25 36.75 1.45 38.0 0.2 39.3 -1.1 41.05 -1.1 42.85 -1.1 44.15 0.2 45.4 1.45 45.4 3.25 45.4 5.05 44.15 6.3 42.85 7.55 41.05 7.55" fill="#ff6dbd" fill-rule="evenodd" stroke="none"/>
    <path d="M41.35 14.85 Q39.6 14.85 38.3 13.6 37.05 12.35 37.05 10.55 37.05 8.75 38.3 7.5 39.6 6.2 41.35 6.2 43.15 6.2 44.45 7.5 45.7 8.75 45.7 10.55 45.7 12.35 44.45 13.6 43.15 14.85 41.35 14.85" fill="#ff6dbd" fill-rule="evenodd" stroke="none"/>
    <path d="M42.65 3.95 Q42.65 5.05 41.85 5.85 41.1 6.65 39.95 6.65 38.8 6.65 38.05 5.85 37.3 5.05 37.3 3.95 37.3 2.8 38.05 2.05 38.8 1.3 39.95 1.3 41.1 1.3 41.85 2.05 42.65 2.8 42.65 3.95" fill="#ffb8e0" fill-rule="evenodd" stroke="none"/>
    <path d="M34.25 18.25 Q32.5 18.25 31.2 17.0 29.95 15.75 29.95 13.95 29.95 12.15 31.2 10.9 32.5 9.6 34.25 9.6 36.05 9.6 37.35 10.9 38.6 12.15 38.6 13.95 38.6 15.75 37.35 17.0 36.05 18.25 34.25 18.25" fill="#ff6dbd" fill-rule="evenodd" stroke="none"/>
    <path d="M29.65 12.95 Q27.9 12.95 26.6 11.7 25.35 10.45 25.35 8.65 25.35 6.85 26.6 5.6 27.9 4.3 29.65 4.3 31.45 4.3 32.75 5.6 34.0 6.85 34.0 8.65 34.0 10.45 32.75 11.7 31.45 12.95 29.65 12.95" fill="#ff6dbd" fill-rule="evenodd" stroke="none"/>
    <path d="M36.45 2.55 Q36.45 3.65 35.65 4.45 34.9 5.25 33.75 5.25 32.6 5.25 31.85 4.45 31.1 3.65 31.1 2.55 31.1 1.4 31.85 0.65 32.6 -0.1 33.75 -0.1 34.9 -0.1 35.65 0.65 36.45 1.4 36.45 2.55" fill="#ffb8e0" fill-rule="evenodd" stroke="none"/>
    <path d="M43.0 10.5 Q43.0 11.55 42.25 12.4 41.5 13.15 40.35 13.15 39.2 13.15 38.45 12.4 37.7 11.55 37.7 10.5 37.7 9.4 38.45 8.6 39.2 7.85 40.35 7.85 41.5 7.85 42.25 8.6 43.0 9.4 43.0 10.5" fill="#ffb8e0" fill-rule="evenodd" stroke="none"/>
    <path d="M36.85 13.25 Q36.85 14.3 36.1 15.15 35.35 15.9 34.2 15.9 33.1 15.9 32.3 15.15 31.55 14.3 31.55 13.25 31.55 12.1 32.3 11.35 33.1 10.6 34.2 10.6 35.35 10.6 36.1 11.35 36.85 12.1 36.85 13.25" fill="#ffb8e0" fill-rule="evenodd" stroke="none"/>
    <path d="M32.75 8.75 Q32.75 9.85 31.95 10.65 31.2 11.45 30.05 11.45 28.9 11.45 28.15 10.65 27.4 9.85 27.4 8.75 27.4 7.6 28.15 6.85 28.9 6.1 30.05 6.1 31.2 6.1 31.95 6.85 32.75 7.6 32.75 8.75" fill="#ffb8e0" fill-rule="evenodd" stroke="none"/>
    <path d="M40.85 7.3 Q40.85 9.3 39.45 10.75 38.05 12.15 36.0 12.15 34.0 12.15 32.6 10.75 31.2 9.3 31.2 7.3 31.2 5.3 32.6 3.9 34.0 2.5 36.0 2.5 38.05 2.5 39.45 3.9 40.85 5.3 40.85 7.3" fill="#fcd2ea" fill-rule="evenodd" stroke="none"/>
    <path d="M39.15 7.9 Q39.15 9.2 38.25 10.2 37.3 11.15 35.95 11.15 34.55 11.15 33.6 10.2 32.7 9.2 32.7 7.9 32.7 6.55 33.6 5.6 34.55 4.7 35.95 4.7 37.3 4.7 38.25 5.6 39.15 6.55 39.15 7.9" fill="#ffb8e0" fill-rule="evenodd" stroke="none"/>
    <path d="M29.65 19.4 Q27.9 19.4 26.6 18.15 25.35 16.9 25.35 15.1 25.35 13.3 26.6 12.05 27.9 10.75 29.65 10.75 31.45 10.75 32.75 12.05 34.0 13.3 34.0 15.1 34.0 16.9 32.75 18.15 31.45 19.4 29.65 19.4" fill="#ff6dbd" fill-rule="evenodd" stroke="none"/>
    <path d="M37.35 21.05 Q35.6 21.05 34.3 19.8 33.05 18.55 33.05 16.75 33.05 14.95 34.3 13.7 35.6 12.4 37.35 12.4 39.15 12.4 40.45 13.7 41.7 14.95 41.7 16.75 41.7 18.55 40.45 19.8 39.15 21.05 37.35 21.05" fill="#ff6dbd" fill-rule="evenodd" stroke="none"/>
    <path d="M37.65 28.95 Q35.9 28.95 34.6 27.7 33.35 26.45 33.35 24.65 33.35 22.85 34.6 21.6 35.9 20.3 37.65 20.3 39.45 20.3 40.75 21.6 42.0 22.85 42.0 24.65 42.0 26.45 40.75 27.7 39.45 28.95 37.65 28.95" fill="#ff6dbd" fill-rule="evenodd" stroke="none"/>
    <path d="M40.5 17.5 Q40.5 18.6 39.7 19.4 38.95 20.2 37.8 20.2 36.65 20.2 35.9 19.4 35.15 18.6 35.15 17.5 35.15 16.35 35.9 15.6 36.65 14.85 37.8 14.85 38.95 14.85 39.7 15.6 40.5 16.35 40.5 17.5" fill="#ffb8e0" fill-rule="evenodd" stroke="none"/>
    <path d="M31.45 31.25 Q29.7 31.25 28.4 30.0 27.15 28.75 27.15 26.95 27.15 25.15 28.4 23.9 29.7 22.6 31.45 22.6 33.25 22.6 34.55 23.9 35.8 25.15 35.8 26.95 35.8 28.75 34.55 30.0 33.25 31.25 31.45 31.25" fill="#ff6dbd" fill-rule="evenodd" stroke="none"/>
    <path d="M27.1 27.25 Q25.35 27.25 24.05 26.0 22.8 24.75 22.8 22.95 22.8 21.15 24.05 19.9 25.35 18.6 27.1 18.6 28.9 18.6 30.2 19.9 31.45 21.15 31.45 22.95 31.45 24.75 30.2 26.0 28.9 27.25 27.1 27.25" fill="#ff6dbd" fill-rule="evenodd" stroke="none"/>
    <path d="M32.75 15.75 Q32.75 16.85 31.95 17.65 31.2 18.45 30.05 18.45 28.9 18.45 28.15 17.65 27.4 16.85 27.4 15.75 27.4 14.6 28.15 13.85 28.9 13.1 30.05 13.1 31.2 13.1 31.95 13.85 32.75 14.6 32.75 15.75" fill="#ffb8e0" fill-rule="evenodd" stroke="none"/>
    <path d="M40.85 24.2 Q40.85 25.25 40.1 26.1 39.35 26.85 38.2 26.85 37.05 26.85 36.3 26.1 35.55 25.25 35.55 24.2 35.55 23.1 36.3 22.3 37.05 21.55 38.2 21.55 39.35 21.55 40.1 22.3 40.85 23.1 40.85 24.2" fill="#ffb8e0" fill-rule="evenodd" stroke="none"/>
    <path d="M34.7 27.15 Q34.7 28.2 33.95 29.05 33.2 29.8 32.05 29.8 30.95 29.8 30.15 29.05 29.4 28.2 29.4 27.15 29.4 26.0 30.15 25.25 30.95 24.5 32.05 24.5 33.2 24.5 33.95 25.25 34.7 26.0 34.7 27.15" fill="#ffb8e0" fill-rule="evenodd" stroke="none"/>
    <path d="M30.25 21.95 Q30.25 23.05 29.45 23.85 28.7 24.65 27.55 24.65 26.4 24.65 25.65 23.85 24.9 23.05 24.9 21.95 24.9 20.8 25.65 20.05 26.4 19.3 27.55 19.3 28.7 19.3 29.45 20.05 30.25 20.8 30.25 21.95" fill="#ffb8e0" fill-rule="evenodd" stroke="none"/>
    <path d="M37.15 21.4 Q37.15 23.4 35.75 24.85 34.35 26.25 32.3 26.25 30.3 26.25 28.9 24.85 27.5 23.4 27.5 21.4 27.5 19.4 28.9 18.0 30.3 16.6 32.3 16.6 34.35 16.6 35.75 18.0 37.15 19.4 37.15 21.4" fill="#fcd2ea" fill-rule="evenodd" stroke="none"/>
    <path d="M35.7 21.1 Q35.7 22.4 34.8 23.4 33.85 24.35 32.5 24.35 31.1 24.35 30.15 23.4 29.25 22.4 29.25 21.1 29.25 19.75 30.15 18.8 31.1 17.9 32.5 17.9 33.85 17.9 34.8 18.8 35.7 19.75 35.7 21.1" fill="#ffb8e0" fill-rule="evenodd" stroke="none"/>
    <path d="M35.45 35.75 Q33.7 35.75 32.4 34.5 31.15 33.25 31.15 31.45 31.15 29.65 32.4 28.4 33.7 27.1 35.45 27.1 37.25 27.1 38.55 28.4 39.8 29.65 39.8 31.45 39.8 33.25 38.55 34.5 37.25 35.75 35.45 35.75" fill="#ff6dbd" fill-rule="evenodd" stroke="none"/>
    <path d="M43.2 37.15 Q41.45 37.15 40.15 35.9 38.9 34.65 38.9 32.85 38.9 31.05 40.15 29.8 41.45 28.5 43.2 28.5 45.0 28.5 46.3 29.8 47.55 31.05 47.55 32.85 47.55 34.65 46.3 35.9 45.0 37.15 43.2 37.15" fill="#ff6dbd" fill-rule="evenodd" stroke="none"/>
    <path d="M43.55 44.15 Q41.8 44.15 40.5 42.9 39.25 41.65 39.25 39.85 39.25 38.05 40.5 36.8 41.8 35.5 43.55 35.5 45.35 35.5 46.65 36.8 47.9 38.05 47.9 39.85 47.9 41.65 46.65 42.9 45.35 44.15 43.55 44.15" fill="#ff6dbd" fill-rule="evenodd" stroke="none"/>
    <path d="M45.15 33.25 Q45.15 34.35 44.35 35.15 43.6 35.95 42.45 35.95 41.3 35.95 40.55 35.15 39.8 34.35 39.8 33.25 39.8 32.1 40.55 31.35 41.3 30.6 42.45 30.6 43.6 30.6 44.35 31.35 45.15 32.1 45.15 33.25" fill="#ffb8e0" fill-rule="evenodd" stroke="none"/>
    <path d="M37.35 46.75 Q35.6 46.75 34.3 45.5 33.05 44.25 33.05 42.45 33.05 40.65 34.3 39.4 35.6 38.1 37.35 38.1 39.15 38.1 40.45 39.4 41.7 40.65 41.7 42.45 41.7 44.25 40.45 45.5 39.15 46.75 37.35 46.75" fill="#ff6dbd" fill-rule="evenodd" stroke="none"/>
    <path d="M31.75 42.45 Q30.0 42.45 28.7 41.2 27.45 39.95 27.45 38.15 27.45 36.35 28.7 35.1 30.0 33.8 31.75 33.8 33.55 33.8 34.85 35.1 36.1 36.35 36.1 38.15 36.1 39.95 34.85 41.2 33.55 42.45 31.75 42.45" fill="#ff6dbd" fill-rule="evenodd" stroke="none"/>
    <path d="M38.65 31.85 Q38.65 32.95 37.85 33.75 37.1 34.55 35.95 34.55 34.8 34.55 34.05 33.75 33.3 32.95 33.3 31.85 33.3 30.7 34.05 29.95 34.8 29.2 35.95 29.2 37.1 29.2 37.85 29.95 38.65 30.7 38.65 31.85" fill="#ffb8e0" fill-rule="evenodd" stroke="none"/>
    <path d="M46.1 40.0 Q46.1 41.05 45.35 41.9 44.6 42.65 43.45 42.65 42.3 42.65 41.55 41.9 40.8 41.05 40.8 40.0 40.8 38.9 41.55 38.1 42.3 37.35 43.45 37.35 44.6 37.35 45.35 38.1 46.1 38.9 46.1 40.0" fill="#ffb8e0" fill-rule="evenodd" stroke="none"/>
    <path d="M39.95 42.35 Q39.95 43.4 39.2 44.25 38.45 45.0 37.3 45.0 36.2 45.0 35.4 44.25 34.65 43.4 34.65 42.35 34.65 41.2 35.4 40.45 36.2 39.7 37.3 39.7 38.45 39.7 39.2 40.45 39.95 41.2 39.95 42.35" fill="#ffb8e0" fill-rule="evenodd" stroke="none"/>
    <path d="M35.55 37.75 Q35.55 38.85 34.75 39.65 34.0 40.45 32.85 40.45 31.7 40.45 30.95 39.65 30.2 38.85 30.2 37.75 30.2 36.6 30.95 35.85 31.7 35.1 32.85 35.1 34.0 35.1 34.75 35.85 35.55 36.6 35.55 37.75" fill="#ffb8e0" fill-rule="evenodd" stroke="none"/>
    <path d="M43.0 36.6 Q43.0 38.6 41.6 40.05 40.2 41.45 38.15 41.45 36.15 41.45 34.75 40.05 33.35 38.6 33.35 36.6 33.35 34.6 34.75 33.2 36.15 31.8 38.15 31.8 40.2 31.8 41.6 33.2 43.0 34.6 43.0 36.6" fill="#fcd2ea" fill-rule="evenodd" stroke="none"/>
    <path d="M41.65 36.9 Q41.65 38.2 40.75 39.2 39.8 40.15 38.45 40.15 37.05 40.15 36.1 39.2 35.2 38.2 35.2 36.9 35.2 35.55 36.1 34.6 37.05 33.7 38.45 33.7 39.8 33.7 40.75 34.6 41.65 35.55 41.65 36.9" fill="#ffb8e0" fill-rule="evenodd" stroke="none"/>
    <path d="M46.65 46.75 Q44.9 46.75 43.6 45.5 42.35 44.25 42.35 42.45 42.35 40.65 43.6 39.4 44.9 38.1 46.65 38.1 48.45 38.1 49.75 39.4 51.0 40.65 51.0 42.45 51.0 44.25 49.75 45.5 48.45 46.75 46.65 46.75" fill="#ff6dbd" fill-rule="evenodd" stroke="none"/>
    <path d="M53.75 48.6 Q52.0 48.6 50.7 47.35 49.45 46.1 49.45 44.3 49.45 42.5 50.7 41.25 52.0 39.95 53.75 39.95 55.55 39.95 56.85 41.25 58.1 42.5 58.1 44.3 58.1 46.1 56.85 47.35 55.55 48.6 53.75 48.6" fill="#ff6dbd" fill-rule="evenodd" stroke="none"/>
    <path d="M54.35 55.15 Q52.6 55.15 51.3 53.9 50.05 52.65 50.05 50.85 50.05 49.05 51.3 47.8 52.6 46.5 54.35 46.5 56.15 46.5 57.45 47.8 58.7 49.05 58.7 50.85 58.7 52.65 57.45 53.9 56.15 55.15 54.35 55.15" fill="#ff6dbd" fill-rule="evenodd" stroke="none"/>
    <path d="M56.65 45.05 Q56.65 46.15 55.85 46.95 55.1 47.75 53.95 47.75 52.8 47.75 52.05 46.95 51.3 46.15 51.3 45.05 51.3 43.9 52.05 43.15 52.8 42.4 53.95 42.4 55.1 42.4 55.85 43.15 56.65 43.9 56.65 45.05" fill="#ffb8e0" fill-rule="evenodd" stroke="none"/>
    <path d="M47.85 58.55 Q46.1 58.55 44.8 57.3 43.55 56.05 43.55 54.25 43.55 52.45 44.8 51.2 46.1 49.9 47.85 49.9 49.65 49.9 50.95 51.2 52.2 52.45 52.2 54.25 52.2 56.05 50.95 57.3 49.65 58.55 47.85 58.55" fill="#ff6dbd" fill-rule="evenodd" stroke="none"/>
    <path d="M43.55 52.95 Q41.8 52.95 40.5 51.7 39.25 50.45 39.25 48.65 39.25 46.85 40.5 45.6 41.8 44.3 43.55 44.3 45.35 44.3 46.65 45.6 47.9 46.85 47.9 48.65 47.9 50.45 46.65 51.7 45.35 52.95 43.55 52.95" fill="#ff6dbd" fill-rule="evenodd" stroke="none"/>
    <path d="M49.2 43.15 Q49.2 44.25 48.4 45.05 47.65 45.85 46.5 45.85 45.35 45.85 44.6 45.05 43.85 44.25 43.85 43.15 43.85 42.0 44.6 41.25 45.35 40.5 46.5 40.5 47.65 40.5 48.4 41.25 49.2 42.0 49.2 43.15" fill="#ffb8e0" fill-rule="evenodd" stroke="none"/>
    <path d="M56.75 50.4 Q56.75 51.45 56.0 52.3 55.25 53.05 54.1 53.05 52.95 53.05 52.2 52.3 51.45 51.45 51.45 50.4 51.45 49.3 52.2 48.5 52.95 47.75 54.1 47.75 55.25 47.75 56.0 48.5 56.75 49.3 56.75 50.4" fill="#ffb8e0" fill-rule="evenodd" stroke="none"/>
    <path d="M50.6 54.45 Q50.6 55.5 49.85 56.35 49.1 57.1 47.95 57.1 46.85 57.1 46.05 56.35 45.3 55.5 45.3 54.45 45.3 53.3 46.05 52.55 46.85 51.8 47.95 51.8 49.1 51.8 49.85 52.55 50.6 53.3 50.6 54.45" fill="#ffb8e0" fill-rule="evenodd" stroke="none"/>
    <path d="M46.65 49.05 Q46.65 50.15 45.85 50.95 45.1 51.75 43.95 51.75 42.8 51.75 42.05 50.95 41.3 50.15 41.3 49.05 41.3 47.9 42.05 47.15 42.8 46.4 43.95 46.4 45.1 46.4 45.85 47.15 46.65 47.9 46.65 49.05" fill="#ffb8e0" fill-rule="evenodd" stroke="none"/>
    <path d="M53.5 48.1 Q53.5 50.1 52.1 51.55 50.7 52.95 48.65 52.95 46.65 52.95 45.25 51.55 43.85 50.1 43.85 48.1 43.85 46.1 45.25 44.7 46.65 43.3 48.65 43.3 50.7 43.3 52.1 44.7 53.5 46.1 53.5 48.1" fill="#fcd2ea" fill-rule="evenodd" stroke="none"/>
    <path d="M52.15 49.0 Q52.15 50.3 51.25 51.3 50.3 52.25 48.95 52.25 47.55 52.25 46.6 51.3 45.7 50.3 45.7 49.0 45.7 47.65 46.6 46.7 47.55 45.8 48.95 45.8 50.3 45.8 51.25 46.7 52.15 47.65 52.15 49.0" fill="#ffb8e0" fill-rule="evenodd" stroke="none"/>
    <path d="M59.65 37.15 Q57.9 37.15 56.6 35.9 55.35 34.65 55.35 32.85 55.35 31.05 56.6 29.8 57.9 28.5 59.65 28.5 61.45 28.5 62.75 29.8 64.0 31.05 64.0 32.85 64.0 34.65 62.75 35.9 61.45 37.15 59.65 37.15" fill="#ff6dbd" fill-rule="evenodd" stroke="none"/>
    <path d="M66.75 38.25 Q65.0 38.25 63.7 37.0 62.45 35.75 62.45 33.95 62.45 32.15 63.7 30.9 65.0 29.6 66.75 29.6 68.55 29.6 69.85 30.9 71.1 32.15 71.1 33.95 71.1 35.75 69.85 37.0 68.55 38.25 66.75 38.25" fill="#ff6dbd" fill-rule="evenodd" stroke="none"/>
    <path d="M67.1 45.85 Q65.35 45.85 64.05 44.6 62.8 43.35 62.8 41.55 62.8 39.75 64.05 38.5 65.35 37.2 67.1 37.2 68.9 37.2 70.2 38.5 71.45 39.75 71.45 41.55 71.45 43.35 70.2 44.6 68.9 45.85 67.1 45.85" fill="#ff6dbd" fill-rule="evenodd" stroke="none"/>
    <path d="M69.95 34.95 Q69.95 36.05 69.15 36.85 68.4 37.65 67.25 37.65 66.1 37.65 65.35 36.85 64.6 36.05 64.6 34.95 64.6 33.8 65.35 33.05 66.1 32.3 67.25 32.3 68.4 32.3 69.15 33.05 69.95 33.8 69.95 34.95" fill="#ffb8e0" fill-rule="evenodd" stroke="none"/>
    <path d="M61.2 48.6 Q59.45 48.6 58.15 47.35 56.9 46.1 56.9 44.3 56.9 42.5 58.15 41.25 59.45 39.95 61.2 39.95 63.0 39.95 64.3 41.25 65.55 42.5 65.55 44.3 65.55 46.1 64.3 47.35 63.0 48.6 61.2 48.6" fill="#ff6dbd" fill-rule="evenodd" stroke="none"/>
    <path d="M56.55 44.15 Q54.8 44.15 53.5 42.9 52.25 41.65 52.25 39.85 52.25 38.05 53.5 36.8 54.8 35.5 56.55 35.5 58.35 35.5 59.65 36.8 60.9 38.05 60.9 39.85 60.9 41.65 59.65 42.9 58.35 44.15 56.55 44.15" fill="#ff6dbd" fill-rule="evenodd" stroke="none"/>
    <path d="M62.5 33.25 Q62.5 34.35 61.7 35.15 60.95 35.95 59.8 35.95 58.65 35.95 57.9 35.15 57.15 34.35 57.15 33.25 57.15 32.1 57.9 31.35 58.65 30.6 59.8 30.6 60.95 30.6 61.7 31.35 62.5 32.1 62.5 33.25" fill="#ffb8e0" fill-rule="evenodd" stroke="none"/>
    <path d="M70.3 40.85 Q70.3 41.9 69.55 42.75 68.8 43.5 67.65 43.5 66.5 43.5 65.75 42.75 65.0 41.9 65.0 40.85 65.0 39.75 65.75 38.95 66.5 38.2 67.65 38.2 68.8 38.2 69.55 38.95 70.3 39.75 70.3 40.85" fill="#ffb8e0" fill-rule="evenodd" stroke="none"/>
    <path d="M64.15 43.75 Q64.15 44.8 63.4 45.65 62.65 46.4 61.5 46.4 60.4 46.4 59.6 45.65 58.85 44.8 58.85 43.75 58.85 42.6 59.6 41.85 60.4 41.1 61.5 41.1 62.65 41.1 63.4 41.85 64.15 42.6 64.15 43.75" fill="#ffb8e0" fill-rule="evenodd" stroke="none"/>
    <path d="M60.65 39.45 Q60.65 40.55 59.85 41.35 59.1 42.15 57.95 42.15 56.8 42.15 56.05 41.35 55.3 40.55 55.3 39.45 55.3 38.3 56.05 37.55 56.8 36.8 57.95 36.8 59.1 36.8 59.85 37.55 60.65 38.3 60.65 39.45" fill="#ffb8e0" fill-rule="evenodd" stroke="none"/>
    <path d="M67.8 38.5 Q67.8 40.5 66.4 41.95 65.0 43.35 62.95 43.35 60.95 43.35 59.55 41.95 58.15 40.5 58.15 38.5 58.15 36.5 59.55 35.1 60.95 33.7 62.95 33.7 65.0 33.7 66.4 35.1 67.8 36.5 67.8 38.5" fill="#fcd2ea" fill-rule="evenodd" stroke="none"/>
    <path d="M65.25 39.15 Q65.25 40.45 64.35 41.45 63.4 42.4 62.05 42.4 60.65 42.4 59.7 41.45 58.8 40.45 58.8 39.15 58.8 37.8 59.7 36.85 60.65 35.95 62.05 35.95 63.4 35.95 64.35 36.85 65.25 37.8 65.25 39.15" fill="#ffb8e0" fill-rule="evenodd" stroke="none"/>
    <path d="M64.95 21.05 Q63.2 21.05 61.9 19.8 60.65 18.55 60.65 16.75 60.65 14.95 61.9 13.7 63.2 12.4 64.95 12.4 66.75 12.4 68.05 13.7 69.3 14.95 69.3 16.75 69.3 18.55 68.05 19.8 66.75 21.05 64.95 21.05" fill="#ff6dbd" fill-rule="evenodd" stroke="none"/>
    <path d="M72.35 23.05 Q70.6 23.05 69.3 21.8 68.05 20.55 68.05 18.75 68.05 16.95 69.3 15.7 70.6 14.4 72.35 14.4 74.15 14.4 75.45 15.7 76.7 16.95 76.7 18.75 76.7 20.55 75.45 21.8 74.15 23.05 72.35 23.05" fill="#ff6dbd" fill-rule="evenodd" stroke="none"/>
    <path d="M72.65 29.25 Q70.9 29.25 69.6 28.0 68.35 26.75 68.35 24.95 68.35 23.15 69.6 21.9 70.9 20.6 72.65 20.6 74.45 20.6 75.75 21.9 77.0 23.15 77.0 24.95 77.0 26.75 75.75 28.0 74.45 29.25 72.65 29.25" fill="#ff6dbd" fill-rule="evenodd" stroke="none"/>
    <path d="M74.0 19.45 Q74.0 20.55 73.2 21.35 72.45 22.15 71.3 22.15 70.15 22.15 69.4 21.35 68.65 20.55 68.65 19.45 68.65 18.3 69.4 17.55 70.15 16.8 71.3 16.8 72.45 16.8 73.2 17.55 74.0 18.3 74.0 19.45" fill="#ffb8e0" fill-rule="evenodd" stroke="none"/>
    <path d="M65.85 33.15 Q64.1 33.15 62.8 31.9 61.55 30.65 61.55 28.85 61.55 27.05 62.8 25.8 64.1 24.5 65.85 24.5 67.65 24.5 68.95 25.8 70.2 27.05 70.2 28.85 70.2 30.65 68.95 31.9 67.65 33.15 65.85 33.15" fill="#ff6dbd" fill-rule="evenodd" stroke="none"/>
    <path d="M60.9 27.55 Q59.15 27.55 57.85 26.3 56.6 25.05 56.6 23.25 56.6 21.45 57.85 20.2 59.15 18.9 60.9 18.9 62.7 18.9 64.0 20.2 65.25 21.45 65.25 23.25 65.25 25.05 64.0 26.3 62.7 27.55 60.9 27.55" fill="#ff6dbd" fill-rule="evenodd" stroke="none"/>
    <path d="M66.85 17.5 Q66.85 18.6 66.05 19.4 65.3 20.2 64.15 20.2 63.0 20.2 62.25 19.4 61.5 18.6 61.5 17.5 61.5 16.35 62.25 15.6 63.0 14.85 64.15 14.85 65.3 14.85 66.05 15.6 66.85 16.35 66.85 17.5" fill="#ffb8e0" fill-rule="evenodd" stroke="none"/>
    <path d="M74.35 24.8 Q74.35 25.85 73.6 26.7 72.85 27.45 71.7 27.45 70.55 27.45 69.8 26.7 69.05 25.85 69.05 24.8 69.05 23.7 69.8 22.9 70.55 22.15 71.7 22.15 72.85 22.15 73.6 22.9 74.35 23.7 74.35 24.8" fill="#ffb8e0" fill-rule="evenodd" stroke="none"/>
    <path d="M68.2 27.75 Q68.2 28.8 67.45 29.65 66.7 30.4 65.55 30.4 64.45 30.4 63.65 29.65 62.9 28.8 62.9 27.75 62.9 26.6 63.65 25.85 64.45 25.1 65.55 25.1 66.7 25.1 67.45 25.85 68.2 26.6 68.2 27.75" fill="#ffb8e0" fill-rule="evenodd" stroke="none"/>
    <path d="M64.4 23.7 Q64.4 24.8 63.6 25.6 62.85 26.4 61.7 26.4 60.55 26.4 59.8 25.6 59.05 24.8 59.05 23.7 59.05 22.55 59.8 21.8 60.55 21.05 61.7 21.05 62.85 21.05 63.6 21.8 64.4 22.55 64.4 23.7" fill="#ffb8e0" fill-rule="evenodd" stroke="none"/>
    <path d="M72.15 22.2 Q72.15 24.2 70.75 25.65 69.35 27.05 67.3 27.05 65.3 27.05 63.9 25.65 62.5 24.2 62.5 22.2 62.5 20.2 63.9 18.8 65.3 17.4 67.3 17.4 69.35 17.4 70.75 18.8 72.15 20.2 72.15 22.2" fill="#fcd2ea" fill-rule="evenodd" stroke="none"/>
    <path d="M70.45 22.9 Q70.45 24.2 69.55 25.2 68.6 26.15 67.25 26.15 65.85 26.15 64.9 25.2 64.0 24.2 64.0 22.9 64.0 21.55 64.9 20.6 65.85 19.7 67.25 19.7 68.6 19.7 69.55 20.6 70.45 21.55 70.45 22.9" fill="#ffb8e0" fill-rule="evenodd" stroke="none"/>
    <path d="M60.9 5.85 Q59.15 5.85 57.85 4.6 56.6 3.35 56.6 1.55 56.6 -0.25 57.85 -1.5 59.15 -2.8 60.9 -2.8 62.7 -2.8 64.0 -1.5 65.25 -0.25 65.25 1.55 65.25 3.35 64.0 4.6 62.7 5.85 60.9 5.85" fill="#ff6dbd" fill-rule="evenodd" stroke="none"/>
    <path d="M68.95 6.75 Q67.2 6.75 65.9 5.5 64.65 4.25 64.65 2.45 64.65 0.65 65.9 -0.6 67.2 -1.9 68.95 -1.9 70.75 -1.9 72.05 -0.6 73.3 0.65 73.3 2.45 73.3 4.25 72.05 5.5 70.75 6.75 68.95 6.75" fill="#ff6dbd" fill-rule="evenodd" stroke="none"/>
    <path d="M68.95 13.25 Q67.2 13.25 65.9 12.0 64.65 10.75 64.65 8.95 64.65 7.15 65.9 5.9 67.2 4.6 68.95 4.6 70.75 4.6 72.05 5.9 73.3 7.15 73.3 8.95 73.3 10.75 72.05 12.0 70.75 13.25 68.95 13.25" fill="#ff6dbd" fill-rule="evenodd" stroke="none"/>
    <path d="M70.6 3.35 Q70.6 4.45 69.8 5.25 69.05 6.05 67.9 6.05 66.75 6.05 66.0 5.25 65.25 4.45 65.25 3.35 65.25 2.2 66.0 1.45 66.75 0.7 67.9 0.7 69.05 0.7 69.8 1.45 70.6 2.2 70.6 3.35" fill="#ffb8e0" fill-rule="evenodd" stroke="none"/>
    <path d="M63.05 16.85 Q61.3 16.85 60.0 15.6 58.75 14.35 58.75 12.55 58.75 10.75 60.0 9.5 61.3 8.2 63.05 8.2 64.85 8.2 66.15 9.5 67.4 10.75 67.4 12.55 67.4 14.35 66.15 15.6 64.85 16.85 63.05 16.85" fill="#ff6dbd" fill-rule="evenodd" stroke="none"/>
    <path d="M57.8 12.05 Q56.05 12.05 54.75 10.8 53.5 9.55 53.5 7.75 53.5 5.95 54.75 4.7 56.05 3.4 57.8 3.4 59.6 3.4 60.9 4.7 62.15 5.95 62.15 7.75 62.15 9.55 60.9 10.8 59.6 12.05 57.8 12.05" fill="#ff6dbd" fill-rule="evenodd" stroke="none"/>
    <path d="M64.4 2.05 Q64.4 3.15 63.6 3.95 62.85 4.75 61.7 4.75 60.55 4.75 59.8 3.95 59.05 3.15 59.05 2.05 59.05 0.9 59.8 0.15 60.55 -0.6 61.7 -0.6 62.85 -0.6 63.6 0.15 64.4 0.9 64.4 2.05" fill="#ffb8e0" fill-rule="evenodd" stroke="none"/>
    <path d="M70.95 9.0 Q70.95 10.05 70.2 10.9 69.45 11.65 68.3 11.65 67.15 11.65 66.4 10.9 65.65 10.05 65.65 9.0 65.65 7.9 66.4 7.1 67.15 6.35 68.3 6.35 69.45 6.35 70.2 7.1 70.95 7.9 70.95 9.0" fill="#ffb8e0" fill-rule="evenodd" stroke="none"/>
    <path d="M64.8 11.95 Q64.8 13.0 64.05 13.85 63.3 14.6 62.15 14.6 61.05 14.6 60.25 13.85 59.5 13.0 59.5 11.95 59.5 10.8 60.25 10.05 61.05 9.3 62.15 9.3 63.3 9.3 64.05 10.05 64.8 10.8 64.8 11.95" fill="#ffb8e0" fill-rule="evenodd" stroke="none"/>
    <path d="M60.95 7.65 Q60.95 8.75 60.15 9.55 59.4 10.35 58.25 10.35 57.1 10.35 56.35 9.55 55.6 8.75 55.6 7.65 55.6 6.5 56.35 5.75 57.1 5.0 58.25 5.0 59.4 5.0 60.15 5.75 60.95 6.5 60.95 7.65" fill="#ffb8e0" fill-rule="evenodd" stroke="none"/>
    <path d="M68.45 7.0 Q68.45 9.0 67.05 10.45 65.65 11.85 63.6 11.85 61.6 11.85 60.2 10.45 58.8 9.0 58.8 7.0 58.8 5.0 60.2 3.6 61.6 2.2 63.6 2.2 65.65 2.2 67.05 3.6 68.45 5.0 68.45 7.0" fill="#fcd2ea" fill-rule="evenodd" stroke="none"/>
    <path d="M66.75 7.4 Q66.75 8.7 65.85 9.7 64.9 10.65 63.55 10.65 62.15 10.65 61.2 9.7 60.3 8.7 60.3 7.4 60.3 6.05 61.2 5.1 62.15 4.2 63.55 4.2 64.9 4.2 65.85 5.1 66.75 6.05 66.75 7.4" fill="#ffb8e0" fill-rule="evenodd" stroke="none"/>
    <path d="M47.25 -1.95 Q45.5 -1.95 44.2 -3.2 42.95 -4.45 42.95 -6.25 42.95 -8.05 44.2 -9.3 45.5 -10.6 47.25 -10.6 49.05 -10.6 50.35 -9.3 51.6 -8.05 51.6 -6.25 51.6 -4.45 50.35 -3.2 49.05 -1.95 47.25 -1.95" fill="#ff6dbd" fill-rule="evenodd" stroke="none"/>
    <path d="M54.35 -0.05 Q52.6 -0.05 51.3 -1.3 50.05 -2.55 50.05 -4.35 50.05 -6.15 51.3 -7.4 52.6 -8.7 54.35 -8.7 56.15 -8.7 57.45 -7.4 58.7 -6.15 58.7 -4.35 58.7 -2.55 57.45 -1.3 56.15 -0.05 54.35 -0.05" fill="#ff6dbd" fill-rule="evenodd" stroke="none"/>
    <path d="M55.0 7.55 Q53.25 7.55 51.95 6.3 50.7 5.05 50.7 3.25 50.7 1.45 51.95 0.2 53.25 -1.1 55.0 -1.1 56.8 -1.1 58.1 0.2 59.35 1.45 59.35 3.25 59.35 5.05 58.1 6.3 56.8 7.55 55.0 7.55" fill="#ff6dbd" fill-rule="evenodd" stroke="none"/>
    <path d="M56.95 -3.65 Q56.95 -2.55 56.15 -1.75 55.4 -0.95 54.25 -0.95 53.1 -0.95 52.35 -1.75 51.6 -2.55 51.6 -3.65 51.6 -4.8 52.35 -5.55 53.1 -6.3 54.25 -6.3 55.4 -6.3 56.15 -5.55 56.95 -4.8 56.95 -3.65" fill="#ffb8e0" fill-rule="evenodd" stroke="none"/>
    <path d="M48.8 10.4 Q47.05 10.4 45.75 9.15 44.5 7.9 44.5 6.1 44.5 4.3 45.75 3.05 47.05 1.75 48.8 1.75 50.6 1.75 51.9 3.05 53.15 4.3 53.15 6.1 53.15 7.9 51.9 9.15 50.6 10.4 48.8 10.4" fill="#ff6dbd" fill-rule="evenodd" stroke="none"/>
    <path d="M43.55 5.85 Q41.8 5.85 40.5 4.6 39.25 3.35 39.25 1.55 39.25 -0.25 40.5 -1.5 41.8 -2.8 43.55 -2.8 45.35 -2.8 46.65 -1.5 47.9 -0.25 47.9 1.55 47.9 3.35 46.65 4.6 45.35 5.85 43.55 5.85" fill="#ff6dbd" fill-rule="evenodd" stroke="none"/>
    <path d="M50.1 -5.35 Q50.1 -4.25 49.3 -3.45 48.55 -2.65 47.4 -2.65 46.25 -2.65 45.5 -3.45 44.75 -4.25 44.75 -5.35 44.75 -6.5 45.5 -7.25 46.25 -8.0 47.4 -8.0 48.55 -8.0 49.3 -7.25 50.1 -6.5 50.1 -5.35" fill="#ffb8e0" fill-rule="evenodd" stroke="none"/>
    <path d="M57.9 2.5 Q57.9 3.55 57.15 4.4 56.4 5.15 55.25 5.15 54.1 5.15 53.35 4.4 52.6 3.55 52.6 2.5 52.6 1.4 53.35 0.6 54.1 -0.15 55.25 -0.15 56.4 -0.15 57.15 0.6 57.9 1.4 57.9 2.5" fill="#ffb8e0" fill-rule="evenodd" stroke="none"/>
    <path d="M51.75 5.45 Q51.75 6.5 51.0 7.35 50.25 8.1 49.1 8.1 48.0 8.1 47.2 7.35 46.45 6.5 46.45 5.45 46.45 4.3 47.2 3.55 48.0 2.8 49.1 2.8 50.25 2.8 51.0 3.55 51.75 4.3 51.75 5.45" fill="#ffb8e0" fill-rule="evenodd" stroke="none"/>
    <path d="M47.1 0.85 Q47.1 1.95 46.3 2.75 45.55 3.55 44.4 3.55 43.25 3.55 42.5 2.75 41.75 1.95 41.75 0.85 41.75 -0.3 42.5 -1.05 43.25 -1.8 44.4 -1.8 45.55 -1.8 46.3 -1.05 47.1 -0.3 47.1 0.85" fill="#ffb8e0" fill-rule="evenodd" stroke="none"/>
    <path d="M54.45 0.2 Q54.45 2.2 53.05 3.65 51.65 5.05 49.6 5.05 47.6 5.05 46.2 3.65 44.8 2.2 44.8 0.2 44.8 -1.8 46.2 -3.2 47.6 -4.6 49.6 -4.6 51.65 -4.6 53.05 -3.2 54.45 -1.8 54.45 0.2" fill="#fcd2ea" fill-rule="evenodd" stroke="none"/>
    <path d="M53.1 0.0 Q53.1 1.3 52.2 2.3 51.25 3.25 49.9 3.25 48.5 3.25 47.55 2.3 46.65 1.3 46.65 0.0 46.65 -1.35 47.55 -2.3 48.5 -3.2 49.9 -3.2 51.25 -3.2 52.2 -2.3 53.1 -1.35 53.1 0.0" fill="#ffb8e0" fill-rule="evenodd" stroke="none"/>
  </g>
  <defs>
    <linearGradient gradientTransform="matrix(0.0562, 2.0E-4, 0.0, 0.0216, 50.45, 78.25)" gradientUnits="userSpaceOnUse" id="gradient0" spreadMethod="pad" x1="-819.2" x2="819.2">
      <stop offset="0.0" stop-color="#ff9cc3"/>
      <stop offset="1.0" stop-color="#e00059"/>
    </linearGradient>
    <linearGradient gradientTransform="matrix(0.0, 0.0057, -0.0216, -1.0E-4, 58.8, 92.1)" gradientUnits="userSpaceOnUse" id="gradient1" spreadMethod="pad" x1="-819.2" x2="819.2">
      <stop offset="0.0" stop-color="#d93376"/>
      <stop offset="1.0" stop-color="#b60a50"/>
    </linearGradient>
    <linearGradient gradientTransform="matrix(0.0562, 2.0E-4, 0.0, 0.0216, 50.45, 78.25)" gradientUnits="userSpaceOnUse" id="gradient2" spreadMethod="pad" x1="-819.2" x2="819.2">
      <stop offset="0.0" stop-color="#af064a"/>
      <stop offset="1.0" stop-color="#fa69a3"/>
    </linearGradient>
    <linearGradient gradientTransform="matrix(0.9418, 0.0039, 0.0, 0.94, 121.15, -74.05)" gradientUnits="userSpaceOnUse" id="gradient3" spreadMethod="pad" x1="-819.2" x2="819.2">
      <stop offset="0.0" stop-color="#85083a"/>
      <stop offset="1.0" stop-color="#9c003e"/>
    </linearGradient>
    <linearGradient gradientTransform="matrix(0.0012, -0.0125, 0.0215, 0.0021, 91.6, 72.05)" gradientUnits="userSpaceOnUse" id="gradient4" spreadMethod="pad" x1="-819.2" x2="819.2">
      <stop offset="0.0" stop-color="#ff4a92"/>
      <stop offset="0.9764705882352941" stop-color="#ec2475"/>
    </linearGradient>
    <linearGradient gradientTransform="matrix(0.0, 0.0057, -0.0216, -1.0E-4, 58.8, 92.1)" gradientUnits="userSpaceOnUse" id="gradient5" spreadMethod="pad" x1="-819.2" x2="819.2">
      <stop offset="0.0" stop-color="#b41c59"/>
      <stop offset="1.0" stop-color="#800336"/>
    </linearGradient>
    <linearGradient gradientTransform="matrix(-0.0139, 0.008, -0.0108, -0.0187, 10.7, 66.95)" gradientUnits="userSpaceOnUse" id="gradient6" spreadMethod="pad" x1="-819.2" x2="819.2">
      <stop offset="0.0" stop-color="#f05191"/>
      <stop offset="1.0" stop-color="#cd125e"/>
    </linearGradient>
    <linearGradient gradientTransform="matrix(0.0562, 2.0E-4, 0.0, 0.0216, 50.45, 78.25)" gradientUnits="userSpaceOnUse" id="gradient7" spreadMethod="pad" x1="-819.2" x2="819.2">
      <stop offset="0.0" stop-color="#fa659f"/>
      <stop offset="1.0" stop-color="#db206b"/>
    </linearGradient>
    <linearGradient gradientTransform="matrix(0.9418, 0.0039, 0.0, 0.94, 121.15, -74.05)" gradientUnits="userSpaceOnUse" id="gradient8" spreadMethod="pad" x1="-819.2" x2="819.2">
      <stop offset="0.0" stop-color="#85083a"/>
      <stop offset="1.0" stop-color="#c92466"/>
    </linearGradient>
    <linearGradient gradientTransform="matrix(0.0, 0.0057, -0.0216, -1.0E-4, 58.8, 92.1)" gradientUnits="userSpaceOnUse" id="gradient9" spreadMethod="pad" x1="-819.2" x2="819.2">
      <stop offset="0.0" stop-color="#ec498b"/>
      <stop offset="1.0" stop-color="#db246f"/>
    </linearGradient>
    <linearGradient gradientTransform="matrix(0.0, 0.0057, -0.0216, -1.0E-4, 58.8, 92.1)" gradientUnits="userSpaceOnUse" id="gradient10" spreadMethod="pad" x1="-819.2" x2="819.2">
      <stop offset="0.0" stop-color="#e94688"/>
      <stop offset="1.0" stop-color="#d71d69"/>
    </linearGradient>
    <linearGradient gradientTransform="matrix(0.0562, 2.0E-4, 0.0, 0.0216, 50.45, 78.6)" gradientUnits="userSpaceOnUse" id="gradient11" spreadMethod="pad" x1="-819.2" x2="819.2">
      <stop offset="0.0" stop-color="#c42565"/>
      <stop offset="1.0" stop-color="#cd1e65"/>
    </linearGradient>
    <linearGradient gradientTransform="matrix(0.0562, 2.0E-4, 0.0, 0.0216, 50.45, 78.6)" gradientUnits="userSpaceOnUse" id="gradient12" spreadMethod="pad" x1="-819.2" x2="819.2">
      <stop offset="0.0" stop-color="#a1104a"/>
      <stop offset="1.0" stop-color="#93013c"/>
    </linearGradient>
    <linearGradient gradientTransform="matrix(0.0562, 2.0E-4, 0.0, 0.0216, 50.45, 78.6)" gradientUnits="userSpaceOnUse" id="gradient13" spreadMethod="pad" x1="-819.2" x2="819.2">
      <stop offset="0.0" stop-color="#a1104a"/>
      <stop offset="1.0" stop-color="#cb1c62"/>
    </linearGradient>
    <linearGradient gradientTransform="matrix(0.0562, 2.0E-4, 0.0, 0.0216, 50.45, 78.25)" gradientUnits="userSpaceOnUse" id="gradient14" spreadMethod="pad" x1="-819.2" x2="819.2">
      <stop offset="0.0" stop-color="#98003d"/>
      <stop offset="1.0" stop-color="#c90754"/>
    </linearGradient>
    <linearGradient gradientTransform="matrix(2.0E-4, 0.0088, -0.0074, 3.0E-4, 67.95, 77.15)" gradientUnits="userSpaceOnUse" id="gradient15" spreadMethod="pad" x1="-819.2" x2="819.2">
      <stop offset="0.0" stop-color="#ef508f"/>
      <stop offset="1.0" stop-color="#bb054e"/>
    </linearGradient>
    <linearGradient gradientTransform="matrix(3.0E-4, 0.0135, -0.0074, 3.0E-4, 69.4, 76.4)" gradientUnits="userSpaceOnUse" id="gradient16" spreadMethod="pad" x1="-819.2" x2="819.2">
      <stop offset="0.0" stop-color="#c60c57"/>
      <stop offset="1.0" stop-color="#fc8bb8"/>
    </linearGradient>
    <linearGradient gradientTransform="matrix(4.0E-4, 0.0056, -0.0063, 0.0012, 64.65, 80.4)" gradientUnits="userSpaceOnUse" id="gradient17" spreadMethod="pad" x1="-819.2" x2="819.2">
      <stop offset="0.0" stop-color="#c31f60"/>
      <stop offset="1.0" stop-color="#8a0239"/>
    </linearGradient>
    <linearGradient gradientTransform="matrix(0.0032, 0.0118, -0.0058, 0.0037, 64.3, 77.15)" gradientUnits="userSpaceOnUse" id="gradient18" spreadMethod="pad" x1="-819.2" x2="819.2">
      <stop offset="0.0" stop-color="#eb3a80"/>
      <stop offset="1.0" stop-color="#a30947"/>
      <stop offset="1.0" stop-color="#c7175e"/>
    </linearGradient>
    <linearGradient gradientTransform="matrix(0.0018, -0.0068, 0.0074, 0.002, 32.95, 78.95)" gradientUnits="userSpaceOnUse" id="gradient19" spreadMethod="pad" x1="-819.2" x2="819.2">
      <stop offset="0.0" stop-color="#ff8eba"/>
      <stop offset="0.9921568627450981" stop-color="#f1679e"/>
    </linearGradient>
    <linearGradient gradientTransform="matrix(-0.0022, 0.0094, -0.0077, -0.0018, 54.1, 83.7)" gradientUnits="userSpaceOnUse" id="gradient20" spreadMethod="pad" x1="-819.2" x2="819.2">
      <stop offset="0.0" stop-color="#e73d82"/>
      <stop offset="1.0" stop-color="#ffbfd8"/>
    </linearGradient>
  </defs>
</svg>
