<?xml version="1.0" encoding="UTF-8" standalone="no"?>
<svg xmlns:xlink="http://www.w3.org/1999/xlink" height="115.7px" width="157.4px" xmlns="http://www.w3.org/2000/svg">
  <g transform="matrix(1.0, 0.0, 0.0, 1.0, 7.8, 12.15)">
    <path d="M-2.6 72.5 L-4.45 70.75 -4.45 70.7 -5.3 69.9 -5.35 69.85 -7.15 67.85 Q-8.45 52.7 -7.05 20.05 L2.5 -12.15 8.5 -11.9 Q41.75 -10.55 70.1 -5.2 115.15 3.2 147.6 21.55 L149.0 36.45 Q150.2 50.3 149.05 65.45 L147.7 67.15 147.85 60.95 147.6 67.2 147.25 67.6 145.15 69.95 143.85 71.4 Q147.15 49.9 142.85 25.35 86.3 -0.3 6.65 -5.4 L-3.05 21.55 -2.6 72.5" fill="#eebe00" fill-rule="evenodd" stroke="none"/>
    <path d="M-2.6 72.5 L-3.05 21.55 6.65 -5.4 Q86.3 -0.3 142.85 25.35 147.15 49.9 143.85 71.4 L143.25 72.05 Q138.7 77.3 132.8 82.15 L130.0 84.4 121.55 90.15 Q117.55 92.55 113.4 94.55 112.6 94.85 111.95 95.2 L109.7 96.15 109.2 96.35 Q95.6 101.9 79.85 103.15 L70.35 103.55 69.55 103.55 69.45 103.55 61.3 103.2 Q47.65 102.15 35.65 97.9 32.75 96.9 30.0 95.7 L29.95 95.7 26.35 94.05 Q23.35 92.6 20.45 90.95 L19.85 90.6 Q15.1 87.8 10.65 84.4 L7.8 82.15 1.6 76.55 -1.4 73.7 -1.45 73.65 -1.5 73.6 -2.6 72.5" fill="#f8deeb" fill-rule="evenodd" stroke="none"/>
    <path d="M89.05 89.1 L102.0 87.0 102.25 86.95 Q101.4 93.8 96.75 100.65 L89.5 102.1 89.2 102.15 88.9 102.2 88.6 102.25 84.95 102.75 Q88.7 96.6 89.05 89.1" fill="#aeaeae" fill-rule="evenodd" stroke="none"/>
    <path d="M102.0 87.0 L106.15 84.05 Q104.85 92.35 99.55 99.9 L99.55 99.95 97.05 100.6 96.75 100.65 Q101.4 93.8 102.25 86.95 L102.0 87.0" fill="#d9d9d9" fill-rule="evenodd" stroke="none"/>
    <path d="M106.15 84.05 L106.2 83.95 Q70.6 91.05 39.25 83.6 40.35 93.45 45.75 100.65 L44.9 100.5 44.0 100.25 42.7 99.95 42.7 99.9 Q37.5 92.65 36.4 81.35 74.6 88.85 109.4 81.4 108.75 91.0 103.1 98.85 L103.05 98.95 99.55 99.95 99.55 99.9 Q104.85 92.35 106.15 84.05" fill="#7e4562" fill-rule="evenodd" stroke="none"/>
    <path d="M45.75 100.65 Q40.35 93.45 39.25 83.6 70.6 91.05 106.2 83.95 L106.15 84.05 102.0 87.0 89.05 89.1 Q66.15 91.75 43.65 87.45 44.05 94.75 48.3 101.2 L45.75 100.65" fill="#ffffff" fill-rule="evenodd" stroke="none"/>
    <path d="M48.3 101.2 Q44.05 94.75 43.65 87.45 66.15 91.75 89.05 89.1 88.7 96.6 84.95 102.75 L72.05 103.55 71.15 103.55 69.55 103.55 69.3 103.55 52.9 102.1 48.3 101.2" fill="#cccccc" fill-rule="evenodd" stroke="none"/>
    <path d="M48.15 90.15 Q48.6 89.7 49.3 89.7 49.95 89.7 50.45 90.15 50.95 90.65 50.95 91.3 50.95 92.0 50.45 92.4 49.95 92.9 49.3 92.9 48.6 92.9 48.15 92.4 47.7 92.0 47.7 91.3 47.7 90.65 48.15 90.15" fill="url(#gradient0)" fill-rule="evenodd" stroke="none"/>
    <path d="M49.35 90.35 L50.0 90.6 50.3 91.25 50.0 91.95 49.35 92.25 48.65 91.95 Q48.35 91.7 48.35 91.25 48.35 90.9 48.65 90.6 48.95 90.35 49.35 90.35" fill="url(#gradient1)" fill-rule="evenodd" stroke="none"/>
    <path d="M52.55 96.9 Q53.2 96.9 53.7 97.35 54.2 97.85 54.2 98.5 54.2 99.2 53.7 99.6 53.2 100.1 52.55 100.1 51.85 100.1 51.4 99.6 50.95 99.2 50.95 98.5 50.95 97.85 51.4 97.35 51.85 96.9 52.55 96.9" fill="url(#gradient2)" fill-rule="evenodd" stroke="none"/>
    <path d="M53.25 97.8 L53.55 98.45 53.25 99.15 52.6 99.45 Q52.2 99.45 51.9 99.15 51.6 98.9 51.6 98.45 51.6 98.1 51.9 97.8 52.2 97.55 52.6 97.55 L53.25 97.8" fill="url(#gradient3)" fill-rule="evenodd" stroke="none"/>
    <path d="M93.65 96.9 Q94.3 96.9 94.8 97.35 95.3 97.85 95.3 98.5 95.3 99.2 94.8 99.6 94.3 100.1 93.65 100.1 92.95 100.1 92.5 99.6 92.05 99.2 92.05 98.5 92.05 97.85 92.5 97.35 92.95 96.9 93.65 96.9" fill="url(#gradient4)" fill-rule="evenodd" stroke="none"/>
    <path d="M94.65 98.45 L94.35 99.15 93.7 99.45 93.0 99.15 Q92.7 98.9 92.7 98.45 92.7 98.1 93.0 97.8 93.3 97.55 93.7 97.55 L94.35 97.8 94.65 98.45" fill="url(#gradient5)" fill-rule="evenodd" stroke="none"/>
    <path d="M98.05 92.4 Q97.55 92.9 96.9 92.9 96.2 92.9 95.75 92.4 95.3 92.0 95.3 91.3 95.3 90.65 95.75 90.15 96.2 89.7 96.9 89.7 97.55 89.7 98.05 90.15 98.55 90.65 98.55 91.3 98.55 92.0 98.05 92.4" fill="url(#gradient6)" fill-rule="evenodd" stroke="none"/>
    <path d="M96.95 92.25 Q96.55 92.25 96.25 91.95 95.95 91.7 95.95 91.25 95.95 90.9 96.25 90.6 96.55 90.35 96.95 90.35 L97.6 90.6 97.9 91.25 97.6 91.95 96.95 92.25" fill="url(#gradient7)" fill-rule="evenodd" stroke="none"/>
  </g>
  <defs>
    <linearGradient gradientTransform="matrix(-1.0E-4, -0.002, 0.002, -1.0E-4, 49.25, 91.3)" gradientUnits="userSpaceOnUse" id="gradient0" spreadMethod="pad" x1="-819.2" x2="819.2">
      <stop offset="0.0" stop-color="#a18698"/>
      <stop offset="1.0" stop-color="#724b58"/>
    </linearGradient>
    <linearGradient gradientTransform="matrix(0.0, 0.0012, -0.0012, 0.0, 49.35, 91.25)" gradientUnits="userSpaceOnUse" id="gradient1" spreadMethod="pad" x1="-819.2" x2="819.2">
      <stop offset="0.0" stop-color="#ffffff"/>
      <stop offset="1.0" stop-color="#a1a1a1"/>
    </linearGradient>
    <linearGradient gradientTransform="matrix(-1.0E-4, -0.002, 0.002, -1.0E-4, 52.5, 98.5)" gradientUnits="userSpaceOnUse" id="gradient2" spreadMethod="pad" x1="-819.2" x2="819.2">
      <stop offset="0.0" stop-color="#a18698"/>
      <stop offset="1.0" stop-color="#724b58"/>
    </linearGradient>
    <linearGradient gradientTransform="matrix(0.0, 0.0012, -0.0012, 0.0, 52.6, 98.45)" gradientUnits="userSpaceOnUse" id="gradient3" spreadMethod="pad" x1="-819.2" x2="819.2">
      <stop offset="0.0" stop-color="#ffffff"/>
      <stop offset="1.0" stop-color="#a1a1a1"/>
    </linearGradient>
    <linearGradient gradientTransform="matrix(-1.0E-4, -0.002, 0.002, -1.0E-4, 93.6, 98.5)" gradientUnits="userSpaceOnUse" id="gradient4" spreadMethod="pad" x1="-819.2" x2="819.2">
      <stop offset="0.0" stop-color="#a18698"/>
      <stop offset="1.0" stop-color="#724b58"/>
    </linearGradient>
    <linearGradient gradientTransform="matrix(0.0, 0.0012, -0.0012, 0.0, 93.7, 98.45)" gradientUnits="userSpaceOnUse" id="gradient5" spreadMethod="pad" x1="-819.2" x2="819.2">
      <stop offset="0.0" stop-color="#ffffff"/>
      <stop offset="1.0" stop-color="#a1a1a1"/>
    </linearGradient>
    <linearGradient gradientTransform="matrix(-1.0E-4, -0.002, 0.002, -1.0E-4, 96.85, 91.3)" gradientUnits="userSpaceOnUse" id="gradient6" spreadMethod="pad" x1="-819.2" x2="819.2">
      <stop offset="0.0" stop-color="#a18698"/>
      <stop offset="1.0" stop-color="#724b58"/>
    </linearGradient>
    <linearGradient gradientTransform="matrix(0.0, 0.0012, -0.0012, 0.0, 96.95, 91.25)" gradientUnits="userSpaceOnUse" id="gradient7" spreadMethod="pad" x1="-819.2" x2="819.2">
      <stop offset="0.0" stop-color="#ffffff"/>
      <stop offset="1.0" stop-color="#a1a1a1"/>
    </linearGradient>
  </defs>
</svg>
