<?xml version="1.0" encoding="UTF-8" standalone="no"?>
<svg xmlns:xlink="http://www.w3.org/1999/xlink" height="12.9px" width="13.3px" xmlns="http://www.w3.org/2000/svg">
  <g transform="matrix(1.0, 0.0, 0.0, 1.0, 0.45, 0.45)">
    <path d="M9.1 8.0 L8.85 8.9 8.6 9.5 7.5 10.95 Q6.75 11.6 5.8 11.85 4.1 12.2 2.5 11.3 0.85 10.4 0.3 8.85 -0.35 7.15 0.55 5.5 1.55 3.7 3.5 2.9 4.75 2.3 5.85 2.45 L6.05 2.15 6.5 1.6 6.55 1.5 7.15 1.35 8.15 0.2 8.15 0.15 8.2 0.15 8.2 0.1 8.8 0.15 Q9.35 0.3 9.85 0.7 L10.6 1.6 10.75 2.15 10.7 2.25 10.65 2.3 9.85 3.35 9.95 3.4 12.3 5.75 12.3 6.45 11.05 8.4 8.7 10.8 7.65 11.5 9.1 9.9 Q10.6 8.1 11.0 6.75 11.15 6.3 10.1 5.05 L9.95 4.75 9.65 4.35 9.5 4.25 8.8 5.1 9.0 5.85 9.1 7.65 9.1 7.7 9.05 7.95 9.05 8.0 9.1 8.0 M10.25 5.95 L10.15 5.2 10.45 5.95 Q10.45 6.95 9.75 7.7 L9.35 7.85 9.65 7.55 Q10.25 6.85 10.25 5.95 M9.45 4.15 L8.9 4.1 8.6 4.0 9.5 4.25 9.45 4.15" fill="#517558" fill-rule="evenodd" stroke="none"/>
    <path d="M9.1 8.0 L8.85 8.9 8.6 9.5 7.5 10.95 Q6.75 11.6 5.8 11.85 4.1 12.2 2.5 11.3 0.85 10.4 0.3 8.85 -0.35 7.15 0.55 5.5 1.55 3.7 3.5 2.9 4.75 2.3 5.85 2.45 L6.05 2.15 6.5 1.6 6.55 1.5 7.15 1.35 8.15 0.2 8.15 0.15 8.2 0.15 8.2 0.1 8.8 0.15 Q9.35 0.3 9.85 0.7 L10.6 1.6 10.75 2.15 10.7 2.25 10.65 2.3 9.85 3.35 9.95 3.4 12.3 5.75 12.3 6.45 11.05 8.4 8.7 10.8 7.65 11.5 9.1 9.9 Q10.6 8.1 11.0 6.75 11.15 6.3 10.1 5.05 L9.65 4.35 M9.5 4.25 L8.8 5.1 9.0 5.85 9.1 7.65 9.1 7.7 9.1 8.0 9.05 8.0 9.05 7.95 9.1 7.7" fill="none" stroke="#071c0d" stroke-linecap="round" stroke-linejoin="round" stroke-width="1.0"/>
    <path d="M8.45 9.7 Q7.55 11.35 5.8 11.8 4.1 12.15 2.5 11.25 0.85 10.35 0.25 8.8 -0.35 7.1 0.55 5.45 1.55 3.65 3.5 2.85 L7.0 2.75 Q8.55 3.6 9.0 5.8 9.4 7.95 8.45 9.7" fill="#3c5741" fill-rule="evenodd" stroke="none"/>
    <path d="M6.65 2.95 Q8.2 3.95 8.55 5.75 8.95 7.75 7.45 9.1 5.65 10.05 3.95 9.8 2.25 9.6 1.25 8.25 0.55 7.4 0.65 6.3 0.8 5.25 1.75 4.15 4.05 2.1 6.65 2.95" fill="#5f8a68" fill-rule="evenodd" stroke="none"/>
    <path d="M6.8 11.4 Q5.65 12.05 4.05 11.7 2.65 11.4 1.55 10.55 2.9 11.3 3.8 11.45 6.05 11.7 7.45 10.35 9.0 9.0 9.1 6.4 9.2 8.2 8.65 9.45 8.0 10.75 6.8 11.4" fill="#72a2d7" fill-rule="evenodd" stroke="none"/>
    <path d="M7.9 8.35 Q6.4 8.35 4.85 7.25 3.75 6.45 3.0 4.95 L2.5 3.6 2.6 3.5 2.65 3.55 3.15 4.85 Q3.85 6.3 4.95 7.1 6.45 8.15 7.9 8.15 L8.95 8.0 9.1 8.0 9.05 8.15 7.9 8.35" fill="#6d9474" fill-rule="evenodd" stroke="none"/>
    <path d="M6.6 10.5 Q4.85 10.5 3.45 9.55 1.9 8.45 1.25 7.05 0.85 6.15 0.85 5.35 L0.85 5.2 0.95 5.15 1.05 5.25 1.05 5.35 Q1.05 6.15 1.4 6.95 2.05 8.35 3.55 9.4 4.9 10.35 6.6 10.35 L7.85 10.1 7.95 10.15 7.95 10.3 6.6 10.5" fill="#6d9474" fill-rule="evenodd" stroke="none"/>
    <path d="M8.05 8.15 Q6.6 8.15 5.0 7.05 3.85 6.25 3.15 4.75 L2.65 3.45 2.75 3.35 2.85 3.4 3.3 4.7 Q4.0 6.15 5.1 6.95 6.6 8.0 8.05 8.0 L9.05 7.85 9.15 7.9 9.1 8.0 8.05 8.15" fill="#231815" fill-rule="evenodd" stroke="none"/>
    <path d="M6.85 10.3 Q5.0 10.3 3.6 9.35 2.1 8.3 1.4 6.9 1.0 6.0 1.0 5.2 L1.05 5.0 1.1 4.95 1.2 5.0 1.2 5.2 Q1.2 6.0 1.6 6.8 2.2 8.15 3.7 9.2 5.05 10.15 6.85 10.15 L8.1 9.9 Q8.2 9.85 8.2 9.95 L8.2 10.05 6.85 10.3" fill="#231815" fill-rule="evenodd" stroke="none"/>
    <path d="M5.95 3.8 L4.7 4.15 Q3.2 4.85 2.2 6.05 0.85 7.7 0.85 8.95 L0.85 9.15 0.85 9.2 0.75 9.25 0.65 9.15 0.65 8.95 Q0.65 7.6 2.05 5.95 3.1 4.7 4.6 4.05 5.35 3.7 5.95 3.6 L6.05 3.7 5.95 3.8" fill="#6b7d5c" fill-rule="evenodd" stroke="none"/>
    <path d="M6.85 9.15 L5.25 10.95 Q4.5 11.6 4.0 11.65 L3.9 11.6 4.0 11.5 5.15 10.8 6.7 9.05 Q7.25 8.1 7.5 6.6 L7.65 5.3 7.7 5.2 7.8 5.3 7.65 6.65 6.85 9.15" fill="#527058" fill-rule="evenodd" stroke="none"/>
    <path d="M6.15 3.95 L4.85 4.3 Q3.4 4.95 2.35 6.2 0.95 7.9 0.95 9.3 L0.95 9.45 0.85 9.5 0.8 9.45 0.75 9.3 Q0.75 7.8 2.2 6.1 3.25 4.8 4.8 4.15 L6.1 3.75 Q6.2 3.7 6.2 3.8 L6.2 3.9 6.15 3.95" fill="#231815" fill-rule="evenodd" stroke="none"/>
    <path d="M6.6 9.0 L5.0 10.85 3.75 11.6 3.65 11.5 3.7 11.4 Q4.1 11.35 4.9 10.7 L6.5 8.9 Q7.45 7.55 7.45 5.15 L7.45 5.1 7.5 5.0 7.6 5.1 7.6 5.15 Q7.6 7.55 6.6 9.0" fill="#231815" fill-rule="evenodd" stroke="none"/>
    <path d="M6.6 1.5 L6.85 2.1 7.7 3.3 Q8.6 4.05 9.55 4.15 8.95 5.2 8.45 5.3 L7.45 5.05 6.4 4.3 Q5.65 3.35 5.7 2.85 5.7 2.6 6.15 2.05 L6.6 1.5" fill="#303030" fill-rule="evenodd" stroke="none"/>
    <path d="M9.75 3.95 L8.95 4.0 7.7 3.3 6.75 2.25 Q6.45 1.65 6.65 1.4 L7.45 1.35 Q8.1 1.55 8.7 2.05 L9.65 3.15 Q10.0 3.7 9.75 3.95" fill="#5e5e5e" fill-rule="evenodd" stroke="none"/>
    <path d="M11.0 8.4 L8.7 10.75 7.65 11.5 9.1 9.9 Q10.6 8.05 11.0 6.75 11.3 5.75 7.95 2.7 L8.1 1.95 9.95 3.4 12.25 5.7 12.25 6.45 11.0 8.4" fill="#a8a8a8" fill-rule="evenodd" stroke="none"/>
    <path d="M10.3 3.6 L10.7 3.95 10.45 5.05 10.05 4.55 10.3 3.6" fill="#616161" fill-rule="evenodd" stroke="none"/>
    <path d="M12.05 5.35 L12.2 5.5 12.4 5.95 12.15 6.8 11.05 6.95 11.15 6.35 11.15 6.2 Q11.95 5.95 12.05 5.35" fill="#616161" fill-rule="evenodd" stroke="none"/>
    <path d="M6.05 6.65 L5.4 6.55 Q5.0 6.35 4.7 6.0 L4.35 5.35 Q4.3 5.0 4.5 4.85 L5.25 4.65 Q5.85 4.6 6.1 4.9 L6.3 5.85 6.05 6.65" fill="#7fba8b" fill-rule="evenodd" stroke="none"/>
    <path d="M2.3 7.35 Q2.0 7.0 2.5 6.55 3.0 6.05 3.1 6.4 3.25 6.9 2.95 7.2 L2.6 7.45 2.3 7.35" fill="#71a67b" fill-rule="evenodd" stroke="none"/>
    <path d="M4.2 3.8 Q3.9 3.95 3.8 3.7 L3.8 3.5 4.0 3.3 4.25 3.3 4.45 3.45 4.2 3.8" fill="#88c493" fill-rule="evenodd" stroke="none"/>
    <path d="M9.8 3.4 L9.1 3.5 8.1 2.9 7.3 2.0 Q7.05 1.55 7.2 1.3 L8.3 0.05 10.85 2.05 9.8 3.4" fill="#303030" fill-rule="evenodd" stroke="none"/>
    <path d="M10.8 2.15 L10.1 2.25 9.1 1.65 8.3 0.75 Q8.1 0.3 8.25 0.1 L8.9 0.05 9.9 0.65 10.7 1.5 Q10.95 1.95 10.8 2.15" fill="#6e6e6e" fill-rule="evenodd" stroke="none"/>
    <path d="M6.1 5.85 Q6.1 6.95 6.95 7.65 6.05 7.0 6.05 5.75 6.05 4.85 6.65 4.15 7.25 3.5 8.15 3.5 8.85 3.5 9.4 3.95 8.85 3.6 8.2 3.6 7.35 3.6 6.7 4.25 6.1 4.9 6.1 5.85" fill="#a8a8a8" fill-rule="evenodd" stroke="none"/>
    <path d="M9.45 3.8 Q10.5 4.55 10.5 5.85 10.5 6.9 9.85 7.65 9.15 8.35 8.2 8.35 7.45 8.35 6.85 7.85 7.4 8.25 8.1 8.25 9.05 8.25 9.75 7.55 10.4 6.85 10.4 5.8 10.4 4.55 9.45 3.8" fill="#a8a8a8" fill-rule="evenodd" stroke="none"/>
    <path d="M10.35 5.85 Q10.35 4.6 9.4 3.95 8.85 3.5 8.15 3.5 7.25 3.5 6.65 4.15 6.05 4.85 6.05 5.75 6.05 7.0 6.95 7.65 L8.2 8.1 Q9.1 8.1 9.7 7.45 10.35 6.8 10.35 5.85 M6.6 4.15 Q7.3 3.4 8.2 3.4 8.95 3.4 9.45 3.8 10.4 4.55 10.4 5.8 10.4 6.85 9.75 7.55 9.05 8.25 8.1 8.25 7.4 8.25 6.85 7.85 5.95 7.1 5.95 5.85 5.95 4.85 6.6 4.15" fill="#ffffff" fill-rule="evenodd" stroke="none"/>
    <path d="M8.15 0.7 L8.5 1.15 8.3 1.45 8.15 1.75 7.95 2.7 7.6 2.3 7.4 1.9 8.15 0.7" fill="#4d4d4d" fill-rule="evenodd" stroke="none"/>
    <path d="M6.15 5.9 Q6.15 6.95 6.95 7.65 6.05 7.0 6.05 5.85 6.05 4.95 6.65 4.3 7.2 3.65 8.05 3.65 8.75 3.65 9.25 4.1 8.75 3.75 8.15 3.75 7.3 3.75 6.7 4.35 6.15 5.0 6.15 5.9" fill="#a8a8a8" fill-rule="evenodd" stroke="none"/>
    <path d="M9.35 4.0 Q10.35 4.65 10.35 5.95 10.35 6.9 9.7 7.6 9.05 8.3 8.15 8.3 L6.85 7.85 8.05 8.2 Q8.95 8.2 9.6 7.55 10.25 6.85 10.25 5.9 10.25 4.7 9.35 4.0" fill="#a8a8a8" fill-rule="evenodd" stroke="none"/>
    <path d="M5.95 5.95 Q5.95 4.95 6.6 4.25 7.25 3.6 8.15 3.6 8.85 3.6 9.35 4.0 10.25 4.7 10.25 5.9 10.25 6.85 9.6 7.55 8.95 8.2 8.05 8.2 L6.85 7.85 Q5.95 7.1 5.95 5.95 M10.15 5.9 Q10.15 4.75 9.25 4.1 8.75 3.65 8.05 3.65 7.2 3.65 6.65 4.3 6.05 4.95 6.05 5.85 6.05 7.0 6.95 7.65 7.5 8.1 8.15 8.1 9.0 8.1 9.55 7.45 10.15 6.8 10.15 5.9" fill="#ffffff" fill-rule="evenodd" stroke="none"/>
  </g>
</svg>
