<?xml version="1.0" encoding="UTF-8" standalone="no"?>
<svg xmlns:xlink="http://www.w3.org/1999/xlink" height="46.55px" width="44.85px" xmlns="http://www.w3.org/2000/svg">
  <g transform="matrix(1.0, 0.0, 0.0, 1.0, -24.5, -23.35)">
    <path d="M64.1 32.25 Q65.3 37.2 64.65 40.8 65.8 40.6 68.35 37.4 L69.25 42.55 Q69.75 48.25 67.75 50.85 67.05 51.8 65.95 54.4 64.9 56.9 63.8 58.2 60.25 62.45 50.05 63.1 40.2 63.7 34.05 61.35 27.6 58.95 27.8 54.15 L26.15 50.65 Q24.6 46.65 24.9 44.05 L25.0 43.4 24.5 42.75 24.9 41.85 Q25.15 41.5 25.0 43.4 L28.1 47.6 Q26.85 44.95 26.6 41.3 26.15 34.1 31.35 29.3 L32.35 32.8 Q33.65 36.6 35.25 38.1 35.15 35.75 35.4 32.75 35.95 26.7 37.9 23.35 L39.9 28.0 Q41.9 33.3 42.1 36.65 L43.3 33.0 Q44.9 28.8 46.95 25.9 L47.9 27.5 Q49.0 29.85 50.05 33.5 53.15 25.95 55.3 23.35 L56.85 27.3 Q58.45 31.65 58.8 33.95 59.65 31.5 62.75 28.05 L64.1 32.25" fill="#005370" fill-rule="evenodd" stroke="none"/>
    <path d="M47.8 34.25 Q48.8 36.6 49.7 40.2 52.45 32.7 54.4 30.05 L55.75 34.0 Q57.15 38.4 57.45 40.7 58.25 38.2 61.0 34.8 L62.15 39.0 Q63.25 43.95 62.7 47.5 63.7 47.3 65.95 44.1 L66.75 49.25 Q67.2 54.95 65.45 57.55 64.8 58.5 63.8 61.1 62.9 63.6 61.95 64.9 58.75 69.15 49.7 69.8 41.0 70.4 35.5 68.05 29.75 65.65 29.95 60.9 L28.5 57.4 Q27.05 53.4 27.35 50.75 L27.45 50.15 27.0 49.5 27.35 48.55 Q27.6 48.2 27.45 50.15 L30.2 54.35 Q29.05 51.7 28.85 48.05 28.45 40.8 33.05 36.0 L33.95 39.5 Q35.1 43.3 36.55 44.85 36.45 42.5 36.7 39.45 37.15 33.4 38.9 30.05 L40.7 34.7 Q42.5 40.0 42.65 43.35 L43.75 39.7 Q45.15 35.5 46.95 32.6 L47.8 34.25" fill="#006082" fill-rule="evenodd" stroke="none"/>
  </g>
</svg>
