<?xml version="1.0" encoding="UTF-8" standalone="no"?>
<svg xmlns:xlink="http://www.w3.org/1999/xlink" height="20.7px" width="146.4px" xmlns="http://www.w3.org/2000/svg">
  <g transform="matrix(1.0, 0.0, 0.0, 1.0, -0.3, -0.05)">
    <path d="M138.25 8.4 Q137.4 7.3 136.0 7.3 L136.0 14.0 Q137.4 14.0 138.25 12.9 139.05 11.9 139.05 10.65 139.05 9.4 138.25 8.4 M129.25 3.6 L129.55 3.85 129.15 17.2 128.85 17.45 124.6 17.5 124.4 17.45 124.3 17.25 124.55 3.75 124.8 3.55 129.25 3.6 M130.95 3.05 Q136.4 3.05 139.8 4.55 144.2 6.5 144.2 10.65 144.2 14.85 139.8 16.75 136.45 18.25 131.0 18.25 L130.7 18.0 130.7 3.3 Q130.7 3.05 130.95 3.05 M123.2 16.3 Q123.2 17.0 122.2 17.4 L120.5 17.7 118.7 17.4 Q117.7 16.95 117.7 16.25 117.7 15.6 118.75 15.2 L120.45 14.85 122.2 15.2 Q123.2 15.6 123.2 16.3 M116.8 11.05 Q116.8 13.9 114.8 16.0 112.65 18.2 109.35 18.2 105.5 18.2 103.3 16.2 101.15 14.25 101.15 10.95 101.15 7.75 103.4 5.6 105.7 3.35 109.5 3.35 112.8 3.35 114.9 5.85 116.8 8.1 116.8 11.05 M106.75 8.9 Q105.95 9.9 105.95 11.15 105.95 12.35 106.75 13.35 107.65 14.45 109.05 14.45 110.45 14.45 111.35 13.35 112.2 12.35 112.2 11.15 112.2 9.9 111.35 8.9 110.45 7.8 109.05 7.8 107.65 7.8 106.75 8.9 M92.85 7.6 Q90.9 8.6 90.9 10.65 90.9 12.15 92.05 12.95 93.1 13.7 94.85 13.7 96.8 13.7 99.0 12.55 L99.15 12.5 Q99.45 12.5 99.45 12.7 L100.2 16.0 100.15 16.15 Q99.35 16.95 97.6 17.4 L94.65 17.75 Q90.8 17.75 88.4 15.85 85.95 13.95 85.95 10.65 85.95 6.65 89.2 4.5 91.8 2.8 95.85 2.6 L97.1 2.55 Q97.65 2.55 97.7 2.75 L98.35 6.55 98.05 6.8 97.55 6.75 97.05 6.75 95.85 6.8 Q94.05 6.95 92.85 7.6 M84.05 17.4 L82.35 17.7 80.55 17.4 Q79.55 16.95 79.55 16.25 79.55 15.6 80.6 15.2 L82.3 14.85 84.05 15.2 Q85.05 15.6 85.05 16.3 85.05 17.0 84.05 17.4 M78.45 5.9 L78.35 6.05 75.6 8.75 75.4 8.85 75.25 8.75 Q72.9 7.35 71.05 7.35 69.95 7.35 69.95 7.95 69.95 8.4 72.1 9.05 74.95 9.95 76.1 10.65 78.3 11.9 78.3 13.75 78.3 16.1 76.05 17.2 74.3 18.05 71.35 18.05 69.55 18.05 67.75 17.35 65.9 16.65 64.8 15.55 L64.7 15.35 64.8 15.2 67.5 12.6 67.75 12.55 69.25 13.25 Q70.85 14.0 71.95 14.0 73.2 14.0 73.2 13.3 73.2 12.8 71.05 12.25 68.2 11.55 67.0 10.85 64.85 9.6 64.85 7.5 64.85 5.65 67.3 4.35 69.45 3.25 71.75 3.25 73.55 3.25 75.35 3.9 77.25 4.6 78.35 5.75 L78.45 5.9 M63.55 3.4 L63.55 6.1 63.3 6.35 56.8 6.35 56.75 8.65 61.95 8.65 Q62.25 8.65 62.25 8.85 L62.25 11.6 Q62.25 11.85 61.95 11.85 L56.75 11.85 56.75 13.95 63.3 13.95 63.55 14.2 63.55 16.9 63.3 17.15 52.15 17.15 51.85 16.9 51.85 3.4 Q51.85 3.15 52.1 3.15 L63.3 3.15 63.55 3.4 M50.0 3.7 L50.65 16.85 50.4 17.1 46.45 17.3 46.15 17.05 45.95 9.3 43.5 16.65 43.25 16.85 40.8 16.85 40.55 16.65 38.05 9.3 37.9 17.05 Q37.9 17.35 37.55 17.3 L33.65 17.15 33.35 16.9 34.0 3.7 Q34.0 3.45 34.3 3.45 L38.9 3.5 Q39.1 3.5 39.15 3.65 L42.0 11.05 44.9 3.65 Q44.95 3.5 45.15 3.5 L49.75 3.45 50.0 3.7 M26.4 11.75 L25.35 6.9 24.15 11.75 26.4 11.75 M28.8 3.4 L29.05 3.6 32.7 17.65 32.45 17.85 27.9 17.8 27.65 17.6 27.1 14.95 23.4 14.95 22.85 17.25 22.55 17.45 18.05 17.45 17.75 17.25 17.75 17.15 21.45 3.6 Q21.5 3.4 21.75 3.4 L28.8 3.4 M14.55 2.75 L15.2 6.55 Q15.25 6.8 14.9 6.8 L14.4 6.75 13.9 6.75 Q11.25 6.75 9.65 7.65 7.75 8.65 7.75 10.8 7.75 13.8 10.85 13.8 L12.15 13.65 12.1 11.95 10.0 12.0 9.8 11.95 9.7 11.75 9.8 9.85 Q9.8 9.6 10.05 9.6 L16.5 9.25 Q16.85 9.2 16.85 9.45 L17.1 15.95 17.0 16.15 Q16.2 16.9 14.4 17.35 L11.4 17.7 Q7.55 17.7 5.2 15.85 2.8 13.9 2.8 10.65 2.8 6.65 6.1 4.5 9.05 2.55 13.95 2.55 L14.55 2.75" fill="url(#gradient0)" fill-rule="evenodd" stroke="none"/>
    <path d="M138.25 8.4 Q137.4 7.3 136.0 7.3 L136.0 14.0 Q137.4 14.0 138.25 12.9 139.05 11.9 139.05 10.65 139.05 9.4 138.25 8.4 M129.25 3.6 L129.55 3.85 129.15 17.2 128.85 17.45 124.6 17.5 124.4 17.45 124.3 17.25 124.55 3.75 124.8 3.55 129.25 3.6 M130.95 3.05 Q136.4 3.05 139.8 4.55 144.2 6.5 144.2 10.65 144.2 14.85 139.8 16.75 136.45 18.25 131.0 18.25 L130.7 18.0 130.7 3.3 Q130.7 3.05 130.95 3.05 M123.2 16.3 Q123.2 17.0 122.2 17.4 L120.5 17.7 118.7 17.4 Q117.7 16.95 117.7 16.25 117.7 15.6 118.75 15.2 L120.45 14.85 122.2 15.2 Q123.2 15.6 123.2 16.3 M116.8 11.05 Q116.8 13.9 114.8 16.0 112.65 18.2 109.35 18.2 105.5 18.2 103.3 16.2 101.15 14.25 101.15 10.95 101.15 7.75 103.4 5.6 105.7 3.35 109.5 3.35 112.8 3.35 114.9 5.85 116.8 8.1 116.8 11.05 M106.75 8.9 Q105.95 9.9 105.95 11.15 105.95 12.35 106.75 13.35 107.65 14.45 109.05 14.45 110.45 14.45 111.35 13.35 112.2 12.35 112.2 11.15 112.2 9.9 111.35 8.9 110.45 7.8 109.05 7.8 107.65 7.8 106.75 8.9 M92.85 7.6 Q90.9 8.6 90.9 10.65 90.9 12.15 92.05 12.95 93.1 13.7 94.85 13.7 96.8 13.7 99.0 12.55 L99.15 12.5 Q99.45 12.5 99.45 12.7 L100.2 16.0 100.15 16.15 Q99.35 16.95 97.6 17.4 L94.65 17.75 Q90.8 17.75 88.4 15.85 85.95 13.95 85.95 10.65 85.95 6.65 89.2 4.5 91.8 2.8 95.85 2.6 L97.1 2.55 Q97.65 2.55 97.7 2.75 L98.35 6.55 98.05 6.8 97.55 6.75 97.05 6.75 95.85 6.8 Q94.05 6.95 92.85 7.6 M84.05 17.4 L82.35 17.7 80.55 17.4 Q79.55 16.95 79.55 16.25 79.55 15.6 80.6 15.2 L82.3 14.85 84.05 15.2 Q85.05 15.6 85.05 16.3 85.05 17.0 84.05 17.4 M78.45 5.9 L78.35 6.05 75.6 8.75 75.4 8.85 75.25 8.75 Q72.9 7.35 71.05 7.35 69.95 7.35 69.95 7.95 69.95 8.4 72.1 9.05 74.95 9.95 76.1 10.65 78.3 11.9 78.3 13.75 78.3 16.1 76.05 17.2 74.3 18.05 71.35 18.05 69.55 18.05 67.75 17.35 65.9 16.65 64.8 15.55 L64.7 15.35 64.8 15.2 67.5 12.6 67.75 12.55 69.25 13.25 Q70.85 14.0 71.95 14.0 73.2 14.0 73.2 13.3 73.2 12.8 71.05 12.25 68.2 11.55 67.0 10.85 64.85 9.6 64.85 7.5 64.85 5.65 67.3 4.35 69.45 3.25 71.75 3.25 73.55 3.25 75.35 3.9 77.25 4.6 78.35 5.75 L78.45 5.9 M63.55 3.4 L63.55 6.1 63.3 6.35 56.8 6.35 56.75 8.65 61.95 8.65 Q62.25 8.65 62.25 8.85 L62.25 11.6 Q62.25 11.85 61.95 11.85 L56.75 11.85 56.75 13.95 63.3 13.95 63.55 14.2 63.55 16.9 63.3 17.15 52.15 17.15 51.85 16.9 51.85 3.4 Q51.85 3.15 52.1 3.15 L63.3 3.15 63.55 3.4 M50.0 3.7 L50.65 16.85 50.4 17.1 46.45 17.3 46.15 17.05 45.95 9.3 43.5 16.65 43.25 16.85 40.8 16.85 40.55 16.65 38.05 9.3 37.9 17.05 Q37.9 17.35 37.55 17.3 L33.65 17.15 33.35 16.9 34.0 3.7 Q34.0 3.45 34.3 3.45 L38.9 3.5 Q39.1 3.5 39.15 3.65 L42.0 11.05 44.9 3.65 Q44.95 3.5 45.15 3.5 L49.75 3.45 50.0 3.7 M26.4 11.75 L25.35 6.9 24.15 11.75 26.4 11.75 M28.8 3.4 L29.05 3.6 32.7 17.65 32.45 17.85 27.9 17.8 27.65 17.6 27.1 14.95 23.4 14.95 22.85 17.25 22.55 17.45 18.05 17.45 17.75 17.25 17.75 17.15 21.45 3.6 Q21.5 3.4 21.75 3.4 L28.8 3.4 M14.55 2.75 L15.2 6.55 Q15.25 6.8 14.9 6.8 L14.4 6.75 13.9 6.75 Q11.25 6.75 9.65 7.65 7.75 8.65 7.75 10.8 7.75 13.8 10.85 13.8 L12.15 13.65 12.1 11.95 10.0 12.0 9.8 11.95 9.7 11.75 9.8 9.85 Q9.8 9.6 10.05 9.6 L16.5 9.25 Q16.85 9.2 16.85 9.45 L17.1 15.95 17.0 16.15 Q16.2 16.9 14.4 17.35 L11.4 17.7 Q7.55 17.7 5.2 15.85 2.8 13.9 2.8 10.65 2.8 6.65 6.1 4.5 9.05 2.55 13.95 2.55 L14.55 2.75" fill="none" stroke="url(#gradient1)" stroke-linecap="round" stroke-linejoin="round" stroke-width="5.0"/>
  </g>
  <defs>
    <linearGradient gradientTransform="matrix(0.0, 0.3354, -0.1207, 0.0, 73.35, -197.3)" gradientUnits="userSpaceOnUse" id="gradient0" spreadMethod="pad" x1="-819.2" x2="819.2">
      <stop offset="0.0" stop-color="#ffffff"/>
      <stop offset="1.0" stop-color="#000000"/>
    </linearGradient>
    <linearGradient gradientTransform="matrix(0.0, 0.0072, -0.0049, 0.0, 137.55, 10.65)" gradientUnits="userSpaceOnUse" id="gradient1" spreadMethod="pad" x1="-819.2" x2="819.2">
      <stop offset="0.23529411764705882" stop-color="#efa200"/>
      <stop offset="0.8313725490196079" stop-color="#a31b00"/>
    </linearGradient>
  </defs>
</svg>
