<?xml version="1.0" encoding="UTF-8" standalone="no"?>
<svg xmlns:xlink="http://www.w3.org/1999/xlink" height="15.7px" width="141.4px" xmlns="http://www.w3.org/2000/svg">
  <g transform="matrix(1.0, 0.0, 0.0, 1.0, 0.0, 0.0)">
    <path d="M141.4 8.1 Q141.4 12.3 137.0 14.2 133.65 15.7 128.2 15.7 L127.9 15.45 127.9 0.75 Q127.9 0.5 128.15 0.5 133.6 0.5 137.0 2.0 141.4 3.95 141.4 8.1 M133.2 11.45 Q134.6 11.45 135.45 10.35 136.25 9.35 136.25 8.1 136.25 6.85 135.45 5.85 134.6 4.75 133.2 4.75 L133.2 11.45 M126.75 1.3 L126.35 14.65 126.05 14.9 121.8 14.95 121.6 14.9 121.5 14.7 121.75 1.2 122.0 1.0 126.45 1.05 Q126.75 1.05 126.75 1.3 M114.0 8.5 Q114.0 11.35 112.0 13.45 109.85 15.65 106.55 15.65 102.7 15.65 100.5 13.65 98.35 11.7 98.35 8.4 98.35 5.2 100.6 3.05 102.9 0.8 106.7 0.8 110.0 0.8 112.1 3.3 114.0 5.55 114.0 8.5 M103.95 6.35 Q103.15 7.35 103.15 8.6 103.15 9.8 103.95 10.8 104.85 11.9 106.25 11.9 107.65 11.9 108.55 10.8 109.4 9.8 109.4 8.6 109.4 7.35 108.55 6.35 107.65 5.25 106.25 5.25 104.85 5.25 103.95 6.35 M114.9 13.7 Q114.9 13.05 115.95 12.65 L117.65 12.3 119.4 12.65 Q120.4 13.05 120.4 13.75 120.4 14.45 119.4 14.85 L117.7 15.15 115.9 14.85 Q114.9 14.4 114.9 13.7 M95.25 4.25 L94.75 4.2 94.25 4.2 Q91.65 4.2 90.05 5.05 88.1 6.05 88.1 8.1 88.1 9.6 89.25 10.4 90.3 11.15 92.05 11.15 94.0 11.15 96.2 10.0 L96.35 9.95 96.65 10.15 97.4 13.45 97.35 13.6 Q96.55 14.4 94.8 14.85 L91.85 15.2 Q88.0 15.2 85.6 13.3 83.15 11.4 83.15 8.1 83.15 4.1 86.4 1.95 89.4 0.0 94.3 0.0 L94.9 0.2 95.55 4.0 95.25 4.25 M81.25 14.85 L79.55 15.15 77.75 14.85 Q76.75 14.4 76.75 13.7 76.75 13.05 77.8 12.65 L79.5 12.3 81.25 12.65 Q82.25 13.05 82.25 13.75 82.25 14.45 81.25 14.85 M72.6 6.3 L72.45 6.2 Q70.1 4.8 68.25 4.8 67.15 4.8 67.15 5.4 67.15 5.85 69.3 6.5 72.15 7.4 73.3 8.1 75.5 9.35 75.5 11.2 75.5 13.55 73.25 14.65 71.5 15.5 68.55 15.5 66.75 15.5 64.95 14.8 63.1 14.1 62.0 13.0 L61.9 12.8 62.0 12.65 64.7 10.05 64.95 10.0 66.45 10.7 Q68.05 11.45 69.15 11.45 70.4 11.45 70.4 10.75 70.4 10.25 68.25 9.7 65.4 9.0 64.2 8.3 62.05 7.05 62.05 4.95 62.05 3.1 64.5 1.8 66.65 0.7 68.95 0.7 70.75 0.7 72.55 1.35 74.45 2.05 75.55 3.2 L75.65 3.35 75.55 3.5 72.8 6.2 72.6 6.3 M60.75 3.55 L60.5 3.8 54.0 3.8 53.95 6.1 59.15 6.1 59.45 6.3 59.45 9.05 59.15 9.3 53.95 9.3 53.95 11.4 60.5 11.4 60.75 11.65 60.75 14.35 60.5 14.6 49.35 14.6 Q49.05 14.6 49.05 14.35 L49.05 0.85 Q49.05 0.6 49.3 0.6 L60.5 0.6 60.75 0.85 60.75 3.55 M46.95 0.9 L47.2 1.15 47.85 14.3 47.6 14.55 43.65 14.75 43.35 14.5 43.15 6.75 40.7 14.1 40.45 14.3 38.0 14.3 37.75 14.1 35.25 6.75 35.1 14.5 34.75 14.75 30.85 14.6 Q30.55 14.6 30.55 14.35 L31.2 1.15 Q31.2 0.9 31.5 0.9 L36.1 0.95 36.35 1.1 39.2 8.5 42.1 1.1 Q42.15 0.95 42.35 0.95 L46.95 0.9 M23.6 9.2 L22.55 4.35 21.35 9.2 23.6 9.2 M26.25 1.05 L29.9 15.1 29.65 15.3 25.1 15.25 Q24.85 15.25 24.85 15.05 L24.3 12.4 20.6 12.4 20.05 14.7 19.75 14.9 15.25 14.9 14.95 14.7 14.95 14.6 18.65 1.05 Q18.7 0.85 18.95 0.85 L26.0 0.85 Q26.2 0.85 26.25 1.05 M11.6 4.2 L11.1 4.2 Q8.45 4.2 6.85 5.1 4.95 6.1 4.95 8.25 4.95 11.25 8.05 11.25 L9.35 11.1 9.3 9.4 7.2 9.45 7.0 9.4 6.9 9.2 7.0 7.3 Q7.0 7.05 7.25 7.05 L13.7 6.7 Q14.05 6.65 14.05 6.9 L14.3 13.4 14.2 13.6 Q13.4 14.35 11.6 14.8 L8.6 15.15 Q4.75 15.15 2.4 13.3 0.0 11.35 0.0 8.1 0.0 4.1 3.3 1.95 6.25 0.0 11.15 0.0 11.7 0.0 11.75 0.2 L12.4 4.0 12.1 4.25 11.6 4.2" fill="#ffffff" fill-rule="evenodd" stroke="none"/>
  </g>
</svg>
