<?xml version="1.0" encoding="UTF-8" standalone="no"?>
<svg xmlns:xlink="http://www.w3.org/1999/xlink" height="23.55px" width="162.0px" xmlns="http://www.w3.org/2000/svg">
  <g transform="matrix(1.0, 0.0, 0.0, 1.0, -0.25, -0.2)">
    <path d="M151.55 7.1 L148.4 3.45 143.0 3.45 141.8 8.7 143.0 8.7 143.0 20.75 148.35 20.75 148.35 11.35 151.6 14.8 154.7 11.05 154.7 20.75 159.75 20.75 159.75 3.45 154.4 3.45 151.55 7.1 M132.5 3.1 Q128.3 3.1 125.55 6.0 123.05 8.5 123.05 11.7 123.05 15.85 125.7 18.4 128.4 21.0 132.55 21.0 136.65 21.0 139.35 18.05 141.7 15.5 141.7 12.35 141.7 8.5 139.05 5.85 136.4 3.1 132.5 3.1 M128.85 11.95 Q128.85 10.45 129.9 9.5 131.0 8.55 132.45 8.55 133.95 8.55 134.9 9.55 135.85 10.6 135.85 12.05 L135.6 13.4 134.9 14.45 133.8 15.2 132.45 15.45 131.0 15.2 Q130.35 14.95 129.85 14.5 L129.1 13.35 Q128.85 12.75 128.85 11.95 M119.8 13.75 Q118.05 15.45 116.35 15.45 L114.9 15.2 113.7 14.4 112.95 13.25 Q112.65 12.55 112.65 11.75 112.65 10.3 113.8 9.35 114.95 8.35 116.35 8.35 117.15 8.35 118.2 8.85 119.2 9.35 119.85 9.95 L122.4 4.35 118.05 2.7 117.7 3.25 116.55 3.15 115.55 3.1 Q111.7 3.1 109.2 6.3 107.0 9.0 107.0 12.0 107.0 15.75 109.7 18.35 112.4 20.95 116.2 20.95 119.75 20.95 122.2 18.7 L119.8 13.75 M101.15 16.25 L100.55 17.15 Q100.3 17.7 100.3 18.3 L100.55 19.45 101.15 20.4 102.05 21.0 103.2 21.25 Q104.35 21.25 105.25 20.4 106.1 19.5 106.1 18.3 106.1 17.1 105.25 16.25 104.4 15.4 103.2 15.4 L102.05 15.6 Q101.55 15.85 101.15 16.25 M93.35 3.45 L93.35 9.3 89.55 3.45 84.1 3.45 82.9 8.05 84.1 8.05 84.1 20.75 89.5 20.75 89.5 13.0 94.4 20.75 98.75 20.75 98.75 3.45 93.35 3.45 M82.2 14.55 L82.2 3.45 76.75 3.45 76.75 13.9 Q76.75 15.6 74.95 15.6 74.3 15.6 73.8 15.25 73.35 14.85 73.35 14.2 L73.35 3.45 67.95 3.45 66.75 8.5 67.95 8.5 67.95 14.9 Q67.95 17.15 69.5 18.9 71.35 21.05 74.8 21.05 78.0 21.05 80.05 19.4 82.2 17.7 82.2 14.55 M59.85 7.2 L58.15 3.45 52.0 3.45 57.25 12.9 57.25 20.75 62.6 20.75 62.6 12.9 67.6 3.45 61.65 3.45 59.85 7.2 M46.35 13.4 L45.65 14.45 44.55 15.2 43.2 15.45 41.75 15.2 Q41.1 14.95 40.6 14.5 L39.85 13.35 Q39.6 12.75 39.6 11.95 39.6 10.45 40.65 9.5 41.75 8.55 43.2 8.55 44.7 8.55 45.65 9.55 46.6 10.6 46.6 12.05 L46.35 13.4 M52.45 12.35 Q52.45 8.5 49.8 5.85 47.15 3.1 43.25 3.1 39.05 3.1 36.3 6.0 33.8 8.5 33.8 11.7 33.8 15.85 36.45 18.4 39.15 21.0 43.3 21.0 47.4 21.0 50.1 18.05 52.45 15.5 52.45 12.35 M28.2 2.7 L28.05 3.25 27.3 3.15 26.85 3.15 26.05 3.15 Q23.45 3.15 21.85 4.5 20.2 5.95 20.2 8.45 20.2 10.9 22.05 12.3 23.05 13.05 25.4 13.85 27.25 14.45 27.25 15.05 27.25 15.85 26.1 15.85 L23.75 15.35 21.5 14.35 20.15 19.35 Q23.15 21.1 26.15 21.1 29.05 21.1 30.95 19.55 32.95 17.9 32.95 15.1 32.95 12.65 31.15 11.2 30.15 10.45 27.85 9.65 26.0 9.05 26.0 8.55 26.0 7.8 27.25 7.8 L29.25 8.2 31.2 9.0 32.75 3.6 28.2 2.7 M6.15 8.05 L2.75 20.75 8.3 20.75 9.0 18.3 13.9 18.3 14.4 20.75 20.1 20.75 15.2 3.45 6.6 3.45 4.9 8.05 6.15 8.05 M10.1 13.75 L11.45 8.6 12.8 13.75 10.1 13.75" fill="none" stroke="#000000" stroke-linecap="round" stroke-linejoin="round" stroke-width="5.0"/>
    <path d="M151.55 7.1 L148.4 3.45 143.0 3.45 141.8 8.7 143.0 8.7 143.0 20.75 148.35 20.75 148.35 11.35 151.6 14.8 154.7 11.05 154.7 20.75 159.75 20.75 159.75 3.45 154.4 3.45 151.55 7.1 M132.5 3.1 Q128.3 3.1 125.55 6.0 123.05 8.5 123.05 11.7 123.05 15.85 125.7 18.4 128.4 21.0 132.55 21.0 136.65 21.0 139.35 18.05 141.7 15.5 141.7 12.35 141.7 8.5 139.05 5.85 136.4 3.1 132.5 3.1 M128.85 11.95 Q128.85 10.45 129.9 9.5 131.0 8.55 132.45 8.55 133.95 8.55 134.9 9.55 135.85 10.6 135.85 12.05 L135.6 13.4 134.9 14.45 133.8 15.2 132.45 15.45 131.0 15.2 Q130.35 14.95 129.85 14.5 L129.1 13.35 Q128.85 12.75 128.85 11.95 M119.8 13.75 Q118.05 15.45 116.35 15.45 L114.9 15.2 113.7 14.4 112.95 13.25 Q112.65 12.55 112.65 11.75 112.65 10.3 113.8 9.35 114.95 8.35 116.35 8.35 117.15 8.35 118.2 8.85 119.2 9.35 119.85 9.95 L122.4 4.35 118.05 2.7 117.7 3.25 116.55 3.15 115.55 3.1 Q111.7 3.1 109.2 6.3 107.0 9.0 107.0 12.0 107.0 15.75 109.7 18.35 112.4 20.95 116.2 20.95 119.75 20.95 122.2 18.7 L119.8 13.75 M101.15 16.25 L100.55 17.15 Q100.3 17.7 100.3 18.3 L100.55 19.45 101.15 20.4 102.05 21.0 103.2 21.25 Q104.35 21.25 105.25 20.4 106.1 19.5 106.1 18.3 106.1 17.1 105.25 16.25 104.4 15.4 103.2 15.4 L102.05 15.6 Q101.55 15.85 101.15 16.25 M93.35 3.45 L93.35 9.3 89.55 3.45 84.1 3.45 82.9 8.05 84.1 8.05 84.1 20.75 89.5 20.75 89.5 13.0 94.4 20.75 98.75 20.75 98.75 3.45 93.35 3.45 M82.2 14.55 L82.2 3.45 76.75 3.45 76.75 13.9 Q76.75 15.6 74.95 15.6 74.3 15.6 73.8 15.25 73.35 14.85 73.35 14.2 L73.35 3.45 67.95 3.45 66.75 8.5 67.95 8.5 67.95 14.9 Q67.95 17.15 69.5 18.9 71.35 21.05 74.8 21.05 78.0 21.05 80.05 19.4 82.2 17.7 82.2 14.55 M59.85 7.2 L58.15 3.45 52.0 3.45 57.25 12.9 57.25 20.75 62.6 20.75 62.6 12.9 67.6 3.45 61.65 3.45 59.85 7.2 M46.35 13.4 L45.65 14.45 44.55 15.2 43.2 15.45 41.75 15.2 Q41.1 14.95 40.6 14.5 L39.85 13.35 Q39.6 12.75 39.6 11.95 39.6 10.45 40.65 9.5 41.75 8.55 43.2 8.55 44.7 8.55 45.65 9.55 46.6 10.6 46.6 12.05 L46.35 13.4 M52.45 12.35 Q52.45 8.5 49.8 5.85 47.15 3.1 43.25 3.1 39.05 3.1 36.3 6.0 33.8 8.5 33.8 11.7 33.8 15.85 36.45 18.4 39.15 21.0 43.3 21.0 47.4 21.0 50.1 18.05 52.45 15.5 52.45 12.35 M28.2 2.7 L28.05 3.25 27.3 3.15 26.85 3.15 26.05 3.15 Q23.45 3.15 21.85 4.5 20.2 5.95 20.2 8.45 20.2 10.9 22.05 12.3 23.05 13.05 25.4 13.85 27.25 14.45 27.25 15.05 27.25 15.85 26.1 15.85 L23.75 15.35 21.5 14.35 20.15 19.35 Q23.15 21.1 26.15 21.1 29.05 21.1 30.95 19.55 32.95 17.9 32.95 15.1 32.95 12.65 31.15 11.2 30.15 10.45 27.85 9.65 26.0 9.05 26.0 8.55 26.0 7.8 27.25 7.8 L29.25 8.2 31.2 9.0 32.75 3.6 28.2 2.7 M6.15 8.05 L2.75 20.75 8.3 20.75 9.0 18.3 13.9 18.3 14.4 20.75 20.1 20.75 15.2 3.45 6.6 3.45 4.9 8.05 6.15 8.05 M10.1 13.75 L11.45 8.6 12.8 13.75 10.1 13.75" fill="none" stroke="#ffffff" stroke-linecap="round" stroke-linejoin="round" stroke-width="3.0"/>
    <path d="M10.1 13.75 L12.8 13.75 11.45 8.6 10.1 13.75 M6.15 8.05 L4.9 8.05 6.6 3.45 15.2 3.45 20.1 20.75 14.4 20.75 13.9 18.3 9.0 18.3 8.3 20.75 2.75 20.75 6.15 8.05 M28.2 2.7 L32.75 3.6 31.2 9.0 29.25 8.2 27.25 7.8 Q26.0 7.8 26.0 8.55 26.0 9.05 27.85 9.65 30.15 10.45 31.15 11.2 32.95 12.65 32.95 15.1 32.95 17.9 30.95 19.55 29.05 21.1 26.15 21.1 23.15 21.1 20.15 19.35 L21.5 14.35 23.75 15.35 26.1 15.85 Q27.25 15.85 27.25 15.05 27.25 14.45 25.4 13.85 23.05 13.05 22.05 12.3 20.2 10.9 20.2 8.45 20.2 5.95 21.85 4.5 23.45 3.15 26.05 3.15 L26.85 3.15 27.3 3.15 28.05 3.25 28.2 2.7 M52.45 12.35 Q52.45 15.5 50.1 18.05 47.4 21.0 43.3 21.0 39.15 21.0 36.45 18.4 33.8 15.85 33.8 11.7 33.8 8.5 36.3 6.0 39.05 3.1 43.25 3.1 47.15 3.1 49.8 5.85 52.45 8.5 52.45 12.35 M46.35 13.4 L46.6 12.05 Q46.6 10.6 45.65 9.55 44.7 8.55 43.2 8.55 41.75 8.55 40.65 9.5 39.6 10.45 39.6 11.95 39.6 12.75 39.85 13.35 L40.6 14.5 Q41.1 14.95 41.75 15.2 L43.2 15.45 44.55 15.2 45.65 14.45 46.35 13.4 M59.85 7.2 L61.65 3.45 67.6 3.45 62.6 12.9 62.6 20.75 57.25 20.75 57.25 12.9 52.0 3.45 58.15 3.45 59.85 7.2 M82.2 14.55 Q82.2 17.7 80.05 19.4 78.0 21.05 74.8 21.05 71.35 21.05 69.5 18.9 67.95 17.15 67.95 14.9 L67.95 8.5 66.75 8.5 67.95 3.45 73.35 3.45 73.35 14.2 Q73.35 14.85 73.8 15.25 74.3 15.6 74.95 15.6 76.75 15.6 76.75 13.9 L76.75 3.45 82.2 3.45 82.2 14.55 M93.35 3.45 L98.75 3.45 98.75 20.75 94.4 20.75 89.5 13.0 89.5 20.75 84.1 20.75 84.1 8.05 82.9 8.05 84.1 3.45 89.55 3.45 93.35 9.3 93.35 3.45 M101.15 16.25 Q101.55 15.85 102.05 15.6 L103.2 15.4 Q104.4 15.4 105.25 16.25 106.1 17.1 106.1 18.3 106.1 19.5 105.25 20.4 104.35 21.25 103.2 21.25 L102.05 21.0 101.15 20.4 100.55 19.45 100.3 18.3 Q100.3 17.7 100.55 17.15 L101.15 16.25 M119.8 13.75 L122.2 18.7 Q119.75 20.95 116.2 20.95 112.4 20.95 109.7 18.35 107.0 15.75 107.0 12.0 107.0 9.0 109.2 6.3 111.7 3.1 115.55 3.1 L116.55 3.15 117.7 3.25 118.05 2.7 122.4 4.35 119.85 9.95 Q119.2 9.35 118.2 8.85 117.15 8.35 116.35 8.35 114.95 8.35 113.8 9.35 112.65 10.3 112.65 11.75 112.65 12.55 112.95 13.25 L113.7 14.4 114.9 15.2 116.35 15.45 Q118.05 15.45 119.8 13.75 M128.85 11.95 Q128.85 12.75 129.1 13.35 L129.85 14.5 Q130.35 14.95 131.0 15.2 L132.45 15.45 133.8 15.2 134.9 14.45 135.6 13.4 135.85 12.05 Q135.85 10.6 134.9 9.55 133.95 8.55 132.45 8.55 131.0 8.55 129.9 9.5 128.85 10.45 128.85 11.95 M132.5 3.1 Q136.4 3.1 139.05 5.85 141.7 8.5 141.7 12.35 141.7 15.5 139.35 18.05 136.65 21.0 132.55 21.0 128.4 21.0 125.7 18.4 123.05 15.85 123.05 11.7 123.05 8.5 125.55 6.0 128.3 3.1 132.5 3.1 M151.55 7.1 L154.4 3.45 159.75 3.45 159.75 20.75 154.7 20.75 154.7 11.05 151.6 14.8 148.35 11.35 148.35 20.75 143.0 20.75 143.0 8.7 141.8 8.7 143.0 3.45 148.4 3.45 151.55 7.1" fill="url(#gradient0)" fill-rule="evenodd" stroke="none"/>
  </g>
  <defs>
    <linearGradient gradientTransform="matrix(0.0, 0.0079, -0.0958, 0.0, 81.35, 10.1)" gradientUnits="userSpaceOnUse" id="gradient0" spreadMethod="pad" x1="-819.2" x2="819.2">
      <stop offset="0.0" stop-color="#ffc234"/>
      <stop offset="0.7215686274509804" stop-color="#ff3930"/>
    </linearGradient>
  </defs>
</svg>
