<?xml version="1.0" encoding="UTF-8" standalone="no"?>
<svg xmlns:xlink="http://www.w3.org/1999/xlink" height="17.4px" width="7.65px" xmlns="http://www.w3.org/2000/svg">
  <g transform="matrix(1.0, 0.0, 0.0, 1.0, 0.25, 0.25)">
    <path d="M6.1 1.05 L6.1 1.85 6.1 1.05 6.3 1.25 Q7.15 2.15 7.15 3.45 L7.15 3.5 6.25 2.05 6.1 1.85 Q5.1 0.75 3.6 0.75 2.15 0.75 0.9 1.85 L0.8 1.95 0.05 2.95 Q0.15 1.95 0.8 1.2 L0.9 1.1 0.95 1.05 1.15 0.85 Q2.15 0.0 3.4 0.0 L3.7 0.0 Q5.15 0.0 6.1 1.05 M0.9 1.85 L0.9 1.1 0.9 1.85 M5.8 15.35 L6.8 14.65 7.05 14.4 6.3 15.65 6.1 15.9 5.8 16.2 Q4.9 16.9 3.7 16.9 L3.4 16.9 Q2.25 16.9 1.35 16.25 L0.95 15.9 0.9 15.85 0.7 15.6 Q0.25 15.05 0.1 14.35 L0.7 15.0 1.35 15.45 Q2.35 16.05 3.45 16.05 L5.25 15.6 5.8 15.35 5.8 16.2 5.8 15.35 M1.35 16.25 L1.35 15.45 1.35 16.25" fill="#845e45" fill-rule="evenodd" stroke="none"/>
    <path d="M6.1 1.85 L6.25 2.05 7.15 3.5 7.15 4.6 6.05 3.45 6.1 1.85 M0.05 2.95 L0.8 1.95 0.9 1.85 0.95 3.15 0.45 3.6 0.0 4.15 0.0 3.45 0.05 2.95 M5.85 14.1 L6.7 13.4 7.15 12.9 7.15 13.45 7.05 14.4 6.8 14.65 5.8 15.35 5.85 14.1 M0.1 14.35 L0.0 13.45 0.0 13.25 0.35 13.65 1.3 14.3 1.35 15.45 0.7 15.0 0.1 14.35" fill="#6d4222" fill-rule="evenodd" stroke="none"/>
    <path d="M6.05 3.45 L7.15 4.6 7.15 6.25 6.6 5.6 6.05 5.15 6.05 3.45 M0.95 3.15 L1.0 4.85 0.5 5.2 0.0 5.7 0.0 4.15 0.45 3.6 0.95 3.15 M5.9 12.05 L6.65 11.4 7.15 10.85 7.15 12.9 6.7 13.4 5.85 14.1 5.9 12.05 M0.0 11.6 L0.4 11.95 1.25 12.35 1.3 14.3 0.35 13.65 0.0 13.25 0.0 11.6" fill="#79533a" fill-rule="evenodd" stroke="none"/>
    <path d="M6.05 5.15 L6.6 5.6 7.15 6.25 7.15 10.85 6.65 11.4 5.9 12.05 6.05 5.15 M0.0 5.7 L0.5 5.2 1.0 4.85 1.25 12.35 0.4 11.95 0.0 11.6 0.0 5.7" fill="#856048" fill-rule="evenodd" stroke="none"/>
    <path d="M6.05 3.45 L6.05 5.15 Q4.95 4.3 3.45 4.3 2.05 4.3 1.0 4.85 L0.95 3.15 Q1.95 2.5 3.35 2.5 4.9 2.5 6.05 3.45 M1.25 12.35 L3.55 12.7 Q4.85 12.7 5.9 12.05 L5.85 14.1 Q4.85 14.65 3.4 14.65 L1.3 14.3 1.25 12.35" fill="#6b4021" fill-rule="evenodd" stroke="none"/>
    <path d="M0.9 1.85 Q2.15 0.75 3.6 0.75 5.1 0.75 6.1 1.85 L6.05 3.45 Q4.9 2.5 3.35 2.5 1.95 2.5 0.95 3.15 L0.9 1.85 M1.3 14.3 L3.4 14.65 Q4.85 14.65 5.85 14.1 L5.8 15.35 5.25 15.6 3.45 16.05 Q2.35 16.05 1.35 15.45 L1.3 14.3" fill="#5f3315" fill-rule="evenodd" stroke="none"/>
    <path d="M1.0 4.85 Q2.05 4.3 3.45 4.3 4.95 4.3 6.05 5.15 L5.9 12.05 Q4.85 12.7 3.55 12.7 L1.25 12.35 1.0 4.85" fill="#724c33" fill-rule="evenodd" stroke="none"/>
    <path d="M6.1 1.05 Q5.15 0.0 3.7 0.0 L3.4 0.0 Q2.15 0.0 1.15 0.85 L0.95 1.05 0.9 1.1 M7.15 3.5 L7.15 3.45 Q7.15 2.15 6.3 1.25 L6.1 1.05 M7.15 4.6 L7.15 3.5 M7.15 6.25 L7.15 4.6 M7.15 10.85 L7.15 6.25 M0.0 4.15 L0.0 5.7 M7.15 12.9 L7.15 10.85 M0.05 2.95 Q0.15 1.95 0.8 1.2 L0.9 1.1 M0.0 4.15 L0.0 3.45 0.05 2.95 M7.05 14.4 L7.15 13.45 7.15 12.9 M0.0 11.6 L0.0 5.7 M7.05 14.4 L6.3 15.65 6.1 15.9 5.8 16.2 Q4.9 16.9 3.7 16.9 L3.4 16.9 Q2.25 16.9 1.35 16.25 L0.95 15.9 0.9 15.85 0.7 15.6 Q0.25 15.05 0.1 14.35 L0.0 13.45 0.0 13.25 0.0 11.6" fill="none" stroke="#60381b" stroke-linecap="round" stroke-linejoin="round" stroke-width="0.5"/>
    <path d="M6.1 1.85 L6.1 1.05 M0.9 1.1 L0.9 1.85 0.95 3.15 1.0 4.85 1.25 12.35 1.3 14.3 M6.05 3.45 L6.05 5.15 5.9 12.05 5.85 14.1 5.8 15.35 5.8 16.2 M6.1 1.85 L6.05 3.45 M1.35 15.45 L1.3 14.3 M1.35 15.45 L1.35 16.25" fill="none" stroke="#60381b" stroke-linecap="round" stroke-linejoin="round" stroke-width="0.1"/>
  </g>
</svg>
