<?xml version="1.0" encoding="UTF-8" standalone="no"?>
<svg xmlns:xlink="http://www.w3.org/1999/xlink" height="103.4px" width="81.25px" xmlns="http://www.w3.org/2000/svg">
  <g transform="matrix(1.0, 0.0, 0.0, 1.0, -3.6, 1.55)">
    <path d="M73.35 15.4 L73.55 15.3 73.35 16.0 75.4 58.7 76.1 60.6 Q76.95 63.5 76.9 67.25 L76.85 71.3 Q79.4 84.15 81.85 93.3 60.25 100.15 45.75 98.45 L45.6 90.25 40.55 90.25 40.0 97.9 Q26.05 101.25 6.6 92.75 7.95 82.35 10.2 71.45 L10.25 66.9 Q10.35 63.75 10.9 61.55 11.15 60.4 11.65 59.5 L12.35 18.75 11.6 17.0 12.35 17.25 12.65 1.45 72.75 3.25 73.35 15.4" fill="#181212" fill-rule="evenodd" stroke="none"/>
    <path d="M73.35 15.4 L72.75 3.25 12.65 1.45 12.35 17.25 11.6 17.0 12.35 18.75 11.65 59.5 Q11.15 60.4 10.9 61.55 10.35 63.75 10.25 66.9 L10.2 71.45 Q7.95 82.35 6.6 92.75 26.05 101.25 40.0 97.9 L40.55 90.25 45.6 90.25 45.75 98.45 Q60.25 100.15 81.85 93.3 79.4 84.15 76.85 71.3 L76.9 67.25 Q76.95 63.5 76.1 60.6 L75.4 58.7 73.35 16.0 73.55 15.3 73.35 15.4 Z" fill="none" stroke="#000000" stroke-linecap="round" stroke-linejoin="round" stroke-width="6.0"/>
    <path d="M11.55 60.75 L12.65 1.45 72.8 3.25 75.45 59.9 Q52.6 82.75 30.15 71.9 27.3 70.55 19.75 64.65 L11.55 60.75" fill="#181212" fill-rule="evenodd" stroke="none"/>
    <path d="M43.6 54.8 L42.45 54.95 31.35 22.6 55.6 21.9 43.6 54.8" fill="url(#gradient0)" fill-rule="evenodd" stroke="none"/>
    <path d="M18.4 32.15 L21.4 32.85 31.5 34.15 37.6 34.7 44.55 57.8 Q38.1 58.7 31.35 51.95 30.4 50.95 33.1 46.35 35.8 41.65 34.95 40.45 34.3 39.45 28.5 39.85 22.7 40.2 22.1 39.15 L18.4 32.15" fill="#ffbb1b" fill-rule="evenodd" stroke="none"/>
    <path d="M37.6 34.7 L31.5 34.15 21.4 32.85 18.4 32.15 14.75 24.35 11.55 17.0 34.3 23.65 37.6 34.7" fill="#cd9000" fill-rule="evenodd" stroke="none"/>
    <path d="M47.95 37.15 L53.2 37.45 Q58.15 37.45 66.7 35.65 L65.0 38.95 Q64.4 40.0 58.65 39.75 52.8 39.4 52.15 40.45 51.3 41.7 54.15 46.35 56.9 50.9 54.75 54.2 52.6 57.4 48.3 61.15 L36.1 70.85 47.95 37.15" fill="#ffbb1b" fill-rule="evenodd" stroke="none"/>
    <path d="M66.7 35.65 Q58.15 37.45 53.2 37.45 L47.95 37.15 52.7 23.7 73.55 15.3 71.35 23.35 Q69.2 30.3 66.7 35.65" fill="#cd9000" fill-rule="evenodd" stroke="none"/>
    <path d="M81.85 93.3 Q60.3 100.15 45.75 98.45 L45.65 90.25 40.55 90.25 40.0 97.9 Q26.05 101.25 6.6 92.75 8.4 79.3 11.55 64.9 L17.2 67.2 Q23.75 71.0 30.85 73.1 53.75 79.85 75.8 66.2 78.95 82.4 81.85 93.3" fill="#181212" fill-rule="evenodd" stroke="none"/>
    <path d="M76.1 60.6 Q76.9 63.5 76.9 67.25 L76.75 74.25 Q73.7 76.95 73.7 77.1 62.9 78.95 44.4 79.05 L19.6 77.9 Q13.3 76.65 10.35 74.5 10.1 71.75 10.25 66.9 10.35 63.75 10.9 61.55 L40.75 63.5 Q55.8 63.5 76.1 60.6" fill="#f9ce41" fill-rule="evenodd" stroke="none"/>
    <path d="M76.1 60.6 Q55.8 63.5 40.75 63.5 L10.9 61.55 11.7 59.35 40.95 61.35 Q55.4 61.35 75.2 58.3 L76.1 60.6" fill="#fffbf0" fill-rule="evenodd" stroke="none"/>
    <path d="M26.35 56.1 Q25.55 55.1 25.55 53.7 25.55 52.3 26.35 51.25 27.25 50.3 28.4 50.3 29.6 50.3 30.4 51.25 31.25 52.3 31.25 53.7 31.25 55.1 30.4 56.1 29.6 57.1 28.4 57.1 27.25 57.1 26.35 56.1" fill="#575757" fill-rule="evenodd" stroke="none"/>
    <path d="M58.6 56.1 Q57.8 55.1 57.8 53.7 57.8 52.3 58.6 51.25 59.5 50.3 60.65 50.3 61.85 50.3 62.65 51.25 63.5 52.3 63.5 53.7 63.5 55.1 62.65 56.1 61.85 57.1 60.65 57.1 59.5 57.1 58.6 56.1" fill="#575757" fill-rule="evenodd" stroke="none"/>
    <path d="M51.75 73.95 L53.45 82.95 44.5 78.7 35.5 82.95 37.25 73.95 30.0 67.55 40.05 66.25 44.75 58.35 49.0 66.25 59.0 67.55 51.75 73.95" fill="url(#gradient1)" fill-rule="evenodd" stroke="none"/>
    <path d="M57.2 68.35 L51.0 73.85 52.45 81.6 44.75 77.95 Q40.85 79.8 37.0 81.6 L38.5 73.85 32.25 68.35 40.85 67.2 44.75 60.1 48.6 67.2 57.2 68.35" fill="#ffe758" fill-rule="evenodd" stroke="none"/>
    <path d="M38.45 73.6 L32.2 68.1 44.1 71.45 38.45 73.6" fill="#f2a500" fill-rule="evenodd" stroke="none"/>
    <path d="M57.2 68.1 L50.95 73.6 46.2 71.45 57.2 68.1" fill="#f2a500" fill-rule="evenodd" stroke="none"/>
    <path d="M45.15 78.0 L36.95 81.5 44.7 72.05 52.4 81.5 45.15 78.0" fill="#d27300" fill-rule="evenodd" stroke="none"/>
    <path d="M44.75 59.45 L48.6 66.55 44.75 70.2 44.75 59.45" fill="#f2a500" fill-rule="evenodd" stroke="none"/>
  </g>
  <defs>
    <linearGradient gradientTransform="matrix(-0.0023, -0.0181, -0.0151, 0.0027, 45.8, 42.15)" gradientUnits="userSpaceOnUse" id="gradient0" spreadMethod="pad" x1="-819.2" x2="819.2">
      <stop offset="0.0" stop-color="#5f5f5f"/>
      <stop offset="1.0" stop-color="#838383"/>
    </linearGradient>
    <radialGradient cx="0" cy="0" gradientTransform="matrix(0.0249, 0.0, 0.0, -0.0225, 45.0, 66.4)" gradientUnits="userSpaceOnUse" id="gradient1" r="819.2" spreadMethod="pad">
      <stop offset="0.0" stop-color="#de8500"/>
      <stop offset="1.0" stop-color="#833900"/>
    </radialGradient>
  </defs>
</svg>
