<?xml version="1.0" encoding="UTF-8" standalone="no"?>
<svg xmlns:xlink="http://www.w3.org/1999/xlink" height="197.9px" width="227.55px" xmlns="http://www.w3.org/2000/svg">
  <g transform="matrix(1.0, 0.0, 0.0, 1.0, 7.0, -8.0)">
    <path d="M197.65 57.25 Q198.95 56.95 199.65 57.25 215.8 63.0 217.35 81.2 218.6 95.8 211.3 118.6 L211.75 119.75 213.65 127.35 214.95 133.4 Q216.3 141.05 216.3 146.1 L215.6 147.75 Q214.45 149.75 212.3 151.85 L212.0 152.15 206.6 156.1 205.1 156.9 205.35 157.8 Q205.55 159.1 205.25 160.6 204.2 165.25 198.6 170.2 191.8 171.45 187.45 172.6 L175.75 175.55 175.8 175.5 174.1 175.95 174.15 175.9 173.4 176.15 Q168.95 180.8 152.4 191.35 135.85 201.9 104.25 202.85 72.65 203.75 48.9 185.1 42.7 180.25 37.95 174.6 L37.9 174.6 38.05 174.8 24.95 171.45 24.85 171.2 18.55 169.9 14.65 169.15 Q9.05 164.15 8.05 159.5 7.7 158.0 7.95 156.7 L8.2 155.8 Q3.9 153.5 0.95 150.75 -1.2 148.65 -2.35 146.65 L-3.05 145.0 Q-3.05 139.9 -1.65 132.25 L-1.05 129.25 Q0.0 123.75 1.5 118.7 L1.7 118.2 Q-7.4 88.6 -2.0 72.9 L-2.1 72.8 -1.95 72.7 Q2.1 61.1 14.2 57.1 L16.15 56.8 16.6 56.65 Q20.75 55.35 25.05 54.4 L30.0 53.45 31.95 53.2 37.8 52.45 44.8 51.95 49.4 51.7 Q52.7 49.4 58.65 46.55 70.55 40.85 83.6 38.05 L84.95 37.8 98.8 36.0 98.8 29.75 97.55 28.8 Q94.3 25.7 94.3 21.4 94.3 17.1 97.55 14.05 100.95 11.0 105.65 11.0 110.4 11.0 113.75 14.05 117.05 17.1 117.05 21.4 117.05 25.7 113.75 28.8 L112.55 29.75 112.55 36.05 128.35 38.5 132.85 39.65 Q148.25 44.1 163.05 53.65 L176.65 54.3 Q191.6 55.35 197.65 57.25" fill="#000000" fill-rule="evenodd" stroke="none"/>
    <path d="M197.65 57.25 Q198.95 56.95 199.65 57.25 215.8 63.0 217.35 81.2 218.6 95.8 211.3 118.6 L211.75 119.75 213.65 127.35 214.95 133.4 Q216.3 141.05 216.3 146.1 L215.6 147.75 Q214.45 149.75 212.3 151.85 L212.0 152.15 206.6 156.1 205.1 156.9 205.35 157.8 Q205.55 159.1 205.25 160.6 204.2 165.25 198.6 170.2 191.8 171.45 187.45 172.6 L175.75 175.55 175.8 175.5 174.1 175.95 174.15 175.9 173.4 176.15 Q168.95 180.8 152.4 191.35 135.85 201.9 104.25 202.85 72.65 203.75 48.9 185.1 42.7 180.25 37.95 174.6 L37.9 174.6 38.05 174.8 24.95 171.45 24.85 171.2 18.55 169.9 14.65 169.15 Q9.05 164.15 8.05 159.5 7.7 158.0 7.95 156.7 L8.2 155.8 Q3.9 153.5 0.95 150.75 -1.2 148.65 -2.35 146.65 L-3.05 145.0 Q-3.05 139.9 -1.65 132.25 L-1.05 129.25 Q0.0 123.75 1.5 118.7 L1.7 118.2 Q-7.4 88.6 -2.0 72.9 L-2.1 72.8 -1.95 72.7 Q2.1 61.1 14.2 57.1 L16.15 56.8 16.6 56.65 Q20.75 55.35 25.05 54.4 L30.0 53.45 31.95 53.2 37.8 52.45 44.8 51.95 49.4 51.7 Q52.7 49.4 58.65 46.55 70.55 40.85 83.6 38.05 L84.95 37.8 98.8 36.0 98.8 29.75 97.55 28.8 Q94.3 25.7 94.3 21.4 94.3 17.1 97.55 14.05 100.95 11.0 105.65 11.0 110.4 11.0 113.75 14.05 117.05 17.1 117.05 21.4 117.05 25.7 113.75 28.8 L112.55 29.75 112.55 36.05 128.35 38.5 132.85 39.65 Q148.25 44.1 163.05 53.65 L176.65 54.3 Q191.6 55.35 197.65 57.25 Z" fill="none" stroke="#000000" stroke-linecap="round" stroke-linejoin="round" stroke-width="6.0"/>
    <path d="M8.15 155.8 L30.3 148.75 37.55 174.55 25.75 171.55 18.6 169.95 14.65 169.2 Q9.05 164.25 8.05 159.55 7.75 158.05 7.9 156.75 L8.15 155.8" fill="#2f2f2f" fill-rule="evenodd" stroke="none"/>
    <path d="M27.75 135.05 L-0.5 125.7 1.5 118.7 4.7 109.8 32.3 114.6 Q32.05 115.35 27.75 135.05" fill="#deeef8" fill-rule="evenodd" stroke="none"/>
    <path d="M27.75 135.05 L27.0 138.35 Q26.5 140.9 28.0 135.15 L22.15 161.15 Q7.9 157.2 0.95 150.75 -1.2 148.65 -2.35 146.65 L-3.05 145.0 Q-2.55 138.3 -0.5 125.7 L27.75 135.05" fill="#a1a1a1" fill-rule="evenodd" stroke="none"/>
    <path d="M182.85 149.7 L205.0 156.75 205.25 157.7 Q205.45 159.05 205.15 160.5 204.1 165.2 198.5 170.15 L187.35 172.5 175.6 175.5 182.85 149.7" fill="#2f2f2f" fill-rule="evenodd" stroke="none"/>
    <path d="M185.4 135.6 L180.95 115.7 208.5 110.85 211.75 119.75 213.4 126.15 197.2 131.45 185.4 135.6" fill="#deeef8" fill-rule="evenodd" stroke="none"/>
    <path d="M213.4 126.15 Q215.55 135.35 216.3 146.1 L215.6 147.75 Q214.45 149.75 212.3 151.85 205.4 158.3 191.1 162.25 L186.2 139.45 185.4 135.6 197.2 131.45 213.4 126.15" fill="#a1a1a1" fill-rule="evenodd" stroke="none"/>
    <path d="M200.1 58.2 L200.7 58.4 200.6 58.4 Q193.65 58.1 150.0 90.55 127.95 106.9 107.25 123.4 58.2 79.0 32.5 63.4 24.45 58.55 19.7 57.05 L16.6 56.65 16.45 56.6 18.25 56.1 21.15 55.35 Q37.15 57.85 73.8 89.7 92.15 105.6 107.25 121.0 156.65 80.85 181.8 65.0 194.4 57.0 197.2 57.1 L200.1 58.2" fill="#434343" fill-rule="evenodd" stroke="none"/>
    <path d="M197.2 57.1 L198.45 57.55 200.1 58.2 197.2 57.1 M200.6 58.4 Q214.65 64.6 216.1 81.55 218.65 110.65 187.05 172.55 L173.4 176.15 Q168.95 180.8 152.4 191.35 135.85 201.9 104.25 202.85 72.65 203.75 48.9 185.1 42.7 180.25 37.95 174.6 L25.8 171.45 Q11.5 146.65 3.05 119.95 -13.85 66.55 15.05 57.1 L16.6 56.65 19.7 57.05 Q24.45 58.55 32.5 63.4 58.2 79.0 107.25 123.4 127.95 106.9 150.0 90.55 193.65 58.1 200.6 58.4 M100.3 35.85 L105.4 35.65 108.3 35.75 Q104.3 35.65 100.3 35.85" fill="#2f2f2f" fill-rule="evenodd" stroke="none"/>
    <path d="M163.05 53.65 L176.65 54.3 Q190.95 55.3 197.2 57.1 194.4 57.0 181.8 65.0 156.65 80.85 107.25 121.0 92.15 105.6 73.8 89.7 37.15 57.85 21.15 55.35 L18.25 56.1 Q27.65 53.4 37.8 52.45 L49.4 51.7 107.25 103.1 163.05 53.65" fill="#4f4f4f" fill-rule="evenodd" stroke="none"/>
    <path d="M49.4 51.7 Q52.7 49.4 58.65 46.55 70.55 40.85 83.6 38.05 L84.95 37.8 100.3 35.85 Q104.3 35.65 108.3 35.75 L111.2 35.85 128.15 38.45 132.75 39.65 Q148.2 44.05 163.05 53.65 L107.25 103.1 49.4 51.7" fill="#585858" fill-rule="evenodd" stroke="none"/>
    <path d="M27.45 96.65 Q27.45 97.8 26.5 98.65 25.6 99.45 24.3 99.45 23.05 99.45 22.15 98.65 21.2 97.8 21.2 96.65 21.2 95.5 22.15 94.65 23.05 93.85 24.3 93.85 25.6 93.85 26.5 94.65 27.45 95.5 27.45 96.65" fill="url(#gradient0)" fill-rule="evenodd" stroke="none"/>
    <path d="M26.7 96.65 Q26.7 97.55 26.0 98.15 25.3 98.75 24.3 98.75 23.35 98.75 22.7 98.15 21.95 97.55 21.95 96.65 21.95 95.75 22.7 95.15 23.35 94.5 24.3 94.5 25.3 94.5 26.0 95.15 26.7 95.75 26.7 96.65" fill="url(#gradient1)" fill-rule="evenodd" stroke="none"/>
    <path d="M35.45 83.85 Q35.45 85.0 34.6 85.85 33.65 86.65 32.4 86.65 31.1 86.65 30.15 85.85 29.3 85.0 29.3 83.85 29.3 82.7 30.15 81.85 31.1 81.0 32.4 81.0 33.65 81.0 34.6 81.85 35.45 82.7 35.45 83.85" fill="url(#gradient2)" fill-rule="evenodd" stroke="none"/>
    <path d="M34.7 83.85 Q34.7 84.75 34.0 85.35 33.35 86.0 32.4 86.0 31.4 86.0 30.75 85.35 30.05 84.75 30.05 83.85 30.05 82.95 30.75 82.35 31.4 81.7 32.4 81.7 33.35 81.7 34.0 82.35 34.7 82.95 34.7 83.85" fill="url(#gradient3)" fill-rule="evenodd" stroke="none"/>
    <path d="M-1.35 72.3 Q5.45 79.5 20.45 85.4 27.95 88.35 34.3 89.95 L34.75 90.0 31.7 99.45 30.85 99.25 33.65 90.6 Q25.75 88.5 18.35 85.45 4.4 79.7 -2.05 72.85 L-1.35 72.3" fill="#000000" fill-rule="evenodd" stroke="none"/>
    <path d="M186.4 97.4 Q186.4 96.25 187.3 95.4 188.2 94.6 189.5 94.6 190.75 94.6 191.7 95.4 192.55 96.25 192.55 97.4 192.55 98.55 191.7 99.4 190.75 100.2 189.5 100.2 188.2 100.2 187.3 99.4 186.4 98.55 186.4 97.4" fill="url(#gradient4)" fill-rule="evenodd" stroke="none"/>
    <path d="M187.15 97.4 Q187.15 96.5 187.8 95.9 188.5 95.25 189.5 95.25 190.45 95.25 191.1 95.9 191.8 96.5 191.8 97.4 191.8 98.3 191.1 98.9 190.45 99.55 189.5 99.55 188.5 99.55 187.8 98.9 187.15 98.3 187.15 97.4" fill="url(#gradient5)" fill-rule="evenodd" stroke="none"/>
    <path d="M183.6 82.55 Q184.5 83.4 184.5 84.6 184.5 85.75 183.6 86.6 182.7 87.4 181.4 87.4 180.15 87.4 179.2 86.6 178.3 85.75 178.3 84.6 178.3 83.4 179.2 82.55 180.15 81.75 181.4 81.75 182.7 81.75 183.6 82.55" fill="url(#gradient6)" fill-rule="evenodd" stroke="none"/>
    <path d="M183.1 83.1 Q183.75 83.7 183.75 84.6 183.75 85.45 183.1 86.05 182.4 86.7 181.4 86.7 180.45 86.7 179.8 86.05 179.05 85.45 179.05 84.6 179.05 83.7 179.8 83.1 180.45 82.45 181.4 82.45 182.4 82.45 183.1 83.1" fill="url(#gradient7)" fill-rule="evenodd" stroke="none"/>
    <path d="M183.7 89.45 Q188.65 87.95 193.4 86.1 208.4 80.2 215.15 73.0 L215.85 73.5 Q209.35 80.35 195.45 86.15 187.6 89.35 180.2 91.3 L182.95 99.9 182.05 100.15 179.0 90.75 179.45 90.6 183.7 89.45" fill="#000000" fill-rule="evenodd" stroke="none"/>
    <path d="M113.75 28.8 L112.55 29.75 112.55 53.3 Q111.75 53.8 110.55 54.3 108.05 55.35 105.8 55.35 102.8 55.35 100.5 54.3 L98.8 53.3 98.8 29.75 97.55 28.8 Q94.3 25.7 94.3 21.4 94.3 17.1 97.55 14.05 100.95 11.0 105.65 11.0 110.4 11.0 113.75 14.05 117.05 17.1 117.05 21.4 117.05 25.7 113.75 28.8" fill="#2a2a2a" fill-rule="evenodd" stroke="none"/>
    <path d="M110.65 24.5 Q108.15 26.6 104.65 26.6 101.15 26.6 98.7 24.5 96.25 22.55 96.25 19.65 96.25 16.75 98.7 14.75 101.15 12.75 104.65 12.75 108.15 12.75 110.65 14.75 113.1 16.75 113.1 19.65 113.1 22.55 110.65 24.5" fill="#434343" fill-rule="evenodd" stroke="none"/>
    <path d="M103.65 13.45 Q105.8 13.45 107.4 14.7 109.0 16.0 109.0 17.8 109.0 19.65 107.4 20.9 105.8 22.2 103.65 22.2 101.4 22.2 99.85 20.9 98.35 19.65 98.35 17.8 98.35 16.0 99.85 14.7 101.4 13.45 103.65 13.45" fill="#696969" fill-rule="evenodd" stroke="none"/>
  </g>
  <defs>
    <radialGradient cx="0" cy="0" gradientTransform="matrix(0.0027, 0.0063, 0.0067, -0.0024, 24.15, 94.25)" gradientUnits="userSpaceOnUse" id="gradient0" r="819.2" spreadMethod="pad">
      <stop offset="0.0" stop-color="#4a4a4a"/>
      <stop offset="0.43137254901960786" stop-color="#575757"/>
      <stop offset="0.9803921568627451" stop-color="#6e6e6e"/>
    </radialGradient>
    <radialGradient cx="0" cy="0" gradientTransform="matrix(0.0021, 0.0048, 0.0051, -0.0018, 24.2, 94.85)" gradientUnits="userSpaceOnUse" id="gradient1" r="819.2" spreadMethod="pad">
      <stop offset="0.00784313725490196" stop-color="#525252"/>
      <stop offset="0.23137254901960785" stop-color="#454545"/>
      <stop offset="0.6431372549019608" stop-color="#232323"/>
      <stop offset="1.0" stop-color="#000000"/>
    </radialGradient>
    <radialGradient cx="0" cy="0" gradientTransform="matrix(0.0027, 0.0063, 0.0067, -0.0024, 32.15, 81.45)" gradientUnits="userSpaceOnUse" id="gradient2" r="819.2" spreadMethod="pad">
      <stop offset="0.0" stop-color="#4a4a4a"/>
      <stop offset="0.49411764705882355" stop-color="#575757"/>
      <stop offset="1.0" stop-color="#696969"/>
    </radialGradient>
    <radialGradient cx="0" cy="0" gradientTransform="matrix(0.0021, 0.0048, 0.0051, -0.0018, 32.2, 82.0)" gradientUnits="userSpaceOnUse" id="gradient3" r="819.2" spreadMethod="pad">
      <stop offset="0.00784313725490196" stop-color="#525252"/>
      <stop offset="0.23137254901960785" stop-color="#454545"/>
      <stop offset="0.6431372549019608" stop-color="#232323"/>
      <stop offset="1.0" stop-color="#000000"/>
    </radialGradient>
    <radialGradient cx="0" cy="0" gradientTransform="matrix(-0.0027, 0.0063, -0.0067, -0.0024, 189.7, 95.0)" gradientUnits="userSpaceOnUse" id="gradient4" r="819.2" spreadMethod="pad">
      <stop offset="0.0" stop-color="#4a4a4a"/>
      <stop offset="0.396078431372549" stop-color="#575757"/>
      <stop offset="1.0" stop-color="#737373"/>
    </radialGradient>
    <radialGradient cx="0" cy="0" gradientTransform="matrix(-0.0021, 0.0048, -0.0051, -0.0018, 189.65, 95.6)" gradientUnits="userSpaceOnUse" id="gradient5" r="819.2" spreadMethod="pad">
      <stop offset="0.00784313725490196" stop-color="#525252"/>
      <stop offset="0.23137254901960785" stop-color="#454545"/>
      <stop offset="0.6431372549019608" stop-color="#232323"/>
      <stop offset="1.0" stop-color="#000000"/>
    </radialGradient>
    <radialGradient cx="0" cy="0" gradientTransform="matrix(-0.0027, 0.0063, -0.0067, -0.0024, 181.65, 82.15)" gradientUnits="userSpaceOnUse" id="gradient6" r="819.2" spreadMethod="pad">
      <stop offset="0.0" stop-color="#4a4a4a"/>
      <stop offset="0.49411764705882355" stop-color="#575757"/>
      <stop offset="1.0" stop-color="#696969"/>
    </radialGradient>
    <radialGradient cx="0" cy="0" gradientTransform="matrix(-0.0021, 0.0048, -0.0051, -0.0018, 181.6, 82.75)" gradientUnits="userSpaceOnUse" id="gradient7" r="819.2" spreadMethod="pad">
      <stop offset="0.00784313725490196" stop-color="#525252"/>
      <stop offset="0.23137254901960785" stop-color="#454545"/>
      <stop offset="0.6431372549019608" stop-color="#232323"/>
      <stop offset="1.0" stop-color="#000000"/>
    </radialGradient>
  </defs>
</svg>
