<?xml version="1.0" encoding="UTF-8" standalone="no"?>
<svg xmlns:xlink="http://www.w3.org/1999/xlink" height="6.2px" width="13.75px" xmlns="http://www.w3.org/2000/svg">
  <g transform="matrix(1.0, 0.0, 0.0, 1.0, 0.35, 0.35)">
    <path d="M12.6 1.15 L13.05 5.25 13.05 5.5 8.8 5.5 7.75 5.3 5.25 5.25 4.5 5.4 4.3 5.5 0.0 5.5 0.05 5.25 0.0 5.25 0.45 1.15 0.45 1.1 0.8 0.0 12.3 0.0 12.6 1.1 12.6 1.15" fill="#defcff" fill-rule="evenodd" stroke="none"/>
    <path d="M12.6 1.15 L13.05 5.25 13.05 5.5 8.8 5.5 7.75 5.3 5.25 5.25 4.5 5.4 4.3 5.5 0.0 5.5 0.05 5.25 0.0 5.25 0.45 1.15 0.45 1.1 0.8 0.0 12.3 0.0 12.6 1.1 12.6 1.15 Z" fill="none" stroke="#098693" stroke-linecap="round" stroke-linejoin="round" stroke-width="0.75"/>
    <path d="M12.3 0.0 L12.6 1.1 13.05 5.25 0.0 5.25 0.45 1.1 0.8 0.0 12.3 0.0" fill="#defcff" fill-rule="evenodd" stroke="none"/>
    <path d="M8.8 5.5 L7.75 5.3 5.25 5.25 4.15 5.5 0.0 5.5 0.45 1.15 12.6 1.15 13.05 5.5 8.8 5.5" fill="#95e2ef" fill-rule="evenodd" stroke="none"/>
    <path d="M5.0 5.25 L4.3 5.5 3.25 5.5 2.2 1.15 4.0 1.15 5.0 5.25" fill="#ffffff" fill-rule="evenodd" stroke="none"/>
    <path d="M7.2 5.3 L6.3 5.3 5.35 1.15 6.15 1.15 7.2 5.3" fill="#ffffff" fill-rule="evenodd" stroke="none"/>
    <path d="M9.5 1.15 L10.95 5.5 8.75 5.5 7.55 1.15 9.5 1.15" fill="#ffffff" fill-rule="evenodd" stroke="none"/>
  </g>
</svg>
