<?xml version="1.0" encoding="UTF-8" standalone="no"?>
<svg xmlns:xlink="http://www.w3.org/1999/xlink" height="63.6px" width="322.7px" xmlns="http://www.w3.org/2000/svg">
  <g transform="matrix(1.0, 0.0, 0.0, 1.0, -1.5, -1.5)">
    <path d="M317.1 38.7 Q315.55 37.05 315.55 33.1 315.55 30.95 316.3 24.35 317.0 17.85 318.25 10.65 L318.8 6.65 Q320.35 7.2 320.35 9.65 L319.7 14.95 Q318.45 22.15 317.75 28.65 317.0 35.25 317.0 37.4 L317.1 38.7 M309.15 43.7 Q311.25 46.75 315.95 46.75 319.05 46.75 320.9 45.1 L321.7 44.25 Q322.9 44.2 323.95 43.55 L324.2 44.85 Q324.2 47.7 322.35 49.45 320.45 51.1 317.35 51.1 312.6 51.1 310.55 47.85 309.55 46.25 309.15 43.7 M301.1 40.45 Q299.65 39.2 299.6 35.25 L299.5 29.2 Q299.5 26.05 299.15 23.8 300.9 26.5 300.95 33.55 L301.05 39.6 301.1 40.45 M283.9 24.7 L281.75 28.2 281.65 28.45 281.6 27.9 Q281.6 23.9 282.65 19.45 284.55 19.65 284.55 21.25 L284.1 23.7 283.9 24.7 M275.45 45.6 Q276.25 46.5 278.0 46.5 280.85 46.5 283.1 44.9 282.55 44.1 282.55 41.8 282.55 38.05 284.4 33.8 285.6 31.1 287.35 28.95 289.1 26.7 290.1 26.7 291.25 26.7 291.55 31.0 290.45 31.1 288.8 33.25 287.05 35.4 285.85 38.15 283.95 42.4 283.95 46.1 283.95 48.45 284.55 49.2 282.3 50.8 279.45 50.8 277.25 50.8 276.5 49.35 275.85 48.15 275.45 45.6 M293.55 43.1 Q295.9 47.0 299.75 47.0 302.05 47.0 304.0 45.35 L304.15 45.35 Q305.7 45.35 307.35 43.55 L307.65 45.05 Q307.65 47.4 305.7 49.35 303.7 51.3 301.15 51.3 297.35 51.3 294.9 47.35 293.95 45.85 293.55 43.1 M252.3 22.25 Q254.1 23.55 254.1 25.25 254.1 26.35 252.65 28.05 L251.4 29.35 Q250.35 27.55 248.05 26.4 245.75 25.25 243.45 25.25 241.7 25.25 240.85 25.9 239.25 24.85 238.9 24.35 238.55 23.9 238.55 23.3 238.55 20.95 242.0 20.95 244.3 20.95 246.6 22.1 248.9 23.25 250.0 25.05 L251.2 23.75 252.3 22.25 M252.95 37.85 Q254.35 40.0 254.35 42.55 254.35 46.75 251.3 49.3 248.2 51.8 243.0 51.8 237.25 51.8 232.0 48.65 L229.7 47.35 229.45 47.25 231.6 45.05 231.7 44.95 Q236.45 47.5 241.55 47.5 246.75 47.5 249.85 44.95 252.95 42.45 252.95 38.2 L252.95 37.85 M228.15 43.05 L228.15 43.15 Q228.15 46.35 225.0 48.7 221.9 51.15 217.65 51.15 212.05 51.15 208.45 46.75 206.0 43.8 205.2 39.7 205.9 41.25 207.0 42.45 210.6 46.85 216.2 46.85 220.45 46.85 223.55 44.4 L224.55 43.6 Q226.35 42.45 227.6 40.8 228.1 41.6 228.15 42.8 L228.0 42.95 228.15 43.05 M224.4 22.8 Q225.85 24.9 225.85 27.7 225.85 31.5 222.5 34.85 219.3 37.85 214.25 39.3 212.9 37.85 212.4 35.05 217.75 33.7 221.05 30.5 224.4 27.2 224.4 23.4 L224.4 22.8 M243.65 40.15 L241.4 38.7 236.95 36.0 Q231.4 32.6 231.4 28.05 232.75 30.0 235.5 31.65 L239.95 34.4 242.65 36.1 Q244.1 37.35 244.1 38.65 244.1 39.5 243.65 40.15 M269.8 43.25 L270.15 43.55 Q271.45 44.55 271.45 46.1 271.45 48.3 269.35 49.8 267.2 51.25 264.1 51.25 261.95 51.25 260.7 50.2 259.4 49.3 259.4 47.65 259.4 46.9 259.7 46.25 260.85 46.9 262.65 46.9 265.75 46.9 267.9 45.5 269.3 44.45 269.8 43.25 M213.0 29.65 L211.6 30.1 Q211.25 28.8 211.25 27.65 211.25 25.1 212.45 23.25 213.7 21.4 215.35 21.4 217.85 21.4 217.85 24.2 L217.65 25.85 216.8 25.7 Q215.15 25.7 213.9 27.55 213.25 28.5 213.0 29.65 M199.15 9.0 Q200.8 9.8 200.8 11.95 200.8 14.25 198.35 16.05 L196.25 17.25 196.05 17.25 Q195.0 17.25 193.45 18.0 L192.75 18.0 Q191.0 18.0 190.0 17.15 188.95 16.25 188.95 14.9 L188.95 14.7 Q188.95 13.95 189.2 13.25 L191.3 13.7 Q194.4 13.7 196.9 11.75 198.65 10.45 199.15 9.0 M198.05 21.65 Q199.6 21.95 199.6 24.25 L199.35 27.25 199.2 32.0 199.0 40.5 199.15 54.2 Q199.15 59.85 197.15 62.25 194.7 65.1 189.2 65.1 184.6 65.1 180.7 61.8 L179.3 60.75 179.0 60.45 179.4 60.3 181.3 59.0 Q184.3 60.8 187.8 60.8 193.25 60.8 195.7 57.9 197.7 55.55 197.7 49.85 L197.55 36.2 197.8 27.7 197.95 22.95 198.05 21.65 M178.05 8.45 L179.2 8.3 Q180.45 8.3 180.45 9.5 L179.85 11.5 178.9 15.35 177.0 15.25 Q177.1 11.9 178.05 8.45 M182.8 19.7 Q185.4 19.85 186.7 21.25 L186.5 21.3 185.55 22.75 Q184.55 24.25 182.4 24.9 L179.3 25.4 177.9 25.35 177.6 25.35 177.6 25.7 177.4 31.3 177.1 35.4 Q177.1 37.05 177.25 38.45 175.7 36.55 175.7 31.1 L175.95 27.0 176.2 21.4 176.2 21.0 176.45 21.0 177.85 21.1 180.95 20.6 182.8 19.7 M183.15 44.25 Q185.45 43.95 187.15 41.95 L187.2 42.75 Q187.2 46.1 184.75 48.45 182.25 50.8 178.7 50.8 173.45 50.8 171.05 46.85 170.05 45.2 169.65 42.55 172.0 46.5 177.25 46.5 180.65 46.5 183.15 44.25 M168.1 25.55 L167.85 25.55 166.55 25.6 Q161.7 25.6 161.7 23.45 161.7 22.95 162.05 22.3 L162.95 21.15 165.1 21.3 166.4 21.25 168.25 21.15 168.55 21.15 168.5 21.4 168.1 25.55 M158.05 22.8 Q159.5 24.9 159.5 27.7 159.5 31.5 156.1 34.85 152.95 37.85 147.9 39.3 146.5 37.85 146.0 35.05 151.35 33.7 154.65 30.5 158.05 27.2 158.05 23.4 L158.05 22.8 M158.2 43.6 Q160.0 42.45 161.2 40.8 161.8 41.75 161.8 43.15 161.8 46.35 158.6 48.7 155.5 51.15 151.25 51.15 145.65 51.15 142.05 46.75 139.6 43.8 138.8 39.7 139.55 41.25 140.6 42.45 144.2 46.85 149.85 46.85 154.1 46.85 157.2 44.4 L158.2 43.6 M146.6 29.65 L145.2 30.1 Q144.85 28.8 144.85 27.65 144.85 25.1 146.1 23.25 147.3 21.4 148.95 21.4 151.5 21.4 151.5 24.2 L151.25 25.85 150.4 25.7 Q148.75 25.7 147.55 27.55 146.9 28.5 146.6 29.65 M131.75 6.65 Q133.25 7.2 133.25 9.65 L132.6 14.95 Q131.4 22.15 130.7 28.65 129.95 35.25 129.95 37.4 L130.05 38.7 Q128.5 37.05 128.5 33.1 128.5 30.95 129.25 24.35 129.95 17.85 131.2 10.65 L131.75 6.65 M134.65 44.25 Q135.85 44.2 136.85 43.55 137.15 43.95 137.15 44.85 137.15 47.7 135.3 49.45 133.4 51.1 130.3 51.1 125.55 51.1 123.5 47.85 122.45 46.25 122.1 43.7 124.2 46.75 128.9 46.75 132.0 46.75 133.85 45.1 L134.65 44.25 M112.2 38.7 Q110.65 37.05 110.65 33.1 110.65 30.95 111.4 24.35 112.1 17.85 113.35 10.65 L113.9 6.65 Q115.4 7.2 115.4 9.65 L114.75 14.95 Q113.55 22.15 112.8 28.65 112.1 35.25 112.1 37.4 L112.2 38.7 M104.25 43.7 Q106.35 46.75 111.0 46.75 114.1 46.75 116.0 45.1 L116.8 44.25 Q118.0 44.2 119.0 43.55 119.3 43.95 119.3 44.85 119.3 47.7 117.45 49.45 115.55 51.1 112.45 51.1 107.7 51.1 105.6 47.85 104.6 46.25 104.25 43.7 M96.25 22.8 Q97.7 24.9 97.7 27.7 97.7 31.5 94.3 34.85 91.15 37.85 86.1 39.3 84.75 37.85 84.25 35.05 89.55 33.7 92.9 30.5 96.25 27.2 96.25 23.4 L96.25 22.8 M96.4 43.6 Q98.2 42.45 99.45 40.8 100.0 41.75 100.0 43.15 100.0 46.35 96.85 48.7 93.75 51.15 89.5 51.15 83.9 51.15 80.3 46.75 77.85 43.8 77.05 39.7 77.75 41.25 78.85 42.45 82.45 46.85 88.05 46.85 92.3 46.85 95.4 44.4 L96.4 43.6 M89.5 25.85 L88.65 25.7 Q87.0 25.7 85.75 27.55 85.1 28.5 84.8 29.65 L83.45 30.1 Q83.1 28.8 83.1 27.65 83.1 25.1 84.3 23.25 85.55 21.4 87.2 21.4 89.7 21.4 89.7 24.2 L89.5 25.85 M69.55 24.95 Q71.35 28.5 71.35 33.7 71.35 41.4 67.75 46.35 64.15 51.3 58.55 51.3 55.45 51.3 52.05 49.3 L52.05 49.6 52.15 51.9 52.35 54.7 Q52.55 56.9 53.05 58.55 L53.5 60.35 Q53.5 61.95 51.7 63.25 49.95 64.45 47.65 64.45 45.35 64.45 44.8 62.55 44.5 61.65 44.35 59.65 45.0 60.15 46.2 60.15 48.55 60.15 50.25 58.95 52.05 57.65 52.05 56.05 L51.6 54.25 Q51.1 52.6 50.9 50.35 L50.7 47.55 50.6 45.25 50.6 44.95 Q54.0 47.0 57.1 47.0 62.7 47.0 66.3 42.0 69.9 37.05 69.9 29.35 69.9 27.0 69.55 24.95 M43.25 23.55 L42.85 23.1 43.2 22.95 43.25 23.55 M51.1 19.5 L51.6 19.7 51.2 20.45 51.1 19.5 M61.85 27.55 Q60.85 26.2 59.1 26.2 56.3 26.2 54.35 30.15 52.55 33.95 52.4 39.35 L51.0 37.85 51.0 35.7 Q51.0 29.85 52.9 25.85 54.85 21.9 57.65 21.9 61.2 21.9 61.85 27.55 M16.85 15.6 L15.9 14.75 Q15.2 13.8 15.2 12.55 15.2 10.95 16.5 9.95 17.8 8.85 19.85 8.85 22.9 8.85 26.2 10.75 29.45 12.6 30.9 15.1 L31.2 14.9 34.2 12.4 Q34.8 11.75 35.0 10.95 36.6 12.45 36.6 14.25 36.6 15.6 35.65 16.7 34.85 17.65 32.6 19.2 L32.35 19.45 Q30.9 16.9 27.65 15.05 24.35 13.15 21.3 13.15 19.2 13.15 17.95 14.25 17.2 14.85 16.85 15.6 M7.4 18.3 Q9.15 21.15 13.1 23.7 L19.35 27.35 Q24.7 30.2 26.2 31.6 27.95 33.15 27.95 35.5 L27.95 36.2 27.65 35.9 Q26.15 34.55 20.8 31.65 L14.55 28.0 Q7.85 23.75 7.4 18.3 M5.25 41.25 L5.4 41.4 Q11.75 47.25 21.15 47.25 28.2 47.25 32.55 43.75 36.8 40.2 36.8 34.4 L36.7 32.8 Q38.25 35.4 38.25 38.7 38.25 44.55 34.0 48.05 29.65 51.6 22.6 51.6 13.2 51.6 6.85 45.7 L3.45 42.6 5.25 41.25" fill="#ab0709" fill-rule="evenodd" stroke="none"/>
    <path d="M318.8 6.65 L318.25 10.65 Q317.0 17.85 316.3 24.35 315.55 30.95 315.55 33.1 315.55 37.05 317.1 38.7 318.15 39.95 320.05 39.95 321.4 39.95 322.5 39.2 L322.75 40.5 Q322.75 42.75 321.7 44.25 L320.9 45.1 Q319.05 46.75 315.95 46.75 311.25 46.75 309.15 43.7 L309.1 43.55 Q307.5 41.1 307.5 35.9 L307.6 34.1 Q307.8 28.5 308.6 20.65 309.4 12.0 309.4 9.45 309.4 7.25 308.6 5.75 L308.95 5.7 311.75 3.6 Q314.05 2.0 316.1 2.0 318.9 2.0 318.9 5.35 L318.8 6.65 M299.15 23.8 Q299.5 26.05 299.5 29.2 L299.6 35.25 Q299.65 39.2 301.1 40.45 301.75 41.0 302.7 41.0 304.25 41.0 305.95 39.2 L306.2 40.75 Q306.2 43.1 304.25 45.05 L304.0 45.35 Q302.05 47.0 299.75 47.0 295.9 47.0 293.55 43.1 L293.45 43.05 Q291.65 40.0 291.55 32.3 L291.55 31.0 Q291.25 26.7 290.1 26.7 289.1 26.7 287.35 28.95 285.6 31.1 284.4 33.8 282.55 38.05 282.55 41.8 282.55 44.1 283.1 44.9 280.85 46.5 278.0 46.5 276.25 46.5 275.45 45.6 L275.05 45.05 Q273.55 42.3 273.55 32.95 L273.8 24.85 273.9 21.15 Q273.9 18.95 273.25 17.8 L273.65 17.7 277.35 15.9 Q279.05 15.05 280.35 15.05 283.1 15.05 283.1 16.9 L282.65 19.35 282.65 19.45 Q281.6 23.9 281.6 27.9 L281.65 28.45 281.75 28.2 283.9 24.7 Q285.25 22.6 286.85 20.95 290.25 17.4 293.25 17.4 296.2 17.4 297.65 19.45 298.65 20.95 299.15 23.8 M231.4 28.05 Q229.95 26.05 229.95 23.75 229.95 20.2 233.3 17.9 236.5 15.55 241.55 15.55 246.4 15.55 249.5 17.15 252.65 18.65 252.65 20.95 L252.3 22.25 251.2 23.75 250.0 25.05 Q248.9 23.25 246.6 22.1 244.3 20.95 242.0 20.95 238.55 20.95 238.55 23.3 238.55 23.9 238.9 24.35 239.25 24.85 240.85 25.9 L245.95 29.0 Q249.5 31.15 251.0 32.9 252.8 35.1 252.95 37.85 L252.95 38.2 Q252.95 42.45 249.85 44.95 246.75 47.5 241.55 47.5 236.45 47.5 231.7 44.95 L230.55 44.3 228.25 43.05 228.15 43.05 228.0 42.95 228.15 42.8 230.2 40.75 Q231.55 39.2 233.2 39.2 L234.55 39.5 236.65 40.45 Q238.7 41.3 240.85 41.3 242.3 41.3 243.2 40.6 L243.65 40.15 Q244.1 39.5 244.1 38.65 244.1 37.35 242.65 36.1 L239.95 34.4 235.5 31.65 Q232.75 30.0 231.4 28.05 M205.2 39.7 Q203.4 36.1 203.4 31.25 203.4 24.4 207.05 19.65 210.65 14.9 215.8 14.9 219.45 14.9 221.95 17.25 224.2 19.5 224.4 22.8 L224.4 23.4 Q224.4 27.2 221.05 30.5 217.75 33.7 212.4 35.05 212.9 37.85 214.25 39.3 215.7 40.75 218.15 40.75 220.25 40.75 222.55 39.6 224.8 38.35 226.15 36.5 226.75 37.4 226.75 38.85 226.75 41.5 224.55 43.6 L223.55 44.4 Q220.45 46.85 216.2 46.85 210.6 46.85 207.0 42.45 205.9 41.25 205.2 39.7 M259.7 46.25 L259.25 45.9 Q257.95 44.95 257.95 43.3 257.95 41.3 260.2 39.8 262.45 38.2 265.3 38.2 267.4 38.2 268.7 39.2 270.0 40.2 270.0 41.8 L269.8 43.25 Q269.3 44.45 267.9 45.5 265.75 46.9 262.65 46.9 260.85 46.9 259.7 46.25 M217.65 25.85 L217.85 24.2 Q217.85 21.4 215.35 21.4 213.7 21.4 212.45 23.25 211.25 25.1 211.25 27.65 211.25 28.8 211.6 30.1 L213.0 29.65 Q216.8 28.35 217.65 25.85 M189.2 13.25 L188.55 12.8 Q187.5 11.95 187.5 10.6 L187.5 10.35 Q187.5 7.85 191.0 5.55 193.2 4.2 195.25 4.2 199.35 4.2 199.35 7.65 L199.15 9.0 Q198.65 10.45 196.9 11.75 194.4 13.7 191.3 13.7 L189.2 13.25 M196.25 17.25 Q198.15 17.4 198.15 19.95 L198.05 21.65 197.95 22.95 197.8 27.7 197.55 36.2 197.7 49.85 Q197.7 55.55 195.7 57.9 193.25 60.8 187.8 60.8 184.3 60.8 181.3 59.0 L179.3 57.5 177.85 56.4 177.55 56.1 178.0 56.0 180.0 54.55 Q181.5 53.45 182.5 53.45 L184.05 53.75 184.95 54.3 187.0 54.75 Q188.5 54.75 189.15 53.45 190.0 51.95 190.0 44.85 190.0 37.25 189.65 30.45 189.3 23.75 187.9 20.75 L188.5 20.6 191.95 18.7 Q192.75 18.3 193.45 18.0 195.0 17.25 196.05 17.25 L196.25 17.25 M178.9 15.35 L180.7 15.4 Q183.8 15.4 185.25 16.9 L185.05 17.0 184.1 18.45 182.8 19.7 180.95 20.6 177.85 21.1 176.45 21.0 176.2 21.0 176.2 21.4 175.95 27.0 175.7 31.1 Q175.7 36.55 177.25 38.45 178.65 40.0 180.8 40.0 183.65 40.0 185.7 37.65 L185.75 38.45 Q185.75 41.8 183.3 44.1 L183.15 44.25 Q180.65 46.5 177.25 46.5 172.0 46.5 169.65 42.55 167.85 39.5 167.85 33.15 L167.85 32.4 168.1 25.55 168.5 21.4 168.55 21.15 168.25 21.15 166.4 21.25 165.1 21.3 162.95 21.15 Q160.25 20.75 160.25 19.15 L160.65 18.0 163.35 14.7 163.5 14.55 164.4 15.1 167.05 15.5 167.85 15.4 169.0 15.4 169.2 15.4 169.35 11.65 Q169.4 9.5 169.55 9.15 L169.7 7.85 Q169.85 6.55 170.7 6.0 171.8 5.25 173.25 4.9 176.55 3.95 177.75 3.95 179.0 3.95 179.0 5.2 L178.4 7.2 178.05 8.45 Q177.1 11.9 177.0 15.25 L178.9 15.35 M138.8 39.7 Q137.0 36.1 137.0 31.25 137.0 24.4 140.7 19.65 144.3 14.9 149.4 14.9 153.05 14.9 155.6 17.25 157.8 19.5 158.05 22.8 L158.05 23.4 Q158.05 27.2 154.65 30.5 151.35 33.7 146.0 35.05 146.5 37.85 147.9 39.3 149.35 40.75 151.8 40.75 153.85 40.75 156.15 39.6 158.4 38.35 159.75 36.5 160.35 37.4 160.35 38.85 160.35 41.5 158.2 43.6 L157.2 44.4 Q154.1 46.85 149.85 46.85 144.2 46.85 140.6 42.45 139.55 41.25 138.8 39.7 M151.25 25.85 L151.5 24.2 Q151.5 21.4 148.95 21.4 147.3 21.4 146.1 23.25 144.85 25.1 144.85 27.65 144.85 28.8 145.2 30.1 L146.6 29.65 Q150.4 28.35 151.25 25.85 M122.1 43.7 L122.05 43.55 Q120.45 41.1 120.45 35.9 L120.55 34.1 Q120.75 28.5 121.55 20.65 122.35 12.0 122.35 9.45 122.35 7.25 121.55 5.75 L121.9 5.7 124.7 3.6 Q127.0 2.0 129.0 2.0 131.85 2.0 131.85 5.35 L131.75 6.65 131.2 10.65 Q129.95 17.85 129.25 24.35 128.5 30.95 128.5 33.1 128.5 37.05 130.05 38.7 131.1 39.95 133.0 39.95 134.35 39.95 135.45 39.2 L135.7 40.5 Q135.7 42.75 134.65 44.25 L133.85 45.1 Q132.0 46.75 128.9 46.75 124.2 46.75 122.1 43.7 M113.9 6.65 L113.35 10.65 Q112.1 17.85 111.4 24.35 110.65 30.95 110.65 33.1 110.65 37.05 112.2 38.7 113.25 39.95 115.15 39.95 116.5 39.95 117.6 39.2 L117.85 40.5 Q117.85 42.75 116.8 44.25 L116.0 45.1 Q114.1 46.75 111.0 46.75 106.35 46.75 104.25 43.7 L104.2 43.55 Q102.6 41.1 102.6 35.9 L102.65 34.1 Q102.9 28.5 103.7 20.65 L104.45 9.45 Q104.45 7.25 103.7 5.75 L104.05 5.7 106.85 3.6 Q109.15 2.0 111.15 2.0 114.0 2.0 114.0 5.35 L113.9 6.65 M77.05 39.7 Q75.25 36.1 75.25 31.25 75.25 24.4 78.9 19.65 82.5 14.9 87.6 14.9 91.3 14.9 93.8 17.25 96.05 19.5 96.25 22.8 L96.25 23.4 Q96.25 27.2 92.9 30.5 89.55 33.7 84.25 35.05 84.75 37.85 86.1 39.3 87.55 40.75 90.0 40.75 92.1 40.75 94.4 39.6 96.6 38.35 98.0 36.5 98.55 37.4 98.55 38.85 98.55 41.5 96.4 43.6 L95.4 44.4 Q92.3 46.85 88.05 46.85 82.45 46.85 78.85 42.45 77.75 41.25 77.05 39.7 M84.8 29.65 Q88.65 28.35 89.5 25.85 L89.7 24.2 Q89.7 21.4 87.2 21.4 85.55 21.4 84.3 23.25 83.1 25.1 83.1 27.65 83.1 28.8 83.45 30.1 L84.8 29.65 M51.6 19.7 Q52.85 17.8 54.85 16.55 57.15 15.05 59.75 15.05 64.35 15.05 67.1 19.0 68.85 21.5 69.55 24.95 69.9 27.0 69.9 29.35 69.9 37.05 66.3 42.0 62.7 47.0 57.1 47.0 54.0 47.0 50.6 44.95 L50.6 45.25 50.7 47.55 50.9 50.35 Q51.1 52.6 51.6 54.25 L52.05 56.05 Q52.05 57.65 50.25 58.95 48.55 60.15 46.2 60.15 45.0 60.15 44.35 59.65 43.65 59.15 43.35 58.2 42.7 56.5 42.7 50.0 42.7 45.85 43.15 38.45 L43.55 28.65 43.25 23.55 43.2 22.95 Q42.6 19.8 41.4 18.8 L44.55 16.9 Q47.45 15.05 48.9 15.05 49.7 15.05 50.2 15.4 51.05 15.9 51.05 18.15 L51.1 19.5 51.2 20.45 51.6 19.7 M52.4 39.35 Q54.2 40.8 56.1 40.8 58.7 40.8 60.35 37.9 62.0 35.05 62.0 30.5 L61.85 27.55 Q61.2 21.9 57.65 21.9 54.85 21.9 52.9 25.85 51.0 29.85 51.0 35.7 L51.0 37.85 52.4 39.35 M35.0 10.95 Q34.8 11.75 34.2 12.4 L31.2 14.9 30.9 15.1 Q29.45 12.6 26.2 10.75 22.9 8.85 19.85 8.85 17.8 8.85 16.5 9.95 15.2 10.95 15.2 12.55 15.2 13.8 15.9 14.75 L16.85 15.6 Q18.95 17.25 24.4 20.2 28.65 22.55 31.4 24.45 36.05 27.65 36.7 32.8 L36.8 34.4 Q36.8 40.2 32.55 43.75 28.2 47.25 21.15 47.25 11.75 47.25 5.4 41.4 L5.25 41.25 2.0 38.3 3.95 36.75 Q6.5 34.75 7.9 34.75 9.15 34.75 11.45 36.75 16.15 40.75 21.45 40.75 24.4 40.75 26.15 39.3 27.65 38.05 27.95 36.2 L27.95 35.5 Q27.95 33.15 26.2 31.6 24.7 30.2 19.35 27.35 L13.1 23.7 Q9.15 21.15 7.4 18.3 5.9 15.9 5.9 13.15 5.9 8.35 9.95 5.25 13.95 2.25 20.45 2.25 26.15 2.25 30.65 4.6 35.15 6.9 35.15 9.95 L35.0 10.95" fill="url(#gradient0)" fill-rule="evenodd" stroke="none"/>
    <path d="M318.8 6.65 L318.25 10.65 Q317.0 17.85 316.3 24.35 315.55 30.95 315.55 33.1 315.55 37.05 317.1 38.7 M318.8 6.65 L318.9 5.35 Q318.9 2.0 316.1 2.0 314.05 2.0 311.75 3.6 L308.95 5.7 308.6 5.75 Q309.4 7.25 309.4 9.45 309.4 12.0 308.6 20.65 307.8 28.5 307.6 34.1 L307.5 35.9 Q307.5 41.1 309.1 43.55 L309.15 43.7 Q311.25 46.75 315.95 46.75 319.05 46.75 320.9 45.1 L321.7 44.25 Q322.75 42.75 322.75 40.5 L322.5 39.2 Q321.4 39.95 320.05 39.95 318.15 39.95 317.1 38.7 M299.15 23.8 Q299.5 26.05 299.5 29.2 L299.6 35.25 Q299.65 39.2 301.1 40.45 M299.15 23.8 Q298.65 20.95 297.65 19.45 296.2 17.4 293.25 17.4 290.25 17.4 286.85 20.95 285.25 22.6 283.9 24.7 L281.75 28.2 281.65 28.45 281.6 27.9 Q281.6 23.9 282.65 19.45 L282.65 19.35 283.1 16.9 Q283.1 15.05 280.35 15.05 279.05 15.05 277.35 15.9 L273.65 17.7 273.25 17.8 Q273.9 18.95 273.9 21.15 L273.8 24.85 273.55 32.95 Q273.55 42.3 275.05 45.05 L275.45 45.6 Q276.25 46.5 278.0 46.5 280.85 46.5 283.1 44.9 282.55 44.1 282.55 41.8 282.55 38.05 284.4 33.8 285.6 31.1 287.35 28.95 289.1 26.7 290.1 26.7 291.25 26.7 291.55 31.0 L291.55 32.3 Q291.65 40.0 293.45 43.05 L293.55 43.1 Q295.9 47.0 299.75 47.0 302.05 47.0 304.0 45.35 L304.25 45.05 Q306.2 43.1 306.2 40.75 L305.95 39.2 Q304.25 41.0 302.7 41.0 301.75 41.0 301.1 40.45 M231.4 28.05 Q229.95 26.05 229.95 23.75 229.95 20.2 233.3 17.9 236.5 15.55 241.55 15.55 246.4 15.55 249.5 17.15 252.65 18.65 252.65 20.95 L252.3 22.25 251.2 23.75 250.0 25.05 Q248.9 23.25 246.6 22.1 244.3 20.95 242.0 20.95 238.55 20.95 238.55 23.3 238.55 23.9 238.9 24.35 239.25 24.85 240.85 25.9 L245.95 29.0 Q249.5 31.15 251.0 32.9 252.8 35.1 252.95 37.85 L252.95 38.2 Q252.95 42.45 249.85 44.95 246.75 47.5 241.55 47.5 236.45 47.5 231.7 44.95 L230.55 44.3 228.25 43.05 228.15 43.05 228.0 42.95 228.15 42.8 230.2 40.75 Q231.55 39.2 233.2 39.2 L234.55 39.5 236.65 40.45 Q238.7 41.3 240.85 41.3 242.3 41.3 243.2 40.6 L243.65 40.15 M205.2 39.7 Q203.4 36.1 203.4 31.25 203.4 24.4 207.05 19.65 210.65 14.9 215.8 14.9 219.45 14.9 221.95 17.25 224.2 19.5 224.4 22.8 M214.25 39.3 Q215.7 40.75 218.15 40.75 220.25 40.75 222.55 39.6 224.8 38.35 226.15 36.5 226.75 37.4 226.75 38.85 226.75 41.5 224.55 43.6 M231.4 28.05 Q232.75 30.0 235.5 31.65 L239.95 34.4 242.65 36.1 Q244.1 37.35 244.1 38.65 244.1 39.5 243.65 40.15 M259.7 46.25 L259.25 45.9 Q257.95 44.95 257.95 43.3 257.95 41.3 260.2 39.8 262.45 38.2 265.3 38.2 267.4 38.2 268.7 39.2 270.0 40.2 270.0 41.8 L269.8 43.25 M259.7 46.25 Q260.85 46.9 262.65 46.9 265.75 46.9 267.9 45.5 269.3 44.45 269.8 43.25 M217.65 25.85 L217.85 24.2 Q217.85 21.4 215.35 21.4 213.7 21.4 212.45 23.25 211.25 25.1 211.25 27.65 211.25 28.8 211.6 30.1 L213.0 29.65 M217.65 25.85 Q216.8 28.35 213.0 29.65 M214.25 39.3 Q212.9 37.85 212.4 35.05 217.75 33.7 221.05 30.5 224.4 27.2 224.4 23.4 L224.4 22.8 M189.2 13.25 L188.55 12.8 Q187.5 11.95 187.5 10.6 L187.5 10.35 Q187.5 7.85 191.0 5.55 193.2 4.2 195.25 4.2 199.35 4.2 199.35 7.65 L199.15 9.0 M196.25 17.25 Q198.15 17.4 198.15 19.95 L198.05 21.65 197.95 22.95 197.8 27.7 197.55 36.2 197.7 49.85 Q197.7 55.55 195.7 57.9 193.25 60.8 187.8 60.8 184.3 60.8 181.3 59.0 L179.3 57.5 177.85 56.4 177.55 56.1 178.0 56.0 180.0 54.55 Q181.5 53.45 182.5 53.45 L184.05 53.75 184.95 54.3 187.0 54.75 Q188.5 54.75 189.15 53.45 190.0 51.95 190.0 44.85 190.0 37.25 189.65 30.45 189.3 23.75 187.9 20.75 L188.5 20.6 191.95 18.7 Q192.75 18.3 193.45 18.0 195.0 17.25 196.05 17.25 L196.25 17.25 M189.2 13.25 L191.3 13.7 Q194.4 13.7 196.9 11.75 198.65 10.45 199.15 9.0 M178.9 15.35 L180.7 15.4 Q183.8 15.4 185.25 16.9 L185.05 17.0 184.1 18.45 182.8 19.7 180.95 20.6 177.85 21.1 176.45 21.0 176.2 21.0 176.2 21.4 175.95 27.0 175.7 31.1 Q175.7 36.55 177.25 38.45 178.65 40.0 180.8 40.0 183.65 40.0 185.7 37.65 L185.75 38.45 Q185.75 41.8 183.3 44.1 L183.15 44.25 Q180.65 46.5 177.25 46.5 172.0 46.5 169.65 42.55 167.85 39.5 167.85 33.15 L167.85 32.4 168.1 25.55 168.5 21.4 168.55 21.15 168.25 21.15 166.4 21.25 165.1 21.3 162.95 21.15 Q160.25 20.75 160.25 19.15 L160.65 18.0 163.35 14.7 163.5 14.55 164.4 15.1 167.05 15.5 167.85 15.4 169.0 15.4 169.2 15.4 169.35 11.65 Q169.4 9.5 169.55 9.15 L169.7 7.85 Q169.85 6.55 170.7 6.0 171.8 5.25 173.25 4.9 176.55 3.95 177.75 3.95 179.0 3.95 179.0 5.2 L178.4 7.2 178.05 8.45 Q177.1 11.9 177.0 15.25 L178.9 15.35 M205.2 39.7 Q205.9 41.25 207.0 42.45 210.6 46.85 216.2 46.85 220.45 46.85 223.55 44.4 L224.55 43.6 M138.8 39.7 Q137.0 36.1 137.0 31.25 137.0 24.4 140.7 19.65 144.3 14.9 149.4 14.9 153.05 14.9 155.6 17.25 157.8 19.5 158.05 22.8 L158.05 23.4 Q158.05 27.2 154.65 30.5 151.35 33.7 146.0 35.05 146.5 37.85 147.9 39.3 149.35 40.75 151.8 40.75 153.85 40.75 156.15 39.6 158.4 38.35 159.75 36.5 160.35 37.4 160.35 38.85 160.35 41.5 158.2 43.6 M138.8 39.7 Q139.55 41.25 140.6 42.45 144.2 46.85 149.85 46.85 154.1 46.85 157.2 44.4 L158.2 43.6 M151.25 25.85 L151.5 24.2 Q151.5 21.4 148.95 21.4 147.3 21.4 146.1 23.25 144.85 25.1 144.85 27.65 144.85 28.8 145.2 30.1 L146.6 29.65 M151.25 25.85 Q150.4 28.35 146.6 29.65 M122.1 43.7 L122.05 43.55 Q120.45 41.1 120.45 35.9 L120.55 34.1 Q120.75 28.5 121.55 20.65 122.35 12.0 122.35 9.45 122.35 7.25 121.55 5.75 L121.9 5.7 124.7 3.6 Q127.0 2.0 129.0 2.0 131.85 2.0 131.85 5.35 L131.75 6.65 M130.05 38.7 Q131.1 39.95 133.0 39.95 134.35 39.95 135.45 39.2 L135.7 40.5 Q135.7 42.75 134.65 44.25 M122.1 43.7 Q124.2 46.75 128.9 46.75 132.0 46.75 133.85 45.1 L134.65 44.25 M130.05 38.7 Q128.5 37.05 128.5 33.1 128.5 30.95 129.25 24.35 129.95 17.85 131.2 10.65 L131.75 6.65 M113.9 6.65 L113.35 10.65 Q112.1 17.85 111.4 24.35 110.65 30.95 110.65 33.1 110.65 37.05 112.2 38.7 M113.9 6.65 L114.0 5.35 Q114.0 2.0 111.15 2.0 109.15 2.0 106.85 3.6 L104.05 5.7 103.7 5.75 Q104.45 7.25 104.45 9.45 L103.7 20.65 Q102.9 28.5 102.65 34.1 L102.6 35.9 Q102.6 41.1 104.2 43.55 L104.25 43.7 Q106.35 46.75 111.0 46.75 114.1 46.75 116.0 45.1 L116.8 44.25 Q117.85 42.75 117.85 40.5 L117.6 39.2 Q116.5 39.95 115.15 39.95 113.25 39.95 112.2 38.7 M77.05 39.7 Q75.25 36.1 75.25 31.25 75.25 24.4 78.9 19.65 82.5 14.9 87.6 14.9 91.3 14.9 93.8 17.25 96.05 19.5 96.25 22.8 L96.25 23.4 Q96.25 27.2 92.9 30.5 89.55 33.7 84.25 35.05 84.75 37.85 86.1 39.3 87.55 40.75 90.0 40.75 92.1 40.75 94.4 39.6 96.6 38.35 98.0 36.5 98.55 37.4 98.55 38.85 98.55 41.5 96.4 43.6 M77.05 39.7 Q77.75 41.25 78.85 42.45 82.45 46.85 88.05 46.85 92.3 46.85 95.4 44.4 L96.4 43.6 M84.8 29.65 Q88.65 28.35 89.5 25.85 L89.7 24.2 Q89.7 21.4 87.2 21.4 85.55 21.4 84.3 23.25 83.1 25.1 83.1 27.65 83.1 28.8 83.45 30.1 L84.8 29.65 M51.6 19.7 Q52.85 17.8 54.85 16.55 57.15 15.05 59.75 15.05 64.35 15.05 67.1 19.0 68.85 21.5 69.55 24.95 69.9 27.0 69.9 29.35 69.9 37.05 66.3 42.0 62.7 47.0 57.1 47.0 54.0 47.0 50.6 44.95 L50.6 45.25 50.7 47.55 50.9 50.35 Q51.1 52.6 51.6 54.25 L52.05 56.05 Q52.05 57.65 50.25 58.95 48.55 60.15 46.2 60.15 45.0 60.15 44.35 59.65 43.65 59.15 43.35 58.2 42.7 56.5 42.7 50.0 42.7 45.85 43.15 38.45 L43.55 28.65 43.25 23.55 43.2 22.95 Q42.6 19.8 41.4 18.8 L44.55 16.9 Q47.45 15.05 48.9 15.05 49.7 15.05 50.2 15.4 51.05 15.9 51.05 18.15 L51.1 19.5 M51.6 19.7 L51.2 20.45 51.1 19.5 M52.4 39.35 Q54.2 40.8 56.1 40.8 58.7 40.8 60.35 37.9 62.0 35.05 62.0 30.5 L61.85 27.55 Q61.2 21.9 57.65 21.9 54.85 21.9 52.9 25.85 51.0 29.85 51.0 35.7 L51.0 37.85 52.4 39.35 M35.0 10.95 Q34.8 11.75 34.2 12.4 L31.2 14.9 30.9 15.1 Q29.45 12.6 26.2 10.75 22.9 8.85 19.85 8.85 17.8 8.85 16.5 9.95 15.2 10.95 15.2 12.55 15.2 13.8 15.9 14.75 L16.85 15.6 M35.0 10.95 L35.15 9.95 Q35.15 6.9 30.65 4.6 26.15 2.25 20.45 2.25 13.95 2.25 9.95 5.25 5.9 8.35 5.9 13.15 5.9 15.9 7.4 18.3 9.15 21.15 13.1 23.7 L19.35 27.35 Q24.7 30.2 26.2 31.6 27.95 33.15 27.95 35.5 L27.95 36.2 Q27.65 38.05 26.15 39.3 24.4 40.75 21.45 40.75 16.15 40.75 11.45 36.75 9.15 34.75 7.9 34.75 6.5 34.75 3.95 36.75 L2.0 38.3 5.25 41.25 5.4 41.4 Q11.75 47.25 21.15 47.25 28.2 47.25 32.55 43.75 36.8 40.2 36.8 34.4 L36.7 32.8 Q36.05 27.65 31.4 24.45 28.65 22.55 24.4 20.2 18.95 17.25 16.85 15.6" fill="none" stroke="#ffffff" stroke-linecap="round" stroke-linejoin="round" stroke-width="1.0"/>
  </g>
  <defs>
    <linearGradient gradientTransform="matrix(0.0, -0.0305, 0.0275, 0.0, 19.35, 24.75)" gradientUnits="userSpaceOnUse" id="gradient0" spreadMethod="pad" x1="-819.2" x2="819.2">
      <stop offset="0.00392156862745098" stop-color="#e1e1e1"/>
      <stop offset="1.0" stop-color="#ffffff"/>
    </linearGradient>
  </defs>
</svg>
