<?xml version="1.0" encoding="UTF-8" standalone="no"?>
<svg xmlns:xlink="http://www.w3.org/1999/xlink" height="49.85px" width="33.45px" xmlns="http://www.w3.org/2000/svg">
  <g transform="matrix(1.0, 0.0, 0.0, 1.0, -2.3, -2.15)">
    <path d="M28.85 17.25 L28.9 17.2 Q30.65 18.4 31.15 20.25 31.0 21.85 29.3 23.5 L30.2 31.1 30.7 31.05 Q32.9 36.2 32.75 41.65 32.65 44.05 32.2 46.3 19.75 49.85 8.0 48.75 6.1 47.1 5.65 44.75 4.8 42.05 5.9 38.35 7.1 34.8 10.0 33.1 L9.6 33.0 8.65 24.25 Q7.25 23.25 7.1 22.2 L7.1 21.75 Q6.9 20.2 8.15 19.1 L6.85 6.7 27.75 5.15 28.85 17.25" fill="#a2a2a2" fill-rule="evenodd" stroke="none"/>
    <path d="M28.85 17.25 L28.9 17.2 Q30.65 18.4 31.15 20.25 31.0 21.85 29.3 23.5 L30.2 31.1 30.7 31.05 Q32.9 36.2 32.75 41.65 32.65 44.05 32.2 46.3 19.75 49.85 8.0 48.75 6.1 47.1 5.65 44.75 4.8 42.05 5.9 38.35 7.1 34.8 10.0 33.1 L9.6 33.0 8.65 24.25 Q7.25 23.25 7.1 22.2 L7.1 21.75 Q6.9 20.2 8.15 19.1 L6.85 6.7 27.75 5.15 28.85 17.25 Z" fill="none" stroke="#411d14" stroke-linecap="round" stroke-linejoin="round" stroke-width="6.0"/>
    <path d="M24.85 5.6 L28.0 5.4 29.1 17.4 25.75 17.65 24.85 5.6 M8.4 19.1 L7.1 6.8 10.4 6.65 11.65 18.95 8.4 19.1" fill="#aaaaaa" fill-rule="evenodd" stroke="none"/>
    <path d="M29.6 23.6 L30.5 31.65 27.75 32.65 20.5 34.15 13.65 33.8 9.8 33.1 8.95 24.35 Q9.55 25.0 10.95 25.0 L12.65 25.1 15.15 25.25 23.2 24.7 26.95 24.1 29.6 23.6" fill="#ffa31a" fill-rule="evenodd" stroke="none"/>
    <path d="M25.75 17.65 L29.1 17.4 29.15 17.35 Q30.85 18.55 31.35 20.3 31.2 22.0 29.6 23.6 L26.95 24.1 23.2 24.7 15.15 25.25 12.65 25.1 10.95 25.0 Q9.55 25.0 8.95 24.35 7.5 23.4 7.3 22.3 7.25 22.05 7.35 21.85 7.1 20.45 8.4 19.1 L11.65 18.95 25.75 17.65" fill="#b7b7b7" fill-rule="evenodd" stroke="none"/>
    <path d="M24.85 5.6 L25.75 17.65 11.65 18.95 10.4 6.65 24.85 5.6" fill="#c8c8c8" fill-rule="evenodd" stroke="none"/>
    <path d="M12.7 20.65 Q15.35 19.75 19.2 19.5 L25.8 19.8 Q28.5 20.35 28.55 21.35 28.6 22.4 25.9 23.3 23.25 24.2 19.4 24.5 L12.8 24.15 Q10.1 23.65 10.05 22.6 10.0 21.6 12.7 20.65" fill="#dae4e9" fill-rule="evenodd" stroke="none"/>
    <path d="M16.35 20.45 Q17.7 20.0 19.6 19.9 L22.85 20.0 Q24.2 20.3 24.25 20.8 24.25 21.3 22.9 21.75 L19.7 22.4 16.4 22.2 Q15.05 21.95 15.05 21.45 15.0 20.95 16.35 20.45" fill="#ffffff" fill-rule="evenodd" stroke="none"/>
    <path d="M15.25 33.7 Q13.25 33.95 11.1 35.1 8.45 36.4 7.9 37.9 L7.8 38.25 Q7.7 38.4 7.75 38.5 7.8 40.55 10.0 41.9 12.15 43.2 14.7 42.9 17.85 42.5 20.7 41.2 24.8 39.4 24.6 36.65 24.25 32.7 15.25 33.7 M5.85 44.9 Q5.05 42.15 6.15 38.45 7.45 34.5 10.9 32.85 L30.9 31.15 Q33.15 36.35 32.95 41.8 19.8 47.45 5.85 44.9" fill="#ffa31a" fill-rule="evenodd" stroke="none"/>
    <path d="M14.05 34.55 L11.8 36.1 Q10.5 37.05 10.45 37.85 10.65 39.75 14.9 39.3 17.35 39.0 18.4 38.5 20.55 37.7 20.4 36.1 20.3 34.75 18.25 34.45 L15.5 34.4 14.95 34.55 14.05 34.55 M15.25 33.7 Q24.25 32.7 24.6 36.65 24.8 39.4 20.7 41.2 17.85 42.5 14.7 42.9 12.15 43.2 10.0 41.9 7.8 40.55 7.75 38.5 7.7 38.4 7.8 38.25 L7.9 37.9 Q8.45 36.4 11.1 35.1 13.25 33.95 15.25 33.7" fill="#febe5f" fill-rule="evenodd" stroke="none"/>
    <path d="M14.05 34.55 L14.95 34.55 15.5 34.4 18.25 34.45 Q20.3 34.75 20.4 36.1 20.55 37.7 18.4 38.5 17.35 39.0 14.9 39.3 10.65 39.75 10.45 37.85 10.5 37.05 11.8 36.1 L14.05 34.55" fill="#ffe3bb" fill-rule="evenodd" stroke="none"/>
    <path d="M32.95 41.8 Q32.9 44.15 32.45 46.45 20.0 49.95 8.2 48.9 6.4 47.2 5.85 44.9 19.8 47.45 32.95 41.8" fill="#bd5d00" fill-rule="evenodd" stroke="none"/>
  </g>
</svg>
