<?xml version="1.0" encoding="UTF-8" standalone="no"?>
<svg xmlns:xlink="http://www.w3.org/1999/xlink" height="110.7px" width="64.65px" xmlns="http://www.w3.org/2000/svg">
  <g transform="matrix(1.0, 0.0, 0.0, 1.0, 6.85, 3.0)">
    <path d="M51.5 37.0 Q46.2 47.0 35.05 50.95 30.45 52.55 25.95 52.75 24.1 59.35 19.75 63.2 L19.55 65.0 22.25 63.15 25.05 64.35 25.25 64.6 32.15 63.4 32.4 63.55 29.85 71.25 31.1 73.05 30.55 73.7 Q36.2 76.65 38.35 82.75 40.6 89.2 37.6 95.35 34.7 101.5 28.25 103.75 21.8 106.0 15.65 103.05 9.5 100.1 7.25 93.65 L6.8 92.15 3.85 93.2 2.8 91.0 -3.8 90.45 -0.3 84.6 -1.0 83.1 -0.95 79.05 2.45 76.75 0.4 71.2 Q-0.95 69.75 -1.6 67.7 -2.55 64.7 -1.65 61.7 -4.9 55.2 -3.3 46.35 -2.3 40.95 0.05 37.35 L-0.5 35.85 Q-4.1 25.65 1.25 15.65 6.65 5.75 17.85 1.85 29.0 -2.1 39.35 2.3 49.8 6.75 53.4 16.95 56.95 27.1 51.5 37.0" fill="#cfbeb8" fill-rule="evenodd" stroke="none"/>
    <path d="M51.5 37.0 Q46.2 47.0 35.05 50.95 30.45 52.55 25.95 52.75 24.1 59.35 19.75 63.2 L19.55 65.0 22.25 63.15 25.05 64.35 25.25 64.6 32.15 63.4 32.4 63.55 29.85 71.25 31.1 73.05 30.55 73.7 Q36.2 76.65 38.35 82.75 40.6 89.2 37.6 95.35 34.7 101.5 28.25 103.75 21.8 106.0 15.65 103.05 9.5 100.1 7.25 93.65 L6.8 92.15 3.85 93.2 2.8 91.0 -3.8 90.45 -0.3 84.6 -1.0 83.1 -0.95 79.05 2.45 76.75 0.4 71.2 Q-0.95 69.75 -1.6 67.7 -2.55 64.7 -1.65 61.7 -4.9 55.2 -3.3 46.35 -2.3 40.95 0.05 37.35 L-0.5 35.85 Q-4.1 25.65 1.25 15.65 6.65 5.75 17.85 1.85 29.0 -2.1 39.35 2.3 49.8 6.75 53.4 16.95 56.95 27.1 51.5 37.0 Z" fill="none" stroke="#411d14" stroke-linecap="round" stroke-linejoin="round" stroke-width="6.0"/>
    <path d="M6.15 86.75 L-1.4 66.35 15.7 60.45 23.1 80.95 6.15 86.75" fill="#c4c4c4" fill-rule="evenodd" stroke="none"/>
    <path d="M6.15 86.75 L-1.4 66.35 15.7 60.45 23.1 80.95 6.15 86.75 Z" fill="none" stroke="#3e2d28" stroke-linecap="round" stroke-linejoin="round" stroke-opacity="0.49803922" stroke-width="0.05"/>
    <path d="M18.45 68.05 Q16.35 72.05 12.05 73.7 7.75 75.3 3.75 73.55 -0.25 71.8 -1.6 67.7 -2.9 63.65 -0.8 59.65 1.3 55.6 5.6 54.0 9.9 52.35 13.9 54.15 17.9 55.9 19.2 59.95 20.55 64.05 18.45 68.05" fill="#b7b7b7" fill-rule="evenodd" stroke="none"/>
    <path d="M18.45 68.05 Q16.35 72.05 12.05 73.7 7.75 75.3 3.75 73.55 -0.25 71.8 -1.6 67.7 -2.9 63.65 -0.8 59.65 1.3 55.6 5.6 54.0 9.9 52.35 13.9 54.15 17.9 55.9 19.2 59.95 20.55 64.05 18.45 68.05 Z" fill="none" stroke="#3e2d28" stroke-linecap="round" stroke-linejoin="round" stroke-opacity="0.49803922" stroke-width="0.05"/>
    <path d="M13.5 66.7 Q12.05 69.55 9.05 70.7 L3.25 70.55 Q0.45 69.4 -0.45 66.55 -1.4 63.7 0.05 60.9 1.55 58.1 4.55 57.0 7.55 55.85 10.3 57.05 13.1 58.3 14.05 61.15 14.95 64.0 13.5 66.7" fill="#cfbeb8" fill-rule="evenodd" stroke="none"/>
    <path d="M8.25 65.05 Q7.5 66.45 6.0 67.0 4.45 67.6 3.05 67.0 1.65 66.35 1.15 64.95 0.7 63.5 1.45 62.05 2.15 60.65 3.7 60.05 L6.65 60.1 Q8.05 60.75 8.5 62.2 9.0 63.6 8.25 65.05" fill="#ebe3e0" fill-rule="evenodd" stroke="none"/>
    <path d="M18.05 33.35 L23.65 33.6 Q28.35 39.85 26.65 49.75 24.8 59.8 18.15 64.4 L12.4 65.3 Q23.2 54.45 18.05 33.35" fill="#a2a2a2" fill-rule="evenodd" stroke="none"/>
    <path d="M12.4 65.3 Q3.25 66.25 -0.7 63.4 -5.1 56.4 -3.3 46.35 -1.5 36.5 4.9 32.55 L18.05 33.35 Q23.2 54.45 12.4 65.3" fill="#c4c4c4" fill-rule="evenodd" stroke="none"/>
    <path d="M12.4 65.3 Q3.25 66.25 -0.7 63.4 -5.1 56.4 -3.3 46.35 -1.5 36.5 4.9 32.55 L18.05 33.35 23.65 33.6 Q28.35 39.85 26.65 49.75 24.8 59.8 18.15 64.4 L12.4 65.3 Z" fill="none" stroke="#3e2d28" stroke-linecap="round" stroke-linejoin="round" stroke-opacity="0.49803922" stroke-width="0.05"/>
    <path d="M51.5 37.0 Q46.2 47.0 35.05 50.95 23.85 54.85 13.4 50.35 3.05 46.0 -0.5 35.85 -4.1 25.65 1.25 15.65 6.65 5.75 17.85 1.85 29.0 -2.1 39.35 2.3 49.8 6.75 53.4 16.95 56.95 27.1 51.5 37.0" fill="#b7b7b7" fill-rule="evenodd" stroke="none"/>
    <path d="M51.5 37.0 Q46.2 47.0 35.05 50.95 23.85 54.85 13.4 50.35 3.05 46.0 -0.5 35.85 -4.1 25.65 1.25 15.65 6.65 5.75 17.85 1.85 29.0 -2.1 39.35 2.3 49.8 6.75 53.4 16.95 56.95 27.1 51.5 37.0 Z" fill="none" stroke="#3e2d28" stroke-linecap="round" stroke-linejoin="round" stroke-opacity="0.49803922" stroke-width="0.05"/>
    <path d="M38.2 33.95 Q34.45 40.85 26.7 43.55 18.95 46.3 11.7 43.25 4.45 40.15 2.0 33.1 -0.5 26.0 3.25 19.1 7.0 12.2 14.75 9.45 22.5 6.75 29.75 9.8 37.0 12.85 39.5 19.95 41.95 27.0 38.2 33.95" fill="#cfbeb8" fill-rule="evenodd" stroke="none"/>
    <path d="M24.95 29.3 Q23.1 32.8 19.15 34.2 L11.5 34.0 Q7.85 32.45 6.55 28.85 5.3 25.25 7.2 21.7 9.15 18.2 13.1 16.8 L20.65 17.0 Q24.4 18.55 25.65 22.15 26.95 25.75 24.95 29.3" fill="#ebe3e0" fill-rule="evenodd" stroke="none"/>
    <path d="M37.6 95.35 Q34.7 101.5 28.25 103.75 21.8 106.0 15.65 103.05 9.5 100.1 7.25 93.65 5.0 87.2 7.95 81.05 10.9 74.9 17.35 72.65 23.8 70.4 29.9 73.35 36.1 76.3 38.35 82.75 40.6 89.2 37.6 95.35" fill="#ffa31a" fill-rule="evenodd" stroke="none"/>
    <path d="M37.6 95.35 Q34.7 101.5 28.25 103.75 21.8 106.0 15.65 103.05 9.5 100.1 7.25 93.65 5.0 87.2 7.95 81.05 10.9 74.9 17.35 72.65 23.8 70.4 29.9 73.35 36.1 76.3 38.35 82.75 40.6 89.2 37.6 95.35 Z" fill="none" stroke="#3e2d28" stroke-linecap="round" stroke-linejoin="round" stroke-width="1.0"/>
    <path d="M29.95 93.3 Q27.95 97.55 23.5 99.1 19.0 100.7 14.7 98.65 10.45 96.6 8.9 92.1 7.35 87.65 9.35 83.35 11.4 79.1 15.9 77.5 20.35 75.95 24.6 78.0 28.95 80.1 30.5 84.55 32.05 89.05 29.95 93.3" fill="#febe5f" fill-rule="evenodd" stroke="none"/>
    <path d="M21.9 89.95 Q20.85 92.2 18.6 93.0 16.3 93.8 14.15 92.7 12.0 91.65 11.2 89.4 10.4 87.1 11.4 84.95 12.45 82.8 14.75 82.0 L19.15 82.2 Q21.35 83.25 22.15 85.55 22.95 87.8 21.9 89.95" fill="#ffe3bb" fill-rule="evenodd" stroke="none"/>
    <path d="M25.05 64.35 L25.25 64.6 29.85 71.25 31.1 73.05 Q25.9 78.9 20.85 83.05 10.5 91.3 3.85 93.2 L2.8 91.0 -0.3 84.6 -1.0 83.1 25.05 64.35 M8.85 87.3 Q9.85 82.1 4.8 81.2 L2.15 86.65 8.85 87.3 M23.75 76.9 L24.8 70.05 18.4 71.05 Q17.25 75.95 23.75 76.9" fill="url(#gradient0)" fill-rule="evenodd" stroke="none"/>
    <path d="M25.25 64.6 L32.15 63.4 32.4 63.55 29.85 71.25 25.25 64.6 M2.8 91.0 L-3.8 90.45 -0.3 84.6 2.8 91.0 M8.85 87.3 L2.15 86.65 4.8 81.2 Q9.85 82.1 8.85 87.3 M23.75 76.9 Q17.25 75.95 18.4 71.05 L24.8 70.05 23.75 76.9" fill="#4d4d4d" fill-rule="evenodd" stroke="none"/>
    <path d="M-1.0 83.1 L-0.95 79.05 22.25 63.15 25.05 64.35 -1.0 83.1" fill="url(#gradient1)" fill-rule="evenodd" stroke="none"/>
  </g>
  <defs>
    <linearGradient gradientTransform="matrix(-0.0158, 0.0137, -0.0069, -0.0113, 14.0, 78.25)" gradientUnits="userSpaceOnUse" id="gradient0" spreadMethod="pad" x1="-819.2" x2="819.2">
      <stop offset="0.00784313725490196" stop-color="#bdcdd4"/>
      <stop offset="0.3215686274509804" stop-color="#aab7b5"/>
      <stop offset="1.0" stop-color="#7b8069"/>
    </linearGradient>
    <linearGradient gradientTransform="matrix(-0.0158, 0.0137, -0.0069, -0.0113, 14.0, 78.25)" gradientUnits="userSpaceOnUse" id="gradient1" spreadMethod="pad" x1="-819.2" x2="819.2">
      <stop offset="0.0" stop-color="#ffffff"/>
      <stop offset="1.0" stop-color="#dee0e0"/>
    </linearGradient>
  </defs>
</svg>
