<?xml version="1.0" encoding="UTF-8" standalone="no"?>
<svg xmlns:xlink="http://www.w3.org/1999/xlink" height="110.5px" width="86.7px" xmlns="http://www.w3.org/2000/svg">
  <g transform="matrix(1.0, 0.0, 0.0, 1.0, 4.2, 4.75)">
    <path d="M73.55 0.45 L73.15 -1.65 71.6 0.5 61.6 -1.75 60.95 0.8 66.55 0.85 15.9 2.25 4.2 1.7 -1.2 28.6 Q1.7 46.8 5.4 58.0 L10.45 71.85 10.15 71.85 Q8.9 71.85 8.05 72.75 7.15 73.6 7.15 74.85 7.15 76.1 8.05 77.0 8.8 77.75 9.8 77.85 L7.25 100.95 16.55 101.25 Q17.0 101.7 17.6 101.7 18.2 101.7 18.7 101.3 L69.7 102.75 70.05 102.7 64.3 77.85 64.8 77.85 Q66.05 77.85 66.95 77.0 67.8 76.1 67.8 74.85 67.8 73.6 66.95 72.75 66.05 71.85 64.8 71.85 L61.55 71.85 61.7 71.65 Q64.15 68.15 72.7 49.4 L75.55 42.45 75.9 41.45 Q78.85 34.6 79.35 27.15 79.7 22.25 79.2 17.4 L78.95 15.2 77.1 0.25 73.55 0.45 Z" fill="none" stroke="#411d14" stroke-linecap="round" stroke-linejoin="round" stroke-width="6.0"/>
    <path d="M8.1 97.85 L8.05 98.2 M63.05 68.2 L10.55 68.6" fill="none" stroke="#444532" stroke-linecap="round" stroke-linejoin="round" stroke-width="1.0"/>
    <path d="M15.9 2.25 L66.55 0.85 70.0 13.5 61.0 37.4 Q37.5 43.5 17.85 37.35 L12.75 13.8 15.9 2.25" fill="url(#gradient0)" fill-rule="evenodd" stroke="none"/>
    <path d="M66.55 0.85 L60.95 0.8 61.6 -1.75 71.6 0.5 73.15 -1.65 73.55 0.45 77.1 0.25 78.95 15.2 Q79.75 21.15 79.35 27.15 78.85 34.6 75.9 41.45 L75.55 42.45 72.7 49.4 Q64.15 68.15 61.7 71.65 58.1 76.7 56.3 77.95 54.5 79.2 41.2 79.1 27.75 79.0 19.4 77.45 11.0 75.85 11.25 74.95 11.45 74.0 5.4 58.0 1.7 46.8 -1.2 28.6 L4.2 1.7 15.9 2.25 12.75 13.8 17.85 37.35 Q37.5 43.5 61.0 37.4 L70.0 13.5 66.55 0.85" fill="#51553c" fill-rule="evenodd" stroke="none"/>
    <path d="M77.6 4.15 L78.95 15.2 79.2 17.4 68.55 17.4 70.0 13.5 67.45 4.15 77.6 4.15 M13.55 17.4 L1.05 17.4 4.2 1.7 15.9 2.25 12.75 13.8 13.55 17.4 M5.5 58.25 L68.95 58.25 Q65.45 64.85 64.0 66.8 60.15 71.85 58.2 73.1 56.3 74.35 41.95 74.25 27.5 74.15 18.55 72.6 9.5 71.0 9.75 70.1 9.9 69.3 5.5 58.25" fill="#444532" fill-rule="evenodd" stroke="none"/>
    <path d="M9.8 77.85 Q8.8 77.75 8.05 77.0 7.15 76.1 7.15 74.85 7.15 73.6 8.05 72.75 8.9 71.85 10.15 71.85 L64.8 71.85 Q66.05 71.85 66.95 72.75 67.8 73.6 67.8 74.85 67.8 76.1 66.95 77.0 66.05 77.85 64.8 77.85 L64.3 77.85 19.85 77.85 16.85 77.85 10.15 77.85 9.8 77.85" fill="#773c00" fill-rule="evenodd" stroke="none"/>
    <path d="M16.85 77.85 L19.85 77.85 19.15 100.25 18.7 101.3 Q18.2 101.7 17.6 101.7 17.0 101.7 16.55 101.25 16.15 100.75 16.15 100.15 L16.85 77.85" fill="#7c4b03" fill-rule="evenodd" stroke="none"/>
    <path d="M9.8 77.85 L10.15 77.85 16.85 77.85 16.15 100.15 Q16.15 100.75 16.55 101.25 L7.25 100.95 9.8 77.85 M19.85 77.85 L64.3 77.85 70.05 102.7 69.7 102.75 18.7 101.3 19.15 100.25 19.85 77.85" fill="#f99706" fill-rule="evenodd" stroke="none"/>
  </g>
  <defs>
    <linearGradient gradientTransform="matrix(0.004, 0.0267, -0.022, 0.0033, 41.3, 19.1)" gradientUnits="userSpaceOnUse" id="gradient0" spreadMethod="pad" x1="-819.2" x2="819.2">
      <stop offset="0.0" stop-color="#9c9c9c"/>
      <stop offset="1.0" stop-color="#ffffff"/>
    </linearGradient>
  </defs>
</svg>
