<?xml version="1.0" encoding="UTF-8" standalone="no"?>
<svg xmlns:xlink="http://www.w3.org/1999/xlink" height="101.75px" width="82.15px" xmlns="http://www.w3.org/2000/svg">
  <g transform="matrix(1.0, 0.0, 0.0, 1.0, -0.4, -4.45)">
    <path d="M79.55 30.0 L79.55 32.1 78.5 37.85 Q77.8 41.75 76.35 45.35 76.0 46.05 76.0 46.4 L73.15 52.85 71.7 56.05 Q66.35 67.5 63.85 72.15 L64.9 72.15 65.25 77.15 64.9 79.65 65.25 79.65 70.25 102.15 71.0 103.2 12.35 102.15 10.9 101.8 12.7 88.95 Q9.1 88.55 7.35 85.7 4.45 82.5 4.45 77.5 4.45 73.2 7.35 69.3 9.1 67.15 11.6 66.4 L10.2 62.85 9.5 61.05 Q8.05 56.4 7.0 51.05 4.85 43.2 3.4 33.2 L8.4 7.85 9.85 7.85 10.55 7.85 10.55 8.2 77.4 7.45 78.85 20.7 Q79.2 21.75 79.2 23.2 L79.55 30.0" fill="#b4843e" fill-rule="evenodd" stroke="none"/>
    <path d="M79.55 30.0 L79.55 32.1 78.5 37.85 Q77.8 41.75 76.35 45.35 76.0 46.05 76.0 46.4 L73.15 52.85 71.7 56.05 Q66.35 67.5 63.85 72.15 L64.9 72.15 65.25 77.15 64.9 79.65 65.25 79.65 70.25 102.15 71.0 103.2 12.35 102.15 10.9 101.8 12.7 88.95 Q9.1 88.55 7.35 85.7 4.45 82.5 4.45 77.5 4.45 73.2 7.35 69.3 9.1 67.15 11.6 66.4 L10.2 62.85 9.5 61.05 Q8.05 56.4 7.0 51.05 4.85 43.2 3.4 33.2 L8.4 7.85 9.85 7.85 10.55 7.85 10.55 8.2 77.4 7.45 78.85 20.7 Q79.2 21.75 79.2 23.2 L79.55 30.0 Z" fill="none" stroke="#411d14" stroke-linecap="round" stroke-linejoin="round" stroke-width="6.0"/>
    <path d="M64.55 70.7 L14.85 71.05" fill="none" stroke="#444532" stroke-linecap="round" stroke-linejoin="round" stroke-width="1.0"/>
    <path d="M66.95 7.1 L70.15 18.8 61.65 41.35 Q39.5 47.05 20.9 41.25 L16.1 19.05 19.05 8.2 66.95 7.1" fill="url(#gradient0)" fill-rule="evenodd" stroke="none"/>
    <path d="M77.4 10.5 L77.2 10.5 Q74.45 10.5 74.45 15.45 74.45 18.95 78.55 22.35 L78.9 22.75 Q79.2 26.25 79.1 29.75 L78.95 31.65 Q78.75 34.6 78.15 37.5 78.0 35.3 77.35 34.25 76.45 32.7 74.25 32.7 73.05 32.7 72.25 33.8 71.5 34.75 71.5 35.8 71.5 36.75 72.1 38.25 L72.6 40.1 Q72.6 41.55 70.4 42.9 68.15 44.3 68.15 47.5 68.15 50.5 69.65 53.1 L71.25 55.85 Q64.4 70.65 62.3 73.6 L59.7 77.1 Q58.8 75.4 57.95 74.95 56.4 74.15 54.6 74.15 52.55 74.15 51.85 76.0 51.5 76.95 51.5 79.1 L51.55 80.5 42.95 80.65 Q30.25 80.55 22.4 79.1 14.45 77.6 14.7 76.7 L14.7 76.35 21.65 77.1 Q23.35 77.1 25.95 75.25 28.9 73.0 28.9 70.45 28.9 69.25 28.1 67.7 27.2 66.15 26.3 65.6 L23.95 65.3 21.5 65.25 Q20.0 64.65 17.25 61.45 14.75 58.6 13.7 58.6 12.45 58.6 11.4 59.5 10.6 60.15 9.8 62.45 L9.1 60.75 Q7.65 56.3 6.3 50.65 8.0 50.3 9.25 48.6 10.75 46.6 10.75 44.55 10.75 43.65 9.65 41.05 8.55 38.4 8.55 37.15 8.55 35.8 10.4 34.0 12.25 32.25 12.25 29.75 12.25 28.05 11.05 26.7 9.35 25.0 8.9 23.8 8.7 23.3 8.7 19.3 8.7 16.4 7.05 16.4 6.6 16.4 6.1 17.2 L8.0 7.7 19.05 8.2 16.1 19.05 20.9 41.25 Q39.5 47.05 61.65 41.35 L70.15 18.8 66.95 7.1 76.95 7.1 77.4 10.5 M26.7 46.4 Q25.85 45.65 24.45 45.65 23.4 45.65 22.25 46.75 21.1 47.7 21.1 48.4 L21.2 48.95 Q20.3 49.35 20.1 49.7 L20.0 50.45 Q20.0 51.95 22.45 53.4 24.8 54.8 24.8 56.15 L24.6 57.1 29.65 57.5 Q30.0 56.75 30.0 54.9 30.0 52.8 29.2 52.0 28.45 51.35 26.7 51.2 26.7 50.8 26.3 50.8 L27.2 49.55 27.4 48.25 Q27.4 47.1 26.7 46.4 M38.3 59.7 Q37.55 59.7 36.7 60.45 35.55 61.4 35.55 62.8 35.55 64.15 36.45 65.7 L35.85 66.95 Q34.45 69.55 34.45 70.8 34.45 71.85 35.2 73.4 36.1 75.25 37.05 75.25 37.8 75.25 38.8 73.55 40.3 71.25 41.1 70.45 L42.15 71.3 43.1 71.55 Q46.3 70.65 46.3 68.2 40.1 59.7 38.3 59.7 M59.25 53.65 L54.45 48.6 Q51.5 48.6 51.5 51.35 L51.55 53.4 Q51.8 54.45 52.45 54.95 L47.05 52.65 44.6 53.05 Q42.25 53.55 42.25 54.3 42.25 55.25 42.6 55.65 42.95 56.0 44.1 56.0 L45.5 55.65 46.8 55.25 Q47.2 55.25 51.7 60.05 56.25 64.9 58.7 64.9 60.75 64.9 62.25 63.05 63.7 61.2 63.7 58.75 L59.25 53.65" fill="#f99706" fill-rule="evenodd" stroke="none"/>
    <path d="M78.9 22.75 L78.55 22.35 Q74.45 18.95 74.45 15.45 74.45 10.5 77.2 10.5 L77.4 10.5 78.6 20.4 78.9 22.75 M6.1 17.2 Q6.6 16.4 7.05 16.4 8.7 16.4 8.7 19.3 8.7 23.3 8.9 23.8 9.35 25.0 11.05 26.7 12.25 28.05 12.25 29.75 12.25 32.25 10.4 34.0 8.55 35.8 8.55 37.15 8.55 38.4 9.65 41.05 10.75 43.65 10.75 44.55 10.75 46.6 9.25 48.6 8.0 50.3 6.3 50.65 4.45 42.95 2.9 33.05 L6.1 17.2 M9.8 62.45 Q10.6 60.15 11.4 59.5 12.45 58.6 13.7 58.6 14.75 58.6 17.25 61.45 20.0 64.65 21.5 65.25 L23.95 65.3 26.3 65.6 Q27.2 66.15 28.1 67.7 28.9 69.25 28.9 70.45 28.9 73.0 25.95 75.25 23.35 77.1 21.65 77.1 L14.7 76.35 13.25 72.05 13.1 71.45 12.55 70.0 11.35 66.75 9.8 62.45 M51.55 80.5 L51.5 79.1 Q51.5 76.95 51.85 76.0 52.55 74.15 54.6 74.15 56.4 74.15 57.95 74.95 58.8 75.4 59.7 77.1 L59.5 77.4 57.2 79.6 Q56.25 80.25 51.55 80.5 M71.25 55.85 L69.65 53.1 Q68.15 50.5 68.15 47.5 68.15 44.3 70.4 42.9 72.6 41.55 72.6 40.1 L72.1 38.25 Q71.5 36.75 71.5 35.8 71.5 34.75 72.25 33.8 73.05 32.7 74.25 32.7 76.45 32.7 77.35 34.25 78.0 35.3 78.15 37.5 77.35 41.4 75.7 45.1 L75.4 46.1 72.65 52.65 71.25 55.85 M26.7 46.4 Q27.4 47.1 27.4 48.25 L27.2 49.55 26.3 50.8 Q26.7 50.8 26.7 51.2 28.45 51.35 29.2 52.0 30.0 52.8 30.0 54.9 30.0 56.75 29.65 57.5 L24.6 57.1 24.8 56.15 Q24.8 54.8 22.45 53.4 20.0 51.95 20.0 50.45 L20.1 49.7 Q20.3 49.35 21.2 48.95 L21.1 48.4 Q21.1 47.7 22.25 46.75 23.4 45.65 24.45 45.65 25.85 45.65 26.7 46.4 M38.3 59.7 Q40.1 59.7 46.3 68.2 46.3 70.65 43.1 71.55 L42.15 71.3 41.1 70.45 Q40.3 71.25 38.8 73.55 37.8 75.25 37.05 75.25 36.1 75.25 35.2 73.4 34.45 71.85 34.45 70.8 34.45 69.55 35.85 66.95 L36.45 65.7 Q35.55 64.15 35.55 62.8 35.55 61.4 36.7 60.45 37.55 59.7 38.3 59.7 M59.25 53.65 L63.7 58.75 Q63.7 61.2 62.25 63.05 60.75 64.9 58.7 64.9 56.25 64.9 51.7 60.05 47.2 55.25 46.8 55.25 L45.5 55.65 44.1 56.0 Q42.95 56.0 42.6 55.65 42.25 55.25 42.25 54.3 42.25 53.55 44.6 53.05 L47.05 52.65 52.45 54.95 Q51.8 54.45 51.55 53.4 L51.5 51.35 Q51.5 48.6 54.45 48.6 L59.25 53.65" fill="#020300" fill-rule="evenodd" stroke="none"/>
    <path d="M70.65 102.15 Q69.55 98.2 57.4 89.3 45.25 80.35 30.95 83.95 17.0 87.5 11.6 98.2 L14.15 79.65 65.6 79.65 70.65 102.15" fill="#7b4a00" fill-rule="evenodd" stroke="none"/>
    <path d="M11.6 98.2 Q17.0 87.5 30.95 83.95 45.25 80.35 57.4 89.3 69.55 98.2 70.65 102.15 L71.35 103.2 67.75 103.2 Q55.6 85.7 37.75 86.05 20.2 86.05 12.7 102.15 L11.25 101.8 11.6 98.2" fill="#010103" fill-rule="evenodd" stroke="none"/>
    <path d="M12.7 102.15 Q20.2 86.05 37.75 86.05 55.6 85.7 67.75 103.2 L12.7 102.15" fill="#f99706" fill-rule="evenodd" stroke="none"/>
    <path d="M75.65 7.85 Q76.0 7.85 76.35 8.2 76.35 8.55 76.7 8.9 L76.7 9.25 77.05 9.6 77.05 10.35 77.4 11.75 Q77.8 12.45 77.8 13.55 77.8 16.05 76.0 17.5 74.9 19.25 74.9 20.35 L75.25 22.75 75.25 22.9 Q75.25 23.9 73.85 25.35 72.4 27.1 72.4 27.85 71.7 28.9 71.35 31.05 L71.35 32.1 71.0 32.5 67.05 33.55 66.0 33.55 Q67.4 31.05 69.2 29.6 69.9 28.9 70.65 27.1 L71.35 24.25 72.75 22.5 Q73.15 21.4 73.15 19.6 73.15 17.5 73.85 16.4 74.9 15.35 74.9 13.9 L74.9 12.85 75.65 7.85 M9.1 11.75 Q9.1 11.05 9.5 10.35 L9.5 9.6 9.5 9.25 9.85 9.25 9.85 8.9 Q9.85 8.55 10.2 8.2 10.55 7.85 10.9 7.85 L11.6 12.85 11.6 13.9 Q11.6 15.35 12.35 16.4 L13.05 17.85 13.05 19.6 Q12.7 21.4 13.4 22.5 L14.5 24.25 Q14.85 25.0 15.2 27.1 15.9 28.9 16.65 29.6 18.05 31.05 19.5 33.55 L18.4 33.55 15.2 32.5 Q14.85 32.1 14.5 32.1 L14.5 31.05 13.75 27.85 12.35 25.35 Q11.6 23.9 11.6 22.85 L11.6 20.35 Q11.6 19.25 10.2 17.5 8.75 16.05 8.75 13.55 8.75 12.85 9.1 11.75" fill="#e78f0c" fill-rule="evenodd" stroke="none"/>
    <path d="M77.4 11.75 Q78.15 12.85 78.15 14.95 78.5 17.5 76.7 19.25 75.25 20.7 75.25 21.75 L75.25 22.75 74.9 20.35 Q74.9 19.25 76.0 17.5 77.8 16.05 77.8 13.55 77.8 12.45 77.4 11.75 M75.25 22.9 L75.25 24.25 Q75.25 25.35 74.55 26.75 L72.75 29.25 72.05 31.75 Q71.7 32.1 71.35 32.1 L71.35 31.05 Q71.7 28.9 72.4 27.85 72.4 27.1 73.85 25.35 75.25 23.9 75.25 22.9 M14.5 32.1 L13.75 31.75 Q13.75 30.0 13.4 29.25 L11.6 26.75 Q10.9 25.35 10.9 24.25 10.9 23.55 11.25 21.75 11.25 20.7 9.85 19.25 8.4 17.5 8.4 14.95 8.4 13.2 9.1 11.75 8.75 12.85 8.75 13.55 8.75 16.05 10.2 17.5 11.6 19.25 11.6 20.35 L11.6 22.85 Q11.6 23.9 12.35 25.35 L13.75 27.85 14.5 31.05 14.5 32.1" fill="#a36100" fill-rule="evenodd" stroke="none"/>
    <path d="M11.6 12.85 L12.35 16.4 Q11.6 15.35 11.6 13.9 L11.6 12.85 M13.05 17.85 Q13.4 20.0 14.5 22.5 16.65 28.55 19.85 33.9 19.5 33.9 19.5 33.55 18.05 31.05 16.65 29.6 15.9 28.9 15.2 27.1 14.85 25.0 14.5 24.25 L13.4 22.5 Q12.7 21.4 13.05 19.6 L13.05 17.85 M65.6 33.9 Q69.2 28.55 71.35 22.5 72.75 19.25 73.5 16.4 L74.9 12.85 74.9 13.9 Q74.9 15.35 73.85 16.4 73.15 17.5 73.15 19.6 73.15 21.4 72.75 22.5 L71.35 24.25 70.65 27.1 Q69.9 28.9 69.2 29.6 67.4 31.05 66.0 33.55 L65.6 33.9" fill="#f7aa36" fill-rule="evenodd" stroke="none"/>
    <path d="M37.0 44.65 L37.0 44.25 Q37.35 44.25 37.35 44.65 L38.45 46.4 Q38.8 45.7 39.15 45.7 40.25 45.7 41.3 47.15 L41.65 47.85 42.4 48.9 43.1 47.85 44.15 46.75 45.6 47.15 45.95 47.5 47.05 48.2 Q47.4 48.2 47.75 46.75 48.1 46.05 48.45 46.05 49.15 46.05 49.9 46.4 50.25 47.15 50.6 47.15 L52.05 45.7 53.1 45.0 53.8 44.65 Q54.55 44.65 54.55 45.0 54.9 45.35 55.25 45.35 55.6 45.35 55.95 43.55 57.05 41.75 57.75 41.75 L58.85 42.15 59.55 42.5 Q59.9 42.5 60.25 41.75 60.25 41.05 60.95 40.7 60.95 40.35 61.7 40.35 62.4 40.35 63.1 39.25 63.45 38.55 64.55 37.5 L66.35 35.7 67.05 33.55 71.0 32.5 69.2 34.6 Q67.75 36.05 67.75 37.1 67.4 39.65 67.4 40.7 67.05 43.2 66.35 44.25 L65.25 42.5 Q64.55 41.05 63.45 41.05 62.75 41.05 62.05 43.9 61.7 47.15 61.7 48.2 L59.9 45.35 Q59.55 44.25 58.1 44.25 55.6 47.5 55.25 49.65 L53.8 47.5 Q52.4 46.4 51.65 48.2 L50.6 49.25 Q49.9 50.0 49.9 50.7 49.55 51.05 48.8 51.05 48.1 51.4 47.75 50.7 L46.65 50.0 Q45.95 48.9 45.25 48.9 L44.9 48.9 44.15 50.0 Q43.8 50.35 43.45 51.4 42.45 53.8 42.75 52.6 42.4 53.9 41.65 53.55 L40.95 52.5 Q40.6 50.7 39.5 50.0 L38.45 50.0 Q38.1 49.25 38.1 48.9 L37.0 50.0 36.3 50.7 Q35.6 51.4 35.25 51.05 34.5 51.05 34.5 50.7 L33.45 49.25 32.7 48.2 Q31.65 46.4 30.95 47.5 L29.15 49.65 Q28.8 47.5 27.0 44.25 25.55 44.25 24.85 45.35 L23.45 48.2 23.05 43.9 Q22.7 41.05 21.65 41.05 20.9 41.05 20.2 42.5 L19.15 44.25 Q18.8 43.2 18.4 40.7 L17.7 37.1 Q17.7 36.05 16.65 34.6 15.2 33.2 15.2 32.5 L18.4 33.55 Q19.15 35.0 19.15 35.7 19.5 36.75 20.9 37.5 L22.35 39.25 Q22.7 40.35 23.05 40.35 24.15 40.35 24.15 40.7 24.85 41.05 24.85 41.75 24.85 42.5 25.2 42.5 25.55 42.5 25.95 42.15 26.65 41.75 27.0 41.75 27.7 41.75 28.8 43.55 L29.15 45.35 Q29.5 45.35 29.85 45.0 30.2 44.65 30.6 44.65 30.95 44.65 31.3 45.0 L32.35 45.7 Q32.7 45.7 32.7 46.4 L33.45 47.15 Q33.8 47.15 34.5 46.4 34.5 46.05 35.25 46.05 35.95 46.05 36.3 46.75 L36.65 48.2 37.75 47.5 37.0 44.65 M45.6 44.65 L45.95 44.25 45.95 44.65 Q45.6 44.65 45.6 45.0 L45.6 44.65" fill="#fab634" fill-rule="evenodd" stroke="none"/>
    <path d="M19.85 33.9 L22.7 36.75 Q28.45 43.55 37.0 44.65 L37.75 47.5 36.65 48.2 36.3 46.75 Q35.95 46.05 35.25 46.05 34.5 46.05 34.5 46.4 33.8 47.15 33.45 47.15 L32.7 46.4 Q32.7 45.7 32.35 45.7 L31.3 45.0 Q30.95 44.65 30.6 44.65 30.2 44.65 29.85 45.0 29.5 45.35 29.15 45.35 L28.8 43.55 Q27.7 41.75 27.0 41.75 26.65 41.75 25.95 42.15 25.55 42.5 25.2 42.5 24.85 42.5 24.85 41.75 24.85 41.05 24.15 40.7 24.15 40.35 23.05 40.35 22.7 40.35 22.35 39.25 L20.9 37.5 Q19.5 36.75 19.15 35.7 19.15 35.0 18.4 33.55 L19.5 33.55 Q19.5 33.9 19.85 33.9 M37.35 44.65 L41.65 45.0 43.05 45.0 45.6 44.65 45.6 45.0 Q45.6 44.65 45.95 44.65 55.95 43.9 62.75 36.75 L65.6 33.9 66.0 33.55 67.05 33.55 66.35 35.7 64.55 37.5 Q63.45 38.55 63.1 39.25 62.4 40.35 61.7 40.35 60.95 40.35 60.95 40.7 60.25 41.05 60.25 41.75 59.9 42.5 59.55 42.5 L58.85 42.15 57.75 41.75 Q57.05 41.75 55.95 43.55 55.6 45.35 55.25 45.35 54.9 45.35 54.55 45.0 54.55 44.65 53.8 44.65 L53.1 45.0 52.05 45.7 50.6 47.15 Q50.25 47.15 49.9 46.4 49.15 46.05 48.45 46.05 48.1 46.05 47.75 46.75 47.4 48.2 47.05 48.2 L45.95 47.5 45.6 47.15 44.15 46.75 43.1 47.85 42.4 48.9 41.65 47.85 41.3 47.15 Q40.25 45.7 39.15 45.7 38.8 45.7 38.45 46.4 L37.35 44.65 M45.6 45.0 L43.05 45.0 45.6 45.0" fill="#fad579" fill-rule="evenodd" stroke="none"/>
    <path d="M71.35 32.1 L71.35 34.25 71.35 34.6 69.2 36.75 67.75 39.25 Q67.4 41.75 67.4 43.2 67.4 45.7 66.7 46.4 L65.6 44.25 Q64.55 43.2 63.85 43.2 62.75 43.2 62.05 46.4 L61.7 50.35 60.25 47.85 Q59.55 46.4 58.1 46.4 55.95 49.65 55.6 51.4 54.55 50.7 53.8 49.25 52.75 48.2 52.05 49.25 L50.6 51.75 49.55 53.55 Q49.15 53.9 47.75 52.15 46.3 50.7 44.9 50.7 44.5 50.7 43.8 53.2 L42.4 55.7 Q42.0 55.7 41.65 55.35 L41.3 55.7 Q40.95 55.7 40.6 55.0 L39.85 53.2 Q39.85 52.5 39.5 52.15 L39.15 52.15 38.45 50.7 Q37.75 50.7 36.65 52.15 34.85 53.9 34.5 53.55 L33.45 51.75 32.35 49.25 Q31.65 48.2 30.95 49.25 L29.15 51.4 Q28.8 49.65 26.65 46.4 25.2 46.4 24.85 47.85 L23.45 50.35 Q23.05 49.65 23.05 46.4 22.7 43.2 21.3 43.2 20.9 43.2 20.2 44.25 L19.15 46.4 Q18.4 45.7 18.05 43.2 L17.7 39.25 16.25 36.75 Q15.2 35.35 15.2 34.6 L14.85 34.25 14.5 32.1 Q14.85 32.1 15.2 32.5 15.2 33.2 16.65 34.6 17.7 36.05 17.7 37.1 L18.4 40.7 Q18.8 43.2 19.15 44.25 L20.2 42.5 Q20.9 41.05 21.65 41.05 22.7 41.05 23.05 43.9 L23.45 48.2 24.85 45.35 Q25.55 44.25 27.0 44.25 28.8 47.5 29.15 49.65 L30.95 47.5 Q31.65 46.4 32.7 48.2 L33.45 49.25 34.5 50.7 Q34.5 51.05 35.25 51.05 35.6 51.4 36.3 50.7 L37.0 50.0 38.1 48.9 Q38.1 49.25 38.45 50.0 L39.5 50.0 Q40.6 50.7 40.95 52.5 L41.65 53.55 Q42.4 53.9 42.75 52.6 42.45 53.8 43.45 51.4 43.8 50.35 44.15 50.0 L44.9 48.9 45.25 48.9 Q45.95 48.9 46.65 50.0 L47.75 50.7 Q48.1 51.4 48.8 51.05 49.55 51.05 49.9 50.7 49.9 50.0 50.6 49.25 L51.65 48.2 Q52.4 46.4 53.8 47.5 L55.25 49.65 Q55.6 47.5 58.1 44.25 59.55 44.25 59.9 45.35 L61.7 48.2 Q61.7 47.15 62.05 43.9 62.75 41.05 63.45 41.05 64.55 41.05 65.25 42.5 L66.35 44.25 Q67.05 43.2 67.4 40.7 67.4 39.65 67.75 37.1 67.75 36.05 69.2 34.6 L71.0 32.5 71.35 32.1 M41.65 55.35 L41.3 54.65 Q40.6 52.85 39.85 52.15 L39.5 52.15 39.85 52.15 Q40.6 52.85 41.3 54.65 L41.65 55.35 M38.45 50.7 L38.45 50.0 38.45 50.7" fill="#c47500" fill-rule="evenodd" stroke="none"/>
    <path d="M75.65 7.85 Q76.0 7.85 76.35 8.2 76.35 8.55 76.7 8.9 L76.7 9.25 77.05 9.6 77.05 10.35 77.4 11.75 Q78.15 12.85 78.15 14.95 78.5 17.5 76.7 19.25 75.25 20.7 75.25 21.75 L75.25 22.75 75.25 22.9 75.25 24.25 Q75.25 25.35 74.55 26.75 L72.75 29.25 72.05 31.75 Q71.7 32.1 71.35 32.1 L71.35 34.25 71.35 34.6 69.2 36.75 67.75 39.25 Q67.4 41.75 67.4 43.2 67.4 45.7 66.7 46.4 L65.6 44.25 Q64.55 43.2 63.85 43.2 62.75 43.2 62.05 46.4 L61.7 50.35 60.25 47.85 Q59.55 46.4 58.1 46.4 55.95 49.65 55.6 51.4 54.55 50.7 53.8 49.25 52.75 48.2 52.05 49.25 L50.6 51.75 49.55 53.55 Q49.15 53.9 47.75 52.15 46.3 50.7 44.9 50.7 44.5 50.7 43.8 53.2 L42.4 55.7 Q42.0 55.7 41.65 55.35 L41.3 55.7 Q40.95 55.7 40.6 55.0 L39.85 53.2 Q39.85 52.5 39.5 52.15 L39.15 52.15 38.45 50.7 Q37.75 50.7 36.65 52.15 34.85 53.9 34.5 53.55 L33.45 51.75 32.35 49.25 Q31.65 48.2 30.95 49.25 L29.15 51.4 Q28.8 49.65 26.65 46.4 25.2 46.4 24.85 47.85 L23.45 50.35 Q23.05 49.65 23.05 46.4 22.7 43.2 21.3 43.2 20.9 43.2 20.2 44.25 L19.15 46.4 Q18.4 45.7 18.05 43.2 L17.7 39.25 16.25 36.75 Q15.2 35.35 15.2 34.6 L14.85 34.25 14.5 32.1 13.75 31.75 Q13.75 30.0 13.4 29.25 L11.6 26.75 Q10.9 25.35 10.9 24.25 10.9 23.55 11.25 21.75 11.25 20.7 9.85 19.25 8.4 17.5 8.4 14.95 8.4 13.2 9.1 11.75 9.1 11.05 9.5 10.35 L9.5 9.6 9.5 9.25 9.85 9.25 9.85 8.9 Q9.85 8.55 10.2 8.2 10.55 7.85 10.9 7.85 M41.65 45.0 L43.05 45.0 45.6 45.0 Q45.6 44.65 45.95 44.65 M38.45 50.0 L38.45 50.7 M39.5 52.15 L39.85 52.15 Q40.6 52.85 41.3 54.65 L41.65 55.35" fill="none" stroke="#411d14" stroke-linecap="round" stroke-linejoin="round" stroke-width="0.5"/>
    <path d="M14.1 71.8 L66.6 72.15 66.95 77.15 66.25 81.8 15.25 81.8 13.75 77.5 14.1 71.8" fill="#010103" fill-rule="evenodd" stroke="none"/>
    <path d="M18.05 72.15 Q16.25 69.65 13.75 69.65 11.25 69.65 9.5 72.15 7.7 74.65 7.7 77.5 7.7 81.05 9.5 83.2 11.25 85.7 13.75 85.7 16.25 85.7 18.05 83.2 19.85 81.05 19.85 77.5 19.85 74.65 18.05 72.15 M13.75 66.05 Q17.35 66.05 20.2 69.3 22.7 73.2 22.7 77.5 22.7 82.5 20.2 85.7 17.35 88.95 13.75 88.95 10.2 88.95 7.7 85.7 4.85 82.5 4.85 77.5 4.85 73.2 7.7 69.3 10.2 66.05 13.75 66.05" fill="#fff275" fill-rule="evenodd" stroke="none"/>
    <path d="M18.05 72.15 Q19.85 74.65 19.85 77.5 19.85 81.05 18.05 83.2 16.25 85.7 13.75 85.7 11.25 85.7 9.5 83.2 7.7 81.05 7.7 77.5 7.7 74.65 9.5 72.15 11.25 69.65 13.75 69.65 16.25 69.65 18.05 72.15" fill="#ba7824" fill-rule="evenodd" stroke="none"/>
    <path d="M18.05 72.15 Q19.85 74.65 19.85 77.5 19.85 81.05 18.05 83.2 16.25 85.7 13.75 85.7 11.25 85.7 9.5 83.2 7.7 81.05 7.7 77.5 7.7 74.65 9.5 72.15 11.25 69.65 13.75 69.65 16.25 69.65 18.05 72.15" fill="none" stroke="#5f3000" stroke-linecap="round" stroke-linejoin="round" stroke-width="1.5"/>
    <path d="M13.75 66.05 Q17.35 66.05 20.2 69.3 22.7 73.2 22.7 77.5 22.7 82.5 20.2 85.7 17.35 88.95 13.75 88.95 10.2 88.95 7.7 85.7 4.85 82.5 4.85 77.5 4.85 73.2 7.7 69.3 10.2 66.05 13.75 66.05" fill="none" stroke="#663300" stroke-linecap="round" stroke-linejoin="round" stroke-width="1.0"/>
  </g>
  <defs>
    <linearGradient gradientTransform="matrix(0.0038, 0.0252, -0.0208, 0.0031, 43.05, 24.05)" gradientUnits="userSpaceOnUse" id="gradient0" spreadMethod="pad" x1="-819.2" x2="819.2">
      <stop offset="0.0" stop-color="#9c9c9c"/>
      <stop offset="1.0" stop-color="#ffffff"/>
    </linearGradient>
  </defs>
</svg>
