<?xml version="1.0" encoding="UTF-8" standalone="no"?>
<svg xmlns:xlink="http://www.w3.org/1999/xlink" height="103.15px" width="81.95px" xmlns="http://www.w3.org/2000/svg">
  <g transform="matrix(1.0, 0.0, 0.0, 1.0, 1.05, -2.2)">
    <path d="M77.8 18.75 Q78.15 24.5 77.4 33.05 76.35 41.65 73.85 53.75 L72.8 59.15 Q72.8 60.2 72.4 61.3 71.7 68.8 69.55 72.35 L71.0 72.35 71.0 72.7 72.8 98.45 Q69.9 99.5 66.7 99.85 L61.7 100.95 61.0 97.7 Q61.0 95.95 60.25 96.65 59.55 97.7 59.55 101.3 59.2 100.95 58.85 101.3 L57.75 97.35 57.05 101.65 54.2 101.65 52.05 101.65 43.8 102.35 43.45 102.35 42.0 102.35 40.25 102.35 39.5 102.35 38.45 98.8 Q37.0 99.85 36.3 102.35 L35.6 102.35 Q35.25 100.2 34.15 96.65 L33.45 100.2 33.1 102.35 32.75 102.35 24.15 101.65 22.0 101.65 Q22.0 101.3 21.65 101.65 21.65 97.7 20.95 97.0 20.95 97.7 19.85 100.2 L19.85 101.3 Q19.5 100.95 18.8 100.95 L15.9 100.55 Q13.75 99.85 11.65 99.85 L6.6 98.45 9.15 81.65 9.15 80.55 10.2 73.05 10.2 72.35 11.65 72.35 Q10.55 69.85 7.7 59.15 L7.7 58.8 Q6.6 56.65 6.25 53.75 L5.9 52.7 5.9 52.35 Q5.2 50.2 4.85 47.7 3.4 40.9 1.95 31.6 L7.0 6.25 18.05 6.95 75.65 5.2 77.8 18.75" fill="#b4843e" fill-rule="evenodd" stroke="none"/>
    <path d="M77.8 18.75 Q78.15 24.5 77.4 33.05 76.35 41.65 73.85 53.75 L72.8 59.15 Q72.8 60.2 72.4 61.3 71.7 68.8 69.55 72.35 L71.0 72.35 71.0 72.7 72.8 98.45 Q69.9 99.5 66.7 99.85 L61.7 100.95 61.0 97.7 Q61.0 95.95 60.25 96.65 59.55 97.7 59.55 101.3 59.2 100.95 58.85 101.3 L57.75 97.35 57.05 101.65 54.2 101.65 52.05 101.65 43.8 102.35 43.45 102.35 42.0 102.35 40.25 102.35 39.5 102.35 38.45 98.8 Q37.0 99.85 36.3 102.35 L35.6 102.35 Q35.25 100.2 34.15 96.65 L33.45 100.2 33.1 102.35 32.75 102.35 24.15 101.65 22.0 101.65 Q22.0 101.3 21.65 101.65 21.65 97.7 20.95 97.0 20.95 97.7 19.85 100.2 L19.85 101.3 Q19.5 100.95 18.8 100.95 L15.9 100.55 Q13.75 99.85 11.65 99.85 L6.6 98.45 9.15 81.65 9.15 80.55 10.2 73.05 10.2 72.35 11.65 72.35 Q10.55 69.85 7.7 59.15 L7.7 58.8 Q6.6 56.65 6.25 53.75 L5.9 52.7 5.9 52.35 Q5.2 50.2 4.85 47.7 3.4 40.9 1.95 31.6 L7.0 6.25 18.05 6.95 75.65 5.2 77.8 18.75 Z" fill="none" stroke="#411d14" stroke-linecap="round" stroke-linejoin="round" stroke-width="6.0"/>
    <path d="M63.4 68.8 L14.05 68.8" fill="none" stroke="#444532" stroke-linecap="round" stroke-linejoin="round" stroke-width="1.0"/>
    <path d="M8.7 5.9 L9.45 9.75 10.35 13.4 12.35 19.45 Q14.5 25.35 17.75 30.8 L18.35 31.5 20.4 34.05 Q26.25 40.7 35.25 41.65 L39.55 42.0 45.15 42.0 Q54.2 40.45 60.5 34.05 L63.4 30.8 65.15 27.9 Q67.55 23.8 69.3 19.45 L71.45 13.4 72.5 9.75 73.55 5.05 76.05 5.05 77.75 18.55 Q78.5 24.2 77.6 32.65 76.65 41.05 74.2 53.4 L73.0 58.95 72.8 60.95 Q72.05 68.3 69.55 72.0 68.1 74.0 66.25 74.9 60.8 77.45 45.1 78.15 34.8 78.5 27.6 77.75 L26.5 74.35 25.1 71.25 Q24.2 68.8 22.95 66.9 L20.2 63.5 Q18.8 62.0 14.15 60.65 L7.7 58.9 7.7 58.3 6.35 53.35 Q9.25 58.9 17.7 60.15 22.7 60.9 26.4 60.15 31.4 59.2 36.25 55.5 39.15 53.25 39.55 48.7 39.85 45.05 38.65 42.3 L32.85 42.0 Q32.7 48.3 28.95 51.65 L28.35 52.15 Q19.85 58.75 6.65 52.15 L6.05 51.85 5.0 47.45 Q3.55 40.3 2.05 31.2 L7.15 5.85 8.7 5.9 M6.25 47.35 Q7.1 49.8 9.55 51.25 L11.45 52.15 16.95 54.25 14.55 52.15 11.1 49.05 Q7.85 46.15 8.05 41.65 L6.2 41.65 6.2 46.85 6.25 47.35 M15.1 74.8 Q13.15 73.6 12.85 72.0 L14.0 71.35 Q14.65 70.9 15.25 70.9 15.9 70.9 17.3 71.6 L18.05 72.05 19.7 72.5 Q20.8 73.05 21.7 73.9 23.1 75.3 23.25 77.1 L20.8 76.6 15.1 74.8 M11.75 65.85 Q11.75 65.35 12.0 65.05 L12.15 64.6 14.35 64.6 17.45 65.35 18.65 66.15 Q21.4 68.0 21.4 69.05 21.4 70.5 18.8 70.5 11.75 68.05 11.75 65.85 M43.75 42.25 L46.4 42.0 45.15 42.0 43.75 42.25" fill="#ffa92a" fill-rule="evenodd" stroke="none"/>
    <path d="M6.05 51.85 L6.65 52.15 Q19.85 58.75 28.35 52.15 L28.95 51.65 Q32.7 48.3 32.85 42.0 L38.65 42.3 Q39.85 45.05 39.55 48.7 39.15 53.25 36.25 55.5 31.4 59.2 26.4 60.15 22.7 60.9 17.7 60.15 9.25 58.9 6.35 53.35 L6.15 52.15 6.05 51.85" fill="#a66403" fill-rule="evenodd" stroke="none"/>
    <path d="M6.25 47.35 L6.2 46.85 6.2 41.65 8.05 41.65 Q7.85 46.15 11.1 49.05 L14.55 52.15 16.95 54.25 11.45 52.15 9.55 51.25 Q7.1 49.8 6.25 47.35" fill="#fcdb8b" fill-rule="evenodd" stroke="none"/>
    <path d="M7.7 58.9 L14.15 60.65 Q18.8 62.0 20.2 63.5 L22.95 66.9 Q24.2 68.8 25.1 71.25 L26.5 74.35 27.6 77.75 23.25 77.1 Q23.1 75.3 21.7 73.9 20.8 73.05 19.7 72.5 L18.05 72.05 17.3 71.6 Q15.9 70.9 15.25 70.9 14.65 70.9 14.0 71.35 L12.85 72.0 Q13.15 73.6 15.1 74.8 12.0 73.55 11.75 72.45 L7.7 58.9 M11.75 65.85 Q11.75 68.05 18.8 70.5 21.4 70.5 21.4 69.05 21.4 68.0 18.65 66.15 L17.45 65.35 14.35 64.6 12.15 64.6 12.0 65.05 Q11.75 65.35 11.75 65.85" fill="#d78101" fill-rule="evenodd" stroke="none"/>
    <path d="M73.55 5.05 L72.5 9.75 71.45 13.4 69.3 19.45 Q67.55 23.8 65.15 27.9 L63.4 30.8 60.5 34.05 Q54.2 40.45 45.15 42.0 L39.55 42.0 35.25 41.65 Q26.25 40.7 20.4 34.05 L18.35 31.5 17.75 30.8 Q14.5 25.35 12.35 19.45 L10.35 13.4 9.45 9.75 8.7 5.9 18.2 6.35 73.55 5.05 M43.75 42.25 L45.15 42.0 46.4 42.0 43.75 42.25" fill="url(#gradient0)" fill-rule="evenodd" stroke="none"/>
    <path d="M11.2 72.7 L11.2 72.0 14.05 72.0 Q26.95 76.65 34.45 77.35 L46.95 77.0 Q51.95 76.65 68.4 72.0 L72.0 72.0 71.65 72.7 Q70.2 73.4 68.75 74.5 67.7 74.85 67.0 75.55 65.55 75.9 64.85 76.65 64.1 76.65 63.4 77.0 60.55 78.4 56.25 80.2 54.45 80.55 53.05 81.3 L51.25 81.65 48.05 82.35 45.9 82.35 41.95 82.7 40.15 82.7 38.75 82.35 38.0 82.35 33.75 82.0 30.85 80.95 30.5 80.95 28.7 80.55 24.8 79.15 24.8 78.8 23.35 78.4 23.0 78.4 Q22.65 78.4 20.15 77.0 19.4 76.65 19.05 76.65 L15.85 75.2 Q15.85 74.85 15.5 74.85 L14.4 74.5 Q13.0 73.4 11.2 72.7" fill="#773c00" fill-rule="evenodd" stroke="none"/>
    <path d="M11.2 72.7 Q13.0 73.4 14.4 74.5 L15.5 74.85 Q15.85 74.85 15.85 75.2 L19.05 76.65 Q19.8 77.35 17.3 77.0 L15.15 80.95 Q13.35 85.2 13.0 87.7 L10.5 95.95 13.35 93.45 13.7 93.45 Q13.0 95.95 12.65 99.5 L7.6 98.05 10.15 80.95 10.15 80.55 11.2 72.7" fill="#433323" fill-rule="evenodd" stroke="none"/>
    <path d="M19.05 76.65 Q19.4 76.65 20.15 77.0 22.65 78.4 23.0 78.4 L23.35 78.4 24.8 78.8 Q23.35 81.65 23.35 86.3 L23.35 87.0 23.35 87.35 Q22.3 95.1 23.0 101.2 22.95 100.95 22.65 100.95 22.65 97.35 21.95 96.65 21.95 97.35 20.85 99.85 L20.85 100.55 19.8 100.55 16.9 100.2 12.65 99.5 Q13.0 95.95 13.7 93.45 L13.35 93.45 10.5 95.95 13.0 87.7 Q13.35 85.2 15.15 80.95 L17.3 77.0 Q19.8 77.35 19.05 76.65 M30.85 80.95 L33.75 82.0 38.0 82.35 Q38.75 84.5 38.75 89.5 L40.15 84.15 Q40.9 84.5 41.25 85.95 41.6 86.65 41.6 87.7 L41.95 82.7 45.9 82.35 Q46.25 83.05 46.25 84.15 L45.9 87.0 Q45.55 89.5 44.1 94.15 42.65 98.8 43.0 99.5 42.3 98.8 41.25 96.65 41.95 99.85 41.6 101.3 L41.25 102.0 40.5 102.0 39.45 98.45 Q38.0 99.85 37.3 102.0 L36.6 102.0 35.15 95.95 35.15 96.3 34.45 99.85 Q34.45 100.95 34.1 101.65 L33.75 101.65 25.15 101.3 Q23.7 94.85 25.85 84.15 26.95 81.65 27.3 81.65 26.55 82.35 26.55 84.15 L26.55 87.7 26.55 90.55 27.65 87.35 Q29.45 82.35 30.85 80.95 M32.3 85.95 Q30.5 86.3 29.45 89.15 29.1 90.2 29.1 91.65 28.7 92.0 28.7 93.05 28.7 95.2 28.0 97.7 L30.5 98.45 31.6 98.45 33.75 91.3 35.15 88.8 Q36.25 87.35 36.25 86.65 L36.25 85.2 Q35.85 84.85 35.15 85.2 L33.75 85.95 32.3 85.95" fill="#64503c" fill-rule="evenodd" stroke="none"/>
    <path d="M32.3 85.95 L33.75 85.95 35.15 85.2 Q35.85 84.85 36.25 85.2 L36.25 86.65 Q36.25 87.35 35.15 88.8 L33.75 91.3 31.6 98.45 30.5 98.45 28.0 97.7 Q28.7 95.2 28.7 93.05 28.7 92.0 29.1 91.65 29.1 90.2 29.45 89.15 30.5 86.3 32.3 85.95" fill="#725d48" fill-rule="evenodd" stroke="none"/>
    <path d="M38.0 82.35 L38.75 82.35 40.15 82.7 41.95 82.7 41.6 87.7 Q41.6 86.65 41.25 85.95 40.9 84.5 40.15 84.15 L38.75 89.5 Q38.75 84.5 38.0 82.35" fill="#433426" fill-rule="evenodd" stroke="none"/>
    <path d="M24.8 78.8 L24.8 79.15 28.7 80.55 30.5 80.95 30.85 80.95 Q29.45 82.35 27.65 87.35 L26.55 90.55 26.55 87.7 26.55 84.15 Q26.55 82.35 27.3 81.65 26.95 81.65 25.85 84.15 23.7 94.85 25.15 101.3 L23.0 101.3 23.0 101.2 Q22.3 95.1 23.35 87.35 L23.35 87.0 23.35 86.3 Q23.35 81.65 24.8 78.8" fill="#413325" fill-rule="evenodd" stroke="none"/>
    <path d="M53.05 81.3 Q54.45 80.55 56.25 80.2 60.55 78.4 63.4 77.0 64.1 76.65 64.85 76.65 65.9 76.65 67.0 78.4 67.35 79.8 67.05 82.2 L67.35 81.65 Q67.7 80.55 68.4 80.55 69.15 80.55 69.85 86.3 70.2 88.8 70.2 92.35 L70.2 97.35 68.4 94.85 68.05 94.85 67.7 98.05 67.7 99.85 62.7 100.2 62.0 97.35 Q62.0 95.2 61.25 95.95 60.55 97.35 60.55 100.55 60.2 100.55 59.85 100.95 L58.75 97.0 58.05 101.65 Q56.25 101.3 54.8 101.65 51.6 97.35 50.55 88.05 51.95 83.05 53.05 81.3" fill="#3f2e1e" fill-rule="evenodd" stroke="none"/>
    <path d="M51.25 81.65 L53.05 81.3 Q51.95 83.05 50.55 88.05 51.6 97.35 54.8 101.65 L53.05 101.65 Q51.25 99.15 49.8 91.3 48.75 94.85 46.95 98.45 45.55 101.65 44.8 102.0 L44.45 102.0 43.0 102.0 Q47.65 94.15 51.25 81.65 M64.85 76.65 Q65.55 75.9 67.0 75.55 67.7 74.85 68.75 74.5 70.2 73.4 71.65 72.7 L73.8 98.05 Q70.9 98.8 67.7 99.85 L67.7 98.05 68.05 94.85 68.4 94.85 70.2 97.35 70.2 92.35 Q70.2 88.8 69.85 86.3 69.15 80.55 68.4 80.55 67.7 80.55 67.35 81.65 L67.05 82.2 Q67.35 79.8 67.0 78.4 65.9 76.65 64.85 76.65" fill="#2e2115" fill-rule="evenodd" stroke="none"/>
    <path d="M45.9 82.35 L48.05 82.35 51.25 81.65 Q47.65 94.15 43.0 102.0 L41.25 102.0 41.6 101.3 Q41.95 99.85 41.25 96.65 42.3 98.8 43.0 99.5 42.65 98.8 44.1 94.15 45.55 89.5 45.9 87.0 L46.25 84.15 Q46.25 83.05 45.9 82.35" fill="#4a3928" fill-rule="evenodd" stroke="none"/>
    <path d="M53.05 101.65 L44.8 102.0 Q45.55 101.65 46.95 98.45 48.75 94.85 49.8 91.3 51.25 99.15 53.05 101.65" fill="#c8c8c8" fill-rule="evenodd" stroke="none"/>
  </g>
  <defs>
    <linearGradient gradientTransform="matrix(0.0038, 0.0252, -0.0208, 0.0031, 42.2, 22.2)" gradientUnits="userSpaceOnUse" id="gradient0" spreadMethod="pad" x1="-819.2" x2="819.2">
      <stop offset="0.0" stop-color="#9c9c9c"/>
      <stop offset="1.0" stop-color="#ffffff"/>
    </linearGradient>
  </defs>
</svg>
