<?xml version="1.0" encoding="UTF-8" standalone="no"?>
<svg xmlns:xlink="http://www.w3.org/1999/xlink" height="102.45px" width="90.4px" xmlns="http://www.w3.org/2000/svg">
  <g transform="matrix(1.0, 0.0, 0.0, 1.0, 6.4, -3.2)">
    <path d="M78.5 20.1 L78.5 22.25 Q79.2 26.9 78.85 31.55 78.5 38.7 75.65 44.75 75.25 45.5 75.25 46.2 74.55 48.7 73.5 50.5 72.75 51.55 72.75 52.65 L71.7 54.4 Q71.0 55.85 70.65 57.25 65.25 68.7 64.2 73.0 L66.7 73.0 66.7 74.8 67.05 75.85 67.05 77.65 67.05 79.8 67.05 81.95 66.35 84.45 68.1 101.95 68.5 102.65 20.9 101.55 20.2 101.55 9.5 101.55 9.5 97.3 11.25 86.95 11.25 86.2 11.6 85.5 10.9 85.5 Q9.1 85.5 8.4 84.05 7.35 82.65 7.35 80.5 L7.35 75.85 Q7.35 73.7 8.4 71.9 9.1 70.15 10.9 70.15 L12.7 70.15 9.85 63.0 8.75 63.0 Q3.4 62.3 3.4 54.05 L7.35 54.05 Q5.55 48.7 4.45 41.9 L4.1 40.5 -3.4 24.75 5.2 22.25 8.05 7.6 14.85 7.95 50.95 7.25 50.95 7.6 72.4 7.6 78.85 6.2 81.0 16.9 78.5 18.0 78.5 20.1" fill="#624a19" fill-rule="evenodd" stroke="none"/>
    <path d="M78.5 20.1 L78.5 22.25 Q79.2 26.9 78.85 31.55 78.5 38.7 75.65 44.75 75.25 45.5 75.25 46.2 74.55 48.7 73.5 50.5 72.75 51.55 72.75 52.65 L71.7 54.4 Q71.0 55.85 70.65 57.25 65.25 68.7 64.2 73.0 L66.7 73.0 66.7 74.8 67.05 75.85 67.05 77.65 67.05 79.8 67.05 81.95 66.35 84.45 68.1 101.95 68.5 102.65 20.9 101.55 20.2 101.55 9.5 101.55 9.5 97.3 11.25 86.95 11.25 86.2 11.6 85.5 10.9 85.5 Q9.1 85.5 8.4 84.05 7.35 82.65 7.35 80.5 L7.35 75.85 Q7.35 73.7 8.4 71.9 9.1 70.15 10.9 70.15 L12.7 70.15 9.85 63.0 8.75 63.0 Q3.4 62.3 3.4 54.05 L7.35 54.05 Q5.55 48.7 4.45 41.9 L4.1 40.5 -3.4 24.75 5.2 22.25 8.05 7.6 14.85 7.95 50.95 7.25 50.95 7.6 72.4 7.6 78.85 6.2 81.0 16.9 78.5 18.0 78.5 20.1 Z" fill="none" stroke="#2c190b" stroke-linecap="round" stroke-linejoin="round" stroke-width="6.0"/>
    <path d="M18.05 79.4 L19.85 79.4 Q18.8 81.55 18.8 82.3 L17.7 83.35 Q17.7 80.85 18.05 79.4 M20.9 79.4 L33.45 79.4 Q32.35 82.65 32.0 84.8 L30.2 89.8 Q30.2 90.5 29.5 91.2 L28.8 92.65 Q27.35 94.45 25.2 94.45 L24.5 94.45 Q22.7 94.05 22.35 93.35 L21.65 92.3 Q20.9 90.15 20.9 84.8 L20.9 80.15 20.9 79.4 M36.3 79.4 L42.0 79.4 Q42.4 82.65 42.4 88.35 42.4 90.15 42.75 93.35 42.75 94.45 43.1 95.5 42.4 95.15 42.0 95.15 L43.1 96.55 43.1 99.05 43.1 102.3 34.15 101.95 33.8 98.7 Q33.8 96.95 34.15 95.15 34.15 95.5 34.5 95.85 L36.3 96.95 36.65 95.85 36.3 93.7 36.3 91.55 36.3 89.05 Q36.65 87.65 37.0 87.3 L34.85 85.85 36.3 80.15 36.3 79.4 M45.25 79.4 L60.25 79.4 60.95 82.3 Q58.1 83.35 55.6 85.5 L53.45 88.35 52.75 87.3 Q52.4 87.3 52.05 86.55 51.3 84.8 51.3 83.7 51.3 82.65 51.65 82.3 50.95 81.55 50.25 81.55 L48.45 81.95 47.4 82.65 48.45 87.3 49.15 91.55 Q49.9 92.3 49.9 91.95 L49.9 92.3 49.55 92.3 49.15 91.95 49.15 91.55 Q48.8 91.95 48.45 91.95 47.4 92.3 47.4 93.0 47.4 94.45 46.65 94.8 L46.65 94.45 45.95 83.35 Q45.6 80.5 45.25 79.4 M68.1 101.95 L68.5 102.65 68.1 102.65 68.1 101.95 M59.55 102.65 L45.95 102.3 45.95 100.5 45.95 99.45 Q47.75 99.45 49.9 97.65 L50.6 96.95 53.1 94.45 Q54.55 94.45 55.95 96.55 57.05 97.65 58.1 99.45 58.45 99.05 59.2 95.5 L60.6 92.3 59.55 102.65 M30.6 101.95 L20.9 101.55 20.2 101.55 19.15 101.55 19.15 101.2 Q18.8 100.85 18.8 100.5 18.4 100.85 18.8 100.85 L15.2 101.2 12.35 100.85 11.6 100.85 11.6 100.5 Q11.6 100.85 12.35 100.15 12.0 99.8 12.0 98.7 12.0 98.0 12.7 96.95 13.05 96.2 14.15 94.8 L15.9 93.0 16.65 93.0 Q17.7 93.0 18.4 94.8 18.05 93.0 18.05 91.2 L18.4 91.95 19.85 95.85 Q21.3 99.45 22.35 99.45 L28.45 98.0 30.6 95.85 30.6 97.65 30.6 101.95" fill="#503d13" fill-rule="evenodd" stroke="none"/>
    <path d="M19.85 79.4 L20.9 79.4 20.9 80.15 20.9 84.8 Q20.9 90.15 21.65 92.3 L21.65 93.0 Q20.9 94.8 20.9 95.15 20.9 96.55 22.35 97.3 23.8 98.7 24.15 98.7 L24.5 98.7 Q26.65 98.35 27.7 95.5 L28.8 92.65 29.5 91.2 Q30.2 90.5 30.2 89.8 L32.0 84.8 31.3 88.35 Q30.6 93.0 30.6 95.85 L28.45 98.0 22.35 99.45 Q21.3 99.45 19.85 95.85 L18.4 91.95 18.05 91.2 Q17.35 90.5 16.25 90.15 L16.25 91.2 Q15.9 92.3 15.9 93.0 L14.15 94.8 Q13.05 96.2 12.7 96.95 12.7 95.15 13.05 93.0 14.15 86.2 15.9 79.4 L18.05 79.4 Q17.35 81.55 17.0 83.7 17.35 83.35 17.7 83.35 L18.8 82.3 Q18.8 81.55 19.85 79.4 M15.2 101.55 L12.0 101.55 12.0 101.2 Q12.0 100.85 12.35 100.85 L15.2 101.2 15.2 101.55" fill="#664f1d" fill-rule="evenodd" stroke="none"/>
    <path d="M60.25 79.4 L65.6 79.4 68.1 101.95 68.1 102.65 59.55 102.65 60.6 92.3 60.95 92.3 Q60.95 91.95 61.35 91.95 L62.4 93.0 62.05 87.3 Q61.7 84.05 61.7 81.95 61.35 81.95 60.95 82.3 L60.25 79.4 M19.15 101.55 L15.2 101.55 15.2 101.2 18.8 100.85 Q18.4 100.85 18.8 100.5 18.8 100.85 19.15 101.2 L19.15 101.55 M12.0 101.55 L9.5 101.55 9.5 97.3 11.25 86.95 11.25 86.2 12.35 79.4 15.9 79.4 Q14.15 86.2 13.05 93.0 12.7 95.15 12.7 96.95 12.0 98.0 12.0 98.7 12.0 99.8 12.35 100.15 11.6 100.85 11.6 100.5 L11.6 100.85 12.35 100.85 Q12.0 100.85 12.0 101.2 L12.0 101.55 M18.05 79.4 Q17.7 80.85 17.7 83.35 17.35 83.35 17.0 83.7 17.35 81.55 18.05 79.4 M15.9 93.0 Q15.9 92.3 16.25 91.2 L16.25 90.15 Q17.35 90.5 18.05 91.2 18.05 93.0 18.4 94.8 17.7 93.0 16.65 93.0 L15.9 93.0 M66.0 89.05 L65.25 88.0 Q64.9 87.65 64.9 87.35 L64.9 87.65 Q65.25 91.2 65.25 94.8 L66.0 91.2 66.0 89.05" fill="#41310f" fill-rule="evenodd" stroke="none"/>
    <path d="M33.45 79.4 L36.3 79.4 36.3 80.15 34.85 85.85 Q34.5 88.0 34.5 90.15 34.15 90.5 34.15 91.2 L34.15 95.15 Q33.8 96.95 33.8 98.7 L34.15 101.95 30.6 101.95 30.6 97.65 30.6 95.85 Q30.6 93.0 31.3 88.35 L32.0 84.8 Q32.35 82.65 33.45 79.4 M42.0 79.4 L45.25 79.4 Q45.6 80.5 45.95 83.35 L46.65 94.45 46.65 94.8 45.95 99.45 45.95 100.5 45.95 102.3 43.1 102.3 43.1 99.05 43.1 96.55 43.1 95.5 Q42.75 94.45 42.75 93.35 42.4 90.15 42.4 88.35 42.4 82.65 42.0 79.4" fill="#e2bc46" fill-rule="evenodd" stroke="none"/>
    <path d="M28.8 92.65 L27.7 95.5 Q26.65 98.35 24.5 98.7 L24.15 98.7 Q23.8 98.7 22.35 97.3 20.9 96.55 20.9 95.15 20.9 94.8 21.65 93.0 L21.65 92.3 22.35 93.35 Q22.7 94.05 24.5 94.45 L25.2 94.45 Q27.35 94.45 28.8 92.65" fill="#856b32" fill-rule="evenodd" stroke="none"/>
    <path d="M34.85 85.85 L37.0 87.3 Q36.65 87.65 36.3 89.05 L36.3 91.55 36.3 93.7 36.65 95.85 36.3 96.95 34.5 95.85 Q34.15 95.5 34.15 95.15 L34.15 91.2 Q34.15 90.5 34.5 90.15 34.5 88.0 34.85 85.85" fill="#7e642c" fill-rule="evenodd" stroke="none"/>
    <path d="M49.9 92.3 L49.9 91.95 Q49.9 92.3 49.15 91.55 L48.45 87.3 47.4 82.65 48.45 81.95 50.25 81.55 Q50.95 81.55 51.65 82.3 51.3 82.65 51.3 83.7 51.3 84.8 52.05 86.55 52.4 87.3 52.75 87.3 L53.45 88.35 54.55 89.05 Q55.6 90.85 57.05 90.85 58.1 89.45 59.2 89.45 59.9 89.45 60.25 90.15 L60.95 91.55 60.95 92.3 60.6 92.3 59.2 95.5 Q58.45 99.05 58.1 99.45 57.05 97.65 55.95 96.55 54.55 94.45 53.1 94.45 L50.6 96.95 49.9 97.65 Q49.9 96.95 50.25 96.2 50.95 94.45 50.95 93.7 50.95 92.65 49.9 92.3" fill="#796028" fill-rule="evenodd" stroke="none"/>
    <path d="M49.9 92.3 Q50.95 92.65 50.95 93.7 50.95 94.45 50.25 96.2 49.9 96.95 49.9 97.65 47.75 99.45 45.95 99.45 L46.65 94.8 Q47.4 94.45 47.4 93.0 47.4 92.3 48.45 91.95 48.8 91.95 49.15 91.55 L49.15 91.95 49.55 92.3 49.9 92.3 M43.1 95.5 L43.1 96.55 42.0 95.15 Q42.4 95.15 43.1 95.5" fill="#9c7e39" fill-rule="evenodd" stroke="none"/>
    <path d="M60.95 92.3 L60.95 91.55 60.25 90.15 Q59.9 89.45 59.2 89.45 58.1 89.45 57.05 90.85 55.6 90.85 54.55 89.05 L53.45 88.35 55.6 85.5 Q58.1 83.35 60.95 82.3 61.35 81.95 61.7 81.95 61.7 84.05 62.05 87.3 L62.4 93.0 61.35 91.95 Q60.95 91.95 60.95 92.3" fill="#69521f" fill-rule="evenodd" stroke="none"/>
    <path d="M66.0 89.05 L66.0 91.2 65.25 94.8 Q65.25 91.2 64.9 87.65 L64.9 87.35 Q64.9 87.65 65.25 88.0 L66.0 89.05" fill="#66501e" fill-rule="evenodd" stroke="none"/>
    <path d="M24.85 70.5 L13.75 70.5" fill="none" stroke="#444532" stroke-linecap="round" stroke-linejoin="round" stroke-width="1.0"/>
    <path d="M20.6 35.9 L20.5 36.05 Q20.35 36.5 20.35 38.8 20.35 42.5 22.3 44.15 24.95 46.35 26.0 49.3 L26.6 51.9 Q27.1 53.55 28.35 54.05 L31.75 55.15 32.75 55.45 Q32.2 63.65 32.35 71.05 30.35 71.75 29.35 73.3 28.35 74.75 27.2 79.75 L21.6 78.9 Q13.7 77.45 13.9 76.55 14.05 75.65 8.35 60.55 5.85 52.85 3.7 41.7 L5.4 41.05 Q10.6 39.4 10.6 36.0 10.6 34.0 8.2 31.4 5.85 28.8 5.85 26.65 5.85 24.5 7.7 24.1 L10.9 23.25 Q12.05 22.3 13.05 20.55 L13.7 19.1 13.85 20.3 Q14.5 25.4 17.85 32.6 L20.5 35.85 20.6 35.9 M7.6 54.8 Q7.6 55.95 10.75 56.8 13.85 57.55 13.85 60.55 13.85 61.6 12.8 64.25 11.75 66.9 11.75 68.1 11.75 70.25 14.45 71.2 16.15 71.8 18.15 71.8 21.45 71.8 22.8 70.4 24.15 68.9 23.6 65.6 23.2 62.95 24.5 60.8 26.0 58.4 26.0 56.55 26.0 53.55 21.9 51.9 17.7 50.3 17.4 48.15 L16.15 48.35 14.15 48.15 Q11.7 48.15 9.7 50.2 7.6 52.25 7.6 54.8 M37.55 43.7 L39.1 43.85 39.6 43.85 43.9 43.85 Q44.45 61.3 43.1 74.75 L43.05 74.75 Q41.2 74.75 39.2 72.7 37.55 71.0 36.15 70.7 36.05 63.65 36.6 55.45 L37.55 43.7 M47.4 43.45 L48.5 43.15 49.6 42.8 50.2 43.9 52.35 48.45 Q53.9 53.75 56.35 53.75 57.85 53.75 59.2 52.0 60.35 50.4 60.35 49.3 60.35 48.85 59.45 47.3 L58.6 45.9 Q58.6 44.3 64.2 42.65 69.85 41.05 69.85 36.9 69.85 35.5 66.2 31.65 L64.9 30.35 65.2 29.95 65.25 29.7 Q67.6 25.65 69.4 21.25 L69.7 20.6 71.55 15.2 72.6 11.6 73.6 7.45 76.3 7.45 77.85 20.25 78.05 22.25 Q76.8 23.7 75.4 26.15 72.8 30.8 72.8 32.9 L73.4 36.75 Q73.4 38.2 72.05 40.9 70.75 43.55 70.75 45.0 70.75 46.5 72.8 50.5 L71.9 52.5 71.05 54.5 69.85 57.1 69.85 56.4 68.75 54.1 Q67.75 52.55 66.9 52.25 L62.9 57.3 Q60.5 60.25 58.6 60.25 57.85 60.25 56.35 59.4 54.9 58.5 54.0 58.5 L51.75 58.8 Q50.0 59.3 50.0 60.25 50.0 61.3 51.6 63.15 L53.05 64.5 Q53.2 64.55 53.35 64.7 L53.7 65.15 55.05 66.5 Q56.2 67.5 56.2 68.7 L55.75 70.35 55.35 72.25 Q55.35 74.2 58.15 74.2 L62.0 73.45 63.45 73.05 63.25 74.1 Q62.6 78.0 59.4 79.3 57.55 79.95 52.45 80.25 L47.4 80.4 46.2 80.45 47.1 73.9 Q48.3 61.45 47.4 43.45" fill="#503d13" fill-rule="evenodd" stroke="none"/>
    <path d="M32.35 71.05 Q32.2 63.65 32.75 55.45 33.05 49.55 33.75 43.25 L35.35 43.45 35.75 43.55 36.65 43.6 37.55 43.7 36.6 55.45 Q36.05 63.65 36.15 70.7 36.15 75.8 36.5 80.3 L35.75 80.3 34.9 80.25 32.8 80.15 Q32.45 75.8 32.35 71.05 M43.1 74.75 Q44.45 61.3 43.9 43.85 L44.9 43.85 45.55 43.85 47.4 43.45 Q48.3 61.45 47.1 73.9 L46.2 80.45 42.9 80.45 42.45 80.45 43.1 74.75" fill="#e2bc46" fill-rule="evenodd" stroke="none"/>
    <path d="M32.75 55.45 L31.75 55.15 28.35 54.05 Q27.1 53.55 26.6 51.9 L26.0 49.3 Q24.95 46.35 22.3 44.15 20.35 42.5 20.35 38.8 20.35 36.5 20.5 36.05 L20.6 35.9 Q25.85 41.9 33.75 43.25 33.05 49.55 32.75 55.45 M13.7 19.1 L13.05 20.55 Q12.05 22.3 10.9 23.25 L7.7 24.1 Q5.85 24.5 5.85 26.65 5.85 28.8 8.2 31.4 10.6 34.0 10.6 36.0 10.6 39.4 5.4 41.05 L3.7 41.7 2.15 32.9 7.25 7.5 14.15 7.9 Q13.35 14.85 13.7 19.1 M27.2 79.75 Q28.35 74.75 29.35 73.3 30.35 71.75 32.35 71.05 32.45 75.8 32.8 80.15 L27.2 79.75 M36.15 70.7 Q37.55 71.0 39.2 72.7 41.2 74.75 43.05 74.75 L43.1 74.75 42.45 80.45 38.6 80.4 36.5 80.3 Q36.15 75.8 36.15 70.7 M49.6 42.8 Q55.85 40.65 60.6 35.85 L63.45 32.6 64.9 30.35 66.2 31.65 Q69.85 35.5 69.85 36.9 69.85 41.05 64.2 42.65 58.6 44.3 58.6 45.9 L59.45 47.3 Q60.35 48.85 60.35 49.3 60.35 50.4 59.2 52.0 57.85 53.75 56.35 53.75 53.9 53.75 52.35 48.45 L50.2 43.9 49.6 42.8" fill="#7b622c" fill-rule="evenodd" stroke="none"/>
    <path d="M78.05 22.25 Q78.5 26.8 78.2 31.5 77.75 38.5 74.95 44.95 L74.65 45.9 72.8 50.5 Q70.75 46.5 70.75 45.0 70.75 43.55 72.05 40.9 73.4 38.2 73.4 36.75 L72.8 32.9 Q72.8 30.8 75.4 26.15 76.8 23.7 78.05 22.25 M69.85 57.1 Q64.5 69.0 63.45 73.05 L62.0 73.45 58.15 74.2 Q55.35 74.2 55.35 72.25 L55.75 70.35 56.2 68.7 Q56.2 67.5 55.05 66.5 L53.7 65.15 53.35 64.7 Q53.2 64.55 53.05 64.5 L51.6 63.15 Q50.0 61.3 50.0 60.25 50.0 59.3 51.75 58.8 L54.0 58.5 Q54.9 58.5 56.35 59.4 57.85 60.25 58.6 60.25 60.5 60.25 62.9 57.3 L66.9 52.25 Q67.75 52.55 68.75 54.1 L69.85 56.4 69.85 57.1" fill="#69521e" fill-rule="evenodd" stroke="none"/>
    <path d="M7.6 54.8 Q7.6 52.25 9.7 50.2 11.7 48.15 14.15 48.15 L16.15 48.35 17.4 48.15 Q17.7 50.3 21.9 51.9 26.0 53.55 26.0 56.55 26.0 58.4 24.5 60.8 23.2 62.95 23.6 65.6 24.15 68.9 22.8 70.4 21.45 71.8 18.15 71.8 16.15 71.8 14.45 71.2 11.75 70.25 11.75 68.1 11.75 66.9 12.8 64.25 13.85 61.6 13.85 60.55 13.85 57.55 10.75 56.8 7.6 55.95 7.6 54.8" fill="#624b18" fill-rule="evenodd" stroke="none"/>
    <path d="M20.6 35.9 L20.5 35.85 17.85 32.6 Q14.5 25.4 13.85 20.3 L13.7 19.1 Q13.35 14.85 14.15 7.9 L50.3 7.15 50.3 7.45 73.6 7.45 72.6 11.6 71.55 15.2 69.7 20.6 69.4 21.25 Q67.6 25.65 65.25 29.7 L65.2 29.95 64.9 30.35 63.45 32.6 60.6 35.85 Q55.85 40.65 49.6 42.8 L48.5 43.15 47.4 43.45 45.55 43.85 44.9 43.85 43.9 43.85 39.6 43.85 39.1 43.85 37.55 43.7 36.65 43.6 35.75 43.55 35.35 43.45 33.75 43.25 Q25.85 41.9 20.6 35.9" fill="url(#gradient0)" fill-rule="evenodd" stroke="none"/>
    <path d="M20.6 35.9 L20.5 35.85 17.85 32.6 Q14.5 25.4 13.85 20.3 L13.7 19.1 M33.75 43.25 Q25.85 41.9 20.6 35.9 M37.55 43.7 L36.65 43.6 35.75 43.55 35.35 43.45 33.75 43.25 M43.9 43.85 L39.6 43.85 39.1 43.85 37.55 43.7 M43.9 43.85 L44.9 43.85 45.55 43.85 47.4 43.45 48.5 43.15 49.6 42.8 Q55.85 40.65 60.6 35.85 L63.45 32.6 64.9 30.35 65.2 29.95 65.25 29.7 Q67.6 25.65 69.4 21.25 L69.7 20.6 71.55 15.2 72.6 11.6 73.6 7.45 M14.15 7.9 Q13.35 14.85 13.7 19.1" fill="none" stroke="#2c190b" stroke-linecap="round" stroke-linejoin="round" stroke-width="1.0"/>
    <path d="M-0.2 23.7 L14.85 38.7 73.85 16.9 74.55 6.9 78.85 6.2 81.0 16.9 6.6 45.5 -3.4 24.75 -0.2 23.7" fill="#ffe9a8" fill-rule="evenodd" stroke="none"/>
    <path d="M74.55 6.9 L73.85 16.9 14.85 38.7 -0.2 23.7 74.55 6.9" fill="#e2bc46" fill-rule="evenodd" stroke="none"/>
    <path d="M12.0 75.85 Q11.6 74.4 12.35 73.0 L18.8 73.0 19.15 75.85 12.0 75.85 M22.7 73.0 L54.9 73.0 54.9 75.85 22.7 75.85 22.7 73.0 M58.85 73.0 L66.7 73.0 66.7 75.85 58.85 75.85 58.85 73.0" fill="#686d4c" fill-rule="evenodd" stroke="none"/>
    <path d="M18.8 73.0 L22.7 73.0 22.7 75.85 19.15 75.85 18.8 73.0 M54.9 73.0 L58.85 73.0 58.85 75.85 54.9 75.85 54.9 73.0 M57.75 84.45 L53.8 84.45 54.2 82.3 58.1 82.3 57.75 84.45 M23.45 84.45 L19.5 84.45 19.5 82.3 23.05 82.3 23.45 84.45" fill="#bbb367" fill-rule="evenodd" stroke="none"/>
    <path d="M66.7 81.95 L66.35 84.45 57.75 84.45 58.1 82.3 66.7 81.95 M53.8 84.45 L23.45 84.45 23.05 82.3 54.2 82.3 53.8 84.45 M19.5 84.45 L13.05 84.45 12.35 82.3 19.5 82.3 19.5 84.45" fill="#6f7748" fill-rule="evenodd" stroke="none"/>
    <path d="M66.7 75.85 L67.05 77.65 67.05 79.8 66.7 81.95 58.1 82.3 58.85 75.85 66.7 75.85 M12.35 82.3 L11.6 80.15 12.0 75.85 19.15 75.85 19.5 82.3 12.35 82.3 M23.05 82.3 L22.7 75.85 54.9 75.85 54.2 82.3 23.05 82.3" fill="#242716" fill-rule="evenodd" stroke="none"/>
    <path d="M19.5 82.3 L19.15 75.85 22.7 75.85 23.05 82.3 19.5 82.3 M54.2 82.3 L54.9 75.85 58.85 75.85 58.1 82.3 54.2 82.3" fill="#9a8735" fill-rule="evenodd" stroke="none"/>
    <path d="M18.85 71.6 Q19.9 71.6 20.7 72.85 21.5 74.2 21.5 75.95 L21.5 79.65 Q21.5 81.45 20.7 82.65 19.9 83.95 18.85 83.95 L10.8 83.95 Q9.7 83.95 8.9 82.65 8.15 81.45 8.15 79.65 L8.15 75.95 Q8.15 74.2 8.9 72.85 9.7 71.6 10.8 71.6 L18.85 71.6 M19.1 76.65 Q19.1 75.45 18.6 74.65 18.1 73.85 17.4 73.85 L12.3 73.85 Q11.55 73.85 11.05 74.65 10.6 75.45 10.6 76.65 L10.6 78.95 Q10.6 80.1 11.05 80.85 11.55 81.65 12.3 81.65 L17.4 81.65 Q18.1 81.65 18.6 80.85 19.1 80.1 19.1 78.95 L19.1 76.65" fill="#d7b652" fill-rule="evenodd" stroke="none"/>
    <path d="M22.2 71.6 Q23.2 73.25 23.2 75.45 L23.2 80.1 Q23.2 82.35 22.2 83.9 21.25 85.5 19.85 85.5 L9.8 85.5 Q8.45 85.5 7.45 83.9 6.45 82.35 6.45 80.1 L6.45 75.45 Q6.45 73.25 7.45 71.6 8.45 70.05 9.8 70.05 L19.85 70.05 Q21.25 70.05 22.2 71.6 M18.85 71.6 L10.8 71.6 Q9.7 71.6 8.9 72.85 8.15 74.2 8.15 75.95 L8.15 79.65 Q8.15 81.45 8.9 82.65 9.7 83.95 10.8 83.95 L18.85 83.95 Q19.9 83.95 20.7 82.65 21.5 81.45 21.5 79.65 L21.5 75.95 Q21.5 74.2 20.7 72.85 19.9 71.6 18.85 71.6" fill="#8e5a1a" fill-rule="evenodd" stroke="none"/>
    <path d="M19.1 76.65 L19.1 78.95 Q19.1 80.1 18.6 80.85 18.1 81.65 17.4 81.65 L12.3 81.65 Q11.55 81.65 11.05 80.85 10.6 80.1 10.6 78.95 L10.6 76.65 Q10.6 75.45 11.05 74.65 11.55 73.85 12.3 73.85 L17.4 73.85 Q18.1 73.85 18.6 74.65 19.1 75.45 19.1 76.65" fill="#663d0a" fill-rule="evenodd" stroke="none"/>
    <path d="M15.55 59.4 Q15.55 58.35 14.85 57.25 14.15 56.55 13.05 56.55 12.0 56.55 11.25 57.25 10.55 58.35 10.55 59.4 10.55 60.5 11.25 61.55 12.0 62.3 13.05 62.3 14.15 62.3 14.85 61.55 15.55 60.5 15.55 59.4 M8.75 63.0 Q3.4 62.3 3.4 54.05 L23.8 54.05 Q23.8 61.2 19.15 63.0 L8.75 63.0" fill="#e2bc46" fill-rule="evenodd" stroke="none"/>
    <path d="M15.55 59.4 Q15.55 60.5 14.85 61.55 14.15 62.3 13.05 62.3 12.0 62.3 11.25 61.55 10.55 60.5 10.55 59.4 10.55 58.35 11.25 57.25 12.0 56.55 13.05 56.55 14.15 56.55 14.85 57.25 15.55 58.35 15.55 59.4" fill="#3c2c07" fill-rule="evenodd" stroke="none"/>
  </g>
  <defs>
    <linearGradient gradientTransform="matrix(0.0038, 0.0252, -0.0208, 0.0031, 42.3, 23.85)" gradientUnits="userSpaceOnUse" id="gradient0" spreadMethod="pad" x1="-819.2" x2="819.2">
      <stop offset="0.0" stop-color="#9c9c9c"/>
      <stop offset="1.0" stop-color="#ffffff"/>
    </linearGradient>
  </defs>
</svg>
