<?xml version="1.0" encoding="UTF-8" standalone="no"?>
<svg xmlns:xlink="http://www.w3.org/1999/xlink" height="101.75px" width="81.9px" xmlns="http://www.w3.org/2000/svg">
  <g transform="matrix(1.0, 0.0, 0.0, 1.0, 1.8, -4.45)">
    <path d="M73.8 45.35 L73.45 46.05 Q71.65 50.35 66.65 61.05 L60.95 73.55 60.95 73.9 63.05 73.9 Q64.5 73.9 65.2 75.0 66.3 75.7 66.3 76.75 66.3 77.85 65.2 78.9 64.5 79.65 63.05 79.65 L62.7 79.65 68.45 103.2 39.85 102.15 Q39.45 102.5 38.75 102.5 38.4 102.5 38.05 102.15 L33.75 102.15 Q33.75 102.5 33.05 102.5 32.3 102.5 31.95 102.15 L19.8 101.8 18.75 102.15 17.65 101.8 8.7 101.45 10.85 81.4 8.0 81.4 7.65 71.05 10.85 71.4 Q9.8 67.5 6.95 61.05 5.15 55.0 3.35 46.75 L3.0 44.25 Q1.9 39.25 1.2 33.2 L6.2 7.8 20.5 7.45 37.7 7.45 74.85 7.45 76.65 20.7 Q77.35 26.4 77.0 31.75 76.3 38.9 73.8 45.35" fill="#6b3600" fill-rule="evenodd" stroke="none"/>
    <path d="M73.8 45.35 L73.45 46.05 Q71.65 50.35 66.65 61.05 L60.95 73.55 60.95 73.9 63.05 73.9 Q64.5 73.9 65.2 75.0 66.3 75.7 66.3 76.75 66.3 77.85 65.2 78.9 64.5 79.65 63.05 79.65 L62.7 79.65 68.45 103.2 39.85 102.15 Q39.45 102.5 38.75 102.5 38.4 102.5 38.05 102.15 L33.75 102.15 Q33.75 102.5 33.05 102.5 32.3 102.5 31.95 102.15 L19.8 101.8 18.75 102.15 17.65 101.8 8.7 101.45 10.85 81.4 8.0 81.4 7.65 71.05 10.85 71.4 Q9.8 67.5 6.95 61.05 5.15 55.0 3.35 46.75 L3.0 44.25 Q1.9 39.25 1.2 33.2 L6.2 7.8 20.5 7.45 37.7 7.45 74.85 7.45 76.65 20.7 Q77.35 26.4 77.0 31.75 76.3 38.9 73.8 45.35 Z" fill="none" stroke="#2c190b" stroke-linecap="round" stroke-linejoin="round" stroke-width="6.0"/>
    <path d="M61.65 70.35 L11.95 70.7" fill="none" stroke="#444532" stroke-linecap="round" stroke-linejoin="round" stroke-width="1.0"/>
    <path d="M44.55 7.0 Q58.4 8.7 64.25 25.4 L62.5 28.6 62.4 28.8 62.1 29.25 60.7 31.5 57.8 34.75 Q53.05 39.55 46.85 41.7 L45.75 42.05 44.65 42.35 42.75 42.75 42.1 42.75 41.15 42.75 36.85 42.75 36.35 42.75 34.75 42.6 33.9 42.5 33.0 42.45 32.55 42.35 31.0 42.15 Q23.05 40.8 17.8 34.8 L17.75 34.75 17.05 34.0 15.05 31.5 13.95 28.95 Q14.5 8.85 34.05 7.45 32.75 6.5 37.5 7.05 L44.55 7.0" fill="url(#gradient0)" fill-rule="evenodd" stroke="none"/>
    <path d="M3.95 15.8 Q3.05 27.55 9.65 36.8 17.3 47.55 28.75 50.15 41.75 52.8 53.2 47.9 64.65 41.75 69.15 32.6 74.55 23.25 75.6 13.95 L76.25 19.85 Q77.0 25.5 76.65 31.1 76.2 38.15 73.35 44.6 L73.05 45.55 Q71.35 49.85 66.5 60.1 61.5 70.35 60.65 72.85 59.65 75.35 56.25 77.65 52.85 79.95 40.4 80.05 27.9 80.05 20.05 78.55 12.1 77.05 12.35 76.2 12.5 75.3 6.8 60.2 3.3 49.6 0.55 32.5 L3.95 15.8" fill="#f99706" fill-rule="evenodd" stroke="none"/>
    <path d="M64.25 25.4 L66.65 20.15 66.9 19.5 67.65 17.6 68.75 14.1 69.45 12.05 69.8 10.45 71.05 6.65 74.65 6.65 74.85 8.05 73.0 17.75 Q71.65 23.85 68.5 30.15 65.2 36.45 58.25 42.15 51.5 47.6 43.8 48.35 34.4 49.85 27.45 47.7 19.65 45.35 13.0 38.15 3.95 28.55 5.65 7.15 L11.3 7.45 10.9 12.05 Q10.7 15.5 10.9 18.0 L11.05 19.2 Q11.45 21.8 13.95 28.95 L15.05 31.5 17.05 34.0 17.75 34.75 17.8 34.8 Q23.05 40.8 31.0 42.15 L32.55 42.35 33.0 42.45 33.9 42.5 34.75 42.6 36.35 42.75 36.85 42.75 41.15 42.75 42.1 42.75 42.75 42.75 44.65 42.35 45.75 42.05 46.85 41.7 Q53.05 39.55 57.8 34.75 L60.7 31.5 62.1 29.25 62.4 28.8 62.5 28.6 64.25 25.4" fill="#773c00" fill-rule="evenodd" stroke="none"/>
    <path d="M5.65 7.15 Q3.95 28.55 13.0 38.15 19.65 45.35 27.45 47.7 34.4 49.85 43.8 48.35 51.5 47.6 58.25 42.15 65.2 36.45 68.5 30.15 71.65 23.85 73.0 17.75 L74.85 8.05 75.6 13.95 Q74.55 23.25 69.15 32.6 64.65 41.75 53.2 47.9 41.75 52.8 28.75 50.15 17.3 47.55 9.65 36.8 3.05 27.55 3.95 15.8 L5.65 7.15" fill="#fcc87a" fill-rule="evenodd" stroke="none"/>
    <path d="M71.05 6.65 L69.8 10.45 69.45 12.05 68.75 14.1 67.65 17.6 66.9 19.5 66.65 20.15 64.25 25.4 Q58.4 8.7 44.55 7.0 L71.05 6.65 M13.95 28.95 Q11.45 21.8 11.05 19.2 L10.9 18.0 Q10.7 15.5 10.9 12.05 L11.3 7.45 34.05 7.45 Q14.5 8.85 13.95 28.95" fill="#a6a0a0" fill-rule="evenodd" stroke="none"/>
    <path d="M31.95 80.0 Q31.6 79.3 31.6 78.55 33.75 65.0 32.3 51.4 L35.9 51.4 Q36.95 65.35 35.2 78.55 35.2 79.65 34.45 80.0 L33.4 80.35 31.95 80.0" fill="#7c4b03" fill-rule="evenodd" stroke="none"/>
    <path d="M40.2 80.35 L39.1 80.0 Q38.4 79.3 38.4 78.55 41.25 65.0 39.45 51.4 L43.05 51.4 Q44.85 63.9 42.35 78.55 42.35 79.65 41.6 80.0 41.25 80.35 40.2 80.35" fill="#7c4b03" fill-rule="evenodd" stroke="none"/>
    <path d="M11.2 79.3 Q10.5 79.3 9.8 78.55 8.7 77.5 8.7 76.4 8.7 75.35 9.8 74.65 10.5 73.55 11.6 73.55 L63.05 73.55 Q64.5 73.55 65.2 74.65 66.3 75.35 66.3 76.4 66.3 77.5 65.2 78.55 64.5 79.3 63.05 79.3 L62.7 79.3 11.2 79.3" fill="#773c00" fill-rule="evenodd" stroke="none"/>
    <path d="M62.7 79.3 L68.45 102.85 19.8 101.45 18.35 101.8 17.65 101.45 8.7 101.1 11.2 79.3 62.7 79.3" fill="#f99706" fill-rule="evenodd" stroke="none"/>
    <path d="M31.95 79.3 L35.2 79.3 34.1 100.7 Q34.1 101.45 33.75 101.8 33.75 102.15 33.05 102.15 32.3 102.15 31.95 101.45 31.6 101.45 31.6 100.7 L31.95 79.3" fill="#7c4b03" fill-rule="evenodd" stroke="none"/>
    <path d="M38.05 79.3 L40.9 79.3 40.2 100.7 Q40.2 101.45 39.85 101.8 39.45 102.15 38.75 102.15 38.05 102.15 37.7 101.45 L38.05 79.3" fill="#7c4b03" fill-rule="evenodd" stroke="none"/>
    <path d="M18.75 81.05 L8.0 81.05 7.65 70.7 19.1 71.05 18.75 81.05 M17.65 74.3 L9.1 74.3 9.1 78.2 17.3 78.2 17.65 74.3" fill="#fdd69b" fill-rule="evenodd" stroke="none"/>
    <path d="M17.65 74.3 L17.3 78.2 9.1 78.2 9.1 74.3 17.65 74.3" fill="#e38902" fill-rule="evenodd" stroke="none"/>
    <path d="M8.35 43.9 Q12.65 43.55 15.15 48.2 15.85 50.35 15.15 52.5 14.8 55.0 12.65 56.8 14.1 57.15 15.15 60.0 15.5 61.05 15.15 62.85 L15.15 63.2 Q15.15 66.05 12.65 67.5 L12.3 67.85 10.5 68.9 9.1 65.7 Q10.85 65.0 11.95 63.2 12.65 58.2 8.0 58.55 L8.0 54.25 10.5 54.25 Q12.3 52.5 10.5 49.65 L9.8 48.9 Q7.3 46.75 5.15 49.65 L5.15 51.4 4.8 51.75 3.0 43.9 4.8 43.9 4.8 46.05 Q6.2 44.25 8.35 43.9" fill="#773c00" fill-rule="evenodd" stroke="none"/>
  </g>
  <defs>
    <linearGradient gradientTransform="matrix(0.0038, 0.0252, -0.0208, 0.0031, 40.7, 23.5)" gradientUnits="userSpaceOnUse" id="gradient0" spreadMethod="pad" x1="-819.2" x2="819.2">
      <stop offset="0.0" stop-color="#9c9c9c"/>
      <stop offset="1.0" stop-color="#ffffff"/>
    </linearGradient>
  </defs>
</svg>
