<?xml version="1.0" encoding="UTF-8" standalone="no"?>
<svg xmlns:xlink="http://www.w3.org/1999/xlink" height="103.55px" width="87.3px" xmlns="http://www.w3.org/2000/svg">
  <g transform="matrix(1.0, 0.0, 0.0, 1.0, 4.45, -2.7)">
    <path d="M76.15 46.05 Q74.35 50.7 73.65 52.85 70.05 60.35 62.9 69.65 62.2 71.1 62.55 72.15 62.9 73.6 62.55 74.3 L62.9 74.3 69.7 103.25 20.7 102.15 18.2 101.8 10.35 101.8 13.55 70.35 10.0 60.7 Q9.65 60.35 9.65 60.0 L-1.45 65.0 3.9 53.2 -1.45 42.5 2.5 31.05 2.1 24.65 5.35 25.0 8.55 7.85 26.8 7.5 27.85 5.7 39.65 6.05 39.3 7.5 77.95 7.15 79.35 20.35 Q80.1 26.05 79.7 31.4 79.35 38.95 76.5 45.0 76.15 45.7 76.15 46.05" fill="#b88a47" fill-rule="evenodd" stroke="none"/>
    <path d="M76.15 46.05 Q74.35 50.7 73.65 52.85 70.05 60.35 62.9 69.65 62.2 71.1 62.55 72.15 62.9 73.6 62.55 74.3 L62.9 74.3 69.7 103.25 20.7 102.15 18.2 101.8 10.35 101.8 13.55 70.35 10.0 60.7 Q9.65 60.35 9.65 60.0 L-1.45 65.0 3.9 53.2 -1.45 42.5 2.5 31.05 2.1 24.65 5.35 25.0 8.55 7.85 26.8 7.5 27.85 5.7 39.65 6.05 39.3 7.5 77.95 7.15 79.35 20.35 Q80.1 26.05 79.7 31.4 79.35 38.95 76.5 45.0 76.15 45.7 76.15 46.05 Z" fill="none" stroke="#2a1b10" stroke-linecap="round" stroke-linejoin="round" stroke-width="6.0"/>
    <path d="M73.35 7.3 L73.35 7.65 Q73.05 15.7 73.8 22.45 74.45 29.1 71.35 38.35 68.25 47.55 62.1 54.8 55.9 62.05 55.9 68.7 L56.7 74.6 55.65 74.6 14.1 74.45 15.3 69.6 Q8.75 53.45 6.55 38.35 L4.25 41.45 2.75 33.15 5.35 20.5 Q4.7 28.0 10.2 31.05 12.85 32.5 17.6 32.15 L24.75 7.65 73.35 7.3" fill="#51553c" fill-rule="evenodd" stroke="none"/>
    <path d="M5.35 20.5 L7.9 7.8 24.75 7.65 17.6 32.15 Q12.85 32.5 10.2 31.05 4.7 28.0 5.35 20.5" fill="url(#gradient0)" fill-rule="evenodd" stroke="none"/>
    <path d="M14.1 74.45 L12.5 74.45 12.55 70.55 9.0 60.85 Q6.4 52.95 4.25 41.45 L6.55 38.35 Q8.75 53.45 15.3 69.6 L14.1 74.45" fill="#9d4a16" fill-rule="evenodd" stroke="none"/>
    <path d="M73.35 7.3 L76.85 7.3 78.45 20.5 Q79.2 26.15 78.85 31.75 78.4 38.8 75.6 45.25 L75.3 46.2 72.55 52.8 Q69.05 60.4 62.1 69.75 61.2 71.0 61.75 72.3 62.35 73.65 61.6 74.6 L56.7 74.6 55.9 68.7 Q55.9 62.05 62.1 54.8 68.25 47.55 71.35 38.35 74.45 29.1 73.8 22.45 73.05 15.7 73.35 7.65 L73.35 7.3" fill="#444532" fill-rule="evenodd" stroke="none"/>
    <path d="M12.55 25.6 L13.25 25.6 12.55 32.05 Q12.2 32.05 11.85 32.4 L10.05 33.1 9.3 33.1 9.3 32.75 5.75 32.4 5.4 32.75 Q5.05 32.75 4.7 32.4 3.95 32.4 2.9 31.65 2.55 31.65 2.15 31.3 L2.15 24.9 3.6 24.9 3.95 25.6 3.6 26.3 Q3.25 28.45 6.1 29.15 4.3 29.15 4.3 29.9 4.3 31.65 6.8 31.65 8.95 32.05 10.75 31.65 L11.1 31.65 11.85 31.3 Q12.55 30.95 12.2 30.25 L10.75 29.15 Q12.55 28.8 12.55 27.05 L12.55 25.6" fill="#986314" fill-rule="evenodd" stroke="none"/>
    <path d="M12.55 25.6 L12.55 27.05 Q12.55 28.8 10.75 29.15 L12.2 30.25 Q12.55 30.95 11.85 31.3 L11.1 31.65 10.75 31.65 Q8.95 32.05 6.8 31.65 4.3 31.65 4.3 29.9 4.3 29.15 6.1 29.15 3.25 28.45 3.6 26.3 L3.95 25.6 3.6 24.9 12.55 25.6" fill="#c68119" fill-rule="evenodd" stroke="none"/>
    <path d="M2.9 31.65 Q3.95 32.4 4.7 32.4 5.05 32.75 5.4 32.75 5.05 33.45 5.05 33.8 4.7 34.55 4.7 35.95 4.7 37.4 5.4 38.1 5.4 38.45 5.75 39.2 L5.75 37.75 Q5.75 36.7 6.45 35.6 L6.8 35.6 6.8 38.8 6.8 40.95 6.8 41.3 Q8.25 40.6 8.95 39.2 10.05 37.4 10.05 35.25 10.05 34.15 9.3 33.1 L10.05 33.1 11.85 32.4 Q12.2 33.1 12.55 35.6 L12.9 40.6 13.25 43.45 10.75 47.4 10.05 49.2 7.55 52.05 Q6.1 53.45 5.05 52.05 L2.9 48.1 Q1.45 45.95 1.1 44.55 0.4 43.45 0.4 41.7 L1.45 36.3 2.9 31.65" fill="#febe5f" fill-rule="evenodd" stroke="none"/>
    <path d="M2.15 31.3 Q2.55 31.65 2.9 31.65 L1.45 36.3 0.4 41.7 Q0.4 43.45 1.1 44.55 1.45 45.95 2.9 48.1 L5.05 52.05 Q6.1 53.45 7.55 52.05 L10.05 49.2 10.75 47.4 13.25 43.45 12.9 40.6 12.55 35.6 Q12.2 33.1 11.85 32.4 12.2 32.05 12.55 32.05 L15.75 43.1 6.1 57.75 -1.4 42.75 2.15 31.3 M5.4 32.75 L5.75 32.4 9.3 32.75 9.3 33.1 Q10.05 34.15 10.05 35.25 10.05 37.4 8.95 39.2 8.25 40.6 6.8 41.3 L6.8 40.95 6.8 38.8 6.8 35.6 6.45 35.6 Q5.75 36.7 5.75 37.75 L5.75 39.2 Q5.4 38.45 5.4 38.1 4.7 37.4 4.7 35.95 4.7 34.55 5.05 33.8 5.05 33.45 5.4 32.75" fill="#e5a547" fill-rule="evenodd" stroke="none"/>
    <path d="M67.6 103.5 Q62.25 89.9 57.6 85.6 51.5 79.55 36.5 79.55 25.75 79.55 20.4 85.6 16.85 89.55 12.9 102.05 L10.4 102.05 13.25 74.55 62.95 74.55 69.75 103.5 67.6 103.5" fill="#e98b00" fill-rule="evenodd" stroke="none"/>
    <path d="M12.9 102.05 Q16.85 89.55 20.4 85.6 25.75 79.55 36.5 79.55 51.5 79.55 57.6 85.6 62.25 89.9 67.6 103.5 L20.75 102.4 18.25 102.05 12.9 102.05" fill="#f99706" fill-rule="evenodd" stroke="none"/>
    <path d="M32.55 74.55 L35.45 74.55 34.7 102.75 31.85 102.75 32.55 74.55" fill="#7c4b03" fill-rule="evenodd" stroke="none"/>
    <path d="M39.35 74.55 L41.85 74.55 41.5 102.75 38.65 102.75 39.35 74.55" fill="#7c4b03" fill-rule="evenodd" stroke="none"/>
    <path d="M37.2 6.3 L39.7 6.3 31.5 42.75 20.75 42.4 29.7 50.6 -1.4 65.25 0.05 61.7 22.9 47.75 15.75 39.55 29.0 37.4 37.2 6.3 M1.45 58.85 L27.9 5.95 34.0 6.3 27.2 36.7 14.35 38.45 20.75 47.05 1.45 58.85" fill="#9d4a16" fill-rule="evenodd" stroke="none"/>
    <path d="M0.05 61.7 L1.45 58.85 20.75 47.05 14.35 38.45 27.2 36.7 34.0 6.3 37.2 6.3 29.0 37.4 15.75 39.55 22.9 47.75 0.05 61.7" fill="#ffe3bb" fill-rule="evenodd" stroke="none"/>
    <path d="M20.4 61.35 L20.4 60.6 39.7 60.6 39.7 61.35 20.4 61.35" fill="#febe5f" fill-rule="evenodd" stroke="none"/>
    <path d="M39.7 61.35 L39.7 64.2 20.4 64.55 20.4 61.35 39.7 61.35 M29.7 66.35 Q30.05 65.6 30.8 65.6 31.5 65.6 31.85 66.35 32.55 66.7 32.55 67.4 32.55 68.45 31.85 68.45 31.5 69.2 30.8 69.2 30.05 69.2 29.7 68.45 29.0 68.45 29.0 67.4 29.0 66.7 29.7 66.35" fill="#9d4a16" fill-rule="evenodd" stroke="none"/>
  </g>
  <defs>
    <linearGradient gradientTransform="matrix(0.0038, 0.0252, -0.0208, 0.0031, 42.9, 24.15)" gradientUnits="userSpaceOnUse" id="gradient0" spreadMethod="pad" x1="-819.2" x2="819.2">
      <stop offset="0.0" stop-color="#9c9c9c"/>
      <stop offset="1.0" stop-color="#ffffff"/>
    </linearGradient>
  </defs>
</svg>
