<?xml version="1.0" encoding="UTF-8" standalone="no"?>
<svg xmlns:xlink="http://www.w3.org/1999/xlink" height="109.05px" width="74.2px" xmlns="http://www.w3.org/2000/svg">
  <g transform="matrix(1.0, 0.0, 0.0, 1.0, -130.85, 100.8)">
    <path d="M134.85 -63.9 L138.8 -59.75 139.05 -59.75 139.0 -59.55 138.5 -56.6 Q136.8 -47.15 136.15 -38.95 L136.05 -37.8 135.85 -32.35 Q135.85 -21.65 139.5 -15.55 144.15 -7.7 152.8 -2.85 161.4 1.95 174.8 4.7 187.5 7.25 200.4 5.55" fill="none" stroke="#4d2903" stroke-linecap="round" stroke-linejoin="round" stroke-width="4.0"/>
    <path d="M143.45 -94.5 L142.55 -90.95 Q138.5 -77.8 134.95 -64.15 L134.85 -63.9 Z" fill="none" stroke="#4d2903" stroke-linecap="round" stroke-linejoin="round" stroke-width="8.0"/>
    <path d="M142.55 -90.95 L142.65 -91.4 142.7 -91.4 142.55 -90.95" fill="url(#gradient0)" fill-rule="evenodd" stroke="none"/>
    <path d="M142.55 -90.95 L142.7 -91.4 144.4 -96.9 171.35 -99.65 154.25 -81.45 141.3 -63.15 134.95 -64.15 Q138.5 -77.8 142.55 -90.95" fill="#ffa31a" fill-rule="evenodd" stroke="none"/>
    <path d="M171.35 -99.65 L173.05 -100.8 174.4 -99.75 176.85 -97.9 Q187.0 -90.6 197.1 -88.8 203.05 -62.2 204.6 -37.8 L204.9 -32.35 204.95 -30.6 Q205.65 -4.55 201.8 5.3 204.05 -11.9 202.25 -32.35 L201.7 -37.8 Q199.6 -56.95 194.05 -78.85 193.7 -79.55 193.7 -79.85 L193.7 -79.9 Q193.0 -81.65 192.65 -83.75 L192.05 -84.3 Q183.55 -86.0 175.4 -92.1 L172.2 -94.65 143.5 -59.15 139.05 -59.75 138.8 -59.75 134.85 -63.9 134.95 -64.15 141.3 -63.15 154.25 -81.45 171.35 -99.65" fill="#7a440e" fill-rule="evenodd" stroke="none"/>
    <path d="M201.8 5.3 Q188.2 7.4 174.8 4.7 161.4 1.95 152.8 -2.85 144.15 -7.7 139.5 -15.55 135.85 -21.65 135.85 -32.35 L136.05 -37.8 136.15 -38.95 Q136.8 -47.15 138.5 -56.6 L139.0 -59.55 139.05 -59.75 143.5 -59.15 172.2 -94.65 175.4 -92.1 Q183.55 -86.0 192.05 -84.3 L192.65 -83.75 Q193.0 -81.65 193.7 -79.9 L193.7 -79.85 Q193.7 -79.55 194.05 -78.85 199.6 -56.95 201.7 -37.8 L202.25 -32.35 Q204.05 -11.9 201.8 5.3" fill="#f2e1d0" fill-rule="evenodd" stroke="none"/>
  </g>
  <defs>
    <linearGradient gradientTransform="matrix(0.0, 0.0627, -0.0367, 0.0, 175.05, -46.1)" gradientUnits="userSpaceOnUse" id="gradient0" spreadMethod="pad" x1="-819.2" x2="819.2">
      <stop offset="0.0" stop-color="#006a85"/>
      <stop offset="1.0" stop-color="#00303c"/>
    </linearGradient>
  </defs>
</svg>
