<?xml version="1.0" encoding="UTF-8" standalone="no"?>
<svg xmlns:xlink="http://www.w3.org/1999/xlink" height="60.15px" width="60.0px" xmlns="http://www.w3.org/2000/svg">
  <g transform="matrix(1.0, 0.0, 0.0, 1.0, 9.2, 9.4)">
    <path d="M41.55 -0.65 Q50.2 8.0 50.2 20.5 50.2 32.75 41.55 41.4 32.9 50.05 20.6 50.05 8.3 50.05 -0.35 41.4 -9.2 32.75 -9.2 20.5 -9.2 8.0 -0.35 -0.65 8.3 -9.4 20.6 -9.4 32.9 -9.4 41.55 -0.65" fill="#5d2e01" fill-rule="evenodd" stroke="none"/>
    <path d="M42.55 42.5 Q34.2 50.75 22.5 50.75 10.7 50.75 2.45 42.5 -5.95 34.15 -5.95 22.45 -5.95 10.6 2.45 2.35 10.7 -6.0 22.5 -6.0 34.2 -6.0 42.55 2.35 50.8 10.6 50.8 22.45 50.8 34.15 42.55 42.5" fill="#5d2e01" fill-rule="evenodd" stroke="none"/>
  </g>
</svg>
