<?xml version="1.0" encoding="UTF-8" standalone="no"?>
<svg xmlns:xlink="http://www.w3.org/1999/xlink" height="35.1px" width="35.1px" xmlns="http://www.w3.org/2000/svg">
  <g transform="matrix(1.0, 0.0, 0.0, 1.0, 4.05, 3.0)">
    <path d="M31.05 14.55 Q31.05 21.85 25.9 27.0 20.8 32.1 13.5 32.1 6.2 32.1 1.1 27.0 -4.05 21.85 -4.05 14.55 -4.05 7.3 1.1 2.15 6.2 -3.0 13.5 -3.0 20.8 -3.0 25.9 2.15 31.05 7.3 31.05 14.55" fill="url(#gradient0)" fill-rule="evenodd" stroke="none"/>
    <path d="M26.65 14.55 Q26.65 20.0 22.8 23.85 18.95 27.7 13.5 27.7 8.05 27.7 4.2 23.85 0.3 20.0 0.3 14.55 0.3 9.1 4.2 5.25 8.05 1.35 13.5 1.35 18.95 1.35 22.8 5.25 26.65 9.1 26.65 14.55" fill="url(#gradient1)" fill-rule="evenodd" stroke="none"/>
    <path d="M16.75 11.75 Q14.75 9.75 14.75 6.9 14.75 4.05 16.75 2.0 18.8 0.0 21.65 0.0 24.5 0.0 26.5 2.0 28.55 4.05 28.55 6.9 28.55 9.75 26.5 11.75 24.5 13.8 21.65 13.8 18.8 13.8 16.75 11.75" fill="#ffffff" fill-opacity="0.8" fill-rule="evenodd" stroke="none"/>
    <path d="M3.75 24.0 Q3.75 22.55 4.75 21.55 5.75 20.55 7.15 20.55 8.6 20.55 9.6 21.55 10.6 22.55 10.6 24.0 10.6 25.4 9.6 26.4 8.6 27.4 7.15 27.4 5.75 27.4 4.75 26.4 3.75 25.4 3.75 24.0" fill="#ffffff" fill-opacity="0.8" fill-rule="evenodd" stroke="none"/>
  </g>
  <defs>
    <linearGradient gradientTransform="matrix(-0.0032, -0.0212, 0.0212, -0.0032, 13.5, 14.55)" gradientUnits="userSpaceOnUse" id="gradient0" spreadMethod="pad" x1="-819.2" x2="819.2">
      <stop offset="0.0" stop-color="#cd6500"/>
      <stop offset="1.0" stop-color="#722500"/>
    </linearGradient>
    <linearGradient gradientTransform="matrix(0.0034, -0.0157, 0.0157, 0.0034, 13.4, 14.55)" gradientUnits="userSpaceOnUse" id="gradient1" spreadMethod="pad" x1="-819.2" x2="819.2">
      <stop offset="0.0" stop-color="#542800"/>
      <stop offset="1.0" stop-color="#351700"/>
    </linearGradient>
  </defs>
</svg>
