<?xml version="1.0" encoding="UTF-8" standalone="no"?>
<svg xmlns:xlink="http://www.w3.org/1999/xlink" height="63.0px" width="398.8px" xmlns="http://www.w3.org/2000/svg">
  <g transform="matrix(1.0, 0.0, 0.0, 1.0, -1.5, -1.5)">
    <path d="M385.1 29.7 L383.75 30.1 Q383.4 28.8 383.4 27.65 383.4 25.1 384.6 23.25 385.85 21.4 387.5 21.4 390.0 21.4 390.0 24.2 L389.75 25.8 388.95 25.7 Q387.25 25.7 386.05 27.55 385.4 28.55 385.1 29.7 M386.45 39.3 Q385.05 37.85 384.55 35.05 389.85 33.7 393.15 30.5 396.55 27.2 396.55 23.4 L396.55 22.8 Q398.0 24.85 398.0 27.7 398.0 31.55 394.6 34.85 391.45 37.85 386.45 39.3 M377.3 39.65 Q378.05 41.2 379.15 42.5 382.75 46.85 388.35 46.85 392.6 46.85 395.7 44.4 L396.65 43.65 Q398.5 42.5 399.75 40.8 400.3 41.75 400.3 43.2 400.3 46.35 397.15 48.75 394.05 51.2 389.8 51.2 384.15 51.2 380.55 46.8 378.05 43.85 377.3 39.65 M370.25 40.25 Q369.7 39.75 369.4 39.0 368.6 37.15 368.6 31.05 368.6 25.5 369.25 16.05 369.55 11.1 369.9 9.05 L370.2 6.75 370.25 6.35 Q372.0 6.5 372.0 8.3 L371.85 9.3 371.65 11.1 371.35 13.4 Q371.0 15.4 370.7 20.35 370.05 29.8 370.05 35.35 L370.25 40.25 M345.3 41.8 L346.15 43.2 Q348.8 46.7 353.5 46.7 359.05 46.7 362.5 41.95 363.7 46.5 368.6 46.5 371.4 46.5 372.8 45.1 L373.8 45.2 375.6 44.8 375.6 45.35 Q375.6 50.85 370.05 50.85 365.15 50.85 363.95 46.3 360.5 51.05 354.95 51.05 350.25 51.05 347.6 47.5 345.85 45.2 345.3 41.8 M353.0 39.1 Q351.5 37.35 351.5 32.95 351.5 28.15 353.15 25.05 354.7 21.95 357.25 21.95 359.45 21.95 361.2 24.05 L361.2 24.2 361.2 25.9 361.2 27.05 Q360.05 26.3 358.7 26.3 356.15 26.3 354.6 29.35 352.9 32.45 352.9 37.3 L353.0 39.1 M320.7 45.35 L320.9 45.35 Q322.45 45.35 324.1 43.55 L324.4 45.05 Q324.4 47.45 322.45 49.4 320.45 51.35 317.95 51.35 314.1 51.35 311.65 47.35 310.75 45.85 310.25 43.15 312.7 47.0 316.5 47.0 318.8 47.0 320.7 45.35 M308.25 31.05 Q307.2 31.1 305.55 33.25 303.8 35.4 302.6 38.15 300.7 42.4 300.7 46.15 300.7 48.45 301.3 49.25 299.05 50.85 296.2 50.85 294.0 50.85 293.25 49.4 292.55 48.15 292.2 45.55 293.0 46.5 294.75 46.5 297.6 46.5 299.85 44.9 299.3 44.15 299.3 41.85 299.3 38.1 301.15 33.85 302.35 31.1 304.1 28.95 305.85 26.7 306.85 26.7 308.0 26.7 308.25 31.05 M299.4 19.4 Q301.3 19.65 301.3 21.25 L300.85 23.7 300.65 24.7 Q299.5 26.3 298.5 28.2 L298.4 28.45 298.35 27.95 Q298.35 23.9 299.4 19.4 M315.85 23.75 Q317.65 26.4 317.7 33.55 L317.8 39.6 317.85 40.5 Q316.4 39.25 316.35 35.3 L316.25 29.25 Q316.25 26.05 315.85 23.75 M330.45 46.25 Q331.6 46.95 333.4 46.95 336.5 46.95 338.65 45.5 340.0 44.5 340.5 43.3 L340.9 43.55 Q342.2 44.55 342.2 46.15 342.2 48.3 340.1 49.8 337.95 51.25 334.85 51.25 332.7 51.25 331.45 50.25 330.15 49.3 330.15 47.65 330.15 46.9 330.45 46.25 M273.45 39.3 Q272.05 37.85 271.55 35.05 276.9 33.7 280.2 30.5 283.6 27.2 283.6 23.4 L283.6 22.85 Q285.0 24.95 285.0 27.7 285.0 31.55 281.65 34.85 278.45 37.85 273.45 39.3 M264.4 39.8 Q265.1 41.25 266.15 42.5 269.75 46.85 275.35 46.85 279.6 46.85 282.7 44.4 L283.65 43.65 Q285.55 42.5 286.75 40.8 287.3 41.75 287.3 43.2 287.3 46.35 284.15 48.75 281.05 51.2 276.8 51.2 271.2 51.2 267.6 46.8 265.15 43.9 264.4 39.8 M272.15 29.7 L270.75 30.1 Q270.4 28.8 270.4 27.65 270.4 25.1 271.6 23.25 272.85 21.4 274.5 21.4 277.0 21.4 277.0 24.2 L276.75 25.8 275.95 25.7 Q274.3 25.7 273.05 27.55 272.45 28.55 272.15 29.7 M257.3 6.6 Q258.8 7.2 258.8 9.65 L258.15 14.95 Q256.95 22.15 256.2 28.65 255.5 35.3 255.5 37.45 L255.55 38.75 Q254.05 37.05 254.05 33.1 254.05 30.95 254.75 24.35 255.5 17.85 256.7 10.65 L257.3 6.6 M260.15 44.3 Q261.4 44.25 262.4 43.55 L262.7 44.85 Q262.7 47.75 260.8 49.45 258.95 51.1 255.85 51.1 251.1 51.1 249.0 47.9 248.0 46.35 247.65 43.75 249.75 46.8 254.4 46.8 257.5 46.8 259.4 45.15 L260.15 44.3 M220.55 39.8 Q221.25 41.25 222.3 42.5 225.9 46.85 231.5 46.85 235.75 46.85 238.85 44.4 L239.85 43.6 Q241.65 42.45 242.9 40.8 243.45 41.75 243.45 43.2 243.45 46.35 240.3 48.75 237.2 51.2 232.95 51.2 227.35 51.2 223.75 46.8 221.3 43.9 220.55 39.8 M229.6 39.3 Q228.2 37.85 227.7 35.05 233.05 33.7 236.35 30.5 239.7 27.2 239.7 23.4 L239.7 22.8 Q241.15 24.85 241.15 27.7 241.15 31.55 237.8 34.85 234.6 37.85 229.6 39.3 M228.3 29.7 L226.9 30.1 Q226.55 28.8 226.55 27.65 226.55 25.1 227.75 23.25 229.0 21.4 230.65 21.4 233.15 21.4 233.15 24.2 L232.9 25.8 232.1 25.7 Q230.45 25.7 229.2 27.55 228.6 28.55 228.3 29.7 M214.5 9.0 Q216.1 9.8 216.1 12.0 216.1 14.4 213.65 16.1 L211.5 17.35 211.0 17.3 Q209.6 17.3 208.1 18.05 L207.95 18.05 Q206.4 18.05 205.3 17.2 204.2 16.25 204.2 14.95 L204.2 14.7 Q204.2 14.0 204.5 13.3 L206.55 13.75 Q209.55 13.75 212.2 11.8 214.0 10.55 214.5 9.0 M212.9 21.65 Q214.5 21.85 214.5 23.75 L214.15 27.3 213.65 31.95 213.45 37.8 Q213.45 41.35 213.85 43.8 212.0 41.1 212.0 33.5 L212.2 27.65 212.7 22.95 212.9 21.65 M213.95 44.3 Q214.45 47.2 215.6 48.5 L213.0 49.9 Q211.55 50.7 209.4 50.7 205.6 50.7 205.45 45.5 206.4 46.35 207.95 46.35 210.15 46.35 211.55 45.55 212.75 44.95 213.95 44.3 M196.4 24.9 Q198.25 28.5 198.25 33.7 198.25 41.4 194.65 46.35 191.05 51.35 185.45 51.35 182.35 51.35 178.95 49.3 L178.95 49.6 179.0 51.9 179.25 54.7 Q179.45 56.95 179.95 58.6 L180.4 60.4 Q180.4 62.0 178.6 63.3 176.85 64.5 174.55 64.5 172.25 64.5 171.7 62.55 171.4 61.7 171.25 59.7 171.95 60.2 173.1 60.2 175.4 60.2 177.15 58.95 178.95 57.65 178.95 56.1 L178.5 54.3 Q178.0 52.65 177.8 50.4 L177.6 47.6 177.5 45.3 177.5 45.0 Q180.9 47.0 184.0 47.0 189.6 47.0 193.2 42.05 196.8 37.1 196.8 29.35 196.8 26.95 196.4 24.9 M170.2 23.55 L169.75 23.1 170.1 22.95 170.2 23.55 M178.05 19.5 L178.5 19.7 178.55 19.75 178.1 20.45 178.05 19.5 M162.6 22.25 Q164.4 23.5 164.4 25.25 164.4 26.35 162.95 28.1 L161.75 29.35 Q160.65 27.55 158.35 26.4 156.05 25.25 153.75 25.25 152.0 25.25 151.15 25.9 149.55 24.85 149.2 24.35 148.85 23.9 148.85 23.3 148.85 20.95 152.3 20.95 154.6 20.95 156.9 22.1 159.2 23.25 160.3 25.05 L161.5 23.75 162.6 22.25 M163.25 37.85 Q164.7 40.0 164.7 42.55 164.7 46.8 161.6 49.3 158.5 51.85 153.3 51.85 147.55 51.85 142.3 48.65 L140.0 47.35 139.8 47.3 141.95 45.05 142.0 45.0 Q146.75 47.5 151.85 47.5 157.05 47.5 160.15 45.0 163.25 42.5 163.25 38.25 L163.25 37.85 M139.35 43.5 Q139.1 46.4 136.9 48.45 134.4 50.85 130.85 50.85 125.6 50.85 123.2 46.85 122.2 45.2 121.8 42.6 124.2 46.5 129.4 46.5 132.85 46.5 135.3 44.3 137.55 43.95 139.25 41.95 L139.3 42.05 138.35 43.0 138.55 43.05 139.35 43.5 M120.25 25.55 L119.95 25.55 118.7 25.65 Q113.85 25.65 113.85 23.45 113.85 22.95 114.2 22.3 L115.1 21.15 117.25 21.3 118.55 21.25 120.4 21.15 120.7 21.15 120.6 21.4 120.25 25.55 M130.2 8.45 L131.35 8.3 Q132.6 8.3 132.6 9.5 L132.0 11.5 Q131.4 13.4 131.05 15.35 L129.1 15.25 Q129.25 11.9 130.2 8.45 M135.0 19.75 Q137.55 19.9 138.85 21.25 L138.6 21.3 137.7 22.75 Q136.7 24.25 134.5 24.9 L131.4 25.4 130.05 25.35 129.75 25.35 129.75 25.7 129.55 31.3 129.25 35.4 Q129.25 37.1 129.4 38.45 127.8 36.55 127.8 31.1 L128.1 27.0 128.35 21.4 128.35 21.0 128.6 21.0 130.0 21.1 133.1 20.6 135.0 19.75 M153.95 40.15 L151.75 38.75 147.25 36.0 Q141.7 32.6 141.7 28.1 L141.7 28.05 Q143.1 30.0 145.85 31.7 L150.3 34.4 Q152.5 35.8 152.95 36.15 154.4 37.35 154.4 38.65 154.4 39.5 153.95 40.15 M179.3 39.35 L177.85 37.85 177.85 35.7 Q177.85 29.9 179.8 25.85 181.75 21.9 184.55 21.9 188.05 21.9 188.75 27.55 187.7 26.2 186.0 26.2 183.2 26.2 181.25 30.15 179.4 33.95 179.3 39.35 M111.6 21.25 L112.9 20.9 Q113.3 21.8 113.3 23.85 113.3 25.2 112.7 26.2 L109.25 30.65 105.15 35.55 101.05 40.9 100.95 40.9 96.65 40.7 96.95 40.3 Q99.8 36.15 103.7 31.25 L107.8 26.35 111.25 21.9 111.6 21.25 M112.6 44.2 L114.35 43.55 114.7 45.65 Q114.7 49.05 112.0 50.25 109.4 51.5 100.55 51.5 L91.8 51.1 Q87.05 50.75 87.05 48.4 87.05 47.8 87.9 46.4 L90.4 46.8 99.1 47.15 Q107.95 47.15 110.55 45.95 111.9 45.35 112.6 44.2 M97.35 27.55 L96.0 27.55 Q91.45 27.55 89.75 26.65 88.0 25.65 88.0 23.1 L88.1 22.2 88.3 22.3 Q90.0 23.25 94.55 23.25 L100.8 23.1 97.35 27.55 M81.25 19.75 Q83.85 19.85 85.1 21.25 L84.9 21.3 83.95 22.75 Q82.95 24.25 80.8 24.9 L77.7 25.4 76.35 25.35 76.05 25.35 76.05 25.7 75.85 31.3 75.55 35.4 Q75.55 37.1 75.7 38.45 74.1 36.55 74.1 31.1 L74.4 27.0 74.6 21.4 74.6 21.0 74.9 21.0 76.25 21.1 79.35 20.6 81.25 19.75 M81.6 44.3 Q83.9 43.95 85.55 41.95 L85.65 42.75 Q85.65 46.15 83.2 48.45 80.65 50.85 77.15 50.85 71.85 50.85 69.5 46.85 68.5 45.2 68.1 42.6 70.5 46.5 75.7 46.5 79.1 46.5 81.6 44.3 M66.55 25.55 L66.25 25.55 64.95 25.65 Q60.15 25.65 60.15 23.45 60.15 22.95 60.5 22.3 L61.4 21.2 63.5 21.3 64.8 21.25 66.7 21.15 67.0 21.15 66.9 21.4 66.55 25.55 M76.5 8.45 L77.65 8.3 Q78.85 8.3 78.85 9.5 L78.3 11.5 Q77.7 13.4 77.35 15.35 L75.4 15.25 Q75.55 11.9 76.5 8.45 M45.05 29.7 L43.65 30.1 Q43.3 28.8 43.3 27.65 43.3 25.1 44.5 23.25 45.75 21.4 47.4 21.4 49.9 21.4 49.9 24.2 L49.65 25.8 48.85 25.7 Q47.15 25.7 45.95 27.55 45.35 28.55 45.05 29.7 M37.3 39.8 Q38.0 41.25 39.05 42.5 42.65 46.85 48.25 46.85 52.5 46.85 55.6 44.4 L56.55 43.65 Q58.4 42.5 59.65 40.8 60.2 41.75 60.2 43.2 60.2 46.35 57.05 48.75 53.95 51.2 49.7 51.2 44.1 51.2 40.5 46.8 38.05 43.9 37.3 39.8 M46.35 39.3 Q44.95 37.85 44.45 35.05 49.75 33.7 53.1 30.5 56.45 27.2 56.45 23.4 L56.45 22.8 Q57.9 24.85 57.9 27.7 57.9 31.55 54.5 34.85 51.35 37.85 46.35 39.3 M29.1 6.75 Q30.6 6.8 30.6 8.65 L30.4 15.35 30.25 22.05 Q30.25 29.25 30.55 33.75 L30.75 39.95 Q30.75 44.15 28.95 46.8 27.5 48.8 24.55 50.2 21.55 51.5 18.15 51.5 10.4 51.5 5.4 46.35 4.45 45.35 3.8 45.0 L3.45 44.85 5.8 43.7 Q10.3 47.15 16.7 47.15 20.1 47.15 23.1 45.85 26.05 44.5 27.5 42.5 29.3 39.8 29.3 35.65 L29.1 29.45 Q28.8 24.9 28.8 17.7 L28.95 11.0 29.1 6.75" fill="#ab0709" fill-rule="evenodd" stroke="none"/>
    <path d="M389.75 25.8 L390.0 24.2 Q390.0 21.4 387.5 21.4 385.85 21.4 384.6 23.25 383.4 25.1 383.4 27.65 383.4 28.8 383.75 30.1 L385.1 29.7 Q388.9 28.35 389.75 25.8 M396.55 22.8 L396.55 23.4 Q396.55 27.2 393.15 30.5 389.85 33.7 384.55 35.05 385.05 37.85 386.45 39.3 387.9 40.75 390.3 40.75 392.4 40.75 394.7 39.6 396.9 38.35 398.3 36.5 398.85 37.45 398.85 38.9 398.85 41.55 396.65 43.65 L395.7 44.4 Q392.6 46.85 388.35 46.85 382.75 46.85 379.15 42.5 378.05 41.2 377.3 39.65 375.55 36.05 375.55 31.25 375.55 24.4 379.2 19.65 382.8 14.9 387.9 14.9 391.6 14.9 394.1 17.3 396.35 19.5 396.55 22.8 M370.25 6.35 L370.2 6.75 369.9 9.05 Q369.55 11.1 369.25 16.05 368.6 25.5 368.6 31.05 368.6 37.15 369.4 39.0 369.7 39.75 370.25 40.25 371.05 40.9 372.35 40.9 L374.15 40.45 374.15 41.05 Q374.15 43.75 372.8 45.1 371.4 46.5 368.6 46.5 363.7 46.5 362.5 41.95 359.05 46.7 353.5 46.7 348.8 46.7 346.15 43.2 L345.3 41.8 Q343.5 38.55 343.5 33.6 343.5 25.9 347.15 20.5 350.9 15.05 356.15 15.05 359.35 15.05 361.4 17.3 L361.4 16.7 361.5 14.4 361.5 11.8 Q361.5 5.4 360.7 4.15 362.0 4.1 364.1 3.3 367.45 2.0 368.55 2.0 370.55 2.0 370.55 3.95 L370.4 4.95 370.25 6.35 M361.2 27.05 L361.2 25.9 361.2 24.2 361.2 24.05 Q359.45 21.95 357.25 21.95 354.7 21.95 353.15 25.05 351.5 28.15 351.5 32.95 351.5 37.35 353.0 39.1 353.95 40.3 355.65 40.3 361.2 40.3 361.2 27.55 L361.2 27.05 M310.25 43.15 L310.2 43.05 Q308.4 40.05 308.3 32.3 L308.25 31.05 Q308.0 26.7 306.85 26.7 305.85 26.7 304.1 28.95 302.35 31.1 301.15 33.85 299.3 38.1 299.3 41.85 299.3 44.15 299.85 44.9 297.6 46.5 294.75 46.5 293.0 46.5 292.2 45.55 L291.8 45.05 Q290.25 42.35 290.25 32.95 L290.55 24.85 290.65 21.15 Q290.65 18.95 290.0 17.8 L290.4 17.7 294.1 15.9 Q295.8 15.05 297.1 15.05 299.85 15.05 299.85 16.9 L299.4 19.35 299.4 19.4 Q298.35 23.9 298.35 27.95 L298.4 28.45 298.5 28.2 Q299.5 26.3 300.65 24.7 302.05 22.6 303.6 20.95 307.0 17.4 310.0 17.4 312.95 17.4 314.4 19.45 315.4 20.9 315.85 23.75 316.25 26.05 316.25 29.25 L316.35 35.3 Q316.4 39.25 317.85 40.5 318.5 41.05 319.45 41.05 321.0 41.05 322.7 39.25 L322.95 40.75 Q322.95 43.1 321.0 45.05 L320.7 45.35 Q318.8 47.0 316.5 47.0 312.7 47.0 310.25 43.15 M330.45 46.25 L330.0 45.95 Q328.75 45.0 328.75 43.35 328.75 41.3 330.95 39.8 333.2 38.25 336.05 38.25 338.15 38.25 339.45 39.25 340.75 40.25 340.75 41.85 L340.5 43.3 Q340.0 44.5 338.65 45.5 336.5 46.95 333.4 46.95 331.6 46.95 330.45 46.25 M283.6 22.85 L283.6 23.4 Q283.6 27.2 280.2 30.5 276.9 33.7 271.55 35.05 272.05 37.85 273.45 39.3 274.9 40.75 277.3 40.75 279.4 40.75 281.7 39.6 283.95 38.35 285.3 36.5 285.9 37.45 285.9 38.9 285.9 41.55 283.65 43.65 L282.7 44.4 Q279.6 46.85 275.35 46.85 269.75 46.85 266.15 42.5 265.1 41.25 264.4 39.8 262.55 36.15 262.55 31.25 262.55 24.4 266.2 19.65 269.8 14.9 274.95 14.9 278.6 14.9 281.15 17.3 283.4 19.5 283.6 22.85 M276.75 25.8 L277.0 24.2 Q277.0 21.4 274.5 21.4 272.85 21.4 271.6 23.25 270.4 25.1 270.4 27.65 270.4 28.8 270.75 30.1 L272.15 29.7 Q275.9 28.35 276.75 25.8 M255.55 38.75 Q256.65 39.95 258.5 39.95 259.9 39.95 260.95 39.25 261.25 39.65 261.25 40.55 261.25 42.75 260.15 44.3 L259.4 45.15 Q257.5 46.8 254.4 46.8 249.75 46.8 247.65 43.75 L247.55 43.55 Q246.0 41.1 246.0 35.9 L246.05 34.1 Q246.3 28.5 247.05 20.65 247.85 12.0 247.85 9.45 247.85 7.25 247.05 5.75 L247.45 5.7 250.25 3.6 Q252.55 2.0 254.55 2.0 257.35 2.0 257.35 5.3 L257.3 6.6 256.7 10.65 Q255.5 17.85 254.75 24.35 254.05 30.95 254.05 33.1 254.05 37.05 255.55 38.75 M220.55 39.8 Q218.7 36.15 218.7 31.25 218.7 24.4 222.35 19.65 225.95 14.9 231.1 14.9 234.75 14.9 237.3 17.3 239.5 19.5 239.7 22.8 L239.7 23.4 Q239.7 27.2 236.35 30.5 233.05 33.7 227.7 35.05 228.2 37.85 229.6 39.3 231.05 40.75 233.45 40.75 235.55 40.75 237.85 39.6 240.1 38.35 241.45 36.5 242.05 37.45 242.05 38.9 242.05 41.55 239.85 43.6 L238.85 44.4 Q235.75 46.85 231.5 46.85 225.9 46.85 222.3 42.5 221.25 41.25 220.55 39.8 M232.9 25.8 L233.15 24.2 Q233.15 21.4 230.65 21.4 229.0 21.4 227.75 23.25 226.55 25.1 226.55 27.65 226.55 28.8 226.9 30.1 L228.3 29.7 Q232.05 28.35 232.9 25.8 M204.5 13.3 L203.85 12.9 Q202.8 11.95 202.8 10.65 L202.8 10.35 Q202.8 7.75 206.3 5.55 208.55 4.15 210.65 4.15 214.65 4.15 214.65 7.7 L214.5 9.0 Q214.0 10.55 212.2 11.8 209.55 13.75 206.55 13.75 L204.5 13.3 M211.5 17.35 Q213.1 17.55 213.1 19.45 L212.9 21.65 212.7 22.95 212.2 27.65 212.0 33.5 Q212.0 41.1 213.85 43.8 L214.15 44.2 213.95 44.3 Q212.75 44.95 211.55 45.55 210.15 46.35 207.95 46.35 206.4 46.35 205.45 45.5 204.0 44.15 204.0 40.75 L204.15 35.85 204.2 29.75 Q204.2 22.25 203.0 20.8 L203.35 20.75 Q204.2 20.5 206.95 18.7 L208.1 18.05 Q209.6 17.3 211.0 17.3 L211.5 17.35 M178.55 19.75 Q179.75 17.8 181.75 16.55 184.05 15.05 186.65 15.05 191.25 15.05 194.0 19.0 195.75 21.45 196.4 24.9 196.8 26.95 196.8 29.35 196.8 37.1 193.2 42.05 189.6 47.0 184.0 47.0 180.9 47.0 177.5 45.0 L177.5 45.3 177.6 47.6 177.8 50.4 Q178.0 52.65 178.5 54.3 L178.95 56.1 Q178.95 57.65 177.15 58.95 175.4 60.2 173.1 60.2 171.95 60.2 171.25 59.7 170.5 59.2 170.25 58.25 169.6 56.5 169.6 50.05 L170.0 38.45 170.45 28.65 170.2 23.55 170.1 22.95 Q169.55 19.8 168.3 18.8 L171.45 16.9 Q174.35 15.05 175.8 15.05 176.55 15.05 177.1 15.4 177.95 15.9 177.95 18.15 L178.05 19.5 178.1 20.45 178.55 19.75 M141.7 28.05 Q140.3 26.05 140.3 23.75 140.3 20.25 143.6 17.9 146.85 15.55 151.85 15.55 156.7 15.55 159.8 17.15 162.95 18.65 162.95 20.95 L162.6 22.25 161.5 23.75 160.3 25.05 Q159.2 23.25 156.9 22.1 154.6 20.95 152.3 20.95 148.85 20.95 148.85 23.3 148.85 23.9 149.2 24.35 149.55 24.85 151.15 25.9 152.9 27.05 156.25 29.0 159.8 31.15 161.3 32.9 163.1 35.15 163.25 37.85 L163.25 38.25 Q163.25 42.5 160.15 45.0 157.05 47.5 151.85 47.5 146.75 47.5 142.0 45.0 L140.85 44.35 139.35 43.5 138.55 43.05 138.35 43.0 139.3 42.05 140.5 40.75 Q141.85 39.25 143.5 39.25 L144.9 39.5 147.0 40.45 Q149.0 41.3 151.15 41.3 152.6 41.3 153.55 40.6 L153.95 40.15 Q154.4 39.5 154.4 38.65 154.4 37.35 152.95 36.15 152.5 35.8 150.3 34.4 L145.85 31.7 Q143.1 30.0 141.7 28.05 M121.8 42.6 L121.75 42.55 Q119.95 39.5 119.95 33.2 L119.95 32.4 Q119.95 29.7 120.25 25.55 L120.6 21.4 120.7 21.15 120.4 21.15 118.55 21.25 117.25 21.3 115.1 21.15 Q112.4 20.75 112.4 19.15 112.4 18.65 112.75 18.0 L115.5 14.7 115.65 14.55 116.5 15.1 119.2 15.5 119.95 15.4 121.15 15.4 121.35 15.4 121.5 11.65 Q121.55 9.5 121.7 9.15 L121.85 7.85 Q122.0 6.55 122.85 5.95 123.95 5.25 125.35 4.9 L129.9 3.95 Q131.15 3.95 131.15 5.2 L130.55 7.2 130.2 8.45 Q129.25 11.9 129.1 15.25 L131.05 15.35 132.85 15.4 Q135.95 15.4 137.4 16.9 L137.2 17.0 136.25 18.45 135.0 19.75 133.1 20.6 130.0 21.1 128.6 21.0 128.35 21.0 128.35 21.4 128.1 27.0 127.8 31.1 Q127.8 36.55 129.4 38.45 130.8 40.05 132.95 40.05 135.8 40.05 137.85 37.65 L137.9 38.45 Q137.9 41.85 135.45 44.15 L135.3 44.3 Q132.85 46.5 129.4 46.5 124.2 46.5 121.8 42.6 M188.75 27.55 Q188.05 21.9 184.55 21.9 181.75 21.9 179.8 25.85 177.85 29.9 177.85 35.7 L177.85 37.85 179.3 39.35 Q181.1 40.8 183.0 40.8 185.55 40.8 187.25 37.95 188.9 35.05 188.9 30.5 L188.75 27.55 M88.1 22.2 Q86.55 21.15 86.55 18.8 86.55 17.65 87.2 16.25 90.15 17.4 100.55 17.4 L111.5 16.55 Q111.85 17.5 111.85 19.5 L111.6 21.25 111.25 21.9 107.8 26.35 103.7 31.25 Q99.8 36.15 96.95 40.3 L96.65 40.7 100.95 40.9 101.05 40.9 Q109.4 40.9 112.9 39.25 113.3 40.45 113.3 41.3 113.3 43.0 112.6 44.2 111.9 45.35 110.55 45.95 107.95 47.15 99.1 47.15 L90.4 46.8 87.9 46.4 Q85.65 45.7 85.65 44.05 85.65 42.75 89.5 37.6 L97.35 27.55 100.8 23.1 94.55 23.25 Q90.0 23.25 88.3 22.3 L88.1 22.2 M77.35 15.35 L79.15 15.4 Q82.25 15.4 83.7 16.9 L83.45 17.0 82.55 18.45 81.25 19.75 79.35 20.6 76.25 21.1 74.9 21.0 74.6 21.0 74.6 21.4 74.4 27.0 74.1 31.1 Q74.1 36.55 75.7 38.45 77.05 40.05 79.2 40.05 82.1 40.05 84.1 37.65 L84.2 38.45 Q84.2 41.85 81.75 44.15 L81.6 44.3 Q79.1 46.5 75.7 46.5 70.5 46.5 68.1 42.6 L68.05 42.55 Q66.25 39.5 66.25 33.2 L66.25 32.4 Q66.25 29.7 66.55 25.55 L66.9 21.4 67.0 21.15 66.7 21.15 64.8 21.25 63.5 21.3 61.4 21.2 Q58.7 20.75 58.7 19.15 58.7 18.65 59.05 18.0 L61.8 14.7 61.95 14.55 62.8 15.1 65.45 15.5 66.25 15.4 67.4 15.4 67.6 15.4 67.75 11.65 68.0 9.15 68.15 7.85 Q68.25 6.55 69.15 5.95 70.2 5.25 71.65 4.9 74.95 3.95 76.2 3.95 77.4 3.95 77.4 5.2 L76.85 7.2 76.5 8.45 Q75.55 11.9 75.4 15.25 L77.35 15.35 M49.65 25.8 L49.9 24.2 Q49.9 21.4 47.4 21.4 45.75 21.4 44.5 23.25 43.3 25.1 43.3 27.65 43.3 28.8 43.65 30.1 L45.05 29.7 Q48.8 28.35 49.65 25.8 M37.3 39.8 Q35.45 36.15 35.45 31.25 35.45 24.4 39.1 19.65 42.7 14.9 47.8 14.9 51.5 14.9 54.0 17.3 56.25 19.5 56.45 22.8 L56.45 23.4 Q56.45 27.2 53.1 30.5 49.75 33.7 44.45 35.05 44.95 37.85 46.35 39.3 47.8 40.75 50.2 40.75 52.3 40.75 54.6 39.6 56.8 38.35 58.2 36.5 58.75 37.45 58.75 38.9 58.75 41.55 56.55 43.65 L55.6 44.4 Q52.5 46.85 48.25 46.85 42.65 46.85 39.05 42.5 38.0 41.25 37.3 39.8 M5.8 43.7 L3.95 42.05 2.4 40.7 2.0 40.55 4.6 39.25 Q6.65 37.95 8.2 37.95 9.45 37.95 11.45 39.0 14.05 40.4 16.2 40.4 18.8 40.4 19.9 38.65 20.95 37.0 20.95 32.9 L21.05 26.4 Q21.1 21.15 20.45 11.5 20.1 6.85 19.4 4.6 21.55 4.55 23.5 3.75 L25.55 2.9 Q26.65 2.45 27.6 2.45 29.15 2.45 29.15 4.3 L29.1 6.75 28.95 11.0 28.8 17.7 Q28.8 24.9 29.1 29.45 L29.3 35.65 Q29.3 39.8 27.5 42.5 26.05 44.5 23.1 45.85 20.1 47.15 16.7 47.15 10.3 47.15 5.8 43.7" fill="url(#gradient0)" fill-rule="evenodd" stroke="none"/>
    <path d="M389.75 25.8 L390.0 24.2 Q390.0 21.4 387.5 21.4 385.85 21.4 384.6 23.25 383.4 25.1 383.4 27.65 383.4 28.8 383.75 30.1 L385.1 29.7 M389.75 25.8 Q388.9 28.35 385.1 29.7 M386.45 39.3 Q385.05 37.85 384.55 35.05 389.85 33.7 393.15 30.5 396.55 27.2 396.55 23.4 L396.55 22.8 Q396.35 19.5 394.1 17.3 391.6 14.9 387.9 14.9 382.8 14.9 379.2 19.65 375.55 24.4 375.55 31.25 375.55 36.05 377.3 39.65 378.05 41.2 379.15 42.5 382.75 46.85 388.35 46.85 392.6 46.85 395.7 44.4 L396.65 43.65 Q398.85 41.55 398.85 38.9 398.85 37.45 398.3 36.5 396.9 38.35 394.7 39.6 392.4 40.75 390.3 40.75 387.9 40.75 386.45 39.3 M370.25 40.25 Q369.7 39.75 369.4 39.0 368.6 37.15 368.6 31.05 368.6 25.5 369.25 16.05 369.55 11.1 369.9 9.05 L370.2 6.75 370.25 6.35 370.4 4.95 370.55 3.95 Q370.55 2.0 368.55 2.0 367.45 2.0 364.1 3.3 362.0 4.1 360.7 4.15 361.5 5.4 361.5 11.8 L361.5 14.4 361.4 16.7 361.4 17.3 Q359.35 15.05 356.15 15.05 350.9 15.05 347.15 20.5 343.5 25.9 343.5 33.6 343.5 38.55 345.3 41.8 L346.15 43.2 Q348.8 46.7 353.5 46.7 359.05 46.7 362.5 41.95 363.7 46.5 368.6 46.5 371.4 46.5 372.8 45.1 374.15 43.75 374.15 41.05 L374.15 40.45 372.35 40.9 Q371.05 40.9 370.25 40.25 M361.2 27.05 L361.2 25.9 361.2 24.2 361.2 24.05 Q359.45 21.95 357.25 21.95 354.7 21.95 353.15 25.05 351.5 28.15 351.5 32.95 351.5 37.35 353.0 39.1 M361.2 27.05 L361.2 27.55 Q361.2 40.3 355.65 40.3 353.95 40.3 353.0 39.1 M310.25 43.15 L310.2 43.05 Q308.4 40.05 308.3 32.3 L308.25 31.05 Q308.0 26.7 306.85 26.7 305.85 26.7 304.1 28.95 302.35 31.1 301.15 33.85 299.3 38.1 299.3 41.85 299.3 44.15 299.85 44.9 297.6 46.5 294.75 46.5 293.0 46.5 292.2 45.55 L291.8 45.05 Q290.25 42.35 290.25 32.95 L290.55 24.85 290.65 21.15 Q290.65 18.95 290.0 17.8 L290.4 17.7 294.1 15.9 Q295.8 15.05 297.1 15.05 299.85 15.05 299.85 16.9 L299.4 19.35 299.4 19.4 Q298.35 23.9 298.35 27.95 L298.4 28.45 298.5 28.2 Q299.5 26.3 300.65 24.7 302.05 22.6 303.6 20.95 307.0 17.4 310.0 17.4 312.95 17.4 314.4 19.45 315.4 20.9 315.85 23.75 316.25 26.05 316.25 29.25 L316.35 35.3 Q316.4 39.25 317.85 40.5 318.5 41.05 319.45 41.05 321.0 41.05 322.7 39.25 L322.95 40.75 Q322.95 43.1 321.0 45.05 L320.7 45.35 Q318.8 47.0 316.5 47.0 312.7 47.0 310.25 43.15 M340.5 43.3 L340.75 41.85 Q340.75 40.25 339.45 39.25 338.15 38.25 336.05 38.25 333.2 38.25 330.95 39.8 328.75 41.3 328.75 43.35 328.75 45.0 330.0 45.95 L330.45 46.25 Q331.6 46.95 333.4 46.95 336.5 46.95 338.65 45.5 340.0 44.5 340.5 43.3 M283.6 22.85 L283.6 23.4 Q283.6 27.2 280.2 30.5 276.9 33.7 271.55 35.05 272.05 37.85 273.45 39.3 M283.6 22.85 Q283.4 19.5 281.15 17.3 278.6 14.9 274.95 14.9 269.8 14.9 266.2 19.65 262.55 24.4 262.55 31.25 262.55 36.15 264.4 39.8 265.1 41.25 266.15 42.5 269.75 46.85 275.35 46.85 279.6 46.85 282.7 44.4 L283.65 43.65 Q285.9 41.55 285.9 38.9 285.9 37.45 285.3 36.5 283.95 38.35 281.7 39.6 279.4 40.75 277.3 40.75 274.9 40.75 273.45 39.3 M276.75 25.8 L277.0 24.2 Q277.0 21.4 274.5 21.4 272.85 21.4 271.6 23.25 270.4 25.1 270.4 27.65 270.4 28.8 270.75 30.1 L272.15 29.7 M276.75 25.8 Q275.9 28.35 272.15 29.7 M255.55 38.75 Q256.65 39.95 258.5 39.95 259.9 39.95 260.95 39.25 261.25 39.65 261.25 40.55 261.25 42.75 260.15 44.3 L259.4 45.15 Q257.5 46.8 254.4 46.8 249.75 46.8 247.65 43.75 L247.55 43.55 Q246.0 41.1 246.0 35.9 L246.05 34.1 Q246.3 28.5 247.05 20.65 247.85 12.0 247.85 9.45 247.85 7.25 247.05 5.75 L247.45 5.7 250.25 3.6 Q252.55 2.0 254.55 2.0 257.35 2.0 257.35 5.3 L257.3 6.6 256.7 10.65 Q255.5 17.85 254.75 24.35 254.05 30.95 254.05 33.1 254.05 37.05 255.55 38.75 M239.7 22.8 Q239.5 19.5 237.3 17.3 234.75 14.9 231.1 14.9 225.95 14.9 222.35 19.65 218.7 24.4 218.7 31.25 218.7 36.15 220.55 39.8 221.25 41.25 222.3 42.5 225.9 46.85 231.5 46.85 235.75 46.85 238.85 44.4 L239.85 43.6 Q242.05 41.55 242.05 38.9 242.05 37.45 241.45 36.5 240.1 38.35 237.85 39.6 235.55 40.75 233.45 40.75 231.05 40.75 229.6 39.3 228.2 37.85 227.7 35.05 233.05 33.7 236.35 30.5 239.7 27.2 239.7 23.4 L239.7 22.8 M232.9 25.8 L233.15 24.2 Q233.15 21.4 230.65 21.4 229.0 21.4 227.75 23.25 226.55 25.1 226.55 27.65 226.55 28.8 226.9 30.1 L228.3 29.7 M232.9 25.8 Q232.05 28.35 228.3 29.7 M204.5 13.3 L203.85 12.9 Q202.8 11.95 202.8 10.65 L202.8 10.35 Q202.8 7.75 206.3 5.55 208.55 4.15 210.65 4.15 214.65 4.15 214.65 7.7 L214.5 9.0 M211.5 17.35 Q213.1 17.55 213.1 19.45 L212.9 21.65 M213.85 43.8 L214.15 44.2 213.95 44.3 M205.45 45.5 Q204.0 44.15 204.0 40.75 L204.15 35.85 204.2 29.75 Q204.2 22.25 203.0 20.8 L203.35 20.75 Q204.2 20.5 206.95 18.7 L208.1 18.05 M204.5 13.3 L206.55 13.75 Q209.55 13.75 212.2 11.8 214.0 10.55 214.5 9.0 M211.5 17.35 L211.0 17.3 Q209.6 17.3 208.1 18.05 M213.85 43.8 Q212.0 41.1 212.0 33.5 L212.2 27.65 212.7 22.95 212.9 21.65 M205.45 45.5 Q206.4 46.35 207.95 46.35 210.15 46.35 211.55 45.55 212.75 44.95 213.95 44.3 M178.55 19.75 Q179.75 17.8 181.75 16.55 184.05 15.05 186.65 15.05 191.25 15.05 194.0 19.0 195.75 21.45 196.4 24.9 196.8 26.95 196.8 29.35 196.8 37.1 193.2 42.05 189.6 47.0 184.0 47.0 180.9 47.0 177.5 45.0 L177.5 45.3 177.6 47.6 177.8 50.4 Q178.0 52.65 178.5 54.3 L178.95 56.1 Q178.95 57.65 177.15 58.95 175.4 60.2 173.1 60.2 171.95 60.2 171.25 59.7 170.5 59.2 170.25 58.25 169.6 56.5 169.6 50.05 L170.0 38.45 170.45 28.65 170.2 23.55 170.1 22.95 Q169.55 19.8 168.3 18.8 L171.45 16.9 Q174.35 15.05 175.8 15.05 176.55 15.05 177.1 15.4 177.95 15.9 177.95 18.15 L178.05 19.5 M178.55 19.75 L178.1 20.45 178.05 19.5 M141.7 28.05 Q140.3 26.05 140.3 23.75 140.3 20.25 143.6 17.9 146.85 15.55 151.85 15.55 156.7 15.55 159.8 17.15 162.95 18.65 162.95 20.95 L162.6 22.25 161.5 23.75 160.3 25.05 Q159.2 23.25 156.9 22.1 154.6 20.95 152.3 20.95 148.85 20.95 148.85 23.3 148.85 23.9 149.2 24.35 149.55 24.85 151.15 25.9 152.9 27.05 156.25 29.0 159.8 31.15 161.3 32.9 163.1 35.15 163.25 37.85 L163.25 38.25 Q163.25 42.5 160.15 45.0 157.05 47.5 151.85 47.5 146.75 47.5 142.0 45.0 L140.85 44.35 139.35 43.5 138.55 43.05 138.35 43.0 139.3 42.05 140.5 40.75 Q141.85 39.25 143.5 39.25 L144.9 39.5 147.0 40.45 Q149.0 41.3 151.15 41.3 152.6 41.3 153.55 40.6 L153.95 40.15 M121.8 42.6 L121.75 42.55 Q119.95 39.5 119.95 33.2 L119.95 32.4 Q119.95 29.7 120.25 25.55 M115.1 21.15 Q112.4 20.75 112.4 19.15 112.4 18.65 112.75 18.0 L115.5 14.7 115.65 14.55 116.5 15.1 119.2 15.5 119.95 15.4 121.15 15.4 121.35 15.4 121.5 11.65 Q121.55 9.5 121.7 9.15 L121.85 7.85 Q122.0 6.55 122.85 5.95 123.95 5.25 125.35 4.9 L129.9 3.95 Q131.15 3.95 131.15 5.2 L130.55 7.2 130.2 8.45 Q129.25 11.9 129.1 15.25 L131.05 15.35 132.85 15.4 Q135.95 15.4 137.4 16.9 L137.2 17.0 136.25 18.45 135.0 19.75 133.1 20.6 130.0 21.1 128.6 21.0 128.35 21.0 128.35 21.4 128.1 27.0 127.8 31.1 Q127.8 36.55 129.4 38.45 130.8 40.05 132.95 40.05 135.8 40.05 137.85 37.65 L137.9 38.45 Q137.9 41.85 135.45 44.15 L135.3 44.3 Q132.85 46.5 129.4 46.5 124.2 46.5 121.8 42.6 M141.7 28.05 Q143.1 30.0 145.85 31.7 L150.3 34.4 Q152.5 35.8 152.95 36.15 154.4 37.35 154.4 38.65 154.4 39.5 153.95 40.15 M188.75 27.55 Q188.05 21.9 184.55 21.9 181.75 21.9 179.8 25.85 177.85 29.9 177.85 35.7 L177.85 37.85 179.3 39.35 M188.75 27.55 L188.9 30.5 Q188.9 35.05 187.25 37.95 185.55 40.8 183.0 40.8 181.1 40.8 179.3 39.35 M88.1 22.2 Q86.55 21.15 86.55 18.8 86.55 17.65 87.2 16.25 90.15 17.4 100.55 17.4 L111.5 16.55 Q111.85 17.5 111.85 19.5 L111.6 21.25 111.25 21.9 107.8 26.35 103.7 31.25 Q99.8 36.15 96.95 40.3 L96.65 40.7 100.95 40.9 101.05 40.9 Q109.4 40.9 112.9 39.25 113.3 40.45 113.3 41.3 113.3 43.0 112.6 44.2 111.9 45.35 110.55 45.95 107.95 47.15 99.1 47.15 L90.4 46.8 87.9 46.4 Q85.65 45.7 85.65 44.05 85.65 42.75 89.5 37.6 L97.35 27.55 M88.1 22.2 L88.3 22.3 Q90.0 23.25 94.55 23.25 L100.8 23.1 97.35 27.55 M115.1 21.15 L117.25 21.3 118.55 21.25 120.4 21.15 120.7 21.15 120.6 21.4 120.25 25.55 M77.35 15.35 L79.15 15.4 Q82.25 15.4 83.7 16.9 L83.45 17.0 82.55 18.45 81.25 19.75 79.35 20.6 76.25 21.1 74.9 21.0 74.6 21.0 74.6 21.4 74.4 27.0 74.1 31.1 Q74.1 36.55 75.7 38.45 77.05 40.05 79.2 40.05 82.1 40.05 84.1 37.65 L84.2 38.45 Q84.2 41.85 81.75 44.15 L81.6 44.3 Q79.1 46.5 75.7 46.5 70.5 46.5 68.1 42.6 L68.05 42.55 Q66.25 39.5 66.25 33.2 L66.25 32.4 Q66.25 29.7 66.55 25.55 L66.9 21.4 67.0 21.15 66.7 21.15 64.8 21.25 63.5 21.3 61.4 21.2 Q58.7 20.75 58.7 19.15 58.7 18.65 59.05 18.0 L61.8 14.7 61.95 14.55 62.8 15.1 65.45 15.5 66.25 15.4 67.4 15.4 67.6 15.4 67.75 11.65 68.0 9.15 68.15 7.85 Q68.25 6.55 69.15 5.95 70.2 5.25 71.65 4.9 74.95 3.95 76.2 3.95 77.4 3.95 77.4 5.2 L76.85 7.2 76.5 8.45 M77.35 15.35 L75.4 15.25 Q75.55 11.9 76.5 8.45 M49.65 25.8 L49.9 24.2 Q49.9 21.4 47.4 21.4 45.75 21.4 44.5 23.25 43.3 25.1 43.3 27.65 43.3 28.8 43.65 30.1 L45.05 29.7 M49.65 25.8 Q48.8 28.35 45.05 29.7 M56.45 22.8 Q56.25 19.5 54.0 17.3 51.5 14.9 47.8 14.9 42.7 14.9 39.1 19.65 35.45 24.4 35.45 31.25 35.45 36.15 37.3 39.8 38.0 41.25 39.05 42.5 42.65 46.85 48.25 46.85 52.5 46.85 55.6 44.4 L56.55 43.65 Q58.75 41.55 58.75 38.9 58.75 37.45 58.2 36.5 56.8 38.35 54.6 39.6 52.3 40.75 50.2 40.75 47.8 40.75 46.35 39.3 44.95 37.85 44.45 35.05 49.75 33.7 53.1 30.5 56.45 27.2 56.45 23.4 L56.45 22.8 M5.8 43.7 L3.95 42.05 2.4 40.7 2.0 40.55 4.6 39.25 Q6.65 37.95 8.2 37.95 9.45 37.95 11.45 39.0 14.05 40.4 16.2 40.4 18.8 40.4 19.9 38.65 20.95 37.0 20.95 32.9 L21.05 26.4 Q21.1 21.15 20.45 11.5 20.1 6.85 19.4 4.6 21.55 4.55 23.5 3.75 L25.55 2.9 Q26.65 2.45 27.6 2.45 29.15 2.45 29.15 4.3 L29.1 6.75 M5.8 43.7 Q10.3 47.15 16.7 47.15 20.1 47.15 23.1 45.85 26.05 44.5 27.5 42.5 29.3 39.8 29.3 35.65 L29.1 29.45 Q28.8 24.9 28.8 17.7 L28.95 11.0 29.1 6.75" fill="none" stroke="#ffffff" stroke-linecap="round" stroke-linejoin="round" stroke-width="1.0"/>
  </g>
  <defs>
    <linearGradient gradientTransform="matrix(0.0, -0.027, 0.0273, 0.0, 15.65, 24.75)" gradientUnits="userSpaceOnUse" id="gradient0" spreadMethod="pad" x1="-819.2" x2="819.2">
      <stop offset="0.00392156862745098" stop-color="#e1e1e1"/>
      <stop offset="1.0" stop-color="#ffffff"/>
    </linearGradient>
  </defs>
</svg>
