<?xml version="1.0" encoding="UTF-8" standalone="no"?>
<svg xmlns:xlink="http://www.w3.org/1999/xlink" height="63.7px" width="167.3px" xmlns="http://www.w3.org/2000/svg">
  <g transform="matrix(1.0, 0.0, 0.0, 1.0, -1.5, -1.5)">
    <path d="M161.65 38.75 Q160.2 37.05 160.2 33.15 160.2 31.0 160.9 24.4 161.6 17.9 162.85 10.7 L163.45 6.65 Q164.95 7.3 164.95 9.7 L164.3 15.0 Q163.05 22.2 162.35 28.7 161.6 35.35 161.6 37.5 L161.65 38.75 M153.75 43.7 Q155.85 46.85 160.55 46.85 163.65 46.85 165.5 45.2 L166.3 44.35 Q167.5 44.3 168.55 43.6 L168.8 44.9 Q168.8 47.8 166.95 49.5 165.05 51.15 162.0 51.15 157.25 51.15 155.15 47.95 154.15 46.4 153.75 43.7 M145.45 25.1 Q147.2 28.65 147.2 33.75 147.2 41.45 143.6 46.4 140.0 51.4 134.4 51.4 131.3 51.4 127.9 49.35 L127.9 49.65 128.0 51.95 128.2 54.75 Q128.45 57.0 128.95 58.65 L129.35 60.45 Q129.35 62.05 127.55 63.35 125.85 64.55 123.55 64.55 121.25 64.55 120.65 62.6 120.35 61.75 120.2 59.75 120.9 60.25 122.1 60.25 124.4 60.25 126.1 59.0 127.9 57.7 127.9 56.15 L127.5 54.35 Q127.0 52.7 126.75 50.45 L126.55 47.65 126.5 45.35 126.5 45.05 126.65 45.1 Q129.95 47.05 132.95 47.05 138.6 47.05 142.2 42.1 145.8 37.15 145.8 29.4 145.8 27.1 145.45 25.1 M119.15 23.65 L118.7 23.15 119.05 22.95 119.15 23.65 M127.0 19.5 L127.5 19.75 127.05 20.5 127.0 19.5 M137.7 27.55 Q136.65 26.25 135.0 26.25 132.15 26.25 130.25 30.2 128.4 34.0 128.3 39.4 L126.85 37.9 126.85 35.75 Q126.85 29.95 128.8 25.9 130.75 21.95 133.55 21.95 137.0 21.95 137.7 27.55 M96.3 20.8 Q97.95 20.9 97.95 22.8 L97.75 25.15 97.4 28.0 Q97.05 32.5 97.05 36.2 97.05 38.05 97.4 42.6 L97.95 52.8 Q97.95 65.2 87.05 65.2 79.9 65.2 79.25 60.4 L79.05 58.95 78.95 58.85 78.9 58.75 78.95 58.75 Q80.8 60.9 85.6 60.9 96.55 60.9 96.55 48.5 96.55 45.4 95.95 38.3 95.6 33.75 95.6 31.85 95.6 28.2 95.95 23.65 L96.3 20.85 96.3 20.8 M88.85 46.0 Q85.6 50.45 81.2 50.45 77.75 50.45 76.0 48.65 74.7 47.35 73.7 43.95 L73.3 42.4 74.55 44.35 Q76.3 46.15 79.75 46.15 84.7 46.15 88.25 40.45 L88.4 40.1 88.4 40.5 88.85 46.0 M71.7 24.6 L71.6 24.55 71.7 24.5 71.7 24.6 M79.9 20.4 Q81.5 20.8 81.5 22.95 L81.0 27.6 80.35 31.8 Q79.95 34.6 79.95 38.05 L79.95 38.55 Q78.55 37.4 78.55 33.75 78.55 30.3 78.9 27.5 L79.55 23.3 79.9 20.4 M114.7 43.35 L115.1 43.6 Q116.4 44.6 116.4 46.2 116.4 48.35 114.3 49.85 112.15 51.3 109.05 51.3 106.9 51.3 105.7 50.3 104.4 49.35 104.4 47.7 104.4 46.95 104.7 46.35 105.8 47.0 107.6 47.0 110.7 47.0 112.85 45.55 114.2 44.55 114.7 43.35 M55.3 20.2 Q54.55 20.95 53.9 21.85 L54.0 19.3 Q54.95 19.4 55.3 20.2 M46.55 45.55 Q47.7 46.7 49.8 46.7 53.2 46.7 55.2 43.8 L55.5 44.95 Q56.15 47.15 57.0 47.55 54.9 51.0 51.25 51.0 46.8 51.0 46.55 45.55 M55.0 42.75 Q54.5 42.1 54.05 40.65 53.4 38.55 53.4 36.25 53.4 31.75 56.65 26.7 58.35 23.9 60.45 23.9 61.75 23.9 62.6 24.65 63.55 25.45 63.65 26.55 65.5 25.95 66.7 24.6 67.7 23.55 67.85 22.3 69.3 23.8 69.3 26.05 69.3 27.6 68.15 28.9 66.95 30.3 65.05 30.85 65.0 29.8 64.05 29.0 63.2 28.2 61.9 28.2 59.8 28.2 58.1 31.0 54.85 36.05 54.85 40.6 54.85 41.7 55.0 42.75 M40.35 28.3 L41.5 27.7 Q41.95 29.3 41.95 30.85 41.95 32.3 41.6 33.25 40.75 35.55 37.55 35.9 L37.55 38.95 Q37.55 42.1 37.9 44.4 L38.05 45.55 Q38.05 46.9 37.0 47.4 L32.4 49.75 Q28.8 51.65 23.45 51.65 14.45 51.65 9.0 45.5 5.45 41.5 4.2 35.95 5.5 38.8 7.55 41.15 13.0 47.35 22.0 47.35 27.35 47.35 30.95 45.4 L35.55 43.1 Q36.65 42.6 36.65 41.25 L36.5 40.1 Q36.1 37.75 36.1 34.6 L36.1 31.6 Q39.3 31.2 40.15 28.9 L40.35 28.3 M34.7 9.5 Q36.2 11.0 36.2 12.8 36.2 16.8 32.3 18.35 31.35 16.3 28.9 14.9 26.4 13.45 23.8 13.45 18.85 13.45 15.9 17.55 12.95 21.65 12.95 28.5 12.95 31.3 13.45 33.75 11.5 29.7 11.5 24.15 11.5 17.35 14.45 13.2 17.4 9.1 22.35 9.1 24.95 9.1 27.5 10.55 29.95 12.0 30.85 14.0 34.2 12.7 34.7 9.5 M27.45 36.65 Q24.45 37.0 23.0 38.05 L23.0 37.5 Q23.0 34.5 23.75 32.8 L27.4 32.25 27.4 32.5 27.55 34.7 27.45 36.65" fill="#ab0709" fill-rule="evenodd" stroke="none"/>
    <path d="M163.45 6.65 L162.85 10.7 Q161.6 17.9 160.9 24.4 160.2 31.0 160.2 33.15 160.2 37.05 161.65 38.75 162.75 40.0 164.65 40.0 166.0 40.0 167.1 39.3 167.4 39.7 167.4 40.6 167.4 42.8 166.3 44.35 L165.5 45.2 Q163.65 46.85 160.55 46.85 155.85 46.85 153.75 43.7 L153.7 43.6 Q152.1 41.15 152.1 35.95 L152.2 34.15 Q152.4 28.55 153.2 20.7 154.0 12.05 154.0 9.5 154.0 7.3 153.2 5.8 L153.55 5.75 156.35 3.65 Q158.65 2.05 160.7 2.05 163.5 2.05 163.5 5.35 L163.45 6.65 M127.5 19.75 Q128.75 17.8 130.75 16.6 133.05 15.1 135.65 15.1 140.25 15.1 142.95 19.05 144.75 21.55 145.45 25.1 145.8 27.1 145.8 29.4 145.8 37.15 142.2 42.1 138.6 47.05 132.95 47.05 129.95 47.05 126.65 45.1 L126.5 45.05 126.5 45.35 126.55 47.65 126.75 50.45 Q127.0 52.7 127.5 54.35 L127.9 56.15 Q127.9 57.7 126.1 59.0 124.4 60.25 122.1 60.25 120.9 60.25 120.2 59.75 119.5 59.25 119.2 58.3 118.55 56.55 118.55 50.1 118.55 45.9 119.0 38.5 L119.45 28.7 119.15 23.65 119.05 22.95 Q118.5 19.85 117.25 18.85 L120.45 16.95 Q123.3 15.1 124.75 15.1 125.55 15.1 126.05 15.45 126.9 15.95 126.9 18.2 L127.0 19.5 127.05 20.5 127.5 19.75 M128.3 39.4 Q130.1 40.85 131.95 40.85 134.55 40.85 136.2 38.0 137.85 35.1 137.85 30.55 L137.7 27.55 Q137.0 21.95 133.55 21.95 130.75 21.95 128.8 25.9 126.85 29.95 126.85 35.75 L126.85 37.9 128.3 39.4 M79.95 38.55 Q80.6 39.05 81.55 39.05 83.95 39.05 85.8 35.7 87.6 32.25 87.75 27.7 L87.8 23.65 Q87.8 20.7 86.95 19.55 L87.25 19.5 90.85 17.6 Q93.15 16.45 94.65 16.45 96.55 16.45 96.55 18.5 L96.3 20.8 96.3 20.85 95.95 23.65 Q95.6 28.2 95.6 31.85 95.6 33.75 95.95 38.3 96.55 45.4 96.55 48.5 96.55 60.9 85.6 60.9 80.8 60.9 78.95 58.75 78.0 57.65 77.8 56.05 L77.6 54.6 77.5 54.55 77.45 54.4 Q78.95 53.4 80.9 53.4 L82.4 53.55 84.45 53.85 85.1 53.85 Q87.25 53.85 88.05 52.55 88.85 51.15 88.85 47.65 L88.85 46.0 88.4 40.5 88.4 40.1 88.25 40.45 Q84.7 46.15 79.75 46.15 76.3 46.15 74.55 44.35 L73.3 42.4 72.25 39.65 Q71.25 36.25 71.25 33.3 L71.7 24.9 71.7 24.6 71.7 24.5 Q71.6 20.95 70.2 20.2 L73.4 17.7 Q75.7 15.95 77.65 15.95 80.05 15.95 80.05 18.6 L79.9 20.4 79.55 23.3 78.9 27.5 Q78.55 30.3 78.55 33.75 78.55 37.4 79.95 38.55 M104.7 46.35 L104.25 46.0 Q102.95 45.05 102.95 43.4 102.95 41.35 105.15 39.85 107.4 38.3 110.3 38.3 112.35 38.3 113.65 39.3 114.95 40.3 114.95 41.9 L114.7 43.35 Q114.2 44.55 112.85 45.55 110.7 47.0 107.6 47.0 105.8 47.0 104.7 46.35 M55.3 20.2 Q56.55 18.9 58.0 17.95 60.45 16.4 62.5 16.4 64.8 16.4 66.35 17.9 67.9 19.4 67.9 21.7 L67.85 22.3 Q67.7 23.55 66.7 24.6 65.5 25.95 63.65 26.55 63.55 25.45 62.6 24.65 61.75 23.9 60.45 23.9 58.35 23.9 56.65 26.7 53.4 31.75 53.4 36.25 53.4 38.55 54.05 40.65 54.5 42.1 55.0 42.75 L55.55 43.25 55.2 43.8 Q53.2 46.7 49.8 46.7 47.7 46.7 46.55 45.55 45.1 44.0 45.1 40.65 L45.65 33.0 45.85 28.2 Q45.85 20.95 44.6 18.7 L45.0 18.5 46.8 17.2 Q49.95 14.95 52.1 14.95 54.1 14.95 54.1 17.1 L54.0 19.3 53.9 21.85 Q54.55 20.95 55.3 20.2 M4.2 35.95 Q2.0 31.15 2.0 24.8 2.0 14.65 8.6 7.95 14.5 2.0 23.5 2.0 28.3 2.0 31.5 3.85 34.75 5.8 34.75 8.45 L34.7 9.5 Q34.2 12.7 30.85 14.0 29.95 12.0 27.5 10.55 24.95 9.1 22.35 9.1 17.4 9.1 14.45 13.2 11.5 17.35 11.5 24.15 11.5 29.7 13.45 33.75 L14.75 35.95 Q18.0 40.75 22.9 40.75 25.1 40.75 26.35 39.65 27.2 38.85 27.45 36.65 L27.55 34.7 27.4 32.5 27.4 32.25 23.75 32.8 Q22.45 33.15 21.6 33.75 L21.6 33.15 Q21.6 28.4 23.45 26.9 25.3 25.4 31.1 25.15 L36.4 24.8 Q38.05 24.45 40.1 23.35 40.5 24.95 40.5 26.55 L40.35 28.3 40.15 28.9 Q39.3 31.2 36.1 31.6 L36.1 34.6 Q36.1 37.75 36.5 40.1 L36.65 41.25 Q36.65 42.6 35.55 43.1 L30.95 45.4 Q27.35 47.35 22.0 47.35 13.0 47.35 7.55 41.15 5.5 38.8 4.2 35.95" fill="url(#gradient0)" fill-rule="evenodd" stroke="none"/>
    <path d="M163.45 6.65 L162.85 10.7 Q161.6 17.9 160.9 24.4 160.2 31.0 160.2 33.15 160.2 37.05 161.65 38.75 M163.45 6.65 L163.5 5.35 Q163.5 2.05 160.7 2.05 158.65 2.05 156.35 3.65 L153.55 5.75 153.2 5.8 Q154.0 7.3 154.0 9.5 154.0 12.05 153.2 20.7 152.4 28.55 152.2 34.15 L152.1 35.95 Q152.1 41.15 153.7 43.6 L153.75 43.7 Q155.85 46.85 160.55 46.85 163.65 46.85 165.5 45.2 L166.3 44.35 Q167.4 42.8 167.4 40.6 167.4 39.7 167.1 39.3 166.0 40.0 164.65 40.0 162.75 40.0 161.65 38.75 M127.5 19.75 Q128.75 17.8 130.75 16.6 133.05 15.1 135.65 15.1 140.25 15.1 142.95 19.05 144.75 21.55 145.45 25.1 145.8 27.1 145.8 29.4 145.8 37.15 142.2 42.1 138.6 47.05 132.95 47.05 129.95 47.05 126.65 45.1 L126.5 45.05 126.5 45.35 126.55 47.65 126.75 50.45 Q127.0 52.7 127.5 54.35 L127.9 56.15 Q127.9 57.7 126.1 59.0 124.4 60.25 122.1 60.25 120.9 60.25 120.2 59.75 119.5 59.25 119.2 58.3 118.55 56.55 118.55 50.1 118.55 45.9 119.0 38.5 L119.45 28.7 119.15 23.65 M119.05 22.95 Q118.5 19.85 117.25 18.85 L120.45 16.95 Q123.3 15.1 124.75 15.1 125.55 15.1 126.05 15.45 126.9 15.95 126.9 18.2 L127.0 19.5 M127.5 19.75 L127.05 20.5 127.0 19.5 M128.3 39.4 Q130.1 40.85 131.95 40.85 134.55 40.85 136.2 38.0 137.85 35.1 137.85 30.55 L137.7 27.55 M128.3 39.4 L126.85 37.9 126.85 35.75 Q126.85 29.95 128.8 25.9 130.75 21.95 133.55 21.95 137.0 21.95 137.7 27.55 M119.05 22.95 L119.15 23.65 M79.95 38.55 Q80.6 39.05 81.55 39.05 83.95 39.05 85.8 35.7 87.6 32.25 87.75 27.7 L87.8 23.65 Q87.8 20.7 86.95 19.55 L87.25 19.5 90.85 17.6 Q93.15 16.45 94.65 16.45 96.55 16.45 96.55 18.5 L96.3 20.8 96.3 20.85 95.95 23.65 Q95.6 28.2 95.6 31.85 95.6 33.75 95.95 38.3 96.55 45.4 96.55 48.5 96.55 60.9 85.6 60.9 80.8 60.9 78.95 58.75 78.0 57.65 77.8 56.05 L77.6 54.6 77.5 54.55 77.45 54.4 Q78.95 53.4 80.9 53.4 L82.4 53.55 84.45 53.85 85.1 53.85 Q87.25 53.85 88.05 52.55 88.85 51.15 88.85 47.65 L88.85 46.0 88.4 40.5 88.4 40.1 88.25 40.45 Q84.7 46.15 79.75 46.15 76.3 46.15 74.55 44.35 L73.3 42.4 72.25 39.65 Q71.25 36.25 71.25 33.3 L71.7 24.9 71.7 24.6 71.7 24.5 Q71.6 20.95 70.2 20.2 L73.4 17.7 Q75.7 15.95 77.65 15.95 80.05 15.95 80.05 18.6 L79.9 20.4 M79.95 38.55 Q78.55 37.4 78.55 33.75 78.55 30.3 78.9 27.5 L79.55 23.3 79.9 20.4 M104.7 46.35 L104.25 46.0 Q102.95 45.05 102.95 43.4 102.95 41.35 105.15 39.85 107.4 38.3 110.3 38.3 112.35 38.3 113.65 39.3 114.95 40.3 114.95 41.9 L114.7 43.35 M104.7 46.35 Q105.8 47.0 107.6 47.0 110.7 47.0 112.85 45.55 114.2 44.55 114.7 43.35 M67.85 22.3 L67.9 21.7 Q67.9 19.4 66.35 17.9 64.8 16.4 62.5 16.4 60.45 16.4 58.0 17.95 56.55 18.9 55.3 20.2 54.55 20.95 53.9 21.85 L54.0 19.3 54.1 17.1 Q54.1 14.95 52.1 14.95 49.95 14.95 46.8 17.2 L45.0 18.5 44.6 18.7 Q45.85 20.95 45.85 28.2 L45.65 33.0 45.1 40.65 Q45.1 44.0 46.55 45.55 47.7 46.7 49.8 46.7 53.2 46.7 55.2 43.8 L55.55 43.25 55.0 42.75 Q54.5 42.1 54.05 40.65 53.4 38.55 53.4 36.25 53.4 31.75 56.65 26.7 58.35 23.9 60.45 23.9 61.75 23.9 62.6 24.65 63.55 25.45 63.65 26.55 65.5 25.95 66.7 24.6 67.7 23.55 67.85 22.3 M4.2 35.95 Q2.0 31.15 2.0 24.8 2.0 14.65 8.6 7.95 14.5 2.0 23.5 2.0 28.3 2.0 31.5 3.85 34.75 5.8 34.75 8.45 L34.7 9.5 Q34.2 12.7 30.85 14.0 29.95 12.0 27.5 10.55 24.95 9.1 22.35 9.1 17.4 9.1 14.45 13.2 11.5 17.35 11.5 24.15 11.5 29.7 13.45 33.75 L14.75 35.95 Q18.0 40.75 22.9 40.75 25.1 40.75 26.35 39.65 27.2 38.85 27.45 36.65 L27.55 34.7 27.4 32.5 27.4 32.25 23.75 32.8 Q22.45 33.15 21.6 33.75 L21.6 33.15 Q21.6 28.4 23.45 26.9 25.3 25.4 31.1 25.15 L36.4 24.8 Q38.05 24.45 40.1 23.35 40.5 24.95 40.5 26.55 L40.35 28.3 40.15 28.9 Q39.3 31.2 36.1 31.6 L36.1 34.6 Q36.1 37.75 36.5 40.1 L36.65 41.25 Q36.65 42.6 35.55 43.1 L30.95 45.4 Q27.35 47.35 22.0 47.35 13.0 47.35 7.55 41.15 5.5 38.8 4.2 35.95" fill="none" stroke="#ffffff" stroke-linecap="round" stroke-linejoin="round" stroke-width="1.0"/>
  </g>
  <defs>
    <linearGradient gradientTransform="matrix(0.0, -0.0268, 0.0277, 0.0, 21.2, 24.65)" gradientUnits="userSpaceOnUse" id="gradient0" spreadMethod="pad" x1="-819.2" x2="819.2">
      <stop offset="0.00392156862745098" stop-color="#e1e1e1"/>
      <stop offset="1.0" stop-color="#ffffff"/>
    </linearGradient>
  </defs>
</svg>
