<?xml version="1.0" encoding="UTF-8" standalone="no"?>
<svg xmlns:xlink="http://www.w3.org/1999/xlink" height="11.55px" width="9.0px" xmlns="http://www.w3.org/2000/svg">
  <g transform="matrix(1.0, 0.0, 0.0, 1.0, 0.5, -0.05)">
    <path d="M1.65 7.25 L1.7 7.7 Q1.8 8.35 1.05 8.8 0.3 9.25 0.1 9.6 L0.0 10.25 0.1 10.5 0.25 10.65 0.8 10.9 1.5 11.05 Q2.5 10.8 2.95 9.7 2.6 10.95 3.25 11.1 L4.4 11.1 5.05 10.9 5.65 9.6 6.0 10.9 7.3 11.05 Q7.8 11.05 7.95 10.55 L7.95 9.75 Q7.8 8.6 8.0 6.7 L8.0 2.2 7.75 1.35" fill="none" stroke="#4a2213" stroke-linecap="round" stroke-linejoin="round" stroke-width="1.0"/>
    <path d="M4.35 0.2 L5.2 0.05 6.65 0.2 6.85 4.45 Q6.8 7.3 6.0 9.0 7.1 9.15 7.9 10.4 L7.95 10.55 Q7.8 11.05 7.3 11.05 L6.0 10.9 5.55 9.85 5.05 10.9 4.4 11.1 3.25 11.1 3.2 11.1 Q2.65 10.95 2.7 10.2 L2.55 10.4 1.5 11.05 0.8 10.9 0.25 10.65 Q0.6 9.95 1.65 9.35 2.95 8.8 2.8 8.65 2.65 8.5 2.8 5.95 2.9 3.35 3.6 1.9 L4.35 0.2 M7.7 1.3 L7.75 1.35 7.8 1.5 7.7 1.3" fill="#ffc433" fill-rule="evenodd" stroke="none"/>
    <path d="M7.95 10.55 L7.9 10.4 Q7.1 9.15 6.0 9.0 6.8 7.3 6.85 4.45 L6.65 0.2 7.25 0.6 7.7 1.3 7.8 1.5 8.0 2.2 8.0 6.7 Q7.8 8.6 7.95 9.75 L7.95 10.55" fill="#ffb600" fill-rule="evenodd" stroke="none"/>
    <path d="M4.35 0.2 L3.6 1.9 Q2.9 3.35 2.8 5.95 2.65 8.5 2.8 8.65 2.95 8.8 1.65 9.35 0.6 9.95 0.25 10.65 L0.1 10.5 0.0 10.25 0.1 9.6 Q0.3 9.25 1.05 8.8 1.8 8.35 1.7 7.7 1.55 7.05 1.7 4.95 1.8 2.85 2.1 2.2 L2.5 1.25 Q2.6 1.0 3.05 0.7 L4.35 0.2" fill="#ffe095" fill-rule="evenodd" stroke="none"/>
  </g>
</svg>
