<?xml version="1.0" encoding="UTF-8" standalone="no"?>
<svg xmlns:xlink="http://www.w3.org/1999/xlink" height="21.5px" width="24.45px" xmlns="http://www.w3.org/2000/svg">
  <g transform="matrix(1.0, 0.0, 0.0, 1.0, 0.5, 0.5)">
    <path d="M20.9 9.1 Q20.5 7.15 19.5 5.45 18.1 3.2 15.75 1.8 13.3 0.25 10.45 0.0 L9.85 0.0 8.5 0.15 Q6.9 0.35 5.35 1.1 L4.3 1.55 Q-2.85 9.85 1.9 18.6 1.9 19.1 2.5 19.7 L2.55 19.7 10.45 20.5 15.25 19.95 Q18.1 19.1 19.6 16.55 21.0 14.25 21.1 11.7 22.05 11.25 22.65 10.15 23.45 8.7 23.45 6.85 L23.2 5.5 Q23.3 6.35 22.4 7.7 21.75 8.75 20.9 9.1 Z" fill="none" stroke="#583b18" stroke-linecap="round" stroke-linejoin="round" stroke-width="1.0"/>
    <path d="M20.9 9.1 L22.05 8.2 22.4 7.7 Q23.3 6.35 23.2 5.5 L23.45 6.85 Q23.45 8.7 22.65 10.15 L21.95 11.1 21.1 11.7 21.1 11.35 21.1 11.05 20.9 9.1 M21.1 10.2 Q22.05 9.7 22.5 8.95 L23.1 7.55 Q21.4 9.2 21.0 9.95 L21.1 10.2" fill="#deac2e" fill-rule="evenodd" stroke="none"/>
    <path d="M20.9 9.1 L21.1 11.05 21.1 11.35 21.1 11.7 Q21.0 14.25 19.6 16.55 18.1 19.1 15.25 19.95 L10.45 20.5 2.55 19.7 2.5 19.7 Q1.9 19.1 1.9 18.6 -2.85 9.85 4.3 1.55 L5.35 1.1 Q6.9 0.35 8.5 0.15 L9.85 0.0 10.45 0.0 Q13.3 0.25 15.75 1.8 18.1 3.2 19.5 5.45 20.5 7.15 20.9 9.1 M17.4 3.55 Q14.9 1.6 11.85 1.6 8.8 1.6 7.0 3.55 5.2 5.6 5.65 8.35 6.2 11.15 8.7 13.15 11.15 15.1 14.2 15.05 17.25 15.1 19.1 13.1 20.85 11.1 20.4 8.25 19.9 5.55 17.4 3.55" fill="#ffb600" fill-rule="evenodd" stroke="none"/>
    <path d="M21.1 11.7 L21.95 11.1 21.1 11.7 M21.1 10.2 L21.0 9.95 Q21.4 9.2 23.1 7.55 L22.5 8.95 Q22.05 9.7 21.1 10.2 M17.4 3.55 Q19.9 5.55 20.4 8.25 20.85 11.1 19.1 13.1 17.25 15.1 14.2 15.05 11.15 15.1 8.7 13.15 6.2 11.15 5.65 8.35 5.2 5.6 7.0 3.55 8.8 1.6 11.85 1.6 14.9 1.6 17.4 3.55" fill="#ffc433" fill-rule="evenodd" stroke="none"/>
  </g>
</svg>
