<?xml version="1.0" encoding="UTF-8" standalone="no"?>
<svg xmlns:xlink="http://www.w3.org/1999/xlink" height="63.0px" width="219.3px" xmlns="http://www.w3.org/2000/svg">
  <g transform="matrix(1.0, 0.0, 0.0, 1.0, -1.5, -1.5)">
    <path d="M205.65 29.7 L204.25 30.1 Q203.9 28.8 203.9 27.65 203.9 25.1 205.15 23.25 206.35 21.4 208.0 21.4 210.5 21.4 210.5 24.2 L210.25 25.8 209.45 25.7 Q207.8 25.7 206.55 27.55 205.95 28.55 205.65 29.7 M217.1 22.85 Q218.5 24.95 218.5 27.7 218.5 31.55 215.15 34.85 211.95 37.85 206.95 39.3 205.55 37.85 205.05 35.05 210.4 33.7 213.7 30.5 217.1 27.2 217.1 23.4 L217.1 22.85 M217.2 43.6 Q219.0 42.45 220.25 40.8 220.8 41.75 220.8 43.2 220.8 46.35 217.65 48.75 214.55 51.2 210.3 51.2 204.7 51.2 201.1 46.8 198.65 43.9 197.9 39.8 198.6 41.25 199.65 42.5 203.25 46.85 208.85 46.85 213.1 46.85 216.2 44.4 L217.2 43.6 M179.4 25.85 L177.5 24.35 Q177.1 23.9 177.1 23.3 177.1 20.95 180.6 20.95 182.9 20.95 185.2 22.1 187.5 23.25 188.55 25.05 L189.8 23.75 190.9 22.25 Q192.65 23.5 192.65 25.25 192.65 26.35 191.25 28.1 L190.0 29.35 Q188.95 27.55 186.65 26.4 184.3 25.25 182.0 25.25 180.25 25.25 179.4 25.85 M170.0 28.1 Q171.4 30.05 174.1 31.7 L178.55 34.4 181.25 36.15 Q182.65 37.35 182.65 38.65 182.65 39.5 182.2 40.15 L180.0 38.75 175.55 36.0 Q170.0 32.6 170.0 28.1 M170.3 45.0 Q175.0 47.5 180.15 47.5 185.35 47.5 188.45 45.0 191.5 42.5 191.5 38.25 L191.5 37.85 Q192.95 40.0 192.95 42.55 192.95 46.8 189.85 49.3 186.75 51.85 181.6 51.85 175.85 51.85 170.55 48.65 L168.25 47.35 168.05 47.3 170.2 45.05 170.3 45.0 M165.95 43.3 L166.35 43.55 Q167.6 44.55 167.6 46.15 167.6 48.3 165.55 49.8 163.4 51.25 160.3 51.25 158.1 51.25 156.9 50.25 155.6 49.3 155.6 47.65 155.6 46.9 155.9 46.25 157.05 46.95 158.85 46.95 161.95 46.95 164.1 45.5 165.45 44.5 165.95 43.3 M142.9 26.2 L142.65 26.2 141.4 26.35 Q142.05 25.55 142.05 24.7 L142.0 24.1 142.45 25.05 142.9 26.2 M120.65 40.65 L121.9 42.55 Q124.85 46.45 129.1 46.45 134.3 46.45 137.15 41.45 138.6 46.6 143.3 46.6 145.65 46.6 147.25 44.9 L147.3 44.85 147.6 44.85 Q149.05 44.85 150.0 43.75 L150.3 45.15 Q150.3 47.65 148.7 49.25 147.1 50.9 144.75 50.9 140.05 50.9 138.6 45.8 135.75 50.75 130.55 50.75 126.3 50.75 123.35 46.85 121.25 44.2 120.65 40.65 M144.3 39.95 Q142.85 38.8 142.85 35.35 142.85 32.75 143.4 30.6 L144.1 30.5 Q145.6 30.5 145.6 31.45 L145.45 32.7 144.9 34.65 Q144.3 36.95 144.3 39.65 L144.3 39.95 M127.85 38.75 L127.45 38.15 Q126.4 36.3 126.4 33.05 126.4 28.65 128.2 25.2 130.0 21.8 132.35 21.8 133.45 21.8 134.3 22.8 135.15 23.75 135.15 25.1 L135.15 26.6 Q134.5 26.15 133.8 26.15 131.4 26.15 129.6 29.5 127.8 32.95 127.8 37.35 L127.85 38.75 M136.3 28.0 L136.45 28.0 136.35 28.1 136.3 28.0 M113.85 6.6 Q115.35 7.2 115.35 9.65 L114.7 14.95 Q113.5 22.15 112.75 28.65 112.05 35.3 112.05 37.45 L112.1 38.75 Q110.6 37.05 110.6 33.1 110.6 30.95 111.35 24.35 112.05 17.85 113.3 10.65 L113.85 6.6 M116.7 44.3 Q117.95 44.25 118.95 43.55 L119.25 44.85 Q119.25 47.75 117.4 49.45 115.5 51.1 112.4 51.1 107.65 51.1 105.55 47.9 104.55 46.35 104.2 43.65 106.25 46.8 110.95 46.8 114.05 46.8 115.95 45.15 L116.7 44.3 M86.1 39.3 Q84.7 37.85 84.2 35.05 89.5 33.7 92.85 30.5 96.2 27.2 96.2 23.4 L96.2 22.8 Q97.65 24.85 97.65 27.7 97.65 31.55 94.25 34.85 91.1 37.85 86.1 39.3 M77.05 39.8 Q77.75 41.25 78.8 42.5 82.4 46.85 88.0 46.85 92.25 46.85 95.35 44.4 L96.3 43.65 Q98.15 42.5 99.4 40.8 99.95 41.75 99.95 43.2 99.95 46.35 96.8 48.75 93.7 51.2 89.45 51.2 83.85 51.2 80.25 46.8 77.8 43.9 77.05 39.8 M84.8 29.7 L83.4 30.1 Q83.05 28.8 83.05 27.65 83.05 25.1 84.25 23.25 85.5 21.4 87.15 21.4 89.65 21.4 89.65 24.2 L89.4 25.8 88.6 25.7 Q86.95 25.7 85.7 27.55 85.1 28.55 84.8 29.7 M43.25 23.6 L42.8 23.1 43.15 22.9 43.25 23.6 M51.1 19.45 L51.6 19.7 51.15 20.45 51.1 19.45 M69.45 24.9 Q71.3 28.5 71.3 33.7 71.3 41.4 67.7 46.35 64.1 51.35 58.5 51.35 55.4 51.35 52.0 49.3 L52.0 49.6 52.1 51.9 52.3 54.7 Q52.5 56.95 53.05 58.6 L53.45 60.4 Q53.45 62.0 51.65 63.3 49.95 64.5 47.65 64.5 45.3 64.5 44.75 62.55 44.45 61.7 44.3 59.7 45.0 60.2 46.2 60.2 48.5 60.2 50.2 58.95 52.0 57.65 52.0 56.1 L51.6 54.3 Q51.1 52.65 50.85 50.4 L50.65 47.6 50.6 45.3 50.6 45.0 50.7 45.05 Q54.05 47.0 57.05 47.0 62.65 47.0 66.25 42.05 69.85 37.1 69.85 29.35 69.85 26.95 69.45 24.9 M61.8 27.55 Q60.75 26.2 59.05 26.2 56.25 26.2 54.3 30.15 52.5 33.95 52.4 39.35 L50.95 37.85 50.95 35.7 Q50.95 29.9 52.9 25.85 54.85 21.9 57.65 21.9 61.15 21.9 61.8 27.55 M35.0 10.9 Q36.55 12.45 36.55 14.25 36.55 15.6 35.6 16.7 L32.6 19.2 32.3 19.45 Q30.85 16.9 27.6 15.05 24.3 13.15 21.3 13.15 19.2 13.15 17.9 14.25 17.15 14.85 16.85 15.6 L15.9 14.75 Q15.15 13.8 15.15 12.5 15.15 10.95 16.45 9.95 17.75 8.85 19.85 8.85 22.85 8.85 26.2 10.7 29.4 12.6 30.85 15.1 L31.15 14.9 34.15 12.4 35.0 10.9 M36.65 32.8 Q38.2 35.4 38.2 38.75 38.2 44.55 33.95 48.1 29.65 51.6 22.6 51.6 13.15 51.6 6.8 45.7 L3.45 42.6 5.2 41.25 5.35 41.4 Q11.7 47.3 21.15 47.3 28.2 47.3 32.5 43.75 36.75 40.25 36.75 34.4 L36.65 32.8 M27.9 36.15 L27.6 35.9 Q26.1 34.55 20.8 31.7 18.1 30.25 14.5 28.0 7.75 23.7 7.35 18.2 9.1 21.15 13.1 23.7 L19.35 27.35 Q24.65 30.25 26.2 31.6 27.9 33.2 27.9 35.5 L27.9 36.15" fill="#ab0709" fill-rule="evenodd" stroke="none"/>
    <path d="M210.25 25.8 L210.5 24.2 Q210.5 21.4 208.0 21.4 206.35 21.4 205.15 23.25 203.9 25.1 203.9 27.65 203.9 28.8 204.25 30.1 L205.65 29.7 Q209.4 28.35 210.25 25.8 M197.9 39.8 Q196.05 36.15 196.05 31.25 196.05 24.4 199.75 19.65 203.35 14.9 208.45 14.9 212.1 14.9 214.65 17.3 216.9 19.5 217.1 22.85 L217.1 23.4 Q217.1 27.2 213.7 30.5 210.4 33.7 205.05 35.05 205.55 37.85 206.95 39.3 208.4 40.75 210.8 40.75 212.9 40.75 215.2 39.6 217.45 38.35 218.8 36.5 219.4 37.45 219.4 38.9 219.4 41.55 217.2 43.6 L216.2 44.4 Q213.1 46.85 208.85 46.85 203.25 46.85 199.65 42.5 198.6 41.25 197.9 39.8 M190.9 22.25 L189.8 23.75 188.55 25.05 Q187.5 23.25 185.2 22.1 182.9 20.95 180.6 20.95 177.1 20.95 177.1 23.3 177.1 23.9 177.5 24.35 L179.4 25.85 184.55 29.0 Q188.05 31.15 189.6 32.9 191.35 35.15 191.5 37.85 L191.5 38.25 Q191.5 42.5 188.45 45.0 185.35 47.5 180.15 47.5 175.0 47.5 170.3 45.0 L169.15 44.35 166.85 43.05 166.6 43.0 168.75 40.75 Q170.15 39.25 171.8 39.25 L173.15 39.5 175.25 40.45 Q177.25 41.3 179.45 41.3 180.85 41.3 181.8 40.6 L182.2 40.15 Q182.65 39.5 182.65 38.65 182.65 37.35 181.25 36.15 L178.55 34.4 174.1 31.7 Q171.4 30.05 170.0 28.1 168.55 26.1 168.55 23.75 168.55 20.25 171.85 17.9 175.1 15.55 180.15 15.55 184.95 15.55 188.05 17.15 191.25 18.65 191.25 20.95 L190.9 22.25 M155.9 46.25 L155.45 45.95 Q154.15 45.0 154.15 43.35 154.15 41.3 156.4 39.8 158.65 38.25 161.5 38.25 163.6 38.25 164.9 39.25 166.2 40.25 166.2 41.85 L166.1 42.85 165.95 43.3 Q165.45 44.5 164.1 45.5 161.95 46.95 158.85 46.95 157.05 46.95 155.9 46.25 M142.0 24.1 L142.05 24.7 Q142.05 25.55 141.4 26.35 L142.65 26.2 142.9 26.2 Q144.15 26.25 144.15 27.15 L144.0 28.35 143.45 30.3 143.4 30.6 Q142.85 32.75 142.85 35.35 142.85 38.8 144.3 39.95 145.05 40.55 146.15 40.55 147.6 40.55 148.55 39.45 L148.85 40.8 Q148.85 43.3 147.3 44.85 L147.25 44.9 Q145.65 46.6 143.3 46.6 138.6 46.6 137.15 41.45 134.3 46.45 129.1 46.45 124.85 46.45 121.9 42.55 L120.65 40.65 Q118.95 37.4 118.95 33.2 118.95 26.35 123.3 21.0 127.65 15.6 133.2 15.6 138.9 15.6 141.0 20.75 141.8 22.85 142.0 24.1 M135.15 26.6 L135.15 25.1 Q135.15 23.75 134.3 22.8 133.45 21.8 132.35 21.8 130.0 21.8 128.2 25.2 126.4 28.65 126.4 33.05 126.4 36.3 127.45 38.15 L127.85 38.75 Q128.85 40.05 130.4 40.05 134.1 40.05 135.3 32.1 L135.9 28.95 Q136.0 28.5 136.35 28.1 L136.45 28.0 136.3 28.0 Q135.2 27.8 135.15 26.6 M112.1 38.75 Q113.2 39.95 115.1 39.95 116.45 39.95 117.5 39.25 117.8 39.65 117.8 40.55 117.8 42.75 116.7 44.3 L115.95 45.15 Q114.05 46.8 110.95 46.8 106.25 46.8 104.2 43.65 L104.15 43.55 Q102.55 41.1 102.55 35.9 L102.6 34.1 Q102.85 28.5 103.65 20.65 L104.4 9.45 Q104.4 7.25 103.65 5.75 L104.0 5.7 106.8 3.6 Q109.1 2.0 111.1 2.0 113.9 2.0 113.9 5.3 L113.85 6.6 113.3 10.65 Q112.05 17.85 111.35 24.35 110.6 30.95 110.6 33.1 110.6 37.05 112.1 38.75 M96.2 22.8 L96.2 23.4 Q96.2 27.2 92.85 30.5 89.5 33.7 84.2 35.05 84.7 37.85 86.1 39.3 87.55 40.75 89.95 40.75 92.05 40.75 94.35 39.6 96.6 38.35 97.95 36.5 98.5 37.45 98.5 38.9 98.5 41.55 96.3 43.65 L95.35 44.4 Q92.25 46.85 88.0 46.85 82.4 46.85 78.8 42.5 77.75 41.25 77.05 39.8 75.2 36.15 75.2 31.25 75.2 24.4 78.85 19.65 82.45 14.9 87.6 14.9 91.25 14.9 93.75 17.3 96.0 19.5 96.2 22.8 M89.4 25.8 L89.65 24.2 Q89.65 21.4 87.15 21.4 85.5 21.4 84.25 23.25 83.05 25.1 83.05 27.65 83.05 28.8 83.4 30.1 L84.8 29.7 Q88.55 28.35 89.4 25.8 M43.25 23.6 L43.15 22.9 Q42.6 19.8 41.35 18.8 L44.55 16.9 Q47.4 15.05 48.85 15.05 49.65 15.05 50.15 15.4 51.0 15.9 51.0 18.15 L51.1 19.45 51.15 20.45 51.6 19.7 Q52.85 17.75 54.85 16.55 57.15 15.05 59.7 15.05 64.35 15.05 67.05 19.0 68.8 21.45 69.45 24.9 69.85 26.95 69.85 29.35 69.85 37.1 66.25 42.05 62.65 47.0 57.05 47.0 54.05 47.0 50.7 45.05 L50.6 45.0 50.6 45.3 50.65 47.6 50.85 50.4 Q51.1 52.65 51.6 54.3 L52.0 56.1 Q52.0 57.65 50.2 58.95 48.5 60.2 46.2 60.2 45.0 60.2 44.3 59.7 43.6 59.2 43.3 58.25 42.65 56.5 42.65 50.05 42.65 45.85 43.1 38.45 L43.55 28.65 43.25 23.6 M61.8 27.55 Q61.15 21.9 57.65 21.9 54.85 21.9 52.9 25.85 50.95 29.9 50.95 35.7 L50.95 37.85 52.4 39.35 Q54.2 40.8 56.05 40.8 58.65 40.8 60.3 37.95 61.95 35.05 61.95 30.5 L61.8 27.55 M7.35 18.2 Q5.9 15.8 5.9 13.15 5.9 8.35 9.9 5.25 13.95 2.25 20.4 2.25 26.1 2.25 30.65 4.6 35.1 6.9 35.1 9.95 L35.0 10.9 34.15 12.4 31.15 14.9 30.85 15.1 Q29.4 12.6 26.2 10.7 22.85 8.85 19.85 8.85 17.75 8.85 16.45 9.95 15.15 10.95 15.15 12.5 15.15 13.8 15.9 14.75 L16.85 15.6 Q18.9 17.25 24.4 20.25 L31.35 24.5 Q36.0 27.65 36.65 32.8 L36.75 34.4 Q36.75 40.25 32.5 43.75 28.2 47.3 21.15 47.3 11.7 47.3 5.35 41.4 L5.2 41.25 2.0 38.3 3.95 36.8 Q6.45 34.75 7.9 34.75 9.1 34.75 11.4 36.8 16.1 40.75 21.45 40.75 24.4 40.75 26.1 39.3 27.65 38.05 27.9 36.15 L27.9 35.5 Q27.9 33.2 26.2 31.6 24.65 30.25 19.35 27.35 L13.1 23.7 Q9.1 21.15 7.35 18.2" fill="url(#gradient0)" fill-rule="evenodd" stroke="none"/>
    <path d="M210.25 25.8 L210.5 24.2 Q210.5 21.4 208.0 21.4 206.35 21.4 205.15 23.25 203.9 25.1 203.9 27.65 203.9 28.8 204.25 30.1 L205.65 29.7 M210.25 25.8 Q209.4 28.35 205.65 29.7 M197.9 39.8 Q196.05 36.15 196.05 31.25 196.05 24.4 199.75 19.65 203.35 14.9 208.45 14.9 212.1 14.9 214.65 17.3 216.9 19.5 217.1 22.85 M206.95 39.3 Q208.4 40.75 210.8 40.75 212.9 40.75 215.2 39.6 217.45 38.35 218.8 36.5 219.4 37.45 219.4 38.9 219.4 41.55 217.2 43.6 M197.9 39.8 Q198.6 41.25 199.65 42.5 203.25 46.85 208.85 46.85 213.1 46.85 216.2 44.4 L217.2 43.6 M206.95 39.3 Q205.55 37.85 205.05 35.05 210.4 33.7 213.7 30.5 217.1 27.2 217.1 23.4 L217.1 22.85 M179.4 25.85 L177.5 24.35 Q177.1 23.9 177.1 23.3 177.1 20.95 180.6 20.95 182.9 20.95 185.2 22.1 187.5 23.25 188.55 25.05 L189.8 23.75 190.9 22.25 191.25 20.95 Q191.25 18.65 188.05 17.15 184.95 15.55 180.15 15.55 175.1 15.55 171.85 17.9 168.55 20.25 168.55 23.75 168.55 26.1 170.0 28.1 171.4 30.05 174.1 31.7 L178.55 34.4 181.25 36.15 Q182.65 37.35 182.65 38.65 182.65 39.5 182.2 40.15 L181.8 40.6 Q180.85 41.3 179.45 41.3 177.25 41.3 175.25 40.45 L173.15 39.5 171.8 39.25 Q170.15 39.25 168.75 40.75 L166.6 43.0 166.85 43.05 169.15 44.35 170.3 45.0 Q175.0 47.5 180.15 47.5 185.35 47.5 188.45 45.0 191.5 42.5 191.5 38.25 L191.5 37.85 Q191.35 35.15 189.6 32.9 188.05 31.15 184.55 29.0 L179.4 25.85 M155.9 46.25 L155.45 45.95 Q154.15 45.0 154.15 43.35 154.15 41.3 156.4 39.8 158.65 38.25 161.5 38.25 163.6 38.25 164.9 39.25 166.2 40.25 166.2 41.85 L166.1 42.85 165.95 43.3 M155.9 46.25 Q157.05 46.95 158.85 46.95 161.95 46.95 164.1 45.5 165.45 44.5 165.95 43.3 M142.0 24.1 L142.05 24.7 Q142.05 25.55 141.4 26.35 L142.65 26.2 142.9 26.2 M142.0 24.1 Q141.8 22.85 141.0 20.75 138.9 15.6 133.2 15.6 127.65 15.6 123.3 21.0 118.95 26.35 118.95 33.2 118.95 37.4 120.65 40.65 L121.9 42.55 Q124.85 46.45 129.1 46.45 134.3 46.45 137.15 41.45 138.6 46.6 143.3 46.6 145.65 46.6 147.25 44.9 L147.3 44.85 Q148.85 43.3 148.85 40.8 L148.55 39.45 Q147.6 40.55 146.15 40.55 145.05 40.55 144.3 39.95 142.85 38.8 142.85 35.35 142.85 32.75 143.4 30.6 L143.45 30.3 144.0 28.35 144.15 27.15 Q144.15 26.25 142.9 26.2 M135.15 26.6 L135.15 25.1 Q135.15 23.75 134.3 22.8 133.45 21.8 132.35 21.8 130.0 21.8 128.2 25.2 126.4 28.65 126.4 33.05 126.4 36.3 127.45 38.15 L127.85 38.75 M135.15 26.6 Q135.2 27.8 136.3 28.0 L136.45 28.0 136.35 28.1 Q136.0 28.5 135.9 28.95 L135.3 32.1 Q134.1 40.05 130.4 40.05 128.85 40.05 127.85 38.75 M112.1 38.75 Q113.2 39.95 115.1 39.95 116.45 39.95 117.5 39.25 117.8 39.65 117.8 40.55 117.8 42.75 116.7 44.3 L115.95 45.15 Q114.05 46.8 110.95 46.8 106.25 46.8 104.2 43.65 L104.15 43.55 Q102.55 41.1 102.55 35.9 L102.6 34.1 Q102.85 28.5 103.65 20.65 L104.4 9.45 Q104.4 7.25 103.65 5.75 L104.0 5.7 106.8 3.6 Q109.1 2.0 111.1 2.0 113.9 2.0 113.9 5.3 L113.85 6.6 113.3 10.65 Q112.05 17.85 111.35 24.35 110.6 30.95 110.6 33.1 110.6 37.05 112.1 38.75 M86.1 39.3 Q84.7 37.85 84.2 35.05 89.5 33.7 92.85 30.5 96.2 27.2 96.2 23.4 L96.2 22.8 Q96.0 19.5 93.75 17.3 91.25 14.9 87.6 14.9 82.45 14.9 78.85 19.65 75.2 24.4 75.2 31.25 75.2 36.15 77.05 39.8 77.75 41.25 78.8 42.5 82.4 46.85 88.0 46.85 92.25 46.85 95.35 44.4 L96.3 43.65 Q98.5 41.55 98.5 38.9 98.5 37.45 97.95 36.5 96.6 38.35 94.35 39.6 92.05 40.75 89.95 40.75 87.55 40.75 86.1 39.3 M89.4 25.8 L89.65 24.2 Q89.65 21.4 87.15 21.4 85.5 21.4 84.25 23.25 83.05 25.1 83.05 27.65 83.05 28.8 83.4 30.1 L84.8 29.7 M89.4 25.8 Q88.55 28.35 84.8 29.7 M43.25 23.6 L43.15 22.9 Q42.6 19.8 41.35 18.8 L44.55 16.9 Q47.4 15.05 48.85 15.05 49.65 15.05 50.15 15.4 51.0 15.9 51.0 18.15 L51.1 19.45 M51.6 19.7 Q52.85 17.75 54.85 16.55 57.15 15.05 59.7 15.05 64.35 15.05 67.05 19.0 68.8 21.45 69.45 24.9 M44.3 59.7 Q43.6 59.2 43.3 58.25 42.65 56.5 42.65 50.05 42.65 45.85 43.1 38.45 L43.55 28.65 43.25 23.6 M51.6 19.7 L51.15 20.45 51.1 19.45 M61.8 27.55 Q61.15 21.9 57.65 21.9 54.85 21.9 52.9 25.85 50.95 29.9 50.95 35.7 L50.95 37.85 52.4 39.35 Q54.2 40.8 56.05 40.8 58.65 40.8 60.3 37.95 61.95 35.05 61.95 30.5 L61.8 27.55 M44.3 59.7 Q45.0 60.2 46.2 60.2 48.5 60.2 50.2 58.95 52.0 57.65 52.0 56.1 L51.6 54.3 Q51.1 52.65 50.85 50.4 L50.65 47.6 50.6 45.3 50.6 45.0 50.7 45.05 Q54.05 47.0 57.05 47.0 62.65 47.0 66.25 42.05 69.85 37.1 69.85 29.35 69.85 26.95 69.45 24.9 M7.35 18.2 Q5.9 15.8 5.9 13.15 5.9 8.35 9.9 5.25 13.95 2.25 20.4 2.25 26.1 2.25 30.65 4.6 35.1 6.9 35.1 9.95 L35.0 10.9 34.15 12.4 31.15 14.9 30.85 15.1 Q29.4 12.6 26.2 10.7 22.85 8.85 19.85 8.85 17.75 8.85 16.45 9.95 15.15 10.95 15.15 12.5 15.15 13.8 15.9 14.75 L16.85 15.6 Q18.9 17.25 24.4 20.25 L31.35 24.5 Q36.0 27.65 36.65 32.8 L36.75 34.4 Q36.75 40.25 32.5 43.75 28.2 47.3 21.15 47.3 11.7 47.3 5.35 41.4 L5.2 41.25 2.0 38.3 3.95 36.8 Q6.45 34.75 7.9 34.75 9.1 34.75 11.4 36.8 16.1 40.75 21.45 40.75 24.4 40.75 26.1 39.3 27.65 38.05 27.9 36.15 M7.35 18.2 Q9.1 21.15 13.1 23.7 L19.35 27.35 Q24.65 30.25 26.2 31.6 27.9 33.2 27.9 35.5 L27.9 36.15" fill="none" stroke="#ffffff" stroke-linecap="round" stroke-linejoin="round" stroke-width="1.0"/>
  </g>
  <defs>
    <linearGradient gradientTransform="matrix(0.0, -0.0279, 0.0275, 0.0, 19.35, 24.75)" gradientUnits="userSpaceOnUse" id="gradient0" spreadMethod="pad" x1="-819.2" x2="819.2">
      <stop offset="0.00392156862745098" stop-color="#e1e1e1"/>
      <stop offset="1.0" stop-color="#ffffff"/>
    </linearGradient>
  </defs>
</svg>
