<?xml version="1.0" encoding="UTF-8" standalone="no"?>
<svg xmlns:xlink="http://www.w3.org/1999/xlink" height="91.05px" width="83.4px" xmlns="http://www.w3.org/2000/svg">
  <g transform="matrix(1.0, 0.0, 0.0, 1.0, -1.65, -3.9)">
    <path d="M11.55 87.7 Q10.0 86.95 8.85 86.15 7.7 85.8 6.55 85.0 6.15 85.0 6.15 84.6 L8.1 60.75 8.45 61.15 13.1 6.9 76.3 6.9 82.05 86.95 76.3 89.25 67.8 91.15 62.4 91.55 61.25 91.55 33.15 91.95 24.65 91.15 24.25 91.15 Q17.7 90.4 11.55 87.7" fill="#a84545" fill-rule="evenodd" stroke="none"/>
    <path d="M11.55 87.7 Q10.0 86.95 8.85 86.15 7.7 85.8 6.55 85.0 6.15 85.0 6.15 84.6 L8.1 60.75 8.45 61.15 13.1 6.9 76.3 6.9 82.05 86.95 76.3 89.25 67.8 91.15 62.4 91.55 61.25 91.55 33.15 91.95 24.65 91.15 24.25 91.15 Q17.7 90.4 11.55 87.7 Z" fill="none" stroke="#002258" stroke-linecap="round" stroke-linejoin="round" stroke-width="6.0"/>
    <path d="M71.3 6.9 L76.3 6.9 77.45 20.75 73.6 21.55 71.3 6.9 M11.95 20.0 L13.1 6.9 17.7 6.9 Q16.2 13.85 15.4 20.75 L14.65 20.75 11.95 20.0" fill="#042772" fill-rule="evenodd" stroke="none"/>
    <path d="M17.7 6.9 L71.3 6.9 73.6 21.55 Q42.4 28.45 15.4 20.75 16.2 13.85 17.7 6.9" fill="#09348e" fill-rule="evenodd" stroke="none"/>
    <path d="M77.45 20.75 L79.35 51.9 Q79.75 52.3 76.3 52.7 75.5 36.55 73.6 21.55 L77.45 20.75 M11.95 53.1 Q10.0 52.7 9.25 51.9 L11.95 20.0 14.65 20.75 15.4 20.75 Q13.5 33.1 11.95 53.1" fill="#083593" fill-rule="evenodd" stroke="none"/>
    <path d="M11.55 61.55 L17.7 62.7 20.8 63.1 20.8 62.7 26.2 63.45 26.6 63.45 38.9 63.85 62.4 62.7 63.2 62.7 69.35 62.3 Q70.9 62.7 72.05 62.3 L72.8 62.3 76.65 61.55 Q77.05 64.25 77.05 66.55 78.2 82.3 76.3 89.25 69.35 91.55 62.4 91.55 L61.25 91.55 33.15 91.95 24.65 91.15 24.25 91.15 Q17.7 90.4 11.55 87.7 8.85 81.95 10.8 65.0 L11.55 61.55" fill="#990000" fill-rule="evenodd" stroke="none"/>
    <path d="M11.55 61.55 L10.8 65.0 Q8.85 81.95 11.55 87.7 10.0 86.95 8.85 86.15 7.7 85.8 6.55 85.0 6.15 85.0 6.15 84.6 L8.1 60.75 Q8.45 61.15 8.85 61.15 L10.8 61.55 11.55 61.55 M76.3 89.25 Q78.2 82.3 77.05 66.55 77.05 64.25 76.65 61.55 L77.05 61.55 80.15 61.15 82.05 86.95 76.3 89.25" fill="#700000" fill-rule="evenodd" stroke="none"/>
    <path d="M76.3 52.7 L47.0 54.25 Q20.05 55.0 11.95 53.1 13.5 33.1 15.4 20.75 42.4 28.45 73.6 21.55 75.5 36.55 76.3 52.7" fill="#1447b2" fill-rule="evenodd" stroke="none"/>
    <path d="M63.2 62.7 L62.4 62.7" fill="none" stroke="#e73535" stroke-linecap="round" stroke-linejoin="round" stroke-width="0.2"/>
    <path d="M27.75 53.1 L26.6 65.0 21.2 64.6 Q20.4 60.0 21.55 52.7 L27.75 53.1 M63.55 64.6 L63.55 52.7 69.35 52.3 Q69.75 59.25 69.75 63.85 L63.55 64.6" fill="#b60d0d" fill-rule="evenodd" stroke="none"/>
    <path d="M26.6 65.0 L27.75 53.1 Q45.1 54.25 63.55 52.7 L63.55 64.6 62.8 64.6 39.3 65.4 26.95 65.0 26.6 65.0 M12.35 51.55 L19.25 52.3 18.1 64.25 11.95 63.45 Q11.55 63.1 11.15 63.1 10.8 58.1 12.35 51.55 M71.65 52.3 L77.45 51.55 Q77.85 59.6 77.05 63.45 L73.2 63.85 72.45 63.85 71.65 52.3" fill="#f2f567" fill-rule="evenodd" stroke="none"/>
    <path d="M21.55 52.7 Q20.4 60.0 21.2 64.6 L18.1 64.25 19.25 52.3 21.55 52.7 M72.45 63.85 Q71.3 64.25 69.75 63.85 69.75 59.25 69.35 52.3 L71.65 52.3 72.45 63.85" fill="#7b0101" fill-rule="evenodd" stroke="none"/>
    <path d="M11.15 63.1 L8.45 62.7 9.65 51.55 12.35 51.55 Q10.8 58.1 11.15 63.1 M77.45 51.55 L79.75 51.55 80.55 62.7 77.05 63.45 Q77.85 59.6 77.45 51.55" fill="#d7c64b" fill-rule="evenodd" stroke="none"/>
    <path d="M12.35 25.4 L13.5 23.85 Q13.5 23.45 15.0 23.45 L16.95 23.85 Q18.5 22.3 20.8 21.9 L21.55 23.45 Q20.05 23.85 18.9 24.6 L20.05 25.4 Q21.2 26.15 20.8 26.55 L19.65 29.25 Q22.75 31.9 22.75 36.15 22.35 40.75 18.5 44.6 15.0 47.7 10.4 47.7 L10.4 45.75 Q15.4 45.0 17.35 43.85 L18.1 43.45 Q20.4 41.55 20.4 39.25 20.4 36.9 18.5 35.75 17.7 35.0 16.55 35.0 L15.8 34.6 15.4 34.6 17.35 33.85 Q18.9 32.7 18.9 31.15 L18.9 30.0 17.35 28.85 Q15.8 28.05 11.95 28.05 L12.35 25.4 M11.15 39.25 L11.15 37.3 11.55 38.1 11.15 39.25 M11.55 31.9 L11.95 30.4 Q12.35 30.4 12.35 30.75 L12.35 31.15 Q12.35 31.55 11.55 31.9" fill="#f8fa8e" fill-rule="evenodd" stroke="none"/>
    <path d="M10.4 45.75 L11.15 39.25 11.55 38.1 11.15 37.3 11.55 31.9 Q12.35 31.55 12.35 31.15 L12.35 30.75 Q12.35 30.4 11.95 30.4 L11.95 28.05 Q15.8 28.05 17.35 28.85 L18.9 30.0 18.9 31.15 Q18.9 32.7 17.35 33.85 L15.4 34.6 15.8 34.6 16.55 35.0 Q17.7 35.0 18.5 35.75 20.4 36.9 20.4 39.25 20.4 41.55 18.1 43.45 L17.35 43.85 Q15.4 45.0 10.4 45.75" fill="#d92525" fill-rule="evenodd" stroke="none"/>
    <path d="M12.35 25.4 L13.5 23.85 Q13.5 23.45 15.0 23.45 L16.95 23.85 Q18.5 22.3 20.8 21.9 L21.55 23.45 Q20.05 23.85 18.9 24.6 L20.05 25.4 Q21.2 26.15 20.8 26.55 L19.65 29.25 Q22.75 31.9 22.75 36.15 22.35 40.75 18.5 44.6 15.0 47.7 10.4 47.7" fill="none" stroke="#d92525" stroke-linecap="round" stroke-linejoin="round" stroke-width="0.2"/>
    <path d="M8.1 53.25 Q7.45 52.4 6.6 52.4 5.7 52.4 5.1 53.25 4.5 54.1 4.5 55.35 4.5 56.6 5.1 57.45 5.7 58.4 6.6 58.4 7.45 58.4 8.1 57.45 8.7 56.6 8.7 55.35 8.7 54.1 8.1 53.25 M3.35 57.3 Q3.35 54.1 4.9 51.85 6.4 49.55 8.7 49.55 10.9 49.55 12.5 51.85 14.05 54.1 14.05 57.3 14.05 60.55 12.5 62.8 10.9 65.05 8.7 65.05 6.4 65.05 4.9 62.8 3.35 60.55 3.35 57.3 M6.75 59.65 Q6.4 60.15 7.1 61.45 L8.15 63.25 Q8.5 63.65 8.2 62.95 7.95 62.25 8.2 61.85 8.55 61.4 8.55 60.75 8.55 60.15 8.2 59.65 7.95 59.3 7.5 59.3 7.05 59.3 6.75 59.65" fill="#d7c64b" fill-rule="evenodd" stroke="none"/>
    <path d="M8.1 53.25 Q8.7 54.1 8.7 55.35 8.7 56.6 8.1 57.45 7.45 58.4 6.6 58.4 5.7 58.4 5.1 57.45 4.5 56.6 4.5 55.35 4.5 54.1 5.1 53.25 5.7 52.4 6.6 52.4 7.45 52.4 8.1 53.25 M6.75 59.65 Q7.05 59.3 7.5 59.3 7.95 59.3 8.2 59.65 8.55 60.15 8.55 60.75 8.55 61.4 8.2 61.85 7.95 62.25 8.2 62.95 8.5 63.65 8.15 63.25 L7.1 61.45 Q6.4 60.15 6.75 59.65" fill="#f5f7d3" fill-rule="evenodd" stroke="none"/>
    <path d="M3.35 57.3 Q3.35 60.55 4.9 62.8 6.4 65.05 8.7 65.05 10.9 65.05 12.5 62.8 14.05 60.55 14.05 57.3 14.05 54.1 12.5 51.85 10.9 49.55 8.7 49.55 6.4 49.55 4.9 51.85 3.35 54.1 3.35 57.3 M1.65 57.3 Q1.65 53.1 3.7 50.1 5.75 47.2 8.7 47.2 11.55 47.2 13.65 50.1 15.7 53.1 15.7 57.3 15.7 61.55 13.65 64.45 11.55 67.4 8.7 67.4 5.75 67.4 3.7 64.45 1.65 61.55 1.65 57.3" fill="#b8a832" fill-rule="evenodd" stroke="none"/>
  </g>
</svg>
