<?xml version="1.0" encoding="UTF-8" standalone="no"?>
<svg xmlns:xlink="http://www.w3.org/1999/xlink" height="95.8px" width="84.75px" xmlns="http://www.w3.org/2000/svg">
  <g transform="matrix(1.0, 0.0, 0.0, 1.0, -1.55, -0.35)">
    <path d="M82.9 87.4 L82.9 87.75 82.9 88.5 76.95 90.0 74.7 90.35 69.85 91.5 67.2 91.85 57.9 92.6 Q47.8 93.7 34.0 92.6 L15.75 90.75 10.1 89.65 Q6.4 89.25 4.55 87.75 L5.25 80.7 5.65 81.05 5.65 77.65 7.1 77.65 7.5 75.45 Q7.9 70.6 8.25 68.35 L9.7 57.2 9.4 57.2 10.1 47.9 10.1 47.5 13.1 6.9 Q13.1 6.15 14.25 5.8 16.05 4.7 23.2 4.3 L31.05 3.55 42.2 3.55 Q42.95 3.2 43.75 3.55 44.45 3.2 45.2 3.55 L51.5 3.55 57.55 3.9 60.5 3.9 69.1 5.0 69.45 5.0 Q77.7 6.15 78.4 8.4 L80.7 56.45 80.3 56.45 81.0 75.45 81.8 78.45 Q82.9 78.05 82.9 77.65 L82.9 81.05 83.3 82.2 82.9 87.4" fill="#417fc2" fill-rule="evenodd" stroke="none"/>
    <path d="M82.9 87.4 L82.9 87.75 82.9 88.5 76.95 90.0 74.7 90.35 69.85 91.5 67.2 91.85 57.9 92.6 Q47.8 93.7 34.0 92.6 L15.75 90.75 10.1 89.65 Q6.4 89.25 4.55 87.75 L5.25 80.7 5.65 81.05 5.65 77.65 7.1 77.65 7.5 75.45 Q7.9 70.6 8.25 68.35 L9.7 57.2 9.4 57.2 10.1 47.9 10.1 47.5 13.1 6.9 Q13.1 6.15 14.25 5.8 16.05 4.7 23.2 4.3 L31.05 3.55 42.2 3.55 Q42.95 3.2 43.75 3.55 44.45 3.2 45.2 3.55 L51.5 3.55 57.55 3.9 60.5 3.9 69.1 5.0 69.45 5.0 Q77.7 6.15 78.4 8.4 L80.7 56.45 80.3 56.45 81.0 75.45 81.8 78.45 Q82.9 78.05 82.9 77.65 L82.9 81.05 83.3 82.2 82.9 87.4 Z" fill="none" stroke="#002258" stroke-linecap="round" stroke-linejoin="round" stroke-width="6.0"/>
    <path d="M81.8 78.65 Q82.95 78.3 82.95 77.65 L82.95 81.25 83.3 82.35 69.1 85.7 69.85 81.25 81.8 78.65" fill="#165d98" fill-rule="evenodd" stroke="none"/>
    <path d="M83.3 82.35 L82.95 87.6 82.95 88.7 Q79.15 89.45 76.95 90.2 L74.7 90.55 69.85 91.3 67.25 91.7 69.1 85.7 83.3 82.35 M5.65 81.25 L5.65 77.9 7.15 77.9 Q39.25 84.6 69.85 81.25 L71.0 57.4 Q72.85 56.65 75.1 56.3 76.6 55.5 79.95 54.4 L81.05 75.3 81.8 78.65 69.85 81.25 69.1 85.7 Q38.15 89.45 5.65 81.25" fill="#2774b4" fill-rule="evenodd" stroke="none"/>
    <path d="M67.25 91.7 L57.9 92.8 Q47.85 93.95 34.05 92.8 L15.7 90.95 10.15 89.8 Q6.4 89.1 4.55 87.95 L4.55 87.6 5.3 80.85 5.3 80.5 5.65 81.25 Q38.15 89.45 69.1 85.7 L67.25 91.7 M7.15 77.9 Q7.55 76.4 7.55 75.3 L8.25 68.2 9.75 55.9 15.0 56.65 Q27.3 59.65 40.0 60.05 L46.7 60.35 62.0 59.25 71.0 57.4 69.85 81.25 Q39.25 84.6 7.15 77.9" fill="#3f96f5" fill-rule="evenodd" stroke="none"/>
    <path d="M57.55 3.75 L60.5 3.75 69.1 4.85 69.5 4.85 Q73.2 32.1 70.25 55.2 41.85 58.15 15.0 54.05 14.25 53.7 13.5 53.7 L9.75 52.9 12.0 23.5 Q41.5 27.55 57.55 3.75 M51.95 24.25 Q51.55 23.85 51.15 23.85 L50.85 23.85 50.85 24.6 51.15 24.95 51.95 24.25" fill="#92c5fc" fill-rule="evenodd" stroke="none"/>
    <path d="M69.5 4.85 Q77.7 5.95 78.45 8.2 L80.35 52.55 74.7 53.7 Q72.1 54.05 70.25 55.2 73.2 32.1 69.5 4.85 M51.95 24.25 L51.15 24.95 50.85 24.6 50.85 23.85 51.15 23.85 Q51.55 23.85 51.95 24.25" fill="#73aae5" fill-rule="evenodd" stroke="none"/>
    <path d="M12.35 18.65 L13.1 6.7 Q13.1 5.95 14.25 5.6 16.1 4.45 23.25 4.15 L31.0 3.35 42.25 3.35 Q43.0 3.0 43.7 3.35 44.5 3.0 45.2 3.35 L51.55 3.35 Q39.65 21.6 12.35 18.65" fill="#4a86c6" fill-rule="evenodd" stroke="none"/>
    <path d="M12.0 23.5 L12.35 18.65 Q39.65 21.6 51.55 3.35 L57.55 3.75 Q41.5 27.55 12.0 23.5" fill="#5798de" fill-rule="evenodd" stroke="none"/>
    <path d="M80.35 52.55 L80.65 56.3 75.45 57.75 Q72.5 58.15 69.5 58.9 L48.6 60.35 44.85 60.35 39.65 60.35 Q26.95 60.05 15.0 58.15 14.25 57.75 13.9 57.75 L9.35 57.0 9.75 52.9 13.5 53.7 Q14.25 53.7 15.0 54.05 41.85 58.15 70.25 55.2 72.1 54.05 74.7 53.7 L80.35 52.55" fill="#b0d3fa" fill-rule="evenodd" stroke="none"/>
    <path d="M10.15 47.35 L12.0 50.7 Q14.6 53.7 15.7 53.3 16.5 52.2 15.4 48.05 L14.25 44.7 Q15.4 43.6 17.6 42.9 19.85 41.0 19.85 39.9 19.45 38.35 16.5 38.75 L13.1 39.15 Q12.75 37.65 12.75 36.15 12.0 33.55 11.25 33.55 L11.65 32.8 25.05 32.8 34.75 55.9 Q20.2 55.2 9.75 52.9 L10.15 47.7 10.15 47.35" fill="#6ca7e7" fill-rule="evenodd" stroke="none"/>
    <path d="M34.75 55.9 L25.05 32.8 11.65 32.8 11.65 30.6 29.2 29.8 38.5 56.65 34.75 55.9" fill="#b0d3fa" fill-rule="evenodd" stroke="none"/>
    <path d="M11.25 33.55 Q12.0 33.55 12.75 36.15 12.75 37.65 13.1 39.15 L16.5 38.75 Q19.45 38.35 19.85 39.9 19.85 41.0 17.6 42.9 15.4 43.6 14.25 44.7 L15.4 48.05 Q16.5 52.2 15.7 53.3 14.6 53.7 12.0 50.7 L10.15 47.35 11.25 33.55" fill="#d8de67" fill-rule="evenodd" stroke="none"/>
  </g>
</svg>
