<?xml version="1.0" encoding="UTF-8" standalone="no"?>
<svg xmlns:xlink="http://www.w3.org/1999/xlink" height="187.95px" width="180.8px" xmlns="http://www.w3.org/2000/svg">
  <g transform="matrix(1.0, 0.0, 0.0, 1.0, -58.3, 0.35)">
    <path d="M209.65 159.55 Q183.25 184.6 145.9 184.6 108.55 184.6 82.05 159.55 68.5 146.65 61.9 131.05 L63.35 131.25 Q65.9 131.25 67.4 129.25 68.55 127.6 68.55 125.95 L65.55 105.15 Q64.1 99.55 63.8 93.65 L63.3 90.3 Q63.3 85.3 62.75 81.45 L61.9 77.25 61.3 68.5 Q67.9 52.05 82.05 38.6 88.75 32.25 96.15 27.55 L94.1 27.3 Q89.05 26.3 86.2 22.05 83.35 17.75 84.35 12.7 85.35 7.6 89.7 4.8 93.9 1.9 98.95 2.9 104.05 3.95 106.9 8.2 109.65 12.5 108.65 17.55 L108.15 19.5 109.05 20.7 Q125.9 13.55 145.9 13.55 183.25 13.55 209.65 38.6 236.1 63.65 236.1 99.1 236.1 134.5 209.65 159.55 Z" fill="none" stroke="#2b2e44" stroke-linecap="round" stroke-linejoin="round" stroke-width="6.0"/>
    <path d="M151.75 155.25 L158.9 100.3 M153.25 154.45 L161.65 95.6" fill="none" stroke="#1e5184" stroke-linecap="round" stroke-linejoin="round" stroke-width="1.0"/>
    <path d="M209.55 159.6 Q183.15 184.65 145.8 184.65 108.45 184.65 81.95 159.6 68.4 146.7 61.8 131.1 L63.25 131.3 Q65.8 131.3 67.3 129.3 68.45 127.65 68.45 126.0 L63.2 90.35 Q63.2 85.35 62.65 81.5 L61.8 77.3 61.2 68.55 Q67.8 52.1 81.95 38.65 108.45 13.6 145.8 13.6 183.15 13.6 209.55 38.65 236.0 63.7 236.0 99.15 236.0 134.55 209.55 159.6" fill="#2b9be6" fill-rule="evenodd" stroke="none"/>
    <path d="M228.9 89.35 Q228.9 118.95 204.65 139.95 180.5 160.9 146.3 160.9 112.1 160.9 87.8 139.95 63.65 118.95 63.65 89.35 63.65 59.7 87.8 38.7 112.1 17.75 146.3 17.75 180.5 17.75 204.65 38.7 228.9 59.7 228.9 89.35" fill="#3ebbeb" fill-rule="evenodd" stroke="none"/>
    <path d="M97.55 4.8 L122.8 39.9 Q119.6 47.8 112.9 47.05 L94.45 20.5 97.55 4.8" fill="#4686b0" fill-rule="evenodd" stroke="none"/>
    <path d="M89.75 4.85 Q93.9 1.95 98.95 2.95 104.1 4.0 106.95 8.25 109.7 12.55 108.7 17.6 107.7 22.65 103.45 25.5 99.25 28.35 94.1 27.35 89.05 26.35 86.2 22.1 83.35 17.8 84.35 12.75 85.35 7.65 89.75 4.85" fill="#4686b0" fill-rule="evenodd" stroke="none"/>
    <path d="M92.95 20.35 Q89.8 19.7 88.0 17.05 86.25 14.4 86.9 11.2 87.45 8.05 90.2 6.3 92.8 4.45 95.95 5.1 99.2 5.8 100.95 8.45 102.6 11.05 102.0 14.25 101.4 17.4 98.75 19.25 96.1 21.0 92.95 20.35" fill="#5eb1d5" fill-rule="evenodd" stroke="none"/>
    <path d="M89.65 6.15 Q91.2 5.1 93.15 5.45 95.1 5.9 96.2 7.5 97.25 9.1 96.85 11.0 96.5 12.95 94.85 14.05 93.25 15.1 91.3 14.75 89.4 14.4 88.3 12.75 87.2 11.1 87.65 9.15 88.0 7.25 89.65 6.15" fill="#aed9ea" fill-rule="evenodd" stroke="none"/>
    <path d="M204.1 74.75 Q217.45 89.15 217.95 110.0 218.5 130.9 205.9 145.8 193.25 160.9 174.95 161.4 156.65 161.85 143.35 147.4 130.0 133.1 129.45 112.2 128.95 91.35 141.55 76.35 154.1 61.35 172.45 60.85 190.75 60.4 204.1 74.75" fill="#266fb7" fill-rule="evenodd" stroke="none"/>
    <path d="M201.15 74.2 Q213.55 86.55 213.95 104.45 214.45 122.3 202.65 135.0 191.0 148.05 173.95 148.45 156.95 148.95 144.65 136.5 132.3 124.3 131.85 106.45 131.45 88.55 143.15 75.7 154.8 62.8 171.8 62.35 188.85 61.9 201.15 74.2" fill="#3a89d6" fill-rule="evenodd" stroke="none"/>
    <path d="M197.4 69.75 Q207.5 77.5 207.85 88.75 208.1 100.0 198.35 108.3 188.55 116.55 174.5 116.9 160.4 117.3 150.15 109.5 140.05 101.75 139.75 90.45 139.45 79.25 149.2 70.95 159.0 62.7 173.1 62.35 187.2 62.0 197.4 69.75" fill="#65a2de" fill-rule="evenodd" stroke="none"/>
    <path d="M195.8 96.15 L196.1 96.55 196.15 97.0 Q195.35 120.6 210.65 137.7 L210.9 138.45 210.6 139.2 209.8 139.45 Q209.35 139.45 209.05 139.1 193.35 121.6 194.05 97.5 173.75 80.75 152.25 100.2 154.6 126.25 144.35 146.15 L143.7 146.65 142.95 146.6 142.4 146.0 Q142.25 145.55 142.45 145.2 152.5 125.6 150.1 99.85 L150.2 99.4 150.45 99.0 Q173.8 77.55 195.8 96.15" fill="#1e5184" fill-rule="evenodd" stroke="none"/>
    <path d="M141.4 102.35 Q142.3 101.35 143.5 101.25 144.8 101.2 145.8 102.05 146.8 102.9 146.85 104.15 146.9 105.4 146.05 106.4 145.15 107.35 143.95 107.45 142.7 107.5 141.7 106.65 140.7 105.75 140.65 104.55 140.55 103.3 141.4 102.35" fill="#1e5184" fill-rule="evenodd" stroke="none"/>
    <path d="M162.05 104.9 Q161.15 105.85 159.9 105.95 158.7 106.0 157.7 105.15 156.7 104.25 156.65 103.05 156.55 101.75 157.4 100.8 158.3 99.8 159.5 99.7 160.75 99.65 161.75 100.5 162.75 101.4 162.8 102.6 162.85 103.85 162.05 104.9" fill="#1e5184" fill-rule="evenodd" stroke="none"/>
    <path d="M190.4 101.8 Q190.45 103.1 189.65 104.1 188.75 105.05 187.5 105.15 186.3 105.2 185.3 104.35 184.3 103.45 184.25 102.25 184.15 100.95 185.0 100.0 185.9 99.0 187.1 98.9 188.35 98.85 189.35 99.7 190.35 100.6 190.4 101.8" fill="#1e5184" fill-rule="evenodd" stroke="none"/>
    <path d="M203.4 98.8 Q204.4 99.7 204.45 100.9 204.5 102.2 203.65 103.2 202.75 104.15 201.55 104.25 200.35 104.3 199.35 103.45 198.35 102.55 198.3 101.35 198.2 100.1 199.0 99.15 199.9 98.1 201.15 98.0 202.4 97.95 203.4 98.8" fill="#1e5184" fill-rule="evenodd" stroke="none"/>
  </g>
</svg>
