<?xml version="1.0" encoding="UTF-8" standalone="no"?>
<svg xmlns:xlink="http://www.w3.org/1999/xlink" height="50.1px" width="206.2px" xmlns="http://www.w3.org/2000/svg">
  <g transform="matrix(1.0, 0.0, 0.0, 1.0, -1.5, -1.5)">
    <path d="M4.2 35.9 Q2.0 31.1 2.0 24.8 2.0 14.65 8.6 7.95 14.5 2.0 23.5 2.0 28.3 2.0 31.5 3.85 34.75 5.8 34.75 8.45 L34.7 9.5 Q34.2 12.7 30.85 14.0 29.95 12.0 27.5 10.55 24.95 9.1 22.35 9.1 17.4 9.1 14.45 13.2 11.5 17.35 11.5 24.15 11.5 29.65 13.45 33.7 L14.75 35.9 Q18.0 40.7 22.9 40.7 25.1 40.7 26.35 39.6 27.2 38.8 27.45 36.6 L27.55 34.65 27.4 32.45 27.4 32.2 23.75 32.75 Q22.45 33.1 21.6 33.7 L21.6 33.1 Q21.6 28.4 23.45 26.9 25.3 25.4 31.1 25.15 L36.4 24.8 Q38.05 24.45 40.1 23.35 40.5 24.95 40.5 26.55 L40.35 28.3 40.15 28.9 Q39.3 31.15 36.1 31.55 L36.1 34.55 Q36.1 37.7 36.5 40.05 L36.65 41.2 Q36.65 42.55 35.55 43.05 L30.95 45.35 Q27.35 47.3 22.0 47.3 13.0 47.3 7.55 41.1 5.5 38.75 4.2 35.9 M183.45 21.2 Q180.75 20.8 180.75 19.2 180.75 18.7 181.15 18.05 L183.85 14.75 184.0 14.6 184.85 15.15 187.55 15.55 188.35 15.45 189.5 15.45 189.7 15.45 189.85 11.7 Q189.9 9.55 190.05 9.2 L190.2 7.9 Q190.35 6.6 191.2 6.0 192.3 5.3 193.75 4.95 197.05 4.0 198.25 4.0 199.5 4.0 199.5 5.25 L198.9 7.25 198.55 8.5 Q197.6 11.95 197.45 15.3 L199.4 15.4 201.2 15.45 Q204.3 15.45 205.75 16.95 L205.55 17.05 204.6 18.5 203.35 19.8 201.45 20.65 198.35 21.15 196.95 21.05 196.7 21.05 196.7 21.45 196.45 27.05 196.2 31.1 Q196.2 36.55 197.75 38.45 199.15 40.05 201.3 40.05 204.15 40.05 206.2 37.65 L206.25 38.45 Q206.25 41.85 203.8 44.15 L203.65 44.3 Q201.2 46.5 197.75 46.5 192.5 46.5 190.15 42.55 L190.1 42.5 Q188.35 39.4 188.35 33.2 L188.35 32.4 Q188.35 29.7 188.65 25.6 L189.0 21.45 189.05 21.2 188.75 21.2 186.9 21.3 185.6 21.35 183.45 21.2 M168.8 13.35 L168.15 12.95 Q167.1 12.0 167.1 10.7 L167.1 10.4 Q167.1 7.8 170.6 5.6 172.85 4.2 174.95 4.2 178.95 4.2 178.95 7.75 L178.8 9.0 Q178.3 10.6 176.5 11.85 173.85 13.8 170.85 13.8 L168.8 13.35 M175.8 17.4 Q177.4 17.6 177.4 19.5 L177.25 21.7 177.05 23.0 176.5 27.7 176.3 33.5 Q176.3 41.1 178.15 43.8 L178.45 44.2 178.25 44.3 175.85 45.55 Q174.45 46.35 172.25 46.35 170.7 46.35 169.75 45.5 168.3 44.15 168.3 40.75 L168.45 35.85 168.55 29.75 Q168.55 22.3 167.3 20.85 L167.65 20.8 Q168.55 20.55 171.25 18.75 171.85 18.35 172.4 18.1 173.95 17.35 175.3 17.35 L175.8 17.4 M154.05 46.25 L153.65 45.95 Q152.35 45.0 152.35 43.35 152.35 41.3 154.55 39.8 156.8 38.25 159.65 38.25 161.75 38.25 163.05 39.25 164.35 40.25 164.35 41.85 L164.1 43.3 Q163.6 44.5 162.25 45.5 160.1 46.95 157.0 46.95 155.2 46.95 154.05 46.25 M122.7 39.7 Q120.95 36.25 120.95 31.8 120.95 28.05 122.5 24.6 124.2 21.2 126.5 20.05 L125.9 18.5 Q127.05 17.2 129.6 16.25 132.15 15.3 134.4 15.3 140.5 15.3 144.5 19.9 147.25 23.1 148.1 27.5 148.45 29.4 148.45 31.55 148.45 38.6 144.75 42.85 141.05 47.1 134.9 47.1 128.8 47.1 124.9 42.85 123.6 41.4 122.7 39.7 M140.55 29.7 Q140.1 27.25 138.95 25.25 137.15 22.15 134.55 22.15 132.15 22.15 130.75 24.45 129.3 26.7 129.3 30.4 129.3 34.85 131.0 37.75 L131.1 37.95 Q132.8 40.8 135.65 40.8 140.75 40.8 140.75 32.75 L140.55 29.7 M95.8 40.7 Q94.0 37.35 94.0 32.45 94.0 25.25 98.1 20.2 102.3 15.15 108.2 15.15 111.95 15.15 114.4 17.2 116.9 19.2 116.9 22.2 L116.9 22.5 Q116.8 24.4 115.6 25.7 114.4 27.1 112.5 27.1 L111.15 26.9 111.2 26.4 Q111.2 24.75 110.2 23.5 109.05 22.3 107.6 22.3 105.25 22.3 103.6 25.05 102.0 27.75 102.0 31.8 102.0 35.75 103.55 38.1 L103.75 38.35 Q105.45 40.75 108.4 40.75 110.95 40.75 113.45 39.4 115.95 37.85 117.0 35.85 118.0 36.8 118.0 38.45 118.0 40.35 117.15 41.95 116.35 43.35 114.9 44.55 111.7 47.0 107.05 47.0 100.9 47.0 97.45 43.1 96.45 42.0 95.8 40.7 M62.8 39.7 Q61.05 36.25 61.05 31.8 61.05 28.05 62.6 24.6 64.3 21.2 66.6 20.05 L66.0 18.5 Q67.15 17.2 69.7 16.25 72.25 15.3 74.5 15.3 80.6 15.3 84.6 19.9 87.35 23.1 88.2 27.5 88.55 29.4 88.55 31.55 88.55 38.6 84.85 42.85 81.1 47.1 75.0 47.1 68.9 47.1 65.0 42.85 L62.8 39.7 M80.65 29.7 Q80.2 27.25 79.05 25.25 77.25 22.15 74.65 22.15 72.25 22.15 70.85 24.45 69.4 26.7 69.4 30.4 69.4 34.85 71.1 37.75 L71.2 37.95 Q72.9 40.8 75.7 40.8 80.85 40.8 80.85 32.75 L80.65 29.7 M56.35 9.05 Q55.85 10.6 54.05 11.85 51.4 13.8 48.35 13.8 47.2 13.8 46.35 13.35 L45.7 12.95 Q44.6 12.0 44.6 10.7 L44.6 10.4 Q44.6 7.8 48.15 5.6 50.4 4.2 52.45 4.2 56.5 4.2 56.5 7.75 L56.35 9.05 M49.95 18.1 Q51.45 17.35 52.85 17.35 L53.35 17.4 Q54.9 17.65 54.9 19.5 L54.75 21.7 54.55 23.0 54.05 27.7 53.85 33.5 Q53.85 41.1 55.7 43.8 L56.0 44.2 55.8 44.3 53.4 45.55 Q51.95 46.35 49.8 46.35 48.25 46.35 47.3 45.5 45.85 44.15 45.85 40.75 L46.0 35.85 46.05 29.75 Q46.05 22.3 44.85 20.85 L45.2 20.8 Q46.05 20.55 48.8 18.75 49.4 18.35 49.95 18.1" fill="url(#gradient0)" fill-rule="evenodd" stroke="none"/>
    <path d="M34.7 9.5 Q36.2 11.0 36.2 12.8 36.2 16.8 32.3 18.35 31.35 16.3 28.9 14.9 26.4 13.45 23.8 13.45 18.85 13.45 15.9 17.55 12.95 21.65 12.95 28.5 12.95 31.25 13.45 33.7 11.5 29.65 11.5 24.15 11.5 17.35 14.45 13.2 17.4 9.1 22.35 9.1 24.95 9.1 27.5 10.55 29.95 12.0 30.85 14.0 34.2 12.7 34.7 9.5 M27.45 36.6 Q24.45 36.95 23.0 38.0 L23.0 37.45 Q23.0 34.45 23.75 32.75 L27.4 32.2 27.4 32.45 27.55 34.65 27.45 36.6 M40.35 28.3 L41.5 27.7 41.95 30.8 Q41.95 32.25 41.6 33.2 40.75 35.5 37.55 35.85 L37.55 38.9 Q37.55 42.05 37.9 44.35 L38.05 45.5 Q38.05 46.85 37.0 47.35 L32.4 49.7 Q28.8 51.6 23.45 51.6 14.45 51.6 9.0 45.45 5.45 41.45 4.2 35.9 5.5 38.75 7.55 41.1 13.0 47.3 22.0 47.3 27.35 47.3 30.95 45.35 L35.55 43.05 Q36.65 42.55 36.65 41.2 L36.5 40.05 Q36.1 37.7 36.1 34.55 L36.1 31.55 Q39.3 31.15 40.15 28.9 L40.35 28.3 M198.55 8.5 L199.7 8.35 Q200.95 8.35 200.95 9.55 L200.35 11.55 Q199.75 13.45 199.4 15.4 L197.45 15.3 Q197.6 11.95 198.55 8.5 M203.35 19.8 Q205.9 19.95 207.2 21.3 L207.0 21.35 206.05 22.8 Q205.05 24.3 202.85 24.95 L199.8 25.45 198.4 25.4 198.1 25.4 198.1 25.75 197.9 31.3 197.6 35.4 Q197.6 37.1 197.75 38.45 196.2 36.55 196.2 31.1 L196.45 27.05 196.7 21.45 196.7 21.05 196.95 21.05 198.35 21.15 201.45 20.65 203.35 19.8 M203.65 44.3 Q205.95 43.95 207.65 41.95 L207.7 42.75 Q207.7 46.15 205.25 48.45 202.75 50.85 199.2 50.85 193.95 50.85 191.55 46.85 190.55 45.2 190.1 42.5 L190.15 42.55 Q192.5 46.5 197.75 46.5 201.2 46.5 203.65 44.3 M188.65 25.6 L188.35 25.6 187.05 25.7 Q182.2 25.7 182.2 23.5 182.2 23.0 182.55 22.35 L183.45 21.2 185.6 21.35 186.9 21.3 188.75 21.2 189.05 21.2 189.0 21.45 188.65 25.6 M178.8 9.0 Q180.4 9.8 180.4 12.05 180.4 14.45 177.95 16.15 L175.8 17.4 175.3 17.35 Q173.95 17.35 172.4 18.1 L172.25 18.1 Q170.7 18.1 169.6 17.25 168.55 16.3 168.55 15.0 L168.55 14.75 168.8 13.35 170.85 13.8 Q173.85 13.8 176.5 11.85 178.3 10.6 178.8 9.0 M177.25 21.7 Q178.85 21.9 178.85 23.8 L178.45 27.35 177.95 31.95 177.75 37.8 Q177.75 41.35 178.15 43.8 176.3 41.1 176.3 33.5 L176.5 27.7 177.05 23.0 177.25 21.7 M178.25 44.3 Q178.75 47.2 179.9 48.5 L177.3 49.9 Q175.85 50.7 173.7 50.7 169.9 50.7 169.75 45.5 170.7 46.35 172.25 46.35 174.45 46.35 175.85 45.55 L178.25 44.3 M164.1 43.3 L164.5 43.55 Q165.8 44.55 165.8 46.15 165.8 48.3 163.7 49.8 161.55 51.25 158.45 51.25 156.3 51.25 155.05 50.25 153.75 49.3 153.75 47.65 153.75 46.9 154.05 46.25 155.2 46.95 157.0 46.95 160.1 46.95 162.25 45.5 163.6 44.5 164.1 43.3 M148.1 27.5 Q149.9 31.1 149.9 35.85 149.9 42.9 146.2 47.15 142.45 51.4 136.35 51.4 130.25 51.4 126.35 47.15 123.5 44.05 122.7 39.7 123.6 41.4 124.9 42.85 128.8 47.1 134.9 47.1 141.05 47.1 144.75 42.85 148.45 38.6 148.45 31.55 148.45 29.4 148.1 27.5 M140.55 29.7 L140.4 29.5 Q138.6 26.45 136.0 26.45 133.6 26.45 132.15 28.75 130.75 30.95 130.75 34.7 L131.0 37.75 Q129.3 34.85 129.3 30.4 129.3 26.7 130.75 24.45 132.15 22.15 134.55 22.15 137.15 22.15 138.95 25.25 140.1 27.25 140.55 29.7 M116.9 22.5 Q118.35 24.2 118.35 26.55 118.35 28.65 117.05 29.95 115.85 31.4 113.95 31.4 L112.6 31.15 112.65 30.65 Q112.65 29.0 111.65 27.85 110.5 26.6 109.05 26.6 106.7 26.6 105.05 29.3 103.45 32.05 103.45 36.15 L103.55 38.1 Q102.0 35.75 102.0 31.8 102.0 27.75 103.6 25.05 105.25 22.3 107.6 22.3 109.05 22.3 110.2 23.5 111.2 24.75 111.2 26.4 L111.15 26.9 112.5 27.1 Q114.4 27.1 115.6 25.7 116.8 24.4 116.9 22.5 M117.15 41.95 L118.4 40.15 Q119.45 41.1 119.45 42.75 119.45 46.35 116.35 48.9 113.15 51.35 108.5 51.35 102.35 51.35 98.9 47.45 96.5 44.8 95.8 40.7 96.45 42.0 97.45 43.1 100.9 47.0 107.05 47.0 111.7 47.0 114.9 44.55 116.35 43.35 117.15 41.95 M88.2 27.5 Q90.0 31.1 90.0 35.85 90.0 42.9 86.3 47.15 82.55 51.4 76.45 51.4 70.3 51.4 66.45 47.15 63.6 44.05 62.8 39.7 L65.0 42.85 Q68.9 47.1 75.0 47.1 81.1 47.1 84.85 42.85 88.55 38.6 88.55 31.55 88.55 29.4 88.2 27.5 M71.1 37.75 Q69.4 34.85 69.4 30.4 69.4 26.7 70.85 24.45 72.25 22.15 74.65 22.15 77.25 22.15 79.05 25.25 80.2 27.25 80.65 29.7 L80.5 29.5 Q78.7 26.45 76.1 26.45 73.7 26.45 72.25 28.75 70.85 30.95 70.85 34.7 L71.1 37.75 M46.35 13.35 Q47.2 13.8 48.35 13.8 51.4 13.8 54.05 11.85 55.85 10.6 56.35 9.05 57.95 9.85 57.95 12.05 57.95 14.45 55.5 16.15 L53.35 17.4 52.85 17.35 Q51.45 17.35 49.95 18.1 L49.8 18.1 Q48.2 18.1 47.15 17.25 46.05 16.3 46.05 15.0 L46.05 14.75 Q46.05 14.05 46.35 13.35 M55.7 43.8 Q53.85 41.1 53.85 33.5 L54.05 27.7 54.55 23.0 54.75 21.7 Q56.35 21.9 56.35 23.8 L56.0 27.35 55.5 31.95 55.3 37.8 Q55.3 41.35 55.7 43.8 M47.3 45.5 Q48.25 46.35 49.8 46.35 51.95 46.35 53.4 45.55 L55.8 44.3 Q56.3 47.2 57.45 48.5 L54.85 49.9 Q53.4 50.7 51.25 50.7 47.45 50.7 47.3 45.5" fill="#ab0709" fill-rule="evenodd" stroke="none"/>
    <path d="M4.2 35.9 Q2.0 31.1 2.0 24.8 2.0 14.65 8.6 7.95 14.5 2.0 23.5 2.0 28.3 2.0 31.5 3.85 34.75 5.8 34.75 8.45 L34.7 9.5 Q34.2 12.7 30.85 14.0 29.95 12.0 27.5 10.55 24.95 9.1 22.35 9.1 17.4 9.1 14.45 13.2 11.5 17.35 11.5 24.15 11.5 29.65 13.45 33.7 L14.75 35.9 Q18.0 40.7 22.9 40.7 25.1 40.7 26.35 39.6 27.2 38.8 27.45 36.6 L27.55 34.65 27.4 32.45 27.4 32.2 23.75 32.75 Q22.45 33.1 21.6 33.7 L21.6 33.1 Q21.6 28.4 23.45 26.9 25.3 25.4 31.1 25.15 L36.4 24.8 Q38.05 24.45 40.1 23.35 40.5 24.95 40.5 26.55 L40.35 28.3 M4.2 35.9 Q5.5 38.75 7.55 41.1 13.0 47.3 22.0 47.3 27.35 47.3 30.95 45.35 L35.55 43.05 Q36.65 42.55 36.65 41.2 L36.5 40.05 Q36.1 37.7 36.1 34.55 L36.1 31.55 Q39.3 31.15 40.15 28.9 L40.35 28.3 M183.45 21.2 Q180.75 20.8 180.75 19.2 180.75 18.7 181.15 18.05 L183.85 14.75 184.0 14.6 184.85 15.15 187.55 15.55 188.35 15.45 189.5 15.45 189.7 15.45 189.85 11.7 Q189.9 9.55 190.05 9.2 L190.2 7.9 Q190.35 6.6 191.2 6.0 192.3 5.3 193.75 4.95 197.05 4.0 198.25 4.0 199.5 4.0 199.5 5.25 L198.9 7.25 198.55 8.5 Q197.6 11.95 197.45 15.3 L199.4 15.4 201.2 15.45 Q204.3 15.45 205.75 16.95 L205.55 17.05 204.6 18.5 203.35 19.8 201.45 20.65 198.35 21.15 196.95 21.05 196.7 21.05 196.7 21.45 196.45 27.05 196.2 31.1 Q196.2 36.55 197.75 38.45 199.15 40.05 201.3 40.05 204.15 40.05 206.2 37.65 L206.25 38.45 Q206.25 41.85 203.8 44.15 L203.65 44.3 Q201.2 46.5 197.75 46.5 192.5 46.5 190.15 42.55 L190.1 42.5 Q188.35 39.4 188.35 33.2 L188.35 32.4 Q188.35 29.7 188.65 25.6 M183.45 21.2 L185.6 21.35 186.9 21.3 188.75 21.2 189.05 21.2 189.0 21.45 188.65 25.6 M168.8 13.35 L168.15 12.95 Q167.1 12.0 167.1 10.7 L167.1 10.4 Q167.1 7.8 170.6 5.6 172.85 4.2 174.95 4.2 178.95 4.2 178.95 7.75 L178.8 9.0 M175.8 17.4 Q177.4 17.6 177.4 19.5 L177.25 21.7 177.05 23.0 176.5 27.7 176.3 33.5 Q176.3 41.1 178.15 43.8 L178.45 44.2 178.25 44.3 175.85 45.55 Q174.45 46.35 172.25 46.35 170.7 46.35 169.75 45.5 168.3 44.15 168.3 40.75 L168.45 35.85 168.55 29.75 Q168.55 22.3 167.3 20.85 L167.65 20.8 Q168.55 20.55 171.25 18.75 171.85 18.35 172.4 18.1 M168.8 13.35 L170.85 13.8 Q173.85 13.8 176.5 11.85 178.3 10.6 178.8 9.0 M175.8 17.4 L175.3 17.35 Q173.95 17.35 172.4 18.1 M154.05 46.25 L153.65 45.95 Q152.35 45.0 152.35 43.35 152.35 41.3 154.55 39.8 156.8 38.25 159.65 38.25 161.75 38.25 163.05 39.25 164.35 40.25 164.35 41.85 L164.1 43.3 M154.05 46.25 Q155.2 46.95 157.0 46.95 160.1 46.95 162.25 45.5 163.6 44.5 164.1 43.3 M122.7 39.7 Q120.95 36.25 120.95 31.8 120.95 28.05 122.5 24.6 124.2 21.2 126.5 20.05 L125.9 18.5 Q127.05 17.2 129.6 16.25 132.15 15.3 134.4 15.3 140.5 15.3 144.5 19.9 147.25 23.1 148.1 27.5 M122.7 39.7 Q123.6 41.4 124.9 42.85 128.8 47.1 134.9 47.1 141.05 47.1 144.75 42.85 148.45 38.6 148.45 31.55 148.45 29.4 148.1 27.5 M140.55 29.7 Q140.1 27.25 138.95 25.25 137.15 22.15 134.55 22.15 132.15 22.15 130.75 24.45 129.3 26.7 129.3 30.4 129.3 34.85 131.0 37.75 L131.1 37.95 Q132.8 40.8 135.65 40.8 140.75 40.8 140.75 32.75 L140.55 29.7 M95.8 40.7 Q94.0 37.35 94.0 32.45 94.0 25.25 98.1 20.2 102.3 15.15 108.2 15.15 111.95 15.15 114.4 17.2 116.9 19.2 116.9 22.2 L116.9 22.5 M103.55 38.1 L103.75 38.35 Q105.45 40.75 108.4 40.75 110.95 40.75 113.45 39.4 115.95 37.85 117.0 35.85 118.0 36.8 118.0 38.45 118.0 40.35 117.15 41.95 M95.8 40.7 Q96.45 42.0 97.45 43.1 100.9 47.0 107.05 47.0 111.7 47.0 114.9 44.55 116.35 43.35 117.15 41.95 M103.55 38.1 Q102.0 35.75 102.0 31.8 102.0 27.75 103.6 25.05 105.25 22.3 107.6 22.3 109.05 22.3 110.2 23.5 111.2 24.75 111.2 26.4 L111.15 26.9 112.5 27.1 Q114.4 27.1 115.6 25.7 116.8 24.4 116.9 22.5 M62.8 39.7 Q61.05 36.25 61.05 31.8 61.05 28.05 62.6 24.6 64.3 21.2 66.6 20.05 L66.0 18.5 Q67.15 17.2 69.7 16.25 72.25 15.3 74.5 15.3 80.6 15.3 84.6 19.9 87.35 23.1 88.2 27.5 M62.8 39.7 L65.0 42.85 Q68.9 47.1 75.0 47.1 81.1 47.1 84.85 42.85 88.55 38.6 88.55 31.55 88.55 29.4 88.2 27.5 M80.65 29.7 Q80.2 27.25 79.05 25.25 77.25 22.15 74.65 22.15 72.25 22.15 70.85 24.45 69.4 26.7 69.4 30.4 69.4 34.85 71.1 37.75 M80.65 29.7 L80.85 32.75 Q80.85 40.8 75.7 40.8 72.9 40.8 71.2 37.95 L71.1 37.75 M46.35 13.35 Q47.2 13.8 48.35 13.8 51.4 13.8 54.05 11.85 55.85 10.6 56.35 9.05 L56.5 7.75 Q56.5 4.2 52.45 4.2 50.4 4.2 48.15 5.6 44.6 7.8 44.6 10.4 L44.6 10.7 Q44.6 12.0 45.7 12.95 L46.35 13.35 M49.95 18.1 Q51.45 17.35 52.85 17.35 L53.35 17.4 M54.75 21.7 L54.55 23.0 54.05 27.7 53.85 33.5 Q53.85 41.1 55.7 43.8 M54.75 21.7 L54.9 19.5 Q54.9 17.65 53.35 17.4 M47.3 45.5 Q45.85 44.15 45.85 40.75 L46.0 35.85 46.05 29.75 Q46.05 22.3 44.85 20.85 L45.2 20.8 Q46.05 20.55 48.8 18.75 49.4 18.35 49.95 18.1 M55.8 44.3 L53.4 45.55 Q51.95 46.35 49.8 46.35 48.25 46.35 47.3 45.5 M55.8 44.3 L56.0 44.2 55.7 43.8" fill="none" stroke="#ffffff" stroke-linecap="round" stroke-linejoin="round" stroke-width="1.0"/>
  </g>
  <defs>
    <linearGradient gradientTransform="matrix(0.0, -0.0268, 0.0277, 0.0, 21.2, 24.65)" gradientUnits="userSpaceOnUse" id="gradient0" spreadMethod="pad" x1="-819.2" x2="819.2">
      <stop offset="0.00392156862745098" stop-color="#e1e1e1"/>
      <stop offset="1.0" stop-color="#ffffff"/>
    </linearGradient>
  </defs>
</svg>
