<?xml version="1.0" encoding="UTF-8" standalone="no"?>
<svg xmlns:xlink="http://www.w3.org/1999/xlink" height="63.3px" width="306.8px" xmlns="http://www.w3.org/2000/svg">
  <g transform="matrix(1.0, 0.0, 0.0, 1.0, -1.5, -1.5)">
    <path d="M300.5 24.1 Q301.95 26.15 301.95 30.15 L301.85 35.25 301.85 38.85 301.85 40.1 Q300.8 39.5 300.55 37.85 300.4 36.55 300.4 34.55 L300.4 30.95 300.55 25.85 300.5 24.1 M304.1 44.7 L304.8 44.75 Q306.8 44.75 308.25 43.3 L308.3 43.85 Q308.3 46.55 306.1 48.6 303.85 50.5 300.7 50.5 294.6 50.5 293.55 43.35 295.4 46.2 299.25 46.2 302.0 46.2 304.1 44.7 M292.15 30.25 Q291.15 30.4 290.0 31.8 288.0 34.2 287.15 37.2 286.8 38.55 286.4 41.15 L286.05 44.2 286.15 45.9 Q286.15 47.45 285.05 48.0 L282.7 49.0 Q280.5 49.8 279.65 49.8 277.85 49.8 277.85 47.8 L277.95 45.5 278.2 45.5 Q279.1 45.5 281.25 44.7 L283.6 43.7 Q284.7 43.1 284.7 41.6 L284.6 39.85 285.0 36.85 285.7 32.9 Q286.55 29.85 288.6 27.5 289.9 25.9 291.05 25.9 292.25 25.9 292.25 27.9 L292.15 30.25 M277.2 31.35 L277.05 31.35 Q275.75 31.35 274.2 33.6 269.8 39.6 269.8 44.9 L269.95 46.0 270.0 47.15 Q270.0 47.85 269.15 48.65 267.05 50.75 265.2 50.75 263.55 50.75 262.5 48.95 261.6 47.45 261.5 45.2 262.4 46.4 263.75 46.4 265.6 46.4 267.7 44.35 268.55 43.55 268.55 42.8 L268.5 41.65 268.35 40.6 Q268.35 35.25 272.75 29.3 274.35 27.05 275.6 27.05 277.2 27.05 277.2 30.95 L277.2 31.35 M268.9 18.65 Q270.45 19.0 270.45 21.2 L270.25 23.95 268.15 26.9 268.15 26.6 Q268.15 24.4 268.65 20.65 L268.9 18.65 M235.25 37.3 Q233.55 34.4 233.55 29.95 233.55 26.2 235.0 23.95 236.45 21.65 238.85 21.65 241.4 21.65 243.2 24.75 244.35 26.75 244.8 29.25 L244.65 29.05 Q242.85 25.95 240.25 25.95 237.9 25.95 236.45 28.25 235.0 30.5 235.0 34.25 235.0 35.85 235.25 37.3 M226.95 39.2 Q227.85 40.9 229.2 42.4 233.05 46.65 239.2 46.65 245.3 46.65 249.05 42.4 252.75 38.15 252.75 31.1 252.75 29.0 252.4 27.1 254.15 30.7 254.15 35.4 254.15 42.45 250.5 46.7 246.75 50.95 240.65 50.95 234.5 50.95 230.6 46.7 227.75 43.55 226.95 39.2 M199.95 40.2 Q200.7 41.55 201.7 42.65 205.15 46.55 211.25 46.55 215.95 46.55 219.1 44.1 220.55 42.95 221.35 41.55 L222.65 39.7 Q223.65 40.65 223.65 42.3 223.65 45.9 220.55 48.45 217.35 50.9 212.7 50.9 206.55 50.9 203.1 47.0 200.7 44.35 199.95 40.2 M207.75 37.65 Q206.2 35.3 206.2 31.35 206.2 27.25 207.8 24.55 209.45 21.8 211.85 21.8 213.25 21.8 214.4 23.0 215.45 24.25 215.45 25.9 L215.35 26.4 216.75 26.6 Q218.6 26.6 219.8 25.2 221.0 23.9 221.1 22.0 222.55 23.7 222.55 26.05 222.55 28.15 221.25 29.5 220.05 30.95 218.15 30.95 L216.8 30.7 216.85 30.2 Q216.85 28.55 215.85 27.35 214.7 26.1 213.25 26.1 210.9 26.1 209.25 28.85 207.65 31.6 207.65 35.7 L207.75 37.65 M166.75 25.45 L164.8 23.9 Q164.45 23.45 164.45 22.85 164.45 20.5 167.9 20.5 170.2 20.5 172.5 21.65 174.8 22.8 175.9 24.6 L177.15 23.3 178.2 21.8 Q180.0 23.05 180.0 24.8 180.0 25.9 178.55 27.65 L177.35 28.9 Q176.25 27.1 173.95 25.95 171.65 24.8 169.35 24.8 167.6 24.8 166.75 25.45 M157.35 27.65 Q158.75 29.6 161.45 31.25 L165.9 33.95 168.55 35.7 Q170.0 36.9 170.0 38.2 170.0 39.05 169.55 39.7 L167.35 38.3 162.85 35.55 Q157.35 32.15 157.35 27.65 M157.6 44.55 Q162.35 47.05 167.5 47.05 172.65 47.05 175.75 44.55 178.85 42.05 178.85 37.8 L178.85 37.4 Q180.3 39.55 180.3 42.1 180.3 46.35 177.2 48.85 174.1 51.4 168.9 51.4 163.15 51.4 157.9 48.2 L155.6 46.9 155.4 46.85 157.55 44.6 157.6 44.55 M195.65 42.85 L196.05 43.1 Q197.35 44.1 197.35 45.7 197.35 47.85 195.25 49.35 193.1 50.8 190.0 50.8 187.85 50.8 186.65 49.8 185.35 48.85 185.35 47.2 185.35 46.45 185.65 45.85 186.75 46.5 188.55 46.5 191.65 46.5 193.85 45.05 195.2 44.1 195.65 42.85 M151.35 26.95 Q153.15 30.6 153.15 35.4 153.15 42.45 149.5 46.7 145.75 50.95 139.6 50.95 133.5 50.95 129.6 46.7 126.75 43.6 125.95 39.25 126.85 40.95 128.15 42.4 132.05 46.65 138.15 46.65 144.3 46.65 148.05 42.4 151.7 38.15 151.7 31.1 151.7 28.9 151.35 26.95 M134.25 37.3 Q132.55 34.4 132.55 29.95 132.55 26.2 134.0 23.95 135.45 21.65 137.8 21.65 140.4 21.65 142.2 24.75 143.35 26.75 143.8 29.25 L143.65 29.05 Q141.85 25.95 139.25 25.95 136.9 25.95 135.45 28.25 134.0 30.5 134.0 34.25 134.0 35.85 134.25 37.3 M102.75 38.45 Q101.25 36.8 101.25 32.6 101.25 28.15 103.2 24.9 105.05 21.6 107.65 21.6 108.75 21.6 109.45 22.6 110.25 23.5 110.25 25.05 L110.35 26.35 Q109.8 25.9 109.1 25.9 106.5 25.9 104.6 29.2 102.7 32.45 102.7 36.9 L102.75 38.45 M111.3 27.55 L111.45 27.55 111.35 27.65 111.3 27.55 M117.1 23.95 L117.2 24.15 118.0 25.85 117.95 25.85 116.7 25.9 116.45 25.9 117.1 23.95 M118.45 30.2 L119.4 30.15 Q120.7 30.15 120.7 31.3 L120.05 34.05 Q119.65 35.1 119.45 36.7 119.1 39.85 119.1 44.1 L119.1 44.9 119.1 47.85 119.15 49.95 119.15 51.75 118.95 57.15 Q118.45 60.15 116.85 62.1 114.55 64.8 109.75 64.8 104.55 64.8 101.45 61.4 L99.95 59.75 99.5 59.45 101.4 58.35 Q104.2 60.45 108.3 60.45 113.1 60.45 115.4 57.8 117.0 55.85 117.5 52.85 L117.75 47.45 117.75 45.65 117.65 43.55 117.65 40.6 117.65 39.8 Q117.65 35.55 118.0 32.4 L118.45 30.2 M110.4 48.75 Q107.7 50.4 104.6 50.4 100.5 50.4 97.85 46.7 95.95 44.15 95.4 40.75 L96.4 42.4 Q99.1 46.05 103.2 46.05 107.05 46.05 110.4 43.4 L110.4 43.95 110.4 46.05 110.4 47.85 110.4 48.75 M78.5 38.85 Q77.1 37.4 76.6 34.6 81.95 33.25 85.25 30.05 88.65 26.75 88.65 22.95 L88.65 22.35 Q90.1 24.4 90.1 27.25 90.1 31.1 86.7 34.4 83.55 37.4 78.5 38.85 M69.45 39.35 Q70.15 40.8 71.2 42.05 74.8 46.4 80.45 46.4 84.7 46.4 87.8 43.95 L88.8 43.1 Q90.65 42.0 91.8 40.35 92.4 41.3 92.4 42.75 92.4 45.9 89.2 48.3 86.1 50.75 81.85 50.75 76.25 50.75 72.65 46.35 70.2 43.45 69.45 39.35 M81.85 25.35 L81.0 25.25 Q79.35 25.25 78.15 27.1 77.5 28.1 77.2 29.25 L75.8 29.65 Q75.45 28.35 75.45 27.2 75.45 24.65 76.7 22.8 77.9 20.95 79.55 20.95 82.1 20.95 82.1 23.75 L81.85 25.35 M61.7 21.35 Q63.5 21.4 63.5 23.15 L62.95 26.75 Q61.65 32.9 61.65 38.05 L61.7 39.15 Q60.2 37.95 60.2 33.75 60.2 28.55 61.5 22.45 L61.7 21.35 M63.9 43.85 L64.6 43.95 66.2 43.6 66.3 44.9 Q66.3 47.2 64.9 48.7 63.45 50.15 61.2 50.15 56.95 50.15 55.0 45.0 50.85 50.4 45.85 50.4 42.25 50.4 40.05 47.95 38.15 45.85 37.85 42.65 L38.6 43.6 Q40.85 46.05 44.45 46.05 49.4 46.05 53.6 40.65 55.5 45.85 59.75 45.85 62.0 45.85 63.45 44.4 L63.9 43.85 M45.6 19.45 Q47.1 19.9 47.1 22.35 L46.75 26.05 46.3 30.5 46.15 31.85 Q45.8 35.4 45.8 37.8 L45.8 38.4 Q44.35 37.4 44.35 33.45 44.35 31.1 44.7 27.55 L44.85 26.2 45.3 21.7 45.6 19.45 M5.8 43.25 Q10.3 46.7 16.7 46.7 20.1 46.7 23.1 45.4 26.05 44.05 27.5 42.05 29.3 39.35 29.3 35.2 L29.1 29.0 Q28.8 24.45 28.8 17.25 L28.95 10.55 29.1 6.3 Q30.6 6.35 30.6 8.2 L30.4 14.9 30.25 21.6 Q30.25 28.8 30.55 33.3 L30.75 39.5 Q30.75 43.7 28.95 46.35 27.5 48.35 24.55 49.75 21.55 51.05 18.15 51.05 10.4 51.05 5.4 45.9 4.45 44.9 3.8 44.55 L3.45 44.4 5.8 43.25" fill="#ab0709" fill-rule="evenodd" stroke="none"/>
    <path d="M270.25 23.95 Q274.4 18.7 278.8 18.7 282.9 18.7 284.1 24.6 L284.2 24.95 Q285.25 22.85 288.35 19.9 290.65 17.7 294.4 17.7 299.85 17.7 300.5 24.1 L300.55 25.85 300.4 30.95 300.4 34.55 Q300.4 36.55 300.55 37.85 300.8 39.5 301.85 40.1 302.45 40.45 303.35 40.45 305.35 40.45 306.8 39.0 L306.85 39.5 Q306.85 42.25 304.65 44.25 L304.1 44.7 Q302.0 46.2 299.25 46.2 295.4 46.2 293.55 43.35 291.9 40.75 291.9 35.85 L292.15 30.25 292.25 27.9 Q292.25 25.9 291.05 25.9 289.9 25.9 288.6 27.5 286.55 29.85 285.7 32.9 L285.0 36.85 284.6 39.85 284.7 41.6 Q284.7 43.1 283.6 43.7 L281.25 44.7 Q279.1 45.5 278.2 45.5 L277.95 45.5 Q276.4 45.35 276.4 43.45 L276.65 40.0 277.2 31.35 277.2 30.95 Q277.2 27.05 275.6 27.05 274.35 27.05 272.75 29.3 268.35 35.25 268.35 40.6 L268.5 41.65 268.55 42.8 Q268.55 43.55 267.7 44.35 265.6 46.4 263.75 46.4 262.4 46.4 261.5 45.2 L261.1 44.6 Q260.0 42.9 260.0 40.15 L260.15 35.7 260.45 28.5 Q260.45 22.95 259.95 20.0 L259.05 17.75 259.4 17.7 Q260.05 17.45 262.15 15.95 264.55 14.25 266.7 14.25 269.0 14.25 269.0 16.9 L268.9 18.65 268.65 20.65 Q268.15 24.4 268.15 26.6 L268.15 26.9 270.25 23.95 M244.8 29.25 Q244.35 26.75 243.2 24.75 241.4 21.65 238.85 21.65 236.45 21.65 235.0 23.95 233.55 26.2 233.55 29.95 233.55 34.4 235.25 37.3 L235.35 37.5 Q237.1 40.35 239.9 40.35 245.0 40.35 245.0 32.3 L244.8 29.25 M252.4 27.1 Q252.75 29.0 252.75 31.1 252.75 38.15 249.05 42.4 245.3 46.65 239.2 46.65 233.05 46.65 229.2 42.4 227.85 40.9 226.95 39.2 225.2 35.75 225.2 31.35 225.2 27.55 226.8 24.1 228.45 20.7 230.75 19.55 L230.2 18.0 Q231.35 16.7 233.85 15.75 236.45 14.8 238.7 14.8 244.8 14.8 248.75 19.4 251.55 22.65 252.4 27.1 M199.95 40.2 Q198.2 36.85 198.2 32.0 198.2 24.75 202.35 19.7 206.5 14.65 212.4 14.65 216.15 14.65 218.6 16.7 221.1 18.7 221.1 21.7 L221.1 22.0 Q221.0 23.9 219.8 25.2 218.6 26.6 216.75 26.6 L215.35 26.4 215.45 25.9 Q215.45 24.25 214.4 23.0 213.25 21.8 211.85 21.8 209.45 21.8 207.8 24.55 206.2 27.25 206.2 31.35 206.2 35.3 207.75 37.65 L207.95 37.9 Q209.65 40.3 212.6 40.3 215.15 40.3 217.65 38.95 220.2 37.4 221.2 35.4 222.2 36.35 222.2 38.0 222.2 39.95 221.35 41.55 220.55 42.95 219.1 44.1 215.95 46.55 211.25 46.55 205.15 46.55 201.7 42.65 200.7 41.55 199.95 40.2 M178.2 21.8 L177.15 23.3 175.9 24.6 Q174.8 22.8 172.5 21.65 170.2 20.5 167.9 20.5 164.45 20.5 164.45 22.85 164.45 23.45 164.8 23.9 L166.75 25.45 171.85 28.55 Q175.4 30.7 176.9 32.45 178.7 34.7 178.85 37.4 L178.85 37.8 Q178.85 42.05 175.75 44.55 172.65 47.05 167.5 47.05 162.35 47.05 157.6 44.55 L156.45 43.9 154.15 42.6 153.95 42.55 156.1 40.3 Q157.45 38.8 159.15 38.8 L160.5 39.05 162.6 40.0 Q164.6 40.85 166.75 40.85 168.2 40.85 169.15 40.15 L169.55 39.7 Q170.0 39.05 170.0 38.2 170.0 36.9 168.55 35.7 L165.9 33.95 161.45 31.25 Q158.75 29.6 157.35 27.65 155.9 25.65 155.9 23.3 155.9 19.8 159.2 17.45 162.45 15.1 167.5 15.1 172.3 15.1 175.4 16.7 178.55 18.2 178.55 20.5 L178.2 21.8 M185.65 45.85 L185.2 45.5 Q183.9 44.55 183.9 42.9 183.9 40.85 186.15 39.35 188.35 37.8 191.25 37.8 193.35 37.8 194.6 38.8 195.9 39.8 195.9 41.4 L195.65 42.85 Q195.2 44.1 193.85 45.05 191.65 46.5 188.55 46.5 186.75 46.5 185.65 45.85 M125.95 39.25 Q124.2 35.8 124.2 31.35 124.2 27.55 125.8 24.1 127.45 20.7 129.75 19.55 L129.15 18.0 Q130.35 16.7 132.85 15.75 135.45 14.8 137.65 14.8 143.8 14.8 147.75 19.4 150.45 22.6 151.35 26.95 151.7 28.9 151.7 31.1 151.7 38.15 148.05 42.4 144.3 46.65 138.15 46.65 132.05 46.65 128.15 42.4 126.85 40.95 125.95 39.25 M143.8 29.25 Q143.35 26.75 142.2 24.75 140.4 21.65 137.8 21.65 135.45 21.65 134.0 23.95 132.55 26.2 132.55 29.95 132.55 34.4 134.25 37.3 L134.35 37.5 Q136.1 40.35 138.9 40.35 144.0 40.35 144.0 32.3 L143.8 29.25 M110.35 26.35 L110.25 25.05 Q110.25 23.5 109.45 22.6 108.75 21.6 107.65 21.6 105.05 21.6 103.2 24.9 101.25 28.15 101.25 32.6 101.25 36.8 102.75 38.45 103.75 39.5 105.35 39.5 109.4 39.5 110.4 31.45 110.75 28.35 111.35 27.65 L111.45 27.55 111.3 27.55 110.9 27.35 Q110.5 27.15 110.35 26.35 M95.4 40.75 Q93.7 37.45 93.7 33.1 93.7 25.75 98.05 20.3 102.3 14.8 108.1 14.8 110.95 14.8 112.85 16.25 114.5 17.4 115.8 19.85 117.1 22.25 117.1 23.95 L116.45 25.9 116.7 25.9 117.95 25.85 118.0 25.85 Q119.25 25.85 119.25 27.0 L118.6 29.7 118.45 30.2 118.0 32.4 Q117.65 35.55 117.65 39.8 L117.65 40.6 117.65 43.55 117.75 45.65 117.75 47.45 117.5 52.85 Q117.0 55.85 115.4 57.8 113.1 60.45 108.3 60.45 104.2 60.45 101.4 58.35 L100.0 57.05 98.5 55.4 Q98.45 55.25 98.05 55.15 L100.65 53.6 Q102.05 52.9 103.05 52.9 L105.65 53.45 107.2 53.85 Q110.15 53.85 110.4 48.75 L110.4 47.85 110.4 46.05 110.4 43.95 110.4 43.4 Q107.05 46.05 103.2 46.05 99.1 46.05 96.4 42.4 L95.4 40.75 M88.65 22.35 L88.65 22.95 Q88.65 26.75 85.25 30.05 81.95 33.25 76.6 34.6 77.1 37.4 78.5 38.85 79.95 40.3 82.4 40.3 84.45 40.3 86.75 39.15 89.0 37.9 90.35 36.05 90.95 37.0 90.95 38.45 90.95 41.05 88.8 43.1 L87.8 43.95 Q84.7 46.4 80.45 46.4 74.8 46.4 71.2 42.05 70.15 40.8 69.45 39.35 67.6 35.7 67.6 30.8 67.6 23.95 71.3 19.2 74.9 14.45 80.0 14.45 83.65 14.45 86.2 16.85 88.45 19.05 88.65 22.35 M77.2 29.25 Q81.0 27.9 81.85 25.35 L82.1 23.75 Q82.1 20.95 79.55 20.95 77.9 20.95 76.7 22.8 75.45 24.65 75.45 27.2 75.45 28.35 75.8 29.65 L77.2 29.25 M61.7 39.15 Q62.3 39.65 63.15 39.65 L64.75 39.3 64.9 40.6 Q64.9 42.5 63.9 43.85 L63.45 44.4 Q62.0 45.85 59.75 45.85 55.5 45.85 53.6 40.65 49.4 46.05 44.45 46.05 40.85 46.05 38.6 43.6 L37.85 42.65 Q36.35 40.4 36.35 37.2 L36.5 32.8 36.95 25.85 Q36.95 22.25 36.0 19.5 L35.85 19.25 Q35.85 18.75 37.65 18.05 38.3 17.75 40.55 16.25 42.2 15.05 43.4 15.05 45.65 15.05 45.65 18.05 L45.6 19.45 45.3 21.7 44.85 26.2 44.7 27.55 Q44.35 31.1 44.35 33.45 44.35 37.4 45.8 38.4 L46.95 38.7 Q49.25 38.7 51.0 34.55 52.65 30.35 52.65 24.8 L52.55 22.65 52.4 21.05 52.2 20.55 Q52.2 20.5 52.55 20.35 L53.05 20.15 56.4 18.35 Q58.45 17.05 60.2 17.05 62.05 17.05 62.05 18.85 L61.7 21.35 61.5 22.45 Q60.2 28.55 60.2 33.75 60.2 37.95 61.7 39.15 M29.1 6.3 L28.95 10.55 28.8 17.25 Q28.8 24.45 29.1 29.0 L29.3 35.2 Q29.3 39.35 27.5 42.05 26.05 44.05 23.1 45.4 20.1 46.7 16.7 46.7 10.3 46.7 5.8 43.25 L3.95 41.6 2.4 40.25 2.0 40.1 4.6 38.8 Q6.65 37.5 8.2 37.5 9.45 37.5 11.45 38.55 14.05 39.95 16.2 39.95 18.8 39.95 19.9 38.2 20.95 36.55 20.95 32.45 L21.05 25.95 Q21.1 20.7 20.45 11.05 20.1 6.4 19.4 4.15 21.55 4.1 23.5 3.3 L25.55 2.45 Q26.65 2.0 27.6 2.0 29.15 2.0 29.15 3.85 L29.1 6.3" fill="url(#gradient0)" fill-rule="evenodd" stroke="none"/>
    <path d="M270.25 23.95 Q274.4 18.7 278.8 18.7 282.9 18.7 284.1 24.6 L284.2 24.95 Q285.25 22.85 288.35 19.9 290.65 17.7 294.4 17.7 299.85 17.7 300.5 24.1 L300.55 25.85 300.4 30.95 300.4 34.55 Q300.4 36.55 300.55 37.85 300.8 39.5 301.85 40.1 302.45 40.45 303.35 40.45 305.35 40.45 306.8 39.0 L306.85 39.5 Q306.85 42.25 304.65 44.25 L304.1 44.7 Q302.0 46.2 299.25 46.2 295.4 46.2 293.55 43.35 291.9 40.75 291.9 35.85 L292.15 30.25 292.25 27.9 Q292.25 25.9 291.05 25.9 289.9 25.9 288.6 27.5 286.55 29.85 285.7 32.9 L285.0 36.85 284.6 39.85 284.7 41.6 Q284.7 43.1 283.6 43.7 L281.25 44.7 Q279.1 45.5 278.2 45.5 L277.95 45.5 Q276.4 45.35 276.4 43.45 L276.65 40.0 277.2 31.35 277.2 30.95 Q277.2 27.05 275.6 27.05 274.35 27.05 272.75 29.3 268.35 35.25 268.35 40.6 L268.5 41.65 268.55 42.8 Q268.55 43.55 267.7 44.35 265.6 46.4 263.75 46.4 262.4 46.4 261.5 45.2 L261.1 44.6 Q260.0 42.9 260.0 40.15 L260.15 35.7 260.45 28.5 Q260.45 22.95 259.95 20.0 L259.05 17.75 259.4 17.7 Q260.05 17.45 262.15 15.95 264.55 14.25 266.7 14.25 269.0 14.25 269.0 16.9 L268.9 18.65 M270.25 23.95 L268.15 26.9 268.15 26.6 Q268.15 24.4 268.65 20.65 L268.9 18.65 M244.8 29.25 Q244.35 26.75 243.2 24.75 241.4 21.65 238.85 21.65 236.45 21.65 235.0 23.95 233.55 26.2 233.55 29.95 233.55 34.4 235.25 37.3 M244.8 29.25 L245.0 32.3 Q245.0 40.35 239.9 40.35 237.1 40.35 235.35 37.5 L235.25 37.3 M252.4 27.1 Q252.75 29.0 252.75 31.1 252.75 38.15 249.05 42.4 245.3 46.65 239.2 46.65 233.05 46.65 229.2 42.4 227.85 40.9 226.95 39.2 M252.4 27.1 Q251.55 22.65 248.75 19.4 244.8 14.8 238.7 14.8 236.45 14.8 233.85 15.75 231.35 16.7 230.2 18.0 L230.75 19.55 Q228.45 20.7 226.8 24.1 225.2 27.55 225.2 31.35 225.2 35.75 226.95 39.2 M221.1 22.0 L221.1 21.7 Q221.1 18.7 218.6 16.7 216.15 14.65 212.4 14.65 206.5 14.65 202.35 19.7 198.2 24.75 198.2 32.0 198.2 36.85 199.95 40.2 200.7 41.55 201.7 42.65 205.15 46.55 211.25 46.55 215.95 46.55 219.1 44.1 220.55 42.95 221.35 41.55 222.2 39.95 222.2 38.0 222.2 36.35 221.2 35.4 220.2 37.4 217.65 38.95 215.15 40.3 212.6 40.3 209.65 40.3 207.95 37.9 L207.75 37.65 Q206.2 35.3 206.2 31.35 206.2 27.25 207.8 24.55 209.45 21.8 211.85 21.8 213.25 21.8 214.4 23.0 215.45 24.25 215.45 25.9 L215.35 26.4 216.75 26.6 Q218.6 26.6 219.8 25.2 221.0 23.9 221.1 22.0 M178.2 21.8 L177.15 23.3 175.9 24.6 Q174.8 22.8 172.5 21.65 170.2 20.5 167.9 20.5 164.45 20.5 164.45 22.85 164.45 23.45 164.8 23.9 L166.75 25.45 M178.2 21.8 L178.55 20.5 Q178.55 18.2 175.4 16.7 172.3 15.1 167.5 15.1 162.45 15.1 159.2 17.45 155.9 19.8 155.9 23.3 155.9 25.65 157.35 27.65 158.75 29.6 161.45 31.25 L165.9 33.95 168.55 35.7 Q170.0 36.9 170.0 38.2 170.0 39.05 169.55 39.7 L169.15 40.15 Q168.2 40.85 166.75 40.85 164.6 40.85 162.6 40.0 L160.5 39.05 159.15 38.8 Q157.45 38.8 156.1 40.3 L153.95 42.55 154.15 42.6 156.45 43.9 157.6 44.55 Q162.35 47.05 167.5 47.05 172.65 47.05 175.75 44.55 178.85 42.05 178.85 37.8 L178.85 37.4 Q178.7 34.7 176.9 32.45 175.4 30.7 171.85 28.55 L166.75 25.45 M185.65 45.85 L185.2 45.5 Q183.9 44.55 183.9 42.9 183.9 40.85 186.15 39.35 188.35 37.8 191.25 37.8 193.35 37.8 194.6 38.8 195.9 39.8 195.9 41.4 L195.65 42.85 Q195.2 44.1 193.85 45.05 191.65 46.5 188.55 46.5 186.75 46.5 185.65 45.85 M125.95 39.25 Q124.2 35.8 124.2 31.35 124.2 27.55 125.8 24.1 127.45 20.7 129.75 19.55 L129.15 18.0 Q130.35 16.7 132.85 15.75 135.45 14.8 137.65 14.8 143.8 14.8 147.75 19.4 150.45 22.6 151.35 26.95 M125.95 39.25 Q126.85 40.95 128.15 42.4 132.05 46.65 138.15 46.65 144.3 46.65 148.05 42.4 151.7 38.15 151.7 31.1 151.7 28.9 151.35 26.95 M143.8 29.25 Q143.35 26.75 142.2 24.75 140.4 21.65 137.8 21.65 135.45 21.65 134.0 23.95 132.55 26.2 132.55 29.95 132.55 34.4 134.25 37.3 M143.8 29.25 L144.0 32.3 Q144.0 40.35 138.9 40.35 136.1 40.35 134.35 37.5 L134.25 37.3 M110.35 26.35 L110.25 25.05 Q110.25 23.5 109.45 22.6 108.75 21.6 107.65 21.6 105.05 21.6 103.2 24.9 101.25 28.15 101.25 32.6 101.25 36.8 102.75 38.45 M110.35 26.35 Q110.5 27.15 110.9 27.35 L111.3 27.55 111.45 27.55 111.35 27.65 Q110.75 28.35 110.4 31.45 109.4 39.5 105.35 39.5 103.75 39.5 102.75 38.45 M95.4 40.75 Q93.7 37.45 93.7 33.1 93.7 25.75 98.05 20.3 102.3 14.8 108.1 14.8 110.95 14.8 112.85 16.25 114.5 17.4 115.8 19.85 117.1 22.25 117.1 23.95 L116.45 25.9 116.7 25.9 117.95 25.85 118.0 25.85 Q119.25 25.85 119.25 27.0 L118.6 29.7 118.45 30.2 118.0 32.4 Q117.65 35.55 117.65 39.8 L117.65 40.6 117.65 43.55 117.75 45.65 117.75 47.45 117.5 52.85 Q117.0 55.85 115.4 57.8 113.1 60.45 108.3 60.45 104.2 60.45 101.4 58.35 L100.0 57.05 98.5 55.4 Q98.45 55.25 98.05 55.15 L100.65 53.6 Q102.05 52.9 103.05 52.9 L105.65 53.45 107.2 53.85 Q110.15 53.85 110.4 48.75 M95.4 40.75 L96.4 42.4 Q99.1 46.05 103.2 46.05 107.05 46.05 110.4 43.4 L110.4 43.95 110.4 46.05 110.4 47.85 110.4 48.75 M88.65 22.35 L88.65 22.95 Q88.65 26.75 85.25 30.05 81.95 33.25 76.6 34.6 77.1 37.4 78.5 38.85 M88.65 22.35 Q88.45 19.05 86.2 16.85 83.65 14.45 80.0 14.45 74.9 14.45 71.3 19.2 67.6 23.95 67.6 30.8 67.6 35.7 69.45 39.35 70.15 40.8 71.2 42.05 74.8 46.4 80.45 46.4 84.7 46.4 87.8 43.95 L88.8 43.1 Q90.95 41.05 90.95 38.45 90.95 37.0 90.35 36.05 89.0 37.9 86.75 39.15 84.45 40.3 82.4 40.3 79.95 40.3 78.5 38.85 M77.2 29.25 Q81.0 27.9 81.85 25.35 L82.1 23.75 Q82.1 20.95 79.55 20.95 77.9 20.95 76.7 22.8 75.45 24.65 75.45 27.2 75.45 28.35 75.8 29.65 L77.2 29.25 M61.7 39.15 Q62.3 39.65 63.15 39.65 L64.75 39.3 64.9 40.6 Q64.9 42.5 63.9 43.85 L63.45 44.4 Q62.0 45.85 59.75 45.85 55.5 45.85 53.6 40.65 49.4 46.05 44.45 46.05 40.85 46.05 38.6 43.6 L37.85 42.65 Q36.35 40.4 36.35 37.2 L36.5 32.8 36.95 25.85 Q36.95 22.25 36.0 19.5 L35.85 19.25 Q35.85 18.75 37.65 18.05 38.3 17.75 40.55 16.25 42.2 15.05 43.4 15.05 45.65 15.05 45.65 18.05 L45.6 19.45 45.3 21.7 44.85 26.2 44.7 27.55 Q44.35 31.1 44.35 33.45 44.35 37.4 45.8 38.4 L46.95 38.7 Q49.25 38.7 51.0 34.55 52.65 30.35 52.65 24.8 L52.55 22.65 52.4 21.05 52.2 20.55 Q52.2 20.5 52.55 20.35 L53.05 20.15 56.4 18.35 Q58.45 17.05 60.2 17.05 62.05 17.05 62.05 18.85 L61.7 21.35 61.5 22.45 Q60.2 28.55 60.2 33.75 60.2 37.95 61.7 39.15 M5.8 43.25 Q10.3 46.7 16.7 46.7 20.1 46.7 23.1 45.4 26.05 44.05 27.5 42.05 29.3 39.35 29.3 35.2 L29.1 29.0 Q28.8 24.45 28.8 17.25 L28.95 10.55 29.1 6.3 29.15 3.85 Q29.15 2.0 27.6 2.0 26.65 2.0 25.55 2.45 L23.5 3.3 Q21.55 4.1 19.4 4.15 20.1 6.4 20.45 11.05 21.1 20.7 21.05 25.95 L20.95 32.45 Q20.95 36.55 19.9 38.2 18.8 39.95 16.2 39.95 14.05 39.95 11.45 38.55 9.45 37.5 8.2 37.5 6.65 37.5 4.6 38.8 L2.0 40.1 2.4 40.25 3.95 41.6 5.8 43.25" fill="none" stroke="#ffffff" stroke-linecap="round" stroke-linejoin="round" stroke-width="1.0"/>
  </g>
  <defs>
    <linearGradient gradientTransform="matrix(0.0, -0.027, 0.0273, 0.0, 15.65, 24.3)" gradientUnits="userSpaceOnUse" id="gradient0" spreadMethod="pad" x1="-819.2" x2="819.2">
      <stop offset="0.00392156862745098" stop-color="#e1e1e1"/>
      <stop offset="1.0" stop-color="#ffffff"/>
    </linearGradient>
  </defs>
</svg>
