<?xml version="1.0" encoding="UTF-8" standalone="no"?>
<svg xmlns:xlink="http://www.w3.org/1999/xlink" height="20.75px" width="20.75px" xmlns="http://www.w3.org/2000/svg">
  <g transform="matrix(1.0, 0.0, 0.0, 1.0, 0.0, 0.0)">
    <path d="M20.55 8.2 L20.75 9.55 20.75 10.35 20.6 12.4 20.15 13.95 Q19.65 15.35 18.75 16.5 L17.7 17.7 Q14.7 20.75 10.4 20.75 6.1 20.75 3.0 17.7 0.0 14.65 0.0 10.35 0.0 6.05 3.0 3.0 L3.15 2.9 4.45 1.8 Q7.05 0.0 10.4 0.0 14.6 0.0 17.55 2.85 L17.7 3.0 Q19.05 4.4 19.8 6.0 L20.15 6.85 20.45 7.7 20.55 8.2 M13.55 7.65 L13.3 7.4 12.55 6.8 Q11.6 6.2 10.35 6.2 L9.3 6.35 8.05 6.85 8.0 6.9 7.45 7.35 7.4 7.4 7.0 7.85 Q6.2 8.9 6.2 10.3 L6.25 10.85 6.6 12.15 7.4 13.25 Q8.6 14.45 10.2 14.5 L10.35 14.5 10.6 14.5 11.9 14.25 13.3 13.25 13.7 12.8 14.2 11.95 14.25 11.75 14.45 11.15 14.5 10.85 14.5 10.3 14.5 10.0 14.45 9.45 14.25 8.9 14.15 8.6 13.55 7.65" fill="url(#gradient0)" fill-rule="evenodd" stroke="none"/>
    <path d="M12.55 6.8 L13.3 7.4 13.55 7.65 11.5 9.15 11.55 9.2 11.85 9.65 11.9 9.8 12.0 10.0 12.0 10.25 12.0 10.35 12.0 10.45 14.5 10.85 14.45 11.15 14.25 11.75 14.2 11.95 11.9 11.0 11.7 11.35 11.55 11.55 11.0 11.95 11.9 14.25 10.6 14.5 10.4 12.05 10.3 12.05 9.2 11.6 9.15 11.55 8.85 11.05 6.6 12.15 6.25 10.85 8.7 10.5 8.7 10.35 Q8.7 9.75 9.05 9.35 L9.15 9.2 9.25 9.1 8.05 6.85 9.3 6.35 9.85 8.8 10.35 8.7 11.2 8.9 12.55 6.8" fill="#999999" fill-rule="evenodd" stroke="none"/>
  </g>
  <defs>
    <radialGradient cx="0" cy="0" gradientTransform="matrix(0.0128, 0.0, 0.0, 0.0128, 10.4, 10.4)" gradientUnits="userSpaceOnUse" id="gradient0" r="819.2" spreadMethod="pad">
      <stop offset="0.25098039215686274" stop-color="#000000"/>
      <stop offset="0.7058823529411765" stop-color="#515151"/>
      <stop offset="1.0" stop-color="#1e1e1e"/>
    </radialGradient>
  </defs>
</svg>
