<?xml version="1.0" encoding="UTF-8" standalone="no"?>
<svg xmlns:xlink="http://www.w3.org/1999/xlink" height="47.05px" width="59.5px" xmlns="http://www.w3.org/2000/svg">
  <g transform="matrix(1.0, 0.0, 0.0, 1.0, 1.0, 1.0)">
    <path d="M43.2 16.95 L43.2 17.05 42.3 25.75 43.45 25.85 43.3 26.65 45.0 27.4 44.95 31.3 52.05 41.85 55.25 41.85 55.35 41.85 57.5 43.6 52.4 43.6 50.05 43.6 45.35 43.6 45.2 43.45 Q44.0 43.1 43.8 41.85 L43.75 39.4 43.65 35.5 43.55 31.6 43.5 30.75 43.45 28.65 42.85 28.4 42.7 28.95 41.95 28.85 41.8 30.35 41.65 30.35 41.35 32.8 42.55 34.6 42.8 35.2 43.0 35.8 43.05 36.2 43.2 37.15 43.2 37.7 43.1 39.15 42.8 40.25 41.8 42.05 41.05 42.9 Q38.9 45.05 35.85 45.05 32.8 45.05 30.65 42.9 28.5 40.75 28.5 37.7 28.5 36.75 28.75 35.85 L20.6 35.85 20.15 37.4 Q19.65 38.8 18.75 39.95 L17.7 41.15 Q14.7 44.2 10.4 44.2 6.1 44.2 3.0 41.15 0.0 38.1 0.0 33.8 0.0 29.5 3.0 26.45 L3.15 26.35 1.9 6.15 4.25 0.45 4.8 0.35 6.05 0.0 5.1 5.7 6.85 6.0 7.2 7.8 7.3 8.95 7.15 9.05 7.3 9.1 7.15 10.5 7.1 10.55 6.8 11.5 6.7 11.75 7.05 12.4 7.0 12.45 7.1 12.5 Q8.35 15.3 8.55 18.3 L8.55 18.5 8.55 19.8 20.9 19.6 25.3 14.25 25.5 14.0 32.4 13.35 31.35 5.3 32.35 2.7 33.8 3.7 33.15 5.6 34.25 13.2 39.25 12.85 Q42.75 12.8 43.15 16.45 L43.2 16.95 M11.9 34.45 L11.7 34.8 11.55 35.0 11.0 35.4 11.9 37.7 13.3 36.7 13.7 36.25 14.2 35.4 11.9 34.45 M14.25 32.35 L14.15 32.05 13.55 31.1 11.5 32.6 11.55 32.65 11.85 33.1 11.9 33.25 12.0 33.45 12.0 33.7 12.0 33.8 12.0 33.9 14.5 34.3 14.5 33.75 14.5 33.45 14.45 32.9 14.25 32.35 M12.55 30.25 Q11.6 29.65 10.35 29.65 L9.3 29.8 9.85 32.25 10.35 32.15 11.2 32.35 12.55 30.25 M10.3 35.5 L9.2 35.05 9.15 35.0 8.85 34.5 6.6 35.6 7.4 36.7 Q8.6 37.9 10.2 37.95 L10.35 37.95 10.6 37.95 10.4 35.5 10.3 35.5 M34.9 37.0 L35.0 36.9 35.05 36.8 34.2 35.2 34.15 35.25 33.8 35.55 33.75 35.6 33.45 35.95 Q32.9 36.65 32.9 37.65 L32.95 38.05 34.65 37.8 34.65 37.7 Q34.65 37.25 34.9 37.0 M8.05 30.3 L8.0 30.35 7.45 30.8 7.4 30.85 7.0 31.3 Q6.2 32.35 6.2 33.75 L6.25 34.3 8.7 33.95 8.7 33.8 Q8.7 33.2 9.05 32.8 L9.15 32.65 9.25 32.55 8.05 30.3 M35.85 34.75 L35.1 34.85 35.5 36.6 35.85 36.55 36.45 36.65 37.4 35.2 Q36.7 34.75 35.85 34.75 M36.7 36.9 L36.9 37.2 36.95 37.3 37.0 37.45 37.0 37.65 37.0 37.75 38.75 38.05 38.75 37.65 38.75 37.45 38.75 37.05 38.6 36.65 38.55 36.45 38.1 35.8 36.65 36.85 36.7 36.9 M38.2 39.45 L38.55 38.85 36.95 38.15 36.8 38.4 36.7 38.55 36.3 38.85 36.95 40.45 37.9 39.75 38.2 39.45 M35.8 38.9 Q35.35 38.9 35.0 38.6 L35.0 38.55 34.75 38.2 33.2 38.95 33.75 39.75 Q34.6 40.6 35.75 40.65 L35.85 40.65 36.0 40.65 35.85 38.9 35.8 38.9" fill="#000000" fill-rule="evenodd" stroke="none"/>
    <path d="M43.2 16.95 L43.2 17.05 42.3 25.75 43.45 25.85 43.3 26.65 45.0 27.4 44.95 31.3 52.05 41.85 55.25 41.85 55.35 41.85 57.5 43.6 52.4 43.6 50.05 43.6 45.35 43.6 45.2 43.45 Q44.0 43.1 43.8 41.85 L43.75 39.4 43.65 35.5 43.55 31.6 43.5 30.75 43.45 28.65 42.85 28.4 42.7 28.95 41.95 28.85 41.8 30.35 41.65 30.35 41.35 32.8 42.55 34.6 42.8 35.2 43.0 35.8 43.05 36.2 43.2 37.15 43.2 37.7 43.1 39.15 42.8 40.25 41.8 42.05 41.05 42.9 Q38.9 45.05 35.85 45.05 32.8 45.05 30.65 42.9 28.5 40.75 28.5 37.7 28.5 36.75 28.75 35.85 L20.6 35.85 20.15 37.4 Q19.65 38.8 18.75 39.95 L17.7 41.15 Q14.7 44.2 10.4 44.2 6.1 44.2 3.0 41.15 0.0 38.1 0.0 33.8 0.0 29.5 3.0 26.45 L3.15 26.35 1.9 6.15 4.25 0.45 4.8 0.35 6.05 0.0 5.1 5.7 6.85 6.0 7.2 7.8 7.3 8.95 7.15 9.05 7.3 9.1 7.15 10.5 7.1 10.55 6.8 11.5 6.7 11.75 7.05 12.4 7.0 12.45 7.1 12.5 Q8.35 15.3 8.55 18.3 L8.55 18.5 8.55 19.8 20.9 19.6 25.3 14.25 25.5 14.0 32.4 13.35 31.35 5.3 32.35 2.7 33.8 3.7 33.15 5.6 34.25 13.2 39.25 12.85 Q42.75 12.8 43.15 16.45 L43.2 16.95" fill="none" stroke="#000000" stroke-linecap="round" stroke-linejoin="round" stroke-width="2.0"/>
    <path d="M12.55 30.25 L11.2 32.35 10.35 32.15 9.85 32.25 9.3 29.8 10.35 29.65 Q11.6 29.65 12.55 30.25 M14.25 32.35 L14.45 32.9 14.5 33.45 14.5 33.75 14.5 34.3 12.0 33.9 12.0 33.8 12.0 33.7 12.0 33.45 11.9 33.25 11.85 33.1 11.55 32.65 11.5 32.6 13.55 31.1 14.15 32.05 14.25 32.35 M11.9 34.45 L14.2 35.4 13.7 36.25 13.3 36.7 11.9 37.7 11.0 35.4 11.55 35.0 11.7 34.8 11.9 34.45 M10.3 35.5 L9.2 35.05 9.15 35.0 8.85 34.5 6.6 35.6 7.4 36.7 Q8.6 37.9 10.2 37.95 L10.35 37.95 10.6 37.95 10.4 35.5 10.3 35.5 M8.05 30.3 L9.25 32.55 9.15 32.65 9.05 32.8 Q8.7 33.2 8.7 33.8 L8.7 33.95 6.25 34.3 6.2 33.75 Q6.2 32.35 7.0 31.3 L7.4 30.85 7.45 30.8 8.0 30.35 8.05 30.3 M34.9 37.0 Q34.65 37.25 34.65 37.7 L34.65 37.8 32.95 38.05 32.9 37.65 Q32.9 36.65 33.45 35.95 L33.75 35.6 33.8 35.55 34.15 35.25 34.2 35.2 35.05 36.8 35.0 36.9 34.9 37.0 M35.85 34.75 L35.1 34.85 35.5 36.6 35.85 36.55 36.45 36.65 37.4 35.2 Q36.7 34.75 35.85 34.75 M36.7 36.9 L36.9 37.2 36.95 37.3 37.0 37.45 37.0 37.65 37.0 37.75 38.75 38.05 38.75 37.65 38.75 37.45 38.75 37.05 38.6 36.65 38.55 36.45 38.1 35.8 36.65 36.85 36.7 36.9 M38.2 39.45 L37.9 39.75 36.95 40.45 36.3 38.85 36.7 38.55 36.8 38.4 36.95 38.15 38.55 38.85 38.2 39.45 M35.8 38.9 Q35.35 38.9 35.0 38.6 L35.0 38.55 34.75 38.2 33.2 38.95 33.75 39.75 Q34.6 40.6 35.75 40.65 L35.85 40.65 36.0 40.65 35.85 38.9 35.8 38.9" fill="none" stroke="#000000" stroke-linecap="round" stroke-linejoin="round" stroke-width="1.0"/>
    <path d="M43.15 16.45 L41.9 16.85 Q40.95 15.55 38.65 14.75 L25.45 15.2 25.3 14.25 25.5 14.0 32.4 13.35 33.2 13.3 34.25 13.2 39.25 12.85 Q42.75 12.8 43.15 16.45" fill="#ffc354" fill-rule="evenodd" stroke="none"/>
    <path d="M41.9 16.85 L43.15 16.45 43.2 16.95 43.2 17.05 37.9 18.6 37.85 18.6 37.85 21.45 37.5 18.15 39.35 17.6 41.9 16.85" fill="#ffdfa6" fill-rule="evenodd" stroke="none"/>
    <path d="M34.25 13.2 L33.2 13.3 Q32.15 7.1 32.15 5.7 L33.0 3.15 33.8 3.7 33.15 5.6 34.25 13.2 M25.45 15.2 L38.65 14.75 Q40.95 15.55 41.9 16.85 L39.35 17.6 Q38.4 16.9 36.9 16.6 L32.55 16.15 32.5 16.15 28.2 16.6 Q26.15 17.3 26.15 19.55 L26.1 19.55 26.2 20.2 26.3 20.9 26.45 21.7 25.25 21.65 20.65 22.2 15.15 22.7 8.5 22.5 Q5.05 22.25 2.85 21.45 L1.9 6.15 4.25 0.45 4.8 0.35 3.35 6.95 4.25 19.95 Q4.55 21.0 5.65 21.05 L20.45 20.95 25.45 15.2 M37.9 18.6 L43.2 17.05 43.1 18.2 39.1 19.3 37.9 18.6 M42.7 21.75 L42.65 22.4 Q41.35 23.1 37.9 21.7 L39.1 21.35 39.1 21.3 Q40.7 22.25 42.7 21.75 M41.95 28.85 L41.8 30.35 41.65 30.35 40.75 30.35 27.7 30.25 27.55 29.2 27.3 27.6 Q28.7 28.45 29.35 28.5 L32.6 28.75 37.0 28.2 40.15 27.5 40.0 28.35 41.95 28.85" fill="#ffb01e" fill-rule="evenodd" stroke="none"/>
    <path d="M25.3 14.25 L25.45 15.2 20.45 20.95 5.65 21.05 Q4.55 21.0 4.25 19.95 L3.35 6.95 4.8 0.35 6.05 0.0 5.1 5.7 4.7 6.7 4.55 7.1 4.75 9.55 4.85 11.0 5.5 19.8 8.55 19.8 20.9 19.6 25.3 14.25 M43.1 18.2 L42.7 21.75 Q40.7 22.25 39.1 21.3 L39.1 19.3 43.1 18.2" fill="#fbe9a6" fill-rule="evenodd" stroke="none"/>
    <path d="M43.3 26.65 L45.0 27.4 44.95 31.3 52.05 41.85 55.25 41.85 55.45 42.75 51.8 42.75 44.45 31.85 44.3 27.75 43.15 27.2 43.3 26.65" fill="#ddf755" fill-rule="evenodd" stroke="none"/>
    <path d="M39.35 17.6 L37.5 18.15 37.85 21.45 37.85 21.65 37.9 21.7 Q41.35 23.1 42.65 22.4 L42.3 25.75 43.45 25.85 43.3 26.65 43.15 27.2 42.85 28.4 42.7 28.95 42.4 28.9 42.55 27.95 42.7 27.1 42.75 26.6 42.7 26.4 41.6 26.2 Q40.95 26.2 40.3 26.8 L40.15 27.5 37.0 28.2 32.6 28.75 29.35 28.5 Q28.7 28.45 27.3 27.6 L27.3 27.4 27.15 26.35 25.85 26.05 24.55 25.95 21.6 26.2 18.75 26.45 17.75 26.35 17.55 26.3 Q14.6 23.45 10.4 23.45 7.05 23.45 4.45 25.25 L3.15 26.35 2.85 21.45 Q5.05 22.25 8.5 22.5 L15.15 22.7 20.65 22.2 25.25 21.65 26.45 21.7 26.3 20.9 26.2 20.2 26.15 19.55 Q26.15 17.3 28.2 16.6 L32.5 16.15 32.55 16.15 36.9 16.6 Q38.4 16.9 39.35 17.6 M41.65 30.35 L41.55 31.15 39.05 31.15 Q37.65 30.5 36.05 30.5 34.35 30.5 33.0 31.15 L20.45 31.15 20.15 30.3 21.6 30.3 26.3 30.25 27.7 30.25 40.75 30.35 41.65 30.35 M30.7 33.0 L29.9 34.15 29.3 35.85 20.6 35.85 20.75 33.8 20.75 33.0 30.7 33.0" fill="#e09100" fill-rule="evenodd" stroke="none"/>
    <path d="M52.4 43.6 L50.05 43.6 47.15 42.75 Q44.85 42.25 44.7 39.4 L43.55 31.6 43.5 30.75 43.45 28.65 42.85 28.4 43.15 27.2 44.3 27.75 44.45 31.85 51.8 42.75 52.4 43.6" fill="#b6b406" fill-rule="evenodd" stroke="none"/>
    <path d="M33.2 13.3 L32.4 13.35 31.35 5.3 32.35 2.7 33.0 3.15 32.15 5.7 Q32.15 7.1 33.2 13.3 M37.85 21.45 L37.85 18.6 37.9 18.6 39.1 19.3 39.1 21.3 39.1 21.35 37.9 21.7 37.85 21.65 37.85 21.45 M42.4 28.9 L41.95 28.85 40.0 28.35 40.15 27.5 40.3 26.8 Q40.95 26.2 41.6 26.2 L42.7 26.4 42.75 26.6 42.7 27.1 42.55 27.95 42.4 28.9 M41.55 31.15 L41.3 32.95 40.85 32.45 39.05 31.15 41.55 31.15 M33.0 31.15 Q32.5 31.35 32.1 31.65 L31.3 32.35 31.25 32.4 31.15 32.45 30.7 33.0 20.75 33.0 20.55 31.65 20.45 31.15 33.0 31.15 M20.15 30.3 L19.8 29.45 Q19.05 27.85 17.7 26.45 L17.75 26.35 18.75 26.45 21.6 26.2 24.55 25.95 25.85 26.05 27.15 26.35 27.3 27.4 27.3 27.6 27.55 29.2 27.7 30.25 26.3 30.25 21.6 30.3 20.15 30.3" fill="#c47f00" fill-rule="evenodd" stroke="none"/>
    <path d="M50.05 43.6 L45.35 43.6 45.2 43.45 Q44.0 43.1 43.8 41.85 L43.75 39.4 43.65 35.5 43.55 31.6 44.7 39.4 Q44.85 42.25 47.15 42.75 L50.05 43.6" fill="#8c8c0b" fill-rule="evenodd" stroke="none"/>
    <path d="M55.25 41.85 L55.35 41.85 57.5 43.6 52.4 43.6 51.8 42.75 55.45 42.75 55.25 41.85" fill="#c2c21a" fill-rule="evenodd" stroke="none"/>
    <path d="M5.9 5.85 L6.85 6.0 7.2 7.8 Q5.85 7.45 5.85 6.2 L5.9 5.85 M7.0 12.45 L7.1 12.5 Q8.35 15.3 8.55 18.3 6.35 17.1 6.35 14.15 L6.55 13.05 7.0 12.45" fill="#c1249c" fill-rule="evenodd" stroke="none"/>
    <path d="M5.1 5.7 L5.9 5.85 5.85 6.2 Q5.85 7.45 7.2 7.8 L7.3 8.95 7.15 9.05 Q6.3 9.05 5.55 8.3 4.9 7.6 4.7 6.7 L5.1 5.7 M6.7 11.75 L7.05 12.4 7.0 12.45 6.55 13.05 6.35 14.15 Q6.35 17.1 8.55 18.3 L8.55 18.5 8.55 19.8 5.5 19.8 4.85 11.0 5.9 11.55 6.7 11.75" fill="#a60c81" fill-rule="evenodd" stroke="none"/>
    <path d="M7.1 10.55 L6.8 11.5 6.7 11.75 5.9 11.55 4.85 11.0 4.75 9.55 6.05 10.25 7.1 10.55" fill="#740058" fill-rule="evenodd" stroke="none"/>
    <path d="M7.15 9.05 L7.3 9.1 7.15 10.5 7.1 10.55 6.05 10.25 4.75 9.55 4.55 7.1 4.7 6.7 Q4.9 7.6 5.55 8.3 6.3 9.05 7.15 9.05" fill="#91016e" fill-rule="evenodd" stroke="none"/>
  </g>
</svg>
