<?xml version="1.0" encoding="UTF-8" standalone="no"?>
<svg xmlns:xlink="http://www.w3.org/1999/xlink" height="52.95px" width="36.0px" xmlns="http://www.w3.org/2000/svg">
  <g transform="matrix(1.0, 0.0, 0.0, 1.0, 1.0, 1.0)">
    <path d="M26.95 0.05 L29.1 0.6 Q30.6 1.3 31.3 2.7 L31.65 3.85 32.4 13.15 32.4 30.95 32.35 31.5 32.25 32.6 32.2 33.2 32.15 33.7 32.1 33.95 32.0 35.05 32.65 35.65 Q34.0 37.15 34.0 39.2 L34.0 46.05 Q34.0 48.1 32.65 49.5 31.4 50.95 29.55 50.95 L29.5 50.95 Q27.65 50.95 26.35 49.5 25.05 48.1 25.05 46.05 L25.05 45.1 24.05 45.1 8.95 45.2 8.95 46.05 Q8.95 48.1 7.6 49.5 6.35 50.95 4.5 50.95 L4.45 50.95 Q2.6 50.95 1.3 49.5 0.0 48.1 0.0 46.05 L0.0 39.2 Q0.0 37.15 1.3 35.65 L1.85 35.2 1.65 33.85 1.55 33.0 1.5 32.4 1.35 31.35 1.3 30.95 1.8 4.35 Q1.85 3.0 2.5 2.1 3.5 0.55 6.1 0.05 L6.35 0.0 26.95 0.05" fill="#000000" fill-rule="evenodd" stroke="none"/>
    <path d="M26.95 0.05 L6.35 0.0 6.1 0.05 Q3.5 0.55 2.5 2.1 1.85 3.0 1.8 4.35 L1.3 30.95 1.35 31.35 1.5 32.4 1.55 33.0 1.65 33.85 1.85 35.2 1.3 35.65 Q0.0 37.15 0.0 39.2 L0.0 46.05 Q0.0 48.1 1.3 49.5 2.6 50.95 4.45 50.95 L4.5 50.95 Q6.35 50.95 7.6 49.5 8.95 48.1 8.95 46.05 L8.95 45.2 24.05 45.1 25.05 45.1 25.05 46.05 Q25.05 48.1 26.35 49.5 27.65 50.95 29.5 50.95 L29.55 50.95 Q31.4 50.95 32.65 49.5 34.0 48.1 34.0 46.05 L34.0 39.2 Q34.0 37.15 32.65 35.65 L32.0 35.05 32.1 33.95 32.15 33.7 32.2 33.2 32.25 32.6 32.35 31.5 32.4 30.95 32.4 13.15 31.65 3.85 31.3 2.7 Q30.6 1.3 29.1 0.6 L26.95 0.05 Z" fill="none" stroke="#000000" stroke-linecap="round" stroke-linejoin="round" stroke-width="2.0"/>
    <path d="M4.45 34.25 L4.5 34.25 Q6.35 34.25 7.6 35.65 8.95 37.15 8.95 39.2 L8.95 46.05 Q8.95 48.1 7.6 49.5 6.35 50.95 4.5 50.95 L4.45 50.95 Q2.6 50.95 1.3 49.5 0.0 48.1 0.0 46.05 L0.0 39.2 Q0.0 37.15 1.3 35.65 2.6 34.25 4.45 34.25" fill="url(#gradient0)" fill-rule="evenodd" stroke="none"/>
    <path d="M25.05 46.05 L25.05 39.2 Q25.05 37.15 26.35 35.65 27.65 34.25 29.5 34.25 L29.55 34.25 Q31.4 34.25 32.65 35.65 34.0 37.15 34.0 39.2 L34.0 46.05 Q34.0 48.1 32.65 49.5 31.4 50.95 29.55 50.95 L29.5 50.95 Q27.65 50.95 26.35 49.5 25.05 48.1 25.05 46.05" fill="url(#gradient1)" fill-rule="evenodd" stroke="none"/>
    <path d="M31.3 2.7 L31.65 3.85 32.4 13.15 32.4 22.2 32.35 21.85 32.3 21.5 31.6 17.9 30.4 13.15 30.35 13.15 30.35 13.05 30.45 10.95 Q30.45 8.65 29.55 6.65 28.9 5.2 28.1 4.55 30.15 3.8 31.3 2.7 M32.15 33.7 L32.1 33.95 31.3 42.3 Q30.85 44.45 27.75 44.95 28.65 43.95 29.05 41.8 L29.4 38.45 29.4 36.35 29.15 32.35 29.1 30.95 32.15 33.7 M5.1 45.0 Q2.85 44.3 2.7 42.15 L1.65 33.85 3.65 31.15 3.15 36.2 3.25 37.5 3.75 40.75 Q4.35 44.1 5.1 45.0 M1.3 21.3 L1.8 4.35 Q1.85 3.0 2.5 2.1 2.7 3.25 4.05 4.1 3.05 5.5 2.9 6.65 2.75 7.75 3.0 10.6 L3.1 13.15 3.15 13.25 1.9 18.8 1.3 21.3 M8.9 10.55 L8.8 10.7 8.05 11.1 7.85 11.1 Q7.45 10.5 7.15 9.0 6.8 7.4 6.8 6.55 L7.1 5.25 7.1 5.05 7.05 4.65 7.35 4.65 8.1 4.55 8.1 4.7 8.0 5.4 Q7.85 5.75 7.85 6.1 7.85 6.85 8.4 8.85 L8.9 10.55 M7.1 10.95 L7.0 10.9 6.6 10.25 5.95 6.25 6.05 4.95 6.2 3.95 Q6.2 4.4 6.5 4.55 L6.55 4.55 6.3 6.05 Q6.3 7.2 6.6 9.05 L7.1 10.95" fill="#e09100" fill-rule="evenodd" stroke="none"/>
    <path d="M32.4 22.2 L32.4 30.95 30.85 29.2 30.75 17.7 30.1 17.15 Q29.7 15.3 28.1 14.65 L27.0 14.4 26.15 13.15 26.05 13.15 26.1 13.05 26.4 11.55 26.9 7.6 26.85 5.95 26.35 5.1 26.85 4.95 28.1 4.55 Q28.9 5.2 29.55 6.65 30.45 8.65 30.45 10.95 L30.35 13.05 30.35 13.15 30.4 13.15 31.6 17.9 32.3 21.5 32.35 21.85 32.4 22.2 M27.75 44.95 L26.95 45.05 24.05 45.1 Q24.85 44.4 25.25 43.25 L25.75 40.95 Q23.95 42.05 23.15 42.25 17.2 43.65 13.1 43.65 8.0 43.65 6.0 41.85 L5.6 41.4 5.8 42.8 Q6.3 44.65 7.9 45.2 L5.8 45.2 5.2 45.05 5.1 45.0 Q4.35 44.1 3.75 40.75 L3.25 37.5 3.15 36.2 3.65 31.15 6.05 29.15 5.75 32.5 Q5.45 34.5 5.5 38.75 6.15 40.5 7.85 41.35 9.9 42.35 14.6 42.35 21.55 42.35 26.05 38.55 26.45 35.05 26.45 32.5 26.45 30.35 26.1 28.8 L29.1 30.95 29.15 32.35 29.4 36.35 29.4 38.45 29.05 41.8 Q28.65 43.95 27.75 44.95 M1.3 30.95 L1.3 21.3 1.9 18.8 3.15 13.25 3.1 13.15 3.0 10.6 Q2.75 7.75 2.9 6.65 3.05 5.5 4.05 4.1 L5.85 4.9 5.75 5.55 5.45 9.05 Q5.45 10.75 5.8 11.65 L6.6 13.05 6.65 13.15 6.55 13.15 6.1 14.45 6.05 14.45 Q5.55 14.45 4.25 16.25 L3.15 17.95 2.55 18.55 2.25 29.65 1.3 30.95 M7.85 11.1 L7.75 11.1 7.3 11.05 7.1 10.95 6.6 9.05 Q6.3 7.2 6.3 6.05 L6.55 4.55 7.05 4.65 7.1 5.05 7.1 5.25 6.8 6.55 Q6.8 7.4 7.15 9.0 7.45 10.5 7.85 11.1" fill="#ffb01e" fill-rule="evenodd" stroke="none"/>
    <path d="M26.35 5.1 L26.85 5.95 26.9 7.6 26.4 11.55 26.1 13.05 26.05 13.15 26.15 13.15 27.0 14.4 23.8 14.25 Q17.65 14.25 7.9 14.65 L6.1 14.45 6.55 13.15 6.65 13.15 6.6 13.05 5.8 11.65 Q5.45 10.75 5.45 9.05 L5.75 5.55 5.85 4.9 6.05 4.95 5.95 6.25 6.6 10.25 7.0 10.9 7.1 10.95 7.3 11.05 7.75 11.1 7.85 11.1 8.05 11.1 8.8 10.7 8.9 10.55 9.05 10.05 8.1 6.1 8.2 5.45 17.75 6.0 26.35 5.1 M6.05 29.15 L6.05 29.1 6.1 29.15 7.35 27.75 25.15 28.0 26.1 28.8 Q26.45 30.35 26.45 32.5 26.45 35.05 26.05 38.55 21.55 42.35 14.6 42.35 9.9 42.35 7.85 41.35 6.15 40.5 5.5 38.75 5.45 34.5 5.75 32.5 L6.05 29.15" fill="#ffc354" fill-rule="evenodd" stroke="none"/>
    <path d="M32.4 30.95 L32.35 31.5 29.4 28.55 25.65 26.2 7.2 26.2 3.5 28.85 1.35 31.35 1.3 30.95 2.25 29.65 2.55 18.55 3.15 17.95 4.4 16.7 Q3.95 17.15 3.65 17.95 L3.65 19.15 3.65 27.9 7.35 25.4 26.1 25.6 29.6 27.95 29.6 19.15 29.6 17.6 Q29.55 16.75 29.1 16.2 L30.1 17.15 30.75 17.7 30.85 29.2 32.4 30.95 M6.1 0.05 L6.35 0.0 8.15 0.0 Q8.35 1.2 12.4 1.9 L17.75 2.4 22.4 2.05 Q24.55 1.5 25.8 0.05 L26.95 0.05 29.1 0.6 Q26.75 3.2 18.3 3.2 L11.6 2.75 Q6.05 2.05 6.05 0.65 L6.1 0.05 M8.2 5.45 L8.1 6.1 9.05 10.05 8.9 10.55 8.4 8.85 Q7.85 6.85 7.85 6.1 7.85 5.75 8.0 5.4 L8.1 4.7 8.1 4.55 8.4 4.3 8.2 5.45" fill="#ffd893" fill-rule="evenodd" stroke="none"/>
    <path d="M2.5 2.1 Q3.5 0.55 6.1 0.05 L6.05 0.65 Q6.05 2.05 11.6 2.75 L18.3 3.2 Q26.75 3.2 29.1 0.6 30.6 1.3 31.3 2.7 30.15 3.8 28.1 4.55 L26.85 4.95 26.35 5.1 17.75 6.0 8.2 5.45 8.4 4.3 8.55 3.85 8.55 3.75 Q8.55 3.3 7.75 3.1 L7.35 3.05 7.25 3.05 6.8 3.0 Q6.4 3.1 6.3 3.5 L6.2 3.95 6.05 4.95 5.85 4.9 4.05 4.1 Q2.7 3.25 2.5 2.1" fill="#ffc864" fill-rule="evenodd" stroke="none"/>
    <path d="M8.15 0.0 L25.8 0.05 Q24.55 1.5 22.4 2.05 L17.75 2.4 12.4 1.9 Q8.35 1.2 8.15 0.0 M27.0 14.4 L28.1 14.65 Q29.7 15.3 30.1 17.15 L29.1 16.2 28.5 15.7 28.25 15.55 28.1 15.5 27.6 15.3 26.95 15.15 6.95 15.15 5.7 15.5 5.5 15.6 5.45 15.65 4.55 16.45 4.45 16.6 4.4 16.7 3.15 17.95 4.25 16.25 Q5.55 14.45 6.05 14.45 L6.1 14.45 7.9 14.65 Q17.65 14.25 23.8 14.25 L27.0 14.4" fill="#ffeed0" fill-rule="evenodd" stroke="none"/>
    <path d="M4.4 16.7 L4.45 16.6 4.55 16.45 5.45 15.65 5.5 15.6 5.7 15.5 6.95 15.15 26.95 15.15 27.6 15.3 28.1 15.5 28.25 15.55 28.5 15.7 29.1 16.2 Q29.55 16.75 29.6 17.6 L29.6 19.15 Q16.9 17.15 3.65 19.15 L3.65 17.95 Q3.95 17.15 4.4 16.7" fill="#5d3504" fill-rule="evenodd" stroke="none"/>
    <path d="M6.2 3.95 L6.3 3.5 Q6.4 3.1 6.8 3.0 L7.25 3.05 7.35 3.05 7.75 3.1 Q8.55 3.3 8.55 3.75 L8.55 3.85 8.4 4.3 8.1 4.55 7.35 4.65 7.05 4.65 6.55 4.55 6.5 4.55 Q6.2 4.4 6.2 3.95 M7.0 3.4 Q6.2 3.9 6.7 4.15 L7.35 4.25 7.7 4.2 7.75 4.2 Q8.1 3.7 7.15 3.35 L7.0 3.35 7.0 3.4" fill="#fbe9a6" fill-rule="evenodd" stroke="none"/>
    <path d="M7.15 3.35 L7.0 3.4 7.0 3.35 7.15 3.35" fill="#9bd084" fill-rule="evenodd" stroke="none"/>
    <path d="M7.15 3.35 Q8.1 3.7 7.75 4.2 L7.7 4.2 7.35 4.25 6.7 4.15 Q6.2 3.9 7.0 3.4 L7.15 3.35" fill="#b17300" fill-rule="evenodd" stroke="none"/>
    <path d="M32.25 32.6 L32.2 33.2 32.15 33.7 29.1 30.95 26.1 28.8 25.15 28.0 7.35 27.75 6.1 29.15 6.05 29.1 6.05 29.15 3.65 31.15 1.65 33.85 1.55 33.0 1.5 32.4 4.0 29.2 7.25 26.8 25.15 27.0 29.15 29.2 32.25 32.6" fill="#bb7900" fill-rule="evenodd" stroke="none"/>
    <path d="M32.35 31.5 L32.25 32.6 29.15 29.2 25.15 27.0 7.25 26.8 4.0 29.2 1.5 32.4 1.35 31.35 3.5 28.85 7.2 26.2 25.65 26.2 29.4 28.55 32.35 31.5" fill="#f7da66" fill-rule="evenodd" stroke="none"/>
    <path d="M29.6 19.15 L29.6 27.95 26.1 25.6 7.35 25.4 3.65 27.9 3.65 19.15 Q16.9 17.15 29.6 19.15" fill="#72460f" fill-rule="evenodd" stroke="none"/>
    <path d="M24.05 45.1 L8.55 45.2 7.9 45.2 Q6.3 44.65 5.8 42.8 L5.6 41.4 6.0 41.85 Q8.0 43.65 13.1 43.65 17.2 43.65 23.15 42.25 23.95 42.05 25.75 40.95 L25.25 43.25 Q24.85 44.4 24.05 45.1" fill="#faa202" fill-rule="evenodd" stroke="none"/>
  </g>
  <defs>
    <linearGradient gradientTransform="matrix(0.0054, 0.0, 0.0, 0.0102, 4.5, 43.4)" gradientUnits="userSpaceOnUse" id="gradient0" spreadMethod="pad" x1="-819.2" x2="819.2">
      <stop offset="0.0" stop-color="#000000"/>
      <stop offset="0.5019607843137255" stop-color="#595959"/>
      <stop offset="1.0" stop-color="#000000"/>
    </linearGradient>
    <linearGradient gradientTransform="matrix(0.0054, 0.0, 0.0, 0.0102, 29.55, 43.4)" gradientUnits="userSpaceOnUse" id="gradient1" spreadMethod="pad" x1="-819.2" x2="819.2">
      <stop offset="0.0" stop-color="#000000"/>
      <stop offset="0.5019607843137255" stop-color="#595959"/>
      <stop offset="1.0" stop-color="#000000"/>
    </linearGradient>
  </defs>
</svg>
