<?xml version="1.0" encoding="UTF-8" standalone="no"?>
<svg xmlns:xlink="http://www.w3.org/1999/xlink" height="53.95px" width="36.0px" xmlns="http://www.w3.org/2000/svg">
  <g transform="matrix(1.0, 0.0, 0.0, 1.0, 1.0, 2.0)">
    <path d="M6.35 -1.0 L26.95 -0.95 29.1 -0.4 Q30.6 0.3 31.3 1.7 L31.65 2.85 32.4 12.15 32.4 29.95 32.35 30.5 32.25 31.6 32.2 32.2 32.15 32.7 32.1 32.95 31.9 35.0 32.65 35.65 Q34.0 37.15 34.0 39.2 L34.0 46.05 Q34.0 48.1 32.65 49.5 31.4 50.95 29.55 50.95 L29.5 50.95 Q27.65 50.95 26.35 49.5 25.05 48.1 25.05 46.05 L25.05 44.1 24.05 44.1 8.95 44.2 8.95 46.05 Q8.95 48.1 7.6 49.5 6.35 50.95 4.5 50.95 L4.45 50.95 Q2.6 50.95 1.3 49.5 0.0 48.1 0.0 46.05 L0.0 39.2 Q0.0 37.15 1.3 35.65 L1.95 35.1 1.65 32.85 1.55 32.0 1.5 31.4 1.35 30.35 1.3 29.95 1.8 3.35 Q1.85 2.0 2.5 1.1 3.5 -0.45 6.1 -0.95 L6.35 -1.0" fill="#000000" fill-rule="evenodd" stroke="none"/>
    <path d="M6.35 -1.0 L26.95 -0.95 29.1 -0.4 Q30.6 0.3 31.3 1.7 L31.65 2.85 32.4 12.15 32.4 29.95 32.35 30.5 32.25 31.6 32.2 32.2 32.15 32.7 32.1 32.95 31.9 35.0 32.65 35.65 Q34.0 37.15 34.0 39.2 L34.0 46.05 Q34.0 48.1 32.65 49.5 31.4 50.95 29.55 50.95 L29.5 50.95 Q27.65 50.95 26.35 49.5 25.05 48.1 25.05 46.05 L25.05 44.1 24.05 44.1 8.95 44.2 8.95 46.05 Q8.95 48.1 7.6 49.5 6.35 50.95 4.5 50.95 L4.45 50.95 Q2.6 50.95 1.3 49.5 0.0 48.1 0.0 46.05 L0.0 39.2 Q0.0 37.15 1.3 35.65 L1.95 35.1 1.65 32.85 1.55 32.0 1.5 31.4 1.35 30.35 1.3 29.95 1.8 3.35 Q1.85 2.0 2.5 1.1 3.5 -0.45 6.1 -0.95 L6.35 -1.0 Z" fill="none" stroke="#000000" stroke-linecap="round" stroke-linejoin="round" stroke-width="2.0"/>
    <path d="M4.45 34.25 L4.5 34.25 Q6.35 34.25 7.6 35.65 8.95 37.15 8.95 39.2 L8.95 46.05 Q8.95 48.1 7.6 49.5 6.35 50.95 4.5 50.95 L4.45 50.95 Q2.6 50.95 1.3 49.5 0.0 48.1 0.0 46.05 L0.0 39.2 Q0.0 37.15 1.3 35.65 2.6 34.25 4.45 34.25" fill="url(#gradient0)" fill-rule="evenodd" stroke="none"/>
    <path d="M25.05 46.05 L25.05 39.2 Q25.05 37.15 26.35 35.65 27.65 34.25 29.5 34.25 L29.55 34.25 Q31.4 34.25 32.65 35.65 34.0 37.15 34.0 39.2 L34.0 46.05 Q34.0 48.1 32.65 49.5 31.4 50.95 29.55 50.95 L29.5 50.95 Q27.65 50.95 26.35 49.5 25.05 48.1 25.05 46.05" fill="url(#gradient1)" fill-rule="evenodd" stroke="none"/>
    <path d="M25.8 -0.95 L26.95 -0.95 29.1 -0.4 Q26.75 2.2 18.3 2.2 L11.6 1.75 Q6.05 1.05 6.05 -0.35 L6.1 -0.95 6.35 -1.0 8.15 -1.0 Q8.35 0.2 12.4 0.9 L17.75 1.4 22.4 1.05 Q24.55 0.5 25.8 -0.95 M32.4 29.95 L32.35 30.5 29.4 27.55 25.65 25.2 7.2 25.2 3.5 27.85 1.35 30.35 1.3 29.95 2.25 28.65 2.55 17.55 3.15 16.95 4.4 15.75 Q3.95 16.2 3.65 16.95 L3.65 18.15 3.65 26.9 7.35 24.4 26.1 24.6 29.6 26.95 29.6 18.15 29.6 16.6 Q29.55 15.75 29.1 15.2 L30.1 16.15 30.75 16.7 30.85 28.2 32.4 29.95 M8.1 3.55 L8.4 3.3 8.2 4.45 8.1 5.1 9.05 9.05 8.9 9.55 8.4 7.85 Q7.85 5.85 7.85 5.1 7.85 4.75 8.0 4.4 L8.1 3.7 8.1 3.55" fill="#ffd893" fill-rule="evenodd" stroke="none"/>
    <path d="M29.1 -0.4 Q30.6 0.3 31.3 1.7 30.15 2.8 28.1 3.55 L26.85 3.95 26.35 4.1 17.75 5.0 8.2 4.45 8.4 3.3 8.55 2.85 8.55 2.75 Q8.55 2.3 7.75 2.1 L7.35 2.05 7.25 2.05 6.8 2.0 Q6.4 2.1 6.3 2.5 L6.2 2.95 6.05 3.95 5.85 3.9 4.05 3.1 Q2.7 2.25 2.5 1.1 3.5 -0.45 6.1 -0.95 L6.05 -0.35 Q6.05 1.05 11.6 1.75 L18.3 2.2 Q26.75 2.2 29.1 -0.4" fill="#ffc864" fill-rule="evenodd" stroke="none"/>
    <path d="M8.15 -1.0 L25.8 -0.95 Q24.55 0.5 22.4 1.05 L17.75 1.4 12.4 0.9 Q8.35 0.2 8.15 -1.0 M27.0 13.4 L28.1 13.65 Q29.7 14.3 30.1 16.15 L29.1 15.2 28.5 14.7 28.25 14.55 28.1 14.5 27.6 14.3 26.95 14.15 6.95 14.15 5.7 14.5 5.5 14.6 5.45 14.65 4.55 15.45 4.45 15.6 4.4 15.7 4.4 15.75 3.15 16.95 4.25 15.25 Q5.55 13.45 6.05 13.45 L6.1 13.45 7.9 13.65 Q17.65 13.25 23.8 13.25 L27.0 13.4" fill="#ffeed0" fill-rule="evenodd" stroke="none"/>
    <path d="M31.3 1.7 L31.65 2.85 32.4 12.15 32.4 21.2 32.35 20.85 32.3 20.5 31.6 16.9 30.4 12.15 30.35 12.15 30.35 12.05 30.45 9.95 Q30.45 7.65 29.55 5.65 28.9 4.2 28.1 3.55 30.15 2.8 31.3 1.7 M32.15 32.7 L32.1 32.95 31.3 41.3 Q30.85 43.45 27.75 43.95 28.65 42.95 29.05 40.8 L29.4 37.45 29.4 35.35 29.15 31.35 29.1 29.95 32.15 32.7 M5.1 44.0 Q2.85 43.3 2.7 41.15 L1.65 32.85 3.65 30.15 3.15 35.2 3.25 36.5 3.75 39.75 Q4.35 43.1 5.1 44.0 M1.3 20.3 L1.8 3.35 Q1.85 2.0 2.5 1.1 2.7 2.25 4.05 3.1 3.05 4.5 2.9 5.65 2.75 6.75 3.0 9.6 L3.1 12.15 3.15 12.25 1.9 17.8 1.3 20.3 M6.2 2.95 Q6.2 3.4 6.5 3.55 L6.55 3.55 6.3 5.05 Q6.3 6.2 6.6 8.05 L7.1 9.95 7.0 9.9 6.6 9.25 5.95 5.25 6.05 3.95 6.2 2.95 M7.05 3.65 L7.35 3.65 8.1 3.55 8.1 3.7 8.0 4.4 Q7.85 4.75 7.85 5.1 7.85 5.85 8.4 7.85 L8.9 9.55 8.8 9.7 8.05 10.1 7.85 10.1 Q7.45 9.5 7.15 8.0 6.8 6.4 6.8 5.55 L7.1 4.25 7.1 4.05 7.05 3.65" fill="#e09100" fill-rule="evenodd" stroke="none"/>
    <path d="M32.4 21.2 L32.4 29.95 30.85 28.2 30.75 16.7 30.1 16.15 Q29.7 14.3 28.1 13.65 L27.0 13.4 26.15 12.15 26.05 12.15 26.1 12.05 26.4 10.55 26.9 6.6 26.85 4.95 26.35 4.1 26.85 3.95 28.1 3.55 Q28.9 4.2 29.55 5.65 30.45 7.65 30.45 9.95 L30.35 12.05 30.35 12.15 30.4 12.15 31.6 16.9 32.3 20.5 32.35 20.85 32.4 21.2 M27.75 43.95 L26.95 44.05 24.05 44.1 Q24.85 43.4 25.25 42.25 L25.75 39.95 Q23.95 41.05 23.15 41.25 17.2 42.65 13.1 42.65 8.0 42.65 6.0 40.85 L5.6 40.4 5.8 41.8 Q6.3 43.65 7.9 44.2 L5.8 44.2 5.2 44.05 5.1 44.0 Q4.35 43.1 3.75 39.75 L3.25 36.5 3.15 35.2 3.65 30.15 6.05 28.15 5.75 31.5 Q5.45 33.5 5.5 37.75 6.15 39.5 7.85 40.35 9.9 41.35 14.6 41.35 21.55 41.35 26.05 37.55 26.45 34.05 26.45 31.5 26.45 29.35 26.1 27.8 L29.1 29.95 29.15 31.35 29.4 35.35 29.4 37.45 29.05 40.8 Q28.65 42.95 27.75 43.95 M1.3 29.95 L1.3 20.3 1.9 17.8 3.15 12.25 3.1 12.15 3.0 9.6 Q2.75 6.75 2.9 5.65 3.05 4.5 4.05 3.1 L5.85 3.9 5.75 4.55 5.45 8.05 Q5.45 9.75 5.8 10.65 L6.6 12.05 6.65 12.15 6.55 12.15 6.1 13.45 6.05 13.45 Q5.55 13.45 4.25 15.25 L3.15 16.95 2.55 17.55 2.25 28.65 1.3 29.95 M6.55 3.55 L7.05 3.65 7.1 4.05 7.1 4.25 6.8 5.55 Q6.8 6.4 7.15 8.0 7.45 9.5 7.85 10.1 L7.75 10.1 7.3 10.05 7.1 9.95 6.6 8.05 Q6.3 6.2 6.3 5.05 L6.55 3.55" fill="#ffb01e" fill-rule="evenodd" stroke="none"/>
    <path d="M26.35 4.1 L26.85 4.95 26.9 6.6 26.4 10.55 26.1 12.05 26.05 12.15 26.15 12.15 27.0 13.4 23.8 13.25 Q17.65 13.25 7.9 13.65 L6.1 13.45 6.55 12.15 6.65 12.15 6.6 12.05 5.8 10.65 Q5.45 9.75 5.45 8.05 L5.75 4.55 5.85 3.9 6.05 3.95 5.95 5.25 6.6 9.25 7.0 9.9 7.1 9.95 7.3 10.05 7.75 10.1 7.85 10.1 8.05 10.1 8.8 9.7 8.9 9.55 9.05 9.05 8.1 5.1 8.2 4.45 17.75 5.0 26.35 4.1 M6.05 28.15 L6.05 28.1 6.1 28.15 7.35 26.75 25.15 27.0 26.1 27.8 Q26.45 29.35 26.45 31.5 26.45 34.05 26.05 37.55 21.55 41.35 14.6 41.35 9.9 41.35 7.85 40.35 6.15 39.5 5.5 37.75 5.45 33.5 5.75 31.5 L6.05 28.15" fill="#ffc354" fill-rule="evenodd" stroke="none"/>
    <path d="M4.4 15.75 L4.4 15.7 4.45 15.6 4.55 15.45 5.45 14.65 5.5 14.6 5.7 14.5 6.95 14.15 26.95 14.15 27.6 14.3 28.1 14.5 28.25 14.55 28.5 14.7 29.1 15.2 Q29.55 15.75 29.6 16.6 L29.6 18.15 Q16.9 16.15 3.65 18.15 L3.65 16.95 Q3.95 16.2 4.4 15.75" fill="#5d3504" fill-rule="evenodd" stroke="none"/>
    <path d="M6.2 2.95 L6.3 2.5 Q6.4 2.1 6.8 2.0 L7.25 2.05 7.35 2.05 7.75 2.1 Q8.55 2.3 8.55 2.75 L8.55 2.85 8.4 3.3 8.1 3.55 7.35 3.65 7.05 3.65 6.55 3.55 6.5 3.55 Q6.2 3.4 6.2 2.95 M7.15 2.35 L7.0 2.35 7.0 2.4 Q6.2 2.9 6.7 3.15 L7.35 3.25 7.7 3.2 7.75 3.2 Q8.1 2.7 7.15 2.35" fill="#fbe9a6" fill-rule="evenodd" stroke="none"/>
    <path d="M7.15 2.35 L7.0 2.4 7.0 2.35 7.15 2.35" fill="#9bd084" fill-rule="evenodd" stroke="none"/>
    <path d="M7.0 2.4 L7.15 2.35 Q8.1 2.7 7.75 3.2 L7.7 3.2 7.35 3.25 6.7 3.15 Q6.2 2.9 7.0 2.4" fill="#b17300" fill-rule="evenodd" stroke="none"/>
    <path d="M32.25 31.6 L32.2 32.2 32.15 32.7 29.1 29.95 26.1 27.8 25.15 27.0 7.35 26.75 6.1 28.15 6.05 28.1 6.05 28.15 3.65 30.15 1.65 32.85 1.55 32.0 1.5 31.4 4.0 28.2 7.25 25.8 25.15 26.0 29.15 28.2 32.25 31.6" fill="#bb7900" fill-rule="evenodd" stroke="none"/>
    <path d="M32.35 30.5 L32.25 31.6 29.15 28.2 25.15 26.0 7.25 25.8 4.0 28.2 1.5 31.4 1.35 30.35 3.5 27.85 7.2 25.2 25.65 25.2 29.4 27.55 32.35 30.5" fill="#f7da66" fill-rule="evenodd" stroke="none"/>
    <path d="M24.05 44.1 L8.55 44.2 7.9 44.2 Q6.3 43.65 5.8 41.8 L5.6 40.4 6.0 40.85 Q8.0 42.65 13.1 42.65 17.2 42.65 23.15 41.25 23.95 41.05 25.75 39.95 L25.25 42.25 Q24.85 43.4 24.05 44.1" fill="#faa202" fill-rule="evenodd" stroke="none"/>
    <path d="M29.6 18.15 L29.6 26.95 26.1 24.6 7.35 24.4 3.65 26.9 3.65 18.15 Q16.9 16.15 29.6 18.15" fill="#72460f" fill-rule="evenodd" stroke="none"/>
  </g>
  <defs>
    <linearGradient gradientTransform="matrix(0.0054, 0.0, 0.0, 0.0102, 4.5, 43.4)" gradientUnits="userSpaceOnUse" id="gradient0" spreadMethod="pad" x1="-819.2" x2="819.2">
      <stop offset="0.0" stop-color="#000000"/>
      <stop offset="0.5019607843137255" stop-color="#595959"/>
      <stop offset="1.0" stop-color="#000000"/>
    </linearGradient>
    <linearGradient gradientTransform="matrix(0.0054, 0.0, 0.0, 0.0102, 29.55, 43.4)" gradientUnits="userSpaceOnUse" id="gradient1" spreadMethod="pad" x1="-819.2" x2="819.2">
      <stop offset="0.0" stop-color="#000000"/>
      <stop offset="0.5019607843137255" stop-color="#595959"/>
      <stop offset="1.0" stop-color="#000000"/>
    </linearGradient>
  </defs>
</svg>
