<?xml version="1.0" encoding="UTF-8" standalone="no"?>
<svg xmlns:xlink="http://www.w3.org/1999/xlink" height="44.45px" width="50.95px" xmlns="http://www.w3.org/2000/svg">
  <g transform="matrix(1.0, 0.0, 0.0, 1.0, -6.25, 0.45)">
    <path d="M26.35 4.85 L26.5 2.35 27.4 -0.45 28.15 -0.05 Q27.8 0.9 27.6 2.1 27.15 4.45 27.15 6.5 L27.2 7.6 26.2 7.25 26.35 4.85 M47.85 20.05 L47.65 22.1 47.55 23.35 47.25 26.1 Q41.45 27.35 35.15 31.15 31.7 33.25 29.35 34.0 26.35 35.0 22.55 34.95 L22.55 32.85 22.55 29.85 25.8 30.55 Q30.9 30.55 37.0 24.9 L43.85 18.0 44.0 19.15 44.0 19.35 44.1 19.4 Q46.0 20.6 47.85 20.05 M46.9 29.15 L46.75 30.8 22.5 44.0 22.5 41.9 46.9 29.15" fill="#e09100" fill-rule="evenodd" stroke="none"/>
    <path d="M28.8 3.5 L29.65 3.05 30.55 3.0 30.3 3.85 Q30.3 6.35 35.45 8.95 40.0 11.3 42.9 11.3 L45.1 11.2 47.0 12.3 45.65 12.3 43.7 13.4 Q41.05 12.9 36.85 11.1 28.75 7.55 28.75 3.85 L28.8 3.5" fill="#ffc864" fill-rule="evenodd" stroke="none"/>
    <path d="M30.55 3.0 L31.25 3.15 32.4 3.85 Q33.2 6.15 35.1 7.6 36.9 9.0 39.15 9.3 L42.05 9.4 45.1 11.2 42.9 11.3 Q40.0 11.3 35.45 8.95 30.3 6.35 30.3 3.85 L30.55 3.0" fill="#ffd893" fill-rule="evenodd" stroke="none"/>
    <path d="M28.15 -0.05 L29.2 0.45 28.4 2.55 28.25 3.8 28.3 7.1 27.2 7.6 27.15 6.5 Q27.15 4.45 27.6 2.1 27.8 0.9 28.15 -0.05 M47.0 12.3 L47.75 12.75 48.25 13.75 43.6 16.4 43.85 18.0 37.0 24.9 Q30.9 30.55 25.8 30.55 L22.55 29.85 22.55 32.85 18.95 33.35 Q14.9 33.35 10.55 30.5 7.8 28.7 6.35 26.45 L6.25 10.6 8.1 3.0 10.6 4.4 Q9.35 5.85 8.5 10.1 7.8 13.9 7.8 16.2 L7.95 18.85 8.05 21.6 Q8.0 22.85 8.85 23.9 L10.65 25.55 Q11.25 26.3 14.1 27.95 17.45 30.0 19.15 30.0 20.35 30.0 20.95 25.6 21.45 22.3 21.3 20.7 21.2 18.45 21.9 15.5 L22.95 11.4 24.75 12.4 26.85 11.35 24.7 18.9 24.75 19.7 25.25 26.35 25.35 27.9 35.1 22.55 35.8 22.2 37.9 16.35 38.0 16.45 43.7 13.4 45.65 12.3 47.0 12.3 M48.3 14.1 L48.35 14.6 44.75 16.9 44.2 16.7 48.3 14.1 M47.9 19.55 L47.85 20.05 Q46.0 20.6 44.1 19.4 L44.65 19.05 Q46.05 20.1 47.9 19.55 M47.05 27.95 L46.9 29.15 22.5 41.9 22.5 40.65 47.05 27.95" fill="#ffb01e" fill-rule="evenodd" stroke="none"/>
    <path d="M48.25 13.75 L48.3 14.1 44.2 16.7 44.0 19.15 43.85 18.0 43.6 16.4 48.25 13.75 M48.35 14.6 L48.35 15.0 47.9 19.55 Q46.05 20.1 44.65 19.05 L44.75 16.9 48.35 14.6 M8.1 3.0 L8.1 2.95 10.4 1.9 21.6 8.3 26.85 11.35 24.75 12.4 22.95 11.4 10.6 4.4 8.1 3.0 M37.9 16.35 L35.8 22.2 35.1 22.55 25.35 27.9 25.25 26.35 33.65 21.75 34.05 22.0 36.85 15.75 37.9 16.35" fill="#fbe9a6" fill-rule="evenodd" stroke="none"/>
    <path d="M47.25 26.1 L47.05 27.95 22.5 40.65 22.5 38.0 22.55 34.95 Q26.35 35.0 29.35 34.0 31.7 33.25 35.15 31.15 41.45 27.35 47.25 26.1 M44.0 19.15 L44.2 16.7 44.75 16.9 44.65 19.05 44.1 19.4 44.0 19.35 44.0 19.15" fill="#c47f00" fill-rule="evenodd" stroke="none"/>
    <path d="M47.65 22.1 L48.4 22.25 48.9 22.35 48.9 26.55 52.05 29.85 54.45 28.4 54.55 28.35 57.2 28.05 49.6 33.75 Q47.5 32.55 47.5 28.15 L47.65 24.9 47.65 24.7 47.75 23.4 47.55 23.35 47.65 22.1 M50.8 23.55 L49.7 24.4 49.25 24.0 50.8 23.55 M53.8 25.9 L52.6 26.8 52.2 26.45 53.8 25.9" fill="#b6b406" fill-rule="evenodd" stroke="none"/>
    <path d="M48.4 22.25 L49.8 22.3 51.0 23.4 50.8 23.55 49.25 24.0 49.7 24.4 50.65 25.2 52.7 24.9 53.9 25.85 53.8 25.9 52.2 26.45 52.6 26.8 53.4 27.45 55.5 26.95 56.6 27.55 57.2 28.05 54.55 28.35 54.45 28.4 52.05 29.85 48.9 26.55 48.9 22.35 48.4 22.25" fill="#ddf755" fill-rule="evenodd" stroke="none"/>
    <path d="M49.6 33.75 L48.3 34.7 Q47.05 34.55 46.85 33.5 L47.65 24.7 47.65 24.9 47.5 28.15 Q47.5 32.55 49.6 33.75" fill="#8c8c0b" fill-rule="evenodd" stroke="none"/>
    <path d="M32.4 3.85 L42.05 9.4 39.15 9.3 Q36.9 9.0 35.1 7.6 33.2 6.15 32.4 3.85" fill="#ffeed0" fill-rule="evenodd" stroke="none"/>
    <path d="M28.25 3.8 L28.8 3.5 28.75 3.85 Q28.75 7.55 36.85 11.1 41.05 12.9 43.7 13.4 L38.0 16.45 37.9 16.35 36.85 15.75 28.5 11.0 21.95 7.25 21.9 7.25 26.35 4.85 26.2 7.25 27.2 7.6 28.3 7.1 28.25 3.8 M22.95 11.4 L21.9 15.5 Q21.2 18.45 21.3 20.7 21.45 22.3 20.95 25.6 20.35 30.0 19.15 30.0 17.45 30.0 14.1 27.95 11.25 26.3 10.65 25.55 L8.85 23.9 Q8.0 22.85 8.05 21.6 L7.95 18.85 7.8 16.2 Q7.8 13.9 8.5 10.1 9.35 5.85 10.6 4.4 L22.95 11.4" fill="#ffc354" fill-rule="evenodd" stroke="none"/>
    <path d="M21.6 8.3 L21.95 7.25 28.5 11.0 27.4 18.2 27.35 18.3 24.75 19.7 24.7 18.9 26.85 11.35 21.6 8.3" fill="#f39d00" fill-rule="evenodd" stroke="none"/>
    <path d="M25.25 26.35 L24.75 19.7 27.35 18.3 27.4 18.2 33.65 21.75 25.25 26.35" fill="#72460f" fill-rule="evenodd" stroke="none"/>
    <path d="M27.4 18.2 L28.5 11.0 36.85 15.75 34.05 22.0 33.65 21.75 27.4 18.2" fill="#d48900" fill-rule="evenodd" stroke="none"/>
    <path d="M22.5 44.0 L6.4 34.25 6.4 30.7 6.35 26.45 Q7.8 28.7 10.55 30.5 14.9 33.35 18.95 33.35 L22.55 32.85 22.55 34.95 22.5 38.0 22.5 40.65 22.5 41.9 22.5 44.0" fill="#faa202" fill-rule="evenodd" stroke="none"/>
  </g>
</svg>
