<?xml version="1.0" encoding="UTF-8" standalone="no"?>
<svg xmlns:xlink="http://www.w3.org/1999/xlink" height="54.1px" width="55.4px" xmlns="http://www.w3.org/2000/svg">
  <g transform="matrix(1.0, 0.0, 0.0, 1.0, 1.0, 1.0)">
    <path d="M48.8 36.05 L49.0 35.8 47.95 36.45 48.8 36.05 M49.1 3.45 L50.95 11.05 50.85 26.9 51.45 28.0 51.5 28.15 Q52.35 29.9 52.85 31.6 L53.05 32.45 53.25 33.35 53.3 33.85 53.4 35.1 53.4 35.85 53.35 37.65 53.05 38.9 52.15 40.8 51.5 41.5 Q49.65 43.3 47.0 41.85 45.25 40.95 43.75 39.0 L35.5 43.95 35.55 44.7 35.55 45.45 35.5 47.25 35.2 48.5 Q34.9 49.65 34.3 50.4 L33.65 51.1 Q31.8 52.9 29.15 51.45 26.45 50.05 24.5 46.2 22.65 42.45 22.65 38.55 L22.65 37.9 20.45 36.7 20.45 37.2 20.4 38.45 20.2 39.35 19.55 40.65 19.1 41.2 15.85 41.35 Q13.9 40.25 12.55 37.55 11.2 34.8 11.2 32.05 L11.2 31.65 10.45 31.25 9.65 23.8 9.45 23.85 10.35 33.95 Q10.15 35.0 8.9 35.15 L0.0 28.5 0.6 28.0 1.7 27.4 3.8 27.9 4.6 27.25 3.4 26.35 3.3 26.3 4.5 25.35 6.55 25.65 7.5 24.85 6.2 23.85 7.4 22.75 8.8 22.7 9.55 22.55 8.85 15.45 8.85 15.05 8.9 14.55 8.95 14.2 9.45 13.2 10.2 12.75 25.95 3.6 26.65 3.45 27.55 3.5 28.4 3.95 28.95 4.25 28.8 3.0 28.0 0.9 29.8 0.0 30.7 2.8 30.85 5.3 35.3 7.7 35.25 7.7 35.6 8.75 46.8 2.35 49.1 3.4 49.1 3.45 M13.95 33.15 L13.95 33.55 14.0 33.95 15.1 34.3 15.1 34.2 15.15 33.8 13.95 33.15 M14.15 34.85 L14.5 35.75 Q15.05 36.85 15.75 37.3 L15.8 37.3 15.95 37.4 15.85 35.75 15.8 35.7 15.3 35.15 15.3 35.1 15.15 34.7 14.15 34.85 M16.55 35.0 L16.55 35.1 17.65 36.0 17.65 35.6 17.65 35.45 17.65 35.15 16.5 34.55 16.5 34.65 16.55 34.85 16.55 35.0 M26.5 40.55 L26.55 41.1 28.05 41.6 28.05 41.45 28.15 40.9 26.5 40.0 26.5 40.55 M16.35 35.7 L16.1 35.85 16.5 37.5 17.15 37.2 17.3 37.05 17.55 36.6 16.5 35.4 16.4 35.6 16.35 35.7 M28.15 42.15 L26.75 42.4 27.25 43.65 Q28.0 45.1 29.0 45.7 L29.1 45.75 29.25 45.85 29.15 43.55 29.05 43.55 Q28.65 43.3 28.4 42.75 L28.35 42.7 28.15 42.15 M29.85 43.5 L29.5 43.65 30.05 46.05 Q30.55 45.95 30.95 45.65 L31.2 45.3 31.5 44.7 30.05 43.1 29.95 43.35 29.85 43.5 M30.1 42.55 L30.1 42.65 31.7 43.8 31.7 43.3 31.7 43.05 31.7 42.8 30.05 41.9 30.05 42.0 30.1 42.25 30.1 42.45 30.1 42.55" fill="#000000" fill-rule="evenodd" stroke="none"/>
    <path d="M49.1 3.45 L49.1 3.4 46.8 2.35 35.6 8.75 35.25 7.7 35.3 7.7 30.85 5.3 30.7 2.8 29.8 0.0 28.0 0.9 28.8 3.0 28.95 4.25 28.4 3.95 27.55 3.5 26.65 3.45 25.95 3.6 10.2 12.75 9.45 13.2 8.95 14.2 8.9 14.55 8.85 15.05 8.85 15.45 9.55 22.55 8.8 22.7 7.4 22.75 6.2 23.85 7.5 24.85 6.55 25.65 4.5 25.35 3.3 26.3 3.4 26.35 4.6 27.25 3.8 27.9 1.7 27.4 0.6 28.0 0.0 28.5 8.9 35.15 Q10.15 35.0 10.35 33.95 L9.45 23.85 9.65 23.8 10.45 31.25 11.2 31.65 11.2 32.05 Q11.2 34.8 12.55 37.55 13.9 40.25 15.85 41.35 L19.1 41.2 19.55 40.65 20.2 39.35 20.4 38.45 20.45 37.2 20.45 36.7 22.65 37.9 22.65 38.55 Q22.65 42.45 24.5 46.2 26.45 50.05 29.15 51.45 31.8 52.9 33.65 51.1 L34.3 50.4 Q34.9 49.65 35.2 48.5 L35.5 47.25 35.55 45.45 35.55 44.7 35.5 43.95 43.75 39.0 Q45.25 40.95 47.0 41.85 49.65 43.3 51.5 41.5 L52.15 40.8 53.05 38.9 53.35 37.65 53.4 35.85 53.4 35.1 53.3 33.85 53.25 33.35 53.05 32.45 52.85 31.6 Q52.35 29.9 51.5 28.15 L51.45 28.0 50.85 26.9 50.95 11.05 49.1 3.45 M48.8 36.05 L47.95 36.45 49.0 35.8 48.8 36.05 M13.95 33.15 L13.95 33.55 14.0 33.95 15.1 34.3 15.1 34.2 15.15 33.8 13.95 33.15 M14.15 34.85 L14.5 35.75 Q15.05 36.85 15.75 37.3 L15.8 37.3 15.95 37.4 15.85 35.75 15.8 35.7 15.3 35.15 15.3 35.1 15.15 34.7 14.15 34.85 M16.55 35.0 L16.55 35.1 17.65 36.0 17.65 35.6 17.65 35.45 17.65 35.15 16.5 34.55 16.5 34.65 16.55 34.85 16.55 35.0 M16.35 35.7 L16.4 35.6 16.5 35.4 17.55 36.6 17.3 37.05 17.15 37.2 16.5 37.5 16.1 35.85 16.35 35.7 M26.5 40.55 L26.5 40.0 28.15 40.9 28.05 41.45 28.05 41.6 26.55 41.1 26.5 40.55 M28.15 42.15 L26.75 42.4 27.25 43.65 Q28.0 45.1 29.0 45.7 L29.1 45.75 29.25 45.85 29.15 43.55 29.05 43.55 Q28.65 43.3 28.4 42.75 L28.35 42.7 28.15 42.15 M30.1 42.55 L30.1 42.45 30.1 42.25 30.05 42.0 30.05 41.9 31.7 42.8 31.7 43.05 31.7 43.3 31.7 43.8 30.1 42.65 30.1 42.55 M29.85 43.5 L29.95 43.35 30.05 43.1 31.5 44.7 31.2 45.3 30.95 45.65 Q30.55 45.95 30.05 46.05 L29.5 43.65 29.85 43.5" fill="none" stroke="#000000" stroke-linecap="round" stroke-linejoin="round" stroke-width="2.0"/>
  </g>
</svg>
