<?xml version="1.0" encoding="UTF-8" standalone="no"?>
<svg xmlns:xlink="http://www.w3.org/1999/xlink" height="54.55px" width="55.4px" xmlns="http://www.w3.org/2000/svg">
  <g transform="matrix(1.0, 0.0, 0.0, 1.0, 1.0, 1.45)">
    <path d="M26.5 40.55 L26.55 41.1 28.05 41.6 28.05 41.45 Q28.05 40.9 28.3 40.65 L28.35 40.55 26.6 39.6 26.5 40.55 M16.4 35.6 L16.35 35.7 16.1 35.85 16.5 37.5 17.15 37.2 17.3 37.05 17.55 36.6 16.5 35.4 16.4 35.6 M16.55 35.0 L16.55 35.1 17.65 36.0 17.65 35.6 17.65 35.45 17.65 35.1 17.55 34.65 16.5 34.1 16.35 34.15 16.5 34.55 16.5 34.65 16.55 34.85 16.55 35.0 M15.15 34.7 L14.15 34.85 14.5 35.75 Q15.05 36.85 15.75 37.3 L15.8 37.3 15.95 37.4 15.85 35.75 15.8 35.7 15.3 35.15 15.3 35.1 15.15 34.7 M15.1 34.3 L15.1 34.2 Q15.1 33.8 15.25 33.65 L15.3 33.55 15.25 33.4 14.05 32.75 13.95 33.55 14.0 33.95 15.1 34.3 M47.8 36.05 L47.9 36.45 48.8 36.05 49.05 35.7 49.35 35.15 47.8 36.05 M46.8 1.9 L49.1 2.95 49.1 3.0 50.95 10.6 50.85 26.45 50.85 26.95 51.45 28.0 51.5 28.15 Q52.35 29.9 52.85 31.6 L53.05 32.45 53.25 33.35 53.3 33.85 53.4 35.1 53.4 35.85 53.35 37.65 53.05 38.9 52.15 40.8 51.5 41.5 Q49.65 43.3 47.0 41.85 45.1 40.85 43.55 38.65 L35.5 43.55 35.55 44.7 35.55 45.45 35.5 47.25 35.2 48.5 Q34.9 49.65 34.3 50.4 L33.65 51.1 Q31.8 52.9 29.15 51.45 26.45 50.05 24.5 46.2 22.65 42.45 22.65 38.55 L22.7 37.5 20.45 36.25 20.45 36.7 20.45 37.2 20.4 38.45 20.2 39.35 19.55 40.65 19.1 41.2 15.85 41.35 Q13.9 40.25 12.55 37.55 11.2 34.8 11.2 32.05 L11.25 31.25 10.45 30.8 9.65 23.35 9.45 23.4 10.35 33.5 Q10.15 34.55 8.9 34.7 L0.0 28.05 0.6 27.55 1.7 26.95 3.8 27.45 4.6 26.8 3.4 25.9 3.3 25.85 4.5 24.9 6.55 25.2 7.5 24.4 6.2 23.4 7.4 22.3 8.8 22.25 9.55 22.1 8.85 15.0 8.85 14.6 8.9 14.1 8.95 13.75 9.45 12.75 10.2 12.3 25.95 3.15 26.65 3.0 27.55 3.05 28.4 3.5 28.95 3.8 28.8 2.55 28.0 0.45 29.8 -0.45 30.7 2.35 30.85 4.85 35.3 7.25 35.25 7.25 35.6 8.3 46.8 1.9 M28.15 42.15 L26.75 42.4 27.25 43.65 Q28.0 45.1 29.0 45.7 L29.1 45.75 29.25 45.85 29.15 43.55 29.05 43.55 Q28.65 43.3 28.4 42.75 L28.35 42.7 28.15 42.15 M30.05 42.0 L30.1 42.25 30.1 42.45 30.1 42.55 30.1 42.65 31.7 43.8 31.7 43.3 31.7 43.05 31.65 42.55 31.6 42.35 29.85 41.4 30.05 41.85 30.05 42.0 M29.95 43.35 L29.85 43.5 29.5 43.65 30.05 46.05 Q30.55 45.95 30.95 45.65 L31.2 45.3 31.5 44.7 30.05 43.1 29.95 43.35" fill="#000000" fill-rule="evenodd" stroke="none"/>
    <path d="M46.8 1.9 L35.6 8.3 35.25 7.25 35.3 7.25 30.85 4.85 30.7 2.35 29.8 -0.45 28.0 0.45 28.8 2.55 28.95 3.8 28.4 3.5 27.55 3.05 26.65 3.0 25.95 3.15 10.2 12.3 9.45 12.75 8.95 13.75 8.9 14.1 8.85 14.6 8.85 15.0 9.55 22.1 8.8 22.25 7.4 22.3 6.2 23.4 7.5 24.4 6.55 25.2 4.5 24.9 3.3 25.85 3.4 25.9 4.6 26.8 3.8 27.45 1.7 26.95 0.6 27.55 0.0 28.05 8.9 34.7 Q10.15 34.55 10.35 33.5 L9.45 23.4 9.65 23.35 10.45 30.8 11.25 31.25 11.2 32.05 Q11.2 34.8 12.55 37.55 13.9 40.25 15.85 41.35 L19.1 41.2 19.55 40.65 20.2 39.35 20.4 38.45 20.45 37.2 20.45 36.7 20.45 36.25 22.7 37.5 22.65 38.55 Q22.65 42.45 24.5 46.2 26.45 50.05 29.15 51.45 31.8 52.9 33.65 51.1 L34.3 50.4 Q34.9 49.65 35.2 48.5 L35.5 47.25 35.55 45.45 35.55 44.7 35.5 43.55 43.55 38.65 Q45.1 40.85 47.0 41.85 49.65 43.3 51.5 41.5 L52.15 40.8 53.05 38.9 53.35 37.65 53.4 35.85 53.4 35.1 53.3 33.85 53.25 33.35 53.05 32.45 52.85 31.6 Q52.35 29.9 51.5 28.15 L51.45 28.0 50.85 26.95 50.85 26.45 50.95 10.6 49.1 3.0 49.1 2.95 46.8 1.9 M47.8 36.05 L49.35 35.15 49.05 35.7 48.8 36.05 47.9 36.45 47.8 36.05 M15.1 34.3 L14.0 33.95 13.95 33.55 14.05 32.75 15.25 33.4 15.3 33.55 15.25 33.65 Q15.1 33.8 15.1 34.2 L15.1 34.3 M15.15 34.7 L15.3 35.1 15.3 35.15 15.8 35.7 15.85 35.75 15.95 37.4 15.8 37.3 15.75 37.3 Q15.05 36.85 14.5 35.75 L14.15 34.85 15.15 34.7 M16.55 35.0 L16.55 34.85 16.5 34.65 16.5 34.55 16.35 34.15 16.5 34.1 17.55 34.65 17.65 35.1 17.65 35.45 17.65 35.6 17.65 36.0 16.55 35.1 16.55 35.0 M16.4 35.6 L16.5 35.4 17.55 36.6 17.3 37.05 17.15 37.2 16.5 37.5 16.1 35.85 16.35 35.7 16.4 35.6 M26.5 40.55 L26.6 39.6 28.35 40.55 28.3 40.65 Q28.05 40.9 28.05 41.45 L28.05 41.6 26.55 41.1 26.5 40.55 M28.15 42.15 L26.75 42.4 27.25 43.65 Q28.0 45.1 29.0 45.7 L29.1 45.75 29.25 45.85 29.15 43.55 29.05 43.55 Q28.65 43.3 28.4 42.75 L28.35 42.7 28.15 42.15 M30.05 42.0 L30.1 42.25 30.1 42.45 30.1 42.55 30.1 42.65 31.7 43.8 31.7 43.3 31.7 43.05 31.65 42.55 31.6 42.35 29.85 41.4 30.05 41.85 30.05 42.0 M29.95 43.35 L30.05 43.1 31.5 44.7 31.2 45.3 30.95 45.65 Q30.55 45.95 30.05 46.05 L29.5 43.65 29.85 43.5 29.95 43.35" fill="none" stroke="#000000" stroke-linecap="round" stroke-linejoin="round" stroke-width="2.0"/>
  </g>
</svg>
