<?xml version="1.0" encoding="UTF-8" standalone="no"?>
<svg xmlns:xlink="http://www.w3.org/1999/xlink" height="57.35px" width="53.7px" xmlns="http://www.w3.org/2000/svg">
  <g transform="matrix(1.0, 0.0, 0.0, 1.0, 1.0, 1.0)">
    <path d="M49.35 8.75 L49.25 13.25 49.15 20.45 49.0 25.85 49.75 26.35 49.85 26.35 Q51.7 28.15 51.7 32.05 51.7 35.95 49.85 39.7 47.9 43.55 45.2 44.95 42.55 46.4 40.7 44.6 L40.05 43.9 Q39.45 43.15 39.15 42.0 L38.85 40.75 38.8 39.35 34.25 42.4 34.35 43.7 Q34.35 46.45 33.0 49.2 31.65 51.9 29.7 53.0 L26.45 52.85 26.0 52.3 Q25.6 51.8 25.35 51.0 L25.15 50.1 25.1 48.85 25.1 48.35 24.2 48.4 24.2 48.3 23.85 48.0 Q23.85 49.35 22.85 50.05 L20.25 51.4 13.6 54.9 10.8 55.35 9.85 54.55 9.7 54.4 11.9 52.5 10.95 51.75 8.75 53.7 8.2 53.25 7.75 52.9 9.9 51.0 8.8 50.2 6.7 52.05 5.85 51.4 5.65 51.2 7.7 49.35 6.6 48.5 4.55 50.3 3.7 49.7 3.5 49.5 5.5 47.7 4.5 46.95 3.0 48.3 2.5 48.7 1.7 48.05 1.5 47.9 3.0 46.55 3.45 46.15 2.5 45.45 0.6 47.15 0.0 46.7 0.8 44.85 1.1 44.4 4.05 42.9 4.3 42.85 4.2 42.75 9.8 34.65 9.85 34.55 9.8 34.5 9.1 31.25 9.45 31.05 7.4 23.65 Q7.55 21.7 8.05 20.65 L8.65 19.8 9.5 19.2 10.3 18.9 20.05 15.25 21.0 15.8 21.15 15.75 27.75 12.15 33.9 0.95 34.0 0.9 36.05 0.0 49.4 5.1 49.35 8.75 M45.3 37.05 L45.2 37.05 45.1 39.35 45.25 39.25 45.35 39.2 Q46.35 38.6 47.1 37.15 L47.6 35.9 46.2 35.65 46.0 36.2 45.95 36.25 45.3 37.05 M44.4 36.85 L44.3 36.6 42.85 38.2 43.15 38.8 43.4 39.15 Q43.8 39.45 44.3 39.55 L44.85 37.15 44.5 37.0 44.4 36.85 M44.25 36.05 L44.25 35.95 44.25 35.75 42.65 36.8 42.65 37.3 44.25 36.15 44.25 36.05 M47.8 34.6 L47.85 34.05 47.8 33.4 46.25 34.45 46.3 34.95 46.3 35.1 47.8 34.6 M22.3 31.25 L22.25 31.25 22.2 31.3 22.3 31.25 M29.2 45.8 L29.15 45.8 27.95 46.55 27.9 46.75 27.9 47.1 27.9 47.25 27.9 47.65 29.0 46.75 29.0 46.65 29.0 46.5 29.05 46.3 29.05 46.2 29.2 45.8 M30.3 45.3 L30.45 45.85 30.45 45.95 31.55 45.6 31.6 45.2 31.45 44.25 30.3 45.0 30.25 45.2 30.3 45.3 M30.25 46.8 L29.75 47.35 29.7 47.4 29.6 49.05 29.75 48.95 29.8 48.95 Q30.5 48.5 31.05 47.4 L31.4 46.5 30.4 46.35 30.25 46.75 30.25 46.8 M29.2 47.35 L29.15 47.25 29.05 47.05 28.0 48.25 28.25 48.7 28.4 48.85 Q28.7 49.15 29.05 49.15 L29.45 47.5 29.2 47.35" fill="#000000" fill-rule="evenodd" stroke="none"/>
    <path d="M49.35 8.75 L49.25 13.25 49.15 20.45 49.0 25.85 49.75 26.35 49.85 26.35 Q51.7 28.15 51.7 32.05 51.7 35.95 49.85 39.7 47.9 43.55 45.2 44.95 42.55 46.4 40.7 44.6 L40.05 43.9 Q39.45 43.15 39.15 42.0 L38.85 40.75 38.8 39.35 34.25 42.4 34.35 43.7 Q34.35 46.45 33.0 49.2 31.65 51.9 29.7 53.0 L26.45 52.85 26.0 52.3 Q25.6 51.8 25.35 51.0 L25.15 50.1 25.1 48.85 25.1 48.35 24.2 48.4 24.2 48.3 23.85 48.0 Q23.85 49.35 22.85 50.05 L20.25 51.4 13.6 54.9 10.8 55.35 9.85 54.55 9.7 54.4 11.9 52.5 10.95 51.75 8.75 53.7 8.2 53.25 7.75 52.9 9.9 51.0 8.8 50.2 6.7 52.05 5.85 51.4 5.65 51.2 7.7 49.35 6.6 48.5 4.55 50.3 3.7 49.7 3.5 49.5 5.5 47.7 4.5 46.95 3.0 48.3 2.5 48.7 1.7 48.05 1.5 47.9 3.0 46.55 3.45 46.15 2.5 45.45 0.6 47.15 0.0 46.7 0.8 44.85 1.1 44.4 4.05 42.9 4.3 42.85 4.2 42.75 9.8 34.65 9.85 34.55 9.8 34.5 9.1 31.25 9.45 31.05 7.4 23.65 Q7.55 21.7 8.05 20.65 L8.65 19.8 9.5 19.2 10.3 18.9 20.05 15.25 21.0 15.8 21.15 15.75 27.75 12.15 33.9 0.95 34.0 0.9 36.05 0.0 49.4 5.1 49.35 8.75 M45.3 37.05 L45.95 36.25 46.0 36.2 46.2 35.65 47.6 35.9 47.1 37.15 Q46.35 38.6 45.35 39.2 L45.25 39.25 45.1 39.35 45.2 37.05 45.3 37.05 M44.4 36.85 L44.3 36.6 42.85 38.2 43.15 38.8 43.4 39.15 Q43.8 39.45 44.3 39.55 L44.85 37.15 44.5 37.0 44.4 36.85 M44.25 36.05 L44.25 35.95 44.25 35.75 42.65 36.8 42.65 37.3 44.25 36.15 44.25 36.05 M47.8 34.6 L46.3 35.1 46.3 34.95 46.25 34.45 47.8 33.4 47.85 34.05 47.8 34.6 M22.3 31.25 L22.25 31.25 22.2 31.3 22.3 31.25 M29.2 45.8 L29.15 45.8 27.95 46.55 27.9 46.75 27.9 47.1 27.9 47.25 27.9 47.65 29.0 46.75 29.0 46.65 29.0 46.5 29.05 46.3 29.05 46.2 29.2 45.8 M30.3 45.3 L30.45 45.85 30.45 45.95 31.55 45.6 31.6 45.2 31.45 44.25 30.3 45.0 30.25 45.2 30.3 45.3 M30.25 46.8 L30.25 46.75 30.4 46.35 31.4 46.5 31.05 47.4 Q30.5 48.5 29.8 48.95 L29.75 48.95 29.6 49.05 29.7 47.4 29.75 47.35 30.25 46.8 M29.2 47.35 L29.15 47.25 29.05 47.05 28.0 48.25 28.25 48.7 28.4 48.85 Q28.7 49.15 29.05 49.15 L29.45 47.5 29.2 47.35" fill="none" stroke="#000000" stroke-linecap="round" stroke-linejoin="round" stroke-width="2.0"/>
    <path d="M34.0 0.9 L47.05 5.95 47.2 5.95 46.7 9.65 45.8 15.8 45.25 20.0 38.6 26.6 37.05 25.65 43.8 19.45 44.05 17.95 45.85 6.9 44.95 6.5 43.95 6.15 43.6 6.0 42.35 5.45 38.8 4.1 37.7 3.65 37.15 3.45 35.85 2.95 34.55 2.45 28.8 13.3 22.7 16.85 21.25 15.95 21.0 15.8 21.15 15.75 27.75 12.15 33.9 0.95 34.0 0.9 M27.05 16.5 L26.95 16.45 27.0 16.55 27.05 16.5 27.2 16.6 27.6 16.55 27.75 16.5 28.15 16.2 28.1 16.05 27.9 16.05 Q27.3 16.05 27.05 16.5 M26.8 16.8 L26.7 16.8 26.6 16.55 26.6 16.45 Q26.6 16.1 27.15 15.8 27.6 15.55 28.1 15.55 L28.55 15.75 28.7 16.05 28.65 16.3 28.5 16.65 Q28.2 17.0 27.75 17.0 L27.7 17.0 27.2 16.95 27.15 16.95 26.8 16.8 M21.85 31.95 L26.5 31.7 26.65 35.2 26.15 32.3 26.15 32.25 21.6 32.5 21.85 31.95 M21.4 33.2 L25.75 32.85 25.85 32.85 26.1 34.65 26.1 34.75 Q25.75 35.2 24.5 35.9 L23.55 36.2 23.25 36.3 22.25 36.5 21.75 36.4 21.65 36.4 21.4 35.25 21.4 35.2 21.25 34.35 21.25 34.25 21.4 33.2" fill="#fbe9a6" fill-rule="evenodd" stroke="none"/>
    <path d="M47.2 5.95 L47.05 5.95 34.0 0.9 36.05 0.0 49.4 5.1 47.2 5.95 M21.25 15.95 L22.7 16.85 27.1 19.65 27.2 19.75 27.3 21.7 Q27.25 22.85 28.2 23.0 L28.6 23.05 29.65 22.9 30.15 22.25 30.05 21.45 32.0 22.65 27.9 25.15 Q24.65 27.0 21.95 27.0 20.75 27.0 16.8 24.15 12.6 21.2 12.6 19.9 12.6 19.5 16.95 17.7 L21.25 15.95" fill="#ffc354" fill-rule="evenodd" stroke="none"/>
    <path d="M46.7 9.65 L47.2 5.95 49.4 5.1 49.35 8.75 Q47.75 9.55 46.7 9.65" fill="#ffac15" fill-rule="evenodd" stroke="none"/>
    <path d="M37.7 3.65 L38.8 4.1 38.6 4.3 Q38.25 4.85 38.25 5.1 38.25 5.75 39.4 6.25 L40.9 6.65 41.95 6.2 42.35 5.45 43.6 6.0 43.75 6.65 Q43.75 8.05 42.15 8.05 40.4 8.05 38.9 7.45 L37.8 6.7 Q36.9 5.95 36.9 5.4 L37.15 4.5 37.7 3.65 M40.6 11.05 Q40.45 10.65 39.65 10.3 L38.4 9.75 37.45 9.4 36.75 9.55 36.45 9.95 Q35.7 11.15 35.7 12.2 35.7 12.85 37.15 13.85 38.55 14.75 39.35 14.75 40.2 14.75 40.45 13.9 L40.65 12.3 40.6 11.05 M41.85 11.2 L41.4 13.85 41.15 15.15 Q40.9 15.85 40.4 15.85 L38.7 15.4 37.1 14.7 35.55 14.05 Q35.1 13.75 35.1 12.75 35.1 11.85 35.8 10.15 36.55 8.4 37.1 8.4 L37.3 8.4 37.45 8.45 38.15 8.75 39.7 9.35 41.25 9.9 Q41.85 10.25 41.85 11.2 M40.7 18.5 L39.3 19.75 37.5 19.95 Q36.2 19.85 34.1 18.8 32.4 17.95 31.8 16.9 31.6 16.5 32.6 15.7 33.7 14.8 34.25 14.8 34.75 14.8 37.45 16.1 L40.8 17.7 40.7 18.5" fill="#c1249c" fill-rule="evenodd" stroke="none"/>
    <path d="M37.15 3.45 L37.7 3.65 37.15 4.5 36.9 5.4 Q36.9 5.95 37.8 6.7 L38.9 7.45 Q40.4 8.05 42.15 8.05 43.75 8.05 43.75 6.65 L43.6 6.0 43.95 6.15 Q44.35 8.3 43.05 9.95 L42.1 16.8 42.1 17.25 42.1 17.5 42.1 17.6 42.05 18.05 Q41.85 18.8 40.65 19.85 39.8 20.65 38.1 20.8 35.6 20.4 34.3 19.75 L32.1 18.55 30.85 17.35 30.6 16.6 30.6 16.55 Q30.65 16.25 32.0 15.25 33.25 14.2 34.05 14.3 L36.0 7.15 Q35.75 5.65 36.4 4.5 L37.15 3.45 M41.85 11.2 Q41.85 10.25 41.25 9.9 L39.7 9.35 38.15 8.75 37.45 8.45 37.3 8.4 37.1 8.4 Q36.55 8.4 35.8 10.15 35.1 11.85 35.1 12.75 35.1 13.75 35.55 14.05 L37.1 14.7 38.7 15.4 40.4 15.85 Q40.9 15.85 41.15 15.15 L41.4 13.85 41.85 11.2 M40.7 18.5 L40.8 17.7 37.45 16.1 Q34.75 14.8 34.25 14.8 33.7 14.8 32.6 15.7 31.6 16.5 31.8 16.9 32.4 17.95 34.1 18.8 36.2 19.85 37.5 19.95 L39.3 19.75 40.7 18.5" fill="#91016e" fill-rule="evenodd" stroke="none"/>
    <path d="M35.85 2.95 L37.15 3.45 36.4 4.5 Q35.75 5.65 36.0 7.15 L34.05 14.3 35.85 2.95 M44.95 6.5 L45.85 6.9 44.05 17.95 42.55 17.3 43.95 9.9 44.25 9.55 44.45 9.15 44.9 8.25 45.0 7.2 44.95 6.5" fill="#d48900" fill-rule="evenodd" stroke="none"/>
    <path d="M43.95 6.15 L44.95 6.5 45.0 7.2 44.9 8.25 44.45 9.15 44.25 9.55 43.95 9.9 42.55 17.3 42.65 17.95 Q42.65 19.1 41.4 20.6 40.1 22.1 39.25 22.45 L37.75 22.6 37.5 22.6 Q32.5 21.5 30.55 19.25 L30.5 19.25 30.35 17.65 30.35 17.6 30.6 16.55 30.6 16.6 30.85 17.35 32.1 18.55 34.3 19.75 Q35.6 20.4 38.1 20.8 39.8 20.65 40.65 19.85 41.85 18.8 42.05 18.05 L42.1 17.6 42.1 17.5 42.1 17.25 42.1 16.8 43.05 9.95 Q44.35 8.3 43.95 6.15" fill="#7b005d" fill-rule="evenodd" stroke="none"/>
    <path d="M38.8 4.1 L42.35 5.45 41.95 6.2 40.9 6.65 39.4 6.25 Q38.25 5.75 38.25 5.1 38.25 4.85 38.6 4.3 L38.8 4.1 M40.6 11.05 L40.65 12.3 40.45 13.9 Q40.2 14.75 39.35 14.75 38.55 14.75 37.15 13.85 35.7 12.85 35.7 12.2 35.7 11.15 36.45 9.95 L36.75 9.55 37.45 9.4 38.4 9.75 39.65 10.3 Q40.45 10.65 40.6 11.05" fill="#e244bd" fill-rule="evenodd" stroke="none"/>
    <path d="M45.8 15.8 L46.7 9.65 Q47.75 9.55 49.35 8.75 L49.25 13.25 Q47.55 15.15 45.8 15.8" fill="#faa202" fill-rule="evenodd" stroke="none"/>
    <path d="M37.05 25.65 L38.6 26.6 45.25 20.0 45.8 15.8 Q47.55 15.15 49.25 13.25 L49.15 20.45 Q48.3 21.95 46.05 24.15 43.35 26.8 40.85 28.25 35.1 31.55 30.15 31.55 L27.25 31.25 24.7 31.0 22.3 31.25 22.25 31.25 Q22.9 30.35 24.0 29.85 L24.35 29.7 35.0 24.55 36.45 25.25 37.05 25.65 M24.2 36.9 L24.3 36.95 25.5 37.5 27.6 37.9 Q32.5 37.9 40.9 33.35 47.05 30.05 48.95 27.85 L48.9 30.0 23.7 45.9 21.8 37.05 22.6 37.1 24.2 36.9 M28.65 16.3 L29.15 17.55 29.15 17.75 29.25 18.3 29.3 18.25 29.7 19.8 30.05 21.45 30.15 22.25 29.65 22.9 28.6 23.05 28.45 20.45 28.25 18.9 28.15 18.55 28.15 18.45 27.75 17.2 27.7 17.0 27.75 17.0 Q28.2 17.0 28.5 16.65 L28.65 16.3" fill="#e09100" fill-rule="evenodd" stroke="none"/>
    <path d="M44.05 17.95 L43.8 19.45 37.05 25.65 36.45 25.25 35.0 24.55 32.0 22.65 30.05 21.45 29.7 19.8 29.3 18.25 30.35 17.65 30.5 19.25 30.55 19.25 Q32.5 21.5 37.5 22.6 L37.75 22.6 39.25 22.45 Q40.1 22.1 41.4 20.6 42.65 19.1 42.65 17.95 L42.55 17.3 44.05 17.95 M27.2 19.7 L27.2 19.75 27.1 19.65 27.2 19.7" fill="#72460f" fill-rule="evenodd" stroke="none"/>
    <path d="M22.3 31.25 L24.7 31.0 27.25 31.25 30.15 31.55 Q35.1 31.55 40.85 28.25 43.35 26.8 46.05 24.15 48.3 21.95 49.15 20.45 L48.95 27.85 Q47.05 30.05 40.9 33.35 32.5 37.9 27.6 37.9 L25.5 37.5 24.3 36.95 24.2 36.9 Q25.65 36.45 26.6 35.15 L26.65 35.2 26.5 31.7 21.85 31.95 21.85 31.85 22.2 31.3 22.3 31.25" fill="#e99802" fill-rule="evenodd" stroke="none"/>
    <path d="M48.9 30.0 L48.9 30.9 23.9 47.1 23.7 45.9 48.9 30.0" fill="#c98200" fill-rule="evenodd" stroke="none"/>
    <path d="M48.9 30.9 L48.85 32.7 25.3 48.3 24.2 48.4 24.2 48.3 23.9 47.1 48.9 30.9" fill="#a86d00" fill-rule="evenodd" stroke="none"/>
    <path d="M22.7 16.85 L28.8 13.3 34.55 2.45 35.85 2.95 34.05 14.3 Q33.25 14.2 32.0 15.25 30.65 16.25 30.6 16.55 L30.35 17.6 30.35 17.65 29.3 18.25 29.25 18.3 29.15 17.75 29.15 17.55 28.65 16.3 28.7 16.05 28.55 15.75 28.1 15.55 Q27.6 15.55 27.15 15.8 26.6 16.1 26.6 16.45 L26.6 16.55 26.7 16.8 26.8 16.8 26.7 17.1 26.95 17.8 27.1 18.2 27.25 19.7 27.2 19.7 27.1 19.65 22.7 16.85 M27.05 16.5 L27.0 16.55 26.95 16.45 27.05 16.5 M27.75 17.2 L27.2 16.95 27.7 17.0 27.75 17.2 M27.5 17.95 L27.45 18.0 27.4 17.9 27.5 17.95" fill="#f39d00" fill-rule="evenodd" stroke="none"/>
    <path d="M27.05 16.5 Q27.3 16.05 27.9 16.05 L28.1 16.05 28.15 16.2 27.75 16.5 27.6 16.55 27.2 16.6 27.05 16.5" fill="#b17300" fill-rule="evenodd" stroke="none"/>
    <path d="M21.0 15.8 L21.25 15.95 16.95 17.7 Q12.6 19.5 12.6 19.9 12.6 21.2 16.8 24.15 20.75 27.0 21.95 27.0 24.65 27.0 27.9 25.15 L32.0 22.65 35.0 24.55 24.35 29.7 23.7 29.7 Q20.05 29.7 15.25 26.6 10.05 23.3 10.05 20.15 L10.3 18.9 20.05 15.25 21.0 15.8 M26.8 16.8 L27.15 16.95 27.2 16.95 27.75 17.2 28.15 18.45 28.15 18.55 28.25 18.9 28.45 20.45 28.6 23.05 28.2 23.0 Q27.25 22.85 27.3 21.7 L27.2 19.75 27.2 19.7 27.25 19.7 27.1 18.2 26.95 17.8 26.7 17.1 26.8 16.8 M27.5 17.95 L27.4 17.9 27.45 18.0 27.5 17.95 M26.6 35.15 Q25.65 36.45 24.2 36.9 L22.6 37.1 21.8 37.05 21.65 36.4 21.75 36.4 22.25 36.5 23.25 36.3 23.55 36.2 24.5 35.9 Q25.75 35.2 26.1 34.75 L26.1 34.65 26.6 35.15 M21.4 33.2 L21.4 33.15 21.45 32.95 21.6 32.5 26.15 32.25 26.15 32.3 25.75 32.85 21.4 33.2" fill="#ffb01e" fill-rule="evenodd" stroke="none"/>
    <path d="M7.6 24.45 L7.4 23.65 Q7.55 21.7 8.05 20.65 10.45 28.3 22.25 31.25 L22.2 31.3 21.85 31.85 21.85 31.95 21.6 32.5 21.45 32.95 21.4 33.15 21.4 33.2 21.25 34.25 21.25 34.35 21.4 35.2 21.4 35.25 Q13.1 33.1 7.6 24.45" fill="#ffd893" fill-rule="evenodd" stroke="none"/>
    <path d="M8.05 20.65 L8.65 19.8 9.5 19.2 10.3 18.9 10.05 20.15 Q10.05 23.3 15.25 26.6 20.05 29.7 23.7 29.7 L24.35 29.7 24.0 29.85 Q22.9 30.35 22.25 31.25 10.45 28.3 8.05 20.65" fill="#ffeed0" fill-rule="evenodd" stroke="none"/>
    <path d="M24.2 48.3 L11.05 36.95 7.6 24.45 Q13.1 33.1 21.4 35.25 L21.65 36.4 21.8 37.05 23.7 45.9 23.9 47.1 24.2 48.3" fill="#bf7c00" fill-rule="evenodd" stroke="none"/>
    <path d="M26.65 35.2 L26.6 35.15 26.1 34.65 25.85 32.85 25.75 32.85 26.15 32.3 26.65 35.2" fill="#c47f00" fill-rule="evenodd" stroke="none"/>
    <path d="M20.65 42.45 L10.25 34.85 10.2 34.85 10.25 34.75 9.5 31.5 19.9 39.1 20.65 42.45" fill="#b6b406" fill-rule="evenodd" stroke="none"/>
    <path d="M20.65 42.45 L19.9 39.1 9.5 31.5 10.25 34.75 10.2 34.85 9.9 35.25 5.0 42.6 4.65 43.1 16.05 51.35 18.25 47.15 19.25 45.25 20.65 42.45 M10.8 55.35 L9.85 54.55 9.7 54.4 11.9 52.5 10.95 51.75 8.75 53.7 8.2 53.25 7.75 52.9 9.9 51.0 8.8 50.2 6.7 52.05 5.85 51.4 5.65 51.2 7.7 49.35 6.6 48.5 4.55 50.3 3.7 49.7 3.5 49.5 5.5 47.7 4.5 46.95 3.0 48.3 2.5 48.7 1.7 48.05 1.5 47.9 3.0 46.55 3.45 46.15 2.5 45.45 0.6 47.15 0.0 46.7 0.8 44.85 1.1 44.4 4.05 42.9 4.3 42.85 4.2 42.75 9.8 34.65 9.85 34.55 9.8 34.5 9.1 31.25 10.2 30.5 21.8 38.95 21.75 38.95 20.65 39.65 21.3 42.85 21.3 42.9 16.45 51.65 13.15 53.3 13.05 53.4 10.8 55.35" fill="#ddf755" fill-rule="evenodd" stroke="none"/>
    <path d="M10.2 34.85 L10.25 34.85 20.65 42.45 19.25 45.25 10.65 39.15 10.65 39.1 9.9 35.25 10.2 34.85 M18.25 47.15 L16.05 51.35 4.65 43.1 5.0 42.6 9.65 40.7 18.25 47.15" fill="#9f9d04" fill-rule="evenodd" stroke="none"/>
    <path d="M9.9 35.25 L10.65 39.1 10.65 39.15 Q10.6 40.25 9.65 40.7 L5.0 42.6 9.9 35.25" fill="#8c8c0b" fill-rule="evenodd" stroke="none"/>
    <path d="M10.65 39.15 L19.25 45.25 18.25 47.15 9.65 40.7 Q10.6 40.25 10.65 39.15" fill="#b4b109" fill-rule="evenodd" stroke="none"/>
    <path d="M21.75 38.95 L23.65 46.6 Q24.3 49.05 22.85 50.05 L20.25 51.4 13.6 54.9 10.8 55.35 13.05 53.4 13.15 53.3 16.45 51.65 21.3 42.9 21.3 42.85 20.65 39.65 21.75 38.95" fill="#727202" fill-rule="evenodd" stroke="none"/>
  </g>
</svg>
