<?xml version="1.0" encoding="UTF-8" standalone="no"?>
<svg xmlns:xlink="http://www.w3.org/1999/xlink" height="57.35px" width="53.7px" xmlns="http://www.w3.org/2000/svg">
  <g transform="matrix(1.0, 0.0, 0.0, 1.0, 1.0, 1.6)">
    <path d="M49.4 4.5 L49.35 8.15 49.25 12.65 49.15 19.85 49.0 25.85 49.75 26.35 49.85 26.35 Q51.7 28.15 51.7 32.05 51.7 35.95 49.85 39.7 47.9 43.55 45.2 44.95 42.55 46.4 40.7 44.6 L40.05 43.9 Q39.45 43.15 39.15 42.0 L38.85 40.75 38.8 38.95 38.8 38.8 34.15 41.85 34.35 43.7 Q34.35 46.45 33.0 49.2 31.65 51.9 29.7 53.0 L26.45 52.85 26.0 52.3 Q25.6 51.8 25.35 51.0 L25.15 50.1 25.1 48.85 25.1 48.35 25.15 47.75 24.2 47.8 24.2 47.7 23.85 47.4 Q23.85 48.75 22.85 49.45 L20.25 50.8 13.6 54.3 10.8 54.75 9.85 53.95 9.7 53.8 11.9 51.9 10.95 51.15 8.75 53.1 8.2 52.65 7.75 52.3 9.9 50.4 8.8 49.6 6.7 51.45 5.85 50.8 5.65 50.6 7.7 48.75 6.6 47.9 4.55 49.7 3.7 49.1 3.5 48.9 5.5 47.1 4.5 46.35 3.0 47.7 2.5 48.1 1.7 47.45 1.5 47.3 3.0 45.95 3.45 45.55 2.5 44.85 0.6 46.55 0.0 46.1 0.8 44.25 1.1 43.8 4.05 42.3 4.3 42.25 4.2 42.15 9.8 34.05 9.85 33.95 9.8 33.9 9.1 30.65 9.4 30.45 7.4 23.05 Q7.55 21.1 8.05 20.05 L8.65 19.2 9.5 18.6 10.3 18.3 20.05 14.65 21.0 15.2 21.15 15.15 27.75 11.55 33.9 0.35 34.0 0.3 36.05 -0.6 49.4 4.5 M42.65 36.8 L42.65 37.3 44.25 36.15 44.25 36.05 44.25 35.95 44.25 35.75 44.3 35.5 44.3 35.35 44.45 35.05 42.7 36.2 42.65 36.55 42.65 36.8 M44.3 36.6 L42.85 38.2 43.15 38.8 43.4 39.15 Q43.8 39.45 44.3 39.55 L44.85 37.15 44.5 37.0 44.4 36.85 44.3 36.6 M45.3 37.05 L45.2 37.05 45.1 39.35 45.25 39.25 45.35 39.2 Q46.35 38.6 47.1 37.15 L47.6 35.9 46.2 35.65 46.0 36.2 45.95 36.25 45.3 37.05 M46.0 34.05 L46.05 34.15 46.3 34.95 46.3 35.1 47.8 34.6 47.85 34.05 47.7 32.9 46.0 34.05 M22.3 30.65 L22.25 30.65 22.2 30.7 22.3 30.65 M28.15 45.85 L28.05 46.1 28.0 46.3 27.9 46.75 27.9 47.1 27.9 47.25 27.9 47.65 29.0 46.75 29.0 46.65 29.0 46.5 29.05 46.3 29.05 46.2 29.2 45.8 28.65 45.5 28.15 45.85 M29.15 45.15 L29.35 45.55 29.75 45.2 29.95 45.15 30.05 44.55 29.15 45.15 M29.75 47.35 L29.7 47.4 29.6 49.05 29.75 48.95 29.8 48.95 Q30.5 48.5 31.05 47.4 L31.4 46.5 30.4 46.35 30.25 46.75 30.25 46.8 29.75 47.35 M30.25 45.2 L30.3 45.3 30.45 45.85 30.45 45.95 31.55 45.6 31.6 45.2 Q31.6 44.3 31.25 43.85 L31.2 43.8 30.55 44.25 30.25 45.2 M29.15 47.25 L29.05 47.05 28.0 48.25 28.25 48.7 28.4 48.85 Q28.7 49.15 29.05 49.15 L29.45 47.5 29.2 47.35 29.15 47.25" fill="#000000" fill-rule="evenodd" stroke="none"/>
    <path d="M49.4 4.5 L36.05 -0.6 34.0 0.3 33.9 0.35 27.75 11.55 21.15 15.15 21.0 15.2 20.05 14.65 10.3 18.3 9.5 18.6 8.65 19.2 8.05 20.05 Q7.55 21.1 7.4 23.05 L9.4 30.45 9.1 30.65 9.8 33.9 9.85 33.95 9.8 34.05 4.2 42.15 4.3 42.25 4.05 42.3 1.1 43.8 0.8 44.25 0.0 46.1 0.6 46.55 2.5 44.85 3.45 45.55 3.0 45.95 1.5 47.3 1.7 47.45 2.5 48.1 3.0 47.7 4.5 46.35 5.5 47.1 3.5 48.9 3.7 49.1 4.55 49.7 6.6 47.9 7.7 48.75 5.65 50.6 5.85 50.8 6.7 51.45 8.8 49.6 9.9 50.4 7.75 52.3 8.2 52.65 8.75 53.1 10.95 51.15 11.9 51.9 9.7 53.8 9.85 53.95 10.8 54.75 13.6 54.3 20.25 50.8 22.85 49.45 Q23.85 48.75 23.85 47.4 L24.2 47.7 24.2 47.8 25.15 47.75 25.1 48.35 25.1 48.85 25.15 50.1 25.35 51.0 Q25.6 51.8 26.0 52.3 L26.45 52.85 29.7 53.0 Q31.65 51.9 33.0 49.2 34.35 46.45 34.35 43.7 L34.15 41.85 38.8 38.8 38.8 38.95 38.85 40.75 39.15 42.0 Q39.45 43.15 40.05 43.9 L40.7 44.6 Q42.55 46.4 45.2 44.95 47.9 43.55 49.85 39.7 51.7 35.95 51.7 32.05 51.7 28.15 49.85 26.35 L49.75 26.35 49.0 25.85 49.15 19.85 49.25 12.65 49.35 8.15 49.4 4.5 M42.65 36.8 L42.65 37.3 44.25 36.15 44.25 36.05 44.25 35.95 44.25 35.75 44.3 35.5 44.3 35.35 44.45 35.05 42.7 36.2 42.65 36.55 42.65 36.8 M44.3 36.6 L42.85 38.2 43.15 38.8 43.4 39.15 Q43.8 39.45 44.3 39.55 L44.85 37.15 44.5 37.0 44.4 36.85 44.3 36.6 M45.3 37.05 L45.95 36.25 46.0 36.2 46.2 35.65 47.6 35.9 47.1 37.15 Q46.35 38.6 45.35 39.2 L45.25 39.25 45.1 39.35 45.2 37.05 45.3 37.05 M46.0 34.05 L46.05 34.15 46.3 34.95 46.3 35.1 47.8 34.6 47.85 34.05 47.7 32.9 46.0 34.05 M28.15 45.85 L28.05 46.1 28.0 46.3 27.9 46.75 27.9 47.1 27.9 47.25 27.9 47.65 29.0 46.75 29.0 46.65 29.0 46.5 29.05 46.3 29.05 46.2 29.2 45.8 28.65 45.5 28.15 45.85 M30.25 45.2 L30.55 44.25 31.2 43.8 31.25 43.85 Q31.6 44.3 31.6 45.2 L31.55 45.6 30.45 45.95 30.45 45.85 30.3 45.3 30.25 45.2 M29.75 47.35 L30.25 46.8 30.25 46.75 30.4 46.35 31.4 46.5 31.05 47.4 Q30.5 48.5 29.8 48.95 L29.75 48.95 29.6 49.05 29.7 47.4 29.75 47.35 M29.15 47.25 L29.05 47.05 28.0 48.25 28.25 48.7 28.4 48.85 Q28.7 49.15 29.05 49.15 L29.45 47.5 29.2 47.35 29.15 47.25" fill="none" stroke="#000000" stroke-linecap="round" stroke-linejoin="round" stroke-width="2.0"/>
    <path d="M34.0 0.3 L47.05 5.35 47.2 5.35 46.7 9.05 45.8 15.2 45.25 19.4 38.6 26.0 37.05 25.05 43.8 18.85 44.05 17.35 45.85 6.3 44.95 5.9 43.95 5.55 43.6 5.4 42.35 4.85 38.8 3.5 37.7 3.05 37.15 2.85 35.85 2.35 34.55 1.85 28.8 12.7 22.7 16.25 21.25 15.35 21.0 15.2 21.15 15.15 27.75 11.55 33.9 0.35 34.0 0.3 M26.8 16.2 L26.7 16.2 26.6 15.95 26.6 15.85 Q26.6 15.5 27.15 15.2 27.6 14.95 28.1 14.95 L28.55 15.15 28.7 15.45 28.65 15.7 28.5 16.05 Q28.2 16.4 27.75 16.4 L27.7 16.4 27.2 16.35 27.15 16.35 26.8 16.2 M27.05 15.9 L27.2 16.0 27.6 15.95 27.75 15.9 28.15 15.6 28.1 15.45 27.9 15.45 Q27.3 15.45 27.05 15.9 L26.95 15.85 27.0 15.95 27.05 15.9 M21.85 31.35 L26.5 31.1 26.65 34.6 26.15 31.7 26.15 31.65 21.6 31.9 21.85 31.35 M21.4 32.6 L25.75 32.25 25.85 32.25 26.1 34.05 26.1 34.15 Q25.75 34.6 24.5 35.3 L23.55 35.6 23.25 35.7 22.25 35.9 21.75 35.8 21.65 35.8 21.4 34.65 21.4 34.6 21.25 33.75 21.25 33.65 21.4 32.6" fill="#fbe9a6" fill-rule="evenodd" stroke="none"/>
    <path d="M47.2 5.35 L47.05 5.35 34.0 0.3 36.05 -0.6 49.4 4.5 47.2 5.35 M21.25 15.35 L22.7 16.25 27.1 19.05 27.2 19.15 27.3 21.1 Q27.25 22.25 28.2 22.4 L28.6 22.45 29.65 22.3 30.15 21.65 30.05 20.85 32.0 22.05 27.9 24.55 Q24.65 26.4 21.95 26.4 20.75 26.4 16.8 23.55 12.6 20.6 12.6 19.3 12.6 18.9 16.95 17.1 L21.25 15.35" fill="#ffc354" fill-rule="evenodd" stroke="none"/>
    <path d="M46.7 9.05 L47.2 5.35 49.4 4.5 49.35 8.15 Q47.75 8.95 46.7 9.05" fill="#ffac15" fill-rule="evenodd" stroke="none"/>
    <path d="M37.7 3.05 L38.8 3.5 38.6 3.7 Q38.25 4.25 38.25 4.5 38.25 5.15 39.4 5.65 L40.9 6.05 41.95 5.6 42.35 4.85 43.6 5.4 43.75 6.05 Q43.75 7.45 42.15 7.45 40.4 7.45 38.9 6.85 L37.8 6.1 Q36.9 5.35 36.9 4.8 L37.15 3.9 37.7 3.05 M41.85 10.6 L41.4 13.25 41.15 14.55 Q40.9 15.25 40.4 15.25 L38.7 14.8 37.1 14.1 35.55 13.45 Q35.1 13.15 35.1 12.15 35.1 11.25 35.8 9.55 36.55 7.8 37.1 7.8 L37.3 7.8 37.45 7.85 38.15 8.15 39.7 8.75 41.25 9.3 Q41.85 9.65 41.85 10.6 M40.6 10.45 Q40.45 10.05 39.65 9.7 L38.4 9.15 37.45 8.8 36.75 8.95 36.45 9.35 Q35.7 10.55 35.7 11.6 35.7 12.25 37.15 13.25 38.55 14.15 39.35 14.15 40.2 14.15 40.45 13.3 L40.65 11.7 40.6 10.45 M40.7 17.9 L39.3 19.15 37.5 19.35 Q36.2 19.25 34.1 18.2 32.4 17.35 31.8 16.3 31.6 15.9 32.6 15.1 33.7 14.2 34.25 14.2 34.75 14.2 37.45 15.5 L40.8 17.1 40.7 17.9" fill="#c1249c" fill-rule="evenodd" stroke="none"/>
    <path d="M37.15 2.85 L37.7 3.05 37.15 3.9 36.9 4.8 Q36.9 5.35 37.8 6.1 L38.9 6.85 Q40.4 7.45 42.15 7.45 43.75 7.45 43.75 6.05 L43.6 5.4 43.95 5.55 Q44.35 7.7 43.05 9.35 L42.1 16.2 42.1 16.65 42.1 16.9 42.1 17.0 42.05 17.45 Q41.85 18.2 40.65 19.25 39.8 20.05 38.1 20.2 35.6 19.8 34.3 19.15 L32.1 17.95 30.85 16.75 30.6 16.0 30.6 15.95 Q30.65 15.65 32.0 14.65 33.25 13.6 34.05 13.7 L36.0 6.55 Q35.75 5.05 36.4 3.9 L37.15 2.85 M41.85 10.6 Q41.85 9.65 41.25 9.3 L39.7 8.75 38.15 8.15 37.45 7.85 37.3 7.8 37.1 7.8 Q36.55 7.8 35.8 9.55 35.1 11.25 35.1 12.15 35.1 13.15 35.55 13.45 L37.1 14.1 38.7 14.8 40.4 15.25 Q40.9 15.25 41.15 14.55 L41.4 13.25 41.85 10.6 M40.7 17.9 L40.8 17.1 37.45 15.5 Q34.75 14.2 34.25 14.2 33.7 14.2 32.6 15.1 31.6 15.9 31.8 16.3 32.4 17.35 34.1 18.2 36.2 19.25 37.5 19.35 L39.3 19.15 40.7 17.9" fill="#91016e" fill-rule="evenodd" stroke="none"/>
    <path d="M43.95 5.55 L44.95 5.9 45.0 6.6 44.9 7.65 44.45 8.55 44.25 8.95 43.95 9.3 42.55 16.7 42.65 17.35 Q42.65 18.5 41.4 20.0 40.1 21.5 39.25 21.85 L37.75 22.0 37.5 22.0 Q32.5 20.9 30.55 18.65 L30.5 18.65 30.35 17.05 30.35 17.0 30.6 15.95 30.6 16.0 30.85 16.75 32.1 17.95 34.3 19.15 Q35.6 19.8 38.1 20.2 39.8 20.05 40.65 19.25 41.85 18.2 42.05 17.45 L42.1 17.0 42.1 16.9 42.1 16.65 42.1 16.2 43.05 9.35 Q44.35 7.7 43.95 5.55" fill="#7b005d" fill-rule="evenodd" stroke="none"/>
    <path d="M38.8 3.5 L42.35 4.85 41.95 5.6 40.9 6.05 39.4 5.65 Q38.25 5.15 38.25 4.5 38.25 4.25 38.6 3.7 L38.8 3.5 M40.6 10.45 L40.65 11.7 40.45 13.3 Q40.2 14.15 39.35 14.15 38.55 14.15 37.15 13.25 35.7 12.25 35.7 11.6 35.7 10.55 36.45 9.35 L36.75 8.95 37.45 8.8 38.4 9.15 39.65 9.7 Q40.45 10.05 40.6 10.45" fill="#e244bd" fill-rule="evenodd" stroke="none"/>
    <path d="M35.85 2.35 L37.15 2.85 36.4 3.9 Q35.75 5.05 36.0 6.55 L34.05 13.7 35.85 2.35 M44.95 5.9 L45.85 6.3 44.05 17.35 42.55 16.7 43.95 9.3 44.25 8.95 44.45 8.55 44.9 7.65 45.0 6.6 44.95 5.9" fill="#d48900" fill-rule="evenodd" stroke="none"/>
    <path d="M45.8 15.2 L46.7 9.05 Q47.75 8.95 49.35 8.15 L49.25 12.65 Q47.55 14.55 45.8 15.2" fill="#faa202" fill-rule="evenodd" stroke="none"/>
    <path d="M37.05 25.05 L38.6 26.0 45.25 19.4 45.8 15.2 Q47.55 14.55 49.25 12.65 L49.15 19.85 Q48.3 21.35 46.05 23.55 43.35 26.2 40.85 27.65 35.1 30.95 30.15 30.95 L27.25 30.65 24.7 30.4 22.3 30.65 22.25 30.65 Q22.9 29.75 24.0 29.25 L24.35 29.1 35.0 23.95 36.45 24.65 37.05 25.05 M24.2 36.3 L24.3 36.35 25.5 36.9 27.6 37.3 Q32.5 37.3 40.9 32.75 47.05 29.45 48.95 27.25 L48.9 29.4 23.7 45.3 21.8 36.45 22.6 36.5 24.2 36.3 M28.65 15.7 L29.15 16.95 29.15 17.15 29.25 17.7 29.3 17.65 29.7 19.2 30.05 20.85 30.15 21.65 29.65 22.3 28.6 22.45 28.45 19.85 28.25 18.3 28.15 17.95 28.15 17.85 27.75 16.6 27.7 16.4 27.75 16.4 Q28.2 16.4 28.5 16.05 L28.65 15.7" fill="#e09100" fill-rule="evenodd" stroke="none"/>
    <path d="M44.05 17.35 L43.8 18.85 37.05 25.05 36.45 24.65 35.0 23.95 32.0 22.05 30.05 20.85 29.7 19.2 29.3 17.65 30.35 17.05 30.5 18.65 30.55 18.65 Q32.5 20.9 37.5 22.0 L37.75 22.0 39.25 21.85 Q40.1 21.5 41.4 20.0 42.65 18.5 42.65 17.35 L42.55 16.7 44.05 17.35 M27.2 19.1 L27.2 19.15 27.1 19.05 27.2 19.1" fill="#72460f" fill-rule="evenodd" stroke="none"/>
    <path d="M22.3 30.65 L24.7 30.4 27.25 30.65 30.15 30.95 Q35.1 30.95 40.85 27.65 43.35 26.2 46.05 23.55 48.3 21.35 49.15 19.85 L48.95 27.25 Q47.05 29.45 40.9 32.75 32.5 37.3 27.6 37.3 L25.5 36.9 24.3 36.35 24.2 36.3 Q25.65 35.85 26.6 34.55 L26.65 34.6 26.5 31.1 21.85 31.35 21.85 31.25 22.2 30.7 22.3 30.65" fill="#e99802" fill-rule="evenodd" stroke="none"/>
    <path d="M48.9 29.4 L48.9 30.3 23.9 46.5 23.7 45.3 48.9 29.4" fill="#c98200" fill-rule="evenodd" stroke="none"/>
    <path d="M48.9 30.3 L48.85 32.1 25.3 47.7 24.2 47.8 24.2 47.7 23.9 46.5 48.9 30.3" fill="#a86d00" fill-rule="evenodd" stroke="none"/>
    <path d="M22.7 16.25 L28.8 12.7 34.55 1.85 35.85 2.35 34.05 13.7 Q33.25 13.6 32.0 14.65 30.65 15.65 30.6 15.95 L30.35 17.0 30.35 17.05 29.3 17.65 29.25 17.7 29.15 17.15 29.15 16.95 28.65 15.7 28.7 15.45 28.55 15.15 28.1 14.95 Q27.6 14.95 27.15 15.2 26.6 15.5 26.6 15.85 L26.6 15.95 26.7 16.2 26.8 16.2 26.7 16.5 26.95 17.2 27.1 17.6 27.25 19.1 27.2 19.1 27.1 19.05 22.7 16.25 M27.05 15.9 L27.0 15.95 26.95 15.85 27.05 15.9 M27.75 16.6 L27.2 16.35 27.7 16.4 27.75 16.6 M27.4 17.3 L27.5 17.35 27.45 17.4 27.4 17.3" fill="#f39d00" fill-rule="evenodd" stroke="none"/>
    <path d="M27.05 15.9 Q27.3 15.45 27.9 15.45 L28.1 15.45 28.15 15.6 27.75 15.9 27.6 15.95 27.2 16.0 27.05 15.9" fill="#b17300" fill-rule="evenodd" stroke="none"/>
    <path d="M21.0 15.2 L21.25 15.35 16.95 17.1 Q12.6 18.9 12.6 19.3 12.6 20.6 16.8 23.55 20.75 26.4 21.95 26.4 24.65 26.4 27.9 24.55 L32.0 22.05 35.0 23.95 24.35 29.1 23.7 29.1 Q20.05 29.1 15.25 26.0 10.05 22.7 10.05 19.55 L10.3 18.3 20.05 14.65 21.0 15.2 M26.8 16.2 L27.15 16.35 27.2 16.35 27.75 16.6 28.15 17.85 28.15 17.95 28.25 18.3 28.45 19.85 28.6 22.45 28.2 22.4 Q27.25 22.25 27.3 21.1 L27.2 19.15 27.2 19.1 27.25 19.1 27.1 17.6 26.95 17.2 26.7 16.5 26.8 16.2 M27.4 17.3 L27.45 17.4 27.5 17.35 27.4 17.3 M26.6 34.55 Q25.65 35.85 24.2 36.3 L22.6 36.5 21.8 36.45 21.65 35.8 21.75 35.8 22.25 35.9 23.25 35.7 23.55 35.6 24.5 35.3 Q25.75 34.6 26.1 34.15 L26.1 34.05 26.6 34.55 M21.6 31.9 L26.15 31.65 26.15 31.7 25.75 32.25 21.4 32.6 21.4 32.55 21.45 32.35 21.6 31.9" fill="#ffb01e" fill-rule="evenodd" stroke="none"/>
    <path d="M7.6 23.85 L7.4 23.05 Q7.55 21.1 8.05 20.05 10.45 27.7 22.25 30.65 L22.2 30.7 21.85 31.25 21.85 31.35 21.6 31.9 21.45 32.35 21.4 32.55 21.4 32.6 21.25 33.65 21.25 33.75 21.4 34.6 21.4 34.65 Q13.1 32.5 7.6 23.85" fill="#ffd893" fill-rule="evenodd" stroke="none"/>
    <path d="M8.05 20.05 L8.65 19.2 9.5 18.6 10.3 18.3 10.05 19.55 Q10.05 22.7 15.25 26.0 20.05 29.1 23.7 29.1 L24.35 29.1 24.0 29.25 Q22.9 29.75 22.25 30.65 10.45 27.7 8.05 20.05" fill="#ffeed0" fill-rule="evenodd" stroke="none"/>
    <path d="M24.2 47.7 L11.05 36.35 7.6 23.85 Q13.1 32.5 21.4 34.65 L21.65 35.8 21.8 36.45 23.7 45.3 23.9 46.5 24.2 47.7" fill="#bf7c00" fill-rule="evenodd" stroke="none"/>
    <path d="M26.65 34.6 L26.6 34.55 26.1 34.05 25.85 32.25 25.75 32.25 26.15 31.7 26.65 34.6" fill="#c47f00" fill-rule="evenodd" stroke="none"/>
    <path d="M20.65 41.85 L10.25 34.25 10.2 34.25 10.25 34.15 9.5 30.9 19.9 38.5 20.65 41.85" fill="#b6b406" fill-rule="evenodd" stroke="none"/>
    <path d="M20.65 41.85 L19.9 38.5 9.5 30.9 10.25 34.15 10.2 34.25 9.9 34.65 5.0 42.0 4.65 42.5 16.05 50.75 18.25 46.55 19.25 44.65 20.65 41.85 M10.8 54.75 L9.85 53.95 9.7 53.8 11.9 51.9 10.95 51.15 8.75 53.1 8.2 52.65 7.75 52.3 9.9 50.4 8.8 49.6 6.7 51.45 5.85 50.8 5.65 50.6 7.7 48.75 6.6 47.9 4.55 49.7 3.7 49.1 3.5 48.9 5.5 47.1 4.5 46.35 3.0 47.7 2.5 48.1 1.7 47.45 1.5 47.3 3.0 45.95 3.45 45.55 2.5 44.85 0.6 46.55 0.0 46.1 0.8 44.25 1.1 43.8 4.05 42.3 4.3 42.25 4.2 42.15 9.8 34.05 9.85 33.95 9.8 33.9 9.1 30.65 10.2 29.9 21.8 38.35 21.75 38.35 20.65 39.05 21.3 42.25 21.3 42.3 16.45 51.05 13.15 52.7 13.05 52.8 10.8 54.75" fill="#ddf755" fill-rule="evenodd" stroke="none"/>
    <path d="M10.2 34.25 L10.25 34.25 20.65 41.85 19.25 44.65 10.65 38.55 10.65 38.5 9.9 34.65 10.2 34.25 M18.25 46.55 L16.05 50.75 4.65 42.5 5.0 42.0 9.65 40.1 18.25 46.55" fill="#9f9d04" fill-rule="evenodd" stroke="none"/>
    <path d="M9.9 34.65 L10.65 38.5 10.65 38.55 Q10.6 39.65 9.65 40.1 L5.0 42.0 9.9 34.65" fill="#8c8c0b" fill-rule="evenodd" stroke="none"/>
    <path d="M10.65 38.55 L19.25 44.65 18.25 46.55 9.65 40.1 Q10.6 39.65 10.65 38.55" fill="#b4b109" fill-rule="evenodd" stroke="none"/>
    <path d="M21.75 38.35 L23.65 46.0 Q24.3 48.45 22.85 49.45 L20.25 50.8 13.6 54.3 10.8 54.75 13.05 52.8 13.15 52.7 16.45 51.05 21.3 42.3 21.3 42.25 20.65 39.05 21.75 38.35" fill="#727202" fill-rule="evenodd" stroke="none"/>
  </g>
</svg>
