<?xml version="1.0" encoding="UTF-8" standalone="no"?>
<svg xmlns:xlink="http://www.w3.org/1999/xlink" height="57.35px" width="53.7px" xmlns="http://www.w3.org/2000/svg">
  <g transform="matrix(1.0, 0.0, 0.0, 1.0, -7.5, 1.0)">
    <path d="M49.9 18.9 L50.7 19.2 51.55 19.8 52.15 20.65 Q52.65 21.7 52.8 23.65 L50.75 31.05 51.1 31.25 50.4 34.5 50.35 34.55 50.4 34.65 56.0 42.75 55.9 42.85 56.15 42.9 59.1 44.4 59.4 44.85 60.2 46.7 59.6 47.15 57.7 45.45 56.75 46.15 57.2 46.55 58.7 47.9 58.5 48.05 57.7 48.7 57.2 48.3 55.7 46.95 54.7 47.7 56.7 49.5 56.5 49.7 55.65 50.3 53.6 48.5 52.5 49.35 54.55 51.2 54.35 51.4 53.5 52.05 51.4 50.2 50.3 51.0 52.45 52.9 52.0 53.25 51.45 53.7 49.25 51.75 48.3 52.5 50.5 54.4 50.35 54.55 49.4 55.35 46.6 54.9 39.95 51.4 37.35 50.05 Q36.35 49.35 36.35 48.0 L36.0 48.3 36.0 48.4 35.1 48.35 35.1 48.85 35.05 50.1 34.85 51.0 34.2 52.3 33.75 52.85 30.5 53.0 Q28.55 51.9 27.2 49.2 25.85 46.45 25.85 43.7 L25.95 42.4 21.4 39.35 21.35 40.75 21.05 42.0 20.15 43.9 19.5 44.6 Q17.65 46.4 15.0 44.95 12.3 43.55 10.35 39.7 8.5 35.95 8.5 32.05 8.5 28.15 10.35 26.35 L10.45 26.35 11.2 25.85 11.05 20.45 10.95 13.25 10.85 8.75 10.8 5.1 24.15 0.0 26.2 0.9 26.3 0.95 32.45 12.15 39.05 15.75 39.2 15.8 40.15 15.25 49.9 18.9 M12.4 34.6 L13.9 35.1 13.9 34.95 13.95 34.45 12.4 33.4 12.35 34.05 12.4 34.6 M14.9 37.05 Q14.5 36.8 14.25 36.25 L14.2 36.2 14.0 35.65 12.6 35.9 13.1 37.15 Q13.85 38.6 14.85 39.2 L14.95 39.25 15.1 39.35 15.0 37.05 14.9 37.05 M28.6 45.2 L28.65 45.6 29.75 45.95 29.75 45.85 Q29.75 45.45 29.9 45.3 L29.95 45.2 29.9 45.0 28.75 44.25 Q28.6 44.6 28.6 45.2 M37.9 31.25 L38.0 31.3 37.95 31.25 37.9 31.25 M17.55 36.8 L15.95 35.75 15.95 35.95 15.95 36.05 15.95 36.15 17.55 37.3 17.55 36.8 M15.8 36.85 L15.7 37.0 15.35 37.15 15.9 39.55 16.8 39.15 17.05 38.8 17.35 38.2 15.9 36.6 15.8 36.85 M29.15 47.4 Q29.7 48.5 30.4 48.95 L30.45 48.95 30.6 49.05 30.5 47.4 30.45 47.35 29.95 46.8 29.95 46.75 29.8 46.35 28.8 46.5 29.15 47.4 M31.15 47.05 L31.05 47.25 31.0 47.35 30.75 47.5 31.15 49.15 31.8 48.85 31.95 48.7 32.2 48.25 31.15 47.05 M31.15 46.2 L31.15 46.3 31.2 46.5 31.2 46.65 31.2 46.75 32.3 47.65 32.3 47.25 32.3 47.1 32.3 46.75 32.25 46.55 31.05 45.8 31.0 45.8 31.15 46.2" fill="#000000" fill-rule="evenodd" stroke="none"/>
    <path d="M49.9 18.9 L40.15 15.25 39.2 15.8 39.05 15.75 32.45 12.15 26.3 0.95 26.2 0.9 24.15 0.0 10.8 5.1 10.85 8.75 10.95 13.25 11.05 20.45 11.2 25.85 10.45 26.35 10.35 26.35 Q8.5 28.15 8.5 32.05 8.5 35.95 10.35 39.7 12.3 43.55 15.0 44.95 17.65 46.4 19.5 44.6 L20.15 43.9 21.05 42.0 21.35 40.75 21.4 39.35 25.95 42.4 25.85 43.7 Q25.85 46.45 27.2 49.2 28.55 51.9 30.5 53.0 L33.75 52.85 34.2 52.3 34.85 51.0 35.05 50.1 35.1 48.85 35.1 48.35 36.0 48.4 36.0 48.3 36.35 48.0 Q36.35 49.35 37.35 50.05 L39.95 51.4 46.6 54.9 49.4 55.35 50.35 54.55 50.5 54.4 48.3 52.5 49.25 51.75 51.45 53.7 52.0 53.25 52.45 52.9 50.3 51.0 51.4 50.2 53.5 52.05 54.35 51.4 54.55 51.2 52.5 49.35 53.6 48.5 55.65 50.3 56.5 49.7 56.7 49.5 54.7 47.7 55.7 46.95 57.2 48.3 57.7 48.7 58.5 48.05 58.7 47.9 57.2 46.55 56.75 46.15 57.7 45.45 59.6 47.15 60.2 46.7 59.4 44.85 59.1 44.4 56.15 42.9 55.9 42.85 56.0 42.75 50.4 34.65 50.35 34.55 50.4 34.5 51.1 31.25 50.75 31.05 52.8 23.65 Q52.65 21.7 52.15 20.65 L51.55 19.8 50.7 19.2 49.9 18.9 M12.4 34.6 L13.9 35.1 13.9 34.95 13.95 34.45 12.4 33.4 12.35 34.05 12.4 34.6 M14.9 37.05 Q14.5 36.8 14.25 36.25 L14.2 36.2 14.0 35.65 12.6 35.9 13.1 37.15 Q13.85 38.6 14.85 39.2 L14.95 39.25 15.1 39.35 15.0 37.05 14.9 37.05 M15.8 36.85 L15.9 36.6 17.35 38.2 17.05 38.8 16.8 39.15 15.9 39.55 15.35 37.15 15.7 37.0 15.8 36.85 M17.55 36.8 L17.55 37.3 15.95 36.15 15.95 36.05 15.95 35.95 15.95 35.75 17.55 36.8 M37.9 31.25 L37.95 31.25 38.0 31.3 37.9 31.25 M28.6 45.2 Q28.6 44.6 28.75 44.25 L29.9 45.0 29.95 45.2 29.9 45.3 Q29.75 45.45 29.75 45.85 L29.75 45.95 28.65 45.6 28.6 45.2 M29.15 47.4 Q29.7 48.5 30.4 48.95 L30.45 48.95 30.6 49.05 30.5 47.4 30.45 47.35 29.95 46.8 29.95 46.75 29.8 46.35 28.8 46.5 29.15 47.4 M31.15 46.2 L31.0 45.8 31.05 45.8 32.25 46.55 32.3 46.75 32.3 47.1 32.3 47.25 32.3 47.65 31.2 46.75 31.2 46.65 31.2 46.5 31.15 46.3 31.15 46.2 M31.15 47.05 L32.2 48.25 31.95 48.7 31.8 48.85 31.15 49.15 30.75 47.5 31.0 47.35 31.05 47.25 31.15 47.05" fill="none" stroke="#000000" stroke-linecap="round" stroke-linejoin="round" stroke-width="2.0"/>
    <path d="M35.85 29.7 L36.5 29.7 Q40.15 29.7 44.95 26.6 50.15 23.3 50.15 20.15 L49.9 18.9 50.7 19.2 51.55 19.8 52.15 20.65 Q49.75 28.3 37.95 31.25 37.3 30.35 36.2 29.85 L35.85 29.7" fill="#ffeed0" fill-rule="evenodd" stroke="none"/>
    <path d="M49.9 18.9 L50.15 20.15 Q50.15 23.3 44.95 26.6 40.15 29.7 36.5 29.7 L35.85 29.7 25.2 24.55 28.2 22.65 32.3 25.15 Q35.55 27.0 38.25 27.0 39.45 27.0 43.4 24.15 47.6 21.2 47.6 19.9 47.6 19.5 43.25 17.7 L38.95 15.95 39.2 15.8 40.15 15.25 49.9 18.9 M38.55 36.4 L38.4 37.05 37.6 37.1 36.0 36.9 Q34.55 36.45 33.6 35.15 L34.1 34.65 34.1 34.75 Q34.45 35.2 35.7 35.9 L36.65 36.2 36.95 36.3 37.95 36.5 38.45 36.4 38.55 36.4 M33.4 16.8 L33.5 17.1 33.25 17.8 33.1 18.2 32.95 19.7 33.0 19.7 33.0 19.75 32.9 21.7 Q32.95 22.85 32.0 23.0 L31.6 23.05 31.75 20.45 31.95 18.9 32.05 18.55 32.05 18.45 32.45 17.2 33.0 16.95 33.05 16.95 33.4 16.8 M32.7 17.95 L32.75 18.0 32.8 17.9 32.7 17.95 M38.6 32.5 L38.75 32.95 38.8 33.15 38.8 33.2 34.45 32.85 34.05 32.3 34.05 32.25 38.6 32.5" fill="#ffb01e" fill-rule="evenodd" stroke="none"/>
    <path d="M38.95 15.95 L43.25 17.7 Q47.6 19.5 47.6 19.9 47.6 21.2 43.4 24.15 39.45 27.0 38.25 27.0 35.55 27.0 32.3 25.15 L28.2 22.65 30.15 21.45 30.05 22.25 Q30.05 22.7 30.55 22.9 L31.6 23.05 32.0 23.0 Q32.95 22.85 32.9 21.7 L33.0 19.75 33.1 19.65 37.5 16.85 38.95 15.95 M10.8 5.1 L24.15 0.0 26.2 0.9 13.15 5.95 13.0 5.95 10.8 5.1" fill="#ffc354" fill-rule="evenodd" stroke="none"/>
    <path d="M37.95 31.25 Q49.75 28.3 52.15 20.65 52.65 21.7 52.8 23.65 L52.6 24.45 Q47.1 33.1 38.8 35.25 L38.8 35.2 38.95 34.35 38.95 34.25 38.8 33.2 38.8 33.15 38.75 32.95 38.6 32.5 38.35 31.95 38.35 31.85 38.0 31.3 37.95 31.25" fill="#ffd893" fill-rule="evenodd" stroke="none"/>
    <path d="M52.6 24.45 L49.15 36.95 36.0 48.3 36.3 47.1 36.5 45.9 38.4 37.05 38.55 36.4 38.8 35.25 Q47.1 33.1 52.6 24.45" fill="#bf7c00" fill-rule="evenodd" stroke="none"/>
    <path d="M39.2 15.8 L38.95 15.95 37.5 16.85 31.4 13.3 25.65 2.45 24.35 2.95 23.05 3.45 22.5 3.65 21.4 4.1 17.85 5.45 16.6 6.0 16.25 6.15 15.25 6.5 14.35 6.9 16.15 17.95 16.4 19.45 23.15 25.65 21.6 26.6 14.95 20.0 14.4 15.8 13.5 9.65 13.0 5.95 13.15 5.95 26.2 0.9 26.3 0.95 32.45 12.15 39.05 15.75 39.2 15.8 M38.8 35.25 L38.55 36.4 38.45 36.4 37.95 36.5 36.95 36.3 36.65 36.2 35.7 35.9 Q34.45 35.2 34.1 34.75 L34.1 34.65 34.35 32.85 34.45 32.85 38.8 33.2 38.95 34.25 38.95 34.35 38.8 35.2 38.8 35.25 M31.55 16.3 L31.5 16.05 Q31.5 15.8 31.65 15.75 L32.1 15.55 33.05 15.8 Q33.6 16.1 33.6 16.45 L33.6 16.55 33.5 16.8 33.4 16.8 33.05 16.95 33.0 16.95 32.5 17.0 32.45 17.0 Q32.0 17.0 31.7 16.65 L31.55 16.3 M32.45 16.5 L32.6 16.55 33.0 16.6 33.15 16.5 Q32.9 16.05 32.3 16.05 L32.1 16.05 32.05 16.2 Q32.05 16.35 32.45 16.5 M33.15 16.5 L33.2 16.55 33.25 16.45 33.15 16.5 M38.35 31.95 L38.6 32.5 34.05 32.25 34.05 32.3 33.55 35.2 33.7 31.7 38.35 31.95" fill="#fbe9a6" fill-rule="evenodd" stroke="none"/>
    <path d="M22.5 3.65 L23.05 3.45 23.8 4.5 Q24.45 5.65 24.2 7.15 L26.15 14.3 Q26.95 14.2 28.2 15.25 L29.6 16.55 29.6 16.6 29.35 17.35 28.1 18.55 25.9 19.75 Q24.6 20.4 22.1 20.8 20.4 20.65 19.55 19.85 18.35 18.8 18.15 18.05 L18.1 17.6 18.1 17.5 18.1 17.25 18.1 16.8 17.15 9.95 Q15.85 8.3 16.25 6.15 L16.6 6.0 16.45 6.65 Q16.45 8.05 18.05 8.05 19.8 8.05 21.3 7.45 L22.4 6.7 Q23.3 5.95 23.3 5.4 L23.05 4.5 22.5 3.65 M22.9 8.4 L22.75 8.45 22.05 8.75 20.5 9.35 18.95 9.9 Q18.35 10.25 18.35 11.2 18.35 12.2 18.8 13.85 L19.05 15.15 Q19.3 15.85 19.8 15.85 L21.5 15.4 23.1 14.7 24.65 14.05 Q25.1 13.75 25.1 12.75 25.1 11.85 24.4 10.15 23.65 8.4 23.1 8.4 L22.9 8.4 M27.6 15.7 Q26.5 14.8 25.95 14.8 25.45 14.8 22.75 16.1 L19.4 17.7 19.5 18.5 20.9 19.75 22.7 19.95 Q24.0 19.85 26.1 18.8 27.8 17.95 28.4 16.9 28.6 16.5 27.6 15.7" fill="#91016e" fill-rule="evenodd" stroke="none"/>
    <path d="M26.15 14.3 L24.2 7.15 Q24.45 5.65 23.8 4.5 L23.05 3.45 24.35 2.95 26.15 14.3 M17.65 17.3 L16.15 17.95 14.35 6.9 15.25 6.5 15.2 7.2 15.3 8.25 15.75 9.15 15.95 9.55 16.25 9.9 17.65 17.3" fill="#d48900" fill-rule="evenodd" stroke="none"/>
    <path d="M22.5 3.65 L23.05 4.5 23.3 5.4 Q23.3 5.95 22.4 6.7 L21.3 7.45 Q19.8 8.05 18.05 8.05 16.45 8.05 16.45 6.65 L16.6 6.0 17.85 5.45 18.25 6.2 Q18.6 6.65 19.3 6.65 L20.8 6.25 Q21.95 5.75 21.95 5.1 L21.6 4.3 21.4 4.1 22.5 3.65 M22.9 8.4 L23.1 8.4 Q23.65 8.4 24.4 10.15 25.1 11.85 25.1 12.75 25.1 13.75 24.65 14.05 L23.1 14.7 21.5 15.4 19.8 15.85 Q19.3 15.85 19.05 15.15 L18.8 13.85 Q18.35 12.2 18.35 11.2 18.35 10.25 18.95 9.9 L20.5 9.35 22.05 8.75 22.75 8.45 22.9 8.4 M22.75 9.4 Q22.7 9.4 21.8 9.75 20.9 10.1 20.55 10.3 L19.6 11.05 19.55 12.3 19.75 13.9 Q20.0 14.75 20.85 14.75 21.65 14.75 23.05 13.85 24.5 12.85 24.5 12.2 24.5 11.15 23.75 9.95 L23.45 9.55 22.75 9.4 M27.6 15.7 Q28.6 16.5 28.4 16.9 27.8 17.95 26.1 18.8 24.0 19.85 22.7 19.95 L20.9 19.75 19.5 18.5 19.4 17.7 22.75 16.1 Q25.45 14.8 25.95 14.8 26.5 14.8 27.6 15.7" fill="#c1249c" fill-rule="evenodd" stroke="none"/>
    <path d="M21.4 4.1 L21.6 4.3 21.95 5.1 Q21.95 5.75 20.8 6.25 L19.3 6.65 Q18.6 6.65 18.25 6.2 L17.85 5.45 21.4 4.1 M22.75 9.4 L23.45 9.55 23.75 9.95 Q24.5 11.15 24.5 12.2 24.5 12.85 23.05 13.85 21.65 14.75 20.85 14.75 20.0 14.75 19.75 13.9 L19.55 12.3 19.6 11.05 20.55 10.3 Q20.9 10.1 21.8 9.75 22.7 9.4 22.75 9.4" fill="#e244bd" fill-rule="evenodd" stroke="none"/>
    <path d="M29.6 16.55 L28.2 15.25 Q26.95 14.2 26.15 14.3 L24.35 2.95 25.65 2.45 31.4 13.3 37.5 16.85 33.1 19.65 33.0 19.7 32.95 19.7 33.1 18.2 33.25 17.8 33.5 17.1 33.4 16.8 33.5 16.8 33.6 16.55 33.6 16.45 Q33.6 16.1 33.05 15.8 L32.1 15.55 31.65 15.75 Q31.5 15.8 31.5 16.05 L31.55 16.3 31.05 17.55 31.05 17.75 30.95 18.3 30.9 18.25 29.85 17.65 29.85 17.6 29.6 16.55 M32.45 17.2 L32.5 17.0 33.0 16.95 32.45 17.2 M32.7 17.95 L32.8 17.9 32.75 18.0 32.7 17.95 M33.15 16.5 L33.25 16.45 33.2 16.55 33.15 16.5" fill="#f39d00" fill-rule="evenodd" stroke="none"/>
    <path d="M16.25 6.15 Q15.85 8.3 17.15 9.95 L18.1 16.8 18.1 17.25 18.1 17.5 18.1 17.6 18.15 18.05 Q18.35 18.8 19.55 19.85 20.4 20.65 22.1 20.8 24.6 20.4 25.9 19.75 L28.1 18.55 29.35 17.35 29.6 16.6 29.6 16.55 29.85 17.6 29.85 17.65 29.7 19.25 29.65 19.25 Q27.7 21.5 22.7 22.6 L22.45 22.6 20.95 22.45 Q20.1 22.1 18.8 20.6 17.55 19.1 17.55 17.95 L17.65 17.3 16.25 9.9 15.95 9.55 15.75 9.15 15.3 8.25 15.2 7.2 15.25 6.5 16.25 6.15" fill="#7b005d" fill-rule="evenodd" stroke="none"/>
    <path d="M28.2 22.65 L25.2 24.55 23.75 25.25 23.15 25.65 16.4 19.45 16.15 17.95 17.65 17.3 17.55 17.95 Q17.55 19.1 18.8 20.6 20.1 22.1 20.95 22.45 L22.45 22.6 22.7 22.6 Q27.7 21.5 29.65 19.25 L29.7 19.25 29.85 17.65 30.9 18.25 30.5 19.8 30.15 21.45 28.2 22.65 M33.0 19.7 L33.1 19.65 33.0 19.75 33.0 19.7" fill="#72460f" fill-rule="evenodd" stroke="none"/>
    <path d="M35.85 29.7 L36.2 29.85 Q37.3 30.35 37.95 31.25 L37.9 31.25 35.5 31.0 32.95 31.25 30.05 31.55 Q25.1 31.55 19.35 28.25 16.85 26.8 14.15 24.15 11.9 21.95 11.05 20.45 L10.95 13.25 Q12.65 15.15 14.4 15.8 L14.95 20.0 21.6 26.6 23.15 25.65 23.75 25.25 25.2 24.55 35.85 29.7 M38.4 37.05 L36.5 45.9 11.3 30.0 11.25 27.85 Q13.15 30.05 19.3 33.35 27.7 37.9 32.6 37.9 L34.7 37.5 35.9 36.95 36.0 36.9 37.6 37.1 38.4 37.05 M30.9 18.25 L30.95 18.3 31.05 17.75 31.05 17.55 31.55 16.3 31.7 16.65 Q32.0 17.0 32.45 17.0 L32.5 17.0 32.45 17.2 32.05 18.45 32.05 18.55 31.95 18.9 31.75 20.45 31.6 23.05 30.55 22.9 Q30.05 22.7 30.05 22.25 L30.15 21.45 30.5 19.8 30.9 18.25" fill="#e09100" fill-rule="evenodd" stroke="none"/>
    <path d="M32.45 16.5 Q32.05 16.35 32.05 16.2 L32.1 16.05 32.3 16.05 Q32.9 16.05 33.15 16.5 L33.0 16.6 32.6 16.55 32.45 16.5" fill="#b17300" fill-rule="evenodd" stroke="none"/>
    <path d="M10.85 8.75 L10.8 5.1 13.0 5.95 13.5 9.65 Q12.45 9.55 10.85 8.75" fill="#ffac15" fill-rule="evenodd" stroke="none"/>
    <path d="M10.95 13.25 L10.85 8.75 Q12.45 9.55 13.5 9.65 L14.4 15.8 Q12.65 15.15 10.95 13.25" fill="#faa202" fill-rule="evenodd" stroke="none"/>
    <path d="M11.25 27.85 L11.05 20.45 Q11.9 21.95 14.15 24.15 16.85 26.8 19.35 28.25 25.1 31.55 30.05 31.55 L32.95 31.25 35.5 31.0 37.9 31.25 38.0 31.3 38.35 31.85 38.35 31.95 33.7 31.7 33.55 35.2 33.6 35.15 Q34.55 36.45 36.0 36.9 L35.9 36.95 34.7 37.5 32.6 37.9 Q27.7 37.9 19.3 33.35 13.15 30.05 11.25 27.85" fill="#e99802" fill-rule="evenodd" stroke="none"/>
    <path d="M36.5 45.9 L36.3 47.1 11.3 30.9 11.3 30.0 36.5 45.9" fill="#c98200" fill-rule="evenodd" stroke="none"/>
    <path d="M36.3 47.1 L36.0 48.3 36.0 48.4 34.9 48.3 11.35 32.7 11.3 30.9 36.3 47.1" fill="#a86d00" fill-rule="evenodd" stroke="none"/>
    <path d="M34.45 32.85 L34.35 32.85 34.1 34.65 33.6 35.15 33.55 35.2 34.05 32.3 34.45 32.85" fill="#c47f00" fill-rule="evenodd" stroke="none"/>
    <path d="M50.0 34.85 L49.95 34.85 39.55 42.45 40.3 39.1 50.7 31.5 49.95 34.75 50.0 34.85" fill="#b6b406" fill-rule="evenodd" stroke="none"/>
    <path d="M50.3 35.25 L50.0 34.85 49.95 34.75 50.7 31.5 40.3 39.1 39.55 42.45 40.95 45.25 41.95 47.15 44.15 51.35 55.55 43.1 55.2 42.6 50.3 35.25 M38.45 38.95 L38.4 38.95 50.0 30.5 51.1 31.25 50.4 34.5 50.35 34.55 50.4 34.65 56.0 42.75 55.9 42.85 56.15 42.9 59.1 44.4 59.4 44.85 60.2 46.7 59.6 47.15 57.7 45.45 56.75 46.15 57.2 46.55 58.7 47.9 58.5 48.05 57.7 48.7 57.2 48.3 55.7 46.95 54.7 47.7 56.7 49.5 56.5 49.7 55.65 50.3 53.6 48.5 52.5 49.35 54.55 51.2 54.35 51.4 53.5 52.05 51.4 50.2 50.3 51.0 52.45 52.9 52.0 53.25 51.45 53.7 49.25 51.75 48.3 52.5 50.5 54.4 50.35 54.55 49.4 55.35 47.15 53.4 47.05 53.3 43.75 51.65 38.9 42.9 38.9 42.85 39.55 39.65 38.45 38.95" fill="#ddf755" fill-rule="evenodd" stroke="none"/>
    <path d="M50.0 34.85 L50.3 35.25 49.55 39.1 49.55 39.15 40.95 45.25 39.55 42.45 49.95 34.85 50.0 34.85 M55.2 42.6 L55.55 43.1 44.15 51.35 41.95 47.15 50.55 40.7 55.2 42.6" fill="#9f9d04" fill-rule="evenodd" stroke="none"/>
    <path d="M40.95 45.25 L49.55 39.15 Q49.6 40.25 50.55 40.7 L41.95 47.15 40.95 45.25" fill="#b4b109" fill-rule="evenodd" stroke="none"/>
    <path d="M49.55 39.15 L49.55 39.1 50.3 35.25 55.2 42.6 50.55 40.7 Q49.6 40.25 49.55 39.15" fill="#8c8c0b" fill-rule="evenodd" stroke="none"/>
    <path d="M38.45 38.95 L39.55 39.65 38.9 42.85 38.9 42.9 43.75 51.65 47.05 53.3 47.15 53.4 49.4 55.35 46.6 54.9 39.95 51.4 37.35 50.05 Q35.9 49.05 36.55 46.6 L38.45 38.95" fill="#727202" fill-rule="evenodd" stroke="none"/>
  </g>
</svg>
