<?xml version="1.0" encoding="UTF-8" standalone="no"?>
<svg xmlns:xlink="http://www.w3.org/1999/xlink" height="64.0px" width="382.6px" xmlns="http://www.w3.org/2000/svg">
  <g transform="matrix(1.0, 0.0, 0.0, 1.0, -1.5, -1.5)">
    <path d="M370.35 21.6 L370.15 26.35 Q371.85 24.0 374.25 22.45 376.7 20.9 378.7 20.9 381.0 20.9 382.6 22.4 384.1 23.9 384.1 26.2 384.1 27.8 382.95 29.1 381.75 30.45 379.85 31.05 379.8 29.95 378.85 29.15 378.0 28.4 376.7 28.4 374.6 28.4 372.85 31.2 369.65 36.25 369.65 40.75 369.65 43.1 370.3 45.15 370.95 47.35 371.8 47.75 369.7 51.2 366.05 51.2 361.35 51.2 361.35 45.15 L361.85 37.55 362.05 32.7 Q362.05 25.45 360.85 23.2 L361.2 23.0 363.0 21.7 Q366.15 19.45 368.35 19.45 370.35 19.45 370.35 21.6 M355.0 33.85 Q355.0 41.4 351.25 46.25 347.45 51.1 341.55 51.1 337.5 51.1 334.05 48.2 L333.2 48.25 Q331.2 48.25 330.05 46.85 328.8 45.3 328.45 41.3 328.15 37.4 328.15 32.55 328.15 25.05 328.5 19.5 L328.95 14.05 328.95 12.95 Q328.95 11.0 328.5 10.0 329.65 9.8 332.05 8.15 334.7 6.35 336.35 6.35 338.55 6.35 338.55 8.4 L338.4 9.65 337.25 14.05 Q336.0 18.95 336.0 24.7 339.55 19.5 345.0 19.5 349.7 19.5 352.35 23.35 355.0 27.25 355.0 33.85 M345.75 28.6 Q344.55 26.2 342.75 26.2 339.75 26.2 337.5 31.0 336.0 34.3 336.0 39.25 L336.15 42.15 Q338.4 45.25 340.9 45.25 343.35 45.25 345.1 42.15 346.8 39.1 346.8 34.85 346.8 30.9 345.75 28.6 M291.75 30.9 Q290.6 30.9 289.3 32.5 287.25 34.85 286.4 37.9 L285.7 41.85 285.3 44.9 285.4 46.6 Q285.4 48.1 284.3 48.7 L281.95 49.7 278.9 50.5 Q277.1 50.5 277.1 48.5 L277.35 45.05 Q277.9 39.05 277.9 35.95 277.9 32.05 276.3 32.05 275.0 32.05 273.45 34.3 269.05 40.25 269.05 45.6 L269.2 46.7 269.25 47.85 Q269.25 48.55 268.4 49.35 266.3 51.45 264.45 51.45 262.8 51.45 261.8 49.65 260.7 47.9 260.7 45.15 L260.85 40.7 261.15 33.5 Q261.15 27.95 260.6 25.0 260.35 23.75 259.75 22.75 L260.1 22.7 262.85 20.95 Q265.25 19.25 267.4 19.25 269.7 19.25 269.7 21.9 L269.35 25.65 Q268.85 29.4 268.85 31.6 L268.85 31.9 Q274.0 23.7 279.5 23.7 283.6 23.7 284.8 29.6 L284.9 29.95 Q285.95 27.9 289.05 24.9 291.35 22.7 295.1 22.7 301.25 22.7 301.25 30.85 L301.1 35.95 301.1 39.55 Q301.1 41.55 301.25 42.85 301.65 45.45 304.05 45.45 306.05 45.45 307.5 44.0 L307.55 44.5 Q307.55 47.25 305.35 49.3 303.1 51.2 299.95 51.2 292.6 51.2 292.6 40.85 L292.95 32.9 Q292.95 30.9 291.75 30.9 M312.9 47.9 Q312.9 45.9 315.15 44.4 317.35 42.8 320.25 42.8 322.35 42.8 323.6 43.8 324.9 44.8 324.9 46.4 324.9 48.55 322.85 50.05 320.65 51.5 317.6 51.5 315.4 51.5 314.2 50.5 312.9 49.55 312.9 47.9 M239.4 19.8 Q245.5 19.8 249.45 24.4 253.4 29.05 253.4 36.1 253.4 43.15 249.75 47.4 246.0 51.65 239.9 51.65 233.75 51.65 229.9 47.4 225.9 43.1 225.9 36.4 225.9 32.55 227.5 29.1 229.15 25.7 231.45 24.55 L230.9 23.0 Q232.05 21.7 234.55 20.75 237.15 19.8 239.4 19.8 M243.9 29.75 Q242.1 26.65 239.55 26.65 237.15 26.65 235.7 28.95 234.25 31.2 234.25 34.95 234.25 39.6 236.05 42.5 237.8 45.4 240.6 45.4 245.7 45.4 245.7 37.3 245.7 32.85 243.9 29.75 M219.35 21.7 Q221.9 23.7 221.9 26.7 221.9 28.8 220.6 30.2 219.35 31.6 217.5 31.6 L216.15 31.4 216.2 30.9 Q216.2 29.25 215.2 28.0 214.05 26.8 212.6 26.8 210.2 26.8 208.55 29.55 207.0 32.25 207.0 36.4 207.0 40.55 208.7 42.95 210.45 45.3 213.4 45.3 215.9 45.3 218.45 43.95 220.95 42.45 221.95 40.4 222.95 41.35 222.95 43.0 222.95 46.6 219.85 49.15 216.7 51.6 212.0 51.6 205.9 51.6 202.45 47.7 199.0 43.85 199.0 37.05 199.0 29.75 203.1 24.7 207.25 19.65 213.2 19.65 216.9 19.65 219.35 21.7 M177.9 28.3 L176.65 29.6 Q175.6 27.8 173.3 26.65 171.0 25.5 168.7 25.5 165.2 25.5 165.2 27.9 165.2 28.45 165.6 28.9 166.4 29.95 172.65 33.55 176.15 35.75 177.7 37.45 179.6 39.85 179.6 42.8 179.6 47.05 176.55 49.55 173.45 52.1 168.25 52.1 162.5 52.1 157.25 48.9 L154.95 47.6 154.7 47.55 156.85 45.3 Q158.25 43.8 159.9 43.8 L161.25 44.1 163.35 45.05 Q165.35 45.9 167.55 45.9 168.95 45.9 169.9 45.15 170.75 44.4 170.75 43.2 170.75 41.95 169.35 40.7 168.9 40.35 166.65 38.95 L162.2 36.25 Q156.65 32.85 156.65 28.3 156.65 24.8 159.95 22.45 163.2 20.1 168.25 20.1 173.05 20.1 176.15 21.7 179.35 23.2 179.35 25.5 179.35 26.6 177.9 28.3 M185.95 50.5 Q184.65 49.55 184.65 47.9 184.65 45.9 186.9 44.4 189.15 42.8 192.0 42.8 194.1 42.8 195.4 43.8 196.7 44.8 196.7 46.4 196.7 48.55 194.6 50.05 192.45 51.5 189.35 51.5 187.2 51.5 185.95 50.5 M138.45 19.8 Q144.55 19.8 148.5 24.4 152.5 29.05 152.5 36.1 152.5 43.15 148.8 47.4 145.05 51.65 138.95 51.65 132.8 51.65 128.95 47.4 125.0 43.1 125.0 36.4 125.0 32.55 126.55 29.1 128.2 25.7 130.5 24.55 L129.95 23.0 Q131.1 21.7 133.6 20.75 136.2 19.8 138.45 19.8 M133.35 34.95 Q133.35 39.6 135.15 42.5 136.85 45.4 139.65 45.4 144.8 45.4 144.8 37.3 144.8 32.85 143.0 29.75 141.2 26.65 138.6 26.65 136.2 26.65 134.75 28.95 133.35 31.2 133.35 34.95 M119.3 34.7 Q118.95 35.8 118.7 37.4 118.35 40.55 118.35 44.8 L118.35 45.6 118.35 48.55 118.4 50.65 118.4 52.45 118.2 57.85 Q117.7 60.9 116.1 62.8 113.8 65.5 109.0 65.5 103.8 65.5 100.7 62.1 L99.2 60.45 98.75 60.15 101.35 58.65 Q102.75 57.9 103.75 57.9 L106.35 58.5 107.9 58.85 Q111.1 58.85 111.1 52.9 L111.1 51.1 111.1 49.0 111.1 48.4 Q107.75 51.1 103.9 51.1 99.8 51.1 97.1 47.4 94.4 43.65 94.4 38.1 94.4 30.75 98.75 25.3 103.0 19.8 108.8 19.8 111.65 19.8 113.55 21.25 115.2 22.4 116.5 24.85 117.8 27.25 117.8 28.95 L117.15 30.9 117.4 30.9 118.65 30.85 Q119.95 30.85 119.95 32.0 L119.3 34.7 M75.15 19.8 Q81.25 19.8 85.25 24.4 89.2 29.05 89.2 36.1 89.2 43.15 85.5 47.4 81.8 51.65 75.65 51.65 69.55 51.65 65.65 47.4 61.7 43.1 61.7 36.4 61.7 32.55 63.25 29.1 64.95 25.7 67.25 24.55 L66.65 23.0 Q67.8 21.7 70.35 20.75 72.9 19.8 75.15 19.8 M54.7 16.3 Q52.2 18.2 49.1 18.2 47.35 18.2 46.35 17.35 45.25 16.5 45.25 15.1 L45.25 14.9 Q45.25 12.4 48.8 10.1 50.95 8.7 53.05 8.7 57.15 8.7 57.15 12.15 57.15 14.45 54.7 16.3 M70.05 34.95 Q70.05 39.6 71.85 42.5 73.55 45.4 76.4 45.4 81.5 45.4 81.5 37.3 81.5 32.85 79.7 29.75 77.9 26.65 75.3 26.65 72.9 26.65 71.5 28.95 70.05 31.2 70.05 34.95 M55.7 27.5 L55.55 32.25 55.35 40.75 55.5 54.45 Q55.5 60.15 53.5 62.55 51.05 65.4 45.55 65.4 40.95 65.4 37.05 62.1 L35.65 61.0 35.35 60.75 35.75 60.6 37.8 59.15 Q39.3 58.05 40.3 58.05 L41.8 58.35 42.75 58.95 44.75 59.35 Q46.3 59.35 46.95 58.05 47.8 56.55 47.8 49.4 47.8 41.85 47.45 35.0 47.05 28.3 45.7 25.3 L46.3 25.15 49.75 23.25 Q52.35 21.8 53.85 21.8 55.95 21.8 55.95 24.5 L55.7 27.5 M101.95 37.6 Q101.95 44.5 106.05 44.5 110.05 44.5 111.1 36.45 111.45 33.15 112.15 32.55 112.0 32.55 111.6 32.35 110.95 32.0 110.95 30.05 110.95 28.55 110.15 27.6 109.4 26.6 108.35 26.6 105.75 26.6 103.9 29.9 101.95 33.15 101.95 37.6 M9.85 12.8 Q9.35 12.25 9.35 11.75 9.35 11.25 9.9 10.5 11.15 9.0 14.8 7.85 18.55 6.6 21.95 6.6 30.1 6.6 35.25 12.45 40.4 18.3 40.4 27.5 40.4 38.3 35.2 45.05 29.95 51.65 21.35 51.65 13.65 51.65 8.55 45.4 3.45 39.05 3.45 29.75 3.45 23.35 5.15 18.8 6.85 14.2 9.85 12.8 M14.8 17.35 Q12.0 21.9 12.0 29.15 12.0 35.95 14.3 40.4 17.2 46.05 22.25 46.05 26.75 46.05 29.5 41.5 32.3 36.9 32.3 29.45 32.3 21.95 29.5 17.35 26.75 12.8 22.25 12.8 17.65 12.8 14.8 17.35" fill="#ab0709" fill-rule="evenodd" stroke="none"/>
    <path d="M382.65 21.9 Q382.65 23.5 381.5 24.8 380.3 26.15 378.4 26.7 378.35 25.65 377.4 24.85 376.55 24.05 375.25 24.05 373.15 24.05 371.45 26.85 368.2 31.9 368.2 36.45 368.2 38.75 368.85 40.85 369.5 43.0 370.35 43.45 368.25 46.9 364.6 46.9 359.9 46.9 359.9 40.85 L360.4 33.2 360.65 28.4 Q360.65 21.1 359.4 18.85 L359.75 18.65 361.55 17.35 Q364.75 15.1 366.9 15.1 368.9 15.1 368.9 17.3 L368.7 22.05 Q370.4 19.65 372.8 18.15 375.25 16.55 377.25 16.55 379.55 16.55 381.15 18.1 382.65 19.6 382.65 21.9 M349.85 41.95 Q346.0 46.75 340.1 46.75 336.1 46.75 332.6 43.85 L331.75 43.95 Q329.75 43.95 328.6 42.5 327.35 41.0 327.0 36.95 326.7 33.05 326.7 28.25 326.7 20.75 327.1 15.2 L327.5 9.7 327.5 8.65 Q327.5 6.7 327.1 5.7 328.25 5.45 330.6 3.8 333.25 2.0 334.95 2.0 337.1 2.0 337.1 4.1 L336.95 5.3 335.8 9.7 Q334.55 14.6 334.55 20.4 338.1 15.2 343.55 15.2 348.25 15.2 350.9 19.0 353.55 22.9 353.55 29.55 353.55 37.1 349.85 41.95 M293.65 18.35 Q299.8 18.35 299.8 26.5 L299.65 31.6 299.65 35.25 Q299.65 37.25 299.8 38.55 300.2 41.15 302.6 41.15 304.6 41.15 306.05 39.7 L306.15 40.2 Q306.15 42.95 303.9 44.95 301.65 46.9 298.5 46.9 291.15 46.9 291.15 36.5 L291.5 28.6 Q291.5 26.6 290.3 26.6 289.15 26.6 287.85 28.15 285.8 30.55 284.95 33.55 L284.25 37.55 Q283.9 39.9 283.9 40.55 L283.95 42.3 Q283.95 43.8 282.85 44.4 L280.5 45.4 Q278.35 46.2 277.45 46.2 275.65 46.2 275.65 44.15 L275.9 40.7 Q276.45 34.7 276.45 31.6 276.45 27.75 274.9 27.75 273.6 27.75 272.0 29.95 267.6 35.95 267.6 41.3 L267.75 42.35 267.8 43.5 Q267.8 44.25 266.95 45.05 264.85 47.1 263.0 47.1 261.35 47.1 260.35 45.3 259.25 43.6 259.25 40.85 L259.4 36.4 259.7 29.15 Q259.7 23.65 259.2 20.65 L258.3 18.45 258.7 18.35 261.4 16.65 Q263.8 14.9 265.95 14.9 268.25 14.9 268.25 17.55 L267.9 21.3 Q267.4 25.05 267.4 27.3 L267.4 27.6 Q272.6 19.35 278.05 19.35 282.15 19.35 283.4 25.3 L283.45 25.65 Q284.55 23.55 287.6 20.6 289.95 18.35 293.65 18.35 M312.75 46.2 Q311.45 45.25 311.45 43.6 311.45 41.55 313.7 40.05 315.9 38.45 318.8 38.45 320.9 38.45 322.2 39.5 323.5 40.5 323.5 42.05 323.5 44.25 321.4 45.75 319.25 47.2 316.15 47.2 314.0 47.2 312.75 46.2 M334.55 34.95 L334.7 37.8 Q336.95 40.9 339.45 40.9 341.9 40.9 343.65 37.8 345.35 34.8 345.35 30.55 345.35 26.6 344.3 24.25 343.15 21.9 341.35 21.9 338.3 21.9 336.1 26.65 334.55 29.95 334.55 34.95 M229.45 18.65 Q230.6 17.35 233.1 16.4 235.7 15.5 237.95 15.5 244.05 15.5 248.0 20.1 252.0 24.7 252.0 31.75 252.0 38.85 248.3 43.1 244.55 47.35 238.45 47.35 232.35 47.35 228.45 43.1 224.5 38.75 224.5 32.05 224.5 28.25 226.05 24.8 227.7 21.4 230.0 20.25 L229.45 18.65 M234.65 38.2 Q236.35 41.05 239.15 41.05 244.3 41.05 244.3 33.0 244.3 28.55 242.5 25.45 240.7 22.35 238.1 22.35 235.7 22.35 234.25 24.65 232.85 26.85 232.85 30.6 232.85 35.3 234.65 38.2 M211.75 15.35 Q215.5 15.35 217.95 17.35 220.45 19.35 220.45 22.4 220.45 24.5 219.15 25.85 217.95 27.3 216.05 27.3 L214.7 27.1 214.75 26.6 Q214.75 24.9 213.75 23.7 212.6 22.45 211.15 22.45 208.8 22.45 207.15 25.2 205.55 27.95 205.55 32.05 205.55 36.25 207.25 38.6 209.0 41.0 211.95 41.0 214.45 41.0 217.0 39.6 219.5 38.1 220.5 36.1 221.55 37.05 221.55 38.7 221.55 42.3 218.45 44.8 215.25 47.25 210.6 47.25 204.45 47.25 201.0 43.35 197.55 39.55 197.55 32.7 197.55 25.45 201.65 20.4 205.85 15.35 211.75 15.35 M177.9 21.2 Q177.9 22.25 176.45 24.0 L175.25 25.3 Q174.15 23.5 171.85 22.35 169.55 21.2 167.25 21.2 163.8 21.2 163.8 23.55 163.8 24.15 164.15 24.55 164.95 25.65 171.2 29.25 174.75 31.4 176.25 33.15 178.2 35.5 178.2 38.45 178.2 42.7 175.1 45.25 172.0 47.75 166.8 47.75 161.05 47.75 155.8 44.6 L153.5 43.3 153.25 43.2 155.45 41.0 Q156.8 39.5 158.45 39.5 L159.8 39.75 161.9 40.7 Q163.95 41.55 166.1 41.55 167.55 41.55 168.45 40.85 169.35 40.05 169.35 38.9 169.35 37.6 167.9 36.4 L165.2 34.65 160.75 31.9 Q155.2 28.55 155.2 24.0 155.2 20.45 158.55 18.15 161.75 15.75 166.8 15.75 171.65 15.75 174.75 17.35 177.9 18.85 177.9 21.2 M193.95 39.5 Q195.25 40.5 195.25 42.05 195.25 44.25 193.15 45.75 191.0 47.2 187.9 47.2 185.75 47.2 184.5 46.2 183.2 45.25 183.2 43.6 183.2 41.55 185.45 40.05 187.7 38.45 190.55 38.45 192.65 38.45 193.95 39.5 M115.05 20.55 Q116.35 22.9 116.35 24.65 L115.7 26.6 116.0 26.6 117.2 26.5 Q118.5 26.5 118.5 27.65 L117.85 30.4 117.25 33.05 Q116.9 36.25 116.9 40.5 L116.9 41.3 116.9 44.25 117.0 46.3 117.0 48.1 116.75 53.55 Q116.25 56.55 114.7 58.5 112.4 61.15 107.55 61.15 102.35 61.15 99.25 57.8 L97.75 56.1 97.35 55.85 99.9 54.3 Q101.3 53.6 102.3 53.6 L104.9 54.2 106.45 54.55 Q109.65 54.55 109.65 48.55 L109.65 46.75 109.65 44.65 109.65 44.1 Q106.35 46.75 102.45 46.75 98.35 46.75 95.65 43.1 92.95 39.35 92.95 33.8 92.95 26.45 97.35 20.95 101.6 15.5 107.35 15.5 110.2 15.5 112.1 16.9 113.75 18.1 115.05 20.55 M137.0 15.5 Q143.1 15.5 147.1 20.1 151.05 24.7 151.05 31.75 151.05 38.85 147.35 43.1 143.6 47.35 137.5 47.35 131.4 47.35 127.5 43.1 123.55 38.75 123.55 32.05 123.55 28.25 125.1 24.8 126.8 21.4 129.1 20.25 L128.5 18.65 Q129.65 17.35 132.2 16.4 134.75 15.5 137.0 15.5 M133.35 24.65 Q131.9 26.85 131.9 30.6 131.9 35.3 133.7 38.2 135.4 41.05 138.2 41.05 143.35 41.05 143.35 33.0 143.35 28.55 141.55 25.45 139.75 22.35 137.15 22.35 134.75 22.35 133.35 24.65 M73.7 15.5 Q79.85 15.5 83.8 20.1 87.75 24.7 87.75 31.75 87.75 38.85 84.1 43.1 80.35 47.35 74.2 47.35 68.1 47.35 64.2 43.1 60.25 38.75 60.25 32.05 60.25 28.25 61.85 24.8 63.5 21.4 65.8 20.25 L65.2 18.65 Q66.35 17.35 68.9 16.4 71.5 15.5 73.7 15.5 M70.4 38.2 Q72.15 41.05 74.95 41.05 80.05 41.05 80.05 33.0 80.05 28.55 78.25 25.45 76.45 22.35 73.85 22.35 71.5 22.35 70.05 24.65 68.6 26.85 68.6 30.6 68.6 35.3 70.4 38.2 M53.9 36.45 L54.05 50.15 Q54.05 55.85 52.05 58.2 49.6 61.1 44.1 61.1 39.5 61.1 35.65 57.8 L34.2 56.7 33.9 56.4 34.35 56.25 36.35 54.85 Q37.85 53.75 38.85 53.75 L40.4 54.05 41.3 54.6 43.35 55.05 Q44.85 55.05 45.5 53.75 46.35 52.25 46.35 45.1 46.35 37.55 46.0 30.7 45.65 24.0 44.25 20.95 L44.85 20.8 48.3 18.95 Q50.9 17.5 52.4 17.5 54.5 17.5 54.5 20.15 L54.25 23.2 54.15 27.95 53.9 36.45 M110.7 28.25 L110.15 28.0 Q109.5 27.65 109.5 25.7 109.5 24.2 108.7 23.25 108.0 22.25 106.9 22.25 104.3 22.25 102.45 25.55 100.5 28.8 100.5 33.3 100.5 40.2 104.6 40.2 108.65 40.2 109.65 32.15 110.0 28.8 110.7 28.25 M51.6 4.4 Q55.7 4.4 55.7 7.85 55.7 10.15 53.25 11.95 50.75 13.9 47.65 13.9 45.9 13.9 44.9 13.05 43.85 12.15 43.85 10.8 L43.85 10.6 Q43.85 8.05 47.35 5.75 49.5 4.4 51.6 4.4 M8.4 8.5 Q7.9 7.9 7.9 7.4 7.9 6.9 8.5 6.2 9.7 4.65 13.4 3.5 17.1 2.3 20.5 2.3 28.65 2.3 33.85 8.15 38.95 13.95 38.95 23.2 38.95 34.0 33.75 40.7 28.5 47.35 19.95 47.35 12.25 47.35 7.1 41.05 2.0 34.7 2.0 25.45 2.0 19.0 3.75 14.45 5.4 9.85 8.4 8.5 M13.4 13.05 Q10.55 17.55 10.55 24.85 10.55 31.6 12.85 36.1 15.75 41.7 20.8 41.7 25.35 41.7 28.05 37.15 30.85 32.55 30.85 25.15 30.85 17.65 28.05 13.05 25.35 8.5 20.8 8.5 16.2 8.5 13.4 13.05" fill="url(#gradient0)" fill-rule="evenodd" stroke="none"/>
    <path d="M382.65 21.9 Q382.65 23.5 381.5 24.8 380.3 26.15 378.4 26.7 378.35 25.65 377.4 24.85 376.55 24.05 375.25 24.05 373.15 24.05 371.45 26.85 368.2 31.9 368.2 36.45 368.2 38.75 368.85 40.85 369.5 43.0 370.35 43.45 368.25 46.9 364.6 46.9 359.9 46.9 359.9 40.85 L360.4 33.2 360.65 28.4 Q360.65 21.1 359.4 18.85 L359.75 18.65 361.55 17.35 Q364.75 15.1 366.9 15.1 368.9 15.1 368.9 17.3 L368.7 22.05 Q370.4 19.65 372.8 18.15 375.25 16.55 377.25 16.55 379.55 16.55 381.15 18.1 382.65 19.6 382.65 21.9 M349.85 41.95 Q346.0 46.75 340.1 46.75 336.1 46.75 332.6 43.85 L331.75 43.95 Q329.75 43.95 328.6 42.5 327.35 41.0 327.0 36.95 326.7 33.05 326.7 28.25 326.7 20.75 327.1 15.2 L327.5 9.7 327.5 8.65 Q327.5 6.7 327.1 5.7 328.25 5.45 330.6 3.8 333.25 2.0 334.95 2.0 337.1 2.0 337.1 4.1 L336.95 5.3 335.8 9.7 Q334.55 14.6 334.55 20.4 338.1 15.2 343.55 15.2 348.25 15.2 350.9 19.0 353.55 22.9 353.55 29.55 353.55 37.1 349.85 41.95 M293.65 18.35 Q299.8 18.35 299.8 26.5 L299.65 31.6 299.65 35.25 Q299.65 37.25 299.8 38.55 300.2 41.15 302.6 41.15 304.6 41.15 306.05 39.7 L306.15 40.2 Q306.15 42.95 303.9 44.95 301.65 46.9 298.5 46.9 291.15 46.9 291.15 36.5 L291.5 28.6 Q291.5 26.6 290.3 26.6 289.15 26.6 287.85 28.15 285.8 30.55 284.95 33.55 L284.25 37.55 Q283.9 39.9 283.9 40.55 L283.95 42.3 Q283.95 43.8 282.85 44.4 L280.5 45.4 Q278.35 46.2 277.45 46.2 275.65 46.2 275.65 44.15 L275.9 40.7 Q276.45 34.7 276.45 31.6 276.45 27.75 274.9 27.75 273.6 27.75 272.0 29.95 267.6 35.95 267.6 41.3 L267.75 42.35 267.8 43.5 Q267.8 44.25 266.95 45.05 264.85 47.1 263.0 47.1 261.35 47.1 260.35 45.3 259.25 43.6 259.25 40.85 L259.4 36.4 259.7 29.15 Q259.7 23.65 259.2 20.65 L258.3 18.45 258.7 18.35 261.4 16.65 Q263.8 14.9 265.95 14.9 268.25 14.9 268.25 17.55 L267.9 21.3 Q267.4 25.05 267.4 27.3 L267.4 27.6 Q272.6 19.35 278.05 19.35 282.15 19.35 283.4 25.3 L283.45 25.65 Q284.55 23.55 287.6 20.6 289.95 18.35 293.65 18.35 M312.75 46.2 Q311.45 45.25 311.45 43.6 311.45 41.55 313.7 40.05 315.9 38.45 318.8 38.45 320.9 38.45 322.2 39.5 323.5 40.5 323.5 42.05 323.5 44.25 321.4 45.75 319.25 47.2 316.15 47.2 314.0 47.2 312.75 46.2 M334.55 34.95 L334.7 37.8 Q336.95 40.9 339.45 40.9 341.9 40.9 343.65 37.8 345.35 34.8 345.35 30.55 345.35 26.6 344.3 24.25 343.15 21.9 341.35 21.9 338.3 21.9 336.1 26.65 334.55 29.95 334.55 34.95 M229.45 18.65 Q230.6 17.35 233.1 16.4 235.7 15.5 237.95 15.5 244.05 15.5 248.0 20.1 252.0 24.7 252.0 31.75 252.0 38.85 248.3 43.1 244.55 47.35 238.45 47.35 232.35 47.35 228.45 43.1 224.5 38.75 224.5 32.05 224.5 28.25 226.05 24.8 227.7 21.4 230.0 20.25 L229.45 18.65 M234.65 38.2 Q236.35 41.05 239.15 41.05 244.3 41.05 244.3 33.0 244.3 28.55 242.5 25.45 240.7 22.35 238.1 22.35 235.7 22.35 234.25 24.65 232.85 26.85 232.85 30.6 232.85 35.3 234.65 38.2 M211.75 15.35 Q215.5 15.35 217.95 17.35 220.45 19.35 220.45 22.4 220.45 24.5 219.15 25.85 217.95 27.3 216.05 27.3 L214.7 27.1 214.75 26.6 Q214.75 24.9 213.75 23.7 212.6 22.45 211.15 22.45 208.8 22.45 207.15 25.2 205.55 27.95 205.55 32.05 205.55 36.25 207.25 38.6 209.0 41.0 211.95 41.0 214.45 41.0 217.0 39.6 219.5 38.1 220.5 36.1 221.55 37.05 221.55 38.7 221.55 42.3 218.45 44.8 215.25 47.25 210.6 47.25 204.45 47.25 201.0 43.35 197.55 39.55 197.55 32.7 197.55 25.45 201.65 20.4 205.85 15.35 211.75 15.35 M177.9 21.2 Q177.9 22.25 176.45 24.0 L175.25 25.3 Q174.15 23.5 171.85 22.35 169.55 21.2 167.25 21.2 163.8 21.2 163.8 23.55 163.8 24.15 164.15 24.55 164.95 25.65 171.2 29.25 174.75 31.4 176.25 33.15 178.2 35.5 178.2 38.45 178.2 42.7 175.1 45.25 172.0 47.75 166.8 47.75 161.05 47.75 155.8 44.6 L153.5 43.3 153.25 43.2 155.45 41.0 Q156.8 39.5 158.45 39.5 L159.8 39.75 161.9 40.7 Q163.95 41.55 166.1 41.55 167.55 41.55 168.45 40.85 169.35 40.05 169.35 38.9 169.35 37.6 167.9 36.4 L165.2 34.65 160.75 31.9 Q155.2 28.55 155.2 24.0 155.2 20.45 158.55 18.15 161.75 15.75 166.8 15.75 171.65 15.75 174.75 17.35 177.9 18.85 177.9 21.2 M193.95 39.5 Q195.25 40.5 195.25 42.05 195.25 44.25 193.15 45.75 191.0 47.2 187.9 47.2 185.75 47.2 184.5 46.2 183.2 45.25 183.2 43.6 183.2 41.55 185.45 40.05 187.7 38.45 190.55 38.45 192.65 38.45 193.95 39.5 M115.05 20.55 Q116.35 22.9 116.35 24.65 L115.7 26.6 116.0 26.6 117.2 26.5 Q118.5 26.5 118.5 27.65 L117.85 30.4 117.25 33.05 Q116.9 36.25 116.9 40.5 L116.9 41.3 116.9 44.25 117.0 46.3 117.0 48.1 116.75 53.55 Q116.25 56.55 114.7 58.5 112.4 61.15 107.55 61.15 102.35 61.15 99.25 57.8 L97.75 56.1 97.35 55.85 99.9 54.3 Q101.3 53.6 102.3 53.6 L104.9 54.2 106.45 54.55 Q109.65 54.55 109.65 48.55 L109.65 46.75 109.65 44.65 109.65 44.1 Q106.35 46.75 102.45 46.75 98.35 46.75 95.65 43.1 92.95 39.35 92.95 33.8 92.95 26.45 97.35 20.95 101.6 15.5 107.35 15.5 110.2 15.5 112.1 16.9 113.75 18.1 115.05 20.55 M137.0 15.5 Q143.1 15.5 147.1 20.1 151.05 24.7 151.05 31.75 151.05 38.85 147.35 43.1 143.6 47.35 137.5 47.35 131.4 47.35 127.5 43.1 123.55 38.75 123.55 32.05 123.55 28.25 125.1 24.8 126.8 21.4 129.1 20.25 L128.5 18.65 Q129.65 17.35 132.2 16.4 134.75 15.5 137.0 15.5 M133.35 24.65 Q131.9 26.85 131.9 30.6 131.9 35.3 133.7 38.2 135.4 41.05 138.2 41.05 143.35 41.05 143.35 33.0 143.35 28.55 141.55 25.45 139.75 22.35 137.15 22.35 134.75 22.35 133.35 24.65 M73.7 15.5 Q79.85 15.5 83.8 20.1 87.75 24.7 87.75 31.75 87.75 38.85 84.1 43.1 80.35 47.35 74.2 47.35 68.1 47.35 64.2 43.1 60.25 38.75 60.25 32.05 60.25 28.25 61.85 24.8 63.5 21.4 65.8 20.25 L65.2 18.65 Q66.35 17.35 68.9 16.4 71.5 15.5 73.7 15.5 M70.4 38.2 Q72.15 41.05 74.95 41.05 80.05 41.05 80.05 33.0 80.05 28.55 78.25 25.45 76.45 22.35 73.85 22.35 71.5 22.35 70.05 24.65 68.6 26.85 68.6 30.6 68.6 35.3 70.4 38.2 M53.9 36.45 L54.05 50.15 Q54.05 55.85 52.05 58.2 49.6 61.1 44.1 61.1 39.5 61.1 35.65 57.8 L34.2 56.7 33.9 56.4 34.35 56.25 36.35 54.85 Q37.85 53.75 38.85 53.75 L40.4 54.05 41.3 54.6 43.35 55.05 Q44.85 55.05 45.5 53.75 46.35 52.25 46.35 45.1 46.35 37.55 46.0 30.7 45.65 24.0 44.25 20.95 L44.85 20.8 48.3 18.95 Q50.9 17.5 52.4 17.5 54.5 17.5 54.5 20.15 L54.25 23.2 54.15 27.95 53.9 36.45 M110.7 28.25 L110.15 28.0 Q109.5 27.65 109.5 25.7 109.5 24.2 108.7 23.25 108.0 22.25 106.9 22.25 104.3 22.25 102.45 25.55 100.5 28.8 100.5 33.3 100.5 40.2 104.6 40.2 108.65 40.2 109.65 32.15 110.0 28.8 110.7 28.25 M51.6 4.4 Q55.7 4.4 55.7 7.85 55.7 10.15 53.25 11.95 50.75 13.9 47.65 13.9 45.9 13.9 44.9 13.05 43.85 12.15 43.85 10.8 L43.85 10.6 Q43.85 8.05 47.35 5.75 49.5 4.4 51.6 4.4 M8.4 8.5 Q7.9 7.9 7.9 7.4 7.9 6.9 8.5 6.2 9.7 4.65 13.4 3.5 17.1 2.3 20.5 2.3 28.65 2.3 33.85 8.15 38.95 13.95 38.95 23.2 38.95 34.0 33.75 40.7 28.5 47.35 19.95 47.35 12.25 47.35 7.1 41.05 2.0 34.7 2.0 25.45 2.0 19.0 3.75 14.45 5.4 9.85 8.4 8.5 M13.4 13.05 Q10.55 17.55 10.55 24.85 10.55 31.6 12.85 36.1 15.75 41.7 20.8 41.7 25.35 41.7 28.05 37.15 30.85 32.55 30.85 25.15 30.85 17.65 28.05 13.05 25.35 8.5 20.8 8.5 16.2 8.5 13.4 13.05" fill="none" stroke="#ffffff" stroke-linecap="round" stroke-linejoin="round" stroke-width="1.0"/>
  </g>
  <defs>
    <linearGradient gradientTransform="matrix(0.0, -0.0285, 0.0275, 0.0, 20.45, 24.8)" gradientUnits="userSpaceOnUse" id="gradient0" spreadMethod="pad" x1="-819.2" x2="819.2">
      <stop offset="0.00392156862745098" stop-color="#e1e1e1"/>
      <stop offset="1.0" stop-color="#ffffff"/>
    </linearGradient>
  </defs>
</svg>
