<?xml version="1.0" encoding="UTF-8" standalone="no"?>
<svg xmlns:xlink="http://www.w3.org/1999/xlink" height="56.6px" width="33.05px" xmlns="http://www.w3.org/2000/svg">
  <g transform="matrix(1.0, 0.0, 0.0, 1.0, 1.0, 0.0)">
    <path d="M22.7 17.65 L22.65 17.65 22.7 18.05 22.7 17.65 M23.55 24.0 Q24.5 24.0 24.5 23.15 24.5 22.1 23.5 22.1 22.5 22.1 22.5 22.95 22.5 23.3 22.65 23.5 L22.75 23.6 22.8 23.7 23.55 24.0 22.8 23.7 22.75 23.6 22.65 23.5 Q22.5 23.3 22.5 22.95 22.5 22.1 23.5 22.1 24.5 22.1 24.5 23.15 24.5 24.0 23.55 24.0 M30.4 14.6 L30.4 37.75 Q30.45 39.25 30.15 40.55 L30.15 40.6 29.7 43.35 30.3 43.35 30.4 43.35 31.05 51.65 29.9 55.6 27.0 55.6 27.0 52.85 26.35 52.85 26.35 55.6 23.6 55.6 23.6 52.85 22.9 52.85 22.9 55.6 19.8 55.6 19.8 52.85 19.15 52.85 19.15 55.6 15.9 55.6 15.9 52.85 15.25 52.85 15.25 55.6 12.2 55.6 12.2 52.85 11.55 52.85 11.55 55.6 8.4 55.6 8.4 52.85 7.75 52.85 7.75 55.6 4.7 55.6 4.7 52.85 4.05 52.85 4.05 55.6 2.95 55.6 2.3 55.6 1.2 55.6 0.0 51.65 0.0 51.25 0.6 43.35 1.2 43.35 0.7 40.6 0.7 40.55 Q0.3 39.25 0.45 37.75 L0.45 14.6 4.1 1.05 26.7 1.0 30.4 14.6 M3.8 36.85 L3.4 36.85 3.75 36.85 3.8 36.85 M0.95 39.15 L0.9 39.2 0.95 39.4 0.95 39.15" fill="#000000" fill-rule="evenodd" stroke="none"/>
    <path d="M23.55 24.0 L22.8 23.7 22.75 23.6 22.65 23.5 Q22.5 23.3 22.5 22.95 22.5 22.1 23.5 22.1 24.5 22.1 24.5 23.15 24.5 24.0 23.55 24.0 M30.4 14.6 L30.4 37.75 Q30.45 39.25 30.15 40.55 L30.15 40.6 29.7 43.35 30.3 43.35 30.4 43.35 31.05 51.65 29.9 55.6 27.0 55.6 27.0 52.85 26.35 52.85 26.35 55.6 23.6 55.6 23.6 52.85 22.9 52.85 22.9 55.6 19.8 55.6 19.8 52.85 19.15 52.85 19.15 55.6 15.9 55.6 15.9 52.85 15.25 52.85 15.25 55.6 12.2 55.6 12.2 52.85 11.55 52.85 11.55 55.6 8.4 55.6 8.4 52.85 7.75 52.85 7.75 55.6 4.7 55.6 4.7 52.85 4.05 52.85 4.05 55.6 2.95 55.6 2.3 55.6 1.2 55.6 0.0 51.65 0.0 51.25 0.6 43.35 1.2 43.35 0.7 40.6 0.7 40.55 Q0.3 39.25 0.45 37.75 L0.45 14.6 4.1 1.05 26.7 1.0 30.4 14.6" fill="none" stroke="#000000" stroke-linecap="round" stroke-linejoin="round" stroke-width="2.0"/>
    <path d="M9.55 5.2 L8.8 5.2 5.6 5.15 5.55 5.35 5.5 5.8 3.2 16.05 2.8 17.65 2.85 24.4 2.85 24.85 2.85 26.2 1.4 26.2 1.5 14.7 5.2 2.9 25.45 2.9 28.8 14.55 29.35 26.2 27.8 26.2 27.8 23.45 27.8 17.65 27.4 15.95 25.1 5.35 24.85 5.35 21.5 5.3 20.65 5.3 19.75 5.3 10.4 5.2 9.55 5.2 M20.6 26.2 L21.55 26.2 21.3 30.2 Q20.95 30.6 20.95 31.15 20.95 31.75 21.4 32.15 21.9 32.65 22.55 32.65 23.2 32.65 23.6 32.25 L23.7 32.15 23.95 31.95 24.05 31.75 24.1 31.75 24.2 31.15 24.15 30.75 24.5 26.2 26.7 26.2 Q27.65 27.25 27.65 31.2 L27.4 33.95 27.1 35.5 3.7 35.5 3.4 34.85 Q3.15 34.1 3.15 33.1 L3.55 28.95 4.05 26.2 7.95 26.2 9.55 26.2 20.6 26.2" fill="#ffc354" fill-rule="evenodd" stroke="none"/>
    <path d="M24.85 5.35 L25.1 5.35 27.4 15.95 27.8 17.65 27.8 23.45 25.15 17.15 24.85 5.35 M2.85 24.4 L2.8 17.65 3.2 16.05 5.5 5.8 5.15 17.5 2.85 24.4" fill="#f39d00" fill-rule="evenodd" stroke="none"/>
    <path d="M8.8 5.2 Q7.7 7.5 8.4 10.5 L7.85 16.35 5.15 17.5 5.5 5.8 5.55 5.35 5.6 5.15 8.8 5.2 M22.55 16.1 L22.0 10.5 Q22.7 8.05 21.5 5.3 L24.85 5.35 25.15 17.15 22.55 16.1" fill="#d48900" fill-rule="evenodd" stroke="none"/>
    <path d="M9.55 5.2 L9.25 6.0 8.95 7.45 Q8.95 8.75 10.25 9.15 L12.95 9.35 18.0 9.25 Q21.0 8.85 21.0 7.15 L20.85 6.05 20.65 5.3 21.5 5.3 Q22.7 8.05 22.0 10.5 L22.55 16.1 22.65 17.65 22.6 17.65 21.2 17.65 20.95 17.55 21.4 16.8 21.55 15.25 Q21.55 12.3 20.5 11.55 L19.65 11.55 11.15 11.55 10.1 11.55 Q9.3 11.95 9.0 12.95 L8.8 15.55 Q8.8 16.8 9.1 17.1 L9.9 17.65 9.85 17.65 7.75 17.65 7.85 16.35 8.4 10.5 Q7.7 7.5 8.8 5.2 L9.55 5.2" fill="#91016e" fill-rule="evenodd" stroke="none"/>
    <path d="M20.65 5.3 L20.85 6.05 21.0 7.15 Q21.0 8.85 18.0 9.25 L12.95 9.35 10.25 9.15 Q8.95 8.75 8.95 7.45 L9.25 6.0 9.55 5.2 10.4 5.2 10.2 5.35 Q9.95 5.6 9.95 6.0 9.95 7.05 12.05 7.35 L15.3 7.45 18.25 7.3 Q19.85 6.9 19.85 5.5 L19.75 5.3 20.65 5.3 M7.75 17.65 L9.85 17.65 9.15 17.95 Q8.7 18.3 8.7 19.15 L9.1 23.05 9.55 26.2 7.95 26.2 7.75 17.65 M9.9 17.65 L9.1 17.1 Q8.8 16.8 8.8 15.55 L9.0 12.95 Q9.3 11.95 10.1 11.55 L11.15 11.55 Q10.5 12.05 10.2 13.15 9.9 14.1 9.9 15.05 9.9 16.6 12.6 16.75 L15.25 16.8 19.35 16.5 Q20.95 16.1 20.95 14.1 20.95 13.3 20.15 12.2 L19.65 11.55 20.5 11.55 Q21.55 12.3 21.55 15.25 L21.4 16.8 20.95 17.55 21.2 17.65 22.6 17.65 22.7 18.05 22.7 21.7 22.2 22.0 22.0 22.3 21.85 22.55 21.7 23.1 21.8 23.45 21.55 26.2 20.6 26.2 21.3 23.5 Q21.8 21.65 21.8 20.2 21.8 18.15 21.2 17.65 L20.85 17.65 20.6 17.65 20.4 17.65 10.75 17.65 10.2 17.65 9.95 17.65 9.9 17.65" fill="#a60c81" fill-rule="evenodd" stroke="none"/>
    <path d="M9.85 17.65 L9.9 17.65 9.95 17.65 10.2 17.65 10.75 17.65 20.4 17.65 20.6 17.65 20.85 17.65 21.2 17.65 Q21.8 18.15 21.8 20.2 21.8 21.65 21.3 23.5 L20.6 26.2 9.55 26.2 9.1 23.05 8.7 19.15 Q8.7 18.3 9.15 17.95 L9.85 17.65 M11.15 11.55 L19.65 11.55 20.15 12.2 Q20.95 13.3 20.95 14.1 20.95 16.1 19.35 16.5 L15.25 16.8 12.6 16.75 Q9.9 16.6 9.9 15.05 9.9 14.1 10.2 13.15 10.5 12.05 11.15 11.55 M19.75 5.3 L19.85 5.5 Q19.85 6.9 18.25 7.3 L15.3 7.45 12.05 7.35 Q9.95 7.05 9.95 6.0 9.95 5.6 10.2 5.35 L10.4 5.2 19.75 5.3" fill="#c1249c" fill-rule="evenodd" stroke="none"/>
    <path d="M7.85 16.35 L7.75 17.65 7.95 26.2 4.05 26.2 2.85 26.2 2.85 24.85 2.85 24.4 5.15 17.5 7.85 16.35 M22.6 17.65 L22.65 17.65 22.55 16.1 25.15 17.15 27.8 23.45 27.8 26.2 26.7 26.2 24.5 26.2 24.6 25.35 24.75 23.95 25.0 23.1 25.0 22.9 Q24.9 22.4 24.45 22.0 24.0 21.55 23.35 21.55 L22.7 21.7 22.7 18.05 22.6 17.65" fill="#72460f" fill-rule="evenodd" stroke="none"/>
    <path d="M29.35 26.2 L28.8 14.55 25.45 2.9 5.2 2.9 1.5 14.7 1.4 26.2 0.9 26.2 0.45 26.2 0.45 14.6 4.1 1.05 26.7 1.0 30.4 14.6 30.4 26.2 29.65 26.2 29.35 26.2 M21.8 23.45 L21.7 23.1 21.85 22.55 22.0 22.3 22.2 22.0 22.7 21.7 23.35 21.55 Q24.0 21.55 24.45 22.0 24.9 22.4 25.0 22.9 L25.0 23.1 24.75 23.95 24.45 24.15 Q24.0 24.65 23.35 24.65 L22.9 24.6 22.7 24.5 22.2 24.15 21.8 23.45 M22.65 23.5 L22.75 23.6 22.8 23.7 23.55 24.0 Q24.5 24.0 24.5 23.15 24.5 22.1 23.5 22.1 22.5 22.1 22.5 22.95 22.5 23.3 22.65 23.5" fill="#fbe9a6" fill-rule="evenodd" stroke="none"/>
    <path d="M21.55 26.2 L21.8 23.45 22.2 24.15 22.7 24.5 22.9 24.6 22.65 25.95 22.4 27.7 22.0 31.8 Q22.0 32.15 22.9 32.15 L23.6 32.25 Q23.2 32.65 22.55 32.65 21.9 32.65 21.4 32.15 20.95 31.75 20.95 31.15 20.95 30.6 21.3 30.2 L21.55 26.2 M0.45 26.2 L0.9 26.2 0.75 27.25 1.25 31.5 Q1.7 34.55 2.05 35.65 1.35 35.7 0.9 36.45 L0.45 37.75 0.45 26.2 M30.4 37.75 L30.0 36.55 Q29.75 35.8 28.75 35.65 L28.45 35.65 29.4 31.6 29.65 26.8 29.65 26.2 30.4 26.2 30.4 37.75" fill="#e09100" fill-rule="evenodd" stroke="none"/>
    <path d="M22.65 23.5 Q22.5 23.3 22.5 22.95 22.5 22.1 23.5 22.1 24.5 22.1 24.5 23.15 24.5 24.0 23.55 24.0 L22.8 23.7 22.75 23.6 22.65 23.5" fill="#b17300" fill-rule="evenodd" stroke="none"/>
    <path d="M27.8 26.2 L29.35 26.2 29.65 26.2 29.65 26.8 29.4 31.6 28.45 35.65 27.05 35.65 27.1 35.5 27.4 33.95 27.65 31.2 Q27.65 27.25 26.7 26.2 L27.8 26.2 M1.4 26.2 L2.85 26.2 4.05 26.2 3.55 28.95 3.15 33.1 Q3.15 34.1 3.4 34.85 L3.7 35.5 3.8 35.65 2.45 35.65 2.15 35.65 2.05 35.65 Q1.7 34.55 1.25 31.5 L0.75 27.25 0.9 26.2 1.4 26.2 M24.75 23.95 L24.6 25.35 24.3 25.5 Q23.85 26.0 23.2 26.0 L22.65 25.95 22.9 24.6 23.35 24.65 Q24.0 24.65 24.45 24.15 L24.75 23.95" fill="#ffb01e" fill-rule="evenodd" stroke="none"/>
    <path d="M3.8 36.85 L6.2 36.7 10.6 36.45 16.75 36.6 19.2 36.45 20.55 36.35 22.35 36.35 24.9 36.45 26.6 36.75 27.2 36.85 27.25 37.2 Q27.25 38.6 23.5 39.05 L16.4 39.3 8.15 39.1 Q2.55 38.75 2.55 38.0 2.55 37.3 3.4 36.85 L3.75 36.85 3.8 36.85" fill="#ffeed0" fill-rule="evenodd" stroke="none"/>
    <path d="M27.2 36.85 L26.6 36.75 24.9 36.45 22.35 36.35 20.55 36.35 19.2 36.45 16.75 36.6 10.6 36.45 6.2 36.7 3.8 36.85 3.4 36.85 Q2.35 36.95 1.6 37.7 L0.95 38.8 0.95 39.15 0.9 39.2 0.95 39.4 Q1.55 40.2 2.4 40.0 L4.3 40.2 5.85 40.35 7.35 40.3 9.0 40.25 10.4 40.1 14.2 40.05 18.2 40.2 19.8 40.25 21.7 40.35 22.9 40.35 24.45 40.35 26.3 40.25 28.2 39.9 29.25 39.35 29.4 38.55 29.4 38.05 Q28.65 37.25 27.45 36.9 L27.2 36.85 M2.05 35.65 L2.15 35.65 2.45 35.65 3.8 35.65 3.7 35.5 27.1 35.5 27.05 35.65 28.45 35.65 28.75 35.65 Q29.75 35.8 30.0 36.55 L30.4 37.75 Q30.45 39.25 30.15 40.55 L30.15 40.6 Q29.6 41.4 28.55 41.3 L2.45 41.3 Q1.1 41.25 0.7 40.6 L0.7 40.55 Q0.3 39.25 0.45 37.75 L0.9 36.45 Q1.35 35.7 2.05 35.65" fill="#ffc864" fill-rule="evenodd" stroke="none"/>
    <path d="M3.4 36.85 Q2.55 37.3 2.55 38.0 2.55 38.75 8.15 39.1 L16.4 39.3 23.5 39.05 Q27.25 38.6 27.25 37.2 L27.2 36.85 27.45 36.9 Q28.65 37.25 29.4 38.05 L29.4 38.55 29.25 39.35 28.2 39.9 26.3 40.25 24.45 40.35 22.9 40.35 21.7 40.35 19.8 40.25 18.2 40.2 14.2 40.05 10.4 40.1 9.0 40.25 7.35 40.3 5.85 40.35 4.3 40.2 2.4 40.0 Q1.55 40.2 0.95 39.4 L0.95 39.15 0.95 38.8 1.6 37.7 Q2.35 36.95 3.4 36.85" fill="#ffd893" fill-rule="evenodd" stroke="none"/>
    <path d="M0.7 40.6 Q1.1 41.25 2.45 41.3 L28.55 41.3 Q29.6 41.4 30.15 40.6 L29.7 43.35 29.65 43.35 1.2 43.35 0.7 40.6" fill="#bf7c00" fill-rule="evenodd" stroke="none"/>
    <path d="M29.8 44.85 L29.75 44.35 1.15 44.35 1.15 44.75 0.75 51.65 1.6 54.5 4.05 54.5 4.05 55.6 2.95 55.6 2.3 55.6 1.2 55.6 0.0 51.65 0.0 51.25 0.6 43.35 1.2 43.35 29.65 43.35 29.7 43.35 30.3 43.35 30.4 43.35 31.05 51.65 29.9 55.6 27.0 55.6 27.0 54.5 29.35 54.5 30.25 51.65 30.3 51.65 29.8 44.85 M26.35 54.5 L26.35 55.6 23.6 55.6 23.6 54.5 26.35 54.5 M22.9 54.5 L22.9 55.6 19.8 55.6 19.8 54.5 22.9 54.5 M19.15 54.5 L19.15 55.6 15.9 55.6 15.9 54.5 19.15 54.5 M15.25 54.5 L15.25 55.6 12.2 55.6 12.2 54.5 15.25 54.5 M11.55 54.5 L11.55 55.6 8.4 55.6 8.4 54.5 11.55 54.5 M7.75 54.5 L7.75 55.6 4.7 55.6 4.7 54.5 7.75 54.5" fill="#ddf755" fill-rule="evenodd" stroke="none"/>
    <path d="M1.15 44.75 L1.15 44.35 29.75 44.35 29.8 44.85 29.45 48.45 29.4 48.5 1.55 48.5 1.5 48.5 1.15 44.75" fill="#b6b406" fill-rule="evenodd" stroke="none"/>
    <path d="M1.15 44.75 L1.5 48.5 1.55 48.5 0.8 51.65 0.75 51.65 1.15 44.75 M29.4 48.5 L29.45 48.45 29.8 44.85 30.3 51.65 29.4 48.5" fill="#8c8c0b" fill-rule="evenodd" stroke="none"/>
    <path d="M24.6 25.35 L24.5 26.2 24.15 30.75 24.2 31.15 24.1 31.75 24.05 31.75 23.95 31.95 23.7 32.15 23.6 32.25 22.9 32.15 Q22.0 32.15 22.0 31.8 L22.4 27.7 22.65 25.95 23.2 26.0 Q23.85 26.0 24.3 25.5 L24.6 25.35" fill="#ffc966" fill-rule="evenodd" stroke="none"/>
    <path d="M1.55 48.5 L29.4 48.5 30.3 51.65 30.25 51.65 0.8 51.65 1.55 48.5" fill="#9f9d04" fill-rule="evenodd" stroke="none"/>
    <path d="M30.25 51.65 L29.35 54.5 27.0 54.5 27.0 52.85 26.35 52.85 26.35 54.5 23.6 54.5 23.6 52.85 22.9 52.85 22.9 54.5 19.8 54.5 19.8 52.85 19.15 52.85 19.15 54.5 15.9 54.5 15.9 52.85 15.25 52.85 15.25 54.5 12.2 54.5 12.2 52.85 11.55 52.85 11.55 54.5 8.4 54.5 8.4 52.85 7.75 52.85 7.75 54.5 4.7 54.5 4.7 52.85 4.05 52.85 4.05 54.5 1.6 54.5 0.75 51.65 0.8 51.65 30.25 51.65" fill="#c2c21a" fill-rule="evenodd" stroke="none"/>
  </g>
</svg>
