<?xml version="1.0" encoding="UTF-8" standalone="no"?>
<svg xmlns:xlink="http://www.w3.org/1999/xlink" height="47.05px" width="59.5px" xmlns="http://www.w3.org/2000/svg">
  <g transform="matrix(1.0, 0.0, 0.0, 1.0, 1.0, 1.0)">
    <path d="M51.45 0.0 L52.7 0.35 53.25 0.45 55.6 6.15 54.35 26.35 54.5 26.45 Q57.5 29.5 57.5 33.8 57.5 38.1 54.5 41.15 51.4 44.2 47.1 44.2 42.8 44.2 39.8 41.15 L38.75 39.95 Q37.85 38.8 37.35 37.4 L36.9 35.85 28.75 35.85 29.0 37.7 Q29.0 40.75 26.85 42.9 24.7 45.05 21.65 45.05 18.6 45.05 16.45 42.9 L15.7 42.05 14.7 40.25 14.4 39.15 14.3 37.7 14.3 37.15 14.45 36.2 14.5 35.8 14.7 35.2 14.95 34.6 Q15.4 33.65 16.15 32.8 L15.85 30.35 15.7 30.35 15.55 28.85 14.8 28.95 14.65 28.4 14.05 28.65 14.0 30.75 13.95 31.6 13.85 35.5 13.75 39.4 13.7 41.85 Q13.5 43.1 12.3 43.45 L12.15 43.6 7.45 43.6 5.1 43.6 0.0 43.6 2.15 41.85 2.25 41.85 5.45 41.85 12.55 31.3 12.5 27.4 14.2 26.65 14.05 25.85 15.2 25.75 14.3 17.05 14.3 16.95 14.35 16.45 Q14.75 12.8 18.25 12.85 L23.25 13.2 24.35 5.6 23.7 3.7 25.15 2.7 26.15 5.3 25.1 13.35 32.0 14.0 32.2 14.25 36.6 19.6 48.95 19.8 48.95 18.5 48.95 18.3 Q49.15 15.3 50.4 12.5 L50.5 12.45 50.45 12.4 50.8 11.75 50.7 11.5 50.4 10.55 50.35 10.5 50.2 9.1 50.35 9.05 50.2 8.95 50.3 7.8 Q50.4 6.95 50.65 6.0 L52.4 5.7 51.45 0.0 M51.3 33.75 Q51.3 32.35 50.5 31.3 L50.1 30.85 50.05 30.8 49.5 30.35 49.45 30.3 48.25 32.55 48.35 32.65 48.45 32.8 48.8 33.8 48.8 33.95 51.25 34.3 51.3 33.75 M47.15 29.65 Q45.9 29.65 44.95 30.25 L46.3 32.35 47.15 32.15 47.65 32.25 48.2 29.8 47.15 29.65 M45.5 33.8 L45.5 33.7 45.5 33.45 45.6 33.25 45.65 33.1 45.95 32.65 46.0 32.6 43.95 31.1 43.35 32.05 43.25 32.35 43.05 32.9 43.0 33.45 43.0 33.75 43.0 34.3 45.5 33.9 45.5 33.8 M43.8 36.25 L44.2 36.7 45.6 37.7 46.5 35.4 45.95 35.0 45.8 34.8 45.6 34.45 43.3 35.4 43.8 36.25 M19.4 35.8 L18.95 36.45 18.9 36.65 18.75 37.05 18.75 37.45 18.75 37.65 18.75 38.05 20.5 37.75 20.5 37.65 20.5 37.45 20.55 37.3 20.6 37.2 20.8 36.9 20.85 36.85 19.4 35.8 M47.2 35.5 L47.1 35.5 46.9 37.95 47.15 37.95 47.3 37.95 Q48.9 37.9 50.1 36.7 L50.9 35.6 48.65 34.5 48.35 35.0 48.3 35.05 Q47.85 35.5 47.2 35.5 M19.6 39.75 Q20.05 40.2 20.55 40.45 L21.2 38.85 20.8 38.55 20.7 38.4 20.55 38.15 18.95 38.85 19.3 39.45 19.6 39.75 M22.5 36.9 L22.6 37.0 22.85 37.7 22.85 37.8 24.55 38.05 24.6 37.65 Q24.6 36.65 24.05 35.95 L23.75 35.6 23.7 35.55 23.35 35.25 23.3 35.2 22.45 36.8 22.5 36.9 M23.75 39.75 L24.3 38.95 22.75 38.2 22.5 38.55 22.5 38.6 21.7 38.9 21.65 38.9 21.5 40.65 21.65 40.65 21.75 40.65 Q22.9 40.6 23.75 39.75 M21.65 36.55 L22.0 36.6 22.4 34.85 21.65 34.75 Q20.8 34.75 20.1 35.2 L21.05 36.65 21.65 36.55" fill="#000000" fill-rule="evenodd" stroke="none"/>
    <path d="M51.45 0.0 L52.4 5.7 50.65 6.0 Q50.4 6.95 50.3 7.8 L50.2 8.95 50.35 9.05 50.2 9.1 50.35 10.5 50.4 10.55 50.7 11.5 50.8 11.75 50.45 12.4 50.5 12.45 50.4 12.5 Q49.15 15.3 48.95 18.3 L48.95 18.5 48.95 19.8 36.6 19.6 32.2 14.25 32.0 14.0 25.1 13.35 26.15 5.3 25.15 2.7 23.7 3.7 24.35 5.6 23.25 13.2 18.25 12.85 Q14.75 12.8 14.35 16.45 L14.3 16.95 14.3 17.05 15.2 25.75 14.05 25.85 14.2 26.65 12.5 27.4 12.55 31.3 5.45 41.85 2.25 41.85 2.15 41.85 0.0 43.6 5.1 43.6 7.45 43.6 12.15 43.6 12.3 43.45 Q13.5 43.1 13.7 41.85 L13.75 39.4 13.85 35.5 13.95 31.6 14.0 30.75 14.05 28.65 14.65 28.4 14.8 28.95 15.55 28.85 15.7 30.35 15.85 30.35 16.15 32.8 Q15.4 33.65 14.95 34.6 L14.7 35.2 14.5 35.8 14.45 36.2 14.3 37.15 14.3 37.7 14.4 39.15 14.7 40.25 15.7 42.05 16.45 42.9 Q18.6 45.05 21.65 45.05 24.7 45.05 26.85 42.9 29.0 40.75 29.0 37.7 L28.75 35.85 36.9 35.85 37.35 37.4 Q37.85 38.8 38.75 39.95 L39.8 41.15 Q42.8 44.2 47.1 44.2 51.4 44.2 54.5 41.15 57.5 38.1 57.5 33.8 57.5 29.5 54.5 26.45 L54.35 26.35 55.6 6.15 53.25 0.45 52.7 0.35 51.45 0.0" fill="none" stroke="#000000" stroke-linecap="round" stroke-linejoin="round" stroke-width="2.0"/>
    <path d="M51.3 33.75 Q51.3 32.35 50.5 31.3 L50.1 30.85 50.05 30.8 49.5 30.35 49.45 30.3 48.25 32.55 48.35 32.65 48.45 32.8 48.8 33.8 48.8 33.95 51.25 34.3 51.3 33.75 M47.15 29.65 Q45.9 29.65 44.95 30.25 L46.3 32.35 47.15 32.15 47.65 32.25 48.2 29.8 47.15 29.65 M45.5 33.8 L45.5 33.7 45.5 33.45 45.6 33.25 45.65 33.1 45.95 32.65 46.0 32.6 43.95 31.1 43.35 32.05 43.25 32.35 43.05 32.9 43.0 33.45 43.0 33.75 43.0 34.3 45.5 33.9 45.5 33.8 M43.8 36.25 L44.2 36.7 45.6 37.7 46.5 35.4 45.95 35.0 45.8 34.8 45.6 34.45 43.3 35.4 43.8 36.25 M47.2 35.5 Q47.85 35.5 48.3 35.05 L48.35 35.0 48.65 34.5 50.9 35.6 50.1 36.7 Q48.9 37.9 47.3 37.95 L47.15 37.95 46.9 37.95 47.1 35.5 47.2 35.5 M19.4 35.8 L20.85 36.85 20.8 36.9 20.6 37.2 20.55 37.3 20.5 37.45 20.5 37.65 20.5 37.75 18.75 38.05 18.75 37.65 18.75 37.45 18.75 37.05 18.9 36.65 18.95 36.45 19.4 35.8 M19.6 39.75 Q20.05 40.2 20.55 40.45 L21.2 38.85 20.8 38.55 20.7 38.4 20.55 38.15 18.95 38.85 19.3 39.45 19.6 39.75 M22.5 36.9 L22.6 37.0 22.85 37.7 22.85 37.8 24.55 38.05 24.6 37.65 Q24.6 36.65 24.05 35.95 L23.75 35.6 23.7 35.55 23.35 35.25 23.3 35.2 22.45 36.8 22.5 36.9 M21.65 36.55 L21.05 36.65 20.1 35.2 Q20.8 34.75 21.65 34.75 L22.4 34.85 22.0 36.6 21.65 36.55 M23.75 39.75 Q22.9 40.6 21.75 40.65 L21.65 40.65 21.5 40.65 21.65 38.9 21.7 38.9 22.5 38.6 22.5 38.55 22.75 38.2 24.3 38.95 23.75 39.75" fill="none" stroke="#000000" stroke-linecap="round" stroke-linejoin="round" stroke-width="1.0"/>
    <path d="M52.7 0.35 L53.25 0.45 55.6 6.15 54.65 21.45 Q52.45 22.25 49.0 22.5 L42.35 22.7 36.85 22.2 32.25 21.65 31.05 21.7 31.2 20.9 31.3 20.2 31.4 19.55 31.35 19.55 Q31.35 17.3 29.3 16.6 L25.0 16.15 24.95 16.15 20.6 16.6 Q19.1 16.9 18.15 17.6 L15.6 16.85 Q16.55 15.55 18.85 14.75 L32.05 15.2 37.05 20.95 51.85 21.05 Q52.95 21.0 53.25 19.95 L54.15 6.95 52.7 0.35 M15.85 30.35 L15.7 30.35 15.55 28.85 17.5 28.35 17.35 27.5 20.5 28.2 24.9 28.75 28.15 28.5 Q28.8 28.45 30.2 27.6 L29.95 29.2 29.8 30.25 16.75 30.35 15.85 30.35 M14.85 22.4 L14.8 21.75 Q16.8 22.25 18.4 21.3 L18.4 21.35 19.6 21.7 Q16.15 23.1 14.85 22.4 M14.4 18.2 L14.3 17.05 19.6 18.6 18.4 19.3 14.4 18.2 M23.25 13.2 L24.35 5.6 23.7 3.7 24.5 3.15 25.35 5.7 24.3 13.3 23.25 13.2" fill="#ffb01e" fill-rule="evenodd" stroke="none"/>
    <path d="M48.95 18.3 Q49.15 15.3 50.4 12.5 L50.5 12.45 50.95 13.05 51.15 14.15 Q51.15 17.1 48.95 18.3 M50.3 7.8 Q50.4 6.95 50.65 6.0 L51.6 5.85 51.65 6.2 Q51.65 7.45 50.3 7.8" fill="#c1249c" fill-rule="evenodd" stroke="none"/>
    <path d="M48.95 19.8 L48.95 18.5 48.95 18.3 Q51.15 17.1 51.15 14.15 L50.95 13.05 50.5 12.45 50.45 12.4 50.8 11.75 51.6 11.55 52.65 11.0 52.0 19.8 48.95 19.8 M50.35 9.05 L50.2 8.95 50.3 7.8 Q51.65 7.45 51.65 6.2 L51.6 5.85 52.4 5.7 52.8 6.7 Q52.6 7.6 51.95 8.3 51.2 9.05 50.35 9.05" fill="#a60c81" fill-rule="evenodd" stroke="none"/>
    <path d="M52.7 0.35 L54.15 6.95 53.25 19.95 Q52.95 21.0 51.85 21.05 L37.05 20.95 32.05 15.2 32.2 14.25 36.6 19.6 48.95 19.8 52.0 19.8 52.65 11.0 52.75 9.55 52.95 7.1 52.8 6.7 52.4 5.7 51.45 0.0 52.7 0.35 M14.8 21.75 L14.4 18.2 18.4 19.3 18.4 21.3 Q16.8 22.25 14.8 21.75" fill="#fbe9a6" fill-rule="evenodd" stroke="none"/>
    <path d="M50.4 10.55 L50.35 10.5 50.2 9.1 50.35 9.05 Q51.2 9.05 51.95 8.3 52.6 7.6 52.8 6.7 L52.95 7.1 52.75 9.55 51.45 10.25 50.4 10.55" fill="#91016e" fill-rule="evenodd" stroke="none"/>
    <path d="M50.8 11.75 L50.7 11.5 50.4 10.55 51.45 10.25 52.75 9.55 52.65 11.0 51.6 11.55 50.8 11.75" fill="#740058" fill-rule="evenodd" stroke="none"/>
    <path d="M18.15 17.6 Q19.1 16.9 20.6 16.6 L24.95 16.15 25.0 16.15 29.3 16.6 Q31.35 17.3 31.35 19.55 L31.3 20.2 31.2 20.9 31.05 21.7 32.25 21.65 36.85 22.2 42.35 22.7 49.0 22.5 Q52.45 22.25 54.65 21.45 L54.35 26.35 53.05 25.25 Q50.45 23.45 47.1 23.45 42.9 23.45 39.95 26.3 L39.75 26.35 38.75 26.45 35.9 26.2 32.95 25.95 31.65 26.05 30.35 26.35 30.2 27.4 30.2 27.6 Q28.8 28.45 28.15 28.5 L24.9 28.75 20.5 28.2 17.35 27.5 17.2 26.8 Q16.55 26.2 15.9 26.2 L14.8 26.4 14.75 26.6 14.8 27.1 14.95 27.95 15.1 28.9 14.8 28.95 14.65 28.4 14.35 27.2 14.2 26.65 14.05 25.85 15.2 25.75 14.85 22.4 Q16.15 23.1 19.6 21.7 L19.65 21.65 19.65 21.45 20.0 18.15 18.15 17.6 M37.35 30.3 L37.05 31.15 24.5 31.15 Q23.15 30.5 21.45 30.5 19.85 30.5 18.45 31.15 L15.95 31.15 15.85 30.35 16.75 30.35 29.8 30.25 31.2 30.25 35.9 30.3 37.35 30.3 M36.75 33.0 L36.75 33.8 36.9 35.85 28.2 35.85 27.6 34.15 26.8 33.0 36.75 33.0" fill="#e09100" fill-rule="evenodd" stroke="none"/>
    <path d="M39.75 26.35 L39.8 26.45 Q38.45 27.85 37.7 29.45 L37.35 30.3 35.9 30.3 31.2 30.25 29.8 30.25 29.95 29.2 30.2 27.6 30.2 27.4 30.35 26.35 31.65 26.05 32.95 25.95 35.9 26.2 38.75 26.45 39.75 26.35 M37.05 31.15 L36.95 31.65 36.75 33.0 26.8 33.0 26.35 32.45 26.25 32.4 26.2 32.35 25.4 31.65 Q25.0 31.35 24.5 31.15 L37.05 31.15 M18.45 31.15 Q17.5 31.65 16.65 32.45 L16.2 32.95 15.95 31.15 18.45 31.15 M15.55 28.85 L15.1 28.9 14.95 27.95 14.8 27.1 14.75 26.6 14.8 26.4 15.9 26.2 Q16.55 26.2 17.2 26.8 L17.35 27.5 17.5 28.35 15.55 28.85 M24.5 3.15 L25.15 2.7 26.15 5.3 25.1 13.35 24.3 13.3 25.35 5.7 24.5 3.15 M19.65 21.45 L19.65 21.65 19.6 21.7 18.4 21.35 18.4 21.3 18.4 19.3 19.6 18.6 19.65 18.6 19.65 21.45" fill="#c47f00" fill-rule="evenodd" stroke="none"/>
    <path d="M32.05 15.2 L18.85 14.75 Q16.55 15.55 15.6 16.85 L14.35 16.45 Q14.75 12.8 18.25 12.85 L23.25 13.2 24.3 13.3 25.1 13.35 32.0 14.0 32.2 14.25 32.05 15.2" fill="#ffc354" fill-rule="evenodd" stroke="none"/>
    <path d="M15.6 16.85 L18.15 17.6 20.0 18.15 19.65 21.45 19.65 18.6 19.6 18.6 14.3 17.05 14.3 16.95 14.35 16.45 15.6 16.85" fill="#ffdfa6" fill-rule="evenodd" stroke="none"/>
    <path d="M14.65 28.4 L14.05 28.65 14.0 30.75 13.95 31.6 12.8 39.4 Q12.65 42.25 10.35 42.75 L7.45 43.6 5.1 43.6 5.7 42.75 13.05 31.85 13.2 27.75 14.35 27.2 14.65 28.4" fill="#b6b406" fill-rule="evenodd" stroke="none"/>
    <path d="M2.25 41.85 L5.45 41.85 12.55 31.3 12.5 27.4 14.2 26.65 14.35 27.2 13.2 27.75 13.05 31.85 5.7 42.75 2.05 42.75 2.25 41.85" fill="#ddf755" fill-rule="evenodd" stroke="none"/>
    <path d="M13.95 31.6 L13.85 35.5 13.75 39.4 13.7 41.85 Q13.5 43.1 12.3 43.45 L12.15 43.6 7.45 43.6 10.35 42.75 Q12.65 42.25 12.8 39.4 L13.95 31.6" fill="#8c8c0b" fill-rule="evenodd" stroke="none"/>
    <path d="M5.1 43.6 L0.0 43.6 2.15 41.85 2.25 41.85 2.05 42.75 5.7 42.75 5.1 43.6" fill="#c2c21a" fill-rule="evenodd" stroke="none"/>
  </g>
</svg>
