<?xml version="1.0" encoding="UTF-8" standalone="no"?>
<svg xmlns:xlink="http://www.w3.org/1999/xlink" height="13.95px" width="10.0px" xmlns="http://www.w3.org/2000/svg">
  <g transform="matrix(1.0, 0.0, 0.0, 1.0, 0.5, 0.5)">
    <path d="M8.95 7.85 L9.0 8.6 9.0 8.95 Q8.85 10.85 7.45 12.0 6.1 13.05 4.2 12.95 2.4 12.8 1.15 11.65 -0.1 10.35 0.0 8.45 0.15 6.45 1.55 4.85 2.55 3.8 3.6 3.5 L3.7 3.0 3.85 2.35 3.85 2.2 4.3 1.85 4.75 0.25 4.8 0.25 Q4.85 0.1 5.35 0.05 L6.45 0.1 7.55 0.6 7.9 1.0 7.95 1.0 7.55 2.65 7.7 3.2 Q7.7 3.5 7.05 3.55 L6.2 3.6 7.65 3.45 7.35 4.7 7.8 5.25 8.4 6.15 8.25 5.8 8.65 6.7 8.75 7.0 8.9 7.2 8.95 7.75 8.95 7.7 8.9 7.55 8.9 7.65 8.95 7.7 8.95 8.15 8.95 7.85 8.95 8.15 8.95 7.7 8.9 7.65 8.9 7.55 8.95 7.7 8.95 7.75 8.95 7.85" fill="#5f8a68" fill-rule="evenodd" stroke="none"/>
    <path d="M8.95 7.75 L8.9 7.2 8.75 7.0 8.65 6.7 8.25 5.8 8.4 6.15 7.8 5.25 7.35 4.7 7.65 3.45 6.2 3.6 7.05 3.55 Q7.7 3.5 7.7 3.2 L7.55 2.65 7.95 1.0 7.9 1.0 7.55 0.6 6.45 0.1 5.35 0.05 Q4.85 0.1 4.8 0.25 L4.75 0.25 4.3 1.85 3.85 2.2 3.85 2.35 3.7 3.0 3.6 3.5 Q2.55 3.8 1.55 4.85 0.15 6.45 0.0 8.45 -0.1 10.35 1.15 11.65 2.4 12.8 4.2 12.95 6.1 13.05 7.45 12.0 8.85 10.85 9.0 8.95 L9.0 8.6 8.95 7.85 8.95 8.15 8.95 7.7 8.9 7.65 8.9 7.55 8.95 7.7 8.95 7.75 8.95 7.85" fill="none" stroke="#071c0d" stroke-linecap="round" stroke-linejoin="round" stroke-width="1.0"/>
    <path d="M9.0 8.95 Q8.85 10.85 7.45 12.0 6.1 13.05 4.2 12.95 2.4 12.8 1.15 11.65 -0.1 10.35 0.0 8.45 0.15 6.45 1.55 4.85 3.05 3.2 4.75 3.35 6.5 3.45 7.8 5.25 9.1 6.95 9.0 8.95" fill="#3c5741" fill-rule="evenodd" stroke="none"/>
    <path d="M4.5 3.65 Q6.3 3.9 7.35 5.4 8.55 7.05 7.75 8.85 6.55 10.5 4.95 11.0 L1.8 10.75 Q0.8 10.25 0.45 9.25 0.1 8.25 0.55 6.8 1.75 3.95 4.5 3.65" fill="#5f8a68" fill-rule="evenodd" stroke="none"/>
    <path d="M8.2 11.2 Q7.4 12.25 5.85 12.65 4.45 12.9 3.05 12.65 L5.5 12.5 Q7.6 11.75 8.35 9.95 9.2 8.1 8.2 5.7 9.0 7.3 9.0 8.6 9.0 10.05 8.2 11.2" fill="#72a2d7" fill-rule="evenodd" stroke="none"/>
    <path d="M7.9 7.95 L4.7 8.25 Q3.35 8.0 2.05 6.95 L1.05 5.95 1.05 5.8 1.15 5.85 2.15 6.8 Q3.4 7.85 4.7 8.05 L7.85 7.8 8.75 7.15 8.85 7.15 8.85 7.3 7.9 7.95" fill="#6d9474" fill-rule="evenodd" stroke="none"/>
    <path d="M7.65 10.45 Q6.05 11.2 4.4 10.9 2.55 10.6 1.35 9.6 L0.25 8.25 0.2 8.1 0.25 8.0 0.35 8.05 0.4 8.15 Q0.75 8.85 1.45 9.45 2.6 10.45 4.4 10.75 6.0 11.05 7.55 10.3 L8.65 9.6 8.75 9.6 8.75 9.7 7.65 10.45" fill="#6d9474" fill-rule="evenodd" stroke="none"/>
    <path d="M7.95 7.75 L4.75 8.05 Q3.35 7.8 2.1 6.7 L1.1 5.75 1.1 5.6 1.25 5.6 2.2 6.6 Q3.45 7.6 4.8 7.85 L7.9 7.6 8.7 7.05 Q8.75 6.95 8.85 7.0 L8.85 7.1 7.95 7.75" fill="#231815" fill-rule="evenodd" stroke="none"/>
    <path d="M7.75 10.15 Q6.1 10.95 4.45 10.7 2.6 10.4 1.4 9.4 0.7 8.8 0.35 8.05 L0.25 7.8 0.35 7.75 0.4 7.75 0.5 7.95 Q0.85 8.65 1.55 9.25 2.65 10.25 4.5 10.55 6.1 10.75 7.7 10.0 L8.8 9.25 8.85 9.3 8.9 9.4 7.75 10.15" fill="#231815" fill-rule="evenodd" stroke="none"/>
    <path d="M4.25 4.65 L3.2 5.55 Q2.15 6.75 1.75 8.3 1.2 10.35 1.75 11.5 L1.8 11.65 1.85 11.7 1.8 11.8 1.65 11.75 1.6 11.6 Q1.0 10.35 1.55 8.25 2.05 6.65 3.1 5.45 L4.15 4.5 4.25 4.5 4.25 4.65" fill="#6b7d5c" fill-rule="evenodd" stroke="none"/>
    <path d="M7.25 9.1 Q7.15 10.35 6.65 11.45 L5.8 12.6 5.65 12.6 5.7 12.45 6.45 11.3 7.15 9.15 Q7.25 8.0 6.8 6.55 L6.4 5.3 6.4 5.15 6.55 5.2 6.95 6.5 Q7.4 8.0 7.25 9.1" fill="#527058" fill-rule="evenodd" stroke="none"/>
    <path d="M4.45 4.7 L3.5 5.6 Q2.4 6.75 1.95 8.35 1.45 10.45 2.05 11.75 L2.1 11.9 2.05 12.0 1.95 11.95 1.85 11.85 Q1.2 10.5 1.85 8.3 2.25 6.75 3.3 5.5 L4.35 4.55 4.45 4.6 4.5 4.65 4.45 4.7" fill="#231815" fill-rule="evenodd" stroke="none"/>
    <path d="M7.0 9.1 L6.35 11.45 5.5 12.7 5.4 12.6 5.45 12.55 6.15 11.35 6.85 9.05 Q7.15 7.4 6.15 5.25 L6.1 5.2 6.15 5.1 6.25 5.15 6.3 5.2 Q7.3 7.4 7.0 9.1" fill="#231815" fill-rule="evenodd" stroke="none"/>
    <path d="M3.85 2.3 L4.3 2.75 Q4.9 3.3 5.6 3.45 6.7 3.8 7.65 3.45 7.5 4.65 7.15 5.0 L6.1 5.2 4.8 4.9 Q3.75 4.35 3.6 3.9 3.5 3.7 3.7 3.0 L3.85 2.3" fill="#303030" fill-rule="evenodd" stroke="none"/>
    <path d="M7.7 3.2 Q7.7 3.5 7.05 3.55 L5.6 3.45 4.3 2.9 Q3.75 2.55 3.85 2.2 3.95 1.9 4.55 1.8 L6.0 1.9 7.35 2.45 Q7.8 2.85 7.7 3.2" fill="#5e5e5e" fill-rule="evenodd" stroke="none"/>
    <path d="M5.5 7.2 Q5.4 7.45 4.9 7.45 L4.0 7.25 3.45 6.75 Q3.25 6.45 3.35 6.2 L3.95 5.75 4.85 5.6 Q5.2 5.75 5.45 6.4 L5.5 7.2" fill="#7fba8b" fill-rule="evenodd" stroke="none"/>
    <path d="M2.4 9.45 Q2.0 9.25 2.25 8.6 2.5 7.95 2.75 8.2 3.1 8.65 2.95 9.0 L2.7 9.4 2.4 9.45" fill="#71a67b" fill-rule="evenodd" stroke="none"/>
    <path d="M2.65 5.45 Q2.4 5.65 2.2 5.45 L2.15 5.3 2.25 5.05 2.5 4.95 2.7 5.0 Q2.95 5.2 2.65 5.45" fill="#88c493" fill-rule="evenodd" stroke="none"/>
    <path d="M7.55 2.65 L6.95 3.05 5.75 2.95 4.65 2.45 Q4.25 2.15 4.3 1.85 L4.75 0.25 7.95 1.0 7.55 2.65" fill="#303030" fill-rule="evenodd" stroke="none"/>
    <path d="M7.9 1.15 L7.35 1.5 6.15 1.35 5.1 0.95 Q4.7 0.6 4.75 0.3 4.8 0.1 5.35 0.05 L6.45 0.1 7.55 0.6 Q8.0 0.9 7.9 1.15" fill="#6e6e6e" fill-rule="evenodd" stroke="none"/>
    <path d="M4.9 0.9 L5.4 1.2 5.35 1.5 5.35 1.85 Q5.35 2.4 5.6 2.8 L5.05 2.6 4.7 2.35 4.9 0.9" fill="#4d4d4d" fill-rule="evenodd" stroke="none"/>
  </g>
</svg>
