<?xml version="1.0" encoding="UTF-8" standalone="no"?>
<svg xmlns:xlink="http://www.w3.org/1999/xlink" height="94.85px" width="101.95px" xmlns="http://www.w3.org/2000/svg">
  <g transform="matrix(1.0, 0.0, 0.0, 1.0, 5.25, 3.4)">
    <path d="M-2.25 71.6 Q-1.4 70.3 -0.15 69.25 L2.0 66.85 4.6 63.5 6.5 60.75 Q6.55 60.3 7.05 59.9 9.6 55.0 11.7 49.7 13.2 45.15 14.25 40.1 15.7 31.5 15.8 21.0 L12.6 16.25 15.7 14.0 15.7 13.9 Q18.75 10.35 21.9 7.8 24.05 6.05 26.2 4.8 35.2 -1.0 46.55 -0.35 57.8 -0.05 66.1 6.7 L66.7 7.25 78.65 16.25 73.85 23.4 Q74.4 32.55 76.1 40.25 77.25 45.25 78.9 49.85 81.25 56.25 85.4 62.05 L85.8 62.7 87.5 65.0 90.3 68.2 92.6 70.9 93.45 71.6 93.7 71.85 93.65 72.65 91.6 75.55 Q89.6 77.25 88.05 77.75 L86.7 75.6 Q86.4 75.65 85.3 76.35 84.65 76.55 84.05 77.25 L84.05 77.3 83.95 78.9 Q83.75 79.5 77.05 81.9 70.2 83.95 70.15 84.15 L69.45 82.1 Q68.25 82.25 67.6 82.65 66.55 82.8 66.35 83.0 66.3 83.4 66.4 83.8 66.15 85.15 60.1 86.65 L51.45 88.45 Q51.15 87.45 51.1 86.05 L48.7 86.35 46.45 86.55 45.45 86.5 45.3 86.45 45.25 86.45 Q44.25 88.35 42.35 88.4 37.55 88.3 28.4 86.0 28.25 85.65 28.9 83.95 L28.9 83.8 27.15 83.2 24.95 82.65 Q24.25 83.85 24.05 85.1 23.95 85.2 24.0 85.35 21.4 85.3 16.75 83.85 11.7 82.0 8.45 79.9 L9.9 77.9 4.75 76.45 3.95 77.45 Q1.6 76.3 -0.05 75.0 L-2.05 72.75 -2.5 71.7 Q-2.6 71.5 -2.25 71.6 M3.75 76.25 Q3.65 75.9 2.6 75.4 L0.75 74.5 Q-1.3 73.15 -2.05 72.75 -1.3 73.15 0.75 74.5 L2.6 75.4 Q3.65 75.9 3.75 76.25 M66.35 83.0 L66.3 82.8 66.2 82.9 66.35 83.0" fill="#ffffff" fill-rule="evenodd" stroke="none"/>
    <path d="M-2.25 71.6 Q-1.4 70.3 -0.15 69.25 L2.0 66.85 4.6 63.5 6.5 60.75 Q6.55 60.3 7.05 59.9 9.6 55.0 11.7 49.7 13.2 45.15 14.25 40.1 15.7 31.5 15.8 21.0 L12.6 16.25 15.7 14.0 15.7 13.9 Q18.75 10.35 21.9 7.8 24.05 6.05 26.2 4.8 35.2 -1.0 46.55 -0.35 57.8 -0.05 66.1 6.7 L66.7 7.25 78.65 16.25 73.85 23.4 Q74.4 32.55 76.1 40.25 77.25 45.25 78.9 49.85 81.25 56.25 85.4 62.05 L85.8 62.7 87.5 65.0 90.3 68.2 92.6 70.9 93.45 71.6 93.7 71.85 93.65 72.65 91.6 75.55 Q89.6 77.25 88.05 77.75 L86.7 75.6 Q86.4 75.65 85.3 76.35 84.65 76.55 84.05 77.25 L84.05 77.3 83.95 78.9 Q83.75 79.5 77.05 81.9 70.2 83.95 70.15 84.15 L69.45 82.1 Q68.25 82.25 67.6 82.65 66.55 82.8 66.35 83.0 66.3 83.4 66.4 83.8 66.15 85.15 60.1 86.65 L51.45 88.45 Q51.15 87.45 51.1 86.05 L48.7 86.35 46.45 86.55 45.45 86.5 45.3 86.45 45.25 86.45 Q44.25 88.35 42.35 88.4 37.55 88.3 28.4 86.0 28.25 85.65 28.9 83.95 L28.9 83.8 27.15 83.2 24.95 82.65 Q24.25 83.85 24.05 85.1 23.95 85.2 24.0 85.35 21.4 85.3 16.75 83.85 11.7 82.0 8.45 79.9 L9.9 77.9 4.75 76.45 3.95 77.45 M-2.05 72.75 Q-1.3 73.15 0.75 74.5 L2.6 75.4 Q3.65 75.9 3.75 76.25 M66.35 83.0 L66.3 82.8 66.2 82.9 66.35 83.0" fill="none" stroke="#4c0e62" stroke-linecap="round" stroke-linejoin="round" stroke-width="6.0"/>
    <path d="M87.5 64.75 L90.3 67.95 87.15 69.85 Q85.7 70.6 84.55 71.3 83.8 71.5 83.2 71.95 L80.1 69.35 82.1 72.55 72.5 76.25 Q70.9 76.6 69.7 77.1 L67.3 77.65 64.45 73.35 Q65.7 72.9 67.15 72.8 68.5 72.25 70.3 71.9 L73.15 71.05 83.6 66.8 Q84.6 66.2 85.5 65.9 86.45 65.2 87.5 64.75 M2.0 66.6 L4.6 63.25 7.25 64.85 8.0 65.2 12.65 67.6 Q10.6 69.35 9.6 70.95 L9.3 70.9 5.35 68.75 2.0 66.6 M6.5 60.5 Q6.55 60.05 7.05 59.65 9.6 54.75 11.7 49.45 13.2 44.9 14.25 39.85 18.6 37.7 25.7 36.25 37.75 33.55 51.1 33.9 59.65 34.05 69.4 37.6 L76.1 40.0 Q77.25 45.0 78.9 49.6 81.25 56.0 85.4 61.8 L85.8 62.45 Q85.25 62.6 84.9 62.9 79.75 65.3 74.2 67.25 L71.2 68.35 68.05 69.1 Q59.65 70.95 51.3 71.55 L45.5 71.75 44.6 71.7 44.55 71.7 Q37.25 71.55 29.95 69.95 L29.95 69.55 29.85 69.9 27.8 69.35 23.6 68.05 18.0 66.15 Q12.4 63.9 7.75 61.25 L6.9 60.85 6.5 60.5 M30.05 73.55 Q36.45 75.0 43.1 75.2 L44.25 75.2 45.05 75.25 46.35 75.25 45.8 80.3 45.25 80.3 44.35 80.35 41.25 80.2 Q35.4 79.8 29.85 78.55 29.8 76.4 30.05 73.55 M48.25 75.25 L50.65 75.1 64.35 73.35 Q64.65 76.35 65.25 78.15 58.15 79.65 50.65 80.1 L50.1 80.15 48.25 75.25 M13.25 67.95 L18.15 69.9 23.5 71.8 27.75 73.1 28.55 73.3 27.9 74.7 Q27.4 75.5 26.7 77.75 L24.45 77.1 Q21.65 76.3 19.0 75.3 L12.0 72.35 13.25 67.95" fill="#ffffff" fill-rule="evenodd" stroke="none"/>
    <path d="M90.3 67.95 L92.6 70.65 93.45 71.35 93.7 71.6 93.65 72.4 91.6 75.3 Q89.6 77.0 88.05 77.5 L86.7 75.35 86.35 74.85 86.1 74.5 83.2 71.95 Q83.8 71.5 84.55 71.3 85.7 70.6 87.15 69.85 L90.3 67.95 M84.05 77.0 L84.05 77.05 83.95 78.65 Q83.75 79.25 77.05 81.65 70.2 83.7 70.15 83.9 L69.45 81.85 69.45 81.65 Q69.05 81.4 69.15 81.1 L67.3 77.65 69.7 77.1 Q70.9 76.6 72.5 76.25 L82.1 72.55 82.75 73.7 83.75 76.2 84.05 77.0 M66.35 82.75 Q66.3 83.15 66.4 83.55 66.15 84.9 60.1 86.4 L51.45 88.2 Q51.15 87.2 51.1 85.8 50.85 85.2 50.95 84.7 L50.9 84.3 Q50.35 82.1 50.1 80.15 L50.65 80.1 Q58.15 79.65 65.25 78.15 L65.4 78.6 Q66.15 80.8 66.35 82.45 L66.3 82.55 66.2 82.65 66.35 82.75 M45.3 86.2 L45.25 86.2 Q44.25 88.1 42.35 88.15 37.55 88.05 28.4 85.75 28.25 85.4 28.9 83.7 L28.9 83.55 Q28.9 83.15 29.15 82.85 29.05 82.45 29.45 82.2 L29.85 78.55 Q35.4 79.8 41.25 80.2 L44.35 80.35 45.25 80.3 45.8 80.3 45.65 84.05 45.5 84.8 Q45.25 85.5 45.3 86.2 M24.95 82.4 Q24.25 83.6 24.05 84.85 23.95 84.95 24.0 85.1 21.4 85.05 16.75 83.6 11.7 81.75 8.45 79.65 L9.9 77.65 Q10.1 76.8 10.7 76.0 10.6 75.55 10.8 75.4 L12.0 72.35 19.0 75.3 Q21.65 76.3 24.45 77.1 L26.7 77.75 Q26.45 78.05 26.35 78.7 25.65 80.3 25.25 81.85 L24.95 82.4 M4.75 76.2 L3.95 77.2 Q1.6 76.05 -0.05 74.75 -2.05 72.95 -2.5 71.45 -2.6 71.25 -2.25 71.35 -1.4 70.05 -0.15 69.0 L2.0 66.6 5.35 68.75 9.3 70.9 9.6 70.95 Q7.75 72.55 6.75 73.8 5.05 75.3 4.75 76.2 M4.6 63.25 L6.5 60.5 6.9 60.85 7.75 61.25 Q12.4 63.9 18.0 66.15 L23.6 68.05 27.8 69.35 29.85 69.9 Q28.85 71.95 28.55 73.3 L27.75 73.1 23.5 71.8 18.15 69.9 13.25 67.95 Q13.35 67.1 13.8 66.35 12.95 66.95 12.65 67.6 L8.0 65.2 7.25 64.85 4.6 63.25 M85.8 62.45 L87.5 64.75 Q86.45 65.2 85.5 65.9 84.6 66.2 83.6 66.8 L73.15 71.05 70.3 71.9 Q68.5 72.25 67.15 72.8 65.7 72.9 64.45 73.35 L64.2 72.9 Q64.1 73.05 64.35 73.35 L50.65 75.1 48.25 75.25 47.0 72.4 46.35 75.25 45.05 75.25 44.25 75.2 43.1 75.2 Q36.45 75.0 30.05 73.55 29.85 71.75 29.95 69.95 37.25 71.55 44.55 71.7 L44.6 71.7 45.5 71.75 51.3 71.55 Q59.65 70.95 68.05 69.1 L71.2 68.35 74.2 67.25 Q79.75 65.3 84.9 62.9 85.25 62.6 85.8 62.45" fill="#e7a8ff" fill-rule="evenodd" stroke="none"/>
    <path d="M86.7 75.35 Q86.4 75.4 85.3 76.1 84.65 76.3 84.05 77.0 L83.75 76.2 82.75 73.7 82.1 72.55 Q82.45 72.15 83.2 71.95 L86.1 74.5 86.35 74.85 86.7 75.35 M69.45 81.85 Q68.25 82.0 67.6 82.4 66.55 82.55 66.35 82.75 L66.3 82.55 66.35 82.45 Q66.15 80.8 65.4 78.6 L65.25 78.15 66.7 77.95 Q66.8 77.7 67.3 77.65 L69.15 81.1 Q69.05 81.4 69.45 81.65 L69.45 81.85 M51.1 85.8 L48.7 86.1 46.45 86.3 45.45 86.25 45.3 86.2 Q45.25 85.5 45.5 84.8 L45.65 84.05 45.8 80.3 50.1 80.15 Q50.35 82.1 50.9 84.3 L50.95 84.7 Q50.85 85.2 51.1 85.8 M28.9 83.55 L27.15 82.95 24.95 82.4 25.25 81.85 Q25.65 80.3 26.35 78.7 26.45 78.05 26.7 77.75 L28.4 78.25 29.85 78.55 29.45 82.2 Q29.05 82.45 29.15 82.85 28.9 83.15 28.9 83.55 M9.9 77.65 L4.75 76.2 Q5.05 75.3 6.75 73.8 7.75 72.55 9.6 70.95 L12.0 72.35 10.8 75.4 Q10.6 75.55 10.7 76.0 10.1 76.8 9.9 77.65 M29.95 69.95 Q29.85 71.75 30.05 73.55 L28.55 73.3 Q28.85 71.95 29.85 69.9 L29.95 69.95 M46.35 75.25 L47.0 72.4 48.25 75.25 46.35 75.25" fill="#ac67c6" fill-rule="evenodd" stroke="none"/>
    <path d="M64.45 73.35 L67.3 77.65 Q66.8 77.7 66.7 77.95 L65.25 78.15 Q64.65 76.35 64.35 73.35 64.1 73.05 64.2 72.9 L64.45 73.35 M82.1 72.55 L80.1 69.35 83.2 71.95 Q82.45 72.15 82.1 72.55 M28.55 73.3 L30.05 73.55 Q29.8 76.4 29.85 78.55 L28.4 78.25 26.7 77.75 Q27.4 75.5 27.9 74.7 L28.55 73.3 M29.95 69.95 L29.85 69.9 29.95 69.55 29.95 69.95 M12.65 67.6 L13.25 67.95 12.0 72.35 9.6 70.95 Q10.6 69.35 12.65 67.6 M46.35 75.25 L48.25 75.25 50.1 80.15 45.8 80.3 46.35 75.25" fill="#a8a8a8" fill-rule="evenodd" stroke="none"/>
    <path d="M14.25 39.85 Q16.2 28.4 15.7 13.65 18.75 10.1 21.9 7.55 24.05 5.8 26.2 4.55 35.2 -1.25 46.55 -0.6 57.8 -0.3 66.1 6.45 L67.05 7.3 Q69.55 9.6 73.6 15.15 73.7 29.05 76.1 40.0 L69.4 37.6 Q59.65 34.05 51.1 33.9 37.75 33.55 25.7 36.25 18.6 37.7 14.25 39.85" fill="#c8c8c8" fill-rule="evenodd" stroke="none"/>
    <path d="M12.65 67.6 Q12.95 66.95 13.8 66.35 13.35 67.1 13.25 67.95 L12.65 67.6" fill="#b62161" fill-rule="evenodd" stroke="none"/>
    <path d="M55.45 34.4 Q61.15 35.2 63.5 39.7 65.35 43.3 64.7 46.75 64.05 44.95 62.85 43.6 60.8 41.25 57.95 41.25 L55.85 41.55 54.3 42.15 52.7 42.9 52.6 44.9 Q52.6 47.55 53.4 49.65 53.95 51.05 56.05 55.25 53.7 52.8 51.85 49.55 50.05 46.3 49.15 43.15 L47.4 44.5 46.3 45.45 45.6 42.85 45.7 42.5 46.15 40.95 45.1 41.15 44.85 41.15 42.85 40.95 41.0 40.7 Q39.2 40.7 36.95 44.9 35.35 48.0 34.55 50.9 L34.55 50.25 Q34.55 48.3 36.2 42.8 L37.85 37.65 Q37.85 37.25 37.1 36.6 L36.15 35.75 35.3 35.05 37.1 34.85 Q37.7 36.1 38.85 37.25 L53.9 37.25 Q54.95 35.85 55.45 34.4 M36.55 32.45 Q36.5 29.75 38.85 26.6 L53.9 26.6 Q55.85 29.3 55.85 32.0 51.5 30.85 47.15 30.85 40.5 30.85 36.55 32.45" fill="#d9237d" fill-rule="evenodd" stroke="none"/>
    <path d="M55.85 32.0 Q55.85 33.2 55.45 34.4 54.95 35.85 53.9 37.25 L38.85 37.25 Q37.7 36.1 37.1 34.85 36.55 33.7 36.55 32.45 40.5 30.85 47.15 30.85 51.5 30.85 55.85 32.0 M64.7 46.75 L64.45 47.7 Q63.65 50.65 60.6 54.7 59.2 56.65 60.1 59.95 L60.95 63.6 Q59.2 61.45 56.5 59.1 49.45 53.15 47.3 49.1 L46.3 45.45 47.4 44.5 49.15 43.15 Q50.05 46.3 51.85 49.55 53.7 52.8 56.05 55.25 53.95 51.05 53.4 49.65 52.6 47.55 52.6 44.9 L52.7 42.9 54.3 42.15 55.85 41.55 57.95 41.25 Q60.8 41.25 62.85 43.6 64.05 44.95 64.7 46.75 M45.6 42.85 L43.55 49.65 Q41.45 53.8 34.5 59.75 31.8 62.0 29.95 64.15 L30.9 60.45 Q31.7 57.2 30.3 55.25 27.25 51.1 26.55 48.25 25.35 44.35 27.45 40.25 29.65 35.85 35.3 35.05 L36.15 35.75 37.1 36.6 Q37.85 37.25 37.85 37.65 L36.2 42.8 Q34.55 48.3 34.55 50.25 L34.55 50.9 Q35.35 48.0 36.95 44.9 39.2 40.7 41.0 40.7 L42.85 40.95 44.85 41.15 45.1 41.15 46.15 40.95 45.7 42.5 45.6 42.85" fill="#ff5bac" fill-rule="evenodd" stroke="none"/>
    <path d="M73.4 12.1 L76.25 14.2 63.3 33.65 Q61.8 32.35 60.1 31.3 L73.4 12.1 M69.1 8.8 L71.95 11.0 58.85 30.6 Q57.15 29.6 55.2 28.9 L69.1 8.8" fill="#e7a8ff" fill-rule="evenodd" stroke="none"/>
    <path d="M73.4 12.1 L60.1 31.3 58.85 30.6 71.95 11.0 73.4 12.1 M63.3 33.65 L76.25 14.2 78.65 16.0 65.45 35.65 63.3 33.65 M69.1 8.8 L55.2 28.9 Q50.8 27.15 45.45 26.45 L65.55 6.15 69.1 8.8" fill="#ffffff" fill-rule="evenodd" stroke="none"/>
    <path d="M22.2 8.8 L25.75 6.15 45.85 26.45 Q40.45 27.15 36.1 28.9 L22.2 8.8 M32.45 30.6 L31.2 31.3 17.9 12.1 19.35 11.0 32.45 30.6 M27.95 33.65 L25.85 35.65 12.6 16.0 15.05 14.2 27.95 33.65" fill="#ffffff" fill-rule="evenodd" stroke="none"/>
    <path d="M36.1 28.9 Q34.15 29.6 32.45 30.6 L19.35 11.0 22.2 8.8 36.1 28.9 M31.2 31.3 L27.95 33.65 15.05 14.2 17.9 12.1 31.2 31.3" fill="#e7a8ff" fill-rule="evenodd" stroke="none"/>
  </g>
</svg>
