<?xml version="1.0" encoding="UTF-8" standalone="no"?>
<svg xmlns:xlink="http://www.w3.org/1999/xlink" height="93.25px" width="103.6px" xmlns="http://www.w3.org/2000/svg">
  <g transform="matrix(1.0, 0.0, 0.0, 1.0, 5.55, 3.2)">
    <path d="M83.2 47.65 Q84.95 47.65 89.8 53.55 95.05 60.15 95.05 62.95 L95.05 64.65 Q95.05 66.05 94.35 67.1 L94.7 68.5 Q94.7 69.55 92.95 71.3 L92.6 71.65 Q91.2 73.7 89.1 75.45 L83.55 79.3 Q82.85 79.3 82.5 79.65 82.15 80.35 81.1 80.7 L80.05 81.0 Q76.55 82.4 72.05 83.1 L69.6 83.8 Q69.95 84.5 67.15 84.85 L64.0 85.2 59.15 85.9 55.65 86.25 Q53.9 87.3 51.85 86.95 L47.65 86.6 43.1 86.6 42.4 86.6 40.35 86.6 39.65 86.6 36.85 86.6 32.65 86.25 27.1 85.2 25.0 84.85 20.1 83.45 18.05 82.75 Q17.35 82.75 16.3 82.05 L12.1 80.7 Q11.05 80.0 10.35 79.65 8.25 78.95 6.55 77.55 5.15 77.2 4.45 76.15 1.65 74.75 -0.1 72.65 -0.8 72.35 -0.8 71.65 L-1.85 70.95 Q-1.85 70.6 -1.5 70.6 -2.55 68.85 -2.55 67.45 -2.55 65.7 -1.85 63.65 -1.5 62.6 -0.8 62.25 -2.55 59.45 -2.55 57.0 L-2.55 54.95 Q-1.85 51.45 5.15 45.55 11.4 39.65 13.15 39.65 L14.55 39.95 Q15.6 35.45 15.6 27.1 L16.3 23.95 Q13.5 20.5 11.75 16.65 L15.6 12.85 Q18.05 11.45 20.1 9.7 L22.2 7.95 Q24.3 5.9 26.4 4.85 L27.45 4.15 Q35.8 -1.1 46.6 -0.05 56.35 -0.05 62.65 4.15 L63.3 4.15 69.95 9.7 70.3 9.7 Q71.7 11.1 73.8 12.5 74.15 12.5 74.15 12.85 L78.65 17.0 Q78.3 18.75 77.6 19.1 L76.2 21.2 74.15 24.3 74.15 26.75 76.9 43.45 77.25 44.15 Q79.35 45.2 82.5 47.65 L83.2 47.65" fill="#8150af" fill-rule="evenodd" stroke="none"/>
    <path d="M83.2 47.65 Q84.95 47.65 89.8 53.55 95.05 60.15 95.05 62.95 L95.05 64.65 Q95.05 66.05 94.35 67.1 L94.7 68.5 Q94.7 69.55 92.95 71.3 L92.6 71.65 Q91.2 73.7 89.1 75.45 L83.55 79.3 Q82.85 79.3 82.5 79.65 82.15 80.35 81.1 80.7 L80.05 81.0 Q76.55 82.4 72.05 83.1 L69.6 83.8 Q69.95 84.5 67.15 84.85 L64.0 85.2 59.15 85.9 55.65 86.25 Q53.9 87.3 51.85 86.95 L47.65 86.6 43.1 86.6 42.4 86.6 40.35 86.6 39.65 86.6 36.85 86.6 32.65 86.25 27.1 85.2 25.0 84.85 20.1 83.45 18.05 82.75 Q17.35 82.75 16.3 82.05 L12.1 80.7 Q11.05 80.0 10.35 79.65 8.25 78.95 6.55 77.55 5.15 77.2 4.45 76.15 1.65 74.75 -0.1 72.65 -0.8 72.35 -0.8 71.65 L-1.85 70.95 Q-1.85 70.6 -1.5 70.6 -2.55 68.85 -2.55 67.45 -2.55 65.7 -1.85 63.65 -1.5 62.6 -0.8 62.25 -2.55 59.45 -2.55 57.0 L-2.55 54.95 Q-1.85 51.45 5.15 45.55 11.4 39.65 13.15 39.65 L14.55 39.95 Q15.6 35.45 15.6 27.1 L16.3 23.95 Q13.5 20.5 11.75 16.65 L15.6 12.85 Q18.05 11.45 20.1 9.7 L22.2 7.95 Q24.3 5.9 26.4 4.85 L27.45 4.15 Q35.8 -1.1 46.6 -0.05 56.35 -0.05 62.65 4.15 L63.3 4.15 69.95 9.7 70.3 9.7 Q71.7 11.1 73.8 12.5 74.15 12.5 74.15 12.85 L78.65 17.0 Q78.3 18.75 77.6 19.1 L76.2 21.2 74.15 24.3 74.15 26.75 76.9 43.45 77.25 44.15 Q79.35 45.2 82.5 47.65 L83.2 47.65 Z" fill="none" stroke="#4c0e62" stroke-linecap="round" stroke-linejoin="round" stroke-width="6.0"/>
    <path d="M92.65 72.05 L90.55 74.1 89.15 75.85 Q87.05 77.6 83.6 79.7 L82.55 79.0 Q81.15 78.3 80.45 78.3 L79.4 78.65 Q80.1 79.35 80.8 79.35 81.15 79.7 81.15 80.4 L81.15 80.75 80.1 81.4 72.1 83.5 Q72.1 82.45 69.3 82.45 67.9 82.45 62.7 84.9 60.6 85.6 59.2 86.3 L55.7 86.65 Q55.35 86.3 55.35 85.95 55.35 85.6 55.7 85.25 L55.7 84.2 55.7 83.85 51.9 77.25 Q49.8 73.75 49.45 71.0 49.1 70.65 49.1 70.3 L49.1 68.9 Q48.75 67.5 48.4 67.5 47.35 67.5 47.0 69.25 46.65 70.3 46.65 72.05 L46.3 74.45 Q45.6 75.15 44.9 76.55 42.8 81.1 43.15 86.65 L42.5 87.0 42.45 87.0 40.4 87.0 40.4 86.3 Q42.1 85.25 42.45 85.25 L42.45 84.2 40.75 83.15 39.35 83.15 Q37.6 83.15 35.15 84.9 L32.7 86.65 27.15 85.25 25.05 85.25 24.35 85.25 Q21.2 83.15 19.8 81.1 L18.1 81.1 18.1 80.75 20.15 77.25 21.55 73.75 21.55 73.4 Q17.4 77.25 16.35 81.75 14.6 81.4 11.8 80.05 L10.75 79.7 Q11.8 79.0 12.15 76.9 11.8 73.75 12.15 72.75 L13.2 69.25 Q14.6 67.15 14.6 66.45 10.75 68.55 7.6 75.5 L7.95 76.9 Q7.95 77.6 6.95 77.6 L6.6 77.6 Q5.55 77.6 4.5 76.55 1.7 74.8 -0.05 73.05 L-0.75 72.05 -0.85 72.0 Q-1.45 71.65 -1.45 71.0 -2.5 68.9 -2.5 67.5 -2.5 65.75 -1.8 63.7 -0.4 60.2 3.1 55.0 9.0 47.35 12.15 47.35 L12.5 47.35 Q12.5 47.7 12.85 47.7 L16.0 50.1 Q17.4 51.5 19.1 52.2 16.35 52.2 14.6 53.95 12.85 55.0 10.05 58.8 9.35 59.5 8.65 61.6 L7.6 64.4 Q6.95 66.45 6.95 67.85 L6.95 72.05 Q7.25 67.15 10.05 63.35 12.5 59.15 17.75 57.05 L18.1 57.05 Q14.95 62.65 13.2 64.4 15.3 64.05 17.05 62.3 L20.5 59.15 25.05 57.05 Q26.8 56.05 27.5 55.0 31.3 56.05 33.75 56.05 L39.0 55.35 Q36.2 59.15 36.2 69.25 36.2 73.75 36.9 76.2 36.2 64.4 41.75 58.1 41.75 60.2 40.75 64.4 L44.2 58.45 44.9 53.25 45.6 53.25 47.0 52.55 Q56.05 56.05 61.65 55.7 65.45 55.35 68.95 53.95 L68.6 54.65 Q68.6 57.05 69.65 58.8 70.0 60.2 71.4 61.95 74.55 65.75 76.6 67.15 L74.55 60.9 74.85 60.9 Q80.45 67.15 80.1 71.0 80.8 70.65 81.15 68.9 L81.15 66.45 Q81.15 61.6 78.7 57.05 76.25 52.55 72.8 51.5 L77.65 48.05 78.0 48.05 Q78.7 47.7 79.05 47.7 83.95 47.7 89.5 56.7 94.75 64.75 94.75 68.55 94.75 69.6 93.0 71.7 L92.65 72.05" fill="#803ebd" fill-rule="evenodd" stroke="none"/>
    <path d="M72.8 51.5 Q76.25 52.55 78.7 57.05 81.15 61.6 81.15 66.45 L81.15 68.9 Q80.8 70.65 80.1 71.0 80.45 67.15 74.85 60.9 L74.55 60.9 76.6 67.15 Q74.55 65.75 71.4 61.95 70.0 60.2 69.65 58.8 68.6 57.05 68.6 54.65 L68.95 53.95 71.4 52.2 Q72.45 51.85 72.8 51.5" fill="#4b177b" fill-rule="evenodd" stroke="none"/>
    <path d="M83.6 79.7 Q82.9 79.7 82.2 80.05 L81.15 80.75 81.15 80.4 Q81.15 79.7 80.8 79.35 80.1 79.35 79.4 78.65 L80.45 78.3 Q81.15 78.3 82.55 79.0 L83.6 79.7 M24.35 85.25 Q21.9 84.55 20.15 83.5 L18.1 83.15 16.35 82.45 12.15 80.75 Q11.1 80.4 10.4 79.7 8.3 79.0 6.6 77.6 L6.95 77.6 Q7.95 77.6 7.95 76.9 L7.6 75.5 8.3 75.5 9.35 76.2 9.7 77.6 Q9.35 78.65 10.4 79.35 L10.75 79.7 11.8 80.05 Q14.6 81.4 16.35 81.75 16.7 82.1 17.05 82.1 18.1 82.1 18.1 81.75 L18.1 81.1 19.8 81.1 Q21.2 83.15 24.35 85.25" fill="#521f80" fill-rule="evenodd" stroke="none"/>
    <path d="M-0.85 72.0 L-1.8 71.0 -1.45 71.0 Q-1.45 71.65 -0.85 72.0 M12.85 47.7 L12.85 47.35 Q13.2 45.95 13.9 44.55 L13.9 43.85 Q14.6 42.1 14.6 40.05 15.3 37.25 15.65 34.45 L15.65 33.75 Q16.0 32.7 16.0 30.65 16.35 28.2 16.35 24.7 13.55 20.9 11.8 17.05 L15.65 12.9 20.15 10.1 Q21.2 8.7 22.25 8.0 L26.45 4.9 Q27.15 4.55 27.5 4.55 L27.85 4.55 Q33.75 14.65 46.3 14.65 57.45 14.65 63.05 4.55 L70.0 9.75 70.35 10.1 73.85 12.55 Q73.85 12.9 74.2 12.9 L78.7 17.05 77.65 19.5 76.25 21.25 74.2 24.7 73.85 29.95 Q74.55 31.35 74.55 33.4 74.55 34.45 74.85 35.5 L75.9 40.05 76.95 45.95 Q77.3 45.95 78.0 47.35 L78.0 48.05 77.65 48.05 72.8 51.5 Q72.45 51.85 71.4 52.2 L68.95 53.95 Q65.45 55.35 61.65 55.7 56.05 56.05 47.0 52.55 L45.6 53.25 44.9 53.25 42.45 54.3 39.0 55.35 33.75 56.05 Q31.3 56.05 27.5 55.0 25.4 54.65 22.95 53.6 L19.1 52.2 Q17.4 51.5 16.0 50.1 L12.85 47.7" fill="#9364bf" fill-rule="evenodd" stroke="none"/>
    <path d="M27.85 4.55 Q36.2 -0.7 46.65 0.0 56.4 0.35 62.7 4.55 L63.05 4.55 Q57.45 14.65 46.3 14.65 33.75 14.65 27.85 4.55" fill="#cbcbcb" fill-rule="evenodd" stroke="none"/>
    <path d="M16.35 81.75 Q17.4 77.25 21.55 73.4 L21.55 73.75 20.15 77.25 18.1 80.75 18.1 81.1 18.1 81.75 Q18.1 82.1 17.05 82.1 16.7 82.1 16.35 81.75" fill="#532280" fill-rule="evenodd" stroke="none"/>
    <path d="M44.9 53.25 L44.2 58.45 40.75 64.4 Q41.75 60.2 41.75 58.1 36.2 64.4 36.9 76.2 36.2 73.75 36.2 69.25 36.2 59.15 39.0 55.35 L42.45 54.3 44.9 53.25 M27.5 55.0 Q26.8 56.05 25.05 57.05 L20.5 59.15 17.05 62.3 Q15.3 64.05 13.2 64.4 14.95 62.65 18.1 57.05 L17.75 57.05 Q12.5 59.15 10.05 63.35 7.25 67.15 6.95 72.05 L6.95 67.85 Q6.95 66.45 7.6 64.4 L8.65 61.6 Q9.35 59.5 10.05 58.8 12.85 55.0 14.6 53.95 16.35 52.2 19.1 52.2 L22.95 53.6 Q25.4 54.65 27.5 55.0" fill="#6626a1" fill-rule="evenodd" stroke="none"/>
    <path d="M7.6 75.5 Q10.75 68.55 14.6 66.45 14.6 67.15 13.2 69.25 L12.15 72.75 Q11.8 73.75 12.15 76.9 11.8 79.0 10.75 79.7 L10.4 79.35 Q9.35 78.65 9.7 77.6 L9.35 76.2 8.3 75.5 7.6 75.5" fill="#8e4fc9" fill-rule="evenodd" stroke="none"/>
    <path d="M72.1 83.5 L69.65 83.85 Q70.0 84.55 67.2 85.25 L64.05 85.25 Q61.65 85.6 59.2 86.3 60.6 85.6 62.7 84.9 67.9 82.45 69.3 82.45 72.1 82.45 72.1 83.5 M40.4 87.0 L39.7 87.0 36.9 87.0 32.7 86.65 35.15 84.9 Q37.6 83.15 39.35 83.15 L40.75 83.15 42.45 84.2 42.45 85.25 Q42.1 85.25 40.4 86.3 L40.4 87.0" fill="#6a319f" fill-rule="evenodd" stroke="none"/>
    <path d="M43.15 86.65 Q42.8 81.1 44.9 76.55 45.6 75.15 46.3 74.45 L46.65 72.05 Q46.65 70.3 47.0 69.25 47.35 67.5 48.4 67.5 48.75 67.5 49.1 68.9 L49.1 70.3 Q49.1 70.65 49.45 71.0 49.8 73.75 51.9 77.25 L55.7 83.85 Q55.0 83.15 53.25 83.15 49.45 83.15 45.6 85.25 44.2 86.3 43.15 86.65" fill="#8f4ecb" fill-rule="evenodd" stroke="none"/>
    <path d="M55.7 86.65 Q53.95 87.7 51.9 87.0 L47.7 87.0 43.15 87.0 42.5 87.0 43.15 86.65 Q44.2 86.3 45.6 85.25 49.45 83.15 53.25 83.15 55.0 83.15 55.7 83.85 L55.7 84.2 55.7 85.25 Q55.35 85.6 55.35 85.95 55.35 86.3 55.7 86.65" fill="#59258a" fill-rule="evenodd" stroke="none"/>
    <path d="M92.65 72.05 L90.55 74.1 M-0.05 73.05 L-0.75 72.05 -0.85 72.0 M-1.45 71.0 Q-1.45 71.65 -0.85 72.0" fill="none" stroke="#4c0e62" stroke-linecap="round" stroke-linejoin="round" stroke-width="0.2"/>
    <path d="M60.6 26.45 Q57.8 26.1 58.5 25.75 57.8 19.15 58.85 13.6 59.9 8.35 63.35 4.55 63.7 4.55 64.05 5.25 59.2 15.65 60.6 26.45 M72.45 11.15 Q72.8 11.85 73.85 12.55 70.35 17.4 69.3 27.15 L67.55 27.15 Q68.25 19.15 72.45 11.15 M24.0 24.35 Q22.95 24.35 21.9 25.05 L21.9 22.65 Q21.55 20.9 20.15 17.75 18.4 14.65 16.35 12.2 L17.75 11.5 Q22.25 16.35 24.0 24.35 M26.1 5.25 Q26.45 4.9 26.8 4.9 27.15 4.55 27.5 4.55 29.9 6.65 31.65 13.25 33.4 19.5 33.05 25.05 L33.05 25.4 31.3 24.7 Q31.3 14.3 26.1 5.25" fill="#e3c6ff" fill-rule="evenodd" stroke="none"/>
    <path d="M64.05 5.25 Q68.6 8.35 70.0 9.75 L70.35 9.75 72.45 11.15 Q68.25 19.15 67.55 27.15 L60.95 26.8 Q60.6 26.8 60.6 26.45 59.2 15.65 64.05 5.25 M31.3 24.7 Q29.6 23.7 28.9 23.7 L25.4 24.0 24.0 24.35 Q22.25 16.35 17.75 11.5 18.75 10.45 20.15 9.75 L22.25 8.0 26.1 5.25 Q31.3 14.3 31.3 24.7" fill="#8d2e98" fill-rule="evenodd" stroke="none"/>
    <path d="M29.9 47.7 Q40.75 52.9 44.9 54.3 L45.25 54.3 45.6 54.65 Q44.9 57.05 42.8 61.95 40.75 67.5 40.75 70.3 39.7 76.55 38.65 78.3 36.9 81.4 31.65 80.75 20.5 79.0 9.7 72.4 -2.15 65.05 -2.5 57.05 L-2.5 55.35 Q-1.8 51.85 5.2 45.95 11.45 39.7 13.2 40.05 14.25 40.05 15.65 40.7 19.8 42.1 29.9 47.7" fill="#bf88f3" fill-opacity="0.4" fill-rule="evenodd" stroke="none"/>
    <path d="M89.5 55.35 L89.5 58.8 Q88.1 66.1 76.95 71.0 66.5 75.85 56.05 75.85 51.9 75.85 50.5 72.4 49.8 70.65 49.8 64.75 49.8 62.3 48.4 57.05 L47.0 49.4 47.35 49.4 Q51.9 48.35 60.95 48.35 69.65 48.05 71.75 46.3 73.85 44.55 74.85 43.85 76.25 43.15 82.9 48.05 89.85 53.25 89.5 55.35" fill="#d9b5fa" fill-opacity="0.4" fill-rule="evenodd" stroke="none"/>
    <path d="M81.15 48.05 L83.25 47.7 Q85.0 47.7 89.85 53.95 95.1 60.2 95.1 63.35 L95.1 64.75 Q94.05 72.05 82.55 76.55 72.45 81.1 61.65 81.1 57.8 81.1 56.4 77.95 55.7 76.2 55.7 70.65 L53.95 63.0 Q53.25 58.45 52.55 56.4 52.9 56.05 53.25 56.05 L67.2 52.2 Q77.3 49.05 81.15 48.05" fill="#a567de" fill-opacity="0.4" fill-rule="evenodd" stroke="none"/>
    <path d="M81.15 70.3 Q80.8 72.05 80.1 72.05 80.45 68.2 74.85 61.95 L74.55 61.95 76.6 68.2 Q74.55 66.8 71.4 63.0 L69.65 60.2 Q68.6 57.75 68.6 55.7 68.6 55.35 68.95 55.0 L71.4 53.25 Q72.45 52.9 72.8 52.55 76.25 53.6 78.7 58.45 81.15 62.65 81.15 67.5 L81.15 70.3" fill="#6a319f" fill-rule="evenodd" stroke="none"/>
    <path d="M39.0 56.7 Q40.75 56.4 42.45 55.35 44.2 55.0 44.9 54.3 L44.2 59.5 40.75 65.4 40.75 65.05 Q41.75 61.25 41.75 59.15 36.2 65.4 36.9 77.6 36.2 75.15 36.2 70.3 36.2 60.2 39.0 56.7 M22.95 55.0 L27.5 56.4 25.05 58.1 20.5 60.2 17.05 63.35 Q15.3 64.75 13.2 65.75 L13.2 65.4 Q14.95 63.7 18.1 58.1 L17.75 58.1 Q12.5 60.2 10.05 64.4 7.25 68.2 6.95 73.05 L6.95 68.55 Q6.95 67.5 7.6 65.75 7.95 64.4 8.65 62.65 9.35 60.55 10.05 59.85 12.85 56.4 14.6 55.0 16.35 53.25 19.1 53.25 L22.95 55.0" fill="#6626a1" fill-rule="evenodd" stroke="none"/>
    <path d="M47.7 49.4 L46.3 57.05 Q44.9 62.3 44.9 64.75 44.9 70.65 44.2 72.4 42.8 75.85 38.65 75.85 28.2 75.85 17.75 71.0 6.6 66.1 5.2 58.8 L5.2 57.05 Q5.2 53.6 10.75 47.0 15.65 40.7 17.4 40.7 L19.45 40.7 Q23.3 41.75 33.05 45.25 42.8 48.35 47.35 49.4 L47.7 49.4" fill="#e3c4ff" fill-opacity="0.4" fill-rule="evenodd" stroke="none"/>
    <path d="M68.95 19.5 L70.0 19.85 74.55 21.95 73.85 26.1 Q72.8 25.05 71.75 24.7 71.75 23.7 71.05 22.65 70.35 20.55 68.95 19.5 M50.15 56.7 Q48.05 55.35 46.3 53.25 43.5 56.05 41.05 57.05 L41.4 55.0 42.45 51.15 43.85 49.75 43.85 38.3 Q43.85 34.8 42.1 32.0 41.75 30.65 41.75 29.6 L40.75 25.4 Q43.15 28.2 44.55 30.65 46.65 34.1 47.7 33.4 L50.85 28.2 51.55 27.15 Q51.2 29.25 51.2 31.35 L51.2 32.7 Q49.8 35.15 49.45 38.3 L49.45 50.1 Q49.45 50.45 50.15 50.8 L50.15 51.15 50.15 55.35 50.15 56.7 M15.65 27.5 L16.35 22.65 Q18.1 21.25 20.15 20.2 20.15 21.25 19.45 22.65 18.75 23.7 18.75 24.7 17.05 25.75 15.65 27.5" fill="#b789e2" fill-rule="evenodd" stroke="none"/>
    <path d="M20.15 20.2 Q23.65 18.45 26.1 18.45 33.75 18.45 38.65 23.35 L40.75 25.4 41.75 29.6 Q41.75 30.65 42.1 32.0 41.4 31.35 41.05 30.65 L35.15 25.05 Q27.15 18.8 19.45 24.35 L19.1 24.35 19.1 24.7 18.75 24.7 Q18.75 23.7 19.45 22.65 20.15 21.25 20.15 20.2 M51.55 27.15 Q53.95 23.35 56.75 21.25 59.55 19.5 63.35 19.15 L68.6 19.5 68.95 19.5 Q70.35 20.55 71.05 22.65 71.75 23.7 71.75 24.7 L71.4 24.7 Q64.05 21.95 58.85 25.05 53.95 27.85 51.2 32.7 L51.2 31.35 Q51.2 29.25 51.55 27.15" fill="#e0c5fa" fill-rule="evenodd" stroke="none"/>
    <path d="M73.85 26.1 L76.95 43.5 70.35 48.35 Q69.65 48.7 68.95 49.4 L70.0 47.35 Q70.0 46.65 70.35 45.95 70.35 44.2 69.65 42.1 68.95 40.35 65.1 39.7 L67.9 39.0 Q68.95 39.0 69.65 38.3 71.4 36.55 72.45 33.75 72.8 32.0 72.1 28.2 L71.4 24.7 71.75 24.7 Q72.8 25.05 73.85 26.1 M13.55 42.45 Q15.65 37.95 15.65 27.5 17.05 25.75 18.75 24.7 L19.1 24.7 Q18.75 25.4 18.75 26.8 L18.75 27.15 18.1 28.9 18.1 29.6 Q18.1 34.1 20.5 36.55 22.25 38.65 26.45 40.05 L25.75 40.05 Q21.9 42.45 21.9 45.95 L21.9 47.35 21.9 47.7 Q17.75 45.95 13.9 42.1 L13.55 42.45" fill="#6f1579" fill-rule="evenodd" stroke="none"/>
    <path d="M51.2 32.7 Q53.95 27.85 58.85 25.05 64.05 21.95 71.4 24.7 L72.1 28.2 Q72.8 32.0 72.45 33.75 71.4 36.55 69.65 38.3 68.95 39.0 67.9 39.0 L65.1 39.7 Q68.95 40.35 69.65 42.1 70.35 44.2 70.35 45.95 70.0 46.65 70.0 47.35 L68.95 49.4 Q56.75 57.05 50.15 51.15 L50.15 50.8 Q49.45 50.45 49.45 50.1 L49.45 38.3 Q49.8 35.15 51.2 32.7 M19.1 24.7 L19.1 24.35 19.45 24.35 Q27.15 18.8 35.15 25.05 L41.05 30.65 Q41.4 31.35 42.1 32.0 43.85 34.8 43.85 38.3 L43.85 49.75 42.45 51.15 Q37.95 53.95 29.6 51.5 26.1 50.1 21.9 47.7 L21.9 47.35 21.9 45.95 Q21.9 42.45 25.75 40.05 L26.45 40.05 Q22.25 38.65 20.5 36.55 18.1 34.1 18.1 29.6 L18.1 28.9 18.75 27.15 18.75 26.8 Q18.75 25.4 19.1 24.7" fill="#7c1c87" fill-rule="evenodd" stroke="none"/>
    <path d="M69.3 54.65 Q67.9 55.0 66.15 56.05 61.3 58.8 55.35 58.1 L50.15 56.7 50.15 55.35 50.15 51.15 Q56.75 57.05 68.95 49.4 69.65 48.7 70.35 48.35 L69.3 54.65 M41.05 57.05 L40.75 57.05 34.45 57.4 Q30.25 57.05 26.1 55.7 25.05 55.0 24.35 55.0 L22.25 54.3 Q20.5 50.45 21.9 47.7 26.1 50.1 29.6 51.5 37.95 53.95 42.45 51.15 L41.4 55.0 41.05 57.05" fill="#e2c7fc" fill-rule="evenodd" stroke="none"/>
    <path d="M76.95 43.5 L78.35 47.0 Q78.35 47.7 78.7 48.35 77.3 49.75 69.3 54.65 L70.35 48.35 76.95 43.5" fill="#d0aef0" fill-rule="evenodd" stroke="none"/>
    <path d="M22.25 54.3 Q16.35 51.5 12.15 47.7 L12.5 44.55 13.55 42.8 13.55 42.45 13.9 42.1 Q17.75 45.95 21.9 47.7 20.5 50.45 22.25 54.3" fill="#cba6ee" fill-rule="evenodd" stroke="none"/>
    <path d="M40.8 40.5 Q40.0 41.3 38.9 41.3 37.8 41.3 37.0 40.5 36.25 39.75 36.25 38.6 36.25 37.5 37.0 36.75 37.8 35.95 38.9 35.95 40.0 35.95 40.8 36.75 41.55 37.5 41.55 38.6 41.55 39.75 40.8 40.5" fill="#4c0e62" fill-rule="evenodd" stroke="none"/>
    <path d="M40.8 49.7 Q40.0 50.5 38.9 50.5 37.8 50.5 37.0 49.7 36.25 48.95 36.25 47.8 36.25 46.7 37.0 45.95 37.8 45.15 38.9 45.15 40.0 45.15 40.8 45.95 41.55 46.7 41.55 47.8 41.55 48.95 40.8 49.7" fill="#4c0e62" fill-rule="evenodd" stroke="none"/>
    <path d="M56.1 40.5 Q55.3 41.3 54.2 41.3 53.1 41.3 52.3 40.5 51.55 39.75 51.55 38.6 51.55 37.5 52.3 36.75 53.1 35.95 54.2 35.95 55.3 35.95 56.1 36.75 56.85 37.5 56.85 38.6 56.85 39.75 56.1 40.5" fill="#4c0e62" fill-rule="evenodd" stroke="none"/>
    <path d="M56.1 49.7 Q55.3 50.5 54.2 50.5 53.1 50.5 52.3 49.7 51.55 48.95 51.55 47.8 51.55 46.7 52.3 45.95 53.1 45.15 54.2 45.15 55.3 45.15 56.1 45.95 56.85 46.7 56.85 47.8 56.85 48.95 56.1 49.7" fill="#4c0e62" fill-rule="evenodd" stroke="none"/>
    <path d="M48.4 43.15 L53.95 47.0 53.6 48.7 46.3 44.2 45.25 43.5 46.3 44.2 39.0 49.05 39.0 47.35 45.25 43.5 39.0 39.35 39.0 37.6 46.3 42.1 53.95 37.95 53.95 40.05 48.4 43.15 46.3 42.1 48.4 43.15" fill="#4c0e62" fill-rule="evenodd" stroke="none"/>
    <path d="M46.3 44.2 L53.6 48.7 53.95 47.0 48.4 43.15 46.3 42.1 39.0 37.6 39.0 39.35 45.25 43.5 46.3 44.2 39.0 49.05 39.0 47.35 45.25 43.5 M46.3 42.1 L53.95 37.95 53.95 40.05 48.4 43.15" fill="none" stroke="#4c0e62" stroke-linecap="round" stroke-linejoin="round" stroke-width="0.2"/>
  </g>
</svg>
