<?xml version="1.0" encoding="UTF-8" standalone="no"?>
<svg xmlns:xlink="http://www.w3.org/1999/xlink" height="217.9px" width="254.9px" xmlns="http://www.w3.org/2000/svg">
  <g transform="matrix(1.0, 0.0, 0.0, 1.0, 42.05, 39.9)">
    <path d="M85.75 -20.7 Q87.05 -22.05 88.7 -22.85 89.9 -23.55 91.4 -23.9 96.75 -25.4 104.2 -22.7 111.55 -20.05 124.85 -15.6 L128.7 -24.5 Q127.65 -25.55 127.1 -27.05 126.0 -29.9 127.3 -32.6 128.45 -35.35 131.35 -36.45 134.15 -37.5 136.9 -36.15 139.6 -35.0 140.65 -32.15 141.85 -29.3 140.55 -26.6 139.3 -23.9 136.45 -22.8 L135.35 -22.45 131.55 -13.35 132.4 -13.05 143.6 -9.05 152.95 -14.75 Q152.7 -16.25 153.1 -17.8 153.85 -20.8 156.45 -22.25 159.0 -23.8 161.95 -23.05 164.9 -22.3 166.35 -19.6 167.9 -17.1 167.1 -14.15 166.45 -11.15 163.8 -9.7 161.25 -8.15 158.25 -8.95 157.7 -9.05 157.15 -9.3 L151.4 -5.65 154.3 -3.9 Q157.85 -1.45 159.45 1.45 160.3 3.1 160.55 4.9 160.9 6.9 160.4 9.2 L170.95 12.8 155.1 32.85 Q166.2 46.55 170.05 63.1 177.75 81.2 178.95 101.75 179.45 108.8 179.2 115.95 L179.25 115.65 Q186.25 116.6 185.35 124.95 L209.6 122.35 Q213.0 171.2 166.65 175.0 L164.55 152.9 Q156.8 155.8 155.0 148.7 144.8 150.5 132.8 149.0 111.85 162.1 85.15 162.1 55.55 162.1 33.1 146.1 L17.3 145.55 Q15.55 152.8 7.5 149.9 L5.85 172.25 Q-41.35 169.45 -38.95 119.75 L-14.15 121.85 Q-15.15 113.55 -8.1 112.45 L-8.0 112.8 Q-8.45 105.5 -8.15 98.3 -7.35 76.75 0.55 57.7 L1.9 57.0 Q7.9 38.5 23.65 23.75 44.8 4.05 73.25 0.7 L73.35 -20.85 83.2 -17.35 Q84.25 -19.35 85.75 -20.7" fill="#663100" fill-rule="evenodd" stroke="none"/>
    <path d="M85.75 -20.7 Q87.05 -22.05 88.7 -22.85 89.9 -23.55 91.4 -23.9 96.75 -25.4 104.2 -22.7 111.55 -20.05 124.85 -15.6 L128.7 -24.5 Q127.65 -25.55 127.1 -27.05 126.0 -29.9 127.3 -32.6 128.45 -35.35 131.35 -36.45 134.15 -37.5 136.9 -36.15 139.6 -35.0 140.65 -32.15 141.85 -29.3 140.55 -26.6 139.3 -23.9 136.45 -22.8 L135.35 -22.45 131.55 -13.35 132.4 -13.05 143.6 -9.05 152.95 -14.75 Q152.7 -16.25 153.1 -17.8 153.85 -20.8 156.45 -22.25 159.0 -23.8 161.95 -23.05 164.9 -22.3 166.35 -19.6 167.9 -17.1 167.1 -14.15 166.45 -11.15 163.8 -9.7 161.25 -8.15 158.25 -8.95 157.7 -9.05 157.15 -9.3 L151.4 -5.65 154.3 -3.9 Q157.85 -1.45 159.45 1.45 160.3 3.1 160.55 4.9 160.9 6.9 160.4 9.2 L170.95 12.8 155.1 32.85 Q166.2 46.55 170.05 63.1 177.75 81.2 178.95 101.75 179.45 108.8 179.2 115.95 L179.25 115.65 Q186.25 116.6 185.35 124.95 L209.6 122.35 Q213.0 171.2 166.65 175.0 L164.55 152.9 Q156.8 155.8 155.0 148.7 144.8 150.5 132.8 149.0 111.85 162.1 85.15 162.1 55.55 162.1 33.1 146.1 L17.3 145.55 Q15.55 152.8 7.5 149.9 L5.85 172.25 Q-41.35 169.45 -38.95 119.75 L-14.15 121.85 Q-15.15 113.55 -8.1 112.45 L-8.0 112.8 Q-8.45 105.5 -8.15 98.3 -7.35 76.75 0.55 57.7 L1.9 57.0 Q7.9 38.5 23.65 23.75 44.8 4.05 73.25 0.7 L73.35 -20.85 83.2 -17.35 Q84.25 -19.35 85.75 -20.7 Z" fill="none" stroke="#4c0e62" stroke-linecap="round" stroke-linejoin="round" stroke-width="6.0"/>
    <path d="M0.05 128.5 L8.45 137.15 5.85 172.25 Q-24.1 170.45 -34.05 149.85 -10.45 145.65 0.05 128.5" fill="#7c1c87" fill-rule="evenodd" stroke="none"/>
    <path d="M0.05 128.5 Q-10.45 145.65 -34.05 149.85 -39.85 137.9 -38.95 119.75 L-5.85 122.5 0.05 128.5" fill="#a434b1" fill-rule="evenodd" stroke="none"/>
    <path d="M0.55 57.7 L5.05 55.45 Q8.15 54.05 14.15 53.0 L25.3 52.2 Q32.05 52.55 38.15 55.2 45.55 58.05 50.0 60.05 58.25 63.7 60.05 66.1 67.3 76.15 69.4 80.0 72.65 85.8 73.9 93.7 75.1 101.0 74.45 108.9 74.15 113.55 72.75 123.6 72.2 127.9 69.35 131.35 66.75 134.45 62.65 136.45 59.0 138.9 54.3 140.95 47.45 144.1 41.2 145.1 25.55 147.65 12.8 144.65 -4.25 140.45 -6.45 126.9 -8.75 112.4 -8.15 98.3 -7.35 76.75 0.55 57.7" fill="#7c1c87" fill-rule="evenodd" stroke="none"/>
    <path d="M-4.5 141.25 L-4.15 141.3 Q0.3 141.65 2.8 139.9 4.8 138.5 5.55 135.7 10.55 140.9 17.3 145.4 15.4 153.9 5.05 148.85 -0.45 145.65 -4.5 141.25" fill="#cdcdcd" fill-rule="evenodd" stroke="none"/>
    <path d="M5.55 135.7 Q4.8 138.5 2.8 139.9 0.3 141.65 -4.15 141.3 L-4.5 141.25 Q-10.25 135.05 -13.1 126.55 -16.95 113.85 -8.1 112.45 -4.55 125.45 5.55 135.7" fill="#ffffff" fill-rule="evenodd" stroke="none"/>
    <path d="M-9.2 117.4 Q-7.85 117.5 -7.0 118.55 -6.1 119.6 -6.25 121.0 -6.35 122.3 -7.35 123.2 -8.4 124.05 -9.75 123.95 -11.15 123.85 -12.0 122.8 -12.9 121.75 -12.8 120.45 -12.65 119.05 -11.65 118.15 -10.6 117.3 -9.2 117.4" fill="url(#gradient0)" fill-rule="evenodd" stroke="none"/>
    <path d="M-9.65 122.85 Q-10.55 122.8 -11.15 122.1 -11.75 121.4 -11.7 120.5 -11.6 119.6 -10.9 119.0 -10.2 118.45 -9.3 118.5 -8.45 118.6 -7.85 119.25 -7.25 119.95 -7.35 120.85 -7.4 121.75 -8.1 122.35 -8.8 122.95 -9.65 122.85" fill="url(#gradient1)" fill-rule="evenodd" stroke="none"/>
    <path d="M0.85 135.3 Q0.75 136.6 -0.35 137.55 -1.4 138.4 -2.75 138.3 -4.15 138.15 -5.0 137.15 -5.8 136.05 -5.7 134.75 -5.6 133.35 -4.6 132.5 -3.6 131.6 -2.2 131.75 -0.85 131.85 0.05 132.9 0.95 133.9 0.85 135.3" fill="url(#gradient2)" fill-rule="evenodd" stroke="none"/>
    <path d="M-4.6 134.8 Q-4.55 133.9 -3.85 133.3 -3.15 132.75 -2.3 132.85 -1.4 132.9 -0.85 133.55 -0.25 134.25 -0.3 135.15 -0.4 136.05 -1.1 136.65 -1.75 137.25 -2.65 137.2 -3.5 137.1 -4.1 136.4 -4.7 135.7 -4.6 134.8" fill="url(#gradient3)" fill-rule="evenodd" stroke="none"/>
    <path d="M6.8 142.7 Q7.9 141.85 9.25 141.95 10.6 142.05 11.5 143.1 12.4 144.05 12.3 145.45 12.15 146.8 11.15 147.7 10.05 148.6 8.7 148.5 7.35 148.4 6.45 147.3 5.6 146.3 5.75 144.95 5.85 143.55 6.8 142.7" fill="url(#gradient4)" fill-rule="evenodd" stroke="none"/>
    <path d="M8.8 147.35 Q7.95 147.3 7.35 146.6 6.75 145.9 6.85 144.95 6.9 144.1 7.6 143.5 8.3 143.0 9.15 143.05 10.05 143.1 10.65 143.8 11.25 144.5 11.2 145.35 11.1 146.3 10.4 146.9 9.7 147.4 8.8 147.35" fill="url(#gradient5)" fill-rule="evenodd" stroke="none"/>
    <path d="M171.15 132.2 L177.1 125.8 209.6 122.35 Q210.55 136.2 207.55 146.4 201.0 147.4 189.45 142.85 177.85 138.35 171.15 132.2" fill="#a434b1" fill-rule="evenodd" stroke="none"/>
    <path d="M207.55 146.4 Q199.9 172.3 166.65 175.0 L163.35 140.5 171.15 132.2 Q177.85 138.35 189.45 142.85 201.0 147.4 207.55 146.4" fill="#7c1c87" fill-rule="evenodd" stroke="none"/>
    <path d="M169.55 62.0 Q177.7 80.6 178.95 101.75 179.95 115.55 177.9 129.85 176.05 143.3 159.35 147.75 146.9 150.95 131.4 148.8 125.25 148.05 118.5 145.0 113.9 143.15 110.2 140.75 106.15 138.95 103.45 135.85 100.6 132.55 99.95 128.4 98.4 118.5 97.95 113.85 97.15 106.2 98.15 98.95 99.15 91.2 102.25 85.35 104.25 81.55 111.2 71.5 112.85 69.1 121.0 65.35 125.3 63.3 132.5 60.35 138.45 57.55 145.1 57.1 L156.05 57.6 Q162.0 58.5 165.05 59.85 L169.55 62.0" fill="#7c1c87" fill-rule="evenodd" stroke="none"/>
    <path d="M167.35 137.85 Q176.2 127.95 179.25 115.65 187.95 116.85 184.4 129.4 181.85 137.85 176.4 144.05 173.0 143.75 170.5 141.9 168.5 140.4 167.35 137.85" fill="#ffffff" fill-rule="evenodd" stroke="none"/>
    <path d="M167.35 137.85 Q168.5 140.4 170.5 141.9 173.0 143.75 176.4 144.05 172.45 148.45 167.1 151.75 157.0 156.95 154.95 148.6 162.15 143.6 167.35 137.85" fill="#cdcdcd" fill-rule="evenodd" stroke="none"/>
    <path d="M183.45 125.45 Q183.5 126.75 182.7 127.75 181.75 128.75 180.4 128.8 179.05 128.9 178.1 127.95 177.05 127.1 177.0 125.8 176.95 124.45 177.85 123.4 178.75 122.45 180.05 122.35 181.45 122.3 182.45 123.15 183.4 124.05 183.45 125.45" fill="url(#gradient6)" fill-rule="evenodd" stroke="none"/>
    <path d="M181.8 127.05 Q181.25 127.7 180.3 127.7 179.45 127.75 178.8 127.2 178.15 126.55 178.1 125.65 178.05 124.8 178.65 124.15 179.25 123.5 180.1 123.45 181.0 123.45 181.65 124.0 182.3 124.55 182.35 125.45 182.45 126.35 181.8 127.05" fill="url(#gradient7)" fill-rule="evenodd" stroke="none"/>
    <path d="M175.45 141.0 Q174.55 142.0 173.2 142.1 171.9 142.15 170.9 141.25 169.85 140.35 169.8 139.0 169.7 137.65 170.65 136.7 171.5 135.7 172.85 135.65 174.2 135.55 175.25 136.45 176.15 137.3 176.25 138.65 176.3 139.95 175.45 141.0" fill="url(#gradient8)" fill-rule="evenodd" stroke="none"/>
    <path d="M175.2 138.7 Q175.2 139.6 174.6 140.3 174.0 140.95 173.15 141.0 172.3 141.0 171.6 140.4 170.9 139.8 170.9 138.9 170.85 138.05 171.5 137.35 172.05 136.7 172.95 136.7 173.8 136.65 174.5 137.25 175.15 137.85 175.2 138.7" fill="url(#gradient9)" fill-rule="evenodd" stroke="none"/>
    <path d="M164.55 150.95 Q163.65 151.95 162.25 152.0 160.95 152.05 159.95 151.15 158.95 150.25 158.9 148.95 158.8 147.6 159.75 146.6 160.65 145.6 161.95 145.55 163.3 145.5 164.3 146.35 165.25 147.25 165.35 148.65 165.4 149.95 164.55 150.95" fill="url(#gradient10)" fill-rule="evenodd" stroke="none"/>
    <path d="M162.0 146.65 Q162.85 146.6 163.5 147.2 164.2 147.75 164.25 148.65 164.3 149.55 163.7 150.25 163.05 150.85 162.15 150.9 161.3 150.95 160.65 150.35 160.05 149.75 160.0 148.85 159.95 148.0 160.5 147.3 161.15 146.7 162.0 146.65" fill="url(#gradient11)" fill-rule="evenodd" stroke="none"/>
    <path d="M146.55 23.75 Q172.0 47.5 172.0 81.05 172.0 114.6 146.55 138.35 121.1 162.1 85.15 162.1 49.15 162.1 23.65 138.35 -1.75 114.6 -1.75 81.05 -1.75 47.5 23.65 23.75 49.15 0.0 85.15 0.0 121.1 0.0 146.55 23.75" fill="#7c1c87" fill-rule="evenodd" stroke="none"/>
    <path d="M140.85 40.8 Q164.15 60.7 164.15 88.8 164.15 116.85 140.85 136.75 117.6 156.6 84.65 156.6 51.7 156.6 28.3 136.75 5.05 116.85 5.05 88.8 5.05 60.7 28.3 40.8 51.7 20.95 84.65 20.95 117.6 20.95 140.85 40.8" fill="#a434b1" fill-rule="evenodd" stroke="none"/>
    <path d="M73.35 -16.15 L73.35 -20.85 83.2 -17.35 Q116.45 7.15 160.4 9.2 L170.95 12.8 168.0 16.65 Q112.85 13.5 73.35 -16.15 M164.85 20.65 L154.65 33.35 Q108.45 31.6 73.2 5.15 L73.25 -11.1 Q112.4 19.8 164.85 20.65 M151.2 37.9 L149.3 40.2 Q101.65 44.25 73.15 13.8 L73.2 10.9 Q105.25 38.1 151.2 37.9" fill="#ffffff" fill-rule="evenodd" stroke="none"/>
    <path d="M73.25 -11.1 L73.35 -16.15 Q112.85 13.5 168.0 16.65 L164.85 20.65 Q112.4 19.8 73.25 -11.1 M154.65 33.35 L151.2 37.9 Q105.25 38.1 73.2 10.9 L73.2 5.15 Q108.45 31.6 154.65 33.35" fill="#b149d7" fill-rule="evenodd" stroke="none"/>
    <path d="M83.2 -17.35 Q84.25 -19.35 85.75 -20.7 87.05 -22.05 88.7 -22.85 89.9 -23.55 91.4 -23.9 96.75 -25.4 104.2 -22.7 113.55 -19.35 132.4 -13.05 135.8 -11.8 143.65 -9.05 150.5 -6.5 154.3 -3.9 157.85 -1.45 159.45 1.45 160.3 3.1 160.55 4.9 160.9 6.9 160.4 9.2 116.45 7.15 83.2 -17.35" fill="#e2e2e2" fill-rule="evenodd" stroke="none"/>
    <path d="M127.3 -32.6 Q128.45 -35.35 131.35 -36.45 134.15 -37.5 136.9 -36.15 139.6 -35.0 140.65 -32.15 141.85 -29.3 140.55 -26.6 139.3 -23.9 136.45 -22.8 L135.35 -22.45 129.7 -8.95 Q124.75 -8.1 123.15 -11.65 L128.7 -24.5 Q127.65 -25.55 127.1 -27.05 126.0 -29.9 127.3 -32.6" fill="#898989" fill-rule="evenodd" stroke="none"/>
    <path d="M133.55 -27.4 Q131.6 -27.4 130.2 -28.65 128.85 -29.8 128.85 -31.55 128.85 -33.3 130.2 -34.5 131.6 -35.7 133.55 -35.7 135.55 -35.7 136.9 -34.5 138.3 -33.3 138.3 -31.55 138.3 -29.8 136.9 -28.65 135.55 -27.4 133.55 -27.4" fill="#bdbdbd" fill-rule="evenodd" stroke="none"/>
    <path d="M130.9 -30.7 Q130.0 -31.45 130.0 -32.6 130.0 -33.75 130.9 -34.55 131.8 -35.35 133.1 -35.35 134.4 -35.35 135.3 -34.55 136.2 -33.75 136.2 -32.6 136.2 -31.45 135.3 -30.7 134.4 -29.9 133.1 -29.9 131.8 -29.9 130.9 -30.7" fill="#e9e9e9" fill-rule="evenodd" stroke="none"/>
    <path d="M140.95 -7.45 L152.95 -14.75 Q152.7 -16.25 153.1 -17.8 153.85 -20.8 156.45 -22.25 159.0 -23.8 161.95 -23.05 164.9 -22.3 166.35 -19.6 167.9 -17.1 167.1 -14.15 166.45 -11.15 163.8 -9.7 161.25 -8.15 158.25 -8.95 157.7 -9.05 157.15 -9.3 L144.75 -1.5 Q140.2 -3.65 140.95 -7.45" fill="#898989" fill-rule="evenodd" stroke="none"/>
    <path d="M158.2 -14.15 Q156.6 -15.25 156.15 -17.05 155.75 -18.8 156.75 -20.2 157.75 -21.65 159.55 -21.85 161.4 -22.0 163.0 -20.9 164.6 -19.75 165.05 -18.0 165.45 -16.2 164.45 -14.75 163.45 -13.35 161.65 -13.2 159.8 -13.0 158.2 -14.15" fill="#bdbdbd" fill-rule="evenodd" stroke="none"/>
    <path d="M159.25 -16.4 Q158.2 -17.15 157.95 -18.35 157.65 -19.5 158.3 -20.45 158.95 -21.35 160.15 -21.45 161.35 -21.65 162.4 -20.9 163.5 -20.15 163.7 -18.95 164.0 -17.75 163.35 -16.85 162.7 -15.9 161.5 -15.85 160.35 -15.65 159.25 -16.4" fill="#e9e9e9" fill-rule="evenodd" stroke="none"/>
  </g>
  <defs>
    <linearGradient gradientTransform="matrix(2.0E-4, -0.004, 0.004, 2.0E-4, -9.55, 120.7)" gradientUnits="userSpaceOnUse" id="gradient0" spreadMethod="pad" x1="-819.2" x2="819.2">
      <stop offset="0.0" stop-color="#a3a3a3"/>
      <stop offset="1.0" stop-color="#666666"/>
    </linearGradient>
    <linearGradient gradientTransform="matrix(-2.0E-4, 0.0026, -0.0026, -2.0E-4, -9.45, 120.65)" gradientUnits="userSpaceOnUse" id="gradient1" spreadMethod="pad" x1="-819.2" x2="819.2">
      <stop offset="0.0" stop-color="#ffffff"/>
      <stop offset="1.0" stop-color="#afafaf"/>
    </linearGradient>
    <linearGradient gradientTransform="matrix(2.0E-4, -0.004, 0.004, 2.0E-4, -2.5, 135.05)" gradientUnits="userSpaceOnUse" id="gradient2" spreadMethod="pad" x1="-819.2" x2="819.2">
      <stop offset="0.0" stop-color="#9c9c9c"/>
      <stop offset="1.0" stop-color="#585858"/>
    </linearGradient>
    <linearGradient gradientTransform="matrix(-2.0E-4, 0.0026, -0.0026, -2.0E-4, -2.4, 135.0)" gradientUnits="userSpaceOnUse" id="gradient3" spreadMethod="pad" x1="-819.2" x2="819.2">
      <stop offset="0.0" stop-color="#ffffff"/>
      <stop offset="1.0" stop-color="#878787"/>
    </linearGradient>
    <linearGradient gradientTransform="matrix(2.0E-4, -0.004, 0.004, 2.0E-4, 9.0, 145.2)" gradientUnits="userSpaceOnUse" id="gradient4" spreadMethod="pad" x1="-819.2" x2="819.2">
      <stop offset="0.0" stop-color="#9f9f9f"/>
      <stop offset="1.0" stop-color="#3f3f3f"/>
    </linearGradient>
    <linearGradient gradientTransform="matrix(-2.0E-4, 0.0026, -0.0026, -2.0E-4, 9.05, 145.15)" gradientUnits="userSpaceOnUse" id="gradient5" spreadMethod="pad" x1="-819.2" x2="819.2">
      <stop offset="0.0" stop-color="#ffffff"/>
      <stop offset="1.0" stop-color="#a1a1a1"/>
    </linearGradient>
    <linearGradient gradientTransform="matrix(0.0, -0.0039, -0.0039, 0.0, 180.25, 125.6)" gradientUnits="userSpaceOnUse" id="gradient6" spreadMethod="pad" x1="-819.2" x2="819.2">
      <stop offset="0.0" stop-color="#a3a3a3"/>
      <stop offset="1.0" stop-color="#666666"/>
    </linearGradient>
    <linearGradient gradientTransform="matrix(2.0E-4, 0.0026, 0.0026, -2.0E-4, 180.15, 125.55)" gradientUnits="userSpaceOnUse" id="gradient7" spreadMethod="pad" x1="-819.2" x2="819.2">
      <stop offset="0.0" stop-color="#ffffff"/>
      <stop offset="1.0" stop-color="#afafaf"/>
    </linearGradient>
    <linearGradient gradientTransform="matrix(0.0, -0.0039, -0.0039, 0.0, 173.1, 138.85)" gradientUnits="userSpaceOnUse" id="gradient8" spreadMethod="pad" x1="-819.2" x2="819.2">
      <stop offset="0.0" stop-color="#9c9c9c"/>
      <stop offset="1.0" stop-color="#585858"/>
    </linearGradient>
    <linearGradient gradientTransform="matrix(2.0E-4, 0.0026, 0.0026, -2.0E-4, 173.0, 138.8)" gradientUnits="userSpaceOnUse" id="gradient9" spreadMethod="pad" x1="-819.2" x2="819.2">
      <stop offset="0.0" stop-color="#ffffff"/>
      <stop offset="1.0" stop-color="#878787"/>
    </linearGradient>
    <linearGradient gradientTransform="matrix(0.0, -0.0039, -0.0039, 0.0, 162.15, 148.8)" gradientUnits="userSpaceOnUse" id="gradient10" spreadMethod="pad" x1="-819.2" x2="819.2">
      <stop offset="0.0" stop-color="#9f9f9f"/>
      <stop offset="1.0" stop-color="#3f3f3f"/>
    </linearGradient>
    <linearGradient gradientTransform="matrix(2.0E-4, 0.0026, 0.0026, -2.0E-4, 162.05, 148.75)" gradientUnits="userSpaceOnUse" id="gradient11" spreadMethod="pad" x1="-819.2" x2="819.2">
      <stop offset="0.0" stop-color="#ffffff"/>
      <stop offset="1.0" stop-color="#a1a1a1"/>
    </linearGradient>
  </defs>
</svg>
