<?xml version="1.0" encoding="UTF-8" standalone="no"?>
<svg xmlns:xlink="http://www.w3.org/1999/xlink" height="15.6px" width="9.0px" xmlns="http://www.w3.org/2000/svg">
  <g transform="matrix(1.0, 0.0, 0.0, 1.0, 2.0, 1.7)">
    <path d="M2.2 -1.2 Q3.3 -1.2 4.05 -0.3 L4.65 0.8 4.8 1.05 5.15 1.4 Q5.8 1.4 6.15 2.5 6.5 3.2 6.5 4.1 L6.1 6.05 5.95 6.05 5.95 6.0 5.9 6.0 Q5.75 7.55 5.2 8.75 L5.1 8.9 5.05 9.0 5.0 9.05 4.85 9.4 4.8 9.4 4.35 10.05 4.15 10.3 4.1 10.35 4.1 12.35 Q1.85 14.5 0.2 12.35 L0.2 10.25 -0.3 9.6 -0.45 9.4 -0.6 9.1 -0.7 8.9 -0.85 8.6 Q-1.5 7.15 -1.5 5.25 L-1.3 3.3 -1.0 2.25 -0.45 1.05 -0.2 0.7 Q0.0 0.15 0.35 -0.3 1.1 -1.2 2.2 -1.2 M5.4 2.3 L5.75 3.5 5.9 4.65 5.9 5.25 5.9 5.65 6.0 5.4 6.15 4.7 6.15 4.35 5.7 2.85 5.4 2.3" fill="#000000" fill-rule="evenodd" stroke="none"/>
    <path d="M2.2 -1.2 Q3.3 -1.2 4.05 -0.3 L4.65 0.8 4.8 1.05 5.15 1.4 Q5.8 1.4 6.15 2.5 6.5 3.2 6.5 4.1 L6.1 6.05 5.95 6.05 5.95 6.0 5.9 6.0 Q5.75 7.55 5.2 8.75 L5.1 8.9 5.05 9.0 5.0 9.05 4.85 9.4 4.8 9.4 4.35 10.05 4.15 10.3 4.1 10.35 4.1 12.35 Q1.85 14.5 0.2 12.35 L0.2 10.25 -0.3 9.6 -0.45 9.4 -0.6 9.1 -0.7 8.9 -0.85 8.6 Q-1.5 7.15 -1.5 5.25 L-1.3 3.3 -1.0 2.25 -0.45 1.05 -0.2 0.7 Q0.0 0.15 0.35 -0.3 1.1 -1.2 2.2 -1.2 M5.4 2.3 L5.75 3.5 5.9 4.65 5.9 5.25 5.9 5.65 6.0 5.4 6.15 4.7 6.15 4.35 5.7 2.85 5.4 2.3" fill="none" stroke="#000000" stroke-linecap="round" stroke-linejoin="round" stroke-opacity="0.49803922" stroke-width="1.0"/>
    <path d="M-0.2 0.7 Q0.0 0.15 0.35 -0.3 1.1 -1.2 2.2 -1.2 3.3 -1.2 4.05 -0.3 L4.65 0.8 4.7 1.05 4.45 1.1 Q3.65 0.1 2.35 0.1 0.45 0.1 -0.3 1.2 L-0.2 0.7" fill="#ffffff" fill-rule="evenodd" stroke="none"/>
    <path d="M4.65 0.8 L4.8 1.05 4.7 1.05 4.65 0.8 M-1.3 3.3 L-1.0 2.25 -0.45 1.05 -0.2 0.7 -0.3 1.2 -0.35 1.5 -0.4 1.9 -0.35 2.4 -0.25 2.85 -0.15 3.15 0.1 3.7 0.1 5.0 Q0.2 5.95 0.55 6.4 L0.4 6.4 0.45 6.6 0.3 6.7 -0.4 7.4 -0.9 6.1 -1.35 4.0 -1.3 3.3 M5.4 2.3 L5.75 3.5 5.9 4.65 Q5.65 5.75 4.8 7.2 L4.75 7.15 4.7 7.15 4.4 6.8 3.8 6.35 4.05 4.7 4.0 4.15 4.05 4.05 4.2 3.9 4.35 3.7 4.7 2.9 4.8 2.0 4.85 1.9 5.1 1.7 5.4 2.3 M2.8 9.4 L2.8 9.2 2.55 8.6 2.1 8.4 2.0 8.4 Q1.65 8.45 1.65 8.7 1.4 8.85 1.4 9.25 L1.45 9.5 Q0.55 9.3 -0.1 8.4 L0.5 7.6 Q1.25 6.95 2.4 6.95 L3.35 7.2 3.9 7.75 4.25 8.4 3.65 9.0 2.8 9.4" fill="#ffd633" fill-rule="evenodd" stroke="none"/>
    <path d="M-0.3 1.2 Q0.45 0.1 2.35 0.1 3.65 0.1 4.45 1.1 L4.35 1.25 4.4 1.6 4.75 1.9 4.8 1.9 4.8 2.0 4.7 2.9 Q4.7 1.95 4.05 1.25 3.4 0.5 2.35 0.5 0.35 0.5 -0.35 2.4 L-0.4 1.9 -0.35 1.5 -0.3 1.2 M0.4 1.75 L0.6 1.55 Q1.15 1.1 2.2 1.1 3.15 1.1 3.75 1.8 L4.0 2.15 Q4.0 2.8 3.3 3.55 2.6 4.35 1.85 4.35 1.4 4.35 0.85 3.1 L0.4 1.75" fill="#fee4ab" fill-rule="evenodd" stroke="none"/>
    <path d="M5.0 9.05 L4.85 9.4 4.8 9.4 4.35 10.05 4.45 9.6 4.25 8.4 3.9 7.75 3.35 7.2 2.4 6.95 Q1.25 6.95 0.5 7.6 L-0.1 8.4 -0.35 9.45 -0.3 9.6 -0.45 9.4 -0.6 9.1 -0.7 8.9 Q-0.5 7.85 0.25 7.2 1.1 6.45 2.55 6.45 4.25 6.45 5.05 8.95 L5.0 9.05 M4.7 2.9 L4.35 3.7 4.35 3.45 Q4.35 2.7 4.0 2.15 L3.75 1.8 Q3.15 1.1 2.2 1.1 1.15 1.1 0.6 1.55 L0.4 1.75 Q0.0 2.15 -0.25 2.85 L-0.35 2.4 Q0.35 0.5 2.35 0.5 3.4 0.5 4.05 1.25 4.7 1.95 4.7 2.9" fill="#4fadec" fill-rule="evenodd" stroke="none"/>
    <path d="M5.9 6.0 Q5.75 7.55 5.2 8.75 L5.1 8.7 4.85 7.4 4.85 7.3 4.8 7.2 Q5.65 5.75 5.9 4.65 L5.9 5.25 5.9 5.65 5.85 5.7 5.85 6.0 5.9 6.0 M4.35 10.05 L4.15 10.3 4.1 10.35 3.3 10.9 2.9 11.05 2.8 11.1 2.2 11.15 1.55 11.05 1.05 10.9 0.2 10.25 -0.3 9.6 -0.35 9.45 -0.1 8.4 Q0.55 9.3 1.45 9.5 1.5 10.05 2.15 10.05 2.75 10.05 2.8 9.4 L3.65 9.0 4.25 8.4 4.45 9.6 4.35 10.05 M-0.85 8.6 Q-1.5 7.15 -1.5 5.25 L-1.3 3.3 -1.35 4.0 -0.9 6.1 -0.4 7.4 -0.45 7.5 -0.5 7.45 Q-0.75 7.35 -0.75 7.6 L-0.7 7.8 -0.65 7.8 -0.8 8.55 -0.85 8.6 M4.35 3.7 L4.2 3.9 4.05 4.05 4.0 4.15 Q3.25 5.0 2.2 5.0 1.1 5.0 0.35 4.05 L0.1 3.7 -0.15 3.15 -0.25 2.85 Q0.0 2.15 0.4 1.75 L0.85 3.1 Q1.4 4.35 1.85 4.35 2.6 4.35 3.3 3.55 4.0 2.8 4.0 2.15 4.35 2.7 4.35 3.45 L4.35 3.7" fill="#de9200" fill-rule="evenodd" stroke="none"/>
    <path d="M4.8 1.05 L5.15 1.4 4.95 1.45 5.1 1.7 4.85 1.9 4.8 1.9 4.75 1.9 4.4 1.6 4.35 1.25 4.45 1.1 4.7 1.05 4.8 1.05 M4.7 7.15 L4.75 7.15 4.8 7.2 4.85 7.3 4.85 7.4 4.8 7.45 4.65 7.5 4.5 7.45 4.5 7.15 4.7 7.15 M0.55 6.4 L0.65 6.35 0.75 6.45 0.75 6.5 0.65 6.7 0.45 6.7 0.45 6.6 0.4 6.4 0.55 6.4 M1.65 6.1 L1.6 5.95 1.85 5.9 1.9 6.05 1.9 6.15 1.65 6.2 1.65 6.1 M3.25 6.15 L3.25 6.1 3.6 6.15 3.6 6.25 3.55 6.35 3.3 6.35 3.25 6.15 M-0.7 8.9 L-0.7 8.7 -0.3 7.65 0.25 7.0 Q1.1 6.25 2.55 6.25 4.25 6.25 5.05 8.75 L5.05 8.8 5.1 8.9 5.05 8.95 Q4.25 6.45 2.55 6.45 1.1 6.45 0.25 7.2 -0.5 7.85 -0.7 8.9 M-0.45 7.5 L-0.45 7.75 -0.65 7.8 -0.7 7.8 -0.75 7.6 Q-0.75 7.35 -0.5 7.45 L-0.45 7.5 M1.95 8.85 L1.9 8.75 Q2.5 8.6 2.5 9.1 L2.35 9.45 2.0 9.7 1.7 9.3 Q1.7 9.0 1.95 8.85" fill="#a0d8ef" fill-rule="evenodd" stroke="none"/>
    <path d="M3.8 6.35 L4.4 6.8 4.7 7.15 4.5 7.15 4.5 7.45 4.65 7.5 4.8 7.45 4.85 7.4 5.1 8.7 5.1 8.9 5.05 8.8 5.05 8.75 Q4.25 6.25 2.55 6.25 1.1 6.25 0.25 7.0 L-0.3 7.65 -0.7 8.7 -0.7 8.9 -0.8 8.55 -0.65 7.8 -0.45 7.75 -0.45 7.5 -0.4 7.4 0.3 6.7 0.45 6.6 0.45 6.7 0.65 6.7 0.75 6.5 0.75 6.45 Q1.15 6.2 1.65 6.1 L1.65 6.2 1.9 6.15 1.9 6.05 2.35 6.0 3.25 6.15 3.3 6.35 3.55 6.35 3.6 6.25 3.8 6.35 M1.45 9.5 L1.4 9.25 Q1.4 8.85 1.65 8.7 1.65 8.45 2.0 8.4 L2.1 8.4 2.55 8.6 2.8 9.2 2.8 9.4 Q2.75 10.05 2.15 10.05 1.5 10.05 1.45 9.5 M1.95 8.85 Q1.7 9.0 1.7 9.3 L2.0 9.7 2.35 9.45 2.5 9.1 Q2.5 8.6 1.9 8.75 L1.95 8.85" fill="#1776b6" fill-rule="evenodd" stroke="none"/>
    <path d="M5.2 8.75 L5.1 8.9 5.05 9.0 5.0 9.05 5.05 8.95 5.1 8.9 5.1 8.7 5.2 8.75 M-0.7 8.9 L-0.85 8.6 -0.8 8.55 -0.7 8.9 M4.85 1.9 L4.8 2.0 4.8 1.9 4.85 1.9" fill="#000000" fill-rule="evenodd" stroke="none"/>
    <path d="M5.15 1.4 Q5.8 1.4 6.15 2.5 6.5 3.2 6.5 4.1 L6.1 6.05 5.95 6.05 5.95 6.0 5.9 6.0 5.85 6.0 5.85 5.7 5.9 5.65 6.0 5.4 6.15 4.7 6.15 4.35 5.7 2.85 5.4 2.3 5.1 1.7 4.95 1.45 5.15 1.4" fill="#0b507d" fill-rule="evenodd" stroke="none"/>
    <path d="M4.0 4.15 L4.05 4.7 3.8 6.35 3.6 6.25 3.6 6.15 3.25 6.1 3.25 6.15 2.35 6.0 1.9 6.05 1.85 5.9 1.6 5.95 1.65 6.1 Q1.15 6.2 0.75 6.45 L0.65 6.35 0.55 6.4 Q0.2 5.95 0.1 5.0 L0.1 3.7 0.35 4.05 Q1.1 5.0 2.2 5.0 3.25 5.0 4.0 4.15" fill="#fff2c4" fill-rule="evenodd" stroke="none"/>
    <path d="M3.3 10.9 L3.3 12.15 2.25 12.35 Q1.2 12.35 1.05 11.95 L1.1 11.4 1.05 10.9 1.55 11.05 1.45 11.85 Q1.5 12.05 2.1 12.05 L2.8 11.85 2.95 11.15 2.9 11.05 3.3 10.9" fill="#2993df" fill-rule="evenodd" stroke="none"/>
    <path d="M4.1 10.35 L4.1 12.35 Q1.85 14.5 0.2 12.35 L0.2 10.25 1.05 10.9 1.1 11.4 1.05 11.95 Q1.2 12.35 2.25 12.35 L3.3 12.15 3.3 10.9 4.1 10.35" fill="#0e66ae" fill-rule="evenodd" stroke="none"/>
    <path d="M2.9 11.05 L2.95 11.15 2.8 11.85 2.1 12.05 Q1.5 12.05 1.45 11.85 L1.55 11.05 2.2 11.15 2.8 11.1 2.9 11.05" fill="#1182cc" fill-rule="evenodd" stroke="none"/>
  </g>
</svg>
