<?xml version="1.0" encoding="UTF-8" standalone="no"?>
<svg xmlns:xlink="http://www.w3.org/1999/xlink" height="109.9px" width="98.8px" xmlns="http://www.w3.org/2000/svg">
  <g transform="matrix(1.0, 0.0, 0.0, 1.0, 8.25, 10.3)">
    <path d="M-5.05 48.7 L-8.25 40.1 -4.55 34.15 0.15 21.15 0.0 20.75 4.1 -9.5 11.3 -10.3 11.75 -6.65 68.0 -8.4 68.15 -10.25 75.2 -10.25 76.75 0.4 82.25 17.45 81.45 22.6 90.4 33.0 86.35 47.4 75.3 68.35 75.7 74.7 78.2 96.35 45.1 96.6 44.35 86.0 40.2 86.0 37.55 96.05 3.7 96.35 7.75 74.7 5.95 72.15 6.5 68.45 -5.05 48.7" fill="#51553c" fill-rule="evenodd" stroke="none"/>
    <path d="M-5.05 48.7 L6.5 68.45 5.95 72.15 7.75 74.7 3.7 96.35 37.55 96.05 40.2 86.0 44.35 86.0 45.1 96.6 78.2 96.35 75.7 74.7 75.3 68.35 86.35 47.4" fill="none" stroke="#411d14" stroke-linecap="round" stroke-linejoin="round" stroke-width="6.0"/>
    <path d="M82.25 17.7 L82.05 20.35 76.3 41.2 43.4 51.9 7.85 41.0 3.35 30.55 0.0 20.75 0.5 16.95 Q11.15 21.25 16.9 22.6 26.9 25.0 44.15 25.0 55.75 25.0 70.85 21.0 L82.25 17.7" fill="#e2e2e2" fill-rule="evenodd" stroke="none"/>
    <path d="M0.5 16.95 L3.65 -6.4 73.8 -8.6 82.25 17.45 82.25 17.7 70.85 21.0 Q55.75 25.0 44.15 25.0 26.9 25.0 16.9 22.6 11.15 21.25 0.5 16.95" fill="#adadad" fill-rule="evenodd" stroke="none"/>
    <path d="M1.15 16.1 Q2.9 5.85 4.1 -9.5 L11.3 -10.3 15.5 25.2 15.7 25.35 Q11.5 23.65 7.0 20.65 3.7 18.45 1.15 16.1 M64.95 24.15 L68.15 -10.25 75.2 -10.25 Q77.85 10.0 80.85 20.55 L71.0 22.85 64.95 24.15 M85.9 31.25 L90.2 32.6 90.55 32.95 89.9 37.65 Q88.85 42.4 86.35 47.4 L75.3 68.35 75.15 68.6 68.7 68.6 70.65 61.7 74.65 58.95 72.9 55.9 75.0 51.8 80.6 50.6 86.35 40.2 85.9 31.25" fill="#444532" fill-rule="evenodd" stroke="none"/>
    <path d="M15.7 25.35 Q36.6 38.45 64.8 25.85 L64.95 24.15 71.0 22.85 80.85 20.55 Q83.25 29.1 85.9 31.25 L86.35 40.2 80.6 50.6 75.0 51.8 72.9 55.9 74.65 58.95 70.65 61.7 68.7 68.6 50.05 68.65 33.7 68.55 18.45 68.65 14.2 61.85 8.7 58.75 6.55 54.15 7.15 51.55 -0.15 42.75 -4.55 34.15 Q-1.2 29.4 1.15 16.1 3.7 18.45 7.0 20.65 11.5 23.65 15.7 25.35" fill="#51553c" fill-rule="evenodd" stroke="none"/>
    <path d="M36.95 70.7 L37.0 72.6 46.4 72.55 46.5 70.7 36.95 70.7 M33.7 68.55 L50.05 68.65 49.85 74.65 33.9 74.7 33.7 68.55" fill="#fdd69b" fill-rule="evenodd" stroke="none"/>
    <path d="M36.95 70.7 L46.5 70.7 46.4 72.55 37.0 72.6 36.95 70.7" fill="#e38902" fill-rule="evenodd" stroke="none"/>
    <path d="M6.5 68.45 L2.85 61.8 Q-0.85 52.8 -3.8 47.9 -7.6 41.95 -8.25 40.1 L-4.55 34.15 -0.15 42.75 7.15 51.55 6.55 54.15 8.7 58.75 14.2 61.85 18.45 68.65 6.55 68.55 6.5 68.45" fill="#3f422d" fill-rule="evenodd" stroke="none"/>
    <path d="M75.3 68.35 L76.3 71.55 75.7 74.7 72.05 74.75 68.8 74.7 49.85 74.65 50.05 68.65 68.7 68.6 75.15 68.6 75.3 68.35 M7.95 74.7 L7.75 74.7 5.95 72.15 6.4 68.45 6.5 68.45 6.55 68.55 18.45 68.65 33.7 68.55 33.9 74.7 13.45 74.65 9.9 74.65 7.95 74.7" fill="#773c00" fill-rule="evenodd" stroke="none"/>
    <path d="M75.7 74.7 L78.2 96.35 74.9 96.3 72.05 74.75 75.7 74.7 M72.0 96.35 L45.1 96.6 44.35 86.0 40.2 86.0 37.55 96.05 9.6 96.35 13.45 74.65 33.9 74.7 49.85 74.65 68.8 74.7 72.0 96.35 M6.45 96.35 L3.7 96.35 7.95 74.7 9.9 74.65 6.45 96.35" fill="#f99706" fill-rule="evenodd" stroke="none"/>
    <path d="M74.9 96.3 L72.0 96.35 68.8 74.7 72.05 74.75 74.9 96.3 M9.6 96.35 L6.45 96.35 9.9 74.65 13.45 74.65 9.6 96.35" fill="#7c4b03" fill-rule="evenodd" stroke="none"/>
  </g>
</svg>
