<?xml version="1.0" encoding="UTF-8" standalone="no"?>
<svg xmlns:xlink="http://www.w3.org/1999/xlink" height="108.55px" width="95.85px" xmlns="http://www.w3.org/2000/svg">
  <g transform="matrix(1.0, 0.0, 0.0, 1.0, 6.3, 2.6)">
    <path d="M86.55 45.55 L86.55 45.9 86.55 46.65 85.1 50.3 85.1 50.65 84.0 53.2 83.3 54.3 73.4 70.75 73.8 73.3 74.15 75.9 73.8 78.05 73.05 80.65 75.25 100.0 69.05 101.1 63.55 101.85 63.2 99.25 Q63.2 97.8 62.45 98.55 61.7 99.25 61.7 102.2 L61.0 102.2 59.9 98.9 59.15 102.55 54.05 102.55 45.3 102.95 42.0 102.95 41.25 102.95 40.15 100.35 Q39.05 101.1 38.0 102.95 L37.25 102.95 Q37.25 101.45 35.8 98.55 L35.8 98.9 35.05 101.45 34.3 102.55 23.35 102.2 Q23.0 99.25 22.25 98.9 L21.55 101.45 Q21.15 101.85 21.15 102.2 20.8 101.85 20.05 101.85 L16.8 101.45 12.4 100.75 Q9.85 100.75 7.65 100.0 L10.2 86.85 10.2 86.5 11.65 80.65 11.3 80.65 9.85 76.25 9.85 71.5 Q9.85 69.3 7.65 66.75 L0.7 56.15 Q0.35 55.4 0.0 55.4 L-1.85 51.4 Q-1.85 50.65 -2.2 49.55 -2.95 48.1 -2.95 46.65 L-3.3 45.55 0.0 41.5 0.7 39.7 1.8 38.6 2.9 35.65 Q3.65 34.2 4.35 30.2 L5.45 26.55 Q5.8 25.05 5.8 22.85 L6.2 22.85 6.2 22.5 Q7.65 14.85 8.75 3.5 L17.15 2.05 Q47.1 -1.6 73.4 2.75 74.9 15.95 75.95 22.5 L76.7 25.8 Q77.05 28.0 77.45 29.1 L81.45 38.6 Q82.9 41.5 85.1 43.35 86.55 44.45 86.55 45.55" fill="#a3670f" fill-rule="evenodd" stroke="none"/>
    <path d="M86.55 45.55 L86.55 45.9 86.55 46.65 85.1 50.3 85.1 50.65 84.0 53.2 83.3 54.3 73.4 70.75 73.8 73.3 74.15 75.9 73.8 78.05 73.05 80.65 75.25 100.0 69.05 101.1 63.55 101.85 63.2 99.25 Q63.2 97.8 62.45 98.55 61.7 99.25 61.7 102.2 L61.0 102.2 59.9 98.9 59.15 102.55 54.05 102.55 45.3 102.95 42.0 102.95 41.25 102.95 40.15 100.35 Q39.05 101.1 38.0 102.95 L37.25 102.95 Q37.25 101.45 35.8 98.55 L35.8 98.9 35.05 101.45 34.3 102.55 23.35 102.2 Q23.0 99.25 22.25 98.9 L21.55 101.45 Q21.15 101.85 21.15 102.2 20.8 101.85 20.05 101.85 L16.8 101.45 12.4 100.75 Q9.85 100.75 7.65 100.0 L10.2 86.85 10.2 86.5 11.65 80.65 11.3 80.65 9.85 76.25 9.85 71.5 Q9.85 69.3 7.65 66.75 L0.7 56.15 Q0.35 55.4 0.0 55.4 L-1.85 51.4 Q-1.85 50.65 -2.2 49.55 -2.95 48.1 -2.95 46.65 L-3.3 45.55 0.0 41.5 0.7 39.7 1.8 38.6 2.9 35.65 Q3.65 34.2 4.35 30.2 L5.45 26.55 Q5.8 25.05 5.8 22.85 L6.2 22.85 6.2 22.5 Q7.65 14.85 8.75 3.5 L17.15 2.05 Q47.1 -1.6 73.4 2.75 74.9 15.95 75.95 22.5 L76.7 25.8 Q77.05 28.0 77.45 29.1 L81.45 38.6 Q82.9 41.5 85.1 43.35 86.55 44.45 86.55 45.55 Z" fill="none" stroke="#411d14" stroke-linecap="round" stroke-linejoin="round" stroke-width="6.0"/>
    <path d="M81.5 38.6 Q82.95 41.5 84.8 43.35 86.6 44.45 86.6 45.55 L86.6 45.9 86.6 46.65 85.15 50.3 85.15 50.65 84.05 53.2 83.35 54.3 82.6 55.4 Q77.85 57.6 69.45 57.95 L66.9 57.95 Q58.1 58.35 51.55 55.75 49.35 55.05 47.15 53.95 45.7 53.6 44.95 52.85 43.5 51.75 43.15 51.75 42.05 51.4 42.05 51.0 L41.7 49.9 Q41.7 51.4 40.6 52.5 L40.2 52.5 Q39.5 53.6 35.85 55.05 L33.65 55.4 Q31.45 56.5 29.6 56.85 L17.95 57.95 13.55 58.35 6.95 57.25 Q2.95 56.5 1.85 55.05 L-1.8 51.4 Q-1.8 50.65 -2.15 49.55 -2.9 48.1 -2.9 46.65 L-3.25 45.55 0.05 41.5 0.75 39.7 1.85 38.6 2.95 35.65 Q2.95 42.6 4.05 45.55 L4.05 47.0 Q5.85 51.4 9.55 52.1 13.9 53.6 18.65 53.2 L24.5 52.5 29.6 51.4 Q31.8 51.4 34.0 50.65 L36.2 49.55 Q37.65 48.85 38.4 48.85 L39.5 45.55 40.95 42.25 41.7 38.6 Q41.7 41.5 42.75 45.55 L43.5 47.75 45.7 49.55 53.75 52.1 Q60.7 54.3 68.7 53.6 76.75 53.2 78.95 49.55 L80.4 45.55 Q81.15 42.6 81.5 38.6 M42.75 50.65 L43.15 51.0 43.15 50.65 42.75 50.65" fill="#a66403" fill-rule="evenodd" stroke="none"/>
    <path d="M6.25 22.85 L6.25 22.5 8.8 3.5 13.55 2.4 Q11.0 22.85 22.3 30.2 13.9 28.0 6.25 22.85 M69.8 2.4 L73.45 2.75 Q74.95 15.95 76.0 22.5 L76.75 25.8 76.4 25.8 Q72.35 28.0 68.35 29.1 L59.2 31.65 Q69.45 28.0 69.8 2.4" fill="#f99706" fill-rule="evenodd" stroke="none"/>
    <path d="M54.45 34.2 Q53.75 35.3 51.2 36.4 49.35 37.85 49.0 40.05 49.0 42.25 49.7 44.45 L50.45 45.55 Q51.2 47.0 52.65 48.1 L51.9 48.1 48.6 47.75 Q47.15 47.0 46.05 45.55 L45.35 44.8 Q44.95 43.0 44.6 39.3 44.25 35.65 45.35 35.3 44.6 35.3 45.35 34.55 46.05 33.85 49.35 33.85 L54.45 34.2 M29.25 34.2 L30.35 34.2 Q32.55 34.2 34.0 34.95 37.65 35.65 37.65 38.25 37.65 42.25 35.45 45.55 32.9 49.2 29.6 48.85 L28.9 48.85 Q30.35 47.75 31.8 45.55 L32.2 45.15 Q34.0 42.25 34.0 39.7 34.0 38.25 31.45 37.15 L28.9 35.3 Q28.9 34.2 29.25 34.2" fill="#fcdb8b" fill-rule="evenodd" stroke="none"/>
    <path d="M2.95 35.65 Q4.4 31.65 5.5 26.9 L5.5 26.55 Q5.85 25.05 5.85 22.85 L6.25 22.85 Q13.9 28.0 22.3 30.2 L35.45 33.1 37.3 33.45 41.3 33.45 Q49.35 33.45 59.2 31.65 L68.35 29.1 Q72.35 28.0 76.4 25.8 L76.75 25.8 77.5 29.1 81.5 38.6 Q81.15 42.6 80.4 45.55 L78.95 49.55 Q76.75 53.2 68.7 53.6 60.7 54.3 53.75 52.1 L45.7 49.55 43.5 47.75 42.75 45.55 Q41.7 41.5 41.7 38.6 L40.95 42.25 39.5 45.55 38.4 48.85 Q37.65 48.85 36.2 49.55 L34.0 50.65 Q31.8 51.4 29.6 51.4 L24.5 52.5 18.65 53.2 Q13.9 53.6 9.55 52.1 5.85 51.4 4.05 47.0 L4.05 45.55 Q2.95 42.6 2.95 35.65 M54.45 34.2 L49.35 33.85 Q46.05 33.85 45.35 34.55 44.6 35.3 45.35 35.3 44.25 35.65 44.6 39.3 44.95 43.0 45.35 44.8 L46.05 45.55 Q47.15 47.0 48.6 47.75 L51.9 48.1 52.65 48.1 Q51.2 47.0 50.45 45.55 L49.7 44.45 Q49.0 42.25 49.0 40.05 49.35 37.85 51.2 36.4 53.75 35.3 54.45 34.2 M73.1 29.45 L71.25 29.8 70.55 30.9 Q70.2 30.9 70.2 31.3 70.2 31.65 70.9 32.0 71.65 32.4 72.75 32.4 73.45 32.0 74.2 33.1 74.95 33.45 74.95 34.2 76.0 35.3 76.0 37.5 L75.65 41.15 78.6 38.95 Q78.95 38.25 78.95 36.05 L77.5 32.0 Q76.4 29.1 75.65 29.45 L73.1 29.45 M10.25 29.8 Q9.55 29.45 8.8 29.45 7.7 29.45 6.25 32.75 5.15 35.65 5.15 37.15 5.15 37.85 5.85 38.95 L7.7 40.4 7.35 38.6 Q6.6 37.85 6.6 37.15 6.6 34.55 8.45 33.45 9.9 31.65 12.45 31.65 L11.7 30.55 Q11.7 30.2 11.35 30.2 L10.6 29.8 10.25 29.8 M29.25 34.2 Q28.9 34.2 28.9 35.3 L31.45 37.15 Q34.0 38.25 34.0 39.7 34.0 42.25 32.2 45.15 L31.8 45.55 Q30.35 47.75 28.9 48.85 L29.6 48.85 Q32.9 49.2 35.45 45.55 37.65 42.25 37.65 38.25 37.65 35.65 34.0 34.95 32.55 34.2 30.35 34.2 L29.25 34.2" fill="#ffa92a" fill-rule="evenodd" stroke="none"/>
    <path d="M13.55 2.4 L17.2 2.05 Q44.95 -1.6 69.8 2.4 69.45 28.0 59.2 31.65 49.35 33.45 41.3 33.45 L37.3 33.45 35.45 33.1 22.3 30.2 Q11.0 22.85 13.55 2.4" fill="#c47500" fill-rule="evenodd" stroke="none"/>
    <path d="M73.1 29.45 L75.65 29.45 Q76.4 29.1 77.5 32.0 L78.95 36.05 Q78.95 38.25 78.6 38.95 L75.65 41.15 76.0 37.5 Q76.0 35.3 74.95 34.2 74.95 33.45 74.2 33.1 73.45 32.0 72.75 32.4 71.65 32.4 70.9 32.0 70.2 31.65 70.2 31.3 70.2 30.9 70.55 30.9 L71.25 29.8 73.1 29.45 M10.25 29.8 L10.6 29.8 11.35 30.2 Q11.7 30.2 11.7 30.55 L12.45 31.65 Q9.9 31.65 8.45 33.45 6.6 34.55 6.6 37.15 6.6 37.85 7.35 38.6 L7.7 40.4 5.85 38.95 Q5.15 37.85 5.15 37.15 5.15 35.65 6.25 32.75 7.7 29.45 8.8 29.45 9.55 29.45 10.25 29.8" fill="#fcca6a" fill-rule="evenodd" stroke="none"/>
    <path d="M13.55 58.35 L17.95 57.95 29.6 56.85 Q31.45 56.5 33.65 55.4 L35.85 55.05 Q39.5 53.6 40.2 52.5 L40.6 52.5 Q41.7 51.4 41.7 49.9 L42.05 51.0 Q42.05 51.4 43.15 51.75 43.5 51.75 44.95 52.85 45.7 53.6 47.15 53.95 49.35 55.05 51.55 55.75 58.1 58.35 66.9 57.95 L69.45 57.95 69.8 59.8 Q69.8 63.45 66.9 67.85 64.7 71.85 62.15 71.5 L63.25 73.3 Q63.95 73.7 63.95 74.8 63.95 76.95 63.25 78.8 L62.5 78.8 Q49.7 83.9 39.5 83.2 29.6 81.75 18.65 77.7 18.3 76.6 18.3 75.15 18.3 73.3 19.05 72.95 L20.5 71.15 Q17.95 70.4 15.75 66.75 13.55 63.1 13.55 59.45 L13.55 58.35 M42.75 50.65 L43.15 50.65 43.15 51.0 42.75 50.65" fill="#d78101" fill-rule="evenodd" stroke="none"/>
    <path d="M82.6 55.4 L73.45 70.75 73.85 73.3 Q68.35 76.6 63.25 78.8 63.95 76.95 63.95 74.8 63.95 73.7 63.25 73.3 L62.15 71.5 Q64.7 71.85 66.9 67.85 69.8 63.45 69.8 59.8 L69.45 57.95 Q77.85 57.6 82.6 55.4 M9.9 74.05 L9.9 71.5 Q9.9 69.3 7.7 66.75 L0.75 56.15 Q0.4 55.4 0.05 55.4 L-1.8 51.4 1.85 55.05 Q2.95 56.5 6.95 57.25 L13.55 58.35 13.55 59.45 Q13.55 63.1 15.75 66.75 17.95 70.4 20.5 71.15 L19.05 72.95 Q18.3 73.3 18.3 75.15 18.3 76.6 18.65 77.7 14.3 76.25 9.9 74.05" fill="#af6901" fill-rule="evenodd" stroke="none"/>
    <path d="M73.85 78.05 L73.1 80.65 Q71.65 81.0 70.2 81.75 L68.0 82.8 65.8 83.2 65.05 83.9 57.4 86.5 53.75 86.85 52.25 87.2 49.35 87.95 46.8 87.95 42.75 88.3 40.6 88.3 39.5 87.95 39.1 87.95 34.35 87.55 34.0 87.55 31.45 86.85 29.25 86.5 25.25 85.4 Q25.25 85.0 24.85 85.0 L23.8 85.0 Q23.05 85.0 20.5 83.9 L19.05 83.2 Q17.95 83.2 16.1 82.45 L15.75 82.45 14.65 81.75 Q13.2 81.0 11.7 80.65 L11.35 80.65 10.6 78.45 Q26.35 85.75 39.85 86.1 L42.75 86.1 Q57.4 86.5 73.85 78.05" fill="#fcfbe3" fill-rule="evenodd" stroke="none"/>
    <path d="M12.45 100.75 Q9.9 100.75 7.7 100.0 L10.25 86.85 10.25 86.5 11.7 80.65 Q13.2 81.0 14.65 81.75 L15.75 82.45 16.1 82.45 Q17.95 83.2 19.05 83.2 20.1 84.3 17.95 83.9 L15.35 86.85 13.2 91.95 10.6 98.2 13.9 96.7 Q13.55 98.55 12.45 100.75" fill="#433323" fill-rule="evenodd" stroke="none"/>
    <path d="M42.05 102.95 L41.3 102.95 40.2 100.35 Q39.1 101.1 38.05 102.95 L37.3 102.95 Q37.3 101.45 35.85 98.55 L35.85 98.9 35.1 101.45 34.35 102.55 25.6 102.55 Q24.15 97.45 26.35 89.4 27.45 87.2 27.8 87.2 27.45 87.95 27.45 89.4 L27.05 91.95 27.05 94.5 28.15 91.6 Q30.0 87.95 31.45 86.85 L34.0 87.55 34.35 87.55 39.1 87.95 Q39.5 89.75 39.5 93.05 L41.3 89.05 Q41.7 89.4 41.7 90.5 L42.05 91.95 42.4 91.95 42.75 88.3 46.8 87.95 47.15 89.05 46.8 91.25 Q46.45 93.05 44.95 96.7 L43.5 100.75 41.7 98.9 Q42.75 101.1 42.4 102.2 42.05 102.55 42.05 102.95 M23.8 102.2 L23.4 102.2 Q23.05 99.25 22.3 98.9 L21.6 101.45 Q21.2 101.85 21.2 102.2 20.5 101.85 19.75 101.85 L16.85 101.45 12.45 100.75 Q13.55 98.55 13.9 96.7 L10.6 98.2 13.2 91.95 15.35 86.85 17.95 83.9 Q20.1 84.3 19.05 83.2 L20.5 83.9 Q23.05 85.0 23.8 85.0 L24.85 85.0 Q23.8 87.2 23.8 90.85 L23.8 91.6 Q22.7 97.8 23.8 102.2 M29.6 94.9 L29.25 96.35 28.55 99.65 30.7 100.35 32.2 100.35 34.0 94.9 35.85 92.7 37.3 91.25 Q36.95 90.5 36.95 90.15 36.55 89.75 35.85 90.15 L34.35 90.5 32.9 90.5 Q31.1 90.85 30.0 93.05 29.6 93.8 29.6 94.9" fill="#64503c" fill-rule="evenodd" stroke="none"/>
    <path d="M73.85 73.3 L74.2 75.9 73.85 78.05 Q57.4 86.5 42.75 86.1 L39.85 86.1 Q26.35 85.75 10.6 78.45 L9.9 76.25 9.9 74.05 Q14.3 76.25 18.65 77.7 29.6 81.75 39.5 83.2 49.7 83.9 62.5 78.8 L63.25 78.8 Q68.35 76.6 73.85 73.3" fill="#eacc86" fill-rule="evenodd" stroke="none"/>
    <path d="M25.6 102.55 L23.8 102.2 Q22.7 97.8 23.8 91.6 L23.8 90.85 Q23.8 87.2 24.85 85.0 25.25 85.0 25.25 85.4 L29.25 86.5 31.45 86.85 Q30.0 87.95 28.15 91.6 L27.05 94.5 27.05 91.95 27.45 89.4 Q27.45 87.95 27.8 87.2 27.45 87.2 26.35 89.4 24.15 97.45 25.6 102.55" fill="#413325" fill-rule="evenodd" stroke="none"/>
    <path d="M29.6 94.9 Q29.6 93.8 30.0 93.05 31.1 90.85 32.9 90.5 L34.35 90.5 35.85 90.15 Q36.55 89.75 36.95 90.15 36.95 90.5 37.3 91.25 L35.85 92.7 34.0 94.9 32.2 100.35 30.7 100.35 28.55 99.65 29.25 96.35 29.6 94.9" fill="#725d48" fill-rule="evenodd" stroke="none"/>
    <path d="M39.1 87.95 L39.5 87.95 40.6 88.3 42.75 88.3 42.4 91.95 42.05 91.95 41.7 90.5 Q41.7 89.4 41.3 89.05 L39.5 93.05 Q39.5 89.75 39.1 87.95" fill="#433426" fill-rule="evenodd" stroke="none"/>
    <path d="M43.85 102.95 L42.05 102.95 Q42.05 102.55 42.4 102.2 42.75 101.1 41.7 98.9 L43.5 100.75 44.95 96.7 Q46.45 93.05 46.8 91.25 L47.15 89.05 46.8 87.95 49.35 87.95 52.25 87.2 Q48.6 97.1 43.85 102.95" fill="#4a3928" fill-rule="evenodd" stroke="none"/>
    <path d="M69.1 101.1 L63.6 101.85 Q63.25 100.75 63.25 99.25 63.25 97.8 62.5 98.55 61.75 99.25 61.75 102.2 L61.05 102.2 59.95 98.9 59.2 102.55 55.95 102.55 Q53.0 99.25 51.55 92.35 53.35 88.65 53.75 86.85 L57.4 86.5 65.05 83.9 65.8 83.2 Q67.25 83.55 68.0 85.0 68.7 86.1 68.35 88.3 L69.1 87.2 Q69.1 86.85 69.8 86.85 70.9 86.85 71.25 90.85 71.25 92.7 71.65 95.6 L71.65 99.25 69.8 97.45 69.45 97.45 Q69.1 98.2 69.1 100.0 L69.1 101.1" fill="#3f2e1e" fill-rule="evenodd" stroke="none"/>
    <path d="M73.1 80.65 L75.3 100.0 69.1 101.1 69.1 100.0 Q69.1 98.2 69.45 97.45 L69.8 97.45 71.65 99.25 71.65 95.6 Q71.25 92.7 71.25 90.85 70.9 86.85 69.8 86.85 69.1 86.85 69.1 87.2 L68.35 88.3 Q68.7 86.1 68.0 85.0 67.25 83.55 65.8 83.2 L68.0 82.8 70.2 81.75 Q71.65 81.0 73.1 80.65 M55.95 102.55 L54.1 102.55 Q52.25 100.75 50.8 94.9 L47.5 100.35 45.7 102.95 45.35 102.95 43.85 102.95 Q48.6 97.1 52.25 87.2 L53.75 86.85 Q53.35 88.65 51.55 92.35 53.0 99.25 55.95 102.55" fill="#2e2115" fill-rule="evenodd" stroke="none"/>
    <path d="M54.1 102.55 L45.7 102.95 47.5 100.35 50.8 94.9 Q52.25 100.75 54.1 102.55" fill="#c8c8c8" fill-rule="evenodd" stroke="none"/>
    <path d="M32.55 59.8 Q32.2 60.5 32.2 61.6 32.2 62.0 32.55 62.0 34.75 62.0 35.85 60.9 L36.95 60.15 Q32.9 64.55 26.7 64.9 24.85 64.9 24.5 63.45 L31.45 60.5 32.55 59.8 M34.75 60.9 L34.75 60.5 Q35.1 60.15 35.45 60.15 L34.75 60.9 M37.3 73.7 Q36.55 75.5 34.75 76.95 33.3 77.7 31.45 76.6 L31.45 76.25 34.35 72.95 36.2 73.3 37.3 73.7 M49.35 59.45 Q54.85 61.25 57.0 63.8 55.95 64.9 51.2 63.45 49.35 62.7 47.9 61.6 L49.35 61.6 49.35 59.45 M46.8 72.95 L49.0 73.3 50.45 73.3 53.75 75.15 Q49.0 78.45 46.8 72.95" fill="#ffb74d" fill-rule="evenodd" stroke="none"/>
    <path d="M36.95 60.15 L35.85 60.9 Q34.75 62.0 32.55 62.0 32.2 62.0 32.2 61.6 32.2 60.5 32.55 59.8 32.55 59.45 32.9 59.05 33.65 56.85 35.85 56.85 L36.95 57.25 37.3 58.35 37.3 59.45 Q36.95 59.8 36.95 60.15 M34.75 60.9 L35.45 60.15 Q35.1 60.15 34.75 60.5 L34.75 60.9 M34.35 72.95 L34.0 72.6 Q33.65 71.85 33.65 71.15 33.65 70.05 35.85 69.3 38.4 68.95 38.4 71.15 38.4 73.7 37.3 73.7 L36.2 73.3 34.35 72.95 M47.9 61.6 Q46.05 61.25 45.35 59.8 44.6 58.7 44.6 57.6 44.6 56.15 47.15 56.5 49.35 57.25 49.35 58.7 L49.35 59.45 49.35 61.6 47.9 61.6 M50.45 73.3 L49.0 73.3 46.8 72.95 Q46.45 72.6 46.05 72.6 L46.05 71.15 Q46.05 68.2 48.6 69.3 51.2 69.65 51.2 71.5 L51.2 72.6 50.45 73.3" fill="#fcd78f" fill-rule="evenodd" stroke="none"/>
    <path d="M32.55 59.8 L31.45 60.5 24.5 63.45 Q24.85 64.9 26.7 64.9 32.9 64.55 36.95 60.15 36.95 59.8 37.3 59.45 L37.3 58.35 36.95 57.25 35.85 56.85 Q33.65 56.85 32.9 59.05 32.55 59.45 32.55 59.8 M17.95 65.0 L17.95 64.9 Q17.55 64.55 17.55 64.2 17.2 63.45 17.2 63.1 17.2 60.9 24.5 59.45 32.55 57.6 36.55 56.15 37.3 56.15 37.3 55.75 L38.75 56.15 39.1 56.15 Q39.5 56.5 39.5 57.25 L39.5 58.7 Q38.4 62.0 33.3 64.55 30.0 66.0 27.8 66.75 L23.8 67.1 20.85 67.1 19.05 66.35 Q18.65 66.0 18.3 66.0 17.95 65.3 17.95 65.0 M23.8 75.15 L23.8 74.8 23.8 74.05 23.8 73.3 25.25 72.2 Q26.7 71.5 29.25 70.75 L29.6 70.4 Q34.35 68.95 36.55 68.95 L39.1 69.3 39.5 69.3 39.5 70.05 39.5 70.75 39.5 71.15 39.5 72.95 Q39.5 74.05 39.1 75.15 L37.65 76.95 Q35.85 78.8 32.9 78.8 30.0 78.8 27.05 76.95 24.15 75.9 23.8 75.15 M37.3 73.7 Q38.4 73.7 38.4 71.15 38.4 68.95 35.85 69.3 33.65 70.05 33.65 71.15 33.65 71.85 34.0 72.6 L34.35 72.95 31.45 76.25 31.45 76.6 Q33.3 77.7 34.75 76.95 36.55 75.5 37.3 73.7 M43.5 59.05 L43.5 57.95 43.5 57.6 Q43.5 56.85 44.25 56.15 L44.6 56.15 45.7 55.75 Q46.05 56.15 46.8 56.15 50.8 57.6 58.85 59.45 66.15 60.9 66.15 63.1 L65.8 63.45 65.45 64.9 Q64.35 67.1 59.6 67.1 55.95 67.1 50.1 64.55 44.25 61.6 43.5 59.05 M49.35 59.45 L49.35 58.7 Q49.35 57.25 47.15 56.5 44.6 56.15 44.6 57.6 44.6 58.7 45.35 59.8 46.05 61.25 47.9 61.6 49.35 62.7 51.2 63.45 55.95 64.9 57.0 63.8 54.85 61.25 49.35 59.45 M44.95 70.75 L44.95 70.05 45.35 69.3 Q45.7 68.95 47.5 68.95 L47.9 68.95 Q50.1 68.95 55.2 70.4 57.4 71.15 59.2 72.2 59.95 72.6 60.3 72.95 L60.7 73.3 Q61.05 73.3 61.05 74.8 L61.05 75.15 60.7 75.15 Q59.6 76.25 57.4 76.95 54.45 78.8 51.55 78.8 L51.2 78.8 Q48.6 78.45 46.8 76.95 44.95 74.8 44.95 71.15 L44.95 70.75 M46.8 72.95 Q49.0 78.45 53.75 75.15 L50.45 73.3 51.2 72.6 51.2 71.5 Q51.2 69.65 48.6 69.3 46.05 68.2 46.05 71.15 L46.05 72.6 Q46.45 72.6 46.8 72.95" fill="#f99706" fill-rule="evenodd" stroke="none"/>
    <path d="M18.3 66.0 Q18.65 66.0 19.05 66.35 L20.85 67.1 23.8 67.1 27.8 66.75 Q30.0 66.0 33.3 64.55 38.4 62.0 39.5 58.7 L39.5 57.25 Q41.3 60.5 36.55 64.55 L34.75 65.65 Q33.3 67.1 31.45 67.45 L31.1 67.85 30.7 67.85 28.55 68.55 27.8 68.95 27.8 69.3 25.95 69.3 24.15 69.3 23.4 69.65 22.3 69.65 21.6 70.05 21.6 70.75 Q19.75 71.5 19.4 72.95 18.65 74.4 17.95 76.95 17.55 76.95 17.55 76.6 17.55 75.15 18.3 73.3 L17.95 73.3 Q17.2 73.3 16.85 72.6 L16.85 71.15 Q16.1 70.75 16.1 69.65 16.1 68.95 16.85 68.55 L14.3 67.1 Q14.3 66.0 13.9 65.65 L13.9 65.3 12.8 63.1 Q12.8 62.7 13.55 62.35 L15.35 64.55 15.75 65.3 17.95 66.0 18.3 66.0 M65.45 64.9 Q64.7 67.1 63.25 68.55 L66.5 67.85 67.25 66.35 Q68.35 65.3 68.7 65.3 69.1 65.3 69.1 65.65 L69.1 66.35 Q68.7 66.75 68.7 67.1 L67.25 68.55 66.15 69.65 65.8 70.05 67.25 70.05 67.6 70.05 67.6 70.4 66.5 71.15 Q65.05 71.85 64.35 71.5 65.05 71.85 65.05 73.3 L64.35 73.3 Q63.6 73.3 61.4 71.15 60.7 70.4 58.85 70.05 58.85 69.65 58.5 69.65 L57.0 69.3 Q50.1 68.2 46.45 64.55 42.75 61.25 43.5 59.05 44.25 61.6 50.1 64.55 55.95 67.1 59.6 67.1 64.35 67.1 65.45 64.9" fill="#af6901" fill-rule="evenodd" stroke="none"/>
    <path d="M17.95 65.0 Q17.95 65.3 18.3 66.0 L17.95 66.0 17.95 65.0 M31.1 67.85 L27.8 69.3 27.8 68.95 28.55 68.55 30.7 67.85 31.1 67.85 M25.95 69.3 L23.4 69.65 24.15 69.3 25.95 69.3 M39.5 70.75 Q41.3 74.8 39.5 77.35 37.65 80.25 33.3 81.0 28.55 81.0 24.5 77.35 23.05 76.25 23.8 75.15 24.15 75.9 27.05 76.95 30.0 78.8 32.9 78.8 35.85 78.8 37.65 76.95 L39.1 75.15 Q39.5 74.05 39.5 72.95 L39.5 71.15 39.5 70.75 M44.95 70.75 L44.95 71.15 Q44.95 74.8 46.8 76.95 48.6 78.45 51.2 78.8 L51.55 78.8 Q54.45 78.8 57.4 76.95 59.6 76.25 60.7 75.15 59.6 78.45 53.75 79.9 47.9 81.0 45.35 76.95 43.5 74.8 44.95 70.75" fill="#bf7200" fill-rule="evenodd" stroke="none"/>
  </g>
</svg>
