<?xml version="1.0" encoding="UTF-8" standalone="no"?>
<svg xmlns:xlink="http://www.w3.org/1999/xlink" height="104.3px" width="95.15px" xmlns="http://www.w3.org/2000/svg">
  <g transform="matrix(1.0, 0.0, 0.0, 1.0, 7.4, 0.9)">
    <path d="M84.4 48.5 Q82.95 52.9 80.75 56.9 L71.6 74.8 72.7 77.4 72.0 80.3 74.55 100.05 44.2 100.4 43.5 90.55 39.45 90.55 37.3 99.7 6.6 100.05 10.25 80.65 8.4 78.1 9.15 74.8 7.7 72.65 5.85 68.6 0.0 55.8 Q-4.0 50.7 -4.4 48.85 L-0.7 43.4 Q0.0 41.55 1.85 37.55 L2.2 35.35 Q4.05 28.4 5.1 22.9 L5.1 22.2 6.95 5.35 6.95 3.9 38.0 2.8 40.95 2.8 43.5 2.8 71.6 2.1 72.0 5.35 72.7 11.95 74.55 21.8 Q74.55 23.3 75.25 25.45 L76.75 31.7 Q78.55 37.15 78.95 37.55 82.2 43.0 84.75 45.2 L84.4 48.5" fill="#5d4c23" fill-rule="evenodd" stroke="none"/>
    <path d="M84.4 48.5 Q82.95 52.9 80.75 56.9 L71.6 74.8 72.7 77.4 72.0 80.3 74.55 100.05 44.2 100.4 43.5 90.55 39.45 90.55 37.3 99.7 6.6 100.05 10.25 80.65 8.4 78.1 9.15 74.8 7.7 72.65 5.85 68.6 0.0 55.8 Q-4.0 50.7 -4.4 48.85 L-0.7 43.4 Q0.0 41.55 1.85 37.55 L2.2 35.35 Q4.05 28.4 5.1 22.9 L5.1 22.2 6.95 5.35 6.95 3.9 38.0 2.8 40.95 2.8 43.5 2.8 71.6 2.1 72.0 5.35 72.7 11.95 74.55 21.8 Q74.55 23.3 75.25 25.45 L76.75 31.7 Q78.55 37.15 78.95 37.55 82.2 43.0 84.75 45.2 L84.4 48.5 Z" fill="none" stroke="#2a1b10" stroke-linecap="round" stroke-linejoin="round" stroke-width="6.0"/>
    <path d="M79.35 38.2 Q82.6 43.7 84.8 46.25 85.15 46.25 84.45 49.2 83.35 53.55 81.15 57.95 L73.5 71.85 69.85 72.2 69.45 71.85 69.1 71.85 69.1 68.2 Q69.85 66.0 68.75 61.6 73.5 61.25 74.95 58.3 L77.15 54.65 78.6 49.55 79.35 38.2 M8.1 73.7 L6.25 69.3 0.4 56.5 Q-3.6 51.4 -4.0 49.55 L-0.7 44.05 2.25 38.2 2.25 44.05 4.05 52.85 Q5.5 57.6 8.45 59.4 L12.1 61.25 11.75 62.0 Q11.35 63.05 11.35 65.25 11.35 68.2 12.45 71.5 L12.85 72.6 8.1 73.7" fill="#332910" fill-rule="evenodd" stroke="none"/>
    <path d="M2.25 38.2 L2.6 35.65 Q4.45 28.7 5.5 23.6 L5.5 22.5 7.35 4.6 38.4 3.5 30.35 54.65 29.65 57.6 28.2 60.9 Q26.0 65.25 22.35 67.85 19.75 70.4 15.75 71.85 L12.85 72.6 12.45 71.5 Q11.35 68.2 11.35 65.25 11.35 63.05 11.75 62.0 L12.1 61.25 8.45 59.4 Q5.5 57.6 4.05 52.85 L2.25 44.05 2.25 38.2 M43.9 3.5 L72.0 2.75 73.1 12.65 74.95 22.5 Q74.95 24.35 75.65 26.15 L77.15 32.35 Q78.95 38.2 79.35 38.2 L78.6 49.55 77.15 54.65 74.95 58.3 Q73.5 61.25 68.75 61.6 69.85 66.0 69.1 68.2 L69.1 71.85 Q64.0 70.75 60.7 67.85 55.2 63.45 52.3 53.95 L43.9 3.5" fill="#463a1d" fill-rule="evenodd" stroke="none"/>
    <path d="M73.5 71.85 L72.0 75.15 70.2 75.15 69.1 75.15 Q64.7 74.75 61.4 73.3 L59.95 72.2 Q57.4 70.75 55.6 68.55 53.4 66.35 51.9 63.05 51.2 62.0 50.85 60.5 49.35 56.85 47.9 52.1 L41.35 4.95 33.65 57.95 Q33.3 58.3 32.95 59.4 31.85 61.25 31.1 63.05 29.25 66.35 27.1 68.9 L21.95 72.6 Q20.85 73.3 19.75 73.7 16.85 74.75 13.95 75.15 L9.55 75.5 8.1 73.7 12.85 72.6 15.75 71.85 Q19.75 70.4 22.35 67.85 26.0 65.25 28.2 60.9 L29.65 57.6 30.35 54.65 38.4 3.5 41.35 3.5 43.9 3.5 52.3 53.95 Q55.2 63.45 60.7 67.85 64.0 70.75 69.1 71.85 L69.45 71.85 69.85 72.2 73.5 71.85" fill="#7e6322" fill-rule="evenodd" stroke="none"/>
    <path d="M32.95 59.4 Q33.3 58.3 33.65 57.95 L41.35 4.95 47.9 52.1 Q49.35 56.85 50.85 60.5 47.9 62.35 42.45 64.9 37.3 63.8 32.95 59.4 M51.9 63.05 Q53.4 66.35 55.6 68.55 51.55 68.2 45.7 66.75 47.2 66.35 48.65 65.25 L51.9 63.05 M59.95 72.2 L61.4 73.3 Q61.4 74.4 60.7 75.85 L57.05 78.45 56.3 78.45 51.2 79.15 Q40.95 80.25 29.25 79.5 L23.8 78.45 21.25 78.05 20.85 77.7 Q20.15 75.85 19.75 74.05 L19.75 73.7 Q20.85 73.3 21.95 72.6 29.65 72.6 34.4 71.5 L42.8 68.55 Q50.1 71.85 59.95 72.2 M31.1 63.05 Q34.4 65.65 37.7 66.75 32.95 68.9 27.1 68.9 29.25 66.35 31.1 63.05" fill="#f99706" fill-rule="evenodd" stroke="none"/>
    <path d="M50.85 60.5 Q51.2 62.0 51.9 63.05 L48.65 65.25 Q47.2 66.35 45.7 66.75 51.55 68.2 55.6 68.55 57.4 70.75 59.95 72.2 50.1 71.85 42.8 68.55 L34.4 71.5 Q29.65 72.6 21.95 72.6 L27.1 68.9 Q32.95 68.9 37.7 66.75 34.4 65.65 31.1 63.05 31.85 61.25 32.95 59.4 37.3 63.8 42.45 64.9 47.9 62.35 50.85 60.5" fill="#331c0b" fill-rule="evenodd" stroke="none"/>
    <path d="M61.4 73.3 Q64.7 74.75 69.1 75.15 L70.2 75.15 Q63.6 77.35 57.05 78.45 L60.7 75.85 Q61.4 74.4 61.4 73.3 M19.75 73.7 L19.75 74.05 Q20.15 75.85 20.85 77.7 L21.25 78.05 Q18.3 77.7 16.1 76.95 12.1 75.85 9.55 75.5 L13.95 75.15 Q16.85 74.75 19.75 73.7" fill="#b46f09" fill-rule="evenodd" stroke="none"/>
    <path d="M72.0 75.15 L73.1 78.05 72.4 81.0 68.75 82.45 Q62.5 84.65 57.05 85.75 57.4 82.45 56.3 78.8 L56.3 78.45 57.05 78.45 Q63.6 77.35 70.2 75.15 L72.0 75.15 M10.65 81.7 L10.65 81.35 8.8 78.8 9.55 75.5 Q12.1 75.85 16.1 76.95 18.3 77.7 21.25 78.05 L23.8 78.45 23.8 79.9 Q23.05 83.55 23.8 85.75 18.3 84.65 13.2 82.8 L10.65 81.7 M29.25 79.5 Q40.95 80.25 51.2 79.15 52.3 83.55 51.55 86.85 40.25 88.3 29.25 86.85 28.55 84.65 29.25 79.5" fill="#060702" fill-rule="evenodd" stroke="none"/>
    <path d="M72.4 81.0 L74.95 100.75 61.4 100.75 Q70.55 100.35 68.75 82.45 L72.4 81.0 M19.4 100.75 L7.0 100.75 10.65 81.7 13.2 82.8 Q11.75 98.15 19.4 100.75" fill="#48230f" fill-rule="evenodd" stroke="none"/>
    <path d="M23.8 78.45 L29.25 79.5 Q28.55 84.65 29.25 86.85 L23.8 85.75 Q23.05 83.55 23.8 79.9 L23.8 78.45 M51.2 79.15 L56.3 78.45 56.3 78.8 Q57.4 82.45 57.05 85.75 L51.55 86.85 Q52.3 83.55 51.2 79.15" fill="#46483c" fill-rule="evenodd" stroke="none"/>
    <path d="M61.4 100.75 L61.05 100.75 44.6 101.1 43.9 91.6 39.85 91.6 37.7 100.35 19.4 100.75 Q11.75 98.15 13.2 82.8 18.3 84.65 23.8 85.75 L29.25 86.85 Q40.25 88.3 51.55 86.85 L57.05 85.75 Q62.5 84.65 68.75 82.45 70.55 100.35 61.4 100.75" fill="#853a0f" fill-rule="evenodd" stroke="none"/>
    <path d="M61.4 100.75 L61.05 100.75" fill="none" stroke="#2c190b" stroke-linecap="round" stroke-linejoin="round" stroke-width="0.5"/>
    <path d="M67.7 41.5 L70.2 47.1 76.0 49.35 71.4 53.45 71.1 59.6 65.75 56.55 59.8 58.2 61.05 52.15 57.7 46.95 63.85 46.3 67.7 41.5" fill="#bfab1c" fill-rule="evenodd" stroke="none"/>
    <path d="M74.95 24.35 L75.65 27.25 Q74.2 31.65 72.75 34.2 70.9 37.5 67.65 40.8 66.55 42.25 63.6 44.45 L58.85 48.8 Q56.3 50.65 55.6 52.1 54.1 53.2 53.4 54.65 L50.45 59.4 Q36.95 50.3 31.85 46.25 26.35 41.85 23.05 37.85 19.75 33.85 17.95 29.8 L17.95 13.0 70.9 6.8 72.75 15.2 74.95 24.35" fill="#ad0707" fill-rule="evenodd" stroke="none"/>
    <path d="M73.5 12.65 Q74.95 20.65 74.95 22.5 L75.65 26.15 71.3 33.45 64.35 40.4 59.25 43.7 52.65 48.1 48.25 50.65 Q46.8 52.1 45.7 53.95 41.7 58.3 41.7 58.7 36.6 53.55 29.65 50.3 21.95 46.25 18.3 42.6 13.2 38.2 10.25 32.35 7.0 27.25 5.9 22.5 6.25 17.0 7.35 4.6 L72.0 2.75 73.5 12.65 M64.7 14.45 Q64.0 15.55 63.25 17.4 L61.05 20.65 Q59.25 22.5 57.4 25.05 L54.1 28.35 Q50.85 30.2 46.45 31.65 42.05 33.1 39.85 34.2 37.7 34.95 42.8 34.55 47.2 34.95 49.35 34.55 56.65 33.1 61.4 29.45 64.7 26.5 66.15 24.35 67.25 22.5 67.25 19.55 67.25 17.0 66.15 15.2 65.1 13.35 64.7 14.45 M44.25 43.35 Q45.7 43.35 47.2 42.25 L37.7 38.6 Q31.85 36.4 28.55 32.75 L21.6 25.8 Q17.95 18.5 14.3 18.5 12.45 18.5 11.35 19.95 9.9 21.4 9.9 22.5 9.9 23.95 11.0 25.4 L13.2 28.35 Q14.3 28.7 17.95 32.75 21.95 36.75 25.25 38.6 28.55 40.4 31.85 41.85 36.6 43.7 40.6 43.7 L44.25 43.35" fill="#850101" fill-rule="evenodd" stroke="none"/>
    <path d="M64.7 14.45 Q65.1 13.35 66.15 15.2 67.25 17.0 67.25 19.55 67.25 22.5 66.15 24.35 64.7 26.5 61.4 29.45 56.65 33.1 49.35 34.55 47.2 34.95 42.8 34.55 37.7 34.95 39.85 34.2 42.05 33.1 46.45 31.65 50.85 30.2 54.1 28.35 L57.4 25.05 Q59.25 22.5 61.05 20.65 L63.25 17.4 Q64.0 15.55 64.7 14.45" fill="#a61010" fill-rule="evenodd" stroke="none"/>
    <path d="M44.25 43.35 L40.6 43.7 Q36.6 43.7 31.85 41.85 28.55 40.4 25.25 38.6 21.95 36.75 17.95 32.75 14.3 28.7 13.2 28.35 L11.0 25.4 Q9.9 23.95 9.9 22.5 9.9 21.4 11.35 19.95 12.45 18.5 14.3 18.5 17.95 18.5 21.6 25.8 L28.55 32.75 Q31.85 36.4 37.7 38.6 L47.2 42.25 Q45.7 43.35 44.25 43.35" fill="#6b0000" fill-rule="evenodd" stroke="none"/>
    <path d="M24.9 71.1 L26.7 71.1 Q29.25 69.3 27.1 67.85 L24.9 67.45 22.7 67.1 20.15 66.75 17.95 66.35 16.1 66.0 Q16.5 65.25 17.95 63.8 L26.35 65.25 30.35 68.9 30.35 93.4 27.1 93.4 26.35 78.45 25.6 77.7 25.25 76.95 24.15 75.85 21.95 73.3 17.6 73.7 Q16.1 73.7 16.1 71.85 L17.95 71.85 20.15 71.85 22.7 71.5 24.9 71.1" fill="#242e3f" fill-rule="evenodd" stroke="none"/>
    <path d="M24.9 67.45 L27.1 67.85 Q29.25 69.3 26.7 71.1 L24.9 71.1 24.9 67.45 M22.7 71.5 L20.15 71.85 20.15 66.75 22.7 67.1 22.7 71.5 M17.95 71.85 L16.1 71.85 Q13.95 69.65 16.1 66.0 L17.95 66.35 17.95 71.85 M30.35 93.4 L30.35 68.9 26.35 65.25 32.95 66.0 32.95 93.4 30.35 93.4" fill="#94969a" fill-rule="evenodd" stroke="none"/>
    <path d="M24.9 71.1 L22.7 71.5 22.7 67.1 24.9 67.45 24.9 71.1 M20.15 71.85 L17.95 71.85 17.95 66.35 20.15 66.75 20.15 71.85" fill="#4b5058" fill-rule="evenodd" stroke="none"/>
    <path d="M24.15 75.85 L25.25 76.95 Q23.45 78.8 21.6 78.05 20.15 77.35 19.05 75.5 19.4 74.75 20.15 75.85 22.7 78.45 24.15 75.85" fill="#1e242e" fill-rule="evenodd" stroke="none"/>
    <path d="M25.25 76.95 L25.6 77.7 Q24.5 79.15 23.05 79.15 20.5 79.15 19.75 77.35 L19.05 75.5 Q20.15 77.35 21.6 78.05 23.45 78.8 25.25 76.95" fill="#505358" fill-rule="evenodd" stroke="none"/>
  </g>
</svg>
