<?xml version="1.0" encoding="UTF-8" standalone="no"?>
<svg xmlns:xlink="http://www.w3.org/1999/xlink" height="48.9px" width="392.4px" xmlns="http://www.w3.org/2000/svg">
  <g transform="matrix(1.0, 0.0, 0.0, 1.0, -0.8, -0.55)">
    <path d="M22.05 15.45 Q19.35 15.45 17.45 17.15 15.55 18.9 15.55 21.5 15.55 23.0 16.05 24.05 16.6 25.2 17.4 26.0 18.15 26.8 19.45 27.3 L22.05 27.75 24.45 27.3 26.35 26.0 Q27.15 25.2 27.6 24.05 28.05 22.95 28.05 21.65 28.05 19.05 26.35 17.25 24.7 15.45 22.05 15.45 M38.4 22.25 Q38.4 27.8 34.3 32.35 29.5 37.5 22.2 37.5 14.85 37.5 10.0 32.95 5.3 28.45 5.3 21.05 5.3 15.3 9.7 10.8 14.65 5.7 22.15 5.7 29.05 5.7 33.75 10.5 38.4 15.3 38.4 22.25" fill="#ffffff" fill-rule="evenodd" stroke="none"/>
    <path d="M22.05 15.45 Q19.35 15.45 17.45 17.15 15.55 18.9 15.55 21.5 15.55 23.0 16.05 24.05 16.6 25.2 17.4 26.0 18.15 26.8 19.45 27.3 L22.05 27.75 24.45 27.3 26.35 26.0 Q27.15 25.2 27.6 24.05 28.05 22.95 28.05 21.65 28.05 19.05 26.35 17.25 24.7 15.45 22.05 15.45 M38.4 22.25 Q38.4 27.8 34.3 32.35 29.5 37.5 22.2 37.5 14.85 37.5 10.0 32.95 5.3 28.45 5.3 21.05 5.3 15.3 9.7 10.8 14.65 5.7 22.15 5.7 29.05 5.7 33.75 10.5 38.4 15.3 38.4 22.25" fill="none" stroke="#ffffff" stroke-linecap="round" stroke-linejoin="round" stroke-width="9.0"/>
    <path d="M44.8 14.6 L53.6 14.6 53.6 25.55 Q53.6 28.35 56.55 28.35 L58.1 28.1 58.1 14.55 66.75 14.55 66.75 36.25 Q66.75 41.2 63.25 43.35 60.55 44.95 55.1 44.95 49.6 44.95 45.0 43.1 L46.8 36.0 Q50.75 37.6 54.05 37.6 58.1 37.6 58.1 34.5 L58.1 32.3 56.25 35.65 51.1 35.65 Q48.5 35.65 46.75 34.5 44.8 33.25 44.8 30.6 L44.8 23.45 42.7 23.45 44.8 14.6" fill="#ffffff" fill-rule="evenodd" stroke="none"/>
    <path d="M44.8 14.6 L53.6 14.6 53.6 25.55 Q53.6 28.35 56.55 28.35 L58.1 28.1 58.1 14.55 66.75 14.55 66.75 36.25 Q66.75 41.2 63.25 43.35 60.55 44.95 55.1 44.95 49.6 44.95 45.0 43.1 L46.8 36.0 Q50.75 37.6 54.05 37.6 58.1 37.6 58.1 34.5 L58.1 32.3 56.25 35.65 51.1 35.65 Q48.5 35.65 46.75 34.5 44.8 33.25 44.8 30.6 L44.8 23.45 42.7 23.45 44.8 14.6 Z" fill="none" stroke="#ffffff" stroke-linecap="round" stroke-linejoin="round" stroke-width="9.0"/>
    <path d="M95.9 14.6 L95.9 28.45 98.05 28.45 95.9 37.05 87.25 37.05 87.25 32.75 85.0 37.05 80.85 37.05 Q77.9 37.05 76.05 35.15 74.15 33.25 74.15 30.25 L74.15 22.7 72.05 22.7 74.15 14.55 82.85 14.55 82.85 25.45 Q82.85 28.45 85.3 28.45 L87.25 28.45 87.25 14.6 95.9 14.6" fill="#ffffff" fill-rule="evenodd" stroke="none"/>
    <path d="M95.9 14.6 L95.9 28.45 98.05 28.45 95.9 37.05 87.25 37.05 87.25 32.75 85.0 37.05 80.85 37.05 Q77.9 37.05 76.05 35.15 74.15 33.25 74.15 30.25 L74.15 22.7 72.05 22.7 74.15 14.55 82.85 14.55 82.85 25.45 Q82.85 28.45 85.3 28.45 L87.25 28.45 87.25 14.6 95.9 14.6 Z" fill="none" stroke="#ffffff" stroke-linecap="round" stroke-linejoin="round" stroke-width="9.0"/>
    <path d="M125.35 37.05 L116.65 37.05 116.65 24.65 Q116.65 22.9 114.2 22.9 L112.3 23.25 112.3 37.05 103.6 37.05 103.6 23.0 101.5 23.0 103.6 14.55 112.3 14.55 112.3 18.5 114.1 14.55 119.1 14.55 Q125.35 14.55 125.35 20.85 L125.35 28.45 127.5 28.45 125.35 37.05" fill="#ffffff" fill-rule="evenodd" stroke="none"/>
    <path d="M125.35 37.05 L116.65 37.05 116.65 24.65 Q116.65 22.9 114.2 22.9 L112.3 23.25 112.3 37.05 103.6 37.05 103.6 23.0 101.5 23.0 103.6 14.55 112.3 14.55 112.3 18.5 114.1 14.55 119.1 14.55 Q125.35 14.55 125.35 20.85 L125.35 28.45 127.5 28.45 125.35 37.05 Z" fill="none" stroke="#ffffff" stroke-linecap="round" stroke-linejoin="round" stroke-width="9.0"/>
    <path d="M131.0 13.65 L133.75 5.05 142.05 5.05 142.05 28.45 144.25 28.45 142.05 37.05 133.1 37.05 133.1 13.65 131.0 13.65" fill="#ffffff" fill-rule="evenodd" stroke="none"/>
    <path d="M131.0 13.65 L133.75 5.05 142.05 5.05 142.05 28.45 144.25 28.45 142.05 37.05 133.1 37.05 133.1 13.65 131.0 13.65 Z" fill="none" stroke="#ffffff" stroke-linecap="round" stroke-linejoin="round" stroke-width="9.0"/>
    <path d="M172.75 14.55 L172.75 28.4 174.9 28.4 172.75 37.05 163.75 37.05 163.75 33.9 161.8 37.05 160.75 37.05 Q155.4 37.3 152.0 34.15 148.5 31.0 148.5 25.8 148.5 20.75 151.5 17.45 154.6 14.15 159.45 14.15 162.4 14.15 164.55 15.6 L164.9 14.55 172.75 14.55 M163.75 24.75 Q163.75 23.85 162.85 23.15 161.9 22.5 160.95 22.5 159.75 22.5 158.8 23.45 157.85 24.35 157.85 25.6 157.85 28.4 161.45 28.4 L163.75 28.4 163.75 24.75" fill="#ffffff" fill-rule="evenodd" stroke="none"/>
    <path d="M172.75 14.55 L172.75 28.4 174.9 28.4 172.75 37.05 163.75 37.05 163.75 33.9 161.8 37.05 160.75 37.05 Q155.4 37.3 152.0 34.15 148.5 31.0 148.5 25.8 148.5 20.75 151.5 17.45 154.6 14.15 159.45 14.15 162.4 14.15 164.55 15.6 L164.9 14.55 172.75 14.55 M163.75 24.75 Q163.75 23.85 162.85 23.15 161.9 22.5 160.95 22.5 159.75 22.5 158.8 23.45 157.85 24.35 157.85 25.6 157.85 28.4 161.45 28.4 L163.75 28.4 163.75 24.75" fill="none" stroke="#ffffff" stroke-linecap="round" stroke-linejoin="round" stroke-width="9.0"/>
    <path d="M191.0 24.0 Q190.45 24.3 190.05 24.9 189.65 25.35 189.4 26.2 L189.2 27.65 189.2 37.05 180.45 37.05 180.45 23.05 178.35 23.05 180.45 14.55 189.2 14.55 189.2 16.75 Q190.15 15.45 192.0 14.8 193.7 14.1 195.4 14.1 L196.2 14.15 193.6 23.85 192.3 23.65 Q191.55 23.65 191.0 24.0" fill="#ffffff" fill-rule="evenodd" stroke="none"/>
    <path d="M191.0 24.0 Q190.45 24.3 190.05 24.9 189.65 25.35 189.4 26.2 L189.2 27.65 189.2 37.05 180.45 37.05 180.45 23.05 178.35 23.05 180.45 14.55 189.2 14.55 189.2 16.75 Q190.15 15.45 192.0 14.8 193.7 14.1 195.4 14.1 L196.2 14.15 193.6 23.85 192.3 23.65 Q191.55 23.65 191.0 24.0 Z" fill="none" stroke="#ffffff" stroke-linecap="round" stroke-linejoin="round" stroke-width="9.0"/>
    <path d="M208.15 6.3 L217.7 6.3 217.7 37.05 208.1 37.05 208.1 15.65 205.95 15.65 208.15 6.3" fill="#ffffff" fill-rule="evenodd" stroke="none"/>
    <path d="M208.15 6.3 L217.7 6.3 217.7 37.05 208.1 37.05 208.1 15.65 205.95 15.65 208.15 6.3 Z" fill="none" stroke="#ffffff" stroke-linecap="round" stroke-linejoin="round" stroke-width="9.0"/>
    <path d="M247.5 20.35 L243.5 27.15 250.05 27.15 247.25 37.05 227.8 37.05 238.9 18.2 Q239.25 17.65 239.25 16.7 239.25 15.2 237.95 15.2 237.15 15.2 236.5 15.75 235.9 16.3 235.9 17.15 L236.15 18.1 228.25 20.45 Q227.15 18.45 227.15 16.1 227.15 11.45 230.45 8.6 233.55 5.7 238.2 5.7 242.7 5.7 245.75 8.45 248.75 11.15 248.75 15.65 248.75 18.2 247.5 20.35" fill="#ffffff" fill-rule="evenodd" stroke="none"/>
    <path d="M247.5 20.35 L243.5 27.15 250.05 27.15 247.25 37.05 227.8 37.05 238.9 18.2 Q239.25 17.65 239.25 16.7 239.25 15.2 237.95 15.2 237.15 15.2 236.5 15.75 235.9 16.3 235.9 17.15 L236.15 18.1 228.25 20.45 Q227.15 18.45 227.15 16.1 227.15 11.45 230.45 8.6 233.55 5.7 238.2 5.7 242.7 5.7 245.75 8.45 248.75 11.15 248.75 15.65 248.75 18.2 247.5 20.35 Z" fill="none" stroke="#ffffff" stroke-linecap="round" stroke-linejoin="round" stroke-width="9.0"/>
    <path d="M273.8 14.0 Q273.8 17.7 270.5 21.05 272.25 21.75 273.6 23.9 274.85 25.95 274.85 28.1 274.85 32.85 271.3 35.35 268.25 37.45 263.25 37.45 257.6 37.45 253.35 35.25 L255.7 26.65 Q259.85 28.65 261.8 28.65 264.45 28.65 264.45 26.75 264.45 24.95 259.75 24.95 L255.7 24.95 257.85 17.9 262.45 17.9 Q263.5 17.9 263.5 16.55 263.5 14.8 260.5 14.8 258.15 14.8 255.6 15.65 L258.05 6.4 263.35 5.8 Q267.6 5.8 270.55 7.7 273.8 9.95 273.8 14.0" fill="#ffffff" fill-rule="evenodd" stroke="none"/>
    <path d="M273.8 14.0 Q273.8 17.7 270.5 21.05 272.25 21.75 273.6 23.9 274.85 25.95 274.85 28.1 274.85 32.85 271.3 35.35 268.25 37.45 263.25 37.45 257.6 37.45 253.35 35.25 L255.7 26.65 Q259.85 28.65 261.8 28.65 264.45 28.65 264.45 26.75 264.45 24.95 259.75 24.95 L255.7 24.95 257.85 17.9 262.45 17.9 Q263.5 17.9 263.5 16.55 263.5 14.8 260.5 14.8 258.15 14.8 255.6 15.65 L258.05 6.4 263.35 5.8 Q267.6 5.8 270.55 7.7 273.8 9.95 273.8 14.0 Z" fill="none" stroke="#ffffff" stroke-linecap="round" stroke-linejoin="round" stroke-width="9.0"/>
    <path d="M22.2 15.45 Q19.6 15.45 17.6 17.15 15.7 18.9 15.7 21.55 15.7 22.95 16.2 24.1 16.75 25.25 17.55 26.05 18.4 26.9 19.6 27.35 L22.2 27.8 Q23.55 27.8 24.6 27.3 L26.5 26.05 Q27.3 25.25 27.75 24.1 L28.2 21.65 Q28.2 19.1 26.5 17.25 24.85 15.45 22.2 15.45 M38.55 22.3 Q38.55 27.9 34.4 32.35 29.65 37.55 22.35 37.55 15.0 37.55 10.15 33.0 5.45 28.5 5.45 21.1 5.45 15.35 9.85 10.8 14.85 5.75 22.3 5.75 29.2 5.75 33.9 10.55 38.55 15.35 38.55 22.3" fill="#000000" fill-rule="evenodd" stroke="none"/>
    <path d="M22.2 15.45 Q19.6 15.45 17.6 17.15 15.7 18.9 15.7 21.55 15.7 22.95 16.2 24.1 16.75 25.25 17.55 26.05 18.4 26.9 19.6 27.35 L22.2 27.8 Q23.55 27.8 24.6 27.3 L26.5 26.05 Q27.3 25.25 27.75 24.1 L28.2 21.65 Q28.2 19.1 26.5 17.25 24.85 15.45 22.2 15.45 M38.55 22.3 Q38.55 27.9 34.4 32.35 29.65 37.55 22.35 37.55 15.0 37.55 10.15 33.0 5.45 28.5 5.45 21.1 5.45 15.35 9.85 10.8 14.85 5.75 22.3 5.75 29.2 5.75 33.9 10.55 38.55 15.35 38.55 22.3" fill="none" stroke="#000000" stroke-linecap="round" stroke-linejoin="round" stroke-width="4.0"/>
    <path d="M44.85 14.65 L53.65 14.65 53.65 25.6 Q53.65 28.4 56.55 28.4 L58.15 28.15 58.15 14.6 66.75 14.6 66.75 36.3 Q66.75 41.3 63.25 43.4 60.45 45.0 55.1 45.0 49.55 45.0 45.05 43.15 L46.8 36.05 Q50.75 37.65 54.1 37.65 58.15 37.65 58.15 34.5 L58.15 32.3 56.3 35.7 51.1 35.7 Q48.5 35.7 46.75 34.5 44.85 33.35 44.85 30.65 L44.85 23.5 42.7 23.5 44.85 14.65" fill="#000000" fill-rule="evenodd" stroke="none"/>
    <path d="M44.85 14.65 L53.65 14.65 53.65 25.6 Q53.65 28.4 56.55 28.4 L58.15 28.15 58.15 14.6 66.75 14.6 66.75 36.3 Q66.75 41.3 63.25 43.4 60.45 45.0 55.1 45.0 49.55 45.0 45.05 43.15 L46.8 36.05 Q50.75 37.65 54.1 37.65 58.15 37.65 58.15 34.5 L58.15 32.3 56.3 35.7 51.1 35.7 Q48.5 35.7 46.75 34.5 44.85 33.35 44.85 30.65 L44.85 23.5 42.7 23.5 44.85 14.65 Z" fill="none" stroke="#000000" stroke-linecap="round" stroke-linejoin="round" stroke-width="4.0"/>
    <path d="M96.05 14.6 L96.05 28.5 98.2 28.5 96.05 37.1 87.4 37.1 87.4 32.8 85.15 37.1 81.0 37.1 Q78.1 37.1 76.2 35.15 74.3 33.3 74.3 30.25 L74.3 22.75 72.2 22.75 74.3 14.6 83.0 14.6 83.0 25.45 Q83.0 28.5 85.45 28.5 L87.4 28.5 87.4 14.6 96.05 14.6" fill="#000000" fill-rule="evenodd" stroke="none"/>
    <path d="M96.05 14.6 L96.05 28.5 98.2 28.5 96.05 37.1 87.4 37.1 87.4 32.8 85.15 37.1 81.0 37.1 Q78.1 37.1 76.2 35.15 74.3 33.3 74.3 30.25 L74.3 22.75 72.2 22.75 74.3 14.6 83.0 14.6 83.0 25.45 Q83.0 28.5 85.45 28.5 L87.4 28.5 87.4 14.6 96.05 14.6 Z" fill="none" stroke="#000000" stroke-linecap="round" stroke-linejoin="round" stroke-width="4.0"/>
    <path d="M125.4 37.1 L116.7 37.1 116.7 24.7 Q116.7 22.95 114.25 22.95 L112.35 23.3 112.35 37.1 103.65 37.1 103.65 23.0 101.55 23.0 103.65 14.6 112.35 14.6 112.35 18.5 114.1 14.6 119.1 14.6 Q125.4 14.6 125.4 20.85 L125.4 28.45 127.55 28.45 125.4 37.1" fill="#000000" fill-rule="evenodd" stroke="none"/>
    <path d="M125.4 37.1 L116.7 37.1 116.7 24.7 Q116.7 22.95 114.25 22.95 L112.35 23.3 112.35 37.1 103.65 37.1 103.65 23.0 101.55 23.0 103.65 14.6 112.35 14.6 112.35 18.5 114.1 14.6 119.1 14.6 Q125.4 14.6 125.4 20.85 L125.4 28.45 127.55 28.45 125.4 37.1 Z" fill="none" stroke="#000000" stroke-linecap="round" stroke-linejoin="round" stroke-width="4.0"/>
    <path d="M130.95 13.65 L133.7 5.05 142.0 5.05 142.0 28.4 144.2 28.4 142.0 37.05 133.05 37.05 133.05 13.65 130.95 13.65" fill="#000000" fill-rule="evenodd" stroke="none"/>
    <path d="M130.95 13.65 L133.7 5.05 142.0 5.05 142.0 28.4 144.2 28.4 142.0 37.05 133.05 37.05 133.05 13.65 130.95 13.65 Z" fill="none" stroke="#000000" stroke-linecap="round" stroke-linejoin="round" stroke-width="4.0"/>
    <path d="M172.75 14.45 L172.75 28.35 174.95 28.35 172.75 37.0 163.75 37.0 163.75 33.85 161.85 37.0 160.75 37.0 Q155.55 37.2 152.0 34.05 148.5 30.85 148.5 25.7 148.5 20.6 151.55 17.4 154.55 14.05 159.5 14.05 162.3 14.05 164.6 15.5 L164.95 14.45 172.75 14.45 M162.85 23.05 Q161.9 22.4 161.0 22.4 159.85 22.4 158.8 23.35 157.85 24.3 157.85 25.5 157.85 28.3 161.45 28.3 L163.75 28.3 163.75 24.7 Q163.75 23.75 162.85 23.05" fill="#000000" fill-rule="evenodd" stroke="none"/>
    <path d="M172.75 14.45 L172.75 28.35 174.95 28.35 172.75 37.0 163.75 37.0 163.75 33.85 161.85 37.0 160.75 37.0 Q155.55 37.2 152.0 34.05 148.5 30.85 148.5 25.7 148.5 20.6 151.55 17.4 154.55 14.05 159.5 14.05 162.3 14.05 164.6 15.5 L164.95 14.45 172.75 14.45 M162.85 23.05 Q161.9 22.4 161.0 22.4 159.85 22.4 158.8 23.35 157.85 24.3 157.85 25.5 157.85 28.3 161.45 28.3 L163.75 28.3 163.75 24.7 Q163.75 23.75 162.85 23.05" fill="none" stroke="#000000" stroke-linecap="round" stroke-linejoin="round" stroke-width="4.0"/>
    <path d="M191.15 23.9 L190.15 24.8 189.55 26.1 189.35 27.55 189.35 37.0 180.6 37.0 180.6 22.95 178.5 22.95 180.6 14.5 189.35 14.5 189.35 16.7 Q190.2 15.5 192.15 14.7 193.9 13.95 195.55 14.05 L196.35 14.05 193.75 23.75 192.45 23.55 Q191.85 23.55 191.15 23.9" fill="#000000" fill-rule="evenodd" stroke="none"/>
    <path d="M191.15 23.9 L190.15 24.8 189.55 26.1 189.35 27.55 189.35 37.0 180.6 37.0 180.6 22.95 178.5 22.95 180.6 14.5 189.35 14.5 189.35 16.7 Q190.2 15.5 192.15 14.7 193.9 13.95 195.55 14.05 L196.35 14.05 193.75 23.75 192.45 23.55 Q191.85 23.55 191.15 23.9 Z" fill="none" stroke="#000000" stroke-linecap="round" stroke-linejoin="round" stroke-width="4.0"/>
    <path d="M208.2 6.35 L217.75 6.35 217.75 37.1 208.15 37.1 208.15 15.7 206.0 15.7 208.2 6.35" fill="#000000" fill-rule="evenodd" stroke="none"/>
    <path d="M208.2 6.35 L217.75 6.35 217.75 37.1 208.15 37.1 208.15 15.7 206.0 15.7 208.2 6.35 Z" fill="none" stroke="#000000" stroke-linecap="round" stroke-linejoin="round" stroke-width="4.0"/>
    <path d="M247.65 20.25 L243.65 27.1 250.2 27.1 247.4 37.0 227.95 37.0 239.05 18.1 Q239.4 17.55 239.4 16.6 239.4 15.1 238.1 15.1 237.3 15.1 236.65 15.65 236.0 16.2 236.0 17.05 236.0 17.6 236.3 18.05 L228.35 20.35 Q227.3 18.35 227.3 16.0 227.3 11.35 230.6 8.5 233.7 5.6 238.35 5.6 242.85 5.6 245.9 8.35 248.9 11.15 248.9 15.55 248.9 18.05 247.65 20.25" fill="#000000" fill-rule="evenodd" stroke="none"/>
    <path d="M247.65 20.25 L243.65 27.1 250.2 27.1 247.4 37.0 227.95 37.0 239.05 18.1 Q239.4 17.55 239.4 16.6 239.4 15.1 238.1 15.1 237.3 15.1 236.65 15.65 236.0 16.2 236.0 17.05 236.0 17.6 236.3 18.05 L228.35 20.35 Q227.3 18.35 227.3 16.0 227.3 11.35 230.6 8.5 233.7 5.6 238.35 5.6 242.85 5.6 245.9 8.35 248.9 11.15 248.9 15.55 248.9 18.05 247.65 20.25 Z" fill="none" stroke="#000000" stroke-linecap="round" stroke-linejoin="round" stroke-width="4.0"/>
    <path d="M273.95 13.9 Q273.95 17.6 270.65 20.95 272.45 21.75 273.75 23.8 275.0 26.0 275.0 28.0 275.0 32.75 271.45 35.25 268.4 37.35 263.4 37.35 257.75 37.35 253.5 35.15 L255.85 26.55 Q259.85 28.55 261.95 28.55 264.6 28.55 264.6 26.65 264.6 24.85 259.9 24.85 L255.85 24.85 258.0 17.8 262.6 17.8 Q263.65 17.8 263.65 16.45 263.65 14.75 260.65 14.75 258.15 14.75 255.75 15.55 L258.2 6.3 263.5 5.75 Q267.75 5.75 270.65 7.6 273.95 9.85 273.95 13.9" fill="#000000" fill-rule="evenodd" stroke="none"/>
    <path d="M273.95 13.9 Q273.95 17.6 270.65 20.95 272.45 21.75 273.75 23.8 275.0 26.0 275.0 28.0 275.0 32.75 271.45 35.25 268.4 37.35 263.4 37.35 257.75 37.35 253.5 35.15 L255.85 26.55 Q259.85 28.55 261.95 28.55 264.6 28.55 264.6 26.65 264.6 24.85 259.9 24.85 L255.85 24.85 258.0 17.8 262.6 17.8 Q263.65 17.8 263.65 16.45 263.65 14.75 260.65 14.75 258.15 14.75 255.75 15.55 L258.2 6.3 263.5 5.75 Q267.75 5.75 270.65 7.6 273.95 9.85 273.95 13.9 Z" fill="none" stroke="#000000" stroke-linecap="round" stroke-linejoin="round" stroke-width="4.0"/>
    <path d="M22.15 15.55 Q19.5 15.55 17.6 17.25 15.7 18.95 15.7 21.6 15.7 23.1 16.2 24.15 16.65 25.25 17.55 26.15 L19.6 27.4 22.15 27.85 24.6 27.4 26.5 26.1 Q27.3 25.3 27.75 24.15 28.2 23.05 28.2 21.75 28.2 19.15 26.5 17.35 24.85 15.55 22.15 15.55 M38.55 22.35 Q38.55 27.85 34.4 32.45 29.7 37.6 22.35 37.6 14.95 37.6 10.15 33.05 5.45 28.55 5.45 21.15 5.45 15.4 9.85 10.9 14.8 5.8 22.25 5.8 29.2 5.8 33.85 10.6 38.55 15.4 38.55 22.35" fill="#1ed3ff" fill-rule="evenodd" stroke="none"/>
    <path d="M44.95 14.6 L53.75 14.6 53.75 25.6 Q53.75 28.35 56.7 28.35 L58.25 28.15 58.25 14.6 66.9 14.6 66.9 36.3 Q66.9 41.3 63.4 43.35 60.55 45.0 55.25 45.0 49.65 45.0 45.15 43.15 L46.9 36.05 Q50.8 37.6 54.2 37.6 58.25 37.6 58.25 34.5 L58.25 32.3 56.4 35.7 51.25 35.7 Q48.55 35.7 46.9 34.5 44.95 33.25 44.95 30.65 L44.95 23.5 42.85 23.5 44.95 14.6" fill="#3fff0b" fill-rule="evenodd" stroke="none"/>
    <path d="M95.9 14.6 L95.9 28.45 98.05 28.45 95.9 37.05 87.3 37.05 87.3 32.75 85.05 37.05 80.85 37.05 Q77.95 37.05 76.05 35.15 74.15 33.2 74.15 30.2 L74.15 22.7 72.05 22.7 74.15 14.55 82.85 14.55 82.85 25.4 Q82.85 28.45 85.3 28.45 L87.3 28.45 87.3 14.6 95.9 14.6" fill="#f8e92a" fill-rule="evenodd" stroke="none"/>
    <path d="M125.3 37.1 L116.6 37.1 116.6 24.7 Q116.6 22.95 114.15 22.95 L112.25 23.3 112.25 37.1 103.55 37.1 103.55 23.0 101.45 23.0 103.55 14.6 112.25 14.6 112.25 18.5 114.05 14.6 119.0 14.6 Q125.3 14.6 125.3 20.85 L125.3 28.45 127.45 28.45 125.3 37.1" fill="#ca0305" fill-rule="evenodd" stroke="none"/>
    <path d="M131.1 13.7 L133.85 5.1 142.15 5.1 142.15 28.45 144.35 28.45 142.15 37.1 133.2 37.1 133.2 13.7 131.1 13.7" fill="#3fff0b" fill-rule="evenodd" stroke="none"/>
    <path d="M165.05 14.5 L172.9 14.5 172.9 28.4 175.05 28.4 172.9 37.05 163.9 37.05 163.9 33.9 161.95 37.05 160.9 37.05 Q155.6 37.25 152.1 34.1 148.6 30.95 148.6 25.8 148.6 20.75 151.6 17.45 154.65 14.1 159.6 14.1 162.4 14.1 164.7 15.55 L165.05 14.5 M163.9 24.75 Q163.9 23.75 163.0 23.15 162.15 22.5 161.1 22.5 159.95 22.5 158.95 23.4 158.0 24.3 158.0 25.55 158.0 28.35 161.6 28.35 L163.9 28.35 163.9 24.75" fill="#1ed3ff" fill-rule="evenodd" stroke="none"/>
    <path d="M191.2 23.9 L190.25 24.8 Q189.85 25.3 189.6 26.1 L189.4 27.6 189.4 37.0 180.65 37.0 180.65 22.95 178.55 22.95 180.65 14.5 189.4 14.5 189.4 16.7 Q190.25 15.5 192.2 14.7 194.1 14.0 195.6 14.05 L196.4 14.1 193.8 23.75 192.5 23.6 191.2 23.9" fill="#f8e92a" fill-rule="evenodd" stroke="none"/>
    <path d="M208.35 6.35 L217.85 6.35 217.85 37.1 208.3 37.1 208.3 15.7 206.15 15.7 208.35 6.35" fill="#ca0305" fill-rule="evenodd" stroke="none"/>
    <path d="M247.5 20.35 L243.5 27.2 250.1 27.2 247.3 37.1 227.85 37.1 238.9 18.25 Q239.3 17.55 239.3 16.7 239.3 15.2 238.0 15.2 237.15 15.2 236.5 15.75 235.9 16.3 235.9 17.15 235.9 17.7 236.2 18.15 L228.25 20.5 Q227.2 18.4 227.2 16.1 227.2 11.45 230.45 8.6 233.65 5.7 238.25 5.7 242.7 5.7 245.75 8.45 248.8 11.25 248.8 15.65 248.8 18.2 247.5 20.35" fill="#f8e92a" fill-rule="evenodd" stroke="none"/>
    <path d="M273.95 13.9 Q273.95 17.6 270.65 20.95 272.45 21.75 273.75 23.8 275.0 25.85 275.0 28.0 275.0 32.75 271.45 35.25 268.4 37.35 263.4 37.35 257.75 37.35 253.5 35.15 L255.85 26.55 Q259.85 28.55 261.95 28.55 264.6 28.55 264.6 26.65 264.6 24.85 259.9 24.85 L255.85 24.85 258.0 17.8 262.6 17.8 Q263.65 17.8 263.65 16.45 263.65 14.75 260.65 14.75 258.15 14.75 255.75 15.55 L258.2 6.3 263.5 5.75 Q267.75 5.75 270.65 7.6 273.95 9.85 273.95 13.9" fill="#1ed3ff" fill-rule="evenodd" stroke="none"/>
    <path d="M292.1 32.7 Q292.1 34.85 290.6 36.35 289.05 37.85 286.95 37.85 L284.9 37.45 283.3 36.35 282.2 34.75 Q281.8 33.7 281.8 32.7 281.8 31.65 282.2 30.7 282.65 29.7 283.3 29.05 284.05 28.3 284.9 27.95 L286.95 27.55 Q289.05 27.55 290.6 29.05 292.1 30.65 292.1 32.7" fill="#ffffff" fill-rule="evenodd" stroke="none"/>
    <path d="M286.7 32.05 L286.55 32.15 286.35 32.45 286.3 32.7 286.35 32.95 286.5 33.2 286.7 33.3 286.95 33.35 287.45 33.1 287.6 32.7 287.4 32.25 286.95 32.05 286.7 32.05 M293.75 25.9 Q296.6 28.7 296.6 32.7 296.6 36.7 293.75 39.55 L293.65 39.65 Q290.8 42.35 286.95 42.35 284.9 42.35 283.15 41.55 281.45 40.9 280.1 39.55 278.9 38.35 278.1 36.5 277.3 34.75 277.3 32.7 277.3 30.65 278.1 28.9 278.75 27.25 280.05 25.9 281.45 24.5 283.15 23.8 284.95 23.05 286.95 23.05 291.0 23.05 293.75 25.9" fill="#ffffff" fill-rule="evenodd" stroke="none"/>
    <path d="M292.1 32.7 Q292.1 34.85 290.6 36.35 289.05 37.85 286.95 37.85 L284.9 37.45 283.3 36.35 282.2 34.75 Q281.8 33.7 281.8 32.7 281.8 31.65 282.2 30.7 282.65 29.7 283.3 29.05 284.05 28.3 284.9 27.95 L286.95 27.55 Q289.05 27.55 290.6 29.05 292.1 30.65 292.1 32.7" fill="#000000" fill-rule="evenodd" stroke="none"/>
    <path d="M286.95 29.55 L285.7 29.75 Q285.05 30.05 284.75 30.45 L284.05 31.45 283.8 32.7 284.05 33.95 284.7 34.95 285.7 35.6 286.95 35.85 Q288.2 35.85 289.2 34.9 290.1 34.0 290.1 32.7 290.1 31.4 289.15 30.5 288.25 29.55 286.95 29.55 M284.15 26.1 Q285.3 25.55 286.95 25.55 289.9 25.55 292.0 27.65 294.1 29.75 294.1 32.7 294.1 35.65 292.0 37.75 L291.95 37.8 Q289.85 39.85 286.95 39.85 L284.15 39.3 Q282.75 38.7 281.9 37.75 280.95 36.85 280.4 35.5 279.8 34.25 279.8 32.7 279.8 31.2 280.4 29.9 280.9 28.7 281.85 27.65 282.9 26.6 284.15 26.1" fill="#000000" fill-rule="evenodd" stroke="none"/>
    <path d="M292.1 32.7 Q292.1 34.85 290.6 36.35 289.05 37.85 286.95 37.85 L284.9 37.45 283.3 36.35 282.2 34.75 Q281.8 33.7 281.8 32.7 281.8 31.65 282.2 30.7 282.65 29.7 283.3 29.05 284.05 28.3 284.9 27.95 L286.95 27.55 Q289.05 27.55 290.6 29.05 292.1 30.65 292.1 32.7" fill="#f8e92a" fill-rule="evenodd" stroke="none"/>
    <path d="M309.5 23.6 Q308.5 24.5 308.5 26.15 308.5 29.15 312.15 29.15 L313.95 29.0 315.65 36.95 312.15 37.35 Q306.65 37.35 303.2 34.0 299.75 30.7 299.75 25.2 299.75 20.65 303.5 17.25 307.05 14.05 311.75 14.05 314.05 14.05 316.2 14.95 L314.05 23.2 Q313.1 22.65 312.25 22.65 310.5 22.65 309.5 23.6" fill="#ffffff" fill-rule="evenodd" stroke="none"/>
    <path d="M320.55 16.05 L318.4 24.35 Q318.2 25.3 317.35 26.15 318.15 27.0 318.35 28.05 L320.05 36.0 320.15 36.95 Q320.15 38.25 319.35 39.45 318.3 41.0 316.4 41.4 L312.15 41.85 Q304.8 41.85 300.05 37.25 295.25 32.6 295.25 25.2 295.25 18.6 300.5 13.9 305.4 9.55 311.75 9.55 314.9 9.55 317.9 10.75 320.7 11.85 320.7 14.95 L320.55 16.05" fill="#ffffff" fill-rule="evenodd" stroke="none"/>
    <path d="M333.1 22.45 Q331.65 22.45 330.7 23.55 329.65 24.6 329.65 26.0 329.65 26.65 329.95 27.25 L330.75 28.3 Q331.25 28.7 331.95 28.95 L333.3 29.2 Q336.4 29.2 336.4 25.75 336.4 24.3 335.45 23.4 334.5 22.45 333.1 22.45 M341.8 17.4 Q345.3 20.65 345.3 25.7 345.3 30.9 341.8 34.25 338.3 37.45 333.05 37.45 327.85 37.45 324.45 34.2 321.05 30.9 321.05 25.75 321.05 20.7 324.6 17.4 328.1 14.15 333.1 14.15 338.25 14.15 341.8 17.4" fill="#ffffff" fill-rule="evenodd" stroke="none"/>
    <path d="M349.8 25.7 Q349.8 32.95 344.85 37.5 L344.85 37.55 Q340.1 41.95 333.05 41.95 326.1 41.95 321.35 37.45 316.55 32.8 316.55 25.75 316.55 18.65 321.5 14.15 326.25 9.65 333.1 9.65 340.0 9.65 344.85 14.1 349.8 18.65 349.8 25.7 M333.1 18.65 Q329.85 18.65 327.65 20.7 325.55 22.65 325.55 25.75 325.55 28.95 327.6 30.95 329.75 32.95 333.05 32.95 336.5 32.95 338.7 30.95 340.8 29.0 340.8 25.7 340.8 22.6 338.7 20.7 336.5 18.65 333.1 18.65" fill="#ffffff" fill-rule="evenodd" stroke="none"/>
    <path d="M333.1 17.95 Q336.3 17.95 338.6 20.15 340.9 22.45 340.9 25.75 340.9 29.3 338.8 31.5 336.7 33.7 333.3 33.7 L330.35 33.2 Q329.1 32.7 327.9 31.75 326.65 30.75 325.9 29.2 325.15 27.7 325.15 26.0 325.15 22.8 327.45 20.4 329.75 17.95 333.1 17.95" fill="#ffffff" fill-rule="evenodd" stroke="none"/>
    <path d="M386.55 21.0 L386.55 28.35 388.7 28.35 386.55 36.95 377.9 36.95 377.9 24.8 Q377.9 22.8 375.1 22.8 L373.5 23.05 373.5 36.95 364.8 36.95 364.8 24.85 364.55 24.05 363.9 23.35 Q363.45 22.95 363.0 22.85 L362.1 22.65 360.5 22.95 360.5 36.95 351.8 36.95 351.8 22.6 349.7 22.6 351.8 14.45 360.5 14.45 360.5 18.65 362.25 14.45 367.6 14.45 Q369.35 14.45 371.15 15.85 372.75 17.15 373.4 18.9 L375.45 14.45 380.7 14.45 Q383.4 14.45 385.0 16.45 386.55 18.2 386.55 21.0" fill="#ffffff" fill-rule="evenodd" stroke="none"/>
    <path d="M356.05 18.95 L355.25 18.95 355.1 19.6 Q355.95 20.6 356.15 21.85 356.2 21.3 356.55 20.7 356.15 19.9 356.05 18.95 M382.4 30.1 L382.4 32.45 383.05 32.45 383.3 31.4 382.4 30.1 M382.05 22.65 L382.05 21.0 Q382.05 19.95 381.55 19.3 381.3 18.95 380.7 18.95 L378.6 18.95 Q381.15 20.1 382.05 22.65 M369.45 20.95 L369.25 20.6 368.3 19.35 367.6 18.95 365.2 18.95 365.2 19.0 366.7 19.8 368.4 21.75 369.0 23.05 Q369.0 22.1 369.45 20.95 M391.05 21.0 L391.05 24.6 Q391.75 25.0 392.25 25.55 393.2 26.8 393.2 28.35 L393.05 29.4 390.9 38.05 Q390.05 41.45 386.55 41.45 L377.9 41.45 Q376.75 41.45 375.7 40.8 374.65 41.45 373.5 41.45 L364.8 41.45 Q363.75 41.45 362.65 40.85 361.55 41.45 360.5 41.45 L351.8 41.45 Q349.95 41.45 348.6 40.15 347.3 38.85 347.3 36.95 L347.3 26.3 346.1 25.35 Q345.2 24.15 345.2 22.6 L345.3 21.5 347.45 13.35 Q348.3 9.95 351.8 9.95 L360.5 9.95 361.2 10.1 362.25 9.95 367.6 9.95 Q370.05 9.95 372.35 11.25 373.65 9.95 375.45 9.95 L380.7 9.95 Q385.5 9.95 388.45 13.55 391.05 16.6 391.05 21.0" fill="#ffffff" fill-rule="evenodd" stroke="none"/>
    <path d="M309.5 23.6 Q308.5 24.5 308.5 26.15 308.5 29.15 312.15 29.15 L313.95 29.0 315.65 36.95 312.15 37.35 Q306.65 37.35 303.2 34.0 299.75 30.7 299.75 25.2 299.75 20.65 303.5 17.25 307.05 14.05 311.75 14.05 314.05 14.05 316.2 14.95 L314.05 23.2 Q313.1 22.65 312.25 22.65 310.5 22.65 309.5 23.6" fill="#000000" fill-rule="evenodd" stroke="none"/>
    <path d="M311.75 12.05 Q314.4 12.05 316.95 13.1 318.6 13.7 318.15 15.45 L316.0 23.7 Q315.75 24.65 314.85 25.05 L313.05 24.95 Q312.6 24.65 312.25 24.65 311.25 24.65 310.85 25.05 310.5 25.4 310.5 26.15 310.5 27.15 312.15 27.15 L313.45 27.05 315.0 27.25 Q315.7 27.65 315.95 28.55 L317.6 36.55 Q317.75 37.35 317.3 38.05 316.85 38.75 315.95 38.9 L312.15 39.35 Q305.8 39.35 301.8 35.45 297.75 31.55 297.75 25.2 297.75 19.7 302.15 15.8 306.35 12.05 311.75 12.05 M313.8 16.3 L311.75 16.05 Q307.95 16.05 304.85 18.75 301.75 21.55 301.75 25.2 301.75 29.9 304.55 32.55 307.4 35.35 312.15 35.35 L313.25 35.25 312.4 31.15 312.15 31.15 Q306.5 31.15 306.5 26.15 306.5 23.5 308.2 22.1 309.8 20.65 312.25 20.65 L312.65 20.7 313.8 16.3" fill="#000000" fill-rule="evenodd" stroke="none"/>
    <path d="M333.1 22.45 Q331.65 22.45 330.7 23.55 329.65 24.6 329.65 26.0 329.65 26.65 329.95 27.25 L330.75 28.3 Q331.25 28.7 331.95 28.95 L333.3 29.2 Q336.4 29.2 336.4 25.75 336.4 24.3 335.45 23.4 334.5 22.45 333.1 22.45 M341.8 17.4 Q345.3 20.65 345.3 25.7 345.3 30.9 341.8 34.25 338.3 37.45 333.05 37.45 327.85 37.45 324.45 34.2 321.05 30.9 321.05 25.75 321.05 20.7 324.6 17.4 328.1 14.15 333.1 14.15 338.25 14.15 341.8 17.4" fill="#000000" fill-rule="evenodd" stroke="none"/>
    <path d="M333.1 16.15 Q328.9 16.15 325.95 18.85 323.05 21.6 323.05 25.75 323.05 30.1 325.85 32.75 328.6 35.45 333.05 35.45 337.55 35.45 340.4 32.75 343.3 30.05 343.3 25.7 343.3 21.55 340.4 18.85 337.5 16.15 333.1 16.15 M333.1 12.15 Q339.05 12.15 343.15 15.95 347.3 19.7 347.3 25.7 347.3 31.8 343.15 35.7 339.05 39.45 333.05 39.45 327.05 39.45 323.1 35.65 319.05 31.75 319.05 25.75 319.05 19.8 323.25 15.95 327.3 12.15 333.1 12.15" fill="#000000" fill-rule="evenodd" stroke="none"/>
    <path d="M332.05 26.75 L332.65 27.1 333.3 27.2 Q334.4 27.2 334.4 25.75 334.4 25.15 334.05 24.8 333.7 24.45 333.1 24.45 332.55 24.45 332.1 24.9 331.65 25.45 331.65 26.0 L331.75 26.4 332.05 26.75 M333.1 20.45 Q335.25 20.45 336.85 21.95 338.4 23.45 338.4 25.75 338.4 31.2 333.3 31.2 L331.25 30.85 329.5 29.85 Q328.65 29.1 328.15 28.15 327.65 27.0 327.65 26.0 327.65 23.75 329.25 22.15 330.85 20.45 333.1 20.45" fill="#000000" fill-rule="evenodd" stroke="none"/>
    <path d="M386.55 21.0 L386.55 28.35 388.7 28.35 386.55 36.95 377.9 36.95 377.9 24.8 Q377.9 22.8 375.1 22.8 L373.5 23.05 373.5 36.95 364.8 36.95 364.8 24.85 364.55 24.05 363.9 23.35 Q363.45 22.95 363.0 22.85 L362.1 22.65 360.5 22.95 360.5 36.95 351.8 36.95 351.8 22.6 349.7 22.6 351.8 14.45 360.5 14.45 360.5 18.65 362.25 14.45 367.6 14.45 Q369.35 14.45 371.15 15.85 372.75 17.15 373.4 18.9 L375.45 14.45 380.7 14.45 Q383.4 14.45 385.0 16.45 386.55 18.2 386.55 21.0" fill="#000000" fill-rule="evenodd" stroke="none"/>
    <path d="M371.5 23.05 Q371.5 21.35 373.0 21.1 L375.1 20.8 Q379.9 20.8 379.9 24.8 L379.9 34.95 385.0 34.95 386.15 30.25 Q384.55 29.9 384.55 28.35 L384.55 21.0 Q384.55 19.0 383.45 17.7 382.4 16.45 380.7 16.45 L376.7 16.45 375.25 19.7 Q374.7 20.9 373.4 20.9 372.05 20.8 371.55 19.65 371.0 18.35 369.85 17.4 368.65 16.45 367.6 16.45 L363.55 16.45 362.3 19.45 Q361.7 20.95 360.1 20.6 358.5 20.35 358.5 18.65 L358.5 16.45 353.35 16.45 352.25 20.7 Q353.8 21.05 353.8 22.6 L353.8 34.95 358.5 34.95 358.5 22.95 Q358.5 21.3 360.0 21.05 L360.9 20.9 360.45 20.95 362.1 20.65 363.7 20.95 365.15 21.75 366.25 23.0 Q366.8 23.95 366.8 24.85 L366.8 34.95 371.5 34.95 371.5 23.05 M386.55 15.15 Q388.55 17.55 388.55 21.0 L388.55 26.35 388.7 26.35 Q389.7 26.35 390.3 27.1 390.85 27.9 390.65 28.8 L388.5 37.45 Q388.1 38.95 386.55 38.95 L377.9 38.95 Q375.9 38.95 375.9 36.95 L375.9 24.9 375.5 24.85 375.5 36.95 Q375.5 38.95 373.5 38.95 L364.8 38.95 Q362.8 38.95 362.8 36.95 L362.8 25.05 362.65 24.9 362.5 24.8 362.5 36.95 Q362.5 38.95 360.5 38.95 L351.8 38.95 Q349.8 38.95 349.8 36.95 L349.8 24.6 349.7 24.6 Q348.65 24.6 348.1 23.85 347.5 23.1 347.75 22.1 L349.85 13.95 Q350.3 12.45 351.8 12.45 L360.5 12.45 361.4 12.7 362.25 12.45 367.6 12.45 Q370.1 12.45 372.4 14.3 L373.0 14.95 373.65 13.65 Q374.15 12.45 375.45 12.45 L380.7 12.45 Q384.3 12.45 386.55 15.15" fill="#000000" fill-rule="evenodd" stroke="none"/>
    <path d="M309.5 23.6 Q308.5 24.5 308.5 26.15 308.5 29.15 312.15 29.15 L313.95 29.0 315.65 36.95 312.15 37.35 Q306.65 37.35 303.2 34.0 299.75 30.7 299.75 25.2 299.75 20.65 303.5 17.25 307.05 14.05 311.75 14.05 314.05 14.05 316.2 14.95 L314.05 23.2 Q313.1 22.65 312.25 22.65 310.5 22.65 309.5 23.6" fill="#ca0305" fill-rule="evenodd" stroke="none"/>
    <path d="M333.1 22.45 Q331.65 22.45 330.7 23.55 329.65 24.6 329.65 26.0 329.65 26.65 329.95 27.25 L330.75 28.3 Q331.25 28.7 331.95 28.95 L333.3 29.2 Q336.4 29.2 336.4 25.75 336.4 24.3 335.45 23.4 334.5 22.45 333.1 22.45 M341.8 17.4 Q345.3 20.65 345.3 25.7 345.3 30.9 341.8 34.25 338.3 37.45 333.05 37.45 327.85 37.45 324.45 34.2 321.05 30.9 321.05 25.75 321.05 20.7 324.6 17.4 328.1 14.15 333.1 14.15 338.25 14.15 341.8 17.4" fill="#3fff0b" fill-rule="evenodd" stroke="none"/>
    <path d="M386.55 21.0 L386.55 28.35 388.7 28.35 386.55 36.95 377.9 36.95 377.9 24.8 Q377.9 22.8 375.1 22.8 L373.5 23.05 373.5 36.95 364.8 36.95 364.8 24.85 364.55 24.05 363.9 23.35 Q363.45 22.95 363.0 22.85 L362.1 22.65 360.5 22.95 360.5 36.95 351.8 36.95 351.8 22.6 349.7 22.6 351.8 14.45 360.5 14.45 360.5 18.65 362.25 14.45 367.6 14.45 Q369.35 14.45 371.15 15.85 372.75 17.15 373.4 18.9 L375.45 14.45 380.7 14.45 Q383.4 14.45 385.0 16.45 386.55 18.2 386.55 21.0" fill="#1ed3ff" fill-rule="evenodd" stroke="none"/>
  </g>
</svg>
