<?xml version="1.0" encoding="UTF-8" standalone="no"?>
<svg xmlns:xlink="http://www.w3.org/1999/xlink" height="80.0px" width="715.05px" xmlns="http://www.w3.org/2000/svg">
  <g transform="matrix(1.0, 0.0, 0.0, 1.0, -0.25, -0.55)">
    <path d="M695.2 31.85 Q698.1 32.75 699.6 34.9 701.05 37.05 701.05 39.7 L700.9 41.5 700.4 43.35 699.95 44.6 699.35 46.3 699.2 46.8 699.05 47.25 698.5 49.2 698.25 50.7 698.25 50.9 698.3 51.15 698.55 51.2 699.05 51.2 699.8 51.1 700.5 50.8 702.6 49.1 704.45 46.75 705.75 44.75 706.6 43.2 710.3 44.95 Q707.55 50.65 703.7 54.6 699.85 58.55 692.9 58.55 L691.85 58.5 690.7 58.4 687.4 57.55 Q685.8 56.9 684.75 55.5 684.05 54.5 683.7 53.4 L683.45 51.2 683.45 50.15 683.6 49.15 Q683.8 47.95 684.25 46.7 L685.05 44.3 685.35 43.5 685.9 42.15 686.1 41.5 686.3 40.75 686.6 39.6 686.7 38.65 686.45 37.6 Q686.2 37.2 685.6 37.2 684.25 37.2 683.05 38.4 681.9 39.65 681.0 41.05 L680.2 42.65 679.6 44.0 678.4 47.5 677.2 50.95 675.95 54.45 674.8 57.9 660.15 57.9 661.7 53.45 663.3 48.95 664.8 44.45 666.35 40.0 666.55 39.15 666.65 38.45 Q666.65 37.7 666.3 37.45 666.0 37.15 665.35 37.15 L664.6 37.25 Q664.2 37.35 663.8 37.6 L663.0 38.1 662.2 38.9 Q661.1 40.2 659.8 42.5 658.5 44.85 657.0 48.8 L656.55 50.2 655.45 53.3 654.55 56.15 654.0 57.9 640.15 57.9 640.9 55.8 638.55 56.2 636.45 55.9 634.55 55.0 Q631.7 57.4 627.8 58.75 623.9 60.05 619.85 60.3 L619.2 60.3 618.5 60.3 Q614.65 60.3 611.1 59.15 607.55 57.95 604.85 55.7 602.75 53.75 601.75 51.6 L601.35 52.1 Q599.3 54.8 595.45 56.65 593.15 57.7 590.35 58.25 L584.7 58.8 584.25 58.8 583.75 58.8 Q579.45 58.55 575.5 57.15 571.55 55.7 569.0 52.5 567.7 50.8 567.05 49.05 566.45 47.3 566.45 45.5 566.45 42.1 568.5 39.0 570.55 35.95 573.8 34.1 576.0 32.9 579.1 32.05 582.2 31.2 585.45 31.1 L586.25 31.0 587.0 31.0 592.3 31.65 Q594.85 32.3 596.7 33.95 L598.2 36.05 Q598.8 37.3 598.95 38.65 L598.95 38.9 598.95 39.15 598.6 41.05 597.6 42.75 595.7 44.15 593.3 44.6 592.95 44.6 592.6 44.5 591.2 44.2 589.9 43.6 Q588.95 42.95 588.35 42.05 587.75 41.1 587.6 40.05 L587.6 39.95 587.6 39.7 587.5 39.55 587.5 39.4 Q587.5 37.7 588.65 36.45 589.75 35.2 591.4 34.75 L590.5 34.5 589.55 34.45 589.1 34.45 588.7 34.55 588.3 34.6 587.9 34.75 Q585.3 35.65 583.45 38.4 581.5 41.2 580.85 44.35 L580.65 45.8 580.6 47.25 Q580.65 50.15 582.15 52.25 583.6 54.35 587.0 54.35 592.7 54.35 596.25 51.2 598.95 48.8 600.95 45.55 601.3 42.9 602.9 40.45 604.95 37.3 608.35 35.05 611.35 33.15 615.0 32.0 618.7 30.95 622.65 30.95 L623.8 30.95 624.9 31.0 Q628.1 31.3 631.15 32.35 634.15 33.4 636.5 35.6 638.45 37.35 639.5 39.6 640.55 41.9 640.55 44.3 L640.4 46.05 639.95 47.95 641.75 47.35 643.3 46.0 644.2 44.9 645.1 43.3 645.15 43.35 649.1 31.9 662.95 31.9 662.35 33.55 Q664.05 32.5 666.15 31.8 668.25 31.1 670.4 30.95 L670.85 30.95 671.3 30.95 673.4 31.1 675.45 31.6 Q677.0 32.1 678.25 33.15 679.55 34.25 680.05 35.95 682.25 33.6 685.0 32.35 687.8 31.1 690.75 31.1 L692.95 31.25 695.2 31.85" fill="none" stroke="url(#gradient0)" stroke-linecap="round" stroke-linejoin="round" stroke-width="10.0"/>
    <path d="M625.25 34.6 L623.6 35.0 Q622.7 35.4 621.8 36.15 L621.15 36.8 620.4 37.6 Q618.7 39.55 617.7 42.15 616.65 44.65 616.2 47.4 L616.05 49.1 616.0 50.8 616.05 51.9 616.2 53.25 Q616.45 54.5 616.95 55.5 617.55 56.5 618.7 56.5 620.6 56.5 622.0 55.2 623.45 53.9 624.35 52.25 L624.8 51.6 625.15 50.85 Q624.0 50.05 623.35 48.85 622.7 47.6 622.7 46.15 L622.7 45.85 622.7 45.65 Q622.95 43.45 624.4 41.45 625.8 39.5 628.05 38.9 627.95 36.6 627.2 35.65 626.4 34.6 625.25 34.6" fill="none" stroke="url(#gradient1)" stroke-linecap="round" stroke-linejoin="round" stroke-width="10.0"/>
    <path d="M555.2 49.1 L556.15 49.05 557.4 49.1 558.8 49.4 Q560.95 49.9 562.7 51.35 564.55 52.8 564.4 55.2 564.2 57.4 562.5 58.6 560.8 59.8 558.75 60.2 L557.35 60.45 556.05 60.5 555.05 60.45 554.1 60.3 Q551.75 59.85 549.9 58.4 548.0 56.95 548.15 54.35 548.3 51.9 550.15 50.75 552.05 49.55 554.15 49.2 L555.2 49.1" fill="none" stroke="url(#gradient2)" stroke-linecap="round" stroke-linejoin="round" stroke-width="10.0"/>
    <path d="M539.9 34.05 L540.55 43.65 Q541.0 51.2 535.65 55.15 530.35 59.1 523.9 59.75 L522.3 59.85 520.85 59.9 518.95 59.85 516.95 59.65 Q514.35 59.35 511.85 58.35 509.35 57.4 507.55 55.5 506.3 53.95 505.75 52.25 L505.65 51.85 505.55 51.65 505.3 51.95 Q502.55 55.65 497.55 58.0 494.6 59.35 491.3 60.05 L484.55 60.65 483.5 60.65 482.45 60.55 478.25 60.1 474.15 59.0 Q468.95 57.2 465.55 53.5 L463.65 50.9 459.75 55.55 Q455.8 59.65 449.0 60.25 L446.6 60.35 445.3 60.3 443.9 60.15 Q441.8 59.9 439.85 59.15 437.95 58.35 436.65 56.65 435.75 55.4 435.35 54.1 435.0 52.75 435.0 51.35 L435.05 50.1 435.2 48.9 Q435.45 47.4 436.0 45.85 L437.0 42.95 437.35 42.0 438.0 40.35 438.3 39.5 438.55 38.65 438.85 37.2 439.0 36.05 438.7 34.8 Q438.35 34.3 437.65 34.3 436.05 34.3 434.6 35.75 433.1 37.25 432.05 39.0 L431.05 40.95 430.35 42.6 428.9 46.85 427.45 51.05 425.9 55.35 424.5 59.55 406.55 59.55 408.5 54.1 410.45 48.6 412.3 43.15 414.15 37.7 414.4 36.7 414.5 35.8 Q414.5 34.95 414.1 34.6 413.7 34.2 412.95 34.2 L412.05 34.35 411.05 34.75 Q410.55 35.0 410.05 35.4 L409.1 36.4 Q407.75 37.95 406.15 40.75 404.6 43.6 402.8 48.45 L402.2 50.15 400.9 53.95 399.8 57.4 399.05 59.55 382.2 59.55 393.1 27.85 410.0 27.85 409.3 29.8 Q411.4 28.55 413.95 27.7 416.5 26.8 419.15 26.65 L419.65 26.65 420.2 26.65 422.8 26.8 425.25 27.45 Q427.15 28.1 428.7 29.35 430.25 30.7 430.85 32.75 433.55 29.9 436.95 28.35 440.35 26.8 443.95 26.8 L446.65 27.05 449.0 27.6 449.4 27.75 Q452.95 28.9 454.75 31.5 456.55 34.15 456.55 37.35 L456.35 39.5 455.7 41.8 455.2 43.3 454.45 45.4 454.25 45.95 454.1 46.5 453.4 48.9 Q453.1 50.05 453.1 50.75 L453.1 51.0 453.2 51.3 453.5 51.4 454.1 51.4 455.0 51.25 455.9 50.85 458.45 48.8 460.7 45.9 462.2 43.75 462.4 42.1 Q462.6 40.8 463.05 39.45 464.85 34.05 470.4 31.0 475.9 28.0 482.1 27.15 L484.75 26.9 487.35 26.8 491.05 27.0 494.4 27.6 494.9 27.8 495.4 27.9 Q498.05 28.6 500.35 30.45 502.65 32.25 502.7 35.3 502.9 40.2 498.65 42.95 494.4 45.8 489.35 47.05 L483.9 48.1 479.4 48.25 Q479.85 51.5 481.9 53.3 483.9 55.05 487.25 55.05 494.0 55.05 498.65 51.25 503.25 47.45 505.9 41.65 L507.0 42.15 508.2 41.0 Q510.1 39.7 512.35 39.8 L512.85 39.8 513.3 39.8 513.7 39.85 514.15 39.95 522.2 28.75 539.25 24.45 539.9 34.05 M490.7 30.6 Q487.35 30.5 484.95 33.1 482.45 35.7 481.25 38.9 L480.5 41.05 480.05 43.05 482.3 42.8 484.65 42.25 Q488.05 41.35 490.95 39.25 493.75 37.2 493.85 33.5 493.85 31.95 493.05 31.3 492.2 30.7 490.7 30.6 M519.15 48.1 L518.3 49.65 Q517.45 50.95 515.9 51.75 514.35 52.5 512.7 52.5 L512.5 52.5 512.25 52.5 512.05 52.45 511.85 52.4 Q512.45 53.35 513.45 54.0 514.45 54.65 515.6 54.65 519.3 54.65 521.55 52.65 523.75 50.7 523.75 46.8 L523.8 41.2 523.8 35.7 518.4 42.95 519.2 44.55 519.4 46.3 519.15 48.1 M378.7 30.9 L377.6 34.2 375.3 40.75 373.05 47.4 372.95 47.7 372.9 48.1 372.7 48.55 372.6 49.15 372.55 49.55 372.55 49.9 372.65 50.6 373.15 51.05 373.6 51.15 374.1 51.1 375.15 50.9 376.15 50.4 378.15 48.8 379.95 46.7 381.35 44.7 382.2 43.05 382.35 42.7 382.55 42.35 382.7 42.0 382.85 41.65 387.55 43.7 Q384.2 50.85 379.55 55.6 374.85 60.35 366.25 60.35 L366.0 60.35 365.8 60.35 Q362.85 60.25 360.3 59.0 357.7 57.85 356.5 55.0 354.0 57.25 350.9 58.65 347.8 60.1 344.5 60.35 L343.75 60.45 342.9 60.45 Q339.75 60.35 336.8 59.15 333.9 58.0 331.6 55.2 329.9 53.1 329.15 50.85 328.4 48.6 328.4 46.2 328.4 42.1 330.6 38.2 332.8 34.3 336.25 31.65 338.85 29.7 342.25 28.4 345.7 27.1 349.35 26.9 L350.1 26.8 350.9 26.8 Q353.75 26.8 356.5 27.65 359.15 28.55 361.35 30.35 L362.25 27.6 371.05 27.6 379.85 27.6 378.7 30.9 M328.1 14.5 Q328.1 17.25 325.85 19.0 323.6 20.75 320.8 20.95 L320.55 20.95 320.35 20.95 318.05 20.45 Q316.9 20.1 316.0 19.3 L315.65 19.0 315.25 18.65 315.15 18.6 315.1 18.5 314.85 18.3 314.65 18.1 316.0 16.75 317.05 15.3 317.75 14.05 317.9 12.9 Q317.9 11.85 316.9 11.2 315.9 10.55 313.45 10.55 307.7 10.55 302.6 16.55 297.5 22.55 294.5 29.85 L294.1 30.85 293.7 32.0 293.55 32.3 293.45 32.6 292.35 35.75 291.6 39.15 291.35 40.95 291.25 42.7 291.35 44.15 291.6 45.6 Q291.95 47.0 292.7 47.55 293.45 48.1 294.3 48.1 L294.95 48.05 295.6 47.9 297.3 47.0 298.75 45.7 Q300.1 44.05 301.55 41.15 303.0 38.3 304.55 33.55 L305.0 32.25 305.95 29.35 306.85 26.9 307.4 25.35 331.0 25.35 328.75 31.9 326.45 38.45 324.15 45.1 321.9 51.7 Q318.15 62.45 308.45 69.0 298.75 75.55 287.65 75.55 L283.85 75.3 280.05 74.65 Q275.1 73.45 272.65 71.25 270.2 69.05 269.65 66.6 L269.5 65.8 269.5 65.05 Q269.55 61.7 272.0 59.2 274.45 56.7 277.8 56.75 L280.75 57.35 Q282.2 57.9 283.7 59.35 L284.05 59.75 284.45 60.1 284.85 60.5 285.2 60.9 284.4 61.3 283.5 61.8 Q282.05 62.65 280.75 63.8 279.5 65.0 279.6 66.8 L279.6 67.1 279.6 67.3 Q279.8 68.85 280.9 69.55 282.05 70.3 283.5 70.4 L285.95 70.0 288.6 68.4 289.65 67.55 290.7 66.5 Q293.35 63.7 294.95 60.35 296.6 56.95 297.75 53.35 L295.0 54.1 292.15 54.7 290.75 54.85 289.35 54.85 Q284.85 54.85 280.7 53.0 277.0 51.35 274.5 47.9 L273.95 48.85 Q272.75 50.9 270.95 52.65 269.25 54.4 266.9 54.4 L265.1 54.1 263.5 53.4 Q261.05 55.4 257.7 56.55 254.4 57.65 250.9 57.9 L250.35 57.9 249.75 57.9 Q246.5 57.9 243.45 56.9 240.4 55.9 238.1 53.95 236.3 52.3 235.45 50.45 234.65 48.55 234.65 46.7 234.65 45.15 235.1 43.75 235.55 42.3 236.4 40.95 238.2 38.25 241.1 36.3 243.65 34.7 246.8 33.7 249.95 32.8 253.3 32.8 L254.3 32.85 255.25 32.85 Q257.95 33.1 260.55 34.0 263.15 34.95 265.15 36.8 266.85 38.3 267.75 40.2 268.6 42.15 268.6 44.2 L268.45 45.75 268.1 47.35 269.65 46.85 270.95 45.65 271.7 44.7 272.25 43.9 271.4 41.55 Q270.65 38.65 270.65 35.65 L270.7 34.2 270.85 32.7 271.35 29.65 272.2 26.75 Q275.1 18.4 282.8 13.1 290.5 7.8 299.1 6.25 L302.8 5.75 306.35 5.55 310.7 5.7 316.45 6.35 Q320.8 7.1 324.45 8.95 328.1 10.8 328.1 14.5 M358.6 33.05 Q358.3 32.4 357.0 32.4 L356.1 32.5 355.2 32.75 Q353.5 33.5 351.75 35.3 350.05 37.1 348.65 39.15 L346.95 42.05 Q346.15 43.4 345.8 44.4 L345.5 45.3 345.1 46.8 344.7 48.15 344.45 49.55 Q344.25 50.05 344.2 50.7 L344.15 51.85 Q344.15 53.25 344.6 54.1 345.1 55.05 346.25 55.05 348.9 55.05 350.9 52.85 352.95 50.7 354.4 48.1 L355.75 45.45 356.75 43.15 358.35 38.3 Q358.9 36.2 358.9 34.75 358.9 33.65 358.6 33.05 M255.55 35.95 Q254.9 35.95 254.15 36.3 253.35 36.65 252.6 37.25 L252.0 37.85 251.4 38.5 Q249.95 40.2 249.1 42.35 248.2 44.55 247.8 46.85 L247.7 48.35 247.65 49.75 247.65 50.7 247.8 51.85 Q248.0 52.95 248.45 53.8 248.95 54.65 249.95 54.65 251.55 54.65 252.75 53.55 L254.75 51.05 255.15 50.45 255.45 49.85 Q254.45 49.15 253.9 48.1 253.35 47.05 253.35 45.8 L253.35 45.55 253.35 45.35 Q253.55 43.5 254.8 41.8 256.0 40.1 257.9 39.6 257.85 37.65 257.2 36.8 256.5 35.95 255.55 35.95 M222.25 33.05 Q224.05 33.6 225.65 34.7 L226.05 33.4 238.15 33.4 235.9 40.1 234.7 43.6 233.6 46.8 231.25 53.45 228.95 60.15 Q227.5 64.45 223.2 67.2 218.9 70.0 214.05 70.65 L212.85 70.75 211.65 70.75 210.95 70.75 207.8 70.35 Q205.95 69.85 204.4 68.95 202.95 68.1 202.0 66.7 201.1 65.35 200.85 63.9 L200.75 63.25 200.7 62.65 Q200.8 61.1 201.75 59.85 202.65 58.55 204.85 58.15 L205.1 58.15 205.4 58.1 205.65 58.1 205.9 58.1 Q208.2 58.1 209.6 59.55 210.65 60.75 210.95 62.1 L211.05 62.8 211.05 62.9 211.05 63.0 210.95 63.9 210.25 65.4 208.65 66.8 207.75 67.15 208.05 67.25 208.4 67.35 208.65 67.45 208.95 67.45 210.95 67.25 Q212.85 66.75 214.05 65.1 215.9 62.6 217.05 59.7 L217.85 57.35 218.55 55.2 216.8 55.8 215.0 56.15 214.1 56.25 213.25 56.3 210.95 56.1 Q208.3 55.55 206.1 53.8 203.0 51.3 203.0 46.5 203.0 41.0 207.5 37.05 209.15 35.55 210.95 34.6 214.0 32.9 217.35 32.6 L218.0 32.55 218.7 32.5 222.25 33.05 M221.05 36.95 L219.8 37.75 Q218.55 38.9 217.35 40.75 216.1 42.6 215.25 44.55 L214.3 47.35 Q213.95 48.7 213.95 49.75 L214.05 50.65 214.25 51.45 214.8 52.1 215.5 52.3 Q218.1 52.3 219.7 50.05 221.35 47.75 222.25 44.95 L223.35 41.6 224.2 38.9 224.2 38.6 224.15 38.3 223.85 37.45 223.1 36.85 222.9 36.75 222.75 36.7 222.5 36.65 222.25 36.65 221.05 36.95 M166.6 9.8 L171.1 9.8 164.55 28.6 158.15 47.4 157.6 48.9 157.45 50.05 Q157.45 50.6 157.9 50.9 L159.35 51.1 161.15 50.55 163.4 48.9 Q165.05 47.25 166.05 45.4 L166.45 44.7 Q166.85 43.25 167.75 42.2 L168.0 41.6 168.2 41.7 169.0 41.0 Q170.9 39.7 173.15 39.8 L173.65 39.8 174.1 39.8 174.5 39.85 174.95 39.95 183.0 28.75 200.05 24.45 200.7 34.05 201.35 43.65 Q201.8 51.2 196.45 55.15 191.15 59.1 184.7 59.75 L183.1 59.85 181.65 59.9 179.75 59.85 177.75 59.65 Q175.15 59.35 172.65 58.35 170.15 57.4 168.35 55.5 167.4 54.35 166.9 53.1 L164.8 55.5 Q160.4 60.35 151.95 60.35 L150.95 60.3 150.05 60.25 Q147.75 60.0 145.6 59.1 143.4 58.25 142.05 56.35 141.15 55.1 140.75 53.55 140.25 52.05 140.25 50.5 L140.3 49.8 140.35 49.25 140.8 46.65 141.5 44.1 147.45 26.9 153.25 9.8 157.75 9.8 162.2 9.8 166.6 9.8 M180.05 44.6 L180.25 46.35 180.0 48.15 179.15 49.7 Q178.3 51.0 176.75 51.8 175.2 52.55 173.55 52.55 L173.35 52.55 173.1 52.55 172.9 52.5 172.7 52.45 Q173.3 53.4 174.3 54.05 175.3 54.7 176.45 54.7 180.15 54.7 182.4 52.7 184.6 50.75 184.6 46.85 L184.65 41.25 184.65 35.75 179.25 43.0 180.05 44.6 M140.7 34.0 Q140.7 37.35 138.7 39.3 136.65 41.25 134.25 41.25 L134.1 41.25 133.95 41.25 Q132.05 41.25 130.35 39.95 128.65 38.7 127.9 35.9 L127.2 34.7 Q126.8 34.25 126.3 34.35 125.35 34.35 124.25 35.4 123.1 36.45 121.85 38.3 119.65 41.05 118.15 44.5 116.65 48.0 115.45 51.5 L114.4 54.5 113.45 57.4 113.1 58.45 112.75 59.55 96.05 59.55 103.55 38.55 103.7 37.9 103.7 37.45 Q103.7 36.45 102.9 36.1 L101.15 35.9 Q98.8 36.15 97.0 38.05 95.2 39.95 94.05 42.15 L93.5 43.1 94.85 43.8 94.4 44.65 93.9 45.45 90.8 51.1 Q89.05 53.85 86.6 56.0 84.35 58.0 81.35 59.1 78.3 60.15 75.05 60.35 L74.25 60.35 71.5 60.15 68.9 59.55 Q65.45 58.35 64.0 55.9 62.6 53.4 62.6 50.4 L62.75 48.4 63.15 46.2 63.45 45.15 63.75 44.15 66.6 35.85 69.45 27.6 73.85 27.6 78.3 27.6 82.75 27.6 87.15 27.6 86.05 30.9 84.9 34.2 82.6 40.75 80.4 47.4 Q80.1 48.1 79.95 48.75 L79.75 50.0 Q79.75 50.5 80.15 50.85 L81.55 51.1 83.4 50.55 85.65 48.9 Q87.25 47.25 88.25 45.4 L89.65 42.8 88.55 42.35 Q90.85 36.15 95.4 31.25 100.0 26.35 106.85 26.0 L108.15 25.9 109.55 26.0 Q112.55 26.15 115.3 27.5 118.05 28.8 119.65 31.4 121.65 29.95 123.85 28.65 126.1 27.45 128.45 26.7 L130.55 26.2 132.6 26.05 135.3 26.4 Q136.55 26.75 137.75 27.5 138.9 28.3 139.6 29.5 140.25 30.7 140.55 31.95 L140.7 33.05 140.7 34.0 M85.2 12.25 L85.65 12.45 Q87.5 13.25 89.1 14.7 90.7 16.15 90.7 18.2 L90.6 18.8 90.5 19.45 Q89.95 21.15 88.5 22.3 87.1 23.45 85.45 24.0 L84.8 24.1 84.25 24.25 82.75 24.45 81.3 24.5 77.3 24.05 Q75.3 23.55 73.8 22.35 72.6 21.5 71.95 20.25 71.25 19.0 71.25 17.75 71.25 17.0 71.5 16.3 71.8 15.55 72.25 14.95 73.5 13.3 75.55 12.5 77.6 11.7 79.75 11.5 L80.25 11.5 80.75 11.5 82.7 11.65 84.6 12.1 85.2 12.25 M61.6 19.0 Q59.35 20.75 56.55 20.95 L56.3 20.95 56.1 20.95 53.8 20.45 Q52.65 20.1 51.75 19.3 L51.4 19.0 51.0 18.65 50.9 18.6 50.85 18.5 50.6 18.3 50.4 18.1 51.75 16.75 52.8 15.3 53.5 14.05 53.65 12.9 Q53.65 11.85 52.65 11.2 51.65 10.55 49.2 10.55 43.45 10.55 38.35 16.55 33.25 22.55 30.25 29.85 L29.85 30.85 29.45 32.0 29.3 32.3 29.2 32.6 28.1 35.75 27.35 39.15 27.1 40.95 27.0 42.7 27.1 44.15 27.35 45.6 Q27.7 47.0 28.45 47.55 29.2 48.1 30.05 48.1 L30.7 48.05 31.35 47.9 33.05 47.0 34.5 45.7 Q35.85 44.05 37.3 41.15 38.75 38.3 40.3 33.55 L40.75 32.25 41.7 29.35 42.6 26.9 43.15 25.35 66.75 25.35 64.5 31.9 62.2 38.45 59.9 45.1 57.65 51.7 Q53.9 62.45 44.2 69.0 34.5 75.55 23.4 75.55 L19.6 75.3 15.8 74.65 Q10.85 73.45 8.4 71.25 5.95 69.05 5.4 66.6 L5.25 65.8 5.25 65.05 Q5.3 61.7 7.75 59.2 10.2 56.7 13.55 56.75 15.05 56.75 16.5 57.35 17.95 57.9 19.45 59.35 L19.8 59.75 20.2 60.1 20.6 60.5 20.95 60.9 20.15 61.3 19.25 61.8 Q17.8 62.65 16.5 63.8 15.25 65.0 15.35 66.8 L15.35 67.1 15.35 67.3 Q15.55 68.85 16.65 69.55 17.8 70.3 19.25 70.4 L21.7 70.0 Q23.05 69.45 24.35 68.4 L25.4 67.55 26.45 66.5 Q29.1 63.7 30.7 60.35 32.35 56.95 33.5 53.35 L30.75 54.1 27.9 54.7 26.5 54.85 25.1 54.85 Q20.6 54.85 16.45 53.0 12.35 51.15 9.65 47.05 7.95 44.4 7.15 41.55 6.4 38.65 6.4 35.65 L6.45 34.2 6.6 32.7 7.1 29.65 7.95 26.75 Q10.85 18.4 18.55 13.1 26.25 7.8 34.85 6.25 L38.55 5.75 42.1 5.55 46.45 5.7 52.2 6.35 Q56.55 7.1 60.2 8.95 63.85 10.8 63.85 14.5 63.85 17.25 61.6 19.0" fill="none" stroke="url(#gradient3)" stroke-linecap="round" stroke-linejoin="round" stroke-width="10.0"/>
    <path d="M695.1 31.75 Q698.0 32.65 699.5 34.8 700.95 36.95 700.95 39.6 L700.8 41.4 700.3 43.25 699.85 44.5 699.25 46.2 699.1 46.7 698.95 47.15 698.4 49.1 698.15 50.6 698.15 50.8 698.2 51.05 698.45 51.1 698.95 51.1 699.7 51.0 700.4 50.7 702.5 49.0 704.35 46.65 705.65 44.65 706.5 43.1 710.2 44.85 Q707.45 50.55 703.6 54.5 699.75 58.45 692.8 58.45 L691.75 58.4 690.6 58.3 Q688.9 58.1 687.3 57.45 685.7 56.8 684.65 55.4 683.95 54.4 683.6 53.3 683.35 52.25 683.35 51.1 L683.35 50.05 683.5 49.05 684.15 46.6 684.95 44.2 685.25 43.4 685.8 42.05 686.0 41.4 686.2 40.65 686.5 39.5 686.6 38.55 686.35 37.5 Q686.1 37.1 685.5 37.1 684.15 37.1 682.95 38.3 681.8 39.55 680.9 40.95 L680.1 42.55 679.5 43.9 678.3 47.4 677.1 50.85 675.85 54.35 674.7 57.8 660.05 57.8 661.6 53.35 663.2 48.85 664.7 44.35 666.25 39.9 666.45 39.05 666.55 38.35 Q666.55 37.6 666.2 37.35 665.9 37.05 665.25 37.05 L664.5 37.15 663.7 37.5 662.9 38.0 662.1 38.8 Q661.0 40.1 659.7 42.4 658.4 44.75 656.9 48.7 L656.45 50.1 655.35 53.2 654.45 56.05 653.9 57.8 640.05 57.8 640.8 55.7 638.45 56.1 636.35 55.8 634.45 54.9 Q631.6 57.3 627.7 58.65 623.8 59.95 619.75 60.2 L619.1 60.2 618.4 60.2 Q614.55 60.2 611.0 59.05 607.45 57.85 604.75 55.6 602.65 53.65 601.65 51.5 L601.25 52.0 Q599.2 54.7 595.35 56.55 593.05 57.6 590.25 58.15 L584.6 58.7 584.15 58.7 583.65 58.7 Q579.35 58.45 575.4 57.05 571.45 55.6 568.9 52.4 567.6 50.7 566.95 48.95 566.35 47.2 566.35 45.4 566.35 42.0 568.4 38.9 570.45 35.85 573.7 34.0 575.9 32.8 579.0 31.95 582.1 31.1 585.35 31.0 L586.15 30.9 586.9 30.9 Q589.75 30.9 592.2 31.55 594.75 32.2 596.6 33.85 597.5 34.75 598.1 35.95 598.7 37.2 598.85 38.55 L598.85 38.8 598.85 39.05 598.5 40.95 597.5 42.65 Q596.65 43.6 595.6 44.05 L593.2 44.5 592.85 44.5 592.5 44.4 591.1 44.1 589.8 43.5 Q588.85 42.85 588.25 41.95 587.65 41.0 587.5 39.95 L587.5 39.85 587.5 39.6 587.4 39.45 587.4 39.3 Q587.4 37.6 588.55 36.35 589.65 35.1 591.3 34.65 L590.4 34.4 589.45 34.35 589.0 34.35 588.6 34.45 588.2 34.5 587.8 34.65 Q585.2 35.55 583.35 38.3 581.4 41.1 580.75 44.25 L580.55 45.7 580.5 47.15 Q580.55 50.05 582.05 52.15 583.5 54.25 586.9 54.25 592.6 54.25 596.15 51.1 598.85 48.7 600.85 45.45 601.2 42.8 602.8 40.35 604.85 37.2 608.25 34.95 611.25 33.05 614.9 31.9 618.6 30.85 622.55 30.85 L623.7 30.85 624.8 30.9 Q628.0 31.2 631.05 32.25 634.05 33.3 636.4 35.5 638.35 37.25 639.4 39.5 640.45 41.8 640.45 44.2 L640.3 45.95 639.85 47.85 641.65 47.25 643.2 45.9 644.1 44.8 645.0 43.2 645.05 43.25 649.0 31.8 662.85 31.8 662.25 33.45 Q663.95 32.4 666.05 31.7 668.15 31.0 670.3 30.85 L670.75 30.85 671.2 30.85 673.3 31.0 675.35 31.5 Q676.9 32.0 678.15 33.05 679.45 34.15 679.95 35.85 682.15 33.5 684.9 32.25 687.7 31.0 690.65 31.0 L692.85 31.15 695.1 31.75 M625.15 34.5 L623.5 34.9 Q622.6 35.3 621.7 36.05 L621.05 36.7 620.3 37.5 Q618.6 39.45 617.6 42.05 616.55 44.55 616.1 47.3 L615.95 49.0 615.9 50.7 615.95 51.8 616.1 53.15 616.85 55.4 Q617.45 56.4 618.6 56.4 620.5 56.4 621.9 55.1 623.35 53.8 624.25 52.15 L624.7 51.5 625.05 50.75 Q623.9 49.95 623.25 48.75 622.6 47.5 622.6 46.05 L622.6 45.75 622.6 45.55 Q622.85 43.35 624.3 41.35 625.7 39.4 627.95 38.8 627.85 36.5 627.1 35.55 626.3 34.5 625.15 34.5 M539.9 34.05 L540.55 43.65 Q541.0 51.2 535.65 55.15 530.35 59.1 523.9 59.75 L522.3 59.85 520.85 59.9 518.95 59.85 516.95 59.65 Q514.35 59.35 511.85 58.35 509.35 57.4 507.55 55.5 506.3 53.95 505.75 52.25 L505.55 51.65 505.3 51.95 Q502.55 55.65 497.55 58.0 494.6 59.35 491.3 60.05 L484.55 60.65 483.5 60.65 482.45 60.55 478.25 60.1 474.15 59.0 Q468.95 57.2 465.55 53.5 L463.65 50.9 459.75 55.55 Q455.1 60.35 446.6 60.35 L445.3 60.3 443.9 60.15 Q441.8 59.9 439.85 59.15 437.95 58.35 436.65 56.65 435.75 55.4 435.35 54.1 435.0 52.75 435.0 51.35 L435.05 50.1 435.2 48.9 Q435.45 47.4 436.0 45.85 L437.0 42.95 437.35 42.0 438.0 40.35 438.3 39.5 438.55 38.65 438.85 37.2 439.0 36.05 438.7 34.8 Q438.35 34.3 437.65 34.3 436.05 34.3 434.6 35.75 433.1 37.25 432.05 39.0 L431.05 40.95 430.35 42.6 428.9 46.85 427.45 51.05 425.9 55.35 424.5 59.55 406.55 59.55 408.5 54.1 410.45 48.6 412.3 43.15 414.15 37.7 414.4 36.7 414.5 35.8 Q414.5 34.95 414.1 34.6 413.7 34.2 412.95 34.2 L412.05 34.35 411.05 34.75 Q410.55 35.0 410.05 35.4 L409.1 36.4 Q407.75 37.95 406.15 40.75 404.6 43.6 402.8 48.45 L402.2 50.15 400.9 53.95 399.8 57.4 399.05 59.55 382.2 59.55 393.1 27.85 410.0 27.85 409.3 29.8 Q411.4 28.55 413.95 27.7 416.5 26.8 419.15 26.65 L419.65 26.65 420.2 26.65 422.8 26.8 425.25 27.45 Q427.15 28.1 428.7 29.35 430.25 30.7 430.85 32.75 433.55 29.9 436.95 28.35 440.35 26.8 443.95 26.8 L446.65 27.05 449.4 27.75 Q452.95 28.9 454.75 31.5 456.55 34.15 456.55 37.35 L456.35 39.5 455.7 41.8 455.2 43.3 454.45 45.4 454.25 45.95 454.1 46.5 453.4 48.9 Q453.1 50.05 453.1 50.75 L453.1 51.0 453.2 51.3 453.5 51.4 454.1 51.4 455.0 51.25 455.9 50.85 458.45 48.8 460.7 45.9 462.2 43.75 462.4 42.1 Q462.6 40.8 463.05 39.45 464.85 34.05 470.4 31.0 475.9 28.0 482.1 27.15 L484.75 26.9 487.35 26.8 491.05 27.0 494.4 27.6 494.9 27.8 495.4 27.9 Q498.05 28.6 500.35 30.45 502.65 32.25 502.7 35.3 502.9 40.2 498.65 42.95 494.4 45.8 489.35 47.05 L483.9 48.1 479.4 48.25 Q479.85 51.5 481.9 53.3 483.9 55.05 487.25 55.05 494.0 55.05 498.65 51.25 503.25 47.45 505.9 41.65 L507.0 42.15 508.2 41.0 Q510.1 39.7 512.35 39.8 L512.85 39.8 513.3 39.8 513.7 39.85 514.15 39.95 522.2 28.75 539.25 24.45 539.9 34.05 M555.1 49.0 L556.05 48.95 557.3 49.0 558.7 49.3 Q560.85 49.8 562.6 51.25 564.45 52.7 564.3 55.1 564.1 57.3 562.4 58.5 560.7 59.7 558.65 60.1 L557.25 60.35 555.95 60.4 554.95 60.35 554.0 60.2 Q552.45 59.9 551.1 59.15 L549.8 58.3 Q547.9 56.85 548.05 54.25 548.2 51.8 550.05 50.65 L551.1 50.05 Q552.5 49.35 554.05 49.1 L555.1 49.0 M490.7 30.6 Q487.35 30.5 484.95 33.1 482.45 35.7 481.25 38.9 L480.5 41.05 480.05 43.05 482.3 42.8 484.65 42.25 Q488.05 41.35 490.95 39.25 493.75 37.2 493.85 33.5 493.85 31.95 493.05 31.3 492.2 30.7 490.7 30.6 M519.15 48.1 L518.3 49.65 Q517.45 50.95 515.9 51.75 514.35 52.5 512.7 52.5 L512.5 52.5 512.25 52.5 512.05 52.45 511.85 52.4 Q512.45 53.35 513.45 54.0 514.45 54.65 515.6 54.65 519.3 54.65 521.55 52.65 523.75 50.7 523.75 46.8 L523.8 41.2 523.8 35.7 518.4 42.95 519.2 44.55 519.4 46.3 519.15 48.1 M378.7 30.9 L377.6 34.2 375.3 40.75 373.05 47.4 372.95 47.7 372.9 48.1 372.7 48.55 372.6 49.15 372.55 49.55 372.55 49.9 372.65 50.6 373.15 51.05 373.6 51.15 374.1 51.1 375.15 50.9 376.15 50.4 378.15 48.8 379.95 46.7 381.35 44.7 382.2 43.05 382.35 42.7 382.55 42.35 382.7 42.0 382.85 41.65 387.55 43.7 Q384.2 50.85 379.55 55.6 374.85 60.35 366.25 60.35 L366.0 60.35 365.8 60.35 Q362.85 60.25 360.3 59.0 357.7 57.85 356.5 55.0 354.0 57.25 350.9 58.65 347.8 60.1 344.5 60.35 L343.75 60.45 342.9 60.45 Q339.75 60.35 336.8 59.15 333.9 58.0 331.6 55.2 329.9 53.1 329.15 50.85 328.4 48.6 328.4 46.2 328.4 42.1 330.6 38.2 332.8 34.3 336.25 31.65 338.85 29.7 342.25 28.4 345.7 27.1 349.35 26.9 L350.1 26.8 350.9 26.8 Q353.75 26.8 356.5 27.65 359.15 28.55 361.35 30.35 L362.25 27.6 371.05 27.6 379.85 27.6 378.7 30.9 M328.1 14.5 Q328.1 17.25 325.85 19.0 323.6 20.75 320.8 20.95 L320.55 20.95 320.35 20.95 318.05 20.45 Q316.9 20.1 316.0 19.3 L315.65 19.0 315.25 18.65 315.15 18.6 315.1 18.5 314.85 18.3 314.65 18.1 316.0 16.75 317.05 15.3 317.75 14.05 317.9 12.9 Q317.9 11.85 316.9 11.2 315.9 10.55 313.45 10.55 307.7 10.55 302.6 16.55 297.5 22.55 294.5 29.85 L294.1 30.85 293.7 32.0 293.55 32.3 293.45 32.6 292.35 35.75 291.6 39.15 291.35 40.95 291.25 42.7 291.35 44.15 291.6 45.6 Q291.95 47.0 292.7 47.55 293.45 48.1 294.3 48.1 L294.95 48.05 295.6 47.9 297.3 47.0 298.75 45.7 Q300.1 44.05 301.55 41.15 303.0 38.3 304.55 33.55 L305.0 32.25 305.95 29.35 306.85 26.9 307.4 25.35 331.0 25.35 328.75 31.9 326.45 38.45 324.15 45.1 321.9 51.7 Q318.15 62.45 308.45 69.0 298.75 75.55 287.65 75.55 L283.85 75.3 280.05 74.65 Q275.1 73.45 272.65 71.25 270.2 69.05 269.65 66.6 L269.5 65.8 269.5 65.05 Q269.55 61.7 272.0 59.2 274.45 56.7 277.8 56.75 L280.75 57.35 Q282.2 57.9 283.7 59.35 L284.05 59.75 284.45 60.1 284.85 60.5 285.2 60.9 284.4 61.3 283.5 61.8 Q282.05 62.65 280.75 63.8 279.5 65.0 279.6 66.8 L279.6 67.1 279.6 67.3 Q279.8 68.85 280.9 69.55 282.05 70.3 283.5 70.4 L285.95 70.0 288.6 68.4 289.65 67.55 290.7 66.5 Q293.35 63.7 294.95 60.35 296.6 56.95 297.75 53.35 L295.0 54.1 292.15 54.7 290.75 54.85 289.35 54.85 Q284.85 54.85 280.7 53.0 277.0 51.35 274.5 47.9 L273.95 48.85 Q272.75 50.9 270.95 52.65 269.25 54.4 266.9 54.4 L265.1 54.1 263.5 53.4 Q261.05 55.4 257.7 56.55 254.4 57.65 250.9 57.9 L250.35 57.9 249.75 57.9 Q246.5 57.9 243.45 56.9 240.4 55.9 238.1 53.95 236.3 52.3 235.45 50.45 234.65 48.55 234.65 46.7 234.65 43.65 236.4 40.95 238.2 38.25 241.1 36.3 243.65 34.7 246.8 33.7 249.95 32.8 253.3 32.8 L254.3 32.85 255.25 32.85 Q257.95 33.1 260.55 34.0 263.15 34.95 265.15 36.8 266.85 38.3 267.75 40.2 268.6 42.15 268.6 44.2 L268.45 45.75 268.1 47.35 269.65 46.85 270.95 45.65 271.7 44.7 272.25 43.9 271.4 41.55 Q270.65 38.65 270.65 35.65 L270.7 34.2 270.85 32.7 271.35 29.65 272.2 26.75 Q275.1 18.4 282.8 13.1 290.5 7.8 299.1 6.25 L302.8 5.75 306.35 5.55 310.7 5.7 316.45 6.35 Q320.8 7.1 324.45 8.95 328.1 10.8 328.1 14.5 M358.6 33.05 Q358.3 32.4 357.0 32.4 L356.1 32.5 355.2 32.75 Q353.5 33.5 351.75 35.3 350.05 37.1 348.65 39.15 L346.95 42.05 Q346.15 43.4 345.8 44.4 L345.5 45.3 345.1 46.8 344.7 48.15 344.45 49.55 Q344.25 50.05 344.2 50.7 L344.15 51.85 Q344.15 53.25 344.6 54.1 345.1 55.05 346.25 55.05 348.9 55.05 350.9 52.85 352.95 50.7 354.4 48.1 L355.75 45.45 356.75 43.15 358.35 38.3 Q358.9 36.2 358.9 34.75 358.9 33.65 358.6 33.05 M255.55 35.95 Q254.9 35.95 254.15 36.3 253.35 36.65 252.6 37.25 L252.0 37.85 251.4 38.5 Q249.95 40.2 249.1 42.35 248.2 44.55 247.8 46.85 L247.7 48.35 247.65 49.75 247.65 50.7 247.8 51.85 Q248.0 52.95 248.45 53.8 248.95 54.65 249.95 54.65 251.55 54.65 252.75 53.55 L254.75 51.05 255.15 50.45 255.45 49.85 Q254.45 49.15 253.9 48.1 253.35 47.05 253.35 45.8 L253.35 45.55 253.35 45.35 Q253.55 43.5 254.8 41.8 256.0 40.1 257.9 39.6 257.85 37.65 257.2 36.8 256.5 35.95 255.55 35.95 M222.25 33.05 Q224.05 33.6 225.65 34.7 L226.05 33.4 238.15 33.4 235.9 40.1 233.6 46.8 231.25 53.45 228.95 60.15 Q227.5 64.45 223.2 67.2 218.9 70.0 214.05 70.65 L212.85 70.75 211.65 70.75 207.8 70.35 Q205.95 69.85 204.4 68.95 202.95 68.1 202.0 66.7 201.1 65.35 200.85 63.9 L200.75 63.25 200.7 62.65 Q200.8 61.1 201.75 59.85 202.65 58.55 204.85 58.15 L205.1 58.15 205.4 58.1 205.65 58.1 205.9 58.1 Q208.2 58.1 209.6 59.55 210.95 61.05 211.05 62.8 L211.05 62.9 211.05 63.0 Q211.05 64.25 210.25 65.4 209.45 66.6 207.75 67.15 L208.05 67.25 208.4 67.35 208.65 67.45 208.95 67.45 Q212.25 67.55 214.05 65.1 215.9 62.6 217.05 59.7 L217.85 57.35 218.55 55.2 216.8 55.8 215.0 56.15 214.1 56.25 213.25 56.3 Q209.2 56.3 206.1 53.8 203.0 51.3 203.0 46.5 203.0 41.0 207.5 37.05 212.0 33.05 217.35 32.6 L218.0 32.55 218.7 32.5 222.25 33.05 M221.05 36.95 L219.8 37.75 Q218.55 38.9 217.35 40.75 216.1 42.6 215.25 44.55 L214.3 47.35 Q213.95 48.7 213.95 49.75 L214.05 50.65 214.25 51.45 214.8 52.1 215.5 52.3 Q218.1 52.3 219.7 50.05 221.35 47.75 222.25 44.95 L223.35 41.6 224.2 38.9 224.2 38.6 224.15 38.3 223.85 37.45 223.1 36.85 222.9 36.75 222.75 36.7 222.5 36.65 222.25 36.65 221.05 36.95 M166.6 9.8 L171.1 9.8 164.55 28.6 158.15 47.4 157.6 48.9 157.45 50.05 Q157.45 50.6 157.9 50.9 L159.35 51.1 161.15 50.55 163.4 48.9 Q165.05 47.25 166.05 45.4 L166.45 44.7 Q166.85 43.25 167.75 42.2 L168.0 41.6 168.2 41.7 169.0 41.0 Q170.9 39.7 173.15 39.8 L173.65 39.8 174.1 39.8 174.5 39.85 174.95 39.95 183.0 28.75 200.05 24.45 200.7 34.05 201.35 43.65 Q201.8 51.2 196.45 55.15 191.15 59.1 184.7 59.75 L183.1 59.85 181.65 59.9 179.75 59.85 177.75 59.65 Q175.15 59.35 172.65 58.35 170.15 57.4 168.35 55.5 167.4 54.35 166.9 53.1 L164.8 55.5 Q160.4 60.35 151.95 60.35 L150.95 60.3 150.05 60.25 Q147.75 60.0 145.6 59.1 143.4 58.25 142.05 56.35 141.15 55.1 140.75 53.55 140.25 52.05 140.25 50.5 L140.3 49.8 140.35 49.25 140.8 46.65 141.5 44.1 147.45 26.9 153.25 9.8 157.75 9.8 162.2 9.8 166.6 9.8 M180.0 44.55 L180.2 46.3 179.95 48.1 179.1 49.65 Q178.25 50.95 176.7 51.75 175.15 52.5 173.5 52.5 L173.3 52.5 173.05 52.5 172.85 52.45 172.65 52.4 Q173.25 53.35 174.25 54.0 175.25 54.65 176.4 54.65 180.1 54.65 182.35 52.65 184.55 50.7 184.55 46.8 L184.6 41.2 184.6 35.7 179.2 42.95 180.0 44.55 M140.7 34.0 Q140.7 37.35 138.7 39.3 136.65 41.25 134.25 41.25 L134.1 41.25 133.95 41.25 Q132.05 41.25 130.35 39.95 128.65 38.7 127.9 35.9 L127.2 34.7 Q126.8 34.25 126.3 34.35 125.35 34.35 124.25 35.4 123.1 36.45 121.85 38.3 119.65 41.05 118.15 44.5 116.65 48.0 115.45 51.5 L114.4 54.5 113.45 57.4 113.1 58.45 112.75 59.55 96.05 59.55 103.55 38.55 103.7 37.9 103.7 37.45 Q103.7 36.45 102.9 36.1 L101.15 35.9 Q98.8 36.15 97.0 38.05 95.2 39.95 94.05 42.15 L93.5 43.1 94.85 43.8 94.4 44.65 93.9 45.45 90.8 51.1 Q89.05 53.85 86.6 56.0 84.35 58.0 81.35 59.1 78.3 60.15 75.05 60.35 L74.65 60.35 74.25 60.35 71.5 60.15 68.9 59.55 Q65.45 58.35 64.0 55.9 62.6 53.4 62.6 50.4 L62.75 48.4 63.15 46.2 63.45 45.15 63.75 44.15 66.6 35.85 69.45 27.6 73.85 27.6 78.3 27.6 82.75 27.6 87.15 27.6 86.05 30.9 84.9 34.2 82.6 40.75 80.4 47.4 Q80.1 48.1 79.95 48.75 L79.75 50.0 Q79.75 50.5 80.15 50.85 L81.55 51.1 83.4 50.55 85.65 48.9 Q87.25 47.25 88.25 45.4 L89.65 42.8 88.55 42.35 Q90.85 36.15 95.4 31.25 100.0 26.35 106.85 26.0 L108.15 25.9 109.55 26.0 Q112.55 26.15 115.3 27.5 118.05 28.8 119.65 31.4 121.65 29.95 123.85 28.65 126.1 27.45 128.45 26.7 L130.55 26.2 132.6 26.05 135.3 26.4 Q136.55 26.75 137.75 27.5 138.9 28.3 139.6 29.5 140.25 30.7 140.55 31.95 L140.7 33.05 140.7 34.0 M85.2 12.25 L85.65 12.45 Q87.5 13.25 89.1 14.7 90.7 16.15 90.7 18.2 L90.6 18.8 90.5 19.45 Q89.95 21.15 88.5 22.3 87.1 23.45 85.45 24.0 L84.8 24.1 84.25 24.25 82.75 24.45 81.3 24.5 77.3 24.05 Q75.3 23.55 73.8 22.35 72.6 21.5 71.95 20.25 71.25 19.0 71.25 17.75 71.25 17.0 71.5 16.3 71.8 15.55 72.25 14.95 73.5 13.3 75.55 12.5 77.6 11.7 79.75 11.5 L80.25 11.5 80.75 11.5 82.7 11.65 84.6 12.1 85.2 12.25 M61.6 19.0 Q59.35 20.75 56.55 20.95 L56.3 20.95 56.1 20.95 53.8 20.45 Q52.65 20.1 51.75 19.3 L51.4 19.0 51.0 18.65 50.9 18.6 50.85 18.5 50.6 18.3 50.4 18.1 51.75 16.75 52.8 15.3 53.5 14.05 53.65 12.9 Q53.65 11.85 52.65 11.2 51.65 10.55 49.2 10.55 43.45 10.55 38.35 16.55 33.25 22.55 30.25 29.85 L29.85 30.85 29.45 32.0 29.3 32.3 29.2 32.6 28.1 35.75 27.35 39.15 27.1 40.95 27.0 42.7 27.1 44.15 27.35 45.6 Q27.7 47.0 28.45 47.55 29.2 48.1 30.05 48.1 L30.7 48.05 31.35 47.9 33.05 47.0 34.5 45.7 Q35.85 44.05 37.3 41.15 38.75 38.3 40.3 33.55 L40.75 32.25 41.7 29.35 42.6 26.9 43.15 25.35 66.75 25.35 64.5 31.9 62.2 38.45 59.9 45.1 57.65 51.7 Q53.9 62.45 44.2 69.0 34.5 75.55 23.4 75.55 L19.6 75.3 15.8 74.65 Q10.85 73.45 8.4 71.25 5.95 69.05 5.4 66.6 L5.25 65.8 5.25 65.05 Q5.3 61.7 7.75 59.2 10.2 56.7 13.55 56.75 15.05 56.75 16.5 57.35 17.95 57.9 19.45 59.35 L19.8 59.75 20.2 60.1 20.6 60.5 20.95 60.9 20.15 61.3 19.25 61.8 Q17.8 62.65 16.5 63.8 15.25 65.0 15.35 66.8 L15.35 67.1 15.35 67.3 Q15.55 68.85 16.65 69.55 17.8 70.3 19.25 70.4 L21.7 70.0 Q23.05 69.45 24.35 68.4 L25.4 67.55 26.45 66.5 Q29.1 63.7 30.7 60.35 32.35 56.95 33.5 53.35 L30.75 54.1 27.9 54.7 26.5 54.85 25.1 54.85 Q20.6 54.85 16.45 53.0 12.35 51.15 9.65 47.05 7.95 44.4 7.15 41.55 6.4 38.65 6.4 35.65 L6.45 34.2 6.6 32.7 7.1 29.65 7.95 26.75 Q10.85 18.4 18.55 13.1 26.25 7.8 34.85 6.25 L38.55 5.75 42.1 5.55 46.45 5.7 52.2 6.35 Q56.55 7.1 60.2 8.95 63.85 10.8 63.85 14.5 63.85 17.25 61.6 19.0" fill="#ffffff" fill-rule="evenodd" stroke="none"/>
  </g>
  <defs>
    <linearGradient gradientTransform="matrix(0.0, 0.0242, -0.024, 0.0, 638.35, 45.6)" gradientUnits="userSpaceOnUse" id="gradient0" spreadMethod="pad" x1="-819.2" x2="819.2">
      <stop offset="0.0" stop-color="#cb018e"/>
      <stop offset="1.0" stop-color="#78016b"/>
    </linearGradient>
    <linearGradient gradientTransform="matrix(0.0, 0.0135, -0.0194, 0.0, 622.05, 45.55)" gradientUnits="userSpaceOnUse" id="gradient1" spreadMethod="pad" x1="-819.2" x2="819.2">
      <stop offset="0.0" stop-color="#cb018e"/>
      <stop offset="1.0" stop-color="#78016b"/>
    </linearGradient>
    <linearGradient gradientTransform="matrix(0.0, 0.016, -0.0131, 0.0, 556.25, 54.75)" gradientUnits="userSpaceOnUse" id="gradient2" spreadMethod="pad" x1="-819.2" x2="819.2">
      <stop offset="0.0" stop-color="#cb018e"/>
      <stop offset="1.0" stop-color="#78016b"/>
    </linearGradient>
    <linearGradient gradientTransform="matrix(0.0, 0.0488, -0.0649, 0.0, 282.85, 40.5)" gradientUnits="userSpaceOnUse" id="gradient3" spreadMethod="pad" x1="-819.2" x2="819.2">
      <stop offset="0.0" stop-color="#ef019d"/>
      <stop offset="1.0" stop-color="#5a015f"/>
    </linearGradient>
  </defs>
</svg>
