<?xml version="1.0" encoding="UTF-8" standalone="no"?>
<svg xmlns:xlink="http://www.w3.org/1999/xlink" height="30.6px" width="30.05px" xmlns="http://www.w3.org/2000/svg">
  <g transform="matrix(1.0, 0.0, 0.0, 1.0, 1.5, 0.55)">
    <path d="M24.1 4.4 Q28.55 8.8 28.55 15.0 28.55 21.25 24.1 25.65 19.75 30.05 13.5 30.05 7.25 30.05 2.9 25.65 -1.5 21.25 -1.5 15.0 -1.5 8.8 2.9 4.4 7.25 0.0 13.5 0.0 19.75 0.0 24.1 4.4" fill="#00618c" fill-rule="evenodd" stroke="none"/>
    <path d="M21.6 7.9 Q24.6 10.85 24.6 15.05 24.6 19.25 21.6 22.2 18.65 25.2 14.45 25.2 10.25 25.2 7.3 22.2 4.3 19.25 4.3 15.05 4.3 10.85 7.3 7.9 10.25 4.9 14.45 4.9 18.65 4.9 21.6 7.9" fill="#003046" fill-rule="evenodd" stroke="none"/>
    <path d="M0.65 5.2 Q0.65 2.8 2.6 1.1 4.55 -0.55 7.3 -0.55 10.05 -0.55 12.0 1.1 13.95 2.8 13.95 5.2 13.95 7.55 12.0 9.2 10.05 10.9 7.3 10.9 4.55 10.9 2.6 9.2 0.65 7.55 0.65 5.2" fill="#ffffff" fill-opacity="0.8" fill-rule="evenodd" stroke="none"/>
    <path d="M8.95 29.25 Q6.6 29.25 4.9 27.55 3.2 25.85 3.2 23.5 3.2 21.05 4.9 19.35 6.6 17.65 8.95 17.65 11.4 17.65 13.1 19.35 14.8 21.05 14.8 23.5 14.8 25.85 13.1 27.55 11.4 29.25 8.95 29.25" fill="#ffffff" fill-opacity="0.6" fill-rule="evenodd" stroke="none"/>
    <path d="M24.55 17.15 Q26.0 17.15 27.0 18.15 28.0 19.2 28.0 20.6 28.0 22.0 27.0 23.0 26.0 24.0 24.55 24.0 23.15 24.0 22.15 23.0 21.15 22.0 21.15 20.6 21.15 19.2 22.15 18.15 23.15 17.15 24.55 17.15" fill="#ffffff" fill-opacity="0.4" fill-rule="evenodd" stroke="none"/>
  </g>
</svg>
