<?xml version="1.0" encoding="UTF-8" standalone="no"?>
<svg xmlns:xlink="http://www.w3.org/1999/xlink" height="79.95px" width="634.7px" xmlns="http://www.w3.org/2000/svg">
  <g transform="matrix(1.0, 0.0, 0.0, 1.0, 0.0, -0.5)">
    <path d="M608.05 42.1 L614.65 32.9 628.6 29.35 629.1 37.25 629.65 45.15 Q630.0 51.25 625.65 54.5 621.3 57.75 616.05 58.25 L614.75 58.35 613.55 58.4 612.0 58.35 610.35 58.15 Q608.2 57.95 606.15 57.1 604.1 56.35 602.65 54.8 L601.45 52.85 Q599.25 55.2 595.85 56.85 593.4 57.95 590.7 58.5 L585.2 59.0 584.3 59.0 583.5 58.95 580.0 58.55 576.7 57.65 Q572.4 56.2 569.6 53.15 566.8 50.1 566.8 45.95 L567.05 43.85 567.6 41.7 Q569.05 37.25 573.6 34.75 578.1 32.3 583.2 31.6 L585.35 31.4 587.5 31.35 590.55 31.45 593.25 32.0 593.65 32.1 594.05 32.25 Q596.25 32.8 598.1 34.3 600.0 35.75 600.05 38.25 600.2 42.25 596.75 44.55 593.25 46.85 589.1 47.85 L584.65 48.7 581.0 48.85 Q581.35 51.5 583.0 52.95 584.65 54.4 587.4 54.4 592.95 54.4 596.75 51.3 599.15 49.3 600.95 46.65 L601.1 45.95 Q601.6 44.05 603.15 42.95 604.75 41.9 606.55 41.95 L606.95 41.95 607.35 41.95 607.65 42.0 608.05 42.1 M612.15 45.85 L612.35 47.3 612.15 48.7 611.45 49.95 Q610.75 51.05 609.45 51.7 608.2 52.3 606.85 52.3 L606.7 52.3 606.5 52.3 606.3 52.3 606.15 52.25 Q606.65 53.0 607.45 53.55 608.25 54.1 609.25 54.1 612.3 54.1 614.1 52.45 615.9 50.85 615.9 47.65 L615.95 43.1 615.95 38.6 611.5 44.55 Q612.0 45.15 612.15 45.85 M581.5 44.6 L583.35 44.4 585.25 43.95 Q588.05 43.2 590.4 41.5 592.75 39.8 592.8 36.8 592.8 35.5 592.15 35.0 591.45 34.5 590.25 34.45 587.5 34.35 585.5 36.5 583.5 38.6 582.45 41.25 L581.85 43.0 581.5 44.6 M557.95 49.3 L559.35 49.6 Q561.5 50.1 563.25 51.55 565.1 53.0 564.95 55.4 564.75 57.6 563.05 58.8 561.35 60.0 559.3 60.4 L557.9 60.65 556.6 60.7 555.6 60.65 554.65 60.5 Q552.3 60.05 550.45 58.6 548.55 57.15 548.7 54.55 548.85 52.1 550.7 50.95 552.6 49.75 554.7 49.4 L555.75 49.3 556.7 49.25 557.95 49.3" fill="none" stroke="url(#gradient0)" stroke-linecap="round" stroke-linejoin="round" stroke-width="10.0"/>
    <path d="M540.25 43.6 Q540.7 50.8 535.8 54.7 L535.35 55.05 Q530.05 59.0 523.6 59.65 L522.0 59.75 520.55 59.8 518.65 59.75 516.65 59.55 Q514.05 59.25 511.55 58.25 509.05 57.3 507.25 55.4 506.0 53.85 505.45 52.15 L505.35 51.75 505.25 51.55 505.0 51.85 Q502.25 55.55 497.25 57.9 494.3 59.25 491.0 59.95 L484.25 60.55 483.2 60.55 482.15 60.45 477.95 60.0 Q475.85 59.55 473.85 58.9 468.65 57.1 465.25 53.4 L463.35 50.8 Q461.55 53.3 459.45 55.45 454.8 60.25 446.3 60.25 L445.0 60.2 443.6 60.05 Q441.5 59.8 439.55 59.05 437.65 58.25 436.35 56.55 435.45 55.3 435.05 54.0 434.7 52.65 434.7 51.25 L434.75 50.0 434.9 48.8 Q435.15 47.3 435.7 45.8 L436.7 42.9 437.05 41.95 437.7 40.3 438.0 39.45 438.25 38.6 438.55 37.15 438.7 36.0 438.4 34.75 Q438.05 34.25 437.35 34.25 435.75 34.25 434.3 35.7 432.8 37.2 431.75 38.95 L430.75 40.9 430.05 42.55 428.6 46.75 427.15 50.95 425.6 55.25 424.2 59.45 406.25 59.45 408.2 54.0 410.15 48.5 412.0 43.1 413.85 37.65 414.1 36.65 414.2 35.75 Q414.2 34.9 413.8 34.55 413.4 34.15 412.65 34.15 L411.75 34.3 410.75 34.7 Q410.25 34.95 409.75 35.35 L408.8 36.35 Q407.45 37.9 405.85 40.7 404.3 43.55 402.5 48.35 L401.9 50.05 400.6 53.85 399.5 57.3 398.75 59.45 381.9 59.45 392.8 27.8 409.7 27.8 409.0 29.75 Q411.1 28.5 413.65 27.65 416.2 26.75 418.85 26.6 L419.35 26.6 419.9 26.6 422.5 26.75 424.95 27.4 Q426.85 28.05 428.4 29.3 429.95 30.65 430.55 32.7 433.25 29.85 436.65 28.3 440.05 26.75 443.65 26.75 L446.35 27.0 Q447.75 27.2 449.1 27.7 452.65 28.85 454.45 31.45 456.25 34.1 456.25 37.3 L456.05 39.45 455.4 41.75 454.9 43.25 454.15 45.35 453.95 45.9 453.8 46.45 453.1 48.8 Q452.8 49.95 452.8 50.65 L452.8 50.9 452.9 51.2 453.2 51.3 453.8 51.3 454.7 51.15 455.6 50.75 458.15 48.7 460.4 45.85 461.9 43.7 462.1 42.05 Q462.3 40.75 462.75 39.4 464.55 34.0 470.1 30.95 475.6 27.95 481.8 27.1 L484.45 26.85 487.05 26.75 490.75 26.95 494.1 27.55 494.6 27.75 495.1 27.85 Q497.75 28.55 500.05 30.4 502.35 32.2 502.4 35.25 502.6 40.15 498.35 42.9 494.1 45.75 489.05 46.95 L483.6 48.0 479.1 48.15 Q479.55 51.4 481.6 53.2 483.6 54.95 486.95 54.95 493.7 54.95 498.35 51.15 502.95 47.35 505.6 41.6 L506.7 42.1 507.9 40.95 Q509.8 39.65 512.05 39.75 L512.55 39.75 513.0 39.75 513.4 39.8 513.85 39.9 521.9 28.7 538.95 24.4 539.6 34.0 540.25 43.6 M492.75 31.25 Q491.9 30.65 490.4 30.55 487.05 30.45 484.65 33.05 482.15 35.65 480.95 38.85 L480.2 41.0 479.75 43.0 482.0 42.75 484.35 42.2 Q487.75 41.3 490.65 39.2 493.45 37.15 493.55 33.45 493.55 31.9 492.75 31.25 M523.5 41.15 L523.5 35.65 518.1 42.9 518.9 44.5 519.1 46.25 518.85 48.0 518.0 49.55 Q517.15 50.85 515.6 51.65 514.05 52.4 512.4 52.4 L512.2 52.4 511.95 52.4 511.75 52.35 511.55 52.3 Q512.15 53.25 513.15 53.9 514.15 54.55 515.3 54.55 519.0 54.55 521.25 52.55 523.45 50.6 523.45 46.7 L523.5 41.15 M378.4 30.85 L377.3 34.15 375.0 40.7 372.75 47.3 372.65 47.6 372.6 48.0 372.4 48.45 372.3 49.05 372.25 49.45 372.25 49.8 372.35 50.5 372.85 50.95 373.3 51.05 373.8 51.0 374.85 50.8 375.85 50.3 377.85 48.7 379.65 46.6 381.05 44.65 381.9 43.0 382.05 42.65 382.25 42.3 382.4 41.95 382.55 41.6 387.25 43.65 Q383.9 50.75 379.25 55.5 374.55 60.25 365.95 60.25 L365.7 60.25 365.5 60.25 Q362.55 60.15 360.0 58.9 357.4 57.75 356.2 54.9 353.7 57.15 350.6 58.55 347.5 60.0 344.2 60.25 L343.45 60.35 342.6 60.35 Q339.45 60.25 336.5 59.05 333.6 57.9 331.3 55.1 329.6 53.0 328.85 50.75 328.1 48.5 328.1 46.15 328.1 42.05 330.3 38.15 332.5 34.25 335.95 31.6 338.55 29.65 341.95 28.35 345.4 27.05 349.05 26.85 L349.8 26.75 350.6 26.75 Q353.45 26.75 356.2 27.6 358.85 28.5 361.05 30.3 L361.95 27.55 370.75 27.55 379.55 27.55 378.4 30.85 M325.55 18.95 Q323.3 20.7 320.5 20.9 L320.25 20.9 320.05 20.9 317.75 20.4 Q316.6 20.05 315.7 19.25 L315.35 18.95 314.95 18.6 314.85 18.55 314.8 18.45 314.55 18.25 314.35 18.05 315.7 16.7 316.75 15.25 317.45 14.0 317.6 12.85 Q317.6 11.8 316.6 11.15 315.6 10.5 313.15 10.5 307.4 10.5 302.3 16.5 297.2 22.5 294.2 29.8 L293.8 30.8 293.4 31.95 293.25 32.25 293.15 32.55 292.05 35.7 291.3 39.1 291.05 40.9 290.95 42.65 291.05 44.1 291.3 45.55 Q291.65 46.9 292.4 47.45 293.15 48.0 294.0 48.0 L294.65 47.95 295.3 47.8 297.0 46.9 298.45 45.65 301.25 41.1 Q302.7 38.25 304.25 33.5 L304.7 32.2 305.65 29.3 306.55 26.85 307.1 25.3 330.7 25.3 328.45 31.85 326.15 38.4 323.85 45.05 321.6 51.6 Q317.85 62.35 308.15 68.9 298.45 75.45 287.35 75.45 L283.55 75.2 279.75 74.55 Q274.8 73.35 272.35 71.15 269.9 68.95 269.35 66.5 L269.2 65.7 269.2 64.95 Q269.25 61.6 271.7 59.1 274.15 56.6 277.5 56.65 279.0 56.65 280.45 57.25 281.9 57.8 283.4 59.25 L283.75 59.65 284.15 60.0 284.55 60.4 284.9 60.8 284.1 61.2 283.2 61.7 Q281.75 62.55 280.45 63.7 279.2 64.9 279.3 66.7 L279.3 67.0 279.3 67.2 Q279.5 68.75 280.6 69.45 281.75 70.2 283.2 70.3 L285.65 69.9 288.3 68.3 289.35 67.45 290.4 66.4 Q293.05 63.6 294.65 60.25 296.3 56.85 297.45 53.25 L294.7 54.0 291.85 54.6 290.45 54.75 289.05 54.75 Q284.55 54.75 280.4 52.9 276.7 51.25 274.2 47.8 L273.65 48.75 Q272.45 50.8 270.65 52.55 268.95 54.3 266.6 54.3 L264.8 54.0 263.2 53.3 Q260.75 55.3 257.4 56.45 254.1 57.55 250.6 57.8 L250.05 57.8 249.45 57.8 Q246.2 57.8 243.15 56.8 240.1 55.8 237.8 53.85 236.0 52.2 235.15 50.35 234.35 48.45 234.35 46.6 234.35 45.1 234.8 43.7 235.25 42.25 236.1 40.9 237.9 38.2 240.8 36.25 243.35 34.65 246.5 33.65 249.65 32.75 253.0 32.75 L254.0 32.8 254.95 32.8 Q257.65 33.05 260.25 33.95 262.85 34.9 264.85 36.75 266.55 38.25 267.45 40.15 268.3 42.1 268.3 44.15 L268.15 45.7 267.8 47.25 269.35 46.75 270.65 45.6 271.4 44.65 271.95 43.85 271.1 41.5 Q270.35 38.6 270.35 35.6 L270.4 34.15 270.55 32.65 271.05 29.6 271.9 26.7 Q274.8 18.35 282.5 13.05 290.2 7.75 298.8 6.2 L302.5 5.7 306.05 5.5 310.4 5.65 316.15 6.3 Q320.5 7.05 324.15 8.9 327.8 10.75 327.8 14.45 327.8 17.2 325.55 18.95 M356.7 32.35 L355.8 32.45 354.9 32.7 Q353.2 33.45 351.45 35.25 349.75 37.05 348.35 39.1 L346.65 42.0 345.5 44.35 345.2 45.25 344.8 46.7 344.4 48.05 Q344.2 48.7 344.15 49.45 343.95 49.95 343.9 50.6 L343.85 51.75 Q343.85 53.15 344.3 54.0 344.8 54.95 345.95 54.95 348.6 54.95 350.6 52.75 352.65 50.6 354.1 48.0 L355.45 45.4 356.45 43.1 358.05 38.25 Q358.6 36.15 358.6 34.7 358.6 33.6 358.3 33.0 358.0 32.35 356.7 32.35 M253.85 36.25 Q253.05 36.6 252.3 37.2 L251.7 37.8 251.1 38.45 Q249.65 40.15 248.8 42.3 247.9 44.5 247.5 46.75 L247.4 48.25 247.35 49.65 247.35 50.6 247.5 51.75 Q247.7 52.85 248.15 53.7 248.65 54.55 249.65 54.55 251.25 54.55 252.45 53.45 253.7 52.3 254.45 50.95 L254.85 50.35 255.15 49.75 Q254.15 49.05 253.6 48.0 253.05 46.95 253.05 45.75 L253.05 45.5 253.05 45.3 Q253.25 43.45 254.5 41.75 255.7 40.05 257.6 39.55 257.55 37.6 256.9 36.75 256.2 35.9 255.25 35.9 254.6 35.9 253.85 36.25 M218.4 32.45 Q220.2 32.45 221.95 33.0 223.75 33.55 225.35 34.65 L225.75 33.35 237.85 33.35 235.6 40.05 234.4 43.55 233.3 46.7 230.95 53.35 228.65 60.05 Q227.2 64.35 222.9 67.1 218.6 69.9 213.75 70.55 L212.55 70.65 211.35 70.65 210.65 70.65 207.5 70.25 Q205.65 69.75 204.1 68.85 202.65 68.0 201.7 66.6 200.8 65.25 200.55 63.8 L200.45 63.15 200.4 62.55 Q200.5 61.0 201.45 59.75 202.35 58.45 204.55 58.05 L204.8 58.05 205.1 58.0 205.35 58.0 205.6 58.0 Q207.9 58.0 209.3 59.45 210.35 60.65 210.65 62.0 L210.75 62.7 210.75 62.8 210.75 62.9 210.65 63.8 209.95 65.3 208.35 66.7 207.45 67.05 207.75 67.15 208.1 67.25 208.35 67.35 208.65 67.35 210.65 67.15 Q212.55 66.65 213.75 65.0 215.6 62.5 216.75 59.6 L217.55 57.25 218.25 55.1 216.5 55.7 214.7 56.05 213.8 56.15 212.95 56.2 210.65 56.0 Q208.0 55.45 205.8 53.7 202.7 51.2 202.7 46.45 202.7 40.95 207.2 37.0 208.85 35.5 210.65 34.55 213.7 32.85 217.05 32.55 L217.7 32.5 218.4 32.45 M222.2 36.6 L221.95 36.6 Q221.4 36.6 220.75 36.9 220.15 37.2 219.5 37.7 218.25 38.85 217.05 40.7 215.8 42.55 214.95 44.5 L214.0 47.25 Q213.65 48.6 213.65 49.65 L213.75 50.55 213.95 51.35 214.5 52.0 215.2 52.2 Q217.8 52.2 219.4 49.95 221.05 47.65 221.95 44.9 L223.05 41.55 223.9 38.85 223.9 38.55 223.85 38.25 223.55 37.4 222.8 36.8 222.6 36.7 222.45 36.65 222.2 36.6 M170.8 9.75 L164.25 28.55 157.85 47.3 157.3 48.8 157.15 49.95 Q157.15 50.5 157.6 50.8 L159.05 51.0 160.85 50.45 163.1 48.8 Q164.75 47.15 165.75 45.35 L166.15 44.65 Q166.55 43.2 167.45 42.15 L167.7 41.55 167.9 41.65 168.7 40.95 Q170.6 39.65 172.85 39.75 L173.35 39.75 173.8 39.75 174.2 39.8 174.65 39.9 182.7 28.7 199.75 24.4 200.4 34.0 201.05 43.6 Q201.5 51.1 196.15 55.05 190.85 59.0 184.4 59.65 L182.8 59.75 181.35 59.8 179.45 59.75 177.45 59.55 Q174.85 59.25 172.35 58.25 169.85 57.3 168.05 55.4 167.1 54.25 166.6 53.0 L164.5 55.4 Q160.1 60.25 151.65 60.25 L150.65 60.2 149.75 60.15 Q147.45 59.9 145.3 59.0 143.1 58.15 141.75 56.25 140.85 55.0 140.45 53.45 139.95 51.95 139.95 50.4 L140.0 49.7 140.05 49.15 140.5 46.55 141.2 44.05 147.15 26.85 152.95 9.75 157.45 9.75 161.9 9.75 166.3 9.75 170.8 9.75 M179.7 48.05 L178.85 49.6 Q178.0 50.9 176.45 51.7 174.9 52.45 173.25 52.45 L173.05 52.45 172.8 52.45 172.6 52.4 172.4 52.35 Q173.0 53.3 174.0 53.95 175.0 54.6 176.15 54.6 179.85 54.6 182.1 52.6 184.3 50.65 184.3 46.75 L184.35 41.2 184.35 35.7 178.95 42.95 179.75 44.55 179.95 46.3 179.7 48.05 M135.0 26.35 Q136.25 26.7 137.45 27.45 138.6 28.25 139.3 29.45 L140.25 31.9 140.4 33.0 140.4 33.95 Q140.4 37.3 138.4 39.25 136.35 41.2 133.95 41.2 L133.8 41.2 133.65 41.2 Q131.75 41.2 130.05 39.9 128.35 38.65 127.6 35.85 L126.9 34.65 Q126.5 34.2 126.0 34.3 125.05 34.3 123.95 35.35 122.8 36.4 121.55 38.25 119.35 41.0 117.85 44.45 116.35 47.9 115.15 51.4 L114.1 54.4 113.15 57.3 112.8 58.35 112.45 59.45 95.75 59.45 103.25 38.5 103.4 37.85 103.4 37.4 Q103.4 36.4 102.6 36.05 L100.85 35.85 Q98.5 36.1 96.7 38.0 94.9 39.9 93.75 42.1 L93.2 43.05 94.55 43.75 94.1 44.6 93.6 45.4 90.5 51.0 Q88.75 53.75 86.3 55.9 84.05 57.9 81.05 59.0 78.0 60.05 74.75 60.25 L73.95 60.25 71.2 60.05 68.6 59.45 Q65.15 58.25 63.7 55.8 62.3 53.3 62.3 50.3 L62.45 48.3 62.85 46.15 63.15 45.1 63.45 44.1 66.3 35.8 69.15 27.55 73.55 27.55 78.0 27.55 82.45 27.55 86.85 27.55 85.75 30.85 84.6 34.15 82.3 40.7 80.1 47.3 Q79.8 48.0 79.65 48.65 L79.45 49.9 Q79.45 50.4 79.85 50.75 80.25 51.15 81.25 51.0 L83.1 50.45 85.35 48.8 Q86.95 47.15 87.95 45.35 L89.35 42.75 88.25 42.3 Q90.55 36.1 95.1 31.2 99.7 26.3 106.55 25.95 L107.85 25.85 109.25 25.95 Q112.25 26.1 115.0 27.45 117.75 28.75 119.35 31.35 121.35 29.9 123.55 28.6 125.8 27.4 128.15 26.65 L130.25 26.15 132.3 26.0 135.0 26.35 M84.9 12.2 L85.35 12.4 Q87.2 13.2 88.8 14.65 90.4 16.1 90.4 18.15 L90.3 18.75 90.2 19.4 Q89.65 21.1 88.2 22.25 86.8 23.4 85.15 23.95 L84.5 24.05 83.95 24.2 82.45 24.4 81.0 24.45 77.0 24.0 Q75.0 23.5 73.5 22.3 72.3 21.45 71.65 20.2 70.95 18.95 70.95 17.7 70.95 16.95 71.2 16.25 71.5 15.5 71.95 14.9 73.2 13.25 75.25 12.45 77.3 11.65 79.45 11.45 L79.95 11.45 80.45 11.45 82.4 11.6 84.3 12.05 84.9 12.2 M61.3 18.95 Q59.05 20.7 56.25 20.9 L56.0 20.9 55.8 20.9 53.5 20.4 Q52.35 20.05 51.45 19.25 L51.1 18.95 50.7 18.6 50.6 18.55 50.55 18.45 50.3 18.25 50.1 18.05 51.45 16.7 52.5 15.25 53.2 14.0 53.35 12.85 Q53.35 11.8 52.35 11.15 51.35 10.5 48.9 10.5 43.15 10.5 38.05 16.5 32.95 22.5 30.0 29.8 L29.6 30.8 29.2 31.95 29.05 32.25 28.95 32.55 27.85 35.7 27.1 39.1 26.85 40.9 26.75 42.65 26.85 44.1 27.1 45.55 Q27.45 46.9 28.2 47.45 28.95 48.0 29.8 48.0 L30.45 47.95 31.05 47.8 32.75 46.9 34.2 45.65 Q35.55 44.0 37.0 41.1 38.45 38.25 40.0 33.5 L40.45 32.2 41.4 29.3 42.3 26.85 42.85 25.3 66.45 25.3 64.2 31.85 61.9 38.4 59.6 45.05 57.35 51.6 Q53.6 62.35 43.9 68.9 34.2 75.45 23.15 75.45 L19.35 75.2 15.55 74.55 Q10.6 73.35 8.15 71.15 5.7 68.95 5.15 66.5 L5.0 65.7 5.0 64.95 Q5.05 61.6 7.5 59.1 9.95 56.6 13.3 56.65 14.8 56.65 16.25 57.25 17.7 57.8 19.2 59.25 L19.55 59.65 19.95 60.0 20.35 60.4 20.7 60.8 19.9 61.2 19.0 61.7 16.25 63.7 Q15.0 64.9 15.1 66.7 L15.1 67.0 15.1 67.2 Q15.3 68.75 16.4 69.45 17.55 70.2 19.0 70.3 20.15 70.4 21.45 69.9 22.8 69.35 24.1 68.3 L25.15 67.45 26.2 66.4 Q28.85 63.6 30.45 60.25 32.05 56.85 33.2 53.25 L30.5 54.0 27.65 54.6 26.25 54.75 24.85 54.75 Q20.35 54.75 16.2 52.9 12.1 51.05 9.4 46.95 7.7 44.35 6.9 41.5 6.15 38.6 6.15 35.6 L6.2 34.15 6.35 32.65 6.85 29.6 7.7 26.7 Q10.6 18.35 18.3 13.05 26.0 7.75 34.55 6.2 L38.25 5.7 41.8 5.5 46.15 5.65 51.9 6.3 Q56.25 7.05 59.9 8.9 63.55 10.75 63.55 14.45 63.55 17.2 61.3 18.95" fill="none" stroke="url(#gradient1)" stroke-linecap="round" stroke-linejoin="round" stroke-width="10.0"/>
    <path d="M607.95 42.0 L614.55 32.8 628.5 29.25 629.0 37.15 629.55 45.05 Q629.9 51.15 625.55 54.4 621.2 57.65 615.95 58.15 L614.65 58.25 613.45 58.3 611.9 58.25 610.25 58.05 Q608.1 57.85 606.05 57.0 604.0 56.25 602.55 54.7 L601.35 52.75 Q599.15 55.1 595.75 56.75 593.3 57.85 590.6 58.4 L585.1 58.9 584.2 58.9 583.4 58.85 579.9 58.45 576.6 57.55 Q572.3 56.1 569.5 53.05 566.7 50.0 566.7 45.85 L566.95 43.75 Q567.1 42.7 567.5 41.6 568.95 37.15 573.5 34.65 578.0 32.2 583.1 31.5 L585.25 31.3 587.4 31.25 590.45 31.35 593.15 31.9 593.55 32.0 593.95 32.15 Q596.15 32.7 598.0 34.2 599.9 35.65 599.95 38.15 600.1 42.15 596.65 44.45 593.15 46.75 589.0 47.75 L584.55 48.6 580.9 48.75 Q581.25 51.4 582.9 52.85 584.55 54.3 587.3 54.3 592.85 54.3 596.65 51.2 599.05 49.2 600.85 46.55 L601.0 45.85 Q601.5 43.95 603.05 42.85 604.65 41.8 606.45 41.85 L606.85 41.85 607.25 41.85 607.55 41.9 607.95 42.0 M612.05 45.75 L612.25 47.2 612.05 48.6 611.35 49.85 Q610.65 50.95 609.35 51.6 608.1 52.2 606.75 52.2 L606.6 52.2 606.4 52.2 606.2 52.2 606.05 52.15 Q606.55 52.9 607.35 53.45 608.15 54.0 609.15 54.0 612.2 54.0 614.0 52.35 615.8 50.75 615.8 47.55 L615.85 43.0 615.85 38.5 611.4 44.45 Q611.9 45.05 612.05 45.75 M585.15 43.85 Q587.95 43.1 590.3 41.4 592.65 39.7 592.7 36.7 592.7 35.4 592.05 34.9 591.35 34.4 590.15 34.35 587.4 34.25 585.4 36.4 583.4 38.5 582.35 41.15 L581.75 42.9 581.4 44.5 583.25 44.3 585.15 43.85 M540.25 43.6 Q540.7 50.85 535.7 54.8 L535.35 55.05 Q530.05 59.0 523.6 59.65 L522.0 59.75 520.55 59.8 518.65 59.75 516.65 59.55 Q514.05 59.25 511.55 58.25 509.05 57.3 507.25 55.4 506.0 53.85 505.45 52.15 L505.25 51.55 505.0 51.85 Q502.25 55.55 497.25 57.9 494.3 59.25 491.0 59.95 L484.25 60.55 483.2 60.55 482.15 60.45 477.95 60.0 Q475.85 59.55 473.85 58.9 468.65 57.1 465.25 53.4 L463.35 50.8 Q461.55 53.3 459.45 55.45 454.8 60.25 446.3 60.25 L445.0 60.2 443.6 60.05 Q441.5 59.8 439.55 59.05 437.65 58.25 436.35 56.55 435.45 55.3 435.05 54.0 434.7 52.65 434.7 51.25 L434.75 50.0 434.9 48.8 Q435.15 47.3 435.7 45.8 L436.7 42.9 437.05 41.95 437.7 40.3 438.0 39.45 438.25 38.6 438.55 37.15 438.7 36.0 438.4 34.75 Q438.05 34.25 437.35 34.25 435.75 34.25 434.3 35.7 432.8 37.2 431.75 38.95 L430.75 40.9 430.05 42.55 428.6 46.75 427.15 50.95 425.6 55.25 424.2 59.45 406.25 59.45 408.2 54.0 410.15 48.5 412.0 43.1 413.85 37.65 414.1 36.65 414.2 35.75 Q414.2 34.9 413.8 34.55 413.4 34.15 412.65 34.15 L411.75 34.3 410.75 34.7 Q410.25 34.95 409.75 35.35 L408.8 36.35 Q407.45 37.9 405.85 40.7 404.3 43.55 402.5 48.35 L401.9 50.05 400.6 53.85 399.5 57.3 398.75 59.45 381.9 59.45 392.8 27.8 409.7 27.8 409.0 29.75 Q411.1 28.5 413.65 27.65 416.2 26.75 418.85 26.6 L419.35 26.6 419.9 26.6 422.5 26.75 424.95 27.4 Q426.85 28.05 428.4 29.3 429.95 30.65 430.55 32.7 433.25 29.85 436.65 28.3 440.05 26.75 443.65 26.75 L446.35 27.0 Q447.75 27.2 449.1 27.7 452.65 28.85 454.45 31.45 456.25 34.1 456.25 37.3 L456.05 39.45 455.4 41.75 454.9 43.25 454.15 45.35 453.95 45.9 453.8 46.45 453.1 48.8 Q452.8 49.95 452.8 50.65 L452.8 50.9 452.9 51.2 453.2 51.3 453.8 51.3 454.7 51.15 455.6 50.75 458.15 48.7 460.4 45.85 461.9 43.7 462.1 42.05 Q462.3 40.75 462.75 39.4 464.55 34.0 470.1 30.95 475.6 27.95 481.8 27.1 L484.45 26.85 487.05 26.75 490.75 26.95 494.1 27.55 494.6 27.75 495.1 27.85 Q497.75 28.55 500.05 30.4 502.35 32.2 502.4 35.25 502.6 40.15 498.35 42.9 494.1 45.75 489.05 46.95 L483.6 48.0 479.1 48.15 Q479.55 51.4 481.6 53.2 483.6 54.95 486.95 54.95 493.7 54.95 498.35 51.15 502.95 47.35 505.6 41.6 L506.7 42.1 507.9 40.95 Q509.8 39.65 512.05 39.75 L512.55 39.75 513.0 39.75 513.4 39.8 513.85 39.9 521.9 28.7 538.95 24.4 539.6 34.0 540.25 43.6 M557.85 49.2 L559.25 49.5 Q561.4 50.0 563.15 51.45 565.0 52.9 564.85 55.3 564.65 57.5 562.95 58.7 561.25 59.9 559.2 60.3 L557.8 60.55 556.5 60.6 555.5 60.55 554.55 60.4 Q552.2 59.95 550.35 58.5 548.45 57.05 548.6 54.45 548.75 52.0 550.6 50.85 552.5 49.65 554.6 49.3 L555.65 49.2 556.6 49.15 557.85 49.2 M490.4 30.55 Q487.05 30.45 484.65 33.05 482.15 35.65 480.95 38.85 L480.2 41.0 479.75 43.0 482.0 42.75 484.35 42.2 Q487.75 41.3 490.65 39.2 493.45 37.15 493.55 33.45 493.55 31.9 492.75 31.25 491.9 30.65 490.4 30.55 M523.5 41.15 L523.5 35.65 518.1 42.9 518.9 44.5 519.1 46.25 518.85 48.0 518.0 49.55 Q517.15 50.85 515.6 51.65 514.05 52.4 512.4 52.4 L512.2 52.4 511.95 52.4 511.75 52.35 511.55 52.3 Q512.15 53.25 513.15 53.9 514.15 54.55 515.3 54.55 519.0 54.55 521.25 52.55 523.45 50.6 523.45 46.7 L523.5 41.15 M377.3 34.15 L375.0 40.7 372.75 47.3 372.65 47.6 372.6 48.0 372.4 48.45 372.3 49.05 372.25 49.45 372.25 49.8 372.35 50.5 372.85 50.95 373.3 51.05 373.8 51.0 374.85 50.8 375.85 50.3 377.85 48.7 379.65 46.6 381.05 44.65 381.9 43.0 382.05 42.65 382.25 42.3 382.4 41.95 382.55 41.6 387.25 43.65 Q383.9 50.75 379.25 55.5 374.55 60.25 365.95 60.25 L365.7 60.25 365.5 60.25 Q362.55 60.15 360.0 58.9 357.4 57.75 356.2 54.9 353.7 57.15 350.6 58.55 347.5 60.0 344.2 60.25 L343.45 60.35 342.6 60.35 Q339.45 60.25 336.5 59.05 333.6 57.9 331.3 55.1 329.6 53.0 328.85 50.75 328.1 48.5 328.1 46.15 328.1 42.05 330.3 38.15 332.5 34.25 335.95 31.6 338.55 29.65 341.95 28.35 345.4 27.05 349.05 26.85 L349.8 26.75 350.6 26.75 Q353.45 26.75 356.2 27.6 358.85 28.5 361.05 30.3 L361.95 27.55 370.75 27.55 379.55 27.55 378.4 30.85 377.3 34.15 M325.55 18.95 Q323.3 20.7 320.5 20.9 L320.25 20.9 320.05 20.9 317.75 20.4 Q316.6 20.05 315.7 19.25 L315.35 18.95 314.95 18.6 314.85 18.55 314.8 18.45 314.55 18.25 314.35 18.05 315.7 16.7 316.75 15.25 317.45 14.0 317.6 12.85 Q317.6 11.8 316.6 11.15 315.6 10.5 313.15 10.5 307.4 10.5 302.3 16.5 297.2 22.5 294.2 29.8 L293.8 30.8 293.4 31.95 293.25 32.25 293.15 32.55 292.05 35.7 291.3 39.1 291.05 40.9 290.95 42.65 291.05 44.1 291.3 45.55 Q291.65 46.9 292.4 47.45 293.15 48.0 294.0 48.0 L294.65 47.95 295.3 47.8 297.0 46.9 298.45 45.65 301.25 41.1 Q302.7 38.25 304.25 33.5 L304.7 32.2 305.65 29.3 306.55 26.85 307.1 25.3 330.7 25.3 328.45 31.85 326.15 38.4 323.85 45.05 321.6 51.6 Q317.85 62.35 308.15 68.9 298.45 75.45 287.35 75.45 L283.55 75.2 279.75 74.55 Q274.8 73.35 272.35 71.15 269.9 68.95 269.35 66.5 L269.2 65.7 269.2 64.95 Q269.25 61.6 271.7 59.1 274.15 56.6 277.5 56.65 279.0 56.65 280.45 57.25 281.9 57.8 283.4 59.25 L283.75 59.65 284.15 60.0 284.55 60.4 284.9 60.8 284.1 61.2 283.2 61.7 Q281.75 62.55 280.45 63.7 279.2 64.9 279.3 66.7 L279.3 67.0 279.3 67.2 Q279.5 68.75 280.6 69.45 281.75 70.2 283.2 70.3 L285.65 69.9 288.3 68.3 289.35 67.45 290.4 66.4 Q293.05 63.6 294.65 60.25 296.3 56.85 297.45 53.25 L294.7 54.0 291.85 54.6 290.45 54.75 289.05 54.75 Q284.55 54.75 280.4 52.9 276.7 51.25 274.2 47.8 L273.65 48.75 Q272.45 50.8 270.65 52.55 268.95 54.3 266.6 54.3 L264.8 54.0 263.2 53.3 Q260.75 55.3 257.4 56.45 254.1 57.55 250.6 57.8 L250.05 57.8 249.45 57.8 Q246.2 57.8 243.15 56.8 240.1 55.8 237.8 53.85 236.0 52.2 235.15 50.35 234.35 48.45 234.35 46.6 234.35 43.6 236.1 40.9 237.9 38.2 240.8 36.25 243.35 34.65 246.5 33.65 249.65 32.75 253.0 32.75 L254.0 32.8 254.95 32.8 Q257.65 33.05 260.25 33.95 262.85 34.9 264.85 36.75 266.55 38.25 267.45 40.15 268.3 42.1 268.3 44.15 L268.15 45.7 267.8 47.25 269.35 46.75 270.65 45.6 271.4 44.65 271.95 43.85 271.1 41.5 Q270.35 38.6 270.35 35.6 L270.4 34.15 270.55 32.65 271.05 29.6 271.9 26.7 Q274.8 18.35 282.5 13.05 290.2 7.75 298.8 6.2 L302.5 5.7 306.05 5.5 310.4 5.65 316.15 6.3 Q320.5 7.05 324.15 8.9 327.8 10.75 327.8 14.45 327.8 17.2 325.55 18.95 M356.7 32.35 L355.8 32.45 354.9 32.7 Q353.2 33.45 351.45 35.25 349.75 37.05 348.35 39.1 L346.65 42.0 345.5 44.35 345.2 45.25 344.8 46.7 344.4 48.05 Q344.2 48.7 344.15 49.45 343.95 49.95 343.9 50.6 L343.85 51.75 Q343.85 53.15 344.3 54.0 344.8 54.95 345.95 54.95 348.6 54.95 350.6 52.75 352.65 50.6 354.1 48.0 L355.45 45.4 356.45 43.1 358.05 38.25 Q358.6 36.15 358.6 34.7 358.6 33.6 358.3 33.0 358.0 32.35 356.7 32.35 M253.85 36.25 Q253.05 36.6 252.3 37.2 L251.7 37.8 251.1 38.45 Q249.65 40.15 248.8 42.3 247.9 44.5 247.5 46.75 L247.4 48.25 247.35 49.65 247.35 50.6 247.5 51.75 Q247.7 52.85 248.15 53.7 248.65 54.55 249.65 54.55 251.25 54.55 252.45 53.45 253.7 52.3 254.45 50.95 L254.85 50.35 255.15 49.75 Q254.15 49.05 253.6 48.0 253.05 46.95 253.05 45.75 L253.05 45.5 253.05 45.3 Q253.25 43.45 254.5 41.75 255.7 40.05 257.6 39.55 257.55 37.6 256.9 36.75 256.2 35.9 255.25 35.9 254.6 35.9 253.85 36.25 M218.4 32.45 Q220.2 32.45 221.95 33.0 223.75 33.55 225.35 34.65 L225.75 33.35 237.85 33.35 235.6 40.05 233.3 46.7 230.95 53.35 228.65 60.05 Q227.2 64.35 222.9 67.1 218.6 69.9 213.75 70.55 L212.55 70.65 211.35 70.65 207.5 70.25 Q205.65 69.75 204.1 68.85 202.65 68.0 201.7 66.6 200.8 65.25 200.55 63.8 L200.45 63.15 200.4 62.55 Q200.5 61.0 201.45 59.75 202.35 58.45 204.55 58.05 L204.8 58.05 205.1 58.0 205.35 58.0 205.6 58.0 Q207.9 58.0 209.3 59.45 210.65 60.95 210.75 62.7 L210.75 62.8 210.75 62.9 Q210.75 64.15 209.95 65.3 209.15 66.5 207.45 67.05 L207.75 67.15 208.1 67.25 208.35 67.35 208.65 67.35 Q211.95 67.45 213.75 65.0 215.6 62.5 216.75 59.6 L217.55 57.25 218.25 55.1 216.5 55.7 214.7 56.05 213.8 56.15 212.95 56.2 Q208.9 56.2 205.8 53.7 202.7 51.2 202.7 46.45 202.7 40.95 207.2 37.0 211.7 33.0 217.05 32.55 L217.7 32.5 218.4 32.45 M222.2 36.6 L221.95 36.6 Q221.4 36.6 220.75 36.9 220.15 37.2 219.5 37.7 218.25 38.85 217.05 40.7 215.8 42.55 214.95 44.5 L214.0 47.25 Q213.65 48.6 213.65 49.65 L213.75 50.55 213.95 51.35 214.5 52.0 215.2 52.2 Q217.8 52.2 219.4 49.95 221.05 47.65 221.95 44.9 L223.05 41.55 223.9 38.85 223.9 38.55 223.85 38.25 223.55 37.4 222.8 36.8 222.6 36.7 222.45 36.65 222.2 36.6 M170.8 9.75 L164.25 28.55 157.85 47.3 157.3 48.8 157.15 49.95 Q157.15 50.5 157.6 50.8 L159.05 51.0 160.85 50.45 163.1 48.8 Q164.75 47.15 165.75 45.35 L166.15 44.65 Q166.55 43.2 167.45 42.15 L167.7 41.55 167.9 41.65 168.7 40.95 Q170.6 39.65 172.85 39.75 L173.35 39.75 173.8 39.75 174.2 39.8 174.65 39.9 182.7 28.7 199.75 24.4 200.4 34.0 201.05 43.6 Q201.5 51.1 196.15 55.05 190.85 59.0 184.4 59.65 L182.8 59.75 181.35 59.8 179.45 59.75 177.45 59.55 Q174.85 59.25 172.35 58.25 169.85 57.3 168.05 55.4 167.1 54.25 166.6 53.0 L164.5 55.4 Q160.1 60.25 151.65 60.25 L150.65 60.2 149.75 60.15 Q147.45 59.9 145.3 59.0 143.1 58.15 141.75 56.25 140.85 55.0 140.45 53.45 139.95 51.95 139.95 50.4 L140.0 49.7 140.05 49.15 140.5 46.55 141.2 44.05 147.15 26.85 152.95 9.75 157.45 9.75 161.9 9.75 166.3 9.75 170.8 9.75 M179.65 48.0 L178.8 49.55 Q177.95 50.85 176.4 51.65 174.85 52.4 173.2 52.4 L173.0 52.4 172.75 52.4 172.55 52.35 172.35 52.3 Q172.95 53.25 173.95 53.9 174.95 54.55 176.1 54.55 179.8 54.55 182.05 52.55 184.25 50.6 184.25 46.7 L184.3 41.15 184.3 35.65 178.9 42.9 179.7 44.5 179.9 46.25 179.65 48.0 M135.0 26.35 Q136.25 26.7 137.45 27.45 138.6 28.25 139.3 29.45 L140.25 31.9 140.4 33.0 140.4 33.95 Q140.4 37.3 138.4 39.25 136.35 41.2 133.95 41.2 L133.8 41.2 133.65 41.2 Q131.75 41.2 130.05 39.9 128.35 38.65 127.6 35.85 L126.9 34.65 Q126.5 34.2 126.0 34.3 125.05 34.3 123.95 35.35 122.8 36.4 121.55 38.25 119.35 41.0 117.85 44.45 116.35 47.9 115.15 51.4 L114.1 54.4 113.15 57.3 112.8 58.35 112.45 59.45 95.75 59.45 103.25 38.5 103.4 37.85 103.4 37.4 Q103.4 36.4 102.6 36.05 L100.85 35.85 Q98.5 36.1 96.7 38.0 94.9 39.9 93.75 42.1 L93.2 43.05 94.55 43.75 94.1 44.6 93.6 45.4 90.5 51.0 Q88.75 53.75 86.3 55.9 84.05 57.9 81.05 59.0 78.0 60.05 74.75 60.25 L74.35 60.25 73.95 60.25 71.2 60.05 68.6 59.45 Q65.15 58.25 63.7 55.8 62.3 53.3 62.3 50.3 L62.45 48.3 62.85 46.15 63.15 45.1 63.45 44.1 66.3 35.8 69.15 27.55 73.55 27.55 78.0 27.55 82.45 27.55 86.85 27.55 85.75 30.85 84.6 34.15 82.3 40.7 80.1 47.3 Q79.8 48.0 79.65 48.65 L79.45 49.9 Q79.45 50.4 79.85 50.75 80.25 51.15 81.25 51.0 L83.1 50.45 85.35 48.8 Q86.95 47.15 87.95 45.35 L89.35 42.75 88.25 42.3 Q90.55 36.1 95.1 31.2 99.7 26.3 106.55 25.95 L107.85 25.85 109.25 25.95 Q112.25 26.1 115.0 27.45 117.75 28.75 119.35 31.35 121.35 29.9 123.55 28.6 125.8 27.4 128.15 26.65 L130.25 26.15 132.3 26.0 135.0 26.35 M84.9 12.2 L85.35 12.4 Q87.2 13.2 88.8 14.65 90.4 16.1 90.4 18.15 L90.3 18.75 90.2 19.4 Q89.65 21.1 88.2 22.25 86.8 23.4 85.15 23.95 L84.5 24.05 83.95 24.2 82.45 24.4 81.0 24.45 77.0 24.0 Q75.0 23.5 73.5 22.3 72.3 21.45 71.65 20.2 70.95 18.95 70.95 17.7 70.95 16.95 71.2 16.25 71.5 15.5 71.95 14.9 73.2 13.25 75.25 12.45 77.3 11.65 79.45 11.45 L79.95 11.45 80.45 11.45 82.4 11.6 84.3 12.05 84.9 12.2 M61.3 18.95 Q59.05 20.7 56.25 20.9 L56.0 20.9 55.8 20.9 53.5 20.4 Q52.35 20.05 51.45 19.25 L51.1 18.95 50.7 18.6 50.6 18.55 50.55 18.45 50.3 18.25 50.1 18.05 51.45 16.7 52.5 15.25 53.2 14.0 53.35 12.85 Q53.35 11.8 52.35 11.15 51.35 10.5 48.9 10.5 43.15 10.5 38.05 16.5 32.95 22.5 30.0 29.8 L29.6 30.8 29.2 31.95 29.05 32.25 28.95 32.55 27.85 35.7 27.1 39.1 26.85 40.9 26.75 42.65 26.85 44.1 27.1 45.55 Q27.45 46.9 28.2 47.45 28.95 48.0 29.8 48.0 L30.45 47.95 31.05 47.8 32.75 46.9 34.2 45.65 Q35.55 44.0 37.0 41.1 38.45 38.25 40.0 33.5 L40.45 32.2 41.4 29.3 42.3 26.85 42.85 25.3 66.45 25.3 64.2 31.85 61.9 38.4 59.6 45.05 57.35 51.6 Q53.6 62.35 43.9 68.9 34.2 75.45 23.15 75.45 L19.35 75.2 15.55 74.55 Q10.6 73.35 8.15 71.15 5.7 68.95 5.15 66.5 L5.0 65.7 5.0 64.95 Q5.05 61.6 7.5 59.1 9.95 56.6 13.3 56.65 14.8 56.65 16.25 57.25 17.7 57.8 19.2 59.25 L19.55 59.65 19.95 60.0 20.35 60.4 20.7 60.8 19.9 61.2 19.0 61.7 16.25 63.7 Q15.0 64.9 15.1 66.7 L15.1 67.0 15.1 67.2 Q15.3 68.75 16.4 69.45 17.55 70.2 19.0 70.3 20.15 70.4 21.45 69.9 22.8 69.35 24.1 68.3 L25.15 67.45 26.2 66.4 Q28.85 63.6 30.45 60.25 32.05 56.85 33.2 53.25 L30.5 54.0 27.65 54.6 26.25 54.75 24.85 54.75 Q20.35 54.75 16.2 52.9 12.1 51.05 9.4 46.95 7.7 44.35 6.9 41.5 6.15 38.6 6.15 35.6 L6.2 34.15 6.35 32.65 6.85 29.6 7.7 26.7 Q10.6 18.35 18.3 13.05 26.0 7.75 34.55 6.2 L38.25 5.7 41.8 5.5 46.15 5.65 51.9 6.3 Q56.25 7.05 59.9 8.9 63.55 10.75 63.55 14.45 63.55 17.2 61.3 18.95" fill="#ffffff" fill-rule="evenodd" stroke="none"/>
  </g>
  <defs>
    <linearGradient gradientTransform="matrix(0.0, 0.0286, -0.1141, 0.0, 284.75, 44.0)" gradientUnits="userSpaceOnUse" id="gradient0" spreadMethod="pad" x1="-819.2" x2="819.2">
      <stop offset="0.0" stop-color="#e60199"/>
      <stop offset="1.0" stop-color="#710168"/>
    </linearGradient>
    <linearGradient gradientTransform="matrix(0.0, 0.0488, -0.0649, 0.0, 282.55, 40.45)" gradientUnits="userSpaceOnUse" id="gradient1" spreadMethod="pad" x1="-819.2" x2="819.2">
      <stop offset="0.0" stop-color="#ef019d"/>
      <stop offset="1.0" stop-color="#5a015f"/>
    </linearGradient>
  </defs>
</svg>
