<?xml version="1.0" encoding="UTF-8" standalone="no"?>
<svg xmlns:xlink="http://www.w3.org/1999/xlink" height="99.05px" width="92.05px" xmlns="http://www.w3.org/2000/svg">
  <g transform="matrix(1.0, 0.0, 0.0, 1.0, 1.0, 8.0)">
    <path d="M5.4 -4.1 L5.4 -7.0 85.1 -7.0 85.1 -4.1 90.05 -4.1 90.05 90.05 0.0 90.05 0.0 -4.1 5.4 -4.1" fill="#a1692a" fill-rule="evenodd" stroke="none"/>
    <path d="M5.4 -4.1 L0.0 -4.1 0.0 90.05 90.05 90.05 90.05 -4.1 85.1 -4.1 85.1 -7.0 5.4 -7.0 5.4 -4.1 Z" fill="none" stroke="#452603" stroke-linecap="round" stroke-linejoin="round" stroke-width="2.0"/>
    <path d="M0.0 85.2 L0.0 -4.1 90.05 -4.1 90.05 85.2 0.0 85.2" fill="#d2a956" fill-rule="evenodd" stroke="none"/>
    <path d="M90.05 85.2 L90.05 90.05 0.0 90.05 0.0 85.2 90.05 85.2" fill="#8c6b27" fill-rule="evenodd" stroke="none"/>
    <path d="M80.55 -1.7 L10.3 -1.7 10.3 66.8 80.55 66.8 80.55 -1.7 M5.4 71.95 L5.4 -7.0 85.1 -7.0 85.1 71.95 5.4 71.95" fill="#ffdc98" fill-rule="evenodd" stroke="none"/>
    <path d="M80.55 -1.7 L80.55 66.8 10.3 66.8 10.3 -1.7 80.55 -1.7" fill="#ecbf68" fill-rule="evenodd" stroke="none"/>
    <path d="M85.1 71.95 L85.1 81.4 5.4 81.4 5.4 71.95 85.1 71.95" fill="#98752e" fill-rule="evenodd" stroke="none"/>
  </g>
</svg>
