<?xml version="1.0" encoding="UTF-8" standalone="no"?>
<svg xmlns:xlink="http://www.w3.org/1999/xlink" height="32.0px" width="32.2px" xmlns="http://www.w3.org/2000/svg">
  <g transform="matrix(1.0, 0.0, 0.0, 1.0, 0.95, 2.0)">
    <path d="M8.7 29.7 L8.45 29.7 8.45 29.55 8.7 29.7" fill="#ffe2c5" fill-rule="evenodd" stroke="none"/>
    <path d="M5.35 3.25 L5.25 3.35 5.25 3.15 5.35 3.25" fill="#ffeedd" fill-rule="evenodd" stroke="none"/>
    <path d="M1.8 6.2 L1.75 6.45 1.8 6.9 1.55 7.2 1.25 7.3 1.15 7.3 1.1 7.3 Q0.45 7.3 -0.6 3.95 L0.1 2.2 0.5 1.5 0.9 0.8 1.0 0.6 1.5 -0.4 Q2.45 -2.0 3.2 -2.0 L4.4 -1.1 Q5.35 -0.2 6.7 -0.2 7.45 -0.2 8.8 -0.7 L9.35 -0.9 9.55 -0.95 Q10.75 -1.45 11.75 -1.55 L12.45 -1.6 Q14.05 -1.6 15.45 -0.2 L15.05 0.3 14.95 0.35 14.55 0.05 13.8 -0.3 11.1 0.3 Q8.4 0.3 8.55 1.25 L10.1 1.45 7.15 1.95 5.35 3.25 5.25 3.15 2.0 3.15 1.4 4.0 Q0.9 4.45 0.9 5.15 0.9 5.5 1.8 6.2 M18.05 0.9 L17.8 0.1 17.85 -0.2 18.45 -0.4 18.95 -0.5 19.0 -0.5 20.4 -0.7 23.15 -1.0 Q23.65 -1.0 23.75 -0.8 L23.75 0.4 23.35 0.65 22.9 0.85 22.8 0.95 Q22.0 0.4 20.75 0.4 L18.95 0.6 18.05 0.9 M24.6 0.55 L24.75 0.0 24.9 -0.4 Q25.25 -1.15 25.75 -1.4 L26.5 -1.6 26.9 -1.55 27.3 -0.8 Q27.65 -0.85 28.1 -1.2 L29.05 -1.4 29.95 -0.35 30.5 0.4 30.25 0.3 29.8 0.35 29.4 0.3 Q28.9 0.3 28.8 0.65 L28.8 1.1 29.75 3.1 Q30.6 5.05 30.35 6.0 L30.35 6.75 30.45 6.85 30.75 6.9 31.2 6.65 31.1 9.0 31.05 9.35 31.0 10.0 30.65 10.85 Q30.0 10.45 29.6 8.8 L29.4 8.1 29.3 7.6 29.05 6.1 28.3 4.0 27.7 3.0 Q27.25 2.35 27.2 1.8 27.0 -0.05 26.0 -0.1 L25.8 0.6 24.9 0.4 Q24.8 0.4 24.6 0.55 M26.3 28.25 L25.7 28.45 25.4 28.55 24.65 28.8 23.75 29.05 23.5 29.0 Q22.95 28.85 22.95 27.85 22.95 27.5 23.25 27.15 L23.8 26.6 24.3 26.05 24.7 25.7 Q25.65 24.95 25.9 24.1 L26.55 21.9 Q27.05 20.5 28.1 19.75 L29.05 19.75 29.05 21.55 Q29.85 21.55 30.65 21.15 31.05 21.55 31.05 22.15 L30.95 23.25 30.45 24.9 Q29.85 26.6 29.85 28.05 L28.45 28.15 28.25 28.15 28.2 28.15 27.3 28.05 26.3 28.25 M7.85 29.7 L5.35 29.75 0.45 29.3 Q-0.65 28.7 -0.5 27.05 L-0.5 24.15 -0.5 22.9 -0.65 22.35 -0.95 20.65 -0.95 20.35 -0.95 19.15 -0.6 19.0 -0.2 18.95 Q1.0 18.95 1.55 20.45 L2.9 23.35 Q3.65 24.8 5.45 24.45 L7.65 24.6 Q8.25 25.35 8.5 26.85 8.55 27.3 10.05 27.9 11.45 28.45 11.3 29.45 L10.5 29.65 10.05 29.65 10.1 29.6 9.05 28.55 8.0 27.9 6.95 27.9 7.25 28.95 7.85 29.7 M16.7 29.85 Q17.85 29.5 18.45 28.35 L16.3 28.7 Q14.55 29.0 14.55 29.35 14.55 29.7 14.7 29.85 L12.65 29.85 12.65 28.65 13.5 28.4 Q14.15 27.3 14.95 27.3 L16.3 27.45 21.45 26.5 Q21.8 26.5 22.05 27.25 L22.15 27.55 Q22.15 28.05 20.25 28.85 18.15 29.7 18.0 29.85 L16.7 29.85 M5.7 27.5 L5.7 27.3 -0.2 23.75 -0.35 24.0 0.25 25.25 0.3 25.4 Q0.65 26.15 0.3 28.55 L3.15 28.35 3.95 28.05 6.5 28.7 4.7 27.5 5.7 27.5" fill="#fff4cc" fill-rule="evenodd" stroke="none"/>
    <path d="M14.95 0.35 Q14.0 1.0 11.65 1.25 L10.1 1.45 8.55 1.25 Q8.4 0.3 11.1 0.3 L13.8 -0.3 14.55 0.05 14.95 0.35 M5.25 3.35 L4.45 4.05 4.15 4.35 2.5 5.25 Q1.9 5.6 1.8 6.2 0.9 5.5 0.9 5.15 0.9 4.45 1.4 4.0 L2.0 3.15 5.25 3.15 5.25 3.35 M22.8 0.95 L21.75 1.5 20.05 1.55 Q18.5 1.55 18.05 0.9 L18.95 0.6 20.75 0.4 Q22.0 0.4 22.8 0.95 M30.5 0.4 L30.65 1.0 30.95 2.35 31.25 3.95 31.2 5.7 31.2 6.65 30.75 6.9 30.45 6.85 30.35 6.75 30.35 6.0 Q30.6 5.05 29.75 3.1 L28.8 1.1 28.8 0.65 Q28.9 0.3 29.4 0.3 L29.8 0.35 30.25 0.3 30.5 0.4 M29.3 7.6 Q28.8 5.7 28.3 5.35 27.65 4.85 27.4 3.85 L26.9 2.75 25.35 2.15 Q24.55 1.85 24.55 1.2 L24.6 0.55 Q24.8 0.4 24.9 0.4 L25.8 0.6 26.0 -0.1 Q27.0 -0.05 27.2 1.8 27.25 2.35 27.7 3.0 L28.3 4.0 29.05 6.1 29.3 7.6 M28.2 28.15 L28.2 28.2 Q28.0 29.2 27.6 29.65 27.25 30.0 26.6 30.0 26.25 30.0 25.95 29.7 25.65 29.45 25.65 29.1 25.65 28.75 26.3 28.25 L27.3 28.05 28.2 28.15 M10.05 29.65 L9.6 29.65 8.7 29.7 8.45 29.55 8.45 29.7 7.85 29.7 7.25 28.95 6.95 27.9 8.0 27.9 9.05 28.55 10.1 29.6 10.05 29.65 M14.7 29.85 Q14.55 29.7 14.55 29.35 14.55 29.0 16.3 28.7 L18.45 28.35 Q17.85 29.5 16.7 29.85 L14.7 29.85 M5.7 27.5 L4.7 27.5 6.5 28.7 3.95 28.05 3.15 28.35 0.3 28.55 Q0.65 26.15 0.3 25.4 L0.25 25.25 -0.35 24.0 -0.2 23.75 5.7 27.3 5.7 27.5" fill="#feeba3" fill-rule="evenodd" stroke="none"/>
  </g>
</svg>
