<?xml version="1.0" encoding="UTF-8" standalone="no"?>
<svg xmlns:xlink="http://www.w3.org/1999/xlink" height="79.95px" width="642.35px" xmlns="http://www.w3.org/2000/svg">
  <g transform="matrix(1.0, 0.0, 0.0, 1.0, -0.05, -0.5)">
    <path d="M621.3 34.45 Q618.55 34.35 616.55 36.5 614.55 38.6 613.5 41.25 L612.9 43.0 612.55 44.6 614.4 44.4 616.3 43.95 Q619.1 43.2 621.45 41.5 623.8 39.8 623.85 36.8 623.85 35.5 623.2 35.0 622.5 34.5 621.3 34.45 M624.3 32.0 L624.7 32.1 625.1 32.25 Q627.3 32.8 629.15 34.3 631.05 35.75 631.1 38.25 631.25 42.25 627.8 44.55 624.3 46.85 620.15 47.85 L615.7 48.7 612.05 48.85 Q612.4 51.5 614.05 52.95 615.7 54.4 618.45 54.4 624.0 54.4 627.8 51.3 631.55 48.2 633.7 43.45 L637.4 45.15 Q635.55 48.85 633.25 51.9 630.95 54.9 626.9 56.85 624.45 57.95 621.75 58.5 L616.25 59.0 615.35 59.0 614.55 58.95 611.05 58.55 607.75 57.65 Q603.45 56.2 600.65 53.15 597.85 50.1 597.85 45.95 597.85 44.95 598.1 43.85 598.25 42.8 598.65 41.7 600.1 37.25 604.65 34.75 609.15 32.3 614.25 31.6 L616.4 31.4 618.55 31.35 621.6 31.45 624.3 32.0 M574.0 42.0 L574.4 42.1 581.0 32.9 594.95 29.35 595.45 37.25 596.0 45.15 Q596.35 51.25 592.0 54.5 587.65 57.75 582.4 58.25 L581.1 58.35 579.9 58.4 578.35 58.35 576.7 58.15 Q574.55 57.95 572.5 57.1 570.45 56.35 569.0 54.8 567.95 53.5 567.5 52.1 567.0 50.7 567.0 49.2 L567.1 47.6 567.45 45.95 Q567.95 44.05 569.5 42.95 571.1 41.9 572.9 41.95 L573.3 41.95 573.7 41.95 574.0 42.0 M578.7 47.3 L578.5 48.7 577.8 49.95 Q577.1 51.05 575.8 51.7 574.55 52.3 573.2 52.3 L573.05 52.3 572.85 52.3 572.65 52.3 572.5 52.25 Q573.0 53.0 573.8 53.55 574.6 54.1 575.6 54.1 578.65 54.1 580.45 52.45 582.25 50.85 582.25 47.65 L582.3 43.1 582.3 38.6 577.85 44.55 578.5 45.85 578.7 47.3 M558.05 49.3 L559.45 49.6 Q561.6 50.1 563.35 51.55 565.2 53.0 565.05 55.4 564.85 57.6 563.15 58.8 561.45 60.0 559.4 60.4 L558.0 60.65 556.7 60.7 555.7 60.65 554.75 60.5 Q552.4 60.05 550.55 58.6 548.65 57.15 548.8 54.55 548.95 52.1 550.8 50.95 552.7 49.75 554.8 49.4 L555.85 49.3 556.8 49.25 558.05 49.3" fill="none" stroke="url(#gradient0)" stroke-linecap="round" stroke-linejoin="round" stroke-width="10.0"/>
    <path d="M540.35 43.6 Q540.8 50.8 535.9 54.7 L535.45 55.05 Q530.15 59.0 523.7 59.65 L522.1 59.75 520.65 59.8 518.75 59.75 516.75 59.55 Q514.15 59.25 511.65 58.25 509.15 57.3 507.35 55.4 506.1 53.85 505.55 52.15 L505.45 51.75 505.35 51.55 505.1 51.85 Q502.35 55.55 497.35 57.9 494.4 59.25 491.1 59.95 L484.35 60.55 483.3 60.55 482.25 60.45 478.05 60.0 473.95 58.9 Q468.75 57.1 465.35 53.4 L463.45 50.8 Q461.65 53.3 459.55 55.45 454.9 60.25 446.4 60.25 L445.1 60.2 443.7 60.05 Q441.6 59.8 439.65 59.05 437.75 58.25 436.45 56.55 435.55 55.3 435.15 54.0 434.8 52.65 434.8 51.25 L434.85 50.0 435.0 48.8 Q435.25 47.3 435.8 45.8 L436.8 42.9 437.15 41.95 437.8 40.3 438.1 39.45 438.35 38.6 438.65 37.15 438.8 36.0 438.5 34.75 Q438.15 34.25 437.45 34.25 435.85 34.25 434.4 35.7 432.9 37.2 431.85 38.95 L430.85 40.9 430.15 42.55 428.7 46.75 427.25 50.95 425.7 55.25 424.3 59.45 406.35 59.45 408.3 54.0 410.25 48.5 412.1 43.1 413.95 37.65 414.2 36.65 414.3 35.75 Q414.3 34.9 413.9 34.55 413.5 34.15 412.75 34.15 L411.85 34.3 410.85 34.7 Q410.35 34.95 409.85 35.35 L408.9 36.35 Q407.55 37.9 405.95 40.7 404.4 43.55 402.6 48.35 L402.0 50.05 400.7 53.85 399.6 57.3 398.85 59.45 382.0 59.45 392.9 27.8 409.8 27.8 409.1 29.75 Q411.2 28.5 413.75 27.65 416.3 26.75 418.95 26.6 L419.45 26.6 420.0 26.6 422.6 26.75 425.05 27.4 Q426.95 28.05 428.5 29.3 430.05 30.65 430.65 32.7 433.35 29.85 436.75 28.3 440.15 26.75 443.75 26.75 L446.45 27.0 449.2 27.7 Q452.75 28.85 454.55 31.45 456.35 34.1 456.35 37.3 L456.15 39.45 455.5 41.75 455.0 43.25 454.25 45.35 454.05 45.9 453.9 46.45 453.2 48.8 Q452.9 49.95 452.9 50.65 L452.9 50.9 453.0 51.2 453.3 51.3 453.9 51.3 454.8 51.15 455.7 50.75 458.25 48.7 460.5 45.85 462.0 43.7 462.2 42.05 Q462.4 40.75 462.85 39.4 464.65 34.0 470.2 30.95 475.7 27.95 481.9 27.1 L484.55 26.85 487.15 26.75 490.85 26.95 494.2 27.55 494.7 27.75 495.2 27.85 Q497.85 28.55 500.15 30.4 502.45 32.2 502.5 35.25 502.7 40.15 498.45 42.9 494.2 45.75 489.15 46.95 L483.7 48.0 479.2 48.15 Q479.65 51.4 481.7 53.2 483.7 54.95 487.05 54.95 493.8 54.95 498.45 51.15 503.05 47.35 505.7 41.6 L506.8 42.1 508.0 40.95 Q509.9 39.65 512.15 39.75 L512.65 39.75 513.1 39.75 513.5 39.8 513.95 39.9 522.0 28.7 539.05 24.4 539.7 34.0 540.35 43.6 M492.85 31.25 Q492.0 30.65 490.5 30.55 487.15 30.45 484.75 33.05 482.25 35.65 481.05 38.85 L480.3 41.0 479.85 43.0 482.1 42.75 484.45 42.2 Q487.85 41.3 490.75 39.2 493.55 37.15 493.65 33.45 493.65 31.9 492.85 31.25 M523.6 41.15 L523.6 35.65 518.2 42.9 519.0 44.5 519.2 46.25 518.95 48.0 518.1 49.55 Q517.25 50.85 515.7 51.65 514.15 52.4 512.5 52.4 L512.3 52.4 512.05 52.4 511.85 52.35 511.65 52.3 Q512.25 53.25 513.25 53.9 514.25 54.55 515.4 54.55 519.1 54.55 521.35 52.55 523.55 50.6 523.55 46.7 L523.6 41.15 M378.5 30.85 L377.4 34.15 375.1 40.7 372.85 47.3 372.75 47.6 372.7 48.0 372.5 48.45 372.4 49.05 372.35 49.45 372.35 49.8 372.45 50.5 372.95 50.95 373.4 51.05 373.9 51.0 374.95 50.8 375.95 50.3 377.95 48.7 379.75 46.6 381.15 44.65 382.0 43.0 382.15 42.65 382.35 42.3 382.5 41.95 382.65 41.6 387.35 43.65 Q384.0 50.75 379.35 55.5 374.65 60.25 366.05 60.25 L365.8 60.25 365.6 60.25 Q362.65 60.15 360.1 58.9 357.5 57.75 356.3 54.9 353.8 57.15 350.7 58.55 347.6 60.0 344.3 60.25 L343.55 60.35 342.7 60.35 Q339.55 60.25 336.6 59.05 333.7 57.9 331.4 55.1 329.7 53.0 328.95 50.75 328.2 48.5 328.2 46.15 328.2 42.05 330.4 38.15 332.6 34.25 336.05 31.6 338.65 29.65 342.05 28.35 345.5 27.05 349.15 26.85 L349.9 26.75 350.7 26.75 Q353.55 26.75 356.3 27.6 358.95 28.5 361.15 30.3 L362.05 27.55 370.85 27.55 379.65 27.55 378.5 30.85 M325.65 18.95 Q323.4 20.7 320.6 20.9 L320.35 20.9 320.15 20.9 317.85 20.4 Q316.7 20.05 315.8 19.25 L315.45 18.95 315.05 18.6 314.95 18.55 314.9 18.45 314.65 18.25 314.45 18.05 315.8 16.7 316.85 15.25 317.55 14.0 317.7 12.85 Q317.7 11.8 316.7 11.15 315.7 10.5 313.25 10.5 307.5 10.5 302.4 16.5 297.3 22.5 294.3 29.8 L293.9 30.8 293.5 31.95 293.35 32.25 293.25 32.55 292.15 35.7 291.4 39.1 291.15 40.9 291.05 42.65 291.15 44.1 291.4 45.55 Q291.75 46.9 292.5 47.45 293.25 48.0 294.1 48.0 L294.75 47.95 295.4 47.8 297.1 46.9 298.55 45.65 Q299.9 44.0 301.35 41.1 302.8 38.25 304.35 33.5 L304.8 32.2 305.75 29.3 306.65 26.85 307.2 25.3 330.8 25.3 328.55 31.85 326.25 38.4 323.95 45.05 321.7 51.6 Q317.95 62.35 308.25 68.9 298.55 75.45 287.45 75.45 L283.65 75.2 279.85 74.55 Q274.9 73.35 272.45 71.15 270.0 68.95 269.45 66.5 L269.3 65.7 269.3 64.95 Q269.35 61.6 271.8 59.1 274.25 56.6 277.6 56.65 279.1 56.65 280.55 57.25 282.0 57.8 283.5 59.25 L283.85 59.65 284.25 60.0 284.65 60.4 285.0 60.8 284.2 61.2 283.3 61.7 Q281.85 62.55 280.55 63.7 279.3 64.9 279.4 66.7 L279.4 67.0 279.4 67.2 Q279.6 68.75 280.7 69.45 281.85 70.2 283.3 70.3 L285.75 69.9 288.4 68.3 289.45 67.45 290.5 66.4 Q293.15 63.6 294.75 60.25 296.4 56.85 297.55 53.25 L294.8 54.0 291.95 54.6 290.55 54.75 289.15 54.75 Q284.65 54.75 280.5 52.9 276.8 51.25 274.3 47.8 L273.75 48.75 Q272.55 50.8 270.75 52.55 269.05 54.3 266.7 54.3 L264.9 54.0 263.3 53.3 Q260.85 55.3 257.5 56.45 254.2 57.55 250.7 57.8 L250.15 57.8 249.55 57.8 Q246.3 57.8 243.25 56.8 240.2 55.8 237.9 53.85 236.1 52.2 235.25 50.35 234.45 48.45 234.45 46.6 234.45 45.1 234.9 43.7 235.35 42.25 236.2 40.9 238.0 38.2 240.9 36.25 243.45 34.65 246.6 33.65 249.75 32.75 253.1 32.75 L254.1 32.8 255.05 32.8 Q257.75 33.05 260.35 33.95 262.95 34.9 264.95 36.75 266.65 38.25 267.55 40.15 268.4 42.1 268.4 44.15 L268.25 45.7 267.9 47.25 269.45 46.75 Q270.1 46.4 270.75 45.6 L271.5 44.65 272.05 43.85 271.2 41.5 Q270.45 38.6 270.45 35.6 L270.5 34.15 270.65 32.65 271.15 29.6 272.0 26.7 Q274.9 18.35 282.6 13.05 290.3 7.75 298.9 6.2 L302.6 5.7 306.15 5.5 310.5 5.65 316.25 6.3 Q320.6 7.05 324.25 8.9 327.9 10.75 327.9 14.45 327.9 17.2 325.65 18.95 M356.8 32.35 L355.9 32.45 355.0 32.7 Q353.3 33.45 351.55 35.25 349.85 37.05 348.45 39.1 L346.75 42.0 345.6 44.35 345.3 45.25 344.9 46.7 344.5 48.05 Q344.3 48.7 344.25 49.45 344.05 49.95 344.0 50.6 L343.95 51.75 Q343.95 53.15 344.4 54.0 344.9 54.95 346.05 54.95 348.7 54.95 350.7 52.75 352.75 50.6 354.2 48.0 L355.55 45.4 356.55 43.1 358.15 38.25 Q358.7 36.15 358.7 34.7 L358.4 33.0 Q358.1 32.35 356.8 32.35 M255.35 35.9 Q254.7 35.9 253.95 36.25 L252.4 37.2 251.8 37.8 251.2 38.45 Q249.75 40.15 248.9 42.3 248.0 44.5 247.6 46.75 L247.5 48.25 247.45 49.65 247.45 50.6 247.6 51.75 248.25 53.7 Q248.75 54.55 249.75 54.55 251.35 54.55 252.55 53.45 253.8 52.3 254.55 50.95 L254.95 50.35 255.25 49.75 Q254.25 49.05 253.7 48.0 253.15 46.95 253.15 45.75 L253.15 45.5 253.15 45.3 Q253.35 43.45 254.6 41.75 255.8 40.05 257.7 39.55 257.65 37.6 257.0 36.75 256.3 35.9 255.35 35.9 M218.5 32.45 Q220.3 32.45 222.05 33.0 223.85 33.55 225.45 34.65 L225.85 33.35 237.95 33.35 235.7 40.05 234.5 43.55 233.4 46.7 231.05 53.35 228.75 60.05 Q227.3 64.35 223.0 67.1 218.7 69.9 213.85 70.55 L212.65 70.65 211.45 70.65 210.75 70.65 207.6 70.25 Q205.75 69.75 204.2 68.85 202.75 68.0 201.8 66.6 200.9 65.25 200.65 63.8 L200.55 63.15 200.5 62.55 Q200.6 61.0 201.55 59.75 202.45 58.45 204.65 58.05 L204.9 58.05 205.2 58.0 205.45 58.0 205.7 58.0 Q208.0 58.0 209.4 59.45 210.45 60.65 210.75 62.0 L210.85 62.7 210.85 62.8 210.85 62.9 210.75 63.8 210.05 65.3 208.45 66.7 207.55 67.05 207.85 67.15 208.2 67.25 208.45 67.35 208.75 67.35 210.75 67.15 Q212.65 66.65 213.85 65.0 215.7 62.5 216.85 59.6 L217.65 57.25 218.35 55.1 216.6 55.7 214.8 56.05 213.9 56.15 213.05 56.2 210.75 56.0 Q208.1 55.45 205.9 53.7 202.8 51.2 202.8 46.45 202.8 40.95 207.3 37.0 208.95 35.5 210.75 34.55 213.8 32.85 217.15 32.55 L217.8 32.5 218.5 32.45 M222.3 36.6 L222.05 36.6 220.85 36.9 Q220.25 37.2 219.6 37.7 218.35 38.85 217.15 40.7 215.9 42.55 215.05 44.5 L214.1 47.25 Q213.75 48.6 213.75 49.65 L213.85 50.55 214.05 51.35 214.6 52.0 215.3 52.2 Q217.9 52.2 219.5 49.95 221.15 47.65 222.05 44.9 L223.15 41.55 Q223.6 39.95 224.0 38.85 L224.0 38.55 223.95 38.25 223.65 37.4 Q223.4 37.0 222.9 36.8 L222.7 36.7 222.55 36.65 222.3 36.6 M170.9 9.75 L164.35 28.55 157.95 47.3 157.4 48.8 157.25 49.95 Q157.25 50.5 157.7 50.8 L159.15 51.0 Q159.85 51.0 160.95 50.45 L163.2 48.8 Q164.85 47.15 165.85 45.35 L166.25 44.65 Q166.65 43.2 167.55 42.15 L167.8 41.55 168.0 41.65 168.8 40.95 Q170.7 39.65 172.95 39.75 L173.45 39.75 173.9 39.75 174.3 39.8 174.75 39.9 182.8 28.7 199.85 24.4 200.5 34.0 201.15 43.6 Q201.6 51.1 196.25 55.05 190.95 59.0 184.5 59.65 L182.9 59.75 181.45 59.8 179.55 59.75 177.55 59.55 Q174.95 59.25 172.45 58.25 169.95 57.3 168.15 55.4 167.2 54.25 166.7 53.0 L164.6 55.4 Q160.2 60.25 151.75 60.25 L150.75 60.2 149.85 60.15 Q147.55 59.9 145.4 59.0 143.2 58.15 141.85 56.25 140.95 55.0 140.55 53.45 140.05 51.95 140.05 50.4 L140.1 49.7 140.15 49.15 140.6 46.55 141.3 44.05 147.25 26.85 153.05 9.75 157.55 9.75 162.0 9.75 166.4 9.75 170.9 9.75 M179.85 44.55 L180.05 46.3 179.8 48.05 178.95 49.6 Q178.1 50.9 176.55 51.7 175.0 52.45 173.35 52.45 L173.15 52.45 172.9 52.45 172.7 52.4 172.5 52.35 Q173.1 53.3 174.1 53.95 175.1 54.6 176.25 54.6 179.95 54.6 182.2 52.6 184.4 50.65 184.4 46.75 L184.45 41.2 184.45 35.7 179.05 42.95 179.85 44.55 M135.1 26.35 Q136.35 26.7 137.55 27.45 138.7 28.25 139.4 29.45 140.05 30.65 140.35 31.9 L140.5 33.0 140.5 33.95 Q140.5 37.3 138.5 39.25 136.45 41.2 134.05 41.2 L133.9 41.2 133.75 41.2 Q131.85 41.2 130.15 39.9 128.45 38.65 127.7 35.85 L127.0 34.65 Q126.6 34.2 126.1 34.3 125.15 34.3 124.05 35.35 122.9 36.4 121.65 38.25 119.45 41.0 117.95 44.45 116.45 47.9 115.25 51.4 L114.2 54.4 113.25 57.3 112.9 58.35 112.55 59.45 95.85 59.45 103.35 38.5 103.5 37.85 103.5 37.4 Q103.5 36.4 102.7 36.05 L100.95 35.85 Q98.6 36.1 96.8 38.0 95.0 39.9 93.85 42.1 L93.3 43.05 94.65 43.75 94.2 44.6 93.7 45.4 90.6 51.0 Q88.85 53.75 86.4 55.9 84.15 57.9 81.15 59.0 78.1 60.05 74.85 60.25 L74.05 60.25 71.3 60.05 68.7 59.45 Q65.25 58.25 63.8 55.8 62.4 53.3 62.4 50.3 62.4 49.35 62.55 48.3 L62.95 46.15 63.25 45.1 63.55 44.1 66.4 35.8 69.25 27.55 73.65 27.55 78.1 27.55 82.55 27.55 86.95 27.55 85.85 30.85 84.7 34.15 82.4 40.7 80.2 47.3 Q79.9 48.0 79.75 48.65 L79.55 49.9 Q79.55 50.4 79.95 50.75 80.35 51.15 81.35 51.0 82.1 51.0 83.2 50.45 84.25 49.9 85.45 48.8 87.05 47.15 88.05 45.35 L89.45 42.75 88.35 42.3 Q90.65 36.1 95.2 31.2 99.8 26.3 106.65 25.95 L107.95 25.85 109.35 25.95 Q112.35 26.1 115.1 27.45 117.85 28.75 119.45 31.35 121.45 29.9 123.65 28.6 125.9 27.4 128.25 26.65 L130.35 26.15 132.4 26.0 135.1 26.35 M85.0 12.2 L85.45 12.4 Q87.3 13.2 88.9 14.65 90.5 16.1 90.5 18.15 L90.4 18.75 90.3 19.4 Q89.75 21.1 88.3 22.25 86.9 23.4 85.25 23.95 L84.6 24.05 84.05 24.2 82.55 24.4 81.1 24.45 77.1 24.0 Q75.1 23.5 73.6 22.3 72.4 21.45 71.75 20.2 71.05 18.95 71.05 17.7 71.05 16.95 71.3 16.25 71.6 15.5 72.05 14.9 73.3 13.25 75.35 12.45 77.4 11.65 79.55 11.45 L80.05 11.45 80.55 11.45 82.5 11.6 84.4 12.05 85.0 12.2 M61.4 18.95 Q59.15 20.7 56.35 20.9 L56.1 20.9 55.9 20.9 53.6 20.4 Q52.45 20.05 51.55 19.25 L51.2 18.95 50.8 18.6 50.7 18.55 50.65 18.45 50.4 18.25 50.2 18.05 51.55 16.7 52.6 15.25 53.3 14.0 53.45 12.85 Q53.45 11.8 52.45 11.15 51.45 10.5 49.0 10.5 43.25 10.5 38.15 16.5 33.05 22.5 30.05 29.8 L29.65 30.8 29.25 31.95 29.1 32.25 29.0 32.55 27.9 35.7 27.15 39.1 26.9 40.9 26.8 42.65 26.9 44.1 27.15 45.55 Q27.5 46.9 28.25 47.45 29.0 48.0 29.85 48.0 L30.5 47.95 31.15 47.8 32.85 46.9 34.3 45.65 Q35.65 44.0 37.1 41.1 38.55 38.25 40.1 33.5 L40.55 32.2 41.5 29.3 42.4 26.85 42.95 25.3 66.55 25.3 64.3 31.85 62.0 38.4 59.7 45.05 57.45 51.6 Q53.7 62.35 44.0 68.9 34.3 75.45 23.2 75.45 L19.4 75.2 15.6 74.55 Q10.65 73.35 8.2 71.15 5.75 68.95 5.2 66.5 L5.05 65.7 5.05 64.95 Q5.1 61.6 7.55 59.1 10.0 56.6 13.35 56.65 14.85 56.65 16.3 57.25 17.75 57.8 19.25 59.25 L19.6 59.65 20.0 60.0 20.4 60.4 20.75 60.8 19.95 61.2 19.05 61.7 16.3 63.7 Q15.05 64.9 15.15 66.7 L15.15 67.0 15.15 67.2 Q15.35 68.75 16.45 69.45 17.6 70.2 19.05 70.3 20.2 70.4 21.5 69.9 L24.15 68.3 25.2 67.45 26.25 66.4 Q28.9 63.6 30.5 60.25 32.15 56.85 33.3 53.25 L30.55 54.0 27.7 54.6 26.3 54.75 24.9 54.75 Q20.4 54.75 16.25 52.9 12.15 51.05 9.45 46.95 7.75 44.35 6.95 41.5 6.2 38.6 6.2 35.6 L6.25 34.15 6.4 32.65 6.9 29.6 7.75 26.7 Q10.65 18.35 18.35 13.05 26.05 7.75 34.65 6.2 L38.35 5.7 41.9 5.5 46.25 5.65 52.0 6.3 Q56.35 7.05 60.0 8.9 63.65 10.75 63.65 14.45 63.65 17.2 61.4 18.95" fill="none" stroke="url(#gradient1)" stroke-linecap="round" stroke-linejoin="round" stroke-width="10.0"/>
    <path d="M624.2 31.9 L624.6 32.0 625.0 32.15 Q627.2 32.7 629.05 34.2 630.95 35.65 631.0 38.15 631.15 42.15 627.7 44.45 624.2 46.75 620.05 47.75 L615.6 48.6 611.95 48.75 Q612.3 51.4 613.95 52.85 615.6 54.3 618.35 54.3 623.9 54.3 627.7 51.2 631.45 48.1 633.6 43.35 L637.3 45.05 Q635.45 48.75 633.15 51.8 630.85 54.8 626.8 56.75 624.35 57.85 621.65 58.4 L616.15 58.9 615.25 58.9 614.45 58.85 610.95 58.45 607.65 57.55 Q603.35 56.1 600.55 53.05 597.75 50.0 597.75 45.85 L598.0 43.75 Q598.15 42.7 598.55 41.6 600.0 37.15 604.55 34.65 609.05 32.2 614.15 31.5 L616.3 31.3 618.45 31.25 621.5 31.35 624.2 31.9 M621.2 34.35 Q618.45 34.25 616.45 36.4 614.45 38.5 613.4 41.15 L612.8 42.9 612.45 44.5 614.3 44.3 616.2 43.85 Q619.0 43.1 621.35 41.4 623.7 39.7 623.75 36.7 623.75 35.4 623.1 34.9 622.4 34.4 621.2 34.35 M574.3 42.0 L580.9 32.8 594.85 29.25 595.35 37.15 595.9 45.05 Q596.25 51.15 591.9 54.4 587.55 57.65 582.3 58.15 L581.0 58.25 579.8 58.3 578.25 58.25 576.6 58.05 Q574.45 57.85 572.4 57.0 570.35 56.25 568.9 54.7 567.85 53.4 567.4 52.0 566.9 50.6 566.9 49.1 L567.0 47.5 Q567.1 46.65 567.35 45.85 567.85 43.95 569.4 42.85 571.0 41.8 572.8 41.85 L573.2 41.85 573.6 41.85 573.9 41.9 574.3 42.0 M578.6 47.2 L578.4 48.6 577.7 49.85 Q577.0 50.95 575.7 51.6 574.45 52.2 573.1 52.2 L572.95 52.2 572.75 52.2 572.55 52.2 572.4 52.15 Q572.9 52.9 573.7 53.45 574.5 54.0 575.5 54.0 578.55 54.0 580.35 52.35 582.15 50.75 582.15 47.55 L582.2 43.0 582.2 38.5 577.75 44.45 578.4 45.75 578.6 47.2 M540.35 43.6 Q540.8 50.85 535.8 54.8 L535.45 55.05 Q530.15 59.0 523.7 59.65 L522.1 59.75 520.65 59.8 518.75 59.75 516.75 59.55 Q514.15 59.25 511.65 58.25 509.15 57.3 507.35 55.4 506.1 53.85 505.55 52.15 L505.35 51.55 505.1 51.85 Q502.35 55.55 497.35 57.9 494.4 59.25 491.1 59.95 L484.35 60.55 483.3 60.55 482.25 60.45 478.05 60.0 473.95 58.9 Q468.75 57.1 465.35 53.4 L463.45 50.8 Q461.65 53.3 459.55 55.45 454.9 60.25 446.4 60.25 L445.1 60.2 443.7 60.05 Q441.6 59.8 439.65 59.05 437.75 58.25 436.45 56.55 435.55 55.3 435.15 54.0 434.8 52.65 434.8 51.25 L434.85 50.0 435.0 48.8 Q435.25 47.3 435.8 45.8 L436.8 42.9 437.15 41.95 437.8 40.3 438.1 39.45 438.35 38.6 438.65 37.15 438.8 36.0 438.5 34.75 Q438.15 34.25 437.45 34.25 435.85 34.25 434.4 35.7 432.9 37.2 431.85 38.95 L430.85 40.9 430.15 42.55 428.7 46.75 427.25 50.95 425.7 55.25 424.3 59.45 406.35 59.45 408.3 54.0 410.25 48.5 412.1 43.1 413.95 37.65 414.2 36.65 414.3 35.75 Q414.3 34.9 413.9 34.55 413.5 34.15 412.75 34.15 L411.85 34.3 410.85 34.7 Q410.35 34.95 409.85 35.35 L408.9 36.35 Q407.55 37.9 405.95 40.7 404.4 43.55 402.6 48.35 L402.0 50.05 400.7 53.85 399.6 57.3 398.85 59.45 382.0 59.45 392.9 27.8 409.8 27.8 409.1 29.75 Q411.2 28.5 413.75 27.65 416.3 26.75 418.95 26.6 L419.45 26.6 420.0 26.6 422.6 26.75 425.05 27.4 Q426.95 28.05 428.5 29.3 430.05 30.65 430.65 32.7 433.35 29.85 436.75 28.3 440.15 26.75 443.75 26.75 L446.45 27.0 449.2 27.7 Q452.75 28.85 454.55 31.45 456.35 34.1 456.35 37.3 L456.15 39.45 455.5 41.75 455.0 43.25 454.25 45.35 454.05 45.9 453.9 46.45 453.2 48.8 Q452.9 49.95 452.9 50.65 L452.9 50.9 453.0 51.2 453.3 51.3 453.9 51.3 454.8 51.15 455.7 50.75 458.25 48.7 460.5 45.85 462.0 43.7 462.2 42.05 Q462.4 40.75 462.85 39.4 464.65 34.0 470.2 30.95 475.7 27.95 481.9 27.1 L484.55 26.85 487.15 26.75 490.85 26.95 494.2 27.55 494.7 27.75 495.2 27.85 Q497.85 28.55 500.15 30.4 502.45 32.2 502.5 35.25 502.7 40.15 498.45 42.9 494.2 45.75 489.15 46.95 L483.7 48.0 479.2 48.15 Q479.65 51.4 481.7 53.2 483.7 54.95 487.05 54.95 493.8 54.95 498.45 51.15 503.05 47.35 505.7 41.6 L506.8 42.1 508.0 40.95 Q509.9 39.65 512.15 39.75 L512.65 39.75 513.1 39.75 513.5 39.8 513.95 39.9 522.0 28.7 539.05 24.4 539.7 34.0 540.35 43.6 M557.95 49.2 L559.35 49.5 Q561.5 50.0 563.25 51.45 565.1 52.9 564.95 55.3 564.75 57.5 563.05 58.7 561.35 59.9 559.3 60.3 L557.9 60.55 556.6 60.6 555.6 60.55 554.65 60.4 Q552.3 59.95 550.45 58.5 548.55 57.05 548.7 54.45 548.85 52.0 550.7 50.85 552.6 49.65 554.7 49.3 L555.75 49.2 556.7 49.15 557.95 49.2 M490.5 30.55 Q487.15 30.45 484.75 33.05 482.25 35.65 481.05 38.85 L480.3 41.0 479.85 43.0 482.1 42.75 484.45 42.2 Q487.85 41.3 490.75 39.2 493.55 37.15 493.65 33.45 493.65 31.9 492.85 31.25 492.0 30.65 490.5 30.55 M523.6 41.15 L523.6 35.65 518.2 42.9 519.0 44.5 519.2 46.25 518.95 48.0 518.1 49.55 Q517.25 50.85 515.7 51.65 514.15 52.4 512.5 52.4 L512.3 52.4 512.05 52.4 511.85 52.35 511.65 52.3 Q512.25 53.25 513.25 53.9 514.25 54.55 515.4 54.55 519.1 54.55 521.35 52.55 523.55 50.6 523.55 46.7 L523.6 41.15 M377.4 34.15 L375.1 40.7 372.85 47.3 372.75 47.6 372.7 48.0 372.5 48.45 372.4 49.05 372.35 49.45 372.35 49.8 372.45 50.5 372.95 50.95 373.4 51.05 373.9 51.0 374.95 50.8 375.95 50.3 377.95 48.7 379.75 46.6 381.15 44.65 382.0 43.0 382.15 42.65 382.35 42.3 382.5 41.95 382.65 41.6 387.35 43.65 Q384.0 50.75 379.35 55.5 374.65 60.25 366.05 60.25 L365.8 60.25 365.6 60.25 Q362.65 60.15 360.1 58.9 357.5 57.75 356.3 54.9 353.8 57.15 350.7 58.55 347.6 60.0 344.3 60.25 L343.55 60.35 342.7 60.35 Q339.55 60.25 336.6 59.05 333.7 57.9 331.4 55.1 329.7 53.0 328.95 50.75 328.2 48.5 328.2 46.15 328.2 42.05 330.4 38.15 332.6 34.25 336.05 31.6 338.65 29.65 342.05 28.35 345.5 27.05 349.15 26.85 L349.9 26.75 350.7 26.75 Q353.55 26.75 356.3 27.6 358.95 28.5 361.15 30.3 L362.05 27.55 370.85 27.55 379.65 27.55 378.5 30.85 377.4 34.15 M325.65 18.95 Q323.4 20.7 320.6 20.9 L320.35 20.9 320.15 20.9 317.85 20.4 Q316.7 20.05 315.8 19.25 L315.45 18.95 315.05 18.6 314.95 18.55 314.9 18.45 314.65 18.25 314.45 18.05 315.8 16.7 316.85 15.25 317.55 14.0 317.7 12.85 Q317.7 11.8 316.7 11.15 315.7 10.5 313.25 10.5 307.5 10.5 302.4 16.5 297.3 22.5 294.3 29.8 L293.9 30.8 293.5 31.95 293.35 32.25 293.25 32.55 292.15 35.7 291.4 39.1 291.15 40.9 291.05 42.65 291.15 44.1 291.4 45.55 Q291.75 46.9 292.5 47.45 293.25 48.0 294.1 48.0 L294.75 47.95 295.4 47.8 297.1 46.9 298.55 45.65 Q299.9 44.0 301.35 41.1 302.8 38.25 304.35 33.5 L304.8 32.2 305.75 29.3 306.65 26.85 307.2 25.3 330.8 25.3 328.55 31.85 326.25 38.4 323.95 45.05 321.7 51.6 Q317.95 62.35 308.25 68.9 298.55 75.45 287.45 75.45 L283.65 75.2 279.85 74.55 Q274.9 73.35 272.45 71.15 270.0 68.95 269.45 66.5 L269.3 65.7 269.3 64.95 Q269.35 61.6 271.8 59.1 274.25 56.6 277.6 56.65 279.1 56.65 280.55 57.25 282.0 57.8 283.5 59.25 L283.85 59.65 284.25 60.0 284.65 60.4 285.0 60.8 284.2 61.2 283.3 61.7 Q281.85 62.55 280.55 63.7 279.3 64.9 279.4 66.7 L279.4 67.0 279.4 67.2 Q279.6 68.75 280.7 69.45 281.85 70.2 283.3 70.3 L285.75 69.9 288.4 68.3 289.45 67.45 290.5 66.4 Q293.15 63.6 294.75 60.25 296.4 56.85 297.55 53.25 L294.8 54.0 291.95 54.6 290.55 54.75 289.15 54.75 Q284.65 54.75 280.5 52.9 276.8 51.25 274.3 47.8 L273.75 48.75 Q272.55 50.8 270.75 52.55 269.05 54.3 266.7 54.3 L264.9 54.0 263.3 53.3 Q260.85 55.3 257.5 56.45 254.2 57.55 250.7 57.8 L250.15 57.8 249.55 57.8 Q246.3 57.8 243.25 56.8 240.2 55.8 237.9 53.85 236.1 52.2 235.25 50.35 234.45 48.45 234.45 46.6 234.45 43.6 236.2 40.9 238.0 38.2 240.9 36.25 243.45 34.65 246.6 33.65 249.75 32.75 253.1 32.75 L254.1 32.8 255.05 32.8 Q257.75 33.05 260.35 33.95 262.95 34.9 264.95 36.75 266.65 38.25 267.55 40.15 268.4 42.1 268.4 44.15 L268.25 45.7 267.9 47.25 269.45 46.75 Q270.1 46.4 270.75 45.6 L271.5 44.65 272.05 43.85 271.2 41.5 Q270.45 38.6 270.45 35.6 L270.5 34.15 270.65 32.65 271.15 29.6 272.0 26.7 Q274.9 18.35 282.6 13.05 290.3 7.75 298.9 6.2 L302.6 5.7 306.15 5.5 310.5 5.65 316.25 6.3 Q320.6 7.05 324.25 8.9 327.9 10.75 327.9 14.45 327.9 17.2 325.65 18.95 M356.8 32.35 L355.9 32.45 355.0 32.7 Q353.3 33.45 351.55 35.25 349.85 37.05 348.45 39.1 L346.75 42.0 345.6 44.35 345.3 45.25 344.9 46.7 344.5 48.05 Q344.3 48.7 344.25 49.45 344.05 49.95 344.0 50.6 L343.95 51.75 Q343.95 53.15 344.4 54.0 344.9 54.95 346.05 54.95 348.7 54.95 350.7 52.75 352.75 50.6 354.2 48.0 L355.55 45.4 356.55 43.1 358.15 38.25 Q358.7 36.15 358.7 34.7 L358.4 33.0 Q358.1 32.35 356.8 32.35 M253.95 36.25 L252.4 37.2 251.8 37.8 251.2 38.45 Q249.75 40.15 248.9 42.3 248.0 44.5 247.6 46.75 L247.5 48.25 247.45 49.65 247.45 50.6 247.6 51.75 248.25 53.7 Q248.75 54.55 249.75 54.55 251.35 54.55 252.55 53.45 253.8 52.3 254.55 50.95 L254.95 50.35 255.25 49.75 Q254.25 49.05 253.7 48.0 253.15 46.95 253.15 45.75 L253.15 45.5 253.15 45.3 Q253.35 43.45 254.6 41.75 255.8 40.05 257.7 39.55 257.65 37.6 257.0 36.75 256.3 35.9 255.35 35.9 254.7 35.9 253.95 36.25 M218.5 32.45 Q220.3 32.45 222.05 33.0 223.85 33.55 225.45 34.65 L225.85 33.35 237.95 33.35 235.7 40.05 233.4 46.7 231.05 53.35 228.75 60.05 Q227.3 64.35 223.0 67.1 218.7 69.9 213.85 70.55 L212.65 70.65 211.45 70.65 207.6 70.25 Q205.75 69.75 204.2 68.85 202.75 68.0 201.8 66.6 200.9 65.25 200.65 63.8 L200.55 63.15 200.5 62.55 Q200.6 61.0 201.55 59.75 202.45 58.45 204.65 58.05 L204.9 58.05 205.2 58.0 205.45 58.0 205.7 58.0 Q208.0 58.0 209.4 59.45 210.75 60.95 210.85 62.7 L210.85 62.8 210.85 62.9 Q210.85 64.15 210.05 65.3 209.25 66.5 207.55 67.05 L207.85 67.15 208.2 67.25 208.45 67.35 208.75 67.35 Q212.05 67.45 213.85 65.0 215.7 62.5 216.85 59.6 L217.65 57.25 218.35 55.1 216.6 55.7 214.8 56.05 213.9 56.15 213.05 56.2 Q209.0 56.2 205.9 53.7 202.8 51.2 202.8 46.45 202.8 40.95 207.3 37.0 211.8 33.0 217.15 32.55 L217.8 32.5 218.5 32.45 M222.3 36.6 L222.05 36.6 220.85 36.9 Q220.25 37.2 219.6 37.7 218.35 38.85 217.15 40.7 215.9 42.55 215.05 44.5 L214.1 47.25 Q213.75 48.6 213.75 49.65 L213.85 50.55 214.05 51.35 214.6 52.0 215.3 52.2 Q217.9 52.2 219.5 49.95 221.15 47.65 222.05 44.9 L223.15 41.55 Q223.6 39.95 224.0 38.85 L224.0 38.55 223.95 38.25 223.65 37.4 Q223.4 37.0 222.9 36.8 L222.7 36.7 222.55 36.65 222.3 36.6 M170.9 9.75 L164.35 28.55 157.95 47.3 157.4 48.8 157.25 49.95 Q157.25 50.5 157.7 50.8 L159.15 51.0 Q159.85 51.0 160.95 50.45 L163.2 48.8 Q164.85 47.15 165.85 45.35 L166.25 44.65 Q166.65 43.2 167.55 42.15 L167.8 41.55 168.0 41.65 168.8 40.95 Q170.7 39.65 172.95 39.75 L173.45 39.75 173.9 39.75 174.3 39.8 174.75 39.9 182.8 28.7 199.85 24.4 200.5 34.0 201.15 43.6 Q201.6 51.1 196.25 55.05 190.95 59.0 184.5 59.65 L182.9 59.75 181.45 59.8 179.55 59.75 177.55 59.55 Q174.95 59.25 172.45 58.25 169.95 57.3 168.15 55.4 167.2 54.25 166.7 53.0 L164.6 55.4 Q160.2 60.25 151.75 60.25 L150.75 60.2 149.85 60.15 Q147.55 59.9 145.4 59.0 143.2 58.15 141.85 56.25 140.95 55.0 140.55 53.45 140.05 51.95 140.05 50.4 L140.1 49.7 140.15 49.15 140.6 46.55 141.3 44.05 147.25 26.85 153.05 9.75 157.55 9.75 162.0 9.75 166.4 9.75 170.9 9.75 M179.75 48.0 L178.9 49.55 Q178.05 50.85 176.5 51.65 174.95 52.4 173.3 52.4 L173.1 52.4 172.85 52.4 172.65 52.35 172.45 52.3 Q173.05 53.25 174.05 53.9 175.05 54.55 176.2 54.55 179.9 54.55 182.15 52.55 184.35 50.6 184.35 46.7 L184.4 41.15 184.4 35.65 179.0 42.9 179.8 44.5 180.0 46.25 179.75 48.0 M135.1 26.35 Q136.35 26.7 137.55 27.45 138.7 28.25 139.4 29.45 140.05 30.65 140.35 31.9 L140.5 33.0 140.5 33.95 Q140.5 37.3 138.5 39.25 136.45 41.2 134.05 41.2 L133.9 41.2 133.75 41.2 Q131.85 41.2 130.15 39.9 128.45 38.65 127.7 35.85 L127.0 34.65 Q126.6 34.2 126.1 34.3 125.15 34.3 124.05 35.35 122.9 36.4 121.65 38.25 119.45 41.0 117.95 44.45 116.45 47.9 115.25 51.4 L114.2 54.4 113.25 57.3 112.9 58.35 112.55 59.45 95.85 59.45 103.35 38.5 103.5 37.85 103.5 37.4 Q103.5 36.4 102.7 36.05 L100.95 35.85 Q98.6 36.1 96.8 38.0 95.0 39.9 93.85 42.1 L93.3 43.05 94.65 43.75 94.2 44.6 93.7 45.4 90.6 51.0 Q88.85 53.75 86.4 55.9 84.15 57.9 81.15 59.0 78.1 60.05 74.85 60.25 L74.45 60.25 74.05 60.25 71.3 60.05 68.7 59.45 Q65.25 58.25 63.8 55.8 62.4 53.3 62.4 50.3 62.4 49.35 62.55 48.3 L62.95 46.15 63.25 45.1 63.55 44.1 66.4 35.8 69.25 27.55 73.65 27.55 78.1 27.55 82.55 27.55 86.95 27.55 85.85 30.85 84.7 34.15 82.4 40.7 80.2 47.3 Q79.9 48.0 79.75 48.65 L79.55 49.9 Q79.55 50.4 79.95 50.75 80.35 51.15 81.35 51.0 82.1 51.0 83.2 50.45 84.25 49.9 85.45 48.8 87.05 47.15 88.05 45.35 L89.45 42.75 88.35 42.3 Q90.65 36.1 95.2 31.2 99.8 26.3 106.65 25.95 L107.95 25.85 109.35 25.95 Q112.35 26.1 115.1 27.45 117.85 28.75 119.45 31.35 121.45 29.9 123.65 28.6 125.9 27.4 128.25 26.65 L130.35 26.15 132.4 26.0 135.1 26.35 M85.0 12.2 L85.45 12.4 Q87.3 13.2 88.9 14.65 90.5 16.1 90.5 18.15 L90.4 18.75 90.3 19.4 Q89.75 21.1 88.3 22.25 86.9 23.4 85.25 23.95 L84.6 24.05 84.05 24.2 82.55 24.4 81.1 24.45 77.1 24.0 Q75.1 23.5 73.6 22.3 72.4 21.45 71.75 20.2 71.05 18.95 71.05 17.7 71.05 16.95 71.3 16.25 71.6 15.5 72.05 14.9 73.3 13.25 75.35 12.45 77.4 11.65 79.55 11.45 L80.05 11.45 80.55 11.45 82.5 11.6 84.4 12.05 85.0 12.2 M61.4 18.95 Q59.15 20.7 56.35 20.9 L56.1 20.9 55.9 20.9 53.6 20.4 Q52.45 20.05 51.55 19.25 L51.2 18.95 50.8 18.6 50.7 18.55 50.65 18.45 50.4 18.25 50.2 18.05 51.55 16.7 52.6 15.25 53.3 14.0 53.45 12.85 Q53.45 11.8 52.45 11.15 51.45 10.5 49.0 10.5 43.25 10.5 38.15 16.5 33.05 22.5 30.05 29.8 L29.65 30.8 29.25 31.95 29.1 32.25 29.0 32.55 27.9 35.7 27.15 39.1 26.9 40.9 26.8 42.65 26.9 44.1 27.15 45.55 Q27.5 46.9 28.25 47.45 29.0 48.0 29.85 48.0 L30.5 47.95 31.15 47.8 32.85 46.9 34.3 45.65 Q35.65 44.0 37.1 41.1 38.55 38.25 40.1 33.5 L40.55 32.2 41.5 29.3 42.4 26.85 42.95 25.3 66.55 25.3 64.3 31.85 62.0 38.4 59.7 45.05 57.45 51.6 Q53.7 62.35 44.0 68.9 34.3 75.45 23.2 75.45 L19.4 75.2 15.6 74.55 Q10.65 73.35 8.2 71.15 5.75 68.95 5.2 66.5 L5.05 65.7 5.05 64.95 Q5.1 61.6 7.55 59.1 10.0 56.6 13.35 56.65 14.85 56.65 16.3 57.25 17.75 57.8 19.25 59.25 L19.6 59.65 20.0 60.0 20.4 60.4 20.75 60.8 19.95 61.2 19.05 61.7 16.3 63.7 Q15.05 64.9 15.15 66.7 L15.15 67.0 15.15 67.2 Q15.35 68.75 16.45 69.45 17.6 70.2 19.05 70.3 20.2 70.4 21.5 69.9 L24.15 68.3 25.2 67.45 26.25 66.4 Q28.9 63.6 30.5 60.25 32.15 56.85 33.3 53.25 L30.55 54.0 27.7 54.6 26.3 54.75 24.9 54.75 Q20.4 54.75 16.25 52.9 12.15 51.05 9.45 46.95 7.75 44.35 6.95 41.5 6.2 38.6 6.2 35.6 L6.25 34.15 6.4 32.65 6.9 29.6 7.75 26.7 Q10.65 18.35 18.35 13.05 26.05 7.75 34.65 6.2 L38.35 5.7 41.9 5.5 46.25 5.65 52.0 6.3 Q56.35 7.05 60.0 8.9 63.65 10.75 63.65 14.45 63.65 17.2 61.4 18.95" fill="#ffffff" fill-rule="evenodd" stroke="none"/>
  </g>
  <defs>
    <linearGradient gradientTransform="matrix(0.0, 0.0251, -0.147, 0.0, 694.85, 45.0)" gradientUnits="userSpaceOnUse" id="gradient0" spreadMethod="pad" x1="-819.2" x2="819.2">
      <stop offset="0.0" stop-color="#e60199"/>
      <stop offset="1.0" stop-color="#710168"/>
    </linearGradient>
    <linearGradient gradientTransform="matrix(0.0, 0.0488, -0.0649, 0.0, 282.65, 40.45)" gradientUnits="userSpaceOnUse" id="gradient1" spreadMethod="pad" x1="-819.2" x2="819.2">
      <stop offset="0.0" stop-color="#ef019d"/>
      <stop offset="1.0" stop-color="#5a015f"/>
    </linearGradient>
  </defs>
</svg>
