<?xml version="1.0" encoding="UTF-8" standalone="no"?>
<svg xmlns:xlink="http://www.w3.org/1999/xlink" height="90.8px" width="846.1px" xmlns="http://www.w3.org/2000/svg">
  <g transform="matrix(1.0, 0.0, 0.0, 1.0, 0.0, -0.5)">
    <path d="M823.7 37.0 L826.0 37.6 Q828.9 38.5 830.4 40.65 831.85 42.8 831.85 45.45 L831.7 47.25 831.2 49.1 830.75 50.35 830.15 52.05 830.0 52.5 829.85 52.95 829.3 54.9 829.05 56.4 829.05 56.6 829.1 56.85 829.35 56.9 829.85 56.9 830.6 56.8 831.3 56.5 833.4 54.8 835.25 52.45 836.55 50.5 837.4 48.95 841.1 50.7 Q838.35 56.35 834.5 60.3 830.65 64.25 823.65 64.25 L822.6 64.2 821.45 64.1 818.15 63.25 Q816.55 62.6 815.5 61.2 814.8 60.2 814.45 59.1 814.2 58.05 814.2 56.9 L814.2 55.85 814.35 54.85 815.0 52.4 815.8 50.05 816.1 49.25 816.65 47.9 816.85 47.25 817.05 46.5 817.35 45.35 817.45 44.4 817.2 43.35 Q816.95 42.95 816.35 42.95 815.0 42.95 813.8 44.15 812.65 45.4 811.75 46.8 L810.95 48.4 810.35 49.75 809.15 53.2 807.95 56.65 806.7 60.15 805.55 63.6 790.9 63.6 792.45 59.15 794.05 54.65 795.55 50.2 797.1 45.75 797.3 44.9 797.4 44.2 Q797.4 43.45 797.05 43.2 796.75 42.9 796.1 42.9 L795.35 43.0 Q794.95 43.1 794.55 43.35 L793.75 43.85 792.95 44.65 790.55 48.25 Q789.25 50.6 787.75 54.5 L787.3 55.9 786.2 59.0 785.3 61.85 784.75 63.6 770.9 63.6 771.65 61.5 769.3 61.9 767.2 61.6 765.3 60.7 Q762.45 63.1 758.55 64.45 754.65 65.75 750.6 66.0 L749.95 66.0 749.25 66.0 Q745.4 66.0 741.85 64.85 738.3 63.65 735.6 61.4 733.5 59.45 732.5 57.3 L732.1 57.8 Q730.05 60.5 726.2 62.35 723.9 63.4 721.1 63.95 L715.45 64.5 715.0 64.5 714.5 64.5 Q710.2 64.25 706.25 62.85 702.3 61.4 699.75 58.2 698.45 56.5 697.8 54.75 697.2 53.0 697.2 51.25 697.2 47.85 699.25 44.75 701.3 41.7 704.55 39.85 706.75 38.65 709.85 37.8 712.95 36.95 716.2 36.85 L717.0 36.75 717.75 36.75 723.05 37.4 Q725.6 38.05 727.45 39.7 728.35 40.6 728.95 41.8 729.55 43.05 729.7 44.4 L729.7 44.65 729.7 44.9 729.35 46.8 728.35 48.5 726.45 49.9 724.05 50.35 723.7 50.35 723.35 50.25 721.95 49.95 720.65 49.35 Q719.7 48.7 719.1 47.8 718.5 46.85 718.35 45.8 L718.35 45.7 718.35 45.45 718.25 45.3 718.25 45.15 Q718.25 43.45 719.4 42.2 720.5 40.95 722.15 40.5 L721.25 40.25 720.3 40.2 719.85 40.2 719.45 40.3 719.05 40.35 718.65 40.5 Q716.05 41.4 714.2 44.15 712.25 46.95 711.6 50.1 L711.4 51.55 711.35 52.95 Q711.4 55.85 712.9 57.95 714.35 60.05 717.75 60.05 723.45 60.05 727.0 56.9 729.7 54.5 731.7 51.3 732.05 48.65 733.65 46.2 735.7 43.05 739.1 40.8 742.1 38.9 745.75 37.75 749.45 36.7 753.4 36.7 L754.55 36.7 755.65 36.75 Q758.85 37.05 761.9 38.1 764.9 39.15 767.25 41.35 769.2 43.1 770.25 45.35 771.3 47.65 771.3 50.05 L771.15 51.8 770.7 53.65 772.5 53.05 774.05 51.75 774.95 50.65 775.85 49.05 775.9 49.1 779.85 37.65 793.7 37.65 793.1 39.3 Q794.8 38.25 796.9 37.55 799.0 36.85 801.15 36.7 L801.6 36.7 802.05 36.7 804.15 36.85 806.2 37.35 Q807.75 37.85 809.0 38.9 810.3 40.0 810.8 41.7 813.0 39.35 815.75 38.1 818.55 36.85 821.5 36.85 L823.7 37.0" fill="none" stroke="url(#gradient0)" stroke-linecap="round" stroke-linejoin="round" stroke-width="10.0"/>
    <path d="M751.9 42.55 L751.15 43.35 Q749.45 45.3 748.45 47.9 747.4 50.4 746.95 53.1 L746.8 54.8 746.75 56.5 746.8 57.6 746.95 58.95 Q747.2 60.2 747.7 61.2 748.3 62.2 749.45 62.2 751.35 62.2 752.75 60.9 754.2 59.6 755.1 57.95 L755.55 57.3 755.9 56.55 Q754.75 55.75 754.1 54.55 753.45 53.3 753.45 51.9 L753.45 51.6 753.45 51.4 Q753.7 49.2 755.15 47.2 756.55 45.25 758.8 44.65 758.7 42.35 757.95 41.4 757.15 40.35 756.0 40.35 755.25 40.35 754.35 40.75 753.45 41.15 752.55 41.9 L751.9 42.55" fill="none" stroke="url(#gradient1)" stroke-linecap="round" stroke-linejoin="round" stroke-width="10.0"/>
    <path d="M672.0 37.25 L672.7 47.3 Q673.15 55.2 667.55 59.3 662.0 63.5 655.25 64.15 L653.6 64.25 652.05 64.3 650.05 64.25 647.95 64.05 Q645.2 63.75 642.6 62.7 639.95 61.7 638.05 59.7 636.75 58.05 636.15 56.25 L635.75 54.75 631.5 59.85 Q626.6 64.8 617.55 64.8 L617.3 64.8 617.05 64.8 Q614.0 64.7 611.35 63.4 608.6 62.15 607.3 59.2 604.7 61.55 601.45 63.0 598.15 64.5 594.75 64.8 L593.95 64.9 593.05 64.9 Q589.75 64.8 586.65 63.55 583.6 62.35 581.15 59.35 579.35 57.2 578.6 54.85 L578.3 53.7 576.3 56.5 Q573.65 59.95 568.7 62.35 565.8 63.65 562.2 64.35 L554.95 65.1 554.35 65.1 553.75 65.1 Q548.25 64.8 543.15 63.0 538.1 61.1 534.85 57.05 533.7 55.55 532.95 54.0 L532.25 55.1 Q530.45 58.0 527.85 60.25 525.5 62.35 522.35 63.5 519.15 64.6 515.7 64.8 L515.3 64.8 514.9 64.8 512.0 64.6 509.3 63.95 Q505.65 62.7 504.15 60.1 503.0 58.15 502.75 55.85 L499.4 59.75 Q494.5 64.8 485.55 64.8 L484.4 64.75 483.2 64.7 Q480.95 64.4 478.85 63.6 476.75 62.7 475.35 60.8 474.4 59.5 474.0 58.05 473.6 56.65 473.6 55.15 L473.6 54.35 473.7 53.6 Q473.9 51.7 474.5 49.8 L475.7 46.3 476.05 45.4 476.65 43.85 477.0 42.95 477.25 42.05 477.55 40.65 477.7 39.4 Q477.7 38.5 477.35 38.0 477.05 37.5 476.15 37.5 474.5 37.5 472.95 38.95 471.45 40.4 470.4 42.15 L469.4 43.9 468.8 45.4 466.8 50.9 464.9 56.45 463.6 60.2 462.3 63.95 444.2 63.95 450.1 46.85 Q444.65 55.65 437.1 59.6 428.65 63.95 416.9 63.95 406.2 63.95 397.95 57.2 389.7 50.4 389.7 38.9 389.7 31.3 393.65 24.95 397.6 18.6 403.75 14.55 408.75 11.0 415.2 9.1 421.65 7.2 428.55 7.2 L430.8 7.25 433.05 7.4 Q436.9 7.7 440.65 8.8 444.4 9.85 447.35 12.55 448.9 13.85 449.55 15.5 450.2 17.15 450.2 18.9 450.2 22.4 447.65 25.3 445.1 28.2 441.05 28.3 438.6 28.4 436.8 27.5 L433.45 25.25 432.65 24.65 431.9 23.95 432.4 23.7 432.9 23.45 Q434.8 22.4 436.25 21.2 437.7 20.05 438.5 17.75 L438.75 17.05 438.8 16.35 Q438.8 14.7 437.5 13.85 436.15 13.0 434.25 13.0 429.15 13.0 425.2 17.1 421.2 21.15 418.4 26.1 L416.4 30.3 414.8 34.1 Q414.05 36.15 413.4 38.8 412.75 41.45 412.65 44.15 L412.65 44.65 412.65 45.15 Q412.65 48.65 414.0 51.7 415.4 54.75 419.05 56.1 L421.8 56.75 424.6 57.0 425.3 57.0 425.95 56.9 Q431.8 56.55 437.15 52.8 442.4 49.05 445.0 44.15 L445.2 43.8 445.4 43.5 445.55 43.15 445.75 42.8 450.85 44.7 462.15 11.8 480.4 11.8 473.15 32.7 Q475.15 31.6 477.55 30.85 479.95 30.0 482.55 29.7 L483.55 29.7 484.55 29.65 Q487.3 29.7 489.85 30.55 492.4 31.45 494.25 33.5 495.45 34.8 495.95 36.4 496.5 37.95 496.5 39.6 L496.35 41.45 495.8 43.25 495.2 45.2 494.5 47.25 493.75 49.2 493.15 51.2 493.0 51.6 492.8 52.1 492.6 52.65 492.4 53.3 492.35 53.75 492.35 54.25 492.55 55.05 Q492.8 55.4 493.45 55.4 L494.4 55.25 495.35 54.85 Q496.7 54.2 497.9 52.95 L500.2 50.4 501.4 48.5 502.3 46.75 502.45 46.4 502.65 45.9 502.85 45.5 503.05 45.15 504.55 45.9 506.85 39.1 509.85 30.45 514.45 30.45 519.15 30.45 523.8 30.45 528.45 30.45 527.25 33.95 526.05 37.35 523.65 44.25 521.3 51.2 520.85 52.6 520.65 53.9 Q520.65 54.45 521.1 54.85 L522.55 55.1 Q523.3 55.1 524.45 54.5 L526.85 52.75 Q528.55 51.05 529.6 49.15 L531.65 45.15 531.85 45.25 Q532.45 42.45 534.2 39.8 536.85 35.9 541.0 33.5 543.8 32.0 547.75 30.9 551.75 29.8 555.9 29.65 L556.95 29.55 557.9 29.55 564.7 30.35 Q567.95 31.2 570.3 33.35 571.5 34.45 572.2 36.0 573.0 37.6 573.2 39.3 L573.2 39.65 573.2 39.95 572.75 42.4 Q572.3 43.65 571.5 44.6 L569.05 46.4 Q567.6 46.95 565.95 46.95 L565.55 46.95 565.05 46.85 563.3 46.45 561.6 45.65 Q560.35 44.85 559.65 43.7 558.85 42.5 558.65 41.15 L558.65 41.0 558.65 40.7 558.55 40.5 558.55 40.35 Q558.55 38.15 560.0 36.55 561.45 34.9 563.5 34.35 L562.35 34.05 561.15 34.0 560.6 34.0 560.1 34.1 559.6 34.15 559.05 34.35 Q555.75 35.5 553.35 39.05 550.85 42.6 550.05 46.65 L549.75 48.5 549.65 50.3 Q549.75 54.0 551.65 56.7 553.55 59.4 557.9 59.4 565.25 59.4 569.75 55.4 574.3 51.35 577.25 45.4 L578.35 45.9 Q578.9 43.7 580.1 41.6 582.4 37.5 586.05 34.7 588.75 32.65 592.4 31.3 596.0 29.9 599.8 29.7 L600.6 29.65 601.4 29.65 Q604.4 29.65 607.3 30.5 610.1 31.45 612.4 33.35 L613.35 30.45 622.6 30.45 631.85 30.45 630.65 33.95 629.5 37.4 627.05 44.25 624.7 51.2 624.6 51.5 624.55 51.9 624.35 52.4 624.25 53.0 624.15 53.45 624.15 53.8 624.3 54.55 624.8 55.0 625.25 55.15 625.8 55.1 626.9 54.85 627.95 54.35 630.05 52.65 631.95 50.45 633.4 48.4 634.3 46.65 634.5 46.3 634.65 45.95 634.8 45.55 635.0 45.2 637.15 46.15 Q637.8 45.2 638.75 44.55 640.75 43.15 643.1 43.25 L643.6 43.25 644.1 43.25 644.5 43.3 645.0 43.45 653.45 31.65 671.35 27.15 672.0 37.25 M650.3 48.25 L650.55 50.1 650.25 51.9 649.35 53.55 Q648.45 54.9 646.8 55.75 645.2 56.55 643.5 56.55 L643.25 56.55 643.0 56.55 642.8 56.5 642.55 56.45 644.25 58.1 Q645.3 58.8 646.55 58.8 650.45 58.8 652.75 56.7 655.05 54.65 655.05 50.55 L655.15 44.75 655.15 39.0 649.45 46.6 Q650.05 47.3 650.3 48.25 M609.85 37.95 Q609.85 36.8 609.5 36.15 609.2 35.5 607.85 35.5 L606.9 35.6 605.95 35.9 Q604.15 36.6 602.35 38.5 600.55 40.4 599.1 42.6 L597.3 45.6 Q596.45 47.05 596.1 48.1 L595.75 49.05 595.35 50.55 594.95 51.95 594.65 53.45 Q594.45 54.0 594.4 54.65 L594.35 55.9 Q594.35 57.35 594.85 58.25 595.35 59.25 596.55 59.25 599.35 59.25 601.45 56.9 603.6 54.65 605.1 51.9 L606.5 49.2 607.55 46.75 609.3 41.65 Q609.85 39.5 609.85 37.95 M530.5 16.9 Q532.15 18.4 532.15 20.6 L532.05 21.2 531.95 21.9 Q531.35 23.7 529.85 24.9 528.35 26.1 526.65 26.65 L525.95 26.8 525.4 26.95 523.8 27.15 522.3 27.2 518.1 26.7 Q516.0 26.2 514.4 24.95 513.15 24.05 512.5 22.75 511.75 21.45 511.75 20.15 511.75 19.35 512.0 18.6 512.3 17.8 512.8 17.15 514.1 15.45 516.25 14.6 518.4 13.75 520.65 13.55 L521.2 13.55 521.7 13.55 523.8 13.7 525.75 14.15 526.35 14.35 526.85 14.55 Q528.85 15.35 530.5 16.9 M365.85 48.85 L365.25 50.45 364.95 51.95 366.65 51.75 368.4 51.35 Q370.95 50.65 373.1 49.1 375.25 47.55 375.3 44.8 375.3 43.6 374.7 43.15 374.05 42.7 372.95 42.65 370.45 42.55 368.6 44.5 366.75 46.45 365.85 48.85 M370.45 39.8 L373.2 39.9 375.75 40.4 376.1 40.5 376.45 40.6 Q378.45 41.15 380.15 42.5 381.9 43.85 381.95 46.15 382.1 49.8 378.9 51.9 375.75 54.0 371.9 54.95 L367.85 55.7 364.5 55.85 Q364.8 58.3 366.35 59.6 367.85 60.95 370.35 60.95 375.45 60.95 378.9 58.1 382.35 55.25 384.35 50.9 L387.7 52.45 Q386.0 55.85 383.9 58.6 381.8 61.4 378.1 63.15 375.85 64.15 373.4 64.65 L368.3 65.15 367.5 65.15 366.75 65.05 363.6 64.7 360.55 63.9 Q357.2 62.75 354.9 60.6 L354.15 61.35 Q350.7 64.9 344.25 64.9 342.05 64.9 340.0 64.05 338.05 63.15 337.05 61.0 335.2 63.0 332.65 64.05 330.1 65.05 327.5 65.05 324.95 64.95 322.6 64.05 320.25 63.1 318.5 61.05 317.35 59.75 316.75 58.3 316.15 56.85 315.95 55.35 L315.9 54.7 315.85 54.15 Q315.85 51.1 317.5 48.2 319.15 45.35 321.85 43.3 323.8 41.8 326.4 40.85 328.95 39.9 331.7 39.7 L332.3 39.7 332.85 39.7 337.15 40.3 Q339.25 40.9 340.95 42.35 L346.15 27.05 352.6 27.05 359.05 27.05 354.15 41.15 349.3 55.25 349.2 55.45 349.15 55.85 349.05 56.15 349.0 56.5 348.95 56.8 348.95 57.05 349.05 57.6 349.35 57.9 349.65 58.05 350.05 58.0 350.75 57.85 351.55 57.5 352.25 57.0 Q351.5 55.25 351.5 53.2 L351.7 51.25 352.2 49.3 Q353.55 45.2 357.7 42.95 361.85 40.7 366.5 40.05 L368.5 39.85 370.45 39.8 M330.9 48.9 L329.65 51.15 328.85 52.9 328.6 53.5 328.35 54.35 328.0 55.55 327.75 56.85 327.7 57.5 327.65 58.2 Q327.65 59.2 328.05 59.95 328.45 60.7 329.45 60.7 331.6 60.7 333.15 59.1 L335.65 55.65 336.5 54.05 337.15 52.6 337.45 51.8 337.85 50.6 338.2 49.5 338.45 48.3 338.6 47.4 338.6 46.55 Q338.6 45.5 338.25 44.75 337.85 44.05 336.65 44.05 L336.3 44.1 335.95 44.2 Q334.6 44.5 333.3 45.9 L330.9 48.9 M311.6 47.3 Q312.05 55.2 306.45 59.3 300.9 63.5 294.15 64.15 L292.5 64.25 290.95 64.3 288.95 64.25 286.85 64.05 Q284.1 63.75 281.5 62.7 278.85 61.7 276.95 59.7 275.75 58.2 275.2 56.6 L272.85 59.2 Q270.25 61.75 266.75 61.75 L264.05 61.35 Q262.75 60.9 261.65 60.25 257.95 63.3 252.95 65.0 248.0 66.7 242.75 67.0 L241.95 67.0 241.05 67.0 Q236.1 67.0 231.55 65.5 227.0 64.05 223.55 61.1 220.85 58.6 219.6 55.85 218.4 53.0 218.4 50.2 218.4 45.75 221.05 41.65 223.65 37.6 228.05 34.7 231.85 32.25 236.6 30.85 241.3 29.45 246.35 29.45 L247.85 29.5 249.3 29.55 Q253.35 29.9 257.25 31.25 261.15 32.65 264.1 35.4 266.65 37.7 268.0 40.55 269.35 43.5 269.35 46.6 L269.1 48.85 268.55 51.15 270.85 50.45 Q271.9 49.9 272.8 48.75 L273.95 47.3 275.15 45.3 276.3 45.8 Q276.85 45.1 277.65 44.55 279.65 43.15 282.0 43.25 L282.5 43.25 283.0 43.25 283.4 43.3 283.9 43.45 292.35 31.65 310.25 27.15 310.9 37.25 311.6 47.3 M289.2 48.25 L289.45 50.1 289.15 51.9 288.25 53.55 Q287.35 54.9 285.7 55.75 284.1 56.55 282.4 56.55 L282.15 56.55 281.9 56.55 281.7 56.5 281.45 56.45 283.15 58.1 Q284.2 58.8 285.45 58.8 289.35 58.8 291.65 56.7 293.95 54.65 293.95 50.55 L294.05 44.75 294.05 39.0 288.35 46.6 Q288.95 47.3 289.2 48.25 M249.7 34.15 Q248.7 34.15 247.6 34.7 246.45 35.2 245.3 36.15 L244.4 37.0 243.5 37.95 Q241.3 40.5 240.0 43.8 238.65 47.05 238.1 50.45 L237.95 52.7 237.85 54.85 237.9 56.25 238.1 58.0 Q238.4 59.6 239.1 60.85 239.85 62.15 241.3 62.15 243.7 62.15 245.55 60.5 247.4 58.8 248.55 56.7 L249.1 55.85 249.6 54.9 Q248.05 53.9 247.25 52.3 246.45 50.75 246.45 48.95 L246.45 48.55 246.45 48.3 Q246.75 45.45 248.6 42.9 250.45 40.4 253.25 39.7 253.15 36.7 252.2 35.45 251.2 34.15 249.7 34.15 M216.4 40.4 L213.0 50.4 209.45 60.4 206.05 70.4 Q203.85 76.85 197.4 81.0 190.9 85.15 183.65 86.15 L181.8 86.25 180.05 86.3 174.3 85.65 Q171.55 85.0 169.15 83.6 167.0 82.35 165.6 80.25 164.2 78.15 163.85 76.0 L163.7 75.05 163.65 74.2 Q163.75 71.8 165.2 69.9 166.6 68.05 169.8 67.4 L170.2 67.4 170.7 67.35 171.05 67.35 171.45 67.35 Q174.85 67.35 176.95 69.5 179.05 71.75 179.15 74.35 L179.15 74.5 179.15 74.65 Q179.15 76.55 177.9 78.3 176.75 80.05 174.15 80.9 L174.65 81.1 175.15 81.2 175.55 81.3 176.0 81.35 Q180.95 81.5 183.65 77.8 186.45 74.1 188.1 69.75 L189.35 66.15 190.45 63.0 187.8 63.9 185.1 64.4 183.75 64.55 182.45 64.6 Q176.35 64.6 171.7 60.85 168.65 58.4 167.65 54.45 L166.5 56.0 Q163.6 59.85 158.35 62.35 155.25 63.75 151.8 64.45 L144.7 65.1 143.6 65.1 142.55 65.0 138.1 64.5 133.8 63.4 Q128.3 61.5 124.75 57.6 123.45 56.15 122.65 54.55 120.7 57.6 118.0 59.85 115.4 62.05 112.1 63.2 108.85 64.4 104.55 64.4 100.45 64.4 97.45 62.5 94.4 60.6 93.75 56.35 90.5 59.8 86.2 62.15 81.9 64.5 77.0 64.5 71.85 64.5 69.45 61.4 67.0 58.35 67.0 54.25 67.0 52.85 67.3 51.4 67.6 50.0 68.05 48.65 L69.7 44.0 71.3 39.4 72.8 34.7 74.5 30.1 92.5 30.1 90.65 35.4 88.95 40.7 Q87.95 43.4 87.1 46.05 L85.2 51.3 85.0 52.15 84.85 52.95 Q84.85 53.5 85.2 53.9 85.5 54.25 86.35 54.25 87.3 54.25 88.65 53.55 90.05 52.85 91.65 50.85 93.75 48.5 95.25 45.3 L97.9 38.8 98.95 35.75 100.0 32.65 100.25 31.95 100.45 31.25 100.5 30.9 100.7 30.65 100.75 30.5 100.8 30.45 100.85 30.3 100.9 30.1 103.85 30.1 106.85 30.1 112.8 30.1 118.8 30.1 116.95 35.3 115.2 40.4 113.45 45.7 111.6 50.85 111.2 52.25 111.1 53.3 Q111.1 54.1 111.45 54.4 111.75 54.75 112.3 54.75 L113.55 54.45 115.0 53.8 115.95 53.0 116.9 52.3 Q118.7 50.65 119.8 48.8 L121.45 45.9 121.45 45.7 122.15 42.9 Q124.05 37.25 129.85 34.05 135.65 30.9 142.15 30.0 L144.95 29.7 147.65 29.65 151.55 29.8 155.1 30.45 155.6 30.65 156.1 30.8 Q158.9 31.55 161.3 33.45 163.7 35.35 163.8 38.5 163.95 43.65 159.55 46.6 155.1 49.55 149.75 50.85 L144.05 51.9 139.35 52.1 Q139.8 55.5 141.95 57.35 144.05 59.25 147.6 59.25 154.65 59.25 159.55 55.25 164.35 51.25 167.1 45.2 L167.65 45.45 Q169.0 40.0 173.8 35.8 180.55 29.85 188.6 29.1 L189.6 29.05 190.6 29.05 Q193.35 29.05 196.0 29.8 198.65 30.65 201.05 32.25 L201.7 30.35 219.8 30.35 216.4 40.4 M197.25 35.5 L196.95 35.35 196.7 35.35 196.35 35.2 196.0 35.2 Q195.15 35.2 194.2 35.7 L192.3 36.9 Q190.45 38.6 188.6 41.4 186.7 44.15 185.45 47.05 184.55 49.2 184.0 51.2 183.5 53.25 183.5 54.85 L183.6 56.15 183.95 57.35 Q184.3 58.0 184.8 58.3 185.2 58.6 185.85 58.6 189.75 58.6 192.15 55.25 194.6 51.8 196.0 47.65 L197.6 42.65 198.85 38.6 198.85 38.15 198.75 37.7 198.35 36.4 Q198.0 35.8 197.25 35.5 M140.0 46.65 L142.35 46.4 144.8 45.85 Q148.4 44.85 151.4 42.7 154.4 40.5 154.5 36.6 154.5 35.0 153.65 34.35 152.75 33.7 151.2 33.6 147.65 33.5 145.1 36.25 142.55 39.0 141.25 42.3 140.7 43.5 140.45 44.6 L140.0 46.65 M75.9 8.4 L68.1 31.2 60.25 54.0 Q56.25 65.3 46.15 72.15 36.0 79.05 24.3 79.05 L20.35 78.8 16.35 78.1 15.75 77.9 15.1 77.8 Q11.35 76.7 8.2 74.25 5.0 71.8 5.0 67.85 L5.1 66.8 5.3 65.65 Q6.1 62.75 8.5 61.1 10.95 59.5 13.7 59.5 15.4 59.5 17.05 60.1 18.7 60.75 20.05 62.05 L21.75 63.65 20.95 64.05 20.05 64.4 17.05 66.6 Q15.7 67.85 15.8 69.85 L15.8 70.15 15.8 70.4 Q16.0 72.0 17.2 72.8 18.45 73.55 19.95 73.65 23.3 73.8 26.15 70.95 29.05 68.05 31.05 64.5 L32.95 60.95 34.2 57.8 37.4 48.7 40.45 39.7 43.65 30.6 46.7 21.55 46.9 21.0 47.1 20.5 47.45 19.0 47.85 17.5 48.0 16.35 48.05 15.25 Q48.05 13.7 47.35 12.55 46.6 11.45 44.5 11.45 39.95 11.45 36.15 15.35 32.3 19.3 31.45 23.95 L31.3 25.05 31.25 26.2 31.4 28.05 31.9 29.8 Q32.75 32.0 34.25 32.7 35.7 33.45 37.6 33.9 L38.2 34.05 38.8 34.15 38.25 34.75 37.7 35.4 35.7 37.35 33.35 38.9 30.95 39.75 28.75 39.95 Q24.8 39.95 22.1 36.85 19.4 33.8 19.15 29.25 19.1 27.65 19.45 26.0 19.8 24.4 20.45 22.7 24.15 13.3 33.25 9.55 42.35 5.8 52.55 5.5 L53.6 5.5 54.55 5.5 65.95 6.3 Q71.45 7.1 75.9 8.4" fill="none" stroke="url(#gradient2)" stroke-linecap="round" stroke-linejoin="round" stroke-width="10.0"/>
    <path d="M685.95 54.8 L686.9 54.75 688.15 54.8 689.55 55.1 Q691.7 55.6 693.45 57.05 695.3 58.5 695.15 60.9 694.95 63.1 693.25 64.3 691.55 65.5 689.5 65.9 L688.1 66.15 686.8 66.2 685.8 66.15 684.85 66.0 Q682.5 65.55 680.65 64.1 678.75 62.65 678.9 60.05 679.05 57.6 680.9 56.45 682.8 55.25 684.9 54.9 L685.95 54.8" fill="none" stroke="url(#gradient3)" stroke-linecap="round" stroke-linejoin="round" stroke-width="10.0"/>
    <path d="M823.7 37.0 L826.0 37.6 Q828.9 38.5 830.4 40.65 831.85 42.8 831.85 45.45 L831.7 47.25 831.2 49.1 830.75 50.35 830.15 52.05 830.0 52.5 829.85 52.95 829.3 54.9 829.05 56.4 829.05 56.6 829.1 56.85 829.35 56.9 829.85 56.9 830.6 56.8 831.3 56.5 833.4 54.8 835.25 52.45 836.55 50.5 837.4 48.95 841.1 50.7 Q838.35 56.35 834.5 60.3 830.65 64.25 823.65 64.25 L822.6 64.2 821.45 64.1 818.15 63.25 Q816.55 62.6 815.5 61.2 814.8 60.2 814.45 59.1 814.2 58.05 814.2 56.9 L814.2 55.85 814.35 54.85 815.0 52.4 815.8 50.05 816.1 49.25 816.65 47.9 816.85 47.25 817.05 46.5 817.35 45.35 817.45 44.4 817.2 43.35 Q816.95 42.95 816.35 42.95 815.0 42.95 813.8 44.15 812.65 45.4 811.75 46.8 L810.95 48.4 810.35 49.75 809.15 53.2 807.95 56.65 806.7 60.15 805.55 63.6 790.9 63.6 792.45 59.15 794.05 54.65 795.55 50.2 797.1 45.75 797.3 44.9 797.4 44.2 Q797.4 43.45 797.05 43.2 796.75 42.9 796.1 42.9 L795.35 43.0 Q794.95 43.1 794.55 43.35 L793.75 43.85 792.95 44.65 790.55 48.25 Q789.25 50.6 787.75 54.5 L787.3 55.9 786.2 59.0 785.3 61.85 784.75 63.6 770.9 63.6 771.65 61.5 769.3 61.9 767.2 61.6 765.3 60.7 Q762.45 63.1 758.55 64.45 754.65 65.75 750.6 66.0 L749.95 66.0 749.25 66.0 Q745.4 66.0 741.85 64.85 738.3 63.65 735.6 61.4 733.5 59.45 732.5 57.3 L732.1 57.8 Q730.05 60.5 726.2 62.35 723.9 63.4 721.1 63.95 L715.45 64.5 715.0 64.5 714.5 64.5 Q710.2 64.25 706.25 62.85 702.3 61.4 699.75 58.2 698.45 56.5 697.8 54.75 697.2 53.0 697.2 51.25 697.2 47.85 699.25 44.75 701.3 41.7 704.55 39.85 706.75 38.65 709.85 37.8 712.95 36.95 716.2 36.85 L717.0 36.75 717.75 36.75 723.05 37.4 Q725.6 38.05 727.45 39.7 728.35 40.6 728.95 41.8 729.55 43.05 729.7 44.4 L729.7 44.65 729.7 44.9 729.35 46.8 728.35 48.5 726.45 49.9 724.05 50.35 723.7 50.35 723.35 50.25 721.95 49.95 720.65 49.35 Q719.7 48.7 719.1 47.8 718.5 46.85 718.35 45.8 L718.35 45.7 718.35 45.45 718.25 45.3 718.25 45.15 Q718.25 43.45 719.4 42.2 720.5 40.95 722.15 40.5 L721.25 40.25 720.3 40.2 719.85 40.2 719.45 40.3 719.05 40.35 718.65 40.5 Q716.05 41.4 714.2 44.15 712.25 46.95 711.6 50.1 L711.4 51.55 711.35 52.95 Q711.4 55.85 712.9 57.95 714.35 60.05 717.75 60.05 723.45 60.05 727.0 56.9 729.7 54.5 731.7 51.3 732.05 48.65 733.65 46.2 735.7 43.05 739.1 40.8 742.1 38.9 745.75 37.75 749.45 36.7 753.4 36.7 L754.55 36.7 755.65 36.75 Q758.85 37.05 761.9 38.1 764.9 39.15 767.25 41.35 769.2 43.1 770.25 45.35 771.3 47.65 771.3 50.05 L771.15 51.8 770.7 53.65 772.5 53.05 774.05 51.75 774.95 50.65 775.85 49.05 775.9 49.1 779.85 37.65 793.7 37.65 793.1 39.3 Q794.8 38.25 796.9 37.55 799.0 36.85 801.15 36.7 L801.6 36.7 802.05 36.7 804.15 36.85 806.2 37.35 Q807.75 37.85 809.0 38.9 810.3 40.0 810.8 41.7 813.0 39.35 815.75 38.1 818.55 36.85 821.5 36.85 L823.7 37.0 M751.9 42.55 L751.15 43.35 Q749.45 45.3 748.45 47.9 747.4 50.4 746.95 53.1 L746.8 54.8 746.75 56.5 746.8 57.6 746.95 58.95 Q747.2 60.2 747.7 61.2 748.3 62.2 749.45 62.2 751.35 62.2 752.75 60.9 754.2 59.6 755.1 57.95 L755.55 57.3 755.9 56.55 Q754.75 55.75 754.1 54.55 753.45 53.3 753.45 51.9 L753.45 51.6 753.45 51.4 Q753.7 49.2 755.15 47.2 756.55 45.25 758.8 44.65 758.7 42.35 757.95 41.4 757.15 40.35 756.0 40.35 755.25 40.35 754.35 40.75 753.45 41.15 752.55 41.9 L751.9 42.55 M672.0 37.25 L672.7 47.3 Q673.15 55.2 667.55 59.3 662.0 63.5 655.25 64.15 L653.6 64.25 652.05 64.3 650.05 64.25 647.95 64.05 Q645.2 63.75 642.6 62.7 639.95 61.7 638.05 59.7 636.75 58.05 636.15 56.25 L635.75 54.75 631.5 59.85 Q626.6 64.8 617.55 64.8 L617.3 64.8 617.05 64.8 Q614.0 64.7 611.35 63.4 608.6 62.15 607.3 59.2 604.7 61.55 601.45 63.0 598.15 64.5 594.75 64.8 L593.95 64.9 593.05 64.9 Q589.75 64.8 586.65 63.55 583.6 62.35 581.15 59.35 579.35 57.2 578.6 54.85 L578.3 53.7 576.3 56.5 Q573.65 59.95 568.7 62.35 565.8 63.65 562.2 64.35 L554.95 65.1 554.35 65.1 553.75 65.1 Q548.25 64.8 543.15 63.0 538.1 61.1 534.85 57.05 533.7 55.55 532.95 54.0 L532.25 55.1 Q530.45 58.0 527.85 60.25 525.5 62.35 522.35 63.5 519.15 64.6 515.7 64.8 L515.3 64.8 514.9 64.8 512.0 64.6 509.3 63.95 Q505.65 62.7 504.15 60.1 503.0 58.15 502.75 55.85 L499.4 59.75 Q494.5 64.8 485.55 64.8 L484.4 64.75 483.2 64.7 Q480.95 64.4 478.85 63.6 476.75 62.7 475.35 60.8 474.4 59.5 474.0 58.05 473.6 56.65 473.6 55.15 L473.6 54.35 473.7 53.6 Q473.9 51.7 474.5 49.8 L475.7 46.3 476.05 45.4 476.65 43.85 477.0 42.95 477.25 42.05 477.55 40.65 477.7 39.4 Q477.7 38.5 477.35 38.0 477.05 37.5 476.15 37.5 474.5 37.5 472.95 38.95 471.45 40.4 470.4 42.15 L469.4 43.9 468.8 45.4 466.8 50.9 464.9 56.45 463.6 60.2 462.3 63.95 444.2 63.95 450.1 46.85 Q444.65 55.65 437.1 59.6 428.65 63.95 416.9 63.95 406.2 63.95 397.95 57.2 389.7 50.4 389.7 38.9 389.7 31.3 393.65 24.95 397.6 18.6 403.75 14.55 408.75 11.0 415.2 9.1 421.65 7.2 428.55 7.2 L430.8 7.25 433.05 7.4 Q436.9 7.7 440.65 8.8 444.4 9.85 447.35 12.55 448.9 13.85 449.55 15.5 450.2 17.15 450.2 18.9 450.2 22.4 447.65 25.3 445.1 28.2 441.05 28.3 438.6 28.4 436.8 27.5 L433.45 25.25 432.65 24.65 431.9 23.95 432.4 23.7 432.9 23.45 Q434.8 22.4 436.25 21.2 437.7 20.05 438.5 17.75 L438.75 17.05 438.8 16.35 Q438.8 14.7 437.5 13.85 436.15 13.0 434.25 13.0 429.15 13.0 425.2 17.1 421.2 21.15 418.4 26.1 L416.4 30.3 414.8 34.1 Q414.05 36.15 413.4 38.8 412.75 41.45 412.65 44.15 L412.65 44.65 412.65 45.15 Q412.65 48.65 414.0 51.7 415.4 54.75 419.05 56.1 L421.8 56.75 424.6 57.0 425.3 57.0 425.95 56.9 Q431.8 56.55 437.15 52.8 442.4 49.05 445.0 44.15 L445.2 43.8 445.4 43.5 445.55 43.15 445.75 42.8 450.85 44.7 462.15 11.8 480.4 11.8 473.15 32.7 Q475.15 31.6 477.55 30.85 479.95 30.0 482.55 29.7 L483.55 29.7 484.55 29.65 Q487.3 29.7 489.85 30.55 492.4 31.45 494.25 33.5 495.45 34.8 495.95 36.4 496.5 37.95 496.5 39.6 L496.35 41.45 495.8 43.25 495.2 45.2 494.5 47.25 493.75 49.2 493.15 51.2 493.0 51.6 492.8 52.1 492.6 52.65 492.4 53.3 492.35 53.75 492.35 54.25 492.55 55.05 Q492.8 55.4 493.45 55.4 L494.4 55.25 495.35 54.85 Q496.7 54.2 497.9 52.95 L500.2 50.4 501.4 48.5 502.3 46.75 502.45 46.4 502.65 45.9 502.85 45.5 503.05 45.15 504.55 45.9 506.85 39.1 509.85 30.45 514.45 30.45 519.15 30.45 523.8 30.45 528.45 30.45 527.25 33.95 526.05 37.35 523.65 44.25 521.3 51.2 520.85 52.6 520.65 53.9 Q520.65 54.45 521.1 54.85 L522.55 55.1 Q523.3 55.1 524.45 54.5 L526.85 52.75 Q528.55 51.05 529.6 49.15 L531.65 45.15 531.85 45.25 Q532.45 42.45 534.2 39.8 536.85 35.9 541.0 33.5 543.8 32.0 547.75 30.9 551.75 29.8 555.9 29.65 L556.95 29.55 557.9 29.55 564.7 30.35 Q567.95 31.2 570.3 33.35 571.5 34.45 572.2 36.0 573.0 37.6 573.2 39.3 L573.2 39.65 573.2 39.95 572.75 42.4 Q572.3 43.65 571.5 44.6 L569.05 46.4 Q567.6 46.95 565.95 46.95 L565.55 46.95 565.05 46.85 563.3 46.45 561.6 45.65 Q560.35 44.85 559.65 43.7 558.85 42.5 558.65 41.15 L558.65 41.0 558.65 40.7 558.55 40.5 558.55 40.35 Q558.55 38.15 560.0 36.55 561.45 34.9 563.5 34.35 L562.35 34.05 561.15 34.0 560.6 34.0 560.1 34.1 559.6 34.15 559.05 34.35 Q555.75 35.5 553.35 39.05 550.85 42.6 550.05 46.65 L549.75 48.5 549.65 50.3 Q549.75 54.0 551.65 56.7 553.55 59.4 557.9 59.4 565.25 59.4 569.75 55.4 574.3 51.35 577.25 45.4 L578.35 45.9 Q578.9 43.7 580.1 41.6 582.4 37.5 586.05 34.7 588.75 32.65 592.4 31.3 596.0 29.9 599.8 29.7 L600.6 29.65 601.4 29.65 Q604.4 29.65 607.3 30.5 610.1 31.45 612.4 33.35 L613.35 30.45 622.6 30.45 631.85 30.45 630.65 33.95 629.5 37.4 627.05 44.25 624.7 51.2 624.6 51.5 624.55 51.9 624.35 52.4 624.25 53.0 624.15 53.45 624.15 53.8 624.3 54.55 624.8 55.0 625.25 55.15 625.8 55.1 626.9 54.85 627.95 54.35 630.05 52.65 631.95 50.45 633.4 48.4 634.3 46.65 634.5 46.3 634.65 45.95 634.8 45.55 635.0 45.2 637.15 46.15 Q637.8 45.2 638.75 44.55 640.75 43.15 643.1 43.25 L643.6 43.25 644.1 43.25 644.5 43.3 645.0 43.45 653.45 31.65 671.35 27.15 672.0 37.25 M650.3 48.25 L650.55 50.1 650.25 51.9 649.35 53.55 Q648.45 54.9 646.8 55.75 645.2 56.55 643.5 56.55 L643.25 56.55 643.0 56.55 642.8 56.5 642.55 56.45 644.25 58.1 Q645.3 58.8 646.55 58.8 650.45 58.8 652.75 56.7 655.05 54.65 655.05 50.55 L655.15 44.75 655.15 39.0 649.45 46.6 Q650.05 47.3 650.3 48.25 M685.95 54.8 L686.9 54.75 688.15 54.8 689.55 55.1 Q691.7 55.6 693.45 57.05 695.3 58.5 695.15 60.9 694.95 63.1 693.25 64.3 691.55 65.5 689.5 65.9 L688.1 66.15 686.8 66.2 685.8 66.15 684.85 66.0 Q682.5 65.55 680.65 64.1 678.75 62.65 678.9 60.05 679.05 57.6 680.9 56.45 682.8 55.25 684.9 54.9 L685.95 54.8 M609.85 37.95 Q609.85 36.8 609.5 36.15 609.2 35.5 607.85 35.5 L606.9 35.6 605.95 35.9 Q604.15 36.6 602.35 38.5 600.55 40.4 599.1 42.6 L597.3 45.6 Q596.45 47.05 596.1 48.1 L595.75 49.05 595.35 50.55 594.95 51.95 594.65 53.45 Q594.45 54.0 594.4 54.65 L594.35 55.9 Q594.35 57.35 594.85 58.25 595.35 59.25 596.55 59.25 599.35 59.25 601.45 56.9 603.6 54.65 605.1 51.9 L606.5 49.2 607.55 46.75 609.3 41.65 Q609.85 39.5 609.85 37.95 M530.5 16.9 Q532.15 18.4 532.15 20.6 L532.05 21.2 531.95 21.9 Q531.35 23.7 529.85 24.9 528.35 26.1 526.65 26.65 L525.95 26.8 525.4 26.95 523.8 27.15 522.3 27.2 518.1 26.7 Q516.0 26.2 514.4 24.95 513.15 24.05 512.5 22.75 511.75 21.45 511.75 20.15 511.75 19.35 512.0 18.6 512.3 17.8 512.8 17.15 514.1 15.45 516.25 14.6 518.4 13.75 520.65 13.55 L521.2 13.55 521.7 13.55 523.8 13.7 525.75 14.15 526.35 14.35 526.85 14.55 Q528.85 15.35 530.5 16.9 M365.85 48.85 L365.25 50.45 364.95 51.95 366.65 51.75 368.4 51.35 Q370.95 50.65 373.1 49.1 375.25 47.55 375.3 44.8 375.3 43.6 374.7 43.15 374.05 42.7 372.95 42.65 370.45 42.55 368.6 44.5 366.75 46.45 365.85 48.85 M370.45 39.8 L373.2 39.9 375.75 40.4 376.1 40.5 376.45 40.6 Q378.45 41.15 380.15 42.5 381.9 43.85 381.95 46.15 382.1 49.8 378.9 51.9 375.75 54.0 371.9 54.95 L367.85 55.7 364.5 55.85 Q364.8 58.3 366.35 59.6 367.85 60.95 370.35 60.95 375.45 60.95 378.9 58.1 382.35 55.25 384.35 50.9 L387.7 52.45 Q386.0 55.85 383.9 58.6 381.8 61.4 378.1 63.15 375.85 64.15 373.4 64.65 L368.3 65.15 367.5 65.15 366.75 65.05 363.6 64.7 360.55 63.9 Q357.2 62.75 354.9 60.6 L354.15 61.35 Q350.7 64.9 344.25 64.9 342.05 64.9 340.0 64.05 338.05 63.15 337.05 61.0 335.2 63.0 332.65 64.05 330.1 65.05 327.5 65.05 324.95 64.95 322.6 64.05 320.25 63.1 318.5 61.05 317.35 59.75 316.75 58.3 316.15 56.85 315.95 55.35 L315.9 54.7 315.85 54.15 Q315.85 51.1 317.5 48.2 319.15 45.35 321.85 43.3 323.8 41.8 326.4 40.85 328.95 39.9 331.7 39.7 L332.3 39.7 332.85 39.7 337.15 40.3 Q339.25 40.9 340.95 42.35 L346.15 27.05 352.6 27.05 359.05 27.05 354.15 41.15 349.3 55.25 349.2 55.45 349.15 55.85 349.05 56.15 349.0 56.5 348.95 56.8 348.95 57.05 349.05 57.6 349.35 57.9 349.65 58.05 350.05 58.0 350.75 57.85 351.55 57.5 352.25 57.0 Q351.5 55.25 351.5 53.2 L351.7 51.25 352.2 49.3 Q353.55 45.2 357.7 42.95 361.85 40.7 366.5 40.05 L368.5 39.85 370.45 39.8 M330.9 48.9 L329.65 51.15 328.85 52.9 328.6 53.5 328.35 54.35 328.0 55.55 327.75 56.85 327.7 57.5 327.65 58.2 Q327.65 59.2 328.05 59.95 328.45 60.7 329.45 60.7 331.6 60.7 333.15 59.1 L335.65 55.65 336.5 54.05 337.15 52.6 337.45 51.8 337.85 50.6 338.2 49.5 338.45 48.3 338.6 47.4 338.6 46.55 Q338.6 45.5 338.25 44.75 337.85 44.05 336.65 44.05 L336.3 44.1 335.95 44.2 Q334.6 44.5 333.3 45.9 L330.9 48.9 M311.6 47.3 Q312.05 55.2 306.45 59.3 300.9 63.5 294.15 64.15 L292.5 64.25 290.95 64.3 288.95 64.25 286.85 64.05 Q284.1 63.75 281.5 62.7 278.85 61.7 276.95 59.7 275.75 58.2 275.2 56.6 L272.85 59.2 Q270.25 61.75 266.75 61.75 L264.05 61.35 Q262.75 60.9 261.65 60.25 257.95 63.3 252.95 65.0 248.0 66.7 242.75 67.0 L241.95 67.0 241.05 67.0 Q236.1 67.0 231.55 65.5 227.0 64.05 223.55 61.1 220.85 58.6 219.6 55.85 218.4 53.0 218.4 50.2 218.4 45.75 221.05 41.65 223.65 37.6 228.05 34.7 231.85 32.25 236.6 30.85 241.3 29.45 246.35 29.45 L247.85 29.5 249.3 29.55 Q253.35 29.9 257.25 31.25 261.15 32.65 264.1 35.4 266.65 37.7 268.0 40.55 269.35 43.5 269.35 46.6 L269.1 48.85 268.55 51.15 270.85 50.45 Q271.9 49.9 272.8 48.75 L273.95 47.3 275.15 45.3 276.3 45.8 Q276.85 45.1 277.65 44.55 279.65 43.15 282.0 43.25 L282.5 43.25 283.0 43.25 283.4 43.3 283.9 43.45 292.35 31.65 310.25 27.15 310.9 37.25 311.6 47.3 M289.2 48.25 L289.45 50.1 289.15 51.9 288.25 53.55 Q287.35 54.9 285.7 55.75 284.1 56.55 282.4 56.55 L282.15 56.55 281.9 56.55 281.7 56.5 281.45 56.45 283.15 58.1 Q284.2 58.8 285.45 58.8 289.35 58.8 291.65 56.7 293.95 54.65 293.95 50.55 L294.05 44.75 294.05 39.0 288.35 46.6 Q288.95 47.3 289.2 48.25 M249.7 34.15 Q248.7 34.15 247.6 34.7 246.45 35.2 245.3 36.15 L244.4 37.0 243.5 37.95 Q241.3 40.5 240.0 43.8 238.65 47.05 238.1 50.45 L237.95 52.7 237.85 54.85 237.9 56.25 238.1 58.0 Q238.4 59.6 239.1 60.85 239.85 62.15 241.3 62.15 243.7 62.15 245.55 60.5 247.4 58.8 248.55 56.7 L249.1 55.85 249.6 54.9 Q248.05 53.9 247.25 52.3 246.45 50.75 246.45 48.95 L246.45 48.55 246.45 48.3 Q246.75 45.45 248.6 42.9 250.45 40.4 253.25 39.7 253.15 36.7 252.2 35.45 251.2 34.15 249.7 34.15 M216.4 40.4 L213.0 50.4 209.45 60.4 206.05 70.4 Q203.85 76.85 197.4 81.0 190.9 85.15 183.65 86.15 L181.8 86.25 180.05 86.3 174.3 85.65 Q171.55 85.0 169.15 83.6 167.0 82.35 165.6 80.25 164.2 78.15 163.85 76.0 L163.7 75.05 163.65 74.2 Q163.75 71.8 165.2 69.9 166.6 68.05 169.8 67.4 L170.2 67.4 170.7 67.35 171.05 67.35 171.45 67.35 Q174.85 67.35 176.95 69.5 179.05 71.75 179.15 74.35 L179.15 74.5 179.15 74.65 Q179.15 76.55 177.9 78.3 176.75 80.05 174.15 80.9 L174.65 81.1 175.15 81.2 175.55 81.3 176.0 81.35 Q180.95 81.5 183.65 77.8 186.45 74.1 188.1 69.75 L189.35 66.15 190.45 63.0 187.8 63.9 185.1 64.4 183.75 64.55 182.45 64.6 Q176.35 64.6 171.7 60.85 168.65 58.4 167.65 54.45 L166.5 56.0 Q163.6 59.85 158.35 62.35 155.25 63.75 151.8 64.45 L144.7 65.1 143.6 65.1 142.55 65.0 138.1 64.5 133.8 63.4 Q128.3 61.5 124.75 57.6 123.45 56.15 122.65 54.55 120.7 57.6 118.0 59.85 115.4 62.05 112.1 63.2 108.85 64.4 104.55 64.4 100.45 64.4 97.45 62.5 94.4 60.6 93.75 56.35 90.5 59.8 86.2 62.15 81.9 64.5 77.0 64.5 71.85 64.5 69.45 61.4 67.0 58.35 67.0 54.25 67.0 52.85 67.3 51.4 67.6 50.0 68.05 48.65 L69.7 44.0 71.3 39.4 72.8 34.7 74.5 30.1 92.5 30.1 90.65 35.4 88.95 40.7 Q87.95 43.4 87.1 46.05 L85.2 51.3 85.0 52.15 84.85 52.95 Q84.85 53.5 85.2 53.9 85.5 54.25 86.35 54.25 87.3 54.25 88.65 53.55 90.05 52.85 91.65 50.85 93.75 48.5 95.25 45.3 L97.9 38.8 98.95 35.75 100.0 32.65 100.25 31.95 100.45 31.25 100.5 30.9 100.7 30.65 100.75 30.5 100.8 30.45 100.85 30.3 100.9 30.1 103.85 30.1 106.85 30.1 112.8 30.1 118.8 30.1 116.95 35.3 115.2 40.4 113.45 45.7 111.6 50.85 111.2 52.25 111.1 53.3 Q111.1 54.1 111.45 54.4 111.75 54.75 112.3 54.75 L113.55 54.45 115.0 53.8 115.95 53.0 116.9 52.3 Q118.7 50.65 119.8 48.8 L121.45 45.9 121.45 45.7 122.15 42.9 Q124.05 37.25 129.85 34.05 135.65 30.9 142.15 30.0 L144.95 29.7 147.65 29.65 151.55 29.8 155.1 30.45 155.6 30.65 156.1 30.8 Q158.9 31.55 161.3 33.45 163.7 35.35 163.8 38.5 163.95 43.65 159.55 46.6 155.1 49.55 149.75 50.85 L144.05 51.9 139.35 52.1 Q139.8 55.5 141.95 57.35 144.05 59.25 147.6 59.25 154.65 59.25 159.55 55.25 164.35 51.25 167.1 45.2 L167.65 45.45 Q169.0 40.0 173.8 35.8 180.55 29.85 188.6 29.1 L189.6 29.05 190.6 29.05 Q193.35 29.05 196.0 29.8 198.65 30.65 201.05 32.25 L201.7 30.35 219.8 30.35 216.4 40.4 M197.25 35.5 L196.95 35.35 196.7 35.35 196.35 35.2 196.0 35.2 Q195.15 35.2 194.2 35.7 L192.3 36.9 Q190.45 38.6 188.6 41.4 186.7 44.15 185.45 47.05 184.55 49.2 184.0 51.2 183.5 53.25 183.5 54.85 L183.6 56.15 183.95 57.35 Q184.3 58.0 184.8 58.3 185.2 58.6 185.85 58.6 189.75 58.6 192.15 55.25 194.6 51.8 196.0 47.65 L197.6 42.65 198.85 38.6 198.85 38.15 198.75 37.7 198.35 36.4 Q198.0 35.8 197.25 35.5 M140.0 46.65 L142.35 46.4 144.8 45.85 Q148.4 44.85 151.4 42.7 154.4 40.5 154.5 36.6 154.5 35.0 153.65 34.35 152.75 33.7 151.2 33.6 147.65 33.5 145.1 36.25 142.55 39.0 141.25 42.3 140.7 43.5 140.45 44.6 L140.0 46.65 M75.9 8.4 L68.1 31.2 60.25 54.0 Q56.25 65.3 46.15 72.15 36.0 79.05 24.3 79.05 L20.35 78.8 16.35 78.1 15.75 77.9 15.1 77.8 Q11.35 76.7 8.2 74.25 5.0 71.8 5.0 67.85 L5.1 66.8 5.3 65.65 Q6.1 62.75 8.5 61.1 10.95 59.5 13.7 59.5 15.4 59.5 17.05 60.1 18.7 60.75 20.05 62.05 L21.75 63.65 20.95 64.05 20.05 64.4 17.05 66.6 Q15.7 67.85 15.8 69.85 L15.8 70.15 15.8 70.4 Q16.0 72.0 17.2 72.8 18.45 73.55 19.95 73.65 23.3 73.8 26.15 70.95 29.05 68.05 31.05 64.5 L32.95 60.95 34.2 57.8 37.4 48.7 40.45 39.7 43.65 30.6 46.7 21.55 46.9 21.0 47.1 20.5 47.45 19.0 47.85 17.5 48.0 16.35 48.05 15.25 Q48.05 13.7 47.35 12.55 46.6 11.45 44.5 11.45 39.95 11.45 36.15 15.35 32.3 19.3 31.45 23.95 L31.3 25.05 31.25 26.2 31.4 28.05 31.9 29.8 Q32.75 32.0 34.25 32.7 35.7 33.45 37.6 33.9 L38.2 34.05 38.8 34.15 38.25 34.75 37.7 35.4 35.7 37.35 33.35 38.9 30.95 39.75 28.75 39.95 Q24.8 39.95 22.1 36.85 19.4 33.8 19.15 29.25 19.1 27.65 19.45 26.0 19.8 24.4 20.45 22.7 24.15 13.3 33.25 9.55 42.35 5.8 52.55 5.5 L53.6 5.5 54.55 5.5 65.95 6.3 Q71.45 7.1 75.9 8.4" fill="#ffffff" fill-rule="evenodd" stroke="none"/>
  </g>
  <defs>
    <linearGradient gradientTransform="matrix(0.0, 0.0242, -0.024, 0.0, 769.1, 51.35)" gradientUnits="userSpaceOnUse" id="gradient0" spreadMethod="pad" x1="-819.2" x2="819.2">
      <stop offset="0.0" stop-color="#cb018e"/>
      <stop offset="1.0" stop-color="#78016b"/>
    </linearGradient>
    <linearGradient gradientTransform="matrix(0.0, 0.0135, -0.0194, 0.0, 752.8, 51.3)" gradientUnits="userSpaceOnUse" id="gradient1" spreadMethod="pad" x1="-819.2" x2="819.2">
      <stop offset="0.0" stop-color="#cb018e"/>
      <stop offset="1.0" stop-color="#78016b"/>
    </linearGradient>
    <linearGradient gradientTransform="matrix(0.0, 0.0294, -0.05, 0.0, 351.8, 46.1)" gradientUnits="userSpaceOnUse" id="gradient2" spreadMethod="pad" x1="-819.2" x2="819.2">
      <stop offset="0.0" stop-color="#ef019d"/>
      <stop offset="1.0" stop-color="#5a015f"/>
    </linearGradient>
    <linearGradient gradientTransform="matrix(0.0, 0.016, -0.0131, 0.0, 687.0, 60.45)" gradientUnits="userSpaceOnUse" id="gradient3" spreadMethod="pad" x1="-819.2" x2="819.2">
      <stop offset="0.0" stop-color="#cb018e"/>
      <stop offset="1.0" stop-color="#78016b"/>
    </linearGradient>
  </defs>
</svg>
