<?xml version="1.0" encoding="UTF-8" standalone="no"?>
<svg xmlns:xlink="http://www.w3.org/1999/xlink" height="42.0px" width="32.0px" xmlns="http://www.w3.org/2000/svg">
  <g transform="matrix(1.0, 0.0, 0.0, 1.0, 1.0, 11.0)">
    <path d="M10.1 -9.35 L10.1 -10.0 19.15 -10.0 19.15 -9.35 19.95 -9.35 20.5 -8.95 22.05 -8.95 22.65 -8.5 24.55 -8.5 26.2 -7.25 27.2 -7.25 29.9 -5.3 29.95 15.0 30.0 15.05 29.95 15.05 29.95 21.3 29.9 21.25 29.9 30.0 20.25 30.0 20.25 21.25 9.7 21.25 9.7 30.0 0.0 30.0 0.0 -5.6 1.95 -7.25 2.9 -7.25 4.45 -8.5 6.4 -8.5 6.9 -8.95 8.55 -8.95 9.05 -9.35 10.1 -9.35" fill="#d79a21" fill-rule="evenodd" stroke="none"/>
    <path d="M10.1 -9.35 L10.1 -10.0 19.15 -10.0 19.15 -9.35 19.95 -9.35 20.5 -8.95 22.05 -8.95 22.65 -8.5 24.55 -8.5 26.2 -7.25 27.2 -7.25 29.9 -5.3 29.95 15.0 30.0 15.05 29.95 15.05 29.95 21.3 29.9 21.25 29.9 30.0 20.25 30.0 20.25 21.25 9.7 21.25 9.7 30.0 0.0 30.0 0.0 -5.6 1.95 -7.25 2.9 -7.25 4.45 -8.5 6.4 -8.5 6.9 -8.95 8.55 -8.95 9.05 -9.35 10.1 -9.35 Z" fill="none" stroke="#660000" stroke-linecap="round" stroke-linejoin="round" stroke-width="2.0"/>
    <path d="M29.9 14.9 L30.0 15.05 29.9 15.05 29.9 14.9" fill="#f5ba4a" fill-rule="evenodd" stroke="none"/>
    <path d="M15.35 18.9 L15.55 18.85 15.55 18.95 15.5 19.0 15.4 19.0 15.35 18.9" fill="#cb8300" fill-rule="evenodd" stroke="none"/>
    <path d="M27.2 -7.25 L29.9 -5.3 29.95 21.3 27.2 15.7 27.2 -7.25 M0.0 21.05 L0.0 -5.6 1.95 -7.25 1.95 15.7 0.0 21.05" fill="#af7023" fill-rule="evenodd" stroke="none"/>
    <path d="M1.95 -7.25 L27.2 -7.25 27.2 15.7 1.95 15.7 1.95 -7.25" fill="#f5c463" fill-rule="evenodd" stroke="none"/>
    <path d="M29.95 21.3 L29.9 21.25 0.0 21.25 0.0 21.05 1.95 15.7 27.2 15.7 29.95 21.3" fill="#aa7715" fill-rule="evenodd" stroke="none"/>
    <path d="M24.55 -8.5 L26.65 -6.9 26.65 14.15 26.4 14.15 24.55 9.8 24.55 -8.5 M2.9 14.0 L2.9 -7.25 4.45 -8.5 4.45 9.8 2.9 14.0" fill="#bd8126" fill-rule="evenodd" stroke="none"/>
    <path d="M4.45 -8.5 L24.55 -8.5 24.55 9.8 4.45 9.8 4.45 -8.5" fill="#ffd073" fill-rule="evenodd" stroke="none"/>
    <path d="M26.4 14.15 L2.9 14.15 2.9 14.0 4.45 9.8 24.55 9.8 26.4 14.15" fill="#cb9630" fill-rule="evenodd" stroke="none"/>
    <path d="M5.65 9.7 L6.55 9.7 6.55 14.1 5.65 14.1 5.65 9.7" fill="#ffc55b" fill-rule="evenodd" stroke="none"/>
    <path d="M23.55 9.8 L23.55 14.2 22.6 14.2 22.6 9.8 23.55 9.8" fill="#ffc55b" fill-rule="evenodd" stroke="none"/>
    <path d="M14.65 14.2 L14.65 9.85 15.6 9.85 15.6 14.2 14.65 14.2" fill="#ffc55b" fill-rule="evenodd" stroke="none"/>
    <path d="M22.0 -8.95 L23.6 -7.75 23.6 8.15 23.45 8.15 22.0 4.8 22.0 -8.95 M5.75 8.0 L5.75 -8.0 6.9 -8.95 6.9 4.8 5.75 8.0" fill="#d79531" fill-rule="evenodd" stroke="none"/>
    <path d="M6.9 -8.95 L22.0 -8.95 22.0 4.8 6.9 4.8 6.9 -8.95" fill="#ffd583" fill-rule="evenodd" stroke="none"/>
    <path d="M23.45 8.15 L5.75 8.15 5.75 8.0 6.9 4.8 22.0 4.8 23.45 8.15" fill="#e0aa46" fill-rule="evenodd" stroke="none"/>
    <path d="M10.8 8.15 L10.8 4.8 11.75 4.8 11.75 8.15 10.8 8.15" fill="#ffc55b" fill-rule="evenodd" stroke="none"/>
    <path d="M18.05 4.8 L18.95 4.8 18.95 8.15 18.05 8.15 18.05 4.8" fill="#ffc55b" fill-rule="evenodd" stroke="none"/>
    <path d="M19.9 -9.35 L21.05 -8.5 21.05 2.95 20.95 2.95 19.9 0.55 19.9 -9.35 M8.15 2.85 L8.15 -8.75 9.0 -9.35 9.0 0.55 8.15 2.85" fill="#e09c35" fill-rule="evenodd" stroke="none"/>
    <path d="M9.0 -9.35 L19.9 -9.35 19.9 0.55 14.9 0.55 14.0 0.55 9.0 0.55 9.0 -9.35" fill="#fcd994" fill-rule="evenodd" stroke="none"/>
    <path d="M14.9 2.95 L14.0 2.95 14.0 0.55 14.9 0.55 14.9 2.95" fill="#ffc55b" fill-rule="evenodd" stroke="none"/>
    <path d="M20.95 2.95 L14.9 2.95 14.9 0.55 19.9 0.55 20.95 2.95 M14.0 2.95 L8.15 2.95 8.15 2.85 9.0 0.55 14.0 0.55 14.0 2.95" fill="#ecb54e" fill-rule="evenodd" stroke="none"/>
    <path d="M10.05 -0.95 L14.55 -9.15 19.1 -0.95 10.05 -0.95" fill="#f5bc51" fill-rule="evenodd" stroke="none"/>
    <path d="M10.05 -0.95 L10.05 -10.0 14.55 -9.15 10.05 -0.95 M19.1 -10.0 L19.1 -0.95 14.55 -9.15 19.1 -10.0" fill="#e09c35" fill-rule="evenodd" stroke="none"/>
    <path d="M14.55 -9.15 L10.05 -10.0 19.1 -10.0 14.55 -9.15" fill="#bd8126" fill-rule="evenodd" stroke="none"/>
    <path d="M11.8 21.25 L10.8 21.25 10.8 15.8 18.95 15.8 18.95 21.25 17.95 21.25 17.95 16.9 11.8 16.95 11.8 21.25" fill="#7e5100" fill-rule="evenodd" stroke="none"/>
    <path d="M17.95 21.25 L11.8 21.25 11.8 16.95 17.95 16.9 17.95 21.25" fill="#4d3100" fill-rule="evenodd" stroke="none"/>
    <path d="M9.05 19.75 L0.55 19.75 0.55 28.4 9.05 28.4 9.05 19.75 M0.0 28.85 L0.0 19.25 9.7 19.25 9.7 28.85 0.0 28.85" fill="#db9208" fill-rule="evenodd" stroke="none"/>
    <path d="M9.05 19.75 L9.05 28.4 0.55 28.4 0.55 19.75 9.05 19.75" fill="#ffc558" fill-rule="evenodd" stroke="none"/>
    <path d="M9.7 28.85 L9.7 30.0 0.0 30.0 0.0 28.85 9.7 28.85" fill="#b67600" fill-rule="evenodd" stroke="none"/>
    <path d="M1.1 24.05 Q1.1 22.65 2.2 21.7 3.3 20.7 4.9 20.7 6.45 20.7 7.55 21.7 8.65 22.65 8.65 24.05 8.65 25.4 7.55 26.4 6.45 27.35 4.9 27.35 3.3 27.35 2.2 26.4 1.1 25.4 1.1 24.05" fill="#955b18" fill-rule="evenodd" stroke="none"/>
    <path d="M1.1 23.4 Q1.1 22.0 2.2 21.1 3.3 20.15 4.9 20.15 6.45 20.15 7.55 21.1 8.65 22.0 8.65 23.4 8.65 24.75 7.55 25.7 6.45 26.75 4.9 26.75 3.3 26.75 2.2 25.7 1.1 24.75 1.1 23.4" fill="#de9a18" fill-rule="evenodd" stroke="none"/>
    <path d="M1.35 23.3 Q1.35 22.0 2.35 21.1 3.4 20.25 4.85 20.25 6.3 20.25 7.35 21.1 8.3 22.0 8.3 23.3 8.3 24.5 7.35 25.4 6.3 26.3 4.85 26.3 3.4 26.3 2.35 25.4 1.35 24.5 1.35 23.3" fill="#ffc04a" fill-rule="evenodd" stroke="none"/>
    <path d="M6.15 19.45 L8.1 19.45 8.1 23.25 8.1 23.55 Q8.0 24.5 7.15 25.2 L6.2 25.75 6.15 19.45" fill="#af7101" fill-rule="evenodd" stroke="none"/>
    <path d="M3.65 25.75 Q3.2 25.6 2.75 25.25 L2.65 25.2 Q1.8 24.5 1.65 23.55 L1.65 19.45 3.7 19.45 3.65 25.75" fill="#f59f02" fill-rule="evenodd" stroke="none"/>
    <path d="M6.2 25.75 L5.85 25.85 4.95 25.95 4.1 25.9 3.7 25.75 3.65 25.75 3.7 19.45 6.15 19.45 6.2 25.75" fill="#cb8300" fill-rule="evenodd" stroke="none"/>
    <path d="M2.2 21.95 Q1.1 21.05 1.1 19.7 1.1 18.5 2.2 17.65 3.3 16.75 4.8 16.75 6.25 16.75 7.4 17.65 8.45 18.5 8.45 19.7 8.45 21.05 7.4 21.95 6.25 22.85 4.8 22.85 3.3 22.85 2.2 21.95" fill="#d29011" fill-rule="evenodd" stroke="none"/>
    <path d="M2.35 21.25 Q1.35 20.4 1.35 19.15 1.35 18.0 2.35 17.2 3.4 16.35 4.8 16.35 6.2 16.35 7.25 17.2 8.25 18.0 8.25 19.15 8.25 20.4 7.25 21.25 6.2 22.1 4.8 22.1 3.4 22.1 2.35 21.25" fill="#fab22b" fill-rule="evenodd" stroke="none"/>
    <path d="M7.65 14.35 Q8.85 15.55 8.85 17.15 8.85 18.85 7.65 20.0 6.55 21.2 4.9 21.2 3.25 21.2 2.0 20.0 0.9 18.85 0.9 17.15 0.9 15.55 2.0 14.35 3.25 13.2 4.9 13.2 6.55 13.2 7.65 14.35" fill="#a36800" fill-rule="evenodd" stroke="none"/>
    <path d="M6.45 14.4 Q7.4 15.3 7.4 16.55 7.4 17.8 6.45 18.6 5.65 19.55 4.4 19.55 3.15 19.55 2.25 18.6 1.4 17.8 1.4 16.55 1.4 15.3 2.25 14.4 3.15 13.5 4.4 13.5 5.65 13.5 6.45 14.4" fill="#d08703" fill-rule="evenodd" stroke="none"/>
    <path d="M5.55 15.85 Q5.55 16.6 4.95 17.1 4.55 17.65 3.75 17.65 2.95 17.65 2.45 17.1 1.9 16.6 1.9 15.85 1.9 15.1 2.45 14.55 2.95 14.05 3.75 14.05 4.55 14.05 4.95 14.55 5.55 15.1 5.55 15.85" fill="#ecad3c" fill-rule="evenodd" stroke="none"/>
    <path d="M4.0 15.95 L3.4 16.25 2.75 15.95 2.5 15.35 Q2.5 14.95 2.75 14.7 3.0 14.4 3.4 14.4 3.75 14.4 4.0 14.7 L4.25 15.35 4.0 15.95" fill="#faecd3" fill-rule="evenodd" stroke="none"/>
    <path d="M29.25 19.75 L20.75 19.75 20.75 28.4 29.25 28.4 29.25 19.75 M20.2 28.85 L20.2 19.25 29.9 19.25 29.9 28.85 20.2 28.85" fill="#db9208" fill-rule="evenodd" stroke="none"/>
    <path d="M29.25 19.75 L29.25 28.4 20.75 28.4 20.75 19.75 29.25 19.75" fill="#ffc558" fill-rule="evenodd" stroke="none"/>
    <path d="M29.9 28.85 L29.9 30.0 20.2 30.0 20.2 28.85 29.9 28.85" fill="#b67600" fill-rule="evenodd" stroke="none"/>
    <path d="M27.75 26.4 Q26.65 27.35 25.1 27.35 23.5 27.35 22.4 26.4 21.3 25.4 21.3 24.05 21.3 22.65 22.4 21.7 23.5 20.7 25.1 20.7 26.65 20.7 27.75 21.7 28.85 22.65 28.85 24.05 28.85 25.4 27.75 26.4" fill="#955b18" fill-rule="evenodd" stroke="none"/>
    <path d="M27.75 25.7 Q26.65 26.75 25.1 26.75 23.5 26.75 22.4 25.7 21.3 24.75 21.3 23.4 21.3 22.0 22.4 21.1 23.5 20.15 25.1 20.15 26.65 20.15 27.75 21.1 28.85 22.0 28.85 23.4 28.85 24.75 27.75 25.7" fill="#de9a18" fill-rule="evenodd" stroke="none"/>
    <path d="M27.55 25.4 Q26.5 26.3 25.05 26.3 23.6 26.3 22.55 25.4 21.55 24.5 21.55 23.3 21.55 22.0 22.55 21.1 23.6 20.25 25.05 20.25 26.5 20.25 27.55 21.1 28.5 22.0 28.5 23.3 28.5 24.5 27.55 25.4" fill="#ffc04a" fill-rule="evenodd" stroke="none"/>
    <path d="M26.35 19.45 L28.3 19.45 28.3 23.25 28.3 23.55 Q28.2 24.5 27.35 25.2 L26.4 25.75 26.35 19.45" fill="#af7101" fill-rule="evenodd" stroke="none"/>
    <path d="M23.85 25.75 L22.95 25.25 22.85 25.2 Q22.0 24.5 21.85 23.55 L21.85 19.45 23.9 19.45 23.85 25.75" fill="#f59f02" fill-rule="evenodd" stroke="none"/>
    <path d="M26.4 25.75 L26.05 25.85 25.15 25.95 24.3 25.9 23.9 25.75 23.85 25.75 23.9 19.45 26.35 19.45 26.4 25.75" fill="#cb8300" fill-rule="evenodd" stroke="none"/>
    <path d="M21.3 19.7 Q21.3 18.5 22.4 17.65 23.5 16.75 25.0 16.75 26.45 16.75 27.6 17.65 28.65 18.5 28.65 19.7 28.65 21.05 27.6 21.95 26.45 22.85 25.0 22.85 23.5 22.85 22.4 21.95 21.3 21.05 21.3 19.7" fill="#d29011" fill-rule="evenodd" stroke="none"/>
    <path d="M21.55 19.15 Q21.55 18.0 22.55 17.2 23.6 16.35 25.0 16.35 26.4 16.35 27.45 17.2 28.45 18.0 28.45 19.15 28.45 20.4 27.45 21.25 26.4 22.1 25.0 22.1 23.6 22.1 22.55 21.25 21.55 20.4 21.55 19.15" fill="#fab22b" fill-rule="evenodd" stroke="none"/>
    <path d="M29.05 17.15 Q29.05 18.85 27.85 20.0 26.75 21.2 25.1 21.2 23.45 21.2 22.2 20.0 21.1 18.85 21.1 17.15 21.1 15.55 22.2 14.35 23.45 13.2 25.1 13.2 26.75 13.2 27.85 14.35 29.05 15.55 29.05 17.15" fill="#a36800" fill-rule="evenodd" stroke="none"/>
    <path d="M27.6 16.55 Q27.6 17.8 26.65 18.6 25.85 19.55 24.6 19.55 23.35 19.55 22.45 18.6 21.6 17.8 21.6 16.55 21.6 15.3 22.45 14.4 23.35 13.5 24.6 13.5 25.85 13.5 26.65 14.4 27.6 15.3 27.6 16.55" fill="#d08703" fill-rule="evenodd" stroke="none"/>
    <path d="M25.15 17.1 Q24.75 17.65 23.95 17.65 23.15 17.65 22.65 17.1 22.1 16.6 22.1 15.85 22.1 15.1 22.65 14.55 23.15 14.05 23.95 14.05 24.75 14.05 25.15 14.55 25.75 15.1 25.75 15.85 25.75 16.6 25.15 17.1" fill="#ecad3c" fill-rule="evenodd" stroke="none"/>
    <path d="M23.6 16.25 Q23.2 16.25 22.95 15.95 22.7 15.7 22.7 15.35 22.7 14.95 22.95 14.7 23.2 14.4 23.6 14.4 23.95 14.4 24.2 14.7 L24.45 15.35 24.2 15.95 23.6 16.25" fill="#faecd3" fill-rule="evenodd" stroke="none"/>
  </g>
</svg>
