<?xml version="1.0" encoding="UTF-8" standalone="no"?>
<svg xmlns:xlink="http://www.w3.org/1999/xlink" height="42.05px" width="31.85px" xmlns="http://www.w3.org/2000/svg">
  <g transform="matrix(1.0, 0.0, 0.0, 1.0, 0.85, 11.0)">
    <path d="M8.0 -9.45 Q15.1 -10.55 22.15 -9.45 L23.1 -9.45 23.6 -9.4 24.2 -9.45 24.75 -9.4 25.6 -9.3 Q26.75 -9.0 27.75 -8.3 L28.0 -8.1 Q29.5 -6.85 29.5 -5.1 L29.5 -4.55 29.5 -4.35 29.5 -4.25 29.5 -4.2 29.5 -4.05 29.5 -3.7 29.55 -2.05 29.55 -1.45 29.55 1.2 29.55 4.6 29.55 5.2 29.55 6.0 29.5 6.0 29.5 6.25 Q29.5 8.1 28.2 9.3 30.0 11.9 30.0 15.25 L29.95 16.45 30.0 17.6 Q30.0 22.7 25.65 26.5 21.3 30.05 15.2 30.05 8.9 30.05 4.55 26.5 0.15 22.7 0.15 17.6 L0.2 16.45 0.15 15.25 Q0.15 11.8 2.1 9.15 0.85 7.95 0.85 6.25 L0.85 6.1 0.8 6.1 0.8 5.25 0.8 4.65 0.8 4.3 0.85 1.2 0.85 0.95 0.85 0.0 0.85 -1.45 0.85 -2.05 0.85 -3.7 0.85 -4.2 0.85 -4.25 0.85 -4.35 0.9 -4.55 0.9 -4.7 0.85 -5.1 Q0.85 -6.85 2.45 -8.1 L2.6 -8.2 Q3.5 -8.9 4.6 -9.15 L6.3 -9.45 6.85 -9.4 7.4 -9.45 8.0 -9.45" fill="#eebb80" fill-rule="evenodd" stroke="none"/>
    <path d="M8.0 -9.45 Q15.1 -10.55 22.15 -9.45 L23.1 -9.45 23.6 -9.4 24.2 -9.45 24.75 -9.4 25.6 -9.3 Q26.75 -9.0 27.75 -8.3 L28.0 -8.1 Q29.5 -6.85 29.5 -5.1 L29.5 -4.55 29.5 -4.35 29.5 -4.25 29.5 -4.2 29.5 -4.05 29.5 -3.7 29.55 -2.05 29.55 -1.45 29.55 1.2 29.55 4.6 29.55 5.2 29.55 6.0 29.5 6.0 29.5 6.25 Q29.5 8.1 28.2 9.3 30.0 11.9 30.0 15.25 L29.95 16.45 30.0 17.6 Q30.0 22.7 25.65 26.5 21.3 30.05 15.2 30.05 8.9 30.05 4.55 26.5 0.15 22.7 0.15 17.6 L0.2 16.45 0.15 15.25 Q0.15 11.8 2.1 9.15 0.85 7.95 0.85 6.25 L0.85 6.1 0.8 6.1 0.8 5.25 0.8 4.65 0.8 4.3 0.85 1.2 0.85 0.95 0.85 0.0 0.85 -1.45 0.85 -2.05 0.85 -3.7 0.85 -4.2 0.85 -4.25 0.85 -4.35 0.9 -4.55 0.9 -4.7 0.85 -5.1 Q0.85 -6.85 2.45 -8.1 L2.6 -8.2 Q3.5 -8.9 4.6 -9.15 L6.3 -9.45 6.85 -9.4 7.4 -9.45 8.0 -9.45 Z" fill="none" stroke="#513900" stroke-linecap="round" stroke-linejoin="round" stroke-width="2.0"/>
    <path d="M30.0 17.3 Q30.0 22.3 25.65 26.1 21.25 29.65 15.15 29.65 11.95 29.65 9.3 28.75 6.6 27.85 4.45 26.1 L3.2 24.95 Q0.0 21.55 0.0 17.3 0.0 12.1 4.45 8.6 8.8 4.85 15.15 4.85 21.25 4.85 25.65 8.6 30.0 12.1 30.0 17.3" fill="#634c3c" fill-rule="evenodd" stroke="none"/>
    <path d="M4.45 23.45 Q0.0 19.9 0.0 14.9 0.0 9.75 4.45 6.35 8.8 2.85 15.15 2.85 21.25 2.85 25.65 6.35 30.0 9.75 30.0 14.9 30.0 19.9 25.65 23.45 21.25 27.4 15.15 27.4 8.8 27.4 4.45 23.45" fill="#98816c" fill-rule="evenodd" stroke="none"/>
    <path d="M5.0 22.3 Q1.0 19.0 1.0 14.5 1.0 9.75 5.0 6.35 9.15 3.15 14.95 3.15 20.7 3.15 24.85 6.35 28.6 9.75 28.6 14.5 28.6 19.0 24.85 22.3 20.7 25.65 14.95 25.65 9.15 25.65 5.0 22.3" fill="#c5b4a0" fill-rule="evenodd" stroke="none"/>
    <path d="M23.05 8.2 Q26.3 10.85 26.3 14.75 26.3 18.5 23.05 21.3 19.75 24.0 15.2 24.0 10.45 24.0 7.15 21.3 3.9 18.5 3.9 14.75 3.9 10.85 7.15 8.2 10.45 5.45 15.2 5.45 19.75 5.45 23.05 8.2" fill="#98816c" fill-rule="evenodd" stroke="none"/>
    <path d="M23.05 6.95 Q26.25 9.45 26.25 13.25 26.25 16.95 23.05 19.55 19.85 22.45 15.3 22.45 10.7 22.45 7.45 19.55 4.25 16.95 4.25 13.25 4.25 9.45 7.45 6.95 10.7 4.35 15.3 4.35 19.85 4.35 23.05 6.95" fill="#e9d5bc" fill-rule="evenodd" stroke="none"/>
    <path d="M22.9 0.15 L25.7 0.15 25.7 12.45 25.7 13.45 Q25.4 16.3 22.9 18.45 L22.9 0.15" fill="#634c3c" fill-rule="evenodd" stroke="none"/>
    <path d="M22.9 18.45 L22.55 18.75 Q21.1 19.9 19.45 20.55 L19.45 0.15 22.9 0.15 22.9 18.45" fill="#7d6759" fill-rule="evenodd" stroke="none"/>
    <path d="M19.45 20.55 L18.3 20.9 15.35 21.2 15.1 21.2 15.1 0.15 19.45 0.15 19.45 20.55" fill="#98816c" fill-rule="evenodd" stroke="none"/>
    <path d="M15.1 21.2 L12.55 21.05 Q11.9 20.9 11.25 20.55 L11.1 20.55 10.7 20.4 10.7 0.15 15.1 0.15 15.1 21.2" fill="#c5b4a0" fill-rule="evenodd" stroke="none"/>
    <path d="M7.4 18.4 Q5.0 16.25 4.55 13.45 L4.55 0.15 7.4 0.15 7.4 18.4" fill="#917a63" fill-rule="evenodd" stroke="none"/>
    <path d="M10.7 20.4 L8.15 18.95 7.8 18.75 7.4 18.4 7.4 0.15 10.7 0.15 10.7 20.4" fill="#a7927d" fill-rule="evenodd" stroke="none"/>
    <path d="M8.05 -8.25 L6.2 -8.3 4.65 -8.0 4.65 -9.15 6.35 -9.45 6.9 -9.4 7.45 -9.45 8.05 -9.45 8.05 -8.25 M4.65 2.95 L6.2 2.65 8.05 2.7 8.05 4.05 6.25 4.0 4.65 4.35 4.65 2.95" fill="#eedecd" fill-rule="evenodd" stroke="none"/>
    <path d="M4.65 -8.0 L6.2 -8.3 8.05 -8.25 8.05 2.7 6.2 2.65 4.65 2.95 4.65 -8.0 M22.25 2.85 L22.25 -8.15 24.6 -8.15 25.75 -7.95 25.75 3.0 24.6 2.85 22.25 2.85" fill="#e0bda6" fill-rule="evenodd" stroke="none"/>
    <path d="M8.05 -8.25 L8.05 -9.45 Q15.2 -10.55 22.25 -9.45 L22.25 -8.15 Q15.35 -9.3 8.05 -8.25 M8.05 4.05 L8.05 2.7 Q15.25 1.55 22.25 2.85 L22.25 4.1 Q15.45 2.7 8.05 4.05" fill="#fffbf7" fill-rule="evenodd" stroke="none"/>
    <path d="M4.65 -9.15 L4.65 -8.0 3.7 -7.55 2.45 -6.75 2.45 -8.15 2.6 -8.2 Q3.55 -8.95 4.65 -9.15 M2.45 4.2 Q3.1 3.65 3.7 3.4 L4.65 2.95 4.65 4.35 Q4.15 4.5 3.75 4.8 3.0 5.0 2.45 5.5 L2.45 4.2 M25.75 -7.95 L25.75 -9.3 Q26.9 -9.0 27.9 -8.3 L27.9 -7.0 25.75 -7.95 M25.75 3.0 Q26.85 3.25 27.9 4.0 L27.9 5.35 Q26.9 4.6 25.75 4.35 L25.75 3.0" fill="#e7d4c1" fill-rule="evenodd" stroke="none"/>
    <path d="M4.65 -8.0 L4.65 2.95 3.7 3.4 Q3.1 3.65 2.45 4.2 L2.45 -6.75 3.7 -7.55 4.65 -8.0 M25.75 -7.95 L27.9 -7.0 27.9 4.0 Q26.85 3.25 25.75 3.0 L25.75 -7.95" fill="#b69885" fill-rule="evenodd" stroke="none"/>
    <path d="M2.45 -8.15 L2.45 -6.75 2.0 -6.35 Q1.2 -5.65 0.9 -4.75 L0.85 -5.1 Q0.85 -6.85 2.45 -8.15 M29.65 -4.4 Q29.35 -5.75 28.1 -6.8 L27.9 -7.0 27.9 -8.3 28.15 -8.15 Q29.65 -6.85 29.65 -5.1 L29.65 -4.6 29.65 -4.4 M29.7 6.85 L29.7 7.45 29.7 8.25 29.65 8.2 Q29.55 6.6 28.15 5.5 L27.9 5.35 27.9 4.0 28.1 4.1 Q29.5 5.25 29.7 6.85 M0.8 8.35 L0.8 7.5 0.8 6.9 0.8 6.55 Q1.05 5.5 2.0 4.6 2.25 4.35 2.45 4.2 L2.45 5.5 Q1.0 6.65 0.85 8.25 L0.8 8.35" fill="#e0cdb9" fill-rule="evenodd" stroke="none"/>
    <path d="M0.9 -4.75 Q1.2 -5.65 2.0 -6.35 L2.45 -6.75 2.45 4.2 Q2.25 4.35 2.0 4.6 1.05 5.5 0.8 6.55 L0.85 2.1 0.85 -0.2 0.85 -1.5 0.85 -2.8 0.85 -3.8 0.85 -4.4 0.9 -4.6 0.9 -4.75 M27.9 -7.0 L28.1 -6.8 Q29.35 -5.75 29.65 -4.4 L29.65 -3.8 29.65 -2.9 29.65 -2.8 29.65 -1.5 29.65 -0.2 29.65 2.1 29.7 6.85 Q29.5 5.25 28.1 4.1 L27.9 4.0 27.9 -7.0" fill="#957e6f" fill-rule="evenodd" stroke="none"/>
    <path d="M22.25 -8.15 L22.25 -9.45 23.2 -9.45 23.75 -9.4 24.35 -9.45 24.9 -9.4 25.75 -9.3 25.75 -7.95 24.6 -8.15 22.25 -8.15 M25.75 4.35 L24.6 4.1 22.25 4.1 22.25 2.85 24.6 2.85 25.75 3.0 25.75 4.35" fill="#faeee1" fill-rule="evenodd" stroke="none"/>
    <path d="M8.05 2.7 L8.05 -8.25 Q15.35 -9.3 22.25 -8.15 L22.25 2.85 Q15.25 1.55 8.05 2.7" fill="#ecd3b8" fill-rule="evenodd" stroke="none"/>
    <path d="M4.65 4.35 L6.25 4.0 8.05 4.05 Q15.45 2.7 22.25 4.1 L24.6 4.1 25.75 4.35 Q26.9 4.6 27.9 5.35 L28.15 5.5 Q29.55 6.6 29.65 8.2 L29.65 8.25 29.65 8.5 Q29.65 10.45 28.15 11.65 26.5 13.0 24.35 13.0 L23.2 12.9 23.05 12.9 Q21.6 12.75 20.6 11.95 18.75 9.55 19.8 7.75 21.0 6.0 22.85 6.3 24.05 6.55 24.65 7.25 25.25 7.95 25.1 8.95 24.95 9.75 24.1 9.95 L23.7 10.05 23.65 10.05 Q22.3 9.8 22.3 9.25 L22.5 8.7 22.65 8.25 22.3 7.85 21.65 7.6 Q20.8 7.6 20.8 8.7 L20.9 9.15 20.9 9.2 20.8 9.1 Q20.6 9.1 20.8 10.25 21.05 11.3 21.95 11.9 23.35 12.8 25.5 12.35 27.2 11.9 28.25 10.65 29.25 9.35 28.7 7.7 28.15 6.05 26.35 5.4 24.65 4.7 22.25 4.9 15.5 3.3 7.8 4.85 6.0 4.55 3.85 5.65 1.7 6.85 1.85 9.15 2.05 10.9 4.2 11.75 L8.4 11.9 9.85 10.15 10.0 9.5 9.9 9.1 9.85 9.15 9.9 8.9 9.6 7.95 8.9 7.4 Q8.45 7.3 8.2 7.6 7.9 7.9 7.9 8.35 7.85 8.85 8.6 9.05 9.3 9.25 9.3 9.4 L9.3 9.6 Q6.4 10.9 5.75 9.0 5.45 8.0 6.05 7.3 6.65 6.6 7.85 6.3 10.35 6.1 11.0 8.4 11.35 10.05 9.55 12.15 8.6 12.7 7.5 12.9 L6.95 13.0 6.35 13.0 5.85 13.0 Q3.95 12.85 2.45 11.65 0.85 10.45 0.85 8.5 L0.85 8.35 0.85 8.25 Q1.0 6.65 2.45 5.5 3.0 5.0 3.75 4.8 4.15 4.5 4.65 4.35" fill="#634c3c" fill-rule="evenodd" stroke="none"/>
    <path d="M20.6 11.95 L20.2 11.6 19.6 10.75 19.3 10.25 Q18.95 9.65 18.9 9.0 L18.85 8.75 18.85 8.5 18.95 7.75 20.1 6.5 Q21.2 5.65 22.55 5.7 23.95 5.75 24.85 6.55 25.9 7.35 25.9 8.6 25.9 9.6 25.05 10.2 24.25 10.8 23.25 10.75 22.05 10.7 21.35 9.9 L20.9 9.15 20.8 8.7 Q20.8 7.6 21.65 7.6 L22.3 7.85 22.65 8.25 22.5 8.7 22.3 9.25 Q22.3 9.8 23.65 10.05 L23.7 10.05 24.1 9.95 Q24.95 9.75 25.1 8.95 25.25 7.95 24.65 7.25 24.05 6.55 22.85 6.3 21.0 6.0 19.8 7.75 18.75 9.55 20.6 11.95 M11.65 8.5 Q11.65 10.45 10.15 11.65 L9.55 12.15 Q11.35 10.05 11.0 8.4 10.35 6.1 7.85 6.3 6.65 6.6 6.05 7.3 5.45 8.0 5.75 9.0 6.4 10.9 9.3 9.6 L9.3 9.4 Q9.3 9.25 8.6 9.05 7.85 8.85 7.9 8.35 7.9 7.9 8.2 7.6 8.45 7.3 8.9 7.4 L9.6 7.95 9.9 8.9 9.85 9.15 9.8 9.3 9.25 10.0 Q8.6 10.65 7.45 10.75 6.55 10.85 5.7 10.25 4.85 9.6 4.85 8.6 4.85 7.35 5.9 6.55 6.8 5.75 8.05 5.7 L8.1 5.7 Q9.5 5.65 10.55 6.5 11.35 7.1 11.6 7.9 L11.55 8.45 11.65 8.5" fill="#c5b4a0" fill-rule="evenodd" stroke="none"/>
    <path d="M9.85 9.15 L9.9 9.1 10.0 9.5 9.85 10.15 8.4 11.9 4.2 11.75 Q2.05 10.9 1.85 9.15 1.7 6.85 3.85 5.65 6.0 4.55 7.8 4.85 15.5 3.3 22.25 4.9 24.65 4.7 26.35 5.4 28.15 6.05 28.7 7.7 29.25 9.35 28.25 10.65 27.2 11.9 25.5 12.35 23.35 12.8 21.95 11.9 21.05 11.3 20.8 10.25 20.6 9.1 20.8 9.1 L20.9 9.2 20.9 9.15 21.35 9.9 Q22.05 10.7 23.25 10.75 24.25 10.8 25.05 10.2 25.9 9.6 25.9 8.6 25.9 7.35 24.85 6.55 23.95 5.75 22.55 5.7 21.2 5.65 20.1 6.5 L18.95 7.75 Q15.5 5.9 11.6 7.9 11.35 7.1 10.55 6.5 9.5 5.65 8.1 5.7 L8.05 5.7 Q6.8 5.75 5.9 6.55 4.85 7.35 4.85 8.6 4.85 9.6 5.7 10.25 6.55 10.85 7.45 10.75 8.6 10.65 9.25 10.0 L9.8 9.3 9.85 9.15" fill="#98816c" fill-rule="evenodd" stroke="none"/>
    <path d="M29.7 8.25 L29.65 8.25 29.65 8.2 29.7 8.25 M0.85 8.35 L0.8 8.35 0.85 8.25 0.85 8.35" fill="#f7dfc3" fill-rule="evenodd" stroke="none"/>
    <path d="M18.85 8.5 Q15.3 6.55 11.65 8.5 L11.55 8.45 11.6 7.9 Q15.5 5.9 18.95 7.75 L18.85 8.5" fill="#856416" fill-rule="evenodd" stroke="none"/>
  </g>
</svg>
