<?xml version="1.0" encoding="UTF-8" standalone="no"?>
<svg xmlns:xlink="http://www.w3.org/1999/xlink" height="14.4px" width="13.55px" xmlns="http://www.w3.org/2000/svg">
  <g transform="matrix(1.0, 0.0, 0.0, 1.0, 0.25, 0.25)">
    <path d="M13.0 7.3 L8.95 9.3 8.85 9.3 7.3 13.7 7.05 13.9 6.95 13.9 6.6 13.85 4.4 9.2 4.3 9.1 0.2 6.9 0.0 6.65 0.0 6.45 0.3 6.15 4.6 5.0 4.6 4.95 6.45 0.2 Q6.55 0.0 6.8 0.0 L6.9 0.0 7.1 0.2 8.7 4.95 12.9 6.6 13.05 6.95 13.0 7.3 M6.9 5.65 Q6.1 5.65 5.65 6.15 5.25 6.45 5.1 7.1 L5.15 7.25 Q5.15 7.75 5.45 8.1 5.95 8.8 6.8 8.8 7.4 8.8 7.95 8.4 L8.4 7.8 Q8.55 7.1 8.2 6.4 7.7 5.65 6.9 5.65" fill="#ffffff" fill-rule="evenodd" stroke="none"/>
    <path d="M13.0 7.3 L8.95 9.3 8.85 9.3 7.3 13.7 7.05 13.9 6.95 13.9 6.6 13.85 4.4 9.2 4.3 9.1 0.2 6.9 0.0 6.65 0.0 6.45 0.3 6.15 4.6 5.0 4.6 4.95 6.45 0.2 Q6.55 0.0 6.8 0.0 L6.9 0.0 7.1 0.2 8.7 4.95 12.9 6.6 13.05 6.95 13.0 7.3 M6.9 5.65 Q7.7 5.65 8.2 6.4 8.55 7.1 8.4 7.8 L7.95 8.4 Q7.4 8.8 6.8 8.8 5.95 8.8 5.45 8.1 5.15 7.75 5.15 7.25 L5.1 7.1 Q5.25 6.45 5.65 6.15 6.1 5.65 6.9 5.65" fill="none" stroke="#141b27" stroke-linecap="round" stroke-linejoin="round" stroke-width="0.5"/>
    <path d="M6.7 5.9 Q6.0 5.9 5.5 6.35 5.0 6.75 4.95 7.45 L4.9 7.1 Q4.9 6.4 5.4 5.9 5.95 5.4 6.65 5.4 7.4 5.4 8.1 5.95 8.75 6.55 8.75 7.25 L8.35 8.1 7.95 8.85 Q8.5 7.55 8.0 6.65 7.55 5.85 6.7 5.9" fill="#151617" fill-rule="evenodd" stroke="none"/>
    <path d="M8.65 4.9 L12.95 6.55 13.05 6.9 8.55 6.95 Q8.55 6.3 8.1 5.8 L8.65 4.9" fill="#9ea4aa" fill-rule="evenodd" stroke="none"/>
    <path d="M13.05 6.9 L13.05 6.95 12.95 7.3 8.95 9.2 7.9 8.35 Q8.55 7.85 8.55 6.95 L13.05 6.9 M7.0 13.85 L6.95 13.9 6.65 13.8 4.4 9.15 4.3 9.1 5.5 8.05 Q6.05 8.75 6.8 8.75 L7.0 13.85 M0.05 6.45 L0.25 6.1 4.55 5.0 4.6 4.9 5.65 5.75 Q5.15 6.25 5.1 6.9 L0.05 6.45 M6.85 0.0 L7.15 0.15 8.65 4.9 8.1 5.8 Q7.55 5.25 6.8 5.25 L6.65 5.25 6.85 0.0" fill="#323d47" fill-rule="evenodd" stroke="none"/>
    <path d="M4.6 4.9 L6.45 0.15 Q6.6 -0.05 6.8 0.0 L6.85 0.0 6.4 5.3 Q5.95 5.45 5.65 5.75 L4.6 4.9" fill="#bbbbbb" fill-rule="evenodd" stroke="none"/>
    <path d="M6.65 5.25 L6.4 5.3 6.85 0.0 6.65 5.25" fill="#c6c6c6" fill-rule="evenodd" stroke="none"/>
    <path d="M4.3 9.1 L0.15 6.85 0.05 6.6 0.05 6.55 5.15 7.2 Q5.15 7.7 5.5 8.05 L4.3 9.1" fill="#afafaf" fill-rule="evenodd" stroke="none"/>
    <path d="M0.05 6.55 L0.05 6.45 5.1 6.9 5.1 6.95 5.15 7.2 0.05 6.55" fill="#ececec" fill-rule="evenodd" stroke="none"/>
    <path d="M8.95 9.2 L8.9 9.2 7.3 13.6 7.0 13.85 6.8 8.75 Q7.4 8.75 7.9 8.35 L8.95 9.2" fill="#7b848c" fill-rule="evenodd" stroke="none"/>
    <path d="M4.75 7.3 Q4.75 6.5 5.35 5.95 5.9 5.4 6.7 5.4 7.45 5.4 8.0 5.95 8.6 6.5 8.6 7.3 8.6 8.1 8.0 8.65 7.45 9.2 6.7 9.2 5.9 9.2 5.35 8.65 4.75 8.1 4.75 7.3 M4.9 7.3 Q4.9 8.05 5.4 8.55 5.95 9.05 6.7 9.05 7.4 9.05 7.95 8.55 8.45 8.05 8.45 7.3 8.45 6.55 7.95 6.05 7.4 5.5 6.7 5.5 5.95 5.5 5.4 6.05 4.9 6.55 4.9 7.3" fill="#99b0c4" fill-rule="evenodd" stroke="none"/>
    <path d="M5.75 5.65 Q6.35 5.15 7.1 5.35 7.9 5.5 8.2 6.05 7.85 5.65 7.3 5.55 6.5 5.35 5.8 5.8 5.15 6.2 4.95 7.0 L5.0 6.55 5.75 5.65" fill="#000000" fill-rule="evenodd" stroke="none"/>
    <path d="M5.75 9.0 L6.8 9.3 Q7.55 9.3 8.1 8.75 8.7 8.2 8.7 7.4 L8.6 6.9 8.75 7.55 Q8.75 8.3 8.2 8.85 7.65 9.4 6.9 9.4 6.25 9.4 5.75 9.0" fill="#000000" fill-rule="evenodd" stroke="none"/>
    <path d="M5.5 8.6 Q4.9 8.15 4.95 7.35 4.95 6.6 5.4 6.15 5.1 6.6 5.1 7.15 5.1 7.95 5.7 8.5 6.25 9.05 7.0 9.1 L6.6 9.1 Q6.1 9.05 5.5 8.6" fill="#000000" fill-rule="evenodd" stroke="none"/>
    <path d="M7.0 5.35 Q6.25 5.4 5.75 5.9 5.2 6.4 5.2 7.15 L5.35 7.75 Q5.45 8.35 6.0 8.75 L5.35 8.1 5.1 7.15 Q5.1 6.35 5.65 5.8 6.2 5.25 7.0 5.25 7.65 5.25 8.15 5.65 8.7 6.05 8.85 6.65 8.65 6.05 8.1 5.75 7.6 5.35 7.0 5.35" fill="#99b0c4" fill-rule="evenodd" stroke="none"/>
    <path d="M6.8 9.3 L5.75 9.0 Q5.25 8.6 5.1 8.0 L5.75 8.85 6.8 9.15 Q7.5 9.15 8.05 8.65 8.55 8.15 8.55 7.4 8.55 6.5 7.85 6.0 8.4 6.3 8.6 6.9 L8.7 7.4 Q8.7 8.2 8.1 8.75 7.55 9.3 6.8 9.3" fill="#99b0c4" fill-rule="evenodd" stroke="none"/>
  </g>
</svg>
