<?xml version="1.0" encoding="UTF-8" standalone="no"?>
<svg xmlns:xlink="http://www.w3.org/1999/xlink" height="79.95px" width="755.4px" xmlns="http://www.w3.org/2000/svg">
  <g transform="matrix(1.0, 0.0, 0.0, 1.0, 0.0, -0.5)">
    <path d="M736.3 31.35 L738.75 32.05 Q740.7 32.6 742.2 34.0 743.7 35.35 743.7 37.5 743.7 40.15 741.7 41.95 739.75 43.8 737.45 44.85 L736.4 45.2 735.4 45.55 735.25 46.4 735.25 47.25 Q735.25 48.8 735.95 50.05 736.65 51.35 738.35 51.7 L738.7 51.75 739.15 51.75 739.85 51.7 740.5 51.55 Q742.4 50.95 743.6 49.25 L745.6 45.75 746.1 44.55 746.6 43.4 750.4 45.1 747.75 50.6 Q746.25 53.3 743.85 55.3 741.8 56.95 739.15 57.85 L732.95 58.7 728.35 58.1 Q726.25 57.45 724.7 55.9 723.1 54.3 722.4 52.2 721.7 50.15 721.4 47.9 L721.25 46.25 721.2 44.7 721.35 44.7 721.55 44.55 722.75 44.15 724.0 43.7 727.25 42.15 Q728.8 41.25 729.8 39.75 L730.15 38.95 730.3 38.2 729.8 37.15 Q729.3 36.75 728.5 36.75 L728.35 36.75 728.2 36.75 728.1 36.8 727.9 36.8 Q725.75 37.15 724.1 38.95 722.45 40.65 721.4 42.65 L721.0 43.55 720.65 44.45 715.95 58.05 701.75 58.05 704.05 51.4 Q702.7 53.35 700.9 54.85 698.85 56.55 696.25 57.45 693.75 58.4 690.4 58.4 687.2 58.4 684.85 56.95 682.45 55.45 681.95 52.1 679.45 54.8 676.05 56.65 672.7 58.5 668.9 58.5 664.85 58.5 663.0 56.05 661.05 53.7 661.05 50.5 661.05 49.4 661.35 48.25 661.55 47.15 661.9 46.15 L663.2 42.5 664.45 38.9 665.65 35.2 666.95 31.65 681.0 31.65 679.55 35.8 678.2 39.9 676.75 44.05 675.3 48.2 675.15 48.85 675.0 49.45 675.25 50.2 Q675.55 50.5 676.2 50.5 676.95 50.5 678.0 49.9 679.05 49.4 680.35 47.8 681.95 46.0 683.1 43.5 L685.2 38.45 686.0 36.05 686.85 33.6 687.0 33.1 687.2 32.55 687.25 32.25 687.4 32.05 687.4 31.95 687.45 31.95 687.5 31.8 687.5 31.65 689.85 31.65 692.2 31.65 696.8 31.65 701.5 31.65 700.05 35.7 698.7 39.7 697.3 43.8 695.85 47.8 695.6 48.9 695.5 49.75 Q695.5 50.35 695.75 50.6 L696.45 50.85 697.4 50.65 698.55 50.15 699.25 49.5 700.0 48.95 Q701.45 47.7 702.3 46.25 L703.95 43.1 706.5 44.3 715.8 17.35 729.9 17.35 724.35 33.6 Q726.15 32.55 728.2 31.9 730.3 31.3 732.35 31.2 L732.95 31.15 733.55 31.15 736.3 31.35" fill="none" stroke="url(#gradient0)" stroke-linecap="round" stroke-linejoin="round" stroke-width="10.0"/>
    <path d="M652.4 49.25 L653.8 49.55 Q655.95 50.05 657.7 51.5 659.55 52.95 659.4 55.35 659.2 57.55 657.5 58.75 655.8 59.95 653.75 60.35 L652.35 60.6 651.05 60.65 650.05 60.6 649.1 60.45 Q646.75 60.0 644.9 58.55 643.0 57.1 643.15 54.5 643.2 53.5 643.55 52.75 L642.1 54.35 Q640.1 56.35 637.35 56.35 L635.25 56.05 633.35 55.15 Q630.5 57.55 626.6 58.9 622.7 60.2 618.65 60.45 L618.0 60.45 617.3 60.45 Q613.45 60.45 609.9 59.3 606.35 58.1 603.65 55.85 601.55 53.9 600.55 51.75 L600.15 52.25 Q598.1 54.95 594.25 56.8 591.95 57.85 589.15 58.4 L583.5 58.95 583.05 58.95 582.55 58.95 Q578.25 58.7 574.3 57.3 570.35 55.85 567.8 52.65 566.5 50.95 565.85 49.2 565.25 47.45 565.25 45.7 565.25 42.3 567.3 39.2 569.35 36.15 572.6 34.3 574.8 33.1 577.9 32.25 581.0 31.4 584.25 31.3 L585.05 31.2 585.8 31.2 591.1 31.85 Q593.65 32.5 595.5 34.15 596.4 35.05 597.0 36.25 597.6 37.5 597.75 38.85 L597.75 39.1 597.75 39.35 597.4 41.25 596.4 42.95 Q595.55 43.9 594.5 44.35 L592.1 44.8 591.75 44.8 591.4 44.7 590.0 44.4 588.7 43.8 Q587.75 43.15 587.15 42.25 586.55 41.3 586.4 40.25 L586.4 40.15 586.4 39.9 586.3 39.75 586.3 39.6 Q586.3 37.9 587.45 36.65 588.55 35.4 590.2 34.95 L589.3 34.7 588.35 34.65 587.9 34.65 587.5 34.75 587.1 34.8 586.7 34.95 Q584.1 35.85 582.25 38.6 580.3 41.4 579.65 44.55 L579.45 46.0 579.4 47.4 Q579.45 50.3 580.95 52.4 582.4 54.5 585.8 54.5 591.5 54.5 595.05 51.35 597.75 48.95 599.75 45.75 600.1 43.1 601.7 40.65 603.75 37.5 607.15 35.25 610.15 33.35 613.8 32.2 617.5 31.15 621.45 31.15 L622.6 31.15 623.7 31.2 Q626.9 31.5 629.95 32.55 632.95 33.6 635.3 35.8 637.25 37.55 638.3 39.8 639.35 42.1 639.35 44.5 L639.2 46.25 638.75 48.1 640.55 47.5 642.1 46.2 643.0 45.1 643.9 43.5 647.95 45.25 646.9 47.35 645.6 49.85 644.75 51.2 645.15 50.9 Q647.05 49.7 649.15 49.35 L650.2 49.25 651.15 49.2 652.4 49.25" fill="none" stroke="url(#gradient1)" stroke-linecap="round" stroke-linejoin="round" stroke-width="10.0"/>
    <path d="M624.05 34.8 L622.4 35.2 620.6 36.35 619.95 37.0 619.2 37.8 Q617.5 39.75 616.5 42.35 615.45 44.85 615.0 47.55 L614.85 49.25 614.8 50.95 614.85 52.05 615.0 53.4 Q615.25 54.65 615.75 55.65 616.35 56.65 617.5 56.65 619.4 56.65 620.8 55.35 622.25 54.05 623.15 52.4 L623.6 51.75 623.95 51.0 Q622.8 50.2 622.15 49.0 621.5 47.75 621.5 46.35 L621.5 46.05 621.5 45.85 Q621.75 43.65 623.2 41.65 624.6 39.7 626.85 39.1 626.75 36.8 626.0 35.85 625.2 34.8 624.05 34.8" fill="none" stroke="url(#gradient2)" stroke-linecap="round" stroke-linejoin="round" stroke-width="10.0"/>
    <path d="M556.2 49.25 L557.6 49.55 Q559.75 50.05 561.5 51.5 563.35 52.95 563.2 55.35 563.0 57.55 561.3 58.75 559.6 59.95 557.55 60.35 L556.15 60.6 554.85 60.65 553.85 60.6 552.9 60.45 Q550.55 60.0 548.7 58.55 546.8 57.1 546.95 54.5 547.1 52.05 548.95 50.9 550.85 49.7 552.95 49.35 L554.0 49.25 554.95 49.2 556.2 49.25" fill="none" stroke="url(#gradient3)" stroke-linecap="round" stroke-linejoin="round" stroke-width="10.0"/>
    <path d="M540.3 43.6 Q540.75 50.8 535.85 54.7 L535.4 55.05 Q530.1 59.0 523.65 59.65 L522.05 59.75 520.6 59.8 518.7 59.75 516.7 59.55 Q514.1 59.25 511.6 58.25 509.1 57.3 507.3 55.4 506.05 53.85 505.5 52.15 L505.4 51.75 505.3 51.55 505.05 51.85 Q502.3 55.55 497.3 57.9 494.35 59.25 491.05 59.95 L484.3 60.55 483.25 60.55 482.2 60.45 478.0 60.0 473.9 58.9 Q468.7 57.1 465.3 53.4 L463.4 50.8 Q461.6 53.3 459.5 55.45 454.85 60.25 446.35 60.25 L445.05 60.2 443.65 60.05 Q441.55 59.8 439.6 59.05 437.7 58.25 436.4 56.55 435.5 55.3 435.1 54.0 434.75 52.65 434.75 51.25 L434.8 50.0 434.95 48.8 Q435.2 47.3 435.75 45.8 L436.75 42.9 437.1 41.95 437.75 40.3 438.05 39.45 438.3 38.6 438.6 37.15 438.75 36.0 438.45 34.75 Q438.1 34.25 437.4 34.25 435.8 34.25 434.35 35.7 432.85 37.2 431.8 38.95 L430.8 40.9 430.1 42.55 428.65 46.75 427.2 50.95 425.65 55.25 424.25 59.45 406.3 59.45 408.25 54.0 410.2 48.5 412.05 43.1 413.9 37.65 414.15 36.65 414.25 35.75 Q414.25 34.9 413.85 34.55 413.45 34.15 412.7 34.15 L411.8 34.3 410.8 34.7 409.8 35.35 408.85 36.35 Q407.5 37.9 405.9 40.7 404.35 43.55 402.55 48.35 L401.95 50.05 400.65 53.85 399.55 57.3 398.8 59.45 381.95 59.45 392.85 27.8 409.75 27.8 409.05 29.75 Q411.15 28.5 413.7 27.65 416.25 26.75 418.9 26.6 L419.4 26.6 419.95 26.6 422.55 26.75 425.0 27.4 Q426.9 28.05 428.45 29.3 430.0 30.65 430.6 32.7 433.3 29.85 436.7 28.3 440.1 26.75 443.7 26.75 L446.4 27.0 449.15 27.7 Q452.7 28.85 454.5 31.45 456.3 34.1 456.3 37.3 L456.1 39.45 455.45 41.75 454.95 43.25 454.2 45.35 454.0 45.9 453.85 46.45 453.15 48.8 Q452.85 49.95 452.85 50.65 L452.85 50.9 452.95 51.2 453.25 51.3 453.85 51.3 454.75 51.15 455.65 50.75 Q456.9 50.05 458.2 48.7 L460.45 45.85 461.95 43.7 462.15 42.05 462.8 39.4 Q464.6 34.0 470.15 30.95 475.65 27.95 481.85 27.1 L484.5 26.85 487.1 26.75 490.8 26.95 494.15 27.55 494.65 27.75 495.15 27.85 Q497.8 28.55 500.1 30.4 502.4 32.2 502.45 35.25 502.65 40.15 498.4 42.9 494.15 45.75 489.1 46.95 L483.65 48.0 479.15 48.15 Q479.6 51.4 481.65 53.2 483.65 54.95 487.0 54.95 493.75 54.95 498.4 51.15 503.0 47.35 505.65 41.6 L506.75 42.1 507.95 40.95 Q509.85 39.65 512.1 39.75 L512.6 39.75 513.05 39.75 513.45 39.8 513.9 39.9 521.95 28.7 539.0 24.4 539.65 34.0 540.3 43.6 M492.8 31.25 Q491.95 30.65 490.45 30.55 487.1 30.45 484.7 33.05 482.2 35.65 481.0 38.85 480.5 39.95 480.25 41.0 L479.8 43.0 482.05 42.75 484.4 42.2 Q487.8 41.3 490.7 39.2 493.5 37.15 493.6 33.45 493.6 31.9 492.8 31.25 M523.55 41.15 L523.55 35.65 518.15 42.9 518.95 44.5 519.15 46.25 518.9 48.0 518.05 49.55 Q517.2 50.85 515.65 51.65 514.1 52.4 512.45 52.4 L512.25 52.4 512.0 52.4 511.8 52.35 511.6 52.3 Q512.2 53.25 513.2 53.9 514.2 54.55 515.35 54.55 519.05 54.55 521.3 52.55 523.5 50.6 523.5 46.7 L523.55 41.15 M378.45 30.85 L377.35 34.15 375.05 40.7 372.8 47.3 372.7 47.6 372.65 48.0 372.45 48.45 372.35 49.05 372.3 49.45 372.3 49.8 372.4 50.5 372.9 50.95 373.35 51.05 373.85 51.0 374.9 50.8 375.9 50.3 377.9 48.7 379.7 46.6 381.1 44.65 381.95 43.0 382.1 42.65 382.3 42.3 Q382.3 42.1 382.45 41.95 L382.6 41.6 387.3 43.65 Q383.95 50.75 379.3 55.5 374.6 60.25 366.0 60.25 L365.75 60.25 365.55 60.25 Q362.6 60.15 360.05 58.9 357.45 57.75 356.25 54.9 353.75 57.15 350.65 58.55 347.55 60.0 344.25 60.25 L343.5 60.35 342.65 60.35 Q339.5 60.25 336.55 59.05 333.65 57.9 331.35 55.1 329.65 53.0 328.9 50.75 328.15 48.5 328.15 46.15 328.15 42.05 330.35 38.15 332.55 34.25 336.0 31.6 338.6 29.65 342.0 28.35 345.45 27.05 349.1 26.85 L349.85 26.75 350.65 26.75 Q353.5 26.75 356.25 27.6 358.9 28.5 361.1 30.3 L362.0 27.55 370.8 27.55 379.6 27.55 378.45 30.85 M325.6 18.95 Q323.35 20.7 320.55 20.9 L320.3 20.9 320.1 20.9 317.8 20.4 Q316.65 20.05 315.75 19.25 L315.4 18.95 315.0 18.6 314.9 18.55 314.85 18.45 314.6 18.25 314.4 18.05 315.75 16.7 316.8 15.25 317.5 14.0 317.65 12.85 Q317.65 11.8 316.65 11.15 315.65 10.5 313.2 10.5 307.45 10.5 302.35 16.5 297.25 22.5 294.25 29.8 L293.85 30.8 293.45 31.95 293.3 32.25 293.2 32.55 292.1 35.7 Q291.65 37.4 291.35 39.1 L291.1 40.9 291.0 42.65 291.1 44.1 291.35 45.55 Q291.7 46.9 292.45 47.45 293.2 48.0 294.05 48.0 L294.7 47.95 295.35 47.8 297.05 46.9 298.5 45.65 Q299.85 44.0 301.3 41.1 302.75 38.25 304.3 33.5 L304.75 32.2 305.7 29.3 306.6 26.85 307.15 25.3 330.75 25.3 328.5 31.85 326.2 38.4 323.9 45.05 321.65 51.6 Q317.9 62.35 308.2 68.9 298.5 75.45 287.4 75.45 L283.6 75.2 279.8 74.55 Q274.85 73.35 272.4 71.15 269.95 68.95 269.4 66.5 L269.25 65.7 269.25 64.95 Q269.3 61.6 271.75 59.1 274.2 56.6 277.55 56.65 279.05 56.65 280.5 57.25 281.95 57.8 283.45 59.25 L283.8 59.65 284.2 60.0 284.6 60.4 284.95 60.8 284.15 61.2 283.25 61.7 Q281.8 62.55 280.5 63.7 279.25 64.9 279.35 66.7 L279.35 67.0 279.35 67.2 Q279.55 68.75 280.65 69.45 281.8 70.2 283.25 70.3 L285.7 69.9 Q287.05 69.35 288.35 68.3 L289.4 67.45 290.45 66.4 Q293.1 63.6 294.7 60.25 296.35 56.85 297.5 53.25 L294.75 54.0 291.9 54.6 290.5 54.75 289.1 54.75 Q284.6 54.75 280.45 52.9 276.75 51.25 274.25 47.8 L273.7 48.75 Q272.5 50.8 270.7 52.55 269.0 54.3 266.65 54.3 L264.85 54.0 263.25 53.3 Q260.8 55.3 257.45 56.45 254.15 57.55 250.65 57.8 L250.1 57.8 249.5 57.8 Q246.25 57.8 243.2 56.8 240.15 55.8 237.85 53.85 236.05 52.2 235.2 50.35 234.4 48.45 234.4 46.6 234.4 45.1 234.85 43.7 235.3 42.25 236.15 40.9 237.95 38.2 240.85 36.25 243.4 34.65 246.55 33.65 249.7 32.75 253.05 32.75 L254.05 32.8 255.0 32.8 Q257.7 33.05 260.3 33.95 262.9 34.9 264.9 36.75 266.6 38.25 267.5 40.15 268.35 42.1 268.35 44.15 L268.2 45.7 267.85 47.25 269.4 46.75 270.7 45.6 271.45 44.65 272.0 43.85 271.15 41.5 Q270.4 38.6 270.4 35.6 L270.45 34.15 270.6 32.65 271.1 29.6 271.95 26.7 Q274.85 18.35 282.55 13.05 290.25 7.75 298.85 6.2 L302.55 5.7 306.1 5.5 310.45 5.65 316.2 6.3 Q320.55 7.05 324.2 8.9 327.85 10.75 327.85 14.45 327.85 17.2 325.6 18.95 M358.35 33.0 Q358.05 32.35 356.75 32.35 L355.85 32.45 354.95 32.7 Q353.25 33.45 351.5 35.25 349.8 37.05 348.4 39.1 L346.7 42.0 345.55 44.35 345.25 45.25 344.85 46.7 344.45 48.05 344.2 49.45 Q344.0 49.95 343.95 50.6 L343.9 51.75 Q343.9 53.15 344.35 54.0 344.85 54.95 346.0 54.95 348.65 54.95 350.65 52.75 352.7 50.6 354.15 48.0 L355.5 45.4 356.5 43.1 358.1 38.25 Q358.65 36.15 358.65 34.7 358.65 33.6 358.35 33.0 M255.3 35.9 L253.9 36.25 Q253.1 36.6 252.35 37.2 L251.75 37.8 251.15 38.45 Q249.7 40.15 248.85 42.3 247.95 44.5 247.55 46.75 L247.45 48.25 247.4 49.65 247.4 50.6 247.55 51.75 Q247.75 52.85 248.2 53.7 248.7 54.55 249.7 54.55 251.3 54.55 252.5 53.45 253.75 52.3 254.5 50.95 L254.9 50.35 255.2 49.75 Q254.2 49.05 253.65 48.0 253.1 46.95 253.1 45.75 L253.1 45.5 253.1 45.3 Q253.3 43.45 254.55 41.75 255.75 40.05 257.65 39.55 257.6 37.6 256.95 36.75 256.25 35.9 255.3 35.9 M218.45 32.45 L222.0 33.0 Q223.8 33.55 225.4 34.65 L225.8 33.35 237.9 33.35 235.65 40.05 234.45 43.55 233.35 46.7 231.0 53.35 228.7 60.05 Q227.25 64.35 222.95 67.1 218.65 69.9 213.8 70.55 L212.6 70.65 211.4 70.65 210.7 70.65 207.55 70.25 Q205.7 69.75 204.15 68.85 202.7 68.0 201.75 66.6 200.85 65.25 200.6 63.8 L200.5 63.15 200.45 62.55 Q200.55 61.0 201.5 59.75 202.4 58.45 204.6 58.05 L204.85 58.05 205.15 58.0 205.4 58.0 205.65 58.0 Q207.95 58.0 209.35 59.45 210.4 60.65 210.7 62.0 L210.8 62.7 210.8 62.8 210.8 62.9 210.7 63.8 210.0 65.3 208.4 66.7 207.5 67.05 207.8 67.15 208.15 67.25 208.4 67.35 208.7 67.35 210.7 67.15 Q212.6 66.65 213.8 65.0 215.65 62.5 216.8 59.6 L217.6 57.25 218.3 55.1 216.55 55.7 214.75 56.05 213.85 56.15 213.0 56.2 210.7 56.0 Q208.05 55.45 205.85 53.7 202.75 51.2 202.75 46.45 202.75 40.95 207.25 37.0 208.9 35.5 210.7 34.55 213.75 32.85 217.1 32.55 L217.75 32.5 218.45 32.45 M222.25 36.6 L222.0 36.6 220.8 36.9 219.55 37.7 Q218.3 38.85 217.1 40.7 215.85 42.55 215.0 44.5 L214.05 47.25 Q213.7 48.6 213.7 49.65 L213.8 50.55 214.0 51.35 214.55 52.0 215.25 52.2 Q217.85 52.2 219.45 49.95 221.1 47.65 222.0 44.9 L223.1 41.55 223.95 38.85 223.95 38.55 223.9 38.25 223.6 37.4 222.85 36.8 222.65 36.7 222.5 36.65 222.25 36.6 M170.85 9.75 L164.3 28.55 157.9 47.3 157.35 48.8 157.2 49.95 Q157.2 50.5 157.65 50.8 L159.1 51.0 Q159.8 51.0 160.9 50.45 L163.15 48.8 Q164.8 47.15 165.8 45.35 L166.2 44.65 Q166.6 43.2 167.5 42.15 L167.75 41.55 167.95 41.65 168.75 40.95 Q170.65 39.65 172.9 39.75 L173.4 39.75 173.85 39.75 174.25 39.8 174.7 39.9 182.75 28.7 199.8 24.4 200.45 34.0 201.1 43.6 Q201.55 51.1 196.2 55.05 190.9 59.0 184.45 59.65 L182.85 59.75 181.4 59.8 179.5 59.75 177.5 59.55 Q174.9 59.25 172.4 58.25 169.9 57.3 168.1 55.4 167.15 54.25 166.65 53.0 L164.55 55.4 Q160.15 60.25 151.7 60.25 L150.7 60.2 149.8 60.15 Q147.5 59.9 145.35 59.0 143.15 58.15 141.8 56.25 140.9 55.0 140.5 53.45 140.0 51.95 140.0 50.4 L140.05 49.7 140.1 49.15 140.55 46.55 141.25 44.05 147.2 26.85 153.0 9.75 157.5 9.75 161.95 9.75 166.35 9.75 170.85 9.75 M179.75 48.05 L178.9 49.6 Q178.05 50.9 176.5 51.7 174.95 52.45 173.3 52.45 L173.1 52.45 172.85 52.45 172.65 52.4 172.45 52.35 Q173.05 53.3 174.05 53.95 175.05 54.6 176.2 54.6 179.9 54.6 182.15 52.6 184.35 50.65 184.35 46.75 L184.4 41.2 184.4 35.7 179.0 42.95 179.8 44.55 180.0 46.3 179.75 48.05 M135.05 26.35 Q136.3 26.7 137.5 27.45 138.65 28.25 139.35 29.45 L140.3 31.9 140.45 33.0 140.45 33.95 Q140.45 37.3 138.45 39.25 136.4 41.2 134.0 41.2 L133.85 41.2 133.7 41.2 Q131.8 41.2 130.1 39.9 128.4 38.65 127.65 35.85 L126.95 34.65 Q126.55 34.2 126.05 34.3 125.1 34.3 124.0 35.35 122.85 36.4 121.6 38.25 119.4 41.0 117.9 44.45 116.4 47.9 115.2 51.4 L114.15 54.4 113.2 57.3 112.85 58.35 112.5 59.45 95.8 59.45 103.3 38.5 103.45 37.85 103.45 37.4 Q103.45 36.4 102.65 36.05 L100.9 35.85 Q98.55 36.1 96.75 38.0 94.95 39.9 93.8 42.1 L93.25 43.05 94.6 43.75 94.15 44.6 93.65 45.4 90.55 51.0 Q88.8 53.75 86.35 55.9 84.1 57.9 81.1 59.0 78.05 60.05 74.8 60.25 L74.0 60.25 71.25 60.05 68.65 59.45 Q65.2 58.25 63.75 55.8 62.35 53.3 62.35 50.3 62.35 49.35 62.5 48.3 L62.9 46.15 63.2 45.1 63.5 44.1 66.35 35.8 69.2 27.55 73.6 27.55 78.05 27.55 82.5 27.55 86.9 27.55 85.8 30.85 84.65 34.15 82.35 40.7 80.15 47.3 79.7 48.65 79.5 49.9 Q79.5 50.4 79.9 50.75 L81.3 51.0 Q82.05 51.0 83.15 50.45 L85.4 48.8 Q87.0 47.15 88.0 45.35 L89.4 42.75 88.3 42.3 Q90.6 36.1 95.15 31.2 99.75 26.3 106.6 25.95 L107.9 25.85 109.3 25.95 Q112.3 26.1 115.05 27.45 117.8 28.75 119.4 31.35 L123.6 28.6 Q125.85 27.4 128.2 26.65 L130.3 26.15 132.35 26.0 135.05 26.35 M84.35 12.05 L84.95 12.2 85.4 12.4 Q87.25 13.2 88.85 14.65 90.45 16.1 90.45 18.15 L90.35 18.75 90.25 19.4 Q89.7 21.1 88.25 22.25 86.85 23.4 85.2 23.95 L84.55 24.05 84.0 24.2 82.5 24.4 81.05 24.45 77.05 24.0 Q75.05 23.5 73.55 22.3 72.35 21.45 71.7 20.2 71.0 18.95 71.0 17.7 71.0 16.95 71.25 16.25 71.55 15.5 72.0 14.9 73.25 13.25 75.3 12.45 77.35 11.65 79.5 11.45 L80.0 11.45 80.5 11.45 82.45 11.6 84.35 12.05 M61.35 18.95 Q59.1 20.7 56.3 20.9 L56.05 20.9 55.85 20.9 53.55 20.4 Q52.4 20.05 51.5 19.25 L51.15 18.95 50.75 18.6 50.65 18.55 50.6 18.45 50.35 18.25 50.15 18.05 51.5 16.7 52.55 15.25 53.25 14.0 53.4 12.85 Q53.4 11.8 52.4 11.15 51.4 10.5 48.95 10.5 43.2 10.5 38.1 16.5 33.0 22.5 30.0 29.8 L29.6 30.8 29.2 31.95 29.05 32.25 28.95 32.55 27.85 35.7 27.1 39.1 26.85 40.9 26.75 42.65 26.85 44.1 27.1 45.55 Q27.45 46.9 28.2 47.45 28.95 48.0 29.8 48.0 L30.45 47.95 31.1 47.8 Q31.95 47.45 32.8 46.9 L34.25 45.65 Q35.6 44.0 37.05 41.1 38.5 38.25 40.05 33.5 L40.5 32.2 41.45 29.3 42.35 26.85 42.9 25.3 66.5 25.3 64.25 31.85 61.95 38.4 59.65 45.05 57.4 51.6 Q53.65 62.35 43.95 68.9 34.25 75.45 23.15 75.45 L19.35 75.2 15.55 74.55 Q10.6 73.35 8.15 71.15 5.7 68.95 5.15 66.5 L5.0 65.7 5.0 64.95 Q5.05 61.6 7.5 59.1 9.95 56.6 13.3 56.65 14.8 56.65 16.25 57.25 17.7 57.8 19.2 59.25 L19.55 59.65 19.95 60.0 20.35 60.4 20.7 60.8 19.9 61.2 19.0 61.7 16.25 63.7 Q15.0 64.9 15.1 66.7 L15.1 67.0 15.1 67.2 Q15.3 68.75 16.4 69.45 17.55 70.2 19.0 70.3 20.15 70.4 21.45 69.9 22.8 69.35 24.1 68.3 L25.15 67.45 26.2 66.4 Q28.85 63.6 30.45 60.25 32.1 56.85 33.25 53.25 L30.5 54.0 27.65 54.6 26.25 54.75 24.85 54.75 Q20.35 54.75 16.2 52.9 12.1 51.05 9.4 46.95 7.7 44.35 6.9 41.5 6.15 38.6 6.15 35.6 L6.2 34.15 6.35 32.65 6.85 29.6 7.7 26.7 Q10.6 18.35 18.3 13.05 26.0 7.75 34.6 6.2 L38.3 5.7 41.85 5.5 46.2 5.65 51.95 6.3 Q56.3 7.05 59.95 8.9 63.6 10.75 63.6 14.45 63.6 17.2 61.35 18.95" fill="none" stroke="url(#gradient4)" stroke-linecap="round" stroke-linejoin="round" stroke-width="10.0"/>
    <path d="M736.2 31.25 L738.65 31.95 Q740.6 32.5 742.1 33.9 743.6 35.25 743.6 37.4 743.6 40.05 741.6 41.85 739.65 43.7 737.35 44.75 L736.3 45.1 735.3 45.45 735.15 46.3 735.15 47.15 Q735.15 48.7 735.85 49.95 736.55 51.25 738.25 51.6 L738.6 51.65 739.05 51.65 739.75 51.6 740.4 51.45 Q742.3 50.85 743.5 49.15 L745.5 45.65 746.0 44.45 746.5 43.3 750.3 45.0 747.65 50.5 Q746.15 53.2 743.75 55.2 741.7 56.85 739.05 57.75 736.4 58.6 732.85 58.6 L728.25 58.0 Q726.15 57.35 724.6 55.8 723.0 54.2 722.3 52.1 721.6 50.05 721.3 47.8 L721.15 46.15 721.1 44.6 721.25 44.6 721.45 44.45 722.65 44.05 723.9 43.6 727.15 42.05 Q728.7 41.15 729.7 39.65 L730.05 38.85 730.2 38.1 Q730.1 37.45 729.7 37.05 729.2 36.65 728.4 36.65 L728.25 36.65 728.1 36.65 728.0 36.7 727.8 36.7 Q725.65 37.05 724.0 38.85 722.35 40.55 721.3 42.55 L720.9 43.45 720.55 44.35 715.85 57.95 701.65 57.95 703.95 51.3 Q702.6 53.25 700.8 54.75 698.75 56.45 696.15 57.35 693.65 58.3 690.3 58.3 687.1 58.3 684.75 56.85 682.35 55.35 681.85 52.0 679.35 54.7 675.95 56.55 672.6 58.4 668.8 58.4 664.75 58.4 662.9 55.95 660.95 53.6 660.95 50.4 660.95 49.3 661.25 48.15 661.45 47.05 661.8 46.05 L663.1 42.4 664.35 38.8 665.55 35.1 666.85 31.55 680.9 31.55 679.45 35.7 678.1 39.8 676.65 43.95 675.2 48.1 675.05 48.75 674.9 49.35 Q674.9 49.8 675.15 50.1 675.45 50.4 676.1 50.4 676.85 50.4 677.9 49.8 L680.25 47.7 Q681.85 45.9 683.0 43.4 L685.1 38.35 685.9 35.95 686.75 33.5 686.9 33.0 687.1 32.45 687.15 32.15 687.3 31.95 687.3 31.85 687.35 31.85 687.4 31.7 687.4 31.55 689.75 31.55 692.1 31.55 696.7 31.55 701.4 31.55 699.95 35.6 698.6 39.6 697.2 43.7 695.75 47.7 695.5 48.8 695.4 49.65 Q695.4 50.25 695.65 50.5 L696.35 50.75 697.3 50.55 698.45 50.05 699.15 49.4 699.9 48.85 Q701.35 47.6 702.2 46.15 L703.85 43.0 706.4 44.2 715.7 17.25 729.8 17.25 724.25 33.5 Q726.05 32.45 728.1 31.8 L732.25 31.1 732.85 31.05 733.45 31.05 736.2 31.25 M652.3 49.15 L653.7 49.45 Q655.85 49.95 657.6 51.4 659.45 52.85 659.3 55.25 659.1 57.45 657.4 58.65 655.7 59.85 653.65 60.25 L652.25 60.5 650.95 60.55 649.95 60.5 649.0 60.35 Q646.65 59.9 644.8 58.45 642.9 57.0 643.05 54.4 643.1 53.4 643.45 52.65 L642.0 54.25 Q640.0 56.25 637.25 56.25 L635.15 55.95 633.25 55.05 Q630.4 57.45 626.5 58.8 622.6 60.1 618.55 60.35 L617.9 60.35 617.2 60.35 Q613.35 60.35 609.8 59.2 606.25 58.0 603.55 55.75 601.45 53.8 600.45 51.65 L600.05 52.15 Q598.0 54.85 594.15 56.7 591.85 57.75 589.05 58.3 L583.4 58.85 582.95 58.85 582.45 58.85 Q578.15 58.6 574.2 57.2 570.25 55.75 567.7 52.55 566.4 50.85 565.75 49.1 565.15 47.35 565.15 45.6 565.15 42.2 567.2 39.1 569.25 36.05 572.5 34.2 574.7 33.0 577.8 32.15 580.9 31.3 584.15 31.2 L584.95 31.1 585.7 31.1 591.0 31.75 Q593.55 32.4 595.4 34.05 596.3 34.95 596.9 36.15 597.5 37.4 597.65 38.75 L597.65 39.0 597.65 39.25 597.3 41.15 596.3 42.85 594.4 44.25 592.0 44.7 591.65 44.7 591.3 44.6 589.9 44.3 588.6 43.7 Q587.65 43.05 587.05 42.15 586.45 41.2 586.3 40.15 L586.3 40.05 586.3 39.8 586.2 39.65 586.2 39.5 Q586.2 37.8 587.35 36.55 588.45 35.3 590.1 34.85 L589.2 34.6 588.25 34.55 587.8 34.55 587.4 34.65 587.0 34.7 586.6 34.85 Q584.0 35.75 582.15 38.5 580.2 41.3 579.55 44.45 L579.35 45.9 579.3 47.3 Q579.35 50.2 580.85 52.3 582.3 54.4 585.7 54.4 591.4 54.4 594.95 51.25 597.65 48.85 599.65 45.65 600.0 43.0 601.6 40.55 603.65 37.4 607.05 35.15 610.05 33.25 613.7 32.1 617.4 31.05 621.35 31.05 L622.5 31.05 623.6 31.1 Q626.8 31.4 629.85 32.45 632.85 33.5 635.2 35.7 637.15 37.45 638.2 39.7 639.25 42.0 639.25 44.4 L639.1 46.15 638.65 48.0 640.45 47.4 642.0 46.1 642.9 45.0 643.8 43.4 647.85 45.15 646.8 47.25 645.5 49.75 644.65 51.1 645.05 50.8 Q646.95 49.6 649.05 49.25 L650.1 49.15 651.05 49.1 652.3 49.15 M623.95 34.7 L622.3 35.1 Q621.4 35.5 620.5 36.25 L619.85 36.9 619.1 37.7 Q617.4 39.65 616.4 42.25 615.35 44.75 614.9 47.45 L614.75 49.15 614.7 50.85 614.75 51.95 614.9 53.3 615.65 55.55 Q616.25 56.55 617.4 56.55 619.3 56.55 620.7 55.25 622.15 53.95 623.05 52.3 L623.5 51.65 623.85 50.9 Q622.7 50.1 622.05 48.9 621.4 47.65 621.4 46.25 L621.4 45.95 621.4 45.75 Q621.65 43.55 623.1 41.55 624.5 39.6 626.75 39.0 626.65 36.7 625.9 35.75 625.1 34.7 623.95 34.7 M540.3 43.6 Q540.75 50.85 535.75 54.8 L535.4 55.05 Q530.1 59.0 523.65 59.65 L522.05 59.75 520.6 59.8 518.7 59.75 516.7 59.55 Q514.1 59.25 511.6 58.25 509.1 57.3 507.3 55.4 506.05 53.85 505.5 52.15 L505.3 51.55 505.05 51.85 Q502.3 55.55 497.3 57.9 494.35 59.25 491.05 59.95 L484.3 60.55 483.25 60.55 482.2 60.45 478.0 60.0 473.9 58.9 Q468.7 57.1 465.3 53.4 L463.4 50.8 Q461.6 53.3 459.5 55.45 454.85 60.25 446.35 60.25 L445.05 60.2 443.65 60.05 Q441.55 59.8 439.6 59.05 437.7 58.25 436.4 56.55 435.5 55.3 435.1 54.0 434.75 52.65 434.75 51.25 L434.8 50.0 434.95 48.8 Q435.2 47.3 435.75 45.8 L436.75 42.9 437.1 41.95 437.75 40.3 438.05 39.45 438.3 38.6 438.6 37.15 438.75 36.0 438.45 34.75 Q438.1 34.25 437.4 34.25 435.8 34.25 434.35 35.7 432.85 37.2 431.8 38.95 L430.8 40.9 430.1 42.55 428.65 46.75 427.2 50.95 425.65 55.25 424.25 59.45 406.3 59.45 408.25 54.0 410.2 48.5 412.05 43.1 413.9 37.65 414.15 36.65 414.25 35.75 Q414.25 34.9 413.85 34.55 413.45 34.15 412.7 34.15 L411.8 34.3 410.8 34.7 409.8 35.35 408.85 36.35 Q407.5 37.9 405.9 40.7 404.35 43.55 402.55 48.35 L401.95 50.05 400.65 53.85 399.55 57.3 398.8 59.45 381.95 59.45 392.85 27.8 409.75 27.8 409.05 29.75 Q411.15 28.5 413.7 27.65 416.25 26.75 418.9 26.6 L419.4 26.6 419.95 26.6 422.55 26.75 425.0 27.4 Q426.9 28.05 428.45 29.3 430.0 30.65 430.6 32.7 433.3 29.85 436.7 28.3 440.1 26.75 443.7 26.75 L446.4 27.0 449.15 27.7 Q452.7 28.85 454.5 31.45 456.3 34.1 456.3 37.3 L456.1 39.45 455.45 41.75 454.95 43.25 454.2 45.35 454.0 45.9 453.85 46.45 453.15 48.8 Q452.85 49.95 452.85 50.65 L452.85 50.9 452.95 51.2 453.25 51.3 453.85 51.3 454.75 51.15 455.65 50.75 Q456.9 50.05 458.2 48.7 L460.45 45.85 461.95 43.7 462.15 42.05 462.8 39.4 Q464.6 34.0 470.15 30.95 475.65 27.95 481.85 27.1 L484.5 26.85 487.1 26.75 490.8 26.95 494.15 27.55 494.65 27.75 495.15 27.85 Q497.8 28.55 500.1 30.4 502.4 32.2 502.45 35.25 502.65 40.15 498.4 42.9 494.15 45.75 489.1 46.95 L483.65 48.0 479.15 48.15 Q479.6 51.4 481.65 53.2 483.65 54.95 487.0 54.95 493.75 54.95 498.4 51.15 503.0 47.35 505.65 41.6 L506.75 42.1 507.95 40.95 Q509.85 39.65 512.1 39.75 L512.6 39.75 513.05 39.75 513.45 39.8 513.9 39.9 521.95 28.7 539.0 24.4 539.65 34.0 540.3 43.6 M556.1 49.15 L557.5 49.45 Q559.65 49.95 561.4 51.4 563.25 52.85 563.1 55.25 562.9 57.45 561.2 58.65 559.5 59.85 557.45 60.25 L556.05 60.5 554.75 60.55 553.75 60.5 552.8 60.35 Q550.45 59.9 548.6 58.45 546.7 57.0 546.85 54.4 547.0 51.95 548.85 50.8 550.75 49.6 552.85 49.25 L553.9 49.15 554.85 49.1 556.1 49.15 M492.8 31.25 Q491.95 30.65 490.45 30.55 487.1 30.45 484.7 33.05 482.2 35.65 481.0 38.85 480.5 39.95 480.25 41.0 L479.8 43.0 482.05 42.75 484.4 42.2 Q487.8 41.3 490.7 39.2 493.5 37.15 493.6 33.45 493.6 31.9 492.8 31.25 M523.55 41.15 L523.55 35.65 518.15 42.9 518.95 44.5 519.15 46.25 518.9 48.0 518.05 49.55 Q517.2 50.85 515.65 51.65 514.1 52.4 512.45 52.4 L512.25 52.4 512.0 52.4 511.8 52.35 511.6 52.3 Q512.2 53.25 513.2 53.9 514.2 54.55 515.35 54.55 519.05 54.55 521.3 52.55 523.5 50.6 523.5 46.7 L523.55 41.15 M377.35 34.15 L375.05 40.7 372.8 47.3 372.7 47.6 372.65 48.0 372.45 48.45 372.35 49.05 372.3 49.45 372.3 49.8 372.4 50.5 372.9 50.95 373.35 51.05 373.85 51.0 374.9 50.8 375.9 50.3 377.9 48.7 379.7 46.6 381.1 44.65 381.95 43.0 382.1 42.65 382.3 42.3 Q382.3 42.1 382.45 41.95 L382.6 41.6 387.3 43.65 Q383.95 50.75 379.3 55.5 374.6 60.25 366.0 60.25 L365.75 60.25 365.55 60.25 Q362.6 60.15 360.05 58.9 357.45 57.75 356.25 54.9 353.75 57.15 350.65 58.55 347.55 60.0 344.25 60.25 L343.5 60.35 342.65 60.35 Q339.5 60.25 336.55 59.05 333.65 57.9 331.35 55.1 329.65 53.0 328.9 50.75 328.15 48.5 328.15 46.15 328.15 42.05 330.35 38.15 332.55 34.25 336.0 31.6 338.6 29.65 342.0 28.35 345.45 27.05 349.1 26.85 L349.85 26.75 350.65 26.75 Q353.5 26.75 356.25 27.6 358.9 28.5 361.1 30.3 L362.0 27.55 370.8 27.55 379.6 27.55 378.45 30.85 377.35 34.15 M325.6 18.95 Q323.35 20.7 320.55 20.9 L320.3 20.9 320.1 20.9 317.8 20.4 Q316.65 20.05 315.75 19.25 L315.4 18.95 315.0 18.6 314.9 18.55 314.85 18.45 314.6 18.25 314.4 18.05 315.75 16.7 316.8 15.25 317.5 14.0 317.65 12.85 Q317.65 11.8 316.65 11.15 315.65 10.5 313.2 10.5 307.45 10.5 302.35 16.5 297.25 22.5 294.25 29.8 L293.85 30.8 293.45 31.95 293.3 32.25 293.2 32.55 292.1 35.7 Q291.65 37.4 291.35 39.1 L291.1 40.9 291.0 42.65 291.1 44.1 291.35 45.55 Q291.7 46.9 292.45 47.45 293.2 48.0 294.05 48.0 L294.7 47.95 295.35 47.8 297.05 46.9 298.5 45.65 Q299.85 44.0 301.3 41.1 302.75 38.25 304.3 33.5 L304.75 32.2 305.7 29.3 306.6 26.85 307.15 25.3 330.75 25.3 328.5 31.85 326.2 38.4 323.9 45.05 321.65 51.6 Q317.9 62.35 308.2 68.9 298.5 75.45 287.4 75.45 L283.6 75.2 279.8 74.55 Q274.85 73.35 272.4 71.15 269.95 68.95 269.4 66.5 L269.25 65.7 269.25 64.95 Q269.3 61.6 271.75 59.1 274.2 56.6 277.55 56.65 279.05 56.65 280.5 57.25 281.95 57.8 283.45 59.25 L283.8 59.65 284.2 60.0 284.6 60.4 284.95 60.8 284.15 61.2 283.25 61.7 Q281.8 62.55 280.5 63.7 279.25 64.9 279.35 66.7 L279.35 67.0 279.35 67.2 Q279.55 68.75 280.65 69.45 281.8 70.2 283.25 70.3 L285.7 69.9 Q287.05 69.35 288.35 68.3 L289.4 67.45 290.45 66.4 Q293.1 63.6 294.7 60.25 296.35 56.85 297.5 53.25 L294.75 54.0 291.9 54.6 290.5 54.75 289.1 54.75 Q284.6 54.75 280.45 52.9 276.75 51.25 274.25 47.8 L273.7 48.75 Q272.5 50.8 270.7 52.55 269.0 54.3 266.65 54.3 L264.85 54.0 263.25 53.3 Q260.8 55.3 257.45 56.45 254.15 57.55 250.65 57.8 L250.1 57.8 249.5 57.8 Q246.25 57.8 243.2 56.8 240.15 55.8 237.85 53.85 236.05 52.2 235.2 50.35 234.4 48.45 234.4 46.6 234.4 43.6 236.15 40.9 237.95 38.2 240.85 36.25 243.4 34.65 246.55 33.65 249.7 32.75 253.05 32.75 L254.05 32.8 255.0 32.8 Q257.7 33.05 260.3 33.95 262.9 34.9 264.9 36.75 266.6 38.25 267.5 40.15 268.35 42.1 268.35 44.15 L268.2 45.7 267.85 47.25 269.4 46.75 270.7 45.6 271.45 44.65 272.0 43.85 271.15 41.5 Q270.4 38.6 270.4 35.6 L270.45 34.15 270.6 32.65 271.1 29.6 271.95 26.7 Q274.85 18.35 282.55 13.05 290.25 7.75 298.85 6.2 L302.55 5.7 306.1 5.5 310.45 5.65 316.2 6.3 Q320.55 7.05 324.2 8.9 327.85 10.75 327.85 14.45 327.85 17.2 325.6 18.95 M358.35 33.0 Q358.05 32.35 356.75 32.35 L355.85 32.45 354.95 32.7 Q353.25 33.45 351.5 35.25 349.8 37.05 348.4 39.1 L346.7 42.0 345.55 44.35 345.25 45.25 344.85 46.7 344.45 48.05 344.2 49.45 Q344.0 49.95 343.95 50.6 L343.9 51.75 Q343.9 53.15 344.35 54.0 344.85 54.95 346.0 54.95 348.65 54.95 350.65 52.75 352.7 50.6 354.15 48.0 L355.5 45.4 356.5 43.1 358.1 38.25 Q358.65 36.15 358.65 34.7 358.65 33.6 358.35 33.0 M255.3 35.9 L253.9 36.25 Q253.1 36.6 252.35 37.2 L251.75 37.8 251.15 38.45 Q249.7 40.15 248.85 42.3 247.95 44.5 247.55 46.75 L247.45 48.25 247.4 49.65 247.4 50.6 247.55 51.75 Q247.75 52.85 248.2 53.7 248.7 54.55 249.7 54.55 251.3 54.55 252.5 53.45 253.75 52.3 254.5 50.95 L254.9 50.35 255.2 49.75 Q254.2 49.05 253.65 48.0 253.1 46.95 253.1 45.75 L253.1 45.5 253.1 45.3 Q253.3 43.45 254.55 41.75 255.75 40.05 257.65 39.55 257.6 37.6 256.95 36.75 256.25 35.9 255.3 35.9 M218.45 32.45 L222.0 33.0 Q223.8 33.55 225.4 34.65 L225.8 33.35 237.9 33.35 235.65 40.05 233.35 46.7 231.0 53.35 228.7 60.05 Q227.25 64.35 222.95 67.1 218.65 69.9 213.8 70.55 L212.6 70.65 211.4 70.65 207.55 70.25 Q205.7 69.75 204.15 68.85 202.7 68.0 201.75 66.6 200.85 65.25 200.6 63.8 L200.5 63.15 200.45 62.55 Q200.55 61.0 201.5 59.75 202.4 58.45 204.6 58.05 L204.85 58.05 205.15 58.0 205.4 58.0 205.65 58.0 Q207.95 58.0 209.35 59.45 210.7 60.95 210.8 62.7 L210.8 62.8 210.8 62.9 Q210.8 64.15 210.0 65.3 209.2 66.5 207.5 67.05 L207.8 67.15 208.15 67.25 208.4 67.35 208.7 67.35 Q212.0 67.45 213.8 65.0 215.65 62.5 216.8 59.6 L217.6 57.25 218.3 55.1 216.55 55.7 214.75 56.05 213.85 56.15 213.0 56.2 Q208.95 56.2 205.85 53.7 202.75 51.2 202.75 46.45 202.75 40.95 207.25 37.0 211.75 33.0 217.1 32.55 L217.75 32.5 218.45 32.45 M222.25 36.6 L222.0 36.6 220.8 36.9 219.55 37.7 Q218.3 38.85 217.1 40.7 215.85 42.55 215.0 44.5 L214.05 47.25 Q213.7 48.6 213.7 49.65 L213.8 50.55 214.0 51.35 214.55 52.0 215.25 52.2 Q217.85 52.2 219.45 49.95 221.1 47.65 222.0 44.9 L223.1 41.55 223.95 38.85 223.95 38.55 223.9 38.25 223.6 37.4 222.85 36.8 222.65 36.7 222.5 36.65 222.25 36.6 M170.85 9.75 L164.3 28.55 157.9 47.3 157.35 48.8 157.2 49.95 Q157.2 50.5 157.65 50.8 L159.1 51.0 Q159.8 51.0 160.9 50.45 L163.15 48.8 Q164.8 47.15 165.8 45.35 L166.2 44.65 Q166.6 43.2 167.5 42.15 L167.75 41.55 167.95 41.65 168.75 40.95 Q170.65 39.65 172.9 39.75 L173.4 39.75 173.85 39.75 174.25 39.8 174.7 39.9 182.75 28.7 199.8 24.4 200.45 34.0 201.1 43.6 Q201.55 51.1 196.2 55.05 190.9 59.0 184.45 59.65 L182.85 59.75 181.4 59.8 179.5 59.75 177.5 59.55 Q174.9 59.25 172.4 58.25 169.9 57.3 168.1 55.4 167.15 54.25 166.65 53.0 L164.55 55.4 Q160.15 60.25 151.7 60.25 L150.7 60.2 149.8 60.15 Q147.5 59.9 145.35 59.0 143.15 58.15 141.8 56.25 140.9 55.0 140.5 53.45 140.0 51.95 140.0 50.4 L140.05 49.7 140.1 49.15 140.55 46.55 141.25 44.05 147.2 26.85 153.0 9.75 157.5 9.75 161.95 9.75 166.35 9.75 170.85 9.75 M179.7 48.0 L178.85 49.55 Q178.0 50.85 176.45 51.65 174.9 52.4 173.25 52.4 L173.05 52.4 172.8 52.4 172.6 52.35 172.4 52.3 Q173.0 53.25 174.0 53.9 175.0 54.55 176.15 54.55 179.85 54.55 182.1 52.55 184.3 50.6 184.3 46.7 L184.35 41.15 184.35 35.65 178.95 42.9 179.75 44.5 179.95 46.25 179.7 48.0 M135.05 26.35 Q136.3 26.7 137.5 27.45 138.65 28.25 139.35 29.45 L140.3 31.9 140.45 33.0 140.45 33.95 Q140.45 37.3 138.45 39.25 136.4 41.2 134.0 41.2 L133.85 41.2 133.7 41.2 Q131.8 41.2 130.1 39.9 128.4 38.65 127.65 35.85 L126.95 34.65 Q126.55 34.2 126.05 34.3 125.1 34.3 124.0 35.35 122.85 36.4 121.6 38.25 119.4 41.0 117.9 44.45 116.4 47.9 115.2 51.4 L114.15 54.4 113.2 57.3 112.85 58.35 112.5 59.45 95.8 59.45 103.3 38.5 103.45 37.85 103.45 37.4 Q103.45 36.4 102.65 36.05 L100.9 35.85 Q98.55 36.1 96.75 38.0 94.95 39.9 93.8 42.1 L93.25 43.05 94.6 43.75 94.15 44.6 93.65 45.4 90.55 51.0 Q88.8 53.75 86.35 55.9 84.1 57.9 81.1 59.0 78.05 60.05 74.8 60.25 L74.4 60.25 74.0 60.25 71.25 60.05 68.65 59.45 Q65.2 58.25 63.75 55.8 62.35 53.3 62.35 50.3 62.35 49.35 62.5 48.3 L62.9 46.15 63.2 45.1 63.5 44.1 66.35 35.8 69.2 27.55 73.6 27.55 78.05 27.55 82.5 27.55 86.9 27.55 85.8 30.85 84.65 34.15 82.35 40.7 80.15 47.3 79.7 48.65 79.5 49.9 Q79.5 50.4 79.9 50.75 L81.3 51.0 Q82.05 51.0 83.15 50.45 L85.4 48.8 Q87.0 47.15 88.0 45.35 L89.4 42.75 88.3 42.3 Q90.6 36.1 95.15 31.2 99.75 26.3 106.6 25.95 L107.9 25.85 109.3 25.95 Q112.3 26.1 115.05 27.45 117.8 28.75 119.4 31.35 L123.6 28.6 Q125.85 27.4 128.2 26.65 L130.3 26.15 132.35 26.0 135.05 26.35 M84.35 12.05 L84.95 12.2 85.4 12.4 Q87.25 13.2 88.85 14.65 90.45 16.1 90.45 18.15 L90.35 18.75 90.25 19.4 Q89.7 21.1 88.25 22.25 86.85 23.4 85.2 23.95 L84.55 24.05 84.0 24.2 82.5 24.4 81.05 24.45 77.05 24.0 Q75.05 23.5 73.55 22.3 72.35 21.45 71.7 20.2 71.0 18.95 71.0 17.7 71.0 16.95 71.25 16.25 71.55 15.5 72.0 14.9 73.25 13.25 75.3 12.45 77.35 11.65 79.5 11.45 L80.0 11.45 80.5 11.45 82.45 11.6 84.35 12.05 M61.35 18.95 Q59.1 20.7 56.3 20.9 L56.05 20.9 55.85 20.9 53.55 20.4 Q52.4 20.05 51.5 19.25 L51.15 18.95 50.75 18.6 50.65 18.55 50.6 18.45 50.35 18.25 50.15 18.05 51.5 16.7 52.55 15.25 53.25 14.0 53.4 12.85 Q53.4 11.8 52.4 11.15 51.4 10.5 48.95 10.5 43.2 10.5 38.1 16.5 33.0 22.5 30.0 29.8 L29.6 30.8 29.2 31.95 29.05 32.25 28.95 32.55 27.85 35.7 27.1 39.1 26.85 40.9 26.75 42.65 26.85 44.1 27.1 45.55 Q27.45 46.9 28.2 47.45 28.95 48.0 29.8 48.0 L30.45 47.95 31.1 47.8 Q31.95 47.45 32.8 46.9 L34.25 45.65 Q35.6 44.0 37.05 41.1 38.5 38.25 40.05 33.5 L40.5 32.2 41.45 29.3 42.35 26.85 42.9 25.3 66.5 25.3 64.25 31.85 61.95 38.4 59.65 45.05 57.4 51.6 Q53.65 62.35 43.95 68.9 34.25 75.45 23.15 75.45 L19.35 75.2 15.55 74.55 Q10.6 73.35 8.15 71.15 5.7 68.95 5.15 66.5 L5.0 65.7 5.0 64.95 Q5.05 61.6 7.5 59.1 9.95 56.6 13.3 56.65 14.8 56.65 16.25 57.25 17.7 57.8 19.2 59.25 L19.55 59.65 19.95 60.0 20.35 60.4 20.7 60.8 19.9 61.2 19.0 61.7 16.25 63.7 Q15.0 64.9 15.1 66.7 L15.1 67.0 15.1 67.2 Q15.3 68.75 16.4 69.45 17.55 70.2 19.0 70.3 20.15 70.4 21.45 69.9 22.8 69.35 24.1 68.3 L25.15 67.45 26.2 66.4 Q28.85 63.6 30.45 60.25 32.1 56.85 33.25 53.25 L30.5 54.0 27.65 54.6 26.25 54.75 24.85 54.75 Q20.35 54.75 16.2 52.9 12.1 51.05 9.4 46.95 7.7 44.35 6.9 41.5 6.15 38.6 6.15 35.6 L6.2 34.15 6.35 32.65 6.85 29.6 7.7 26.7 Q10.6 18.35 18.3 13.05 26.0 7.75 34.6 6.2 L38.3 5.7 41.85 5.5 46.2 5.65 51.95 6.3 Q56.3 7.05 59.95 8.9 63.6 10.75 63.6 14.45 63.6 17.2 61.35 18.95" fill="#ffffff" fill-rule="evenodd" stroke="none"/>
  </g>
  <defs>
    <linearGradient gradientTransform="matrix(0.0, 0.0318, -0.0313, 0.0, 705.75, 38.05)" gradientUnits="userSpaceOnUse" id="gradient0" spreadMethod="pad" x1="-819.2" x2="819.2">
      <stop offset="0.0" stop-color="#e60199"/>
      <stop offset="1.0" stop-color="#710168"/>
    </linearGradient>
    <linearGradient gradientTransform="matrix(0.0, 0.0319, -0.0241, 0.0, 612.3, 45.9)" gradientUnits="userSpaceOnUse" id="gradient1" spreadMethod="pad" x1="-819.2" x2="819.2">
      <stop offset="0.0" stop-color="#e60199"/>
      <stop offset="1.0" stop-color="#710168"/>
    </linearGradient>
    <linearGradient gradientTransform="matrix(0.0, 0.0334, -0.0194, 0.0, 620.8, 45.7)" gradientUnits="userSpaceOnUse" id="gradient2" spreadMethod="pad" x1="-819.2" x2="819.2">
      <stop offset="0.0" stop-color="#e60199"/>
      <stop offset="1.0" stop-color="#710168"/>
    </linearGradient>
    <linearGradient gradientTransform="matrix(0.0, 0.0295, -0.0131, 0.0, 555.05, 54.9)" gradientUnits="userSpaceOnUse" id="gradient3" spreadMethod="pad" x1="-819.2" x2="819.2">
      <stop offset="0.0" stop-color="#e60199"/>
      <stop offset="1.0" stop-color="#710168"/>
    </linearGradient>
    <linearGradient gradientTransform="matrix(0.0, 0.0488, -0.0649, 0.0, 282.6, 40.45)" gradientUnits="userSpaceOnUse" id="gradient4" spreadMethod="pad" x1="-819.2" x2="819.2">
      <stop offset="0.0" stop-color="#ef019d"/>
      <stop offset="1.0" stop-color="#5a015f"/>
    </linearGradient>
  </defs>
</svg>
