<?xml version="1.0" encoding="UTF-8" standalone="no"?>
<svg xmlns:xlink="http://www.w3.org/1999/xlink" height="74.9px" width="57.25px" xmlns="http://www.w3.org/2000/svg">
  <g transform="matrix(1.0, 0.0, 0.0, 1.0, 1.65, 3.6)">
    <path d="M12.2 42.6 L13.0 42.05 11.4 39.35 38.0 -0.6 52.6 8.5 28.35 50.45 25.65 50.05 25.85 52.55 25.85 52.95 25.75 53.0 Q26.8 57.5 24.5 61.7 22.25 66.2 17.35 67.7 12.4 69.2 7.95 66.8 3.4 64.4 2.0 59.6 0.4 54.75 2.75 50.2 5.15 45.7 10.1 44.3 L10.0 44.05 12.2 42.6" fill="#000000" fill-rule="evenodd" stroke="none"/>
    <path d="M12.2 42.6 L10.0 44.05 10.1 44.3 Q5.15 45.7 2.75 50.2 0.4 54.75 2.0 59.6 3.4 64.4 7.95 66.8 12.4 69.2 17.35 67.7 22.25 66.2 24.5 61.7 26.8 57.5 25.75 53.0 L25.85 52.95 25.85 52.55 25.65 50.05 28.35 50.45 52.6 8.5 38.0 -0.6 11.4 39.35 13.0 42.05 12.2 42.6 Z" fill="none" stroke="#001000" stroke-linecap="round" stroke-linejoin="round" stroke-width="6.0"/>
    <path d="M26.0 27.45 L31.8 30.35 19.1 53.0 14.05 49.45 26.0 27.45" fill="#c8c8c8" fill-rule="evenodd" stroke="none"/>
    <path d="M14.05 49.45 L11.2 48.15 23.35 25.95 26.0 27.45 14.05 49.45" fill="#e6e6e6" fill-rule="evenodd" stroke="none"/>
    <path d="M31.8 30.35 L33.75 31.45 21.2 54.3 19.1 53.0 31.8 30.35" fill="#a2a2a2" fill-rule="evenodd" stroke="none"/>
    <path d="M14.05 49.45 L11.2 48.15 M21.2 54.3 L19.1 53.0 14.05 49.45 Z" fill="none" stroke="#283757" stroke-linecap="round" stroke-linejoin="round" stroke-opacity="0.49803922" stroke-width="0.1"/>
    <path d="M25.7 28.6 L23.15 26.7 41.75 2.7 44.15 4.65 25.7 28.6" fill="#e6e6e6" fill-rule="evenodd" stroke="none"/>
    <path d="M49.35 8.6 L51.2 10.0 31.85 34.6 29.95 33.0 49.35 8.6" fill="#a2a2a2" fill-rule="evenodd" stroke="none"/>
    <path d="M44.15 4.65 L49.35 8.6 29.95 33.0 25.7 28.6 44.15 4.65" fill="#c8c8c8" fill-rule="evenodd" stroke="none"/>
    <path d="M31.85 34.6 L29.95 33.0 25.7 28.6 23.15 26.7" fill="none" stroke="#283757" stroke-linecap="round" stroke-linejoin="round" stroke-opacity="0.49803922" stroke-width="0.1"/>
    <path d="M25.1 24.4 L26.05 24.15 Q28.2 23.75 30.15 24.7 31.95 25.8 32.85 27.45 L33.45 28.9 33.75 31.1 Q33.7 32.5 33.0 33.9 32.15 35.5 30.95 36.35 30.1 37.0 29.0 37.25 L27.95 37.55 Q25.85 37.75 23.8 36.8 22.4 35.95 21.65 34.8 20.8 33.9 20.55 32.85 L20.35 31.3 Q20.05 29.4 21.05 27.65 21.95 25.75 23.7 24.8 L25.1 24.4" fill="#b7b7b7" fill-rule="evenodd" stroke="none"/>
    <path d="M24.35 24.75 Q26.5 24.05 28.5 25.05 30.5 26.15 31.2 28.3 31.9 30.45 30.9 32.35 29.9 34.4 27.75 35.1 25.6 35.8 23.55 34.75 21.55 33.8 20.85 31.65 20.15 29.5 21.15 27.45 22.2 25.45 24.35 24.75" fill="#dae3e9" fill-rule="evenodd" stroke="none"/>
    <path d="M22.25 29.55 Q22.0 28.85 22.35 28.1 22.75 27.45 23.45 27.2 L24.85 27.3 Q25.55 27.65 25.8 28.35 26.05 29.1 25.65 29.8 25.35 30.5 24.6 30.75 L23.15 30.6 Q22.5 30.3 22.25 29.55" fill="#ffffff" fill-rule="evenodd" stroke="none"/>
    <path d="M19.45 45.0 Q21.4 46.1 22.7 47.55 23.8 48.75 24.5 50.2 L25.55 52.25 Q27.0 57.15 24.5 61.7 22.25 66.2 17.35 67.7 12.4 69.2 7.95 66.8 3.4 64.4 2.0 59.6 0.4 54.75 2.75 50.2 5.15 45.65 10.15 44.25 11.55 43.75 12.95 43.6 L15.85 43.75 Q17.7 44.2 19.45 45.0" fill="#289504" fill-rule="evenodd" stroke="none"/>
    <path d="M3.3 57.55 Q2.1 53.9 3.75 50.45 5.6 47.1 9.2 45.9 12.85 44.7 16.15 46.45 19.65 48.2 20.85 51.85 22.0 55.5 20.2 58.85 18.55 62.25 14.9 63.45 11.3 64.65 7.8 62.85 4.45 61.2 3.3 57.55" fill="#54bb03" fill-rule="evenodd" stroke="none"/>
    <path d="M4.75 55.45 Q4.2 53.8 4.95 52.25 5.75 50.75 7.35 50.2 9.0 49.7 10.5 50.45 12.05 51.25 12.6 52.9 13.1 54.5 12.3 56.0 11.55 57.55 9.9 58.05 8.3 58.6 6.75 57.8 5.25 57.05 4.75 55.45" fill="#ffffff" fill-opacity="0.69411767" fill-rule="evenodd" stroke="none"/>
    <path d="M10.85 46.25 L11.65 45.45 13.4 43.85 Q13.75 43.6 14.05 43.45 15.35 42.55 16.2 42.4 L16.4 42.4 20.1 44.85 22.9 46.6 23.15 48.8 23.05 51.4 22.6 53.2 Q19.7 53.0 16.45 51.3 12.6 49.25 10.85 46.25" fill="#c8c8c8" fill-rule="evenodd" stroke="none"/>
    <path d="M16.4 42.4 L16.2 42.4 Q15.35 42.55 14.05 43.45 13.75 43.6 13.4 43.85 L11.65 45.45 10.85 46.25 10.0 44.05 12.2 42.6 15.3 40.45 Q15.7 41.5 16.4 42.4" fill="#e6e6e6" fill-rule="evenodd" stroke="none"/>
    <path d="M22.6 53.2 L23.05 51.4 23.15 48.8 22.9 46.6 25.35 46.85 25.85 52.55 25.85 52.95 22.6 53.2" fill="#a2a2a2" fill-rule="evenodd" stroke="none"/>
    <path d="M11.4 39.35 L38.0 -0.6 52.6 8.5 28.35 50.45 Q16.25 49.1 11.4 39.35" fill="#011e04" fill-rule="evenodd" stroke="none"/>
  </g>
</svg>
