<?xml version="1.0" encoding="UTF-8" standalone="no"?>
<svg xmlns:xlink="http://www.w3.org/1999/xlink" height="79.95px" width="809.9px" xmlns="http://www.w3.org/2000/svg">
  <g transform="matrix(1.0, 0.0, 0.0, 1.0, 0.0, -0.5)">
    <path d="M787.65 34.65 Q789.3 33.45 791.1 32.4 792.95 31.4 794.85 30.75 L796.6 30.35 798.25 30.25 800.45 30.55 Q801.5 30.85 802.45 31.45 803.4 32.1 804.0 33.1 804.55 34.05 804.75 35.05 L804.9 35.95 804.9 36.75 Q804.9 39.5 803.25 41.1 801.55 42.7 799.6 42.7 L799.45 42.7 799.35 42.7 Q797.8 42.7 796.4 41.65 795.0 40.65 794.4 38.3 L793.85 37.35 793.1 37.05 Q792.3 37.05 791.4 37.9 790.5 38.8 789.45 40.25 787.65 42.55 786.4 45.35 785.15 48.2 784.2 51.05 L783.35 53.5 782.55 55.9 782.25 56.75 782.0 57.65 768.3 57.65 774.45 40.5 774.6 39.95 774.6 39.6 Q774.6 38.8 773.95 38.5 L772.5 38.3 Q770.55 38.55 769.1 40.1 767.6 41.65 766.65 43.45 L766.2 44.25 765.85 45.1 762.15 43.6 Q764.05 38.55 767.8 34.55 771.55 30.5 777.15 30.2 L778.25 30.1 779.4 30.2 Q781.8 30.35 784.1 31.4 786.3 32.5 787.65 34.65 M745.8 16.95 L740.25 33.2 Q742.1 32.05 744.0 31.45 L747.95 30.9 749.6 31.0 751.3 31.3 Q755.45 32.3 757.55 35.2 759.75 38.15 759.65 41.9 L759.5 43.45 759.25 45.1 Q757.95 51.15 752.95 54.15 747.95 57.2 742.25 57.95 L739.7 58.25 737.15 58.3 735.0 58.25 732.7 58.0 Q730.05 57.65 727.55 56.65 725.0 55.65 723.4 53.55 722.4 52.25 721.95 50.7 721.45 49.2 721.45 47.55 L721.5 46.7 721.6 45.8 722.0 44.0 722.5 42.25 726.9 29.55 731.25 16.95 745.8 16.95 M743.75 36.2 Q742.1 36.2 740.55 37.85 739.0 39.5 737.8 41.45 L736.45 43.9 735.6 45.8 Q734.7 48.0 734.15 49.9 733.6 51.7 733.7 53.05 733.7 53.95 734.15 54.45 734.6 55.0 735.65 55.0 738.0 55.0 739.9 53.05 741.75 51.1 742.95 48.85 L743.95 46.9 744.7 45.05 744.95 44.3 745.3 43.25 745.6 42.05 745.9 40.7 746.0 39.9 746.05 39.15 Q746.05 37.9 745.5 37.0 745.0 36.2 743.75 36.2 M692.75 31.05 L695.0 31.65 Q697.9 32.55 699.4 34.7 700.85 36.85 700.85 39.5 L700.7 41.3 700.2 43.15 699.75 44.4 699.15 46.1 699.0 46.55 698.85 47.0 698.3 48.95 698.05 50.45 698.05 50.65 698.1 50.9 698.35 50.95 698.85 50.95 699.6 50.85 700.3 50.55 702.4 48.85 704.25 46.5 705.55 44.55 706.4 43.0 710.1 44.75 707.5 49.4 709.15 48.95 710.2 48.85 711.15 48.8 712.4 48.85 713.8 49.15 Q715.95 49.65 717.7 51.1 719.55 52.55 719.4 54.95 719.2 57.15 717.5 58.35 715.8 59.55 713.75 59.95 L712.35 60.2 711.05 60.25 710.05 60.2 709.1 60.05 Q706.75 59.6 704.9 58.15 703.25 56.85 703.15 54.7 699.35 58.3 692.7 58.3 L691.65 58.25 690.5 58.15 687.2 57.3 Q685.6 56.65 684.55 55.25 683.85 54.25 683.5 53.15 L683.25 50.95 683.25 49.9 683.4 48.9 Q683.6 47.7 684.05 46.45 L684.85 44.1 685.15 43.3 685.7 41.95 685.9 41.3 686.1 40.55 686.4 39.4 686.5 38.45 686.25 37.4 Q686.0 37.0 685.4 37.0 684.05 37.0 682.85 38.2 681.7 39.45 680.8 40.85 L680.0 42.45 679.4 43.8 678.2 47.25 677.0 50.7 675.75 54.2 674.6 57.65 659.95 57.65 661.5 53.2 663.1 48.7 664.6 44.25 666.15 39.8 666.35 38.95 666.45 38.25 Q666.45 37.5 666.1 37.25 665.8 36.95 665.15 36.95 L664.4 37.05 663.6 37.4 662.8 37.9 662.0 38.7 659.6 42.3 Q658.3 44.65 656.8 48.55 L656.35 49.95 655.25 53.05 654.35 55.9 653.8 57.65 639.95 57.65 640.7 55.55 638.35 55.95 636.25 55.65 634.35 54.75 Q631.5 57.15 627.6 58.5 623.7 59.8 619.65 60.05 L619.0 60.05 618.3 60.05 Q614.45 60.05 610.9 58.9 607.35 57.7 604.65 55.45 602.55 53.5 601.55 51.35 L601.15 51.85 Q599.1 54.55 595.25 56.4 592.95 57.45 590.15 58.0 L584.5 58.55 584.05 58.55 583.55 58.55 Q579.25 58.3 575.3 56.9 571.35 55.45 568.8 52.25 567.5 50.55 566.85 48.8 566.25 47.05 566.25 45.3 566.25 41.9 568.3 38.8 570.35 35.75 573.6 33.9 575.8 32.7 578.9 31.85 582.0 31.0 585.25 30.9 L586.05 30.8 586.8 30.8 592.1 31.45 Q594.65 32.1 596.5 33.75 L598.0 35.85 Q598.6 37.1 598.75 38.45 L598.75 38.7 598.75 38.95 598.4 40.85 597.4 42.55 Q596.55 43.5 595.5 43.95 L593.1 44.4 592.75 44.4 592.4 44.3 591.0 44.0 589.7 43.4 Q588.75 42.75 588.15 41.85 587.55 40.9 587.4 39.85 L587.4 39.75 587.4 39.5 587.3 39.35 587.3 39.2 Q587.3 37.5 588.45 36.25 589.55 35.0 591.2 34.55 L590.3 34.3 589.35 34.25 588.9 34.25 588.5 34.35 588.1 34.4 587.7 34.55 Q585.1 35.45 583.25 38.2 581.3 41.0 580.65 44.15 L580.45 45.6 580.4 47.0 Q580.45 49.9 581.95 52.0 583.4 54.1 586.8 54.1 592.5 54.1 596.05 50.95 598.75 48.55 600.75 45.35 601.1 42.7 602.7 40.25 604.75 37.1 608.15 34.85 611.15 32.95 614.8 31.8 618.5 30.75 622.45 30.75 L623.6 30.75 624.7 30.8 Q627.9 31.1 630.95 32.15 633.95 33.2 636.3 35.4 638.25 37.15 639.3 39.4 640.35 41.7 640.35 44.1 L640.2 45.85 639.75 47.7 641.55 47.1 643.1 45.8 644.0 44.7 644.9 43.1 644.95 43.15 648.9 31.7 662.75 31.7 662.15 33.35 Q663.85 32.3 665.95 31.6 668.05 30.9 670.2 30.75 L670.65 30.75 671.1 30.75 673.2 30.9 Q674.25 31.0 675.25 31.4 676.8 31.9 678.05 32.95 679.35 34.05 679.85 35.75 682.05 33.4 684.8 32.15 687.6 30.9 690.55 30.9 L692.75 31.05 M625.05 34.4 Q624.3 34.4 623.4 34.8 622.5 35.2 621.6 35.95 L620.95 36.6 620.2 37.4 Q618.5 39.35 617.5 41.95 616.45 44.45 616.0 47.15 L615.85 48.85 615.8 50.55 615.85 51.65 616.0 53.0 Q616.25 54.25 616.75 55.25 617.35 56.25 618.5 56.25 620.4 56.25 621.8 54.95 623.25 53.65 624.15 52.0 L624.6 51.35 624.95 50.6 Q623.8 49.8 623.15 48.6 622.5 47.35 622.5 45.95 L622.5 45.65 622.5 45.45 Q622.75 43.25 624.2 41.25 625.6 39.3 627.85 38.7 627.75 36.4 627.0 35.45 626.2 34.4 625.05 34.4 M557.2 48.85 L558.6 49.15 Q560.75 49.65 562.5 51.1 564.35 52.55 564.2 54.95 564.0 57.15 562.3 58.35 560.6 59.55 558.55 59.95 L557.15 60.2 555.85 60.25 554.85 60.2 553.9 60.05 Q551.55 59.6 549.7 58.15 547.8 56.7 547.95 54.1 548.1 51.65 549.95 50.5 551.85 49.3 553.95 48.95 L555.0 48.85 555.95 48.8 557.2 48.85" fill="none" stroke="url(#gradient0)" stroke-linecap="round" stroke-linejoin="round" stroke-width="10.0"/>
    <path d="M540.3 43.6 Q540.75 51.1 535.4 55.05 530.1 59.0 523.65 59.65 L522.05 59.75 520.6 59.8 518.7 59.75 516.7 59.55 Q514.1 59.25 511.6 58.25 509.1 57.3 507.3 55.4 506.05 53.85 505.5 52.15 L505.4 51.75 505.3 51.55 505.05 51.85 Q502.3 55.55 497.3 57.9 494.35 59.25 491.05 59.95 L484.3 60.55 483.25 60.55 482.2 60.45 478.0 60.0 473.9 58.9 Q468.7 57.1 465.3 53.4 L463.4 50.8 Q461.6 53.3 459.5 55.45 454.85 60.25 446.35 60.25 L445.05 60.2 443.65 60.05 Q441.55 59.8 439.6 59.05 437.7 58.25 436.4 56.55 435.5 55.3 435.1 54.0 434.75 52.65 434.75 51.25 L434.8 50.0 434.95 48.8 Q435.2 47.3 435.75 45.8 L436.75 42.9 437.1 41.95 437.75 40.3 438.05 39.45 438.3 38.6 438.6 37.15 438.75 36.0 438.45 34.75 Q438.1 34.25 437.4 34.25 435.8 34.25 434.35 35.7 432.85 37.2 431.8 38.95 L430.8 40.9 430.1 42.55 428.65 46.75 427.2 50.95 425.65 55.25 424.25 59.45 406.3 59.45 408.25 54.0 410.2 48.5 412.05 43.1 413.9 37.65 414.15 36.65 414.25 35.75 Q414.25 34.9 413.85 34.55 413.45 34.15 412.7 34.15 L411.8 34.3 410.8 34.7 409.8 35.35 408.85 36.35 Q407.5 37.9 405.9 40.7 404.35 43.55 402.55 48.35 L401.95 50.05 400.65 53.85 399.55 57.3 398.8 59.45 381.95 59.45 392.85 27.8 409.75 27.8 409.05 29.75 Q411.15 28.5 413.7 27.65 416.25 26.75 418.9 26.6 L419.4 26.6 419.95 26.6 422.55 26.75 425.0 27.4 Q426.9 28.05 428.45 29.3 430.0 30.65 430.6 32.7 433.3 29.85 436.7 28.3 440.1 26.75 443.7 26.75 L446.4 27.0 449.15 27.7 Q452.7 28.85 454.5 31.45 456.3 34.1 456.3 37.3 L456.1 39.45 455.45 41.75 454.95 43.25 454.2 45.35 454.0 45.9 453.85 46.45 453.15 48.8 Q452.85 49.95 452.85 50.65 L452.85 50.9 452.95 51.2 453.25 51.3 453.85 51.3 454.75 51.15 455.65 50.75 Q456.9 50.05 458.2 48.7 L460.45 45.85 461.95 43.7 462.15 42.05 462.8 39.4 Q464.6 34.0 470.15 30.95 475.65 27.95 481.85 27.1 L484.5 26.85 487.1 26.75 490.8 26.95 494.15 27.55 494.65 27.75 495.15 27.85 Q497.8 28.55 500.1 30.4 502.4 32.2 502.45 35.25 502.65 40.15 498.4 42.9 494.15 45.75 489.1 46.95 L483.65 48.0 479.15 48.15 Q479.6 51.4 481.65 53.2 483.65 54.95 487.0 54.95 493.75 54.95 498.4 51.15 503.0 47.35 505.65 41.6 L506.75 42.1 507.95 40.95 Q509.85 39.65 512.1 39.75 L512.6 39.75 513.05 39.75 513.45 39.8 513.9 39.9 521.95 28.7 539.0 24.4 539.65 34.0 540.3 43.6 M490.45 30.55 Q487.1 30.45 484.7 33.05 482.2 35.65 481.0 38.85 480.5 39.95 480.25 41.0 L479.8 43.0 482.05 42.75 484.4 42.2 Q487.8 41.3 490.7 39.2 493.5 37.15 493.6 33.45 493.6 31.9 492.8 31.25 491.95 30.65 490.45 30.55 M523.55 41.15 L523.55 35.65 518.15 42.9 518.95 44.5 519.15 46.25 518.9 48.0 518.05 49.55 Q517.2 50.85 515.65 51.65 514.1 52.4 512.45 52.4 L512.25 52.4 512.0 52.4 511.8 52.35 511.6 52.3 Q512.2 53.25 513.2 53.9 514.2 54.55 515.35 54.55 519.05 54.55 521.3 52.55 523.5 50.6 523.5 46.7 L523.55 41.15 M378.45 30.85 L377.35 34.15 375.05 40.7 372.8 47.3 372.7 47.6 372.65 48.0 372.45 48.45 372.35 49.05 372.3 49.45 372.3 49.8 372.4 50.5 372.9 50.95 373.35 51.05 373.85 51.0 374.9 50.8 375.9 50.3 377.9 48.7 379.7 46.6 381.1 44.65 381.95 43.0 382.1 42.65 382.3 42.3 Q382.3 42.1 382.45 41.95 L382.6 41.6 387.3 43.65 Q383.95 50.75 379.3 55.5 374.6 60.25 366.0 60.25 L365.75 60.25 365.55 60.25 Q362.6 60.15 360.05 58.9 357.45 57.75 356.25 54.9 353.75 57.15 350.65 58.55 347.55 60.0 344.25 60.25 L343.5 60.35 342.65 60.35 Q339.5 60.25 336.55 59.05 333.65 57.9 331.35 55.1 329.65 53.0 328.9 50.75 328.15 48.5 328.15 46.15 328.15 42.05 330.35 38.15 332.55 34.25 336.0 31.6 338.6 29.65 342.0 28.35 345.45 27.05 349.1 26.85 L349.85 26.75 350.65 26.75 Q353.5 26.75 356.25 27.6 358.9 28.5 361.1 30.3 L362.0 27.55 370.8 27.55 379.6 27.55 378.45 30.85 M325.6 18.95 Q323.35 20.7 320.55 20.9 L320.3 20.9 320.1 20.9 317.8 20.4 Q316.65 20.05 315.75 19.25 L315.4 18.95 315.0 18.6 314.9 18.55 314.85 18.45 314.6 18.25 314.4 18.05 315.75 16.7 316.8 15.25 317.5 14.0 317.65 12.85 Q317.65 11.8 316.65 11.15 315.65 10.5 313.2 10.5 307.45 10.5 302.35 16.5 297.25 22.5 294.25 29.8 L293.85 30.8 293.45 31.95 293.3 32.25 293.2 32.55 292.1 35.7 Q291.65 37.4 291.35 39.1 L291.1 40.9 291.0 42.65 291.1 44.1 291.35 45.55 Q291.7 46.9 292.45 47.45 293.2 48.0 294.05 48.0 L294.7 47.95 295.35 47.8 297.05 46.9 298.5 45.65 Q299.85 44.0 301.3 41.1 302.75 38.25 304.3 33.5 L304.75 32.2 305.7 29.3 306.6 26.85 307.15 25.3 330.75 25.3 328.5 31.85 326.2 38.4 323.9 45.05 321.65 51.6 Q317.9 62.35 308.2 68.9 298.5 75.45 287.4 75.45 L283.6 75.2 279.8 74.55 Q274.85 73.35 272.4 71.15 269.95 68.95 269.4 66.5 L269.25 65.7 269.25 64.95 Q269.3 61.6 271.75 59.1 274.2 56.6 277.55 56.65 279.05 56.65 280.5 57.25 281.95 57.8 283.45 59.25 L283.8 59.65 284.2 60.0 284.6 60.4 284.95 60.8 284.15 61.2 283.25 61.7 Q281.8 62.55 280.5 63.7 279.25 64.9 279.35 66.7 L279.35 67.0 279.35 67.2 Q279.55 68.75 280.65 69.45 281.8 70.2 283.25 70.3 L285.7 69.9 Q287.05 69.35 288.35 68.3 L289.4 67.45 290.45 66.4 Q293.1 63.6 294.7 60.25 296.35 56.85 297.5 53.25 L294.75 54.0 291.9 54.6 290.5 54.75 289.1 54.75 Q284.6 54.75 280.45 52.9 276.75 51.25 274.25 47.8 L273.7 48.75 Q272.5 50.8 270.7 52.55 269.0 54.3 266.65 54.3 L264.85 54.0 263.25 53.3 Q260.8 55.3 257.45 56.45 254.15 57.55 250.65 57.8 L250.1 57.8 249.5 57.8 Q246.25 57.8 243.2 56.8 240.15 55.8 237.85 53.85 236.05 52.2 235.2 50.35 234.4 48.45 234.4 46.6 234.4 45.1 234.85 43.7 235.3 42.25 236.15 40.9 237.95 38.2 240.85 36.25 243.4 34.65 246.55 33.65 249.7 32.75 253.05 32.75 L254.05 32.8 255.0 32.8 Q257.7 33.05 260.3 33.95 262.9 34.9 264.9 36.75 266.6 38.25 267.5 40.15 268.35 42.1 268.35 44.15 L268.2 45.7 267.85 47.25 269.4 46.75 270.7 45.6 271.45 44.65 272.0 43.85 271.15 41.5 Q270.4 38.6 270.4 35.6 L270.45 34.15 270.6 32.65 271.1 29.6 271.95 26.7 Q274.85 18.35 282.55 13.05 290.25 7.75 298.85 6.2 L302.55 5.7 306.1 5.5 310.45 5.65 316.2 6.3 Q320.55 7.05 324.2 8.9 327.85 10.75 327.85 14.45 327.85 17.2 325.6 18.95 M358.35 33.0 Q358.05 32.35 356.75 32.35 L355.85 32.45 354.95 32.7 Q353.25 33.45 351.5 35.25 349.8 37.05 348.4 39.1 L346.7 42.0 345.55 44.35 345.25 45.25 344.85 46.7 344.45 48.05 344.2 49.45 Q344.0 49.95 343.95 50.6 L343.9 51.75 Q343.9 53.15 344.35 54.0 344.85 54.95 346.0 54.95 348.65 54.95 350.65 52.75 352.7 50.6 354.15 48.0 L355.5 45.4 356.5 43.1 358.1 38.25 Q358.65 36.15 358.65 34.7 358.65 33.6 358.35 33.0 M255.3 35.9 L253.9 36.25 Q253.1 36.6 252.35 37.2 L251.75 37.8 251.15 38.45 Q249.7 40.15 248.85 42.3 247.95 44.5 247.55 46.75 L247.45 48.25 247.4 49.65 247.4 50.6 247.55 51.75 Q247.75 52.85 248.2 53.7 248.7 54.55 249.7 54.55 251.3 54.55 252.5 53.45 253.75 52.3 254.5 50.95 L254.9 50.35 255.2 49.75 Q254.2 49.05 253.65 48.0 253.1 46.95 253.1 45.75 L253.1 45.5 253.1 45.3 Q253.3 43.45 254.55 41.75 255.75 40.05 257.65 39.55 257.6 37.6 256.95 36.75 256.25 35.9 255.3 35.9 M222.0 33.0 Q223.8 33.55 225.4 34.65 L225.8 33.35 237.9 33.35 235.65 40.05 234.45 43.55 233.35 46.7 231.0 53.35 228.7 60.05 Q227.25 64.35 222.95 67.1 218.65 69.9 213.8 70.55 L212.6 70.65 211.4 70.65 210.7 70.65 207.55 70.25 Q205.7 69.75 204.15 68.85 202.7 68.0 201.75 66.6 200.85 65.25 200.6 63.8 L200.5 63.15 200.45 62.55 Q200.55 61.0 201.5 59.75 202.4 58.45 204.6 58.05 L204.85 58.05 205.15 58.0 205.4 58.0 205.65 58.0 Q207.95 58.0 209.35 59.45 210.4 60.65 210.7 62.0 L210.8 62.7 210.8 62.8 210.8 62.9 210.7 63.8 210.0 65.3 208.4 66.7 207.5 67.05 207.8 67.15 208.15 67.25 208.4 67.35 208.7 67.35 210.7 67.15 Q212.6 66.65 213.8 65.0 215.65 62.5 216.8 59.6 L217.6 57.25 218.3 55.1 216.55 55.7 214.75 56.05 213.85 56.15 213.0 56.2 210.7 56.0 Q208.05 55.45 205.85 53.7 202.75 51.2 202.75 46.45 202.75 40.95 207.25 37.0 208.9 35.5 210.7 34.55 213.75 32.85 217.1 32.55 L217.75 32.5 218.45 32.45 222.0 33.0 M220.8 36.9 L219.55 37.7 Q218.3 38.85 217.1 40.7 215.85 42.55 215.0 44.5 L214.05 47.25 Q213.7 48.6 213.7 49.65 L213.8 50.55 214.0 51.35 214.55 52.0 215.25 52.2 Q217.85 52.2 219.45 49.95 221.1 47.65 222.0 44.9 L223.1 41.55 223.95 38.85 223.95 38.55 223.9 38.25 223.6 37.4 222.85 36.8 222.65 36.7 222.5 36.65 222.25 36.6 222.0 36.6 220.8 36.9 M170.85 9.75 L164.3 28.55 157.9 47.3 157.35 48.8 157.2 49.95 Q157.2 50.5 157.65 50.8 L159.1 51.0 Q159.8 51.0 160.9 50.45 L163.15 48.8 Q164.8 47.15 165.8 45.35 L166.2 44.65 Q166.6 43.2 167.5 42.15 L167.75 41.55 167.95 41.65 168.75 40.95 Q170.65 39.65 172.9 39.75 L173.4 39.75 173.85 39.75 174.25 39.8 174.7 39.9 182.75 28.7 199.8 24.4 200.45 34.0 201.1 43.6 Q201.55 51.1 196.2 55.05 190.9 59.0 184.45 59.65 L182.85 59.75 181.4 59.8 179.5 59.75 177.5 59.55 Q174.9 59.25 172.4 58.25 169.9 57.3 168.1 55.4 167.15 54.25 166.65 53.0 L164.55 55.4 Q160.15 60.25 151.7 60.25 L150.7 60.2 149.8 60.15 Q147.5 59.9 145.35 59.0 143.15 58.15 141.8 56.25 140.9 55.0 140.5 53.45 140.0 51.95 140.0 50.4 L140.05 49.7 140.1 49.15 140.55 46.55 141.25 44.05 147.2 26.85 153.0 9.75 157.5 9.75 161.95 9.75 166.35 9.75 170.85 9.75 M179.75 48.05 L178.9 49.6 Q178.05 50.9 176.5 51.7 174.95 52.45 173.3 52.45 L173.1 52.45 172.85 52.45 172.65 52.4 172.45 52.35 Q173.05 53.3 174.05 53.95 175.05 54.6 176.2 54.6 179.9 54.6 182.15 52.6 184.35 50.65 184.35 46.75 L184.4 41.2 184.4 35.7 179.0 42.95 179.8 44.55 180.0 46.3 179.75 48.05 M135.05 26.35 Q136.3 26.7 137.5 27.45 138.65 28.25 139.35 29.45 L140.3 31.9 140.45 33.0 140.45 33.95 Q140.45 37.3 138.45 39.25 136.4 41.2 134.0 41.2 L133.85 41.2 133.7 41.2 Q131.8 41.2 130.1 39.9 128.4 38.65 127.65 35.85 L126.95 34.65 Q126.55 34.2 126.05 34.3 125.1 34.3 124.0 35.35 122.85 36.4 121.6 38.25 119.4 41.0 117.9 44.45 116.4 47.9 115.2 51.4 L114.15 54.4 113.2 57.3 112.85 58.35 112.5 59.45 95.8 59.45 103.3 38.5 103.45 37.85 103.45 37.4 Q103.45 36.4 102.65 36.05 L100.9 35.85 Q98.55 36.1 96.75 38.0 94.95 39.9 93.8 42.1 L93.25 43.05 94.6 43.75 94.15 44.6 93.65 45.4 90.55 51.0 Q88.8 53.75 86.35 55.9 84.1 57.9 81.1 59.0 78.05 60.05 74.8 60.25 L74.0 60.25 71.25 60.05 68.65 59.45 Q65.2 58.25 63.75 55.8 62.35 53.3 62.35 50.3 62.35 49.35 62.5 48.3 L62.9 46.15 63.2 45.1 63.5 44.1 66.35 35.8 69.2 27.55 73.6 27.55 78.05 27.55 82.5 27.55 86.9 27.55 85.8 30.85 84.65 34.15 82.35 40.7 80.15 47.3 79.7 48.65 79.5 49.9 Q79.5 50.4 79.9 50.75 L81.3 51.0 Q82.05 51.0 83.15 50.45 L85.4 48.8 Q87.0 47.15 88.0 45.35 L89.4 42.75 88.3 42.3 Q90.6 36.1 95.15 31.2 99.75 26.3 106.6 25.95 L107.9 25.85 109.3 25.95 Q112.3 26.1 115.05 27.45 117.8 28.75 119.4 31.35 L123.6 28.6 Q125.85 27.4 128.2 26.65 L130.3 26.15 132.35 26.0 135.05 26.35 M84.95 12.2 L85.4 12.4 Q87.25 13.2 88.85 14.65 90.45 16.1 90.45 18.15 L90.35 18.75 90.25 19.4 Q89.7 21.1 88.25 22.25 86.85 23.4 85.2 23.95 L84.55 24.05 84.0 24.2 82.5 24.4 81.05 24.45 77.05 24.0 Q75.05 23.5 73.55 22.3 72.35 21.45 71.7 20.2 71.0 18.95 71.0 17.7 71.0 16.95 71.25 16.25 71.55 15.5 72.0 14.9 73.25 13.25 75.3 12.45 77.35 11.65 79.5 11.45 L80.0 11.45 80.5 11.45 82.45 11.6 84.35 12.05 84.95 12.2 M61.35 18.95 Q59.1 20.7 56.3 20.9 L56.05 20.9 55.85 20.9 53.55 20.4 Q52.4 20.05 51.5 19.25 L51.15 18.95 50.75 18.6 50.65 18.55 50.6 18.45 50.35 18.25 50.15 18.05 51.5 16.7 52.55 15.25 53.25 14.0 53.4 12.85 Q53.4 11.8 52.4 11.15 51.4 10.5 48.95 10.5 43.2 10.5 38.1 16.5 33.0 22.5 30.0 29.8 L29.6 30.8 29.2 31.95 29.05 32.25 28.95 32.55 27.85 35.7 27.1 39.1 26.85 40.9 26.75 42.65 26.85 44.1 27.1 45.55 Q27.45 46.9 28.2 47.45 28.95 48.0 29.8 48.0 L30.45 47.95 31.1 47.8 Q31.95 47.45 32.8 46.9 L34.25 45.65 Q35.6 44.0 37.05 41.1 38.5 38.25 40.05 33.5 L40.5 32.2 41.45 29.3 42.35 26.85 42.9 25.3 66.5 25.3 64.25 31.85 61.95 38.4 59.65 45.05 57.4 51.6 Q53.65 62.35 43.95 68.9 34.25 75.45 23.15 75.45 L19.35 75.2 15.55 74.55 Q10.6 73.35 8.15 71.15 5.7 68.95 5.15 66.5 L5.0 65.7 5.0 64.95 Q5.05 61.6 7.5 59.1 9.95 56.6 13.3 56.65 14.8 56.65 16.25 57.25 17.7 57.8 19.2 59.25 L19.55 59.65 19.95 60.0 20.35 60.4 20.7 60.8 19.9 61.2 19.0 61.7 16.25 63.7 Q15.0 64.9 15.1 66.7 L15.1 67.0 15.1 67.2 Q15.3 68.75 16.4 69.45 17.55 70.2 19.0 70.3 20.15 70.4 21.45 69.9 22.8 69.35 24.1 68.3 L25.15 67.45 26.2 66.4 Q28.85 63.6 30.45 60.25 32.1 56.85 33.25 53.25 L30.5 54.0 27.65 54.6 26.25 54.75 24.85 54.75 Q20.35 54.75 16.2 52.9 12.1 51.05 9.4 46.95 7.7 44.35 6.9 41.5 6.15 38.6 6.15 35.6 L6.2 34.15 6.35 32.65 6.85 29.6 7.7 26.7 Q10.6 18.35 18.3 13.05 26.0 7.75 34.6 6.2 L38.3 5.7 41.85 5.5 46.2 5.65 51.95 6.3 Q56.3 7.05 59.95 8.9 63.6 10.75 63.6 14.45 63.6 17.2 61.35 18.95" fill="none" stroke="url(#gradient1)" stroke-linecap="round" stroke-linejoin="round" stroke-width="10.0"/>
    <path d="M787.55 34.55 Q789.2 33.35 791.0 32.3 792.85 31.3 794.75 30.65 L796.5 30.25 798.15 30.15 800.35 30.45 Q801.4 30.75 802.35 31.35 803.3 32.0 803.9 33.0 804.45 33.95 804.65 34.95 L804.8 35.85 804.8 36.65 Q804.8 39.4 803.15 41.0 801.45 42.6 799.5 42.6 L799.35 42.6 799.25 42.6 Q797.7 42.6 796.3 41.55 794.9 40.55 794.3 38.2 L793.75 37.25 793.0 36.95 Q792.2 36.95 791.3 37.8 L789.35 40.15 Q787.55 42.45 786.3 45.25 785.05 48.1 784.1 50.95 L783.25 53.4 782.45 55.8 782.15 56.65 781.9 57.55 768.2 57.55 774.35 40.4 774.5 39.85 774.5 39.5 Q774.5 38.7 773.85 38.4 L772.4 38.2 Q770.45 38.45 769.0 40.0 767.5 41.55 766.55 43.35 L766.1 44.15 765.75 45.0 762.05 43.5 Q763.95 38.45 767.7 34.45 771.45 30.4 777.05 30.1 L778.15 30.0 779.3 30.1 Q781.7 30.25 784.0 31.3 786.2 32.4 787.55 34.55 M745.7 16.85 L740.15 33.1 Q742.0 31.95 743.9 31.35 745.8 30.8 747.85 30.8 L749.5 30.9 751.2 31.2 Q755.35 32.2 757.45 35.1 759.65 38.05 759.55 41.8 L759.4 43.35 759.15 45.0 Q757.85 51.05 752.85 54.05 747.85 57.1 742.15 57.85 L739.6 58.15 737.05 58.2 734.9 58.15 732.6 57.9 Q729.95 57.55 727.45 56.55 724.9 55.55 723.3 53.45 722.3 52.15 721.85 50.6 721.35 49.1 721.35 47.45 L721.4 46.6 721.5 45.7 721.9 43.9 722.4 42.15 726.8 29.45 731.15 16.85 745.7 16.85 M743.65 36.1 Q742.0 36.1 740.45 37.75 738.9 39.4 737.7 41.35 736.9 42.6 736.35 43.8 L735.5 45.7 Q734.6 47.9 734.05 49.8 733.5 51.6 733.6 52.95 733.6 53.85 734.05 54.35 734.5 54.9 735.55 54.9 737.9 54.9 739.8 52.95 741.65 51.0 742.85 48.75 L743.85 46.8 744.6 44.95 744.85 44.2 745.2 43.15 745.5 41.95 745.8 40.6 745.9 39.8 745.95 39.05 Q745.95 37.8 745.4 36.9 744.9 36.1 743.65 36.1 M692.65 30.95 L694.9 31.55 Q697.8 32.45 699.3 34.6 700.75 36.75 700.75 39.4 L700.6 41.2 700.1 43.05 699.65 44.3 699.05 46.0 698.9 46.45 698.75 46.9 698.2 48.85 697.95 50.35 697.95 50.55 698.0 50.8 698.25 50.85 698.75 50.85 699.5 50.75 700.2 50.45 702.3 48.75 704.15 46.4 705.45 44.45 706.3 42.9 710.0 44.65 707.4 49.3 709.05 48.85 710.1 48.75 711.05 48.7 712.3 48.75 713.7 49.05 Q715.85 49.55 717.6 51.0 719.45 52.45 719.3 54.85 719.1 57.05 717.4 58.25 715.7 59.45 713.65 59.85 L712.25 60.1 710.95 60.15 709.95 60.1 709.0 59.95 Q706.65 59.5 704.8 58.05 703.15 56.75 703.05 54.6 699.25 58.2 692.6 58.2 L691.55 58.15 690.4 58.05 Q688.7 57.85 687.1 57.2 685.5 56.55 684.45 55.15 683.75 54.15 683.4 53.05 L683.15 50.85 683.15 49.8 683.3 48.8 683.95 46.35 684.75 44.0 685.05 43.2 685.6 41.85 685.8 41.2 686.0 40.45 686.3 39.3 686.4 38.35 686.15 37.3 Q685.9 36.9 685.3 36.9 683.95 36.9 682.75 38.1 681.6 39.35 680.7 40.75 L679.9 42.35 679.3 43.7 678.1 47.15 676.9 50.6 675.65 54.1 674.5 57.55 659.85 57.55 661.4 53.1 663.0 48.6 664.5 44.15 666.05 39.7 666.25 38.85 666.35 38.15 Q666.35 37.4 666.0 37.15 665.7 36.85 665.05 36.85 L664.3 36.95 Q663.9 37.05 663.5 37.3 L662.7 37.8 661.9 38.6 Q660.8 39.9 659.5 42.2 658.2 44.55 656.7 48.45 L656.25 49.85 655.15 52.95 654.25 55.8 653.7 57.55 639.85 57.55 640.6 55.45 638.25 55.85 636.15 55.55 634.25 54.65 Q631.4 57.05 627.5 58.4 623.6 59.7 619.55 59.95 L618.9 59.95 618.2 59.95 Q614.35 59.95 610.8 58.8 607.25 57.6 604.55 55.35 602.45 53.4 601.45 51.25 L601.05 51.75 Q599.0 54.45 595.15 56.3 592.85 57.35 590.05 57.9 L584.4 58.45 583.95 58.45 583.45 58.45 Q579.15 58.2 575.2 56.8 571.25 55.35 568.7 52.15 567.4 50.45 566.75 48.7 566.15 46.95 566.15 45.2 566.15 41.8 568.2 38.7 570.25 35.65 573.5 33.8 575.7 32.6 578.8 31.75 581.9 30.9 585.15 30.8 L585.95 30.7 586.7 30.7 592.0 31.35 Q594.55 32.0 596.4 33.65 597.3 34.55 597.9 35.75 598.5 37.0 598.65 38.35 L598.65 38.6 598.65 38.85 598.3 40.75 597.3 42.45 Q596.45 43.4 595.4 43.85 L593.0 44.3 592.65 44.3 592.3 44.2 590.9 43.9 589.6 43.3 Q588.65 42.65 588.05 41.75 587.45 40.8 587.3 39.75 L587.3 39.65 587.3 39.4 587.2 39.25 587.2 39.1 Q587.2 37.4 588.35 36.15 589.45 34.9 591.1 34.45 L590.2 34.2 589.25 34.15 588.8 34.15 588.4 34.25 588.0 34.3 587.6 34.45 Q585.0 35.35 583.15 38.1 581.2 40.9 580.55 44.05 L580.35 45.5 580.3 46.9 Q580.35 49.8 581.85 51.9 583.3 54.0 586.7 54.0 592.4 54.0 595.95 50.85 598.65 48.45 600.65 45.25 601.0 42.6 602.6 40.15 604.65 37.0 608.05 34.75 611.05 32.85 614.7 31.7 618.4 30.65 622.35 30.65 L623.5 30.65 624.6 30.7 Q627.8 31.0 630.85 32.05 633.85 33.1 636.2 35.3 638.15 37.05 639.2 39.3 640.25 41.6 640.25 44.0 L640.1 45.75 639.65 47.6 641.45 47.0 643.0 45.7 643.9 44.6 644.8 43.0 644.85 43.05 648.8 31.6 662.65 31.6 662.05 33.25 Q663.75 32.2 665.85 31.5 667.95 30.8 670.1 30.65 L670.55 30.65 671.0 30.65 673.1 30.8 Q674.15 30.9 675.15 31.3 676.7 31.8 677.95 32.85 679.25 33.95 679.75 35.65 681.95 33.3 684.7 32.05 687.5 30.8 690.45 30.8 L692.65 30.95 M624.95 34.3 L623.3 34.7 621.5 35.85 620.85 36.5 620.1 37.3 Q618.4 39.25 617.4 41.85 616.35 44.35 615.9 47.05 L615.75 48.75 615.7 50.45 615.75 51.55 615.9 52.9 Q616.15 54.15 616.65 55.15 617.25 56.15 618.4 56.15 620.3 56.15 621.7 54.85 623.15 53.55 624.05 51.9 L624.5 51.25 624.85 50.5 Q623.7 49.7 623.05 48.5 622.4 47.25 622.4 45.85 L622.4 45.55 622.4 45.35 Q622.65 43.15 624.1 41.15 625.5 39.2 627.75 38.6 627.65 36.3 626.9 35.35 626.1 34.3 624.95 34.3 M540.3 43.6 Q540.75 51.1 535.4 55.05 530.1 59.0 523.65 59.65 L522.05 59.75 520.6 59.8 518.7 59.75 516.7 59.55 Q514.1 59.25 511.6 58.25 509.1 57.3 507.3 55.4 506.05 53.85 505.5 52.15 L505.3 51.55 505.05 51.85 Q502.3 55.55 497.3 57.9 494.35 59.25 491.05 59.95 L484.3 60.55 483.25 60.55 482.2 60.45 478.0 60.0 473.9 58.9 Q468.7 57.1 465.3 53.4 L463.4 50.8 Q461.6 53.3 459.5 55.45 454.85 60.25 446.35 60.25 L445.05 60.2 443.65 60.05 Q441.55 59.8 439.6 59.05 437.7 58.25 436.4 56.55 435.5 55.3 435.1 54.0 434.75 52.65 434.75 51.25 L434.8 50.0 434.95 48.8 Q435.2 47.3 435.75 45.8 L436.75 42.9 437.1 41.95 437.75 40.3 438.05 39.45 438.3 38.6 438.6 37.15 438.75 36.0 438.45 34.75 Q438.1 34.25 437.4 34.25 435.8 34.25 434.35 35.7 432.85 37.2 431.8 38.95 L430.8 40.9 430.1 42.55 428.65 46.75 427.2 50.95 425.65 55.25 424.25 59.45 406.3 59.45 408.25 54.0 410.2 48.5 412.05 43.1 413.9 37.65 414.15 36.65 414.25 35.75 Q414.25 34.9 413.85 34.55 413.45 34.15 412.7 34.15 L411.8 34.3 410.8 34.7 409.8 35.35 408.85 36.35 Q407.5 37.9 405.9 40.7 404.35 43.55 402.55 48.35 L401.95 50.05 400.65 53.85 399.55 57.3 398.8 59.45 381.95 59.45 392.85 27.8 409.75 27.8 409.05 29.75 Q411.15 28.5 413.7 27.65 416.25 26.75 418.9 26.6 L419.4 26.6 419.95 26.6 422.55 26.75 425.0 27.4 Q426.9 28.05 428.45 29.3 430.0 30.65 430.6 32.7 433.3 29.85 436.7 28.3 440.1 26.75 443.7 26.75 L446.4 27.0 449.15 27.7 Q452.7 28.85 454.5 31.45 456.3 34.1 456.3 37.3 L456.1 39.45 455.45 41.75 454.95 43.25 454.2 45.35 454.0 45.9 453.85 46.45 453.15 48.8 Q452.85 49.95 452.85 50.65 L452.85 50.9 452.95 51.2 453.25 51.3 453.85 51.3 454.75 51.15 455.65 50.75 Q456.9 50.05 458.2 48.7 L460.45 45.85 461.95 43.7 462.15 42.05 462.8 39.4 Q464.6 34.0 470.15 30.95 475.65 27.95 481.85 27.1 L484.5 26.85 487.1 26.75 490.8 26.95 494.15 27.55 494.65 27.75 495.15 27.85 Q497.8 28.55 500.1 30.4 502.4 32.2 502.45 35.25 502.65 40.15 498.4 42.9 494.15 45.75 489.1 46.95 L483.65 48.0 479.15 48.15 Q479.6 51.4 481.65 53.2 483.65 54.95 487.0 54.95 493.75 54.95 498.4 51.15 503.0 47.35 505.65 41.6 L506.75 42.1 507.95 40.95 Q509.85 39.65 512.1 39.75 L512.6 39.75 513.05 39.75 513.45 39.8 513.9 39.9 521.95 28.7 539.0 24.4 539.65 34.0 540.3 43.6 M557.1 48.75 L558.5 49.05 Q560.65 49.55 562.4 51.0 564.25 52.45 564.1 54.85 563.9 57.05 562.2 58.25 560.5 59.45 558.45 59.85 L557.05 60.1 555.75 60.15 554.75 60.1 553.8 59.95 Q551.45 59.5 549.6 58.05 547.7 56.6 547.85 54.0 548.0 51.55 549.85 50.4 551.75 49.2 553.85 48.85 L554.9 48.75 555.85 48.7 557.1 48.75 M490.45 30.55 Q487.1 30.45 484.7 33.05 482.2 35.65 481.0 38.85 480.5 39.95 480.25 41.0 L479.8 43.0 482.05 42.75 484.4 42.2 Q487.8 41.3 490.7 39.2 493.5 37.15 493.6 33.45 493.6 31.9 492.8 31.25 491.95 30.65 490.45 30.55 M523.55 41.15 L523.55 35.65 518.15 42.9 518.95 44.5 519.15 46.25 518.9 48.0 518.05 49.55 Q517.2 50.85 515.65 51.65 514.1 52.4 512.45 52.4 L512.25 52.4 512.0 52.4 511.8 52.35 511.6 52.3 Q512.2 53.25 513.2 53.9 514.2 54.55 515.35 54.55 519.05 54.55 521.3 52.55 523.5 50.6 523.5 46.7 L523.55 41.15 M378.45 30.85 L377.35 34.15 375.05 40.7 372.8 47.3 372.7 47.6 372.65 48.0 372.45 48.45 372.35 49.05 372.3 49.45 372.3 49.8 372.4 50.5 372.9 50.95 373.35 51.05 373.85 51.0 374.9 50.8 375.9 50.3 377.9 48.7 379.7 46.6 381.1 44.65 381.95 43.0 382.1 42.65 382.3 42.3 Q382.3 42.1 382.45 41.95 L382.6 41.6 387.3 43.65 Q383.95 50.75 379.3 55.5 374.6 60.25 366.0 60.25 L365.75 60.25 365.55 60.25 Q362.6 60.15 360.05 58.9 357.45 57.75 356.25 54.9 353.75 57.15 350.65 58.55 347.55 60.0 344.25 60.25 L343.5 60.35 342.65 60.35 Q339.5 60.25 336.55 59.05 333.65 57.9 331.35 55.1 329.65 53.0 328.9 50.75 328.15 48.5 328.15 46.15 328.15 42.05 330.35 38.15 332.55 34.25 336.0 31.6 338.6 29.65 342.0 28.35 345.45 27.05 349.1 26.85 L349.85 26.75 350.65 26.75 Q353.5 26.75 356.25 27.6 358.9 28.5 361.1 30.3 L362.0 27.55 370.8 27.55 379.6 27.55 378.45 30.85 M325.6 18.95 Q323.35 20.7 320.55 20.9 L320.3 20.9 320.1 20.9 317.8 20.4 Q316.65 20.05 315.75 19.25 L315.4 18.95 315.0 18.6 314.9 18.55 314.85 18.45 314.6 18.25 314.4 18.05 315.75 16.7 316.8 15.25 317.5 14.0 317.65 12.85 Q317.65 11.8 316.65 11.15 315.65 10.5 313.2 10.5 307.45 10.5 302.35 16.5 297.25 22.5 294.25 29.8 L293.85 30.8 293.45 31.95 293.3 32.25 293.2 32.55 292.1 35.7 Q291.65 37.4 291.35 39.1 L291.1 40.9 291.0 42.65 291.1 44.1 291.35 45.55 Q291.7 46.9 292.45 47.45 293.2 48.0 294.05 48.0 L294.7 47.95 295.35 47.8 297.05 46.9 298.5 45.65 Q299.85 44.0 301.3 41.1 302.75 38.25 304.3 33.5 L304.75 32.2 305.7 29.3 306.6 26.85 307.15 25.3 330.75 25.3 328.5 31.85 326.2 38.4 323.9 45.05 321.65 51.6 Q317.9 62.35 308.2 68.9 298.5 75.45 287.4 75.45 L283.6 75.2 279.8 74.55 Q274.85 73.35 272.4 71.15 269.95 68.95 269.4 66.5 L269.25 65.7 269.25 64.95 Q269.3 61.6 271.75 59.1 274.2 56.6 277.55 56.65 279.05 56.65 280.5 57.25 281.95 57.8 283.45 59.25 L283.8 59.65 284.2 60.0 284.6 60.4 284.95 60.8 284.15 61.2 283.25 61.7 Q281.8 62.55 280.5 63.7 279.25 64.9 279.35 66.7 L279.35 67.0 279.35 67.2 Q279.55 68.75 280.65 69.45 281.8 70.2 283.25 70.3 L285.7 69.9 Q287.05 69.35 288.35 68.3 L289.4 67.45 290.45 66.4 Q293.1 63.6 294.7 60.25 296.35 56.85 297.5 53.25 L294.75 54.0 291.9 54.6 290.5 54.75 289.1 54.75 Q284.6 54.75 280.45 52.9 276.75 51.25 274.25 47.8 L273.7 48.75 Q272.5 50.8 270.7 52.55 269.0 54.3 266.65 54.3 L264.85 54.0 263.25 53.3 Q260.8 55.3 257.45 56.45 254.15 57.55 250.65 57.8 L250.1 57.8 249.5 57.8 Q246.25 57.8 243.2 56.8 240.15 55.8 237.85 53.85 236.05 52.2 235.2 50.35 234.4 48.45 234.4 46.6 234.4 43.6 236.15 40.9 237.95 38.2 240.85 36.25 243.4 34.65 246.55 33.65 249.7 32.75 253.05 32.75 L254.05 32.8 255.0 32.8 Q257.7 33.05 260.3 33.95 262.9 34.9 264.9 36.75 266.6 38.25 267.5 40.15 268.35 42.1 268.35 44.15 L268.2 45.7 267.85 47.25 269.4 46.75 270.7 45.6 271.45 44.65 272.0 43.85 271.15 41.5 Q270.4 38.6 270.4 35.6 L270.45 34.15 270.6 32.65 271.1 29.6 271.95 26.7 Q274.85 18.35 282.55 13.05 290.25 7.75 298.85 6.2 L302.55 5.7 306.1 5.5 310.45 5.65 316.2 6.3 Q320.55 7.05 324.2 8.9 327.85 10.75 327.85 14.45 327.85 17.2 325.6 18.95 M358.35 33.0 Q358.05 32.35 356.75 32.35 L355.85 32.45 354.95 32.7 Q353.25 33.45 351.5 35.25 349.8 37.05 348.4 39.1 L346.7 42.0 345.55 44.35 345.25 45.25 344.85 46.7 344.45 48.05 344.2 49.45 Q344.0 49.95 343.95 50.6 L343.9 51.75 Q343.9 53.15 344.35 54.0 344.85 54.95 346.0 54.95 348.65 54.95 350.65 52.75 352.7 50.6 354.15 48.0 L355.5 45.4 356.5 43.1 358.1 38.25 Q358.65 36.15 358.65 34.7 358.65 33.6 358.35 33.0 M255.3 35.9 L253.9 36.25 Q253.1 36.6 252.35 37.2 L251.75 37.8 251.15 38.45 Q249.7 40.15 248.85 42.3 247.95 44.5 247.55 46.75 L247.45 48.25 247.4 49.65 247.4 50.6 247.55 51.75 Q247.75 52.85 248.2 53.7 248.7 54.55 249.7 54.55 251.3 54.55 252.5 53.45 253.75 52.3 254.5 50.95 L254.9 50.35 255.2 49.75 Q254.2 49.05 253.65 48.0 253.1 46.95 253.1 45.75 L253.1 45.5 253.1 45.3 Q253.3 43.45 254.55 41.75 255.75 40.05 257.65 39.55 257.6 37.6 256.95 36.75 256.25 35.9 255.3 35.9 M222.0 33.0 Q223.8 33.55 225.4 34.65 L225.8 33.35 237.9 33.35 235.65 40.05 233.35 46.7 231.0 53.35 228.7 60.05 Q227.25 64.35 222.95 67.1 218.65 69.9 213.8 70.55 L212.6 70.65 211.4 70.65 207.55 70.25 Q205.7 69.75 204.15 68.85 202.7 68.0 201.75 66.6 200.85 65.25 200.6 63.8 L200.5 63.15 200.45 62.55 Q200.55 61.0 201.5 59.75 202.4 58.45 204.6 58.05 L204.85 58.05 205.15 58.0 205.4 58.0 205.65 58.0 Q207.95 58.0 209.35 59.45 210.7 60.95 210.8 62.7 L210.8 62.8 210.8 62.9 Q210.8 64.15 210.0 65.3 209.2 66.5 207.5 67.05 L207.8 67.15 208.15 67.25 208.4 67.35 208.7 67.35 Q212.0 67.45 213.8 65.0 215.65 62.5 216.8 59.6 L217.6 57.25 218.3 55.1 216.55 55.7 214.75 56.05 213.85 56.15 213.0 56.2 Q208.95 56.2 205.85 53.7 202.75 51.2 202.75 46.45 202.75 40.95 207.25 37.0 211.75 33.0 217.1 32.55 L217.75 32.5 218.45 32.45 222.0 33.0 M220.8 36.9 L219.55 37.7 Q218.3 38.85 217.1 40.7 215.85 42.55 215.0 44.5 L214.05 47.25 Q213.7 48.6 213.7 49.65 L213.8 50.55 214.0 51.35 214.55 52.0 215.25 52.2 Q217.85 52.2 219.45 49.95 221.1 47.65 222.0 44.9 L223.1 41.55 223.95 38.85 223.95 38.55 223.9 38.25 223.6 37.4 222.85 36.8 222.65 36.7 222.5 36.65 222.25 36.6 222.0 36.6 220.8 36.9 M170.85 9.75 L164.3 28.55 157.9 47.3 157.35 48.8 157.2 49.95 Q157.2 50.5 157.65 50.8 L159.1 51.0 Q159.8 51.0 160.9 50.45 L163.15 48.8 Q164.8 47.15 165.8 45.35 L166.2 44.65 Q166.6 43.2 167.5 42.15 L167.75 41.55 167.95 41.65 168.75 40.95 Q170.65 39.65 172.9 39.75 L173.4 39.75 173.85 39.75 174.25 39.8 174.7 39.9 182.75 28.7 199.8 24.4 200.45 34.0 201.1 43.6 Q201.55 51.1 196.2 55.05 190.9 59.0 184.45 59.65 L182.85 59.75 181.4 59.8 179.5 59.75 177.5 59.55 Q174.9 59.25 172.4 58.25 169.9 57.3 168.1 55.4 167.15 54.25 166.65 53.0 L164.55 55.4 Q160.15 60.25 151.7 60.25 L150.7 60.2 149.8 60.15 Q147.5 59.9 145.35 59.0 143.15 58.15 141.8 56.25 140.9 55.0 140.5 53.45 140.0 51.95 140.0 50.4 L140.05 49.7 140.1 49.15 140.55 46.55 141.25 44.05 147.2 26.85 153.0 9.75 157.5 9.75 161.95 9.75 166.35 9.75 170.85 9.75 M179.7 48.0 L178.85 49.55 Q178.0 50.85 176.45 51.65 174.9 52.4 173.25 52.4 L173.05 52.4 172.8 52.4 172.6 52.35 172.4 52.3 Q173.0 53.25 174.0 53.9 175.0 54.55 176.15 54.55 179.85 54.55 182.1 52.55 184.3 50.6 184.3 46.7 L184.35 41.15 184.35 35.65 178.95 42.9 179.75 44.5 179.95 46.25 179.7 48.0 M135.05 26.35 Q136.3 26.7 137.5 27.45 138.65 28.25 139.35 29.45 L140.3 31.9 140.45 33.0 140.45 33.95 Q140.45 37.3 138.45 39.25 136.4 41.2 134.0 41.2 L133.85 41.2 133.7 41.2 Q131.8 41.2 130.1 39.9 128.4 38.65 127.65 35.85 L126.95 34.65 Q126.55 34.2 126.05 34.3 125.1 34.3 124.0 35.35 122.85 36.4 121.6 38.25 119.4 41.0 117.9 44.45 116.4 47.9 115.2 51.4 L114.15 54.4 113.2 57.3 112.85 58.35 112.5 59.45 95.8 59.45 103.3 38.5 103.45 37.85 103.45 37.4 Q103.45 36.4 102.65 36.05 L100.9 35.85 Q98.55 36.1 96.75 38.0 94.95 39.9 93.8 42.1 L93.25 43.05 94.6 43.75 94.15 44.6 93.65 45.4 90.55 51.0 Q88.8 53.75 86.35 55.9 84.1 57.9 81.1 59.0 78.05 60.05 74.8 60.25 L74.4 60.25 74.0 60.25 71.25 60.05 68.65 59.45 Q65.2 58.25 63.75 55.8 62.35 53.3 62.35 50.3 62.35 49.35 62.5 48.3 L62.9 46.15 63.2 45.1 63.5 44.1 66.35 35.8 69.2 27.55 73.6 27.55 78.05 27.55 82.5 27.55 86.9 27.55 85.8 30.85 84.65 34.15 82.35 40.7 80.15 47.3 79.7 48.65 79.5 49.9 Q79.5 50.4 79.9 50.75 L81.3 51.0 Q82.05 51.0 83.15 50.45 L85.4 48.8 Q87.0 47.15 88.0 45.35 L89.4 42.75 88.3 42.3 Q90.6 36.1 95.15 31.2 99.75 26.3 106.6 25.95 L107.9 25.85 109.3 25.95 Q112.3 26.1 115.05 27.45 117.8 28.75 119.4 31.35 L123.6 28.6 Q125.85 27.4 128.2 26.65 L130.3 26.15 132.35 26.0 135.05 26.35 M84.95 12.2 L85.4 12.4 Q87.25 13.2 88.85 14.65 90.45 16.1 90.45 18.15 L90.35 18.75 90.25 19.4 Q89.7 21.1 88.25 22.25 86.85 23.4 85.2 23.95 L84.55 24.05 84.0 24.2 82.5 24.4 81.05 24.45 77.05 24.0 Q75.05 23.5 73.55 22.3 72.35 21.45 71.7 20.2 71.0 18.95 71.0 17.7 71.0 16.95 71.25 16.25 71.55 15.5 72.0 14.9 73.25 13.25 75.3 12.45 77.35 11.65 79.5 11.45 L80.0 11.45 80.5 11.45 82.45 11.6 84.35 12.05 84.95 12.2 M61.35 18.95 Q59.1 20.7 56.3 20.9 L56.05 20.9 55.85 20.9 53.55 20.4 Q52.4 20.05 51.5 19.25 L51.15 18.95 50.75 18.6 50.65 18.55 50.6 18.45 50.35 18.25 50.15 18.05 51.5 16.7 52.55 15.25 53.25 14.0 53.4 12.85 Q53.4 11.8 52.4 11.15 51.4 10.5 48.95 10.5 43.2 10.5 38.1 16.5 33.0 22.5 30.0 29.8 L29.6 30.8 29.2 31.95 29.05 32.25 28.95 32.55 27.85 35.7 27.1 39.1 26.85 40.9 26.75 42.65 26.85 44.1 27.1 45.55 Q27.45 46.9 28.2 47.45 28.95 48.0 29.8 48.0 L30.45 47.95 31.1 47.8 Q31.95 47.45 32.8 46.9 L34.25 45.65 Q35.6 44.0 37.05 41.1 38.5 38.25 40.05 33.5 L40.5 32.2 41.45 29.3 42.35 26.85 42.9 25.3 66.5 25.3 64.25 31.85 61.95 38.4 59.65 45.05 57.4 51.6 Q53.65 62.35 43.95 68.9 34.25 75.45 23.15 75.45 L19.35 75.2 15.55 74.55 Q10.6 73.35 8.15 71.15 5.7 68.95 5.15 66.5 L5.0 65.7 5.0 64.95 Q5.05 61.6 7.5 59.1 9.95 56.6 13.3 56.65 14.8 56.65 16.25 57.25 17.7 57.8 19.2 59.25 L19.55 59.65 19.95 60.0 20.35 60.4 20.7 60.8 19.9 61.2 19.0 61.7 16.25 63.7 Q15.0 64.9 15.1 66.7 L15.1 67.0 15.1 67.2 Q15.3 68.75 16.4 69.45 17.55 70.2 19.0 70.3 20.15 70.4 21.45 69.9 22.8 69.35 24.1 68.3 L25.15 67.45 26.2 66.4 Q28.85 63.6 30.45 60.25 32.1 56.85 33.25 53.25 L30.5 54.0 27.65 54.6 26.25 54.75 24.85 54.75 Q20.35 54.75 16.2 52.9 12.1 51.05 9.4 46.95 7.7 44.35 6.9 41.5 6.15 38.6 6.15 35.6 L6.2 34.15 6.35 32.65 6.85 29.6 7.7 26.7 Q10.6 18.35 18.3 13.05 26.0 7.75 34.6 6.2 L38.3 5.7 41.85 5.5 46.2 5.65 51.95 6.3 Q56.3 7.05 59.95 8.9 63.6 10.75 63.6 14.45 63.6 17.2 61.35 18.95" fill="#ffffff" fill-rule="evenodd" stroke="none"/>
  </g>
  <defs>
    <linearGradient gradientTransform="matrix(0.0, 0.023, -0.112, 0.0, 578.55, 38.6)" gradientUnits="userSpaceOnUse" id="gradient0" spreadMethod="pad" x1="-819.2" x2="819.2">
      <stop offset="0.0" stop-color="#e60199"/>
      <stop offset="1.0" stop-color="#710168"/>
    </linearGradient>
    <linearGradient gradientTransform="matrix(0.0, 0.0488, -0.0649, 0.0, 282.6, 40.45)" gradientUnits="userSpaceOnUse" id="gradient1" spreadMethod="pad" x1="-819.2" x2="819.2">
      <stop offset="0.0" stop-color="#ef019d"/>
      <stop offset="1.0" stop-color="#5a015f"/>
    </linearGradient>
  </defs>
</svg>
