<?xml version="1.0" encoding="UTF-8" standalone="no"?>
<svg xmlns:xlink="http://www.w3.org/1999/xlink" height="78.55px" width="82.85px" xmlns="http://www.w3.org/2000/svg">
  <g transform="matrix(1.0, 0.0, 0.0, 1.0, 5.75, -2.7)">
    <path d="M73.1 8.55 Q73.75 9.25 74.1 10.25 71.4 30.1 69.05 62.45 L68.35 68.85 66.35 78.25 6.0 78.25 Q5.35 76.6 4.0 70.5 L3.65 69.85 4.0 69.85 Q3.0 65.8 2.65 60.75 1.65 39.2 -2.75 10.6 -2.4 8.55 -0.7 7.55 L-1.05 6.9 0.65 6.9 1.65 6.9 3.35 6.2 3.65 6.2 6.0 5.9 9.4 5.9 Q10.4 5.55 11.75 5.9 L13.45 5.9 68.05 6.55 68.05 6.9 69.4 6.9 69.7 6.9 Q70.05 6.9 70.4 7.25 L71.05 7.25 72.4 7.55 73.1 7.55 73.4 7.55 73.1 8.55" fill="#124f19" fill-rule="evenodd" stroke="none"/>
    <path d="M73.1 8.55 Q73.75 9.25 74.1 10.25 71.4 30.1 69.05 62.45 L68.35 68.85 66.35 78.25 6.0 78.25 Q5.35 76.6 4.0 70.5 L3.65 69.85 4.0 69.85 Q3.0 65.8 2.65 60.75 1.65 39.2 -2.75 10.6 -2.4 8.55 -0.7 7.55 L-1.05 6.9 0.65 6.9 1.65 6.9 3.35 6.2 3.65 6.2 6.0 5.9 9.4 5.9 Q10.4 5.55 11.75 5.9 L13.45 5.9 68.05 6.55 68.05 6.9 69.4 6.9 69.7 6.9 Q70.05 6.9 70.4 7.25 L71.05 7.25 72.4 7.55 73.1 7.55 73.4 7.55 73.1 8.55 Z" fill="none" stroke="#012001" stroke-linecap="round" stroke-linejoin="round" stroke-width="6.0"/>
    <path d="M68.05 6.9 L66.35 6.9 60.95 6.55 Q53.55 12.3 50.85 15.3 48.8 17.35 48.15 18.35 37.05 23.7 26.25 18.0 L23.55 14.3 Q18.85 9.6 11.1 6.55 L10.05 6.55 Q8.05 6.2 6.0 6.55 L5.7 6.55 3.35 6.2 3.65 6.2 6.0 5.9 9.4 5.9 Q11.1 5.55 13.45 5.9 L68.05 6.55 68.05 6.9" fill="#091c00" fill-rule="evenodd" stroke="none"/>
    <path d="M66.35 6.9 L68.05 6.9 69.7 6.9 Q70.05 6.9 70.4 7.25 L71.05 7.25 Q73.4 8.55 74.1 10.25 71.4 30.1 69.05 62.45 L68.35 68.85 62.3 70.85 62.3 71.2 61.65 71.55 58.95 72.2 Q66.35 47.95 66.35 6.9 M3.35 6.2 L5.7 6.55 6.0 6.55 Q6.7 52.0 13.75 72.2 L13.75 72.55 11.4 72.2 11.4 71.85 11.1 71.85 4.0 69.85 Q3.0 65.8 2.65 60.75 1.65 39.2 -2.75 10.6 -2.4 7.9 0.95 6.9 L3.35 6.2" fill="#153c00" fill-rule="evenodd" stroke="none"/>
    <path d="M6.0 6.55 Q8.05 6.2 10.05 6.55 L11.1 6.55 Q18.85 9.6 23.55 14.3 L26.25 18.0 Q29.3 23.4 30.95 31.45 33.65 43.25 36.0 45.95 38.35 48.65 40.4 40.9 L43.45 28.75 Q44.8 24.4 46.45 21.35 L48.15 18.35 Q48.8 17.35 50.85 15.3 53.55 12.3 60.95 6.55 L66.35 6.9 Q66.35 47.95 58.95 72.2 L53.2 73.9 Q46.45 75.9 39.4 76.25 L37.05 76.25 34.65 76.25 25.9 75.55 18.5 74.2 13.75 72.55 13.75 72.2 Q6.7 52.0 6.0 6.55" fill="#194303" fill-rule="evenodd" stroke="none"/>
    <path d="M26.25 18.0 Q37.05 23.7 48.15 18.35 L46.45 21.35 Q44.8 24.4 43.45 28.75 L40.4 40.9 Q38.35 48.65 36.0 45.95 33.65 43.25 30.95 31.45 29.3 23.4 26.25 18.0" fill="#0e2c00" fill-rule="evenodd" stroke="none"/>
    <path d="M61.65 71.55 L62.3 71.2 62.3 70.85 68.35 68.85 66.35 78.25 60.3 78.25 61.65 71.55 M12.75 78.25 L5.7 78.25 4.0 70.5 3.65 69.85 4.0 69.85 11.1 71.85 Q11.1 75.55 11.75 77.6 L12.75 78.25" fill="#ada9a9" fill-rule="evenodd" stroke="none"/>
    <path d="M58.95 72.2 L61.65 71.55 60.3 78.25 12.75 78.25 11.75 77.6 Q11.1 75.55 11.1 71.85 L11.4 71.85 11.4 72.2 13.75 72.55 18.5 74.2 25.9 75.55 34.65 76.25 37.05 76.25 39.4 76.25 Q46.45 75.9 53.2 73.9 L58.95 72.2" fill="#e5e1e1" fill-rule="evenodd" stroke="none"/>
    <path d="M48.15 18.35 Q48.8 17.35 50.85 15.3 53.55 12.3 60.95 6.55 L69.05 6.9 Q61.65 20.7 48.15 18.35 M3.35 6.55 L5.7 6.55 Q7.7 6.2 10.05 6.55 L11.1 6.55 Q18.85 9.6 23.55 14.3 L26.25 18.0 Q13.45 20.7 3.35 6.55" fill="#818a7a" fill-rule="evenodd" stroke="none"/>
    <path d="M69.05 6.9 L72.4 7.55 60.6 26.75 51.85 22.4 Q48.8 21.05 47.15 24.4 43.75 39.9 39.7 46.95 L39.7 47.3 Q37.7 48.65 37.05 48.65 36.0 48.3 34.35 46.95 29.95 38.55 26.25 25.4 L26.25 25.05 Q24.55 20.0 21.5 21.05 L12.1 25.75 0.65 6.9 3.35 6.55 Q13.45 20.7 26.25 18.0 29.3 23.4 30.95 31.45 33.65 43.25 36.0 45.95 38.35 48.65 40.4 40.9 L43.45 28.75 Q44.8 24.4 46.45 21.35 L48.15 18.35 Q61.65 20.7 69.05 6.9" fill="#b6bbb2" fill-rule="evenodd" stroke="none"/>
    <path d="M72.4 7.55 L73.1 7.55 73.4 7.55 63.3 35.5 49.85 24.05 Q49.85 25.05 48.5 27.75 L46.15 34.5 42.4 44.25 Q41.75 45.6 39.7 46.95 43.75 39.9 47.15 24.4 48.8 21.05 51.85 22.4 L60.6 26.75 72.4 7.55 M34.35 46.95 L33.65 46.95 Q31.65 44.95 27.95 35.5 24.55 25.4 22.85 23.4 L11.1 34.85 -1.05 6.9 0.65 6.9 12.1 25.75 21.5 21.05 Q24.55 20.0 26.25 25.05 L26.25 25.4 Q29.95 38.55 34.35 46.95" fill="#e5e1e1" fill-rule="evenodd" stroke="none"/>
    <path d="M16.15 73.9 L15.45 68.5 Q25.55 67.15 28.25 57.75 L44.45 57.75 Q46.8 64.8 56.9 68.5 L56.9 73.2 49.85 74.9 39.05 76.6 36.35 76.6 34.0 76.6 Q24.9 76.25 16.15 73.9" fill="#b6bbb2" fill-rule="evenodd" stroke="none"/>
    <path d="M16.15 73.9 L10.75 72.2 10.4 65.8 Q22.55 65.15 25.55 54.0 L48.15 54.0 Q50.85 64.8 61.95 65.45 L61.3 71.85 56.9 73.2 56.9 68.5 Q46.8 64.8 44.45 57.75 L28.25 57.75 Q25.55 67.15 15.45 68.5 L16.15 73.9" fill="#ced2ca" fill-rule="evenodd" stroke="none"/>
  </g>
</svg>
