<?xml version="1.0" encoding="UTF-8" standalone="no"?>
<svg xmlns:xlink="http://www.w3.org/1999/xlink" height="66.75px" width="157.35px" xmlns="http://www.w3.org/2000/svg">
  <g transform="matrix(1.0, 0.0, 0.0, 1.0, -2.6, 5.05)">
    <path d="M4.15 32.6 Q3.6 29.7 3.3 26.45 2.8 21.9 2.65 16.65 2.1 0.3 9.95 -3.05 21.45 -6.15 35.95 -4.45 43.95 -3.45 52.85 -1.0 L56.85 0.1 58.1 0.5 59.0 0.7 59.1 0.75 61.4 1.45 Q63.35 2.2 65.1 3.55 68.4 6.1 70.9 10.55 L71.25 11.05 Q75.35 16.65 83.2 15.6 87.4 15.8 91.55 10.7 95.75 2.3 109.35 -1.35 121.85 -4.4 132.95 -4.9 139.75 -5.25 146.0 -4.6 L147.7 -4.45 148.55 -4.4 Q150.7 -4.2 152.45 -3.35 153.8 -2.75 154.95 -1.8 L156.15 -0.55 Q159.0 2.75 159.9 8.9 160.15 18.65 159.45 26.5 L159.05 30.05 152.75 43.35 150.85 47.45 Q147.7 52.9 142.95 54.55 119.5 61.05 108.65 54.85 L107.95 54.4 Q106.1 53.2 104.65 51.65 102.9 49.65 101.7 47.15 L101.05 45.95 Q98.4 41.05 96.95 35.35 95.9 31.4 95.45 26.95 93.6 29.5 91.1 27.6 L90.4 26.9 Q87.35 24.65 83.45 24.35 L82.1 24.3 Q75.3 24.0 72.7 26.55 68.5 29.85 67.0 25.25 66.7 34.45 63.9 41.9 59.85 52.85 52.15 56.25 46.3 58.9 37.3 58.75 30.05 58.6 23.45 56.9 19.05 55.85 15.75 52.9 14.2 51.6 12.95 49.9 L11.3 47.45 10.3 45.65 9.65 44.35 8.45 41.3 8.1 40.35 7.7 38.9 4.15 32.6 M147.7 2.15 L143.45 1.15 141.7 0.95 Q136.4 0.4 129.0 1.25 122.15 2.0 113.5 3.9 98.25 7.45 97.35 19.05 97.2 23.3 97.6 27.05 98.0 31.2 99.0 34.85 100.35 40.15 102.8 44.7 L103.4 45.85 Q104.5 48.15 106.15 50.0 107.5 51.45 109.2 52.6 L109.85 53.0 Q119.95 58.75 141.8 52.7 146.2 51.2 149.15 46.1 L150.9 42.3 Q152.5 38.15 153.55 32.55 154.6 26.05 154.9 22.15 155.4 15.65 154.55 9.5 154.15 6.3 151.65 4.25 151.1 3.75 150.35 3.35 149.25 2.65 147.7 2.15 M55.3 7.8 L53.45 6.95 51.7 6.2 48.15 5.1 Q41.6 3.25 32.25 2.9 26.3 2.65 19.15 2.95 L18.6 3.0 Q7.85 4.0 8.5 20.05 L8.5 20.15 8.55 20.95 8.8 25.1 Q9.45 32.7 10.9 37.8 L11.25 39.1 11.6 39.9 Q12.05 41.35 12.65 42.6 L13.2 43.75 14.1 45.35 15.55 47.55 Q16.65 49.05 18.05 50.2 20.95 52.8 24.85 53.75 30.7 55.25 37.15 55.35 45.1 55.5 50.3 53.15 57.1 50.15 60.7 40.45 63.15 33.85 63.45 25.7 63.6 21.35 63.1 16.5 61.9 12.6 58.4 9.8 L55.3 7.8" fill="#1f201b" fill-rule="evenodd" stroke="none"/>
    <path d="M147.7 2.15 Q149.25 2.65 150.35 3.35 151.1 3.75 151.65 4.25 154.15 6.3 154.55 9.5 155.4 15.65 154.9 22.15 154.6 26.05 153.55 32.55 152.5 38.15 150.9 42.3 L149.15 46.1 Q146.2 51.2 141.8 52.7 119.95 58.75 109.85 53.0 L109.2 52.6 Q107.5 51.45 106.15 50.0 104.5 48.15 103.4 45.85 L102.8 44.7 Q100.35 40.15 99.0 34.85 98.0 31.2 97.6 27.05 97.2 23.3 97.35 19.05 98.25 7.45 113.5 3.9 122.15 2.0 129.0 1.25 136.4 0.4 141.7 0.95 L143.45 1.15 147.7 2.15" fill="url(#gradient0)" fill-rule="evenodd" stroke="none"/>
    <path d="M159.05 30.05 Q156.45 48.95 147.0 55.85 132.1 64.85 110.65 59.95 108.2 59.2 106.1 57.95 L105.35 57.45 Q103.55 56.25 102.0 54.65 99.8 52.4 98.05 49.3 L96.7 46.65 91.35 35.5 Q88.6 26.4 81.7 26.55 74.0 25.7 71.2 36.35 62.5 58.15 50.65 60.35 25.0 64.15 13.9 54.7 L11.1 51.75 9.4 49.35 8.45 47.5 7.15 44.3 6.7 43.0 6.5 42.45 Q5.0 38.15 4.15 32.6 L7.7 38.9 8.1 40.35 8.45 41.3 9.65 44.35 10.3 45.65 11.3 47.45 12.95 49.9 Q14.2 51.6 15.75 52.9 19.05 55.85 23.45 56.9 30.05 58.6 37.3 58.75 46.3 58.9 52.15 56.25 59.85 52.85 63.9 41.9 66.7 34.45 67.0 25.25 68.5 29.85 72.7 26.55 75.3 24.0 82.1 24.3 L83.45 24.35 Q87.35 24.65 90.4 26.9 L91.1 27.6 Q93.6 29.5 95.45 26.95 95.9 31.4 96.95 35.35 98.4 41.05 101.05 45.95 L101.7 47.15 Q102.9 49.65 104.65 51.65 106.1 53.2 107.95 54.4 L108.65 54.85 Q119.5 61.05 142.95 54.55 147.7 52.9 150.85 47.45 L152.75 43.35 159.05 30.05" fill="#434345" fill-rule="evenodd" stroke="none"/>
    <path d="M55.3 7.8 L58.4 9.8 Q61.9 12.6 63.1 16.5 63.6 21.35 63.45 25.7 63.15 33.85 60.7 40.45 57.1 50.15 50.3 53.15 45.1 55.5 37.15 55.35 30.7 55.25 24.85 53.75 20.95 52.8 18.05 50.2 16.65 49.05 15.55 47.55 L14.1 45.35 13.2 43.75 12.65 42.6 Q12.05 41.35 11.6 39.9 L11.25 39.1 10.9 37.8 Q9.45 32.7 8.8 25.1 L8.55 20.95 8.5 20.15 8.5 20.05 Q7.85 4.0 18.6 3.0 L19.15 2.95 Q26.3 2.65 32.25 2.9 41.6 3.25 48.15 5.1 L51.7 6.2 53.45 6.95 55.3 7.8" fill="url(#gradient1)" fill-rule="evenodd" stroke="none"/>
    <path d="M145.5 -1.25 Q115.4 18.1 102.15 47.75 98.65 40.9 97.8 37.55 108.05 11.45 132.2 -1.3 137.4 -1.8 145.5 -1.25 M153.85 2.3 Q122.5 24.1 108.9 54.7 L108.2 54.25 Q106.35 53.05 106.1 52.45 120.4 20.45 151.15 0.65 L152.45 1.35 153.85 2.3" fill="url(#gradient2)" fill-rule="evenodd" stroke="none"/>
    <path d="M56.0 3.9 Q57.1 4.3 58.1 4.85 31.8 22.65 13.2 49.75 L11.6 47.3 10.6 45.5 Q28.4 19.6 54.0 3.05 L56.0 3.9 M8.4 40.15 L7.95 38.75 Q6.35 33.0 5.8 26.35 16.15 7.95 34.6 -0.65 42.6 -0.25 50.0 1.8 21.9 19.5 8.75 41.15 L8.4 40.15" fill="url(#gradient3)" fill-rule="evenodd" stroke="none"/>
  </g>
  <defs>
    <linearGradient gradientTransform="matrix(0.0, 0.0379, -0.0361, 0.0, 126.2, 28.3)" gradientUnits="userSpaceOnUse" id="gradient0" spreadMethod="pad" x1="-819.2" x2="819.2">
      <stop offset="0.0" stop-color="#352e34"/>
      <stop offset="1.0" stop-color="#a6a6a6"/>
    </linearGradient>
    <linearGradient gradientTransform="matrix(0.0, 0.0379, -0.0362, 0.0, 36.0, 29.1)" gradientUnits="userSpaceOnUse" id="gradient1" spreadMethod="pad" x1="-819.2" x2="819.2">
      <stop offset="0.0" stop-color="#352e34"/>
      <stop offset="1.0" stop-color="#a6a6a6"/>
    </linearGradient>
    <linearGradient gradientTransform="matrix(-0.021, 0.0175, -0.0231, -0.0277, 126.15, 28.8)" gradientUnits="userSpaceOnUse" id="gradient2" spreadMethod="pad" x1="-819.2" x2="819.2">
      <stop offset="0.0" stop-color="#a69ea4"/>
      <stop offset="1.0" stop-color="#ffffff"/>
    </linearGradient>
    <linearGradient gradientTransform="matrix(-0.0185, 0.0161, -0.0238, -0.0272, 30.35, 27.5)" gradientUnits="userSpaceOnUse" id="gradient3" spreadMethod="pad" x1="-819.2" x2="819.2">
      <stop offset="0.0" stop-color="#a69ea4"/>
      <stop offset="1.0" stop-color="#ffffff"/>
    </linearGradient>
  </defs>
</svg>
