<?xml version="1.0" encoding="UTF-8" standalone="no"?>
<svg xmlns:xlink="http://www.w3.org/1999/xlink" height="63.6px" width="252.4px" xmlns="http://www.w3.org/2000/svg">
  <g transform="matrix(1.0, 0.0, 0.0, 1.0, -1.5, -1.5)">
    <path d="M241.35 9.15 Q244.65 8.2 245.9 8.2 247.1 8.2 247.1 9.45 L246.55 11.45 Q245.25 15.55 245.1 19.5 L248.85 19.65 Q251.95 19.65 253.35 21.15 L253.15 21.25 252.2 22.65 Q251.2 24.2 249.05 24.85 L245.95 25.35 244.6 25.25 244.3 25.25 244.3 25.6 244.1 31.25 243.8 35.35 Q243.8 40.8 245.4 42.65 246.75 44.25 248.9 44.25 251.8 44.25 253.8 41.9 L253.9 42.65 Q253.9 46.05 251.45 48.35 248.9 50.75 245.4 50.75 240.15 50.75 237.75 46.75 235.95 43.75 235.95 37.4 L235.95 36.65 Q235.95 32.65 236.6 25.6 L236.65 25.4 236.4 25.4 234.5 25.45 233.2 25.55 Q228.4 25.55 228.4 23.4 228.4 22.9 228.75 22.25 L231.5 18.95 231.65 18.8 232.5 19.35 235.15 19.7 235.95 19.65 237.1 19.65 237.3 19.65 237.45 15.9 237.7 13.4 237.8 12.1 Q237.95 10.8 238.85 10.2 239.9 9.5 241.35 9.15 M217.3 19.3 Q221.9 19.3 224.65 23.25 227.45 27.2 227.45 33.6 227.45 41.3 223.85 46.25 220.25 51.25 214.65 51.25 211.55 51.25 208.15 49.2 L208.15 49.5 208.25 51.8 208.45 54.6 Q208.65 56.85 209.15 58.5 L209.6 60.3 Q209.6 61.9 207.8 63.15 206.1 64.4 203.75 64.4 201.45 64.4 200.9 62.45 200.25 60.75 200.25 54.25 200.25 50.1 200.7 42.65 L201.1 32.9 Q201.1 24.75 198.95 23.05 L202.1 21.15 Q205.0 19.3 206.45 19.3 207.25 19.3 207.75 19.65 208.6 20.15 208.6 22.4 L208.75 24.7 Q210.05 22.25 212.4 20.8 214.7 19.3 217.3 19.3 M177.85 28.0 L176.65 29.3 Q175.55 27.5 173.25 26.35 170.95 25.2 168.65 25.2 165.2 25.2 165.2 27.55 165.2 28.15 165.55 28.55 166.35 29.65 172.6 33.25 176.15 35.4 177.65 37.15 179.6 39.5 179.6 42.45 179.6 46.7 176.5 49.2 173.4 51.75 168.2 51.75 162.45 51.75 157.2 48.55 L154.9 47.25 154.7 47.2 156.85 44.95 Q158.2 43.45 159.85 43.45 L161.25 43.75 163.3 44.7 Q165.35 45.55 167.5 45.55 168.95 45.55 169.85 44.85 170.75 44.05 170.75 42.9 170.75 41.6 169.3 40.35 L166.65 38.65 162.15 35.9 Q156.6 32.5 156.6 28.0 156.6 24.45 159.95 22.15 163.15 19.8 168.2 19.8 173.05 19.8 176.15 21.35 179.3 22.9 179.3 25.2 179.3 26.25 177.85 28.0 M185.9 50.15 Q184.65 49.2 184.65 47.55 184.65 45.55 186.85 44.05 189.1 42.45 191.95 42.45 194.05 42.45 195.35 43.45 196.65 44.45 196.65 46.05 196.65 48.2 194.55 49.7 192.4 51.15 189.3 51.15 187.15 51.15 185.9 50.15 M215.2 26.1 Q212.4 26.1 210.45 30.1 208.55 34.1 208.55 39.95 L208.55 42.1 Q210.95 45.05 213.65 45.05 216.25 45.05 217.9 42.15 219.55 39.3 219.55 34.75 219.55 26.1 215.2 26.1 M138.4 19.5 Q144.55 19.5 148.5 24.1 152.45 28.7 152.45 35.75 152.45 42.8 148.8 47.05 145.05 51.3 138.9 51.3 132.8 51.3 128.9 47.05 124.95 42.75 124.95 36.05 124.95 32.25 126.55 28.8 128.2 25.4 130.5 24.25 L129.9 22.65 Q131.05 21.35 133.6 20.45 136.2 19.5 138.4 19.5 M134.75 28.65 Q133.3 30.85 133.3 34.6 133.3 39.3 135.1 42.15 136.85 45.05 139.65 45.05 144.75 45.05 144.75 37.0 144.75 32.5 142.95 29.45 141.15 26.35 138.55 26.35 136.2 26.35 134.75 28.65 M119.25 34.4 Q118.9 35.45 118.7 37.05 118.35 40.2 118.35 44.45 L118.35 45.25 118.35 48.2 118.4 50.3 118.4 52.1 118.2 57.5 Q117.7 60.5 116.1 62.45 113.8 65.1 108.95 65.1 103.8 65.1 100.7 61.75 L99.2 60.1 98.75 59.8 101.35 58.3 Q102.7 57.55 103.7 57.55 L106.3 58.15 107.9 58.5 Q111.05 58.5 111.05 52.5 L111.05 50.75 111.05 48.65 111.05 48.05 Q107.75 50.75 103.85 50.75 99.75 50.75 97.1 47.05 94.35 43.3 94.35 37.8 94.35 30.45 98.75 24.95 103.0 19.5 108.75 19.5 111.65 19.5 113.5 20.95 115.15 22.1 116.45 24.55 117.75 26.9 117.75 28.65 L117.1 30.6 117.4 30.6 118.6 30.5 Q119.9 30.5 119.9 31.65 L119.25 34.4 M75.15 19.5 Q81.25 19.5 85.2 24.1 89.15 28.7 89.15 35.75 89.15 42.8 85.5 47.05 81.75 51.3 75.65 51.3 69.5 51.3 65.65 47.05 61.7 42.75 61.7 36.05 61.7 32.25 63.25 28.8 64.9 25.4 67.2 24.25 L66.65 22.65 Q67.8 21.35 70.3 20.45 72.9 19.5 75.15 19.5 M54.7 16.0 Q52.15 17.9 49.1 17.9 47.35 17.9 46.35 17.05 45.25 16.2 45.25 14.85 L45.25 14.6 Q45.25 12.1 48.8 9.8 50.95 8.4 53.05 8.4 57.15 8.4 57.15 11.9 57.15 14.2 54.7 16.0 M70.05 34.6 Q70.05 39.3 71.85 42.15 73.55 45.05 76.35 45.05 81.45 45.05 81.45 37.0 81.45 32.5 79.65 29.45 77.85 26.35 75.3 26.35 72.9 26.35 71.45 28.65 70.05 30.85 70.05 34.6 M55.7 27.2 L55.55 31.95 55.35 40.45 55.5 54.1 Q55.5 59.8 53.45 62.15 51.0 65.05 45.55 65.05 40.95 65.05 37.05 61.75 L35.6 60.65 35.35 60.35 35.75 60.2 37.8 58.8 Q39.3 57.7 40.3 57.7 L41.8 58.0 42.75 58.55 44.75 59.0 Q46.25 59.0 46.9 57.7 47.8 56.2 47.8 49.05 47.8 41.5 47.4 34.7 47.05 28.0 45.7 24.95 L46.25 24.85 49.75 22.95 Q52.3 21.5 53.85 21.5 55.9 21.5 55.9 24.2 L55.7 27.2 M101.9 37.25 Q101.9 44.2 106.0 44.2 110.05 44.2 111.05 36.1 111.4 32.8 112.15 32.25 L111.55 32.0 Q110.9 31.65 110.9 29.7 110.9 28.2 110.1 27.25 109.4 26.25 108.3 26.25 105.75 26.25 103.85 29.55 101.9 32.8 101.9 37.25 M9.85 12.5 Q9.35 11.95 9.35 11.45 9.35 10.95 9.9 10.2 11.15 8.7 14.8 7.55 18.55 6.35 21.95 6.35 30.05 6.35 35.25 12.15 40.35 18.0 40.35 27.2 40.35 38.0 35.2 44.7 29.95 51.3 21.35 51.3 13.65 51.3 8.55 45.05 3.45 38.7 3.45 29.45 3.45 23.05 5.15 18.5 6.8 13.9 9.85 12.5 M14.8 17.05 Q12.0 21.6 12.0 28.85 12.0 35.6 14.3 40.1 17.2 45.7 22.25 45.7 26.75 45.7 29.5 41.15 32.3 36.55 32.3 29.15 32.3 21.65 29.5 17.05 26.75 12.5 22.25 12.5 17.6 12.5 14.8 17.05" fill="#ab0709" fill-rule="evenodd" stroke="none"/>
    <path d="M239.9 4.85 Q243.2 3.9 244.45 3.9 245.65 3.9 245.65 5.1 L245.1 7.15 Q243.8 11.25 243.65 15.2 L247.4 15.35 Q250.5 15.35 251.95 16.85 L251.7 16.9 250.8 18.35 Q249.75 19.85 247.6 20.5 L244.5 21.0 243.15 20.95 242.85 20.95 242.85 21.3 242.65 26.9 242.35 31.0 Q242.35 36.5 243.95 38.35 245.3 39.95 247.45 39.95 250.35 39.95 252.35 37.55 L252.45 38.35 Q252.45 41.75 250.0 44.05 247.45 46.4 243.95 46.4 238.7 46.4 236.3 42.45 234.5 39.45 234.5 33.1 L234.5 32.3 Q234.5 28.35 235.15 21.3 L235.25 21.1 234.95 21.1 233.05 21.15 231.8 21.25 Q226.95 21.25 226.95 19.05 226.95 18.55 227.3 17.9 L230.05 14.6 230.2 14.45 231.05 15.05 233.7 15.4 234.5 15.35 235.65 15.35 235.9 15.35 236.0 11.6 236.25 9.05 236.4 7.8 Q236.55 6.5 237.4 5.9 238.45 5.2 239.9 4.85 M223.2 18.95 Q226.0 22.9 226.0 29.3 226.0 37.0 222.4 41.95 218.8 46.9 213.2 46.9 210.2 46.9 206.85 44.95 L206.75 44.9 206.75 45.2 206.8 47.5 207.0 50.3 Q207.25 52.5 207.75 54.2 L208.15 56.0 Q208.15 57.55 206.35 58.85 204.65 60.1 202.35 60.1 200.05 60.1 199.45 58.15 198.8 56.4 198.8 49.95 198.8 45.75 199.25 38.35 L199.65 28.55 Q199.65 20.45 197.5 18.7 L200.7 16.85 Q203.55 14.95 205.0 14.95 L206.3 15.35 Q207.15 15.85 207.15 18.05 L207.3 20.35 Q208.6 17.9 210.95 16.5 213.3 14.95 215.85 14.95 220.45 14.95 223.2 18.95 M177.85 20.85 Q177.85 21.95 176.4 23.7 L175.2 24.95 Q174.1 23.15 171.8 22.0 169.5 20.85 167.2 20.85 163.75 20.85 163.75 23.25 163.75 23.8 164.1 24.25 164.9 25.35 171.15 28.95 174.7 31.1 176.2 32.8 178.15 35.2 178.15 38.15 178.15 42.4 175.05 44.9 171.95 47.4 166.75 47.4 161.0 47.4 155.75 44.25 L153.45 42.95 153.25 42.9 155.4 40.65 Q156.75 39.15 158.4 39.15 L159.8 39.45 161.9 40.35 Q163.9 41.25 166.05 41.25 167.5 41.25 168.45 40.5 169.3 39.7 169.3 38.55 169.3 37.25 167.85 36.05 L165.2 34.3 160.75 31.6 Q155.2 28.2 155.2 23.7 155.2 20.15 158.5 17.85 161.75 15.45 166.75 15.45 171.6 15.45 174.7 17.05 177.85 18.55 177.85 20.85 M193.9 39.15 Q195.2 40.15 195.2 41.75 195.2 43.9 193.1 45.4 190.95 46.85 187.85 46.85 185.7 46.85 184.5 45.85 183.2 44.9 183.2 43.25 183.2 41.25 185.4 39.7 187.65 38.15 190.55 38.15 192.6 38.15 193.9 39.15 M218.1 30.45 Q218.1 21.8 213.8 21.8 210.95 21.8 209.05 25.75 207.1 29.8 207.1 35.6 L207.1 37.8 Q209.55 40.75 212.2 40.75 214.8 40.75 216.45 37.85 218.1 34.95 218.1 30.45 M115.0 20.2 Q116.3 22.6 116.3 24.3 L115.65 26.25 115.95 26.25 117.2 26.2 Q118.45 26.2 118.45 27.35 L117.8 30.1 Q117.45 31.15 117.25 32.75 116.9 35.9 116.9 40.15 L116.9 40.95 116.9 43.9 116.95 46.0 116.95 47.8 116.75 53.15 Q116.25 56.2 114.65 58.15 112.35 60.8 107.55 60.8 102.35 60.8 99.25 57.4 L97.75 55.75 97.3 55.45 99.9 53.95 Q101.25 53.25 102.3 53.25 L104.85 53.8 106.45 54.2 Q109.6 54.2 109.6 48.2 L109.6 46.4 109.6 44.3 109.6 43.75 109.4 43.95 Q106.15 46.4 102.4 46.4 98.3 46.4 95.65 42.75 92.9 39.0 92.9 33.45 92.9 26.1 97.3 20.65 101.55 15.2 107.3 15.2 110.2 15.2 112.05 16.65 113.7 17.8 115.0 20.2 M136.95 15.2 Q143.1 15.2 147.05 19.8 151.0 24.4 151.0 31.45 151.0 38.5 147.35 42.75 143.6 47.0 137.5 47.0 131.35 47.0 127.45 42.75 123.5 38.4 123.5 31.75 123.5 27.9 125.1 24.45 126.75 21.1 129.05 19.95 L128.5 18.35 Q129.65 17.05 132.15 16.1 134.75 15.2 136.95 15.2 M133.3 24.3 Q131.85 26.55 131.85 30.3 131.85 34.95 133.65 37.85 135.4 40.75 138.2 40.75 143.3 40.75 143.3 32.65 143.3 28.2 141.5 25.1 139.7 22.0 137.1 22.0 134.75 22.0 133.3 24.3 M73.7 15.2 Q79.8 15.2 83.8 19.8 87.75 24.4 87.75 31.45 87.75 38.5 84.05 42.75 80.3 47.0 74.2 47.0 68.1 47.0 64.2 42.75 60.25 38.4 60.25 31.75 60.25 27.9 61.8 24.45 63.5 21.1 65.8 19.95 L65.2 18.35 Q66.35 17.05 68.85 16.1 71.45 15.2 73.7 15.2 M70.4 37.85 Q72.1 40.75 74.9 40.75 80.05 40.75 80.05 32.65 80.05 28.2 78.25 25.1 76.45 22.0 73.85 22.0 71.45 22.0 70.05 24.3 68.6 26.55 68.6 30.3 68.6 34.95 70.4 37.85 M53.9 36.1 L54.05 49.8 Q54.05 55.45 52.05 57.85 49.6 60.75 44.1 60.75 39.5 60.75 35.6 57.4 L34.2 56.35 33.9 56.05 34.3 55.9 36.35 54.45 Q37.85 53.4 38.85 53.4 L40.35 53.7 41.3 54.25 43.3 54.7 Q44.85 54.7 45.5 53.4 46.35 51.9 46.35 44.75 46.35 37.2 46.0 30.35 45.6 23.7 44.25 20.65 L44.85 20.5 48.3 18.65 Q50.9 17.2 52.4 17.2 54.5 17.2 54.5 19.85 L54.25 22.9 54.1 27.65 53.9 36.1 M110.7 27.9 L110.1 27.7 Q109.45 27.35 109.45 25.4 109.45 23.9 108.7 22.95 107.95 21.95 106.9 21.95 104.3 21.95 102.4 25.25 100.5 28.5 100.5 32.95 100.5 39.85 104.6 39.85 108.6 39.85 109.6 31.8 110.0 28.5 110.7 27.9 M51.6 4.1 Q55.7 4.1 55.7 7.55 55.7 9.85 53.25 11.65 50.75 13.6 47.65 13.6 45.9 13.6 44.9 12.75 43.8 11.9 43.8 10.5 L43.8 10.3 Q43.8 7.8 47.35 5.45 49.5 4.1 51.6 4.1 M8.4 8.2 Q7.9 7.65 7.9 7.15 7.9 6.65 8.5 5.9 9.7 4.4 13.35 3.25 17.1 2.0 20.5 2.0 28.65 2.0 33.8 7.85 38.95 13.7 38.95 22.9 38.95 33.7 33.75 40.35 28.5 47.0 19.9 47.0 12.2 47.0 7.1 40.75 2.0 34.4 2.0 25.1 2.0 18.7 3.75 14.2 5.4 9.6 8.4 8.2 M13.35 12.75 Q10.55 17.25 10.55 24.55 10.55 31.3 12.85 35.75 15.75 41.35 20.8 41.35 25.3 41.35 28.05 36.85 30.85 32.25 30.85 24.85 30.85 17.35 28.05 12.75 25.3 8.2 20.8 8.2 16.2 8.2 13.35 12.75" fill="url(#gradient0)" fill-rule="evenodd" stroke="none"/>
    <path d="M239.9 4.85 Q243.2 3.9 244.45 3.9 245.65 3.9 245.65 5.1 L245.1 7.15 Q243.8 11.25 243.65 15.2 L247.4 15.35 Q250.5 15.35 251.95 16.85 L251.7 16.9 250.8 18.35 Q249.75 19.85 247.6 20.5 L244.5 21.0 243.15 20.95 242.85 20.95 242.85 21.3 242.65 26.9 242.35 31.0 Q242.35 36.5 243.95 38.35 245.3 39.95 247.45 39.95 250.35 39.95 252.35 37.55 L252.45 38.35 Q252.45 41.75 250.0 44.05 247.45 46.4 243.95 46.4 238.7 46.4 236.3 42.45 234.5 39.45 234.5 33.1 L234.5 32.3 Q234.5 28.35 235.15 21.3 L235.25 21.1 234.95 21.1 233.05 21.15 231.8 21.25 Q226.95 21.25 226.95 19.05 226.95 18.55 227.3 17.9 L230.05 14.6 230.2 14.45 231.05 15.05 233.7 15.4 234.5 15.35 235.65 15.35 235.9 15.35 236.0 11.6 236.25 9.05 236.4 7.8 Q236.55 6.5 237.4 5.9 238.45 5.2 239.9 4.85 M223.2 18.95 Q226.0 22.9 226.0 29.3 226.0 37.0 222.4 41.95 218.8 46.9 213.2 46.9 210.2 46.9 206.85 44.95 L206.75 44.9 206.75 45.2 206.8 47.5 207.0 50.3 Q207.25 52.5 207.75 54.2 L208.15 56.0 Q208.15 57.55 206.35 58.85 204.65 60.1 202.35 60.1 200.05 60.1 199.45 58.15 198.8 56.4 198.8 49.95 198.8 45.75 199.25 38.35 L199.65 28.55 Q199.65 20.45 197.5 18.7 L200.7 16.85 Q203.55 14.95 205.0 14.95 L206.3 15.35 Q207.15 15.85 207.15 18.05 L207.3 20.35 Q208.6 17.9 210.95 16.5 213.3 14.95 215.85 14.95 220.45 14.95 223.2 18.95 M177.85 20.85 Q177.85 21.95 176.4 23.7 L175.2 24.95 Q174.1 23.15 171.8 22.0 169.5 20.85 167.2 20.85 163.75 20.85 163.75 23.25 163.75 23.8 164.1 24.25 164.9 25.35 171.15 28.95 174.7 31.1 176.2 32.8 178.15 35.2 178.15 38.15 178.15 42.4 175.05 44.9 171.95 47.4 166.75 47.4 161.0 47.4 155.75 44.25 L153.45 42.95 153.25 42.9 155.4 40.65 Q156.75 39.15 158.4 39.15 L159.8 39.45 161.9 40.35 Q163.9 41.25 166.05 41.25 167.5 41.25 168.45 40.5 169.3 39.7 169.3 38.55 169.3 37.25 167.85 36.05 L165.2 34.3 160.75 31.6 Q155.2 28.2 155.2 23.7 155.2 20.15 158.5 17.85 161.75 15.45 166.75 15.45 171.6 15.45 174.7 17.05 177.85 18.55 177.85 20.85 M193.9 39.15 Q195.2 40.15 195.2 41.75 195.2 43.9 193.1 45.4 190.95 46.85 187.85 46.85 185.7 46.85 184.5 45.85 183.2 44.9 183.2 43.25 183.2 41.25 185.4 39.7 187.65 38.15 190.55 38.15 192.6 38.15 193.9 39.15 M115.0 20.2 Q116.3 22.6 116.3 24.3 L115.65 26.25 115.95 26.25 117.2 26.2 Q118.45 26.2 118.45 27.35 L117.8 30.1 Q117.45 31.15 117.25 32.75 116.9 35.9 116.9 40.15 L116.9 40.95 116.9 43.9 116.95 46.0 116.95 47.8 116.75 53.15 Q116.25 56.2 114.65 58.15 112.35 60.8 107.55 60.8 102.35 60.8 99.25 57.4 L97.75 55.75 97.3 55.45 99.9 53.95 Q101.25 53.25 102.3 53.25 L104.85 53.8 106.45 54.2 Q109.6 54.2 109.6 48.2 L109.6 46.4 109.6 44.3 109.6 43.75 109.4 43.95 Q106.15 46.4 102.4 46.4 98.3 46.4 95.65 42.75 92.9 39.0 92.9 33.45 92.9 26.1 97.3 20.65 101.55 15.2 107.3 15.2 110.2 15.2 112.05 16.65 113.7 17.8 115.0 20.2 M136.95 15.2 Q143.1 15.2 147.05 19.8 151.0 24.4 151.0 31.45 151.0 38.5 147.35 42.75 143.6 47.0 137.5 47.0 131.35 47.0 127.45 42.75 123.5 38.4 123.5 31.75 123.5 27.9 125.1 24.45 126.75 21.1 129.05 19.95 L128.5 18.35 Q129.65 17.05 132.15 16.1 134.75 15.2 136.95 15.2 M133.3 24.3 Q131.85 26.55 131.85 30.3 131.85 34.95 133.65 37.85 135.4 40.75 138.2 40.75 143.3 40.75 143.3 32.65 143.3 28.2 141.5 25.1 139.7 22.0 137.1 22.0 134.75 22.0 133.3 24.3 M73.7 15.2 Q79.8 15.2 83.8 19.8 87.75 24.4 87.75 31.45 87.75 38.5 84.05 42.75 80.3 47.0 74.2 47.0 68.1 47.0 64.2 42.75 60.25 38.4 60.25 31.75 60.25 27.9 61.8 24.45 63.5 21.1 65.8 19.95 L65.2 18.35 Q66.35 17.05 68.85 16.1 71.45 15.2 73.7 15.2 M70.4 37.85 Q72.1 40.75 74.9 40.75 80.05 40.75 80.05 32.65 80.05 28.2 78.25 25.1 76.45 22.0 73.85 22.0 71.45 22.0 70.05 24.3 68.6 26.55 68.6 30.3 68.6 34.95 70.4 37.85 M53.9 36.1 L54.05 49.8 Q54.05 55.45 52.05 57.85 49.6 60.75 44.1 60.75 39.5 60.75 35.6 57.4 L34.2 56.35 33.9 56.05 34.3 55.9 36.35 54.45 Q37.85 53.4 38.85 53.4 L40.35 53.7 41.3 54.25 43.3 54.7 Q44.85 54.7 45.5 53.4 46.35 51.9 46.35 44.75 46.35 37.2 46.0 30.35 45.6 23.7 44.25 20.65 L44.85 20.5 48.3 18.65 Q50.9 17.2 52.4 17.2 54.5 17.2 54.5 19.85 L54.25 22.9 54.1 27.65 53.9 36.1 M110.7 27.9 L110.1 27.7 Q109.45 27.35 109.45 25.4 109.45 23.9 108.7 22.95 107.95 21.95 106.9 21.95 104.3 21.95 102.4 25.25 100.5 28.5 100.5 32.95 100.5 39.85 104.6 39.85 108.6 39.85 109.6 31.8 110.0 28.5 110.7 27.9 M51.6 4.1 Q55.7 4.1 55.7 7.55 55.7 9.85 53.25 11.65 50.75 13.6 47.65 13.6 45.9 13.6 44.9 12.75 43.8 11.9 43.8 10.5 L43.8 10.3 Q43.8 7.8 47.35 5.45 49.5 4.1 51.6 4.1 M8.4 8.2 Q7.9 7.65 7.9 7.15 7.9 6.65 8.5 5.9 9.7 4.4 13.35 3.25 17.1 2.0 20.5 2.0 28.65 2.0 33.8 7.85 38.95 13.7 38.95 22.9 38.95 33.7 33.75 40.35 28.5 47.0 19.9 47.0 12.2 47.0 7.1 40.75 2.0 34.4 2.0 25.1 2.0 18.7 3.75 14.2 5.4 9.6 8.4 8.2 M13.35 12.75 Q10.55 17.25 10.55 24.55 10.55 31.3 12.85 35.75 15.75 41.35 20.8 41.35 25.3 41.35 28.05 36.85 30.85 32.25 30.85 24.85 30.85 17.35 28.05 12.75 25.3 8.2 20.8 8.2 16.2 8.2 13.35 12.75" fill="none" stroke="#ffffff" stroke-linecap="round" stroke-linejoin="round" stroke-width="1.0"/>
  </g>
  <defs>
    <linearGradient gradientTransform="matrix(0.0, -0.0285, 0.0275, 0.0, 20.45, 24.45)" gradientUnits="userSpaceOnUse" id="gradient0" spreadMethod="pad" x1="-819.2" x2="819.2">
      <stop offset="0.00392156862745098" stop-color="#e1e1e1"/>
      <stop offset="1.0" stop-color="#ffffff"/>
    </linearGradient>
  </defs>
</svg>
