<?xml version="1.0" encoding="UTF-8" standalone="no"?>
<svg xmlns:xlink="http://www.w3.org/1999/xlink" height="92.2px" width="93.5px" xmlns="http://www.w3.org/2000/svg">
  <g transform="matrix(1.0, 0.0, 0.0, 1.0, -1.6, -21.0)">
    <path d="M84.5 78.85 Q88.5 86.1 90.9 96.1 L92.1 103.4 Q72.95 112.55 50.95 109.1 L48.55 99.15 46.15 109.1 Q27.85 112.3 11.2 106.2 7.85 105.0 4.6 103.4 4.6 100.25 5.4 97.2 5.8 94.95 6.95 92.6 8.55 86.7 11.2 79.75 L11.4 79.2 13.35 71.9 19.75 24.0 78.1 24.4 84.5 78.85" fill="#e92d6b" fill-rule="evenodd" stroke="none"/>
    <path d="M84.5 78.85 L78.1 24.4 19.75 24.0 13.35 71.9 11.4 79.2 11.2 79.75 Q8.55 86.7 6.95 92.6 5.8 94.95 5.4 97.2 4.6 100.25 4.6 103.4 7.85 105.0 11.2 106.2 27.85 112.3 46.15 109.1 L48.55 99.15 50.95 109.1 Q72.95 112.55 92.1 103.4 L90.9 96.1 Q88.5 86.1 84.5 78.85 Z" fill="none" stroke="#830645" stroke-linecap="round" stroke-linejoin="round" stroke-width="6.0"/>
    <path d="M74.05 24.4 L78.45 24.4 83.65 70.4 83.65 75.35 76.1 76.9 73.3 77.65 Q78.45 65.8 74.05 24.4 M22.9 77.3 L19.3 76.9 13.35 75.75 20.1 24.0 24.55 24.0 Q17.7 68.05 22.9 77.3" fill="#e72a68" fill-rule="evenodd" stroke="none"/>
    <path d="M74.05 24.4 Q78.45 65.8 73.3 77.65 61.3 79.55 48.9 79.55 L29.7 78.05 26.9 77.65 24.1 77.65 22.9 77.3 Q17.7 68.05 24.55 24.0 L74.05 24.4" fill="#f84982" fill-rule="evenodd" stroke="none"/>
    <path d="M50.1 103.75 L48.9 99.15 48.1 102.6 Q45.7 108.35 33.3 107.2 16.9 106.0 8.95 101.4 7.3 100.25 7.3 98.35 9.3 87.3 13.7 80.0 L15.7 80.35 Q14.9 82.25 13.7 88.0 11.75 96.1 11.75 96.85 11.75 98.35 12.1 99.15 12.55 99.9 13.7 99.9 15.7 99.9 17.3 96.45 L17.7 96.45 Q17.3 101.05 24.1 102.6 28.1 103.75 35.75 103.75 39.3 103.75 41.7 102.6 44.05 101.4 44.5 98.35 44.9 94.95 44.05 94.15 43.7 93.4 40.9 92.25 L41.7 92.25 44.5 91.85 56.9 91.85 Q52.9 92.6 52.9 94.15 52.45 95.3 52.45 98.35 52.9 101.4 56.05 102.6 L65.25 103.4 Q71.25 103.4 74.45 102.2 77.65 100.25 77.65 93.0 79.65 97.6 80.05 99.15 80.45 100.7 83.25 99.9 L85.25 99.15 Q87.25 98.35 86.45 94.55 L82.45 80.0 84.05 79.2 Q90.45 94.15 90.45 96.85 90.45 99.5 89.65 101.05 88.85 102.6 81.65 104.9 74.45 107.2 60.5 107.95 51.7 108.7 50.1 103.75" fill="#f0b6a1" fill-rule="evenodd" stroke="none"/>
    <path d="M15.7 80.35 Q18.15 81.55 20.95 81.9 L26.5 83.05 Q37.3 84.95 48.5 84.95 66.9 84.6 82.45 80.0 L86.45 94.55 Q87.25 98.35 85.25 99.15 L83.25 99.9 Q80.45 100.7 80.05 99.15 79.65 97.6 77.65 93.0 77.65 100.25 74.45 102.2 71.25 103.4 65.25 103.4 L56.05 102.6 Q52.9 101.4 52.45 98.35 52.45 95.3 52.9 94.15 52.9 92.6 56.9 91.85 L44.5 91.85 41.7 92.25 40.9 92.25 Q43.7 93.4 44.05 94.15 44.9 94.95 44.5 98.35 44.05 101.4 41.7 102.6 39.3 103.75 35.75 103.75 28.1 103.75 24.1 102.6 17.3 101.05 17.7 96.45 L17.3 96.45 Q15.7 99.9 13.7 99.9 12.55 99.9 12.1 99.15 11.75 98.35 11.75 96.85 11.75 96.1 13.7 88.0 14.9 82.25 15.7 80.35 M25.7 95.65 Q26.1 99.15 28.1 99.9 L32.95 100.7 35.75 101.05 Q36.9 101.05 37.7 100.25 38.9 99.15 38.9 97.6 38.9 95.65 37.3 94.15 35.75 93.4 34.9 92.25 32.5 89.9 32.1 89.9 30.9 89.2 28.5 89.2 26.9 89.2 26.5 90.35 25.7 91.1 25.7 92.25 L25.7 94.55 25.7 95.3 25.7 95.65 M58.85 94.55 Q58.5 94.95 58.5 95.65 57.25 97.6 57.25 98.75 57.25 100.25 58.85 100.25 L61.65 100.25 Q64.9 100.25 66.9 97.6 68.9 94.55 68.9 91.1 68.9 89.9 68.45 89.9 68.05 89.55 66.9 89.55 L64.45 89.9 Q61.65 90.7 60.5 91.85 L59.3 92.6 Q59.7 92.6 59.3 93.0 L59.3 93.75 Q58.85 94.15 58.85 94.55" fill="#facebe" fill-rule="evenodd" stroke="none"/>
    <path d="M11.75 79.2 L13.7 70.75 Q22.9 74.6 31.3 75.35 45.7 76.15 54.9 75.75 70.85 75.0 83.65 70.0 L84.85 78.85 Q84.45 79.2 84.05 79.2 L82.45 80.0 Q66.9 84.6 48.5 84.95 37.3 84.95 26.5 83.05 L20.95 81.9 Q18.15 81.55 15.7 80.35 L13.7 80.0 11.75 79.2" fill="#9a0742" fill-rule="evenodd" stroke="none"/>
    <path d="M84.85 78.85 Q88.85 86.1 91.25 96.1 91.65 99.5 92.45 103.4 73.3 112.55 51.3 109.1 L50.1 103.75 Q51.7 108.7 60.5 107.95 74.45 107.2 81.65 104.9 88.85 102.6 89.65 101.05 90.45 99.5 90.45 96.85 90.45 94.15 84.05 79.2 84.45 79.2 84.85 78.85 M48.1 102.6 L46.5 109.1 Q24.55 112.95 4.95 103.4 4.95 100.25 5.75 97.2 6.15 94.95 7.3 92.6 8.95 86.5 11.75 79.2 L13.7 80.0 Q9.3 87.3 7.3 98.35 7.3 100.25 8.95 101.4 16.9 106.0 33.3 107.2 45.7 108.35 48.1 102.6" fill="#db947b" fill-rule="evenodd" stroke="none"/>
    <path d="M58.85 94.55 Q58.85 94.15 59.3 93.75 L59.3 93.0 Q59.7 92.6 59.3 92.6 L60.5 91.85 Q61.65 90.7 64.45 89.9 L66.9 89.55 Q68.05 89.55 68.45 89.9 68.9 89.9 68.9 91.1 68.9 94.55 66.9 97.6 64.9 100.25 61.65 100.25 L58.85 100.25 Q57.25 100.25 57.25 98.75 57.25 97.6 58.5 95.65 58.5 94.95 58.85 94.55 M25.7 95.65 L25.7 95.3 25.7 94.55 25.7 92.25 Q25.7 91.1 26.5 90.35 26.9 89.2 28.5 89.2 30.9 89.2 32.1 89.9 32.5 89.9 34.9 92.25 35.75 93.4 37.3 94.15 38.9 95.65 38.9 97.6 38.9 99.15 37.7 100.25 36.9 101.05 35.75 101.05 L32.95 100.7 28.1 99.9 Q26.1 99.15 25.7 95.65" fill="#fae2da" fill-rule="evenodd" stroke="none"/>
    <path d="M68.5 74.55 L70.9 82.35 Q73.25 84.45 75.05 81.7 L72.55 74.1 Q70.0 71.75 68.5 74.55 M66.85 73.85 Q68.5 69.8 73.15 71.7 L76.55 82.3 Q74.15 86.9 70.1 84.45 L66.85 73.85 M28.95 73.55 L27.0 84.45 Q22.45 86.65 20.35 82.75 L22.55 71.85 Q26.75 69.3 28.95 73.55 M27.35 75.05 Q26.1 71.95 23.45 73.7 L21.85 81.7 Q23.05 84.6 25.95 83.0 L27.35 75.05" fill="#d9673f" fill-rule="evenodd" stroke="none"/>
    <path d="M68.5 74.55 Q70.0 71.75 72.55 74.1 L75.05 81.7 Q73.25 84.45 70.9 82.35 L68.5 74.55 M27.35 75.05 L25.95 83.0 Q23.05 84.6 21.85 81.7 L23.45 73.7 Q26.1 71.95 27.35 75.05" fill="#f59370" fill-rule="evenodd" stroke="none"/>
  </g>
</svg>
