<?xml version="1.0" encoding="UTF-8" standalone="no"?>
<svg xmlns:xlink="http://www.w3.org/1999/xlink" height="89.55px" width="107.05px" xmlns="http://www.w3.org/2000/svg">
  <g transform="matrix(1.0, 0.0, 0.0, 1.0, 6.25, -26.1)">
    <path d="M88.25 66.3 Q89.05 67.05 88.6 68.6 L88.6 69.35 Q87.45 72.05 85.05 71.65 L85.05 72.45 85.05 73.15 88.6 78.55 89.05 78.2 Q89.85 77.4 91.4 77.4 93.85 77.4 95.0 78.55 95.85 79.35 95.85 82.0 95.45 85.45 92.2 85.1 L92.65 85.85 92.2 86.65 Q92.2 88.55 91.4 88.9 L89.4 89.25 89.85 90.05 90.25 89.7 Q91.4 88.9 93.05 88.9 95.85 88.9 96.65 90.05 97.8 91.2 97.8 94.65 97.8 98.5 94.2 97.7 95.0 98.5 95.0 98.85 L95.0 99.65 Q95.0 101.95 94.2 102.7 L89.4 103.45 Q88.25 103.45 87.45 105.35 87.05 107.3 84.65 107.3 83.85 107.3 82.25 106.5 L79.85 105.35 79.85 105.8 Q79.45 105.8 79.45 106.15 79.45 107.7 77.05 109.2 75.05 110.75 73.05 110.75 69.85 110.75 67.45 109.6 67.1 109.6 64.3 108.05 63.85 109.6 61.05 111.1 59.05 112.65 56.25 112.65 54.3 112.65 52.65 111.55 L49.5 109.2 Q48.7 110.0 46.7 110.75 44.7 111.9 43.1 111.9 41.1 111.9 39.5 111.1 37.85 110.4 35.9 108.5 35.5 109.6 33.9 110.4 32.25 111.55 30.3 111.55 28.3 111.55 25.9 109.6 24.3 107.7 23.95 107.7 L23.5 107.7 23.95 106.9 Q22.3 108.5 20.3 108.5 17.9 108.5 15.9 107.3 13.5 105.8 13.1 103.1 9.95 104.6 7.9 104.6 5.5 104.6 3.55 102.3 2.35 100.4 2.35 98.1 2.35 97.7 2.75 97.35 L3.1 96.55 3.1 96.2 Q1.9 96.95 0.75 96.95 -1.25 96.95 -2.5 95.0 -3.25 93.9 -3.25 91.95 -3.25 89.7 -2.05 88.15 -0.45 86.65 2.35 86.65 3.9 86.65 4.7 87.35 5.1 87.75 5.1 88.55 L7.15 86.2 6.7 85.1 7.15 84.3 7.5 83.95 7.5 83.55 5.1 84.3 Q3.1 84.3 1.9 82.75 0.75 81.6 0.75 80.1 0.3 77.8 1.1 76.65 2.75 75.1 5.1 75.1 6.7 75.1 7.5 76.3 7.9 76.3 8.3 76.65 L11.5 72.05 10.3 72.05 Q7.9 72.05 6.7 70.1 5.9 69.75 5.9 69.0 5.1 68.2 5.1 67.45 5.1 66.3 5.9 65.5 L5.9 65.15 Q5.9 64.8 6.35 64.8 7.15 64.0 8.7 64.0 L11.1 64.0 11.5 64.35 11.5 64.0 Q11.95 64.0 11.95 63.6 L15.1 57.05 16.3 54.0 Q15.9 53.65 16.3 53.65 L16.7 53.65 19.1 30.65 25.1 31.05 Q25.1 29.9 25.5 29.5 L30.3 29.9 30.3 31.05 63.05 31.05 63.05 29.1 67.85 29.5 Q67.85 30.25 68.25 31.05 L73.45 31.05 76.25 54.45 76.65 54.45 78.25 57.85 83.0 66.3 Q83.0 65.95 83.45 66.3 84.25 65.15 85.45 65.5 87.45 65.5 88.25 66.3 M11.1 70.55 L11.5 70.55 11.5 70.1 Q11.1 70.1 11.1 70.55" fill="#e7a08e" fill-rule="evenodd" stroke="none"/>
    <path d="M88.25 66.3 Q87.45 65.5 85.45 65.5 84.25 65.15 83.45 66.3 83.0 65.95 83.0 66.3 L78.25 57.85 76.65 54.45 76.25 54.45 73.45 31.05 68.25 31.05 Q67.85 30.25 67.85 29.5 L63.05 29.1 63.05 31.05 30.3 31.05 30.3 29.9 25.5 29.5 Q25.1 29.9 25.1 31.05 L19.1 30.65 16.7 53.65 16.3 53.65 Q15.9 53.65 16.3 54.0 L15.1 57.05 11.95 63.6 Q11.95 64.0 11.5 64.0 L11.5 64.35 11.1 64.0 8.7 64.0 Q7.15 64.0 6.35 64.8 5.9 64.8 5.9 65.15 L5.9 65.5 Q5.1 66.3 5.1 67.45 5.1 68.2 5.9 69.0 5.9 69.75 6.7 70.1 7.9 72.05 10.3 72.05 L11.5 72.05 8.3 76.65 Q7.9 76.3 7.5 76.3 6.7 75.1 5.1 75.1 2.75 75.1 1.1 76.65 0.3 77.8 0.75 80.1 0.75 81.6 1.9 82.75 3.1 84.3 5.1 84.3 L7.5 83.55 7.5 83.95 7.15 84.3 6.7 85.1 7.15 86.2 5.1 88.55 Q5.1 87.75 4.7 87.35 3.9 86.65 2.35 86.65 -0.45 86.65 -2.05 88.15 -3.25 89.7 -3.25 91.95 -3.25 93.9 -2.5 95.0 -1.25 96.95 0.75 96.95 1.9 96.95 3.1 96.2 L3.1 96.55 2.75 97.35 Q2.35 97.7 2.35 98.1 2.35 100.4 3.55 102.3 5.5 104.6 7.9 104.6 9.95 104.6 13.1 103.1 13.5 105.8 15.9 107.3 17.9 108.5 20.3 108.5 22.3 108.5 23.95 106.9 L23.5 107.7 23.95 107.7 Q24.3 107.7 25.9 109.6 28.3 111.55 30.3 111.55 32.25 111.55 33.9 110.4 35.5 109.6 35.9 108.5 37.85 110.4 39.5 111.1 41.1 111.9 43.1 111.9 44.7 111.9 46.7 110.75 48.7 110.0 49.5 109.2 L52.65 111.55 Q54.3 112.65 56.25 112.65 59.05 112.65 61.05 111.1 63.85 109.6 64.3 108.05 67.1 109.6 67.45 109.6 69.85 110.75 73.05 110.75 75.05 110.75 77.05 109.2 79.45 107.7 79.45 106.15 79.45 105.8 79.85 105.8 L79.85 105.35 82.25 106.5 Q83.85 107.3 84.65 107.3 87.05 107.3 87.45 105.35 88.25 103.45 89.4 103.45 L94.2 102.7 Q95.0 101.95 95.0 99.65 L95.0 98.85 Q95.0 98.5 94.2 97.7 97.8 98.5 97.8 94.65 97.8 91.2 96.65 90.05 95.85 88.9 93.05 88.9 91.4 88.9 90.25 89.7 L89.85 90.05 89.4 89.25 91.4 88.9 Q92.2 88.55 92.2 86.65 L92.65 85.85 92.2 85.1 Q95.45 85.45 95.85 82.0 95.85 79.35 95.0 78.55 93.85 77.4 91.4 77.4 89.85 77.4 89.05 78.2 L88.6 78.55 85.05 73.15 85.05 72.45 85.05 71.65 Q87.45 72.05 88.6 69.35 L88.6 68.6 Q89.05 67.05 88.25 66.3 Z" fill="none" stroke="#830645" stroke-linecap="round" stroke-linejoin="round" stroke-width="6.0"/>
    <path d="M74.25 40.65 Q71.9 41.45 69.85 42.6 65.85 44.5 58.25 45.25 L43.9 46.05 Q35.5 46.05 26.75 42.95 21.5 40.65 18.35 39.5 L19.1 30.7 73.45 31.1 74.25 40.65" fill="#a2a2a2" fill-rule="evenodd" stroke="none"/>
    <path d="M18.35 39.5 Q21.5 40.65 26.75 42.95 35.5 46.05 43.9 46.05 L58.25 45.25 Q65.85 44.5 69.85 42.6 71.9 41.45 74.25 40.65 L78.25 68.25 67.45 70.6 Q53.45 72.85 48.25 72.85 L37.85 72.5 Q29.45 72.5 26.75 70.95 L16.7 68.65 14.75 68.25 18.35 39.5" fill="#c8c8c8" fill-rule="evenodd" stroke="none"/>
    <path d="M14.75 68.25 L16.7 68.65 26.75 70.95 Q29.45 72.5 37.85 72.5 L48.25 72.85 Q53.45 72.85 67.45 70.6 L78.25 68.25 81.45 87.8 Q47.9 95.05 11.95 87.8 L14.75 68.25" fill="#dae3e9" fill-rule="evenodd" stroke="none"/>
    <path d="M55.1 58.3 Q59.05 54.05 61.05 48.75 62.25 45.65 63.05 39.5 63.5 33.0 63.05 29.15 L67.85 29.55 Q68.65 31.85 69.85 39.5 71.45 46.75 72.25 48.3 71.9 48.75 70.65 49.1 69.45 49.9 68.25 49.9 L65.45 51.0 Q63.85 51.8 58.7 56.0 56.65 57.55 55.1 58.3 M20.3 47.55 Q21.15 45.65 22.7 39.1 L25.5 29.55 30.3 29.95 Q29.9 34.15 30.3 40.65 30.3 47.55 31.5 50.25 32.25 52.55 33.5 54.5 L34.7 56.0 Q32.7 54.5 31.1 53.7 L28.7 51.8 20.3 47.55" fill="#de3753" fill-rule="evenodd" stroke="none"/>
    <path d="M72.25 48.3 Q74.25 53.7 76.65 56.4 L77.85 63.3 Q61.05 69.05 45.9 64.05 32.25 68.65 15.1 62.5 L15.55 56.75 Q17.9 54.05 20.3 47.55 L28.7 51.8 31.1 53.7 Q32.7 54.5 34.7 56.0 35.5 56.75 35.9 57.9 39.5 62.15 46.25 63.3 L46.25 62.85 Q50.7 62.15 54.65 58.3 L55.1 58.3 Q56.65 57.55 58.7 56.0 63.85 51.8 65.45 51.0 L68.25 49.9 Q69.45 49.9 70.65 49.1 71.9 48.75 72.25 48.3" fill="#f7516d" fill-rule="evenodd" stroke="none"/>
    <path d="M77.85 63.3 L78.25 66.0 Q61.05 71.7 45.9 66.35 32.25 71.7 15.1 65.2 L15.1 62.5 Q32.25 68.65 45.9 64.05 61.05 69.05 77.85 63.3" fill="#ffffff" fill-rule="evenodd" stroke="none"/>
    <path d="M87.05 97.75 L87.05 97.4 Q90.25 95.5 92.65 93.15 L89.85 90.1 90.25 89.75 Q91.4 88.95 92.65 88.95 95.85 88.95 96.65 90.1 97.8 91.25 97.8 94.7 97.8 98.55 94.2 97.75 95.0 98.55 95.0 98.9 L95.0 99.7 Q95.0 102.0 94.2 102.75 L89.4 103.5 Q88.25 103.5 87.45 105.4 87.05 107.35 84.65 107.35 83.85 107.35 82.25 106.55 L79.85 105.4 79.85 105.85 Q79.45 105.85 79.45 106.2 79.45 107.75 77.05 109.25 75.05 110.8 73.05 110.8 69.85 110.8 67.45 109.65 67.1 109.65 64.3 108.1 63.85 109.65 61.05 111.15 59.05 112.7 56.25 112.7 54.3 112.7 52.65 111.6 L49.5 109.25 Q48.7 110.05 46.7 110.8 44.7 111.95 43.1 111.95 41.1 111.95 39.5 111.15 37.85 110.45 35.9 108.55 35.5 109.65 33.9 110.45 31.9 111.6 30.3 111.6 28.3 111.6 25.9 109.65 24.3 107.75 23.95 107.75 L23.5 107.75 23.95 106.95 Q22.3 108.55 20.3 108.55 17.9 108.55 15.9 107.35 13.5 105.85 13.1 103.15 9.95 104.65 7.9 104.65 5.5 104.65 3.55 102.35 2.35 100.45 2.35 98.15 2.35 97.75 2.75 97.4 L3.1 96.6 3.1 96.25 Q1.9 97.0 0.75 97.0 -1.25 97.0 -2.5 95.05 -3.25 93.95 -3.25 92.0 -3.25 89.75 -2.05 88.2 -0.45 86.7 2.35 86.7 3.9 86.7 4.7 87.4 5.1 87.8 5.1 88.6 L2.75 91.65 5.9 94.7 6.35 95.05 Q13.5 100.45 23.5 103.5 35.5 107.35 49.85 106.95 63.5 106.95 74.7 103.15 81.85 100.8 87.05 97.75 M81.85 78.95 L77.05 80.5 74.25 80.9 70.65 81.65 62.25 82.8 52.3 83.6 45.1 84.0 31.1 82.8 25.15 82.55 24.3 82.45 23.1 82.05 20.7 81.3 14.75 80.15 11.5 79.4 13.9 76.35 13.9 75.9 Q47.05 83.6 79.45 75.55 L81.85 78.95" fill="#fc889b" fill-rule="evenodd" stroke="none"/>
    <path d="M74.25 80.9 Q78.25 82.8 81.45 87.4 83.85 91.25 87.05 97.75 81.85 100.8 74.7 103.15 63.5 106.95 49.85 106.95 35.5 107.35 23.5 103.5 13.5 100.45 6.35 95.05 L7.15 93.55 Q7.9 92.45 7.9 91.65 7.9 91.25 11.1 87.8 14.3 84.35 15.9 83.2 17.9 82.05 20.7 81.3 L23.1 82.05 22.3 90.1 22.3 92.8 22.3 95.85 Q23.5 90.9 24.7 88.95 25.5 86.25 27.1 84.35 27.5 86.25 27.5 89.3 28.7 88.95 29.1 87.05 29.45 87.4 29.45 89.3 31.1 85.9 31.1 84.0 L31.1 83.6 25.15 82.55 31.1 82.8 45.1 84.0 Q45.1 84.35 45.45 85.15 L45.1 85.15 46.25 98.9 Q47.05 96.25 47.9 91.65 48.25 87.4 49.05 86.7 L49.85 88.95 50.3 92.0 51.85 86.7 Q51.85 85.5 52.3 85.15 L51.85 85.15 51.85 84.7 52.3 83.6 62.25 82.8 62.7 83.6 62.25 83.6 66.3 93.15 66.3 88.95 66.3 85.5 Q67.1 85.9 67.45 87.05 L68.65 88.95 68.65 85.5 Q70.25 86.25 71.9 89.75 73.8 92.7 74.25 94.95 73.45 90.4 72.25 87.05 71.45 83.6 70.65 81.65 L74.25 80.9 M82.65 97.4 L82.65 96.6 Q82.25 93.15 78.65 92.8 L77.85 93.95 77.05 95.05 75.45 97.4 Q72.65 97.4 70.25 96.6 L67.45 98.55 Q65.05 97.4 63.05 95.05 61.5 93.15 59.05 93.15 55.1 93.15 53.85 97.0 52.65 100.1 48.7 101.6 44.7 102.35 41.1 97.0 L36.7 98.55 29.1 95.05 25.1 98.9 Q23.1 98.9 21.5 97.4 20.3 95.85 20.3 93.95 20.7 90.1 19.1 88.2 L11.5 93.55 Q11.1 95.5 12.3 96.6 14.3 97.75 16.7 98.9 22.3 100.8 28.3 101.6 35.5 105.85 42.7 102.75 L44.7 102.0 Q45.1 102.35 49.05 104.3 52.65 106.2 59.05 103.5 64.65 103.9 69.85 101.6 77.45 101.6 82.65 97.4" fill="#f34260" fill-rule="evenodd" stroke="none"/>
    <path d="M82.65 97.4 Q77.45 101.6 69.85 101.6 64.65 103.9 59.05 103.5 52.65 106.2 49.05 104.3 45.1 102.35 44.7 102.0 L42.7 102.75 Q35.5 105.85 28.3 101.6 22.3 100.8 16.7 98.9 14.3 97.75 12.3 96.6 11.1 95.5 11.5 93.55 L19.1 88.2 Q20.7 90.1 20.3 93.95 20.3 95.85 21.5 97.4 23.1 98.9 25.1 98.9 L29.1 95.05 36.7 98.55 41.1 97.0 Q44.7 102.35 48.7 101.6 52.65 100.1 53.85 97.0 55.1 93.15 59.05 93.15 61.5 93.15 63.05 95.05 65.05 97.4 67.45 98.55 L70.25 96.6 Q72.65 97.4 75.45 97.4 L77.05 95.05 77.85 93.95 78.65 92.8 Q82.25 93.15 82.65 96.6 L82.65 97.4" fill="#fa607a" fill-rule="evenodd" stroke="none"/>
    <path d="M87.05 97.75 Q83.85 91.25 81.45 87.4 78.25 82.8 74.25 80.9 L77.05 80.5 81.85 78.95 89.85 90.1 92.65 93.15 Q90.25 95.5 87.05 97.4 L87.05 97.75 M20.7 81.3 Q17.9 82.05 15.9 83.2 14.3 84.35 11.1 87.8 7.9 91.25 7.9 91.65 7.9 92.45 7.15 93.55 L6.35 95.05 5.9 94.7 2.75 91.65 5.1 88.6 11.5 79.4 14.75 80.15 20.7 81.3" fill="#d02643" fill-rule="evenodd" stroke="none"/>
    <path d="M70.65 81.65 Q71.45 83.6 72.25 87.05 73.45 90.4 74.25 94.95 73.8 92.7 71.9 89.75 70.25 86.25 68.65 85.5 L68.65 88.95 67.45 87.05 Q67.1 85.9 66.3 85.5 L66.3 88.95 66.3 93.15 62.25 83.6 62.7 83.6 70.65 81.65 M51.85 85.15 L52.3 85.15 Q51.85 85.5 51.85 86.7 L50.3 92.0 49.85 88.95 49.05 86.7 Q48.25 87.4 47.9 91.65 47.05 96.25 46.25 98.9 L45.1 85.15 45.45 85.15 49.05 85.15 51.85 85.15 M25.15 82.55 L31.1 83.6 31.1 84.0 Q31.1 85.9 29.45 89.3 29.45 87.4 29.1 87.05 28.7 88.95 27.5 89.3 27.5 86.25 27.1 84.35 25.5 86.25 24.7 88.95 23.5 90.9 22.3 95.85 L22.3 92.8 22.3 90.1 23.1 82.05 24.3 82.45 25.15 82.55" fill="#e03b57" fill-rule="evenodd" stroke="none"/>
    <path d="M88.6 78.6 L89.05 78.25 Q89.85 77.45 91.4 77.45 93.85 77.45 95.0 78.6 95.85 79.4 95.85 82.05 95.45 85.5 91.85 85.15 92.65 85.5 92.2 85.9 L92.2 86.7 Q91.85 88.6 91.4 88.95 L87.05 89.75 Q85.8 89.75 85.05 91.25 84.65 92.8 82.25 92.8 L80.25 92.45 78.25 91.25 Q78.25 91.65 77.85 91.65 L77.85 92.0 Q77.45 93.15 75.45 94.35 73.85 95.5 71.9 95.5 L66.65 95.05 63.85 93.55 Q63.5 95.05 61.05 95.85 59.05 97.4 56.65 97.4 54.65 97.4 53.45 96.25 L50.3 94.35 Q49.85 95.05 48.25 95.85 L45.1 96.6 Q43.1 96.6 41.9 95.85 L38.3 93.95 Q37.5 94.7 36.7 95.05 35.05 96.25 33.1 96.25 31.5 96.25 29.45 95.05 27.9 93.15 27.5 93.15 L27.1 93.15 Q25.9 93.95 24.7 93.95 21.9 93.95 20.3 93.15 17.9 91.65 17.1 89.3 14.75 90.9 12.75 90.9 10.7 90.9 8.7 88.95 7.15 87.05 6.7 85.15 L7.15 84.35 7.5 84.0 7.5 83.6 5.1 84.35 Q3.1 84.35 1.9 82.8 0.75 81.65 0.75 80.15 0.3 77.85 1.1 76.7 2.75 75.15 5.1 75.15 6.7 75.15 7.5 76.35 7.9 76.35 8.3 76.7 L6.35 80.15 Q7.9 81.3 9.95 82.45 L9.95 82.8 Q17.1 87.05 27.1 89.75 37.85 92.8 50.7 92.8 63.05 92.45 73.85 89.3 80.25 87.4 85.05 85.15 L85.05 84.7 Q89.05 82.05 88.6 78.6 M13.9 67.9 L14.75 65.55 Q14.75 65.2 15.1 65.2 48.25 72.5 79.45 64.85 L81.45 68.25 Q77.85 69.4 74.25 70.15 L70.65 70.6 62.7 72.1 53.45 72.5 52.65 72.5 46.25 72.5 32.7 72.1 24.7 70.95 22.7 70.6 22.3 70.6 Q17.5 69.8 13.9 67.9" fill="#ffa1b0" fill-rule="evenodd" stroke="none"/>
    <path d="M85.05 84.7 L85.05 85.15 Q80.25 87.4 73.85 89.3 63.05 92.45 50.7 92.8 37.85 92.8 27.1 89.75 17.1 87.05 9.95 82.8 L10.3 81.3 Q11.5 80.5 11.5 80.15 L11.5 79.75 Q11.5 78.95 13.9 76.7 16.3 72.85 17.9 72.5 19.9 70.95 22.3 70.6 L22.7 70.6 24.7 70.95 32.7 72.1 46.25 72.5 46.25 73.65 45.45 73.65 Q46.25 78.95 47.05 91.25 L48.7 82.8 Q49.05 76.7 49.85 75.9 50.3 76.7 50.7 79.4 50.7 81.3 51.05 82.8 51.85 80.9 52.65 75.15 52.65 74.0 53.45 72.5 L62.7 72.1 63.05 72.5 62.25 72.5 Q65.45 82.45 65.85 85.15 L66.3 85.15 66.3 77.45 66.3 76.7 66.3 75.55 Q67.1 75.9 67.45 77.45 67.85 77.45 68.65 79.4 L68.65 75.55 Q69.85 76.35 71.9 80.9 73.05 83.6 73.85 86.7 L71.9 75.55 Q71.45 72.5 70.65 70.6 L74.25 70.15 Q78.25 71.7 80.65 76.35 82.65 78.95 85.05 84.7 M28.7 72.5 L27.1 72.1 Q26.75 72.1 24.7 71.3 L24.7 77.45 24.7 84.0 24.7 87.8 Q25.5 82.05 26.3 79.4 27.1 76.35 28.7 74.4 L29.1 76.7 29.1 80.15 Q30.3 79.4 30.7 77.05 31.1 77.85 31.1 80.15 L33.5 72.5 30.7 72.5 28.7 72.5 M39.5 78.25 Q37.5 78.25 35.9 80.15 34.7 81.3 34.3 83.2 L33.9 83.2 33.5 82.05 Q33.5 80.9 33.1 80.9 32.25 84.7 31.5 85.5 L30.3 85.15 29.9 85.9 Q29.9 86.7 30.7 87.05 L31.5 87.05 31.5 87.4 Q33.1 88.95 35.05 89.3 L37.5 90.1 41.45 90.5 43.9 90.1 Q45.45 89.3 45.45 88.6 L45.1 86.7 43.9 83.6 43.9 80.9 Q43.9 79.4 43.45 78.6 L41.1 78.6 39.5 78.25 M17.5 79.4 L17.1 80.15 16.7 82.8 Q16.7 84.0 18.7 85.15 20.7 86.25 21.9 86.25 L22.3 86.25 21.15 81.3 21.15 78.6 Q21.15 76.7 19.9 76.7 18.7 76.7 17.5 79.4 M76.25 76.7 Q74.7 76.7 74.7 77.85 74.7 78.95 75.45 80.9 L76.25 84.7 Q76.65 85.15 77.45 85.15 L79.05 84.7 Q80.65 84.0 80.65 83.2 80.65 82.45 78.65 79.4 76.65 76.7 76.25 76.7 M60.25 82.8 L59.45 82.05 Q57.1 82.05 56.25 84.0 55.45 85.15 55.1 88.95 L57.1 88.95 59.45 88.95 61.85 88.2 64.65 87.8 Q66.3 87.4 66.3 86.7 63.05 81.65 61.85 81.65 61.05 82.8 60.25 82.8" fill="#f7516d" fill-rule="evenodd" stroke="none"/>
    <path d="M88.6 78.6 Q89.05 82.05 85.05 84.7 82.65 78.95 80.65 76.35 78.25 71.7 74.25 70.15 77.85 69.4 81.45 68.25 L88.6 78.6 M9.95 82.8 L9.95 82.45 Q7.9 81.3 6.35 80.15 L8.3 76.7 13.5 68.65 13.9 67.9 Q17.5 69.8 22.3 70.6 19.9 70.95 17.9 72.5 16.3 72.85 13.9 76.7 11.5 78.95 11.5 79.75 L11.5 80.15 Q11.5 80.5 10.3 81.3 L9.95 82.8 M28.7 72.5 L30.7 72.5 33.5 72.5 31.1 80.15 Q31.1 77.85 30.7 77.05 30.3 79.4 29.1 80.15 L29.1 76.7 28.7 74.4 Q27.1 76.35 26.3 79.4 25.5 82.05 24.7 87.8 L24.7 84.0 24.7 77.45 24.7 71.3 Q26.75 72.1 27.1 72.1 L28.7 72.5 M52.65 72.5 L53.45 72.5 Q52.65 74.0 52.65 75.15 51.85 80.9 51.05 82.8 50.7 81.3 50.7 79.4 50.3 76.7 49.85 75.9 49.05 76.7 48.7 82.8 L47.05 91.25 Q46.25 78.95 45.45 73.65 L46.25 73.65 49.05 73.2 Q49.85 72.85 50.3 72.85 51.5 72.5 52.65 72.85 L52.65 72.5 M70.65 70.6 Q71.45 72.5 71.9 75.55 L73.85 86.7 Q73.05 83.6 71.9 80.9 69.85 76.35 68.65 75.55 L68.65 79.4 Q67.85 77.45 67.45 77.45 67.1 75.9 66.3 75.55 L66.3 76.7 66.3 77.45 66.3 85.15 65.85 85.15 Q65.45 82.45 62.25 72.5 L63.05 72.5 Q64.3 71.7 64.3 72.1 67.1 72.5 70.65 70.6" fill="#de3753" fill-rule="evenodd" stroke="none"/>
    <path d="M17.5 79.4 Q18.7 76.7 19.9 76.7 21.15 76.7 21.15 78.6 L21.15 81.3 22.3 86.25 21.9 86.25 Q20.7 86.25 18.7 85.15 16.7 84.0 16.7 82.8 L17.1 80.15 17.5 79.4 M39.5 78.25 L41.1 78.6 43.45 78.6 Q43.9 79.4 43.9 80.9 L43.9 83.6 45.1 86.7 45.45 88.6 Q45.45 89.3 43.9 90.1 L41.45 90.5 37.5 90.1 35.05 89.3 Q33.1 88.95 31.5 87.4 L31.5 87.05 30.7 87.05 Q29.9 86.7 29.9 85.9 L30.3 85.15 31.5 85.5 Q32.25 84.7 33.1 80.9 33.5 80.9 33.5 82.05 L33.9 83.2 34.3 83.2 Q34.7 81.3 35.9 80.15 37.5 78.25 39.5 78.25 M60.25 82.8 Q61.05 82.8 61.85 81.65 63.05 81.65 66.3 86.7 66.3 87.4 64.65 87.8 L61.85 88.2 59.45 88.95 57.1 88.95 55.1 88.95 Q55.45 85.15 56.25 84.0 57.1 82.05 59.45 82.05 L60.25 82.8 M76.25 76.7 Q76.65 76.7 78.65 79.4 80.65 82.45 80.65 83.2 80.65 84.0 79.05 84.7 L77.45 85.15 Q76.65 85.15 76.25 84.7 L75.45 80.9 Q74.7 78.95 74.7 77.85 74.7 76.7 76.25 76.7" fill="#ff7990" fill-rule="evenodd" stroke="none"/>
    <path d="M82.65 66.35 L84.65 68.65 Q82.25 70.6 79.45 71.7 L79.05 71.7 Q77.85 67.1 76.25 64.4 74.7 60.25 71.9 59.05 72.65 58.7 74.25 58.3 L78.25 57.9 82.65 66.35 M13.9 69.05 Q11.5 68.25 10.3 67.1 L11.5 64.4 11.5 64.05 Q11.95 64.05 11.95 63.65 L15.1 57.1 Q16.3 57.1 17.9 57.9 L23.95 58.7 Q21.9 59.05 20.3 60.25 18.7 60.95 16.3 64.05 14.3 66.35 14.75 67.1 L13.9 68.25 13.9 69.05 M33.1 61.35 L35.05 61.75 Q34.3 63.3 33.1 66.35 33.1 64.4 32.7 64.4 31.9 66.0 31.1 66.35 31.1 63.3 30.7 62.15 28.7 63.3 27.5 66.0 26.75 67.5 25.9 71.7 L25.5 68.65 Q24.7 62.5 25.1 59.45 L26.3 59.8 30.3 60.6 33.1 61.35 M46.25 60.95 L53.1 60.95 56.25 60.95 55.45 62.15 Q54.3 66.0 53.45 67.1 53.1 66.35 52.65 64.4 L51.5 62.5 Q50.7 63.3 50.3 66.75 49.05 70.6 47.5 72.5 L46.7 67.9 46.25 60.95 M61.05 60.6 L68.25 59.8 69.85 59.45 Q71.45 62.15 73.05 68.25 72.25 66.35 71.05 64.85 L69.85 63.3 Q68.65 62.15 67.45 62.15 L67.45 64.4 Q66.65 63.3 66.65 62.85 66.3 62.85 66.3 62.5 L65.45 62.15 64.65 62.15 Q64.65 64.05 65.05 67.1 L64.3 67.1 Q63.5 66.0 61.05 60.6" fill="#de3753" fill-rule="evenodd" stroke="none"/>
    <path d="M79.05 71.7 L79.45 71.7 Q82.25 70.6 84.65 68.65 L82.65 66.35 83.0 66.35 Q84.25 65.2 85.45 65.55 87.45 65.55 88.25 66.35 89.05 67.1 88.6 68.65 L88.6 69.4 Q87.45 72.1 85.05 71.7 L85.05 72.5 84.65 74.4 Q83.85 75.55 82.65 75.55 L80.65 75.55 Q80.25 75.9 79.85 76.7 79.45 76.7 79.05 77.05 78.65 77.05 78.65 77.45 77.85 78.6 76.25 78.6 75.05 78.6 73.85 77.85 72.65 77.05 72.25 77.05 72.25 78.25 70.65 78.6 68.65 79.75 67.1 79.75 L63.5 79.4 Q63.05 78.95 61.05 78.6 L59.05 80.15 Q56.65 80.9 54.65 80.9 L52.3 80.5 49.85 78.6 47.9 80.15 Q46.25 80.9 45.1 80.9 43.9 80.9 42.3 80.15 L39.9 78.6 39.1 79.4 Q37.5 80.5 34.7 80.5 33.1 80.5 31.5 79.4 L30.3 77.85 30.3 77.45 Q28.7 78.6 27.9 78.6 25.5 78.6 23.95 77.45 21.9 76.7 21.15 74.8 19.1 76.35 17.5 76.35 15.1 75.9 13.5 74.8 11.5 73.2 11.5 72.1 L10.3 72.1 Q7.5 72.1 6.7 70.15 5.9 69.8 5.9 69.05 5.1 68.25 5.1 67.5 5.1 66.35 5.9 65.55 L5.9 65.2 Q5.9 64.85 6.35 64.85 7.15 64.05 8.7 64.05 L11.1 64.05 11.5 64.4 10.3 67.1 Q11.5 68.25 13.9 69.05 L13.9 69.4 Q20.7 73.2 29.45 75.15 39.5 77.45 50.3 77.45 60.25 77.45 69.1 75.15 L79.05 72.1 79.05 71.7 M11.5 70.6 L11.5 70.15 Q11.1 70.15 11.1 70.6 L11.5 70.6" fill="#ffb4c0" fill-rule="evenodd" stroke="none"/>
    <path d="M71.9 59.05 Q74.7 60.25 76.25 64.4 77.85 67.1 79.05 71.7 L79.05 72.1 69.1 75.15 Q60.25 77.45 50.3 77.45 39.5 77.45 29.45 75.15 20.7 73.2 13.9 69.4 L13.9 69.05 13.9 68.25 14.75 67.1 Q14.3 66.35 16.3 64.05 18.7 60.95 20.3 60.25 21.9 59.05 23.95 58.7 L26.3 59.05 26.3 59.8 25.1 59.45 Q24.7 62.5 25.5 68.65 L25.9 71.7 Q26.75 67.5 27.5 66.0 28.7 63.3 30.7 62.15 31.1 63.3 31.1 66.35 31.9 66.0 32.7 64.4 33.1 64.4 33.1 66.35 34.3 63.3 35.05 61.75 L33.1 61.35 33.9 60.25 46.25 60.95 46.7 67.9 47.5 72.5 Q49.05 70.6 50.3 66.75 50.7 63.3 51.5 62.5 L52.65 64.4 Q53.1 66.35 53.45 67.1 54.3 66.0 55.45 62.15 L56.25 60.95 53.1 60.95 61.05 60.25 61.05 60.6 Q63.5 66.0 64.3 67.1 L65.05 67.1 Q64.65 64.05 64.65 62.15 L65.45 62.15 66.3 62.5 Q66.3 62.85 66.65 62.85 66.65 63.3 67.45 64.4 L67.45 62.15 Q68.65 62.15 69.85 63.3 L71.05 64.85 Q72.25 66.35 73.05 68.25 71.45 62.15 69.85 59.45 L68.25 59.8 67.85 59.45 71.9 59.05 M39.5 66.0 Q35.9 68.65 35.5 68.65 33.9 69.8 33.1 70.6 L31.9 72.5 Q32.7 74.4 36.7 74.8 L42.3 74.8 44.25 74.8 Q45.9 74.4 45.9 73.65 L43.45 68.65 Q41.9 67.1 39.5 66.0 M21.5 64.4 Q21.5 64.85 20.3 65.55 19.5 66.35 18.7 66.0 18.35 66.35 18.35 67.5 18.35 68.25 19.1 69.05 L19.5 69.4 Q22.3 70.95 23.95 71.7 L24.3 70.95 Q22.3 70.6 22.3 67.9 22.3 64.4 21.5 64.4 M65.45 68.65 Q64.3 69.8 63.5 69.8 L61.5 69.05 60.25 68.25 Q57.1 68.25 55.45 69.4 54.65 70.15 54.3 71.3 L54.3 73.2 Q54.3 73.65 55.1 74.0 L57.1 74.4 66.3 73.2 Q74.25 72.5 74.25 70.6 74.25 69.8 73.05 69.4 L71.05 69.05 67.45 68.25 65.45 68.65" fill="#f7516d" fill-rule="evenodd" stroke="none"/>
    <path d="M21.5 64.4 Q22.3 64.4 22.3 67.9 22.3 70.6 24.3 70.95 L23.95 71.7 Q22.3 70.95 19.5 69.4 L19.1 69.05 Q18.35 68.25 18.35 67.5 18.35 66.35 18.7 66.0 19.5 66.35 20.3 65.55 21.5 64.85 21.5 64.4 M39.5 66.0 Q41.9 67.1 43.45 68.65 L45.9 73.65 Q45.9 74.4 44.25 74.8 L42.3 74.8 36.7 74.8 Q32.7 74.4 31.9 72.5 L33.1 70.6 Q33.9 69.8 35.5 68.65 35.9 68.65 39.5 66.0 M65.45 68.65 L67.45 68.25 71.05 69.05 73.05 69.4 Q74.25 69.8 74.25 70.6 74.25 72.5 66.3 73.2 L57.1 74.4 55.1 74.0 Q54.3 73.65 54.3 73.2 L54.3 71.3 Q54.65 70.15 55.45 69.4 57.1 68.25 60.25 68.25 L61.5 69.05 63.5 69.8 Q64.3 69.8 65.45 68.65" fill="#fc7d92" fill-rule="evenodd" stroke="none"/>
    <path d="M15.1 57.1 L16.3 54.05 Q15.9 53.7 16.3 53.7 47.5 62.15 76.65 54.5 L78.25 57.9 Q71.05 60.95 59.05 62.15 47.5 63.65 39.5 62.5 L23.1 60.25 Q14.75 57.9 15.1 57.1" fill="#ffb4c0" fill-rule="evenodd" stroke="none"/>
  </g>
</svg>
