<?xml version="1.0" encoding="UTF-8" standalone="no"?>
<svg xmlns:xlink="http://www.w3.org/1999/xlink" height="37.0px" width="154.4px" xmlns="http://www.w3.org/2000/svg">
  <g transform="matrix(1.0, 0.0, 0.0, 1.0, 3.35, 1.0)">
    <path d="M40.35 11.2 L42.3 11.2 42.3 23.1 Q42.3 26.15 41.75 27.65 41.0 29.7 39.1 30.85 37.25 31.95 34.65 31.95 L31.2 31.4 Q29.75 30.9 28.7 29.95 27.85 29.15 26.95 27.3 L29.0 27.3 Q29.95 28.85 31.2 29.45 32.55 30.2 34.55 30.2 36.5 30.2 37.85 29.45 39.2 28.7 39.8 27.6 40.35 26.5 40.35 24.05 L40.35 23.3 Q39.3 24.65 37.7 25.4 36.05 26.1 34.4 26.1 32.4 26.1 30.55 25.1 28.75 24.1 27.75 22.35 26.75 20.6 26.75 18.55 26.75 16.55 27.75 14.7 28.8 12.9 30.6 11.85 32.5 10.85 34.45 10.85 36.2 10.85 37.55 11.5 39.0 12.25 40.35 13.8 L40.35 11.2 M39.7 15.55 Q38.95 14.2 37.6 13.45 36.25 12.7 34.7 12.7 33.05 12.7 31.7 13.45 30.2 14.3 29.5 15.65 28.7 16.95 28.7 18.65 28.7 21.15 30.35 22.7 32.05 24.3 34.6 24.3 37.25 24.3 38.85 22.7 40.45 21.1 40.45 18.55 40.45 16.85 39.7 15.55" fill="#674227" fill-rule="evenodd" stroke="none"/>
    <path d="M40.35 11.2 L42.3 11.2 42.3 23.1 Q42.3 26.15 41.75 27.65 41.0 29.7 39.1 30.85 37.25 31.95 34.65 31.95 L31.2 31.4 Q29.75 30.9 28.7 29.95 27.85 29.15 26.95 27.3 L29.0 27.3 Q29.95 28.85 31.2 29.45 32.55 30.2 34.55 30.2 36.5 30.2 37.85 29.45 39.2 28.7 39.8 27.6 40.35 26.5 40.35 24.05 L40.35 23.3 Q39.3 24.65 37.7 25.4 36.05 26.1 34.4 26.1 32.4 26.1 30.55 25.1 28.75 24.1 27.75 22.35 26.75 20.6 26.75 18.55 26.75 16.55 27.75 14.7 28.8 12.9 30.6 11.85 32.5 10.85 34.45 10.85 36.2 10.85 37.55 11.5 39.0 12.25 40.35 13.8 L40.35 11.2 M39.7 15.55 Q38.95 14.2 37.6 13.45 36.25 12.7 34.7 12.7 33.05 12.7 31.7 13.45 30.2 14.3 29.5 15.65 28.7 16.95 28.7 18.65 28.7 21.15 30.35 22.7 32.05 24.3 34.6 24.3 37.25 24.3 38.85 22.7 40.45 21.1 40.45 18.55 40.45 16.85 39.7 15.55" fill="none" stroke="#ffffff" stroke-linecap="butt" stroke-linejoin="miter" stroke-miterlimit="10.0" stroke-width="2.0"/>
    <path d="M47.95 13.1 Q50.3 10.85 53.4 10.85 55.25 10.85 56.75 11.6 58.3 12.5 59.35 13.95 L59.35 11.2 61.25 11.2 61.25 26.1 59.35 26.1 59.35 23.55 Q58.2 24.95 56.65 25.75 55.15 26.5 53.35 26.5 50.2 26.5 47.95 24.2 45.7 21.9 45.7 18.6 45.7 15.45 47.95 13.1 M47.65 18.7 Q47.65 20.2 48.45 21.7 49.3 23.15 50.65 23.95 52.1 24.75 53.55 24.75 55.05 24.75 56.55 23.95 58.0 23.05 58.7 21.8 59.45 20.45 59.45 18.75 59.45 16.2 57.75 14.4 56.05 12.7 53.55 12.7 51.95 12.7 50.6 13.45 49.3 14.25 48.45 15.7 47.65 17.0 47.65 18.7" fill="#674227" fill-rule="evenodd" stroke="none"/>
    <path d="M47.95 13.1 Q50.3 10.85 53.4 10.85 55.25 10.85 56.75 11.6 58.3 12.5 59.35 13.95 L59.35 11.2 61.25 11.2 61.25 26.1 59.35 26.1 59.35 23.55 Q58.2 24.95 56.65 25.75 55.15 26.5 53.35 26.5 50.2 26.5 47.95 24.2 45.7 21.9 45.7 18.6 45.7 15.45 47.95 13.1 M47.65 18.7 Q47.65 20.2 48.45 21.7 49.3 23.15 50.65 23.95 52.1 24.75 53.55 24.75 55.05 24.75 56.55 23.95 58.0 23.05 58.7 21.8 59.45 20.45 59.45 18.75 59.45 16.2 57.75 14.4 56.05 12.7 53.55 12.7 51.95 12.7 50.6 13.45 49.3 14.25 48.45 15.7 47.65 17.0 47.65 18.7" fill="none" stroke="#ffffff" stroke-linecap="butt" stroke-linejoin="miter" stroke-miterlimit="10.0" stroke-width="2.0"/>
    <path d="M84.35 13.25 Q83.5 12.7 82.35 12.7 80.95 12.7 79.8 13.5 78.7 14.3 78.15 15.7 77.6 17.1 77.6 20.3 L77.6 26.1 75.7 26.1 75.7 18.5 Q75.7 15.7 75.35 14.8 75.05 13.85 74.2 13.3 73.3 12.7 72.2 12.7 70.85 12.7 69.7 13.5 68.5 14.4 68.0 15.65 67.45 17.05 67.45 19.8 L67.45 26.1 65.55 26.1 65.55 11.2 67.45 11.2 67.45 13.8 Q68.4 12.4 69.5 11.7 70.85 10.85 72.55 10.85 L74.6 11.25 Q75.7 11.75 76.2 12.4 L77.25 14.4 Q78.25 12.65 79.65 11.75 81.1 10.85 82.75 10.85 84.3 10.85 85.5 11.6 86.7 12.5 87.25 13.8 87.8 15.2 87.8 18.0 L87.8 26.1 85.85 26.1 85.85 18.0 Q85.85 15.55 85.5 14.7 85.2 13.8 84.35 13.25" fill="#674227" fill-rule="evenodd" stroke="none"/>
    <path d="M84.35 13.25 Q83.5 12.7 82.35 12.7 80.95 12.7 79.8 13.5 78.7 14.3 78.15 15.7 77.6 17.1 77.6 20.3 L77.6 26.1 75.7 26.1 75.7 18.5 Q75.7 15.7 75.35 14.8 75.05 13.85 74.2 13.3 73.3 12.7 72.2 12.7 70.85 12.7 69.7 13.5 68.5 14.4 68.0 15.65 67.45 17.05 67.45 19.8 L67.45 26.1 65.55 26.1 65.55 11.2 67.45 11.2 67.45 13.8 Q68.4 12.4 69.5 11.7 70.85 10.85 72.55 10.85 L74.6 11.25 Q75.7 11.75 76.2 12.4 L77.25 14.4 Q78.25 12.65 79.65 11.75 81.1 10.85 82.75 10.85 84.3 10.85 85.5 11.6 86.7 12.5 87.25 13.8 87.8 15.2 87.8 18.0 L87.8 26.1 85.85 26.1 85.85 18.0 Q85.85 15.55 85.5 14.7 85.2 13.8 84.35 13.25 Z" fill="none" stroke="#ffffff" stroke-linecap="butt" stroke-linejoin="miter" stroke-miterlimit="10.0" stroke-width="2.0"/>
    <path d="M108.35 14.7 Q108.35 15.35 108.9 16.05 L111.2 17.65 Q113.35 18.75 114.1 19.75 114.9 20.75 114.9 22.1 114.9 23.9 113.6 25.2 112.3 26.5 110.35 26.5 109.15 26.5 107.9 25.95 106.8 25.4 105.95 24.4 L107.15 23.0 Q108.7 24.7 110.3 24.7 111.45 24.7 112.25 23.95 113.05 23.2 113.05 22.2 113.05 21.3 112.5 20.75 112.05 20.15 110.1 19.15 108.15 18.15 107.35 17.1 106.65 16.0 106.65 14.75 106.65 13.05 107.8 11.95 108.9 10.85 110.7 10.85 112.8 10.85 114.85 12.85 L113.65 14.1 Q112.1 12.6 110.65 12.6 109.7 12.6 109.05 13.25 108.35 13.85 108.35 14.7" fill="#674227" fill-rule="evenodd" stroke="none"/>
    <path d="M108.35 14.7 Q108.35 15.35 108.9 16.05 L111.2 17.65 Q113.35 18.75 114.1 19.75 114.9 20.75 114.9 22.1 114.9 23.9 113.6 25.2 112.3 26.5 110.35 26.5 109.15 26.5 107.9 25.95 106.8 25.4 105.95 24.4 L107.15 23.0 Q108.7 24.7 110.3 24.7 111.45 24.7 112.25 23.95 113.05 23.2 113.05 22.2 113.05 21.3 112.5 20.75 112.05 20.15 110.1 19.15 108.15 18.15 107.35 17.1 106.65 16.0 106.65 14.75 106.65 13.05 107.8 11.95 108.9 10.85 110.7 10.85 112.8 10.85 114.85 12.85 L113.65 14.1 Q112.1 12.6 110.65 12.6 109.7 12.6 109.05 13.25 108.35 13.85 108.35 14.7 Z" fill="none" stroke="#ffffff" stroke-linecap="butt" stroke-linejoin="miter" stroke-miterlimit="10.0" stroke-width="2.0"/>
    <path d="M122.05 24.8 Q122.05 25.5 121.55 26.0 121.1 26.5 120.35 26.5 119.65 26.5 119.2 26.0 118.7 25.5 118.7 24.8 118.7 24.05 119.2 23.6 119.65 23.1 120.35 23.1 121.1 23.1 121.55 23.6 122.05 24.05 122.05 24.8" fill="#674227" fill-rule="evenodd" stroke="none"/>
    <path d="M122.05 24.8 Q122.05 25.5 121.55 26.0 121.1 26.5 120.35 26.5 119.65 26.5 119.2 26.0 118.7 25.5 118.7 24.8 118.7 24.05 119.2 23.6 119.65 23.1 120.35 23.1 121.1 23.1 121.55 23.6 122.05 24.05 122.05 24.8 Z" fill="none" stroke="#ffffff" stroke-linecap="butt" stroke-linejoin="miter" stroke-miterlimit="10.0" stroke-width="2.0"/>
    <path d="M127.85 7.8 Q127.4 8.25 126.75 8.25 126.15 8.25 125.6 7.8 125.15 7.3 125.15 6.65 125.15 6.0 125.6 5.55 126.15 5.1 126.75 5.1 127.4 5.1 127.85 5.55 128.3 6.0 128.3 6.65 L127.85 7.8 M127.75 11.2 L127.75 28.35 Q127.75 30.15 127.05 31.1 126.35 31.95 125.2 31.95 L123.0 31.5 123.0 29.75 Q123.8 30.15 124.4 30.15 125.2 30.15 125.55 29.5 L125.8 27.8 125.8 11.2 127.75 11.2" fill="#674227" fill-rule="evenodd" stroke="none"/>
    <path d="M127.85 7.8 Q127.4 8.25 126.75 8.25 126.15 8.25 125.6 7.8 125.15 7.3 125.15 6.65 125.15 6.0 125.6 5.55 126.15 5.1 126.75 5.1 127.4 5.1 127.85 5.55 128.3 6.0 128.3 6.65 L127.85 7.8 M127.75 11.2 L127.75 28.35 Q127.75 30.15 127.05 31.1 126.35 31.95 125.2 31.95 L123.0 31.5 123.0 29.75 Q123.8 30.15 124.4 30.15 125.2 30.15 125.55 29.5 L125.8 27.8 125.8 11.2 127.75 11.2" fill="none" stroke="#ffffff" stroke-linecap="butt" stroke-linejoin="miter" stroke-miterlimit="10.0" stroke-width="2.0"/>
    <path d="M145.3 18.7 Q145.3 17.0 144.5 15.7 143.8 14.3 142.35 13.45 141.0 12.7 139.4 12.7 136.9 12.7 135.25 14.4 133.55 16.2 133.55 18.75 133.55 20.45 134.3 21.8 135.05 23.15 136.45 23.95 137.95 24.75 139.45 24.75 140.9 24.75 142.35 23.95 143.8 23.1 144.5 21.7 145.3 20.3 145.3 18.7 M147.25 18.6 Q147.25 21.85 145.05 24.2 142.85 26.5 139.65 26.5 137.85 26.5 136.35 25.75 134.8 24.95 133.65 23.55 L133.65 31.55 131.75 31.55 131.75 11.2 133.65 11.2 133.65 13.95 Q134.7 12.5 136.3 11.6 137.75 10.85 139.6 10.85 142.75 10.85 145.0 13.1 147.25 15.45 147.25 18.6" fill="#674227" fill-rule="evenodd" stroke="none"/>
    <path d="M145.3 18.7 Q145.3 17.0 144.5 15.7 143.8 14.3 142.35 13.45 141.0 12.7 139.4 12.7 136.9 12.7 135.25 14.4 133.55 16.2 133.55 18.75 133.55 20.45 134.3 21.8 135.05 23.15 136.45 23.95 137.95 24.75 139.45 24.75 140.9 24.75 142.35 23.95 143.8 23.1 144.5 21.7 145.3 20.3 145.3 18.7 M147.25 18.6 Q147.25 21.85 145.05 24.2 142.85 26.5 139.65 26.5 137.85 26.5 136.35 25.75 134.8 24.95 133.65 23.55 L133.65 31.55 131.75 31.55 131.75 11.2 133.65 11.2 133.65 13.95 Q134.7 12.5 136.3 11.6 137.75 10.85 139.6 10.85 142.75 10.85 145.0 13.1 147.25 15.45 147.25 18.6" fill="none" stroke="#ffffff" stroke-linecap="butt" stroke-linejoin="miter" stroke-miterlimit="10.0" stroke-width="2.0"/>
    <path d="M105.45 20.15 Q105.1 21.55 104.15 22.8 103.35 23.9 101.8 24.9 98.5 26.9 95.3 25.95 92.15 24.95 90.4 22.25 88.85 19.75 89.15 16.7 89.55 12.9 92.9 10.85 96.25 8.7 100.0 10.0 102.65 11.0 104.35 13.7 L92.25 21.2 Q93.8 23.6 96.15 24.1 98.6 24.7 100.65 23.4 101.8 22.7 102.45 21.8 L103.5 19.8 Q103.8 18.75 103.75 17.0 L105.7 16.85 Q105.85 18.85 105.45 20.15 M91.5 19.6 L101.5 13.35 Q100.25 12.15 99.15 11.8 L96.55 11.55 Q95.15 11.7 93.95 12.45 91.95 13.7 91.35 15.85 90.9 17.45 91.5 19.6" fill="#e58d1a" fill-rule="evenodd" stroke="none"/>
    <path d="M105.45 20.15 Q105.1 21.55 104.15 22.8 103.35 23.9 101.8 24.9 98.5 26.9 95.3 25.95 92.15 24.95 90.4 22.25 88.85 19.75 89.15 16.7 89.55 12.9 92.9 10.85 96.25 8.7 100.0 10.0 102.65 11.0 104.35 13.7 L92.25 21.2 Q93.8 23.6 96.15 24.1 98.6 24.7 100.65 23.4 101.8 22.7 102.45 21.8 L103.5 19.8 Q103.8 18.75 103.75 17.0 L105.7 16.85 Q105.85 18.85 105.45 20.15 M91.5 19.6 L101.5 13.35 Q100.25 12.15 99.15 11.8 L96.55 11.55 Q95.15 11.7 93.95 12.45 91.95 13.7 91.35 15.85 90.9 17.45 91.5 19.6" fill="none" stroke="#ffffff" stroke-linecap="butt" stroke-linejoin="miter" stroke-miterlimit="10.0" stroke-width="2.0"/>
    <path d="M24.35 13.75 L5.2 13.75 Q5.2 18.75 7.55 21.05 9.65 23.2 13.0 23.2 16.2 23.2 17.7 21.8 19.35 20.1 19.35 18.0 L24.55 18.0 Q23.7 22.15 21.5 24.4 18.45 27.45 13.0 27.45 7.4 27.45 3.75 23.9 0.0 20.15 0.0 13.75 0.0 7.3 4.0 3.35 7.35 0.0 12.5 0.0 17.45 0.0 21.0 3.55 24.35 6.9 24.35 13.75 M17.0 5.7 Q15.35 4.05 12.3 4.05 9.4 4.05 7.55 5.95 5.95 7.55 5.4 9.95 L18.9 9.95 Q18.9 7.6 17.0 5.7" fill="#e58d1a" fill-rule="evenodd" stroke="none"/>
    <path d="M24.35 13.75 L5.2 13.75 Q5.2 18.75 7.55 21.05 9.65 23.2 13.0 23.2 16.2 23.2 17.7 21.8 19.35 20.1 19.35 18.0 L24.55 18.0 Q23.7 22.15 21.5 24.4 18.45 27.45 13.0 27.45 7.4 27.45 3.75 23.9 0.0 20.15 0.0 13.75 0.0 7.3 4.0 3.35 7.35 0.0 12.5 0.0 17.45 0.0 21.0 3.55 24.35 6.9 24.35 13.75 M17.0 5.7 Q15.35 4.05 12.3 4.05 9.4 4.05 7.55 5.95 5.95 7.55 5.4 9.95 L18.9 9.95 Q18.9 7.6 17.0 5.7" fill="none" stroke="#ffffff" stroke-linecap="butt" stroke-linejoin="miter" stroke-miterlimit="10.0" stroke-width="2.0"/>
    <path d="M40.35 11.2 L42.3 11.2 42.3 23.1 Q42.3 26.15 41.75 27.65 41.0 29.7 39.1 30.85 37.25 31.95 34.65 31.95 L31.2 31.4 Q29.75 30.9 28.7 29.95 27.85 29.15 26.95 27.3 L29.0 27.3 Q29.95 28.85 31.2 29.45 32.55 30.2 34.55 30.2 36.5 30.2 37.85 29.45 39.2 28.7 39.8 27.6 40.35 26.5 40.35 24.05 L40.35 23.3 Q39.3 24.65 37.7 25.4 36.05 26.1 34.4 26.1 32.4 26.1 30.55 25.1 28.75 24.1 27.75 22.35 26.75 20.6 26.75 18.55 26.75 16.55 27.75 14.7 28.8 12.9 30.6 11.85 32.5 10.85 34.45 10.85 36.2 10.85 37.55 11.5 39.0 12.25 40.35 13.8 L40.35 11.2 M39.7 15.55 Q38.95 14.2 37.6 13.45 36.25 12.7 34.7 12.7 33.05 12.7 31.7 13.45 30.2 14.3 29.5 15.65 28.7 16.95 28.7 18.65 28.7 21.15 30.35 22.7 32.05 24.3 34.6 24.3 37.25 24.3 38.85 22.7 40.45 21.1 40.45 18.55 40.45 16.85 39.7 15.55" fill="#674227" fill-rule="evenodd" stroke="none"/>
    <path d="M47.95 13.1 Q50.3 10.85 53.4 10.85 55.25 10.85 56.75 11.6 58.3 12.5 59.35 13.95 L59.35 11.2 61.25 11.2 61.25 26.1 59.35 26.1 59.35 23.55 Q58.2 24.95 56.65 25.75 55.15 26.5 53.35 26.5 50.2 26.5 47.95 24.2 45.7 21.9 45.7 18.6 45.7 15.45 47.95 13.1 M47.65 18.7 Q47.65 20.2 48.45 21.7 49.3 23.15 50.65 23.95 52.1 24.75 53.55 24.75 55.05 24.75 56.55 23.95 58.0 23.05 58.7 21.8 59.45 20.45 59.45 18.75 59.45 16.2 57.75 14.4 56.05 12.7 53.55 12.7 51.95 12.7 50.6 13.45 49.3 14.25 48.45 15.7 47.65 17.0 47.65 18.7" fill="#674227" fill-rule="evenodd" stroke="none"/>
    <path d="M84.35 13.25 Q83.5 12.7 82.35 12.7 80.95 12.7 79.8 13.5 78.7 14.3 78.15 15.7 77.6 17.1 77.6 20.3 L77.6 26.1 75.7 26.1 75.7 18.5 Q75.7 15.7 75.35 14.8 75.05 13.85 74.2 13.3 73.3 12.7 72.2 12.7 70.85 12.7 69.7 13.5 68.5 14.4 68.0 15.65 67.45 17.05 67.45 19.8 L67.45 26.1 65.55 26.1 65.55 11.2 67.45 11.2 67.45 13.8 Q68.4 12.4 69.5 11.7 70.85 10.85 72.55 10.85 L74.6 11.25 Q75.7 11.75 76.2 12.4 L77.25 14.4 Q78.25 12.65 79.65 11.75 81.1 10.85 82.75 10.85 84.3 10.85 85.5 11.6 86.7 12.5 87.25 13.8 87.8 15.2 87.8 18.0 L87.8 26.1 85.85 26.1 85.85 18.0 Q85.85 15.55 85.5 14.7 85.2 13.8 84.35 13.25" fill="#674227" fill-rule="evenodd" stroke="none"/>
    <path d="M108.35 14.7 Q108.35 15.35 108.9 16.05 L111.2 17.65 Q113.35 18.75 114.1 19.75 114.9 20.75 114.9 22.1 114.9 23.9 113.6 25.2 112.3 26.5 110.35 26.5 109.15 26.5 107.9 25.95 106.8 25.4 105.95 24.4 L107.15 23.0 Q108.7 24.7 110.3 24.7 111.45 24.7 112.25 23.95 113.05 23.2 113.05 22.2 113.05 21.3 112.5 20.75 112.05 20.15 110.1 19.15 108.15 18.15 107.35 17.1 106.65 16.0 106.65 14.75 106.65 13.05 107.8 11.95 108.9 10.85 110.7 10.85 112.8 10.85 114.85 12.85 L113.65 14.1 Q112.1 12.6 110.65 12.6 109.7 12.6 109.05 13.25 108.35 13.85 108.35 14.7" fill="#674227" fill-rule="evenodd" stroke="none"/>
    <path d="M122.05 24.8 Q122.05 25.5 121.55 26.0 121.1 26.5 120.35 26.5 119.65 26.5 119.2 26.0 118.7 25.5 118.7 24.8 118.7 24.05 119.2 23.6 119.65 23.1 120.35 23.1 121.1 23.1 121.55 23.6 122.05 24.05 122.05 24.8" fill="#674227" fill-rule="evenodd" stroke="none"/>
    <path d="M127.85 7.8 Q127.4 8.25 126.75 8.25 126.15 8.25 125.6 7.8 125.15 7.3 125.15 6.65 125.15 6.0 125.6 5.55 126.15 5.1 126.75 5.1 127.4 5.1 127.85 5.55 128.3 6.0 128.3 6.65 L127.85 7.8 M127.75 11.2 L127.75 28.35 Q127.75 30.15 127.05 31.1 126.35 31.95 125.2 31.95 L123.0 31.5 123.0 29.75 Q123.8 30.15 124.4 30.15 125.2 30.15 125.55 29.5 L125.8 27.8 125.8 11.2 127.75 11.2" fill="#674227" fill-rule="evenodd" stroke="none"/>
    <path d="M145.3 18.7 Q145.3 17.0 144.5 15.7 143.8 14.3 142.35 13.45 141.0 12.7 139.4 12.7 136.9 12.7 135.25 14.4 133.55 16.2 133.55 18.75 133.55 20.45 134.3 21.8 135.05 23.15 136.45 23.95 137.95 24.75 139.45 24.75 140.9 24.75 142.35 23.95 143.8 23.1 144.5 21.7 145.3 20.3 145.3 18.7 M147.25 18.6 Q147.25 21.85 145.05 24.2 142.85 26.5 139.65 26.5 137.85 26.5 136.35 25.75 134.8 24.95 133.65 23.55 L133.65 31.55 131.75 31.55 131.75 11.2 133.65 11.2 133.65 13.95 Q134.7 12.5 136.3 11.6 137.75 10.85 139.6 10.85 142.75 10.85 145.0 13.1 147.25 15.45 147.25 18.6" fill="#674227" fill-rule="evenodd" stroke="none"/>
    <path d="M105.45 20.15 Q105.1 21.55 104.15 22.8 103.35 23.9 101.8 24.9 98.5 26.9 95.3 25.95 92.15 24.95 90.4 22.25 88.85 19.75 89.15 16.7 89.55 12.9 92.9 10.85 96.25 8.7 100.0 10.0 102.65 11.0 104.35 13.7 L92.25 21.2 Q93.8 23.6 96.15 24.1 98.6 24.7 100.65 23.4 101.8 22.7 102.45 21.8 L103.5 19.8 Q103.8 18.75 103.75 17.0 L105.7 16.85 Q105.85 18.85 105.45 20.15 M91.5 19.6 L101.5 13.35 Q100.25 12.15 99.15 11.8 L96.55 11.55 Q95.15 11.7 93.95 12.45 91.95 13.7 91.35 15.85 90.9 17.45 91.5 19.6" fill="#e58d1a" fill-rule="evenodd" stroke="none"/>
    <path d="M24.35 13.75 L5.2 13.75 Q5.2 18.75 7.55 21.05 9.65 23.2 13.0 23.2 16.2 23.2 17.7 21.8 19.35 20.1 19.35 18.0 L24.55 18.0 Q23.7 22.15 21.5 24.4 18.45 27.45 13.0 27.45 7.4 27.45 3.75 23.9 0.0 20.15 0.0 13.75 0.0 7.3 4.0 3.35 7.35 0.0 12.5 0.0 17.45 0.0 21.0 3.55 24.35 6.9 24.35 13.75 M17.0 5.7 Q15.35 4.05 12.3 4.05 9.4 4.05 7.55 5.95 5.95 7.55 5.4 9.95 L18.9 9.95 Q18.9 7.6 17.0 5.7" fill="#e58d1a" fill-rule="evenodd" stroke="none"/>
  </g>
</svg>
