<?xml version="1.0" encoding="UTF-8" standalone="no"?>
<svg xmlns:xlink="http://www.w3.org/1999/xlink" height="63.8px" width="406.6px" xmlns="http://www.w3.org/2000/svg">
  <g transform="matrix(1.0, 0.0, 0.0, 1.0, -1.5, -1.5)">
    <path d="M403.9 45.2 L404.55 45.25 Q406.6 45.25 408.05 43.8 L408.1 44.35 Q408.1 47.05 405.85 49.1 403.65 51.0 400.45 51.0 394.3 51.0 393.3 43.75 395.1 46.7 399.05 46.7 401.8 46.7 403.9 45.2 M391.95 30.7 Q390.95 30.85 389.8 32.25 387.8 34.65 386.95 37.65 386.55 39.0 386.2 41.6 L385.85 44.7 385.9 46.4 Q385.9 47.95 384.85 48.5 L382.45 49.5 379.45 50.3 Q377.65 50.3 377.65 48.3 L377.75 46.0 378.0 46.0 Q378.85 46.0 381.05 45.2 L383.4 44.2 Q384.5 43.6 384.5 42.05 L384.4 40.3 Q384.4 39.65 384.75 37.3 385.15 34.7 385.5 33.35 386.35 30.3 388.35 27.95 389.65 26.35 390.8 26.35 392.05 26.35 392.05 28.35 L391.95 30.7 M377.0 31.8 L376.85 31.8 Q375.55 31.8 373.95 34.05 369.6 40.05 369.6 45.4 L369.7 46.5 369.8 47.65 Q369.8 48.35 368.95 49.15 366.85 51.25 364.95 51.25 363.3 51.25 362.3 49.45 361.4 47.95 361.3 45.75 362.2 46.9 363.55 46.9 365.4 46.9 367.5 44.85 368.35 44.05 368.35 43.3 L368.3 42.1 368.15 41.05 Q368.15 35.7 372.55 29.75 374.1 27.5 375.4 27.5 377.0 27.5 377.0 31.4 L377.0 31.8 M368.7 19.1 Q370.25 19.5 370.25 21.65 L370.0 24.4 367.9 27.35 367.9 27.05 Q367.9 24.85 368.45 21.1 L368.7 19.1 M400.25 24.5 Q401.75 26.5 401.75 30.6 L401.6 35.7 401.6 39.3 401.65 40.55 Q400.6 39.9 400.3 38.3 L400.2 35.0 400.2 31.4 400.3 26.3 400.25 24.5 M352.25 27.45 Q354.05 31.1 354.05 35.85 354.05 42.95 350.35 47.2 346.6 51.45 340.5 51.45 334.35 51.45 330.5 47.2 327.65 44.1 326.85 39.7 327.75 41.4 329.05 42.9 332.95 47.15 339.05 47.15 345.15 47.15 348.9 42.9 352.6 38.6 352.6 31.55 352.6 29.4 352.25 27.45 M335.15 37.75 Q333.45 34.85 333.45 30.4 333.45 26.65 334.9 24.4 336.3 22.1 338.7 22.1 341.3 22.1 343.1 25.2 344.3 27.25 344.7 29.85 L344.5 29.5 Q342.7 26.4 340.15 26.4 337.75 26.4 336.3 28.7 334.9 30.95 334.9 34.7 334.9 36.3 335.15 37.75 M299.9 40.7 Q300.55 42.0 301.55 43.15 305.0 47.05 311.1 47.05 315.8 47.05 318.95 44.6 320.35 43.45 321.15 42.05 L322.5 40.15 Q323.5 41.1 323.5 42.8 323.5 46.4 320.4 48.95 317.25 51.4 312.55 51.4 306.45 51.4 303.0 47.5 300.6 44.85 299.9 40.7 M307.6 38.1 Q306.1 35.75 306.1 31.8 306.1 27.7 307.65 25.0 309.3 22.25 311.7 22.25 313.15 22.25 314.3 23.45 315.3 24.7 315.3 26.35 L315.2 26.85 316.6 27.05 Q318.45 27.05 319.7 25.65 320.9 24.35 321.0 22.5 322.4 24.2 322.4 26.5 322.4 28.6 321.15 29.95 319.9 31.4 318.05 31.4 L316.65 31.15 316.75 30.65 Q316.75 29.0 315.75 27.8 314.55 26.55 313.15 26.55 310.75 26.55 309.1 29.3 307.5 32.05 307.5 36.15 L307.6 38.1 M295.55 43.35 L295.95 43.6 Q297.2 44.6 297.2 46.2 297.2 48.35 295.15 49.85 292.95 51.3 289.9 51.3 287.7 51.3 286.5 50.3 285.2 49.35 285.2 47.7 285.2 46.95 285.5 46.3 286.65 47.0 288.45 47.0 291.55 47.0 293.7 45.55 295.05 44.55 295.55 43.35 M266.1 39.3 Q264.65 37.85 264.15 35.05 269.5 33.7 272.8 30.5 276.2 27.2 276.2 23.4 L276.2 22.8 Q277.65 24.85 277.65 27.7 277.65 31.55 274.25 34.85 271.1 37.85 266.1 39.3 M257.0 39.8 Q257.7 41.25 258.75 42.55 262.35 46.9 268.0 46.9 272.25 46.9 275.35 44.45 L276.35 43.6 Q278.2 42.45 279.35 40.8 279.95 41.75 279.95 43.25 279.95 46.4 276.75 48.8 273.7 51.25 269.45 51.25 263.8 51.25 260.2 46.85 257.75 43.95 257.0 39.8 M264.75 29.7 L263.4 30.1 Q263.0 28.8 263.0 27.65 263.0 25.1 264.25 23.25 265.45 21.4 267.15 21.4 269.65 21.4 269.65 24.2 L269.4 25.8 268.55 25.7 Q266.9 25.7 265.7 27.55 265.05 28.55 264.75 29.7 M247.65 24.5 Q249.15 26.55 249.15 30.6 L249.0 35.7 249.0 39.3 249.05 40.55 Q247.95 39.95 247.7 38.3 247.55 37.0 247.55 35.0 L247.55 31.4 247.7 26.3 247.65 24.5 M251.25 45.2 L251.95 45.25 Q253.95 45.25 255.4 43.8 L255.45 44.35 Q255.45 47.05 253.25 49.1 251.0 51.0 247.85 51.0 241.75 51.0 240.7 43.85 242.55 46.7 246.4 46.7 249.15 46.7 251.25 45.2 M239.3 30.7 Q238.3 30.85 237.15 32.25 235.15 34.65 234.3 37.65 233.95 39.0 233.55 41.6 233.2 44.05 233.2 44.7 L233.3 46.4 Q233.3 47.95 232.2 48.5 L229.85 49.5 226.8 50.3 Q225.0 50.3 225.0 48.3 L225.1 46.0 225.35 46.0 Q226.25 46.0 228.4 45.2 L230.75 44.2 Q231.85 43.6 231.85 42.05 L231.75 40.3 232.15 37.3 232.85 33.35 Q233.7 30.3 235.75 27.95 237.05 26.35 238.2 26.35 239.4 26.35 239.4 28.35 L239.3 30.7 M224.35 31.8 L224.2 31.8 Q222.9 31.8 221.35 34.05 216.95 40.05 216.95 45.4 L217.1 46.5 217.15 47.65 Q217.15 48.35 216.3 49.15 214.2 51.25 212.35 51.25 210.7 51.25 209.65 49.45 208.75 47.95 208.65 45.7 209.55 46.9 210.9 46.9 212.75 46.9 214.85 44.85 215.7 44.05 215.7 43.3 L215.65 42.1 215.5 41.05 Q215.5 35.7 219.9 29.75 221.5 27.5 222.75 27.5 224.35 27.5 224.35 31.4 L224.35 31.8 M216.05 19.1 Q217.6 19.45 217.6 21.65 L217.4 24.4 215.3 27.35 215.3 27.05 Q215.3 24.85 215.8 21.1 L216.05 19.1 M203.1 44.9 L203.4 44.9 Q204.85 44.9 205.8 43.8 L206.05 45.2 Q206.05 47.7 204.5 49.3 202.9 50.95 200.55 50.95 195.85 50.95 194.4 45.85 191.55 50.8 186.35 50.8 182.1 50.8 179.15 46.9 177.05 44.25 176.45 40.65 L177.7 42.6 Q180.65 46.5 184.9 46.5 190.1 46.5 192.95 41.45 194.4 46.65 199.1 46.65 201.45 46.65 203.05 44.95 L203.1 44.9 M197.85 24.2 L198.2 25.05 198.65 26.2 198.45 26.2 197.2 26.35 Q197.85 25.55 197.85 24.7 L197.85 24.2 M199.2 30.6 L199.9 30.5 Q201.4 30.5 201.4 31.45 L201.25 32.7 200.65 34.65 Q200.1 36.95 200.1 39.65 L200.1 39.95 Q198.65 38.8 198.65 35.35 198.65 32.75 199.2 30.6 M183.65 38.75 L183.25 38.15 Q182.15 36.3 182.15 33.05 182.15 28.65 183.95 25.2 185.75 21.8 188.15 21.8 189.2 21.8 190.1 22.8 190.95 23.75 190.95 25.1 L190.95 26.6 Q190.3 26.15 189.6 26.15 187.2 26.15 185.4 29.5 183.6 32.95 183.6 37.35 L183.65 38.75 M192.1 28.0 L192.25 28.0 192.15 28.1 192.1 28.0 M167.25 24.35 L167.4 24.6 168.2 26.3 168.15 26.3 166.9 26.35 166.6 26.35 167.25 24.4 167.25 24.35 M168.6 30.65 L169.55 30.6 Q170.85 30.6 170.85 31.75 L170.2 34.5 Q169.85 35.55 169.65 37.15 169.3 40.3 169.3 44.6 L169.3 45.4 169.3 48.35 169.35 50.45 169.35 52.25 169.15 57.65 Q168.65 60.65 167.05 62.6 164.75 65.3 159.9 65.3 154.75 65.3 151.65 61.9 L150.15 60.25 149.7 59.95 151.6 58.85 Q154.4 60.95 158.5 60.95 163.3 60.95 165.6 58.3 167.2 56.35 167.7 53.35 L167.9 47.95 167.9 46.15 167.85 44.05 167.85 41.05 167.85 40.25 Q167.85 36.0 168.2 32.85 L168.6 30.65 M160.55 49.25 Q157.85 50.9 154.8 50.9 150.7 50.9 148.05 47.2 146.2 44.65 145.6 41.25 L146.6 42.9 Q149.25 46.55 153.35 46.55 157.25 46.55 160.55 43.9 L160.55 44.45 160.55 46.55 160.55 48.35 160.55 49.25 M152.9 38.85 Q151.4 37.2 151.4 33.05 151.4 28.6 153.35 25.35 155.25 22.05 157.85 22.05 158.9 22.05 159.65 23.05 160.4 23.95 160.4 25.5 L160.5 26.75 Q159.95 26.35 159.25 26.35 156.7 26.35 154.8 29.65 152.85 32.9 152.85 37.35 L152.9 38.85 M161.45 27.95 L161.65 28.0 161.55 28.15 161.45 27.95 M121.8 20.35 Q123.4 20.7 123.4 22.9 L122.9 27.55 122.25 31.75 Q121.9 34.55 121.9 38.0 L121.9 38.5 Q120.45 37.35 120.45 33.7 120.45 30.25 120.8 27.45 L121.45 23.25 121.8 20.35 M138.25 20.75 Q139.9 20.85 139.9 22.75 L139.7 25.1 139.35 27.95 Q138.95 32.45 138.95 36.15 L139.35 42.6 139.9 52.8 Q139.9 65.2 128.95 65.2 121.85 65.2 121.2 60.4 L120.95 58.95 120.9 58.85 120.8 58.75 120.9 58.7 Q122.7 60.9 127.5 60.9 138.45 60.9 138.45 48.5 L137.9 38.25 Q137.55 33.7 137.55 31.8 137.55 28.15 137.9 23.6 L138.25 20.8 138.25 20.75 M130.75 46.0 Q127.55 50.45 123.15 50.45 119.65 50.45 117.95 48.65 116.65 47.35 115.65 43.95 L115.25 42.45 Q115.85 43.7 116.5 44.35 118.25 46.15 121.7 46.15 126.8 46.15 130.35 40.05 L130.35 40.45 130.75 46.0 M113.6 24.55 L113.55 24.5 113.6 24.45 113.6 24.55 M105.05 38.75 Q103.55 37.05 103.55 33.1 103.55 30.95 104.25 24.35 105.0 17.85 106.2 10.65 L106.8 6.6 Q108.3 7.2 108.3 9.65 L107.65 14.95 Q106.4 22.15 105.7 28.65 105.0 35.3 105.0 37.45 L105.05 38.75 M97.1 43.7 Q99.2 46.85 103.9 46.85 107.0 46.85 108.85 45.2 L109.65 44.35 Q110.85 44.3 111.9 43.6 L112.2 44.9 Q112.2 47.8 110.3 49.5 108.45 51.15 105.35 51.15 100.6 51.15 98.5 47.95 97.5 46.4 97.1 43.7 M80.0 13.3 L82.0 13.75 Q85.05 13.75 87.7 11.8 89.5 10.55 90.0 9.0 91.6 9.8 91.6 12.0 91.6 14.4 89.15 16.1 L87.0 17.35 86.5 17.3 Q85.1 17.3 83.6 18.05 L83.45 18.05 Q81.85 18.05 80.8 17.2 79.7 16.25 79.7 14.95 L79.7 14.7 Q79.7 14.0 80.0 13.3 M88.4 21.65 Q90.0 21.85 90.0 23.75 L89.65 27.3 89.15 31.95 88.95 37.8 Q88.95 41.35 89.35 43.85 87.5 41.1 87.5 33.5 L87.7 27.65 88.2 22.95 88.4 21.65 M89.45 44.35 Q89.95 47.25 91.1 48.55 L88.5 49.95 Q87.05 50.75 84.9 50.75 81.1 50.75 80.95 45.55 81.9 46.4 83.45 46.4 85.6 46.4 87.05 45.6 L89.45 44.35 M69.35 24.1 L69.8 25.05 70.25 26.2 70.0 26.2 68.75 26.35 Q69.4 25.55 69.4 24.7 L69.35 24.1 M70.75 30.6 L71.45 30.5 Q72.95 30.5 72.95 31.45 L72.8 32.7 72.2 34.65 Q71.65 36.95 71.65 39.65 L71.65 39.95 Q70.2 38.8 70.2 35.35 70.2 32.75 70.75 30.6 M74.65 44.9 L74.95 44.9 Q76.4 44.9 77.35 43.8 L77.6 45.2 Q77.6 47.7 76.05 49.3 74.45 50.95 72.1 50.95 67.4 50.95 65.95 45.85 63.1 50.8 57.9 50.8 53.65 50.8 50.7 46.9 48.6 44.25 48.0 40.65 L49.25 42.6 Q52.2 46.5 56.45 46.5 61.65 46.5 64.5 41.45 65.95 46.65 70.65 46.65 73.0 46.65 74.6 44.95 L74.65 44.9 M8.2 42.8 L8.6 43.3 Q11.75 47.05 19.65 47.05 29.25 47.05 35.5 40.55 41.7 34.0 41.7 23.9 41.7 20.95 41.15 18.35 43.15 22.65 43.15 28.2 43.15 38.3 36.95 44.9 30.7 51.4 21.1 51.4 13.2 51.4 10.0 47.65 8.95 46.35 8.65 45.1 L8.2 42.8 M4.4 11.35 Q6.1 10.6 8.05 10.3 L7.55 15.05 Q5.55 15.6 3.9 16.65 3.45 15.35 3.45 14.25 3.45 12.65 4.4 11.35 M55.2 38.75 L54.8 38.15 Q53.7 36.3 53.7 33.05 53.7 28.65 55.5 25.2 57.3 21.8 59.7 21.8 60.8 21.8 61.65 22.8 62.5 23.75 62.5 25.1 L62.5 26.6 Q61.85 26.15 61.15 26.15 58.75 26.15 56.95 29.5 55.15 32.95 55.15 37.35 L55.2 38.75 M63.65 28.0 L63.8 28.0 63.7 28.1 63.65 28.0 M16.95 39.25 Q16.15 38.5 15.85 37.35 15.35 35.65 15.35 31.1 15.35 26.9 15.8 20.65 L16.05 16.7 Q16.55 11.25 16.8 9.85 L19.4 9.65 Q25.35 9.65 28.9 13.7 31.25 16.4 32.0 20.5 L30.3 18.0 Q26.8 13.95 20.8 13.95 L18.2 14.2 17.5 21.0 17.2 25.0 Q16.8 31.25 16.8 35.4 16.8 37.65 16.95 39.25" fill="#ab0709" fill-rule="evenodd" stroke="none"/>
    <path d="M403.9 45.2 Q401.8 46.7 399.05 46.7 395.1 46.7 393.3 43.75 391.7 41.1 391.7 36.3 L391.95 30.7 392.05 28.35 Q392.05 26.35 390.8 26.35 389.65 26.35 388.35 27.95 386.35 30.3 385.5 33.35 385.15 34.7 384.75 37.3 384.4 39.65 384.4 40.3 L384.5 42.05 Q384.5 43.6 383.4 44.2 L381.05 45.2 Q378.85 46.0 378.0 46.0 L377.75 46.0 Q376.2 45.85 376.2 43.95 L376.4 40.45 377.0 31.8 377.0 31.4 Q377.0 27.5 375.4 27.5 374.1 27.5 372.55 29.75 368.15 35.7 368.15 41.05 L368.3 42.1 368.35 43.3 Q368.35 44.05 367.5 44.85 365.4 46.9 363.55 46.9 362.2 46.9 361.3 45.75 L360.85 45.1 Q359.8 43.4 359.8 40.6 L359.95 36.15 360.2 28.95 Q360.2 23.4 359.7 20.45 359.45 19.2 358.85 18.2 L359.2 18.15 361.95 16.4 Q364.3 14.7 366.5 14.7 368.8 14.7 368.8 17.35 L368.7 19.1 368.45 21.1 Q367.9 24.85 367.9 27.05 L367.9 27.35 370.0 24.4 Q374.2 19.15 378.6 19.15 382.7 19.15 383.9 25.05 L384.0 25.4 Q385.05 23.3 388.15 20.35 390.45 18.15 394.2 18.15 399.55 18.15 400.25 24.5 L400.3 26.3 400.2 31.4 400.2 35.0 400.3 38.3 Q400.6 39.9 401.65 40.55 L403.15 40.9 Q405.15 40.9 406.6 39.45 L406.65 39.95 Q406.65 42.75 404.45 44.75 L403.9 45.2 M326.85 39.7 Q325.1 36.25 325.1 31.8 325.1 28.0 326.65 24.55 328.35 21.15 330.65 20.0 L330.05 18.45 Q331.2 17.15 333.75 16.2 336.3 15.25 338.55 15.25 344.65 15.25 348.65 19.85 351.4 23.05 352.25 27.45 352.6 29.4 352.6 31.55 352.6 38.6 348.9 42.9 345.15 47.15 339.05 47.15 332.95 47.15 329.05 42.9 327.75 41.4 326.85 39.7 M344.7 29.85 Q344.3 27.25 343.1 25.2 341.3 22.1 338.7 22.1 336.3 22.1 334.9 24.4 333.45 26.65 333.45 30.4 333.45 34.85 335.15 37.75 L335.25 37.95 Q336.95 40.8 339.75 40.8 344.9 40.8 344.9 32.75 L344.7 29.85 M299.9 40.7 Q298.1 37.35 298.1 32.45 298.1 25.2 302.2 20.15 306.35 15.1 312.25 15.1 316.0 15.1 318.45 17.15 321.0 19.15 321.0 22.15 L321.0 22.5 Q320.9 24.35 319.7 25.65 318.45 27.05 316.6 27.05 L315.2 26.85 315.3 26.35 Q315.3 24.7 314.3 23.45 313.15 22.25 311.7 22.25 309.3 22.25 307.65 25.0 306.1 27.7 306.1 31.8 306.1 35.75 307.6 38.1 L307.8 38.35 Q309.55 40.75 312.5 40.75 315.0 40.75 317.55 39.4 320.05 37.85 321.05 35.85 322.05 36.8 322.05 38.45 322.05 40.4 321.15 42.05 320.35 43.45 318.95 44.6 315.8 47.05 311.1 47.05 305.0 47.05 301.55 43.15 300.55 42.0 299.9 40.7 M285.5 46.3 L285.05 46.0 Q283.75 45.05 283.75 43.4 283.75 41.3 286.0 39.8 288.2 38.25 291.1 38.25 293.2 38.25 294.5 39.25 295.8 40.25 295.8 41.85 L295.55 43.35 Q295.05 44.55 293.7 45.55 291.55 47.0 288.45 47.0 286.65 47.0 285.5 46.3 M276.2 22.8 L276.2 23.4 Q276.2 27.2 272.8 30.5 269.5 33.7 264.15 35.05 264.65 37.85 266.1 39.3 267.55 40.75 269.95 40.75 272.0 40.75 274.35 39.6 276.55 38.35 277.95 36.5 278.5 37.45 278.5 38.9 278.5 41.5 276.35 43.6 L275.35 44.45 Q272.25 46.9 268.0 46.9 262.35 46.9 258.75 42.55 257.7 41.25 257.0 39.8 255.15 36.15 255.15 31.25 255.15 24.4 258.85 19.65 262.45 14.9 267.55 14.9 271.25 14.9 273.75 17.3 276.0 19.5 276.2 22.8 M269.4 25.8 L269.65 24.2 Q269.65 21.4 267.15 21.4 265.45 21.4 264.25 23.25 263.0 25.1 263.0 27.65 263.0 28.8 263.4 30.1 L264.75 29.7 Q268.55 28.35 269.4 25.8 M247.65 24.5 L247.7 26.3 247.55 31.4 247.55 35.0 Q247.55 37.0 247.7 38.3 247.95 39.95 249.05 40.55 L250.5 40.9 Q252.5 40.9 253.95 39.45 L254.0 39.95 Q254.0 42.75 251.8 44.75 L251.25 45.2 Q249.15 46.7 246.4 46.7 242.55 46.7 240.7 43.85 239.05 41.2 239.05 36.3 L239.3 30.7 239.4 28.35 Q239.4 26.35 238.2 26.35 237.05 26.35 235.75 27.95 233.7 30.3 232.85 33.35 L232.15 37.3 231.75 40.3 231.85 42.05 Q231.85 43.6 230.75 44.2 L228.4 45.2 Q226.25 46.0 225.35 46.0 L225.1 46.0 Q223.55 45.85 223.55 43.95 L223.8 40.45 224.35 31.8 224.35 31.4 Q224.35 27.5 222.75 27.5 221.5 27.5 219.9 29.75 215.5 35.7 215.5 41.05 L215.65 42.1 215.7 43.3 Q215.7 44.05 214.85 44.85 212.75 46.9 210.9 46.9 209.55 46.9 208.65 45.7 L208.25 45.1 Q207.15 43.4 207.15 40.6 L207.3 36.15 207.6 28.95 Q207.6 23.4 207.1 20.45 L206.2 18.2 206.55 18.15 209.3 16.4 Q211.7 14.7 213.85 14.7 216.15 14.7 216.15 17.35 L216.05 19.1 215.8 21.1 Q215.3 24.85 215.3 27.05 L215.3 27.35 217.4 24.4 Q221.55 19.15 225.95 19.15 230.05 19.15 231.25 25.05 L231.35 25.4 Q232.4 23.3 235.5 20.35 237.8 18.15 241.55 18.15 246.95 18.15 247.65 24.5 M200.1 39.95 Q200.85 40.55 201.95 40.55 203.4 40.55 204.35 39.45 L204.65 40.8 Q204.65 43.35 203.1 44.9 L203.05 44.95 Q201.45 46.65 199.1 46.65 194.4 46.65 192.95 41.45 190.1 46.5 184.9 46.5 180.65 46.5 177.7 42.6 L176.45 40.65 Q174.75 37.4 174.75 33.2 174.75 26.35 179.05 21.0 183.45 15.6 189.0 15.6 194.7 15.6 196.8 20.75 L197.85 24.2 197.85 24.7 Q197.85 25.55 197.2 26.35 L198.45 26.2 198.65 26.2 Q199.95 26.25 199.95 27.15 L199.8 28.35 199.25 30.3 199.2 30.6 Q198.65 32.75 198.65 35.35 198.65 38.8 200.1 39.95 M190.95 26.6 L190.95 25.1 Q190.95 23.75 190.1 22.8 189.2 21.8 188.15 21.8 185.75 21.8 183.95 25.2 182.15 28.65 182.15 33.05 182.15 36.3 183.25 38.15 L183.65 38.75 Q184.65 40.05 186.2 40.05 189.85 40.05 191.1 32.1 L191.65 28.95 192.15 28.1 192.25 28.0 192.1 28.0 Q191.0 27.8 190.95 26.6 M145.6 41.25 Q143.85 37.95 143.85 33.55 143.85 26.2 148.25 20.75 152.5 15.25 158.25 15.25 161.15 15.25 163.0 16.7 164.65 17.85 165.95 20.3 167.2 22.65 167.25 24.35 L167.25 24.4 166.6 26.35 166.9 26.35 168.15 26.3 168.2 26.3 Q169.4 26.3 169.4 27.45 L168.75 30.15 168.6 30.65 168.2 32.85 Q167.85 36.0 167.85 40.25 L167.85 41.05 167.85 44.05 167.9 46.15 167.9 47.95 167.7 53.35 Q167.2 56.35 165.6 58.3 163.3 60.95 158.5 60.95 154.4 60.95 151.6 58.85 L150.2 57.55 148.7 55.9 148.25 55.65 150.85 54.1 Q152.2 53.4 153.2 53.4 L155.8 53.95 157.4 54.35 Q160.3 54.35 160.55 49.25 L160.55 48.35 160.55 46.55 160.55 44.45 160.55 43.9 Q157.25 46.55 153.35 46.55 149.25 46.55 146.6 42.9 L145.6 41.25 M160.5 26.75 L160.4 25.5 Q160.4 23.95 159.65 23.05 158.9 22.05 157.85 22.05 155.25 22.05 153.35 25.35 151.4 28.6 151.4 33.05 151.4 37.2 152.9 38.85 153.9 39.95 155.55 39.95 159.55 39.95 160.55 31.9 160.9 28.9 161.55 28.15 L161.65 28.0 161.45 27.95 161.05 27.8 Q160.65 27.6 160.5 26.75 M121.9 38.5 Q122.55 39.0 123.5 39.0 125.85 39.0 127.75 35.65 129.55 32.2 129.7 27.65 L129.75 23.6 Q129.75 20.65 128.9 19.5 L129.15 19.45 132.75 17.55 Q135.1 16.4 136.6 16.4 138.45 16.4 138.45 18.45 L138.25 20.75 138.25 20.8 137.9 23.6 Q137.55 28.15 137.55 31.8 137.55 33.7 137.9 38.25 L138.45 48.5 Q138.45 60.9 127.5 60.9 122.7 60.9 120.9 58.7 119.95 57.65 119.75 56.05 L119.55 54.6 119.45 54.55 119.4 54.4 Q120.9 53.4 122.85 53.4 L124.35 53.55 126.35 53.85 127.0 53.85 Q129.15 53.85 129.95 52.55 130.75 51.15 130.75 47.65 L130.75 46.0 130.35 40.45 130.35 40.05 Q126.8 46.15 121.7 46.15 118.25 46.15 116.5 44.35 115.85 43.7 115.25 42.45 L114.2 39.6 Q113.2 36.2 113.2 33.25 L113.6 24.85 113.6 24.55 113.6 24.45 Q113.5 20.9 112.1 20.15 L115.35 17.65 Q117.65 15.9 119.6 15.9 121.95 15.9 121.95 18.55 L121.8 20.35 121.45 23.25 120.8 27.45 Q120.45 30.25 120.45 33.7 120.45 37.35 121.9 38.5 M106.8 6.6 L106.2 10.65 Q105.0 17.85 104.25 24.35 103.55 30.95 103.55 33.1 103.55 37.05 105.05 38.75 106.15 39.95 108.0 39.95 109.4 39.95 110.45 39.25 110.75 39.65 110.75 40.55 110.75 42.8 109.65 44.35 L108.85 45.2 Q107.0 46.85 103.9 46.85 99.2 46.85 97.1 43.7 L97.05 43.6 Q95.5 41.1 95.5 35.9 L95.55 34.1 Q95.75 28.5 96.55 20.65 97.35 12.0 97.35 9.45 97.35 7.25 96.55 5.75 L96.9 5.7 99.75 3.6 Q102.05 2.0 104.05 2.0 106.85 2.0 106.85 5.3 L106.8 6.6 M90.0 9.0 Q89.5 10.55 87.7 11.8 85.05 13.75 82.0 13.75 L80.0 13.3 79.35 12.9 Q78.25 11.95 78.25 10.65 L78.25 10.35 Q78.25 7.75 81.8 5.55 84.05 4.15 86.1 4.15 90.15 4.15 90.15 7.7 L90.0 9.0 M83.6 18.05 Q85.1 17.3 86.5 17.3 L87.0 17.35 Q88.55 17.6 88.55 19.45 L88.4 21.65 88.2 22.95 87.7 27.65 87.5 33.5 Q87.5 41.1 89.35 43.85 L89.65 44.25 89.45 44.35 87.05 45.6 Q85.6 46.4 83.45 46.4 81.9 46.4 80.95 45.55 79.5 44.2 79.5 40.75 L79.65 35.85 79.7 29.75 Q79.7 22.25 78.5 20.8 L78.85 20.75 Q79.7 20.5 82.45 18.7 83.05 18.3 83.6 18.05 M48.0 40.65 Q46.3 37.4 46.3 33.2 46.3 26.35 50.6 21.0 55.0 15.6 60.55 15.6 66.25 15.6 68.35 20.75 69.15 22.85 69.35 24.1 L69.4 24.7 Q69.4 25.55 68.75 26.35 L70.0 26.2 70.25 26.2 Q71.5 26.25 71.5 27.15 L71.35 28.35 70.8 30.3 70.75 30.6 Q70.2 32.75 70.2 35.35 70.2 38.8 71.65 39.95 72.4 40.55 73.5 40.55 74.95 40.55 75.9 39.45 L76.2 40.8 Q76.2 43.35 74.65 44.9 L74.6 44.95 Q73.0 46.65 70.65 46.65 65.95 46.65 64.5 41.45 61.65 46.5 56.45 46.5 52.2 46.5 49.25 42.6 L48.0 40.65 M41.15 18.35 Q41.7 20.95 41.7 23.9 41.7 34.0 35.5 40.55 29.25 47.05 19.65 47.05 11.75 47.05 8.6 43.3 L8.2 42.8 Q7.45 41.7 7.2 40.75 6.4 37.85 6.4 31.55 6.4 27.45 7.4 16.2 L7.55 15.05 8.05 10.3 Q6.1 10.6 4.4 11.35 3.4 11.75 2.45 12.3 2.0 11.0 2.0 9.95 2.0 6.5 6.4 4.3 10.75 2.15 17.85 2.15 28.8 2.15 35.3 8.05 39.8 12.2 41.15 18.35 M62.5 26.6 L62.5 25.1 Q62.5 23.75 61.65 22.8 60.8 21.8 59.7 21.8 57.3 21.8 55.5 25.2 53.7 28.65 53.7 33.05 53.7 36.3 54.8 38.15 L55.2 38.75 Q56.2 40.05 57.75 40.05 61.4 40.05 62.65 32.1 L63.2 28.95 63.7 28.1 63.8 28.0 63.65 28.0 Q62.55 27.8 62.5 26.6 M32.0 20.5 Q31.25 16.4 28.9 13.7 25.35 9.65 19.4 9.65 L16.8 9.85 Q16.55 11.25 16.05 16.7 L15.8 20.65 Q15.35 26.9 15.35 31.1 15.35 35.65 15.85 37.35 16.15 38.5 16.95 39.25 18.2 40.45 20.75 40.45 25.7 40.45 29.0 35.9 32.35 31.3 32.35 24.5 32.35 22.35 32.0 20.5" fill="url(#gradient0)" fill-rule="evenodd" stroke="none"/>
    <path d="M403.9 45.2 Q401.8 46.7 399.05 46.7 395.1 46.7 393.3 43.75 391.7 41.1 391.7 36.3 L391.95 30.7 M377.75 46.0 Q376.2 45.85 376.2 43.95 L376.4 40.45 377.0 31.8 M361.3 45.75 L360.85 45.1 Q359.8 43.4 359.8 40.6 L359.95 36.15 360.2 28.95 Q360.2 23.4 359.7 20.45 359.45 19.2 358.85 18.2 L359.2 18.15 361.95 16.4 Q364.3 14.7 366.5 14.7 368.8 14.7 368.8 17.35 L368.7 19.1 M370.0 24.4 Q374.2 19.15 378.6 19.15 382.7 19.15 383.9 25.05 L384.0 25.4 Q385.05 23.3 388.15 20.35 390.45 18.15 394.2 18.15 399.55 18.15 400.25 24.5 M401.65 40.55 L403.15 40.9 Q405.15 40.9 406.6 39.45 L406.65 39.95 Q406.65 42.75 404.45 44.75 L403.9 45.2 M370.0 24.4 L367.9 27.35 367.9 27.05 Q367.9 24.85 368.45 21.1 L368.7 19.1 M361.3 45.75 Q362.2 46.9 363.55 46.9 365.4 46.9 367.5 44.85 368.35 44.05 368.35 43.3 L368.3 42.1 368.15 41.05 Q368.15 35.7 372.55 29.75 374.1 27.5 375.4 27.5 377.0 27.5 377.0 31.4 L377.0 31.8 M377.75 46.0 L378.0 46.0 Q378.85 46.0 381.05 45.2 L383.4 44.2 Q384.5 43.6 384.5 42.05 L384.4 40.3 Q384.4 39.65 384.75 37.3 385.15 34.7 385.5 33.35 386.35 30.3 388.35 27.95 389.65 26.35 390.8 26.35 392.05 26.35 392.05 28.35 L391.95 30.7 M401.65 40.55 Q400.6 39.9 400.3 38.3 L400.2 35.0 400.2 31.4 400.3 26.3 400.25 24.5 M326.85 39.7 Q325.1 36.25 325.1 31.8 325.1 28.0 326.65 24.55 328.35 21.15 330.65 20.0 L330.05 18.45 Q331.2 17.15 333.75 16.2 336.3 15.25 338.55 15.25 344.65 15.25 348.65 19.85 351.4 23.05 352.25 27.45 M326.85 39.7 Q327.75 41.4 329.05 42.9 332.95 47.15 339.05 47.15 345.15 47.15 348.9 42.9 352.6 38.6 352.6 31.55 352.6 29.4 352.25 27.45 M344.7 29.85 Q344.3 27.25 343.1 25.2 341.3 22.1 338.7 22.1 336.3 22.1 334.9 24.4 333.45 26.65 333.45 30.4 333.45 34.85 335.15 37.75 M344.7 29.85 L344.9 32.75 Q344.9 40.8 339.75 40.8 336.95 40.8 335.25 37.95 L335.15 37.75 M321.0 22.5 L321.0 22.15 Q321.0 19.15 318.45 17.15 316.0 15.1 312.25 15.1 306.35 15.1 302.2 20.15 298.1 25.2 298.1 32.45 298.1 37.35 299.9 40.7 300.55 42.0 301.55 43.15 305.0 47.05 311.1 47.05 315.8 47.05 318.95 44.6 320.35 43.45 321.15 42.05 322.05 40.4 322.05 38.45 322.05 36.8 321.05 35.85 320.05 37.85 317.55 39.4 315.0 40.75 312.5 40.75 309.55 40.75 307.8 38.35 L307.6 38.1 Q306.1 35.75 306.1 31.8 306.1 27.7 307.65 25.0 309.3 22.25 311.7 22.25 313.15 22.25 314.3 23.45 315.3 24.7 315.3 26.35 L315.2 26.85 316.6 27.05 Q318.45 27.05 319.7 25.65 320.9 24.35 321.0 22.5 M285.5 46.3 L285.05 46.0 Q283.75 45.05 283.75 43.4 283.75 41.3 286.0 39.8 288.2 38.25 291.1 38.25 293.2 38.25 294.5 39.25 295.8 40.25 295.8 41.85 L295.55 43.35 M285.5 46.3 Q286.65 47.0 288.45 47.0 291.55 47.0 293.7 45.55 295.05 44.55 295.55 43.35 M276.2 22.8 L276.2 23.4 Q276.2 27.2 272.8 30.5 269.5 33.7 264.15 35.05 264.65 37.85 266.1 39.3 M276.2 22.8 Q276.0 19.5 273.75 17.3 271.25 14.9 267.55 14.9 262.45 14.9 258.85 19.65 255.15 24.4 255.15 31.25 255.15 36.15 257.0 39.8 257.7 41.25 258.75 42.55 262.35 46.9 268.0 46.9 272.25 46.9 275.35 44.45 L276.35 43.6 Q278.5 41.5 278.5 38.9 278.5 37.45 277.95 36.5 276.55 38.35 274.35 39.6 272.0 40.75 269.95 40.75 267.55 40.75 266.1 39.3 M269.4 25.8 L269.65 24.2 Q269.65 21.4 267.15 21.4 265.45 21.4 264.25 23.25 263.0 25.1 263.0 27.65 263.0 28.8 263.4 30.1 L264.75 29.7 M269.4 25.8 Q268.55 28.35 264.75 29.7 M247.65 24.5 L247.7 26.3 247.55 31.4 247.55 35.0 Q247.55 37.0 247.7 38.3 247.95 39.95 249.05 40.55 L250.5 40.9 Q252.5 40.9 253.95 39.45 L254.0 39.95 Q254.0 42.75 251.8 44.75 L251.25 45.2 M240.7 43.85 Q239.05 41.2 239.05 36.3 L239.3 30.7 M225.1 46.0 Q223.55 45.85 223.55 43.95 L223.8 40.45 224.35 31.8 M208.65 45.7 L208.25 45.1 Q207.15 43.4 207.15 40.6 L207.3 36.15 207.6 28.95 Q207.6 23.4 207.1 20.45 L206.2 18.2 206.55 18.15 209.3 16.4 Q211.7 14.7 213.85 14.7 216.15 14.7 216.15 17.35 L216.05 19.1 M217.4 24.4 Q221.55 19.15 225.95 19.15 230.05 19.15 231.25 25.05 L231.35 25.4 Q232.4 23.3 235.5 20.35 237.8 18.15 241.55 18.15 246.95 18.15 247.65 24.5 M240.7 43.85 Q242.55 46.7 246.4 46.7 249.15 46.7 251.25 45.2 M217.4 24.4 L215.3 27.35 215.3 27.05 Q215.3 24.85 215.8 21.1 L216.05 19.1 M200.1 39.95 Q200.85 40.55 201.95 40.55 203.4 40.55 204.35 39.45 L204.65 40.8 Q204.65 43.35 203.1 44.9 L203.05 44.95 Q201.45 46.65 199.1 46.65 194.4 46.65 192.95 41.45 190.1 46.5 184.9 46.5 180.65 46.5 177.7 42.6 L176.45 40.65 Q174.75 37.4 174.75 33.2 174.75 26.35 179.05 21.0 183.45 15.6 189.0 15.6 194.7 15.6 196.8 20.75 L197.85 24.2 197.85 24.7 Q197.85 25.55 197.2 26.35 L198.45 26.2 198.65 26.2 Q199.95 26.25 199.95 27.15 L199.8 28.35 199.25 30.3 199.2 30.6 M200.1 39.95 Q198.65 38.8 198.65 35.35 198.65 32.75 199.2 30.6 M208.65 45.7 Q209.55 46.9 210.9 46.9 212.75 46.9 214.85 44.85 215.7 44.05 215.7 43.3 L215.65 42.1 215.5 41.05 Q215.5 35.7 219.9 29.75 221.5 27.5 222.75 27.5 224.35 27.5 224.35 31.4 L224.35 31.8 M225.1 46.0 L225.35 46.0 Q226.25 46.0 228.4 45.2 L230.75 44.2 Q231.85 43.6 231.85 42.05 L231.75 40.3 232.15 37.3 232.85 33.35 Q233.7 30.3 235.75 27.95 237.05 26.35 238.2 26.35 239.4 26.35 239.4 28.35 L239.3 30.7 M190.95 26.6 L190.95 25.1 Q190.95 23.75 190.1 22.8 189.2 21.8 188.15 21.8 185.75 21.8 183.95 25.2 182.15 28.65 182.15 33.05 182.15 36.3 183.25 38.15 L183.65 38.75 M190.95 26.6 Q191.0 27.8 192.1 28.0 L192.25 28.0 192.15 28.1 191.65 28.95 191.1 32.1 Q189.85 40.05 186.2 40.05 184.65 40.05 183.65 38.75 M145.6 41.25 Q143.85 37.95 143.85 33.55 143.85 26.2 148.25 20.75 152.5 15.25 158.25 15.25 161.15 15.25 163.0 16.7 164.65 17.85 165.95 20.3 167.2 22.65 167.25 24.35 M168.2 26.3 Q169.4 26.3 169.4 27.45 L168.75 30.15 168.6 30.65 168.2 32.85 Q167.85 36.0 167.85 40.25 L167.85 41.05 167.85 44.05 167.9 46.15 167.9 47.95 167.7 53.35 Q167.2 56.35 165.6 58.3 163.3 60.95 158.5 60.95 154.4 60.95 151.6 58.85 L150.2 57.55 148.7 55.9 148.25 55.65 150.85 54.1 Q152.2 53.4 153.2 53.4 L155.8 53.95 157.4 54.35 Q160.3 54.35 160.55 49.25 M145.6 41.25 L146.6 42.9 Q149.25 46.55 153.35 46.55 157.25 46.55 160.55 43.9 L160.55 44.45 160.55 46.55 160.55 48.35 160.55 49.25 M168.2 26.3 L168.15 26.3 166.9 26.35 166.6 26.35 167.25 24.4 167.25 24.35 M160.5 26.75 L160.4 25.5 Q160.4 23.95 159.65 23.05 158.9 22.05 157.85 22.05 155.25 22.05 153.35 25.35 151.4 28.6 151.4 33.05 151.4 37.2 152.9 38.85 M160.5 26.75 Q160.65 27.6 161.05 27.8 L161.45 27.95 161.65 28.0 161.55 28.15 Q160.9 28.9 160.55 31.9 159.55 39.95 155.55 39.95 153.9 39.95 152.9 38.85 M121.9 38.5 Q122.55 39.0 123.5 39.0 125.85 39.0 127.75 35.65 129.55 32.2 129.7 27.65 L129.75 23.6 Q129.75 20.65 128.9 19.5 L129.15 19.45 132.75 17.55 Q135.1 16.4 136.6 16.4 138.45 16.4 138.45 18.45 L138.25 20.75 M120.9 58.7 Q119.95 57.65 119.75 56.05 L119.55 54.6 119.45 54.55 119.4 54.4 Q120.9 53.4 122.85 53.4 L124.35 53.55 126.35 53.85 127.0 53.85 Q129.15 53.85 129.95 52.55 130.75 51.15 130.75 47.65 L130.75 46.0 M115.25 42.45 L114.2 39.6 Q113.2 36.2 113.2 33.25 L113.6 24.85 113.6 24.55 M113.6 24.45 Q113.5 20.9 112.1 20.15 L115.35 17.65 Q117.65 15.9 119.6 15.9 121.95 15.9 121.95 18.55 L121.8 20.35 121.45 23.25 120.8 27.45 Q120.45 30.25 120.45 33.7 120.45 37.35 121.9 38.5 M120.9 58.7 Q122.7 60.9 127.5 60.9 138.45 60.9 138.45 48.5 L137.9 38.25 Q137.55 33.7 137.55 31.8 137.55 28.15 137.9 23.6 L138.25 20.8 138.25 20.75 M115.25 42.45 Q115.85 43.7 116.5 44.35 118.25 46.15 121.7 46.15 126.8 46.15 130.35 40.05 L130.35 40.45 130.75 46.0 M105.05 38.75 Q103.55 37.05 103.55 33.1 103.55 30.95 104.25 24.35 105.0 17.85 106.2 10.65 L106.8 6.6 106.85 5.3 Q106.85 2.0 104.05 2.0 102.05 2.0 99.75 3.6 L96.9 5.7 96.55 5.75 Q97.35 7.25 97.35 9.45 97.35 12.0 96.55 20.65 95.75 28.5 95.55 34.1 L95.5 35.9 Q95.5 41.1 97.05 43.6 L97.1 43.7 Q99.2 46.85 103.9 46.85 107.0 46.85 108.85 45.2 L109.65 44.35 Q110.75 42.8 110.75 40.55 110.75 39.65 110.45 39.25 109.4 39.95 108.0 39.95 106.15 39.95 105.05 38.75 M113.6 24.45 L113.6 24.55 M80.0 13.3 L82.0 13.75 Q85.05 13.75 87.7 11.8 89.5 10.55 90.0 9.0 L90.15 7.7 Q90.15 4.15 86.1 4.15 84.05 4.15 81.8 5.55 78.25 7.75 78.25 10.35 L78.25 10.65 Q78.25 11.95 79.35 12.9 L80.0 13.3 M83.6 18.05 Q85.1 17.3 86.5 17.3 L87.0 17.35 Q88.55 17.6 88.55 19.45 L88.4 21.65 88.2 22.95 87.7 27.65 87.5 33.5 Q87.5 41.1 89.35 43.85 L89.65 44.25 89.45 44.35 87.05 45.6 Q85.6 46.4 83.45 46.4 81.9 46.4 80.95 45.55 79.5 44.2 79.5 40.75 L79.65 35.85 79.7 29.75 Q79.7 22.25 78.5 20.8 L78.85 20.75 Q79.7 20.5 82.45 18.7 83.05 18.3 83.6 18.05 M48.0 40.65 Q46.3 37.4 46.3 33.2 46.3 26.35 50.6 21.0 55.0 15.6 60.55 15.6 66.25 15.6 68.35 20.75 69.15 22.85 69.35 24.1 L69.4 24.7 Q69.4 25.55 68.75 26.35 L70.0 26.2 70.25 26.2 Q71.5 26.25 71.5 27.15 L71.35 28.35 70.8 30.3 70.75 30.6 Q70.2 32.75 70.2 35.35 70.2 38.8 71.65 39.95 72.4 40.55 73.5 40.55 74.95 40.55 75.9 39.45 L76.2 40.8 Q76.2 43.35 74.65 44.9 M48.0 40.65 L49.25 42.6 Q52.2 46.5 56.45 46.5 61.65 46.5 64.5 41.45 65.95 46.65 70.65 46.65 73.0 46.65 74.6 44.95 L74.65 44.9 M41.15 18.35 Q41.7 20.95 41.7 23.9 41.7 34.0 35.5 40.55 29.25 47.05 19.65 47.05 11.75 47.05 8.6 43.3 L8.2 42.8 M41.15 18.35 Q39.8 12.2 35.3 8.05 28.8 2.15 17.85 2.15 10.75 2.15 6.4 4.3 2.0 6.5 2.0 9.95 2.0 11.0 2.45 12.3 3.4 11.75 4.4 11.35 6.1 10.6 8.05 10.3 L7.55 15.05 7.4 16.2 Q6.4 27.45 6.4 31.55 6.4 37.85 7.2 40.75 7.45 41.7 8.2 42.8 M62.5 26.6 L62.5 25.1 Q62.5 23.75 61.65 22.8 60.8 21.8 59.7 21.8 57.3 21.8 55.5 25.2 53.7 28.65 53.7 33.05 53.7 36.3 54.8 38.15 L55.2 38.75 M62.5 26.6 Q62.55 27.8 63.65 28.0 L63.8 28.0 63.7 28.1 63.2 28.95 62.65 32.1 Q61.4 40.05 57.75 40.05 56.2 40.05 55.2 38.75 M32.0 20.5 Q31.25 16.4 28.9 13.7 25.35 9.65 19.4 9.65 L16.8 9.85 Q16.55 11.25 16.05 16.7 L15.8 20.65 Q15.35 26.9 15.35 31.1 15.35 35.65 15.85 37.35 16.15 38.5 16.95 39.25 M32.0 20.5 Q32.35 22.35 32.35 24.5 32.35 31.3 29.0 35.9 25.7 40.45 20.75 40.45 18.2 40.45 16.95 39.25" fill="none" stroke="#ffffff" stroke-linecap="round" stroke-linejoin="round" stroke-width="1.0"/>
  </g>
  <defs>
    <linearGradient gradientTransform="matrix(0.0, -0.0276, 0.0274, 0.0, 21.8, 24.55)" gradientUnits="userSpaceOnUse" id="gradient0" spreadMethod="pad" x1="-819.2" x2="819.2">
      <stop offset="0.00392156862745098" stop-color="#e1e1e1"/>
      <stop offset="1.0" stop-color="#ffffff"/>
    </linearGradient>
  </defs>
</svg>
