<?xml version="1.0" encoding="UTF-8" standalone="no"?>
<svg xmlns:xlink="http://www.w3.org/1999/xlink" height="12.7px" width="12.4px" xmlns="http://www.w3.org/2000/svg">
  <g transform="matrix(1.0, 0.0, 0.0, 1.0, -65.7, -22.8)">
    <path d="M72.35 33.85 L75.85 33.5 72.1 33.65 75.2 31.65 72.2 32.25 74.0 29.7 71.4 30.9 72.5 28.5 69.15 32.0 69.85 27.15 65.7 35.5 Q69.25 27.6 70.6 23.55 L70.15 29.7 76.7 22.8 72.65 29.8 76.8 27.55 73.05 31.7 76.9 30.4 74.55 32.9 78.1 33.4 72.35 33.85" fill="#ff9900" fill-rule="evenodd" stroke="none"/>
    <path d="M65.7 35.5 L69.85 27.15 69.15 32.0 72.5 28.5 71.4 30.9 74.0 29.7 72.2 32.25 75.2 31.65 72.1 33.65 75.85 33.5 72.35 33.85 69.65 34.3 73.45 32.5 70.55 33.05 72.6 30.9 69.45 33.3 71.55 29.65 68.1 34.2 68.9 30.45 65.7 35.5" fill="#ff6600" fill-rule="evenodd" stroke="none"/>
  </g>
</svg>
