<?xml version="1.0" encoding="UTF-8" standalone="no"?>
<svg xmlns:xlink="http://www.w3.org/1999/xlink" height="75.35px" width="73.9px" xmlns="http://www.w3.org/2000/svg">
  <g transform="matrix(1.0, 0.0, 0.0, 1.0, -488.8, -118.6)">
    <path d="M543.0 125.0 L543.1 128.65 541.35 131.65 Q545.15 134.1 547.7 137.55 L553.05 133.3 Q556.9 138.45 558.75 145.1 L558.7 145.1 559.5 147.8 554.0 149.3 554.05 149.35 Q555.1 153.25 555.25 157.05 L555.25 157.65 559.9 158.1 559.85 158.35 560.7 161.35 Q560.15 165.6 558.6 169.75 L557.75 171.75 556.25 174.4 551.35 171.55 551.25 171.75 551.0 172.1 Q548.75 175.95 545.85 178.85 L547.2 180.55 547.15 180.7 547.35 184.5 547.5 184.7 Q543.5 187.95 538.5 189.9 L536.95 190.45 535.2 190.95 535.15 190.95 533.7 185.55 533.55 185.6 533.5 185.6 Q527.95 187.15 522.4 186.65 L522.4 187.55 521.55 191.95 Q514.95 191.2 508.65 187.7 L508.6 187.65 508.8 187.3 509.95 183.35 510.45 182.55 Q508.35 181.25 506.5 179.6 L502.6 175.4 502.55 175.35 502.45 175.35 498.25 178.65 498.1 178.7 Q493.9 173.55 492.0 166.6 L491.95 166.45 492.1 166.4 494.0 162.95 496.8 162.2 496.5 160.2 Q496.15 157.35 496.55 154.25 L496.55 153.6 496.55 153.45 496.5 153.45 490.8 152.75 490.9 152.6 Q490.95 151.55 491.25 150.55 L491.45 149.45 Q492.55 144.65 495.2 139.95 L495.3 139.75 495.35 139.75 497.05 137.7 497.2 137.5 497.3 137.5 501.85 140.05 Q504.3 136.55 507.45 134.15 L507.85 133.85 504.65 129.9 505.75 127.45 Q510.85 123.6 517.5 121.75 L519.25 128.1 Q524.5 126.65 529.45 127.35 L529.75 127.35 530.5 120.6 Q536.95 121.45 543.05 124.85 L543.0 125.0 M519.5 151.2 Q517.95 152.4 517.0 154.2 L516.55 155.15 516.8 156.7 517.8 159.3 518.6 160.35 519.95 161.75 521.5 162.85 Q523.35 164.0 525.3 164.2 L529.1 163.8 529.7 163.65 Q531.35 163.1 532.75 162.0 534.3 160.9 535.2 159.1 L535.8 158.15 535.4 156.45 Q534.85 154.5 533.7 152.85 L533.45 152.6 Q532.35 151.3 530.7 150.4 528.85 149.4 526.95 149.15 L523.05 149.4 Q521.05 149.95 519.5 151.2" fill="#b1c4cb" fill-rule="evenodd" stroke="none"/>
    <path d="M543.0 125.0 L543.1 128.65 541.35 131.65 Q545.15 134.1 547.7 137.55 L553.05 133.3 Q556.9 138.45 558.75 145.1 L558.7 145.1 559.5 147.8 554.0 149.3 554.05 149.35 Q555.1 153.25 555.25 157.05 L555.25 157.65 559.9 158.1 559.85 158.35 560.7 161.35 Q560.15 165.6 558.6 169.75 L557.75 171.75 556.25 174.4 551.35 171.55 551.25 171.75 551.0 172.1 Q548.75 175.95 545.85 178.85 L547.2 180.55 547.15 180.7 547.35 184.5 547.5 184.7 Q543.5 187.95 538.5 189.9 L536.95 190.45 535.2 190.95 535.15 190.95 533.7 185.55 533.55 185.6 533.5 185.6 Q527.95 187.15 522.4 186.65 L522.4 187.55 521.55 191.95 Q514.95 191.2 508.65 187.7 L508.6 187.65 508.8 187.3 509.95 183.35 510.45 182.55 Q508.35 181.25 506.5 179.6 L502.6 175.4 502.55 175.35 502.45 175.35 498.25 178.65 498.1 178.7 Q493.9 173.55 492.0 166.6 L491.95 166.45 492.1 166.4 494.0 162.95 496.8 162.2 496.5 160.2 Q496.15 157.35 496.55 154.25 L496.55 153.6 496.55 153.45 496.5 153.45 490.8 152.75 490.9 152.6 Q490.95 151.55 491.25 150.55 L491.45 149.45 Q492.55 144.65 495.2 139.95 L495.3 139.75 495.35 139.75 497.05 137.7 497.2 137.5 497.3 137.5 501.85 140.05 Q504.3 136.55 507.45 134.15 L507.85 133.85 504.65 129.9 505.75 127.45 Q510.85 123.6 517.5 121.75 L519.25 128.1 Q524.5 126.65 529.45 127.35 L529.75 127.35 530.5 120.6 Q536.95 121.45 543.05 124.85 L543.0 125.0 M519.5 151.2 Q521.05 149.95 523.05 149.4 L526.95 149.15 Q528.85 149.4 530.7 150.4 532.35 151.3 533.45 152.6 L533.7 152.85 Q534.85 154.5 535.4 156.45 L535.8 158.15 535.2 159.1 Q534.3 160.9 532.75 162.0 531.35 163.1 529.7 163.65 L529.1 163.8 525.3 164.2 Q523.35 164.0 521.5 162.85 L519.95 161.75 518.6 160.35 517.8 159.3 516.8 156.7 516.55 155.15 517.0 154.2 Q517.95 152.4 519.5 151.2" fill="none" stroke="#005c8e" stroke-linecap="round" stroke-linejoin="round" stroke-width="4.0"/>
    <path d="M541.35 131.7 Q545.15 134.2 547.7 137.6 L553.05 133.4 Q556.95 138.5 558.8 145.2 L558.75 145.2 552.3 147.0 552.35 147.1 552.45 147.5 Q546.15 147.25 540.25 149.65 L537.25 150.8 Q536.65 149.15 535.7 148.0 534.25 146.15 532.05 144.9 530.05 143.65 527.8 143.4 L523.15 143.8 Q520.8 144.45 518.95 145.85 517.15 147.2 515.95 149.35 L515.9 149.35 Q514.85 151.5 514.65 153.85 514.4 155.1 514.55 156.45 L514.9 158.3 515.5 159.95 Q508.55 161.85 502.35 158.1 L501.35 157.5 499.75 156.25 499.7 156.1 Q499.45 154.05 499.6 152.05 L499.75 150.85 493.05 150.0 493.0 150.0 493.1 149.9 493.45 147.9 Q494.2 144.05 496.0 140.1 L497.1 137.8 497.25 137.6 497.35 137.6 501.85 140.15 503.15 140.85 503.9 139.8 Q505.65 136.65 508.15 134.45 L508.95 133.85 509.95 133.0 509.95 132.9 505.8 127.5 Q510.9 123.65 517.55 121.8 L519.3 128.2 Q524.55 126.75 529.45 127.45 L529.8 127.4 530.55 120.65 Q537.0 121.55 543.1 124.95 L543.05 125.1 539.75 130.75 540.6 131.2 541.35 131.7" fill="#bbd4de" fill-rule="evenodd" stroke="none"/>
    <path d="M543.05 125.1 L543.1 128.75 541.35 131.7 540.6 131.2 539.75 130.75 543.05 125.1 M554.05 149.35 L554.05 149.45 Q555.15 153.35 555.25 157.15 L555.25 157.7 553.3 157.35 553.5 154.5 553.25 151.05 553.05 149.65 552.95 149.3 552.45 147.5 552.35 147.1 554.05 149.35 M559.9 158.4 L559.9 158.45 560.7 161.4 Q560.15 165.7 558.6 169.8 L557.75 171.85 556.3 174.5 555.55 170.65 555.75 170.7 Q557.55 167.45 558.7 164.05 L559.4 161.2 559.85 158.3 559.9 158.4 M551.35 171.75 L551.25 171.8 551.05 172.2 Q548.75 176.0 545.9 178.95 L543.15 175.45 Q547.25 172.2 549.9 167.45 L551.35 171.75 M547.15 180.75 L547.35 184.6 547.5 184.8 Q543.5 188.0 538.5 189.95 L537.0 190.5 535.25 191.0 535.4 186.5 Q540.3 185.15 544.5 182.75 L545.4 182.1 547.15 180.75 M533.55 185.7 L533.5 185.7 Q527.95 187.25 522.45 186.7 L523.2 180.95 Q528.4 181.6 533.65 180.1 L533.65 180.15 533.55 185.7 M510.5 182.6 Q508.35 181.35 506.55 179.65 504.25 177.65 502.65 175.5 L505.25 170.65 506.9 172.7 Q509.55 175.55 513.2 177.5 L510.5 182.6 M498.3 178.75 L498.15 178.8 Q493.95 173.6 492.05 166.65 L492.0 166.5 492.15 166.45 494.05 163.05 494.9 165.7 Q496.1 168.95 497.8 171.85 L499.9 174.9 498.3 178.75 M496.85 162.3 Q496.6 161.35 496.5 160.25 496.2 157.4 496.6 154.3 L496.55 153.7 496.6 153.55 496.55 153.55 499.75 150.85 499.6 152.05 Q499.45 154.05 499.7 156.1 L499.75 156.25 Q499.9 158.7 500.6 161.25 L496.85 162.3 M490.9 152.7 Q491.0 151.65 491.25 150.65 491.3 150.05 491.5 149.55 492.6 144.75 495.2 140.05 L495.35 139.85 495.4 139.85 497.1 137.8 496.0 140.1 Q494.2 144.05 493.45 147.9 L493.1 149.9 493.0 150.0 493.05 150.0 490.9 152.7 M501.85 140.15 Q504.35 136.65 507.5 134.25 L507.85 133.95 509.95 133.0 508.95 133.85 508.15 134.45 Q505.65 136.65 503.9 139.8 L503.15 140.85 501.85 140.15" fill="#6f8891" fill-rule="evenodd" stroke="none"/>
    <path d="M516.6 155.2 Q516.4 154.05 516.55 152.95 516.7 151.0 517.7 149.15 518.75 147.3 520.35 146.2 521.8 144.9 523.75 144.35 L527.8 144.15 Q529.7 144.3 531.4 145.4 533.25 146.45 534.55 147.95 535.65 149.4 536.2 151.35 L536.2 151.45 Q536.8 153.55 536.6 155.4 536.45 156.8 535.8 158.2 L535.4 156.55 Q534.85 154.6 533.7 152.9 L533.5 152.7 Q532.35 151.35 530.75 150.5 528.9 149.5 527.0 149.2 L523.05 149.5 Q521.05 150.05 519.55 151.25 518.0 152.5 517.05 154.3 516.65 154.7 516.6 155.2" fill="#83979f" fill-rule="evenodd" stroke="none"/>
    <path d="M515.5 159.95 L514.9 158.3 514.55 156.45 Q514.4 155.1 514.65 153.85 514.85 151.5 515.9 149.35 L515.95 149.35 Q517.15 147.2 518.95 145.85 520.8 144.45 523.15 143.8 L527.8 143.4 Q530.05 143.65 532.05 144.9 534.25 146.15 535.7 148.0 536.65 149.15 537.25 150.8 L537.65 152.0 Q538.35 154.5 538.1 156.7 537.95 158.3 537.25 160.0 L536.5 161.15 Q535.5 163.25 533.75 164.55 532.1 165.8 530.15 166.5 L529.5 166.7 524.8 167.1 Q522.6 166.85 520.35 165.6 L518.6 164.2 517.05 162.55 Q516.15 161.4 515.5 159.95 M535.8 158.2 Q536.45 156.8 536.6 155.4 536.8 153.55 536.2 151.45 L536.2 151.35 Q535.65 149.4 534.55 147.95 533.25 146.45 531.4 145.4 529.7 144.3 527.8 144.15 L523.75 144.35 Q521.8 144.9 520.35 146.2 518.75 147.3 517.7 149.15 516.7 151.0 516.55 152.95 516.4 154.05 516.6 155.2 516.65 156.05 516.85 156.8 L517.85 159.35 518.6 160.4 519.95 161.85 Q520.7 162.5 521.5 162.95 523.4 164.05 525.3 164.25 L529.15 163.85 529.75 163.7 Q531.4 163.2 532.8 162.1 534.3 161.0 535.2 159.2 L535.8 158.2" fill="#d5eef7" fill-rule="evenodd" stroke="none"/>
    <path d="M558.75 145.2 L559.55 147.85 554.05 149.35 552.35 147.1 552.3 147.0 558.75 145.2 M556.3 174.5 L551.35 171.6 551.35 171.75 549.9 167.45 549.85 167.35 555.55 170.65 556.3 174.5 M535.25 191.0 L535.2 191.0 533.7 185.65 533.55 185.7 533.65 180.15 535.4 186.5 535.25 191.0 M522.4 187.55 L522.4 187.6 521.6 192.0 Q515.0 191.3 508.7 187.75 L508.6 187.75 508.85 187.35 510.0 183.4 510.7 183.8 Q516.3 186.8 522.4 187.55 M502.65 175.5 L502.6 175.45 502.45 175.4 498.3 178.75 499.9 174.9 505.25 170.65 502.65 175.5 M496.55 153.55 L490.85 152.85 490.9 152.7 493.05 150.0 499.75 150.85 496.55 153.55 M507.85 133.95 L504.65 130.0 505.8 127.5 509.95 132.9 509.95 133.0 507.85 133.95" fill="#516870" fill-rule="evenodd" stroke="none"/>
    <path d="M555.25 157.7 L559.9 158.15 559.9 158.4 559.85 158.3 559.4 161.2 558.7 164.05 Q557.55 167.45 555.75 170.7 L555.55 170.65 549.85 167.35 549.9 167.45 Q547.25 172.2 543.15 175.45 L545.9 178.95 547.25 180.65 547.15 180.75 545.4 182.1 544.5 182.75 Q540.3 185.15 535.4 186.5 L533.65 180.15 533.65 180.1 Q528.4 181.6 523.2 180.95 L522.45 186.7 522.4 187.55 Q516.3 186.8 510.7 183.8 L510.0 183.4 510.5 182.6 513.2 177.5 Q509.55 175.55 506.9 172.7 L505.25 170.65 499.9 174.9 497.8 171.85 Q496.1 168.95 494.9 165.7 L494.05 163.05 496.85 162.3 500.6 161.25 Q499.9 158.7 499.75 156.25 L501.35 157.5 502.35 158.1 Q508.55 161.85 515.5 159.95 516.15 161.4 517.05 162.55 L518.6 164.2 520.35 165.6 Q522.6 166.85 524.8 167.1 L529.5 166.7 530.15 166.5 Q532.1 165.8 533.75 164.55 535.5 163.25 536.5 161.15 L537.25 160.0 Q537.95 158.3 538.1 156.7 538.35 154.5 537.65 152.0 L537.25 150.8 540.25 149.65 Q546.15 147.25 552.45 147.5 L552.95 149.3 553.05 149.65 553.25 151.05 553.5 154.5 553.3 157.35 555.25 157.7" fill="#b1c4cb" fill-rule="evenodd" stroke="none"/>
  </g>
</svg>
