<?xml version="1.0" encoding="UTF-8" standalone="no"?>
<svg xmlns:xlink="http://www.w3.org/1999/xlink" height="384.9px" width="585.1px" xmlns="http://www.w3.org/2000/svg">
  <g transform="matrix(1.0, 0.0, 0.0, 1.0, -13.6, -52.6)">
    <path d="M583.45 77.4 L583.55 77.3 592.1 77.9 592.1 78.0 595.7 85.4 595.75 85.55 591.0 92.6 590.95 92.6 582.5 91.95 578.8 84.45 578.75 84.3 583.45 77.4" fill="url(#gradient0)" fill-rule="evenodd" stroke="none"/>
    <path d="M581.55 75.75 L583.45 77.4 578.75 84.3 578.8 84.45 575.05 85.4 575.0 85.3 581.55 75.75" fill="#44c1f7" fill-rule="evenodd" stroke="none"/>
    <path d="M583.45 77.4 L581.55 75.75 581.65 75.45 593.55 76.35 593.6 76.45 592.1 78.0 592.1 77.9 583.55 77.3 583.45 77.4" fill="#03429e" fill-rule="evenodd" stroke="none"/>
    <path d="M575.05 85.4 L578.8 84.45 582.5 91.95 580.35 95.95 580.15 95.95 575.05 85.4" fill="#0993ee" fill-rule="evenodd" stroke="none"/>
    <path d="M580.35 95.95 L582.5 91.95 590.95 92.6 592.05 96.85 592.0 96.9 580.35 95.95" fill="#054e94" fill-rule="evenodd" stroke="none"/>
    <path d="M592.1 78.0 L593.6 76.45 598.7 87.0 592.05 96.85 590.95 92.6 591.0 92.6 595.75 85.55 595.7 85.4 592.1 78.0" fill="#0d206a" fill-rule="evenodd" stroke="none"/>
    <path d="M14.7 85.4 L14.65 85.3 21.2 75.75 23.1 77.4 18.4 84.3 18.45 84.45 14.7 85.4" fill="#44c1f7" fill-rule="evenodd" stroke="none"/>
    <path d="M20.0 95.95 L19.8 95.95 14.7 85.4 18.45 84.45 22.15 91.95 20.0 95.95" fill="#0993ee" fill-rule="evenodd" stroke="none"/>
    <path d="M18.45 84.45 L18.4 84.3 23.1 77.4 23.2 77.3 31.75 77.9 31.75 78.0 35.35 85.4 35.4 85.55 30.65 92.6 30.6 92.6 22.15 91.95 18.45 84.45" fill="url(#gradient1)" fill-rule="evenodd" stroke="none"/>
    <path d="M21.2 75.75 L21.3 75.45 33.2 76.35 33.25 76.45 31.75 78.0 31.75 77.9 23.2 77.3 23.1 77.4 21.2 75.75" fill="#03429e" fill-rule="evenodd" stroke="none"/>
    <path d="M33.25 76.45 L38.35 87.0 31.7 96.85 30.6 92.6 30.65 92.6 35.4 85.55 35.35 85.4 31.75 78.0 33.25 76.45" fill="#0d206a" fill-rule="evenodd" stroke="none"/>
    <path d="M31.7 96.85 L31.65 96.9 20.0 95.95 22.15 91.95 30.6 92.6 31.7 96.85" fill="#054e94" fill-rule="evenodd" stroke="none"/>
    <path d="M589.05 417.05 L587.55 418.6 587.55 418.5 579.0 417.9 578.9 418.0 577.0 416.35 577.1 416.05 589.0 416.95 589.05 417.05" fill="#03429e" fill-rule="evenodd" stroke="none"/>
    <path d="M587.55 418.6 L589.05 417.05 594.15 427.6 587.5 437.45 586.4 433.2 586.45 433.2 591.2 426.15 591.15 426.0 587.55 418.6" fill="#0d206a" fill-rule="evenodd" stroke="none"/>
    <path d="M578.9 418.0 L579.0 417.9 587.55 418.5 587.55 418.6 591.15 426.0 591.2 426.15 586.45 433.2 586.4 433.2 577.95 432.55 574.25 425.05 574.2 424.9 578.9 418.0" fill="url(#gradient2)" fill-rule="evenodd" stroke="none"/>
    <path d="M577.0 416.35 L578.9 418.0 574.2 424.9 574.25 425.05 570.5 426.0 570.45 425.9 577.0 416.35" fill="#44c1f7" fill-rule="evenodd" stroke="none"/>
    <path d="M570.5 426.0 L574.25 425.05 577.95 432.55 575.8 436.55 575.6 436.55 570.5 426.0" fill="#0993ee" fill-rule="evenodd" stroke="none"/>
    <path d="M586.4 433.2 L587.5 437.45 587.45 437.5 575.8 436.55 577.95 432.55 586.4 433.2" fill="#054e94" fill-rule="evenodd" stroke="none"/>
    <path d="M32.2 416.2 L30.7 417.75 30.7 417.65 22.15 417.05 22.05 417.15 20.15 415.5 20.25 415.2 32.15 416.1 32.2 416.2" fill="#03429e" fill-rule="evenodd" stroke="none"/>
    <path d="M30.7 417.75 L32.2 416.2 37.3 426.75 30.65 436.6 29.55 432.35 29.6 432.35 34.35 425.3 34.3 425.15 30.7 417.75" fill="#0d206a" fill-rule="evenodd" stroke="none"/>
    <path d="M22.05 417.15 L22.15 417.05 30.7 417.65 30.7 417.75 34.3 425.15 34.35 425.3 29.6 432.35 29.55 432.35 21.1 431.7 17.4 424.2 17.35 424.05 22.05 417.15" fill="url(#gradient3)" fill-rule="evenodd" stroke="none"/>
    <path d="M20.15 415.5 L22.05 417.15 17.35 424.05 17.4 424.2 13.65 425.15 13.6 425.05 20.15 415.5" fill="#44c1f7" fill-rule="evenodd" stroke="none"/>
    <path d="M13.65 425.15 L17.4 424.2 21.1 431.7 18.95 435.7 18.75 435.7 13.65 425.15" fill="#0993ee" fill-rule="evenodd" stroke="none"/>
    <path d="M29.55 432.35 L30.65 436.6 30.6 436.65 18.95 435.7 21.1 431.7 29.55 432.35" fill="#054e94" fill-rule="evenodd" stroke="none"/>
    <path d="M172.35 60.05 L171.8 62.0 170.45 63.3 Q172.1 65.2 173.0 67.4 L176.4 65.9 Q177.7 69.2 177.7 73.0 L177.7 74.55 174.6 74.55 Q174.6 76.8 174.1 78.85 L174.0 79.1 176.4 80.05 176.4 80.2 176.4 81.85 Q175.5 84.05 174.0 86.0 L173.3 86.95 172.1 88.15 169.9 85.95 169.85 86.0 169.7 86.15 166.0 89.0 166.45 90.1 166.4 90.1 165.9 92.2 166.0 92.3 Q163.35 93.45 160.4 93.7 L159.55 93.85 158.55 93.85 158.55 90.75 158.4 90.75 Q155.25 90.75 152.4 89.7 L151.2 92.4 Q147.8 91.0 144.95 88.25 L144.95 88.2 145.1 88.05 146.3 86.1 146.65 85.75 145.0 83.65 Q144.1 82.2 143.55 80.85 L143.5 80.8 143.5 80.75 140.75 81.9 140.65 81.9 Q139.2 78.55 139.2 74.6 L139.2 74.55 139.3 74.55 140.85 73.0 142.4 73.0 142.5 71.9 Q142.8 70.3 143.45 68.75 L143.5 68.4 143.55 68.3 143.5 68.3 140.65 67.15 140.65 67.05 141.15 66.0 141.45 65.45 Q142.75 63.05 144.8 60.95 L144.85 60.85 144.95 60.85 146.15 60.05 146.25 60.0 146.3 60.0 148.3 62.0 Q150.15 60.55 152.15 59.7 L152.4 59.6 151.3 57.05 152.25 55.9 Q155.5 54.6 159.3 54.6 L159.3 58.2 Q162.3 58.2 164.8 59.3 L165.0 59.35 166.4 55.9 Q169.65 57.3 172.35 60.0 L172.35 60.05 M163.25 73.3 L162.05 71.7 Q161.25 70.85 160.3 70.45 L158.2 70.05 156.05 70.45 154.25 71.7 153.9 72.1 153.8 73.0 153.95 74.55 154.2 75.2 154.7 76.15 155.4 76.95 Q156.25 77.85 157.25 78.2 L159.3 78.55 159.65 78.55 161.5 78.15 163.2 76.95 163.65 76.55 163.7 75.6 Q163.7 74.45 163.3 73.45 L163.25 73.3" fill="#b1c4cb" fill-rule="evenodd" stroke="none"/>
    <path d="M172.35 60.05 L171.8 62.0 170.45 63.3 Q172.1 65.2 173.0 67.4 L176.4 65.9 Q177.7 69.2 177.7 73.0 L177.7 74.55 174.6 74.55 Q174.6 76.8 174.1 78.85 L174.0 79.1 176.4 80.05 176.4 80.2 176.4 81.85 Q175.5 84.05 174.0 86.0 L173.3 86.95 172.1 88.15 169.9 85.95 169.85 86.0 169.7 86.15 166.0 89.0 166.45 90.1 166.4 90.1 165.9 92.2 166.0 92.3 Q163.35 93.45 160.4 93.7 L159.55 93.85 158.55 93.85 158.55 90.75 158.4 90.75 Q155.25 90.75 152.4 89.7 L151.2 92.4 Q147.8 91.0 144.95 88.25 L144.95 88.2 145.1 88.05 146.3 86.1 146.65 85.75 145.0 83.65 Q144.1 82.2 143.55 80.85 L143.5 80.8 143.5 80.75 140.75 81.9 140.65 81.9 Q139.2 78.55 139.2 74.6 L139.2 74.55 139.3 74.55 140.85 73.0 142.4 73.0 142.5 71.9 Q142.8 70.3 143.45 68.75 L143.5 68.4 143.55 68.3 143.5 68.3 140.65 67.15 140.65 67.05 141.15 66.0 141.45 65.45 Q142.75 63.05 144.8 60.95 L144.85 60.85 144.95 60.85 146.15 60.05 146.25 60.0 146.3 60.0 148.3 62.0 Q150.15 60.55 152.15 59.7 L152.4 59.6 151.3 57.05 152.25 55.9 Q155.5 54.6 159.3 54.6 L159.3 58.2 Q162.3 58.2 164.8 59.3 L165.0 59.35 166.4 55.9 Q169.65 57.3 172.35 60.0 L172.35 60.05 M163.25 73.3 L163.3 73.45 Q163.7 74.45 163.7 75.6 L163.65 76.55 163.2 76.95 161.5 78.15 159.65 78.55 159.3 78.55 157.25 78.2 Q156.25 77.85 155.4 76.95 L154.7 76.15 154.2 75.2 153.95 74.55 153.8 73.0 153.9 72.1 154.25 71.7 156.05 70.45 158.2 70.05 160.3 70.45 Q161.25 70.85 162.05 71.7 L163.25 73.3" fill="none" stroke="#005c8e" stroke-linecap="round" stroke-linejoin="round" stroke-width="4.0"/>
    <path d="M152.25 55.9 Q155.5 54.6 159.3 54.6 L159.3 58.25 Q162.3 58.25 164.8 59.3 L165.0 59.35 166.4 55.9 Q169.65 57.3 172.35 60.0 L172.35 60.1 169.75 62.6 170.15 62.95 170.45 63.35 Q172.1 65.2 173.0 67.4 L176.4 65.9 Q177.7 69.2 177.7 73.0 L174.0 73.0 174.0 73.1 174.0 73.3 Q170.7 72.25 167.25 72.65 L165.5 72.85 165.1 71.15 Q164.6 69.95 163.6 68.95 162.75 68.0 161.6 67.55 L159.05 67.05 Q157.75 67.05 156.55 67.55 155.4 68.0 154.45 68.95 L154.35 68.95 Q153.5 69.95 153.05 71.15 L152.65 72.5 152.55 73.55 152.65 74.5 Q148.7 74.5 145.95 71.6 L145.5 71.15 144.85 70.25 144.85 70.2 Q145.0 69.05 145.4 68.0 L145.65 67.4 142.25 65.95 142.2 65.9 142.25 65.9 142.75 64.9 Q143.7 62.95 145.25 61.15 L146.15 60.1 146.25 60.0 146.3 60.0 148.3 62.05 148.9 62.6 149.45 62.15 Q150.85 60.75 152.5 59.95 L152.95 59.7 153.65 59.45 153.65 59.35 152.25 55.9" fill="#bbd4de" fill-rule="evenodd" stroke="none"/>
    <path d="M172.35 60.1 L171.8 62.05 170.45 63.35 170.15 62.95 169.75 62.6 172.35 60.1 M174.6 74.55 L174.6 74.6 Q174.6 76.8 174.1 78.85 L174.0 79.1 173.05 78.7 173.55 77.2 173.95 75.3 174.0 74.55 174.0 74.3 174.0 73.3 174.0 73.1 174.6 74.55 M176.4 80.1 L176.4 81.85 Q175.5 84.05 174.0 86.05 L173.3 86.95 172.1 88.2 172.3 86.05 172.35 86.05 174.95 83.0 175.75 81.6 176.4 80.1 M169.9 85.95 L169.9 86.0 169.85 86.05 169.7 86.2 Q167.9 87.9 166.0 89.0 L165.0 86.8 Q167.65 85.65 169.75 83.5 L169.9 85.95 M166.4 90.15 L165.9 92.2 166.0 92.35 Q163.35 93.45 160.4 93.75 L159.55 93.85 158.55 93.85 159.3 91.5 164.65 90.8 165.2 90.6 166.4 90.15 M158.45 90.8 L158.4 90.8 Q155.25 90.8 152.4 89.7 L153.65 86.8 Q156.3 87.85 159.3 87.85 L159.3 87.9 158.45 90.8 M146.65 85.8 L145.0 83.65 143.55 80.9 145.65 78.7 146.25 80.0 Q147.2 81.85 148.85 83.45 L146.65 85.8 M140.75 81.95 L140.65 81.95 Q139.2 78.6 139.2 74.6 L139.2 74.55 139.3 74.55 140.85 73.0 140.85 74.55 Q141.05 76.45 141.55 78.2 L142.2 80.15 140.75 81.95 M142.4 73.0 L142.5 71.9 Q142.8 70.3 143.45 68.75 L143.5 68.4 143.55 68.35 143.5 68.35 145.65 67.4 145.4 68.0 Q145.0 69.05 144.85 70.2 L144.85 70.25 Q144.55 71.55 144.55 73.0 L142.4 73.0 M140.65 67.05 L141.15 66.0 141.45 65.5 Q142.75 63.1 144.8 60.95 L144.85 60.9 144.95 60.9 146.15 60.1 145.25 61.15 Q143.7 62.95 142.75 64.9 L142.25 65.9 142.2 65.9 142.25 65.95 140.65 67.05 M148.3 62.05 Q150.15 60.55 152.15 59.7 L152.4 59.6 153.65 59.45 152.95 59.7 152.5 59.95 Q150.85 60.75 149.45 62.15 L148.9 62.6 148.3 62.05" fill="#6f8891" fill-rule="evenodd" stroke="none"/>
    <path d="M174.0 79.1 L176.4 80.1 175.75 81.6 174.95 83.0 172.35 86.05 172.3 86.05 169.75 83.45 169.75 83.5 Q167.65 85.65 165.0 86.8 L166.0 89.0 166.45 90.1 166.4 90.15 165.2 90.6 164.65 90.8 159.3 91.5 159.3 87.9 159.3 87.85 Q156.3 87.85 153.65 86.8 L152.4 89.7 152.25 90.15 152.25 90.1 Q149.1 88.85 146.65 86.45 L146.3 86.15 146.65 85.8 148.85 83.45 Q147.2 81.85 146.25 80.0 L145.65 78.7 142.2 80.15 141.55 78.2 Q141.05 76.45 140.85 74.55 L140.85 73.0 142.4 73.0 144.55 73.0 Q144.55 71.55 144.85 70.25 L145.5 71.15 145.95 71.6 Q148.7 74.5 152.65 74.5 L153.05 76.1 153.65 77.2 154.35 78.2 Q155.4 79.2 156.55 79.65 L159.05 80.1 159.45 80.1 161.65 79.6 163.6 78.2 164.1 77.75 Q164.8 76.95 165.1 76.1 165.55 74.95 165.55 73.55 L165.5 72.85 167.25 72.65 Q170.7 72.25 174.0 73.3 L174.0 74.3 174.0 74.55 173.95 75.3 173.55 77.2 173.05 78.7 174.0 79.1" fill="#b1c4cb" fill-rule="evenodd" stroke="none"/>
    <path d="M152.65 74.5 L152.55 73.55 152.65 72.5 153.05 71.15 Q153.5 69.95 154.35 68.95 L154.45 68.95 Q155.4 68.0 156.55 67.55 157.75 67.05 159.05 67.05 L161.6 67.55 Q162.75 68.0 163.6 68.95 164.6 69.95 165.1 71.15 L165.5 72.85 165.55 73.55 Q165.55 74.95 165.1 76.1 164.8 76.95 164.1 77.75 L163.6 78.2 161.65 79.6 159.45 80.1 159.05 80.1 156.55 79.65 Q155.4 79.2 154.35 78.2 L153.65 77.2 153.05 76.1 152.65 74.5 M163.65 76.55 L164.45 75.2 Q164.85 74.2 164.85 73.0 L164.85 72.95 Q164.85 71.85 164.45 70.95 164.0 69.95 163.2 69.1 162.45 68.3 161.5 67.95 160.5 67.45 159.3 67.45 158.2 67.45 157.25 67.95 156.25 68.3 155.4 69.1 154.6 69.95 154.2 70.95 L153.9 72.1 153.8 73.0 Q153.8 73.85 153.95 74.55 L154.2 75.2 154.7 76.15 155.4 76.95 Q156.25 77.85 157.25 78.2 158.2 78.6 159.3 78.6 L159.65 78.6 161.5 78.15 163.2 76.95 163.65 76.55" fill="#d5eef7" fill-rule="evenodd" stroke="none"/>
    <path d="M163.65 76.55 L163.7 75.6 Q163.7 74.5 163.3 73.45 L163.25 73.3 162.05 71.7 Q161.25 70.9 160.3 70.5 159.3 70.05 158.2 70.05 157.05 70.05 156.05 70.5 155.05 70.9 154.25 71.7 L153.9 72.1 154.2 70.95 Q154.6 69.95 155.4 69.1 156.25 68.3 157.25 67.95 158.2 67.45 159.3 67.45 160.5 67.45 161.5 67.95 162.45 68.3 163.2 69.1 164.0 69.95 164.45 70.95 164.85 71.85 164.85 72.95 L164.85 73.0 Q164.85 74.2 164.45 75.2 L163.65 76.55" fill="#83979f" fill-rule="evenodd" stroke="none"/>
    <path d="M177.7 73.0 L177.7 74.55 174.6 74.55 174.0 73.1 174.0 73.0 177.7 73.0 M172.1 88.2 L169.9 85.95 169.75 83.5 169.75 83.45 172.3 86.05 172.1 88.2 M158.55 93.85 L158.55 90.8 158.45 90.8 159.3 87.9 159.3 91.5 158.55 93.85 M152.25 90.15 L151.2 92.4 Q147.8 91.05 144.95 88.25 L144.95 88.2 145.1 88.05 146.3 86.15 146.65 86.45 Q149.1 88.85 152.25 90.1 L152.25 90.15 M143.55 80.9 L143.5 80.8 143.5 80.75 140.75 81.95 142.2 80.15 145.65 78.7 143.55 80.9 M143.5 68.35 L140.65 67.15 140.65 67.05 142.25 65.95 145.65 67.4 143.5 68.35 M152.4 59.6 L151.3 57.05 152.25 55.9 153.65 59.35 153.65 59.45 152.4 59.6" fill="#516870" fill-rule="evenodd" stroke="none"/>
  </g>
  <defs>
    <linearGradient gradientTransform="matrix(0.0045, 0.0085, -0.0092, 0.0048, 587.2, 84.95)" gradientUnits="userSpaceOnUse" id="gradient0" spreadMethod="pad" x1="-819.2" x2="819.2">
      <stop offset="0.0" stop-color="#6fa9ff"/>
      <stop offset="1.0" stop-color="#465bb0"/>
    </linearGradient>
    <linearGradient gradientTransform="matrix(0.0045, 0.0085, -0.0092, 0.0048, 26.85, 84.95)" gradientUnits="userSpaceOnUse" id="gradient1" spreadMethod="pad" x1="-819.2" x2="819.2">
      <stop offset="0.0" stop-color="#6fa9ff"/>
      <stop offset="1.0" stop-color="#465bb0"/>
    </linearGradient>
    <linearGradient gradientTransform="matrix(0.0045, 0.0085, -0.0092, 0.0048, 582.65, 425.55)" gradientUnits="userSpaceOnUse" id="gradient2" spreadMethod="pad" x1="-819.2" x2="819.2">
      <stop offset="0.0" stop-color="#6fa9ff"/>
      <stop offset="1.0" stop-color="#465bb0"/>
    </linearGradient>
    <linearGradient gradientTransform="matrix(0.0045, 0.0085, -0.0092, 0.0048, 25.8, 424.7)" gradientUnits="userSpaceOnUse" id="gradient3" spreadMethod="pad" x1="-819.2" x2="819.2">
      <stop offset="0.0" stop-color="#6fa9ff"/>
      <stop offset="1.0" stop-color="#465bb0"/>
    </linearGradient>
  </defs>
</svg>
