<?xml version="1.0" encoding="UTF-8" standalone="no"?>
<svg xmlns:xlink="http://www.w3.org/1999/xlink" height="40.2px" width="39.5px" xmlns="http://www.w3.org/2000/svg">
  <g transform="matrix(1.0, 0.0, 0.0, 1.0, -439.95, -54.25)">
    <path d="M443.95 66.2 Q445.15 64.0 447.05 62.1 L447.1 62.0 447.15 62.0 448.3 61.25 448.4 61.2 448.45 61.2 450.3 63.05 Q452.0 61.7 453.85 60.95 L454.05 60.85 453.0 58.5 453.95 57.45 Q456.9 56.25 460.45 56.25 L460.45 59.55 Q463.2 59.55 465.55 60.6 L465.7 60.65 467.0 57.45 Q470.0 58.75 472.5 61.2 L472.45 61.25 472.0 63.05 470.75 64.3 Q472.3 66.0 473.1 68.0 L476.25 66.65 Q477.45 69.7 477.45 73.2 L477.45 74.6 474.55 74.6 Q474.55 76.75 474.1 78.6 L474.05 78.9 476.25 79.75 476.25 79.85 476.25 81.45 Q475.4 83.45 474.05 85.25 L473.35 86.1 472.3 87.15 470.25 85.15 470.15 85.25 470.05 85.35 466.6 87.95 467.0 89.05 466.55 90.95 466.6 91.05 Q464.2 92.15 461.45 92.35 L460.65 92.45 459.75 92.45 459.75 89.6 459.6 89.6 Q456.7 89.6 454.05 88.65 L453.95 89.05 452.9 91.1 Q449.8 89.8 447.15 87.3 L447.35 87.1 448.45 85.3 448.8 85.0 447.2 83.0 445.85 80.45 445.85 80.4 445.8 80.4 443.35 81.45 443.2 81.45 Q441.95 78.4 441.95 74.7 L441.95 74.6 442.0 74.6 443.4 73.2 444.85 73.2 444.95 72.2 Q445.2 70.75 445.8 69.25 L445.85 69.0 445.85 68.85 443.2 67.8 443.2 67.75 443.65 66.75 443.95 66.2 M455.45 72.4 L455.4 73.2 455.5 74.6 455.75 75.25 456.2 76.15 456.85 76.85 Q457.6 77.7 458.55 78.05 L460.45 78.4 460.75 78.4 462.45 78.0 464.05 76.85 464.45 76.45 464.45 75.65 Q464.45 74.55 464.1 73.6 L464.05 73.5 463.0 72.0 Q462.25 71.25 461.35 70.9 L459.45 70.5 457.4 70.9 Q456.5 71.25 455.8 72.0 L455.45 72.4" fill="#b1c4cb" fill-rule="evenodd" stroke="none"/>
    <path d="M443.95 66.2 Q445.15 64.0 447.05 62.1 L447.1 62.0 447.15 62.0 448.3 61.25 448.4 61.2 448.45 61.2 450.3 63.05 Q452.0 61.7 453.85 60.95 L454.05 60.85 453.0 58.5 453.95 57.45 Q456.9 56.25 460.45 56.25 L460.45 59.55 Q463.2 59.55 465.55 60.6 L465.7 60.65 467.0 57.45 Q470.0 58.75 472.5 61.2 L472.45 61.25 472.0 63.05 470.75 64.3 Q472.3 66.0 473.1 68.0 L476.25 66.65 Q477.45 69.7 477.45 73.2 L477.45 74.6 474.55 74.6 Q474.55 76.75 474.1 78.6 L474.05 78.9 476.25 79.75 476.25 79.85 476.25 81.45 Q475.4 83.45 474.05 85.25 L473.35 86.1 472.3 87.15 470.25 85.15 470.15 85.25 470.05 85.35 466.6 87.95 467.0 89.05 466.55 90.95 466.6 91.05 Q464.2 92.15 461.45 92.35 L460.65 92.45 459.75 92.45 459.75 89.6 459.6 89.6 Q456.7 89.6 454.05 88.65 L453.95 89.05 452.9 91.1 Q449.8 89.8 447.15 87.3 L447.35 87.1 448.45 85.3 448.8 85.0 447.2 83.0 445.85 80.45 445.85 80.4 445.8 80.4 443.35 81.45 443.2 81.45 Q441.95 78.4 441.95 74.7 L441.95 74.6 442.0 74.6 443.4 73.2 444.85 73.2 444.95 72.2 Q445.2 70.75 445.8 69.25 L445.85 69.0 445.85 68.85 443.2 67.8 443.2 67.75 443.65 66.75 443.95 66.2 M455.45 72.4 L455.8 72.0 Q456.5 71.25 457.4 70.9 L459.45 70.5 461.35 70.9 Q462.25 71.25 463.0 72.0 L464.05 73.5 464.1 73.6 Q464.45 74.55 464.45 75.65 L464.45 76.45 464.05 76.85 462.45 78.0 460.75 78.4 460.45 78.4 458.55 78.05 Q457.6 77.7 456.85 76.85 L456.2 76.15 455.75 75.25 455.5 74.6 455.4 73.2 455.45 72.4" fill="none" stroke="#005c8e" stroke-linecap="round" stroke-linejoin="round" stroke-width="4.0"/>
    <path d="M443.2 67.75 L444.7 66.75 447.85 68.0 445.85 68.9 443.2 67.8 443.2 67.75 M444.65 79.8 L447.85 78.45 445.85 80.45 445.85 80.4 445.8 80.4 443.35 81.5 444.65 79.8 M448.45 85.3 L448.75 85.65 Q451.05 87.85 453.95 89.05 L452.9 91.1 Q449.8 89.9 447.15 87.3 L447.35 87.1 448.45 85.3 M460.45 86.95 L460.45 90.25 459.75 92.45 459.75 89.65 459.6 89.65 460.45 86.95 M470.1 82.95 L470.1 82.85 472.45 85.25 472.3 87.25 470.25 85.15 470.1 82.95 M477.45 73.2 L477.45 74.6 474.55 74.6 474.05 73.3 474.05 73.2 477.45 73.2 M454.05 60.85 L453.0 58.5 453.95 57.45 455.2 60.65 455.2 60.7 454.05 60.85" fill="#516870" fill-rule="evenodd" stroke="none"/>
    <path d="M444.7 66.75 L443.2 67.75 443.65 66.75 443.95 66.3 Q445.15 64.1 447.05 62.1 L447.1 62.05 447.15 62.05 448.3 61.3 447.45 62.3 Q446.05 63.95 445.15 65.7 L444.7 66.65 444.65 66.65 444.7 66.75 M445.85 68.9 L447.85 68.0 447.55 68.6 447.05 70.6 447.05 70.65 446.85 73.2 444.85 73.2 444.95 72.2 Q445.2 70.75 445.8 69.25 L445.85 69.0 445.85 68.9 M443.35 81.5 L443.2 81.5 Q441.95 78.4 441.95 74.7 L441.95 74.6 442.0 74.6 443.4 73.2 443.45 74.6 Q443.6 76.4 444.0 78.05 L444.65 79.8 443.35 81.5 M447.85 78.45 L448.35 79.7 Q449.3 81.45 450.85 82.85 L448.8 85.05 447.2 83.0 445.85 80.45 447.85 78.45 M454.05 88.65 L455.2 85.95 Q457.7 86.95 460.45 86.95 L459.6 89.65 Q456.7 89.65 454.05 88.65 M460.45 90.25 L465.35 89.65 465.9 89.5 467.0 89.05 466.55 90.95 466.6 91.05 Q464.2 92.15 461.45 92.35 L460.65 92.45 459.75 92.45 460.45 90.25 M466.6 88.0 L465.7 85.95 Q468.1 84.9 470.1 82.95 L470.25 85.15 470.25 85.2 470.15 85.25 470.05 85.45 466.6 88.0 M472.45 85.25 L472.5 85.25 474.9 82.45 475.6 81.15 476.25 79.8 476.25 81.45 Q475.4 83.45 474.05 85.25 L473.35 86.1 472.3 87.25 472.45 85.25 M474.05 78.9 L473.15 78.45 473.6 77.1 474.0 75.35 474.05 74.6 474.05 74.45 474.05 73.5 474.05 73.3 474.55 74.6 474.55 74.65 Q474.55 76.75 474.1 78.6 L474.05 78.9 M472.45 61.3 L472.0 63.1 470.75 64.3 470.45 63.95 470.1 63.65 472.45 61.3 M450.3 63.1 Q452.0 61.7 453.85 60.95 L454.05 60.85 455.2 60.7 454.6 60.95 454.15 61.15 Q452.65 61.9 451.35 63.2 L450.85 63.65 450.3 63.1" fill="#6f8891" fill-rule="evenodd" stroke="none"/>
    <path d="M447.85 68.0 L444.7 66.75 444.65 66.65 444.7 66.65 445.15 65.7 Q446.05 63.95 447.45 62.3 L448.3 61.3 448.4 61.2 448.45 61.2 450.3 63.1 450.85 63.65 451.35 63.2 Q452.65 61.9 454.15 61.15 L454.6 60.95 455.2 60.7 455.2 60.65 453.95 57.45 Q456.9 56.25 460.45 56.25 L460.45 59.65 Q463.2 59.65 465.55 60.6 L465.7 60.65 467.0 57.45 Q470.0 58.75 472.5 61.2 L472.45 61.3 470.1 63.65 470.45 63.95 470.75 64.3 Q472.3 66.0 473.1 68.0 L476.25 66.65 Q477.45 69.7 477.45 73.2 L474.05 73.2 474.05 73.3 474.05 73.5 Q471.0 72.55 467.8 72.9 L466.15 73.1 465.8 71.5 Q465.3 70.4 464.4 69.5 L462.55 68.2 Q461.4 67.75 460.25 67.75 459.0 67.75 457.9 68.2 456.85 68.6 455.95 69.5 L455.9 69.5 Q455.1 70.4 454.65 71.5 L454.25 72.75 454.2 73.7 454.25 74.6 Q450.65 74.6 448.1 71.9 L447.65 71.5 447.05 70.65 447.05 70.6 447.55 68.6 447.85 68.0" fill="#bbd4de" fill-rule="evenodd" stroke="none"/>
    <path d="M443.4 73.2 L444.85 73.2 446.85 73.2 447.05 70.65 447.65 71.5 448.1 71.9 Q450.65 74.6 454.25 74.6 L454.65 76.1 455.2 77.1 455.9 78.05 Q456.85 78.95 457.9 79.4 L460.25 79.8 460.55 79.8 462.6 79.3 464.4 78.05 464.9 77.6 465.8 76.1 Q466.2 75.0 466.2 73.7 L466.15 73.1 467.8 72.9 Q471.0 72.55 474.05 73.5 L474.05 74.45 474.05 74.6 474.0 75.35 473.6 77.1 473.15 78.45 474.05 78.9 476.25 79.75 476.25 79.8 475.6 81.15 474.9 82.45 472.5 85.25 472.45 85.25 470.1 82.85 470.1 82.95 Q468.1 84.9 465.7 85.95 L466.6 88.0 467.0 89.05 465.9 89.5 465.35 89.65 460.45 90.25 460.45 86.95 Q457.7 86.95 455.2 85.95 L454.05 88.65 453.95 89.05 Q451.05 87.85 448.75 85.65 L448.45 85.3 448.8 85.05 450.85 82.85 Q449.3 81.45 448.35 79.7 L447.85 78.45 444.65 79.8 444.0 78.05 Q443.6 76.4 443.45 74.6 L443.4 73.2" fill="#b1c4cb" fill-rule="evenodd" stroke="none"/>
    <path d="M466.15 73.1 L466.2 73.7 Q466.2 75.0 465.8 76.1 L464.9 77.6 464.4 78.05 462.6 79.3 460.55 79.8 460.25 79.8 457.9 79.4 Q456.85 78.95 455.9 78.05 L455.2 77.1 454.65 76.1 454.25 74.6 454.2 73.7 454.25 72.75 454.65 71.5 Q455.1 70.4 455.9 69.5 L455.95 69.5 Q456.85 68.6 457.9 68.2 459.0 67.75 460.25 67.75 461.4 67.75 462.55 68.2 L464.4 69.5 Q465.3 70.4 465.8 71.5 L466.15 73.1 M455.45 72.4 L455.4 73.2 455.5 74.6 455.75 75.25 456.2 76.15 456.85 76.85 Q457.6 77.7 458.55 78.05 L460.45 78.4 460.75 78.4 462.45 78.0 464.05 76.85 464.45 76.45 465.2 75.25 Q465.6 74.35 465.6 73.2 465.6 72.2 465.2 71.35 464.8 70.4 464.05 69.6 463.4 68.85 462.45 68.55 461.55 68.1 460.45 68.1 459.45 68.1 458.55 68.55 457.6 68.85 456.85 69.6 456.05 70.4 455.75 71.35 L455.45 72.4" fill="#d5eef7" fill-rule="evenodd" stroke="none"/>
    <path d="M455.45 72.4 L455.75 71.35 Q456.05 70.4 456.85 69.6 457.6 68.85 458.55 68.55 459.45 68.1 460.45 68.1 461.55 68.1 462.45 68.55 463.4 68.85 464.05 69.6 464.8 70.4 465.2 71.35 465.6 72.2 465.6 73.2 465.6 74.35 465.2 75.25 L464.45 76.45 464.45 75.65 464.1 73.6 464.05 73.5 463.0 72.0 Q462.25 71.3 461.35 70.9 L459.45 70.5 457.4 70.9 Q456.5 71.3 455.8 72.0 L455.45 72.4" fill="#83979f" fill-rule="evenodd" stroke="none"/>
  </g>
</svg>
