<?xml version="1.0" encoding="UTF-8" standalone="no"?>
<svg xmlns:xlink="http://www.w3.org/1999/xlink" height="36.15px" width="35.55px" xmlns="http://www.w3.org/2000/svg">
  <g transform="matrix(1.0, 0.0, 0.0, 1.0, -568.45, -72.85)">
    <path d="M586.9 77.8 Q589.35 77.8 591.4 78.7 L591.55 78.75 592.7 75.9 Q595.35 77.05 597.6 79.25 L597.55 79.3 597.15 80.9 596.05 82.0 Q597.4 83.5 598.1 85.3 L600.9 84.1 Q602.0 86.8 602.0 89.9 L602.0 91.15 599.4 91.15 Q599.4 93.05 599.0 94.7 L598.95 94.95 600.9 95.7 600.9 95.8 600.9 97.2 Q600.15 99.0 598.95 100.6 L598.35 101.35 597.4 102.3 595.6 100.5 595.5 100.6 595.4 100.7 592.35 103.0 592.7 103.95 592.3 105.65 592.35 105.75 Q590.2 106.7 587.8 106.9 L587.05 107.0 586.25 107.0 586.25 104.45 586.15 104.45 Q583.55 104.45 581.2 103.6 L581.1 103.95 580.2 105.8 Q577.45 104.65 575.1 102.4 L575.25 102.25 576.25 100.65 576.55 100.35 575.15 98.6 573.95 96.35 573.95 96.3 573.9 96.3 571.7 97.2 571.6 97.2 Q570.45 94.5 570.45 91.25 L570.45 91.15 570.5 91.15 571.75 89.9 573.05 89.9 573.15 89.0 Q573.35 87.7 573.9 86.4 L573.95 86.15 573.95 86.05 571.6 85.1 571.6 85.05 572.0 84.15 572.25 83.7 Q573.3 81.75 575.0 80.05 L575.05 79.95 575.1 79.95 576.1 79.3 576.2 79.25 576.25 79.25 577.9 80.9 Q579.4 79.7 581.05 79.0 L581.2 78.95 580.3 76.85 581.1 75.9 Q583.75 74.85 586.9 74.85 L586.9 77.8 M584.2 87.85 Q583.4 88.15 582.75 88.85 L582.45 89.2 582.4 89.9 582.5 91.15 582.7 91.7 583.1 92.5 583.7 93.15 Q584.35 93.9 585.2 94.2 L586.9 94.5 587.15 94.5 588.65 94.15 Q589.5 93.85 590.1 93.15 L590.45 92.8 590.45 92.05 590.15 90.25 590.1 90.15 589.15 88.85 587.7 87.85 Q586.9 87.5 586.0 87.5 585.05 87.5 584.2 87.85" fill="#b1c4cb" fill-rule="evenodd" stroke="none"/>
    <path d="M586.9 77.8 Q589.35 77.8 591.4 78.7 L591.55 78.75 592.7 75.9 Q595.35 77.05 597.6 79.25 L597.55 79.3 597.15 80.9 596.05 82.0 Q597.4 83.5 598.1 85.3 L600.9 84.1 Q602.0 86.8 602.0 89.9 L602.0 91.15 599.4 91.15 Q599.4 93.05 599.0 94.7 L598.95 94.95 600.9 95.7 600.9 95.8 600.9 97.2 Q600.15 99.0 598.95 100.6 L598.35 101.35 597.4 102.3 595.6 100.5 595.5 100.6 595.4 100.7 592.35 103.0 592.7 103.95 592.3 105.65 592.35 105.75 Q590.2 106.7 587.8 106.9 L587.05 107.0 586.25 107.0 586.25 104.45 586.15 104.45 Q583.55 104.45 581.2 103.6 L581.1 103.95 580.2 105.8 Q577.45 104.65 575.1 102.4 L575.25 102.25 576.25 100.65 576.55 100.35 575.15 98.6 573.95 96.35 573.95 96.3 573.9 96.3 571.7 97.2 571.6 97.2 Q570.45 94.5 570.45 91.25 L570.45 91.15 570.5 91.15 571.75 89.9 573.05 89.9 573.15 89.0 Q573.35 87.7 573.9 86.4 L573.95 86.15 573.95 86.05 571.6 85.1 571.6 85.05 572.0 84.15 572.25 83.7 Q573.3 81.75 575.0 80.05 L575.05 79.95 575.1 79.95 576.1 79.3 576.2 79.25 576.25 79.25 577.9 80.9 Q579.4 79.7 581.05 79.0 L581.2 78.95 580.3 76.85 581.1 75.9 Q583.75 74.85 586.9 74.85 L586.9 77.8 M584.2 87.85 Q585.05 87.5 586.0 87.5 586.9 87.5 587.7 87.85 L589.15 88.85 590.1 90.15 590.15 90.25 590.45 92.05 590.45 92.8 590.1 93.15 Q589.5 93.85 588.65 94.15 L587.15 94.5 586.9 94.5 585.2 94.2 Q584.35 93.9 583.7 93.15 L583.1 92.5 582.7 91.7 582.5 91.15 582.4 89.9 582.45 89.2 582.75 88.85 Q583.4 88.15 584.2 87.85" fill="none" stroke="#005c8e" stroke-linecap="round" stroke-linejoin="round" stroke-width="4.0"/>
    <path d="M581.1 75.9 Q583.75 74.85 586.9 74.85 L586.9 77.85 Q589.35 77.85 591.4 78.7 L591.55 78.75 592.7 75.9 Q595.35 77.05 597.6 79.25 L597.55 79.35 595.45 81.4 595.75 81.7 596.05 82.0 Q597.4 83.5 598.1 85.3 L600.9 84.1 Q602.0 86.8 602.0 89.9 L598.95 89.9 598.95 90.0 598.95 90.15 Q596.25 89.3 593.4 89.65 L591.95 89.8 591.65 88.4 590.4 86.6 588.75 85.45 586.7 85.05 584.65 85.45 Q583.7 85.8 582.9 86.6 L582.85 86.6 Q582.15 87.4 581.75 88.4 L581.4 89.5 581.35 90.35 581.4 91.15 Q578.2 91.15 575.95 88.75 L575.55 88.4 575.0 87.65 575.0 87.6 Q575.15 86.65 575.45 85.8 L575.7 85.3 572.9 84.15 572.85 84.1 572.9 84.1 573.3 83.25 Q574.1 81.7 575.35 80.2 L576.1 79.35 576.2 79.25 576.25 79.25 577.9 80.95 578.35 81.4 578.8 81.0 Q579.95 79.85 581.3 79.2 L581.7 79.0 582.25 78.8 582.25 78.75 581.1 75.9" fill="#bbd4de" fill-rule="evenodd" stroke="none"/>
    <path d="M602.0 89.9 L602.0 91.15 599.4 91.15 598.95 90.0 598.95 89.9 602.0 89.9 M597.4 102.35 L595.6 100.5 595.45 98.55 595.45 98.45 597.55 100.6 597.4 102.35 M586.25 107.0 L586.25 104.5 586.15 104.5 586.9 102.1 586.9 105.05 586.25 107.0 M581.1 103.95 L580.2 105.8 Q577.45 104.7 575.1 102.4 L575.25 102.25 576.25 100.65 576.5 100.95 Q578.55 102.9 581.1 103.95 M573.95 96.35 L573.95 96.3 573.9 96.3 571.7 97.25 572.85 95.75 575.7 94.55 573.95 96.35 M573.95 86.1 L571.6 85.1 571.6 85.05 572.9 84.15 575.7 85.3 573.95 86.1 M581.2 78.95 L580.3 76.85 581.1 75.9 582.25 78.75 582.25 78.8 581.2 78.95" fill="#516870" fill-rule="evenodd" stroke="none"/>
    <path d="M597.55 79.35 L597.15 80.95 596.05 82.0 595.75 81.7 595.45 81.4 597.55 79.35 M599.4 91.15 L599.4 91.2 Q599.4 93.05 599.0 94.7 L598.95 94.95 598.15 94.55 598.55 93.35 598.9 91.8 598.95 91.15 598.95 91.0 598.95 90.15 598.95 90.0 599.4 91.15 M600.9 95.75 L600.9 97.2 Q600.15 99.0 598.95 100.6 L598.35 101.35 597.4 102.35 597.55 100.6 597.6 100.6 599.7 98.1 600.35 96.95 600.9 95.75 M595.6 100.5 L595.6 100.55 595.5 100.6 595.4 100.75 592.35 103.05 591.55 101.2 Q593.7 100.3 595.45 98.55 L595.6 100.5 M592.7 103.95 L592.3 105.65 592.35 105.75 Q590.2 106.7 587.8 106.9 L587.05 107.0 586.25 107.0 586.9 105.05 591.25 104.5 591.75 104.35 592.7 103.95 M586.15 104.5 Q583.55 104.5 581.2 103.6 L582.25 101.2 Q584.45 102.1 586.9 102.1 L586.15 104.5 M576.55 100.4 L575.15 98.6 573.95 96.35 575.7 94.55 576.15 95.65 Q577.0 97.2 578.35 98.45 L576.55 100.4 M571.7 97.25 L571.6 97.25 Q570.45 94.5 570.45 91.25 L570.45 91.15 570.5 91.15 571.75 89.9 571.8 91.15 572.3 94.2 572.85 95.75 571.7 97.25 M573.05 89.9 L573.15 89.0 Q573.35 87.7 573.9 86.4 L573.95 86.15 573.95 86.1 575.7 85.3 575.45 85.8 Q575.15 86.65 575.0 87.6 L575.0 87.65 574.8 89.9 573.05 89.9 M571.6 85.05 L572.0 84.15 572.25 83.75 Q573.3 81.8 575.0 80.05 L575.05 80.0 575.1 80.0 576.1 79.35 575.35 80.2 Q574.1 81.7 573.3 83.25 L572.9 84.1 572.85 84.1 572.9 84.15 571.6 85.05 M577.9 80.95 Q579.4 79.7 581.05 79.0 L581.2 78.95 582.25 78.8 581.7 79.0 581.3 79.2 Q579.95 79.85 578.8 81.0 L578.35 81.4 577.9 80.95" fill="#6f8891" fill-rule="evenodd" stroke="none"/>
    <path d="M582.45 89.2 Q582.5 88.7 582.7 88.25 583.0 87.4 583.7 86.7 584.35 86.05 585.2 85.75 586.0 85.35 586.9 85.35 L588.65 85.75 Q589.5 86.05 590.1 86.7 590.75 87.4 591.1 88.25 591.45 89.0 591.45 89.9 591.45 90.9 591.1 91.7 L590.45 92.8 590.45 92.05 590.15 90.25 590.1 90.15 589.15 88.85 587.7 87.85 Q586.9 87.5 586.0 87.5 585.05 87.5 584.2 87.85 583.4 88.2 582.75 88.85 L582.45 89.2" fill="#83979f" fill-rule="evenodd" stroke="none"/>
    <path d="M581.4 91.15 L581.35 90.35 581.4 89.5 581.75 88.4 Q582.15 87.4 582.85 86.6 L582.9 86.6 Q583.7 85.8 584.65 85.45 L586.7 85.05 588.75 85.45 590.4 86.6 591.65 88.4 591.95 89.8 592.0 90.35 Q592.0 91.5 591.65 92.45 L590.85 93.8 590.4 94.2 588.8 95.3 587.0 95.75 586.7 95.75 584.65 95.4 582.85 94.2 582.25 93.35 581.75 92.45 581.4 91.15 M590.45 92.8 L591.1 91.7 Q591.45 90.9 591.45 89.9 591.45 89.0 591.1 88.25 590.75 87.4 590.1 86.7 589.5 86.05 588.65 85.75 L586.9 85.35 Q586.0 85.35 585.2 85.75 584.35 86.05 583.7 86.7 583.0 87.4 582.7 88.25 582.5 88.7 582.45 89.2 L582.4 89.9 582.5 91.15 582.7 91.7 583.1 92.5 583.7 93.15 Q584.35 93.9 585.2 94.2 L586.9 94.5 587.15 94.5 588.65 94.15 Q589.5 93.85 590.1 93.15 L590.45 92.8" fill="#d5eef7" fill-rule="evenodd" stroke="none"/>
    <path d="M598.95 94.95 L600.9 95.7 600.9 95.75 600.35 96.95 599.7 98.1 597.6 100.6 597.55 100.6 595.45 98.45 595.45 98.55 Q593.7 100.3 591.55 101.2 L592.35 103.05 592.7 103.95 591.75 104.35 591.25 104.5 586.9 105.05 586.9 102.1 Q584.45 102.1 582.25 101.2 L581.2 103.6 581.1 103.95 Q578.55 102.9 576.5 100.95 L576.25 100.65 576.55 100.4 578.35 98.45 Q577.0 97.2 576.15 95.65 L575.7 94.55 572.85 95.75 572.3 94.2 571.8 91.15 571.75 89.9 573.05 89.9 574.8 89.9 575.0 87.65 575.55 88.4 575.95 88.75 Q578.2 91.15 581.4 91.15 L581.75 92.45 582.25 93.35 582.85 94.2 584.65 95.4 586.7 95.75 587.0 95.75 588.8 95.3 590.4 94.2 590.85 93.8 591.65 92.45 Q592.0 91.5 592.0 90.35 L591.95 89.8 593.4 89.65 Q596.25 89.3 598.95 90.15 L598.95 91.0 598.95 91.15 598.9 91.8 598.55 93.35 598.15 94.55 598.95 94.95" fill="#b1c4cb" fill-rule="evenodd" stroke="none"/>
  </g>
</svg>
