<?xml version="1.0" encoding="UTF-8" standalone="no"?>
<svg xmlns:xlink="http://www.w3.org/1999/xlink" height="36.15px" width="35.55px" xmlns="http://www.w3.org/2000/svg">
  <g transform="matrix(1.0, 0.0, 0.0, 1.0, -569.75, -407.15)">
    <path d="M592.7 413.0 L592.85 413.05 594.0 410.2 Q596.65 411.35 598.9 413.55 L598.85 413.6 598.45 415.2 597.35 416.3 Q598.7 417.8 599.4 419.6 L602.2 418.4 Q603.3 421.1 603.3 424.2 L603.3 425.45 600.7 425.45 Q600.7 427.35 600.3 429.0 L600.25 429.25 602.2 430.0 602.2 430.1 602.2 431.5 Q601.45 433.3 600.25 434.9 L599.65 435.65 598.7 436.6 596.9 434.8 596.8 434.9 596.7 435.0 593.65 437.3 594.0 438.25 593.6 439.95 593.65 440.05 Q591.5 441.0 589.1 441.2 L588.35 441.3 587.55 441.3 587.55 438.75 587.45 438.75 Q584.85 438.75 582.5 437.9 L582.4 438.25 581.5 440.1 Q578.75 438.95 576.4 436.7 L576.55 436.55 577.55 434.95 577.85 434.65 576.45 432.9 575.25 430.65 575.25 430.6 575.2 430.6 573.0 431.5 572.9 431.5 Q571.75 428.8 571.75 425.55 L571.75 425.45 571.8 425.45 573.05 424.2 574.35 424.2 574.45 423.3 Q574.65 422.0 575.2 420.7 L575.25 420.45 575.25 420.35 572.9 419.4 572.9 419.35 573.3 418.45 573.55 418.0 Q574.6 416.05 576.3 414.35 L576.35 414.25 576.4 414.25 577.4 413.6 577.5 413.55 577.55 413.55 579.2 415.2 Q580.7 414.0 582.35 413.3 L582.5 413.25 581.6 411.15 582.4 410.2 Q585.05 409.15 588.2 409.15 L588.2 412.1 Q590.65 412.1 592.7 413.0 M585.5 422.15 Q584.7 422.45 584.05 423.15 L583.75 423.5 583.7 424.2 583.8 425.45 584.0 426.0 584.4 426.8 585.0 427.45 Q585.65 428.2 586.5 428.5 L588.2 428.8 588.45 428.8 589.95 428.45 591.4 427.45 591.75 427.1 591.75 426.35 591.45 424.55 591.4 424.45 590.45 423.15 Q589.8 422.45 589.0 422.15 L587.3 421.8 585.5 422.15" fill="#b1c4cb" fill-rule="evenodd" stroke="none"/>
    <path d="M592.7 413.0 L592.85 413.05 594.0 410.2 Q596.65 411.35 598.9 413.55 L598.85 413.6 598.45 415.2 597.35 416.3 Q598.7 417.8 599.4 419.6 L602.2 418.4 Q603.3 421.1 603.3 424.2 L603.3 425.45 600.7 425.45 Q600.7 427.35 600.3 429.0 L600.25 429.25 602.2 430.0 602.2 430.1 602.2 431.5 Q601.45 433.3 600.25 434.9 L599.65 435.65 598.7 436.6 596.9 434.8 596.8 434.9 596.7 435.0 593.65 437.3 594.0 438.25 593.6 439.95 593.65 440.05 Q591.5 441.0 589.1 441.2 L588.35 441.3 587.55 441.3 587.55 438.75 587.45 438.75 Q584.85 438.75 582.5 437.9 L582.4 438.25 581.5 440.1 Q578.75 438.95 576.4 436.7 L576.55 436.55 577.55 434.95 577.85 434.65 576.45 432.9 575.25 430.65 575.25 430.6 575.2 430.6 573.0 431.5 572.9 431.5 Q571.75 428.8 571.75 425.55 L571.75 425.45 571.8 425.45 573.05 424.2 574.35 424.2 574.45 423.3 Q574.65 422.0 575.2 420.7 L575.25 420.45 575.25 420.35 572.9 419.4 572.9 419.35 573.3 418.45 573.55 418.0 Q574.6 416.05 576.3 414.35 L576.35 414.25 576.4 414.25 577.4 413.6 577.5 413.55 577.55 413.55 579.2 415.2 Q580.7 414.0 582.35 413.3 L582.5 413.25 581.6 411.15 582.4 410.2 Q585.05 409.15 588.2 409.15 L588.2 412.1 Q590.65 412.1 592.7 413.0 M585.5 422.15 L587.3 421.8 589.0 422.15 Q589.8 422.45 590.45 423.15 L591.4 424.45 591.45 424.55 591.75 426.35 591.75 427.1 591.4 427.45 589.95 428.45 588.45 428.8 588.2 428.8 586.5 428.5 Q585.65 428.2 585.0 427.45 L584.4 426.8 584.0 426.0 583.8 425.45 583.7 424.2 583.75 423.5 584.05 423.15 Q584.7 422.45 585.5 422.15" fill="none" stroke="#005c8e" stroke-linecap="round" stroke-linejoin="round" stroke-width="4.0"/>
    <path d="M598.85 413.65 L598.45 415.25 597.35 416.3 597.05 416.0 596.75 415.7 598.85 413.65 M600.7 425.45 L600.7 425.5 Q600.7 427.35 600.3 429.0 L600.25 429.25 599.45 428.85 599.85 427.65 600.2 426.1 600.25 425.45 600.25 425.3 600.25 424.45 600.25 424.3 600.7 425.45 M602.2 430.05 L602.2 431.5 Q601.45 433.3 600.25 434.9 L599.65 435.65 598.7 436.65 598.85 434.9 598.9 434.9 601.0 432.4 601.65 431.25 602.2 430.05 M596.9 434.8 L596.9 434.85 596.8 434.9 596.7 435.05 593.65 437.35 592.85 435.5 Q595.0 434.6 596.75 432.85 L596.9 434.8 M594.0 438.25 L593.6 439.95 593.65 440.05 Q591.5 441.0 589.1 441.2 L588.35 441.3 587.55 441.3 588.2 439.35 592.55 438.8 593.05 438.65 594.0 438.25 M587.45 438.8 Q584.85 438.8 582.5 437.9 L583.55 435.5 Q585.75 436.4 588.2 436.4 L587.45 438.8 M577.85 434.7 L576.45 432.9 575.25 430.65 577.0 428.85 577.45 429.95 Q578.3 431.5 579.65 432.75 L577.85 434.7 M573.0 431.55 L572.9 431.55 Q571.75 428.8 571.75 425.55 L571.75 425.45 571.8 425.45 573.05 424.2 573.1 425.45 573.6 428.5 574.15 430.05 573.0 431.55 M574.35 424.2 L574.45 423.3 Q574.65 422.0 575.2 420.7 L575.25 420.45 575.25 420.4 577.0 419.6 576.75 420.1 Q576.45 420.95 576.3 421.9 L576.3 421.95 576.1 424.2 574.35 424.2 M572.9 419.35 L573.3 418.45 573.55 418.05 Q574.6 416.1 576.3 414.35 L576.35 414.3 576.4 414.3 577.4 413.65 576.65 414.5 Q575.4 416.0 574.6 417.55 L574.2 418.4 574.15 418.4 574.2 418.45 572.9 419.35 M579.2 415.25 Q580.7 414.0 582.35 413.3 L582.5 413.25 583.55 413.1 583.0 413.3 582.6 413.5 Q581.25 414.15 580.1 415.3 L579.65 415.7 579.2 415.25" fill="#6f8891" fill-rule="evenodd" stroke="none"/>
    <path d="M582.4 410.2 Q585.05 409.15 588.2 409.15 L588.2 412.15 Q590.65 412.15 592.7 413.0 L592.85 413.05 594.0 410.2 Q596.65 411.35 598.9 413.55 L598.85 413.65 596.75 415.7 597.05 416.0 597.35 416.3 Q598.7 417.8 599.4 419.6 L602.2 418.4 Q603.3 421.1 603.3 424.2 L600.25 424.2 600.25 424.3 600.25 424.45 Q597.55 423.6 594.7 423.95 L593.25 424.1 592.95 422.7 591.7 420.9 590.05 419.75 588.0 419.35 585.95 419.75 Q585.0 420.1 584.2 420.9 L584.15 420.9 Q583.45 421.7 583.05 422.7 L582.7 423.8 582.65 424.65 582.7 425.45 Q579.5 425.45 577.25 423.05 L576.85 422.7 576.3 421.95 576.3 421.9 Q576.45 420.95 576.75 420.1 L577.0 419.6 574.2 418.45 574.15 418.4 574.2 418.4 574.6 417.55 Q575.4 416.0 576.65 414.5 L577.4 413.65 577.5 413.55 577.55 413.55 579.2 415.25 579.65 415.7 580.1 415.3 Q581.25 414.15 582.6 413.5 L583.0 413.3 583.55 413.1 583.55 413.05 582.4 410.2" fill="#bbd4de" fill-rule="evenodd" stroke="none"/>
    <path d="M583.75 423.5 Q583.8 423.0 584.0 422.55 584.3 421.7 585.0 421.0 585.65 420.35 586.5 420.05 L588.2 419.65 Q589.15 419.65 589.95 420.05 590.8 420.35 591.4 421.0 592.05 421.7 592.4 422.55 592.75 423.3 592.75 424.2 L592.4 426.0 591.75 427.1 591.75 426.35 591.45 424.55 591.4 424.45 590.45 423.15 Q589.8 422.5 589.0 422.15 L587.3 421.8 585.5 422.15 Q584.7 422.5 584.05 423.15 L583.75 423.5" fill="#83979f" fill-rule="evenodd" stroke="none"/>
    <path d="M582.7 425.45 L582.65 424.65 582.7 423.8 583.05 422.7 Q583.45 421.7 584.15 420.9 L584.2 420.9 Q585.0 420.1 585.95 419.75 L588.0 419.35 590.05 419.75 591.7 420.9 592.95 422.7 593.25 424.1 593.3 424.65 Q593.3 425.8 592.95 426.75 L592.15 428.1 591.7 428.5 590.1 429.6 588.3 430.05 588.0 430.05 585.95 429.7 584.15 428.5 583.55 427.65 583.05 426.75 582.7 425.45 M591.75 427.1 L592.4 426.0 592.75 424.2 Q592.75 423.3 592.4 422.55 592.05 421.7 591.4 421.0 590.8 420.35 589.95 420.05 589.15 419.65 588.2 419.65 L586.5 420.05 Q585.65 420.35 585.0 421.0 584.3 421.7 584.0 422.55 583.8 423.0 583.75 423.5 L583.7 424.2 583.8 425.45 584.0 426.0 584.4 426.8 585.0 427.45 Q585.65 428.2 586.5 428.5 L588.2 428.8 588.45 428.8 589.95 428.45 591.4 427.45 591.75 427.1" fill="#d5eef7" fill-rule="evenodd" stroke="none"/>
    <path d="M603.3 424.2 L603.3 425.45 600.7 425.45 600.25 424.3 600.25 424.2 603.3 424.2 M598.7 436.65 L596.9 434.8 596.75 432.85 596.75 432.75 598.85 434.9 598.7 436.65 M587.55 441.3 L587.55 438.8 587.45 438.8 588.2 436.4 588.2 439.35 587.55 441.3 M582.4 438.25 L581.5 440.1 Q578.75 439.0 576.4 436.7 L576.55 436.55 577.55 434.95 577.8 435.25 Q579.85 437.2 582.4 438.25 M575.25 430.65 L575.25 430.6 575.2 430.6 573.0 431.55 574.15 430.05 577.0 428.85 575.25 430.65 M575.25 420.4 L572.9 419.4 572.9 419.35 574.2 418.45 577.0 419.6 575.25 420.4 M582.5 413.25 L581.6 411.15 582.4 410.2 583.55 413.05 583.55 413.1 582.5 413.25" fill="#516870" fill-rule="evenodd" stroke="none"/>
    <path d="M600.25 429.25 L602.2 430.0 602.2 430.05 601.65 431.25 601.0 432.4 598.9 434.9 598.85 434.9 596.75 432.75 596.75 432.85 Q595.0 434.6 592.85 435.5 L593.65 437.35 594.0 438.25 593.05 438.65 592.55 438.8 588.2 439.35 588.2 436.4 Q585.75 436.4 583.55 435.5 L582.5 437.9 582.4 438.25 Q579.85 437.2 577.8 435.25 L577.55 434.95 577.85 434.7 579.65 432.75 Q578.3 431.5 577.45 429.95 L577.0 428.85 574.15 430.05 573.6 428.5 573.1 425.45 573.05 424.2 574.35 424.2 576.1 424.2 576.3 421.95 576.85 422.7 577.25 423.05 Q579.5 425.45 582.7 425.45 L583.05 426.75 583.55 427.65 584.15 428.5 585.95 429.7 588.0 430.05 588.3 430.05 590.1 429.6 591.7 428.5 592.15 428.1 592.95 426.75 Q593.3 425.8 593.3 424.65 L593.25 424.1 594.7 423.95 Q597.55 423.6 600.25 424.45 L600.25 425.3 600.25 425.45 600.2 426.1 599.85 427.65 599.45 428.85 600.25 429.25" fill="#b1c4cb" fill-rule="evenodd" stroke="none"/>
  </g>
</svg>
