<?xml version="1.0" encoding="UTF-8" standalone="no"?>
<svg xmlns:xlink="http://www.w3.org/1999/xlink" height="36.15px" width="35.55px" xmlns="http://www.w3.org/2000/svg">
  <g transform="matrix(1.0, 0.0, 0.0, 1.0, -8.5, -69.3)">
    <path d="M26.95 71.3 L26.95 74.25 Q29.4 74.25 31.45 75.15 L31.6 75.2 32.75 72.35 Q35.4 73.5 37.65 75.7 L37.6 75.75 37.2 77.35 36.1 78.45 Q37.45 79.95 38.15 81.75 L40.95 80.55 Q42.05 83.25 42.05 86.35 L42.05 87.6 39.45 87.6 Q39.45 89.5 39.05 91.15 L39.0 91.4 40.95 92.15 40.95 92.25 40.95 93.65 Q40.2 95.45 39.0 97.05 L38.4 97.8 37.45 98.75 35.65 96.95 35.55 97.05 35.45 97.15 32.4 99.45 32.75 100.4 32.35 102.1 32.4 102.2 Q30.25 103.15 27.85 103.35 L27.1 103.45 26.3 103.45 26.3 100.9 26.2 100.9 Q23.6 100.9 21.25 100.05 L21.15 100.4 20.25 102.25 Q17.5 101.1 15.15 98.85 L15.3 98.7 16.3 97.1 16.6 96.8 15.2 95.05 14.0 92.8 14.0 92.75 13.95 92.75 11.75 93.65 11.65 93.65 Q10.5 90.95 10.5 87.7 L10.5 87.6 10.55 87.6 11.8 86.35 13.1 86.35 13.2 85.45 Q13.4 84.15 13.95 82.85 L14.0 82.6 14.0 82.5 11.65 81.55 11.65 81.5 12.05 80.6 12.3 80.15 Q13.35 78.2 15.05 76.5 L15.1 76.4 15.15 76.4 16.15 75.75 16.25 75.7 16.3 75.7 17.95 77.35 Q19.45 76.15 21.1 75.45 L21.25 75.4 20.35 73.3 21.15 72.35 Q23.8 71.3 26.95 71.3 M30.15 86.6 L29.2 85.3 27.75 84.3 Q26.95 83.95 26.05 83.95 25.1 83.95 24.25 84.3 L22.8 85.3 22.5 85.65 22.45 86.35 22.55 87.6 22.75 88.15 23.15 88.95 23.75 89.6 25.25 90.65 26.95 90.95 27.2 90.95 28.7 90.6 30.15 89.6 30.5 89.25 30.5 88.5 30.2 86.7 30.15 86.6" fill="#b1c4cb" fill-rule="evenodd" stroke="none"/>
    <path d="M26.95 71.3 L26.95 74.25 Q29.4 74.25 31.45 75.15 L31.6 75.2 32.75 72.35 Q35.4 73.5 37.65 75.7 L37.6 75.75 37.2 77.35 36.1 78.45 Q37.45 79.95 38.15 81.75 L40.95 80.55 Q42.05 83.25 42.05 86.35 L42.05 87.6 39.45 87.6 Q39.45 89.5 39.05 91.15 L39.0 91.4 40.95 92.15 40.95 92.25 40.95 93.65 Q40.2 95.45 39.0 97.05 L38.4 97.8 37.45 98.75 35.65 96.95 35.55 97.05 35.45 97.15 32.4 99.45 32.75 100.4 32.35 102.1 32.4 102.2 Q30.25 103.15 27.85 103.35 L27.1 103.45 26.3 103.45 26.3 100.9 26.2 100.9 Q23.6 100.9 21.25 100.05 L21.15 100.4 20.25 102.25 Q17.5 101.1 15.15 98.85 L15.3 98.7 16.3 97.1 16.6 96.8 15.2 95.05 14.0 92.8 14.0 92.75 13.95 92.75 11.75 93.65 11.65 93.65 Q10.5 90.95 10.5 87.7 L10.5 87.6 10.55 87.6 11.8 86.35 13.1 86.35 13.2 85.45 Q13.4 84.15 13.95 82.85 L14.0 82.6 14.0 82.5 11.65 81.55 11.65 81.5 12.05 80.6 12.3 80.15 Q13.35 78.2 15.05 76.5 L15.1 76.4 15.15 76.4 16.15 75.75 16.25 75.7 16.3 75.7 17.95 77.35 Q19.45 76.15 21.1 75.45 L21.25 75.4 20.35 73.3 21.15 72.35 Q23.8 71.3 26.95 71.3 M30.15 86.6 L30.2 86.7 30.5 88.5 30.5 89.25 30.15 89.6 28.7 90.6 27.2 90.95 26.95 90.95 25.25 90.65 23.75 89.6 23.15 88.95 22.75 88.15 22.55 87.6 22.45 86.35 22.5 85.65 22.8 85.3 24.25 84.3 Q25.1 83.95 26.05 83.95 26.95 83.95 27.75 84.3 L29.2 85.3 30.15 86.6" fill="none" stroke="#005c8e" stroke-linecap="round" stroke-linejoin="round" stroke-width="4.0"/>
    <path d="M21.25 75.4 L20.35 73.3 21.15 72.35 22.3 75.2 22.3 75.25 21.25 75.4 M42.05 86.35 L42.05 87.6 39.45 87.6 39.0 86.45 39.0 86.35 42.05 86.35 M37.45 98.8 L35.65 96.95 35.5 95.0 35.5 94.9 37.6 97.05 37.45 98.8 M26.3 103.45 L26.3 100.95 26.2 100.95 26.95 98.55 26.95 101.5 26.3 103.45 M21.15 100.4 L20.25 102.25 Q17.5 101.15 15.15 98.85 L15.3 98.7 16.3 97.1 16.55 97.4 Q18.6 99.35 21.15 100.4 M14.0 92.8 L14.0 92.75 13.95 92.75 11.75 93.7 12.9 92.2 15.75 91.0 14.0 92.8 M14.0 82.55 L11.65 81.55 11.65 81.5 12.95 80.6 15.75 81.75 14.0 82.55" fill="#516870" fill-rule="evenodd" stroke="none"/>
    <path d="M21.15 72.35 Q23.8 71.3 26.95 71.3 L26.95 74.3 Q29.4 74.3 31.45 75.15 L31.6 75.2 32.75 72.35 Q35.4 73.5 37.65 75.7 L37.6 75.8 35.5 77.85 35.8 78.15 36.1 78.45 Q37.45 79.95 38.15 81.75 L40.95 80.55 Q42.05 83.25 42.05 86.35 L39.0 86.35 39.0 86.45 39.0 86.6 Q36.3 85.75 33.45 86.1 L32.0 86.25 31.7 84.85 30.45 83.05 Q29.75 82.25 28.8 81.9 27.8 81.5 26.75 81.5 L24.7 81.9 Q23.75 82.25 22.95 83.05 L22.9 83.05 Q22.2 83.85 21.8 84.85 L21.45 85.95 21.4 86.8 21.45 87.6 Q18.25 87.6 16.0 85.2 L15.6 84.85 15.05 84.1 15.05 84.05 Q15.2 83.1 15.5 82.25 L15.75 81.75 12.95 80.6 12.9 80.55 12.95 80.55 13.35 79.7 Q14.15 78.15 15.4 76.65 L16.15 75.8 16.25 75.7 16.3 75.7 17.95 77.4 18.4 77.85 18.85 77.45 Q20.0 76.3 21.35 75.65 L21.75 75.45 22.3 75.25 22.3 75.2 21.15 72.35" fill="#bbd4de" fill-rule="evenodd" stroke="none"/>
    <path d="M37.6 75.8 L37.2 77.4 36.1 78.45 35.8 78.15 35.5 77.85 37.6 75.8 M39.45 87.6 L39.45 87.65 Q39.45 89.5 39.05 91.15 L39.0 91.4 38.2 91.0 38.6 89.8 38.95 88.25 39.0 87.6 39.0 87.45 39.0 86.6 39.0 86.45 39.45 87.6 M40.95 92.2 L40.95 93.65 Q40.2 95.45 39.0 97.05 L38.4 97.8 37.45 98.8 37.6 97.05 37.65 97.05 39.75 94.55 40.4 93.4 40.95 92.2 M35.65 96.95 L35.65 97.0 35.55 97.05 35.45 97.2 32.4 99.5 31.6 97.65 Q33.75 96.75 35.5 95.0 L35.65 96.95 M32.75 100.4 L32.35 102.1 32.4 102.2 Q30.25 103.15 27.85 103.35 L27.1 103.45 26.3 103.45 26.95 101.5 31.3 100.95 31.8 100.8 Q32.25 100.55 32.75 100.4 M26.2 100.95 Q23.6 100.95 21.25 100.05 L22.3 97.65 Q24.5 98.55 26.95 98.55 L26.2 100.95 M16.6 96.85 L15.2 95.05 14.0 92.8 15.75 91.0 16.2 92.1 Q17.05 93.65 18.4 94.9 L16.6 96.85 M11.75 93.7 L11.65 93.7 Q10.5 90.95 10.5 87.7 L10.5 87.6 10.55 87.6 11.8 86.35 11.85 87.6 12.35 90.65 12.9 92.2 11.75 93.7 M13.1 86.35 L13.2 85.45 Q13.4 84.15 13.95 82.85 L14.0 82.6 14.0 82.55 15.75 81.75 15.5 82.25 Q15.2 83.1 15.05 84.05 L15.05 84.1 14.85 86.35 13.1 86.35 M11.65 81.5 L12.05 80.6 12.3 80.2 Q13.35 78.25 15.05 76.5 L15.1 76.45 15.15 76.45 16.15 75.8 15.4 76.65 Q14.15 78.15 13.35 79.7 L12.95 80.55 12.9 80.55 12.95 80.6 11.65 81.5 M17.95 77.4 Q19.45 76.15 21.1 75.45 L21.25 75.4 22.3 75.25 21.75 75.45 21.35 75.65 Q20.0 76.3 18.85 77.45 L18.4 77.85 17.95 77.4" fill="#6f8891" fill-rule="evenodd" stroke="none"/>
    <path d="M39.0 91.4 L40.95 92.15 40.95 92.2 40.4 93.4 39.75 94.55 37.65 97.05 37.6 97.05 35.5 94.9 35.5 95.0 Q33.75 96.75 31.6 97.65 L32.4 99.5 32.75 100.4 Q32.25 100.55 31.8 100.8 L31.3 100.95 26.95 101.5 26.95 98.55 Q24.5 98.55 22.3 97.65 L21.25 100.05 21.15 100.4 Q18.6 99.35 16.55 97.4 L16.3 97.1 16.6 96.85 18.4 94.9 Q17.05 93.65 16.2 92.1 L15.75 91.0 12.9 92.2 12.35 90.65 11.85 87.6 11.8 86.35 13.1 86.35 14.85 86.35 15.05 84.1 15.6 84.85 16.0 85.2 Q18.25 87.6 21.45 87.6 L21.8 88.9 22.3 89.8 22.9 90.65 24.7 91.85 26.75 92.2 27.05 92.2 28.85 91.75 30.45 90.65 30.9 90.25 31.7 88.9 Q32.05 87.95 32.05 86.8 L32.0 86.25 33.45 86.1 Q36.3 85.75 39.0 86.6 L39.0 87.45 39.0 87.6 38.95 88.25 38.6 89.8 38.2 91.0 39.0 91.4" fill="#b1c4cb" fill-rule="evenodd" stroke="none"/>
    <path d="M22.5 85.65 Q22.55 85.15 22.75 84.7 23.05 83.85 23.75 83.15 24.4 82.5 25.25 82.2 L26.95 81.8 28.7 82.2 Q29.55 82.5 30.15 83.15 L31.15 84.7 Q31.5 85.45 31.5 86.35 31.5 87.35 31.15 88.15 L30.5 89.25 30.5 88.5 30.2 86.7 30.15 86.6 29.2 85.3 27.75 84.3 Q26.95 83.95 26.05 83.95 25.1 83.95 24.25 84.3 L22.8 85.3 22.5 85.65" fill="#83979f" fill-rule="evenodd" stroke="none"/>
    <path d="M21.45 87.6 L21.4 86.8 21.45 85.95 21.8 84.85 Q22.2 83.85 22.9 83.05 L22.95 83.05 Q23.75 82.25 24.7 81.9 L26.75 81.5 Q27.8 81.5 28.8 81.9 29.75 82.25 30.45 83.05 L31.7 84.85 32.0 86.25 32.05 86.8 Q32.05 87.95 31.7 88.9 L30.9 90.25 30.45 90.65 28.85 91.75 27.05 92.2 26.75 92.2 24.7 91.85 22.9 90.65 22.3 89.8 21.8 88.9 21.45 87.6 M30.5 89.25 L31.15 88.15 Q31.5 87.35 31.5 86.35 31.5 85.45 31.15 84.7 L30.15 83.15 Q29.55 82.5 28.7 82.2 L26.95 81.8 25.25 82.2 Q24.4 82.5 23.75 83.15 23.05 83.85 22.75 84.7 22.55 85.15 22.5 85.65 L22.45 86.35 22.55 87.6 22.75 88.15 23.15 88.95 23.75 89.6 25.25 90.65 26.95 90.95 27.2 90.95 28.7 90.6 30.15 89.6 30.5 89.25" fill="#d5eef7" fill-rule="evenodd" stroke="none"/>
  </g>
</svg>
