<?xml version="1.0" encoding="UTF-8" standalone="no"?>
<svg xmlns:xlink="http://www.w3.org/1999/xlink" height="51.6px" width="161.0px" xmlns="http://www.w3.org/2000/svg">
  <g transform="matrix(1.0, 0.0, 0.0, 1.0, -10.3, 4.0)">
    <path d="M42.15 4.45 L42.65 27.55 Q42.35 29.85 41.5 32.0 L39.25 36.0 32.7 41.95 31.45 42.75 28.8 43.6 28.7 43.6 25.95 42.8 Q15.75 36.95 14.4 27.95 L14.3 4.85 14.4 4.85 14.4 4.8 17.1 4.6 24.3 2.5 26.2 1.5 28.0 0.25 28.0 0.0 28.2 0.1 28.3 0.0 28.35 0.25 Q34.15 4.3 42.15 4.45" fill="#fef081" fill-rule="evenodd" stroke="none"/>
    <path d="M42.15 4.45 Q34.15 4.3 28.35 0.25 L28.3 0.0 28.2 0.1 28.0 0.0 28.0 0.25 26.2 1.5 24.3 2.5 17.1 4.6 14.4 4.8 14.4 4.85 14.3 4.85 14.4 27.95 Q15.75 36.95 25.95 42.8 L28.7 43.6 28.8 43.6 31.45 42.75 32.7 41.95 39.25 36.0 41.5 32.0 Q42.35 29.85 42.65 27.55 L42.15 4.45 Z" fill="none" stroke="#ffffff" stroke-linecap="round" stroke-linejoin="round" stroke-width="8.0"/>
    <path d="M164.25 38.65 Q158.4 44.5 150.15 44.5 L42.5 44.5 Q34.25 44.5 28.4 38.65 22.55 32.8 22.55 24.55 22.55 16.3 28.35 10.45 L28.4 10.45 Q34.25 4.6 42.5 4.6 L150.15 4.6 Q158.4 4.6 164.25 10.45 170.1 16.3 170.1 24.55 170.1 32.8 164.25 38.65" fill="#ffffff" fill-rule="evenodd" stroke="none"/>
    <path d="M162.4 12.25 Q167.55 17.4 167.55 24.55 167.55 31.7 162.45 36.8 L162.4 36.85 Q157.3 41.95 150.15 41.95 L42.5 41.95 Q35.3 41.95 30.2 36.8 25.1 31.7 25.1 24.55 25.1 17.4 30.2 12.25 35.3 7.15 42.5 7.15 L150.15 7.15 Q157.3 7.15 162.4 12.25" fill="#663311" fill-rule="evenodd" stroke="none"/>
    <path d="M150.1 8.45 Q156.75 8.45 161.5 13.15 166.25 17.9 166.25 24.55 166.25 31.2 161.5 35.9 156.75 40.65 150.1 40.65 L42.45 40.65 Q35.8 40.65 31.05 35.9 26.35 31.2 26.35 24.55 26.35 17.9 31.05 13.15 35.8 8.45 42.45 8.45 L150.1 8.45" fill="url(#gradient0)" fill-rule="evenodd" stroke="none"/>
    <path d="M150.1 8.45 Q156.75 8.45 161.45 13.15 166.2 17.9 166.2 24.55 L166.2 24.95 26.35 24.95 26.35 24.55 Q26.35 17.9 31.05 13.15 35.8 8.45 42.45 8.45 L150.1 8.45" fill="url(#gradient1)" fill-rule="evenodd" stroke="none"/>
    <path d="M151.85 9.05 Q157.85 9.05 162.1 13.6 166.3 18.15 166.3 24.6 166.3 31.05 162.1 35.6 157.85 40.1 151.85 40.1 L40.5 40.1 Q34.5 40.1 30.25 35.6 26.05 31.05 26.05 24.6 26.05 18.15 30.25 13.6 34.5 9.05 40.5 9.05 L151.85 9.05" fill="url(#gradient2)" fill-rule="evenodd" stroke="none"/>
    <path d="M151.85 9.05 L40.5 9.05 Q34.5 9.05 30.25 13.6 26.05 18.15 26.05 24.6 26.05 31.05 30.25 35.6 34.5 40.1 40.5 40.1 L151.85 40.1 Q157.85 40.1 162.1 35.6 166.3 31.05 166.3 24.6 166.3 18.15 162.1 13.6 157.85 9.05 151.85 9.05 Z" fill="none" stroke="#ffffff" stroke-linecap="round" stroke-linejoin="round" stroke-width="10.0"/>
    <path d="M151.85 9.05 Q157.85 9.05 162.1 13.6 166.3 18.15 166.3 24.6 166.3 31.05 162.1 35.6 157.85 40.1 151.85 40.1 L40.5 40.1 Q34.5 40.1 30.25 35.6 26.05 31.05 26.05 24.6 26.05 18.15 30.25 13.6 34.5 9.05 40.5 9.05 L151.85 9.05" fill="url(#gradient3)" fill-rule="evenodd" stroke="none"/>
    <path d="M151.85 9.05 L40.5 9.05 Q34.5 9.05 30.25 13.6 26.05 18.15 26.05 24.6 26.05 31.05 30.25 35.6 34.5 40.1 40.5 40.1 L151.85 40.1 Q157.85 40.1 162.1 35.6 166.3 31.05 166.3 24.6 166.3 18.15 162.1 13.6 157.85 9.05 151.85 9.05 Z" fill="none" stroke="#b14d00" stroke-linecap="round" stroke-linejoin="round" stroke-width="4.0"/>
    <path d="M151.85 9.05 Q157.85 9.05 162.1 13.6 166.3 18.15 166.3 24.6 166.3 31.05 162.1 35.6 157.85 40.1 151.85 40.1 L40.5 40.1 Q34.5 40.1 30.25 35.6 26.05 31.05 26.05 24.6 26.05 18.15 30.25 13.6 34.5 9.05 40.5 9.05 L151.85 9.05" fill="url(#gradient4)" fill-rule="evenodd" stroke="none"/>
    <path d="M166.55 24.55 Q166.55 31.0 162.3 35.55 158.1 40.1 152.05 40.1 L40.75 40.1 Q34.7 40.1 30.45 35.55 26.25 31.0 26.25 24.55 26.25 18.15 30.45 13.6 34.7 9.05 40.75 9.05 L152.05 9.05 Q158.1 9.05 162.3 13.6 166.55 18.15 166.55 24.55" fill="url(#gradient5)" fill-rule="evenodd" stroke="none"/>
    <path d="M160.0 14.7 L160.0 14.75 Q160.0 16.6 158.8 17.9 157.55 19.25 155.85 19.25 L40.05 19.25 Q38.35 19.25 37.1 17.9 35.9 16.6 35.9 14.75 L35.9 14.7 Q35.9 12.85 37.1 11.55 38.35 10.25 40.05 10.25 L155.85 10.25 Q157.55 10.25 158.8 11.55 160.0 12.85 160.0 14.7" fill="url(#gradient6)" fill-rule="evenodd" stroke="none"/>
    <path d="M42.05 4.5 L42.55 27.6 Q41.5 36.55 31.45 42.7 L28.7 43.6 25.95 42.75 Q15.75 36.9 14.4 27.95 L14.3 4.85 Q22.3 4.5 28.0 0.25 L28.0 0.0 28.15 0.15 28.3 0.0 28.3 0.25 Q34.1 4.35 42.05 4.5 M28.7 41.3 L28.65 41.3 28.65 41.35 28.7 41.3" fill="#000000" fill-rule="evenodd" stroke="none"/>
    <path d="M42.05 4.5 Q34.1 4.35 28.3 0.25 L28.3 0.0 28.15 0.15 28.0 0.0 28.0 0.25 Q22.3 4.5 14.3 4.85 L14.4 27.95 Q15.75 36.9 25.95 42.75 L28.7 43.6 31.45 42.7 Q41.5 36.55 42.55 27.6 L42.05 4.5 Z" fill="none" stroke="#5e3700" stroke-linecap="round" stroke-linejoin="round" stroke-width="3.0"/>
    <path d="M42.15 4.45 L42.6 27.55 Q41.55 36.55 31.5 42.7 L28.8 43.6 26.0 42.75 Q15.75 36.9 14.5 27.9 L14.4 4.8 Q22.35 4.45 28.05 0.25 L28.0 0.0 28.25 0.15 28.3 0.0 28.35 0.25 Q34.15 4.3 42.15 4.45 M41.1 27.3 L40.65 7.8 40.55 7.15 Q38.55 6.95 38.55 5.35 L37.85 5.25 Q32.35 4.65 28.05 2.1 L28.05 2.35 Q23.9 4.8 18.65 5.5 L17.95 5.6 Q18.0 7.2 16.0 7.5 L15.95 8.15 16.05 27.65 Q17.35 36.25 27.5 41.8 L28.75 42.2 29.9 41.75 Q40.0 35.95 41.1 27.3" fill="#fff8bb" fill-rule="evenodd" stroke="none"/>
    <path d="M41.1 27.3 Q40.0 35.95 29.9 41.75 L28.75 42.2 27.5 41.8 Q17.35 36.25 16.05 27.65 L15.95 8.15 16.0 7.5 Q18.0 7.2 17.95 5.6 L18.65 5.5 Q23.9 4.8 28.05 2.35 L28.05 2.1 Q32.35 4.65 37.85 5.25 L38.55 5.35 Q38.55 6.95 40.55 7.15 L40.65 7.8 41.1 27.3 M36.75 6.9 Q31.15 6.35 28.1 4.75 L28.1 4.95 Q25.05 6.4 19.75 7.15 19.55 8.85 18.05 9.4 L18.15 25.9 Q18.6 33.05 24.15 37.2 L28.7 39.95 33.15 37.05 Q38.8 32.45 38.85 25.65 L38.55 9.15 Q37.1 8.6 36.75 6.9 M29.65 41.05 L29.85 40.95 29.35 41.15 29.65 41.05 M18.6 6.35 L18.9 6.3 18.7 6.3 18.6 6.35 M37.95 6.1 L37.8 6.05 37.6 6.05 37.95 6.1 M28.75 41.3 L28.7 41.3 28.7 41.35 28.75 41.3 M28.7 41.35 L28.75 41.35 29.0 41.3 28.7 41.35" fill="#ce9717" fill-rule="evenodd" stroke="none"/>
    <path d="M37.95 6.1 L37.6 6.05 37.8 6.05 37.95 6.1 M18.6 6.35 L18.7 6.3 18.9 6.3 18.6 6.35 M29.65 41.05 L29.35 41.15 29.85 40.95 29.65 41.05 M28.7 41.35 L29.0 41.3 28.75 41.35 28.7 41.35" fill="#a58d8d" fill-rule="evenodd" stroke="none"/>
    <path d="M36.75 6.9 Q37.1 8.6 38.55 9.15 L38.85 25.65 Q38.8 32.45 33.15 37.05 L28.7 39.95 24.15 37.2 Q18.6 33.05 18.15 25.9 L18.05 9.4 Q19.55 8.85 19.75 7.15 25.05 6.4 28.1 4.95 L28.1 4.75 Q31.15 6.35 36.75 6.9" fill="#ffe16f" fill-rule="evenodd" stroke="none"/>
    <path d="M35.0 6.7 L36.85 6.95 Q37.15 8.6 38.6 9.1 L38.95 25.6 Q38.85 32.4 33.25 37.1 L28.75 39.95 26.5 38.6 30.9 35.75 Q36.55 31.1 36.65 24.3 L36.3 7.8 Q35.45 7.45 35.0 6.7" fill="#ecbd02" fill-rule="evenodd" stroke="none"/>
    <path d="M30.75 7.2 L30.8 7.4 Q27.75 8.85 22.45 9.65 22.25 11.3 20.75 11.9 L20.85 28.4 Q21.15 33.65 24.3 37.25 L24.2 37.25 Q18.65 33.15 18.2 25.95 L18.1 9.45 Q19.6 8.85 19.8 7.2 25.1 6.45 28.15 4.95 L28.15 4.8 Q31.15 6.35 36.8 7.0 37.15 8.65 38.6 9.15 L38.6 9.3 Q33.55 8.7 30.75 7.2" fill="#ffffff" fill-rule="evenodd" stroke="none"/>
    <path d="M40.85 14.45 L40.95 19.5 15.9 19.8 15.8 14.75 40.85 14.45" fill="#ce9717" fill-rule="evenodd" stroke="none"/>
    <path d="M40.35 15.25 L40.4 18.55 16.55 18.85 16.5 15.55 40.35 15.25" fill="#ff9c09" fill-rule="evenodd" stroke="none"/>
    <path d="M30.85 5.05 L31.3 39.1 28.85 42.05 26.25 39.15 25.8 5.1 28.35 2.2 30.85 5.05" fill="#ce9717" fill-rule="evenodd" stroke="none"/>
    <path d="M29.95 5.9 L30.4 38.35 28.85 40.85 27.1 38.4 26.65 5.95 28.4 3.6 29.95 5.9" fill="#ff9c09" fill-rule="evenodd" stroke="none"/>
    <path d="M28.6 28.0 Q28.4 20.05 22.2 17.2 27.9 15.65 28.45 9.55 29.5 16.1 34.65 16.65 28.65 19.85 28.6 28.0" fill="#ffffff" fill-rule="evenodd" stroke="none"/>
    <path d="M28.5 22.55 Q28.4 18.6 25.35 17.25 28.15 16.45 28.45 13.45 28.95 16.7 31.5 16.95 28.5 18.55 28.5 22.55" fill="#ffd944" fill-rule="evenodd" stroke="none"/>
  </g>
  <defs>
    <linearGradient gradientTransform="matrix(1.0E-4, 0.0197, -0.0197, 1.0E-4, 96.25, 24.55)" gradientUnits="userSpaceOnUse" id="gradient0" spreadMethod="pad" x1="-819.2" x2="819.2">
      <stop offset="0.0" stop-color="#fd3e64"/>
      <stop offset="0.7137254901960784" stop-color="#ffbb55"/>
      <stop offset="0.9333333333333333" stop-color="#fed9a3"/>
    </linearGradient>
    <linearGradient gradientTransform="matrix(1.0E-4, 0.0151, -0.0197, 1.0E-4, 95.25, 16.0)" gradientUnits="userSpaceOnUse" id="gradient1" spreadMethod="pad" x1="-819.2" x2="819.2">
      <stop offset="0.0" stop-color="#ffffff"/>
      <stop offset="1.0" stop-color="#ffffff" stop-opacity="0.0"/>
    </linearGradient>
    <linearGradient gradientTransform="matrix(2.0E-4, -0.0184, 0.0177, 2.0E-4, 96.25, 24.55)" gradientUnits="userSpaceOnUse" id="gradient2" spreadMethod="pad" x1="-819.2" x2="819.2">
      <stop offset="0.0" stop-color="#ffc85f"/>
      <stop offset="1.0" stop-color="#ff9900"/>
    </linearGradient>
    <linearGradient gradientTransform="matrix(2.0E-4, -0.0184, 0.0177, 2.0E-4, 96.25, 24.55)" gradientUnits="userSpaceOnUse" id="gradient3" spreadMethod="pad" x1="-819.2" x2="819.2">
      <stop offset="0.0" stop-color="#ffc85f"/>
      <stop offset="1.0" stop-color="#ff9900"/>
    </linearGradient>
    <linearGradient gradientTransform="matrix(0.0, 0.0194, -0.0177, 0.0, 95.95, 25.2)" gradientUnits="userSpaceOnUse" id="gradient4" spreadMethod="pad" x1="-819.2" x2="819.2">
      <stop offset="0.0" stop-color="#ffa110"/>
      <stop offset="1.0" stop-color="#ffd995"/>
    </linearGradient>
    <linearGradient gradientTransform="matrix(-2.0E-4, 0.0217, -0.019, -2.0E-4, 96.45, 24.6)" gradientUnits="userSpaceOnUse" id="gradient5" spreadMethod="pad" x1="-819.2" x2="819.2">
      <stop offset="0.00392156862745098" stop-color="#ec4727"/>
      <stop offset="1.0" stop-color="#f7a72d"/>
    </linearGradient>
    <linearGradient gradientTransform="matrix(0.0, 0.0062, -0.008, 0.0, 86.65, 13.25)" gradientUnits="userSpaceOnUse" id="gradient6" spreadMethod="pad" x1="-819.2" x2="819.2">
      <stop offset="0.0" stop-color="#ffffff"/>
      <stop offset="1.0" stop-color="#ffffff" stop-opacity="0.0"/>
    </linearGradient>
  </defs>
</svg>
