<?xml version="1.0" encoding="UTF-8" standalone="no"?>
<svg xmlns:xlink="http://www.w3.org/1999/xlink" height="141.0px" width="161.65px" xmlns="http://www.w3.org/2000/svg">
  <g transform="matrix(1.0, 0.0, 0.0, 1.0, -71.8, -158.35)">
    <path d="M188.0 171.95 Q189.35 170.75 191.15 170.65 193.0 170.75 194.3 172.1 195.55 173.45 195.45 175.25 195.45 177.15 194.1 178.4 192.75 179.6 190.95 179.55 189.95 179.5 187.7 180.4 L182.05 185.8 185.95 187.9 Q194.85 193.05 201.75 200.7 208.1 207.7 211.55 216.5 216.9 217.65 221.2 221.5 L221.6 221.85 222.55 222.75 222.75 223.0 224.85 225.5 225.9 227.05 Q228.4 231.1 229.15 235.9 L229.45 239.0 229.45 240.05 Q229.45 242.5 229.05 244.8 228.6 247.45 227.55 249.85 L226.85 251.4 Q225.25 254.45 222.75 257.1 L222.0 257.85 221.35 258.45 219.95 259.6 219.6 259.9 Q214.8 263.5 208.75 264.05 L206.5 267.7 202.55 272.85 201.95 273.6 200.95 274.75 200.5 275.2 200.05 275.7 199.85 275.85 197.3 278.35 196.65 278.9 196.35 279.3 194.5 280.85 194.4 280.9 192.95 282.1 191.3 283.3 186.7 286.4 Q186.1 286.7 185.55 287.05 L183.15 288.35 181.9 289.05 179.4 290.15 Q175.25 291.95 170.75 293.1 L164.4 294.5 153.0 295.35 151.95 295.35 Q138.7 295.15 127.55 290.55 L125.55 289.7 124.2 289.05 121.7 287.8 Q118.1 285.85 114.65 283.3 113.1 282.25 111.65 281.0 L110.85 280.3 110.8 280.25 108.65 278.35 108.4 278.1 106.15 275.9 105.85 275.55 104.35 273.9 101.95 271.15 98.65 266.45 97.55 264.65 Q90.85 264.35 85.6 260.4 L85.25 260.15 83.85 258.95 83.25 258.4 82.5 257.65 Q80.0 255.0 78.4 251.95 L78.4 251.9 77.7 250.35 Q76.65 247.95 76.2 245.3 75.8 243.0 75.8 240.55 L75.8 239.55 Q75.85 237.95 76.05 236.4 76.8 231.6 79.35 227.55 L80.4 226.0 82.5 223.55 82.5 223.5 82.7 223.3 83.65 222.35 84.0 222.0 Q88.55 218.0 94.2 216.9 L94.4 216.5 Q95.6 213.55 97.15 210.75 L97.25 210.55 97.4 210.35 Q102.55 201.3 110.55 194.45 118.5 187.7 128.1 183.85 L125.5 172.95 Q124.15 171.0 123.25 170.55 121.7 169.6 121.25 167.85 120.85 166.05 121.85 164.45 122.75 162.95 124.5 162.45 126.35 162.05 127.95 162.95 129.45 164.0 129.9 165.8 130.35 167.55 129.3 169.05 128.8 170.0 128.25 172.25 L130.85 182.85 Q137.9 180.35 145.4 179.65 156.05 178.6 166.55 180.55 173.15 181.85 179.25 184.45 L185.8 178.25 186.7 175.0 Q186.6 173.15 188.0 171.95" fill="#000000" fill-rule="evenodd" stroke="none"/>
    <path d="M188.0 171.95 Q186.6 173.15 186.7 175.0 L185.8 178.25 179.25 184.45 Q173.15 181.85 166.55 180.55 156.05 178.6 145.4 179.65 137.9 180.35 130.85 182.85 L128.25 172.25 Q128.8 170.0 129.3 169.05 130.35 167.55 129.9 165.8 129.45 164.0 127.95 162.95 126.35 162.05 124.5 162.45 122.75 162.95 121.85 164.45 120.85 166.05 121.25 167.85 121.7 169.6 123.25 170.55 124.15 171.0 125.5 172.95 L128.1 183.85 Q118.5 187.7 110.55 194.45 102.55 201.3 97.4 210.35 L97.25 210.55 97.15 210.75 Q95.6 213.55 94.4 216.5 L94.2 216.9 Q88.55 218.0 84.0 222.0 L83.65 222.35 82.7 223.3 82.5 223.5 82.5 223.55 80.4 226.0 79.35 227.55 Q76.8 231.6 76.05 236.4 75.85 237.95 75.8 239.55 L75.8 240.55 Q75.8 243.0 76.2 245.3 76.65 247.95 77.7 250.35 L78.4 251.9 78.4 251.95 Q80.0 255.0 82.5 257.65 L83.25 258.4 83.85 258.95 85.25 260.15 85.6 260.4 Q90.85 264.35 97.55 264.65 L98.65 266.45 101.95 271.15 104.35 273.9 105.85 275.55 106.15 275.9 108.4 278.1 108.65 278.35 110.8 280.25 110.85 280.3 111.65 281.0 Q113.1 282.25 114.65 283.3 118.1 285.85 121.7 287.8 L124.2 289.05 125.55 289.7 127.55 290.55 Q138.7 295.15 151.95 295.35 L153.0 295.35 164.4 294.5 170.75 293.1 Q175.25 291.95 179.4 290.15 L181.9 289.05 183.15 288.35 185.55 287.05 Q186.1 286.7 186.7 286.4 L191.3 283.3 192.95 282.1 194.4 280.9 194.5 280.85 196.35 279.3 196.65 278.9 197.3 278.35 199.85 275.85 200.05 275.7 200.5 275.2 200.95 274.75 201.95 273.6 202.55 272.85 206.5 267.7 208.75 264.05 Q214.8 263.5 219.6 259.9 L219.95 259.6 221.35 258.45 222.0 257.85 222.75 257.1 Q225.25 254.45 226.85 251.4 L227.55 249.85 Q228.6 247.45 229.05 244.8 229.45 242.5 229.45 240.05 L229.45 239.0 229.15 235.9 Q228.4 231.1 225.9 227.05 L224.85 225.5 222.75 223.0 222.55 222.75 221.6 221.85 221.2 221.5 Q216.9 217.65 211.55 216.5 208.1 207.7 201.75 200.7 194.85 193.05 185.95 187.9 L182.05 185.8 187.7 180.4 Q189.95 179.5 190.95 179.55 192.75 179.6 194.1 178.4 195.45 177.15 195.45 175.25 195.55 173.45 194.3 172.1 193.0 170.75 191.15 170.65 189.35 170.75 188.0 171.95 Z" fill="none" stroke="#1d5285" stroke-linecap="round" stroke-linejoin="round" stroke-opacity="0.83137256" stroke-width="8.0"/>
    <path d="M191.2 170.6 Q193.05 170.7 194.35 172.05 195.55 173.4 195.45 175.2 195.5 177.1 194.1 178.4 192.8 179.6 191.0 179.55 190.0 179.5 187.75 180.35 L174.15 193.3 Q171.9 193.15 172.1 191.15 L185.85 178.2 Q186.65 176.05 186.7 175.0 186.65 173.1 188.0 171.9 189.35 170.7 191.2 170.6" fill="#4686b0" fill-rule="evenodd" stroke="none"/>
    <path d="M194.95 174.95 Q194.9 173.8 194.1 173.0 193.3 172.2 192.2 172.2 191.05 172.2 190.25 173.0 189.45 173.8 189.45 174.9 189.4 176.05 190.2 176.85 191.0 177.65 192.2 177.65 193.3 177.7 194.1 176.9 194.9 176.1 194.95 174.95" fill="#5eb1d5" fill-rule="evenodd" stroke="none"/>
    <path d="M194.9 174.65 Q194.9 173.95 194.4 173.4 193.9 172.9 193.2 172.9 192.45 172.9 191.95 173.4 191.4 173.9 191.45 174.65 191.45 175.35 191.95 175.85 192.45 176.4 193.15 176.4 193.85 176.35 194.4 175.85 194.9 175.35 194.9 174.65" fill="#aed9ea" fill-rule="evenodd" stroke="none"/>
    <path d="M129.9 165.75 Q130.35 167.5 129.3 169.0 128.8 169.95 128.3 172.2 L132.7 190.5 Q131.75 192.3 129.8 191.15 L125.55 172.95 Q124.15 171.0 123.25 170.55 121.7 169.55 121.25 167.85 120.8 166.0 121.85 164.4 122.75 162.85 124.5 162.4 126.35 162.0 127.95 162.95 129.45 164.0 129.9 165.75" fill="#4686b0" fill-rule="evenodd" stroke="none"/>
    <path d="M122.5 164.5 Q123.05 163.6 124.15 163.35 125.3 163.1 126.25 163.7 127.2 164.35 127.45 165.45 127.65 166.55 127.05 167.5 126.45 168.45 125.3 168.7 124.2 168.95 123.3 168.3 122.3 167.7 122.1 166.6 121.85 165.5 122.5 164.5" fill="#5eb1d5" fill-rule="evenodd" stroke="none"/>
    <path d="M122.65 164.25 Q123.05 163.6 123.75 163.45 124.45 163.3 125.05 163.7 125.65 164.1 125.8 164.8 125.95 165.5 125.55 166.1 125.2 166.7 124.5 166.85 L123.15 166.65 Q122.55 166.25 122.4 165.55 122.25 164.85 122.65 164.25" fill="#aed9ea" fill-rule="evenodd" stroke="none"/>
    <path d="M221.2 221.45 L221.6 221.8 219.8 225.5 219.35 225.2 221.2 221.45 M229.15 235.85 L229.45 239.0 229.45 240.0 Q229.45 242.45 229.05 244.75 228.6 247.4 227.55 249.8 L226.85 251.35 226.85 251.4 Q225.25 254.45 222.75 257.1 L222.0 257.85 221.35 258.4 222.65 240.1 216.85 231.9 220.75 226.2 223.2 228.3 224.5 229.6 Q227.05 232.3 229.15 235.85" fill="#65a2de" fill-rule="evenodd" stroke="none"/>
    <path d="M221.2 221.45 L219.35 225.2 Q208.0 217.7 190.4 222.9 197.1 215.9 206.55 215.9 214.95 215.9 221.2 221.45 M219.6 259.85 Q213.9 264.1 206.55 264.1 202.15 264.1 198.35 262.65 194.65 261.1 191.45 258.2 207.2 262.85 219.7 255.4 L219.4 259.6 219.6 259.85" fill="#266fb7" fill-rule="evenodd" stroke="none"/>
    <path d="M219.35 225.2 L219.8 225.5 215.55 231.7 221.3 239.9 219.95 259.6 219.6 259.85 219.4 259.6 219.7 255.4 220.75 239.9 215.0 231.7 219.2 225.5 219.35 225.2" fill="#7baee1" fill-rule="evenodd" stroke="none"/>
    <path d="M219.8 225.5 L221.6 221.8 222.55 222.75 221.1 225.65 220.75 226.2 216.85 231.9 222.65 240.1 221.35 258.4 219.95 259.6 221.3 239.9 215.55 231.7 219.8 225.5" fill="#1e5184" fill-rule="evenodd" stroke="none"/>
    <path d="M191.45 258.2 L190.35 257.1 Q187.3 253.85 185.6 250.05 183.6 245.45 183.6 240.0 183.6 230.0 190.35 222.95 L190.4 222.9 Q208.0 217.7 219.35 225.2 L219.2 225.5 215.0 231.7 220.75 239.9 219.7 255.4 Q207.2 262.85 191.45 258.2" fill="#3a89d6" fill-rule="evenodd" stroke="none"/>
    <path d="M222.55 222.75 L222.75 222.95 222.75 223.0 224.85 225.45 225.9 227.0 Q228.4 231.05 229.15 235.85 227.05 232.3 224.5 229.6 L223.2 228.3 220.75 226.2 221.1 225.65 222.55 222.75" fill="#2d81d2" fill-rule="evenodd" stroke="none"/>
    <path d="M218.75 232.0 Q219.1 232.3 219.6 232.3 L220.4 232.0 220.75 231.3 220.4 230.6 Q220.05 230.3 219.6 230.3 219.1 230.3 218.75 230.6 218.45 230.9 218.45 231.3 218.45 231.7 218.75 232.0" fill="#c0d9f1" fill-rule="evenodd" stroke="none"/>
    <path d="M218.75 232.45 Q219.1 232.75 219.6 232.75 L220.4 232.45 220.75 231.75 220.4 231.05 Q220.05 230.75 219.6 230.75 219.1 230.75 218.75 231.05 218.45 231.35 218.45 231.75 218.45 232.15 218.75 232.45" fill="#215e9a" fill-rule="evenodd" stroke="none"/>
    <path d="M217.6 241.15 L218.45 241.45 219.25 241.15 219.6 240.45 Q219.6 240.05 219.25 239.75 218.9 239.45 218.45 239.45 217.95 239.45 217.6 239.75 217.3 240.05 217.3 240.45 217.3 240.85 217.6 241.15" fill="#c0d9f1" fill-rule="evenodd" stroke="none"/>
    <path d="M217.6 241.6 L218.45 241.9 219.25 241.6 219.6 240.9 Q219.6 240.5 219.25 240.2 218.9 239.9 218.45 239.9 217.95 239.9 217.6 240.2 217.3 240.5 217.3 240.9 217.3 241.3 217.6 241.6" fill="#215e9a" fill-rule="evenodd" stroke="none"/>
    <path d="M83.65 222.35 L84.0 222.0 85.9 225.7 85.45 226.0 83.65 222.35 M83.85 258.95 L83.2 258.35 82.5 257.6 Q80.0 254.95 78.4 251.9 L78.4 251.85 77.65 250.3 Q76.65 247.9 76.2 245.3 75.75 243.0 75.75 240.55 L75.8 239.55 Q75.85 237.9 76.05 236.4 78.2 232.85 80.7 230.15 L82.05 228.8 Q83.2 227.65 84.5 226.7 L88.35 232.4 82.6 240.6 83.85 258.95" fill="#65a2de" fill-rule="evenodd" stroke="none"/>
    <path d="M84.0 222.0 Q90.25 216.4 98.7 216.4 108.15 216.4 114.85 223.4 97.25 218.2 85.9 225.7 L84.0 222.0 M113.8 258.7 Q110.6 261.65 106.85 263.15 103.05 264.65 98.7 264.65 91.3 264.65 85.6 260.4 L85.8 260.1 85.55 255.9 Q98.0 263.35 113.8 258.7" fill="#266fb7" fill-rule="evenodd" stroke="none"/>
    <path d="M76.05 236.4 Q76.8 231.55 79.35 227.55 L80.4 225.95 82.5 223.5 82.5 223.45 82.7 223.25 84.15 226.2 84.5 226.7 Q83.2 227.65 82.05 228.8 L80.7 230.15 Q78.2 232.85 76.05 236.4" fill="#2d81d2" fill-rule="evenodd" stroke="none"/>
    <path d="M85.25 260.1 L83.85 258.95 82.6 240.6 88.35 232.4 84.5 226.7 84.15 226.2 82.7 223.25 83.65 222.35 85.45 226.0 89.65 232.2 83.95 240.45 85.25 260.1" fill="#1e5184" fill-rule="evenodd" stroke="none"/>
    <path d="M114.85 223.4 L114.9 223.45 Q121.6 230.55 121.6 240.55 121.6 246.0 119.65 250.55 117.95 254.35 114.9 257.6 L113.8 258.7 Q98.0 263.35 85.55 255.9 L84.45 240.45 90.2 232.2 86.0 226.0 85.9 225.7 Q97.25 218.2 114.85 223.4" fill="#3a89d6" fill-rule="evenodd" stroke="none"/>
    <path d="M85.6 260.4 L85.25 260.1 83.95 240.45 89.65 232.2 85.45 226.0 85.9 225.7 86.0 226.0 90.2 232.2 84.45 240.45 85.55 255.9 85.8 260.1 85.6 260.4" fill="#7baee1" fill-rule="evenodd" stroke="none"/>
    <path d="M86.5 232.55 L85.65 232.85 84.85 232.55 Q84.5 232.25 84.5 231.85 84.5 231.45 84.85 231.15 85.2 230.85 85.65 230.85 86.15 230.85 86.5 231.15 L86.8 231.85 86.5 232.55" fill="#c0d9f1" fill-rule="evenodd" stroke="none"/>
    <path d="M86.5 232.95 L85.65 233.25 84.85 232.95 Q84.5 232.65 84.5 232.25 84.5 231.85 84.85 231.55 85.2 231.25 85.65 231.25 86.15 231.25 86.5 231.55 L86.8 232.25 86.5 232.95" fill="#215e9a" fill-rule="evenodd" stroke="none"/>
    <path d="M87.7 241.65 L86.85 241.95 86.05 241.65 Q85.7 241.35 85.7 240.95 85.7 240.55 86.05 240.25 86.4 239.95 86.85 239.95 87.35 239.95 87.7 240.25 L88.0 240.95 87.7 241.65" fill="#c0d9f1" fill-rule="evenodd" stroke="none"/>
    <path d="M87.7 242.15 L86.85 242.45 86.05 242.15 Q85.7 241.85 85.7 241.45 85.7 241.05 86.05 240.75 86.4 240.45 86.85 240.45 87.35 240.45 87.7 240.75 L88.0 241.45 87.7 242.15" fill="#215e9a" fill-rule="evenodd" stroke="none"/>
  </g>
</svg>
