<?xml version="1.0" encoding="UTF-8" standalone="no"?>
<svg xmlns:xlink="http://www.w3.org/1999/xlink" height="8.2px" width="23.1px" xmlns="http://www.w3.org/2000/svg">
  <g transform="matrix(1.0, 0.0, 0.0, 1.0, -479.25, -21.15)">
    <path d="M483.75 26.1 L483.4 26.15 Q482.85 26.15 482.85 25.6 L482.9 25.35 482.9 25.6 Q482.9 26.1 483.5 26.1 L483.75 26.1" fill="url(#gradient0)" fill-rule="evenodd" stroke="none"/>
    <path d="M482.9 25.35 L482.9 25.25 Q483.0 25.05 483.35 25.0 L483.4 25.0 Q484.1 25.1 483.95 25.7 L483.85 25.9 483.75 26.05 483.75 26.1 483.5 26.1 Q482.9 26.1 482.9 25.6 L482.9 25.35 M482.85 24.9 L482.7 25.05 482.7 25.0 482.85 24.8 482.85 24.9" fill="#ffffff" fill-rule="evenodd" stroke="none"/>
    <path d="M486.2 28.1 Q485.0 29.35 483.3 29.35 481.6 29.35 480.35 28.1 479.25 26.9 479.25 25.2 479.25 23.5 480.35 22.25 481.6 21.15 483.3 21.15 485.0 21.15 486.2 22.25 487.45 23.5 487.45 25.2 487.45 26.9 486.2 28.1" fill="#2f3f7b" fill-rule="evenodd" stroke="none"/>
    <path d="M480.05 27.1 L479.9 26.8 Q479.55 26.0 479.55 25.15 479.55 23.55 480.7 22.5 481.85 21.35 483.4 21.35 485.0 21.35 486.1 22.5 487.2 23.55 487.2 25.15 487.2 26.75 486.1 27.85 485.0 29.0 483.4 29.0 L483.25 29.0 482.55 28.95 482.05 28.8 480.7 27.85 480.05 27.1" fill="url(#gradient1)" fill-rule="evenodd" stroke="none"/>
    <path d="M482.05 28.8 L480.65 27.85 480.05 27.1 480.7 27.85 482.05 28.8" fill="url(#gradient2)" fill-rule="evenodd" stroke="none"/>
    <path d="M481.25 25.25 Q481.25 24.45 481.85 23.75 482.5 23.1 483.35 23.1 484.2 23.1 484.85 23.75 485.5 24.45 485.5 25.25 485.5 26.15 484.85 26.75 484.2 27.45 483.35 27.45 482.5 27.45 481.85 26.75 481.25 26.15 481.25 25.25" fill="#0f2371" fill-rule="evenodd" stroke="none"/>
    <path d="M481.05 25.2 L480.35 25.1 480.05 24.55 Q479.9 24.15 480.2 23.8 480.4 23.45 480.8 23.4 L481.45 23.5 481.85 24.05 481.65 24.8 481.05 25.2" fill="#ffffff" fill-opacity="0.9019608" fill-rule="evenodd" stroke="none"/>
    <path d="M498.9 25.0 L498.9 25.05 498.75 24.9 498.75 24.8 498.9 25.0 M498.7 25.35 L498.7 25.6 Q498.7 26.1 498.1 26.1 L497.9 26.1 497.85 26.05 497.75 25.9 497.65 25.7 Q497.5 25.1 498.2 25.0 L498.25 25.0 Q498.6 25.05 498.7 25.25 L498.7 25.35" fill="#ffffff" fill-rule="evenodd" stroke="none"/>
    <path d="M498.7 25.35 L498.75 25.6 Q498.75 26.15 498.2 26.15 L497.9 26.1 498.1 26.1 Q498.7 26.1 498.7 25.6 L498.7 25.35" fill="url(#gradient3)" fill-rule="evenodd" stroke="none"/>
    <path d="M495.4 28.1 Q496.6 29.35 498.3 29.35 500.0 29.35 501.25 28.1 502.35 26.9 502.35 25.2 502.35 23.5 501.25 22.25 500.0 21.15 498.3 21.15 496.6 21.15 495.4 22.25 494.15 23.5 494.15 25.2 494.15 26.9 495.4 28.1" fill="#2f3f7b" fill-rule="evenodd" stroke="none"/>
    <path d="M499.55 28.8 L499.05 28.95 498.35 29.0 498.2 29.0 Q496.6 29.0 495.5 27.85 494.4 26.75 494.4 25.15 494.4 23.55 495.5 22.5 496.6 21.35 498.2 21.35 499.75 21.35 500.9 22.5 502.05 23.55 502.05 25.15 L501.7 26.8 501.55 27.1 500.9 27.85 499.55 28.8" fill="url(#gradient4)" fill-rule="evenodd" stroke="none"/>
    <path d="M499.55 28.8 L500.9 27.85 501.55 27.1 500.95 27.85 499.55 28.8" fill="url(#gradient5)" fill-rule="evenodd" stroke="none"/>
    <path d="M500.25 25.25 Q500.25 26.15 499.65 26.75 499.0 27.45 498.15 27.45 497.3 27.45 496.65 26.75 496.0 26.15 496.0 25.25 496.0 24.45 496.65 23.75 497.3 23.1 498.15 23.1 499.0 23.1 499.65 23.75 500.25 24.45 500.25 25.25" fill="#0f2371" fill-rule="evenodd" stroke="none"/>
    <path d="M500.55 25.2 L501.25 25.1 501.55 24.55 Q501.7 24.15 501.4 23.8 501.2 23.45 500.8 23.4 L500.15 23.5 Q499.8 23.75 499.75 24.05 499.7 24.45 499.95 24.8 L500.55 25.2" fill="#ffffff" fill-opacity="0.9019608" fill-rule="evenodd" stroke="none"/>
  </g>
  <defs>
    <linearGradient gradientTransform="matrix(5.0E-4, -5.0E-4, 5.0E-4, 5.0E-4, 483.35, 25.6)" gradientUnits="userSpaceOnUse" id="gradient0" spreadMethod="pad" x1="-819.2" x2="819.2">
      <stop offset="0.0" stop-color="#660000"/>
      <stop offset="1.0" stop-color="#ff9900"/>
    </linearGradient>
    <linearGradient gradientTransform="matrix(0.0018, -0.0043, 0.0043, 0.0018, 483.4, 25.15)" gradientUnits="userSpaceOnUse" id="gradient1" spreadMethod="pad" x1="-819.2" x2="819.2">
      <stop offset="0.0" stop-color="#00e6ff"/>
      <stop offset="1.0" stop-color="#4d81b3"/>
    </linearGradient>
    <linearGradient gradientTransform="matrix(0.0045, 0.0, 0.0, 0.0045, 483.3, 25.25)" gradientUnits="userSpaceOnUse" id="gradient2" spreadMethod="pad" x1="-819.2" x2="819.2">
      <stop offset="0.0" stop-color="#dd4200"/>
      <stop offset="1.0" stop-color="#ffcc00"/>
    </linearGradient>
    <linearGradient gradientTransform="matrix(-5.0E-4, -5.0E-4, -5.0E-4, 5.0E-4, 498.25, 25.6)" gradientUnits="userSpaceOnUse" id="gradient3" spreadMethod="pad" x1="-819.2" x2="819.2">
      <stop offset="0.0" stop-color="#660000"/>
      <stop offset="1.0" stop-color="#ff9900"/>
    </linearGradient>
    <linearGradient gradientTransform="matrix(-0.0018, -0.0043, -0.0043, 0.0018, 498.2, 25.15)" gradientUnits="userSpaceOnUse" id="gradient4" spreadMethod="pad" x1="-819.2" x2="819.2">
      <stop offset="0.0" stop-color="#00e6ff"/>
      <stop offset="1.0" stop-color="#4d81b3"/>
    </linearGradient>
    <linearGradient gradientTransform="matrix(-0.0045, 0.0, 0.0, 0.0045, 498.3, 25.25)" gradientUnits="userSpaceOnUse" id="gradient5" spreadMethod="pad" x1="-819.2" x2="819.2">
      <stop offset="0.0" stop-color="#dd4200"/>
      <stop offset="1.0" stop-color="#ffcc00"/>
    </linearGradient>
  </defs>
</svg>
