<?xml version="1.0" encoding="UTF-8" standalone="no"?>
<svg xmlns:xlink="http://www.w3.org/1999/xlink" height="276.7px" width="745.35px" xmlns="http://www.w3.org/2000/svg">
  <g transform="matrix(1.0, 0.0, 0.0, 1.0, -188.75, -485.85)">
    <path d="M905.35 570.05 Q934.1 595.65 934.1 624.2 934.1 652.75 905.35 678.35 876.6 704.0 822.75 723.4 770.35 742.35 702.85 752.45 635.4 762.55 561.45 762.55 487.45 762.55 420.0 752.45 352.5 742.35 300.1 723.4 246.25 704.0 217.5 678.35 188.75 652.75 188.75 624.2 188.75 595.65 217.5 570.05 246.25 544.4 300.1 525.0 352.5 506.05 420.0 495.95 487.45 485.85 561.45 485.85 635.4 485.85 702.85 495.95 770.35 506.05 822.75 525.0 876.6 544.4 905.35 570.05" fill="#801421" fill-rule="evenodd" stroke="none"/>
  </g>
</svg>
