<?xml version="1.0" encoding="UTF-8" standalone="no"?>
<svg xmlns:xlink="http://www.w3.org/1999/xlink" height="26.8px" width="26.8px" xmlns="http://www.w3.org/2000/svg">
  <g transform="matrix(1.0, 0.0, 0.0, 1.0, 0.0, -1.15)">
    <path d="M24.1 1.15 Q26.8 1.15 26.8 3.85 L26.8 25.25 Q26.8 27.95 24.1 27.95 L2.65 27.95 Q0.0 27.95 0.0 25.25 L0.0 3.85 Q0.0 1.15 2.65 1.15 L24.1 1.15" fill="#888888" fill-rule="evenodd" stroke="none"/>
    <path d="M22.8 2.95 Q25.2 2.95 25.2 5.35 L25.2 24.4 Q25.2 26.8 22.8 26.8 L3.75 26.8 Q1.35 26.8 1.35 24.4 L1.35 5.35 Q1.35 2.95 3.75 2.95 L22.8 2.95" fill="#b7b7b7" fill-rule="evenodd" stroke="none"/>
    <path d="M25.2 5.35 L25.2 24.4 Q25.2 26.8 22.8 26.8 L22.8 7.8 Q22.8 5.4 20.4 5.4 L1.35 5.4 1.35 5.35 Q1.35 2.95 3.75 2.95 L22.8 2.95 Q25.2 2.95 25.2 5.35" fill="#ffffff" fill-rule="evenodd" stroke="none"/>
    <path d="M25.2 24.35 L25.2 24.4 Q25.2 26.8 22.8 26.8 L3.75 26.8 Q1.35 26.8 1.35 24.4 L1.35 5.35 Q1.35 2.95 3.75 2.95 L3.75 21.95 Q3.75 24.35 6.15 24.35 L25.2 24.35" fill="#c4c4c4" fill-rule="evenodd" stroke="none"/>
    <path d="M20.7 5.4 Q23.1 5.4 23.1 7.8 L23.1 24.35 6.45 24.35 Q4.05 24.35 4.05 21.95 L4.05 5.4 20.7 5.4" fill="url(#gradient0)" fill-rule="evenodd" stroke="none"/>
  </g>
  <defs>
    <linearGradient gradientTransform="matrix(0.0101, -0.0107, 0.0085, 0.008, 15.1, 12.95)" gradientUnits="userSpaceOnUse" id="gradient0" spreadMethod="pad" x1="-819.2" x2="819.2">
      <stop offset="0.0" stop-color="#ffffff"/>
      <stop offset="1.0" stop-color="#ffffff" stop-opacity="0.0"/>
    </linearGradient>
  </defs>
</svg>
