<?xml version="1.0" encoding="UTF-8" standalone="no"?>
<svg xmlns:xlink="http://www.w3.org/1999/xlink" height="26.8px" width="26.8px" xmlns="http://www.w3.org/2000/svg">
  <g transform="matrix(1.0, 0.0, 0.0, 1.0, 0.0, 0.0)">
    <path d="M24.1 0.0 Q26.8 0.0 26.8 2.7 L26.8 24.15 Q26.8 26.8 24.1 26.8 L2.7 26.8 Q0.0 26.8 0.0 24.15 L0.0 2.7 Q0.0 0.0 2.7 0.0 L24.1 0.0 M1.8 23.05 Q1.8 25.45 4.2 25.45 L23.25 25.45 Q25.65 25.45 25.65 23.05 L25.65 4.0 Q25.65 1.6 23.25 1.6 L23.2 1.6 4.2 1.6 Q1.8 1.6 1.8 4.0 L1.8 23.05" fill="#888888" fill-rule="evenodd" stroke="none"/>
    <path d="M23.2 3.7 L23.2 20.65 Q23.2 23.05 20.8 23.05 L4.25 23.05 4.25 6.1 Q4.25 3.7 6.65 3.7 L23.2 3.7" fill="#b7b7b7" fill-rule="evenodd" stroke="none"/>
    <path d="M23.2 1.6 L23.2 3.7 6.65 3.7 Q4.25 3.7 4.25 6.1 L4.25 23.05 1.8 23.05 1.8 4.0 Q1.8 1.6 4.2 1.6 L23.2 1.6" fill="#ffffff" fill-rule="evenodd" stroke="none"/>
    <path d="M23.2 1.6 L23.25 1.6 Q25.65 1.6 25.65 4.0 L25.65 23.05 Q25.65 25.45 23.25 25.45 L4.2 25.45 Q1.8 25.45 1.8 23.05 L4.25 23.05 20.8 23.05 Q23.2 23.05 23.2 20.65 L23.2 3.7 23.2 1.6" fill="#c4c4c4" fill-rule="evenodd" stroke="none"/>
    <path d="M23.2 3.7 L23.2 20.5 Q23.1 22.75 20.8 22.75 L4.25 22.75 4.25 6.1 Q4.25 3.7 6.65 3.7 L23.2 3.7" fill="url(#gradient0)" fill-rule="evenodd" stroke="none"/>
  </g>
  <defs>
    <linearGradient gradientTransform="matrix(-0.0107, -0.0101, 0.008, -0.0085, 11.8, 11.7)" gradientUnits="userSpaceOnUse" id="gradient0" spreadMethod="pad" x1="-819.2" x2="819.2">
      <stop offset="0.0" stop-color="#ffffff"/>
      <stop offset="1.0" stop-color="#ffffff" stop-opacity="0.0"/>
    </linearGradient>
  </defs>
</svg>
