<?xml version="1.0" encoding="UTF-8" standalone="no"?>
<svg xmlns:xlink="http://www.w3.org/1999/xlink" height="264.7px" width="733.35px" xmlns="http://www.w3.org/2000/svg">
  <g transform="matrix(1.0, 0.0, 0.0, 1.0, -0.85, -2.4)">
    <path d="M705.4 83.25 Q734.2 107.8 734.2 134.75 734.2 161.7 705.4 186.25 677.55 210.0 626.8 228.35 576.05 246.65 510.25 256.7 442.15 267.1 367.55 267.1 292.95 267.1 224.8 256.7 159.0 246.65 108.25 228.35 57.5 210.0 29.65 186.25 0.85 161.7 0.85 134.75 0.85 107.8 29.65 83.25 57.5 59.5 108.25 41.15 159.0 22.85 224.8 12.8 292.95 2.4 367.55 2.4 442.15 2.4 510.25 12.8 576.05 22.85 626.8 41.15 677.55 59.5 705.4 83.25" fill="#ff0000" fill-rule="evenodd" stroke="none"/>
  </g>
</svg>
