<?xml version="1.0" encoding="UTF-8" standalone="no"?>
<svg xmlns:xlink="http://www.w3.org/1999/xlink" height="29.8px" width="110.3px" xmlns="http://www.w3.org/2000/svg">
  <g transform="matrix(1.0, 0.0, 0.0, 1.0, -1.6, -3.7)">
    <path d="M107.5 8.05 Q111.9 12.45 111.9 18.6 111.9 24.75 107.5 29.1 103.15 33.5 97.0 33.5 L16.5 33.5 Q10.35 33.5 5.95 29.1 1.6 24.75 1.6 18.6 1.6 12.45 5.9 8.05 L5.95 8.05 Q10.35 3.7 16.5 3.7 L97.0 3.7 Q103.15 3.7 107.5 8.05" fill="#ffffff" fill-rule="evenodd" stroke="none"/>
    <path d="M106.15 9.4 Q110.0 13.25 110.0 18.6 110.0 23.95 106.2 27.75 L106.15 27.8 Q102.35 31.6 97.0 31.6 L16.5 31.6 Q11.1 31.6 7.3 27.75 3.5 23.95 3.5 18.6 3.5 13.25 7.3 9.4 11.1 5.6 16.5 5.6 L97.0 5.6 Q102.35 5.6 106.15 9.4" fill="#663311" fill-rule="evenodd" stroke="none"/>
    <path d="M96.95 6.55 Q101.95 6.55 105.45 10.1 109.0 13.65 109.0 18.6 109.0 23.6 105.45 27.1 101.95 30.65 96.95 30.65 L16.45 30.65 Q11.45 30.65 7.9 27.1 4.4 23.6 4.4 18.6 4.4 13.65 7.9 10.1 11.45 6.55 16.45 6.55 L96.95 6.55" fill="url(#gradient0)" fill-rule="evenodd" stroke="none"/>
    <path d="M96.95 6.55 Q101.9 6.55 105.4 10.05 109.0 13.65 109.0 18.6 L109.0 18.9 4.35 18.9 4.35 18.6 Q4.35 13.65 7.9 10.05 11.45 6.55 16.4 6.55 L96.95 6.55" fill="url(#gradient1)" fill-rule="evenodd" stroke="none"/>
  </g>
  <defs>
    <linearGradient gradientTransform="matrix(1.0E-4, 0.0147, -0.0147, 1.0E-4, 56.7, 18.6)" gradientUnits="userSpaceOnUse" id="gradient0" spreadMethod="pad" x1="-819.2" x2="819.2">
      <stop offset="0.0" stop-color="#ff3c9d"/>
      <stop offset="0.7137254901960784" stop-color="#ff8855"/>
      <stop offset="0.9333333333333333" stop-color="#fdb5a4"/>
    </linearGradient>
    <linearGradient gradientTransform="matrix(1.0E-4, 0.0113, -0.0147, 1.0E-4, 55.9, 12.2)" gradientUnits="userSpaceOnUse" id="gradient1" spreadMethod="pad" x1="-819.2" x2="819.2">
      <stop offset="0.0" stop-color="#ffffff"/>
      <stop offset="1.0" stop-color="#ffffff" stop-opacity="0.0"/>
    </linearGradient>
  </defs>
</svg>
