<?xml version="1.0" encoding="UTF-8" standalone="no"?>
<svg xmlns:xlink="http://www.w3.org/1999/xlink" height="30.8px" width="110.85px" xmlns="http://www.w3.org/2000/svg">
  <g transform="matrix(1.0, 0.0, 0.0, 1.0, -1.35, -3.45)">
    <path d="M107.5 8.05 Q111.9 12.45 111.9 18.6 111.9 24.75 107.5 29.1 103.15 33.5 97.0 33.5 L16.5 33.5 Q10.35 33.5 5.95 29.1 1.6 24.75 1.6 18.6 1.6 12.45 5.9 8.05 L5.95 8.05 Q10.35 3.7 16.5 3.7 L97.0 3.7 Q103.15 3.7 107.5 8.05" fill="#ffffff" fill-rule="evenodd" stroke="none"/>
    <path d="M106.15 9.4 Q110.0 13.25 110.0 18.6 110.0 23.95 106.2 27.75 L106.15 27.8 Q102.35 31.6 97.0 31.6 L16.5 31.6 Q11.1 31.6 7.3 27.75 3.5 23.95 3.5 18.6 3.5 13.25 7.3 9.4 11.1 5.6 16.5 5.6 L97.0 5.6 Q102.35 5.6 106.15 9.4" fill="#663311" fill-rule="evenodd" stroke="none"/>
    <path d="M96.95 6.55 Q101.95 6.55 105.45 10.05 109.0 13.6 109.0 18.6 109.0 23.55 105.45 27.1 101.95 30.65 96.95 30.65 L16.45 30.65 Q11.5 30.65 7.95 27.1 4.4 23.55 4.4 18.6 4.4 13.6 7.95 10.05 11.5 6.55 16.45 6.55 L96.95 6.55" fill="url(#gradient0)" fill-rule="evenodd" stroke="none"/>
    <path d="M96.95 6.55 Q101.9 6.55 105.4 10.05 109.0 13.65 109.0 18.6 L109.0 18.9 4.35 18.9 4.35 18.6 Q4.35 13.65 7.9 10.05 11.45 6.55 16.4 6.55 L96.95 6.55" fill="url(#gradient1)" fill-rule="evenodd" stroke="none"/>
    <path d="M96.8 8.45 Q101.1 8.45 104.15 11.45 107.2 14.5 107.2 18.85 107.2 23.15 104.15 26.2 101.1 29.25 96.8 29.25 L16.75 29.25 Q12.45 29.25 9.4 26.2 6.35 23.15 6.35 18.85 6.35 14.5 9.4 11.45 12.45 8.45 16.75 8.45 L96.8 8.45" fill="url(#gradient2)" fill-rule="evenodd" stroke="none"/>
    <path d="M96.8 8.45 L16.75 8.45 Q12.45 8.45 9.4 11.45 6.35 14.5 6.35 18.85 6.35 23.15 9.4 26.2 12.45 29.25 16.75 29.25 L96.8 29.25 Q101.1 29.25 104.15 26.2 107.2 23.15 107.2 18.85 107.2 14.5 104.15 11.45 101.1 8.45 96.8 8.45 Z" fill="none" stroke="#ffffff" stroke-linecap="round" stroke-linejoin="round" stroke-width="10.0"/>
    <path d="M96.8 8.45 Q101.1 8.45 104.15 11.45 107.2 14.5 107.2 18.85 107.2 23.15 104.15 26.2 101.1 29.25 96.8 29.25 L16.75 29.25 Q12.45 29.25 9.4 26.2 6.35 23.15 6.35 18.85 6.35 14.5 9.4 11.45 12.45 8.45 16.75 8.45 L96.8 8.45" fill="url(#gradient3)" fill-rule="evenodd" stroke="none"/>
    <path d="M96.8 8.45 L16.75 8.45 Q12.45 8.45 9.4 11.45 6.35 14.5 6.35 18.85 6.35 23.15 9.4 26.2 12.45 29.25 16.75 29.25 L96.8 29.25 Q101.1 29.25 104.15 26.2 107.2 23.15 107.2 18.85 107.2 14.5 104.15 11.45 101.1 8.45 96.8 8.45 Z" fill="none" stroke="#b14d00" stroke-linecap="round" stroke-linejoin="round" stroke-width="4.0"/>
    <path d="M96.8 8.45 Q101.1 8.45 104.15 11.45 107.2 14.5 107.2 18.85 107.2 23.15 104.15 26.2 101.1 29.25 96.8 29.25 L16.75 29.25 Q12.45 29.25 9.4 26.2 6.35 23.15 6.35 18.85 6.35 14.5 9.4 11.45 12.45 8.45 16.75 8.45 L96.8 8.45" fill="url(#gradient4)" fill-rule="evenodd" stroke="none"/>
    <path d="M104.15 25.8 Q101.15 28.85 96.8 28.85 L16.8 28.85 Q12.45 28.85 9.4 25.8 6.4 22.75 6.4 18.45 6.4 14.15 9.4 11.1 12.45 8.05 16.8 8.05 L96.8 8.05 Q101.15 8.05 104.15 11.1 107.2 14.15 107.2 18.45 107.2 22.75 104.15 25.8" fill="#f17a2a" fill-rule="evenodd" stroke="none"/>
    <path d="M107.15 18.6 Q107.15 23.0 104.15 26.1 101.1 29.25 96.75 29.25 L16.75 29.25 Q12.45 29.25 9.4 26.1 6.35 23.0 6.35 18.6 6.35 14.2 9.4 11.05 12.45 7.95 16.75 7.95 L96.75 7.95 Q101.1 7.95 104.15 11.05 107.15 14.2 107.15 18.6" fill="url(#gradient5)" fill-rule="evenodd" stroke="none"/>
    <path d="M101.8 11.7 L101.8 11.75 Q101.8 13.0 100.9 13.9 100.05 14.75 98.8 14.75 L15.6 14.75 Q14.4 14.75 13.5 13.9 12.6 13.0 12.6 11.75 L12.6 11.7 Q12.6 10.5 13.5 9.6 14.4 8.75 15.6 8.75 L98.8 8.75 Q100.05 8.75 100.9 9.6 101.8 10.5 101.8 11.7" fill="url(#gradient6)" fill-rule="evenodd" stroke="none"/>
  </g>
  <defs>
    <linearGradient gradientTransform="matrix(1.0E-4, 0.0147, -0.0147, 1.0E-4, 56.7, 18.6)" gradientUnits="userSpaceOnUse" id="gradient0" spreadMethod="pad" x1="-819.2" x2="819.2">
      <stop offset="0.0" stop-color="#fd3e64"/>
      <stop offset="0.7137254901960784" stop-color="#ffbb55"/>
      <stop offset="0.9333333333333333" stop-color="#fed9a3"/>
    </linearGradient>
    <linearGradient gradientTransform="matrix(1.0E-4, 0.0113, -0.0147, 1.0E-4, 55.9, 12.2)" gradientUnits="userSpaceOnUse" id="gradient1" spreadMethod="pad" x1="-819.2" x2="819.2">
      <stop offset="0.0" stop-color="#ffffff"/>
      <stop offset="1.0" stop-color="#ffffff" stop-opacity="0.0"/>
    </linearGradient>
    <linearGradient gradientTransform="matrix(1.0E-4, -0.0124, 0.0127, 1.0E-4, 56.85, 18.8)" gradientUnits="userSpaceOnUse" id="gradient2" spreadMethod="pad" x1="-819.2" x2="819.2">
      <stop offset="0.0" stop-color="#ffc85f"/>
      <stop offset="1.0" stop-color="#ff9900"/>
    </linearGradient>
    <linearGradient gradientTransform="matrix(1.0E-4, -0.0124, 0.0127, 1.0E-4, 56.85, 18.8)" gradientUnits="userSpaceOnUse" id="gradient3" spreadMethod="pad" x1="-819.2" x2="819.2">
      <stop offset="0.0" stop-color="#ffc85f"/>
      <stop offset="1.0" stop-color="#ff9900"/>
    </linearGradient>
    <linearGradient gradientTransform="matrix(0.0, 0.013, -0.0127, 0.0, 56.6, 19.25)" gradientUnits="userSpaceOnUse" id="gradient4" spreadMethod="pad" x1="-819.2" x2="819.2">
      <stop offset="0.0" stop-color="#ffa110"/>
      <stop offset="1.0" stop-color="#ffd995"/>
    </linearGradient>
    <linearGradient gradientTransform="matrix(0.0, 0.0133, -0.0127, 0.0, 56.6, 19.0)" gradientUnits="userSpaceOnUse" id="gradient5" spreadMethod="pad" x1="-819.2" x2="819.2">
      <stop offset="0.00392156862745098" stop-color="#ec4727"/>
      <stop offset="1.0" stop-color="#f7a72d"/>
    </linearGradient>
    <linearGradient gradientTransform="matrix(0.0, 0.0042, -0.0058, 0.0, 49.05, 10.75)" gradientUnits="userSpaceOnUse" id="gradient6" spreadMethod="pad" x1="-819.2" x2="819.2">
      <stop offset="0.0" stop-color="#ffffff"/>
      <stop offset="1.0" stop-color="#ffffff" stop-opacity="0.0"/>
    </linearGradient>
  </defs>
</svg>
