<?xml version="1.0" encoding="UTF-8" standalone="no"?>
<svg xmlns:xlink="http://www.w3.org/1999/xlink" height="105.6px" width="95.95px" xmlns="http://www.w3.org/2000/svg">
  <g transform="matrix(1.0, 0.0, 0.0, 1.0, 7.1, 4.0)">
    <path d="M84.35 48.9 L81.75 54.4 72.65 69.35 73.35 74.5 72.25 79.25 74.45 98.6 6.85 98.6 9.45 85.8 9.45 85.1 10.9 79.25 10.55 79.25 8.7 74.85 9.05 70.1 Q9.05 67.9 6.85 65.35 L-0.05 54.75 -0.8 54.0 Q-3.35 49.25 -4.1 44.5 L-1.15 40.15 -0.05 38.65 Q0.3 37.95 1.4 36.5 2.5 34.65 3.6 29.15 L7.95 1.75 16.35 0.65 Q46.35 -3.0 72.65 1.4 74.1 17.85 75.95 24.4 L76.65 27.7 80.7 37.2 Q82.15 40.5 84.35 41.95 86.15 43.05 85.8 44.5 L84.35 48.9" fill="#a86400" fill-rule="evenodd" stroke="none"/>
    <path d="M84.35 48.9 L81.75 54.4 72.65 69.35 73.35 74.5 72.25 79.25 74.45 98.6 6.85 98.6 9.45 85.8 9.45 85.1 10.9 79.25 10.55 79.25 8.7 74.85 9.05 70.1 Q9.05 67.9 6.85 65.35 L-0.05 54.75 -0.8 54.0 Q-3.35 49.25 -4.1 44.5 L-1.15 40.15 -0.05 38.65 Q0.3 37.95 1.4 36.5 2.5 34.65 3.6 29.15 L7.95 1.75 16.35 0.65 Q46.35 -3.0 72.65 1.4 74.1 17.85 75.95 24.4 L76.65 27.7 80.7 37.2 Q82.15 40.5 84.35 41.95 86.15 43.05 85.8 44.5 L84.35 48.9 Z" fill="none" stroke="#411d14" stroke-linecap="round" stroke-linejoin="round" stroke-width="6.0"/>
    <path d="M75.95 24.4 L76.65 27.7 80.7 37.2 Q82.15 40.5 84.35 41.95 86.15 43.05 85.8 44.5 56.95 47.45 39.75 35.4 L34.25 31.35 Q55.45 34.3 75.95 24.4" fill="#c4c4c4" fill-rule="evenodd" stroke="none"/>
    <path d="M85.8 44.5 L84.35 48.9 Q84.35 49.65 83.6 51.1 L81.05 51.45 Q79.6 52.2 78.5 54.4 77.0 56.6 76.3 56.6 75.95 55.5 74.1 52.55 72.25 49.25 71.9 49.25 70.1 49.25 67.5 51.85 L64.6 54.4 Q64.25 54.4 61.3 50.75 L58.0 46.7 Q56.95 46.7 55.45 48.15 L53.25 50.35 Q52.2 48.15 48.15 44.5 45.95 44.5 44.15 45.6 L41.95 48.9 40.85 43.8 Q40.1 40.85 37.95 40.85 36.45 40.85 35.0 41.95 L32.8 44.15 Q32.1 43.05 31.35 40.5 L30.6 35.75 Q30.25 34.65 27.7 32.8 25.5 31.0 24.8 29.9 L34.25 31.35 39.75 35.4 Q56.95 47.45 85.8 44.5" fill="#fab634" fill-rule="evenodd" stroke="none"/>
    <path d="M83.6 51.1 Q82.85 52.2 82.15 54.0 L80.7 54.0 Q79.6 54.4 78.1 56.95 76.65 59.15 75.95 59.15 75.95 58.4 73.75 55.1 L71.9 52.2 Q69.7 52.2 67.15 54.4 L64.25 56.95 Q63.85 56.95 60.95 52.9 L58.0 49.25 Q56.55 49.25 55.1 50.75 L52.9 52.55 Q52.2 50.75 47.8 46.7 45.6 46.7 44.15 48.55 L41.6 51.85 Q41.2 50.75 40.5 46.7 39.75 43.05 37.55 43.05 36.1 43.05 34.65 44.5 L32.45 46.7 Q31.7 46.0 31.0 42.7 30.6 41.25 30.25 38.3 29.9 36.85 27.35 35.4 L24.4 32.8 24.4 32.1 24.05 29.55 Q24.4 29.55 24.8 29.9 25.5 31.0 27.7 32.8 30.25 34.65 30.6 35.75 L31.35 40.5 Q32.1 43.05 32.8 44.15 L35.0 41.95 Q36.45 40.85 37.95 40.85 40.1 40.85 40.85 43.8 L41.95 48.9 44.15 45.6 Q45.95 44.5 48.15 44.5 52.2 48.15 53.25 50.35 L55.45 48.15 Q56.95 46.7 58.0 46.7 L61.3 50.75 Q64.25 54.4 64.6 54.4 L67.5 51.85 Q70.1 49.25 71.9 49.25 72.25 49.25 74.1 52.55 75.95 55.5 76.3 56.6 77.0 56.6 78.5 54.4 79.6 52.2 81.05 51.45 L83.6 51.1 M5.05 21.5 Q6.5 13.45 7.95 1.75 L13.8 1.0 Q14.55 0.65 14.9 0.65 14.9 1.4 14.55 1.4 L14.55 2.1 Q14.55 2.5 14.2 2.5 L13.45 3.2 Q13.1 3.95 12.7 5.4 11.6 6.5 11.6 9.05 11.6 12.0 14.55 13.8 17.1 16.0 17.1 17.1 16.75 19.3 16.75 20.0 16.75 21.5 18.55 22.95 21.1 25.5 21.5 26.25 22.6 26.95 22.6 29.15 13.8 26.6 5.05 21.5" fill="#c47500" fill-rule="evenodd" stroke="none"/>
    <path d="M82.15 54.0 L81.75 54.4 72.65 69.35 48.9 69.35 34.25 69.0 9.05 69.0 9.05 70.0 Q9.0 67.8 6.85 65.35 L-0.05 54.75 -0.8 54.0 Q-3.35 49.25 -4.1 44.5 L-1.15 40.15 -0.05 38.65 Q0.3 37.95 1.05 37.2 3.2 32.45 4.7 25.5 L4.7 25.15 Q5.05 23.7 5.05 21.5 13.8 26.6 22.6 29.15 L24.05 29.55 24.4 32.1 24.4 32.8 27.35 35.4 Q29.9 36.85 30.25 38.3 30.6 41.25 31.0 42.7 31.7 46.0 32.45 46.7 L34.65 44.5 Q36.1 43.05 37.55 43.05 39.75 43.05 40.5 46.7 41.2 50.75 41.6 51.85 L44.15 48.55 Q45.6 46.7 47.8 46.7 52.2 50.75 52.9 52.55 L55.1 50.75 Q56.55 49.25 58.0 49.25 L60.95 52.9 Q63.85 56.95 64.25 56.95 L67.15 54.4 Q69.7 52.2 71.9 52.2 L73.75 55.1 Q75.95 58.4 75.95 59.15 76.65 59.15 78.1 56.95 79.6 54.4 80.7 54.0 L82.15 54.0 M73.75 87.3 L74.45 98.6 52.55 99.0 Q60.95 91.3 73.75 87.3 M30.6 98.25 L6.85 98.6 9.45 85.8 Q22.6 89.85 30.6 98.25" fill="#f99706" fill-rule="evenodd" stroke="none"/>
    <path d="M16.35 0.65 Q46.35 -3.0 72.65 1.4 74.1 17.85 75.95 24.4 55.45 34.3 34.25 31.35 24.8 21.5 20.05 10.5 17.85 5.75 16.35 0.65" fill="#a2a2a2" fill-rule="evenodd" stroke="none"/>
    <path d="M14.9 0.65 L16.35 0.65 Q17.85 5.75 20.05 10.5 24.8 21.5 34.25 31.35 L24.8 29.9 Q24.4 29.55 24.05 29.55 24.05 28.8 23.7 28.45 23.3 25.5 22.6 24.4 L19.3 21.1 Q17.45 20.0 17.45 18.55 17.45 17.45 18.2 15.25 18.2 14.2 15.3 12.35 12.7 10.15 12.7 7.25 L12.7 5.4 Q13.1 3.95 13.45 3.2 L14.2 2.5 Q14.55 2.5 14.55 2.1 L14.55 1.4 Q14.9 1.4 14.9 0.65" fill="#e78f0c" fill-rule="evenodd" stroke="none"/>
    <path d="M12.7 5.4 L12.7 7.25 Q12.7 10.15 15.3 12.35 18.2 14.2 18.2 15.25 17.45 17.45 17.45 18.55 17.45 20.0 19.3 21.1 L22.6 24.4 Q23.3 25.5 23.7 28.45 24.05 28.8 24.05 29.55 L22.6 29.15 Q22.6 26.95 21.5 26.25 21.1 25.5 18.55 22.95 16.75 21.5 16.75 20.0 16.75 19.3 17.1 17.1 17.1 16.0 14.55 13.8 11.6 12.0 11.6 9.05 11.6 6.5 12.7 5.4" fill="#a36100" fill-rule="evenodd" stroke="none"/>
    <path d="M72.65 69.35 L73.35 74.5 72.25 79.25 52.9 79.25 48.5 78.9 48.9 69.35 72.65 69.35 M73.35 84.0 L73.75 87.3 Q60.95 91.3 52.55 99.0 L47.45 99.0 Q56.2 89.5 73.0 84.0 L73.35 84.0 M35.0 98.6 L31.7 98.6 30.6 98.25 Q22.6 89.85 9.45 85.8 L9.45 85.1 9.8 83.25 Q26.6 88.4 35.0 98.25 L35.0 98.6 M10.9 79.25 L10.55 79.25 8.7 74.85 9.05 70.1 9.05 70.0 9.05 69.0 34.25 69.0 34.25 79.25 10.9 79.25" fill="#010103" fill-rule="evenodd" stroke="none"/>
    <path d="M72.25 79.25 L73.35 84.0 73.0 84.0 Q56.2 89.5 47.45 99.0 L35.0 98.6 35.0 98.25 Q26.6 88.4 9.8 83.25 L10.9 79.25 34.25 79.25 44.5 79.25 52.9 79.25 72.25 79.25" fill="#7b4a00" fill-rule="evenodd" stroke="none"/>
    <path d="M34.25 69.0 L48.9 69.35 48.5 78.9 44.5 79.25 34.25 79.25 34.25 69.0 M36.85 72.65 L37.2 75.95 45.6 75.6 45.95 72.65 36.85 72.65" fill="#fdd69b" fill-rule="evenodd" stroke="none"/>
    <path d="M36.85 72.65 L45.95 72.65 45.6 75.6 37.2 75.95 36.85 72.65" fill="#e38902" fill-rule="evenodd" stroke="none"/>
    <path d="M55.85 47.1 Q58.0 47.1 60.95 50.0 64.25 52.55 66.45 52.55 67.5 52.55 69.7 51.1 71.9 49.65 73.75 49.65 77.75 49.65 77.75 53.3 77.75 56.6 74.85 60.25 71.9 63.9 69.7 63.9 67.9 63.9 66.45 61.7 64.6 59.15 62.75 58.75 61.7 59.5 59.85 60.25 L59.1 60.25 58.75 60.25 58.0 60.25 Q55.1 60.25 53.65 59.5 51.1 58.75 50.0 56.95 49.6 56.2 49.25 54.4 L49.25 52.55 Q49.25 51.85 49.6 50.75 50.0 50.75 50.0 50.35 50.35 48.55 53.25 48.15 54.75 47.1 55.85 47.1 M14.55 18.95 Q14.55 17.1 16.0 14.55 17.1 13.1 20.05 10.9 26.6 26.6 39.4 35.4 39.75 35.4 39.75 35.75 40.1 36.85 40.1 38.3 40.1 41.6 38.65 43.8 37.2 47.1 32.8 47.1 26.95 47.1 25.15 46.35 22.6 44.5 22.6 39.75 22.6 37.2 23.3 35.75 24.4 34.3 24.4 33.2 24.4 30.65 19.3 26.95 14.55 22.95 14.55 18.95 M4.7 33.2 Q4.7 34.3 5.05 36.85 5.05 37.95 3.95 39.05 2.85 40.85 1.4 40.85 L0.3 40.15 Q-0.05 39.4 -0.05 39.05 L-0.05 38.65 0.65 37.55 Q3.2 32.45 4.7 25.5 5.05 26.95 6.5 28.45 7.25 29.15 7.25 30.65 7.25 32.1 6.85 32.8 L4.7 33.2 M9.45 45.25 Q10.9 45.6 11.25 46.35 12.7 46.7 13.8 48.55 L16.35 52.9 Q16.35 53.3 19.3 55.1 21.5 56.6 21.5 58.75 21.5 61.7 17.85 63.9 14.55 66.1 12.35 66.1 10.55 66.1 9.45 64.25 8.7 64.25 8.7 63.5 8.35 62.45 8.35 60.95 8.35 58.75 8.7 57.7 L8.7 55.1 Q8.7 54.0 7.25 52.55 L6.5 51.1 Q5.05 50.75 5.05 48.9 5.05 44.5 9.45 45.25 M39.4 57.7 Q41.2 59.85 42.7 59.85 L48.15 59.5 Q50.0 60.25 50.0 63.5 50.0 66.8 48.15 67.9 48.15 68.3 43.75 69.35 L28.8 69.35 Q29.15 66.8 31.7 61.7 34.25 55.5 36.1 55.5 37.55 55.5 39.4 57.7" fill="#020300" fill-rule="evenodd" stroke="none"/>
    <path d="M30.6 65.0 Q35.35 61.7 41.6 61.7 47.8 61.7 52.2 65.0 56.55 68.3 56.55 73.4 56.55 78.15 52.2 81.8 47.8 85.1 41.6 85.1 35.35 85.1 30.6 81.8 26.6 78.15 26.6 73.4 26.6 68.3 30.6 65.0 M34.25 67.55 Q31.0 70.1 31.0 73.4 31.0 76.7 34.25 79.25 37.2 81.8 41.6 81.8 45.95 81.8 48.9 79.25 52.2 76.7 52.2 73.4 52.2 70.1 48.9 67.55 45.95 65.35 41.6 65.35 37.2 65.35 34.25 67.55" fill="#fff275" fill-rule="evenodd" stroke="none"/>
    <path d="M34.25 67.55 Q37.2 65.35 41.6 65.35 45.95 65.35 48.9 67.55 52.2 70.1 52.2 73.4 52.2 76.7 48.9 79.25 45.95 81.8 41.6 81.8 37.2 81.8 34.25 79.25 31.0 76.7 31.0 73.4 31.0 70.1 34.25 67.55" fill="#ba7824" fill-rule="evenodd" stroke="none"/>
    <path d="M34.25 67.55 Q37.2 65.35 41.6 65.35 45.95 65.35 48.9 67.55 52.2 70.1 52.2 73.4 52.2 76.7 48.9 79.25 45.95 81.8 41.6 81.8 37.2 81.8 34.25 79.25 31.0 76.7 31.0 73.4 31.0 70.1 34.25 67.55" fill="none" stroke="#5f3000" stroke-linecap="round" stroke-linejoin="round" stroke-width="1.5"/>
    <path d="M30.6 65.0 Q35.35 61.7 41.6 61.7 47.8 61.7 52.2 65.0 56.55 68.3 56.55 73.4 56.55 78.15 52.2 81.8 47.8 85.1 41.6 85.1 35.35 85.1 30.6 81.8 26.6 78.15 26.6 73.4 26.6 68.3 30.6 65.0" fill="none" stroke="#663300" stroke-linecap="round" stroke-linejoin="round" stroke-width="1.0"/>
    <path d="M85.45 44.9 L85.8 44.5 Q84.7 48.55 84.7 49.25 L83.6 51.1 81.4 51.45 Q79.95 52.2 78.5 54.4 77.0 56.6 75.95 54.4 76.3 55.85 74.45 52.9 72.25 50.0 71.55 50.0 70.1 50.0 68.25 51.1 L66.8 52.55 Q66.05 52.9 64.6 52.55 L63.15 52.2 Q62.4 51.1 61.7 50.75 L59.85 48.9 Q58.0 47.1 56.2 48.55 L53.25 50.75 Q52.55 48.55 48.15 44.5 45.95 44.5 44.5 46.0 44.15 46.0 41.95 49.25 L40.85 44.15 Q40.1 40.85 37.95 40.85 36.45 40.85 35.35 41.95 L33.2 44.15 Q32.1 43.4 31.35 40.5 L30.6 35.75 Q30.25 34.65 28.05 32.8 25.85 31.0 25.15 29.9 28.45 31.0 32.1 31.35 32.8 33.2 33.55 33.9 34.25 35.0 36.45 36.1 38.3 37.2 39.4 38.65 40.5 39.75 41.2 39.75 42.7 39.75 43.05 40.15 44.15 40.85 44.15 41.25 44.5 41.95 45.6 41.95 L46.7 41.6 48.15 41.25 Q50.0 41.25 51.45 43.4 52.9 45.6 53.25 45.6 53.65 45.6 54.0 45.25 54.75 44.9 55.1 44.9 56.2 44.9 56.95 45.6 L58.75 46.0 60.2 47.1 61.7 48.15 63.15 47.1 64.95 46.7 Q66.05 46.7 66.8 47.8 67.5 48.9 67.9 48.9 L70.1 48.15 73.0 47.45 Q73.75 47.45 74.85 48.55 L75.95 50.35 78.1 48.15 Q80.7 46.0 81.75 46.0 82.5 46.0 83.6 46.7 L85.45 44.9" fill="#fab634" fill-rule="evenodd" stroke="none"/>
    <path d="M34.25 31.7 Q36.1 32.8 39.75 35.4 L40.1 35.75 Q56.95 47.45 85.45 44.9 L83.6 46.7 Q82.5 46.0 81.75 46.0 80.7 46.0 78.1 48.15 L75.95 50.35 74.85 48.55 Q73.75 47.45 73.0 47.45 L70.1 48.15 67.9 48.9 Q67.5 48.9 66.8 47.8 66.05 46.7 64.95 46.7 L63.15 47.1 61.7 48.15 60.2 47.1 58.75 46.0 56.95 45.6 Q56.2 44.9 55.1 44.9 54.75 44.9 54.0 45.25 53.65 45.6 53.25 45.6 52.9 45.6 51.45 43.4 50.0 41.25 48.15 41.25 L46.7 41.6 45.6 41.95 Q44.5 41.95 44.15 41.25 44.15 40.85 43.05 40.15 42.7 39.75 41.2 39.75 40.5 39.75 39.4 38.65 38.3 37.2 36.45 36.1 34.25 35.0 33.55 33.9 32.8 33.2 32.1 31.35 L33.9 31.7 34.25 31.7" fill="#fad579" fill-rule="evenodd" stroke="none"/>
    <path d="M83.6 51.1 Q83.25 52.55 82.15 54.0 L81.05 54.4 Q79.6 54.75 78.1 56.95 77.0 58.75 75.2 57.3 75.55 57.3 74.1 55.1 L71.9 52.2 Q69.7 52.2 67.15 54.4 63.85 56.2 63.5 55.5 L61.3 53.3 58.75 50.35 Q57.65 48.9 55.85 50.75 L52.9 52.9 Q52.2 50.75 47.8 47.1 45.6 47.1 44.15 48.55 L41.6 51.85 Q41.2 50.75 40.5 46.7 39.75 43.4 37.55 43.4 36.45 43.4 35.0 44.5 L32.8 46.7 Q31.7 46.0 31.0 43.05 L30.25 38.65 Q29.9 37.2 27.7 35.4 25.5 33.9 24.8 32.8 L24.4 32.45 24.4 29.55 Q24.4 29.9 25.15 29.9 25.85 31.0 28.05 32.8 30.25 34.65 30.6 35.75 L31.35 40.5 Q32.1 43.4 33.2 44.15 L35.35 41.95 Q36.45 40.85 37.95 40.85 40.1 40.85 40.85 44.15 L41.95 49.25 Q44.15 46.0 44.5 46.0 45.95 44.5 48.15 44.5 52.55 48.55 53.25 50.75 L56.2 48.55 Q58.0 47.1 59.85 48.9 L61.7 50.75 Q62.4 51.1 63.15 52.2 L64.6 52.55 Q66.05 52.9 66.8 52.55 L68.25 51.1 Q70.1 50.0 71.55 50.0 72.25 50.0 74.45 52.9 76.3 55.85 75.95 54.4 77.0 56.6 78.5 54.4 79.95 52.2 81.4 51.45 L83.6 51.1" fill="#c47500" fill-rule="evenodd" stroke="none"/>
    <path d="M12.7 5.4 Q13.1 4.3 13.8 3.6 L14.55 2.85 14.55 2.1 Q14.55 1.75 14.9 1.75 14.9 1.4 15.3 1.0 16.0 0.65 16.35 0.65 17.1 3.6 18.55 6.5 18.2 6.85 18.2 7.6 18.2 9.4 19.65 10.9 20.75 12.0 20.75 14.9 20.75 16.75 21.85 18.2 L24.4 20.4 Q24.4 21.1 25.85 24.05 26.6 26.25 28.05 26.95 31.35 28.45 33.9 31.7 L32.1 31.35 Q28.45 31.0 25.15 29.9 24.4 29.9 24.4 29.55 24.05 28.8 24.05 28.45 23.3 25.85 22.6 24.8 L19.3 21.5 Q17.85 20.0 17.85 18.55 17.85 17.85 18.55 15.65 18.55 14.55 15.65 12.35 12.7 10.5 12.7 7.25 L12.7 5.4" fill="#e78f0c" fill-rule="evenodd" stroke="none"/>
    <path d="M18.55 6.5 Q18.95 8.7 20.05 10.9 21.85 14.55 24.05 18.2 28.45 25.15 34.25 31.7 L33.9 31.7 Q31.35 28.45 28.05 26.95 26.6 26.25 25.85 24.05 24.4 21.1 24.4 20.4 L21.85 18.2 Q20.75 16.75 20.75 14.9 20.75 12.0 19.65 10.9 18.2 9.4 18.2 7.6 18.2 6.85 18.55 6.5" fill="#f7aa36" fill-rule="evenodd" stroke="none"/>
    <path d="M24.4 29.55 Q23.7 29.55 22.95 29.15 22.6 27.35 21.85 26.25 L18.55 22.95 Q16.75 21.5 16.75 20.4 16.75 19.3 17.45 17.1 17.45 16.0 14.55 14.2 12.0 12.0 12.0 9.05 12.0 6.5 12.7 5.4 L12.7 7.25 Q12.7 10.5 15.65 12.35 18.55 14.55 18.55 15.65 17.85 17.85 17.85 18.55 17.85 20.0 19.3 21.5 L22.6 24.8 Q23.3 25.85 24.05 28.45 24.05 28.8 24.4 29.55" fill="#a36100" fill-rule="evenodd" stroke="none"/>
    <path d="M83.6 51.1 Q83.25 52.55 82.15 54.0 L81.05 54.4 Q79.6 54.75 78.1 56.95 77.0 58.75 75.2 57.3 75.55 57.3 74.1 55.1 L71.9 52.2 Q69.7 52.2 67.15 54.4 63.85 56.2 63.5 55.5 L61.3 53.3 58.75 50.35 Q57.65 48.9 55.85 50.75 L52.9 52.9 Q52.2 50.75 47.8 47.1 45.6 47.1 44.15 48.55 L41.6 51.85 Q41.2 50.75 40.5 46.7 39.75 43.4 37.55 43.4 36.45 43.4 35.0 44.5 L32.8 46.7 Q31.7 46.0 31.0 43.05 L30.25 38.65 Q29.9 37.2 27.7 35.4 25.5 33.9 24.8 32.8 L24.4 32.45 24.4 29.55 Q23.7 29.55 22.95 29.15 22.6 27.35 21.85 26.25 L18.55 22.95 Q16.75 21.5 16.75 20.4 16.75 19.3 17.45 17.1 17.45 16.0 14.55 14.2 12.0 12.0 12.0 9.05 12.0 6.5 12.7 5.4 13.1 4.3 13.8 3.6 L14.55 2.85 14.55 2.1 Q14.55 1.75 14.9 1.75 14.9 1.4 15.3 1.0 16.0 0.65 16.35 0.65 17.1 3.6 18.55 6.5 18.95 8.7 20.05 10.9 21.85 14.55 24.05 18.2 28.45 25.15 34.25 31.7 36.1 32.8 39.75 35.4 L40.1 35.75 Q56.95 47.45 85.45 44.9" fill="none" stroke="#411d14" stroke-linecap="round" stroke-linejoin="round" stroke-width="0.5"/>
  </g>
</svg>
