<?xml version="1.0" encoding="UTF-8" standalone="no"?>
<svg xmlns:xlink="http://www.w3.org/1999/xlink" height="103.95px" width="95.85px" xmlns="http://www.w3.org/2000/svg">
  <g transform="matrix(1.0, 0.0, 0.0, 1.0, 5.85, 0.25)">
    <path d="M82.25 58.3 L79.7 63.8 Q77.5 68.9 73.1 75.1 L74.2 78.05 73.5 80.95 76.05 100.7 72.75 100.7 70.2 100.7 49.0 100.7 45.7 100.7 45.0 91.2 41.7 91.2 39.15 100.7 35.15 100.7 13.55 100.7 10.65 100.7 8.1 100.7 11.75 80.95 10.3 78.75 10.65 75.1 7.35 69.25 4.05 61.95 1.5 56.85 -1.05 51.35 Q-2.15 49.15 -2.85 46.6 L1.9 41.5 Q5.55 37.45 6.25 27.95 7.35 19.9 8.45 4.2 L12.85 4.2 13.55 4.2 17.6 4.2 18.7 4.2 64.7 3.1 65.45 3.1 66.2 3.1 66.9 3.1 70.55 2.75 73.1 2.75 Q75.3 22.1 77.15 29.8 78.95 36.75 87.0 45.5 L84.45 53.2 Q84.1 55.0 82.25 58.3" fill="#986b6b" fill-rule="evenodd" stroke="none"/>
    <path d="M82.25 58.3 L79.7 63.8 Q77.5 68.9 73.1 75.1 L74.2 78.05 73.5 80.95 76.05 100.7 72.75 100.7 70.2 100.7 49.0 100.7 45.7 100.7 45.0 91.2 41.7 91.2 39.15 100.7 35.15 100.7 13.55 100.7 10.65 100.7 8.1 100.7 11.75 80.95 10.3 78.75 10.65 75.1 7.35 69.25 4.05 61.95 1.5 56.85 -1.05 51.35 Q-2.15 49.15 -2.85 46.6 L1.9 41.5 Q5.55 37.45 6.25 27.95 7.35 19.9 8.45 4.2 L12.85 4.2 13.55 4.2 17.6 4.2 18.7 4.2 64.7 3.1 65.45 3.1 66.2 3.1 66.9 3.1 70.55 2.75 73.1 2.75 Q75.3 22.1 77.15 29.8 78.95 36.75 87.0 45.5 L84.45 53.2 Q84.1 55.0 82.25 58.3 Z" fill="none" stroke="#2a1b10" stroke-linecap="round" stroke-linejoin="round" stroke-width="6.0"/>
    <path d="M73.45 75.1 L74.55 78.05 73.85 80.95 70.55 80.95 67.65 80.95 50.45 80.95 50.8 75.5 66.9 75.5 68.7 75.5 70.55 75.5 73.45 75.5 73.45 75.1 M49.35 100.7 L46.05 100.7 45.35 91.2 42.05 91.2 39.5 100.7 35.5 100.7 39.5 90.45 Q36.2 89.75 34.0 87.2 43.9 89.75 52.3 87.2 50.8 89.75 47.15 90.85 L49.35 100.7 M12.1 80.95 L10.25 78.75 11.0 75.1 14.65 75.1 17.95 75.1 35.5 75.1 35.85 80.95 17.55 80.95 13.9 80.95 12.1 80.95 M-0.7 51.35 Q-2.15 49.15 -2.5 46.6 L2.25 41.5 Q5.9 37.45 6.6 27.95 7.7 19.9 8.8 4.2 L13.2 4.2 13.9 4.2 17.95 4.2 Q17.95 7.5 18.65 10.4 19.75 19.2 22.7 23.6 26.7 30.15 32.55 32.35 44.6 36.75 53.4 31.25 58.5 27.95 61.05 21.4 62.9 17.35 63.95 10.05 64.7 6.75 65.05 3.1 L65.8 3.1 66.55 3.1 67.25 3.1 70.9 2.75 73.45 2.75 Q75.65 22.1 77.5 29.8 79.3 36.75 87.0 45.5 L85.55 50.65 84.45 49.55 Q82.95 48.45 81.9 46.95 80.05 45.15 78.6 42.95 70.9 32.35 69.1 15.55 68.35 19.9 67.25 23.2 61.05 39.65 44.25 40.05 32.2 40.75 24.5 34.55 18.3 29.8 15.0 21.4 14.3 19.2 13.9 16.65 12.45 32.0 7.7 41.5 L4.05 46.6 Q3.3 48.05 1.85 49.55 1.5 50.25 -0.7 51.35" fill="#773c00" fill-rule="evenodd" stroke="none"/>
    <path d="M0.4 54.65 Q0.05 52.8 -0.7 51.35 1.5 50.25 1.85 49.55 L2.95 51.7 0.4 54.65 M85.55 50.65 L84.8 53.2 84.8 53.55 Q83.7 53.2 82.95 52.45 L84.45 49.55 85.55 50.65 M81.9 46.95 L80.8 50.25 Q75.3 44.4 72.0 37.1 69.1 29.8 68.7 23.6 66.9 29.8 62.15 34.55 57.75 39.3 53.0 41.1 49.0 42.6 44.25 42.6 L34.75 41.85 Q28.9 41.1 23.8 36.35 17.95 31.6 14.3 24.3 13.2 40.75 4.8 48.05 L4.05 46.6 7.7 41.5 Q12.45 32.0 13.9 16.65 14.3 19.2 15.0 21.4 18.3 29.8 24.5 34.55 32.2 40.75 44.25 40.05 61.05 39.65 67.25 23.2 68.35 19.9 69.1 15.55 70.9 32.35 78.6 42.95 80.05 45.15 81.9 46.95" fill="#fcc87a" fill-rule="evenodd" stroke="none"/>
    <path d="M84.8 53.55 L82.6 58.3 80.05 63.8 Q77.85 68.9 73.45 75.1 L73.45 75.5 70.55 75.5 Q77.5 67.1 82.95 52.45 83.7 53.2 84.8 53.55 M73.85 80.95 L76.4 100.7 73.1 100.7 70.55 80.95 73.85 80.95 M70.55 100.7 L49.35 100.7 47.15 90.85 Q50.8 89.75 52.3 87.2 43.9 89.75 34.0 87.2 36.2 89.75 39.5 90.45 L35.5 100.7 13.9 100.7 17.55 80.95 35.85 80.95 50.45 80.95 67.65 80.95 70.55 100.7 M11.0 100.7 L8.45 100.7 12.1 80.95 13.9 80.95 11.0 100.7 M11.0 75.1 L7.7 69.25 4.4 61.95 1.85 56.85 0.4 54.65 2.95 51.7 Q7.7 64.15 14.65 75.1 L11.0 75.1 M80.8 50.25 Q77.15 61.25 70.2 71.1 L66.9 75.5 50.8 75.5 35.5 75.1 17.95 75.1 17.95 74.75 Q12.1 66.0 4.8 48.05 13.2 40.75 14.3 24.3 17.95 31.6 23.8 36.35 28.9 41.1 34.75 41.85 L44.25 42.6 Q49.0 42.6 53.0 41.1 57.75 39.3 62.15 34.55 66.9 29.8 68.7 23.6 69.1 29.8 72.0 37.1 75.3 44.4 80.8 50.25" fill="#f99706" fill-rule="evenodd" stroke="none"/>
    <path d="M73.1 100.7 L70.55 100.7 67.65 80.95 70.55 80.95 73.1 100.7 M13.9 100.7 L11.0 100.7 13.9 80.95 17.55 80.95 13.9 100.7 M82.95 52.45 Q77.5 67.1 70.55 75.5 L68.7 75.5 66.9 75.5 70.2 71.1 Q77.15 61.25 80.8 50.25 L81.9 46.95 Q82.95 48.45 84.45 49.55 L82.95 52.45 M4.05 46.6 L4.8 48.05 Q12.1 66.0 17.95 74.75 L17.95 75.1 14.65 75.1 Q7.7 64.15 2.95 51.7 L1.85 49.55 Q3.3 48.05 4.05 46.6" fill="#7c4b03" fill-rule="evenodd" stroke="none"/>
    <path d="M17.95 4.2 L19.05 4.2 65.05 3.1 Q64.7 6.75 63.95 10.05 43.5 34.9 18.65 10.4 17.95 7.5 17.95 4.2" fill="#a6a0a0" fill-rule="evenodd" stroke="none"/>
    <path d="M63.95 10.05 Q62.9 17.35 61.05 21.4 58.5 27.95 53.4 31.25 44.6 36.75 32.55 32.35 26.7 30.15 22.7 23.6 19.75 19.2 18.65 10.4 43.5 34.9 63.95 10.05" fill="#c4c4c4" fill-rule="evenodd" stroke="none"/>
    <path d="M35.85 80.95 L35.5 75.1 50.8 75.5 50.45 80.95 35.85 80.95 M37.65 76.95 L37.65 79.15 48.25 79.15 48.65 76.95 37.65 76.95" fill="#fdd69b" fill-rule="evenodd" stroke="none"/>
    <path d="M37.65 76.95 L48.65 76.95 48.25 79.15 37.65 79.15 37.65 76.95" fill="#e38902" fill-rule="evenodd" stroke="none"/>
    <path d="M53.4 44.05 Q58.15 43.3 60.7 48.45 61.05 50.65 60.7 52.8 60.3 55.4 58.15 57.2 59.2 57.55 60.7 60.5 61.05 61.6 60.7 63.05 L60.7 63.4 Q60.7 66.7 58.15 68.15 57.75 68.55 57.4 68.55 54.1 70.75 51.2 68.55 L51.2 70.0 47.15 70.0 47.15 62.7 51.2 62.7 51.2 65.25 Q55.2 67.8 57.4 63.4 57.75 58.65 53.0 59.05 L53.0 54.65 55.55 54.65 Q57.4 52.8 55.55 49.55 55.2 49.55 55.2 49.15 52.65 46.95 50.45 49.55 L50.45 51.7 45.7 51.7 45.7 44.05 49.75 44.05 49.75 46.25 Q51.2 44.4 53.4 44.05 M39.5 45.5 L39.5 49.55 32.9 66.35 36.2 66.35 36.2 70.75 25.6 70.75 25.6 66.35 29.25 66.35 34.0 50.25 30.0 50.25 30.0 53.2 26.35 53.2 26.35 45.5 39.5 45.5" fill="#773c00" fill-rule="evenodd" stroke="none"/>
  </g>
</svg>
