<?xml version="1.0" encoding="UTF-8" standalone="no"?>
<svg xmlns:xlink="http://www.w3.org/1999/xlink" height="102.15px" width="94.8px" xmlns="http://www.w3.org/2000/svg">
  <g transform="matrix(1.0, 0.0, 0.0, 1.0, 6.55, -0.15)">
    <path d="M85.25 43.35 L85.25 45.2 83.05 52.5 Q80.85 59.1 79.0 62.4 L72.45 73.7 73.15 76.25 72.8 79.2 75.0 98.95 45.05 99.3 44.3 89.45 40.65 89.45 38.1 98.55 7.4 98.95 11.4 79.2 11.05 79.2 9.6 77.0 9.6 76.65 9.95 73.7 6.65 67.5 Q3.4 59.45 0.45 54.7 -2.8 49.6 -3.55 47.75 L0.1 42.65 Q3.0 38.25 5.2 26.2 L7.05 11.95 7.75 11.95 8.85 3.15 71.0 3.15 72.8 11.95 73.9 11.95 75.35 20.7 76.45 25.1 76.45 25.8 Q76.8 28.0 77.55 30.2 79.75 37.9 81.95 39.7 85.25 42.25 85.25 43.35" fill="#636b35" fill-rule="evenodd" stroke="none"/>
    <path d="M85.25 43.35 L85.25 45.2 83.05 52.5 Q80.85 59.1 79.0 62.4 L72.45 73.7 73.15 76.25 72.8 79.2 75.0 98.95 45.05 99.3 44.3 89.45 40.65 89.45 38.1 98.55 7.4 98.95 11.4 79.2 11.05 79.2 9.6 77.0 9.6 76.65 9.95 73.7 6.65 67.5 Q3.4 59.45 0.45 54.7 -2.8 49.6 -3.55 47.75 L0.1 42.65 Q3.0 38.25 5.2 26.2 L7.05 11.95 7.75 11.95 8.85 3.15 71.0 3.15 72.8 11.95 73.9 11.95 75.35 20.7 76.45 25.1 76.45 25.8 Q76.8 28.0 77.55 30.2 79.75 37.9 81.95 39.7 85.25 42.25 85.25 43.35 Z" fill="none" stroke="#2a1b10" stroke-linecap="round" stroke-linejoin="round" stroke-width="6.0"/>
    <path d="M76.4 25.1 L76.15 27.5 71.25 46.45 43.0 56.15 12.5 46.3 5.75 27.9 6.25 24.4 Q15.3 28.35 20.3 29.55 28.85 31.75 43.7 31.75 53.6 31.75 66.55 28.1 L76.4 25.1" fill="#e2e2e2" fill-rule="evenodd" stroke="none"/>
    <path d="M6.25 24.4 L8.85 3.2 14.15 3.2 Q21.95 24.05 39.15 25.45 56.25 26.85 63.35 3.2 L70.85 3.2 76.4 24.85 76.4 25.1 66.55 28.1 Q53.6 31.75 43.7 31.75 28.85 31.75 20.3 29.55 15.3 28.35 6.25 24.4" fill="#adadad" fill-rule="evenodd" stroke="none"/>
    <path d="M14.15 3.2 L63.35 3.2 Q56.25 26.85 39.15 25.45 21.95 24.05 14.15 3.2" fill="#938f8f" fill-rule="evenodd" stroke="none"/>
    <path d="M82.35 39.65 Q85.65 42.2 85.65 43.3 L85.65 45.15 83.05 52.45 Q81.25 59.05 79.4 62.35 L72.85 73.65 73.2 74.0 73.55 76.2 73.2 78.4 Q72.45 79.15 71.5 79.15 L69.55 79.15 67.0 79.15 68.45 67.45 72.1 64.9 70.65 62.35 72.45 58.3 77.6 57.2 80.9 51.35 82.35 39.65 M5.6 26.15 L7.45 11.9 18.4 11.9 26.05 32.7 26.05 33.1 20.25 32.7 Q14.75 32.7 10.75 30.15 L5.6 26.15 M56.75 28.7 L62.95 11.9 73.95 11.9 Q75.75 22.85 77.95 30.15 L68.8 32.0 Q67.0 32.7 62.95 31.25 60.4 30.5 56.75 28.7" fill="#444532" fill-rule="evenodd" stroke="none"/>
    <path d="M73.2 78.4 L73.2 79.15 71.5 79.15 Q72.45 79.15 73.2 78.4 M0.5 42.6 Q3.4 38.2 5.6 26.15 L10.75 30.15 Q14.75 32.7 20.25 32.7 L26.05 33.1 29.35 34.9 Q46.55 42.2 56.75 28.7 60.4 30.5 62.95 31.25 67.0 32.7 68.8 32.0 L77.95 30.15 Q79.8 37.85 82.35 39.65 L80.9 51.35 77.6 57.2 72.45 58.3 70.65 62.35 72.1 64.9 68.45 67.45 67.0 79.15 41.8 79.15 41.8 60.5 39.95 60.5 39.95 79.15 17.3 79.15 17.3 67.45 12.2 64.5 10.35 60.5 10.75 58.3 4.5 50.25 0.5 42.6" fill="#51553c" fill-rule="evenodd" stroke="none"/>
    <path d="M11.8 79.15 L11.45 79.15 10.0 76.95 10.0 76.6 10.35 74.4 10.35 73.65 7.05 67.45 Q3.8 59.4 0.85 54.65 -2.4 49.55 -3.15 47.7 L0.5 42.6 4.5 50.25 10.75 58.3 10.35 60.5 12.2 64.5 17.3 67.45 17.3 79.15 16.55 79.15 13.65 79.15 11.8 79.15" fill="#3f422d" fill-rule="evenodd" stroke="none"/>
    <path d="M73.2 79.15 L75.4 98.9 72.45 98.9 69.55 79.15 71.5 79.15 73.2 79.15 M69.55 98.9 L45.45 99.25 44.7 89.4 41.05 89.4 38.5 98.5 13.3 98.9 16.55 79.15 17.3 79.15 39.95 79.15 41.8 79.15 67.0 79.15 69.55 98.9 M10.35 98.9 L7.8 98.9 11.8 79.15 13.65 79.15 10.35 98.9" fill="#f99706" fill-rule="evenodd" stroke="none"/>
    <path d="M72.45 98.9 L69.55 98.9 67.0 79.15 69.55 79.15 72.45 98.9 M13.3 98.9 L10.35 98.9 13.65 79.15 16.55 79.15 13.3 98.9" fill="#7c4b03" fill-rule="evenodd" stroke="none"/>
    <path d="M39.95 79.15 L39.95 60.5 41.8 60.5 41.8 79.15 39.95 79.15" fill="#9d4a16" fill-rule="evenodd" stroke="none"/>
    <path d="M45.05 25.05 Q45.05 25.75 45.45 26.85 45.45 29.05 43.6 29.8 44.35 30.15 44.7 30.9 45.45 31.25 44.7 32.0 L44.0 32.7 43.6 32.7 Q42.15 33.45 39.95 33.1 37.75 33.1 37.75 31.25 37.75 30.15 39.25 29.8 36.65 29.45 36.65 26.85 L37.05 25.4 37.05 25.05 45.05 25.05" fill="#c68119" fill-rule="evenodd" stroke="none"/>
    <path d="M37.05 25.05 L37.05 25.4 36.65 26.85 Q36.65 29.45 39.25 29.8 37.75 30.15 37.75 31.25 37.75 33.1 39.95 33.1 42.15 33.45 43.6 32.7 L44.0 32.7 44.7 32.0 Q45.45 31.25 44.7 30.9 44.35 30.15 43.6 29.8 45.45 29.05 45.45 26.85 45.05 25.75 45.05 25.05 L45.8 25.05 45.45 32.7 44.7 33.45 43.25 34.2 42.5 34.2 Q41.05 34.55 39.25 34.2 L38.85 34.2 37.75 34.2 Q37.4 33.8 36.3 33.1 L35.95 32.7 35.55 25.05 37.05 25.05" fill="#986314" fill-rule="evenodd" stroke="none"/>
    <path d="M36.3 33.1 Q37.4 33.8 37.75 34.2 L38.85 34.2 38.5 35.65 38.5 38.2 Q38.5 39.65 39.25 40.75 39.25 41.15 39.6 41.5 39.25 40.75 39.25 40.4 39.6 38.55 39.95 37.85 40.7 39.65 40.7 41.15 40.7 43.3 40.3 44.05 L40.3 44.8 Q41.8 43.3 42.5 41.15 43.25 39.3 43.25 36.75 43.25 35.3 42.5 34.2 L43.25 34.2 44.7 33.45 45.8 37.1 46.55 43.3 Q46.9 46.25 46.55 46.6 46.55 47.35 44.7 51.35 L43.6 53.55 41.8 56.85 Q40.3 58.65 39.6 56.85 L37.4 52.45 Q35.95 50.25 35.2 48.45 34.5 46.95 34.5 45.15 34.5 42.6 35.55 38.55 L36.3 33.1" fill="#febe5f" fill-rule="evenodd" stroke="none"/>
    <path d="M35.95 32.7 L36.3 33.1 35.55 38.55 Q34.5 42.6 34.5 45.15 34.5 46.95 35.2 48.45 35.95 50.25 37.4 52.45 L39.6 56.85 Q40.3 58.65 41.8 56.85 L43.6 53.55 44.7 51.35 Q46.55 47.35 46.55 46.6 46.9 46.25 46.55 43.3 L45.8 37.1 44.7 33.45 45.45 32.7 49.1 45.5 40.7 63.8 33.0 46.6 35.95 32.7 M38.85 34.2 L39.25 34.2 Q41.05 34.55 42.5 34.2 43.25 35.3 43.25 36.75 43.25 39.3 42.5 41.15 41.8 43.3 40.3 44.8 L40.3 44.05 Q40.7 43.3 40.7 41.15 40.7 39.65 39.95 37.85 39.6 38.55 39.25 40.4 39.25 40.75 39.6 41.5 39.25 41.15 39.25 40.75 38.5 39.65 38.5 38.2 L38.5 35.65 38.85 34.2" fill="#e5a547" fill-rule="evenodd" stroke="none"/>
    <path d="M38.85 60.15 L40.3 62.7 17.3 49.15 23.9 42.6 15.85 42.6 9.25 11.9 12.2 11.9 18.05 38.55 27.55 40.75 22.05 47.35 38.85 60.15 M14.0 11.9 L18.05 12.25 37.75 57.2 23.9 46.95 28.65 40.05 19.15 37.85 14.0 11.9" fill="#9d4a16" fill-rule="evenodd" stroke="none"/>
    <path d="M12.2 11.9 L14.0 11.9 19.15 37.85 28.65 40.05 23.9 46.95 37.75 57.2 38.85 60.15 22.05 47.35 27.55 40.75 18.05 38.55 12.2 11.9" fill="#ffe3bb" fill-rule="evenodd" stroke="none"/>
    <path d="M43.25 57.2 L62.6 12.25 67.35 12.25 61.9 37.85 52.4 40.05 57.5 46.95 43.25 57.2 M69.2 12.25 L71.4 12.25 65.55 42.6 57.5 42.6 64.05 49.15 41.05 62.7 42.15 60.15 59.3 47.35 53.5 40.75 63.35 38.55 69.2 12.25" fill="#9d4a16" fill-rule="evenodd" stroke="none"/>
    <path d="M67.35 12.25 L69.2 12.25 63.35 38.55 53.5 40.75 59.3 47.35 42.15 60.15 43.25 57.2 57.5 46.95 52.4 40.05 61.9 37.85 67.35 12.25" fill="#ffe3bb" fill-rule="evenodd" stroke="none"/>
    <path d="M30.1 66.35 L30.1 68.9 10.35 69.25 10.35 66.35 30.1 66.35 M22.05 73.65 Q21.7 74.0 20.95 74.0 L19.5 73.65 Q19.15 73.3 19.15 72.2 19.15 71.85 19.5 71.1 20.25 70.35 20.95 70.35 21.7 70.35 22.05 71.1 L22.4 72.2 Q22.4 73.3 22.05 73.65 M61.5 72.2 L61.9 71.1 Q62.6 70.35 63.35 70.35 63.7 70.35 64.45 71.1 L65.15 72.2 Q65.15 73.3 64.45 73.65 L63.35 74.0 61.9 73.65 Q61.5 73.3 61.5 72.2 M72.45 66.35 L72.45 68.9 52.75 69.25 52.75 66.35 72.45 66.35" fill="#9d4a16" fill-rule="evenodd" stroke="none"/>
    <path d="M10.35 66.35 L10.35 65.25 30.1 65.25 30.1 66.35 10.35 66.35 M52.75 66.35 L52.4 65.25 72.45 65.25 72.45 66.35 52.75 66.35" fill="#febe5f" fill-rule="evenodd" stroke="none"/>
  </g>
</svg>
