<?xml version="1.0" encoding="UTF-8" standalone="no"?>
<svg xmlns:xlink="http://www.w3.org/1999/xlink" height="200.3px" width="261.5px" xmlns="http://www.w3.org/2000/svg">
  <g transform="matrix(1.0, 0.0, 0.0, 1.0, 22.3, 11.4)">
    <path d="M113.9 -6.95 L130.0 -6.25 174.75 -2.75 211.35 1.2 211.2 1.8 212.1 1.9 211.1 2.35 202.0 41.1 202.3 43.85 Q209.4 45.0 215.25 48.75 L216.1 31.95 Q214.85 28.2 213.65 26.95 211.6 24.75 211.7 21.75 211.8 18.65 214.25 16.55 216.4 14.45 219.45 14.55 222.55 14.75 224.75 17.05 226.6 19.4 226.5 22.4 226.5 25.5 224.1 27.4 222.8 28.65 220.95 32.05 L220.0 52.45 Q224.45 56.45 227.9 62.25 237.5 78.2 234.45 98.3 231.45 118.4 217.6 130.9 205.85 141.4 192.3 141.25 L191.75 142.0 Q188.95 146.0 185.55 150.05 L184.6 151.35 Q181.15 155.1 177.4 158.5 176.8 158.85 176.5 159.5 L175.9 160.05 170.55 164.4 168.15 166.3 161.0 171.25 160.5 171.45 Q159.75 171.7 159.1 172.2 L155.35 174.35 Q154.2 174.6 153.25 175.25 L152.4 175.65 Q147.3 177.9 142.05 179.65 L138.55 180.75 136.15 181.45 135.05 181.75 133.75 182.1 127.65 183.4 Q126.7 183.45 127.6 183.25 L128.2 183.05 127.55 183.15 118.9 184.35 108.5 184.9 106.7 184.9 Q91.55 184.65 78.25 180.85 L75.5 180.0 72.4 178.95 71.95 178.75 71.4 178.55 65.9 176.25 Q64.75 175.6 63.75 175.25 L59.75 173.45 57.35 172.1 48.85 166.3 44.2 162.85 39.55 158.5 Q39.2 158.5 39.2 158.2 L32.7 151.6 29.0 147.3 26.35 143.85 Q22.85 143.2 19.5 141.9 8.8 140.35 -0.65 131.9 -14.55 119.4 -17.55 99.3 -20.6 79.2 -11.0 63.25 -8.75 59.45 -6.05 56.45 L-4.5 54.85 Q-1.9 52.15 1.1 50.2 5.95 46.9 11.85 45.45 L12.0 38.85 4.55 1.0 49.15 -6.5 Q71.95 -7.6 95.2 -7.35 L113.9 -6.95" fill="#000000" fill-rule="evenodd" stroke="none"/>
    <path d="M113.9 -6.95 L130.0 -6.25 174.75 -2.75 211.35 1.2 211.2 1.8 212.1 1.9 211.1 2.35 202.0 41.1 202.3 43.85 Q209.4 45.0 215.25 48.75 L216.1 31.95 Q214.85 28.2 213.65 26.95 211.6 24.75 211.7 21.75 211.8 18.65 214.25 16.55 216.4 14.45 219.45 14.55 222.55 14.75 224.75 17.05 226.6 19.4 226.5 22.4 226.5 25.5 224.1 27.4 222.8 28.65 220.95 32.05 L220.0 52.45 Q224.45 56.45 227.9 62.25 237.5 78.2 234.45 98.3 231.45 118.4 217.6 130.9 205.85 141.4 192.3 141.25 L191.75 142.0 Q188.95 146.0 185.55 150.05 L184.6 151.35 Q181.15 155.1 177.4 158.5 176.8 158.85 176.5 159.5 L175.9 160.05 170.55 164.4 168.15 166.3 161.0 171.25 160.5 171.45 Q159.75 171.7 159.1 172.2 L155.35 174.35 Q154.2 174.6 153.25 175.25 L152.4 175.65 Q147.3 177.9 142.05 179.65 L138.55 180.75 136.15 181.45 135.05 181.75 133.75 182.1 127.65 183.4 Q126.7 183.45 127.6 183.25 L128.2 183.05 127.55 183.15 118.9 184.35 108.5 184.9 106.7 184.9 Q91.55 184.65 78.25 180.85 L75.5 180.0 72.4 178.95 71.95 178.75 71.4 178.55 65.9 176.25 Q64.75 175.6 63.75 175.25 L59.75 173.45 57.35 172.1 48.85 166.3 44.2 162.85 39.55 158.5 Q39.2 158.5 39.2 158.2 L32.7 151.6 29.0 147.3 26.35 143.85 Q22.85 143.2 19.5 141.9 8.8 140.35 -0.65 131.9 -14.55 119.4 -17.55 99.3 -20.6 79.2 -11.0 63.25 -8.75 59.45 -6.05 56.45 L-4.5 54.85 Q-1.9 52.15 1.1 50.2 5.95 46.9 11.85 45.45 L12.0 38.85 4.55 1.0 49.15 -6.5 Q71.95 -7.6 95.2 -7.35 L113.9 -6.95 Z" fill="none" stroke="#411d14" stroke-linecap="round" stroke-linejoin="round" stroke-width="8.0"/>
    <path d="M-6.0 56.5 L-4.45 54.9 Q-1.85 52.2 1.1 50.25 7.4 46.0 15.25 44.8 31.85 42.3 45.75 54.8 59.65 67.2 62.7 87.3 65.7 107.4 56.1 123.4 46.45 139.4 29.85 141.85 L28.95 142.0 Q25.05 142.5 21.4 142.15 L19.95 142.0 Q9.0 140.55 -0.6 131.95 -14.5 119.45 -17.5 99.35 -20.55 79.25 -10.95 63.3 -8.7 59.5 -6.0 56.5" fill="#e9831f" fill-rule="evenodd" stroke="none"/>
    <path d="M1.65 58.55 L3.15 56.9 Q5.8 54.25 8.75 52.3 15.05 48.05 22.9 46.85 39.5 44.35 53.4 56.85 67.25 69.25 70.3 89.35 73.35 109.45 63.75 125.45 54.1 141.45 37.5 143.9 L36.55 144.05 Q32.7 144.55 29.05 144.2 L27.6 144.05 Q16.65 142.6 7.0 134.0 -6.85 121.5 -9.85 101.4 -12.9 81.3 -3.35 65.35 -1.05 61.55 1.65 58.55" fill="#fd9b0b" fill-rule="evenodd" stroke="none"/>
    <path d="M201.75 43.8 Q218.3 46.35 227.95 62.3 237.55 78.25 234.5 98.35 231.5 118.45 217.6 130.9 203.7 143.4 187.15 140.85 170.55 138.4 160.9 122.4 151.3 106.4 154.3 86.3 157.35 66.2 171.25 53.8 185.15 41.3 201.75 43.8" fill="#e9831f" fill-rule="evenodd" stroke="none"/>
    <path d="M194.8 43.8 Q211.4 46.35 221.05 62.3 230.6 78.25 227.55 98.35 224.55 118.45 210.7 130.9 196.8 143.4 180.2 140.85 163.6 138.4 153.95 122.4 144.35 106.4 147.4 86.3 150.45 66.2 164.3 53.8 178.2 41.3 194.8 43.8" fill="#fd9b0b" fill-rule="evenodd" stroke="none"/>
    <path d="M226.55 22.45 Q226.5 25.55 224.1 27.45 222.85 28.7 221.0 32.05 L219.5 63.5 Q217.15 65.95 214.55 63.25 L216.15 32.0 Q214.9 28.25 213.7 27.0 211.65 24.8 211.75 21.8 211.85 18.7 214.3 16.6 216.45 14.5 219.5 14.6 222.6 14.8 224.8 17.1 226.65 19.4 226.55 22.45" fill="#a66337" fill-rule="evenodd" stroke="none"/>
    <path d="M218.75 16.0 Q220.65 16.15 221.9 17.6 223.1 19.0 223.0 20.9 222.85 22.8 221.45 24.05 220.0 25.25 218.1 25.1 216.2 24.95 215.0 23.55 213.75 22.1 213.9 20.2 214.0 18.3 215.45 17.1 216.85 15.85 218.75 16.0" fill="#d9ad48" fill-rule="evenodd" stroke="none"/>
    <path d="M217.95 15.75 Q219.15 15.85 219.9 16.75 220.7 17.7 220.6 18.9 220.55 20.1 219.6 20.85 218.7 21.65 217.5 21.55 216.3 21.5 215.5 20.55 214.75 19.65 214.8 18.45 214.9 17.25 215.8 16.45 216.75 15.7 217.95 15.75" fill="#f4cba4" fill-rule="evenodd" stroke="none"/>
    <path d="M127.65 183.3 Q127.95 183.15 128.3 183.1 L127.6 183.2 118.95 184.4 108.55 184.95 106.75 184.95 Q91.6 184.7 78.3 180.9 L75.55 180.0 72.45 179.0 72.0 178.8 71.45 178.6 Q68.65 177.55 65.95 176.3 64.8 175.65 63.8 175.3 L59.75 173.5 57.4 172.15 Q53.05 169.5 48.9 166.35 46.45 164.7 44.25 162.9 L39.6 158.55 Q39.25 158.55 39.25 158.25 L32.75 151.65 29.05 147.3 Q11.0 124.65 11.0 94.8 11.0 90.4 11.35 86.2 L11.15 75.7 12.0 38.9 4.6 1.0 49.2 -6.45 Q72.0 -7.55 95.25 -7.3 L113.95 -6.9 130.0 -6.2 Q139.05 42.55 121.8 72.6 L133.45 68.25 Q144.85 64.15 151.8 62.35 173.5 55.4 183.4 56.8 184.0 82.15 194.1 92.6 198.5 117.9 194.45 130.6 192.4 136.7 187.75 143.6 184.85 147.95 176.55 158.25 L176.3 159.55 Q175.95 159.55 175.95 160.1 173.2 162.3 170.6 164.45 L168.2 166.35 Q164.45 168.8 161.05 171.3 L160.55 171.5 159.15 172.2 155.4 174.4 Q154.2 174.65 153.3 175.3 L152.95 175.0 152.45 175.7 Q147.35 177.95 142.1 179.7 L138.6 180.8 136.15 181.5 135.1 181.8 133.75 182.15 127.7 183.45 127.65 183.3" fill="#ffa31a" fill-rule="evenodd" stroke="none"/>
    <path d="M130.0 -6.2 L174.8 -2.75 200.85 0.1 194.75 39.0 203.4 116.15 Q199.9 130.0 191.8 142.05 L185.55 150.1 184.65 151.4 Q181.2 155.15 177.45 158.55 L176.55 158.25 Q184.85 147.95 187.75 143.6 192.4 136.7 194.45 130.6 198.5 117.9 194.1 92.6 184.0 82.15 183.4 56.8 173.5 55.4 151.8 62.35 144.85 64.15 133.45 68.25 L121.8 72.6 Q139.05 42.55 130.0 -6.2" fill="#fdad35" fill-rule="evenodd" stroke="none"/>
    <path d="M200.85 0.1 L211.4 1.25 202.05 41.15 205.2 77.1 205.25 82.85 Q206.05 88.65 206.1 94.8 206.0 106.0 203.4 116.15 L194.75 39.0 200.85 0.1" fill="#febe5f" fill-rule="evenodd" stroke="none"/>
    <path d="M177.45 158.55 Q176.85 158.9 176.55 159.55 L176.3 159.55 176.55 158.25 177.45 158.55" fill="#ff3366" fill-rule="evenodd" stroke="none"/>
    <path d="M176.55 159.55 L175.95 160.1 Q175.95 159.55 176.3 159.55 L176.55 159.55" fill="#e7e7e7" fill-rule="evenodd" stroke="none"/>
    <path d="M127.6 183.3 L127.65 183.3 127.7 183.45 127.6 183.3" fill="#edd0c5" fill-rule="evenodd" stroke="none"/>
    <path d="M127.7 183.45 Q126.75 183.5 127.6 183.3 L127.7 183.45" fill="#533d1c" fill-rule="evenodd" stroke="none"/>
    <path d="M153.3 175.3 L152.45 175.7 152.95 175.0 153.3 175.3" fill="#e2b7a5" fill-rule="evenodd" stroke="none"/>
    <path d="M114.65 -6.2 Q144.7 -5.25 175.55 -2.05 L212.15 1.95 204.0 5.25 174.7 2.75 Q150.25 3.05 120.2 2.1 L101.55 1.7 Q78.25 1.45 55.45 2.6 L24.45 23.05 18.3 47.95 17.45 84.75 17.65 95.2 Q17.25 99.45 17.25 103.85 17.25 127.15 28.3 146.1 11.7 124.1 11.7 95.5 11.7 91.1 12.1 86.9 L11.9 76.4 12.75 39.6 5.35 1.7 49.9 -5.75 Q72.7 -6.85 96.0 -6.6 L114.65 -6.2" fill="#e07a16" fill-rule="evenodd" stroke="none"/>
    <path d="M4.2 70.0 Q3.25 70.95 1.9 70.95 0.55 70.95 -0.45 70.0 -1.4 69.05 -1.4 67.7 -1.4 66.35 -0.45 65.35 0.55 64.4 1.9 64.4 3.25 64.4 4.2 65.35 5.15 66.35 5.15 67.7 5.15 69.05 4.2 70.0" fill="#f9dcc1" fill-rule="evenodd" stroke="none"/>
    <path d="M4.2 71.9 Q3.25 72.85 1.9 72.85 0.55 72.85 -0.45 71.9 -1.4 70.95 -1.4 69.6 -1.4 68.25 -0.45 67.25 0.55 66.3 1.9 66.3 3.25 66.3 4.2 67.25 5.15 68.25 5.15 69.6 5.15 70.95 4.2 71.9" fill="#a05912" fill-rule="evenodd" stroke="none"/>
    <path d="M5.35 119.8 Q4.4 120.75 3.05 120.75 1.7 120.75 0.7 119.8 -0.25 118.85 -0.25 117.5 -0.25 116.15 0.7 115.15 1.7 114.2 3.05 114.2 4.4 114.2 5.35 115.15 6.3 116.15 6.3 117.5 6.3 118.85 5.35 119.8" fill="#f9dcc1" fill-rule="evenodd" stroke="none"/>
    <path d="M5.35 121.55 Q4.4 122.5 3.05 122.5 1.7 122.5 0.7 121.55 -0.25 120.6 -0.25 119.25 -0.25 117.9 0.7 116.9 1.7 115.95 3.05 115.95 4.4 115.95 5.35 116.9 6.3 117.9 6.3 119.25 6.3 120.6 5.35 121.55" fill="#a05912" fill-rule="evenodd" stroke="none"/>
    <path d="M214.45 68.75 Q213.5 69.7 212.15 69.7 210.8 69.7 209.8 68.75 208.85 67.8 208.85 66.45 208.85 65.1 209.8 64.1 210.8 63.15 212.15 63.15 213.5 63.15 214.45 64.1 215.4 65.1 215.4 66.45 215.4 67.8 214.45 68.75" fill="#f9dcc1" fill-rule="evenodd" stroke="none"/>
    <path d="M214.45 70.0 Q213.5 70.95 212.15 70.95 210.8 70.95 209.8 70.0 208.85 69.05 208.85 67.7 208.85 66.35 209.8 65.35 210.8 64.4 212.15 64.4 213.5 64.4 214.45 65.35 215.4 66.35 215.4 67.7 215.4 69.05 214.45 70.0" fill="#a05912" fill-rule="evenodd" stroke="none"/>
    <path d="M215.45 118.1 Q214.5 119.05 213.15 119.05 211.8 119.05 210.8 118.1 209.85 117.15 209.85 115.8 209.85 114.45 210.8 113.45 211.8 112.5 213.15 112.5 214.5 112.5 215.45 113.45 216.4 114.45 216.4 115.8 216.4 117.15 215.45 118.1" fill="#f9dcc1" fill-rule="evenodd" stroke="none"/>
    <path d="M215.45 119.8 Q214.5 120.75 213.15 120.75 211.8 120.75 210.8 119.8 209.85 118.85 209.85 117.5 209.85 116.15 210.8 115.15 211.8 114.2 213.15 114.2 214.5 114.2 215.45 115.15 216.4 116.15 216.4 117.5 216.4 118.85 215.45 119.8" fill="#a05912" fill-rule="evenodd" stroke="none"/>
  </g>
</svg>
