<?xml version="1.0" encoding="UTF-8" standalone="no"?>
<svg xmlns:xlink="http://www.w3.org/1999/xlink" height="131.6px" width="170.6px" xmlns="http://www.w3.org/2000/svg">
  <g transform="matrix(1.0, 0.0, 0.0, 1.0, 10.4, 14.7)">
    <path d="M150.7 83.05 Q154.2 63.8 154.75 43.65 154.55 35.45 154.8 27.3 L154.85 25.1 Q145.55 15.7 144.65 -6.65 141.7 -7.3 125.85 -3.6 112.55 -0.55 99.9 4.9 L95.1 6.95 87.25 10.65 73.6 17.2 Q67.3 13.55 54.8 6.8 42.2 0.05 31.1 -2.95 20.0 -6.0 10.15 -8.1 4.7 12.9 -5.4 26.8 L-5.5 32.05 Q-7.2 56.0 -0.65 85.4 L-0.65 85.65 -6.5 77.85 Q-11.0 56.25 -10.3 40.9 L-9.55 25.1 -9.55 24.6 Q2.85 7.4 6.25 -14.7 L30.8 -9.1 Q42.55 -6.2 59.5 2.7 L63.25 4.75 73.35 10.9 Q79.4 8.55 84.15 5.95 L87.9 4.55 99.55 0.2 Q110.95 -3.9 117.9 -5.7 139.6 -12.65 149.5 -11.25 150.1 14.1 160.2 24.55 159.55 38.75 159.2 50.95 158.4 64.05 155.9 76.35 L150.7 83.15 150.7 83.05" fill="#7a440e" fill-rule="evenodd" stroke="none"/>
    <path d="M-0.65 85.4 Q-7.2 56.0 -5.5 32.05 L-5.4 26.8 Q4.7 12.9 10.15 -8.1 20.0 -6.0 31.1 -2.95 42.2 0.05 54.8 6.8 67.3 13.55 73.6 17.2 L87.25 10.65 95.1 6.95 99.9 4.9 Q112.55 -0.55 125.85 -3.6 141.7 -7.3 144.65 -6.65 145.55 15.7 154.85 25.1 L154.8 27.3 Q154.55 35.45 154.75 43.65 154.2 63.8 150.7 83.05 L147.2 86.75 146.15 87.85 144.7 89.25 142.1 91.85 142.05 92.05 Q139.3 94.25 136.7 96.4 L134.3 98.3 127.15 103.25 126.65 103.45 125.25 104.15 Q123.4 105.1 121.5 106.35 120.3 106.6 119.4 107.25 L119.05 106.95 118.55 107.65 Q113.45 109.9 108.2 111.65 110.95 108.0 112.05 101.6 113.15 95.2 114.05 91.95 L115.15 87.05 Q91.4 81.25 75.9 80.6 60.3 80.0 33.0 84.1 33.35 97.9 38.1 110.75 L37.55 110.55 32.05 108.25 29.9 107.25 25.85 105.45 23.5 104.1 16.4 99.7 Q13.65 97.95 12.55 97.1 L11.15 96.05 9.5 95.2 -0.65 85.4" fill="#f2e1d0" fill-rule="evenodd" stroke="none"/>
    <path d="M106.1 92.85 L106.05 92.85 106.15 92.75 106.1 92.75 106.15 92.45 105.95 92.8 105.85 92.85 100.05 90.5 88.25 87.8 Q70.8 86.85 66.45 87.2 L54.8 87.95 Q47.35 88.35 43.15 89.75 L39.8 89.55 37.2 88.9 36.75 88.1 Q57.55 83.55 76.35 84.7 95.1 85.95 109.9 91.7 L109.7 92.1 106.1 92.85" fill="#fffbf7" fill-rule="evenodd" stroke="none"/>
    <path d="M88.25 87.8 L100.05 90.5 105.85 92.85 105.95 92.8 106.15 92.45 106.1 92.75 106.15 92.75 106.05 92.85 106.1 92.85 Q105.8 98.85 104.85 104.95 103.95 110.5 101.2 113.75 L99.85 114.1 93.8 115.4 93.75 115.25 94.4 115.05 93.7 115.15 85.05 116.35 Q87.35 113.75 88.1 107.55 88.75 101.95 88.25 87.8" fill="#debfa0" fill-rule="evenodd" stroke="none"/>
    <path d="M38.1 110.75 Q33.35 97.9 33.0 84.1 60.3 80.0 75.9 80.6 91.4 81.25 115.15 87.05 L114.05 91.95 Q113.15 95.2 112.05 101.6 110.95 108.0 108.2 111.65 L104.7 112.75 Q106.95 108.6 108.15 102.9 L109.7 95.55 Q110.1 93.9 109.7 92.1 L109.9 91.7 Q95.1 85.95 76.35 84.7 57.55 83.55 36.75 88.1 L37.2 88.9 Q36.55 102.1 41.65 111.95 L38.55 110.95 38.1 110.75" fill="#824306" fill-rule="evenodd" stroke="none"/>
    <path d="M106.1 92.85 L109.7 92.1 Q110.1 93.9 109.7 95.55 L108.15 102.9 Q106.95 108.6 104.7 112.75 L102.25 113.45 101.2 113.75 Q103.95 110.5 104.85 104.95 105.8 98.85 106.1 92.85" fill="#ecd6b5" fill-rule="evenodd" stroke="none"/>
    <path d="M37.2 88.9 L39.8 89.55 Q39.7 92.65 40.25 95.45 40.8 98.25 41.25 103.95 41.65 109.65 44.4 112.85 L41.65 111.95 Q36.55 102.1 37.2 88.9" fill="#fbcfa6" fill-rule="evenodd" stroke="none"/>
    <path d="M39.8 89.55 L43.15 89.75 Q47.35 88.35 54.8 87.95 L66.45 87.2 Q70.8 86.85 88.25 87.8 88.75 101.95 88.1 107.55 87.35 113.75 85.05 116.35 L74.65 116.9 72.85 116.9 Q57.7 116.65 44.4 112.85 41.65 109.65 41.25 103.95 40.8 98.25 40.25 95.45 39.7 92.65 39.8 89.55" fill="#f2e4d9" fill-rule="evenodd" stroke="none"/>
    <path d="M49.5 98.0 Q49.5 99.05 48.8 99.7 48.1 100.45 47.1 100.45 46.1 100.45 45.35 99.7 44.65 99.05 44.65 98.0 44.65 97.05 45.35 96.3 46.1 95.6 47.1 95.6 48.1 95.6 48.8 96.3 49.5 97.05 49.5 98.0" fill="#faf0d3" fill-rule="evenodd" stroke="none"/>
    <path d="M48.8 98.05 Q48.8 98.8 48.3 99.3 47.75 99.8 47.05 99.8 46.3 99.8 45.8 99.3 45.3 98.8 45.3 98.05 45.3 97.35 45.8 96.8 46.3 96.3 47.05 96.3 47.75 96.3 48.3 96.8 48.8 97.35 48.8 98.05" fill="#8c6c4d" fill-rule="evenodd" stroke="none"/>
    <path d="M67.35 96.75 Q67.35 97.8 66.65 98.45 65.95 99.2 64.95 99.2 63.95 99.2 63.2 98.45 62.5 97.8 62.5 96.75 62.5 95.8 63.2 95.05 63.95 94.35 64.95 94.35 65.95 94.35 66.65 95.05 67.35 95.8 67.35 96.75" fill="#faf0d3" fill-rule="evenodd" stroke="none"/>
    <path d="M66.65 96.8 Q66.65 97.55 66.15 98.05 65.6 98.55 64.9 98.55 64.15 98.55 63.65 98.05 63.15 97.55 63.15 96.8 63.15 96.1 63.65 95.55 64.15 95.05 64.9 95.05 65.6 95.05 66.15 95.55 66.65 96.1 66.65 96.8" fill="#8c6c4d" fill-rule="evenodd" stroke="none"/>
    <path d="M87.9 96.75 Q87.9 97.8 87.2 98.45 86.5 99.2 85.5 99.2 84.5 99.2 83.75 98.45 83.05 97.8 83.05 96.75 83.05 95.8 83.75 95.05 84.5 94.35 85.5 94.35 86.5 94.35 87.2 95.05 87.9 95.8 87.9 96.75" fill="#faf0d3" fill-rule="evenodd" stroke="none"/>
    <path d="M87.2 96.8 Q87.2 97.55 86.7 98.05 86.15 98.55 85.45 98.55 84.7 98.55 84.2 98.05 83.7 97.55 83.7 96.8 83.7 96.1 84.2 95.55 84.7 95.05 85.45 95.05 86.15 95.05 86.7 95.55 87.2 96.1 87.2 96.8" fill="#8c6c4d" fill-rule="evenodd" stroke="none"/>
    <path d="M103.0 99.8 Q103.0 100.85 102.3 101.5 101.6 102.25 100.6 102.25 99.6 102.25 98.85 101.5 98.15 100.85 98.15 99.8 98.15 98.85 98.85 98.1 99.6 97.4 100.6 97.4 101.6 97.4 102.3 98.1 103.0 98.85 103.0 99.8" fill="#faf0d3" fill-rule="evenodd" stroke="none"/>
    <path d="M102.3 99.85 Q102.3 100.6 101.8 101.1 101.25 101.6 100.55 101.6 99.8 101.6 99.3 101.1 98.8 100.6 98.8 99.85 98.8 99.15 99.3 98.6 99.8 98.1 100.55 98.1 101.25 98.1 101.8 98.6 102.3 99.15 102.3 99.85" fill="#8c6c4d" fill-rule="evenodd" stroke="none"/>
  </g>
</svg>
