<?xml version="1.0" encoding="UTF-8" standalone="no"?>
<svg xmlns:xlink="http://www.w3.org/1999/xlink" height="7.25px" width="7.6px" xmlns="http://www.w3.org/2000/svg">
  <g transform="matrix(1.0, 0.0, 0.0, 1.0, 0.5, 0.5)">
    <path d="M1.65 0.15 L2.85 0.25 4.9 0.1 5.25 0.05 5.45 0.0 5.45 0.05 5.5 0.9 5.45 1.0 5.35 1.05 5.7 1.35 Q6.45 2.1 6.55 3.35 L6.5 4.4 6.15 5.15 Q5.65 5.85 4.7 6.1 L2.55 6.15 Q1.65 5.95 1.25 5.3 L1.25 5.25 0.65 5.1 0.2 4.55 Q-0.15 3.75 0.05 2.85 0.3 1.85 1.25 1.3 L1.3 0.85 1.4 0.15 1.65 0.2 1.65 0.15 M1.25 5.3 L1.35 5.1 1.2 4.35 1.15 3.6 1.15 3.5 1.1 3.0 1.15 3.5 1.15 3.6 1.2 4.35 1.35 5.1 1.25 5.3" fill="#771516" fill-rule="evenodd" stroke="none"/>
    <path d="M5.45 1.0 L5.35 1.05 5.7 1.35 Q6.45 2.1 6.55 3.35 L6.5 4.4 6.15 5.15 Q5.65 5.85 4.7 6.1 L2.55 6.15 Q1.65 5.95 1.25 5.3 L1.25 5.25 0.65 5.1 0.2 4.55 Q-0.15 3.75 0.05 2.85 0.3 1.85 1.25 1.3 L1.3 0.85 M1.4 0.15 L1.65 0.2 1.65 0.15" fill="none" stroke="#681a1a" stroke-linecap="round" stroke-linejoin="round" stroke-width="1.0"/>
    <path d="M1.65 0.15 L2.85 0.25 4.9 0.1 5.25 0.05 5.45 0.0 5.45 0.05 5.5 0.9 5.45 1.0 M1.3 0.85 L1.4 0.15" fill="none" stroke="#585858" stroke-linecap="round" stroke-linejoin="round" stroke-width="1.0"/>
    <path d="M1.1 3.0 L1.15 3.5 1.15 3.6 1.2 4.35 1.35 5.1 1.25 5.3" fill="none" stroke="#231815" stroke-linecap="round" stroke-linejoin="miter" stroke-width="0.05"/>
    <path d="M5.7 1.35 Q6.45 2.1 6.55 3.35 L6.5 4.4 6.15 5.15 Q5.65 5.85 4.7 6.1 L2.55 6.15 Q1.65 5.95 1.25 5.3 L1.25 5.25 0.65 5.1 0.2 4.55 Q-0.15 3.75 0.05 2.85 0.4 1.55 1.85 1.0 L3.3 0.7 Q4.9 0.55 5.7 1.35" fill="#c92122" fill-rule="evenodd" stroke="none"/>
    <path d="M1.7 4.25 L2.05 3.9 Q2.55 3.55 3.3 3.6 L4.8 3.8 Q5.35 4.0 5.5 4.45 5.8 5.05 5.6 5.4 L5.05 5.85 3.5 6.1 Q2.2 6.1 1.85 5.65 L1.5 4.9 1.7 4.25" fill="#fc4c4d" fill-rule="evenodd" stroke="none"/>
    <path d="M6.35 3.05 L6.2 4.05 6.05 3.65 5.45 3.0 Q3.85 1.95 2.35 2.7 1.85 2.95 1.5 3.35 L1.2 3.7 Q0.9 3.1 1.25 2.25 1.55 1.65 2.35 1.3 L3.1 1.05 3.7 1.0 4.85 1.25 Q6.25 1.95 6.35 3.05" fill="#771516" fill-rule="evenodd" stroke="none"/>
    <path d="M1.3 3.0 L1.15 3.5 Q1.1 4.05 1.2 4.35 L1.35 5.1 1.2 5.35" fill="none" stroke="#6d2c2c" stroke-linecap="round" stroke-linejoin="miter" stroke-width="0.05"/>
    <path d="M5.25 0.05 L5.2 1.1 4.75 1.25 4.9 0.1 5.25 0.05" fill="#ffffff" fill-rule="evenodd" stroke="none"/>
    <path d="M5.2 1.1 L5.25 0.05 5.45 0.0 5.45 0.05 5.5 0.9 5.45 1.0 5.2 1.1 M4.9 0.1 L4.75 1.25 2.75 1.5 2.85 0.25 4.9 0.1 M1.65 0.2 Q1.55 0.7 1.6 1.4 L1.4 1.35 1.25 1.3 1.3 0.85 1.4 0.15 1.65 0.2" fill="#9e9e9e" fill-rule="evenodd" stroke="none"/>
    <path d="M2.85 0.25 L2.75 1.5 1.6 1.4 Q1.55 0.7 1.65 0.2 L1.65 0.15 2.85 0.25" fill="#6b6b6b" fill-rule="evenodd" stroke="none"/>
  </g>
</svg>
