<?xml version="1.0" encoding="UTF-8" standalone="no"?>
<svg xmlns:xlink="http://www.w3.org/1999/xlink" height="15.6px" width="30.7px" xmlns="http://www.w3.org/2000/svg">
  <g transform="matrix(1.0, 0.0, 0.0, 1.0, 31.1, 8.0)">
    <path d="M-0.4 -1.35 L-0.55 -1.25 -3.4 -3.1 -4.1 -3.15 -4.45 -2.8 -4.75 -2.7 -6.95 -1.25 -9.8 -3.1 -10.5 -3.15 -11.0 -2.55 -13.0 -1.25 -15.85 -3.1 -16.55 -3.15 -16.95 -2.75 -17.05 -2.7 -18.3 -1.85 -18.3 -2.1 -17.05 -2.95 -16.95 -3.0 -16.55 -3.4 -15.85 -3.35 -13.0 -1.5 -11.0 -2.8 -10.5 -3.4 -9.8 -3.35 -6.95 -1.5 -4.75 -2.95 -4.45 -3.05 -4.1 -3.4 -3.4 -3.35 -0.55 -1.5 -0.4 -1.6 -0.4 -1.35 M-18.3 -0.1 L-16.7 -0.1 -16.85 0.0 -16.3 0.35 -16.1 0.5 -15.35 0.0 -15.5 -0.1 -10.45 -0.1 -10.6 0.0 -10.05 0.35 -9.95 0.45 -9.3 0.0 -9.45 -0.1 -4.4 -0.1 -4.55 0.0 -4.0 0.35 -3.75 0.6 -2.9 0.0 -3.05 -0.1 -0.4 -0.1 -0.4 1.65 -0.55 1.55 -3.4 3.35 -4.1 3.4 -4.45 3.05 -4.75 2.95 -6.95 1.55 -9.8 3.35 -10.5 3.4 -11.0 2.85 -13.0 1.55 -15.85 3.35 -16.55 3.4 -16.95 3.0 -17.05 2.95 -18.3 2.15 -18.3 -0.1" fill="#0c100f" fill-rule="evenodd" stroke="none"/>
    <path d="M-18.3 -1.85 L-17.05 -2.7 -16.95 -2.75 -16.55 -3.15 -15.85 -3.1 -13.0 -1.25 -11.0 -2.55 -10.5 -3.15 -9.8 -3.1 -6.95 -1.25 -4.75 -2.7 -4.45 -2.8 -4.1 -3.15 -3.4 -3.1 -0.55 -1.25 -0.4 -1.35 -0.4 -0.1 -3.05 -0.1 -3.45 -0.1 -3.75 -0.3 -4.0 -0.1 -4.4 -0.1 -9.45 -0.1 -9.8 -0.1 -9.95 -0.15 -10.05 -0.1 -10.45 -0.1 -15.5 -0.1 -15.9 -0.1 -16.1 -0.25 -16.3 -0.1 -16.7 -0.1 -18.3 -0.1 -18.3 -1.85" fill="#4f5b56" fill-rule="evenodd" stroke="none"/>
    <path d="M-26.25 6.6 L-22.95 3.75 -28.15 3.15 -24.55 2.15 -27.65 0.05 -24.25 -0.35 -28.15 -3.25 -24.2 -2.7 -25.0 -5.0 -21.45 -2.7 -23.95 -3.85 -22.75 -1.45 -25.4 -1.85 -22.4 0.35 -26.25 0.2 -23.05 2.35 -25.5 2.95 -21.6 3.35 -26.25 6.6" fill="#ff6600" fill-rule="evenodd" stroke="none"/>
    <path d="M-21.45 -2.7 L-25.0 -5.0 -24.2 -2.7 -28.15 -3.25 -24.25 -0.35 -27.65 0.05 -24.55 2.15 -28.15 3.15 -22.95 3.75 -26.25 6.6 -27.7 7.6 -23.95 4.1 -31.1 3.35 -25.6 1.95 -30.4 -0.45 -25.65 -0.9 -31.0 -4.85 -25.2 -3.45 -26.75 -8.0 -21.45 -2.7" fill="#ff9900" fill-rule="evenodd" stroke="none"/>
  </g>
</svg>
