<?xml version="1.0" encoding="UTF-8" standalone="no"?>
<svg xmlns:xlink="http://www.w3.org/1999/xlink" height="5.55px" width="5.15px" xmlns="http://www.w3.org/2000/svg">
  <g transform="matrix(1.0, 0.0, 0.0, 1.0, 0.25, 0.25)">
    <path d="M0.4 3.25 L0.35 3.05 0.35 2.9 Q0.35 2.0 0.95 1.35 1.6 0.75 2.5 0.75 3.4 0.75 4.0 1.35 L4.05 1.4 Q4.65 2.05 4.65 2.9 L4.65 3.05 Q4.6 3.85 4.0 4.4 3.4 5.05 2.5 5.05 1.6 5.05 0.95 4.4 0.45 3.9 0.4 3.25" fill="url(#gradient0)" fill-rule="evenodd" stroke="none"/>
    <path d="M4.05 1.4 L4.0 1.35 Q3.4 0.75 2.5 0.75 1.6 0.75 0.95 1.35 0.35 2.0 0.35 2.9 L0.35 3.05 0.4 3.25 Q0.0 2.75 0.0 2.05 0.0 1.2 0.6 0.6 1.2 0.0 2.1 0.0 2.95 0.0 3.5 0.6 L4.05 1.4" fill="#80cb52" fill-rule="evenodd" stroke="none"/>
    <path d="M4.05 1.4 L3.5 0.6 Q2.95 0.0 2.1 0.0 1.2 0.0 0.6 0.6 0.0 1.2 0.0 2.05 0.0 2.75 0.4 3.25 0.45 3.9 0.95 4.4 1.6 5.05 2.5 5.05 3.4 5.05 4.0 4.4 4.6 3.85 4.65 3.05 L4.65 2.9 Q4.65 2.05 4.05 1.4 Z" fill="none" stroke="#334829" stroke-linecap="round" stroke-linejoin="round" stroke-width="0.5"/>
  </g>
  <defs>
    <radialGradient cx="0" cy="0" gradientTransform="matrix(0.0034, 0.0, 0.0, 0.0034, 2.5, 2.9)" gradientUnits="userSpaceOnUse" id="gradient0" r="819.2" spreadMethod="pad">
      <stop offset="0.0" stop-color="#5c9a35"/>
      <stop offset="1.0" stop-color="#334829"/>
    </radialGradient>
  </defs>
</svg>
