<?xml version="1.0" encoding="UTF-8" standalone="no"?>
<svg xmlns:xlink="http://www.w3.org/1999/xlink" height="7.15px" width="41.75px" xmlns="http://www.w3.org/2000/svg">
  <g transform="matrix(1.0, 0.0, 0.0, 1.0, 42.15, 3.65)">
    <path d="M-0.4 -1.35 L-0.55 -1.25 -3.4 -3.1 -4.1 -3.15 -4.45 -2.8 -4.75 -2.7 -6.95 -1.25 -9.8 -3.1 -10.5 -3.15 -11.0 -2.55 -13.0 -1.25 -15.85 -3.1 -16.55 -3.15 -16.95 -2.75 -17.05 -2.7 -19.25 -1.25 -22.1 -3.1 -22.8 -3.15 -23.3 -2.55 -25.3 -1.25 -28.15 -3.1 -28.85 -3.15 -29.05 -3.0 -29.7 -2.95 -31.95 -1.45 -34.75 -3.25 -35.45 -3.3 -35.85 -2.85 -38.0 -1.45 -40.8 -3.25 -41.5 -3.3 -42.05 -2.55 -42.1 -2.15 -42.05 -2.8 -41.5 -3.55 -40.8 -3.5 -38.0 -1.7 -35.85 -3.1 -35.45 -3.55 -34.75 -3.5 -31.95 -1.7 -29.7 -3.2 -29.05 -3.25 -28.85 -3.4 -28.15 -3.35 -25.3 -1.5 -23.3 -2.8 -22.8 -3.4 -22.1 -3.35 -19.25 -1.5 -17.05 -2.95 -16.95 -3.0 -16.55 -3.4 -15.85 -3.35 -13.0 -1.5 -11.0 -2.8 -10.5 -3.4 -9.8 -3.35 -6.95 -1.5 -4.75 -2.95 -4.45 -3.05 -4.1 -3.4 -3.4 -3.35 -0.55 -1.5 -0.4 -1.6 -0.4 -1.35 M-40.55 -0.1 L-35.45 -0.1 -35.0 0.2 -34.95 0.25 -34.45 -0.1 -29.4 -0.1 -28.95 0.2 -28.6 0.6 -27.65 0.0 -27.8 -0.1 -22.75 -0.1 -22.9 0.0 -22.35 0.35 -22.25 0.45 -21.6 0.0 -21.75 -0.1 -16.7 -0.1 -16.85 0.0 -16.3 0.35 -16.1 0.5 -15.35 0.0 -15.5 -0.1 -10.45 -0.1 -10.6 0.0 -10.05 0.35 -9.95 0.45 -9.3 0.0 -9.45 -0.1 -4.4 -0.1 -4.55 0.0 -4.0 0.35 -3.75 0.6 -2.9 0.0 -3.05 -0.1 -0.4 -0.1 -0.4 1.65 -0.55 1.55 -3.4 3.35 -4.1 3.4 -4.45 3.05 -4.75 2.95 -6.95 1.55 -9.8 3.35 -10.5 3.4 -11.0 2.85 -13.0 1.55 -15.85 3.35 -16.55 3.4 -16.95 3.0 -17.05 2.95 -19.25 1.55 -22.1 3.35 -22.8 3.4 -23.3 2.85 -25.3 1.55 -28.15 3.35 -28.85 3.4 -29.3 2.9 -29.7 2.8 -31.95 1.35 -34.75 3.1 -35.45 3.15 -35.85 2.75 -38.0 1.35 -40.8 3.1 -41.5 3.15 -42.05 2.4 -42.05 1.35 -41.55 0.55 -40.55 -0.1" fill="#0c100f" fill-rule="evenodd" stroke="none"/>
    <path d="M-42.1 -2.15 L-42.05 -2.55 -41.5 -3.3 -40.8 -3.25 -38.0 -1.45 -35.85 -2.85 -35.45 -3.3 -34.75 -3.25 -31.95 -1.45 -29.7 -2.95 -29.05 -3.0 -28.85 -3.15 -28.15 -3.1 -25.3 -1.25 -23.3 -2.55 -22.8 -3.15 -22.1 -3.1 -19.25 -1.25 -17.05 -2.7 -16.95 -2.75 -16.55 -3.15 -15.85 -3.1 -13.0 -1.25 -11.0 -2.55 -10.5 -3.15 -9.8 -3.1 -6.95 -1.25 -4.75 -2.7 -4.45 -2.8 -4.1 -3.15 -3.4 -3.1 -0.55 -1.25 -0.4 -1.35 -0.4 -0.1 -3.05 -0.1 -3.45 -0.1 -3.75 -0.3 -4.0 -0.1 -4.4 -0.1 -9.45 -0.1 -9.8 -0.1 -9.95 -0.15 -10.05 -0.1 -10.45 -0.1 -15.5 -0.1 -15.9 -0.1 -16.1 -0.25 -16.3 -0.1 -16.7 -0.1 -21.75 -0.1 -22.1 -0.1 -22.25 -0.15 -22.35 -0.1 -22.75 -0.1 -27.8 -0.1 -28.2 -0.1 -28.8 -0.45 -28.95 -0.35 -29.35 -0.1 -29.4 -0.1 -34.45 -0.1 -34.55 -0.1 -34.95 -0.35 -35.0 -0.35 -35.4 -0.1 -35.45 -0.1 -40.55 -0.1 -40.6 -0.1 -41.55 -0.7 -42.05 -1.5 -42.1 -2.15" fill="#4f5b56" fill-rule="evenodd" stroke="none"/>
  </g>
</svg>
