<?xml version="1.0" encoding="UTF-8" standalone="no"?>
<svg xmlns:xlink="http://www.w3.org/1999/xlink" height="4.7px" width="13.75px" xmlns="http://www.w3.org/2000/svg">
  <g transform="matrix(1.0, 0.0, 0.0, 1.0, 14.05, 2.2)">
    <path d="M-12.7 -2.1 L-9.8 -0.8 -7.85 -1.65 -7.35 -2.1 -6.65 -2.1 -3.75 -0.8 -1.6 -1.75 -0.9 -1.85 -0.35 -1.3 Q-0.2 -0.95 -0.35 -0.6 L-0.85 -0.1 -1.45 0.2 -0.85 0.45 -0.35 0.95 Q-0.2 1.3 -0.35 1.65 L-0.9 2.2 -1.6 2.1 -3.75 1.2 -6.65 2.45 -7.35 2.45 -7.85 2.0 -9.8 1.2 -12.7 2.45 -13.4 2.45 -13.95 1.95 -13.95 1.2 -13.45 0.7 -12.2 0.2 -13.45 -0.35 -13.95 -0.85 -13.95 -1.6 -13.4 -2.1 -12.7 -2.1 M-6.15 0.2 L-6.85 -0.1 -7.5 0.2 -6.85 0.5 -6.15 0.2" fill="#0c100f" fill-rule="evenodd" stroke="none"/>
  </g>
</svg>
