<?xml version="1.0" encoding="UTF-8" standalone="no"?>
<svg xmlns:xlink="http://www.w3.org/1999/xlink" height="67.2px" width="58.5px" xmlns="http://www.w3.org/2000/svg">
  <g transform="matrix(1.0, 0.0, 0.0, 1.0, 17.8, 58.75)">
    <path d="M28.05 -55.75 L12.7 -32.35 11.55 -31.4 Q10.5 -30.25 10.05 -29.05 L2.0 -20.2 2.0 -20.25 -3.4 -18.9 -3.8 -18.8 -3.75 -18.65 Q-8.3 -18.15 -11.5 -14.8 -14.95 -11.2 -14.8 -6.25 -14.55 -1.2 -11.0 2.2 -7.4 5.65 -2.45 5.45 2.55 5.3 6.0 1.75 9.45 -1.95 9.2 -6.9 L9.4 -6.9 10.1 -9.4 11.05 -12.85 11.0 -12.85 17.8 -20.4 18.0 -20.45 Q19.8 -20.85 21.1 -22.3 22.6 -23.8 22.85 -25.65 L22.9 -26.8 35.5 -46.05 37.7 -49.4 35.5 -50.75 35.15 -51.0 29.95 -54.55 28.05 -55.75 Z" fill="none" stroke="#4c0e62" stroke-linecap="round" stroke-linejoin="round" stroke-width="6.0"/>
    <path d="M19.7 -26.95 L3.0 -9.0 -1.8 -12.5 15.15 -31.45 19.7 -26.95" fill="#c8c8c8" fill-rule="evenodd" stroke="none"/>
    <path d="M-3.7 -14.05 L13.5 -33.0 15.15 -31.45 -1.8 -12.5 -3.7 -14.05" fill="#a2a2a2" fill-rule="evenodd" stroke="none"/>
    <path d="M19.7 -26.95 L21.9 -25.0 5.25 -6.75 3.0 -9.0 19.7 -26.95" fill="#e6e6e6" fill-rule="evenodd" stroke="none"/>
    <path d="M3.0 -9.0 L5.25 -6.75 M-3.7 -14.05 L-1.8 -12.5 3.0 -9.0 Z" fill="none" stroke="#283757" stroke-linecap="round" stroke-linejoin="round" stroke-opacity="0.49803922" stroke-width="0.1"/>
    <path d="M29.9 -54.6 L13.4 -29.0 11.2 -30.2 28.0 -55.8 29.9 -54.6" fill="#a2a2a2" fill-rule="evenodd" stroke="none"/>
    <path d="M29.9 -54.6 L35.1 -51.05 18.75 -26.35 13.4 -29.0 29.9 -54.6" fill="#c8c8c8" fill-rule="evenodd" stroke="none"/>
    <path d="M18.75 -26.35 L35.1 -51.05 37.65 -49.45 21.25 -24.5 18.75 -26.35" fill="#e6e6e6" fill-rule="evenodd" stroke="none"/>
    <path d="M13.4 -29.0 L18.75 -26.35 M21.25 -24.5 L18.75 -26.35 M11.2 -30.2 L13.4 -29.0 Z" fill="none" stroke="#283757" stroke-linecap="round" stroke-linejoin="round" stroke-opacity="0.49803922" stroke-width="0.1"/>
    <path d="M22.8 -25.7 Q22.55 -23.85 21.1 -22.35 19.75 -20.9 17.95 -20.5 L16.45 -20.25 14.3 -20.65 Q12.9 -21.0 11.75 -22.05 10.15 -23.6 9.75 -25.7 L9.65 -26.65 Q9.6 -27.8 9.9 -28.75 10.35 -30.2 11.5 -31.45 L13.85 -33.1 16.1 -33.5 17.6 -33.35 Q19.35 -33.0 20.85 -31.7 22.45 -30.2 22.75 -28.15 L22.8 -27.1 22.8 -25.7" fill="#b7b7b7" fill-rule="evenodd" stroke="none"/>
    <path d="M21.45 -26.05 Q21.4 -28.25 19.85 -29.8 18.2 -31.35 16.0 -31.3 13.8 -31.25 12.35 -29.7 10.75 -28.15 10.8 -25.95 10.8 -23.75 12.45 -22.15 13.95 -20.6 16.15 -20.65 18.35 -20.7 19.95 -22.25 21.45 -23.85 21.45 -26.05" fill="#dae3e9" fill-rule="evenodd" stroke="none"/>
    <path d="M18.7 -22.95 Q19.45 -22.95 19.95 -23.45 20.45 -24.05 20.45 -24.8 20.45 -25.55 19.95 -26.05 19.4 -26.6 18.65 -26.6 17.9 -26.6 17.35 -26.05 16.8 -25.5 16.8 -24.75 16.8 -24.0 17.35 -23.45 17.95 -22.95 18.7 -22.95" fill="#ffffff" fill-rule="evenodd" stroke="none"/>
    <path d="M7.8 -12.35 L8.8 -9.8 9.15 -6.95 Q9.4 -1.95 5.95 1.75 2.5 5.3 -2.5 5.45 -7.45 5.65 -11.05 2.2 -14.6 -1.2 -14.85 -6.25 -15.0 -11.2 -11.55 -14.8 -8.15 -18.4 -3.15 -18.65 L-0.9 -18.5 2.1 -17.55 Q3.9 -16.8 5.45 -15.3 L7.8 -12.35" fill="#b149d7" fill-rule="evenodd" stroke="none"/>
    <path d="M-3.4 2.3 Q0.35 2.25 3.0 -0.35 5.5 -3.1 5.45 -6.85 5.4 -10.55 2.8 -13.1 0.1 -15.8 -3.65 -15.75 -7.4 -15.7 -10.0 -12.95 -12.65 -10.3 -12.6 -6.6 -12.55 -2.85 -9.8 -0.2 -7.15 2.35 -3.4 2.3" fill="#cf72f0" fill-rule="evenodd" stroke="none"/>
    <path d="M-7.65 -6.5 Q-6.0 -6.55 -4.8 -7.75 -3.65 -8.95 -3.7 -10.6 -3.7 -12.3 -4.85 -13.45 -6.1 -14.65 -7.75 -14.6 -9.45 -14.6 -10.55 -13.35 -11.75 -12.2 -11.75 -10.5 -11.7 -8.85 -10.5 -7.65 -9.35 -6.5 -7.65 -6.5" fill="#ffffff" fill-opacity="0.49803922" fill-rule="evenodd" stroke="none"/>
    <path d="M3.0 -18.05 L0.8 -17.55 -1.5 -16.7 -3.1 -15.75 Q-3.65 -17.2 -3.85 -18.85 L-3.45 -18.95 1.95 -20.3 Q2.05 -19.35 3.0 -18.05" fill="#a2a2a2" fill-rule="evenodd" stroke="none"/>
    <path d="M3.0 -18.05 Q4.35 -17.5 6.1 -16.0 L8.9 -13.35 8.95 -13.25 Q9.1 -12.4 8.7 -10.9 L8.4 -10.1 7.6 -7.95 7.1 -7.1 Q3.75 -7.65 0.6 -10.65 -1.95 -13.05 -3.1 -15.75 L-1.5 -16.7 0.8 -17.55 3.0 -18.05" fill="#c8c8c8" fill-rule="evenodd" stroke="none"/>
    <path d="M7.1 -7.1 L7.6 -7.95 8.4 -10.1 8.7 -10.9 Q9.1 -12.4 8.95 -13.25 L8.9 -13.35 11.05 -12.9 10.05 -9.45 9.35 -6.95 7.1 -7.1" fill="#e6e6e6" fill-rule="evenodd" stroke="none"/>
  </g>
</svg>
