<?xml version="1.0" encoding="UTF-8" standalone="no"?>
<svg xmlns:xlink="http://www.w3.org/1999/xlink" height="102.85px" width="91.5px" xmlns="http://www.w3.org/2000/svg">
  <g transform="matrix(1.0, 0.0, 0.0, 1.0, 4.2, -4.9)">
    <path d="M83.95 77.35 L84.3 77.65 84.3 78.0 81.6 81.75 78.2 85.1 Q77.85 85.45 77.85 85.8 L77.2 86.45 76.2 87.8 74.5 89.15 68.75 94.25 65.35 96.6 63.35 97.95 62.0 98.65 Q55.55 102.7 48.8 104.05 L48.15 104.05 44.75 104.75 42.05 104.75 36.3 104.75 Q31.25 104.4 26.5 103.05 L23.15 101.7 Q22.8 101.35 22.45 101.35 L21.45 101.0 Q18.05 99.65 15.05 97.95 13.7 97.65 12.35 96.6 L8.95 94.6 8.95 94.25 6.9 93.25 5.25 91.9 Q1.85 89.85 -0.85 87.15 -0.85 86.45 -1.2 86.15 L-0.85 85.8 1.2 82.4 1.85 81.05 3.2 79.0 5.55 74.3 Q5.55 73.95 5.9 73.95 L6.6 72.6 6.9 71.25 7.25 70.55 Q7.25 70.25 7.95 69.55 8.95 67.5 9.3 65.5 L9.6 64.8 10.65 62.45 10.65 61.75 11.0 60.4 11.3 59.4 Q11.65 58.4 12.35 57.4 L12.35 57.05 12.35 55.7 12.35 55.0 Q12.0 55.35 11.0 55.7 L10.65 55.7 7.95 56.7 Q5.9 57.4 3.55 57.4 L4.2 50.95 5.9 44.55 5.25 44.55 6.6 40.15 6.6 39.8 6.9 39.8 7.25 38.45 6.9 38.45 Q6.9 37.75 7.25 37.4 L8.95 33.05 8.95 33.35 10.65 25.9 10.65 25.6 Q10.65 24.9 11.0 24.55 L11.3 23.9 Q14.35 17.8 17.4 14.1 18.75 15.45 20.1 16.1 21.45 14.4 22.8 13.75 28.55 8.35 35.95 8.0 43.4 7.3 49.15 11.7 L54.9 15.45 Q54.9 15.1 55.25 15.1 59.6 13.05 64.0 10.05 L66.05 15.8 66.4 15.45 67.05 16.8 64.35 19.5 62.0 21.55 60.3 22.9 Q60.3 24.55 59.95 25.9 L59.95 32.0 Q59.6 35.4 59.6 38.1 58.95 41.5 59.3 44.55 59.3 46.55 59.95 48.6 60.95 51.95 64.0 55.7 L65.35 57.4 66.7 59.05 Q67.05 59.05 67.05 59.4 L68.4 60.75 68.75 61.1 72.45 65.15 73.8 66.85 76.2 69.55 78.2 71.9 79.2 72.6 79.9 73.25 81.6 74.65 Q81.9 75.65 83.25 76.3 L83.95 77.35" fill="#a39090" fill-rule="evenodd" stroke="none"/>
    <path d="M83.95 77.35 L83.25 76.3 Q81.9 75.65 81.6 74.65 L79.9 73.25 79.2 72.6 78.2 71.9 76.2 69.55 73.8 66.85 72.45 65.15 68.75 61.1 68.4 60.75 67.05 59.4 Q67.05 59.05 66.7 59.05 L65.35 57.4 64.0 55.7 Q60.95 51.95 59.95 48.6 59.3 46.55 59.3 44.55 58.95 41.5 59.6 38.1 59.6 35.4 59.95 32.0 L59.95 25.9 Q60.3 24.55 60.3 22.9 L62.0 21.55 64.35 19.5 67.05 16.8 66.4 15.45 66.05 15.8 64.0 10.05 Q59.6 13.05 55.25 15.1 54.9 15.1 54.9 15.45 L49.15 11.7 Q43.4 7.3 35.95 8.0 28.55 8.35 22.8 13.75 21.45 14.4 20.1 16.1 18.75 15.45 17.4 14.1 14.35 17.8 11.3 23.9 L11.0 24.55 Q10.65 24.9 10.65 25.6 L10.65 25.9 8.95 33.35 8.95 33.05 7.25 37.4 Q6.9 37.75 6.9 38.45 L7.25 38.45 6.9 39.8 6.6 39.8 6.6 40.15 5.25 44.55 5.9 44.55 4.2 50.95 3.55 57.4 Q5.9 57.4 7.95 56.7 L10.65 55.7 11.0 55.7 Q12.0 55.35 12.35 55.0 L12.35 55.7 12.35 57.05 12.35 57.4 Q11.65 58.4 11.3 59.4 L11.0 60.4 10.65 61.75 10.65 62.45 9.6 64.8 9.3 65.5 Q8.95 67.5 7.95 69.55 7.25 70.25 7.25 70.55 L6.9 71.25 6.6 72.6 5.9 73.95 Q5.55 73.95 5.55 74.3 L3.2 79.0 1.85 81.05 1.2 82.4 -0.85 85.8 -1.2 86.15 Q-0.85 86.45 -0.85 87.15 1.85 89.85 5.25 91.9 L6.9 93.25 8.95 94.25 8.95 94.6 12.35 96.6 Q13.7 97.65 15.05 97.95 18.05 99.65 21.45 101.0 L22.45 101.35 Q22.8 101.35 23.15 101.7 L26.5 103.05 Q31.25 104.4 36.3 104.75 L42.05 104.75 44.75 104.75 48.15 104.05 48.8 104.05 Q55.55 102.7 62.0 98.65 L63.35 97.95 65.35 96.6 68.75 94.25 74.5 89.15 76.2 87.8 77.2 86.45 77.85 85.8 Q77.85 85.45 78.2 85.1 L81.6 81.75 84.3 78.0 84.3 77.65 83.95 77.35 Z" fill="none" stroke="#451066" stroke-linecap="round" stroke-linejoin="round" stroke-width="6.0"/>
    <path d="M72.85 65.15 L74.2 66.85 76.6 69.55 78.6 71.9 79.6 72.6 80.3 73.25 81.65 74.65 Q82.35 75.65 83.7 76.3 L84.35 77.35 84.7 77.65 84.7 78.0 Q83.35 80.05 81.65 81.75 L78.6 85.1 Q78.25 85.45 78.25 85.8 L77.6 86.45 Q76.9 87.15 76.6 87.8 L74.55 86.15 Q71.2 83.4 68.5 80.05 L63.4 72.6 62.4 71.25 Q62.75 70.9 63.4 70.9 L69.15 67.85 Q71.2 66.5 72.85 65.15" fill="#6f30aa" fill-rule="evenodd" stroke="none"/>
    <path d="M11.05 62.45 Q11.05 61.45 11.4 60.75 L11.7 59.4 Q12.05 58.4 12.75 57.4 L12.75 57.05 Q14.1 50.95 14.75 44.55 16.45 33.7 16.45 21.55 19.85 16.45 23.2 13.75 28.95 8.35 36.4 8.0 43.8 7.3 49.55 11.7 51.25 13.05 57.35 16.45 L53.6 29.3 Q51.25 37.4 51.25 44.55 51.25 51.3 53.6 57.4 53.95 58.4 54.65 59.4 L54.65 60.1 54.95 60.75 Q56.0 62.1 56.65 63.45 56.0 63.8 54.65 64.5 49.55 65.85 44.5 66.5 L42.15 66.5 37.4 66.85 29.3 66.5 23.2 65.85 20.85 65.15 Q16.1 64.5 11.05 62.45" fill="#cfa6f5" fill-rule="evenodd" stroke="none"/>
    <path d="M57.35 16.45 L60.7 18.5 60.05 38.1 Q59.35 41.5 59.7 44.55 59.7 46.55 60.35 48.6 61.4 51.95 64.4 55.7 L65.75 57.4 67.15 59.05 59.0 62.8 Q58.35 62.8 57.65 63.15 L56.65 63.45 Q56.0 62.1 54.95 60.75 L54.65 60.1 54.65 59.4 Q53.95 58.4 53.6 57.4 51.25 51.3 51.25 44.55 51.25 37.4 53.6 29.3 L57.35 16.45" fill="#b285db" fill-rule="evenodd" stroke="none"/>
    <path d="M29.3 70.25 Q28.95 71.6 28.95 73.25 L28.3 76.65 22.2 75.65 23.2 72.6 23.2 69.2 29.3 70.25 M37.4 77.0 L37.4 70.55 42.15 70.25 42.8 76.65 37.4 77.0 M54.65 67.85 L57.65 66.5 Q58.7 70.25 60.35 72.25 L59.7 72.6 Q59.0 72.6 58.35 73.25 L56.65 73.95 56.0 72.6 54.65 67.85" fill="#b6b3b3" fill-rule="evenodd" stroke="none"/>
    <path d="M7.35 71.25 L7.65 70.55 Q7.65 70.25 8.35 69.55 9.35 67.5 9.7 65.5 15.45 67.5 20.85 68.9 20.85 70.55 20.15 72.6 20.15 73.95 19.5 74.95 L11.4 72.6 9.7 71.9 7.35 71.25 M69.15 61.1 L72.85 65.15 Q71.2 66.5 69.15 67.85 L63.4 70.9 Q62.75 70.9 62.4 71.25 L59.0 66.15 Q64.1 64.15 69.15 61.1 M28.3 76.65 L28.95 73.25 Q28.95 71.6 29.3 70.25 L37.4 70.55 37.4 77.0 Q34.0 77.35 30.65 77.0 L28.3 76.65 M44.5 70.25 L54.65 67.85 56.0 72.6 56.65 73.95 Q50.9 75.65 45.5 76.3 L44.5 70.25" fill="#6627a1" fill-rule="evenodd" stroke="none"/>
    <path d="M23.2 69.2 L23.2 72.6 22.2 75.65 19.5 74.95 Q20.15 73.95 20.15 72.6 20.85 70.55 20.85 68.9 L23.2 69.2 M42.15 70.25 L44.5 70.25 45.5 76.3 42.8 76.65 42.15 70.25 M57.65 66.5 L59.0 66.5 59.0 66.15 62.4 71.25 60.35 72.25 Q58.7 70.25 57.65 66.5" fill="#460f79" fill-rule="evenodd" stroke="none"/>
    <path d="M9.7 65.5 L10.05 64.8 11.05 62.45 Q16.1 64.5 20.85 65.15 L23.2 65.85 29.3 66.5 37.4 66.85 42.15 66.5 44.5 66.5 Q49.55 65.85 54.65 64.5 56.0 63.8 56.65 63.45 L58.7 66.15 59.0 66.5 57.65 66.5 54.65 67.85 44.5 70.25 42.15 70.25 37.4 70.55 29.3 70.25 23.2 69.2 20.85 68.9 Q15.45 67.5 9.7 65.5" fill="#a37bc9" fill-rule="evenodd" stroke="none"/>
    <path d="M69.15 94.25 Q67.45 95.6 65.75 96.6 L63.75 97.95 62.4 98.65 Q56.0 102.7 49.2 104.05 L47.55 97.95 Q46.5 92.9 45.85 86.15 45.5 81.4 45.5 76.3 50.9 75.65 56.65 73.95 58.7 80.4 62.4 86.15 65.45 90.5 69.15 94.25 M36.7 104.75 Q31.65 104.4 26.9 103.05 L23.55 101.7 Q23.2 101.35 22.85 101.35 22.2 101.0 21.85 101.0 22.2 99.3 22.85 97.95 25.25 92.55 26.6 86.15 L28.3 76.65 30.65 77.0 Q34.0 77.35 37.4 77.0 L36.7 104.75 M9.35 94.25 Q8.35 93.9 7.35 93.25 L5.65 91.9 Q2.25 89.85 -0.45 87.15 -0.45 86.45 -0.8 86.15 L-0.45 85.8 1.6 82.4 2.25 81.05 3.6 79.0 6.0 74.3 6.0 73.95 7.0 72.6 7.35 71.25 9.7 71.9 11.4 72.6 19.5 74.95 Q17.8 81.05 15.1 86.15 12.75 90.85 9.35 94.25" fill="#823cc3" fill-rule="evenodd" stroke="none"/>
    <path d="M76.6 87.8 Q75.55 88.5 74.9 89.15 72.85 88.15 71.2 86.15 65.75 81.05 60.7 72.6 L60.35 72.25 62.4 71.25 63.4 72.6 68.5 80.05 Q71.2 83.4 74.55 86.15 L76.6 87.8 M49.2 104.05 L48.55 104.05 45.15 104.75 Q44.5 102.35 43.8 97.95 L43.15 86.15 Q42.8 81.75 42.8 76.65 L45.5 76.3 Q45.5 81.4 45.85 86.15 46.5 92.9 47.55 97.95 L49.2 104.05 M12.75 96.6 L9.35 94.6 9.35 94.25 Q12.75 90.85 15.1 86.15 17.8 81.05 19.5 74.95 L22.2 75.65 Q21.5 81.4 19.5 86.15 16.8 91.9 12.75 96.6" fill="#4d197e" fill-rule="evenodd" stroke="none"/>
    <path d="M74.9 89.15 L69.15 94.25 Q65.45 90.5 62.4 86.15 58.7 80.4 56.65 73.95 L58.35 73.25 Q59.0 72.6 59.7 72.6 L60.35 72.25 60.7 72.6 Q65.75 81.05 71.2 86.15 72.85 88.15 74.9 89.15 M45.15 104.75 L42.45 104.75 36.7 104.75 37.4 77.0 42.8 76.65 Q42.8 81.75 43.15 86.15 L43.8 97.95 Q44.5 102.35 45.15 104.75 M21.85 101.0 Q18.5 99.65 15.45 97.95 14.1 97.65 12.75 96.6 16.8 91.9 19.5 86.15 21.5 81.4 22.2 75.65 L28.3 76.65 26.6 86.15 Q25.25 92.55 22.85 97.95 22.2 99.3 21.85 101.0" fill="#e5e1e1" fill-rule="evenodd" stroke="none"/>
    <path d="M67.15 59.05 Q67.45 59.05 67.45 59.4 L68.8 60.75 69.15 61.1 Q64.1 64.15 59.0 66.15 L59.0 66.5 58.7 66.15 56.65 63.45 57.65 63.15 Q58.35 62.8 59.0 62.8 L67.15 59.05" fill="#7847a6" fill-rule="evenodd" stroke="none"/>
    <path d="M66.45 15.8 L66.8 15.45 67.45 16.8 64.75 19.5 62.4 21.55 60.7 22.9 57.65 25.9 52.95 30.0 Q50.55 32.35 47.85 34.05 L48.55 31.65 Q53.6 27.6 58.7 22.9 L66.8 15.8 66.45 15.8" fill="#ad82d4" fill-rule="evenodd" stroke="none"/>
    <path d="M4.65 50.95 L11.7 23.9 Q14.75 17.8 17.8 14.1 33.35 25.6 55.65 15.1 60.05 13.05 64.4 10.05 L66.45 15.8 66.8 15.8 58.7 22.9 Q53.6 27.6 48.55 31.65 48.2 31.65 47.85 32.0 36.4 40.8 12.4 48.6 8.7 49.95 4.65 50.95" fill="#995ad7" fill-rule="evenodd" stroke="none"/>
    <path d="M60.7 22.9 L60.35 32.0 Q55.3 35.75 51.9 38.8 L52.95 30.0 57.65 25.9 60.7 22.9" fill="#6625a3" fill-rule="evenodd" stroke="none"/>
    <path d="M12.75 55.0 L11.4 55.7 11.05 55.7 8.35 56.7 3.95 57.4 4.65 50.95 Q8.7 49.95 12.4 48.6 36.4 40.8 47.85 32.0 L47.55 34.4 47.55 35.05 Q34.35 44.85 12.75 55.0" fill="#cfa6f5" fill-rule="evenodd" stroke="none"/>
    <path d="M51.9 38.8 L45.85 43.85 Q30.3 56.35 15.1 60.75 L11.05 61.75 12.4 58.75 12.75 55.0 Q34.35 44.85 47.55 35.05 L47.55 34.4 47.85 34.05 Q50.55 32.35 52.95 30.0 L51.9 38.8" fill="#823cc3" fill-rule="evenodd" stroke="none"/>
    <path d="M11.7 28.65 L11.7 27.6 11.4 26.25 Q11.05 25.9 11.05 25.6 11.05 24.55 12.05 24.55 12.75 23.9 13.4 23.9 14.4 23.9 14.75 24.55 15.8 25.25 15.8 26.25 L14.75 27.3 Q14.1 27.95 14.1 28.3 L11.7 28.65" fill="#3d0e56" fill-rule="evenodd" stroke="none"/>
    <path d="M14.1 28.3 Q14.1 30.0 14.4 31.65 14.75 33.7 15.1 33.7 18.5 30.65 18.5 30.0 L18.5 29.3 18.15 28.3 Q18.15 27.3 18.5 26.95 L20.15 26.6 21.2 27.6 Q21.85 28.3 21.85 28.95 21.85 29.65 21.5 30.0 21.2 30.3 20.15 30.65 19.85 31.0 19.5 32.0 19.15 32.0 18.8 33.35 L18.15 35.75 16.8 38.45 16.45 38.45 14.1 38.45 Q12.75 38.8 12.05 38.45 L8.7 38.45 7.35 38.45 Q7.35 37.75 7.65 37.4 L9.35 33.05 9.35 33.7 9.7 33.7 Q10.7 32.7 11.05 30.0 L11.7 28.65 14.1 28.3 M5.65 44.55 L7.0 40.15 7.0 39.8 Q10.05 39.45 11.05 39.8 L12.75 39.8 16.45 40.45 Q19.5 41.15 18.8 44.55 L12.75 44.2 5.65 44.55" fill="#5c1a7e" fill-rule="evenodd" stroke="none"/>
  </g>
</svg>
