<?xml version="1.0" encoding="UTF-8" standalone="no"?>
<svg xmlns:xlink="http://www.w3.org/1999/xlink" height="106.25px" width="105.35px" xmlns="http://www.w3.org/2000/svg">
  <g transform="matrix(1.0, 0.0, 0.0, 1.0, 7.35, -2.8)">
    <path d="M95.0 81.0 Q95.0 82.0 94.3 83.7 L93.65 84.7 Q93.3 84.7 93.65 85.05 L90.25 90.15 84.5 95.2 Q83.85 95.55 83.5 96.2 L82.15 96.9 80.8 97.55 Q77.4 99.25 72.7 100.6 L70.0 101.3 Q70.35 101.95 67.65 103.0 L64.25 103.65 58.85 104.35 55.15 105.0 Q53.75 106.05 52.1 106.05 L51.4 106.05 47.0 105.7 42.3 106.05 41.6 106.05 Q40.6 105.7 39.25 106.05 L38.55 106.05 35.85 106.05 31.5 105.35 25.75 104.35 23.7 104.0 18.65 102.3 16.6 101.65 14.6 100.6 Q12.55 99.95 10.55 98.95 9.5 98.25 8.85 97.9 6.8 96.9 5.15 95.55 L3.1 93.85 Q0.4 91.8 -1.3 89.8 L-2.3 88.8 Q-2.65 87.75 -3.0 87.75 -3.0 87.45 -2.65 87.45 L-3.3 83.7 Q-3.65 81.7 -3.0 79.3 -4.0 76.95 -4.35 74.9 -4.35 73.9 -4.0 73.2 -3.65 69.5 2.75 63.75 6.8 60.05 8.85 58.7 L7.85 40.1 9.2 39.05 9.2 38.7 Q9.5 22.5 10.2 20.45 L10.55 18.75 11.55 17.75 12.2 16.75 12.9 16.75 18.3 12.35 Q19.0 11.35 23.35 9.3 L24.4 8.6 25.75 7.6 25.4 8.95 25.75 8.95 Q32.15 5.25 39.9 5.9 L42.3 6.25 Q49.4 6.95 55.15 10.65 L54.45 8.6 57.15 10.3 61.9 14.35 65.95 17.75 65.95 18.1 66.95 19.1 66.95 19.8 66.95 20.45 71.35 24.85 Q71.0 26.2 71.0 27.2 70.65 27.55 70.0 29.25 L71.35 29.25 69.65 33.3 71.35 40.75 Q71.35 42.1 71.7 42.8 L72.35 45.5 74.4 50.9 74.4 51.25 76.05 54.95 76.75 55.65 Q76.4 55.65 76.4 55.95 76.75 57.3 77.4 58.7 77.4 59.0 77.75 59.7 78.75 58.0 77.4 57.0 83.15 58.7 88.25 66.45 92.95 73.2 94.3 77.95 95.0 79.65 95.0 81.0" fill="#7d4caa" fill-rule="evenodd" stroke="none"/>
    <path d="M95.0 81.0 Q95.0 82.0 94.3 83.7 L93.65 84.7 Q93.3 84.7 93.65 85.05 L90.25 90.15 84.5 95.2 Q83.85 95.55 83.5 96.2 L82.15 96.9 80.8 97.55 Q77.4 99.25 72.7 100.6 L70.0 101.3 Q70.35 101.95 67.65 103.0 L64.25 103.65 58.85 104.35 55.15 105.0 Q53.75 106.05 52.1 106.05 L51.4 106.05 47.0 105.7 42.3 106.05 41.6 106.05 Q40.6 105.7 39.25 106.05 L38.55 106.05 35.85 106.05 31.5 105.35 25.75 104.35 23.7 104.0 18.65 102.3 16.6 101.65 14.6 100.6 Q12.55 99.95 10.55 98.95 9.5 98.25 8.85 97.9 6.8 96.9 5.15 95.55 L3.1 93.85 Q0.4 91.8 -1.3 89.8 L-2.3 88.8 Q-2.65 87.75 -3.0 87.75 -3.0 87.45 -2.65 87.45 L-3.3 83.7 Q-3.65 81.7 -3.0 79.3 -4.0 76.95 -4.35 74.9 -4.35 73.9 -4.0 73.2 -3.65 69.5 2.75 63.75 6.8 60.05 8.85 58.7 L7.85 40.1 9.2 39.05 9.2 38.7 Q9.5 22.5 10.2 20.45 L10.55 18.75 11.55 17.75 12.2 16.75 12.9 16.75 18.3 12.35 Q19.0 11.35 23.35 9.3 L24.4 8.6 25.75 7.6 25.4 8.95 25.75 8.95 Q32.15 5.25 39.9 5.9 L42.3 6.25 Q49.4 6.95 55.15 10.65 L54.45 8.6 57.15 10.3 61.9 14.35 65.95 17.75 65.95 18.1 66.95 19.1 66.95 19.8 66.95 20.45 71.35 24.85 Q71.0 26.2 71.0 27.2 70.65 27.55 70.0 29.25 L71.35 29.25 69.65 33.3 71.35 40.75 Q71.35 42.1 71.7 42.8 L72.35 45.5 74.4 50.9 74.4 51.25 76.05 54.95 76.75 55.65 Q76.4 55.65 76.4 55.95 76.75 57.3 77.4 58.7 77.4 59.0 77.75 59.7 78.75 58.0 77.4 57.0 83.15 58.7 88.25 66.45 92.95 73.2 94.3 77.95 95.0 79.65 95.0 81.0 Z" fill="none" stroke="#4c0e62" stroke-linecap="round" stroke-linejoin="round" stroke-width="6.0"/>
    <path d="M77.8 59.7 Q78.8 58.0 77.45 57.0 83.2 58.7 88.3 66.45 93.0 73.2 94.35 77.95 95.05 79.65 95.05 81.0 95.05 82.0 94.35 83.7 L93.7 84.7 Q93.35 84.7 93.7 85.05 L91.65 88.45 90.3 90.15 84.55 95.2 83.55 94.85 81.2 93.85 80.2 94.2 80.2 94.55 Q80.5 94.85 81.55 95.2 81.85 95.2 82.2 96.55 L82.2 96.9 80.85 97.55 Q77.45 99.25 72.75 100.6 72.4 99.6 69.7 99.6 67.7 99.6 62.6 102.65 L58.9 104.35 55.2 105.0 Q54.85 104.7 55.2 104.35 54.85 104.0 55.2 103.3 L55.2 101.65 50.45 93.2 Q48.1 89.45 47.75 86.05 47.4 85.75 47.4 85.4 47.05 84.4 47.05 83.7 L47.05 83.05 Q46.75 81.35 46.05 81.7 45.05 81.35 45.05 83.7 44.7 84.7 45.05 87.1 45.05 88.1 44.35 90.15 L43.35 92.85 Q41.65 97.9 42.35 105.35 L41.65 106.05 Q40.65 105.7 39.3 106.05 L38.95 105.0 Q41.0 104.0 41.35 104.35 L41.0 102.3 39.65 100.95 38.3 100.95 Q36.25 100.95 33.9 103.3 32.55 105.0 31.55 105.35 L25.8 104.35 23.75 104.0 23.1 104.0 Q19.7 101.65 18.35 98.95 L16.65 98.95 16.65 98.6 Q16.65 97.9 18.35 94.2 19.7 90.45 20.05 90.15 L20.05 89.8 Q15.65 94.55 14.95 100.6 12.95 99.95 10.25 97.9 L9.55 97.25 Q10.25 96.55 10.25 94.2 L10.25 89.1 11.25 85.05 11.95 83.7 12.95 81.35 Q11.6 82.35 10.6 83.7 7.9 86.75 6.2 92.5 L5.85 92.5 Q5.85 93.2 6.55 94.2 6.55 94.85 5.85 94.85 4.5 94.85 3.15 93.85 0.45 91.8 -1.25 89.8 L-2.25 88.8 -2.3 88.7 -2.3 88.6 -2.6 87.45 -3.25 83.7 Q-3.6 81.35 -2.95 78.95 -1.9 75.6 0.45 71.55 1.1 69.85 1.8 68.8 5.85 61.7 8.55 60.05 L9.25 60.7 11.6 64.1 13.3 66.1 12.95 66.1 12.25 67.15 Q10.9 68.5 8.2 72.9 7.55 73.2 7.2 76.25 6.2 77.95 5.85 79.65 5.5 82.0 5.5 83.35 L5.85 88.45 Q5.85 86.05 6.2 83.7 6.85 80.65 8.2 78.3 10.6 73.2 15.3 70.2 L15.65 70.2 Q12.95 76.95 11.25 78.95 L11.25 79.3 Q13.3 78.3 14.95 76.6 17.35 73.55 18.7 72.9 19.7 71.85 20.4 71.55 20.7 71.2 21.05 71.2 23.4 71.85 25.8 73.2 30.2 74.55 33.55 74.9 L33.9 74.55 33.9 75.25 Q33.55 78.65 33.9 83.7 L33.9 84.4 Q34.25 89.8 35.25 92.85 34.9 87.75 34.9 83.7 35.25 78.65 36.95 74.9 L36.95 73.55 38.95 73.2 Q38.6 73.55 38.6 74.25 L38.6 77.6 38.6 77.95 40.65 73.55 Q40.65 72.9 41.0 71.85 L43.35 70.2 Q45.05 68.8 46.05 68.15 L46.05 67.8 Q46.05 67.45 47.05 67.45 47.75 66.1 48.1 66.1 59.9 72.55 66.0 71.55 L67.7 71.2 Q68.35 71.55 69.05 72.9 L69.7 73.55 Q73.4 78.3 75.8 80.0 L73.1 72.2 73.4 72.2 Q79.15 78.65 79.5 83.7 L79.5 84.7 Q80.2 84.4 80.5 83.7 L80.5 82.35 80.5 78.65 Q79.85 72.9 77.15 67.8 76.45 66.45 75.8 65.8 L75.1 64.45 Q75.1 64.1 75.45 64.1 75.45 63.05 76.45 62.4 77.15 60.7 77.8 59.7" fill="#803ebd" fill-rule="evenodd" stroke="none"/>
    <path d="M84.55 95.2 Q83.9 95.55 83.55 96.2 L82.2 96.9 82.2 96.55 Q81.85 95.2 81.55 95.2 80.5 94.85 80.2 94.55 L80.2 94.2 81.2 93.85 83.55 94.85 84.55 95.2 M23.1 104.0 L18.7 102.3 16.65 101.65 Q15.65 101.3 14.65 100.6 12.6 99.95 10.6 98.95 L8.9 97.9 5.2 95.55 3.15 93.85 Q4.5 94.85 5.85 94.85 6.55 94.85 6.55 94.2 5.85 93.2 5.85 92.5 L6.2 92.5 6.85 92.5 7.55 93.5 Q8.2 93.85 8.2 95.2 7.9 96.55 8.9 96.9 9.25 97.25 9.55 97.25 L10.25 97.9 Q12.95 99.95 14.95 100.6 L15.65 100.6 16.65 100.3 16.65 99.25 16.65 98.95 18.35 98.95 Q19.7 101.65 23.1 104.0" fill="#521f80" fill-rule="evenodd" stroke="none"/>
    <path d="M-2.3 88.6 Q-2.6 87.75 -2.95 87.75 -2.95 87.45 -2.6 87.45 L-2.3 88.6 M9.25 60.7 L10.25 55.65 Q9.55 54.95 9.55 50.9 8.9 46.5 9.25 38.7 9.55 22.5 10.25 20.45 L14.3 16.75 18.7 13.7 20.7 11.65 Q22.75 9.95 24.75 9.3 25.1 8.95 25.8 8.95 31.55 19.1 43.0 20.1 52.8 20.8 56.2 11.35 L62.6 16.75 62.95 17.1 66.3 20.1 71.4 24.85 Q71.05 26.2 71.05 27.2 L70.05 29.25 69.35 32.65 70.05 38.7 Q71.05 40.1 71.75 42.8 L72.4 45.5 74.45 50.9 74.45 51.25 Q75.1 53.6 77.15 58.7 L77.8 59.7 Q77.15 60.7 76.45 62.4 75.45 63.05 75.45 64.1 75.1 64.1 75.1 64.45 74.1 66.1 73.4 67.8 70.7 69.85 67.7 71.2 L66.0 71.55 Q59.9 72.55 48.1 66.1 47.75 66.1 47.05 67.45 46.05 67.45 46.05 67.8 L46.05 68.15 Q45.05 68.8 43.35 70.2 L41.0 71.85 39.3 73.2 38.95 73.2 36.95 73.55 Q35.6 74.25 33.9 74.55 L33.55 74.9 Q30.2 74.55 25.8 73.2 23.4 71.85 21.05 71.2 L20.4 70.5 Q17.7 68.8 15.3 67.8 L13.3 66.1 11.6 64.1 9.25 60.7" fill="#9364bf" fill-rule="evenodd" stroke="none"/>
    <path d="M25.8 8.95 Q32.2 5.25 39.95 5.9 L42.35 6.25 Q50.1 6.95 55.85 11.35 L56.2 11.35 Q52.8 20.8 43.0 20.1 31.55 19.1 25.8 8.95" fill="#cbcbcb" fill-rule="evenodd" stroke="none"/>
    <path d="M41.0 71.85 Q40.65 72.9 40.65 73.55 L38.6 77.95 38.6 77.6 38.6 74.25 Q38.6 73.55 38.95 73.2 L39.3 73.2 41.0 71.85 M36.95 73.55 L36.95 74.9 Q35.25 78.65 34.9 83.7 34.9 87.75 35.25 92.85 34.25 89.8 33.9 84.4 L33.9 83.7 Q33.55 78.65 33.9 75.25 L33.9 74.55 Q35.6 74.25 36.95 73.55 M21.05 71.2 Q20.7 71.2 20.4 71.55 19.7 71.85 18.7 72.9 17.35 73.55 14.95 76.6 13.3 78.3 11.25 79.3 L11.25 78.95 Q12.95 76.95 15.65 70.2 L15.3 70.2 Q10.6 73.2 8.2 78.3 6.85 80.65 6.2 83.7 5.85 86.05 5.85 88.45 L5.5 83.35 Q5.5 82.0 5.85 79.65 6.2 77.95 7.2 76.25 7.55 73.2 8.2 72.9 10.9 68.5 12.25 67.15 L12.95 66.1 13.3 66.1 15.3 67.8 Q17.7 68.8 20.4 70.5 L21.05 71.2" fill="#6626a1" fill-rule="evenodd" stroke="none"/>
    <path d="M6.2 92.5 Q7.9 86.75 10.6 83.7 11.6 82.35 12.95 81.35 L11.95 83.7 11.25 85.05 10.25 89.1 10.25 94.2 Q10.25 96.55 9.55 97.25 9.25 97.25 8.9 96.9 7.9 96.55 8.2 95.2 8.2 93.85 7.55 93.5 L6.85 92.5 6.2 92.5" fill="#8e4fc9" fill-rule="evenodd" stroke="none"/>
    <path d="M14.95 100.6 Q15.65 94.55 20.05 89.8 L20.05 90.15 Q19.7 90.45 18.35 94.2 16.65 97.9 16.65 98.6 L16.65 98.95 16.65 99.25 16.65 100.3 15.65 100.6 14.95 100.6" fill="#532280" fill-rule="evenodd" stroke="none"/>
    <path d="M75.1 64.45 L75.8 65.8 Q76.45 66.45 77.15 67.8 79.85 72.9 80.5 78.65 L80.5 82.35 80.5 83.7 Q80.2 84.4 79.5 84.7 L79.5 83.7 Q79.15 78.65 73.4 72.2 L73.1 72.2 75.8 80.0 Q73.4 78.3 69.7 73.55 L69.05 72.9 Q68.35 71.55 67.7 71.2 70.7 69.85 73.4 67.8 74.1 66.1 75.1 64.45" fill="#4b177b" fill-rule="evenodd" stroke="none"/>
    <path d="M42.35 105.35 Q41.65 97.9 43.35 92.85 L44.35 90.15 Q45.05 88.1 45.05 87.1 44.7 84.7 45.05 83.7 45.05 81.35 46.05 81.7 46.75 81.35 47.05 83.05 L47.05 83.7 Q47.05 84.4 47.4 85.4 47.4 85.75 47.75 86.05 48.1 89.45 50.45 93.2 L55.2 101.65 Q54.15 100.95 52.45 100.95 48.1 101.3 44.7 104.0 L42.35 105.35" fill="#8f4ecb" fill-rule="evenodd" stroke="none"/>
    <path d="M72.75 100.6 L70.05 101.3 Q70.4 101.95 67.7 103.0 L64.3 103.65 58.9 104.35 62.6 102.65 Q67.7 99.6 69.7 99.6 72.4 99.6 72.75 100.6 M39.3 106.05 L38.6 106.05 35.9 106.05 31.55 105.35 Q32.55 105.0 33.9 103.3 36.25 100.95 38.3 100.95 L39.65 100.95 41.0 102.3 41.35 104.35 Q41.0 104.0 38.95 105.0 L39.3 106.05" fill="#6a319f" fill-rule="evenodd" stroke="none"/>
    <path d="M55.2 105.0 Q53.8 106.05 52.15 106.05 L51.45 106.05 47.05 105.7 42.35 106.05 41.65 106.05 42.35 105.35 44.7 104.0 Q48.1 101.3 52.45 100.95 54.15 100.95 55.2 101.65 L55.2 103.3 Q54.85 104.0 55.2 104.35 54.85 104.7 55.2 105.0" fill="#59258a" fill-rule="evenodd" stroke="none"/>
    <path d="M93.7 85.05 L91.65 88.45 M-1.25 89.8 L-2.25 88.8 -2.3 88.7 -2.3 88.6 M-2.6 87.45 L-2.3 88.6" fill="none" stroke="#4c0e62" stroke-linecap="round" stroke-linejoin="round" stroke-width="0.2"/>
    <path d="M64.3 30.25 Q65.3 25.85 65.65 22.15 L66.0 18.1 67.0 19.1 67.0 19.8 66.0 28.6 65.3 30.95 65.3 31.3 64.3 30.6 64.3 30.25 M57.2 10.3 Q59.55 20.1 58.55 29.25 57.55 28.9 56.55 29.6 56.85 28.9 56.85 26.2 57.2 23.5 56.85 18.1 L54.5 8.6 57.2 10.3 M23.4 9.3 L24.45 8.6 25.8 7.6 Q21.75 18.75 20.7 30.25 20.05 30.95 19.05 31.3 19.05 22.5 23.4 9.3 M12.95 34.65 L11.6 35.0 Q10.9 32.3 10.6 29.6 9.9 26.55 10.25 23.5 9.9 23.15 10.25 22.85 10.25 20.8 10.6 18.75 L11.6 17.75 12.25 16.75 Q11.25 27.55 12.95 34.65" fill="#e3c6ff" fill-rule="evenodd" stroke="none"/>
    <path d="M66.0 18.1 L65.65 22.15 Q65.3 25.85 64.3 30.25 L64.3 29.95 Q63.6 29.6 62.95 29.6 62.25 28.9 60.25 29.25 59.55 28.9 58.55 29.25 59.55 20.1 57.2 10.3 60.6 13.0 61.95 14.35 L66.0 17.75 66.0 18.1 M23.4 9.3 Q19.05 22.5 19.05 31.3 L13.3 34.35 12.95 34.65 Q11.25 27.55 12.25 16.75 L12.95 16.75 18.35 12.35 Q19.05 11.35 23.4 9.3" fill="#8d2e98" fill-rule="evenodd" stroke="none"/>
    <path d="M37.25 87.75 Q36.6 93.5 35.25 95.2 33.55 98.6 29.15 97.55 18.0 95.9 7.55 89.8 -3.95 82.35 -4.3 74.9 -4.3 73.9 -3.95 73.2 -3.6 69.5 2.8 63.75 9.25 57.65 11.25 58.0 L13.3 58.7 Q17.0 60.35 27.15 65.45 37.25 70.2 42.0 71.85 42.35 71.85 42.35 72.2 L39.95 79.3 Q37.95 84.7 37.25 87.75" fill="#bf88f3" fill-opacity="0.4" fill-rule="evenodd" stroke="none"/>
    <path d="M85.6 69.5 Q85.25 71.55 85.25 72.55 84.25 79.3 73.1 84.4 62.95 88.8 53.15 88.8 48.75 88.8 47.75 86.05 46.75 84.05 46.75 78.3 L45.4 70.5 Q44.35 66.1 44.05 63.4 L44.35 63.4 Q48.4 62.4 57.2 62.4 66.0 62.05 68.0 60.35 70.05 58.7 71.4 58.0 72.4 57.0 78.8 62.05 85.6 67.15 85.6 69.5" fill="#d9b5fa" fill-opacity="0.4" fill-rule="evenodd" stroke="none"/>
    <path d="M90.65 74.9 L90.3 76.25 Q89.3 83.05 78.5 87.75 68.0 91.8 58.2 91.8 53.8 91.8 52.8 89.1 51.8 87.45 51.8 82.0 51.8 79.3 50.8 74.55 49.45 69.85 49.45 67.8 L63.6 64.1 Q73.4 60.7 76.8 60.05 L78.8 59.7 Q80.5 59.7 85.25 65.8 90.65 71.55 90.65 74.9" fill="#a567de" fill-opacity="0.4" fill-rule="evenodd" stroke="none"/>
    <path d="M25.8 67.8 Q25.1 68.8 23.1 69.5 21.75 70.5 19.05 71.55 L15.3 74.9 11.6 76.95 Q13.3 75.25 16.35 69.5 11.25 71.55 8.55 75.95 6.2 79.65 5.85 84.4 L5.85 80.0 Q5.85 78.65 6.55 76.95 L7.55 74.25 Q8.2 71.85 8.9 71.55 11.6 67.8 12.95 66.8 14.95 65.1 17.35 64.75 19.05 65.8 21.05 66.45 23.75 67.45 25.8 67.8 M40.3 67.15 L42.35 66.1 42.7 66.1 Q42.35 69.15 41.65 71.2 L38.6 76.95 38.6 76.6 Q39.3 72.9 39.3 70.85 33.9 76.95 34.9 88.45 33.9 86.05 33.9 81.7 33.9 71.55 36.6 68.15 L40.3 67.15" fill="#6626a1" fill-rule="evenodd" stroke="none"/>
    <path d="M68.35 65.1 L69.7 64.1 Q73.4 65.45 75.45 69.85 77.45 74.25 77.45 78.65 L77.45 81.35 Q77.15 83.05 76.45 83.35 77.15 79.3 71.4 73.2 L73.4 79.65 Q71.05 78.3 68.0 74.55 L66.3 71.55 Q65.65 69.5 65.65 67.45 L65.65 66.45 Q67.0 66.1 68.35 65.1" fill="#6a319f" fill-rule="evenodd" stroke="none"/>
    <path d="M16.35 88.1 Q5.5 83.35 4.15 76.25 L4.15 74.55 Q4.15 71.55 9.55 64.75 14.3 58.7 16.0 58.7 L17.7 58.7 Q21.75 59.7 31.2 63.05 40.65 66.1 45.05 67.15 45.4 67.15 45.4 67.45 L44.05 74.55 Q42.7 79.65 42.7 82.35 42.7 87.75 42.0 89.8 40.65 92.85 36.6 92.85 26.45 92.85 16.35 88.1" fill="#e3c4ff" fill-opacity="0.4" fill-rule="evenodd" stroke="none"/>
    <path d="M16.65 33.65 Q22.4 29.6 29.5 27.55 36.6 25.85 45.4 25.85 45.4 25.55 46.05 25.55 L46.4 25.55 47.4 25.55 48.75 25.85 Q49.75 25.2 51.45 25.85 L57.55 26.2 57.9 26.2 Q58.55 26.2 58.9 26.55 61.95 27.55 63.6 29.6 L64.95 31.95 Q63.6 31.6 63.6 31.95 56.85 30.6 50.8 30.6 41.0 29.6 33.2 31.6 21.75 34.35 16.0 39.05 15.65 38.4 16.0 38.4 15.65 36.0 16.65 33.65" fill="#e0c5fa" fill-rule="evenodd" stroke="none"/>
    <path d="M69.7 33.3 L73.4 51.25 57.2 54.95 Q55.95 54.95 55.4 55.55 L57.2 53.95 Q57.2 53.25 57.55 53.25 57.9 51.25 56.85 49.55 55.5 47.85 49.1 47.2 L47.75 46.85 Q47.75 46.5 49.1 46.5 50.1 46.15 53.15 46.5 L57.2 45.85 Q61.95 44.15 64.3 41.45 64.95 39.4 64.3 35.7 L63.6 31.95 Q63.6 31.6 64.95 31.95 66.0 31.95 69.7 33.3" fill="#6f1579" fill-rule="evenodd" stroke="none"/>
    <path d="M16.0 39.05 Q21.75 34.35 33.2 31.6 41.0 29.6 50.8 30.6 56.85 30.6 63.6 31.95 L64.3 35.7 Q64.95 39.4 64.3 41.45 61.95 44.15 57.2 45.85 L53.15 46.5 Q50.1 46.15 49.1 46.5 47.75 46.5 47.75 46.85 L49.1 47.2 Q55.5 47.85 56.85 49.55 57.9 51.25 57.55 53.25 57.2 53.25 57.2 53.95 L55.4 55.55 55.35 55.55 55.3 55.6 55.25 55.6 55.2 55.65 54.15 55.95 Q50.8 56.3 47.75 57.0 25.8 61.05 13.95 56.3 L13.6 55.95 Q12.6 55.65 12.25 55.3 L11.95 51.6 17.35 53.25 Q17.0 53.95 19.05 54.95 L23.1 55.65 27.15 54.95 28.85 53.25 Q28.5 52.25 27.15 51.6 25.1 50.9 22.75 50.9 20.4 50.9 19.05 51.6 L18.7 51.6 11.95 49.55 11.6 48.85 19.35 47.2 Q20.4 47.85 22.75 47.85 L27.15 47.2 Q28.85 46.15 29.15 45.5 28.85 44.15 27.45 43.8 25.1 42.45 23.1 42.8 20.4 42.45 18.7 43.45 16.65 44.15 17.0 45.15 17.0 45.5 17.35 45.85 L11.6 46.85 11.95 44.8 Q12.95 41.45 16.0 39.05" fill="#7c1c87" fill-rule="evenodd" stroke="none"/>
    <path d="M58.9 26.55 Q59.9 26.2 61.25 26.9 L71.4 29.25 69.7 33.3 Q66.0 31.95 64.95 31.95 L63.6 29.6 Q61.95 27.55 58.9 26.55 M14.65 61.05 L8.9 59.0 8.55 50.55 11.95 51.6 12.25 55.3 Q12.6 55.65 13.6 55.95 L13.95 56.3 14.3 60.05 14.65 61.05 M8.55 47.85 L7.9 40.1 14.95 34.65 Q15.65 34.0 16.65 33.65 15.65 36.0 16.0 38.4 15.65 38.4 16.0 39.05 12.95 41.45 11.95 44.8 L11.6 46.85 8.55 47.85 M11.6 48.85 L11.95 49.55 9.9 49.2 11.6 48.85" fill="#b789e2" fill-rule="evenodd" stroke="none"/>
    <path d="M8.55 50.55 L8.55 48.85 8.55 47.85 11.6 46.85 17.35 45.85 Q17.0 45.5 17.0 45.15 16.65 44.15 18.7 43.45 20.4 42.45 23.1 42.8 25.1 42.45 27.45 43.8 28.85 44.15 29.15 45.5 28.85 46.15 27.15 47.2 L22.75 47.85 Q20.4 47.85 19.35 47.2 L11.6 48.85 9.9 49.2 11.95 49.55 18.7 51.6 19.05 51.6 Q20.4 50.9 22.75 50.9 25.1 50.9 27.15 51.6 28.5 52.25 28.85 53.25 L27.15 54.95 23.1 55.65 19.05 54.95 Q17.0 53.95 17.35 53.25 L11.95 51.6 8.55 50.55 M8.55 48.85 L9.9 49.2 8.55 48.85 M19.35 47.2 L22.4 46.5 22.4 44.45 17.35 45.85 22.4 44.45 22.4 46.5 19.35 47.2 M18.7 51.6 L22.4 53.25 21.75 54.6 17.35 53.25 21.75 54.6 22.4 53.25 18.7 51.6" fill="#4c0e62" fill-rule="evenodd" stroke="none"/>
    <path d="M54.5 60.35 Q51.1 60.7 48.1 61.7 47.4 61.7 47.4 62.05 L30.2 62.75 25.1 62.4 14.65 61.05 14.3 60.05 13.95 56.3 Q25.8 61.05 47.75 57.0 50.8 56.3 54.15 55.95 L55.2 55.65 55.25 55.6 55.3 55.6 55.35 55.55 55.4 55.55 Q55.95 54.95 57.2 54.95 56.55 57.65 54.5 60.35" fill="#e2c7fc" fill-rule="evenodd" stroke="none"/>
    <path d="M73.4 51.25 L75.45 54.3 Q75.45 54.95 76.8 55.65 72.75 57.0 54.5 60.35 56.55 57.65 57.2 54.95 L73.4 51.25" fill="#d0aef0" fill-rule="evenodd" stroke="none"/>
    <path d="M9.9 49.2 L8.55 48.85 M19.35 47.2 L11.6 48.85 9.9 49.2 11.95 49.55 18.7 51.6 M17.35 53.25 L11.95 51.6 M11.6 46.85 L17.35 45.85 22.4 44.45 22.4 46.5 19.35 47.2 M8.55 47.85 L11.6 46.85 M17.35 53.25 L21.75 54.6 22.4 53.25 18.7 51.6 M8.55 50.55 L11.95 51.6" fill="none" stroke="#4c0e62" stroke-linecap="round" stroke-linejoin="round" stroke-width="0.2"/>
  </g>
</svg>
