<?xml version="1.0" encoding="UTF-8" standalone="no"?>
<svg xmlns:xlink="http://www.w3.org/1999/xlink" height="100.15px" width="85.75px" xmlns="http://www.w3.org/2000/svg">
  <g transform="matrix(1.0, 0.0, 0.0, 1.0, -0.55, -8.45)">
    <path d="M81.6 95.8 Q75.2 100.2 67.1 102.2 66.75 102.2 66.05 102.55 L64.4 102.9 50.55 104.9 46.8 104.9 41.4 105.25 38.35 105.25 35.3 105.6 Q27.2 105.25 19.45 103.25 17.75 102.9 17.1 102.55 L16.05 102.2 15.05 101.85 9.3 99.5 8.65 99.5 Q8.3 99.5 8.3 99.15 L6.25 98.15 4.9 97.5 3.9 97.5 Q3.55 95.45 3.55 93.4 L3.55 91.75 Q3.9 86.65 4.9 80.25 4.9 78.85 5.25 77.85 5.25 76.15 5.6 75.5 L5.6 74.8 5.95 74.15 6.25 72.8 6.6 70.1 6.6 69.75 6.6 69.05 6.6 68.75 Q5.6 60.95 6.6 49.45 L5.95 50.8 6.6 40.0 7.6 37.95 8.65 30.15 Q9.3 27.45 10.35 24.4 L11.0 23.4 Q11.35 23.05 11.7 23.05 L12.35 22.4 14.05 21.05 17.4 18.0 18.75 17.3 Q21.8 14.95 36.0 12.6 52.2 9.9 57.6 13.6 L61.0 15.3 62.7 15.95 63.05 15.95 63.35 16.65 Q64.4 17.3 66.05 19.35 L68.1 23.05 Q69.1 26.1 68.75 31.2 L68.45 38.65 68.45 44.4 Q68.75 48.45 69.45 51.5 70.45 54.85 72.15 58.9 L74.5 64.0 74.85 64.0 Q77.9 70.1 78.55 72.1 79.6 74.5 81.25 81.25 83.3 87.35 83.3 92.4 82.6 95.8 81.6 95.8" fill="#7225bb" fill-rule="evenodd" stroke="none"/>
    <path d="M81.6 95.8 Q75.2 100.2 67.1 102.2 66.75 102.2 66.05 102.55 L64.4 102.9 50.55 104.9 46.8 104.9 41.4 105.25 38.35 105.25 35.3 105.6 Q27.2 105.25 19.45 103.25 17.75 102.9 17.1 102.55 L16.05 102.2 15.05 101.85 9.3 99.5 8.65 99.5 Q8.3 99.5 8.3 99.15 L6.25 98.15 4.9 97.5 3.9 97.5 Q3.55 95.45 3.55 93.4 L3.55 91.75 Q3.9 86.65 4.9 80.25 4.9 78.85 5.25 77.85 5.25 76.15 5.6 75.5 L5.6 74.8 5.95 74.15 6.25 72.8 6.6 70.1 6.6 69.75 6.6 69.05 6.6 68.75 Q5.6 60.95 6.6 49.45 L5.95 50.8 6.6 40.0 7.6 37.95 8.65 30.15 Q9.3 27.45 10.35 24.4 L11.0 23.4 Q11.35 23.05 11.7 23.05 L12.35 22.4 14.05 21.05 17.4 18.0 18.75 17.3 Q21.8 14.95 36.0 12.6 52.2 9.9 57.6 13.6 L61.0 15.3 62.7 15.95 63.05 15.95 63.35 16.65 Q64.4 17.3 66.05 19.35 L68.1 23.05 Q69.1 26.1 68.75 31.2 L68.45 38.65 68.45 44.4 Q68.75 48.45 69.45 51.5 70.45 54.85 72.15 58.9 L74.5 64.0 74.85 64.0 Q77.9 70.1 78.55 72.1 79.6 74.5 81.25 81.25 83.3 87.35 83.3 92.4 82.6 95.8 81.6 95.8 Z" fill="none" stroke="#4c0e62" stroke-linecap="round" stroke-linejoin="round" stroke-width="6.0"/>
    <path d="M74.85 64.85 Q77.9 70.95 78.55 72.95 79.6 75.35 81.25 82.1 83.3 88.2 83.3 93.25 82.6 96.65 81.6 96.65 75.2 101.05 67.1 103.05 66.75 103.05 66.05 103.4 L64.05 103.75 50.55 105.75 46.8 105.75 41.4 106.1 38.35 106.1 35.3 106.45 Q27.2 106.1 19.45 104.1 17.75 103.75 17.1 103.4 16.4 103.05 15.75 103.05 L15.05 102.7 9.3 100.35 8.3 100.35 8.3 100.0 6.25 99.0 4.9 98.35 3.9 98.35 Q3.55 96.3 3.55 94.25 7.6 96.65 18.45 100.35 L18.75 100.35 Q25.85 102.05 31.6 102.05 33.65 84.1 41.05 71.25 48.5 81.1 51.9 101.7 L65.4 99.35 Q66.05 99.0 66.75 99.0 70.45 98.0 78.9 93.6 79.6 90.55 78.55 82.1 77.55 72.95 75.85 69.25 74.85 65.85 74.85 64.85 M47.8 102.4 Q46.15 87.85 41.4 78.7 36.0 91.55 36.0 102.4 L47.8 102.4" fill="#e6b4ff" fill-rule="evenodd" stroke="none"/>
    <path d="M3.55 94.25 L3.55 92.6 Q3.55 87.5 4.9 81.1 4.9 79.7 5.25 78.7 5.25 77.0 5.6 76.35 L5.6 75.65 5.95 75.0 Q6.6 72.95 6.6 71.6 L6.6 70.6 6.6 69.9 6.6 69.6 Q5.25 60.45 6.6 46.9 8.3 32.7 8.65 31.0 L9.3 28.3 Q9.3 27.65 8.95 26.95 L10.65 24.25 Q12.7 21.9 17.75 19.85 L18.75 18.85 Q20.1 17.85 24.85 16.5 28.55 15.1 32.95 13.75 54.6 7.0 61.35 16.15 L65.4 18.15 67.4 21.55 67.4 21.9 Q67.75 21.9 68.75 24.25 69.1 26.95 68.75 32.05 L68.45 39.5 Q68.1 41.15 68.45 45.25 68.75 49.3 69.45 52.35 70.45 55.7 72.15 59.75 L74.5 64.85 74.85 64.85 Q74.85 65.85 75.85 69.25 77.55 72.95 78.55 82.1 79.6 90.55 78.9 93.6 70.45 98.0 66.75 99.0 66.05 99.0 65.4 99.35 L51.9 101.7 Q48.5 81.1 41.05 71.25 33.65 84.1 31.6 102.05 25.85 102.05 18.75 100.35 L18.45 100.35 Q7.6 96.65 3.55 94.25" fill="#9a4de2" fill-rule="evenodd" stroke="none"/>
    <path d="M47.8 102.4 L36.0 102.4 Q36.0 91.55 41.4 78.7 46.15 87.85 47.8 102.4" fill="#681bb1" fill-rule="evenodd" stroke="none"/>
    <path d="M22.15 22.9 Q25.2 24.25 29.9 24.6 15.75 31.0 5.95 51.65 L6.6 40.85 7.6 38.8 Q12.35 29.0 22.15 22.9" fill="#e4b2fc" fill-rule="evenodd" stroke="none"/>
    <path d="M24.2 54.7 L23.15 55.7 21.8 55.35 Q21.45 55.35 19.45 56.05 L19.45 55.7 Q20.1 55.05 22.15 55.05 23.15 55.05 23.5 54.7 L24.2 54.7 M25.55 56.05 L25.85 55.7 Q26.2 56.05 26.2 56.75 L25.55 56.75 25.55 56.05 M30.25 58.4 L29.9 58.4 30.6 57.4 Q30.25 58.1 30.25 58.4" fill="#be8fec" fill-rule="evenodd" stroke="none"/>
    <path d="M20.45 58.4 L21.15 58.4 21.15 59.1 Q20.45 59.1 20.45 58.4 M24.5 68.9 Q24.85 69.6 24.85 70.6 L24.85 71.25 Q24.85 72.6 25.2 73.3 L24.85 73.3 23.85 74.3 24.85 75.35 24.85 75.65 25.2 75.65 Q25.2 76.0 25.55 76.35 L25.55 79.4 25.2 80.05 24.85 80.4 23.5 80.75 Q22.15 80.75 21.15 79.05 L21.15 78.7 22.8 79.7 23.15 79.7 23.15 79.4 Q21.15 76.35 19.45 76.0 17.4 76.0 17.4 78.35 L17.4 78.7 17.1 79.7 Q17.1 81.1 19.1 82.1 20.8 83.8 20.8 85.8 L20.45 86.85 19.45 87.5 Q17.1 87.5 15.75 83.1 L15.75 82.6 15.75 82.1 15.4 78.35 Q14.4 77.0 13.7 78.35 L13.35 78.7 Q13.05 79.7 13.05 80.4 L13.05 80.85 Q13.05 81.8 13.35 83.1 13.35 85.15 12.7 85.8 L12.7 86.15 11.35 88.2 11.0 88.5 12.0 89.2 13.35 89.55 Q15.4 90.55 15.75 90.55 17.75 90.55 18.75 89.55 L19.45 89.55 Q19.8 89.85 19.8 90.9 19.8 92.25 19.45 92.6 L17.75 92.6 14.7 91.9 Q14.05 91.55 13.35 91.55 L14.05 91.2 13.7 90.9 Q11.7 90.55 10.0 90.9 7.3 91.2 7.3 92.9 L7.3 93.6 8.3 93.6 9.65 94.6 14.05 93.6 Q14.7 93.6 14.7 93.95 L13.05 94.6 Q13.35 94.95 14.05 94.95 L15.75 95.6 15.4 96.3 Q13.7 95.95 12.0 94.95 L10.35 95.3 9.65 95.3 8.3 94.95 7.6 94.25 Q6.25 94.95 4.25 95.3 L3.9 95.3 3.9 92.9 3.9 91.9 4.25 91.9 Q8.65 89.85 8.65 86.85 8.65 85.8 6.95 85.15 5.95 84.45 5.6 83.1 L5.95 82.45 6.25 82.1 6.25 81.75 6.6 81.1 Q7.95 81.1 8.65 82.1 8.95 82.75 9.65 83.1 L10.35 83.8 10.65 81.75 Q10.65 80.4 9.65 78.7 8.65 78.35 7.95 77.35 6.95 76.7 6.6 75.65 6.25 75.35 6.25 75.0 L6.6 70.95 Q6.95 70.6 7.95 70.6 8.65 70.95 9.65 72.95 L9.65 73.3 Q10.35 75.35 11.7 75.65 12.0 76.0 12.35 76.0 13.05 76.0 13.35 75.65 14.4 75.65 14.4 75.0 14.05 73.3 14.05 71.6 14.05 71.25 14.4 71.25 L15.05 71.25 Q14.7 72.6 15.4 73.95 15.75 75.0 17.1 75.35 18.45 75.65 19.45 75.0 20.45 74.65 20.8 73.3 L21.15 72.6 22.8 72.3 24.2 70.25 24.2 68.65 24.5 68.9 M24.2 62.15 L24.85 62.15 Q24.5 62.15 24.5 62.45 L24.2 62.15 M5.95 87.85 Q5.6 88.5 4.9 88.5 L4.6 88.5 Q4.6 87.15 4.9 85.8 6.6 85.45 6.6 86.85 6.6 87.5 5.95 87.85 M23.15 86.5 L23.15 86.85 Q22.8 86.85 22.8 86.15 23.15 86.15 23.15 86.5 M22.8 90.55 Q22.5 90.9 21.45 90.9 L21.45 89.85 Q21.8 89.55 22.8 89.85 L22.8 90.55" fill="#b275ec" fill-rule="evenodd" stroke="none"/>
    <path d="M30.25 58.4 L29.9 58.75 Q29.25 60.1 28.9 62.15 L28.55 67.55 Q27.9 71.25 25.55 72.95 25.2 72.95 25.2 73.3 24.85 72.6 24.85 71.25 L24.85 70.6 Q24.85 69.6 24.5 68.9 L24.85 68.9 Q26.9 68.9 27.2 67.55 L27.2 63.15 Q27.2 61.45 28.55 60.1 28.9 59.1 29.6 58.4 L29.9 58.4 30.25 58.4" fill="#9b55de" fill-rule="evenodd" stroke="none"/>
    <path d="M5.6 83.1 L5.25 83.45 Q4.9 83.45 4.9 83.8 L4.9 83.1 Q5.25 82.1 5.25 80.4 L5.95 81.1 6.25 82.1 5.95 82.45 5.6 83.1 M14.05 71.6 Q13.05 71.95 12.0 71.6 11.0 71.25 10.35 70.25 10.0 68.9 10.35 67.55 10.35 66.2 11.35 65.5 L13.35 65.2 Q13.05 64.15 13.35 63.15 13.35 62.15 14.4 61.1 15.75 60.45 16.75 60.8 17.75 61.1 18.45 62.15 L18.75 61.8 Q19.8 61.1 21.15 61.45 22.15 61.8 22.8 63.15 23.15 64.15 23.15 65.5 L22.8 66.55 23.15 66.55 Q23.15 67.2 23.85 67.55 23.85 68.2 24.2 68.55 L24.2 68.65 24.2 70.25 22.8 72.3 21.15 72.6 20.8 72.6 20.8 73.3 Q20.45 74.65 19.45 75.0 18.45 75.65 17.1 75.35 15.75 75.0 15.4 73.95 14.7 72.6 15.05 71.25 L14.4 71.25 Q14.05 71.25 14.05 71.6 M21.15 67.9 L20.8 65.85 18.75 64.15 17.75 64.15 17.4 64.15 Q16.75 64.15 16.05 64.85 15.05 65.5 14.7 67.2 14.05 68.55 15.05 69.6 L15.75 70.95 17.1 71.25 Q17.75 71.6 18.75 71.25 L19.45 71.25 Q20.8 70.25 21.15 68.9 L21.15 67.9" fill="#cc9cfa" fill-rule="evenodd" stroke="none"/>
    <path d="M21.15 67.9 L21.15 68.9 Q20.8 70.25 19.45 71.25 L18.75 71.25 Q17.75 71.6 17.1 71.25 L15.75 70.95 15.05 69.6 Q14.05 68.55 14.7 67.2 15.05 65.5 16.05 64.85 16.75 64.15 17.4 64.15 L17.75 64.15 18.75 64.15 20.8 65.85 21.15 67.9 M16.75 65.5 L15.75 66.85 Q15.75 67.55 16.05 68.2 16.4 69.25 17.1 69.25 L18.45 69.25 19.1 68.55 19.1 68.2 19.45 67.9 Q19.45 67.2 19.1 66.55 18.75 65.5 17.75 65.5 L16.75 65.5" fill="#e6b4ff" fill-rule="evenodd" stroke="none"/>
    <path d="M16.75 65.5 L17.75 65.5 Q18.75 65.5 19.1 66.55 19.45 67.2 19.45 67.9 L19.1 68.2 19.1 68.55 18.45 69.25 17.1 69.25 Q16.4 69.25 16.05 68.2 15.75 67.55 15.75 66.85 L16.75 65.5" fill="#9a4de2" fill-rule="evenodd" stroke="none"/>
    <path d="M21.15 78.7 L21.15 78.35 Q20.1 77.7 19.45 77.7 18.75 77.7 18.45 78.35 18.1 79.05 18.1 80.05 L17.4 78.7 17.4 78.35 Q17.4 76.0 19.45 76.0 21.15 76.35 23.15 79.4 L23.15 79.7 22.8 79.7 21.15 78.7 M15.75 82.6 Q15.7 83.9 15.05 85.45 14.05 87.5 14.05 89.2 L12.0 89.2 Q12.0 88.85 11.7 88.85 11.35 88.5 11.35 88.2 L12.7 86.15 12.7 85.8 Q14.05 84.8 14.05 83.8 L13.7 82.1 Q13.05 81.4 13.05 80.85 L13.05 80.4 Q13.05 79.7 13.35 78.7 L13.7 78.35 Q14.4 77.0 15.4 78.35 L15.75 82.1 15.75 82.6 M13.35 91.55 Q12.0 92.25 8.65 93.6 L8.3 93.6 7.3 93.6 7.3 92.9 Q7.3 91.2 10.0 90.9 11.7 90.55 13.7 90.9 L14.05 91.2 13.35 91.55" fill="#a261de" fill-rule="evenodd" stroke="none"/>
    <path d="M65.4 18.15 Q63.05 19.85 59.3 21.9 53.9 24.6 30.95 31.0 14.05 35.75 10.35 23.9 10.35 23.25 10.0 22.55 L12.0 20.55 Q14.05 18.85 18.75 17.15 L19.45 16.5 25.55 14.8 39.4 12.1 Q48.5 10.05 55.6 12.1 62.35 13.75 65.4 18.15" fill="#e4b2fc" fill-rule="evenodd" stroke="none"/>
  </g>
</svg>
