<?xml version="1.0" encoding="UTF-8" standalone="no"?>
<svg xmlns:xlink="http://www.w3.org/1999/xlink" height="171.85px" width="128.25px" xmlns="http://www.w3.org/2000/svg">
  <g transform="matrix(1.0, 0.0, 0.0, 1.0, -0.15, 0.0)">
    <path d="M58.8 50.7 L58.75 87.1 Q71.8 84.75 76.65 79.55 80.0 76.0 80.0 69.8 80.0 57.4 69.4 52.8 66.1 51.35 62.1 50.9 L58.8 50.7 M88.55 6.7 Q100.65 10.15 107.9 15.65 117.25 22.75 122.55 35.15 127.85 47.5 128.35 63.55 129.35 92.9 106.6 111.4 98.2 118.25 88.5 122.95 75.85 129.0 62.2 130.7 L62.5 159.4 Q62.45 162.75 60.35 165.1 58.3 167.4 55.0 167.8 L16.5 171.85 Q13.0 171.85 10.7 169.6 8.4 167.35 8.25 163.8 L0.15 9.1 Q0.05 5.35 2.3 2.9 4.6 0.45 8.35 0.3 17.5 0.0 25.9 0.0 L58.3 1.45 Q76.45 3.2 88.55 6.7" fill="#ff0000" fill-rule="evenodd" stroke="none"/>
  </g>
</svg>
