<?xml version="1.0" encoding="UTF-8" standalone="no"?>
<svg xmlns:xlink="http://www.w3.org/1999/xlink" height="85.85px" width="88.95px" xmlns="http://www.w3.org/2000/svg">
  <g transform="matrix(1.0, 0.0, 0.0, 1.0, 4.35, -16.3)">
    <path d="M63.85 19.7 L64.2 20.4 71.3 55.2 Q71.3 54.85 71.65 54.85 L73.1 59.8 Q77.7 68.65 80.55 81.05 80.9 85.35 81.6 90.65 63.55 98.1 46.5 99.15 L30.9 99.15 Q25.25 98.85 21.35 99.15 8.55 98.45 -1.35 93.1 L-1.35 91.4 Q-1.35 89.6 -0.95 87.8 -1.35 85.35 -0.6 83.55 0.05 77.15 2.6 70.45 L3.25 66.15 Q2.6 65.85 2.6 65.5 L4.3 55.9 4.3 55.2 Q4.7 53.4 4.7 52.0 L10.35 19.3 63.85 19.7" fill="#8c3763" fill-rule="evenodd" stroke="none"/>
    <path d="M63.85 19.7 L10.35 19.3 4.7 52.0 Q4.7 53.4 4.3 55.2 L4.3 55.9 2.6 65.5 Q2.6 65.85 3.25 66.15 L2.6 70.45 Q0.05 77.15 -0.6 83.55 -1.35 85.35 -0.95 87.8 -1.35 89.6 -1.35 91.4 L-1.35 93.1 Q8.55 98.45 21.35 99.15 25.25 98.85 30.9 99.15 L46.5 99.15 Q63.55 98.1 81.6 90.65 80.9 85.35 80.55 81.05 77.7 68.65 73.1 59.8 L71.65 54.85 Q71.3 54.85 71.3 55.2 L64.2 20.4 63.85 19.7 Z" fill="none" stroke="#4c0e62" stroke-linecap="round" stroke-linejoin="round" stroke-width="6.0"/>
    <path d="M54.1 50.9 L53.0 51.2 52.3 51.2 51.95 50.9 51.95 50.15 Q51.95 49.8 52.3 49.8 53.0 49.45 53.75 49.8 L53.75 50.15 54.1 50.9" fill="#ecabcc" fill-rule="evenodd" stroke="none"/>
    <path d="M66.5 61.5 Q69.3 46.3 62.95 28.85 L59.75 30.3 Q61.85 28.2 61.2 26.05 L59.05 20.75 46.65 24.6 Q40.65 26.05 39.2 28.2 36.4 24.25 17.6 20.35 L16.85 22.15 16.2 26.75 Q15.8 29.9 19.7 31.35 L14.05 29.6 9.1 58.65 Q7.7 65.45 11.95 66.85 L4.85 66.1 11.2 20.75 11.55 19.65 65.05 20.0 65.05 20.35 72.9 57.25 Q71.45 59.75 66.85 61.5 L66.5 61.5" fill="#74299a" fill-rule="evenodd" stroke="none"/>
    <path d="M11.95 66.85 Q7.7 65.45 9.1 58.65 L14.05 29.6 19.7 31.35 Q15.8 29.9 16.2 26.75 L16.85 22.15 17.6 20.35 Q36.4 24.25 39.2 28.2 40.65 26.05 46.65 24.6 L59.05 20.75 61.2 26.05 Q61.85 28.2 59.75 30.3 L62.95 28.85 Q69.3 46.3 66.5 61.5 55.15 64.7 42.05 66.1 L22.9 67.2 20.05 66.85 16.55 66.85 11.95 66.85" fill="#933abf" fill-rule="evenodd" stroke="none"/>
    <path d="M73.55 60.1 Q73.55 59.75 73.95 60.1 74.3 60.8 74.3 61.85 78.55 68.95 81.0 79.6 81.0 80.3 81.4 81.0 81.75 85.3 82.8 90.6 L77.8 92.4 Q61.85 98.4 47.35 99.1 L36.75 98.8 31.75 99.1 Q26.45 98.8 22.2 99.1 9.4 98.4 -0.5 93.05 L-0.5 92.4 -0.5 91.35 Q-0.5 89.55 -0.1 87.75 -0.5 85.3 0.25 83.5 L0.9 79.6 Q1.65 76.05 2.7 72.5 L3.75 72.85 Q2.7 76.05 2.05 79.6 1.3 83.9 0.9 88.8 0.6 89.9 2.05 91.35 L4.1 92.4 Q10.15 95.2 20.45 96.25 28.25 96.65 34.95 96.25 L31.4 96.65 Q36.4 97.0 45.25 96.65 60.45 95.2 69.0 92.75 L70.05 92.4 Q77.8 89.55 79.25 87.75 80.35 85.3 80.7 82.45 L79.95 79.6 Q78.55 74.3 73.95 61.85 L73.95 61.5 73.55 60.1" fill="#803ebd" fill-rule="evenodd" stroke="none"/>
    <path d="M2.7 72.5 L3.45 70.7 5.9 71.8 Q17.95 73.9 33.9 72.5 51.95 70.05 70.75 62.9 L71.1 62.9 Q71.85 61.85 73.25 61.85 L73.25 62.25 73.95 62.9 71.45 64.4 71.1 64.7 Q53.35 71.45 35.35 73.9 L31.4 74.3 27.5 74.65 Q22.2 74.95 17.6 74.65 L14.4 74.65 5.9 73.25 5.55 73.25 3.75 72.85 2.7 72.5 M4.5 67.2 L4.1 67.2 4.5 66.1 Q26.85 68.25 52.3 61.85 61.85 59.4 71.85 55.85 L72.5 56.9 Q65.05 59.75 58.0 61.85 36.4 67.9 16.85 68.25 L15.15 67.9 Q13.35 67.5 12.25 67.9 L4.5 67.2" fill="#f6eeff" fill-rule="evenodd" stroke="none"/>
    <path d="M5.55 73.25 L5.9 73.25 14.4 74.65 17.6 74.65 Q22.2 74.95 27.5 74.65 L31.4 74.3 35.35 73.9 Q53.35 71.45 71.1 64.7 L71.45 64.4 75.35 79.6 Q75.7 83.5 73.55 85.6 71.85 85.6 70.75 86.7 66.85 87.4 66.85 86.0 66.5 83.9 64.7 79.6 L64.4 78.9 64.4 79.6 Q63.65 87.05 60.45 89.55 56.55 90.95 50.15 91.35 L44.5 90.95 32.5 92.4 28.55 92.75 Q28.25 92.75 28.25 92.4 L25.75 92.0 Q24.7 92.4 23.95 92.4 L22.55 92.75 16.2 92.4 13.35 92.0 Q8.0 90.25 8.0 86.7 9.4 88.5 13.0 89.55 17.6 90.95 21.1 90.95 24.7 91.35 25.05 87.05 25.75 82.45 27.5 76.75 L26.45 77.1 18.65 77.5 13.7 77.1 9.8 76.05 Q9.1 75.7 8.0 76.45 L7.7 79.95 Q7.3 81.35 7.3 82.45 L7.3 84.55 Q7.3 85.6 7.7 86.7 6.6 89.2 5.55 89.55 4.1 89.55 4.5 89.2 3.75 88.5 4.1 87.4 3.75 86.0 4.85 79.6 L4.85 78.55 Q5.15 74.95 5.55 73.25" fill="#b784e4" fill-rule="evenodd" stroke="none"/>
    <path d="M3.45 70.7 L4.5 67.2 12.25 67.9 Q13.35 67.5 15.15 67.9 L16.85 68.25 Q36.4 67.9 58.0 61.85 65.05 59.75 72.5 56.9 L73.55 60.1 73.95 61.5 Q73.55 61.5 73.25 61.85 71.85 61.85 71.1 62.9 L70.75 62.9 Q51.95 70.05 33.9 72.5 17.95 73.9 5.9 71.8 L3.45 70.7" fill="#e0c5fa" fill-rule="evenodd" stroke="none"/>
    <path d="M73.95 61.85 Q78.55 74.3 79.95 79.6 L80.7 82.45 Q80.35 85.3 79.25 87.75 77.8 89.55 70.05 92.4 L69.0 92.75 Q60.45 95.2 45.25 96.65 36.4 97.0 31.4 96.65 L34.95 96.25 Q28.25 96.65 20.45 96.25 10.15 95.2 4.1 92.4 L2.05 91.35 Q0.6 89.9 0.9 88.8 1.3 83.9 2.05 79.6 2.7 76.05 3.75 72.85 L5.55 73.25 Q5.15 74.95 4.85 78.55 L4.85 79.6 Q3.75 86.0 4.1 87.4 3.75 88.5 4.5 89.2 4.1 89.55 5.55 89.55 6.6 89.2 7.7 86.7 L7.7 86.35 8.0 86.35 8.0 86.7 Q8.0 90.25 13.35 92.0 L16.2 92.4 22.55 92.75 23.95 92.4 Q24.7 92.4 25.75 92.0 L28.25 92.4 Q28.25 92.75 28.55 92.75 L32.5 92.4 44.5 90.95 50.15 91.35 Q56.55 90.95 60.45 89.55 63.65 87.05 64.4 79.6 L64.4 78.9 64.7 79.6 Q66.5 83.9 66.85 86.0 66.85 87.4 70.75 86.7 71.85 85.6 73.55 85.6 75.7 83.5 75.35 79.6 L71.45 64.4 73.95 62.9 73.25 62.25 73.95 61.85" fill="#a46ad9" fill-rule="evenodd" stroke="none"/>
    <path d="M7.7 86.7 Q7.3 85.6 7.3 84.55 L7.3 82.45 Q7.3 81.35 7.7 79.95 L8.0 76.45 Q9.1 75.7 9.8 76.05 L13.7 77.1 18.65 77.5 26.45 77.1 27.5 76.75 Q25.75 82.45 25.05 87.05 24.7 91.35 21.1 90.95 17.6 90.95 13.0 89.55 9.4 88.5 8.0 86.7 L8.0 86.35 7.7 86.35 7.7 86.7" fill="#d0aef0" fill-rule="evenodd" stroke="none"/>
    <path d="M25.05 65.8 Q23.25 62.6 20.45 65.05 L20.45 74.3 Q22.2 77.1 25.05 74.95 L25.05 65.8 M19.0 75.7 L19.0 62.9 Q23.25 59.4 26.45 63.65 L26.85 76.45 Q21.85 79.6 19.0 75.7" fill="#5d1185" fill-rule="evenodd" stroke="none"/>
    <path d="M25.05 65.8 L25.05 74.95 Q22.2 77.1 20.45 74.3 L20.45 65.05 Q23.25 62.6 25.05 65.8" fill="#803ebd" fill-rule="evenodd" stroke="none"/>
    <path d="M54.45 59.4 L55.9 68.6 Q58.35 71.1 60.8 68.6 L59.05 59.75 Q56.55 56.55 54.45 59.4 M54.8 70.4 L52.7 58.0 Q56.2 53.75 60.15 57.25 L62.6 70.05 Q58.35 73.9 54.8 70.4" fill="#5d1185" fill-rule="evenodd" stroke="none"/>
    <path d="M54.45 59.4 Q56.55 56.55 59.05 59.75 L60.8 68.6 Q58.35 71.1 55.9 68.6 L54.45 59.4" fill="#803ebd" fill-rule="evenodd" stroke="none"/>
    <path d="M13.7 23.55 Q14.75 22.85 16.2 23.2 17.95 23.2 19.0 25.0 20.05 26.75 19.7 28.85 19.7 31.0 18.3 32.05 17.95 32.45 17.95 32.8 L18.65 33.5 Q19.7 35.25 19.4 37.35 19.4 39.5 17.95 40.95 L17.25 41.65 Q17.95 42.0 18.3 42.7 19.7 44.5 19.4 46.6 19.4 49.1 17.6 50.55 16.85 51.6 15.8 51.6 L16.85 53.0 Q18.3 54.8 17.95 56.9 17.6 59.05 16.2 60.8 14.75 62.25 13.0 61.85 11.95 61.5 11.55 61.2 11.2 61.5 11.2 61.85 11.2 64.4 9.4 65.8 8.0 67.2 6.25 67.2 4.5 66.85 3.45 65.45 L4.1 61.2 6.6 62.25 Q9.1 62.6 11.2 60.45 13.35 58.0 13.7 54.8 L15.45 30.65 Q15.8 27.1 14.4 24.6 L13.7 23.55" fill="#fad7ff" fill-rule="evenodd" stroke="none"/>
    <path d="M13.7 23.55 L14.4 24.6 Q15.8 27.1 15.45 30.65 L13.7 54.8 Q13.35 58.0 11.2 60.45 9.1 62.6 6.6 62.25 L4.1 61.2 4.5 59.05 Q5.55 60.1 6.95 60.1 8.75 60.45 10.5 58.35 11.95 56.2 12.25 53.35 L12.25 53.0 14.05 31.35 Q14.4 28.5 13.35 26.05 13.0 25.3 12.25 25.0 11.55 23.9 10.85 23.55 L11.2 21.8 Q12.6 22.15 13.7 23.55" fill="#74299a" fill-rule="evenodd" stroke="none"/>
    <path d="M4.5 59.05 L5.15 56.2 5.55 56.9 Q6.25 58.35 7.3 58.35 8.35 58.65 9.4 57.6 10.5 56.55 10.5 55.15 10.5 53.75 9.8 52.65 9.1 51.6 8.0 51.2 6.95 51.2 5.9 51.95 L6.25 48.75 Q6.95 49.45 8.0 49.45 9.1 49.8 10.15 48.75 11.2 47.7 11.2 46.3 11.2 44.85 10.5 43.75 9.8 42.7 8.75 42.35 L7.3 42.35 7.7 40.55 8.75 40.55 Q9.8 40.95 10.85 39.9 11.55 39.15 11.95 37.35 11.95 35.95 11.2 34.9 10.5 33.85 9.1 33.5 L9.1 32.8 9.4 32.8 Q10.85 33.1 11.55 32.05 12.6 31.0 12.6 29.6 13.0 28.2 12.25 27.1 11.55 26.05 10.5 25.65 L10.85 23.55 Q11.55 23.9 12.25 25.0 13.0 25.3 13.35 26.05 14.4 28.5 14.05 31.35 L12.25 53.0 12.25 53.35 Q11.95 56.2 10.5 58.35 8.75 60.45 6.95 60.1 5.55 60.1 4.5 59.05" fill="#e6befa" fill-rule="evenodd" stroke="none"/>
    <path d="M5.15 56.2 Q4.85 56.55 5.15 54.8 L5.9 52.3 5.9 51.95 Q6.95 51.2 8.0 51.2 9.1 51.6 9.8 52.65 10.5 53.75 10.5 55.15 10.5 56.55 9.4 57.6 8.35 58.65 7.3 58.35 6.25 58.35 5.55 56.9 L5.15 56.2 M6.25 48.75 L7.3 42.35 8.75 42.35 Q9.8 42.7 10.5 43.75 11.2 44.85 11.2 46.3 11.2 47.7 10.15 48.75 9.1 49.8 8.0 49.45 6.95 49.45 6.25 48.75 M7.7 40.55 L9.1 33.5 Q10.5 33.85 11.2 34.9 11.95 35.95 11.95 37.35 11.55 39.15 10.85 39.9 9.8 40.95 8.75 40.55 L7.7 40.55 M9.1 32.8 L10.5 25.65 Q11.55 26.05 12.25 27.1 13.0 28.2 12.6 29.6 12.6 31.0 11.55 32.05 10.85 33.1 9.4 32.8 L9.1 32.8" fill="#ca6be4" fill-rule="evenodd" stroke="none"/>
  </g>
</svg>
