<?xml version="1.0" encoding="UTF-8" standalone="no"?>
<svg xmlns:xlink="http://www.w3.org/1999/xlink" height="235.1px" width="199.5px" xmlns="http://www.w3.org/2000/svg">
  <g transform="matrix(1.0, 0.0, 0.0, 1.0, 2.75, 43.7)">
    <path d="M163.25 165.1 L163.6 165.6" fill="none" stroke="#331300" stroke-linecap="round" stroke-linejoin="round" stroke-width="1.0"/>
    <path d="M105.05 163.15 L104.45 163.55" fill="none" stroke="#2f1a02" stroke-linecap="round" stroke-linejoin="round" stroke-width="1.0"/>
    <path d="M55.2 -20.35 Q60.4 -22.75 68.45 -21.25 L90.55 -17.45 92.9 -27.15 Q91.7 -28.05 90.9 -29.45 89.25 -32.15 90.2 -35.1 90.9 -38.05 93.7 -39.7 96.35 -41.25 99.25 -40.35 102.25 -39.6 103.8 -36.9 105.4 -34.15 104.6 -31.2 103.75 -28.35 101.1 -26.75 L100.0 -26.2 97.7 -16.3 98.55 -16.15 110.65 -13.95 Q114.85 -13.2 118.05 -12.15 L123.95 -18.6 Q123.35 -19.95 123.3 -21.55 123.15 -24.5 125.3 -26.6 127.25 -28.7 130.25 -28.8 133.25 -28.8 135.4 -26.85 137.5 -24.85 137.6 -21.85 137.65 -18.85 135.6 -16.75 133.55 -14.6 130.6 -14.55 L129.4 -14.6 124.65 -9.25 Q126.95 -7.8 128.35 -5.95 129.55 -4.45 130.1 -2.7 130.7 -0.7 130.65 1.65 L141.95 3.6 135.8 14.75 Q141.15 18.5 146.15 23.25 171.2 47.0 171.2 80.55 171.2 91.55 168.55 101.45 166.25 113.1 161.35 123.0 L160.6 126.9 161.55 124.4 Q169.05 126.3 167.1 135.2 L193.75 134.4 Q193.35 188.15 142.35 188.4 L141.9 163.1 Q132.35 165.9 131.2 157.55 L131.5 157.4 127.75 156.85 Q118.4 161.1 107.45 162.45 L105.25 163.9 104.5 164.05 Q104.1 163.95 103.9 163.6 103.65 163.25 103.75 162.85 L103.75 162.8 Q98.3 163.2 92.45 162.95 L77.55 161.3 Q47.4 158.8 25.25 137.85 0.25 114.1 0.25 80.55 0.25 47.0 25.25 23.25 32.9 16.0 41.5 11.0 L37.5 -14.2 48.05 -12.35 Q48.8 -14.6 50.05 -16.25 51.2 -17.75 52.7 -18.85 L55.2 -20.35 Z" fill="none" stroke="#4c0e62" stroke-linecap="round" stroke-linejoin="round" stroke-width="6.0"/>
    <path d="M149.0 29.05 Q172.35 53.2 170.3 87.25 168.25 121.3 147.3 142.9 126.35 164.5 92.45 162.95 58.55 161.4 31.65 140.45 4.7 119.45 4.7 85.9 4.7 52.35 29.7 28.6 54.8 4.85 90.2 4.85 125.6 4.85 149.0 29.05" fill="#4c0e62" fill-rule="evenodd" stroke="none"/>
    <path d="M25.25 23.25 Q50.35 -0.5 85.75 -0.5 121.15 -0.5 146.15 23.25 171.2 47.0 171.2 80.55 171.2 114.1 146.15 137.85 121.15 161.6 85.75 161.6 50.35 161.6 25.25 137.85 0.25 114.1 0.25 80.55 0.25 47.0 25.25 23.25" fill="#7c1c87" fill-rule="evenodd" stroke="none"/>
    <path d="M132.75 18.75 Q152.5 35.9 152.5 60.15 152.5 84.3 132.75 101.45 113.0 118.55 85.1 118.55 57.15 118.55 37.3 101.45 17.6 84.3 17.6 60.15 17.6 35.9 37.3 18.75 57.15 1.65 85.1 1.65 113.0 1.65 132.75 18.75" fill="#a434b1" fill-rule="evenodd" stroke="none"/>
    <path d="M38.25 -9.45 L37.5 -14.2 48.05 -12.35 Q85.75 6.95 130.65 1.65 L141.95 3.6 139.6 8.0 Q83.25 13.95 38.25 -9.45 M137.0 12.55 L128.75 27.15 Q81.8 33.0 41.65 12.05 L39.05 -4.35 Q83.8 20.35 137.0 12.55 M125.95 32.25 L124.5 34.95 Q76.95 46.95 43.05 20.8 L42.65 17.9 Q79.6 40.05 125.95 32.25" fill="url(#gradient0)" fill-rule="evenodd" stroke="none"/>
    <path d="M39.05 -4.35 L38.25 -9.45 Q83.25 13.95 139.6 8.0 L137.0 12.55 Q83.8 20.35 39.05 -4.35 M128.75 27.15 L125.95 32.25 Q79.6 40.05 42.65 17.9 L41.65 12.05 Q81.8 33.0 128.75 27.15" fill="#b149d7" fill-rule="evenodd" stroke="none"/>
    <path d="M48.05 -12.35 Q48.8 -14.6 50.05 -16.25 51.2 -17.75 52.7 -18.85 L55.2 -20.35 Q60.4 -22.75 68.45 -21.25 L98.55 -16.15 110.65 -13.95 Q118.0 -12.6 122.25 -10.55 126.25 -8.7 128.35 -5.95 129.55 -4.45 130.1 -2.7 130.7 -0.7 130.65 1.65 85.75 6.95 48.05 -12.35" fill="#e2e2e2" fill-rule="evenodd" stroke="none"/>
    <path d="M102.5 -36.8 L96.55 -11.55 Q91.65 -9.95 89.5 -13.25 L94.1 -32.0 102.5 -36.8" fill="#898989" fill-rule="evenodd" stroke="none"/>
    <path d="M101.1 -26.75 Q98.4 -25.25 95.5 -25.95 92.4 -26.75 90.9 -29.45 89.25 -32.15 90.2 -35.1 90.9 -38.05 93.7 -39.7 96.35 -41.25 99.25 -40.35 102.25 -39.6 103.8 -36.9 105.4 -34.15 104.6 -31.2 103.75 -28.35 101.1 -26.75" fill="#898989" fill-rule="evenodd" stroke="none"/>
    <path d="M114.75 -8.55 L127.2 -22.2 136.35 -22.45 119.85 -3.9 Q115.05 -4.7 114.75 -8.55" fill="#898989" fill-rule="evenodd" stroke="none"/>
    <path d="M130.6 -14.55 Q127.5 -14.45 125.45 -16.5 123.35 -18.5 123.3 -21.55 123.15 -24.5 125.3 -26.6 127.25 -28.7 130.25 -28.8 133.25 -28.8 135.4 -26.85 137.5 -24.85 137.6 -21.85 137.65 -18.85 135.6 -16.75 133.55 -14.6 130.6 -14.55" fill="#898989" fill-rule="evenodd" stroke="none"/>
    <path d="M90.95 -35.1 Q90.95 -36.9 92.7 -38.15 94.5 -39.4 97.0 -39.4 99.5 -39.4 101.3 -38.15 103.1 -36.9 103.1 -35.1 103.1 -33.3 101.3 -32.05 99.5 -30.8 97.0 -30.8 94.5 -30.8 92.7 -32.05 90.95 -33.3 90.95 -35.1" fill="#bdbdbd" fill-rule="evenodd" stroke="none"/>
    <path d="M97.05 -32.85 Q95.15 -32.85 93.75 -33.8 92.4 -34.75 92.4 -36.15 92.4 -37.5 93.75 -38.45 95.15 -39.45 97.05 -39.45 98.95 -39.45 100.35 -38.45 101.7 -37.5 101.7 -36.15 101.7 -34.75 100.35 -33.8 98.95 -32.85 97.05 -32.85" fill="#e9e9e9" fill-rule="evenodd" stroke="none"/>
    <path d="M134.5 -26.7 Q136.3 -25.45 136.3 -23.65 136.3 -21.85 134.5 -20.6 132.7 -19.35 130.2 -19.35 127.7 -19.35 125.9 -20.6 124.15 -21.85 124.15 -23.65 124.15 -25.45 125.9 -26.7 127.7 -27.95 130.2 -27.95 132.7 -27.95 134.5 -26.7" fill="#bdbdbd" fill-rule="evenodd" stroke="none"/>
    <path d="M133.55 -27.0 Q134.9 -26.05 134.9 -24.7 134.9 -23.3 133.55 -22.35 132.15 -21.4 130.25 -21.4 128.35 -21.4 126.95 -22.35 125.6 -23.3 125.6 -24.7 125.6 -26.05 126.95 -27.0 128.35 -28.0 130.25 -28.0 132.15 -28.0 133.55 -27.0" fill="#e9e9e9" fill-rule="evenodd" stroke="none"/>
    <path d="M163.75 105.75 Q160.65 123.8 159.05 130.55 157.45 137.3 154.35 147.25 151.3 157.15 145.2 157.15 L138.25 157.35 131.25 156.9 123.85 155.7 108.05 152.55 Q94.65 149.75 84.35 145.45 73.95 141.1 67.5 135.6 62.35 109.95 69.75 92.1 78.85 71.0 99.3 62.9 119.15 55.0 139.3 62.45 155.4 68.65 162.3 75.5 166.85 87.75 163.75 105.75 Z" fill="none" stroke="#4c0e62" stroke-linecap="square" stroke-linejoin="round" stroke-width="2.0"/>
    <path d="M141.65 150.4 L157.95 135.45 193.75 134.4 Q193.35 188.15 142.35 188.4 L141.65 150.4" fill="#7c1c87" fill-rule="evenodd" stroke="none"/>
    <path d="M164.35 106.3 Q161.25 124.35 159.65 131.1 158.05 137.85 154.95 147.8 151.9 157.7 145.8 157.7 L138.85 157.9 131.85 157.45 124.45 156.25 108.65 153.1 Q95.25 150.3 84.95 146.0 74.55 141.65 68.1 136.15 62.95 110.5 70.35 92.65 79.45 71.55 99.9 63.45 119.75 55.55 139.9 63.0 156.0 69.2 162.9 76.05 167.45 88.3 164.35 106.3" fill="#7c1c87" fill-rule="evenodd" stroke="none"/>
    <path d="M149.65 74.55 Q160.85 82.1 161.7 93.0 162.35 101.85 156.0 117.6 L154.0 124.1 Q152.05 130.05 149.4 135.6 145.7 143.9 140.55 150.85 103.45 145.9 86.0 116.15 83.25 111.6 81.1 106.45 L78.65 100.05 Q81.6 82.45 96.4 72.8 108.1 65.25 123.2 65.85 137.75 66.55 149.65 74.55" fill="#a434b1" fill-rule="evenodd" stroke="none"/>
    <path d="M186.7 165.15 Q163.85 159.2 153.95 138.7 L156.95 135.95 192.75 134.9 Q192.6 153.1 186.7 165.15" fill="#a434b1" fill-rule="evenodd" stroke="none"/>
    <path d="M144.1 162.35 Q132.45 166.85 131.2 157.55 154.0 145.05 161.55 124.4 170.9 126.75 165.55 140.0 159.15 155.15 144.1 162.35" fill="#ffffff" fill-rule="evenodd" stroke="none"/>
    <path d="M155.15 154.95 Q150.5 159.1 144.45 162.0 132.8 166.5 131.55 157.2 140.0 152.55 146.4 146.8 148.5 150.45 151.3 153.0 152.35 154.0 155.15 154.95" fill="#cdcdcd" fill-rule="evenodd" stroke="none"/>
    <path d="M165.05 135.55 Q164.95 137.0 163.95 137.95 162.8 138.95 161.3 138.85 159.85 138.8 158.9 137.7 157.9 136.6 158.0 135.15 158.1 133.65 159.15 132.7 160.25 131.75 161.7 131.8 163.2 131.9 164.2 132.95 165.15 134.05 165.05 135.55" fill="url(#gradient1)" fill-rule="evenodd" stroke="none"/>
    <path d="M163.85 135.4 Q163.85 136.4 163.05 137.1 162.35 137.75 161.4 137.65 160.45 137.65 159.75 136.9 159.15 136.15 159.2 135.15 159.2 134.2 160.0 133.55 160.7 132.95 161.65 133.0 162.6 133.05 163.3 133.75 163.9 134.45 163.85 135.4" fill="url(#gradient2)" fill-rule="evenodd" stroke="none"/>
    <path d="M152.3 145.45 Q153.8 145.5 154.8 146.6 155.7 147.65 155.65 149.15 155.55 150.6 154.55 151.6 153.4 152.6 151.9 152.55 150.45 152.45 149.5 151.35 148.5 150.2 148.6 148.75 148.65 147.25 149.75 146.35 150.85 145.35 152.3 145.45" fill="url(#gradient3)" fill-rule="evenodd" stroke="none"/>
    <path d="M152.25 146.65 Q153.2 146.65 153.85 147.4 154.5 148.1 154.45 149.05 154.4 150.05 153.65 150.75 152.95 151.35 152.0 151.35 151.05 151.25 150.35 150.5 149.7 149.8 149.75 148.8 149.8 147.85 150.55 147.2 151.3 146.55 152.25 146.65" fill="url(#gradient4)" fill-rule="evenodd" stroke="none"/>
    <path d="M139.25 155.0 Q140.75 155.1 141.75 156.2 142.7 157.25 142.65 158.7 142.55 160.15 141.45 161.15 140.35 162.15 138.85 162.05 137.4 161.95 136.4 160.85 135.45 159.75 135.55 158.3 135.6 156.85 136.7 155.95 137.8 154.9 139.25 155.0" fill="url(#gradient5)" fill-rule="evenodd" stroke="none"/>
    <path d="M140.6 160.25 Q139.85 160.9 138.9 160.85 137.95 160.8 137.35 160.05 136.65 159.35 136.75 158.35 136.75 157.45 137.5 156.75 138.25 156.2 139.2 156.2 140.15 156.25 140.8 156.95 141.45 157.7 141.45 158.6 141.35 159.6 140.6 160.25" fill="url(#gradient6)" fill-rule="evenodd" stroke="none"/>
    <path d="M161.75 65.15 Q160.85 66.05 159.55 66.05 158.2 66.05 157.25 65.15 156.35 64.2 156.35 62.9 156.35 61.55 157.25 60.6 158.2 59.7 159.55 59.7 160.85 59.7 161.75 60.6 162.7 61.55 162.7 62.9 162.7 64.2 161.75 65.15" fill="#f06dff" fill-rule="evenodd" stroke="none"/>
    <path d="M159.55 64.65 Q158.8 64.65 158.25 64.15 157.7 63.7 157.7 63.05 157.7 62.35 158.25 61.85 158.8 61.4 159.55 61.4 160.25 61.4 160.8 61.85 161.35 62.35 161.35 63.05 161.35 63.7 160.8 64.15 160.25 64.65 159.55 64.65" fill="#4c0e62" fill-rule="evenodd" stroke="none"/>
    <path d="M131.15 144.55 Q131.5 144.3 131.9 144.4 132.3 144.45 132.55 144.8 L132.7 145.55 132.25 146.2 105.25 163.9 104.5 164.05 Q104.1 163.95 103.9 163.6 103.65 163.25 103.75 162.85 103.8 162.45 104.15 162.25 L131.15 144.55" fill="#4c0e62" fill-rule="evenodd" stroke="none"/>
    <path d="M132.85 144.45 Q133.05 144.85 132.9 145.25 L132.4 145.8 131.65 145.85 131.05 145.35 108.8 101.1 Q108.6 100.7 108.75 100.35 L109.25 99.75 110.05 99.7 110.6 100.2 132.85 144.45" fill="#4c0e62" fill-rule="evenodd" stroke="none"/>
    <path d="M159.75 44.25 Q159.9 43.85 160.3 43.7 L161.1 43.75 161.6 44.3 161.55 45.1 148.2 73.3 147.95 73.65 111.2 104.55 Q110.9 104.8 110.5 104.75 L109.8 104.4 Q109.5 104.1 109.55 103.7 L109.9 103.0 146.5 72.2 159.75 44.25" fill="#4c0e62" fill-rule="evenodd" stroke="none"/>
    <path d="M147.95 88.35 Q147.05 89.25 145.75 89.25 144.4 89.25 143.45 88.35 142.55 87.4 142.55 86.1 142.55 84.75 143.45 83.8 144.4 82.9 145.75 82.9 147.05 82.9 147.95 83.8 148.9 84.75 148.9 86.1 148.9 87.4 147.95 88.35" fill="#f06dff" fill-rule="evenodd" stroke="none"/>
    <path d="M145.75 87.85 Q145.0 87.85 144.45 87.35 143.9 86.9 143.9 86.25 143.9 85.55 144.45 85.05 145.0 84.6 145.75 84.6 146.45 84.6 147.0 85.05 147.55 85.55 147.55 86.25 147.55 86.9 147.0 87.35 146.45 87.85 145.75 87.85" fill="#4c0e62" fill-rule="evenodd" stroke="none"/>
    <path d="M145.75 87.85 Q145.0 87.85 144.45 87.35 143.9 86.9 143.9 86.25 143.9 85.55 144.45 85.05 145.0 84.6 145.75 84.6 146.45 84.6 147.0 85.05 147.55 85.55 147.55 86.25 147.55 86.9 147.0 87.35 146.45 87.85 145.75 87.85 Z" fill="none" stroke="#4c0e62" stroke-linecap="round" stroke-linejoin="round" stroke-width="1.0"/>
    <path d="M127.35 108.55 Q126.45 109.45 125.15 109.45 123.8 109.45 122.85 108.55 121.95 107.6 121.95 106.3 121.95 104.95 122.85 104.0 123.8 103.1 125.15 103.1 126.45 103.1 127.35 104.0 128.3 104.95 128.3 106.3 128.3 107.6 127.35 108.55" fill="#f06dff" fill-rule="evenodd" stroke="none"/>
    <path d="M125.15 108.05 Q124.4 108.05 123.85 107.55 123.3 107.1 123.3 106.45 123.3 105.75 123.85 105.25 124.4 104.8 125.15 104.8 125.85 104.8 126.4 105.25 126.95 105.75 126.95 106.45 126.95 107.1 126.4 107.55 125.85 108.05 125.15 108.05" fill="#4c0e62" fill-rule="evenodd" stroke="none"/>
    <path d="M110.1 151.75 Q109.2 152.65 107.9 152.65 106.55 152.65 105.6 151.75 104.7 150.8 104.7 149.5 104.7 148.15 105.6 147.2 106.55 146.3 107.9 146.3 109.2 146.3 110.1 147.2 111.05 148.15 111.05 149.5 111.05 150.8 110.1 151.75" fill="#f06dff" fill-rule="evenodd" stroke="none"/>
    <path d="M107.9 151.25 Q107.15 151.25 106.6 150.75 106.05 150.3 106.05 149.65 106.05 148.95 106.6 148.45 107.15 148.0 107.9 148.0 108.6 148.0 109.15 148.45 109.7 148.95 109.7 149.65 109.7 150.3 109.15 150.75 108.6 151.25 107.9 151.25" fill="#4c0e62" fill-rule="evenodd" stroke="none"/>
    <path d="M139.35 131.75 Q138.45 132.65 137.15 132.65 135.8 132.65 134.85 131.75 133.95 130.8 133.95 129.5 133.95 128.15 134.85 127.2 135.8 126.3 137.15 126.3 138.45 126.3 139.35 127.2 140.3 128.15 140.3 129.5 140.3 130.8 139.35 131.75" fill="#f06dff" fill-rule="evenodd" stroke="none"/>
    <path d="M137.15 131.25 Q136.4 131.25 135.85 130.75 135.3 130.3 135.3 129.65 135.3 128.95 135.85 128.45 136.4 128.0 137.15 128.0 137.85 128.0 138.4 128.45 138.95 128.95 138.95 129.65 138.95 130.3 138.4 130.75 137.85 131.25 137.15 131.25" fill="#4c0e62" fill-rule="evenodd" stroke="none"/>
  </g>
  <defs>
    <linearGradient gradientTransform="matrix(0.022, 0.0373, -0.0197, 0.0116, 78.2, 1.6)" gradientUnits="userSpaceOnUse" id="gradient0" spreadMethod="pad" x1="-819.2" x2="819.2">
      <stop offset="0.0" stop-color="#ffffff"/>
      <stop offset="1.0" stop-color="#e2e2e2"/>
    </linearGradient>
    <linearGradient gradientTransform="matrix(4.0E-4, -0.0043, -0.0043, -4.0E-4, 161.55, 135.35)" gradientUnits="userSpaceOnUse" id="gradient1" spreadMethod="pad" x1="-819.2" x2="819.2">
      <stop offset="0.0" stop-color="#a3a3a3"/>
      <stop offset="1.0" stop-color="#666666"/>
    </linearGradient>
    <linearGradient gradientTransform="matrix(-1.0E-4, 0.0029, 0.0029, 1.0E-4, 161.5, 135.25)" gradientUnits="userSpaceOnUse" id="gradient2" spreadMethod="pad" x1="-819.2" x2="819.2">
      <stop offset="0.0" stop-color="#ffffff"/>
      <stop offset="1.0" stop-color="#afafaf"/>
    </linearGradient>
    <linearGradient gradientTransform="matrix(4.0E-4, -0.0043, -0.0043, -4.0E-4, 152.15, 149.0)" gradientUnits="userSpaceOnUse" id="gradient3" spreadMethod="pad" x1="-819.2" x2="819.2">
      <stop offset="0.0" stop-color="#9c9c9c"/>
      <stop offset="1.0" stop-color="#585858"/>
    </linearGradient>
    <linearGradient gradientTransform="matrix(-1.0E-4, 0.0029, 0.0029, 1.0E-4, 152.05, 148.95)" gradientUnits="userSpaceOnUse" id="gradient4" spreadMethod="pad" x1="-819.2" x2="819.2">
      <stop offset="0.0" stop-color="#ffffff"/>
      <stop offset="1.0" stop-color="#878787"/>
    </linearGradient>
    <linearGradient gradientTransform="matrix(4.0E-4, -0.0043, -0.0043, -4.0E-4, 139.15, 158.5)" gradientUnits="userSpaceOnUse" id="gradient5" spreadMethod="pad" x1="-819.2" x2="819.2">
      <stop offset="0.0" stop-color="#9f9f9f"/>
      <stop offset="1.0" stop-color="#3f3f3f"/>
    </linearGradient>
    <linearGradient gradientTransform="matrix(-1.0E-4, 0.0029, 0.0029, 1.0E-4, 139.05, 158.45)" gradientUnits="userSpaceOnUse" id="gradient6" spreadMethod="pad" x1="-819.2" x2="819.2">
      <stop offset="0.0" stop-color="#ffffff"/>
      <stop offset="1.0" stop-color="#a1a1a1"/>
    </linearGradient>
  </defs>
</svg>
