<?xml version="1.0" encoding="UTF-8" standalone="no"?>
<svg xmlns:xlink="http://www.w3.org/1999/xlink" height="62.8px" width="56.5px" xmlns="http://www.w3.org/2000/svg">
  <g transform="matrix(1.0, 0.0, 0.0, 1.0, 2.15, -4.2)">
    <path d="M46.85 7.9 Q46.85 11.9 43.5 16.6 L42.65 17.7 40.55 20.05 42.1 21.45 42.95 22.35 Q44.0 22.15 45.15 21.4 47.75 19.7 51.1 15.35 L52.8 17.0 Q54.05 18.35 54.05 18.85 54.05 20.8 49.6 24.1 L47.75 25.45 46.05 26.5 Q47.25 28.4 47.95 30.5 L49.95 29.75 50.2 29.65 Q52.35 28.6 53.55 27.4 L53.95 29.3 54.35 31.05 Q54.35 32.8 52.45 34.05 L51.05 34.8 49.2 35.4 49.45 38.65 46.05 36.55 Q38.75 32.0 36.25 25.8 L33.75 18.6 32.6 15.45 35.0 16.4 Q36.95 15.6 39.2 12.8 L40.25 11.45 Q43.65 6.75 43.95 4.2 44.7 5.15 46.15 5.75 46.85 6.05 46.85 7.9" fill="#5b1b72" fill-rule="evenodd" stroke="none"/>
    <path d="M51.35 40.3 Q51.35 51.35 43.55 59.2 35.7 67.0 24.65 67.0 13.55 67.0 5.75 59.2 -2.15 51.35 -2.15 40.3 -2.15 29.15 5.75 21.35 13.55 13.5 24.65 13.5 35.7 13.5 43.55 21.35 51.35 29.15 51.35 40.3" fill="#5b1b72" fill-rule="evenodd" stroke="none"/>
  </g>
</svg>
