<?xml version="1.0" encoding="UTF-8" standalone="no"?>
<svg xmlns:xlink="http://www.w3.org/1999/xlink" height="51.5px" width="33.25px" xmlns="http://www.w3.org/2000/svg">
  <g transform="matrix(1.0, 0.0, 0.0, 1.0, 0.55, 22.6)">
    <path d="M23.65 27.4 Q20.3 28.9 15.6 28.9 10.85 28.9 7.45 27.4 4.15 25.9 4.15 23.8 4.15 21.65 7.45 20.15 10.85 18.7 15.6 18.7 20.3 18.7 23.65 20.15 27.0 21.65 27.0 23.8 27.0 25.9 23.65 27.4" fill="url(#gradient0)" fill-rule="evenodd" stroke="none"/>
    <path d="M21.4 24.0 L21.1 24.65 Q19.15 25.0 17.05 24.7 L16.9 24.0 Q16.8 23.2 17.05 22.4 L17.15 22.4 17.15 21.25 16.8 20.75 17.15 20.3 17.15 18.45 20.6 18.35 20.6 20.2 20.8 20.6 20.8 20.65 20.6 21.0 20.55 22.3 20.5 22.35 21.25 23.05 21.4 24.0" fill="#000000" fill-rule="evenodd" stroke="none"/>
    <path d="M17.05 22.4 L20.4 22.3 Q21.0 22.5 21.25 23.05 L21.4 24.0 21.1 24.65 Q19.15 25.0 17.05 24.7 L16.9 24.0 Q16.8 23.2 17.05 22.4" fill="#000000" fill-rule="evenodd" stroke="none"/>
    <path d="M21.6 11.85 L21.35 11.5 21.3 11.35 18.85 8.2 19.1 8.0 19.8 7.45 20.15 7.2 22.5 10.2 22.65 10.25 23.0 10.65 23.1 11.15 23.1 11.2 23.8 12.45 24.25 12.75 24.55 12.95 Q25.25 13.15 25.55 13.8 25.9 14.4 25.65 15.1 25.45 15.75 24.85 16.1 L23.55 16.2 22.55 15.35 Q22.2 14.8 22.4 14.15 L22.35 14.15 22.35 14.1 22.4 13.3 21.6 11.85" fill="#000000" fill-rule="evenodd" stroke="none"/>
    <path d="M13.15 8.2 L10.7 11.35 10.6 11.5 10.35 11.85 9.55 13.3 9.6 14.1 9.6 14.15 9.45 15.35 8.45 16.2 7.15 16.1 Q6.5 15.75 6.3 15.1 6.1 14.4 6.4 13.8 6.75 13.15 7.45 12.95 L7.4 12.95 7.75 12.75 8.15 12.45 8.85 11.2 8.85 11.15 8.95 10.65 9.3 10.25 9.5 10.2 11.8 7.2 12.15 7.45 12.85 8.0 13.15 8.2" fill="#000000" fill-rule="evenodd" stroke="none"/>
    <path d="M14.6 18.35 L14.6 20.15 14.95 20.65 14.6 21.1 14.6 22.25 14.7 22.25 Q15.0 23.05 14.9 23.9 L14.7 24.55 Q12.6 24.9 10.7 24.5 L10.35 23.9 Q10.25 23.45 10.5 22.95 10.75 22.4 11.25 22.2 L11.2 22.2 11.2 20.9 10.95 20.55 10.95 20.45 11.15 20.1 11.15 18.25 14.6 18.35" fill="#a2a2a2" fill-rule="evenodd" stroke="none"/>
    <path d="M14.6 18.4 L14.6 20.2 14.95 20.65 14.6 21.1 14.6 22.35 14.15 22.45 12.95 22.55 11.8 22.35 11.2 22.2 11.2 20.9 10.95 20.55 10.95 20.45 11.15 20.1 11.15 18.25 14.6 18.4" fill="#000000" fill-rule="evenodd" stroke="none"/>
    <path d="M10.35 23.9 Q10.25 23.45 10.5 22.95 10.75 22.35 11.35 22.2 L14.7 22.25 Q15.0 23.1 14.85 23.9 L14.7 24.55 Q12.6 24.9 10.7 24.5 L10.35 23.9" fill="#000000" fill-rule="evenodd" stroke="none"/>
    <path d="M20.35 4.7 L20.45 6.55 20.5 6.5 20.45 6.65 20.75 13.05 20.85 13.3 21.0 14.3 21.0 14.9 21.75 18.2 Q18.5 19.25 16.3 19.0 L16.3 17.75 15.55 17.75 15.45 18.9 Q13.35 19.4 10.45 18.15 10.65 16.6 11.0 14.95 L11.0 14.25 11.1 13.45 11.2 13.15 11.3 7.05 11.2 6.8 11.3 6.8 11.35 4.45 20.35 4.7" fill="#000000" fill-rule="evenodd" stroke="none"/>
    <path d="M16.95 -19.5 L16.95 -18.5 19.3 -18.1 20.0 -17.9 Q22.3 -17.2 24.5 -15.6 L26.55 -15.5 29.7 -15.05 30.0 -15.05 Q32.45 -14.1 32.65 -11.1 32.85 -8.75 31.75 -5.0 L31.8 -4.8 32.1 -3.6 32.3 -2.6 32.5 -0.5 32.4 -0.25 31.9 0.4 31.85 0.45 31.05 1.1 Q30.95 1.15 30.8 1.25 L30.85 1.4 30.85 1.85 Q30.7 2.6 29.85 3.4 L28.15 3.8 26.4 4.3 26.45 4.3 26.15 4.35 26.2 4.35 26.05 4.4 22.9 6.85 Q20.45 8.6 15.7 8.75 10.95 8.9 7.4 5.85 L5.75 4.15 3.8 3.6 3.8 3.55 2.85 3.35 2.25 3.25 Q1.4 2.45 1.25 1.65 L1.25 1.2 1.3 1.05 0.2 0.25 -0.3 -0.45 -0.4 -0.7 -0.2 -2.8 -0.1 -3.25 0.3 -5.0 0.3 -5.1 Q-1.05 -9.9 -0.25 -12.45 L-0.25 -12.5 Q0.35 -14.4 2.2 -15.05 L2.5 -15.1 2.55 -15.15 3.8 -15.5 4.55 -15.65 4.85 -15.7 5.75 -15.8 6.8 -15.9 7.45 -15.95 8.85 -16.8 Q10.65 -17.7 12.6 -18.15 L12.8 -18.2 14.9 -18.5 14.9 -19.5 14.7 -19.65 Q14.2 -20.2 14.2 -20.9 14.2 -21.6 14.7 -22.1 15.2 -22.6 15.9 -22.6 16.6 -22.6 17.1 -22.1 17.6 -21.6 17.6 -20.9 17.6 -20.2 17.1 -19.65 L16.95 -19.5" fill="#000000" fill-rule="evenodd" stroke="none"/>
    <path d="M6.8 -2.8 Q7.85 -3.8 9.3 -3.8 10.75 -3.8 11.8 -2.8 12.45 -2.15 12.7 -1.35 L12.85 -0.25 Q12.85 1.2 11.8 2.25 10.75 3.25 9.3 3.25 7.85 3.25 6.8 2.25 5.75 1.2 5.75 -0.25 5.75 -1.75 6.8 -2.75 L6.8 -2.8" fill="#ffffff" fill-rule="evenodd" stroke="none"/>
    <path d="M7.2 4.55 L7.25 5.2 Q7.25 6.05 6.65 6.7 6.05 7.3 5.15 7.3 4.25 7.3 3.65 6.7 3.05 6.05 3.05 5.2 3.05 4.3 3.65 3.7 4.25 3.05 5.15 3.05 6.05 3.05 6.65 3.7 L7.2 4.55" fill="#ffffff" fill-rule="evenodd" stroke="none"/>
    <path d="M8.6 2.3 L6.6 4.9 5.0 3.65 7.0 1.05 8.6 2.3" fill="#ffffff" fill-rule="evenodd" stroke="none"/>
    <path d="M26.5 3.35 L27.2 3.3 Q28.05 3.35 28.6 4.0 29.2 4.65 29.15 5.55 29.1 6.4 28.45 7.0 27.8 7.6 26.95 7.55 26.05 7.5 25.45 6.85 L25.45 6.8 Q24.85 6.15 24.95 5.3 25.0 4.4 25.65 3.85 L26.5 3.35" fill="#ffffff" fill-rule="evenodd" stroke="none"/>
    <path d="M25.5 5.5 L23.0 3.35 24.35 1.8 26.85 3.95 25.5 5.5" fill="#ffffff" fill-rule="evenodd" stroke="none"/>
    <path d="M25.15 -2.6 L25.2 -2.6 Q26.2 -1.55 26.2 -0.1 26.2 1.4 25.15 2.4 24.15 3.45 22.65 3.45 21.2 3.45 20.15 2.4 19.1 1.4 19.1 -0.1 L19.3 -1.15 Q19.55 -1.95 20.15 -2.6 21.2 -3.65 22.65 -3.65 24.15 -3.65 25.15 -2.6" fill="#ffffff" fill-rule="evenodd" stroke="none"/>
  </g>
  <defs>
    <radialGradient cx="0" cy="0" gradientTransform="matrix(3.0E-4, -0.0067, 0.0138, 4.0E-4, 15.6, 23.8)" gradientUnits="userSpaceOnUse" id="gradient0" r="819.2" spreadMethod="pad">
      <stop offset="0.0" stop-color="#000000" stop-opacity="0.6"/>
      <stop offset="1.0" stop-color="#000000" stop-opacity="0.0"/>
    </radialGradient>
  </defs>
</svg>
