<?xml version="1.0" encoding="UTF-8" standalone="no"?>
<svg xmlns:xlink="http://www.w3.org/1999/xlink" height="8.2px" width="28.95px" xmlns="http://www.w3.org/2000/svg">
  <g transform="matrix(1.0, 0.0, 0.0, 1.0, 0.3, -2.8)">
    <path d="M27.8 9.65 L27.8 9.7 28.0 9.65 28.2 9.65 28.25 9.85 28.4 9.85 28.3 9.7 27.6 9.25 27.6 9.8 27.65 9.8 27.7 9.65 27.8 9.65 M27.35 10.0 L27.35 9.9 27.3 9.95 27.35 10.0 27.35 10.05 27.4 10.15 27.45 10.15 27.5 10.15 27.6 10.1 27.6 10.05 27.6 9.95 27.6 9.9 27.6 9.85 27.6 9.8 27.5 9.85 27.35 9.9 27.4 9.75 27.3 9.9 27.3 9.95 27.25 9.95 27.15 10.1 27.05 10.15 27.1 10.25 27.15 10.35 27.2 10.3 27.25 10.3 27.25 10.25 27.3 10.25 27.3 10.2 27.35 10.05 M27.3 9.9 L27.25 9.95 27.05 10.05 27.05 10.15 27.05 10.2 27.1 10.25 M27.3 9.9 L27.3 9.75 27.4 9.75 27.4 9.55 27.55 9.75 27.6 9.8 M27.7 10.0 L27.75 10.05 27.85 10.05 27.9 10.05 27.85 9.8 27.8 9.7 27.65 9.8 27.8 9.85 27.7 10.0 27.65 9.95 27.65 10.05 27.7 10.0 M27.6 10.05 L27.65 10.05 27.7 10.05 27.75 10.05 M27.65 9.95 L27.6 9.95 M27.65 9.8 L27.6 9.85 M27.65 9.95 L27.6 9.9 M27.1 10.35 L26.95 10.45 26.9 10.45 26.95 10.5 27.05 10.6 27.05 10.5 27.2 10.35 27.15 10.35 27.1 10.35 M27.2 10.3 L27.2 10.35 27.25 10.3 27.3 10.25 27.35 10.25 27.3 10.2 27.35 10.2 27.4 10.2 27.4 10.15 M26.9 10.45 L26.85 10.5 26.65 10.8 27.05 10.8 27.05 10.6 27.2 10.7 27.3 10.7 27.2 10.35 27.45 10.55 27.35 10.25 27.25 10.3 M26.9 10.45 L26.85 10.4 26.85 10.5 M27.05 10.2 L26.85 10.05 26.85 10.4 27.05 10.2 M27.5 10.15 L27.6 10.15 27.6 10.1 M27.7 10.15 L27.7 10.2 27.8 10.2 27.8 10.15 27.7 10.15 27.6 10.15 27.6 10.2 27.7 10.2 27.7 10.3 27.8 10.2 27.85 10.15 27.9 10.15 27.9 10.1 27.85 10.1 27.8 10.15 27.8 10.1 27.7 10.05 M27.6 10.15 L27.55 10.2 27.6 10.2 M27.8 10.2 L27.8 10.25 27.8 10.3 27.75 10.4 27.7 10.5 27.9 10.15 M27.8 10.25 L27.75 10.4 M27.35 10.25 L27.35 10.2 M27.5 10.8 L27.55 10.7 27.4 10.8 27.5 10.8 M27.55 10.7 L27.5 10.65 27.45 10.75 27.4 10.8 27.25 11.0 27.05 11.0 27.05 10.8 27.4 10.8 M27.3 10.7 L27.5 10.65 27.5 10.6 27.45 10.55 M27.7 10.5 L27.7 10.55 27.65 10.55 27.65 10.6 27.6 10.65 27.6 10.7 27.55 10.7 27.55 10.75 27.7 10.8 27.8 10.8 28.05 10.7 28.4 10.5 28.5 10.45 28.5 10.4 28.25 10.3 28.1 10.5 28.0 10.5 28.05 10.2 27.9 10.1 27.9 10.05 27.95 10.05 Q28.1 9.9 28.25 9.85 L28.3 9.95 28.45 9.95 28.4 9.85 28.55 9.85 28.55 9.95 28.65 9.95 28.55 10.25 28.55 10.3 28.55 10.4 28.5 10.4 28.55 10.3 28.4 10.2 28.3 10.3 28.25 10.3 28.15 10.25 28.05 10.2 28.2 9.95 28.3 9.95 28.15 10.05 28.4 10.2 28.5 10.0 28.45 9.95 28.55 9.95 28.5 10.0 28.55 10.25 M27.55 10.7 L27.6 10.65 27.6 10.6 27.55 10.6 27.5 10.65 M27.7 10.5 L27.65 10.55 27.6 10.6 M27.65 10.5 L27.7 10.3 27.5 10.6 27.55 10.6 27.65 10.5 M27.55 10.2 L27.35 10.25 M27.55 10.2 L27.45 10.15 M27.6 10.15 L27.65 10.05 M28.4 10.5 L28.3 10.6 27.8 10.8 27.5 10.9 27.55 10.75 M27.9 10.1 L28.0 10.05 27.95 10.05 M27.85 10.05 L27.85 10.1 M27.8 10.15 L27.85 10.05 M0.35 2.8 L-0.05 2.95 -0.3 3.15 -0.2 3.3 -0.2 3.25 -0.15 3.35 -0.15 3.05 0.2 3.15 0.35 3.3 0.7 3.6 0.75 3.55 0.7 3.35 0.65 3.35 0.6 3.3 0.5 3.1 0.5 3.05 0.45 3.05 0.45 2.95 0.35 2.8 M0.5 3.05 L0.5 2.9 0.45 2.95 0.5 3.05 0.65 3.05 0.75 3.0 0.5 2.8 0.5 2.9 M0.75 3.0 L0.8 3.0 0.9 2.95 0.9 3.05 1.0 3.15 1.0 3.3 1.1 3.6 1.1 3.7 1.1 3.75 1.05 3.75 1.0 3.85 0.9 3.9 0.9 4.1 0.7 4.1 Q0.6 4.1 0.6 4.4 L0.65 4.4 1.0 4.15 1.1 4.1 1.2 4.0 1.2 4.1 Q1.2 4.35 1.1 4.1 L0.9 4.3 0.5 4.5 0.5 4.45 0.15 4.5 -0.15 4.4 -0.3 4.05 -0.3 3.95 -0.2 3.3 -0.15 3.4 -0.15 3.35 -0.05 3.5 0.05 3.3 0.1 3.2 0.2 3.15 0.05 3.3 0.05 3.45 0.2 3.6 0.4 3.65 0.65 3.6 0.7 3.6 0.75 3.6 0.75 3.55 0.8 3.55 0.85 3.65 0.9 3.65 0.95 3.55 0.9 3.5 0.85 3.4 0.8 3.35 0.75 3.35 0.7 3.35 M0.8 3.0 L0.75 3.05 0.85 3.15 0.9 3.05 1.0 3.3 1.0 3.35 0.95 3.35 1.0 3.45 0.95 3.5 0.95 3.55 1.1 3.7 M0.75 3.0 L0.75 3.05 0.7 3.2 0.85 3.15 0.95 3.35 0.9 3.35 0.9 3.45 0.85 3.4 0.85 3.3 0.8 3.3 0.8 3.25 0.75 3.35 0.7 3.3 0.55 3.15 0.5 3.1 M0.7 3.2 L0.75 3.35 M0.85 3.3 L0.8 3.25 M0.85 3.3 L0.9 3.35 0.85 3.4 M-0.05 3.5 L0.05 3.55 0.25 3.65 0.35 3.75 0.6 4.0 0.8 3.85 0.75 3.7 0.75 3.6 0.85 3.65 M0.8 3.85 L0.8 3.95 0.9 3.9 0.9 3.8 0.8 3.85 M0.9 3.65 L0.9 3.8 1.05 3.75 M-0.05 3.5 L0.1 3.75 0.15 3.8 0.25 3.65 M-0.05 3.5 L-0.1 3.5 -0.15 3.6 -0.15 3.95 0.0 3.85 0.15 3.8 0.45 4.1 0.45 4.05 0.35 3.75 M0.7 4.1 L0.6 4.0 0.5 4.1 0.45 4.1 0.45 4.2 0.35 4.15 0.35 4.2 0.5 4.45 0.6 4.4 M0.3 4.15 L0.35 4.15 0.15 4.0 0.25 4.1 0.3 4.15 M0.25 4.1 L0.0 4.0 -0.15 3.95 -0.3 3.95 -0.15 3.6 -0.15 3.4 -0.05 3.5 M0.0 4.0 L0.15 4.0 0.0 3.85 M0.5 3.05 L0.55 3.15 0.7 3.2" fill="none" stroke="#000000" stroke-linecap="round" stroke-linejoin="round" stroke-opacity="0.98039216" stroke-width="0.05"/>
  </g>
</svg>
