<?xml version="1.0" encoding="UTF-8" standalone="no"?>
<svg xmlns:xlink="http://www.w3.org/1999/xlink" height="12.0px" width="30.0px" xmlns="http://www.w3.org/2000/svg">
  <g transform="matrix(1.0, 0.0, 0.0, 1.0, 0.2, -10.15)">
    <path d="M28.55 20.7 L28.6 20.8 28.75 20.8 28.75 20.85 28.85 20.9 28.75 21.1 28.85 21.2 28.95 20.95 28.9 20.75 28.65 20.7 28.55 20.7 28.35 20.75 28.3 20.75 28.3 20.8 28.15 20.85 28.05 20.9 28.0 21.1 28.2 20.9 28.6 20.8 28.65 20.85 28.7 20.9 28.75 21.1 28.75 21.2 28.85 21.2 29.0 21.3 29.2 21.3 29.25 21.1 29.05 20.8 28.9 20.75 28.85 20.6 28.45 20.7 28.55 20.7 M28.55 20.8 L28.35 20.85 28.2 20.9 28.2 21.05 28.4 21.0 28.65 21.05 28.65 20.85 28.55 20.8 M28.1 20.75 L28.0 20.8 27.95 20.85 28.1 20.85 28.2 20.75 28.35 20.7 28.3 20.75 28.25 20.75 28.15 20.75 28.1 20.75 M28.0 20.8 L27.9 20.8 27.8 20.85 27.75 20.9 27.85 20.9 27.95 20.85 27.95 20.95 28.05 20.9 28.1 20.85 28.2 20.8 28.3 20.8 M28.35 20.75 L28.45 20.7 28.35 20.7 M28.2 21.25 L28.6 21.15 28.25 21.1 28.2 21.1 28.2 21.25 28.2 21.4 28.35 21.35 28.45 21.3 28.7 21.2 28.6 21.15 28.65 21.1 28.65 21.05 28.75 21.1 28.7 21.2 28.75 21.2 28.8 21.25 28.85 21.25 28.85 21.2 M28.2 21.05 L28.2 21.1 28.1 21.1 28.05 21.2 28.0 21.3 28.2 21.25 M27.95 20.95 L27.8 21.15 27.8 21.2 27.85 21.2 27.95 21.15 28.0 21.1 28.0 21.15 28.1 21.1 28.2 21.05 M27.85 21.2 L27.9 21.25 27.95 21.15 28.0 21.15 28.0 21.2 28.0 21.3 28.0 21.35 28.05 21.5 28.1 21.5 28.3 21.45 28.35 21.35 28.5 21.35 28.7 21.2 M28.1 21.6 L28.15 21.6 28.1 21.55 28.1 21.6 28.2 21.75 28.25 21.7 28.25 21.65 28.2 21.6 28.15 21.6 28.25 21.55 28.3 21.45 28.45 21.4 28.75 21.2 M28.05 21.5 L28.05 21.55 28.1 21.55 28.05 21.5 28.0 21.5 27.95 21.45 27.95 21.5 28.05 21.55 28.05 21.65 28.1 21.6 M27.95 21.5 L27.9 21.55 27.9 21.65 27.95 21.65 28.05 21.65 28.1 21.75 27.9 21.75 27.8 21.75 27.7 21.75 27.7 21.55 27.5 21.4 27.5 20.9 27.7 21.05 27.7 21.0 27.7 20.9 27.6 20.9 27.6 20.8 27.7 20.9 27.75 20.9 M27.9 21.55 L27.85 21.65 27.9 21.65 27.9 21.75 M27.95 21.45 L27.9 21.45 27.9 21.5 27.95 21.5 M27.9 21.55 L27.9 21.5 27.7 21.4 27.7 21.55 27.85 21.65 27.8 21.75 M28.0 21.35 L28.0 21.4 28.0 21.5 M28.0 21.3 L27.9 21.3 28.0 21.4 27.95 21.45 M27.85 21.3 L27.8 21.2 27.7 21.25 27.9 21.45 27.85 21.3 M28.8 21.25 L28.25 21.55 28.25 21.65 28.3 21.65 28.45 21.55 28.75 21.4 28.85 21.25 28.85 21.3 28.9 21.35 29.0 21.3 29.05 21.4 29.0 21.6 29.1 21.55 29.15 21.5 29.15 21.45 29.2 21.3 29.5 21.3 29.25 21.7 29.3 21.7 29.8 21.5 29.8 21.55 29.55 21.7 29.15 21.85 29.25 21.7 28.95 21.8 28.8 21.85 28.75 21.85 28.6 21.95 28.2 22.15 28.1 22.15 28.2 21.75 28.45 21.85 28.55 21.85 28.45 21.8 28.3 21.75 28.25 21.7 M27.9 21.3 L27.9 21.25 M28.3 21.65 L28.6 21.8 28.75 21.75 28.9 21.65 28.95 21.6 28.6 21.6 28.55 21.65 28.45 21.65 28.6 21.6 28.7 21.5 28.75 21.4 28.9 21.35 28.95 21.5 28.95 21.6 29.0 21.6 28.9 21.65 28.75 21.85 28.6 21.8 28.55 21.85 28.7 21.85 28.75 21.85 M28.45 20.7 L28.55 20.6 28.35 20.7 M29.15 21.5 L29.15 21.55 29.1 21.55 28.95 21.8 M27.8 21.15 L27.7 21.05 27.7 21.2 27.8 21.2 M27.8 21.15 L27.75 21.0 27.7 21.0 27.75 20.95 27.7 20.9 M27.85 20.9 L27.75 20.95 27.75 21.0 27.95 20.95 M27.7 21.2 L27.7 21.25 27.7 21.3 27.7 21.4 27.6 21.4 27.5 21.4 M27.7 21.3 L27.6 21.4 M0.6 10.15 L0.85 10.35 0.9 10.35 1.0 10.3 1.0 10.4 1.1 10.5 1.1 10.65 1.2 10.95 1.2 11.05 1.2 11.1 1.15 11.1 1.1 11.2 1.0 11.2 1.0 11.45 0.8 11.45 Q0.7 11.45 0.7 11.75 L1.1 11.5 1.2 11.45 1.3 11.35 1.3 11.45 Q1.3 11.7 1.2 11.45 L1.0 11.65 0.6 11.85 0.6 11.8 0.25 11.85 -0.05 11.75 -0.2 11.4 -0.2 11.25 -0.1 10.65 -0.2 10.5 0.05 10.3 0.45 10.15 0.55 10.3 0.6 10.25 0.6 10.15 M0.6 10.25 L0.6 10.4 0.75 10.35 0.85 10.35 0.85 10.4 0.9 10.35 M0.55 10.3 L0.6 10.4 0.65 10.5 0.8 10.55 0.85 10.4 0.95 10.45 1.0 10.4 1.1 10.65 1.1 10.7 1.05 10.7 1.1 10.8 1.0 10.9 1.2 11.05 1.15 11.1 1.0 11.15 1.0 11.2 0.9 11.25 0.9 11.2 0.7 11.35 0.8 11.45 M-0.1 10.65 L-0.1 10.6 -0.05 10.7 -0.05 10.4 0.25 10.5 0.35 10.45 0.3 10.5 0.45 10.65 0.8 10.9 0.85 10.9 0.8 10.7 0.75 10.7 0.7 10.6 0.6 10.45 0.6 10.4 0.55 10.4 0.55 10.3 M0.3 10.5 L0.25 10.5 0.2 10.55 0.15 10.65 0.3 10.5 M0.9 11.2 L0.85 11.05 0.85 10.95 0.8 10.9 0.75 10.95 0.5 11.0 0.3 10.9 0.15 10.8 0.15 10.65 0.05 10.85 0.15 10.9 0.35 11.0 0.45 11.1 0.7 11.35 0.6 11.45 0.55 11.45 0.55 11.55 0.45 11.5 0.6 11.8 0.7 11.75 M0.9 10.6 L0.85 10.7 0.9 10.7 0.95 10.7 0.95 10.65 0.9 10.65 0.9 10.6 0.95 10.65 1.0 10.7 1.05 10.7 0.95 10.5 0.95 10.45 0.8 10.55 0.85 10.7 0.8 10.65 0.65 10.5 0.6 10.45 M0.85 10.7 L0.8 10.7 M0.95 10.7 L1.0 10.7 1.0 10.8 0.95 10.75 1.0 10.85 1.0 10.9 1.0 11.0 1.0 11.15 0.9 11.2 M0.9 10.7 L0.95 10.75 0.95 10.7 M1.0 11.0 L0.95 11.0 0.85 10.95 0.85 10.9 0.9 10.9 0.95 11.0 M0.0 10.85 L-0.05 10.95 -0.05 11.25 0.1 11.2 0.25 11.15 0.2 11.05 0.05 10.85 0.0 10.85 M0.25 11.15 L0.25 11.1 0.35 11.0 M-0.05 10.95 L-0.2 11.25 0.1 11.3 0.2 11.35 0.25 11.35 0.1 11.2 M0.45 11.5 L0.25 11.35 0.35 11.45 0.4 11.5 0.45 11.5 M0.25 11.15 L0.55 11.45 0.55 11.4 0.45 11.1 M0.2 11.35 L0.35 11.45 M-0.05 10.75 L0.05 10.85 -0.05 10.7 -0.05 10.75 -0.1 10.65 M-0.05 10.95 L-0.05 10.75" fill="none" stroke="#000000" stroke-linecap="round" stroke-linejoin="round" stroke-opacity="0.98039216" stroke-width="0.05"/>
  </g>
</svg>
