<?xml version="1.0" encoding="UTF-8" standalone="no"?>
<svg xmlns:xlink="http://www.w3.org/1999/xlink" height="3.15px" width="10.3px" xmlns="http://www.w3.org/2000/svg">
  <g transform="matrix(1.0, 0.0, 0.0, 1.0, -10.75, -21.65)">
    <path d="M19.8 21.85 L19.8 22.1 19.8 22.2 19.9 22.5 20.25 21.95 20.25 22.9 20.15 23.0 20.15 22.65 20.05 23.0 20.05 23.1 19.75 22.7 19.65 22.5 19.6 22.6 19.6 22.55 Q19.5 22.55 19.55 22.65 L19.6 22.8 19.5 22.8 19.5 22.25 19.6 22.45 19.6 22.3 19.7 22.25 19.7 22.3 19.75 22.4 19.8 22.4 19.8 22.2 M21.05 24.25 L21.0 24.35 21.05 24.45 21.05 24.25 M12.65 21.95 L12.7 22.1 12.65 22.15 12.65 21.95 M11.0 21.85 L10.9 21.75 10.9 21.7 11.0 21.65 11.0 21.85 11.0 22.05 11.1 22.15 11.15 22.0 11.1 21.95 11.2 21.9 11.2 21.85 11.2 21.75 11.25 21.85 11.4 21.95 11.55 22.0 11.6 22.0 11.9 21.95 11.95 21.9 12.15 21.65 12.15 21.85 11.95 22.1 11.6 22.25 11.35 22.15 11.15 22.0 11.2 21.9 M11.55 22.0 L11.7 22.05 11.95 21.95 11.95 21.9 12.15 21.85 M11.25 21.85 L11.25 21.9 11.3 22.05 11.55 22.0 M11.2 21.85 L11.25 21.85 M11.1 23.0 L11.2 23.25 11.3 23.35 11.3 23.45 11.4 23.45 11.2 23.0 11.1 23.0 M11.25 23.4 L11.15 23.35 11.0 23.35 10.75 23.3 10.75 23.35 11.2 23.45 11.25 23.4 11.3 23.35 11.15 23.35 M11.3 23.45 L11.2 23.45 M11.25 23.4 L11.3 23.45 M13.6 24.55 L13.3 24.15 13.0 23.85 13.0 23.95 13.1 24.1 13.15 24.2 13.2 24.25 13.3 24.35 13.3 24.45 13.3 24.55 13.25 24.55 13.5 24.8 13.3 24.7 13.2 24.7 12.95 24.8 12.95 24.7 12.75 24.7 12.65 24.65 12.7 24.55 12.65 24.55 12.6 24.45 12.55 24.35 12.8 24.35 12.85 24.35 12.8 24.3 12.55 23.95 12.55 23.75 Q12.75 23.75 12.95 24.0 L13.1 24.1 M14.6 22.2 L14.65 22.05 14.55 22.05 14.35 22.4 14.05 22.7 14.05 22.4 13.9 22.75 14.4 22.65 14.6 22.25 14.55 22.3 14.55 22.15 14.6 22.25 14.6 22.2 M14.05 21.95 L14.05 22.25 14.05 22.4 M13.3 22.15 L13.3 22.25 13.4 22.5 13.6 22.5 13.6 22.4 13.4 22.15 13.3 22.15 13.3 22.05 13.4 22.15 13.5 22.2 13.6 22.25 13.6 22.05 13.7 22.35 13.7 22.25 13.75 22.25 13.75 22.3 13.85 22.7 13.9 22.75 13.75 22.9 13.7 22.5 13.6 22.5 13.5 22.7 13.3 22.7 13.3 22.25 M13.7 22.35 L13.7 22.4 13.7 22.5 13.75 22.5 13.75 22.3 M13.7 22.5 L13.75 22.6 13.75 22.5 M13.15 24.25 L13.2 24.3 13.2 24.25 13.15 24.25 13.15 24.2 12.95 24.15 13.05 24.35 13.2 24.35 13.2 24.3 13.3 24.45 13.25 24.4 13.25 24.45 13.3 24.45 M12.95 24.35 L12.85 24.25 12.85 24.35 12.95 24.35 13.05 24.35 13.1 24.4 13.2 24.45 13.15 24.45 13.2 24.55 13.25 24.45 13.3 24.55 M12.8 24.35 L12.8 24.4 12.85 24.45 12.9 24.4 12.85 24.35 M13.3 24.7 L13.2 24.65 12.95 24.65 12.95 24.7 13.2 24.7 M12.7 24.55 L12.85 24.45 12.95 24.45 12.9 24.4 12.95 24.35 13.1 24.4 13.15 24.45 13.0 24.45 13.05 24.5 13.2 24.55 13.25 24.55 M12.75 24.4 L12.75 24.45 12.8 24.4 12.75 24.4 M13.2 24.55 L13.1 24.55 13.2 24.65 13.3 24.65 13.3 24.7 M13.05 24.5 L13.1 24.55 12.7 24.55 M13.25 24.4 L13.2 24.35 M12.95 24.45 L13.0 24.45 12.95 24.35 M12.95 24.45 L13.05 24.5 M17.6 21.75 L17.7 21.65 17.75 21.75 17.8 21.75 17.8 21.8 17.9 21.85 17.9 22.05 17.95 22.05 18.0 22.05 18.05 22.05 18.05 22.1 18.15 22.1 18.15 21.65 18.3 21.85 18.35 22.15 18.3 22.15 18.3 22.2 18.1 22.25 18.0 22.2 18.05 22.15 17.95 22.15 17.95 22.1 17.9 22.15 17.9 22.2 17.9 22.25 17.8 22.1 17.7 22.25 17.65 22.15 17.6 22.15 17.6 21.95 17.6 21.75 M19.7 22.3 L19.7 22.4 19.75 22.4 19.65 22.5 19.6 22.45 19.6 22.55 19.65 22.5 19.7 22.3 M17.8 21.8 L17.75 21.75 17.7 21.75 17.8 22.1 17.85 22.0 17.8 21.8 M17.9 21.85 L17.85 22.0 17.85 22.05 17.9 22.2 M17.95 22.05 L17.95 22.1 18.0 22.05 M17.95 22.05 L17.9 22.15 17.9 22.05 M18.05 22.1 L18.05 22.15 18.15 22.15 18.15 22.1 18.3 22.15 M18.55 23.95 L18.45 24.0 18.45 24.05 18.6 24.0 18.65 24.0 18.65 23.95 18.55 23.95 M18.45 23.9 L18.55 23.9 18.75 23.95 18.75 24.05 18.65 24.05 18.65 24.25 18.95 24.25 18.95 24.05 18.85 23.9 18.85 23.85 18.45 23.85 18.45 23.9 18.35 23.85 18.35 23.95 18.4 23.95 18.45 23.95 18.45 23.9 M18.75 23.95 L18.7 23.95 18.7 24.0 18.65 24.0 18.65 24.05 18.45 24.05 18.5 24.15 18.55 24.2 18.65 24.25 18.55 24.25 18.55 24.2 18.35 24.05 18.3 24.0 18.15 23.85 18.35 23.85 18.45 23.85 M18.35 24.05 L18.45 24.05 18.4 23.95 18.35 24.0 18.35 24.05 M18.35 24.0 L18.3 24.0 18.35 23.95 18.35 24.0 M18.45 24.0 L18.45 23.95" fill="none" stroke="#000000" stroke-linecap="round" stroke-linejoin="round" stroke-opacity="0.98039216" stroke-width="0.05"/>
  </g>
</svg>
