<?xml version="1.0" encoding="UTF-8" standalone="no"?>
<svg xmlns:xlink="http://www.w3.org/1999/xlink" height="22.4px" width="20.6px" xmlns="http://www.w3.org/2000/svg">
  <g transform="matrix(1.0, 0.0, 0.0, 1.0, -5.75, -6.6)">
    <path d="M10.45 9.85 L10.35 10.3 10.35 10.4 10.05 10.2 10.05 10.5 9.95 10.2 9.95 10.3 9.85 10.3 9.85 10.05 9.95 10.2 9.95 10.05 9.85 9.95 Q9.8 9.8 9.7 10.3 L9.55 10.25 9.4 10.2 9.4 10.5 9.7 10.55 10.0 10.6 10.9 10.35 11.7 9.95 12.0 10.3 12.25 10.8 12.6 10.5 12.95 10.2 13.55 10.85 13.95 11.45 14.0 11.5 14.05 11.55 14.5 10.95 14.9 10.3 15.15 10.9 15.4 11.55 15.65 11.1 16.05 10.6 16.35 10.5 16.65 10.4 16.75 10.3 17.0 10.2 17.4 10.4 17.6 10.8 17.65 10.8 17.7 10.9 18.05 10.3 18.2 10.5 18.45 10.9 18.7 10.3 19.1 9.75 19.55 10.15 20.1 10.4 Q20.4 10.4 20.75 10.05 L21.1 9.65 21.55 10.0 22.25 10.15 M25.35 13.9 L25.2 14.05 25.2 13.9 25.15 14.3 25.5 14.25 25.5 14.2 25.5 14.15 25.45 13.9 25.4 13.7 25.35 13.9 M25.95 14.1 L25.9 13.55 25.7 13.95 25.8 14.2 26.0 14.6 25.95 14.1 M25.5 14.25 L25.6 14.15 25.7 13.95 25.6 13.85 25.5 14.2 M25.5 14.25 L25.4 14.6 25.3 14.6 25.2 14.7 25.15 14.6 25.1 14.6 25.0 14.8 25.0 14.6 24.55 14.4 24.45 14.6 24.15 14.5 24.05 14.45 24.05 14.55 23.95 14.9 23.95 15.0 24.05 15.45 23.95 15.45 23.95 15.0 M22.9 13.75 L22.75 13.45 22.55 13.45 22.5 13.75 22.75 14.2 22.9 13.8 22.9 13.75 M22.9 13.8 L22.95 13.8 22.95 13.75 22.9 13.8 M22.95 13.8 L22.95 13.9 23.05 14.05 23.05 14.25 23.15 14.0 22.95 13.65 22.95 13.75 M23.55 13.65 L23.15 13.85 23.15 14.0 23.15 14.05 23.3 14.45 23.45 14.25 23.65 14.0 23.7 13.7 23.55 13.65 M23.7 13.7 L23.75 13.75 23.7 13.65 23.7 13.7 M24.0 13.75 L23.95 13.7 23.95 13.75 24.0 13.75 24.4 14.05 24.25 13.75 23.95 13.25 23.95 13.7 M23.95 13.75 L23.95 14.1 24.05 14.15 24.0 13.8 23.95 13.75 23.8 13.85 23.9 14.05 23.95 14.1 23.95 14.2 24.0 14.45 24.05 14.45 24.05 14.15 24.05 13.85 24.0 13.8 24.0 13.75 M23.75 13.75 L23.75 13.9 23.8 13.85 23.75 13.75 M23.9 14.05 L23.8 14.0 23.8 14.4 23.85 14.4 23.9 14.45 23.95 14.2 23.9 14.05 M23.65 14.0 L23.55 14.4 23.55 14.45 23.65 14.5 23.8 14.45 23.8 14.4 23.7 13.95 23.65 14.0 M23.95 14.9 L23.9 14.9 23.85 14.7 23.65 14.5 23.55 14.65 23.5 14.7 23.4 15.1 23.2 15.1 23.2 15.0 23.15 15.0 23.05 14.75 23.05 14.8 22.95 14.5 22.95 14.45 22.9 14.3 22.9 14.25 22.85 14.5 22.75 14.5 22.75 14.2 22.45 14.7 22.4 14.6 22.35 14.8 22.3 14.35 22.25 14.3 22.25 14.6 22.15 14.6 22.15 14.05 22.1 13.65 22.15 13.65 22.15 13.55 22.25 14.15 22.25 14.2 22.3 14.35 22.4 14.6 22.45 14.15 22.5 13.75 M24.05 14.55 L24.0 14.45 23.9 14.45 23.9 14.6 23.8 14.4 M23.8 14.0 L23.7 13.95 23.75 13.9 23.8 14.0 M23.05 14.25 L22.95 13.9 22.95 14.05 23.0 14.45 23.05 14.3 23.05 14.25 M22.9 14.25 L22.85 14.2 22.9 14.2 22.9 14.1 22.95 13.8 M22.9 14.2 L22.9 14.25 M22.95 14.5 L23.0 14.5 23.0 14.45 22.95 14.45 22.95 14.4 22.9 14.3 M23.05 14.75 L23.05 14.65 23.0 14.5 23.05 14.8 M23.2 15.1 L23.5 14.7 23.55 14.45 23.4 14.4 23.4 14.6 23.35 14.5 23.3 14.5 23.3 14.45 23.15 14.7 23.2 15.0 M23.05 14.75 L23.15 14.7 23.05 14.3 23.05 14.65 M22.95 14.05 L22.95 14.4 M23.8 14.45 L23.85 14.7 23.9 14.8 23.95 14.9 M25.0 14.6 L24.95 14.35 24.9 14.3 24.7 14.25 24.6 14.15 24.55 14.4 24.45 14.35 24.45 14.4 24.55 14.4 24.55 14.15 24.4 14.05 24.45 14.35 24.25 14.25 24.05 14.15 M24.95 14.3 L24.9 14.15 24.65 13.55 24.6 14.0 24.6 14.05 24.65 13.95 24.9 14.3 24.95 14.3 25.15 14.3 25.1 14.55 25.15 14.6 25.3 14.6 25.5 14.25 M25.0 14.6 L25.1 14.6 25.1 14.55 24.95 14.35 24.95 14.3 M24.6 14.15 L24.6 14.05 24.55 14.05 24.55 14.15 24.6 14.15 M21.3 14.25 L21.3 14.15 20.9 14.6 20.85 14.7 20.85 14.9 21.1 14.55 21.3 14.25 M20.15 13.75 L20.05 14.5 20.15 14.55 20.15 14.7 20.55 14.4 20.85 13.95 20.85 14.7 20.55 15.2 20.05 14.7 19.8 14.25 M22.25 14.15 L22.15 13.65 22.15 14.05 22.25 14.3 22.25 14.2 M24.05 18.05 L23.95 17.9 24.05 19.05 Q24.2 19.9 24.95 19.75 L24.95 19.65 24.85 19.65 24.75 18.55 24.65 19.4 24.55 17.95 24.45 17.95 24.15 18.4 24.15 18.5 24.1 18.25 24.05 18.05 M24.45 17.95 L24.45 17.9 24.65 17.45 25.0 17.9 25.1 18.35 25.1 18.45 25.05 19.0 24.95 19.65 24.95 18.8 24.75 18.55 24.75 18.5 24.7 18.35 24.7 18.3 24.65 18.15 24.7 18.05 24.65 17.85 24.75 17.85 24.75 18.35 24.95 18.7 24.95 18.8 25.1 18.45 M24.75 18.35 L24.75 18.45 24.75 18.5 M24.7 18.05 L24.7 18.3 24.75 18.35 M26.35 23.1 L26.1 22.9 M7.5 6.6 L7.5 7.0 7.55 7.75 7.65 7.75 7.85 7.0 7.95 7.35 8.05 7.75 8.3 7.3 8.45 6.9 8.45 7.45 8.7 7.3 8.85 7.25 8.9 7.1 8.9 7.2 8.75 7.55 8.85 7.3 8.85 7.25 8.9 7.2 M9.0 13.65 L8.7 14.0 8.75 14.05 8.7 14.3 8.65 14.3 8.55 14.4 8.55 14.45 8.9 14.2 8.9 14.15 8.95 14.05 9.1 13.75 9.1 13.65 9.0 13.65 M8.9 14.15 L9.05 13.9 9.1 13.75 9.15 14.0 9.3 14.15 9.2 14.15 8.95 14.75 8.95 14.8 8.9 14.9 8.8 14.9 8.4 15.0 7.8 14.75 7.6 14.6 7.2 14.75 7.2 14.9 7.1 14.95 6.85 15.0 6.8 15.0 6.7 15.05 6.6 15.1 6.6 15.05 6.6 15.0 6.5 14.9 6.4 14.75 6.35 14.3 6.6 14.25 6.65 14.2 Q6.45 14.2 6.35 14.05 L6.15 13.75 6.05 14.1 6.05 13.75 6.15 13.75 6.55 13.8 6.65 14.2 6.9 13.75 7.4 13.1 7.45 13.65 7.5 13.6 7.45 13.7 7.5 14.3 7.65 14.05 7.75 13.85 8.05 13.35 8.15 13.35 7.95 13.9 7.9 14.25 8.0 14.2 8.15 14.15 8.2 13.85 8.4 13.85 8.45 13.75 8.6 13.85 8.7 13.95 8.7 14.0 8.55 14.4 8.45 14.35 8.45 14.5 8.55 14.45 8.55 14.5 8.65 14.5 8.65 14.85 8.8 14.9 8.95 14.8 M7.95 13.85 L7.65 14.05 7.5 14.4 7.5 14.3 7.45 14.45 7.55 14.5 7.9 14.0 7.95 13.9 7.95 13.85 M8.4 13.85 L8.55 13.85 8.6 13.85 8.5 14.05 8.45 14.35 8.35 14.25 8.35 14.3 8.35 14.5 8.45 14.8 8.55 14.85 8.55 14.5 M8.55 13.85 L8.5 13.9 8.5 14.05 8.4 14.1 8.25 14.25 8.35 14.3 M8.5 13.9 L8.25 14.2 8.25 14.25 8.2 14.25 8.15 14.25 8.3 14.45 8.35 14.5 8.35 14.65 8.4 14.8 8.45 14.8 8.45 14.85 8.55 14.9 8.55 14.85 8.65 14.85 8.65 14.9 8.55 14.9 8.45 14.9 8.45 14.85 8.3 14.85 8.15 14.75 8.1 14.75 7.75 14.6 7.7 14.55 7.6 14.6 7.5 14.5 7.4 14.6 7.4 14.5 7.4 14.45 7.3 14.4 7.4 14.4 7.45 13.75 7.35 13.9 7.2 14.3 7.1 14.6 7.1 14.65 7.2 14.7 7.2 14.75 7.0 14.8 7.1 14.6 6.5 14.6 6.55 14.8 6.8 14.8 6.8 15.0 6.55 14.9 6.6 15.0 M8.15 14.25 L8.05 14.25 8.05 14.3 8.15 14.25 8.15 14.15 M7.9 14.25 L7.85 14.3 7.85 14.35 7.75 14.4 8.05 14.3 8.05 14.7 8.1 14.75 M7.55 14.5 L7.6 14.5 7.75 14.4 7.8 14.35 7.85 14.35 M7.7 14.55 L7.6 14.5 M7.7 14.55 L8.05 14.3 M8.35 14.65 L8.35 14.8 8.15 14.75 M8.2 14.25 L8.25 14.2 8.4 13.85 M9.7 14.15 L9.8 14.5 9.7 14.5 9.65 14.35 9.6 14.25 9.6 14.2 9.7 14.15 9.7 14.5 M8.9 14.2 L8.85 14.4 9.05 14.05 9.05 13.9 M9.1 13.75 L8.95 14.75 M7.35 13.9 L7.3 13.95 7.1 14.4 7.1 14.3 7.3 13.95 7.35 13.8 7.35 13.9 M7.45 13.7 L7.45 13.75 M7.45 13.65 L7.45 13.7 M7.4 14.5 L7.45 14.45 7.4 14.45 7.4 14.4 7.45 14.45 7.5 14.5 7.55 14.5 M7.4 14.5 L7.5 14.5 M6.6 14.25 L6.65 14.25 6.65 14.2 6.7 14.25 6.65 14.25 6.6 14.3 6.6 14.25 M6.55 14.8 L6.55 14.9 6.5 14.9 6.5 14.8 6.55 14.8 M8.5 17.25 L8.45 17.25 8.45 17.1 8.65 17.1 8.65 17.25 8.5 17.25 8.65 17.3 8.65 17.35 8.75 17.15 8.75 17.3 8.8 17.3 8.85 17.2 8.85 16.9 8.9 16.9 8.9 17.1 8.85 17.35 8.85 17.55 8.75 17.35 8.65 17.45 8.65 17.35 8.75 17.35 8.75 17.3 M8.75 17.35 L8.85 17.35 8.85 17.2 8.9 17.1 M6.35 22.9 L6.15 22.6 5.95 22.8 5.8 22.25 5.75 21.6 5.8 20.8 Q5.85 20.5 6.05 20.35 6.2 20.2 6.35 20.15 L6.4 20.6 6.45 20.7 6.45 20.35 6.5 20.35 6.6 20.35 6.65 20.4 6.7 20.5 6.7 20.8 6.9 21.3 6.85 21.5 6.8 21.55 6.7 21.55 6.7 21.9 6.7 22.45 6.65 22.15 6.5 22.35 6.15 22.6 6.1 22.6 5.95 22.25 6.5 22.25 6.5 21.95 6.45 21.85 6.35 21.4 6.35 21.35 6.25 21.1 6.05 20.35 6.15 20.35 6.25 20.5 6.45 20.9 6.45 20.7 6.5 20.8 6.5 20.45 6.5 20.35 6.55 20.5 6.6 20.6 6.7 20.8 6.7 21.1 6.65 21.05 6.7 21.55 6.6 21.25 6.55 21.55 6.7 21.55 M6.35 21.35 L6.3 21.15 6.3 20.9 6.25 20.5 M6.55 20.5 L6.6 20.85 6.6 20.7 6.6 20.6 M6.55 20.5 L6.5 20.45 M6.45 20.95 L6.5 21.05 6.5 20.9 6.5 20.8 6.45 20.9 6.45 20.95 6.45 21.1 6.5 21.4 6.5 21.05 6.6 21.2 6.6 21.0 6.5 20.9 M6.6 20.85 L6.6 20.9 6.6 21.0 6.65 21.05 6.6 20.7 M6.6 21.25 L6.6 21.2 6.5 21.55 6.55 21.55 6.5 21.75 6.65 22.15 6.7 21.9 M6.45 21.1 L6.45 21.55 6.5 21.65 6.5 21.75 6.45 21.6 6.45 21.75 6.5 21.75 6.5 21.95 M6.35 21.4 L6.4 21.45 6.35 21.2 6.3 21.15 M6.45 21.85 L6.45 21.75 6.4 21.5 6.4 21.45 M6.45 21.6 L6.4 21.5 M6.45 21.55 L6.45 21.6 M6.5 21.55 L6.5 21.4 M6.45 21.55 L6.35 21.2 6.3 20.9 M17.05 14.05 L17.0 14.05 17.0 14.0 17.05 14.05 17.05 14.25 17.1 14.6 17.2 14.75 17.35 14.4 17.25 14.8 17.3 14.85 17.5 15.0 18.05 13.95 17.75 14.75 17.6 15.1 17.65 15.2 18.05 14.65 18.75 13.75 18.35 14.95 18.25 15.25 18.65 14.7 18.45 15.2 18.5 15.15 18.7 14.9 18.75 14.85 18.75 14.8 18.8 14.8 18.85 14.4 18.95 14.4 19.0 14.65 19.1 13.35 19.1 13.45 19.15 13.55 19.3 13.7 19.3 13.75 19.3 13.8 19.4 14.3 19.35 14.85 19.3 15.35 19.2 15.35 19.2 14.2 19.1 14.9 19.0 14.9 18.95 15.95 18.85 16.05 18.5 15.7 18.35 15.6 17.95 16.15 17.95 16.05 18.1 15.65 18.05 15.65 18.05 15.55 17.8 15.85 17.85 15.4 17.7 15.25 17.65 15.25 17.6 15.35 17.4 15.65 17.15 16.1 16.7 16.5 16.2 16.05 16.05 16.05 Q15.7 15.85 15.2 14.7 L15.2 14.35 15.15 14.3 14.85 14.65 14.45 14.9 14.45 14.15 13.85 15.25 13.75 15.35 13.7 15.35 13.6 15.25 13.45 15.25 13.4 15.2 13.4 15.15 13.35 15.2 13.1 15.35 13.3 14.6 13.3 14.55 13.2 14.05 13.3 14.2 13.3 14.25 13.4 14.25 13.45 14.3 13.6 14.25 13.85 14.5 13.85 14.85 13.85 15.15 13.85 15.25 13.65 15.25 13.6 15.25 13.6 14.8 13.5 14.8 13.4 15.15 13.3 14.6 M19.2 14.2 L19.2 14.05 19.3 13.85 19.3 13.8 M19.3 13.75 L19.15 13.55 M17.85 15.3 L17.85 15.4 18.0 15.45 18.05 15.45 17.95 15.35 17.85 15.3 17.9 15.0 17.7 15.2 17.7 15.25 17.85 15.3 M18.25 15.3 L18.1 15.45 18.15 15.45 18.2 15.45 18.25 15.3 18.25 15.25 M18.05 15.45 L18.1 15.45 17.95 15.35 M18.75 14.85 L18.8 14.8 18.85 14.8 18.85 15.45 18.75 15.55 18.75 15.2 18.5 15.7 M18.45 15.2 L18.3 15.55 18.35 15.6 18.5 15.3 18.7 14.9 M18.45 15.2 L18.2 15.45 18.15 15.5 18.3 15.55 18.25 15.65 18.1 15.65 18.15 15.5 18.15 15.45 M19.0 14.9 L19.0 14.8 19.0 14.65 M19.2 14.2 L19.3 13.85 M15.15 14.3 L14.75 13.45 14.8 13.45 15.5 14.15 15.4 13.75 15.5 13.75 15.9 14.15 15.9 13.95 16.15 14.35 16.15 14.25 16.45 14.25 16.5 14.35 16.55 13.75 16.65 13.85 16.75 14.65 16.95 14.9 17.0 15.0 17.0 14.5 17.05 14.55 17.05 14.5 17.05 14.45 17.05 14.25 M15.85 14.55 L15.85 14.5 15.75 14.4 15.5 14.2 15.75 14.8 16.05 14.85 16.0 14.75 15.9 14.6 15.85 14.55 M16.15 14.5 L15.9 14.15 16.0 14.75 16.1 14.85 16.2 14.9 16.15 14.8 16.15 14.6 16.15 14.5 16.15 14.35 16.3 14.85 16.3 14.9 16.5 14.95 16.5 14.6 16.5 14.35 16.75 14.65 16.75 14.7 16.75 14.95 17.0 15.05 17.0 15.0 17.05 14.55 17.1 14.6 17.05 14.5 M15.5 14.2 L15.4 14.15 15.2 14.15 15.2 14.35 15.95 15.7 16.2 16.05 16.25 16.05 16.3 15.85 16.25 15.85 16.05 15.4 15.5 14.7 15.6 14.8 15.75 14.8 16.05 15.4 16.3 15.75 16.1 15.05 16.05 14.85 16.1 14.85 16.1 14.9 16.2 15.0 16.2 14.9 16.3 14.9 16.15 14.6 M15.5 14.2 L15.5 14.15 15.75 14.4 M16.1 14.9 L16.2 15.05 16.2 15.0 M16.25 15.15 L16.35 15.55 16.35 15.35 16.25 15.15 16.2 15.05 16.35 15.15 16.3 14.9 M16.35 15.35 L16.4 15.8 16.45 15.75 16.45 15.35 16.35 15.15 16.35 15.35 M16.5 14.95 L16.65 15.55 16.75 15.45 16.75 14.95 16.5 14.95 M17.05 15.1 L17.0 15.05 17.0 15.1 17.05 15.1 17.1 15.05 17.0 15.05 M17.3 14.85 L17.3 15.0 17.3 15.1 17.45 15.15 17.5 15.05 17.5 15.0 17.6 15.1 17.55 15.2 17.65 15.25 17.65 15.2 17.7 15.2 17.65 15.25 17.4 15.65 17.4 15.55 17.55 15.2 17.45 15.15 17.35 15.4 17.25 15.6 17.0 16.15 17.0 16.05 17.05 15.75 17.0 15.8 16.9 15.9 16.55 16.3 16.55 16.25 16.9 15.9 17.0 15.65 17.1 15.2 17.05 15.1 16.75 15.75 16.75 15.65 16.65 15.55 16.45 15.75 16.45 15.85 16.4 15.85 16.35 15.95 16.3 15.85 16.3 15.75 16.35 15.55 16.35 15.8 16.4 15.8 16.4 15.85 16.35 15.85 16.3 15.85 16.35 15.8 16.35 15.85 M17.15 15.05 L17.2 14.8 17.25 14.8 17.2 14.75 17.1 15.0 17.1 15.05 17.15 15.05 17.2 15.1 17.2 14.95 17.25 14.8 M17.1 15.0 L17.1 14.9 17.0 15.0 M17.2 15.1 L17.3 15.1 17.25 15.25 17.2 15.35 17.25 15.5 17.35 15.4 M17.15 15.05 L17.1 15.1 17.1 15.2 17.15 15.2 17.2 15.1 M17.05 15.75 L17.15 15.25 17.15 15.2 M17.2 15.35 L17.15 15.25 M17.1 15.1 L17.1 15.05 M17.1 14.9 L17.1 14.6 M17.25 15.5 L17.25 15.6 M17.05 15.75 L17.25 15.5 M20.0 17.55 L20.0 18.15 19.9 18.15 19.75 17.55 19.7 17.55 19.65 17.85 19.6 18.25 19.5 18.25 19.4 17.45 19.7 17.55 19.7 17.45 19.7 17.35 19.75 17.55 20.0 17.55 M18.05 15.45 L18.05 15.55 18.1 15.45 M13.45 14.3 L13.3 14.5 13.3 14.25 M11.85 13.9 L11.8 14.05 11.8 14.1 11.85 14.25 11.95 14.4 11.95 14.6 12.1 14.8 12.2 14.7 12.15 14.7 12.15 13.85 12.25 13.85 12.35 14.0 12.35 14.2 12.35 14.4 12.45 14.4 12.45 14.7 12.2 14.7 12.15 14.8 12.25 14.9 12.55 14.55 12.6 14.45 12.45 14.0 Q12.3 13.5 11.9 13.65 L11.85 13.9 M12.65 14.6 L12.65 14.35 12.6 14.45 12.65 14.6 M12.2 14.7 L12.25 14.4 12.35 14.4 12.3 14.55 12.2 14.7 M11.8 14.1 L11.8 14.2 11.8 14.35 11.95 14.6 11.95 14.75 12.0 14.85 12.1 14.8 12.15 14.8 12.05 14.9 12.0 14.85 11.95 14.9 11.95 15.0 11.9 15.0 11.7 14.45 11.65 14.3 11.5 14.15 11.5 14.05 11.65 14.3 11.8 14.5 11.85 14.6 11.8 14.35 11.7 14.05 11.8 14.05 M11.95 14.75 L11.95 14.9 11.85 14.6 11.95 14.75 M12.95 17.75 L13.0 17.9 13.1 17.75 13.1 17.85 13.05 18.1 13.1 18.15 13.2 17.85 13.3 17.95 13.3 18.2 13.35 18.2 13.4 18.15 13.45 18.2 13.5 18.2 12.95 17.65 12.95 17.75 12.95 17.85 12.95 18.0 13.0 17.9 13.05 18.1 13.0 18.25 13.05 18.25 13.1 18.15 13.1 18.25 13.3 18.2 13.3 18.25 13.35 18.2 13.45 18.2 13.5 18.25 13.5 18.2 13.6 18.2 13.7 18.15 13.75 18.05 13.85 18.05 13.9 18.25 14.25 17.95 14.25 19.1 14.15 19.3 14.05 19.3 14.0 19.0 13.95 18.8 13.85 18.8 13.65 19.5 13.5 20.35 13.4 20.3 13.3 20.25 13.15 19.95 12.85 19.75 12.4 19.85 12.05 19.95 12.05 19.85 12.4 19.05 12.25 18.6 12.25 18.5 12.45 18.95 12.85 18.15 12.95 17.85 M12.85 18.15 L12.95 18.0 12.95 18.25 13.0 18.25 12.9 18.4 12.75 18.85 12.95 18.45 13.0 18.35 13.05 18.25 13.1 18.25 13.25 18.5 13.3 18.25 13.4 18.6 13.6 18.45 13.5 18.25 13.55 18.25 13.6 18.35 13.6 18.2 M12.95 18.45 L13.0 18.5 13.1 19.35 13.1 19.3 13.1 18.8 13.25 18.5 13.3 18.6 13.4 18.6 13.65 18.8 13.7 18.7 13.6 18.45 13.65 18.35 13.7 18.15 13.75 18.15 13.85 18.35 13.9 18.25 13.95 18.4 13.95 18.8 13.85 18.35 13.7 18.7 13.7 18.8 13.7 18.95 13.7 19.05 13.6 19.45 13.3 19.85 13.1 19.85 12.65 19.35 12.65 19.45 12.55 19.4 12.55 19.25 12.4 19.05 12.45 18.95 12.5 18.95 12.55 19.25 12.65 19.35 12.85 18.15 M13.4 18.6 L13.4 18.7 13.4 18.75 13.45 19.15 13.65 18.8 13.7 18.95 13.65 19.1 13.6 19.4 13.5 19.4 13.45 19.15 13.1 19.85 13.1 19.4 13.0 19.55 13.0 18.95 12.95 18.45 M13.4 18.7 L13.2 19.1 13.1 19.3 M13.1 19.35 L13.1 19.4 M12.05 23.65 L11.95 23.6 11.95 23.65 12.05 23.65 11.95 23.35 11.95 23.6 M16.45 20.15 L17.05 20.45 17.1 20.45 17.1 20.55 17.2 21.0 17.1 21.5 17.1 21.65 16.85 22.25 16.8 22.2 16.75 22.3 16.65 22.3 16.55 21.85 16.45 21.95 16.35 21.95 16.25 21.35 16.2 21.6 16.15 21.65 16.05 22.0 16.05 21.8 16.05 21.7 16.05 21.4 16.05 21.1 16.15 20.8 16.2 20.8 16.35 20.55 16.45 20.15 M16.35 20.55 L16.3 20.7 16.25 20.95 16.25 21.0 16.35 21.0 16.5 21.45 16.55 21.6 16.55 21.55 16.6 21.1 16.65 20.5 16.75 20.5 16.75 20.35 16.8 20.5 16.85 20.5 17.05 20.45 17.1 20.55 17.1 21.5 17.0 21.7 16.8 22.2 16.55 21.8 16.55 21.85 M16.25 20.95 L16.2 21.05 16.2 21.15 16.25 21.05 16.25 21.0 16.4 21.45 16.55 21.8 16.55 21.6 16.6 21.75 16.7 21.55 16.7 21.5 16.75 20.5 16.8 20.5 16.85 20.55 16.85 20.6 16.9 20.8 16.9 21.85 16.85 21.9 16.75 22.05 16.75 21.4 16.7 21.5 M16.2 21.05 L16.15 21.15 16.15 21.3 16.2 21.15 16.2 21.2 16.25 21.35 16.25 21.3 16.25 21.05 M16.05 21.4 L16.15 21.15 16.15 21.1 16.05 21.1 M16.2 21.6 L16.15 21.3 16.05 21.8 M16.05 21.7 L16.1 21.4 16.15 21.15 M16.25 20.95 L16.2 20.8 16.2 21.05 M16.15 21.1 L16.15 20.8 M16.85 20.55 L16.75 21.4 16.8 21.2 16.85 20.6 M16.6 21.75 L16.65 21.95 16.7 21.55 M16.55 21.8 L16.6 21.75 M19.2 22.3 L19.25 22.6 19.3 22.6 19.3 22.5 19.3 22.3 19.2 22.3 M19.3 22.7 L19.2 22.9 19.2 23.15 19.3 22.75 19.3 22.7 19.3 22.6 M19.3 22.7 L19.25 22.65 19.25 22.6 18.75 22.6 18.65 23.35 18.45 24.15 18.45 24.65 18.65 24.15 18.85 23.7 18.85 23.55 18.9 23.35 19.0 23.3 19.1 23.3 19.2 23.15 19.2 23.7 19.25 23.9 19.3 24.65 19.2 24.65 19.2 24.15 19.0 23.95 18.85 24.8 18.8 25.0 18.85 25.1 18.8 25.15 18.75 25.25 18.8 25.0 M19.3 22.75 L19.3 22.9 19.3 23.0 19.3 23.45 19.5 24.55 19.5 24.45 19.65 24.05 19.7 23.6 19.55 22.95 19.3 22.5 M18.85 24.8 L18.95 23.85 18.85 23.7 18.95 23.55 19.0 23.65 19.0 23.45 19.0 23.35 19.0 23.3 M19.0 23.35 L19.1 23.3 19.2 23.7 19.2 24.1 19.3 24.25 19.2 24.15 19.2 24.1 19.1 23.9 19.0 23.75 19.0 23.95 18.95 23.85 19.0 23.65 19.0 23.75 M14.35 28.05 L14.15 28.05 13.8 28.2 13.85 28.2 13.95 28.15 14.35 28.05 M14.05 28.45 L13.8 28.55 14.0 28.8 14.0 28.85 14.45 28.85 14.55 28.85 14.55 28.65 14.15 28.35 13.85 28.2 13.65 28.3 13.5 28.3 13.3 28.4 12.95 28.55 13.95 28.45 14.05 28.45 M14.0 28.85 L14.2 28.9 14.45 28.9 14.45 28.85 M14.0 28.85 L13.0 28.8 12.75 28.85 12.75 28.9 13.15 28.95 13.6 29.0 14.05 28.95 14.45 28.9 M13.65 28.3 L13.8 28.2 13.75 28.15 13.45 28.3 13.5 28.3 M13.75 28.15 L13.7 28.15 13.4 28.2 13.1 28.35 13.3 28.35 13.4 28.3 13.45 28.3 M13.3 28.35 L12.95 28.45 12.65 28.55 12.95 28.55 12.55 28.75 13.0 28.8 13.5 28.65 13.8 28.55 M13.75 28.15 L14.15 27.95 13.4 27.95 13.05 28.15 12.65 28.45 12.95 28.45" fill="none" stroke="#000000" stroke-linecap="round" stroke-linejoin="round" stroke-opacity="0.98039216" stroke-width="0.05"/>
  </g>
</svg>
