<?xml version="1.0" encoding="UTF-8" standalone="no"?>
<svg xmlns:xlink="http://www.w3.org/1999/xlink" height="12.85px" width="43.2px" xmlns="http://www.w3.org/2000/svg">
  <g transform="matrix(1.0, 0.0, 0.0, 1.0, 2.6, -11.45)">
    <path d="M29.8 18.55 L29.8 18.25 29.75 18.5 29.8 18.55 29.9 18.7 29.9 18.5 29.95 18.65 30.05 18.55 30.15 18.95 30.45 18.9 30.65 18.75 30.6 18.4 30.65 18.65 30.7 18.45 30.7 18.85 30.7 18.95 30.7 19.15 30.7 19.2 30.7 19.35 30.6 19.3 30.6 19.5 29.9 18.95 29.9 19.2 29.8 19.2 29.7 19.2 29.65 19.35 29.65 19.2 29.5 19.2 29.5 19.15 29.45 19.1 29.4 19.1 29.4 18.65 29.4 18.55 29.5 18.7 29.5 18.75 29.5 18.85 29.65 18.85 29.65 18.8 29.65 18.4 29.75 18.5 29.65 18.8 M27.25 12.9 L27.5 13.0 27.8 13.05 27.8 12.75 M23.2 21.65 L23.3 22.0 23.35 21.95 23.35 21.75 23.5 21.75 23.6 20.7 23.75 20.7 23.75 21.5 23.5 21.75 23.9 21.75 23.9 21.9 23.9 22.3 24.0 22.45 23.9 22.45 23.9 22.55 23.7 22.45 23.55 22.45 23.6 22.55 23.5 22.45 23.35 22.45 23.1 22.25 22.9 22.1 22.7 22.15 22.7 21.2 22.7 21.1 22.75 21.2 22.8 21.1 23.1 21.1 23.2 21.65 M22.7 21.2 L22.75 21.2 23.05 21.7 23.2 21.9 23.3 22.0 23.45 22.15 23.55 22.15 23.5 22.05 23.35 22.05 23.35 21.95 23.45 21.9 23.5 21.75 23.5 22.05 23.6 22.1 23.9 21.9 M23.55 22.25 L23.7 22.45 23.9 22.45 23.9 22.3 23.7 22.2 23.6 22.1 23.55 22.15 23.55 22.25 23.45 22.15 23.35 22.15 23.3 22.0 23.25 22.0 23.5 22.45 23.55 22.45 23.55 22.25 M23.05 21.7 L23.1 21.8 23.25 22.0 23.0 22.1 22.9 22.1 22.8 22.05 23.0 22.1 M23.05 21.7 L22.7 21.2 M29.8 18.8 L29.8 19.1 29.85 19.05 29.85 18.95 29.9 18.75 29.9 18.7 29.8 18.8 29.8 18.55 M29.9 18.75 L30.0 18.85 30.05 18.85 30.0 18.7 29.95 18.65 29.95 18.7 29.9 18.7 M29.8 19.2 L29.8 19.1 29.7 19.2 29.65 19.2 29.65 18.85 29.5 19.2 M29.8 19.2 L29.85 19.05 29.9 18.95 29.9 18.75 M30.6 19.3 L30.3 19.1 30.2 19.0 30.15 18.95 30.05 18.95 30.05 18.85 30.15 18.95 M29.5 18.85 L29.45 18.8 29.5 18.75 29.45 18.65 29.4 18.55 M29.5 19.15 L29.45 18.95 29.4 18.65 M29.65 18.85 L29.8 18.8 M30.3 22.15 L31.0 22.15 31.1 22.3 Q31.3 22.05 31.75 21.95 L32.45 21.9 32.55 21.9 32.75 21.9 Q33.7 21.9 34.6 22.45 L34.65 22.45 34.75 22.05 Q35.45 22.1 35.85 22.8 L35.95 22.6 35.95 22.55 35.95 21.9 36.15 22.1 36.2 22.45 36.0 22.85 35.95 22.85 35.95 22.95 35.1 23.7 33.45 24.2 Q32.9 24.2 32.4 23.65 L32.1 23.35 32.05 23.35 32.05 23.55 31.95 23.6 31.8 23.65 31.5 23.4 31.4 23.25 31.4 23.2 31.35 23.2 31.2 23.25 30.85 23.2 30.75 23.15 30.3 23.75 30.25 23.3 30.2 22.85 30.25 22.4 30.3 22.15 M35.7 19.6 L35.4 19.45 35.25 19.3 35.25 19.35 35.15 19.2 35.15 19.15 35.0 18.95 35.15 19.1 35.25 19.15 35.6 19.25 35.8 19.25 36.6 19.1 36.5 19.2 35.8 19.25 M35.15 19.1 L35.15 19.15 35.25 19.3 35.25 19.15 M30.7 18.85 L30.65 18.65 30.65 18.75 30.65 18.8 30.7 18.95 30.6 19.2 30.7 19.2 M30.6 19.2 L30.6 19.3 M31.1 22.3 L31.4 22.75 31.6 23.1 31.75 22.9 31.8 22.9 31.8 22.85 31.85 22.75 31.9 22.7 31.9 22.65 31.95 22.7 32.05 22.7 32.05 22.95 32.05 23.3 32.1 23.35 32.45 23.3 32.85 22.45 33.4 23.1 33.85 23.35 Q34.25 23.35 34.5 22.8 L33.85 22.5 32.55 21.9 M32.05 22.95 L31.95 22.7 31.9 22.7 31.9 23.05 32.05 23.3 32.05 23.35 31.9 23.35 31.95 23.6 M31.75 22.9 L31.65 23.35 31.85 23.35 31.9 23.35 31.9 23.05 31.8 22.85 31.85 22.6 Q32.1 21.95 32.45 21.9 M31.9 22.7 L31.8 22.85 M30.8 23.0 L30.6 22.95 30.7 23.1 30.75 23.15 30.8 23.0 31.0 22.45 31.1 22.3 M30.8 23.0 L31.2 23.15 31.4 23.2 31.55 23.15 31.6 23.1 31.65 23.35 31.4 23.25 M31.2 23.15 L31.25 23.15 31.35 23.2 M34.65 22.45 L34.5 22.8 35.2 23.1 35.3 23.1 35.0 22.8 34.65 22.45 M35.75 22.95 L35.3 23.1 35.55 23.35 35.75 23.0 35.75 22.95 35.8 22.95 35.85 22.8 35.9 22.9 35.95 22.85 35.95 22.6 M35.95 22.95 L35.9 22.9 35.8 22.95 M35.95 22.55 L36.1 22.55 36.0 22.85 M30.6 19.2 L30.2 19.0 M-0.65 13.65 L-1.4 13.3 -1.4 13.2 -0.65 13.65 -0.55 13.7 -0.45 13.75 0.9 14.0 0.95 13.4 0.6 13.3 0.45 13.35 0.15 13.6 -0.05 13.75 -0.05 13.55 -0.2 13.6 -0.1 13.0 -0.1 12.95 -0.35 13.75 -0.45 13.6 -0.45 11.85 -0.35 11.85 -0.2 12.05 -0.2 12.0 0.05 11.65 0.35 11.45 0.45 11.7 0.5 11.75 0.8 12.1 1.0 12.1 1.1 12.2 1.1 11.9 1.05 11.65 M-0.2 12.05 L0.05 12.5 0.1 12.55 0.55 12.15 0.55 12.05 0.5 11.75 0.65 12.0 0.7 12.1 0.8 12.1 0.8 12.15 0.95 12.45 1.0 12.25 1.0 12.1 M1.0 12.25 L1.0 12.6 1.05 12.3 1.1 12.2 1.3 12.3 1.4 12.1 1.4 12.35 1.85 12.6 2.6 13.2 2.45 13.3 2.2 13.3 Q1.55 13.3 1.4 12.35 L1.3 12.3 1.0 12.6 1.0 12.65 0.95 13.4 1.15 13.55 1.65 13.75 1.65 13.8 1.8 13.85 1.45 14.0 1.0 14.0 0.9 14.0 0.85 14.4 -0.15 13.95 -0.55 13.7 M0.55 12.15 L0.75 12.5 0.85 12.5 0.7 12.1 0.55 12.15 M3.05 19.45 L3.1 19.1 3.1 18.95 2.85 18.4 3.35 18.3 3.8 18.15 3.95 18.3 4.05 18.7 4.15 18.6 4.35 18.55 4.6 18.4 4.55 18.65 4.65 18.75 5.25 18.95 5.35 18.55 5.4 18.0 5.85 17.7 5.8 17.5 5.95 17.5 5.85 17.7 M0.1 12.55 L0.65 12.8 0.75 12.8 0.8 12.75 0.95 12.45 1.0 12.6 0.8 12.75 M-0.1 13.0 L0.05 12.7 0.05 12.65 0.05 12.5 -0.05 12.5 -0.1 12.95 -0.2 12.9 -0.2 12.05 M0.05 12.65 L0.1 12.55 M-0.1 13.0 L0.0 13.05 0.05 12.7 M0.0 13.05 L0.2 13.05 0.75 12.8 M-0.05 13.55 L0.0 13.1 0.0 13.05 M0.45 13.35 L0.15 13.45 -0.05 13.55 M4.05 18.7 Q3.8 18.85 3.7 19.2 L3.95 19.6 4.35 19.1 4.55 18.65 4.35 18.55 M3.1 18.95 L3.1 18.6 3.2 19.05 3.25 19.1 3.65 19.35 3.65 19.15 3.5 18.9 3.4 18.85 3.4 18.7 3.5 18.9 3.55 18.9 3.65 19.1 3.65 19.15 3.7 19.2 3.65 19.35 3.65 19.9 3.25 19.25 3.2 19.05 3.1 18.95 M2.2 22.95 L2.35 22.95 2.4 23.05 2.7 23.3 2.85 23.5 2.85 23.55 3.0 23.6 3.4 23.9 3.25 23.95 3.25 24.05 2.7 23.9 2.35 23.5 2.35 24.05 1.7 23.8 1.65 23.8 1.25 23.9 0.4 24.05 Q0.2 24.05 -0.05 23.85 L-0.1 23.9 -0.4 23.65 -0.45 23.65 -0.55 23.65 -0.6 23.65 -1.35 23.6 -1.65 23.9 Q-2.2 24.4 -2.45 24.3 L-2.6 22.95 -2.6 22.2 -2.2 21.75 -1.55 22.15 -1.8 21.65 Q-1.05 21.7 -0.6 22.15 L-0.55 22.2 -0.25 22.7 0.35 22.45 0.7 22.1 0.75 22.05 0.65 22.0 -0.55 21.8 -0.65 21.8 Q-1.8 21.55 -2.35 21.1 L-2.35 20.8 -0.8 21.4 -0.55 21.5 0.65 22.0 0.85 22.05 1.0 22.05 1.0 23.75 1.6 23.75 1.65 23.75 1.4 23.25 1.9 23.1 1.95 23.25 2.05 23.25 2.6 23.65 2.6 23.5 2.45 23.2 2.2 22.95 M0.7 22.1 L0.25 22.7 -0.2 23.25 -0.25 22.7 -0.3 22.7 -0.55 22.65 -1.4 22.25 -1.55 22.15 -1.0 22.85 -0.55 23.3 -0.4 23.35 0.65 23.75 0.7 23.75 0.85 23.75 Q0.65 22.8 0.85 22.05 L0.75 22.05 M1.0 23.75 L0.85 23.9 0.85 23.75 1.0 23.75 M-0.4 23.65 Q-0.25 23.7 -0.05 23.85 L0.05 23.75 0.45 23.75 0.65 23.75 M1.65 23.75 L1.9 23.55 1.95 23.25 1.4 23.25 M1.65 23.75 L1.65 23.8 1.9 23.55 M2.6 23.5 L2.7 23.5 2.5 23.25 2.4 23.05 M2.6 23.5 L2.8 23.6 2.7 23.5 2.85 23.55 2.85 23.65 2.8 23.6 M16.8 18.7 L16.8 18.0 17.2 18.35 17.6 18.55 17.75 18.55 17.7 18.45 17.65 18.35 17.35 18.15 17.75 18.15 17.7 18.45 M40.6 22.55 L39.85 22.3 M-0.55 23.3 L-0.85 23.2 -2.35 22.45 -2.45 22.45 -1.45 23.55 -1.35 23.6 -1.05 23.35 -0.55 23.55 -0.45 23.65" fill="none" stroke="#000000" stroke-linecap="round" stroke-linejoin="round" stroke-opacity="0.98039216" stroke-width="0.05"/>
  </g>
</svg>
