<?xml version="1.0" encoding="UTF-8" standalone="no"?>
<svg xmlns:xlink="http://www.w3.org/1999/xlink" height="21.55px" width="27.85px" xmlns="http://www.w3.org/2000/svg">
  <g transform="matrix(1.0, 0.0, 0.0, 1.0, -2.9, -3.65)">
    <path d="M25.8 6.05 L25.8 6.9 26.1 6.6 26.2 6.7 26.6 5.85 26.2 5.85 25.8 6.05 25.8 5.8 25.6 5.75 Q25.45 5.75 25.35 5.95 L25.25 6.3 25.7 6.1 25.8 6.05 M26.2 6.7 L26.35 6.85 26.5 6.9 26.9 6.55 27.05 6.3 27.0 6.1 26.95 5.85 26.6 5.85 M29.3 3.8 L29.15 3.95 29.2 4.1 29.25 4.0 29.45 3.75 29.3 3.8 M29.45 3.75 L29.5 3.75 29.5 3.65 29.45 3.75 M29.25 4.2 L29.35 4.1 29.35 4.0 29.25 4.15 29.25 4.2 Q29.35 4.6 29.05 5.3 L28.35 6.3 28.3 6.15 27.9 6.5 27.55 6.35 27.45 6.3 27.15 6.4 27.1 6.35 27.05 6.3 Q27.1 6.2 27.2 6.2 L27.45 6.3 27.7 6.1 28.0 5.55 28.1 5.55 28.1 5.95 28.2 5.75 28.3 5.75 28.3 6.15 28.35 6.1 28.65 5.35 29.0 4.6 29.2 4.3 29.15 4.3 29.2 4.1 29.25 4.15 29.2 4.3 29.25 4.2 M28.1 5.95 L28.1 6.0 28.0 6.3 27.9 6.3 28.0 6.1 28.1 5.95 M22.15 6.1 L22.15 6.2 22.35 6.4 22.55 6.9 22.25 6.4 22.15 6.2 22.1 6.15 22.0 6.15 21.9 6.2 21.85 6.6 21.8 6.9 21.6 6.9 21.35 6.6 21.3 6.6 21.1 6.45 20.95 6.35 20.95 6.4 20.9 6.35 20.85 6.3 20.85 6.2 20.95 6.35 20.95 6.1 21.35 6.6 21.55 6.2 Q21.65 6.0 21.8 6.0 21.95 6.0 22.1 6.15 L22.15 6.1 22.1 5.9 22.25 6.1 22.55 6.25 22.65 6.5 22.7 6.3 22.75 6.15 22.75 6.25 23.05 6.5 23.2 6.7 23.35 6.55 23.35 6.5 23.4 6.2 23.55 6.25 23.7 6.3 23.7 6.4 23.55 6.85 23.5 7.15 23.5 6.8 23.6 6.4 23.35 6.55 23.3 6.8 23.2 6.7 23.15 6.75 23.15 7.0 23.05 7.0 22.85 6.5 22.75 6.25 22.75 6.95 22.25 6.1 22.15 6.1 M24.95 6.1 L24.9 6.25 25.1 6.3 25.2 6.3 25.0 5.65 24.95 6.1 M25.2 6.3 L25.25 6.3 M24.9 6.25 L24.75 6.1 24.75 6.6 24.85 6.6 24.85 6.5 24.9 6.25 M26.2 6.7 L25.9 7.1 25.8 7.1 25.8 6.9 25.75 7.0 25.5 7.35 25.2 6.95 24.85 6.5 M18.45 6.15 L18.4 6.1 18.45 6.1 18.45 6.15 18.5 6.15 18.9 6.45 19.3 6.8 19.3 6.3 19.4 6.3 19.5 7.15 19.65 7.3 19.7 7.25 Q19.8 6.8 20.0 6.6 L20.05 6.75 20.05 6.8 20.1 6.9 20.1 6.95 20.15 7.1 20.15 7.2 20.15 7.25 20.25 7.75 20.25 7.65 20.4 7.15 20.45 6.7 20.55 6.6 20.45 7.1 20.4 7.15 20.4 7.55 20.15 8.1 20.15 8.15 19.9 8.4 19.2 7.55 18.9 6.9 18.9 6.95 18.85 7.2 18.35 7.2 18.25 7.05 18.15 7.2 18.1 7.15 18.05 7.2 18.05 7.4 17.95 7.55 17.95 7.45 17.9 7.45 17.85 7.4 17.8 7.75 17.7 7.75 17.5 6.95 17.45 6.75 17.1 6.1 17.2 6.1 17.5 6.6 17.65 6.8 17.85 7.05 17.9 6.8 17.9 6.55 M22.45 10.3 L22.35 10.75 22.45 10.8 22.45 10.85 22.55 10.5 22.65 10.5 22.55 10.3 22.35 10.05 22.0 10.6 21.7 11.35 21.7 11.45 22.05 10.9 22.15 10.75 22.15 10.7 22.2 10.7 22.35 10.4 22.35 10.35 22.45 10.3 M22.2 10.7 L22.35 10.7 22.35 10.75 22.3 10.95 22.25 11.5 22.3 11.75 22.45 11.25 22.35 11.35 22.45 10.85 22.45 11.1 22.45 11.25 22.5 11.2 22.65 10.5 22.65 10.4 23.05 9.75 23.1 10.2 23.15 10.6 23.2 10.6 23.3 9.95 23.7 9.35 23.75 9.75 23.75 10.05 23.8 10.6 23.75 11.05 23.4 11.35 23.4 10.9 23.35 11.05 23.2 11.55 23.2 11.5 22.45 12.05 22.3 11.75 22.25 11.85 22.0 12.3 22.0 12.1 22.1 11.4 22.15 10.75 22.2 10.7 M22.65 10.5 L22.7 10.65 22.75 10.85 22.95 10.6 23.05 10.75 23.15 10.8 23.2 11.45 23.4 10.85 23.4 10.7 23.5 10.2 Q23.55 9.9 23.75 9.75 M22.65 10.5 L22.65 10.6 22.6 11.0 22.75 10.85 22.75 10.9 22.6 11.1 22.6 11.15 22.45 11.75 22.45 11.5 22.45 11.25 M22.6 11.1 L22.6 11.0 22.5 11.2 22.45 11.5 22.6 11.15 M23.4 10.9 L23.4 10.85 23.45 10.8 23.4 10.9 M23.2 11.45 L23.2 11.5 M20.0 19.65 L19.9 20.45 19.95 20.5 20.0 20.6 20.35 20.3 20.65 19.85 20.65 20.6 20.7 20.55 21.1 20.05 21.1 20.15 20.9 20.45 20.65 20.8 20.65 20.6 20.35 21.1 19.85 20.65 19.6 20.15 M23.85 25.0 L23.8 23.8 23.9 23.95 23.9 24.15 24.0 24.45 24.0 24.35 24.25 23.85 24.25 23.8 24.45 23.4 24.85 23.8 24.95 24.25 24.95 24.35 24.95 24.4 24.75 24.9 24.75 25.1 24.55 24.45 24.45 25.1 24.35 23.85 24.25 23.85 M24.55 24.45 L24.55 24.4 24.5 24.25 24.5 24.1 24.5 23.95 24.45 23.75 24.55 23.75 24.55 24.2 24.55 24.25 24.75 24.65 24.75 24.7 24.95 24.4 M24.55 24.25 L24.55 24.35 24.55 24.4 M24.55 24.2 L24.5 24.1 M24.75 24.9 L24.75 24.7 24.55 24.45 M24.55 24.2 L24.5 23.95 M30.25 20.6 L30.5 20.5 30.65 20.6 30.65 20.7 30.75 20.55 30.75 20.25 M11.05 6.15 L11.2 6.15 11.25 6.15 11.2 6.1 11.05 6.1 11.05 6.15 10.75 6.1 11.05 6.1 10.9 5.9 13.7 5.85 15.3 6.2 Q16.05 6.6 15.95 7.0 L16.05 7.0 16.1 6.95 16.1 6.9 16.2 6.7 16.25 6.5 16.25 6.6 16.2 6.7 16.1 6.95 M11.4 6.05 L11.2 6.1 11.8 6.1 11.4 6.05 M12.15 6.0 L12.15 6.25 12.85 6.2 13.0 6.25 12.95 6.2 13.5 6.3 13.1 6.1 12.15 6.0 M13.5 6.3 L13.8 6.4 13.75 6.2 14.3 6.6 14.3 6.7 14.4 6.7 14.9 6.9 15.15 6.95 14.9 6.75 14.65 6.6 14.75 6.6 14.9 6.75 15.2 6.85 15.3 6.9 Q15.55 6.85 15.6 7.1 L15.75 7.1 15.8 7.2 15.9 7.35 15.95 7.3 15.95 7.25 16.05 7.0 M14.9 6.9 L14.75 6.9 14.65 7.25 14.55 7.95 14.15 7.3 13.95 7.1 13.4 7.0 13.05 6.9 13.0 6.9 12.6 6.75 12.05 6.7 Q11.75 6.75 11.4 6.95 L11.2 7.05 11.05 7.15 11.0 7.25 10.65 7.65 10.65 7.55 10.7 7.35 10.45 7.5 10.25 7.75 10.25 7.85 10.15 7.7 10.15 7.65 9.8 7.75 9.35 7.45 8.9 7.2 8.85 7.2 8.85 7.25 8.8 7.25 8.7 7.25 8.3 7.4 8.3 7.45 7.9 7.75 7.75 7.95 7.8 7.75 7.65 7.55 7.25 7.55 7.2 7.55 7.2 7.6 6.8 8.0 6.85 8.0 6.9 8.05 6.9 8.5 6.85 8.55 6.8 8.7 6.8 8.75 Q6.7 9.35 6.3 9.35 L6.0 9.15 5.65 8.9 5.2 8.2 5.1 8.0 5.0 7.7 5.05 7.85 5.1 8.0 M13.8 6.4 L13.9 6.55 14.05 6.6 14.3 6.7 14.45 7.25 14.35 7.25 14.0 6.75 13.95 6.65 13.85 6.65 13.95 7.0 13.95 7.1 13.75 6.65 13.4 6.6 13.2 6.85 13.05 6.9 Q12.25 6.6 12.15 6.25 L12.05 6.25 11.85 6.25 11.45 6.25 11.1 6.25 11.2 6.5 11.5 6.55 11.95 6.5 12.5 6.7 12.6 6.75 M13.9 6.55 L13.95 6.65 14.05 6.6 M13.9 6.55 L13.8 6.5 13.85 6.6 13.85 6.65 13.75 6.65 13.65 6.5 13.65 6.45 13.0 6.25 13.45 6.35 13.55 6.35 13.5 6.3 M13.8 6.4 L13.55 6.35 13.65 6.45 13.8 6.5 13.8 6.4 M12.05 6.7 L11.75 6.6 11.5 6.55 11.35 6.55 11.2 6.55 11.2 6.6 11.15 6.65 11.0 6.95 10.9 7.0 10.8 7.2 10.85 7.3 11.05 7.15 Q11.25 6.85 11.4 6.95 M11.25 6.15 L11.95 6.2 12.05 6.25 M11.95 6.2 L11.45 6.25 11.25 6.15 M11.2 6.5 L11.2 6.55 11.15 6.55 11.15 6.65 11.1 6.65 11.0 6.95 M11.2 6.5 L10.9 6.55 10.9 6.6 11.15 6.55 11.2 6.5 M6.8 8.7 L6.8 8.65 6.5 8.35 6.45 8.45 6.25 9.2 6.2 8.7 6.15 8.7 6.15 8.6 6.1 8.5 6.1 8.55 6.15 8.8 6.05 8.7 6.05 8.6 5.95 8.6 Q5.7 8.6 5.55 8.4 5.3 8.1 5.2 7.55 L5.3 7.55 5.75 8.05 5.95 8.3 5.85 8.1 5.65 7.45 5.75 7.45 6.25 8.1 6.45 8.3 6.45 8.25 6.6 7.95 6.7 7.95 6.7 7.75 6.6 7.75 6.4 7.65 6.35 7.65 5.85 7.35 5.5 7.35 5.5 6.9 5.4 6.9 5.4 7.1 5.35 6.95 5.2 7.2 5.05 7.05 5.0 7.2 4.95 6.9 4.65 6.55 Q4.25 6.05 3.95 5.9 L3.85 5.9 3.4 5.7 3.0 5.55 3.0 5.75 2.9 5.15 3.1 5.45 3.2 5.45 3.3 4.6 3.3 5.45 3.85 5.9 3.85 5.65 4.55 6.2 4.55 5.75 4.8 6.2 5.0 6.5 5.0 5.85 5.1 5.85 5.35 6.3 5.45 6.5 5.5 6.5 5.5 6.4 5.5 5.9 5.95 6.2 6.5 6.3 6.6 5.85 6.7 5.85 6.95 6.3 7.05 6.5 7.1 6.6 7.2 6.8 7.25 6.55 7.2 6.1 7.25 6.2 7.3 6.0 7.3 6.25 7.35 6.35 7.4 6.7 7.4 6.75 7.45 6.8 7.5 6.55 7.75 5.9 7.9 6.1 7.95 6.1 8.0 6.15 7.95 6.05 8.25 6.25 8.25 6.1 8.5 6.3 8.55 6.3 8.55 6.35 9.05 6.8 9.1 6.7 9.2 6.9 9.25 6.95 9.65 7.3 9.7 7.2 9.4 6.85 9.4 6.4 9.4 6.5 9.85 7.05 10.0 7.15 10.15 7.25 10.1 6.7 9.9 6.65 9.3 6.2 9.4 6.2 10.15 6.2 10.45 6.3 10.8 6.25 11.1 6.25 11.1 6.2 11.05 6.15 M10.85 6.6 L10.75 6.6 10.7 6.65 10.9 6.6 10.85 6.6 10.9 6.55 10.45 6.3 9.6 6.3 9.95 6.6 10.1 6.65 10.05 6.4 10.35 6.7 10.4 6.7 10.5 6.7 10.7 6.65 10.7 6.7 11.1 6.65 11.15 6.55 M10.65 6.7 L10.5 6.7 10.6 6.9 10.6 6.95 10.7 6.7 10.65 6.7 M10.6 6.9 L10.55 6.85 10.35 6.7 10.1 6.7 10.1 6.65 M10.7 7.35 L10.75 7.3 10.7 7.2 10.5 7.35 10.45 7.5 10.2 7.6 10.25 7.75 10.15 7.7 M10.7 7.2 L10.6 7.0 10.55 7.2 10.5 7.35 10.4 7.35 10.15 7.25 10.2 7.6 10.15 7.65 9.65 7.3 M10.75 7.3 L10.8 7.2 10.75 7.15 10.7 7.2 M10.7 7.35 L10.75 7.35 10.75 7.3 M10.85 7.3 L10.75 7.35 10.85 7.35 10.85 7.3 M10.9 7.0 L10.75 7.15 10.6 6.95 10.6 7.0 M10.85 9.25 L10.9 9.25 10.95 9.45 11.0 9.45 11.05 9.7 11.1 9.95 11.1 9.85 10.85 9.2 10.85 9.25 10.9 9.4 10.9 9.35 10.95 9.45 11.0 9.75 11.05 10.05 11.1 9.95 M10.85 9.2 L10.75 9.25 10.85 9.25 M10.85 9.2 L10.2 9.1 10.25 9.65 10.65 9.25 10.75 9.25 10.55 9.55 10.6 9.55 10.8 9.4 10.9 9.4 10.95 9.7 11.0 9.75 11.0 10.2 11.05 10.05 11.1 10.15 11.1 10.05 11.1 9.95 M10.15 9.0 L10.05 9.1 10.2 9.1 10.15 9.0 M10.25 9.65 L9.95 9.2 9.95 9.15 9.8 9.4 9.7 9.65 9.7 9.55 9.8 9.4 9.8 9.25 9.85 9.15 9.7 9.25 9.5 9.35 9.4 9.25 9.3 9.2 9.35 9.35 9.3 9.55 9.4 9.65 9.85 9.8 10.0 9.9 10.05 9.85 10.15 9.95 10.25 9.9 10.25 9.65 M10.25 9.9 L10.55 9.6 10.55 9.55 10.25 9.9 M10.8 9.4 L10.75 9.8 10.45 10.2 10.45 10.25 10.45 10.3 10.65 10.75 10.75 10.65 10.75 10.6 10.9 10.05 10.9 10.4 11.0 10.2 11.1 10.2 11.1 10.15 M10.45 10.3 L10.45 10.8 10.65 10.75 10.65 10.8 10.7 10.8 10.75 10.65 10.9 10.45 10.9 10.4 M10.45 10.25 L10.15 9.95 10.05 9.95 10.0 9.9 9.95 10.05 10.0 10.45 10.05 10.55 10.05 10.6 10.4 10.8 10.45 10.8 10.45 11.0 10.55 11.1 10.7 10.8 10.75 10.85 10.85 10.9 10.85 10.55 10.9 10.45 10.9 10.7 11.0 10.7 11.05 10.35 11.1 10.2 M15.1 10.4 L15.1 9.85 15.0 9.85 14.9 9.35 Q15.4 9.5 15.5 9.85 L15.65 10.2 15.5 10.15 15.5 10.4 15.3 10.5 15.2 10.45 15.1 10.6 15.1 10.4 15.25 10.45 15.5 10.15 15.5 9.85 15.1 9.85 M20.1 6.9 L20.05 6.85 20.05 6.8 20.0 6.6 M18.5 6.15 L18.55 6.25 18.85 6.55 19.0 6.7 19.1 6.8 19.3 6.9 19.3 6.8 19.45 7.15 19.5 7.15 19.5 7.25 19.6 7.5 19.65 7.3 20.15 7.75 20.15 7.25 M19.35 7.0 L19.35 7.15 19.5 7.55 19.5 7.25 19.45 7.15 19.35 7.0 19.3 6.9 19.3 7.0 19.35 7.0 M19.5 7.55 L19.55 7.65 19.6 7.55 19.6 7.5 M20.1 6.95 L20.1 7.05 20.15 7.1 M19.1 6.8 L19.3 7.0 19.5 7.95 19.5 7.85 19.55 7.65 M18.85 6.85 L18.9 6.9 18.95 6.8 18.85 6.85 18.85 6.55 M17.85 7.05 L18.05 7.2 18.05 7.1 17.9 6.8 M18.25 7.05 L18.35 6.75 18.55 6.25 18.25 6.75 18.15 7.0 18.25 7.05 M18.05 7.1 L18.05 7.0 18.15 7.0 18.1 7.15 18.05 7.1 M17.5 6.6 L17.5 6.95 17.85 7.4 17.85 7.05 M19.6 7.55 L19.9 8.15 20.15 8.15 M20.15 8.1 L20.15 7.75 M18.95 6.8 L19.0 6.7 M18.95 6.8 L19.1 6.8 M15.8 7.2 L15.7 7.2 15.65 7.15 15.6 7.1 15.75 7.45 15.8 7.55 15.95 7.75 16.1 7.25 16.25 6.85 16.25 7.1 16.05 7.95 15.8 7.75 15.8 7.9 15.75 8.2 15.7 8.4 15.0 7.25 M15.65 7.15 L15.8 7.2 M15.6 7.1 L15.4 7.05 15.4 7.15 15.8 7.55 15.8 7.75 15.65 7.55 15.4 7.15 15.3 7.1 15.15 6.95 15.4 7.05 15.4 7.0 15.45 7.0 15.3 6.9 M15.45 7.0 L15.6 7.1 M15.25 10.45 L15.2 10.45 15.1 10.4 M7.85 6.1 L7.95 6.2 7.9 6.1 7.85 6.1 7.9 6.2 8.0 6.35 8.0 6.25 7.95 6.2 M5.05 7.05 L4.95 6.9 4.95 6.85 4.9 6.5 5.3 6.9 5.35 6.9 5.4 6.85 5.4 6.5 5.45 6.5 M8.9 7.2 L9.2 7.1 9.2 6.9 9.05 6.8 8.85 7.2 8.8 7.25 8.8 7.2 8.75 7.2 8.5 7.2 8.7 7.25 M9.7 7.2 L9.6 7.0 9.85 7.05 10.15 7.65 M8.45 6.5 L8.4 6.4 8.35 6.5 8.4 6.5 8.45 6.5 8.45 6.45 8.45 6.4 8.5 6.4 8.55 6.35 8.5 6.3 8.45 6.3 8.4 6.4 8.25 6.25 8.3 6.5 8.35 6.5 8.3 6.55 8.35 6.6 8.4 6.5 M8.45 6.45 L8.5 6.4 8.55 6.4 8.55 6.9 8.45 6.9 8.4 6.8 8.2 7.05 8.0 7.15 8.0 7.2 8.2 7.2 8.35 7.0 8.35 7.2 8.5 7.05 8.75 6.7 8.75 7.2 M8.3 6.5 L8.3 6.55 8.3 6.65 8.15 6.9 8.35 6.6 8.4 6.8 8.45 6.5 M8.05 6.3 L8.0 6.25 8.05 6.4 8.15 6.5 8.1 6.35 8.1 6.3 8.05 6.3 M8.05 6.4 L8.0 6.35 M7.8 6.5 L7.7 6.75 7.65 6.85 7.4 7.25 7.3 7.15 7.3 7.1 7.25 7.2 7.4 7.3 7.5 7.2 7.55 7.35 7.6 7.35 7.75 7.25 7.75 7.3 7.95 7.2 8.0 7.1 7.95 6.9 7.85 6.5 7.8 6.5 7.85 6.1 M7.8 6.5 L7.75 6.5 7.7 6.75 7.55 6.8 7.45 6.8 7.3 7.1 7.2 7.1 7.2 7.15 7.25 7.2 7.3 7.25 7.35 7.35 7.4 7.3 7.5 7.35 7.55 7.35 7.75 7.45 7.8 7.4 7.75 7.3 7.6 7.35 M8.0 7.1 L8.1 6.95 8.05 7.0 8.0 6.9 7.95 6.9 7.9 6.2 M8.15 6.9 L8.1 6.95 M8.0 7.15 L7.95 7.2 8.0 7.2 8.05 7.35 8.15 7.35 8.2 7.2 8.35 7.2 8.5 7.2 8.35 7.3 8.3 7.4 8.1 7.45 8.05 7.45 8.05 7.5 8.05 7.55 8.0 7.55 7.9 7.75 7.85 7.75 7.8 7.75 M8.0 7.1 L8.0 7.15 M7.8 7.45 L7.85 7.55 8.0 7.55 8.05 7.5 7.95 7.45 7.9 7.45 7.8 7.45 7.8 7.4 7.95 7.2 7.95 7.45 8.05 7.45 8.15 7.35 8.35 7.2 8.35 7.3 8.2 7.35 8.1 7.45 M7.8 7.45 L7.75 7.45 7.65 7.55 7.85 7.55 7.85 7.65 7.85 7.75 8.0 7.55 M7.55 7.35 L7.6 7.5 7.65 7.55 M8.85 7.2 L8.8 7.2 M8.3 6.5 L8.1 6.35 M9.95 9.15 L10.05 9.1 9.95 9.1 9.95 9.15 M9.95 9.1 L9.85 8.85 9.85 9.15 9.95 9.1 M7.25 6.55 L7.3 6.8 7.3 6.25 7.25 6.2 7.25 6.55 M7.2 6.85 L7.3 7.0 7.3 6.8 7.2 6.8 7.2 6.85 7.2 7.05 7.2 7.1 M7.1 6.6 L7.1 6.7 7.1 6.75 7.15 6.8 7.2 6.8 M7.2 7.05 L7.15 6.8 7.1 6.8 7.0 6.8 7.0 7.0 7.05 7.05 7.2 7.15 7.2 7.2 7.25 7.2 7.2 7.25 7.2 7.35 7.35 7.35 7.4 7.35 7.5 7.35 M7.1 6.8 L7.1 6.75 M6.8 6.2 L6.8 6.3 6.9 6.35 6.8 6.2 M7.05 6.5 L6.9 6.35 6.95 6.45 7.1 6.7 6.95 6.5 6.95 6.45 6.9 6.4 6.7 6.7 7.0 7.0 M6.7 6.7 L6.65 6.8 6.45 7.1 6.5 7.2 6.5 7.25 6.4 7.15 6.35 7.2 6.1 6.9 6.0 6.85 5.8 6.7 5.95 7.0 5.85 7.0 5.6 6.75 5.55 6.7 5.55 6.8 5.65 7.05 5.7 7.1 6.0 7.3 6.05 7.35 6.7 7.35 6.8 7.25 6.8 7.35 7.2 7.35 M6.7 6.7 L6.45 6.4 6.25 6.4 6.45 7.1 6.4 7.15 6.1 6.9 6.0 6.75 5.6 6.3 5.55 6.4 5.6 6.4 5.8 6.7 5.55 6.6 5.55 6.65 5.55 6.7 5.5 6.65 5.55 6.8 M6.7 7.75 L6.7 7.45 6.8 7.35 6.7 7.35 6.5 7.6 6.4 7.65 6.05 7.35 5.85 7.35 5.7 7.1 M7.2 7.25 L7.2 7.2 7.05 7.05 M7.35 7.35 L7.25 7.55 7.45 7.4 7.4 7.35 M7.55 7.35 L7.45 7.4 7.6 7.5 M6.7 7.95 L6.75 7.9 Q6.9 7.7 7.2 7.55 L6.95 7.65 6.7 7.75 M5.5 6.5 L5.5 6.55 5.55 6.4 5.5 6.4 M5.3 6.9 L5.35 6.95 5.35 6.9 5.4 6.9 5.4 6.85 5.45 6.7 5.5 6.65 5.5 6.6 5.5 6.55 5.55 6.6 5.5 6.6 5.55 6.65 M5.3 6.9 L5.15 6.9 5.05 7.05 M5.5 6.65 L5.5 6.9 5.65 7.05 M6.1 8.5 L6.05 8.45 5.95 8.3 6.05 8.6 6.1 8.55 M6.45 8.45 L6.3 8.5 6.25 8.7 6.2 8.7 6.2 8.55 6.15 8.6 6.15 8.4 6.2 8.55 6.45 8.3 6.5 8.35 6.7 7.95 6.8 8.0 6.7 8.05 6.9 8.05 M6.7 7.95 L6.7 8.05 6.8 8.65 M10.05 10.55 L9.3 9.55 9.8 10.3 10.05 10.55 M8.0 6.25 L8.0 6.15 8.1 6.3 M9.4 13.35 L9.0 12.9 8.85 12.9 8.85 13.15 8.95 13.4 9.2 13.95 9.5 13.25 9.45 13.0 9.4 12.9 9.4 13.35 M3.75 22.05 L3.5 21.8 3.5 21.55 3.4 21.5 2.9 21.0 3.7 21.65 3.85 21.75 3.7 21.3 3.6 21.05 3.3 20.9 3.3 20.35 4.25 20.25 4.35 20.9 4.55 20.9 4.6 21.05 4.6 21.3 4.6 21.55 4.55 21.65 4.35 20.9 4.15 20.9 4.15 21.4 3.95 21.1 3.85 21.0 3.85 21.05 3.95 21.2 3.65 21.1 3.6 21.05 3.55 20.9 3.85 21.0 3.65 20.95 3.55 20.9 M3.5 21.55 L3.7 21.7 3.7 21.65 3.5 21.55 M3.95 21.55 L3.95 21.75 3.85 21.75 4.45 21.95 4.1 21.45 3.75 21.2 3.95 21.55 M3.7 21.7 L3.85 21.75 3.75 21.75 3.7 21.7 M8.3 23.2 L8.25 23.2 8.25 23.0 8.45 23.0 8.45 23.2 8.3 23.2 8.45 23.25 8.5 23.25 8.55 23.0 8.6 23.2 8.65 23.1 8.65 22.8 8.75 22.8 8.7 23.0 8.65 23.3 8.65 23.5 8.6 23.3 8.55 23.25 8.45 23.4 8.45 23.25 M8.7 23.0 L8.65 23.1 8.65 23.3 8.6 23.3 8.6 23.2 8.55 23.25 8.5 23.25 M18.0 13.1 L18.0 13.3 18.05 13.5 18.05 13.25 18.15 13.25 18.15 13.85 18.05 13.85 18.05 13.5 17.9 14.25 17.8 14.25 17.8 14.15 17.5 14.5 17.45 14.1 17.4 13.65 17.4 13.3 Q17.45 13.15 17.6 13.15 L17.8 13.15 17.8 12.7 17.95 12.9 17.95 13.05 18.0 13.1 17.95 13.15 17.9 13.75 17.8 14.15 17.8 13.15 17.95 13.15 17.95 13.05 M13.3 14.05 L13.25 14.55 13.2 15.05 13.25 15.7 13.75 16.05 13.9 15.75 13.95 15.35 13.95 15.3 13.7 15.85 13.7 15.25 13.75 14.9 13.8 14.9 13.7 14.65 13.55 14.4 13.5 14.4 13.4 14.15 13.3 14.05 M13.55 14.4 L13.45 14.2 13.45 14.15 13.4 14.15 13.4 14.05 13.45 14.15 M13.8 14.9 L13.85 14.75 13.75 14.65 13.55 14.4 M13.85 14.75 L13.95 15.2 14.0 14.85 14.05 14.6 14.05 14.95 14.0 15.25 13.95 15.3 13.95 15.2 13.8 14.9 M12.05 24.55 L12.25 24.95 12.25 24.85 12.05 24.45 12.05 24.55 M13.6 23.95 L13.5 24.1 13.6 24.05 13.7 24.25 13.75 24.2 13.7 23.95 13.6 23.95 M12.75 23.6 L12.75 23.65 12.8 23.85 12.95 23.65 12.75 23.6 M12.75 23.65 L12.75 23.75 12.75 23.95 12.8 23.85 12.9 24.05 12.95 23.75 12.95 23.65 13.3 24.1 13.4 24.1 13.5 24.1 13.45 24.25 13.4 24.35 13.5 24.65 13.5 24.6 13.7 24.25 13.8 24.7 13.8 24.35 13.75 24.2 14.05 23.85 13.9 25.05 13.85 24.95 13.8 24.7 13.7 24.7 13.5 25.2 13.45 25.2 13.45 25.0 13.5 24.85 13.45 24.75 13.45 24.7 13.3 25.05 13.2 24.65 13.2 24.6 13.0 25.05 12.95 25.2 12.95 25.15 12.8 24.85 12.75 24.4 12.55 24.8 12.35 25.15 12.35 25.1 12.25 24.95 M13.05 23.75 L12.9 24.05 12.95 24.15 13.1 24.15 13.15 24.15 13.1 23.85 13.05 23.75 M13.25 24.15 L13.3 24.15 13.2 24.05 13.15 24.15 13.25 24.15 M12.9 24.05 L12.85 24.15 12.95 24.15 13.05 24.4 13.1 24.15 M12.85 24.15 L12.75 24.15 12.75 23.95 12.65 24.1 12.55 24.8 12.75 24.35 12.8 24.3 12.85 24.15 M13.05 24.4 L13.1 24.55 13.2 24.5 13.15 24.15 M13.4 24.35 L13.2 24.5 13.2 24.55 Q13.4 24.6 13.45 24.7 L13.5 24.65 13.5 24.7 13.5 24.85 13.5 24.95 13.5 25.2 M13.2 24.55 L13.2 24.6 M12.95 25.15 L12.85 24.45 12.75 24.35 12.75 24.4 M12.95 25.15 L12.95 24.7 13.05 24.4 M13.4 24.35 L13.3 24.15 13.3 24.1 M13.3 24.15 L13.35 24.15 13.4 24.25 13.4 24.1 M12.75 23.75 L12.65 24.1 12.25 24.85 12.3 24.9 12.35 25.1 M18.8 20.95 L18.75 21.85 18.65 21.95 18.4 21.65 18.35 21.6 18.55 21.15 18.55 21.5 18.65 21.4 18.8 20.95 18.8 20.7 18.85 20.8 18.95 20.8 19.0 20.15 19.0 19.95 19.1 19.7 19.1 19.4 19.1 19.6 19.1 19.7 19.2 20.25 19.15 20.8 19.1 21.3 19.0 21.3 19.0 20.15 19.1 19.7 M15.8 20.9 Q15.6 20.75 15.7 20.9 L15.8 21.05 15.8 20.9 15.8 20.7 15.85 21.0 15.85 21.1 15.95 21.2 15.95 21.5 15.85 21.1 15.85 21.2 15.8 21.5 15.8 21.05 15.85 21.1 M15.8 20.9 L15.85 21.0 M19.5 23.45 L19.5 23.3 19.55 23.45 19.8 23.5 19.8 24.05 19.7 24.05 19.55 23.45 19.5 23.45 19.45 23.75 19.4 24.15 19.3 24.15 19.2 23.4 19.5 23.45" fill="none" stroke="#000000" stroke-linecap="round" stroke-linejoin="round" stroke-opacity="0.98039216" stroke-width="0.05"/>
  </g>
</svg>
