<?xml version="1.0" encoding="UTF-8" standalone="no"?>
<svg xmlns:xlink="http://www.w3.org/1999/xlink" height="5.1px" width="22.3px" xmlns="http://www.w3.org/2000/svg">
  <g transform="matrix(1.0, 0.0, 0.0, 1.0, -5.75, -20.95)">
    <path d="M19.55 23.35 L19.55 23.25 19.55 23.3 19.55 23.35 19.5 23.4 19.45 23.5 19.45 24.3 19.15 24.35 18.8 24.45 17.6 24.5 17.65 24.55 17.85 24.7 Q18.4 24.9 18.4 24.55 L18.4 24.85 18.65 25.05 Q18.95 25.25 19.2 25.25 L19.55 25.2 19.75 24.7 20.35 24.6 20.4 24.7 20.75 24.4 M26.05 25.0 L24.95 24.9 24.75 24.9 25.1 25.45 25.65 25.5 26.45 25.2 27.1 24.55 26.45 24.45 26.0 24.5 25.65 24.7 24.95 24.7 24.95 24.2 24.95 24.1 24.7 24.05 24.4 24.1 24.3 24.3 24.3 24.05 24.15 24.55 24.15 23.5 24.05 23.45 23.8 23.35 23.7 23.35 23.6 23.4 23.6 23.95 23.5 24.45 23.5 23.85 23.45 23.75 23.2 24.2 23.2 23.9 23.35 23.6 23.45 23.5 23.45 23.35 Q23.55 22.95 23.95 22.95 24.4 22.95 25.0 23.4 L25.15 23.5 25.5 23.5 25.65 23.5 25.75 23.5 26.6 23.45 27.65 23.25 27.7 24.05 28.05 24.7 27.85 25.25 27.5 25.4 27.35 24.9 27.1 24.55 27.8 24.7 28.05 24.7 M23.8 23.35 L24.15 23.35 24.4 23.35 24.75 23.6 25.05 23.5 24.3 23.25 23.6 23.25 23.6 23.35 23.7 23.35 M23.45 23.5 L23.45 23.75 23.5 23.65 23.6 23.4 Q23.5 23.4 23.45 23.5 M23.6 23.35 L23.6 23.4 M24.75 24.9 L24.95 25.8 24.4 25.05 24.15 24.65 23.9 24.45 23.9 24.3 24.15 24.65 24.75 24.9 M25.75 23.5 L25.7 23.6 25.75 23.65 25.65 23.65 25.65 23.9 25.55 23.8 25.25 23.9 24.85 23.65 24.75 23.6 24.5 23.75 24.35 23.95 24.3 24.05 M25.05 23.5 L25.1 23.55 25.25 23.55 25.15 23.5 25.05 23.5 M24.15 23.5 L24.15 23.35 M25.65 23.5 L25.65 23.55 25.7 23.6 25.65 23.65 25.25 23.55 25.55 23.8 25.6 23.75 25.65 23.65 25.65 23.55 M8.1 24.55 L7.5 25.15 7.0 25.25 6.65 25.25 6.5 24.95 6.4 25.3 6.2 25.4 5.8 25.05 5.75 25.0 6.35 24.5 6.75 24.2 6.75 24.45 6.95 24.35 7.3 24.2 M15.05 21.65 L15.2 21.65 15.1 21.45 15.05 21.65 15.0 22.2 14.9 22.7 15.05 22.7 15.15 22.2 15.6 21.75 15.95 22.25 16.4 22.7 Q16.8 21.95 17.2 21.9 L17.5 22.6 17.6 23.05 17.65 22.95 18.0 22.7 18.1 23.5 18.25 23.5 18.45 23.2 Q18.7 22.9 19.05 22.85 L19.2 23.5 19.45 24.3 14.9 24.05 14.25 23.9 14.15 23.9 14.15 23.85 14.1 23.85 14.05 23.85 13.8 23.75 13.55 23.75 13.6 23.9 13.65 23.9 13.7 24.05 13.85 24.05 14.05 24.05 14.1 24.05 14.25 24.05 14.7 24.35 14.8 24.45 15.35 24.55 15.45 24.3 16.25 24.3 15.85 24.55 17.2 24.5 17.35 24.45 17.6 24.5 17.2 24.5 16.9 24.95 16.7 25.4 16.95 25.6 17.0 25.6 17.6 25.55 17.8 25.2 Q18.05 24.85 18.35 24.85 L18.4 24.85 18.4 25.25 17.6 25.55 17.45 25.8 17.0 25.6 M15.1 21.45 L14.95 21.2 14.4 20.95 Q13.85 20.95 13.85 21.55 L14.0 22.05 14.25 22.3 14.75 22.35 14.75 22.25 15.05 21.65 M16.25 21.35 L15.95 21.55 15.7 21.65 15.55 21.45 15.2 21.2 15.1 21.4 15.1 21.45 M16.95 25.6 L16.2 25.65 15.8 25.8 15.35 25.65 15.15 25.65 15.1 25.65 14.9 25.65 14.55 25.65 14.3 25.6 13.9 25.85 13.25 26.05 12.15 25.55 11.85 25.35 11.4 24.85 10.5 24.3 10.5 24.15 10.5 24.0 10.35 23.9 10.35 23.75 10.5 23.9 10.5 23.65 10.65 23.65 10.65 23.8 10.75 23.65 10.9 23.75 10.9 24.2 11.15 23.95 11.0 23.7 10.9 23.65 10.9 23.5 11.0 23.7 11.2 23.9 11.5 23.65 Q11.85 23.35 12.3 23.35 L12.35 23.35 12.45 22.85 Q12.55 22.3 12.85 22.3 L13.85 22.55 14.65 22.85 14.75 22.35 M11.15 23.95 L11.3 24.15 11.5 24.2 11.55 24.15 11.2 23.9 11.15 23.95 M10.5 23.9 L10.55 23.95 10.6 23.85 10.65 23.8 10.65 24.05 10.8 24.15 11.05 24.35 11.35 24.5 11.5 24.2 11.6 24.2 11.55 24.15 11.55 23.9 12.3 24.05 12.25 23.5 12.35 23.35 13.5 23.65 13.85 23.75 14.4 23.6 14.75 23.5 15.6 23.25 16.0 23.45 16.65 23.65 17.1 23.8 17.2 24.05 17.35 24.1 17.45 24.2 17.45 23.5 Q17.65 23.5 17.85 23.75 M10.65 24.05 L10.65 24.3 11.05 24.35 11.3 24.55 11.35 24.5 11.4 24.55 11.45 24.55 11.55 24.65 11.6 24.45 11.8 24.45 12.1 24.45 12.1 24.3 12.15 24.3 12.05 24.25 11.75 24.3 11.6 24.2 11.8 24.2 11.85 24.2 12.05 24.25 12.1 24.25 12.35 24.2 12.3 24.05 M10.65 24.05 L10.55 23.95 10.5 24.15 M10.5 24.0 L10.5 23.9 M11.55 24.65 L11.8 25.0 11.75 24.85 11.75 24.75 11.7 24.7 11.7 24.55 11.75 24.75 12.05 25.2 12.6 25.35 12.75 25.25 Q13.0 25.1 13.15 25.1 L12.7 24.75 12.65 24.7 12.65 24.65 12.5 24.55 12.1 24.45 12.2 24.35 12.15 24.3 12.3 24.25 12.35 24.2 M12.3 24.25 L12.2 24.35 12.3 24.35 12.35 24.4 12.65 24.4 12.95 24.35 12.8 24.2 12.8 24.1 13.15 24.05 13.55 23.9 13.6 23.9 13.65 24.05 13.7 24.05 13.7 24.2 13.85 24.2 13.85 24.05 M12.35 24.4 L12.5 24.45 12.65 24.4 13.0 24.35 12.95 24.35 M12.65 24.4 L12.65 24.55 12.8 24.55 13.1 24.45 13.0 24.35 13.1 24.35 13.15 24.35 13.15 24.2 13.45 24.2 13.3 24.1 13.15 24.05 M12.5 24.45 L12.5 24.55 12.65 24.55 12.5 24.45 M12.65 24.55 L12.65 24.65 M12.35 24.4 L12.1 24.45 M11.55 24.65 L11.55 24.85 11.4 24.55 11.3 24.55 11.4 24.85 11.7 25.05 11.8 25.1 11.8 25.0 11.85 25.1 12.05 25.2 12.35 25.4 12.6 25.35 13.05 25.4 13.55 25.35 13.15 25.1 13.65 25.15 14.1 25.25 14.1 24.7 14.45 25.25 14.5 25.25 14.95 25.4 15.25 25.2 Q15.65 24.95 15.8 24.95 L16.1 25.25 16.45 25.45 16.65 25.4 16.7 25.4 16.65 25.5 16.45 25.45 16.25 25.6 16.2 25.65 15.85 25.65 15.35 25.65 15.3 25.6 15.15 25.65 M13.5 23.65 L13.6 23.7 13.8 23.75 13.85 23.75 14.05 23.85 M13.25 24.3 L13.15 24.35 13.2 24.35 13.25 24.35 13.25 24.3 13.45 24.2 13.55 24.2 13.7 24.2 13.65 24.05 13.3 24.1 M13.2 24.35 L13.15 24.4 13.15 24.45 13.4 24.45 13.4 24.35 13.45 24.3 13.25 24.35 M13.1 24.45 L13.15 24.4 13.15 24.35 M13.85 24.2 L13.9 24.2 14.05 24.05 M13.7 24.2 L13.7 24.25 13.85 24.25 13.85 24.2 M13.7 24.25 L13.7 24.3 13.75 24.3 13.85 24.25 14.0 24.2 13.9 24.2 M13.7 24.3 L13.7 24.35 14.1 24.4 14.1 24.3 14.0 24.25 13.85 24.25 M13.25 24.3 L13.3 24.3 13.45 24.3 13.45 24.2 M13.4 24.45 L13.55 24.45 13.6 24.45 13.7 24.35 13.5 24.3 13.45 24.3 13.7 24.25 M13.6 24.45 L13.55 24.5 13.55 24.55 13.45 24.55 13.35 24.6 13.7 24.7 14.0 24.7 14.1 24.55 14.1 24.4 14.4 24.5 15.1 24.7 15.25 24.65 14.8 24.45 14.5 24.35 14.0 24.25 14.0 24.2 14.1 24.2 14.1 24.05 M13.1 24.45 L13.3 24.55 13.4 24.45 M13.45 24.55 L13.3 24.55 13.35 24.6 13.2 24.65 12.65 24.7 M13.55 24.5 L13.45 24.55 M13.55 24.45 L13.55 24.5 M12.8 24.55 L13.3 24.55 M14.4 23.6 L14.4 23.75 14.3 23.8 14.25 23.9 M15.35 24.55 L15.6 24.55 15.85 24.55 15.5 24.7 15.25 24.65 15.35 24.55 M18.05 24.25 L18.0 24.2 17.85 24.2 18.05 24.25 M15.7 25.25 L15.3 25.6 15.1 25.5 14.95 25.4 14.7 25.5 14.9 25.65 M14.7 25.5 L14.65 25.5 14.3 25.6 13.55 25.4 13.55 25.35 13.8 25.3 14.45 25.25 14.7 25.5 M11.8 25.1 L11.85 25.25 11.85 25.1 11.8 25.1 M11.85 25.25 L11.85 25.35" fill="none" stroke="#000000" stroke-linecap="round" stroke-linejoin="round" stroke-opacity="0.98039216" stroke-width="0.05"/>
  </g>
</svg>
