<?xml version="1.0" encoding="UTF-8" standalone="no"?>
<svg xmlns:xlink="http://www.w3.org/1999/xlink" height="20.75px" width="41.1px" xmlns="http://www.w3.org/2000/svg">
  <g transform="matrix(1.0, 0.0, 0.0, 1.0, 3.95, -3.3)">
    <path d="M31.45 9.55 L31.55 9.7 31.55 9.9 31.55 10.0 31.55 10.3 31.55 10.45 31.45 10.4 31.4 10.6 30.7 10.0 30.7 10.3 30.55 10.3 30.5 10.4 30.5 10.3 30.4 10.3 30.35 10.45 30.35 10.3 30.2 10.3 30.2 10.25 30.15 10.15 30.05 10.15 30.05 9.6 30.2 9.75 30.2 9.8 30.2 9.9 30.35 9.9 30.35 9.85 30.35 9.45 30.45 9.55 30.5 9.3 30.5 9.6 30.65 9.8 30.7 9.75 30.7 9.5 30.75 9.7 30.8 9.6 30.95 10.0 31.25 9.95 31.5 9.8 31.4 9.45 31.45 9.55 M31.55 9.7 L31.5 9.8 31.5 9.9 31.55 10.0 31.45 10.3 31.55 10.3 M30.35 9.9 L30.5 9.85 30.5 9.6 30.45 9.55 30.35 9.85 M30.5 9.85 L30.65 9.8 30.7 9.8 30.7 9.75 30.75 9.7 30.75 9.75 30.8 9.9 30.95 10.0 31.0 10.1 31.1 10.15 31.45 10.3 31.45 10.4 31.1 10.15 M30.95 10.0 L30.8 10.0 30.8 9.9 30.75 9.9 30.7 9.8 30.7 10.0 30.6 10.1 30.55 10.3 30.5 10.3 30.5 10.15 30.4 10.3 30.35 10.3 30.35 9.9 30.2 10.3 M30.7 9.8 L30.6 10.05 30.6 10.1 30.5 10.15 30.5 9.85 M27.65 3.5 L27.95 3.55 28.25 3.65 28.3 3.3 M22.95 12.35 L23.1 12.9 23.2 13.3 23.25 13.25 23.25 13.05 23.45 13.05 23.55 11.9 23.7 11.9 23.7 12.8 23.45 13.05 23.85 13.05 23.85 13.2 23.85 13.7 24.0 13.8 23.85 13.8 23.85 13.95 23.65 13.8 23.5 13.8 23.5 13.9 23.55 13.95 23.55 14.05 23.5 13.9 23.45 13.8 23.25 13.8 22.95 13.6 22.75 13.45 22.5 13.5 22.5 12.5 22.55 12.5 22.5 12.35 22.6 12.45 22.65 12.35 22.95 12.35 M30.2 9.8 L30.15 9.85 30.2 9.9 M30.2 10.25 L30.15 10.0 30.05 9.6 M29.1 15.8 L29.1 15.85 29.25 15.85 29.1 15.45 29.1 15.8 29.0 15.4 29.1 15.45 M22.75 13.45 L22.65 13.35 22.85 13.45 23.15 13.35 22.95 13.1 22.9 13.0 22.55 12.5 22.6 12.45 22.9 13.0 23.1 13.2 23.2 13.3 23.25 13.35 23.25 13.25 23.35 13.2 23.45 13.05 23.45 13.4 23.55 13.45 23.85 13.2 M23.2 13.3 L23.25 13.5 23.35 13.5 23.25 13.35 23.45 13.4 23.45 13.5 23.5 13.45 23.55 13.45 23.65 13.5 23.85 13.7 23.85 13.8 23.65 13.8 23.45 13.6 23.5 13.8 23.45 13.8 23.15 13.35 23.2 13.3 M23.45 13.5 L23.45 13.6 23.35 13.5 23.45 13.5 M22.75 13.45 L22.85 13.45 M27.25 21.75 L27.25 21.35 27.35 21.95 27.4 22.05 28.0 22.5 28.3 22.7 28.45 22.45 28.4 22.75 28.7 22.9 28.7 22.45 29.15 22.9 29.5 22.7 Q29.8 22.7 30.1 23.0 L30.7 23.65 30.45 23.55 30.25 23.7 29.85 23.75 29.4 23.45 28.85 23.1 28.75 23.15 28.65 23.25 28.55 23.5 28.55 23.3 27.95 23.65 27.4 23.15 27.35 23.05 27.35 23.1 27.35 23.5 27.3 23.1 27.25 23.1 27.2 22.7 27.1 22.45 27.1 22.3 27.15 22.4 27.1 21.9 27.35 22.05 27.35 21.95 27.25 21.75 M27.35 22.05 L27.35 22.75 27.55 23.0 28.05 23.5 28.4 22.75 28.3 22.7 28.05 23.1 27.55 22.35 27.4 22.05 27.35 22.05 M27.1 22.3 L27.15 22.4 27.2 22.45 27.15 22.45 27.15 22.4 M27.2 22.7 L27.2 22.5 27.2 22.45 M27.2 22.7 L27.3 23.05 27.3 23.1 27.35 23.1 27.3 22.85 27.25 22.75 27.2 22.5 27.35 22.75 27.35 23.05 27.3 22.85 M28.55 23.1 L28.55 23.3 28.65 23.25 28.65 23.1 28.55 23.1 M28.85 23.1 L28.65 23.1 28.7 22.9 29.0 23.0 29.15 22.9 29.75 23.25 30.45 23.55 M29.0 23.0 L28.85 23.1 M35.95 17.75 L35.25 17.75 35.1 17.9 35.0 18.2 35.0 18.4 35.5 18.4 35.95 17.75 M34.2 16.85 L34.0 16.75 33.55 16.8 Q33.75 17.2 34.25 17.35 L34.6 17.45 34.3 16.95 34.2 16.85 M34.0 16.75 L33.65 16.6 34.25 16.55 Q34.85 16.65 35.0 17.5 L34.6 17.45 34.6 17.75 34.55 18.4 34.85 18.4 35.0 18.4 35.2 19.0 35.25 19.1 35.55 19.5 35.55 19.6 35.25 19.1 35.1 19.0 34.6 18.85 34.5 19.1 34.5 19.5 35.55 19.9 35.6 19.9 Q35.8 18.95 35.95 18.7 L36.2 18.7 36.35 19.1 36.5 19.6 36.5 20.45 Q36.35 20.15 35.6 19.9 L35.5 20.35 35.45 20.45 Q35.3 21.2 34.85 21.2 34.55 21.2 34.3 20.65 34.1 20.05 34.2 19.5 L34.2 19.6 34.6 20.3 34.85 21.1 35.2 20.7 35.45 20.45 M33.0 16.55 L33.05 17.0 Q33.2 17.7 33.8 18.1 L34.55 18.4 Q34.4 18.95 33.85 18.95 L33.2 18.7 32.6 17.9 33.0 17.25 33.05 17.0 M35.55 23.5 L35.8 23.5 36.2 23.35 36.25 23.35 36.6 23.35 36.6 23.4 37.15 23.5 36.75 23.5 36.05 23.7 35.55 23.75 M36.6 23.4 L36.55 23.5 36.75 23.5 M36.6 23.4 L36.55 23.4 36.25 23.35 M36.55 23.5 L35.8 23.5 M16.45 9.15 L16.8 9.4 16.85 9.5 16.9 9.15 16.45 9.15 M15.85 9.75 L15.85 9.0 16.3 9.4 16.75 9.6 16.9 9.6 16.85 9.5 M3.5 8.7 L3.5 8.65 3.45 8.45 3.6 8.45 3.5 8.7 3.0 9.0 2.9 9.55 2.85 10.0 2.15 9.8 2.05 9.7 1.8 10.2 1.35 10.75 1.05 10.3 1.05 10.45 1.05 11.05 Q0.75 10.85 0.55 10.3 L0.5 10.15 0.4 10.05 0.4 10.2 0.3 10.55 M2.05 9.7 L1.8 9.55 1.55 9.65 Q1.15 9.85 1.05 10.3 L1.05 10.25 0.85 9.95 0.7 9.9 0.7 9.75 0.85 9.95 0.9 9.95 1.05 10.15 1.05 10.25 M0.4 10.05 L0.1 9.45 0.65 9.3 1.2 9.15 1.35 9.3 1.35 9.6 1.1 9.65 M2.05 9.7 L2.1 9.45 1.8 9.55 M0.5 10.15 L0.4 9.6 0.4 10.05 M1.05 10.45 L0.55 10.15 0.5 10.15 M5.4 16.95 Q4.95 16.85 4.7 16.4 L4.55 16.15 4.45 16.15 4.2 16.15 4.2 16.0 4.3 15.9 4.5 15.85 4.6 15.85 4.85 15.9 5.0 16.0 5.25 16.1 Q5.55 16.3 5.55 16.65 L5.45 16.95 5.4 16.95 M4.45 16.15 L4.45 16.0 4.5 16.0 4.5 15.85 M4.55 16.15 L5.0 16.15 5.0 16.0 4.5 16.0 4.55 16.15 M0.4 23.1 L-0.05 23.25 -0.05 22.8 -0.1 23.0 -0.05 23.7 0.3 23.75 0.35 23.75 0.8 23.25 0.85 23.1 0.85 22.85 0.4 23.1 M1.1 23.75 L0.6 23.75 0.35 23.75 M0.3 23.75 L0.0 23.75 0.1 23.9 0.35 24.05 0.2 24.05 0.1 23.9 0.05 23.9 -0.2 23.75 -1.55 23.75 -1.55 24.05 -2.45 24.05 -2.45 23.75 -2.55 23.65 -2.6 23.65 -2.6 22.55 -2.6 22.45 -2.6 21.9 -2.35 21.85 -1.95 21.75 -1.05 21.85 -0.55 21.85 0.05 21.9 -0.05 22.8 -0.05 22.75 -0.2 23.5 -0.35 23.5 -0.4 22.05 -1.55 22.05 -0.8 22.8 -0.85 23.1 -0.75 23.25 -0.85 23.25 -0.55 23.45 -0.45 23.5 -0.6 23.5 -1.05 23.35 -1.55 23.35 -1.55 23.75 -2.45 23.75 -2.05 23.55 -1.55 23.35 -1.55 22.75 -1.65 23.35 -1.95 22.9 -2.15 22.65 -2.2 22.7 -2.45 22.7 -2.6 22.55 M9.7 19.75 L10.15 20.05 10.25 20.15 10.65 20.15 10.7 20.3 10.75 20.45 10.55 20.45 10.65 20.55 10.25 20.55 10.6 20.65 10.9 20.7 10.8 20.75 10.75 20.8 10.35 21.0 9.95 21.1 9.85 21.1 9.8 21.1 9.75 20.95 9.7 20.95 9.7 20.8 9.65 20.7 9.55 20.3 9.7 20.4 9.7 20.3 9.8 20.3 9.9 20.45 10.0 20.5 10.25 20.55 10.15 20.45 10.1 20.45 9.95 20.45 9.7 20.0 9.7 19.75 M10.15 20.45 L10.55 20.45 10.25 20.15 10.1 20.15 10.1 20.45 M9.95 21.1 L9.95 20.7 9.9 20.45 9.7 20.4 9.7 20.8 9.75 20.95 M-1.95 17.75 L-2.6 18.0 -2.9 17.95 -3.0 17.75 -3.0 16.95 -3.0 16.65 -2.6 16.8 -2.35 16.65 -1.75 16.65 -1.55 16.65 -1.45 16.75 -1.4 17.0 Q-1.4 17.4 -1.95 17.75 L-1.95 18.0 Q-2.0 18.4 -2.4 18.4 -2.9 18.4 -3.4 18.0 -3.95 17.6 -3.95 17.05 L-3.65 16.55 -3.0 16.25 -2.65 16.05 -2.95 15.8 -3.15 15.75 -3.15 15.45 -3.0 15.4 -3.0 15.35 -2.85 14.8 Q-2.65 14.4 -2.2 14.4 -1.9 14.4 -1.65 14.65 L-1.4 15.05 M-3.0 15.4 L-3.0 15.45 -2.95 15.8 -2.9 15.8 -2.55 15.85 -2.5 15.85 -2.45 15.8 Q-2.25 15.5 -1.95 15.6 L-1.95 15.75 -2.15 15.8 -2.5 15.85 -2.65 16.05 -2.2 16.15 -1.85 16.05 -1.65 15.85 -1.65 15.45 -2.05 15.35 -3.0 15.35 M-3.0 16.95 L-2.9 16.95 -2.6 16.8 -2.25 16.95 -2.2 17.0 -2.05 17.15 -1.95 17.2 -1.75 16.65 M-2.25 16.95 L-2.25 17.0 -2.2 17.0 M-2.05 17.15 L-1.95 17.6 -1.95 17.75 M-2.25 16.95 L-2.9 16.95 M-0.05 22.75 L-0.05 22.7 -0.15 22.05 -0.4 22.05 -0.45 21.9 -0.85 21.9 -1.65 22.05 -1.55 22.05 -1.55 22.15 -1.15 22.7 -0.85 23.1 -0.85 23.25 Q-1.0 23.15 -1.25 23.0 L-1.55 22.75 -1.8 22.3 -1.95 22.45 -2.15 22.65 -2.35 22.45 -2.6 22.45 M-0.15 22.05 L-0.2 21.9 -0.45 21.9 M-0.05 22.7 L-0.05 22.05 -0.15 22.05 M-0.85 21.9 L-1.8 21.9 -1.75 22.05 -1.65 22.05 M-1.75 22.05 L-1.55 22.3 -1.55 22.15 M-1.55 22.75 L-1.55 22.3 M-0.2 23.75 L0.0 23.75 -0.05 23.7 -0.2 23.65 -0.2 23.75" fill="none" stroke="#000000" stroke-linecap="round" stroke-linejoin="round" stroke-opacity="0.98039216" stroke-width="0.05"/>
  </g>
</svg>
