<?xml version="1.0" encoding="UTF-8" standalone="no"?>
<svg xmlns:xlink="http://www.w3.org/1999/xlink" height="24.2px" width="31.9px" xmlns="http://www.w3.org/2000/svg">
  <g transform="matrix(1.0, 0.0, 0.0, 1.0, 0.05, 3.3)">
    <path d="M1.55 -3.15 L1.75 -2.45 1.75 -2.4 1.85 -2.45 1.8 -2.55 1.65 -3.15 1.55 -3.15 M2.15 -2.55 Q2.6 -2.55 2.95 -2.15 L3.25 -1.7 3.3 -1.7 3.25 -1.65 3.45 -1.4 3.6 -1.65 3.3 -2.15 Q2.55 -3.25 1.85 -3.3 L1.9 -2.45 1.95 -2.5 2.15 -2.55 2.15 -2.85 M2.15 -2.55 L2.15 -2.45 2.15 -2.3 2.25 -2.35 2.2 -2.15 2.35 -1.75 2.45 -1.55 2.6 -1.45 2.6 -1.4 2.9 -1.3 3.2 -1.3 3.2 -1.35 3.2 -1.7 3.25 -1.7 3.25 -1.65 3.2 -1.35 M1.95 -2.2 L1.9 -2.45 1.85 -2.45 1.95 -2.1 1.95 -2.2 M2.15 -2.3 L2.2 -2.15 2.15 -1.95 2.15 -1.8 2.15 -1.6 2.1 -1.65 1.95 -1.3 1.95 -0.65 2.45 -1.15 2.6 -1.45 M2.15 -1.95 L2.15 -2.25 1.95 -1.95 2.1 -1.65 2.15 -1.8 M2.15 -2.25 L2.15 -2.3 M1.35 -2.6 L1.2 -2.95 1.05 -2.65 0.8 -2.25 0.7 -2.75 0.25 -2.6 0.1 -2.4 0.05 -1.85 Q0.05 -1.2 0.35 -0.95 L0.75 -1.5 1.1 -2.2 1.15 -1.7 Q1.2 -1.35 1.4 -1.2 L1.85 -1.8 1.95 -1.95 1.75 -2.4 1.55 -2.25 1.35 -2.6 M0.05 -2.75 L-0.05 -2.75 -0.05 -2.25 0.1 -2.4 0.05 -2.75 M3.95 -1.6 L3.95 -1.5 4.0 -1.4 4.0 -1.6 3.95 -1.6 M4.0 -1.6 L3.95 -1.8 4.45 -1.8 4.6 -1.6 4.6 -1.65 4.6 -1.7 4.65 -1.7 4.9 -2.25 5.1 -2.15 5.35 -1.95 5.6 -1.3 5.55 -0.95 5.5 -0.7 6.1 -0.8 6.05 -0.6 Q6.05 -0.35 6.35 -0.2 L6.7 -0.1 7.35 -0.3 7.5 -0.5 7.15 -0.65 7.1 -0.65 Q6.85 -0.65 6.6 -0.85 6.3 -1.15 6.25 -1.6 6.6 -0.9 7.1 -0.65 M4.65 -1.5 L4.8 -1.15 4.7 -1.15 4.65 -1.5 4.65 -1.55 4.6 -1.6 4.5 -1.3 4.35 -0.95 4.45 -0.95 4.55 -1.35 4.6 -1.15 4.6 -1.05 4.7 -0.9 4.75 -0.85 4.8 -0.85 4.8 -1.05 4.85 -1.0 4.9 -1.25 4.85 -1.45 4.8 -1.6 4.7 -1.65 4.65 -1.7 4.6 -1.65 4.65 -1.55 M3.65 -1.55 L3.65 -1.85 3.6 -1.65 3.65 -1.55 3.8 -1.3 3.9 -1.2 4.05 -1.2 4.05 -1.3 4.05 -1.35 4.0 -1.35 4.0 -1.4 M3.65 -1.55 L3.65 -1.05 3.45 -1.4 3.35 -1.35 3.2 -1.3 3.2 -0.65 3.3 -0.55 3.55 -0.85 3.85 -1.2 3.9 -1.2 3.9 -1.15 4.05 -1.1 4.05 -1.2 M3.2 -1.3 L3.1 -1.0 2.6 -0.25 2.6 -1.4 M4.6 -1.05 L4.6 -0.95 4.7 -0.9 M4.6 -0.95 L4.6 -0.85 4.75 -0.85 4.8 -0.8 4.8 -0.85 4.85 -1.0 5.0 -0.85 5.1 -0.7 5.1 -1.55 5.1 -2.15 M4.05 -1.1 L4.2 -1.0 4.35 -0.95 4.35 -0.85 3.9 -1.15 M5.5 -0.7 L5.5 -0.65 5.4 -0.65 5.3 -0.45 5.25 -0.55 5.2 -0.55 5.1 -0.7 5.1 -0.25 4.8 -0.7 4.8 -0.8 4.65 -0.5 4.35 -0.25 4.0 -0.5 3.85 -1.2 M4.5 -1.3 L4.0 -1.6 M5.1 -1.55 L5.2 -0.75 5.3 -0.7 5.4 -0.65 5.5 -0.7 M7.5 -0.5 L7.65 -0.8 7.2 -0.65 7.15 -0.65 M31.7 -0.7 L31.85 -0.95 31.8 -0.85 31.7 -0.7 31.65 -0.7 31.5 -0.65 30.95 -0.55 30.45 -0.75 30.0 -0.95 29.5 -0.4 28.2 -0.2 28.0 -0.2 Q27.8 -0.25 27.8 -0.65 L27.9 -1.05 28.2 -1.2 28.85 -1.1 29.5 -0.95 29.95 -0.95 30.0 -1.0 30.1 -1.1 30.1 -1.7 30.0 -2.45 29.5 -1.9 28.75 -1.3 28.6 -1.6 28.45 -1.8 28.1 -1.4 27.75 -1.8 27.6 -1.95 27.45 -1.75 27.05 -1.1 26.35 -0.25 25.9 -0.75 25.25 -0.45 24.3 -0.2 23.7 -0.5 23.0 -0.85 22.6 -0.65 21.4 -0.35 21.35 -0.55 20.55 -0.45 19.9 0.0 18.95 0.7 18.95 0.6 18.95 -0.45 18.6 -0.2 18.35 0.0 18.15 0.9 Q17.9 1.75 17.35 1.75 L17.0 1.3 16.85 1.35 16.65 1.1 16.55 0.55 16.55 0.15 16.45 0.3 16.4 0.1 16.35 -0.1 16.2 -0.15 16.05 -0.2 15.95 -0.5 15.9 -0.85 15.3 -0.6 14.8 -0.2 14.8 -0.35 14.9 -1.3 14.65 -1.0 14.35 -0.55 14.15 -1.0 14.05 -1.4 13.8 -0.95 13.3 -0.45 13.25 -0.55 13.2 -0.55 Q13.3 -0.9 13.0 -1.15 L12.85 -0.75 12.45 -0.35 12.2 -0.7 12.05 -0.95 Q11.85 -0.25 11.3 -0.1 L11.1 -0.5 10.75 -0.85 10.65 -0.4 10.55 0.0 10.45 0.0 10.35 -0.4 10.25 -0.75 10.0 -0.7 9.85 -0.65 9.8 -0.9 9.4 -1.15 9.2 -0.85 8.9 -0.65 8.65 -0.85 8.35 -1.05 8.25 -0.85 8.35 -0.75 8.4 -0.65 8.65 -0.2 8.35 -0.75 8.05 -0.35 7.55 0.1 7.6 -0.45 7.5 -0.5 M7.65 -0.8 L8.05 -0.95 8.25 -0.85 8.15 -0.7 7.95 -0.35 7.6 -0.45 7.6 -0.5 7.65 -0.8 M16.55 -1.0 L16.6 -0.15 16.65 -1.3 16.75 -1.3 Q16.7 -1.0 17.1 -0.6 L17.25 -0.45 17.15 -0.7 16.75 -1.4 16.65 -1.5 16.55 -1.3 16.55 -1.0 M16.55 0.15 L16.6 -0.1 16.6 -0.15 M16.7 -0.1 L16.6 0.05 16.85 0.95 17.0 1.3 17.35 0.85 17.4 0.7 17.1 0.8 17.0 -0.55 16.9 -0.55 16.7 -0.1 M17.25 -0.45 L17.4 0.15 17.4 0.7 17.85 0.25 17.9 -0.75 17.8 -1.5 17.8 -1.6 17.6 -0.2 17.25 -0.45 M18.5 -1.15 L18.3 -1.1 18.15 -1.05 18.25 -0.5 18.35 -0.1 18.5 -0.25 18.85 -0.85 18.7 -1.0 18.5 -1.15 M19.65 -0.5 L20.45 -0.45 20.55 -0.45 21.2 -0.85 21.35 -0.55 21.8 -0.65 22.9 -0.85 23.0 -0.85 Q23.45 -1.05 23.7 -1.4 L21.45 -1.0 19.3 -0.95 Q19.4 -0.55 19.65 -0.5 M24.25 -1.3 L24.6 -1.15 24.95 -1.05 25.9 -0.95 26.7 -1.4 27.4 -2.1 27.55 -1.95 27.6 -2.1 27.7 -2.1 27.6 -1.95 27.55 -1.95 27.45 -1.75 26.7 -1.25 25.5 -0.85 24.8 -1.0 24.6 -1.15 M30.0 -1.0 L30.1 -1.05 30.1 -1.1 30.5 -1.8 30.55 -1.75 30.55 -1.7 30.85 -1.9 31.15 -2.2 31.55 -1.8 31.7 -1.35 31.7 -1.05 31.4 -0.65 31.5 -0.65 M29.95 -0.95 L30.0 -0.95 30.0 -1.0 M29.5 -0.95 L29.6 -0.95 29.95 -0.95 M30.55 2.1 L30.5 2.1 30.5 2.4 30.55 2.2 30.55 2.1 30.55 2.0 30.65 2.0 30.7 2.3 30.75 2.15 30.75 2.3 30.7 2.3 30.65 2.6 M26.05 4.0 L25.9 4.4 25.9 4.3 26.05 4.0 26.05 3.9 26.1 3.6 26.1 3.85 26.2 3.75 26.35 3.45 26.75 4.1 26.85 4.1 26.9 3.7 26.95 3.25 27.05 3.35 Q27.05 3.0 26.4 2.8 L25.6 2.7 25.55 2.85 25.5 3.1 25.8 3.85 25.8 3.95 25.7 3.95 25.8 4.3 Q25.2 4.05 25.1 3.45 L25.2 3.45 25.45 3.75 25.7 3.95 25.55 3.55 25.4 3.15 25.1 3.15 25.1 2.7 25.2 2.7 25.4 3.15 M26.1 3.85 L26.1 3.95 26.2 3.75 M26.05 3.9 L26.1 3.85 M21.4 2.9 L21.5 3.35 M28.5 15.55 L28.1 16.35 28.1 15.65 28.4 14.9 M25.25 16.15 L25.6 16.15 26.0 16.25 25.6 17.0 M23.15 16.75 L23.1 16.95 23.15 16.7 23.15 16.75 M19.9 12.4 L20.35 12.8 20.55 13.25 M22.9 19.95 L22.95 20.45 M18.35 0.0 L18.15 0.2 18.15 0.1 18.35 -0.1 18.35 0.0 M16.6 0.05 L16.55 0.15 M17.7 4.3 L17.8 4.6 17.9 4.7 17.95 4.7 17.95 5.15 17.9 5.15 17.8 4.6 17.6 4.4 17.7 4.3 M12.45 2.9 L12.45 3.05 12.55 3.05 12.45 2.9 M10.35 6.7 L10.35 6.2 10.25 6.2 10.2 6.5 10.15 6.9 10.35 6.7 M12.15 10.85 L12.2 11.2 12.35 11.55 12.45 11.6 12.55 11.65 Q12.45 11.3 12.7 10.8 L12.45 10.05 12.55 10.15 12.75 10.35 Q12.75 9.95 13.0 9.75 13.25 9.6 13.6 9.55 L13.75 9.25 14.05 9.6 14.15 9.65 14.15 9.8 14.25 10.0 14.3 10.0 14.35 9.75 14.35 9.65 14.3 10.0 M13.6 9.55 L13.75 9.55 14.0 9.6 14.05 9.6 14.05 9.65 14.15 9.8 14.15 10.2 14.25 10.0 14.3 10.1 14.55 10.55 14.6 10.4 Q14.8 9.75 15.2 9.75 L15.4 9.75 15.5 9.85 15.3 10.4 14.75 10.9 14.55 10.55 14.25 11.65 13.25 11.0 12.9 10.5 12.75 10.75 12.8 10.95 12.85 11.2 12.9 11.35 12.95 11.45 12.95 11.55 12.9 11.35 M14.05 9.65 L14.05 9.75 13.85 10.1 13.8 10.25 13.7 10.8 13.75 10.8 14.15 10.2 14.15 10.6 14.25 10.0 M12.7 10.8 L12.75 10.75 12.75 10.35 12.9 10.5 13.0 10.35 13.6 9.55 M14.05 9.75 L13.9 9.95 13.8 10.25 M12.7 10.8 L12.85 11.2 M8.1 0.9 L8.0 1.05 7.75 1.2 7.75 1.25 7.7 1.25 7.6 1.35 Q7.15 1.75 6.85 1.75 L6.3 1.5 6.0 0.9 5.75 0.65 Q5.3 0.25 4.7 0.0 L5.15 0.0 6.5 0.25 Q7.6 0.55 7.75 1.1 L8.05 0.9 8.15 0.7 8.25 0.7 8.1 0.9 8.25 0.8 8.45 0.55 8.85 0.5 9.2 0.0 9.6 0.4 8.85 0.5 M8.05 0.9 L8.1 0.9 M7.75 1.2 L7.75 1.1 7.5 1.2 7.7 1.25 7.75 1.2 8.05 0.9 M7.4 1.25 L7.5 1.2 7.15 1.05 7.4 1.25 7.45 1.25 7.7 1.25 M6.35 0.5 L6.25 0.5 7.15 1.05 6.95 0.95 6.35 0.5 M6.0 0.9 L6.05 0.95 Q6.4 1.35 6.8 1.35 L7.4 1.25 M6.6 4.2 L6.6 4.1 6.45 4.1 6.5 4.15 6.6 4.2 6.65 4.35 6.7 4.6 6.7 4.7 6.65 4.95 7.1 4.95 7.15 4.9 6.65 4.15 6.6 4.1 M6.45 4.1 L6.45 4.15 6.45 4.35 6.4 4.25 6.4 4.4 6.35 4.7 6.6 4.2 M6.45 4.15 L6.4 4.25 6.4 4.1 6.25 4.1 6.25 3.85 6.4 4.1 6.45 4.1 6.45 3.85 6.8 4.0 7.2 4.1 7.2 4.85 7.15 4.9 7.3 5.2 6.95 5.6 6.45 5.9 6.4 5.75 6.35 5.45 6.15 4.95 6.05 4.95 6.0 4.65 5.95 4.2 6.1 4.75 6.15 4.95 6.55 4.95 6.7 4.7 M6.4 5.2 L6.35 5.45 6.5 5.45 6.65 5.05 6.65 4.95 6.55 4.95 6.4 5.2 M2.35 5.55 L2.5 5.85 2.35 5.85 2.35 5.55 2.35 5.05 2.25 5.35 2.25 5.55 2.15 5.55 2.25 5.35 M5.1 11.3 L5.3 11.85 M9.85 6.2 L10.05 7.0 10.15 6.9 M14.45 17.55 L15.1 18.7 15.2 18.5 15.2 18.2 15.2 18.05 15.5 18.25 M17.1 18.05 L17.0 17.4 M19.9 17.0 L19.85 17.4 20.0 16.9 19.9 17.0 M19.85 17.45 L19.8 17.85 19.6 18.4 19.6 18.05 19.1 17.6 19.1 17.55 19.4 16.9 19.45 17.05 19.5 17.15 19.5 17.2 19.6 17.4 19.6 17.45 19.6 17.55 19.7 18.05 19.7 17.95 19.85 17.45 19.85 17.4 M19.45 17.05 L19.45 17.1 19.5 17.15 M19.6 17.45 L19.55 17.4 19.55 17.35 19.5 17.2 M19.6 17.45 L19.55 17.35 M19.6 17.55 L19.6 18.05 M18.85 16.7 L18.9 17.1 M19.45 17.1 L19.4 16.9 M14.05 17.55 L14.0 18.25 13.55 17.6 13.4 17.4 12.85 17.3 12.5 17.2 12.65 17.15 12.8 16.95 M14.9 20.45 L14.65 20.75 14.75 20.8 14.9 20.7 14.9 20.45 14.9 20.15 14.55 20.15 14.55 20.7 14.65 20.75 14.55 20.9 14.55 20.7 M14.55 20.15 L14.5 20.15 14.45 20.15 14.35 19.65 14.95 20.15 15.2 20.7 15.1 20.6 15.05 20.5 14.9 20.45 M14.55 20.15 L14.55 20.05 14.5 20.15 M16.6 0.05 L16.6 -0.1" fill="none" stroke="#000000" stroke-linecap="round" stroke-linejoin="round" stroke-opacity="0.98039216" stroke-width="0.05"/>
  </g>
</svg>
