<?xml version="1.0" encoding="UTF-8" standalone="no"?>
<svg xmlns:xlink="http://www.w3.org/1999/xlink" height="31.85px" width="31.95px" xmlns="http://www.w3.org/2000/svg">
  <g transform="matrix(1.0, 0.0, 0.0, 1.0, 0.05, 6.95)">
    <path d="M3.4 -4.85 L3.75 -5.15 4.05 -5.7 4.15 -5.7 3.9 -4.9 4.25 -5.15 4.7 -5.15 5.1 -5.7 5.0 -5.35 4.9 -4.95 5.3 -5.1 5.6 -5.35 5.65 -5.35 5.1 -4.85 4.7 -4.45 4.6 -4.45 4.7 -4.8 4.7 -5.15 4.5 -4.85 3.55 -4.1 3.85 -4.9 3.8 -4.9 3.4 -4.85 3.45 -5.35 3.45 -5.7 3.2 -4.85 3.1 -4.65 3.1 -4.4 3.05 -4.6 2.85 -4.45 Q2.5 -4.45 2.2 -4.85 L1.95 -5.55 1.95 -4.75 1.85 -4.85 1.65 -5.6 1.7 -6.05 1.75 -6.35 1.85 -6.25 1.95 -5.95 2.05 -5.65 2.25 -5.05 2.35 -5.45 2.5 -5.7 2.7 -5.4 2.7 -5.5 2.85 -5.2 2.85 -5.15 2.9 -5.05 3.0 -4.85 3.05 -4.6 3.1 -4.65 3.1 -5.1 3.0 -5.6 M3.9 -4.9 L3.85 -4.9 M3.5 -5.7 L3.5 -5.75 3.45 -5.7 3.5 -5.7 M2.9 -5.05 L2.8 -5.2 2.7 -5.4 2.85 -5.2 M2.95 -4.9 L2.9 -5.05 2.9 -4.75 3.0 -4.75 3.0 -4.85 2.95 -4.9 M1.95 -5.95 L1.95 -5.55 M0.15 -5.9 L-0.05 -5.5 -0.05 -6.15 0.05 -6.1 0.15 -6.1 0.15 -5.9 0.2 -5.85 0.15 -5.8 0.15 -5.9 M2.45 -0.1 L2.55 -0.1 2.25 -0.3 2.0 -0.45 2.0 -0.25 Q2.1 0.35 2.35 0.5 L2.35 0.1 2.4 -0.05 2.45 -0.1 M2.0 -0.45 L1.95 -0.45 1.95 -0.3 1.95 -0.2 1.95 -0.15 1.85 0.4 1.85 0.3 1.9 -0.1 1.95 -0.15 M2.0 -0.45 L1.95 -0.95 1.95 -0.45 M2.6 -0.05 L2.4 0.5 2.6 0.5 2.8 -0.4 2.75 -0.5 2.6 -0.1 2.6 -0.05 2.55 -0.1 2.6 -0.1 M2.75 -0.5 L2.7 -0.75 2.8 -0.75 2.8 -0.4 M12.45 -5.15 L12.2 -5.0 11.95 -4.95 11.95 -5.5 12.05 -5.9 11.95 -5.8 11.6 -4.95 11.3 -4.3 11.3 -4.35 11.45 -5.0 11.7 -5.5 11.6 -5.4 11.0 -4.2 10.25 -3.6 9.85 -3.85 9.6 -3.8 9.35 -3.85 9.1 -3.5 8.7 -4.2 8.5 -4.7 8.45 -4.75 8.45 -4.85 8.5 -4.7 9.1 -4.05 9.35 -3.85 9.45 -4.05 9.6 -4.45 9.7 -4.2 9.7 -4.3 10.15 -5.8 9.65 -5.15 9.1 -4.45 9.2 -4.65 9.45 -5.15 9.7 -5.6 9.5 -5.35 9.2 -5.05 9.2 -5.5 9.3 -5.8 9.0 -5.35 8.65 -4.85 8.4 -5.45 8.35 -5.9 8.15 -5.4 8.15 -5.25 8.0 -4.9 7.75 -4.75 7.7 -4.85 7.65 -4.85 7.65 -5.25 7.55 -4.85 7.3 -4.85 7.25 -5.3 7.2 -5.7 M8.05 -5.8 L8.05 -5.75 7.95 -5.6 7.95 -4.95 8.15 -5.4 8.15 -5.7 8.05 -5.8 M9.8 -3.95 L9.85 -3.85 10.45 -4.45 10.6 -4.9 10.8 -5.65 10.4 -4.95 9.7 -4.2 9.8 -3.95 M9.4 1.15 L9.4 1.45 9.4 1.35 9.4 1.15 9.25 0.7 9.0 0.0 9.0 0.1 8.9 0.65 8.9 0.7 8.85 0.95 8.8 0.95 8.75 1.15 8.75 0.95 8.65 0.95 8.7 0.4 8.75 0.35 8.75 -0.45 8.85 -0.35 8.9 -0.05 9.0 -0.2 9.5 0.4 9.7 0.0 9.8 0.15 9.95 0.2 9.95 0.4 9.9 0.7 9.85 0.85 9.85 1.35 9.8 1.35 9.8 0.85 9.8 0.15 9.85 0.85 9.8 0.85 M14.8 -5.4 L14.8 -4.95 15.0 -5.6 15.1 -5.6 15.1 -5.25 15.2 -4.85 15.3 -4.85 17.05 -4.7 17.3 -4.65 17.3 -4.75 17.45 -4.95 17.3 -5.2 Q16.85 -5.7 15.8 -5.7 L14.9 -5.6 14.8 -5.4 M15.2 -4.85 L14.55 -4.75 14.35 -4.7 14.65 -4.3 13.75 -4.45 13.7 -4.65 14.35 -4.7 14.0 -5.0 13.45 -5.2 12.85 -5.05 12.75 -5.05 13.0 -5.15 13.35 -5.25 13.45 -5.2 14.9 -5.6 M10.8 -5.65 L10.85 -5.7 10.85 -5.8 10.8 -5.65 M11.0 -5.6 L10.45 -4.45 10.35 -4.0 10.8 -4.6 11.0 -5.25 11.0 -5.6 M13.5 -0.35 L13.6 -0.35 13.6 0.0 13.65 0.05 13.7 0.1 13.7 -0.25 13.65 -0.5 13.6 -0.75 13.5 -0.75 13.5 -0.35 13.5 0.4 13.6 0.3 13.6 0.0 M17.3 -5.2 L17.6 -5.15 17.65 -5.25 17.7 -5.4 17.8 -5.5 17.8 -5.4 17.7 -4.85 17.6 -4.6 17.7 -4.6 17.75 -4.7 17.9 -5.15 17.9 -5.05 Q17.95 -4.75 18.15 -4.55 L18.15 -4.85 18.65 -4.85 19.1 -4.55 19.1 -4.45 18.95 -4.4 19.5 -4.2 19.9 -4.0 20.0 -4.05 20.8 -4.75 20.75 -5.7 20.6 -5.15 20.15 -4.75 20.1 -5.0 20.05 -5.25 20.1 -5.55 M17.65 -5.25 L17.75 -5.45 17.8 -5.5 M18.95 -4.4 L18.55 -4.45 18.25 -4.5 Q18.45 -4.35 18.65 -4.35 L18.95 -4.4 M18.15 -4.55 L18.15 -4.5 18.25 -4.5 18.2 -4.55 18.15 -4.55 M18.15 -4.5 L18.15 -4.2 18.35 -3.85 18.7 -3.8 19.9 -4.0 20.05 -4.0 Q20.7 -4.0 21.5 -5.25 L22.45 -6.75 23.0 -6.05 23.1 -5.85 24.35 -6.15 25.3 -6.15 25.3 -6.1 25.35 -6.0 25.4 -6.0 Q25.3 -5.5 24.45 -5.15 L23.95 -4.95 24.1 -4.9 Q25.6 -4.35 26.05 -4.35 L27.0 -4.8 26.85 -4.95 27.45 -5.05 28.0 -5.4 27.55 -5.35 27.1 -5.35 26.65 -5.85 26.6 -5.9 26.65 -5.9 26.65 -5.85 27.85 -5.7 28.15 -5.5 28.35 -5.8 Q28.25 -6.3 28.5 -6.6 28.7 -6.85 29.15 -6.95 L29.2 -6.8 29.25 -6.55 29.15 -6.4 29.15 -6.35 29.1 -6.35 29.1 -6.3 28.95 -6.05 28.8 -5.8 28.7 -5.65 28.7 -5.25 29.7 -5.55 30.1 -5.7 30.5 -6.1 30.5 -5.85 30.9 -6.2 31.05 -6.55 M17.6 -5.15 L17.6 -5.1 17.65 -5.2 17.65 -5.25 M17.65 -5.2 L17.65 -5.1 17.7 -4.95 17.75 -5.45 M17.6 -5.1 L17.65 -5.1 17.6 -4.95 17.6 -4.6 17.3 -4.65 17.5 -4.9 17.45 -4.95 17.6 -5.15 M17.7 -4.85 L17.7 -4.95 M17.5 -4.9 L17.6 -5.1 M17.6 -4.6 L17.6 -4.55 17.6 -4.35 17.7 -4.6 18.15 -4.5 M17.6 -4.6 L17.5 -4.9 M29.1 -6.3 L29.05 -6.3 28.85 -6.0 28.8 -5.8 M29.05 -6.3 L29.15 -6.45 29.15 -6.4 29.1 -6.35 M25.3 -6.1 L24.25 -5.5 23.6 -5.1 23.95 -4.95 23.5 -4.95 23.4 -4.95 23.6 -5.1 21.8 -5.6 23.1 -5.85 23.5 -5.6 Q23.75 -5.6 24.65 -6.1 L25.3 -6.1 M20.85 -4.55 L21.05 -4.8 21.2 -5.25 21.2 -5.35 20.8 -4.75 20.85 -4.55 M21.7 0.4 L21.7 0.35 21.85 -0.1 21.95 -0.15 21.8 -0.95 21.8 -1.8 22.35 -1.05 22.45 -0.5 22.85 -0.65 22.65 -0.1 22.15 0.5 22.05 1.0 21.65 1.55 21.55 1.5 21.4 2.1 21.4 2.2 21.3 1.75 21.2 1.25 21.2 1.15 21.55 1.5 21.7 0.4 21.4 0.95 21.4 0.85 21.45 -0.7 21.4 -0.85 21.4 -0.75 21.4 -0.55 21.2 0.3 20.85 1.55 20.85 1.45 20.75 2.0 Q20.65 2.0 20.6 2.1 L20.55 2.2 20.25 0.7 20.1 0.25 20.1 0.3 19.7 1.35 19.7 1.25 19.8 0.2 19.9 -0.65 20.1 0.25 20.35 -1.05 20.55 -1.0 20.9 -0.95 21.2 -1.3 21.05 -1.4 20.75 -1.2 20.75 -1.4 21.05 -1.4 21.3 -1.65 21.6 -1.95 21.2 -1.35 21.2 -1.3 21.35 -1.05 21.4 -1.35 21.4 -0.85 21.35 -1.05 21.1 0.05 20.85 1.45 20.85 0.5 20.85 0.0 M22.0 -0.05 L22.15 -0.2 21.95 -0.15 22.0 -0.05 22.05 0.25 22.15 0.5 22.1 0.5 22.05 0.25 M22.15 -0.2 L22.45 -0.25 22.45 -0.5 22.15 -0.2 M30.9 -6.2 L30.8 -5.95 30.65 -5.35 30.65 -5.25 31.15 -6.05 31.6 -6.75 31.6 -6.3 31.8 -6.0 31.9 -6.1 31.4 -5.35 30.65 -4.85 30.5 -4.85 30.5 -5.85 30.1 -5.7 30.0 -5.6 29.5 -5.15 M28.15 -5.5 L28.2 -5.45 28.4 -5.55 28.85 -6.0 M28.3 -5.15 L28.3 -5.2 27.45 -5.05 27.2 -4.9 27.0 -4.8 27.3 -4.7 27.75 -4.65 28.1 -4.75 28.3 -5.15 M28.15 -5.5 L28.0 -5.4 28.2 -5.45 28.3 -5.2 28.7 -5.25 M25.45 -5.7 L25.4 -5.6 25.4 -5.7 25.45 -5.7 25.45 -5.75 25.5 -5.8 25.5 -5.85 25.5 -6.0 25.55 -5.9 25.6 -5.25 25.7 -5.15 25.85 -5.45 26.0 -5.7 25.95 -5.45 25.9 -5.2 25.85 -5.45 M25.55 -5.9 L25.5 -5.85 M27.15 0.2 L27.15 -0.1 27.1 -0.65 27.1 -0.7 27.1 -0.75 26.75 -0.95 M27.1 -0.65 L27.15 -0.6 27.15 -0.65 27.25 -0.55 27.1 -0.7 M27.5 -0.25 L27.3 -0.45 27.25 -0.55 27.15 -0.6 27.15 -0.1 M26.65 2.5 L26.7 2.8 26.85 3.15 27.5 2.4 27.3 2.85 27.25 2.95 27.15 3.05 27.2 2.95 27.25 2.9 27.25 2.95 M22.0 -0.05 L21.95 0.0 21.7 0.4 M22.65 7.55 L22.4 7.8 22.35 8.1 22.4 8.45 22.45 8.7 22.6 8.6 22.65 8.3 22.85 8.25 23.15 8.3 23.2 7.85 22.95 8.15 22.95 7.65 22.65 7.95 M28.7 17.65 L27.75 17.75 27.5 17.75 Q27.35 17.7 27.35 17.45 M28.05 16.8 L28.35 16.85 M26.25 17.3 L25.9 17.65 M20.95 20.8 L21.05 21.3 M25.15 22.15 Q24.7 21.9 24.65 21.4 M30.2 20.55 L30.25 20.25 30.2 19.95 30.1 19.95 30.1 20.05 30.05 20.15 30.0 20.35 30.0 20.05 30.1 20.05 M30.35 16.05 L30.65 15.75 31.05 16.15 31.25 16.55 31.25 16.8 31.35 17.05 31.3 17.1 31.25 17.15 31.0 17.3 30.65 17.35 M31.25 16.8 L31.2 16.9 30.95 17.3 31.0 17.3 31.05 17.25 31.25 17.15 M14.35 5.35 L14.65 6.7 14.75 6.7 14.75 5.75 14.9 6.2 15.2 6.1 M14.15 11.85 L14.35 11.75 14.25 11.85 14.15 11.85 M8.9 0.65 L8.9 0.25 8.9 -0.05 8.75 0.35 8.75 0.95 8.8 0.95 8.9 0.7 M2.35 0.5 L2.4 0.5 2.35 0.6 2.35 0.5 M10.05 6.3 L10.0 6.9 9.85 7.55 9.85 7.45 9.85 7.0 9.7 7.65 9.7 6.4 9.8 6.7 9.85 7.0 9.8 6.85 9.8 6.7 M5.75 6.3 L5.5 6.3 Q5.5 6.6 6.05 7.1 L5.95 6.6 M7.45 17.7 L7.1 18.05 7.15 17.45 7.05 17.45 6.9 17.65 6.25 17.85 5.85 17.75 Q5.55 17.6 5.55 17.3 L5.6 17.05 M5.35 18.45 L5.5 18.85 5.55 18.85 6.35 19.3 6.95 19.15 6.65 19.0 5.75 18.4 5.85 18.4 6.45 18.85 6.65 19.0 7.05 19.1 7.25 19.0 Q7.1 18.5 6.0 18.2 L5.2 18.05 M7.05 17.45 L6.65 17.3 6.15 17.05 Q5.8 16.8 5.75 16.35 6.1 17.05 6.65 17.25 L6.65 17.3 6.7 17.3 7.15 17.2 7.15 17.45 M7.05 17.45 L7.15 17.2 M5.5 18.85 L5.8 19.4 6.4 19.65 Q6.65 19.65 7.15 19.25 L7.25 19.2 7.2 19.15 7.0 19.2 6.95 19.15 7.05 19.1 7.2 19.15 7.3 19.15 7.25 19.0 7.55 18.85 7.6 18.85 7.5 19.0 7.3 19.15 7.3 19.2 7.25 19.2 7.3 19.15 7.55 18.85 M6.8 23.15 L6.45 23.5 5.95 23.85 5.9 23.65 5.85 23.4 5.7 22.9 5.55 22.9 5.5 22.55 5.45 22.15 5.45 22.1 5.6 22.7 5.7 22.9 6.1 22.9 6.25 22.65 6.25 22.55 6.2 22.3 6.15 22.15 5.85 22.6 5.9 22.35 5.95 22.2 5.9 22.05 5.75 22.05 5.75 21.75 5.9 22.05 5.95 22.05 5.95 21.75 6.3 21.95 6.7 22.05 6.7 22.8 6.65 22.85 6.8 23.15 M6.65 22.85 L6.65 22.9 6.2 22.9 6.2 23.0 6.05 23.4 5.85 23.4 5.95 23.15 6.1 22.9 6.2 22.9 6.25 22.65 M5.95 22.2 L5.95 22.05 6.15 22.05 6.2 22.1 6.65 22.85 M6.15 22.05 L6.15 22.15 6.05 22.1 5.95 22.05 M9.7 24.45 L9.7 24.8 9.85 24.65 9.85 24.15 9.75 24.15 9.7 24.45 M16.65 17.25 L16.45 16.85 16.25 16.6 M12.35 17.15 L11.95 17.55 11.75 17.25 11.6 17.0 10.8 17.85 10.6 17.45 M11.95 20.9 L12.0 20.95 12.0 21.0 12.05 21.0 11.95 20.8 11.95 20.9 12.0 21.0 M16.9 19.65 L16.5 19.25 16.35 19.3 16.15 19.0 Q16.05 18.85 16.25 18.45 L16.35 18.9 16.5 19.25 M17.2 22.25 L17.3 22.5 17.3 22.55 17.4 22.6 17.5 22.6 17.5 23.1 17.4 23.1 17.3 22.55 17.15 22.35 17.2 22.25 M16.6 17.95 L16.65 18.7 M9.4 24.15 L9.6 24.9 9.7 24.8" fill="none" stroke="#000000" stroke-linecap="round" stroke-linejoin="round" stroke-opacity="0.98039216" stroke-width="0.05"/>
  </g>
</svg>
