<?xml version="1.0" encoding="UTF-8" standalone="no"?>
<svg xmlns:xlink="http://www.w3.org/1999/xlink" height="12.8px" width="39.25px" xmlns="http://www.w3.org/2000/svg">
  <g transform="matrix(1.0, 0.0, 0.0, 1.0, 2.75, -11.1)">
    <path d="M27.1 12.4 L27.05 12.65 27.1 12.65 27.05 12.75 27.05 12.85 26.95 13.15 26.95 13.05 26.9 12.7 26.85 12.7 26.7 12.65 26.7 12.5 26.9 12.7 27.05 12.65 27.05 12.75 M20.3 14.65 L20.45 14.75 20.65 14.5 19.9 14.45 19.35 15.2 19.35 14.95 19.2 14.95 19.0 14.75 18.8 14.4 19.45 14.4 19.75 14.4 19.9 14.45 Q20.3 13.8 20.65 13.75 L20.65 14.5 20.8 14.5 20.8 14.8 20.75 14.8 20.8 14.95 20.8 15.3 20.55 14.85 20.25 15.45 20.25 14.65 20.3 14.65 20.45 14.8 20.45 14.75 20.55 14.8 20.65 14.65 20.8 14.5 M20.75 14.8 L20.7 14.75 20.65 14.65 20.75 14.8 M20.45 14.8 L20.5 14.8 20.55 14.8 20.55 14.85 20.5 14.8 20.4 14.95 20.45 14.8 M31.4 22.7 L31.15 23.15 31.1 23.2 Q30.9 23.55 30.85 23.8 L31.0 23.9 30.85 23.9 30.85 23.8 30.75 23.65 30.7 23.75 30.15 23.35 30.1 23.3 30.05 23.3 30.05 23.35 29.65 23.25 29.65 22.85 29.9 23.1 29.95 23.0 30.2 22.85 30.2 23.25 30.1 23.25 30.05 23.3 29.8 23.25 29.9 23.1 30.05 23.3 M30.75 23.65 L30.35 23.45 30.1 23.3 M35.45 15.3 L35.4 14.95 35.25 15.05 35.25 15.2 35.5 15.35 35.45 15.3 M34.6 15.6 L34.6 16.05 34.7 16.25 35.2 16.55 35.3 16.55 35.45 16.1 35.55 15.75 35.5 15.35 34.85 15.35 35.25 15.05 35.25 14.95 35.4 14.95 35.65 14.8 34.5 14.8 34.5 14.4 35.9 14.6 Q36.5 14.8 36.5 15.6 L36.45 16.0 36.35 16.4 36.35 16.2 36.2 16.15 36.2 15.6 36.1 15.6 Q35.95 16.5 35.3 16.55 M34.6 16.05 L34.6 16.95 M33.55 21.65 L33.55 21.75 33.95 21.5 33.7 21.5 33.55 21.65 M34.05 21.35 L34.05 21.4 34.0 21.4 34.1 21.45 34.15 21.5 34.3 21.5 34.5 21.65 34.35 21.65 34.15 21.5 34.0 21.5 33.95 21.5 33.95 22.15 34.2 22.15 34.55 21.5 34.6 21.4 34.3 21.15 34.15 21.3 34.05 21.35 34.2 21.1 34.3 21.15 34.6 20.8 34.6 20.7 34.6 21.4 34.7 21.55 35.0 22.15 35.3 21.85 35.35 21.75 35.4 21.65 35.95 21.75 35.95 22.05 35.65 21.95 35.35 21.75 M33.95 21.5 L34.0 21.4 M31.15 23.15 L31.0 23.1 30.95 22.9 30.85 22.85 30.85 22.95 30.8 23.45 30.75 23.65 M5.95 11.6 L6.2 11.75 6.2 11.6 5.95 11.6 M6.3 11.45 L6.55 11.2 Q6.8 11.0 7.15 11.2 L7.2 11.25 7.3 11.5 7.3 11.55 7.4 11.6 7.7 11.65 8.15 11.7 7.4 11.65 7.4 12.15 Q7.9 11.85 8.35 11.85 L8.35 12.0 8.3 12.0 6.45 13.6 6.2 13.55 6.2 12.9 Q5.95 12.9 5.8 12.65 L5.7 12.1 5.25 12.0 5.4 11.85 5.7 11.9 Q5.7 11.55 6.1 11.45 L6.3 11.45 6.6 11.45 6.9 11.45 7.05 11.45 7.3 11.55 7.25 11.6 7.3 11.6 7.4 11.6 7.4 11.65 7.3 11.6 M6.2 11.6 L6.3 11.45 M6.2 12.2 L6.7 12.25 6.8 12.2 6.3 12.05 6.2 12.05 6.2 12.2 6.2 12.5 6.7 12.25 6.85 12.25 7.05 12.25 6.95 12.2 6.85 12.2 6.8 12.2 M6.2 12.05 L5.7 11.9 5.65 12.0 5.7 12.1 6.1 12.2 6.2 12.2 M6.85 12.2 L6.55 12.0 6.2 11.75 6.2 12.05 M6.85 12.2 Q7.25 11.95 7.25 11.6 L6.95 11.6 6.85 11.6 6.2 11.6 M6.9 11.45 L6.95 11.5 7.25 11.6 M6.95 11.5 L6.85 11.6 M7.05 12.25 L7.15 12.25 7.3 12.25 7.4 12.15 7.4 12.2 7.6 12.2 8.3 12.0 M7.3 12.25 L7.05 12.4 6.2 12.9 Q6.85 13.05 7.2 12.65 L7.4 12.2 7.3 12.25 M6.2 12.9 L6.2 12.5 M1.65 23.1 L1.3 23.0 1.1 22.85 1.1 22.95 1.0 22.7 0.75 22.55 0.9 22.6 0.6 22.45 0.75 22.45 0.9 22.6 0.95 22.6 1.65 22.7 1.65 22.85 1.25 22.75 0.95 22.6 1.0 22.7 M19.4 14.65 L19.35 14.95 19.45 14.95 19.45 14.4 19.4 14.65 M-0.7 19.2 L-0.6 19.1 -1.0 18.7 -1.6 18.7 -1.75 18.7 -1.75 18.85 -1.8 19.35 -1.75 19.35 -1.5 19.4 -1.55 19.1 -1.4 19.4 -1.35 19.45 -1.25 19.2 -0.7 19.2 -0.45 19.2 -0.4 19.45 -0.35 19.9 -0.45 20.35 -0.45 20.8 -0.6 20.95 -0.9 20.55 -1.0 20.55 -1.25 20.8 -1.8 21.05 -1.7 21.35 -1.55 21.5 -1.65 21.5 -1.7 21.4 -1.95 21.2 Q-1.85 21.2 -1.7 21.35 L-1.7 21.4 -1.55 21.5 M-0.95 19.55 L-1.35 19.45 -1.4 19.5 -1.3 19.75 -1.15 19.75 -0.95 19.55 -0.85 19.4 -0.7 19.2 M-0.95 19.55 L-0.75 19.6 -0.75 19.5 -0.6 19.5 -0.6 19.55 -0.55 19.6 -0.45 19.75 -0.45 20.35 -0.55 20.45 -0.6 20.45 -0.85 20.45 -0.85 20.55 -0.9 20.55 -0.95 20.45 -1.0 20.55 -1.5 20.3 -1.8 19.9 -1.95 19.75 -1.95 20.0 -1.85 20.75 -1.8 21.05 -2.0 21.1 -2.4 21.1 -2.75 20.7 -2.55 19.8 -2.4 19.25 -2.6 19.2 -2.35 18.9 -2.35 18.55 -2.2 18.8 -2.15 18.75 -1.75 18.7 -1.65 18.15 M-0.75 19.6 L-0.6 19.75 -0.85 20.35 -0.85 20.45 -0.9 20.45 -0.95 20.45 -1.35 20.3 -1.8 19.9 -1.8 19.75 -1.8 19.6 -1.95 19.75 M-2.35 18.9 L-2.4 19.25 -1.8 19.35 -2.2 18.8 -2.35 18.9 M-1.4 19.6 L-1.4 19.5 -1.4 19.4 -1.5 19.4 -1.4 19.6 -1.4 19.75 -1.3 19.75 -1.15 20.0 -0.95 20.45 M-1.8 19.6 L-1.8 19.35 M-1.4 19.75 L-1.75 19.35 M-0.9 20.45 L-0.85 20.35 -0.75 19.6" fill="none" stroke="#000000" stroke-linecap="round" stroke-linejoin="round" stroke-opacity="0.98039216" stroke-width="0.05"/>
  </g>
</svg>
