<?xml version="1.0" encoding="UTF-8" standalone="no"?>
<svg xmlns:xlink="http://www.w3.org/1999/xlink" height="34.9px" width="33.05px" xmlns="http://www.w3.org/2000/svg">
  <g transform="matrix(1.0, 0.0, 0.0, 1.0, 0.3, 10.25)">
    <path d="M4.05 -9.6 L4.0 -9.55 3.7 -9.1 3.1 -8.55 3.1 -9.15 3.2 -9.35 3.15 -9.4 2.7 -8.85 1.65 -8.0 1.6 -8.1 1.55 -8.1 1.55 -8.65 1.6 -8.7 1.5 -8.55 Q1.25 -8.0 1.0 -8.0 L0.85 -8.05 0.45 -7.6 0.15 -8.95 0.05 -8.95 -0.05 -8.7 -0.1 -8.8 -0.3 -9.05 -0.3 -9.6 -0.2 -9.55 -0.15 -9.5 -0.1 -9.15 -0.05 -8.85 0.05 -9.9 0.15 -9.9 0.45 -9.6 0.7 -9.25 1.0 -8.7 1.15 -9.35 1.5 -10.0 1.6 -9.75 1.65 -9.65 1.65 -9.7 Q1.8 -9.9 2.1 -9.9 L2.8 -9.6 Q3.15 -10.2 3.45 -10.2 L4.05 -9.6 4.05 -9.7 4.15 -9.7 4.05 -9.6 4.15 -9.4 Q4.55 -8.55 4.9 -8.55 L5.75 -9.15 6.2 -9.45 6.15 -9.5 6.25 -9.5 6.3 -9.45 7.0 -9.7 7.15 -8.85 7.7 -8.65 8.05 -8.5 8.35 -8.75 9.2 -9.3 9.2 -9.15 9.6 -9.5 9.8 -9.5 9.95 -8.35 10.05 -8.55 Q10.35 -8.95 10.65 -8.95 L11.15 -8.75 11.25 -8.65 11.9 -9.25 12.5 -9.95 12.75 -10.25 12.7 -9.95 12.85 -10.0 13.3 -9.8 13.5 -9.5 13.6 -8.9 13.5 -8.35 13.5 -8.3 13.6 -8.45 15.0 -10.1 14.75 -8.35 Q14.95 -8.35 15.95 -9.3 L15.95 -9.4 16.05 -9.35 Q16.95 -10.2 17.3 -10.2 L17.35 -9.9 17.4 -9.45 17.35 -8.9 17.2 -8.3 17.25 -8.3 18.55 -9.6 18.75 -9.6 18.85 -8.8 18.85 -8.5 19.0 -8.35 20.15 -8.35 20.25 -8.35 20.15 -8.8 20.15 -8.85 20.15 -8.95 19.9 -9.6 20.0 -9.5 20.2 -9.25 20.25 -9.4 20.25 -9.5 20.65 -9.05 20.65 -8.2 20.55 -8.2 20.55 -8.0 21.75 -9.35 21.75 -9.45 21.8 -10.0 22.15 -9.4 22.6 -9.5 22.85 -9.45 22.95 -9.4 22.95 -8.95 22.65 -8.4 22.95 -8.5 23.1 -8.85 Q23.4 -9.25 23.9 -9.25 L23.95 -9.25 24.1 -9.2 24.45 -9.15 24.9 -9.55 25.2 -10.0 25.3 -9.55 25.25 -9.15 25.45 -9.3 25.9 -9.8 M6.2 -9.45 L6.3 -9.45 7.15 -8.85 7.2 -8.55 7.3 -8.45 7.6 -8.25 8.05 -8.5 8.75 -8.2 8.85 -8.35 9.2 -9.05 9.2 -9.15 9.3 -8.45 9.3 -7.9 8.75 -8.2 8.55 -7.9 8.35 -7.6 7.6 -8.25 7.45 -8.2 7.25 -8.2 7.2 -8.25 7.2 -8.55 6.2 -9.45 M9.95 -8.35 L9.95 -8.15 10.05 -7.65 10.7 -8.1 11.25 -8.65 11.6 -8.2 12.1 -9.25 12.7 -9.95 12.35 -8.45 12.35 -7.95 Q13.25 -8.75 13.5 -9.4 L13.5 -9.5 M13.5 -8.3 L13.4 -7.85 13.4 -8.2 12.6 -7.5 12.4 -7.5 12.35 -7.6 12.35 -7.95 12.15 -7.85 Q11.15 -7.05 10.7 -7.05 10.25 -7.05 10.05 -7.65 L9.9 -7.6 9.75 -7.65 9.7 -7.7 9.95 -8.35 M3.15 -9.4 L2.8 -9.55 2.8 -9.6 2.35 -8.75 1.95 -9.05 Q1.75 -9.15 1.65 -9.2 L1.65 -9.05 1.6 -8.8 1.6 -8.7 M3.2 -9.35 L3.3 -9.65 3.15 -9.4 M3.4 -9.7 L3.4 -9.8 3.3 -9.65 3.4 -9.7 M4.0 -9.55 L3.9 -9.45 3.7 -9.25 3.2 -9.35 M0.85 -8.05 L0.6 -8.35 Q0.45 -8.8 0.45 -9.35 L0.45 -9.6 M1.65 -9.65 L1.65 -9.6 1.65 -9.5 1.65 -9.45 1.65 -9.2 1.55 -9.25 1.6 -9.6 1.55 -9.6 1.15 -8.5 0.85 -8.05 M1.65 -9.65 L1.6 -9.6 1.65 -9.6 M1.0 -8.7 L1.0 -8.55 1.0 -8.45 1.0 -8.7 M4.0 -3.45 L3.85 -3.2 3.95 -2.95 3.95 -2.85 4.05 -3.6 4.0 -3.45 M0.8 -5.15 Q1.4 -5.0 1.3 -4.55 L0.95 -4.55 0.9 -4.45 0.8 -4.55 0.7 -4.55 0.6 -4.55 0.6 -4.75 0.6 -4.85 0.7 -4.65 0.8 -4.55 0.95 -4.55 1.1 -4.75 1.2 -4.85 1.05 -5.0 Q0.95 -5.1 0.8 -5.15 M0.7 -4.55 L0.65 -4.7 0.6 -4.75 M0.65 -4.7 L0.7 -4.65 0.7 -4.55 M8.35 -2.25 L8.55 -2.5 8.65 -2.65 9.2 -2.65 9.25 -3.0 9.05 -3.45 8.75 -3.2 8.25 -3.2 8.45 -3.85 8.8 -3.9 9.6 -3.65 9.85 -3.35 9.85 -3.4 9.95 -3.4 10.1 -3.05 10.35 -2.35 10.25 -2.4 10.25 -2.45 10.15 -2.6 10.15 -2.55 10.1 -2.15 9.7 -1.9 9.65 -1.95 9.6 -1.9 9.5 -1.9 9.6 -2.15 9.4 -2.6 9.2 -2.35 9.2 -2.65 9.4 -2.65 9.25 -3.0 9.3 -3.5 9.15 -3.5 9.05 -3.45 8.95 -3.6 9.0 -3.6 9.1 -3.55 9.15 -3.5 9.3 -3.6 9.3 -3.5 M10.1 -3.05 L9.85 -3.35 9.85 -2.95 10.1 -2.65 10.15 -2.6 10.1 -3.0 10.1 -3.05 M9.4 -2.65 L9.5 -2.65 9.7 -2.85 9.85 -2.85 9.85 -2.2 9.65 -1.95 9.6 -2.15 9.6 -2.65 9.5 -2.65 9.4 -2.6 9.4 -2.65 M15.95 -9.3 L16.0 -9.3 16.05 -9.35 16.8 -8.45 17.15 -8.35 17.2 -8.3 17.2 -8.25 17.25 -8.3 18.3 -8.1 18.35 -8.85 18.85 -8.5 18.9 -8.35 19.0 -8.35 19.4 -7.95 20.4 -7.4 21.1 -8.45 21.65 -9.05 21.75 -9.35 22.0 -9.6 22.0 -9.3 22.15 -9.4 22.15 -9.05 22.0 -8.2 22.0 -9.3 21.65 -9.05 21.5 -8.65 20.8 -7.65 20.5 -7.35 20.6 -7.25 Q21.05 -7.45 21.9 -8.1 L22.65 -8.4 22.1 -7.8 22.0 -7.7 22.65 -8.2 22.9 -8.4 22.95 -8.5 M29.8 -9.9 L29.9 -9.85 30.0 -9.8 30.0 -9.75 30.25 -9.4 30.8 -9.25 31.25 -9.15 31.6 -9.25 31.65 -9.25 31.6 -10.0 31.6 -10.1 32.1 -9.5 32.35 -9.8 32.75 -10.2 32.35 -9.45 32.05 -9.1 32.2 -8.7 32.15 -8.4 32.1 -8.2 31.9 -8.2 31.35 -8.95 31.15 -8.9 31.0 -8.55 30.65 -7.9 30.55 -8.0 30.4 -9.0 30.4 -9.05 30.1 -9.3 30.05 -9.5 29.8 -9.6 29.8 -9.9 29.7 -9.9 29.4 -10.0 29.0 -9.1 28.65 -8.55 28.7 -8.1 29.5 -9.3 29.7 -9.25 29.25 -8.15 28.75 -7.3 28.75 -7.4 28.7 -8.1 28.15 -7.15 Q27.5 -5.8 26.85 -5.8 L26.1 -5.85 26.0 -5.9 25.6 -5.35 25.3 -6.0 25.2 -6.5 24.95 -6.75 24.15 -7.65 24.05 -7.5 24.05 -7.6 24.1 -7.65 23.95 -7.85 23.5 -7.05 23.5 -8.1 23.95 -7.85 23.95 -7.9 24.2 -7.75 24.95 -8.7 24.9 -8.8 24.15 -8.2 24.15 -9.0 23.6 -8.75 23.0 -8.55 22.9 -8.4 22.7 -7.95 22.3 -7.05 21.7 -6.65 Q21.45 -6.65 20.6 -7.25 L20.25 -7.15 20.3 -7.2 19.5 -7.8 19.4 -7.95 18.9 -8.2 18.95 -8.1 18.75 -8.1 18.3 -8.1 17.95 -7.5 16.9 -8.35 16.8 -8.45 Q16.2 -8.8 16.0 -9.3 M20.25 -8.35 L20.25 -8.3 20.55 -8.2 20.45 -8.7 20.2 -9.25 20.2 -9.15 20.15 -8.95 M18.9 -8.2 L18.9 -8.35 18.75 -8.35 18.65 -8.25 18.9 -8.2 M19.95 -7.0 L20.0 -7.15 19.9 -7.15 19.9 -7.05 19.95 -7.0 19.95 -6.9 19.95 -6.85 19.95 -6.7 20.0 -6.65 19.95 -6.65 19.9 -6.3 19.9 -6.65 19.85 -6.65 19.8 -6.55 19.8 -6.65 19.85 -6.65 19.9 -6.75 19.9 -6.8 19.9 -7.05 M19.9 -6.75 L19.9 -6.65 19.95 -6.65 19.95 -6.7 19.9 -6.8 19.95 -6.85 M13.5 -9.4 L13.4 -8.35 13.4 -8.2 13.5 -8.3 M14.05 -5.4 L14.15 -5.05 14.35 -5.3 14.45 -5.6 14.45 -5.05 14.8 -5.25 M16.15 -3.05 L16.25 -2.6 16.35 -2.5 16.45 -2.35 16.55 -2.85 16.6 -2.4 16.6 -2.15 16.75 -1.8 16.65 -1.9 16.6 -2.15 16.45 -2.35 16.35 -2.0 16.3 -2.05 16.25 -2.1 16.25 -1.9 16.15 -1.9 16.15 -1.7 15.9 -2.0 15.5 -2.35 15.2 -2.0 15.1 -2.0 15.05 -2.2 15.0 -2.45 M15.25 -3.1 L15.1 -2.95 15.8 -2.55 16.15 -1.9 16.25 -2.35 16.25 -2.6 15.9 -2.85 15.8 -2.85 15.9 -2.65 15.8 -2.8 15.8 -2.85 15.65 -3.0 15.4 -3.3 15.25 -3.1 M16.25 -2.1 L16.25 -2.2 16.25 -2.35 M27.05 -9.7 L27.0 -8.8 27.0 -8.45 26.95 -7.15 27.4 -7.4 27.7 -8.2 27.95 -9.25 27.9 -9.7 28.0 -9.7 27.95 -9.25 28.0 -8.95 28.2 -8.35 28.35 -8.95 28.55 -9.6 28.65 -9.7 28.65 -8.55 28.1 -7.9 27.4 -7.4 26.95 -6.75 26.95 -7.15 26.45 -6.85 26.0 -5.9 25.2 -6.5 25.2 -6.6 24.8 -6.95 24.2 -7.75 24.2 -7.7 24.15 -7.65 24.1 -7.65 24.2 -7.7 M29.9 -9.85 L30.0 -9.75 30.05 -9.5 30.25 -9.4 30.4 -9.05 30.45 -9.0 30.9 -8.85 31.15 -8.9 31.25 -9.15 31.5 -9.1 31.6 -9.25 M25.2 -6.6 L25.35 -7.2 25.6 -7.5 Q26.05 -7.95 26.2 -9.15 L25.7 -8.5 25.2 -7.8 25.2 -8.85 25.25 -9.1 24.95 -8.75 24.95 -8.7 24.95 -8.55 24.8 -8.3 24.2 -7.75 M26.45 -6.85 Q25.9 -6.55 25.6 -6.55 L25.2 -6.6 M26.45 -6.85 L26.75 -7.6 27.0 -8.8 M22.0 -7.7 L21.4 -7.15 21.3 -7.05 21.2 -7.05 21.4 -7.15 M20.4 -7.4 L20.5 -7.35 20.3 -7.2 20.4 -7.4 M25.25 -9.1 L25.25 -9.15 25.05 -8.95 24.9 -8.8 24.65 -9.05 24.45 -9.15 24.15 -9.0 24.15 -9.15 24.1 -9.2 M23.0 -8.55 L22.95 -8.5 M23.9 -9.25 L23.25 -8.8 23.0 -8.55 M21.4 -1.6 L21.25 -1.3 21.1 -0.85 21.35 -1.05 21.5 -1.2 21.6 -1.3 21.65 -1.1 21.65 -1.15 21.7 -1.3 21.7 -0.85 21.65 -1.1 21.65 -1.05 21.7 -0.85 M30.2 -3.15 L30.35 -3.55 30.5 -3.9 30.55 -3.7 30.55 -3.4 30.55 -3.35 30.65 -3.55 30.75 -3.8 30.75 -4.55 30.1 -4.0 M26.75 -1.6 L26.7 -0.95 26.75 -1.05 27.05 -0.35 27.1 -0.2 27.1 -0.15 27.55 0.4 27.9 0.5 27.8 0.5 27.55 0.4 27.05 0.5 26.85 0.7 27.15 1.35 27.05 1.25 26.8 0.75 26.55 0.9 26.55 0.95 26.45 0.95 26.15 0.65 25.75 0.35 25.7 0.4 25.6 0.4 25.6 0.35 25.5 0.3 25.5 -0.35 25.6 0.35 25.75 0.35 26.1 -0.3 26.1 -0.35 26.1 -0.55 26.1 -0.8 25.8 -0.45 25.75 -0.55 25.7 -0.55 25.65 -1.1 25.5 -0.75 25.4 -0.75 25.4 -1.3 25.5 -1.65 25.6 -2.1 25.65 -1.1 25.8 -1.65 26.0 -2.45 26.05 -1.85 26.1 -0.9 26.1 -0.8 26.5 -1.6 26.55 -2.95 Q27.2 -2.6 27.3 -2.05 L27.4 -1.05 27.35 -0.95 27.15 -0.95 26.95 -1.15 Q26.75 -1.4 26.85 -1.6 L26.75 -1.6 M26.05 -1.85 L26.05 -1.7 26.1 -0.9 M26.35 -0.95 L26.25 -0.6 26.35 -0.35 26.35 -0.85 26.35 -0.95 M26.15 -0.55 L26.2 -0.45 26.25 -0.6 26.2 -0.65 26.15 -0.55 26.1 -0.8 M26.15 -0.55 L26.1 -0.55 M26.4 -0.05 L26.55 0.2 26.6 0.3 26.65 0.25 26.6 0.15 26.35 -0.35 26.4 -0.05 26.2 -0.45 26.1 -0.35 M26.65 -0.95 L26.6 -0.65 26.55 -0.25 26.65 -0.35 26.7 -0.95 26.65 -0.95 M25.25 -9.1 L25.45 -9.3 M31.5 -9.1 L31.9 -9.05 32.05 -9.1 31.95 -9.15 31.65 -9.25 M31.25 -9.15 L31.35 -8.95 31.5 -9.1 M27.1 -0.15 L27.1 0.0 27.05 0.3 26.65 -0.1 26.65 0.25 26.65 0.35 26.65 0.45 26.85 0.7 26.8 0.75 26.65 0.45 M26.65 0.35 L26.6 0.3 26.6 0.5 26.55 0.9 26.45 0.95 26.4 -0.05 M22.9 7.6 L23.05 7.75 22.95 7.75 22.9 7.6 22.75 7.45 22.9 7.55 22.9 7.6 M29.55 11.75 L29.9 11.65 29.95 11.8 30.0 12.05 29.9 12.2 29.9 12.25 29.85 12.25 29.9 12.15 29.9 12.2 29.85 12.25 M28.25 18.35 L28.1 18.15 27.9 17.95 27.9 18.5 27.9 18.8 M28.1 18.15 L27.85 17.9 27.9 17.95 M27.9 18.5 L27.85 17.9 27.85 17.85 27.5 17.65 M23.2 18.1 L23.6 17.95 23.4 18.5 M19.1 14.75 L19.45 14.8 20.55 14.7 20.25 14.4 19.7 14.2 19.4 14.15 M20.45 19.95 L20.5 19.65 20.45 19.85 20.45 19.95 M21.05 19.6 L21.1 19.9 M27.4 21.1 L27.45 21.4 27.6 21.75 M30.0 13.15 L30.45 13.05 30.7 13.1 30.25 13.45 M19.0 3.75 L19.0 3.15 M10.75 5.55 L10.85 5.15 11.0 4.8 11.1 4.95 11.15 5.05 11.3 5.45 11.2 5.45 11.15 5.2 11.15 5.05 11.0 5.15 11.1 4.95 M6.15 1.65 L6.05 0.95 6.0 1.25 6.0 1.05 6.05 0.75 6.05 0.95 6.15 0.5 M2.5 12.25 L2.45 12.55 2.4 13.0 M3.05 18.3 L3.35 18.45 3.4 18.15 3.4 18.5 3.55 18.2 3.5 17.85 3.55 17.85 3.55 18.2 M3.4 18.5 L3.35 18.5 3.35 18.45 M2.7 17.65 L2.75 18.1 M15.1 23.95 L15.3 24.65 15.5 24.35 M19.7 14.2 L19.85 14.15 19.85 14.05 19.4 13.75" fill="none" stroke="#000000" stroke-linecap="round" stroke-linejoin="round" stroke-opacity="0.98039216" stroke-width="0.05"/>
  </g>
</svg>
