<?xml version="1.0" encoding="UTF-8" standalone="no"?>
<svg xmlns:xlink="http://www.w3.org/1999/xlink" height="36.7px" width="42.0px" xmlns="http://www.w3.org/2000/svg">
  <g transform="matrix(1.0, 0.0, 0.0, 1.0, 2.6, 13.85)">
    <path d="M12.65 -13.3 L14.5 -13.45 13.75 -12.9 Q13.1 -12.55 12.9 -12.55 L12.85 -12.65 12.8 -12.65 12.75 -13.05 12.65 -13.3 12.3 -13.25 11.4 -12.65 11.1 -12.35 11.4 -12.3 13.15 -12.25 13.9 -11.95 Q14.35 -11.6 14.7 -11.6 L15.25 -11.75 14.7 -12.1 13.85 -12.55 13.85 -12.65 15.1 -12.15 14.95 -12.35 14.5 -13.2 15.15 -13.05 Q15.45 -12.8 15.7 -12.8 L17.0 -12.8 Q17.65 -12.75 17.85 -12.25 L17.7 -12.15 17.6 -12.1 17.05 -12.4 16.6 -12.65 15.75 -12.1 15.55 -11.95 15.85 -11.85 Q17.05 -11.3 18.2 -11.3 L19.5 -11.45 21.1 -11.6 21.2 -11.6 20.95 -11.95 20.8 -12.35 19.75 -12.3 19.4 -12.3 19.6 -11.85 18.95 -11.85 18.1 -12.25 18.25 -12.25 19.4 -12.3 19.35 -12.35 18.8 -12.65 18.8 -12.9 20.8 -12.4 20.8 -12.6 20.9 -13.05 21.1 -13.45 21.4 -13.0 21.55 -12.65 22.9 -12.85 23.15 -12.95 23.7 -13.05 23.95 -13.0 24.7 -13.05 25.05 -13.05 25.25 -12.9 25.1 -12.85 25.1 -12.8 24.85 -12.6 25.1 -12.55 25.45 -12.65 25.85 -12.8 26.5 -12.6 26.9 -12.4 27.25 -12.65 27.55 -12.9 Q27.75 -12.9 27.85 -12.7 L28.05 -12.4 Q28.45 -12.85 28.7 -12.9 L29.2 -12.8 29.45 -12.95 29.5 -13.2 29.9 -12.65 30.45 -13.0 30.7 -13.3 30.85 -13.45 31.15 -13.15 31.55 -12.8 31.55 -13.05 31.55 -13.3 31.6 -13.2 31.65 -13.05 31.55 -13.05 M11.1 -12.35 L10.65 -12.0 10.35 -12.05 10.35 -12.55 9.7 -12.9 10.35 -13.05 10.35 -13.45 Q9.7 -13.45 8.5 -12.3 L7.4 -11.2 7.4 -11.3 8.05 -12.4 8.3 -12.75 7.95 -12.7 Q7.6 -12.45 7.3 -12.4 L7.3 -12.55 7.8 -12.65 7.95 -12.7 8.5 -13.2 8.65 -13.25 8.3 -12.75 M12.3 -13.25 L10.35 -13.05 10.35 -12.55 11.1 -12.35 M0.6 -13.2 L0.7 -12.85 0.75 -13.05 0.7 -13.3 0.6 -13.3 0.6 -13.2 0.6 -12.9 0.6 -12.65 0.65 -12.7 0.7 -12.85 0.75 -12.7 1.1 -12.8 1.1 -12.9 1.35 -12.85 2.55 -13.2 2.6 -13.25 2.6 -13.3 2.75 -13.3 2.75 -13.25 3.55 -13.5 3.55 -13.6 3.6 -13.5 4.6 -13.85 4.7 -13.25 4.75 -13.25 4.85 -13.45 4.85 -13.3 5.15 -13.3 5.15 -12.9 5.55 -13.3 5.6 -12.85 5.65 -12.4 5.75 -12.4 5.8 -12.25 6.0 -12.75 6.2 -13.2 6.5 -12.85 6.85 -12.25 M0.45 -13.05 L0.45 -12.65 0.5 -12.65 0.55 -12.8 0.55 -12.95 0.45 -13.05 M0.6 -12.9 L0.55 -12.8 M0.6 -12.9 L0.55 -12.95 0.6 -13.2 M0.5 -12.45 Q0.6 -11.3 1.1 -11.05 1.3 -11.05 1.7 -11.85 L1.75 -11.9 1.55 -12.45 1.4 -12.8 1.1 -12.65 1.1 -12.0 0.85 -12.35 0.85 -12.25 0.5 -12.6 0.5 -12.45 0.35 -11.7 0.4 -12.35 0.5 -12.6 0.5 -12.65 0.05 -12.55 0.1 -12.9 0.2 -13.2 0.45 -12.65 M0.5 -12.65 L0.6 -12.65 0.6 -12.55 0.65 -12.7 0.75 -12.7 0.8 -12.6 0.85 -12.35 0.95 -12.5 1.1 -12.65 1.1 -12.8 1.35 -12.85 1.65 -12.8 1.85 -12.75 2.3 -12.6 2.5 -12.65 2.55 -12.9 2.6 -13.25 2.75 -13.25 2.95 -12.45 3.2 -12.3 4.0 -12.0 Q4.35 -12.0 4.55 -12.6 L4.7 -13.15 4.7 -13.25 4.25 -13.1 3.95 -13.0 4.2 -12.65 M1.5 -12.8 L1.55 -12.45 1.7 -12.15 1.75 -12.0 2.1 -12.45 1.65 -12.8 1.5 -12.8 M2.95 -12.45 L2.55 -12.65 2.5 -12.65 2.45 -12.55 2.3 -12.6 2.1 -12.45 Q2.35 -12.3 2.7 -12.2 L3.65 -11.7 M3.55 -13.5 L3.6 -13.5 3.85 -13.1 3.95 -13.0 3.55 -12.9 3.55 -13.5 M4.7 -13.15 L4.75 -13.25 4.85 -13.3 4.85 -12.65 5.15 -12.9 5.15 -12.25 5.0 -12.0 4.85 -12.0 4.85 -12.65 4.75 -12.55 4.7 -13.15 M7.3 -8.5 L7.55 -8.25 7.6 -8.65 7.7 -9.0 7.7 -7.45 M7.95 -7.85 L8.05 -8.1 7.95 -8.1 8.1 -8.75 8.2 -8.35 8.35 -8.35 8.35 -8.3 8.5 -8.1 8.5 -7.45 8.2 -8.25 8.2 -8.35 8.1 -8.35 8.1 -8.2 8.1 -8.1 8.05 -8.1 8.1 -8.2 M8.1 -8.75 L8.1 -8.35 M1.75 -11.9 L1.8 -11.7 1.75 -12.0 1.75 -11.9 M15.55 -11.95 L15.1 -12.15 15.35 -11.8 15.55 -11.95 M15.25 -11.75 L15.35 -11.8 15.6 -11.6 15.6 -11.45 15.25 -11.75 M20.8 -12.4 L20.8 -12.35 20.9 -12.4 20.8 -12.4 M21.55 -12.65 L21.55 -12.55 22.55 -12.05 Q23.3 -11.65 23.5 -11.7 L23.15 -12.4 22.8 -12.8 22.9 -12.85 22.95 -12.85 23.95 -13.0 24.45 -12.8 24.85 -12.6 24.75 -12.55 24.3 -12.1 Q23.75 -11.6 23.3 -11.6 L21.25 -12.25 20.9 -12.4 21.6 -12.4 21.55 -12.55 21.35 -12.65 21.55 -12.65 M21.85 -7.55 L22.0 -8.25 22.3 -8.25 22.7 -7.85 22.7 -7.95 22.6 -8.05 22.6 -8.1 22.5 -8.3 22.4 -8.5 22.6 -8.1 22.7 -7.95 23.1 -7.55 23.1 -8.1 22.95 -8.35 23.1 -8.35 23.1 -8.1" fill="none" stroke="#000000" stroke-linecap="round" stroke-linejoin="round" stroke-opacity="0.98039216" stroke-width="0.05"/>
    <path d="M25.9 14.5 L25.65 14.5 25.65 14.4 25.5 14.25 25.9 14.5 25.95 14.5 26.05 14.45 26.45 14.4 26.25 14.5 25.95 14.5 M30.3 19.6 L30.3 18.85 29.6 19.6 29.3 19.55 29.25 19.5 29.3 18.95 29.25 18.95 28.75 18.1 28.7 17.9 28.55 17.9 28.7 17.7 28.7 17.4 28.85 16.8 29.2 16.4 29.25 16.4 29.25 16.25 Q29.85 16.25 30.0 16.55 L30.05 16.85 30.2 17.0 30.85 17.95 31.0 17.75 31.1 17.75 31.05 18.2 31.0 18.7 Q31.75 18.7 32.15 18.1 L32.6 16.95 32.05 16.75 31.45 16.65 31.05 16.75 Q30.75 16.8 30.6 16.95 M29.8 16.65 L29.85 16.7 29.8 16.55 29.8 16.65 29.25 16.4 29.25 17.35 29.35 17.5 29.65 17.5 29.65 17.55 29.8 17.6 29.65 17.9 29.9 17.9 29.85 18.1 29.8 18.15 29.65 17.9 29.45 18.35 29.3 18.9 29.8 18.35 30.05 17.4 30.05 17.35 29.8 16.65 M29.85 16.7 L30.05 17.1 30.05 16.85 29.85 16.7 M28.7 17.7 L29.0 17.5 29.35 17.5 29.5 17.75 29.6 17.9 29.65 17.9 M28.7 17.9 L28.7 17.7 M30.05 17.1 L30.05 17.35 30.3 18.85 30.7 18.25 30.15 17.3 30.05 17.1 M29.6 17.9 L28.7 17.9 M21.8 19.45 L22.3 19.6 M24.7 21.9 L24.55 22.05 25.2 22.5 25.9 22.85 25.75 22.35 25.6 22.35 25.25 22.45 Q25.4 22.2 25.6 22.2 L25.65 22.15 25.5 22.05 Q25.2 21.85 24.85 22.05 L24.75 22.0 24.7 21.9 24.7 21.75 24.95 21.75 25.1 21.7 25.5 21.5 M24.7 21.9 L24.95 21.75 25.5 21.75 25.9 21.9 25.9 22.3 25.75 22.35 25.65 22.15 M29.3 18.95 L29.3 18.9 M30.7 18.25 L30.7 18.3 30.85 18.4 30.85 17.95 30.7 18.25 M38.2 19.9 L37.4 19.6 37.4 20.55 38.15 20.05 38.2 19.9 38.6 20.15 Q39.4 20.65 39.4 21.1 L39.25 21.65 39.0 22.05 38.75 21.35 38.6 21.5 38.35 22.15 37.9 22.45 Q37.6 22.45 37.4 22.15 37.2 21.8 37.15 21.1 M38.2 19.9 L38.2 20.0 38.15 20.05 38.0 20.45 37.8 21.1 37.8 21.2 38.0 21.0 38.3 20.8 Q38.6 20.6 38.75 20.55 L38.65 20.9 38.0 21.0 M10.5 18.4 L10.35 18.7 10.25 18.7 10.5 18.4 10.55 18.35 10.7 18.05 10.65 18.0 10.35 17.9 10.0 17.5 9.95 17.15 10.0 16.7 10.1 16.25 10.25 16.15 10.8 17.2 10.9 17.65 10.9 17.7 11.15 18.0 11.15 17.6 M2.45 16.15 L2.9 16.15 Q3.35 16.15 3.55 16.4 L3.55 16.15 3.6 16.3 3.7 16.25 4.35 16.15 4.35 16.8 4.35 17.05 3.8 18.2 4.15 18.25 4.25 18.15 4.75 17.75 4.85 17.75 4.3 18.3 4.35 18.3 4.1 18.6 4.0 18.65 3.75 18.8 3.65 18.85 3.6 18.65 3.55 18.45 3.45 18.15 2.85 18.15 2.85 17.9 2.6 18.4 2.3 17.95 2.2 17.5 2.95 17.35 3.0 17.2 3.0 17.3 3.15 17.3 3.25 17.25 3.25 16.95 2.2 16.95 2.05 16.85 2.05 16.6 Q2.05 16.2 2.45 16.15 M3.8 16.55 L3.6 16.3 3.55 16.4 3.65 16.95 3.65 17.15 4.35 16.8 Q4.0 16.8 3.8 16.55 M3.55 16.4 Q3.35 16.6 3.25 16.95 L3.55 16.95 3.55 16.4 M3.55 17.2 L3.45 17.4 3.55 17.5 3.55 17.6 3.65 17.35 3.65 17.15 3.55 17.2 3.55 16.95 M3.45 17.4 L3.4 17.35 3.4 17.75 3.55 17.6 3.55 18.2 3.8 18.2 3.65 18.7 4.15 18.25 4.3 18.3 4.0 18.65 M3.45 18.15 L3.45 17.95 3.4 17.75 3.25 17.75 3.25 17.25 3.55 17.2 M2.95 17.35 L2.85 17.9 2.9 17.8 3.0 17.3 2.95 17.35 M3.45 18.15 L3.55 18.2 3.55 18.45 M2.2 21.75 L2.5 21.9 2.6 22.05 2.8 21.75 2.85 21.35 3.8 21.75 4.75 22.05 4.15 22.45 3.45 22.15 3.25 22.0 3.25 22.1 3.0 22.15 2.6 22.05 2.55 22.05 2.6 22.35 2.6 22.55 2.45 22.5 2.35 22.45 2.2 21.75 2.55 22.05 M3.25 22.0 L3.0 21.75 3.25 21.75 3.25 22.0 M18.05 17.05 L18.0 17.05 17.95 17.25 17.85 17.35 17.85 16.95 18.05 17.05 18.1 16.95 18.25 17.25 18.3 17.35 18.05 17.05 M10.8 17.55 L10.65 17.2 10.65 17.35 10.7 17.8 10.75 17.9 10.9 17.65 10.8 17.55 M10.75 18.05 L10.8 18.1 10.85 18.1 10.75 17.9 10.7 18.0 10.7 18.05 10.75 18.05 10.75 18.15 10.8 18.1 10.9 18.15 10.85 18.1 10.9 18.0 10.9 17.8 10.9 17.7 M10.7 18.0 L10.65 17.9 10.65 18.0 M10.75 18.15 L10.75 18.55 10.75 18.7 10.85 18.45 10.9 18.15 10.9 18.0 11.15 18.0 11.15 18.25 11.45 18.3 M10.75 18.15 L10.55 18.35 M11.15 18.25 L10.9 18.15 11.15 18.4 11.15 18.25 M-0.6 18.55 L-1.05 18.35 -1.25 18.3 -1.2 18.45 -1.0 19.0 -1.05 19.4 -1.15 19.6 -1.8 19.6 -1.95 19.6 -2.35 19.5 -2.45 18.85 -2.45 18.7 -2.6 18.7 -2.6 18.5 -2.6 18.4 -2.6 18.0 -2.2 17.35 -2.2 17.5 -2.25 17.6 -2.45 18.2 -2.6 18.4 -2.25 17.6 M-1.7 18.35 L-1.65 18.55 -1.8 18.7 -2.2 18.7 -2.2 19.2 -1.8 19.6 Q-1.55 19.55 -1.45 19.1 -1.35 18.75 -1.4 18.3 L-1.25 18.3 -1.4 17.6 Q-1.85 17.5 -2.2 18.0 L-2.45 18.7 -2.2 18.7 -2.2 18.15 -1.8 18.15 -1.7 18.35" fill="none" stroke="#000000" stroke-linecap="round" stroke-linejoin="round" stroke-opacity="0.98039216" stroke-width="0.05"/>
  </g>
</svg>
