<?xml version="1.0" encoding="UTF-8" standalone="no"?>
<svg xmlns:xlink="http://www.w3.org/1999/xlink" height="126.35px" width="178.75px" xmlns="http://www.w3.org/2000/svg">
  <g transform="matrix(1.0, 0.0, 0.0, 1.0, 0.0, 0.0)">
    <path d="M178.0 87.25 Q181.4 96.2 167.5 102.85 L165.1 104.0 Q161.8 111.35 154.5 117.45 138.75 130.75 115.8 124.1 L112.9 123.25 Q113.15 123.5 112.9 123.6 111.8 124.15 105.55 125.1 L90.8 126.35 Q69.35 126.7 65.05 117.8 56.85 121.55 47.3 120.4 28.2 118.1 21.55 93.65 9.0 84.6 3.1 72.25 -8.6 47.6 24.95 31.3 25.3 31.15 26.35 26.6 27.55 21.25 29.6 17.85 36.7 6.2 55.85 11.0 L61.95 7.55 Q69.5 3.7 77.0 1.75 100.95 -4.4 114.85 11.0 L120.45 11.45 Q127.25 12.3 133.25 14.2 152.45 20.35 156.4 35.15 L161.85 39.2 Q168.15 44.3 172.3 49.6 185.45 66.65 171.85 79.65 L174.3 81.8 Q176.95 84.45 178.0 87.25" fill="#f97604" fill-rule="evenodd" stroke="none"/>
    <path d="M155.9 45.8 L160.75 52.15 Q165.85 59.9 167.35 67.15 172.05 90.2 138.5 98.95 137.8 105.0 132.3 110.2 121.3 120.6 97.45 116.35 99.25 115.15 100.65 112.85 103.45 108.3 101.3 102.85 93.95 107.3 84.6 109.75 66.0 114.55 56.35 104.3 L52.95 112.0 Q48.0 113.1 42.15 112.0 30.45 109.85 25.9 98.95 L35.55 98.0 Q34.0 97.4 32.5 95.3 29.45 91.05 29.75 83.5 L21.05 92.2 Q15.85 87.6 13.25 81.75 8.4 70.8 19.5 64.55 14.55 59.15 12.9 53.25 9.15 39.6 31.2 35.65 28.65 27.7 31.25 21.2 36.45 8.3 62.15 15.85 L66.7 12.8 Q71.8 9.0 76.0 7.25 90.5 1.1 100.35 14.85 L103.85 14.15 112.0 13.55 Q124.45 13.8 128.35 21.65 L132.1 21.5 Q136.65 21.6 140.7 23.2 153.5 28.25 155.9 45.8 M28.85 61.1 Q34.05 57.35 21.05 63.7 L19.5 64.55 21.05 66.1 28.85 61.1" fill="#f8ac00" fill-rule="evenodd" stroke="none"/>
    <path d="M129.8 46.75 L120.5 47.1 Q113.2 46.45 110.5 45.3 109.6 44.9 109.6 47.55 109.65 51.3 108.95 52.85 106.2 59.5 89.7 50.65 L92.1 64.15 116.3 67.05 116.0 71.45 Q116.05 76.6 117.85 80.15 123.65 91.65 144.8 83.5 143.6 89.3 138.55 93.35 128.55 101.45 109.5 92.7 110.1 95.95 109.05 98.45 106.85 103.4 98.4 99.45 101.05 97.05 103.1 93.9 107.25 87.65 104.2 84.0 103.0 87.5 99.95 90.05 93.9 95.1 84.85 90.25 83.9 96.55 79.25 100.3 69.95 107.8 51.5 95.1 L54.9 95.45 Q59.05 95.7 62.75 95.3 74.6 93.95 77.6 86.4 70.35 89.45 62.55 90.35 46.95 92.15 44.25 81.55 36.05 81.2 29.9 78.55 17.55 73.2 27.85 61.75 22.65 54.5 21.85 48.0 20.3 34.95 42.35 38.55 42.7 34.1 45.9 30.45 52.3 23.2 66.5 27.45 66.55 25.4 67.05 22.75 68.1 17.4 70.55 14.35 78.4 4.55 97.45 21.15 L107.35 22.25 Q118.8 23.85 126.55 26.25 151.3 33.9 129.8 46.75" fill="#f9d503" fill-rule="evenodd" stroke="none"/>
    <path d="M85.9 48.15 Q78.5 52.65 72.8 46.3 70.0 48.35 66.2 48.65 58.6 49.25 53.45 40.5 53.1 37.5 55.1 34.65 59.05 28.95 70.85 29.85 69.9 23.45 71.3 18.55 74.05 8.75 85.85 16.3 L87.75 17.35 Q90.05 18.75 91.75 20.45 97.3 25.9 95.5 32.25 L101.3 30.45 Q108.0 28.55 112.8 28.15 128.0 26.95 117.75 41.45 117.25 44.0 113.8 45.4 106.9 48.15 92.1 42.4 89.55 45.9 85.9 48.15" fill="#fffd38" fill-rule="evenodd" stroke="none"/>
    <path d="M90.85 80.05 Q84.95 83.8 76.15 73.85 L76.95 76.4 Q77.65 79.35 77.25 81.5 76.05 88.4 64.55 84.45 L53.95 77.2 Q47.8 79.65 42.0 78.95 30.4 77.65 32.2 62.25 32.95 58.85 35.95 56.8 42.0 52.7 53.45 59.35 L55.35 57.6 Q57.75 55.65 60.25 54.75 68.35 51.85 74.7 60.3 L77.95 60.45 Q81.85 60.8 85.05 61.85 95.3 65.25 95.0 74.3 93.8 78.2 90.85 80.05" fill="#fff935" fill-rule="evenodd" stroke="none"/>
    <path d="M165.3 71.7 Q161.45 79.85 148.75 79.05 L149.2 73.15 Q144.45 77.8 138.7 80.35 127.25 85.45 122.5 74.85 121.0 71.65 121.05 68.3 121.15 61.65 128.85 60.85 128.95 59.95 129.35 58.7 130.15 56.2 131.55 54.4 136.1 48.65 145.4 52.35 L148.35 51.7 155.05 51.5 Q165.0 52.8 166.55 63.4 167.2 67.65 165.3 71.7" fill="#ffd900" fill-rule="evenodd" stroke="none"/>
    <path d="M136.6 56.45 L138.25 54.55 Q140.35 52.5 142.6 51.55 149.7 48.55 155.45 57.9 L158.4 60.35 Q161.6 63.25 162.75 65.5 166.5 72.75 148.65 70.95 145.05 74.7 140.9 76.85 132.7 81.2 130.3 73.35 127.55 64.4 128.55 62.2 129.25 60.7 136.6 56.45" fill="#fffe3a" fill-rule="evenodd" stroke="none"/>
    <path d="M67.0 35.65 L67.8 33.75 Q68.9 31.55 70.25 30.1 74.6 25.5 80.05 30.35 80.65 34.0 79.3 36.45 76.65 41.4 67.0 35.65" fill="#fbffd3" fill-rule="evenodd" stroke="none"/>
    <path d="M92.1 39.05 L93.3 37.25 Q94.8 35.2 96.55 34.0 102.0 30.25 107.1 36.6 L108.0 39.0 Q108.85 41.75 108.75 43.75 108.35 50.0 98.4 45.8 96.25 46.65 94.35 46.25 90.6 45.4 92.1 39.05" fill="#fdfac3" fill-rule="evenodd" stroke="none"/>
    <path d="M61.2 62.25 L63.3 59.7 Q65.95 56.9 68.4 55.85 76.25 52.45 79.55 67.55 79.9 71.55 77.9 74.0 73.95 78.95 62.15 71.4 56.0 69.6 52.8 67.55 46.4 63.45 61.2 62.25" fill="#fffedb" fill-rule="evenodd" stroke="none"/>
    <path d="M39.75 56.25 Q44.7 54.9 46.2 63.7 44.75 66.0 42.65 66.6 38.4 67.8 35.1 59.35 L36.5 58.05 Q38.2 56.7 39.75 56.25" fill="#fffcf9" fill-rule="evenodd" stroke="none"/>
    <path d="M131.75 56.9 L133.9 54.7 Q135.85 52.65 137.3 51.85 142.05 49.2 143.85 57.4 143.75 60.05 142.6 62.55 140.3 67.5 135.15 66.6 132.35 65.5 130.55 63.75 126.9 60.25 131.75 56.9" fill="#fefce3" fill-rule="evenodd" stroke="none"/>
  </g>
</svg>
