<?xml version="1.0" encoding="UTF-8" standalone="no"?>
<svg xmlns:xlink="http://www.w3.org/1999/xlink" height="50.45px" width="38.4px" xmlns="http://www.w3.org/2000/svg">
  <g transform="matrix(1.0, 0.0, 0.0, 1.0, 3.55, 22.0)">
    <path d="M3.1 23.0 Q3.1 20.75 6.65 19.15 10.2 17.55 15.3 17.55 20.35 17.55 23.9 19.15 27.45 20.75 27.45 23.0 27.45 25.3 23.9 26.85 20.35 28.45 15.3 28.45 10.2 28.45 6.65 26.85 3.1 25.3 3.1 23.0" fill="url(#gradient0)" fill-rule="evenodd" stroke="none"/>
    <path d="M10.5 -19.0 L10.8 -17.85 15.55 -18.5 Q20.35 -18.5 24.15 -16.25 L25.1 -17.1 25.15 -17.55 Q25.15 -18.35 25.8 -18.9 L26.2 -19.15 27.3 -19.35 Q28.1 -19.25 28.6 -18.6 29.15 -18.0 29.05 -17.15 L28.8 -16.35 28.3 -15.85 Q27.75 -15.35 26.9 -15.4 L26.85 -15.4 26.15 -14.8 26.6 -14.4 Q28.4 -12.8 29.5 -10.95 31.05 -10.55 32.3 -9.45 L32.35 -9.4 32.4 -9.35 32.7 -9.05 32.8 -8.95 33.4 -8.2 33.75 -7.75 33.7 -7.75 Q34.5 -6.5 34.75 -5.0 L34.85 -4.0 34.85 -3.7 34.7 -2.3 34.7 -2.25 34.45 -1.15 34.25 -0.7 34.05 -0.2 32.75 1.55 32.5 1.8 32.35 1.95 31.9 2.3 31.9 2.35 31.8 2.4 Q30.2 3.6 28.25 3.75 L26.6 5.4 Q24.3 7.45 21.5 8.45 L22.65 9.85 22.8 9.95 23.2 10.35 23.3 10.9 24.05 12.3 24.05 12.25 24.5 12.55 24.85 12.75 24.8 12.8 Q25.55 13.0 25.9 13.7 26.25 14.35 26.0 15.1 25.8 15.8 25.15 16.15 L23.75 16.25 Q23.05 16.05 22.7 15.4 22.35 14.75 22.5 14.1 L22.5 14.05 22.55 13.2 21.7 11.6 21.45 11.3 21.35 11.05 20.65 10.2 20.8 13.15 20.85 13.25 20.9 13.45 21.1 15.75 21.1 15.8 21.2 18.35 21.25 19.1 21.15 19.4 20.9 19.6 20.2 19.8 20.1 19.85 20.0 19.9 19.95 19.9 19.95 20.35 20.15 20.75 20.15 20.8 19.95 21.15 19.9 22.55 19.85 22.6 Q20.4 22.8 20.65 23.35 L20.8 24.4 20.45 25.05 Q18.4 25.45 16.15 25.1 L16.0 24.4 Q15.9 23.5 16.15 22.65 L16.25 22.65 16.3 21.45 15.9 20.95 Q15.95 20.65 16.25 20.4 L16.3 20.4 16.3 20.05 16.2 20.0 15.75 19.85 15.55 19.7 15.5 19.4 15.55 18.55 15.45 18.5 15.35 18.55 15.35 19.4 15.25 19.65 15.05 19.85 14.75 19.95 14.5 20.0 14.45 20.0 14.35 20.0 14.35 20.4 14.7 20.95 14.35 21.45 14.35 22.65 14.45 22.65 Q14.75 23.5 14.65 24.4 L14.45 25.1 Q12.2 25.45 10.15 25.05 L9.85 24.4 Q9.75 23.95 10.0 23.35 10.25 22.8 10.8 22.6 L10.7 22.55 10.7 21.15 10.45 20.8 10.45 20.75 10.7 20.35 10.7 19.8 9.8 19.4 9.6 19.2 Q9.5 19.05 9.55 18.9 L9.65 18.15 9.95 15.0 10.0 14.2 10.05 13.45 10.1 13.3 10.2 10.55 9.65 11.3 9.55 11.5 9.3 11.85 8.45 13.45 8.5 14.25 8.5 14.35 Q8.65 15.0 8.3 15.6 7.95 16.3 7.25 16.5 L5.85 16.4 Q5.2 16.0 5.0 15.3 4.75 14.6 5.1 13.95 5.45 13.25 6.2 13.05 L6.15 13.0 6.5 12.8 6.95 12.5 7.7 11.15 7.8 10.6 8.2 10.2 8.35 10.1 9.65 8.5 Q7.05 7.65 4.95 5.9 L2.8 3.7 Q0.95 3.5 -0.5 2.4 L-0.65 2.3 -1.05 2.0 -1.25 1.75 -1.45 1.6 -1.5 1.55 -2.75 -0.2 -2.95 -0.7 -3.0 -0.7 -3.15 -1.15 -3.45 -2.25 -3.55 -3.7 -3.55 -4.0 -3.45 -5.0 Q-3.25 -6.5 -2.45 -7.75 L-2.1 -8.2 -1.5 -9.0 -1.4 -9.05 -1.4 -9.1 -1.15 -9.3 -1.0 -9.45 Q0.15 -10.5 1.55 -10.9 2.65 -12.8 4.5 -14.4 L4.45 -14.4 Q6.35 -16.1 8.6 -17.05 L8.3 -18.25 7.95 -18.4 Q7.2 -18.8 7.05 -19.55 L6.95 -20.05 Q6.95 -20.6 7.3 -21.1 7.7 -21.7 8.5 -21.9 9.2 -22.15 9.95 -21.65 L10.55 -21.1 10.75 -20.45 Q10.95 -19.75 10.55 -19.05 L10.5 -19.0" fill="#000000" fill-rule="evenodd" stroke="none"/>
  </g>
  <defs>
    <radialGradient cx="0" cy="0" gradientTransform="matrix(4.0E-4, -0.0072, 0.0148, 4.0E-4, 15.3, 23.0)" gradientUnits="userSpaceOnUse" id="gradient0" r="819.2" spreadMethod="pad">
      <stop offset="0.0" stop-color="#000000" stop-opacity="0.6"/>
      <stop offset="1.0" stop-color="#000000" stop-opacity="0.0"/>
    </radialGradient>
  </defs>
</svg>
