<?xml version="1.0" encoding="UTF-8" standalone="no"?>
<svg xmlns:xlink="http://www.w3.org/1999/xlink" height="6.7px" width="27.6px" xmlns="http://www.w3.org/2000/svg">
  <g transform="matrix(1.0, 0.0, 0.0, 1.0, -2.0, 0.65)">
    <path d="M6.55 3.8 Q6.55 4.75 5.85 5.4 5.2 6.05 4.25 6.05 3.35 6.05 2.65 5.4 2.0 4.75 2.0 3.8 2.0 2.85 2.65 2.2 3.35 1.55 4.25 1.55 5.2 1.55 5.85 2.2 L6.45 3.1 6.55 3.8" fill="#ffffff" fill-rule="evenodd" stroke="none"/>
    <path d="M5.8 3.45 L4.1 2.15 6.25 -0.65 7.95 0.7 5.8 3.45" fill="#ffffff" fill-rule="evenodd" stroke="none"/>
    <path d="M27.5 1.4 Q28.4 1.45 29.0 2.15 29.65 2.85 29.6 3.8 29.55 4.75 28.85 5.35 28.15 5.95 27.25 5.9 26.3 5.85 25.65 5.15 25.05 4.45 25.1 3.55 25.15 2.6 25.85 2.0 26.25 1.6 26.8 1.45 L27.5 1.4" fill="#ffffff" fill-rule="evenodd" stroke="none"/>
    <path d="M25.7 3.75 L23.05 1.45 24.45 -0.2 27.1 2.1 25.7 3.75" fill="#ffffff" fill-rule="evenodd" stroke="none"/>
  </g>
</svg>
