<?xml version="1.0" encoding="UTF-8" standalone="no"?>
<svg xmlns:xlink="http://www.w3.org/1999/xlink" height="8.75px" width="30.9px" xmlns="http://www.w3.org/2000/svg">
  <g transform="matrix(1.0, 0.0, 0.0, 1.0, 3.5, -6.7)">
    <path d="M26.3 14.3 L26.4 14.35 26.5 14.2 26.35 14.15 26.3 14.15 26.3 14.2 26.3 14.3 26.3 14.4 26.4 14.35 26.5 14.4 26.6 14.4 26.55 14.15 26.5 14.1 26.35 14.15 M26.5 14.1 L26.5 14.0 26.4 14.0 26.3 14.15 26.3 13.6 27.05 14.1 27.15 14.2 27.3 14.2 27.3 14.3 27.4 14.3 27.35 14.65 27.3 14.8 27.25 14.8 27.05 15.0 26.5 15.2 26.4 15.25 26.2 15.35 26.25 15.25 26.1 15.25 25.9 15.45 25.7 15.45 25.7 15.25 25.3 15.25 25.55 14.9 25.5 14.9 25.5 14.8 25.5 14.4 25.7 14.6 25.75 14.55 25.7 14.4 25.9 14.35 26.0 14.25 26.0 14.1 26.1 14.1 26.1 13.9 26.25 14.1 26.3 14.2 26.2 14.2 26.05 14.3 26.05 14.4 26.1 14.5 26.2 14.5 26.3 14.45 26.3 14.4 26.4 14.4 26.5 14.4 26.55 14.45 26.6 14.4 26.65 14.4 Q26.85 14.25 27.0 14.2 L26.9 14.0 26.7 14.0 26.5 14.1 M26.05 14.3 L26.1 14.15 26.0 14.25 26.0 14.3 26.05 14.3 M26.1 14.1 L26.1 14.15 M26.05 14.4 L26.0 14.45 25.9 14.7 25.95 14.65 26.0 14.65 26.0 14.6 26.05 14.6 26.1 14.6 26.1 14.5 26.15 14.55 26.2 14.5 26.3 14.5 26.3 14.45 26.4 14.4 26.5 14.5 26.5 14.55 26.55 14.45 26.6 14.5 26.6 14.45 26.6 14.4 M26.05 14.6 L26.0 14.65 26.2 14.6 26.15 14.55 26.1 14.6 M26.3 14.5 L26.4 14.5 26.4 14.55 26.5 14.5 M26.2 14.6 L26.3 14.55 26.3 14.5 M26.2 14.6 L26.3 14.6 26.3 14.55 26.4 14.55 26.4 14.6 26.5 14.6 26.5 14.55 26.6 14.5 26.7 14.4 26.65 14.4 26.6 14.45 M26.0 14.65 L26.1 14.95 26.2 15.0 26.4 14.7 26.4 14.6 26.3 14.6 M26.05 14.4 L26.0 14.3 25.9 14.35 25.8 14.45 25.75 14.55 25.85 14.75 25.9 14.7 26.0 14.65 M25.7 14.6 L25.75 14.65 25.85 14.75 26.1 14.95 26.15 15.05 26.2 15.05 26.2 15.0 26.25 15.0 26.35 14.9 26.4 14.7 26.5 14.6 26.6 14.55 26.5 14.55 M25.8 14.75 L25.6 14.85 25.55 14.9 25.6 14.9 25.7 15.05 25.7 14.9 25.85 14.75 25.8 14.75 M25.55 14.9 L25.5 14.8 25.7 14.6 M25.7 15.25 L25.7 15.05 25.9 15.15 25.95 15.15 26.0 15.1 25.85 14.75 M26.25 15.0 L26.3 15.0 26.4 14.9 26.45 14.85 26.45 14.8 26.5 14.8 26.5 14.7 26.5 14.6 M26.4 14.9 L26.4 14.95 26.35 15.0 26.3 15.05 26.3 15.15 26.25 15.15 26.4 15.25 M26.3 15.0 L26.3 15.05 26.25 15.15 26.2 15.1 26.15 15.15 26.1 15.25 26.25 15.15 26.25 15.25 M26.45 14.85 L26.5 14.8 26.6 14.55 26.6 14.5 26.8 14.6 26.9 14.3 27.0 14.3 27.0 14.2 27.15 14.2 27.2 14.3 27.3 14.3 27.25 14.4 27.35 14.65 27.3 14.7 27.25 14.8 27.0 14.75 26.8 14.9 26.7 14.9 26.8 14.6 26.85 14.65 27.0 14.75 27.05 14.7 27.1 14.6 26.9 14.4 27.0 14.3 27.2 14.3 27.25 14.4 27.1 14.6 27.3 14.7 M26.2 15.05 L26.25 15.05 26.25 15.0 M25.95 15.15 L26.0 15.15 26.0 15.1 26.15 15.1 26.15 15.05 M26.15 15.1 L26.15 15.15 M26.25 15.05 L26.3 15.0 M26.2 15.1 L26.2 15.05 M26.1 15.25 L25.7 15.25 M26.5 15.2 L26.75 15.1 27.25 14.8 M-2.35 6.9 Q-2.5 6.75 -2.6 6.7 L-2.6 6.8 -2.65 6.9 -2.65 6.95 -2.6 7.0 -2.45 6.95 -2.35 6.9 -2.3 6.9 -2.2 6.9 -2.15 6.95 -2.05 7.1 -2.05 7.25 -1.95 7.55 -2.0 7.7 -2.0 7.75 -2.05 7.8 -2.2 7.85 -2.2 8.1 -2.4 8.1 -2.5 8.4 -2.45 8.4 -2.05 8.15 -1.85 8.0 -1.85 8.1 Q-1.85 8.35 -1.95 8.1 L-2.2 8.35 -2.6 8.5 -2.6 8.45 -3.0 8.5 -3.3 8.4 -3.5 8.05 -3.45 7.9 -3.5 7.9 -3.4 7.25 -3.45 7.1 -3.5 7.1 -3.5 7.0 -3.45 7.1 -3.15 6.85 -2.8 6.7 -2.65 6.9 -2.7 6.9 -2.65 7.0 -2.65 6.95 M-2.35 6.9 L-2.35 6.95 -2.3 6.9 M-2.2 7.3 L-2.2 7.35 -2.2 7.45 -2.15 7.5 -2.05 7.4 -2.1 7.3 -2.2 7.3 -2.25 7.25 -2.25 7.3 -2.2 7.3 M-2.05 7.25 L-2.2 7.0 -2.25 7.05 -2.25 7.1 -2.1 7.3 -2.05 7.3 -2.05 7.25 M-2.4 7.25 L-2.6 7.0 -2.65 7.0 -2.5 7.2 -2.45 7.25 -2.4 7.3 -2.35 7.3 -2.4 7.25 M-2.25 7.25 L-2.25 7.2 -2.3 7.2 -2.35 7.3 -2.3 7.3 -2.25 7.3 -2.2 7.35 -2.3 7.3 M-2.35 7.3 L-2.4 7.15 -2.4 7.1 -2.6 7.0 M-2.25 7.05 L-2.35 6.95 -2.4 7.1 -2.25 7.05 M-2.35 7.55 L-2.35 7.7 -2.3 7.8 -2.2 7.75 -2.2 7.6 -2.25 7.6 -2.35 7.55 -2.4 7.3 M-2.35 7.55 L-2.3 7.5 -2.25 7.6 M-2.35 7.55 L-2.4 7.55 -2.45 7.55 -2.7 7.6 -2.95 7.55 -3.1 7.4 -3.1 7.25 -3.2 7.45 -3.05 7.5 -2.9 7.6 -2.9 7.65 -2.85 7.65 -2.5 8.0 -2.3 7.8 -2.3 7.9 -2.2 7.85 -2.2 7.75 -2.0 7.7 -2.15 7.5 -2.2 7.6 M-2.4 8.1 L-2.5 8.0 -2.6 8.1 -2.7 8.1 -2.7 8.2 -2.75 8.15 -2.75 8.2 -2.6 8.45 -2.5 8.4 M-3.4 7.25 L-3.3 7.35 -3.3 7.3 -3.4 7.2 -3.4 7.25 M-3.3 7.3 L-3.3 7.0 -2.95 7.05 -2.75 7.25 -2.4 7.55 M-3.3 7.35 L-3.2 7.45 -3.3 7.3 M-3.25 7.45 L-3.3 7.55 -3.3 7.9 -3.15 7.85 -3.0 7.75 -3.05 7.7 -3.2 7.45 -3.25 7.45 M-3.45 7.9 L-3.3 7.55 -3.3 7.35 M-2.65 7.0 L-2.7 7.0 -2.7 6.9 M-2.95 7.05 L-3.05 7.15 -3.1 7.25 -2.95 7.05 M-2.9 7.6 L-3.0 7.75 -2.7 8.1 -2.7 8.05 Q-2.7 7.8 -2.85 7.65 M-2.75 8.15 L-2.85 8.15 -2.9 8.1 -3.15 7.95 -3.45 7.9 M-2.75 8.15 L-3.0 8.0 -2.9 8.1 M-3.15 7.85 L-3.0 8.0 -3.15 7.95" fill="none" stroke="#000000" stroke-linecap="round" stroke-linejoin="round" stroke-opacity="0.9882353" stroke-width="0.05"/>
  </g>
</svg>
