<?xml version="1.0" encoding="UTF-8" standalone="no"?>
<svg xmlns:xlink="http://www.w3.org/1999/xlink" height="12.8px" width="32.05px" xmlns="http://www.w3.org/2000/svg">
  <g transform="matrix(1.0, 0.0, 0.0, 1.0, 3.4, -14.55)">
    <path d="M28.05 26.2 L28.0 26.4 28.35 26.4 28.05 26.85 28.1 26.85 28.65 26.6 28.65 26.75 28.35 26.9 27.95 27.0 28.05 26.85 27.7 26.95 27.6 27.0 27.55 27.0 27.35 27.15 26.9 27.35 26.8 27.35 26.95 26.9 26.85 26.75 26.8 26.75 26.8 26.8 26.8 26.9 26.6 26.9 26.5 26.9 26.4 26.9 26.4 26.7 26.2 26.5 26.2 26.0 26.4 26.15 26.4 26.1 26.4 26.0 26.3 26.0 26.3 25.9 26.4 26.0 26.45 26.0 26.5 25.95 26.6 25.9 26.7 25.9 26.85 25.85 26.95 25.85 27.0 25.85 27.1 25.8 27.2 25.75 27.65 25.7 27.7 25.8 27.7 25.85 27.85 25.9 28.05 26.2 M28.0 26.4 L27.95 26.6 27.95 26.75 27.9 26.75 27.7 26.95 27.55 27.0 27.4 26.95 27.3 27.0 27.5 27.0 27.55 27.0 27.7 26.8 27.5 26.9 27.4 26.95 27.05 26.8 27.0 26.8 27.0 26.85 27.0 26.9 27.2 26.95 27.3 27.0 27.2 27.0 26.95 26.9 27.0 26.85 M28.0 26.4 L27.85 26.4 27.75 26.45 27.85 26.55 27.8 26.75 27.9 26.75 27.95 26.6 M26.95 25.85 L26.8 25.95 26.9 25.9 27.05 25.85 27.2 25.8 27.1 25.8 M27.2 25.75 L27.2 25.8 27.3 25.8 27.4 25.8 27.7 25.85 27.75 26.05 27.65 26.35 27.75 26.45 27.7 26.5 27.75 26.65 27.75 26.75 27.8 26.75 27.7 26.8 27.75 26.75 27.35 26.75 27.3 26.8 27.2 26.8 27.35 26.75 27.45 26.65 27.5 26.55 27.2 26.7 27.05 26.8 M26.7 26.25 L26.9 26.0 26.95 26.0 27.35 25.9 27.3 25.8 27.05 25.85 26.9 25.95 26.75 26.0 26.7 26.25 26.8 26.25 26.9 26.15 26.9 26.0 M26.8 25.95 L26.75 26.0 26.65 26.05 26.5 26.25 26.55 26.3 26.7 26.25 26.7 26.3 26.7 26.4 26.75 26.4 26.75 26.35 26.8 26.25 26.9 26.2 26.9 26.15 27.15 26.1 27.4 26.15 27.4 25.95 27.3 25.9 27.1 25.95 26.95 26.0 M26.7 25.9 L26.7 25.95 26.8 25.95 M26.7 25.9 L26.6 26.0 26.7 25.95 26.65 26.05 26.45 26.1 26.5 26.25 26.5 26.3 26.55 26.3 26.6 26.4 26.7 26.25 M26.9 26.2 L27.0 26.2 27.35 26.25 27.4 26.2 27.4 26.15 27.5 26.25 27.5 26.2 27.45 26.0 27.4 25.95 27.35 25.9 27.5 25.9 27.55 25.95 27.65 26.0 27.5 26.25 27.65 26.3 27.65 26.35 27.6 26.35 27.6 26.4 27.65 26.4 27.7 26.5 27.5 26.55 27.6 26.4 27.0 26.7 27.0 26.8 26.95 26.75 26.9 26.75 26.85 26.75 M26.4 26.1 L26.45 26.1 26.4 26.0 M26.5 26.3 L26.45 26.4 26.6 26.6 26.55 26.4 26.55 26.3 M26.5 26.3 L26.4 26.3 26.45 26.4 26.4 26.4 26.4 26.55 26.6 26.65 26.6 26.6 26.7 26.6 26.7 26.55 26.65 26.4 26.6 26.4 M26.4 26.4 L26.3 26.5 26.25 26.5 26.4 26.55 26.4 26.7 26.6 26.8 26.6 26.75 26.6 26.65 26.65 26.65 26.7 26.6 26.75 26.6 26.7 26.55 26.7 26.45 26.7 26.4 26.65 26.4 M26.4 26.4 L26.4 26.3 26.4 26.15 26.5 26.3 M26.25 26.5 L26.2 26.5 M27.6 26.35 L27.65 26.3 27.5 26.3 27.6 26.4 M27.5 26.3 L27.35 26.25 26.9 26.4 26.9 26.5 27.1 26.5 27.2 26.4 Q27.35 26.3 27.45 26.3 L27.5 26.3 27.5 26.25 M27.45 26.3 L27.25 26.45 27.1 26.5 27.05 26.6 27.2 26.5 27.5 26.3 M26.7 26.45 L26.75 26.4 26.9 26.4 26.9 26.2 M26.75 26.6 L26.7 26.45 M26.75 26.6 L26.8 26.7 26.9 26.75 27.0 26.7 27.05 26.6 26.8 26.6 26.75 26.6 26.75 26.7 26.8 26.7 26.8 26.75 M26.8 26.8 L26.65 26.8 26.6 26.8 26.6 26.9 M26.8 26.8 L26.75 26.7 26.65 26.65 26.6 26.75 M26.6 26.8 L26.5 26.9 M26.45 26.1 Q26.5 26.0 26.6 26.0 L26.45 26.0 M-2.5 14.55 L-2.25 14.75 -2.2 14.75 -2.05 14.7 -2.05 14.8 -1.95 14.95 -1.95 15.1 -1.85 15.4 -1.9 15.5 -1.85 15.55 -1.9 15.55 -1.95 15.65 -2.05 15.7 -2.05 15.95 -2.3 15.95 -2.4 16.25 -2.35 16.2 -1.95 15.95 -1.75 15.85 -1.75 15.95 Q-1.75 16.2 -1.85 15.95 L-2.1 16.15 -2.5 16.35 -2.5 16.3 -2.9 16.35 -3.2 16.25 -3.4 15.9 -3.35 15.75 -3.4 15.75 -3.25 15.1 -3.35 14.9 -3.4 14.95 -3.4 14.85 -3.35 14.9 -3.05 14.7 -2.7 14.55 -2.55 14.7 -2.5 14.65 -2.5 14.55 M-2.15 14.9 L-2.0 15.15 -1.95 15.1 -2.05 14.8 -2.15 14.9 -2.25 14.8 -2.3 14.95 -2.15 14.9 M-2.2 15.0 L-2.25 15.1 -2.2 15.15 -2.15 15.15 -2.15 15.1 -2.15 15.05 -2.2 15.0 M-2.5 14.8 L-2.5 14.85 -2.45 14.9 -2.5 14.8 -2.6 14.7 -2.6 14.8 -2.5 14.8 -2.55 14.7 -2.6 14.7 M-2.45 14.9 L-2.3 15.1 -2.25 15.1 -2.3 14.95 -2.45 14.9 M-2.25 14.75 L-2.25 14.8 -2.2 14.75 M-2.5 14.65 L-2.5 14.8 -2.35 14.75 -2.25 14.75 M-2.5 14.85 L-2.4 15.05 -2.35 15.1 -2.3 15.1 -2.3 15.15 -2.2 15.15 -2.1 15.2 -2.15 15.15 -2.05 15.15 -2.05 15.1 -2.15 15.1 M-2.3 15.4 L-2.6 15.45 -2.85 15.35 -3.0 15.2 -3.0 15.1 -3.1 15.25 -2.95 15.35 -2.8 15.45 -2.75 15.5 -2.4 15.8 -2.2 15.65 -2.25 15.5 -2.25 15.35 -2.3 15.35 -2.3 15.4 M-2.3 15.15 L-2.25 15.35 -2.2 15.35 -2.1 15.4 -2.05 15.45 -2.05 15.35 -2.05 15.3 -2.1 15.2 -2.05 15.2 -2.05 15.15 -2.0 15.15 -1.95 15.2 -2.0 15.3 -2.05 15.35 -1.9 15.5 -1.9 15.55 -2.05 15.6 -2.05 15.7 -2.2 15.75 -2.2 15.65 -2.05 15.6 -2.05 15.45 M-2.1 15.4 L-2.25 15.35 M-3.2 15.2 L-3.2 15.15 -3.25 15.0 -3.25 15.1 -3.2 15.2 -3.1 15.25 -3.2 15.15 -3.2 14.8 -2.85 14.9 -2.65 15.05 -2.3 15.35 M-3.2 15.2 L-3.2 15.4 -3.1 15.3 -3.1 15.25 -2.95 15.55 -2.9 15.6 -2.9 15.55 -2.8 15.45 M-2.95 14.95 L-3.0 15.1 -2.85 14.9 -2.95 14.95 M-2.9 15.8 L-3.05 15.7 -3.2 15.75 -3.05 15.8 -2.9 15.8 -2.7 15.95 -2.65 16.0 -2.6 16.05 -2.6 15.9 -2.9 15.6 -3.05 15.7 M-2.7 15.95 L-2.8 15.95 -3.05 15.8 M-2.6 15.9 Q-2.6 15.65 -2.75 15.5 M-2.9 15.8 L-2.8 15.95 M-3.2 15.75 L-3.2 15.4 -3.35 15.75 -3.2 15.75 M-2.3 15.95 L-2.4 15.8 -2.5 15.95 -2.6 15.9 M-2.65 16.0 L-2.5 16.3 -2.4 16.25" fill="none" stroke="#000000" stroke-linecap="round" stroke-linejoin="round" stroke-opacity="0.9882353" stroke-width="0.05"/>
  </g>
</svg>
