<?xml version="1.0" encoding="UTF-8" standalone="no"?>
<svg xmlns:xlink="http://www.w3.org/1999/xlink" height="17.6px" width="22.95px" xmlns="http://www.w3.org/2000/svg">
  <g transform="matrix(1.0, 0.0, 0.0, 1.0, -3.3, -10.75)">
    <path d="M22.5 14.65 L22.9 15.0 23.3 14.9 23.4 14.3 Q23.5 14.1 23.95 14.0 L24.05 14.65 24.4 14.65 24.9 14.15 Q25.25 13.8 25.5 13.8 L25.75 14.0 25.9 14.35 26.25 13.9 M22.45 19.7 L22.55 20.2 22.45 20.2 22.45 19.7 22.4 19.6 22.35 19.6 22.3 19.4 22.1 19.15 21.95 19.35 21.9 19.4 21.8 19.8 21.65 19.8 21.6 19.75 21.6 19.7 21.5 19.7 21.45 19.45 21.4 19.5 21.35 19.2 21.3 19.2 21.3 19.15 21.3 19.1 21.3 19.0 21.25 18.9 21.2 19.2 21.1 19.2 21.1 18.85 20.8 19.4 20.75 19.3 20.7 19.5 20.65 19.05 20.6 18.95 20.6 19.3 20.5 19.3 20.5 18.7 20.4 18.25 20.5 18.25 20.5 18.2 20.55 18.4 20.6 18.85 20.65 19.05 20.75 19.3 20.8 18.8 20.85 18.35 20.9 18.1 21.1 18.1 21.25 18.35 21.3 18.45 21.3 18.35 21.3 18.25 21.5 18.65 21.55 18.5 Q21.65 18.25 22.0 18.25 L22.15 18.35 22.15 18.4 22.25 18.5 22.4 18.4 22.45 17.85 22.75 18.35 22.9 18.7 23.05 18.8 23.05 18.7 23.1 18.7 23.1 18.65 23.15 18.2 23.4 18.85 23.45 18.95 23.65 19.0 23.7 18.95 23.75 18.55 23.75 18.7 23.9 18.55 23.95 18.35 24.0 18.55 24.05 18.85 24.15 18.5 24.25 18.6 24.5 18.2 24.55 18.75 24.6 19.3 24.4 18.85 24.25 18.6 24.2 18.8 24.05 18.9 23.95 19.3 23.85 19.3 23.75 19.4 23.65 19.3 23.6 19.3 23.55 19.5 23.5 19.3 23.05 19.1 23.0 19.1 22.95 19.3 22.65 19.2 22.55 19.15 22.55 19.2 22.55 19.4 22.5 19.25 22.45 19.6 22.4 19.6 22.35 19.5 22.3 19.4 22.25 19.1 22.1 19.15 22.0 19.15 21.95 19.35 M20.55 18.4 L20.5 18.25 20.5 18.7 20.6 18.95 20.6 18.85 M21.3 19.1 L21.35 19.15 21.35 18.6 21.35 18.55 21.35 18.5 21.3 18.5 21.3 18.75 21.3 19.0 M21.3 18.5 L21.3 18.45 21.1 18.85 20.85 18.35 M21.3 18.35 L21.35 18.4 21.35 18.5 M22.4 18.4 L22.45 18.35 22.45 18.4 22.9 18.7 22.95 19.05 23.0 19.1 23.05 18.8 23.1 18.8 23.1 18.7 23.15 18.6 23.4 18.95 23.45 18.95 23.45 19.0 23.65 19.25 23.65 19.0 23.7 19.0 24.05 18.9 24.05 18.85 M22.4 18.4 L22.4 18.75 22.5 18.8 22.45 18.45 22.45 18.4 M22.15 18.4 L22.1 18.65 22.15 18.6 22.2 18.55 22.15 18.4 M22.2 18.55 L22.2 18.6 22.35 18.7 22.25 18.5 22.2 18.55 M22.5 18.8 L22.55 18.8 22.55 18.5 22.45 18.45 M23.65 19.3 L23.65 19.25 23.6 19.3 23.5 19.3 23.45 19.0 23.4 18.95 23.2 18.9 23.1 18.8 23.05 19.1 M23.85 19.3 L23.65 19.3 M23.0 19.1 L22.95 19.1 22.95 19.05 22.75 18.95 22.55 18.8 22.55 19.15 22.5 19.15 22.5 19.25 22.55 19.2 M24.05 18.9 L23.85 19.3 M22.15 18.6 L22.25 19.1 22.2 18.6 22.15 18.6 M22.35 18.7 L22.4 18.85 22.4 18.75 22.35 18.7 M22.5 19.15 L22.35 19.1 22.35 19.3 22.25 19.1 22.35 19.1 22.4 18.85 22.5 19.15 M22.1 18.65 L22.0 19.05 22.0 19.15 21.8 19.1 21.8 19.3 21.75 19.2 21.7 19.2 21.7 19.15 21.5 19.35 21.6 19.7 M22.1 18.65 L21.85 18.95 21.7 19.15 21.55 18.7 21.5 18.65 21.45 18.95 21.45 19.0 21.5 19.35 21.45 19.45 21.4 19.35 21.4 19.5 M21.9 19.4 L21.65 19.8 M21.25 18.85 L21.2 18.8 21.2 18.75 21.25 18.85 21.25 18.9 21.3 18.75 M21.35 19.15 L21.4 18.95 21.4 18.9 21.35 18.6 M21.4 18.9 L21.4 18.7 21.35 18.55 M21.4 18.95 L21.45 18.95 21.4 18.9 M21.3 19.15 L21.35 19.2 21.35 19.15 M21.4 19.35 L21.35 19.2 M21.4 19.35 L21.4 18.95 M22.5 24.05 Q22.65 24.95 23.45 24.8 L23.45 24.7 23.35 24.7 23.25 23.5 23.15 24.4 23.05 22.85 22.9 22.85 22.65 23.35 22.65 23.45 22.55 23.15 22.55 22.95 22.45 22.8 22.5 24.05 M23.15 23.1 L23.25 23.25 23.2 22.95 23.15 23.1 23.2 23.3 23.25 23.45 23.25 23.4 23.25 23.3 23.25 23.25 23.25 22.75 23.15 22.75 23.2 22.95 M23.25 23.3 L23.45 23.65 23.45 23.75 23.65 23.4 23.65 23.25 23.55 22.8 23.15 22.35 22.95 22.8 22.9 22.85 M23.45 23.75 L23.45 24.65 23.55 23.95 23.65 23.4 M23.25 23.45 L23.25 23.5 23.45 23.75 M23.45 24.7 L23.45 24.65 M4.85 10.75 L4.85 11.15 4.95 11.95 5.05 11.95 5.25 11.15 5.35 11.55 5.45 11.95 5.7 11.5 5.85 11.05 5.85 11.65 6.15 11.55 6.3 11.45 6.35 11.25 6.35 11.35 6.15 11.75 6.3 11.5 6.3 11.45 6.35 11.35 M8.0 14.2 L7.9 14.7 7.9 14.8 7.6 14.6 7.6 14.9 7.5 14.6 7.5 14.7 7.4 14.7 7.4 14.4 7.5 14.6 7.5 14.4 7.4 14.3 Q7.35 14.15 7.2 14.7 L7.05 14.65 6.85 14.6 6.85 14.9 7.2 14.95 7.55 15.0 8.5 14.75 9.3 14.3 9.65 14.7 9.95 15.25 10.3 14.9 10.65 14.6 11.3 15.3 11.75 15.95 11.8 15.95 11.85 16.05 12.3 15.4 12.75 14.7 13.05 15.35 13.3 16.05 13.55 15.55 14.0 15.0 14.3 14.95 14.6 14.8 14.75 14.7 15.0 14.6 15.45 14.8 15.65 15.25 15.7 15.25 15.7 15.35 16.1 14.7 16.3 14.9 16.55 15.35 16.85 14.7 17.25 14.1 17.7 14.55 18.3 14.8 Q18.6 14.8 19.0 14.4 L19.4 14.0 19.85 14.4 20.6 14.5 M5.35 18.55 L5.55 17.95 5.45 17.95 5.15 18.5 5.05 18.7 5.35 18.5 5.35 18.55 5.3 18.9 5.35 18.85 5.55 18.8 5.6 18.5 5.8 18.5 5.85 18.35 6.05 18.5 6.15 18.6 6.15 18.65 6.45 18.25 6.55 18.25 6.55 18.4 6.6 18.6 6.75 18.8 6.7 18.8 Q6.75 19.2 6.4 19.45 L6.4 19.5 6.35 19.6 6.25 19.6 5.8 19.7 5.15 19.45 4.95 19.3 4.55 19.45 4.55 19.6 4.4 19.65 4.2 19.7 4.15 19.7 4.0 19.75 3.9 19.8 3.9 19.7 3.8 19.6 3.7 19.45 3.6 19.0 Q3.6 18.9 3.9 18.9 L3.95 18.9 3.6 18.7 3.4 18.35 3.3 18.7 3.3 18.35 3.4 18.35 3.85 18.45 3.95 18.9 4.2 18.35 4.75 17.65 4.8 18.25 4.85 18.2 4.85 18.3 4.85 18.95 5.05 18.7 4.85 19.1 4.85 18.95 4.8 19.15 4.9 19.15 5.3 18.65 5.35 18.55 M5.95 18.5 L5.8 18.5 5.65 18.85 5.9 18.65 5.95 18.55 5.95 18.5 6.05 18.5 5.9 18.7 5.85 19.0 5.95 19.1 6.15 18.65 6.15 18.75 6.15 18.95 6.05 19.0 5.95 19.1 5.95 19.15 6.35 18.85 6.35 18.8 6.4 18.75 6.55 18.4 6.55 18.55 6.4 19.45 M9.55 18.25 Q9.95 18.1 10.15 18.6 L10.3 19.15 10.35 19.05 10.35 19.3 10.3 19.15 10.25 19.25 9.95 19.6 9.8 19.5 9.7 19.6 9.7 19.55 9.6 19.6 9.6 19.7 9.55 19.7 9.35 19.15 9.25 18.95 9.1 18.8 9.1 18.7 9.25 18.95 9.4 19.15 9.5 19.3 9.45 19.0 9.4 18.95 9.3 18.7 9.4 18.7 9.45 18.75 9.5 18.55 9.55 18.25 M9.8 18.5 L9.8 19.4 9.85 19.4 9.95 19.1 10.0 19.1 10.05 18.9 10.0 18.6 9.95 18.5 9.8 18.5 M4.8 18.25 L4.8 18.4 4.85 18.3 4.8 18.25 M3.8 19.6 L3.8 19.5 3.8 19.3 4.4 19.3 4.55 18.95 4.7 18.55 4.65 18.6 4.45 19.1 4.45 19.0 4.65 18.6 4.7 18.45 4.7 18.55 4.8 18.4 4.75 19.1 4.8 19.15 4.85 19.2 4.9 19.15 4.95 19.2 5.15 19.05 5.2 19.0 5.25 19.0 5.25 18.95 5.3 18.9 M6.25 19.6 L6.05 19.55 6.05 19.6 5.95 19.6 5.85 19.6 5.85 19.55 5.75 19.55 5.55 19.45 5.15 19.3 5.05 19.25 4.95 19.3 4.85 19.2 4.75 19.3 4.75 19.2 4.75 19.1 M5.05 19.25 L4.95 19.2 4.85 19.2 4.75 19.2 4.8 19.15 M3.95 18.9 L3.9 19.0 3.9 18.9 M4.15 19.5 L3.8 19.5 3.85 19.6 4.15 19.7 4.15 19.5 M3.9 19.7 L3.85 19.6 3.8 19.6 M4.45 19.35 L4.45 19.3 4.4 19.3 4.35 19.5 4.55 19.45 4.55 19.4 4.45 19.35 M9.95 19.25 L9.85 19.4 10.15 19.4 10.15 19.1 10.0 19.1 9.95 19.25 M9.45 19.0 L9.6 19.3 9.6 19.1 9.5 18.9 9.45 18.75 9.4 18.9 9.4 18.95 M9.7 19.55 L9.8 19.5 9.6 19.3 9.6 19.45 9.7 19.55 M9.6 19.45 L9.6 19.6 9.5 19.3 9.6 19.45 M9.85 19.4 L9.8 19.5 M7.2 19.2 L7.2 18.8 7.1 18.85 7.1 18.9 7.15 19.05 7.2 19.2 7.3 19.2 7.2 18.8 M6.35 18.85 L6.3 19.1 6.5 18.7 6.5 18.65 6.35 18.8 M5.65 18.85 L5.65 18.9 5.85 18.75 5.9 18.7 5.9 18.65 M5.7 19.15 L5.55 18.95 5.45 19.0 5.45 19.4 5.55 19.45 5.75 19.5 5.75 19.35 5.75 19.2 5.7 19.15 M5.75 19.2 L5.85 19.5 5.95 19.55 5.95 19.2 5.95 19.15 5.85 19.2 5.85 19.0 5.75 18.9 5.75 19.0 5.75 19.2 M5.95 19.55 L6.05 19.55 6.05 19.2 5.95 19.2 M5.55 18.8 L5.55 18.9 5.6 18.9 5.65 18.85 M5.6 18.9 L5.65 18.9 5.65 18.95 5.75 19.0 M5.45 18.9 L5.45 19.0 5.55 18.9 5.45 18.9 M5.25 19.0 L5.15 19.05 5.15 19.1 5.45 19.0 5.05 19.25 M5.55 18.95 L5.55 18.9 M5.6 18.9 L5.55 18.95 M5.85 19.5 L5.85 19.55 5.95 19.6 5.95 19.55 M5.75 19.35 L5.8 19.5 5.85 19.5 M6.4 19.5 L6.25 19.6 M5.9 22.15 L5.85 22.15 5.85 21.95 6.05 21.95 6.05 22.15 5.9 22.15 6.05 22.2 6.1 22.2 6.15 21.95 6.2 22.15 6.3 22.05 6.3 21.75 6.35 21.75 6.35 21.95 6.3 22.25 6.3 22.45 6.2 22.25 6.15 22.2 6.05 22.35 6.05 22.25 6.1 22.2 6.15 22.2 6.2 22.15 6.2 22.25 6.3 22.25 6.3 22.05 6.35 21.95 M9.95 23.45 L10.15 23.9 10.55 23.1 10.65 22.75 10.65 22.65 10.65 22.55 Q11.2 22.7 11.25 23.15 L11.3 23.15 11.35 23.15 11.5 23.1 11.55 22.95 11.65 22.95 11.7 23.2 12.05 22.85 12.05 24.05 11.95 24.3 11.85 24.3 11.8 24.0 11.75 23.75 11.65 23.75 11.45 24.55 11.25 25.4 11.15 25.35 11.05 25.3 10.85 25.0 10.55 24.8 10.1 24.9 9.7 25.0 9.7 24.9 10.1 24.0 9.95 23.55 9.95 23.45 M6.55 18.55 L6.5 18.65 M16.6 19.9 L16.75 19.4 16.3 20.0 16.25 20.15 16.55 19.95 16.6 19.9 16.8 19.6 16.85 19.55 16.85 19.5 16.9 19.5 16.95 19.1 17.05 19.1 17.1 19.35 17.15 19.5 17.15 19.35 17.25 17.95 17.25 18.1 17.45 18.4 17.55 19.0 17.5 19.55 17.45 20.1 17.35 20.1 17.35 18.9 17.25 19.6 17.15 19.6 17.05 20.7 16.95 20.8 16.6 20.5 16.4 20.35 16.0 20.95 16.0 20.8 16.15 20.4 16.1 20.4 16.1 20.3 15.85 20.65 15.9 20.15 15.75 20.0 15.7 19.95 15.65 20.1 15.45 20.4 15.7 19.95 15.6 19.9 15.45 20.3 15.45 20.4 15.15 20.9 14.65 21.35 14.1 20.8 14.0 20.8 Q13.65 20.6 13.1 19.4 L13.1 19.05 13.05 19.0 12.7 19.35 12.25 19.6 12.25 18.8 Q12.0 19.75 11.6 19.95 L11.55 20.1 11.45 20.05 11.35 20.0 11.2 19.95 11.15 19.9 11.15 19.85 11.1 19.95 10.85 20.1 11.05 19.3 11.05 19.2 11.05 18.7 11.05 18.85 11.05 18.95 11.15 18.9 11.2 18.95 11.35 18.9 11.65 19.2 11.65 19.55 11.65 19.85 11.6 19.95 11.4 20.0 11.35 20.0 11.35 19.5 11.25 19.5 11.15 19.85 11.05 19.3 M17.35 18.9 L17.35 18.7 17.45 18.45 17.45 18.4 M13.05 19.0 L12.55 18.1 12.65 18.1 13.35 18.8 13.3 18.35 13.4 18.35 13.8 18.8 13.8 18.6 14.1 19.0 14.1 18.9 14.4 18.9 14.5 19.0 14.5 18.35 14.6 18.5 14.7 19.35 14.9 19.6 15.0 19.75 15.0 19.7 15.0 19.2 15.05 19.25 15.05 19.2 15.05 19.1 15.05 18.9 15.1 19.25 15.1 19.3 15.25 19.45 15.35 19.0 15.25 19.5 15.3 19.55 15.5 19.75 16.1 18.6 15.8 19.45 15.6 19.85 15.7 19.95 16.1 19.35 16.85 18.35 16.45 19.65 16.3 20.0 16.2 20.2 16.25 20.15 16.25 20.2 16.35 20.3 16.55 19.95 M15.05 19.25 L15.1 19.25 15.05 19.2 M14.45 19.3 L14.5 19.65 14.7 19.7 14.7 19.4 14.7 19.35 14.5 19.0 14.45 19.3 M13.8 18.8 L14.05 19.2 14.1 19.3 14.1 19.0 14.25 19.55 14.25 19.6 14.5 19.65 Q14.5 20.1 14.65 20.35 L14.7 20.15 14.7 19.7 15.0 19.75 15.1 19.75 15.1 19.7 15.1 19.6 15.0 19.7 15.05 19.25 M14.15 19.7 L14.1 19.6 14.05 19.55 14.05 19.6 14.15 19.7 14.3 19.9 14.2 19.6 14.1 19.6 14.1 19.5 14.1 19.3 14.2 19.6 14.25 19.6 14.3 19.9 14.4 20.1 14.4 20.55 14.65 20.35 14.7 20.4 14.7 20.55 15.05 19.85 15.0 19.8 15.0 19.75 15.05 19.85 15.1 19.75 15.15 19.8 15.2 19.5 15.1 19.7 M14.05 19.55 L13.95 19.55 14.0 19.75 14.25 20.55 14.3 20.3 14.2 19.85 14.15 19.75 14.05 19.6 M14.05 19.55 L13.95 19.45 13.95 19.55 13.65 19.5 13.95 20.15 14.25 20.55 14.25 20.6 14.3 20.6 14.3 20.55 14.3 20.3 14.3 20.1 14.2 19.85 14.15 19.7 M13.8 18.8 L13.95 19.4 14.05 19.55 M13.95 19.4 L13.9 19.35 13.95 19.45 13.95 19.4 M14.3 19.9 L14.3 20.1 14.35 20.55 14.4 20.55 14.4 20.65 14.35 20.65 14.3 20.7 14.25 20.6 14.2 20.8 14.1 20.8 13.9 20.45 13.1 19.05 13.1 18.8 13.3 18.8 13.4 18.9 13.35 18.8 13.65 19.1 13.7 19.2 13.75 19.2 13.8 19.25 13.8 19.3 13.9 19.35 M15.15 19.95 L15.2 19.8 15.15 19.8 15.1 19.85 15.1 19.9 15.15 19.95 15.2 20.1 15.3 19.95 15.3 19.85 15.2 19.8 15.2 19.7 15.25 19.5 15.2 19.5 15.25 19.45 15.25 19.5 M15.1 19.85 L15.1 19.75 M15.1 19.9 L15.15 20.0 15.15 19.95 M15.05 19.85 L15.1 19.9 14.95 20.4 14.9 20.65 15.0 20.55 15.05 20.5 15.15 20.0 15.2 20.1 15.25 20.25 15.35 20.15 15.45 19.9 15.45 19.85 15.3 19.85 15.3 19.7 15.3 19.55 M15.1 19.3 L15.1 19.6 M13.7 19.2 L13.4 18.9 13.65 19.5 13.5 19.5 13.4 19.4 13.95 20.15 14.2 20.65 14.25 20.6 M15.0 20.8 L15.0 20.95 15.25 20.35 15.25 20.25 15.05 20.5 15.0 20.8 M14.35 20.55 L14.35 20.65 14.3 20.65 14.3 20.6 14.35 20.55 M14.9 20.65 L14.5 21.1 14.5 21.05 14.9 20.65 M11.05 18.95 L11.05 19.2 11.2 18.95 M11.5 23.1 L11.55 23.05 11.65 23.3 11.7 23.2 11.75 23.35 11.75 23.75 11.65 23.3 11.45 23.65 11.45 23.7 11.45 23.75 11.45 23.95 11.4 23.8 11.4 23.75 11.45 23.7 11.35 23.4 11.4 23.3 11.5 23.1 M10.65 23.15 L10.65 22.95 10.55 23.1 10.35 24.35 10.85 24.9 10.85 24.4 10.8 24.4 10.75 24.6 10.7 23.95 10.65 23.4 10.45 23.85 10.65 23.35 10.75 23.15 10.65 23.15 M10.65 22.75 L10.65 22.95 10.7 22.85 10.65 22.65 M10.85 22.65 L10.7 22.85 10.8 23.05 10.85 22.75 10.85 22.65 M11.05 23.15 L11.05 22.85 10.95 22.75 10.8 23.1 10.85 23.15 11.05 23.15 11.1 23.15 11.15 23.05 11.2 23.15 11.25 23.15 M10.8 23.05 L10.75 23.15 10.8 23.15 10.8 23.1 10.8 23.05 M10.8 23.15 L10.7 23.3 10.65 23.4 10.75 23.45 10.85 24.35 10.85 24.3 10.85 23.75 11.0 23.45 10.85 23.15 10.8 23.15 M11.05 23.15 L11.15 23.55 11.35 23.4 11.2 23.15 11.1 23.15 M11.15 23.7 L11.2 24.1 11.4 23.75 11.15 23.55 11.15 23.65 11.15 23.7 M11.05 23.15 L11.0 23.45 11.05 23.55 11.15 23.55 M10.65 23.4 L10.65 23.35 M10.15 23.9 L10.1 24.0 10.25 24.25 10.15 23.95 10.15 23.9 M10.25 24.25 L10.35 24.35 10.35 24.5 10.25 24.4 10.25 24.25 M10.85 24.3 L10.95 24.1 11.15 23.65 M10.85 24.4 L10.85 24.35 10.8 24.4 M11.2 24.1 L10.85 24.9 11.05 24.9 11.35 24.45 11.45 24.1 11.35 24.4 11.25 24.4 11.2 24.1 M11.45 24.1 L11.45 23.95 M11.3 23.15 L11.35 23.25 11.35 23.15 M17.95 18.9 L18.2 19.4 18.8 19.9 19.1 19.35 19.1 18.6 18.75 19.05 18.35 19.4 18.3 19.25 18.25 19.2 18.35 18.35 M19.1 19.6 L19.35 19.25 19.6 18.9 19.6 18.8 19.15 19.3 19.1 19.35 19.1 19.6 M16.35 20.3 L16.4 20.35 16.55 20.05 16.8 19.6 M16.6 20.5 L16.85 19.9 16.85 20.3 16.95 20.2 16.95 19.5 16.9 19.5 M17.15 19.6 L17.15 19.5 M15.45 19.9 L15.5 19.75 15.6 19.85 15.6 19.9 15.45 19.9 M15.7 19.95 L15.95 19.7 15.9 20.05 16.0 20.1 16.2 20.2 16.25 20.2 16.15 20.4 16.35 20.4 16.35 20.3 M15.75 20.0 L15.9 20.05 15.9 20.15 16.1 20.2 16.0 20.1 M16.2 20.2 L16.15 20.2 16.1 20.3 16.1 20.2 16.15 20.2 M15.25 20.35 L15.35 20.15 M17.65 23.15 L17.75 23.15 17.8 22.75 17.85 22.4 17.55 22.35 17.65 23.15 M17.85 22.4 L17.9 22.4 17.85 22.25 17.85 22.4 M18.15 22.45 L17.9 22.4 18.05 23.05 18.15 23.05 18.15 22.45 M17.35 18.9 L17.45 18.45 M25.3 28.05 L25.05 28.15 25.0 28.35 24.7 28.15" fill="none" stroke="#000000" stroke-linecap="round" stroke-linejoin="round" stroke-opacity="0.9882353" stroke-width="0.05"/>
  </g>
</svg>
