<?xml version="1.0" encoding="UTF-8" standalone="no"?>
<svg xmlns:xlink="http://www.w3.org/1999/xlink" height="138.2px" width="118.05px" xmlns="http://www.w3.org/2000/svg">
  <g transform="matrix(1.0, 0.0, 0.0, 1.0, -0.05, 0.0)">
    <path d="M52.75 50.55 L49.3 78.45 60.7 77.8 52.75 50.55 M73.6 0.0 Q76.3 0.0 78.4 1.6 80.45 3.2 81.25 5.9 L117.8 122.8 118.05 124.05 Q118.35 127.6 116.25 130.05 114.15 132.55 110.65 132.8 L110.4 132.85 81.25 134.1 Q78.45 134.1 76.3 132.5 74.15 130.85 73.4 128.15 L73.3 127.9 69.05 110.0 46.9 111.4 45.15 128.15 45.1 128.4 Q44.65 131.35 42.65 133.25 40.65 135.2 37.75 135.4 L8.9 138.2 8.05 138.2 Q4.8 138.2 2.6 136.15 0.35 134.05 0.1 130.8 L0.05 130.3 0.1 128.95 17.25 10.5 Q17.6 7.55 19.6 5.6 21.6 3.6 24.55 3.35 L73.6 0.0" fill="#ff0000" fill-rule="evenodd" stroke="none"/>
  </g>
</svg>
