<?xml version="1.0" encoding="UTF-8" standalone="no"?>
<svg xmlns:xlink="http://www.w3.org/1999/xlink" height="10.8px" width="40.75px" xmlns="http://www.w3.org/2000/svg">
  <g transform="matrix(1.0, 0.0, 0.0, 1.0, 4.85, -15.95)">
    <path d="M25.9 17.5 L26.2 17.55 26.5 17.65 26.5 17.3 M28.65 23.55 L28.65 23.25 28.55 23.45 28.65 23.55 28.75 23.7 28.75 23.65 28.75 23.45 28.8 23.6 28.9 23.5 29.05 23.9 29.35 23.9 29.55 23.7 29.5 23.35 29.55 23.6 29.6 23.4 29.6 23.8 29.6 23.9 29.6 24.1 29.6 24.2 29.6 24.35 29.5 24.3 29.5 24.5 28.75 23.9 28.75 24.2 28.65 24.2 28.55 24.2 28.5 24.35 28.5 24.2 28.35 24.2 28.35 24.15 28.25 24.1 28.2 24.05 28.2 23.6 28.2 23.5 28.35 23.65 28.3 23.7 28.35 23.8 28.5 23.8 28.5 23.75 28.5 23.35 28.55 23.45 28.5 23.75 M28.5 23.8 L28.65 23.75 28.65 23.55 M28.65 23.75 L28.75 23.7 28.85 23.8 28.9 23.8 28.85 23.65 28.8 23.6 28.8 23.65 28.75 23.65 M28.75 23.7 L28.75 23.9 28.7 24.0 28.65 24.2 28.65 24.1 28.55 24.2 28.5 24.2 28.5 23.8 28.35 24.2 M28.75 23.7 L28.7 23.95 28.7 24.0 28.65 24.1 28.65 23.75 M28.9 23.8 L29.0 23.9 29.05 23.9 29.1 24.0 29.5 24.2 29.6 23.9 29.55 23.8 29.55 23.7 29.55 23.6 29.6 23.8 M29.5 24.3 L29.15 24.1 29.1 24.0 29.0 23.9 28.9 23.9 28.9 23.8 M28.35 23.8 L28.3 23.8 28.3 23.7 28.25 23.6 28.2 23.5 M28.35 24.15 L28.25 23.9 28.2 23.6 M29.6 24.2 L29.5 24.2 29.5 24.3 M34.5 24.3 L34.35 24.15 34.35 24.2 34.5 24.35 34.5 24.3 34.45 24.15 34.45 24.1 34.35 24.05 34.35 24.15 34.2 23.9 34.35 24.05 M34.9 24.6 L34.65 24.45 34.5 24.3 M34.45 24.1 L34.85 24.25 35.05 24.25 35.9 24.05 35.75 24.2 35.05 24.25 M0.1 24.45 L0.15 24.1 0.2 23.95 -0.1 23.35 0.4 23.2 0.9 23.1 1.05 23.2 1.05 23.5 0.85 23.6 0.55 23.7 0.6 23.85 0.65 23.95 0.75 24.05 0.75 24.15 0.8 24.2 Q0.9 23.75 1.25 23.55 L1.5 23.5 1.75 23.35 1.7 23.65 1.8 23.7 2.5 23.9 2.55 23.5 2.6 22.95 3.1 22.6 3.1 22.55 3.05 22.35 3.2 22.35 3.1 22.55 M0.55 23.7 L0.5 23.65 0.5 23.8 0.6 23.85 0.6 23.9 0.65 23.95 0.75 24.15 0.75 24.35 0.8 24.2 1.05 24.65 1.5 24.1 1.7 23.65 1.5 23.5 M0.2 23.95 L0.25 24.05 0.2 23.65 0.2 23.95 M0.35 24.2 L0.75 24.95 0.75 24.35 0.3 24.05 0.25 24.05 0.35 24.2 M14.75 23.65 L14.75 22.95 15.2 23.3 15.65 23.5 15.8 23.5 15.7 23.4 15.7 23.3 Q15.6 23.15 15.35 23.1 L15.8 23.1 15.7 23.4 M-2.05 16.1 L-1.95 16.45 -2.0 16.7 -1.8 16.85 -1.65 16.65 -1.65 16.9 -1.15 17.15 Q-0.75 17.4 -0.35 17.8 L-0.5 17.9 -0.8 17.95 Q-1.45 17.95 -1.65 16.9 L-1.8 16.85 -2.05 17.15 -2.1 17.15 -2.1 17.2 -2.1 18.05 -1.9 18.15 -1.4 18.35 -1.35 18.45 -1.25 18.5 -1.6 18.65 -2.1 18.65 -2.15 18.65 -2.2 19.05 -3.3 18.6 -3.85 18.3 -4.65 17.95 -4.65 17.8 -3.85 18.3 -3.6 18.35 -2.15 18.65 -2.1 18.05 -2.5 17.95 -2.65 17.95 -3.0 18.2 -3.2 18.35 -3.2 18.2 -3.35 18.2 -3.3 17.7 -3.5 18.35 -3.65 18.2 -3.65 16.35 -3.5 16.35 -3.35 16.55 -3.35 16.5 -3.1 16.15 -2.8 15.95 -2.65 16.2 -2.6 16.25 -2.3 16.65 -2.1 16.65 -2.0 16.7 -2.05 16.85 -2.1 17.15 -2.15 17.0 -2.3 17.3 -2.1 17.15 -2.1 16.8 -2.15 17.0 -2.3 16.65 -2.4 16.65 -2.2 17.05 -2.35 17.05 -2.55 16.65 -3.05 17.1 Q-2.85 17.35 -2.45 17.35 L-2.3 17.3 -2.35 17.35 Q-2.6 17.65 -2.95 17.65 L-3.1 17.6 -3.15 17.7 -3.2 18.2 -2.95 18.05 -2.65 17.95 M-2.65 16.2 L-2.55 16.55 -2.55 16.65 -2.4 16.65 -2.45 16.55 -2.6 16.25 M-3.05 17.1 L-3.1 17.05 -3.1 17.2 -3.05 17.1 M-3.1 17.05 L-3.2 17.05 -3.25 17.55 -3.1 17.25 -3.1 17.2 M-3.25 17.55 L-3.1 17.6 -3.1 17.25 M-3.1 17.05 L-3.35 16.55 -3.35 17.5 -3.25 17.55 -3.3 17.7 M-2.1 16.8 L-2.1 16.65 M-3.6 26.75 L-4.0 26.55 -4.85 26.2" fill="none" stroke="#000000" stroke-linecap="round" stroke-linejoin="round" stroke-opacity="0.9882353" stroke-width="0.05"/>
  </g>
</svg>
