<?xml version="1.0" encoding="UTF-8" standalone="no"?>
<svg xmlns:xlink="http://www.w3.org/1999/xlink" height="15.8px" width="23.35px" xmlns="http://www.w3.org/2000/svg">
  <g transform="matrix(1.0, 0.0, 0.0, 1.0, -6.3, -9.75)">
    <path d="M22.0 10.4 L22.15 10.45 22.15 10.55 22.0 11.0 21.9 11.35 21.9 10.95 22.05 10.55 21.75 10.7 21.7 10.95 21.6 10.85 21.55 10.95 21.5 11.15 21.4 11.15 21.25 10.65 21.15 10.4 21.1 10.35 21.1 11.15 20.6 10.25 20.55 10.25 20.45 10.25 20.5 10.35 20.7 10.55 20.9 11.05 20.6 10.55 20.5 10.35 20.4 10.25 20.3 10.3 20.2 10.35 20.15 10.75 20.1 11.05 19.9 11.05 19.6 10.75 19.35 10.6 19.2 10.45 19.2 10.55 19.15 10.45 19.1 10.45 19.1 10.35 19.2 10.45 19.2 10.25 19.6 10.75 19.85 10.35 20.1 10.15 20.4 10.25 20.45 10.25 20.4 10.05 20.6 10.25 Q20.8 10.25 20.9 10.4 L21.0 10.65 21.05 10.45 21.1 10.3 21.15 10.4 21.4 10.65 21.6 10.85 21.75 10.7 21.75 10.65 21.8 10.35 22.0 10.4 M21.1 10.3 L21.1 10.35 M23.4 10.65 L23.45 10.4 23.4 10.4 23.25 10.25 23.25 10.75 23.35 10.75 23.4 10.65 23.6 10.9 M23.55 9.75 L23.5 10.15 23.45 10.25 23.45 10.4 M21.4 14.1 L21.05 14.8 21.0 14.9 21.05 15.05 21.1 15.25 21.3 15.0 21.4 15.15 21.5 15.25 21.6 15.95 21.8 15.3 21.8 15.15 21.9 14.55 22.2 14.1 22.15 13.7 21.7 14.3 Q21.55 14.6 21.65 15.0 L21.5 15.0 21.5 14.6 21.4 14.1 M20.5 15.15 L20.4 15.9 20.3 16.65 20.3 16.85 20.6 16.35 20.65 16.25 20.6 16.0 20.65 15.4 20.7 15.15 20.5 15.15 M20.8 15.25 L20.9 14.9 21.0 14.9 20.9 14.7 20.7 14.4 20.3 15.0 20.0 15.85 20.0 15.95 20.35 15.3 20.7 14.8 20.7 14.75 20.8 14.7 20.7 15.15 20.8 15.25 20.8 15.55 20.8 15.7 20.85 15.65 21.0 14.95 21.0 14.9 M20.85 15.65 L20.95 15.45 21.0 15.0 21.0 14.95 M21.1 15.25 L20.95 15.45 20.95 15.55 21.1 15.35 21.1 15.25 M21.8 15.3 L21.9 15.15 21.8 15.35 21.8 15.5 21.8 15.85 22.2 15.5 22.25 15.0 22.2 14.4 22.2 14.1 M21.8 15.3 L21.8 15.35 M21.6 15.95 L21.65 16.05 21.8 15.5 M20.95 15.55 L20.95 15.6 20.8 16.25 20.8 15.95 20.8 15.7 20.65 16.25 20.8 16.55 21.6 16.0 21.6 15.95 M20.85 15.65 L20.8 15.95 20.95 15.6 M20.8 15.25 L20.7 15.85 20.8 15.7 M11.6 10.65 L11.55 10.55 11.3 10.5 11.4 10.6 11.6 10.65 11.7 10.7 11.6 10.55 11.55 10.55 11.25 10.45 11.3 10.5 11.2 10.45 10.7 10.35 11.4 10.6 11.55 10.85 11.65 10.8 11.6 10.75 11.6 10.65 M11.55 10.55 L11.55 10.5 11.55 10.35 12.1 10.75 12.15 10.85 12.2 10.85 12.75 11.05 13.05 11.15 12.75 10.9 12.45 10.75 12.55 10.75 12.75 10.9 13.05 11.05 13.3 11.15 13.35 11.15 13.5 11.25 13.3 10.85 M11.75 10.8 L11.8 10.9 12.15 11.45 12.25 11.45 12.15 10.85 11.85 10.75 11.75 10.8 11.7 10.7 11.85 10.75 M11.75 10.8 L11.65 10.8 11.75 11.15 11.75 11.25 11.55 10.85 11.5 10.85 11.15 10.75 10.95 11.05 10.8 11.05 11.15 11.15 Q11.8 11.2 11.9 11.5 L12.35 12.15 12.45 11.45 12.55 11.05 12.75 11.05 M13.5 11.25 L13.5 11.3 Q13.55 11.15 13.65 11.3 L13.7 11.35 13.8 11.55 13.85 11.5 13.9 11.45 13.95 11.2 13.9 11.15 Q14.0 10.75 13.2 10.35 L11.45 9.95 8.5 10.05 8.65 10.25 8.8 10.25 9.05 10.15 9.45 10.25 8.8 10.25 8.85 10.3 9.25 10.35 9.7 10.35 9.8 10.35 9.8 10.15 10.85 10.25 11.25 10.45 10.7 10.35 10.65 10.35 10.55 10.35 9.8 10.35 10.8 11.05 10.75 11.05 10.3 10.9 10.25 10.9 9.7 10.85 9.0 11.15 8.8 11.25 8.65 11.35 8.6 11.45 8.2 11.85 8.2 11.75 8.3 11.55 8.0 11.75 7.8 11.95 7.8 12.05 7.7 11.9 7.65 11.9 7.6 11.85 7.65 11.7 Q7.6 11.5 7.7 11.4 L7.6 10.85 7.6 10.55 7.9 10.85 7.95 10.85 8.05 10.85 8.25 10.8 8.3 10.8 8.3 10.75 8.4 10.75 8.45 10.7 8.0 10.4 7.5 10.35 7.7 10.35 8.0 10.4 8.35 10.4 8.7 10.4 8.7 10.3 8.65 10.3 8.35 10.25 8.65 10.25 8.65 10.3 M10.25 10.9 L10.2 10.85 9.6 10.65 9.15 10.7 9.35 10.75 9.7 10.85 M14.2 10.65 L14.0 11.1 14.0 11.2 14.05 11.05 14.2 10.75 14.2 10.65 M13.5 11.3 L13.55 11.3 13.7 11.35 13.6 11.35 13.55 11.3 M13.35 11.15 L13.5 11.3 13.25 11.2 13.3 11.35 13.7 11.75 13.7 11.65 13.5 11.3 M13.25 11.2 L13.05 11.15 13.15 11.25 13.3 11.35 13.5 11.8 13.7 11.95 13.7 11.75 13.9 11.95 14.05 11.45 14.2 11.05 14.2 11.25 14.0 12.15 13.7 11.95 13.7 12.15 13.7 12.45 13.6 12.7 12.9 11.45 M13.25 11.2 L13.3 11.15 M13.95 11.2 L14.0 11.2 M18.65 11.3 L18.7 10.85 18.8 10.75 18.65 11.3 18.65 11.35 18.6 11.75 18.35 12.35 18.35 12.4 18.05 12.7 17.35 11.75 17.05 11.1 17.0 11.1 16.95 11.35 16.45 11.35 16.3 11.25 16.25 11.35 16.15 11.3 16.1 11.35 16.1 11.6 16.0 11.75 16.0 11.7 15.95 11.65 15.9 11.6 15.85 11.95 15.7 11.95 15.55 11.1 15.45 10.9 15.1 10.25 15.2 10.25 15.55 10.75 15.7 10.95 15.9 11.25 15.95 10.95 15.9 10.95 15.95 10.75 15.95 10.95 16.1 11.3 16.1 11.15 16.2 11.2 16.35 10.9 16.65 10.35 16.55 10.3 16.45 10.25 16.55 10.25 16.55 10.3 M16.65 10.35 L17.0 10.6 17.45 10.95 17.45 10.45 17.55 10.45 17.65 11.35 17.85 11.55 17.85 11.45 18.15 10.75 18.2 10.8 18.25 10.95 18.25 11.05 18.25 11.1 18.35 11.25 18.35 11.35 18.35 11.45 18.5 11.95 18.5 11.85 18.65 11.35 M16.65 10.35 L16.95 10.7 17.15 10.9 17.25 10.95 17.45 11.05 17.45 10.95 17.6 11.3 17.65 11.35 17.65 11.45 17.75 11.75 17.85 11.55 18.35 11.95 18.35 11.45 18.3 11.3 18.3 11.25 18.25 11.1 M15.55 10.75 L15.55 11.1 15.9 11.6 15.9 11.25 16.1 11.35 16.1 11.3 16.15 11.3 16.2 11.2 16.3 11.25 16.45 10.9 16.65 10.35 M17.45 11.2 L17.5 11.2 17.45 11.05 17.45 11.15 17.45 11.2 17.65 12.15 17.65 12.05 17.7 11.9 17.65 11.75 17.5 11.35 17.5 11.2 17.6 11.3 17.65 11.45 17.65 11.75 M16.95 10.7 L17.0 11.0 17.1 10.95 17.15 10.9 M17.1 10.95 L17.25 10.95 17.45 11.15 M17.0 11.0 L17.05 11.1 17.1 10.95 M18.2 10.8 L18.2 10.9 18.25 10.95 M18.35 11.35 L18.3 11.25 M18.35 11.95 L18.35 12.35 M17.75 11.75 L17.8 11.75 18.05 12.4 18.35 12.4 M17.7 11.9 L17.75 11.75 M9.15 10.7 L8.95 10.7 8.8 10.7 8.8 10.75 8.75 10.8 8.5 11.2 8.35 11.4 8.4 11.5 8.65 11.35 Q8.85 11.0 9.0 11.15 M9.25 10.35 L9.05 10.35 9.5 10.4 9.7 10.35 M8.7 10.3 L8.85 10.3 9.05 10.35 8.7 10.4 8.8 10.65 9.15 10.7 M8.3 10.8 L8.5 10.75 8.4 10.75 M8.5 10.75 L8.75 10.75 8.75 10.7 8.8 10.65 8.45 10.7 8.5 10.75 M8.75 10.75 L8.8 10.7 8.8 10.65 M8.7 10.8 L8.75 10.8 8.75 10.75 8.7 10.8 8.45 11.2 8.35 11.35 8.35 11.4 8.3 11.55 8.4 11.5 8.4 11.55 8.3 11.55 8.25 11.4 8.05 11.55 8.0 11.75 7.75 11.85 7.8 11.95 7.7 11.9 7.7 11.85 7.65 11.9 M8.35 11.35 L8.25 11.4 8.2 11.15 8.1 11.4 8.05 11.55 7.95 11.55 7.7 11.45 7.75 11.85 7.7 11.85 7.65 11.7 M8.2 11.15 L8.15 11.1 8.15 11.05 8.1 11.05 7.9 10.85 7.65 10.85 7.6 10.85 M8.15 11.1 L8.2 11.1 8.25 10.85 8.2 10.85 8.05 10.85 8.15 11.05 M8.35 11.35 L8.2 11.1 8.2 11.15 M7.7 11.4 L7.7 11.45 M8.25 10.85 L8.25 10.8 M8.7 10.8 L8.25 10.85 M7.75 13.4 L7.7 13.3 7.6 13.4 7.75 13.4 8.4 13.5 8.7 14.2 8.7 14.3 8.7 14.4 8.7 14.55 8.7 14.6 8.65 14.75 8.6 15.15 8.5 15.15 8.5 14.85 8.45 14.9 8.45 14.95 8.4 15.35 8.3 15.3 8.25 15.25 8.1 15.55 8.0 15.45 8.0 15.25 7.95 15.25 7.6 15.05 7.6 15.15 7.55 15.0 7.3 14.7 6.75 13.9 6.8 13.7 6.75 13.5 6.85 13.55 6.95 13.7 7.2 13.6 7.35 13.45 7.4 13.15 7.45 13.4 7.5 13.4 7.6 13.4 7.5 13.5 7.8 14.0 7.75 13.4 M8.4 13.5 L8.45 13.6 8.5 13.6 8.55 13.8 8.6 13.8 8.65 14.05 8.7 14.3 8.65 14.45 8.7 14.55 M8.45 13.6 L8.3 13.6 8.15 13.9 8.4 13.75 8.45 13.7 8.45 13.6 M8.45 13.7 L8.5 13.7 8.55 13.8 8.6 14.15 8.65 14.45 8.6 14.6 8.7 14.6 M8.4 13.5 L8.3 13.6 8.2 13.6 7.8 14.0 7.8 14.25 8.1 13.95 8.15 13.9 M8.4 13.75 L8.3 14.15 8.0 14.6 8.0 14.65 8.05 14.7 8.2 15.15 8.35 15.05 8.5 14.45 8.5 14.6 8.5 14.8 8.6 14.6 8.6 14.15 8.55 14.05 8.45 13.7 M7.8 14.25 L7.7 14.3 8.0 14.65 8.0 15.25 8.2 15.15 8.2 15.25 8.25 15.25 8.35 15.05 8.45 14.9 8.5 14.6 M7.6 14.2 L7.55 14.3 7.6 14.3 7.7 14.3 7.6 14.2 M7.6 15.05 L7.6 15.0 7.55 15.0 6.75 13.9 6.85 14.0 Q7.1 14.0 7.35 14.15 L7.55 14.3 7.5 14.4 7.55 14.85 7.55 15.0 M8.5 14.8 L8.5 14.85 M7.35 13.45 L7.35 13.6 7.3 13.7 7.5 13.5 7.45 13.4 7.35 13.45 M7.3 13.7 L7.2 14.0 7.2 13.9 7.3 13.7 M6.45 18.05 L6.7 18.6 6.95 17.85 6.95 17.55 6.85 17.45 6.85 17.95 6.45 17.45 6.3 17.45 6.3 17.75 6.45 18.05 M16.0 17.75 L16.05 17.65 16.05 17.6 16.0 17.55 16.0 17.75 15.95 18.4 15.85 18.8 15.85 18.9 15.95 18.9 16.1 18.1 16.1 17.9 16.05 17.65 M16.0 17.55 L16.0 17.45 15.85 17.25 15.85 17.75 16.0 17.75 M15.45 18.25 L15.5 18.75 15.55 19.2 15.85 18.8 15.85 17.75 15.6 17.75 Q15.45 17.75 15.45 17.9 L15.45 18.25 M16.1 18.1 L16.1 18.5 16.25 18.5 16.25 17.85 16.1 17.85 16.1 17.9 M13.4 14.5 L13.5 14.55 13.55 14.6 13.4 14.2 13.4 14.5 13.4 14.8 13.2 14.9 13.1 14.9 13.0 15.0 13.0 14.8 13.0 14.2 12.95 14.2 12.9 14.2 12.75 13.7 13.4 14.2 13.0 14.2 13.0 14.15 12.95 14.2 M13.4 14.5 L13.1 14.85 13.1 14.9 13.0 14.8 13.1 14.85 M11.85 19.65 L11.75 20.0 11.75 20.05 11.75 20.1 11.7 20.55 11.55 20.8 Q11.1 20.8 11.0 20.45 L10.95 19.75 11.0 19.25 11.05 18.7 11.15 18.8 11.15 18.7 11.2 18.85 11.2 18.9 11.35 19.1 11.55 19.35 11.6 19.45 11.75 19.9 11.8 19.55 11.85 19.35 11.85 19.65 M11.35 19.1 L11.45 19.35 11.55 19.6 11.6 19.45 M11.75 20.0 L11.75 19.9 11.55 19.6 11.45 20.0 11.45 20.65 11.75 20.05 M11.2 18.85 L11.15 18.8 11.25 19.1 11.35 19.1 M29.65 25.55 L29.65 25.3" fill="none" stroke="#000000" stroke-linecap="round" stroke-linejoin="round" stroke-opacity="0.9882353" stroke-width="0.05"/>
  </g>
</svg>
