<?xml version="1.0" encoding="UTF-8" standalone="no"?>
<svg xmlns:xlink="http://www.w3.org/1999/xlink" height="5.45px" width="24.0px" xmlns="http://www.w3.org/2000/svg">
  <g transform="matrix(1.0, 0.0, 0.0, 1.0, -3.95, -21.1)">
    <path d="M25.85 25.4 L24.65 25.35 24.45 25.3 24.8 25.9 25.4 25.95 26.25 25.65 26.95 24.95 26.25 24.8 25.8 24.9 25.4 25.1 24.7 25.1 24.7 24.55 24.65 24.5 24.4 24.4 Q24.15 24.4 24.1 24.5 L23.95 24.7 23.95 24.4 23.8 24.95 23.8 23.85 23.7 23.75 23.5 23.7 23.35 23.7 23.25 23.7 23.2 24.3 23.1 24.8 23.1 24.2 23.1 24.1 22.8 24.55 22.8 24.25 23.0 23.9 23.05 23.8 23.1 23.7 Q23.15 23.25 23.6 23.25 24.05 23.25 24.7 23.75 L24.9 23.85 25.25 23.85 25.4 23.85 25.55 23.85 26.4 23.75 27.55 23.55 27.6 24.4 Q27.7 24.9 27.95 25.1 L27.75 25.7 27.4 25.85 27.2 25.35 26.95 24.95 27.7 25.1 27.95 25.1 M23.95 24.4 L24.0 24.3 24.2 24.1 24.45 23.95 24.1 23.7 23.8 23.7 23.8 23.85 M23.8 23.7 L23.5 23.7 M23.05 23.8 L23.1 24.1 23.1 24.0 23.2 23.7 23.05 23.8 M23.2 23.7 L23.25 23.55 23.95 23.55 24.75 23.85 24.8 23.85 24.9 23.85 24.95 23.9 25.4 23.95 25.4 23.9 25.4 23.85 M23.25 23.7 L23.2 23.7 M24.75 23.85 L24.45 23.95 24.55 24.0 24.95 24.25 25.3 24.15 24.95 23.9 24.8 23.85 M25.4 23.95 L25.45 23.95 25.4 23.9 M25.45 23.95 L25.55 23.85 M25.35 24.1 L25.3 24.15 25.4 24.25 25.4 24.0 25.35 24.1 M25.4 23.95 L25.4 24.0 25.45 23.95 M9.7 23.95 L9.75 24.05 9.7 23.85 9.7 23.95 M20.2 24.75 L19.8 25.1 19.75 25.0 19.1 25.1 18.9 25.65 18.55 25.7 17.95 25.45 17.65 25.3 17.65 25.7 16.85 26.0 16.7 26.25 16.15 26.05 15.3 26.1 14.9 26.25 14.45 26.1 14.4 26.1 14.15 26.1 13.95 26.1 13.55 26.1 13.3 26.1 12.9 26.3 12.15 26.55 Q11.8 26.55 11.0 26.05 L10.7 25.8 10.65 25.8 10.2 25.25 9.25 24.7 9.25 24.45 9.25 24.35 9.1 24.25 9.1 24.1 9.25 24.25 9.25 23.95 9.4 23.95 9.4 24.15 9.55 23.95 9.7 24.1 9.7 24.55 9.95 24.35 9.75 24.05 10.0 24.25 10.3 24.0 Q10.65 23.7 11.15 23.7 L11.2 23.7 11.35 23.15 Q11.45 22.55 11.75 22.55 L12.8 22.85 13.7 23.1 Q13.6 22.95 13.8 22.5 L14.1 21.85 14.15 21.65 13.95 21.4 13.4 21.1 Q12.8 21.1 12.8 21.75 L12.95 22.25 13.25 22.55 13.5 22.5 M9.3 24.3 L9.4 24.4 9.4 24.15 9.35 24.2 9.3 24.3 9.25 24.45 M9.3 24.3 L9.25 24.25 9.25 24.35 M9.4 24.7 L9.8 24.75 9.55 24.5 9.4 24.4 9.4 24.7 M10.1 24.5 L10.35 24.55 10.35 24.5 10.0 24.25 9.95 24.35 10.1 24.5 M15.4 21.55 L15.05 21.75 14.8 21.85 14.65 21.6 14.25 21.4 14.15 21.6 14.15 21.65 14.25 21.85 14.1 21.85 14.05 22.45 13.95 22.95 14.1 22.95 14.25 22.45 14.65 21.95 15.1 22.5 15.55 22.95 Q16.0 22.2 16.4 22.1 L16.75 22.85 16.85 23.35 16.85 23.25 17.25 22.95 Q17.25 23.55 17.4 23.85 L17.5 23.85 17.75 23.5 Q18.0 23.2 18.4 23.1 L18.55 23.8 18.8 24.7 18.8 23.85 18.9 23.6 M11.1 23.85 L11.2 24.4 11.25 24.55 11.2 24.55 11.15 24.6 11.05 24.7 11.15 24.75 11.25 24.8 11.55 24.75 11.55 24.7 11.6 24.5 11.7 24.55 12.1 24.4 12.5 24.25 12.55 24.25 12.5 24.1 12.75 24.1 12.6 24.0 12.55 24.0 12.45 24.0 11.2 23.7 11.1 23.85 M11.2 24.4 L10.4 24.25 10.35 24.5 10.4 24.55 10.65 24.55 10.9 24.65 10.95 24.6 11.2 24.55 11.0 24.7 11.05 24.7 10.95 24.8 11.25 24.8 11.4 24.85 11.4 24.8 11.55 24.8 11.55 24.75 11.85 24.75 11.9 24.75 11.7 24.55 M10.4 24.55 L10.35 24.55 10.15 24.9 10.2 24.95 10.25 24.95 10.35 25.1 10.45 24.85 10.6 24.85 10.75 24.8 10.9 24.85 10.95 24.8 10.95 24.7 11.0 24.7 10.9 24.65 10.6 24.7 10.4 24.55 M12.55 24.25 L12.6 24.25 12.65 24.4 12.8 24.4 13.05 24.4 13.1 24.4 13.25 24.45 13.75 24.75 13.85 24.8 14.45 24.95 14.5 24.7 15.4 24.7 14.95 24.95 16.4 24.9 Q16.5 24.8 16.55 24.8 L16.8 24.9 18.1 24.8 18.5 24.75 18.8 24.7 13.95 24.4 13.25 24.25 13.15 24.25 13.15 24.2 13.0 24.2 12.75 24.1 12.8 24.1 12.6 24.0 M12.2 24.7 L12.4 24.55 12.1 24.55 12.1 24.7 12.15 24.7 12.2 24.7 12.4 24.7 12.4 24.55 12.2 24.45 12.1 24.4 M12.4 24.7 L12.35 24.75 12.35 24.8 12.5 24.8 12.55 24.8 12.65 24.7 12.45 24.7 12.4 24.7 12.65 24.65 12.65 24.6 12.65 24.55 12.5 24.55 12.4 24.55 M12.65 24.55 L12.6 24.4 12.2 24.45 M12.65 24.55 L12.65 24.4 12.6 24.4 12.55 24.25 M12.65 24.7 L12.65 24.65 12.8 24.6 12.65 24.6 M17.1 24.1 L16.7 23.85 16.7 24.55 16.55 24.5 16.4 24.4 16.3 24.15 Q16.15 23.95 15.8 23.95 L15.1 23.75 14.65 23.55 13.8 23.85 13.4 23.95 13.4 24.1 13.3 24.15 13.25 24.25 M13.1 24.4 L13.1 24.55 12.95 24.6 12.95 24.65 13.0 24.65 13.55 24.75 13.85 24.8 14.35 25.1 14.45 24.95 14.65 24.95 14.95 24.95 14.6 25.1 14.35 25.1 14.15 25.1 13.4 24.9 13.1 24.8 13.1 24.95 12.95 25.1 12.65 25.1 12.3 25.0 12.1 25.05 11.55 25.1 11.6 25.15 12.1 25.55 12.6 25.6 13.1 25.7 13.1 25.1 13.45 25.7 13.55 25.7 14.0 25.85 14.3 25.65 14.9 25.4 15.25 25.7 15.6 25.9 15.8 25.85 15.85 25.85 16.1 25.4 16.4 24.9 16.8 24.9 16.9 24.95 17.1 25.1 Q17.65 25.35 17.65 24.95 L17.65 25.3 17.6 25.25 17.05 25.65 16.85 26.0 16.15 26.05 15.85 25.85 15.8 25.95 15.6 25.9 15.4 26.05 15.3 26.1 14.95 26.1 14.45 26.1 M12.7 24.7 L12.85 24.6 12.8 24.6 12.7 24.7 12.65 24.7 13.1 24.8 13.1 24.7 13.0 24.65 M12.85 24.6 L12.85 24.55 12.8 24.55 12.8 24.6 M12.95 24.6 L12.85 24.6 12.95 24.65 M13.05 24.4 L12.85 24.55 12.95 24.55 12.95 24.6 M12.65 24.55 L12.8 24.55 12.8 24.4 M13.0 24.2 L12.8 24.1 13.4 23.95 M17.25 24.55 L17.1 24.55 17.3 24.6 17.25 24.55 M14.4 26.1 L14.15 25.95 14.0 25.85 13.75 25.95 13.95 26.1 M14.4 26.1 L14.8 25.7 M13.7 25.95 L13.75 25.95 13.45 25.7 12.8 25.75 12.5 25.8 12.5 25.85 13.3 26.1 13.7 25.95 M12.35 24.8 L12.25 24.95 12.35 24.95 12.5 24.85 12.5 24.8 M12.5 24.85 L12.55 24.8 M12.5 24.85 L12.5 24.95 12.35 24.95 12.3 25.0 12.2 24.95 11.7 24.95 11.55 24.95 11.55 25.1 Q11.25 24.85 10.9 24.85 L10.85 24.85 10.6 24.85 M12.35 24.8 L12.1 24.8 12.1 24.75 12.0 24.85 12.2 24.95 12.25 24.95 M11.7 24.95 L12.0 24.85 11.9 24.75 12.0 24.75 12.05 24.75 12.1 24.7 12.1 24.75 12.15 24.7 M11.4 24.85 L11.4 24.95 11.55 24.95 11.4 24.85 M11.85 24.75 L11.55 24.8 11.55 24.95 M10.35 25.1 L10.65 25.45 10.6 25.25 10.55 25.15 10.9 25.6 10.9 25.65 11.45 25.8 11.65 25.7 Q11.9 25.55 12.1 25.55 L12.5 25.8 11.95 25.85 11.45 25.8 11.25 25.85 Q11.0 25.85 10.9 25.65 L10.65 25.55 10.7 25.8 M10.65 25.45 L10.65 25.55 10.55 25.5 10.2 25.25 10.1 24.95 9.8 24.75 10.15 24.9 10.1 24.95 10.2 24.95 10.4 25.25 10.35 25.1 M10.65 25.55 L10.65 25.7 10.65 25.8 M4.4 25.25 L4.8 24.85 5.25 24.55 5.25 24.8 5.45 24.75 5.7 24.6 M3.95 25.1 L4.1 25.3 4.25 25.5 4.7 25.85 4.9 25.75 4.95 25.4 5.15 25.65 5.55 25.7 6.05 25.55 6.7 24.95 M24.45 25.3 L24.7 26.25 24.1 25.45 23.8 25.05 23.5 24.8 23.5 24.7 23.8 25.05 24.45 25.3" fill="none" stroke="#000000" stroke-linecap="round" stroke-linejoin="round" stroke-opacity="0.9882353" stroke-width="0.05"/>
  </g>
</svg>
