<?xml version="1.0" encoding="UTF-8" standalone="no"?>
<svg xmlns:xlink="http://www.w3.org/1999/xlink" height="25.15px" width="26.15px" xmlns="http://www.w3.org/2000/svg">
  <g transform="matrix(1.0, 0.0, 0.0, 1.0, -2.2, -5.35)">
    <path d="M4.55 6.35 L4.75 6.6 5.05 6.9 5.25 6.8 5.5 6.7 5.7 6.7 5.75 7.1 6.15 6.6 6.4 6.4 6.7 6.6 6.85 6.9 7.6 6.6 8.15 6.95 8.5 7.5 9.15 6.8 Q9.8 6.2 10.25 6.2 L10.35 6.8 10.35 6.9 10.95 6.05 11.3 5.85 11.55 5.75 11.95 6.7 12.25 7.8 12.85 7.2 13.05 6.5 13.15 6.8 13.3 7.3 13.8 6.6 13.8 6.5 13.9 8.1 14.3 7.55 14.7 6.9 14.8 7.0 15.0 7.2 15.2 7.1 Q15.3 7.0 15.45 7.0 L15.65 7.0 15.95 7.0 16.3 6.7 16.6 6.5 16.9 6.75 17.15 7.1 17.45 7.05 17.75 7.0 18.2 7.1 18.6 7.2 19.3 6.8 Q19.7 6.4 20.1 6.4 20.55 6.4 20.7 7.0 L21.1 7.9 22.2 7.1 Q22.6 6.7 23.05 6.7 L23.45 6.7 23.55 7.1 Q24.2 7.1 24.4 6.55 L24.7 5.65 25.2 5.65 25.2 6.6 25.6 6.15 25.9 5.75 26.0 5.65 26.2 6.3 26.65 5.85 27.0 5.35 27.1 5.35 27.2 5.85 27.6 5.55 M21.75 10.7 L22.05 10.55 21.9 10.95 21.9 11.35 22.0 11.0 22.15 10.55 22.15 10.45 22.0 10.4 21.8 10.35 21.75 10.65 21.75 10.7 21.7 10.95 21.6 10.85 21.55 10.95 21.5 11.15 21.4 11.15 21.25 10.65 21.15 10.4 21.1 10.35 21.1 11.15 20.6 10.25 20.55 10.25 20.45 10.25 20.5 10.35 20.7 10.55 20.9 11.05 20.6 10.55 20.5 10.35 20.4 10.25 20.3 10.3 20.2 10.35 20.15 10.75 20.1 11.05 19.9 11.05 19.6 10.75 19.35 10.6 19.2 10.45 19.2 10.55 19.15 10.45 19.1 10.45 19.1 10.35 19.2 10.45 19.2 10.25 19.6 10.75 19.85 10.35 20.1 10.15 20.4 10.25 20.45 10.25 20.4 10.05 20.6 10.25 Q20.8 10.25 20.9 10.4 L21.0 10.65 21.05 10.45 21.1 10.3 21.15 10.4 21.4 10.65 21.6 10.85 21.75 10.7 M21.1 10.3 L21.1 10.35 M24.2 11.35 L24.05 11.55 23.7 11.1 23.4 10.65 23.35 10.75 23.25 10.75 23.25 10.25 23.4 10.4 23.45 10.4 23.45 10.25 23.55 9.75 23.75 10.2 23.75 10.45 23.65 10.45 23.45 10.4 23.4 10.65 M27.75 8.6 L28.0 8.3 27.95 8.3 28.05 8.1 27.95 7.9 28.1 7.75 28.25 7.7 28.35 7.6 28.35 7.7 28.25 7.7 28.1 8.0 28.05 8.1 28.05 8.15 28.15 8.0 28.15 8.1 28.05 8.2 28.0 8.9 M28.0 8.3 L28.05 8.2 28.05 8.15 28.0 8.3 M21.4 14.1 L21.05 14.8 21.0 14.9 21.05 15.05 21.1 15.25 21.3 15.0 21.4 15.15 21.5 15.25 21.6 15.95 21.8 15.3 21.8 15.15 21.9 14.55 22.2 14.1 22.15 13.7 21.7 14.3 Q21.55 14.6 21.65 15.0 L21.5 15.0 21.5 14.6 21.4 14.1 M20.65 15.4 L20.6 16.0 20.65 16.25 20.8 15.7 20.7 15.85 20.8 15.25 20.7 15.15 20.65 15.4 M20.7 15.15 L20.5 15.15 20.4 15.9 20.3 16.65 20.3 16.85 20.6 16.35 20.65 16.25 20.8 16.55 21.6 16.0 21.6 15.95 21.65 16.05 21.8 15.5 21.8 15.35 21.8 15.3 21.9 15.15 21.8 15.35 M20.8 15.25 L20.9 14.9 21.0 14.9 20.9 14.7 20.7 14.4 20.3 15.0 20.0 15.85 20.0 15.95 20.35 15.3 20.7 14.8 20.7 14.75 20.8 14.7 20.7 15.15 M21.0 14.95 L20.85 15.65 20.95 15.45 21.0 15.0 21.0 14.95 21.0 14.9 M21.1 15.25 L20.95 15.45 20.95 15.55 21.1 15.35 21.1 15.25 M21.8 15.5 L21.8 15.85 22.2 15.5 22.25 15.0 22.2 14.4 22.2 14.1 M20.85 15.65 L20.8 15.95 20.95 15.6 20.95 15.55 M20.8 15.25 L20.8 15.55 20.8 15.7 20.85 15.65 M20.8 15.7 L20.8 15.95 20.8 16.25 20.95 15.6 M11.85 9.95 L12.15 10.0 M13.1 11.95 L13.6 12.7 13.7 12.45 13.7 12.15 13.7 11.95 13.7 11.8 13.7 11.75 13.9 11.95 14.05 11.5 13.95 11.2 14.0 11.2 14.0 11.1 14.2 10.65 14.2 10.75 14.05 11.05 14.0 11.2 M13.7 11.95 L14.0 12.15 14.2 11.25 14.2 11.05 14.05 11.45 14.05 11.5 M15.5 10.7 L15.1 10.25 15.2 10.25 15.5 10.7 M15.7 11.95 L15.65 11.55 M18.65 11.3 L18.7 10.85 18.8 10.75 18.65 11.3 18.65 11.35 18.6 11.75 18.35 12.35 18.35 12.4 18.05 12.7 Q17.8 12.55 17.65 12.05 L17.65 12.15 17.55 11.85 17.55 11.75 17.55 11.55 17.65 11.75 17.65 11.45 17.75 11.75 17.85 11.55 18.35 11.95 18.35 11.45 18.3 11.3 18.3 11.25 18.25 11.05 18.25 10.95 18.35 11.25 18.35 11.35 18.35 11.45 18.5 11.95 18.5 11.85 18.65 11.35 M18.35 12.4 L18.05 12.4 17.8 11.75 17.75 11.75 17.7 11.9 17.65 12.05 17.55 11.85 M17.65 11.75 L17.7 11.9 M18.35 11.35 L18.3 11.25 M18.35 11.95 L18.35 12.35 M4.4 12.0 L4.15 12.2 4.2 12.25 4.25 12.3 4.25 12.4 4.25 12.8 4.2 12.85 4.15 13.0 4.1 12.95 4.1 13.05 Q4.0 13.7 3.55 13.7 L3.25 13.5 2.9 13.2 2.4 12.45 2.3 12.2 2.2 11.95 2.25 12.05 2.3 12.2 M4.1 12.95 L3.75 12.6 3.7 12.75 3.5 13.5 3.5 13.0 3.4 13.0 3.4 12.9 3.35 12.8 3.35 12.85 3.4 13.1 3.3 13.0 3.3 12.9 3.2 12.9 2.75 12.65 2.4 11.75 2.5 11.75 3.0 12.35 3.2 12.6 3.1 12.35 2.9 11.65 3.1 11.55 2.95 11.3 M2.9 11.65 L3.0 11.65 3.55 12.35 3.7 12.55 3.75 12.5 3.9 12.15 4.0 12.2 4.15 12.2 4.0 12.3 4.25 12.3 M4.85 11.6 L4.9 11.65 5.0 11.75 4.9 11.55 4.85 11.6 M4.0 12.2 L4.0 12.3 4.1 12.95 M5.0 11.75 L5.05 11.75 5.15 11.65 4.9 11.55 5.1 11.5 5.15 11.45 5.35 11.35 5.4 11.3 5.35 11.1 5.35 10.65 5.25 10.3 5.25 10.25 5.3 10.25 5.35 10.15 5.65 10.4 5.65 10.25 5.95 10.45 6.55 10.95 6.55 10.85 6.65 11.05 6.7 11.1 7.15 11.5 7.2 11.35 6.9 11.0 6.85 10.65 7.35 11.25 7.55 11.35 7.7 11.45 7.6 10.85 7.4 10.8 6.75 10.35 6.85 10.35 7.7 10.35 8.0 10.4 8.25 10.55 8.45 10.7 8.5 10.75 8.3 10.8 8.25 10.8 8.25 10.85 8.65 10.95 8.65 11.0 8.65 11.35 8.6 11.45 8.2 11.85 8.2 11.75 8.3 11.55 8.0 11.75 7.8 11.95 7.8 12.05 7.7 11.9 7.65 11.9 7.35 11.95 6.85 11.65 6.35 11.4 6.3 11.4 6.3 11.45 6.25 11.4 6.15 11.45 5.7 11.6 5.7 11.65 5.3 11.95 5.15 12.15 5.2 12.0 5.2 11.95 5.0 11.75 M8.0 10.4 L7.1 10.45 7.45 10.75 7.6 10.85 7.6 10.55 7.9 10.85 7.95 10.85 8.05 10.85 8.25 10.8 M5.4 10.4 L5.45 10.45 5.5 10.45 5.4 10.35 5.4 10.4 5.35 10.35 5.4 10.5 5.45 10.5 5.4 10.4 M5.35 10.15 L5.35 10.25 5.35 10.3 5.4 10.35 M5.3 10.25 L5.35 10.25 M5.3 10.25 L5.3 10.3 5.35 10.35 M5.35 10.65 L5.35 11.05 5.4 11.1 5.45 11.15 5.7 10.8 5.75 10.7 5.7 10.65 5.5 10.5 5.55 10.65 5.45 10.5 5.45 10.65 5.4 10.5 5.25 10.3 M5.5 10.45 L5.5 10.5 M5.75 10.75 L5.8 10.95 5.85 10.6 5.85 10.65 5.75 10.75 5.75 10.7 5.75 10.65 5.7 10.65 5.65 10.4 5.8 10.55 5.85 10.45 5.95 10.45 5.9 10.55 5.95 10.55 5.95 11.05 5.85 11.05 5.8 10.95 5.6 11.25 5.4 11.35 5.6 11.4 5.75 11.15 5.75 11.4 5.95 11.2 6.15 10.85 6.15 11.35 6.2 11.35 6.3 11.4 6.55 10.95 6.65 11.05 6.7 11.25 6.35 11.4 M5.9 10.55 L5.85 10.6 5.85 10.55 5.9 10.55 M5.8 10.55 L5.85 10.65 5.75 10.65 5.8 10.55 M6.15 11.45 L5.9 11.4 5.75 11.5 5.7 11.6 5.5 11.65 5.45 11.7 5.45 11.75 5.4 11.75 5.3 11.95 5.25 11.95 5.2 11.95 5.25 11.85 5.2 11.75 5.05 11.75 M5.75 11.4 L5.55 11.55 5.45 11.65 5.5 11.65 5.6 11.55 5.75 11.5 5.75 11.4 5.9 11.4 6.15 11.35 6.25 11.4 6.3 11.4 M5.15 11.65 L5.15 11.6 5.15 11.45 M5.15 11.6 L5.2 11.65 5.3 11.65 5.35 11.65 5.35 11.35 5.15 11.6 M5.75 10.75 L5.5 11.15 5.4 11.3 5.4 11.35 5.45 11.55 5.55 11.55 5.6 11.4 5.75 11.4 M5.35 11.35 L5.4 11.35 M5.45 11.65 L5.35 11.65 5.45 11.7 5.45 11.65 M5.2 11.65 L5.2 11.75 5.25 11.75 5.4 11.75 5.45 11.7 M5.2 11.65 L5.15 11.65 M5.25 11.75 L5.25 11.85 5.25 11.95 5.4 11.75 M7.2 11.35 L7.1 11.15 7.35 11.25 7.7 11.85 7.75 11.85 7.7 11.45 7.95 11.55 8.05 11.55 8.1 11.4 8.2 11.15 8.15 11.1 8.15 11.05 8.1 11.05 7.9 10.85 7.65 10.85 7.6 10.85 M8.3 10.8 L8.3 10.75 8.4 10.75 8.45 10.7 M8.5 10.75 L8.4 10.75 M8.35 11.4 L8.3 11.55 8.4 11.5 8.35 11.4 8.35 11.35 8.25 11.4 8.3 11.55 8.4 11.55 8.4 11.5 8.65 11.35 M8.25 10.85 L8.2 11.1 8.35 11.35 8.45 11.2 8.65 10.95 M8.65 11.0 L8.5 11.2 8.35 11.4 M8.2 11.15 L8.2 11.1 8.15 11.1 M8.15 11.05 L8.05 10.85 8.2 10.85 8.25 10.85 M7.7 11.85 L7.7 11.9 7.8 11.95 7.75 11.85 8.0 11.75 8.05 11.55 8.25 11.4 8.2 11.15 M7.7 11.85 L7.65 11.9 7.15 11.5 M7.7 13.3 L7.6 13.4 7.75 13.4 7.7 13.3 M8.4 13.75 L8.3 14.15 8.0 14.6 8.0 14.65 8.05 14.7 8.2 15.15 8.35 15.05 8.5 14.45 8.5 14.6 8.5 14.8 8.6 14.6 8.6 14.15 8.55 14.05 8.45 13.7 8.4 13.75 8.15 13.9 8.1 13.95 7.8 14.25 7.7 14.3 8.0 14.65 8.0 15.25 8.2 15.15 8.2 15.25 8.25 15.25 8.35 15.05 8.45 14.9 8.5 14.6 M8.45 13.7 L8.45 13.6 8.3 13.6 8.15 13.9 M8.45 13.7 L8.5 13.7 8.55 13.8 8.5 13.6 8.45 13.6 8.4 13.5 8.3 13.6 8.2 13.6 7.8 14.0 7.8 14.25 M8.55 13.8 L8.6 14.15 8.65 14.45 8.7 14.3 8.65 14.05 8.6 13.8 8.55 13.8 M8.4 13.5 L7.75 13.4 7.8 14.0 7.5 13.5 7.3 13.7 7.2 14.0 7.2 13.9 7.3 13.7 7.35 13.6 7.35 13.45 7.2 13.6 6.95 13.7 6.85 13.55 6.75 13.5 6.8 13.7 6.75 13.9 6.85 14.0 Q7.1 14.0 7.35 14.15 L7.55 14.3 7.6 14.2 7.7 14.3 7.6 14.3 7.55 14.3 7.5 14.4 7.55 14.85 7.55 15.0 7.6 15.0 7.6 15.05 7.95 15.25 8.0 15.25 8.0 15.45 8.1 15.55 8.25 15.25 8.3 15.3 8.4 15.35 8.45 14.95 8.45 14.9 8.5 14.85 8.5 14.8 M8.4 13.5 L8.7 14.2 8.7 14.3 8.7 14.4 8.7 14.55 8.7 14.6 8.65 14.75 8.6 15.15 8.5 15.15 8.5 14.85 M8.7 14.55 L8.65 14.45 8.6 14.6 8.7 14.6 M7.6 15.05 L7.6 15.15 7.55 15.0 7.3 14.7 6.75 13.9 7.55 15.0 M7.5 13.5 L7.6 13.4 7.5 13.4 7.45 13.4 7.5 13.5 M7.45 13.4 L7.4 13.15 7.35 13.45 7.45 13.4 M6.45 18.05 L6.7 18.6 6.95 17.85 6.95 17.55 6.85 17.45 6.85 17.95 6.45 17.45 6.3 17.45 6.3 17.75 6.45 18.05 M3.75 12.6 L3.7 12.55 3.45 12.85 3.5 13.0 3.55 12.8 3.7 12.75 M3.35 12.85 L3.2 12.6 3.3 12.9 3.35 12.85 M3.45 12.85 L3.4 12.7 3.4 12.9 3.45 12.85 M16.0 17.75 L16.0 17.55 16.0 17.45 15.85 17.25 15.85 17.75 16.0 17.75 16.05 17.65 16.05 17.6 16.0 17.55 M15.45 18.25 L15.5 18.75 15.55 19.2 15.85 18.8 15.85 17.75 15.6 17.75 Q15.45 17.75 15.45 17.9 L15.45 18.25 M16.0 17.75 L15.95 18.4 15.85 18.8 15.85 18.9 15.95 18.9 16.1 18.1 16.1 17.9 16.05 17.65 M16.1 18.1 L16.1 18.5 16.25 18.5 16.25 17.85 16.1 17.85 16.1 17.9 M13.4 14.5 L13.5 14.55 13.55 14.6 13.4 14.2 13.4 14.5 13.4 14.8 13.2 14.9 13.1 14.9 13.0 15.0 13.0 14.8 13.0 14.2 12.95 14.2 12.9 14.2 12.75 13.7 13.4 14.2 13.0 14.2 13.0 14.15 12.95 14.2 M13.1 14.85 L13.0 14.8 13.1 14.9 13.1 14.85 13.4 14.5 M11.85 19.65 L11.75 20.0 11.75 20.05 11.75 20.1 11.7 20.55 11.55 20.8 Q11.1 20.8 11.0 20.45 L10.95 19.75 11.0 19.25 11.05 18.7 11.15 18.8 11.15 18.7 11.2 18.85 11.2 18.9 11.35 19.1 11.55 19.35 11.6 19.45 11.75 19.9 11.8 19.55 11.85 19.35 11.85 19.65 M11.35 19.1 L11.45 19.35 11.55 19.6 11.6 19.45 M11.75 20.0 L11.75 19.9 11.55 19.6 11.45 20.0 11.45 20.65 11.75 20.05 M11.2 18.85 L11.15 18.8 11.25 19.1 11.35 19.1 M3.75 12.6 L4.0 12.2 M22.25 29.8 L22.3 30.35 M23.25 30.1 L23.25 30.0 23.05 29.75 23.05 29.8 23.25 30.1 23.45 29.75 23.35 30.25 23.25 30.5 23.05 29.8 Q22.9 30.15 22.9 30.45 M23.25 30.1 L23.25 30.5" fill="none" stroke="#000000" stroke-linecap="round" stroke-linejoin="round" stroke-opacity="0.9882353" stroke-width="0.05"/>
  </g>
</svg>
