<?xml version="1.0" encoding="UTF-8" standalone="no"?>
<svg xmlns:xlink="http://www.w3.org/1999/xlink" height="21.8px" width="42.55px" xmlns="http://www.w3.org/2000/svg">
  <g transform="matrix(1.0, 0.0, 0.0, 1.0, 7.35, -7.25)">
    <path d="M26.35 7.45 L26.65 7.5 27.0 7.6 27.05 7.25 M29.35 13.9 L29.4 13.7 29.4 13.95 29.55 14.15 29.6 14.15 29.6 14.1 29.6 13.9 29.65 14.05 29.7 13.95 29.9 14.4 30.2 14.35 30.45 14.15 30.35 13.8 30.5 14.05 30.55 13.8 30.55 14.25 30.55 14.35 30.55 14.55 30.55 14.7 30.55 14.85 30.4 14.8 30.35 15.0 29.6 14.4 29.6 14.7 29.45 14.7 29.4 14.8 29.4 14.7 29.3 14.7 29.25 14.85 29.25 14.7 29.1 14.7 29.1 14.65 29.0 14.55 28.95 14.55 28.95 14.1 28.95 13.95 29.1 14.1 29.1 14.15 29.1 14.25 29.25 14.25 29.25 13.8 29.35 13.9 29.4 13.95 29.4 14.25 29.55 14.15 M29.1 14.25 L29.0 14.25 29.1 14.15 29.0 14.05 28.95 13.95 M28.95 14.1 L29.0 14.4 29.1 14.65 M30.4 14.8 L30.05 14.55 29.95 14.45 29.85 14.4 29.7 14.4 29.7 14.3 29.7 14.25 29.6 14.15 29.6 14.4 29.5 14.5 29.45 14.7 29.4 14.7 29.4 14.55 29.3 14.7 29.25 14.7 29.25 14.25 29.1 14.7 M29.7 14.3 L29.85 14.4 29.9 14.4 29.95 14.45 30.4 14.7 30.5 14.35 30.45 14.25 30.45 14.15 30.5 14.05 30.5 14.3 30.55 14.25 M29.6 14.1 L29.65 14.05 29.65 14.1 29.7 14.25 M29.35 13.9 L29.25 14.25 29.4 14.25 29.4 14.55 29.5 14.5 29.5 14.45 29.6 14.15 M22.0 16.4 Q21.85 17.0 21.85 17.65 L22.15 17.35 22.15 16.4 22.0 16.4 M20.85 16.85 L20.9 17.05 20.95 17.0 20.85 16.85 M20.95 17.0 L21.3 17.55 21.5 17.8 21.6 17.9 21.5 17.5 21.35 16.85 21.05 16.85 20.95 17.0 M20.9 17.05 L20.85 17.05 20.85 18.1 21.15 18.05 21.05 17.95 21.2 18.05 21.5 17.95 21.35 17.7 21.3 17.55 20.9 17.05 M21.85 17.65 L22.15 17.65 22.3 17.65 22.3 18.3 22.45 18.45 22.3 18.45 22.3 18.6 22.1 18.45 21.9 18.45 21.95 18.55 22.0 18.6 22.0 18.75 21.95 18.55 21.85 18.45 21.7 18.45 21.35 18.2 21.15 18.05 21.2 18.05 M21.7 17.65 L21.7 17.85 21.75 17.8 21.85 17.65 21.7 17.65 M21.95 18.05 L21.9 18.1 21.9 18.25 22.1 18.45 22.3 18.45 22.3 18.3 22.1 18.15 21.95 18.05 21.9 18.0 21.9 18.1 21.8 18.1 21.9 18.25 21.9 18.45 21.85 18.45 21.5 17.95 21.6 17.9 21.7 17.85 21.7 17.95 21.9 18.0 21.85 17.65 M21.6 17.9 L21.7 18.1 21.8 18.1 21.6 17.9 M21.95 18.05 L22.15 17.65 M27.9 20.65 L27.9 20.55 27.8 20.15 27.75 20.1 27.9 20.65 28.05 20.65 27.9 20.2 27.9 20.55 M27.8 20.15 L27.9 20.2 M30.55 14.35 L30.5 14.3 30.5 14.35 30.55 14.55 M30.55 14.7 L30.4 14.7 30.4 14.8 M32.15 23.55 L31.6 22.8 32.1 22.1 32.1 21.8 32.05 21.35 M32.1 21.8 Q32.25 22.55 32.9 23.0 L33.7 23.35 33.8 22.65 33.75 22.3 33.4 22.25 Q32.85 22.05 32.65 21.65 L33.1 21.6 32.75 21.4 33.4 21.4 Q34.05 21.45 34.2 22.35 L33.75 22.3 33.45 21.8 33.3 21.7 33.1 21.6 M34.5 22.65 L34.3 22.8 34.2 23.15 34.2 23.35 34.7 23.3 Q35.1 23.2 35.2 22.65 L34.5 22.65 M33.7 23.35 L34.05 23.35 34.2 23.35 M0.6 13.0 L0.6 12.95 0.55 12.7 0.7 12.7 0.6 13.0 0.05 13.35 -0.05 13.95 -0.1 14.4 -0.85 14.15 -0.95 14.1 -1.2 14.6 -1.7 15.15 -2.0 14.7 -2.05 14.85 -2.05 15.5 -2.55 14.7 -2.6 14.55 -2.7 14.4 -2.7 14.6 -2.8 14.95 M2.15 20.75 L2.45 20.9 2.75 21.5 2.7 21.75 2.6 21.8 Q2.15 21.7 1.85 21.2 L1.7 20.9 1.65 20.9 1.35 20.9 1.35 20.8 1.45 20.65 1.65 20.65 1.75 20.65 2.05 20.65 2.15 20.75 1.65 20.8 1.7 20.9 2.2 20.9 2.2 20.8 2.15 20.75 M1.65 20.9 L1.65 20.8 1.65 20.65 M13.75 14.1 L13.75 13.35 14.25 13.7 14.75 13.95 14.9 13.95 14.85 13.85 14.8 13.75 14.4 13.5 14.9 13.5 14.85 13.85 M8.35 25.5 L8.1 25.5 8.2 25.65 7.75 25.6 7.75 25.65 8.2 25.7 8.5 25.8 8.35 25.85 8.35 25.9 7.9 26.1 7.7 26.15 7.45 25.8 7.4 25.55 7.2 25.45 7.2 25.9 7.25 26.1 7.2 26.05 7.2 25.9 7.15 25.8 7.05 25.35 7.2 25.45 7.2 25.35 7.35 25.35 7.4 25.55 7.5 25.55 7.75 25.6 7.7 25.5 7.6 25.5 7.5 25.5 7.2 25.05 7.2 24.8 Q7.3 24.8 7.7 25.1 L7.8 25.2 8.2 25.2 8.25 25.35 8.35 25.5 M7.7 25.5 L8.1 25.5 7.8 25.2 7.6 25.2 7.6 25.5 M27.4 28.55 L27.45 28.35 27.35 28.35 27.35 28.55 27.4 28.55 27.55 28.4 27.6 28.35 27.45 28.35 M29.2 28.45 L29.6 28.9 29.65 28.95 29.6 28.95 29.6 28.9 29.35 28.85 29.1 29.0 28.7 29.05 28.2 28.7 27.65 28.4 27.6 28.35 M27.4 28.55 L27.35 28.8 27.35 28.55 26.7 28.95 26.25 28.7 26.0 28.35 26.05 28.35 26.15 28.45 26.75 28.8 27.0 28.35 M26.25 28.7 L26.15 28.45 M28.35 28.4 L28.6 28.5 29.35 28.85 M-2.7 14.4 L-3.0 13.8 -2.45 13.65 -1.9 13.5 -1.7 13.65 -1.7 13.95 -1.95 14.05 -2.35 14.15 -2.25 14.35 -2.2 14.35 -2.05 14.55 -2.05 14.65 -2.0 14.7 -1.5 14.0 -1.2 13.95 -0.9 13.8 -0.95 14.1 -1.2 13.95 M-2.35 14.15 L-2.35 14.25 -2.25 14.35 -2.05 14.65 -2.05 14.85 -2.55 14.55 -2.6 14.55 -2.7 14.1 -2.7 14.4 M-5.2 22.65 L-5.9 22.95 -6.2 22.85 -6.35 22.65 -6.35 21.8 -6.35 21.5 -5.9 21.6 -5.65 21.5 -5.0 21.5 -4.8 21.5 -4.7 21.6 -4.65 21.85 Q-4.65 22.3 -5.2 22.65 L-5.2 22.95 Q-5.3 23.35 -5.7 23.35 -6.25 23.35 -6.8 22.95 -7.35 22.45 -7.35 21.95 L-7.05 21.35 Q-6.8 21.15 -6.35 21.05 L-6.0 20.85 -6.25 20.55 -6.5 20.5 -6.5 20.2 -6.35 20.15 -6.35 20.05 -6.2 19.5 Q-6.0 19.05 -5.5 19.05 -5.2 19.05 -4.9 19.35 L-4.65 19.8 M-6.35 20.15 L-6.35 20.2 -6.25 20.55 -5.85 20.65 -5.8 20.65 -5.8 20.6 Q-5.5 20.25 -5.2 20.35 L-5.2 20.5 -5.45 20.55 -5.8 20.65 -6.0 20.85 -5.5 20.9 -5.15 20.85 -4.95 20.65 -4.95 20.2 -5.35 20.05 -6.35 20.05 M-5.0 21.5 L-5.2 22.05 -5.3 22.0 -5.2 22.5 -5.2 22.65 M-5.3 22.0 L-5.5 21.8 -5.55 21.8 -5.3 22.0 M-5.55 21.8 L-5.9 21.6 -6.35 21.8 -5.55 21.8" fill="none" stroke="#000000" stroke-linecap="round" stroke-linejoin="round" stroke-opacity="0.9882353" stroke-width="0.05"/>
  </g>
</svg>
