<?xml version="1.0" encoding="UTF-8" standalone="no"?>
<svg xmlns:xlink="http://www.w3.org/1999/xlink" height="24.8px" width="34.6px" xmlns="http://www.w3.org/2000/svg">
  <g transform="matrix(1.0, 0.0, 0.0, 1.0, 1.45, -0.2)">
    <path d="M33.15 1.35 Q33.15 1.0 32.75 0.6 L32.25 1.05 32.05 2.0 31.9 2.25 32.6 2.25 32.95 1.75 33.15 1.35 M32.25 1.05 L32.15 1.05 Q31.5 1.25 31.1 1.6 L31.3 1.6 31.85 1.25 31.85 1.35 31.8 1.95 31.7 2.25 31.9 2.25 31.75 2.6 31.6 2.7 31.7 2.25 31.6 2.25 31.8 1.95 M22.75 2.3 L23.1 2.5 23.5 2.6 24.5 2.7 25.35 2.25 26.1 1.5 26.25 1.6 26.3 1.5 26.4 1.5 26.3 1.65 26.45 1.8 26.8 2.2 27.2 1.8 27.35 2.0 27.5 2.3 Q27.8 2.25 28.3 1.7 L28.85 1.1 28.95 1.9 28.95 2.55 29.35 1.8 29.4 1.8 29.45 1.9 29.75 1.7 30.05 1.4 30.5 1.8 30.7 2.25 30.7 2.5 30.8 2.8 30.45 3.0 29.85 3.15 29.35 2.9 28.85 2.7 28.3 3.25 26.95 3.5 26.7 3.55 26.5 3.0 26.6 2.6 Q26.7 2.4 26.9 2.4 L27.6 2.55 28.3 2.7 28.8 2.7 28.85 2.65 28.95 2.55 28.95 2.6 28.85 2.65 28.85 2.7 28.8 2.7 28.45 2.7 28.3 2.7 M30.7 2.5 L30.65 2.6 30.35 3.0 30.45 3.0 M-0.85 1.25 L-0.75 1.2 -0.8 1.4 -0.85 1.25 -0.85 1.1 -0.85 1.0 -1.1 1.05 -1.1 1.1 -1.1 1.2 -1.15 1.1 -1.25 1.15 -1.45 0.4 -1.35 0.4 -1.2 1.0 -1.15 1.1 -1.1 1.1 -1.15 0.2 Q-0.4 0.2 0.35 1.45 L0.7 2.0 0.75 1.75 0.75 2.1 0.95 2.35 1.0 2.4 1.15 2.4 1.15 2.3 1.1 2.1 1.1 2.0 1.1 1.8 1.6 1.8 1.75 2.0 1.8 1.95 1.8 1.9 2.1 1.3 2.3 1.45 2.6 1.65 2.8 2.35 2.75 2.7 2.7 2.95 3.35 2.9 3.3 3.05 3.6 3.55 4.0 3.6 4.7 3.4 4.9 3.2 4.45 3.0 3.9 2.8 Q3.55 2.5 3.5 2.0 3.9 2.75 4.45 3.0 L4.55 3.0 5.0 2.85 5.05 2.85 Q5.3 2.7 5.45 2.7 L5.65 2.8 5.75 2.6 6.05 2.8 6.35 3.0 6.7 2.8 6.85 2.5 7.3 2.75 7.4 3.0 7.55 3.0 7.8 2.9 7.9 3.3 8.0 3.75 8.1 3.75 8.25 3.3 8.3 2.8 8.7 3.2 8.9 3.6 Q9.5 3.45 9.7 2.7 L9.9 3.0 10.15 3.35 10.55 2.9 10.75 2.5 Q11.05 2.75 10.95 3.15 L11.0 3.15 11.05 3.2 11.55 2.7 11.85 2.2 11.95 2.65 12.15 3.15 12.45 2.65 12.75 2.3 12.65 3.35 12.65 3.5 13.2 3.05 Q13.5 2.85 13.8 2.8 L13.9 3.2 14.0 3.5 14.15 3.6 14.3 3.6 14.35 3.8 14.4 4.05 14.55 3.85 14.55 3.55 14.5 2.65 14.5 2.35 14.6 2.1 14.7 2.2 15.15 2.95 15.25 3.25 15.65 3.5 15.85 2.0 15.85 2.1 15.95 2.9 15.9 3.95 15.4 4.5 15.4 4.6 14.95 5.15 15.35 5.55 Q15.9 5.55 16.25 4.65 L16.45 3.7 16.25 3.95 16.25 3.85 16.45 3.65 16.35 3.2 16.25 2.6 16.35 2.55 16.6 2.5 16.8 2.65 16.95 2.8 16.6 3.45 16.45 3.65 16.45 3.7 16.7 3.5 17.05 3.2 17.05 4.35 17.05 4.45 Q17.1 4.4 18.1 3.7 L18.8 3.2 18.7 3.2 17.85 3.2 17.45 2.7 19.75 2.6 22.15 2.2 21.4 2.85 22.15 3.15 22.8 3.5 23.75 3.2 Q24.15 2.9 24.5 2.9 L25.0 3.45 25.7 2.55 26.1 1.85 25.35 2.4 24.05 2.8 23.35 2.65 23.1 2.5 M26.25 1.6 L26.1 1.85 26.3 1.65 26.25 1.6 M29.55 6.5 L29.6 6.2 29.65 6.15 29.55 5.85 29.45 5.85 29.45 6.0 29.4 6.1 29.35 6.3 29.35 6.0 29.45 6.0 M18.8 3.2 L19.5 2.8 19.65 3.1 20.1 3.0 21.25 2.8 21.4 2.85 20.95 3.0 19.7 3.35 19.65 3.1 18.8 3.2 M24.8 7.7 L24.7 7.9 24.7 7.85 24.6 7.95 24.5 8.4 24.5 8.3 24.6 7.95 24.7 7.5 24.7 7.85 24.8 7.7 25.0 7.4 25.4 8.1 25.5 8.1 25.55 7.7 25.6 7.2 25.7 7.3 Q25.7 6.9 25.0 6.75 L24.15 6.6 24.1 6.75 24.05 7.05 24.35 7.8 24.35 7.9 24.3 7.9 24.35 8.3 Q23.75 8.05 23.65 7.4 L23.75 7.4 24.0 7.7 24.3 7.9 24.1 7.5 23.95 7.1 23.65 7.1 23.65 6.6 23.75 6.6 23.95 7.1 M26.6 21.0 L26.8 20.4 27.15 19.6 M27.25 20.35 L26.7 21.3 M23.75 20.95 L24.2 20.95 24.6 21.05 24.15 21.85 24.35 22.0 M21.5 21.6 L21.35 21.8 M15.45 3.9 L15.25 3.25 15.1 3.05 14.7 2.3 14.6 2.3 14.55 3.55 14.6 3.8 14.7 3.6 14.9 3.15 15.0 3.15 15.1 4.55 15.4 4.5 15.45 3.9 M14.55 3.85 L14.5 4.3 14.6 4.9 14.8 5.15 14.95 5.15 14.8 4.75 14.6 3.8 14.55 3.85 M10.15 6.95 L10.2 7.0 10.25 7.0 10.15 6.8 10.15 6.95 M19.7 6.8 L19.8 7.3 M15.7 8.3 L15.85 8.6 15.85 8.65 15.95 8.7 16.0 8.7 16.0 9.2 15.95 9.2 15.85 8.65 15.65 8.4 15.7 8.3 M5.55 3.0 L5.35 3.35 5.0 3.2 4.95 3.85 5.45 3.35 5.75 2.95 5.65 2.8 5.55 3.0 M5.75 2.95 L6.05 3.5 5.85 3.0 5.75 2.95 M5.5 4.65 L5.35 4.85 5.15 5.0 5.15 5.05 5.1 5.05 4.95 5.15 4.2 5.55 3.55 5.3 3.25 4.7 2.95 4.45 Q2.5 4.0 1.9 3.75 L2.35 3.75 3.75 4.0 Q4.95 4.3 5.1 4.85 L5.4 4.7 5.55 4.45 5.65 4.45 5.5 4.65 5.65 4.55 5.85 4.3 6.3 4.25 6.7 3.75 7.1 4.15 6.3 4.25 M5.4 4.7 L5.5 4.65 M5.1 4.85 L4.9 5.0 5.05 5.05 5.15 5.0 5.1 4.85 M5.05 5.05 L5.1 5.05 5.15 5.0 5.4 4.7 M2.65 3.0 L2.7 3.0 2.7 2.95 2.65 3.0 2.5 3.2 2.45 3.15 2.4 3.15 2.3 2.95 2.3 3.45 2.0 2.95 1.95 2.9 1.8 3.2 1.5 3.45 Q1.2 3.45 1.1 3.2 L0.95 2.4 0.75 2.6 0.55 2.2 0.4 2.3 0.25 2.3 0.25 2.55 M1.15 2.4 L1.2 2.5 1.2 2.55 1.35 2.6 1.5 2.7 1.65 2.3 1.1 2.0 1.15 2.2 1.15 2.3 M0.7 2.0 L0.75 2.1 0.75 2.6 M0.25 2.25 L0.35 1.95 0.35 1.9 0.25 1.9 0.25 2.25 0.25 2.3 M0.55 2.2 L0.35 1.95 M1.05 2.45 L1.0 2.4 0.95 2.4 1.05 2.45 1.2 2.55 M0.55 2.2 L0.7 2.0 M1.9 2.75 L1.8 2.7 1.8 2.6 1.9 2.75 1.9 2.8 1.95 2.8 2.0 2.6 2.05 2.65 2.1 2.4 2.05 2.15 2.0 2.0 1.9 1.95 1.8 1.9 M1.75 2.0 L1.8 2.05 1.8 1.95 M1.8 2.05 L1.9 2.5 2.0 2.5 1.85 2.1 1.8 2.05 M1.65 2.3 L1.75 2.0 M1.9 2.8 L1.8 2.8 1.75 2.5 1.7 2.3 1.6 2.7 1.5 2.7 1.5 2.8 1.05 2.45 M2.3 2.95 L2.2 2.8 2.05 2.65 2.0 2.8 1.95 2.8 1.95 2.9 M2.65 3.0 L2.5 3.0 2.4 2.9 2.3 2.5 2.3 2.95 M0.35 1.9 L0.0 1.45 Q-0.35 1.0 -0.85 1.0 L-0.85 0.65 M2.3 2.5 L2.3 1.45 M5.0 2.85 L4.9 3.2 5.0 3.2 5.05 2.85 M3.25 4.7 L3.3 4.7 Q3.7 5.15 4.15 5.15 L4.75 5.05 4.5 4.85 Q3.7 4.55 3.5 4.25 L3.6 4.25 4.25 4.7 4.5 4.85 4.9 5.0 4.75 5.05 4.85 5.05 5.05 5.05 M3.65 8.1 L3.75 8.1 3.75 7.8 4.1 8.0 4.55 8.1 4.55 8.9 4.5 8.95 4.45 8.95 4.65 9.3 4.25 9.65 Q3.75 10.0 3.75 10.05 L3.7 9.85 3.6 9.55 3.45 9.0 3.3 9.0 3.25 8.65 3.2 8.2 3.35 8.8 3.45 9.0 3.85 9.0 4.0 8.75 4.0 8.6 3.95 8.35 3.9 8.2 3.6 8.7 3.7 8.4 3.7 8.25 3.65 8.1 3.5 8.1 3.5 7.8 3.65 8.1 M3.9 8.2 L3.8 8.15 3.75 8.1 3.75 8.2 3.75 8.4 3.7 8.25 3.75 8.2 M4.0 8.75 L3.95 9.0 4.45 9.0 4.45 8.95 3.95 8.15 3.9 8.1 3.9 8.2 M3.85 9.0 L3.7 9.25 3.6 9.55 3.8 9.55 3.95 9.1 3.95 9.0 3.85 9.0 M3.75 8.1 L3.9 8.1 M7.4 10.35 L7.6 11.15 7.7 11.05 7.7 10.65 7.8 10.35 7.9 10.35 7.9 10.85 7.7 11.05 M9.8 15.25 L9.9 15.65 10.05 16.05 10.15 16.1 10.25 16.15 Q10.15 15.8 10.4 15.25 L10.15 14.4 10.25 14.5 10.45 14.75 Q10.45 14.35 10.75 14.1 11.0 13.95 11.35 13.9 L11.55 13.6 11.85 13.95 11.95 14.0 11.95 14.2 12.1 14.4 12.1 14.35 12.15 14.1 12.15 14.0 12.1 14.35 M2.3 15.75 L2.5 16.35 M18.05 16.95 L18.55 17.35 18.8 17.85 M13.05 14.1 Q12.65 14.1 12.45 14.8 L12.4 14.95 12.55 15.35 13.15 14.85 13.4 14.2 13.3 14.15 13.05 14.1 M10.45 14.75 L10.6 14.95 10.7 14.75 11.35 13.9 11.5 13.9 11.8 13.95 11.85 13.95 11.85 14.0 11.95 14.2 11.95 14.6 12.1 14.4 12.1 14.45 12.4 14.95 12.05 16.15 11.0 15.4 10.6 14.95 10.45 15.15 10.5 15.4 10.55 15.65 10.65 15.95 10.65 16.05 10.55 15.65 10.4 15.25 10.45 15.15 10.45 14.75 M12.1 14.4 L11.95 15.0 11.95 14.6 11.55 15.25 11.45 15.25 11.6 14.65 11.7 14.35 11.8 14.25 11.85 14.0 M11.6 14.65 L11.65 14.5 11.8 14.25 M11.85 22.45 L11.75 23.15 11.3 22.45 11.15 22.3 10.55 22.15 10.2 22.05 10.35 22.0 10.55 21.75 M15.1 22.95 L14.95 22.25 M12.25 22.45 L13.0 23.65 13.05 23.45 13.1 23.1 13.1 22.95 12.9 22.75 M13.1 22.95 L13.15 23.0 13.4 23.15 M17.6 21.9 L17.65 21.95 17.65 22.05 17.75 22.25 17.75 22.35 17.75 22.45 17.85 22.95 17.85 22.85 18.0 22.35 18.05 21.85 18.15 21.75 18.05 22.3 18.0 22.35 18.0 22.75 17.75 23.35 17.75 22.95 17.2 22.5 17.25 22.4 17.55 21.75 17.6 21.9 17.6 21.95 17.65 21.95 M17.65 22.05 L17.7 22.2 17.75 22.35 M17.7 22.2 L17.7 22.25 17.75 22.45 17.75 22.95 M16.95 21.55 L17.05 21.95 M12.7 25.0 L12.15 24.7 M-0.75 9.45 L-0.75 9.65 -0.85 9.65 -0.75 9.45 -0.65 9.1 -0.65 9.65 -0.45 9.95 -0.65 9.95 -0.65 9.65" fill="none" stroke="#000000" stroke-linecap="round" stroke-linejoin="round" stroke-opacity="0.9882353" stroke-width="0.05"/>
  </g>
</svg>
