<?xml version="1.0" encoding="UTF-8" standalone="no"?>
<svg xmlns:xlink="http://www.w3.org/1999/xlink" height="28.4px" width="34.1px" xmlns="http://www.w3.org/2000/svg">
  <g transform="matrix(1.0, 0.0, 0.0, 1.0, 3.2, 3.7)">
    <path d="M0.05 -2.25 L0.15 -1.7 0.15 -1.25 0.25 -1.45 0.55 -2.35 0.5 -2.0 0.45 -1.45 0.9 -1.8 1.2 -2.35 1.3 -2.35 1.0 -1.55 1.4 -1.75 1.9 -1.75 2.3 -2.35 2.2 -1.95 2.1 -1.55 2.5 -1.7 2.8 -1.95 2.9 -1.95 2.3 -1.45 1.9 -1.05 1.8 -1.05 1.85 -1.4 1.9 -1.75 1.65 -1.45 Q1.05 -0.75 0.65 -0.65 L1.0 -1.5 1.0 -1.55 0.9 -1.5 0.45 -1.45 M0.05 -1.35 L-0.05 -1.35 -0.05 -1.65 -0.15 -1.85 -0.45 -2.35 -0.6 -2.1 -0.75 -1.65 -0.95 -2.3 -1.05 -2.6 -1.05 -2.2 -0.75 -1.5 Q-0.45 -1.05 -0.1 -1.05 L0.15 -1.2 0.05 -1.4 0.05 -1.35 M0.05 -1.4 L0.0 -1.5 -0.05 -1.65 -0.1 -1.8 -0.25 -2.05 -0.25 -2.2 -0.1 -1.8 M0.15 -1.25 L0.15 -1.2 M4.55 -2.35 L4.6 -1.95 4.65 -1.45 4.95 -1.45 5.05 -2.05 5.05 -1.45 5.1 -1.45 5.15 -1.35 5.4 -1.55 5.55 -1.85 5.55 -2.0 5.35 -1.55 5.35 -2.25 5.45 -2.4 5.45 -2.45 5.55 -2.35 5.55 -2.0 5.75 -2.55 5.8 -2.1 6.05 -1.45 6.45 -2.0 6.75 -2.45 6.7 -2.2 6.7 -1.65 7.0 -1.95 7.2 -2.25 6.95 -1.75 Q6.65 -1.4 6.7 -1.25 L6.55 -1.05 7.15 -1.8 7.65 -2.45 7.7 -2.55 7.7 -2.45 7.65 -2.45 7.2 -0.85 7.2 -0.75 7.95 -1.55 8.35 -2.3 8.4 -2.45 8.4 -2.35 8.35 -2.3 8.15 -1.5 8.0 -1.05 8.6 -2.25 8.6 -1.85 8.35 -1.2 7.9 -0.55 8.0 -1.05 7.35 -0.4 Q7.6 -0.15 7.8 -0.15 L8.55 -0.75 9.2 -2.05 9.3 -2.2 9.1 -1.6 8.9 -0.95 8.9 -0.85 9.25 -1.55 9.6 -2.45 9.7 -2.55 9.6 -2.2 9.6 -1.55 9.9 -1.6 10.15 -1.75 M7.35 -0.4 L7.1 -0.35 6.85 -0.4 6.55 -0.05 6.15 -0.8 5.95 -1.3 5.85 -1.35 5.85 -1.45 5.95 -1.3 6.55 -0.6 6.85 -0.4 6.95 -0.6 7.1 -1.05 7.2 -0.75 7.3 -0.5 7.35 -0.4 M12.65 -1.55 L12.9 -2.25 13.0 -2.25 12.95 -1.9 13.1 -1.45 13.15 -1.45 15.05 -1.3 15.3 -1.25 15.3 -1.35 15.5 -1.55 15.35 -1.8 Q14.85 -2.35 13.75 -2.35 L12.75 -2.25 12.65 -2.05 12.65 -1.55 M11.1 -1.85 L10.7 -1.8 10.45 -1.65 10.55 -1.65 11.2 -1.85 11.1 -1.85 M13.1 -1.45 L12.35 -1.35 12.15 -1.3 12.45 -0.85 11.55 -1.05 11.45 -1.25 12.15 -1.3 11.8 -1.6 11.2 -1.85 12.75 -2.25 M15.65 -1.8 L15.65 -1.75 15.65 -1.7 15.7 -1.55 15.8 -2.1 15.7 -1.9 15.7 -1.8 15.65 -1.8 M15.7 -1.9 L15.6 -1.75 15.65 -1.75 15.5 -1.5 15.6 -1.2 15.65 -1.2 15.65 -1.55 15.65 -1.7 M15.5 -1.55 L15.6 -1.75 15.35 -1.8 M15.8 -2.1 L15.85 -2.2 15.75 -2.05 15.7 -1.9 M15.85 -2.2 L15.85 -2.05 15.75 -1.5 15.7 -1.45 15.65 -1.2 15.75 -1.15 15.75 -1.3 15.95 -1.75 15.95 -1.65 16.25 -1.15 16.25 -1.45 16.75 -1.45 17.25 -1.15 17.25 -1.05 17.05 -1.0 17.65 -0.75 18.1 -0.55 18.15 -0.6 19.05 -1.35 18.95 -2.35 18.85 -1.8 Q18.7 -1.45 18.35 -1.35 L18.3 -1.6 18.25 -1.9 18.3 -2.2 M16.25 -1.15 L16.35 -1.1 16.65 -1.05 17.05 -1.0 16.75 -0.95 Q16.55 -0.95 16.35 -1.1 L16.25 -1.1 16.25 -0.75 16.45 -0.4 16.8 -0.35 18.1 -0.55 18.25 -0.55 Q18.95 -0.55 19.8 -1.85 L20.8 -3.5 21.4 -2.7 21.5 -2.55 22.85 -2.85 23.85 -2.85 23.85 -2.75 23.9 -2.7 23.95 -2.65 Q23.8 -2.15 22.95 -1.8 L22.4 -1.6 22.55 -1.55 Q24.15 -0.95 24.65 -0.95 L25.7 -1.4 25.6 -1.45 25.5 -1.55 26.15 -1.7 26.7 -2.0 26.25 -1.95 25.75 -2.0 25.3 -2.55 26.55 -2.4 26.9 -2.2 27.1 -2.45 Q26.95 -3.0 27.25 -3.3 27.45 -3.6 27.95 -3.7 L28.0 -3.55 28.05 -3.3 27.95 -3.1 27.9 -3.05 27.75 -2.75 27.5 -2.3 27.45 -1.95 28.5 -2.2 29.0 -2.35 29.35 -2.75 29.35 -2.55 29.8 -2.9 29.95 -3.3 M15.75 -1.15 L16.25 -1.1 16.25 -1.15 M15.5 -1.5 L15.3 -1.25 15.6 -1.2 15.65 -0.95 15.75 -1.15 M15.7 -1.45 L15.7 -1.55 15.75 -1.5 M15.5 -1.5 L15.5 -1.55 M19.5 -1.95 L19.05 -1.35 19.1 -1.15 19.3 -1.4 19.5 -1.85 19.5 -1.95 M22.4 -1.6 L21.9 -1.55 21.8 -1.55 22.05 -1.7 20.1 -2.25 21.5 -2.55 21.9 -2.25 Q22.2 -2.25 23.15 -2.75 L23.85 -2.75 22.75 -2.2 22.05 -1.7 22.4 -1.6 M24.05 -2.45 L24.0 -2.35 23.95 -2.25 23.95 -2.35 24.0 -2.35 24.0 -2.45 24.05 -2.45 24.05 -2.5 24.05 -2.65 24.1 -2.6 24.15 -1.85 24.25 -1.75 24.4 -2.1 24.55 -2.35 24.6 -2.4 24.6 -2.35 24.55 -2.35 24.55 -2.1 24.5 -1.85 24.4 -2.1 M24.05 -2.5 L24.1 -2.6 M26.9 -2.2 L26.95 -2.1 27.1 -2.2 27.65 -2.65 27.85 -3.0 27.95 -3.2 27.95 -3.1 M27.65 -2.65 L27.55 -2.5 27.5 -2.3 M26.7 -2.0 L26.9 -2.2 M26.15 -1.7 L27.0 -1.85 26.95 -2.1 26.7 -2.0 M27.45 -1.95 L27.0 -1.85 27.0 -1.75 26.8 -1.35 26.45 -1.25 26.0 -1.3 25.7 -1.4 25.9 -1.55 26.15 -1.7 M29.35 -2.55 L29.35 -1.45 29.55 -1.45 30.3 -2.0 30.9 -2.75 30.8 -2.7 30.8 -2.65 30.55 -3.0 30.6 -3.5 30.1 -2.7 29.55 -1.85 29.55 -1.95 29.7 -2.6 29.8 -2.9 M28.35 -1.75 L28.85 -2.25 29.0 -2.35 29.35 -2.55 M27.9 -3.05 L27.85 -3.0 M25.8 3.0 L25.9 3.15 26.0 3.2 25.75 2.95 25.8 3.0 25.8 3.25 25.8 3.95 M25.4 2.7 L25.75 2.95 25.8 3.25 M26.0 3.2 L26.2 3.45 M20.8 3.45 L20.45 3.5 20.3 3.65 20.35 4.0 20.5 4.25 21.0 3.65 21.2 3.0 20.8 3.2 20.8 3.45 M20.45 3.5 L20.3 3.55 20.3 3.65 20.25 3.75 20.0 4.15 19.85 5.3 19.95 5.35 20.35 4.75 20.5 4.25 20.4 4.25 20.35 4.0 M20.8 3.2 L20.45 3.5 M19.7 2.95 L19.7 3.15 19.5 4.05 19.1 5.35 19.1 5.25 18.95 5.85 18.85 5.95 18.8 6.05 18.45 4.45 18.3 4.0 17.85 5.15 17.85 5.05 18.0 3.95 18.05 3.0 18.3 4.0 18.55 2.6 18.8 2.65 19.15 2.7 19.45 2.3 19.3 2.2 18.95 2.4 18.95 2.2 19.3 2.2 19.6 1.95 19.9 1.65 19.5 2.25 19.45 2.3 19.65 2.6 19.7 2.3 19.7 2.8 19.7 2.95 Q19.9 3.75 19.7 4.65 L19.7 4.75 20.0 4.15 20.0 4.05 20.2 3.6 20.3 3.55 20.1 2.7 20.1 1.8 20.7 2.6 20.8 3.2 M21.0 12.0 L20.85 12.0 20.75 12.05 20.7 12.35 20.75 12.7 20.8 13.0 20.95 12.85 21.0 12.6 21.25 12.5 21.5 12.6 21.65 12.05 21.3 12.4 21.3 11.85 21.0 12.0 M25.3 6.4 L25.35 6.7 25.5 7.1 26.2 6.3 26.0 6.75 25.8 7.0 25.85 6.85 25.9 6.8 25.8 7.0 M24.85 22.15 L24.45 22.55 M24.35 21.75 L24.6 21.65 M29.25 20.85 L29.55 20.5 29.95 20.95 30.15 21.4 30.15 21.75 29.85 22.15 29.95 22.15 30.25 21.95 30.3 21.9 30.4 21.65 M27.45 22.55 L26.45 22.65 26.2 22.65 26.0 22.35 M29.95 22.15 L29.55 22.25 M26.8 21.6 L27.1 21.7 M19.65 2.6 L19.7 2.8 M19.1 3.5 L19.1 3.75 19.1 4.25 19.1 5.25 19.4 3.8 19.65 2.6 M19.5 5.05 L19.55 5.6 19.7 6.05 19.7 6.0 19.85 5.3 19.5 4.95 19.5 5.05 M11.25 2.9 L11.25 3.35 11.35 3.35 11.35 3.75 11.4 3.75 11.45 3.85 11.45 3.45 11.4 3.2 11.35 2.9 11.25 2.9 M11.25 3.35 L11.25 4.15 11.35 4.05 11.35 3.75 M12.15 9.45 L12.45 10.85 12.55 10.85 12.55 9.85 12.75 10.35 13.1 10.25 M6.8 4.9 L6.85 5.25 6.85 5.15 6.8 4.9 6.7 4.5 6.45 3.75 6.45 3.85 6.35 4.45 6.3 4.75 6.25 4.75 6.15 4.95 6.15 4.75 6.05 4.75 6.15 4.15 6.15 4.05 6.15 3.2 6.3 3.35 6.35 3.65 6.45 3.5 6.95 4.15 7.2 3.75 7.45 3.95 7.5 4.15 7.45 4.45 7.4 4.65 7.4 5.15 7.3 5.15 7.3 4.65 7.3 3.85 7.4 4.65 7.3 4.65 M6.15 4.15 L6.15 4.75 6.25 4.75 6.35 4.45 6.35 4.0 6.35 3.65 6.15 4.05 M3.0 10.45 L2.7 10.45 Q2.7 10.75 3.3 11.25 L3.2 10.75 M7.35 11.05 L7.3 10.9 7.2 10.55 7.2 11.85 7.35 11.15 7.35 11.05 M7.35 11.15 L7.3 10.9 M7.6 10.45 L7.55 11.05 7.4 11.75 7.4 11.65 7.35 11.15 M2.85 21.9 L2.8 22.2 Q2.8 22.5 3.1 22.65 L3.5 22.75 4.2 22.55 4.35 22.3 3.95 22.15 3.4 21.9 Q3.05 21.6 3.0 21.15 3.4 21.9 3.95 22.15 L4.0 22.15 4.5 22.1 4.5 22.35 4.4 22.95 4.85 22.6 M4.5 22.35 L4.35 22.3 4.5 22.1 M2.75 23.8 L3.05 24.45 3.65 24.7 Q3.95 24.7 4.45 24.25 L4.6 24.15 4.55 24.15 4.3 24.2 4.25 24.15 3.6 24.3 Q3.2 24.3 2.8 23.85 L2.75 23.8 2.45 23.55 M3.0 23.35 Q3.15 23.7 3.95 24.0 L3.75 23.85 3.1 23.35 3.0 23.35 M2.4 22.95 L3.25 23.1 Q4.45 23.45 4.6 24.0 L4.9 23.8 4.95 23.8 4.85 23.95 4.65 24.15 4.65 24.2 4.6 24.15 4.65 24.15 4.6 24.0 4.35 24.1 4.55 24.15 M3.95 24.0 L4.35 24.1 4.25 24.15 3.95 24.0 M4.65 24.15 L4.9 23.8 M10.05 22.0 L9.6 22.45 9.35 22.1 9.2 21.85 Q9.0 22.55 8.4 22.75 L8.15 22.3 M12.05 16.35 L11.95 16.35 12.15 16.25 12.05 16.35 M14.7 24.1 L14.45 24.25 14.3 24.3 14.1 24.0 14.0 23.4 14.3 23.9 14.45 24.25 M14.65 22.1 L14.35 21.7 14.2 21.45 M14.6 22.85 L14.6 23.65 M-2.5 -2.6 L-2.75 -2.65 -2.9 -2.55 -3.0 -2.45 -3.0 -2.55 Q-3.1 -2.0 -3.2 -2.2 L-3.2 -2.85 -3.1 -2.8 -3.0 -2.75 -3.0 -2.55 -2.9 -2.55 M-1.05 -2.6 L-1.05 -2.65 -1.15 -3.0 -1.25 -3.1 -1.3 -2.75 -1.35 -2.25 -1.15 -1.45 -1.05 -1.35 -1.05 -2.2 M-0.25 2.9 L-0.15 3.25 -0.15 2.9 -0.25 2.9 M-0.55 3.6 L-0.55 3.7 -0.65 3.85 -0.65 4.25 -0.6 4.25 -0.4 3.65 -0.45 3.6 -0.55 3.6 M-0.4 3.65 L-0.4 3.6 -0.45 3.6 -0.7 3.4 -1.05 3.25 -1.0 3.4 -0.65 4.25 -0.65 4.35 -0.6 4.25 -0.35 4.25 -0.15 3.25 M-0.35 3.6 L-0.35 3.35 -0.4 3.6 -0.35 3.6 -0.35 3.75 -0.4 3.65 M-1.05 3.4 L-1.15 4.15 -1.15 4.05 -1.1 3.65 -1.05 3.4 -1.05 3.25 -1.05 2.7" fill="none" stroke="#000000" stroke-linecap="round" stroke-linejoin="round" stroke-opacity="0.9882353" stroke-width="0.05"/>
  </g>
</svg>
