<?xml version="1.0" encoding="UTF-8" standalone="no"?>
<svg xmlns:xlink="http://www.w3.org/1999/xlink" height="13.65px" width="41.8px" xmlns="http://www.w3.org/2000/svg">
  <g transform="matrix(1.0, 0.0, 0.0, 1.0, 6.05, -15.55)">
    <path d="M25.75 16.9 L25.75 17.2 25.7 17.35 25.7 17.4 25.6 17.75 25.6 17.65 25.55 17.25 25.5 17.25 25.35 17.2 25.35 17.05 25.55 17.25 25.75 17.2 M34.5 19.8 L34.05 20.05 34.7 20.05 34.5 19.95 34.5 19.8 34.5 19.65 34.6 19.65 34.6 19.7 34.9 19.5 33.65 19.5 33.65 19.05 35.15 19.3 Q35.75 19.55 35.75 20.35 L35.75 20.8 35.65 21.2 35.6 21.0 35.5 20.9 35.5 20.35 35.35 20.35 Q35.2 21.3 34.5 21.35 L34.4 21.35 33.9 21.05 33.8 20.85 33.8 21.8 M34.6 19.7 L34.7 20.05 34.75 20.5 34.7 20.9 34.5 21.35 M34.6 19.7 L34.5 19.8 M33.8 20.2 L33.8 20.85 M5.75 16.5 L3.75 18.2 3.5 18.15 3.5 17.5 3.05 17.2 2.9 16.6 2.5 16.5 2.6 16.35 2.9 16.4 Q2.95 16.0 3.35 15.95 L3.6 15.95 3.85 15.65 Q4.1 15.45 4.5 15.65 L4.55 15.75 4.6 16.0 4.75 16.05 4.75 16.1 5.05 16.15 5.4 16.2 4.75 16.15 4.75 16.7 Q5.3 16.35 5.75 16.35 L5.75 16.5 4.95 16.7 4.75 16.75 4.5 17.2 Q4.15 17.65 3.5 17.5 L3.5 17.05 3.5 16.75 3.35 16.7 2.9 16.6 2.9 16.5 2.9 16.4 3.5 16.55 3.5 16.25 3.2 16.05 3.5 16.05 3.6 15.95 3.9 15.95 4.25 15.95 4.35 15.95 4.6 16.0 4.6 16.1 4.65 16.1 4.75 16.1 4.75 16.15 4.65 16.1 M3.5 16.05 L4.2 16.05 4.25 15.95 4.6 16.1 4.25 16.05 4.2 16.05 M3.5 16.55 L3.6 16.55 4.15 16.7 3.85 16.5 3.5 16.25 3.5 16.05 M4.6 16.1 L4.15 16.7 4.25 16.75 4.4 16.8 4.45 16.75 4.65 16.75 4.75 16.7 4.75 16.75 4.65 16.75 4.4 16.95 3.5 17.5 M4.15 16.7 L4.0 16.8 4.2 16.8 4.4 16.8 M3.5 16.75 L3.5 16.55 M3.5 17.05 L4.0 16.8 3.5 16.75 M19.0 19.5 L19.05 19.65 19.05 20.05 18.75 19.55 18.5 20.2 18.5 19.35 18.55 19.35 18.7 19.45 18.9 19.2 18.1 19.1 18.1 19.15 17.5 19.95 17.5 19.65 17.35 19.65 17.1 19.4 16.9 19.05 17.6 19.05 17.65 18.95 17.65 19.05 17.9 19.05 18.1 19.1 Q18.5 18.4 18.9 18.35 L18.9 19.2 19.05 19.2 19.05 19.5 19.0 19.5 18.9 19.4 18.9 19.35 18.75 19.5 18.75 19.55 M18.7 19.5 L18.6 19.65 18.75 19.5 18.7 19.5 18.55 19.35 M18.7 19.45 L18.75 19.5 M18.7 19.5 L18.7 19.45 M18.9 19.35 L19.05 19.2 M19.0 19.5 L18.9 19.35 M17.6 19.05 L17.55 19.35 17.5 19.65 17.65 19.65 17.65 19.05 17.6 19.05 M34.55 26.9 L34.6 26.8 35.2 26.95 35.2 27.2 34.9 27.15 34.55 26.9 34.5 27.05 34.2 27.35 33.9 26.75 33.75 26.55 33.7 26.65 33.35 27.35 33.05 27.35 33.05 26.65 32.65 26.95 32.65 26.8 32.8 26.65 33.05 26.65 33.15 26.55 33.2 26.5 33.35 26.2 33.45 26.25 33.8 25.9 33.8 25.8 33.75 26.55 33.45 26.25 33.3 26.4 33.2 26.5 M33.3 26.65 L33.5 26.8 33.65 26.8 33.45 26.65 33.3 26.65 33.2 26.6 33.15 26.55 M33.05 26.65 L33.15 26.65 33.3 26.65 M29.15 28.8 L29.4 28.95 29.65 28.95 29.7 28.85 29.8 29.1 29.9 29.2 29.75 29.2 29.8 29.1 29.65 28.95 29.6 29.05 29.4 28.95 M-5.0 26.45 L-4.8 26.65 -4.95 26.65 -4.95 26.55 -5.2 26.35 -5.0 26.45 -5.05 26.15 -5.3 26.2 -5.7 26.2 -6.05 25.75 -5.85 24.8 -5.7 24.25 -5.9 24.2 -5.65 23.85 -5.65 23.5 -5.5 23.75 -5.45 23.75 -5.0 23.65 -4.95 23.1 M-5.65 23.85 L-5.5 23.75 -5.05 24.35 -5.0 23.8 -5.0 23.65 -4.85 23.65 -4.2 23.7 -3.8 24.05 -3.9 24.2 -3.65 24.2 -3.55 24.5 -3.5 24.95 -3.65 25.4 -3.65 25.9 -3.8 26.05 -4.1 25.65 -4.2 25.6 -4.5 25.9 -5.05 26.15 -5.1 25.85 -5.2 25.05 -5.2 24.8 -5.05 24.65 -5.05 24.35 -5.7 24.25 -5.65 23.85 M-5.05 24.65 L-5.05 24.8 -5.05 24.95 -4.55 25.4 -4.15 25.5 -4.4 25.05 -4.5 24.8 -4.65 24.8 -5.0 24.35 -5.05 24.35 M-4.65 24.45 L-4.75 24.4 -4.65 24.65 -4.65 24.5 -4.65 24.45 -4.8 24.05 -4.75 24.4 -5.0 24.35 M-4.65 24.45 L-4.6 24.45 -4.5 24.2 -3.9 24.2 -4.05 24.4 -4.15 24.55 -3.95 24.65 -3.9 24.5 -3.8 24.5 -3.75 24.6 -3.65 24.8 -3.65 25.4 -3.8 25.5 -4.05 25.5 -4.05 25.65 -4.1 25.65 -4.15 25.55 -4.2 25.6 -4.75 25.35 -5.05 24.95 -5.2 24.8 M-4.65 24.5 L-4.5 24.8 -4.35 24.8 -4.15 24.55 -4.6 24.45 -4.65 24.5 M-2.35 27.8 L-2.05 27.9 -2.2 27.8 -2.35 27.8 M-2.2 27.8 L-2.15 27.8 -2.35 27.65 -2.5 27.65 -2.2 27.8 M-4.15 25.5 L-4.1 25.5 -4.05 25.4 -3.95 24.65 -3.8 24.8 -4.05 25.4 -4.05 25.5 -4.1 25.5 -4.15 25.55 -4.15 25.5 M-5.0 26.45 L-4.95 26.55 -4.8 26.65 M-2.05 27.9 L-1.95 28.2 -1.95 28.05 -1.75 28.2 -1.4 28.35 M-1.4 27.9 L-2.15 27.8 -1.8 27.95 -1.4 28.05 -1.4 27.9 M-4.65 24.8 L-4.65 24.65" fill="none" stroke="#000000" stroke-linecap="round" stroke-linejoin="round" stroke-opacity="0.9882353" stroke-width="0.05"/>
  </g>
</svg>
