<?xml version="1.0" encoding="UTF-8" standalone="no"?>
<svg xmlns:xlink="http://www.w3.org/1999/xlink" height="31.0px" width="36.4px" xmlns="http://www.w3.org/2000/svg">
  <g transform="matrix(1.0, 0.0, 0.0, 1.0, 2.7, 7.25)">
    <path d="M28.65 -6.8 L28.65 -6.85 28.75 -6.8 28.85 -6.75 28.85 -6.7 29.1 -6.3 29.7 -6.15 30.15 -6.0 30.15 -6.05 30.6 -6.15 Q30.85 -6.55 30.6 -6.95 L30.6 -7.05 31.1 -6.45 31.4 -6.7 31.8 -7.15 31.35 -6.35 31.05 -6.0 31.2 -5.6 31.15 -5.25 31.1 -5.0 30.9 -5.0 30.3 -5.85 30.05 -5.75 29.95 -5.4 29.55 -4.7 29.45 -4.8 29.3 -5.85 29.25 -5.95 28.95 -6.25 28.9 -6.4 28.65 -6.55 28.65 -6.8 28.55 -6.85 28.25 -6.95 27.75 -6.0 27.45 -5.4 27.45 -4.95 28.35 -6.25 Q28.35 -6.15 28.55 -6.15 L28.1 -5.0 27.5 -4.1 27.5 -4.2 27.45 -4.95 26.9 -3.9 Q26.2 -2.45 25.5 -2.45 L24.7 -2.55 24.6 -2.6 24.15 -1.95 Q23.95 -2.2 23.85 -2.7 L23.75 -3.2 23.45 -3.5 22.6 -4.45 22.55 -4.3 22.55 -4.4 22.6 -4.45 22.4 -4.65 21.9 -3.8 21.9 -4.9 22.4 -4.65 22.45 -4.7 22.65 -4.55 23.45 -5.55 23.4 -5.65 22.65 -5.0 22.65 -5.9 22.05 -5.65 21.4 -5.4 21.3 -5.3 21.25 -5.25 21.05 -4.75 20.65 -3.8 20.0 -3.4 Q19.75 -3.4 18.85 -4.0 L18.5 -3.9 18.5 -4.0 Q18.2 -4.0 17.65 -4.65 L17.55 -4.8 17.05 -5.0 17.05 -4.9 16.85 -4.9 16.35 -4.95 16.0 -4.3 14.9 -5.2 14.8 -5.3 Q14.1 -5.65 13.9 -6.2 L13.85 -6.2 12.55 -5.2 Q12.85 -5.5 12.9 -7.05 L11.35 -5.3 11.25 -5.15 11.15 -4.65 11.15 -5.05 10.3 -4.3 10.1 -4.3 10.05 -4.4 10.05 -4.8 9.85 -4.65 Q8.75 -3.8 8.3 -3.8 7.8 -3.8 7.55 -4.45 L7.45 -4.4 7.25 -4.45 7.2 -4.5 7.45 -5.2 7.3 -6.45 7.1 -6.45 6.7 -6.05 6.75 -5.3 6.75 -4.7 6.15 -5.05 6.0 -4.7 5.75 -4.4 4.95 -5.05 4.8 -5.0 4.6 -5.05 4.55 -5.1 4.55 -5.4 3.5 -6.35 3.0 -6.0 2.1 -5.4 Q1.7 -5.4 1.3 -6.3 L1.15 -6.5 1.15 -6.45 0.8 -6.0 0.15 -5.4 0.15 -6.05 0.3 -6.25 0.2 -6.3 -0.25 -5.7 -1.35 -4.8 -1.4 -4.9 -1.45 -4.9 -1.45 -5.55 -1.4 -6.1 -1.55 -5.4 Q-1.8 -4.8 -2.1 -4.8 L-2.2 -4.85 Q-2.45 -4.5 -2.7 -4.4 M1.15 -6.5 L0.5 -7.15 -0.15 -6.55 -0.15 -6.5 0.2 -6.3 0.4 -6.6 0.45 -6.75 0.45 -6.65 0.4 -6.6 0.3 -6.25 0.8 -6.15 1.05 -6.35 1.15 -6.45 M1.15 -6.5 L1.2 -6.65 1.3 -6.65 1.15 -6.5 M3.55 -6.4 L4.5 -5.7 4.35 -6.65 3.55 -6.4 3.5 -6.45 3.4 -6.45 3.5 -6.35 3.55 -6.4 M4.5 -5.7 L4.55 -5.4 4.65 -5.3 4.95 -5.05 5.4 -5.35 5.05 -5.5 4.5 -5.7 M9.75 -6.15 L10.4 -6.9 10.45 -7.25 10.2 -6.9 9.55 -6.15 8.9 -5.5 9.2 -5.0 9.75 -6.15 M10.05 -4.8 L10.05 -5.3 10.4 -6.9 10.6 -6.95 11.05 -6.75 11.25 -6.4 11.35 -5.8 11.25 -5.15 11.15 -5.05 11.15 -5.2 11.25 -6.3 Q11.0 -5.6 10.05 -4.8 M8.2 -5.8 Q7.9 -5.8 7.6 -5.4 L7.45 -5.2 7.45 -5.0 7.55 -4.45 8.25 -4.95 8.9 -5.5 8.75 -5.6 8.2 -5.8 M6.7 -6.05 L6.65 -5.95 6.3 -5.2 6.15 -5.05 5.4 -5.35 5.75 -5.65 Q6.45 -6.25 6.7 -6.25 L6.7 -6.05 M5.75 1.3 L5.95 1.05 6.05 0.9 6.7 0.9 6.75 0.5 6.55 0.05 6.15 0.3 5.65 0.3 5.85 -0.4 6.25 -0.45 7.1 -0.15 7.4 0.1 7.4 0.05 7.5 0.05 7.6 0.45 7.65 0.5 7.65 0.6 7.9 1.2 7.8 1.15 7.8 1.1 7.7 0.95 7.7 1.0 7.65 1.4 7.2 1.7 7.15 1.6 7.1 1.7 6.95 1.7 7.1 1.4 6.9 0.95 6.7 1.2 6.7 0.9 6.9 0.9 6.75 0.5 6.75 -0.05 6.65 -0.05 6.55 0.05 6.5 -0.05 6.65 -0.05 6.75 -0.15 6.75 -0.05 M13.9 -6.2 L13.9 -6.35 13.95 -6.25 Q14.9 -7.15 15.3 -7.15 L15.4 -6.8 15.45 -6.4 15.35 -5.75 15.25 -5.15 16.65 -6.55 16.85 -6.55 16.95 -5.65 17.0 -5.35 17.1 -5.2 18.35 -5.2 18.45 -5.2 18.35 -5.65 18.35 -5.7 18.3 -5.85 18.05 -6.55 18.15 -6.45 18.4 -6.15 18.5 -6.35 18.5 -6.45 18.85 -5.95 18.85 -5.0 18.75 -5.05 18.8 -4.8 20.05 -6.25 20.05 -6.35 20.1 -6.95 20.45 -6.3 20.95 -6.45 21.2 -6.4 21.3 -6.35 21.3 -5.8 21.0 -5.25 21.3 -5.35 21.5 -5.7 Q21.85 -6.15 22.3 -6.15 L22.35 -6.15 22.4 -6.15 22.55 -6.1 22.95 -6.05 23.4 -6.5 23.75 -6.95 23.85 -6.45 23.8 -6.05 24.0 -6.2 24.5 -6.75 M11.25 -6.3 L11.25 -6.4 M14.8 -5.3 L13.95 -6.25 13.9 -6.2 M14.8 -5.3 L15.15 -5.15 15.25 -5.15 16.35 -4.95 16.45 -5.75 17.0 -5.35 17.0 -5.2 17.1 -5.2 17.55 -4.8 18.6 -4.2 19.35 -5.3 19.95 -5.95 20.05 -6.25 20.3 -6.55 20.3 -6.2 20.45 -6.3 20.5 -5.95 20.3 -5.0 20.3 -6.2 19.95 -5.95 19.8 -5.55 19.05 -4.45 18.7 -4.1 18.85 -4.0 20.2 -4.9 21.0 -5.25 20.45 -4.6 20.35 -4.5 21.0 -5.0 21.25 -5.25 M11.85 -2.05 L11.95 -1.65 12.15 -1.95 12.25 -2.25 12.25 -1.65 12.65 -1.85 M18.35 -5.65 L18.5 -5.2 18.5 -5.15 18.75 -5.05 18.65 -5.6 18.4 -6.15 18.4 -6.05 18.35 -5.7 M18.45 -5.2 L18.5 -5.1 18.5 -5.15 18.45 -5.2 M18.5 -4.0 L18.6 -4.2 18.7 -4.1 18.5 -4.0 M18.05 -3.9 L18.05 -3.8 18.15 -3.75 18.15 -3.9 18.05 -3.9 M18.05 -3.8 L18.05 -3.75 18.1 -3.55 18.1 -3.6 18.15 -3.65 18.15 -3.75 M18.15 -3.65 L18.1 -3.45 18.15 -3.4 18.1 -3.4 18.05 -3.05 18.05 -3.4 18.0 -3.4 17.95 -3.3 17.95 -3.4 18.0 -3.4 18.05 -3.5 18.05 -3.75 M18.05 -3.5 L18.05 -3.4 18.1 -3.4 18.1 -3.45 18.1 -3.55 18.05 -3.5 M20.35 -4.5 L19.7 -3.9 19.6 -3.8 19.5 -3.8 19.7 -3.9 M17.05 -5.0 L16.75 -5.1 16.85 -5.2 17.0 -5.2 17.05 -5.0 M25.7 -6.65 L25.65 -5.65 25.65 -5.3 25.6 -3.9 26.05 -4.2 26.4 -5.05 26.7 -6.15 26.6 -6.65 26.7 -6.65 26.7 -6.15 26.75 -5.8 26.9 -5.2 27.1 -5.85 27.3 -6.55 27.4 -6.65 27.45 -5.4 26.8 -4.7 26.05 -4.2 25.6 -3.5 25.6 -3.9 25.1 -3.6 24.6 -2.6 23.75 -3.2 23.75 -3.25 23.75 -3.35 23.3 -3.7 22.7 -4.55 22.65 -4.5 22.6 -4.45 M28.9 -6.4 L28.85 -6.7 28.75 -6.8 28.65 -6.8 M28.9 -6.4 L29.1 -6.3 29.25 -5.95 29.35 -5.9 Q29.65 -5.75 29.8 -5.75 L30.05 -5.75 30.15 -6.0 30.45 -5.95 30.55 -6.15 30.6 -6.15 30.95 -6.05 31.05 -6.0 30.85 -5.95 30.45 -5.95 30.3 -5.85 30.15 -6.0 M23.75 -3.35 Q23.75 -3.75 23.9 -3.95 L24.2 -4.3 Q24.65 -4.75 24.8 -6.0 L24.3 -5.35 23.75 -4.6 23.75 -5.75 23.8 -6.0 23.5 -5.6 23.45 -5.55 23.45 -5.4 23.3 -5.15 22.7 -4.55 22.65 -4.55 22.65 -4.5 M22.95 -6.05 L23.15 -5.95 23.4 -5.65 23.6 -5.8 23.8 -6.05 23.8 -6.0 24.0 -6.2 M25.1 -3.6 L24.15 -3.3 23.75 -3.35 M22.55 -6.1 L22.65 -6.05 22.65 -5.9 22.95 -6.05 M22.35 -6.15 L21.65 -5.65 21.4 -5.4 21.3 -5.35 21.3 -5.3 M25.1 -3.6 L25.4 -4.4 25.65 -5.65 M29.05 0.4 L29.25 -0.05 29.25 -0.1 29.35 -0.45 29.4 -0.2 29.45 0.05 29.45 0.1 29.55 -0.1 29.65 -0.35 29.65 -1.15 28.95 -0.55 M31.95 -6.25 L32.4 -6.25 32.45 -6.2 Q32.8 -6.65 33.7 -6.65 L33.7 -5.55 33.2 -5.35 32.75 -5.0 32.75 -4.55 32.4 -4.15 32.15 -4.15 32.05 -4.5 32.15 -5.05 32.3 -5.55 32.4 -6.1 32.45 -6.2 Q32.75 -5.9 32.75 -5.2 L32.75 -5.0 M26.1 2.6 L26.05 2.7 25.85 2.7 25.6 2.5 Q25.35 2.25 25.5 2.0 L25.4 2.0 25.35 2.7 25.4 2.6 25.7 3.35 25.8 3.5 25.8 3.55 26.25 4.15 26.6 4.25 26.5 4.25 26.25 4.15 25.7 4.25 25.5 4.45 25.8 5.15 25.7 5.05 25.45 4.5 25.2 4.7 25.2 4.75 25.1 4.75 24.75 4.4 24.3 4.1 24.25 4.15 24.15 4.15 24.15 4.05 24.05 4.05 24.05 3.35 24.15 4.05 24.3 4.1 24.7 3.4 24.7 3.35 24.7 3.15 24.7 2.85 24.35 3.2 24.3 3.15 24.25 3.15 24.2 2.55 24.05 2.9 23.95 2.9 23.95 2.3 24.05 1.95 24.15 1.5 24.2 2.55 24.35 1.95 24.6 1.0 24.6 1.1 24.65 1.75 24.7 2.8 24.7 2.85 25.1 2.0 25.2 0.6 Q25.85 0.95 25.95 1.55 L26.1 2.6 M25.8 3.55 L25.75 3.75 25.7 4.05 25.3 3.6 25.25 4.0 25.3 4.1 25.5 4.45 25.45 4.5 25.3 4.1 25.25 4.05 25.25 4.2 25.2 4.7 25.1 4.75 25.0 3.65 24.8 3.2 24.7 3.35 M25.7 3.35 L25.75 3.55 25.8 3.55 M24.65 1.75 L24.65 1.9 24.7 2.8 M25.25 3.05 L25.2 3.45 25.3 3.35 25.35 2.7 25.3 2.7 25.25 3.05 M25.0 2.7 L24.85 3.1 25.0 3.35 25.0 2.8 25.0 2.7 M24.8 3.2 L24.75 3.1 24.7 3.15 M24.8 3.2 L24.85 3.1 24.8 3.0 24.75 3.1 24.7 2.85 M25.0 3.35 L25.0 3.65 25.2 3.95 25.25 4.05 25.25 4.0 25.2 3.85 25.0 3.35 M21.3 11.85 L21.4 11.95 21.3 11.95 21.3 11.85 M28.4 16.25 L28.75 16.15 28.8 16.3 28.85 16.55 28.75 16.75 28.7 16.8 28.75 16.65 28.75 16.75 M28.85 17.75 L29.35 17.65 29.55 17.6 29.15 18.1 M21.6 23.05 L21.6 23.25 21.3 23.25 21.6 23.05 22.05 22.85 21.8 23.45 M27.0 23.25 L26.8 23.05 26.6 22.85 26.6 23.1 26.6 23.75 M26.6 22.85 L26.6 22.8 26.55 22.8 26.6 23.1 M26.2 22.55 L26.55 22.75 26.6 22.8 26.8 23.05 M26.55 22.8 L26.55 22.75 M19.7 2.0 L19.5 2.3 19.4 2.8 19.65 2.6 19.8 2.4 19.9 2.35 19.95 2.55 19.95 2.5 20.0 2.3 20.0 2.8 19.95 2.55 19.95 2.6 20.0 2.8 M14.15 0.95 L14.2 1.2 14.2 1.35 14.2 1.5 14.25 1.5 14.3 1.6 14.4 1.2 14.3 1.05 14.15 0.95 13.8 0.65 13.7 0.7 13.8 0.85 13.7 0.75 13.7 0.7 13.55 0.55 13.3 0.2 13.15 0.4 13.0 0.6 Q13.5 0.65 13.7 1.0 L14.1 1.7 14.2 1.2 M14.1 0.5 L14.15 0.95 M14.6 1.45 L14.55 1.15 14.5 0.65 14.4 1.2 14.6 1.45 14.7 1.8 14.6 1.7 14.6 1.45 M14.2 1.5 L14.2 1.7 14.1 1.7 14.1 1.9 13.8 1.6 13.4 1.2 13.1 1.6 13.0 1.6 12.95 1.35 12.9 1.1 M17.15 7.7 L17.15 7.1 M7.6 0.45 L7.4 0.1 7.4 0.6 7.65 0.85 7.7 0.95 7.65 0.6 M7.2 0.65 L7.0 0.9 7.1 0.9 7.1 1.4 7.15 1.6 7.4 1.4 7.4 0.65 7.2 0.65 M6.9 0.95 L7.0 0.9 6.9 0.9 6.9 0.95 M0.95 0.3 L1.1 0.6 1.1 0.65 1.2 -0.1 1.1 0.05 0.95 0.3 M3.4 5.45 L3.3 4.75 3.2 5.05 3.25 4.8 3.3 4.55 3.3 4.7 3.4 4.25 M3.3 4.75 L3.3 4.7 M8.3 9.65 L8.4 9.2 8.6 8.8 8.7 9.0 8.75 9.1 8.9 9.55 8.8 9.55 8.75 9.25 8.75 9.1 8.6 9.2 8.7 9.0 M0.1 23.25 L0.45 23.45 0.6 22.95 0.55 22.75 0.65 22.75 0.65 23.1 0.45 23.45 M0.6 22.95 L0.65 23.1 M19.9 23.55 L19.9 23.25 M17.55 18.4 L18.05 18.7 18.05 18.8 17.85 18.85 18.5 19.05 18.8 19.35 17.6 19.5 17.25 19.45 M17.85 18.85 L17.55 18.8 M-2.5 -5.2 L-2.2 -4.85 -1.9 -5.35 -1.5 -6.35 -1.45 -6.55 -1.4 -6.6 -1.45 -6.7 -1.55 -6.95 -1.95 -6.25 -2.05 -5.55 -2.35 -6.1 M-1.5 -6.35 L-1.45 -6.15 -1.4 -6.1 -1.35 -6.35 -1.35 -6.4 -1.4 -6.55 -1.45 -6.55 M-1.4 -6.1 L-1.05 -5.95 -0.65 -5.65 -0.15 -6.5 -0.9 -6.85 -1.4 -6.6 -1.4 -6.55 -1.35 -6.55 -1.35 -6.4 M-2.3 -1.75 Q-1.65 -1.65 -1.75 -1.15 L-2.1 -1.15 -2.2 -1.05 -2.25 -1.15 -2.4 -1.15 -2.5 -1.15 -2.5 -1.35 -2.5 -1.45 -2.4 -1.25 -2.25 -1.15 -2.1 -1.15 -1.95 -1.35 -1.85 -1.45 -2.0 -1.6 -2.3 -1.75 M-2.5 -1.35 L-2.45 -1.3 -2.4 -1.25 -2.4 -1.15 -2.45 -1.3 M-0.5 17.1 L-0.45 16.75 -0.35 16.85 -0.5 17.1 -0.55 17.55 M-0.25 22.55 L-0.2 23.05" fill="none" stroke="#000000" stroke-linecap="round" stroke-linejoin="round" stroke-opacity="0.9882353" stroke-width="0.05"/>
  </g>
</svg>
