<?xml version="1.0" encoding="UTF-8" standalone="no"?>
<svg xmlns:xlink="http://www.w3.org/1999/xlink" height="5.85px" width="32.45px" xmlns="http://www.w3.org/2000/svg">
  <g transform="matrix(1.0, 0.0, 0.0, 1.0, 0.05, -19.55)">
    <path d="M23.8 23.7 L23.5 23.7 23.7 23.75 23.8 23.85 23.8 23.7 24.1 23.7 24.45 23.95 24.75 23.85 24.0 23.55 23.95 23.55 23.25 23.7 23.5 23.7 M23.25 23.7 L23.25 23.85 23.2 24.3 23.1 24.8 23.1 24.2 23.1 24.1 22.8 24.55 22.8 24.25 23.0 23.9 23.05 23.85 22.25 23.85 22.9 23.55 Q23.3 23.25 23.5 23.25 L23.7 23.25 24.4 23.5 24.45 23.55 24.9 23.55 24.95 23.55 25.2 23.55 26.6 23.75 27.55 23.55 27.5 23.9 27.95 23.95 28.2 23.95 28.7 23.85 29.3 23.7 29.85 23.8 29.75 23.7 29.55 23.1 29.0 23.05 28.5 22.95 27.7 23.2 26.95 23.4 M23.05 23.95 L23.1 24.1 23.05 23.85 23.05 23.95 M23.05 23.85 L23.1 23.85 23.1 23.75 23.05 23.8 23.05 23.85 M23.1 23.85 L23.2 23.85 23.2 23.7 23.1 23.75 M23.2 23.7 L23.25 23.7 23.25 23.55 23.95 23.55 M23.25 23.85 L23.2 23.85 23.1 24.0 23.1 24.1 M23.05 23.8 L23.1 23.7 Q23.15 23.3 23.5 23.25 M23.8 23.85 L23.8 24.95 23.95 24.4 24.0 24.3 24.2 24.1 24.45 23.95 24.55 24.0 24.95 24.25 25.3 24.15 24.95 23.9 24.8 23.85 24.75 23.85 M23.95 24.4 L23.95 24.7 24.1 24.5 Q24.15 24.4 24.4 24.4 L24.65 24.5 24.7 24.55 24.7 25.1 25.4 25.1 25.8 24.9 26.25 24.8 26.75 24.9 27.75 24.85 27.6 24.4 27.5 23.9 26.75 23.75 26.6 23.75 26.4 23.75 25.55 23.85 25.45 23.95 25.4 24.0 25.4 24.25 25.3 24.15 25.35 24.1 25.4 24.0 25.4 23.95 24.95 23.9 24.9 23.85 24.8 23.85 M23.1 24.0 L23.1 23.85 M24.9 23.85 L24.7 23.75 24.55 23.6 24.5 23.6 24.45 23.55 24.0 23.55 M24.55 23.6 L24.8 23.7 24.9 23.55 M24.9 23.85 L25.25 23.85 25.4 23.85 25.55 23.85 M23.7 23.25 L24.15 23.4 24.4 23.5 M25.4 23.95 L25.4 23.9 25.4 23.85 M25.4 23.95 L25.45 23.95 25.4 23.9 M27.75 24.85 L28.5 24.7 28.45 24.7 27.95 24.65 Q27.7 24.55 27.8 23.95 L27.95 23.95 M28.6 24.7 L29.2 24.4 28.25 24.25 28.5 24.7 28.6 24.7 28.9 24.6 29.25 24.4 29.2 24.4 29.4 24.25 29.55 24.5 29.7 24.55 29.7 24.7 29.55 24.5 29.25 24.4 29.25 24.55 28.95 24.7 28.6 24.7 M28.2 23.95 L29.1 23.95 30.25 24.1 29.85 23.8 30.2 23.95 30.4 24.1 30.95 24.25 31.2 24.2 31.3 24.1 Q31.5 23.95 31.7 23.95 L32.0 24.05 32.1 23.95 32.15 24.1 32.4 24.25 32.2 24.15 32.15 24.1 32.05 24.05 32.0 24.05 31.8 24.15 31.4 24.1 31.45 24.25 31.5 24.35 31.7 24.4 31.55 24.4 31.5 24.35 31.45 24.3 31.2 24.2 M30.25 24.1 L30.4 24.1 M13.5 22.5 L13.25 22.55 12.95 22.25 12.8 21.75 Q12.8 21.1 13.4 21.1 L13.95 21.4 14.15 21.65 14.15 21.6 14.25 21.4 14.65 21.6 14.8 21.85 15.05 21.75 15.1 21.75 14.6 21.2 14.4 20.8 14.5 20.65 Q14.6 20.55 14.8 20.55 L15.1 20.85 15.4 21.25 15.25 20.8 15.25 20.7 15.35 20.7 14.6 20.1 Q13.9 19.55 13.6 19.55 L12.9 19.7 12.5 19.95 12.0 20.35 12.05 20.35 12.1 20.5 11.7 20.85 Q11.7 21.2 11.1 21.65 L9.95 22.25 10.9 22.35 10.95 22.1 11.1 22.25 11.1 22.4 10.9 22.35 Q10.65 22.85 10.2 23.0 L8.8 23.55 8.4 23.65 7.85 23.7 Q7.7 23.7 7.7 24.1 L6.6 24.4 6.1 24.3 5.65 24.1 5.55 24.1 5.6 24.35 5.65 24.55 5.8 24.55 6.4 24.6 6.75 24.95 7.7 24.95 7.7 25.1 6.95 25.1 6.75 24.95 5.8 24.95 4.8 24.9 4.75 24.9 4.4 25.25 4.45 25.25 4.55 25.4 3.75 25.05 3.15 25.25 2.25 25.05 2.05 24.95 1.95 24.95 0.25 24.95 -0.05 25.05 0.15 24.7 0.55 24.4 0.8 24.4 1.3 24.05 1.5 23.45 2.05 23.4 2.1 23.25 2.75 23.4 3.05 23.45 3.5 23.95 3.55 23.95 3.65 23.95 4.2 23.9 4.55 23.7 5.55 24.6 5.65 24.55 5.65 24.65 5.8 24.55 5.8 24.95 M0.8 24.4 L0.55 24.7 0.65 24.7 0.85 24.6 1.15 24.45 0.8 24.4 M1.15 24.45 L1.25 24.25 1.3 24.05 1.6 23.85 2.0 23.65 2.05 23.4 2.3 23.4 2.75 23.4 3.05 23.6 3.5 23.95 2.9 23.75 2.45 23.55 2.0 23.65 1.95 24.55 2.25 24.45 3.1 24.25 3.8 24.55 4.6 24.8 4.95 24.75 5.25 24.55 5.25 24.7 5.55 24.6 5.65 24.65 5.45 24.75 5.25 24.8 5.25 24.7 5.2 24.7 4.95 24.75 4.8 24.85 4.75 24.9 4.55 24.9 4.2 24.9 3.85 25.0 4.4 25.25 M0.65 24.7 L0.7 24.7 1.8 24.75 1.65 24.7 1.95 24.55 1.15 24.45 M1.95 24.55 L1.95 24.75 2.45 24.8 2.55 24.75 2.75 24.75 2.7 24.7 1.95 24.55 M18.9 23.6 L18.8 23.85 18.8 24.7 18.5 24.75 18.1 24.8 16.4 24.9 14.95 24.95 14.6 25.1 14.35 25.1 14.15 25.1 13.4 24.9 13.1 24.8 13.1 24.95 12.95 25.1 12.65 25.1 12.3 25.0 12.1 25.05 11.55 25.1 11.55 24.95 11.4 24.95 11.4 24.85 11.25 24.8 10.95 24.8 10.85 24.85 10.6 24.7 10.4 24.55 10.35 24.55 10.1 24.95 9.55 24.5 9.3 24.3 9.25 24.5 9.25 24.35 9.1 24.25 9.1 24.1 9.3 24.3 9.35 24.2 9.55 23.95 9.7 24.1 9.7 24.55 9.95 24.35 9.75 24.05 9.7 23.95 9.7 23.85 9.75 24.05 10.0 24.25 10.3 24.0 Q10.65 23.7 11.15 23.7 L11.2 23.7 11.35 23.15 Q11.45 22.55 11.75 22.55 L12.8 22.85 13.7 23.1 Q13.6 22.95 13.8 22.5 L14.1 21.85 14.15 21.65 14.25 21.85 14.1 21.85 14.05 22.45 13.95 22.95 14.1 22.95 14.25 22.45 14.65 21.95 15.1 22.5 15.55 22.95 Q16.0 22.2 16.4 22.1 L16.75 22.85 16.85 23.35 16.85 23.25 17.25 22.95 Q17.25 23.55 17.4 23.85 L17.5 23.85 17.75 23.5 Q18.0 23.2 18.4 23.1 L18.55 23.8 18.8 24.7 M9.95 24.35 L10.1 24.5 10.35 24.55 10.35 24.5 10.0 24.25 9.95 24.35 M13.1 20.25 L12.65 20.8 12.6 20.6 12.5 20.7 12.45 20.75 12.4 20.95 12.4 20.8 12.5 20.7 12.5 20.55 12.6 20.6 13.1 20.1 13.1 20.25 M11.1 20.95 L11.65 20.85 11.7 20.85 11.7 20.8 11.1 20.8 11.1 20.95 M11.1 23.85 L11.2 24.4 11.25 24.55 11.2 24.55 11.15 24.6 11.05 24.7 11.15 24.75 11.25 24.8 11.55 24.75 11.55 24.7 11.6 24.5 11.7 24.55 12.1 24.4 12.5 24.25 12.55 24.25 12.5 24.1 12.75 24.1 12.6 24.0 12.55 24.0 12.45 24.0 11.2 23.7 11.1 23.85 M11.2 24.4 L10.4 24.25 10.35 24.5 10.4 24.55 10.65 24.55 10.9 24.65 10.95 24.6 11.2 24.55 11.0 24.7 11.05 24.7 10.95 24.8 10.95 24.7 11.0 24.7 10.9 24.65 10.6 24.7 M12.55 24.25 L12.6 24.25 12.65 24.4 12.8 24.4 13.05 24.4 13.1 24.4 13.25 24.45 13.75 24.75 13.85 24.8 14.45 24.95 14.5 24.7 15.4 24.7 14.95 24.95 14.65 24.95 14.45 24.95 14.35 25.1 13.85 24.8 13.55 24.75 13.0 24.65 13.1 24.7 13.1 24.8 12.65 24.7 12.55 24.8 12.5 24.85 12.5 24.95 12.35 24.95 12.3 25.0 12.2 24.95 11.7 24.95 11.55 24.95 11.4 24.85 11.4 24.8 11.55 24.8 11.55 24.75 11.85 24.75 11.9 24.75 11.7 24.55 M12.1 24.7 L12.15 24.7 12.2 24.7 12.4 24.55 12.1 24.55 12.1 24.7 12.1 24.75 12.15 24.7 M12.4 24.55 L12.2 24.45 12.1 24.4 M12.65 24.6 L12.65 24.55 12.4 24.55 12.4 24.7 12.65 24.65 12.65 24.6 12.8 24.6 12.8 24.55 12.65 24.55 12.6 24.4 12.2 24.45 M12.55 24.25 L12.6 24.4 12.65 24.4 12.65 24.55 M12.65 24.7 L12.45 24.7 12.4 24.7 12.35 24.75 12.35 24.8 12.5 24.8 12.55 24.8 M12.65 24.7 L12.7 24.7 12.8 24.6 12.65 24.65 12.65 24.7 M12.2 24.7 L12.4 24.7 M17.1 24.1 L16.7 23.85 16.7 24.55 16.55 24.5 16.4 24.4 16.3 24.15 Q16.15 23.95 15.8 23.95 L15.1 23.75 14.65 23.55 13.8 23.85 13.4 23.95 13.4 24.1 13.3 24.15 13.25 24.25 13.95 24.4 18.8 24.7 M13.25 24.25 L13.15 24.25 13.15 24.2 13.0 24.2 12.75 24.1 12.8 24.1 12.6 24.0 M12.95 24.65 L12.95 24.6 12.85 24.6 12.95 24.65 13.0 24.65 M12.8 24.55 L12.8 24.4 M12.8 24.6 L12.85 24.6 12.85 24.55 12.8 24.55 M12.85 24.6 L12.7 24.7 M13.05 24.4 L12.85 24.55 12.95 24.55 12.95 24.6 13.1 24.55 13.1 24.4 M13.0 24.2 L12.8 24.1 13.4 23.95 M15.35 20.7 L15.65 20.9 15.5 20.75 15.35 20.7 M15.7 20.95 L15.8 20.95 15.65 20.9 15.7 20.95 M17.25 24.55 L17.1 24.55 17.3 24.6 17.25 24.55 M15.4 21.55 L15.1 21.75 M19.65 24.85 L19.8 25.1 20.2 24.75 M12.5 24.85 L12.35 24.95 12.25 24.95 12.2 24.95 12.0 24.85 11.7 24.95 M12.5 24.85 L12.5 24.8 M12.25 24.95 L12.35 24.8 12.1 24.8 12.1 24.75 12.0 24.85 11.9 24.75 12.0 24.75 12.05 24.75 12.1 24.7 M11.85 24.75 L11.55 24.8 11.55 24.95 M4.2 24.9 L3.9 24.9 3.6 24.85 3.75 24.95 3.85 25.0 3.75 25.05 3.15 24.85 2.45 24.8 2.1 24.95 2.05 24.95 M3.6 24.85 L3.15 24.85 2.75 24.75 3.0 24.7 3.6 24.85 M0.65 24.7 L0.25 24.95 0.5 24.9 1.25 24.8 1.95 24.95 1.8 24.75 1.95 24.75 1.95 24.95 M26.75 24.9 L26.95 24.95 27.7 25.1 27.95 25.1 27.75 24.85" fill="none" stroke="#000000" stroke-linecap="round" stroke-linejoin="round" stroke-opacity="0.9882353" stroke-width="0.05"/>
  </g>
</svg>
