<?xml version="1.0" encoding="UTF-8" standalone="no"?>
<svg xmlns:xlink="http://www.w3.org/1999/xlink" height="5.75px" width="37.2px" xmlns="http://www.w3.org/2000/svg">
  <g transform="matrix(1.0, 0.0, 0.0, 1.0, 5.6, -18.9)">
    <path d="M24.9 19.2 L24.55 19.2 24.5 19.2 24.25 19.2 24.2 19.05 24.05 18.9 24.5 19.2 24.65 19.1 25.05 19.05 24.9 19.2 M29.2 24.65 L29.2 23.8 28.4 24.65 28.1 24.55 28.05 24.5 28.1 23.9 28.05 23.9 27.5 23.0 27.5 22.8 27.35 22.8 27.5 22.6 27.5 22.3 27.6 21.65 28.0 21.2 28.05 21.2 28.05 21.05 Q28.7 21.05 28.85 21.4 L28.9 21.65 29.1 21.85 29.75 22.85 29.9 22.65 30.05 22.65 30.0 23.15 29.9 23.65 Q30.7 23.7 31.15 23.05 L31.6 21.8 31.05 21.6 30.4 21.5 29.95 21.55 29.5 21.8 M28.7 21.5 L28.9 21.95 28.9 21.65 28.7 21.5 28.65 21.35 28.65 21.5 28.7 21.5 M28.05 21.2 L28.05 22.2 28.15 22.35 28.5 22.35 28.5 22.45 28.65 22.5 28.45 22.8 28.75 22.8 28.7 23.05 28.65 23.1 28.45 22.8 28.3 23.3 28.1 23.9 28.65 23.25 28.9 22.3 28.9 22.25 28.65 21.5 28.05 21.2 M27.5 22.8 L27.5 22.6 27.75 22.35 28.15 22.35 28.35 22.65 28.45 22.8 27.5 22.8 M29.6 23.15 L29.6 23.2 29.75 23.35 29.75 22.85 29.6 23.15 29.0 22.2 28.9 21.95 28.9 22.25 29.2 23.8 29.6 23.15 M0.95 24.15 L0.9 23.9 1.1 23.6 0.75 23.8 0.7 23.65 0.6 23.4 0.55 23.1 -0.1 23.1 -0.1 22.8 -0.35 23.35 -0.7 22.9 -0.8 22.35 0.0 22.2 0.05 22.05 0.05 22.2 0.25 22.15 0.35 22.15 0.35 21.8 -0.8 21.8 Q-0.9 21.7 -0.95 21.7 L-0.95 21.4 Q-0.95 21.0 -0.5 20.95 L-0.05 20.9 Q0.45 20.9 0.6 21.2 L0.6 20.9 0.7 21.1 0.8 21.05 1.5 20.9 1.5 21.65 1.5 21.95 0.95 23.15 1.3 23.15 1.4 23.1 1.9 22.65 2.05 22.65 1.45 23.2 1.5 23.2 1.2 23.55 1.1 23.6 1.45 23.2 1.3 23.15 0.75 23.65 0.95 23.15 0.6 23.1 0.6 23.4 M0.7 21.1 L0.9 21.35 Q1.15 21.6 1.5 21.65 L0.75 22.0 0.75 22.2 0.6 22.5 0.6 23.1 0.55 23.1 0.55 22.9 0.5 22.65 0.35 22.65 0.35 22.15 0.6 22.05 0.6 21.8 0.35 21.8 Q0.4 21.4 0.6 21.2 L0.7 21.1 M0.6 22.05 L0.75 22.0 0.75 21.8 0.6 21.2 0.6 21.8 M0.0 22.2 L0.05 22.2 -0.05 22.7 -0.1 22.8 0.0 22.2 M0.6 22.05 L0.55 22.3 0.6 22.35 0.6 22.5 0.5 22.65 0.5 22.2 0.55 22.3 M7.6 21.05 L7.55 21.5 7.5 22.0 7.5 22.35 7.9 22.8 8.2 22.95 8.2 22.8 8.3 22.9 8.35 22.8 8.3 22.7 8.2 22.2 8.2 22.05 8.4 22.45 8.45 22.55 8.35 22.1 Q8.15 21.35 7.75 20.9 L7.6 21.05 M8.35 22.8 L8.4 23.0 8.5 22.95 8.5 22.6 8.45 22.55 8.35 22.8 M8.45 22.55 L8.5 22.5 8.5 22.6 8.75 22.95 8.75 22.5 M8.3 23.0 L8.4 23.05 8.4 23.0 8.35 22.95 8.3 22.95 8.3 23.0 8.35 23.1 8.4 23.05 8.45 23.05 8.4 23.0 8.5 23.05 8.5 22.95 8.75 22.95 8.75 23.15 9.05 23.2 M8.45 23.05 L8.5 23.1 8.5 23.05 8.45 23.05 M8.2 22.95 L8.25 22.95 8.3 22.9 8.3 22.95 8.25 22.95 8.05 23.3 8.1 23.3 8.35 23.1 8.35 23.5 8.35 23.65 8.4 23.4 8.5 23.1 8.75 23.35 8.75 23.15 8.5 23.05 M8.05 23.3 L7.9 23.65 7.75 23.65 8.05 23.3 M16.1 21.95 L16.2 21.8 16.35 22.15 16.35 22.2 16.1 21.95 16.05 21.95 16.05 22.15 15.9 22.2 15.9 21.8 16.1 21.95 M20.1 24.45 Q20.2 24.55 20.6 24.65 M-5.5 22.35 L-5.55 22.45 -5.6 22.55 -5.5 22.2 -5.5 22.35" fill="none" stroke="#000000" stroke-linecap="round" stroke-linejoin="round" stroke-opacity="0.9882353" stroke-width="0.05"/>
  </g>
</svg>
