<?xml version="1.0" encoding="UTF-8" standalone="no"?>
<svg xmlns:xlink="http://www.w3.org/1999/xlink" height="6.8px" width="19.45px" xmlns="http://www.w3.org/2000/svg">
  <g transform="matrix(1.0, 0.0, 0.0, 1.0, -8.85, 18.65)">
    <path d="M11.7 -17.85 L12.3 -17.85 12.8 -17.5 13.25 -17.45 Q13.55 -17.45 13.9 -17.8 L14.05 -18.0 13.05 -18.1 13.7 -18.2 14.45 -18.3 14.05 -18.0 15.2 -17.9 15.9 -18.0 16.55 -18.1 17.25 -17.95 17.85 -17.85 18.35 -17.95 18.85 -18.1 19.0 -18.05 19.2 -17.75 M10.75 -12.5 L10.75 -11.85 11.5 -11.85 11.7 -11.95 11.5 -12.05 11.2 -12.5 10.75 -12.5 M8.85 -18.2 Q8.8 -17.65 9.1 -17.4 9.3 -17.2 9.65 -17.2 L9.95 -17.2 10.1 -17.3 9.8 -17.55 9.35 -17.75 9.35 -17.9 10.55 -17.9 M25.35 -17.9 L26.25 -17.9 26.65 -17.75 27.1 -18.1 27.35 -18.65 28.2 -18.65 28.25 -18.4 28.3 -18.1 M28.0 -15.6 L28.3 -15.55" fill="none" stroke="#000000" stroke-linecap="round" stroke-linejoin="round" stroke-opacity="0.9882353" stroke-width="0.05"/>
  </g>
</svg>
