<?xml version="1.0" encoding="UTF-8" standalone="no"?>
<svg xmlns:xlink="http://www.w3.org/1999/xlink" height="138.2px" width="119.05px" xmlns="http://www.w3.org/2000/svg">
  <g transform="matrix(1.0, 0.0, 0.0, 1.0, -0.05, 0.0)">
    <path d="M54.2 50.0 L52.6 62.95 50.75 77.95 62.2 77.3 54.2 50.0 M74.6 0.0 Q77.3 0.0 79.4 1.6 81.45 3.2 82.25 5.9 L118.8 122.8 119.05 124.05 Q119.35 127.6 117.25 130.05 115.15 132.55 111.65 132.8 L111.4 132.85 81.25 134.1 Q78.45 134.1 76.3 132.5 74.15 130.85 73.4 128.15 L73.3 127.9 69.05 110.0 47.9 111.4 46.15 128.15 46.1 128.4 Q45.65 131.35 43.65 133.25 41.65 135.2 38.75 135.4 L8.9 138.2 8.05 138.2 Q4.8 138.2 2.6 136.15 0.35 134.05 0.1 130.8 L0.05 130.3 0.1 128.9 18.25 10.45 Q18.65 7.5 20.65 5.55 22.65 3.6 25.55 3.35 L74.6 0.0" fill="#ff0000" fill-rule="evenodd" stroke="none"/>
  </g>
</svg>
