<?xml version="1.0" encoding="UTF-8" standalone="no"?>
<svg xmlns:xlink="http://www.w3.org/1999/xlink" height="12.95px" width="4.45px" xmlns="http://www.w3.org/2000/svg">
  <g transform="matrix(1.0, 0.0, 0.0, 1.0, 0.25, 0.15)">
    <path d="M3.6 6.25 L3.55 6.05 Q3.4 5.4 2.8 5.05 L1.45 4.85 Q0.8 5.05 0.45 5.7 0.15 6.3 0.3 6.95 L0.35 7.1 Q0.5 7.75 1.1 8.05 L2.35 8.2 2.4 8.2 3.45 7.4 Q3.7 6.9 3.6 6.25 M0.3 0.1 L0.45 0.1 3.9 5.9 3.95 12.4 3.75 12.55 3.3 12.15 0.0 6.95 0.15 0.2 Q0.2 0.1 0.3 0.1" fill="#323d47" fill-rule="evenodd" stroke="none"/>
    <path d="M1.45 4.85 L2.8 5.05 Q3.4 5.4 3.55 6.05 L3.6 6.25 2.45 6.6 2.45 6.5 2.2 6.2 1.9 6.2 1.45 4.85" fill="#7e7e7e" fill-rule="evenodd" stroke="none"/>
    <path d="M0.35 7.1 L0.3 6.95 Q0.15 6.3 0.45 5.7 0.8 5.05 1.45 4.85 L1.9 6.2 1.65 6.35 1.65 6.7 1.7 6.8 0.35 7.1" fill="#9ea4aa" fill-rule="evenodd" stroke="none"/>
    <path d="M3.6 6.25 Q3.7 6.9 3.45 7.4 L2.4 8.2 2.1 7.0 2.35 6.75 2.45 6.6 3.6 6.25" fill="#464646" fill-rule="evenodd" stroke="none"/>
    <path d="M1.9 6.2 L2.2 6.2 2.45 6.5 2.45 6.6 2.35 6.75 2.1 7.0 1.8 6.9 1.7 6.8 1.65 6.7 1.65 6.35 1.9 6.2" fill="#000000" fill-rule="evenodd" stroke="none"/>
    <path d="M2.4 8.2 L2.35 8.2 1.1 8.05 Q0.5 7.75 0.35 7.1 L1.7 6.8 1.8 6.9 2.1 7.0 2.4 8.2" fill="#7b7979" fill-rule="evenodd" stroke="none"/>
    <path d="M0.3 0.1 Q0.2 0.1 0.15 0.2 L0.0 6.95 3.3 12.15 3.75 12.55 3.95 12.4 3.9 5.9 0.45 0.1 0.3 0.1 Z" fill="none" stroke="#000000" stroke-linecap="round" stroke-linejoin="round" stroke-width="0.5"/>
    <path d="M0.35 0.0 L0.5 0.05 3.9 5.85 4.0 12.3 3.8 12.5 3.4 12.1 0.0 6.85 0.2 0.1 0.35 0.0" fill="#323d47" fill-rule="evenodd" stroke="none"/>
    <path d="M0.35 7.05 L0.35 6.9 Q0.15 6.25 0.45 5.6 0.85 5.0 1.55 4.8 L2.1 6.65 0.35 7.05" fill="#9ea4aa" fill-rule="evenodd" stroke="none"/>
    <path d="M1.55 4.8 L2.8 5.0 Q3.45 5.35 3.65 6.0 L3.7 6.2 2.1 6.65 1.55 4.8" fill="#7e7e7e" fill-rule="evenodd" stroke="none"/>
    <path d="M3.7 6.2 L3.45 7.35 2.45 8.1 2.1 6.65 3.7 6.2" fill="#464646" fill-rule="evenodd" stroke="none"/>
    <path d="M2.45 8.1 L2.4 8.1 1.1 7.95 0.35 7.05 2.1 6.65 2.45 8.1" fill="#7b7979" fill-rule="evenodd" stroke="none"/>
    <path d="M2.35 6.7 L2.15 6.9 1.8 6.85 1.6 6.6 1.65 6.3 1.9 6.1 2.2 6.15 2.4 6.35 2.35 6.7" fill="#000000" fill-rule="evenodd" stroke="none"/>
  </g>
</svg>
