<?xml version="1.0" encoding="UTF-8" standalone="no"?>
<svg xmlns:xlink="http://www.w3.org/1999/xlink" height="160.8px" width="118.95px" xmlns="http://www.w3.org/2000/svg">
  <g transform="matrix(1.0, 0.0, 0.0, 1.0, 0.0, 0.0)">
    <path d="M71.6 41.75 Q68.55 39.9 64.25 38.7 60.15 37.55 55.7 37.3 50.75 37.0 49.25 40.4 48.5 42.15 48.7 43.9 L50.9 82.55 Q51.15 85.95 55.25 85.95 L56.95 85.8 Q71.05 82.75 77.15 77.05 83.45 71.2 82.65 61.3 81.6 47.8 71.6 41.75 M98.75 11.3 Q107.5 17.4 112.65 28.6 117.65 39.45 118.75 53.8 120.8 80.15 101.15 97.6 92.5 105.35 82.25 110.4 71.0 115.95 58.9 117.7 L57.25 118.4 Q55.6 119.65 55.6 122.6 L57.5 154.5 15.55 160.8 0.0 1.7 3.0 1.45 37.05 0.0 Q44.35 0.0 51.65 0.4 85.6 2.15 98.75 11.3" fill="#ff0000" fill-rule="evenodd" stroke="none"/>
  </g>
</svg>
