<?xml version="1.0" encoding="UTF-8" standalone="no"?>
<svg xmlns:xlink="http://www.w3.org/1999/xlink" height="111.7px" width="75.1px" xmlns="http://www.w3.org/2000/svg">
  <g transform="matrix(1.0, 0.0, 0.0, 1.0, -4.6, 5.9)">
    <path d="M28.0 -0.75 L28.4 -2.9 73.65 -2.9 Q72.9 -0.75 72.55 1.4 72.55 4.65 72.2 7.55 71.85 10.7 71.85 13.95 L71.85 18.6 71.85 22.55 Q72.2 31.85 74.0 41.55 L75.1 47.25 75.8 52.3 76.5 56.95 Q76.9 65.9 76.5 72.7 75.8 78.8 74.35 83.45 L70.75 81.3 67.9 99.2 64.65 99.9 Q41.7 105.3 21.6 100.65 L18.7 99.55 14.75 83.8 13.65 84.5 Q11.85 81.65 10.8 77.75 L9.0 78.1 Q8.65 77.4 8.65 76.3 L8.25 73.45 Q9.0 73.05 10.45 72.7 9.7 69.5 10.05 65.5 L10.05 62.65 Q8.65 62.65 7.95 63.0 L7.95 62.65 Q7.95 61.25 7.6 60.2 7.95 59.1 7.95 57.65 L7.95 57.3 10.45 57.3 Q10.45 52.3 11.5 47.25 L11.85 45.45 12.25 43.0 10.05 43.7 12.25 37.25 14.05 36.55 14.4 35.45 18.0 25.45 18.35 24.35 16.55 24.7 9.7 1.4 28.0 -0.75 M57.85 6.1 L57.5 6.1 57.85 6.8 57.85 6.1" fill="#27582b" fill-rule="evenodd" stroke="none"/>
    <path d="M28.0 -0.75 L9.7 1.4 16.55 24.7 18.35 24.35 18.0 25.45 14.4 35.45 14.05 36.55 12.25 37.25 10.05 43.7 12.25 43.0 11.85 45.45 11.5 47.25 Q10.45 52.3 10.45 57.3 L7.95 57.3 7.95 57.65 Q7.95 59.1 7.6 60.2 7.95 61.25 7.95 62.65 L7.95 63.0 Q8.65 62.65 10.05 62.65 L10.05 65.5 Q9.7 69.5 10.45 72.7 9.0 73.05 8.25 73.45 L8.65 76.3 Q8.65 77.4 9.0 78.1 L10.8 77.75 Q11.85 81.65 13.65 84.5 L14.75 83.8 18.7 99.55 21.6 100.65 Q41.7 105.3 64.65 99.9 L67.9 99.2 70.75 81.3 74.35 83.45 Q75.8 78.8 76.5 72.7 76.9 65.9 76.5 56.95 L75.8 52.3 75.1 47.25 74.0 41.55 Q72.2 31.85 71.85 22.55 L71.85 18.6 71.85 13.95 Q71.85 10.7 72.2 7.55 72.55 4.65 72.55 1.4 72.9 -0.75 73.65 -2.9 L28.4 -2.9 28.0 -0.75 Z" fill="none" stroke="#091c00" stroke-linecap="round" stroke-linejoin="round" stroke-width="6.0"/>
    <path d="M27.75 57.25 L28.85 57.25 29.9 57.25 Q30.65 56.85 31.7 56.85 L32.45 56.85 37.45 56.5 40.0 56.5 Q43.55 56.5 46.8 57.25 L47.5 57.25 50.05 57.6 60.1 60.1 Q61.85 60.8 63.65 61.15 65.1 61.9 66.55 62.25 L73.0 64.75 68.0 99.15 64.75 99.85 Q41.75 105.25 21.65 100.55 20.25 100.2 18.8 99.5 L10.55 65.1 Q12.7 63.3 15.55 61.9 17.0 60.8 18.45 60.45 21.3 59.0 24.2 58.3 L27.75 57.25" fill="#011e04" fill-rule="evenodd" stroke="none"/>
    <path d="M23.25 22.65 L15.95 24.9 9.0 1.8 33.95 -1.7 23.25 22.65" fill="#011e04" fill-rule="evenodd" stroke="none"/>
    <path d="M17.0 82.65 L13.75 84.45 Q11.6 80.85 10.55 76.2 9.8 71.2 10.2 65.45 L10.2 61.5 10.2 60.8 Q10.55 55.1 11.6 47.2 L12.0 45.4 Q12.0 44.35 12.7 41.8 L13.4 37.9 14.5 35.4 18.1 25.35 19.5 20.35 20.25 18.9 Q20.25 17.8 20.6 16.4 L20.95 16.75 28.5 -2.95 73.7 -2.95 Q73.0 -0.8 72.65 1.35 L41.75 10.3 18.45 36.1 18.45 36.8 Q9.1 68.35 17.0 82.65" fill="#2f4f32" fill-rule="evenodd" stroke="none"/>
    <path d="M17.0 82.65 Q9.1 68.35 18.45 36.8 L18.45 36.1 41.75 10.3 72.65 1.35 Q72.65 4.55 72.3 7.45 71.95 10.65 71.95 13.9 L71.95 18.55 71.95 22.5 Q72.3 31.8 74.1 41.45 L75.15 47.2 75.85 52.2 76.6 56.85 Q76.95 65.8 76.6 72.65 75.85 78.7 74.45 83.4 64.75 76.95 54.7 73.35 40.0 74.4 25.6 79.1 L17.0 82.65 M57.95 6.7 L57.95 6.0 57.55 6.0 57.95 6.7" fill="#011e04" fill-rule="evenodd" stroke="none"/>
    <path d="M8.05 73.55 L8.05 73.4 Q13.85 72.2 19.65 68.35 L19.65 73.75 Q14.05 76.85 9.0 78.05 L8.5 76.65 8.05 73.55 M7.6 62.55 L7.5 60.25 7.6 57.75 7.6 57.6 Q15.55 56.3 23.3 50.75 L23.3 56.7 Q15.15 61.6 7.6 62.85 L7.6 62.55 M11.8 37.1 Q18.95 35.45 25.8 31.0 L25.5 37.1 Q17.4 41.9 9.9 43.55 11.25 39.85 11.8 37.1" fill="#a5bf7c" fill-rule="evenodd" stroke="none"/>
    <path d="M34.6 36.45 Q34.6 39.65 32.45 41.45 30.3 43.6 27.4 43.6 24.2 43.6 22.05 41.45 19.85 39.65 19.85 36.45 19.85 33.6 22.05 31.1 24.2 28.95 27.05 28.95 29.9 28.95 32.1 31.1 34.6 33.6 34.6 36.45 M32.1 36.45 Q32.1 34.3 30.65 32.85 29.2 31.45 27.05 31.45 25.25 31.45 23.8 32.85 22.4 34.3 22.4 36.45 22.4 38.25 23.8 39.65 25.25 41.45 27.05 41.45 29.2 41.45 30.65 39.65 32.1 38.25 32.1 36.45" fill="url(#gradient0)" fill-rule="evenodd" stroke="none"/>
    <path d="M32.1 36.45 Q32.1 38.25 30.65 39.65 29.2 41.45 27.05 41.45 25.25 41.45 23.8 39.65 22.4 38.25 22.4 36.45 22.4 34.3 23.8 32.85 25.25 31.45 27.05 31.45 29.2 31.45 30.65 32.85 32.1 34.3 32.1 36.45 M24.2 33.6 Q23.1 34.65 23.1 36.45 23.1 38.25 24.2 39.3 25.6 40.4 27.05 40.4 28.85 40.4 29.9 39.3 31.35 37.9 31.35 36.45 31.35 34.65 29.9 33.6 28.85 32.15 27.05 32.15 25.6 32.15 24.2 33.6 25.6 32.15 27.05 32.15 28.85 32.15 29.9 33.6 31.35 34.65 31.35 36.45 31.35 37.9 29.9 39.3 28.85 40.4 27.05 40.4 25.6 40.4 24.2 39.3 23.1 38.25 23.1 36.45 23.1 34.65 24.2 33.6" fill="#000000" fill-rule="evenodd" stroke="none"/>
    <path d="M24.2 33.6 Q25.6 32.15 27.05 32.15 28.85 32.15 29.9 33.6 31.35 34.65 31.35 36.45 31.35 37.9 29.9 39.3 28.85 40.4 27.05 40.4 25.6 40.4 24.2 39.3 23.1 38.25 23.1 36.45 23.1 34.65 24.2 33.6 Z" fill="none" stroke="#000000" stroke-linecap="round" stroke-linejoin="round" stroke-width="0.25"/>
    <path d="M27.05 35.75 Q26.7 36.1 26.35 36.1 25.6 36.1 25.25 35.75 24.55 35.4 24.55 35.0 24.55 34.3 25.25 33.95 25.6 33.6 26.35 33.6 26.7 33.6 27.05 33.95 L27.75 34.65 Q27.75 35.4 27.05 35.75" fill="#ffffff" fill-opacity="0.5921569" fill-rule="evenodd" stroke="none"/>
    <path d="M28.5 55.45 Q28.5 58.3 26.7 59.75 25.25 61.5 22.75 61.5 20.25 61.5 18.45 59.75 16.65 58.3 16.65 55.8 16.65 53.3 18.45 51.5 20.25 49.7 22.4 49.7 24.9 49.7 26.7 51.5 28.5 53.3 28.5 55.45 M25.25 52.95 Q24.2 51.85 22.4 51.85 20.95 51.85 19.85 52.95 18.45 54.0 18.45 55.45 18.45 57.25 19.85 58.65 20.95 59.4 22.75 59.4 24.2 59.4 25.25 58.65 26.35 57.25 26.35 55.45 26.35 54.0 25.25 52.95" fill="url(#gradient1)" fill-rule="evenodd" stroke="none"/>
    <path d="M25.25 52.95 Q26.35 54.0 26.35 55.45 26.35 57.25 25.25 58.65 24.2 59.4 22.75 59.4 20.95 59.4 19.85 58.65 18.45 57.25 18.45 55.45 18.45 54.0 19.85 52.95 20.95 51.85 22.4 51.85 24.2 51.85 25.25 52.95 M22.4 52.55 Q21.3 52.55 20.25 53.3 19.15 54.35 19.15 55.45 19.15 57.25 20.25 57.95 21.3 59.0 22.75 59.0 24.2 59.0 24.9 57.95 26.0 57.25 26.0 55.45 26.0 54.35 24.9 53.3 23.8 52.55 22.4 52.55 23.8 52.55 24.9 53.3 26.0 54.35 26.0 55.45 26.0 57.25 24.9 57.95 24.2 59.0 22.75 59.0 21.3 59.0 20.25 57.95 19.15 57.25 19.15 55.45 19.15 54.35 20.25 53.3 21.3 52.55 22.4 52.55" fill="#000000" fill-rule="evenodd" stroke="none"/>
    <path d="M22.4 52.55 Q23.8 52.55 24.9 53.3 26.0 54.35 26.0 55.45 26.0 57.25 24.9 57.95 24.2 59.0 22.75 59.0 21.3 59.0 20.25 57.95 19.15 57.25 19.15 55.45 19.15 54.35 20.25 53.3 21.3 52.55 22.4 52.55 Z" fill="none" stroke="#000000" stroke-linecap="round" stroke-linejoin="round" stroke-width="0.25"/>
    <path d="M20.6 54.35 Q20.6 54.0 20.95 53.65 21.3 53.3 21.65 53.3 22.4 53.3 22.4 53.65 L22.75 54.35 Q22.75 55.1 22.4 55.1 22.4 55.45 21.65 55.45 21.3 55.45 20.95 55.1 20.6 55.1 20.6 54.35" fill="#ffffff" fill-opacity="0.5921569" fill-rule="evenodd" stroke="none"/>
    <path d="M24.9 67.25 Q26.35 68.7 26.35 70.85 26.35 72.65 24.9 74.4 23.45 75.85 21.65 75.85 19.5 75.85 18.1 74.4 16.65 72.65 16.65 70.85 16.65 68.7 18.1 67.6 19.5 66.2 21.65 66.2 23.45 66.2 24.9 67.25 M24.55 70.85 Q24.55 69.4 23.8 68.7 22.75 67.6 21.65 67.6 20.25 67.95 19.15 68.7 18.45 69.4 18.45 70.85 18.45 72.25 19.15 73.0 20.25 74.05 21.65 74.05 22.75 74.05 23.8 73.0 24.55 72.25 24.55 70.85" fill="url(#gradient2)" fill-rule="evenodd" stroke="none"/>
    <path d="M23.45 72.65 Q24.2 71.9 24.2 70.85 24.2 69.75 23.45 68.7 L21.65 68.35 Q20.25 68.35 19.5 69.05 18.8 69.75 18.8 70.85 18.8 72.25 19.5 72.65 20.25 73.7 21.65 73.35 22.4 73.35 23.45 72.65 22.4 73.35 21.65 73.35 20.25 73.7 19.5 72.65 18.8 72.25 18.8 70.85 18.8 69.75 19.5 69.05 20.25 68.35 21.65 68.35 L23.45 68.7 Q24.2 69.75 24.2 70.85 24.2 71.9 23.45 72.65 M24.55 70.85 Q24.55 72.25 23.8 73.0 22.75 74.05 21.65 74.05 20.25 74.05 19.15 73.0 18.45 72.25 18.45 70.85 18.45 69.4 19.15 68.7 20.25 67.95 21.65 67.6 22.75 67.6 23.8 68.7 24.55 69.4 24.55 70.85" fill="#000000" fill-rule="evenodd" stroke="none"/>
    <path d="M23.45 72.65 Q22.4 73.35 21.65 73.35 20.25 73.7 19.5 72.65 18.8 72.25 18.8 70.85 18.8 69.75 19.5 69.05 20.25 68.35 21.65 68.35 L23.45 68.7 Q24.2 69.75 24.2 70.85 24.2 71.9 23.45 72.65 Z" fill="none" stroke="#000000" stroke-linecap="round" stroke-linejoin="round" stroke-width="0.25"/>
    <path d="M20.25 69.05 Q20.25 68.7 20.6 68.7 21.3 68.7 21.3 69.05 L21.65 69.75 Q21.65 70.5 21.3 70.5 L20.6 70.85 Q20.25 70.85 20.25 70.5 19.85 70.5 19.85 70.1 19.85 69.4 20.25 69.05" fill="#ffffff" fill-opacity="0.5921569" fill-rule="evenodd" stroke="none"/>
  </g>
  <defs>
    <radialGradient cx="0" cy="0" gradientTransform="matrix(0.0096, 0.0, 0.0, 0.0096, 27.05, 36.45)" gradientUnits="userSpaceOnUse" id="gradient0" r="819.2" spreadMethod="pad">
      <stop offset="0.34509803921568627" stop-color="#dbdbdb"/>
      <stop offset="1.0" stop-color="#a3a3a3"/>
    </radialGradient>
    <radialGradient cx="0" cy="0" gradientTransform="matrix(0.0077, 0.0, 0.0, 0.0076, 22.4, 55.45)" gradientUnits="userSpaceOnUse" id="gradient1" r="819.2" spreadMethod="pad">
      <stop offset="0.34509803921568627" stop-color="#dbdbdb"/>
      <stop offset="1.0" stop-color="#a3a3a3"/>
    </radialGradient>
    <radialGradient cx="0" cy="0" gradientTransform="matrix(0.0062, 0.0, 0.0, 0.0062, 21.65, 70.85)" gradientUnits="userSpaceOnUse" id="gradient2" r="819.2" spreadMethod="pad">
      <stop offset="0.34509803921568627" stop-color="#dbdbdb"/>
      <stop offset="1.0" stop-color="#a3a3a3"/>
    </radialGradient>
  </defs>
</svg>
