<?xml version="1.0" encoding="UTF-8" standalone="no"?>
<svg xmlns:xlink="http://www.w3.org/1999/xlink" height="113.8px" width="73.75px" xmlns="http://www.w3.org/2000/svg">
  <g transform="matrix(1.0, 0.0, 0.0, 1.0, -6.5, 10.2)">
    <path d="M28.4 -2.6 L29.5 -4.7 51.25 -4.7 55.5 -7.2 Q59.1 -5.8 61.95 -5.05 L74.1 -5.05 Q73.7 -3.3 73.7 -1.9 73.35 -1.15 73.35 -0.1 L72.65 5.6 Q72.3 8.8 72.3 11.65 L72.3 16.65 72.3 20.9 Q72.65 29.85 74.1 39.45 L75.9 45.15 76.25 50.1 Q76.6 52.25 76.6 54.75 77.25 61.85 77.25 67.95 76.9 69.0 76.9 70.4 76.25 76.45 74.8 81.1 73.0 80.05 71.2 78.6 L68.35 96.8 Q66.55 97.15 64.8 97.85 42.7 103.2 22.35 98.2 L19.5 97.5 15.9 81.5 Q14.8 81.8 14.45 82.15 12.7 78.6 11.65 73.65 L10.9 73.65 Q8.1 64.4 10.9 53.65 L10.9 49.75 12.0 49.75 12.7 45.15 12.7 43.7 Q12.7 42.25 13.05 40.5 L12.7 40.5 12.7 38.35 13.8 38.35 Q14.15 36.55 14.45 35.9 L15.2 33.4 Q17.35 28.05 18.8 23.05 L19.15 22.7 18.4 22.7 11.65 -0.1 28.4 -2.6" fill="#a89797" fill-rule="evenodd" stroke="none"/>
    <path d="M28.4 -2.6 L11.65 -0.1 18.4 22.7 19.15 22.7 18.8 23.05 Q17.35 28.05 15.2 33.4 L14.45 35.9 Q14.15 36.55 13.8 38.35 L12.7 38.35 12.7 40.5 13.05 40.5 Q12.7 42.25 12.7 43.7 L12.7 45.15 12.0 49.75 10.9 49.75 10.9 53.65 Q8.1 64.4 10.9 73.65 L11.65 73.65 Q12.7 78.6 14.45 82.15 14.8 81.8 15.9 81.5 L19.5 97.5 22.35 98.2 Q42.7 103.2 64.8 97.85 66.55 97.15 68.35 96.8 L71.2 78.6 Q73.0 80.05 74.8 81.1 76.25 76.45 76.9 70.4 76.9 69.0 77.25 67.95 77.25 61.85 76.6 54.75 76.6 52.25 76.25 50.1 L75.9 45.15 74.1 39.45 Q72.65 29.85 72.3 20.9 L72.3 16.65 72.3 11.65 Q72.3 8.8 72.65 5.6 L73.35 -0.1 Q73.35 -1.15 73.7 -1.9 73.7 -3.3 74.1 -5.05 L61.95 -5.05 Q59.1 -5.8 55.5 -7.2 L51.25 -4.7 29.5 -4.7 28.4 -2.6 Z" fill="none" stroke="#091c00" stroke-linecap="round" stroke-linejoin="round" stroke-width="6.0"/>
    <path d="M38.1 54.4 L40.95 54.4 47.4 55.1 48.1 55.1 51.0 55.45 Q55.6 56.15 60.6 57.6 62.4 58.35 64.5 59.4 65.6 59.4 67.05 60.1 70.6 61.15 73.45 62.95 L68.4 96.8 Q66.65 97.15 64.85 97.85 42.75 103.2 22.45 98.2 L19.55 97.5 11.35 62.95 Q13.85 61.15 16.7 59.75 L19.55 58.35 24.9 56.15 Q26.7 55.45 28.5 55.45 L29.9 55.1 30.95 55.1 32.4 54.75 33.5 54.4 38.1 54.4" fill="#011e04" fill-rule="evenodd" stroke="none"/>
    <path d="M25.55 19.9 L18.3 22.1 11.45 -0.8 36.2 -4.3 25.55 19.9" fill="#011e04" fill-rule="evenodd" stroke="none"/>
    <path d="M64.85 1.7 Q70.6 0.3 73.8 -1.9 73.45 -1.15 73.45 -0.1 L72.75 5.6 Q72.4 8.85 72.4 11.65 L72.4 16.65 72.4 20.9 Q72.75 29.85 74.15 39.45 L75.95 45.15 76.3 50.1 Q76.65 52.25 76.65 54.75 77.35 61.85 77.35 67.95 L69.5 66.85 64.5 66.5 64.85 63.3 Q64.85 55.8 62.7 47.65 60.95 38.7 60.95 28.75 60.95 15.2 62.7 9.5 63.05 6.35 64.85 1.7" fill="#153c00" fill-rule="evenodd" stroke="none"/>
    <path d="M13.5 39.1 L14.55 35.9 15.3 33.4 Q17.4 28.05 18.85 23.05 19.9 20.9 20.25 18.45 20.65 17.75 20.65 17.0 L21.7 14.85 29.55 -4.7 74.15 -5.05 Q73.8 -3.25 73.8 -1.9 70.6 0.3 64.85 1.7 L57.0 3.15 Q44.55 3.8 35.6 14.2 26.35 24.15 22.8 30.55 19.55 36.6 13.5 39.1" fill="#0e2c00" fill-rule="evenodd" stroke="none"/>
    <path d="M13.5 39.1 Q19.55 36.6 22.8 30.55 26.35 24.15 35.6 14.2 44.55 3.8 57.0 3.15 L64.85 1.7 Q63.05 6.35 62.7 9.5 60.95 15.2 60.95 28.75 60.95 38.7 62.7 47.65 64.85 55.8 64.85 63.3 L64.5 66.5 51.3 65.1 Q45.6 65.1 33.5 69.0 21.35 72.2 14.55 72.2 L11.35 71.85 Q11.0 67.95 11.0 63.3 L11.0 59.4 11.0 59.05 Q11.35 52.65 12.75 45.15 L12.75 43.7 Q12.75 41.95 13.5 39.8 L13.5 39.1 M58.8 4.9 L58.8 4.2 58.45 4.2 58.8 4.9" fill="#194303" fill-rule="evenodd" stroke="none"/>
    <path d="M11.35 71.85 L14.55 72.2 Q21.35 72.2 33.5 69.0 45.6 65.1 51.3 65.1 L64.5 66.5 64.15 74.7 54.9 71.15 Q40.6 72.2 26.35 76.85 21.0 78.6 18.1 80.4 16.0 81.1 14.55 82.2 12.75 78.6 11.7 73.65 L11.35 71.85" fill="#e5e1e1" fill-rule="evenodd" stroke="none"/>
    <path d="M77.35 67.95 Q77.0 69.0 77.0 70.45 76.3 76.5 74.5 81.1 69.5 77.55 64.15 74.7 L64.5 66.5 69.5 66.85 77.35 67.95" fill="#ada9a9" fill-rule="evenodd" stroke="none"/>
    <path d="M64.15 74.7 Q63.8 74.7 63.8 75.05 62.7 82.55 61.7 85.75" fill="none" stroke="#091c00" stroke-linecap="round" stroke-linejoin="round" stroke-width="1.0"/>
    <path d="M69.5 -2.25 Q70.2 -2.25 70.6 -1.9 L70.6 -1.5 49.2 31.95 35.95 12.75 Q35.6 13.85 33.5 17.0 30.6 21.25 28.5 25.2 22.45 35.2 20.25 37.0 18.85 38.7 16.35 40.15 23.8 31.6 32.75 12.05 35.95 7.75 39.55 10.95 L49.2 19.5 69.5 -2.25" fill="#e5e1e1" fill-rule="evenodd" stroke="none"/>
    <path d="M65.6 -3.6 L69.5 -2.25 49.2 19.5 39.55 10.95 Q35.95 7.75 32.75 12.05 23.8 31.6 16.35 40.15 L12.75 40.5 12.75 38.35 Q15.3 39.45 18.85 31.6 23.8 21.65 26.7 16.65 29.55 11.3 32.75 7.75 L35.6 4.55 Q52.0 11.65 65.6 -3.6" fill="#b6bbb2" fill-rule="evenodd" stroke="none"/>
    <path d="M35.6 4.55 L39.85 1.0 Q44.55 -1.9 55.6 -7.2 L65.6 -3.6 Q52.0 11.65 35.6 4.55" fill="#818a7a" fill-rule="evenodd" stroke="none"/>
    <path d="M32.05 70.1 L32.05 64.75 Q21.7 61.15 19.55 53.7 L11.0 53.7 11.0 49.75 22.8 49.75 Q26.0 61.15 37.75 61.85 L37.4 68.3 32.05 70.1" fill="#ced2ca" fill-rule="evenodd" stroke="none"/>
    <path d="M11.0 53.7 L19.55 53.7 Q21.7 61.15 32.05 64.75 L32.05 70.1 24.55 71.85 13.5 73.65 11.0 73.65 Q7.75 64.4 11.0 53.7" fill="#b6bbb2" fill-rule="evenodd" stroke="none"/>
  </g>
</svg>
