<?xml version="1.0" encoding="UTF-8" standalone="no"?>
<svg xmlns:xlink="http://www.w3.org/1999/xlink" height="112.75px" width="77.05px" xmlns="http://www.w3.org/2000/svg">
  <g transform="matrix(1.0, 0.0, 0.0, 1.0, -2.8, 8.15)">
    <path d="M73.1 -4.8 L74.55 -5.15 72.4 30.05 72.45 30.5 Q72.8 34.95 73.85 40.1 L74.9 45.85 75.65 50.5 76.0 52.3 Q76.0 54.1 76.35 59.15 77.1 64.15 76.7 69.2 L76.35 73.5 75.3 77.1 Q75.3 78.15 74.2 79.95 L72.2 78.65 70.6 77.45 67.7 97.55 Q66.3 98.3 64.5 98.65 41.45 104.4 21.3 99.0 L18.4 98.65 14.45 82.5 13.35 83.2 Q12.3 81.05 12.3 79.95 L10.85 76.75 Q10.5 75.65 10.5 74.6 L10.85 76.4 Q10.85 75.3 11.55 77.8 10.85 74.95 10.85 72.8 10.5 69.9 10.5 68.45 L10.5 67.4 7.6 67.75 6.5 67.05 Q6.15 66.7 6.15 65.95 5.8 63.8 5.8 61.65 6.15 59.5 7.95 59.5 L9.75 59.5 10.5 54.45 7.6 54.8 6.5 54.1 Q6.15 54.1 6.15 53.4 5.8 51.25 5.8 48.7 6.15 46.55 7.95 46.55 L11.2 46.55 11.2 45.85 11.55 44.4 Q11.55 42.6 12.3 40.45 L12.3 39.4 Q12.65 37.6 13.35 36.5 L14.45 33.65 17.7 23.55 Q18.4 21.05 19.5 18.9 19.5 17.8 19.85 17.45 L20.2 15.3 20.55 15.3 25.25 3.45 27.4 -4.8 73.1 -4.8" fill="#cbdbab" fill-rule="evenodd" stroke="none"/>
    <path d="M73.1 -4.8 L27.4 -4.8 25.25 3.45 20.55 15.3 20.2 15.3 19.85 17.45 Q19.5 17.8 19.5 18.9 18.4 21.05 17.7 23.55 L14.45 33.65 13.35 36.5 Q12.65 37.6 12.3 39.4 L12.3 40.45 Q11.55 42.6 11.55 44.4 L11.2 45.85 11.2 46.55 7.95 46.55 Q6.15 46.55 5.8 48.7 5.8 51.25 6.15 53.4 6.15 54.1 6.5 54.1 L7.6 54.8 10.5 54.45 9.75 59.5 7.95 59.5 Q6.15 59.5 5.8 61.65 5.8 63.8 6.15 65.95 6.15 66.7 6.5 67.05 L7.6 67.75 10.5 67.4 10.5 68.45 Q10.5 69.9 10.85 72.8 10.85 74.95 11.55 77.8 10.85 75.3 10.85 76.4 L10.5 74.6 Q10.5 75.65 10.85 76.75 L12.3 79.95 Q12.3 81.05 13.35 83.2 L14.45 82.5 18.4 98.65 21.3 99.0 Q41.45 104.4 64.5 98.65 66.3 98.3 67.7 97.55 L70.6 77.45 72.2 78.65 74.2 79.95 Q75.3 78.15 75.3 77.1 L76.35 73.5 76.7 69.2 Q77.1 64.15 76.35 59.15 76.0 54.1 76.0 52.3 L75.65 50.5 74.9 45.85 73.85 40.1 Q72.8 34.95 72.45 30.5 L72.4 30.05 74.55 -5.15 73.1 -4.8 M10.85 72.8 Q10.5 73.5 10.5 74.6" fill="none" stroke="#011e04" stroke-linecap="round" stroke-linejoin="round" stroke-width="6.0"/>
    <path d="M39.65 54.85 L46.85 55.6 47.2 55.6 49.7 56.3 50.1 56.3 Q54.75 57.05 59.8 58.45 L63.4 59.9 Q64.85 60.25 66.3 61.0 69.5 62.05 72.75 63.5 L67.7 97.6 Q66.3 98.35 64.5 98.7 41.45 104.45 21.3 99.05 L18.4 98.7 10.1 63.85 15.15 60.25 18.05 58.85 Q20.9 57.75 23.8 57.05 25.6 56.3 27.4 56.3 L28.85 55.95 Q29.2 55.6 29.9 55.6 L31.35 55.25 32.1 55.25 37.1 54.85 39.65 54.85" fill="#011e04" fill-rule="evenodd" stroke="none"/>
    <path d="M25.95 -0.45 L27.4 -4.75 Q32.1 24.0 45.4 29.0 50.1 30.45 54.75 27.95 64.85 22.2 71.3 -4.75 L73.1 -4.75 73.5 -4.75 72.75 -1.5 72.75 -0.1 72.05 5.65 Q70.25 16.45 63.05 25.8 L58.35 30.8 Q52.6 36.55 45.4 34.4 38.55 31.15 33.9 23.25 29.2 15.35 25.95 -0.45 M75.3 77.15 Q75.3 78.2 74.2 80.0 68.1 75.35 65.55 74.65 62.7 73.55 58.35 72.85 54.05 71.75 50.45 72.1 47.2 72.1 40.7 73.55 33.9 75.0 25.25 77.85 20.2 79.65 16.6 81.45 15.15 81.8 14.45 82.55 L13.35 83.25 Q12.3 81.1 12.3 80.0 33.15 70.7 53.3 69.25 L54.05 69.25 54.4 69.25 Q67.35 69.95 75.3 77.15" fill="#679735" fill-rule="evenodd" stroke="none"/>
    <path d="M72.05 5.65 L72.75 -0.1 72.75 -1.5 73.5 -4.75 73.1 -4.75 74.55 -5.1 72.4 30.1 Q72.75 34.75 73.85 40.15 L74.9 45.9 75.65 50.55 76.0 52.35 Q76.0 54.15 76.35 59.2 77.1 64.2 76.7 69.25 L76.35 73.55 Q63.75 65.65 52.95 66.0 42.9 66.35 33.5 69.25 23.8 71.4 11.55 77.85 10.5 71.05 10.5 68.5 9.75 62.05 9.75 59.9 10.1 53.45 11.2 45.9 L11.55 44.45 Q11.55 42.65 12.3 40.5 L12.3 39.45 Q12.65 37.65 13.35 36.55 13.7 34.75 14.45 33.7 L17.7 23.6 19.1 18.95 Q19.5 17.85 19.85 17.5 L20.2 15.35 20.55 15.35 25.25 3.5 Q27.75 20.75 36.05 31.55 44.3 39.45 51.9 36.9 65.9 32.95 71.7 12.15 L72.05 5.65 M71.3 -4.75 Q64.85 22.2 54.75 27.95 50.1 30.45 45.4 29.0 32.1 24.0 27.4 -4.75 L71.3 -4.75" fill="#194303" fill-rule="evenodd" stroke="none"/>
    <path d="M25.95 -0.45 Q29.2 15.35 33.9 23.25 38.55 31.15 45.4 34.4 52.6 36.55 58.35 30.8 L63.05 25.8 Q70.25 16.45 72.05 5.65 L71.7 12.15 Q65.9 32.95 51.9 36.9 44.3 39.45 36.05 31.55 27.75 20.75 25.25 3.5 L25.95 -0.45 M11.55 77.85 Q23.8 71.4 33.5 69.25 42.9 66.35 52.95 66.0 63.75 65.65 76.35 73.55 L75.3 77.15 Q67.35 69.95 54.4 69.25 L54.05 69.25 53.3 69.25 Q33.15 70.7 12.3 80.0 10.85 77.5 10.85 76.8 10.5 75.7 10.5 74.65 L10.5 72.85 10.85 76.45 Q10.85 75.35 11.55 77.85" fill="#e5f0cf" fill-rule="evenodd" stroke="none"/>
    <path d="M8.1 59.55 L22.5 59.25 25.15 62.3 Q26.2 63.15 25.3 64.1 L22.75 67.25 7.8 67.7 Q7.35 67.75 6.8 67.25 6.25 66.75 6.15 66.15 5.75 64.2 6.0 61.7 6.2 59.55 8.1 59.55 M21.9 63.85 Q22.35 63.3 21.65 62.65 L19.85 61.05 9.15 61.35 Q8.1 63.75 9.4 65.95 L19.8 65.75 21.9 63.85" fill="#e5f0cf" fill-rule="evenodd" stroke="none"/>
    <path d="M21.9 63.85 L19.8 65.75 9.4 65.95 Q8.1 63.75 9.15 61.35 L19.85 61.05 21.65 62.65 Q22.35 63.3 21.9 63.85" fill="#679735" fill-rule="evenodd" stroke="none"/>
    <path d="M8.1 46.55 L22.5 46.25 25.15 49.3 Q26.2 50.15 25.3 51.1 L22.75 54.25 7.8 54.7 Q7.35 54.75 6.8 54.25 6.25 53.75 6.15 53.15 5.75 51.2 6.0 48.7 6.2 46.55 8.1 46.55 M21.9 50.85 Q22.35 50.3 21.65 49.65 L19.85 48.05 9.15 48.35 Q8.1 50.75 9.4 52.95 L19.8 52.75 21.9 50.85" fill="#e5f0cf" fill-rule="evenodd" stroke="none"/>
    <path d="M21.9 50.85 L19.8 52.75 9.4 52.95 Q8.1 50.75 9.15 48.35 L19.85 48.05 21.65 49.65 Q22.35 50.3 21.9 50.85" fill="#679735" fill-rule="evenodd" stroke="none"/>
    <path d="M19.1 47.7 Q20.2 47.7 21.65 48.4 22.35 49.5 22.35 50.55 22.35 52.0 21.65 52.7 20.2 53.8 19.1 53.8 17.7 53.8 16.6 52.7 15.9 52.0 15.9 50.55 15.9 49.5 16.6 48.4 17.7 47.7 19.1 47.7 M20.9 49.15 Q20.2 48.4 19.1 48.4 18.05 48.4 17.7 49.15 16.6 49.85 16.6 50.55 16.6 51.3 17.7 52.0 18.05 52.7 19.1 52.7 20.2 52.7 20.9 52.0 21.3 51.3 21.3 50.55 21.3 49.85 20.9 49.15" fill="url(#gradient0)" fill-rule="evenodd" stroke="none"/>
    <path d="M20.9 49.15 Q21.3 49.85 21.3 50.55 21.3 51.3 20.9 52.0 20.2 52.7 19.1 52.7 18.05 52.7 17.7 52.0 16.6 51.3 16.6 50.55 16.6 49.85 17.7 49.15 18.05 48.4 19.1 48.4 20.2 48.4 20.9 49.15 M18.05 49.5 Q17.3 50.2 17.3 50.55 17.3 51.3 18.05 52.0 18.05 52.35 19.1 52.35 19.85 52.35 20.2 52.0 20.9 51.3 20.9 50.55 L20.2 49.5 Q19.85 48.75 19.1 48.75 18.05 48.75 18.05 49.5 18.05 48.75 19.1 48.75 19.85 48.75 20.2 49.5 L20.9 50.55 Q20.9 51.3 20.2 52.0 19.85 52.35 19.1 52.35 18.05 52.35 18.05 52.0 17.3 51.3 17.3 50.55 17.3 50.2 18.05 49.5" fill="#000000" fill-rule="evenodd" stroke="none"/>
    <path d="M18.05 49.5 Q18.05 48.75 19.1 48.75 19.85 48.75 20.2 49.5 L20.9 50.55 Q20.9 51.3 20.2 52.0 19.85 52.35 19.1 52.35 18.05 52.35 18.05 52.0 17.3 51.3 17.3 50.55 17.3 50.2 18.05 49.5 Z" fill="none" stroke="#000000" stroke-linecap="round" stroke-linejoin="round" stroke-width="0.25"/>
    <path d="M18.05 50.2 L18.05 49.5 18.4 49.5 19.1 49.5 19.1 50.2 18.4 50.2 18.05 50.2" fill="#ffffff" fill-opacity="0.5921569" fill-rule="evenodd" stroke="none"/>
    <path d="M21.65 62.4 Q21.65 61.7 20.9 61.0 20.2 60.25 19.1 60.25 18.05 60.25 17.7 61.0 16.95 61.7 16.95 62.4 16.95 63.15 17.7 63.85 18.05 64.2 19.1 64.2 L20.9 63.85 Q21.65 63.15 21.65 62.4 M22.35 62.4 Q22.35 63.5 21.65 64.2 20.55 65.65 19.1 65.65 18.05 65.65 16.6 64.2 15.9 63.5 15.9 62.4 15.9 61.0 16.6 59.9 18.05 59.2 19.1 59.2 20.55 59.2 21.65 59.9 22.35 61.0 22.35 62.4" fill="url(#gradient1)" fill-rule="evenodd" stroke="none"/>
    <path d="M21.65 62.4 Q21.65 63.15 20.9 63.85 L19.1 64.2 Q18.05 64.2 17.7 63.85 16.95 63.15 16.95 62.4 16.95 61.7 17.7 61.0 18.05 60.25 19.1 60.25 20.2 60.25 20.9 61.0 21.65 61.7 21.65 62.4 M20.9 62.4 L20.55 61.0 Q20.2 60.6 19.1 60.6 18.05 60.6 18.05 61.0 17.3 61.7 17.3 62.4 17.3 63.15 18.05 63.5 18.05 63.85 19.1 63.85 20.2 63.85 20.55 63.5 20.9 63.15 20.9 62.4 20.9 63.15 20.55 63.5 20.2 63.85 19.1 63.85 18.05 63.85 18.05 63.5 17.3 63.15 17.3 62.4 17.3 61.7 18.05 61.0 18.05 60.6 19.1 60.6 20.2 60.6 20.55 61.0 L20.9 62.4" fill="#000000" fill-rule="evenodd" stroke="none"/>
    <path d="M20.9 62.4 Q20.9 63.15 20.55 63.5 20.2 63.85 19.1 63.85 18.05 63.85 18.05 63.5 17.3 63.15 17.3 62.4 17.3 61.7 18.05 61.0 18.05 60.6 19.1 60.6 20.2 60.6 20.55 61.0 L20.9 62.4 Z" fill="none" stroke="#000000" stroke-linecap="round" stroke-linejoin="round" stroke-width="0.25"/>
    <path d="M18.4 62.8 L19.1 62.8 19.1 63.5 19.1 63.85 18.4 63.85 18.05 63.85 18.05 63.5 18.05 62.8 18.4 62.8" fill="#ffffff" fill-opacity="0.5921569" fill-rule="evenodd" stroke="none"/>
  </g>
  <defs>
    <radialGradient cx="0" cy="0" gradientTransform="matrix(0.0044, 0.0, 0.0, 0.004, 19.1, 50.55)" gradientUnits="userSpaceOnUse" id="gradient0" r="819.2" spreadMethod="pad">
      <stop offset="0.34509803921568627" stop-color="#dbdbdb"/>
      <stop offset="1.0" stop-color="#a3a3a3"/>
    </radialGradient>
    <radialGradient cx="0" cy="0" gradientTransform="matrix(0.0044, 0.0, 0.0, 0.004, 19.1, 62.4)" gradientUnits="userSpaceOnUse" id="gradient1" r="819.2" spreadMethod="pad">
      <stop offset="0.34509803921568627" stop-color="#dbdbdb"/>
      <stop offset="1.0" stop-color="#a3a3a3"/>
    </radialGradient>
  </defs>
</svg>
