<?xml version="1.0" encoding="UTF-8" standalone="no"?>
<svg xmlns:xlink="http://www.w3.org/1999/xlink" height="243.4px" width="186.8px" xmlns="http://www.w3.org/2000/svg">
  <g transform="matrix(1.0, 0.0, 0.0, 1.0, -333.85, 32.8)">
    <path d="M342.85 91.6 L341.7 94.85 341.4 94.6 Q338.85 92.5 339.6 88.5 L339.1 87.25 337.85 84.45 337.6 83.7 333.9 64.0 Q333.7 63.05 334.15 62.15 334.6 61.25 335.45 60.8 L337.3 60.5 357.95 63.6 358.85 63.9 359.4 64.15 Q360.05 63.4 361.05 62.8 L361.1 62.75 361.15 62.7 362.2 61.75 362.35 61.05 Q362.7 60.05 363.55 59.45 L364.15 58.75 Q371.7 52.1 374.45 50.35 378.7 47.0 385.25 44.1 L385.2 44.15 Q388.05 42.8 391.3 41.9 396.6 40.0 402.6 38.4 L402.65 38.4 404.65 37.85 404.95 37.75 409.45 37.0 421.35 -30.3 Q421.55 -31.4 422.4 -32.1 423.2 -32.8 424.3 -32.8 425.4 -32.8 426.25 -32.1 427.05 -31.4 427.25 -30.3 L439.45 37.15 Q455.25 39.6 470.7 47.9 L470.85 48.05 472.75 49.1 473.1 49.3 473.35 49.5 473.7 49.6 474.15 49.8 477.3 51.75 477.45 51.8 487.1 59.0 Q488.95 59.8 489.4 61.1 L490.6 62.1 492.45 62.2 492.6 62.25 494.35 61.6 495.35 61.4 516.0 61.1 Q516.95 61.1 517.8 61.65 518.6 62.2 518.9 63.15 519.2 64.05 518.9 65.0 L513.05 83.75 512.6 84.7 511.4 86.35 513.35 90.8 513.3 90.75 Q518.4 104.35 520.0 115.05 L519.95 115.05 Q521.55 124.75 519.6 135.15 L519.55 135.35 519.0 137.95 518.85 138.55 Q517.0 154.6 507.2 169.8 L507.3 169.6 Q505.4 173.1 502.9 176.25 L502.4 177.1 500.1 179.8 499.95 179.9 499.2 180.85 498.8 181.4 496.65 183.55 496.45 183.7 Q494.45 185.35 492.8 187.35 L491.75 188.15 491.7 188.15 487.85 191.7 483.35 195.15 483.25 195.25 Q478.4 198.9 473.2 201.7 L471.85 202.55 471.7 202.6 469.3 203.7 469.25 203.7 Q468.2 204.35 467.05 204.8 L460.15 207.65 459.5 207.8 Q428.75 211.95 412.35 210.0 393.6 207.8 391.6 197.9 387.95 183.8 392.0 176.85 355.55 147.25 343.75 96.2 L343.6 95.5 343.55 95.5 343.6 95.45 343.35 94.3 343.85 94.75 344.45 93.35 345.7 90.4 345.85 90.5 346.45 90.65 Q347.45 90.7 348.2 91.4 348.95 92.05 349.2 93.0 360.65 144.8 398.0 173.95 398.7 174.45 399.0 175.25 399.25 176.05 399.1 176.9 L398.35 178.35 Q394.1 183.5 397.4 196.4 399.45 202.4 413.05 204.05 428.85 205.85 458.35 201.9 L464.6 199.3 464.95 199.15 466.05 198.65 Q466.25 198.45 466.55 198.4 L466.5 198.4 Q468.55 197.45 469.15 197.2 L469.3 197.15 Q469.6 196.8 470.0 196.6 475.05 193.9 479.75 190.35 L479.85 190.3 483.95 187.15 487.8 183.6 488.85 182.75 492.4 179.3 494.35 177.3 Q495.1 176.2 495.9 175.5 L495.75 175.65 497.25 173.95 Q497.5 173.25 498.1 172.65 L502.05 166.75 502.15 166.55 Q511.85 151.5 513.05 135.6 513.15 134.6 513.75 133.9 515.45 124.65 514.05 116.0 L514.05 115.95 Q512.5 105.75 507.7 92.85 506.75 90.3 505.3 87.75 504.95 87.1 504.9 86.4 504.85 85.7 505.15 85.05 L505.75 83.9 505.95 83.55 507.55 81.4 512.0 67.15 495.95 67.4 494.0 68.1 493.7 68.2 492.75 68.4 492.05 68.5 Q491.35 68.9 490.55 68.95 L490.05 68.95 Q489.1 68.8 488.4 68.15 L484.6 64.85 483.95 64.15 483.7 63.95 474.0 56.7 471.75 55.35 471.3 55.1 470.85 54.95 Q470.2 54.75 469.6 54.2 L467.65 53.1 467.85 53.2 Q452.3 44.8 436.4 42.8 435.3 42.65 434.55 41.85 433.8 41.05 433.75 40.0 L433.65 38.55 424.35 -12.8 414.95 40.2 Q414.8 41.15 414.1 41.85 413.35 42.5 412.4 42.65 L406.15 43.65 404.15 44.2 404.05 44.25 Q398.35 45.75 393.3 47.55 L393.15 47.6 Q390.25 48.4 387.7 49.6 381.9 52.2 378.15 55.1 L377.9 55.25 Q375.9 56.5 370.55 61.1 L370.5 61.85 Q370.25 62.9 369.4 63.6 L365.1 67.25 364.65 67.55 363.7 68.3 363.65 68.4 362.1 69.95 Q361.4 70.6 360.45 70.75 L358.6 70.5 356.6 69.45 340.6 67.05 343.45 82.25 344.55 84.7 344.65 85.0 345.35 86.5 Q345.95 87.4 345.8 88.55 L345.55 89.35 344.75 90.4 Q344.0 91.05 343.05 91.1 L342.85 91.6 341.65 90.3 341.45 90.1 341.65 90.3 342.85 91.6 M345.65 94.65 L346.0 95.0 346.0 94.65 345.65 94.65 344.45 93.35 345.65 94.65 346.0 94.65 346.0 95.0 345.65 94.65 M467.7 204.1 L467.65 204.15 467.85 204.1 467.7 204.1 M467.65 198.15 L467.7 198.1 467.45 198.15 467.65 198.15" fill="#2e442b" fill-rule="evenodd" stroke="none"/>
    <path d="M344.45 93.35 L345.65 94.65 346.0 94.65 346.0 95.0 345.65 94.65 M342.85 91.6 L343.85 92.7 344.45 93.35" fill="none" stroke="#2e442b" stroke-linecap="square" stroke-linejoin="miter" stroke-miterlimit="3.0" stroke-width="8.0"/>
    <path d="M342.85 91.6 L341.65 90.3 341.45 90.1" fill="none" stroke="#2e442b" stroke-linecap="round" stroke-linejoin="miter" stroke-miterlimit="3.0" stroke-width="8.0"/>
    <path d="M367.95 93.8 Q367.95 94.4 367.35 95.05 367.05 95.65 366.1 95.65 365.5 95.65 364.9 95.05 364.6 94.4 364.6 93.8 364.6 92.9 364.9 92.55 365.5 91.95 366.1 91.95 367.05 91.95 367.35 92.55 367.95 92.9 367.95 93.8" fill="#4d4d4d" fill-rule="evenodd" stroke="none"/>
    <path d="M402.45 207.4 L401.85 207.4 401.6 207.25 402.45 207.4" fill="#000000" fill-rule="evenodd" stroke="none"/>
    <path d="M447.4 207.4 L445.55 208.05" fill="none" stroke="#1e291b" stroke-linecap="round" stroke-linejoin="round" stroke-opacity="0.6" stroke-width="0.05"/>
    <path d="M508.35 89.2 Q509.6 91.65 510.5 94.4 516.65 108.6 516.65 125.5 L516.65 125.8 516.35 132.9 516.05 135.35 Q514.8 152.0 504.65 167.7 502.8 171.1 500.35 174.15 500.05 174.45 500.05 174.8 L497.9 177.25 496.65 178.8 494.5 180.95 Q492.35 182.8 490.5 184.95 490.2 184.95 489.9 185.25 L485.9 188.95 481.55 192.3 Q476.65 196.0 471.4 198.8 L470.5 199.4 467.7 200.65 467.65 200.7 465.85 201.55 459.1 204.35 Q398.6 212.6 394.5 196.7 390.65 181.75 396.15 175.85 355.9 144.45 345.1 87.35 L344.6 87.35 344.85 86.9 345.35 85.9 Q347.0 82.8 349.5 79.35 L353.5 74.4 361.5 65.8 Q362.1 65.15 363.05 64.55 370.1 58.1 378.15 53.45 379.65 52.85 380.9 51.95 399.7 41.8 423.05 41.15 L425.85 41.15 426.45 41.15 427.1 41.15 430.75 41.15 442.8 42.4 444.3 42.7 Q468.65 47.0 487.1 63.35 L489.9 65.8 Q494.2 69.5 497.6 73.5 L500.65 77.2 Q504.95 83.05 508.35 89.2" fill="#9dcf27" fill-rule="evenodd" stroke="none"/>
    <path d="M343.65 94.4 L343.65 93.8 343.95 94.4 343.65 94.4 M486.5 62.1 Q505.6 78.1 510.5 91.35 515.45 104.6 517.0 115.05 518.5 124.3 516.65 134.15 L516.05 136.9 516.05 133.85 Q482.8 27.3 369.8 59.95 L365.2 61.5 366.1 60.55 Q373.8 53.8 376.3 52.25 380.3 49.15 386.45 46.4 389.2 45.15 392.3 44.25 397.5 42.4 403.35 40.85 L405.55 40.25 Q414.75 38.4 424.0 38.4 L427.4 38.7 Q448.65 39.0 469.25 50.1 L471.4 51.3 Q471.7 51.65 472.05 51.65 472.35 51.95 472.65 51.95 L475.7 53.8 485.55 61.15 Q486.5 61.5 486.5 62.1" fill="#6a9a3a" fill-rule="evenodd" stroke="none"/>
    <path d="M495.85 133.6 Q495.85 148.1 487.85 159.5 L483.25 164.1 Q480.15 168.1 476.15 170.55 466.0 177.05 453.4 177.05 L450.6 176.7 448.15 176.7 446.6 176.4 Q441.7 175.8 437.35 173.95 L435.2 173.05 Q430.0 170.55 425.35 166.55 L423.2 164.1 419.8 160.4 417.05 156.4 Q410.6 146.25 410.6 133.6 410.6 131.45 410.9 129.6 410.9 126.85 411.8 123.75 413.35 117.0 417.05 111.15 L419.8 106.85 423.2 103.15 428.45 98.5 Q429.65 97.9 430.3 97.3 L434.0 95.15 435.5 94.5 Q436.75 93.9 438.0 93.6 445.05 90.5 453.4 90.5 463.55 90.5 471.55 94.5 474.95 96.05 477.7 98.2 478.0 98.5 478.6 98.5 L483.25 103.15 Q495.85 115.75 495.85 133.6" fill="#6c8d1d" fill-rule="evenodd" stroke="none"/>
    <path d="M435.5 95.45 Q436.45 94.85 437.7 94.5 443.85 91.75 451.55 91.75 460.45 91.75 467.85 95.45 470.95 97.0 473.4 99.15 L474.0 99.45 478.6 104.05 Q489.7 116.4 489.7 133.95 489.7 148.1 482.6 159.15 480.8 161.65 478.6 163.8 475.55 167.5 471.85 169.95 462.9 176.4 451.55 176.4 L449.05 176.1 446.6 176.1 445.35 175.8 Q440.75 175.2 436.75 173.35 435.85 172.7 434.9 172.4 430.3 169.95 426.3 165.95 425.05 165.0 424.15 163.8 L421.05 160.1 418.6 156.1 Q412.75 146.25 412.75 133.95 412.75 131.75 413.05 129.9 413.05 127.15 413.95 124.05 415.2 117.6 418.6 111.75 419.8 109.6 421.05 107.75 L424.15 104.05 428.75 99.45 430.6 98.2 434.0 96.05 435.5 95.45" fill="#87b123" fill-rule="evenodd" stroke="none"/>
    <path d="M481.45 133.05 Q480.65 133.05 480.1 132.5 479.55 131.95 479.55 131.2 479.55 130.4 480.1 129.85 480.65 129.3 481.45 129.3 482.2 129.3 482.75 129.85 483.3 130.4 483.3 131.2 483.3 131.95 482.75 132.5 482.2 133.05 481.45 133.05" fill="#415423" fill-rule="evenodd" stroke="none"/>
    <path d="M473.55 161.0 Q472.75 161.0 472.2 160.45 471.65 159.9 471.65 159.15 471.65 158.35 472.2 157.8 472.75 157.25 473.55 157.25 474.3 157.25 474.85 157.8 475.4 158.35 475.4 159.15 475.4 159.9 474.85 160.45 474.3 161.0 473.55 161.0" fill="#415423" fill-rule="evenodd" stroke="none"/>
    <path d="M452.45 109.6 L455.55 109.6 Q462.0 109.6 467.25 112.7 470.6 114.55 473.4 117.9 481.1 125.9 481.1 137.6 481.1 149.3 473.4 157.65 470.6 160.7 467.25 162.85 463.85 165.0 459.85 165.65 L455.55 165.95 Q444.75 165.95 437.35 157.65 L435.2 155.15 433.65 153.0 Q429.65 146.25 429.65 137.6 429.65 130.85 432.45 125.0 433.65 122.55 435.2 120.4 L437.35 117.9 Q443.85 110.85 452.45 109.6" fill="#668635" fill-rule="evenodd" stroke="none"/>
    <path d="M462.9 147.45 L453.4 138.55 Q453.05 134.85 456.15 134.85 L463.25 141.3 462.9 141.3 462.9 147.45" fill="#6fa439" fill-rule="evenodd" stroke="none"/>
    <path d="M459.55 146.85 Q459.55 144.1 461.05 142.25 462.9 139.8 465.7 139.45 468.45 139.45 470.6 141.3 L471.55 141.95 Q474.0 146.55 471.55 150.85 469.7 153.0 466.9 153.3 464.15 153.3 462.0 151.8 459.85 149.95 459.55 146.85" fill="#6fa439" fill-rule="evenodd" stroke="none"/>
    <path d="M460.0 145.6 Q460.15 147.35 461.55 148.4 462.9 149.5 464.6 149.3 466.3 149.1 467.4 147.75 468.5 146.4 468.3 144.65 468.1 142.9 466.75 141.8 465.4 140.7 463.65 140.9 461.95 141.1 460.85 142.45 459.8 143.8 460.0 145.6" fill="#c8e6b3" fill-rule="evenodd" stroke="none"/>
    <path d="M466.65 144.5 Q466.95 143.25 466.0 142.65 465.1 141.75 464.15 141.4 462.95 141.4 462.3 142.05 461.4 142.65 461.1 143.9 461.1 144.8 461.7 145.75 462.3 146.65 463.55 146.65 464.45 146.95 465.4 146.35 466.65 145.4 466.65 144.5" fill="#f8fbf2" fill-rule="evenodd" stroke="none"/>
    <path d="M470.85 113.8 Q471.6 113.8 472.2 113.2 472.7 112.65 472.7 111.85 472.7 111.1 472.2 110.55 471.6 110.0 470.85 110.0 470.1 110.0 469.55 110.55 468.95 111.1 468.95 111.85 468.95 112.65 469.55 113.2 470.1 113.8 470.85 113.8" fill="#415423" fill-rule="evenodd" stroke="none"/>
    <path d="M429.3 112.05 Q428.55 112.05 427.95 111.45 427.45 110.9 427.45 110.1 427.45 109.35 427.95 108.8 428.55 108.25 429.3 108.25 430.05 108.25 430.6 108.8 431.2 109.35 431.2 110.1 431.2 110.9 430.6 111.45 430.05 112.05 429.3 112.05" fill="#415423" fill-rule="evenodd" stroke="none"/>
    <path d="M420.05 133.05 Q420.85 133.05 421.4 132.5 421.95 131.95 421.95 131.2 421.95 130.4 421.4 129.85 420.85 129.3 420.05 129.3 419.3 129.3 418.75 129.85 418.2 130.4 418.2 131.2 418.2 131.95 418.75 132.5 419.3 133.05 420.05 133.05" fill="#415423" fill-rule="evenodd" stroke="none"/>
    <path d="M424.0 157.55 Q424.8 157.55 425.35 157.0 425.9 156.45 425.9 155.7 425.9 154.9 425.35 154.35 424.8 153.8 424.0 153.8 423.25 153.8 422.7 154.35 422.15 154.9 422.15 155.7 422.15 156.45 422.7 157.0 423.25 157.55 424.0 157.55" fill="#415423" fill-rule="evenodd" stroke="none"/>
    <path d="M407.7 46.1 Q407.7 42.4 412.6 39.95 417.55 37.15 424.3 37.15 431.4 37.15 436.3 39.95 441.25 42.4 441.25 46.1 441.25 49.45 436.3 52.25 431.4 54.7 424.3 54.7 417.55 54.7 412.6 52.25 407.7 49.45 407.7 46.1" fill="#def482" fill-rule="evenodd" stroke="none"/>
    <path d="M407.7 46.1 Q407.7 49.45 412.6 52.25 417.55 54.7 424.3 54.7 431.4 54.7 436.3 52.25 441.25 49.45 441.25 46.1 441.25 42.4 436.3 39.95 431.4 37.15 424.3 37.15 417.55 37.15 412.6 39.95 407.7 42.4 407.7 46.1 Z" fill="none" stroke="#476140" stroke-linecap="round" stroke-linejoin="round" stroke-width="0.1"/>
    <path d="M424.9 49.45 Q416.9 49.45 411.05 47.0 L410.75 46.4 410.75 46.1 424.3 -30.25 424.9 -25.65 424.9 49.45" fill="#cccccc" fill-rule="evenodd" stroke="none"/>
    <path d="M424.9 49.45 L424.9 -25.65 436.6 37.75 437.25 46.1 436.6 47.0 Q431.4 49.45 424.9 49.45" fill="#999999" fill-rule="evenodd" stroke="none"/>
    <path d="M350.1 75.65 Q355.05 71.0 359.95 69.2 364.6 67.0 366.75 68.85 368.9 71.0 367.05 75.65 364.9 80.55 359.95 85.2 355.35 90.1 350.75 91.95 345.8 94.1 343.65 91.95 341.5 90.1 343.65 85.5 345.5 80.55 350.1 75.65" fill="#def482" fill-rule="evenodd" stroke="none"/>
    <path d="M350.1 75.65 Q355.05 71.0 359.95 69.2 364.6 67.0 366.75 68.85 368.9 71.0 367.05 75.65 364.9 80.55 359.95 85.2 355.35 90.1 350.75 91.95 345.8 94.1 343.65 91.95 341.5 90.1 343.65 85.5 345.5 80.55 350.1 75.65 Z" fill="none" stroke="#2e442b" stroke-linecap="round" stroke-linejoin="round" stroke-width="0.1"/>
    <path d="M336.85 63.0 L357.5 66.1 359.95 67.35 Q360.6 67.95 360.9 67.65 363.95 73.5 359.95 81.5 L336.85 63.0" fill="#e1e1e1" fill-rule="evenodd" stroke="none"/>
    <path d="M336.85 63.0 L359.95 81.5 Q351.95 90.4 344.55 89.2 343.05 88.9 341.8 85.5 L340.55 82.7 336.85 63.0" fill="#b3b3b3" fill-rule="evenodd" stroke="none"/>
    <path d="M501.25 74.7 Q505.3 79.95 506.5 84.55 507.75 89.8 505.6 91.65 503.1 93.2 498.8 90.4 493.9 87.95 489.9 82.7 485.55 77.2 484.65 72.25 483.1 67.35 485.55 65.8 487.75 63.95 492.35 66.4 496.95 69.2 501.25 74.7" fill="#def482" fill-rule="evenodd" stroke="none"/>
    <path d="M501.25 74.7 Q496.95 69.2 492.35 66.4 487.75 63.95 485.55 65.8 483.1 67.35 484.65 72.25 485.55 77.2 489.9 82.7 493.9 87.95 498.8 90.4 503.1 93.2 505.6 91.65 507.75 89.8 506.5 84.55 505.3 79.95 501.25 74.7 Z" fill="none" stroke="#2e442b" stroke-linecap="round" stroke-linejoin="round" stroke-width="0.1"/>
    <path d="M491.1 78.4 Q488.05 70.1 491.4 64.55 491.75 65.15 492.95 64.85 L495.4 63.95 516.05 63.65 491.1 78.4" fill="#e1e1e1" fill-rule="evenodd" stroke="none"/>
    <path d="M491.1 78.4 L516.05 63.65 510.2 82.4 508.35 84.9 Q506.8 87.95 505.3 88.25 497.9 88.9 491.1 78.4" fill="#b3b3b3" fill-rule="evenodd" stroke="none"/>
    <path d="M488.4 145.45 Q489.5 144.8 491.3 144.05 493.85 143.0 495.2 141.85 493.45 151.05 488.0 158.8 L483.4 163.4 482.5 164.55 Q479.7 167.75 476.3 169.85 466.15 176.35 453.55 176.35 L450.75 176.0 448.3 176.0 446.75 175.7 Q441.85 175.1 437.5 173.25 L435.35 172.35 Q430.15 169.85 425.5 165.85 L424.15 164.25 423.35 163.4 419.95 159.7 417.2 155.7 Q412.9 148.9 411.45 141.0 L413.9 142.95 Q419.9 147.7 425.4 150.45 431.35 153.45 435.8 155.05 L440.8 156.45 452.7 157.2 Q460.45 157.2 470.9 154.15 L477.3 152.0 Q483.95 149.35 487.4 146.15 L488.4 145.45" fill="#495f24" fill-opacity="0.49803922" fill-rule="evenodd" stroke="none"/>
  </g>
</svg>
