<?xml version="1.0" encoding="UTF-8" standalone="no"?>
<svg xmlns:xlink="http://www.w3.org/1999/xlink" height="160.1px" width="116.4px" xmlns="http://www.w3.org/2000/svg">
  <g transform="matrix(1.0, 0.0, 0.0, 1.0, 0.0, 0.0)">
    <path d="M69.8 43.6 Q63.9 39.55 54.1 38.45 49.2 37.9 47.5 41.3 46.65 42.95 46.8 44.75 L46.85 83.6 Q46.9 87.1 51.55 87.1 L53.15 86.95 Q67.4 84.55 73.75 79.1 80.3 73.55 80.0 63.6 79.55 50.15 69.8 43.6 M98.25 14.4 Q106.7 20.9 111.4 32.35 115.9 43.4 116.35 57.75 117.2 84.1 96.8 100.75 87.85 108.05 77.4 112.65 65.9 117.7 53.75 118.95 L52.05 119.55 Q50.35 120.75 50.2 123.7 L50.6 155.6 8.5 160.1 0.0 0.35 3.35 0.3 Q12.0 0.0 19.9 0.0 L51.7 1.4 Q67.85 2.95 78.9 5.9 91.4 9.15 98.25 14.4" fill="#ff0000" fill-rule="evenodd" stroke="none"/>
  </g>
</svg>
