<?xml version="1.0" encoding="UTF-8" standalone="no"?>
<svg xmlns:xlink="http://www.w3.org/1999/xlink" height="87.6px" width="85.85px" xmlns="http://www.w3.org/2000/svg">
  <g transform="matrix(1.0, 0.0, 0.0, 1.0, -6.0, -13.3)">
    <path d="M87.75 84.1 L88.85 91.35 Q71.35 99.75 51.3 96.85 L49.1 87.35 46.9 97.2 Q26.9 100.1 9.0 91.35 9.0 88.8 9.75 85.55 10.1 83.35 11.2 81.15 12.65 75.35 15.2 68.4 L17.05 61.85 22.85 16.3 76.1 16.3 81.9 68.05 Q85.55 74.95 87.75 84.1" fill="#e92d6b" fill-rule="evenodd" stroke="none"/>
    <path d="M87.75 84.1 Q85.55 74.95 81.9 68.05 L76.1 16.3 22.85 16.3 17.05 61.85 15.2 68.4 Q12.65 75.35 11.2 81.15 10.1 83.35 9.75 85.55 9.0 88.8 9.0 91.35 26.9 100.1 46.9 97.2 L49.1 87.35 51.3 96.85 Q71.35 99.75 88.85 91.35 L87.75 84.1 Z" fill="none" stroke="#830645" stroke-linecap="round" stroke-linejoin="round" stroke-width="6.0"/>
    <path d="M72.05 16.65 L76.1 16.65 80.8 60.4 80.8 64.75 Q77.55 65.85 73.9 66.2 L71.35 66.95 Q76.1 56.0 72.05 16.65 M25.4 66.95 L22.15 66.2 16.65 65.5 22.85 16.65 26.9 16.65 Q20.7 58.2 25.4 66.95" fill="#e72a68" fill-rule="evenodd" stroke="none"/>
    <path d="M72.05 16.65 Q76.1 56.0 71.35 66.95 60.4 68.75 49.1 68.75 L31.6 68.05 29.05 67.65 26.5 66.95 25.4 66.95 Q20.7 58.2 26.9 16.65 L72.05 16.65" fill="#f84982" fill-rule="evenodd" stroke="none"/>
    <path d="M81.2 68.4 L79.75 69.15 Q65.5 73.85 48.75 73.85 38.55 73.85 28.7 72.4 L23.6 71.3 18.85 70.2 17.05 69.15 15.2 68.75 17.05 60.4 Q25.4 64.4 33.05 64.75 L54.6 65.5 Q69.15 64.75 80.8 60.4 L81.9 68.4 81.2 68.4" fill="#9a0742" fill-rule="evenodd" stroke="none"/>
    <path d="M50.2 91.7 Q51.65 96.45 59.7 95.75 72.45 95.35 79.0 93.55 85.55 91.35 86.3 89.9 87.0 87.7 87.0 85.5 87.0 82.6 81.2 68.4 L81.9 68.4 Q85.55 75.3 87.75 84.45 L88.85 91.7 Q71.35 100.1 51.3 97.2 L50.2 91.7 M17.05 69.15 Q13.05 76.4 11.2 87.0 11.2 88.8 12.65 89.9 19.95 93.9 34.9 95.75 46.2 96.45 48.4 91.0 L46.9 97.55 Q26.9 100.45 9.0 91.7 9.0 89.15 9.75 85.9 10.1 83.7 11.2 81.5 12.65 75.7 15.2 68.75 L17.05 69.15" fill="#db947b" fill-rule="evenodd" stroke="none"/>
    <path d="M81.2 68.4 Q87.0 82.6 87.0 85.5 87.0 87.7 86.3 89.9 85.55 91.35 79.0 93.55 72.45 95.35 59.7 95.75 51.65 96.45 50.2 91.7 L49.1 87.7 48.4 91.0 Q46.2 96.45 34.9 95.75 19.95 93.9 12.65 89.9 11.2 88.8 11.2 87.0 13.05 76.4 17.05 69.15 L18.85 70.2 Q18.15 71.7 17.05 76.8 15.2 84.8 15.2 85.9 15.2 87.35 15.6 87.7 15.95 88.05 17.05 88.05 18.85 88.05 20.3 85.15 L20.7 85.15 Q20.3 89.55 26.5 91.0 30.15 92.1 37.1 92.1 40.35 92.1 42.55 91.0 44.75 89.9 45.1 87.0 45.45 83.7 44.75 82.95 44.35 81.9 42.55 81.15 L42.55 80.8 45.1 80.4 56.4 80.4 Q52.75 81.9 52.75 82.6 52.4 84.05 52.4 87.0 52.75 89.9 55.65 90.6 58.6 91.7 64.05 91.7 69.5 91.7 72.45 90.25 75.35 89.15 75.35 81.9 L77.55 87.7 Q77.9 89.55 80.45 88.45 L82.3 87.7 Q84.1 86.6 83.35 83.35 L79.75 69.15 81.2 68.4" fill="#f0b6a1" fill-rule="evenodd" stroke="none"/>
    <path d="M79.75 69.15 L83.35 83.35 Q84.1 86.6 82.3 87.7 L80.45 88.45 Q77.9 89.55 77.55 87.7 L75.35 81.9 Q75.35 89.15 72.45 90.25 69.5 91.7 64.05 91.7 58.6 91.7 55.65 90.6 52.75 89.9 52.4 87.0 52.4 84.05 52.75 82.6 52.75 81.9 56.4 80.4 L45.1 80.4 42.55 80.8 42.55 81.15 Q44.35 81.9 44.75 82.95 45.45 83.7 45.1 87.0 44.75 89.9 42.55 91.0 40.35 92.1 37.1 92.1 30.15 92.1 26.5 91.0 20.3 89.55 20.7 85.15 L20.3 85.15 Q18.85 88.05 17.05 88.05 15.95 88.05 15.6 87.7 15.2 87.35 15.2 85.9 15.2 84.8 17.05 76.8 18.15 71.7 18.85 70.2 L23.6 71.3 28.7 72.4 Q38.55 73.85 48.75 73.85 65.5 73.85 79.75 69.15 M36.35 81.15 L33.8 78.95 Q32.7 78.25 30.5 78.25 29.05 78.25 28.7 79.35 27.95 80.05 27.95 81.15 L27.95 83.7 27.95 84.45 Q28.35 87.7 30.15 88.05 32.35 88.8 34.55 89.15 L37.1 89.9 Q38.2 89.55 38.9 88.45 40.0 87.7 40.0 86.25 40.0 84.05 38.55 83.35 L36.35 81.15 M57.85 84.05 Q56.75 86.25 56.75 87.35 56.75 88.45 58.2 89.15 L60.8 89.15 Q63.7 89.15 65.5 85.9 67.35 83.35 67.35 80.05 67.35 78.95 66.95 78.6 66.6 78.25 65.5 78.25 65.15 78.25 63.35 78.95 60.8 79.7 59.7 80.8 58.2 81.9 58.6 81.9 L58.6 82.25 Q58.2 82.95 58.2 83.7 57.85 83.7 57.85 84.05" fill="#facebe" fill-rule="evenodd" stroke="none"/>
    <path d="M57.85 84.05 Q57.85 83.7 58.2 83.7 58.2 82.95 58.6 82.25 L58.6 81.9 Q58.2 81.9 59.7 80.8 60.8 79.7 63.35 78.95 65.15 78.25 65.5 78.25 66.6 78.25 66.95 78.6 67.35 78.95 67.35 80.05 67.35 83.35 65.5 85.9 63.7 89.15 60.8 89.15 L58.2 89.15 Q56.75 88.45 56.75 87.35 56.75 86.25 57.85 84.05 M36.35 81.15 L38.55 83.35 Q40.0 84.05 40.0 86.25 40.0 87.7 38.9 88.45 38.2 89.55 37.1 89.9 L34.55 89.15 Q32.35 88.8 30.15 88.05 28.35 87.7 27.95 84.45 L27.95 83.7 27.95 81.15 Q27.95 80.05 28.7 79.35 29.05 78.25 30.5 78.25 32.7 78.25 33.8 78.95 L36.35 81.15" fill="#fae2da" fill-rule="evenodd" stroke="none"/>
    <path d="M66.9 63.95 L69.1 71.35 Q71.2 73.3 72.9 70.75 L70.6 63.45 Q68.25 61.3 66.9 63.95 M65.35 63.25 Q66.9 59.4 71.15 61.2 L74.25 71.25 Q72.05 75.65 68.35 73.3 L65.35 63.25 M30.8 62.95 L29.05 73.3 Q24.9 75.45 23.0 71.7 L24.95 61.35 Q28.85 58.95 30.8 62.95 M29.35 64.4 Q28.25 61.45 25.8 63.1 L24.35 70.75 Q25.4 73.45 28.1 71.95 L29.35 64.4" fill="#d9673f" fill-rule="evenodd" stroke="none"/>
    <path d="M66.9 63.95 Q68.25 61.3 70.6 63.45 L72.9 70.75 Q71.2 73.3 69.1 71.35 L66.9 63.95 M29.35 64.4 L28.1 71.95 Q25.4 73.45 24.35 70.75 L25.8 63.1 Q28.25 61.45 29.35 64.4" fill="#f59370" fill-rule="evenodd" stroke="none"/>
    <path d="M50.75 23.45 Q50.75 25.65 52.3 27.15 53.9 28.7 56.0 28.7 58.25 28.7 59.8 27.15 61.35 25.65 61.35 23.45 61.35 21.25 59.8 19.7 58.25 18.15 56.0 18.15 53.9 18.15 52.3 19.7 50.75 21.25 50.75 23.45" fill="#ffd7e3" fill-rule="evenodd" stroke="none"/>
    <path d="M61.75 32.55 Q61.75 30.25 60.1 28.65 58.5 27.05 56.2 27.05 53.95 27.05 52.35 28.65 50.7 30.25 50.7 32.55 50.7 34.8 52.35 36.4 53.95 38.0 56.2 38.0 58.5 38.0 60.1 36.4 61.75 34.8 61.75 32.55" fill="#ffd7e3" fill-rule="evenodd" stroke="none"/>
    <path d="M61.75 41.85 Q61.75 39.45 60.05 37.75 58.35 36.1 55.95 36.1 53.55 36.1 51.85 37.75 50.15 39.45 50.15 41.85 50.15 44.25 51.85 45.9 53.55 47.6 55.95 47.6 58.35 47.6 60.05 45.9 61.75 44.25 61.75 41.85" fill="#ffd7e3" fill-rule="evenodd" stroke="none"/>
    <path d="M61.95 53.35 Q62.0 51.0 60.4 49.25 58.8 47.6 56.4 47.55 54.1 47.5 52.35 49.05 50.65 50.7 50.6 53.05 50.55 55.4 52.15 57.05 53.8 58.75 56.1 58.8 58.5 58.85 60.2 57.25 61.9 55.7 61.95 53.35" fill="#ffd7e3" fill-rule="evenodd" stroke="none"/>
    <path d="M53.25 59.15 Q53.25 56.7 51.5 54.95 49.8 53.3 47.3 53.3 44.85 53.3 43.15 54.95 41.4 56.7 41.4 59.15 41.4 61.65 43.15 63.35 44.85 65.05 47.3 65.05 49.8 65.05 51.5 63.35 53.25 61.65 53.25 59.15" fill="#ffd7e3" fill-rule="evenodd" stroke="none"/>
    <path d="M44.7 23.5 Q44.7 25.85 43.05 27.45 41.35 29.05 39.1 29.05 36.75 29.05 35.0 27.45 33.4 25.85 33.4 23.5 33.4 21.15 35.0 19.45 36.75 17.85 39.1 17.85 41.35 17.85 43.05 19.45 44.7 21.15 44.7 23.5" fill="#ffd7e3" fill-rule="evenodd" stroke="none"/>
    <path d="M33.75 32.05 Q33.75 29.6 35.5 27.9 37.2 26.2 39.65 26.2 42.05 26.2 43.75 27.9 45.5 29.6 45.5 32.05 45.5 34.45 43.75 36.15 42.05 37.85 39.65 37.85 37.2 37.85 35.5 36.15 33.75 34.45 33.75 32.05" fill="#ffd7e3" fill-rule="evenodd" stroke="none"/>
    <path d="M33.75 42.2 Q33.75 39.8 35.45 38.1 37.15 36.45 39.55 36.45 41.95 36.45 43.6 38.1 45.3 39.8 45.3 42.2 45.3 44.55 43.6 46.2 41.95 47.9 39.55 47.9 37.15 47.9 35.45 46.2 33.75 44.55 33.75 42.2" fill="#ffd7e3" fill-rule="evenodd" stroke="none"/>
    <path d="M33.95 52.75 Q33.95 50.45 35.65 48.75 37.3 47.15 39.65 47.15 42.0 47.15 43.65 48.75 45.3 50.45 45.3 52.75 45.3 55.1 43.65 56.75 42.0 58.4 39.65 58.4 37.3 58.4 35.65 56.75 33.95 55.1 33.95 52.75" fill="#ffd7e3" fill-rule="evenodd" stroke="none"/>
    <path d="M42.4 27.3 Q42.4 24.05 44.25 21.8 46.05 19.5 48.65 19.5 51.2 19.5 53.0 21.8 54.75 24.05 54.75 27.3 L54.75 49.45 54.75 49.75 Q54.75 52.85 53.0 55.2 51.2 57.5 48.65 57.5 46.05 57.5 44.25 55.2 42.4 52.85 42.4 49.75 L42.4 27.3" fill="#fabedb" fill-rule="evenodd" stroke="none"/>
    <path d="M42.4 27.3 L42.4 49.75 Q42.4 52.85 44.25 55.2 46.05 57.5 48.65 57.5 51.2 57.5 53.0 55.2 54.75 52.85 54.75 49.75 L54.75 49.45 54.75 27.3 Q54.75 24.05 53.0 21.8 51.2 19.5 48.65 19.5 46.05 19.5 44.25 21.8 42.4 24.05 42.4 27.3 M40.45 26.25 Q40.45 22.7 42.85 20.1 45.2 17.55 48.55 17.55 L48.65 17.55 Q51.95 17.55 54.3 20.1 56.6 22.7 56.6 26.25 L56.6 51.05 Q56.6 54.55 54.3 57.05 51.95 59.6 48.65 59.6 L48.55 59.6 Q45.2 59.6 42.85 57.05 40.45 54.55 40.45 51.05 L40.45 26.25" fill="#f84982" fill-rule="evenodd" stroke="none"/>
    <path d="M50.95 32.25 Q52.0 33.35 52.0 34.85 52.0 36.4 50.95 37.45 49.85 38.5 48.35 38.5 46.85 38.5 45.75 37.45 44.7 36.4 44.7 34.85 44.7 33.35 45.75 32.25 46.85 31.2 48.35 31.2 49.85 31.2 50.95 32.25" fill="#e94d7c" fill-rule="evenodd" stroke="none"/>
    <path d="M50.95 40.15 Q52.0 41.25 52.0 42.75 52.0 44.3 50.95 45.35 49.85 46.4 48.35 46.4 46.85 46.4 45.75 45.35 44.7 44.3 44.7 42.75 44.7 41.25 45.75 40.15 46.85 39.1 48.35 39.1 49.85 39.1 50.95 40.15" fill="#e94d7c" fill-rule="evenodd" stroke="none"/>
    <path d="M50.95 22.95 Q52.0 24.05 52.0 25.55 52.0 27.1 50.95 28.15 49.85 29.2 48.35 29.2 46.85 29.2 45.75 28.15 44.7 27.1 44.7 25.55 44.7 24.05 45.75 22.95 46.85 21.9 48.35 21.9 49.85 21.9 50.95 22.95" fill="#e94d7c" fill-rule="evenodd" stroke="none"/>
    <path d="M50.95 49.15 Q52.0 50.25 52.0 51.75 52.0 53.3 50.95 54.35 49.85 55.4 48.35 55.4 46.85 55.4 45.75 54.35 44.7 53.3 44.7 51.75 44.7 50.25 45.75 49.15 46.85 48.1 48.35 48.1 49.85 48.1 50.95 49.15" fill="#e94d7c" fill-rule="evenodd" stroke="none"/>
  </g>
</svg>
