<?xml version="1.0" encoding="UTF-8" standalone="no"?>
<svg xmlns:xlink="http://www.w3.org/1999/xlink" height="93.1px" width="100.4px" xmlns="http://www.w3.org/2000/svg">
  <g transform="matrix(1.0, 0.0, 0.0, 1.0, 1.0, -7.85)">
    <path d="M86.75 57.85 L87.1 58.2 87.5 59.3 90.4 62.95 Q91.15 63.7 89.65 64.4 88.95 65.5 87.85 65.85 L87.85 66.25 91.15 69.85 93.3 73.15 Q94.75 73.9 94.4 74.25 L95.15 74.6 Q95.15 75.35 96.25 76.8 96.95 78.25 94.4 80.05 91.85 81.9 90.4 82.25 90.4 81.55 88.95 80.05 L87.1 81.15 86.4 81.55 87.1 84.45 Q87.1 85.9 80.55 89.55 74.0 92.45 73.65 91.75 L71.8 89.2 70.35 89.55 69.25 89.9 69.25 92.45 Q69.25 93.55 62.35 95.75 55.4 97.55 53.95 96.85 53.6 96.45 53.2 93.9 L49.95 94.3 47.4 93.9 47.4 95.0 46.65 97.95 Q36.1 96.45 30.25 94.3 30.25 93.55 31.0 91.0 28.45 90.25 28.45 89.9 28.05 89.55 27.35 89.55 26.25 91.35 26.25 93.2 L25.9 93.2 Q23.35 93.2 18.95 91.35 14.6 88.8 12.05 86.25 L13.5 83.0 Q10.95 81.9 9.5 80.45 8.4 81.9 7.3 82.6 5.85 82.25 3.65 80.45 1.45 78.6 2.2 77.15 2.9 75.7 4.0 74.95 5.1 73.5 6.55 72.05 L8.75 69.15 10.55 66.6 Q10.2 66.25 9.5 65.85 L8.75 64.75 Q8.0 64.05 8.4 63.7 L10.2 60.75 Q11.3 58.6 12.4 57.5 12.75 57.5 12.75 57.1 L14.6 54.2 17.5 50.2 Q18.25 49.45 18.6 48.35 L22.6 19.6 24.05 10.85 62.35 10.85 75.1 10.85 76.2 19.25 80.55 48.75 80.55 49.1 82.0 51.3 84.55 54.95 Q85.3 56.4 86.75 57.85 M88.95 80.05 L88.6 79.7 88.6 80.05 88.95 80.05" fill="#d23d7d" fill-rule="evenodd" stroke="none"/>
    <path d="M86.75 57.85 L87.1 58.2 87.5 59.3 90.4 62.95 Q91.15 63.7 89.65 64.4 88.95 65.5 87.85 65.85 L87.85 66.25 91.15 69.85 93.3 73.15 Q94.75 73.9 94.4 74.25 L95.15 74.6 Q95.15 75.35 96.25 76.8 96.95 78.25 94.4 80.05 91.85 81.9 90.4 82.25 90.4 81.55 88.95 80.05 L87.1 81.15 86.4 81.55 87.1 84.45 Q87.1 85.9 80.55 89.55 74.0 92.45 73.65 91.75 L71.8 89.2 70.35 89.55 69.25 89.9 69.25 92.45 Q69.25 93.55 62.35 95.75 55.4 97.55 53.95 96.85 53.6 96.45 53.2 93.9 L49.95 94.3 47.4 93.9 47.4 95.0 46.65 97.95 Q36.1 96.45 30.25 94.3 30.25 93.55 31.0 91.0 28.45 90.25 28.45 89.9 28.05 89.55 27.35 89.55 26.25 91.35 26.25 93.2 L25.9 93.2 Q23.35 93.2 18.95 91.35 14.6 88.8 12.05 86.25 L13.5 83.0 Q10.95 81.9 9.5 80.45 8.4 81.9 7.3 82.6 5.85 82.25 3.65 80.45 1.45 78.6 2.2 77.15 2.9 75.7 4.0 74.95 5.1 73.5 6.55 72.05 L8.75 69.15 10.55 66.6 Q10.2 66.25 9.5 65.85 L8.75 64.75 Q8.0 64.05 8.4 63.7 L10.2 60.75 Q11.3 58.6 12.4 57.5 12.75 57.5 12.75 57.1 L14.6 54.2 17.5 50.2 Q18.25 49.45 18.6 48.35 L22.6 19.6 24.05 10.85 62.35 10.85 75.1 10.85 76.2 19.25 80.55 48.75 80.55 49.1 82.0 51.3 84.55 54.95 Q85.3 56.4 86.75 57.85 M88.95 80.05 L88.6 80.05 88.6 79.7 88.95 80.05" fill="none" stroke="#830645" stroke-linecap="round" stroke-linejoin="round" stroke-width="6.0"/>
    <path d="M90.75 70.25 L88.2 72.8 85.65 74.65 84.55 75.75 81.3 72.1 83.5 76.1 Q79.45 79.0 74.75 81.2 73.25 81.95 71.8 82.3 L69.6 83.0 66.35 77.55 Q67.05 81.55 67.8 83.75 60.5 85.95 52.85 86.3 L52.5 86.3 50.65 80.1 Q49.95 77.9 49.95 76.1 L48.1 86.65 47.75 86.65 46.65 86.65 43.75 86.65 32.45 84.5 33.15 79.4 33.9 73.55 Q32.45 76.1 32.1 77.55 31.35 79.4 31.35 79.75 30.6 80.45 29.9 83.75 L27.7 82.65 Q25.15 81.55 22.6 80.1 L16.4 76.45 18.6 71.0 19.3 69.2 Q18.6 69.9 18.25 70.65 L14.6 75.0 14.6 74.65 Q12.75 73.55 11.3 72.1 L8.75 69.55 12.05 65.9 Q12.75 64.45 14.2 62.6 L17.15 64.1 Q20.4 65.15 27.35 66.25 33.9 67.7 41.9 68.1 L57.6 68.1 71.45 66.65 Q78.0 65.55 79.45 64.8 L85.3 63.0 87.5 66.65 90.75 70.25" fill="#fab7cd" fill-rule="evenodd" stroke="none"/>
    <path d="M8.75 69.55 L11.3 72.1 Q12.75 73.55 14.6 74.65 L14.6 75.0 18.25 70.65 Q18.6 69.9 19.3 69.2 L18.6 71.0 16.4 76.45 22.6 80.1 Q25.15 81.55 27.7 82.65 L29.9 83.75 Q30.6 80.45 31.35 79.75 31.35 79.4 32.1 77.55 32.45 76.1 33.9 73.55 L33.15 79.4 32.45 84.5 43.75 86.65 46.65 86.65 47.75 86.65 48.1 86.65 49.95 76.1 Q49.95 77.9 50.65 80.1 L52.5 86.3 52.85 86.3 Q60.5 85.95 67.8 83.75 67.05 81.55 66.35 77.55 L69.6 83.0 71.8 82.3 Q73.25 81.95 74.75 81.2 79.45 79.0 83.5 76.1 L81.3 72.1 84.55 75.75 85.65 74.65 88.2 72.8 90.75 70.25 93.3 73.55 Q94.75 74.3 94.4 74.65 L95.15 75.0 Q95.15 75.75 96.25 77.2 96.95 78.65 94.4 80.45 91.85 82.3 90.4 82.65 L88.95 80.45 88.6 80.1 88.2 80.1 84.55 75.75 83.5 76.1 84.55 77.9 85.65 81.2 86.4 81.95 Q86.4 83.4 87.1 84.85 87.1 86.3 80.55 89.95 73.65 92.85 73.65 92.15 L71.8 89.6 71.8 88.85 Q71.45 88.1 71.45 87.75 71.1 85.95 69.6 83.0 L68.9 83.75 67.8 83.75 67.8 84.5 Q68.9 87.4 68.9 89.95 L69.25 90.3 69.25 92.85 Q69.25 93.95 62.35 96.15 55.4 97.95 53.95 97.25 53.6 96.85 53.2 94.3 53.6 94.3 53.2 93.6 L52.85 91.05 52.5 86.3 48.1 86.65 47.4 94.3 47.4 95.4 46.65 98.35 Q36.1 96.85 30.25 94.7 30.25 93.95 31.0 91.4 L31.0 91.05 Q31.0 90.65 31.35 90.65 L31.35 90.3 32.45 84.5 31.35 83.75 29.9 83.75 27.7 88.85 Q27.35 89.6 27.35 89.95 26.25 91.75 26.25 93.6 L25.9 93.6 Q23.35 93.6 18.95 91.75 14.6 89.2 12.05 86.65 L13.15 83.4 14.6 81.2 Q14.6 80.85 14.95 80.1 L16.4 76.45 14.6 75.0 Q12.75 76.85 11.65 78.3 L9.1 80.85 Q8.4 82.3 7.3 83.0 5.45 82.65 3.65 80.85 1.45 79.0 2.2 77.55 2.9 76.1 4.0 75.35 4.75 73.9 6.55 72.45 L8.75 69.55" fill="#f56e9b" fill-rule="evenodd" stroke="none"/>
    <path d="M9.1 80.85 L11.65 78.3 Q12.75 76.85 14.6 75.0 L16.4 76.45 14.95 80.1 Q14.6 80.85 14.6 81.2 L13.15 83.4 Q10.95 82.3 9.1 80.85 M27.35 89.95 Q27.35 89.6 27.7 88.85 L29.9 83.75 31.35 83.75 32.45 84.5 31.35 90.3 31.35 90.65 Q31.0 90.65 31.0 91.05 L31.0 91.4 Q28.45 90.65 28.45 90.3 28.05 89.95 27.35 89.95 M47.4 94.3 L48.1 86.65 52.5 86.3 52.85 91.05 53.2 93.6 Q53.6 94.3 53.2 94.3 L49.95 94.7 47.4 94.3 M69.25 90.3 L68.9 89.95 Q68.9 87.4 67.8 84.5 L67.8 83.75 68.9 83.75 69.6 83.0 Q71.1 85.95 71.45 87.75 71.45 88.1 71.8 88.85 L71.8 89.6 70.35 89.95 69.25 90.3 M86.4 81.95 L85.65 81.2 84.55 77.9 83.5 76.1 84.55 75.75 88.2 80.1 88.6 80.1 88.6 80.45 88.95 80.45 87.1 81.55 86.4 81.95" fill="#cb3676" fill-rule="evenodd" stroke="none"/>
    <path d="M22.6 20.0 L24.05 11.25 75.1 11.25 76.2 19.65 Q50.65 31.65 22.6 20.0" fill="#a2a2a2" fill-rule="evenodd" stroke="none"/>
    <path d="M76.2 19.65 L80.55 49.15 80.55 50.6 Q50.3 57.9 18.6 50.6 L18.6 49.15 22.6 20.0 Q50.65 31.65 76.2 19.65" fill="#c8c8c8" fill-rule="evenodd" stroke="none"/>
    <path d="M12.4 57.9 Q15.7 60.05 18.6 61.15 18.95 60.45 19.7 60.05 L22.6 55.7 Q22.95 54.95 24.05 54.25 23.7 55.35 22.95 56.05 22.6 59.0 21.5 61.55 L20.8 62.25 24.45 63.7 Q28.8 65.55 33.15 66.65 33.55 65.15 33.9 64.45 L34.25 62.25 36.1 58.25 35.75 63.0 Q35.35 65.15 35.35 67.35 41.9 68.8 48.5 68.8 L49.6 61.15 50.3 64.8 Q51.05 67.0 51.4 69.2 L64.5 67.7 63.8 62.25 Q65.25 64.8 66.0 67.0 69.6 66.25 72.9 65.15 75.8 64.1 79.1 62.25 L78.35 61.15 Q77.65 60.05 76.55 57.15 L80.2 61.9 Q83.5 60.45 86.75 58.25 L87.1 58.6 87.5 59.7 90.4 63.35 Q91.15 64.1 89.65 64.8 88.95 65.9 87.85 66.25 L86.05 68.1 Q85.3 68.8 84.95 68.1 84.2 67.7 84.2 67.35 L83.5 65.9 80.2 61.9 79.1 62.25 Q79.1 62.6 79.45 63.0 L80.55 66.25 80.9 67.0 80.9 67.35 80.9 68.8 80.9 69.55 Q80.9 70.25 75.1 73.55 72.9 74.65 71.45 75.75 69.6 76.45 69.6 76.85 L69.25 76.1 68.55 73.9 68.15 73.2 68.15 72.45 Q67.8 70.65 66.35 68.1 L66.0 67.0 64.5 67.7 64.9 68.8 65.6 70.65 65.6 72.8 Q66.0 73.9 66.0 74.65 L66.7 77.2 66.35 77.9 66.0 77.9 65.25 77.9 Q64.9 77.9 64.9 78.3 L63.8 78.3 Q57.95 80.1 52.5 80.1 L52.5 79.4 52.5 77.9 52.5 77.2 Q52.5 76.1 52.15 75.35 51.75 73.2 51.75 71.75 51.75 70.25 51.4 69.2 L48.5 68.8 48.1 76.85 48.1 77.2 48.1 77.9 Q47.75 78.65 47.75 79.4 L47.75 80.1 47.05 80.1 Q40.85 79.75 34.25 77.9 L33.55 77.9 33.55 77.2 Q33.55 76.85 33.9 76.45 L33.9 75.75 33.9 75.35 34.25 75.0 35.0 69.55 Q35.0 68.45 35.35 67.35 L33.15 66.65 33.15 67.0 Q32.1 68.45 32.1 69.9 L31.35 72.1 30.6 73.9 30.25 75.0 30.25 76.1 Q29.9 76.45 29.9 77.2 29.9 76.85 29.55 76.85 L29.15 76.85 Q26.25 76.1 23.35 74.65 21.85 73.9 20.4 73.55 L20.05 73.2 18.6 72.45 17.15 71.0 18.25 69.55 Q18.25 68.8 18.6 68.45 18.6 68.1 18.95 67.7 L19.7 66.25 Q19.7 65.9 20.05 65.15 L20.8 62.25 18.6 61.15 16.75 63.7 Q15.7 64.8 15.3 65.9 L14.6 66.65 14.2 67.7 13.15 68.45 Q12.75 68.1 12.05 68.1 11.3 67.7 10.55 67.0 9.85 66.65 9.5 66.25 8.75 65.9 8.4 65.15 8.0 64.45 8.4 64.1 8.4 63.7 9.85 61.15 11.3 59.0 12.4 57.9" fill="#f56e9b" fill-rule="evenodd" stroke="none"/>
    <path d="M12.4 57.9 L12.75 57.5 14.6 54.6 17.5 50.6 19.3 47.7 21.85 48.75 Q24.8 50.25 30.25 51.3 L43.0 52.8 56.15 53.15 67.8 51.7 75.1 50.25 Q76.2 49.5 79.45 48.4 L82.0 51.7 84.55 55.35 Q85.3 56.8 86.75 58.25 83.5 60.45 80.2 61.9 L76.55 57.15 Q77.65 60.05 78.35 61.15 L79.1 62.25 Q75.8 64.1 72.9 65.15 69.6 66.25 66.0 67.0 65.25 64.8 63.8 62.25 L64.5 67.7 51.4 69.2 Q51.05 67.0 50.3 64.8 L49.6 61.15 48.5 68.8 Q41.9 68.8 35.35 67.35 35.35 65.15 35.75 63.0 L36.1 58.25 34.25 62.25 33.9 64.45 Q33.55 65.15 33.15 66.65 28.8 65.55 24.45 63.7 L20.8 62.25 21.5 61.55 Q22.6 59.0 22.95 56.05 23.7 55.35 24.05 54.25 22.95 54.95 22.6 55.7 L19.7 60.05 Q18.95 60.45 18.6 61.15 15.7 60.05 12.4 57.9" fill="#fab7cd" fill-rule="evenodd" stroke="none"/>
    <path d="M83.5 65.9 Q82.0 66.25 80.9 67.0 L80.55 66.25 79.45 63.0 Q79.1 62.6 79.1 62.25 L80.2 61.9 83.5 65.9 M68.55 73.9 Q67.8 73.9 67.45 74.65 L67.05 74.65 Q66.35 75.0 66.0 74.65 66.0 73.9 65.6 72.8 L65.6 70.65 64.9 68.8 64.5 67.7 66.0 67.0 66.35 68.1 Q67.8 70.65 68.15 72.45 L68.15 73.2 68.55 73.9 M52.5 77.2 L50.65 77.2 48.1 76.85 48.5 68.8 51.4 69.2 Q51.75 70.25 51.75 71.75 51.75 73.2 52.15 75.35 52.5 76.1 52.5 77.2 M34.25 75.0 L33.55 75.0 33.55 74.65 32.8 74.65 32.45 74.65 30.6 73.9 31.35 72.1 32.1 69.9 Q32.1 68.45 33.15 67.0 L33.15 66.65 35.35 67.35 Q35.0 68.45 35.0 69.55 L34.25 75.0 M18.95 67.7 L18.6 67.7 18.25 67.35 17.85 67.35 Q17.5 67.0 16.75 66.65 L15.3 65.9 Q15.7 64.8 16.75 63.7 L18.6 61.15 20.8 62.25 20.05 65.15 Q19.7 65.9 19.7 66.25 L18.95 67.7" fill="#cb3676" fill-rule="evenodd" stroke="none"/>
    <path d="M37.2 11.25 L37.2 56.05 28.45 56.05 28.45 11.25 37.2 11.25" fill="#f56e9b" fill-rule="evenodd" stroke="none"/>
    <path d="M32.1 47.3 Q35.35 47.3 37.2 49.15 39.35 50.95 39.35 53.9 39.35 56.45 37.2 58.25 35.35 60.45 32.1 60.45 29.55 60.45 27.7 58.25 25.5 56.45 25.5 53.9 25.5 50.95 27.7 49.15 29.55 47.3 32.1 47.3" fill="#ffe9f0" fill-rule="evenodd" stroke="none"/>
    <path d="M35.75 56.8 Q34.25 58.25 32.45 58.25 30.6 58.25 29.55 56.8 28.05 55.7 28.05 53.9 28.05 52.05 29.55 50.6 30.6 49.5 32.45 49.5 34.25 49.5 35.75 50.6 36.8 52.05 36.8 53.9 36.8 55.7 35.75 56.8" fill="#f56e9b" fill-rule="evenodd" stroke="none"/>
    <path d="M71.1 11.25 L71.1 56.05 62.35 56.05 62.35 11.25 71.1 11.25" fill="#f56e9b" fill-rule="evenodd" stroke="none"/>
    <path d="M71.45 49.15 Q73.65 50.95 73.65 53.9 73.65 56.45 71.45 58.25 69.6 60.45 66.7 60.45 63.8 60.45 61.6 58.25 59.8 56.45 59.8 53.9 59.8 50.95 61.6 49.15 63.8 47.3 66.7 47.3 69.6 47.3 71.45 49.15" fill="#ffe9f0" fill-rule="evenodd" stroke="none"/>
    <path d="M69.6 50.6 Q71.1 52.05 71.1 53.9 71.1 55.7 69.6 56.8 68.15 58.25 66.7 58.25 64.9 58.25 63.8 56.8 62.35 55.7 62.35 53.9 62.35 52.05 63.8 50.6 64.9 49.5 66.7 49.5 68.15 49.5 69.6 50.6" fill="#f56e9b" fill-rule="evenodd" stroke="none"/>
    <path d="M32.8 36.4 Q34.25 36.4 35.35 37.5 36.45 38.55 36.45 40.05 36.45 41.5 35.35 42.6 34.25 43.65 32.8 43.65 31.35 43.65 30.25 42.6 28.8 41.5 28.8 40.05 28.8 38.55 30.25 37.5 31.35 36.4 32.8 36.4" fill="#faa9c4" fill-rule="evenodd" stroke="none"/>
    <path d="M32.8 25.1 Q34.25 25.1 35.35 26.2 36.45 26.9 36.45 28.75 36.45 30.2 35.35 30.9 34.25 32.4 32.8 32.4 31.35 32.4 30.25 30.9 28.8 30.2 28.8 28.75 28.8 26.9 30.25 26.2 31.35 25.1 32.8 25.1" fill="#faa9c4" fill-rule="evenodd" stroke="none"/>
    <path d="M32.8 13.8 Q34.25 13.8 35.35 15.25 36.45 16.0 36.45 17.45 36.45 19.25 35.35 20.0 34.25 21.1 32.8 21.1 31.35 21.1 30.25 20.0 28.8 19.25 28.8 17.45 28.8 16.0 30.25 15.25 31.35 13.8 32.8 13.8" fill="#faa9c4" fill-rule="evenodd" stroke="none"/>
    <path d="M69.25 37.5 Q70.35 38.55 70.35 40.05 70.35 41.5 69.25 42.6 67.8 43.65 66.7 43.65 65.25 43.65 63.8 42.6 62.7 41.5 62.7 40.05 62.7 38.55 63.8 37.5 65.25 36.4 66.7 36.4 67.8 36.4 69.25 37.5" fill="#faa9c4" fill-rule="evenodd" stroke="none"/>
    <path d="M69.25 26.2 Q70.35 26.9 70.35 28.75 70.35 30.2 69.25 30.9 67.8 32.4 66.7 32.4 65.25 32.4 63.8 30.9 62.7 30.2 62.7 28.75 62.7 26.9 63.8 26.2 65.25 25.1 66.7 25.1 67.8 25.1 69.25 26.2" fill="#faa9c4" fill-rule="evenodd" stroke="none"/>
    <path d="M69.25 15.25 Q70.35 16.0 70.35 17.45 70.35 19.25 69.25 20.0 67.8 21.1 66.7 21.1 65.25 21.1 63.8 20.0 62.7 19.25 62.7 17.45 62.7 16.0 63.8 15.25 65.25 13.8 66.7 13.8 67.8 13.8 69.25 15.25" fill="#faa9c4" fill-rule="evenodd" stroke="none"/>
    <path d="M46.65 25.1 Q47.4 29.1 44.45 32.0 41.55 35.3 37.2 37.5 32.45 39.3 27.7 38.55 27.35 34.95 26.25 31.65 24.05 26.55 24.8 21.45 24.8 20.35 26.25 20.0 31.35 19.25 36.8 20.7 42.3 21.8 46.65 25.1 M42.3 25.8 Q45.55 26.2 45.95 25.45 45.95 25.1 43.4 23.65 41.2 22.2 37.2 21.45 L29.9 20.7 Q26.25 20.7 26.25 21.1 25.9 21.45 28.45 22.55 31.0 23.65 35.35 24.75 L42.3 25.8" fill="#d01e62" fill-rule="evenodd" stroke="none"/>
    <path d="M42.3 25.8 L35.35 24.75 Q31.0 23.65 28.45 22.55 25.9 21.45 26.25 21.1 26.25 20.7 29.9 20.7 L37.2 21.45 Q41.2 22.2 43.4 23.65 45.95 25.1 45.95 25.45 45.55 26.2 42.3 25.8" fill="#a80040" fill-rule="evenodd" stroke="none"/>
    <path d="M35.55 27.05 L40.15 27.6 44.9 27.8 46.35 27.45 Q46.25 28.15 45.75 28.7 45.6 28.8 45.8 28.65 L45.55 28.95 43.25 30.5 39.35 32.5 Q37.2 33.4 35.6 33.4 33.7 33.4 31.95 32.75 29.8 31.95 28.7 30.45 L30.85 30.25 Q32.05 29.8 32.2 29.15 L32.25 28.95 32.45 28.15 32.55 28.05 Q32.9 27.45 33.7 27.2 L35.55 27.05" fill="#e53c7d" fill-rule="evenodd" stroke="none"/>
    <path d="M74.35 21.1 L71.8 22.2 Q69.25 23.25 65.25 24.35 L57.95 25.45 Q55.05 25.8 54.7 25.1 54.7 24.75 56.85 23.25 59.4 22.2 63.45 21.1 L70.7 20.35 Q74.0 20.35 74.35 21.1" fill="#a80040" fill-rule="evenodd" stroke="none"/>
    <path d="M74.35 21.1 Q74.0 20.35 70.7 20.35 L63.45 21.1 Q59.4 22.2 56.85 23.25 54.7 24.75 54.7 25.1 55.05 25.8 57.95 25.45 L65.25 24.35 Q69.25 23.25 71.8 22.2 L74.35 21.1 M74.35 19.65 Q75.45 20.0 75.45 21.1 76.55 26.55 74.35 31.3 73.25 34.95 72.55 38.55 67.8 38.95 63.45 37.1 59.05 34.95 55.75 31.65 53.2 28.75 53.6 24.75 57.95 21.45 63.45 20.35 69.25 19.25 74.35 19.65" fill="#d01e62" fill-rule="evenodd" stroke="none"/>
    <path d="M63.2 28.1 Q65.3 28.55 67.55 29.6 L68.6 30.05 70.45 30.15 67.8 32.85 Q66.2 34.1 63.65 34.4 61.1 34.65 59.2 33.6 57.25 32.5 55.65 30.85 L53.55 28.6 53.3 28.35 53.4 28.35 Q52.9 27.8 52.75 27.15 L54.1 27.55 58.3 27.7 63.2 28.1" fill="#e53c7d" fill-rule="evenodd" stroke="none"/>
    <path d="M44.1 27.65 Q44.1 25.1 45.55 22.9 L55.05 22.9 Q56.15 25.1 56.15 27.3 53.6 26.55 50.65 26.55 46.65 26.55 44.1 27.65" fill="#e53c7d" fill-rule="evenodd" stroke="none"/>
    <path d="M56.15 27.3 Q56.15 29.85 55.05 32.0 L45.55 32.0 Q44.1 30.2 44.1 27.65 46.65 26.55 50.65 26.55 53.6 26.55 56.15 27.3" fill="#b40e4e" fill-rule="evenodd" stroke="none"/>
  </g>
</svg>
