<?xml version="1.0" encoding="UTF-8" standalone="no"?>
<svg xmlns:xlink="http://www.w3.org/1999/xlink" height="278.9px" width="296.0px" xmlns="http://www.w3.org/2000/svg">
  <g transform="matrix(1.0, 0.0, 0.0, 1.0, 26.75, 36.2)">
    <path d="M88.85 -33.15 Q91.85 -32.6 93.55 -30.2 95.5 -27.7 95.0 -24.6 94.55 -21.65 92.1 -19.85 90.7 -18.9 88.7 -15.45 L85.05 9.7 89.0 10.2 89.15 10.25 Q94.8 8.55 100.75 7.45 L102.5 7.25 116.4 5.85 120.75 5.75 121.6 5.75 122.4 5.75 125.65 5.75 Q152.85 6.35 175.2 18.3 L178.65 20.25 Q187.8 25.65 196.2 33.15 L197.95 34.65 Q219.1 54.3 225.95 79.45 233.15 99.15 235.95 120.4 L238.65 120.4 238.65 94.6 247.9 94.6 248.0 94.75 Q263.9 126.6 249.65 158.55 255.25 160.0 259.6 164.4 266.25 171.05 266.25 180.45 L266.0 184.0 Q265.95 193.25 259.35 199.85 L257.1 201.85 Q258.2 205.75 258.2 210.15 258.2 222.4 249.55 231.05 240.9 239.7 228.65 239.7 216.4 239.7 207.75 231.05 L206.25 229.45 Q203.65 230.45 200.65 230.45 L197.45 230.15 Q192.7 229.35 189.1 225.75 185.75 222.4 184.9 218.05 177.2 217.2 171.55 211.55 166.0 206.0 165.1 198.55 164.5 198.1 162.65 198.9 L162.6 196.85 156.05 199.0 156.0 199.1 152.3 200.1 149.65 200.75 141.7 202.25 141.4 202.3 141.05 202.35 140.75 202.4 136.9 202.9 123.3 203.7 122.4 203.7 120.7 203.7 120.45 203.7 103.15 202.25 98.3 201.4 94.75 200.65 93.75 200.4 92.4 200.1 92.4 200.05 Q84.8 198.1 77.7 195.1 L77.1 201.05 77.05 201.05 77.05 201.3 76.5 201.1 74.4 201.2 74.3 201.7 73.95 201.55 Q72.7 208.15 67.65 213.2 61.15 219.75 51.9 219.85 51.7 225.9 47.3 230.25 L46.75 230.8 46.2 231.35 Q41.65 235.95 35.2 235.95 29.05 235.95 24.6 231.75 19.95 233.4 14.6 233.4 2.35 233.4 -6.3 224.75 L-7.55 223.4 Q-15.5 214.95 -15.5 203.25 -15.5 199.45 -14.65 196.05 L-17.1 193.9 Q-23.75 187.25 -23.75 177.85 -23.75 168.45 -17.1 161.8 -12.65 157.35 -7.0 155.9 -19.5 125.3 -4.25 94.8 L-4.2 94.8 -4.15 94.65 5.1 94.65 5.1 120.45 8.5 120.45 Q11.8 97.5 19.35 77.4 22.6 66.35 28.75 56.35 30.9 52.2 33.3 48.2 L34.1 48.5 Q38.45 42.8 43.8 37.5 44.5 33.5 47.0 29.15 L47.45 28.45 29.55 18.25 Q25.6 17.7 23.95 18.2 21.05 19.1 18.45 17.6 15.7 16.1 14.85 13.05 14.05 10.2 15.45 7.5 17.05 4.8 20.1 3.85 23.05 3.2 25.7 4.7 28.4 6.15 29.05 9.1 29.6 10.8 31.75 14.0 L50.4 24.45 Q56.0 17.8 65.2 13.6 L67.65 12.6 Q73.95 10.1 80.1 9.7 L84.0 -16.3 Q82.8 -19.95 81.8 -21.45 79.85 -23.8 80.35 -26.8 80.85 -29.8 83.2 -31.75 85.75 -33.55 88.85 -33.15 M237.35 135.85 Q237.95 147.0 237.35 158.55 L238.65 158.25 238.65 135.85 237.35 135.85 M6.8 135.9 L5.1 135.9 5.1 155.8 5.9 156.05 Q6.0 145.7 6.8 135.9" fill="#feee5f" fill-rule="evenodd" stroke="none"/>
    <path d="M88.85 -33.15 Q85.75 -33.55 83.2 -31.75 80.85 -29.8 80.35 -26.8 79.85 -23.8 81.8 -21.45 82.8 -19.95 84.0 -16.3 L80.1 9.7 Q73.95 10.1 67.65 12.6 L65.2 13.6 Q56.0 17.8 50.4 24.45 L31.75 14.0 Q29.6 10.8 29.05 9.1 28.4 6.15 25.7 4.7 23.05 3.2 20.1 3.85 17.05 4.8 15.45 7.5 14.05 10.2 14.85 13.05 15.7 16.1 18.45 17.6 21.05 19.1 23.95 18.2 25.6 17.7 29.55 18.25 L47.45 28.45 47.0 29.15 Q44.5 33.5 43.8 37.5 38.45 42.8 34.1 48.5 L33.3 48.2 Q30.9 52.2 28.75 56.35 22.6 66.35 19.35 77.4 11.8 97.5 8.5 120.45 L5.1 120.45 5.1 94.65 -4.15 94.65 -4.2 94.8 -4.25 94.8 Q-19.5 125.3 -7.0 155.9 -12.65 157.35 -17.1 161.8 -23.75 168.45 -23.75 177.85 -23.75 187.25 -17.1 193.9 L-14.65 196.05 Q-15.5 199.45 -15.5 203.25 -15.5 214.95 -7.55 223.4 L-6.3 224.75 Q2.35 233.4 14.6 233.4 19.95 233.4 24.6 231.75 29.05 235.95 35.2 235.95 41.65 235.95 46.2 231.35 L46.75 230.8 47.3 230.25 Q51.7 225.9 51.9 219.85 61.15 219.75 67.65 213.2 72.7 208.15 73.95 201.55 L74.3 201.7 74.4 201.2 76.5 201.1 77.05 201.3 77.05 201.05 77.1 201.05 77.7 195.1 Q84.8 198.1 92.4 200.05 L92.4 200.1 93.75 200.4 94.75 200.65 98.3 201.4 103.15 202.25 120.45 203.7 120.7 203.7 122.4 203.7 123.3 203.7 136.9 202.9 140.75 202.4 141.05 202.35 141.4 202.3 141.7 202.25 149.65 200.75 152.3 200.1 156.0 199.1 156.05 199.0 162.6 196.85 162.65 198.9 Q164.5 198.1 165.1 198.55 166.0 206.0 171.55 211.55 177.2 217.2 184.9 218.05 185.75 222.4 189.1 225.75 192.7 229.35 197.45 230.15 L200.65 230.45 Q203.65 230.45 206.25 229.45 L207.75 231.05 Q216.4 239.7 228.65 239.7 240.9 239.7 249.55 231.05 258.2 222.4 258.2 210.15 258.2 205.75 257.1 201.85 L259.35 199.85 Q265.95 193.25 266.0 184.0 L266.25 180.45 Q266.25 171.05 259.6 164.4 255.25 160.0 249.65 158.55 263.9 126.6 248.0 94.75 L247.9 94.6 238.65 94.6 238.65 120.4 235.95 120.4 Q233.15 99.15 225.95 79.45 219.1 54.3 197.95 34.65 L196.2 33.15 Q187.8 25.65 178.65 20.25 L175.2 18.3 Q152.85 6.35 125.65 5.75 L122.4 5.75 121.6 5.75 120.75 5.75 116.4 5.85 102.5 7.25 100.75 7.45 Q94.8 8.55 89.15 10.25 L89.0 10.2 85.05 9.7 88.7 -15.45 Q90.7 -18.9 92.1 -19.85 94.55 -21.65 95.0 -24.6 95.5 -27.7 93.55 -30.2 91.85 -32.6 88.85 -33.15 M237.35 135.85 Q237.95 147.0 237.35 158.55 L238.65 158.25 238.65 135.85 237.35 135.85 M6.8 135.9 Q6.0 145.7 5.9 156.05 L5.1 155.8 5.1 135.9 6.8 135.9" fill="none" stroke="#a90156" stroke-linecap="round" stroke-linejoin="round" stroke-width="6.0"/>
    <path d="M90.2 70.2 L77.1 201.05 9.05 204.15 Q-3.45 109.65 33.3 48.2 L90.2 70.2" fill="#feee5f" fill-rule="evenodd" stroke="none"/>
    <path d="M150.25 67.2 L214.5 54.2 Q251.7 122.65 229.1 211.6 L163.35 198.05 150.25 67.2" fill="#feee5f" fill-rule="evenodd" stroke="none"/>
    <path d="M35.5 224.75 Q26.85 233.4 14.6 233.4 2.35 233.4 -6.3 224.75 -14.95 216.1 -14.95 203.85 -14.95 191.6 -6.3 182.95 2.35 174.3 14.6 174.3 26.85 174.3 35.5 182.95 44.15 191.6 44.15 203.85 44.15 216.1 35.5 224.75" fill="#feee5f" fill-rule="evenodd" stroke="none"/>
    <path d="M258.2 210.15 Q258.2 222.4 249.55 231.05 240.9 239.7 228.65 239.7 216.4 239.7 207.75 231.05 199.1 222.4 199.1 210.15 199.1 197.9 207.75 189.25 216.4 180.6 228.65 180.6 240.9 180.6 249.55 189.25 258.2 197.9 258.2 210.15" fill="#feee5f" fill-rule="evenodd" stroke="none"/>
    <path d="M74.3 197.15 Q74.3 206.55 67.65 213.2 61.05 219.85 51.6 219.85 42.2 219.85 35.55 213.2 28.9 206.55 28.9 197.15 28.9 187.75 35.55 181.1 42.2 174.45 51.6 174.45 61.05 174.45 67.65 181.1 74.3 187.75 74.3 197.15" fill="#feee5f" fill-rule="evenodd" stroke="none"/>
    <path d="M210.3 195.5 Q210.3 204.9 203.65 211.55 197.05 218.2 187.6 218.2 178.2 218.2 171.55 211.55 164.9 204.9 164.9 195.5 164.9 186.1 171.55 179.45 178.2 172.8 187.6 172.8 197.05 172.8 203.65 179.45 210.3 186.1 210.3 195.5" fill="#feee5f" fill-rule="evenodd" stroke="none"/>
    <path d="M22.15 177.85 Q22.15 187.25 15.5 193.9 8.9 200.55 -0.55 200.55 -9.95 200.55 -16.6 193.9 -23.25 187.25 -23.25 177.85 -23.25 168.45 -16.6 161.8 -9.95 155.15 -0.55 155.15 8.9 155.15 15.5 161.8 22.15 168.45 22.15 177.85" fill="#feee5f" fill-rule="evenodd" stroke="none"/>
    <path d="M266.25 180.45 Q266.25 189.85 259.6 196.5 253.0 203.15 243.55 203.15 234.15 203.15 227.5 196.5 220.85 189.85 220.85 180.45 220.85 171.05 227.5 164.4 234.15 157.75 243.55 157.75 253.0 157.75 259.6 164.4 266.25 171.05 266.25 180.45" fill="#feee5f" fill-rule="evenodd" stroke="none"/>
    <path d="M51.9 219.25 Q51.9 225.7 47.3 230.25 42.75 234.85 36.3 234.85 29.85 234.85 25.3 230.25 20.75 225.7 20.75 219.25 20.75 212.8 25.3 208.25 29.85 203.7 36.3 203.7 42.75 203.7 47.3 208.25 51.9 212.8 51.9 219.25" fill="#feee5f" fill-rule="evenodd" stroke="none"/>
    <path d="M215.7 214.75 Q215.7 221.2 211.1 225.75 206.55 230.35 200.1 230.35 193.65 230.35 189.1 225.75 184.55 221.2 184.55 214.75 184.55 208.3 189.1 203.75 193.65 199.2 200.1 199.2 206.55 199.2 211.1 203.75 215.7 208.3 215.7 214.75" fill="#feee5f" fill-rule="evenodd" stroke="none"/>
    <path d="M-15.8 177.35 Q-15.8 186.75 -9.15 193.4 -3.4 199.15 4.45 199.95 L-1.05 200.55 Q-10.45 200.55 -17.1 193.9 -23.75 187.25 -23.75 177.85 -23.75 168.45 -17.1 161.8 -10.45 155.15 -1.05 155.15 L1.45 155.3 Q-4.55 156.7 -9.15 161.3 -15.8 167.95 -15.8 177.35" fill="#ffd222" fill-rule="evenodd" stroke="none"/>
    <path d="M43.5 200.65 L43.6 203.25 Q43.6 215.5 34.95 224.15 26.3 232.8 14.05 232.8 1.8 232.8 -6.85 224.15 -15.5 215.5 -15.5 203.25 -15.5 192.9 -9.3 185.1 -12.15 190.75 -12.15 197.55 -12.15 209.1 -4.0 217.3 4.2 225.45 15.75 225.45 27.3 225.45 35.45 217.3 42.55 210.2 43.5 200.65" fill="#ffd222" fill-rule="evenodd" stroke="none"/>
    <path d="M44.5 225.2 Q49.1 220.65 49.1 214.2 L49.1 213.15 Q50.8 216.4 50.8 220.35 50.8 226.8 46.2 231.35 41.65 235.95 35.2 235.95 28.75 235.95 24.2 231.35 20.05 227.2 19.7 221.45 20.75 223.45 22.5 225.2 27.05 229.8 33.5 229.8 39.95 229.8 44.5 225.2" fill="#ffd222" fill-rule="evenodd" stroke="none"/>
    <path d="M28.05 176.75 Q31.35 172.65 44.0 170.65 31.5 174.45 29.45 184.45 31.35 193.3 39.7 197.3 31.55 196.0 26.75 187.35 24.7 193.5 14.1 199.0 24.5 192.45 24.7 182.25 23.35 170.15 12.2 160.2 24.85 166.45 28.05 176.75" fill="#ffd222" fill-rule="evenodd" stroke="none"/>
    <path d="M266.0 183.8 Q266.0 193.2 259.35 199.85 252.7 206.5 243.3 206.5 L237.8 205.9 Q245.65 205.1 251.4 199.35 258.05 192.7 258.05 183.3 258.05 173.9 251.4 167.25 246.8 162.65 240.8 161.25 L243.3 161.1 Q252.7 161.1 259.35 167.75 266.0 174.4 266.0 183.8" fill="#ffd222" fill-rule="evenodd" stroke="none"/>
    <path d="M254.4 203.5 Q254.4 196.7 251.55 191.05 257.75 198.85 257.75 209.2 257.75 221.45 249.1 230.1 240.45 238.75 228.2 238.75 215.95 238.75 207.3 230.1 198.65 221.45 198.65 209.2 L198.75 206.6 Q199.7 216.15 206.8 223.25 214.95 231.4 226.5 231.4 238.05 231.4 246.25 223.25 254.4 215.05 254.4 203.5" fill="#ffd222" fill-rule="evenodd" stroke="none"/>
    <path d="M216.15 215.95 Q215.8 221.7 211.65 225.85 207.1 230.45 200.65 230.45 194.2 230.45 189.65 225.85 185.05 221.3 185.05 214.85 185.05 210.9 186.75 207.65 L186.75 208.7 Q186.75 215.15 191.35 219.7 195.9 224.3 202.35 224.3 208.8 224.3 213.35 219.7 215.1 217.95 216.15 215.95" fill="#ffd222" fill-rule="evenodd" stroke="none"/>
    <path d="M195.95 181.35 Q192.65 177.25 180.0 175.25 192.5 179.05 194.55 189.05 192.65 197.9 184.3 201.9 192.45 200.6 197.25 191.95 199.3 198.1 209.9 203.6 199.5 197.05 199.3 186.85 200.65 174.75 211.8 164.8 199.15 171.05 195.95 181.35" fill="#ffd222" fill-rule="evenodd" stroke="none"/>
    <path d="M74.3 201.7 Q48.3 191.85 43.7 173.15 L61.2 126.15 78.85 151.0 77.05 201.3 Q74.3 200.1 74.3 201.7" fill="#ffd222" fill-rule="evenodd" stroke="none"/>
    <path d="M165.4 199.3 Q191.4 189.45 196.0 170.75 L178.5 123.75 160.85 148.6 162.65 198.9 Q165.4 197.7 165.4 199.3" fill="#ffd222" fill-rule="evenodd" stroke="none"/>
    <path d="M94.75 200.65 L93.75 200.4 92.4 200.1 92.4 200.05 Q83.65 197.8 75.5 194.1 L73.25 193.05 69.0 190.85 Q62.8 187.5 56.9 183.2 54.25 181.4 51.85 179.25 L46.75 174.8 46.25 174.3 39.35 167.15 35.3 162.5 Q15.4 137.4 15.5 104.75 15.4 63.7 46.75 34.65 L50.0 31.85 Q72.25 12.65 100.75 7.45 L102.5 7.25 116.4 5.85 120.75 5.75 121.6 5.75 122.4 5.75 125.65 5.75 Q152.85 6.35 175.2 18.3 L178.65 20.25 Q187.8 25.65 196.2 33.15 L197.95 34.65 Q229.2 63.7 229.2 104.75 229.2 133.65 213.6 156.6 L207.0 165.35 205.85 166.65 197.95 174.8 196.8 175.7 196.5 175.6 196.3 176.3 190.55 181.1 187.7 183.2 179.85 188.5 177.85 189.6 173.8 191.85 Q172.65 192.35 171.65 192.95 164.15 196.6 156.05 199.0 L156.0 199.1 152.3 200.1 149.65 200.75 141.7 202.25 141.4 202.3 141.05 202.35 140.75 202.4 136.9 202.9 123.3 203.7 122.4 203.7 120.7 203.7 120.45 203.7 103.15 202.25 98.3 201.35 95.6 200.8 94.75 200.65" fill="#feee5f" fill-rule="evenodd" stroke="none"/>
    <path d="M196.8 175.7 L196.3 176.3 196.5 175.6 196.8 175.7" fill="#e7e7e7" fill-rule="evenodd" stroke="none"/>
    <path d="M103.15 202.25 L98.3 201.4 94.75 200.65 95.6 200.8 98.3 201.35 103.15 202.25" fill="#f8deeb" fill-rule="evenodd" stroke="none"/>
    <path d="M98.4 200.95 L97.45 200.7 96.25 200.45 96.25 200.4 Q88.35 198.35 80.95 195.0 L78.9 194.05 75.05 192.05 Q69.45 189.05 64.1 185.15 L59.55 181.55 54.9 177.55 54.45 177.1 Q51.15 173.95 48.2 170.6 L44.55 166.4 Q26.55 143.65 26.65 114.1 26.55 76.95 54.9 50.65 L57.85 48.1 Q78.0 30.75 103.8 26.05 L105.4 25.85 118.0 24.6 121.9 24.5 122.7 24.5 123.4 24.5 126.35 24.5 Q151.0 25.05 171.2 35.85 L174.35 37.6 Q182.6 42.5 190.2 49.3 L191.8 50.65 Q220.1 76.95 220.1 114.1 220.1 140.3 205.95 161.05 L200.0 168.95 198.95 170.15 191.8 177.55 Q191.25 177.9 190.75 178.35 L190.5 178.25 190.3 178.9 185.1 183.25 182.5 185.15 175.4 189.95 173.6 190.95 169.95 192.95 Q168.9 193.4 168.0 193.95 161.2 197.25 153.85 199.45 L153.85 199.55 150.5 200.45 148.1 201.0 140.9 202.4 140.6 202.45 140.3 202.45 140.0 202.5 136.55 202.95 124.2 203.7 123.4 203.7 121.85 203.7 121.65 203.7 106.0 202.4 101.6 201.55 99.15 201.05 98.4 200.95" fill="#fff287" fill-rule="evenodd" stroke="none"/>
    <path d="M190.75 178.35 L190.3 178.9 190.5 178.25 190.75 178.35" fill="#e7e7e7" fill-rule="evenodd" stroke="none"/>
    <path d="M106.0 202.4 L101.6 201.6 98.4 200.95 99.15 201.05 101.6 201.55 106.0 202.4" fill="#f8deeb" fill-rule="evenodd" stroke="none"/>
    <path d="M217.75 115.25 L217.75 118.0 Q217.75 122.6 217.4 127.05 214.95 96.55 195.85 73.1 192.9 69.5 189.55 66.05 L187.95 64.55 Q180.4 57.05 172.1 51.65 L169.0 49.7 Q164.35 46.95 159.45 44.8 143.15 37.6 124.3 37.15 L121.35 37.15 120.65 37.15 119.85 37.15 115.95 37.25 Q109.55 37.55 103.4 38.65 L101.8 38.85 Q76.1 44.05 56.0 63.25 L53.1 66.05 Q27.95 91.85 25.25 127.1 24.9 122.6 24.9 118.0 L24.95 115.1 25.25 121.55 Q27.95 86.3 53.1 60.5 L56.0 57.7 Q70.3 44.05 87.4 37.5 94.35 34.8 101.8 33.3 L103.4 33.1 Q109.55 32.0 115.95 31.7 L119.85 31.6 120.65 31.6 121.35 31.6 124.3 31.6 Q143.65 32.05 160.25 39.6 164.7 41.6 169.0 44.15 L172.1 46.1 Q180.4 51.5 187.95 59.0 L189.55 60.5 Q193.55 64.65 197.05 69.05 215.05 91.95 217.4 121.5 L217.75 115.25" fill="#af1d66" fill-rule="evenodd" stroke="none"/>
    <path d="M162.8 22.65 Q165.95 24.2 169.0 26.0 L172.1 27.95 Q180.4 33.35 187.95 40.85 L189.55 42.35 Q195.9 48.85 200.8 56.0 L197.05 69.05 Q193.55 64.65 189.55 60.5 L187.95 59.0 Q180.4 51.5 172.1 46.1 L169.0 44.15 Q164.7 41.6 160.25 39.6 L162.8 22.65 M24.95 115.1 L24.9 112.45 Q24.8 71.4 53.1 42.35 L56.0 39.55 Q67.5 28.55 80.8 22.2 L87.4 37.5 Q70.3 44.05 56.0 57.7 L53.1 60.5 Q27.95 86.3 25.25 121.55 L24.95 115.1" fill="#d3237c" fill-rule="evenodd" stroke="none"/>
    <path d="M200.8 56.0 Q217.75 80.6 217.75 112.45 L217.75 115.25 217.4 121.5 Q215.05 91.95 197.05 69.05 L200.8 56.0" fill="#be1f70" fill-rule="evenodd" stroke="none"/>
    <path d="M80.8 22.2 Q90.8 17.4 101.8 15.15 L103.4 14.95 Q109.55 13.85 115.95 13.55 L119.85 13.45 120.65 13.45 121.35 13.45 124.3 13.45 Q145.15 13.95 162.8 22.65 L160.25 39.6 Q143.65 32.05 124.3 31.6 L121.35 31.6 120.65 31.6 119.85 31.6 115.95 31.7 Q109.55 32.0 103.4 33.1 L101.8 33.3 Q94.35 34.8 87.4 37.5 L80.8 22.2" fill="#e14896" fill-rule="evenodd" stroke="none"/>
    <path d="M47.4 35.0 Q54.0 24.85 67.35 18.9 80.75 13.0 93.1 14.9 105.5 16.75 109.55 25.2 113.6 33.7 107.0 43.95 100.45 54.1 87.05 60.0 73.65 65.9 61.25 64.05 48.95 62.2 44.85 53.7 40.85 45.25 47.4 35.0" fill="#d3237c" fill-rule="evenodd" stroke="none"/>
    <path d="M67.65 12.6 Q78.6 8.25 89.0 10.2 100.5 12.3 104.5 20.8 106.8 25.85 105.7 31.45 93.75 7.1 67.65 12.6" fill="#ec0b65" fill-rule="evenodd" stroke="none"/>
    <path d="M105.7 31.45 Q104.9 35.25 102.5 39.35 96.65 49.3 84.35 54.9 72.05 60.45 60.5 58.3 49.05 56.2 45.05 47.65 41.15 39.2 47.0 29.15 52.9 19.2 65.2 13.6 L67.65 12.6 Q93.75 7.1 105.7 31.45" fill="#ff4da6" fill-rule="evenodd" stroke="none"/>
    <path d="M51.1 30.4 Q52.8 25.15 57.85 21.15 62.9 17.2 68.4 16.85 73.9 16.5 76.65 20.0 79.4 23.5 77.75 28.75 76.1 34.0 71.05 37.95 66.0 41.95 60.45 42.3 55.0 42.65 52.25 39.15 49.5 35.65 51.1 30.4" fill="#ffa2d0" fill-rule="evenodd" stroke="none"/>
    <path d="M16.4 120.45 L4.4 120.45 4.4 135.9 16.4 135.9 16.4 120.45" fill="#af1d66" fill-rule="evenodd" stroke="none"/>
    <path d="M27.0 152.9 L13.15 152.9 13.15 104.15 27.0 104.15 27.0 152.9" fill="#d3237c" fill-rule="evenodd" stroke="none"/>
    <path d="M-4.15 161.85 L5.1 161.85 5.1 94.65 -4.15 94.65 Q-20.9 128.2 -4.15 161.85" fill="#d3237c" fill-rule="evenodd" stroke="none"/>
    <path d="M5.0 159.0 L5.0 162.0 -4.25 162.0 Q-21.0 128.35 -4.25 94.8 L-3.15 94.8 Q-17.75 126.85 -1.75 159.0 L5.0 159.0" fill="#f3619b" fill-rule="evenodd" stroke="none"/>
    <path d="M5.1 161.75 L-1.0 161.75 -1.0 94.65 5.1 94.65 5.1 161.75" fill="#af1d66" fill-rule="evenodd" stroke="none"/>
    <path d="M27.0 129.15 L13.15 129.15 13.15 104.2 27.0 104.2 27.0 129.15" fill="#e04191" fill-rule="evenodd" stroke="none"/>
    <path d="M227.35 120.4 L239.35 120.4 239.35 135.85 227.35 135.85 227.35 120.4" fill="#af1d66" fill-rule="evenodd" stroke="none"/>
    <path d="M216.75 152.85 L230.6 152.85 230.6 104.1 216.75 104.1 216.75 152.85" fill="#d3237c" fill-rule="evenodd" stroke="none"/>
    <path d="M247.9 161.8 L238.65 161.8 238.65 94.6 247.9 94.6 Q264.65 128.15 247.9 161.8" fill="#d3237c" fill-rule="evenodd" stroke="none"/>
    <path d="M248.0 94.75 Q264.75 128.3 248.0 161.95 L238.75 161.95 238.75 158.95 245.5 158.95 Q261.5 126.8 246.9 94.75 L248.0 94.75" fill="#f3619b" fill-rule="evenodd" stroke="none"/>
    <path d="M238.65 161.7 L244.75 161.7 244.75 94.6 238.65 94.6 238.65 161.7" fill="#af1d66" fill-rule="evenodd" stroke="none"/>
    <path d="M216.75 129.1 L230.6 129.1 230.6 104.15 216.75 104.15 216.75 129.1" fill="#e04191" fill-rule="evenodd" stroke="none"/>
    <path d="M60.7 36.35 Q59.45 37.15 58.1 36.65 56.8 36.1 56.35 34.6 55.95 33.2 56.6 31.6 57.25 29.95 58.55 29.2 L61.2 29.05 Q62.55 29.55 62.9 30.95 63.4 32.45 62.75 34.1 62.1 35.7 60.7 36.35" fill="#e467a6" fill-rule="evenodd" stroke="none"/>
    <path d="M59.55 35.2 Q58.4 35.95 57.25 35.45 56.05 35.0 55.65 33.6 55.25 32.35 55.85 30.9 56.4 29.45 57.65 28.75 L60.0 28.6 Q61.15 29.1 61.55 30.35 61.95 31.7 61.4 33.15 60.8 34.6 59.55 35.2" fill="#ea84b7" fill-rule="evenodd" stroke="none"/>
    <path d="M56.7 33.7 L29.55 18.25 Q25.6 17.7 23.95 18.2 21.05 19.1 18.45 17.6 15.7 16.1 14.85 13.05 14.05 10.2 15.45 7.5 17.05 4.8 20.1 3.85 23.05 3.2 25.7 4.7 28.4 6.15 29.05 9.1 29.6 10.8 31.75 14.0 L59.25 29.4 Q60.3 32.6 56.7 33.7" fill="#d1257c" fill-rule="evenodd" stroke="none"/>
    <path d="M15.75 12.4 Q15.3 10.55 16.25 8.9 17.2 7.3 19.05 6.85 20.9 6.35 22.5 7.3 24.15 8.25 24.6 10.15 25.05 12.0 24.1 13.6 23.15 15.25 21.3 15.7 19.45 16.15 17.8 15.2 16.2 14.25 15.75 12.4" fill="#e467a6" fill-rule="evenodd" stroke="none"/>
    <path d="M15.5 11.9 Q15.25 10.75 15.85 9.7 16.45 8.65 17.6 8.4 18.8 8.05 19.85 8.7 20.85 9.3 21.15 10.5 21.45 11.65 20.85 12.7 20.25 13.75 19.05 14.0 17.85 14.3 16.85 13.7 15.8 13.05 15.5 11.9" fill="#f9dbea" fill-rule="evenodd" stroke="none"/>
    <path d="M83.85 20.2 Q85.3 19.65 85.7 18.3 86.1 16.95 85.15 15.65 84.3 14.5 82.65 14.0 L79.5 14.05 Q78.2 14.7 77.8 16.05 77.4 17.4 78.2 18.6 79.15 19.9 80.85 20.35 L83.85 20.2" fill="#e467a6" fill-rule="evenodd" stroke="none"/>
    <path d="M83.7 18.55 Q84.95 18.05 85.3 16.85 85.65 15.6 84.85 14.45 84.05 13.45 82.55 13.0 L79.8 13.05 Q78.55 13.6 78.2 14.85 77.85 16.05 78.65 17.15 79.45 18.3 80.95 18.7 L83.7 18.55" fill="#ea84b7" fill-rule="evenodd" stroke="none"/>
    <path d="M88.85 -33.15 Q91.85 -32.6 93.55 -30.2 95.5 -27.7 95.0 -24.6 94.55 -21.65 92.1 -19.85 90.7 -18.9 88.7 -15.45 L84.2 15.45 Q81.15 17.6 79.3 14.8 L84.0 -16.3 Q82.8 -19.95 81.8 -21.45 79.85 -23.8 80.35 -26.8 80.85 -29.8 83.2 -31.75 85.75 -33.55 88.85 -33.15" fill="#d1257c" fill-rule="evenodd" stroke="none"/>
    <path d="M92.5 -29.95 Q91.4 -31.45 89.5 -31.7 87.65 -31.95 86.1 -30.75 84.65 -29.55 84.4 -27.7 84.2 -25.8 85.3 -24.35 86.5 -22.85 88.35 -22.6 90.25 -22.35 91.7 -23.55 93.25 -24.7 93.45 -26.6 93.7 -28.45 92.5 -29.95" fill="#e467a6" fill-rule="evenodd" stroke="none"/>
    <path d="M92.25 -30.45 Q91.5 -31.4 90.35 -31.55 89.15 -31.7 88.2 -30.95 87.25 -30.2 87.1 -29.0 86.95 -27.8 87.7 -26.9 88.45 -25.95 89.65 -25.8 90.8 -25.65 91.75 -26.4 92.7 -27.1 92.85 -28.3 93.0 -29.5 92.25 -30.45" fill="#f9dbea" fill-rule="evenodd" stroke="none"/>
    <path d="M19.75 125.25 Q18.9 125.25 18.25 124.6 17.65 124.0 17.65 123.15 17.65 122.3 18.25 121.65 18.9 121.05 19.75 121.05 20.6 121.05 21.2 121.65 21.85 122.3 21.85 123.15 21.85 124.0 21.2 124.6 20.6 125.25 19.75 125.25" fill="#ffffff" fill-rule="evenodd" stroke="none"/>
    <path d="M21.2 125.45 Q20.6 126.1 19.75 126.1 18.9 126.1 18.25 125.45 17.65 124.85 17.65 124.0 17.65 123.15 18.25 122.5 18.9 121.9 19.75 121.9 20.6 121.9 21.2 122.5 21.85 123.15 21.85 124.0 21.85 124.85 21.2 125.45" fill="#a81c62" fill-rule="evenodd" stroke="none"/>
    <path d="M49.1 50.0 Q48.25 50.0 47.6 49.35 47.0 48.75 47.0 47.9 47.0 47.05 47.6 46.4 48.25 45.8 49.1 45.8 49.95 45.8 50.55 46.4 51.2 47.05 51.2 47.9 51.2 48.75 50.55 49.35 49.95 50.0 49.1 50.0" fill="#ffffff" fill-rule="evenodd" stroke="none"/>
    <path d="M50.55 50.2 Q49.95 50.85 49.1 50.85 48.25 50.85 47.6 50.2 47.0 49.6 47.0 48.75 47.0 47.9 47.6 47.25 48.25 46.65 49.1 46.65 49.95 46.65 50.55 47.25 51.2 47.9 51.2 48.75 51.2 49.6 50.55 50.2" fill="#a81c62" fill-rule="evenodd" stroke="none"/>
    <path d="M102.15 33.8 Q101.3 33.8 100.65 33.15 100.05 32.55 100.05 31.7 100.05 30.85 100.65 30.2 101.3 29.6 102.15 29.6 103.0 29.6 103.6 30.2 104.25 30.85 104.25 31.7 104.25 32.55 103.6 33.15 103.0 33.8 102.15 33.8" fill="#ffffff" fill-rule="evenodd" stroke="none"/>
    <path d="M103.6 34.0 Q103.0 34.65 102.15 34.65 101.3 34.65 100.65 34.0 100.05 33.4 100.05 32.55 100.05 31.7 100.65 31.05 101.3 30.45 102.15 30.45 103.0 30.45 103.6 31.05 104.25 31.7 104.25 32.55 104.25 33.4 103.6 34.0" fill="#a81c62" fill-rule="evenodd" stroke="none"/>
    <path d="M223.2 125.7 Q222.35 125.7 221.7 125.05 221.1 124.45 221.1 123.6 221.1 122.75 221.7 122.1 222.35 121.5 223.2 121.5 224.05 121.5 224.65 122.1 225.3 122.75 225.3 123.6 225.3 124.45 224.65 125.05 224.05 125.7 223.2 125.7" fill="#ffffff" fill-rule="evenodd" stroke="none"/>
    <path d="M224.65 125.9 Q224.05 126.55 223.2 126.55 222.35 126.55 221.7 125.9 221.1 125.3 221.1 124.45 221.1 123.6 221.7 122.95 222.35 122.35 223.2 122.35 224.05 122.35 224.65 122.95 225.3 123.6 225.3 124.45 225.3 125.3 224.65 125.9" fill="#a81c62" fill-rule="evenodd" stroke="none"/>
    <path d="M195.8 62.6 Q194.95 62.6 194.3 61.95 193.7 61.35 193.7 60.5 193.7 59.65 194.3 59.0 194.95 58.4 195.8 58.4 196.65 58.4 197.25 59.0 197.9 59.65 197.9 60.5 197.9 61.35 197.25 61.95 196.65 62.6 195.8 62.6" fill="#ffffff" fill-rule="evenodd" stroke="none"/>
    <path d="M197.25 62.8 Q196.65 63.45 195.8 63.45 194.95 63.45 194.3 62.8 193.7 62.2 193.7 61.35 193.7 60.5 194.3 59.85 194.95 59.25 195.8 59.25 196.65 59.25 197.25 59.85 197.9 60.5 197.9 61.35 197.9 62.2 197.25 62.8" fill="#a81c62" fill-rule="evenodd" stroke="none"/>
  </g>
</svg>
