<?xml version="1.0" encoding="UTF-8" standalone="no"?>
<svg xmlns:xlink="http://www.w3.org/1999/xlink" height="73.65px" width="70.4px" xmlns="http://www.w3.org/2000/svg">
  <g transform="matrix(1.0, 0.0, 0.0, 1.0, 15.75, 19.0)">
    <path d="M45.95 45.95 Q37.2 54.65 24.95 54.65 12.55 54.65 3.9 45.95 -4.95 37.2 -4.95 24.95 -4.95 12.5 3.9 3.8 12.55 -4.95 24.95 -4.95 37.2 -4.95 45.95 3.8 54.65 12.5 54.65 24.95 54.65 37.2 45.95 45.95" fill="#d3237c" fill-rule="evenodd" stroke="none"/>
    <path d="M4.3 -18.95 Q6.2 -18.65 7.35 -17.15 8.45 -15.6 8.1 -13.75 L7.75 -12.35 15.15 -2.2 11.65 0.3 4.2 -9.9 Q3.6 -9.75 2.9 -9.9 1.15 -10.15 0.0 -11.7 -1.1 -13.2 -0.9 -15.05 -0.6 -16.9 0.9 -18.05 2.45 -19.25 4.3 -18.95" fill="#d3237c" fill-rule="evenodd" stroke="none"/>
    <path d="M-5.6 -6.75 Q-4.0 -6.95 -2.75 -5.85 -1.45 -4.85 -1.35 -3.3 L-1.4 -2.1 6.8 4.75 4.55 7.55 -3.75 0.7 -4.8 0.95 Q-6.35 1.1 -7.65 0.1 -8.8 -0.95 -9.05 -2.45 -9.2 -4.05 -8.2 -5.3 -7.2 -6.55 -5.6 -6.75" fill="#d3237c" fill-rule="evenodd" stroke="none"/>
    <path d="M0.15 17.65 L-9.55 13.05 -10.55 13.55 -13.45 13.45 Q-14.85 12.7 -15.5 11.3 -16.05 9.85 -15.4 8.3 -14.7 6.8 -13.25 6.25 L-10.25 6.4 Q-8.75 7.05 -8.3 8.55 L-7.95 9.75 1.65 14.3 0.15 17.65" fill="#d3237c" fill-rule="evenodd" stroke="none"/>
  </g>
</svg>
