<?xml version="1.0" encoding="UTF-8" standalone="no"?>
<svg xmlns:xlink="http://www.w3.org/1999/xlink" height="49.25px" width="53.5px" xmlns="http://www.w3.org/2000/svg">
  <g transform="matrix(1.0, 0.0, 0.0, 1.0, 2.0, 2.0)">
    <path d="M44.65 3.1 Q40.5 0.0 35.2 0.0 32.4 0.0 28.95 2.1 25.9 4.0 24.0 6.4 22.45 4.65 19.35 3.2 16.2 1.65 13.8 1.65 8.7 1.65 4.65 5.15 0.05 9.2 0.0 15.65 -0.05 23.75 3.9 28.1 6.45 30.95 12.2 33.15 18.2 35.45 19.7 36.85 22.65 39.6 21.2 45.25 51.45 40.3 49.35 11.3 49.05 6.4 44.65 3.1 Z" fill="none" stroke="#a90156" stroke-linecap="round" stroke-linejoin="round" stroke-width="4.0"/>
    <path d="M44.65 3.1 Q49.05 6.4 49.35 11.3 51.45 40.3 21.2 45.25 22.65 39.6 19.7 36.85 18.2 35.45 12.2 33.15 6.45 30.95 3.9 28.1 -0.05 23.75 0.0 15.65 0.05 9.2 4.65 5.15 8.7 1.65 13.8 1.65 16.2 1.65 19.35 3.2 22.45 4.65 24.0 6.4 25.9 4.0 28.95 2.1 32.4 0.0 35.2 0.0 40.5 0.0 44.65 3.1" fill="#e14896" fill-rule="evenodd" stroke="none"/>
    <path d="M48.2 13.1 Q48.2 7.5 44.4 2.95 46.55 4.45 47.8 6.55 49.2 8.75 49.35 11.3 51.45 40.3 21.2 45.25 22.65 39.6 19.7 36.85 18.2 35.45 12.2 33.15 6.45 30.95 3.9 28.1 -0.05 23.75 0.0 15.65 0.0 11.85 1.7 8.75 1.1 10.9 1.1 13.1 1.1 20.8 7.95 26.25 14.9 31.7 24.65 31.7 34.35 31.7 41.3 26.25 48.2 20.8 48.2 13.1" fill="#d3237c" fill-rule="evenodd" stroke="none"/>
    <path d="M40.75 2.35 Q43.6 3.45 45.65 5.45 42.85 4.35 39.9 4.35 33.45 4.35 28.95 8.7 24.45 13.1 24.45 19.25 L24.35 19.25 Q23.7 13.65 19.35 9.85 14.95 6.0 9.05 6.0 6.35 6.0 3.8 6.9 5.8 4.95 8.45 3.9 11.0 2.85 13.5 2.85 15.9 2.85 19.1 4.4 22.15 5.9 23.7 7.65 25.55 5.25 28.65 3.35 32.1 1.25 34.9 1.25 37.9 1.25 40.75 2.35" fill="#d3237c" fill-rule="evenodd" stroke="none"/>
  </g>
</svg>
