<?xml version="1.0" encoding="UTF-8" standalone="no"?>
<svg xmlns:xlink="http://www.w3.org/1999/xlink" height="16.05px" width="6.3px" xmlns="http://www.w3.org/2000/svg">
  <g transform="matrix(1.0, 0.0, 0.0, 1.0, 0.5, 0.5)">
    <path d="M3.7 0.0 Q4.45 0.0 4.45 1.2 L4.45 2.7 4.4 3.35 4.35 3.55 4.5 3.7 Q5.3 4.5 5.3 5.6 5.3 6.5 4.75 7.2 L5.0 13.85 4.0 15.05 1.4 15.05 0.35 13.85 0.4 12.9 0.45 12.4 0.5 11.05 0.55 11.05 0.55 10.7 0.5 10.7 0.7 7.4 Q0.0 6.65 0.0 5.6 0.0 4.5 0.75 3.7 L1.05 3.45 1.0 3.35 0.9 2.7 0.9 1.2 Q0.9 0.0 1.7 0.0 L3.7 0.0" fill="#d65400" fill-rule="evenodd" stroke="none"/>
    <path d="M3.7 0.0 L1.7 0.0 Q0.9 0.0 0.9 1.2 L0.9 2.7 1.0 3.35 1.05 3.45 0.75 3.7 Q0.0 4.5 0.0 5.6 0.0 6.65 0.7 7.4 L0.5 10.7 0.55 10.7 0.55 11.05 0.5 11.05 0.45 12.4 0.4 12.9 0.35 13.85 1.4 15.05 4.0 15.05 5.0 13.85 4.75 7.2 Q5.3 6.5 5.3 5.6 5.3 4.5 4.5 3.7 L4.35 3.55 4.4 3.35 4.45 2.7 4.45 1.2 Q4.45 0.0 3.7 0.0 Z" fill="none" stroke="#4f281e" stroke-linecap="round" stroke-linejoin="round" stroke-width="1.0"/>
    <path d="M0.55 10.7 L0.5 10.7 0.7 7.35 4.75 7.2 4.95 10.7 0.55 10.7 M4.95 11.05 L5.0 12.9 0.4 12.9 0.45 12.4 0.5 11.05 0.55 11.05 4.95 11.05 M5.0 13.25 L5.0 13.85 4.0 15.05 1.4 15.05 0.35 13.85 0.4 13.25 5.0 13.25" fill="#d65400" fill-rule="evenodd" stroke="none"/>
    <path d="M0.55 10.85 L0.55 10.7 4.95 10.7 4.95 10.85 0.55 10.85 M5.0 12.9 L5.0 13.05 0.4 13.05 0.4 12.9 5.0 12.9" fill="#ff6300" fill-rule="evenodd" stroke="none"/>
    <path d="M0.55 11.05 L0.55 10.85 4.95 10.85 4.95 11.05 0.55 11.05 M5.0 13.05 L5.0 13.25 0.4 13.25 0.4 13.05 5.0 13.05" fill="#983b00" fill-rule="evenodd" stroke="none"/>
    <path d="M4.45 2.15 L4.45 2.7 4.4 3.35 Q4.25 3.9 3.7 3.9 L1.7 3.9 Q1.15 3.9 1.0 3.35 L0.9 2.7 0.9 2.15 4.45 2.15" fill="#774d38" fill-rule="evenodd" stroke="none"/>
    <path d="M4.45 2.15 L0.9 2.15 0.9 1.2 Q0.9 0.0 1.7 0.0 L3.7 0.0 Q4.45 0.0 4.45 1.2 L4.45 2.15" fill="#bd6603" fill-rule="evenodd" stroke="none"/>
    <path d="M0.75 3.7 Q1.55 2.95 2.65 2.95 3.75 2.95 4.5 3.7 5.3 4.5 5.3 5.6 5.3 6.7 4.5 7.45 3.75 8.25 2.65 8.25 1.55 8.25 0.75 7.45 0.0 6.7 0.0 5.6 0.0 4.5 0.75 3.7" fill="url(#gradient0)" fill-rule="evenodd" stroke="none"/>
  </g>
  <defs>
    <radialGradient cx="0" cy="0" gradientTransform="matrix(0.0042, 0.0, 0.0, 0.0042, 2.65, 5.6)" gradientUnits="userSpaceOnUse" id="gradient0" r="819.2" spreadMethod="pad">
      <stop offset="0.0" stop-color="#ffc63a"/>
      <stop offset="0.7098039215686275" stop-color="#fea11e"/>
      <stop offset="1.0" stop-color="#fb7900"/>
    </radialGradient>
  </defs>
</svg>
