<?xml version="1.0" encoding="UTF-8" standalone="no"?>
<svg xmlns:xlink="http://www.w3.org/1999/xlink" height="126.6px" width="107.15px" xmlns="http://www.w3.org/2000/svg">
  <g transform="matrix(1.0, 0.0, 0.0, 1.0, 0.0, 0.0)">
    <path d="M66.65 98.5 L64.55 98.1 39.1 99.65 Q37.05 99.8 36.0 102.05 35.5 103.15 35.35 104.25 L33.35 123.4 0.0 126.6 17.8 3.6 69.3 0.0 107.15 120.8 74.0 122.3 69.1 102.15 Q68.8 99.4 66.65 98.5 M52.65 41.2 L51.75 39.65 Q50.55 38.05 49.0 37.9 46.2 37.7 44.2 38.45 43.35 38.8 42.55 39.85 41.7 41.05 41.5 42.5 L38.5 71.5 38.5 73.65 Q38.95 75.8 41.25 75.8 L57.5 75.05 59.45 74.75 Q61.25 73.9 60.35 71.0 L52.65 41.2" fill="#ff0000" fill-rule="evenodd" stroke="none"/>
  </g>
</svg>
