<?xml version="1.0" encoding="UTF-8" standalone="no"?>
<svg xmlns:xlink="http://www.w3.org/1999/xlink" height="61.25px" width="60.75px" xmlns="http://www.w3.org/2000/svg">
  <g transform="matrix(1.0, 0.0, 0.0, 1.0, 0.0, 0.0)">
    <path d="M53.85 0.0 L54.0 0.0 57.3 3.7 54.45 5.65 52.1 3.15 53.85 0.0" fill="#cdcdcc" fill-rule="evenodd" stroke="none"/>
    <path d="M57.3 3.7 L57.6 4.0 57.6 32.3 54.45 32.3 54.45 5.65 57.3 3.7 M11.15 34.55 L11.35 34.55 22.9 40.25 22.4 40.6 22.55 44.1 11.5 39.4 11.15 39.4 11.15 34.55 M39.25 0.0 L53.85 0.0 52.1 3.15 40.35 3.15 39.25 0.0" fill="#eaebea" fill-rule="evenodd" stroke="none"/>
    <path d="M54.45 5.65 L54.45 32.3 45.3 32.3 Q37.45 37.85 30.95 46.5 L31.05 55.9 5.35 55.9 3.15 54.25 3.15 43.7 8.05 39.4 11.15 39.4 11.5 39.4 22.55 44.1 23.4 43.85 27.9 42.1 Q35.8 38.4 38.55 31.65 L38.75 31.0 38.9 30.65 38.95 30.45 38.95 22.45 38.9 22.35 34.65 14.05 34.65 10.85 40.0 3.15 40.35 3.15 52.1 3.15 54.45 5.65 M45.45 5.65 Q43.05 5.65 41.35 7.35 39.65 9.05 39.65 11.45 39.65 13.85 41.35 15.55 43.05 17.25 45.45 17.25 47.85 17.25 49.55 15.55 51.25 13.85 51.25 11.45 51.25 9.05 49.55 7.35 47.85 5.65 45.45 5.65 M7.05 43.45 Q5.35 45.15 5.35 47.55 5.35 49.95 7.05 51.65 8.75 53.35 11.15 53.35 13.55 53.35 15.25 51.65 16.95 49.95 16.95 47.55 16.95 45.15 15.25 43.45 13.55 41.75 11.15 41.75 8.75 41.75 7.05 43.45" fill="#9d9d9d" fill-rule="evenodd" stroke="none"/>
    <path d="M45.45 5.65 Q47.85 5.65 49.55 7.35 51.25 9.05 51.25 11.45 51.25 13.85 49.55 15.55 47.85 17.25 45.45 17.25 43.05 17.25 41.35 15.55 39.65 13.85 39.65 11.45 39.65 9.05 41.35 7.35 43.05 5.65 45.45 5.65 M49.5 11.2 Q49.5 9.2 48.1 7.8 46.75 6.5 44.8 6.5 42.8 6.5 41.4 7.8 40.05 9.2 40.05 11.2 40.05 13.2 41.4 14.55 42.8 15.95 44.8 15.95 46.75 15.95 48.1 14.55 L48.35 14.3 48.9 13.55 Q49.5 12.5 49.5 11.2 M7.35 43.85 Q6.0 45.25 6.0 47.25 6.0 49.25 7.35 50.6 8.75 52.0 10.75 52.0 12.7 52.0 14.05 50.6 L14.3 50.35 14.85 49.6 Q15.45 48.55 15.45 47.25 15.45 45.25 14.05 43.85 12.7 42.55 10.75 42.55 8.75 42.55 7.35 43.85 M7.05 43.45 Q8.75 41.75 11.15 41.75 13.55 41.75 15.25 43.45 16.95 45.15 16.95 47.55 16.95 49.95 15.25 51.65 13.55 53.35 11.15 53.35 8.75 53.35 7.05 51.65 5.35 49.95 5.35 47.55 5.35 45.15 7.05 43.45" fill="#222a38" fill-rule="evenodd" stroke="none"/>
    <path d="M49.5 11.2 Q49.5 12.5 48.9 13.55 L48.35 14.3 48.1 14.55 Q46.75 15.95 44.8 15.95 42.8 15.95 41.4 14.55 40.05 13.2 40.05 11.2 40.05 9.2 41.4 7.8 42.8 6.5 44.8 6.5 46.75 6.5 48.1 7.8 49.5 9.2 49.5 11.2" fill="url(#gradient0)" fill-rule="evenodd" stroke="none"/>
    <path d="M57.6 33.7 L59.7 33.7 59.9 35.35 45.6 35.35 Q38.65 40.3 33.5 47.65 L33.05 59.9 32.15 59.75 32.15 58.55 32.15 55.9 32.15 47.25 Q38.1 39.05 45.55 33.7 L54.45 33.7 57.6 33.7" fill="url(#gradient1)" fill-rule="evenodd" stroke="none"/>
    <path d="M59.9 35.35 L60.65 42.15 60.75 46.65 Q60.6 50.5 59.65 52.9 L58.25 55.6 Q57.05 57.45 55.45 58.7 52.7 60.75 47.8 61.15 43.1 61.6 33.05 59.9 L33.5 47.65 Q38.65 40.3 45.6 35.35 L59.9 35.35 M51.25 41.1 Q49.6 40.25 47.65 40.25 44.5 40.25 42.25 42.4 40.45 44.25 40.15 46.65 L40.05 47.8 Q40.05 49.95 41.05 51.65 41.65 53.15 42.85 54.4 45.25 56.8 48.6 56.8 51.95 56.8 54.3 54.4 56.65 52.05 56.65 48.7 L56.55 47.5 Q56.2 44.95 54.3 42.95 52.95 41.65 51.25 41.1" fill="url(#gradient2)" fill-rule="evenodd" stroke="none"/>
    <path d="M51.25 41.1 Q52.95 41.65 54.3 42.95 56.2 44.95 56.55 47.5 L56.65 48.7 Q56.65 52.05 54.3 54.4 51.95 56.8 48.6 56.8 45.25 56.8 42.85 54.4 41.65 53.15 41.05 51.65 L42.25 53.15 Q44.5 55.4 47.65 55.4 50.8 55.4 53.0 53.15 55.2 50.95 55.2 47.8 L55.15 46.65 Q54.8 44.25 53.0 42.4 L51.25 41.1" fill="url(#gradient3)" fill-rule="evenodd" stroke="none"/>
    <path d="M0.6 56.1 L0.0 42.55 3.15 43.7 3.15 54.25 3.15 54.95 0.6 56.1 M30.35 10.85 L38.85 0.0 39.25 0.0 40.35 3.15 40.0 3.15 34.65 10.85 30.35 10.85" fill="#373937" fill-rule="evenodd" stroke="none"/>
    <path d="M35.7 22.35 L35.65 22.35 31.55 15.95 34.65 14.05 38.9 22.35 35.7 22.35" fill="#50504f" fill-rule="evenodd" stroke="none"/>
    <path d="M35.7 30.65 L35.7 22.35 38.9 22.35 38.95 22.45 38.95 30.45 38.9 30.65 35.7 30.65" fill="#353535" fill-rule="evenodd" stroke="none"/>
    <path d="M0.0 42.55 L6.75 35.25 8.05 39.4 3.15 43.7 0.0 42.55 M31.55 15.95 L31.2 15.4 30.35 10.85 34.65 10.85 34.65 14.05 31.55 15.95" fill="#5b5c5b" fill-rule="evenodd" stroke="none"/>
    <path d="M6.75 35.25 L7.35 34.55 11.15 34.55 11.15 39.4 8.05 39.4 6.75 35.25" fill="#8b8b8b" fill-rule="evenodd" stroke="none"/>
    <path d="M7.35 43.85 Q8.75 42.55 10.75 42.55 12.7 42.55 14.05 43.85 15.45 45.25 15.45 47.25 15.45 48.55 14.85 49.6 L14.3 50.35 14.05 50.6 Q12.7 52.0 10.75 52.0 8.75 52.0 7.35 50.6 6.0 49.25 6.0 47.25 6.0 45.25 7.35 43.85" fill="url(#gradient4)" fill-rule="evenodd" stroke="none"/>
    <path d="M22.9 40.25 L23.4 40.15 Q25.85 39.5 27.9 38.55 33.05 36.0 35.5 31.0 L35.7 30.65 38.9 30.65 38.75 31.0 38.55 31.65 Q35.8 38.4 27.9 42.1 L23.4 43.85 22.55 44.1 22.4 40.6 22.9 40.25" fill="#343434" fill-rule="evenodd" stroke="none"/>
    <path d="M31.05 58.55 L3.85 58.55 5.35 55.9 31.05 55.9 31.05 58.55" fill="#4f4f4e" fill-rule="evenodd" stroke="none"/>
    <path d="M3.85 58.55 L3.75 58.55 0.6 56.15 0.6 56.1 3.15 54.95 3.15 54.25 5.35 55.9 3.85 58.55" fill="#2b2b2a" fill-rule="evenodd" stroke="none"/>
    <path d="M31.05 55.9 L30.95 46.5 Q37.45 37.85 45.3 32.3 L54.45 32.3 54.45 33.7 45.55 33.7 Q38.1 39.05 32.15 47.25 L32.15 55.9 31.05 55.9" fill="#595959" fill-rule="evenodd" stroke="none"/>
    <path d="M57.6 32.3 L57.6 33.7 54.45 33.7 54.45 32.3 57.6 32.3" fill="#a2a3a0" fill-rule="evenodd" stroke="none"/>
    <path d="M32.15 58.55 L31.05 58.55 31.05 55.9 32.15 55.9 32.15 58.55" fill="#1a1a1a" fill-rule="evenodd" stroke="none"/>
    <path d="M41.05 51.65 Q40.05 49.95 40.05 47.8 L40.15 46.65 Q40.45 44.25 42.25 42.4 44.5 40.25 47.65 40.25 49.6 40.25 51.25 41.1 L53.0 42.4 Q54.8 44.25 55.15 46.65 L55.2 47.8 Q55.2 50.95 53.0 53.15 50.8 55.4 47.65 55.4 44.5 55.4 42.25 53.15 L41.05 51.65" fill="url(#gradient5)" fill-rule="evenodd" stroke="none"/>
    <path d="M51.3 47.45 Q52.1 48.25 52.1 49.35 52.1 50.45 51.3 51.2 50.55 52.0 49.45 52.0 48.35 52.0 47.55 51.2 46.8 50.45 46.8 49.35 46.8 48.25 47.55 47.45 48.35 46.7 49.45 46.7 50.55 46.7 51.3 47.45" fill="#ffffff" fill-rule="evenodd" stroke="none"/>
  </g>
  <defs>
    <radialGradient cx="0" cy="0" gradientTransform="matrix(0.0076, 0.0, 0.0, 0.0076, 45.3, 12.15)" gradientUnits="userSpaceOnUse" id="gradient0" r="819.2" spreadMethod="pad">
      <stop offset="0.0" stop-color="#98ff25"/>
      <stop offset="0.6588235294117647" stop-color="#295d00"/>
      <stop offset="1.0" stop-color="#66ff00"/>
    </radialGradient>
    <radialGradient cx="0" cy="0" gradientTransform="matrix(0.0248, 0.0, 0.0, 0.0239, 49.35, 52.05)" gradientUnits="userSpaceOnUse" id="gradient1" r="819.2" spreadMethod="pad">
      <stop offset="0.0" stop-color="#fdd9a4"/>
      <stop offset="0.396078431372549" stop-color="#eecfa2"/>
      <stop offset="0.6" stop-color="#fde2a4"/>
      <stop offset="1.0" stop-color="#fbf095"/>
    </radialGradient>
    <radialGradient cx="0" cy="0" gradientTransform="matrix(0.0248, 0.0, 0.0, 0.0239, 49.35, 52.05)" gradientUnits="userSpaceOnUse" id="gradient2" r="819.2" spreadMethod="pad">
      <stop offset="0.0" stop-color="#fbba33"/>
      <stop offset="0.396078431372549" stop-color="#da952e"/>
      <stop offset="0.6" stop-color="#fbc851"/>
      <stop offset="1.0" stop-color="#ccb809"/>
    </radialGradient>
    <radialGradient cx="0" cy="0" gradientTransform="matrix(0.0248, 0.0, 0.0, 0.0239, 49.35, 52.05)" gradientUnits="userSpaceOnUse" id="gradient3" r="819.2" spreadMethod="pad">
      <stop offset="0.0" stop-color="#ae6904"/>
      <stop offset="0.396078431372549" stop-color="#7b5215"/>
      <stop offset="0.6" stop-color="#745203"/>
      <stop offset="1.0" stop-color="#595104"/>
    </radialGradient>
    <radialGradient cx="0" cy="0" gradientTransform="matrix(0.0067, 0.0, 0.0, 0.0067, 11.2, 47.2)" gradientUnits="userSpaceOnUse" id="gradient4" r="819.2" spreadMethod="pad">
      <stop offset="0.0" stop-color="#98ff25"/>
      <stop offset="0.6588235294117647" stop-color="#295d00"/>
      <stop offset="1.0" stop-color="#66ff00"/>
    </radialGradient>
    <radialGradient cx="0" cy="0" gradientTransform="matrix(0.0098, 0.0018, -0.0019, 0.0105, 47.8, 47.55)" gradientUnits="userSpaceOnUse" id="gradient5" r="819.2" spreadMethod="pad">
      <stop offset="0.0" stop-color="#98ff25"/>
      <stop offset="0.6588235294117647" stop-color="#295d00"/>
      <stop offset="1.0" stop-color="#66ff00"/>
    </radialGradient>
  </defs>
</svg>
