<?xml version="1.0" encoding="UTF-8" standalone="no"?>
<svg xmlns:xlink="http://www.w3.org/1999/xlink" height="126.6px" width="108.25px" xmlns="http://www.w3.org/2000/svg">
  <g transform="matrix(1.0, 0.0, 0.0, 1.0, 0.0, 0.0)">
    <path d="M66.8 98.45 L64.7 98.05 40.25 99.65 Q38.2 99.8 37.15 102.0 36.65 103.15 36.5 104.2 L34.5 123.4 0.0 126.6 18.95 3.65 70.55 0.0 108.25 120.8 74.0 122.25 69.25 102.15 Q68.95 99.35 66.8 98.45 M53.75 41.15 L52.9 39.6 Q51.7 38.05 50.15 37.9 47.25 37.7 45.35 38.4 44.5 38.75 43.7 39.85 42.85 41.05 42.65 42.5 L39.65 71.45 39.65 73.65 Q40.1 75.8 42.4 75.8 L58.65 75.0 60.6 74.75 Q62.4 73.9 61.5 71.0 L53.75 41.15" fill="#ff0000" fill-rule="evenodd" stroke="none"/>
  </g>
</svg>
