<?xml version="1.0" encoding="UTF-8" standalone="no"?>
<svg xmlns:xlink="http://www.w3.org/1999/xlink" height="8.45px" width="16.9px" xmlns="http://www.w3.org/2000/svg">
  <g transform="matrix(1.0, 0.0, 0.0, 1.0, -6.65, -22.05)">
    <path d="M7.8 30.5 L6.65 30.5 Q6.65 27.0 9.1 24.5 11.6 22.05 15.05 22.05 18.6 22.05 21.05 24.5 23.55 27.0 23.55 30.5 L22.25 30.5 Q22.25 27.55 20.15 25.4 18.05 23.35 15.05 23.35 12.05 23.35 9.9 25.4 7.8 27.55 7.8 30.5" fill="#ff6600" fill-opacity="0.49803922" fill-rule="evenodd" stroke="none"/>
    <path d="M19.4 30.5 L17.85 30.5 Q17.85 29.35 17.0 28.5 16.2 27.7 15.05 27.7 13.85 27.7 13.0 28.5 12.25 29.35 12.25 30.5 L10.6 30.5 Q10.6 28.7 11.9 27.4 13.15 26.15 15.0 26.15 16.85 26.15 18.1 27.4 19.4 28.7 19.4 30.5" fill="#ffff5d" fill-rule="evenodd" stroke="none"/>
    <path d="M17.85 30.5 L12.25 30.5 Q12.25 29.35 13.0 28.5 13.85 27.7 15.05 27.7 16.2 27.7 17.0 28.5 17.85 29.35 17.85 30.5" fill="#ffffff" fill-rule="evenodd" stroke="none"/>
    <path d="M21.1 30.5 L19.4 30.5 Q19.4 28.7 18.1 27.4 16.85 26.15 15.0 26.15 13.15 26.15 11.9 27.4 10.6 28.7 10.6 30.5 L9.0 30.5 Q9.0 28.0 10.75 26.2 12.55 24.5 15.05 24.5 17.6 24.5 19.3 26.2 21.1 28.0 21.1 30.5" fill="#ffcc00" fill-rule="evenodd" stroke="none"/>
    <path d="M7.8 30.5 Q7.8 27.55 9.9 25.4 12.05 23.35 15.05 23.35 18.05 23.35 20.15 25.4 22.25 27.55 22.25 30.5 L21.1 30.5 Q21.1 28.0 19.3 26.2 17.6 24.5 15.05 24.5 12.55 24.5 10.75 26.2 9.0 28.0 9.0 30.5 L7.8 30.5" fill="#ff6600" fill-rule="evenodd" stroke="none"/>
  </g>
</svg>
