<?xml version="1.0" encoding="UTF-8" standalone="no"?>
<svg xmlns:xlink="http://www.w3.org/1999/xlink" height="20.9px" width="36.95px" xmlns="http://www.w3.org/2000/svg">
  <g transform="matrix(1.0, 0.0, 0.0, 1.0, 3.35, -9.6)">
    <path d="M-1.15 30.5 L-3.35 30.5 Q-3.35 21.9 2.0 15.7 7.45 9.6 15.1 9.6 22.8 9.6 28.15 15.7 33.6 21.9 33.6 30.5 L31.25 30.5 Q31.25 22.95 26.45 17.45 21.85 12.25 15.0 12.25 8.4 12.25 3.65 17.45 -1.15 22.95 -1.15 30.5" fill="#ff6600" fill-opacity="0.49803922" fill-rule="evenodd" stroke="none"/>
    <path d="M26.95 30.5 L24.6 30.5 Q24.6 29.05 24.25 27.75 23.6 25.2 21.8 23.15 19.1 20.05 15.15 20.05 11.3 20.05 8.5 23.15 5.75 26.25 5.7 30.5 L3.15 30.5 Q3.15 24.95 6.7 20.9 10.2 17.05 15.05 17.05 20.05 17.05 23.45 20.9 26.95 24.95 26.95 30.5" fill="#ffff5d" fill-rule="evenodd" stroke="none"/>
    <path d="M24.55 30.5 L5.7 30.5 Q5.75 26.25 8.5 23.15 11.3 20.05 15.15 20.05 19.1 20.05 21.8 23.15 23.6 25.2 24.25 27.75 L24.55 30.5" fill="#ffffff" fill-rule="evenodd" stroke="none"/>
    <path d="M29.6 30.5 L26.95 30.5 Q26.95 24.95 23.45 20.9 20.05 17.05 15.05 17.05 10.2 17.05 6.7 20.9 3.15 24.95 3.15 30.5 L0.45 30.5 Q0.45 23.8 4.75 18.85 9.05 14.15 15.0 14.15 21.15 14.15 25.3 18.85 29.6 23.8 29.6 30.5 M24.6 30.5 L24.55 30.5 24.25 27.75 Q24.6 29.05 24.6 30.5" fill="#ffcc00" fill-rule="evenodd" stroke="none"/>
    <path d="M31.25 30.5 L29.6 30.5 Q29.6 23.8 25.3 18.85 21.15 14.15 15.0 14.15 9.05 14.15 4.75 18.85 0.45 23.8 0.45 30.5 L-1.15 30.5 Q-1.15 22.95 3.65 17.45 8.4 12.25 15.0 12.25 21.85 12.25 26.45 17.45 31.25 22.95 31.25 30.5" fill="#ff6600" fill-rule="evenodd" stroke="none"/>
  </g>
</svg>
