<?xml version="1.0" encoding="UTF-8" standalone="no"?>
<svg xmlns:xlink="http://www.w3.org/1999/xlink" height="30.5px" width="33.95px" xmlns="http://www.w3.org/2000/svg">
  <g transform="matrix(1.0, 0.0, 0.0, 1.0, 1.9, 0.0)">
    <path d="M23.8 30.1 L23.8 30.5 23.75 30.5 23.75 30.1 23.7 29.6 23.45 28.1 23.8 30.1" fill="#ffcc00" fill-rule="evenodd" stroke="none"/>
    <path d="M26.0 30.5 L26.0 18.05 25.95 18.05 25.95 17.65 Q25.85 13.05 22.75 9.75 19.6 6.45 15.0 6.45 10.55 6.45 7.35 9.75 4.25 13.05 4.1 17.65 L4.1 18.05 4.1 30.5 1.6 30.5 1.6 17.95 1.6 17.65 Q1.75 12.1 5.55 8.0 9.5 3.9 14.95 3.9 20.6 3.9 24.45 8.0 28.15 12.05 28.35 17.4 L28.35 17.65 28.35 18.05 28.35 30.5 26.0 30.5" fill="#ffcc00" fill-rule="evenodd" stroke="none"/>
    <path d="M4.1 30.5 L4.1 18.05 4.1 17.65 Q4.25 13.05 7.35 9.75 10.55 6.45 15.0 6.45 19.6 6.45 22.75 9.75 25.85 13.05 25.95 17.65 L25.95 18.05 26.0 18.05 26.0 30.5 23.6 30.5 23.6 18.05 23.75 18.05 23.8 18.05 23.8 17.65 23.45 15.65 Q22.85 13.45 21.2 11.7 18.75 9.0 15.1 9.0 11.55 9.0 9.0 11.7 6.75 14.1 6.5 17.3 L6.45 17.65 6.45 18.05 6.35 18.05 6.35 30.5 4.1 30.5" fill="#ffff5d" fill-rule="evenodd" stroke="none"/>
    <path d="M28.35 30.5 L28.35 18.05 28.35 17.65 28.35 17.4 Q28.15 12.05 24.45 8.0 20.6 3.9 14.95 3.9 9.5 3.9 5.55 8.0 1.75 12.1 1.6 17.65 L1.6 17.95 1.6 30.5 0.1 30.5 0.1 18.05 0.15 18.05 0.15 17.8 0.15 17.65 Q0.3 11.35 4.55 6.75 8.9 2.25 14.95 2.25 21.25 2.25 25.5 6.75 29.75 11.35 29.9 17.65 L29.9 18.05 29.85 18.05 29.85 30.5 28.35 30.5" fill="#ff6600" fill-rule="evenodd" stroke="none"/>
    <path d="M29.85 30.5 L29.85 18.05 29.9 18.05 29.9 17.65 Q29.75 11.35 25.5 6.75 21.25 2.25 14.95 2.25 8.9 2.25 4.55 6.75 0.3 11.35 0.15 17.65 L0.15 17.8 0.15 18.05 0.1 18.05 0.1 30.5 -1.9 30.5 -1.9 18.05 -1.9 17.65 Q-1.75 10.45 3.05 5.25 8.05 0.0 15.05 0.0 22.15 0.0 27.05 5.25 31.7 10.25 32.05 17.0 L32.05 17.65 32.05 18.05 32.0 18.05 32.0 30.5 29.85 30.5" fill="#ff6600" fill-opacity="0.49803922" fill-rule="evenodd" stroke="none"/>
    <path d="M6.35 30.5 L6.35 18.05 6.45 18.05 6.45 17.65 6.5 17.3 Q6.75 14.1 9.0 11.7 11.55 9.0 15.1 9.0 18.75 9.0 21.2 11.7 22.85 13.45 23.45 15.65 L23.7 17.15 23.75 17.65 23.75 18.05 23.6 18.05 23.6 30.5 6.35 30.5" fill="#ffffff" fill-rule="evenodd" stroke="none"/>
  </g>
</svg>
