<?xml version="1.0" encoding="UTF-8" standalone="no"?>
<svg xmlns:xlink="http://www.w3.org/1999/xlink" height="30.8px" width="34.65px" xmlns="http://www.w3.org/2000/svg">
  <g transform="matrix(1.0, 0.0, 0.0, 1.0, 1.0, 1.0)">
    <path d="M32.45 8.85 L32.65 9.55 32.6 10.25 32.2 10.75 31.9 10.85 Q32.15 11.3 32.0 11.95 L31.85 12.3 31.8 12.35 31.6 12.6 31.5 12.75 31.4 12.8 31.35 12.85 30.2 12.95 30.05 12.95 29.85 13.05 29.95 13.6 Q29.95 14.3 29.4 14.8 L28.75 15.25 Q29.15 15.75 29.15 16.35 29.15 17.05 28.6 17.55 L28.0 18.0 Q28.55 18.55 28.55 19.25 28.55 19.95 28.0 20.45 L27.5 20.85 27.3 21.85 26.2 26.95 25.8 27.35 25.4 27.55 Q24.25 27.25 24.65 22.15 L24.7 21.85 23.9 22.05 23.6 22.05 23.1 24.5 22.7 24.9 22.3 25.1 Q21.8 24.95 21.6 23.95 L21.45 23.95 Q20.75 23.95 20.2 23.4 L20.0 23.15 19.9 23.2 Q19.4 23.75 18.7 23.75 18.0 23.75 17.45 23.2 L17.1 22.65 Q16.6 23.15 15.9 23.15 L15.45 23.1 15.7 28.05 15.45 28.5 15.05 28.8 Q13.9 28.8 12.95 23.8 L12.65 21.75 12.05 21.3 12.0 21.25 11.9 21.3 12.1 24.6 11.85 25.05 11.45 25.35 Q10.4 25.35 9.55 21.25 L9.4 21.25 7.35 21.6 6.7 21.75 6.4 23.25 6.25 22.5 6.25 21.85 5.35 21.9 4.65 21.45 4.4 20.9 Q2.4 21.65 1.05 22.8 1.75 21.65 3.2 20.85 3.75 20.55 4.35 20.3 L4.45 19.8 2.75 19.6 Q0.85 19.6 0.0 20.15 L0.0 20.1 Q1.35 19.1 1.85 18.95 L3.9 18.85 4.55 18.9 3.75 17.85 3.5 17.4 3.45 17.25 3.0 16.1 2.85 15.75 Q2.5 14.9 2.5 14.45 2.5 13.15 3.7 11.35 L3.7 11.2 3.85 11.1 4.85 9.5 5.2 9.0 5.4 8.65 5.45 8.6 5.5 8.55 5.6 8.35 5.05 8.5 0.45 9.65 0.05 9.25 Q0.05 8.05 3.15 6.1 5.0 4.9 6.25 4.6 L5.5 4.3 5.15 3.85 5.05 3.5 5.25 3.1 5.5 2.65 6.15 1.75 7.05 1.4 8.05 1.05 8.4 0.6 Q8.8 0.25 9.3 0.25 9.75 0.25 10.65 0.8 L11.5 0.2 12.75 0.25 13.25 0.5 13.65 1.1 13.7 1.7 13.95 1.85 14.0 1.75 Q14.55 1.25 15.25 1.25 15.95 1.25 16.45 1.75 L16.85 2.35 17.1 2.3 Q17.55 1.95 18.15 1.95 18.75 1.95 19.2 2.3 L20.05 2.4 20.2 2.2 Q20.75 1.7 21.45 1.7 22.15 1.7 22.65 2.2 23.15 2.7 23.2 3.3 L23.75 3.2 24.6 3.4 24.95 3.7 25.1 3.85 25.3 4.15 25.5 4.95 25.5 5.3 25.95 5.75 26.35 5.7 Q27.05 5.7 27.55 6.2 28.1 6.75 28.1 7.45 L28.1 7.55 28.25 7.45 29.35 7.35 29.5 7.35 30.2 7.95 30.25 8.0 30.35 8.35 30.4 8.3 31.55 8.2 Q32.15 8.3 32.45 8.85" fill="#000000" fill-rule="evenodd" stroke="none"/>
    <path d="M32.45 8.85 L32.65 9.55 32.6 10.25 32.2 10.75 31.9 10.85 Q32.15 11.3 32.0 11.95 L31.85 12.3 31.8 12.35 31.6 12.6 31.5 12.75 31.4 12.8 31.35 12.85 30.2 12.95 30.05 12.95 29.85 13.05 29.95 13.6 Q29.95 14.3 29.4 14.8 L28.75 15.25 Q29.15 15.75 29.15 16.35 29.15 17.05 28.6 17.55 L28.0 18.0 Q28.55 18.55 28.55 19.25 28.55 19.95 28.0 20.45 L27.5 20.85 27.3 21.85 26.2 26.95 25.8 27.35 25.4 27.55 Q24.25 27.25 24.65 22.15 L24.7 21.85 23.9 22.05 23.6 22.05 23.1 24.5 22.7 24.9 22.3 25.1 Q21.8 24.95 21.6 23.95 L21.45 23.95 Q20.75 23.95 20.2 23.4 L20.0 23.15 19.9 23.2 Q19.4 23.75 18.7 23.75 18.0 23.75 17.45 23.2 L17.1 22.65 Q16.6 23.15 15.9 23.15 L15.45 23.1 15.7 28.05 15.45 28.5 15.05 28.8 Q13.9 28.8 12.95 23.8 L12.65 21.75 12.05 21.3 12.0 21.25 11.9 21.3 12.1 24.6 11.85 25.05 11.45 25.35 Q10.4 25.35 9.55 21.25 L9.4 21.25 7.35 21.6 6.7 21.75 6.4 23.25 6.25 22.5 6.25 21.85 5.35 21.9 4.65 21.45 4.4 20.9 Q2.4 21.65 1.05 22.8 1.75 21.65 3.2 20.85 3.75 20.55 4.35 20.3 L4.45 19.8 2.75 19.6 Q0.85 19.6 0.0 20.15 L0.0 20.1 Q1.35 19.1 1.85 18.95 L3.9 18.85 4.55 18.9 3.75 17.85 3.5 17.4 3.45 17.25 3.0 16.1 2.85 15.75 Q2.5 14.9 2.5 14.45 2.5 13.15 3.7 11.35 L3.7 11.2 3.85 11.1 4.85 9.5 5.2 9.0 5.4 8.65 5.45 8.6 5.5 8.55 5.6 8.35 5.05 8.5 0.45 9.65 0.05 9.25 Q0.05 8.05 3.15 6.1 5.0 4.9 6.25 4.6 L5.5 4.3 5.15 3.85 5.05 3.5 5.25 3.1 5.5 2.65 6.15 1.75 7.05 1.4 8.05 1.05 8.4 0.6 Q8.8 0.25 9.3 0.25 9.75 0.25 10.65 0.8 L11.5 0.2 12.75 0.25 13.25 0.5 13.65 1.1 13.7 1.7 13.95 1.85 14.0 1.75 Q14.55 1.25 15.25 1.25 15.95 1.25 16.45 1.75 L16.85 2.35 17.1 2.3 Q17.55 1.95 18.15 1.95 18.75 1.95 19.2 2.3 L20.05 2.4 20.2 2.2 Q20.75 1.7 21.45 1.7 22.15 1.7 22.65 2.2 23.15 2.7 23.2 3.3 L23.75 3.2 24.6 3.4 24.95 3.7 25.1 3.85 25.3 4.15 25.5 4.95 25.5 5.3 25.95 5.75 26.35 5.7 Q27.05 5.7 27.55 6.2 28.1 6.75 28.1 7.45 L28.1 7.55 28.25 7.45 29.35 7.35 29.5 7.35 30.2 7.95 30.25 8.0 30.35 8.35 30.4 8.3 31.55 8.2 Q32.15 8.3 32.45 8.85 Z" fill="none" stroke="#000000" stroke-linecap="round" stroke-linejoin="round" stroke-width="2.0"/>
  </g>
</svg>
