<?xml version="1.0" encoding="UTF-8" standalone="no"?>
<svg xmlns:xlink="http://www.w3.org/1999/xlink" height="66.7px" width="705.0px" xmlns="http://www.w3.org/2000/svg">
  <g transform="matrix(1.0, 0.0, 0.0, 1.0, 0.0, 0.0)">
    <path d="M125.65 8.35 Q127.9 10.5 128.2 13.95 L131.3 49.55 Q98.8 45.4 70.6 40.45 28.2 32.95 0.0 24.2 0.15 21.55 1.7 19.55 3.95 16.85 7.75 16.55 L119.05 6.25 119.95 6.2 Q123.35 6.2 125.65 8.35" fill="#ffffff" fill-rule="evenodd" stroke="none"/>
    <path d="M367.35 12.35 Q377.05 19.1 382.85 31.25 388.7 43.4 389.95 59.35 L390.1 66.45 347.95 65.55 341.75 65.35 Q340.6 55.4 330.1 51.5 326.85 50.3 323.0 49.85 L319.85 49.6 320.75 64.6 264.4 61.75 259.4 10.65 Q259.15 6.9 261.3 4.35 263.5 1.8 267.25 1.5 L302.25 0.0 Q309.75 0.0 317.2 0.4 335.4 1.35 347.65 4.25 359.9 7.2 367.35 12.35" fill="#ffffff" fill-rule="evenodd" stroke="none"/>
    <path d="M587.95 7.0 Q600.05 10.45 607.3 15.95 615.6 22.3 620.7 32.75 625.8 43.2 627.25 56.75 L626.25 56.85 577.65 61.45 Q574.5 54.6 566.05 52.1 563.4 51.35 560.55 51.1 L558.2 51.0 558.15 62.85 502.5 65.5 499.55 9.4 Q499.45 5.65 501.7 3.2 504.0 0.75 507.75 0.6 516.9 0.3 525.3 0.3 L557.7 1.75 Q575.85 3.5 587.95 7.0" fill="#ffffff" fill-rule="evenodd" stroke="none"/>
    <path d="M456.15 28.95 Q458.85 28.95 460.95 30.55 463.0 32.15 463.8 34.85 L473.6 66.25 Q435.05 67.0 395.65 66.5 L399.8 39.45 Q400.15 36.5 402.15 34.55 404.15 32.55 407.1 32.3 L456.15 28.95" fill="#ffffff" fill-rule="evenodd" stroke="none"/>
    <path d="M220.8 28.95 Q223.5 28.95 225.6 30.55 227.65 32.15 228.45 34.85 L236.3 59.85 Q197.3 57.05 162.45 53.25 L164.45 39.45 Q164.8 36.5 166.8 34.55 168.8 32.55 171.75 32.3 L220.8 28.95" fill="#ffffff" fill-rule="evenodd" stroke="none"/>
    <path d="M694.8 28.95 Q697.5 28.95 699.6 30.55 701.65 32.15 702.45 34.85 L705.0 42.9 Q678.1 50.35 635.95 55.65 L638.45 39.45 Q638.85 36.5 640.85 34.55 642.85 32.55 645.75 32.3 L694.8 28.95" fill="#ffffff" fill-rule="evenodd" stroke="none"/>
  </g>
</svg>
