<?xml version="1.0" encoding="UTF-8" standalone="no"?>
<svg xmlns:xlink="http://www.w3.org/1999/xlink" height="42.45px" width="53.4px" xmlns="http://www.w3.org/2000/svg">
  <g transform="matrix(1.0, 0.0, 0.0, 1.0, 0.0, 19.5)">
    <path d="M0.0 -0.15 L0.0 -1.8 0.05 -1.8 2.85 -3.7 3.55 -3.75 3.9 -3.4 4.2 -3.3 6.45 -1.9 9.25 -3.75 9.95 -3.85 10.45 -3.3 12.5 -2.05 15.3 -3.85 16.0 -3.9 16.4 -3.5 16.5 -3.45 18.75 -2.1 19.0 -2.25 19.0 -0.45 16.25 -0.4 16.4 -0.5 15.85 -0.85 15.6 -1.0 14.9 -0.5 15.05 -0.4 9.95 -0.3 10.15 -0.45 9.6 -0.75 9.45 -0.85 8.85 -0.4 9.05 -0.3 3.95 -0.25 4.1 -0.35 3.55 -0.7 3.25 -0.95 2.45 -0.3 2.55 -0.25 0.0 -0.15 M19.0 0.85 L19.0 1.1 18.8 0.95 16.65 2.45 16.55 2.5 16.15 2.9 15.45 2.85 12.55 1.0 10.6 2.35 10.1 2.95 Q9.75 3.2 9.4 2.95 L6.5 1.15 4.35 2.6 4.05 2.7 3.7 3.05 3.0 3.0 0.1 1.25 0.0 1.35 0.0 1.1 0.1 1.0 3.0 2.75 3.7 2.8 4.05 2.45 4.35 2.35 6.5 0.9 9.4 2.7 Q9.75 2.95 10.1 2.7 L10.6 2.1 12.55 0.75 15.45 2.6 16.15 2.65 16.55 2.25 16.65 2.2 18.8 0.7 19.0 0.85" fill="#0c100f" fill-rule="evenodd" stroke="none"/>
    <path d="M19.0 -0.45 L19.0 0.85 18.8 0.7 16.65 2.2 16.55 2.25 16.15 2.65 15.45 2.6 12.55 0.75 10.6 2.1 10.1 2.7 Q9.75 2.95 9.4 2.7 L6.5 0.9 4.35 2.35 4.05 2.45 3.7 2.8 3.0 2.75 0.1 1.0 0.0 1.1 0.0 -0.15 2.55 -0.25 3.0 -0.25 3.3 -0.05 3.55 -0.25 3.95 -0.25 9.05 -0.3 9.35 -0.3 9.5 -0.25 9.6 -0.3 9.95 -0.3 15.05 -0.4 15.45 -0.4 15.65 -0.25 15.85 -0.4 16.25 -0.4 19.0 -0.45" fill="#4f5b56" fill-rule="evenodd" stroke="none"/>
    <path d="M18.6 -10.65 L17.2 -14.8 20.15 -9.75 22.5 -14.95 22.95 -8.2 26.85 -16.65 26.1 -8.8 34.15 -19.5 27.85 -5.0 37.0 -9.85 Q31.7 -5.05 21.9 5.5 L31.95 -6.2 25.0 -2.1 28.25 -9.4 25.2 -6.25 25.4 -10.95 22.7 -6.5 21.65 -11.55 20.55 -5.5 18.6 -10.65" fill="#ff9900" fill-rule="evenodd" stroke="none"/>
    <path d="M21.9 5.5 L27.55 -2.7 22.35 0.95 27.05 -7.2 22.95 -1.75 24.5 -8.0 22.5 -3.5 21.45 -8.3 21.25 -1.25 18.6 -10.65 20.55 -5.5 21.65 -11.55 22.7 -6.5 25.4 -10.95 25.2 -6.25 28.25 -9.4 25.0 -2.1 31.95 -6.2 21.9 5.5" fill="#ff6600" fill-rule="evenodd" stroke="none"/>
    <path d="M26.35 -7.65 L29.9 9.0 25.4 1.25 24.55 10.05 23.4 5.4 20.95 10.0 20.7 4.3 17.1 8.55 19.3 2.15 14.0 6.6 15.2 5.55 22.1 -1.45 18.65 5.35 22.15 1.3 21.6 6.7 23.5 -0.25 24.6 7.35 24.45 -3.05 27.5 3.2 26.35 -7.65" fill="#ff6600" fill-rule="evenodd" stroke="none"/>
    <path d="M14.0 6.6 L19.3 2.15 17.1 8.55 20.7 4.3 20.95 10.0 23.4 5.4 24.55 10.05 25.4 1.25 29.9 9.0 26.35 -7.65 Q30.2 7.6 32.8 15.1 L26.5 5.65 24.9 22.95 22.85 8.35 19.4 16.25 20.05 6.1 16.05 12.3 16.7 6.0 10.95 9.25 14.0 6.6" fill="#ff9900" fill-rule="evenodd" stroke="none"/>
    <path d="M31.15 -8.5 L40.35 -11.5 37.3 -6.85 46.25 -5.7 36.0 -1.65 43.25 1.15 35.15 4.05 42.5 8.35 30.7 6.6 36.3 14.8 28.0 4.95 36.85 6.35 31.7 3.5 40.0 0.7 31.4 -1.25 39.4 -4.25 33.35 -5.05 37.35 -9.55 31.15 -8.5" fill="#ff6600" fill-rule="evenodd" stroke="none"/>
    <path d="M36.3 14.8 L30.7 6.6 42.5 8.35 35.15 4.05 43.25 1.15 36.0 -1.65 46.25 -5.7 37.3 -6.85 40.35 -11.5 31.15 -8.5 45.95 -17.0 39.9 -7.9 53.4 -7.6 39.4 -2.0 49.5 1.75 37.5 4.25 48.8 10.5 32.7 7.85 38.85 17.75 36.3 14.8" fill="#ff9900" fill-rule="evenodd" stroke="none"/>
  </g>
</svg>
