<?xml version="1.0" encoding="UTF-8" standalone="no"?>
<svg xmlns:xlink="http://www.w3.org/1999/xlink" height="7.95px" width="43.6px" xmlns="http://www.w3.org/2000/svg">
  <g transform="matrix(1.0, 0.0, 0.0, 1.0, -0.35, 4.3)">
    <path d="M4.7 0.1 L4.95 -0.15 4.2 -0.6 4.1 -0.65 3.3 -0.15 3.7 0.15 0.35 0.2 0.35 -2.1 0.8 -1.8 3.5 -3.75 Q3.85 -3.95 4.25 -3.75 L4.35 -3.65 4.9 -3.55 7.45 -1.9 10.15 -3.85 Q10.5 -4.1 10.9 -3.85 L11.05 -3.8 11.2 -3.7 13.75 -2.0 16.45 -3.95 Q16.8 -4.2 17.2 -3.95 L17.3 -3.9 17.7 -3.75 20.25 -2.15 22.95 -4.05 Q23.35 -4.3 23.7 -4.05 L23.85 -3.95 24.0 -3.85 26.55 -2.2 29.25 -4.15 30.0 -4.2 30.45 -3.6 30.9 -3.45 33.55 -1.75 36.15 -3.6 36.75 -3.75 37.2 -3.6 39.85 -1.85 42.45 -3.7 43.2 -3.75 43.75 -2.95 43.8 -1.75 Q43.65 -1.1 43.3 -0.85 L42.55 -0.25 42.35 -0.4 42.5 -0.5 37.2 -0.45 37.35 -0.35 37.2 -0.2 36.7 -0.55 36.25 -0.15 36.05 -0.3 36.2 -0.4 30.9 -0.3 31.05 -0.2 30.9 -0.1 30.2 -0.6 29.75 -1.1 29.05 -0.55 29.4 -0.35 23.8 -0.2 24.05 -0.45 23.4 -0.9 22.75 -0.45 23.15 -0.2 17.45 -0.1 17.75 -0.35 17.0 -0.85 16.25 -0.35 16.65 -0.1 10.9 0.0 11.25 -0.3 10.6 -0.7 9.95 -0.25 10.35 0.0 4.7 0.1 M43.95 1.7 L43.9 2.55 43.35 3.35 42.6 3.4 39.9 1.6 37.35 3.4 36.9 3.5 36.3 3.5 33.6 1.7 31.05 3.55 Q30.65 3.8 30.3 3.55 L29.95 3.15 29.4 3.1 26.6 1.25 24.15 3.0 24.0 3.05 23.85 3.2 Q23.45 3.45 23.1 3.2 L20.3 1.3 17.85 3.1 17.45 3.2 17.35 3.3 Q16.95 3.55 16.6 3.3 L13.8 1.45 11.35 3.15 11.2 3.2 11.05 3.4 Q10.65 3.65 10.3 3.4 L7.5 1.55 5.05 3.3 4.5 3.4 4.4 3.5 Q4.0 3.8 3.65 3.5 L0.85 1.65 0.35 2.0 0.35 1.75 0.85 1.4 3.65 3.25 Q4.0 3.55 4.4 3.25 L4.5 3.15 5.05 3.05 7.5 1.3 10.3 3.15 Q10.65 3.4 11.05 3.15 L11.2 2.95 11.35 2.9 13.8 1.2 16.6 3.05 Q16.95 3.3 17.35 3.05 L17.45 2.95 17.85 2.85 20.3 1.05 23.1 2.95 Q23.45 3.2 23.85 2.95 L24.0 2.8 24.15 2.75 26.6 1.0 29.4 2.85 29.95 2.9 30.3 3.3 Q30.65 3.55 31.05 3.3 L33.6 1.45 36.3 3.25 36.9 3.25 37.35 3.15 39.9 1.35 42.6 3.15 43.35 3.1 43.9 2.3 43.95 1.7" fill="#0c100f" fill-rule="evenodd" stroke="none"/>
    <path d="M3.7 0.15 L3.95 0.15 4.1 0.25 4.2 0.2 4.25 0.1 4.7 0.1 10.35 0.0 10.9 0.0 16.65 -0.1 16.9 -0.1 17.0 -0.05 17.05 -0.1 17.45 -0.1 23.15 -0.2 23.8 -0.2 29.4 -0.35 29.75 -0.35 30.15 -0.1 30.4 0.25 30.9 -0.1 31.05 -0.2 30.9 -0.3 36.2 -0.4 36.05 -0.3 36.25 -0.15 36.75 0.1 37.2 -0.2 37.35 -0.35 37.2 -0.45 42.5 -0.5 42.35 -0.4 42.55 -0.25 43.35 0.2 43.85 1.1 43.95 1.7 43.9 2.3 43.35 3.1 42.6 3.15 39.9 1.35 37.35 3.15 36.9 3.25 36.3 3.25 33.6 1.45 31.05 3.3 Q30.65 3.55 30.3 3.3 L29.95 2.9 29.4 2.85 26.6 1.0 24.15 2.75 24.0 2.8 23.85 2.95 Q23.45 3.2 23.1 2.95 L20.3 1.05 17.85 2.85 17.45 2.95 17.35 3.05 Q16.95 3.3 16.6 3.05 L13.8 1.2 11.35 2.9 11.2 2.95 11.05 3.15 Q10.65 3.4 10.3 3.15 L7.5 1.3 5.05 3.05 4.5 3.15 4.4 3.25 Q4.0 3.55 3.65 3.25 L0.85 1.4 0.35 1.75 0.35 0.2 3.7 0.15" fill="#4f5b56" fill-rule="evenodd" stroke="none"/>
  </g>
</svg>
