<?xml version="1.0" encoding="UTF-8" standalone="no"?>
<svg xmlns:xlink="http://www.w3.org/1999/xlink" height="103.5px" width="79.7px" xmlns="http://www.w3.org/2000/svg">
  <g transform="matrix(1.0, 0.0, 0.0, 1.0, -0.35, -2.35)">
    <path d="M60.45 6.65 L70.5 7.3 Q70.2 35.0 75.75 63.7 L76.05 63.7 76.05 64.65 77.05 70.15 76.75 70.5 76.75 71.15 77.05 72.8 76.75 72.8 Q77.4 88.75 71.85 97.2 66.95 100.85 57.5 102.45 50.05 103.1 39.55 102.75 16.15 102.1 10.9 98.55 3.4 84.8 4.05 73.4 L3.7 73.4 4.05 67.25 4.4 65.6 Q4.4 63.0 4.7 60.75 L4.4 60.4 Q3.1 59.45 3.4 58.15 3.4 56.85 4.4 55.5 5.05 55.2 5.35 55.2 6.0 50.95 6.95 46.75 6.65 46.4 6.35 46.4 5.65 45.45 5.65 44.1 5.65 43.5 6.0 42.8 5.05 42.8 4.4 41.8 2.75 40.9 5.35 37.6 L5.35 37.25 6.0 35.95 Q8.3 34.35 10.25 35.95 10.25 35.65 10.6 35.0 13.5 24.9 18.05 18.4 20.35 13.85 23.65 10.2 L27.2 5.35 60.75 7.0 60.45 6.65" fill="#a38e8e" fill-rule="evenodd" stroke="none"/>
    <path d="M60.45 6.65 L70.5 7.3 Q70.2 35.0 75.75 63.7 L76.05 63.7 76.05 64.65 77.05 70.15 76.75 70.5 76.75 71.15 77.05 72.8 76.75 72.8 Q77.4 88.75 71.85 97.2 66.95 100.85 57.5 102.45 50.05 103.1 39.55 102.75 16.15 102.1 10.9 98.55 3.4 84.8 4.05 73.4 L3.7 73.4 4.05 67.25 4.4 65.6 Q4.4 63.0 4.7 60.75 L4.4 60.4 Q3.1 59.45 3.4 58.15 3.4 56.85 4.4 55.5 5.05 55.2 5.35 55.2 6.0 50.95 6.95 46.75 6.65 46.4 6.35 46.4 5.65 45.45 5.65 44.1 5.65 43.5 6.0 42.8 5.05 42.8 4.4 41.8 2.75 40.9 5.35 37.6 L5.35 37.25 6.0 35.95 Q8.3 34.35 10.25 35.95 10.25 35.65 10.6 35.0 13.5 24.9 18.05 18.4 20.35 13.85 23.65 10.2 L27.2 5.35 60.75 7.0" fill="none" stroke="#000000" stroke-linecap="round" stroke-linejoin="round" stroke-width="6.0"/>
    <path d="M60.0 6.65 L59.8 8.4 59.3 15.3 Q58.85 29.0 61.7 43.8 64.45 58.5 64.25 65.05 64.15 69.7 63.75 71.85 63.35 73.95 62.05 77.2 42.95 83.25 22.75 74.2 19.3 72.7 12.4 71.8 L3.7 67.05 Q5.25 32.35 26.45 5.3 L60.0 6.65" fill="#c8c8c8" fill-rule="evenodd" stroke="none"/>
    <path d="M62.05 77.2 Q63.35 73.95 63.75 71.85 64.15 69.7 64.25 65.05 64.45 58.5 61.7 43.8 58.85 29.0 59.3 15.3 L59.8 8.4 60.0 6.65 69.95 7.05 Q69.55 38.2 76.65 70.15 69.4 74.8 62.05 77.2" fill="#a2a2a2" fill-rule="evenodd" stroke="none"/>
    <path d="M24.95 13.65 L34.15 13.65 Q23.8 41.55 23.6 67.05 L14.3 66.45 Q15.05 43.25 24.95 13.65" fill="#000000" fill-rule="evenodd" stroke="none"/>
    <path d="M8.15 47.75 Q6.65 47.65 5.6 46.5 4.65 45.55 4.7 44.15 4.8 42.75 5.95 41.8 7.1 40.95 8.6 41.05 10.1 41.15 11.1 42.15 12.1 43.2 12.0 44.6 11.95 46.0 10.75 46.85 9.65 47.85 8.15 47.75" fill="#575757" fill-rule="evenodd" stroke="none"/>
    <path d="M66.45 6.95 L66.45 66.5 57.5 66.5 57.5 6.95 66.45 6.95" fill="#000000" fill-rule="evenodd" stroke="none"/>
    <path d="M17.1 18.2 Q19.05 18.05 21.35 18.2 31.65 18.0 42.9 14.35 47.55 13.0 52.45 10.9 44.1 17.25 35.55 22.85 23.85 30.0 12.4 34.5 L10.1 35.15 9.95 35.0 9.6 34.9 Q12.85 24.85 17.1 18.2" fill="#ccc7c1" fill-rule="evenodd" stroke="none"/>
    <path d="M59.6 6.7 L67.0 11.45 Q67.6 11.45 67.9 12.05 68.35 13.75 64.85 18.45 50.6 35.15 26.25 48.95 L23.85 49.5 Q21.55 49.25 20.65 47.15 17.8 39.8 14.75 37.6 28.45 32.7 40.7 23.25 L54.85 11.85 59.0 7.85 Q58.85 7.65 59.1 7.65 L59.6 6.7" fill="#eeedec" fill-rule="evenodd" stroke="none"/>
    <path d="M9.6 34.9 L9.95 35.0 9.8 35.15 9.55 35.05 Q9.4 34.85 9.6 34.9 M10.1 35.15 L12.4 34.5 Q23.85 30.0 35.55 22.85 44.1 17.25 52.45 10.9 55.25 8.4 58.3 6.0 L59.6 6.7 59.1 7.65 Q58.85 7.65 59.0 7.85 L54.85 11.85 40.7 23.25 Q28.45 32.7 14.75 37.6 12.2 35.45 10.1 35.15" fill="#ffffff" fill-rule="evenodd" stroke="none"/>
    <path d="M52.45 10.9 Q47.55 13.0 42.9 14.35 31.65 18.0 21.35 18.2 19.05 18.05 17.1 18.2 21.35 10.75 26.55 6.4 L58.3 5.9 58.3 6.0 Q55.25 8.4 52.45 10.9" fill="#a6a29e" fill-rule="evenodd" stroke="none"/>
    <path d="M9.35 37.9 L12.0 37.65 14.3 36.75 15.65 36.3 17.25 35.6 Q18.4 34.9 18.8 34.75 19.55 34.4 20.0 34.55 21.05 34.8 21.15 36.1 L21.05 39.45 20.4 42.75 19.75 45.0 19.3 46.15 16.6 51.15 Q13.65 56.05 11.8 52.55 L7.85 42.8 Q7.9 40.65 9.0 38.5 L9.35 37.9" fill="#14131b" fill-rule="evenodd" stroke="none"/>
    <path d="M10.0 36.65 L9.35 37.9 9.0 38.5 8.15 38.85 6.35 38.8 Q5.45 38.6 4.55 37.35 L5.35 35.95 Q7.95 34.1 10.0 36.65" fill="#2b2b23" fill-rule="evenodd" stroke="none"/>
    <path d="M9.0 38.5 Q7.9 40.65 7.85 42.8 5.0 43.85 3.55 41.85 1.6 40.8 4.4 37.45 L4.45 37.3 4.55 37.35 Q5.45 38.6 6.35 38.8 L8.15 38.85 9.0 38.5" fill="#0b0a08" fill-rule="evenodd" stroke="none"/>
    <path d="M19.75 45.0 L20.4 42.75 21.05 39.45 21.15 36.1 Q21.05 34.8 20.0 34.55 19.55 34.4 18.8 34.75 18.4 34.9 17.25 35.6 L15.65 36.3 14.3 36.75 12.0 37.65 9.35 37.9 10.0 36.65 20.75 31.8 Q23.95 30.2 22.6 36.35 21.6 40.85 19.75 45.0" fill="#4d4d4a" fill-rule="evenodd" stroke="none"/>
    <path d="M6.15 61.95 Q4.65 61.85 3.6 60.7 2.65 59.75 2.7 58.35 2.8 56.95 3.95 56.0 5.1 55.15 6.6 55.25 8.1 55.35 9.1 56.35 10.1 57.4 10.0 58.8 9.95 60.2 8.75 61.05 7.65 62.05 6.15 61.95" fill="#575757" fill-rule="evenodd" stroke="none"/>
    <path d="M60.4 73.15 L60.4 74.05 Q60.4 77.6 58.65 86.2 56.9 94.85 56.9 100.1 L57.0 102.15 39.1 102.9 Q15.45 102.0 10.1 98.5 0.2 79.45 4.6 65.55 L10.75 68.25 Q17.75 72.45 35.35 74.7 46.7 76.1 60.4 73.15" fill="#272121" fill-rule="evenodd" stroke="none"/>
    <path d="M57.0 102.15 L56.9 100.1 Q56.9 94.85 58.65 86.2 60.4 77.6 60.4 74.05 L60.4 73.15 Q67.9 71.5 76.15 68.6 77.35 87.5 71.15 97.15 66.35 100.75 57.0 102.15" fill="#1e1818" fill-rule="evenodd" stroke="none"/>
    <path d="M3.8 67.5 L4.4 63.9 Q18.1 66.2 30.5 66.8 41.25 67.5 51.65 66.8 63.7 65.85 75.75 63.9 76.75 65.5 77.45 68.1 L77.75 72.35 Q75.45 74.0 58.85 76.9 42.55 80.2 8.95 74.65 L3.4 73.65 Q3.8 70.4 3.8 67.5" fill="#000000" fill-rule="evenodd" stroke="none"/>
  </g>
</svg>
