<?xml version="1.0" encoding="UTF-8" standalone="no"?>
<svg xmlns:xlink="http://www.w3.org/1999/xlink" height="100.1px" width="77.45px" xmlns="http://www.w3.org/2000/svg">
  <g transform="matrix(1.0, 0.0, 0.0, 1.0, -1.5, -6.05)">
    <path d="M70.6 25.1 Q70.95 26.65 70.95 28.55 71.25 33.25 72.2 38.0 L72.5 42.7 Q72.5 45.85 72.8 48.65 72.8 50.25 73.15 51.8 73.45 56.2 74.1 60.3 L74.7 60.0 75.35 65.0 Q75.35 65.95 75.65 67.2 75.65 68.8 75.95 70.35 L75.95 71.6 75.95 71.95 75.95 72.55 Q76.3 89.25 70.95 97.7 66.2 101.2 57.4 102.75 49.85 103.4 40.1 103.05 17.1 102.45 11.75 99.0 4.5 84.85 5.45 73.5 L5.15 73.5 5.45 65.95 5.45 65.0 6.05 60.3 6.4 60.3 7.0 56.2 4.5 48.05 8.3 36.7 8.9 36.1 8.9 35.45 9.2 34.85 9.2 34.5 9.55 33.9 9.85 32.65 10.8 30.45 Q10.8 30.1 11.1 30.1 L11.4 29.2 Q12.05 28.55 13.0 28.25 13.0 27.9 13.3 27.9 L15.5 28.25 16.8 25.7 Q21.5 17.25 27.8 9.05 L69.65 10.95 70.6 25.1" fill="#000000" fill-rule="evenodd" stroke="none"/>
    <path d="M70.6 25.1 Q70.95 26.65 70.95 28.55 71.25 33.25 72.2 38.0 L72.5 42.7 Q72.5 45.85 72.8 48.65 72.8 50.25 73.15 51.8 73.45 56.2 74.1 60.3 L74.7 60.0 75.35 65.0 Q75.35 65.95 75.65 67.2 75.65 68.8 75.95 70.35 L75.95 71.6 75.95 71.95 75.95 72.55 Q76.3 89.25 70.95 97.7 66.2 101.2 57.4 102.75 49.85 103.4 40.1 103.05 17.1 102.45 11.75 99.0 4.5 84.85 5.45 73.5 L5.15 73.5 5.45 65.95 5.45 65.0 6.05 60.3 6.4 60.3 7.0 56.2 4.5 48.05 8.3 36.7 8.9 36.1 8.9 35.45 9.2 34.85 9.2 34.5 9.55 33.9 9.85 32.65 10.8 30.45 Q10.8 30.1 11.1 30.1 L11.4 29.2 Q12.05 28.55 13.0 28.25 13.0 27.9 13.3 27.9 L15.5 28.25 16.8 25.7 Q21.5 17.25 27.8 9.05 L69.65 10.95 70.6 25.1 Z" fill="none" stroke="#000000" stroke-linecap="round" stroke-linejoin="round" stroke-width="6.0"/>
    <path d="M49.85 10.2 L52.65 10.2 Q26.85 24.35 7.95 51.7 10.15 38.2 16.8 25.6 28.1 28.15 49.85 10.2" fill="#c8c8c8" fill-rule="evenodd" stroke="none"/>
    <path d="M16.8 25.6 Q21.5 17.15 27.8 8.95 L49.85 10.2 Q28.1 28.15 16.8 25.6" fill="#a6a29e" fill-rule="evenodd" stroke="none"/>
    <path d="M18.35 28.45 Q19.6 28.75 19.3 30.0 L19.3 32.55 18.65 35.7 19.0 36.0 Q18.35 36.3 18.35 36.6 L16.45 36.6 15.85 36.95 15.85 36.6 15.2 36.6 12.35 36.3 12.05 36.6 11.4 36.3 9.85 35.35 9.2 34.75 9.2 34.4 9.55 33.8 9.85 32.55 10.8 30.35 10.8 30.0 Q11.1 31.6 13.0 31.9 11.4 32.2 11.4 33.5 11.1 35.05 13.0 35.7 L13.3 35.7 Q14.9 36.0 16.45 35.7 L17.1 35.7 17.4 35.7 17.7 35.35 18.35 35.05 Q18.65 34.75 18.35 33.8 18.35 33.15 17.1 32.55 L18.65 31.6 Q18.65 30.95 19.0 30.0 19.3 29.4 18.35 28.45" fill="#383838" fill-rule="evenodd" stroke="none"/>
    <path d="M18.35 28.45 Q19.3 29.4 19.0 30.0 18.65 30.95 18.65 31.6 L17.1 32.55 Q18.35 33.15 18.35 33.8 18.65 34.75 18.35 35.05 L17.7 35.35 17.4 35.7 17.1 35.7 16.45 35.7 Q14.9 36.0 13.3 35.7 L13.0 35.7 Q11.1 35.05 11.4 33.5 11.4 32.2 13.0 31.9 11.1 31.6 10.8 30.0 L11.4 29.1 12.7 28.15 13.3 27.8 18.35 28.45" fill="#5b5b5b" fill-rule="evenodd" stroke="none"/>
    <path d="M12.05 36.6 L12.35 36.3 15.2 36.6 6.4 43.25 7.65 39.75 12.05 36.6 M19.3 38.5 L19.6 40.7 5.45 50.45 4.8 48.55 19.3 38.5 M19.9 43.85 L20.55 47.0 7.0 56.1 6.4 53.3 19.9 43.85 M19.6 51.7 L16.45 56.45 8.9 62.1 7.95 59.25 19.6 51.7 M13.3 61.8 L10.15 66.5 9.85 64.3 13.3 61.8" fill="#a2a2a2" fill-rule="evenodd" stroke="none"/>
    <path d="M9.2 34.75 L9.85 35.35 11.4 36.3 12.05 36.6 7.65 39.75 8.3 36.6 8.9 36.0 8.9 35.35 9.2 34.75 M15.2 36.6 L15.85 36.6 15.85 36.95 16.45 36.6 18.35 36.6 Q18.35 36.3 19.0 36.0 L19.3 38.5 4.8 48.55 4.5 47.95 6.4 43.25 15.2 36.6 M19.6 40.7 L19.9 43.85 6.4 53.3 5.45 50.45 19.6 40.7 M20.55 47.0 L20.85 48.9 19.6 51.7 7.95 59.25 7.0 56.1 20.55 47.0 M16.45 56.45 L13.3 61.8 9.85 64.3 8.9 62.1 16.45 56.45" fill="#000000" fill-rule="evenodd" stroke="none"/>
    <path d="M68.75 10.85 L63.05 13.05 Q64.95 19.95 66.2 28.45 L70.6 25.0 Q70.95 26.55 70.95 28.45 69.05 30.35 66.5 31.9 67.15 35.05 67.8 45.1 L68.1 50.45 72.8 48.55 Q72.8 50.15 73.15 51.7 L68.4 53.6 Q68.4 57.7 68.75 62.4 68.4 62.7 68.75 63.05 L68.75 68.4 68.75 71.5 68.75 75.3 68.75 75.6 64.65 77.5 Q64.65 76.25 64.95 75.0 L64.95 71.5 Q64.65 68.4 64.95 67.1 65.25 64.6 64.95 63.65 L64.95 60.85 64.95 55.15 59.6 57.05 48.6 60.5 48.6 66.5 48.6 66.8 48.6 70.6 Q48.25 73.7 48.25 75.0 48.25 77.8 47.65 80.95 L42.6 80.65 Q43.55 77.8 43.85 74.35 L44.5 70.25 Q44.5 69.65 44.8 68.7 L44.8 67.1 44.8 66.2 44.8 65.55 44.8 61.15 Q36.0 63.35 26.85 64.0 L26.2 66.5 26.2 67.1 Q25.9 67.45 25.9 69.0 L25.3 70.6 24.95 72.15 24.95 73.7 24.35 75.6 24.0 75.6 Q22.75 75.0 20.85 74.35 L21.5 72.15 21.8 69.3 Q22.15 67.1 22.45 66.8 L22.45 65.55 22.75 64.3 12.05 64.6 11.75 65.55 12.05 65.85 11.75 69.0 11.4 70.6 Q11.75 70.6 11.75 72.15 L5.75 68.7 Q5.75 66.2 6.05 64.0 L6.05 62.7 Q6.4 58.3 7.95 51.7 26.85 24.35 52.65 10.2 L68.75 10.85 M60.55 32.85 Q62.1 31.6 63.7 30.65 62.45 19.65 60.85 14.0 L59.3 14.6 Q58.95 14.95 58.95 15.25 52.35 19.0 46.7 23.75 L47.95 40.7 Q54.25 36.95 60.55 32.85 M44.8 48.55 L44.8 46.35 Q36.6 50.45 27.8 53.6 27.5 55.5 27.5 57.05 L27.15 58.95 26.85 60.85 Q36.3 59.9 44.8 58.0 L44.8 54.0 Q44.8 54.25 45.1 54.25 L44.8 48.55 M59.6 53.6 L64.95 52.05 64.95 50.45 64.95 48.25 Q64.3 40.4 64.0 34.4 L60.55 36.6 Q54.55 41.0 47.95 44.5 L48.25 50.15 48.25 55.5 48.25 57.05 Q53.95 55.8 59.6 53.6 M44.8 42.6 L44.15 33.5 43.2 26.55 Q35.35 32.55 28.1 40.1 L27.8 49.85 Q36.6 46.7 44.8 42.6 M24.0 54.85 L23.05 55.15 20.85 55.8 12.7 58.3 12.35 61.15 23.4 60.85 Q23.4 59.55 23.7 57.35 L23.7 57.05 Q24.0 56.45 24.0 54.85 M24.65 47.3 L24.35 43.55 Q19.6 48.25 14.9 53.6 L24.65 50.75 24.65 47.3" fill="#000000" fill-rule="evenodd" stroke="none"/>
    <path d="M70.6 25.0 L66.2 28.45 Q64.95 19.95 63.05 13.05 L68.75 10.85 69.65 10.85 70.6 25.0 M59.6 57.05 L64.95 55.15 64.95 60.85 64.95 63.65 Q65.25 64.6 64.95 67.1 64.65 68.4 64.95 71.5 L64.95 75.0 Q64.65 76.25 64.65 77.5 63.35 77.8 62.45 78.45 L61.8 75.6 Q60.85 72.8 60.55 70.25 L60.55 69.95 60.25 64.6 59.6 57.05 M68.75 75.6 L68.75 75.3 68.75 71.5 68.75 68.4 68.75 63.05 Q68.4 62.7 68.75 62.4 68.4 57.7 68.4 53.6 L73.15 51.7 Q73.45 57.05 74.1 61.8 L74.7 66.5 75.95 71.5 Q72.5 74.05 68.75 75.6 M72.8 48.55 L68.1 50.45 67.8 45.1 Q67.15 35.05 66.5 31.9 69.05 30.35 70.95 28.45 71.25 33.15 72.2 37.9 L72.5 42.6 Q72.5 45.75 72.8 48.55 M58.95 15.25 Q58.95 14.95 59.3 14.6 L60.85 14.0 Q62.45 19.65 63.7 30.65 62.1 31.6 60.55 32.85 60.55 25.3 59.6 20.25 59.3 19.35 58.95 15.25 M59.6 53.6 Q59.6 52.65 59.9 52.05 59.9 49.5 60.25 47.95 L60.55 36.6 64.0 34.4 Q64.3 40.4 64.95 48.25 L64.95 50.45 64.95 52.05 59.6 53.6" fill="#a2a2a2" fill-rule="evenodd" stroke="none"/>
    <path d="M11.75 72.15 Q11.75 70.6 11.4 70.6 L11.75 69.0 12.05 65.85 11.75 65.55 12.05 64.6 22.75 64.3 22.45 65.55 22.45 66.8 Q22.15 67.1 21.8 69.3 L21.5 72.15 20.85 74.35 14.25 73.1 11.75 72.15 M24.35 75.6 L24.95 73.7 24.95 72.15 25.3 70.6 25.9 69.0 Q25.9 67.45 26.2 67.1 L26.2 66.5 26.85 64.0 Q36.0 63.35 44.8 61.15 L44.8 65.55 44.8 66.2 44.8 67.1 44.8 68.7 Q44.5 69.65 44.5 70.25 L43.85 74.35 Q43.55 77.8 42.6 80.65 33.45 79.7 24.35 75.6 M47.65 80.95 Q48.25 77.8 48.25 75.0 48.25 73.7 48.6 70.6 L48.6 66.8 48.6 66.5 48.6 60.5 59.6 57.05 60.25 64.6 60.55 69.95 60.55 70.25 Q60.85 72.8 61.8 75.6 L62.45 78.45 62.1 78.45 Q54.85 80.65 47.65 80.95 M58.95 15.25 Q59.3 19.35 59.6 20.25 60.55 25.3 60.55 32.85 54.25 36.95 47.95 40.7 L46.7 23.75 Q52.35 19.0 58.95 15.25 M44.8 48.55 L45.1 54.25 Q44.8 54.25 44.8 54.0 L44.8 58.0 Q36.3 59.9 26.85 60.85 L27.15 58.95 27.5 57.05 Q27.5 55.5 27.8 53.6 36.6 50.45 44.8 46.35 L44.8 48.55 M60.55 36.6 L60.25 47.95 Q59.9 49.5 59.9 52.05 59.6 52.65 59.6 53.6 53.95 55.8 48.25 57.05 L48.25 55.5 48.25 50.15 47.95 44.5 Q54.55 41.0 60.55 36.6 M44.8 42.6 Q36.6 46.7 27.8 49.85 L28.1 40.1 Q35.35 32.55 43.2 26.55 L44.15 33.5 44.8 42.6 M24.65 47.3 L24.65 50.75 14.9 53.6 Q19.6 48.25 24.35 43.55 L24.65 47.3 M24.0 54.85 Q24.0 56.45 23.7 57.05 L23.7 57.35 Q23.4 59.55 23.4 60.85 L12.35 61.15 12.7 58.3 20.85 55.8 23.05 55.15 24.0 54.85" fill="#c8c8c8" fill-rule="evenodd" stroke="none"/>
    <path d="M11.1 56.45 Q10.15 56.45 9.85 55.5 9.55 55.15 9.55 54.55 9.85 53.6 10.15 53.3 10.8 52.95 11.4 52.95 12.05 52.95 12.7 53.6 13.0 53.9 13.0 54.85 13.0 55.5 12.35 56.1 L11.1 56.45" fill="#ffffff" fill-rule="evenodd" stroke="none"/>
    <path d="M11.1 56.45 Q10.15 56.45 9.85 55.5 9.55 55.15 9.55 54.55 9.85 53.6 10.15 53.3 10.8 52.95 11.4 52.95 12.05 52.95 12.7 53.6 13.0 53.9 13.0 54.85 13.0 55.5 12.35 56.1 L11.1 56.45 Z" fill="none" stroke="#c2c2c0" stroke-linecap="round" stroke-linejoin="round" stroke-width="0.5"/>
    <path d="M9.85 63.35 Q9.55 63.35 8.9 62.7 8.3 62.1 8.6 61.45 8.6 60.5 9.2 60.5 9.85 59.9 10.5 60.2 11.1 60.2 11.4 60.5 12.05 61.15 11.75 62.1 L11.4 63.05 Q10.8 63.65 9.85 63.35" fill="#ffffff" fill-rule="evenodd" stroke="none"/>
    <path d="M9.85 63.35 Q9.55 63.35 8.9 62.7 8.3 62.1 8.6 61.45 8.6 60.5 9.2 60.5 9.85 59.9 10.5 60.2 11.1 60.2 11.4 60.5 12.05 61.15 11.75 62.1 L11.4 63.05 Q10.8 63.65 9.85 63.35 Z" fill="none" stroke="#c2c2c0" stroke-linecap="round" stroke-linejoin="round" stroke-width="0.5"/>
    <path d="M5.55 69.15 L5.1 66.1 4.8 65.8 12.0 69.8 Q18.8 73.85 35.8 76.0 46.75 77.35 63.25 74.15 62.95 76.65 62.05 79.45 L58.9 88.95 Q56.95 94.75 56.85 98.4 L56.7 98.45 41.85 99.6 24.2 98.65 Q15.05 97.55 12.45 92.25 9.85 86.9 8.55 83.55 7.25 80.1 5.55 69.15" fill="#272121" fill-rule="evenodd" stroke="none"/>
    <path d="M63.25 74.15 L72.9 70.95 Q72.15 88.15 69.55 91.5 66.9 94.8 63.2 96.45 59.5 98.0 56.85 98.4 56.95 94.75 58.9 88.95 L62.05 79.45 Q62.95 76.65 63.25 74.15" fill="#1e1818" fill-rule="evenodd" stroke="none"/>
    <path d="M56.7 102.5 L39.4 103.2 Q16.55 102.35 11.4 98.95 2.55 81.9 5.55 69.15 7.25 80.1 8.55 83.55 9.85 86.9 12.45 92.25 15.05 97.55 24.2 98.65 L41.85 99.6 56.7 98.45 56.6 98.65 56.7 102.5" fill="#e7b81d" fill-rule="evenodd" stroke="none"/>
    <path d="M72.9 70.95 L75.2 70.1 Q76.4 88.35 70.35 97.65 65.75 101.1 56.7 102.5 L56.6 98.65 56.7 98.45 56.85 98.4 Q59.5 98.0 63.2 96.45 66.9 94.8 69.55 91.5 72.15 88.15 72.9 70.95" fill="#c9880c" fill-rule="evenodd" stroke="none"/>
    <path d="M75.35 67.1 Q45.75 75.3 5.45 66.5 L6.05 62.4 Q19.0 65.55 31.55 66.5 41.95 67.1 51.75 66.2 63.7 65.55 74.7 62.1 L75.35 67.1" fill="#ffe698" fill-rule="evenodd" stroke="none"/>
    <path d="M75.35 67.1 Q75.35 68.4 75.65 69.0 75.65 72.45 75.95 74.65 L70.95 76.55 Q42.9 84.1 10.15 76.85 7.65 75.9 5.15 75.6 L5.45 67.1 5.45 66.5 Q45.75 75.3 75.35 67.1" fill="#e0b116" fill-rule="evenodd" stroke="none"/>
  </g>
</svg>
