<?xml version="1.0" encoding="UTF-8" standalone="no"?>
<svg xmlns:xlink="http://www.w3.org/1999/xlink" height="96.35px" width="81.55px" xmlns="http://www.w3.org/2000/svg">
  <g transform="matrix(1.0, 0.0, 0.0, 1.0, 0.55, -9.0)">
    <path d="M66.8 12.9 L69.2 12.35 72.85 12.0 Q72.85 12.65 73.45 14.15 L71.3 17.45 Q71.3 38.7 75.55 60.85 76.2 61.75 77.1 66.0 78.0 70.25 78.0 74.8 L77.7 74.8 77.1 79.65 76.5 83.9 76.5 83.25 75.25 89.35 Q73.75 94.15 72.25 96.9 L68.9 99.05 Q64.35 100.5 60.7 101.15 L59.15 101.45 42.5 102.35 29.4 101.15 Q21.85 100.85 18.2 99.3 L14.85 97.8 Q11.85 91.1 10.0 82.05 6.95 81.75 3.9 80.85 L4.2 79.65 3.65 79.65 Q3.0 79.3 2.45 79.3 L3.9 67.2 5.75 67.5 5.75 66.6 9.35 66.6 9.35 66.3 Q9.7 66.3 9.7 66.6 L10.0 64.35 Q10.0 64.75 9.7 64.75 9.1 64.15 8.15 61.15 6.65 57.45 6.65 56.6 L6.35 52.0 Q6.05 50.8 6.05 49.6 L6.05 46.85 6.95 39.0 7.25 37.15 Q7.85 33.85 8.5 32.0 8.5 29.9 9.7 25.65 L10.6 19.3 Q11.2 16.9 13.3 16.9 L20.0 16.9 Q35.2 14.15 48.25 12.9 L56.75 12.9 Q57.35 12.9 57.7 13.2 L59.8 13.2 62.2 13.2 66.8 12.9" fill="#8c7171" fill-rule="evenodd" stroke="none"/>
    <path d="M66.8 12.9 L69.2 12.35 72.85 12.0 Q72.85 12.65 73.45 14.15 L71.3 17.45 Q71.3 38.7 75.55 60.85 76.2 61.75 77.1 66.0 78.0 70.25 78.0 74.8 L77.7 74.8 77.1 79.65 76.5 83.9 76.5 83.25 75.25 89.35 Q73.75 94.15 72.25 96.9 L68.9 99.05 Q64.35 100.5 60.7 101.15 L59.15 101.45 42.5 102.35 29.4 101.15 Q21.85 100.85 18.2 99.3 L14.85 97.8 Q11.85 91.1 10.0 82.05 6.95 81.75 3.9 80.85 L4.2 79.65 3.65 79.65 Q3.0 79.3 2.45 79.3 L3.9 67.2 5.75 67.5 5.75 66.6 9.35 66.6 9.35 66.3 Q9.7 66.3 9.7 66.6 L10.0 64.35 Q10.0 64.75 9.7 64.75 9.1 64.15 8.15 61.15 6.65 57.45 6.65 56.6 L6.35 52.0 Q6.05 50.8 6.05 49.6 L6.05 46.85 6.95 39.0 7.25 37.15 Q7.85 33.85 8.5 32.0 8.5 29.9 9.7 25.65 L10.6 19.3 Q11.2 16.9 13.3 16.9 L20.0 16.9 Q35.2 14.15 48.25 12.9 L56.75 12.9 Q57.35 12.9 57.7 13.2 L59.8 13.2 62.2 13.2 66.8 12.9 Z" fill="none" stroke="#000000" stroke-linecap="round" stroke-linejoin="round" stroke-width="6.0"/>
    <path d="M62.0 13.3 L61.85 14.2 Q61.4 18.5 61.25 25.95 61.0 33.35 65.45 47.35 69.9 61.35 69.7 65.5 69.6 69.65 68.45 72.15 67.35 74.65 63.95 78.2 46.15 83.85 27.35 75.4 24.1 74.05 17.7 73.15 L9.6 68.75 Q10.9 39.25 27.5 15.7 44.75 12.8 62.0 13.3" fill="#c8c8c8" fill-rule="evenodd" stroke="none"/>
    <path d="M63.95 78.2 Q67.35 74.65 68.45 72.15 69.6 69.65 69.7 65.5 69.9 61.35 65.45 47.35 61.0 33.35 61.25 25.95 61.4 18.5 61.85 14.2 L62.0 13.3 68.9 12.85 71.3 12.95 Q70.9 41.9 77.5 71.65 70.8 76.0 63.95 78.2" fill="#a2a2a2" fill-rule="evenodd" stroke="none"/>
    <path d="M7.4 37.0 Q7.75 33.65 8.25 32.1 L9.45 25.75 10.75 19.2 Q11.1 16.8 13.35 16.8 L19.9 16.8 Q35.25 14.05 48.3 13.1 49.55 13.0 56.75 13.2 L65.45 13.3 69.2 12.25 72.95 12.05 Q72.85 12.75 73.25 14.1 68.1 23.75 61.0 31.9 53.8 40.0 42.35 44.45 30.85 48.85 27.25 49.6 23.7 50.35 17.5 53.8 11.3 57.2 9.7 65.0 8.95 64.15 7.95 61.05 6.85 57.65 6.75 56.45 L6.2 52.3 6.0 49.75 6.7 50.75 8.2 52.3 11.05 52.55 Q13.45 52.25 30.35 43.55 34.3 41.95 40.6 34.55 46.95 26.85 45.0 27.45 L39.7 31.65 Q22.0 44.75 16.85 45.35 L9.95 45.1 Q8.35 44.2 8.15 42.05 L7.4 37.0 M25.45 34.9 Q23.55 36.55 22.5 37.9 L16.95 42.9 17.65 42.8 Q19.85 42.75 30.1 36.3 L33.1 33.85 Q35.4 31.65 37.75 28.7 L41.25 22.6 42.3 20.65 42.45 20.05 Q42.35 18.95 40.85 18.4 L39.15 18.0 37.25 18.2 Q35.25 18.6 34.3 20.2 33.2 21.8 33.05 22.4 L30.1 28.2 Q27.25 33.2 25.45 34.9" fill="#2e2e2e" fill-rule="evenodd" stroke="none"/>
    <path d="M7.4 37.0 L8.15 42.05 Q8.35 44.2 9.95 45.1 L16.85 45.35 Q22.0 44.75 39.7 31.65 L45.0 27.45 Q46.95 26.85 40.6 34.55 34.3 41.95 30.35 43.55 13.45 52.25 11.05 52.55 L8.2 52.3 6.7 50.75 6.0 49.75 Q5.95 48.2 6.15 46.85 6.3 44.1 7.15 39.1 7.2 37.9 7.4 37.0" fill="#0e0d0d" fill-rule="evenodd" stroke="none"/>
    <path d="M25.45 34.9 Q27.25 33.2 30.1 28.2 L33.05 22.4 Q33.2 21.8 34.3 20.2 35.25 18.6 37.25 18.2 L39.15 18.0 40.85 18.4 Q42.35 18.95 42.45 20.05 L42.3 20.65 41.25 22.6 37.75 28.7 Q35.4 31.65 33.1 33.85 L30.1 36.3 Q19.85 42.75 17.65 42.8 L16.95 42.9 22.5 37.9 Q23.55 36.55 25.45 34.9" fill="#5f5f5f" fill-rule="evenodd" stroke="none"/>
    <path d="M18.2 99.2 L14.85 97.7 Q11.55 90.75 10.0 80.4 L10.0 80.15 9.1 74.7 9.35 68.6 10.0 65.55 20.95 67.1 23.05 67.4 33.1 68.05 34.6 68.05 35.5 68.3 Q43.7 68.9 50.7 68.3 L54.0 68.05 59.15 68.05 61.65 67.7 68.9 66.5 70.7 66.5 76.2 65.3 Q77.1 66.5 77.4 70.45 77.7 74.7 77.1 79.55 L76.2 83.8 76.5 83.15 75.25 89.25 Q73.75 94.05 72.25 96.8 L68.9 98.95 Q68.55 95.9 67.7 94.05 66.8 90.75 63.75 86.8 62.2 85.0 60.1 83.45 L59.15 82.85 Q56.45 81.05 53.7 80.15 L52.2 79.85 47.65 79.55 41.3 79.85 Q36.4 81.05 32.15 83.15 29.7 84.65 27.6 86.5 22.15 91.0 18.2 99.2" fill="#333131" fill-rule="evenodd" stroke="none"/>
    <path d="M68.9 98.95 Q64.35 100.4 60.7 101.05 59.8 97.1 57.7 92.55 54.95 87.7 52.5 85.3 50.4 84.1 47.65 83.8 42.2 82.85 37.6 86.8 30.95 93.5 29.4 101.05 21.85 100.75 18.2 99.2 22.15 91.0 27.6 86.5 29.7 84.65 32.15 83.15 36.4 81.05 41.3 79.85 L47.65 79.55 52.2 79.85 53.7 80.15 Q56.45 81.05 59.15 82.85 L60.1 83.45 Q62.2 85.0 63.75 86.8 66.8 90.75 67.7 94.05 68.55 95.9 68.9 98.95" fill="#8e8a8a" fill-rule="evenodd" stroke="none"/>
    <path d="M60.7 101.05 L59.15 101.35 42.5 102.25 29.4 101.05 Q30.95 93.5 37.6 86.8 42.2 82.85 47.65 83.8 50.4 84.1 52.5 85.3 54.95 87.7 57.7 92.55 59.8 97.1 60.7 101.05" fill="#aaaaaa" fill-rule="evenodd" stroke="none"/>
    <path d="M35.2 73.45 L35.2 72.85 Q34.85 69.8 34.85 66.75 L50.05 65.9 Q50.7 67.1 50.95 68.6 L51.6 71.35 Q42.2 71.65 35.2 73.45 M20.6 79.55 Q15.8 81.65 10.3 81.05 9.7 79.85 9.35 75.25 L9.1 75.25 9.35 66.2 20.3 66.75 Q20.0 70.75 20.3 77.1 20.3 78.3 20.6 79.55 M62.2 71.35 L61.65 68.3 61.0 64.05 Q64.65 63.15 68.3 62.55 L68.9 64.35 Q70.4 68.05 70.7 72.85 L62.2 71.35" fill="#f2a400" fill-rule="evenodd" stroke="none"/>
    <path d="M34.85 66.75 Q34.85 69.8 35.2 72.85 L35.2 73.45 34.85 73.45 31.85 74.7 Q31.85 71.35 32.75 66.75 L34.0 66.75 34.85 66.75 M61.0 64.05 L61.65 68.3 62.2 71.35 60.1 71.35 Q59.8 71.35 59.8 71.0 L58.9 64.65 61.0 64.05 M69.8 61.95 Q72.5 61.65 75.55 60.75 76.2 61.65 77.1 65.9 78.0 70.15 78.0 74.7 L77.4 74.7 Q75.0 73.75 72.25 73.15 72.25 71.35 71.6 68.6 70.7 64.35 69.8 61.95" fill="#fcd37d" fill-rule="evenodd" stroke="none"/>
    <path d="M20.3 66.75 L22.45 66.75 Q21.85 70.45 22.15 74.7 L22.75 78.0 21.5 78.9 20.6 79.55 Q20.3 78.3 20.3 77.1 20.0 70.75 20.3 66.75 M70.7 72.85 Q70.4 68.05 68.9 64.35 L68.3 62.55 69.8 61.95 Q70.7 64.35 71.6 68.6 72.25 71.35 72.25 73.15 L70.7 72.85" fill="#955a01" fill-rule="evenodd" stroke="none"/>
    <path d="M51.6 71.35 L50.95 68.6 Q50.7 67.1 50.05 65.9 L53.45 65.3 58.9 64.65 59.8 71.0 Q59.8 71.35 60.1 71.35 L55.2 71.35 51.6 71.35 M32.75 66.75 Q31.85 71.35 31.85 74.7 26.4 76.15 22.75 78.0 L22.15 74.7 Q21.85 70.45 22.45 66.75 27.6 67.1 32.75 66.75" fill="#bb7a00" fill-rule="evenodd" stroke="none"/>
    <path d="M16.35 67.4 L12.75 67.7 8.5 67.7 5.45 67.4 5.75 66.5 16.05 66.5 16.35 67.4 M4.2 79.55 Q10.9 81.35 17.0 79.85 L17.25 79.55 17.25 81.05 Q10.9 82.85 3.9 80.75 L4.2 79.55" fill="#f2a400" fill-rule="evenodd" stroke="none"/>
    <path d="M5.45 67.4 L4.2 79.55 3.65 79.55 Q3.0 79.2 2.45 79.2 L3.9 67.1 5.45 67.4 M17.25 79.55 L16.35 67.4 17.9 67.1 18.8 79.2 17.25 79.55" fill="#ffc856" fill-rule="evenodd" stroke="none"/>
    <path d="M5.45 67.4 L8.5 67.7 12.75 67.7 16.35 67.4 17.25 79.55 17.0 79.85 Q10.9 81.35 4.2 79.55 L5.45 67.4 M15.15 71.0 Q10.9 71.65 6.65 71.0 L6.35 77.1 Q10.6 78.9 15.8 77.1 L15.15 71.0" fill="#955a01" fill-rule="evenodd" stroke="none"/>
    <path d="M15.15 71.0 L15.8 77.1 Q10.6 78.9 6.35 77.1 L6.65 71.0 Q10.9 71.65 15.15 71.0" fill="#513202" fill-rule="evenodd" stroke="none"/>
  </g>
</svg>
