<?xml version="1.0" encoding="UTF-8" standalone="no"?>
<svg xmlns:xlink="http://www.w3.org/1999/xlink" height="222.3px" width="205.8px" xmlns="http://www.w3.org/2000/svg">
  <g transform="matrix(1.0, 0.0, 0.0, 1.0, -5.05, 4.9)">
    <path d="M78.8 -0.7 Q83.15 1.3 84.75 5.9 86.3 10.5 84.3 14.95 L83.6 16.3 88.35 29.95 Q100.85 26.3 114.85 26.3 L115.45 26.3 Q151.6 26.55 177.75 51.05 L177.8 51.1 180.6 53.85 182.05 55.3 182.1 55.4 182.15 55.45 187.7 61.75 Q192.4 67.65 196.0 73.95 198.95 79.1 201.2 84.6 203.7 90.85 205.3 97.55 206.45 102.6 207.05 107.9 L207.3 109.4 Q207.85 114.75 207.85 120.35 207.85 130.15 206.15 139.15 201.05 166.15 180.6 186.85 153.4 214.4 114.85 214.4 76.3 214.4 49.05 186.85 37.75 175.4 30.95 160.15 24.5 145.65 22.7 128.95 L8.05 129.6 10.05 121.0 Q12.6 111.25 15.55 105.2 18.0 100.2 21.55 95.55 L26.95 88.8 28.5 84.6 Q30.75 79.1 33.7 73.95 L33.75 73.8 33.95 73.5 Q39.15 64.4 46.7 56.3 L49.05 53.85 52.15 50.85 52.25 50.8 52.35 50.7 Q63.05 40.75 75.45 34.85 L70.7 21.15 69.05 20.5 Q64.8 18.4 63.2 13.8 61.6 9.2 63.6 4.85 65.65 0.4 70.15 -1.2 74.55 -2.85 78.8 -0.7 Z" fill="none" stroke="#000000" stroke-linecap="round" stroke-linejoin="round" stroke-width="6.0"/>
    <path d="M196.0 73.95 Q198.95 79.1 201.2 84.6 203.7 90.85 205.3 97.55 206.45 102.6 207.05 107.9 L207.3 109.4 Q207.85 114.75 207.85 120.35 207.85 130.15 206.15 139.15 201.05 166.15 180.6 186.85 153.4 214.4 114.85 214.4 76.3 214.4 49.05 186.85 37.75 175.4 30.95 160.15 24.5 145.65 22.7 128.95 L8.05 129.6 10.05 121.0 Q12.6 111.25 15.55 105.2 18.0 100.2 21.55 95.55 L26.95 88.8 28.5 84.6 Q30.75 79.1 33.7 73.95 L33.75 73.8 33.95 73.5 Q39.15 64.4 46.7 56.3 L49.05 53.85 52.15 50.85 52.25 50.8 52.35 50.7 Q78.6 26.3 114.85 26.3 L115.45 26.3 Q151.6 26.55 177.75 51.05 L177.8 51.1 180.6 53.85 182.05 55.3 182.1 55.4 182.15 55.45 187.7 61.75 Q192.4 67.65 196.0 73.95 M189.55 70.75 L184.9 64.15 Q182.45 60.95 179.5 57.9 L175.4 53.9 Q150.5 30.85 115.25 30.85 80.0 30.85 54.9 53.9 52.15 56.45 49.7 59.15 42.4 67.1 37.8 76.2 45.95 68.05 55.75 61.85 L58.3 60.3 Q64.0 56.9 70.0 54.25 78.6 50.4 87.7 48.25 L87.9 48.2 Q106.3 43.8 126.35 46.3 149.55 49.2 167.2 60.3 L167.25 60.35 167.35 60.4 Q168.65 61.2 169.95 62.1 L174.4 65.4 174.75 65.65 177.7 68.05 Q181.35 71.2 184.7 74.8 L184.85 74.95 185.05 75.1 Q188.8 79.2 192.15 84.6 L194.85 89.5 197.3 94.9 198.25 97.55 Q199.65 102.75 200.45 107.8 L200.8 109.4 201.0 110.6 200.75 106.35 Q200.45 102.9 199.75 98.8 L199.75 98.6 198.9 94.25 Q197.9 89.25 196.25 84.6 193.7 77.35 189.55 70.75 M192.35 128.6 Q193.9 122.6 194.2 116.35 L194.3 114.45 194.1 107.85 193.9 105.2 Q192.6 93.9 187.45 84.6 185.35 80.75 182.6 77.3 L178.8 73.0 175.95 70.3 172.8 67.7 Q169.6 65.05 165.9 62.7 151.15 55.05 130.95 51.45 L127.6 51.0 126.2 50.9 126.0 50.85 122.1 50.6 Q114.5 50.1 107.4 50.7 L89.3 54.1 Q80.9 56.6 73.4 60.85 58.45 69.3 47.05 84.6 L46.15 85.8 Q43.5 89.8 41.4 94.0 37.9 100.75 36.7 108.15 30.1 130.15 36.1 147.8 44.35 172.15 75.3 184.2 132.85 195.6 163.45 175.65 186.7 160.55 192.35 128.6" fill="#2f2f2f" fill-rule="evenodd" stroke="none"/>
    <path d="M189.55 70.75 Q193.7 77.35 196.25 84.6 197.9 89.25 198.9 94.25 L199.75 98.6 199.75 98.8 Q200.45 102.9 200.75 106.35 L201.0 110.6 200.8 109.4 200.45 107.8 Q199.65 102.75 198.25 97.55 L197.3 94.9 194.85 89.5 192.15 84.6 Q188.8 79.2 185.05 75.1 L184.85 74.95 184.7 74.8 Q181.35 71.2 177.7 68.05 L174.75 65.65 174.4 65.4 169.95 62.1 Q168.65 61.2 167.35 60.4 L167.25 60.35 167.2 60.3 Q149.55 49.2 126.35 46.3 106.3 43.8 87.9 48.2 L87.7 48.25 Q78.6 50.4 70.0 54.25 64.0 56.9 58.3 60.3 L55.75 61.85 Q45.95 68.05 37.8 76.2 42.4 67.1 49.7 59.15 52.15 56.45 54.9 53.9 80.0 30.85 115.25 30.85 150.5 30.85 175.4 53.9 L179.5 57.9 Q182.45 60.95 184.9 64.15 L189.55 70.75" fill="#585858" fill-rule="evenodd" stroke="none"/>
    <path d="M36.7 108.15 Q37.9 100.75 41.4 94.0 43.5 89.8 46.15 85.8 L47.05 84.6 Q58.45 69.3 73.4 60.85 80.9 56.6 89.3 54.1 L107.4 50.7 Q114.5 50.1 122.1 50.6 L126.0 50.85 126.2 50.9 127.6 51.0 130.95 51.45 Q151.15 55.05 165.9 62.7 169.6 65.05 172.8 67.7 L175.95 70.3 178.8 73.0 182.6 77.3 Q185.35 80.75 187.45 84.6 192.6 93.9 193.9 105.2 L194.1 107.85 194.3 114.45 194.2 116.35 Q193.9 122.6 192.35 128.6 L190.5 134.25 Q187.05 143.0 181.65 150.75 L178.8 154.5 Q173.8 160.45 167.2 164.95 160.25 169.7 152.5 173.15 L150.25 174.05 Q134.25 180.35 115.25 180.35 82.15 180.35 57.95 161.25 L54.9 158.7 53.5 157.4 53.4 157.3 Q36.9 137.1 36.2 116.7 36.1 114.1 36.25 111.55 L36.7 108.15" fill="#434343" fill-rule="evenodd" stroke="none"/>
    <path d="M192.35 128.6 Q186.7 160.55 163.45 175.65 132.85 195.6 75.3 184.2 44.35 172.15 36.1 147.8 30.1 130.15 36.7 108.15 L36.25 111.55 Q36.1 114.1 36.2 116.7 36.9 137.1 53.4 157.3 L53.5 157.4 54.9 158.7 57.95 161.25 Q82.15 180.35 115.25 180.35 134.25 180.35 150.25 174.05 L152.5 173.15 Q160.25 169.7 167.2 164.95 173.8 160.45 178.8 154.5 L181.65 150.75 Q187.05 143.0 190.5 134.25 L192.35 128.6" fill="#202020" fill-rule="evenodd" stroke="none"/>
    <path d="M151.25 63.0 Q171.4 77.0 173.3 99.2 175.4 121.45 158.15 138.9 140.8 156.45 114.5 158.9 88.2 161.4 68.15 147.4 48.15 133.4 46.05 111.25 44.15 89.0 61.4 71.5 78.6 54.0 104.95 51.5 131.25 49.05 151.25 63.0" fill="#4f4f4f" fill-rule="evenodd" stroke="none"/>
    <path d="M152.65 52.1 Q153.05 52.15 153.3 52.5 L153.45 53.25 153.0 53.9 Q85.55 98.45 19.95 103.8 19.5 103.85 19.2 103.55 L18.85 102.9 Q18.8 102.45 19.1 102.15 19.35 101.85 19.8 101.8 84.95 96.45 151.9 52.25 152.25 52.0 152.65 52.1" fill="#000000" fill-rule="evenodd" stroke="none"/>
    <path d="M178.3 132.9 L178.45 133.65 178.05 134.3 177.3 134.45 Q176.85 134.35 176.65 134.05 L131.65 68.8 Q131.4 68.45 131.5 68.05 131.55 67.6 131.9 67.4 132.2 67.15 132.65 67.25 133.05 67.3 133.3 67.65 L178.3 132.9" fill="#000000" fill-rule="evenodd" stroke="none"/>
    <path d="M207.05 120.1 L207.85 120.15 208.35 120.7 Q208.5 121.1 208.3 121.5 L207.75 122.0 176.6 133.55 175.85 133.5 175.3 132.95 Q175.15 132.55 175.35 132.2 175.5 131.8 175.9 131.65 L207.05 120.1" fill="#000000" fill-rule="evenodd" stroke="none"/>
    <path d="M143.85 65.85 Q144.75 66.8 144.75 68.1 144.75 69.4 143.85 70.35 142.95 71.3 141.65 71.3 140.4 71.3 139.45 70.35 138.55 69.4 138.55 68.1 138.55 66.8 139.45 65.85 140.4 64.9 141.65 64.9 142.95 64.9 143.85 65.85" fill="url(#gradient0)" fill-rule="evenodd" stroke="none"/>
    <path d="M143.35 66.4 Q144.0 67.1 144.0 68.1 144.0 69.1 143.35 69.8 142.65 70.5 141.65 70.5 140.7 70.5 140.05 69.8 139.3 69.1 139.3 68.1 139.3 67.1 140.05 66.4 140.7 65.7 141.65 65.7 142.65 65.7 143.35 66.4" fill="url(#gradient1)" fill-rule="evenodd" stroke="none"/>
    <path d="M165.05 94.15 Q165.95 95.1 165.95 96.4 165.95 97.7 165.05 98.65 164.15 99.6 162.85 99.6 161.6 99.6 160.65 98.65 159.75 97.7 159.75 96.4 159.75 95.1 160.65 94.15 161.6 93.2 162.85 93.2 164.15 93.2 165.05 94.15" fill="url(#gradient2)" fill-rule="evenodd" stroke="none"/>
    <path d="M164.55 94.7 Q165.2 95.4 165.2 96.4 165.2 97.4 164.55 98.1 163.85 98.8 162.85 98.8 161.9 98.8 161.25 98.1 160.5 97.4 160.5 96.4 160.5 95.4 161.25 94.7 161.9 94.0 162.85 94.0 163.85 94.0 164.55 94.7" fill="url(#gradient3)" fill-rule="evenodd" stroke="none"/>
    <path d="M180.05 117.95 Q180.95 118.9 180.95 120.2 180.95 121.5 180.05 122.45 179.15 123.4 177.85 123.4 176.6 123.4 175.65 122.45 174.75 121.5 174.75 120.2 174.75 118.9 175.65 117.95 176.6 117.0 177.85 117.0 179.15 117.0 180.05 117.95" fill="url(#gradient4)" fill-rule="evenodd" stroke="none"/>
    <path d="M179.55 118.5 Q180.2 119.2 180.2 120.2 180.2 121.2 179.55 121.9 178.85 122.6 177.85 122.6 176.9 122.6 176.25 121.9 175.5 121.2 175.5 120.2 175.5 119.2 176.25 118.5 176.9 117.8 177.85 117.8 178.85 117.8 179.55 118.5" fill="url(#gradient5)" fill-rule="evenodd" stroke="none"/>
    <path d="M127.3 60.6 Q128.2 61.55 128.2 62.85 128.2 64.15 127.3 65.1 126.4 66.05 125.1 66.05 123.85 66.05 122.9 65.1 122.0 64.15 122.0 62.85 122.0 61.55 122.9 60.6 123.85 59.65 125.1 59.65 126.4 59.65 127.3 60.6" fill="url(#gradient6)" fill-rule="evenodd" stroke="none"/>
    <path d="M126.8 61.15 Q127.45 61.85 127.45 62.85 127.45 63.85 126.8 64.55 126.1 65.25 125.1 65.25 124.15 65.25 123.5 64.55 122.75 63.85 122.75 62.85 122.75 61.85 123.5 61.15 124.15 60.45 125.1 60.45 126.1 60.45 126.8 61.15" fill="url(#gradient7)" fill-rule="evenodd" stroke="none"/>
    <path d="M107.7 71.45 Q108.6 72.4 108.6 73.7 108.6 75.0 107.7 75.95 106.8 76.9 105.5 76.9 104.25 76.9 103.3 75.95 102.4 75.0 102.4 73.7 102.4 72.4 103.3 71.45 104.25 70.5 105.5 70.5 106.8 70.5 107.7 71.45" fill="url(#gradient8)" fill-rule="evenodd" stroke="none"/>
    <path d="M107.2 72.0 Q107.85 72.7 107.85 73.7 107.85 74.7 107.2 75.4 106.5 76.1 105.5 76.1 104.55 76.1 103.9 75.4 103.15 74.7 103.15 73.7 103.15 72.7 103.9 72.0 104.55 71.3 105.5 71.3 106.5 71.3 107.2 72.0" fill="url(#gradient9)" fill-rule="evenodd" stroke="none"/>
    <path d="M83.9 79.85 Q84.8 80.8 84.8 82.1 84.8 83.4 83.9 84.35 83.0 85.3 81.7 85.3 80.45 85.3 79.5 84.35 78.6 83.4 78.6 82.1 78.6 80.8 79.5 79.85 80.45 78.9 81.7 78.9 83.0 78.9 83.9 79.85" fill="url(#gradient10)" fill-rule="evenodd" stroke="none"/>
    <path d="M83.4 80.4 Q84.05 81.1 84.05 82.1 84.05 83.1 83.4 83.8 82.7 84.5 81.7 84.5 80.75 84.5 80.1 83.8 79.35 83.1 79.35 82.1 79.35 81.1 80.1 80.4 80.75 79.7 81.7 79.7 82.7 79.7 83.4 80.4" fill="url(#gradient11)" fill-rule="evenodd" stroke="none"/>
    <path d="M57.65 87.75 Q58.55 88.7 58.55 90.0 58.55 91.3 57.65 92.25 56.75 93.2 55.45 93.2 54.2 93.2 53.25 92.25 52.35 91.3 52.35 90.0 52.35 88.7 53.25 87.75 54.2 86.8 55.45 86.8 56.75 86.8 57.65 87.75" fill="url(#gradient12)" fill-rule="evenodd" stroke="none"/>
    <path d="M57.15 88.3 Q57.8 89.0 57.8 90.0 57.8 91.0 57.15 91.7 56.45 92.4 55.45 92.4 54.5 92.4 53.85 91.7 53.1 91.0 53.1 90.0 53.1 89.0 53.85 88.3 54.5 87.6 55.45 87.6 56.45 87.6 57.15 88.3" fill="url(#gradient13)" fill-rule="evenodd" stroke="none"/>
    <path d="M33.45 92.65 Q34.35 93.6 34.35 94.9 34.35 96.2 33.45 97.15 32.55 98.1 31.25 98.1 30.0 98.1 29.05 97.15 28.15 96.2 28.15 94.9 28.15 93.6 29.05 92.65 30.0 91.7 31.25 91.7 32.55 91.7 33.45 92.65" fill="url(#gradient14)" fill-rule="evenodd" stroke="none"/>
    <path d="M32.95 93.2 Q33.6 93.9 33.6 94.9 33.6 95.9 32.95 96.6 32.25 97.3 31.25 97.3 30.3 97.3 29.65 96.6 28.9 95.9 28.9 94.9 28.9 93.9 29.65 93.2 30.3 92.5 31.25 92.5 32.25 92.5 32.95 93.2" fill="url(#gradient15)" fill-rule="evenodd" stroke="none"/>
    <path d="M84.65 40.0 Q81.85 41.0 79.3 40.75 L77.3 40.25 65.55 6.35 78.5 1.6 90.25 35.5 88.75 37.3 Q86.75 39.2 84.65 40.0" fill="#2a2a2a" fill-rule="evenodd" stroke="none"/>
    <path d="M78.8 -0.7 Q83.15 1.3 84.75 5.9 86.3 10.5 84.3 14.95 82.25 19.25 77.85 20.95 73.35 22.55 69.05 20.5 64.8 18.4 63.2 13.8 61.6 9.2 63.6 4.85 65.65 0.4 70.15 -1.2 74.55 -2.85 78.8 -0.7 M82.25 4.85 Q81.05 1.35 77.8 -0.2 74.6 -1.8 71.3 -0.55 67.9 0.7 66.35 4.0 64.85 7.3 66.1 10.75 67.2 14.25 70.45 15.8 73.65 17.35 77.05 16.1 80.4 14.9 81.9 11.65 83.45 8.25 82.25 4.85" fill="#2a2a2a" fill-rule="evenodd" stroke="none"/>
    <path d="M82.25 4.85 Q83.45 8.25 81.9 11.65 80.4 14.9 77.05 16.1 73.65 17.35 70.45 15.8 67.2 14.25 66.1 10.75 64.85 7.3 66.35 4.0 67.9 0.7 71.3 -0.55 74.6 -1.8 77.8 -0.2 81.05 1.35 82.25 4.85 M79.75 4.8 Q78.9 2.4 76.7 1.3 74.45 0.2 72.15 1.05 69.75 1.9 68.7 4.2 67.65 6.5 68.5 8.9 69.3 11.35 71.55 12.45 L76.15 12.65 Q78.45 11.8 79.5 9.55 80.6 7.2 79.75 4.8" fill="#434343" fill-rule="evenodd" stroke="none"/>
    <path d="M79.75 4.8 Q80.6 7.2 79.5 9.55 78.45 11.8 76.15 12.65 L71.55 12.45 Q69.3 11.35 68.5 8.9 67.65 6.5 68.7 4.2 69.75 1.9 72.15 1.05 74.45 0.2 76.7 1.3 78.9 2.4 79.75 4.8" fill="#696969" fill-rule="evenodd" stroke="none"/>
    <path d="M132.05 120.6 L115.05 166.5" fill="none" stroke="#666666" stroke-linecap="round" stroke-linejoin="round" stroke-width="1.0"/>
    <path d="M147.5 123.95 Q155.9 132.6 155.9 144.85 155.9 157.05 147.5 165.75 139.0 174.45 127.1 174.45 119.3 174.45 112.95 170.65 109.7 168.7 106.8 165.75 98.35 157.05 98.35 144.85 98.35 132.6 106.8 123.95 115.2 115.3 127.1 115.3 L133.25 115.95 Q141.25 117.6 147.5 123.95" fill="url(#gradient16)" fill-rule="evenodd" stroke="none"/>
    <path d="M151.05 144.85 Q151.05 155.1 143.95 162.35 136.9 169.65 126.9 169.65 120.35 169.65 115.05 166.5 112.3 164.85 109.85 162.35 102.8 155.1 102.8 144.85 102.8 134.6 109.85 127.3 116.9 120.05 126.9 120.05 L132.05 120.6 Q138.75 121.95 143.95 127.3 151.05 134.6 151.05 144.85" fill="#a1a1a1" fill-rule="evenodd" stroke="none"/>
    <path d="M149.35 139.8 Q149.35 148.3 142.9 154.3 136.45 160.35 127.3 160.35 118.2 160.35 111.75 154.3 105.25 148.3 105.25 139.8 105.25 131.3 111.75 125.35 118.2 119.3 127.3 119.3 136.45 119.3 142.9 125.35 149.35 131.3 149.35 139.8" fill="#deeef8" fill-rule="evenodd" stroke="none"/>
    <path d="M129.65 123.9 Q130.55 124.85 130.55 126.15 130.55 127.45 129.65 128.4 128.75 129.35 127.45 129.35 126.2 129.35 125.25 128.4 124.35 127.45 124.35 126.15 124.35 124.85 125.25 123.9 126.2 122.95 127.45 122.95 128.75 122.95 129.65 123.9" fill="url(#gradient17)" fill-rule="evenodd" stroke="none"/>
    <path d="M129.15 124.45 Q129.8 125.15 129.8 126.15 129.8 127.15 129.15 127.85 128.45 128.55 127.45 128.55 126.5 128.55 125.85 127.85 125.1 127.15 125.1 126.15 125.1 125.15 125.85 124.45 126.5 123.75 127.45 123.75 128.45 123.75 129.15 124.45" fill="url(#gradient18)" fill-rule="evenodd" stroke="none"/>
    <path d="M143.05 131.3 Q143.95 132.25 143.95 133.55 143.95 134.85 143.05 135.8 142.15 136.75 140.85 136.75 139.6 136.75 138.65 135.8 137.75 134.85 137.75 133.55 137.75 132.25 138.65 131.3 139.6 130.35 140.85 130.35 142.15 130.35 143.05 131.3" fill="url(#gradient19)" fill-rule="evenodd" stroke="none"/>
    <path d="M142.55 131.85 Q143.2 132.55 143.2 133.55 143.2 134.55 142.55 135.25 141.85 135.95 140.85 135.95 139.9 135.95 139.25 135.25 138.5 134.55 138.5 133.55 138.5 132.55 139.25 131.85 139.9 131.15 140.85 131.15 141.85 131.15 142.55 131.85" fill="url(#gradient20)" fill-rule="evenodd" stroke="none"/>
  </g>
  <defs>
    <radialGradient cx="0" cy="0" gradientTransform="matrix(-0.0027, 0.0071, -0.0067, -0.0027, 141.9, 65.4)" gradientUnits="userSpaceOnUse" id="gradient0" r="819.2" spreadMethod="pad">
      <stop offset="0.0" stop-color="#4a4a4a"/>
      <stop offset="0.49411764705882355" stop-color="#575757"/>
      <stop offset="1.0" stop-color="#696969"/>
    </radialGradient>
    <radialGradient cx="0" cy="0" gradientTransform="matrix(-0.0021, 0.0054, -0.0051, -0.0021, 141.85, 66.05)" gradientUnits="userSpaceOnUse" id="gradient1" r="819.2" spreadMethod="pad">
      <stop offset="0.00784313725490196" stop-color="#525252"/>
      <stop offset="0.23137254901960785" stop-color="#454545"/>
      <stop offset="0.6431372549019608" stop-color="#232323"/>
      <stop offset="1.0" stop-color="#000000"/>
    </radialGradient>
    <radialGradient cx="0" cy="0" gradientTransform="matrix(-0.0027, 0.0071, -0.0067, -0.0027, 163.1, 93.7)" gradientUnits="userSpaceOnUse" id="gradient2" r="819.2" spreadMethod="pad">
      <stop offset="0.0" stop-color="#4a4a4a"/>
      <stop offset="0.49411764705882355" stop-color="#575757"/>
      <stop offset="1.0" stop-color="#696969"/>
    </radialGradient>
    <radialGradient cx="0" cy="0" gradientTransform="matrix(-0.0021, 0.0054, -0.0051, -0.0021, 163.05, 94.35)" gradientUnits="userSpaceOnUse" id="gradient3" r="819.2" spreadMethod="pad">
      <stop offset="0.00784313725490196" stop-color="#525252"/>
      <stop offset="0.23137254901960785" stop-color="#454545"/>
      <stop offset="0.6431372549019608" stop-color="#232323"/>
      <stop offset="1.0" stop-color="#000000"/>
    </radialGradient>
    <radialGradient cx="0" cy="0" gradientTransform="matrix(-0.0027, 0.0071, -0.0067, -0.0027, 178.1, 117.5)" gradientUnits="userSpaceOnUse" id="gradient4" r="819.2" spreadMethod="pad">
      <stop offset="0.0" stop-color="#4a4a4a"/>
      <stop offset="0.49411764705882355" stop-color="#575757"/>
      <stop offset="1.0" stop-color="#696969"/>
    </radialGradient>
    <radialGradient cx="0" cy="0" gradientTransform="matrix(-0.0021, 0.0054, -0.0051, -0.0021, 178.05, 118.15)" gradientUnits="userSpaceOnUse" id="gradient5" r="819.2" spreadMethod="pad">
      <stop offset="0.00784313725490196" stop-color="#525252"/>
      <stop offset="0.23137254901960785" stop-color="#454545"/>
      <stop offset="0.6431372549019608" stop-color="#232323"/>
      <stop offset="1.0" stop-color="#000000"/>
    </radialGradient>
    <radialGradient cx="0" cy="0" gradientTransform="matrix(-0.0027, 0.0071, -0.0067, -0.0027, 125.35, 60.15)" gradientUnits="userSpaceOnUse" id="gradient6" r="819.2" spreadMethod="pad">
      <stop offset="0.0" stop-color="#4a4a4a"/>
      <stop offset="0.49411764705882355" stop-color="#575757"/>
      <stop offset="1.0" stop-color="#696969"/>
    </radialGradient>
    <radialGradient cx="0" cy="0" gradientTransform="matrix(-0.0021, 0.0054, -0.0051, -0.0021, 125.3, 60.8)" gradientUnits="userSpaceOnUse" id="gradient7" r="819.2" spreadMethod="pad">
      <stop offset="0.00784313725490196" stop-color="#525252"/>
      <stop offset="0.23137254901960785" stop-color="#454545"/>
      <stop offset="0.6431372549019608" stop-color="#232323"/>
      <stop offset="1.0" stop-color="#000000"/>
    </radialGradient>
    <radialGradient cx="0" cy="0" gradientTransform="matrix(-0.0027, 0.0071, -0.0067, -0.0027, 105.75, 71.0)" gradientUnits="userSpaceOnUse" id="gradient8" r="819.2" spreadMethod="pad">
      <stop offset="0.0" stop-color="#4a4a4a"/>
      <stop offset="0.49411764705882355" stop-color="#575757"/>
      <stop offset="1.0" stop-color="#696969"/>
    </radialGradient>
    <radialGradient cx="0" cy="0" gradientTransform="matrix(-0.0021, 0.0054, -0.0051, -0.0021, 105.7, 71.65)" gradientUnits="userSpaceOnUse" id="gradient9" r="819.2" spreadMethod="pad">
      <stop offset="0.00784313725490196" stop-color="#525252"/>
      <stop offset="0.23137254901960785" stop-color="#454545"/>
      <stop offset="0.6431372549019608" stop-color="#232323"/>
      <stop offset="1.0" stop-color="#000000"/>
    </radialGradient>
    <radialGradient cx="0" cy="0" gradientTransform="matrix(-0.0027, 0.0071, -0.0067, -0.0027, 81.95, 79.4)" gradientUnits="userSpaceOnUse" id="gradient10" r="819.2" spreadMethod="pad">
      <stop offset="0.0" stop-color="#4a4a4a"/>
      <stop offset="0.49411764705882355" stop-color="#575757"/>
      <stop offset="1.0" stop-color="#696969"/>
    </radialGradient>
    <radialGradient cx="0" cy="0" gradientTransform="matrix(-0.0021, 0.0054, -0.0051, -0.0021, 81.9, 80.05)" gradientUnits="userSpaceOnUse" id="gradient11" r="819.2" spreadMethod="pad">
      <stop offset="0.00784313725490196" stop-color="#525252"/>
      <stop offset="0.23137254901960785" stop-color="#454545"/>
      <stop offset="0.6431372549019608" stop-color="#232323"/>
      <stop offset="1.0" stop-color="#000000"/>
    </radialGradient>
    <radialGradient cx="0" cy="0" gradientTransform="matrix(-0.0027, 0.0071, -0.0067, -0.0027, 55.7, 87.3)" gradientUnits="userSpaceOnUse" id="gradient12" r="819.2" spreadMethod="pad">
      <stop offset="0.0" stop-color="#4a4a4a"/>
      <stop offset="0.49411764705882355" stop-color="#575757"/>
      <stop offset="1.0" stop-color="#696969"/>
    </radialGradient>
    <radialGradient cx="0" cy="0" gradientTransform="matrix(-0.0021, 0.0054, -0.0051, -0.0021, 55.65, 87.95)" gradientUnits="userSpaceOnUse" id="gradient13" r="819.2" spreadMethod="pad">
      <stop offset="0.00784313725490196" stop-color="#525252"/>
      <stop offset="0.23137254901960785" stop-color="#454545"/>
      <stop offset="0.6431372549019608" stop-color="#232323"/>
      <stop offset="1.0" stop-color="#000000"/>
    </radialGradient>
    <radialGradient cx="0" cy="0" gradientTransform="matrix(-0.0027, 0.0071, -0.0067, -0.0027, 31.5, 92.2)" gradientUnits="userSpaceOnUse" id="gradient14" r="819.2" spreadMethod="pad">
      <stop offset="0.0" stop-color="#4a4a4a"/>
      <stop offset="0.49411764705882355" stop-color="#575757"/>
      <stop offset="1.0" stop-color="#696969"/>
    </radialGradient>
    <radialGradient cx="0" cy="0" gradientTransform="matrix(-0.0021, 0.0054, -0.0051, -0.0021, 31.45, 92.85)" gradientUnits="userSpaceOnUse" id="gradient15" r="819.2" spreadMethod="pad">
      <stop offset="0.00784313725490196" stop-color="#525252"/>
      <stop offset="0.23137254901960785" stop-color="#454545"/>
      <stop offset="0.6431372549019608" stop-color="#232323"/>
      <stop offset="1.0" stop-color="#000000"/>
    </radialGradient>
    <linearGradient gradientTransform="matrix(6.0E-4, 0.0361, -0.0351, 6.0E-4, 127.1, 144.85)" gradientUnits="userSpaceOnUse" id="gradient16" spreadMethod="pad" x1="-819.2" x2="819.2">
      <stop offset="0.0" stop-color="#353535"/>
      <stop offset="1.0" stop-color="#2a2a2a"/>
    </linearGradient>
    <radialGradient cx="0" cy="0" gradientTransform="matrix(-0.0027, 0.0071, -0.0067, -0.0027, 127.7, 123.45)" gradientUnits="userSpaceOnUse" id="gradient17" r="819.2" spreadMethod="pad">
      <stop offset="0.0" stop-color="#4a4a4a"/>
      <stop offset="0.49411764705882355" stop-color="#575757"/>
      <stop offset="1.0" stop-color="#696969"/>
    </radialGradient>
    <radialGradient cx="0" cy="0" gradientTransform="matrix(-0.0021, 0.0054, -0.0051, -0.0021, 127.65, 124.1)" gradientUnits="userSpaceOnUse" id="gradient18" r="819.2" spreadMethod="pad">
      <stop offset="0.00784313725490196" stop-color="#525252"/>
      <stop offset="0.23137254901960785" stop-color="#454545"/>
      <stop offset="0.6431372549019608" stop-color="#232323"/>
      <stop offset="1.0" stop-color="#000000"/>
    </radialGradient>
    <radialGradient cx="0" cy="0" gradientTransform="matrix(-0.0027, 0.0071, -0.0067, -0.0027, 141.1, 130.85)" gradientUnits="userSpaceOnUse" id="gradient19" r="819.2" spreadMethod="pad">
      <stop offset="0.0" stop-color="#4a4a4a"/>
      <stop offset="0.49411764705882355" stop-color="#575757"/>
      <stop offset="1.0" stop-color="#696969"/>
    </radialGradient>
    <radialGradient cx="0" cy="0" gradientTransform="matrix(-0.0021, 0.0054, -0.0051, -0.0021, 141.05, 131.5)" gradientUnits="userSpaceOnUse" id="gradient20" r="819.2" spreadMethod="pad">
      <stop offset="0.00784313725490196" stop-color="#525252"/>
      <stop offset="0.23137254901960785" stop-color="#454545"/>
      <stop offset="0.6431372549019608" stop-color="#232323"/>
      <stop offset="1.0" stop-color="#000000"/>
    </radialGradient>
  </defs>
</svg>
