<?xml version="1.0" encoding="UTF-8" standalone="no"?>
<svg xmlns:xlink="http://www.w3.org/1999/xlink" height="50.35px" width="46.65px" xmlns="http://www.w3.org/2000/svg">
  <g transform="matrix(1.0, 0.0, 0.0, 1.0, -0.3, 0.0)">
    <path d="M44.0 33.25 L45.5 38.65 46.9 44.35 46.95 44.6 Q44.2 47.2 39.2 48.7 34.75 50.05 29.35 50.3 15.2 50.75 7.3 43.45 0.6 37.35 0.3 27.8 -0.15 15.7 8.5 8.4 17.8 0.6 35.9 0.0 L36.75 0.0 Q37.3 0.0 37.3 0.15 L39.85 12.8 39.75 13.05 34.45 13.1 Q25.1 13.4 19.9 17.45 15.05 21.35 15.2 27.45 15.35 32.15 18.7 34.85 22.5 37.9 29.6 37.7 37.0 37.5 44.0 33.25" fill="#ff0000" fill-rule="evenodd" stroke="none"/>
  </g>
</svg>
