<?xml version="1.0" encoding="UTF-8" standalone="no"?>
<svg xmlns:xlink="http://www.w3.org/1999/xlink" height="91.7px" width="100.25px" xmlns="http://www.w3.org/2000/svg">
  <g transform="matrix(1.0, 0.0, 0.0, 1.0, 7.75, -16.6)">
    <path d="M87.55 30.65 L85.25 30.65 81.45 29.95 79.9 32.4 79.9 33.15 79.9 34.2 79.9 35.65 Q79.9 39.2 80.3 43.8 L80.3 45.95 Q80.65 47.7 80.65 49.5 L80.65 53.05 Q80.65 54.5 81.05 56.25 L81.05 57.3 81.05 61.25 81.45 62.7 81.45 63.4 81.45 66.6 81.45 67.65 82.95 67.3 Q82.95 68.75 83.35 70.5 L83.35 73.35 84.1 76.2 84.1 77.95 Q84.5 78.35 84.5 79.05 L83.75 79.4 Q83.75 79.75 84.1 80.1 84.9 84.75 86.05 89.0 L86.05 89.75 86.05 90.05 87.95 95.8 Q87.95 97.55 88.35 99.0 L83.35 100.75 79.9 101.5 Q79.5 101.5 79.15 101.8 L78.0 101.8 Q62.25 105.75 50.35 105.05 L45.75 105.05 45.75 101.5 45.75 95.8 39.6 95.8 39.2 101.1 38.8 104.3 34.6 105.05 32.7 105.05 Q22.7 106.1 10.05 102.55 9.65 102.2 9.25 102.2 L7.75 101.8 5.45 101.1 -0.7 98.6 -0.35 94.7 Q-0.35 94.0 0.05 93.25 -0.7 93.65 -1.5 93.65 L1.95 78.35 Q1.95 77.25 2.35 76.55 2.75 74.05 3.5 71.25 L3.5 67.3 5.05 67.65 5.05 66.95 5.45 53.05 Q5.05 52.75 5.05 52.35 0.8 41.7 -0.7 29.95 L-3.0 30.25 -3.8 28.5 Q-4.55 27.05 -4.55 26.0 -4.95 25.3 -4.55 24.6 L-3.8 23.15 5.45 21.75 5.45 19.6 79.5 19.6 79.9 20.65 85.65 20.65 84.5 22.8 88.35 23.15 Q89.1 23.85 89.1 24.6 89.5 26.0 89.5 27.05 89.1 28.5 87.55 30.65" fill="#6d6060" fill-rule="evenodd" stroke="none"/>
    <path d="M87.55 30.65 L85.25 30.65 81.45 29.95 79.9 32.4 79.9 33.15 79.9 34.2 79.9 35.65 Q79.9 39.2 80.3 43.8 L80.3 45.95 Q80.65 47.7 80.65 49.5 L80.65 53.05 Q80.65 54.5 81.05 56.25 L81.05 57.3 81.05 61.25 81.45 62.7 81.45 63.4 81.45 66.6 81.45 67.65 82.95 67.3 Q82.95 68.75 83.35 70.5 L83.35 73.35 84.1 76.2 84.1 77.95 Q84.5 78.35 84.5 79.05 L83.75 79.4 Q83.75 79.75 84.1 80.1 84.9 84.75 86.05 89.0 L86.05 89.75 86.05 90.05 87.95 95.8 Q87.95 97.55 88.35 99.0 L83.35 100.75 79.9 101.5 Q79.5 101.5 79.15 101.8 L78.0 101.8 Q62.25 105.75 50.35 105.05 L45.75 105.05 45.75 101.5 45.75 95.8 39.6 95.8 39.2 101.1 38.8 104.3 34.6 105.05 32.7 105.05 Q22.7 106.1 10.05 102.55 9.65 102.2 9.25 102.2 L7.75 101.8 5.45 101.1 -0.7 98.6 -0.35 94.7 Q-0.35 94.0 0.05 93.25 -0.7 93.65 -1.5 93.65 L1.95 78.35 Q1.95 77.25 2.35 76.55 2.75 74.05 3.5 71.25 L3.5 67.3 5.05 67.65 5.05 66.95 5.45 53.05 Q5.05 52.75 5.05 52.35 0.8 41.7 -0.7 29.95 L-3.0 30.25 -3.8 28.5 Q-4.55 27.05 -4.55 26.0 -4.95 25.3 -4.55 24.6 L-3.8 23.15 5.45 21.75 5.45 19.6 79.5 19.6 79.9 20.65 85.65 20.65 84.5 22.8 88.35 23.15 Q89.1 23.85 89.1 24.6 89.5 26.0 89.5 27.05 89.1 28.5 87.55 30.65 Z" fill="none" stroke="#000000" stroke-linecap="round" stroke-linejoin="round" stroke-width="6.0"/>
    <path d="M77.6 20.05 L79.9 20.05 79.9 20.75 79.9 21.1 79.9 24.3 79.9 32.85 79.9 33.55 79.9 35.7 Q79.9 39.6 80.3 43.5 L80.3 46.35 80.65 51.35 81.05 56.7 81.05 57.0 81.05 57.75 81.05 61.35 Q81.05 62.4 81.45 62.7 L81.45 63.8 81.45 66.65 81.45 69.5 Q81.8 70.55 81.8 72.35 82.2 72.7 82.6 73.75 L78.75 74.45 Q77.2 74.85 75.65 75.55 L74.5 75.55 64.15 78.05 Q52.65 81.6 50.7 84.45 38.05 87.65 37.3 84.8 36.5 82.0 35.0 80.55 33.45 78.4 28.05 76.95 L18.85 74.15 15.4 73.4 14.25 73.4 10.05 73.05 Q5.8 73.4 3.5 73.05 L3.9 72.35 Q4.25 70.2 5.05 67.35 L5.45 20.05 8.9 20.05 Q17.35 27.85 39.2 31.8 59.95 32.1 77.6 20.05" fill="#2a2929" fill-rule="evenodd" stroke="none"/>
    <path d="M3.5 73.05 Q5.8 73.4 10.05 73.05 5.05 93.35 5.45 101.2 L-0.7 99.05 -0.35 95.1 Q0.05 93.35 0.05 91.9 0.45 91.6 0.45 90.5 0.45 89.75 0.8 89.45 1.6 83.35 3.1 76.95 L3.1 75.55 Q3.1 74.85 3.5 74.15 L3.5 73.05 M78.75 74.45 L82.6 73.75 82.6 74.85 84.1 80.15 Q84.9 85.2 86.05 89.45 L86.05 89.75 86.05 90.5 Q86.8 93.35 87.95 96.15 87.95 97.6 88.75 99.35 86.05 100.1 83.35 101.2 82.95 88.7 78.75 74.45 M50.35 105.45 L45.75 105.1 45.75 101.5 45.35 95.85 43.8 95.85 43.8 96.15 40.75 96.15 40.75 95.85 39.6 95.85 39.2 101.5 38.8 104.75 34.6 105.45 36.15 97.6 Q33.45 97.6 30.4 91.6 42.3 94.8 53.8 91.6 51.85 96.55 48.8 97.6 L50.35 105.45" fill="#333030" fill-rule="evenodd" stroke="none"/>
    <path d="M77.6 20.05 Q59.95 32.1 39.2 31.8 17.35 27.85 8.9 20.05 L77.6 20.05" fill="#6b6262" fill-rule="evenodd" stroke="none"/>
    <path d="M10.05 73.05 L14.25 73.4 Q8.9 92.65 9.25 102.55 L7.75 102.25 Q6.6 101.5 5.45 101.2 5.05 93.35 10.05 73.05 M74.5 75.55 L75.65 75.55 Q77.2 74.85 78.75 74.45 82.95 88.7 83.35 101.2 L79.9 101.5 Q79.9 88.0 74.5 75.55" fill="#c48019" fill-rule="evenodd" stroke="none"/>
    <path d="M14.25 73.4 L15.4 73.4 18.85 74.15 28.05 76.95 Q33.45 78.4 35.0 80.55 36.5 82.0 37.3 84.8 38.05 87.65 50.7 84.45 52.65 81.6 64.15 78.05 L74.5 75.55 Q79.9 88.0 79.9 101.5 L79.15 102.25 78.0 102.25 Q62.25 106.15 50.35 105.45 L48.8 97.6 Q51.85 96.55 53.8 91.6 42.3 94.8 30.4 91.6 33.45 97.6 36.15 97.6 L34.6 105.45 32.7 105.45 Q22.7 106.5 10.05 102.95 9.65 102.55 9.25 102.55 8.9 92.65 14.25 73.4" fill="#585151" fill-rule="evenodd" stroke="none"/>
    <path d="M83.35 70.95 Q69.15 74.85 53.05 75.55 43.05 76.25 33.85 75.2 18.85 74.85 3.5 70.95 L3.5 67.75 Q18.5 70.55 31.55 71.65 44.6 72.35 56.5 71.65 68.0 70.55 82.95 67.75 83.35 69.15 83.35 70.95" fill="#fac560" fill-rule="evenodd" stroke="none"/>
    <path d="M83.35 70.95 L83.35 73.75 Q84.1 75.2 84.1 76.25 84.1 77.35 84.5 78.05 L84.5 79.45 Q68.75 83.05 61.1 83.75 L48.8 84.8 33.05 84.1 32.3 84.1 Q17.35 83.35 1.6 79.8 1.95 79.45 1.95 78.75 2.35 78.05 2.35 76.6 L3.5 71.65 3.5 70.95 Q18.85 74.85 33.85 75.2 43.05 76.25 53.05 75.55 69.15 74.85 83.35 70.95" fill="#e9a31b" fill-rule="evenodd" stroke="none"/>
    <path d="M73.75 24.3 L78.75 22.2 79.5 22.2 88.35 23.55 89.5 25.0 89.5 27.15 Q89.1 28.9 87.55 31.05 L85.25 31.05 81.05 29.95 80.65 29.95 79.9 29.65 73.75 28.2 73.75 24.3 M-0.7 29.95 L-3.0 30.7 Q-3.0 29.95 -3.8 28.9 -4.55 27.5 -4.55 26.45 L-4.55 26.1 Q-4.95 25.7 -4.55 25.0 L-3.8 23.55 5.8 21.8 5.8 22.2 11.2 24.3 11.2 27.5 5.8 29.3 5.45 29.3 4.65 29.65 2.35 29.95 1.2 29.95 -0.7 29.95" fill="#e98c1b" fill-rule="evenodd" stroke="none"/>
    <path d="M79.9 29.65 L79.9 32.1 79.9 34.25 43.45 51.35 31.55 46.35 Q32.7 41.0 33.85 33.15 L32.3 32.1 Q31.15 40.7 30.0 45.65 L26.9 44.6 Q27.3 43.9 28.05 43.15 L31.15 31.8 29.6 31.05 Q26.15 42.45 25.75 42.8 20.4 41.75 15.4 39.95 L13.85 39.6 13.5 39.6 Q9.65 37.8 6.6 35.7 L5.45 33.15 5.45 29.3 5.8 29.3 11.2 27.5 11.2 24.3 34.6 31.4 Q37.3 32.1 38.8 33.55 42.65 36.05 43.8 41.75 44.2 38.2 46.9 35.35 49.2 32.5 51.5 31.8 L70.7 25.0 73.75 24.3 73.75 28.2 79.9 29.65" fill="#2a2929" fill-rule="evenodd" stroke="none"/>
    <path d="M31.55 46.35 Q29.6 54.55 27.3 57.4 23.45 63.45 17.35 63.45 9.25 63.45 5.05 52.45 0.8 41.75 -0.7 29.95 L1.2 29.95 Q3.9 45.3 6.95 52.45 11.2 61.65 17.35 61.65 20.8 61.65 23.85 58.85 L27.7 53.1 Q28.85 51.35 30.0 45.65 31.15 40.7 32.3 32.1 L33.85 33.15 Q32.7 41.0 31.55 46.35 M2.35 29.95 L4.65 29.65 5.45 33.15 6.6 35.7 Q7.35 38.2 8.9 39.95 11.2 43.5 13.1 45.3 15.4 47.4 18.1 47.4 21.95 47.4 25.0 43.9 L25.75 42.8 Q26.15 42.45 29.6 31.05 L31.15 31.8 28.05 43.15 Q27.3 43.9 26.9 44.6 25.75 46.7 23.85 48.15 21.15 49.9 18.5 49.9 13.5 50.3 8.9 44.6 3.5 38.55 2.35 29.95" fill="#d27300" fill-rule="evenodd" stroke="none"/>
    <path d="M77.15 21.3 L79.95 27.2 Q42.5 40.1 2.35 27.35 L4.3 21.25 Q40.4 25.8 77.15 21.3" fill="#f7b638" fill-rule="evenodd" stroke="none"/>
    <path d="M4.3 21.25 L5.25 18.35 75.2 18.35 77.15 21.3 Q40.4 25.8 4.3 21.25" fill="#fadc7e" fill-rule="evenodd" stroke="none"/>
    <path d="M71.9 19.45 L81.0 19.45 Q66.45 53.15 39.4 71.75 26.5 80.65 17.75 84.65 9.95 88.25 -1.45 90.95 L0.25 82.35 Q25.6 75.95 45.4 57.15 65.25 37.0 71.9 19.45" fill="#c41919" fill-rule="evenodd" stroke="none"/>
    <path d="M0.25 82.35 L1.25 78.7 Q43.6 69.1 68.05 19.45 L71.9 19.45 Q65.25 37.0 45.4 57.15 25.6 75.95 0.25 82.35 M81.0 19.45 L85.0 19.45 Q58.75 80.65 -2.15 94.45 L-1.45 90.95 Q9.95 88.25 17.75 84.65 26.5 80.65 39.4 71.75 66.45 53.15 81.0 19.45" fill="#6b0000" fill-rule="evenodd" stroke="none"/>
  </g>
</svg>
