<?xml version="1.0" encoding="UTF-8" standalone="no"?>
<svg xmlns:xlink="http://www.w3.org/1999/xlink" height="91.85px" width="95.45px" xmlns="http://www.w3.org/2000/svg">
  <g transform="matrix(1.0, 0.0, 0.0, 1.0, 2.15, -15.8)">
    <path d="M81.45 18.8 L81.45 19.9 Q81.45 21.65 81.85 23.45 L81.85 30.55 81.85 31.6 81.85 32.3 81.85 34.8 Q82.25 38.35 82.25 42.65 L82.25 45.45 82.25 45.85 82.25 50.45 Q82.25 52.25 82.6 55.45 L82.6 55.8 82.6 56.85 Q83.0 58.3 83.0 60.05 L83.0 60.45 83.0 61.8 83.0 62.55 Q83.0 63.95 83.4 65.75 L83.4 67.5 83.4 68.2 Q83.4 68.6 83.75 69.3 L83.75 71.8 84.15 72.15 84.15 72.85 84.15 73.55 84.9 77.1 85.3 77.8 Q85.3 78.55 85.7 78.9 L85.7 79.6 Q86.45 84.25 88.0 88.5 88.4 88.85 88.4 89.2 L88.4 91.35 Q88.75 93.1 89.55 94.9 L89.55 95.25 90.3 98.1 88.4 98.8 85.3 99.85 84.9 99.85 82.25 100.55 Q81.45 100.55 80.7 100.95 80.3 100.95 79.95 101.3 L75.7 102.0 72.25 102.75 Q61.5 104.9 51.9 104.5 L47.3 104.15 47.3 102.75 47.3 100.55 47.3 98.8 40.8 98.8 40.8 100.25 40.8 102.75 40.8 103.45 36.55 104.15 34.65 104.5 Q26.2 105.2 15.8 102.75 L12.0 102.0 12.0 101.65 10.85 101.3 Q10.05 101.3 9.7 100.95 L7.0 100.25 Q3.9 99.2 0.85 97.75 1.25 96.0 1.25 94.15 L2.0 91.0 2.0 89.2 2.4 88.5 3.55 81.75 Q3.55 80.3 4.3 78.55 L4.3 77.1 Q4.3 76.75 4.7 76.75 L4.7 76.05 Q5.1 75.35 5.1 74.3 L5.45 73.25 5.45 71.8 5.45 71.4 6.25 69.3 Q6.25 68.2 6.6 67.5 L6.6 66.45 7.4 32.65 7.0 32.0 7.0 20.6 7.4 20.6 7.4 18.8 81.45 18.8" fill="#c4a25a" fill-rule="evenodd" stroke="none"/>
    <path d="M81.45 18.8 L7.4 18.8 7.4 20.6 7.0 20.6 7.0 32.0 7.4 32.65 6.6 66.45 6.6 67.5 Q6.25 68.2 6.25 69.3 L5.45 71.4 5.45 71.8 5.45 73.25 5.1 74.3 Q5.1 75.35 4.7 76.05 L4.7 76.75 Q4.3 76.75 4.3 77.1 L4.3 78.55 Q3.55 80.3 3.55 81.75 L2.4 88.5 2.0 89.2 2.0 91.0 1.25 94.15 Q1.25 96.0 0.85 97.75 3.9 99.2 7.0 100.25 L9.7 100.95 Q10.05 101.3 10.85 101.3 L12.0 101.65 12.0 102.0 15.8 102.75 Q26.2 105.2 34.65 104.5 L36.55 104.15 40.8 103.45 40.8 102.75 40.8 100.25 40.8 98.8 47.3 98.8 47.3 100.55 47.3 102.75 47.3 104.15 51.9 104.5 Q61.5 104.9 72.25 102.75 L75.7 102.0 79.95 101.3 Q80.3 100.95 80.7 100.95 81.45 100.55 82.25 100.55 L84.9 99.85 85.3 99.85 88.4 98.8 90.3 98.1 89.55 95.25 89.55 94.9 Q88.75 93.1 88.4 91.35 L88.4 89.2 Q88.4 88.85 88.0 88.5 86.45 84.25 85.7 79.6 L85.7 78.9 Q85.3 78.55 85.3 77.8 L84.9 77.1 84.15 73.55 84.15 72.85 84.15 72.15 83.75 71.8 83.75 69.3 Q83.4 68.6 83.4 68.2 L83.4 67.5 83.4 65.75 Q83.0 63.95 83.0 62.55 L83.0 61.8 83.0 60.45 83.0 60.05 Q83.0 58.3 82.6 56.85 L82.6 55.8 82.6 55.45 Q82.25 52.25 82.25 50.45 L82.25 45.85 82.25 45.45 82.25 42.65 Q82.25 38.35 81.85 34.8 L81.85 32.3 81.85 31.6 81.85 30.55 81.85 23.45 Q81.45 21.65 81.45 19.9 L81.45 18.8 Z" fill="none" stroke="#0e0d0d" stroke-linecap="round" stroke-linejoin="round" stroke-width="6.0"/>
    <path d="M79.55 18.4 L81.45 18.4 81.45 19.1 81.45 23.05 Q81.85 26.55 81.85 30.15 L81.85 31.2 81.85 31.9 81.85 34.4 Q81.85 37.95 82.25 42.25 L82.25 44.75 82.25 45.45 82.25 50.05 Q82.25 51.85 82.6 55.05 L82.6 55.4 82.6 56.1 Q82.6 57.9 83.0 59.65 L83.0 60.05 83.0 61.4 82.6 60.05 78.4 61.4 77.65 61.4 76.85 61.4 72.25 62.5 70.7 62.85 70.35 62.85 Q73.8 58.25 75.3 54.65 79.15 44.75 79.15 32.95 L79.55 18.4 M7.0 60.05 L7.4 18.4 10.85 18.4 13.9 41.15 Q14.3 49.0 15.8 51.45 17.0 53.95 18.15 57.55 18.9 61.1 21.95 63.25 L16.6 62.5 14.65 61.8 12.0 61.4 10.85 61.4 7.0 60.05 M37.3 63.55 L36.55 63.55 36.55 63.25 37.3 63.55 M53.05 63.55 Q53.45 63.25 54.2 63.25 L54.2 63.55 53.05 63.55" fill="#a2a2a2" fill-rule="evenodd" stroke="none"/>
    <path d="M70.35 62.85 L70.7 62.85 72.25 62.5 73.8 72.1 Q73.0 72.85 71.85 72.85 L70.7 73.5 Q67.65 74.95 64.6 75.65 L63.05 63.95 70.35 62.85 M78.4 61.4 L82.6 60.05 83.0 61.4 83.0 62.15 83.0 65.35 83.4 67.1 83.4 67.8 Q81.85 68.55 80.3 68.9 79.95 68.9 79.95 69.25 L78.4 61.4 M6.25 67.1 L6.6 66.75 6.6 65.7 7.0 60.05 10.85 61.4 9.7 68.55 6.6 67.1 6.25 67.1 M33.85 77.4 L36.15 65.0 41.15 65.0 Q45.0 65.35 48.85 65.0 L54.6 65.0 56.5 77.8 56.15 77.8 Q45.0 79.6 33.85 77.4 M21.95 63.25 L28.1 63.95 26.2 75.3 Q21.95 74.6 17.75 72.85 16.2 72.1 14.65 71.0 L16.6 62.5 21.95 63.25 M50.0 92.0 Q51.15 91.65 51.5 90.6 51.9 90.25 52.3 90.25 52.3 91.3 53.05 93.1 L53.05 93.45 Q51.9 94.15 51.15 95.2 51.15 94.85 50.75 94.5 50.0 93.1 50.0 92.0" fill="#f2a400" fill-rule="evenodd" stroke="none"/>
    <path d="M83.4 67.8 L83.4 68.55 Q83.75 69.65 83.75 71.0 83.75 71.4 84.15 71.4 L84.15 72.1 84.15 73.15 80.3 74.6 79.95 74.6 75.7 76.0 72.25 77.1 71.85 72.85 Q73.0 72.85 73.8 72.1 L75.7 71.0 Q76.85 70.7 78.0 69.95 L78.8 69.95 Q79.15 69.25 79.95 69.25 79.95 68.9 80.3 68.9 81.85 68.55 83.4 67.8 M5.45 72.85 L5.45 71.0 6.25 68.9 6.6 67.1 9.7 68.55 9.7 68.9 10.45 68.9 Q11.6 69.95 13.5 70.7 L14.65 71.0 Q16.2 72.1 17.75 72.85 L17.75 76.7 17.35 76.7 Q13.5 74.95 8.9 73.9 7.0 73.15 5.45 72.85" fill="#000000" fill-rule="evenodd" stroke="none"/>
    <path d="M84.9 76.7 L85.3 77.1 Q85.3 77.8 85.7 78.5 L85.7 78.85 Q86.45 83.85 88.0 87.75 L88.0 88.1 Q88.0 88.45 88.4 88.8 L88.4 90.6 Q88.75 92.4 89.55 94.15 L89.55 94.5 90.3 97.7 88.4 98.4 84.9 99.45 81.85 100.15 80.7 100.15 79.95 100.55 75.7 101.6 Q79.15 94.15 79.15 82.4 79.15 79.9 78.8 78.5 L79.15 78.5 83.0 77.1 Q84.15 77.1 84.9 76.7 M11.6 101.25 Q11.2 100.9 10.85 100.9 10.05 100.55 9.7 100.15 L7.0 99.85 Q3.9 98.4 0.85 97.35 1.25 95.6 1.25 93.45 1.25 92.0 2.0 90.25 L2.0 88.8 2.4 87.75 3.55 81.35 Q3.55 79.6 4.3 77.8 L4.3 76.35 4.7 76.0 Q7.75 77.1 11.2 78.5 10.85 79.2 10.45 83.1 10.05 87.05 10.05 92.0 10.05 95.9 11.6 101.25" fill="#8e8a8a" fill-rule="evenodd" stroke="none"/>
    <path d="M84.15 73.15 L84.9 76.7 Q84.15 77.1 83.0 77.1 L79.15 78.5 78.8 78.5 Q74.95 79.9 71.1 81.7 L70.35 82.05 Q70.35 79.6 69.55 78.5 L72.25 77.1 75.7 76.0 79.95 74.6 80.3 74.6 84.15 73.15 M47.3 98.05 L40.8 98.05 Q39.6 96.65 37.7 95.2 L38.45 92.0 38.85 92.0 40.8 94.85 41.15 94.85 46.9 94.85 Q48.85 93.45 50.0 92.0 50.0 93.1 50.75 94.5 51.15 94.85 51.15 95.2 L47.3 98.05 M4.7 76.0 L4.7 75.3 Q4.7 74.6 5.1 73.9 5.1 73.15 5.45 72.85 7.0 73.15 8.9 73.9 13.5 74.95 17.35 76.7 17.35 78.5 16.6 79.6 L16.6 80.65 Q13.9 79.2 11.2 78.5 7.75 77.1 4.7 76.0" fill="#cb8900" fill-rule="evenodd" stroke="none"/>
    <path d="M79.55 18.4 L79.15 32.95 Q79.15 44.75 75.3 54.65 73.8 58.25 70.35 62.85 L63.05 63.95 57.3 64.6 54.6 65.0 48.85 65.0 Q45.0 65.35 41.15 65.0 L36.15 65.0 33.5 64.3 28.1 63.95 21.95 63.25 Q18.9 61.1 18.15 57.55 17.0 53.95 15.8 51.45 14.3 49.0 13.9 41.15 L10.85 18.4 79.55 18.4 M37.3 63.55 L36.55 63.25 36.55 63.55 37.3 63.55 M37.7 95.2 L35.4 98.8 Q33.5 100.9 28.1 100.9 22.35 100.55 19.65 96.65 17.0 92.7 17.0 82.8 L17.35 81.0 Q26.2 85.25 34.65 92.0 L37.7 95.2 M53.05 63.55 L54.2 63.55 54.2 63.25 Q53.45 63.25 53.05 63.55 M71.1 81.7 L71.5 86.3 Q71.85 93.1 69.55 96.3 66.5 100.55 61.5 99.85 57.65 99.85 55.75 97.35 L53.85 94.5 Q53.85 94.15 53.45 94.15 L53.05 93.45 53.05 93.1 Q53.85 92.4 54.6 92.0 62.25 86.3 70.35 82.05 L71.1 81.7" fill="#c8c8c8" fill-rule="evenodd" stroke="none"/>
    <path d="M33.5 64.3 L36.15 65.0 33.85 77.4 32.35 77.1 30.8 77.1 33.5 64.3 M54.6 65.0 L57.3 64.6 58.8 77.1 56.5 77.8 54.6 65.0" fill="#ffc856" fill-rule="evenodd" stroke="none"/>
    <path d="M33.5 64.3 L30.8 77.1 26.2 75.3 28.1 63.95 33.5 64.3 M57.3 64.6 L63.05 63.95 64.6 75.65 Q61.9 76.7 58.8 77.1 L57.3 64.6" fill="#bb7a00" fill-rule="evenodd" stroke="none"/>
    <path d="M72.25 62.5 L76.85 61.4 78.0 69.95 Q76.85 70.7 75.7 71.0 L73.8 72.1 72.25 62.5 M16.6 62.5 L14.65 71.0 13.5 70.7 Q11.6 69.95 10.45 68.9 L12.0 61.4 14.65 61.8 16.6 62.5" fill="#fcd37d" fill-rule="evenodd" stroke="none"/>
    <path d="M76.85 61.4 L77.65 61.4 78.4 61.4 79.95 69.25 Q79.15 69.25 78.8 69.95 L78.0 69.95 76.85 61.4 M10.85 61.4 L12.0 61.4 10.45 68.9 9.7 68.9 9.7 68.55 10.85 61.4" fill="#955a01" fill-rule="evenodd" stroke="none"/>
    <path d="M6.25 68.9 L6.25 67.1 6.6 67.1 6.25 68.9 M40.8 94.85 L41.15 94.5 41.15 94.85 40.8 94.85" fill="#413a3a" fill-rule="evenodd" stroke="none"/>
    <path d="M75.7 101.6 L72.25 102.0 Q61.1 104.5 51.9 103.75 L47.3 103.4 47.3 102.0 47.3 99.85 47.3 98.05 51.15 95.2 Q51.9 94.15 53.05 93.45 L53.45 94.15 Q53.85 94.15 53.85 94.5 L55.75 97.35 Q57.65 99.85 61.5 99.85 66.5 100.55 69.55 96.3 71.85 93.1 71.5 86.3 L71.1 81.7 Q74.95 79.9 78.8 78.5 79.15 79.9 79.15 82.4 79.15 94.15 75.7 101.6 M40.8 98.05 L40.8 99.85 40.8 102.0 40.8 103.05 36.55 103.75 34.65 103.75 Q26.2 104.5 15.8 102.0 L12.0 101.25 11.6 101.25 Q10.05 95.9 10.05 92.0 10.05 87.05 10.45 83.1 10.85 79.2 11.2 78.5 13.9 79.2 16.6 80.65 17.0 80.65 17.35 81.0 L17.0 82.8 Q17.0 92.7 19.65 96.65 22.35 100.55 28.1 100.9 33.5 100.9 35.4 98.8 L37.7 95.2 Q39.6 96.65 40.8 98.05" fill="#aaaaaa" fill-rule="evenodd" stroke="none"/>
    <path d="M17.35 76.7 L17.75 76.7 Q21.6 78.85 25.4 81.35 29.65 83.85 32.7 86.7 36.15 89.2 38.45 92.0 L37.7 95.2 34.65 92.0 Q26.2 85.25 17.35 81.0 17.0 80.65 16.6 80.65 L16.6 79.6 Q17.35 78.5 17.35 76.7 M52.3 90.25 L56.15 87.05 Q57.3 86.0 58.45 85.25 61.1 83.1 66.9 79.9 68.05 79.2 69.55 78.5 70.35 79.6 70.35 82.05 62.25 86.3 54.6 92.0 53.85 92.4 53.05 93.1 52.3 91.3 52.3 90.25" fill="#ffc241" fill-rule="evenodd" stroke="none"/>
    <path d="M30.8 77.1 L32.35 77.1 32.35 80.65 Q32.35 84.55 32.7 86.3 L32.7 86.7 Q29.65 83.85 25.4 81.35 21.6 78.85 17.75 76.7 L17.75 72.85 Q21.95 74.6 26.2 75.3 L30.8 77.1 M56.15 87.05 Q56.5 84.55 56.5 81.7 56.15 79.9 56.15 78.85 L56.5 78.85 56.5 77.8 58.8 77.1 Q61.9 76.7 64.6 75.65 67.65 74.95 70.7 73.5 L71.85 72.85 72.25 77.1 69.55 78.5 Q68.05 79.2 66.9 79.9 61.1 83.1 58.45 85.25 57.3 86.0 56.15 87.05" fill="#201e1e" fill-rule="evenodd" stroke="none"/>
    <path d="M32.35 77.1 L33.85 77.4 Q45.0 79.6 56.15 77.8 L56.5 77.8 56.5 78.85 56.15 78.85 Q56.15 79.9 56.5 81.7 56.5 84.55 56.15 87.05 L52.3 90.25 Q51.9 90.25 51.5 90.6 51.15 91.65 50.0 92.0 48.85 93.45 46.9 94.85 L41.15 94.85 41.15 94.5 40.8 94.85 38.85 92.0 38.45 92.0 Q36.15 89.2 32.7 86.7 L32.7 86.3 Q32.35 84.55 32.35 80.65 L32.35 77.1" fill="#333131" fill-rule="evenodd" stroke="none"/>
    <path d="M81.85 18.05 L83.0 23.4 Q69.55 30.15 55.0 32.65 L38.45 32.25 Q22.35 30.85 7.75 23.75 L7.75 18.4 81.85 18.05 M57.3 22.7 L49.2 23.4 36.95 24.45 26.2 23.75 17.75 23.05 17.0 23.05 15.45 23.05 Q15.05 23.05 14.3 24.1 16.6 24.8 21.2 25.5 26.95 26.55 28.1 26.95 26.2 26.55 24.65 26.95 L21.2 26.95 Q28.5 29.1 34.65 30.15 L49.6 31.6 Q53.05 31.6 59.6 30.15 67.65 28.4 67.65 26.95 67.65 25.5 65.75 25.5 L58.45 27.3 Q50.35 29.45 46.55 29.1 35.0 29.1 34.65 27.3 53.85 27.3 59.2 23.05 59.2 22.7 57.3 22.7" fill="#2e2e2e" fill-rule="evenodd" stroke="none"/>
    <path d="M57.3 22.7 Q59.2 22.7 59.2 23.05 53.85 27.3 34.65 27.3 35.0 29.1 46.55 29.1 50.35 29.45 58.45 27.3 L65.75 25.5 Q67.65 25.5 67.65 26.95 67.65 28.4 59.6 30.15 53.05 31.6 49.6 31.6 L34.65 30.15 Q28.5 29.1 21.2 26.95 L24.65 26.95 Q26.2 26.55 28.1 26.95 26.95 26.55 21.2 25.5 16.6 24.8 14.3 24.1 15.05 23.05 15.45 23.05 L17.0 23.05 17.75 23.05 26.2 23.75 36.95 24.45 49.2 23.4 57.3 22.7" fill="#5f5f5f" fill-rule="evenodd" stroke="none"/>
    <path d="M55.0 34.8 Q59.95 35.45 62.25 39.4 L63.05 41.55 Q63.4 43.3 63.4 45.45 62.65 44.0 61.5 42.6 60.75 41.85 59.6 41.55 58.8 40.8 57.3 40.8 L55.0 40.8 54.2 41.55 53.85 41.55 52.3 42.25 52.3 44.0 Q52.3 46.15 53.05 47.95 L55.35 52.55 Q53.05 50.4 51.5 47.95 L48.85 42.25 47.3 43.65 Q46.9 44.0 46.55 44.0 L45.75 42.25 Q46.15 42.25 46.15 41.85 L46.15 41.55 46.55 40.5 45.4 40.5 43.45 40.5 41.55 40.5 Q40.8 40.5 40.0 41.55 38.85 42.25 38.1 44.0 36.55 46.5 35.8 49.0 L35.8 48.25 Q35.8 46.5 37.3 42.25 L38.85 37.95 Q38.85 37.3 38.45 36.55 L37.3 36.2 36.55 35.45 38.45 35.45 Q38.45 36.55 40.0 37.3 L53.45 37.3 55.0 34.8 M37.7 33.35 Q37.7 30.85 39.6 28.7 L53.45 28.7 Q55.0 30.85 55.0 32.95 51.15 31.9 47.3 31.9 41.15 31.9 37.7 33.35" fill="#0e0d0d" fill-rule="evenodd" stroke="none"/>
    <path d="M53.05 35.45 Q52.7 34.1 49.2 32.95 L46.9 32.65 43.85 32.95 42.3 32.95 40.0 34.4 40.0 35.45 51.5 35.85 53.05 35.45 M55.0 32.95 L55.0 34.8 53.45 37.3 40.0 37.3 Q38.45 36.55 38.45 35.45 37.7 34.4 37.7 33.35 41.15 31.9 47.3 31.9 51.15 31.9 55.0 32.95 M63.4 45.45 L63.05 46.15 Q62.25 48.65 59.6 51.85 58.45 53.6 59.2 56.45 59.6 58.25 59.6 59.65 58.45 57.55 55.75 55.7 49.2 50.75 47.3 47.55 L46.55 44.0 Q46.9 44.0 47.3 43.65 L48.85 42.25 51.5 47.95 Q53.05 50.4 55.35 52.55 L53.05 47.95 Q52.3 46.15 52.3 44.0 L52.3 42.25 53.85 41.55 54.2 41.55 55.0 40.8 57.3 40.8 Q58.8 40.8 59.6 41.55 60.75 41.85 61.5 42.6 62.65 44.0 63.4 45.45 M45.75 42.25 Q44.25 47.55 44.25 47.95 42.3 51.45 35.8 56.1 33.5 58.25 31.95 60.05 L32.35 56.85 Q33.1 53.95 31.95 52.55 29.25 49.0 28.5 46.5 27.7 44.0 28.5 41.55 28.9 40.5 29.25 40.1 31.55 36.2 36.55 35.45 L37.3 36.2 38.45 36.55 Q38.85 37.3 38.85 37.95 L37.3 42.25 Q35.8 46.5 35.8 48.25 L35.8 49.0 Q36.55 46.5 38.1 44.0 38.85 42.25 40.0 41.55 40.8 40.5 41.55 40.5 L43.45 40.5 45.4 40.5 46.55 40.5 46.15 41.55 46.15 41.85 Q46.15 42.25 45.75 42.25 M54.2 42.95 Q53.45 43.65 53.45 44.0 53.45 45.05 55.35 47.55 57.65 50.05 57.65 50.75 L58.8 50.75 Q58.45 49.0 58.45 48.25 58.45 47.95 59.2 46.5 59.95 45.8 59.95 44.75 59.95 44.0 58.05 43.3 56.9 42.6 55.35 42.25 L54.2 42.95 M36.55 37.95 Q35.8 37.6 35.0 37.6 33.5 37.6 32.35 39.05 L32.35 40.1 Q31.95 40.5 31.55 41.55 31.2 41.85 31.2 42.25 30.4 43.65 30.4 45.05 30.4 46.15 31.2 47.95 L32.35 50.4 Q31.2 47.2 32.7 44.0 L36.55 38.65 36.55 37.95" fill="#2e2e2e" fill-rule="evenodd" stroke="none"/>
    <path d="M53.05 35.45 L51.5 35.85 40.0 35.45 40.0 34.4 42.3 32.95 43.85 32.95 46.9 32.65 49.2 32.95 Q52.7 34.1 53.05 35.45 M54.2 42.95 L55.35 42.25 Q56.9 42.6 58.05 43.3 59.95 44.0 59.95 44.75 59.95 45.8 59.2 46.5 58.45 47.95 58.45 48.25 58.45 49.0 58.8 50.75 L57.65 50.75 Q57.65 50.05 55.35 47.55 53.45 45.05 53.45 44.0 53.45 43.65 54.2 42.95 M36.55 37.95 L36.55 38.65 32.7 44.0 Q31.2 47.2 32.35 50.4 L31.2 47.95 Q30.4 46.15 30.4 45.05 30.4 43.65 31.2 42.25 31.2 41.85 31.55 41.55 31.95 40.5 32.35 40.1 L32.35 39.05 Q33.5 37.6 35.0 37.6 35.8 37.6 36.55 37.95" fill="#4c4c4c" fill-rule="evenodd" stroke="none"/>
  </g>
</svg>
