<?xml version="1.0" encoding="UTF-8" standalone="no"?>
<svg xmlns:xlink="http://www.w3.org/1999/xlink" height="19.35px" width="18.3px" xmlns="http://www.w3.org/2000/svg">
  <g transform="matrix(1.0, 0.0, 0.0, 1.0, 0.5, 0.5)">
    <path d="M14.85 3.25 Q13.35 1.35 11.05 0.5 8.2 -0.65 5.45 0.8 3.1 2.1 1.55 4.5 0.4 6.45 0.1 8.75 L0.0 10.05 Q-0.05 13.1 2.05 15.4 L3.65 16.8 4.8 17.5 7.2 18.25 Q9.9 18.7 12.45 17.5 15.2 16.2 16.5 13.4 17.45 11.4 17.3 9.3 L17.0 7.65 Q16.4 5.25 14.85 3.25 Z" fill="none" stroke="#583b18" stroke-linecap="butt" stroke-linejoin="miter" stroke-width="1.0"/>
    <path d="M11.05 0.5 Q13.35 1.35 14.85 3.25 16.4 5.25 17.0 7.65 L17.3 9.3 Q17.45 11.4 16.5 13.4 15.2 16.2 12.45 17.5 9.9 18.7 7.2 18.25 L4.8 17.5 3.65 16.8 2.05 15.4 Q-0.05 13.1 0.0 10.05 L0.1 8.75 Q0.4 6.45 1.55 4.5 3.1 2.1 5.45 0.8 8.2 -0.65 11.05 0.5 M10.1 11.4 L10.1 10.3 Q9.9 8.8 8.8 7.65 L8.4 7.45 Q9.0 8.95 8.6 10.3 L8.35 11.0 8.2 11.3 7.9 11.75 Q7.65 12.1 7.75 12.55 L7.9 12.95 9.15 13.1 9.9 12.25 10.05 11.65 10.05 11.75 10.1 11.55 10.1 11.4" fill="url(#gradient0)" fill-rule="evenodd" stroke="none"/>
    <path d="M10.05 11.65 L9.9 12.25 9.15 13.1 7.9 12.95 7.75 12.55 Q7.65 12.1 7.9 11.75 L8.2 11.3 8.35 11.0 8.6 10.3 Q9.0 8.95 8.4 7.45 L8.8 7.65 Q9.9 8.8 10.1 10.3 L10.1 11.4 10.05 11.65" fill="url(#gradient1)" fill-rule="evenodd" stroke="none"/>
    <path d="M10.1 11.4 L10.1 11.55 10.05 11.65 10.1 11.4" fill="url(#gradient2)" fill-rule="evenodd" stroke="none"/>
    <path d="M10.1 11.55 L10.05 11.75 10.05 11.65 10.1 11.55" fill="url(#gradient3)" fill-rule="evenodd" stroke="none"/>
    <path d="M10.05 11.65 L9.9 12.25 9.15 13.1 7.9 12.95 7.75 12.55 Q7.65 12.1 7.9 11.75 L8.2 11.3 8.35 11.0 8.6 10.3 Q9.0 8.95 8.4 7.45 L8.8 7.65 Q9.9 8.8 10.1 10.3 L10.1 11.4 10.1 11.55 M10.05 11.65 L10.1 11.55" fill="none" stroke="#a18133" stroke-linecap="butt" stroke-linejoin="miter" stroke-width="0.05"/>
  </g>
  <defs>
    <radialGradient cx="0" cy="0" gradientTransform="matrix(0.0146, 0.0, 0.0, 0.0149, 8.45, 9.35)" gradientUnits="userSpaceOnUse" id="gradient0" r="819.2" spreadMethod="pad">
      <stop offset="0.00392156862745098" stop-color="#ffc025"/>
      <stop offset="0.6392156862745098" stop-color="#f0b337"/>
      <stop offset="1.0" stop-color="#9f6d23"/>
    </radialGradient>
    <radialGradient cx="0" cy="0" gradientTransform="matrix(0.0034, 0.0, 0.0, 0.0034, 9.1, 10.0)" gradientUnits="userSpaceOnUse" id="gradient1" r="819.2" spreadMethod="pad">
      <stop offset="0.00392156862745098" stop-color="#ffc025"/>
      <stop offset="0.6392156862745098" stop-color="#f0b337"/>
      <stop offset="1.0" stop-color="#9f6d23"/>
    </radialGradient>
    <radialGradient cx="0" cy="0" gradientTransform="matrix(2.0E-4, 0.0, 0.0, 2.0E-4, 10.05, 11.5)" gradientUnits="userSpaceOnUse" id="gradient2" r="819.2" spreadMethod="pad">
      <stop offset="0.00392156862745098" stop-color="#ffc025"/>
      <stop offset="0.6392156862745098" stop-color="#f0b337"/>
      <stop offset="1.0" stop-color="#9f6d23"/>
    </radialGradient>
    <radialGradient cx="0" cy="0" gradientTransform="matrix(1.0E-4, 0.0, 0.0, 1.0E-4, 10.05, 11.65)" gradientUnits="userSpaceOnUse" id="gradient3" r="819.2" spreadMethod="pad">
      <stop offset="0.00392156862745098" stop-color="#ffc025"/>
      <stop offset="0.6392156862745098" stop-color="#f0b337"/>
      <stop offset="1.0" stop-color="#9f6d23"/>
    </radialGradient>
  </defs>
</svg>
