<?xml version="1.0" encoding="UTF-8" standalone="no"?>
<svg xmlns:xlink="http://www.w3.org/1999/xlink" height="32.65px" width="17.65px" xmlns="http://www.w3.org/2000/svg">
  <g transform="matrix(1.0, 0.0, 0.0, 1.0, 0.0, 1.05)">
    <path d="M11.35 18.35 L11.45 28.35 5.5 28.35 5.4 18.4 11.35 18.35" fill="#9e6720" fill-rule="evenodd" stroke="none"/>
    <path d="M10.75 20.45 Q9.85 21.15 8.6 21.2 7.4 21.2 6.45 20.5 5.55 19.85 5.55 18.9 5.5 18.0 6.4 17.3 7.35 16.65 8.55 16.65 9.8 16.6 10.7 17.25 11.6 17.95 11.65 18.85 11.65 19.8 10.75 20.45" fill="#9e6720" fill-rule="evenodd" stroke="none"/>
    <path d="M9.35 16.7 Q9.0 16.35 8.5 16.25 9.55 16.25 10.55 16.95 L11.35 17.85 11.35 18.1 11.5 18.55 11.45 19.15 11.05 29.45 10.3 27.65 10.25 18.85 10.3 18.25 10.2 17.8 10.2 17.5 9.35 16.7" fill="#724416" fill-rule="evenodd" stroke="none"/>
    <path d="M5.4 18.0 L5.6 18.0 Q5.75 17.45 6.2 17.0 7.2 16.35 8.35 16.25 9.55 16.3 10.55 17.0 L10.65 17.1 9.45 16.85 Q8.25 16.95 7.3 17.7 6.75 18.15 6.6 18.6 L6.4 18.55 6.5 29.0 5.45 29.0 5.4 18.0" fill="#aa8052" fill-rule="evenodd" stroke="none"/>
    <path d="M10.55 30.25 Q9.6 31.05 8.35 31.1 7.2 31.1 6.25 30.3 5.35 29.55 5.35 28.55 5.35 27.5 6.2 26.75 7.15 25.95 8.3 25.95 9.55 25.9 10.5 26.7 11.45 27.45 11.45 28.45 11.45 29.5 10.55 30.25" fill="#95591e" fill-rule="evenodd" stroke="none"/>
    <path d="M16.5 20.1 Q15.45 14.25 15.35 12.1 L15.5 7.1 Q15.45 3.55 15.1 2.9 14.65 1.4 12.6 0.4 10.6 -0.55 7.8 -0.5 5.15 -0.35 3.35 0.8 1.65 1.95 1.2 3.55 L1.15 4.0 Q1.0 4.5 1.2 6.85 L1.35 11.65 1.2 19.05 Q1.05 23.1 1.5 23.85 L16.95 25.25 Q17.25 24.5 16.5 20.1" fill="#ceb27a" fill-rule="evenodd" stroke="none"/>
    <path d="M13.3 21.8 L8.85 21.1 6.95 -0.4 10.35 -0.3 11.85 0.05 12.0 10.15 13.3 21.8" fill="#aa8052" fill-rule="evenodd" stroke="none"/>
    <path d="M9.0 21.75 L4.3 22.45 3.45 0.6 Q4.5 0.0 6.4 -0.3 L8.05 -0.55 8.1 9.35 9.0 21.75" fill="#9e6720" fill-rule="evenodd" stroke="none"/>
    <path d="M4.0 0.1 L4.75 21.95 0.75 24.8 1.0 19.75 1.25 11.6 0.9 7.75 Q0.65 5.7 0.75 5.1 1.35 2.6 1.95 1.65 L4.0 0.1" fill="#7f4f08" fill-rule="evenodd" stroke="none"/>
    <path d="M3.45 15.0 Q5.8 13.85 8.6 13.7 11.3 13.65 13.5 14.45 15.65 15.3 16.75 16.9 L17.15 18.65 16.95 19.95 Q16.95 17.7 13.8 17.15 12.6 17.0 7.4 17.2 5.3 17.35 2.85 19.55 1.6 20.65 0.9 21.8 0.55 20.0 0.6 17.9 1.25 16.15 3.45 15.0" fill="#e2e2e2" fill-rule="evenodd" stroke="none"/>
    <path d="M15.4 6.1 Q15.35 4.0 12.5 3.75 L6.55 3.9 Q4.45 3.95 2.4 6.0 1.35 7.1 0.8 8.05 0.6 7.4 1.0 4.2 2.55 0.7 7.75 0.45 13.3 0.35 15.3 3.25 L15.55 5.1 15.4 6.1" fill="#e2e2e2" fill-rule="evenodd" stroke="none"/>
    <path d="M13.45 15.2 Q15.55 16.05 16.65 17.55 L17.05 19.35 16.9 20.6 15.05 19.1 Q12.65 17.55 10.25 17.55 L5.35 18.05 Q3.1 18.8 0.8 22.0 0.4 19.35 0.5 18.55 1.2 16.8 3.4 15.7 5.7 14.45 8.5 14.35 11.25 14.3 13.45 15.2" fill="#bcbcbc" fill-rule="evenodd" stroke="none"/>
    <path d="M17.05 24.3 Q17.1 26.0 14.75 27.4 12.45 28.7 9.05 28.85 5.6 28.9 3.15 27.75 0.75 26.55 0.7 24.8 0.6 23.05 2.95 21.6 5.4 20.25 8.75 20.15 12.2 20.1 14.6 21.35 17.0 22.5 17.05 24.3" fill="#7f4f08" fill-rule="evenodd" stroke="none"/>
    <path d="M14.25 14.3 Q15.15 8.2 14.4 5.65 13.65 3.1 12.0 2.3 12.95 4.15 13.6 7.45 14.2 10.75 14.25 14.3" fill="#ffffff" fill-rule="evenodd" stroke="none"/>
    <path d="M15.3 3.8 L15.85 5.6 Q16.05 7.1 15.65 8.1 L15.65 7.4 15.45 6.7 Q13.4 3.7 8.35 3.9 5.8 4.0 3.55 5.55 1.45 7.0 0.75 8.7 0.6 5.55 0.85 4.75 1.55 3.15 3.4 2.15 5.35 1.05 7.95 1.0 13.2 0.75 15.3 3.8" fill="#bcbcbc" fill-rule="evenodd" stroke="none"/>
    <path d="M15.5 6.75 L15.9 8.0 15.9 8.6 Q15.65 7.05 13.5 5.9 11.15 4.65 8.15 4.75 5.65 4.85 3.4 6.15 1.55 7.3 0.8 8.7 0.75 8.25 0.85 7.85 1.45 6.25 3.55 5.15 5.75 4.0 8.35 3.95 13.45 3.75 15.5 6.75" fill="#7f4f08" fill-rule="evenodd" stroke="none"/>
    <path d="M0.85 21.95 L0.85 21.25 Q1.45 19.65 3.85 18.6 6.1 17.6 8.8 17.45 11.35 17.35 13.7 18.25 16.0 19.05 16.9 20.45 17.1 20.8 16.9 21.45 L16.85 22.0 16.6 22.15 Q16.5 20.5 14.0 19.35 11.6 18.2 8.65 18.3 6.05 18.45 3.75 19.6 1.65 20.6 0.85 21.95" fill="#7f4f08" fill-rule="evenodd" stroke="none"/>
    <path d="M16.9 20.6 Q16.25 18.8 13.2 18.0 L13.1 15.0 Q14.55 15.5 16.25 17.05 17.45 18.3 16.9 20.6" fill="#ffffff" fill-rule="evenodd" stroke="none"/>
    <path d="M15.7 6.95 Q15.0 5.2 12.8 4.5 L12.5 1.55 Q13.45 1.85 13.8 2.2 L15.0 3.4 Q15.75 4.2 15.8 5.65 L15.7 6.95" fill="#ffffff" fill-rule="evenodd" stroke="none"/>
    <path d="M0.7 21.3 Q1.5 19.5 3.8 18.55 L5.85 17.95 5.95 14.8 Q3.2 15.35 1.8 16.8 0.95 17.65 0.7 18.6 0.45 19.25 0.7 21.3" fill="#6d6d6d" fill-rule="evenodd" stroke="none"/>
    <path d="M1.1 20.65 L0.9 21.75 0.55 18.25 1.15 17.35 1.85 16.6 2.6 16.1 2.75 19.25 1.1 20.65" fill="#474747" fill-rule="evenodd" stroke="none"/>
    <path d="M13.45 4.45 L13.4 3.5 14.25 3.0 15.05 3.45 15.1 4.45 14.25 4.9 13.45 4.45" fill="#000000" fill-rule="evenodd" stroke="none"/>
    <path d="M0.7 8.45 Q0.65 5.65 0.85 4.95 1.85 2.1 5.85 1.25 L5.9 4.2 3.75 4.95 Q1.45 6.2 0.7 8.45" fill="#6d6d6d" fill-rule="evenodd" stroke="none"/>
    <path d="M2.05 2.9 L2.65 2.55 2.6 5.65 1.8 6.35 1.05 7.4 0.7 8.45 0.9 4.45 2.05 2.9" fill="#474747" fill-rule="evenodd" stroke="none"/>
    <path d="M7.15 2.25 L7.45 1.3 8.55 1.15 9.25 1.95 8.9 2.95 7.85 3.05 7.15 2.25" fill="#000000" fill-rule="evenodd" stroke="none"/>
    <path d="M1.95 4.5 L1.95 3.6 2.7 3.25 3.4 3.7 3.45 4.55 2.7 4.9 1.95 4.5" fill="#3d3d3d" fill-rule="evenodd" stroke="none"/>
    <path d="M3.95 1.8 L3.95 4.8 Q3.6 5.0 3.3 5.15 L3.25 2.2 3.95 1.8" fill="#474747" fill-rule="evenodd" stroke="none"/>
    <path d="M1.65 4.6 L1.55 3.65 2.3 3.2 3.15 3.65 3.2 4.55 2.5 5.0 1.65 4.6" fill="#000000" fill-rule="evenodd" stroke="none"/>
    <path d="M12.65 14.9 L12.7 17.85 11.85 17.65 11.75 14.65 12.65 14.9" fill="#ffffff" fill-rule="evenodd" stroke="none"/>
    <path d="M12.15 1.45 L12.3 4.4 11.35 4.1 11.3 1.3 12.15 1.45" fill="#ffffff" fill-rule="evenodd" stroke="none"/>
    <path d="M11.1 14.55 L11.1 17.55 10.4 17.4 10.3 14.45 11.1 14.55" fill="#ffffff" fill-rule="evenodd" stroke="none"/>
    <path d="M10.6 1.15 L10.65 4.0 10.0 3.9 9.95 1.05 10.6 1.15" fill="#ffffff" fill-rule="evenodd" stroke="none"/>
    <path d="M7.1 14.45 L6.5 14.55 6.6 17.7 7.25 17.65 7.1 14.45" fill="#6d6d6d" fill-rule="evenodd" stroke="none"/>
    <path d="M7.05 1.05 L7.1 3.9 6.4 4.1 6.35 1.15 7.05 1.05" fill="#6d6d6d" fill-rule="evenodd" stroke="none"/>
    <path d="M3.85 15.4 L3.9 18.65 3.25 19.1 3.2 15.7 3.85 15.4" fill="#474747" fill-rule="evenodd" stroke="none"/>
    <path d="M14.85 18.4 L14.8 17.45 15.6 17.0 16.45 17.5 16.45 18.35 15.65 18.85 14.85 18.4" fill="#000000" fill-rule="evenodd" stroke="none"/>
    <path d="M7.8 15.8 L8.15 14.85 9.15 14.75 9.8 15.55 9.45 16.45 8.45 16.6 7.8 15.8" fill="#000000" fill-rule="evenodd" stroke="none"/>
    <path d="M2.0 18.2 L1.95 17.3 2.7 16.85 3.55 17.25 3.6 18.15 2.85 18.6 2.0 18.2" fill="#000000" fill-rule="evenodd" stroke="none"/>
    <path d="M7.7 -0.5 L5.0 0.0 4.55 0.1 4.05 0.4 Q2.25 1.3 1.95 1.65 L0.75 3.75 Q0.05 4.85 1.25 11.6 L1.25 11.85 1.15 16.9 Q0.85 17.35 0.6 18.5 0.4 18.85 0.8 22.0 L0.85 21.95 0.9 21.9 0.8 23.95 0.7 24.8 Q0.75 26.55 3.15 27.75 L5.35 28.45 5.35 28.5 Q5.35 29.55 6.25 30.35 7.2 31.1 8.35 31.1 9.6 31.05 10.55 30.25 11.4 29.55 11.45 28.55 L14.75 27.4 Q16.45 26.4 16.9 25.25 L16.95 23.05 16.75 22.05 17.1 19.1 17.15 18.65 16.75 16.9 15.75 15.8 15.3 12.1 15.7 5.6 15.5 4.1 15.15 2.9 Q14.6 1.4 12.6 0.4 10.7 -0.55 8.05 -0.5 L8.05 -0.55 7.7 -0.5 Z" fill="none" stroke="#453129" stroke-linecap="round" stroke-linejoin="round" stroke-width="1.0"/>
  </g>
</svg>
