<?xml version="1.0" encoding="UTF-8" standalone="no"?>
<svg xmlns:xlink="http://www.w3.org/1999/xlink" height="36.3px" width="17.85px" xmlns="http://www.w3.org/2000/svg">
  <g transform="matrix(1.0, 0.0, 0.0, 1.0, 0.1, 5.45)">
    <path d="M11.45 13.95 L11.55 28.6 5.5 28.65 5.4 14.0 11.45 13.95" fill="#9e6720" fill-rule="evenodd" stroke="none"/>
    <path d="M10.8 29.6 Q9.9 30.3 8.65 30.35 7.45 30.35 6.5 29.65 5.6 29.0 5.6 28.05 5.55 27.15 6.45 26.45 7.4 25.75 8.6 25.75 9.85 25.7 10.75 26.4 11.7 27.1 11.75 28.0 11.75 28.95 10.8 29.6" fill="#9e6720" fill-rule="evenodd" stroke="none"/>
    <path d="M10.75 16.1 Q9.85 16.8 8.6 16.85 7.4 16.85 6.45 16.15 5.55 15.5 5.55 14.55 5.5 13.65 6.4 12.95 7.35 12.25 8.55 12.25 9.8 12.2 10.7 12.9 11.65 13.6 11.7 14.5 11.7 15.45 10.75 16.1" fill="#9e6720" fill-rule="evenodd" stroke="none"/>
    <path d="M9.35 12.3 L8.5 11.8 Q9.6 11.8 10.55 12.6 L11.35 13.45 11.35 13.7 11.45 14.15 11.45 14.75 11.45 27.1 11.6 27.7 Q11.6 28.7 10.7 29.4 9.7 30.0 8.5 29.95 L6.8 29.75 7.3 29.75 Q8.5 29.75 9.5 29.2 10.4 28.45 10.4 27.5 L10.25 26.9 10.25 14.55 10.25 13.95 10.15 13.45 10.15 13.2 9.35 12.3" fill="#724416" fill-rule="evenodd" stroke="none"/>
    <path d="M9.4 12.5 Q8.2 12.55 7.25 13.3 6.75 13.75 6.65 14.25 L6.4 14.25 6.45 28.9 6.7 28.9 7.2 29.85 6.35 29.5 Q5.75 29.0 5.6 28.3 L5.35 28.25 5.3 13.6 5.55 13.6 Q5.65 13.1 6.15 12.7 7.15 11.95 8.4 11.85 9.6 11.9 10.5 12.6 L10.65 12.75 9.4 12.5" fill="#aa8052" fill-rule="evenodd" stroke="none"/>
    <path d="M7.55 -4.95 Q10.35 -5.1 12.35 -4.2 14.4 -3.2 14.9 -1.65 15.35 -1.0 15.4 2.55 L15.3 7.6 Q15.45 9.8 16.55 15.6 17.45 19.95 17.15 20.8 L1.55 19.65 Q1.15 18.9 1.2 14.8 L1.25 7.35 1.05 2.55 Q0.8 0.25 0.95 -0.35 L1.0 -0.8 Q1.4 -2.4 3.0 -3.6 4.85 -4.8 7.55 -4.95" fill="#ceb27a" fill-rule="evenodd" stroke="none"/>
    <path d="M13.45 17.4 L8.95 16.8 6.7 -4.8 Q8.25 -5.05 10.1 -4.75 L11.65 -4.4 11.9 5.7 13.45 17.4" fill="#aa8052" fill-rule="evenodd" stroke="none"/>
    <path d="M9.1 17.4 L4.4 18.15 3.15 -3.8 6.1 -4.75 7.8 -5.0 8.0 4.95 9.1 17.4" fill="#9e6720" fill-rule="evenodd" stroke="none"/>
    <path d="M4.8 17.7 Q2.6 19.2 0.75 20.55 1.15 12.85 1.05 7.35 L0.6 3.5 Q0.35 1.4 0.45 0.8 1.05 -1.7 1.6 -2.6 L3.6 -4.25 4.8 17.7" fill="#7f4f08" fill-rule="evenodd" stroke="none"/>
    <path d="M8.55 9.3 Q11.35 9.15 13.5 10.0 15.7 10.75 16.8 12.35 L17.25 14.15 17.1 15.45 Q17.05 13.15 13.8 12.75 12.65 12.6 7.45 12.85 5.25 13.0 2.9 15.3 1.65 16.5 0.95 17.55 0.6 15.8 0.6 13.6 1.25 11.9 3.45 10.65 5.7 9.45 8.55 9.3" fill="#e2e2e2" fill-rule="evenodd" stroke="none"/>
    <path d="M6.35 -0.55 Q4.15 -0.4 2.15 1.65 1.15 2.75 0.6 3.8 0.45 3.1 0.75 -0.15 2.25 -3.65 7.5 -4.1 13.05 -4.25 15.1 -1.3 L15.45 0.55 15.3 1.5 Q15.15 -0.55 12.35 -0.8 L6.35 -0.55" fill="#e2e2e2" fill-rule="evenodd" stroke="none"/>
    <path d="M13.45 10.7 Q15.6 11.55 16.7 13.0 L17.15 14.85 17.05 16.15 15.1 14.6 Q12.7 13.1 10.3 13.15 L5.4 13.75 Q3.15 14.6 0.85 17.8 0.45 15.15 0.55 14.35 1.2 12.6 3.4 11.4 5.65 10.15 8.45 10.0 11.2 9.9 13.45 10.7" fill="#bcbcbc" fill-rule="evenodd" stroke="none"/>
    <path d="M15.0 22.9 Q12.7 24.35 9.3 24.5 5.9 24.7 3.4 23.55 0.85 22.35 0.8 20.65 0.7 18.85 3.0 17.4 5.45 16.0 8.85 15.8 12.25 15.65 14.7 16.9 17.1 18.05 17.25 19.85 17.25 21.6 15.0 22.9" fill="#7f4f08" fill-rule="evenodd" stroke="none"/>
    <path d="M14.25 9.8 Q15.0 3.65 14.3 1.05 13.45 -1.5 11.75 -2.25 12.75 -0.4 13.5 2.9 14.15 6.25 14.25 9.8" fill="#ffffff" fill-rule="evenodd" stroke="none"/>
    <path d="M15.15 -0.8 L15.75 1.05 Q15.9 2.5 15.55 3.6 L15.5 2.85 15.35 2.15 Q13.2 -0.8 8.1 -0.5 5.6 -0.4 3.35 1.2 1.25 2.7 0.55 4.45 0.4 1.3 0.55 0.45 1.25 -1.15 3.15 -2.2 5.05 -3.3 7.7 -3.45 13.0 -3.75 15.15 -0.8" fill="#bcbcbc" fill-rule="evenodd" stroke="none"/>
    <path d="M15.4 2.15 L15.8 3.45 15.8 4.0 Q15.55 2.45 13.35 1.35 10.95 0.15 8.0 0.35 5.4 0.5 3.2 1.8 1.35 3.0 0.6 4.45 0.55 3.95 0.65 3.6 1.25 1.95 3.35 0.8 5.5 -0.35 8.15 -0.5 13.25 -0.85 15.4 2.15" fill="#7f4f08" fill-rule="evenodd" stroke="none"/>
    <path d="M0.9 17.7 L0.85 17.0 Q1.4 15.45 3.85 14.3 6.15 13.25 8.85 13.05 11.45 12.95 13.7 13.8 16.1 14.6 17.05 16.0 17.25 16.3 17.05 16.95 L16.95 17.55 16.75 17.7 Q16.7 16.0 14.15 14.85 11.65 13.8 8.7 13.95 6.05 14.1 3.75 15.3 1.65 16.4 0.9 17.7" fill="#7f4f08" fill-rule="evenodd" stroke="none"/>
    <path d="M17.05 16.15 Q16.3 14.3 13.3 13.55 L13.1 10.55 Q14.6 11.0 16.3 12.55 17.55 13.8 17.05 16.15" fill="#ffffff" fill-rule="evenodd" stroke="none"/>
    <path d="M15.65 2.4 Q14.85 0.65 12.6 0.0 L12.3 -2.9 13.6 -2.3 14.85 -1.1 Q15.6 -0.4 15.7 1.1 L15.65 2.4" fill="#ffffff" fill-rule="evenodd" stroke="none"/>
    <path d="M0.75 17.1 Q1.55 15.25 3.8 14.25 L5.9 13.6 5.95 10.45 Q3.15 11.05 1.75 12.5 0.95 13.45 0.7 14.35 0.45 15.05 0.75 17.1" fill="#6d6d6d" fill-rule="evenodd" stroke="none"/>
    <path d="M1.15 16.45 L0.95 17.55 0.6 14.0 1.15 13.1 1.85 12.35 2.6 11.85 2.8 15.0 1.15 16.45" fill="#474747" fill-rule="evenodd" stroke="none"/>
    <path d="M13.25 -0.1 L13.2 -1.05 14.0 -1.55 14.9 -1.1 14.9 -0.1 14.1 0.4 13.25 -0.1" fill="#000000" fill-rule="evenodd" stroke="none"/>
    <path d="M0.5 4.2 Q0.45 1.4 0.55 0.7 1.55 -2.25 5.6 -3.1 L5.65 -0.2 3.55 0.6 Q1.25 1.9 0.5 4.2" fill="#6d6d6d" fill-rule="evenodd" stroke="none"/>
    <path d="M1.75 -1.45 L2.4 -1.8 2.4 1.3 1.6 2.05 0.85 3.1 0.5 4.2 0.6 0.15 1.75 -1.45" fill="#474747" fill-rule="evenodd" stroke="none"/>
    <path d="M6.9 -2.15 L7.25 -3.1 8.3 -3.3 9.0 -2.5 8.65 -1.45 7.65 -1.35 6.9 -2.15" fill="#000000" fill-rule="evenodd" stroke="none"/>
    <path d="M1.7 0.15 L1.7 -0.7 2.45 -1.1 3.15 -0.65 3.2 0.2 2.45 0.6 1.7 0.15" fill="#3d3d3d" fill-rule="evenodd" stroke="none"/>
    <path d="M3.7 -2.55 Q3.65 -1.0 3.75 0.5 L3.1 0.85 3.0 -2.15 3.7 -2.55" fill="#474747" fill-rule="evenodd" stroke="none"/>
    <path d="M1.45 0.3 L1.3 -0.65 2.05 -1.15 2.9 -0.75 3.0 0.2 2.25 0.65 1.45 0.3" fill="#000000" fill-rule="evenodd" stroke="none"/>
    <path d="M12.65 10.4 L12.8 13.45 11.85 13.25 11.7 10.2 12.65 10.4" fill="#ffffff" fill-rule="evenodd" stroke="none"/>
    <path d="M11.95 -3.0 L12.1 -0.1 11.25 -0.4 11.05 -3.2 11.95 -3.0" fill="#ffffff" fill-rule="evenodd" stroke="none"/>
    <path d="M11.05 10.15 L11.15 13.15 10.45 13.05 10.35 10.05 11.05 10.15" fill="#ffffff" fill-rule="evenodd" stroke="none"/>
    <path d="M10.35 -3.4 L10.45 -0.45 9.8 -0.55 9.65 -3.4 10.35 -3.4" fill="#ffffff" fill-rule="evenodd" stroke="none"/>
    <path d="M7.1 10.05 L6.45 10.2 6.6 13.35 7.25 13.3 7.1 10.05" fill="#6d6d6d" fill-rule="evenodd" stroke="none"/>
    <path d="M6.85 -3.35 L6.9 -0.5 Q6.55 -0.35 6.2 -0.3 L6.1 -3.2 6.85 -3.35" fill="#6d6d6d" fill-rule="evenodd" stroke="none"/>
    <path d="M3.85 11.15 L3.9 14.4 3.3 14.9 3.15 11.4 3.85 11.15" fill="#474747" fill-rule="evenodd" stroke="none"/>
    <path d="M14.95 13.9 L14.85 13.0 15.65 12.5 16.5 13.0 16.5 13.9 15.7 14.35 14.95 13.9" fill="#000000" fill-rule="evenodd" stroke="none"/>
    <path d="M7.8 11.45 L8.15 10.55 9.15 10.35 9.85 11.15 9.5 12.1 8.5 12.25 7.8 11.45" fill="#000000" fill-rule="evenodd" stroke="none"/>
    <path d="M2.0 14.05 L1.95 13.1 2.7 12.65 3.55 13.0 3.6 13.9 2.9 14.4 2.0 14.05" fill="#000000" fill-rule="evenodd" stroke="none"/>
    <path d="M1.55 -2.65 Q1.0 -1.75 0.45 0.8 0.3 1.3 0.55 3.0 L0.55 3.1 0.55 3.5 0.6 4.2 0.7 4.7 0.7 4.6 0.7 4.3 1.1 7.35 1.05 12.8 0.6 13.6 0.6 14.35 Q0.5 15.2 0.85 17.7 L0.85 17.75 0.7 20.6 0.8 20.5 0.8 20.65 Q0.85 22.35 3.4 23.55 L5.5 24.0 5.4 28.25 5.5 28.25 5.5 28.65 5.65 28.65 Q5.9 29.25 6.5 29.65 7.45 30.35 8.65 30.35 9.9 30.3 10.8 29.6 11.75 28.95 11.75 28.0 L11.6 27.4 11.55 27.2 11.5 24.25 Q13.45 23.85 15.0 22.9 16.65 22.0 17.1 20.8 L17.15 20.8 17.25 20.2 17.25 19.85 17.2 19.55 16.95 16.55 17.2 14.55 17.25 14.15 16.8 12.35 15.8 11.3 15.3 7.6 15.75 3.15 15.75 3.1 15.75 2.95 15.75 2.75 15.85 2.5 15.85 2.35 15.75 1.0 15.7 0.7 15.3 -0.55 15.1 -1.3 15.0 -1.4 14.9 -1.65 Q14.4 -3.2 12.35 -4.2 10.35 -5.1 7.55 -4.95 5.8 -4.85 4.45 -4.3 L3.6 -4.05 3.6 -4.25 Q1.9 -3.1 1.55 -2.65 M15.75 2.75 L15.8 2.7 15.85 2.5 M15.75 2.95 L15.8 2.7 M15.75 2.95 L15.8 3.45 15.75 3.15" fill="none" stroke="#453129" stroke-linecap="round" stroke-linejoin="round" stroke-width="1.0"/>
  </g>
</svg>
