<?xml version="1.0" encoding="UTF-8" standalone="no"?>
<svg xmlns:xlink="http://www.w3.org/1999/xlink" height="32.0px" width="17.1px" xmlns="http://www.w3.org/2000/svg">
  <g transform="matrix(1.0, 0.0, 0.0, 1.0, 0.6, 11.75)">
    <path d="M9.75 1.6 L10.5 2.45 10.55 15.1 10.5 15.1 10.55 17.4 Q10.55 19.8 7.65 19.75 4.75 19.7 4.75 17.4 L4.7 14.3 4.75 14.3 4.6 2.7 4.8 2.7 Q4.95 2.1 5.6 1.65 6.5 1.0 7.65 1.0 8.85 0.95 9.75 1.6" fill="#9e6720" fill-rule="evenodd" stroke="none"/>
    <path d="M10.55 2.85 L10.5 3.45 10.55 17.7 Q10.5 19.0 9.3 19.55 L9.3 3.15 9.35 2.55 9.35 2.0 9.25 1.85 8.45 1.05 Q8.1 0.7 7.6 0.6 8.65 0.6 9.6 1.3 L10.4 2.15 10.4 2.4 10.55 2.85" fill="#724416" fill-rule="evenodd" stroke="none"/>
    <path d="M9.6 1.35 L9.7 1.45 8.55 1.2 Q7.4 1.3 6.45 2.0 5.95 2.45 5.8 2.9 L5.65 10.0 5.65 10.15 5.65 10.3 5.65 10.65 5.7 14.75 5.7 14.9 5.7 15.1 5.85 19.4 Q4.7 19.0 4.75 17.4 L4.6 2.3 5.4 1.35 Q6.35 0.7 7.5 0.6 8.65 0.65 9.6 1.35" fill="#aa8052" fill-rule="evenodd" stroke="none"/>
    <path d="M12.15 -3.75 L15.95 -4.8 16.0 -1.5 15.6 0.9 Q12.35 0.65 12.15 -3.75 M7.05 5.75 L4.85 5.45 6.55 5.7 7.05 5.75" fill="#ceb27a" fill-rule="evenodd" stroke="none"/>
    <path d="M7.65 -3.8 L12.15 -3.75 Q12.35 0.65 15.6 0.9 L15.55 0.95 15.05 2.05 14.45 2.9 Q9.55 3.2 7.65 -3.8" fill="#aa8052" fill-rule="evenodd" stroke="none"/>
    <path d="M3.4 -3.55 L7.65 -3.8 Q9.55 3.2 14.45 2.9 L14.5 2.95 14.3 3.05 12.45 4.5 11.8 4.85 10.7 5.2 Q4.9 4.85 3.4 -3.55" fill="#9e6720" fill-rule="evenodd" stroke="none"/>
    <path d="M10.7 5.2 L10.75 5.25 10.55 5.25 10.35 5.3 8.15 5.7 8.15 5.75 7.05 5.75 6.55 5.7 4.85 5.45 4.1 5.25 Q3.25 4.9 2.1 3.7 1.0 2.55 0.6 1.65 -0.15 -0.1 -0.05 -2.5 0.0 -3.4 -0.1 -3.8 L3.4 -3.55 Q4.9 4.85 10.7 5.2" fill="#7f4f08" fill-rule="evenodd" stroke="none"/>
    <path d="M0.1 -0.75 L0.1 -1.25 Q0.7 0.05 1.9 1.15 4.45 3.45 7.95 3.45 11.5 3.45 14.0 1.15 15.4 -0.2 16.0 -1.8 L16.0 -1.3 Q15.4 0.3 14.0 1.65 11.5 3.95 7.95 3.95 4.45 3.95 1.9 1.65 0.7 0.55 0.1 -0.75" fill="#e2e2e2" fill-rule="evenodd" stroke="none"/>
    <path d="M8.8 -11.2 Q11.55 -10.95 13.6 -9.15 15.6 -7.35 15.9 -4.95 L15.95 -4.1 15.95 -3.75 Q15.9 -2.45 15.35 -1.3 L15.05 -0.75 15.0 -0.65 13.6 0.95 Q11.25 3.1 7.95 3.1 4.6 3.1 2.25 0.95 -0.1 -1.15 -0.1 -4.1 -0.1 -7.05 2.25 -9.15 4.6 -11.25 7.95 -11.25 L8.8 -11.2" fill="#ba9552" fill-rule="evenodd" stroke="none"/>
    <path d="M0.25 0.95 Q1.25 2.35 2.4 3.4 4.7 5.35 7.95 5.35 11.15 5.35 13.4 3.4 L15.7 0.75 Q14.95 2.55 13.4 3.9 11.15 5.85 7.95 5.85 4.7 5.85 2.4 3.9 1.0 2.65 0.25 0.95" fill="#7f4f08" fill-rule="evenodd" stroke="none"/>
    <path d="M7.95 -11.25 Q11.25 -11.25 13.6 -9.15 L13.95 -8.85 13.7 -9.1 14.9 -7.65 15.55 -6.35 15.95 -4.8 16.0 -1.5 16.0 -1.35 16.0 -0.85 15.95 -0.7 15.6 0.9 15.7 0.75 15.3 1.6 15.05 2.05 14.45 2.9 14.5 2.95 14.3 3.05 13.8 3.55 13.4 3.9 Q12.1 5.0 10.5 5.5 L10.55 17.7 Q10.5 19.0 9.3 19.55 L9.3 19.5 7.65 19.75 5.85 19.4 Q4.7 19.0 4.75 17.4 L4.7 14.3 4.75 14.3 4.65 5.4 4.1 5.25 Q3.25 4.9 2.1 3.7 1.0 2.55 0.6 1.65 L0.25 0.95 0.45 1.2 Q-0.15 -0.4 -0.05 -2.5 L-0.05 -3.2 -0.1 -3.75 -0.1 -3.8 -0.1 -4.1 Q-0.1 -7.05 2.25 -9.15 4.6 -11.25 7.95 -11.25 Z" fill="none" stroke="#453129" stroke-linecap="round" stroke-linejoin="round" stroke-width="1.0"/>
  </g>
</svg>
