<?xml version="1.0" encoding="UTF-8" standalone="no"?>
<svg xmlns:xlink="http://www.w3.org/1999/xlink" height="28.4px" width="15.35px" xmlns="http://www.w3.org/2000/svg">
  <g transform="matrix(1.0, 0.0, 0.0, 1.0, -0.95, 7.15)">
    <path d="M15.85 -1.55 L14.55 3.9 14.8 8.15 Q14.85 11.2 14.55 11.7 14.15 13.05 12.45 13.95 10.8 14.8 8.4 14.8 6.15 14.7 4.55 13.75 3.15 12.8 2.75 11.5 L2.65 11.1 2.65 8.65 2.7 4.55 2.4 -1.75 2.3 -3.6 15.35 -2.75 Q15.0 -0.25 15.85 -1.55" fill="#ceb27a" fill-rule="evenodd" stroke="none"/>
    <path d="M12.65 -4.3 L8.85 -3.6 7.65 14.7 10.55 14.55 11.85 14.2 11.7 5.65 12.65 -4.3" fill="#aa8052" fill-rule="evenodd" stroke="none"/>
    <path d="M4.75 13.9 Q5.6 14.35 7.25 14.65 L8.65 14.75 8.45 6.35 9.0 -4.15 5.0 -4.65 4.75 13.9" fill="#9e6720" fill-rule="evenodd" stroke="none"/>
    <path d="M2.15 -2.95 L5.35 -2.75 5.1 14.3 Q3.6 13.4 3.35 13.05 2.8 12.3 2.2 10.15 L2.3 7.85 Q2.35 5.6 2.6 4.6 2.35 1.8 1.45 -0.85 2.25 -1.25 2.15 -2.95" fill="#7f4f08" fill-rule="evenodd" stroke="none"/>
    <path d="M12.2 1.85 Q13.35 3.0 13.35 7.15 L13.1 12.7 Q14.9 3.6 12.2 1.85" fill="#ffffff" fill-rule="evenodd" stroke="none"/>
    <path d="M14.8 11.0 Q13.6 12.9 12.2 13.6 L11.75 13.7 10.95 14.0 10.45 14.15 9.95 14.2 8.45 14.35 7.25 14.25 6.75 14.2 6.25 14.15 4.6 13.6 4.1 13.3 3.55 12.95 Q3.0 12.55 2.65 11.7 L3.55 12.55 4.1 12.9 4.6 13.15 6.3 13.7 6.8 13.75 7.3 13.8 8.45 13.9 10.0 13.75 10.5 13.7 10.95 13.6 11.75 13.25 12.2 13.15 Q13.6 12.45 14.55 11.15 L14.8 11.0" fill="#7f4f08" fill-rule="evenodd" stroke="none"/>
    <path d="M10.1 11.3 L10.6 11.2 11.15 11.05 11.95 10.75 12.4 10.55 14.55 8.6 14.65 8.9 14.55 9.0 12.4 11.0 11.95 11.15 11.15 11.45 10.6 11.65 10.1 11.75 8.6 11.85 7.3 11.85 6.75 11.75 6.25 11.65 4.5 11.05 4.0 10.7 3.4 10.25 2.45 9.4 2.45 9.35 Q3.0 9.45 3.4 9.8 L4.0 10.25 4.5 10.6 6.25 11.2 6.75 11.3 7.3 11.4 8.6 11.45 10.1 11.3" fill="#e2e2e2" fill-rule="evenodd" stroke="none"/>
    <path d="M12.4 10.9 L14.55 8.95 14.65 8.95 Q15.45 9.65 14.75 10.9 13.75 12.35 12.2 13.15 L12.4 10.9 M11.75 13.25 L10.95 13.6 11.15 11.4 11.95 11.1 11.75 13.25 M10.5 13.7 L10.0 13.75 10.1 11.65 10.6 11.55 10.5 13.7" fill="#ffffff" fill-rule="evenodd" stroke="none"/>
    <path d="M11.95 11.1 L12.4 10.9 12.2 13.15 11.75 13.25 11.95 11.1 M10.95 13.6 L10.5 13.7 10.6 11.55 11.15 11.4 10.95 13.6 M10.0 13.75 L8.45 13.9 7.3 13.8 7.3 11.75 8.6 11.8 10.1 11.65 10.0 13.75 M6.8 13.75 L6.3 13.7 6.25 11.55 6.75 11.65 6.8 13.75" fill="#bcbcbc" fill-rule="evenodd" stroke="none"/>
    <path d="M4.6 13.15 L4.1 12.9 4.0 10.6 4.5 10.95 4.6 13.15 M3.55 12.55 L2.4 11.45 Q2.0 10.9 2.0 10.2 2.05 9.5 2.4 9.25 L3.4 10.15 3.55 12.55" fill="#474747" fill-rule="evenodd" stroke="none"/>
    <path d="M7.3 13.8 L6.8 13.75 6.75 11.65 7.3 11.75 7.3 13.8 M6.3 13.7 L4.6 13.15 4.5 10.95 6.25 11.55 6.3 13.7 M4.1 12.9 L3.55 12.55 3.4 10.15 4.0 10.6 4.1 12.9" fill="#6d6d6d" fill-rule="evenodd" stroke="none"/>
    <path d="M8.3 12.3 L9.15 12.4 9.55 12.95 9.1 13.45 8.2 13.4 7.85 12.85 8.3 12.3" fill="#000000" fill-rule="evenodd" stroke="none"/>
    <path d="M3.25 10.7 L3.2 11.2 2.75 11.4 2.3 11.05 2.3 10.55 2.8 10.3 3.25 10.7" fill="#000000" fill-rule="evenodd" stroke="none"/>
    <path d="M13.45 10.85 L14.1 11.05 14.1 11.55 13.6 11.9 13.0 11.75 12.95 11.15 13.45 10.85" fill="#000000" fill-rule="evenodd" stroke="none"/>
    <path d="M3.7 -5.5 L4.45 -5.9 Q6.3 -6.8 8.7 -6.6 11.6 -6.35 13.55 -4.75 15.5 -3.15 15.45 -1.15 15.3 0.8 13.2 2.1 11.15 3.3 8.3 3.15 L5.95 2.7 Q4.55 2.2 3.4 1.35 1.45 -0.25 1.5 -2.2 1.6 -4.15 3.7 -5.5" fill="#ba9552" fill-rule="evenodd" stroke="none"/>
    <path d="M9.4 -6.45 L12.25 -5.5 Q14.4 -4.3 14.9 -2.4 15.25 -0.9 14.45 0.5 L13.45 1.6 Q14.9 -0.25 14.15 -2.4 13.7 -3.9 11.5 -5.3 L9.4 -6.45" fill="#ffe8c0" fill-rule="evenodd" stroke="none"/>
    <path d="M14.8 1.75 Q15.15 1.8 14.75 1.8 L12.25 3.8 11.8 4.0 10.95 4.25 10.4 4.45 9.85 4.55 8.3 4.65 6.95 4.65 6.35 4.5 5.85 4.4 4.1 3.85 3.6 3.45 2.95 3.0 2.15 2.2 1.8 1.9 2.95 2.55 3.6 3.0 4.1 3.35 5.9 3.95 6.4 4.05 7.0 4.15 8.35 4.2 9.85 4.1 10.45 4.05 10.95 3.85 11.8 3.55 12.25 3.3 14.8 1.75" fill="#e2e2e2" fill-rule="evenodd" stroke="none"/>
    <path d="M10.75 6.8 L6.95 7.0 6.4 6.95 5.9 6.9 4.2 6.35 3.35 5.6 1.85 4.25 2.7 5.0 3.15 5.3 3.7 5.6 4.25 5.95 Q5.7 6.8 9.05 6.65 13.45 6.45 14.9 3.2 13.85 6.05 10.75 6.8" fill="#7f4f08" fill-rule="evenodd" stroke="none"/>
    <path d="M11.65 6.1 L11.8 3.9 12.25 3.7 12.05 5.95 11.65 6.1 M10.95 4.2 L10.75 6.4 10.25 6.45 10.4 4.35 10.95 4.2 M6.35 4.4 L6.4 6.55 5.9 6.45 5.85 4.3 6.35 4.4 M6.95 6.6 L6.95 4.5 8.3 4.55 9.85 4.45 9.75 6.55 8.15 6.7 6.95 6.6" fill="#bcbcbc" fill-rule="evenodd" stroke="none"/>
    <path d="M11.8 3.9 L11.65 6.1 10.75 6.4 10.95 4.2 11.8 3.9 M12.05 5.95 L12.25 3.7 14.85 1.75 Q15.5 2.7 14.55 3.9 13.65 5.2 12.05 5.95 M10.4 4.35 L10.25 6.45 9.75 6.55 9.85 4.45 10.4 4.35" fill="#ffffff" fill-rule="evenodd" stroke="none"/>
    <path d="M6.35 4.4 L6.95 4.5 6.95 6.6 6.4 6.55 6.35 4.4 M5.85 4.3 L5.9 6.45 4.25 5.95 4.1 3.7 5.85 4.3 M3.15 5.3 L2.95 2.9 3.6 3.35 3.7 5.6 3.15 5.3" fill="#6d6d6d" fill-rule="evenodd" stroke="none"/>
    <path d="M3.15 5.3 L1.95 4.15 Q1.55 3.65 1.55 2.95 1.6 2.25 2.15 1.95 L2.95 2.9 3.15 5.3 M3.6 3.35 L4.1 3.7 4.25 5.95 3.7 5.6 3.6 3.35" fill="#474747" fill-rule="evenodd" stroke="none"/>
    <path d="M8.0 5.15 L8.9 5.25 9.3 5.8 8.8 6.3 7.9 6.25 7.55 5.7 8.0 5.15" fill="#000000" fill-rule="evenodd" stroke="none"/>
    <path d="M2.75 3.45 L2.7 3.95 2.2 4.15 1.8 3.85 1.8 3.3 2.3 3.05 2.75 3.45" fill="#000000" fill-rule="evenodd" stroke="none"/>
    <path d="M13.45 3.7 L14.1 3.95 14.2 4.45 13.6 4.8 12.95 4.6 12.9 4.0 13.45 3.7" fill="#000000" fill-rule="evenodd" stroke="none"/>
    <path d="M5.7 19.1 L6.4 8.6 6.4 8.55 Q7.2 7.95 8.2 7.95 9.25 7.9 10.05 8.5 L10.2 8.6 10.7 19.1 Q9.95 20.1 8.1 20.05 6.3 20.0 5.7 19.1" fill="#9e6720" fill-rule="evenodd" stroke="none"/>
    <path d="M10.3 8.6 L10.5 9.1 10.7 19.05 9.65 19.8 9.65 9.85 9.7 9.3 9.6 8.95 9.6 8.7 8.9 8.0 8.15 7.6 Q9.1 7.6 9.9 8.25 L10.3 8.6" fill="#724416" fill-rule="evenodd" stroke="none"/>
    <path d="M5.9 8.65 L6.25 8.25 Q7.05 7.7 8.1 7.6 9.1 7.65 9.9 8.25 L10.0 8.35 9.0 8.15 Q8.0 8.25 7.15 8.85 L6.75 9.3 6.6 19.75 Q6.0 19.7 5.75 19.15 L5.9 8.65" fill="#aa8052" fill-rule="evenodd" stroke="none"/>
    <path d="M9.8 20.2 L7.95 20.75 Q6.95 20.7 6.15 20.05 5.4 19.5 5.4 18.75 5.45 17.95 6.2 17.45 7.05 16.9 8.05 16.95 9.1 16.95 9.85 17.5 10.7 18.15 10.65 18.9 10.65 19.6 9.8 20.2" fill="#95591e" fill-rule="evenodd" stroke="none"/>
    <path d="M3.7 -5.5 L4.45 -5.9 Q6.3 -6.8 8.7 -6.6 L10.6 -6.25 10.2 -6.45 Q11.5 -6.25 12.95 -5.45 15.1 -4.35 15.65 -2.4 L15.75 -1.4 15.8 -1.5 15.75 -1.2 15.4 0.05 14.95 1.75 14.95 1.8 14.9 1.9 Q15.4 2.75 14.65 3.85 L14.55 4.0 14.75 8.2 14.8 9.05 Q15.4 9.75 14.75 10.9 L14.7 11.0 14.7 11.1 14.8 11.0 14.65 11.2 14.55 11.75 Q14.15 13.05 12.45 13.95 L11.85 14.2 11.85 14.25 11.65 14.3 10.6 14.6 10.7 19.1 10.6 19.25 9.85 20.2 Q9.0 20.75 7.95 20.75 6.95 20.7 6.2 20.1 5.4 19.5 5.45 18.7 5.5 18.25 5.8 17.9 L5.85 14.35 5.7 14.3 5.1 14.1 5.1 14.35 3.35 13.0 2.95 12.3 2.65 11.7 2.4 11.45 Q2.0 10.9 2.0 10.2 L2.2 9.5 2.3 7.85 Q2.35 5.9 2.55 4.95 L1.85 4.25 2.55 4.85 2.55 4.8 1.95 4.15 Q1.55 3.65 1.55 2.95 1.6 2.4 1.95 2.1 L1.8 1.9 2.05 2.05 2.15 1.95 2.25 2.1 1.45 -0.85 1.65 -1.0 Q1.5 -1.55 1.5 -2.2 1.6 -4.15 3.7 -5.5 Z" fill="none" stroke="#453129" stroke-linecap="round" stroke-linejoin="round" stroke-width="1.0"/>
  </g>
</svg>
