<?xml version="1.0" encoding="UTF-8" standalone="no"?>
<svg xmlns:xlink="http://www.w3.org/1999/xlink" height="15.85px" width="31.0px" xmlns="http://www.w3.org/2000/svg">
  <g transform="matrix(1.0, 0.0, 0.0, 1.0, -2.35, 10.6)">
    <path d="M3.2 -4.85 L3.3 -5.0 3.35 -5.05 3.6 -5.25 3.7 -5.25 6.4 -6.05 6.35 -6.05 6.65 -6.15 7.5 -5.45 7.45 -5.45 7.55 -5.4 10.85 -5.65 17.35 -6.5 17.85 -6.65 18.1 -6.7 Q18.95 -6.25 19.6 -6.9 L21.4 -7.3 26.0 -8.45 Q26.25 -9.3 26.65 -9.55 L29.65 -10.1 29.75 -10.1 Q30.5 -10.15 31.55 -7.05 32.8 -3.05 32.8 -1.5 L32.7 1.0 Q32.5 1.75 32.1 2.0 L31.7 2.2 29.2 2.95 29.15 2.85 29.1 2.85 28.95 2.8 28.1 2.2 22.85 2.35 21.1 2.4 Q20.15 1.85 19.6 2.55 L18.45 2.65 12.1 3.4 8.6 3.95 8.6 4.0 8.5 4.5 Q8.35 4.8 8.05 4.75 L5.2 4.45 5.0 4.4 4.95 4.4 3.9 2.85 Q3.05 1.45 2.95 -1.05 2.75 -3.45 2.95 -4.05 L3.2 -4.85" fill="#000000" fill-rule="evenodd" stroke="none"/>
    <path d="M3.2 -4.85 L3.3 -5.0 3.35 -5.05 3.6 -5.25 3.7 -5.25 6.4 -6.05 6.35 -6.05 6.65 -6.15 7.5 -5.45 7.45 -5.45 7.55 -5.4 10.85 -5.65 17.35 -6.5 17.85 -6.65 18.1 -6.7 Q18.95 -6.25 19.6 -6.9 L21.4 -7.3 26.0 -8.45 Q26.25 -9.3 26.65 -9.55 L29.65 -10.1 29.75 -10.1 Q30.5 -10.15 31.55 -7.05 32.8 -3.05 32.8 -1.5 L32.7 1.0 Q32.5 1.75 32.1 2.0 L31.7 2.2 29.2 2.95 29.15 2.85 29.1 2.85 28.95 2.8 28.1 2.2 22.85 2.35 21.1 2.4 Q20.15 1.85 19.6 2.55 L18.45 2.65 12.1 3.4 8.6 3.95 8.6 4.0 8.5 4.5 Q8.35 4.8 8.05 4.75 L5.2 4.45 5.0 4.4 4.95 4.4 3.9 2.85 Q3.05 1.45 2.95 -1.05 2.75 -3.45 2.95 -4.05 L3.2 -4.85 Z" fill="none" stroke="#000000" stroke-linecap="round" stroke-linejoin="round" stroke-opacity="0.49803922" stroke-width="1.0"/>
    <path d="M8.05 4.75 L5.5 4.55 5.2 4.5 4.95 4.4 4.9 4.4 3.9 2.85 Q3.1 1.45 2.95 -1.0 2.75 -3.5 3.0 -4.05 L3.25 -4.8 3.35 -5.0 3.4 -5.0 3.6 -5.25 3.7 -5.3 3.75 -5.3 6.4 -6.0 6.2 -5.25 6.1 -4.2 4.4 -4.05 4.5 -3.65 4.7 -2.25 6.05 -2.35 6.2 -1.45 6.7 1.2 5.55 1.5 5.75 1.9 6.3 3.2 7.2 2.9 7.7 4.1 8.05 4.75 M25.95 -8.45 Q26.25 -9.25 26.65 -9.55 L29.6 -10.1 29.4 -9.9 28.85 -9.3 Q28.75 -9.1 28.8 -8.45 L28.6 -6.6 28.65 -5.0 28.8 -4.25 29.25 -2.05 29.65 -0.5 29.7 -0.5 29.8 -0.2 29.95 0.1 30.1 0.4 30.55 1.3 Q31.1 2.15 31.55 2.1 L31.65 2.2 31.65 2.25 29.15 2.95 29.1 2.85 29.1 2.9 28.95 2.8 28.1 2.2 27.35 1.1 28.5 0.8 28.55 0.8 29.1 0.65 Q28.65 0.4 28.5 -0.6 L26.7 -0.3 26.15 -1.75 27.5 -2.0 28.1 -2.2 27.75 -3.85 25.85 -3.5 25.75 -5.3 26.95 -5.5 27.65 -5.6 27.6 -7.45 25.8 -7.2 Q25.8 -8.05 25.95 -8.45" fill="#57a17b" fill-rule="evenodd" stroke="none"/>
    <path d="M5.75 1.9 L5.55 1.5 6.7 1.2 7.5 1.0 8.8 0.75 Q10.15 1.2 9.55 2.25 L9.45 2.3 9.45 2.0 9.35 1.75 9.2 1.55 8.75 1.25 6.15 1.85 5.75 1.9 M4.5 -3.65 L4.4 -4.05 6.1 -4.2 7.1 -4.35 8.25 -4.35 8.95 -3.3 8.4 -2.4 8.0 -2.4 8.15 -2.75 8.25 -3.0 8.25 -3.25 7.85 -3.8 7.15 -3.8 6.2 -3.75 5.35 -3.8 4.8 -3.7 4.5 -3.65 M29.75 -10.1 Q30.5 -10.15 31.5 -7.05 32.8 -3.0 32.8 -1.5 32.95 -0.05 32.7 0.95 32.55 1.7 32.1 2.05 L31.65 2.2 31.55 2.1 31.65 2.1 32.3 1.55 Q31.45 1.55 30.95 1.15 L30.45 0.3 Q30.1 0.0 29.85 -0.55 L29.55 -1.3 29.2 -3.35 28.85 -5.0 28.8 -5.85 28.85 -6.55 29.15 -7.85 29.4 -9.2 29.85 -9.9 29.75 -10.1 M24.1 -2.9 L24.15 -3.4 25.85 -3.5 27.75 -3.85 28.1 -2.2 27.5 -2.0 27.45 -2.5 Q27.3 -3.4 27.0 -3.35 L25.6 -3.2 24.6 -2.95 24.1 -2.9 M25.8 -7.2 L27.6 -7.45 27.65 -5.6 26.95 -5.5 27.05 -5.95 27.1 -6.35 26.95 -6.95 26.05 -6.9 25.0 -6.75 24.2 -6.6 23.95 -6.55 23.65 -6.55 23.85 -6.9 25.8 -7.2 M28.8 -4.25 L29.0 -3.1 29.25 -2.05 28.8 -4.25 M26.7 -0.3 L28.5 -0.6 Q28.65 0.4 29.1 0.65 L28.55 0.8 28.5 0.8 28.3 0.5 28.2 0.35 28.0 -0.1 27.75 -0.15 26.55 0.1 25.65 0.3 25.15 0.4 24.95 0.4 25.1 0.05 26.7 -0.3 M31.9 -0.6 L31.95 -2.25 31.1 -5.85 Q30.55 -8.0 29.85 -7.6 29.15 -3.5 30.95 -0.35 L31.2 0.1 31.65 0.15 31.9 -0.6" fill="#86bda0" fill-rule="evenodd" stroke="none"/>
    <path d="M7.2 2.9 L6.3 3.2 5.75 1.9 6.15 1.85 6.35 2.3 Q6.6 2.6 6.95 2.55 L9.35 1.75 9.45 2.0 9.45 2.3 8.0 2.7 7.2 2.9 M6.05 -2.35 L4.7 -2.25 4.5 -3.65 4.8 -3.7 4.85 -3.45 Q4.9 -3.15 5.1 -3.0 L5.45 -2.85 6.0 -2.8 8.25 -3.0 8.15 -2.75 8.0 -2.4 7.05 -2.35 6.05 -2.35 M24.65 -1.45 Q24.0 -2.05 24.1 -2.9 L24.6 -2.95 24.75 -2.55 Q24.85 -2.1 25.1 -2.15 L26.55 -2.3 27.45 -2.5 27.5 -2.0 26.15 -1.75 24.6 -1.4 24.65 -1.45 M25.75 -5.3 L24.15 -5.1 24.0 -5.3 Q23.45 -5.85 23.65 -6.55 L23.95 -6.55 24.2 -6.6 24.2 -6.15 Q24.25 -5.75 24.55 -5.8 L25.7 -5.85 27.05 -5.95 26.95 -5.5 25.75 -5.3 M28.5 0.8 L27.35 1.1 25.85 1.4 Q24.9 1.05 24.95 0.4 L25.15 0.4 25.65 0.3 25.9 0.65 26.25 1.0 27.3 0.7 28.3 0.5 28.5 0.8" fill="#498360" fill-rule="evenodd" stroke="none"/>
    <path d="M8.25 -3.0 L6.0 -2.8 5.45 -2.85 5.1 -3.0 Q4.9 -3.15 4.85 -3.45 L4.8 -3.7 5.35 -3.8 6.2 -3.75 7.15 -3.8 7.85 -3.8 8.25 -3.25 8.25 -3.0 M24.2 -6.6 L25.0 -6.75 26.05 -6.9 26.95 -6.95 27.1 -6.35 27.05 -5.95 25.7 -5.85 24.55 -5.8 Q24.25 -5.75 24.2 -6.15 L24.2 -6.6 M24.6 -2.95 L25.6 -3.2 27.0 -3.35 Q27.3 -3.4 27.45 -2.5 L26.55 -2.3 25.1 -2.15 Q24.85 -2.1 24.75 -2.55 L24.6 -2.95 M25.65 0.3 L26.55 0.1 27.75 -0.15 28.0 -0.1 28.2 0.35 28.3 0.5 27.3 0.7 26.25 1.0 25.9 0.65 25.65 0.3 M6.15 1.85 L8.75 1.25 9.2 1.55 9.35 1.75 6.95 2.55 Q6.6 2.6 6.35 2.3 L6.15 1.85" fill="#61a77c" fill-rule="evenodd" stroke="none"/>
    <path d="M7.45 -5.4 L7.55 -5.4 10.85 -5.65 10.6 -3.5 8.95 -3.3 8.25 -4.35 7.1 -4.35 Q7.15 -5.1 7.45 -5.4 M19.65 -6.9 L21.45 -7.3 25.95 -8.45 Q25.8 -8.05 25.8 -7.2 L23.85 -6.9 23.65 -6.55 Q23.45 -5.85 24.0 -5.3 L19.35 -4.55 Q19.35 -5.7 19.65 -6.9" fill="#3d764e" fill-rule="evenodd" stroke="none"/>
    <path d="M8.05 4.75 L7.7 4.1 7.2 2.9 8.0 2.7 8.6 3.95 8.6 4.05 8.5 4.5 Q8.4 4.85 8.05 4.75 M6.7 1.2 L6.2 -1.45 6.05 -2.35 7.05 -2.35 7.2 -0.5 7.35 0.15 7.5 1.0 6.7 1.2 M6.1 -4.2 L6.2 -5.25 6.4 -6.0 6.4 -6.05 6.65 -6.15 7.5 -5.45 7.45 -5.4 Q7.15 -5.1 7.1 -4.35 L6.1 -4.2" fill="#386951" fill-rule="evenodd" stroke="none"/>
    <path d="M8.0 -2.4 L8.4 -2.4 8.95 -3.3 10.6 -3.5 Q10.5 -1.4 11.0 0.5 L9.7 0.5 8.0 0.3 7.35 0.15 7.2 -0.5 7.05 -2.35 8.0 -2.4 M19.85 -0.4 Q19.3 -2.35 19.35 -4.55 L24.0 -5.3 24.15 -5.1 25.75 -5.3 25.85 -3.5 24.15 -3.4 24.1 -2.9 Q24.0 -2.05 24.65 -1.45 L22.5 -0.95 19.85 -0.4" fill="#326244" fill-rule="evenodd" stroke="none"/>
    <path d="M18.15 -6.7 Q18.95 -6.2 19.65 -6.9 19.35 -5.7 19.35 -4.55 L18.6 -4.45 17.85 -4.4 18.15 -6.7" fill="#424a3e" fill-rule="evenodd" stroke="none"/>
    <path d="M10.85 -5.65 L17.3 -6.5 17.85 -6.6 18.15 -6.7 17.85 -4.4 12.95 -3.9 10.6 -3.5 10.85 -5.65" fill="#61715b" fill-rule="evenodd" stroke="none"/>
    <path d="M11.0 0.5 Q10.5 -1.4 10.6 -3.5 L12.95 -3.9 17.85 -4.4 Q17.75 -2.1 18.35 -0.15 L17.15 0.1 14.7 0.4 12.15 0.5 11.0 0.5" fill="#435141" fill-rule="evenodd" stroke="none"/>
    <path d="M17.85 -4.4 L18.6 -4.45 19.35 -4.55 Q19.3 -2.35 19.85 -0.4 L18.9 -0.2 18.35 -0.15 Q17.75 -2.1 17.85 -4.4" fill="#31382e" fill-rule="evenodd" stroke="none"/>
    <path d="M21.1 2.4 Q20.15 1.9 19.55 2.55 18.75 1.3 18.35 -0.15 L18.9 -0.2 19.85 -0.4 Q20.25 1.1 21.1 2.4" fill="#21251f" fill-rule="evenodd" stroke="none"/>
    <path d="M29.6 -10.1 L29.75 -10.1 29.85 -9.9 29.4 -9.2 29.45 -9.35 Q29.35 -10.0 29.0 -9.3 L28.8 -8.45 28.85 -7.85 28.7 -6.1 28.75 -5.85 28.8 -5.85 28.85 -5.0 29.2 -3.35 29.55 -1.3 29.85 -0.55 Q30.1 0.0 30.45 0.3 L30.95 1.15 Q31.45 1.55 32.3 1.55 L31.65 2.1 31.55 2.1 Q31.1 2.15 30.55 1.3 L30.1 0.4 29.95 0.1 29.8 -0.2 29.7 -0.5 29.65 -0.5 29.25 -2.05 29.0 -3.1 28.8 -4.25 28.65 -5.0 28.6 -6.6 28.8 -8.45 Q28.75 -9.1 28.85 -9.3 L29.4 -9.9 29.6 -10.1" fill="#d3e7db" fill-rule="evenodd" stroke="none"/>
    <path d="M28.8 -8.45 L29.0 -9.3 Q29.35 -10.0 29.45 -9.35 L29.4 -9.2 29.15 -7.85 28.85 -6.55 28.8 -5.85 28.75 -5.85 28.7 -6.1 28.85 -7.85 28.8 -8.45" fill="#e9f3ec" fill-rule="evenodd" stroke="none"/>
    <path d="M28.1 2.2 L22.9 2.35 21.1 2.4 Q20.25 1.1 19.85 -0.4 L22.5 -0.95 24.65 -1.45 24.6 -1.4 26.15 -1.75 26.7 -0.3 25.1 0.05 24.95 0.4 Q24.9 1.05 25.85 1.4 L27.35 1.1 28.1 2.2 M12.05 3.4 L8.6 3.95 8.0 2.7 9.45 2.3 9.55 2.25 Q10.15 1.2 8.8 0.75 L7.5 1.0 7.35 0.15 8.0 0.3 9.7 0.5 11.0 0.5 Q11.3 2.0 12.05 3.4" fill="#203e28" fill-rule="evenodd" stroke="none"/>
    <path d="M31.9 -0.6 L31.65 0.15 31.2 0.1 30.95 -0.35 Q29.15 -3.5 29.85 -7.6 30.55 -8.0 31.1 -5.85 L31.95 -2.25 31.9 -0.6" fill="#1b3225" fill-rule="evenodd" stroke="none"/>
    <path d="M19.55 2.55 L18.45 2.65 12.05 3.4 Q11.3 2.0 11.0 0.5 L12.15 0.5 14.7 0.4 17.15 0.1 18.35 -0.15 Q18.75 1.3 19.55 2.55" fill="#2d332b" fill-rule="evenodd" stroke="none"/>
  </g>
</svg>
