<?xml version="1.0" encoding="UTF-8" standalone="no"?>
<svg xmlns:xlink="http://www.w3.org/1999/xlink" height="99.05px" width="112.25px" xmlns="http://www.w3.org/2000/svg">
  <g transform="matrix(1.0, 0.0, 0.0, 1.0, 12.7, -9.3)">
    <path d="M86.65 58.4 Q85.85 60.8 83.5 60.8 L83.5 61.15 Q83.5 61.95 83.1 62.35 L87.05 67.9 Q87.05 67.5 87.45 67.5 88.25 67.1 89.8 67.1 92.6 67.1 93.35 67.9 94.55 69.05 94.15 71.8 94.15 75.35 90.6 74.95 91.0 75.35 91.0 75.75 L91.0 76.95 Q90.6 78.9 90.2 79.7 L87.85 79.7 88.25 80.5 88.65 80.1 91.4 79.7 Q94.15 79.7 95.35 80.9 96.55 82.05 96.55 85.6 96.55 89.95 93.0 88.75 L93.35 89.95 93.35 91.15 Q93.35 93.9 92.6 94.3 92.2 94.7 87.85 95.1 86.25 95.1 85.85 97.05 85.45 99.05 82.7 99.05 L79.95 98.65 77.6 97.45 77.2 97.85 77.2 98.25 Q77.2 99.8 75.2 101.4 72.85 102.95 70.45 102.95 67.3 102.95 64.55 101.8 L61.4 100.2 Q61.0 101.8 58.2 103.35 55.85 105.35 53.1 105.35 50.7 105.35 49.15 103.75 L45.6 101.4 Q45.2 102.55 43.2 102.95 40.85 104.55 39.25 104.55 36.9 104.55 35.3 103.35 34.15 102.95 31.75 101.0 L29.8 102.95 Q27.8 103.75 25.85 103.75 23.85 103.75 21.5 101.8 19.5 99.8 19.15 99.8 18.75 99.8 18.75 99.4 17.15 100.6 15.55 100.6 12.4 100.6 10.85 99.4 8.05 97.85 7.7 94.7 4.9 96.65 2.55 96.65 -0.2 96.65 -1.8 94.3 -3.8 91.95 -3.8 89.55 -3.8 88.75 -3.4 88.4 -3.0 88.0 -3.0 87.6 L-3.0 87.2 Q-3.8 88.0 -5.35 88.0 -7.35 88.0 -8.5 86.0 -9.7 84.85 -9.7 82.85 -9.7 80.1 -7.75 78.5 -6.55 76.95 -3.8 76.95 -1.8 76.95 -1.0 77.75 L-0.6 78.5 1.35 76.15 Q0.95 75.75 0.95 75.35 L1.35 74.2 1.35 73.4 Q0.55 74.2 -0.6 74.2 -2.6 74.2 -3.8 72.6 -5.35 71.4 -5.35 69.85 -5.75 67.5 -4.55 65.9 -3.4 64.7 -0.6 64.7 L2.15 65.1 2.95 66.3 6.1 60.8 5.7 60.8 4.9 60.8 Q2.55 60.8 0.55 58.8 L0.15 57.6 -0.2 56.05 Q-0.2 54.45 0.55 54.1 L0.55 53.3 Q1.35 52.1 2.95 52.1 L5.7 52.1 6.1 52.5 6.5 52.1 Q6.9 52.1 6.9 51.7 L10.05 44.6 10.05 39.1 12.0 36.35 12.4 32.4 4.9 20.95 14.0 15.85 19.9 15.85 20.7 12.65 25.85 13.05 25.85 15.85 60.2 15.85 60.2 12.3 64.95 12.65 Q65.75 13.85 66.1 16.2 L70.85 16.2 80.75 20.95 73.25 33.2 73.65 37.1 74.8 38.7 75.6 45.0 75.6 45.4 81.15 54.85 81.5 54.45 Q82.3 53.7 83.9 54.1 85.85 53.7 86.65 54.85 87.05 55.65 87.05 57.25 86.65 57.6 86.65 58.4 M6.1 59.2 L5.7 58.8 5.3 58.8 Q5.7 59.2 6.1 59.2" fill="#bf6b6b" fill-rule="evenodd" stroke="none"/>
    <path d="M86.65 58.4 Q85.85 60.8 83.5 60.8 L83.5 61.15 Q83.5 61.95 83.1 62.35 L87.05 67.9 Q87.05 67.5 87.45 67.5 88.25 67.1 89.8 67.1 92.6 67.1 93.35 67.9 94.55 69.05 94.15 71.8 94.15 75.35 90.6 74.95 91.0 75.35 91.0 75.75 L91.0 76.95 Q90.6 78.9 90.2 79.7 L87.85 79.7 88.25 80.5 88.65 80.1 91.4 79.7 Q94.15 79.7 95.35 80.9 96.55 82.05 96.55 85.6 96.55 89.95 93.0 88.75 L93.35 89.95 93.35 91.15 Q93.35 93.9 92.6 94.3 92.2 94.7 87.85 95.1 86.25 95.1 85.85 97.05 85.45 99.05 82.7 99.05 L79.95 98.65 77.6 97.45 77.2 97.85 77.2 98.25 Q77.2 99.8 75.2 101.4 72.85 102.95 70.45 102.95 67.3 102.95 64.55 101.8 L61.4 100.2 Q61.0 101.8 58.2 103.35 55.85 105.35 53.1 105.35 50.7 105.35 49.15 103.75 L45.6 101.4 Q45.2 102.55 43.2 102.95 40.85 104.55 39.25 104.55 36.9 104.55 35.3 103.35 34.15 102.95 31.75 101.0 L29.8 102.95 Q27.8 103.75 25.85 103.75 23.85 103.75 21.5 101.8 19.5 99.8 19.15 99.8 18.75 99.8 18.75 99.4 17.15 100.6 15.55 100.6 12.4 100.6 10.85 99.4 8.05 97.85 7.7 94.7 4.9 96.65 2.55 96.65 -0.2 96.65 -1.8 94.3 -3.8 91.95 -3.8 89.55 -3.8 88.75 -3.4 88.4 -3.0 88.0 -3.0 87.6 L-3.0 87.2 Q-3.8 88.0 -5.35 88.0 -7.35 88.0 -8.5 86.0 -9.7 84.85 -9.7 82.85 -9.7 80.1 -7.75 78.5 -6.55 76.95 -3.8 76.95 -1.8 76.95 -1.0 77.75 L-0.6 78.5 1.35 76.15 Q0.95 75.75 0.95 75.35 L1.35 74.2 1.35 73.4 Q0.55 74.2 -0.6 74.2 -2.6 74.2 -3.8 72.6 -5.35 71.4 -5.35 69.85 -5.75 67.5 -4.55 65.9 -3.4 64.7 -0.6 64.7 L2.15 65.1 2.95 66.3 6.1 60.8 5.7 60.8 4.9 60.8 Q2.55 60.8 0.55 58.8 L0.15 57.6 -0.2 56.05 Q-0.2 54.45 0.55 54.1 L0.55 53.3 Q1.35 52.1 2.95 52.1 L5.7 52.1 6.1 52.5 6.5 52.1 Q6.9 52.1 6.9 51.7 L10.05 44.6 10.05 39.1 12.0 36.35 12.4 32.4 4.9 20.95 14.0 15.85 19.9 15.85 20.7 12.65 25.85 13.05 25.85 15.85 60.2 15.85 60.2 12.3 64.95 12.65 Q65.75 13.85 66.1 16.2 L70.85 16.2 80.75 20.95 73.25 33.2 73.65 37.1 74.8 38.7 75.6 45.0 75.6 45.4 81.15 54.85 81.5 54.45 Q82.3 53.7 83.9 54.1 85.85 53.7 86.65 54.85 87.05 55.65 87.05 57.25 86.65 57.6 86.65 58.4 Z" fill="none" stroke="#4c0e62" stroke-linecap="round" stroke-linejoin="round" stroke-width="6.0"/>
    <path d="M68.5 16.75 L70.85 16.75 80.75 21.5 73.25 33.75 76.4 57.4 64.55 59.75 Q49.95 62.5 44.4 62.5 L33.75 62.1 21.9 60.55 Q14.8 58.95 11.65 57.8 L9.25 57.0 12.4 32.95 4.9 21.5 14.0 16.4 16.75 16.4 Q22.3 28.2 38.85 28.2 66.1 29.4 68.5 16.75" fill="#c8c8c8" fill-rule="evenodd" stroke="none"/>
    <path d="M68.5 16.75 Q66.1 29.4 38.85 28.2 22.3 28.2 16.75 16.4 L68.5 16.75" fill="#a2a2a2" fill-rule="evenodd" stroke="none"/>
    <path d="M9.25 57.0 L11.65 57.8 Q14.8 58.95 21.9 60.55 L33.75 62.1 44.4 62.5 Q49.95 62.5 64.55 59.75 L76.4 57.4 79.55 78.7 Q43.6 86.55 6.9 78.3 L9.25 57.0" fill="#dae3e9" fill-rule="evenodd" stroke="none"/>
    <path d="M88.25 81.05 L88.65 80.65 91.4 80.25 Q94.15 80.25 95.35 81.45 96.55 82.6 96.55 86.15 96.55 90.5 93.0 89.3 L93.35 90.5 93.35 91.7 Q93.35 94.45 92.6 94.85 92.2 95.25 87.85 95.65 86.25 95.65 85.85 97.6 85.1 99.6 82.7 99.6 L79.95 99.2 77.6 98.0 77.2 98.4 77.2 98.8 Q77.2 100.35 75.2 101.95 72.85 103.5 70.45 103.5 67.3 103.5 64.55 102.35 L61.4 100.75 Q61.0 102.35 58.2 103.9 55.85 105.9 53.1 105.9 50.7 105.9 49.15 104.3 L45.6 101.95 Q45.2 103.1 43.2 103.5 40.85 105.1 39.25 105.1 36.9 105.1 35.3 103.9 34.15 103.5 31.75 101.55 L29.4 103.5 Q27.8 104.3 25.85 104.3 23.85 104.3 21.1 102.35 19.5 100.35 19.15 100.35 18.75 100.35 18.75 99.95 17.15 101.15 15.55 101.15 12.4 101.15 10.45 99.95 8.05 98.4 7.7 95.25 4.9 97.2 2.55 97.2 -0.2 97.2 -2.2 94.85 -3.8 92.5 -3.8 90.1 -3.8 89.3 -3.4 88.95 -3.0 88.55 -3.0 88.15 L-3.0 87.75 Q-3.8 88.55 -5.35 88.55 -7.75 88.55 -8.5 86.55 -9.7 85.4 -9.7 83.4 -9.7 80.65 -8.1 79.05 -6.55 77.5 -3.8 77.5 -1.8 77.5 -1.0 78.3 L-0.6 79.05 -3.4 83.0 0.55 86.15 0.55 86.55 Q8.05 92.85 18.75 96.05 31.35 99.95 46.0 99.6 60.2 99.6 72.45 95.25 79.55 93.25 85.1 89.7 85.1 89.3 85.45 89.3 88.65 87.35 91.0 84.6 L88.25 81.05" fill="#ffe0fc" fill-rule="evenodd" stroke="none"/>
    <path d="M88.25 81.05 L91.0 84.6 Q88.65 87.35 85.45 89.3 85.1 89.3 85.1 89.7 L79.55 78.3 Q76.4 73.15 72.05 71.2 L75.2 70.4 79.55 69.6 88.25 81.05 M0.55 86.15 L-3.4 83.0 -0.6 79.05 6.5 69.6 9.25 70.4 15.55 71.95 Q13.2 72.35 11.25 73.95 9.25 74.75 5.7 78.7 2.55 82.6 2.55 83.0 2.55 83.4 0.95 84.6 L0.95 85.0 Q0.55 85.8 0.55 86.15 M41.25 74.35 L48.35 73.95 Q48.35 74.75 47.95 75.5 L48.35 75.5 47.95 77.1 Q47.55 81.85 46.75 83.4 L46.4 80.25 45.2 77.5 Q45.2 78.3 44.0 83.0 L42.45 90.9 41.25 75.9 41.25 74.35 M17.55 83.8 L17.55 81.45 18.35 72.35 26.65 74.35 27.05 74.35 25.05 80.25 Q25.05 78.3 24.25 77.9 23.85 80.25 23.1 80.25 23.1 76.7 22.7 74.75 20.7 77.1 19.9 79.85 18.75 82.25 17.55 87.35 L17.55 83.8 M59.8 73.95 L68.1 71.95 70.05 78.3 72.05 86.55 69.7 81.05 Q67.7 77.1 66.1 76.3 L66.1 79.85 64.95 77.9 Q64.55 76.7 63.35 76.3 L63.35 77.4 63.35 80.25 Q63.75 82.25 63.75 84.6 L63.35 84.6 59.4 73.95 59.8 73.95" fill="#7b299a" fill-rule="evenodd" stroke="none"/>
    <path d="M6.5 69.6 L8.45 65.65 8.85 65.25 Q43.2 73.95 77.2 65.25 L79.55 69.6 75.2 70.4 72.05 71.2 68.1 71.95 59.4 73.55 48.35 73.95 41.25 74.35 27.05 73.55 18.35 72.35 15.55 71.95 9.25 70.4 6.5 69.6" fill="#fc889b" fill-rule="evenodd" stroke="none"/>
    <path d="M85.1 89.7 Q79.55 93.25 72.45 95.25 60.2 99.6 46.0 99.6 31.35 99.95 18.75 96.05 8.05 92.85 0.55 86.55 L0.55 86.15 Q0.55 85.8 0.95 85.0 L0.95 84.6 Q2.55 83.4 2.55 83.0 2.55 82.6 5.7 78.7 9.25 74.75 11.25 73.95 13.2 72.35 15.55 71.95 L18.35 72.35 27.05 73.55 41.25 74.35 41.25 75.9 42.45 90.9 44.0 83.0 Q45.2 78.3 45.2 77.5 L46.4 80.25 46.75 83.4 Q47.55 81.85 47.95 77.1 L48.35 75.5 47.95 75.5 Q48.35 74.75 48.35 73.95 L59.4 73.55 Q59.4 73.95 59.8 73.95 L59.4 73.95 63.35 84.6 63.75 84.6 Q63.75 82.25 63.35 80.25 L63.75 80.25 Q63.4 78.85 63.35 77.4 L63.35 76.3 Q64.55 76.7 64.95 77.9 L66.1 79.85 66.1 76.3 Q67.7 77.1 69.7 81.05 L72.05 86.55 70.05 78.3 68.1 71.95 72.05 71.2 Q76.4 73.15 79.55 78.3 L85.1 89.7 M15.2 85.4 Q15.55 81.05 14.0 79.05 L6.1 85.0 Q5.7 87.35 6.9 88.15 L11.65 90.5 Q17.55 92.85 23.85 93.65 31.35 98.4 38.85 95.25 L41.25 94.45 Q41.25 94.85 45.2 96.8 49.55 98.8 55.85 95.65 61.8 96.4 67.3 93.65 75.2 93.65 80.35 88.95 L80.35 88.15 Q79.95 84.6 76.8 84.2 L75.2 85.4 Q75.2 86.15 74.8 86.55 L73.25 89.3 68.1 88.55 Q66.5 89.3 64.95 90.5 62.15 89.3 60.2 86.55 58.2 84.6 55.85 84.6 51.9 84.6 50.7 88.55 49.15 92.1 45.2 93.25 41.25 94.45 36.9 88.55 34.9 89.3 32.55 90.5 L24.65 86.55 20.3 90.5 Q18.35 90.9 16.75 88.95 15.2 87.75 15.2 85.4 M17.55 83.8 L17.55 87.35 Q18.75 82.25 19.9 79.85 20.7 77.1 22.7 74.75 23.1 76.7 23.1 80.25 23.85 80.25 24.25 77.9 25.05 78.3 25.05 80.25 L27.05 74.35 26.65 74.35 18.35 72.35 17.55 81.45 17.55 83.8" fill="#9f43cb" fill-rule="evenodd" stroke="none"/>
    <path d="M15.2 85.4 Q15.2 87.75 16.75 88.95 18.35 90.9 20.3 90.5 L24.65 86.55 32.55 90.5 Q34.9 89.3 36.9 88.55 41.25 94.45 45.2 93.25 49.15 92.1 50.7 88.55 51.9 84.6 55.85 84.6 58.2 84.6 60.2 86.55 62.15 89.3 64.95 90.5 66.5 89.3 68.1 88.55 L73.25 89.3 74.8 86.55 Q75.2 86.15 75.2 85.4 L76.8 84.2 Q79.95 84.6 80.35 88.15 L80.35 88.95 Q75.2 93.65 67.3 93.65 61.8 96.4 55.85 95.65 49.55 98.8 45.2 96.8 41.25 94.85 41.25 94.45 L38.85 95.25 Q31.35 98.4 23.85 93.65 17.55 92.85 11.65 90.5 L6.9 88.15 Q5.7 87.35 6.1 85.0 L14.0 79.05 Q15.55 81.05 15.2 85.4" fill="#c26de9" fill-rule="evenodd" stroke="none"/>
    <path d="M87.05 68.45 Q87.05 68.05 87.45 68.05 88.25 67.65 89.8 67.65 92.6 67.65 93.35 68.45 94.15 69.6 94.15 72.35 93.75 75.9 90.2 75.5 91.0 75.9 91.0 76.3 L90.6 77.5 90.2 80.25 85.45 80.65 Q83.9 80.65 83.1 82.6 82.3 84.2 79.95 84.2 79.55 84.2 77.95 83.4 76.4 83.0 76.0 82.6 L75.6 83.0 Q75.2 83.0 75.2 83.4 75.2 84.6 73.25 85.8 70.85 86.95 68.9 86.95 L64.15 86.55 Q63.75 86.15 61.0 85.0 60.6 86.55 58.2 87.75 55.85 88.95 53.5 88.95 51.5 88.95 49.95 88.15 48.35 86.55 47.15 85.8 L44.8 87.35 Q42.45 88.55 41.25 88.55 38.85 88.55 37.7 87.75 L34.55 85.4 32.55 86.95 Q30.6 87.75 29.0 87.75 27.4 87.75 25.05 86.55 L23.1 84.6 22.7 84.6 22.7 84.2 Q21.5 85.4 19.9 85.4 17.15 85.4 15.2 84.2 12.8 83.0 12.0 80.25 9.25 81.85 7.3 81.85 4.9 81.85 2.95 79.85 1.35 78.3 0.95 75.9 L0.95 74.75 1.35 74.35 1.35 73.95 Q0.55 74.75 -0.6 74.75 -2.6 74.75 -3.8 73.15 -5.35 71.95 -5.35 70.4 -5.75 68.05 -4.55 66.45 -3.8 65.25 -0.6 65.25 L2.15 65.65 2.95 66.85 0.55 70.0 4.5 72.75 4.9 73.15 Q12.0 78.3 22.3 81.05 33.75 84.2 47.15 84.2 60.2 83.8 70.85 80.25 77.95 78.3 83.1 75.5 87.05 71.95 87.05 68.45" fill="#ffc6fe" fill-rule="evenodd" stroke="none"/>
    <path d="M87.05 68.45 Q87.05 71.95 83.1 75.5 80.75 69.6 78.75 65.65 76.0 61.35 72.05 59.35 L71.25 59.35 Q75.6 58.55 79.55 57.0 L79.55 57.4 87.05 68.45 M4.9 73.15 L4.5 72.75 0.55 70.0 2.95 66.85 8.45 57.0 Q12.4 58.95 17.55 59.75 L17.15 59.75 Q14.8 60.55 13.2 61.35 11.25 62.9 8.45 66.05 5.7 69.6 5.7 70.0 5.7 70.4 4.9 71.6 L4.9 71.95 4.9 73.15 M24.25 61.35 L26.25 61.7 29.4 62.1 Q27.8 65.65 26.65 70.4 26.65 67.65 26.25 66.85 25.85 69.6 24.65 70.4 L24.25 66.45 24.25 63.7 Q22.7 66.05 21.5 69.6 20.7 71.95 19.9 78.7 L19.5 74.35 Q19.5 70.4 19.9 67.65 L19.9 60.95 22.3 61.35 24.25 61.35 M59.8 61.35 L61.4 61.35 61.8 61.35 68.1 60.15 Q68.9 61.7 69.3 65.25 70.45 69.55 71.25 76.5 70.8 73.45 69.3 70.8 67.3 65.65 66.1 65.25 L66.1 69.6 Q65.35 67.65 64.95 67.25 64.55 65.25 63.35 65.25 L63.35 66.45 63.35 67.65 63.35 75.5 59.4 61.7 59.8 61.35 M49.15 62.5 Q49.55 62.1 49.95 62.1 49.55 63.3 49.55 65.25 L47.55 73.55 Q47.55 71.95 47.15 69.6 L46.4 65.25 Q45.6 66.85 45.2 73.15 L43.2 82.6 Q42.45 69.2 41.65 63.3 L42.45 63.3 45.2 62.9 47.15 62.5 Q47.55 62.1 48.75 62.5 49.15 62.1 49.15 62.5" fill="#7b299a" fill-rule="evenodd" stroke="none"/>
    <path d="M83.1 75.5 Q77.95 78.3 70.85 80.25 60.2 83.8 47.15 84.2 33.75 84.2 22.3 81.05 12.0 78.3 4.9 73.15 L4.9 71.95 4.9 71.6 Q5.7 70.4 5.7 70.0 5.7 69.6 8.45 66.05 11.25 62.9 13.2 61.35 14.8 60.55 17.15 59.75 L17.55 59.75 17.95 59.75 Q18.75 60.15 19.9 60.15 L19.9 60.55 28.2 61.35 42.45 62.1 42.45 63.3 41.65 63.3 Q42.45 69.2 43.2 82.6 L45.2 73.15 Q45.6 66.85 46.4 65.25 L47.15 69.6 Q47.55 71.95 47.55 73.55 L49.55 65.25 Q49.55 63.3 49.95 62.1 49.55 62.1 49.15 62.5 49.15 62.1 49.55 62.1 L49.55 61.7 59.8 61.35 59.4 61.7 63.35 75.5 63.35 67.65 63.35 66.45 63.35 65.25 Q64.55 65.25 64.95 67.25 65.35 67.65 66.1 69.6 L66.1 65.25 Q67.3 65.65 69.3 70.8 70.8 73.45 71.25 76.5 70.45 69.55 69.3 65.25 68.9 61.7 68.1 60.15 68.9 60.95 68.9 61.35 68.9 60.55 68.1 59.75 L71.25 59.35 72.05 59.35 Q76.0 61.35 78.75 65.65 80.75 69.6 83.1 75.5 M24.25 61.35 L22.3 61.35 19.9 60.95 19.9 67.65 Q19.5 70.4 19.5 74.35 L19.9 78.7 Q20.7 71.95 21.5 69.6 22.7 66.05 24.25 63.7 L24.25 66.45 24.65 70.4 Q25.85 69.6 26.25 66.85 26.65 67.65 26.65 70.4 27.8 65.65 29.4 62.1 L26.25 61.7 24.25 61.35 M29.8 73.95 Q29.4 73.15 29.4 71.95 L29.0 71.2 Q27.8 75.15 27.05 75.9 L25.85 75.9 25.45 76.7 Q25.45 77.1 26.25 77.9 26.65 78.3 27.05 78.3 28.2 80.25 30.6 80.25 L33.75 81.05 37.3 81.85 Q38.5 81.85 39.65 81.05 41.65 80.25 41.65 79.45 L41.25 77.1 40.05 73.95 39.65 71.6 Q39.65 69.6 39.25 68.8 38.85 69.2 36.9 68.8 L35.3 68.45 Q32.95 68.45 31.75 70.0 30.6 71.95 30.2 73.95 L29.8 73.95 M12.4 69.6 Q12.0 69.6 12.0 70.4 11.25 72.35 11.25 73.55 11.25 74.35 13.6 75.9 15.55 77.1 16.75 77.1 L17.55 76.7 Q16.35 73.55 15.95 71.6 L15.95 68.45 Q15.95 66.85 14.8 66.85 13.6 66.85 12.4 69.6 M72.45 67.65 Q72.45 69.2 73.25 71.6 L74.4 75.5 Q74.8 75.9 75.2 75.9 76.0 75.9 77.2 75.15 78.35 74.35 78.35 73.95 78.35 72.75 76.8 69.6 74.8 66.85 73.65 66.85 72.45 66.85 72.45 67.65 M58.6 71.95 Q58.2 73.15 57.45 73.15 L56.25 72.35 Q53.9 72.35 53.1 74.35 51.9 75.9 51.9 80.25 L53.9 80.25 56.25 79.85 Q57.05 79.85 59.0 79.05 L61.8 78.7 Q63.35 78.3 63.35 77.5 59.8 71.95 58.6 71.95" fill="#9f43cb" fill-rule="evenodd" stroke="none"/>
    <path d="M29.8 73.95 L30.2 73.95 Q30.6 71.95 31.75 70.0 32.95 68.45 35.3 68.45 L36.9 68.8 Q38.85 69.2 39.25 68.8 39.65 69.6 39.65 71.6 L40.05 73.95 41.25 77.1 41.65 79.45 Q41.65 80.25 39.65 81.05 38.5 81.85 37.3 81.85 L33.75 81.05 30.6 80.25 Q28.2 80.25 27.05 78.3 26.65 78.3 26.25 77.9 25.45 77.1 25.45 76.7 L25.85 75.9 27.05 75.9 Q27.8 75.15 29.0 71.2 L29.4 71.95 Q29.4 73.15 29.8 73.95 M12.4 69.6 Q13.6 66.85 14.8 66.85 15.95 66.85 15.95 68.45 L15.95 71.6 Q16.35 73.55 17.55 76.7 L16.75 77.1 Q15.55 77.1 13.6 75.9 11.25 74.35 11.25 73.55 11.25 72.35 12.0 70.4 12.0 69.6 12.4 69.6 M72.45 67.65 Q72.45 66.85 73.65 66.85 74.8 66.85 76.8 69.6 78.35 72.75 78.35 73.95 78.35 74.35 77.2 75.15 76.0 75.9 75.2 75.9 74.8 75.9 74.4 75.5 L73.25 71.6 Q72.45 69.2 72.45 67.65 M58.6 71.95 Q59.8 71.95 63.35 77.5 63.35 78.3 61.8 78.7 L59.0 79.05 Q57.05 79.85 56.25 79.85 L53.9 80.25 51.9 80.25 Q51.9 75.9 53.1 74.35 53.9 72.35 56.25 72.35 L57.45 73.15 Q58.2 73.15 58.6 71.95" fill="#c26de9" fill-rule="evenodd" stroke="none"/>
    <path d="M8.45 57.0 L9.25 54.65 Q9.25 54.25 9.65 54.25 44.4 62.1 77.2 53.85 L79.55 57.0 Q75.6 58.55 71.25 59.35 L68.1 59.75 Q68.9 60.55 68.9 61.35 68.9 60.95 68.1 60.15 L61.8 61.35 61.4 61.35 59.8 61.35 49.55 61.7 49.55 62.1 42.45 62.1 28.2 61.35 19.9 60.55 19.9 60.15 Q18.75 60.15 17.95 59.75 L17.55 59.75 Q12.4 58.95 8.45 57.0" fill="#ffa1b0" fill-rule="evenodd" stroke="none"/>
    <path d="M6.1 53.05 L6.5 52.65 Q6.9 52.65 6.9 52.25 L10.05 45.15 13.2 45.95 19.15 47.15 Q16.75 47.15 15.2 48.7 13.6 49.5 11.25 52.65 9.25 55.4 9.25 56.2 L8.85 57.4 8.85 58.55 8.45 58.55 Q6.5 57.0 4.9 56.2 L6.1 53.05 M21.5 48.3 Q23.85 48.3 25.85 49.1 L29.0 49.9 30.6 50.3 Q29.8 51.85 28.6 55.4 28.6 53.05 28.2 52.65 27.8 55.0 26.65 55.4 26.25 51.85 25.85 50.7 23.85 51.85 23.1 55.0 21.9 56.6 21.1 61.35 L20.7 58.15 Q19.9 51.1 20.3 47.9 21.1 47.9 21.5 48.3 M42.45 49.5 L49.55 49.5 52.7 49.5 Q52.3 50.3 52.3 51.1 L49.95 56.2 Q49.55 55.0 49.55 53.45 L47.95 51.1 Q47.15 51.85 46.75 55.8 45.2 59.75 43.6 62.1 43.2 58.95 43.2 57.0 42.45 51.45 42.45 49.5 M58.2 49.1 L65.75 48.3 67.3 47.9 Q68.9 50.7 70.45 57.0 L68.5 53.85 Q67.7 52.65 66.9 52.25 65.75 51.1 64.95 50.7 L64.55 52.65 63.75 51.45 63.35 51.45 Q62.55 51.1 62.55 50.7 L61.8 50.7 Q61.8 52.65 62.15 56.2 L61.4 56.2 57.85 49.1 58.2 49.1 M69.3 47.15 L71.25 46.75 75.6 45.95 81.15 55.4 82.3 57.8 Q79.95 59.35 77.2 61.35 75.2 56.2 74.4 53.05 72.45 48.7 69.3 47.15" fill="#7b299a" fill-rule="evenodd" stroke="none"/>
    <path d="M81.15 55.4 Q81.15 55.0 81.5 55.0 82.3 54.25 83.9 54.65 85.85 54.25 86.65 55.4 87.05 56.2 87.05 57.8 86.65 58.15 86.65 58.95 85.85 61.35 83.5 61.35 L83.5 61.7 Q83.5 62.9 82.7 63.7 81.5 65.25 80.35 65.25 L78.35 65.25 77.2 66.45 77.2 67.25 Q76.8 67.25 76.4 67.65 75.2 68.45 74.0 68.45 72.85 68.45 71.25 67.65 L70.05 67.25 68.1 69.2 64.55 70.0 60.2 69.6 Q60.2 69.2 58.2 68.45 57.45 69.6 55.85 70.0 53.5 71.2 51.9 71.6 49.95 71.2 48.75 70.4 47.15 69.6 46.4 68.8 45.2 69.6 44.0 70.0 42.45 70.8 41.25 70.8 39.65 70.8 38.5 70.0 37.3 69.6 36.1 68.8 L34.9 69.6 Q32.95 70.8 30.6 70.8 29.0 70.8 27.4 69.6 25.85 68.8 25.85 67.65 L25.45 67.65 Q24.25 68.45 23.45 68.45 20.7 68.45 19.15 67.65 16.75 66.85 15.95 64.9 14.0 65.65 12.0 65.65 10.05 65.65 8.05 64.1 6.1 62.9 5.7 61.35 L4.9 61.35 Q2.15 61.35 0.55 59.35 L0.15 58.15 -0.2 56.6 Q-0.2 55.0 0.55 54.65 L0.55 53.85 Q1.35 52.65 2.95 52.65 L5.7 52.65 6.1 53.05 4.9 56.2 Q6.5 57.0 8.45 58.55 L8.85 58.55 Q15.55 62.9 25.05 65.25 34.9 67.65 46.75 67.65 57.05 67.65 66.5 64.9 72.45 63.3 77.2 61.35 79.95 59.35 82.3 57.8 L81.15 55.4 M5.3 59.35 Q5.7 59.75 6.1 59.75 L5.7 59.35 5.3 59.35" fill="#f7b8ff" fill-rule="evenodd" stroke="none"/>
    <path d="M19.15 47.15 L21.5 47.55 21.5 48.3 Q21.1 47.9 20.3 47.9 19.9 51.1 20.7 58.15 L21.1 61.35 Q21.9 56.6 23.1 55.0 23.85 51.85 25.85 50.7 26.25 51.85 26.65 55.4 27.8 55.0 28.2 52.65 28.6 53.05 28.6 55.4 29.8 51.85 30.6 50.3 L29.0 49.9 29.4 48.7 42.45 49.5 Q42.45 51.45 43.2 57.0 43.2 58.95 43.6 62.1 45.2 59.75 46.75 55.8 47.15 51.85 47.95 51.1 L49.55 53.45 Q49.55 55.0 49.95 56.2 L52.3 51.1 Q52.3 50.3 52.7 49.5 L49.55 49.5 57.85 48.7 Q58.2 48.7 58.2 49.1 L57.85 49.1 61.4 56.2 62.15 56.2 Q61.8 52.65 61.8 50.7 L62.55 50.7 Q62.55 51.1 63.35 51.45 L63.75 51.45 64.55 52.65 64.95 50.7 Q65.75 51.1 66.9 52.25 67.7 52.65 68.5 53.85 L70.45 57.0 Q68.9 50.7 67.3 47.9 L65.75 48.3 65.35 47.9 69.3 47.15 Q72.45 48.7 74.4 53.05 75.2 56.2 77.2 61.35 72.45 63.3 66.5 64.9 57.05 67.65 46.75 67.65 34.9 67.65 25.05 65.25 15.55 62.9 8.85 58.55 L8.85 57.4 9.25 56.2 Q9.25 55.4 11.25 52.65 13.6 49.5 15.2 48.7 16.75 47.15 19.15 47.15 M16.75 52.65 L15.55 54.65 13.6 55.0 13.6 56.6 Q13.6 57.4 14.0 58.15 L14.4 58.55 Q17.55 60.55 19.15 61.35 L19.5 60.55 Q17.55 59.75 17.55 57.0 17.15 53.45 16.75 52.65 M35.3 55.0 L31.0 58.15 Q29.4 58.95 28.2 60.15 L27.8 61.35 27.4 61.7 Q28.2 63.7 32.55 64.1 L38.5 64.5 40.45 64.1 Q42.05 63.7 42.05 63.3 40.05 58.55 39.25 57.8 37.7 56.2 35.3 55.0 M64.95 57.0 Q64.55 57.0 62.95 58.15 61.4 58.95 60.6 58.95 L58.6 58.55 57.05 57.4 Q53.9 57.4 52.3 58.55 51.5 59.35 51.1 60.95 50.7 61.7 50.7 62.9 L51.9 63.7 53.9 64.1 63.35 63.3 Q71.65 61.7 71.65 60.15 71.65 58.95 70.85 58.95 69.3 58.95 68.9 58.55 65.35 57.0 64.95 57.0" fill="#9f43cb" fill-rule="evenodd" stroke="none"/>
    <path d="M35.3 55.0 Q37.7 56.2 39.25 57.8 40.05 58.55 42.05 63.3 42.05 63.7 40.45 64.1 L38.5 64.5 32.55 64.1 Q28.2 63.7 27.4 61.7 L27.8 61.35 28.2 60.15 Q29.4 58.95 31.0 58.15 L35.3 55.0 M16.75 52.65 Q17.15 53.45 17.55 57.0 17.55 59.75 19.5 60.55 L19.15 61.35 Q17.55 60.55 14.4 58.55 L14.0 58.15 Q13.6 57.4 13.6 56.6 L13.6 55.0 15.55 54.65 16.75 52.65 M64.95 57.0 Q65.35 57.0 68.9 58.55 69.3 58.95 70.85 58.95 71.65 58.95 71.65 60.15 71.65 61.7 63.35 63.3 L53.9 64.1 51.9 63.7 50.7 62.9 Q50.7 61.7 51.1 60.95 51.5 59.35 52.3 58.55 53.9 57.4 57.05 57.4 L58.6 58.55 60.6 58.95 Q61.4 58.95 62.95 58.15 64.55 57.0 64.95 57.0" fill="#c26de9" fill-rule="evenodd" stroke="none"/>
    <path d="M74.4 42.0 L75.6 45.95 Q68.5 49.5 55.85 50.7 43.6 52.25 35.3 51.1 27.05 50.3 18.35 48.3 9.25 46.35 10.05 45.15 L11.25 42.0 11.25 41.6 Q43.6 50.7 74.4 42.0" fill="#c26de9" fill-rule="evenodd" stroke="none"/>
    <path d="M15.55 30.2 Q16.35 29.0 17.95 22.3 19.9 15.2 20.7 13.2 L25.85 13.6 Q25.05 17.55 25.45 23.5 L26.25 31.35 Q40.05 35.7 58.2 31.35 59.4 27.0 59.8 22.3 L60.2 12.85 64.95 13.2 Q65.75 15.2 67.3 23.1 68.9 29.4 69.7 31.35 L68.1 31.75 Q66.5 32.15 65.75 32.55 63.35 33.75 62.55 33.75 L55.45 38.45 51.9 40.85 Q47.15 44.35 42.8 45.15 L42.8 45.55 Q34.9 44.35 32.15 40.45 28.6 36.5 26.65 36.1 25.05 35.3 23.85 34.5 L15.55 30.2" fill="#7b299a" fill-rule="evenodd" stroke="none"/>
    <path d="M15.55 30.2 L23.85 34.5 Q25.05 35.3 26.65 36.1 28.6 36.5 32.15 40.45 34.9 44.35 42.8 45.55 L42.8 45.15 Q47.15 44.35 51.9 40.85 L55.45 38.45 62.55 33.75 Q63.35 33.75 65.75 32.55 66.5 32.15 68.1 31.75 L69.7 31.35 Q72.05 36.1 74.8 39.25 L75.6 45.55 Q58.2 51.1 42.05 46.35 27.8 51.1 10.05 45.15 L10.05 39.65 Q12.4 36.5 15.55 30.2" fill="#af48e0" fill-rule="evenodd" stroke="none"/>
  </g>
</svg>
