<?xml version="1.0" encoding="UTF-8" standalone="no"?>
<svg xmlns:xlink="http://www.w3.org/1999/xlink" height="6.75px" width="9.2px" xmlns="http://www.w3.org/2000/svg">
  <g transform="matrix(1.0, 0.0, 0.0, 1.0, -9.1, -36.8)">
    <path d="M17.8 39.15 Q17.45 41.25 16.5 42.95 L15.8 43.05 14.9 42.55 Q14.5 42.15 14.45 41.7 L14.4 41.75 13.2 41.35 12.85 41.45 12.75 41.4 12.45 41.1 10.4 40.4 Q9.25 39.8 9.75 38.45 10.05 37.8 10.6 37.5 L11.95 37.3 13.65 37.85 14.2 37.7 14.45 38.15 15.6 38.5 15.65 38.45 17.25 38.75 17.8 39.15" fill="#7d23a8" fill-rule="evenodd" stroke="none"/>
    <path d="M17.8 39.15 Q17.45 41.25 16.5 42.95 L15.8 43.05 14.9 42.55 Q14.5 42.15 14.45 41.7 L14.4 41.75 13.2 41.35 12.85 41.45 12.75 41.4 12.45 41.1 10.4 40.4 Q9.25 39.8 9.75 38.45 10.05 37.8 10.6 37.5 L11.95 37.3 13.65 37.85 14.2 37.7 14.45 38.15 15.6 38.5 15.65 38.45 17.25 38.75 17.8 39.15 Z" fill="none" stroke="#283757" stroke-linecap="round" stroke-linejoin="round" stroke-width="1.0"/>
    <path d="M15.75 43.05 L14.95 42.55 Q14.5 42.15 14.5 41.55 L15.65 38.45 Q16.5 38.45 17.25 38.8 17.1 41.15 15.75 43.05 M15.65 42.2 L16.15 41.6 16.3 40.6 Q16.4 39.85 15.95 39.8 15.4 39.5 14.9 40.95 L14.8 41.65 15.0 42.3 15.05 42.35 15.65 42.2" fill="#3ebbeb" fill-rule="evenodd" stroke="none"/>
    <path d="M15.65 40.35 Q15.4 40.25 15.25 40.55 L15.0 40.95 15.0 41.05 14.95 41.2 15.0 41.6 15.1 41.9 15.65 41.35 15.75 40.8 15.65 40.35 M15.65 42.2 L15.05 42.35 15.0 42.3 14.8 41.65 14.9 40.95 Q15.4 39.5 15.95 39.8 16.4 39.85 16.3 40.6 L16.15 41.6 15.65 42.2" fill="#56d0ff" fill-rule="evenodd" stroke="none"/>
    <path d="M15.65 40.35 L15.75 40.8 15.65 41.35 15.1 41.9 15.0 41.6 14.95 41.2 15.0 41.05 15.0 40.95 15.25 40.55 Q15.4 40.25 15.65 40.35" fill="#7edbff" fill-rule="evenodd" stroke="none"/>
    <path d="M15.75 43.05 Q17.1 41.15 17.25 38.8 L17.8 39.15 Q17.45 41.3 16.5 42.95 L15.75 43.05" fill="#1e82a8" fill-rule="evenodd" stroke="none"/>
    <path d="M14.45 38.15 L15.65 38.55 15.65 39.0 15.3 40.2 14.8 41.2 14.4 41.75 13.2 41.35 13.5 41.05 13.6 40.85 14.2 39.2 14.45 38.15" fill="#3ebbeb" fill-rule="evenodd" stroke="none"/>
    <path d="M14.45 38.15 L14.2 39.2 13.6 40.85 13.5 41.05 13.2 41.35 12.85 41.45 12.75 41.4 12.45 41.1 12.7 40.55 13.5 38.4 13.65 37.85 14.2 37.7 14.45 38.15" fill="#b7b7b7" fill-rule="evenodd" stroke="none"/>
    <path d="M12.45 41.1 L10.4 40.4 12.7 40.55 12.45 41.1 M10.6 37.5 L11.95 37.3 13.65 37.85 13.5 38.4 10.6 37.5" fill="#aaaaaa" fill-rule="evenodd" stroke="none"/>
    <path d="M10.4 40.4 Q9.25 39.8 9.75 38.45 10.05 37.8 10.6 37.5 L13.5 38.4 12.7 40.55 10.4 40.4" fill="#c8c8c8" fill-rule="evenodd" stroke="none"/>
  </g>
</svg>
