<?xml version="1.0" encoding="UTF-8" standalone="no"?>
<svg xmlns:xlink="http://www.w3.org/1999/xlink" height="41.8px" width="245.1px" xmlns="http://www.w3.org/2000/svg">
  <g transform="matrix(1.0, 0.0, 0.0, 1.0, 0.0, 0.0)">
    <path d="M244.95 14.05 L245.1 15.15 Q245.1 16.2 244.35 17.1 243.55 18.05 242.4 18.4 242.3 17.65 241.75 17.15 241.15 16.6 240.35 16.6 239.05 16.6 237.9 18.5 236.15 21.4 235.9 24.1 L235.85 23.05 Q235.85 19.95 237.9 16.5 239.05 14.6 240.35 14.6 241.15 14.6 241.75 15.15 242.3 15.65 242.4 16.4 243.55 16.05 244.35 15.1 L244.95 14.05 M236.5 28.85 L237.25 29.8 Q235.85 32.15 233.55 32.15 230.55 32.15 230.55 28.05 L230.6 27.1 Q230.95 30.15 233.55 30.15 235.3 30.15 236.5 28.85 M231.0 18.3 Q230.9 14.35 230.2 13.05 L230.7 12.7 231.0 17.55 231.0 18.3 M236.25 11.45 L236.3 12.0 236.25 13.05 236.15 13.2 236.25 11.45 M227.45 27.45 L227.55 28.35 Q227.55 30.1 226.45 31.2 225.3 32.3 223.4 32.3 219.9 32.3 219.1 29.05 217.2 32.2 213.6 32.2 210.6 32.2 208.85 29.85 207.05 27.5 207.05 23.45 L207.1 22.5 Q207.3 25.8 208.85 27.85 210.6 30.2 213.6 30.2 217.2 30.2 219.1 27.05 219.9 30.3 223.4 30.3 225.3 30.3 226.45 29.2 227.2 28.45 227.45 27.45 M204.85 27.65 L205.0 28.6 Q205.0 30.1 203.65 31.1 202.3 32.1 200.3 32.1 198.95 32.1 198.1 31.45 197.3 30.75 197.3 29.65 L197.5 28.65 198.1 29.45 Q198.95 30.1 200.3 30.1 202.3 30.1 203.65 29.1 L204.85 27.65 M191.15 17.4 L191.15 18.2 191.05 21.7 191.05 19.65 191.15 17.4 M194.65 27.65 L195.15 27.2 195.2 27.5 Q195.2 29.4 193.8 30.75 192.35 32.1 190.3 32.1 185.6 32.1 185.6 25.1 L185.65 24.3 Q186.0 30.1 190.3 30.1 192.35 30.1 193.8 28.75 L194.65 27.65 M185.8 18.95 Q185.65 18.25 185.05 18.25 184.35 18.25 183.45 19.35 182.2 20.95 181.65 23.05 L181.15 25.7 181.0 27.1 181.0 26.95 180.95 25.8 181.15 23.7 181.65 21.0 Q182.2 18.95 183.45 17.35 184.35 16.25 185.05 16.25 185.85 16.25 185.85 17.6 L185.8 18.95 M181.0 27.3 L180.95 27.8 181.0 28.95 Q181.0 30.0 180.3 30.4 L178.8 31.1 176.85 31.65 Q175.7 31.65 175.7 30.25 L175.8 28.85 Q175.95 29.65 176.85 29.65 L178.8 29.1 180.3 28.4 Q180.85 28.05 181.0 27.3 M176.2 20.9 Q176.05 19.05 175.2 19.05 174.35 19.05 173.35 20.55 171.0 23.95 170.6 27.0 L170.5 26.3 Q170.5 22.65 173.35 18.55 174.35 17.05 175.2 17.05 176.2 17.05 176.2 19.65 L176.2 20.9 M170.5 28.3 L170.6 29.05 170.65 29.8 170.1 30.85 Q168.75 32.25 167.55 32.25 166.5 32.25 165.85 31.05 165.15 29.8 165.15 28.0 L165.2 26.75 Q165.3 28.05 165.85 29.05 166.5 30.25 167.55 30.25 168.75 30.25 170.1 28.85 L170.5 28.3 M165.45 18.55 L165.1 14.25 164.6 12.75 164.8 12.7 Q164.95 12.65 165.15 12.55 L165.45 18.05 165.45 18.55 M170.85 11.45 L170.9 12.15 170.7 14.65 170.5 16.8 170.4 16.95 170.4 16.75 Q170.4 15.25 170.7 12.65 L170.85 11.45 M160.55 20.8 L160.55 21.8 Q160.55 26.6 158.2 29.5 155.8 32.4 151.85 32.4 147.95 32.4 145.45 29.5 142.9 26.55 142.9 22.0 L142.95 21.0 Q143.2 24.9 145.45 27.5 147.95 30.4 151.85 30.4 155.8 30.4 158.2 27.5 160.3 24.9 160.55 20.8 M155.6 21.7 Q155.4 19.2 154.45 17.5 153.3 15.4 151.65 15.4 150.1 15.4 149.2 16.95 148.45 18.15 148.35 20.1 L148.3 19.0 Q148.3 16.45 149.2 14.95 150.1 13.4 151.65 13.4 153.3 13.4 154.45 15.5 155.6 17.55 155.6 20.6 L155.6 21.7 M140.2 14.4 L140.3 15.4 Q140.3 16.85 139.55 17.8 138.7 18.75 137.5 18.75 L136.65 18.6 136.7 18.25 Q136.7 17.1 136.05 16.3 135.3 15.45 134.4 15.45 132.85 15.45 131.8 17.35 131.0 18.85 130.85 20.95 L130.8 19.95 Q130.8 17.2 131.8 15.35 132.85 13.45 134.4 13.45 135.3 13.45 136.05 14.3 136.7 15.1 136.7 16.25 L136.65 16.6 137.5 16.75 Q138.7 16.75 139.55 15.8 L140.2 14.4 M140.95 25.7 L141.05 26.5 Q141.05 29.0 139.05 30.65 137.0 32.35 134.05 32.35 130.1 32.35 127.9 29.7 125.65 27.1 125.65 22.5 L125.7 21.45 Q125.9 25.4 127.9 27.7 130.1 30.35 134.05 30.35 137.0 30.35 139.05 28.65 140.55 27.4 140.95 25.7 M124.0 27.85 L124.15 28.8 Q124.15 30.3 122.8 31.3 121.45 32.3 119.45 32.3 118.1 32.3 117.25 31.65 116.45 30.95 116.45 29.85 L116.65 28.85 117.25 29.65 Q118.1 30.3 119.45 30.3 121.45 30.3 122.8 29.3 L124.0 27.85 M112.8 13.5 L113.05 14.6 Q113.05 15.35 112.1 16.45 L111.3 17.35 Q110.65 16.15 109.15 15.4 107.7 14.6 106.25 14.6 105.0 14.6 104.45 15.1 L104.25 14.9 104.0 14.2 Q104.0 12.6 106.25 12.6 107.7 12.6 109.15 13.4 110.65 14.15 111.3 15.35 L112.1 14.45 112.8 13.5 M113.2 25.45 L113.25 26.4 Q113.25 29.25 111.25 30.95 109.25 32.7 105.95 32.7 102.25 32.7 98.9 30.55 L97.4 29.65 97.3 29.6 98.45 28.3 98.9 28.55 Q102.25 30.7 105.95 30.7 109.25 30.7 111.25 28.95 112.85 27.55 113.2 25.45 M107.3 25.7 L106.65 24.95 Q106.4 24.7 104.95 23.8 L102.1 21.95 Q98.5 19.6 98.5 16.5 L98.6 15.5 Q99.1 18.0 102.1 19.9 L104.95 21.8 Q106.4 22.7 106.65 22.95 107.6 23.75 107.6 24.65 L107.3 25.7 M95.9 20.8 L95.9 21.8 Q95.9 26.6 93.55 29.5 91.15 32.4 87.2 32.4 83.3 32.4 80.8 29.5 78.25 26.55 78.25 22.0 L78.3 21.0 Q78.55 24.9 80.8 27.5 83.3 30.4 87.2 30.4 91.15 30.4 93.55 27.5 95.65 24.9 95.9 20.8 M83.7 20.1 L83.65 19.0 Q83.65 16.45 84.55 14.95 85.45 13.4 87.0 13.4 88.65 13.4 89.8 15.5 90.95 17.55 90.95 20.6 L90.95 21.7 Q90.75 19.2 89.8 17.5 88.65 15.4 87.0 15.4 85.45 15.4 84.55 16.95 83.8 18.15 83.7 20.1 M73.5 15.8 L73.6 16.25 73.45 16.25 73.3 16.3 73.5 15.8 M74.8 18.35 Q75.1 18.55 75.1 19.0 L74.65 20.85 74.3 22.7 Q74.1 24.45 74.05 26.6 L74.05 26.3 74.05 25.7 Q74.05 22.9 74.3 20.65 L74.65 18.85 74.8 18.35 M74.1 32.35 L74.1 32.95 73.95 36.6 Q73.65 38.65 72.6 39.95 71.15 41.8 68.05 41.8 64.75 41.8 62.75 39.5 L61.8 38.35 61.5 38.15 62.7 37.4 62.75 37.5 Q64.75 39.8 68.05 39.8 71.15 39.8 72.6 37.95 73.65 36.65 73.95 34.6 L74.1 32.35 M69.4 30.15 Q67.3 32.0 64.8 32.0 62.2 32.0 60.45 29.5 58.7 26.95 58.7 23.2 L58.75 22.2 Q58.95 25.3 60.45 27.5 62.2 30.0 64.8 30.0 67.3 30.0 69.4 28.15 L69.4 28.6 69.4 30.0 69.4 30.15 M63.6 21.9 L63.55 20.8 Q63.55 17.8 64.8 15.55 66.0 13.35 67.65 13.35 68.35 13.35 68.8 14.0 69.3 14.65 69.3 15.7 69.3 17.0 69.7 17.25 L70.1 17.4 Q69.7 17.7 69.55 19.05 69.3 18.65 69.3 17.7 69.3 16.65 68.8 16.0 68.35 15.35 67.65 15.35 66.0 15.35 64.8 17.55 63.75 19.45 63.6 21.9 M55.45 15.2 L55.5 16.25 Q55.5 18.85 53.35 21.05 51.4 23.15 48.4 24.1 48.0 23.3 47.85 22.25 51.25 21.25 53.35 19.05 55.1 17.25 55.45 15.2 M56.9 25.8 L57.0 26.8 Q57.0 28.95 55.0 30.6 52.95 32.25 50.25 32.25 46.65 32.25 44.35 29.25 42.05 26.3 42.05 21.65 L42.1 20.6 Q42.3 24.6 44.35 27.25 46.65 30.25 50.25 30.25 52.95 30.25 55.0 28.6 56.5 27.35 56.9 25.8 M51.15 15.85 Q50.8 14.9 49.7 14.9 48.65 14.9 47.85 16.15 47.35 17.0 47.2 18.1 L47.1 17.15 Q47.1 15.4 47.85 14.15 48.65 12.9 49.7 12.9 51.3 12.9 51.3 14.8 L51.15 15.85 M38.4 12.75 L38.55 13.45 38.15 15.9 Q37.5 19.4 37.4 22.45 L37.35 21.55 Q37.35 18.1 38.15 13.9 L38.4 12.75 M40.25 27.45 L40.35 28.3 Q40.35 29.85 39.45 30.85 38.5 31.85 37.05 31.85 34.35 31.85 33.1 28.3 30.4 31.95 27.25 31.95 24.9 31.95 23.5 30.3 22.05 28.65 22.05 26.0 L22.1 24.75 Q22.25 26.9 23.5 28.3 24.9 29.95 27.25 29.95 30.4 29.95 33.1 26.3 34.35 29.85 37.05 29.85 38.5 29.85 39.45 28.85 L40.25 27.45 M22.45 17.25 Q22.35 15.4 21.85 13.9 L21.75 13.75 22.2 13.25 22.45 16.2 22.45 17.25 M28.0 12.1 L28.05 12.9 27.8 15.4 27.5 18.45 27.4 19.4 27.25 22.25 27.2 21.4 27.4 17.4 27.5 16.45 27.8 13.4 28.0 12.1 M32.5 16.7 L32.45 16.05 32.35 15.0 32.2 14.65 32.45 14.5 32.5 14.5 32.5 15.55 32.5 16.7 M17.35 2.95 L17.35 3.3 17.25 7.5 17.25 7.85 17.15 11.1 17.15 10.4 17.2 7.5 17.25 5.85 17.35 2.95 M17.45 23.2 L17.45 24.6 Q17.45 27.45 16.3 29.25 15.4 30.65 13.5 31.55 11.55 32.4 9.4 32.4 4.4 32.4 1.25 29.0 L0.2 28.0 0.0 27.95 1.45 27.2 Q4.55 30.4 9.4 30.4 11.55 30.4 13.5 29.55 15.4 28.65 16.3 27.25 17.35 25.65 17.45 23.2 M12.15 16.3 L11.8 8.2 11.75 7.5 Q11.5 4.85 11.1 3.5 L11.5 3.5 11.8 6.2 11.9 7.5 12.15 16.3" fill="#86111a" fill-rule="evenodd" stroke="none"/>
    <path d="M235.9 24.1 L236.25 26.05 Q236.65 27.5 237.25 27.8 L236.5 28.85 Q235.3 30.15 233.55 30.15 230.95 30.15 230.6 27.1 L230.55 26.05 230.85 20.8 231.0 18.3 231.0 17.55 230.7 12.7 230.2 11.05 231.6 10.05 Q233.6 8.55 235.0 8.55 236.3 8.55 236.3 10.0 L236.25 11.45 236.15 13.2 236.25 13.05 Q237.3 11.55 238.8 10.55 240.35 9.5 241.65 9.5 243.1 9.5 244.1 10.55 245.1 11.6 245.1 13.15 L244.95 14.05 244.35 15.1 Q243.55 16.05 242.4 16.4 242.3 15.65 241.75 15.15 241.15 14.6 240.35 14.6 239.05 14.6 237.9 16.5 235.85 19.95 235.85 23.05 L235.9 24.1" fill="url(#gradient0)" fill-rule="evenodd" stroke="none"/>
    <path d="M207.1 22.5 L207.05 21.4 Q207.05 17.55 208.8 14.55 L210.1 12.65 211.65 11.05 Q214.15 8.85 217.25 8.85 220.85 8.85 222.45 12.1 223.35 14.0 223.35 15.1 L223.15 15.85 222.8 16.35 223.0 16.3 223.6 16.3 Q224.7 16.3 224.7 17.0 L224.6 17.6 224.4 18.45 Q223.85 20.5 223.85 22.15 L223.9 23.15 Q224.2 25.65 226.05 25.65 226.65 25.65 227.3 25.15 L227.55 26.35 227.45 27.45 Q227.2 28.45 226.45 29.2 225.3 30.3 223.4 30.3 219.9 30.3 219.1 27.05 217.2 30.2 213.6 30.2 210.6 30.2 208.85 27.85 207.3 25.8 207.1 22.5 M217.75 15.95 Q217.75 14.0 216.5 14.0 215.15 14.0 214.15 16.15 213.15 18.35 213.15 21.3 L213.2 22.3 Q213.4 25.0 215.1 25.0 216.05 25.0 216.8 23.65 217.55 22.25 217.75 20.0 L217.85 19.3 Q218.1 17.85 218.45 17.6 217.75 17.55 217.75 16.8 L217.75 15.95" fill="url(#gradient1)" fill-rule="evenodd" stroke="none"/>
    <path d="M204.85 27.65 L203.65 29.1 Q202.3 30.1 200.3 30.1 198.95 30.1 198.1 29.45 L197.5 28.65 197.3 27.65 Q197.3 26.3 198.7 25.25 200.15 24.2 202.0 24.2 203.35 24.2 204.2 24.85 205.0 25.5 205.0 26.6 L204.85 27.65" fill="url(#gradient2)" fill-rule="evenodd" stroke="none"/>
    <path d="M170.5 16.8 Q173.75 11.35 177.2 11.35 179.85 11.35 180.65 15.4 L180.7 15.65 Q181.4 14.2 183.35 12.2 184.85 10.7 187.2 10.7 191.15 10.7 191.15 16.2 L191.15 17.4 191.05 19.65 191.05 21.7 191.05 22.15 191.05 22.7 191.15 24.45 Q191.4 26.2 192.95 26.2 194.25 26.2 195.15 25.2 L195.2 25.5 Q195.2 26.7 194.65 27.65 L193.8 28.75 Q192.35 30.1 190.3 30.1 186.0 30.1 185.65 24.3 L185.6 23.1 185.8 18.95 185.85 17.6 Q185.85 16.25 185.05 16.25 184.35 16.25 183.45 17.35 182.2 18.95 181.65 21.0 L181.15 23.7 180.95 25.8 181.0 26.95 181.0 27.1 181.0 27.3 Q180.85 28.05 180.3 28.4 L178.8 29.1 176.85 29.65 Q175.95 29.65 175.8 28.85 L175.7 28.25 175.85 25.9 176.2 20.9 176.2 19.65 Q176.2 17.05 175.2 17.05 174.35 17.05 173.35 18.55 170.5 22.65 170.5 26.3 L170.6 27.0 170.6 27.05 170.65 27.8 170.5 28.3 170.1 28.85 Q168.75 30.25 167.55 30.25 166.5 30.25 165.85 29.05 165.3 28.05 165.2 26.75 L165.15 26.0 165.3 22.95 165.45 19.55 165.45 18.55 165.45 18.05 165.15 12.55 165.1 12.25 164.6 10.75 164.8 10.7 166.55 9.5 Q168.1 8.35 169.45 8.35 170.9 8.35 170.9 10.15 L170.85 11.45 170.7 12.65 Q170.4 15.25 170.4 16.75 L170.4 16.95 170.5 16.8" fill="url(#gradient3)" fill-rule="evenodd" stroke="none"/>
    <path d="M142.95 21.0 L142.9 19.95 Q142.9 17.4 143.95 15.05 145.0 12.7 146.5 11.95 L146.1 10.85 Q146.85 10.0 148.45 9.35 150.1 8.7 151.55 8.7 155.45 8.7 158.0 11.85 160.55 14.95 160.55 19.75 L160.55 20.8 Q160.3 24.9 158.2 27.5 155.8 30.4 151.85 30.4 147.95 30.4 145.45 27.5 143.2 24.9 142.95 21.0 M148.35 20.1 Q148.5 22.6 149.4 24.2 150.55 26.15 152.3 26.15 155.3 26.15 155.6 21.7 L155.6 20.6 Q155.6 17.55 154.45 15.5 153.3 13.4 151.65 13.4 150.1 13.4 149.2 14.95 148.3 16.45 148.3 19.0 L148.35 20.1" fill="url(#gradient4)" fill-rule="evenodd" stroke="none"/>
    <path d="M125.7 21.45 L125.65 20.45 Q125.65 15.45 128.3 12.05 130.95 8.65 134.8 8.65 137.15 8.65 138.75 10.0 140.3 11.4 140.3 13.4 L140.2 14.4 139.55 15.8 Q138.7 16.75 137.5 16.75 L136.65 16.6 136.7 16.25 Q136.7 15.1 136.05 14.3 135.3 13.45 134.4 13.45 132.85 13.45 131.8 15.35 130.8 17.2 130.8 19.95 L130.85 20.95 Q131.0 23.15 131.9 24.5 133.0 26.1 134.9 26.1 136.5 26.1 138.1 25.15 139.7 24.15 140.35 22.75 141.05 23.4 141.05 24.5 L140.95 25.7 Q140.55 27.4 139.05 28.65 137.0 30.35 134.05 30.35 130.1 30.35 127.9 27.7 125.9 25.4 125.7 21.45" fill="url(#gradient5)" fill-rule="evenodd" stroke="none"/>
    <path d="M116.65 28.85 L116.45 27.85 Q116.45 26.5 117.85 25.45 119.3 24.4 121.15 24.4 122.5 24.4 123.35 25.05 124.15 25.7 124.15 26.8 L124.0 27.85 122.8 29.3 Q121.45 30.3 119.45 30.3 118.1 30.3 117.25 29.65 L116.65 28.85" fill="url(#gradient6)" fill-rule="evenodd" stroke="none"/>
    <path d="M98.6 15.5 L98.5 14.5 Q98.5 12.1 100.6 10.5 102.7 8.95 105.95 8.95 109.0 8.95 111.05 10.0 113.05 11.0 113.05 12.6 L112.8 13.5 112.1 14.45 111.3 15.35 Q110.65 14.15 109.15 13.4 107.7 12.6 106.25 12.6 104.0 12.6 104.0 14.2 L104.25 14.9 104.45 15.1 108.75 18.1 Q111.0 19.5 112.0 20.75 113.25 22.35 113.25 24.4 L113.2 25.45 Q112.85 27.55 111.25 28.95 109.25 30.7 105.95 30.7 102.25 30.7 98.9 28.55 L98.45 28.3 97.4 27.65 97.3 27.6 97.4 27.5 98.65 26.05 Q99.55 25.05 100.6 25.05 L101.5 25.25 102.8 25.9 Q104.1 26.5 105.5 26.5 106.4 26.5 107.0 26.0 L107.3 25.7 107.6 24.65 Q107.6 23.75 106.65 22.95 106.4 22.7 104.95 21.8 L102.1 19.9 Q99.1 18.0 98.6 15.5" fill="url(#gradient7)" fill-rule="evenodd" stroke="none"/>
    <path d="M78.3 21.0 L78.25 19.95 Q78.25 17.4 79.3 15.05 80.35 12.7 81.85 11.95 L81.45 10.85 Q82.2 10.0 83.8 9.35 85.45 8.7 86.9 8.7 90.8 8.7 93.35 11.85 95.9 14.95 95.9 19.75 L95.9 20.8 Q95.65 24.9 93.55 27.5 91.15 30.4 87.2 30.4 83.3 30.4 80.8 27.5 78.55 24.9 78.3 21.0 M90.95 21.7 L90.95 20.6 Q90.95 17.55 89.8 15.5 88.65 13.4 87.0 13.4 85.45 13.4 84.55 14.95 83.65 16.45 83.65 19.0 L83.7 20.1 Q83.85 22.6 84.75 24.2 85.9 26.15 87.65 26.15 90.65 26.15 90.95 21.7" fill="url(#gradient8)" fill-rule="evenodd" stroke="none"/>
    <path d="M58.75 22.2 L58.7 21.15 Q58.7 16.15 61.5 12.45 64.25 8.7 67.9 8.7 69.8 8.7 71.0 9.7 72.0 10.5 72.85 12.15 73.65 13.75 73.65 14.95 L73.5 15.8 73.3 16.3 73.45 16.25 73.6 16.25 74.25 16.2 Q75.1 16.2 75.1 17.0 L74.8 18.35 74.65 18.85 74.3 20.65 Q74.05 22.9 74.05 25.7 L74.05 26.3 74.05 26.6 74.05 27.7 74.05 28.25 74.05 28.3 74.1 29.7 74.1 30.95 74.1 31.55 74.1 32.35 73.95 34.6 Q73.65 36.65 72.6 37.95 71.15 39.8 68.05 39.8 64.75 39.8 62.75 37.5 L62.7 37.4 61.8 36.35 61.5 36.15 63.15 35.15 Q64.05 34.65 64.7 34.65 L66.35 35.05 67.4 35.25 Q69.3 35.25 69.4 31.6 L69.4 31.2 69.4 30.6 69.4 30.15 69.4 30.0 69.4 28.6 69.4 28.15 Q67.3 30.0 64.8 30.0 62.2 30.0 60.45 27.5 58.95 25.3 58.75 22.2 M69.55 19.05 Q69.7 17.7 70.1 17.4 L69.7 17.25 Q69.3 17.0 69.3 15.7 69.3 14.65 68.8 14.0 68.35 13.35 67.65 13.35 66.0 13.35 64.8 15.55 63.55 17.8 63.55 20.8 L63.6 21.9 Q63.85 25.55 66.15 25.55 68.8 25.55 69.4 20.0 L69.55 19.05" fill="url(#gradient9)" fill-rule="evenodd" stroke="none"/>
    <path d="M42.1 20.6 L42.05 19.6 Q42.05 14.95 44.4 11.7 46.7 8.45 50.0 8.45 52.35 8.45 53.95 10.1 55.5 11.75 55.5 14.25 L55.45 15.2 Q55.1 17.25 53.35 19.05 51.25 21.25 47.85 22.25 48.0 23.3 48.4 24.1 49.3 26.1 51.5 26.1 52.85 26.1 54.3 25.3 55.75 24.45 56.65 23.2 57.0 23.85 57.0 24.8 L56.9 25.8 Q56.5 27.35 55.0 28.6 52.95 30.25 50.25 30.25 46.65 30.25 44.35 27.25 42.3 24.6 42.1 20.6 M51.15 15.85 L51.3 14.8 Q51.3 12.9 49.7 12.9 48.65 12.9 47.85 14.15 47.1 15.4 47.1 17.15 L47.2 18.1 47.3 18.8 Q50.55 17.9 51.15 15.85" fill="url(#gradient10)" fill-rule="evenodd" stroke="none"/>
    <path d="M32.5 14.5 L32.45 14.05 32.35 13.0 32.2 12.65 32.45 12.5 32.75 12.35 34.9 11.1 Q36.2 10.25 37.35 10.25 38.55 10.25 38.55 11.45 L38.4 12.75 38.15 13.9 Q37.35 18.1 37.35 21.55 L37.4 22.45 Q37.55 25.65 39.2 25.65 L40.25 25.4 40.35 26.3 40.25 27.4 40.25 27.45 39.45 28.85 Q38.5 29.85 37.05 29.85 34.35 29.85 33.1 26.3 30.4 29.95 27.25 29.95 24.9 29.95 23.5 28.3 22.25 26.9 22.1 24.75 L22.05 24.0 22.2 20.95 22.45 17.25 22.45 16.2 22.2 13.25 21.85 11.9 21.75 11.75 Q21.75 11.4 22.9 10.9 L24.75 9.7 Q25.8 8.9 26.6 8.9 28.05 8.9 28.05 10.9 L28.0 12.1 27.8 13.4 27.5 16.45 27.4 17.4 27.2 21.4 27.25 22.25 Q27.4 25.0 28.85 25.0 30.3 25.0 31.4 22.15 32.3 19.7 32.5 16.7 L32.5 15.55 32.5 14.5" fill="url(#gradient11)" fill-rule="evenodd" stroke="none"/>
    <path d="M11.5 3.5 L11.1 1.5 13.75 0.9 15.05 0.3 16.35 0.0 Q17.35 0.0 17.35 1.3 L17.35 2.95 17.25 5.85 17.2 7.5 17.15 10.4 17.15 11.1 17.15 11.75 17.15 12.4 17.2 14.1 17.35 18.35 17.45 22.6 17.45 23.2 Q17.35 25.65 16.3 27.25 15.4 28.65 13.5 29.55 11.55 30.4 9.4 30.4 4.55 30.4 1.45 27.2 L1.25 27.0 0.2 26.0 0.0 25.95 1.65 25.05 Q2.95 24.15 4.0 24.15 4.75 24.15 6.05 24.9 7.7 25.85 9.1 25.85 10.75 25.85 11.4 24.7 12.1 23.55 12.15 20.7 L12.15 18.3 12.15 16.6 12.15 16.3 11.9 7.5 11.8 6.2 11.5 3.5" fill="url(#gradient12)" fill-rule="evenodd" stroke="none"/>
  </g>
  <defs>
    <linearGradient gradientTransform="matrix(0.0, 0.0091, -0.0132, 0.0, 237.65, 19.3)" gradientUnits="userSpaceOnUse" id="gradient0" spreadMethod="pad" x1="-819.2" x2="819.2">
      <stop offset="0.3607843137254902" stop-color="#ffffff"/>
      <stop offset="0.5725490196078431" stop-color="#d8e4e4"/>
    </linearGradient>
    <linearGradient gradientTransform="matrix(0.0, 0.0125, -0.0131, 0.0, 217.3, 19.55)" gradientUnits="userSpaceOnUse" id="gradient1" spreadMethod="pad" x1="-819.2" x2="819.2">
      <stop offset="0.0" stop-color="#ffffff"/>
      <stop offset="1.0" stop-color="#d8e4e4"/>
    </linearGradient>
    <linearGradient gradientTransform="matrix(0.0, 0.0047, -0.0036, 0.0, 201.15, 27.15)" gradientUnits="userSpaceOnUse" id="gradient2" spreadMethod="pad" x1="-819.2" x2="819.2">
      <stop offset="0.3607843137254902" stop-color="#ffffff"/>
      <stop offset="0.5725490196078431" stop-color="#d8e4e4"/>
    </linearGradient>
    <linearGradient gradientTransform="matrix(0.0, 0.0187, -0.0133, 0.0, 179.95, 19.3)" gradientUnits="userSpaceOnUse" id="gradient3" spreadMethod="pad" x1="-819.2" x2="819.2">
      <stop offset="0.3607843137254902" stop-color="#ffffff"/>
      <stop offset="0.5725490196078431" stop-color="#d8e4e4"/>
    </linearGradient>
    <linearGradient gradientTransform="matrix(0.0, 0.0108, -0.0132, 0.0, 151.7, 19.5)" gradientUnits="userSpaceOnUse" id="gradient4" spreadMethod="pad" x1="-819.2" x2="819.2">
      <stop offset="0.3607843137254902" stop-color="#ffffff"/>
      <stop offset="0.5725490196078431" stop-color="#d8e4e4"/>
    </linearGradient>
    <linearGradient gradientTransform="matrix(0.0, 0.0094, -0.0132, 0.0, 133.4, 19.5)" gradientUnits="userSpaceOnUse" id="gradient5" spreadMethod="pad" x1="-819.2" x2="819.2">
      <stop offset="0.3607843137254902" stop-color="#ffffff"/>
      <stop offset="0.5725490196078431" stop-color="#d8e4e4"/>
    </linearGradient>
    <linearGradient gradientTransform="matrix(0.0, 0.0047, -0.0036, 0.0, 120.3, 27.35)" gradientUnits="userSpaceOnUse" id="gradient6" spreadMethod="pad" x1="-819.2" x2="819.2">
      <stop offset="0.3607843137254902" stop-color="#ffffff"/>
      <stop offset="0.5725490196078431" stop-color="#d8e4e4"/>
    </linearGradient>
    <linearGradient gradientTransform="matrix(0.0, 0.0098, -0.0132, 0.0, 105.25, 19.8)" gradientUnits="userSpaceOnUse" id="gradient7" spreadMethod="pad" x1="-819.2" x2="819.2">
      <stop offset="0.3607843137254902" stop-color="#ffffff"/>
      <stop offset="0.5725490196078431" stop-color="#d8e4e4"/>
    </linearGradient>
    <linearGradient gradientTransform="matrix(0.0, 0.0108, -0.0132, 0.0, 87.05, 19.5)" gradientUnits="userSpaceOnUse" id="gradient8" spreadMethod="pad" x1="-819.2" x2="819.2">
      <stop offset="0.3607843137254902" stop-color="#ffffff"/>
      <stop offset="0.5725490196078431" stop-color="#d8e4e4"/>
    </linearGradient>
    <linearGradient gradientTransform="matrix(0.0, 0.01, -0.019, 0.0, 66.9, 24.25)" gradientUnits="userSpaceOnUse" id="gradient9" spreadMethod="pad" x1="-819.2" x2="819.2">
      <stop offset="0.3607843137254902" stop-color="#ffffff"/>
      <stop offset="0.5725490196078431" stop-color="#d8e4e4"/>
    </linearGradient>
    <linearGradient gradientTransform="matrix(0.0, 0.0091, -0.0133, 0.0, 49.55, 19.45)" gradientUnits="userSpaceOnUse" id="gradient10" spreadMethod="pad" x1="-819.2" x2="819.2">
      <stop offset="0.3607843137254902" stop-color="#ffffff"/>
      <stop offset="0.5725490196078431" stop-color="#d8e4e4"/>
    </linearGradient>
    <linearGradient gradientTransform="matrix(0.0, 0.0114, -0.0128, 0.0, 31.05, 19.4)" gradientUnits="userSpaceOnUse" id="gradient11" spreadMethod="pad" x1="-819.2" x2="819.2">
      <stop offset="0.3607843137254902" stop-color="#ffffff"/>
      <stop offset="0.5725490196078431" stop-color="#d8e4e4"/>
    </linearGradient>
    <linearGradient gradientTransform="matrix(0.0, 0.0107, -0.0185, 0.0, 8.75, 15.2)" gradientUnits="userSpaceOnUse" id="gradient12" spreadMethod="pad" x1="-819.2" x2="819.2">
      <stop offset="0.3607843137254902" stop-color="#ffffff"/>
      <stop offset="0.5725490196078431" stop-color="#d8e4e4"/>
    </linearGradient>
  </defs>
</svg>
