<?xml version="1.0" encoding="UTF-8" standalone="no"?>
<svg xmlns:xlink="http://www.w3.org/1999/xlink" height="514.0px" width="701.9px" xmlns="http://www.w3.org/2000/svg">
  <g transform="matrix(1.0, 0.0, 0.0, 1.0, 1.5, 1.5)">
    <path d="M169.7 6.0 L169.7 502.95 8.9 502.95 8.9 6.0 169.7 6.0" fill="#81dbf7" fill-rule="evenodd" stroke="none"/>
    <path d="M169.7 6.0 L169.7 502.95 8.9 502.95 8.9 6.0 169.7 6.0 Z" fill="none" stroke="#0d6493" stroke-linecap="round" stroke-linejoin="round" stroke-width="2.0"/>
    <path d="M697.75 10.6 L0.0 10.6 0.0 1.7 697.75 1.7 697.75 10.6" fill="url(#gradient0)" fill-rule="evenodd" stroke="none"/>
    <path d="M697.75 10.6 L0.0 10.6 0.0 1.7 697.75 1.7 697.75 10.6 Z" fill="none" stroke="#00395f" stroke-linecap="round" stroke-linejoin="round" stroke-width="3.0"/>
    <path d="M0.0 4.25 L0.0 1.7 697.75 1.7 697.75 4.25 0.0 4.25 M697.75 8.35 L697.75 10.6 0.0 10.6 0.0 8.35 697.75 8.35" fill="url(#gradient1)" fill-rule="evenodd" stroke="none"/>
    <path d="M697.75 4.25 L697.75 8.35 0.0 8.35 0.0 4.25 697.75 4.25" fill="url(#gradient2)" fill-rule="evenodd" stroke="none"/>
    <path d="M16.0 0.0 L16.0 510.0 0.0 510.0 0.0 0.0 16.0 0.0" fill="url(#gradient3)" fill-rule="evenodd" stroke="none"/>
    <path d="M16.0 0.0 L16.0 510.0 0.0 510.0 0.0 0.0 16.0 0.0 Z" fill="none" stroke="#00395f" stroke-linecap="round" stroke-linejoin="round" stroke-width="3.0"/>
    <path d="M11.3 510.0 L4.0 510.0 4.0 0.0 11.3 0.0 11.3 510.0" fill="#18b7e2" fill-rule="evenodd" stroke="none"/>
    <path d="M11.3 0.0 L16.0 0.0 16.0 510.0 11.3 510.0 11.3 0.0 M4.0 510.0 L0.0 510.0 0.0 0.0 4.0 0.0 4.0 510.0" fill="#0084ad" fill-rule="evenodd" stroke="none"/>
    <path d="M697.75 509.85 L0.0 509.85 0.0 491.75 697.75 491.75 697.75 509.85" fill="url(#gradient4)" fill-rule="evenodd" stroke="none"/>
    <path d="M697.75 509.85 L0.0 509.85 0.0 491.75 697.75 491.75 697.75 509.85 Z" fill="none" stroke="#00395f" stroke-linecap="round" stroke-linejoin="round" stroke-width="3.0"/>
    <path d="M697.75 505.25 L697.75 509.85 0.0 509.85 0.0 505.25 697.75 505.25 M0.0 497.0 L0.0 491.75 697.75 491.75 697.75 497.0 0.0 497.0" fill="#0084ad" fill-rule="evenodd" stroke="none"/>
    <path d="M697.75 497.0 L697.75 505.25 0.0 505.25 0.0 497.0 697.75 497.0" fill="#18b7e2" fill-rule="evenodd" stroke="none"/>
    <path d="M698.9 1.0 L698.9 511.0 690.85 511.0 690.85 1.0 698.9 1.0" fill="url(#gradient5)" fill-rule="evenodd" stroke="none"/>
    <path d="M698.9 1.0 L698.9 511.0 690.85 511.0 690.85 1.0 698.9 1.0 Z" fill="none" stroke="#00395f" stroke-linecap="round" stroke-linejoin="round" stroke-width="3.0"/>
    <path d="M696.55 1.0 L698.9 1.0 698.9 511.0 696.55 511.0 696.55 1.0 M692.85 511.0 L690.85 511.0 690.85 1.0 692.85 1.0 692.85 511.0" fill="url(#gradient6)" fill-rule="evenodd" stroke="none"/>
    <path d="M692.85 1.0 L696.55 1.0 696.55 511.0 692.85 511.0 692.85 1.0" fill="url(#gradient7)" fill-rule="evenodd" stroke="none"/>
  </g>
  <defs>
    <linearGradient gradientTransform="matrix(0.4242, 0.0, 0.0, 0.1206, 346.2, 6.05)" gradientUnits="userSpaceOnUse" id="gradient0" spreadMethod="pad" x1="-819.2" x2="819.2">
      <stop offset="0.0" stop-color="#a3daff"/>
      <stop offset="1.0" stop-color="#2093e0"/>
    </linearGradient>
    <linearGradient gradientTransform="matrix(0.4191, 0.0, -3.0E-4, 0.1206, 346.2, 12.25)" gradientUnits="userSpaceOnUse" id="gradient1" spreadMethod="pad" x1="-819.2" x2="819.2">
      <stop offset="0.0" stop-color="#3193d7"/>
      <stop offset="1.0" stop-color="#08629f"/>
    </linearGradient>
    <linearGradient gradientTransform="matrix(0.4242, 0.0, 0.0, 0.1206, 346.2, 6.05)" gradientUnits="userSpaceOnUse" id="gradient2" spreadMethod="pad" x1="-819.2" x2="819.2">
      <stop offset="0.0" stop-color="#a3daff"/>
      <stop offset="1.0" stop-color="#2093e0"/>
    </linearGradient>
    <linearGradient gradientTransform="matrix(0.0, 0.3101, -0.2165, 0.0, 8.2, 253.05)" gradientUnits="userSpaceOnUse" id="gradient3" spreadMethod="pad" x1="-819.2" x2="819.2">
      <stop offset="0.0" stop-color="#a3daff"/>
      <stop offset="1.0" stop-color="#2093e0"/>
    </linearGradient>
    <linearGradient gradientTransform="matrix(0.4242, 0.0, 0.0, 0.2453, 346.2, 500.55)" gradientUnits="userSpaceOnUse" id="gradient4" spreadMethod="pad" x1="-819.2" x2="819.2">
      <stop offset="0.0" stop-color="#a3daff"/>
      <stop offset="1.0" stop-color="#2093e0"/>
    </linearGradient>
    <linearGradient gradientTransform="matrix(0.0, 0.3101, -0.1092, 0.0, 694.95, 254.05)" gradientUnits="userSpaceOnUse" id="gradient5" spreadMethod="pad" x1="-819.2" x2="819.2">
      <stop offset="0.0" stop-color="#a3daff"/>
      <stop offset="1.0" stop-color="#2093e0"/>
    </linearGradient>
    <linearGradient gradientTransform="matrix(0.0, 0.3063, -0.1092, -2.0E-4, 689.35, 254.05)" gradientUnits="userSpaceOnUse" id="gradient6" spreadMethod="pad" x1="-819.2" x2="819.2">
      <stop offset="0.0" stop-color="#3193d7"/>
      <stop offset="1.0" stop-color="#08629f"/>
    </linearGradient>
    <linearGradient gradientTransform="matrix(0.0, 0.3101, -0.1092, 0.0, 694.95, 254.05)" gradientUnits="userSpaceOnUse" id="gradient7" spreadMethod="pad" x1="-819.2" x2="819.2">
      <stop offset="0.0" stop-color="#a3daff"/>
      <stop offset="1.0" stop-color="#2093e0"/>
    </linearGradient>
  </defs>
</svg>
