<?xml version="1.0" encoding="UTF-8" standalone="no"?>
<svg xmlns:xlink="http://www.w3.org/1999/xlink" height="24.1px" width="22.4px" xmlns="http://www.w3.org/2000/svg">
  <g transform="matrix(1.0, 0.0, 0.0, 1.0, 1.0, 1.0)">
    <path d="M20.25 7.6 L19.85 8.35 19.25 8.9 18.4 9.2 18.2 9.2 17.5 9.4 17.3 9.4 17.7 10.25 18.65 10.4 18.75 10.4 18.8 10.35 18.85 10.35 19.7 10.15 19.95 10.15 20.05 10.2 20.1 10.2 18.35 11.7 18.35 11.75 18.3 11.75 18.35 11.95 18.7 13.4 16.85 15.05 Q13.15 18.25 10.1 20.4 L9.6 20.75 Q6.05 22.9 3.05 21.6 L1.85 20.15 1.25 19.4 Q0.2 17.95 0.05 16.45 L0.0 16.0 0.0 15.95 Q0.0 15.0 0.3 14.4 L0.9 13.7 1.15 13.6 Q1.4 13.45 1.75 13.4 L2.3 13.25 Q4.0 12.85 4.7 12.35 L5.0 12.1 4.6 11.85 3.6 7.75 3.5 7.35 3.45 7.2 Q3.45 6.85 3.9 6.2 L4.35 5.7 Q4.8 5.15 5.6 4.65 6.6 4.0 8.2 3.4 L10.35 2.6 12.2 2.3 13.05 2.45 Q13.25 2.55 13.25 3.0 L14.05 4.45 14.9 3.0 15.55 1.35 15.55 0.65 15.35 0.25 16.3 0.05 16.25 0.0 16.35 0.05 16.75 0.35 17.2 0.9 17.5 1.7 17.75 3.8 17.7 5.1 17.2 6.25 Q16.9 6.85 16.05 6.9 L15.95 6.9 15.65 7.0 15.6 7.05 15.25 7.35 15.8 7.8 15.85 7.8 15.45 7.25 15.85 7.4 16.65 7.6 17.0 7.6 17.05 7.6 17.95 7.15 18.35 6.6 18.65 6.0 18.7 5.3 19.6 5.2 19.6 5.1 19.65 5.15 19.7 5.15 19.7 5.2 19.8 5.35 19.95 5.6 20.25 6.15 20.4 6.9 20.25 7.6" fill="#000000" fill-rule="evenodd" stroke="none"/>
    <path d="M20.25 7.6 L19.85 8.35 19.25 8.9 18.4 9.2 18.2 9.2 17.5 9.4 17.3 9.4 17.7 10.25 18.65 10.4 18.75 10.4 18.8 10.35 18.85 10.35 19.7 10.15 19.95 10.15 20.05 10.2 20.1 10.2 18.35 11.7 18.35 11.75 18.3 11.75 18.35 11.95 18.7 13.4 16.85 15.05 Q13.15 18.25 10.1 20.4 L9.6 20.75 Q6.05 22.9 3.05 21.6 L1.85 20.15 1.25 19.4 Q0.2 17.95 0.05 16.45 L0.0 16.0 0.0 15.95 Q0.0 15.0 0.3 14.4 L0.9 13.7 1.15 13.6 Q1.4 13.45 1.75 13.4 L2.3 13.25 Q4.0 12.85 4.7 12.35 L5.0 12.1 4.6 11.85 3.6 7.75 3.5 7.35 3.45 7.2 Q3.45 6.85 3.9 6.2 L4.35 5.7 Q4.8 5.15 5.6 4.65 6.6 4.0 8.2 3.4 L10.35 2.6 12.2 2.3 13.05 2.45 Q13.25 2.55 13.25 3.0 L14.05 4.45 14.9 3.0 15.55 1.35 15.55 0.65 15.35 0.25 16.3 0.05 16.25 0.0 16.35 0.05 16.75 0.35 17.2 0.9 17.5 1.7 17.75 3.8 17.7 5.1 17.2 6.25 Q16.9 6.85 16.05 6.9 L15.95 6.9 15.65 7.0 15.6 7.05 15.25 7.35 15.8 7.8 15.85 7.8 15.45 7.25 15.85 7.4 16.65 7.6 17.0 7.6 17.05 7.6 17.95 7.15 18.35 6.6 18.65 6.0 18.7 5.3 19.6 5.2 19.6 5.1 19.65 5.15 19.7 5.15 19.7 5.2 19.8 5.35 19.95 5.6 20.25 6.15 20.4 6.9 20.25 7.6 Z" fill="none" stroke="#222944" stroke-linecap="round" stroke-linejoin="round" stroke-width="2.0"/>
    <path d="M10.4 2.6 L12.2 2.25 13.05 2.4 13.25 2.95 12.6 4.7 11.95 5.4 11.45 5.8 10.25 6.7 8.85 7.55 3.6 7.75 3.5 7.35 3.5 7.2 3.9 6.2 4.35 5.7 Q4.8 5.15 5.6 4.65 4.65 5.3 4.65 6.25 L5.05 6.85 Q5.35 7.05 5.75 7.05 L5.85 7.05 7.65 6.5 9.45 5.5 11.0 4.35 11.45 3.25 Q11.45 2.7 11.1 2.65 L10.4 2.6 M9.6 20.7 Q6.1 22.9 3.1 21.6 L1.9 20.15 4.1 20.5 4.4 20.55 4.45 20.55 4.85 20.5 5.7 20.8 7.5 21.15 9.6 20.7" fill="#ffffff" fill-rule="evenodd" stroke="none"/>
    <path d="M10.4 2.6 L11.1 2.65 Q11.45 2.7 11.45 3.25 L11.0 4.35 Q10.25 4.35 8.8 4.9 7.3 5.4 6.6 6.25 L5.85 7.05 5.75 7.05 Q5.35 7.05 5.05 6.85 L4.65 6.25 Q4.65 5.3 5.6 4.65 6.65 3.95 8.2 3.35 9.45 2.85 10.4 2.6" fill="#7b7b7b" fill-rule="evenodd" stroke="none"/>
    <path d="M11.45 5.8 L11.95 5.4 12.6 4.7 Q13.2 5.05 13.75 6.1 L14.8 8.45 13.9 9.5 13.65 8.85 13.2 7.45 12.75 6.85 12.2 6.3 11.45 5.8" fill="#aeaeae" fill-rule="evenodd" stroke="none"/>
    <path d="M3.6 7.75 L8.85 7.55 10.25 6.7 Q10.85 7.0 11.3 8.0 L11.85 10.2 12.05 10.75 12.1 10.95 12.0 10.75 10.55 11.45 8.95 9.7 8.1 8.65 Q7.95 8.8 7.95 9.9 7.95 11.05 8.3 12.3 L5.05 12.1 4.6 11.8 3.6 7.75 M12.6 4.7 L13.25 2.95 15.35 6.85 15.25 7.35 14.8 8.45 13.75 6.1 Q13.2 5.05 12.6 4.7 M16.85 15.05 Q13.15 18.25 10.1 20.4 L9.6 20.7 7.5 21.15 5.7 20.8 4.85 20.5 6.65 19.95 8.35 19.1 11.5 17.3 17.0 13.25 17.15 13.95 16.9 14.95 16.85 15.05" fill="#cccccc" fill-rule="evenodd" stroke="none"/>
    <path d="M10.25 6.7 L11.45 5.8 12.2 6.3 12.75 6.85 13.2 7.45 13.65 8.85 13.9 9.5 13.05 10.15 12.05 10.75 11.85 10.2 11.3 8.0 Q10.85 7.0 10.25 6.7" fill="#bbbbbb" fill-rule="evenodd" stroke="none"/>
    <path d="M4.75 12.35 L5.05 12.1 8.3 12.3 9.25 11.65 Q9.35 11.15 9.05 10.2 L8.85 9.6 8.95 9.7 10.55 11.45 12.0 10.75 12.1 10.95 12.05 10.75 13.05 10.15 13.3 10.15 14.1 9.7 14.65 9.3 Q15.05 9.0 15.35 9.0 15.7 9.0 16.25 9.5 L17.15 10.4 17.75 11.5 18.0 12.3 17.1 13.2 17.0 13.1 16.85 12.8 16.35 12.0 Q15.6 10.95 14.95 10.95 L13.75 11.15 13.7 11.15 11.35 11.9 11.1 12.0 Q8.15 13.1 6.85 13.1 L5.55 12.8 4.75 12.35" fill="#416196" fill-rule="evenodd" stroke="none"/>
    <path d="M1.9 20.15 L1.25 19.4 Q0.2 17.95 0.05 16.45 L0.85 17.45 2.45 17.95 4.15 17.5 Q3.7 18.35 3.7 19.45 3.7 19.9 4.0 20.3 L4.1 20.5 1.9 20.15 M2.3 13.25 Q4.0 12.8 4.75 12.35 L5.55 12.8 6.85 13.1 Q8.15 13.1 11.1 12.0 L11.35 11.9 Q11.05 13.2 9.95 14.0 L7.3 15.3 5.95 15.95 Q5.85 14.9 4.55 14.1 3.45 13.35 2.3 13.25" fill="#6da6e6" fill-rule="evenodd" stroke="none"/>
    <path d="M15.25 7.35 L16.55 8.45 Q17.5 9.25 18.35 11.95 L18.0 12.3 17.75 11.5 17.15 10.4 16.25 9.5 Q15.7 9.0 15.35 9.0 15.05 9.0 14.65 9.3 L14.1 9.7 13.3 10.15 13.05 10.15 13.9 9.5 14.8 8.45 15.25 7.35" fill="#314b7d" fill-rule="evenodd" stroke="none"/>
    <path d="M11.35 11.9 L13.7 11.15 13.75 11.15 14.95 10.95 Q15.6 10.95 16.35 12.0 L16.85 12.8 17.0 13.1 17.1 13.2 17.0 13.25 11.5 17.3 8.35 19.1 6.65 19.95 4.85 20.5 4.45 20.55 4.4 20.55 4.1 20.5 4.0 20.3 Q3.7 19.9 3.7 19.45 3.7 18.35 4.15 17.5 L4.8 16.7 Q5.2 16.35 5.95 15.95 L7.3 15.3 9.95 14.0 Q11.05 13.2 11.35 11.9" fill="#6689bb" fill-rule="evenodd" stroke="none"/>
    <path d="M18.35 11.95 L18.75 13.35 16.85 15.05 16.9 14.95 17.15 13.95 17.0 13.25 17.1 13.2 18.0 12.3 18.35 11.95" fill="#b7b7b7" fill-rule="evenodd" stroke="none"/>
    <path d="M11.0 4.35 L9.45 5.5 7.65 6.5 5.85 7.05 6.6 6.25 Q7.3 5.4 8.8 4.9 10.25 4.35 11.0 4.35" fill="#484848" fill-rule="evenodd" stroke="none"/>
    <path d="M8.95 9.7 L8.85 9.6 9.05 10.2 Q9.35 11.15 9.25 11.65 L8.3 12.3 Q7.95 11.05 7.95 9.9 7.95 8.8 8.1 8.65 L8.95 9.7" fill="#9d9d9d" fill-rule="evenodd" stroke="none"/>
    <path d="M2.65 14.1 L2.9 14.2 Q3.6 14.75 3.6 15.35 3.6 15.95 2.95 16.4 1.65 16.25 1.65 15.1 L1.85 14.45 Q2.1 14.1 2.55 14.1 L2.65 14.1" fill="#dfeef4" fill-rule="evenodd" stroke="none"/>
    <path d="M0.0 16.0 L0.0 15.95 Q0.0 15.0 0.35 14.4 L0.95 13.7 1.1 13.7 2.65 14.1 2.55 14.1 Q2.1 14.1 1.85 14.45 L1.65 15.1 Q1.65 16.25 2.95 16.4 L2.9 16.45 Q2.2 16.85 1.55 16.85 1.25 16.85 0.45 16.3 L0.0 16.0" fill="#9cd1f3" fill-rule="evenodd" stroke="none"/>
    <path d="M0.05 16.45 L0.0 16.0 0.45 16.3 Q1.25 16.85 1.55 16.85 2.2 16.85 2.9 16.45 L2.95 16.4 Q3.6 15.95 3.6 15.35 3.6 14.75 2.9 14.2 L2.65 14.1 1.1 13.7 0.95 13.7 1.15 13.6 1.75 13.35 2.3 13.25 Q3.45 13.35 4.55 14.1 5.85 14.9 5.95 15.95 5.2 16.35 4.8 16.7 L4.15 17.5 2.45 17.95 0.85 17.45 0.05 16.45" fill="#72b2ef" fill-rule="evenodd" stroke="none"/>
    <path d="M10.75 7.7 L11.95 6.5 13.8 4.7 14.9 2.95 15.55 1.35 15.55 0.65 15.35 0.2 16.3 0.05 Q17.2 1.55 17.0 2.2 16.85 2.85 16.85 3.95 L16.8 5.3 16.3 6.45 Q15.95 7.1 14.9 7.15 L13.7 7.2 14.4 7.7 15.15 9.1 Q14.7 8.35 13.6 8.2 11.8 7.95 11.8 9.65 L12.0 10.3 Q12.3 10.8 13.15 10.8 14.15 10.8 14.15 9.95 L13.95 9.55 Q13.75 9.2 13.35 9.2 13.15 9.2 13.0 9.35 L12.75 9.75 12.8 9.9 Q12.85 10.05 13.05 10.05 L13.15 9.95 13.05 9.75 13.15 9.6 13.35 9.45 13.65 9.65 13.9 9.95 Q13.8 10.6 13.15 10.6 12.5 10.6 12.2 10.2 L12.05 9.65 Q12.05 8.45 13.3 8.45 14.15 8.45 14.7 9.1 15.1 9.65 15.1 10.05 L15.1 10.1 15.0 10.35 14.45 11.15 14.1 11.6 14.35 11.8 12.6 12.1 Q11.5 12.1 10.75 11.35 10.0 10.6 10.0 9.55 10.0 8.5 10.75 7.7 M14.55 7.45 L14.95 7.6 15.75 7.8 16.4 7.75 17.0 7.55 17.9 7.1 18.35 6.55 18.65 6.0 18.7 5.3 19.65 5.15 19.8 6.5 19.55 7.1 19.35 7.8 18.95 8.55 18.35 9.1 17.5 9.4 16.4 9.25 15.5 8.65 15.15 8.3 14.55 7.45 M15.45 9.5 L16.35 9.3 Q16.7 10.6 17.75 10.6 L18.8 10.35 19.05 10.35 19.15 10.35 Q18.15 11.5 18.35 11.7 L16.75 12.05 Q15.95 12.05 15.6 10.9 L15.4 9.65 15.45 9.5" fill="#919191" fill-rule="evenodd" stroke="none"/>
    <path d="M17.2 0.85 L17.5 2.65 Q17.5 5.0 16.45 6.0 16.25 6.25 15.65 6.4 L14.75 6.6 Q13.65 6.95 13.25 7.3 L13.7 7.25 Q14.65 7.25 15.3 7.75 L15.85 8.3 16.0 8.85 Q15.6 8.15 14.45 8.0 12.7 7.75 12.7 9.4 L12.85 10.1 Q13.2 10.6 14.05 10.6 15.0 10.6 15.0 9.75 L14.85 9.3 Q14.65 9.0 14.25 9.0 L13.85 9.15 13.65 9.55 13.7 9.7 Q13.75 9.8 13.95 9.8 L14.05 9.75 13.9 9.55 14.05 9.4 Q14.15 9.25 14.25 9.25 L14.55 9.4 14.8 9.75 Q14.7 10.35 14.05 10.35 13.4 10.35 13.1 9.95 12.95 9.75 12.95 9.4 12.95 8.2 14.2 8.2 15.0 8.2 15.6 8.9 16.0 9.4 16.0 9.8 L16.0 9.85 15.9 10.15 15.35 10.95 15.0 11.4 Q14.35 11.9 13.5 11.9 12.4 11.9 11.65 11.15 10.9 10.4 10.9 9.3 10.9 8.25 11.65 7.5 L12.8 6.3 14.7 4.5 15.8 2.75 16.45 1.15 16.45 0.4 16.25 0.0 16.75 0.3 17.2 0.85 M17.5 9.1 L17.3 9.05 16.4 8.45 16.05 8.1 15.45 7.25 15.85 7.4 16.65 7.6 17.3 7.55 17.9 7.35 18.8 6.9 19.25 6.35 19.55 5.75 19.6 5.1 19.8 5.35 19.9 5.75 20.05 6.65 Q20.05 7.65 19.1 8.45 18.35 9.05 17.5 9.1 M16.6 11.0 L16.5 10.7 16.3 9.4 16.35 9.3 Q16.5 9.3 17.05 9.85 17.6 10.35 18.6 10.35 L19.7 10.15 19.95 10.15 20.0 10.15 Q18.9 11.2 17.45 11.2 L16.6 11.0" fill="#ffffff" fill-rule="evenodd" stroke="none"/>
    <path d="M15.85 8.3 L15.3 7.75 Q14.65 7.25 13.7 7.25 L13.25 7.3 Q13.65 6.95 14.75 6.6 L15.65 6.4 Q16.25 6.25 16.45 6.0 17.5 5.0 17.5 2.65 L17.2 0.85 17.45 1.65 17.75 3.75 17.7 5.05 17.2 6.25 Q16.85 6.9 15.8 6.95 L14.6 7.0 15.3 7.5 15.85 8.3 M17.5 9.1 Q18.35 9.05 19.1 8.45 20.05 7.65 20.05 6.65 L19.9 5.75 19.8 5.35 19.95 5.55 20.25 6.1 20.4 6.9 20.2 7.6 19.85 8.3 19.25 8.9 18.4 9.2 17.5 9.1 M20.0 10.15 L20.05 10.15 Q18.55 11.85 17.65 11.85 16.95 11.85 16.6 11.0 L17.45 11.2 Q18.9 11.2 20.0 10.15" fill="#a6a6a6" fill-rule="evenodd" stroke="none"/>
  </g>
</svg>
