<?xml version="1.0" encoding="UTF-8" standalone="no"?>
<svg xmlns:xlink="http://www.w3.org/1999/xlink" height="26.6px" width="257.7px" xmlns="http://www.w3.org/2000/svg">
  <g transform="matrix(1.0, 0.0, 0.0, 1.0, 1.5, 1.5)">
    <path d="M254.45 10.55 L254.7 11.0 254.7 11.25 254.7 11.5 Q254.7 12.15 254.3 12.5 253.9 12.9 253.4 12.9 L253.3 12.9 252.65 12.7 Q252.3 12.4 252.1 11.8 L252.0 11.6 251.75 11.55 251.35 11.75 250.9 12.35 Q250.45 12.9 250.1 13.6 L249.6 15.05 249.35 15.65 249.2 16.2 249.15 16.45 249.0 16.65 245.6 16.65 247.15 12.4 247.15 12.25 247.15 12.15 247.0 11.9 246.65 11.8 Q246.2 11.9 245.85 12.3 L245.2 13.15 245.1 13.3 245.1 13.4 245.2 13.45 Q244.55 14.9 243.6 15.85 242.65 16.85 240.9 16.85 L240.8 16.85 239.7 16.55 Q239.15 16.35 238.9 15.75 L237.75 16.5 236.5 16.85 236.3 16.85 236.15 16.85 234.9 16.6 Q234.3 16.4 233.85 15.8 L233.3 14.9 233.2 13.95 Q233.2 13.1 233.6 12.35 234.05 11.55 234.75 10.95 235.35 10.55 236.0 10.3 L237.45 10.05 237.6 10.0 237.75 10.0 238.9 10.15 Q239.45 10.3 239.85 10.75 L240.1 10.15 241.9 10.15 243.65 10.15 243.45 10.85 243.2 11.5 242.75 12.85 242.3 14.2 242.3 14.25 242.25 14.3 242.25 14.4 242.15 14.55 242.15 14.65 242.15 14.7 242.15 14.8 242.3 14.95 242.4 14.95 242.45 14.95 242.7 14.9 242.9 14.8 243.3 14.5 243.65 14.05 243.95 13.65 244.15 13.3 244.2 13.2 244.15 13.15 Q244.6 11.9 245.5 10.9 246.45 9.9 247.8 9.8 L248.1 9.8 248.4 9.8 249.55 10.15 250.45 10.9 Q250.85 10.6 251.3 10.4 L252.25 10.0 252.65 9.85 253.1 9.85 253.6 9.9 254.15 10.15 254.45 10.55 M238.65 11.2 L237.9 11.7 237.3 12.5 236.95 13.1 236.7 13.6 236.65 13.8 236.6 14.05 236.5 14.35 236.45 14.65 236.45 14.9 236.35 15.1 Q236.35 15.4 236.5 15.55 236.6 15.75 236.85 15.75 237.35 15.75 237.75 15.3 L238.5 14.3 238.75 13.8 238.95 13.3 239.3 12.35 239.4 11.6 239.35 11.25 239.0 11.15 238.85 11.15 238.65 11.2 M224.0 11.9 L223.95 11.65 223.75 11.55 Q223.4 11.55 223.1 11.8 L222.6 12.45 222.4 12.85 222.25 13.2 221.95 14.05 221.65 14.95 221.3 15.8 221.05 16.65 217.4 16.65 217.8 15.55 218.2 14.4 218.55 13.3 218.95 12.25 219.0 12.0 219.0 11.8 218.95 11.6 218.75 11.5 218.5 11.55 218.35 11.6 218.1 11.75 217.9 11.95 217.35 12.85 216.65 14.4 216.55 14.75 216.25 15.5 216.05 16.2 215.85 16.65 212.45 16.65 212.85 15.5 212.65 15.75 Q212.1 16.25 211.45 16.25 L210.9 16.15 210.45 16.0 Q209.7 16.55 208.75 16.9 L206.8 17.25 206.6 17.25 206.45 17.25 204.6 16.95 Q203.75 16.65 203.05 16.1 202.5 15.65 202.3 15.1 L202.3 15.05 202.1 15.25 200.65 16.4 199.35 16.75 198.0 16.9 197.85 16.9 197.75 16.9 195.7 16.5 Q194.7 16.1 194.1 15.35 L193.6 14.5 193.45 13.6 Q193.45 12.75 193.95 12.0 194.5 11.2 195.3 10.75 195.8 10.45 196.6 10.2 L198.15 10.0 198.4 10.0 198.55 10.0 199.9 10.15 Q200.5 10.3 200.95 10.75 L201.3 11.25 201.5 11.9 201.5 12.0 201.45 12.45 201.2 12.9 200.7 13.25 200.1 13.4 200.05 13.4 199.95 13.3 199.6 13.25 199.25 13.1 198.9 12.75 198.65 12.25 198.65 12.05 Q198.65 11.65 198.95 11.35 L199.65 10.9 199.4 10.85 199.2 10.85 199.1 10.85 198.95 10.85 198.85 10.9 198.8 10.9 Q198.1 11.15 197.65 11.8 197.2 12.5 197.0 13.3 L196.95 13.65 196.95 14.0 Q196.95 14.7 197.35 15.25 197.7 15.8 198.55 15.8 200.0 15.8 200.85 15.0 201.6 14.35 202.2 13.3 L202.6 12.35 Q203.1 11.55 203.95 10.95 204.65 10.5 205.55 10.2 L207.45 10.0 207.75 10.0 208.05 10.0 209.6 10.3 Q210.35 10.55 210.9 11.15 211.45 11.55 211.65 12.1 L211.95 13.25 211.9 13.75 211.75 14.2 212.25 14.0 212.6 13.75 212.8 13.45 213.05 13.05 213.6 13.3 214.65 10.2 218.1 10.2 218.0 10.6 Q218.4 10.3 218.9 10.15 L220.0 10.0 220.05 10.0 220.15 10.0 220.75 10.0 221.2 10.1 Q221.6 10.25 221.9 10.5 L222.35 11.2 Q222.9 10.6 223.6 10.3 L225.05 10.0 225.55 10.05 226.15 10.2 227.25 10.95 Q227.6 11.5 227.6 12.15 L227.5 12.55 227.4 13.05 227.3 13.4 227.2 13.8 227.1 13.9 227.05 14.0 226.95 14.5 226.9 14.9 226.9 15.0 226.95 15.0 227.05 15.0 227.3 15.0 227.45 14.9 228.0 14.5 228.45 13.9 228.75 13.4 228.95 13.05 229.9 13.45 228.95 15.05 229.15 14.9 Q229.6 14.6 230.1 14.5 L230.4 14.5 230.6 14.5 230.9 14.5 231.25 14.55 Q231.75 14.65 232.25 15.05 232.7 15.4 232.65 16.0 232.6 16.55 232.15 16.85 L231.25 17.25 230.9 17.3 230.55 17.3 230.35 17.3 230.1 17.25 229.05 16.8 Q228.55 16.45 228.6 15.8 L228.8 15.25 228.2 15.85 Q227.3 16.85 225.55 16.85 L225.3 16.85 225.0 16.8 224.2 16.6 223.55 16.1 223.25 15.55 223.2 15.0 223.2 14.75 223.2 14.5 223.4 13.9 223.6 13.25 223.65 13.1 223.8 12.75 223.85 12.55 223.9 12.4 223.95 12.1 224.0 11.9 M228.8 15.25 L228.95 15.05 228.8 15.25 M206.95 11.6 L206.25 12.75 205.85 14.05 205.85 14.5 205.8 14.9 205.85 15.15 205.85 15.5 206.1 16.1 206.5 16.35 Q206.95 16.35 207.3 16.0 L207.9 15.3 208.0 15.1 208.1 14.95 207.65 14.4 207.5 13.75 207.5 13.6 Q207.5 13.1 207.9 12.55 208.25 12.1 208.85 11.95 L208.6 11.15 Q208.4 10.9 208.1 10.9 L207.7 10.95 207.3 11.25 207.1 11.4 206.95 11.6 M187.0 11.7 Q187.2 14.0 185.5 15.25 183.9 16.45 181.95 16.6 L181.5 16.65 181.05 16.65 180.45 16.65 179.8 16.55 178.25 16.2 Q177.55 15.9 176.95 15.3 176.55 14.9 176.45 14.35 L175.55 15.35 Q174.15 16.8 171.5 16.8 L171.4 16.8 Q170.45 16.8 169.65 16.4 168.9 16.05 168.5 15.15 L166.85 16.25 164.9 16.8 164.65 16.85 164.35 16.85 162.55 16.45 Q161.6 16.1 160.9 15.25 L160.25 14.05 160.0 14.35 Q159.25 15.4 157.8 16.1 L155.9 16.65 153.8 16.9 153.6 16.9 153.45 16.9 150.35 16.25 Q148.9 15.75 148.0 14.55 L147.7 14.15 146.45 15.45 144.85 16.45 142.95 16.8 142.8 16.8 142.7 16.8 141.85 16.75 141.05 16.55 Q140.0 16.2 139.55 15.45 L139.3 14.75 138.75 15.35 Q137.3 16.8 134.7 16.8 L134.35 16.8 134.05 16.8 132.75 16.45 131.75 15.65 131.4 14.8 131.25 13.95 131.25 13.75 131.25 13.55 131.5 12.45 131.85 11.4 131.95 11.15 132.15 10.65 132.25 10.45 132.3 10.15 132.4 9.75 132.4 9.4 132.35 9.0 132.0 8.8 Q131.5 8.8 131.05 9.25 L130.3 10.2 130.0 10.75 129.85 11.15 129.25 12.75 128.75 14.35 128.35 15.45 127.95 16.55 122.7 16.55 123.95 12.9 Q122.7 14.5 121.15 15.3 118.7 16.55 115.25 16.55 112.15 16.55 109.8 14.6 107.35 12.55 107.35 9.25 107.35 7.05 108.5 5.2 109.65 3.35 111.45 2.15 112.9 1.1 114.8 0.55 116.65 0.0 118.7 0.0 L119.3 0.0 119.95 0.05 122.2 0.45 Q123.3 0.75 124.15 1.55 L124.75 2.4 124.95 3.4 Q124.95 4.45 124.2 5.25 123.45 6.1 122.3 6.15 L121.05 5.95 120.05 5.25 119.85 5.05 119.6 4.9 119.8 4.8 119.95 4.75 120.85 4.1 121.55 3.05 121.6 2.9 121.6 2.65 Q121.6 2.2 121.25 1.9 L120.3 1.65 Q118.85 1.65 117.65 2.9 116.5 4.05 115.7 5.55 L115.1 6.75 114.65 7.85 114.25 9.25 114.05 10.8 114.05 10.9 114.05 11.05 Q114.05 12.1 114.45 13.0 114.85 13.85 115.85 14.25 L116.65 14.5 117.5 14.55 117.7 14.55 117.9 14.5 Q119.6 14.4 121.15 13.3 122.7 12.25 123.45 10.8 L123.5 10.65 123.55 10.55 123.65 10.5 123.65 10.4 124.7 10.8 127.95 1.3 133.2 1.3 131.1 7.45 132.4 6.85 133.85 6.55 134.15 6.55 134.45 6.5 136.0 6.8 137.25 7.65 137.75 8.55 137.9 9.45 137.9 10.0 137.7 10.5 137.55 11.05 137.3 11.65 137.15 12.25 136.95 12.85 136.9 12.9 136.85 13.1 136.8 13.25 136.75 13.45 136.75 13.55 136.65 13.75 136.8 13.95 137.0 14.05 137.3 14.0 137.6 13.9 138.3 13.3 138.95 12.55 139.3 12.05 139.6 11.65 139.6 11.55 139.65 11.5 140.35 9.3 141.2 6.8 142.6 6.8 143.9 6.8 145.3 6.8 146.6 6.8 146.25 7.8 145.9 8.75 145.25 10.8 144.55 12.85 144.45 13.25 144.35 13.6 144.5 13.9 144.95 13.95 145.45 13.8 146.15 13.25 146.95 12.25 147.0 12.1 147.0 11.95 Q147.0 10.65 147.75 9.5 148.55 8.35 149.75 7.65 150.6 7.2 151.75 6.9 L154.1 6.5 154.35 6.5 154.65 6.5 156.65 6.75 Q157.6 7.0 158.3 7.6 L158.85 8.4 159.15 9.35 159.15 9.45 159.15 9.55 158.95 10.25 158.6 10.9 157.85 11.4 157.0 11.6 156.9 11.6 156.7 11.6 156.2 11.4 155.75 11.2 155.15 10.65 154.9 9.9 154.9 9.85 154.9 9.75 154.9 9.65 Q154.9 9.0 155.3 8.55 155.7 8.05 156.3 7.9 L156.0 7.85 155.65 7.8 155.45 7.8 155.3 7.85 155.15 7.85 155.0 7.9 Q154.0 8.25 153.35 9.3 152.65 10.3 152.35 11.55 L152.3 12.05 152.3 12.55 Q152.3 13.65 152.85 14.4 153.4 15.25 154.65 15.25 156.8 15.25 158.1 14.05 159.25 13.05 160.05 11.65 160.15 10.8 160.65 10.05 161.25 8.8 162.35 8.0 163.1 7.45 164.2 7.05 L166.3 6.55 166.55 6.5 166.8 6.5 168.5 6.8 Q169.3 7.05 170.0 7.6 L170.3 6.8 172.95 6.8 175.65 6.8 175.3 7.8 174.95 8.8 174.25 10.8 173.55 12.85 173.55 12.9 173.5 13.05 173.45 13.2 173.45 13.4 173.4 13.5 173.4 13.6 173.45 13.8 173.6 13.95 173.75 13.95 173.9 13.95 174.2 13.9 174.55 13.75 175.1 13.25 175.7 12.65 176.1 12.0 176.4 11.55 176.45 11.4 176.5 11.3 176.5 11.2 176.55 11.05 176.85 11.2 177.2 10.9 Q177.75 10.5 178.45 10.5 L178.55 10.5 178.75 10.5 178.85 10.5 178.95 10.55 181.45 7.15 186.65 5.8 186.85 8.75 187.0 11.7 M190.9 14.5 L191.2 14.5 191.55 14.55 Q192.05 14.65 192.5 15.05 193.0 15.4 192.95 16.0 L192.45 16.85 191.55 17.25 191.2 17.3 190.85 17.3 190.65 17.3 190.4 17.25 189.35 16.8 Q188.85 16.45 188.9 15.8 188.95 15.15 189.4 14.9 L190.4 14.5 190.7 14.5 190.9 14.5 M181.95 9.3 L180.3 11.5 180.5 12.0 180.55 12.5 180.5 13.05 180.25 13.5 179.5 14.2 178.5 14.4 178.4 14.4 178.35 14.35 178.25 14.35 178.75 14.8 179.4 15.05 Q180.55 15.05 181.2 14.4 181.9 13.85 181.9 12.65 L181.95 10.95 181.95 9.3 M166.15 10.3 L165.55 11.2 165.25 11.95 165.15 12.25 165.05 12.65 164.95 13.05 164.85 13.5 164.75 13.85 164.75 14.2 164.9 14.9 165.4 15.15 Q166.2 15.15 166.85 14.5 L167.85 13.05 168.25 12.25 168.6 11.55 169.1 10.05 169.25 9.0 169.15 8.4 168.7 8.25 168.4 8.3 168.1 8.35 Q167.6 8.6 167.05 9.1 L166.15 10.3 M147.65 4.25 L147.0 5.15 146.1 5.65 145.9 5.7 145.75 5.75 145.3 5.8 144.85 5.8 143.6 5.7 Q143.0 5.55 142.55 5.2 L142.0 4.5 141.8 3.75 141.85 3.35 142.05 2.9 143.1 2.15 144.35 1.85 144.55 1.85 144.65 1.85 145.3 1.9 145.85 2.0 146.05 2.05 146.15 2.15 147.25 2.8 Q147.7 3.3 147.7 3.9 L147.7 4.1 147.65 4.25 M103.05 11.7 Q102.4 11.7 101.95 12.15 L101.2 13.3 101.1 13.75 101.0 14.05 101.45 14.0 101.9 13.95 103.1 13.4 Q103.65 13.0 103.65 12.3 L103.5 11.8 103.05 11.7 M103.1 11.0 L103.75 11.15 103.85 11.2 103.9 11.2 Q104.45 11.3 104.9 11.65 105.3 12.0 105.35 12.65 105.35 13.55 104.55 14.05 103.75 14.6 102.75 14.9 L101.75 15.05 100.85 15.1 101.4 16.05 Q101.75 16.4 102.35 16.4 103.7 16.4 104.55 15.65 105.4 14.95 105.95 13.85 L106.8 14.25 105.8 15.8 Q105.3 16.5 104.35 16.95 L103.15 17.35 101.85 17.5 101.65 17.5 101.45 17.4 100.65 17.35 99.9 17.15 98.25 16.1 98.0 15.75 97.35 16.5 Q96.45 17.4 94.85 17.4 L93.75 17.2 93.0 16.4 91.85 17.2 90.55 17.4 89.3 17.2 88.3 16.45 87.85 15.7 87.6 14.95 87.6 14.8 87.6 14.65 Q87.6 13.9 88.0 13.15 L89.15 11.9 Q89.6 11.5 90.3 11.25 L91.6 10.95 91.8 10.95 91.9 10.95 93.0 11.15 Q93.55 11.25 93.95 11.65 L95.3 7.75 96.95 7.75 98.55 7.75 97.35 11.3 96.1 14.95 96.1 15.0 96.05 15.1 96.05 15.25 96.05 15.35 96.05 15.4 96.05 15.5 96.1 15.65 96.2 15.65 96.25 15.65 96.45 15.55 96.65 15.5 97.1 15.15 97.4 14.75 97.6 14.6 97.6 14.4 97.65 13.9 97.75 13.4 Q98.1 12.35 99.15 11.75 100.25 11.2 101.4 11.05 L101.9 11.0 102.4 10.95 103.1 11.0 M92.9 12.05 L92.8 12.05 92.7 12.1 Q92.35 12.15 92.0 12.55 L91.45 13.3 91.1 13.9 90.85 14.35 90.8 14.5 90.75 14.7 90.7 15.0 90.65 15.35 90.6 15.5 90.6 15.7 90.7 16.15 Q90.8 16.35 91.05 16.35 91.6 16.35 92.0 15.9 L92.65 15.05 92.8 14.65 93.0 14.25 93.1 14.05 93.15 13.75 93.3 13.5 93.35 13.15 93.4 12.9 93.4 12.7 93.3 12.25 92.9 12.05 M86.55 12.25 Q86.75 14.55 85.05 15.75 83.45 16.95 81.5 17.15 L81.05 17.2 80.6 17.2 80.0 17.2 79.4 17.1 77.85 16.75 Q77.1 16.45 76.5 15.8 L76.15 15.35 75.8 15.7 Q75.05 16.45 74.05 16.45 L73.25 16.35 72.55 16.0 70.0 17.35 67.1 17.95 66.85 17.95 66.55 17.95 63.8 17.55 Q62.5 17.1 61.5 16.25 L60.3 14.7 Q59.95 13.9 59.95 13.05 59.95 11.75 60.75 10.55 61.5 9.4 62.75 8.55 63.85 7.85 65.25 7.4 L68.1 7.0 68.5 7.05 69.0 7.05 71.3 7.55 Q72.4 7.95 73.3 8.75 L74.4 10.25 Q74.8 11.05 74.8 12.0 L74.7 12.7 74.55 13.3 75.25 13.15 75.8 12.65 75.95 12.5 Q76.1 11.8 76.75 11.4 77.3 11.0 78.0 11.0 L78.1 11.0 78.3 11.0 78.4 11.0 78.5 11.05 81.0 7.65 86.2 6.35 86.4 9.3 86.55 12.25 M81.5 9.8 L79.85 12.0 80.05 12.5 80.15 13.05 80.05 13.55 79.8 14.0 79.05 14.7 78.05 14.95 77.95 14.95 77.9 14.9 77.85 14.9 78.3 15.35 79.0 15.55 Q80.15 15.55 80.75 14.95 81.45 14.35 81.45 13.15 L81.5 11.5 81.5 9.8 M68.45 8.55 L67.75 8.95 67.55 9.25 67.25 9.5 Q66.6 10.2 66.3 11.2 65.85 12.1 65.7 13.15 L65.65 13.8 65.65 14.4 65.65 14.8 65.7 15.35 66.0 16.15 66.6 16.55 Q67.3 16.55 67.9 16.05 L68.75 14.95 68.9 14.7 69.05 14.4 68.35 13.65 68.1 12.7 68.1 12.55 68.1 12.5 Q68.25 11.65 68.75 10.95 69.25 10.2 70.15 10.0 L69.8 8.75 Q69.5 8.35 69.1 8.35 L68.45 8.55 M53.4 8.8 L52.9 9.15 51.8 10.5 50.9 12.1 50.45 13.4 Q50.3 13.95 50.3 14.4 L50.35 14.8 50.45 15.1 50.7 15.4 51.0 15.5 Q52.15 15.5 52.85 14.55 L54.0 12.35 54.45 10.85 54.8 9.7 54.8 9.5 54.8 9.4 54.6 9.05 54.3 8.75 54.2 8.7 54.15 8.7 54.05 8.65 54.0 8.65 53.4 8.8 M55.6 7.25 L60.85 7.25 59.9 10.2 58.9 13.1 57.9 16.05 56.85 19.0 Q56.2 20.85 54.4 22.05 52.5 23.25 50.35 23.55 L49.85 23.6 49.3 23.6 47.65 23.4 Q46.85 23.2 46.15 22.8 L45.15 21.85 44.6 20.6 44.55 20.3 44.55 20.1 Q44.55 19.4 45.0 18.8 45.4 18.3 46.35 18.1 L46.45 18.05 46.6 18.05 46.7 18.05 46.8 18.05 Q47.85 18.05 48.4 18.7 49.05 19.35 49.05 20.15 L49.05 20.2 Q49.05 20.75 48.7 21.3 L47.6 22.05 47.7 22.1 47.9 22.1 48.0 22.15 48.1 22.15 Q49.55 22.2 50.35 21.1 L51.7 18.75 52.05 17.7 52.3 16.8 51.55 17.1 50.75 17.2 50.4 17.25 50.0 17.25 Q48.25 17.25 46.9 16.15 46.2 15.65 45.9 14.8 45.0 15.85 43.6 16.6 L41.7 17.25 39.6 17.4 39.25 17.4 39.0 17.35 37.65 17.25 36.45 16.9 Q34.85 16.4 33.8 15.25 L33.45 14.75 32.35 15.85 30.65 16.85 28.45 17.2 Q27.25 17.2 26.4 16.65 25.5 16.1 25.3 14.9 L23.1 16.55 Q21.85 17.25 20.4 17.25 18.95 17.25 18.25 16.35 17.55 15.45 17.55 14.25 L17.6 13.4 17.85 12.65 18.35 11.25 18.75 9.9 19.2 8.55 19.75 7.2 24.95 7.2 24.4 8.75 23.95 10.25 23.35 11.8 22.85 13.4 22.8 13.6 22.7 13.85 22.85 14.15 23.2 14.25 23.8 14.0 24.75 13.25 25.75 11.65 26.5 9.75 26.8 8.8 27.15 7.95 27.2 7.75 27.25 7.55 27.25 7.45 27.3 7.3 27.35 7.3 27.35 7.2 28.25 7.2 29.1 7.2 30.8 7.2 32.6 7.2 32.1 8.7 31.55 10.2 31.05 11.75 30.5 13.25 30.4 13.65 30.35 13.95 30.5 14.3 30.7 14.35 31.05 14.3 31.5 14.15 31.75 13.9 32.05 13.65 32.75 12.8 32.75 12.5 32.85 11.75 33.05 10.95 Q33.6 9.3 35.3 8.35 36.95 7.45 38.85 7.15 L39.65 7.1 40.5 7.05 41.55 7.1 42.6 7.3 42.75 7.3 42.9 7.4 Q43.7 7.6 44.45 8.2 45.15 8.7 45.15 9.65 45.2 11.15 43.9 12.0 42.6 12.85 41.05 13.25 L39.4 13.55 38.05 13.6 Q38.2 14.6 38.8 15.15 39.4 15.7 40.4 15.7 42.5 15.7 43.9 14.55 L45.55 12.7 Q45.65 10.5 47.5 8.9 49.45 7.15 51.8 6.9 L52.1 6.9 52.35 6.85 54.0 7.1 Q54.75 7.3 55.4 7.85 L55.6 7.25 M42.2 8.4 L41.5 8.2 Q40.5 8.2 39.75 9.0 39.0 9.8 38.6 10.8 L38.35 11.4 38.25 12.05 38.9 11.95 39.6 11.75 Q40.7 11.5 41.55 10.85 42.45 10.2 42.45 9.1 L42.2 8.4 M14.15 0.0 L14.45 0.0 17.7 0.2 20.65 0.85 18.35 7.5 16.1 14.2 Q14.95 17.5 11.95 19.45 9.05 21.45 5.65 21.45 L4.5 21.4 3.3 21.15 3.1 21.15 2.95 21.1 Q1.85 20.75 0.95 20.1 0.0 19.4 0.0 18.25 L0.1 17.95 0.15 17.6 Q0.35 16.75 1.05 16.25 1.75 15.8 2.55 15.8 L3.55 16.0 4.4 16.5 4.9 17.0 4.7 17.1 4.4 17.2 3.55 17.85 Q3.1 18.25 3.2 18.8 L3.2 18.85 3.2 19.0 Q3.25 19.45 3.6 19.65 L4.4 19.9 Q5.35 19.95 6.15 19.1 L7.6 17.25 8.1 16.2 8.55 15.3 9.45 12.65 10.3 10.0 11.3 7.3 12.15 4.75 12.2 4.55 12.25 4.4 12.4 3.95 12.5 3.5 12.55 3.15 12.55 2.9 12.3 2.05 Q12.15 1.7 11.5 1.7 10.2 1.7 9.1 2.9 7.95 4.05 7.7 5.4 L7.65 5.7 7.65 6.05 7.7 6.55 7.85 7.1 Q8.05 7.75 8.55 7.95 L9.5 8.3 9.65 8.35 9.85 8.35 9.65 8.55 9.55 8.75 8.95 9.3 8.25 9.75 7.55 10.0 6.9 10.1 Q5.75 10.1 5.0 9.15 4.2 8.25 4.15 6.9 4.1 6.45 4.2 6.0 L4.5 5.0 Q5.6 2.3 8.25 1.2 10.9 0.1 13.85 0.0 L14.15 0.0" fill="#000000" fill-rule="evenodd" stroke="none"/>
    <path d="M254.45 10.55 L254.7 11.0 254.7 11.25 254.7 11.5 Q254.7 12.15 254.3 12.5 253.9 12.9 253.4 12.9 L253.3 12.9 252.65 12.7 Q252.3 12.4 252.1 11.8 L252.0 11.6 251.75 11.55 251.35 11.75 250.9 12.35 Q250.45 12.9 250.1 13.6 L249.6 15.05 249.35 15.65 249.2 16.2 249.15 16.45 249.0 16.65 245.6 16.65 247.15 12.4 247.15 12.25 247.15 12.15 247.0 11.9 246.65 11.8 Q246.2 11.9 245.85 12.3 L245.2 13.15 245.1 13.3 245.1 13.4 245.2 13.45 Q244.55 14.9 243.6 15.85 242.65 16.85 240.9 16.85 L240.8 16.85 239.7 16.55 Q239.15 16.35 238.9 15.75 L237.75 16.5 236.5 16.85 236.3 16.85 236.15 16.85 234.9 16.6 Q234.3 16.4 233.85 15.8 L233.3 14.9 233.2 13.95 Q233.2 13.1 233.6 12.35 234.05 11.55 234.75 10.95 235.35 10.55 236.0 10.3 L237.45 10.05 237.6 10.0 237.75 10.0 238.9 10.15 Q239.45 10.3 239.85 10.75 L240.1 10.15 241.9 10.15 243.65 10.15 243.45 10.85 243.2 11.5 242.75 12.85 242.3 14.2 242.3 14.25 242.25 14.3 242.25 14.4 242.15 14.55 242.15 14.65 242.15 14.7 242.15 14.8 242.3 14.95 242.4 14.95 242.45 14.95 242.7 14.9 242.9 14.8 243.3 14.5 243.65 14.05 243.95 13.65 244.15 13.3 244.2 13.2 244.15 13.15 Q244.6 11.9 245.5 10.9 246.45 9.9 247.8 9.8 L248.1 9.8 248.4 9.8 249.55 10.15 250.45 10.9 Q250.85 10.6 251.3 10.4 L252.25 10.0 252.65 9.85 253.1 9.85 253.6 9.9 254.15 10.15 254.45 10.55 M238.65 11.2 L237.9 11.7 237.3 12.5 236.95 13.1 236.7 13.6 236.65 13.8 236.6 14.05 236.5 14.35 236.45 14.65 236.45 14.9 236.35 15.1 Q236.35 15.4 236.5 15.55 236.6 15.75 236.85 15.75 237.35 15.75 237.75 15.3 L238.5 14.3 238.75 13.8 238.95 13.3 239.3 12.35 239.4 11.6 239.35 11.25 239.0 11.15 238.85 11.15 238.65 11.2 M224.0 11.9 L223.95 11.65 223.75 11.55 Q223.4 11.55 223.1 11.8 L222.6 12.45 222.4 12.85 222.25 13.2 221.95 14.05 221.65 14.95 221.3 15.8 221.05 16.65 217.4 16.65 217.8 15.55 218.2 14.4 218.55 13.3 218.95 12.25 219.0 12.0 219.0 11.8 218.95 11.6 218.75 11.5 218.5 11.55 218.35 11.6 218.1 11.75 217.9 11.95 217.35 12.85 216.65 14.4 216.55 14.75 216.25 15.5 216.05 16.2 215.85 16.65 212.45 16.65 212.85 15.5 212.65 15.75 Q212.1 16.25 211.45 16.25 L210.9 16.15 210.45 16.0 Q209.7 16.55 208.75 16.9 L206.8 17.25 206.6 17.25 206.45 17.25 204.6 16.95 Q203.75 16.65 203.05 16.1 202.5 15.65 202.3 15.1 L202.3 15.05 202.1 15.25 200.65 16.4 199.35 16.75 198.0 16.9 197.85 16.9 197.75 16.9 195.7 16.5 Q194.7 16.1 194.1 15.35 L193.6 14.5 193.45 13.6 Q193.45 12.75 193.95 12.0 194.5 11.2 195.3 10.75 195.8 10.45 196.6 10.2 L198.15 10.0 198.4 10.0 198.55 10.0 199.9 10.15 Q200.5 10.3 200.95 10.75 L201.3 11.25 201.5 11.9 201.5 12.0 201.45 12.45 201.2 12.9 200.7 13.25 200.1 13.4 200.05 13.4 199.95 13.3 199.6 13.25 199.25 13.1 198.9 12.75 198.65 12.25 198.65 12.05 Q198.65 11.65 198.95 11.35 L199.65 10.9 199.4 10.85 199.2 10.85 199.1 10.85 198.95 10.85 198.85 10.9 198.8 10.9 Q198.1 11.15 197.65 11.8 197.2 12.5 197.0 13.3 L196.95 13.65 196.95 14.0 Q196.95 14.7 197.35 15.25 197.7 15.8 198.55 15.8 200.0 15.8 200.85 15.0 201.6 14.35 202.2 13.3 L202.6 12.35 Q203.1 11.55 203.95 10.95 204.65 10.5 205.55 10.2 L207.45 10.0 207.75 10.0 208.05 10.0 209.6 10.3 Q210.35 10.55 210.9 11.15 211.45 11.55 211.65 12.1 L211.95 13.25 211.9 13.75 211.75 14.2 212.25 14.0 212.6 13.75 212.8 13.45 213.05 13.05 213.6 13.3 214.65 10.2 218.1 10.2 218.0 10.6 Q218.4 10.3 218.9 10.15 L220.0 10.0 220.05 10.0 220.15 10.0 220.75 10.0 221.2 10.1 Q221.6 10.25 221.9 10.5 L222.35 11.2 Q222.9 10.6 223.6 10.3 L225.05 10.0 225.55 10.05 226.15 10.2 227.25 10.95 Q227.6 11.5 227.6 12.15 L227.5 12.55 227.4 13.05 227.3 13.4 227.2 13.8 227.1 13.9 227.05 14.0 226.95 14.5 226.9 14.9 226.9 15.0 226.95 15.0 227.05 15.0 227.3 15.0 227.45 14.9 228.0 14.5 228.45 13.9 228.75 13.4 228.95 13.05 229.9 13.45 228.95 15.05 229.15 14.9 Q229.6 14.6 230.1 14.5 L230.4 14.5 230.6 14.5 230.9 14.5 231.25 14.55 Q231.75 14.65 232.25 15.05 232.7 15.4 232.65 16.0 232.6 16.55 232.15 16.85 L231.25 17.25 230.9 17.3 230.55 17.3 230.35 17.3 230.1 17.25 229.05 16.8 Q228.55 16.45 228.6 15.8 L228.8 15.25 228.2 15.85 Q227.3 16.85 225.55 16.85 L225.3 16.85 225.0 16.8 224.2 16.6 223.55 16.1 223.25 15.55 223.2 15.0 223.2 14.75 223.2 14.5 223.4 13.9 223.6 13.25 223.65 13.1 223.8 12.75 223.85 12.55 223.9 12.4 223.95 12.1 224.0 11.9 M228.95 15.05 L228.8 15.25 M206.95 11.6 L206.25 12.75 205.85 14.05 205.85 14.5 205.8 14.9 205.85 15.15 205.85 15.5 206.1 16.1 206.5 16.35 Q206.95 16.35 207.3 16.0 L207.9 15.3 208.0 15.1 208.1 14.95 207.65 14.4 207.5 13.75 207.5 13.6 Q207.5 13.1 207.9 12.55 208.25 12.1 208.85 11.95 L208.6 11.15 Q208.4 10.9 208.1 10.9 L207.7 10.95 207.3 11.25 207.1 11.4 206.95 11.6 M187.0 11.7 Q187.2 14.0 185.5 15.25 183.9 16.45 181.95 16.6 L181.5 16.65 181.05 16.65 180.45 16.65 179.8 16.55 178.25 16.2 Q177.55 15.9 176.95 15.3 176.55 14.9 176.45 14.35 L175.55 15.35 Q174.15 16.8 171.5 16.8 L171.4 16.8 Q170.45 16.8 169.65 16.4 168.9 16.05 168.5 15.15 L166.85 16.25 164.9 16.8 164.65 16.85 164.35 16.85 162.55 16.45 Q161.6 16.1 160.9 15.25 L160.25 14.05 160.0 14.35 Q159.25 15.4 157.8 16.1 L155.9 16.65 153.8 16.9 153.6 16.9 153.45 16.9 150.35 16.25 Q148.9 15.75 148.0 14.55 L147.7 14.15 146.45 15.45 144.85 16.45 142.95 16.8 142.8 16.8 142.7 16.8 141.85 16.75 141.05 16.55 Q140.0 16.2 139.55 15.45 L139.3 14.75 138.75 15.35 Q137.3 16.8 134.7 16.8 L134.35 16.8 134.05 16.8 132.75 16.45 131.75 15.65 131.4 14.8 131.25 13.95 131.25 13.75 131.25 13.55 131.5 12.45 131.85 11.4 131.95 11.15 132.15 10.65 132.25 10.45 132.3 10.15 132.4 9.75 132.4 9.4 132.35 9.0 132.0 8.8 Q131.5 8.8 131.05 9.25 L130.3 10.2 130.0 10.75 129.85 11.15 129.25 12.75 128.75 14.35 128.35 15.45 127.95 16.55 122.7 16.55 123.95 12.9 Q122.7 14.5 121.15 15.3 118.7 16.55 115.25 16.55 112.15 16.55 109.8 14.6 107.35 12.55 107.35 9.25 107.35 7.05 108.5 5.2 109.65 3.35 111.45 2.15 112.9 1.1 114.8 0.55 116.65 0.0 118.7 0.0 L119.3 0.0 119.95 0.05 122.2 0.45 Q123.3 0.75 124.15 1.55 L124.75 2.4 124.95 3.4 Q124.95 4.45 124.2 5.25 123.45 6.1 122.3 6.15 L121.05 5.95 120.05 5.25 119.85 5.05 119.6 4.9 119.8 4.8 119.95 4.75 120.85 4.1 121.55 3.05 121.6 2.9 121.6 2.65 Q121.6 2.2 121.25 1.9 L120.3 1.65 Q118.85 1.65 117.65 2.9 116.5 4.05 115.7 5.55 L115.1 6.75 114.65 7.85 114.25 9.25 114.05 10.8 114.05 10.9 114.05 11.05 Q114.05 12.1 114.45 13.0 114.85 13.85 115.85 14.25 L116.65 14.5 117.5 14.55 117.7 14.55 117.9 14.5 Q119.6 14.4 121.15 13.3 122.7 12.25 123.45 10.8 L123.5 10.65 123.55 10.55 123.65 10.5 123.65 10.4 124.7 10.8 127.95 1.3 133.2 1.3 131.1 7.45 132.4 6.85 133.85 6.55 134.15 6.55 134.45 6.5 136.0 6.8 137.25 7.65 137.75 8.55 137.9 9.45 137.9 10.0 137.7 10.5 137.55 11.05 137.3 11.65 137.15 12.25 136.95 12.85 136.9 12.9 136.85 13.1 136.8 13.25 136.75 13.45 136.75 13.55 136.65 13.75 136.8 13.95 137.0 14.05 137.3 14.0 137.6 13.9 138.3 13.3 138.95 12.55 139.3 12.05 139.6 11.65 139.6 11.55 139.65 11.5 140.35 9.3 141.2 6.8 142.6 6.8 143.9 6.8 145.3 6.8 146.6 6.8 146.25 7.8 145.9 8.75 145.25 10.8 144.55 12.85 144.45 13.25 144.35 13.6 144.5 13.9 144.95 13.95 145.45 13.8 146.15 13.25 146.95 12.25 147.0 12.1 147.0 11.95 Q147.0 10.65 147.75 9.5 148.55 8.35 149.75 7.65 150.6 7.2 151.75 6.9 L154.1 6.5 154.35 6.5 154.65 6.5 156.65 6.75 Q157.6 7.0 158.3 7.6 L158.85 8.4 159.15 9.35 159.15 9.45 159.15 9.55 158.95 10.25 158.6 10.9 157.85 11.4 157.0 11.6 156.9 11.6 156.7 11.6 156.2 11.4 155.75 11.2 155.15 10.65 154.9 9.9 154.9 9.85 154.9 9.75 154.9 9.65 Q154.9 9.0 155.3 8.55 155.7 8.05 156.3 7.9 L156.0 7.85 155.65 7.8 155.45 7.8 155.3 7.85 155.15 7.85 155.0 7.9 Q154.0 8.25 153.35 9.3 152.65 10.3 152.35 11.55 L152.3 12.05 152.3 12.55 Q152.3 13.65 152.85 14.4 153.4 15.25 154.65 15.25 156.8 15.25 158.1 14.05 159.25 13.05 160.05 11.65 160.15 10.8 160.65 10.05 161.25 8.8 162.35 8.0 163.1 7.45 164.2 7.05 L166.3 6.55 166.55 6.5 166.8 6.5 168.5 6.8 Q169.3 7.05 170.0 7.6 L170.3 6.8 172.95 6.8 175.65 6.8 175.3 7.8 174.95 8.8 174.25 10.8 173.55 12.85 173.55 12.9 173.5 13.05 173.45 13.2 173.45 13.4 173.4 13.5 173.4 13.6 173.45 13.8 173.6 13.95 173.75 13.95 173.9 13.95 174.2 13.9 174.55 13.75 175.1 13.25 175.7 12.65 176.1 12.0 176.4 11.55 176.45 11.4 176.5 11.3 176.5 11.2 176.55 11.05 176.85 11.2 177.2 10.9 Q177.75 10.5 178.45 10.5 L178.55 10.5 178.75 10.5 178.85 10.5 178.95 10.55 181.45 7.15 186.65 5.8 186.85 8.75 187.0 11.7 M190.9 14.5 L191.2 14.5 191.55 14.55 Q192.05 14.65 192.5 15.05 193.0 15.4 192.95 16.0 L192.45 16.85 191.55 17.25 191.2 17.3 190.85 17.3 190.65 17.3 190.4 17.25 189.35 16.8 Q188.85 16.45 188.9 15.8 188.95 15.15 189.4 14.9 L190.4 14.5 190.7 14.5 190.9 14.5 M181.95 9.3 L180.3 11.5 180.5 12.0 180.55 12.5 180.5 13.05 180.25 13.5 179.5 14.2 178.5 14.4 178.4 14.4 178.35 14.35 178.25 14.35 178.75 14.8 179.4 15.05 Q180.55 15.05 181.2 14.4 181.9 13.85 181.9 12.65 L181.95 10.95 181.95 9.3 M166.15 10.3 L165.55 11.2 165.25 11.95 165.15 12.25 165.05 12.65 164.95 13.05 164.85 13.5 164.75 13.85 164.75 14.2 164.9 14.9 165.4 15.15 Q166.2 15.15 166.85 14.5 L167.85 13.05 168.25 12.25 168.6 11.55 169.1 10.05 169.25 9.0 169.15 8.4 168.7 8.25 168.4 8.3 168.1 8.35 Q167.6 8.6 167.05 9.1 L166.15 10.3 M147.65 4.25 L147.0 5.15 146.1 5.65 145.9 5.7 145.75 5.75 145.3 5.8 144.85 5.8 143.6 5.7 Q143.0 5.55 142.55 5.2 L142.0 4.5 141.8 3.75 141.85 3.35 142.05 2.9 143.1 2.15 144.35 1.85 144.55 1.85 144.65 1.85 145.3 1.9 145.85 2.0 146.05 2.05 146.15 2.15 147.25 2.8 Q147.7 3.3 147.7 3.9 L147.7 4.1 147.65 4.25 M103.05 11.7 Q102.4 11.7 101.95 12.15 L101.2 13.3 101.1 13.75 101.0 14.05 101.45 14.0 101.9 13.95 103.1 13.4 Q103.65 13.0 103.65 12.3 L103.5 11.8 103.05 11.7 M103.1 11.0 L103.75 11.15 103.85 11.2 103.9 11.2 Q104.45 11.3 104.9 11.65 105.3 12.0 105.35 12.65 105.35 13.55 104.55 14.05 103.75 14.6 102.75 14.9 L101.75 15.05 100.85 15.1 101.4 16.05 Q101.75 16.4 102.35 16.4 103.7 16.4 104.55 15.65 105.4 14.95 105.95 13.85 L106.8 14.25 105.8 15.8 Q105.3 16.5 104.35 16.95 L103.15 17.35 101.85 17.5 101.65 17.5 101.45 17.4 100.65 17.35 99.9 17.15 98.25 16.1 98.0 15.75 97.35 16.5 Q96.45 17.4 94.85 17.4 L93.75 17.2 93.0 16.4 91.85 17.2 90.55 17.4 89.3 17.2 88.3 16.45 87.85 15.7 87.6 14.95 87.6 14.8 87.6 14.65 Q87.6 13.9 88.0 13.15 L89.15 11.9 Q89.6 11.5 90.3 11.25 L91.6 10.95 91.8 10.95 91.9 10.95 93.0 11.15 Q93.55 11.25 93.95 11.65 L95.3 7.75 96.95 7.75 98.55 7.75 97.35 11.3 96.1 14.95 96.1 15.0 96.05 15.1 96.05 15.25 96.05 15.35 96.05 15.4 96.05 15.5 96.1 15.65 96.2 15.65 96.25 15.65 96.45 15.55 96.65 15.5 97.1 15.15 97.4 14.75 97.6 14.6 97.6 14.4 97.65 13.9 97.75 13.4 Q98.1 12.35 99.15 11.75 100.25 11.2 101.4 11.05 L101.9 11.0 102.4 10.95 103.1 11.0 M92.9 12.05 L92.8 12.05 92.7 12.1 Q92.35 12.15 92.0 12.55 L91.45 13.3 91.1 13.9 90.85 14.35 90.8 14.5 90.75 14.7 90.7 15.0 90.65 15.35 90.6 15.5 90.6 15.7 90.7 16.15 Q90.8 16.35 91.05 16.35 91.6 16.35 92.0 15.9 L92.65 15.05 92.8 14.65 93.0 14.25 93.1 14.05 93.15 13.75 93.3 13.5 93.35 13.15 93.4 12.9 93.4 12.7 93.3 12.25 92.9 12.05 M86.55 12.25 Q86.75 14.55 85.05 15.75 83.45 16.95 81.5 17.15 L81.05 17.2 80.6 17.2 80.0 17.2 79.4 17.1 77.85 16.75 Q77.1 16.45 76.5 15.8 L76.15 15.35 75.8 15.7 Q75.05 16.45 74.05 16.45 L73.25 16.35 72.55 16.0 70.0 17.35 67.1 17.95 66.85 17.95 66.55 17.95 63.8 17.55 Q62.5 17.1 61.5 16.25 L60.3 14.7 Q59.95 13.9 59.95 13.05 59.95 11.75 60.75 10.55 61.5 9.4 62.75 8.55 63.85 7.85 65.25 7.4 L68.1 7.0 68.5 7.05 69.0 7.05 71.3 7.55 Q72.4 7.95 73.3 8.75 L74.4 10.25 Q74.8 11.05 74.8 12.0 L74.7 12.7 74.55 13.3 75.25 13.15 75.8 12.65 75.95 12.5 Q76.1 11.8 76.75 11.4 77.3 11.0 78.0 11.0 L78.1 11.0 78.3 11.0 78.4 11.0 78.5 11.05 81.0 7.65 86.2 6.35 86.4 9.3 86.55 12.25 M81.5 9.8 L79.85 12.0 80.05 12.5 80.15 13.05 80.05 13.55 79.8 14.0 79.05 14.7 78.05 14.95 77.95 14.95 77.9 14.9 77.85 14.9 78.3 15.35 79.0 15.55 Q80.15 15.55 80.75 14.95 81.45 14.35 81.45 13.15 L81.5 11.5 81.5 9.8 M68.45 8.55 L67.75 8.95 67.55 9.25 67.25 9.5 Q66.6 10.2 66.3 11.2 65.85 12.1 65.7 13.15 L65.65 13.8 65.65 14.4 65.65 14.8 65.7 15.35 66.0 16.15 66.6 16.55 Q67.3 16.55 67.9 16.05 L68.75 14.95 68.9 14.7 69.05 14.4 68.35 13.65 68.1 12.7 68.1 12.55 68.1 12.5 Q68.25 11.65 68.75 10.95 69.25 10.2 70.15 10.0 L69.8 8.75 Q69.5 8.35 69.1 8.35 L68.45 8.55 M53.4 8.8 L52.9 9.15 51.8 10.5 50.9 12.1 50.45 13.4 Q50.3 13.95 50.3 14.4 L50.35 14.8 50.45 15.1 50.7 15.4 51.0 15.5 Q52.15 15.5 52.85 14.55 L54.0 12.35 54.45 10.85 54.8 9.7 54.8 9.5 54.8 9.4 54.6 9.05 54.3 8.75 54.2 8.7 54.15 8.7 54.05 8.65 54.0 8.65 53.4 8.8 M55.6 7.25 L60.85 7.25 59.9 10.2 58.9 13.1 57.9 16.05 56.85 19.0 Q56.2 20.85 54.4 22.05 52.5 23.25 50.35 23.55 L49.85 23.6 49.3 23.6 47.65 23.4 Q46.85 23.2 46.15 22.8 L45.15 21.85 44.6 20.6 44.55 20.3 44.55 20.1 Q44.55 19.4 45.0 18.8 45.4 18.3 46.35 18.1 L46.45 18.05 46.6 18.05 46.7 18.05 46.8 18.05 Q47.85 18.05 48.4 18.7 49.05 19.35 49.05 20.15 L49.05 20.2 Q49.05 20.75 48.7 21.3 L47.6 22.05 47.7 22.1 47.9 22.1 48.0 22.15 48.1 22.15 Q49.55 22.2 50.35 21.1 L51.7 18.75 52.05 17.7 52.3 16.8 51.55 17.1 50.75 17.2 50.4 17.25 50.0 17.25 Q48.25 17.25 46.9 16.15 46.2 15.65 45.9 14.8 45.0 15.85 43.6 16.6 L41.7 17.25 39.6 17.4 39.25 17.4 39.0 17.35 37.65 17.25 36.45 16.9 Q34.85 16.4 33.8 15.25 L33.45 14.75 32.35 15.85 30.65 16.85 28.45 17.2 Q27.25 17.2 26.4 16.65 25.5 16.1 25.3 14.9 L23.1 16.55 Q21.85 17.25 20.4 17.25 18.95 17.25 18.25 16.35 17.55 15.45 17.55 14.25 L17.6 13.4 17.85 12.65 18.35 11.25 18.75 9.9 19.2 8.55 19.75 7.2 24.95 7.2 24.4 8.75 23.95 10.25 23.35 11.8 22.85 13.4 22.8 13.6 22.7 13.85 22.85 14.15 23.2 14.25 23.8 14.0 24.75 13.25 25.75 11.65 26.5 9.75 26.8 8.8 27.15 7.95 27.2 7.75 27.25 7.55 27.25 7.45 27.3 7.3 27.35 7.3 27.35 7.2 28.25 7.2 29.1 7.2 30.8 7.2 32.6 7.2 32.1 8.7 31.55 10.2 31.05 11.75 30.5 13.25 30.4 13.65 30.35 13.95 30.5 14.3 30.7 14.35 31.05 14.3 31.5 14.15 31.75 13.9 32.05 13.65 32.75 12.8 32.75 12.5 32.85 11.75 33.05 10.95 Q33.6 9.3 35.3 8.35 36.95 7.45 38.85 7.15 L39.65 7.1 40.5 7.05 41.55 7.1 42.6 7.3 42.75 7.3 42.9 7.4 Q43.7 7.6 44.45 8.2 45.15 8.7 45.15 9.65 45.2 11.15 43.9 12.0 42.6 12.85 41.05 13.25 L39.4 13.55 38.05 13.6 Q38.2 14.6 38.8 15.15 39.4 15.7 40.4 15.7 42.5 15.7 43.9 14.55 L45.55 12.7 Q45.65 10.5 47.5 8.9 49.45 7.15 51.8 6.9 L52.1 6.9 52.35 6.85 54.0 7.1 Q54.75 7.3 55.4 7.85 L55.6 7.25 M42.2 8.4 L41.5 8.2 Q40.5 8.2 39.75 9.0 39.0 9.8 38.6 10.8 L38.35 11.4 38.25 12.05 38.9 11.95 39.6 11.75 Q40.7 11.5 41.55 10.85 42.45 10.2 42.45 9.1 L42.2 8.4 M14.15 0.0 L14.45 0.0 17.7 0.2 20.65 0.85 18.35 7.5 16.1 14.2 Q14.95 17.5 11.95 19.45 9.05 21.45 5.65 21.45 L4.5 21.4 3.3 21.15 3.1 21.15 2.95 21.1 Q1.85 20.75 0.95 20.1 0.0 19.4 0.0 18.25 L0.1 17.95 0.15 17.6 Q0.35 16.75 1.05 16.25 1.75 15.8 2.55 15.8 L3.55 16.0 4.4 16.5 4.9 17.0 4.7 17.1 4.4 17.2 3.55 17.85 Q3.1 18.25 3.2 18.8 L3.2 18.85 3.2 19.0 Q3.25 19.45 3.6 19.65 L4.4 19.9 Q5.35 19.95 6.15 19.1 L7.6 17.25 8.1 16.2 8.55 15.3 9.45 12.65 10.3 10.0 11.3 7.3 12.15 4.75 12.2 4.55 12.25 4.4 12.4 3.95 12.5 3.5 12.55 3.15 12.55 2.9 12.3 2.05 Q12.15 1.7 11.5 1.7 10.2 1.7 9.1 2.9 7.95 4.05 7.7 5.4 L7.65 5.7 7.65 6.05 7.7 6.55 7.85 7.1 Q8.05 7.75 8.55 7.95 L9.5 8.3 9.65 8.35 9.85 8.35 9.65 8.55 9.55 8.75 8.95 9.3 8.25 9.75 7.55 10.0 6.9 10.1 Q5.75 10.1 5.0 9.15 4.2 8.25 4.15 6.9 4.1 6.45 4.2 6.0 L4.5 5.0 Q5.6 2.3 8.25 1.2 10.9 0.1 13.85 0.0 L14.15 0.0" fill="none" stroke="url(#gradient0)" stroke-linecap="round" stroke-linejoin="round" stroke-width="3.0"/>
    <path d="M254.45 10.55 L254.7 11.0 254.7 11.25 254.7 11.5 Q254.7 12.15 254.3 12.5 253.9 12.9 253.4 12.9 L253.3 12.9 252.65 12.7 Q252.3 12.4 252.1 11.8 L252.0 11.6 251.75 11.55 251.35 11.75 250.9 12.35 Q250.45 12.9 250.1 13.6 L249.6 15.05 249.35 15.65 249.2 16.2 249.15 16.45 249.0 16.65 245.6 16.65 247.15 12.4 247.15 12.25 247.15 12.15 247.0 11.9 246.65 11.8 Q246.2 11.9 245.85 12.3 L245.2 13.15 245.1 13.3 245.1 13.4 245.2 13.45 Q244.55 14.9 243.6 15.85 242.65 16.85 240.9 16.85 L240.8 16.85 239.7 16.55 Q239.15 16.35 238.9 15.75 L237.75 16.5 236.5 16.85 236.3 16.85 236.15 16.85 234.9 16.6 Q234.3 16.4 233.85 15.8 L233.3 14.9 233.2 13.95 Q233.2 13.1 233.6 12.35 234.05 11.55 234.75 10.95 235.35 10.55 236.0 10.3 L237.45 10.05 237.6 10.0 237.75 10.0 238.9 10.15 Q239.45 10.3 239.85 10.75 L240.1 10.15 241.9 10.15 243.65 10.15 243.45 10.85 243.2 11.5 242.75 12.85 242.3 14.2 242.3 14.25 242.25 14.3 242.25 14.4 242.15 14.55 242.15 14.65 242.15 14.7 242.15 14.8 242.3 14.95 242.4 14.95 242.45 14.95 242.7 14.9 242.9 14.8 243.3 14.5 243.65 14.05 243.95 13.65 244.15 13.3 244.2 13.2 244.15 13.15 Q244.6 11.9 245.5 10.9 246.45 9.9 247.8 9.8 L248.1 9.8 248.4 9.8 249.55 10.15 250.45 10.9 Q250.85 10.6 251.3 10.4 L252.25 10.0 252.65 9.85 253.1 9.85 253.6 9.9 254.15 10.15 254.45 10.55 M238.65 11.2 L237.9 11.7 237.3 12.5 236.95 13.1 236.7 13.6 236.65 13.8 236.6 14.05 236.5 14.35 236.45 14.65 236.45 14.9 236.35 15.1 Q236.35 15.4 236.5 15.55 236.6 15.75 236.85 15.75 237.35 15.75 237.75 15.3 L238.5 14.3 238.75 13.8 238.95 13.3 239.3 12.35 239.4 11.6 239.35 11.25 239.0 11.15 238.85 11.15 238.65 11.2 M224.0 11.9 L223.95 11.65 223.75 11.55 Q223.4 11.55 223.1 11.8 L222.6 12.45 222.4 12.85 222.25 13.2 221.95 14.05 221.65 14.95 221.3 15.8 221.05 16.65 217.4 16.65 217.8 15.55 218.2 14.4 218.55 13.3 218.95 12.25 219.0 12.0 219.0 11.8 218.95 11.6 218.75 11.5 218.5 11.55 218.35 11.6 218.1 11.75 217.9 11.95 217.35 12.85 216.65 14.4 216.55 14.75 216.25 15.5 216.05 16.2 215.85 16.65 212.45 16.65 212.85 15.5 212.65 15.75 Q212.1 16.25 211.45 16.25 L210.9 16.15 210.45 16.0 Q209.7 16.55 208.75 16.9 L206.8 17.25 206.6 17.25 206.45 17.25 204.6 16.95 Q203.75 16.65 203.05 16.1 202.5 15.65 202.3 15.1 L202.3 15.05 202.1 15.25 200.65 16.4 199.35 16.75 198.0 16.9 197.85 16.9 197.75 16.9 195.7 16.5 Q194.7 16.1 194.1 15.35 L193.6 14.5 193.45 13.6 Q193.45 12.75 193.95 12.0 194.5 11.2 195.3 10.75 195.8 10.45 196.6 10.2 L198.15 10.0 198.4 10.0 198.55 10.0 199.9 10.15 Q200.5 10.3 200.95 10.75 L201.3 11.25 201.5 11.9 201.5 12.0 201.45 12.45 201.2 12.9 200.7 13.25 200.1 13.4 200.05 13.4 199.95 13.3 199.6 13.25 199.25 13.1 198.9 12.75 198.65 12.25 198.65 12.05 Q198.65 11.65 198.95 11.35 L199.65 10.9 199.4 10.85 199.2 10.85 199.1 10.85 198.95 10.85 198.85 10.9 198.8 10.9 Q198.1 11.15 197.65 11.8 197.2 12.5 197.0 13.3 L196.95 13.65 196.95 14.0 Q196.95 14.7 197.35 15.25 197.7 15.8 198.55 15.8 200.0 15.8 200.85 15.0 201.6 14.35 202.2 13.3 L202.6 12.35 Q203.1 11.55 203.95 10.95 204.65 10.5 205.55 10.2 L207.45 10.0 207.75 10.0 208.05 10.0 209.6 10.3 Q210.35 10.55 210.9 11.15 211.45 11.55 211.65 12.1 L211.95 13.25 211.9 13.75 211.75 14.2 212.25 14.0 212.6 13.75 212.8 13.45 213.05 13.05 213.6 13.3 214.65 10.2 218.1 10.2 218.0 10.6 Q218.4 10.3 218.9 10.15 L220.0 10.0 220.05 10.0 220.15 10.0 220.75 10.0 221.2 10.1 Q221.6 10.25 221.9 10.5 L222.35 11.2 Q222.9 10.6 223.6 10.3 L225.05 10.0 225.55 10.05 226.15 10.2 227.25 10.95 Q227.6 11.5 227.6 12.15 L227.5 12.55 227.4 13.05 227.3 13.4 227.2 13.8 227.1 13.9 227.05 14.0 226.95 14.5 226.9 14.9 226.9 15.0 226.95 15.0 227.05 15.0 227.3 15.0 227.45 14.9 228.0 14.5 228.45 13.9 228.75 13.4 228.95 13.05 229.9 13.45 228.95 15.05 229.15 14.9 Q229.6 14.6 230.1 14.5 L230.4 14.5 230.6 14.5 230.9 14.5 231.25 14.55 Q231.75 14.65 232.25 15.05 232.7 15.4 232.65 16.0 232.6 16.55 232.15 16.85 L231.25 17.25 230.9 17.3 230.55 17.3 230.35 17.3 230.1 17.25 229.05 16.8 Q228.55 16.45 228.6 15.8 L228.8 15.25 228.2 15.85 Q227.3 16.85 225.55 16.85 L225.3 16.85 225.0 16.8 224.2 16.6 223.55 16.1 223.25 15.55 223.2 15.0 223.2 14.75 223.2 14.5 223.4 13.9 223.6 13.25 223.65 13.1 223.8 12.75 223.85 12.55 223.9 12.4 223.95 12.1 224.0 11.9 M206.95 11.6 L206.25 12.75 205.85 14.05 205.85 14.5 205.8 14.9 205.85 15.15 205.85 15.5 206.1 16.1 206.5 16.35 Q206.95 16.35 207.3 16.0 L207.9 15.3 208.0 15.1 208.1 14.95 207.65 14.4 207.5 13.75 207.5 13.6 Q207.5 13.1 207.9 12.55 208.25 12.1 208.85 11.95 L208.6 11.15 Q208.4 10.9 208.1 10.9 L207.7 10.95 207.3 11.25 207.1 11.4 206.95 11.6 M187.0 11.7 Q187.2 14.0 185.5 15.25 183.9 16.45 181.95 16.6 L181.5 16.65 181.05 16.65 180.45 16.65 179.8 16.55 178.25 16.2 Q177.55 15.9 176.95 15.3 176.55 14.9 176.45 14.35 L175.55 15.35 Q174.15 16.8 171.5 16.8 L171.4 16.8 Q170.45 16.8 169.65 16.4 168.9 16.05 168.5 15.15 L166.85 16.25 164.9 16.8 164.65 16.85 164.35 16.85 162.55 16.45 Q161.6 16.1 160.9 15.25 L160.25 14.05 160.0 14.35 Q159.25 15.4 157.8 16.1 L155.9 16.65 153.8 16.9 153.6 16.9 153.45 16.9 150.35 16.25 Q148.9 15.75 148.0 14.55 L147.7 14.15 146.45 15.45 144.85 16.45 142.95 16.8 142.8 16.8 142.7 16.8 141.85 16.75 141.05 16.55 Q140.0 16.2 139.55 15.45 L139.3 14.75 138.75 15.35 Q137.3 16.8 134.7 16.8 L134.35 16.8 134.05 16.8 132.75 16.45 131.75 15.65 131.4 14.8 131.25 13.95 131.25 13.75 131.25 13.55 131.5 12.45 131.85 11.4 131.95 11.15 132.15 10.65 132.25 10.45 132.3 10.15 132.4 9.75 132.4 9.4 132.35 9.0 132.0 8.8 Q131.5 8.8 131.05 9.25 L130.3 10.2 130.0 10.75 129.85 11.15 129.25 12.75 128.75 14.35 128.35 15.45 127.95 16.55 122.7 16.55 123.95 12.9 Q122.7 14.5 121.15 15.3 118.7 16.55 115.25 16.55 112.15 16.55 109.8 14.6 107.35 12.55 107.35 9.25 107.35 7.05 108.5 5.2 109.65 3.35 111.45 2.15 112.9 1.1 114.8 0.55 116.65 0.0 118.7 0.0 L119.3 0.0 119.95 0.05 122.2 0.45 Q123.3 0.75 124.15 1.55 L124.75 2.4 124.95 3.4 Q124.95 4.45 124.2 5.25 123.45 6.1 122.3 6.15 L121.05 5.95 120.05 5.25 119.85 5.05 119.6 4.9 119.8 4.8 119.95 4.75 120.85 4.1 121.55 3.05 121.6 2.9 121.6 2.65 Q121.6 2.2 121.25 1.9 L120.3 1.65 Q118.85 1.65 117.65 2.9 116.5 4.05 115.7 5.55 L115.1 6.75 114.65 7.85 114.25 9.25 114.05 10.8 114.05 10.9 114.05 11.05 Q114.05 12.1 114.45 13.0 114.85 13.85 115.85 14.25 L116.65 14.5 117.5 14.55 117.7 14.55 117.9 14.5 Q119.6 14.4 121.15 13.3 122.7 12.25 123.45 10.8 L123.5 10.65 123.55 10.55 123.65 10.5 123.65 10.4 124.7 10.8 127.95 1.3 133.2 1.3 131.1 7.45 132.4 6.85 133.85 6.55 134.15 6.55 134.45 6.5 136.0 6.8 137.25 7.65 137.75 8.55 137.9 9.45 137.9 10.0 137.7 10.5 137.55 11.05 137.3 11.65 137.15 12.25 136.95 12.85 136.9 12.9 136.85 13.1 136.8 13.25 136.75 13.45 136.75 13.55 136.65 13.75 136.8 13.95 137.0 14.05 137.3 14.0 137.6 13.9 138.3 13.3 138.95 12.55 139.3 12.05 139.6 11.65 139.6 11.55 139.65 11.5 140.35 9.3 141.2 6.8 142.6 6.8 143.9 6.8 145.3 6.8 146.6 6.8 146.25 7.8 145.9 8.75 145.25 10.8 144.55 12.85 144.45 13.25 144.35 13.6 144.5 13.9 144.95 13.95 145.45 13.8 146.15 13.25 146.95 12.25 147.0 12.1 147.0 11.95 Q147.0 10.65 147.75 9.5 148.55 8.35 149.75 7.65 150.6 7.2 151.75 6.9 L154.1 6.5 154.35 6.5 154.65 6.5 156.65 6.75 Q157.6 7.0 158.3 7.6 L158.85 8.4 159.15 9.35 159.15 9.45 159.15 9.55 158.95 10.25 158.6 10.9 157.85 11.4 157.0 11.6 156.9 11.6 156.7 11.6 156.2 11.4 155.75 11.2 155.15 10.65 154.9 9.9 154.9 9.85 154.9 9.75 154.9 9.65 Q154.9 9.0 155.3 8.55 155.7 8.05 156.3 7.9 L156.0 7.85 155.65 7.8 155.45 7.8 155.3 7.85 155.15 7.85 155.0 7.9 Q154.0 8.25 153.35 9.3 152.65 10.3 152.35 11.55 L152.3 12.05 152.3 12.55 Q152.3 13.65 152.85 14.4 153.4 15.25 154.65 15.25 156.8 15.25 158.1 14.05 159.25 13.05 160.05 11.65 160.15 10.8 160.65 10.05 161.25 8.8 162.35 8.0 163.1 7.45 164.2 7.05 L166.3 6.55 166.55 6.5 166.8 6.5 168.5 6.8 Q169.3 7.05 170.0 7.6 L170.3 6.8 172.95 6.8 175.65 6.8 175.3 7.8 174.95 8.8 174.25 10.8 173.55 12.85 173.55 12.9 173.5 13.05 173.45 13.2 173.45 13.4 173.4 13.5 173.4 13.6 173.45 13.8 173.6 13.95 173.75 13.95 173.9 13.95 174.2 13.9 174.55 13.75 175.1 13.25 175.7 12.65 176.1 12.0 176.4 11.55 176.45 11.4 176.5 11.3 176.5 11.2 176.55 11.05 176.85 11.2 177.2 10.9 Q177.75 10.5 178.45 10.5 L178.55 10.5 178.75 10.5 178.85 10.5 178.95 10.55 181.45 7.15 186.65 5.8 186.85 8.75 187.0 11.7 M190.7 14.5 L190.9 14.5 191.2 14.5 191.55 14.55 Q192.05 14.65 192.5 15.05 193.0 15.4 192.95 16.0 L192.45 16.85 191.55 17.25 191.2 17.3 190.85 17.3 190.65 17.3 190.4 17.25 189.35 16.8 Q188.85 16.45 188.9 15.8 188.95 15.15 189.4 14.9 L190.4 14.5 190.7 14.5 M181.95 9.3 L180.3 11.5 180.5 12.0 180.55 12.5 180.5 13.05 180.25 13.5 179.5 14.2 178.5 14.4 178.4 14.4 178.35 14.35 178.25 14.35 178.75 14.8 179.4 15.05 Q180.55 15.05 181.2 14.4 181.9 13.85 181.9 12.65 L181.95 10.95 181.95 9.3 M166.15 10.3 L165.55 11.2 165.25 11.95 165.15 12.25 165.05 12.65 164.95 13.05 164.85 13.5 164.75 13.85 164.75 14.2 164.9 14.9 165.4 15.15 Q166.2 15.15 166.85 14.5 L167.85 13.05 168.25 12.25 168.6 11.55 169.1 10.05 169.25 9.0 169.15 8.4 168.7 8.25 168.4 8.3 168.1 8.35 Q167.6 8.6 167.05 9.1 L166.15 10.3 M147.65 4.25 L147.0 5.15 146.1 5.65 145.9 5.7 145.75 5.75 145.3 5.8 144.85 5.8 143.6 5.7 Q143.0 5.55 142.55 5.2 L142.0 4.5 141.8 3.75 141.85 3.35 142.05 2.9 143.1 2.15 144.35 1.85 144.55 1.85 144.65 1.85 145.3 1.9 145.85 2.0 146.05 2.05 146.15 2.15 147.25 2.8 Q147.7 3.3 147.7 3.9 L147.7 4.1 147.65 4.25 M103.05 11.7 Q102.4 11.7 101.95 12.15 L101.2 13.3 101.1 13.75 101.0 14.05 101.45 14.0 101.9 13.95 103.1 13.4 Q103.65 13.0 103.65 12.3 L103.5 11.8 103.05 11.7 M103.1 11.0 L103.75 11.15 103.85 11.2 103.9 11.2 Q104.45 11.3 104.9 11.65 105.3 12.0 105.35 12.65 105.35 13.55 104.55 14.05 103.75 14.6 102.75 14.9 L101.75 15.05 100.85 15.1 101.4 16.05 Q101.75 16.4 102.35 16.4 103.7 16.4 104.55 15.65 105.4 14.95 105.95 13.85 L106.8 14.25 105.8 15.8 Q105.3 16.5 104.35 16.95 L103.15 17.35 101.85 17.5 101.65 17.5 101.45 17.4 100.65 17.35 99.9 17.15 98.25 16.1 98.0 15.75 97.35 16.5 Q96.45 17.4 94.85 17.4 L93.75 17.2 93.0 16.4 91.85 17.2 90.55 17.4 89.3 17.2 88.3 16.45 87.85 15.7 87.6 14.95 87.6 14.8 87.6 14.65 Q87.6 13.9 88.0 13.15 L89.15 11.9 Q89.6 11.5 90.3 11.25 L91.6 10.95 91.8 10.95 91.9 10.95 93.0 11.15 Q93.55 11.25 93.95 11.65 L95.3 7.75 96.95 7.75 98.55 7.75 97.35 11.3 96.1 14.95 96.1 15.0 96.05 15.1 96.05 15.25 96.05 15.35 96.05 15.4 96.05 15.5 96.1 15.65 96.2 15.65 96.25 15.65 96.45 15.55 96.65 15.5 97.1 15.15 97.4 14.75 97.6 14.6 97.6 14.4 97.65 13.9 97.75 13.4 Q98.1 12.35 99.15 11.75 100.25 11.2 101.4 11.05 L101.9 11.0 102.4 10.95 103.1 11.0 M92.9 12.05 L92.8 12.05 92.7 12.1 Q92.35 12.15 92.0 12.55 L91.45 13.3 91.1 13.9 90.85 14.35 90.8 14.5 90.75 14.7 90.7 15.0 90.65 15.35 90.6 15.5 90.6 15.7 90.7 16.15 Q90.8 16.35 91.05 16.35 91.6 16.35 92.0 15.9 L92.65 15.05 92.8 14.65 93.0 14.25 93.1 14.05 93.15 13.75 93.3 13.5 93.35 13.15 93.4 12.9 93.4 12.7 93.3 12.25 92.9 12.05 M86.55 12.25 Q86.75 14.55 85.05 15.75 83.45 16.95 81.5 17.15 L81.05 17.2 80.6 17.2 80.0 17.2 79.4 17.1 77.85 16.75 Q77.1 16.45 76.5 15.8 L76.15 15.35 75.8 15.7 Q75.05 16.45 74.05 16.45 L73.25 16.35 72.55 16.0 70.0 17.35 67.1 17.95 66.85 17.95 66.55 17.95 63.8 17.55 Q62.5 17.1 61.5 16.25 L60.3 14.7 Q59.95 13.9 59.95 13.05 59.95 11.75 60.75 10.55 61.5 9.4 62.75 8.55 63.85 7.85 65.25 7.4 L68.1 7.0 68.5 7.05 69.0 7.05 71.3 7.55 Q72.4 7.95 73.3 8.75 L74.4 10.25 Q74.8 11.05 74.8 12.0 L74.7 12.7 74.55 13.3 75.25 13.15 75.8 12.65 75.95 12.5 Q76.1 11.8 76.75 11.4 77.3 11.0 78.0 11.0 L78.1 11.0 78.3 11.0 78.4 11.0 78.5 11.05 81.0 7.65 86.2 6.35 86.4 9.3 86.55 12.25 M81.5 9.8 L79.85 12.0 80.05 12.5 80.15 13.05 80.05 13.55 79.8 14.0 79.05 14.7 78.05 14.95 77.95 14.95 77.9 14.9 77.85 14.9 78.3 15.35 79.0 15.55 Q80.15 15.55 80.75 14.95 81.45 14.35 81.45 13.15 L81.5 11.5 81.5 9.8 M68.45 8.55 L67.75 8.95 67.55 9.25 67.25 9.5 Q66.6 10.2 66.3 11.2 65.85 12.1 65.7 13.15 L65.65 13.8 65.65 14.4 65.65 14.8 65.7 15.35 66.0 16.15 66.6 16.55 Q67.3 16.55 67.9 16.05 L68.75 14.95 68.9 14.7 69.05 14.4 68.35 13.65 68.1 12.7 68.1 12.55 68.1 12.5 Q68.25 11.65 68.75 10.95 69.25 10.2 70.15 10.0 L69.8 8.75 Q69.5 8.35 69.1 8.35 L68.45 8.55 M53.4 8.8 L52.9 9.15 51.8 10.5 50.9 12.1 50.45 13.4 Q50.3 13.95 50.3 14.4 L50.35 14.8 50.45 15.1 50.7 15.4 51.0 15.5 Q52.15 15.5 52.85 14.55 L54.0 12.35 54.45 10.85 54.8 9.7 54.8 9.5 54.8 9.4 54.6 9.05 54.3 8.75 54.2 8.7 54.15 8.7 54.05 8.65 54.0 8.65 53.4 8.8 M55.6 7.25 L60.85 7.25 59.9 10.2 58.9 13.1 57.9 16.05 56.85 19.0 Q56.2 20.85 54.4 22.05 52.5 23.25 50.35 23.55 L49.85 23.6 49.3 23.6 47.65 23.4 Q46.85 23.2 46.15 22.8 L45.15 21.85 44.6 20.6 44.55 20.3 44.55 20.1 Q44.55 19.4 45.0 18.8 45.4 18.3 46.35 18.1 L46.45 18.05 46.6 18.05 46.7 18.05 46.8 18.05 Q47.85 18.05 48.4 18.7 49.05 19.35 49.05 20.15 L49.05 20.2 Q49.05 20.75 48.7 21.3 L47.6 22.05 47.7 22.1 47.9 22.1 48.0 22.15 48.1 22.15 Q49.55 22.2 50.35 21.1 L51.7 18.75 52.05 17.7 52.3 16.8 51.55 17.1 50.75 17.2 50.4 17.25 50.0 17.25 Q48.25 17.25 46.9 16.15 46.2 15.65 45.9 14.8 45.0 15.85 43.6 16.6 L41.7 17.25 39.6 17.4 39.25 17.4 39.0 17.35 37.65 17.25 36.45 16.9 Q34.85 16.4 33.8 15.25 L33.45 14.75 32.35 15.85 30.65 16.85 28.45 17.2 Q27.25 17.2 26.4 16.65 25.5 16.1 25.3 14.9 L23.1 16.55 Q21.85 17.25 20.4 17.25 18.95 17.25 18.25 16.35 17.55 15.45 17.55 14.25 L17.6 13.4 17.85 12.65 18.35 11.25 18.75 9.9 19.2 8.55 19.75 7.2 24.95 7.2 24.4 8.75 23.95 10.25 23.35 11.8 22.85 13.4 22.8 13.6 22.7 13.85 22.85 14.15 23.2 14.25 23.8 14.0 24.75 13.25 25.75 11.65 26.5 9.75 26.8 8.8 27.15 7.95 27.2 7.75 27.25 7.55 27.25 7.45 27.3 7.3 27.35 7.3 27.35 7.2 28.25 7.2 29.1 7.2 30.8 7.2 32.6 7.2 32.1 8.7 31.55 10.2 31.05 11.75 30.5 13.25 30.4 13.65 30.35 13.95 30.5 14.3 30.7 14.35 31.05 14.3 31.5 14.15 31.75 13.9 32.05 13.65 32.75 12.8 32.75 12.5 32.85 11.75 33.05 10.95 Q33.6 9.3 35.3 8.35 36.95 7.45 38.85 7.15 L39.65 7.1 40.5 7.05 41.55 7.1 42.6 7.3 42.75 7.3 42.9 7.4 Q43.7 7.6 44.45 8.2 45.15 8.7 45.15 9.65 45.2 11.15 43.9 12.0 42.6 12.85 41.05 13.25 L39.4 13.55 38.05 13.6 Q38.2 14.6 38.8 15.15 39.4 15.7 40.4 15.7 42.5 15.7 43.9 14.55 L45.55 12.7 Q45.65 10.5 47.5 8.9 49.45 7.15 51.8 6.9 L52.1 6.9 52.35 6.85 54.0 7.1 Q54.75 7.3 55.4 7.85 L55.6 7.25 M42.2 8.4 L41.5 8.2 Q40.5 8.2 39.75 9.0 39.0 9.8 38.6 10.8 L38.35 11.4 38.25 12.05 38.9 11.95 39.6 11.75 Q40.7 11.5 41.55 10.85 42.45 10.2 42.45 9.1 L42.2 8.4 M14.15 0.0 L14.45 0.0 17.7 0.2 20.65 0.85 18.35 7.5 16.1 14.2 Q14.95 17.5 11.95 19.45 9.05 21.45 5.65 21.45 L4.5 21.4 3.3 21.15 3.1 21.15 2.95 21.1 Q1.85 20.75 0.95 20.1 0.0 19.4 0.0 18.25 L0.1 17.95 0.15 17.6 Q0.35 16.75 1.05 16.25 1.75 15.8 2.55 15.8 L3.55 16.0 4.4 16.5 4.9 17.0 4.7 17.1 4.4 17.2 3.55 17.85 Q3.1 18.25 3.2 18.8 L3.2 18.85 3.2 19.0 Q3.25 19.45 3.6 19.65 L4.4 19.9 Q5.35 19.95 6.15 19.1 L7.6 17.25 8.1 16.2 8.55 15.3 9.45 12.65 10.3 10.0 11.3 7.3 12.15 4.75 12.2 4.55 12.25 4.4 12.4 3.95 12.5 3.5 12.55 3.15 12.55 2.9 12.3 2.05 Q12.15 1.7 11.5 1.7 10.2 1.7 9.1 2.9 7.95 4.05 7.7 5.4 L7.65 5.7 7.65 6.05 7.7 6.55 7.85 7.1 Q8.05 7.75 8.55 7.95 L9.5 8.3 9.65 8.35 9.85 8.35 9.65 8.55 9.55 8.75 8.95 9.3 8.25 9.75 7.55 10.0 6.9 10.1 Q5.75 10.1 5.0 9.15 4.2 8.25 4.15 6.9 4.1 6.45 4.2 6.0 L4.5 5.0 Q5.6 2.3 8.25 1.2 10.9 0.1 13.85 0.0 L14.15 0.0" fill="#ffffff" fill-rule="evenodd" stroke="none"/>
  </g>
  <defs>
    <linearGradient gradientTransform="matrix(0.0, 0.0121, -0.0065, 0.0, 209.9, 11.8)" gradientUnits="userSpaceOnUse" id="gradient0" spreadMethod="pad" x1="-819.2" x2="819.2">
      <stop offset="0.0" stop-color="#ef019d"/>
      <stop offset="1.0" stop-color="#5a015f"/>
    </linearGradient>
  </defs>
</svg>
