<?xml version="1.0" encoding="UTF-8" standalone="no"?>
<svg xmlns:xlink="http://www.w3.org/1999/xlink" height="14.5px" width="14.9px" xmlns="http://www.w3.org/2000/svg">
  <g transform="matrix(1.0, 0.0, 0.0, 1.0, 0.75, 0.75)">
    <path d="M10.8 10.2 L10.8 13.0 2.45 13.0 2.45 10.1 1.95 9.7 Q0.0 8.05 0.0 5.7 0.0 3.35 1.95 1.65 3.95 0.0 6.7 0.0 9.5 0.0 11.4 1.65 13.4 3.35 13.4 5.7 13.4 8.05 11.4 9.7 L10.8 10.2" fill="#e1e1e1" fill-rule="evenodd" stroke="none"/>
    <path d="M10.8 10.2 L10.8 13.0 2.45 13.0 2.45 10.1 1.95 9.7 Q0.0 8.05 0.0 5.7 0.0 3.35 1.95 1.65 3.95 0.0 6.7 0.0 9.5 0.0 11.4 1.65 13.4 3.35 13.4 5.7 13.4 8.05 11.4 9.7 L10.8 10.2 Z" fill="none" stroke="#595959" stroke-linecap="round" stroke-linejoin="round" stroke-width="1.5"/>
    <path d="M11.4 9.7 Q9.5 11.4 6.7 11.4 3.95 11.4 1.95 9.7 0.0 8.05 0.0 5.7 0.0 3.35 1.95 1.65 3.95 0.0 6.7 0.0 9.5 0.0 11.4 1.65 13.4 3.35 13.4 5.7 13.4 8.05 11.4 9.7" fill="#ffffff" fill-rule="evenodd" stroke="none"/>
    <path d="M10.8 13.0 L2.45 13.0 2.45 8.0 10.8 8.0 10.8 13.0" fill="#ffffff" fill-rule="evenodd" stroke="none"/>
    <path d="M11.65 7.35 Q11.05 8.0 10.15 8.0 9.2 8.0 8.55 7.35 7.95 6.75 7.95 5.8 7.95 4.9 8.55 4.25 9.2 3.65 10.15 3.65 11.05 3.65 11.65 4.25 12.3 4.9 12.3 5.8 12.3 6.75 11.65 7.35" fill="#666666" fill-rule="evenodd" stroke="none"/>
    <path d="M4.9 7.35 Q4.3 8.0 3.4 8.0 2.45 8.0 1.8 7.35 1.2 6.75 1.2 5.8 1.2 4.9 1.8 4.25 2.45 3.65 3.4 3.65 4.3 3.65 4.9 4.25 5.55 4.9 5.55 5.8 5.55 6.75 4.9 7.35" fill="#666666" fill-rule="evenodd" stroke="none"/>
    <path d="M6.05 9.35 L6.05 10.7 5.3 10.7 5.3 9.35 6.05 9.35" fill="#938e8e" fill-rule="evenodd" stroke="none"/>
    <path d="M7.55 9.35 L7.55 10.7 6.8 10.7 6.8 9.35 7.55 9.35" fill="#938e8e" fill-rule="evenodd" stroke="none"/>
    <path d="M5.4 11.45 L5.4 13.0 5.2 13.0 5.2 11.45 5.4 11.45" fill="#938e8e" fill-rule="evenodd" stroke="none"/>
    <path d="M7.1 11.45 L7.1 13.0 6.9 13.0 6.9 11.45 7.1 11.45" fill="#938e8e" fill-rule="evenodd" stroke="none"/>
    <path d="M3.7 11.4 L3.7 12.95 3.5 12.95 3.5 11.4 3.7 11.4" fill="#938e8e" fill-rule="evenodd" stroke="none"/>
    <path d="M10.1 11.45 L10.1 13.0 9.9 13.0 9.9 11.45 10.1 11.45" fill="#938e8e" fill-rule="evenodd" stroke="none"/>
    <path d="M8.7 11.45 L8.7 13.0 8.5 13.0 8.5 11.45 8.7 11.45" fill="#938e8e" fill-rule="evenodd" stroke="none"/>
  </g>
</svg>
