<?xml version="1.0" encoding="UTF-8" standalone="no"?>
<svg xmlns:xlink="http://www.w3.org/1999/xlink" height="27.6px" width="233.3px" xmlns="http://www.w3.org/2000/svg">
  <g transform="matrix(1.0, 0.0, 0.0, 1.0, -0.5, 0.0)">
    <path d="M230.5 11.95 L230.9 12.3 231.15 12.85 231.2 13.4 Q231.2 14.2 230.6 14.75 L229.2 15.7 228.9 15.85 228.6 16.05 228.6 16.1 228.7 16.15 228.7 16.25 229.0 16.7 229.5 16.95 Q230.05 16.9 230.4 16.45 L231.1 15.55 231.25 15.35 231.4 15.05 232.3 15.45 Q231.8 16.9 230.7 17.85 229.7 18.9 228.15 18.95 L227.8 18.95 227.5 18.95 226.15 18.55 Q225.55 18.2 225.25 17.55 L225.25 17.6 225.1 17.15 224.85 16.7 224.65 16.3 224.4 15.8 223.95 16.1 223.45 16.35 Q224.0 16.55 224.3 16.9 L224.55 17.6 224.55 17.75 Q224.5 18.2 224.05 18.65 223.65 19.05 222.9 19.0 L222.7 19.0 222.45 19.0 Q221.85 18.8 221.55 18.45 221.2 18.05 221.2 17.5 L221.2 17.25 221.3 16.95 221.4 16.65 221.6 16.35 222.2 15.8 223.0 15.25 223.45 15.05 223.95 14.8 223.95 14.75 223.9 14.65 223.9 14.6 223.65 14.15 223.15 13.95 223.05 13.95 Q222.45 14.0 222.0 14.5 L221.5 15.35 221.95 15.5 Q221.25 17.0 220.2 18.05 219.25 19.05 217.45 19.05 L217.15 19.05 216.85 19.0 216.0 18.8 215.35 18.25 215.05 17.75 215.0 17.15 215.0 16.9 215.0 16.6 215.2 16.0 215.4 15.35 215.5 15.15 215.6 14.8 215.65 14.6 215.7 14.45 215.8 14.15 215.85 13.9 215.8 13.65 215.55 13.5 Q215.2 13.5 214.9 13.8 L214.35 14.5 214.15 14.9 214.0 15.25 213.7 16.15 213.4 17.05 213.0 17.95 212.7 18.9 208.95 18.9 209.35 17.75 209.8 16.55 210.15 15.4 210.55 14.25 210.6 14.0 210.6 13.8 210.55 13.6 210.3 13.45 210.1 13.5 209.9 13.6 209.65 13.75 209.5 13.95 208.9 14.9 208.15 16.55 208.05 16.9 207.75 17.65 207.5 18.4 207.3 18.9 203.8 18.9 206.05 12.15 209.65 12.15 209.55 12.55 Q209.95 12.25 210.5 12.1 L211.65 11.9 211.7 11.9 211.8 11.9 212.4 11.9 212.9 12.0 213.6 12.45 214.1 13.15 Q214.7 12.55 215.4 12.25 L216.9 11.9 217.45 11.95 218.05 12.15 Q218.8 12.4 219.2 12.9 219.55 13.45 219.55 14.2 L219.5 14.6 219.4 15.1 219.25 15.45 219.15 15.85 219.1 16.0 219.0 16.1 218.9 16.6 218.85 17.0 218.85 17.15 218.9 17.15 219.0 17.15 219.25 17.15 219.45 17.0 220.0 16.6 220.45 16.0 220.75 15.45 220.9 15.35 220.4 15.1 Q220.95 13.75 221.9 12.8 222.85 11.85 224.3 11.8 L224.65 11.8 225.0 11.8 Q225.7 11.85 226.2 12.2 L227.1 13.1 227.5 13.8 227.85 14.55 227.95 14.8 228.1 14.95 228.25 14.9 228.4 14.85 228.75 14.6 229.05 14.45 228.2 13.95 227.9 13.2 227.9 13.15 Q227.9 12.6 228.3 12.15 228.75 11.7 229.5 11.7 L229.7 11.7 229.95 11.8 230.5 11.95 M203.4 18.15 Q203.35 18.75 202.95 19.05 L202.0 19.5 201.6 19.55 201.25 19.55 201.0 19.55 200.8 19.5 199.7 19.0 Q199.15 18.65 199.2 17.95 199.3 17.3 199.75 17.0 L200.8 16.6 201.1 16.6 201.3 16.6 201.6 16.6 202.0 16.65 Q202.5 16.75 203.0 17.2 203.5 17.55 203.4 18.15 M197.05 10.65 L197.25 13.7 Q197.4 16.1 195.7 17.35 194.0 18.65 191.95 18.8 L191.5 18.9 191.0 18.9 190.4 18.9 189.75 18.75 188.1 18.4 186.75 17.45 Q186.3 17.0 186.2 16.45 L185.3 17.5 Q183.8 19.0 181.05 19.0 L180.9 19.0 Q179.95 19.0 179.1 18.55 178.35 18.2 177.9 17.3 L176.2 18.45 174.15 19.0 173.9 19.05 173.6 19.05 171.7 18.65 Q170.7 18.25 170.0 17.35 169.5 16.75 169.3 16.15 L169.05 16.45 Q168.25 17.55 166.75 18.25 L164.8 18.9 162.55 19.1 162.4 19.1 162.2 19.1 158.95 18.45 Q157.45 17.9 156.5 16.65 L156.2 16.25 154.9 17.6 Q154.15 18.25 153.2 18.65 L151.2 19.0 151.1 19.0 151.0 19.0 150.1 18.95 149.25 18.75 Q148.15 18.4 147.7 17.6 L147.45 16.9 146.85 17.5 Q145.35 19.0 142.65 19.0 L142.3 19.0 141.9 19.0 140.6 18.65 139.5 17.8 139.15 16.95 139.05 16.05 139.05 15.8 139.05 15.65 Q139.1 15.05 139.3 14.5 L139.65 13.4 139.75 13.1 139.95 12.6 140.05 12.4 140.1 12.1 140.25 11.65 140.25 11.3 140.2 10.9 139.8 10.7 Q139.3 10.7 138.8 11.1 L138.0 12.15 137.7 12.7 137.55 13.1 136.95 14.8 136.4 16.45 136.0 17.6 135.55 18.75 130.1 18.75 131.4 14.95 Q130.1 16.6 128.5 17.45 125.9 18.75 122.3 18.75 119.05 18.75 116.6 16.7 114.1 14.6 114.1 11.1 114.1 8.85 115.3 6.9 116.5 5.0 118.35 3.7 119.85 2.65 121.8 2.1 L125.9 1.5 126.55 1.5 127.2 1.55 Q128.4 1.6 129.55 2.0 130.7 2.3 131.6 3.1 L132.25 4.05 132.45 5.05 Q132.45 6.15 131.65 6.95 130.9 7.85 129.7 7.95 L128.35 7.7 127.35 6.95 127.1 6.8 126.85 6.6 127.05 6.5 127.2 6.45 128.2 5.75 128.9 4.7 128.95 4.5 128.95 4.25 Q128.95 3.8 128.6 3.5 L127.6 3.25 Q126.1 3.25 124.8 4.5 123.6 5.7 122.8 7.25 L122.2 8.55 121.7 9.7 121.3 11.1 Q121.05 11.9 121.05 12.75 L121.05 12.85 121.05 13.05 Q121.05 14.15 121.45 15.05 121.9 15.95 122.95 16.35 L123.8 16.6 124.65 16.65 124.9 16.65 125.05 16.6 Q126.85 16.55 128.5 15.4 130.1 14.25 130.9 12.75 L130.95 12.6 131.0 12.5 131.05 12.45 131.05 12.3 132.2 12.75 135.55 2.9 141.1 2.9 138.85 9.25 140.25 8.65 141.75 8.35 142.05 8.35 142.35 8.3 143.95 8.6 Q144.75 8.85 145.3 9.5 L145.8 10.4 145.95 11.35 145.95 11.9 145.75 12.45 145.6 13.05 145.35 13.65 145.15 14.25 145.0 14.9 144.9 14.95 144.85 15.15 144.8 15.35 144.75 15.5 144.75 15.65 144.7 15.8 144.8 16.05 145.05 16.15 145.35 16.1 145.65 16.0 146.35 15.4 147.1 14.6 147.45 14.05 147.75 13.65 147.75 13.5 147.8 13.45 148.5 11.2 149.4 8.6 150.85 8.6 152.25 8.6 153.7 8.6 155.05 8.6 154.7 9.6 154.35 10.65 153.6 12.75 152.9 14.9 152.8 15.35 152.7 15.7 152.85 16.0 153.3 16.05 153.85 15.85 154.6 15.35 155.4 14.25 155.5 14.15 155.5 13.95 Q155.5 12.6 156.25 11.4 157.1 10.2 158.35 9.5 159.2 9.0 160.4 8.7 L162.85 8.3 163.15 8.3 163.45 8.3 165.55 8.55 Q166.5 8.75 167.25 9.45 L167.85 10.3 168.15 11.25 168.15 11.35 168.15 11.5 167.95 12.2 167.6 12.85 166.8 13.4 165.9 13.6 165.8 13.6 165.6 13.6 165.1 13.4 164.6 13.15 164.0 12.6 163.7 11.85 163.7 11.8 163.7 11.65 163.7 11.55 Q163.7 10.9 164.1 10.4 164.55 9.9 165.2 9.75 L164.85 9.7 164.5 9.6 164.3 9.6 164.1 9.7 164.0 9.7 163.8 9.75 Q162.8 10.1 162.1 11.2 161.35 12.25 161.05 13.5 L161.0 14.05 161.0 14.6 Q161.0 15.75 161.6 16.55 162.15 17.35 163.45 17.35 165.7 17.35 167.05 16.15 168.25 15.1 169.1 13.65 169.2 12.75 169.7 11.95 170.35 10.7 171.5 9.85 172.3 9.25 173.4 8.85 174.5 8.4 175.65 8.35 L175.9 8.3 176.1 8.3 177.9 8.6 Q178.75 8.85 179.5 9.45 L179.8 8.6 182.55 8.6 185.35 8.6 185.0 9.6 184.65 10.7 183.9 12.75 183.2 14.9 183.2 14.95 183.15 15.1 183.1 15.25 183.1 15.45 183.0 15.55 183.0 15.7 183.1 15.85 183.25 16.05 183.4 16.05 183.55 16.05 183.85 16.0 184.2 15.8 184.8 15.35 185.4 14.65 185.85 14.0 186.15 13.5 186.2 13.4 186.25 13.3 186.25 13.15 186.3 13.05 186.6 13.15 187.0 12.85 Q187.6 12.45 188.3 12.45 L188.4 12.45 188.6 12.45 188.7 12.45 188.85 12.5 191.4 8.95 196.9 7.55 197.05 10.65 M190.45 15.1 L190.15 15.55 189.4 16.3 188.35 16.55 188.25 16.55 188.2 16.45 188.1 16.45 188.6 16.95 189.3 17.2 Q190.5 17.2 191.2 16.55 191.9 15.95 191.9 14.65 L191.95 12.9 191.95 11.2 190.2 13.45 190.45 14.0 190.5 14.55 190.45 15.1 M175.45 12.25 L174.85 13.15 174.5 13.95 174.45 14.25 174.3 14.65 174.2 15.1 174.1 15.55 174.0 15.95 174.0 16.3 174.15 17.0 Q174.3 17.3 174.7 17.3 175.5 17.3 176.2 16.6 L177.25 15.1 177.7 14.25 178.05 13.5 178.5 11.95 178.7 10.9 178.6 10.3 178.1 10.1 177.8 10.15 177.5 10.2 Q176.95 10.45 176.4 11.0 L175.45 12.25 M153.0 3.4 L153.7 3.5 154.3 3.6 154.45 3.65 154.6 3.7 155.7 4.45 Q156.2 4.95 156.2 5.6 L156.2 5.75 156.15 5.95 155.5 6.85 154.5 7.4 154.35 7.45 154.15 7.5 153.7 7.55 153.2 7.55 151.95 7.45 150.8 6.9 150.25 6.2 150.0 5.4 150.1 5.0 150.3 4.5 151.4 3.7 152.7 3.4 152.9 3.4 153.0 3.4 M104.9 9.55 L103.65 13.3 102.3 17.05 102.3 17.15 102.25 17.25 102.25 17.35 102.25 17.5 102.25 17.55 102.25 17.65 102.3 17.8 102.45 17.8 102.5 17.8 102.7 17.75 102.9 17.65 103.35 17.3 103.7 16.9 103.9 16.7 103.9 16.55 103.95 16.0 104.05 15.45 Q104.4 14.35 105.5 13.75 106.65 13.15 107.85 13.05 L108.4 13.0 108.9 12.9 109.65 13.0 110.3 13.1 110.4 13.15 110.5 13.15 111.5 13.65 Q111.9 14.0 112.0 14.65 112.0 15.65 111.15 16.15 L109.3 17.0 108.2 17.2 107.3 17.25 Q107.4 17.85 107.85 18.2 108.2 18.55 108.85 18.55 110.25 18.55 111.15 17.8 112.05 17.05 112.6 15.95 L113.5 16.35 112.45 17.95 110.95 19.2 109.7 19.6 108.3 19.7 108.15 19.7 107.9 19.65 107.05 19.6 106.3 19.35 Q105.2 19.0 104.55 18.25 L104.3 17.9 103.65 18.7 Q102.7 19.65 101.0 19.65 L99.85 19.4 Q99.3 19.2 99.1 18.55 L97.9 19.4 96.5 19.65 95.25 19.4 Q94.65 19.2 94.15 18.65 L93.7 17.85 93.45 17.05 93.45 16.95 93.45 16.75 Q93.45 16.0 93.85 15.2 L95.05 13.9 96.25 13.2 97.65 12.9 97.8 12.9 97.95 12.9 99.1 13.1 Q99.7 13.2 100.1 13.65 L101.5 9.55 103.2 9.55 104.9 9.55 M110.2 14.3 L110.05 13.8 109.6 13.7 Q108.9 13.7 108.45 14.2 L107.65 15.4 107.55 15.8 107.4 16.15 107.9 16.1 108.4 16.05 109.65 15.45 Q110.2 15.05 110.2 14.3 M92.2 11.2 L92.35 14.25 Q92.55 16.65 90.8 17.9 89.1 19.2 87.1 19.35 L86.6 19.4 86.1 19.4 85.5 19.4 84.85 19.3 83.25 18.95 81.85 17.95 81.5 17.5 81.15 17.85 Q80.35 18.65 79.3 18.65 L78.45 18.5 77.7 18.15 75.1 19.6 72.0 20.2 71.8 20.2 71.5 20.2 68.6 19.8 Q67.2 19.3 66.2 18.45 65.35 17.65 64.95 16.85 64.6 16.0 64.6 15.1 64.6 13.75 65.4 12.5 66.2 11.3 67.5 10.4 68.65 9.7 70.1 9.2 L73.1 8.75 73.5 8.85 74.0 8.85 Q75.2 8.95 76.4 9.4 77.6 9.8 78.5 10.65 L79.65 12.2 Q80.05 13.05 80.05 14.0 L80.0 14.75 79.8 15.4 80.55 15.2 81.15 14.65 81.25 14.55 Q81.45 13.8 82.1 13.4 L83.4 13.0 83.55 13.0 83.7 13.0 83.85 13.0 83.95 13.05 86.55 9.5 92.0 8.1 92.2 11.2 M87.1 13.45 L87.1 11.7 85.35 14.0 85.6 14.55 85.65 15.1 85.6 15.65 85.3 16.1 84.5 16.85 83.5 17.05 83.35 17.05 83.3 17.0 83.25 17.0 83.7 17.5 84.45 17.75 Q85.65 17.75 86.3 17.05 87.0 16.45 87.0 15.2 L87.1 13.45 M98.8 14.15 Q98.4 14.2 98.05 14.6 L97.45 15.4 97.1 16.0 96.85 16.45 96.8 16.6 96.75 16.85 96.7 17.15 96.6 17.5 96.55 17.65 96.55 17.85 96.7 18.35 97.05 18.5 Q97.65 18.5 98.05 18.1 L98.7 17.2 98.9 16.75 99.1 16.35 99.2 16.15 99.25 15.8 99.4 15.55 99.45 15.2 99.5 14.95 99.5 14.75 99.4 14.25 98.95 14.05 98.9 14.05 98.8 14.15 M72.2 11.4 Q71.55 12.15 71.2 13.15 70.75 14.15 70.6 15.2 L70.5 15.85 70.5 16.55 70.5 16.95 70.6 17.5 70.9 18.35 Q71.1 18.75 71.55 18.75 72.25 18.75 72.85 18.2 L73.75 17.05 73.95 16.85 74.05 16.55 73.35 15.75 73.1 14.75 73.1 14.6 73.1 14.55 Q73.2 13.65 73.75 12.9 74.3 12.15 75.2 11.9 75.15 11.0 74.85 10.65 L74.1 10.2 73.45 10.4 72.75 10.8 72.5 11.1 72.2 11.4 M64.5 12.15 L63.5 15.15 62.4 18.2 61.35 21.3 Q60.7 23.2 58.75 24.45 56.8 25.75 54.55 26.05 L54.0 26.1 53.5 26.1 51.75 25.9 Q50.9 25.65 50.2 25.25 49.5 24.9 49.1 24.3 L48.55 22.95 48.5 22.65 48.5 22.4 Q48.5 21.7 49.0 21.1 49.4 20.55 50.35 20.4 L50.5 20.3 50.65 20.3 50.7 20.3 50.85 20.3 Q51.9 20.3 52.5 21.0 53.2 21.65 53.2 22.5 L53.2 22.55 Q53.2 23.15 52.8 23.7 52.45 24.25 51.7 24.45 L51.8 24.55 52.0 24.55 52.1 24.6 52.2 24.6 Q53.7 24.65 54.55 23.5 L55.95 21.05 56.3 19.95 56.6 19.0 55.8 19.3 55.0 19.4 54.6 19.5 54.2 19.5 Q52.35 19.5 50.95 18.35 50.25 17.8 49.9 16.95 49.0 18.05 47.5 18.8 L45.5 19.5 43.35 19.65 43.0 19.65 42.7 19.6 41.3 19.5 40.05 19.1 Q38.35 18.55 37.3 17.35 L36.9 16.9 35.8 18.05 Q35.0 18.7 34.0 19.05 L31.7 19.4 29.55 18.9 Q28.6 18.25 28.4 17.0 L26.1 18.75 Q24.8 19.5 23.3 19.5 21.75 19.5 21.0 18.5 20.3 17.6 20.3 16.35 L20.35 15.45 20.6 14.65 21.15 13.2 21.55 11.85 22.05 10.4 22.6 9.0 28.05 9.0 27.45 10.65 26.95 12.2 26.35 13.8 25.8 15.45 25.75 15.7 25.7 15.95 25.8 16.25 26.2 16.35 26.85 16.1 27.8 15.35 28.9 13.65 29.65 11.65 29.95 10.7 30.3 9.8 30.4 9.55 30.45 9.4 30.45 9.25 30.5 9.15 30.55 9.15 30.55 9.0 31.45 9.0 32.35 9.0 34.15 9.0 36.0 9.0 35.5 10.6 34.95 12.15 34.4 13.75 33.8 15.35 33.75 15.75 33.7 16.05 33.8 16.4 34.05 16.45 34.4 16.4 34.9 16.25 35.1 16.0 35.4 15.75 36.2 14.85 36.2 14.55 36.25 13.75 Q36.3 13.35 36.5 12.9 37.05 11.2 38.85 10.2 40.6 9.25 42.55 8.95 L43.4 8.9 44.25 8.85 45.4 8.9 46.45 9.15 46.65 9.15 46.75 9.2 Q47.6 9.45 48.4 10.05 49.1 10.6 49.1 11.55 49.15 13.1 47.85 14.0 46.45 14.9 44.85 15.35 L43.1 15.65 41.7 15.7 Q41.85 16.7 42.5 17.3 43.1 17.85 44.2 17.85 46.35 17.85 47.85 16.65 L49.5 14.75 Q49.65 12.45 51.55 10.75 53.6 8.95 56.05 8.7 L56.35 8.7 56.65 8.65 58.35 8.9 Q59.1 9.15 59.85 9.7 L60.0 9.1 65.55 9.1 64.5 12.15 M57.2 11.05 L56.05 12.45 55.1 14.15 54.7 15.45 54.5 16.55 54.55 16.95 54.7 17.25 54.9 17.55 55.2 17.65 Q56.4 17.65 57.15 16.65 L58.35 14.35 58.8 12.8 59.2 11.6 59.2 11.4 59.2 11.3 59.0 10.95 58.7 10.65 58.6 10.6 58.5 10.6 58.4 10.5 58.35 10.5 57.75 10.7 57.2 11.05 M43.45 10.9 Q42.7 11.7 42.25 12.75 L42.0 13.4 41.9 14.05 42.6 13.95 43.35 13.75 Q44.5 13.45 45.4 12.8 46.3 12.15 46.3 11.0 L46.05 10.3 45.3 10.05 Q44.25 10.05 43.45 10.9 M23.55 2.4 L21.15 9.3 18.8 16.3 Q17.6 19.7 14.5 21.75 11.4 23.85 7.9 23.85 L6.7 23.8 5.4 23.55 5.25 23.55 5.05 23.5 Q3.9 23.15 2.95 22.4 2.0 21.7 2.0 20.5 L2.05 20.2 2.1 19.85 Q2.35 18.95 3.1 18.45 3.8 17.95 4.65 17.95 L5.65 18.15 Q6.15 18.35 6.55 18.7 L7.1 19.25 6.85 19.3 6.55 19.4 5.65 20.1 Q5.25 20.5 5.3 21.1 L5.3 21.15 5.3 21.3 Q5.35 21.75 5.7 22.0 L6.55 22.25 Q7.6 22.3 8.4 21.4 L9.9 19.5 10.45 18.4 10.9 17.45 11.85 14.65 12.75 11.9 13.75 9.15 14.65 6.45 14.7 6.25 14.8 6.05 14.9 5.65 15.0 5.15 15.1 4.8 15.1 4.5 14.85 3.65 Q14.65 3.3 14.0 3.3 12.6 3.3 11.5 4.5 10.3 5.7 10.05 7.15 L10.0 7.45 10.0 7.8 10.05 8.35 10.15 8.9 Q10.4 9.55 10.9 9.8 L11.9 10.15 12.1 10.2 12.25 10.2 12.1 10.4 11.95 10.65 11.3 11.2 10.6 11.65 9.85 11.9 9.2 12.0 Q8.0 12.0 7.2 11.05 6.4 10.1 6.3 8.7 L6.4 7.75 6.7 6.75 Q7.8 3.9 10.6 2.75 13.35 1.6 16.45 1.5 L16.75 1.5 17.05 1.5 20.5 1.75 23.55 2.4" fill="#000000" fill-rule="evenodd" stroke="none"/>
    <path d="M230.5 11.95 L230.9 12.3 231.15 12.85 231.2 13.4 Q231.2 14.2 230.6 14.75 L229.2 15.7 228.9 15.85 228.6 16.05 228.6 16.1 228.7 16.15 228.7 16.25 229.0 16.7 229.5 16.95 Q230.05 16.9 230.4 16.45 L231.1 15.55 231.25 15.35 231.4 15.05 232.3 15.45 Q231.8 16.9 230.7 17.85 229.7 18.9 228.15 18.95 L227.8 18.95 227.5 18.95 226.15 18.55 Q225.55 18.2 225.25 17.55 L225.25 17.6 225.1 17.15 224.85 16.7 224.65 16.3 224.4 15.8 223.95 16.1 223.45 16.35 Q224.0 16.55 224.3 16.9 L224.55 17.6 224.55 17.75 Q224.5 18.2 224.05 18.65 223.65 19.05 222.9 19.0 L222.7 19.0 222.45 19.0 Q221.85 18.8 221.55 18.45 221.2 18.05 221.2 17.5 L221.2 17.25 221.3 16.95 221.4 16.65 221.6 16.35 222.2 15.8 223.0 15.25 223.45 15.05 223.95 14.8 223.95 14.75 223.9 14.65 223.9 14.6 223.65 14.15 223.15 13.95 223.05 13.95 Q222.45 14.0 222.0 14.5 L221.5 15.35 221.95 15.5 Q221.25 17.0 220.2 18.05 219.25 19.05 217.45 19.05 L217.15 19.05 216.85 19.0 216.0 18.8 215.35 18.25 215.05 17.75 215.0 17.15 215.0 16.9 215.0 16.6 215.2 16.0 215.4 15.35 215.5 15.15 215.6 14.8 215.65 14.6 215.7 14.45 215.8 14.15 215.85 13.9 215.8 13.65 215.55 13.5 Q215.2 13.5 214.9 13.8 L214.35 14.5 214.15 14.9 214.0 15.25 213.7 16.15 213.4 17.05 213.0 17.95 212.7 18.9 208.95 18.9 209.35 17.75 209.8 16.55 210.15 15.4 210.55 14.25 210.6 14.0 210.6 13.8 210.55 13.6 210.3 13.45 210.1 13.5 209.9 13.6 209.65 13.75 209.5 13.95 208.9 14.9 208.15 16.55 208.05 16.9 207.75 17.65 207.5 18.4 207.3 18.9 203.8 18.9 206.05 12.15 209.65 12.15 209.55 12.55 Q209.95 12.25 210.5 12.1 L211.65 11.9 211.7 11.9 211.8 11.9 212.4 11.9 212.9 12.0 213.6 12.45 214.1 13.15 Q214.7 12.55 215.4 12.25 L216.9 11.9 217.45 11.95 218.05 12.15 Q218.8 12.4 219.2 12.9 219.55 13.45 219.55 14.2 L219.5 14.6 219.4 15.1 219.25 15.45 219.15 15.85 219.1 16.0 219.0 16.1 218.9 16.6 218.85 17.0 218.85 17.15 218.9 17.15 219.0 17.15 219.25 17.15 219.45 17.0 220.0 16.6 220.45 16.0 220.75 15.45 220.9 15.35 220.4 15.1 Q220.95 13.75 221.9 12.8 222.85 11.85 224.3 11.8 L224.65 11.8 225.0 11.8 Q225.7 11.85 226.2 12.2 L227.1 13.1 227.5 13.8 227.85 14.55 227.95 14.8 228.1 14.95 228.25 14.9 228.4 14.85 228.75 14.6 229.05 14.45 228.2 13.95 227.9 13.2 227.9 13.15 Q227.9 12.6 228.3 12.15 228.75 11.7 229.5 11.7 L229.7 11.7 229.95 11.8 230.5 11.95 M203.4 18.15 Q203.35 18.75 202.95 19.05 L202.0 19.5 201.6 19.55 201.25 19.55 201.0 19.55 200.8 19.5 199.7 19.0 Q199.15 18.65 199.2 17.95 199.3 17.3 199.75 17.0 L200.8 16.6 201.1 16.6 201.3 16.6 201.6 16.6 202.0 16.65 Q202.5 16.75 203.0 17.2 203.5 17.55 203.4 18.15 M197.05 10.65 L197.25 13.7 Q197.4 16.1 195.7 17.35 194.0 18.65 191.95 18.8 L191.5 18.9 191.0 18.9 190.4 18.9 189.75 18.75 188.1 18.4 186.75 17.45 Q186.3 17.0 186.2 16.45 L185.3 17.5 Q183.8 19.0 181.05 19.0 L180.9 19.0 Q179.95 19.0 179.1 18.55 178.35 18.2 177.9 17.3 L176.2 18.45 174.15 19.0 173.9 19.05 173.6 19.05 171.7 18.65 Q170.7 18.25 170.0 17.35 169.5 16.75 169.3 16.15 L169.05 16.45 Q168.25 17.55 166.75 18.25 L164.8 18.9 162.55 19.1 162.4 19.1 162.2 19.1 158.95 18.45 Q157.45 17.9 156.5 16.65 L156.2 16.25 154.9 17.6 Q154.15 18.25 153.2 18.65 L151.2 19.0 151.1 19.0 151.0 19.0 150.1 18.95 149.25 18.75 Q148.15 18.4 147.7 17.6 L147.45 16.9 146.85 17.5 Q145.35 19.0 142.65 19.0 L142.3 19.0 141.9 19.0 140.6 18.65 139.5 17.8 139.15 16.95 139.05 16.05 139.05 15.8 139.05 15.65 Q139.1 15.05 139.3 14.5 L139.65 13.4 139.75 13.1 139.95 12.6 140.05 12.4 140.1 12.1 140.25 11.65 140.25 11.3 140.2 10.9 139.8 10.7 Q139.3 10.7 138.8 11.1 L138.0 12.15 137.7 12.7 137.55 13.1 136.95 14.8 136.4 16.45 136.0 17.6 135.55 18.75 130.1 18.75 131.4 14.95 Q130.1 16.6 128.5 17.45 125.9 18.75 122.3 18.75 119.05 18.75 116.6 16.7 114.1 14.6 114.1 11.1 114.1 8.85 115.3 6.9 116.5 5.0 118.35 3.7 119.85 2.65 121.8 2.1 L125.9 1.5 126.55 1.5 127.2 1.55 Q128.4 1.6 129.55 2.0 130.7 2.3 131.6 3.1 L132.25 4.05 132.45 5.05 Q132.45 6.15 131.65 6.95 130.9 7.85 129.7 7.95 L128.35 7.7 127.35 6.95 127.1 6.8 126.85 6.6 127.05 6.5 127.2 6.45 128.2 5.75 128.9 4.7 128.95 4.5 128.95 4.25 Q128.95 3.8 128.6 3.5 L127.6 3.25 Q126.1 3.25 124.8 4.5 123.6 5.7 122.8 7.25 L122.2 8.55 121.7 9.7 121.3 11.1 Q121.05 11.9 121.05 12.75 L121.05 12.85 121.05 13.05 Q121.05 14.15 121.45 15.05 121.9 15.95 122.95 16.35 L123.8 16.6 124.65 16.65 124.9 16.65 125.05 16.6 Q126.85 16.55 128.5 15.4 130.1 14.25 130.9 12.75 L130.95 12.6 131.0 12.5 131.05 12.45 131.05 12.3 132.2 12.75 135.55 2.9 141.1 2.9 138.85 9.25 140.25 8.65 141.75 8.35 142.05 8.35 142.35 8.3 143.95 8.6 Q144.75 8.85 145.3 9.5 L145.8 10.4 145.95 11.35 145.95 11.9 145.75 12.45 145.6 13.05 145.35 13.65 145.15 14.25 145.0 14.9 144.9 14.95 144.85 15.15 144.8 15.35 144.75 15.5 144.75 15.65 144.7 15.8 144.8 16.05 145.05 16.15 145.35 16.1 145.65 16.0 146.35 15.4 147.1 14.6 147.45 14.05 147.75 13.65 147.75 13.5 147.8 13.45 148.5 11.2 149.4 8.6 150.85 8.6 152.25 8.6 153.7 8.6 155.05 8.6 154.7 9.6 154.35 10.65 153.6 12.75 152.9 14.9 152.8 15.35 152.7 15.7 152.85 16.0 153.3 16.05 153.85 15.85 154.6 15.35 155.4 14.25 155.5 14.15 155.5 13.95 Q155.5 12.6 156.25 11.4 157.1 10.2 158.35 9.5 159.2 9.0 160.4 8.7 L162.85 8.3 163.15 8.3 163.45 8.3 165.55 8.55 Q166.5 8.75 167.25 9.45 L167.85 10.3 168.15 11.25 168.15 11.35 168.15 11.5 167.95 12.2 167.6 12.85 166.8 13.4 165.9 13.6 165.8 13.6 165.6 13.6 165.1 13.4 164.6 13.15 164.0 12.6 163.7 11.85 163.7 11.8 163.7 11.65 163.7 11.55 Q163.7 10.9 164.1 10.4 164.55 9.9 165.2 9.75 L164.85 9.7 164.5 9.6 164.3 9.6 164.1 9.7 164.0 9.7 163.8 9.75 Q162.8 10.1 162.1 11.2 161.35 12.25 161.05 13.5 L161.0 14.05 161.0 14.6 Q161.0 15.75 161.6 16.55 162.15 17.35 163.45 17.35 165.7 17.35 167.05 16.15 168.25 15.1 169.1 13.65 169.2 12.75 169.7 11.95 170.35 10.7 171.5 9.85 172.3 9.25 173.4 8.85 174.5 8.4 175.65 8.35 L175.9 8.3 176.1 8.3 177.9 8.6 Q178.75 8.85 179.5 9.45 L179.8 8.6 182.55 8.6 185.35 8.6 185.0 9.6 184.65 10.7 183.9 12.75 183.2 14.9 183.2 14.95 183.15 15.1 183.1 15.25 183.1 15.45 183.0 15.55 183.0 15.7 183.1 15.85 183.25 16.05 183.4 16.05 183.55 16.05 183.85 16.0 184.2 15.8 184.8 15.35 185.4 14.65 185.85 14.0 186.15 13.5 186.2 13.4 186.25 13.3 186.25 13.15 186.3 13.05 186.6 13.15 187.0 12.85 Q187.6 12.45 188.3 12.45 L188.4 12.45 188.6 12.45 188.7 12.45 188.85 12.5 191.4 8.95 196.9 7.55 197.05 10.65 M190.45 15.1 L190.15 15.55 189.4 16.3 188.35 16.55 188.25 16.55 188.2 16.45 188.1 16.45 188.6 16.95 189.3 17.2 Q190.5 17.2 191.2 16.55 191.9 15.95 191.9 14.65 L191.95 12.9 191.95 11.2 190.2 13.45 190.45 14.0 190.5 14.55 190.45 15.1 M175.45 12.25 L174.85 13.15 174.5 13.95 174.45 14.25 174.3 14.65 174.2 15.1 174.1 15.55 174.0 15.95 174.0 16.3 174.15 17.0 Q174.3 17.3 174.7 17.3 175.5 17.3 176.2 16.6 L177.25 15.1 177.7 14.25 178.05 13.5 178.5 11.95 178.7 10.9 178.6 10.3 178.1 10.1 177.8 10.15 177.5 10.2 Q176.95 10.45 176.4 11.0 L175.45 12.25 M153.0 3.4 L153.7 3.5 154.3 3.6 154.45 3.65 154.6 3.7 155.7 4.45 Q156.2 4.95 156.2 5.6 L156.2 5.75 156.15 5.95 155.5 6.85 154.5 7.4 154.35 7.45 154.15 7.5 153.7 7.55 153.2 7.55 151.95 7.45 150.8 6.9 150.25 6.2 150.0 5.4 150.1 5.0 150.3 4.5 151.4 3.7 152.7 3.4 152.9 3.4 153.0 3.4 M104.9 9.55 L103.65 13.3 102.3 17.05 102.3 17.15 102.25 17.25 102.25 17.35 102.25 17.5 102.25 17.55 102.25 17.65 102.3 17.8 102.45 17.8 102.5 17.8 102.7 17.75 102.9 17.65 103.35 17.3 103.7 16.9 103.9 16.7 103.9 16.55 103.95 16.0 104.05 15.45 Q104.4 14.35 105.5 13.75 106.65 13.15 107.85 13.05 L108.4 13.0 108.9 12.9 109.65 13.0 110.3 13.1 110.4 13.15 110.5 13.15 111.5 13.65 Q111.9 14.0 112.0 14.65 112.0 15.65 111.15 16.15 L109.3 17.0 108.2 17.2 107.3 17.25 Q107.4 17.85 107.85 18.2 108.2 18.55 108.85 18.55 110.25 18.55 111.15 17.8 112.05 17.05 112.6 15.95 L113.5 16.35 112.45 17.95 110.95 19.2 109.7 19.6 108.3 19.7 108.15 19.7 107.9 19.65 107.05 19.6 106.3 19.35 Q105.2 19.0 104.55 18.25 L104.3 17.9 103.65 18.7 Q102.7 19.65 101.0 19.65 L99.85 19.4 Q99.3 19.2 99.1 18.55 L97.9 19.4 96.5 19.65 95.25 19.4 Q94.65 19.2 94.15 18.65 L93.7 17.85 93.45 17.05 93.45 16.95 93.45 16.75 Q93.45 16.0 93.85 15.2 L95.05 13.9 96.25 13.2 97.65 12.9 97.8 12.9 97.95 12.9 99.1 13.1 Q99.7 13.2 100.1 13.65 L101.5 9.55 103.2 9.55 104.9 9.55 M92.2 11.2 L92.35 14.25 Q92.55 16.65 90.8 17.9 89.1 19.2 87.1 19.35 L86.6 19.4 86.1 19.4 85.5 19.4 84.85 19.3 83.25 18.95 81.85 17.95 81.5 17.5 81.15 17.85 Q80.35 18.65 79.3 18.65 L78.45 18.5 77.7 18.15 75.1 19.6 72.0 20.2 71.8 20.2 71.5 20.2 68.6 19.8 Q67.2 19.3 66.2 18.45 65.35 17.65 64.95 16.85 64.6 16.0 64.6 15.1 64.6 13.75 65.4 12.5 66.2 11.3 67.5 10.4 68.65 9.7 70.1 9.2 L73.1 8.75 73.5 8.85 74.0 8.85 Q75.2 8.95 76.4 9.4 77.6 9.8 78.5 10.65 L79.65 12.2 Q80.05 13.05 80.05 14.0 L80.0 14.75 79.8 15.4 80.55 15.2 81.15 14.65 81.25 14.55 Q81.45 13.8 82.1 13.4 L83.4 13.0 83.55 13.0 83.7 13.0 83.85 13.0 83.95 13.05 86.55 9.5 92.0 8.1 92.2 11.2 M87.1 13.45 L87.1 11.7 85.35 14.0 85.6 14.55 85.65 15.1 85.6 15.65 85.3 16.1 84.5 16.85 83.5 17.05 83.35 17.05 83.3 17.0 83.25 17.0 83.7 17.5 84.45 17.75 Q85.65 17.75 86.3 17.05 87.0 16.45 87.0 15.2 L87.1 13.45 M98.8 14.15 Q98.4 14.2 98.05 14.6 L97.45 15.4 97.1 16.0 96.85 16.45 96.8 16.6 96.75 16.85 96.7 17.15 96.6 17.5 96.55 17.65 96.55 17.85 96.7 18.35 97.05 18.5 Q97.65 18.5 98.05 18.1 L98.7 17.2 98.9 16.75 99.1 16.35 99.2 16.15 99.25 15.8 99.4 15.55 99.45 15.2 99.5 14.95 99.5 14.75 99.4 14.25 98.95 14.05 98.9 14.05 98.8 14.15 M72.2 11.4 Q71.55 12.15 71.2 13.15 70.75 14.15 70.6 15.2 L70.5 15.85 70.5 16.55 70.5 16.95 70.6 17.5 70.9 18.35 Q71.1 18.75 71.55 18.75 72.25 18.75 72.85 18.2 L73.75 17.05 73.95 16.85 74.05 16.55 73.35 15.75 73.1 14.75 73.1 14.6 73.1 14.55 Q73.2 13.65 73.75 12.9 74.3 12.15 75.2 11.9 75.15 11.0 74.85 10.65 L74.1 10.2 73.45 10.4 72.75 10.8 72.5 11.1 72.2 11.4 M64.5 12.15 L63.5 15.15 62.4 18.2 61.35 21.3 Q60.7 23.2 58.75 24.45 56.8 25.75 54.55 26.05 L54.0 26.1 53.5 26.1 51.75 25.9 Q50.9 25.65 50.2 25.25 49.5 24.9 49.1 24.3 L48.55 22.95 48.5 22.65 48.5 22.4 Q48.5 21.7 49.0 21.1 49.4 20.55 50.35 20.4 L50.5 20.3 50.65 20.3 50.7 20.3 50.85 20.3 Q51.9 20.3 52.5 21.0 53.2 21.65 53.2 22.5 L53.2 22.55 Q53.2 23.15 52.8 23.7 52.45 24.25 51.7 24.45 L51.8 24.55 52.0 24.55 52.1 24.6 52.2 24.6 Q53.7 24.65 54.55 23.5 L55.95 21.05 56.3 19.95 56.6 19.0 55.8 19.3 55.0 19.4 54.6 19.5 54.2 19.5 Q52.35 19.5 50.95 18.35 50.25 17.8 49.9 16.95 49.0 18.05 47.5 18.8 L45.5 19.5 43.35 19.65 43.0 19.65 42.7 19.6 41.3 19.5 40.05 19.1 Q38.35 18.55 37.3 17.35 L36.9 16.9 35.8 18.05 Q35.0 18.7 34.0 19.05 L31.7 19.4 29.55 18.9 Q28.6 18.25 28.4 17.0 L26.1 18.75 Q24.8 19.5 23.3 19.5 21.75 19.5 21.0 18.5 20.3 17.6 20.3 16.35 L20.35 15.45 20.6 14.65 21.15 13.2 21.55 11.85 22.05 10.4 22.6 9.0 28.05 9.0 27.45 10.65 26.95 12.2 26.35 13.8 25.8 15.45 25.75 15.7 25.7 15.95 25.8 16.25 26.2 16.35 26.85 16.1 27.8 15.35 28.9 13.65 29.65 11.65 29.95 10.7 30.3 9.8 30.4 9.55 30.45 9.4 30.45 9.25 30.5 9.15 30.55 9.15 30.55 9.0 31.45 9.0 32.35 9.0 34.15 9.0 36.0 9.0 35.5 10.6 34.95 12.15 34.4 13.75 33.8 15.35 33.75 15.75 33.7 16.05 33.8 16.4 34.05 16.45 34.4 16.4 34.9 16.25 35.1 16.0 35.4 15.75 36.2 14.85 36.2 14.55 36.25 13.75 Q36.3 13.35 36.5 12.9 37.05 11.2 38.85 10.2 40.6 9.25 42.55 8.95 L43.4 8.9 44.25 8.85 45.4 8.9 46.45 9.15 46.65 9.15 46.75 9.2 Q47.6 9.45 48.4 10.05 49.1 10.6 49.1 11.55 49.15 13.1 47.85 14.0 46.45 14.9 44.85 15.35 L43.1 15.65 41.7 15.7 Q41.85 16.7 42.5 17.3 43.1 17.85 44.2 17.85 46.35 17.85 47.85 16.65 L49.5 14.75 Q49.65 12.45 51.55 10.75 53.6 8.95 56.05 8.7 L56.35 8.7 56.65 8.65 58.35 8.9 Q59.1 9.15 59.85 9.7 L60.0 9.1 65.55 9.1 64.5 12.15 M57.2 11.05 L56.05 12.45 55.1 14.15 54.7 15.45 54.5 16.55 54.55 16.95 54.7 17.25 54.9 17.55 55.2 17.65 Q56.4 17.65 57.15 16.65 L58.35 14.35 58.8 12.8 59.2 11.6 59.2 11.4 59.2 11.3 59.0 10.95 58.7 10.65 58.6 10.6 58.5 10.6 58.4 10.5 58.35 10.5 57.75 10.7 57.2 11.05 M43.45 10.9 Q42.7 11.7 42.25 12.75 L42.0 13.4 41.9 14.05 42.6 13.95 43.35 13.75 Q44.5 13.45 45.4 12.8 46.3 12.15 46.3 11.0 L46.05 10.3 45.3 10.05 Q44.25 10.05 43.45 10.9 M23.55 2.4 L21.15 9.3 18.8 16.3 Q17.6 19.7 14.5 21.75 11.4 23.85 7.9 23.85 L6.7 23.8 5.4 23.55 5.25 23.55 5.05 23.5 Q3.9 23.15 2.95 22.4 2.0 21.7 2.0 20.5 L2.05 20.2 2.1 19.85 Q2.35 18.95 3.1 18.45 3.8 17.95 4.65 17.95 L5.65 18.15 Q6.15 18.35 6.55 18.7 L7.1 19.25 6.85 19.3 6.55 19.4 5.65 20.1 Q5.25 20.5 5.3 21.1 L5.3 21.15 5.3 21.3 Q5.35 21.75 5.7 22.0 L6.55 22.25 Q7.6 22.3 8.4 21.4 L9.9 19.5 10.45 18.4 10.9 17.45 11.85 14.65 12.75 11.9 13.75 9.15 14.65 6.45 14.7 6.25 14.8 6.05 14.9 5.65 15.0 5.15 15.1 4.8 15.1 4.5 14.85 3.65 Q14.65 3.3 14.0 3.3 12.6 3.3 11.5 4.5 10.3 5.7 10.05 7.15 L10.0 7.45 10.0 7.8 10.05 8.35 10.15 8.9 Q10.4 9.55 10.9 9.8 L11.9 10.15 12.1 10.2 12.25 10.2 12.1 10.4 11.95 10.65 11.3 11.2 10.6 11.65 9.85 11.9 9.2 12.0 Q8.0 12.0 7.2 11.05 6.4 10.1 6.3 8.7 L6.4 7.75 6.7 6.75 Q7.8 3.9 10.6 2.75 13.35 1.6 16.45 1.5 L16.75 1.5 17.05 1.5 20.5 1.75 23.55 2.4" fill="none" stroke="url(#gradient0)" stroke-linecap="round" stroke-linejoin="round" stroke-width="3.0"/>
    <path d="M230.5 11.95 L230.9 12.3 231.15 12.85 231.2 13.4 Q231.2 14.2 230.6 14.75 L229.2 15.7 228.9 15.85 228.6 16.05 228.6 16.1 228.7 16.15 228.7 16.25 229.0 16.7 229.5 16.95 Q230.05 16.9 230.4 16.45 L231.1 15.55 231.25 15.35 231.4 15.05 232.3 15.45 Q231.8 16.9 230.7 17.85 229.7 18.9 228.15 18.95 L227.8 18.95 227.5 18.95 226.15 18.55 Q225.55 18.2 225.25 17.55 L225.25 17.6 225.1 17.15 224.85 16.7 224.65 16.3 224.4 15.8 223.95 16.1 223.45 16.35 Q224.0 16.55 224.3 16.9 L224.55 17.6 224.55 17.75 Q224.5 18.2 224.05 18.65 223.65 19.05 222.9 19.0 L222.7 19.0 222.45 19.0 Q221.85 18.8 221.55 18.45 221.2 18.05 221.2 17.5 L221.2 17.25 221.3 16.95 221.4 16.65 221.6 16.35 222.2 15.8 223.0 15.25 223.45 15.05 223.95 14.8 223.95 14.75 223.9 14.65 223.9 14.6 223.65 14.15 223.15 13.95 223.05 13.95 Q222.45 14.0 222.0 14.5 L221.5 15.35 221.95 15.5 Q221.25 17.0 220.2 18.05 219.25 19.05 217.45 19.05 L217.15 19.05 216.85 19.0 216.0 18.8 215.35 18.25 215.05 17.75 215.0 17.15 215.0 16.9 215.0 16.6 215.2 16.0 215.4 15.35 215.5 15.15 215.6 14.8 215.65 14.6 215.7 14.45 215.8 14.15 215.85 13.9 215.8 13.65 215.55 13.5 Q215.2 13.5 214.9 13.8 L214.35 14.5 214.15 14.9 214.0 15.25 213.7 16.15 213.4 17.05 213.0 17.95 212.7 18.9 208.95 18.9 209.35 17.75 209.8 16.55 210.15 15.4 210.55 14.25 210.6 14.0 210.6 13.8 210.55 13.6 210.3 13.45 210.1 13.5 209.9 13.6 209.65 13.75 209.5 13.95 208.9 14.9 208.15 16.55 208.05 16.9 207.75 17.65 207.5 18.4 207.3 18.9 203.8 18.9 206.05 12.15 209.65 12.15 209.55 12.55 Q209.95 12.25 210.5 12.1 L211.65 11.9 211.7 11.9 211.8 11.9 212.4 11.9 212.9 12.0 213.6 12.45 214.1 13.15 Q214.7 12.55 215.4 12.25 L216.9 11.9 217.45 11.95 218.05 12.15 Q218.8 12.4 219.2 12.9 219.55 13.45 219.55 14.2 L219.5 14.6 219.4 15.1 219.25 15.45 219.15 15.85 219.1 16.0 219.0 16.1 218.9 16.6 218.85 17.0 218.85 17.15 218.9 17.15 219.0 17.15 219.25 17.15 219.45 17.0 220.0 16.6 220.45 16.0 220.75 15.45 220.9 15.35 220.4 15.1 Q220.95 13.75 221.9 12.8 222.85 11.85 224.3 11.8 L224.65 11.8 225.0 11.8 Q225.7 11.85 226.2 12.2 L227.1 13.1 227.5 13.8 227.85 14.55 227.95 14.8 228.1 14.95 228.25 14.9 228.4 14.85 228.75 14.6 229.05 14.45 228.2 13.95 227.9 13.2 227.9 13.15 Q227.9 12.6 228.3 12.15 228.75 11.7 229.5 11.7 L229.7 11.7 229.95 11.8 230.5 11.95 M203.4 18.15 Q203.35 18.75 202.95 19.05 L202.0 19.5 201.6 19.55 201.25 19.55 201.0 19.55 200.8 19.5 199.7 19.0 Q199.15 18.65 199.2 17.95 199.3 17.3 199.75 17.0 L200.8 16.6 201.1 16.6 201.3 16.6 201.6 16.6 202.0 16.65 Q202.5 16.75 203.0 17.2 203.5 17.55 203.4 18.15 M197.05 10.65 L197.25 13.7 Q197.4 16.1 195.7 17.35 194.0 18.65 191.95 18.8 L191.5 18.9 191.0 18.9 190.4 18.9 189.75 18.75 188.1 18.4 186.75 17.45 Q186.3 17.0 186.2 16.45 L185.3 17.5 Q183.8 19.0 181.05 19.0 L180.9 19.0 Q179.95 19.0 179.1 18.55 178.35 18.2 177.9 17.3 L176.2 18.45 174.15 19.0 173.9 19.05 173.6 19.05 171.7 18.65 Q170.7 18.25 170.0 17.35 169.5 16.75 169.3 16.15 L169.05 16.45 Q168.25 17.55 166.75 18.25 L164.8 18.9 162.55 19.1 162.4 19.1 162.2 19.1 158.95 18.45 Q157.45 17.9 156.5 16.65 L156.2 16.25 154.9 17.6 Q154.15 18.25 153.2 18.65 L151.2 19.0 151.1 19.0 151.0 19.0 150.1 18.95 149.25 18.75 Q148.15 18.4 147.7 17.6 L147.45 16.9 146.85 17.5 Q145.35 19.0 142.65 19.0 L142.3 19.0 141.9 19.0 140.6 18.65 139.5 17.8 139.15 16.95 139.05 16.05 139.05 15.8 139.05 15.65 Q139.1 15.05 139.3 14.5 L139.65 13.4 139.75 13.1 139.95 12.6 140.05 12.4 140.1 12.1 140.25 11.65 140.25 11.3 140.2 10.9 139.8 10.7 Q139.3 10.7 138.8 11.1 L138.0 12.15 137.7 12.7 137.55 13.1 136.95 14.8 136.4 16.45 136.0 17.6 135.55 18.75 130.1 18.75 131.4 14.95 Q130.1 16.6 128.5 17.45 125.9 18.75 122.3 18.75 119.05 18.75 116.6 16.7 114.1 14.6 114.1 11.1 114.1 8.85 115.3 6.9 116.5 5.0 118.35 3.7 119.85 2.65 121.8 2.1 L125.9 1.5 126.55 1.5 127.2 1.55 Q128.4 1.6 129.55 2.0 130.7 2.3 131.6 3.1 L132.25 4.05 132.45 5.05 Q132.45 6.15 131.65 6.95 130.9 7.85 129.7 7.95 L128.35 7.7 127.35 6.95 127.1 6.8 126.85 6.6 127.05 6.5 127.2 6.45 128.2 5.75 128.9 4.7 128.95 4.5 128.95 4.25 Q128.95 3.8 128.6 3.5 L127.6 3.25 Q126.1 3.25 124.8 4.5 123.6 5.7 122.8 7.25 L122.2 8.55 121.7 9.7 121.3 11.1 Q121.05 11.9 121.05 12.75 L121.05 12.85 121.05 13.05 Q121.05 14.15 121.45 15.05 121.9 15.95 122.95 16.35 L123.8 16.6 124.65 16.65 124.9 16.65 125.05 16.6 Q126.85 16.55 128.5 15.4 130.1 14.25 130.9 12.75 L130.95 12.6 131.0 12.5 131.05 12.45 131.05 12.3 132.2 12.75 135.55 2.9 141.1 2.9 138.85 9.25 140.25 8.65 141.75 8.35 142.05 8.35 142.35 8.3 143.95 8.6 Q144.75 8.85 145.3 9.5 L145.8 10.4 145.95 11.35 145.95 11.9 145.75 12.45 145.6 13.05 145.35 13.65 145.15 14.25 145.0 14.9 144.9 14.95 144.85 15.15 144.8 15.35 144.75 15.5 144.75 15.65 144.7 15.8 144.8 16.05 145.05 16.15 145.35 16.1 145.65 16.0 146.35 15.4 147.1 14.6 147.45 14.05 147.75 13.65 147.75 13.5 147.8 13.45 148.5 11.2 149.4 8.6 150.85 8.6 152.25 8.6 153.7 8.6 155.05 8.6 154.7 9.6 154.35 10.65 153.6 12.75 152.9 14.9 152.8 15.35 152.7 15.7 152.85 16.0 153.3 16.05 153.85 15.85 154.6 15.35 155.4 14.25 155.5 14.15 155.5 13.95 Q155.5 12.6 156.25 11.4 157.1 10.2 158.35 9.5 159.2 9.0 160.4 8.7 L162.85 8.3 163.15 8.3 163.45 8.3 165.55 8.55 Q166.5 8.75 167.25 9.45 L167.85 10.3 168.15 11.25 168.15 11.35 168.15 11.5 167.95 12.2 167.6 12.85 166.8 13.4 165.9 13.6 165.8 13.6 165.6 13.6 165.1 13.4 164.6 13.15 164.0 12.6 163.7 11.85 163.7 11.8 163.7 11.65 163.7 11.55 Q163.7 10.9 164.1 10.4 164.55 9.9 165.2 9.75 L164.85 9.7 164.5 9.6 164.3 9.6 164.1 9.7 164.0 9.7 163.8 9.75 Q162.8 10.1 162.1 11.2 161.35 12.25 161.05 13.5 L161.0 14.05 161.0 14.6 Q161.0 15.75 161.6 16.55 162.15 17.35 163.45 17.35 165.7 17.35 167.05 16.15 168.25 15.1 169.1 13.65 169.2 12.75 169.7 11.95 170.35 10.7 171.5 9.85 172.3 9.25 173.4 8.85 174.5 8.4 175.65 8.35 L175.9 8.3 176.1 8.3 177.9 8.6 Q178.75 8.85 179.5 9.45 L179.8 8.6 182.55 8.6 185.35 8.6 185.0 9.6 184.65 10.7 183.9 12.75 183.2 14.9 183.2 14.95 183.15 15.1 183.1 15.25 183.1 15.45 183.0 15.55 183.0 15.7 183.1 15.85 183.25 16.05 183.4 16.05 183.55 16.05 183.85 16.0 184.2 15.8 184.8 15.35 185.4 14.65 185.85 14.0 186.15 13.5 186.2 13.4 186.25 13.3 186.25 13.15 186.3 13.05 186.6 13.15 187.0 12.85 Q187.6 12.45 188.3 12.45 L188.4 12.45 188.6 12.45 188.7 12.45 188.85 12.5 191.4 8.95 196.9 7.55 197.05 10.65 M190.45 15.1 L190.15 15.55 189.4 16.3 188.35 16.55 188.25 16.55 188.2 16.45 188.1 16.45 188.6 16.95 189.3 17.2 Q190.5 17.2 191.2 16.55 191.9 15.95 191.9 14.65 L191.95 12.9 191.95 11.2 190.2 13.45 190.45 14.0 190.5 14.55 190.45 15.1 M175.45 12.25 L174.85 13.15 174.5 13.95 174.45 14.25 174.3 14.65 174.2 15.1 174.1 15.55 174.0 15.95 174.0 16.3 174.15 17.0 Q174.3 17.3 174.7 17.3 175.5 17.3 176.2 16.6 L177.25 15.1 177.7 14.25 178.05 13.5 178.5 11.95 178.7 10.9 178.6 10.3 178.1 10.1 177.8 10.15 177.5 10.2 Q176.95 10.45 176.4 11.0 L175.45 12.25 M153.0 3.4 L153.7 3.5 154.3 3.6 154.45 3.65 154.6 3.7 155.7 4.45 Q156.2 4.95 156.2 5.6 L156.2 5.75 156.15 5.95 155.5 6.85 154.5 7.4 154.35 7.45 154.15 7.5 153.7 7.55 153.2 7.55 151.95 7.45 150.8 6.9 150.25 6.2 150.0 5.4 150.1 5.0 150.3 4.5 151.4 3.7 152.7 3.4 152.9 3.4 153.0 3.4 M104.9 9.55 L103.65 13.3 102.3 17.05 102.3 17.15 102.25 17.25 102.25 17.35 102.25 17.5 102.25 17.55 102.25 17.65 102.3 17.8 102.45 17.8 102.5 17.8 102.7 17.75 102.9 17.65 103.35 17.3 103.7 16.9 103.9 16.7 103.9 16.55 103.95 16.0 104.05 15.45 Q104.4 14.35 105.5 13.75 106.65 13.15 107.85 13.05 L108.4 13.0 108.9 12.9 109.65 13.0 110.3 13.1 110.4 13.15 110.5 13.15 111.5 13.65 Q111.9 14.0 112.0 14.65 112.0 15.65 111.15 16.15 L109.3 17.0 108.2 17.2 107.3 17.25 Q107.4 17.85 107.85 18.2 108.2 18.55 108.85 18.55 110.25 18.55 111.15 17.8 112.05 17.05 112.6 15.95 L113.5 16.35 112.45 17.95 110.95 19.2 109.7 19.6 108.3 19.7 108.15 19.7 107.9 19.65 107.05 19.6 106.3 19.35 Q105.2 19.0 104.55 18.25 L104.3 17.9 103.65 18.7 Q102.7 19.65 101.0 19.65 L99.85 19.4 Q99.3 19.2 99.1 18.55 L97.9 19.4 96.5 19.65 95.25 19.4 Q94.65 19.2 94.15 18.65 L93.7 17.85 93.45 17.05 93.45 16.95 93.45 16.75 Q93.45 16.0 93.85 15.2 L95.05 13.9 96.25 13.2 97.65 12.9 97.8 12.9 97.95 12.9 99.1 13.1 Q99.7 13.2 100.1 13.65 L101.5 9.55 103.2 9.55 104.9 9.55 M110.2 14.3 L110.05 13.8 109.6 13.7 Q108.9 13.7 108.45 14.2 L107.65 15.4 107.55 15.8 107.4 16.15 107.9 16.1 108.4 16.05 109.65 15.45 Q110.2 15.05 110.2 14.3 M92.2 11.2 L92.35 14.25 Q92.55 16.65 90.8 17.9 89.1 19.2 87.1 19.35 L86.6 19.4 86.1 19.4 85.5 19.4 84.85 19.3 83.25 18.95 81.85 17.95 81.5 17.5 81.15 17.85 Q80.35 18.65 79.3 18.65 L78.45 18.5 77.7 18.15 75.1 19.6 72.0 20.2 71.8 20.2 71.5 20.2 68.6 19.8 Q67.2 19.3 66.2 18.45 65.35 17.65 64.95 16.85 64.6 16.0 64.6 15.1 64.6 13.75 65.4 12.5 66.2 11.3 67.5 10.4 68.65 9.7 70.1 9.2 L73.1 8.75 73.5 8.85 74.0 8.85 Q75.2 8.95 76.4 9.4 77.6 9.8 78.5 10.65 L79.65 12.2 Q80.05 13.05 80.05 14.0 L80.0 14.75 79.8 15.4 80.55 15.2 81.15 14.65 81.25 14.55 Q81.45 13.8 82.1 13.4 L83.4 13.0 83.55 13.0 83.7 13.0 83.85 13.0 83.95 13.05 86.55 9.5 92.0 8.1 92.2 11.2 M87.1 13.45 L87.1 11.7 85.35 14.0 85.6 14.55 85.65 15.1 85.6 15.65 85.3 16.1 84.5 16.85 83.5 17.05 83.35 17.05 83.3 17.0 83.25 17.0 83.7 17.5 84.45 17.75 Q85.65 17.75 86.3 17.05 87.0 16.45 87.0 15.2 L87.1 13.45 M98.8 14.15 Q98.4 14.2 98.05 14.6 L97.45 15.4 97.1 16.0 96.85 16.45 96.8 16.6 96.75 16.85 96.7 17.15 96.6 17.5 96.55 17.65 96.55 17.85 96.7 18.35 97.05 18.5 Q97.65 18.5 98.05 18.1 L98.7 17.2 98.9 16.75 99.1 16.35 99.2 16.15 99.25 15.8 99.4 15.55 99.45 15.2 99.5 14.95 99.5 14.75 99.4 14.25 98.95 14.05 98.9 14.05 98.8 14.15 M72.2 11.4 Q71.55 12.15 71.2 13.15 70.75 14.15 70.6 15.2 L70.5 15.85 70.5 16.55 70.5 16.95 70.6 17.5 70.9 18.35 Q71.1 18.75 71.55 18.75 72.25 18.75 72.85 18.2 L73.75 17.05 73.95 16.85 74.05 16.55 73.35 15.75 73.1 14.75 73.1 14.6 73.1 14.55 Q73.2 13.65 73.75 12.9 74.3 12.15 75.2 11.9 75.15 11.0 74.85 10.65 L74.1 10.2 73.45 10.4 72.75 10.8 72.5 11.1 72.2 11.4 M64.5 12.15 L63.5 15.15 62.4 18.2 61.35 21.3 Q60.7 23.2 58.75 24.45 56.8 25.75 54.55 26.05 L54.0 26.1 53.5 26.1 51.75 25.9 Q50.9 25.65 50.2 25.25 49.5 24.9 49.1 24.3 L48.55 22.95 48.5 22.65 48.5 22.4 Q48.5 21.7 49.0 21.1 49.4 20.55 50.35 20.4 L50.5 20.3 50.65 20.3 50.7 20.3 50.85 20.3 Q51.9 20.3 52.5 21.0 53.2 21.65 53.2 22.5 L53.2 22.55 Q53.2 23.15 52.8 23.7 52.45 24.25 51.7 24.45 L51.8 24.55 52.0 24.55 52.1 24.6 52.2 24.6 Q53.7 24.65 54.55 23.5 L55.95 21.05 56.3 19.95 56.6 19.0 55.8 19.3 55.0 19.4 54.6 19.5 54.2 19.5 Q52.35 19.5 50.95 18.35 50.25 17.8 49.9 16.95 49.0 18.05 47.5 18.8 L45.5 19.5 43.35 19.65 43.0 19.65 42.7 19.6 41.3 19.5 40.05 19.1 Q38.35 18.55 37.3 17.35 L36.9 16.9 35.8 18.05 Q35.0 18.7 34.0 19.05 L31.7 19.4 29.55 18.9 Q28.6 18.25 28.4 17.0 L26.1 18.75 Q24.8 19.5 23.3 19.5 21.75 19.5 21.0 18.5 20.3 17.6 20.3 16.35 L20.35 15.45 20.6 14.65 21.15 13.2 21.55 11.85 22.05 10.4 22.6 9.0 28.05 9.0 27.45 10.65 26.95 12.2 26.35 13.8 25.8 15.45 25.75 15.7 25.7 15.95 25.8 16.25 26.2 16.35 26.85 16.1 27.8 15.35 28.9 13.65 29.65 11.65 29.95 10.7 30.3 9.8 30.4 9.55 30.45 9.4 30.45 9.25 30.5 9.15 30.55 9.15 30.55 9.0 31.45 9.0 32.35 9.0 34.15 9.0 36.0 9.0 35.5 10.6 34.95 12.15 34.4 13.75 33.8 15.35 33.75 15.75 33.7 16.05 33.8 16.4 34.05 16.45 34.4 16.4 34.9 16.25 35.1 16.0 35.4 15.75 36.2 14.85 36.2 14.55 36.25 13.75 Q36.3 13.35 36.5 12.9 37.05 11.2 38.85 10.2 40.6 9.25 42.55 8.95 L43.4 8.9 44.25 8.85 45.4 8.9 46.45 9.15 46.65 9.15 46.75 9.2 Q47.6 9.45 48.4 10.05 49.1 10.6 49.1 11.55 49.15 13.1 47.85 14.0 46.45 14.9 44.85 15.35 L43.1 15.65 41.7 15.7 Q41.85 16.7 42.5 17.3 43.1 17.85 44.2 17.85 46.35 17.85 47.85 16.65 L49.5 14.75 Q49.65 12.45 51.55 10.75 53.6 8.95 56.05 8.7 L56.35 8.7 56.65 8.65 58.35 8.9 Q59.1 9.15 59.85 9.7 L60.0 9.1 65.55 9.1 64.5 12.15 M57.2 11.05 L56.05 12.45 55.1 14.15 54.7 15.45 54.5 16.55 54.55 16.95 54.7 17.25 54.9 17.55 55.2 17.65 Q56.4 17.65 57.15 16.65 L58.35 14.35 58.8 12.8 59.2 11.6 59.2 11.4 59.2 11.3 59.0 10.95 58.7 10.65 58.6 10.6 58.5 10.6 58.4 10.5 58.35 10.5 57.75 10.7 57.2 11.05 M43.45 10.9 Q42.7 11.7 42.25 12.75 L42.0 13.4 41.9 14.05 42.6 13.95 43.35 13.75 Q44.5 13.45 45.4 12.8 46.3 12.15 46.3 11.0 L46.05 10.3 45.3 10.05 Q44.25 10.05 43.45 10.9 M23.55 2.4 L21.15 9.3 18.8 16.3 Q17.6 19.7 14.5 21.75 11.4 23.85 7.9 23.85 L6.7 23.8 5.4 23.55 5.25 23.55 5.05 23.5 Q3.9 23.15 2.95 22.4 2.0 21.7 2.0 20.5 L2.05 20.2 2.1 19.85 Q2.35 18.95 3.1 18.45 3.8 17.95 4.65 17.95 L5.65 18.15 Q6.15 18.35 6.55 18.7 L7.1 19.25 6.85 19.3 6.55 19.4 5.65 20.1 Q5.25 20.5 5.3 21.1 L5.3 21.15 5.3 21.3 Q5.35 21.75 5.7 22.0 L6.55 22.25 Q7.6 22.3 8.4 21.4 L9.9 19.5 10.45 18.4 10.9 17.45 11.85 14.65 12.75 11.9 13.75 9.15 14.65 6.45 14.7 6.25 14.8 6.05 14.9 5.65 15.0 5.15 15.1 4.8 15.1 4.5 14.85 3.65 Q14.65 3.3 14.0 3.3 12.6 3.3 11.5 4.5 10.3 5.7 10.05 7.15 L10.0 7.45 10.0 7.8 10.05 8.35 10.15 8.9 Q10.4 9.55 10.9 9.8 L11.9 10.15 12.1 10.2 12.25 10.2 12.1 10.4 11.95 10.65 11.3 11.2 10.6 11.65 9.85 11.9 9.2 12.0 Q8.0 12.0 7.2 11.05 6.4 10.1 6.3 8.7 L6.4 7.75 6.7 6.75 Q7.8 3.9 10.6 2.75 13.35 1.6 16.45 1.5 L16.75 1.5 17.05 1.5 20.5 1.75 23.55 2.4" fill="#ffffff" fill-rule="evenodd" stroke="none"/>
  </g>
  <defs>
    <linearGradient gradientTransform="matrix(0.0, 0.0183, -0.0509, 0.0, 151.9, 13.75)" gradientUnits="userSpaceOnUse" id="gradient0" spreadMethod="pad" x1="-819.2" x2="819.2">
      <stop offset="0.0" stop-color="#ef019d"/>
      <stop offset="1.0" stop-color="#5a015f"/>
    </linearGradient>
  </defs>
</svg>
