<?xml version="1.0" encoding="UTF-8" standalone="no"?>
<svg xmlns:xlink="http://www.w3.org/1999/xlink" height="84.15px" width="124.4px" xmlns="http://www.w3.org/2000/svg">
  <g transform="matrix(1.0, 0.0, 0.0, 1.0, -11.3, 0.0)">
    <path d="M78.85 62.15 L11.3 62.15 11.3 60.8 78.85 60.8 78.85 62.15" fill="#af0ac2" fill-rule="evenodd" stroke="none"/>
    <path d="M77.55 60.85 L11.3 60.85 11.3 59.9 77.55 59.9 77.55 60.85" fill="#ffffff" fill-rule="evenodd" stroke="none"/>
    <path d="M77.1 84.15 L77.2 0.0 78.7 0.0 78.6 84.15 77.1 84.15" fill="#af0ac2" fill-rule="evenodd" stroke="none"/>
    <path d="M78.5 83.95 L78.6 0.05 79.65 0.05 79.55 83.95 78.5 83.95" fill="#ffffff" fill-rule="evenodd" stroke="none"/>
    <path d="M132.1 5.2 Q135.7 5.2 135.7 9.8 L135.7 14.4 Q135.7 18.95 132.1 18.95 L114.25 18.95 Q110.6 18.95 110.6 14.4 L110.6 9.8 Q110.6 5.2 114.25 5.2 L132.1 5.2" fill="#f5f5f5" fill-rule="evenodd" stroke="none"/>
    <path d="M132.1 23.4 Q135.7 23.4 135.7 28.0 L135.7 32.6 Q135.7 37.15 132.1 37.15 L114.25 37.15 Q110.6 37.15 110.6 32.6 L110.6 28.0 Q110.6 23.4 114.25 23.4 L132.1 23.4" fill="#f5f5f5" fill-rule="evenodd" stroke="none"/>
    <path d="M132.1 41.55 Q135.7 41.55 135.7 46.15 L135.7 50.75 Q135.7 55.3 132.1 55.3 L114.25 55.3 Q110.6 55.3 110.6 50.75 L110.6 46.15 Q110.6 41.55 114.25 41.55 L132.1 41.55" fill="#f5f5f5" fill-rule="evenodd" stroke="none"/>
    <path d="M132.1 60.55 Q135.7 60.55 135.7 65.15 L135.7 69.75 Q135.7 74.3 132.1 74.3 L114.25 74.3 Q110.6 74.3 110.6 69.75 L110.6 65.15 Q110.6 60.55 114.25 60.55 L132.1 60.55" fill="#f5f5f5" fill-rule="evenodd" stroke="none"/>
  </g>
</svg>
