<?xml version="1.0" encoding="UTF-8" standalone="no"?>
<svg xmlns:xlink="http://www.w3.org/1999/xlink" height="92.0px" width="137.55px" xmlns="http://www.w3.org/2000/svg">
  <g transform="matrix(1.0, 0.0, 0.0, 1.0, -8.75, 3.1)">
    <path d="M134.65 0.9 Q142.3 0.9 142.3 9.2 L142.3 76.6 Q142.3 84.9 134.65 84.9 L20.4 84.9 Q12.75 84.9 12.75 76.6 L12.75 9.2 Q12.75 0.9 20.4 0.9 L134.65 0.9" fill="url(#gradient0)" fill-rule="evenodd" stroke="none"/>
    <path d="M134.65 0.9 L20.4 0.9 Q12.75 0.9 12.75 9.2 L12.75 76.6 Q12.75 84.9 20.4 84.9 L134.65 84.9 Q142.3 84.9 142.3 76.6 L142.3 9.2 Q142.3 0.9 134.65 0.9 Z" fill="none" stroke="#ffffff" stroke-linecap="round" stroke-linejoin="round" stroke-width="8.0"/>
    <path d="M134.65 0.9 Q142.3 0.9 142.3 9.2 L142.3 76.6 Q142.3 84.9 134.65 84.9 L20.4 84.9 Q12.75 84.9 12.75 76.6 L12.75 9.2 Q12.75 0.9 20.4 0.9 L134.65 0.9" fill="url(#gradient1)" fill-rule="evenodd" stroke="none"/>
    <path d="M134.65 0.9 L20.4 0.9 Q12.75 0.9 12.75 9.2 L12.75 76.6 Q12.75 84.9 20.4 84.9 L134.65 84.9 Q142.3 84.9 142.3 76.6 L142.3 9.2 Q142.3 0.9 134.65 0.9 Z" fill="none" stroke="#005177" stroke-linecap="round" stroke-linejoin="round" stroke-width="4.0"/>
    <path d="M134.2 0.9 Q141.85 0.9 141.85 9.2 L141.85 76.6 Q141.85 84.9 134.2 84.9 L19.95 84.9 Q12.3 84.9 12.3 76.6 L12.3 9.2 Q12.3 0.9 19.95 0.9 L134.2 0.9" fill="url(#gradient2)" fill-rule="evenodd" stroke="none"/>
    <path d="M141.2 10.35 L141.2 13.1 13.7 13.1 13.7 10.35 Q13.7 2.1 21.3 2.1 L133.55 2.1 Q141.2 2.1 141.2 10.35" fill="url(#gradient3)" fill-rule="evenodd" stroke="none"/>
    <path d="M78.6 63.35 L10.75 63.35 10.75 62.0 78.6 62.0 78.6 63.35" fill="#005177" fill-rule="evenodd" stroke="none"/>
    <path d="M77.8 62.0 L11.3 62.0 11.3 61.05 77.8 61.05 77.8 62.0" fill="#ffffff" fill-rule="evenodd" stroke="none"/>
    <path d="M77.45 85.35 L77.55 0.0 79.05 0.0 78.95 85.35 77.45 85.35" fill="#005177" fill-rule="evenodd" stroke="none"/>
    <path d="M78.85 84.45 L78.95 0.75 80.0 0.75 79.9 84.45 78.85 84.45" fill="#ffffff" fill-rule="evenodd" stroke="none"/>
    <path d="M66.0 4.4 Q72.4 4.4 72.4 10.75 L72.4 52.4 Q72.4 58.75 66.0 58.75 L24.4 58.75 Q18.0 58.75 18.0 52.4 L18.0 10.75 Q18.0 4.4 24.4 4.4 L66.0 4.4" fill="url(#gradient4)" fill-rule="evenodd" stroke="none"/>
    <path d="M66.0 4.4 L24.4 4.4 Q18.0 4.4 18.0 10.75 L18.0 52.4 Q18.0 58.75 24.4 58.75 L66.0 58.75 Q72.4 58.75 72.4 52.4 L72.4 10.75 Q72.4 4.4 66.0 4.4 Z" fill="none" stroke="url(#gradient5)" stroke-linecap="round" stroke-linejoin="round" stroke-width="2.0"/>
    <path d="M75.2 74.65 L14.65 74.65 14.65 64.35 75.2 64.35 75.2 74.65" fill="url(#gradient6)" fill-rule="evenodd" stroke="none"/>
  </g>
  <defs>
    <linearGradient gradientTransform="matrix(-1.0E-4, -0.036, 0.0798, -1.0E-4, 43.15, 31.05)" gradientUnits="userSpaceOnUse" id="gradient0" spreadMethod="pad" x1="-819.2" x2="819.2">
      <stop offset="0.0" stop-color="#74e4ff"/>
      <stop offset="1.0" stop-color="#00afff"/>
    </linearGradient>
    <linearGradient gradientTransform="matrix(-1.0E-4, -0.036, 0.0798, -1.0E-4, 43.15, 31.05)" gradientUnits="userSpaceOnUse" id="gradient1" spreadMethod="pad" x1="-819.2" x2="819.2">
      <stop offset="0.0" stop-color="#74e4ff"/>
      <stop offset="1.0" stop-color="#00afff"/>
    </linearGradient>
    <linearGradient gradientTransform="matrix(-1.0E-4, -0.036, 0.0798, -1.0E-4, 42.7, 31.05)" gradientUnits="userSpaceOnUse" id="gradient2" spreadMethod="pad" x1="-819.2" x2="819.2">
      <stop offset="0.0" stop-color="#11c7f3"/>
      <stop offset="1.0" stop-color="#0095e9"/>
    </linearGradient>
    <linearGradient gradientTransform="matrix(0.0, -0.0087, 0.0808, -1.0E-4, 44.7, 11.55)" gradientUnits="userSpaceOnUse" id="gradient3" spreadMethod="pad" x1="-819.2" x2="819.2">
      <stop offset="0.0" stop-color="#ffffff" stop-opacity="0.0"/>
      <stop offset="1.0" stop-color="#ffffff" stop-opacity="0.6"/>
    </linearGradient>
    <linearGradient gradientTransform="matrix(-0.0247, 0.0291, -0.0251, -0.0213, 45.5, 31.75)" gradientUnits="userSpaceOnUse" id="gradient4" spreadMethod="pad" x1="-819.2" x2="819.2">
      <stop offset="0.0" stop-color="#e3f3fa"/>
      <stop offset="1.0" stop-color="#95bbcb"/>
    </linearGradient>
    <linearGradient gradientTransform="matrix(0.0, 0.0337, -0.0337, 0.0, 45.35, 31.45)" gradientUnits="userSpaceOnUse" id="gradient5" spreadMethod="pad" x1="-819.2" x2="819.2">
      <stop offset="0.0" stop-color="#004577"/>
      <stop offset="0.9254901960784314" stop-color="#5482a4"/>
      <stop offset="0.9607843137254902" stop-color="#ffffff"/>
    </linearGradient>
    <linearGradient gradientTransform="matrix(0.0, -0.0092, 0.0011, 0.0, 45.25, 71.95)" gradientUnits="userSpaceOnUse" id="gradient6" spreadMethod="pad" x1="-819.2" x2="819.2">
      <stop offset="0.0" stop-color="#ffffff" stop-opacity="0.0"/>
      <stop offset="1.0" stop-color="#ffffff" stop-opacity="0.6"/>
    </linearGradient>
  </defs>
</svg>
