<?xml version="1.0" encoding="UTF-8" standalone="no"?>
<svg xmlns:xlink="http://www.w3.org/1999/xlink" height="92.0px" width="136.5px" xmlns="http://www.w3.org/2000/svg">
  <g transform="matrix(1.0, 0.0, 0.0, 1.0, -8.3, 4.0)">
    <path d="M133.2 0.0 Q140.8 0.0 140.8 8.3 L140.8 75.7 Q140.8 84.0 133.2 84.0 L19.85 84.0 Q12.3 84.0 12.3 75.7 L12.3 8.3 Q12.3 0.0 19.85 0.0 L133.2 0.0" fill="url(#gradient0)" fill-rule="evenodd" stroke="none"/>
    <path d="M133.2 0.0 L19.85 0.0 Q12.3 0.0 12.3 8.3 L12.3 75.7 Q12.3 84.0 19.85 84.0 L133.2 84.0 Q140.8 84.0 140.8 75.7 L140.8 8.3 Q140.8 0.0 133.2 0.0 Z" fill="none" stroke="#ffffff" stroke-linecap="round" stroke-linejoin="round" stroke-width="8.0"/>
    <path d="M133.2 0.0 Q140.8 0.0 140.8 8.3 L140.8 75.7 Q140.8 84.0 133.2 84.0 L19.85 84.0 Q12.3 84.0 12.3 75.7 L12.3 8.3 Q12.3 0.0 19.85 0.0 L133.2 0.0" fill="url(#gradient1)" fill-rule="evenodd" stroke="none"/>
    <path d="M133.2 0.0 L19.85 0.0 Q12.3 0.0 12.3 8.3 L12.3 75.7 Q12.3 84.0 19.85 84.0 L133.2 84.0 Q140.8 84.0 140.8 75.7 L140.8 8.3 Q140.8 0.0 133.2 0.0 Z" fill="none" stroke="#272727" stroke-linecap="round" stroke-linejoin="round" stroke-width="4.0"/>
    <path d="M12.15 8.3 Q12.15 0.0 19.75 0.0 L133.1 0.0 Q140.65 0.0 140.65 8.3 L140.65 75.7 Q140.65 84.0 133.1 84.0 L19.75 84.0 Q12.15 84.0 12.15 75.7 L12.15 8.3" fill="url(#gradient2)" fill-rule="evenodd" stroke="none"/>
    <path d="M139.8 9.45 L139.8 12.2 13.35 12.2 13.35 9.45 Q13.35 1.2 20.9 1.2 L132.25 1.2 Q139.8 1.2 139.8 9.45" fill="url(#gradient3)" fill-rule="evenodd" stroke="none"/>
    <path d="M63.6 3.5 Q69.45 3.5 69.45 9.85 L69.45 51.5 Q69.45 57.85 63.6 57.85 L25.65 57.85 Q19.8 57.85 19.8 51.5 L19.8 9.85 Q19.8 3.5 25.65 3.5 L63.6 3.5" fill="url(#gradient4)" fill-rule="evenodd" stroke="none"/>
    <path d="M63.6 3.5 L25.65 3.5 Q19.8 3.5 19.8 9.85 L19.8 51.5 Q19.8 57.85 25.65 57.85 L63.6 57.85 Q69.45 57.85 69.45 51.5 L69.45 9.85 Q69.45 3.5 63.6 3.5 Z" fill="none" stroke="url(#gradient5)" stroke-linecap="round" stroke-linejoin="round" stroke-width="2.0"/>
    <path d="M74.55 73.8 L14.45 73.8 14.45 63.65 74.55 63.65 74.55 73.8" fill="url(#gradient6)" fill-rule="evenodd" stroke="none"/>
    <path d="M77.85 62.1 L12.35 62.1 12.35 60.75 77.85 60.75 77.85 62.1" fill="#8e8e8e" fill-rule="evenodd" stroke="none"/>
    <path d="M76.7 60.8 L12.45 60.8 12.45 59.85 76.7 59.85 76.7 60.8" fill="#ffffff" fill-rule="evenodd" stroke="none"/>
    <path d="M76.9 84.1 L76.95 1.15 78.35 1.15 78.3 84.1 76.9 84.1" fill="#8e8e8e" fill-rule="evenodd" stroke="none"/>
    <path d="M78.4 83.9 L78.45 1.2 79.45 1.2 79.4 83.9 78.4 83.9" fill="#ffffff" fill-rule="evenodd" stroke="none"/>
  </g>
  <defs>
    <linearGradient gradientTransform="matrix(-1.0E-4, -0.036, 0.0792, -1.0E-4, 42.45, 30.15)" gradientUnits="userSpaceOnUse" id="gradient0" spreadMethod="pad" x1="-819.2" x2="819.2">
      <stop offset="0.0" stop-color="#74e4ff"/>
      <stop offset="1.0" stop-color="#00afff"/>
    </linearGradient>
    <linearGradient gradientTransform="matrix(-1.0E-4, -0.036, 0.0792, -1.0E-4, 42.45, 30.15)" gradientUnits="userSpaceOnUse" id="gradient1" spreadMethod="pad" x1="-819.2" x2="819.2">
      <stop offset="0.0" stop-color="#74e4ff"/>
      <stop offset="1.0" stop-color="#00afff"/>
    </linearGradient>
    <linearGradient gradientTransform="matrix(-1.0E-4, -0.036, 0.0792, -1.0E-4, 42.35, 30.15)" gradientUnits="userSpaceOnUse" id="gradient2" spreadMethod="pad" x1="-819.2" x2="819.2">
      <stop offset="0.0" stop-color="#666666"/>
      <stop offset="1.0" stop-color="#313131"/>
    </linearGradient>
    <linearGradient gradientTransform="matrix(0.0, -0.0087, 0.0801, -1.0E-4, 44.1, 10.65)" gradientUnits="userSpaceOnUse" id="gradient3" spreadMethod="pad" x1="-819.2" x2="819.2">
      <stop offset="0.0" stop-color="#ffffff" stop-opacity="0.0"/>
      <stop offset="1.0" stop-color="#ffffff" stop-opacity="0.6"/>
    </linearGradient>
    <linearGradient gradientTransform="matrix(-0.0226, 0.0291, -0.0229, -0.0213, 44.9, 30.85)" gradientUnits="userSpaceOnUse" id="gradient4" spreadMethod="pad" x1="-819.2" x2="819.2">
      <stop offset="0.0" stop-color="#f3f3f3"/>
      <stop offset="1.0" stop-color="#c9c9c9"/>
    </linearGradient>
    <linearGradient gradientTransform="matrix(0.0, 0.0337, -0.0308, 0.0, 44.8, 30.55)" gradientUnits="userSpaceOnUse" id="gradient5" spreadMethod="pad" x1="-819.2" x2="819.2">
      <stop offset="0.0" stop-color="#202020"/>
      <stop offset="0.8549019607843137" stop-color="#585858"/>
      <stop offset="0.9372549019607843" stop-color="#ffffff"/>
    </linearGradient>
    <linearGradient gradientTransform="matrix(0.0, -0.0091, 0.0011, 0.0, 44.8, 71.1)" gradientUnits="userSpaceOnUse" id="gradient6" spreadMethod="pad" x1="-819.2" x2="819.2">
      <stop offset="0.0" stop-color="#ffffff" stop-opacity="0.0"/>
      <stop offset="1.0" stop-color="#ffffff" stop-opacity="0.6"/>
    </linearGradient>
  </defs>
</svg>
