<?xml version="1.0" encoding="UTF-8" standalone="no"?>
<svg xmlns:xlink="http://www.w3.org/1999/xlink" height="109.95px" width="159.2px" xmlns="http://www.w3.org/2000/svg">
  <g transform="matrix(1.0, 0.0, 0.0, 1.0, 0.6, 0.0)">
    <path d="M148.15 81.75 Q152.05 75.8 152.25 59.5 152.45 43.15 152.05 27.55 151.65 11.9 150.65 8.55 L80.8 38.0 6.6 9.3 5.25 29.5 5.75 43.35 Q6.35 62.05 10.0 81.4 L8.5 81.0 4.15 79.8 0.75 60.95 Q-2.5 33.1 2.2 1.55 L80.9 30.45 156.25 0.0 157.7 9.5 158.55 35.7 Q158.9 50.6 157.55 62.1 156.15 73.55 152.05 81.6 L147.3 82.85 148.15 81.75" fill="#585858" fill-rule="evenodd" stroke="none"/>
    <path d="M8.5 81.0 L10.0 81.4 Q6.35 62.05 5.75 43.35 L5.25 29.5 6.6 9.3 80.8 38.0 150.65 8.55 Q151.65 11.9 152.05 27.55 152.45 43.15 152.25 59.5 152.05 75.8 148.15 81.75 L144.35 85.45 Q117.85 109.85 75.8 109.85 36.4 109.85 13.15 86.2 L8.5 81.0" fill="#d9d9d9" fill-rule="evenodd" stroke="none"/>
    <path d="M43.75 104.25 L40.05 88.15 42.5 85.65 Q79.75 90.4 117.4 84.9 L119.25 87.4 114.35 104.3 114.35 104.4 113.95 104.55 114.05 104.45 Q115.4 96.1 116.9 87.75 L98.95 89.6 Q70.7 91.65 42.35 88.45 L44.05 104.5 43.75 104.4 43.75 104.25" fill="url(#gradient0)" fill-rule="evenodd" stroke="none"/>
    <path d="M44.05 104.5 L42.35 88.45 Q70.7 91.65 98.95 89.6 98.35 100.95 95.0 108.6 L86.65 109.55 Q67.35 111.45 44.05 104.5" fill="#cecece" fill-rule="evenodd" stroke="none"/>
    <path d="M98.95 89.6 L116.9 87.75 Q115.4 96.1 114.05 104.45 L113.95 104.55 113.15 104.85 Q106.7 107.1 95.0 108.6 98.35 100.95 98.95 89.6" fill="#aaaaaa" fill-rule="evenodd" stroke="none"/>
    <path d="M114.35 104.3 L119.25 87.4 117.4 84.9 Q79.75 90.4 42.5 85.65 L40.05 88.15 43.75 104.25 41.3 104.05 37.85 86.9 41.5 83.2 Q79.5 88.15 117.95 83.2 L121.25 87.2 116.4 103.8 114.35 104.3" fill="#7b7b7b" fill-rule="evenodd" stroke="none"/>
    <path d="M55.6 94.9 Q55.6 96.0 54.7 96.7 53.75 97.45 52.4 97.45 51.1 97.45 50.1 96.7 49.15 96.0 49.15 94.9 49.15 93.85 50.1 93.15 51.1 92.35 52.4 92.35 53.75 92.35 54.7 93.15 55.6 93.85 55.6 94.9" fill="#f3f3f3" fill-rule="evenodd" stroke="none"/>
    <path d="M54.7 94.9 Q54.7 95.65 54.05 96.15 53.4 96.7 52.4 96.7 51.45 96.7 50.8 96.15 50.1 95.65 50.1 94.9 50.1 94.2 50.8 93.7 51.45 93.15 52.4 93.15 53.4 93.15 54.05 93.7 54.7 94.2 54.7 94.9" fill="#8e8e8e" fill-rule="evenodd" stroke="none"/>
    <path d="M83.1 96.0 Q83.1 97.1 82.2 97.8 81.25 98.55 79.9 98.55 78.6 98.55 77.6 97.8 76.65 97.1 76.65 96.0 76.65 94.95 77.6 94.25 78.6 93.45 79.9 93.45 81.25 93.45 82.2 94.25 83.1 94.95 83.1 96.0" fill="#f3f3f3" fill-rule="evenodd" stroke="none"/>
    <path d="M82.2 96.0 Q82.2 96.75 81.55 97.25 80.9 97.8 79.9 97.8 78.95 97.8 78.3 97.25 77.6 96.75 77.6 96.0 77.6 95.3 78.3 94.8 78.95 94.25 79.9 94.25 80.9 94.25 81.55 94.8 82.2 95.3 82.2 96.0" fill="#8e8e8e" fill-rule="evenodd" stroke="none"/>
    <path d="M110.5 94.35 Q110.5 95.45 109.6 96.15 108.65 96.9 107.3 96.9 106.0 96.9 105.0 96.15 104.05 95.45 104.05 94.35 104.05 93.3 105.0 92.6 106.0 91.8 107.3 91.8 108.65 91.8 109.6 92.6 110.5 93.3 110.5 94.35" fill="#f3f3f3" fill-rule="evenodd" stroke="none"/>
    <path d="M109.6 94.35 Q109.6 95.1 108.95 95.6 108.3 96.15 107.3 96.15 106.35 96.15 105.7 95.6 105.0 95.1 105.0 94.35 105.0 93.65 105.7 93.15 106.35 92.6 107.3 92.6 108.3 92.6 108.95 93.15 109.6 93.65 109.6 94.35" fill="#8e8e8e" fill-rule="evenodd" stroke="none"/>
  </g>
  <defs>
    <linearGradient gradientTransform="matrix(0.0021, 0.0179, -0.022, 0.0015, 80.25, 103.85)" gradientUnits="userSpaceOnUse" id="gradient0" spreadMethod="pad" x1="-819.2" x2="819.2">
      <stop offset="0.0" stop-color="#f5f5f5"/>
      <stop offset="1.0" stop-color="#8e8e8e"/>
    </linearGradient>
  </defs>
</svg>
