<?xml version="1.0" encoding="UTF-8" standalone="no"?>
<svg xmlns:xlink="http://www.w3.org/1999/xlink" height="69.9px" width="25.6px" xmlns="http://www.w3.org/2000/svg">
  <g transform="matrix(1.0, 0.0, 0.0, 1.0, -110.25, -4.85)">
    <path d="M132.15 4.85 Q135.85 4.85 135.85 9.45 L135.85 14.05 Q135.85 18.6 132.15 18.6 L113.95 18.6 Q110.25 18.6 110.25 14.05 L110.25 9.45 Q110.25 4.85 113.95 4.85 L132.15 4.85" fill="#b8b8b8" fill-rule="evenodd" stroke="none"/>
    <path d="M132.15 23.65 Q135.85 23.65 135.85 28.25 L135.85 32.85 Q135.85 37.4 132.15 37.4 L113.95 37.4 Q110.25 37.4 110.25 32.85 L110.25 28.25 Q110.25 23.65 113.95 23.65 L132.15 23.65" fill="#b8b8b8" fill-rule="evenodd" stroke="none"/>
    <path d="M132.15 41.8 Q135.85 41.8 135.85 46.4 L135.85 51.0 Q135.85 55.55 132.15 55.55 L113.95 55.55 Q110.25 55.55 110.25 51.0 L110.25 46.4 Q110.25 41.8 113.95 41.8 L132.15 41.8" fill="#b8b8b8" fill-rule="evenodd" stroke="none"/>
    <path d="M132.15 61.0 Q135.85 61.0 135.85 65.6 L135.85 70.2 Q135.85 74.75 132.15 74.75 L113.95 74.75 Q110.25 74.75 110.25 70.2 L110.25 65.6 Q110.25 61.0 113.95 61.0 L132.15 61.0" fill="#b8b8b8" fill-rule="evenodd" stroke="none"/>
  </g>
</svg>
