<?xml version="1.0" encoding="UTF-8" standalone="no"?>
<svg xmlns:xlink="http://www.w3.org/1999/xlink" height="185.15px" width="751.35px" xmlns="http://www.w3.org/2000/svg">
  <g transform="matrix(1.0, 0.0, 0.0, 1.0, -170.5, -956.65)">
    <path d="M183.8 973.2 L296.5 962.85 Q302.3 962.85 306.25 966.55 310.2 970.25 310.7 976.1 L313.95 1013.1 Q314.2 1016.15 313.15 1019.15 L310.75 1023.9 309.45 1025.8 268.35 1073.35 308.2 1070.95 Q314.0 1070.95 317.95 1074.65 321.9 1078.35 322.4 1084.2 L324.1 1117.5 Q324.5 1123.65 320.65 1128.05 316.8 1132.45 310.55 1132.85 L200.35 1141.8 Q194.8 1141.8 190.85 1138.25 186.85 1134.75 186.1 1129.15 L181.35 1096.25 181.3 1095.5 Q180.5 1087.85 184.9 1083.25 L228.5 1031.0 188.8 1033.95 Q183.2 1033.95 179.25 1030.4 175.25 1026.85 174.55 1021.2 L170.65 989.25 Q169.85 983.0 173.6 978.4 177.4 973.75 183.8 973.2" fill="#801421" fill-rule="evenodd" stroke="none"/>
    <path d="M526.15 961.2 Q539.15 964.4 547.35 970.05 558.15 977.6 564.65 990.85 571.1 1004.15 572.45 1021.5 574.95 1053.75 550.9 1075.2 532.6 1091.45 509.65 1096.85 L510.95 1120.3 Q511.15 1126.0 507.75 1130.2 504.35 1134.35 498.85 1135.3 L461.6 1140.95 459.15 1141.15 Q453.5 1141.15 449.5 1137.4 445.5 1133.7 445.0 1127.95 L430.0 973.7 Q429.55 967.5 433.3 963.05 437.1 958.6 443.35 958.15 L478.8 956.65 Q487.7 956.65 494.05 957.05 513.1 958.05 526.15 961.2 M502.8 1018.85 L504.05 1041.3 Q506.55 1041.2 508.95 1039.6 513.75 1036.4 513.35 1029.1 513.05 1023.05 507.9 1020.35 506.3 1019.5 504.4 1019.1 L502.8 1018.85" fill="#801421" fill-rule="evenodd" stroke="none"/>
    <path d="M684.1 957.25 Q693.4 956.95 701.85 956.95 L734.85 958.4 Q753.9 960.25 766.75 964.0 779.6 967.7 787.5 973.75 797.95 981.8 803.85 995.35 809.75 1008.9 810.3 1026.3 811.35 1058.6 786.35 1078.95 778.3 1085.55 769.05 1090.25 757.1 1096.35 744.2 1098.75 L744.45 1122.3 Q744.4 1128.0 740.8 1132.0 737.25 1136.0 731.7 1136.7 L694.25 1140.65 692.45 1140.75 Q686.5 1140.75 682.5 1136.85 678.45 1132.95 678.2 1126.95 L670.1 972.2 Q669.9 966.0 673.9 961.75 677.9 957.45 684.1 957.25 M740.85 1020.55 L740.8 1042.1 Q743.1 1041.9 745.4 1040.45 749.95 1037.5 749.95 1031.1 749.95 1025.55 745.4 1022.5 L740.85 1020.55" fill="#801421" fill-rule="evenodd" stroke="none"/>
    <path d="M641.05 988.4 Q644.75 991.15 646.1 995.7 L682.6 1112.55 Q683.05 1114.05 683.1 1115.15 683.65 1121.05 679.9 1125.5 676.2 1129.9 670.25 1130.35 L640.45 1131.65 Q635.3 1131.65 631.0 1128.1 627.0 1124.85 625.7 1120.4 L623.25 1107.9 611.75 1108.6 611.25 1118.7 611.1 1119.9 Q610.35 1124.9 606.3 1128.7 602.25 1132.55 597.3 1132.95 L566.1 1135.8 Q560.55 1135.8 556.6 1132.15 552.7 1128.5 552.2 1122.85 L552.15 1122.35 Q552.05 1120.7 552.25 1119.55 L570.4 1001.2 Q571.05 996.2 574.6 992.8 578.15 989.35 583.15 988.95 L631.6 985.65 632.7 985.6 Q637.35 985.6 641.05 988.4" fill="#801421" fill-rule="evenodd" stroke="none"/>
    <path d="M397.35 985.6 Q402.0 985.6 405.7 988.4 409.4 991.15 410.75 995.7 L447.3 1112.55 447.8 1115.15 Q448.25 1121.05 444.6 1125.5 440.85 1129.9 434.9 1130.35 L405.0 1131.65 Q400.2 1131.65 396.45 1128.85 392.7 1126.0 391.35 1121.4 L388.15 1107.9 376.1 1108.65 374.8 1120.9 Q374.0 1125.9 370.5 1129.2 367.0 1132.55 362.0 1132.95 L331.8 1135.8 Q326.2 1135.8 322.3 1132.15 318.35 1128.5 317.85 1122.85 L317.8 1122.35 317.9 1119.65 335.05 1001.25 Q335.7 996.25 339.25 992.8 342.8 989.35 347.8 988.95 L396.3 985.65 397.35 985.6" fill="#801421" fill-rule="evenodd" stroke="none"/>
    <path d="M879.7 988.4 Q883.4 991.15 884.75 995.7 L921.3 1112.55 921.8 1115.15 Q922.25 1121.05 918.6 1125.5 914.85 1129.9 908.9 1130.35 L908.45 1130.4 878.0 1131.65 Q873.2 1131.65 869.45 1128.85 865.7 1126.0 864.35 1121.4 L861.15 1107.9 850.1 1108.6 848.8 1120.9 Q848.0 1125.9 844.5 1129.2 841.0 1132.55 836.0 1132.95 L804.8 1135.8 Q799.2 1135.8 795.3 1132.15 791.35 1128.5 790.85 1122.85 L790.8 1122.35 790.9 1119.55 809.05 1001.2 Q809.75 996.2 813.25 992.8 816.8 989.35 821.8 988.95 L870.3 985.65 871.35 985.6 Q876.0 985.6 879.7 988.4" fill="#801421" fill-rule="evenodd" stroke="none"/>
  </g>
</svg>
