<?xml version="1.0" encoding="UTF-8" standalone="no"?>
<svg xmlns:xlink="http://www.w3.org/1999/xlink" height="172.5px" width="130.8px" xmlns="http://www.w3.org/2000/svg">
  <g transform="matrix(1.0, 0.0, 0.0, 1.0, -0.15, 0.0)">
    <path d="M60.65 49.55 L62.75 85.65 Q75.75 82.75 79.95 77.7 82.7 74.45 82.7 67.7 82.7 56.25 71.7 51.75 68.25 50.35 64.1 49.8 L60.65 49.55 M88.45 4.25 Q100.7 7.2 108.15 12.35 117.85 19.05 123.65 31.2 129.5 43.35 130.75 59.3 133.0 88.6 111.15 108.05 102.95 115.3 93.55 120.4 81.2 127.05 67.65 129.35 L69.2 157.95 Q69.3 161.35 67.35 163.75 65.4 166.2 62.1 166.75 L24.95 172.35 23.4 172.5 Q20.05 172.5 17.8 170.35 15.5 168.2 15.25 164.8 L0.2 10.6 Q-0.05 6.8 2.1 4.35 4.25 1.75 8.05 1.5 L43.05 0.0 Q51.8 0.0 58.0 0.4 76.2 1.35 88.45 4.25" fill="#ff0000" fill-rule="evenodd" stroke="none"/>
  </g>
</svg>
