<?xml version="1.0" encoding="UTF-8" standalone="no"?>
<svg xmlns:xlink="http://www.w3.org/1999/xlink" height="43.35px" width="31.95px" xmlns="http://www.w3.org/2000/svg">
  <g transform="matrix(1.0, 0.0, 0.0, 1.0, 1.05, 12.35)">
    <path d="M1.2 -9.55 Q2.5 -11.35 4.25 -11.35 L25.65 -11.35 25.8 -11.35 Q27.45 -11.25 28.6 -9.55 29.6 -8.3 29.85 -6.7 L29.9 -5.3 29.9 -4.5 29.9 -1.4 29.9 0.6 29.9 2.55 29.9 7.75 29.9 20.7 29.85 21.0 29.85 24.95 Q29.25 28.1 27.7 29.1 26.65 29.85 23.85 30.0 L5.9 30.0 Q3.5 29.9 2.15 28.8 0.55 27.5 -0.05 24.8 L-0.05 24.0 -0.05 -4.8 0.05 -6.0 Q0.15 -8.0 1.2 -9.55" fill="#aa9127" fill-rule="evenodd" stroke="none"/>
    <path d="M1.2 -9.55 Q2.5 -11.35 4.25 -11.35 L25.65 -11.35 25.8 -11.35 Q27.45 -11.25 28.6 -9.55 29.6 -8.3 29.85 -6.7 L29.9 -5.3 29.9 -4.5 29.9 -1.4 29.9 0.6 29.9 2.55 29.9 7.75 29.9 20.7 29.85 21.0 29.85 24.95 Q29.25 28.1 27.7 29.1 26.65 29.85 23.85 30.0 L5.9 30.0 Q3.5 29.9 2.15 28.8 0.55 27.5 -0.05 24.8 L-0.05 24.0 -0.05 -4.8 0.05 -6.0 Q0.15 -8.0 1.2 -9.55 Z" fill="none" stroke="#4a2500" stroke-linecap="round" stroke-linejoin="round" stroke-width="2.0"/>
    <path d="M0.0 -4.75 Q0.0 -7.15 1.2 -8.9 2.5 -10.7 4.25 -10.7 L25.65 -10.7 25.8 -10.7 Q27.45 -10.55 28.6 -8.9 29.55 -7.65 29.85 -6.05 L29.9 -4.75 29.9 -3.85 29.9 -1.15 29.9 -0.2 29.9 4.0 29.9 8.15 29.9 9.05 29.9 10.35 29.9 13.2 29.9 14.8 29.9 16.0 29.9 25.0 Q29.3 28.15 27.75 29.2 26.7 29.9 23.9 30.05 L5.95 30.05 Q3.55 30.0 2.2 28.9 0.6 27.55 0.0 24.9 L0.0 24.05 0.0 -4.75" fill="#b79400" fill-rule="evenodd" stroke="none"/>
    <path d="M23.6 -10.2 L24.55 -10.2 25.85 -9.85 27.25 -8.65 Q28.4 -7.15 28.4 -5.05 L28.4 15.45 Q28.4 17.6 27.25 19.1 26.15 20.65 24.55 20.65 L5.4 20.65 Q3.8 20.65 2.65 19.1 1.6 17.6 1.6 15.45 L1.6 -5.05 Q1.6 -7.15 2.65 -8.65 3.8 -10.2 5.4 -10.2 L5.75 -10.2 Q4.4 -10.15 3.45 -8.75 2.45 -7.35 2.45 -5.4 L2.45 12.35 Q2.45 14.35 3.45 15.7 4.4 17.15 5.9 17.15 L23.5 17.15 Q24.9 17.15 25.95 15.7 27.0 14.35 27.0 12.35 L27.0 -5.4 Q27.0 -7.35 25.95 -8.75 L25.85 -8.9 Q24.9 -10.15 23.6 -10.2" fill="#560400" fill-rule="evenodd" stroke="none"/>
    <path d="M5.75 -10.2 L5.4 -10.2 Q3.8 -10.2 2.65 -8.65 1.6 -7.15 1.6 -5.05 L1.6 15.45 Q1.6 17.6 2.65 19.1 3.8 20.65 5.4 20.65 L24.55 20.65 Q26.15 20.65 27.25 19.1 28.4 17.6 28.4 15.45 L28.4 -5.05 Q28.4 -7.15 27.25 -8.65 L25.85 -9.85 24.55 -10.2 23.6 -10.2 5.75 -10.2 M25.35 -11.3 L25.85 -11.15 Q27.05 -10.85 27.95 -9.6 29.15 -7.95 29.15 -5.7 L29.15 16.8 Q29.15 19.1 27.95 20.65 26.8 22.3 25.1 22.3 L4.7 22.3 Q3.0 22.3 1.75 20.65 0.6 19.1 0.6 16.8 L0.6 -5.7 Q0.6 -7.95 1.75 -9.6 2.85 -11.25 4.65 -11.3 L25.35 -11.3" fill="#f3b100" fill-rule="evenodd" stroke="none"/>
    <path d="M25.35 -11.3 L25.7 -11.3 25.85 -11.3 Q27.5 -11.15 28.65 -9.5 29.65 -8.25 29.9 -6.65 L29.95 -5.25 29.95 -4.45 29.95 -1.3 29.95 0.65 29.95 2.65 29.95 7.8 29.95 20.8 Q29.35 23.95 27.8 24.95 26.75 25.7 24.05 25.8 L6.0 25.8 Q3.6 25.75 2.25 24.65 0.65 23.35 0.05 20.65 L0.05 19.85 0.05 -5.25 Q0.05 -7.75 1.25 -9.5 2.55 -11.3 4.3 -11.3 L4.65 -11.3 Q2.85 -11.25 1.75 -9.6 0.6 -7.95 0.6 -5.7 L0.6 16.8 Q0.6 19.1 1.75 20.65 3.0 22.3 4.7 22.3 L25.1 22.3 Q26.8 22.3 27.95 20.65 29.15 19.1 29.15 16.8 L29.15 -5.7 Q29.15 -7.95 27.95 -9.6 27.05 -10.85 25.85 -11.15 L25.35 -11.3" fill="#b79400" fill-rule="evenodd" stroke="none"/>
    <path d="M23.6 -10.2 Q24.9 -10.15 25.85 -8.9 L25.95 -8.75 Q27.0 -7.35 27.0 -5.4 L27.0 12.35 Q27.0 14.35 25.95 15.7 24.9 17.15 23.5 17.15 L5.9 17.15 Q4.4 17.15 3.45 15.7 2.45 14.35 2.45 12.35 L2.45 -5.4 Q2.45 -7.35 3.45 -8.75 4.4 -10.15 5.75 -10.2 L23.6 -10.2 M3.2 -4.45 L3.1 -3.55 3.1 10.35 Q3.1 12.1 4.1 13.35 5.05 14.5 6.4 14.5 L23.0 14.5 Q24.4 14.5 25.35 13.35 26.35 12.1 26.35 10.35 L26.35 -3.55 26.25 -4.45 25.85 -5.55 25.35 -6.35 Q24.4 -7.5 23.0 -7.5 L6.4 -7.5 Q5.05 -7.5 4.1 -6.35 3.35 -5.45 3.2 -4.45" fill="#820c00" fill-rule="evenodd" stroke="none"/>
    <path d="M3.2 -4.45 Q3.35 -5.45 4.1 -6.35 5.05 -7.5 6.4 -7.5 L23.0 -7.5 Q24.4 -7.5 25.35 -6.35 L25.85 -5.55 26.25 -4.45 26.35 -3.55 26.35 10.35 Q26.35 12.1 25.35 13.35 24.4 14.5 23.0 14.5 L6.4 14.5 Q5.05 14.5 4.1 13.35 3.1 12.1 3.1 10.35 L3.1 -3.55 3.2 -4.45" fill="#9c2f23" fill-rule="evenodd" stroke="none"/>
    <path d="M24.35 10.1 L23.5 10.1 Q23.25 7.75 21.55 5.9 21.4 5.7 21.25 5.65 L20.9 5.3 Q18.3 2.85 14.7 2.85 11.0 2.85 8.5 5.3 7.75 5.95 7.25 6.85 6.15 8.25 5.9 10.1 L4.95 10.1 Q5.3 7.75 6.45 6.2 L7.9 4.6 Q10.65 1.9 14.7 1.9 18.65 1.9 21.45 4.6 L21.85 4.9 22.2 5.25 Q24.05 7.1 24.35 10.1" fill="#a56e00" fill-rule="evenodd" stroke="none"/>
    <path d="M24.35 10.1 Q24.05 7.1 22.2 5.25 L21.85 4.9 21.45 4.6 Q18.65 1.9 14.7 1.9 10.65 1.9 7.9 4.6 L6.45 6.2 Q5.3 7.75 4.95 10.1 L3.95 10.1 Q3.95 8.45 4.55 6.9 5.3 4.95 7.25 3.25 10.25 0.4 14.7 0.4 19.15 0.4 22.25 3.25 L22.8 3.6 23.15 4.05 Q25.3 6.6 25.4 10.1 L24.35 10.1" fill="#f3d600" fill-rule="evenodd" stroke="none"/>
    <path d="M3.9 9.85 L25.35 9.85" fill="none" stroke="#820c00" stroke-linecap="round" stroke-linejoin="round" stroke-width="1.0"/>
    <path d="M18.75 -8.9 L25.3 -2.8 25.65 6.0 19.55 12.5 10.85 12.8 4.5 6.7 4.15 -2.1 10.05 -8.6 18.75 -8.9" fill="#a56e00" fill-rule="evenodd" stroke="none"/>
    <path d="M18.2 -8.4 L24.3 -2.85 24.6 5.1 18.95 11.0 10.8 11.25 4.9 5.75 4.6 -2.2 10.05 -8.15 18.2 -8.4" fill="#f3da2c" fill-rule="evenodd" stroke="none"/>
    <path d="M19.05 -9.35 L24.75 -3.85 25.0 3.9 19.75 9.65 11.75 9.9 5.95 4.5 5.7 -3.3 11.05 -9.1 19.05 -9.35 M12.25 -6.85 L8.2 -2.45 8.35 3.55 12.8 7.7 18.55 7.55 22.55 3.05 22.35 -2.95 18.0 -7.0 12.25 -6.85" fill="#22aebb" fill-rule="evenodd" stroke="none"/>
    <path d="M17.7 -9.0 L22.7 -4.2 22.95 2.7 18.35 7.8 11.5 8.0 6.35 3.2 6.1 -3.7 10.85 -8.8 17.7 -9.0" fill="#7adee9" fill-rule="evenodd" stroke="none"/>
    <path d="M16.1 -6.8 L18.8 -4.3 18.95 -0.7 16.4 2.0 12.85 2.1 10.35 -0.4 10.2 -4.0 12.55 -6.7 16.1 -6.8" fill="#1f79a3" fill-rule="evenodd" stroke="none"/>
    <path d="M15.9 -6.0 L18.05 -3.9 18.1 -2.8 11.0 -1.6 10.9 -3.7 12.95 -5.9 15.9 -6.0" fill="#44f0ff" fill-rule="evenodd" stroke="none"/>
    <path d="M18.6 7.3 L11.75 7.5 Q12.35 4.6 13.1 1.6 L16.65 1.5 18.6 7.3" fill="#cbf8fc" fill-rule="evenodd" stroke="none"/>
    <path d="M16.4 2.0 L18.95 -0.7 22.95 2.7 18.35 7.8 16.4 2.0" fill="#42ecfd" fill-rule="evenodd" stroke="none"/>
    <path d="M18.95 -0.7 L18.8 -4.3 22.7 -4.2 22.95 2.7 18.95 -0.7" fill="#1d9dc6" fill-rule="evenodd" stroke="none"/>
    <path d="M11.75 7.5 L6.6 2.85 10.5 -0.9 13.1 1.6 Q12.35 4.6 11.75 7.5" fill="#42ecfd" fill-rule="evenodd" stroke="none"/>
    <path d="M18.95 0.2 L16.7 2.55 16.4 1.4 18.95 -0.7 22.95 2.45 22.6 3.15 18.95 0.2" fill="#298cbb" fill-rule="evenodd" stroke="none"/>
    <path d="M10.35 -0.4 L6.35 3.1 6.1 -3.7 10.2 -4.0 10.35 -0.4" fill="#1d9dc6" fill-rule="evenodd" stroke="none"/>
    <path d="M16.45 -6.45 L15.5 -6.8 17.7 -9.0 16.45 -6.45" fill="#d2ebee" fill-rule="evenodd" stroke="none"/>
    <path d="M11.85 -5.85 L10.85 -9.25 12.55 -6.7 11.85 -5.85" fill="#d2ebee" fill-rule="evenodd" stroke="none"/>
  </g>
</svg>
