<?xml version="1.0" encoding="UTF-8" standalone="no"?>
<svg xmlns:xlink="http://www.w3.org/1999/xlink" height="138.2px" width="119.1px" xmlns="http://www.w3.org/2000/svg">
  <g transform="matrix(1.0, 0.0, 0.0, 1.0, 0.0, 0.0)">
    <path d="M53.7 49.85 L52.15 62.5 50.25 77.8 61.7 77.15 53.7 49.85 M73.95 0.0 L74.6 0.0 Q77.3 0.0 79.4 1.6 81.45 3.2 82.25 5.85 L118.8 122.75 119.05 124.05 Q119.35 127.55 117.25 130.0 115.15 132.5 111.65 132.8 L82.35 134.05 Q79.35 134.05 76.65 131.85 74.15 129.8 73.35 127.15 L70.0 110.0 47.95 111.35 47.1 127.4 Q46.65 130.35 44.15 132.75 41.6 135.15 38.7 135.4 L8.9 138.15 8.0 138.2 Q4.75 138.2 2.55 136.15 0.35 134.05 0.1 130.75 L0.05 130.25 Q-0.05 129.45 0.1 128.85 L18.25 10.45 Q18.6 7.5 20.6 5.55 22.6 3.6 25.55 3.35 L73.95 0.0" fill="#ff0000" fill-rule="evenodd" stroke="none"/>
  </g>
</svg>
