<?xml version="1.0" encoding="UTF-8" standalone="no"?>
<svg xmlns:xlink="http://www.w3.org/1999/xlink" height="138.2px" width="118.05px" xmlns="http://www.w3.org/2000/svg">
  <g transform="matrix(1.0, 0.0, 0.0, 1.0, -0.05, 0.0)">
    <path d="M52.75 50.5 L49.3 78.4 60.7 77.8 52.75 50.5 M72.95 0.0 L73.6 0.0 Q76.3 0.0 78.4 1.6 80.45 3.2 81.25 5.85 L117.8 122.75 118.05 124.05 Q118.35 127.55 116.25 130.0 114.15 132.5 110.65 132.8 L81.25 134.05 Q78.45 134.05 76.3 132.45 74.15 130.85 73.4 128.15 L73.3 127.85 69.05 110.0 46.9 111.35 45.15 128.1 45.1 128.35 Q44.65 131.3 42.65 133.25 40.65 135.15 37.75 135.4 L8.9 138.15 8.05 138.2 Q4.8 138.2 2.6 136.15 0.35 134.05 0.1 130.75 L0.05 130.25 0.1 128.9 17.25 10.45 Q17.6 7.5 19.6 5.55 21.65 3.6 24.55 3.35 L72.95 0.0" fill="#ff0000" fill-rule="evenodd" stroke="none"/>
  </g>
</svg>
