<?xml version="1.0" encoding="UTF-8" standalone="no"?>
<svg xmlns:xlink="http://www.w3.org/1999/xlink" height="138.2px" width="119.05px" xmlns="http://www.w3.org/2000/svg">
  <g transform="matrix(1.0, 0.0, 0.0, 1.0, -0.05, 0.0)">
    <path d="M54.2 50.0 L52.6 62.9 50.75 77.9 62.2 77.25 54.2 50.0 M73.95 0.0 L74.6 0.0 Q77.3 0.0 79.4 1.6 81.45 3.2 82.25 5.85 L118.8 122.75 119.05 124.05 Q119.35 127.55 117.25 130.0 115.15 132.5 111.65 132.8 L81.25 134.05 Q78.45 134.05 76.3 132.45 74.15 130.85 73.4 128.15 L73.3 127.85 69.05 110.0 47.9 111.35 46.15 128.1 46.1 128.35 Q45.65 131.3 43.65 133.25 41.65 135.15 38.75 135.4 L8.9 138.15 8.05 138.2 Q4.8 138.2 2.6 136.15 0.35 134.05 0.1 130.75 L0.05 130.25 0.1 128.85 18.25 10.45 Q18.65 7.5 20.65 5.55 22.65 3.6 25.55 3.35 L73.95 0.0" fill="#ff0000" fill-rule="evenodd" stroke="none"/>
  </g>
</svg>
