<?xml version="1.0" encoding="UTF-8" standalone="no"?>
<svg xmlns:xlink="http://www.w3.org/1999/xlink" height="84.15px" width="325.35px" xmlns="http://www.w3.org/2000/svg">
  <g transform="matrix(1.0, 0.0, 0.0, 1.0, 0.0, 0.0)">
    <path d="M280.45 32.2 L285.05 32.35 Q301.7 32.1 313.5 20.7 319.55 14.1 323.9 17.55 L324.3 18.0 Q328.25 23.55 317.4 31.6 L316.75 32.0 Q304.5 39.85 284.5 36.2 278.2 35.25 273.7 33.95 269.2 32.6 266.5 30.9 273.15 32.65 280.45 32.2 M318.7 19.15 Q318.2 19.6 317.05 21.65 315.95 23.7 313.45 25.65 L309.85 28.4 302.05 32.4 Q302.7 33.0 303.0 34.45 L308.1 33.3 314.95 30.85 Q320.05 28.95 322.45 25.3 324.9 21.7 323.75 20.05 322.65 18.4 321.35 18.35 319.65 18.2 318.7 19.15 M60.15 30.3 L51.55 34.05 Q45.4 36.6 34.1 37.4 19.3 38.6 4.5 29.4 -1.4 24.9 0.4 19.25 4.1 13.8 10.4 19.25 24.8 34.35 42.55 32.05 L47.6 32.6 Q54.8 32.45 60.15 30.3 M5.0 18.4 Q3.7 18.4 2.95 19.1 1.65 20.4 1.55 21.7 1.3 26.8 8.7 30.1 11.25 31.25 15.5 32.55 L22.05 34.5 22.95 32.8 Q20.7 31.95 17.5 30.15 13.95 28.1 12.4 26.6 9.8 24.1 8.9 22.05 L7.55 19.4 Q6.75 18.4 5.0 18.4" fill="#4c79e0" fill-rule="evenodd" stroke="none"/>
    <path d="M318.7 19.15 Q319.65 18.2 321.35 18.35 322.65 18.4 323.75 20.05 324.9 21.7 322.45 25.3 320.05 28.95 314.95 30.85 L308.1 33.3 303.0 34.45 Q302.7 33.0 302.05 32.4 L309.85 28.4 313.45 25.65 Q315.95 23.7 317.05 21.65 318.2 19.6 318.7 19.15" fill="url(#gradient0)" fill-rule="evenodd" stroke="none"/>
    <path d="M304.65 8.45 L304.65 8.65 Q305.0 14.45 300.55 20.05 296.55 25.2 289.1 28.95 L288.6 29.2 288.1 27.6 288.1 27.55 Q289.75 26.3 291.3 22.55 292.9 18.75 293.05 16.5 293.25 14.25 292.55 11.85 291.9 9.4 291.8 7.65 291.7 5.85 293.3 4.1 294.95 2.3 297.8 2.45 300.7 2.6 302.6 4.25 304.55 5.95 304.65 8.3 L304.65 8.45" fill="url(#gradient1)" fill-rule="evenodd" stroke="none"/>
    <path d="M266.5 30.9 L264.15 30.2 261.35 29.2 261.15 26.1 Q269.6 30.45 275.8 25.65 280.35 21.7 282.4 12.75 284.5 0.9 295.2 0.3 308.2 0.4 306.6 13.9 300.7 27.4 285.05 31.75 L280.45 32.2 Q273.15 32.65 266.5 30.9 M304.65 8.45 L304.65 8.3 Q304.55 5.95 302.6 4.25 300.7 2.6 297.8 2.45 294.95 2.3 293.3 4.1 291.7 5.85 291.8 7.65 291.9 9.4 292.55 11.85 293.25 14.25 293.05 16.5 292.9 18.75 291.3 22.55 289.75 26.3 288.1 27.55 L288.1 27.6 288.6 29.2 289.1 28.95 Q296.55 25.2 300.55 20.05 305.0 14.45 304.65 8.65 L304.65 8.45 M42.55 32.05 Q27.15 29.6 19.8 16.65 14.7 4.6 24.65 1.05 35.45 -2.8 41.65 7.4 43.6 11.3 45.0 19.25 50.55 31.4 63.2 26.5 L63.15 28.85 60.75 30.05 60.15 30.3 Q54.8 32.45 47.6 32.6 L42.55 32.05 M27.0 2.3 Q24.1 2.45 22.2 4.1 20.25 5.75 20.15 8.15 L20.15 8.3 20.15 8.45 Q19.8 14.3 24.25 19.9 28.25 25.05 35.7 28.8 L36.2 29.05 36.7 27.45 36.7 27.4 Q35.05 26.15 33.5 22.4 31.9 18.6 31.75 16.35 31.55 14.05 32.25 11.65 32.9 9.25 33.0 7.45 33.1 5.7 31.5 3.9 29.85 2.1 27.0 2.3" fill="#79d217" fill-rule="evenodd" stroke="none"/>
    <path d="M294.25 49.3 Q292.05 47.8 288.85 46.3 285.7 44.8 280.4 43.15 L284.9 46.9 Q288.4 49.85 289.7 51.25 291.0 52.65 292.25 56.15 293.3 60.35 295.4 60.35 297.1 60.35 298.0 59.2 298.8 58.15 298.8 56.65 298.8 54.7 297.5 52.6 296.25 50.55 294.25 49.3 M261.65 37.85 L261.65 36.15 261.6 36.15 261.6 34.8 261.6 34.35 261.6 33.65 Q285.2 35.9 298.25 49.65 304.3 58.75 297.85 62.1 293.5 63.45 291.45 62.0 L291.0 61.6 290.85 61.45 290.75 61.4 Q284.2 42.55 261.65 37.85" fill="#e96200" fill-rule="evenodd" stroke="none"/>
    <path d="M294.25 49.3 Q296.25 50.55 297.5 52.6 298.8 54.7 298.8 56.65 298.8 58.15 298.0 59.2 297.1 60.35 295.4 60.35 293.3 60.35 292.25 56.15 291.0 52.65 289.7 51.25 288.4 49.85 284.9 46.9 L280.4 43.15 Q285.7 44.8 288.85 46.3 292.05 47.8 294.25 49.3" fill="url(#gradient2)" fill-rule="evenodd" stroke="none"/>
    <path d="M261.65 37.85 Q284.2 42.55 290.75 61.4 L290.85 61.45 Q296.1 80.95 278.9 83.5 L278.1 83.55 Q267.85 83.9 262.65 75.95 L262.3 75.5 261.65 37.85 M267.05 56.4 L268.4 60.9 Q269.65 65.3 269.6 70.45 269.35 74.1 271.9 76.15 274.35 78.05 278.55 78.05 283.1 78.05 285.7 75.5 288.1 73.2 288.1 69.6 L288.1 69.05 287.75 67.4 Q286.45 63.15 282.45 59.3 280.3 57.25 276.45 54.4 L269.6 49.4 268.2 53.0 267.05 56.4 M63.0 36.7 L62.4 63.9 Q62.0 70.95 63.55 76.1 55.1 86.95 42.8 83.15 29.15 77.15 35.15 60.15 41.65 41.35 63.0 36.7 M39.7 71.1 L39.7 71.65 Q39.7 75.25 42.05 77.6 44.65 80.1 49.25 80.1 53.45 80.1 55.85 78.2 58.4 76.2 58.2 72.5 58.1 67.4 59.4 62.95 L60.75 58.5 59.6 55.05 58.2 51.45 51.35 56.45 Q47.45 59.3 45.35 61.35 41.3 65.2 40.05 69.5 L39.7 71.1" fill="#36b2ec" fill-rule="evenodd" stroke="none"/>
    <path d="M267.05 56.4 L268.2 53.0 269.6 49.4 276.45 54.4 Q280.3 57.25 282.45 59.3 286.45 63.15 287.75 67.4 L288.1 69.05 288.1 69.6 Q288.1 73.2 285.7 75.5 283.1 78.05 278.55 78.05 274.35 78.05 271.9 76.15 269.35 74.1 269.6 70.45 269.65 65.3 268.4 60.9 L267.05 56.4" fill="url(#gradient3)" fill-rule="evenodd" stroke="none"/>
    <path d="M45.15 41.2 L40.65 44.95 35.85 49.3 Q34.55 50.7 33.3 54.2 32.25 58.4 30.1 58.4 28.45 58.4 27.55 57.25 26.75 56.2 26.75 54.7 26.75 52.75 28.05 50.65 29.3 48.6 31.25 47.35 33.5 45.85 36.7 44.35 39.85 42.85 45.15 41.2" fill="url(#gradient4)" fill-rule="evenodd" stroke="none"/>
    <path d="M45.15 41.2 Q39.85 42.85 36.7 44.35 33.5 45.85 31.25 47.35 29.3 48.6 28.05 50.65 26.75 52.75 26.75 54.7 26.75 56.2 27.55 57.25 28.45 58.4 30.1 58.4 32.25 58.4 33.3 54.2 34.55 50.7 35.85 49.3 L40.65 44.95 45.15 41.2 M35.15 60.15 L34.9 60.35 34.45 60.75 Q32.35 62.2 28.05 60.85 21.6 57.5 27.6 48.4 40.65 34.65 63.05 32.6 L63.0 36.7 Q41.65 41.35 35.15 60.15" fill="#f16d00" fill-rule="evenodd" stroke="none"/>
    <path d="M27.0 2.3 Q29.85 2.1 31.5 3.9 33.1 5.7 33.0 7.45 32.9 9.25 32.25 11.65 31.55 14.05 31.75 16.35 31.9 18.6 33.5 22.4 35.05 26.15 36.7 27.4 L36.7 27.45 36.2 29.05 35.7 28.8 Q28.25 25.05 24.25 19.9 19.8 14.3 20.15 8.45 L20.15 8.3 20.15 8.15 Q20.25 5.75 22.2 4.1 24.1 2.45 27.0 2.3" fill="url(#gradient5)" fill-rule="evenodd" stroke="none"/>
    <path d="M5.0 18.4 Q6.75 18.4 7.55 19.4 L8.9 22.05 Q9.8 24.1 12.4 26.6 13.95 28.1 17.5 30.15 20.7 31.95 22.95 32.8 L22.05 34.5 15.5 32.55 Q11.25 31.25 8.7 30.1 1.3 26.8 1.55 21.7 1.65 20.4 2.95 19.1 3.7 18.4 5.0 18.4" fill="url(#gradient6)" fill-rule="evenodd" stroke="none"/>
    <path d="M39.7 71.1 L40.05 69.5 Q41.3 65.2 45.35 61.35 47.45 59.3 51.35 56.45 L58.2 51.45 59.6 55.05 60.75 58.5 59.4 62.95 Q58.1 67.4 58.2 72.5 58.4 76.2 55.85 78.2 53.45 80.1 49.25 80.1 44.65 80.1 42.05 77.6 39.7 75.25 39.7 71.65 L39.7 71.1" fill="url(#gradient7)" fill-rule="evenodd" stroke="none"/>
  </g>
  <defs>
    <linearGradient gradientTransform="matrix(-0.013, -9.0E-4, -0.001, 0.0098, 313.3, 25.8)" gradientUnits="userSpaceOnUse" id="gradient0" spreadMethod="pad" x1="-819.2" x2="819.2">
      <stop offset="0.0" stop-color="#c8d6f2"/>
      <stop offset="1.0" stop-color="#4c79e0"/>
    </linearGradient>
    <linearGradient color-interpolation="linearRGB" gradientTransform="matrix(-0.0047, 0.0149, 0.0185, 0.0042, 295.7, 14.9)" gradientUnits="userSpaceOnUse" id="gradient1" spreadMethod="pad" x1="-819.2" x2="819.2">
      <stop offset="0.0" stop-color="#cdf3a2"/>
      <stop offset="1.0" stop-color="#79d217"/>
    </linearGradient>
    <linearGradient color-interpolation="linearRGB" gradientTransform="matrix(-0.0054, -0.007, -0.0103, 0.0057, 291.55, 54.55)" gradientUnits="userSpaceOnUse" id="gradient2" spreadMethod="pad" x1="-819.2" x2="819.2">
      <stop offset="0.00392156862745098" stop-color="#ffd8b8"/>
      <stop offset="1.0" stop-color="#f36e00"/>
    </linearGradient>
    <linearGradient gradientTransform="matrix(-0.004, -0.0126, -0.0198, 0.0046, 273.15, 67.8)" gradientUnits="userSpaceOnUse" id="gradient3" spreadMethod="pad" x1="-819.2" x2="819.2">
      <stop offset="0.0" stop-color="#e5faff"/>
      <stop offset="1.0" stop-color="#36b2ec"/>
    </linearGradient>
    <linearGradient color-interpolation="linearRGB" gradientTransform="matrix(0.0054, -0.007, 0.0103, 0.0057, 34.0, 52.6)" gradientUnits="userSpaceOnUse" id="gradient4" spreadMethod="pad" x1="-819.2" x2="819.2">
      <stop offset="0.0" stop-color="#ffcfa8"/>
      <stop offset="1.0" stop-color="#f16d00"/>
      <stop offset="1.0" stop-color="#7a0f3a"/>
      <stop offset="1.0" stop-color="#f84100"/>
    </linearGradient>
    <linearGradient color-interpolation="linearRGB" gradientTransform="matrix(0.0047, 0.0149, -0.0185, 0.0042, 29.1, 14.7)" gradientUnits="userSpaceOnUse" id="gradient5" spreadMethod="pad" x1="-819.2" x2="819.2">
      <stop offset="0.0" stop-color="#cdf3a2"/>
      <stop offset="1.0" stop-color="#79d217"/>
    </linearGradient>
    <linearGradient gradientTransform="matrix(0.0131, 0.0, 0.0, 0.0098, 12.25, 26.45)" gradientUnits="userSpaceOnUse" id="gradient6" spreadMethod="pad" x1="-819.2" x2="819.2">
      <stop offset="0.0" stop-color="#c8d6f2"/>
      <stop offset="1.0" stop-color="#4c79e0"/>
    </linearGradient>
    <linearGradient gradientTransform="matrix(0.004, -0.0126, 0.0198, 0.0046, 54.65, 69.85)" gradientUnits="userSpaceOnUse" id="gradient7" spreadMethod="pad" x1="-819.2" x2="819.2">
      <stop offset="0.0" stop-color="#e5faff"/>
      <stop offset="1.0" stop-color="#36b2ec"/>
    </linearGradient>
  </defs>
</svg>
