<?xml version="1.0" encoding="UTF-8" standalone="no"?>
<svg xmlns:xlink="http://www.w3.org/1999/xlink" height="8.2px" width="29.0px" xmlns="http://www.w3.org/2000/svg">
  <g transform="matrix(1.0, 0.0, 0.0, 1.0, 0.8, -5.7)">
    <path d="M28.0 12.85 L28.05 12.85 28.1 12.75 27.9 12.7 28.0 12.85 28.0 12.9 28.05 12.85 28.2 12.85 28.1 13.15 28.1 13.2 28.1 13.3 28.0 13.3 27.8 13.45 27.35 13.7 27.05 13.8 27.1 13.6 27.05 13.7 26.95 13.7 26.9 13.7 26.75 13.9 26.55 13.9 26.55 13.7 26.15 13.7 26.4 13.4 26.35 13.4 26.35 13.3 26.4 13.3 Q26.3 13.1 26.35 12.9 L26.55 13.1 26.6 13.05 26.55 12.9 26.75 12.85 26.85 12.75 26.85 12.65 26.95 12.65 26.95 12.45 27.1 12.6 27.1 12.7 27.15 12.7 27.15 12.15 27.8 12.6 27.9 12.7 27.8 12.75 27.8 12.85 28.0 12.85 M27.9 13.1 L28.05 13.2 28.1 13.15 28.0 12.9 27.9 13.1 27.7 12.95 27.8 12.85 27.7 12.85 27.6 13.1 27.65 13.15 27.8 13.2 27.85 13.2 27.9 13.1 M27.8 13.2 L28.0 13.3 28.05 13.2 28.1 13.2 28.0 13.3 27.55 13.55 27.35 13.7 27.2 13.7 27.1 13.6 27.15 13.55 27.15 13.5 27.1 13.5 27.05 13.5 27.05 13.55 27.1 13.6 27.15 13.6 27.15 13.55 27.2 13.5 27.2 13.4 27.1 13.5 27.05 13.45 27.0 13.5 27.05 13.55 26.95 13.65 26.95 13.7 27.1 13.6 M27.7 12.55 L27.5 12.55 27.35 12.6 27.35 12.7 27.4 12.9 27.45 12.9 27.8 12.75 27.7 12.55 M27.3 12.55 L27.2 12.55 27.15 12.7 27.2 12.7 27.35 12.6 27.3 12.55 M27.35 13.1 L27.4 13.1 27.4 13.05 27.35 13.05 27.35 13.1 27.3 13.2 27.3 13.3 27.25 13.4 27.4 13.1 M27.8 13.2 L27.6 13.4 27.5 13.4 27.6 13.1 27.45 13.0 27.4 13.0 27.4 13.05 M27.35 13.05 L27.35 12.95 27.3 12.9 27.25 12.9 27.2 12.9 27.3 13.0 27.35 13.05 27.4 13.0 27.35 12.95 27.4 12.9 27.3 12.9 M27.3 13.1 L27.3 13.15 27.35 13.1 27.3 13.1 27.3 13.05 27.3 13.0 27.2 13.05 27.25 13.1 27.3 13.1 27.25 13.2 27.15 13.4 27.1 13.5 M27.45 13.0 L27.5 12.9 27.45 12.9 27.4 12.95 27.4 13.0 M27.35 13.05 L27.3 13.05 M27.4 12.95 L27.4 12.9 M27.15 12.7 L27.15 12.75 27.15 12.85 27.25 12.9 27.3 12.75 27.2 12.7 M27.15 12.75 L27.1 12.7 27.05 12.75 26.9 12.8 26.9 12.9 26.9 12.95 26.95 13.0 27.05 13.0 27.15 12.95 27.15 12.9 27.15 12.85 M26.75 12.85 L26.85 12.85 26.85 12.75 26.95 12.65 26.9 12.8 26.85 12.85 26.9 12.9 26.85 12.95 26.8 13.15 26.85 13.15 26.85 13.1 26.9 13.1 26.95 13.0 27.0 13.05 27.05 13.0 27.15 13.0 27.15 12.95 27.2 12.9 27.15 12.9 M26.75 12.85 L26.65 12.95 26.6 13.05 26.7 13.2 26.75 13.2 26.8 13.15 26.8 13.2 26.75 13.2 26.7 13.25 26.95 13.45 26.85 13.15 26.9 13.1 27.0 13.05 27.05 13.1 27.15 13.05 27.15 13.0 27.2 13.0 27.2 13.05 27.15 13.05 27.15 13.1 27.25 13.1 27.25 13.2 27.05 13.45 26.95 13.45 27.0 13.5 27.0 13.55 27.05 13.55 M27.15 13.1 L27.05 13.1 26.85 13.15 M26.7 13.2 L26.7 13.25 26.85 13.6 27.0 13.55 26.95 13.65 26.9 13.7 26.55 13.7 26.55 13.5 26.45 13.4 26.45 13.35 26.4 13.4 M26.55 13.1 L26.6 13.15 26.7 13.2 26.65 13.25 26.5 13.35 26.45 13.35 26.4 13.3 26.55 13.1 M26.7 13.25 L26.55 13.4 26.55 13.5 26.75 13.6 26.85 13.6 M27.3 13.15 L27.3 13.2 M27.2 13.4 L27.3 13.15 M27.25 13.4 L27.2 13.4 M0.05 5.7 L0.25 5.9 0.35 5.9 0.45 5.85 0.45 5.95 0.55 6.05 0.55 6.2 0.65 6.5 0.6 6.6 0.65 6.65 0.6 6.65 0.55 6.75 0.45 6.75 0.45 7.0 0.25 7.0 Q0.15 7.0 0.15 7.3 L0.55 7.05 0.65 7.0 0.7 6.9 0.7 7.0 Q0.7 7.25 0.65 7.0 L0.4 7.2 Q0.05 7.35 0.05 7.4 L0.05 7.35 -0.35 7.4 -0.6 7.3 -0.8 6.95 -0.75 6.8 -0.8 6.8 -0.7 6.2 -0.75 6.05 -0.8 6.05 -0.8 5.95 -0.75 6.05 -0.5 5.85 -0.15 5.7 -0.05 5.85 0.0 5.8 0.05 5.7 M0.25 6.1 L0.3 5.95 0.25 5.9 0.2 5.9 0.05 5.95 0.05 6.0 0.25 6.1 0.35 6.0 0.3 5.95 0.35 5.9 M0.05 5.95 L0.0 5.95 0.2 6.2 0.25 6.25 0.25 6.1 M-0.7 6.2 L-0.7 6.15 -0.6 6.25 -0.6 5.95 -0.3 6.05 -0.1 6.2 0.25 6.45 0.25 6.25 0.2 6.25 0.1 6.15 0.0 5.95 -0.05 5.95 -0.05 5.85 0.0 5.95 0.0 5.8 M0.35 6.0 L0.45 5.95 0.55 6.2 0.55 6.25 0.5 6.25 0.55 6.35 0.5 6.4 0.45 6.45 0.6 6.6 0.6 6.65 0.45 6.7 0.45 6.75 0.35 6.8 0.3 6.75 0.1 6.9 0.25 7.0 M0.35 6.0 L0.35 6.05 0.5 6.25 0.45 6.25 0.45 6.35 0.4 6.3 0.45 6.4 0.45 6.45 0.45 6.55 0.45 6.7 0.3 6.75 0.3 6.6 0.25 6.5 0.25 6.45 0.2 6.5 -0.05 6.55 -0.3 6.45 -0.4 6.35 -0.4 6.2 -0.55 6.4 -0.4 6.45 -0.25 6.55 -0.15 6.65 0.1 6.9 0.05 7.0 -0.05 7.0 -0.05 7.1 -0.1 7.05 0.05 7.35 0.15 7.3 M0.25 6.5 L0.4 6.55 0.35 6.45 0.25 6.45 M0.45 6.55 L0.4 6.55 M0.45 6.25 L0.4 6.25 0.4 6.3 0.3 6.25 0.25 6.25 0.35 6.15 0.35 6.2 0.45 6.25 M0.3 6.25 L0.4 6.25 0.35 6.2 M-0.4 6.1 L-0.4 6.2 -0.3 6.05 -0.4 6.1 M-0.6 6.3 L-0.6 6.5 -0.55 6.4 -0.55 6.35 -0.6 6.3 -0.7 6.2 M-0.6 6.3 L-0.6 6.25 -0.55 6.35 M-0.35 6.9 L-0.5 6.75 -0.6 6.8 -0.6 6.5 -0.75 6.8 -0.45 6.9 -0.35 6.9 -0.1 7.05 -0.2 7.05 -0.25 7.0 -0.45 6.9 M-0.5 6.75 L-0.35 6.7 -0.4 6.6 -0.55 6.4 M-0.25 6.55 L-0.35 6.65 -0.35 6.7 -0.05 7.0 -0.05 6.95 -0.15 6.65 M-0.35 6.9 L-0.25 7.0" fill="none" stroke="#000000" stroke-linecap="round" stroke-linejoin="round" stroke-width="0.05"/>
  </g>
</svg>
