<?xml version="1.0" encoding="UTF-8" standalone="no"?>
<svg xmlns:xlink="http://www.w3.org/1999/xlink" height="12.0px" width="30.05px" xmlns="http://www.w3.org/2000/svg">
  <g transform="matrix(1.0, 0.0, 0.0, 1.0, 0.7, -13.05)">
    <path d="M27.25 23.8 L27.25 23.85 27.4 23.75 27.25 23.8 27.3 23.75 27.4 23.7 27.5 23.7 27.65 23.65 27.75 23.65 27.8 23.65 27.9 23.6 28.0 23.55 28.4 23.5 28.45 23.6 28.45 23.65 28.55 23.7 28.75 24.0 28.7 24.15 29.05 24.15 28.75 24.6 28.8 24.6 Q29.3 24.4 29.35 24.35 L29.35 24.45 29.05 24.6 28.65 24.75 28.75 24.6 28.45 24.7 28.35 24.75 28.3 24.75 28.1 24.85 27.7 25.05 27.6 25.05 27.75 24.65 27.65 24.5 27.6 24.5 27.6 24.65 27.4 24.65 27.3 24.65 27.2 24.65 27.2 24.45 27.05 24.25 27.05 23.8 27.2 23.95 27.2 23.9 27.2 23.8 27.15 23.8 27.15 23.7 27.2 23.8 27.25 23.8 M27.5 23.7 L27.5 23.75 27.6 23.7 27.75 23.65 M27.4 23.75 L27.5 23.7 M27.4 23.75 L27.5 23.75 27.45 23.85 27.55 23.8 27.6 23.7 27.7 23.7 27.85 23.65 27.95 23.6 27.9 23.6 M27.3 23.9 L27.35 24.05 27.45 23.85 27.3 23.9 27.25 23.85 27.2 23.9 27.3 23.9 M27.7 23.95 L27.95 23.9 28.2 23.95 28.15 23.75 28.1 23.7 27.9 23.75 27.7 23.8 27.7 23.95 27.7 24.0 27.8 24.0 28.1 24.0 28.2 24.0 28.2 23.95 28.3 24.0 28.2 23.8 28.15 23.75 28.15 23.65 Q27.9 23.65 27.7 23.8 L27.5 24.0 27.5 24.05 27.6 24.0 27.7 23.95 M28.15 23.65 L28.1 23.6 27.85 23.65 27.7 23.75 27.55 23.8 27.5 24.0 M27.05 24.25 L27.1 24.25 27.15 24.25 27.2 24.15 27.2 24.1 27.25 24.1 27.2 23.95 27.35 24.05 27.5 24.05 27.5 24.15 27.55 24.15 27.55 24.1 27.6 24.0 27.7 24.0 27.7 24.15 28.1 24.0 28.25 24.05 28.3 24.0 28.4 23.8 28.3 23.75 28.3 23.7 28.15 23.65 M27.1 24.25 L27.2 24.3 27.2 24.15 27.25 24.15 27.25 24.1 27.3 24.1 27.35 24.05 27.4 24.1 27.45 24.15 27.5 24.05 M27.2 24.45 L27.2 24.3 27.4 24.4 27.4 24.35 27.25 24.15 27.3 24.1 M27.55 24.15 L27.7 24.15 27.7 24.25 27.85 24.25 27.95 24.15 28.25 24.05 28.4 24.1 28.3 24.0 M27.5 24.15 L27.55 24.25 27.55 24.15 M27.55 24.25 L27.5 24.3 27.55 24.35 27.55 24.25 M27.6 24.35 L27.55 24.35 27.6 24.45 27.7 24.5 27.8 24.45 27.8 24.35 27.6 24.35 M27.4 24.1 L27.4 24.15 27.45 24.15 27.5 24.15 M27.35 24.05 L27.35 24.1 27.4 24.1 M27.5 24.3 L27.5 24.35 27.55 24.35 27.55 24.45 27.6 24.45 27.65 24.5 27.7 24.5 27.8 24.55 27.8 24.45 28.35 24.15 28.25 24.1 28.0 24.25 27.8 24.35 27.85 24.25 28.0 24.25 28.25 24.05 28.25 24.1 M27.45 24.15 L27.5 24.3 M27.4 24.15 L27.4 24.35 27.5 24.35 27.45 24.4 27.55 24.45 27.6 24.5 27.45 24.55 27.4 24.65 M27.45 24.45 L27.45 24.4 27.4 24.4 27.45 24.45 27.45 24.55 27.4 24.55 27.3 24.65 M27.45 24.45 L27.4 24.55 27.2 24.45 M27.75 24.65 L28.0 24.75 28.05 24.75 27.95 24.7 27.8 24.65 27.8 24.55 27.75 24.65 M28.0 23.55 L27.95 23.6 28.1 23.6 28.2 23.6 28.45 23.65 28.45 23.85 28.4 24.1 28.5 24.2 28.55 24.15 28.7 24.15 28.65 24.35 28.65 24.45 28.6 24.45 28.45 24.7 M28.45 24.25 L28.4 24.15 28.35 24.15 28.3 24.3 28.45 24.25 28.5 24.2 28.55 24.3 28.5 24.45 28.6 24.45 28.65 24.35 M28.35 24.15 L28.35 24.1 28.4 24.1 M28.15 24.5 L28.2 24.4 28.3 24.3 28.0 24.45 27.8 24.55 28.15 24.7 28.3 24.65 28.45 24.55 28.45 24.45 28.15 24.5 28.1 24.55 28.0 24.55 28.15 24.5 M28.45 24.25 L28.45 24.4 28.45 24.45 28.5 24.45 28.45 24.55 28.35 24.75 M0.35 13.4 L0.35 13.45 0.35 13.6 0.45 13.5 0.45 13.55 0.55 13.6 0.6 13.6 0.45 13.4 0.45 13.35 0.35 13.4 0.4 13.25 0.35 13.25 0.3 13.25 0.15 13.3 Q0.25 13.45 0.35 13.4 M0.45 13.35 L0.55 13.3 0.65 13.55 0.65 13.4 0.55 13.25 0.55 13.2 0.45 13.2 0.4 13.25 0.45 13.35 M0.65 13.55 L0.7 13.85 0.7 13.95 0.7 14.0 0.65 14.05 0.55 14.1 0.55 14.35 0.35 14.35 0.25 14.6 0.65 14.4 0.7 14.4 0.8 14.25 0.8 14.35 Q0.8 14.6 0.7 14.4 L0.5 14.55 Q0.15 14.7 0.15 14.75 L0.1 14.65 -0.25 14.75 -0.5 14.65 -0.7 14.3 -0.65 14.15 -0.7 14.15 -0.6 13.55 -0.65 13.4 -0.7 13.4 -0.7 13.3 -0.65 13.4 -0.4 13.15 -0.05 13.05 0.05 13.2 0.1 13.15 0.15 13.05 0.35 13.25 0.45 13.2 M0.1 13.15 L0.1 13.3 0.15 13.3 M0.2 13.5 L0.3 13.6 0.35 13.6 0.3 13.55 0.1 13.3 0.2 13.5 M0.05 13.2 L0.05 13.3 0.1 13.3 0.05 13.2 M0.3 13.85 L0.35 13.8 0.0 13.55 -0.2 13.4 -0.3 13.55 -0.3 13.7 -0.2 13.8 0.05 13.9 0.3 13.85 M0.5 13.85 L0.55 13.9 0.55 13.8 0.55 13.75 0.5 13.65 0.4 13.6 0.35 13.6 0.35 13.8 0.45 13.8 0.5 13.85 0.35 13.8 0.4 13.95 0.4 14.1 0.55 14.05 0.55 13.9 M0.5 13.6 L0.5 13.65 0.55 13.7 0.55 13.6 0.5 13.6 0.45 13.55 M0.5 13.6 L0.4 13.6 M0.55 13.8 L0.6 13.75 0.65 13.7 0.6 13.6 0.65 13.6 0.65 13.55 M0.4 14.1 L0.45 14.15 0.55 14.1 0.55 14.05 0.7 14.0 M0.05 14.35 L-0.25 14.0 -0.4 14.1 -0.25 14.25 -0.05 14.4 0.0 14.4 0.0 14.45 0.05 14.45 0.05 14.35 0.05 14.3 -0.05 14.0 -0.15 13.9 -0.25 14.0 -0.3 13.95 -0.45 13.7 -0.45 13.75 -0.5 13.85 -0.5 14.15 -0.4 14.1 M0.35 14.35 L0.2 14.25 0.15 14.35 0.05 14.35 M0.0 14.45 L0.1 14.65 0.25 14.65 0.25 14.6 M0.4 14.1 L0.2 14.25 -0.05 14.0 M0.7 13.95 L0.55 13.8 M28.3 24.75 L28.25 24.75 28.05 24.75 28.15 24.7 28.3 24.75 M-0.2 13.35 L-0.5 13.3 -0.5 13.6 -0.45 13.7 -0.3 13.55 -0.3 13.45 -0.2 13.35 -0.15 13.35 -0.2 13.4 -0.2 13.35 M-0.5 13.6 L-0.6 13.5 -0.6 13.55 -0.5 13.65 -0.5 13.6 M-0.65 14.15 L-0.5 13.85 -0.5 13.65 -0.45 13.7 -0.3 13.8 -0.15 13.9 M-0.25 14.25 L-0.15 14.35 -0.1 14.35 -0.05 14.4 M-0.25 14.25 L-0.35 14.2 -0.15 14.35 M-0.35 14.2 L-0.65 14.15" fill="none" stroke="#000000" stroke-linecap="round" stroke-linejoin="round" stroke-width="0.05"/>
  </g>
</svg>
