<?xml version="1.0" encoding="UTF-8" standalone="no"?>
<svg xmlns:xlink="http://www.w3.org/1999/xlink" height="1.7px" width="1.5px" xmlns="http://www.w3.org/2000/svg">
  <g transform="matrix(1.0, 0.0, 0.0, 1.0, 0.5, -25.6)">
    <path d="M0.5 25.85 L0.35 25.9 0.55 26.0 0.6 25.85 0.55 25.85 0.5 25.85 M0.9 26.95 L1.0 26.85 1.0 26.95 Q1.0 27.2 0.9 26.95 L0.9 27.0 0.7 27.15 0.35 27.3 0.3 27.25 -0.05 27.3 -0.3 27.25 -0.5 26.9 -0.45 26.75 -0.5 26.75 -0.4 26.15 -0.5 26.0 -0.2 25.75 0.15 25.6 0.25 25.8 0.3 25.7 0.35 25.6 0.55 25.85 0.65 25.8 0.7 25.8 0.75 25.85 0.8 26.0 0.8 26.15 0.9 26.4 0.9 26.55 0.85 26.6 0.8 26.65 0.7 26.7 0.7 26.95 0.55 26.95 0.45 27.2 0.85 27.0 0.9 27.0 M0.3 25.9 L0.25 25.8 0.25 25.9 0.3 25.9 0.3 25.85 0.25 25.8 M0.3 25.85 L0.3 25.7 M0.0 25.95 L-0.1 26.15 -0.1 26.25 0.0 26.4 0.25 26.45 0.5 26.4 0.55 26.4 0.2 26.15 0.0 25.95 -0.3 25.9 -0.3 26.2 -0.25 26.3 -0.1 26.15 -0.1 26.05 0.0 25.95 M0.55 26.15 L0.5 26.2 0.55 26.2 0.6 26.2 0.55 26.15 0.55 26.0 0.65 25.95 0.6 25.85 0.65 25.8 M0.35 25.9 L0.3 25.9 0.5 26.15 0.55 26.15 0.65 26.1 0.65 26.15 0.7 26.2 0.8 26.2 0.65 26.0 0.65 25.95 0.7 25.9 0.8 26.15 0.8 26.2 0.8 26.35 0.75 26.4 0.9 26.55 0.7 26.6 0.7 26.7 0.65 26.75 0.6 26.65 0.4 26.8 0.55 26.95 M0.3 25.9 L0.4 26.1 0.45 26.15 0.5 26.2 M0.7 26.2 L0.65 26.2 0.65 26.25 0.7 26.25 0.7 26.2 M0.6 26.2 L0.65 26.2 0.65 26.15 M0.75 26.4 L0.7 26.45 0.7 26.6 0.6 26.65 0.6 26.55 0.55 26.4 0.55 26.2 M0.7 26.25 L0.7 26.35 0.75 26.4 M0.65 26.35 L0.55 26.4 0.7 26.45 0.65 26.35 M0.05 26.5 L0.25 26.9 0.35 26.95 0.4 26.8 0.05 26.45 0.05 26.5 -0.1 26.4 -0.25 26.3 -0.1 26.55 -0.05 26.6 0.05 26.5 M0.25 26.9 L0.25 27.05 0.2 27.05 0.3 27.25 0.45 27.2 M0.15 26.95 L-0.05 26.85 0.05 26.95 0.15 26.95 0.15 27.0 0.2 27.0 0.2 27.05 M-0.4 26.15 L-0.3 26.25 -0.3 26.2 -0.4 26.1 -0.4 26.15 M-0.25 26.35 L-0.25 26.3 -0.3 26.25 -0.3 26.45 -0.25 26.35 M-0.05 26.85 L-0.15 26.8 0.05 26.95 M-0.05 26.85 L-0.2 26.7 -0.3 26.75 -0.3 26.45 -0.45 26.75 -0.15 26.8 M-0.2 26.7 L-0.05 26.6 0.25 26.9" fill="none" stroke="#000000" stroke-linecap="round" stroke-linejoin="round" stroke-width="0.05"/>
  </g>
</svg>
