<?xml version="1.0" encoding="UTF-8" standalone="no"?>
<svg xmlns:xlink="http://www.w3.org/1999/xlink" height="6.95px" width="11.3px" xmlns="http://www.w3.org/2000/svg">
  <g transform="matrix(1.0, 0.0, 0.0, 1.0, -9.65, -20.75)">
    <path d="M9.65 21.35 L9.8 21.6 10.05 21.9 10.25 21.9 10.25 21.4 10.15 21.1 10.25 21.1 10.25 21.4 10.3 21.55 10.65 22.0 10.75 21.85 10.85 21.6 11.1 21.9 11.5 22.05 11.6 21.5 11.2 21.2 11.2 21.0 11.3 21.0 11.4 20.95 Q11.9 21.15 11.95 21.8 L11.9 21.8 11.95 21.9 12.2 22.0 12.55 22.15 12.55 21.7 12.65 21.7 12.85 22.85 13.1 22.85 13.3 21.8 13.45 21.9 13.5 22.05 13.8 22.05 13.8 21.85 13.4 21.65 13.35 21.6 13.2 21.8 13.05 21.5 13.0 21.2 13.35 21.6 13.4 21.45 13.5 21.2 13.85 21.45 13.85 21.5 13.9 21.0 14.0 20.95 14.15 21.35 14.3 21.6 14.55 21.3 14.9 21.6 15.2 22.0 15.4 21.6 15.7 21.2 15.85 21.4 16.05 21.7 16.3 21.3 16.45 20.85 16.7 21.2 16.75 21.6 16.85 21.65 17.05 21.7 17.1 21.25 17.15 20.85 17.2 20.8 17.3 20.75 17.35 21.25 17.4 21.8 17.45 21.8 17.5 21.9 17.7 21.55 17.8 21.3 18.0 22.15 18.1 22.0 18.35 22.05 18.55 22.35 18.9 21.45 Q19.25 20.8 19.6 20.75 L19.6 21.1 19.7 21.0 19.8 21.4 19.8 21.9 19.8 22.0 20.2 21.45 20.35 20.95 20.6 21.05 20.85 21.2 20.9 21.1 20.9 21.0 20.95 20.95 20.95 21.0 20.9 21.0 M13.8 21.85 L13.85 21.6 13.85 21.5 14.0 21.9 14.3 21.6 14.35 21.8 14.25 21.85 14.0 21.9 13.8 21.85 M11.6 21.55 L11.9 21.8 Q11.95 21.45 11.6 21.1 L11.6 21.5 11.6 21.55 M10.45 24.65 L10.55 24.75 10.55 24.55 10.45 24.6 10.45 24.65 M17.2 24.65 L17.3 25.0 17.35 24.9 17.3 24.7 17.3 24.65 17.2 24.65 M17.3 24.65 L17.2 24.55 17.15 24.65 17.15 24.85 17.15 25.05 17.2 25.05 17.2 25.15 17.3 25.0 17.4 25.15 17.4 25.1 17.35 24.9 17.4 24.75 17.3 24.7 M19.35 25.0 L19.3 24.75 19.35 25.1 19.35 25.0 M19.15 25.4 L19.2 25.4 19.15 25.3 19.15 25.4 19.05 25.45 19.05 25.5 19.15 25.7 19.05 25.7 19.05 25.5 M19.2 25.4 L19.2 25.3 19.2 25.15 19.15 25.2 19.15 25.3 19.05 25.15 19.05 25.45 M19.2 25.3 L19.3 25.3 19.2 25.15 M19.2 25.4 L19.3 25.55 19.6 26.0 19.6 25.9 19.7 25.55 19.7 25.9 19.8 25.8 19.8 24.85 19.4 25.4 19.35 25.1 19.3 25.3 19.2 25.4 M17.85 25.05 L17.7 25.0 17.7 25.05 17.55 25.05 17.5 25.05 17.65 25.15 17.8 25.1 17.85 25.05 17.9 25.05 17.8 24.75 17.7 24.55 17.7 25.0 17.6 24.95 17.55 25.05 M18.45 26.95 L18.45 27.15 18.15 27.15 18.1 27.15 18.05 27.1 17.85 26.95 17.8 26.9 17.7 26.75 17.9 26.75 18.0 26.75 18.35 26.75 18.4 26.8 18.45 26.95 M17.95 26.85 L18.0 26.95 18.0 26.9 18.0 26.85 17.95 26.85 17.9 26.85 17.9 26.9 17.9 26.95 18.0 26.95 18.1 26.9 18.15 26.9 18.15 26.85 18.1 26.85 18.0 26.9 M18.0 26.85 L18.0 26.8 17.9 26.75 17.9 26.85 17.8 26.9 17.9 26.9 M18.0 26.8 L18.0 26.75 M18.15 26.95 L18.25 26.95 18.25 26.85 18.2 26.9 18.15 26.9 18.15 26.95 18.15 27.15 18.05 27.1 18.05 27.05 18.0 26.95 18.15 26.95 M18.2 26.9 L18.2 26.85 18.25 26.85 18.1 26.8 18.0 26.8 M17.6 24.95 L17.55 24.95 17.5 25.0 17.5 25.05 M17.55 24.95 L17.45 24.95 17.5 25.0 17.4 25.05 17.4 25.1 M17.4 25.05 L17.4 24.95 17.4 24.75 17.45 24.95 17.4 25.05 M17.45 24.95 L17.4 24.95 M14.05 24.95 L13.9 25.25 13.6 25.6 13.6 25.15 13.55 25.3 13.45 25.6 13.95 25.55 14.1 25.1 14.05 25.2 14.05 25.05 14.1 25.1 14.15 24.95 14.05 24.95 M13.3 25.4 L13.25 25.4 13.3 25.5 13.3 25.4 13.3 25.15 13.2 25.15 13.2 25.25 13.2 25.3 13.25 25.4 13.2 25.4 13.3 25.8 13.45 25.6 13.4 25.6 13.3 25.4 M13.6 25.15 L13.6 24.85 M13.2 25.4 L13.1 25.4 13.05 25.5 13.0 25.6 12.85 25.6 12.85 25.2 12.85 25.05 12.85 24.95 12.95 25.05 13.0 25.1 13.1 25.15 13.1 24.95 13.2 25.25 M12.85 25.2 L12.95 25.4 13.1 25.4 13.1 25.3 12.95 25.05 12.85 25.05 M13.2 25.4 L13.2 25.3 M12.75 27.35 L12.65 27.3 12.7 27.35 12.75 27.35 M12.75 27.45 L12.85 27.55 12.95 27.65 12.85 27.05 12.55 26.75 12.55 26.85 12.6 27.0 12.7 27.1 12.85 27.25 12.85 27.35 12.85 27.45 12.75 27.45 12.55 27.4 12.65 27.45 12.75 27.45 12.75 27.4 12.7 27.35 12.55 27.35 12.55 27.4 M12.85 27.35 L12.8 27.35 12.85 27.45 M12.8 27.35 L12.7 27.1 12.65 27.1 12.7 27.25 12.75 27.25 12.75 27.3 12.8 27.35 12.75 27.4 M12.85 27.55 L12.85 27.6 13.0 27.7 12.95 27.65 M12.65 27.45 L12.75 27.55 12.85 27.55 M12.75 27.55 L12.45 27.55 12.45 27.6 12.75 27.6 12.85 27.6 12.75 27.55 M12.15 25.05 L12.15 24.85 12.2 25.0 12.15 25.05 M11.7 24.75 L11.5 24.75 11.45 24.8 11.2 24.95 11.05 24.9 10.85 24.95 10.8 24.8 10.75 24.75 10.7 24.8 10.7 24.9 10.9 25.05 11.1 25.15 11.5 25.0 11.7 24.75 11.7 24.55 11.5 24.75 M11.45 24.8 L11.4 24.85 11.1 24.9 11.05 24.9 10.95 24.85 10.75 24.75 10.75 24.65 10.7 24.8 10.65 24.85 10.7 24.9 10.65 25.05 10.55 24.95 10.55 24.75 M10.7 26.25 L10.85 26.25 10.75 26.15 10.65 25.9 10.75 25.9 10.9 26.35 10.85 26.3 10.85 26.35 10.75 26.35 10.25 26.25 10.25 26.2 10.55 26.2 10.7 26.25 10.8 26.3 10.85 26.25 10.85 26.3 10.8 26.3 10.75 26.35 M12.05 26.85 L12.3 27.2 12.35 27.2 12.35 27.15 12.45 27.25 12.6 27.25 12.45 27.05 12.65 27.1 12.6 27.0 12.5 26.85 12.05 26.65 12.05 26.85 M12.55 27.35 L12.5 27.35 12.45 27.35 12.35 27.3 12.25 27.45 12.65 27.45 M12.65 27.3 L12.45 27.25 12.55 27.35 M12.5 27.35 L12.4 27.3 12.35 27.3 12.3 27.3 12.25 27.35 12.25 27.3 12.3 27.3 12.35 27.25 12.05 27.25 12.1 27.35 12.15 27.45 12.25 27.45 12.15 27.55 12.25 27.6 12.45 27.6 12.45 27.7 12.75 27.6 M12.45 27.25 L12.4 27.25 12.4 27.3 12.45 27.25 M12.65 27.3 L12.6 27.25 12.7 27.25 M12.35 27.2 L12.4 27.25 12.35 27.25 12.35 27.2 M20.55 27.15 L20.5 27.25 20.55 27.35 20.55 27.15" fill="none" stroke="#000000" stroke-linecap="round" stroke-linejoin="round" stroke-width="0.05"/>
  </g>
</svg>
