<?xml version="1.0" encoding="UTF-8" standalone="no"?>
<svg xmlns:xlink="http://www.w3.org/1999/xlink" height="12.85px" width="43.25px" xmlns="http://www.w3.org/2000/svg">
  <g transform="matrix(1.0, 0.0, 0.0, 1.0, 3.1, -14.35)">
    <path d="M26.75 15.8 L27.05 15.9 27.3 15.95 27.35 15.65 M22.35 24.0 L22.6 24.0 22.75 24.5 22.85 24.85 22.9 24.85 22.9 24.65 23.05 24.65 23.15 23.6 23.3 23.6 23.3 24.4 23.05 24.65 23.4 24.65 23.4 24.8 23.4 25.2 23.55 25.35 23.4 25.35 23.4 25.45 23.25 25.35 23.1 25.35 23.1 25.45 23.15 25.45 23.15 25.6 23.1 25.45 23.05 25.35 22.9 25.35 22.6 25.15 22.45 25.0 22.2 25.05 22.2 24.1 22.25 24.1 22.2 24.0 22.3 24.1 22.35 24.0 M22.25 24.1 L22.55 24.55 22.3 24.1 22.25 24.1 M22.6 24.7 L22.75 24.9 22.8 24.85 22.75 24.8 22.6 24.65 22.6 24.7 M22.55 24.55 L22.55 24.6 22.6 24.65 M29.0 21.55 L29.05 21.6 29.05 21.7 29.15 21.7 29.2 21.7 29.2 21.3 29.25 21.4 29.3 21.2 29.3 21.45 29.45 21.6 29.45 21.4 29.5 21.55 29.55 21.45 29.7 21.85 29.95 21.8 30.15 21.65 30.1 21.3 30.2 21.55 30.25 21.35 30.25 21.75 30.25 22.0 30.25 22.1 30.25 22.25 30.1 22.2 30.1 22.35 29.45 21.85 29.45 22.1 29.35 22.1 29.3 22.2 29.3 22.1 29.2 22.1 29.05 22.1 29.05 22.05 29.0 22.0 28.9 21.95 28.9 21.45 29.0 21.55 M29.2 21.7 L29.3 21.7 29.3 21.45 29.25 21.4 29.2 21.7 29.2 22.1 29.3 22.0 29.35 21.9 29.4 21.85 29.45 21.6 29.3 21.7 29.3 22.0 29.3 22.1 29.35 22.1 29.35 21.9 29.45 21.85 29.45 21.6 29.55 21.7 29.55 21.75 29.65 21.85 29.7 21.85 29.75 21.9 30.15 22.1 30.2 21.8 30.2 21.7 30.15 21.65 30.2 21.55 30.25 21.75 30.2 21.8 30.25 22.0 M29.45 21.6 L29.5 21.55 29.5 21.6 29.55 21.7 M29.75 21.9 L29.8 22.0 30.1 22.2 30.15 22.1 30.25 22.1 M29.55 21.75 L29.55 21.85 29.65 21.85 29.75 21.9 M29.05 22.05 L29.0 21.85 28.9 21.45 M29.05 21.6 L29.0 21.7 29.05 21.7 M29.15 21.7 L29.05 22.1 M35.4 22.15 L36.15 21.95 36.0 22.1 35.4 22.15 35.15 22.15 34.75 22.0 34.8 22.05 34.8 22.2 34.95 22.3 35.2 22.5 M34.75 22.0 L34.7 22.0 34.65 21.95 34.7 22.05 34.8 22.2 34.8 22.25 34.7 22.1 34.7 22.05 34.55 21.85 34.65 21.95 M0.0 14.6 L-0.15 14.35 -0.45 14.55 -0.65 14.9 -0.65 14.95 -0.4 15.4 -0.4 15.45 Q-0.2 15.15 0.1 15.05 L0.05 14.95 0.0 14.65 0.0 14.6 M0.3 15.0 L0.0 14.65 0.2 14.9 0.25 15.0 0.3 15.0 0.5 15.0 0.6 15.1 0.65 14.8 0.55 14.5 M0.1 15.05 L0.25 15.0 0.4 15.4 0.25 15.4 0.1 15.05 M0.3 15.0 L0.3 15.05 0.45 15.35 0.5 15.15 0.5 15.0 M0.5 15.15 L0.5 15.5 0.55 15.2 0.6 15.1 0.8 15.2 0.9 15.0 0.95 15.25 1.4 15.5 2.15 16.1 2.0 16.2 1.7 16.2 Q1.1 16.2 0.95 15.25 L0.8 15.2 0.55 15.45 0.5 15.5 0.5 15.55 0.5 16.3 0.7 16.4 1.2 16.6 1.2 16.7 1.3 16.75 1.0 16.9 0.5 16.9 0.45 16.9 0.4 17.3 -0.6 16.85 -1.15 16.55 -1.9 16.2 -1.9 16.1 -1.15 16.55 -0.9 16.6 0.45 16.9 0.5 16.3 0.1 16.2 -0.05 16.25 -0.35 16.5 -0.55 16.6 -0.5 16.45 -0.65 16.5 -0.55 15.85 -0.6 15.85 -0.8 16.6 -0.95 16.5 -0.95 14.75 -0.8 14.75 -0.65 14.95 -0.65 15.8 -0.6 15.85 -0.55 15.4 -0.4 15.4 M0.5 15.5 L0.45 15.35 0.3 15.65 0.5 15.5 M0.2 15.7 Q-0.2 15.7 -0.4 15.45 L-0.4 15.5 -0.45 15.95 -0.3 15.95 0.3 15.65 0.2 15.7 M2.55 22.3 L2.65 22.0 2.65 21.85 2.4 21.3 2.85 21.2 3.35 21.05 3.45 21.2 3.55 21.6 3.65 21.5 3.9 21.45 4.15 21.3 4.1 21.55 4.15 21.6 4.8 21.85 4.85 21.45 4.95 20.9 5.35 20.6 5.35 20.55 5.35 20.35 5.45 20.35 5.35 20.6 M3.9 21.45 L4.1 21.55 3.9 22.0 3.45 22.5 3.2 22.1 3.2 22.25 3.2 22.8 2.8 22.1 2.75 22.0 2.75 21.95 2.65 21.85 2.65 21.55 2.75 21.95 M3.2 22.05 L3.1 21.85 3.05 21.8 3.05 21.75 2.9 21.7 2.9 21.6 3.05 21.75 3.1 21.85 3.2 21.95 3.2 22.05 3.2 22.1 3.55 21.6 M3.2 22.25 L2.75 22.0 M16.3 21.6 L16.3 20.9 Q16.5 21.15 16.75 21.25 L17.15 21.45 17.25 21.45 17.2 21.35 17.15 21.25 16.85 21.05 17.25 21.05 17.2 21.35 M2.15 25.85 L2.2 26.2 2.4 26.4 2.55 26.5 2.9 26.8 2.8 26.85 2.8 26.95 Q2.45 27.05 2.25 26.8 L1.85 26.4 1.85 26.95 1.25 26.7 1.2 26.65 0.8 26.8 -0.1 26.95 -0.5 26.75 -0.55 26.8 -0.9 26.55 -1.05 26.55 -1.8 26.5 -2.1 26.8 Q-2.65 27.3 -2.95 27.2 L-3.1 25.85 -3.05 25.1 -2.65 24.65 -2.05 25.05 -2.3 24.5 Q-1.5 24.6 -1.1 25.05 -0.85 25.25 -0.75 25.6 L-0.1 25.35 0.2 25.0 0.25 24.9 0.2 24.9 -1.15 24.7 Q-2.25 24.45 -2.8 24.0 L-2.8 23.7 -1.25 24.3 0.2 24.9 M0.25 24.9 L0.4 24.9 0.5 24.9 0.5 26.65 1.15 26.65 0.9 26.1 1.45 26.0 1.45 26.1 1.6 26.1 2.15 26.55 2.15 26.4 2.15 26.35 2.0 26.15 1.95 26.1 1.7 25.85 1.85 25.85 2.0 26.15 M1.2 26.65 L1.15 26.65 1.4 26.45 1.45 26.1 0.9 26.1 M0.2 26.65 L-0.9 26.25 -1.35 26.05 -2.8 25.35 -2.95 25.35 -1.95 26.45 -1.8 26.5 -1.55 26.25 Q-1.2 26.25 -0.9 26.55 L-0.55 26.75 -0.5 26.75 -0.4 26.65 0.0 26.65 0.2 26.65 0.25 26.65 0.35 26.65 Q0.2 25.7 0.4 24.9 M0.35 26.65 L0.4 26.8 0.5 26.65 0.35 26.65 M2.4 26.4 L2.2 26.4 2.3 26.5 2.4 26.55 2.4 26.4 M2.2 26.4 L2.15 26.4 2.3 26.5 M2.15 26.35 L2.2 26.4 M1.4 26.45 L1.2 26.65 M40.15 25.45 L39.35 25.2 M35.45 25.45 L35.6 25.45 35.5 25.75 35.75 25.35 35.65 25.0 35.45 24.8 35.45 25.45 35.45 25.55 35.45 25.75 35.5 25.75 35.45 25.8 34.65 26.6 33.0 27.05 Q32.45 27.05 31.9 26.55 L31.65 26.25 31.6 26.25 31.6 26.4 31.55 26.45 31.45 26.5 31.3 26.55 31.0 26.3 30.9 26.1 30.7 26.1 30.4 26.1 30.25 26.0 29.85 26.65 29.75 26.2 29.7 25.7 29.75 25.3 29.85 25.05 30.5 25.05 30.6 25.2 Q30.8 24.95 31.25 24.85 L32.0 24.8 32.05 24.8 32.25 24.8 Q33.25 24.8 34.15 25.35 L34.2 25.35 34.25 24.9 Q35.0 25.0 35.4 25.7 L35.45 25.55 M35.45 25.8 L35.45 25.75 35.3 25.85 35.3 25.9 35.05 26.25 34.8 26.0 34.75 26.0 34.05 25.7 33.4 26.25 32.95 25.95 32.4 25.35 32.0 26.2 31.65 26.25 31.6 26.2 31.6 26.25 31.45 26.25 31.45 26.5 M34.8 26.0 L34.55 25.7 34.2 25.35 34.05 25.7 33.4 25.4 32.05 24.8 M35.45 25.75 L35.4 25.7 35.3 25.85 35.25 25.85 34.8 26.0 M30.5 25.35 L30.35 25.9 30.75 26.0 30.9 26.1 31.05 26.05 31.1 26.0 30.9 25.65 30.6 25.2 30.5 25.35 M30.9 26.1 L30.8 26.05 30.75 26.0 M31.45 25.6 L31.45 25.95 31.6 26.2 31.6 25.85 31.45 25.6 31.6 25.6 31.6 25.85 M31.45 25.6 L31.4 25.6 31.35 25.65 31.35 25.75 31.45 25.95 31.45 26.25 31.4 26.25 31.2 26.25 30.9 26.1 M31.3 25.8 L31.35 25.75 31.3 25.7 31.3 25.8 31.2 26.25 31.1 26.0 31.3 25.8 M31.35 25.65 L31.3 25.7 31.4 25.45 Q31.65 24.85 32.0 24.8 M30.35 25.9 L30.25 26.0 30.1 25.85 30.35 25.9 M23.4 24.8 L23.15 25.0 23.25 25.05 23.4 25.2 23.4 25.35 23.25 25.35 23.05 25.15 23.1 25.35 23.05 25.35 22.75 24.9 22.5 25.0 22.45 25.0 22.35 24.9 22.5 25.0 M22.85 24.85 L22.85 24.9 23.0 25.05 23.05 25.05 23.05 24.95 22.9 24.9 22.9 24.85 22.95 24.75 23.05 24.65 23.05 24.95 23.15 25.0 23.05 25.05 23.05 25.15 23.0 25.05 22.9 25.05 22.85 24.9 22.8 24.85 22.85 24.85 M-0.4 15.5 L-0.45 15.55 -0.55 15.85 -0.55 15.9 -0.45 15.95 -0.45 16.0 -0.5 16.45 -0.3 16.35 -0.05 16.25 M-0.75 25.6 L-0.65 26.1 -0.2 25.6 0.2 25.0 M-2.05 25.05 L-1.9 25.15 -0.75 25.6 M-0.9 26.25 L-1.45 25.75 -2.05 25.05" fill="none" stroke="#000000" stroke-linecap="round" stroke-linejoin="round" stroke-width="0.05"/>
  </g>
</svg>
