<?xml version="1.0" encoding="UTF-8" standalone="no"?>
<svg xmlns:xlink="http://www.w3.org/1999/xlink" height="21.55px" width="27.85px" xmlns="http://www.w3.org/2000/svg">
  <g transform="matrix(1.0, 0.0, 0.0, 1.0, -2.45, -6.55)">
    <path d="M22.25 9.2 L22.25 9.85 21.8 9.0 21.75 9.0 21.65 9.0 21.7 9.1 21.85 9.3 22.1 9.8 21.8 9.3 21.7 9.1 21.6 9.0 21.5 9.05 21.4 9.1 21.4 9.5 21.35 9.8 21.15 9.8 20.85 9.45 20.85 9.5 20.6 9.35 20.45 9.2 20.45 9.3 20.4 9.2 20.35 9.2 20.35 9.1 20.45 9.2 20.45 9.0 20.85 9.45 21.1 9.1 21.35 8.9 21.6 9.0 21.65 9.0 21.6 8.8 21.8 9.0 22.05 9.15 22.15 9.4 22.25 9.2 22.25 9.1 22.25 9.05 22.3 9.1 22.3 9.15 22.55 9.4 22.75 9.6 22.85 9.45 22.9 9.45 22.9 9.4 22.95 9.1 23.1 9.15 23.2 9.2 23.2 9.3 23.1 9.8 23.05 10.05 23.05 9.7 23.15 9.3 22.9 9.45 M24.55 8.55 L24.75 9.2 24.9 8.85 25.15 8.65 25.3 8.7 25.3 8.75 25.3 8.95 25.7 8.75 26.15 8.75 26.45 8.75 26.55 9.0 26.55 9.15 26.75 9.1 27.0 9.2 27.25 8.95 27.5 8.45 27.6 8.45 27.6 8.85 27.7 8.65 27.8 8.65 27.85 9.05 27.85 9.0 28.2 8.25 28.5 7.5 28.7 7.2 28.65 7.2 28.75 7.0 28.65 6.8 Q28.75 6.7 28.8 6.7 L29.0 6.65 29.05 6.55 29.05 6.65 29.0 6.65 28.8 6.9 28.75 7.0 28.75 7.05 28.85 6.9 28.85 7.0 28.75 7.1 28.6 8.15 27.9 9.2 27.85 9.05 Q27.6 9.4 27.4 9.4 L27.1 9.25 27.0 9.2 26.65 9.3 26.6 9.2 26.55 9.2 26.45 9.45 26.05 9.8 25.85 9.75 25.7 9.6 25.4 10.0 25.3 10.0 25.3 9.8 25.25 9.9 25.05 10.25 24.7 9.8 24.4 9.4 24.35 9.5 24.25 9.5 24.25 9.0 24.4 9.15 24.45 9.15 24.45 9.0 24.55 8.55 M24.45 9.15 L24.65 9.2 24.75 9.2 25.25 9.0 25.3 8.95 25.3 9.8 25.6 9.5 25.7 9.6 26.15 8.75 M22.25 9.1 L22.3 9.1 M22.3 9.15 L22.4 9.4 22.55 9.9 22.65 9.9 22.7 9.65 22.75 9.6 22.85 9.7 22.85 9.45 M24.4 9.4 L24.45 9.15 M28.75 7.05 L28.7 7.2 28.75 7.1 28.75 7.05 M26.55 9.2 L26.55 9.15 M27.5 9.2 L27.55 9.05 27.4 9.2 27.5 9.2 M27.6 8.9 L27.6 8.85 27.55 8.95 27.6 8.9 M27.55 9.05 L27.55 8.95 M23.0 13.5 L23.05 13.45 23.05 13.5 23.0 13.5 23.0 13.6 22.95 13.75 22.95 13.8 22.95 14.25 23.3 13.95 23.3 13.5 23.3 12.9 23.25 12.65 23.05 13.05 22.95 13.6 22.95 13.75 22.7 14.35 22.75 14.45 22.9 13.95 22.95 13.8 M23.25 12.65 L23.2 12.25 22.8 12.8 Q22.65 13.1 22.75 13.5 L22.65 13.5 22.6 13.1 22.55 12.65 22.2 13.3 22.15 13.4 22.25 13.55 22.25 13.75 22.45 13.5 22.55 13.65 22.65 13.7 22.7 14.35 22.7 14.4 Q22.45 14.9 22.0 14.9 L21.85 14.65 21.8 14.75 21.5 15.2 21.5 15.0 21.6 14.3 21.7 13.6 21.9 13.6 21.9 13.65 22.0 13.2 21.9 13.25 21.9 13.3 21.55 13.75 21.25 14.35 21.25 14.25 21.5 13.5 21.9 12.9 22.05 13.2 22.15 13.4 22.15 13.5 22.15 13.9 22.25 13.75 22.25 13.8 22.15 14.0 22.1 14.05 22.0 14.65 22.0 14.4 22.0 14.1 21.95 14.15 21.85 14.65 21.8 14.4 21.85 13.85 21.9 13.65 22.0 13.7 22.1 13.4 22.15 13.4 22.0 14.1 22.15 13.9 22.15 14.0 M21.95 14.15 L21.9 14.25 22.0 13.7 22.0 13.95 22.0 14.1 M22.0 13.95 L21.95 14.15 M22.1 14.05 L22.0 14.4 M19.5 22.55 L19.4 23.35 19.45 23.4 19.5 23.5 19.9 23.2 20.15 22.75 20.15 23.5 20.2 23.4 20.65 22.95 20.65 23.05 20.45 23.35 20.15 23.7 20.15 23.5 19.9 24.0 19.35 23.55 19.1 23.05 M30.25 23.45 L30.3 23.15 M13.2 8.75 L10.45 8.8 10.6 9.0 10.75 9.0 10.95 8.9 11.35 9.0 10.75 9.0 10.75 9.05 11.45 9.1 11.5 9.1 11.6 9.15 11.65 9.15 11.7 8.9 12.65 9.0 13.0 9.2 13.1 9.25 13.3 9.3 13.3 9.25 13.3 9.1 13.8 9.5 13.85 9.6 13.9 9.6 14.45 9.8 14.7 9.85 14.45 9.65 14.15 9.5 14.25 9.5 14.45 9.65 14.7 9.75 14.8 9.8 15.1 9.95 15.15 10.0 15.25 10.0 15.3 10.05 15.4 10.25 15.45 10.15 15.5 10.15 15.55 9.95 15.5 9.9 Q15.6 9.5 14.85 9.1 L13.2 8.75 M13.0 9.2 L12.45 9.1 12.5 9.15 13.0 9.25 13.1 9.25 13.15 9.35 13.35 9.4 13.3 9.3 13.35 9.3 13.45 9.45 13.6 9.5 13.85 9.6 14.0 10.15 13.9 10.15 13.55 9.65 13.5 9.55 13.4 9.55 13.5 9.9 13.5 10.0 13.3 9.55 13.25 9.55 12.95 9.5 12.75 9.75 12.6 9.8 12.95 9.9 Q13.5 9.9 13.65 10.15 L14.05 10.8 14.15 10.15 14.25 9.8 14.45 9.8 M10.65 9.15 L10.95 9.15 10.75 9.05 10.6 9.05 10.65 9.15 10.7 9.4 10.75 9.35 10.75 9.4 11.05 9.45 11.5 9.4 12.0 9.6 12.1 9.65 12.55 9.8 12.6 9.8 11.65 9.15 12.35 9.1 12.5 9.15 13.15 9.35 13.3 9.55 13.4 9.55 13.35 9.5 13.35 9.4 13.45 9.45 13.5 9.55 13.6 9.5 M10.6 9.0 L10.6 9.05 10.25 9.0 10.6 9.0 M4.6 10.85 L4.55 10.6 4.6 10.75 4.6 10.85 4.75 11.1 5.2 11.8 5.55 12.05 5.8 12.25 Q6.25 12.25 6.3 11.65 L6.3 11.55 6.0 11.25 5.95 11.35 5.75 12.05 5.75 11.6 5.65 11.6 5.65 11.5 5.65 11.4 5.6 11.35 5.6 11.45 5.65 11.7 5.6 11.6 5.55 11.5 5.5 11.5 5.05 11.3 Q4.8 11.0 4.7 10.45 L4.8 10.45 5.3 10.95 5.45 11.2 5.4 11.0 5.2 10.35 5.3 10.35 5.8 10.95 5.95 11.15 6.0 11.1 6.15 10.8 6.25 10.85 6.25 10.6 6.15 10.65 5.95 10.5 5.85 10.55 5.4 10.25 5.0 10.25 5.0 9.8 4.9 9.8 4.9 10.0 4.85 9.85 4.7 10.05 4.6 9.9 4.55 10.05 4.5 9.8 4.2 9.45 3.5 8.8 3.4 8.75 3.4 8.8 2.95 8.6 2.55 8.45 2.55 8.7 2.45 8.05 2.65 8.35 2.7 8.35 2.8 7.5 2.85 8.35 3.4 8.75 3.4 8.55 4.05 9.1 4.05 8.65 4.35 9.1 4.55 9.4 4.55 8.75 4.6 8.75 4.9 9.2 5.0 9.4 5.0 9.45 5.05 9.45 5.0 9.3 5.05 9.3 5.0 8.8 5.45 9.1 6.05 9.2 6.15 8.75 6.25 8.75 6.5 9.15 6.55 9.3 6.55 9.35 6.6 9.5 6.65 9.6 6.7 9.7 6.75 9.7 6.75 9.45 6.75 9.0 6.8 9.1 6.8 9.15 6.85 9.25 6.9 9.6 6.9 9.65 6.95 9.65 7.05 9.45 7.3 8.8 7.45 9.0 7.5 9.0 7.5 8.9 7.8 9.15 7.75 9.0 8.05 9.2 8.05 9.25 8.6 9.65 8.65 9.6 8.7 9.75 8.75 9.8 9.2 10.15 9.2 10.05 8.95 9.75 8.9 9.4 9.35 9.95 9.55 10.05 9.7 10.15 9.6 9.55 9.4 9.55 8.8 9.1 8.9 9.1 9.7 9.1 10.0 9.15 10.3 9.15 10.65 9.15 M11.6 9.15 L11.4 9.15 10.95 9.15 11.45 9.1 M12.1 9.65 L11.6 9.6 10.95 9.85 10.75 9.95 10.6 10.05 10.55 10.15 10.15 10.55 10.15 10.45 10.25 10.25 9.95 10.4 9.75 10.65 9.75 10.75 9.7 10.6 9.7 10.55 9.65 10.55 9.35 10.65 8.9 10.35 8.45 10.1 8.4 10.1 8.35 10.15 8.35 10.1 8.25 10.15 8.2 10.15 7.85 10.3 7.8 10.3 7.4 10.65 7.3 10.8 7.35 10.65 7.15 10.45 6.75 10.45 6.7 10.5 6.35 10.85 6.4 10.9 6.45 10.9 6.45 11.4 6.4 11.45 6.35 11.6 6.3 11.55 6.25 10.9 6.25 10.85 6.0 11.25 5.95 11.15 5.8 11.4 5.95 11.35 M11.6 9.6 L11.25 9.5 11.05 9.45 10.85 9.45 10.75 9.45 10.75 9.5 10.65 9.55 10.45 9.9 10.3 10.1 10.35 10.2 10.6 10.05 Q10.8 9.75 10.95 9.85 M10.75 9.45 L10.7 9.45 10.65 9.55 10.4 9.9 10.3 10.05 10.3 10.1 10.25 10.2 10.25 10.25 10.35 10.2 10.35 10.25 10.25 10.25 M10.7 9.4 L10.4 9.45 10.45 9.5 10.7 9.45 10.7 9.4 10.75 9.4 M10.7 9.4 L10.75 9.45 M10.25 9.55 L10.25 9.5 10.35 9.5 10.4 9.45 10.0 9.15 9.1 9.2 9.45 9.5 9.6 9.55 9.6 9.3 9.9 9.6 10.0 9.6 10.2 9.55 10.25 9.55 10.45 9.5 10.35 9.5 M10.15 9.6 L10.0 9.6 10.1 9.75 10.1 9.8 10.15 9.85 10.2 9.6 10.15 9.6 M10.2 9.6 L10.25 9.55 M10.15 9.85 L10.25 10.1 10.3 10.05 10.15 9.85 10.1 10.1 10.05 10.25 Q10.1 10.2 10.25 10.1 L10.25 10.2 M10.65 9.55 L10.2 9.6 M10.4 12.25 L10.4 12.15 10.25 12.15 10.1 12.45 10.35 12.3 10.4 12.25 10.45 12.25 10.5 12.35 10.45 12.15 10.4 12.15 10.35 12.05 10.25 12.15 10.15 12.15 9.75 12.55 9.75 12.8 9.8 12.8 10.1 12.45 M10.5 12.35 L10.55 12.35 10.6 12.6 10.65 12.8 10.65 12.75 Q10.65 12.2 10.35 12.05 L9.7 12.0 9.75 12.55 9.5 12.1 9.5 12.05 9.3 12.25 9.2 12.55 9.2 12.45 9.3 12.25 9.35 12.15 9.35 12.05 Q9.3 12.05 9.2 12.15 L9.0 12.25 8.9 12.1 8.8 12.05 8.85 12.25 8.8 12.45 8.9 12.55 9.35 12.7 9.55 12.8 9.6 12.75 9.7 12.8 9.75 12.8 9.75 12.85 9.8 12.8 M14.8 9.95 L14.95 10.05 14.9 9.95 14.7 9.85 14.8 9.95 M15.1 10.05 L15.15 10.0 15.1 10.0 15.1 10.05 M14.9 9.95 L14.9 9.9 15.1 10.0 15.1 9.95 M15.1 10.0 L14.9 9.95 M15.15 10.45 L15.3 10.65 15.3 10.4 14.95 10.05 15.15 10.45 M17.4 9.45 L17.4 9.7 17.6 10.0 17.6 9.9 17.65 9.9 17.8 9.65 18.05 9.1 18.0 9.05 17.9 9.0 18.0 9.0 18.0 9.05 18.4 9.35 18.85 9.7 18.85 9.2 18.95 9.2 19.0 10.0 19.0 10.05 19.2 10.2 19.2 10.15 19.5 9.5 19.55 9.65 19.6 9.75 19.6 9.8 19.7 10.0 19.7 10.05 19.7 10.15 19.8 10.55 19.95 10.05 19.95 10.0 20.0 9.6 20.1 9.5 19.95 10.0 M18.05 9.1 L18.05 9.15 18.35 9.4 18.55 9.6 18.65 9.7 18.85 9.8 18.85 9.7 19.0 10.0 18.85 9.9 18.9 10.05 19.05 10.45 19.05 10.15 19.0 10.05 M16.65 9.0 L16.95 9.65 17.05 9.8 17.05 9.5 16.75 9.0 16.65 9.0 M17.05 9.8 L17.35 10.3 17.4 9.95 17.15 9.7 17.05 9.5 M17.4 9.7 L17.4 9.95 17.6 10.05 17.6 10.0 17.65 9.9 17.75 9.95 17.9 9.6 18.05 9.15 M17.6 10.0 L17.7 10.05 17.75 9.95 17.9 10.05 18.35 10.05 18.4 9.85 18.45 9.8 18.4 9.7 18.35 9.4 M17.35 10.3 L17.4 10.35 17.45 10.35 17.5 10.45 17.6 10.3 17.6 10.05 M17.05 9.8 L17.2 10.65 17.3 10.65 17.35 10.3 M15.8 9.4 L15.6 9.8 15.55 9.9 15.65 9.8 15.8 9.5 15.8 9.4 M15.3 10.05 L15.2 10.05 15.2 10.0 15.15 10.0 15.3 10.35 15.3 10.4 15.5 10.65 15.65 10.15 15.8 9.75 15.8 10.0 15.6 10.8 15.3 10.65 15.3 10.8 15.3 11.1 15.2 11.3 14.55 10.15 M15.3 10.05 L15.2 10.0 M15.55 9.9 L15.55 9.95 M19.7 10.05 L19.65 9.95 19.65 10.0 19.7 10.15 19.7 10.65 19.7 11.0 19.9 10.45 19.95 10.05 M19.55 9.65 L19.55 9.7 19.6 9.75 M19.7 10.65 L19.2 10.2 19.15 10.4 19.15 10.45 19.4 11.0 19.7 11.0 19.4 11.3 18.7 10.4 18.45 9.8 18.5 9.7 18.4 9.7 M19.05 10.15 L19.15 10.4 19.1 10.55 19.05 10.75 19.05 10.8 18.85 9.9 18.8 9.85 18.65 9.7 18.5 9.7 18.55 9.6 M19.1 10.55 L19.05 10.45 M19.6 9.8 L19.65 9.95 M18.85 9.9 L18.85 9.8 M5.05 9.5 L5.35 9.6 5.3 9.55 5.1 9.3 5.05 9.45 5.05 9.5 5.05 9.55 5.15 9.65 5.4 9.9 5.5 9.9 5.35 9.6 5.55 9.75 5.65 9.8 5.5 9.65 5.1 9.2 5.1 9.3 5.05 9.3 5.05 9.45 M5.0 9.4 L4.9 9.4 4.9 9.75 4.95 9.6 5.0 9.5 5.0 9.45 M5.0 9.5 L5.05 9.5 M4.6 9.9 L4.7 9.8 4.85 9.8 4.45 9.4 4.5 9.75 4.5 9.8 4.6 9.9 M4.85 9.85 L4.9 9.8 4.85 9.8 4.85 9.85 M4.9 9.75 L4.9 9.8 M5.0 9.8 L5.0 9.5 M8.05 9.2 L7.95 9.2 7.9 9.3 7.95 9.4 8.0 9.35 8.0 9.3 8.05 9.25 M6.4 9.2 L6.35 9.1 6.35 9.2 6.4 9.2 6.4 9.25 6.55 9.3 M7.5 9.1 L7.45 9.0 7.4 9.0 7.5 9.1 7.55 9.15 7.5 9.05 7.5 9.0 M7.4 9.0 L7.4 9.05 7.45 9.1 7.45 9.15 7.55 9.25 7.5 9.1 M7.55 9.25 L7.7 9.4 7.65 9.25 7.55 9.15 7.55 9.25 7.8 9.6 7.8 9.55 7.85 9.45 7.85 9.4 7.65 9.25 7.5 9.05 M7.35 9.4 L7.25 9.65 7.15 9.75 6.9 10.15 6.8 10.05 6.8 10.1 6.95 10.2 7.0 10.05 7.05 10.25 7.2 10.2 7.3 10.15 7.5 10.05 7.55 10.0 7.5 9.8 7.4 9.4 7.35 9.4 7.4 9.05 M7.35 9.4 L7.3 9.4 7.25 9.65 7.1 9.7 6.95 9.65 6.8 10.0 6.8 10.05 M7.55 10.0 L7.65 9.85 7.6 9.9 7.55 9.8 7.5 9.8 7.45 9.15 M7.55 10.0 L7.55 10.05 7.7 9.95 7.9 9.7 7.85 9.5 7.8 9.6 7.75 9.7 7.7 9.85 7.65 9.85 M7.5 10.05 L7.5 10.35 7.6 10.35 7.65 10.2 7.6 10.25 7.55 10.05 7.5 10.05 7.3 10.3 7.35 10.35 7.45 10.35 7.5 10.35 7.55 10.4 7.6 10.35 7.7 10.25 7.85 10.15 7.85 10.1 7.65 10.2 7.75 10.1 7.55 10.05 M6.4 9.25 L6.45 9.3 6.5 9.4 6.6 9.55 6.65 9.6 6.65 9.7 6.7 9.7 6.75 9.75 6.75 9.7 6.8 9.7 6.75 9.45 6.8 9.1 M5.05 9.55 L5.1 9.7 5.2 9.9 5.55 10.2 5.6 10.25 6.25 10.25 6.35 10.15 6.3 10.25 6.75 10.25 6.75 10.1 6.75 10.05 6.6 9.95 6.55 9.9 6.25 9.6 6.2 9.7 6.0 9.95 6.05 10.05 6.05 10.15 5.95 10.05 5.85 10.05 5.65 9.8 5.95 10.05 6.0 9.95 5.75 9.3 5.95 9.3 6.25 9.6 6.45 9.3 M6.75 10.05 L6.75 10.0 6.75 9.9 6.65 9.7 6.55 9.7 6.55 9.9 M6.8 10.0 L6.75 10.0 M6.75 9.75 L6.8 9.9 6.8 9.7 6.8 9.15 M6.75 9.9 L6.75 9.75 M6.8 10.1 L6.75 10.1 6.8 10.15 6.9 10.25 6.95 10.2 7.05 10.25 7.1 10.25 7.2 10.2 M6.3 10.25 L6.25 10.35 6.25 10.6 6.45 10.55 6.75 10.45 6.9 10.25 6.75 10.25 M6.9 10.25 L6.95 10.25 7.05 10.25 7.15 10.4 7.2 10.45 7.3 10.35 7.1 10.25 M7.2 10.45 L7.35 10.45 7.35 10.35 7.3 10.35 7.3 10.3 7.3 10.15 M7.05 10.25 L7.0 10.3 7.15 10.4 7.15 10.45 7.2 10.45 M7.35 10.65 L7.4 10.55 7.35 10.45 7.4 10.45 7.55 10.45 7.55 10.4 7.6 10.4 7.6 10.35 7.8 10.3 M7.4 10.45 L7.4 10.55 7.4 10.65 7.55 10.45 7.6 10.45 7.6 10.4 M7.35 10.65 L7.4 10.65 M7.0 10.3 L6.75 10.45 6.3 10.8 6.25 10.85 6.35 10.85 6.25 10.9 6.4 10.9 M6.75 10.05 L6.8 10.1 M7.0 10.3 L6.95 10.25 M5.2 9.9 L5.2 10.0 5.4 10.25 5.6 10.25 5.95 10.5 6.05 10.45 6.25 10.25 6.3 10.25 M5.65 11.4 L5.65 11.3 5.75 11.45 5.8 11.4 5.75 11.6 5.75 11.45 5.65 11.5 M5.6 11.45 L5.45 11.2 5.55 11.5 5.6 11.45 M10.1 9.75 L9.9 9.6 9.85 9.6 9.65 9.55 9.6 9.55 M9.7 10.55 L9.35 9.95 9.1 9.9 9.2 10.05 M9.9 10.25 L9.7 10.15 9.75 10.5 9.95 10.4 10.05 10.25 9.9 10.25 M9.75 10.65 L9.7 10.6 M9.75 10.65 L9.75 10.5 9.7 10.55 M9.2 10.15 L9.65 10.55 M7.75 10.1 L7.85 9.9 7.85 10.1 7.9 10.1 8.05 9.9 8.25 9.6 8.25 10.05 8.3 10.05 8.4 10.1 8.6 9.65 8.7 9.75 8.75 10.0 8.45 10.1 M8.0 9.3 L8.05 9.3 8.05 9.8 7.95 9.8 7.9 9.7 8.0 9.35 M7.85 9.5 L7.85 9.45 M7.9 9.3 L7.85 9.4 7.95 9.4 7.85 9.5 M8.2 10.15 L8.0 10.1 7.85 10.15 7.85 10.3 M7.75 10.1 L7.85 10.1 M8.0 10.1 L7.9 10.1 M8.25 10.05 L8.3 10.1 8.35 10.1 8.4 10.1 M8.25 10.05 L8.0 10.1 M9.5 12.05 L9.45 12.0 9.35 12.05 9.4 11.75 9.45 12.0 9.5 11.95 9.6 11.95 9.7 11.85 9.7 12.0 9.6 11.95 9.5 12.05 M7.9 9.3 L7.8 9.15 7.85 9.4 M5.2 9.9 L5.0 9.8 M9.5 12.9 L9.55 13.35 9.55 13.45 9.6 13.5 9.9 13.7 9.95 13.7 9.95 13.15 9.7 12.8 9.6 12.85 9.55 12.8 9.5 12.9 M9.95 13.7 L10.15 13.6 10.0 13.2 9.95 13.15 9.95 13.1 10.25 12.7 10.35 12.3 M9.95 13.7 L9.95 13.9 10.05 13.95 10.2 13.7 10.15 13.7 10.15 13.6 10.3 13.5 10.45 12.95 10.45 13.1 10.45 13.3 10.55 13.1 10.5 12.7 10.5 12.6 10.4 12.25 M9.55 13.45 L9.6 13.6 9.6 13.5 M9.55 13.45 L8.8 12.45 Q8.8 12.7 9.3 13.2 L9.55 13.45 M8.75 16.85 L8.6 16.3 8.35 15.8 8.55 15.8 8.9 16.25 8.9 15.8 9.0 15.9 9.0 16.15 8.75 16.85 M3.2 23.85 L3.1 23.8 3.1 23.95 3.2 24.0 3.5 24.1 3.4 23.95 3.4 23.9 3.2 23.85 M3.4 23.9 L3.2 23.7 Q3.2 23.65 3.35 23.6 L3.4 23.5 3.5 23.55 3.7 23.8 3.9 23.8 3.8 23.15 2.8 23.2 2.8 23.8 3.1 23.95 3.25 24.2 3.4 24.65 3.5 24.65 3.5 24.45 3.3 24.1 3.6 24.35 3.95 24.85 3.4 24.65 3.3 24.65 3.2 24.6 3.0 24.45 Q2.95 24.65 3.05 24.7 L3.3 24.95 M3.7 23.8 L3.7 24.25 3.5 24.0 3.4 23.9 M3.2 24.55 L3.2 24.6 3.4 24.65 3.2 24.55 2.95 24.4 2.45 23.9 3.2 24.55 M3.9 23.8 L4.05 24.55 4.1 24.4 4.15 24.15 4.1 23.95 4.05 23.8 3.9 23.8 M15.3 13.3 L15.05 12.75 14.45 12.25 14.55 12.75 14.6 12.75 14.65 12.65 14.65 12.75 15.0 12.75 15.0 13.0 15.15 13.05 15.2 13.2 15.3 13.3 M17.3 16.05 L17.3 15.6 17.45 15.75 17.5 15.9 17.5 15.95 17.55 16.2 17.55 16.4 17.6 16.15 17.7 16.15 17.7 16.75 17.6 16.75 17.55 16.4 17.4 17.1 17.3 17.1 17.3 17.05 17.05 17.4 17.0 17.0 16.95 16.55 16.95 16.15 Q16.95 16.05 17.1 16.05 L17.3 16.05 17.5 16.05 17.5 15.95 M17.5 16.05 L17.45 16.65 17.3 17.05 17.3 16.05 M14.6 12.75 L14.65 12.75 14.65 13.3 14.75 13.3 15.0 13.0 15.0 13.3 14.85 13.35 14.75 13.35 14.65 13.5 14.65 13.3 14.75 13.35 14.75 13.3 M10.6 13.1 L10.65 13.1 10.6 13.05 10.6 13.1 10.6 13.25 10.55 13.6 10.45 13.6 10.45 13.3 10.4 13.35 10.4 13.45 10.35 13.8 10.25 13.75 10.2 13.7 10.3 13.5 10.4 13.35 10.45 13.1 M10.65 12.8 L10.6 12.95 10.6 13.05 10.65 12.9 10.65 12.8 M10.6 13.1 L10.55 13.1 10.6 12.95 10.5 12.7 M13.35 17.65 L13.5 18.1 13.55 17.75 13.6 17.5 13.6 17.85 13.5 18.15 13.5 18.2 13.5 18.25 13.45 18.65 13.3 18.95 12.8 18.55 12.75 17.9 12.8 17.45 12.85 16.95 12.95 17.05 12.95 16.95 13.0 17.1 13.1 17.3 13.3 17.55 13.35 17.65 13.3 17.8 13.5 18.1 13.5 18.15 M13.0 17.1 L12.95 17.05 13.0 17.3 13.1 17.3 13.2 17.55 13.3 17.8 13.2 18.15 13.2 18.75 13.5 18.2 M15.45 23.95 L15.5 24.0 15.5 24.1 15.45 24.05 15.5 24.35 15.4 24.0 15.4 24.1 15.3 24.35 15.3 23.95 15.2 23.8 Q15.15 23.65 15.3 23.8 L15.3 23.55 15.4 24.0 15.45 24.05 15.45 23.95 15.4 23.95 15.4 23.9 15.45 23.95 M15.3 23.95 L15.3 23.8 15.4 24.0 15.3 23.95 M18.35 23.8 L18.25 24.75 18.2 24.85 18.0 24.55 17.95 24.55 17.9 24.5 17.9 24.45 18.1 24.05 18.1 24.4 18.2 24.3 18.35 23.8 18.35 23.7 18.45 23.7 18.55 23.05 18.55 22.85 18.65 22.6 18.65 22.3 18.65 22.5 18.65 22.6 18.75 23.15 18.7 23.7 18.65 24.2 18.55 24.2 18.55 23.05 18.65 22.6 M18.0 24.55 L17.9 24.5 M10.5 12.6 L10.5 12.35 M19.0 26.2 L19.1 26.35 19.3 26.35 19.3 26.95 19.2 26.95 19.1 26.35 19.0 26.35 19.0 26.65 18.95 27.05 18.85 27.05 18.75 26.25 19.0 26.35 19.0 26.25 19.0 26.2 M12.9 27.05 L12.9 27.0 12.85 27.0 12.85 27.05 12.9 27.05 12.9 27.15 12.95 27.25 13.0 27.15 13.05 26.95 12.9 27.0 M12.8 27.0 L12.75 26.95 12.7 27.05 12.75 27.0 12.8 27.0 12.85 27.0 12.25 26.45 12.25 26.55 12.35 26.75 12.45 26.55 12.45 26.65 12.4 26.9 12.45 26.95 12.55 26.65 12.65 26.75 12.65 27.05 12.7 27.05 M13.1 26.95 L13.2 27.15 13.25 27.05 13.2 26.85 13.1 26.85 13.05 26.95 13.1 26.95 M12.65 27.05 L12.7 27.4 12.95 27.25 13.0 27.5 13.2 27.15 13.3 27.6 13.3 27.25 13.25 27.05 13.6 26.75 13.6 27.9 13.5 28.1 13.35 27.8 13.3 27.6 13.2 27.6 13.1 28.1 M13.0 27.5 L13.0 27.6 12.8 27.95 12.75 27.55 12.75 27.5 12.55 27.95 12.45 28.1 12.45 27.6 12.6 27.3 12.45 27.05 12.4 27.05 12.3 27.15 12.3 27.25 12.35 27.35 12.4 28.1 12.3 27.75 12.25 27.3 12.1 27.65 12.05 27.7 12.05 27.75 11.9 28.05 11.85 28.0 11.75 27.85 11.6 27.4 11.6 27.35 11.8 27.75 12.2 26.95 12.25 26.65 12.25 26.55 M13.0 27.6 L12.75 27.4 12.75 27.5 12.7 27.4 12.65 27.4 12.6 27.3 12.65 27.05 12.45 27.05 12.45 26.95 12.4 27.05 12.35 27.05 12.3 27.15 12.25 27.25 12.3 27.25 M12.8 27.0 L12.9 27.15 M12.35 27.05 L12.25 27.05 12.25 26.85 12.2 26.95 12.05 27.7 M12.35 26.75 L12.4 26.9 12.35 27.05 M12.25 26.85 L12.25 26.65 M12.35 26.75 L12.25 26.85 M12.25 27.25 L12.25 27.3 M12.1 27.65 L12.25 27.25 M11.9 28.05 L11.8 27.75 11.75 27.85 M8.1 26.1 L8.05 26.15 8.1 26.15 8.1 26.1 8.05 25.9 8.0 26.15 8.05 26.15 8.0 26.25 8.0 26.15 7.8 26.1 7.8 25.9 8.0 25.9 8.0 26.1 7.8 26.1 M8.1 26.15 L8.15 26.2 8.15 26.0 8.1 26.1 M8.15 26.0 L8.15 25.7 8.25 25.7 8.25 25.9 8.15 26.2 8.15 26.35 8.1 26.15 M8.25 25.9 L8.15 26.0 M24.0 26.85 L24.0 26.65 24.1 26.65 24.1 27.15 24.3 27.5 24.3 27.6 24.45 27.25 24.45 27.15 24.35 26.7 24.0 26.25 23.8 26.7 23.8 26.75 23.9 26.75 24.05 28.0 24.1 27.35 24.1 27.3 24.05 27.15 24.0 26.95 24.0 26.85 24.05 27.1 24.1 27.15 24.1 27.25 24.1 27.3 M23.8 26.75 L23.5 27.25 23.5 27.35 23.45 27.05 23.4 26.85 23.3 26.75 23.35 27.9 M24.05 27.15 L24.05 27.1 24.0 26.95 M24.1 27.25 L24.05 27.15 M24.3 27.6 L24.25 27.75 24.45 27.25 M24.1 27.35 L24.3 27.6 M24.25 27.75 L24.15 28.0 24.1 27.35" fill="none" stroke="#000000" stroke-linecap="round" stroke-linejoin="round" stroke-width="0.05"/>
  </g>
</svg>
