<?xml version="1.0" encoding="UTF-8" standalone="no"?>
<svg xmlns:xlink="http://www.w3.org/1999/xlink" height="5.1px" width="22.25px" xmlns="http://www.w3.org/2000/svg">
  <g transform="matrix(1.0, 0.0, 0.0, 1.0, -5.3, -23.85)">
    <path d="M13.35 24.45 L13.5 24.95 13.75 25.2 14.3 25.25 14.3 25.15 14.55 24.5 14.6 24.35 14.45 24.1 13.9 23.85 Q13.35 23.85 13.35 24.45 M15.8 24.25 Q15.7 24.3 15.45 24.45 L15.25 24.5 15.1 24.3 14.7 24.1 14.65 24.3 14.6 24.35 14.7 24.5 14.55 24.5 14.5 25.1 14.45 25.6 14.55 25.6 14.7 25.1 Q14.85 24.7 15.1 24.65 L15.5 25.15 15.9 25.6 Q16.35 24.85 16.75 24.8 L17.05 25.5 17.15 25.85 17.5 25.6 Q17.5 26.1 17.65 26.4 L17.8 26.4 18.0 26.1 Q18.25 25.8 18.6 25.7 L18.75 26.4 19.0 27.2 19.0 26.4 19.05 26.2 19.1 26.2 19.0 26.4 M17.85 27.75 L17.35 28.1 17.15 28.4 17.9 28.15 17.9 27.75 17.85 27.75 M19.0 27.2 L18.7 27.25 18.35 27.3 17.1 27.4 17.2 27.45 17.4 27.6 Q17.9 27.8 17.9 27.45 L17.9 27.75 18.2 27.95 18.75 28.15 19.1 28.1 19.25 27.6 19.9 27.5 19.95 27.6 20.3 27.25 M15.8 27.2 L14.95 27.2 14.9 27.45 15.1 27.45 15.35 27.45 15.8 27.2 M14.3 25.25 Q14.1 25.6 14.2 25.7 L13.4 25.45 12.35 25.2 Q12.1 25.2 12.0 25.75 L11.85 26.25 13.0 26.55 13.1 26.55 13.15 26.55 13.4 26.65 13.9 26.5 14.3 26.4 15.1 26.1 15.5 26.35 Q15.7 26.55 16.2 26.55 L16.65 26.7 16.75 26.95 16.85 27.0 17.0 27.05 17.0 26.4 17.4 26.65 M17.4 27.05 L17.6 27.15 17.5 27.05 17.4 27.05 M16.7 27.4 L15.35 27.45 15.05 27.6 14.8 27.55 14.65 27.6 13.9 27.4 13.65 27.3 13.65 27.45 13.5 27.6 13.25 27.6 12.9 27.5 12.85 27.5 12.7 27.55 12.25 27.6 12.7 28.0 13.2 28.05 13.65 28.15 13.65 27.6 14.0 28.15 14.05 28.15 14.5 28.3 14.75 28.1 15.3 27.85 15.65 28.15 15.95 28.35 16.2 28.25 16.25 28.3 16.45 27.85 16.75 27.4 16.7 27.4 M16.75 27.4 L17.1 27.4 16.85 27.3 16.75 27.4 M16.25 28.3 Q16.35 28.3 16.5 28.45 L16.5 28.5 17.15 28.4 17.0 28.65 16.5 28.5 15.7 28.55 15.3 28.65 14.9 28.55 14.7 28.55 14.6 28.55 14.45 28.55 14.1 28.55 13.85 28.5 13.45 28.7 12.75 28.95 11.65 28.45 11.35 28.25 10.9 27.75 10.0 27.2 10.0 27.0 10.0 26.9 9.9 26.8 9.9 26.65 10.0 26.8 10.0 26.55 10.15 26.55 10.15 26.7 10.3 26.55 10.45 26.65 10.45 27.05 10.65 26.85 10.5 26.6 10.45 26.55 10.45 26.4 10.5 26.6 10.75 26.8 11.0 26.55 Q11.35 26.25 11.85 26.25 L11.75 26.4 11.85 26.9 11.9 27.05 11.85 27.1 11.75 27.2 11.85 27.25 11.9 27.3 12.2 27.25 12.45 27.25 12.5 27.25 12.3 27.05 12.35 27.0 12.7 26.95 13.1 26.8 13.15 26.8 13.1 26.65 13.3 26.65 13.15 26.55 M15.95 28.35 L16.2 28.4 16.25 28.3 M15.25 28.15 L14.85 28.5 14.9 28.55 15.4 28.55 15.7 28.55 15.8 28.45 15.95 28.35 M13.4 26.65 L13.65 26.75 13.7 26.8 13.75 26.8 13.85 26.7 13.9 26.65 13.9 26.5 M13.4 26.65 L13.3 26.65 13.65 26.75 M13.5 27.05 L13.5 27.1 13.65 27.05 13.65 26.95 13.55 26.95 Q13.45 26.95 13.4 27.05 L13.5 27.05 M13.55 26.95 L13.35 26.95 13.35 27.05 13.4 27.05 13.4 27.1 13.5 27.1 13.5 27.15 13.55 27.15 14.05 27.25 14.3 27.3 14.25 27.25 13.75 26.95 13.65 26.95 M12.5 27.25 L12.65 27.25 12.7 27.25 12.7 27.05 12.95 27.05 12.8 27.0 12.7 26.95 M13.1 27.05 L13.2 27.1 13.2 27.05 13.1 27.05 12.95 27.05 12.95 27.2 13.25 27.15 13.2 27.1 13.25 27.1 13.25 27.05 13.2 27.05 13.15 26.95 12.8 27.0 M13.25 27.05 L13.25 26.95 13.15 26.95 13.15 26.8 13.25 26.95 13.35 26.95 M13.25 27.2 L13.35 27.15 13.25 27.15 13.25 27.2 13.4 27.1 13.35 27.15 13.35 27.1 13.25 27.1 13.25 27.15 13.2 27.2 13.65 27.3 13.65 27.2 13.55 27.15 M13.05 27.2 L12.95 27.2 12.95 27.3 13.1 27.3 13.15 27.3 13.2 27.2 13.05 27.2 M13.1 27.3 L13.1 27.35 13.15 27.3 M13.1 27.35 L13.1 27.45 12.95 27.45 12.85 27.5 12.85 27.45 12.8 27.45 12.3 27.45 12.15 27.45 12.15 27.55 12.2 27.6 12.25 27.6 M12.8 27.2 L12.75 27.2 12.7 27.25 12.8 27.2 12.95 27.05 M12.85 27.45 L12.95 27.3 12.7 27.3 12.6 27.35 12.8 27.45 M12.8 27.2 L12.85 27.2 12.95 27.2 M12.7 27.25 L12.7 27.3 M12.95 27.45 L12.85 27.45 M12.95 27.45 L13.1 27.35 M13.35 27.05 L13.35 27.1 13.4 27.1 13.5 27.15 M13.35 27.05 L13.25 27.05 M14.9 27.45 L14.8 27.55 14.3 27.3 14.9 27.45 M19.0 27.2 L14.45 26.95 13.75 26.8 M11.85 26.9 L11.1 26.8 11.05 27.0 11.1 27.05 11.35 27.05 11.6 27.15 11.9 27.05 M11.05 27.0 L11.05 27.05 11.1 27.05 11.3 27.2 11.6 27.15 11.65 27.2 11.85 27.1 M10.15 26.7 L10.15 26.9 10.3 27.05 10.55 27.25 10.85 27.4 11.05 27.05 10.8 27.05 10.65 26.85 10.75 26.8 11.05 27.0 M10.9 27.75 L10.8 27.45 10.55 27.25 10.15 27.2 10.15 26.9 10.05 26.85 10.0 27.0 M12.2 27.6 L12.15 27.6 12.15 27.55 11.55 27.35 11.5 27.35 11.3 27.35 11.15 27.35 11.05 27.55 11.35 27.85 11.3 27.75 11.25 27.6 11.2 27.6 11.2 27.45 11.25 27.6 11.55 28.05 11.6 28.1 12.1 28.25 12.3 28.15 Q12.5 28.0 12.7 28.0 L13.05 28.25 13.1 28.25 13.35 28.2 14.0 28.15 14.25 28.4 14.5 28.3 14.65 28.4 14.85 28.5 14.7 28.55 M10.8 27.45 L10.9 27.45 10.85 27.4 10.8 27.45 M10.9 27.45 L11.1 27.75 11.05 27.55 10.95 27.45 10.9 27.45 M11.65 27.3 L11.75 27.2 11.65 27.2 11.65 27.3 11.9 27.3 12.05 27.35 12.05 27.3 12.2 27.3 12.2 27.25 M11.65 27.3 L11.55 27.35 11.45 27.3 11.3 27.35 M12.45 27.25 L12.2 27.3 12.15 27.4 12.3 27.45 12.6 27.35 12.5 27.25 M12.05 27.45 L12.15 27.45 12.15 27.4 12.05 27.35 12.05 27.45 M13.05 28.25 L12.55 28.25 12.1 28.25 11.9 28.25 11.6 28.1 11.35 28.0 11.35 28.25 11.35 28.15 11.35 28.0 11.25 27.95 10.9 27.75 M11.35 28.0 L11.35 27.9 11.35 27.85 M13.1 28.25 L13.85 28.5 14.2 28.4 14.25 28.4 14.45 28.55 M10.0 26.8 L10.05 26.85 10.1 26.75 10.15 26.7 M10.0 26.9 L10.0 26.8 M7.6 27.45 L7.0 28.0 6.55 28.15 6.2 28.1 6.0 27.85 5.95 28.15 5.75 28.25 5.35 27.95 5.3 27.9 5.85 27.35 6.25 27.05 6.25 27.3 6.5 27.25 6.8 27.05 M26.65 27.45 L26.85 27.8 27.05 28.25 27.35 28.15 27.55 27.6 27.3 27.6 26.65 27.45 25.95 27.3 25.55 27.4 25.15 27.6 24.5 27.6 24.5 27.0 24.2 26.95 23.95 27.0 23.8 27.2 23.8 26.95 23.7 27.45 23.7 26.4 23.55 26.35 23.35 26.25 23.25 26.25 23.15 26.3 23.15 26.85 23.0 27.3 23.0 26.75 23.0 26.65 22.75 27.05 22.75 26.8 22.9 26.5 23.0 26.35 23.0 26.25 Q23.05 25.85 23.5 25.85 23.9 25.85 24.55 26.3 L24.7 26.4 25.05 26.4 25.15 26.4 25.3 26.4 26.1 26.3 27.15 26.1 27.2 26.95 27.55 27.6 M25.55 27.85 L24.5 27.8 24.3 27.75 24.35 27.8 24.35 27.85 24.4 27.9 24.45 28.0 24.6 28.35 25.15 28.4 26.0 28.1 26.65 27.45 M23.35 26.25 L23.7 26.25 23.95 26.25 24.25 26.5 24.55 26.4 23.8 26.1 23.15 26.1 23.15 26.25 23.25 26.25 M23.8 26.95 L23.9 26.85 24.05 26.65 24.25 26.5 24.35 26.55 24.75 26.8 25.05 26.7 24.75 26.45 24.6 26.4 24.55 26.4 M23.0 26.65 L23.0 26.35 23.15 26.3 23.15 26.25 M23.15 26.3 L23.05 26.55 23.0 26.65 M23.4 27.3 L23.65 27.55 23.4 27.2 23.4 27.3 M25.15 26.45 L25.15 26.5 25.2 26.55 25.2 26.5 25.15 26.45 25.15 26.4 M25.2 26.5 L25.3 26.4 M25.2 26.55 L25.3 26.55 25.2 26.5 M25.15 26.5 L25.15 26.55 25.2 26.55 M25.1 26.65 L25.05 26.7 25.15 26.8 25.15 26.55 25.1 26.65 M24.75 26.45 L24.7 26.4 24.6 26.4 M24.75 26.45 L25.15 26.5 M23.7 26.4 L23.7 26.25 M24.3 27.75 L23.65 27.55 23.95 27.95 24.5 28.65 24.45 28.0" fill="none" stroke="#000000" stroke-linecap="round" stroke-linejoin="round" stroke-width="0.05"/>
  </g>
</svg>
