<?xml version="1.0" encoding="UTF-8" standalone="no"?>
<svg xmlns:xlink="http://www.w3.org/1999/xlink" height="20.75px" width="41.05px" xmlns="http://www.w3.org/2000/svg">
  <g transform="matrix(1.0, 0.0, 0.0, 1.0, 4.4, -6.2)">
    <path d="M27.2 6.4 L27.5 6.45 27.8 6.55 27.85 6.2 M30.2 12.65 L30.2 12.7 30.3 12.8 30.35 12.8 30.25 12.65 30.25 12.6 30.2 12.65 30.05 12.5 30.05 12.75 30.2 12.65 30.2 12.4 30.25 12.6 30.35 12.5 Q30.35 12.7 30.5 12.9 L30.8 12.85 31.0 12.7 30.95 12.35 31.05 12.6 31.1 12.4 31.1 12.8 31.1 13.05 31.1 13.2 31.1 13.35 30.95 13.3 30.95 13.5 30.2 12.9 30.2 13.2 30.05 13.2 29.95 13.2 29.9 13.35 29.9 13.2 29.75 13.2 29.75 13.15 29.65 13.05 29.6 13.05 29.6 12.6 29.6 12.5 29.75 12.65 29.75 12.7 29.75 12.8 29.9 12.8 29.9 12.75 29.9 12.35 30.0 12.45 30.05 12.2 30.05 12.5 30.0 12.45 29.9 12.75 M30.05 12.75 L30.05 13.05 30.1 13.0 30.15 12.95 30.2 12.7 30.2 12.9 30.15 12.95 M30.35 12.9 L30.45 12.9 30.35 12.8 30.35 12.9 M29.9 12.8 L30.05 12.75 M29.75 13.15 L29.65 12.9 29.6 12.6 M29.75 12.8 L29.7 12.75 29.75 12.7 29.65 12.6 29.6 12.5 M29.9 12.8 L29.9 13.2 29.95 13.2 30.05 13.05 30.05 13.2 30.1 13.0 M29.9 12.8 L29.75 13.2 M28.65 18.35 L28.75 18.75 28.65 18.75 28.5 18.25 28.55 18.3 28.65 18.35 28.65 18.65 28.65 18.75 M23.25 14.8 L23.25 15.65 23.0 15.95 23.25 15.95 23.4 15.95 23.4 16.55 23.55 16.7 23.4 16.7 23.4 16.85 23.2 16.7 23.0 16.7 23.05 16.8 23.1 16.85 23.1 16.95 23.05 16.8 22.95 16.7 22.8 16.7 22.5 16.5 22.3 16.35 22.05 16.4 22.05 15.4 22.1 15.4 22.05 15.25 22.1 15.35 22.2 15.25 22.5 15.25 22.65 15.8 22.75 16.2 22.8 16.15 22.8 15.95 23.0 15.95 23.1 14.8 23.25 14.8 M22.1 15.4 L22.1 15.35 22.45 15.85 22.45 15.9 22.6 16.1 22.7 16.2 22.75 16.2 22.9 16.4 23.0 16.35 23.0 16.3 22.8 16.25 22.8 16.15 22.85 16.1 23.0 15.95 23.0 16.3 23.05 16.35 23.25 15.95 M22.45 15.9 L22.5 16.0 22.65 16.2 22.7 16.2 M22.95 16.7 L22.65 16.2 22.35 16.35 22.3 16.35 22.2 16.25 22.35 16.35 M23.2 16.4 L23.05 16.35 23.0 16.35 23.0 16.5 23.2 16.7 23.4 16.7 23.4 16.55 23.2 16.4 M22.95 16.7 L23.0 16.7 23.0 16.5 22.9 16.4 22.8 16.4 22.75 16.2 M22.45 15.85 L22.1 15.4 M26.75 24.25 L26.85 24.85 26.9 24.95 27.55 25.4 27.8 25.55 27.95 25.35 27.9 25.65 28.2 25.75 28.25 25.35 28.7 25.8 29.05 25.6 29.65 25.9 30.25 26.5 30.3 26.55 30.25 26.55 30.25 26.5 30.0 26.45 29.75 26.6 29.35 26.65 28.9 26.35 28.35 26.0 28.3 26.05 28.15 26.15 28.1 26.4 28.1 26.2 27.5 26.55 Q27.25 26.55 27.1 26.3 L26.85 26.0 26.75 26.0 26.75 25.65 26.75 25.6 26.7 25.5 26.65 25.35 26.65 25.3 26.65 25.2 26.7 25.35 26.65 24.8 26.85 24.9 26.85 24.85 26.75 24.65 26.75 24.25 M28.65 18.65 L28.55 18.3 M31.1 12.8 L31.05 12.9 31.1 13.05 M31.05 12.6 L31.1 12.8 M30.5 12.9 L30.55 12.95 31.0 13.15 31.05 12.9 31.0 12.75 31.0 12.7 31.05 12.6 M30.55 12.95 L30.65 13.05 30.95 13.3 31.0 13.15 31.1 13.2 M30.55 12.95 L30.45 12.9 30.5 12.9 M32.5 19.45 L32.55 19.85 Q32.7 20.55 33.3 20.95 L34.05 21.3 34.15 20.65 34.1 20.35 33.8 20.25 33.05 19.7 33.55 19.65 33.15 19.5 33.8 19.45 Q34.4 19.55 34.55 20.35 L34.1 20.35 33.85 19.85 33.7 19.75 33.55 19.65 M35.0 21.25 L35.45 20.65 34.8 20.65 34.6 20.8 34.55 21.1 34.55 21.3 35.0 21.25 M35.0 23.35 Q34.8 24.1 34.4 24.1 34.1 24.1 33.85 23.55 33.6 22.95 33.75 22.35 L33.75 22.5 34.15 23.2 34.4 24.0 34.75 23.6 35.0 23.35 35.0 23.25 35.1 22.8 35.05 22.75 34.0 22.35 34.0 22.0 34.15 21.7 34.65 21.9 34.75 22.0 34.7 21.9 34.55 21.3 34.4 21.3 34.05 21.3 Q33.9 21.85 33.4 21.85 L32.7 21.55 32.1 20.8 32.55 20.15 32.55 19.85 M34.75 22.0 L35.05 22.5 35.05 22.35 34.75 22.0 M35.45 21.6 L35.1 22.8 Q35.85 23.05 36.0 23.3 L36.0 22.5 35.9 22.0 35.75 21.6 35.45 21.6 M15.4 12.65 L15.4 11.9 15.85 12.25 16.3 12.5 16.45 12.5 16.4 12.4 16.35 12.3 16.0 12.05 16.45 12.05 16.4 12.4 M0.2 12.2 L-0.35 12.35 -0.05 12.95 -0.05 12.6 0.05 13.05 0.1 13.05 0.55 13.35 0.55 13.15 0.4 12.85 0.25 12.8 0.25 12.65 0.3 12.75 0.65 12.55 0.85 12.5 0.85 12.2 0.7 12.05 0.2 12.2 M3.05 11.6 L3.05 11.55 3.0 11.3 3.15 11.3 3.05 11.6 2.5 11.9 2.45 12.45 2.35 12.9 1.65 12.7 1.55 12.6 1.35 13.1 0.85 13.65 0.6 13.15 0.55 13.35 0.55 13.95 Q0.25 13.75 0.1 13.2 L0.05 13.05 -0.05 12.95 -0.05 13.1 -0.15 13.45 M1.55 12.6 L1.35 12.45 1.1 12.55 0.6 13.15 0.55 13.15 0.55 13.05 0.4 12.85 0.3 12.75 M4.55 18.9 L4.5 18.9 4.05 18.9 4.1 19.0 4.55 19.0 4.55 18.9 4.8 19.0 5.05 19.55 5.0 19.8 4.95 19.85 Q4.5 19.75 4.2 19.3 L4.1 19.0 4.0 19.0 3.75 19.0 3.75 18.9 3.85 18.8 4.0 18.75 4.1 18.75 4.4 18.8 4.5 18.9 M4.0 19.0 L4.0 18.9 4.05 18.9 4.0 18.75 M9.35 23.2 L9.4 23.35 9.5 23.35 9.75 23.4 9.7 23.3 9.6 23.3 9.5 23.3 9.2 22.9 9.2 22.65 9.7 22.95 9.8 23.05 10.15 23.05 10.25 23.2 10.3 23.3 10.05 23.3 10.15 23.45 9.75 23.4 9.75 23.45 10.15 23.5 10.45 23.6 10.3 23.65 10.3 23.7 9.85 23.9 9.5 24.0 9.35 24.0 9.3 23.85 9.2 23.85 9.2 23.7 9.15 23.6 9.1 23.2 9.2 23.25 9.2 23.2 9.35 23.2 M9.7 23.3 L10.05 23.3 9.8 23.05 9.6 23.05 9.6 23.3 M9.5 24.0 L9.45 23.6 9.4 23.35 9.2 23.25 9.2 23.7 9.3 23.85 M1.55 12.6 L1.6 12.35 1.35 12.45 M0.65 26.65 L0.1 26.65 -0.1 26.65 -0.5 26.65 -0.4 26.8 -0.15 26.95 -0.3 26.95 -0.4 26.8 -0.65 26.65 -2.0 26.65 -2.0 26.95 -2.95 26.95 -2.95 26.65 -3.0 26.55 -3.1 26.55 -3.1 25.45 -3.1 25.35 -3.1 24.8 -2.8 24.7 -2.4 24.65 -1.55 24.7 -0.4 24.8 -0.55 25.7 -0.55 25.85 -0.55 26.1 -0.05 25.95 0.4 25.7 0.4 26.0 0.3 26.15 -0.1 26.65 -0.5 26.55 -0.5 26.65 -0.65 26.65 -0.65 26.55 -0.5 26.55 -0.55 25.85 M35.05 26.4 L35.35 26.4 35.65 26.25 36.05 26.25 36.15 26.25 36.15 26.3 36.65 26.4 36.25 26.4 35.55 26.6 35.05 26.65 M36.25 26.4 L36.05 26.4 35.35 26.4 M36.15 26.3 L36.05 26.4 M36.05 26.25 L36.15 26.3 M28.1 26.2 L28.15 26.15 28.2 26.0 28.1 26.0 28.1 26.2 M28.35 26.0 L28.55 25.9 28.2 25.75 28.2 26.0 28.35 26.0 M28.55 25.9 L28.7 25.8 29.25 26.15 30.0 26.45 M26.75 25.65 L26.8 25.9 26.85 26.0 26.8 25.75 26.8 25.65 26.7 25.4 26.7 25.5 M26.7 25.4 L26.7 25.35 26.65 25.3 M26.9 24.95 L26.85 24.9 26.9 25.65 27.1 25.9 27.55 26.4 27.9 25.65 27.8 25.55 27.55 26.0 27.05 25.2 26.9 24.95 M26.9 25.65 L26.9 25.95 26.95 26.05 27.1 26.3 M26.85 26.0 L26.9 26.0 26.9 25.95 26.8 25.65 M26.9 25.65 L26.7 25.4 M-2.4 20.65 L-3.1 20.9 -3.35 20.85 -3.5 20.65 -3.5 19.85 -3.5 19.55 -3.05 19.7 -2.8 19.55 -2.2 19.55 -2.0 19.55 -1.95 19.65 -1.9 19.9 Q-1.9 20.3 -2.4 20.65 L-2.4 20.9 Q-2.5 21.3 -2.85 21.3 L-3.9 20.9 Q-4.4 20.5 -4.4 19.95 L-4.15 19.4 -3.5 19.15 -3.15 18.95 -3.4 18.7 -3.6 18.65 -3.6 18.35 -3.5 18.3 -3.5 18.25 -3.45 18.25 -3.35 17.7 Q-3.15 17.3 -2.65 17.3 L-2.15 17.55 -1.9 17.95 M-3.5 18.35 L-3.4 18.7 -3.0 18.75 -2.95 18.7 Q-2.7 18.4 -2.4 18.5 L-2.4 18.65 -2.65 18.7 -3.0 18.75 -3.15 18.95 -2.65 19.0 -2.35 18.95 -2.15 18.75 -2.15 18.35 -2.55 18.25 -3.45 18.25 -3.5 18.35 M-3.05 19.7 L-2.75 19.85 -2.7 19.85 -2.5 20.0 -2.4 20.1 -2.2 19.55 M-2.5 20.0 L-2.4 20.5 -2.4 20.65 M-3.5 19.85 L-3.45 19.85 -3.05 19.7 M-2.5 20.0 L-2.75 19.85 -3.45 19.85 M-0.55 24.9 L-0.65 24.9 -0.55 25.4 -0.55 24.9 M-0.65 24.9 L-0.65 24.8 -0.95 24.8 -0.9 24.9 -0.65 24.9 M-0.55 25.7 L-0.55 25.6 -0.65 26.4 -0.8 26.4 -0.9 24.9 -1.65 24.9 -2.0 24.9 -1.3 25.65 -1.3 26.0 -1.2 26.1 -1.35 26.1 -1.3 26.0 -1.6 25.6 -2.0 25.05 -2.0 25.2 -2.0 25.35 -2.0 25.65 -1.7 25.9 Q-0.95 26.35 -0.95 26.4 L-1.05 26.4 -1.55 26.25 -2.0 26.25 -2.0 26.65 -2.95 26.65 -2.55 26.45 -2.0 26.25 -2.0 25.65 -2.05 25.65 -2.15 26.25 -2.45 25.8 -2.65 25.55 -2.65 25.6 -2.95 25.6 -3.1 25.45 M-0.55 25.6 L-0.55 25.4 M-1.65 24.9 L-1.35 24.8 -2.3 24.8 -2.25 24.9 -2.1 24.9 -2.0 24.9 -2.0 25.05 M-2.25 24.9 L-2.0 25.2 M-2.05 25.65 L-2.3 25.2 -2.4 25.3 -2.65 25.55 -2.8 25.35 -3.1 25.35 M-2.05 25.65 L-2.0 25.35 M-1.35 24.8 L-0.95 24.8" fill="none" stroke="#000000" stroke-linecap="round" stroke-linejoin="round" stroke-width="0.05"/>
  </g>
</svg>
