<?xml version="1.0" encoding="UTF-8" standalone="no"?>
<svg xmlns:xlink="http://www.w3.org/1999/xlink" height="24.25px" width="32.95px" xmlns="http://www.w3.org/2000/svg">
  <g transform="matrix(1.0, 0.0, 0.0, 1.0, 1.45, 0.45)">
    <path d="M8.15 2.7 L7.95 2.25 7.95 2.2 7.9 2.15 7.85 2.15 7.6 2.55 7.1 3.0 7.15 2.45 7.05 2.4 6.9 2.6 6.25 2.8 5.85 2.7 5.6 2.3 5.65 2.1 5.0 2.2 5.0 2.25 4.95 2.25 4.8 2.45 4.75 2.35 4.7 2.35 4.6 2.2 4.6 2.65 4.35 2.2 4.3 2.1 4.15 2.4 3.85 2.65 3.5 2.4 3.4 1.7 3.4 1.65 3.1 2.05 2.8 2.35 2.7 2.25 2.7 1.55 2.6 1.9 2.15 2.65 2.15 1.5 2.1 1.45 1.95 1.75 1.5 2.25 1.5 1.6 1.65 1.25 1.45 0.95 1.4 1.1 0.9 1.65 0.65 1.2 0.65 0.7 0.3 1.4 -0.15 1.95 -0.45 1.05 -0.4 0.45 -0.5 0.6 -0.5 0.15 -0.4 0.15 -0.4 0.45 -0.2 0.25 0.25 0.15 0.35 0.6 0.55 0.25 0.7 -0.05 0.85 0.3 1.1 0.6 1.3 0.5 1.3 0.45 1.1 -0.25 1.2 -0.25 1.35 0.35 1.4 0.45 1.4 0.4 1.4 -0.45 Q2.1 -0.4 2.8 0.75 L3.15 1.25 3.2 1.05 3.2 1.35 3.35 1.6 3.4 1.65 3.55 1.65 3.55 1.55 3.5 1.4 3.5 1.3 3.5 1.1 3.95 1.1 4.1 1.3 4.15 1.2 4.45 0.6 4.6 0.75 4.9 0.95 5.1 1.6 5.05 1.95 5.0 2.2 4.95 2.25 4.85 2.2 4.7 2.15 4.6 1.0 4.6 2.2 4.5 2.05 4.4 1.9 4.35 2.05 4.3 2.05 4.3 2.1 M23.8 1.6 L24.15 1.75 24.5 1.85 25.4 1.95 26.25 1.5 26.95 0.8 27.1 0.9 27.15 0.8 27.2 0.8 27.15 0.95 27.25 1.1 27.6 1.5 28.0 1.1 28.15 1.3 28.3 1.6 29.0 1.0 29.5 0.45 29.6 1.2 29.6 1.8 30.0 1.1 30.05 1.1 30.1 1.2 30.4 1.0 30.65 0.7 31.05 1.1 31.25 1.5 31.2 1.85 30.95 2.25 31.0 2.25 31.05 2.25 31.35 2.05 31.5 2.0 31.05 2.25 M31.0 2.25 L30.5 2.35 29.95 2.15 29.5 1.95 29.0 2.45 27.75 2.7 27.5 2.7 Q27.3 2.65 27.3 2.25 L27.4 1.85 27.7 1.65 28.35 1.8 29.05 1.95 29.45 1.95 29.55 1.9 29.6 1.8 29.6 1.85 29.55 1.9 29.5 1.95 29.45 1.95 29.15 1.95 29.05 1.95 M27.1 0.9 L27.15 0.95 26.95 1.15 26.55 1.8 25.9 2.65 25.4 2.15 Q25.15 2.15 24.75 2.45 L23.85 2.7 23.25 2.4 22.5 2.05 22.15 2.2 20.95 2.55 20.9 2.35 20.1 2.45 19.4 2.9 18.45 3.55 18.45 3.45 18.45 2.45 18.1 2.7 17.9 2.9 17.7 3.75 Q17.4 4.6 16.9 4.6 L16.5 4.2 16.35 4.25 16.15 4.0 16.05 3.45 16.1 3.0 15.95 3.2 15.95 3.0 15.85 2.8 15.75 2.75 15.6 2.7 15.5 2.4 15.4 2.05 Q15.15 2.05 14.85 2.3 L14.35 2.7 14.35 2.55 14.45 1.6 14.15 1.9 13.9 2.35 13.7 1.9 13.6 1.5 13.3 1.95 12.85 2.45 12.8 2.35 12.75 2.35 12.55 1.75 12.35 2.1 11.95 2.55 11.75 2.2 11.6 1.95 10.85 2.8 10.6 2.4 10.25 2.05 10.2 2.5 10.05 2.9 9.95 2.9 9.85 2.5 9.75 2.15 9.55 2.2 9.4 2.25 9.35 2.0 8.9 1.75 8.75 2.05 8.45 2.25 8.15 2.05 7.85 1.85 7.75 2.05 7.85 2.15 M24.15 1.75 L24.35 1.9 25.05 2.05 26.25 1.65 26.95 1.15 27.1 0.9 M30.2 5.5 L30.25 5.2 30.2 4.9 30.1 4.9 30.1 5.0 30.05 5.1 30.0 5.3 30.0 5.0 30.1 5.0 M30.3 5.2 L30.3 5.0 30.25 5.2 30.3 5.2 M22.5 2.05 L23.2 1.5 20.95 1.85 19.4 2.0 18.85 1.95 Q18.9 2.35 19.4 2.45 L20.0 2.45 20.1 2.45 20.75 2.05 20.9 2.35 21.35 2.25 22.4 2.05 22.5 2.05 M25.75 6.65 L25.6 6.8 25.6 6.75 25.55 6.85 25.4 7.3 25.4 7.2 25.55 6.85 25.6 6.55 25.6 6.75 25.75 6.65 25.9 6.35 26.25 7.0 26.35 7.0 26.4 6.6 26.45 6.15 26.55 6.25 Q26.6 5.85 25.9 5.7 L25.15 5.6 25.1 5.75 25.05 6.0 25.3 6.75 25.3 6.8 25.25 6.8 25.3 7.2 Q24.75 6.95 24.65 6.35 L24.75 6.35 25.0 6.65 Q25.05 6.8 25.25 6.8 L25.1 6.45 24.9 6.05 24.65 6.05 24.65 5.6 24.75 5.6 24.9 6.05 M20.95 5.75 L21.05 6.25 M24.85 19.2 L25.15 19.05 25.5 19.05 25.15 19.9 M22.45 22.9 L22.45 23.3 M28.05 18.45 L27.6 19.25 27.6 18.55 27.95 17.8 M17.9 2.9 L17.7 3.1 17.7 3.0 17.9 2.8 17.8 2.4 17.7 1.85 17.8 1.8 18.05 1.75 18.2 1.9 18.35 2.05 18.05 2.65 17.9 2.8 17.9 2.9 M16.1 3.0 L16.1 2.75 16.05 1.9 16.1 1.6 16.15 1.4 16.25 1.5 16.65 2.2 16.8 2.45 17.15 2.7 17.3 1.3 17.3 1.4 17.4 2.15 17.35 3.1 16.9 3.6 16.9 3.75 16.5 4.2 16.35 3.85 16.15 2.95 16.1 3.0 M16.1 2.75 L16.15 1.6 16.25 1.6 Q16.25 1.9 16.6 2.25 L16.8 2.45 16.95 3.05 16.9 3.6 16.65 3.65 16.55 2.35 16.45 2.35 16.25 2.8 16.15 2.95 16.1 2.75 M11.95 5.85 L12.0 5.9 12.0 5.95 12.05 5.95 11.95 5.75 11.95 5.85 12.0 5.95 M17.3 7.5 L17.15 7.3 17.2 7.2 17.3 7.45 17.3 7.5 17.35 7.5 17.4 7.6 17.5 7.6 17.5 8.05 17.4 8.05 17.35 7.5 M7.75 2.05 L7.7 2.2 7.5 2.55 7.15 2.45 7.15 2.4 7.2 2.1 7.05 2.4 6.65 2.25 6.15 2.0 Q5.8 1.75 5.75 1.3 L6.65 2.25 6.7 2.25 7.15 2.1 7.2 2.1 Q7.45 1.95 7.6 1.95 L7.75 2.05 M6.7 3.95 Q5.95 3.7 5.75 3.4 L5.85 3.4 6.5 3.85 6.7 3.95 7.05 4.1 7.25 4.0 Q7.1 3.45 6.0 3.15 L4.7 2.9 4.25 2.9 5.3 3.55 5.55 3.8 5.6 3.9 Q5.95 4.25 6.35 4.25 L6.95 4.15 6.7 3.95 M8.35 3.4 L8.75 2.9 9.1 3.3 8.35 3.4 7.95 3.45 7.75 3.65 7.6 3.75 7.5 3.95 7.3 4.1 7.3 4.15 7.25 4.15 7.15 4.25 6.4 4.6 Q6.0 4.6 5.8 4.4 L5.6 3.9 5.55 3.85 5.55 3.8 M7.25 4.15 L7.2 4.15 7.0 4.15 6.95 4.15 7.05 4.1 7.2 4.15 7.3 4.1 7.25 4.0 7.55 3.8 7.6 3.75 7.7 3.55 7.75 3.55 7.6 3.75 M7.3 4.1 L7.25 4.15 M7.3 4.1 L7.55 3.8 M4.25 1.95 L4.15 1.95 4.15 1.85 4.25 1.95 4.25 2.05 4.3 2.05 4.35 1.85 4.4 1.9 4.45 1.65 4.4 1.4 4.35 1.3 4.25 1.25 4.15 1.2 4.15 1.35 4.2 1.4 4.35 1.75 4.25 1.75 4.15 1.35 4.1 1.3 4.0 1.65 3.9 1.95 3.95 1.95 4.05 1.55 4.1 1.75 4.15 2.05 4.25 2.05 M4.6 1.0 L4.6 0.75 M2.7 1.2 L2.7 1.5 2.8 1.2 2.7 1.2 M1.7 0.05 L1.7 0.35 Q2.15 0.35 2.5 0.75 L2.8 1.2 2.95 1.5 3.15 1.25 3.2 1.35 3.2 1.85 2.95 1.5 2.85 1.55 2.7 1.55 2.7 1.5 M4.0 1.65 L3.5 1.3 3.55 1.5 3.55 1.55 M3.4 1.7 L3.45 1.75 3.6 1.8 3.6 1.75 3.55 1.65 M3.45 1.75 L3.85 2.05 3.9 1.95 3.7 1.85 3.6 1.8 M1.65 0.35 L1.45 0.4 1.4 0.4 1.5 0.7 1.5 0.8 1.4 0.45 1.3 0.5 1.45 0.95 1.7 0.6 1.7 0.4 1.7 0.35 1.65 0.35 M1.75 0.75 L1.75 0.55 1.7 0.6 1.75 0.75 1.9 1.15 2.1 1.45 2.15 1.35 2.15 1.5 2.45 1.6 2.7 1.55 M1.65 1.25 L1.7 1.05 1.7 0.95 1.7 0.6 M1.7 1.05 L1.7 1.3 1.65 1.25 M1.75 0.75 L1.7 0.95 M1.85 8.45 L2.05 8.75 1.85 8.75 1.85 8.45 1.85 7.95 1.75 8.25 1.75 8.45 1.7 8.45 1.75 8.25 M9.75 9.1 L9.7 9.4 9.7 9.75 9.85 9.6 9.85 9.1 9.75 9.1 M6.3 6.9 L6.75 7.0 6.75 7.75 6.7 7.8 6.65 7.8 6.8 8.1 6.45 8.5 5.95 8.8 5.9 8.65 5.85 8.35 5.7 7.85 5.6 7.85 5.55 7.5 5.5 7.1 5.65 7.65 5.7 7.85 6.1 7.85 6.25 7.6 6.25 7.5 6.2 7.25 6.15 7.1 5.85 7.6 5.9 7.3 5.95 7.15 5.9 7.0 5.75 7.0 5.75 6.75 5.9 7.0 5.95 7.0 5.95 6.75 6.3 6.9 M6.25 7.6 L6.2 7.85 6.65 7.85 6.65 7.8 6.2 7.05 6.15 7.0 6.15 7.1 6.05 7.05 5.95 7.0 5.95 7.15 M6.15 7.0 L5.95 7.0 M5.95 8.1 L5.85 8.35 6.05 8.35 6.2 7.95 6.2 7.85 6.1 7.85 5.95 8.1 M9.4 9.1 L9.6 9.9 9.7 9.75 M4.6 14.15 L4.8 14.75 M19.4 15.3 Q19.9 15.8 19.9 15.65 L20.1 16.15 M14.25 13.8 L14.8 13.3 15.0 12.75 14.95 12.65 14.75 12.65 Q14.35 12.65 14.15 13.3 L14.1 13.45 14.25 13.8 M11.7 13.75 L11.75 14.1 11.9 14.45 11.95 14.5 12.05 14.55 Q12.0 14.2 12.25 13.7 L11.95 12.9 12.05 13.0 12.25 13.25 Q12.25 12.85 12.55 12.65 L13.1 12.45 13.3 12.15 13.55 12.5 13.7 12.55 13.7 12.7 13.8 12.9 13.85 12.75 13.9 12.55 13.9 12.65 13.85 12.75 M13.55 12.5 L13.25 12.45 13.1 12.45 12.5 13.25 12.4 13.4 12.8 13.85 13.8 14.55 14.1 13.45 13.85 13.0 13.8 12.9 13.7 13.45 13.7 13.1 13.3 13.7 13.2 13.7 Q13.2 13.45 13.35 13.15 L13.4 12.85 13.6 12.55 13.55 12.5 M13.7 12.7 L13.7 13.1 13.8 12.9 M13.7 12.7 L13.6 12.55 13.4 13.0 13.35 13.15 M12.25 13.7 L12.35 14.05 12.3 13.85 12.3 13.6 12.25 13.7 M12.3 13.6 L12.4 13.4 12.25 13.25 12.3 13.6 M12.45 14.45 L12.45 14.35 12.35 14.05 12.45 14.45 M12.35 19.8 L12.2 20.05 12.05 20.1 12.35 20.2 12.9 20.3 13.1 20.45 13.5 21.1 13.6 20.45 M14.0 20.45 L14.65 21.6 14.75 21.4 14.75 21.1 14.75 20.95 14.6 20.75 M14.75 20.95 L15.05 21.1 M11.9 20.05 L11.95 20.1 12.05 20.1 11.9 20.05 M14.0 23.05 L13.9 22.55 Q14.35 22.7 14.45 23.05 L14.6 23.35 14.45 23.3 14.45 23.6 14.25 23.65 14.15 23.65 14.05 23.8 14.05 23.6 14.05 23.05 14.0 23.05 M14.05 23.6 L14.2 23.6 14.45 23.3 14.45 23.05 14.05 23.05 M14.05 23.6 L14.15 23.65 14.2 23.6 M19.0 19.95 L18.95 19.8 Q18.75 19.95 18.65 20.45 L18.6 20.5 19.15 20.95 19.15 20.45 19.1 20.3 19.05 20.25 19.0 20.05 19.0 19.95 19.15 20.25 19.15 20.35 19.15 20.45 19.25 20.9 19.25 20.85 19.35 20.35 19.4 19.9 19.5 19.8 19.4 20.3 19.35 20.35 19.35 20.75 19.15 21.3 19.15 20.95 M18.4 19.6 L18.45 20.0 M19.15 20.35 L19.1 20.3 M16.65 20.95 Q16.55 20.6 16.6 20.25 M-1.45 18.9 L-1.45 19.75 -1.4 20.1 -0.9 19.6 -0.9 19.7 -1.0 20.15 -0.65 19.6 -1.05 19.35 -1.2 19.15 -1.05 19.05 -0.85 19.3 -0.65 19.6 -0.85 19.15 -1.05 18.9 -1.05 18.75 -0.35 19.45 0.15 20.0 -0.45 20.3 -0.55 20.3 -0.25 20.95 -0.35 21.05 -0.6 21.05 -1.0 20.8 -1.1 20.6 -1.1 20.85 -1.2 21.85 -1.35 20.65 -1.45 20.8 -1.45 20.4 -1.45 19.75 M-1.35 20.65 L-1.4 20.2 -1.45 20.4 M-1.05 20.4 L-1.05 20.3 -1.0 20.15 -1.1 20.25 -1.15 20.4 -1.05 20.4 -0.8 20.4 -0.55 20.3 -0.9 20.1 -1.0 20.25 -1.05 20.3 M-1.15 20.4 L-1.2 20.4 -1.1 20.6 -1.05 20.4 M-1.4 20.2 L-1.4 20.1 M-1.2 20.4 L-1.35 20.65" fill="none" stroke="#000000" stroke-linecap="round" stroke-linejoin="round" stroke-width="0.05"/>
  </g>
</svg>
