<?xml version="1.0" encoding="UTF-8" standalone="no"?>
<svg xmlns:xlink="http://www.w3.org/1999/xlink" height="31.85px" width="31.95px" xmlns="http://www.w3.org/2000/svg">
  <g transform="matrix(1.0, 0.0, 0.0, 1.0, 0.5, 4.05)">
    <path d="M1.25 -3.15 L1.2 -2.7 1.4 -1.95 1.5 -1.85 1.5 -2.65 1.5 -3.05 1.45 -3.1 1.4 -3.4 1.3 -3.5 1.25 -3.15 M2.25 -2.55 L2.4 -2.25 2.25 -2.65 2.25 -2.55 M1.5 -2.65 L1.75 -2.0 2.4 -1.6 2.6 -1.7 2.55 -1.85 2.45 -1.85 2.4 -2.15 2.3 -2.3 2.05 -2.8 1.9 -2.55 1.75 -2.15 1.55 -2.75 1.5 -3.05 M2.55 -1.85 L2.55 -1.9 2.5 -2.0 2.4 -2.15 2.4 -2.25 2.5 -2.0 M2.55 -2.7 L2.65 -2.2 2.65 -1.75 2.75 -1.95 3.0 -2.8 2.95 -2.45 2.9 -1.95 3.3 -2.3 3.6 -2.8 3.7 -2.8 3.4 -2.0 3.8 -2.25 4.25 -2.25 4.6 -2.8 4.55 -2.45 4.45 -2.05 4.8 -2.2 5.1 -2.45 5.2 -2.45 4.6 -1.95 4.25 -1.6 4.15 -1.6 4.2 -1.9 4.25 -2.25 4.05 -1.95 Q3.45 -1.3 3.1 -1.2 L3.4 -2.0 3.35 -2.0 2.9 -1.95 M2.65 -1.75 L2.65 -1.55 2.6 -1.7 2.65 -1.75 M6.75 -2.8 L6.8 -2.4 6.8 -1.95 7.1 -1.95 7.2 -2.25 7.2 -1.95 7.25 -1.95 7.3 -1.85 7.55 -2.05 7.7 -2.35 7.7 -2.5 7.5 -2.05 7.5 -2.7 7.55 -2.85 7.6 -2.9 7.7 -2.8 7.7 -2.5 7.85 -3.0 7.85 -3.05 7.9 -2.55 8.15 -1.95 8.5 -2.45 8.8 -2.9 8.75 -2.65 8.75 -2.15 9.0 -2.45 9.2 -2.65 8.95 -2.25 8.75 -1.75 8.65 -1.6 9.2 -2.3 9.65 -2.9 9.7 -3.0 9.7 -2.9 9.65 -2.9 9.2 -1.4 9.2 -1.3 9.9 -2.05 10.3 -2.75 10.35 -2.9 10.35 -2.8 10.3 -2.75 10.1 -2.0 10.0 -1.55 10.55 -2.7 10.55 -2.35 10.3 -1.7 9.85 -1.1 10.0 -1.55 9.4 -0.95 Q9.6 -0.7 9.75 -0.7 10.1 -0.7 10.5 -1.3 L11.1 -2.55 11.2 -2.65 11.0 -2.1 10.85 -1.5 10.85 -1.4 11.15 -2.05 11.5 -2.9 11.6 -3.0 11.5 -2.65 11.5 -2.05 11.75 -2.1 11.95 -2.25 M9.4 -0.95 L9.1 -0.9 8.9 -0.95 8.65 -0.6 8.25 -1.35 8.05 -1.8 7.95 -1.85 7.95 -1.95 8.05 -1.8 8.6 -1.15 8.9 -0.95 8.95 -1.15 9.1 -1.6 9.2 -1.3 9.35 -1.05 9.4 -0.95 M12.35 -2.15 L13.0 -2.35 12.85 -2.35 12.5 -2.3 12.25 -2.15 12.35 -2.15 M14.8 -1.95 L16.6 -1.8 16.85 -1.75 16.85 -1.85 17.0 -2.05 16.8 -2.3 Q16.35 -2.8 15.35 -2.8 L14.45 -2.7 14.35 -2.55 14.35 -2.05 14.55 -2.7 14.65 -2.7 14.6 -2.4 14.75 -1.95 14.8 -1.95 M14.45 -2.7 L13.0 -2.35 13.55 -2.1 13.9 -1.85 14.05 -1.85 14.75 -1.95 M13.2 -1.75 L13.3 -1.6 14.15 -1.4 13.9 -1.85 13.2 -1.75 M17.3 -2.8 L17.2 -2.5 17.2 -2.35 17.3 -2.8 M17.2 -2.35 L17.2 -2.3 17.15 -2.2 17.2 -2.05 17.3 -2.55 17.2 -2.35 M16.85 -1.75 L17.0 -2.0 17.0 -2.05 17.1 -2.25 16.8 -2.3 M17.2 -2.05 L17.2 -2.0 17.3 -2.55 M17.15 -2.2 L17.15 -2.05 17.15 -1.7 17.2 -1.95 17.2 -2.0 M17.4 -2.25 L17.25 -1.8 17.2 -1.7 17.7 -1.6 17.7 -1.7 17.4 -2.15 17.4 -2.25 M17.2 -2.3 L17.15 -2.3 17.15 -2.25 17.15 -2.2 M17.15 -2.3 L17.1 -2.25 17.15 -2.25 17.0 -2.0 17.1 -1.7 17.15 -1.7 17.2 -1.7 17.15 -1.5 17.1 -1.7 16.85 -1.75 M17.7 -1.7 L17.7 -1.95 18.15 -1.95 18.65 -1.65 18.65 -1.6 18.45 -1.55 19.05 -1.3 Q19.25 -1.15 19.4 -1.1 L18.2 -0.9 17.9 -0.95 17.7 -1.3 17.7 -1.6 17.8 -1.6 17.75 -1.65 17.7 -1.7 M29.05 -2.25 L29.55 -2.7 29.65 -2.8 29.2 -2.65 27.8 -2.35 27.8 -2.25 27.6 -1.85 27.25 -1.75 26.85 -1.8 26.55 -1.9 25.55 -1.5 Q25.1 -1.5 23.65 -2.05 L23.5 -2.1 23.05 -2.05 22.95 -2.05 23.15 -2.2 21.35 -2.7 22.65 -3.0 22.5 -3.15 22.0 -3.85 21.05 -2.35 Q20.25 -1.1 19.6 -1.1 L19.45 -1.1 19.5 -1.15 20.3 -1.85 20.25 -2.8 20.15 -2.3 19.7 -1.85 19.6 -2.1 19.6 -2.4 19.6 -2.65 M17.8 -1.6 Q18.0 -1.5 18.15 -1.5 L18.45 -1.55 18.1 -1.6 17.8 -1.6 M23.9 -3.3 L22.65 -3.0 Q22.85 -2.7 23.05 -2.7 23.3 -2.7 24.2 -3.2 L24.85 -3.2 24.85 -3.3 23.9 -3.3 M24.85 -3.15 L24.85 -3.2 23.8 -2.65 23.15 -2.2 23.5 -2.1 24.0 -2.25 Q24.8 -2.6 24.95 -3.1 L24.85 -3.15 M20.3 -1.85 L20.35 -1.65 20.6 -1.95 20.75 -2.35 20.75 -2.45 20.3 -1.85 M25.35 -2.55 L25.5 -2.8 25.45 -2.55 25.4 -2.3 25.35 -2.55 25.25 -2.25 25.15 -2.35 25.1 -3.0 25.05 -2.95 25.0 -2.9 25.0 -2.85 24.95 -2.7 24.95 -2.8 25.0 -2.9 M25.1 -3.0 L25.05 -3.1 25.05 -2.95 M28.65 -4.05 Q28.2 -3.95 28.0 -3.7 27.75 -3.4 27.9 -2.9 L27.7 -2.65 27.7 -2.55 27.9 -2.65 28.4 -3.1 28.45 -3.15 28.45 -3.2 28.5 -3.2 28.6 -3.4 28.65 -3.55 28.65 -3.5 28.75 -3.65 28.7 -3.9 28.65 -4.05 M28.6 -3.4 L28.65 -3.45 28.65 -3.5 M27.7 -2.65 L27.35 -2.85 26.2 -3.0 Q26.35 -2.55 26.6 -2.45 L27.1 -2.45 27.5 -2.5 27.7 -2.65 M27.7 -2.55 L27.8 -2.35 27.0 -2.15 26.75 -2.0 26.55 -1.9 26.45 -1.95 26.35 -2.05 27.0 -2.15 27.5 -2.5 27.7 -2.55 M30.55 -3.65 L30.4 -3.3 30.35 -3.05 30.2 -2.45 30.2 -2.35 30.7 -3.15 31.15 -3.85 31.15 -3.4 Q31.1 -3.15 31.35 -3.1 L31.35 -3.15 31.45 -3.2 30.9 -2.45 30.2 -1.95 30.0 -1.95 30.0 -2.95 29.65 -2.8 30.0 -3.2 30.0 -2.95 30.4 -3.3 M28.3 -2.9 L28.25 -2.75 28.4 -3.0 28.3 -2.9 M28.4 -3.0 L28.4 -3.1 M26.65 2.2 L26.6 2.0 26.6 2.15 26.65 2.2 26.85 2.45 27.05 2.65 M26.85 2.45 L26.75 2.35 26.65 2.25 26.65 2.5 26.65 3.1 M26.65 2.5 L26.6 2.15 26.25 1.95 M26.65 2.2 L26.75 2.35 M26.15 5.4 L26.25 5.7 26.35 6.05 27.05 5.3 26.85 5.75 26.65 5.95 26.7 5.85 26.75 5.8 26.65 5.95 M20.85 1.25 L20.55 1.45 20.7 1.6 20.75 1.55 21.1 0.95 20.85 1.25 M20.25 1.5 L20.25 1.65 20.55 1.45 20.25 1.5 M20.95 2.05 L20.95 1.55 20.9 1.85 20.95 2.05 20.95 2.2 20.95 3.75 20.95 3.85 21.25 3.3 21.25 3.2 21.4 2.8 21.5 2.75 21.35 1.95 21.35 1.1 21.85 1.85 21.95 2.4 22.35 2.25 22.15 2.8 21.7 3.4 21.55 3.85 21.2 4.45 21.1 4.4 20.95 5.0 20.95 5.1 20.8 4.65 20.75 4.15 20.75 4.05 21.1 4.4 21.25 3.3 21.45 2.9 21.5 2.85 21.5 2.75 21.65 2.65 21.95 2.4 22.0 2.65 21.65 2.65 21.5 2.85 21.55 3.15 21.7 3.4 21.6 3.4 21.55 3.15 M20.95 2.2 L20.95 2.35 20.75 3.2 20.35 4.45 20.35 4.35 20.25 4.9 20.15 4.95 20.1 5.1 19.75 3.6 19.65 3.15 19.3 3.8 19.2 4.25 19.2 4.15 19.3 3.8 19.3 3.75 19.35 3.1 19.45 2.35 19.65 3.15 19.9 1.85 20.1 1.9 20.4 1.95 20.7 1.6 20.9 1.85 20.65 2.95 20.35 4.35 20.4 3.4 20.4 2.9 20.35 2.7 20.35 2.65 20.4 2.9 M22.2 10.65 L22.0 10.65 21.95 10.7 21.9 11.0 21.95 11.3 22.0 11.6 22.1 11.45 22.15 11.2 22.4 11.15 22.65 11.2 22.75 10.75 22.45 11.0 22.45 10.55 22.2 10.65 M20.45 23.7 L20.55 24.15 M29.9 18.95 L30.2 18.65 30.55 19.05 30.75 19.45 30.75 19.7 30.85 20.0 30.55 20.15 30.45 20.2 30.2 20.25 M25.8 20.15 L25.4 20.55 M28.2 20.55 L27.25 20.65 27.05 20.65 Q26.9 20.6 26.85 20.35 M25.55 19.65 L25.35 19.8 M29.7 23.4 L29.75 23.15 29.75 23.1 29.7 22.85 29.6 22.85 29.6 22.95 29.6 23.05 29.5 23.25 29.5 22.95 29.6 22.95 M29.75 23.1 L29.8 23.15 29.8 22.95 29.75 23.1 M27.6 19.7 L27.9 19.75 M30.75 19.7 L30.75 19.8 30.45 20.2 M13.1 2.15 L13.15 2.4 13.2 2.65 13.2 3.0 13.15 2.9 13.1 2.9 13.1 3.2 13.0 3.3 13.0 2.55 13.0 2.15 13.1 2.15 M13.1 2.9 L13.1 2.55 13.0 2.55 M13.9 8.25 L14.15 9.6 14.25 9.6 14.25 8.65 14.45 9.1 14.75 9.0 M8.85 4.0 L8.9 4.35 8.9 4.25 8.85 4.0 8.75 3.6 8.55 2.9 8.55 3.0 8.45 3.55 8.35 3.85 8.25 4.05 8.25 3.85 8.15 3.85 8.25 3.3 8.25 3.25 8.25 2.45 8.35 2.55 8.45 2.85 8.55 2.7 9.0 3.3 9.2 2.9 9.3 3.0 9.45 3.1 9.5 3.3 9.45 3.6 9.4 3.75 9.4 4.25 9.3 4.25 9.3 3.75 9.3 3.0 9.4 3.75 9.3 3.75 M8.25 3.3 L8.25 3.85 8.35 3.85 8.4 3.6 8.45 3.55 8.45 3.15 8.45 2.85 8.25 3.25 M2.25 2.15 L2.35 2.5 2.35 2.15 2.25 2.15 M1.5 2.45 L1.5 2.6 Q1.6 3.25 1.85 3.4 L1.85 3.0 1.95 2.85 1.95 2.8 2.05 2.8 1.8 2.6 1.5 2.45 1.5 2.3 1.45 2.6 1.5 2.45 M1.45 2.8 L1.4 3.3 1.4 3.2 1.45 2.8 1.45 2.6 M2.1 2.85 L2.15 2.9 2.15 2.8 2.1 2.8 2.1 2.85 2.05 2.8 2.1 2.8 2.15 2.55 2.15 2.8 M2.1 2.85 L1.95 3.4 2.15 3.4 2.35 2.5 M1.85 3.4 L1.95 3.4 1.85 3.45 1.85 3.4 M5.3 9.2 L5.0 9.2 5.6 10.0 5.5 9.5 M9.6 9.2 L9.55 9.8 9.4 10.45 9.4 10.35 9.35 9.9 9.2 10.55 9.2 9.3 9.3 9.6 9.35 9.9 9.35 9.75 9.3 9.6 M4.75 20.95 L5.55 21.1 Q6.65 21.4 6.8 21.9 L7.1 21.75 7.2 21.6 7.15 21.7 7.0 21.9 6.8 22.05 6.75 22.05 6.65 22.15 5.9 22.55 Q5.5 22.55 5.35 22.3 L5.05 21.75 4.8 21.45 M5.65 19.95 L6.2 20.2 6.15 20.15 Q5.65 19.9 5.3 19.25 5.35 19.7 5.65 19.95 M6.2 20.2 L6.55 20.35 6.65 20.1 6.25 20.2 6.2 20.2 M5.3 21.3 L6.2 21.9 6.0 21.75 5.4 21.3 5.3 21.3 M5.15 19.95 L5.1 20.2 Q5.1 20.5 5.4 20.65 L5.75 20.75 Q6.2 20.75 6.4 20.55 L6.55 20.35 6.65 20.35 6.65 20.1 M6.65 20.35 L6.6 20.95 6.9 20.4 6.65 20.35 M7.1 21.75 L7.15 21.7 M6.8 21.9 L6.8 22.05 7.1 21.75 M6.8 21.9 L6.55 22.0 6.75 22.05 6.5 22.1 6.45 22.05 5.85 22.2 5.1 21.75 5.05 21.75 M6.55 22.0 L6.45 22.05 6.2 21.9 6.55 22.0 M13.7 14.75 Q13.7 14.65 13.9 14.65 L13.8 14.75 13.7 14.75 M11.9 20.05 L11.5 20.45 11.25 20.15 11.1 19.9 10.35 20.75 10.15 20.35 M11.5 23.7 L11.5 23.85 11.6 23.9 11.5 23.7 M16.15 20.85 L16.15 21.6 M16.2 20.1 L15.95 19.75 15.8 19.5 M16.4 22.55 L16.0 22.15 15.9 22.2 15.7 21.9 15.75 21.3 15.9 21.8 16.0 22.15 16.25 22.0 M16.95 25.5 L17.0 25.5 17.0 26.0 16.95 26.0 16.85 25.45 16.65 25.2 16.75 25.15 16.85 25.4 16.85 25.45 16.95 25.5 M8.9 27.05 L9.1 27.8 9.2 27.7 9.25 27.35 9.3 27.05 9.4 27.05 9.4 27.5 9.2 27.7 M5.7 25.15 L5.65 25.05 5.4 25.5 5.45 25.2 5.45 25.1 5.45 24.95 5.3 24.95 5.3 24.65 5.45 24.95 5.5 24.95 5.5 24.65 5.85 24.85 6.25 24.95 6.25 25.7 6.2 25.7 6.2 25.75 6.35 26.05 5.95 26.4 5.5 26.75 5.45 26.55 5.4 26.3 5.2 25.8 5.1 25.8 5.05 25.45 5.0 25.05 5.15 25.55 5.2 25.8 5.6 25.8 5.75 25.5 5.75 25.4 5.7 25.15 M5.65 25.05 L5.55 25.0 5.5 24.95 5.5 25.0 5.5 25.2 5.45 25.1 5.5 25.0 M5.75 25.5 L5.7 25.8 6.15 25.8 6.2 25.75 5.7 25.0 5.65 24.95 5.65 25.05 M5.5 24.95 L5.65 24.95 M5.4 26.3 L5.4 26.25 5.45 26.05 5.6 25.8 5.7 25.8 5.7 25.85 5.55 26.3 5.4 26.3 M24.7 25.05 Q24.25 24.8 24.15 24.25 M-0.5 -3.3 L-0.5 -2.65 Q-0.45 -2.5 -0.3 -3.0 L-0.3 -3.2 -0.4 -3.25 -0.5 -3.3 M0.15 -3.05 L-0.1 -3.1 -0.25 -3.0 -0.3 -2.9 -0.3 -3.0 -0.25 -3.0" fill="none" stroke="#000000" stroke-linecap="round" stroke-linejoin="round" stroke-width="0.05"/>
  </g>
</svg>
