<?xml version="1.0" encoding="UTF-8" standalone="no"?>
<svg xmlns:xlink="http://www.w3.org/1999/xlink" height="12.8px" width="39.2px" xmlns="http://www.w3.org/2000/svg">
  <g transform="matrix(1.0, 0.0, 0.0, 1.0, 3.2, -14.0)">
    <path d="M26.6 15.55 L26.6 15.65 26.65 15.55 26.6 15.55 26.65 15.25 M26.6 15.65 L26.55 15.75 26.5 16.05 26.5 15.95 26.4 15.6 26.35 15.6 26.2 15.55 26.2 15.4 26.4 15.6 26.6 15.55 M20.3 17.7 L20.3 17.85 20.35 18.2 20.05 17.75 19.8 18.35 19.8 17.55 20.0 17.65 20.2 17.4 19.45 17.35 18.85 18.1 18.9 17.8 18.75 17.8 18.55 17.6 18.35 17.3 19.0 17.3 19.25 17.3 19.45 17.35 Q19.85 16.7 20.2 16.6 L20.2 17.4 20.35 17.4 20.35 17.7 20.3 17.7 20.2 17.6 20.2 17.55 20.05 17.7 20.05 17.75 M34.15 18.35 L34.15 18.95 34.25 19.15 Q34.45 19.45 34.75 19.45 L34.8 19.45 35.0 19.0 35.05 18.65 35.0 18.25 34.4 18.25 34.8 17.95 34.8 17.8 34.95 17.8 34.95 17.85 35.2 17.7 34.0 17.7 34.0 17.3 35.45 17.5 Q36.0 17.7 36.0 18.5 L36.0 18.9 35.9 19.3 35.85 19.1 35.75 19.0 35.75 18.5 35.6 18.5 Q35.45 19.35 34.8 19.45 M34.8 18.1 L35.0 18.2 34.95 17.85 34.8 17.95 34.8 18.1 M35.0 18.25 L35.0 18.2 35.05 18.25 35.0 18.25 M34.15 19.85 L34.15 18.95 M34.15 23.7 L33.8 24.05 34.1 24.3 34.15 23.6 34.15 23.7 M34.9 24.65 L34.95 24.5 35.45 24.65 35.45 24.9 35.2 24.85 34.9 24.65 34.85 24.75 34.55 25.05 34.25 24.45 34.1 24.3 34.1 24.4 33.75 25.05 33.45 25.05 33.45 24.4 33.05 24.65 33.05 24.5 Q33.15 24.4 33.2 24.4 L33.45 24.4 33.55 24.3 33.6 24.25 33.65 24.15 33.7 24.15 33.75 24.0 33.8 24.05 33.7 24.15 33.6 24.25 M33.45 24.4 L33.55 24.4 33.7 24.4 33.6 24.35 33.55 24.3 M33.7 24.4 L33.85 24.5 34.0 24.5 33.85 24.4 33.7 24.4 M7.85 14.9 L6.0 16.5 5.75 16.4 5.75 15.8 Q5.5 15.8 5.35 15.55 L5.2 15.0 4.8 14.9 4.95 14.75 5.2 14.8 Q5.25 14.45 5.6 14.35 L5.85 14.35 6.1 14.1 6.65 14.05 6.75 14.15 6.8 14.4 6.95 14.5 7.2 14.55 7.75 14.6 6.95 14.55 6.95 15.05 Q7.4 14.75 7.9 14.75 L7.9 14.9 7.85 14.9 7.1 15.05 6.95 15.1 6.7 15.55 Q6.35 15.95 5.75 15.8 L5.75 15.4 5.75 15.1 5.6 15.05 5.2 15.0 5.2 14.9 5.2 14.8 5.75 14.95 5.75 14.65 5.45 14.5 5.75 14.5 5.85 14.35 6.15 14.35 6.45 14.35 6.55 14.35 6.8 14.4 6.8 14.5 6.85 14.5 6.95 14.5 6.95 14.55 6.85 14.5 M5.75 14.65 L6.05 14.9 6.35 15.05 6.8 14.5 6.45 14.5 6.4 14.5 5.75 14.5 5.75 14.65 M5.75 15.1 L6.25 15.15 6.35 15.1 5.85 14.95 5.75 14.95 5.75 15.1 M5.75 15.4 L6.25 15.15 6.4 15.15 6.6 15.15 6.45 15.1 6.35 15.1 6.35 15.05 6.45 15.1 M6.8 14.5 L6.45 14.35 6.4 14.5 M6.6 15.15 L6.65 15.15 6.85 15.1 6.95 15.05 6.95 15.1 6.85 15.1 6.6 15.3 5.75 15.8 M18.9 17.8 L18.95 17.55 19.0 17.3 19.0 17.8 18.9 17.8 M20.0 17.65 L20.05 17.7 19.95 17.8 20.0 17.65 M1.2 26.0 L0.85 25.85 0.65 25.7 0.65 25.85 0.55 25.55 0.25 25.45 0.4 25.45 0.1 25.35 0.25 25.35 0.45 25.45 1.2 25.6 1.2 25.7 0.8 25.65 0.45 25.45 0.4 25.45 0.55 25.55 M30.4 25.7 L30.4 25.85 30.3 26.35 30.25 26.55 30.4 26.65 30.65 26.1 30.65 26.05 30.5 26.0 30.5 25.8 30.4 25.7 M30.7 26.05 L30.9 25.6 30.7 26.0 30.7 26.05 30.65 26.05 M30.4 26.65 L30.4 26.8 30.5 26.8 30.4 26.65 M29.5 25.9 L29.4 25.95 29.6 26.2 29.65 26.15 29.7 26.1 29.7 25.7 29.5 25.9 M29.4 25.95 L29.2 25.7 29.2 26.1 29.55 26.25 29.6 26.2 29.3 26.1 29.4 25.95 M29.65 26.25 L30.25 26.65 30.25 26.55 29.9 26.35 29.6 26.2 29.65 26.25 M20.2 17.55 L20.35 17.4 M20.3 17.7 L20.2 17.55 M-2.15 21.05 L-2.2 21.6 -2.1 21.6 -1.45 21.6 -1.05 21.95 -1.15 22.1 -0.95 22.1 -0.85 22.35 -0.8 22.8 -0.95 23.25 -0.95 23.7 -1.05 23.85 -1.35 23.45 -1.5 23.45 -1.75 23.65 -2.25 23.95 -2.2 24.2 -2.0 24.4 -2.15 24.4 -2.15 24.3 -2.4 24.1 -2.2 24.2 -2.15 24.3 -2.0 24.4 M-2.25 23.95 L-2.5 24.0 -2.85 24.0 -3.2 23.55 -3.0 22.7 -2.9 22.15 -3.1 22.1 -2.85 21.8 -2.8 21.45 -2.7 21.7 -2.6 21.65 -2.2 21.6 -2.2 21.7 -2.25 22.2 -2.25 22.25 -2.0 22.3 -1.95 22.3 -2.0 22.0 -1.9 22.3 -1.85 22.3 -1.75 22.1 -1.15 22.1 -1.3 22.3 -1.4 22.45 -1.25 22.5 -1.2 22.35 -1.05 22.35 -1.05 22.45 -0.95 22.65 -0.95 23.25 -1.05 23.35 -1.35 23.35 -1.35 23.45 -1.4 23.35 -1.5 23.45 -2.0 23.2 -2.25 22.8 -2.4 22.65 -2.4 22.9 -2.35 23.65 -2.25 23.95 M-2.25 22.2 L-2.7 21.7 -2.85 21.8 -2.9 22.15 -2.25 22.25 -1.9 22.65 -1.9 22.5 -1.95 22.3 -1.9 22.3 -1.85 22.4 -1.85 22.3 -1.4 22.45 -1.6 22.65 -1.75 22.65 -1.65 22.9 -1.45 23.3 -1.4 23.3 -1.4 23.35 -1.35 23.25 -1.25 22.5 -1.05 22.65 -1.35 23.25 -1.35 23.35 -1.4 23.35 -1.45 23.3 -1.8 23.2 -2.25 22.8 -2.3 22.65 -2.25 22.5 -2.4 22.65 M-2.25 22.25 L-2.25 22.5 M-1.9 22.65 L-1.75 22.65 -1.85 22.4 -1.9 22.5" fill="none" stroke="#000000" stroke-linecap="round" stroke-linejoin="round" stroke-width="0.05"/>
  </g>
</svg>
