<?xml version="1.0" encoding="UTF-8" standalone="no"?>
<svg xmlns:xlink="http://www.w3.org/1999/xlink" height="36.2px" width="30.15px" xmlns="http://www.w3.org/2000/svg">
  <g transform="matrix(1.0, 0.0, 0.0, 1.0, -0.15, 8.55)">
    <path d="M1.6 -7.0 L2.3 -6.7 2.35 -6.75 2.95 -7.3 3.55 -6.7 3.6 -6.8 3.7 -6.8 3.55 -6.7 3.65 -6.5 Q4.05 -5.65 4.45 -5.65 L5.3 -6.25 5.75 -6.55 5.65 -6.65 5.75 -6.65 5.8 -6.6 6.55 -6.8 6.6 -6.55 7.5 -6.55 7.95 -6.4 9.0 -6.55 9.1 -6.65 9.3 -6.65 9.35 -6.6 9.55 -6.6 11.15 -6.75 11.25 -6.95 10.2 -6.9 9.0 -6.8 10.45 -6.95 7.55 -7.1 5.6 -7.2 4.85 -6.9 4.05 -6.4 4.05 -6.55 4.3 -6.9 4.5 -7.15 4.05 -7.2 4.15 -7.35 4.55 -7.35 4.5 -7.15 M5.75 -6.55 L5.8 -6.6 Q6.1 -6.25 6.7 -5.95 L6.65 -6.25 6.35 -6.25 6.4 -6.4 6.45 -6.55 6.6 -6.55 6.65 -6.25 7.1 -6.25 7.95 -6.4 8.35 -6.35 8.5 -6.35 8.75 -6.45 8.75 -6.3 8.8 -6.3 9.0 -6.55 9.35 -6.6 9.4 -6.25 10.65 -6.3 11.15 -6.75 11.85 -6.8 12.05 -7.05 12.25 -7.4 12.25 -7.05 12.4 -7.1 12.85 -6.9 Q15.55 -7.25 15.95 -8.0 L16.55 -7.3 16.6 -7.25 16.85 -7.3 16.85 -7.2 17.15 -7.2 Q17.35 -7.2 18.85 -7.9 L19.4 -8.1 20.5 -8.55 21.4 -8.0 Q22.3 -7.45 22.8 -7.45 23.0 -7.45 23.0 -7.55 L22.95 -7.75 23.05 -7.45 23.05 -7.05 21.85 -7.05 20.9 -7.4 20.0 -7.6 19.85 -7.6 21.3 -6.9 21.35 -7.1 21.55 -6.75 21.9 -6.6 22.15 -6.65 22.35 -6.55 22.45 -6.55 22.45 -6.3 22.85 -6.15 23.0 -6.25 23.45 -6.75 Q24.0 -7.35 24.2 -7.35 L25.2 -7.0 25.4 -6.9 26.15 -6.7 26.45 -6.9 26.45 -6.95 26.65 -7.45 27.25 -7.3 27.75 -6.95 27.85 -7.35 28.65 -7.4 M8.7 -6.2 L8.35 -5.5 8.25 -5.3 8.8 -5.0 8.8 -5.6 8.75 -6.25 8.7 -6.2 M8.75 -6.3 L8.75 -6.25 8.8 -6.3 9.25 -6.25 9.4 -6.25 9.45 -5.45 9.6 -5.65 10.15 -6.05 10.7 -5.85 10.8 -5.75 11.4 -6.35 11.85 -6.8 11.95 -6.8 12.25 -7.05 12.2 -6.85 12.3 -6.85 12.85 -6.9 13.0 -6.6 13.1 -6.0 13.0 -5.45 13.1 -5.55 14.55 -7.2 Q14.5 -5.75 14.25 -5.5 14.5 -5.5 15.45 -6.4 L15.5 -6.4 15.5 -6.55 15.55 -6.45 16.6 -7.25 16.85 -7.2 16.9 -7.0 16.95 -6.55 16.9 -6.0 16.75 -5.4 18.1 -6.7 18.25 -6.7 18.35 -5.9 18.4 -5.6 18.55 -5.5 19.7 -5.5 19.75 -5.45 19.7 -5.9 19.7 -5.95 19.65 -6.05 19.4 -6.7 19.5 -6.65 19.75 -6.35 19.8 -6.55 19.8 -6.65 20.15 -6.15 20.15 -5.3 20.05 -5.3 20.1 -5.1 21.25 -6.45 21.25 -6.55 21.3 -6.9 21.55 -6.75 21.65 -6.5 21.9 -6.6 22.45 -6.3 22.45 -6.05 22.15 -5.5 22.45 -5.6 22.65 -5.95 22.85 -6.15 M8.5 -6.35 L8.75 -6.3 M2.3 -6.7 L2.35 -6.7 2.65 -6.5 2.85 -6.75 2.9 -6.9 2.9 -6.8 2.85 -6.75 2.75 -6.45 3.25 -6.35 3.45 -6.55 3.55 -6.65 3.55 -6.7 M2.75 -6.45 L2.65 -6.25 2.65 -5.65 3.2 -6.2 3.55 -6.65 M2.75 -6.45 L2.65 -6.5 2.2 -5.95 1.2 -5.1 1.15 -5.2 1.1 -5.2 1.1 -5.75 M1.45 -6.15 L1.85 -5.85 2.3 -6.7 M0.35 -2.25 Q0.95 -2.15 0.8 -1.65 L0.5 -1.65 0.45 -1.6 0.35 -1.65 0.25 -1.65 0.15 -1.65 0.15 -1.8 0.15 -1.85 0.15 -1.95 0.25 -1.8 0.35 -1.65 0.5 -1.65 0.65 -1.85 0.7 -1.95 0.6 -2.1 0.35 -2.25 M0.15 -1.8 L0.25 -1.65 0.25 -1.8 0.15 -1.85 M3.5 -0.05 L3.5 0.05 3.6 -0.7 3.5 -0.55 3.4 -0.35 3.5 -0.05 M9.45 -5.45 L9.45 -5.25 9.55 -4.75 10.2 -5.2 10.8 -5.75 11.1 -5.3 11.65 -6.35 11.95 -6.8 12.2 -6.85 11.9 -5.6 11.9 -5.1 Q12.8 -5.85 13.0 -6.5 L13.0 -6.6 M13.0 -5.45 L12.95 -4.95 12.95 -5.3 12.1 -4.6 11.95 -4.65 11.9 -4.7 11.9 -5.1 11.7 -4.95 10.25 -4.15 Q9.8 -4.15 9.55 -4.75 L9.45 -4.7 9.25 -4.75 9.2 -4.8 9.45 -5.45 M8.1 -5.0 L8.25 -5.3 7.55 -5.6 7.1 -5.35 7.85 -4.7 8.1 -5.0 M6.7 -5.95 L7.2 -5.75 7.55 -5.6 7.9 -5.9 8.5 -6.35 M6.7 -5.95 L6.7 -5.65 6.8 -5.6 7.1 -5.35 6.95 -5.3 6.8 -5.3 6.75 -5.4 6.7 -5.65 5.75 -6.55 M8.8 -0.6 L8.8 -0.15 8.95 0.25 9.0 0.25 9.2 0.05 9.4 0.05 9.4 0.7 9.2 0.9 9.2 1.0 9.65 0.75 9.7 0.35 9.7 0.3 9.65 0.25 9.4 -0.05 9.4 -0.5 9.1 -0.75 8.35 -1.0 7.95 -0.95 Q7.8 -0.85 7.75 -0.35 L8.25 -0.35 8.6 -0.55 8.5 -0.7 8.55 -0.7 8.6 -0.65 8.7 -0.6 8.8 -0.7 8.8 -0.6 8.7 -0.6 8.6 -0.55 8.8 -0.15 8.8 -0.1 8.75 0.25 8.95 0.25 8.95 0.3 9.0 0.25 9.1 0.25 9.1 0.7 9.2 0.9 9.1 1.0 9.0 1.0 9.1 0.7 8.95 0.3 8.75 0.55 8.75 0.25 8.15 0.25 8.05 0.4 7.85 0.6 M9.4 -0.5 L9.5 -0.5 9.6 -0.15 9.65 -0.1 9.65 -0.05 9.7 0.0 9.85 0.55 9.8 0.5 9.75 0.45 9.7 0.3 9.7 0.0 M9.6 -0.15 L9.4 -0.5 M15.5 -6.4 L15.55 -6.45 16.35 -5.55 16.65 -5.45 16.75 -5.4 17.8 -5.2 17.8 -5.25 17.9 -5.95 18.4 -5.6 18.4 -5.5 18.55 -5.5 18.9 -5.05 19.4 -4.8 Q19.25 -4.7 19.05 -4.95 L18.9 -5.05 18.45 -5.3 18.45 -5.2 18.25 -5.2 17.8 -5.2 17.5 -4.6 16.45 -5.45 16.35 -5.55 Q15.7 -5.9 15.5 -6.4 M19.7 -5.9 L19.8 -5.5 19.8 -5.45 20.05 -5.3 19.95 -5.8 19.75 -6.35 19.7 -6.25 19.7 -5.95 M13.0 -6.5 L12.95 -5.45 12.95 -5.3 13.0 -5.45 M13.6 -2.55 L13.7 -2.15 13.85 -2.4 14.0 -2.7 14.0 -2.15 14.35 -2.35 M14.65 -0.05 Q15.15 0.0 15.35 0.35 L15.7 1.0 15.8 0.55 15.75 0.3 15.4 0.05 15.3 0.05 15.4 0.2 15.3 0.1 15.3 0.05 15.2 -0.1 14.9 -0.45 14.8 -0.2 14.65 -0.05 M19.75 -5.45 L19.8 -5.4 19.8 -5.45 19.75 -5.45 M18.45 -5.3 L18.15 -5.4 18.25 -5.5 18.4 -5.5 18.45 -5.3 M20.0 -4.45 L19.85 -4.35 19.8 -4.25 20.15 -4.35 20.0 -4.45 20.35 -4.8 21.05 -5.75 21.2 -6.15 20.65 -5.55 19.9 -4.5 20.0 -4.45 M19.9 -4.5 L19.85 -4.35 19.4 -4.55 19.9 -4.5 M19.45 -3.9 L19.45 -3.95 19.5 -4.0 19.45 -3.8 19.5 -3.75 19.45 -3.75 19.45 -3.8 19.45 -3.9 19.4 -3.85 19.4 -3.75 19.3 -3.65 19.3 -3.75 19.35 -3.75 19.4 -3.85 19.4 -4.1 19.45 -3.9 M19.4 -3.75 L19.35 -3.75 19.3 -3.65 M27.5 -6.8 L27.4 -6.8 27.5 -6.35 27.5 -6.8 M28.95 -7.1 L28.5 -6.2 28.2 -5.65 28.2 -5.2 29.05 -6.45 Q29.05 -6.35 29.25 -6.35 L28.8 -5.25 28.3 -4.45 28.3 -4.55 28.2 -5.2 27.7 -4.25 Q27.0 -2.9 26.35 -2.9 L25.65 -2.95 25.5 -3.0 25.15 -2.45 24.8 -3.15 24.75 -3.6 24.45 -3.85 23.65 -4.75 23.45 -4.95 23.05 -4.15 23.05 -5.2 23.45 -4.95 23.5 -5.0 23.75 -4.85 24.45 -5.8 24.4 -5.9 23.7 -5.3 23.7 -6.1 23.15 -5.85 22.55 -5.65 22.4 -5.5 22.2 -5.05 21.85 -4.15 21.2 -3.75 Q20.95 -3.75 20.15 -4.35 L21.4 -5.2 22.15 -5.5 21.65 -4.9 21.55 -4.8 22.15 -5.3 22.4 -5.5 22.45 -5.6 22.55 -5.65 22.75 -5.9 23.4 -6.35 23.0 -6.25 M28.1 -6.7 L27.9 -6.05 27.7 -5.4 27.7 -5.5 27.55 -6.05 27.5 -6.35 27.2 -5.35 26.9 -4.5 27.6 -5.0 28.2 -5.65 28.2 -6.8 28.1 -6.7 M21.25 -6.45 L21.2 -6.15 21.5 -6.4 21.5 -6.7 21.25 -6.45 M21.5 -6.4 L21.5 -5.3 21.7 -6.15 21.65 -6.5 21.5 -6.4 M23.4 -6.35 L23.45 -6.35 23.6 -6.35 23.65 -6.35 24.0 -6.25 24.4 -6.7 24.75 -7.1 24.8 -6.65 24.8 -6.25 24.95 -6.35 24.95 -6.4 25.4 -6.9 M23.7 -6.1 L23.7 -6.25 23.65 -6.35 M24.8 -6.25 L24.8 -6.2 24.95 -6.35 M24.0 -6.25 L24.2 -6.15 24.4 -5.9 24.6 -6.05 24.8 -6.25 M24.3 -5.4 L23.75 -4.85 24.35 -4.1 24.75 -3.7 24.85 -4.3 25.15 -4.6 Q25.55 -5.05 25.7 -6.25 L25.25 -5.6 24.75 -4.9 24.75 -5.95 24.8 -6.2 24.5 -5.85 24.45 -5.8 24.45 -5.65 24.3 -5.4 M23.65 -4.75 L23.7 -4.8 23.75 -4.85 M24.75 -3.6 L25.5 -3.0 26.0 -3.95 25.15 -3.65 24.75 -3.7 24.75 -3.6 M21.55 -4.8 L20.95 -4.25 20.85 -4.15 20.75 -4.15 20.95 -4.25 M26.25 -4.75 L26.0 -3.95 26.45 -4.25 26.5 -5.55 26.5 -5.65 26.25 -4.75 M26.45 -6.9 L26.55 -5.9 26.5 -5.65 M26.45 -3.85 L26.9 -4.5 26.45 -4.25 26.45 -3.85 M29.7 -0.25 L29.9 -0.6 29.9 -0.65 30.0 -1.0 30.05 -0.8 30.1 -0.5 30.15 -0.65 30.3 -0.9 30.3 -1.65 29.6 -1.1 M24.0 -6.25 L23.7 -6.1 M26.25 1.3 L26.2 1.95 26.25 1.85 26.6 2.55 26.65 2.7 26.65 2.75 27.1 3.3 27.4 3.4 27.3 3.4 27.1 3.3 26.55 3.4 26.4 3.6 26.65 4.25 26.55 4.15 26.35 3.6 26.1 3.8 26.1 3.85 26.0 3.85 25.7 3.5 25.25 3.25 25.25 3.3 25.15 3.3 25.15 3.2 25.05 3.2 25.05 2.55 25.15 3.2 25.25 3.25 25.6 2.6 25.65 2.55 25.6 2.35 25.6 2.1 25.3 2.45 25.3 2.35 25.25 2.35 25.15 1.8 25.05 2.15 24.95 2.15 24.95 1.6 25.05 1.25 25.15 0.8 25.15 1.8 25.3 1.25 25.5 0.45 25.6 1.05 25.6 1.2 25.6 2.0 25.6 2.05 26.0 1.3 26.1 -0.05 Q26.7 0.3 26.8 0.85 L26.95 1.85 26.9 1.95 26.7 1.95 26.45 1.75 Q26.25 1.5 26.35 1.3 L26.25 1.3 M26.15 2.25 L26.1 2.65 26.15 2.55 26.2 1.95 26.15 1.95 26.15 2.25 M25.7 2.25 L25.7 2.35 25.7 2.4 25.75 2.3 25.7 2.25 M25.6 2.35 L25.7 2.35 25.6 2.05 25.6 2.1 M25.75 2.3 L25.9 1.95 25.9 2.05 25.9 2.55 26.1 3.0 26.15 3.15 26.15 2.8 26.55 3.2 26.6 2.9 26.65 2.75 M26.0 3.85 L25.9 2.85 25.7 2.4 25.65 2.55 M25.9 2.85 L25.9 2.55 25.75 2.3 M26.0 3.85 L26.1 3.8 26.15 3.35 26.15 3.2 26.1 3.1 25.9 2.85 M26.15 3.2 L26.2 3.25 26.15 3.15 26.15 3.2 M26.4 3.6 L26.35 3.6 26.2 3.25 26.4 3.6 M20.95 1.3 L20.75 1.6 20.65 2.05 20.9 1.85 21.05 1.65 21.15 1.6 21.15 1.8 21.2 1.75 21.25 1.6 21.25 2.05 21.15 1.8 21.2 1.85 21.25 2.05 M22.45 10.5 L22.25 10.35 22.4 10.45 22.45 10.5 22.55 10.65 22.45 10.65 22.45 10.5 M29.4 15.1 L29.4 15.15 29.35 15.15 29.4 15.0 29.4 15.1 29.5 14.95 29.45 14.7 29.4 14.55 29.1 14.65 M29.5 16.05 L29.95 15.95 30.25 15.9 29.8 16.35 M22.7 21.0 L22.5 21.25 22.75 21.25 22.7 21.0 23.15 20.85 22.75 21.25 M21.1 21.25 L21.15 21.5 21.1 21.3 21.1 21.25 M20.6 22.45 L20.65 22.75 M27.05 20.55 L27.35 20.75 27.35 20.6 27.4 20.75 27.4 20.8 27.6 21.05 27.8 21.25 M27.4 20.75 L27.35 20.75 27.4 21.1 27.4 20.85 27.5 20.95 27.4 20.8 M27.5 20.95 L27.6 21.05 M26.95 24.0 L27.0 24.3 M27.4 21.1 L27.4 21.7 M15.7 -0.15 L15.75 0.3 15.85 0.4 16.0 0.55 16.05 0.05 16.05 0.0 16.1 0.45 16.15 0.75 16.25 1.1 16.15 1.0 16.15 0.75 16.0 0.55 15.85 0.9 15.85 0.85 15.8 0.8 15.8 1.0 15.7 1.0 15.7 1.2 15.4 0.9 15.0 0.55 14.75 0.9 14.65 0.9 14.6 0.65 M15.8 0.8 L15.8 0.65 15.8 0.55 M10.55 8.05 L10.65 7.95 10.65 7.85 10.55 8.05 M10.65 7.95 L10.7 7.95 10.65 7.85 10.55 7.7 10.35 8.05 10.25 8.45 M10.65 7.95 L10.7 8.05 10.75 8.35 10.85 8.35 10.7 7.95 M18.55 6.65 L18.55 6.05 M5.65 4.5 L5.6 3.85 5.5 4.15 5.55 3.9 5.6 3.65 5.6 3.85 5.65 3.4 M1.95 15.9 L2.0 15.45 2.05 15.1 2.15 15.2 2.0 15.45 M2.55 21.2 L2.9 21.35 3.05 21.0 3.0 20.75 3.1 20.75 3.1 21.1 2.9 21.35 M2.25 20.55 L2.25 21.0 M3.05 21.0 L3.1 21.1 M18.65 17.65 L18.95 17.7 Q19.7 17.7 20.05 17.4 L19.8 17.3 19.2 17.05 18.95 17.1 18.85 17.1 19.2 17.05 19.4 17.0 19.4 16.95 18.95 16.65 M19.95 22.85 L20.1 22.55 M14.65 26.85 L14.8 27.65" fill="none" stroke="#000000" stroke-linecap="round" stroke-linejoin="round" stroke-width="0.05"/>
  </g>
</svg>
