<?xml version="1.0" encoding="UTF-8" standalone="no"?>
<svg xmlns:xlink="http://www.w3.org/1999/xlink" height="160.8px" width="118.95px" xmlns="http://www.w3.org/2000/svg">
  <g transform="matrix(1.0, 0.0, 0.0, 1.0, 0.0, 0.0)">
    <path d="M71.6 41.7 Q68.6 39.85 64.25 38.65 60.2 37.55 55.7 37.25 50.75 36.95 49.25 40.4 48.5 42.1 48.7 43.9 L50.9 82.55 Q51.15 85.95 55.25 85.95 L56.95 85.75 Q71.0 82.75 77.15 77.05 83.45 71.15 82.65 61.25 81.6 47.75 71.6 41.7 M98.75 11.25 Q107.5 17.35 112.65 28.6 117.65 39.45 118.75 53.8 120.8 80.15 101.15 97.6 92.5 105.3 82.25 110.35 71.0 115.9 58.9 117.7 L57.25 118.4 Q55.6 119.65 55.6 122.6 L57.5 154.5 15.55 160.8 0.0 1.7 3.0 1.45 37.05 0.0 Q45.3 0.0 51.65 0.35 85.5 2.1 98.75 11.25" fill="#ff0000" fill-rule="evenodd" stroke="none"/>
  </g>
</svg>
