<?xml version="1.0" encoding="UTF-8" standalone="no"?>
<svg xmlns:xlink="http://www.w3.org/1999/xlink" height="5.5px" width="30.25px" xmlns="http://www.w3.org/2000/svg">
  <g transform="matrix(1.0, 0.0, 0.0, 1.0, -1.25, -22.35)">
    <path d="M6.65 27.1 L6.8 27.05 7.35 27.1 7.7 27.45 8.55 27.45 8.55 27.6 7.9 27.6 7.7 27.45 6.8 27.45 5.9 27.4 5.8 27.4 5.45 27.75 5.55 27.75 5.6 27.85 4.9 27.55 4.3 27.75 3.45 27.55 3.3 27.45 3.2 27.45 3.15 27.45 1.6 27.45 1.25 27.55 1.5 27.2 Q1.65 26.95 1.85 26.95 L2.15 26.95 2.55 26.6 2.8 26.05 3.3 26.0 3.35 25.85 3.95 26.0 4.2 26.05 4.65 26.5 4.8 26.55 5.3 26.45 5.6 26.25 6.55 27.1 6.65 27.1 6.65 27.05 6.6 26.85 6.55 26.65 6.65 26.65 7.1 26.85 7.55 26.95 8.55 26.65 Q8.55 26.25 8.7 26.25 L9.2 26.25 9.6 26.1 10.95 25.65 11.55 25.0 10.7 24.9 11.75 24.35 Q12.35 23.95 12.3 23.6 L11.75 23.7 11.75 23.55 12.3 23.55 12.3 23.6 12.7 23.25 12.65 23.15 12.6 23.15 13.1 22.8 13.45 22.5 14.1 22.35 Q14.4 22.35 15.05 22.9 L15.75 23.45 15.9 23.55 16.05 23.65 16.2 23.7 16.05 23.7 16.05 23.65 M13.65 23.05 L13.25 23.55 13.15 23.35 13.05 23.5 12.95 23.7 12.95 23.55 13.05 23.5 13.1 23.3 13.15 23.35 13.65 22.9 13.65 23.05 M13.35 24.45 L13.5 24.95 13.75 25.2 14.3 25.25 14.3 25.15 14.55 24.5 14.6 24.35 14.45 24.1 13.9 23.85 Q13.35 23.85 13.35 24.45 M15.75 23.45 L15.65 23.45 15.65 23.55 15.8 24.0 15.5 23.6 15.25 23.3 Q15.05 23.3 14.95 23.4 L14.85 23.55 15.05 23.9 15.5 24.45 15.8 24.25 M15.5 24.45 L15.45 24.45 15.25 24.5 15.1 24.3 14.7 24.1 14.65 24.3 14.6 24.35 14.7 24.5 14.55 24.5 14.5 25.1 14.45 25.6 14.55 25.6 14.7 25.1 Q14.85 24.7 15.1 24.65 L15.5 25.15 15.9 25.6 Q16.35 24.85 16.75 24.8 L17.05 25.5 17.15 25.85 17.5 25.6 Q17.5 26.1 17.65 26.4 L17.8 26.4 18.0 26.1 Q18.25 25.8 18.6 25.7 L18.75 26.4 19.0 27.2 19.0 26.4 19.05 26.2 19.1 26.2 19.0 26.4 M19.0 27.2 L14.45 26.95 13.75 26.8 13.7 26.8 13.65 26.75 13.3 26.65 13.1 26.65 13.15 26.8 13.25 26.95 13.35 26.95 13.55 26.95 13.65 26.95 13.75 26.95 14.25 27.25 14.3 27.3 14.9 27.45 14.95 27.2 15.8 27.2 15.35 27.45 16.7 27.4 18.35 27.3 18.7 27.25 19.0 27.2 M19.8 27.35 L19.95 27.6 20.3 27.25 M17.4 26.65 L17.0 26.4 17.0 27.05 16.85 27.0 16.75 26.95 16.65 26.7 16.2 26.55 Q15.7 26.55 15.5 26.35 L15.1 26.1 14.3 26.4 13.9 26.5 13.9 26.65 13.85 26.7 13.75 26.8 M17.5 27.05 L17.4 27.05 17.6 27.15 17.5 27.05 M14.3 25.25 Q14.1 25.6 14.2 25.7 L13.4 25.45 12.35 25.2 Q12.1 25.2 12.0 25.75 L11.85 26.25 13.0 26.55 13.1 26.55 13.15 26.55 13.4 26.65 13.9 26.5 M13.65 26.75 L13.4 26.65 13.3 26.65 13.15 26.55 M13.35 26.95 L13.35 27.05 13.4 27.05 Q13.45 26.95 13.55 26.95 M13.4 27.05 L13.5 27.05 13.5 27.1 13.65 27.05 13.65 26.95 M12.8 27.0 L12.7 26.95 12.35 27.0 12.3 27.05 12.5 27.25 12.65 27.25 12.7 27.25 12.7 27.05 12.95 27.05 12.8 27.0 13.15 26.95 13.15 26.8 13.1 26.8 12.7 26.95 M13.2 27.05 L13.2 27.1 13.25 27.1 13.25 27.05 13.2 27.05 13.15 26.95 13.25 26.95 13.25 27.05 13.35 27.05 13.35 27.1 13.4 27.1 13.4 27.05 M13.2 27.05 L13.1 27.05 13.2 27.1 13.25 27.15 13.25 27.1 13.35 27.1 13.35 27.15 13.4 27.1 13.5 27.1 13.5 27.15 13.55 27.15 14.05 27.25 14.3 27.3 14.8 27.55 14.9 27.45 15.1 27.45 15.35 27.45 15.05 27.6 14.8 27.55 14.65 27.6 13.9 27.4 13.65 27.3 13.65 27.45 13.5 27.6 13.25 27.6 12.9 27.5 12.85 27.5 12.7 27.55 12.15 27.6 12.15 27.45 12.05 27.45 12.05 27.35 11.9 27.3 11.65 27.3 11.65 27.2 11.6 27.15 11.3 27.2 11.1 27.05 11.05 27.05 10.8 27.45 10.3 27.05 10.05 26.85 10.0 27.0 10.0 26.9 9.9 26.8 9.9 26.65 10.05 26.85 10.1 26.75 10.3 26.55 10.45 26.65 10.45 27.05 10.65 26.85 10.5 26.6 10.45 26.55 10.45 26.4 10.5 26.6 10.75 26.8 11.0 26.55 Q11.35 26.25 11.85 26.25 L11.75 26.4 11.85 26.9 11.9 27.05 11.85 27.1 11.75 27.2 11.85 27.25 11.9 27.3 12.2 27.25 12.45 27.25 12.5 27.25 12.6 27.35 12.7 27.3 12.7 27.25 12.75 27.2 12.8 27.2 12.95 27.05 13.1 27.05 M13.5 27.15 L13.4 27.1 13.25 27.2 13.25 27.15 13.2 27.2 13.65 27.3 13.65 27.2 13.55 27.15 M13.05 27.2 L12.95 27.2 12.95 27.3 13.1 27.3 13.15 27.3 13.2 27.2 13.05 27.2 M13.15 27.3 L13.1 27.35 13.1 27.45 12.95 27.45 12.85 27.5 12.85 27.45 12.8 27.45 12.3 27.45 12.15 27.45 12.15 27.4 12.05 27.35 12.05 27.3 12.2 27.3 12.2 27.25 M12.95 27.3 L12.85 27.45 12.95 27.45 13.1 27.35 13.1 27.3 M12.75 27.2 L12.75 27.25 12.7 27.25 M12.7 27.3 L12.95 27.3 M12.8 27.2 L12.95 27.2 12.95 27.05 M12.95 27.2 L13.25 27.15 13.35 27.15 13.25 27.2 M11.75 25.05 L11.75 24.9 11.65 24.8 11.55 25.0 11.75 25.05 M11.85 26.9 L11.1 26.8 11.05 27.0 11.1 27.05 11.35 27.05 11.6 27.15 11.9 27.05 M11.05 27.05 L10.8 27.05 10.65 26.85 10.75 26.8 11.05 27.0 11.05 27.05 M11.65 27.2 L11.85 27.1 M11.65 27.3 L11.75 27.2 11.65 27.2 M12.15 27.4 L12.2 27.3 12.45 27.25 M12.3 27.45 L12.15 27.4 M12.8 27.45 L12.6 27.35 12.3 27.45 M5.8 27.4 L5.65 27.4 5.3 27.4 5.0 27.5 4.95 27.5 5.45 27.75 M6.8 27.45 L6.8 27.05 6.65 27.15 6.5 27.25 6.25 27.3 6.25 27.2 6.0 27.25 5.85 27.35 5.8 27.4 M6.0 27.25 L5.65 27.3 4.9 27.05 4.25 26.8 3.5 26.95 3.2 27.1 3.85 27.2 3.9 27.25 4.2 27.2 4.75 27.35 5.0 27.4 5.3 27.4 M6.25 27.2 L6.25 27.05 6.0 27.25 M6.55 27.1 L6.65 27.15 6.65 27.1 M6.25 27.2 L6.55 27.1 M3.95 26.0 L4.2 26.2 4.65 26.5 4.65 26.55 4.1 26.35 3.65 26.1 3.25 26.25 3.2 27.05 3.2 27.1 3.2 27.3 3.65 27.3 3.75 27.3 3.9 27.25 4.3 27.35 4.75 27.35 4.85 27.45 4.95 27.5 4.9 27.55 4.3 27.35 3.75 27.3 M3.3 26.0 L3.55 26.0 3.95 26.0 M2.55 26.6 L2.85 26.4 3.25 26.25 3.3 26.0 M3.2 27.1 L2.9 27.2 3.05 27.25 3.2 27.3 3.2 27.45 M3.05 27.3 L3.05 27.25 2.0 27.2 1.95 27.2 1.6 27.45 1.85 27.4 2.5 27.3 3.15 27.45 3.05 27.3 M3.3 27.45 L3.35 27.45 3.65 27.3 M2.15 26.95 L2.45 26.95 2.5 26.8 2.55 26.6 M2.15 26.95 L1.85 27.2 1.95 27.2 2.15 27.1 2.45 26.95 3.2 27.05 M29.85 26.65 L29.7 26.65 28.65 26.55 27.7 26.55 27.65 26.55 27.45 26.55 Q27.3 27.05 27.55 27.15 L28.05 27.2 28.1 27.2 27.85 26.8 28.75 26.95 28.9 26.8 29.05 27.0 29.05 27.05 29.2 27.05 29.2 27.2 29.05 27.05 28.75 26.95 28.75 27.05 28.5 27.2 28.15 27.2 28.1 27.2 27.35 27.35 27.55 27.6 27.3 27.6 26.65 27.45 26.45 27.4 25.95 27.3 25.55 27.4 25.15 27.6 24.5 27.6 24.5 27.0 24.2 26.95 23.95 27.0 23.8 27.2 23.8 26.95 23.7 27.45 23.7 26.4 23.55 26.35 23.35 26.25 23.25 26.25 23.15 26.3 23.15 26.4 23.15 26.85 23.0 27.3 23.0 26.75 23.0 26.65 22.75 27.05 22.75 26.8 22.9 26.5 22.95 26.4 22.2 26.4 22.8 26.1 23.4 25.85 23.75 25.85 24.25 26.1 24.3 26.1 24.75 26.1 24.95 26.1 26.3 26.3 26.7 26.25 27.3 25.8 28.1 25.6 28.55 25.65 29.05 25.7 29.25 26.25 29.35 26.35 Q29.5 26.4 29.65 26.55 L29.85 26.65 30.4 26.8 30.65 26.75 30.7 26.65 31.05 26.55 31.35 26.6 31.45 26.55 31.5 26.65 31.4 26.6 31.35 26.6 31.2 26.7 30.8 26.65 30.85 26.8 30.9 26.9 31.05 26.95 30.9 26.95 30.9 26.9 30.85 26.85 30.65 26.75 M28.15 27.2 L28.45 27.1 28.75 26.95 M29.35 26.35 L29.7 26.65 M27.7 26.55 L28.25 26.4 28.85 26.25 29.35 26.35 M26.7 26.25 L27.15 26.1 27.15 26.45 27.65 26.55 M26.45 27.4 L27.35 27.35 27.2 26.95 27.15 26.45 26.45 26.35 26.3 26.3 26.1 26.3 25.3 26.4 25.2 26.5 25.3 26.55 25.2 26.55 25.15 26.55 25.15 26.8 25.05 26.7 24.75 26.8 24.35 26.55 24.25 26.5 24.05 26.65 23.9 26.85 23.8 26.95 M24.75 26.1 L24.7 26.15 24.65 26.25 24.3 26.1 M23.4 25.85 Q23.05 25.9 23.0 26.25 L23.0 26.35 23.05 26.35 23.15 26.25 23.15 26.1 23.8 26.1 23.85 26.15 24.25 26.1 24.0 26.0 Q23.85 25.85 23.75 25.85 M23.35 26.25 L23.7 26.25 23.95 26.25 24.25 26.5 24.55 26.4 23.85 26.15 23.15 26.25 23.25 26.25 M23.15 26.3 L23.1 26.4 23.15 26.4 M23.0 26.45 L23.0 26.65 23.05 26.55 23.1 26.4 23.0 26.4 23.0 26.45 22.95 26.5 23.0 26.65 M22.95 26.4 L23.0 26.35 23.0 26.4 22.95 26.4 M23.05 26.35 L23.15 26.3 23.15 26.25 M25.2 26.55 L25.15 26.5 25.15 26.55 25.1 26.65 25.05 26.7 24.75 26.45 24.6 26.4 24.55 26.4 M25.3 26.4 L25.15 26.4 25.15 26.45 25.2 26.5 25.2 26.55 M25.15 26.4 L25.05 26.4 24.7 26.4 24.75 26.45 25.15 26.5 25.15 26.45 M24.6 26.4 L24.7 26.4 24.55 26.3 24.25 26.1 M23.7 26.4 L23.7 26.25" fill="none" stroke="#000000" stroke-linecap="round" stroke-linejoin="round" stroke-width="0.05"/>
  </g>
</svg>
