<?xml version="1.0" encoding="UTF-8" standalone="no"?>
<svg xmlns:xlink="http://www.w3.org/1999/xlink" height="6.45px" width="23.8px" xmlns="http://www.w3.org/2000/svg">
  <g transform="matrix(1.0, 0.0, 0.0, 1.0, -3.2, 12.2)">
    <path d="M7.8 -11.05 L7.5 -11.0 6.8 -10.7 6.8 -10.85 7.35 -11.0 7.5 -11.0 8.0 -11.5 8.15 -11.65 7.8 -11.05 7.6 -10.7 6.95 -9.65 6.95 -9.5 8.0 -10.65 Q9.25 -11.75 9.9 -11.75 L9.9 -11.35 11.85 -11.55 12.15 -11.65 12.2 -11.6 14.05 -11.75 13.25 -11.2 Q12.65 -10.85 12.45 -10.85 L12.35 -10.95 12.3 -11.0 12.3 -11.35 12.2 -11.6 11.85 -11.55 Q11.45 -11.45 10.95 -10.95 L10.6 -10.7 10.95 -10.6 12.7 -10.55 13.4 -10.25 Q13.85 -9.9 14.25 -9.9 L14.8 -10.05 14.2 -10.45 13.35 -10.85 13.35 -11.0 Q13.55 -10.9 14.6 -10.5 L14.5 -10.65 14.05 -11.5 14.7 -11.35 Q14.95 -11.15 15.25 -11.1 L16.5 -11.1 Q17.2 -11.05 17.4 -10.55 L17.2 -10.45 17.15 -10.45 Q16.85 -10.45 16.6 -10.7 16.35 -11.0 16.1 -11.0 15.8 -11.0 15.25 -10.45 L15.1 -10.25 15.35 -10.15 Q16.6 -9.65 17.7 -9.65 L19.05 -9.75 19.4 -9.8 20.6 -9.9 20.75 -9.9 20.5 -10.3 20.35 -10.7 19.4 -10.65 18.95 -10.6 19.15 -10.15 18.45 -10.15 17.65 -10.55 17.8 -10.55 18.95 -10.6 18.9 -10.65 Q18.5 -10.85 18.35 -11.0 L18.35 -11.25 19.4 -11.0 20.35 -10.7 20.35 -10.9 20.4 -11.35 20.6 -11.75 20.95 -11.3 21.05 -11.0 22.4 -11.15 22.7 -11.3 23.2 -11.35 23.5 -11.3 24.2 -11.35 24.55 -11.35 24.75 -11.25 24.65 -11.15 24.65 -11.1 24.35 -10.9 24.65 -10.85 Q24.8 -10.85 25.0 -11.0 L25.35 -11.1 26.05 -10.9 26.45 -10.7 26.75 -10.95 27.0 -11.15 M9.2 -11.25 L9.9 -10.9 9.9 -11.35 9.2 -11.25 M9.9 -10.35 L10.15 -10.3 10.6 -10.7 Q10.25 -10.75 9.9 -10.9 L9.9 -10.35 M6.4 -10.55 L6.05 -11.15 5.75 -11.5 5.55 -11.05 5.35 -10.55 5.25 -10.7 5.2 -10.7 5.15 -11.15 5.05 -11.65 4.7 -11.2 4.65 -11.2 4.65 -10.55 4.55 -10.3 4.4 -10.3 4.4 -10.95 4.25 -10.85 4.25 -11.45 4.05 -10.9 Q3.9 -10.3 3.55 -10.3 L3.25 -10.4 M6.8 -6.8 L7.1 -6.55 7.15 -6.95 7.2 -7.25 7.2 -5.9 M7.5 -6.15 L7.6 -6.4 7.5 -6.4 7.6 -7.1 7.7 -6.7 7.9 -6.7 7.9 -6.6 8.0 -6.4 8.0 -5.75 7.75 -6.55 7.7 -6.7 7.6 -6.7 7.6 -6.5 7.6 -6.4 M7.6 -7.1 L7.6 -6.7 M4.4 -10.95 L4.4 -11.6 4.3 -11.6 4.25 -11.45 4.25 -11.55 3.75 -11.45 3.45 -11.35 3.75 -11.0 M4.3 -11.6 L4.25 -11.55 4.15 -12.2 3.5 -11.95 M4.4 -10.95 L4.65 -11.2 4.65 -11.65 4.4 -11.6 4.4 -11.75 4.3 -11.6 M3.45 -11.35 L3.2 -11.25 M14.9 -10.1 L15.1 -10.25 14.6 -10.5 14.9 -10.1 15.1 -9.9 15.1 -9.75 14.8 -10.05 14.9 -10.1 M24.35 -10.9 L23.95 -11.1 23.5 -11.3 22.5 -11.15 22.4 -11.15 22.35 -11.1 22.7 -10.7 23.0 -10.05 22.1 -10.35 21.1 -10.85 21.15 -10.7 20.4 -10.7 20.8 -10.55 22.8 -9.9 Q23.3 -9.9 23.8 -10.45 L24.25 -10.85 24.35 -10.9 M21.1 -10.85 L20.9 -11.0 21.05 -11.0 21.1 -10.85 M20.35 -10.7 L20.4 -10.7 M21.4 -5.9 L21.55 -6.55 21.8 -6.55 22.2 -6.15 22.2 -6.25 22.15 -6.35 22.15 -6.4 22.0 -6.6 21.95 -6.8 22.15 -6.4 22.2 -6.3 22.2 -6.25 22.6 -5.9 22.6 -6.45 22.5 -6.7 22.6 -6.7 22.6 -6.45" fill="none" stroke="#000000" stroke-linecap="round" stroke-linejoin="round" stroke-width="0.05"/>
  </g>
</svg>
