<?xml version="1.0" encoding="UTF-8" standalone="no"?>
<svg xmlns:xlink="http://www.w3.org/1999/xlink" height="8.55px" width="42.05px" xmlns="http://www.w3.org/2000/svg">
  <g transform="matrix(1.0, 0.0, 0.0, 1.0, -0.4, -15.55)">
    <path d="M41.05 22.3 L41.3 22.1 Q41.6 21.9 41.75 21.85 L41.65 22.2 41.05 22.3 40.85 22.5 40.85 22.35 41.0 21.75 41.15 21.35 40.4 21.85 40.4 20.9 41.2 21.2 41.25 21.15 41.25 21.2 41.6 21.4 Q42.45 21.9 42.45 22.35 L42.25 22.95 42.05 23.3 41.75 22.65 41.6 22.8 41.4 23.45 40.9 23.7 Q40.6 23.7 40.4 23.4 40.2 23.05 40.15 22.35 M41.15 21.35 L41.25 21.3 41.25 21.2 41.2 21.2 41.15 21.35 M29.3 15.8 L28.95 15.8 28.9 15.8 28.7 15.8 28.65 15.7 28.5 15.55 28.9 15.8 29.05 15.7 29.45 15.7 29.3 15.8 M21.05 18.35 L21.0 18.35 21.0 18.55 20.85 18.65 20.85 18.25 21.05 18.35 21.15 18.25 21.25 18.55 21.05 18.35 M24.8 20.75 L25.3 20.9 M28.5 22.8 L28.1 22.95 27.95 23.05 28.5 23.05 28.9 23.2 28.9 23.6 28.75 23.6 28.9 24.1 28.2 23.8 27.55 23.3 27.7 23.2 27.7 23.05 27.95 23.05 27.7 23.2 27.75 23.3 27.85 23.3 28.5 23.35 28.65 23.45 28.75 23.6 28.65 23.65 28.25 23.7 Q28.45 23.45 28.6 23.45 L28.65 23.45 M32.85 18.0 L33.05 18.1 33.0 17.85 Q32.9 17.55 32.25 17.55 L32.25 17.7 Q32.5 17.7 32.8 17.95 L32.8 17.8 32.85 18.0 32.8 17.95 33.05 18.65 33.05 18.4 32.85 18.0 M32.2 17.7 L31.85 18.1 31.7 18.7 31.7 19.0 32.0 18.75 32.35 18.75 32.25 18.65 32.25 17.7 32.2 17.7 M33.05 18.4 L33.15 18.6 33.7 19.55 33.85 19.25 33.2 18.25 33.05 18.1 33.05 18.4 M33.6 18.25 L34.05 18.0 34.45 17.95 35.05 18.05 35.6 18.25 35.15 19.4 Q34.75 20.0 34.0 20.0 L34.05 19.5 34.15 19.05 34.0 19.05 33.85 19.25 33.85 19.7 33.7 19.6 33.7 19.55 33.35 20.1 33.3 20.15 33.3 20.9 M33.05 18.7 L32.8 19.6 32.3 20.2 32.25 20.75 32.3 20.85 32.6 20.9 33.3 20.15 33.05 18.65 33.05 18.7 M32.65 19.15 L31.75 19.15 31.75 19.35 32.25 20.25 32.3 20.2 32.45 19.65 32.65 19.2 32.65 19.15 32.5 19.0 32.35 18.75 32.65 18.75 32.65 18.85 32.8 18.9 32.65 19.15 32.95 19.15 32.85 19.4 32.8 19.45 32.65 19.2 M31.7 19.0 L31.75 19.15 31.6 19.15 31.7 19.0 M6.25 18.25 L5.2 18.25 5.1 18.15 5.05 17.9 Q5.05 17.5 5.45 17.4 L5.95 17.4 Q6.35 17.4 6.55 17.7 L6.55 17.4 6.6 17.6 6.7 17.5 7.35 17.4 7.35 18.1 7.35 18.35 6.85 19.5 7.15 19.55 7.25 19.45 7.75 19.05 7.85 19.05 7.35 19.55 7.35 19.6 7.1 19.85 7.0 19.95 6.75 20.1 6.65 20.1 6.6 19.95 6.55 19.75 6.5 19.45 5.85 19.45 5.85 19.2 5.6 19.7 5.3 19.25 5.2 18.75 5.95 18.6 6.0 18.5 6.0 18.6 6.2 18.55 6.25 18.55 6.25 18.25 6.55 17.7 6.6 17.6 6.8 17.8 7.35 18.1 6.65 18.45 6.65 18.65 6.55 18.9 6.55 19.45 6.85 19.5 6.65 20.0 7.15 19.55 7.35 19.6 7.0 19.95 M6.65 18.45 L6.65 18.25 6.55 17.7 6.55 18.25 6.55 18.5 6.65 18.45 M6.25 18.55 L6.25 19.05 6.4 19.05 6.4 19.0 6.4 18.65 6.45 18.7 6.55 18.5 6.25 18.55 M6.25 18.25 L6.55 18.25 M1.35 19.85 Q1.2 19.85 1.2 20.0 L0.8 20.0 0.8 20.5 1.2 20.9 1.55 20.35 1.6 19.6 1.75 19.6 1.6 18.9 Q1.15 18.75 0.85 19.3 L0.55 20.0 0.8 20.0 0.8 19.45 1.2 19.45 1.3 19.65 1.35 19.85 M2.4 19.85 L1.95 19.65 1.75 19.6 1.8 19.75 2.0 20.3 1.95 20.7 1.85 20.9 1.2 20.9 1.05 20.9 0.65 20.8 0.55 20.15 0.55 20.0 0.4 20.0 0.4 19.7 0.4 19.3 0.8 18.65 0.8 18.75 0.75 18.85 0.55 19.45 0.4 19.7 0.75 18.85 M6.4 19.0 L6.55 18.9 6.55 18.75 6.45 18.7 M6.4 19.0 L6.45 19.25 6.5 19.45 6.55 19.45 6.55 19.75 M5.9 19.1 L6.0 18.6 5.95 18.6 5.85 19.2 5.9 19.1 M6.25 23.05 L6.25 23.3 6.45 23.45 7.15 23.7 7.75 23.3 6.8 23.05 Q6.25 22.95 5.85 22.65 L5.8 23.05 5.6 23.3 5.5 23.2 5.2 23.05 5.55 23.35 5.6 23.35 6.0 23.45 6.25 23.4 6.25 23.3 6.0 23.05 6.25 23.05 M5.2 23.05 Q5.2 23.45 5.35 23.7 L5.45 23.8 5.6 23.85 5.6 23.65 5.55 23.35 M13.25 17.4 L13.1 17.55 13.05 17.95 12.95 18.45 13.0 18.75 13.35 19.15 13.65 19.3 13.65 19.15 13.7 19.3 13.75 19.2 13.7 19.1 13.65 18.65 13.65 18.5 13.8 18.85 13.9 18.95 13.8 18.5 13.25 17.4 M14.2 18.9 L14.2 19.3 14.2 19.55 14.45 19.6 M14.2 19.55 L13.9 19.45 14.2 19.7 14.2 19.55 M13.9 19.0 L13.9 18.95 13.75 19.2 13.85 19.35 13.9 19.3 13.9 19.0 14.2 19.3 13.9 19.3 13.9 19.35 13.9 19.45 13.8 19.4 13.75 19.45 13.75 19.85 13.75 20.0 13.85 19.75 13.9 19.45 13.85 19.4 13.8 19.4 13.75 19.35 13.75 19.45 13.55 19.65 13.5 19.65 13.35 20.0 13.25 20.0 13.5 19.65 13.7 19.35 13.65 19.3 13.7 19.3 13.75 19.35 13.85 19.4 13.85 19.35 13.9 19.45 M13.75 19.35 L13.7 19.35 13.7 19.3" fill="none" stroke="#000000" stroke-linecap="round" stroke-linejoin="round" stroke-width="0.05"/>
  </g>
</svg>
