<?xml version="1.0" encoding="UTF-8" standalone="no"?>
<svg xmlns:xlink="http://www.w3.org/1999/xlink" height="6.45px" width="18.2px" xmlns="http://www.w3.org/2000/svg">
  <g transform="matrix(1.0, 0.0, 0.0, 1.0, -8.9, 15.8)">
    <path d="M12.3 -15.25 L11.7 -15.15 11.65 -14.7 11.85 -14.7 12.2 -15.0 12.55 -15.25 12.3 -15.25 M8.9 -15.55 L9.15 -15.3 9.55 -15.0 9.8 -14.8 10.05 -14.6 10.3 -14.6 10.4 -15.0 10.45 -15.4 10.05 -15.1 9.4 -15.1 9.4 -15.4 9.85 -15.45 10.4 -15.5 10.95 -15.15 10.95 -15.25 11.4 -15.15 11.75 -15.25 11.7 -15.15 11.15 -15.0 11.55 -14.6 11.85 -14.7 12.4 -14.55 12.85 -14.35 12.85 -15.1 12.75 -15.15 12.55 -15.25 12.85 -15.5 12.85 -15.1 13.25 -14.7 13.6 -14.95 13.9 -15.1 13.65 -14.65 13.25 -14.25 13.1 -14.15 13.8 -14.15 14.25 -14.1 14.45 -13.4 Q14.85 -13.45 15.35 -14.35 L15.55 -14.6 14.85 -15.0 14.7 -15.1 15.3 -14.95 15.8 -14.85 16.45 -15.1 16.7 -15.05 16.75 -15.0 16.8 -15.05 17.65 -15.25 18.0 -14.7 18.3 -14.3 19.05 -14.6 19.4 -14.35 19.65 -14.15 19.8 -14.3 19.8 -14.6 19.75 -14.75 19.55 -14.7 19.1 -14.75 18.45 -15.1 19.4 -15.05 19.35 -15.1 19.25 -15.15 19.1 -15.25 19.15 -15.25 19.25 -15.15 M10.95 -15.15 L10.95 -15.1 11.05 -15.1 10.95 -15.15 M11.15 -15.0 L11.1 -15.0 11.1 -15.05 11.05 -15.1 M11.15 -15.0 L11.1 -15.05 M13.8 -14.15 L13.75 -14.15 13.35 -14.1 13.1 -14.05 13.1 -14.15 12.85 -14.15 12.85 -14.35 13.1 -14.3 13.25 -14.25 M16.75 -15.0 L16.85 -14.85 16.85 -14.15 15.95 -14.45 15.55 -14.6 15.8 -14.85 15.9 -14.85 16.75 -15.0 M26.15 -14.15 L25.85 -14.15 25.95 -14.35 26.0 -14.65 25.85 -14.95 25.85 -15.0 25.55 -15.1 25.5 -14.9 25.4 -14.7 25.1 -14.8 24.75 -14.85 24.5 -14.7 24.1 -14.6 23.7 -14.85 23.05 -15.1 22.7 -15.0 22.45 -14.85 22.5 -14.85 22.15 -14.45 21.8 -14.15 Q21.3 -14.15 20.2 -14.7 L19.95 -14.8 19.9 -14.8 19.75 -14.75 19.7 -14.8 19.5 -14.95 19.4 -15.05 20.05 -14.85 19.95 -14.8 19.5 -14.95 M15.7 -9.85 L15.85 -9.55 16.1 -9.35 16.1 -9.85 16.05 -9.8 15.95 -9.65 15.95 -10.0 16.1 -10.0 16.1 -9.85 M22.0 -15.5 L21.7 -15.5 21.7 -15.8 25.3 -15.8 M22.45 -14.85 L22.35 -14.85 21.55 -15.0 21.45 -15.0 21.4 -15.0 20.6 -15.1 20.5 -15.25 21.3 -15.05 21.4 -15.0 M21.55 -15.0 L21.65 -15.0 22.45 -14.85 M26.65 -15.7 L26.95 -15.8 27.1 -15.8 26.9 -15.65 26.65 -15.7 26.45 -15.55 26.4 -15.3 26.5 -15.4 26.65 -15.25 26.7 -15.15 26.75 -15.15 26.95 -15.4 26.95 -15.25 Q26.95 -15.1 26.7 -15.1 L26.7 -15.05 26.55 -15.1 26.4 -15.1 26.25 -15.1 26.25 -15.2 25.75 -15.4 25.75 -15.25 25.85 -15.0 M26.7 -15.1 L26.65 -15.1 26.55 -15.1 M26.7 -15.15 L26.7 -15.1 26.75 -15.15 26.95 -15.25 M26.4 -15.3 L26.4 -15.2 26.55 -15.15 26.7 -15.15 M26.4 -15.2 L26.4 -15.1 26.55 -15.15 26.65 -15.1 M26.25 -15.2 L26.25 -15.25 26.4 -15.3 M26.4 -15.2 L26.25 -15.2" fill="none" stroke="#000000" stroke-linecap="round" stroke-linejoin="round" stroke-width="0.05"/>
  </g>
</svg>
