<?xml version="1.0" encoding="UTF-8" standalone="no"?>
<svg xmlns:xlink="http://www.w3.org/1999/xlink" height="14.85px" width="14.6px" xmlns="http://www.w3.org/2000/svg">
  <g transform="matrix(1.0, 0.0, 0.0, 1.0, -13.15, 20.2)">
    <path d="M15.0 -18.75 L14.65 -18.45 14.4 -18.85 14.0 -18.9 13.8 -19.15 13.75 -19.25 13.6 -19.3 Q13.3 -19.4 13.15 -19.55 L13.3 -19.55 Q13.3 -19.4 13.65 -19.4 L13.6 -19.5 13.7 -19.5 13.7 -19.4 13.65 -19.4 13.75 -19.25 14.1 -19.15 14.35 -18.9 14.4 -18.85 14.45 -18.85 15.0 -18.75 15.05 -18.85 15.25 -19.2 15.0 -19.15 14.7 -19.35 14.55 -19.5 15.0 -19.35 15.25 -19.2 15.3 -19.25 15.55 -19.45 Q15.9 -19.8 16.1 -19.8 L16.1 -19.65 15.95 -19.15 16.3 -19.15 17.0 -19.8 17.6 -19.25 17.7 -19.25 18.1 -19.25 18.0 -19.2 17.95 -19.0 18.15 -19.0 18.4 -19.1 18.35 -19.25 19.05 -18.8 19.4 -18.6 20.1 -18.45 20.15 -18.65 20.1 -18.85 20.1 -19.0 20.25 -18.8 20.5 -18.75 20.75 -18.85 21.05 -19.0 20.05 -19.1 19.4 -19.15 20.5 -19.25 21.05 -19.0 Q21.3 -18.75 21.5 -18.75 21.8 -18.75 22.1 -19.05 L22.15 -19.15 22.1 -19.2 21.85 -19.0 21.85 -19.4 21.7 -19.55 21.75 -19.6 21.85 -19.65 21.85 -19.4 22.1 -19.2 22.25 -19.45 22.55 -20.05 22.65 -19.65 22.95 -19.55 22.95 -19.0 Q23.8 -19.2 23.6 -19.8 23.9 -19.2 24.45 -19.05 L25.45 -19.0 26.4 -19.3 26.9 -19.75 26.8 -19.8 26.75 -19.8 26.5 -19.75 25.75 -19.55 25.75 -19.8 26.5 -19.75 M17.95 -19.0 L17.1 -19.0 16.35 -18.45 16.0 -18.9 15.95 -19.0 15.65 -19.15 15.6 -19.15 15.25 -19.2 M15.65 -19.15 L15.3 -19.25 M15.95 -19.15 L15.95 -19.0 17.1 -19.0 17.6 -19.25 17.65 -19.15 17.95 -19.0 M15.95 -19.15 L15.65 -19.15 M18.65 -19.4 L19.3 -19.4 19.4 -19.35 18.65 -19.25 18.65 -19.4 M17.9 -6.5 L17.85 -6.4 17.75 -6.15 17.9 -6.45 17.9 -6.5 17.95 -6.7 17.9 -6.45 18.0 -6.45 18.1 -6.5 18.1 -6.15 18.25 -6.05 18.25 -6.0 18.1 -5.85 18.1 -6.15 18.05 -6.15 Q17.85 -6.15 17.8 -6.0 L17.7 -5.85 17.45 -5.35 17.45 -5.7 17.4 -5.65 17.15 -5.6 17.15 -6.0 Q17.5 -5.9 17.7 -6.1 L17.75 -6.15 17.7 -5.85 M17.85 -6.4 L17.85 -6.55 17.9 -6.5 M27.35 -19.55 L27.45 -19.45 27.45 -19.55 27.35 -19.55 M27.45 -19.55 L27.75 -19.55 27.75 -19.65 27.4 -19.7 27.45 -19.55 M27.2 -20.2 L27.0 -19.95 26.9 -19.8 27.2 -19.75 27.25 -19.75 27.3 -19.7 27.4 -19.7 M26.9 -19.75 L26.9 -19.8 26.8 -19.8 M26.75 -19.8 L27.0 -19.95 M26.9 -19.75 L27.2 -19.75 M22.4 -19.65 L22.15 -19.15 22.3 -19.1 Q22.7 -18.85 22.95 -18.85 L22.95 -19.0 22.7 -19.5 22.65 -19.65 22.4 -19.65" fill="none" stroke="#000000" stroke-linecap="round" stroke-linejoin="round" stroke-width="0.05"/>
  </g>
</svg>
