<?xml version="1.0" encoding="UTF-8" standalone="no"?>
<svg xmlns:xlink="http://www.w3.org/1999/xlink" height="58.4px" width="193.6px" xmlns="http://www.w3.org/2000/svg">
  <g transform="matrix(1.0, 0.0, 0.0, 1.0, 5.9, 7.5)">
    <path d="M180.85 8.1 Q187.7 15.0 187.7 24.65 187.7 34.3 180.85 41.15 173.95 48.0 164.3 48.0 L37.95 48.0 Q28.3 48.0 21.45 41.15 14.6 34.3 14.6 24.65 14.6 15.0 21.4 8.1 L21.45 8.05 Q28.3 1.25 37.95 1.25 L164.3 1.25 Q173.95 1.25 180.85 8.1" fill="#ffffff" fill-rule="evenodd" stroke="none"/>
    <path d="M178.7 10.2 Q184.7 16.2 184.7 24.65 184.7 33.05 178.75 39.0 L178.7 39.05 Q172.75 45.05 164.3 45.05 L37.95 45.05 Q29.55 45.05 23.55 39.0 17.55 33.05 17.55 24.65 17.55 16.2 23.55 10.2 29.55 4.25 37.95 4.25 L164.3 4.25 Q172.75 4.25 178.7 10.2" fill="#663311" fill-rule="evenodd" stroke="none"/>
    <path d="M164.5 5.85 Q172.3 5.85 177.8 11.35 183.4 16.95 183.4 24.75 183.4 32.55 177.8 38.1 172.3 43.65 164.5 43.65 L38.15 43.65 Q30.3 43.65 24.75 38.1 19.2 32.55 19.2 24.75 19.2 16.95 24.75 11.35 30.3 5.85 38.15 5.85 L164.5 5.85" fill="url(#gradient0)" fill-rule="evenodd" stroke="none"/>
    <path d="M164.55 5.65 Q172.35 5.65 177.9 11.2 183.45 16.75 183.45 24.55 L183.45 25.0 19.3 25.0 19.3 24.55 Q19.3 16.75 24.8 11.2 30.4 5.65 38.2 5.65 L164.55 5.65" fill="url(#gradient1)" fill-rule="evenodd" stroke="none"/>
    <path d="M13.5 -3.2 Q20.95 0.4 30.25 -0.95 L35.2 25.75 Q35.3 28.45 34.75 31.15 L32.9 36.1 26.45 44.25 25.15 45.45 22.25 46.9 22.1 46.9 18.75 46.55 Q5.85 41.7 2.65 31.55 L-1.9 4.8 -1.75 4.8 -1.75 4.7 1.3 3.95 9.25 0.2 11.2 -1.35 13.05 -3.15 13.0 -3.45 13.3 -3.3 13.35 -3.5 13.5 -3.2" fill="#fef081" fill-rule="evenodd" stroke="none"/>
    <path d="M13.5 -3.2 L13.35 -3.5 13.3 -3.3 13.0 -3.45 13.05 -3.15 11.2 -1.35 9.25 0.2 1.3 3.95 -1.75 4.7 -1.75 4.8 -1.9 4.8 2.65 31.55 Q5.85 41.7 18.75 46.55 L22.1 46.9 22.25 46.9 25.15 45.45 26.45 44.25 32.9 36.1 34.75 31.15 Q35.3 28.45 35.2 25.75 L30.25 -0.95 Q20.95 0.4 13.5 -3.2 Z" fill="none" stroke="#ffffff" stroke-linecap="round" stroke-linejoin="round" stroke-width="8.0"/>
    <path d="M12.75 -3.15 L12.7 -3.45 12.9 -3.25 13.05 -3.5 13.1 -3.2 Q20.55 0.45 29.85 -0.85 L34.8 25.8 Q35.3 36.35 24.8 45.3 L21.8 46.9 18.45 46.5 Q5.5 41.65 2.3 31.55 L-2.2 4.8 Q6.95 2.9 12.75 -3.15 M21.25 44.25 L21.25 44.35 21.35 44.25 21.25 44.25" fill="#000000" fill-rule="evenodd" stroke="none"/>
    <path d="M12.75 -3.15 Q6.95 2.9 -2.2 4.8 L2.3 31.55 Q5.5 41.65 18.45 46.5 L21.8 46.9 24.8 45.3 Q35.3 36.35 34.8 25.8 L29.85 -0.85 Q20.55 0.45 13.1 -3.2 L13.05 -3.5 12.9 -3.25 12.7 -3.45 12.75 -3.15 Z" fill="none" stroke="#5e3700" stroke-linecap="round" stroke-linejoin="round" stroke-width="3.0"/>
    <path d="M12.9 -3.15 L12.8 -3.45 13.05 -3.4 13.15 -3.5 13.25 -3.2 Q20.7 0.35 29.95 -0.95 L34.9 25.65 Q35.35 36.3 24.9 45.3 L21.9 46.85 18.5 46.45 Q5.6 41.55 2.45 31.4 L-2.15 4.7 Q7.0 2.8 12.9 -3.15 M13.25 -1.05 L13.3 -0.75 Q8.95 2.95 2.95 4.7 L2.2 4.95 Q2.6 6.85 0.3 7.55 L4.15 30.9 Q7.3 40.55 20.15 45.1 L21.6 45.2 22.9 44.55 Q33.5 35.95 33.05 25.8 L28.85 3.2 28.65 2.55 Q26.3 2.6 25.95 0.75 L25.2 0.8 Q18.7 1.15 13.25 -1.05" fill="#fff8bb" fill-rule="evenodd" stroke="none"/>
    <path d="M13.25 -1.05 Q18.7 1.15 25.2 0.8 L25.95 0.75 Q26.3 2.6 28.65 2.55 L28.85 3.2 33.05 25.8 Q33.5 35.95 22.9 44.55 L21.6 45.2 20.15 45.1 Q7.3 40.55 4.15 30.9 L0.3 7.55 Q2.6 6.85 2.2 4.95 L2.95 4.7 Q8.95 2.95 13.3 -0.75 L13.25 -1.05 M24.25 2.95 Q17.55 3.25 13.8 2.1 L13.8 2.25 Q10.6 4.5 4.6 6.4 4.65 8.4 3.0 9.35 L6.3 28.4 Q8.2 36.65 15.4 40.35 L21.1 42.6 25.8 38.5 Q31.4 32.05 30.2 24.2 L26.65 5.2 Q24.95 4.85 24.25 2.95 M3.45 5.6 L3.25 5.65 3.1 5.7 3.45 5.6 M25.3 1.7 L25.1 1.8 25.45 1.8 25.3 1.7 M21.4 44.25 L21.45 44.2 21.4 44.2 21.4 44.25 M22.45 43.8 L22.7 43.6 22.15 43.95 22.45 43.8" fill="#ce9717" fill-rule="evenodd" stroke="none"/>
    <path d="M24.25 2.95 Q24.95 4.85 26.65 5.2 L30.2 24.2 Q31.4 32.05 25.8 38.5 L21.1 42.6 15.4 40.35 Q8.2 36.65 6.3 28.4 L3.0 9.35 Q4.65 8.4 4.6 6.4 10.6 4.5 13.8 2.25 L13.8 2.1 Q17.55 3.25 24.25 2.95" fill="#ffe16f" fill-rule="evenodd" stroke="none"/>
    <path d="M25.3 1.7 L25.45 1.8 25.1 1.8 25.3 1.7 M3.45 5.6 L3.1 5.7 3.25 5.65 3.45 5.6 M22.45 43.8 L22.15 43.95 22.7 43.6 22.45 43.8" fill="#a58d8d" fill-rule="evenodd" stroke="none"/>
    <path d="M22.1 3.05 L24.3 2.95 Q25.05 4.85 26.8 5.2 L30.25 24.25 Q31.5 32.1 25.85 38.6 L21.2 42.75 18.35 41.65 22.9 37.45 Q28.5 31.0 27.35 23.15 L23.85 4.05 Q22.8 3.85 22.1 3.05" fill="#ecbd02" fill-rule="evenodd" stroke="none"/>
    <path d="M26.8 5.35 Q20.85 5.6 17.35 4.5 L17.4 4.7 Q14.15 6.95 8.2 8.8 8.25 10.75 6.6 11.75 L9.85 30.85 Q11.25 36.8 15.5 40.4 L15.45 40.45 Q8.25 36.7 6.35 28.5 L3.1 9.4 Q4.7 8.45 4.6 6.5 10.65 4.6 13.9 2.35 L13.9 2.15 Q17.65 3.35 24.25 2.95 24.95 4.85 26.75 5.2 L26.8 5.35" fill="#ffffff" fill-rule="evenodd" stroke="none"/>
    <path d="M30.6 10.9 L31.6 16.75 2.7 21.9 1.7 16.05 30.6 10.9" fill="#ce9717" fill-rule="evenodd" stroke="none"/>
    <path d="M30.05 11.75 L30.75 15.55 3.2 20.4 2.5 16.6 30.05 11.75" fill="#ff9c09" fill-rule="evenodd" stroke="none"/>
    <path d="M17.2 1.9 L24.15 41.25 21.85 45.15 18.3 42.3 11.35 2.95 13.8 -0.9 17.2 1.9" fill="#ce9717" fill-rule="evenodd" stroke="none"/>
    <path d="M16.25 3.0 L22.95 40.5 21.6 43.75 19.1 41.2 12.4 3.7 14.0 0.7 16.25 3.0" fill="#ff9c09" fill-rule="evenodd" stroke="none"/>
    <path d="M19.0 28.95 Q17.3 19.8 9.55 17.65 15.9 14.8 15.35 7.6 17.8 15.0 23.85 14.65 17.55 19.5 19.0 28.95" fill="#ffffff" fill-rule="evenodd" stroke="none"/>
    <path d="M17.9 22.35 Q17.05 17.9 13.25 16.8 16.35 15.4 16.15 11.9 17.3 15.55 20.3 15.3 17.15 17.75 17.9 22.35" fill="#ffd944" fill-rule="evenodd" stroke="none"/>
  </g>
  <defs>
    <linearGradient gradientTransform="matrix(1.0E-4, 0.0231, -0.0231, 1.0E-4, 101.3, 24.75)" gradientUnits="userSpaceOnUse" id="gradient0" spreadMethod="pad" x1="-819.2" x2="819.2">
      <stop offset="0.0" stop-color="#ff3c9d"/>
      <stop offset="0.7137254901960784" stop-color="#ff8855"/>
      <stop offset="0.9333333333333333" stop-color="#fdb5a4"/>
    </linearGradient>
    <linearGradient gradientTransform="matrix(1.0E-4, 0.0177, -0.0231, 1.0E-4, 100.15, 14.5)" gradientUnits="userSpaceOnUse" id="gradient1" spreadMethod="pad" x1="-819.2" x2="819.2">
      <stop offset="0.0" stop-color="#ffffff"/>
      <stop offset="1.0" stop-color="#ffffff" stop-opacity="0.0"/>
    </linearGradient>
  </defs>
</svg>
