<?xml version="1.0" encoding="UTF-8" standalone="no"?>
<svg xmlns:xlink="http://www.w3.org/1999/xlink" height="13.8px" width="6.55px" xmlns="http://www.w3.org/2000/svg">
  <g transform="matrix(1.0, 0.0, 0.0, 1.0, 3.55, -0.15)">
    <path d="M1.15 3.65 L2.9 6.6 Q3.1 6.95 2.9 7.3 L2.25 7.85 1.15 9.7 2.9 12.65 Q3.1 13.0 2.9 13.35 L2.25 13.9 1.25 13.9 Q0.75 13.75 0.55 13.4 L-0.3 12.05 -1.1 13.4 -1.8 13.9 -2.8 13.9 -3.45 13.35 Q-3.65 13.0 -3.45 12.65 L-1.7 9.7 -2.8 7.85 -3.45 7.3 Q-3.65 6.95 -3.45 6.6 L-1.7 3.6 -2.95 1.55 -2.95 0.85 -2.3 0.3 Q-1.8 0.15 -1.25 0.3 -0.75 0.45 -0.55 0.8 L-0.3 1.25 0.0 0.8 0.7 0.3 Q1.25 0.15 1.75 0.3 L2.4 0.85 2.4 1.55 1.15 3.65 M0.0 6.85 L0.15 6.65 -0.3 5.95 -0.7 6.65 -0.55 6.85 -0.3 7.3 0.0 6.85" fill="#0c100f" fill-rule="evenodd" stroke="none"/>
    <path d="M2.15 0.8 L2.15 1.5 0.9 3.55 2.65 6.55 Q2.85 6.9 2.65 7.25 L2.0 7.8 0.9 9.65 2.65 12.6 Q2.85 12.95 2.65 13.3 L2.0 13.85 1.0 13.85 Q0.5 13.7 0.3 13.35 L-0.4 12.2 -0.4 7.05 -0.25 6.8 -0.1 6.6 -0.4 6.1 -0.4 1.0 -0.25 0.75 0.45 0.25 Q1.0 0.1 1.5 0.25 2.0 0.4 2.15 0.8" fill="#4f5b56" fill-rule="evenodd" stroke="none"/>
  </g>
</svg>
