<?xml version="1.0" encoding="UTF-8" standalone="no"?>
<svg xmlns:xlink="http://www.w3.org/1999/xlink" height="160.1px" width="116.4px" xmlns="http://www.w3.org/2000/svg">
  <g transform="matrix(1.0, 0.0, 0.0, 1.0, 0.0, 0.0)">
    <path d="M69.8 43.55 Q63.9 39.5 54.1 38.4 49.2 37.85 47.5 41.25 46.65 42.9 46.8 44.7 L46.85 83.55 Q46.9 87.05 51.55 87.05 L53.15 86.9 Q67.35 84.55 73.75 79.1 80.3 73.5 80.0 63.6 79.55 50.1 69.8 43.55 M98.25 14.35 Q106.7 20.85 111.4 32.3 115.9 43.35 116.35 57.7 117.2 84.15 96.8 100.7 87.85 108.05 77.4 112.65 65.9 117.7 53.75 118.9 L52.05 119.5 Q50.35 120.7 50.2 123.65 L50.6 155.6 8.5 160.1 0.0 0.3 3.35 0.25 19.9 0.0 51.7 1.35 Q85.45 4.65 98.25 14.35" fill="#ff0000" fill-rule="evenodd" stroke="none"/>
  </g>
</svg>
