<?xml version="1.0" encoding="UTF-8" standalone="no"?>
<svg xmlns:xlink="http://www.w3.org/1999/xlink" height="42.25px" width="7.1px" xmlns="http://www.w3.org/2000/svg">
  <g transform="matrix(1.0, 0.0, 0.0, 1.0, 3.35, 0.0)">
    <path d="M0.1 3.3 L-0.4 4.1 -0.25 4.3 0.1 4.85 0.5 4.3 0.65 4.1 0.1 3.3 M3.2 4.8 L3.1 5.05 1.65 7.25 3.45 10.1 3.5 10.8 3.0 11.25 1.65 13.3 3.45 16.15 3.5 16.85 3.1 17.25 1.65 19.45 3.45 22.3 3.5 23.0 3.1 23.4 3.1 23.45 1.65 25.65 3.45 28.5 3.5 29.2 3.2 29.55 3.25 29.65 Q3.45 30.0 3.25 30.35 L1.8 32.6 3.6 35.4 Q3.85 35.75 3.65 36.1 L2.9 36.65 2.7 36.7 1.8 38.05 3.6 40.9 Q3.85 41.25 3.65 41.6 L2.9 42.15 1.85 42.15 Q1.3 42.0 1.05 41.65 L0.25 40.45 -0.5 41.65 -1.3 42.15 -2.35 42.15 -3.1 41.6 Q-3.3 41.25 -3.05 40.9 L-1.25 38.05 -2.15 36.7 -2.35 36.65 -3.1 36.1 Q-3.3 35.75 -3.05 35.4 L-1.25 32.6 -2.7 30.35 -2.75 29.65 -3.25 29.2 -3.2 28.5 -1.4 25.65 -2.85 23.45 -2.9 23.4 -3.25 23.0 -3.2 22.3 -1.4 19.45 -2.85 17.25 -3.25 16.85 -3.2 16.15 -1.4 13.3 -2.75 11.25 -3.25 10.8 -3.2 10.1 -1.4 7.25 -2.85 5.05 -2.95 4.8 -3.25 4.45 -3.2 3.75 -1.4 0.9 -2.0 0.0 2.25 0.0 1.65 0.9 3.45 3.75 3.5 4.45 3.2 4.8 M0.5 10.35 L0.55 10.3 0.1 9.65 -0.3 10.3 -0.25 10.35 0.1 10.9 0.5 10.35 M0.55 16.4 L0.1 15.7 -0.35 16.4 -0.25 16.5 0.1 17.05 0.5 16.5 0.55 16.4 M0.5 22.7 L0.6 22.55 0.1 21.85 -0.35 22.55 -0.25 22.7 0.1 23.25 0.5 22.7 M0.9 29.25 L0.1 28.05 -0.65 29.2 Q-0.3 29.35 -0.1 29.6 L0.25 30.2 0.65 29.6 0.95 29.3 0.9 29.25 M0.5 35.3 L0.25 34.95 0.05 35.3 0.25 35.65 0.5 35.3" fill="#0c100f" fill-rule="evenodd" stroke="none"/>
    <path d="M1.85 0.5 L1.5 1.0 3.3 3.8 3.35 4.5 3.05 4.85 2.95 5.1 1.5 7.3 3.3 10.15 3.35 10.85 2.85 11.3 1.5 13.35 3.3 16.2 3.35 16.9 2.95 17.3 1.5 19.55 3.3 22.35 3.35 23.05 2.95 23.45 2.95 23.5 1.5 25.75 3.3 28.55 3.35 29.25 3.05 29.6 3.1 29.7 Q3.3 30.05 3.1 30.4 L1.65 32.6 3.45 35.45 3.5 36.15 2.75 36.7 2.55 36.75 1.65 38.15 3.45 40.95 3.5 41.65 2.75 42.2 1.7 42.2 Q1.15 42.05 0.9 41.7 L0.1 40.5 0.1 35.75 0.35 35.35 0.1 34.95 0.1 30.2 0.5 29.65 0.8 29.35 0.75 29.3 0.1 28.3 0.1 23.15 0.35 22.75 0.45 22.6 0.1 22.1 0.1 16.95 0.35 16.55 0.4 16.45 0.1 15.95 0.1 10.75 0.35 10.4 0.4 10.35 0.1 9.9 0.1 4.7 0.35 4.35 0.5 4.15 0.1 3.55 0.1 0.5 1.85 0.5" fill="#4f5b56" fill-rule="evenodd" stroke="none"/>
  </g>
</svg>
