<?xml version="1.0" encoding="UTF-8" standalone="no"?>
<svg xmlns:xlink="http://www.w3.org/1999/xlink" height="39.2px" width="7.0px" xmlns="http://www.w3.org/2000/svg">
  <g transform="matrix(1.0, 0.0, 0.0, 1.0, 3.1, -0.15)">
    <path d="M0.9 18.1 L0.4 17.4 -0.15 18.1 0.05 18.25 0.4 18.7 0.75 18.25 0.9 18.1 M0.05 13.0 L0.4 13.45 0.75 13.0 0.85 12.85 0.4 12.25 -0.1 12.85 0.05 13.0 M0.9 7.7 L0.4 7.05 -0.1 7.7 0.05 7.85 0.4 8.3 0.75 7.85 0.9 7.7 M3.8 3.15 L3.05 3.6 1.9 5.1 3.75 7.45 Q4.0 7.75 3.8 8.05 L3.35 8.4 3.35 8.45 1.9 10.25 3.75 12.65 Q4.0 12.95 3.8 13.25 3.65 13.5 3.3 13.6 L1.9 15.45 3.75 17.8 Q4.0 18.1 3.8 18.4 L3.4 18.75 3.35 18.85 1.9 20.7 3.75 23.05 Q4.0 23.35 3.8 23.65 L3.25 24.05 1.9 25.8 3.75 28.15 Q4.0 28.45 3.8 28.75 3.65 29.0 3.3 29.1 L3.35 29.15 Q3.55 29.45 3.35 29.75 L1.9 31.6 3.75 33.95 Q4.0 34.25 3.8 34.55 L3.05 35.0 2.55 35.05 1.9 35.85 3.75 38.25 Q4.0 38.55 3.8 38.85 L3.05 39.3 2.0 39.3 Q1.45 39.2 1.2 38.9 L0.4 37.85 -0.4 38.9 Q-0.65 39.2 -1.2 39.3 L-2.25 39.3 Q-2.8 39.2 -3.0 38.85 L-2.95 38.25 -1.15 35.85 -1.75 35.05 -2.25 35.0 Q-2.8 34.9 -3.0 34.55 L-2.95 33.95 -1.15 31.6 -2.55 29.75 Q-2.75 29.45 -2.55 29.15 L-2.55 29.1 -3.0 28.75 -2.95 28.15 -1.15 25.8 -2.5 24.05 -3.0 23.65 -2.95 23.05 -1.15 20.7 -2.55 18.85 -2.6 18.75 -3.0 18.4 -2.95 17.8 -1.15 15.45 -2.55 13.6 -3.0 13.25 -2.95 12.65 -1.15 10.25 -2.55 8.45 -2.6 8.4 -3.0 8.05 -2.95 7.45 -1.15 5.1 -2.3 3.6 -3.0 3.15 -2.95 2.55 -1.15 0.15 1.9 0.15 3.75 2.55 Q4.0 2.85 3.8 3.15 M0.75 2.65 L0.75 2.6 0.4 2.15 0.0 2.6 0.05 2.65 0.4 3.1 0.75 2.65 M0.4 23.8 L0.75 23.35 0.85 23.25 0.4 22.65 -0.05 23.25 0.05 23.35 0.4 23.8 M0.4 29.6 L0.75 29.15 1.2 28.8 0.4 27.75 -0.4 28.8 -0.45 28.8 0.05 29.15 0.4 29.6 M0.5 33.7 L0.4 33.55 0.25 33.75 0.4 33.9 0.5 33.7" fill="#0c100f" fill-rule="evenodd" stroke="none"/>
    <path d="M0.15 33.9 L0.25 33.7 0.15 33.55 0.0 33.7 0.15 33.9 M0.15 3.1 L0.5 2.65 0.5 2.6 0.15 2.15 -0.05 2.4 -0.05 0.15 1.65 0.15 3.5 2.55 3.55 3.15 2.8 3.6 1.65 5.05 3.5 7.45 3.55 8.05 3.1 8.4 3.1 8.45 1.65 10.25 3.5 12.65 3.55 13.25 3.05 13.6 1.65 15.4 3.5 17.8 3.55 18.4 3.15 18.75 3.1 18.85 1.65 20.7 3.5 23.05 3.55 23.65 3.0 24.05 1.65 25.75 3.5 28.15 3.55 28.75 3.05 29.1 3.1 29.15 Q3.3 29.45 3.1 29.75 L1.65 31.55 3.5 33.95 3.55 34.55 2.8 35.0 2.3 35.05 1.65 35.85 3.5 38.25 3.55 38.85 2.8 39.3 1.75 39.3 Q1.2 39.2 0.95 38.9 L0.15 37.85 -0.05 38.1 -0.05 29.35 0.15 29.6 0.5 29.15 0.95 28.8 0.15 27.75 -0.05 28.0 -0.05 23.55 0.15 23.8 0.5 23.35 0.6 23.25 0.15 22.65 -0.05 22.9 -0.05 18.45 0.15 18.7 0.5 18.25 0.65 18.05 0.15 17.4 -0.05 17.65 -0.05 13.2 0.15 13.45 0.5 13.0 0.6 12.85 0.15 12.25 -0.05 12.5 -0.05 8.05 0.15 8.3 0.5 7.85 0.65 7.7 0.15 7.05 -0.05 7.3 -0.05 2.85 0.15 3.1" fill="#4f5b56" fill-rule="evenodd" stroke="none"/>
  </g>
</svg>
