<?xml version="1.0" encoding="UTF-8" standalone="no"?>
<svg xmlns:xlink="http://www.w3.org/1999/xlink" height="240.25px" width="481.7px" xmlns="http://www.w3.org/2000/svg">
  <g transform="matrix(1.0, 0.0, 0.0, 1.0, -77.85, -149.9)">
    <path d="M376.95 378.25 L376.95 357.8 Q376.95 347.8 390.05 347.8 L546.45 347.8 Q559.55 347.8 559.55 357.8 L559.55 378.25 Q559.55 388.25 546.45 388.25 L390.05 388.25 Q376.95 388.25 376.95 378.25 M546.45 161.15 Q559.55 161.15 559.55 175.4 L559.55 323.3 Q559.55 337.45 546.45 337.45 L390.05 337.45 Q376.95 337.45 376.95 323.3 L376.95 175.4 Q376.95 161.15 390.05 161.15 L546.45 161.15" fill="#ffe7de" fill-rule="evenodd" stroke="none"/>
    <path d="M391.0 378.9 Q384.6 378.9 384.6 373.9 L384.6 363.9 Q384.6 358.9 391.0 358.9 L534.35 358.9 Q540.75 358.9 540.75 363.9 L540.75 373.9 Q540.75 378.9 534.35 378.9 L391.0 378.9 M384.6 308.85 Q384.6 303.85 391.0 303.85 L534.35 303.85 Q540.75 303.85 540.75 308.85 L540.75 318.85 Q540.75 323.85 534.35 323.85 L391.0 323.85 Q384.6 323.85 384.6 318.85 L384.6 308.85 M384.6 272.65 L384.6 262.65 Q384.6 257.65 391.0 257.65 L534.35 257.65 Q540.75 257.65 540.75 262.65 L540.75 272.65 Q540.75 277.65 534.35 277.65 L391.0 277.65 Q384.6 277.65 384.6 272.65 M384.6 229.65 L384.6 219.65 Q384.6 214.65 391.0 214.65 L534.35 214.65 Q540.75 214.65 540.75 219.65 L540.75 229.65 Q540.75 234.65 534.35 234.65 L391.0 234.65 Q384.6 234.65 384.6 229.65 M540.75 175.65 L540.75 185.65 Q540.75 190.65 534.35 190.65 L391.0 190.65 Q384.6 190.65 384.6 185.65 L384.6 175.65 Q384.6 170.65 391.0 170.65 L534.35 170.65 Q540.75 170.65 540.75 175.65" fill="#ffffff" fill-rule="evenodd" stroke="none"/>
    <path d="M84.4 156.45 Q91.0 149.9 100.25 149.9 109.5 149.9 116.05 156.45 122.6 163.05 122.6 172.3 122.6 181.55 116.05 188.1 109.5 194.65 100.25 194.65 91.0 194.65 84.4 188.1 77.85 181.55 77.85 172.3 77.85 163.05 84.4 156.45" fill="#e7fff8" fill-rule="evenodd" stroke="none"/>
    <path d="M84.4 202.45 Q91.0 195.9 100.25 195.9 109.5 195.9 116.05 202.45 122.6 209.05 122.6 218.3 122.6 227.55 116.05 234.1 109.5 240.65 100.25 240.65 91.0 240.65 84.4 234.1 77.85 227.55 77.85 218.3 77.85 209.05 84.4 202.45" fill="#e7fff8" fill-rule="evenodd" stroke="none"/>
    <path d="M84.4 250.45 Q91.0 243.9 100.25 243.9 109.5 243.9 116.05 250.45 122.6 257.05 122.6 266.3 122.6 275.55 116.05 282.1 109.5 288.65 100.25 288.65 91.0 288.65 84.4 282.1 77.85 275.55 77.85 266.3 77.85 257.05 84.4 250.45" fill="#e7fff8" fill-rule="evenodd" stroke="none"/>
    <path d="M84.4 301.2 Q91.0 294.65 100.25 294.65 109.5 294.65 116.05 301.2 122.6 307.8 122.6 317.05 122.6 326.3 116.05 332.85 109.5 339.4 100.25 339.4 91.0 339.4 84.4 332.85 77.85 326.3 77.85 317.05 77.85 307.8 84.4 301.2" fill="#e7fff8" fill-rule="evenodd" stroke="none"/>
    <path d="M84.4 351.95 Q91.0 345.4 100.25 345.4 109.5 345.4 116.05 351.95 122.6 358.55 122.6 367.8 122.6 377.05 116.05 383.6 109.5 390.15 100.25 390.15 91.0 390.15 84.4 383.6 77.85 377.05 77.85 367.8 77.85 358.55 84.4 351.95" fill="#e7fff8" fill-rule="evenodd" stroke="none"/>
    <path d="M107.55 172.6 Q107.55 166.5 111.85 162.15 116.2 157.85 122.3 157.85 L292.3 157.85 Q298.4 157.85 302.7 162.15 307.05 166.5 307.05 172.6 307.05 178.7 302.7 183.0 298.4 187.35 292.3 187.35 L122.3 187.35 Q116.2 187.35 111.85 183.0 107.55 178.7 107.55 172.6" fill="#e7fff8" fill-rule="evenodd" stroke="none"/>
    <path d="M107.55 221.5 Q107.55 215.4 111.85 211.05 116.2 206.75 122.3 206.75 L292.3 206.75 Q298.4 206.75 302.7 211.05 307.05 215.4 307.05 221.5 307.05 227.6 302.7 231.9 298.4 236.25 292.3 236.25 L122.3 236.25 Q116.2 236.25 111.85 231.9 107.55 227.6 107.55 221.5" fill="#e7fff8" fill-rule="evenodd" stroke="none"/>
    <path d="M107.55 270.35 Q107.55 264.25 111.85 259.9 116.2 255.6 122.3 255.6 L292.3 255.6 Q298.4 255.6 302.7 259.9 307.05 264.25 307.05 270.35 307.05 276.45 302.7 280.75 298.4 285.1 292.3 285.1 L122.3 285.1 Q116.2 285.1 111.85 280.75 107.55 276.45 107.55 270.35" fill="#e7fff8" fill-rule="evenodd" stroke="none"/>
    <path d="M107.55 318.9 Q107.55 312.8 111.85 308.45 116.2 304.15 122.3 304.15 L292.3 304.15 Q298.4 304.15 302.7 308.45 307.05 312.8 307.05 318.9 307.05 325.0 302.7 329.3 298.4 333.65 292.3 333.65 L122.3 333.65 Q116.2 333.65 111.85 329.3 107.55 325.0 107.55 318.9" fill="#e7fff8" fill-rule="evenodd" stroke="none"/>
    <path d="M107.55 367.75 Q107.55 361.65 111.85 357.3 116.2 353.0 122.3 353.0 L292.3 353.0 Q298.4 353.0 302.7 357.3 307.05 361.65 307.05 367.75 307.05 373.85 302.7 378.15 298.4 382.5 292.3 382.5 L122.3 382.5 Q116.2 382.5 111.85 378.15 107.55 373.85 107.55 367.75" fill="#e7fff8" fill-rule="evenodd" stroke="none"/>
  </g>
</svg>
