<?xml version="1.0" encoding="UTF-8" standalone="no"?>
<svg xmlns:xlink="http://www.w3.org/1999/xlink" height="30.45px" width="28.0px" xmlns="http://www.w3.org/2000/svg">
  <g transform="matrix(1.0, 0.0, 0.0, 1.0, 0.1, 4.0)">
    <path d="M8.5 -2.5 L9.0 -2.4 9.2 -2.35 9.45 -2.35 10.5 -2.15 12.15 -1.95 13.45 -2.05 14.8 -2.15 Q16.7 -2.15 18.65 -0.8 20.55 0.7 20.55 2.3 20.55 2.75 19.65 2.95 L17.65 3.35 Q15.6 3.65 15.1 4.5 L15.3 4.65 15.4 5.25 15.3 5.6 15.15 5.95 16.7 7.2 18.75 9.2 18.85 9.35 Q21.1 12.0 21.3 15.25 L21.4 15.15 Q22.0 14.8 23.05 15.75 24.1 16.6 25.05 18.25 26.0 19.9 26.35 21.15 26.5 22.6 26.0 22.9 L25.8 23.0 24.7 23.65 Q23.8 23.55 22.95 22.7 L22.85 23.2 22.35 23.55 21.4 23.55 Q20.15 24.4 17.4 24.4 L16.1 24.4 12.4 24.9 11.05 24.9 8.85 24.45 Q6.95 24.0 6.0 23.55 5.15 23.2 4.15 23.55 L2.75 23.8 2.15 23.7 1.8 23.55 Q1.4 23.3 1.4 22.7 1.4 22.3 1.7 21.9 L2.05 20.95 1.9 19.55 1.95 16.15 2.15 15.05 2.85 13.15 4.75 10.35 5.55 9.35 7.4 7.85 Q8.55 7.05 8.85 7.0 L9.6 6.05 9.7 6.05 9.2 5.6 9.25 4.95 9.45 4.5 9.6 4.5 9.45 4.4 9.1 3.95 7.3 2.85 5.6 1.6 Q4.45 0.7 4.45 -0.2 4.45 -0.7 5.1 -0.95 L5.6 -1.15 6.35 -1.45 7.3 -2.15 Q7.8 -2.5 8.5 -2.5" fill="#af7b26" fill-rule="evenodd" stroke="none"/>
    <path d="M8.5 -2.5 L9.0 -2.4 9.2 -2.35 9.45 -2.35 10.5 -2.15 12.15 -1.95 13.45 -2.05 14.8 -2.15 Q16.7 -2.15 18.65 -0.8 20.55 0.7 20.55 2.3 20.55 2.75 19.65 2.95 L17.65 3.35 Q15.6 3.65 15.1 4.5 L15.3 4.65 15.4 5.25 15.3 5.6 15.15 5.95 16.7 7.2 18.75 9.2 18.85 9.35 Q21.1 12.0 21.3 15.25 L21.4 15.15 Q22.0 14.8 23.05 15.75 24.1 16.6 25.05 18.25 26.0 19.9 26.35 21.15 26.5 22.6 26.0 22.9 L25.8 23.0 24.7 23.65 Q23.8 23.55 22.95 22.7 L22.85 23.2 22.35 23.55 21.4 23.55 Q20.15 24.4 17.4 24.4 L16.1 24.4 12.4 24.9 11.05 24.9 8.85 24.45 Q6.95 24.0 6.0 23.55 5.15 23.2 4.15 23.55 L2.75 23.8 2.15 23.7 1.8 23.55 Q1.4 23.3 1.4 22.7 1.4 22.3 1.7 21.9 L2.05 20.95 1.9 19.55 1.95 16.15 2.15 15.05 2.85 13.15 4.75 10.35 5.55 9.35 7.4 7.85 Q8.55 7.05 8.85 7.0 L9.6 6.05 9.7 6.05 9.2 5.6 9.25 4.95 9.45 4.5 9.6 4.5 9.45 4.4 9.1 3.95 7.3 2.85 5.6 1.6 Q4.45 0.7 4.45 -0.2 4.45 -0.7 5.1 -0.95 L5.6 -1.15 6.35 -1.45 7.3 -2.15 Q7.8 -2.5 8.5 -2.5 Z" fill="none" stroke="#793d03" stroke-linecap="round" stroke-linejoin="round" stroke-width="3.0"/>
    <path d="M5.65 -1.15 Q6.3 -1.35 6.4 -1.55 L7.25 -2.25 8.45 -2.5 8.55 -2.5 9.05 -2.4 9.15 -2.4 9.05 -2.5 Q9.15 -2.4 9.25 -2.4 10.25 -1.95 11.4 -1.65 L13.2 -1.25 14.75 -1.35 15.8 -1.55 Q16.25 -1.55 16.95 -0.95 17.65 -0.55 17.65 -0.1 L17.4 0.3 17.05 0.55 17.25 0.55 17.75 0.5 Q18.4 0.5 18.9 1.05 19.45 1.5 19.45 2.2 L18.2 2.5 16.5 3.0 Q15.15 3.65 14.75 4.55 L14.65 4.55 14.45 4.65 13.85 4.75 14.0 4.55 14.2 4.2 15.15 3.4 Q15.9 2.7 16.05 1.7 L16.05 1.3 Q14.95 3.4 13.0 4.15 13.1 3.2 14.2 1.95 15.15 0.55 15.35 -0.45 L15.25 -0.45 14.0 1.05 13.3 1.7 12.6 2.2 11.9 3.2 Q11.5 3.9 11.6 4.75 L11.6 4.85 11.0 4.75 10.9 4.75 10.65 4.15 10.45 3.3 10.45 2.5 10.25 1.95 9.95 1.4 9.35 0.95 7.45 0.0 Q8.9 0.95 9.45 1.85 L10.05 3.65 10.15 4.25 10.1 4.15 9.55 3.55 9.15 3.1 8.6 2.6 7.8 2.1 6.6 1.3 Q5.5 0.45 5.5 -0.45 L5.5 -0.9 5.65 -1.15" fill="#e7a841" fill-rule="evenodd" stroke="none"/>
    <path d="M9.65 4.45 L9.55 4.35 9.15 3.95 7.35 2.75 5.6 1.6 Q4.5 0.55 4.5 -0.2 4.5 -0.8 5.15 -0.95 L5.65 -1.15 5.5 -0.9 5.5 -0.45 Q5.5 0.45 6.6 1.3 L7.8 2.1 8.6 2.6 9.15 3.1 9.55 3.55 10.1 4.15 10.15 4.25 10.35 4.55 10.35 4.65 9.65 4.45" fill="url(#gradient0)" fill-rule="evenodd" stroke="none"/>
    <path d="M9.25 -2.4 L9.55 -2.4 10.55 -2.15 12.2 -1.95 13.5 -2.05 14.85 -2.25 Q16.75 -2.25 18.7 -0.8 20.6 0.65 20.6 2.3 20.6 2.7 19.7 2.95 L17.65 3.3 Q15.7 3.65 15.05 4.45 L14.85 4.45 14.85 4.55 14.75 4.55 Q15.15 3.65 16.5 3.0 L18.2 2.5 19.45 2.2 Q19.45 1.5 18.9 1.05 18.4 0.5 17.75 0.5 L17.25 0.55 17.05 0.55 17.4 0.3 17.65 -0.1 Q17.65 -0.55 16.95 -0.95 16.25 -1.55 15.8 -1.55 L14.75 -1.35 13.2 -1.25 11.4 -1.65 Q10.25 -1.95 9.25 -2.4 M15.15 5.85 L16.65 7.2 18.85 9.2 18.9 9.25 Q21.35 12.1 21.35 15.75 L21.15 17.05 21.05 17.6 21.0 18.1 Q21.0 19.1 21.75 20.05 L22.3 20.6 22.8 21.85 22.9 23.15 22.4 23.55 21.4 23.55 20.9 23.35 19.45 23.55 19.05 23.55 18.95 23.65 17.75 23.8 18.85 23.35 20.25 22.5 21.15 21.45 Q21.15 20.85 20.6 20.05 20.0 19.3 20.0 18.7 L20.15 17.6 20.15 17.4 20.25 16.05 Q20.25 13.65 18.2 10.45 L17.5 9.25 Q16.05 7.3 14.65 6.15 L15.15 5.85 M7.35 13.1 L6.6 15.35 Q6.3 16.5 6.35 18.0 6.5 19.6 7.15 20.35 L10.05 22.7 9.95 22.7 7.45 21.35 Q6.5 20.7 5.95 20.7 5.5 20.7 5.4 20.35 5.3 20.15 5.5 19.5 L5.75 18.8 5.85 18.0 5.95 17.15 6.35 15.35 Q6.6 14.25 7.35 13.1" fill="url(#gradient1)" fill-rule="evenodd" stroke="none"/>
    <path d="M11.6 4.85 L11.6 4.75 Q11.5 3.9 11.9 3.2 L12.6 2.2 13.3 1.7 14.0 1.05 15.25 -0.45 15.35 -0.45 Q15.15 0.55 14.2 1.95 13.1 3.2 13.0 4.15 14.95 3.4 16.05 1.3 L16.05 1.7 Q15.9 2.7 15.15 3.4 L14.2 4.2 14.0 4.55 13.85 4.75 13.7 4.75 12.2 4.85 11.6 4.85" fill="url(#gradient2)" fill-rule="evenodd" stroke="none"/>
    <path d="M17.75 23.8 L17.15 24.0 17.05 24.1 16.95 24.1 16.05 24.2 13.2 24.6 11.1 24.35 Q9.55 24.1 8.35 23.35 L7.15 22.5 Q6.5 22.15 5.85 22.15 L4.5 22.15 Q3.35 21.95 3.35 21.35 L3.6 20.6 3.9 20.0 4.1 18.4 4.1 17.05 Q4.1 15.95 4.5 14.8 5.2 12.4 7.55 10.25 L8.35 9.25 Q9.75 7.7 10.15 6.25 L10.75 6.3 10.75 7.2 10.55 7.85 10.15 8.55 10.05 9.15 10.05 9.25 10.25 10.5 Q10.65 11.6 11.8 12.1 L12.1 10.95 12.25 9.95 12.2 9.25 12.0 9.05 11.6 8.2 11.5 7.3 11.5 7.1 11.45 6.95 11.4 6.75 11.4 6.7 11.4 6.5 11.3 6.4 11.4 6.4 12.0 6.5 12.65 7.2 13.0 8.3 13.1 9.25 13.3 10.45 13.2 11.4 Q13.3 12.1 13.6 12.4 L13.85 12.7 14.4 12.95 14.85 13.0 15.25 13.1 Q15.6 13.1 15.7 12.85 L15.8 12.4 Q15.8 11.7 15.15 10.65 14.4 9.8 14.2 9.35 L14.1 9.25 13.4 7.7 Q13.0 6.75 12.5 6.5 L12.85 6.5 13.9 6.4 14.1 6.3 14.2 6.3 14.45 6.25 14.65 6.15 Q16.05 7.3 17.5 9.25 L18.2 10.45 Q20.25 13.65 20.25 16.05 L20.15 17.4 20.15 17.6 20.0 18.7 Q20.0 19.3 20.6 20.05 21.15 20.85 21.15 21.45 L20.25 22.5 18.85 23.35 17.75 23.8 M7.35 13.1 Q6.6 14.25 6.35 15.35 L5.95 17.15 5.85 18.0 5.75 18.8 5.5 19.5 Q5.3 20.15 5.4 20.35 5.5 20.7 5.95 20.7 6.5 20.7 7.45 21.35 L9.95 22.7 10.05 22.7 7.15 20.35 Q6.5 19.6 6.35 18.0 6.3 16.5 6.6 15.35 L7.35 13.1 M13.4 23.65 L14.65 23.7 16.75 23.35 18.85 22.75 17.75 22.7 17.4 22.2 Q16.65 22.8 15.8 23.0 L13.4 23.65" fill="#f0b451" fill-rule="evenodd" stroke="none"/>
    <path d="M15.05 4.45 L15.35 4.65 15.4 4.75 15.45 5.25 15.35 5.55 15.15 5.65 14.4 5.95 14.0 6.05 12.85 6.15 Q10.25 6.15 10.25 5.15 L10.35 4.75 10.35 4.65 10.65 4.65 10.75 4.75 10.9 4.75 11.0 4.75 11.6 4.85 12.2 4.85 13.7 4.75 13.85 4.75 14.45 4.65 14.65 4.55 14.75 4.55 14.85 4.55 14.85 4.45 15.05 4.45 M11.9 5.5 L13.1 5.65 14.0 5.55 Q14.65 5.5 14.75 5.25 L14.75 5.15 14.4 5.15 13.75 5.25 13.0 5.35 12.25 5.35 12.1 5.35 11.9 5.5" fill="#e94935" fill-rule="evenodd" stroke="none"/>
    <path d="M10.35 4.65 L10.35 4.55 10.15 4.25 10.05 3.65 9.45 1.85 Q8.9 0.95 7.45 0.0 L9.35 0.95 9.95 1.4 10.25 1.95 10.45 2.5 10.45 3.3 10.65 4.15 10.9 4.75 10.75 4.75 10.65 4.65 10.35 4.65" fill="url(#gradient3)" fill-rule="evenodd" stroke="none"/>
    <path d="M15.35 5.55 L15.15 5.85 14.65 6.15 14.45 6.25 14.2 6.3 14.1 6.3 13.9 6.4 12.85 6.5 12.5 6.5 12.25 6.5 12.0 6.5 11.4 6.4 11.3 6.4 11.1 6.4 10.75 6.3 10.15 6.25 9.65 6.05 9.25 5.5 Q9.15 5.35 9.35 4.85 L9.55 4.45 9.65 4.45 10.35 4.65 10.35 4.75 10.25 5.15 Q10.25 6.15 12.85 6.15 L14.0 6.05 14.4 5.95 15.15 5.65 15.35 5.55" fill="#910a11" fill-rule="evenodd" stroke="none"/>
    <path d="M11.9 5.5 L12.1 5.35 12.25 5.35 13.0 5.35 13.75 5.25 14.4 5.15 14.75 5.15 14.75 5.25 Q14.65 5.5 14.0 5.55 L13.1 5.65 11.9 5.5" fill="#ffbaa1" fill-rule="evenodd" stroke="none"/>
    <path d="M12.5 6.5 Q13.0 6.75 13.4 7.7 L14.1 9.25 14.2 9.35 Q14.4 9.8 15.15 10.65 15.8 11.7 15.8 12.4 L15.7 12.85 Q15.6 13.1 15.25 13.1 L14.85 13.0 14.4 12.95 13.85 12.7 13.6 12.4 Q13.3 12.1 13.2 11.4 L13.3 10.45 13.1 9.25 13.0 8.3 12.65 7.2 12.0 6.5 12.25 6.5 12.5 6.5" fill="url(#gradient4)" fill-rule="evenodd" stroke="none"/>
    <path d="M11.3 6.4 L11.4 6.5 11.4 6.7 11.4 6.75 11.45 6.95 11.5 7.1 11.5 7.3 11.6 8.2 12.0 9.05 12.2 9.25 12.25 9.95 12.1 10.95 11.8 12.1 Q10.65 11.6 10.25 10.5 L10.05 9.25 10.05 9.15 10.15 8.55 10.55 7.85 10.75 7.2 10.75 6.3 11.1 6.4 11.3 6.4" fill="url(#gradient5)" fill-rule="evenodd" stroke="none"/>
    <path d="M16.95 24.1 L16.15 24.25 12.5 24.9 11.1 24.9 8.9 24.4 6.05 23.55 4.2 23.45 3.2 23.75 2.8 23.8 2.2 23.7 1.85 23.55 Q1.4 23.25 1.4 22.7 1.4 22.3 1.75 21.75 L2.1 20.85 1.9 19.5 Q1.75 17.8 2.0 16.15 L2.2 15.05 Q2.5 13.95 2.9 13.1 L3.2 12.7 4.7 10.25 5.6 9.25 7.45 7.85 8.8 6.85 9.65 6.05 10.15 6.25 Q9.75 7.7 8.35 9.25 L7.55 10.25 Q5.2 12.4 4.5 14.8 4.1 15.95 4.1 17.05 L4.1 18.4 3.9 20.0 3.6 20.6 3.35 21.35 Q3.35 21.95 4.5 22.15 L5.85 22.15 Q6.5 22.15 7.15 22.5 L8.35 23.35 Q9.55 24.1 11.1 24.35 L13.2 24.6 16.05 24.2 16.95 24.1" fill="url(#gradient6)" fill-rule="evenodd" stroke="none"/>
    <path d="M13.4 23.65 L15.8 23.0 Q16.65 22.8 17.4 22.2 L17.75 22.7 18.85 22.75 16.75 23.35 14.65 23.7 13.4 23.65" fill="url(#gradient7)" fill-rule="evenodd" stroke="none"/>
    <path d="M10.0 14.85 Q10.7 14.15 11.9 14.05 L11.9 13.15 13.15 13.15 13.15 13.95 14.35 14.2 Q15.0 14.3 15.5 14.65 L14.65 16.7 13.65 16.15 12.7 16.0 12.1 16.15 11.9 16.5 Q11.9 16.85 12.95 17.05 L13.05 17.05 13.85 17.2 Q14.8 17.4 15.35 17.9 15.85 18.45 15.85 19.3 15.85 20.55 15.15 21.25 14.45 21.95 13.05 22.15 L13.05 23.0 11.75 23.0 11.75 22.15 10.25 21.85 Q9.55 21.7 8.85 21.25 L9.7 19.05 11.05 19.85 12.35 20.1 12.95 19.95 13.15 19.6 12.95 19.3 12.1 19.05 11.2 18.9 Q10.35 18.7 9.7 18.1 9.2 17.45 9.2 16.5 9.2 15.55 10.0 14.85" fill="#fefa33" fill-rule="evenodd" stroke="none"/>
    <path d="M23.0 21.65 L23.0 22.95 Q21.85 24.3 18.45 24.3 15.0 24.3 14.0 22.9 L13.95 21.65 23.0 21.65" fill="url(#gradient8)" fill-rule="evenodd" stroke="none"/>
    <path d="M18.2 20.0 L21.4 20.35 Q22.8 20.9 22.8 21.5 22.8 22.15 21.4 22.6 20.15 23.2 18.2 23.2 16.4 23.2 15.0 22.6 13.75 22.15 13.75 21.5 13.75 20.9 15.0 20.35 L18.2 20.0" fill="#ffda62" fill-rule="evenodd" stroke="none"/>
    <path d="M15.3 20.45 L18.3 20.05 21.25 20.45 Q22.4 20.9 22.4 21.35 22.4 21.85 21.25 22.25 L18.3 22.7 15.3 22.25 Q14.0 21.85 14.0 21.35 14.0 20.9 15.3 20.45" fill="url(#gradient9)" fill-rule="evenodd" stroke="none"/>
    <path d="M15.3 20.45 L18.3 20.05 21.25 20.45 Q22.4 20.9 22.4 21.35 22.4 21.85 21.25 22.25 L18.3 22.7 15.3 22.25 Q14.0 21.85 14.0 21.35 14.0 20.9 15.3 20.45 Z" fill="none" stroke="url(#gradient10)" stroke-linecap="round" stroke-linejoin="round" stroke-width="0.2"/>
    <path d="M23.45 20.25 L23.45 21.55 Q22.3 22.9 18.9 22.9 15.45 22.9 14.45 21.5 L14.4 20.25 23.45 20.25" fill="url(#gradient11)" fill-rule="evenodd" stroke="none"/>
    <path d="M18.85 18.6 L22.05 19.05 Q23.45 19.5 23.45 20.15 23.45 20.9 22.05 21.35 L18.85 21.8 15.65 21.35 Q14.4 20.9 14.4 20.15 14.4 19.5 15.65 19.05 L18.85 18.6" fill="#ffda62" fill-rule="evenodd" stroke="none"/>
    <path d="M18.85 18.8 L21.85 19.15 Q23.1 19.5 23.1 20.05 23.1 20.6 21.85 20.95 L18.85 21.35 15.9 20.95 Q14.65 20.6 14.65 20.05 14.65 19.5 15.9 19.15 L18.85 18.8" fill="url(#gradient12)" fill-rule="evenodd" stroke="none"/>
    <path d="M18.85 18.8 L21.85 19.15 Q23.1 19.5 23.1 20.05 23.1 20.6 21.85 20.95 L18.85 21.35 15.9 20.95 Q14.65 20.6 14.65 20.05 14.65 19.5 15.9 19.15 L18.85 18.8 Z" fill="none" stroke="url(#gradient13)" stroke-linecap="round" stroke-linejoin="round" stroke-width="0.2"/>
    <path d="M21.65 18.25 L22.85 18.25 22.85 19.55 21.65 20.35 21.65 18.25 M21.1 20.55 L19.3 20.85 19.3 18.25 21.1 18.25 21.1 20.55 M18.45 20.9 L18.25 20.9 16.45 20.8 16.45 18.25 18.45 18.25 18.45 20.9 M15.6 20.6 Q14.35 20.25 13.8 19.5 L13.8 18.25 15.6 18.25 15.6 20.6" fill="url(#gradient14)" fill-rule="evenodd" stroke="none"/>
    <path d="M21.65 18.25 L21.65 20.35 21.1 20.55 21.1 18.25 21.65 18.25" fill="url(#gradient15)" fill-rule="evenodd" stroke="none"/>
    <path d="M19.3 20.85 L18.45 20.9 18.45 18.25 19.3 18.25 19.3 20.85" fill="url(#gradient16)" fill-rule="evenodd" stroke="none"/>
    <path d="M16.45 20.8 L15.6 20.6 15.6 18.25 16.45 18.25 16.45 20.8" fill="url(#gradient17)" fill-rule="evenodd" stroke="none"/>
    <path d="M22.4 18.15 Q22.4 18.9 21.15 19.35 L17.85 19.8 14.65 19.35 Q13.4 18.9 13.4 18.15 13.4 17.5 14.65 17.05 L17.85 16.6 21.15 17.05 Q22.4 17.5 22.4 18.15" fill="#ffda62" fill-rule="evenodd" stroke="none"/>
    <path d="M22.15 18.05 Q22.15 18.6 20.85 19.0 L17.95 19.35 14.9 19.0 Q13.75 18.6 13.75 18.05 13.75 17.5 14.9 17.15 L17.95 16.75 20.85 17.15 Q22.15 17.5 22.15 18.05" fill="url(#gradient18)" fill-rule="evenodd" stroke="none"/>
    <path d="M22.15 18.05 Q22.15 18.6 20.85 19.0 L17.95 19.35 14.9 19.0 Q13.75 18.6 13.75 18.05 13.75 17.5 14.9 17.15 L17.95 16.75 20.85 17.15 Q22.15 17.5 22.15 18.05 Z" fill="none" stroke="url(#gradient19)" stroke-linecap="round" stroke-linejoin="round" stroke-width="0.2"/>
    <path d="M21.4 16.8 L21.4 19.4 20.05 19.45 19.7 19.45 19.7 16.8 21.4 16.8 M22.05 19.3 L22.05 16.8 24.6 16.8 24.6 18.1 Q23.85 19.0 22.05 19.3 M19.05 19.4 L17.8 19.25 17.8 16.8 19.05 16.8 19.05 19.4" fill="url(#gradient20)" fill-rule="evenodd" stroke="none"/>
    <path d="M17.2 19.1 Q16.1 18.75 15.6 18.05 L15.55 16.8 17.2 16.8 17.2 19.1" fill="url(#gradient21)" fill-rule="evenodd" stroke="none"/>
    <path d="M19.05 16.8 L19.7 16.8 19.7 19.45 19.05 19.4 19.05 16.8" fill="url(#gradient22)" fill-rule="evenodd" stroke="none"/>
    <path d="M21.4 16.8 L22.05 16.8 22.05 19.3 21.4 19.4 21.4 16.8" fill="url(#gradient23)" fill-rule="evenodd" stroke="none"/>
    <path d="M17.8 19.25 L17.2 19.1 17.2 16.8 17.8 16.8 17.8 19.25" fill="#efa720" fill-rule="evenodd" stroke="none"/>
    <path d="M16.5 15.6 L19.7 15.15 22.9 15.6 Q24.15 16.05 24.15 16.7 24.15 17.4 22.9 17.85 L19.7 18.3 16.5 17.85 Q15.2 17.4 15.2 16.7 15.2 16.05 16.5 15.6" fill="#ffda62" fill-rule="evenodd" stroke="none"/>
    <path d="M16.7 15.7 L19.7 15.35 22.7 15.7 Q23.9 16.05 23.9 16.6 23.9 17.15 22.7 17.5 L19.7 17.85 16.7 17.5 Q15.45 17.15 15.45 16.6 15.45 16.05 16.7 15.7" fill="url(#gradient24)" fill-rule="evenodd" stroke="none"/>
    <path d="M16.7 15.7 L19.7 15.35 22.7 15.7 Q23.9 16.05 23.9 16.6 23.9 17.15 22.7 17.5 L19.7 17.85 16.7 17.5 Q15.45 17.15 15.45 16.6 15.45 16.05 16.7 15.7 Z" fill="none" stroke="url(#gradient25)" stroke-linecap="round" stroke-linejoin="round" stroke-width="0.2"/>
    <path d="M25.2 20.0 L22.95 21.3 22.2 20.15 22.05 19.85 24.35 18.5 25.2 20.0 M23.4 21.8 L25.55 20.55 26.8 22.75 25.7 23.4 Q24.5 23.2 23.4 21.8 M21.8 19.25 L21.25 18.15 23.4 16.9 24.05 17.95 21.8 19.25" fill="url(#gradient26)" fill-rule="evenodd" stroke="none"/>
    <path d="M21.1 17.55 Q20.85 16.4 21.2 15.65 L22.3 14.95 23.1 16.4 21.1 17.55" fill="url(#gradient27)" fill-rule="evenodd" stroke="none"/>
    <path d="M24.05 17.95 L24.35 18.5 22.05 19.85 21.8 19.25 24.05 17.95" fill="url(#gradient28)" fill-rule="evenodd" stroke="none"/>
    <path d="M25.2 20.0 L25.55 20.55 23.4 21.8 22.95 21.3 25.2 20.0" fill="url(#gradient29)" fill-rule="evenodd" stroke="none"/>
    <path d="M21.25 18.15 L21.1 17.55 23.1 16.4 23.4 16.9 21.25 18.15" fill="#efa720" fill-rule="evenodd" stroke="none"/>
    <path d="M21.95 16.75 Q21.7 15.4 22.25 15.05 22.8 14.8 23.9 15.6 25.0 16.6 25.95 18.15 26.85 19.8 27.1 21.15 27.35 22.5 26.85 22.85 26.2 23.25 25.15 22.3 24.1 21.4 23.2 19.8 22.15 18.15 21.95 16.75" fill="#ffda62" fill-rule="evenodd" stroke="none"/>
    <path d="M22.3 16.75 Q22.05 15.6 22.5 15.35 23.0 15.05 24.0 15.85 L25.7 18.3 Q26.65 19.8 26.9 21.05 27.2 22.25 26.75 22.5 26.3 22.75 25.35 21.95 24.35 21.05 23.55 19.6 22.6 18.05 22.3 16.75" fill="url(#gradient30)" fill-rule="evenodd" stroke="none"/>
    <path d="M22.3 16.75 Q22.05 15.6 22.5 15.35 23.0 15.05 24.0 15.85 L25.7 18.3 Q26.65 19.8 26.9 21.05 27.2 22.25 26.75 22.5 26.3 22.75 25.35 21.95 24.35 21.05 23.55 19.6 22.6 18.05 22.3 16.75 Z" fill="none" stroke="url(#gradient31)" stroke-linecap="round" stroke-linejoin="round" stroke-width="0.2"/>
  </g>
  <defs>
    <linearGradient gradientTransform="matrix(0.0036, 0.0, 0.0, 0.0035, 7.45, 1.75)" gradientUnits="userSpaceOnUse" id="gradient0" spreadMethod="pad" x1="-819.2" x2="819.2">
      <stop offset="0.0" stop-color="#bb5200"/>
      <stop offset="1.0" stop-color="#e8ac4b"/>
    </linearGradient>
    <linearGradient gradientTransform="matrix(0.0, 0.0, 0.0, 0.0, -83.4, -44.65)" gradientUnits="userSpaceOnUse" id="gradient1" spreadMethod="pad" x1="-819.2" x2="819.2">
      <stop offset="0.0" stop-color="#ffec95"/>
      <stop offset="1.0" stop-color="#ffe4a1"/>
    </linearGradient>
    <linearGradient gradientTransform="matrix(0.0027, 0.0, 0.0, 0.0032, 13.85, 2.2)" gradientUnits="userSpaceOnUse" id="gradient2" spreadMethod="pad" x1="-819.2" x2="819.2">
      <stop offset="0.0" stop-color="#bb5200"/>
      <stop offset="1.0" stop-color="#d08711"/>
    </linearGradient>
    <linearGradient gradientTransform="matrix(-6.0E-4, -0.0033, 0.0028, -5.0E-4, 9.15, 2.4)" gradientUnits="userSpaceOnUse" id="gradient3" spreadMethod="pad" x1="-819.2" x2="819.2">
      <stop offset="0.0" stop-color="#8c3f03"/>
      <stop offset="1.0" stop-color="#d08711"/>
    </linearGradient>
    <linearGradient gradientTransform="matrix(-8.0E-4, -0.0043, 0.004, -7.0E-4, 13.85, 9.9)" gradientUnits="userSpaceOnUse" id="gradient4" spreadMethod="pad" x1="-819.2" x2="819.2">
      <stop offset="0.0" stop-color="#bb5200"/>
      <stop offset="1.0" stop-color="#de8c28"/>
    </linearGradient>
    <linearGradient gradientTransform="matrix(3.0E-4, -0.0033, 0.0035, 4.0E-4, 11.1, 9.25)" gradientUnits="userSpaceOnUse" id="gradient5" spreadMethod="pad" x1="-819.2" x2="819.2">
      <stop offset="0.0" stop-color="#bb5200"/>
      <stop offset="1.0" stop-color="#de8c28"/>
    </linearGradient>
    <linearGradient gradientTransform="matrix(0.0041, -6.0E-4, 0.0017, 0.0114, 5.6, 15.75)" gradientUnits="userSpaceOnUse" id="gradient6" spreadMethod="pad" x1="-819.2" x2="819.2">
      <stop offset="0.0" stop-color="#bb5200"/>
      <stop offset="1.0" stop-color="#de8c28"/>
    </linearGradient>
    <linearGradient gradientTransform="matrix(-0.0031, 8.0E-4, -2.0E-4, -8.0E-4, 16.05, 22.95)" gradientUnits="userSpaceOnUse" id="gradient7" spreadMethod="pad" x1="-819.2" x2="819.2">
      <stop offset="0.0" stop-color="#bb5200"/>
      <stop offset="1.0" stop-color="#de8c28"/>
    </linearGradient>
    <linearGradient gradientTransform="matrix(0.0055, 0.0, 0.0, 0.0019, 18.5, 22.7)" gradientUnits="userSpaceOnUse" id="gradient8" spreadMethod="pad" x1="-819.2" x2="819.2">
      <stop offset="0.0" stop-color="#bb7100"/>
      <stop offset="1.0" stop-color="#fcc332"/>
    </linearGradient>
    <linearGradient gradientTransform="matrix(0.0051, -9.0E-4, 2.0E-4, 0.0018, 18.3, 21.35)" gradientUnits="userSpaceOnUse" id="gradient9" spreadMethod="pad" x1="-819.2" x2="819.2">
      <stop offset="0.0" stop-color="#bb7100"/>
      <stop offset="1.0" stop-color="#de9628"/>
    </linearGradient>
    <linearGradient gradientTransform="matrix(0.0052, 0.0, 0.0, 0.0016, 18.3, 21.35)" gradientUnits="userSpaceOnUse" id="gradient10" spreadMethod="pad" x1="-819.2" x2="819.2">
      <stop offset="0.0" stop-color="#de8c28"/>
      <stop offset="1.0" stop-color="#fad871"/>
    </linearGradient>
    <linearGradient gradientTransform="matrix(0.0055, 0.0, 0.0, 0.0019, 18.95, 21.3)" gradientUnits="userSpaceOnUse" id="gradient11" spreadMethod="pad" x1="-819.2" x2="819.2">
      <stop offset="0.0" stop-color="#bb7100"/>
      <stop offset="1.0" stop-color="#fcc332"/>
    </linearGradient>
    <linearGradient gradientTransform="matrix(0.0051, -9.0E-4, 2.0E-4, 0.0018, 18.85, 20.05)" gradientUnits="userSpaceOnUse" id="gradient12" spreadMethod="pad" x1="-819.2" x2="819.2">
      <stop offset="0.0" stop-color="#bb7100"/>
      <stop offset="1.0" stop-color="#de9628"/>
    </linearGradient>
    <linearGradient gradientTransform="matrix(0.0052, 0.0, 0.0, 0.0016, 18.85, 20.05)" gradientUnits="userSpaceOnUse" id="gradient13" spreadMethod="pad" x1="-819.2" x2="819.2">
      <stop offset="0.0" stop-color="#de8c28"/>
      <stop offset="1.0" stop-color="#fad871"/>
    </linearGradient>
    <linearGradient gradientTransform="matrix(0.0055, 0.0, 0.0, 0.0019, 18.3, 19.25)" gradientUnits="userSpaceOnUse" id="gradient14" spreadMethod="pad" x1="-819.2" x2="819.2">
      <stop offset="0.0" stop-color="#bb7100"/>
      <stop offset="1.0" stop-color="#fcc332"/>
    </linearGradient>
    <linearGradient gradientTransform="matrix(0.0055, 0.0, 0.0, 0.0019, 18.3, 19.25)" gradientUnits="userSpaceOnUse" id="gradient15" spreadMethod="pad" x1="-819.2" x2="819.2">
      <stop offset="0.0" stop-color="#e2961f"/>
      <stop offset="1.0" stop-color="#fcc332"/>
    </linearGradient>
    <linearGradient gradientTransform="matrix(0.0055, 0.0, 0.0, 0.0019, 18.3, 19.25)" gradientUnits="userSpaceOnUse" id="gradient16" spreadMethod="pad" x1="-819.2" x2="819.2">
      <stop offset="0.0" stop-color="#e09a31"/>
      <stop offset="1.0" stop-color="#fcc332"/>
    </linearGradient>
    <linearGradient gradientTransform="matrix(0.0055, 0.0, 0.0, 0.0019, 18.3, 19.25)" gradientUnits="userSpaceOnUse" id="gradient17" spreadMethod="pad" x1="-819.2" x2="819.2">
      <stop offset="0.0" stop-color="#d48a17"/>
      <stop offset="1.0" stop-color="#fcc332"/>
    </linearGradient>
    <linearGradient gradientTransform="matrix(0.0051, -9.0E-4, 2.0E-4, 0.0018, 17.95, 18.05)" gradientUnits="userSpaceOnUse" id="gradient18" spreadMethod="pad" x1="-819.2" x2="819.2">
      <stop offset="0.0" stop-color="#bb7b00"/>
      <stop offset="1.0" stop-color="#deb428"/>
    </linearGradient>
    <linearGradient gradientTransform="matrix(0.0052, 0.0, 0.0, 0.0016, 17.95, 18.05)" gradientUnits="userSpaceOnUse" id="gradient19" spreadMethod="pad" x1="-819.2" x2="819.2">
      <stop offset="0.0" stop-color="#de8c28"/>
      <stop offset="1.0" stop-color="#fad871"/>
    </linearGradient>
    <linearGradient gradientTransform="matrix(0.0055, 0.0, 0.0, 0.0019, 20.1, 17.8)" gradientUnits="userSpaceOnUse" id="gradient20" spreadMethod="pad" x1="-819.2" x2="819.2">
      <stop offset="0.0" stop-color="#bb7100"/>
      <stop offset="1.0" stop-color="#fcc332"/>
    </linearGradient>
    <linearGradient gradientTransform="matrix(0.0055, 0.0, 0.0, 0.0019, 20.1, 17.8)" gradientUnits="userSpaceOnUse" id="gradient21" spreadMethod="pad" x1="-819.2" x2="819.2">
      <stop offset="0.0" stop-color="#a36200"/>
      <stop offset="1.0" stop-color="#fcc332"/>
    </linearGradient>
    <linearGradient gradientTransform="matrix(0.0055, 0.0, 0.0, 0.0019, 20.1, 17.8)" gradientUnits="userSpaceOnUse" id="gradient22" spreadMethod="pad" x1="-819.2" x2="819.2">
      <stop offset="0.0" stop-color="#e79313"/>
      <stop offset="1.0" stop-color="#fcc332"/>
    </linearGradient>
    <linearGradient gradientTransform="matrix(0.0055, 0.0, 0.0, 0.0019, 20.1, 17.8)" gradientUnits="userSpaceOnUse" id="gradient23" spreadMethod="pad" x1="-819.2" x2="819.2">
      <stop offset="0.0" stop-color="#de8f18"/>
      <stop offset="1.0" stop-color="#fcc332"/>
    </linearGradient>
    <linearGradient gradientTransform="matrix(0.0051, -9.0E-4, 2.0E-4, 0.0018, 19.7, 16.6)" gradientUnits="userSpaceOnUse" id="gradient24" spreadMethod="pad" x1="-819.2" x2="819.2">
      <stop offset="0.0" stop-color="#de8b0c"/>
      <stop offset="1.0" stop-color="#f7c724"/>
    </linearGradient>
    <linearGradient gradientTransform="matrix(0.0052, 0.0, 0.0, 0.0016, 19.7, 16.6)" gradientUnits="userSpaceOnUse" id="gradient25" spreadMethod="pad" x1="-819.2" x2="819.2">
      <stop offset="0.0" stop-color="#de8c28"/>
      <stop offset="1.0" stop-color="#fad871"/>
    </linearGradient>
    <linearGradient gradientTransform="matrix(0.0028, 0.0048, -0.0016, 9.0E-4, 23.65, 19.35)" gradientUnits="userSpaceOnUse" id="gradient26" spreadMethod="pad" x1="-819.2" x2="819.2">
      <stop offset="0.0" stop-color="#bb7100"/>
      <stop offset="1.0" stop-color="#fcc332"/>
    </linearGradient>
    <linearGradient gradientTransform="matrix(0.0028, 0.0048, -0.0016, 9.0E-4, 23.65, 19.35)" gradientUnits="userSpaceOnUse" id="gradient27" spreadMethod="pad" x1="-819.2" x2="819.2">
      <stop offset="0.0" stop-color="#a36200"/>
      <stop offset="1.0" stop-color="#fcc332"/>
    </linearGradient>
    <linearGradient gradientTransform="matrix(0.0028, 0.0048, -0.0016, 9.0E-4, 23.65, 19.35)" gradientUnits="userSpaceOnUse" id="gradient28" spreadMethod="pad" x1="-819.2" x2="819.2">
      <stop offset="0.0" stop-color="#e79313"/>
      <stop offset="1.0" stop-color="#fcc332"/>
    </linearGradient>
    <linearGradient gradientTransform="matrix(0.0028, 0.0048, -0.0016, 9.0E-4, 23.65, 19.35)" gradientUnits="userSpaceOnUse" id="gradient29" spreadMethod="pad" x1="-819.2" x2="819.2">
      <stop offset="0.0" stop-color="#de8f18"/>
      <stop offset="1.0" stop-color="#fcc332"/>
    </linearGradient>
    <linearGradient gradientTransform="matrix(0.0033, 0.0039, -0.0015, 0.0011, 24.6, 19.0)" gradientUnits="userSpaceOnUse" id="gradient30" spreadMethod="pad" x1="-819.2" x2="819.2">
      <stop offset="0.0" stop-color="#f0a127"/>
      <stop offset="1.0" stop-color="#facd34"/>
    </linearGradient>
    <linearGradient gradientTransform="matrix(0.0026, 0.0044, -0.0014, 8.0E-4, 24.6, 19.0)" gradientUnits="userSpaceOnUse" id="gradient31" spreadMethod="pad" x1="-819.2" x2="819.2">
      <stop offset="0.0" stop-color="#de8c28"/>
      <stop offset="1.0" stop-color="#fad871"/>
    </linearGradient>
  </defs>
</svg>
