<?xml version="1.0" encoding="UTF-8" standalone="no"?>
<svg xmlns:xlink="http://www.w3.org/1999/xlink" height="36.5px" width="27.4px" xmlns="http://www.w3.org/2000/svg">
  <g transform="matrix(1.0, 0.0, 0.0, 1.0, 1.55, 4.7)">
    <path d="M18.25 -1.15 L19.2 -2.9 21.0 -3.0 23.55 -1.8 23.55 -1.75 Q24.5 -0.95 24.35 -0.2 L23.4 1.25 16.4 8.95 16.0 9.65 16.05 9.75 16.05 9.8 Q15.95 10.35 16.6 10.8 L19.45 12.45 Q21.3 13.65 20.0 15.05 L18.3 17.45 17.9 17.9 16.9 19.2 17.3 19.1 17.65 19.4 Q17.65 19.85 16.65 20.4 L15.65 21.2 15.3 21.95 14.95 22.8 Q14.65 23.2 14.6 23.7 L14.5 24.15 14.2 25.35 14.25 25.8 14.9 27.1 Q15.45 28.1 15.4 29.0 L14.95 30.15 14.15 30.25 Q13.55 30.05 13.45 29.5 13.3 29.0 13.4 28.2 L13.35 27.05 13.15 25.65 12.1 24.45 11.95 24.35 10.4 23.35 9.0 22.6 7.35 21.45 5.2 19.8 4.65 19.4 2.0 17.65 0.35 16.7 Q-0.65 15.85 0.75 14.85 L1.2 14.35 1.75 12.95 Q2.3 12.35 2.85 12.35 L4.3 10.55 Q3.95 10.1 4.45 9.45 L6.4 7.05 Q7.4 5.5 9.1 6.5 L9.65 6.85 9.65 6.9 10.0 7.1 11.7 8.1 Q13.05 8.65 13.75 7.5 L18.25 -1.15" fill="#a3f7f7" fill-rule="evenodd" stroke="none"/>
    <path d="M18.25 -1.15 L13.75 7.5 Q13.05 8.65 11.7 8.1 L10.0 7.1 9.65 6.9 9.65 6.85 9.1 6.5 Q7.4 5.5 6.4 7.05 L4.45 9.45 Q3.95 10.1 4.3 10.55 L2.85 12.35 Q2.3 12.35 1.75 12.95 L1.2 14.35 0.75 14.85 Q-0.65 15.85 0.35 16.7 L2.0 17.65 4.65 19.4 5.2 19.8 7.35 21.45 9.0 22.6 10.4 23.35 11.95 24.35 12.1 24.45 13.15 25.65 13.35 27.05 13.4 28.2 Q13.3 29.0 13.45 29.5 13.55 30.05 14.15 30.25 L14.95 30.15 15.4 29.0 Q15.45 28.1 14.9 27.1 L14.25 25.8 14.2 25.35 14.5 24.15 14.6 23.7 Q14.65 23.2 14.95 22.8 L15.3 21.95 15.65 21.2 16.65 20.4 Q17.65 19.85 17.65 19.4 L17.3 19.1 16.9 19.2 17.9 17.9 18.3 17.45 20.0 15.05 Q21.3 13.65 19.45 12.45 L16.6 10.8 Q15.95 10.35 16.05 9.8 L16.05 9.75 16.0 9.65 16.4 8.95 23.4 1.25 24.35 -0.2 Q24.5 -0.95 23.55 -1.75 L23.55 -1.8 21.0 -3.0 19.2 -2.9 18.25 -1.15 Z" fill="none" stroke="#7b3c02" stroke-linecap="round" stroke-linejoin="round" stroke-width="3.0"/>
    <path d="M9.95 7.1 L11.65 8.1 Q13.0 8.65 13.7 7.5 L15.6 3.8 18.15 -1.15 19.15 -2.9 20.75 -3.0 22.45 -2.05 23.25 -1.6 22.95 -1.7 20.9 -2.3 Q19.35 -2.3 16.8 3.2 L15.8 5.3 Q14.05 8.75 13.5 8.85 12.8 9.05 11.6 8.3 L11.0 7.9 9.95 7.1" fill="#ffd57e" fill-rule="evenodd" stroke="none"/>
    <path d="M11.0 7.9 L11.6 8.3 Q12.8 9.05 13.5 8.85 14.05 8.75 15.8 5.3 L16.8 3.2 Q19.35 -2.3 20.9 -2.3 L22.95 -1.7 23.2 -1.3 23.3 -0.2 Q23.2 0.55 19.2 4.95 15.15 9.35 15.5 10.2 15.75 11.0 16.25 11.35 L16.6 11.55 16.7 11.65 16.85 11.8 18.3 12.65 Q19.3 13.15 19.35 13.95 19.35 14.7 18.6 16.0 17.85 17.25 17.2 17.25 L15.35 16.7 15.1 16.6 14.3 16.15 10.65 13.8 Q8.65 12.4 7.65 11.45 6.9 10.65 6.85 10.2 6.85 9.95 7.4 9.15 L7.75 8.7 Q8.7 7.45 9.15 7.45 L10.05 7.65 11.0 7.9" fill="url(#gradient0)" fill-rule="evenodd" stroke="none"/>
    <path d="M23.25 -1.6 L23.75 -1.35 Q24.45 -0.95 24.3 -0.2 L23.35 1.25 16.35 8.95 16.25 9.1 16.0 9.65 15.9 9.75 Q15.75 10.55 16.5 11.45 L16.6 11.55 16.25 11.35 Q15.75 11.0 15.5 10.2 15.15 9.35 19.2 4.95 23.2 0.55 23.3 -0.2 L23.2 -1.3 22.95 -1.7 23.25 -1.6 M4.2 10.55 Q3.85 10.1 4.45 9.45 L6.35 7.05 Q6.65 6.55 7.05 6.35 L9.1 6.5 9.5 6.85 9.5 6.9 9.95 7.1 11.0 7.9 10.05 7.65 9.15 7.45 Q8.7 7.45 7.75 8.7 L7.4 9.15 Q6.85 9.95 6.85 10.2 6.9 10.65 7.65 11.45 8.65 12.4 10.65 13.8 L14.3 16.15 13.15 15.55 Q11.65 14.7 10.95 14.4 L10.75 14.35 10.7 14.35 7.8 12.7 4.7 10.9 4.2 10.55" fill="#9f5400" fill-rule="evenodd" stroke="none"/>
    <path d="M15.9 9.75 L15.9 9.8 Q15.9 10.3 16.45 10.7 L16.6 10.8 19.45 12.45 Q21.3 13.65 19.95 15.05 L18.3 17.45 17.85 17.9 17.3 17.9 16.45 17.45 10.75 14.35 10.95 14.4 Q11.65 14.7 13.15 15.55 L14.3 16.15 15.1 16.6 15.35 16.7 17.2 17.25 Q17.85 17.25 18.6 16.0 19.35 14.7 19.35 13.95 19.3 13.15 18.3 12.65 L16.85 11.8 16.7 11.65 16.6 11.55 16.5 11.45 Q15.75 10.55 15.9 9.75" fill="#ffcd80" fill-rule="evenodd" stroke="none"/>
    <path d="M17.85 17.9 L17.35 18.55 16.85 19.2 15.65 19.3 15.8 19.0 16.0 18.4 Q15.95 17.9 15.3 17.65 L14.5 17.2 14.5 18.25 14.45 18.65 14.35 18.45 14.15 17.9 14.2 17.4 13.9 16.7 13.05 16.3 12.6 17.65 12.2 17.65 12.3 16.95 Q12.4 16.1 12.55 16.1 L11.65 15.35 11.05 15.3 10.7 15.5 10.55 15.7 10.45 15.7 10.55 15.4 10.5 14.9 Q10.45 14.5 9.15 13.65 L7.85 13.0 7.3 12.85 6.7 13.2 6.6 13.2 6.85 12.6 6.8 12.6 6.25 12.5 5.8 12.4 Q5.45 12.4 5.1 12.75 L4.7 13.5 4.7 13.4 5.1 12.35 5.1 12.0 4.65 12.0 3.6 12.55 3.4 12.6 Q3.15 12.35 2.75 12.35 L4.2 10.55 4.7 10.9 7.8 12.7 10.7 14.35 10.75 14.35 16.45 17.45 17.3 17.9 17.85 17.9" fill="#ecb956" fill-rule="evenodd" stroke="none"/>
    <path d="M3.4 12.6 L3.6 12.55 4.65 12.0 5.1 12.0 5.1 12.35 4.7 13.4 4.7 13.5 5.1 12.75 Q5.45 12.4 5.8 12.4 L6.25 12.5 6.8 12.6 6.85 12.6 6.6 13.2 6.7 13.2 7.3 12.85 7.85 13.0 9.15 13.65 Q10.45 14.5 10.5 14.9 L10.55 15.4 10.45 15.7 10.15 15.35 8.85 14.15 7.9 13.6 7.15 13.4 5.85 13.65 5.05 13.85 4.65 13.85 Q3.95 13.85 3.6 13.1 L3.4 12.6 M10.55 15.7 L10.7 15.5 11.05 15.3 11.65 15.35 12.55 16.1 Q12.4 16.1 12.3 16.95 L12.2 17.65 Q11.6 17.45 11.4 16.6 L10.85 15.95 10.55 15.7 M12.6 17.65 L13.05 16.3 13.9 16.7 14.2 17.4 14.15 17.9 13.5 17.55 12.6 17.65 M14.45 18.65 L14.5 18.25 14.5 17.2 15.3 17.65 Q15.95 17.9 16.0 18.4 L15.8 19.0 15.65 19.3 15.5 19.3 Q14.65 19.3 14.45 18.65" fill="#f7ddaa" fill-rule="evenodd" stroke="none"/>
    <path d="M16.85 19.2 L17.25 19.1 17.45 19.15 17.55 19.4 17.5 19.7 17.1 20.1 16.65 20.4 15.6 21.2 15.15 21.95 14.85 22.8 Q14.55 23.2 14.55 23.7 L14.5 24.15 14.2 25.35 14.25 25.8 14.85 27.1 Q15.45 28.1 15.3 29.0 L14.95 30.15 14.05 30.25 Q13.5 30.05 13.3 29.5 L13.3 28.2 13.3 27.05 13.05 25.65 12.0 24.45 11.85 24.35 10.4 23.35 9.35 22.8 9.0 22.6 7.25 21.45 5.15 19.8 5.3 19.8 Q6.6 20.3 7.45 21.0 L8.8 21.95 10.55 22.65 11.8 23.35 Q12.95 24.15 13.3 23.75 L13.45 23.3 13.4 23.2 13.45 22.4 Q13.45 21.65 14.0 21.15 L14.85 20.45 15.3 19.95 Q15.4 19.7 14.85 19.55 L14.1 19.3 13.6 18.75 Q13.35 18.3 12.95 18.35 11.95 18.35 11.35 17.9 L10.5 16.85 Q9.05 14.85 8.0 14.35 7.2 13.85 5.05 13.85 L5.85 13.65 7.15 13.4 7.9 13.6 8.85 14.15 10.15 15.35 10.45 15.7 10.55 15.7 10.85 15.95 11.4 16.6 Q11.6 17.45 12.2 17.65 L12.6 17.65 13.5 17.55 14.15 17.9 14.35 18.45 14.45 18.65 Q14.65 19.3 15.5 19.3 L15.65 19.3 16.85 19.2 M13.8 26.35 L14.0 27.1 14.2 27.75 14.1 28.6 14.0 29.5 14.05 29.8 14.35 30.0 14.8 29.35 15.0 28.4 14.55 27.3 Q14.1 26.8 13.8 25.8 L13.8 26.35" fill="#8e007d" fill-rule="evenodd" stroke="none"/>
    <path d="M5.3 14.4 L5.65 14.4 4.4 15.25 Q3.9 15.7 4.05 16.6 4.05 16.95 5.0 18.25 L6.1 19.7 4.85 18.85 3.75 17.75 3.05 17.1 2.3 16.7 1.45 16.4 Q1.0 16.15 0.95 15.75 0.9 15.5 1.3 15.25 L1.75 14.85 1.95 14.2 Q2.1 13.75 2.45 13.75 L3.15 13.95 3.35 14.15 Q3.95 14.7 4.25 14.7 L5.3 14.4" fill="#d44ead" fill-rule="evenodd" stroke="none"/>
    <path d="M5.15 19.8 L4.55 19.4 1.95 17.65 0.45 16.8 0.35 16.7 Q-0.5 16.0 0.25 15.2 L0.65 14.85 1.15 14.35 1.7 12.95 Q2.2 12.35 2.75 12.35 3.15 12.35 3.4 12.6 L3.6 13.1 Q3.95 13.85 4.65 13.85 L5.05 13.85 Q7.2 13.85 8.0 14.35 9.05 14.85 10.5 16.85 L11.35 17.9 Q11.95 18.35 12.95 18.35 13.35 18.3 13.6 18.75 L14.1 19.3 14.85 19.55 Q15.4 19.7 15.3 19.95 L14.85 20.45 14.0 21.15 Q13.45 21.65 13.45 22.4 L13.4 23.2 13.45 23.3 13.3 23.75 Q12.95 24.15 11.8 23.35 L10.55 22.65 8.8 21.95 7.45 21.0 Q6.6 20.3 5.3 19.8 L5.15 19.8 M5.3 14.4 L4.25 14.7 Q3.95 14.7 3.35 14.15 L3.15 13.95 2.45 13.75 Q2.1 13.75 1.95 14.2 L1.75 14.85 1.3 15.25 Q0.9 15.5 0.95 15.75 1.0 16.15 1.45 16.4 L2.3 16.7 3.05 17.1 3.75 17.75 4.85 18.85 6.1 19.7 5.0 18.25 Q4.05 16.95 4.05 16.6 3.9 15.7 4.4 15.25 L5.65 14.4 5.3 14.4" fill="#a42f87" fill-rule="evenodd" stroke="none"/>
    <path d="M13.8 26.35 L13.8 25.8 Q14.1 26.8 14.55 27.3 L15.0 28.4 14.8 29.35 14.35 30.0 14.05 29.8 14.0 29.5 14.1 28.6 14.2 27.75 14.0 27.1 13.8 26.35" fill="#b83da9" fill-rule="evenodd" stroke="none"/>
  </g>
  <defs>
    <linearGradient gradientTransform="matrix(0.0065, -0.0123, 0.0124, 0.006, 14.25, 7.65)" gradientUnits="userSpaceOnUse" id="gradient0" spreadMethod="pad" x1="-819.2" x2="819.2">
      <stop offset="0.0" stop-color="#a5651e"/>
      <stop offset="1.0" stop-color="#e99b39"/>
    </linearGradient>
  </defs>
</svg>
