<?xml version="1.0" encoding="UTF-8" standalone="no"?>
<svg xmlns:xlink="http://www.w3.org/1999/xlink" height="278.6px" width="760.4px" xmlns="http://www.w3.org/2000/svg">
  <g transform="matrix(1.0, 0.0, 0.0, 1.0, 15.9, -247.05)">
    <path d="M31.6 441.4 Q37.75 448.95 36.6 458.15 36.2 467.75 28.9 473.8 L28.95 473.85 Q27.6 475.85 25.7 477.55 20.3 482.1 13.15 481.6 10.7 481.5 8.6 480.75 L6.75 481.05 -0.1 482.8 Q-0.1 480.5 -0.45 478.55 L-5.15 471.4 Q-7.95 468.45 -8.75 466.45 -11.25 464.75 -12.9 464.25 L-9.55 454.25 -9.35 453.65 -9.0 453.7 Q-8.55 448.85 -6.2 444.75 -4.1 441.5 -0.85 438.85 6.35 432.6 15.7 433.55 25.15 434.3 31.6 441.4" fill="#a65959" fill-rule="evenodd" stroke="none"/>
    <path d="M31.6 441.4 Q37.75 448.95 36.6 458.15 36.2 467.75 28.9 473.8 L28.95 473.85 Q27.6 475.85 25.7 477.55 20.3 482.1 13.15 481.6 10.7 481.5 8.6 480.75 L6.75 481.05 -0.1 482.8 Q-0.1 480.5 -0.45 478.55 L-5.15 471.4 Q-7.95 468.45 -8.75 466.45 -11.25 464.75 -12.9 464.25 L-9.55 454.25 -9.35 453.65 -9.0 453.7 Q-8.55 448.85 -6.2 444.75 -4.1 441.5 -0.85 438.85 6.35 432.6 15.7 433.55 25.15 434.3 31.6 441.4 Z" fill="none" stroke="#2b2e44" stroke-linecap="round" stroke-linejoin="round" stroke-width="6.0"/>
    <path d="M15.7 432.95 Q25.25 433.8 31.7 440.9 37.8 448.45 36.65 457.6 36.25 467.15 29.0 473.2 23.5 478.3 16.8 478.75 L11.6 478.4 6.6 477.85 Q3.85 476.7 1.7 475.3 -1.35 473.55 -3.8 470.95 -6.5 467.25 -7.35 464.2 -8.5 461.5 -9.1 458.3 -9.45 455.9 -9.05 453.7 -8.7 448.5 -6.15 444.2 -4.05 441.05 -0.8 438.25 6.4 432.1 15.7 432.95" fill="#2b9be6" fill-rule="evenodd" stroke="none"/>
    <path d="M31.9 464.9 Q31.4 472.05 26.1 476.9 20.65 481.45 13.5 480.95 6.35 480.45 1.7 475.25 -3.05 469.75 -2.55 462.6 -2.05 455.45 3.35 450.85 8.65 446.05 15.8 446.55 22.95 447.05 27.75 452.5 32.4 457.75 31.9 464.9" fill="#3ebbeb" fill-rule="evenodd" stroke="none"/>
    <path d="M30.85 467.95 Q30.65 471.15 28.25 473.3 25.8 475.35 22.65 475.15 19.45 474.9 17.35 472.55 15.2 470.1 15.4 466.9 15.65 463.7 18.1 461.65 20.5 459.5 23.7 459.75 26.85 459.95 29.0 462.4 31.1 464.75 30.85 467.95" fill="#ffffff" fill-opacity="0.69411767" fill-rule="evenodd" stroke="none"/>
    <path d="M11.75 475.15 Q12.05 477.55 11.75 479.75 L6.8 480.45 -0.05 482.2 Q-0.05 479.9 -0.4 478.05 L-0.25 477.95 4.2 478.1 5.55 477.55 10.0 476.1 11.75 475.15" fill="#e6e6e6" fill-rule="evenodd" stroke="none"/>
    <path d="M-3.45 454.95 Q1.3 457.1 5.9 462.45 10.85 468.85 11.75 475.15 L10.0 476.1 5.55 477.55 4.2 478.1 -0.25 477.95 -0.4 478.05 -5.1 470.8 Q-7.85 467.85 -8.7 465.85 -8.6 464.65 -7.6 462.05 L-5.6 457.5 Q-4.7 455.75 -3.45 454.95" fill="#c8c8c8" fill-rule="evenodd" stroke="none"/>
    <path d="M-8.7 465.85 Q-11.25 464.2 -12.8 463.7 L-9.5 453.65 -9.35 453.05 Q-6.5 453.3 -3.45 454.95 -4.7 455.75 -5.6 457.5 L-7.6 462.05 Q-8.6 464.65 -8.7 465.85" fill="#a2a2a2" fill-rule="evenodd" stroke="none"/>
    <path d="M114.9 474.65 Q122.7 469.25 132.25 470.65 141.75 472.6 146.7 480.4 152.55 488.05 150.6 497.35 L150.65 497.4 Q150.95 499.75 150.55 502.3 149.2 509.3 143.4 513.4 L139.3 515.6 138.1 517.0 133.9 522.65 130.95 519.7 122.85 517.05 Q118.75 516.6 116.85 515.55 113.8 515.85 112.25 516.45 L108.45 506.65 108.35 506.0 108.55 505.9 Q105.85 501.85 105.05 497.15 104.65 493.35 105.5 489.25 107.1 479.75 114.9 474.65" fill="#a65959" fill-rule="evenodd" stroke="none"/>
    <path d="M114.9 474.65 Q122.7 469.25 132.25 470.65 141.75 472.6 146.7 480.4 152.55 488.05 150.6 497.35 L150.65 497.4 Q150.95 499.75 150.55 502.3 149.2 509.3 143.4 513.4 L139.3 515.6 138.1 517.0 133.9 522.65 130.95 519.7 122.85 517.05 Q118.75 516.6 116.85 515.55 113.8 515.85 112.25 516.45 L108.45 506.65 108.35 506.0 108.55 505.9 Q105.85 501.85 105.05 497.15 104.65 493.35 105.5 489.25 107.1 479.75 114.9 474.65 Z" fill="none" stroke="#2b2e44" stroke-linecap="round" stroke-linejoin="round" stroke-width="6.0"/>
    <path d="M105.5 489.25 Q107.1 479.75 114.9 474.65 122.7 469.25 132.25 470.65 141.75 472.6 146.7 480.4 152.55 488.05 150.6 497.35 149.65 504.7 144.8 509.35 L140.6 512.3 Q138.5 514.1 136.2 515.1 L130.85 516.25 Q127.45 516.75 123.9 516.4 119.4 515.25 116.85 513.4 114.2 512.05 111.65 509.95 110.0 508.35 108.9 506.3 105.9 502.1 105.05 497.15 104.65 493.35 105.5 489.25" fill="#2b9be6" fill-rule="evenodd" stroke="none"/>
    <path d="M147.8 489.8 Q151.95 495.65 150.9 502.7 149.55 509.7 143.75 513.85 137.9 518.0 131.0 516.85 123.85 515.7 119.7 509.85 115.55 504.05 116.85 497.0 117.9 489.9 123.75 485.75 129.55 481.6 136.75 482.85 143.65 484.0 147.8 489.8" fill="#3ebbeb" fill-rule="evenodd" stroke="none"/>
    <path d="M149.05 491.85 Q150.9 494.45 150.45 497.6 149.85 500.75 147.25 502.6 144.65 504.45 141.55 503.95 138.3 503.4 136.45 500.8 134.6 498.2 135.2 495.05 135.7 491.85 138.3 490.0 140.9 488.15 144.1 488.7 147.2 489.25 149.05 491.85" fill="#ffffff" fill-opacity="0.69411767" fill-rule="evenodd" stroke="none"/>
    <path d="M138.55 509.8 Q140.3 511.45 141.45 513.25 L138.1 517.0 133.9 522.65 130.95 519.7 131.05 519.5 Q132.6 518.85 134.6 516.85 L135.25 515.5 137.85 511.65 138.55 509.8" fill="#e6e6e6" fill-rule="evenodd" stroke="none"/>
    <path d="M130.95 519.7 L122.85 517.05 Q118.75 516.6 116.85 515.55 L115.25 511.8 113.95 507.05 Q113.55 505.15 114.0 503.75 119.05 502.35 126.0 503.75 133.95 505.45 138.55 509.8 L137.85 511.65 135.25 515.5 134.6 516.85 Q132.6 518.85 131.05 519.5 L130.95 519.7" fill="#c8c8c8" fill-rule="evenodd" stroke="none"/>
    <path d="M116.85 515.55 Q113.8 515.85 112.25 516.45 L108.45 506.65 108.35 506.0 Q110.6 504.4 114.0 503.75 113.55 505.15 113.95 507.05 L115.25 511.8 116.85 515.55" fill="#a2a2a2" fill-rule="evenodd" stroke="none"/>
    <path d="M713.95 269.2 Q721.55 267.35 725.05 267.85 729.85 268.6 731.9 273.5 732.4 274.8 732.35 276.8 737.75 277.2 740.45 278.9 744.4 281.45 744.5 284.55 744.7 289.8 733.65 295.45 725.8 299.5 717.4 301.65 709.85 303.6 703.15 304.15 L697.85 304.25 Q685.75 304.15 683.85 299.25 L681.15 301.25 678.2 303.0 Q676.3 304.0 675.2 304.25 L670.2 305.3 659.65 304.95 Q652.9 303.8 649.2 298.0 646.7 294.05 647.45 288.5 648.2 282.6 652.6 279.65 651.65 278.45 651.25 277.0 649.5 270.95 653.45 266.7 656.6 263.2 662.6 261.65 L669.0 261.25 671.0 261.6 667.45 261.95 665.7 262.25 Q658.75 264.0 656.35 269.2 654.25 273.75 656.05 280.15 L657.15 283.4 654.7 281.75 653.0 280.2 Q651.7 281.75 651.4 285.15 651.1 288.55 651.95 291.4 653.9 298.4 661.0 300.6 667.05 302.5 674.6 300.55 676.4 300.1 678.85 298.75 L682.6 296.7 682.5 296.2 Q679.2 295.9 676.7 294.95 674.15 293.9 672.35 291.9 677.3 294.4 682.95 293.75 683.4 292.55 684.45 291.15 686.7 288.0 689.7 287.15 686.95 289.5 686.1 290.65 684.7 292.5 685.5 295.4 687.25 301.6 701.0 302.2 705.35 302.45 710.8 302.0 L713.45 301.75 Q721.25 299.4 728.6 295.7 741.8 288.85 740.05 282.7 739.7 281.5 738.75 280.6 L737.05 279.25 Q734.9 277.9 732.35 277.75 732.0 279.1 731.3 280.15 L729.8 282.2 729.2 282.8 729.0 283.05 728.95 283.1 728.85 283.15 Q726.45 285.45 723.0 287.35 725.9 284.2 726.8 282.6 728.8 279.25 727.95 276.3 726.8 272.45 722.75 270.55 719.0 268.85 713.95 269.2" fill="#c0d0ce" fill-rule="evenodd" stroke="none"/>
    <path d="M671.0 261.6 L672.95 262.35 Q671.3 263.05 669.65 264.45 666.45 267.25 667.2 270.0 L667.9 271.3 668.9 272.4 Q667.7 269.6 669.5 267.2 671.35 264.7 674.65 263.75 673.95 263.1 673.55 262.05 673.15 261.45 673.05 260.85 672.4 256.05 676.55 252.05 679.95 248.9 684.6 247.7 689.4 246.45 694.0 247.6 699.25 248.95 700.9 252.95 L701.05 253.35 699.5 253.6 Q698.6 253.85 697.4 254.55 L698.3 254.35 701.4 254.55 Q703.4 254.9 704.9 256.0 706.4 257.1 706.8 258.6 707.5 261.05 706.1 263.2 704.7 265.35 701.55 266.65 L699.2 267.2 696.55 267.45 696.25 267.5 698.0 268.25 700.6 269.0 Q703.9 269.55 709.05 267.7 L709.95 268.85 Q710.3 269.4 710.3 270.2 L712.25 269.6 713.95 269.2 Q719.0 268.85 722.75 270.55 726.8 272.45 727.95 276.3 728.8 279.25 726.8 282.6 725.9 284.2 723.0 287.35 726.45 285.45 728.85 283.15 L728.95 283.1 729.0 283.05 729.8 282.2 731.3 280.15 Q732.0 279.1 732.35 277.75 734.9 277.9 737.05 279.25 L738.75 280.6 Q739.7 281.5 740.05 282.7 741.8 288.85 728.6 295.7 721.25 299.4 713.45 301.75 L710.8 302.0 Q705.35 302.45 701.0 302.2 687.25 301.6 685.5 295.4 684.7 292.5 686.1 290.65 686.95 289.5 689.7 287.15 686.7 288.0 684.45 291.15 683.4 292.55 682.95 293.75 677.3 294.4 672.35 291.9 674.15 293.9 676.7 294.95 679.2 295.9 682.5 296.2 L682.6 296.7 678.85 298.75 Q676.4 300.1 674.6 300.55 667.05 302.5 661.0 300.6 653.9 298.4 651.95 291.4 651.1 288.55 651.4 285.15 651.7 281.75 653.0 280.2 L654.7 281.75 657.15 283.4 656.05 280.15 Q654.25 273.75 656.35 269.2 658.75 264.0 665.7 262.25 L667.45 261.95 671.0 261.6" fill="#ffffff" fill-rule="evenodd" stroke="none"/>
    <path d="M672.95 262.35 L673.55 262.05 Q673.95 263.1 674.65 263.75 671.35 264.7 669.5 267.2 667.7 269.6 668.9 272.4 L667.9 271.3 667.2 270.0 Q666.45 267.25 669.65 264.45 671.3 263.05 672.95 262.35 M701.05 253.35 Q703.9 253.1 707.05 254.85 710.25 256.6 710.85 258.9 711.5 261.7 710.4 264.25 711.4 264.6 712.55 265.95 713.5 267.3 713.95 269.2 L712.25 269.6 710.3 270.2 Q710.3 269.4 709.95 268.85 L709.05 267.7 Q703.9 269.55 700.6 269.0 L698.0 268.25 696.25 267.5 696.55 267.45 699.2 267.2 701.55 266.65 Q704.7 265.35 706.1 263.2 707.5 261.05 706.8 258.6 706.4 257.1 704.9 256.0 703.4 254.9 701.4 254.55 L698.3 254.35 697.4 254.55 Q698.6 253.85 699.5 253.6 L701.05 253.35" fill="#dde7e6" fill-rule="evenodd" stroke="none"/>
  </g>
</svg>
