<?xml version="1.0" encoding="UTF-8" standalone="no"?>
<svg xmlns:xlink="http://www.w3.org/1999/xlink" height="29.7px" width="28.95px" xmlns="http://www.w3.org/2000/svg">
  <g transform="matrix(1.0, 0.0, 0.0, 1.0, -85.4, -352.9)">
    <path d="M87.0 369.6 L86.9 368.0 86.95 366.6 Q87.4 361.95 90.7 358.45 93.4 355.6 96.95 354.75 L99.95 354.4 103.25 354.75 Q105.25 355.2 107.0 356.4 L108.85 357.9 109.05 358.15 Q110.8 359.9 111.75 362.0 L112.6 364.65 112.85 367.5 Q112.85 373.05 109.05 377.05 105.3 381.05 99.95 381.1 94.5 381.25 90.7 377.35 L90.05 376.6 88.7 374.75 Q87.3 372.4 87.0 369.6" fill="#b88b34" fill-rule="evenodd" stroke="none"/>
    <path d="M87.0 369.6 L86.9 368.0 86.95 366.6 Q87.4 361.95 90.7 358.45 93.4 355.6 96.95 354.75 L99.95 354.4 103.25 354.75 Q105.25 355.2 107.0 356.4 L108.85 357.9 109.05 358.15 Q110.8 359.9 111.75 362.0 L112.6 364.65 112.85 367.5 Q112.85 373.05 109.05 377.05 105.3 381.05 99.95 381.1 94.5 381.25 90.7 377.35 L90.05 376.6 88.7 374.75 Q87.3 372.4 87.0 369.6 Z" fill="none" stroke="#874a00" stroke-linecap="round" stroke-linejoin="round" stroke-width="3.0"/>
    <path d="M90.05 376.6 L92.3 375.15 Q98.35 371.25 104.85 368.0 108.45 366.15 112.6 364.65 L112.85 367.5 Q112.85 373.05 109.05 377.05 105.3 381.05 99.95 381.1 94.5 381.25 90.7 377.35 L90.05 376.6 M111.75 362.0 Q108.3 363.2 104.5 364.95 95.15 369.25 88.7 374.75 87.3 372.4 87.0 369.6 92.7 365.25 100.9 361.3 105.25 359.25 108.85 357.9 L109.05 358.15 Q110.8 359.9 111.75 362.0 M86.95 366.6 Q87.4 361.95 90.7 358.45 93.4 355.6 96.95 354.75 L99.95 354.4 103.25 354.75 Q105.25 355.2 107.0 356.4 103.25 357.8 98.8 359.95 92.0 363.15 86.95 366.6" fill="#d29319" fill-rule="evenodd" stroke="none"/>
    <path d="M112.6 364.65 Q108.45 366.15 104.85 368.0 98.35 371.25 92.3 375.15 L90.05 376.6 88.7 374.75 Q95.15 369.25 104.5 364.95 108.3 363.2 111.75 362.0 L112.6 364.65 M87.0 369.6 L86.9 368.0 86.95 366.6 Q92.0 363.15 98.8 359.95 103.25 357.8 107.0 356.4 L108.85 357.9 Q105.25 359.25 100.9 361.3 92.7 365.25 87.0 369.6" fill="#a36c00" fill-rule="evenodd" stroke="none"/>
    <path d="M88.35 368.05 Q88.35 363.1 91.75 359.45 95.2 355.9 100.05 355.8 104.85 355.7 108.3 359.15 111.7 362.6 111.7 367.6 111.7 372.55 108.3 376.15 104.85 379.75 100.05 379.8 95.2 379.95 91.75 376.45 88.35 373.05 88.35 368.05" fill="url(#gradient0)" fill-rule="evenodd" stroke="none"/>
    <path d="M108.3 360.05 Q111.7 363.5 111.7 368.5 111.7 373.45 108.3 377.05 104.85 380.65 100.05 380.7 95.2 380.85 91.75 377.35 88.35 373.95 88.35 368.95 88.35 364.0 91.75 360.35 95.2 356.8 100.05 356.7 104.85 356.6 108.3 360.05" fill="url(#gradient1)" fill-rule="evenodd" stroke="none"/>
    <path d="M91.55 376.2 L92.45 375.65 Q98.5 371.75 105.0 368.5 108.15 366.9 111.65 365.55 L111.85 368.0 Q111.85 372.85 108.45 376.35 105.0 379.8 100.2 379.85 95.35 380.0 91.95 376.6 L91.55 376.2 M110.75 362.95 Q107.8 364.05 104.65 365.45 96.15 369.4 90.0 374.25 88.65 371.95 88.5 369.05 93.8 365.25 101.05 361.8 104.5 360.15 107.45 359.05 L108.45 359.9 Q109.9 361.3 110.75 362.95 M88.75 366.05 Q89.4 362.7 91.95 360.1 95.35 356.75 100.2 356.6 102.9 356.55 105.2 357.7 102.3 358.85 98.95 360.45 93.2 363.2 88.75 366.05" fill="url(#gradient2)" fill-rule="evenodd" stroke="none"/>
    <path d="M88.5 369.05 L88.5 368.5 Q88.5 367.2 88.75 366.05 93.2 363.2 98.95 360.45 102.3 358.85 105.2 357.7 106.4 358.2 107.45 359.05 104.5 360.15 101.05 361.8 93.8 365.25 88.5 369.05" fill="url(#gradient3)" fill-rule="evenodd" stroke="none"/>
    <path d="M111.65 365.55 Q108.15 366.9 105.0 368.5 98.5 371.75 92.45 375.65 L91.55 376.2 90.0 374.25 Q96.15 369.4 104.65 365.45 107.8 364.05 110.75 362.95 L111.65 365.55" fill="url(#gradient4)" fill-rule="evenodd" stroke="none"/>
  </g>
  <defs>
    <radialGradient cx="0" cy="0" gradientTransform="matrix(0.0148, -3.0E-4, 0.0, 0.0153, 100.05, 367.8)" gradientUnits="userSpaceOnUse" id="gradient0" r="819.2" spreadMethod="pad">
      <stop offset="0.050980392156862744" stop-color="#9c5c0f"/>
      <stop offset="1.0" stop-color="#b67800"/>
    </radialGradient>
    <radialGradient cx="0" cy="0" gradientTransform="matrix(0.0148, -3.0E-4, 0.0, 0.0153, 100.05, 368.7)" gradientUnits="userSpaceOnUse" id="gradient1" r="819.2" spreadMethod="pad">
      <stop offset="0.050980392156862744" stop-color="#c47d29"/>
      <stop offset="1.0" stop-color="#fff6b8"/>
    </radialGradient>
    <radialGradient cx="0" cy="0" gradientTransform="matrix(0.0148, -3.0E-4, 0.0, 0.0148, 100.2, 368.2)" gradientUnits="userSpaceOnUse" id="gradient2" r="819.2" spreadMethod="pad">
      <stop offset="0.050980392156862744" stop-color="#c47d29"/>
      <stop offset="1.0" stop-color="#fcc65f"/>
    </radialGradient>
    <radialGradient cx="0" cy="0" gradientTransform="matrix(0.0148, -3.0E-4, 0.0, 0.0148, 100.2, 368.2)" gradientUnits="userSpaceOnUse" id="gradient3" r="819.2" spreadMethod="pad">
      <stop offset="0.050980392156862744" stop-color="#c48629"/>
      <stop offset="1.0" stop-color="#ffe672"/>
    </radialGradient>
    <radialGradient cx="0" cy="0" gradientTransform="matrix(0.0148, -3.0E-4, 0.0, 0.0148, 100.2, 368.2)" gradientUnits="userSpaceOnUse" id="gradient4" r="819.2" spreadMethod="pad">
      <stop offset="0.050980392156862744" stop-color="#d09b35"/>
      <stop offset="1.0" stop-color="#fce473"/>
    </radialGradient>
  </defs>
</svg>
