<?xml version="1.0" encoding="UTF-8" standalone="no"?>
<svg xmlns:xlink="http://www.w3.org/1999/xlink" height="30.55px" width="21.65px" xmlns="http://www.w3.org/2000/svg">
  <g transform="matrix(1.0, 0.0, 0.0, 1.0, 0.0, 0.0)">
    <path d="M14.75 9.25 Q13.3 8.7 12.0 8.7 10.8 8.7 10.05 9.15 9.35 9.6 9.35 10.3 9.35 11.3 12.65 11.9 L12.9 11.95 15.25 12.4 Q18.3 12.95 20.0 14.7 21.65 16.35 21.65 18.9 21.65 22.65 19.5 24.9 17.3 27.15 13.0 27.75 L13.0 30.55 8.9 30.55 8.9 27.75 Q6.5 27.7 4.25 26.95 2.0 26.25 0.0 24.85 L2.75 18.25 Q4.7 19.75 6.7 20.55 8.75 21.35 10.7 21.35 L12.6 20.9 Q13.25 20.5 13.25 19.75 13.25 19.2 12.65 18.85 12.05 18.5 9.85 18.1 L7.3 17.55 Q4.4 16.95 2.7 15.05 1.05 13.15 1.05 10.35 1.05 7.25 3.25 5.15 5.45 3.05 9.2 2.6 L9.2 0.0 13.25 0.0 13.25 2.55 17.05 3.1 Q18.85 3.6 20.6 4.55 L17.9 10.85 Q16.15 9.75 14.75 9.25" fill="#fff243" fill-rule="evenodd" stroke="none"/>
  </g>
</svg>
