<?xml version="1.0" encoding="UTF-8" standalone="no"?>
<svg xmlns:xlink="http://www.w3.org/1999/xlink" height="52.05px" width="107.25px" xmlns="http://www.w3.org/2000/svg">
  <g transform="matrix(1.0, 0.0, 0.0, 1.0, -498.5, -1137.35)">
    <path d="M515.2 1186.9 Q512.35 1188.2 508.95 1188.35 505.45 1188.5 502.45 1187.3 498.6 1185.6 498.5 1182.35 498.4 1179.2 502.25 1177.4 505.15 1176.1 508.45 1176.0 512.0 1175.85 514.9 1177.05 518.9 1178.7 519.0 1181.85 519.1 1185.0 515.2 1186.9" fill="#801421" fill-rule="evenodd" stroke="none"/>
    <path d="M518.75 1139.85 L535.45 1139.35 535.5 1140.95 548.3 1162.25 547.45 1141.25 Q547.35 1140.1 548.3 1139.3 L548.85 1138.8 563.55 1138.35 564.0 1138.55 Q565.15 1139.05 565.2 1140.6 L566.4 1185.35 566.45 1187.25 550.05 1188.35 549.4 1187.8 535.9 1165.35 536.4 1186.45 536.3 1186.75 Q536.0 1187.75 535.15 1188.2 L534.75 1188.4 520.75 1189.4 520.3 1189.15 Q519.05 1188.6 518.95 1187.1 L517.4 1142.3 Q517.3 1141.15 518.2 1140.35 L518.75 1139.85" fill="#801421" fill-rule="evenodd" stroke="none"/>
    <path d="M564.0 1138.65 L564.5 1138.2 580.45 1137.35 581.05 1137.8 Q582.0 1138.55 582.0 1139.55 L583.25 1172.15 603.55 1171.4 604.0 1171.6 Q605.4 1172.25 605.4 1173.65 L605.75 1182.7 Q605.75 1184.1 604.45 1184.8 L604.05 1185.05 566.7 1186.35 566.2 1186.0 Q565.05 1185.35 565.05 1184.15 L563.15 1140.5 Q563.05 1139.5 564.0 1138.65" fill="#801421" fill-rule="evenodd" stroke="none"/>
  </g>
</svg>
