<?xml version="1.0" encoding="UTF-8" standalone="no"?>
<svg xmlns:xlink="http://www.w3.org/1999/xlink" height="71.15px" width="347.75px" xmlns="http://www.w3.org/2000/svg">
  <g transform="matrix(1.0, 0.0, 0.0, 1.0, 161.1, -6.05)">
    <path d="M175.85 28.3 Q183.65 36.2 183.65 47.3 183.65 58.4 175.85 66.3 167.95 74.2 156.85 74.2 145.7 74.2 137.85 66.3 130.0 58.4 130.0 47.3 130.0 37.05 136.75 29.55 L133.7 22.85 133.75 22.85 133.7 22.7 Q133.1 21.45 135.3 19.3 136.5 18.2 138.15 17.2 135.8 15.1 132.05 13.85 L134.5 9.05 Q139.45 10.95 143.0 14.9 145.55 13.95 147.85 13.7 150.9 13.4 151.45 14.65 L151.55 14.9 154.1 20.55 156.85 20.45 Q167.95 20.45 175.85 28.3" fill="url(#gradient0)" fill-rule="evenodd" stroke="none"/>
    <path d="M175.85 28.3 Q167.95 20.45 156.85 20.45 L154.1 20.55 151.55 14.9 151.45 14.65 Q150.9 13.4 147.85 13.7 145.55 13.95 143.0 14.9 139.45 10.95 134.5 9.05 L132.05 13.85 Q135.8 15.1 138.15 17.2 136.5 18.2 135.3 19.3 133.1 21.45 133.7 22.7 L133.75 22.85 133.7 22.85 136.75 29.55 Q130.0 37.05 130.0 47.3 130.0 58.4 137.85 66.3 145.7 74.2 156.85 74.2 167.95 74.2 175.85 66.3 183.65 58.4 183.65 47.3 183.65 36.2 175.85 28.3 Z" fill="none" stroke="#4d1d00" stroke-linecap="round" stroke-linejoin="round" stroke-width="6.0"/>
    <path d="M135.0 9.85 L132.65 9.1 -158.1 9.1 -158.1 14.65 132.35 14.65 134.25 15.55 Q136.0 16.5 137.1 17.8 L137.8 18.75 139.0 20.85 Q140.75 20.5 143.95 18.75 141.85 14.5 140.0 12.9 137.85 10.95 135.0 9.85 Z" fill="none" stroke="#4d1d00" stroke-linecap="round" stroke-linejoin="round" stroke-width="6.0"/>
    <path d="M175.9 29.0 Q183.7 36.85 183.7 47.9 183.65 59.1 175.7 66.9 167.85 74.75 156.7 74.75 145.55 74.65 137.8 66.7 129.95 58.9 130.0 47.7 130.05 36.65 138.0 28.8 145.8 20.95 156.95 21.0 168.05 21.0 175.9 29.0" fill="url(#gradient1)" fill-rule="evenodd" stroke="none"/>
    <path d="M171.05 28.5 Q177.5 35.15 177.45 44.35 177.45 53.6 170.9 60.2 164.3 66.7 155.0 66.7 145.75 66.6 139.3 60.05 132.75 53.4 132.8 44.2 132.8 34.95 139.4 28.4 145.9 21.9 155.15 21.9 164.45 21.9 171.05 28.5" fill="url(#gradient2)" fill-rule="evenodd" stroke="none"/>
    <path d="M169.25 31.7 Q171.7 37.8 168.55 44.25 165.3 50.65 158.3 53.55 151.3 56.35 144.5 54.1 137.8 51.7 135.25 45.6 132.7 39.45 135.9 33.05 139.1 26.7 146.15 23.8 153.1 20.9 159.9 23.2 166.65 25.55 169.25 31.7" fill="url(#gradient3)" fill-rule="evenodd" stroke="none"/>
    <path d="M178.65 41.05 Q171.5 45.7 163.25 48.1 154.85 50.6 146.15 49.15 137.85 47.75 130.2 44.15 131.25 35.4 138.0 28.8 145.8 20.95 156.95 21.0 168.05 21.0 175.9 29.0 180.2 33.3 182.15 38.65 L178.65 41.05" fill="url(#gradient4)" fill-rule="evenodd" stroke="none"/>
    <path d="M173.8 66.4 Q180.9 58.85 180.95 48.3 180.95 37.25 173.15 29.4 165.3 21.4 154.2 21.4 L151.25 21.55 156.95 21.0 Q168.05 21.0 175.9 29.0 183.7 36.85 183.7 47.9 183.65 57.9 177.25 65.25 L175.7 66.9 174.3 68.2 Q167.95 73.8 159.5 74.65 162.35 74.05 164.95 72.9 169.3 70.95 172.95 67.3 L173.8 66.4" fill="url(#gradient5)" fill-rule="evenodd" stroke="none"/>
    <path d="M140.6 26.45 Q143.4 24.25 146.5 23.0 140.15 30.3 140.1 40.2 140.05 51.4 147.9 59.2 155.65 67.15 166.8 67.25 L172.35 66.75 173.8 66.4 172.95 67.3 Q169.3 70.95 164.95 72.9 L163.45 73.25 157.9 73.75 Q146.75 73.65 139.0 65.7 131.15 57.9 131.2 46.7 131.25 35.65 139.2 27.8 L140.6 26.45" fill="url(#gradient6)" fill-rule="evenodd" stroke="none"/>
    <path d="M159.5 74.65 L156.7 74.75 Q145.55 74.65 137.8 66.7 129.95 58.9 130.0 47.7 130.05 36.65 138.0 28.8 L140.6 26.45 139.2 27.8 Q131.25 35.65 131.2 46.7 131.15 57.9 139.0 65.7 146.75 73.65 157.9 73.75 L163.45 73.25 164.95 72.9 Q162.35 74.05 159.5 74.65" fill="url(#gradient7)" fill-rule="evenodd" stroke="none"/>
    <path d="M135.5 30.45 L136.55 28.6 Q139.15 24.65 144.45 22.35 149.65 20.05 154.35 20.85 L156.0 21.3 Q157.15 22.1 157.7 23.35 158.95 26.3 156.7 29.8 154.45 33.3 149.95 35.25 L148.35 35.85 147.95 35.95 145.4 36.55 141.4 36.45 140.25 36.25 Q137.1 35.35 136.0 32.8 135.45 31.65 135.5 30.45" fill="url(#gradient8)" fill-rule="evenodd" stroke="none"/>
    <path d="M135.5 30.45 Q135.45 31.65 136.0 32.8 137.1 35.35 140.25 36.25 L141.4 36.45 145.4 36.55 147.95 35.95 148.35 35.85 149.95 35.25 Q154.45 33.3 156.7 29.8 158.95 26.3 157.7 23.35 157.15 22.1 156.0 21.3 157.8 21.85 159.05 22.85 L159.4 23.6 Q160.85 26.9 158.2 30.9 155.75 34.75 150.7 36.95 L148.8 37.7 148.55 37.8 145.65 38.4 Q143.35 38.7 141.1 38.35 L140.15 38.15 Q136.35 37.15 135.05 34.2 L134.8 33.6 Q134.85 32.05 135.5 30.45" fill="url(#gradient9)" fill-rule="evenodd" stroke="none"/>
    <path d="M159.05 22.85 Q160.15 23.8 160.7 25.1 162.15 28.5 159.45 32.6 156.85 36.65 151.65 38.95 L150.25 39.5 149.1 39.85 146.5 40.45 Q144.05 40.75 141.65 40.35 L140.45 40.05 Q136.65 39.05 135.35 36.1 134.8 34.85 134.8 33.6 L135.05 34.2 Q136.35 37.15 140.15 38.15 L141.1 38.35 Q143.35 38.7 145.65 38.4 L148.55 37.8 148.8 37.7 150.7 36.95 Q155.75 34.75 158.2 30.9 160.85 26.9 159.4 23.6 L159.05 22.85" fill="url(#gradient10)" fill-rule="evenodd" stroke="none"/>
    <path d="M144.1 20.8 Q144.75 23.6 146.15 26.1 148.25 29.8 150.8 29.8 153.05 29.8 154.35 28.3 155.35 27.2 156.1 24.85 L156.65 26.05 Q155.95 31.85 149.35 34.4 L148.25 34.9 145.85 29.7 Q143.85 25.05 142.65 21.4 L144.1 20.8" fill="url(#gradient11)" fill-rule="evenodd" stroke="none"/>
    <path d="M154.35 21.0 Q153.7 22.5 152.1 22.5 150.35 22.5 149.05 20.6 148.25 19.5 147.95 18.45 L151.55 14.8 154.35 21.0" fill="url(#gradient12)" fill-rule="evenodd" stroke="none"/>
    <path d="M144.1 20.8 L145.95 19.85 147.95 18.45 Q148.25 19.5 149.05 20.6 150.35 22.5 152.1 22.5 153.7 22.5 154.35 21.0 L154.65 21.6 156.1 24.85 Q155.35 27.2 154.35 28.3 153.05 29.8 150.8 29.8 148.25 29.8 146.15 26.1 144.75 23.6 144.1 20.8" fill="url(#gradient13)" fill-rule="evenodd" stroke="none"/>
    <path d="M141.05 35.15 L138.8 34.1 133.75 22.7 135.85 22.7 141.05 35.15" fill="url(#gradient14)" fill-rule="evenodd" stroke="none"/>
    <path d="M142.65 21.4 Q143.85 25.05 145.85 29.7 L148.25 34.9 141.05 35.15 135.85 22.7 Q139.5 22.55 142.65 21.4" fill="url(#gradient15)" fill-rule="evenodd" stroke="none"/>
    <path d="M149.2 14.05 Q149.9 14.25 150.15 14.8 150.75 16.15 148.55 18.2 146.3 20.3 142.6 21.95 138.95 23.55 135.95 23.85 L134.95 23.9 Q134.1 23.6 133.85 23.0 133.25 21.75 135.5 19.7 137.75 17.6 141.35 15.95 145.0 14.35 148.05 14.1 L149.2 14.05" fill="url(#gradient16)" fill-rule="evenodd" stroke="none"/>
    <path d="M134.95 23.9 L135.95 23.85 Q138.95 23.55 142.6 21.95 146.3 20.3 148.55 18.2 150.75 16.15 150.15 14.8 149.9 14.25 149.2 14.05 151.2 14.05 151.7 15.05 152.25 16.4 150.0 18.45 147.8 20.45 144.15 22.15 140.5 23.7 137.45 24.05 L134.95 23.9" fill="url(#gradient17)" fill-rule="evenodd" stroke="none"/>
    <path d="M141.9 17.1 Q144.3 16.0 146.1 15.65 148.0 15.45 148.25 16.1 148.6 16.75 147.1 17.95 145.7 19.2 143.35 20.2 140.95 21.25 139.1 21.55 137.25 21.75 136.95 21.2 136.65 20.5 138.05 19.3 139.55 18.1 141.9 17.1" fill="url(#gradient18)" fill-rule="evenodd" stroke="none"/>
    <path d="M150.9 18.25 L150.15 17.45 Q149.9 16.95 150.0 16.35 150.2 15.8 150.65 15.6 L151.5 15.65 152.3 16.45 Q152.55 17.0 152.4 17.55 152.3 18.1 151.9 18.3 L150.9 18.25" fill="#ffffff" fill-opacity="0.8" fill-rule="evenodd" stroke="none"/>
    <path d="M136.5 9.65 Q139.35 10.75 141.55 12.7 143.4 14.3 145.55 18.55 142.3 20.3 140.55 20.65 L139.3 18.55 138.6 17.6 Q137.5 16.3 135.75 15.35 L133.85 14.45 -158.0 14.45 -158.0 8.9 134.15 8.9 136.5 9.65" fill="url(#gradient19)" fill-rule="evenodd" stroke="none"/>
    <path d="M138.65 17.6 L138.25 17.35 138.85 17.2 138.9 17.2 Q140.05 16.5 141.45 16.25 L144.4 16.05 144.65 16.4 141.65 16.6 141.6 16.6 Q140.3 16.85 139.15 17.5 L139.0 17.55 138.65 17.6" fill="#ffcea1" fill-rule="evenodd" stroke="none"/>
    <path d="M138.65 17.6 L139.0 17.55 139.15 17.5 Q140.3 16.85 141.6 16.6 L141.65 16.6 144.65 16.4 144.9 16.7 145.1 17.05 142.0 17.2 Q140.75 17.45 139.75 18.0 L139.35 18.2 139.0 17.9 138.65 17.6" fill="url(#gradient20)" fill-rule="evenodd" stroke="none"/>
    <path d="M140.25 11.75 Q138.45 12.1 137.05 12.8 L137.0 12.8 Q135.7 13.45 134.6 14.45 L134.5 14.55 134.1 14.75 133.6 14.55 134.2 14.25 134.3 14.25 Q135.3 13.15 136.75 12.45 138.15 11.75 139.85 11.4 L140.25 11.75" fill="#ffcea1" fill-rule="evenodd" stroke="none"/>
    <path d="M140.25 11.75 L140.6 11.95 140.9 12.3 Q139.1 12.55 137.65 13.35 L137.6 13.35 Q136.3 13.95 135.4 14.85 L135.0 15.15 134.6 14.95 134.1 14.75 134.5 14.55 134.6 14.45 Q135.7 13.45 137.0 12.8 L137.05 12.8 Q138.45 12.1 140.25 11.75" fill="url(#gradient21)" fill-rule="evenodd" stroke="none"/>
    <path d="M131.6 8.85 L132.1 8.85 132.5 9.05 Q130.85 10.05 129.85 11.4 L129.8 11.45 Q128.85 12.55 128.3 13.8 L128.1 14.25 127.55 14.25 127.05 14.25 127.3 13.9 127.4 13.75 Q127.95 12.35 128.95 11.2 128.9 11.1 129.05 11.15 130.1 9.85 131.6 8.85" fill="url(#gradient22)" fill-rule="evenodd" stroke="none"/>
    <path d="M131.6 8.85 Q130.1 9.85 129.05 11.15 128.9 11.1 128.95 11.2 127.95 12.35 127.4 13.75 L127.3 13.9 127.05 14.25 126.45 14.25 126.95 13.7 Q127.5 12.25 128.55 10.95 129.6 9.7 131.1 8.65 L131.6 8.85" fill="#ffcea1" fill-rule="evenodd" stroke="none"/>
    <path d="M122.55 8.85 Q121.1 9.85 120.05 11.15 119.9 11.1 119.95 11.2 118.95 12.35 118.5 13.75 L118.4 13.9 118.15 14.25 117.55 14.3 118.05 13.7 Q118.6 12.25 119.55 11.0 120.6 9.7 122.05 8.65 L122.55 8.85" fill="#ffcea1" fill-rule="evenodd" stroke="none"/>
    <path d="M122.55 8.85 L123.05 8.9 123.4 9.0 Q121.85 10.05 120.85 11.4 L120.8 11.45 Q119.85 12.5 119.35 13.8 L119.15 14.25 118.65 14.25 118.15 14.25 118.4 13.9 118.5 13.75 Q118.95 12.35 119.95 11.2 119.9 11.1 120.05 11.15 121.1 9.85 122.55 8.85" fill="url(#gradient23)" fill-rule="evenodd" stroke="none"/>
    <path d="M113.1 8.85 Q111.65 9.85 110.6 11.15 110.45 11.1 110.5 11.2 109.5 12.35 109.05 13.75 L108.95 13.9 108.7 14.25 108.1 14.3 108.6 13.7 Q109.1 12.25 110.1 11.0 111.15 9.7 112.6 8.65 L113.1 8.85" fill="#ffcea1" fill-rule="evenodd" stroke="none"/>
    <path d="M113.1 8.85 L113.55 8.9 113.95 9.0 Q112.4 10.05 111.4 11.4 L111.35 11.45 Q110.4 12.5 109.9 13.8 L109.7 14.25 109.15 14.25 108.7 14.25 108.95 13.9 109.05 13.75 Q109.5 12.35 110.5 11.2 110.45 11.1 110.6 11.15 111.65 9.85 113.1 8.85" fill="url(#gradient24)" fill-rule="evenodd" stroke="none"/>
    <path d="M98.2 14.35 L97.6 14.4 98.1 13.8 Q98.6 12.35 99.6 11.1 100.65 9.8 102.1 8.75 L102.6 8.95 Q101.15 9.95 100.1 11.25 99.95 11.2 100.0 11.3 99.0 12.45 98.55 13.85 L98.45 14.0 98.2 14.35" fill="#ffcea1" fill-rule="evenodd" stroke="none"/>
    <path d="M98.2 14.35 L98.45 14.0 98.55 13.85 Q99.0 12.45 100.0 11.3 99.95 11.2 100.1 11.25 101.15 9.95 102.6 8.95 L103.05 9.0 103.45 9.1 Q101.9 10.15 100.9 11.5 L100.85 11.55 Q99.9 12.6 99.4 13.9 L99.2 14.35 98.65 14.35 98.2 14.35" fill="url(#gradient25)" fill-rule="evenodd" stroke="none"/>
    <path d="M93.25 8.95 Q91.8 9.95 90.75 11.25 90.6 11.2 90.65 11.3 89.65 12.45 89.2 13.85 L89.1 14.0 88.85 14.35 88.25 14.4 88.75 13.8 Q89.25 12.35 90.25 11.1 91.3 9.8 92.75 8.75 L93.25 8.95" fill="#ffcea1" fill-rule="evenodd" stroke="none"/>
    <path d="M93.25 8.95 L93.7 9.0 94.1 9.1 Q92.55 10.15 91.55 11.5 L91.5 11.55 Q90.55 12.6 90.05 13.9 L89.85 14.35 89.3 14.35 88.85 14.35 89.1 14.0 89.2 13.85 Q89.65 12.45 90.65 11.3 90.6 11.2 90.75 11.25 91.8 9.95 93.25 8.95" fill="url(#gradient26)" fill-rule="evenodd" stroke="none"/>
    <path d="M78.1 14.35 L78.35 14.0 78.45 13.85 Q78.9 12.45 79.9 11.3 79.85 11.2 80.0 11.25 81.05 9.95 82.5 8.95 L82.95 9.0 83.35 9.1 Q81.8 10.15 80.8 11.5 L80.75 11.55 Q79.8 12.6 79.3 13.9 L79.1 14.35 78.55 14.35 78.1 14.35" fill="url(#gradient27)" fill-rule="evenodd" stroke="none"/>
    <path d="M78.1 14.35 L77.5 14.4 78.0 13.8 Q78.5 12.35 79.5 11.1 80.55 9.8 82.0 8.75 L82.5 8.95 Q81.05 9.95 80.0 11.25 79.85 11.2 79.9 11.3 78.9 12.45 78.45 13.85 L78.35 14.0 78.1 14.35" fill="#ffcea1" fill-rule="evenodd" stroke="none"/>
    <path d="M73.3 8.95 Q71.85 9.95 70.8 11.25 70.65 11.2 70.7 11.3 69.7 12.45 69.25 13.85 L69.15 14.0 68.9 14.35 68.3 14.4 68.8 13.8 Q69.3 12.35 70.3 11.1 71.35 9.8 72.8 8.75 73.15 8.8 73.3 8.95" fill="#ffcea1" fill-rule="evenodd" stroke="none"/>
    <path d="M73.3 8.95 L73.75 9.0 74.15 9.1 Q72.6 10.15 71.6 11.5 L71.55 11.55 Q70.6 12.6 70.1 13.9 L69.9 14.35 69.35 14.35 68.9 14.35 69.15 14.0 69.25 13.85 Q69.7 12.45 70.7 11.3 70.65 11.2 70.8 11.25 71.85 9.95 73.3 8.95" fill="url(#gradient28)" fill-rule="evenodd" stroke="none"/>
    <path d="M59.1 14.35 L58.5 14.4 59.0 13.8 Q59.5 12.35 60.5 11.1 61.55 9.8 63.0 8.75 L63.5 8.95 Q62.05 9.95 61.0 11.25 60.85 11.2 60.9 11.3 59.9 12.45 59.45 13.85 L59.35 14.0 59.1 14.35" fill="#ffcea1" fill-rule="evenodd" stroke="none"/>
    <path d="M59.1 14.35 L59.35 14.0 59.45 13.85 Q59.9 12.45 60.9 11.3 60.85 11.2 61.0 11.25 62.05 9.95 63.5 8.95 L63.95 9.0 64.35 9.1 Q62.8 10.15 61.8 11.5 L61.75 11.55 Q60.8 12.6 60.3 13.9 L60.1 14.35 59.55 14.35 59.1 14.35" fill="url(#gradient29)" fill-rule="evenodd" stroke="none"/>
    <path d="M48.75 14.35 L49.0 14.0 49.1 13.85 Q49.55 12.45 50.55 11.3 50.5 11.2 50.65 11.25 51.7 9.95 53.15 8.95 L53.6 9.0 54.0 9.1 Q52.45 10.15 51.45 11.5 L51.4 11.55 Q50.45 12.6 49.95 13.9 L49.75 14.35 49.2 14.35 48.75 14.35" fill="url(#gradient30)" fill-rule="evenodd" stroke="none"/>
    <path d="M48.75 14.35 L48.15 14.4 48.65 13.8 Q49.15 12.35 50.15 11.1 51.2 9.8 52.65 8.75 L53.15 8.95 Q51.7 9.95 50.65 11.25 50.5 11.2 50.55 11.3 49.55 12.45 49.1 13.85 L49.0 14.0 48.75 14.35" fill="#ffcea1" fill-rule="evenodd" stroke="none"/>
    <path d="M39.2 14.35 L39.45 14.0 39.55 13.85 Q40.0 12.45 41.0 11.3 40.95 11.2 41.1 11.25 42.15 9.95 43.6 8.95 L44.05 9.0 44.45 9.1 Q42.9 10.15 41.9 11.5 L41.85 11.55 Q40.9 12.6 40.4 13.9 L40.2 14.35 39.65 14.35 39.2 14.35" fill="url(#gradient31)" fill-rule="evenodd" stroke="none"/>
    <path d="M39.2 14.35 L38.6 14.4 39.1 13.8 Q39.6 12.35 40.6 11.1 L43.1 8.75 43.6 8.95 Q42.15 9.95 41.1 11.25 40.95 11.2 41.0 11.3 40.0 12.45 39.55 13.85 L39.45 14.0 39.2 14.35" fill="#ffcea1" fill-rule="evenodd" stroke="none"/>
    <path d="M32.55 8.95 Q31.1 9.95 30.05 11.25 29.9 11.2 29.95 11.3 28.95 12.45 28.5 13.85 L28.4 14.0 28.15 14.35 27.55 14.4 28.05 13.8 Q28.55 12.35 29.55 11.1 30.6 9.8 32.05 8.75 L32.55 8.95" fill="#ffcea1" fill-rule="evenodd" stroke="none"/>
    <path d="M32.55 8.95 L33.0 9.0 33.4 9.1 Q31.85 10.15 30.85 11.5 L30.8 11.55 Q29.85 12.6 29.35 13.9 L29.15 14.35 28.6 14.35 28.15 14.35 28.4 14.0 28.5 13.85 Q28.95 12.45 29.95 11.3 29.9 11.2 30.05 11.25 31.1 9.95 32.55 8.95" fill="url(#gradient32)" fill-rule="evenodd" stroke="none"/>
    <path d="M21.65 8.95 L22.1 9.0 22.5 9.1 Q20.95 10.15 19.95 11.5 L19.9 11.55 Q18.95 12.6 18.45 13.9 L18.25 14.35 17.7 14.35 17.25 14.35 17.5 14.0 17.6 13.85 Q18.05 12.45 19.05 11.3 19.0 11.2 19.15 11.25 20.2 9.95 21.65 8.95" fill="url(#gradient33)" fill-rule="evenodd" stroke="none"/>
    <path d="M21.65 8.95 Q20.2 9.95 19.15 11.25 19.0 11.2 19.05 11.3 18.05 12.45 17.6 13.85 L17.5 14.0 17.25 14.35 16.65 14.4 17.15 13.8 Q17.65 12.35 18.65 11.1 19.7 9.8 21.15 8.75 L21.65 8.95" fill="#ffcea1" fill-rule="evenodd" stroke="none"/>
    <path d="M11.15 8.95 Q9.7 9.95 8.65 11.25 8.5 11.2 8.55 11.3 7.55 12.45 7.1 13.85 L7.0 14.0 6.75 14.35 6.15 14.4 6.65 13.8 Q7.15 12.35 8.15 11.1 9.2 9.8 10.65 8.75 L11.15 8.95" fill="#ffcea1" fill-rule="evenodd" stroke="none"/>
    <path d="M11.15 8.95 L11.6 9.0 12.0 9.1 Q10.45 10.15 9.45 11.5 L9.4 11.55 Q8.45 12.6 7.95 13.9 L7.75 14.35 7.2 14.35 6.75 14.35 7.0 14.0 7.1 13.85 Q7.55 12.45 8.55 11.3 8.5 11.2 8.65 11.25 9.7 9.95 11.15 8.95" fill="url(#gradient34)" fill-rule="evenodd" stroke="none"/>
    <path d="M-0.15 8.95 L0.3 9.0 0.7 9.1 Q-0.85 10.15 -1.85 11.5 L-1.9 11.55 Q-2.85 12.6 -3.35 13.9 L-3.55 14.35 -4.1 14.35 -4.55 14.35 -4.3 14.0 -4.2 13.85 Q-3.75 12.45 -2.75 11.3 -2.8 11.2 -2.65 11.25 -1.6 9.95 -0.15 8.95" fill="url(#gradient35)" fill-rule="evenodd" stroke="none"/>
    <path d="M-0.15 8.95 Q-1.6 9.95 -2.65 11.25 -2.8 11.2 -2.75 11.3 -3.75 12.45 -4.2 13.85 L-4.3 14.0 -4.55 14.35 -5.15 14.4 -4.65 13.8 Q-4.15 12.35 -3.15 11.1 -2.1 9.8 -0.65 8.75 L-0.15 8.95" fill="#ffcea1" fill-rule="evenodd" stroke="none"/>
    <path d="M-9.85 8.95 L-9.4 9.0 -9.0 9.1 Q-10.55 10.15 -11.55 11.5 L-11.6 11.55 Q-12.55 12.6 -13.05 13.9 L-13.25 14.35 -13.8 14.35 -14.25 14.35 -14.0 14.0 -13.9 13.85 Q-13.45 12.45 -12.45 11.3 -12.5 11.2 -12.35 11.25 -11.3 9.95 -9.85 8.95" fill="url(#gradient36)" fill-rule="evenodd" stroke="none"/>
    <path d="M-9.85 8.95 Q-11.3 9.95 -12.35 11.25 -12.5 11.2 -12.45 11.3 -13.45 12.45 -13.9 13.85 L-14.0 14.0 -14.25 14.35 -14.85 14.4 -14.35 13.8 Q-13.85 12.35 -12.85 11.1 L-10.35 8.75 -9.85 8.95" fill="#ffcea1" fill-rule="evenodd" stroke="none"/>
    <path d="M-21.0 8.95 Q-22.45 9.95 -23.5 11.25 -23.65 11.2 -23.6 11.3 -24.6 12.45 -25.05 13.85 L-25.15 14.0 -25.4 14.35 -26.0 14.4 -25.5 13.8 Q-25.0 12.35 -24.0 11.1 -22.95 9.8 -21.5 8.75 L-21.0 8.95" fill="#ffcea1" fill-rule="evenodd" stroke="none"/>
    <path d="M-25.4 14.35 L-25.15 14.0 -25.05 13.85 Q-24.6 12.45 -23.6 11.3 -23.65 11.2 -23.5 11.25 -22.45 9.95 -21.0 8.95 L-20.55 9.0 -20.15 9.1 Q-21.7 10.15 -22.7 11.5 L-22.75 11.55 Q-23.7 12.6 -24.2 13.9 L-24.4 14.35 -24.95 14.35 -25.4 14.35" fill="url(#gradient37)" fill-rule="evenodd" stroke="none"/>
    <path d="M-33.55 8.95 Q-35.0 9.95 -36.05 11.25 -36.2 11.2 -36.15 11.3 -37.15 12.45 -37.6 13.85 L-37.7 14.0 -37.95 14.35 -38.55 14.4 -38.05 13.8 Q-37.55 12.35 -36.55 11.1 -35.5 9.8 -34.05 8.75 L-33.55 8.95" fill="#ffcea1" fill-rule="evenodd" stroke="none"/>
    <path d="M-37.95 14.35 L-37.7 14.0 -37.6 13.85 Q-37.15 12.45 -36.15 11.3 -36.2 11.2 -36.05 11.25 -35.0 9.95 -33.55 8.95 L-33.1 9.0 -32.7 9.1 Q-34.25 10.15 -35.25 11.5 L-35.3 11.55 Q-36.25 12.6 -36.75 13.9 L-36.95 14.35 -37.5 14.35 -37.95 14.35" fill="url(#gradient38)" fill-rule="evenodd" stroke="none"/>
    <path d="M-45.65 8.95 Q-47.1 9.95 -48.15 11.25 -48.3 11.2 -48.25 11.3 -49.25 12.45 -49.7 13.85 L-49.8 14.0 -50.05 14.35 -50.65 14.4 -50.15 13.8 Q-49.65 12.35 -48.65 11.1 L-46.15 8.75 -45.65 8.95" fill="#ffcea1" fill-rule="evenodd" stroke="none"/>
    <path d="M-45.65 8.95 L-45.2 9.0 -44.8 9.1 Q-46.35 10.15 -47.35 11.5 L-47.4 11.55 Q-48.35 12.6 -48.85 13.9 L-49.05 14.35 -49.6 14.35 -50.05 14.35 -49.8 14.0 -49.7 13.85 Q-49.25 12.45 -48.25 11.3 -48.3 11.2 -48.15 11.25 -47.1 9.95 -45.65 8.95" fill="url(#gradient39)" fill-rule="evenodd" stroke="none"/>
    <path d="M-56.6 8.95 Q-58.05 9.95 -59.1 11.25 -59.25 11.2 -59.2 11.3 -60.2 12.45 -60.65 13.85 L-60.75 14.0 -61.0 14.35 -61.6 14.4 -61.1 13.8 Q-60.6 12.35 -59.6 11.1 -58.55 9.8 -57.1 8.75 -56.75 8.8 -56.6 8.95" fill="#ffcea1" fill-rule="evenodd" stroke="none"/>
    <path d="M-56.6 8.95 L-56.15 9.0 -55.75 9.1 Q-57.3 10.15 -58.3 11.5 L-58.35 11.55 Q-59.3 12.6 -59.8 13.9 L-60.0 14.35 -60.55 14.35 -61.0 14.35 -60.75 14.0 -60.65 13.85 Q-60.2 12.45 -59.2 11.3 -59.25 11.2 -59.1 11.25 -58.05 9.95 -56.6 8.95" fill="url(#gradient40)" fill-rule="evenodd" stroke="none"/>
    <path d="M-68.45 8.95 Q-69.9 9.95 -70.95 11.25 -71.1 11.2 -71.05 11.3 -72.05 12.45 -72.5 13.85 L-72.6 14.0 -72.85 14.35 -73.45 14.4 -72.95 13.8 Q-72.45 12.35 -71.45 11.1 -70.4 9.8 -68.95 8.75 L-68.45 8.95" fill="#ffcea1" fill-rule="evenodd" stroke="none"/>
    <path d="M-68.45 8.95 L-68.0 9.0 -67.6 9.1 Q-69.15 10.15 -70.15 11.5 L-70.2 11.55 Q-71.15 12.6 -71.65 13.9 L-71.85 14.35 -72.4 14.35 -72.85 14.35 -72.6 14.0 -72.5 13.85 Q-72.05 12.45 -71.05 11.3 -71.1 11.2 -70.95 11.25 -69.9 9.95 -68.45 8.95" fill="url(#gradient41)" fill-rule="evenodd" stroke="none"/>
    <path d="M-78.8 8.95 Q-80.25 9.95 -81.3 11.25 -81.45 11.2 -81.4 11.3 -82.4 12.45 -82.85 13.85 L-82.95 14.0 -83.2 14.35 -83.8 14.4 -83.3 13.8 Q-82.8 12.35 -81.8 11.1 -80.75 9.8 -79.3 8.75 L-78.8 8.95" fill="#ffcea1" fill-rule="evenodd" stroke="none"/>
    <path d="M-78.8 8.95 L-78.35 9.0 -77.95 9.1 Q-79.5 10.15 -80.5 11.5 L-80.55 11.55 Q-81.5 12.6 -82.0 13.9 L-82.2 14.35 -82.75 14.35 -83.2 14.35 -82.95 14.0 -82.85 13.85 Q-82.4 12.45 -81.4 11.3 -81.45 11.2 -81.3 11.25 -80.25 9.95 -78.8 8.95" fill="url(#gradient42)" fill-rule="evenodd" stroke="none"/>
    <path d="M-89.85 8.95 Q-91.3 9.95 -92.35 11.25 -92.5 11.2 -92.45 11.3 -93.45 12.45 -93.9 13.85 L-94.0 14.0 -94.25 14.35 -94.85 14.4 -94.35 13.8 Q-93.85 12.35 -92.85 11.1 -91.8 9.8 -90.35 8.75 L-89.85 8.95" fill="#ffcea1" fill-rule="evenodd" stroke="none"/>
    <path d="M-89.85 8.95 L-89.4 9.0 -89.0 9.1 Q-90.55 10.15 -91.55 11.5 L-91.6 11.55 Q-92.55 12.6 -93.05 13.9 L-93.25 14.35 -93.8 14.35 -94.25 14.35 -94.0 14.0 -93.9 13.85 Q-93.45 12.45 -92.45 11.3 -92.5 11.2 -92.35 11.25 -91.3 9.95 -89.85 8.95" fill="url(#gradient43)" fill-rule="evenodd" stroke="none"/>
    <path d="M-101.0 8.95 L-100.55 9.0 -100.15 9.1 Q-101.7 10.15 -102.7 11.5 L-102.75 11.55 -104.2 13.9 -104.4 14.35 -104.95 14.35 -105.4 14.35 -105.15 14.0 -105.05 13.85 Q-104.6 12.45 -103.6 11.3 -103.65 11.2 -103.5 11.25 -102.45 9.95 -101.0 8.95" fill="url(#gradient44)" fill-rule="evenodd" stroke="none"/>
    <path d="M-101.0 8.95 Q-102.45 9.95 -103.5 11.25 -103.65 11.2 -103.6 11.3 -104.6 12.45 -105.05 13.85 L-105.15 14.0 -105.4 14.35 -106.0 14.4 -105.5 13.8 Q-105.0 12.35 -104.0 11.1 -102.95 9.8 -101.5 8.75 L-101.0 8.95" fill="#ffcea1" fill-rule="evenodd" stroke="none"/>
    <path d="M-112.9 8.95 Q-114.35 9.95 -115.4 11.25 -115.55 11.2 -115.5 11.3 -116.5 12.45 -116.95 13.85 L-117.05 14.0 -117.3 14.35 -117.9 14.4 -117.4 13.8 Q-116.9 12.35 -115.9 11.1 -114.85 9.8 -113.4 8.75 L-112.9 8.95" fill="#ffcea1" fill-rule="evenodd" stroke="none"/>
    <path d="M-117.3 14.35 L-117.05 14.0 -116.95 13.85 Q-116.5 12.45 -115.5 11.3 -115.55 11.2 -115.4 11.25 -114.35 9.95 -112.9 8.95 L-112.45 9.0 -112.05 9.1 Q-113.6 10.15 -114.6 11.5 L-114.65 11.55 Q-115.6 12.6 -116.1 13.9 L-116.3 14.35 -116.85 14.35 -117.3 14.35" fill="url(#gradient45)" fill-rule="evenodd" stroke="none"/>
    <path d="M-128.1 14.35 L-127.85 14.0 -127.75 13.85 Q-127.3 12.45 -126.3 11.3 -126.35 11.2 -126.2 11.25 -125.15 9.95 -123.7 8.95 L-123.25 9.0 -122.85 9.1 Q-124.4 10.15 -125.4 11.5 L-125.45 11.55 Q-126.4 12.6 -126.9 13.9 L-127.1 14.35 -127.65 14.35 -128.1 14.35" fill="url(#gradient46)" fill-rule="evenodd" stroke="none"/>
    <path d="M-128.1 14.35 L-128.7 14.4 -128.2 13.8 Q-127.7 12.35 -126.7 11.1 -125.65 9.8 -124.2 8.75 -123.85 8.8 -123.7 8.95 -125.15 9.95 -126.2 11.25 -126.35 11.2 -126.3 11.3 -127.3 12.45 -127.75 13.85 L-127.85 14.0 -128.1 14.35" fill="#ffcea1" fill-rule="evenodd" stroke="none"/>
    <path d="M-135.3 8.95 Q-136.75 9.95 -137.8 11.25 -137.95 11.2 -137.9 11.3 -138.9 12.45 -139.35 13.85 L-139.45 14.0 -139.7 14.35 -140.3 14.4 -139.8 13.8 Q-139.3 12.35 -138.3 11.1 -137.25 9.8 -135.8 8.75 L-135.3 8.95" fill="#ffcea1" fill-rule="evenodd" stroke="none"/>
    <path d="M-139.7 14.35 L-139.45 14.0 -139.35 13.85 Q-138.9 12.45 -137.9 11.3 -137.95 11.2 -137.8 11.25 -136.75 9.95 -135.3 8.95 L-134.85 9.0 -134.45 9.1 Q-136.0 10.15 -137.0 11.5 L-137.05 11.55 Q-138.0 12.6 -138.5 13.9 L-138.7 14.35 -139.25 14.35 -139.7 14.35" fill="url(#gradient47)" fill-rule="evenodd" stroke="none"/>
    <path d="M-148.2 8.95 Q-149.65 9.95 -150.7 11.25 -150.85 11.2 -150.8 11.3 -151.8 12.45 -152.25 13.85 L-152.35 14.0 -152.6 14.35 -153.2 14.4 -152.7 13.8 Q-152.2 12.35 -151.2 11.1 -150.15 9.8 -148.7 8.75 -148.35 8.8 -148.2 8.95" fill="#ffcea1" fill-rule="evenodd" stroke="none"/>
    <path d="M-152.6 14.35 L-152.35 14.0 -152.25 13.85 Q-151.8 12.45 -150.8 11.3 -150.85 11.2 -150.7 11.25 -149.65 9.95 -148.2 8.95 L-147.75 9.0 -147.35 9.1 Q-148.9 10.15 -149.9 11.5 L-149.95 11.55 Q-150.9 12.6 -151.4 13.9 L-151.6 14.35 -152.15 14.35 -152.6 14.35" fill="url(#gradient48)" fill-rule="evenodd" stroke="none"/>
  </g>
  <defs>
    <linearGradient gradientTransform="matrix(-0.0048, -0.0268, -0.0269, 0.0048, 155.1, 43.7)" gradientUnits="userSpaceOnUse" id="gradient0" spreadMethod="pad" x1="-819.2" x2="819.2">
      <stop offset="0.0" stop-color="#3c3c3c"/>
      <stop offset="1.0" stop-color="#858585"/>
    </linearGradient>
    <linearGradient gradientTransform="matrix(-0.0056, -0.0323, -0.0323, 0.0056, 156.85, 47.8)" gradientUnits="userSpaceOnUse" id="gradient1" spreadMethod="pad" x1="-819.2" x2="819.2">
      <stop offset="0.0" stop-color="#272727"/>
      <stop offset="1.0" stop-color="#696969"/>
    </linearGradient>
    <linearGradient gradientTransform="matrix(-0.0047, -0.0269, -0.0269, 0.0047, 155.15, 44.3)" gradientUnits="userSpaceOnUse" id="gradient2" spreadMethod="pad" x1="-819.2" x2="819.2">
      <stop offset="0.0" stop-color="#3c3c3c"/>
      <stop offset="1.0" stop-color="#858585"/>
    </linearGradient>
    <linearGradient gradientTransform="matrix(-0.0092, -0.0241, -0.0212, 0.007, 151.35, 32.0)" gradientUnits="userSpaceOnUse" id="gradient3" spreadMethod="pad" x1="-819.2" x2="819.2">
      <stop offset="0.0" stop-color="#5b5b5b"/>
      <stop offset="1.0" stop-color="#a6a6a6"/>
    </linearGradient>
    <linearGradient gradientTransform="matrix(0.0045, 0.0353, 0.0324, -0.0042, 159.55, 19.35)" gradientUnits="userSpaceOnUse" id="gradient4" spreadMethod="pad" x1="-819.2" x2="819.2">
      <stop offset="0.0" stop-color="#ffffff"/>
      <stop offset="1.0" stop-color="#ffffff" stop-opacity="0.0"/>
    </linearGradient>
    <linearGradient gradientTransform="matrix(-0.0152, -0.029, -0.029, 0.0152, 154.4, 50.3)" gradientUnits="userSpaceOnUse" id="gradient5" spreadMethod="pad" x1="-819.2" x2="819.2">
      <stop offset="0.0" stop-color="#777777"/>
      <stop offset="1.0" stop-color="#ffffff"/>
    </linearGradient>
    <linearGradient gradientTransform="matrix(-0.0056, -0.0323, -0.0323, 0.0056, 156.85, 47.8)" gradientUnits="userSpaceOnUse" id="gradient6" spreadMethod="pad" x1="-819.2" x2="819.2">
      <stop offset="0.0" stop-color="#191919"/>
      <stop offset="1.0" stop-color="#5b5b5b"/>
    </linearGradient>
    <linearGradient gradientTransform="matrix(-0.0056, -0.0323, -0.0323, 0.0056, 156.85, 47.8)" gradientUnits="userSpaceOnUse" id="gradient7" spreadMethod="pad" x1="-819.2" x2="819.2">
      <stop offset="0.0" stop-color="#3a3a3a"/>
      <stop offset="1.0" stop-color="#919191"/>
    </linearGradient>
    <linearGradient gradientTransform="matrix(-0.0056, -0.0127, -0.0081, 0.0036, 148.05, 30.6)" gradientUnits="userSpaceOnUse" id="gradient8" spreadMethod="pad" x1="-819.2" x2="819.2">
      <stop offset="0.0" stop-color="#333333"/>
      <stop offset="1.0" stop-color="#585858"/>
    </linearGradient>
    <linearGradient gradientTransform="matrix(-0.0056, -0.0127, -0.0081, 0.0036, 148.05, 30.6)" gradientUnits="userSpaceOnUse" id="gradient9" spreadMethod="pad" x1="-819.2" x2="819.2">
      <stop offset="0.0" stop-color="#b1b1b1"/>
      <stop offset="1.0" stop-color="#666666"/>
    </linearGradient>
    <linearGradient gradientTransform="matrix(-0.0056, -0.0127, -0.0081, 0.0036, 148.05, 30.6)" gradientUnits="userSpaceOnUse" id="gradient10" spreadMethod="pad" x1="-819.2" x2="819.2">
      <stop offset="0.0" stop-color="#333333"/>
      <stop offset="1.0" stop-color="#484848"/>
    </linearGradient>
    <linearGradient gradientTransform="matrix(0.0138, -0.0013, -7.0E-4, -0.0075, 147.35, 25.15)" gradientUnits="userSpaceOnUse" id="gradient11" spreadMethod="pad" x1="-819.2" x2="819.2">
      <stop offset="0.0" stop-color="#2c2c2c"/>
      <stop offset="1.0" stop-color="#5f5f5f"/>
    </linearGradient>
    <linearGradient gradientTransform="matrix(0.0138, -0.0013, -7.0E-4, -0.0075, 147.35, 25.15)" gradientUnits="userSpaceOnUse" id="gradient12" spreadMethod="pad" x1="-819.2" x2="819.2">
      <stop offset="0.0" stop-color="#b8b8b8"/>
      <stop offset="1.0" stop-color="#838383"/>
    </linearGradient>
    <linearGradient gradientTransform="matrix(0.0138, -0.0013, -7.0E-4, -0.0075, 147.35, 25.15)" gradientUnits="userSpaceOnUse" id="gradient13" spreadMethod="pad" x1="-819.2" x2="819.2">
      <stop offset="0.0" stop-color="#585858"/>
      <stop offset="1.0" stop-color="#838383"/>
    </linearGradient>
    <linearGradient gradientTransform="matrix(0.0138, -0.0013, -7.0E-4, -0.0075, 147.35, 25.15)" gradientUnits="userSpaceOnUse" id="gradient14" spreadMethod="pad" x1="-819.2" x2="819.2">
      <stop offset="0.0" stop-color="#3f3f3f"/>
      <stop offset="1.0" stop-color="#5f5f5f"/>
    </linearGradient>
    <linearGradient gradientTransform="matrix(0.0138, -0.0013, -7.0E-4, -0.0075, 147.35, 25.15)" gradientUnits="userSpaceOnUse" id="gradient15" spreadMethod="pad" x1="-819.2" x2="819.2">
      <stop offset="0.0" stop-color="#2c2c2c"/>
      <stop offset="1.0" stop-color="#2c2c2c"/>
    </linearGradient>
    <linearGradient gradientTransform="matrix(-0.0067, -0.0056, -0.0027, 0.0032, 143.95, 18.35)" gradientUnits="userSpaceOnUse" id="gradient16" spreadMethod="pad" x1="-819.2" x2="819.2">
      <stop offset="0.0" stop-color="#5d5d5d"/>
      <stop offset="1.0" stop-color="#8a8a8a"/>
    </linearGradient>
    <linearGradient gradientTransform="matrix(-0.0067, -0.0056, -0.0027, 0.0032, 143.95, 18.35)" gradientUnits="userSpaceOnUse" id="gradient17" spreadMethod="pad" x1="-819.2" x2="819.2">
      <stop offset="0.0" stop-color="#cdcdcd"/>
      <stop offset="1.0" stop-color="#838383"/>
    </linearGradient>
    <linearGradient gradientTransform="matrix(-0.0039, -0.0027, -0.0018, 0.0018, 143.4, 18.25)" gradientUnits="userSpaceOnUse" id="gradient18" spreadMethod="pad" x1="-819.2" x2="819.2">
      <stop offset="0.0" stop-color="#1e1e1e"/>
      <stop offset="1.0" stop-color="#3a3a3a"/>
    </linearGradient>
    <linearGradient gradientTransform="matrix(0.1783, 0.0, 0.0, 0.0034, -11.95, 11.65)" gradientUnits="userSpaceOnUse" id="gradient19" spreadMethod="pad" x1="-819.2" x2="819.2">
      <stop offset="0.00392156862745098" stop-color="#d4975d"/>
      <stop offset="1.0" stop-color="#c4772d"/>
    </linearGradient>
    <linearGradient gradientTransform="matrix(0.0075, 0.0042, 0.0042, -0.0105, 140.3, 17.95)" gradientUnits="userSpaceOnUse" id="gradient20" spreadMethod="pad" x1="-819.2" x2="819.2">
      <stop offset="0.0" stop-color="#936132"/>
      <stop offset="1.0" stop-color="#703f11"/>
    </linearGradient>
    <linearGradient gradientTransform="matrix(0.0093, 0.0024, 0.0015, -0.0126, 136.05, 14.6)" gradientUnits="userSpaceOnUse" id="gradient21" spreadMethod="pad" x1="-819.2" x2="819.2">
      <stop offset="0.0" stop-color="#936132"/>
      <stop offset="1.0" stop-color="#703f11"/>
    </linearGradient>
    <linearGradient gradientTransform="matrix(0.0098, -0.0016, -0.0038, -0.0126, 128.85, 13.3)" gradientUnits="userSpaceOnUse" id="gradient22" spreadMethod="pad" x1="-819.2" x2="819.2">
      <stop offset="0.0" stop-color="#936132"/>
      <stop offset="1.0" stop-color="#703f11"/>
    </linearGradient>
    <linearGradient gradientTransform="matrix(0.0097, -0.0017, -0.004, -0.0124, 119.9, 13.25)" gradientUnits="userSpaceOnUse" id="gradient23" spreadMethod="pad" x1="-819.2" x2="819.2">
      <stop offset="0.0" stop-color="#936132"/>
      <stop offset="1.0" stop-color="#703f11"/>
    </linearGradient>
    <linearGradient gradientTransform="matrix(0.0097, -0.0017, -0.004, -0.0124, 110.45, 13.25)" gradientUnits="userSpaceOnUse" id="gradient24" spreadMethod="pad" x1="-819.2" x2="819.2">
      <stop offset="0.0" stop-color="#936132"/>
      <stop offset="1.0" stop-color="#703f11"/>
    </linearGradient>
    <linearGradient gradientTransform="matrix(0.0097, -0.0017, -0.004, -0.0124, 99.95, 13.35)" gradientUnits="userSpaceOnUse" id="gradient25" spreadMethod="pad" x1="-819.2" x2="819.2">
      <stop offset="0.0" stop-color="#936132"/>
      <stop offset="1.0" stop-color="#703f11"/>
    </linearGradient>
    <linearGradient gradientTransform="matrix(0.0097, -0.0017, -0.004, -0.0124, 90.6, 13.35)" gradientUnits="userSpaceOnUse" id="gradient26" spreadMethod="pad" x1="-819.2" x2="819.2">
      <stop offset="0.0" stop-color="#936132"/>
      <stop offset="1.0" stop-color="#703f11"/>
    </linearGradient>
    <linearGradient gradientTransform="matrix(0.0097, -0.0017, -0.004, -0.0124, 79.85, 13.35)" gradientUnits="userSpaceOnUse" id="gradient27" spreadMethod="pad" x1="-819.2" x2="819.2">
      <stop offset="0.0" stop-color="#936132"/>
      <stop offset="1.0" stop-color="#703f11"/>
    </linearGradient>
    <linearGradient gradientTransform="matrix(0.0097, -0.0017, -0.004, -0.0124, 70.65, 13.35)" gradientUnits="userSpaceOnUse" id="gradient28" spreadMethod="pad" x1="-819.2" x2="819.2">
      <stop offset="0.0" stop-color="#936132"/>
      <stop offset="1.0" stop-color="#703f11"/>
    </linearGradient>
    <linearGradient gradientTransform="matrix(0.0097, -0.0017, -0.004, -0.0124, 60.85, 13.35)" gradientUnits="userSpaceOnUse" id="gradient29" spreadMethod="pad" x1="-819.2" x2="819.2">
      <stop offset="0.0" stop-color="#936132"/>
      <stop offset="1.0" stop-color="#703f11"/>
    </linearGradient>
    <linearGradient gradientTransform="matrix(0.0097, -0.0017, -0.004, -0.0124, 50.5, 13.35)" gradientUnits="userSpaceOnUse" id="gradient30" spreadMethod="pad" x1="-819.2" x2="819.2">
      <stop offset="0.0" stop-color="#936132"/>
      <stop offset="1.0" stop-color="#703f11"/>
    </linearGradient>
    <linearGradient gradientTransform="matrix(0.0097, -0.0017, -0.004, -0.0124, 40.95, 13.35)" gradientUnits="userSpaceOnUse" id="gradient31" spreadMethod="pad" x1="-819.2" x2="819.2">
      <stop offset="0.0" stop-color="#936132"/>
      <stop offset="1.0" stop-color="#703f11"/>
    </linearGradient>
    <linearGradient gradientTransform="matrix(0.0097, -0.0017, -0.004, -0.0124, 29.9, 13.35)" gradientUnits="userSpaceOnUse" id="gradient32" spreadMethod="pad" x1="-819.2" x2="819.2">
      <stop offset="0.0" stop-color="#936132"/>
      <stop offset="1.0" stop-color="#703f11"/>
    </linearGradient>
    <linearGradient gradientTransform="matrix(0.0097, -0.0017, -0.004, -0.0124, 19.0, 13.35)" gradientUnits="userSpaceOnUse" id="gradient33" spreadMethod="pad" x1="-819.2" x2="819.2">
      <stop offset="0.0" stop-color="#936132"/>
      <stop offset="1.0" stop-color="#703f11"/>
    </linearGradient>
    <linearGradient gradientTransform="matrix(0.0097, -0.0017, -0.004, -0.0124, 8.5, 13.35)" gradientUnits="userSpaceOnUse" id="gradient34" spreadMethod="pad" x1="-819.2" x2="819.2">
      <stop offset="0.0" stop-color="#936132"/>
      <stop offset="1.0" stop-color="#703f11"/>
    </linearGradient>
    <linearGradient gradientTransform="matrix(0.0097, -0.0017, -0.004, -0.0124, -2.8, 13.35)" gradientUnits="userSpaceOnUse" id="gradient35" spreadMethod="pad" x1="-819.2" x2="819.2">
      <stop offset="0.0" stop-color="#936132"/>
      <stop offset="1.0" stop-color="#703f11"/>
    </linearGradient>
    <linearGradient gradientTransform="matrix(0.0097, -0.0017, -0.004, -0.0124, -12.5, 13.35)" gradientUnits="userSpaceOnUse" id="gradient36" spreadMethod="pad" x1="-819.2" x2="819.2">
      <stop offset="0.0" stop-color="#936132"/>
      <stop offset="1.0" stop-color="#703f11"/>
    </linearGradient>
    <linearGradient gradientTransform="matrix(0.0097, -0.0017, -0.004, -0.0124, -23.65, 13.35)" gradientUnits="userSpaceOnUse" id="gradient37" spreadMethod="pad" x1="-819.2" x2="819.2">
      <stop offset="0.0" stop-color="#936132"/>
      <stop offset="1.0" stop-color="#703f11"/>
    </linearGradient>
    <linearGradient gradientTransform="matrix(0.0097, -0.0017, -0.004, -0.0124, -36.2, 13.35)" gradientUnits="userSpaceOnUse" id="gradient38" spreadMethod="pad" x1="-819.2" x2="819.2">
      <stop offset="0.0" stop-color="#936132"/>
      <stop offset="1.0" stop-color="#703f11"/>
    </linearGradient>
    <linearGradient gradientTransform="matrix(0.0097, -0.0017, -0.004, -0.0124, -48.3, 13.35)" gradientUnits="userSpaceOnUse" id="gradient39" spreadMethod="pad" x1="-819.2" x2="819.2">
      <stop offset="0.0" stop-color="#936132"/>
      <stop offset="1.0" stop-color="#703f11"/>
    </linearGradient>
    <linearGradient gradientTransform="matrix(0.0097, -0.0017, -0.004, -0.0124, -59.25, 13.35)" gradientUnits="userSpaceOnUse" id="gradient40" spreadMethod="pad" x1="-819.2" x2="819.2">
      <stop offset="0.0" stop-color="#936132"/>
      <stop offset="1.0" stop-color="#703f11"/>
    </linearGradient>
    <linearGradient gradientTransform="matrix(0.0097, -0.0017, -0.004, -0.0124, -71.1, 13.35)" gradientUnits="userSpaceOnUse" id="gradient41" spreadMethod="pad" x1="-819.2" x2="819.2">
      <stop offset="0.0" stop-color="#936132"/>
      <stop offset="1.0" stop-color="#703f11"/>
    </linearGradient>
    <linearGradient gradientTransform="matrix(0.0097, -0.0017, -0.004, -0.0124, -81.45, 13.35)" gradientUnits="userSpaceOnUse" id="gradient42" spreadMethod="pad" x1="-819.2" x2="819.2">
      <stop offset="0.0" stop-color="#936132"/>
      <stop offset="1.0" stop-color="#703f11"/>
    </linearGradient>
    <linearGradient gradientTransform="matrix(0.0097, -0.0017, -0.004, -0.0124, -92.5, 13.35)" gradientUnits="userSpaceOnUse" id="gradient43" spreadMethod="pad" x1="-819.2" x2="819.2">
      <stop offset="0.0" stop-color="#936132"/>
      <stop offset="1.0" stop-color="#703f11"/>
    </linearGradient>
    <linearGradient gradientTransform="matrix(0.0097, -0.0017, -0.004, -0.0124, -103.65, 13.35)" gradientUnits="userSpaceOnUse" id="gradient44" spreadMethod="pad" x1="-819.2" x2="819.2">
      <stop offset="0.0" stop-color="#936132"/>
      <stop offset="1.0" stop-color="#703f11"/>
    </linearGradient>
    <linearGradient gradientTransform="matrix(0.0097, -0.0017, -0.004, -0.0124, -115.55, 13.35)" gradientUnits="userSpaceOnUse" id="gradient45" spreadMethod="pad" x1="-819.2" x2="819.2">
      <stop offset="0.0" stop-color="#936132"/>
      <stop offset="1.0" stop-color="#703f11"/>
    </linearGradient>
    <linearGradient gradientTransform="matrix(0.0097, -0.0017, -0.004, -0.0124, -126.35, 13.35)" gradientUnits="userSpaceOnUse" id="gradient46" spreadMethod="pad" x1="-819.2" x2="819.2">
      <stop offset="0.0" stop-color="#936132"/>
      <stop offset="1.0" stop-color="#703f11"/>
    </linearGradient>
    <linearGradient gradientTransform="matrix(0.0097, -0.0017, -0.004, -0.0124, -137.95, 13.35)" gradientUnits="userSpaceOnUse" id="gradient47" spreadMethod="pad" x1="-819.2" x2="819.2">
      <stop offset="0.0" stop-color="#936132"/>
      <stop offset="1.0" stop-color="#703f11"/>
    </linearGradient>
    <linearGradient gradientTransform="matrix(0.0097, -0.0017, -0.004, -0.0124, -150.85, 13.35)" gradientUnits="userSpaceOnUse" id="gradient48" spreadMethod="pad" x1="-819.2" x2="819.2">
      <stop offset="0.0" stop-color="#936132"/>
      <stop offset="1.0" stop-color="#703f11"/>
    </linearGradient>
  </defs>
</svg>
