<?xml version="1.0" encoding="UTF-8" standalone="no"?>
<svg xmlns:xlink="http://www.w3.org/1999/xlink" height="47.0px" width="45.0px" xmlns="http://www.w3.org/2000/svg">
  <g transform="matrix(1.0, 0.0, 0.0, 1.0, -2.2, -2.1)">
    <path d="M45.95 2.1 L46.0 2.45 47.2 47.15 33.55 48.05 18.15 22.3 Q17.95 21.9 17.45 21.9 16.6 21.9 16.6 22.45 L17.2 47.95 17.0 48.2 3.95 49.1 Q3.75 49.05 3.75 48.8 L2.2 3.95 Q2.15 3.8 2.35 3.6 L16.3 3.15 16.3 3.3 31.65 28.8 Q31.9 29.2 32.45 29.2 33.3 29.1 33.25 28.65 L32.25 2.9 32.45 2.55 45.95 2.1" fill="#ff0000" fill-rule="evenodd" stroke="none"/>
  </g>
</svg>
