<?xml version="1.0" encoding="UTF-8" standalone="no"?>
<svg xmlns:xlink="http://www.w3.org/1999/xlink" height="50.95px" width="162.2px" xmlns="http://www.w3.org/2000/svg">
  <g transform="matrix(1.0, 0.0, 0.0, 1.0, -7.85, 3.7)">
    <path d="M164.2 10.45 Q170.05 16.3 170.05 24.55 170.05 32.8 164.2 38.65 158.35 44.5 150.15 44.5 L42.5 44.5 Q34.25 44.5 28.4 38.65 22.55 32.8 22.55 24.55 22.55 16.3 28.35 10.45 L28.4 10.45 Q34.25 4.6 42.5 4.6 L150.15 4.6 Q158.35 4.6 164.2 10.45" fill="#ffffff" fill-rule="evenodd" stroke="none"/>
    <path d="M162.4 12.25 Q167.55 17.4 167.55 24.55 167.55 31.7 162.45 36.8 L162.4 36.85 Q157.3 41.95 150.15 41.95 L42.5 41.95 Q35.3 41.95 30.2 36.8 25.1 31.7 25.1 24.55 25.1 17.4 30.2 12.25 35.3 7.15 42.5 7.15 L150.15 7.15 Q157.3 7.15 162.4 12.25" fill="#663311" fill-rule="evenodd" stroke="none"/>
    <path d="M150.15 8.45 Q156.8 8.45 161.5 13.15 166.25 17.9 166.25 24.55 166.25 31.2 161.5 35.9 156.8 40.65 150.15 40.65 L42.45 40.65 Q35.8 40.65 31.05 35.9 26.35 31.2 26.35 24.55 26.35 17.9 31.05 13.15 35.8 8.45 42.45 8.45 L150.15 8.45" fill="url(#gradient0)" fill-rule="evenodd" stroke="none"/>
    <path d="M150.1 8.45 Q156.75 8.45 161.45 13.15 166.2 17.9 166.2 24.55 L166.2 24.95 26.35 24.95 26.35 24.55 Q26.35 17.9 31.05 13.15 35.8 8.45 42.45 8.45 L150.1 8.45" fill="url(#gradient1)" fill-rule="evenodd" stroke="none"/>
    <path d="M43.05 29.8 L41.5 34.05 36.0 41.0 34.9 42.0 32.4 43.25 32.3 43.25 29.45 42.95 Q18.45 38.8 15.7 30.15 L11.85 7.35 11.95 7.35 11.95 7.3 14.55 6.65 21.35 3.45 23.0 2.15 24.6 0.6 24.55 0.35 24.8 0.45 24.85 0.3 24.95 0.55 Q31.3 3.6 39.25 2.45 L43.45 25.2 Q43.55 27.5 43.05 29.8" fill="#fef081" fill-rule="evenodd" stroke="none"/>
    <path d="M43.05 29.8 Q43.55 27.5 43.45 25.2 L39.25 2.45 Q31.3 3.6 24.95 0.55 L24.85 0.3 24.8 0.45 24.55 0.35 24.6 0.6 23.0 2.15 21.35 3.45 14.55 6.65 11.95 7.3 11.95 7.35 11.85 7.35 15.7 30.15 Q18.45 38.8 29.45 42.95 L32.3 43.25 32.4 43.25 34.9 42.0 36.0 41.0 41.5 34.05 43.05 29.8 Z" fill="none" stroke="#ffffff" stroke-linecap="round" stroke-linejoin="round" stroke-width="8.0"/>
    <path d="M24.8 0.3 L24.85 0.55 Q31.2 3.65 39.1 2.55 L43.35 25.25 Q43.75 34.25 34.8 41.9 L32.25 43.25 29.4 42.9 Q18.35 38.75 15.65 30.15 L11.8 7.35 Q19.6 5.75 24.55 0.6 L24.5 0.35 24.65 0.5 24.8 0.3 M31.8 41.05 L31.85 41.0 31.8 41.0 31.8 41.05" fill="#000000" fill-rule="evenodd" stroke="none"/>
    <path d="M24.8 0.3 L24.65 0.5 24.5 0.35 24.55 0.6 Q19.6 5.75 11.8 7.35 L15.65 30.15 Q18.35 38.75 29.4 42.9 L32.25 43.25 34.8 41.9 Q43.75 34.25 43.35 25.25 L39.1 2.55 Q31.2 3.65 24.85 0.55 L24.8 0.3 Z" fill="none" stroke="#5e3700" stroke-linecap="round" stroke-linejoin="round" stroke-width="3.0"/>
    <path d="M38.1 5.45 L38.25 6.0 41.85 25.25 Q42.2 33.9 33.2 41.25 L32.1 41.8 30.85 41.7 Q19.9 37.85 17.2 29.6 L14.0 10.3 13.95 9.7 Q15.9 9.1 15.55 7.5 L16.2 7.3 Q21.3 5.8 25.0 2.65 L24.95 2.4 Q29.6 4.25 35.15 3.95 L35.8 3.9 Q36.1 5.5 38.1 5.45 M34.35 5.8 Q28.65 6.05 25.45 5.05 L25.45 5.2 Q22.7 7.1 17.6 8.75 17.65 10.45 16.25 11.25 L19.05 27.5 Q20.65 34.5 26.8 37.65 L31.65 39.6 35.65 36.1 Q40.45 30.6 39.4 23.9 L36.4 7.7 Q34.95 7.4 34.35 5.8 M35.35 4.8 L35.25 4.75 35.05 4.8 35.35 4.8 M32.55 40.75 L32.8 40.6 33.0 40.45 32.55 40.75 M16.6 8.05 L16.45 8.1 16.3 8.15 16.6 8.05 M32.1 40.95 L31.9 41.0 31.95 41.0 32.1 40.95 M31.95 40.95 L31.9 40.95 31.9 41.0 31.95 40.95" fill="#ce9717" fill-rule="evenodd" stroke="none"/>
    <path d="M35.35 4.8 L35.05 4.8 35.25 4.75 35.35 4.8 M16.6 8.05 L16.3 8.15 16.45 8.1 16.6 8.05 M32.55 40.75 L33.0 40.45 32.8 40.6 32.55 40.75 M32.1 40.95 L31.95 41.0 31.9 41.0 32.1 40.95" fill="#a58d8d" fill-rule="evenodd" stroke="none"/>
    <path d="M34.35 5.8 Q34.95 7.4 36.4 7.7 L39.4 23.9 Q40.45 30.6 35.65 36.1 L31.65 39.6 26.8 37.65 Q20.65 34.5 19.05 27.5 L16.25 11.25 Q17.65 10.45 17.6 8.75 22.7 7.1 25.45 5.2 L25.45 5.05 Q28.65 6.05 34.35 5.8" fill="#ffe16f" fill-rule="evenodd" stroke="none"/>
    <path d="M38.1 5.45 Q36.1 5.5 35.8 3.9 L35.15 3.95 Q29.6 4.25 24.95 2.4 L25.0 2.65 Q21.3 5.8 16.2 7.3 L15.55 7.5 Q15.9 9.1 13.95 9.7 L14.0 10.3 17.2 29.6 Q19.9 37.85 30.85 41.7 L32.1 41.8 33.2 41.25 Q42.2 33.9 41.85 25.25 L38.25 6.0 38.1 5.45 M24.6 0.35 L24.8 0.4 24.9 0.3 24.95 0.55 Q31.3 3.6 39.2 2.45 L43.4 25.15 Q43.8 34.2 34.9 41.9 L32.35 43.2 29.45 42.85 Q18.45 38.7 15.75 30.05 L11.85 7.3 Q19.65 5.65 24.65 0.6 L24.6 0.35" fill="#fff8bb" fill-rule="evenodd" stroke="none"/>
    <path d="M32.5 5.9 L34.4 5.8 Q35.0 7.4 36.5 7.7 L39.45 23.95 Q40.5 30.65 35.7 36.15 L31.75 39.7 29.3 38.75 33.2 35.2 Q37.95 29.7 37.0 23.0 L34.0 6.75 Q33.1 6.55 32.5 5.9" fill="#ecbd02" fill-rule="evenodd" stroke="none"/>
    <path d="M28.45 7.1 L28.5 7.3 Q25.75 9.2 20.65 10.8 20.7 12.45 19.3 13.3 L22.05 29.55 Q23.25 34.65 26.9 37.7 L26.85 37.75 Q20.7 34.55 19.1 27.55 L16.3 11.3 Q17.7 10.5 17.6 8.8 22.75 7.2 25.5 5.3 L25.5 5.1 Q28.7 6.15 34.35 5.8 34.95 7.4 36.45 7.7 L36.5 7.85 Q31.45 8.05 28.45 7.1" fill="#ffffff" fill-rule="evenodd" stroke="none"/>
    <path d="M39.55 12.5 L40.4 17.5 15.75 21.85 14.9 16.85 39.55 12.5" fill="#ce9717" fill-rule="evenodd" stroke="none"/>
    <path d="M39.2 13.45 L39.8 16.7 16.3 20.85 15.7 17.6 39.2 13.45" fill="#ff9c09" fill-rule="evenodd" stroke="none"/>
    <path d="M28.15 4.9 L34.1 38.4 32.15 41.75 29.1 39.3 23.15 5.8 25.25 2.55 28.15 4.9" fill="#ce9717" fill-rule="evenodd" stroke="none"/>
    <path d="M27.4 5.9 L33.05 37.85 31.9 40.55 29.75 38.4 24.1 6.45 25.45 3.9 27.4 5.9" fill="#ff9c09" fill-rule="evenodd" stroke="none"/>
    <path d="M29.65 27.9 Q28.15 20.05 21.6 18.25 27.0 15.85 26.55 9.75 28.65 15.95 33.8 15.65 28.35 19.85 29.65 27.9" fill="#ffffff" fill-rule="evenodd" stroke="none"/>
    <path d="M28.65 22.5 Q27.95 18.65 24.7 17.75 27.35 16.55 27.15 13.55 28.15 16.65 30.7 16.5 28.05 18.5 28.65 22.5" fill="#ffd944" fill-rule="evenodd" stroke="none"/>
  </g>
  <defs>
    <linearGradient gradientTransform="matrix(1.0E-4, 0.0197, -0.0197, 1.0E-4, 96.3, 24.55)" gradientUnits="userSpaceOnUse" id="gradient0" spreadMethod="pad" x1="-819.2" x2="819.2">
      <stop offset="0.0" stop-color="#ff3c9d"/>
      <stop offset="0.7137254901960784" stop-color="#ff8855"/>
      <stop offset="0.9333333333333333" stop-color="#fdb5a4"/>
    </linearGradient>
    <linearGradient gradientTransform="matrix(1.0E-4, 0.0151, -0.0197, 1.0E-4, 95.25, 16.0)" gradientUnits="userSpaceOnUse" id="gradient1" spreadMethod="pad" x1="-819.2" x2="819.2">
      <stop offset="0.0" stop-color="#ffffff"/>
      <stop offset="1.0" stop-color="#ffffff" stop-opacity="0.0"/>
    </linearGradient>
  </defs>
</svg>
