<?xml version="1.0" encoding="UTF-8" standalone="no"?>
<svg xmlns:xlink="http://www.w3.org/1999/xlink" height="23.55px" width="27.4px" xmlns="http://www.w3.org/2000/svg">
  <g transform="matrix(1.0, 0.0, 0.0, 1.0, 15.35, -0.15)">
    <path d="M1.75 0.3 L2.4 0.85 2.4 1.55 1.15 3.65 2.9 6.6 Q3.1 6.95 2.9 7.3 L2.25 7.85 1.15 9.7 2.9 12.65 Q3.1 13.0 2.9 13.35 L2.25 13.9 1.25 13.9 Q0.75 13.75 0.55 13.4 L-0.3 12.05 -1.1 13.4 -1.8 13.9 -2.8 13.9 -3.45 13.35 Q-3.65 13.0 -3.45 12.65 L-1.7 9.7 -2.8 7.85 -3.45 7.3 Q-3.65 6.95 -3.45 6.6 L-1.7 3.6 -2.95 1.55 -2.95 0.85 -2.3 0.3 Q-1.8 0.15 -1.25 0.3 -0.75 0.45 -0.55 0.8 L-0.3 1.25 0.0 0.8 0.7 0.3 Q1.25 0.15 1.75 0.3 M0.0 6.85 L0.15 6.65 -0.3 5.95 -0.7 6.65 -0.55 6.85 -0.3 7.3 0.0 6.85" fill="#0c100f" fill-rule="evenodd" stroke="none"/>
    <path d="M0.45 0.25 Q1.0 0.1 1.5 0.25 2.0 0.4 2.15 0.8 L2.15 1.5 0.9 3.55 2.65 6.55 Q2.85 6.9 2.65 7.25 L2.0 7.8 0.9 9.65 2.65 12.6 Q2.85 12.95 2.65 13.3 L2.0 13.85 1.0 13.85 Q0.5 13.7 0.3 13.35 L-0.4 12.2 -0.4 7.05 -0.25 6.8 -0.1 6.6 -0.4 6.1 -0.4 1.0 -0.25 0.75 0.45 0.25" fill="#4f5b56" fill-rule="evenodd" stroke="none"/>
    <path d="M-6.45 13.4 L-3.9 14.3 -8.0 13.95 -5.25 14.9 -8.05 15.7 -4.25 15.25 -7.75 17.25 -2.7 15.15 -5.15 17.9 -0.05 15.2 -7.55 20.2 -4.6 16.5 -9.1 17.75 -7.05 16.3 -9.8 16.05 -7.05 14.8 -9.85 13.85 -6.3 13.65 -9.5 12.0 -6.45 13.4" fill="#ff6600" fill-rule="evenodd" stroke="none"/>
    <path d="M-0.05 15.2 Q-6.85 20.1 -9.9 22.85 L-6.6 17.9 -15.35 20.55 -8.65 16.65 -13.15 16.5 -8.0 14.85 -11.9 14.1 -8.7 13.1 -11.45 10.95 -6.45 13.4 -9.5 12.0 -6.3 13.65 -9.85 13.85 -7.05 14.8 -9.8 16.05 -7.05 16.3 -9.1 17.75 -4.6 16.5 -7.55 20.2 -0.05 15.2" fill="#ff9900" fill-rule="evenodd" stroke="none"/>
    <path d="M1.55 19.75 L0.95 15.5 2.7 19.15 2.15 16.4 4.3 18.35 1.9 15.3 5.5 17.3 1.05 14.1 4.7 14.8 -0.2 11.7 7.85 15.7 3.15 15.05 6.6 18.3 4.2 17.25 5.4 19.75 2.95 18.0 3.5 20.85 1.55 17.85 1.75 21.55 1.55 19.75" fill="#ff6600" fill-rule="evenodd" stroke="none"/>
    <path d="M-0.2 11.7 Q7.4 15.1 11.35 16.45 L5.4 16.0 12.05 22.3 5.25 18.4 7.5 22.4 3.45 18.8 4.75 22.55 2.3 20.2 1.85 23.7 1.55 19.75 1.75 21.55 1.55 17.85 3.5 20.85 2.95 18.0 5.4 19.75 4.2 17.25 6.6 18.3 3.15 15.05 7.85 15.7 -0.2 11.7" fill="#ff9900" fill-rule="evenodd" stroke="none"/>
  </g>
</svg>
