<?xml version="1.0" encoding="UTF-8" standalone="no"?>
<svg xmlns:xlink="http://www.w3.org/1999/xlink" height="27.75px" width="23.95px" xmlns="http://www.w3.org/2000/svg">
  <g transform="matrix(1.0, 0.0, 0.0, 1.0, 11.1, -0.15)">
    <path d="M1.15 3.65 L2.9 6.6 Q3.1 6.95 2.9 7.3 L2.25 7.85 1.15 9.7 2.9 12.65 Q3.1 13.0 2.9 13.35 L2.25 13.9 1.25 13.9 Q0.75 13.75 0.55 13.4 L-0.3 12.05 -1.1 13.4 -1.8 13.9 -2.8 13.9 -3.45 13.35 Q-3.65 13.0 -3.45 12.65 L-1.7 9.7 -2.8 7.85 -3.45 7.3 Q-3.65 6.95 -3.45 6.6 L-1.7 3.6 -2.95 1.55 -2.95 0.85 -2.3 0.3 Q-1.8 0.15 -1.25 0.3 -0.75 0.45 -0.55 0.8 L-0.3 1.25 0.0 0.8 0.7 0.3 Q1.25 0.15 1.75 0.3 L2.4 0.85 2.4 1.55 1.15 3.65 M0.0 6.85 L0.15 6.65 -0.3 5.95 -0.7 6.65 -0.55 6.85 -0.3 7.3 0.0 6.85" fill="#0c100f" fill-rule="evenodd" stroke="none"/>
    <path d="M2.65 6.55 Q2.85 6.9 2.65 7.25 L2.0 7.8 0.9 9.65 2.65 12.6 Q2.85 12.95 2.65 13.3 L2.0 13.85 1.0 13.85 Q0.5 13.7 0.3 13.35 L-0.4 12.2 -0.4 7.05 -0.25 6.8 -0.1 6.6 -0.4 6.1 -0.4 1.0 -0.25 0.75 0.45 0.25 Q1.0 0.1 1.5 0.25 2.0 0.4 2.15 0.8 L2.15 1.5 0.9 3.55 2.65 6.55" fill="#4f5b56" fill-rule="evenodd" stroke="none"/>
    <path d="M-5.05 14.25 L-2.75 14.5 -6.25 15.1 -3.7 15.35 -5.9 16.65 -2.8 15.35 -5.3 17.95 -1.45 14.95 -2.9 17.85 0.8 14.4 -4.45 20.4 -2.8 16.5 -6.4 18.65 -4.9 16.95 -7.35 17.35 -5.3 15.6 -7.9 15.45 -4.9 14.5 -8.0 13.8 -5.05 14.25" fill="#ff6600" fill-rule="evenodd" stroke="none"/>
    <path d="M0.8 14.4 Q-3.85 20.15 -5.9 23.2 L-4.15 18.2 -11.1 22.45 -6.15 17.55 -10.1 18.45 -6.1 15.9 -9.6 16.15 -7.1 14.55 -9.95 13.35 -5.05 14.25 -8.0 13.8 -4.9 14.5 -7.9 15.45 -5.3 15.6 -7.35 17.35 -4.9 16.95 -6.4 18.65 -2.8 16.5 -4.45 20.4 0.8 14.4" fill="#ff9900" fill-rule="evenodd" stroke="none"/>
    <path d="M3.25 17.95 L1.75 14.4 4.1 17.15 3.0 14.9 5.25 16.05 2.55 14.05 6.05 14.95 1.5 13.15 4.8 12.9 -0.1 11.4 7.7 13.0 3.5 13.55 7.25 15.55 4.95 15.15 6.55 17.05 4.05 16.05 5.2 18.4 2.85 16.3 3.8 19.4 3.25 17.95" fill="#ff6600" fill-rule="evenodd" stroke="none"/>
    <path d="M-0.1 11.4 L10.9 12.8 5.65 13.8 12.85 17.7 6.15 15.9 8.9 18.8 4.65 16.6 6.65 19.55 4.0 18.15 4.4 21.25 3.25 17.95 3.8 19.4 2.85 16.3 5.2 18.4 4.05 16.05 6.55 17.05 4.95 15.15 7.25 15.55 3.5 13.55 7.7 13.0 -0.1 11.4" fill="#ff9900" fill-rule="evenodd" stroke="none"/>
    <path d="M-1.95 19.3 L-2.3 21.65 -0.55 20.05 -0.3 22.5 0.9 19.4 1.65 22.7 2.75 19.45 3.8 21.45 3.25 18.05 7.05 21.25 3.95 19.1 4.55 23.6 2.9 20.85 1.85 23.9 0.7 21.15 -0.85 25.1 -1.3 21.65 -3.1 22.8 -1.95 19.3" fill="#ff6600" fill-rule="evenodd" stroke="none"/>
    <path d="M-1.95 19.3 L-3.1 22.8 -1.3 21.65 -0.85 25.1 0.7 21.15 1.85 23.9 2.9 20.85 4.55 23.6 3.95 19.1 7.05 21.25 8.25 22.25 4.45 19.85 5.4 26.1 2.95 21.7 2.05 26.4 0.55 22.45 -1.55 27.9 -1.7 22.65 -5.25 25.05 -1.95 19.3" fill="#ff9900" fill-rule="evenodd" stroke="none"/>
  </g>
</svg>
