<?xml version="1.0" encoding="UTF-8" standalone="no"?>
<svg xmlns:xlink="http://www.w3.org/1999/xlink" height="185.15px" width="751.35px" xmlns="http://www.w3.org/2000/svg">
  <g transform="matrix(1.0, 0.0, 0.0, 1.0, -180.5, -517.75)">
    <path d="M193.8 534.3 L306.5 523.95 Q312.3 523.95 316.25 527.65 320.2 531.35 320.7 537.2 L323.95 574.2 Q324.2 577.25 323.15 580.25 L320.75 585.0 319.45 586.9 278.35 634.45 318.2 632.05 Q324.0 632.05 327.95 635.75 331.9 639.45 332.4 645.3 L334.1 678.6 Q334.5 684.75 330.65 689.15 326.8 693.55 320.55 693.95 L210.35 702.9 Q204.8 702.9 200.85 699.35 196.85 695.85 196.1 690.25 L191.35 657.35 191.3 656.65 Q190.5 649.0 194.9 644.4 L238.5 592.1 198.8 595.1 Q193.2 595.1 189.25 591.55 185.25 587.95 184.55 582.3 L180.65 550.35 Q179.9 544.15 183.6 539.5 187.4 534.85 193.8 534.3" fill="#801421" fill-rule="evenodd" stroke="none"/>
    <path d="M557.35 531.15 Q568.15 538.7 574.65 551.95 581.1 565.25 582.45 582.6 584.95 614.85 560.9 636.3 542.55 652.65 519.65 657.95 L520.95 681.45 Q521.15 687.15 517.75 691.3 514.4 695.45 508.85 696.4 L471.6 702.05 469.15 702.25 Q463.5 702.25 459.5 698.5 455.5 694.8 455.0 689.05 L440.0 534.8 Q439.55 528.6 443.3 524.2 447.1 519.7 453.35 519.25 L488.8 517.75 Q496.45 517.75 504.05 518.15 523.1 519.15 536.15 522.3 549.15 525.5 557.35 531.15 M512.8 580.0 L514.05 602.4 Q516.55 602.3 518.95 600.7 523.75 597.5 523.35 590.2 523.05 584.15 517.9 581.45 516.3 580.65 514.4 580.25 L512.8 580.0" fill="#801421" fill-rule="evenodd" stroke="none"/>
    <path d="M820.3 587.4 Q821.35 619.7 796.35 640.05 788.3 646.65 779.05 651.4 767.1 657.45 754.2 659.85 L754.45 683.4 Q754.4 689.1 750.8 693.1 747.25 697.1 741.7 697.8 L704.25 701.8 702.45 701.85 Q696.5 701.85 692.5 697.95 688.45 694.05 688.2 688.05 L680.1 533.3 Q679.9 527.1 683.9 522.85 687.9 518.55 694.1 518.35 703.4 518.05 711.85 518.05 L744.85 519.5 Q763.85 521.35 776.75 525.1 789.6 528.85 797.5 534.9 807.95 542.9 813.85 556.45 819.75 570.0 820.3 587.4 M750.85 581.65 L750.8 603.25 752.25 602.95 Q753.95 602.5 755.4 601.55 759.95 598.6 759.95 592.25 759.95 586.7 755.4 583.6 L750.85 581.65" fill="#801421" fill-rule="evenodd" stroke="none"/>
    <path d="M656.1 556.8 L692.6 673.65 Q693.05 675.15 693.1 676.25 693.65 682.25 689.9 686.6 686.2 691.0 680.25 691.45 L650.45 692.75 Q645.3 692.75 641.0 689.2 637.0 685.95 635.7 681.5 L633.25 669.0 621.75 669.7 621.25 679.8 621.1 681.0 Q620.35 686.0 616.3 689.8 612.25 693.65 607.3 694.05 L576.1 696.9 Q570.55 696.9 566.6 693.25 562.7 689.6 562.2 683.95 L562.15 683.45 Q562.05 681.85 562.25 680.65 L580.4 562.3 Q581.05 557.3 584.6 553.9 588.15 550.45 593.15 550.05 L641.6 546.75 642.7 546.7 Q647.35 546.7 651.05 549.5 654.75 552.25 656.1 556.8" fill="#801421" fill-rule="evenodd" stroke="none"/>
    <path d="M357.8 550.05 L406.3 546.75 407.35 546.7 Q412.0 546.7 415.7 549.5 419.4 552.25 420.75 556.8 L457.3 673.65 457.8 676.25 Q458.25 682.25 454.6 686.6 450.85 691.0 444.9 691.45 L415.0 692.75 Q410.2 692.75 406.45 689.95 402.7 687.1 401.35 682.5 L398.15 669.0 386.1 669.75 384.8 682.0 Q384.0 687.0 380.5 690.3 377.0 693.65 372.0 694.05 L341.8 696.9 Q336.2 696.9 332.3 693.25 328.35 689.6 327.85 683.95 L327.8 683.45 327.9 680.75 345.05 562.4 Q345.7 557.4 349.25 553.95 352.8 550.5 357.8 550.05" fill="#801421" fill-rule="evenodd" stroke="none"/>
    <path d="M831.8 550.05 L880.3 546.75 881.35 546.7 Q886.0 546.7 889.7 549.5 893.4 552.25 894.75 556.8 L931.3 673.65 931.8 676.25 Q932.25 682.25 928.6 686.6 924.85 691.0 918.9 691.45 L918.45 691.5 888.0 692.75 Q883.2 692.75 879.45 689.95 875.7 687.1 874.35 682.5 L871.15 669.0 860.1 669.7 858.8 682.0 Q858.0 687.0 854.5 690.3 851.0 693.65 846.0 694.05 L814.8 696.9 Q809.2 696.9 805.3 693.25 801.35 689.6 800.85 683.95 L800.8 683.45 800.9 680.65 819.05 562.3 Q819.75 557.3 823.25 553.9 826.8 550.45 831.8 550.05" fill="#801421" fill-rule="evenodd" stroke="none"/>
  </g>
</svg>
