<?xml version="1.0" encoding="UTF-8" standalone="no"?>
<svg xmlns:xlink="http://www.w3.org/1999/xlink" height="166.95px" width="141.6px" xmlns="http://www.w3.org/2000/svg">
  <g transform="matrix(1.0, 0.0, 0.0, 1.0, -0.3, 0.0)">
    <path d="M126.0 2.15 Q128.25 4.25 128.55 7.75 L131.8 44.8 Q131.95 46.6 131.2 48.45 L129.35 52.1 128.7 53.0 78.3 111.35 131.2 108.15 132.0 108.1 Q135.35 108.1 137.65 110.25 139.9 112.4 140.2 115.85 L141.9 149.0 Q142.15 152.8 139.9 155.25 137.65 157.8 133.95 158.0 L24.95 166.9 24.15 166.95 Q20.85 166.95 18.6 164.9 16.3 162.85 15.85 159.5 L11.05 126.2 Q10.9 124.05 11.1 122.7 11.5 120.1 13.15 118.45 L66.05 55.1 12.6 59.15 Q9.3 59.15 7.0 57.05 4.7 55.0 4.3 51.6 L0.4 19.7 Q-0.05 16.05 2.05 13.35 4.2 10.65 8.1 10.35 L119.4 0.05 120.3 0.0 Q123.7 0.0 126.0 2.15" fill="#ff0000" fill-rule="evenodd" stroke="none"/>
  </g>
</svg>
