<?xml version="1.0" encoding="UTF-8" standalone="no"?>
<svg xmlns:xlink="http://www.w3.org/1999/xlink" height="8.95px" width="7.6px" xmlns="http://www.w3.org/2000/svg">
  <g transform="matrix(1.0, 0.0, 0.0, 1.0, 0.5, 0.5)">
    <path d="M4.2 1.0 Q5.2 1.3 5.95 2.55 6.85 4.15 6.5 5.55 6.1 7.0 4.7 7.55 L2.25 7.85 0.95 7.0 Q0.65 6.45 0.8 6.0 0.85 5.55 1.25 5.5 L1.75 5.45 1.55 5.4 Q0.85 5.2 0.55 4.35 0.15 3.45 0.5 2.65 L0.3 2.5 0.0 1.95 0.6 1.15 Q1.4 0.35 2.05 0.15 L3.45 0.0 3.9 0.1 4.2 1.0" fill="#c92122" fill-rule="evenodd" stroke="none"/>
    <path d="M4.2 1.0 Q5.2 1.3 5.95 2.55 6.85 4.15 6.5 5.55 6.1 7.0 4.7 7.55 L2.25 7.85 0.95 7.0 Q0.65 6.45 0.8 6.0 0.85 5.55 1.25 5.5 L1.75 5.45 1.55 5.4 Q0.85 5.2 0.55 4.35 0.15 3.45 0.5 2.65" fill="none" stroke="#681a1a" stroke-linecap="round" stroke-linejoin="round" stroke-width="1.0"/>
    <path d="M0.5 2.65 L0.3 2.5 0.0 1.95 0.6 1.15 Q1.4 0.35 2.05 0.15 L3.45 0.0 3.9 0.1 4.2 1.0 Z" fill="none" stroke="#484848" stroke-linecap="round" stroke-linejoin="round" stroke-width="1.0"/>
    <path d="M3.95 0.15 L4.35 1.4 2.2 1.75 0.7 2.95 0.35 2.5 0.05 2.0 0.65 1.15 Q1.4 0.4 2.1 0.2 L3.5 0.05 3.95 0.15" fill="#9e9e9e" fill-rule="evenodd" stroke="none"/>
    <path d="M2.1 0.2 L2.65 0.1 3.25 1.5 2.2 1.75 2.15 1.75 1.4 0.55 2.1 0.2" fill="#ffffff" fill-rule="evenodd" stroke="none"/>
    <path d="M0.1 1.8 L0.5 1.3 1.3 2.45 0.9 2.85 0.1 1.8" fill="#6b6b6b" fill-rule="evenodd" stroke="none"/>
    <path d="M3.65 0.95 Q5.05 1.0 5.9 2.6 6.8 4.15 6.5 5.6 6.1 7.0 4.7 7.6 L2.25 7.85 0.95 7.0 Q0.65 6.45 0.75 6.05 0.85 5.55 1.25 5.5 L1.75 5.45 1.55 5.4 Q0.85 5.2 0.55 4.4 -0.25 2.4 1.9 1.35 3.05 0.9 3.65 0.95" fill="#c92122" fill-rule="evenodd" stroke="none"/>
    <path d="M2.7 6.4 L4.05 6.65 4.5 6.75 4.55 7.15 Q4.5 7.35 3.65 7.6 L1.8 7.5 1.35 7.15 1.05 6.75 Q0.95 6.25 1.55 6.1 L2.7 6.4" fill="#fc4c4d" fill-rule="evenodd" stroke="none"/>
    <path d="M4.2 5.35 L4.05 5.35 4.5 6.1 3.4 5.7 2.3 5.55 1.65 5.6 1.75 5.35 2.35 5.2 3.35 4.6 4.25 3.7 3.75 4.7 3.85 4.7 4.35 4.55 5.15 4.1 4.75 4.9 4.2 5.35" fill="#850f13" fill-rule="evenodd" stroke="none"/>
  </g>
</svg>
