<?xml version="1.0" encoding="UTF-8" standalone="no"?>
<svg xmlns:xlink="http://www.w3.org/1999/xlink" height="79.3px" width="8.2px" xmlns="http://www.w3.org/2000/svg">
  <g transform="matrix(1.0, 0.0, 0.0, 1.0, 3.55, 78.95)">
    <path d="M0.65 -78.35 Q0.9 -78.7 1.45 -78.85 L2.5 -78.9 3.25 -78.35 Q3.5 -77.95 3.25 -77.6 L1.5 -74.6 2.9 -72.45 3.4 -72.05 Q3.6 -71.65 3.4 -71.3 L1.65 -68.3 3.15 -66.05 3.2 -65.4 3.4 -65.15 Q3.6 -64.75 3.4 -64.4 L1.65 -61.4 3.05 -59.25 3.55 -58.85 Q3.75 -58.45 3.5 -58.1 L1.8 -55.1 3.3 -52.85 3.35 -52.7 3.7 -52.35 Q3.9 -51.95 3.65 -51.6 L1.9 -48.6 3.3 -46.45 3.85 -46.05 Q4.05 -45.65 3.8 -45.3 L2.05 -42.3 3.55 -40.05 3.65 -39.7 3.95 -39.4 Q4.2 -39.0 3.95 -38.65 L2.2 -35.65 3.6 -33.5 4.1 -33.1 Q4.3 -32.7 4.1 -32.35 L2.35 -29.35 3.85 -27.1 3.9 -26.45 4.1 -26.25 Q4.3 -25.85 4.1 -25.5 L2.35 -22.5 3.75 -20.35 4.25 -19.95 Q4.45 -19.55 4.2 -19.2 L2.5 -16.2 4.0 -13.95 4.05 -13.8 4.4 -13.45 Q4.6 -13.05 4.35 -12.7 L2.6 -9.7 4.0 -7.55 4.55 -7.15 Q4.75 -6.75 4.5 -6.4 L2.75 -3.4 4.25 -1.15 Q4.45 -0.75 4.25 -0.4 L3.6 0.2 2.5 0.25 1.65 -0.35 1.25 -0.9 0.9 -0.3 0.15 0.3 -0.95 0.3 -1.7 -0.25 Q-1.9 -0.6 -1.7 -1.0 L-0.3 -3.35 -2.15 -6.25 Q-2.4 -6.6 -2.2 -7.0 L-1.8 -7.4 -0.45 -9.65 -2.3 -12.55 Q-2.55 -12.9 -2.35 -13.3 L-2.0 -13.65 -1.95 -13.8 -0.55 -16.15 -2.45 -19.05 Q-2.7 -19.4 -2.5 -19.8 L-2.05 -20.2 -0.7 -22.45 -2.55 -25.35 Q-2.85 -25.7 -2.65 -26.1 L-2.2 -26.5 -2.1 -26.95 -0.7 -29.3 -2.55 -32.2 Q-2.85 -32.55 -2.65 -32.95 L-2.2 -33.35 -0.85 -35.6 -2.7 -38.5 Q-2.95 -38.85 -2.8 -39.25 L-2.5 -39.55 -2.4 -39.9 -1.0 -42.25 -2.85 -45.15 Q-3.1 -45.5 -2.9 -45.9 L-2.5 -46.3 -1.15 -48.55 -3.0 -51.45 Q-3.25 -51.8 -3.05 -52.2 L-2.7 -52.55 -2.65 -52.7 -1.25 -55.05 -3.15 -57.95 Q-3.4 -58.3 -3.2 -58.7 L-2.75 -59.1 -1.4 -61.35 -3.25 -64.25 Q-3.55 -64.6 -3.35 -65.0 L-2.9 -65.4 -2.8 -65.9 -1.4 -68.25 -3.25 -71.15 Q-3.55 -71.5 -3.35 -71.9 L-2.9 -72.3 -1.55 -74.55 -3.4 -77.45 Q-3.65 -77.8 -3.5 -78.2 L-2.75 -78.75 -1.7 -78.8 Q-1.15 -78.65 -0.9 -78.3 L-0.1 -77.05 0.65 -78.35 M0.0 -72.1 L-0.35 -71.5 -0.4 -71.4 0.05 -70.75 0.45 -71.45 0.4 -71.55 0.0 -72.1 M0.7 -65.0 L0.55 -65.25 0.15 -65.8 -0.2 -65.2 -0.6 -64.8 0.05 -63.85 0.7 -65.0 M0.8 -51.85 L0.7 -52.05 0.3 -52.6 -0.05 -52.0 -0.15 -51.8 0.3 -51.05 0.8 -51.85 M0.15 -57.55 L0.6 -58.25 0.55 -58.35 0.15 -58.9 -0.2 -58.3 -0.25 -58.2 0.15 -57.55 M0.05 -45.4 L0.45 -44.75 0.9 -45.45 0.85 -45.55 0.4 -46.1 0.1 -45.5 0.05 -45.4 M1.15 -39.0 L1.0 -39.25 0.55 -39.8 0.25 -39.2 0.05 -38.95 0.6 -38.1 1.15 -39.0 M1.25 -19.45 L0.85 -20.0 0.5 -19.4 0.45 -19.3 0.85 -18.65 1.3 -19.35 1.25 -19.45 M1.4 -26.05 L1.25 -26.3 0.85 -26.85 0.5 -26.25 0.15 -25.85 0.75 -24.95 1.4 -26.05 M0.7 -33.15 L0.35 -32.55 0.3 -32.45 0.75 -31.8 1.15 -32.5 1.1 -32.6 0.7 -33.15 M1.4 -13.15 L1.0 -13.7 0.65 -13.1 0.55 -12.9 1.0 -12.15 1.5 -12.95 1.4 -13.15 M1.55 -6.65 L1.1 -7.2 0.8 -6.6 0.75 -6.5 1.15 -5.85 1.6 -6.55 1.55 -6.65" fill="#0c100f" fill-rule="evenodd" stroke="none"/>
    <path d="M1.3 -78.85 L2.35 -78.9 3.1 -78.35 Q3.35 -77.95 3.1 -77.6 L1.35 -74.6 2.75 -72.45 3.25 -72.05 Q3.45 -71.65 3.25 -71.3 L1.5 -68.3 3.0 -66.05 3.05 -65.4 3.25 -65.15 Q3.45 -64.75 3.25 -64.4 L1.5 -61.4 2.9 -59.25 3.4 -58.85 3.35 -58.1 1.65 -55.1 3.15 -52.85 3.2 -52.7 3.55 -52.35 Q3.75 -51.95 3.5 -51.6 L1.75 -48.6 3.15 -46.45 3.7 -46.05 Q3.9 -45.65 3.65 -45.3 L1.9 -42.3 3.4 -40.05 3.5 -39.7 3.8 -39.4 Q4.05 -39.0 3.8 -38.65 L2.05 -35.65 3.45 -33.5 3.95 -33.1 Q4.15 -32.7 3.95 -32.35 L2.2 -29.35 3.7 -27.1 3.75 -26.45 3.95 -26.25 Q4.15 -25.85 3.95 -25.5 L2.2 -22.5 3.6 -20.35 4.1 -19.95 4.05 -19.2 2.35 -16.2 3.85 -13.95 3.9 -13.8 4.25 -13.45 Q4.45 -13.05 4.2 -12.7 L2.45 -9.7 3.85 -7.55 4.4 -7.15 Q4.6 -6.75 4.35 -6.4 L2.6 -3.4 4.1 -1.15 Q4.3 -0.75 4.1 -0.4 3.95 0.05 3.45 0.2 L2.35 0.25 2.05 0.15 1.5 -0.3 1.25 -0.7 1.15 -6.05 1.45 -6.5 1.4 -6.6 1.15 -7.0 1.0 -12.35 1.35 -12.9 1.25 -13.1 1.0 -13.5 0.85 -18.85 1.15 -19.3 1.1 -19.4 0.85 -19.8 0.75 -25.15 1.25 -26.05 1.1 -26.3 0.7 -26.85 0.6 -31.8 1.0 -32.5 0.95 -32.6 0.55 -33.15 0.45 -38.1 1.0 -39.0 0.85 -39.25 0.4 -39.8 0.3 -44.75 0.75 -45.45 0.7 -45.55 0.25 -46.1 0.15 -51.05 0.65 -51.85 0.55 -52.05 0.15 -52.6 0.0 -57.55 0.45 -58.25 0.4 -58.35 0.0 -58.9 -0.1 -63.85 0.55 -65.0 0.4 -65.25 0.0 -65.8 -0.15 -65.5 -0.25 -71.0 -0.1 -70.75 0.3 -71.45 0.25 -71.55 -0.15 -72.1 -0.3 -71.8 -0.4 -77.3 -0.25 -77.05 0.5 -78.35 1.3 -78.85" fill="#4f5b56" fill-rule="evenodd" stroke="none"/>
  </g>
</svg>
