<?xml version="1.0" encoding="UTF-8" standalone="no"?>
<svg xmlns:xlink="http://www.w3.org/1999/xlink" height="79.3px" width="8.75px" xmlns="http://www.w3.org/2000/svg">
  <g transform="matrix(1.0, 0.0, 0.0, 1.0, 3.85, 78.95)">
    <path d="M0.8 -78.35 Q1.05 -78.7 1.7 -78.85 L2.9 -78.9 Q3.5 -78.7 3.7 -78.35 4.0 -77.95 3.75 -77.6 L1.95 -74.9 3.8 -72.35 3.9 -71.9 3.9 -71.3 2.1 -68.6 3.95 -66.05 Q4.2 -65.65 3.95 -65.3 L3.6 -64.95 3.55 -64.4 1.7 -61.6 3.45 -59.15 3.5 -59.0 3.65 -58.85 Q3.9 -58.45 3.65 -58.1 L1.8 -55.3 3.6 -52.85 3.7 -52.45 3.8 -52.35 Q4.05 -51.95 3.8 -51.6 L1.95 -48.8 3.7 -46.35 3.75 -46.2 3.95 -46.05 Q4.2 -45.65 3.95 -45.3 L2.1 -42.5 3.85 -40.05 3.95 -39.5 4.05 -39.4 Q4.35 -39.0 4.1 -38.65 L2.25 -35.85 4.0 -33.4 4.05 -33.25 4.2 -33.1 4.25 -32.35 2.4 -29.55 4.15 -27.1 4.2 -26.4 4.35 -26.25 4.4 -25.5 2.55 -22.7 4.3 -20.25 4.35 -20.1 4.5 -19.95 Q4.75 -19.55 4.5 -19.2 L2.65 -16.4 4.45 -13.95 4.55 -13.55 4.65 -13.45 Q4.9 -13.05 4.65 -12.7 L2.8 -9.9 4.55 -7.45 4.6 -7.3 4.8 -7.15 Q5.05 -6.75 4.8 -6.4 L2.95 -3.6 4.7 -1.15 Q4.95 -0.75 4.7 -0.4 L3.95 0.2 2.75 0.25 1.8 -0.35 1.25 -1.05 0.75 -0.3 -0.1 0.3 -1.3 0.3 -2.15 -0.25 Q-2.4 -0.6 -2.15 -1.0 L-0.5 -3.55 -2.45 -6.25 Q-2.7 -6.6 -2.45 -7.0 L-2.4 -7.15 -2.3 -7.3 -0.65 -9.85 -2.6 -12.55 Q-2.85 -12.9 -2.6 -13.3 L-2.55 -13.4 -2.4 -13.8 -0.8 -16.35 -2.75 -19.05 Q-3.0 -19.4 -2.75 -19.8 L-2.65 -19.95 -2.55 -20.1 -0.9 -22.65 -2.85 -25.35 Q-3.15 -25.7 -2.9 -26.1 L-2.75 -26.25 -2.7 -26.95 -1.05 -29.5 -3.0 -32.2 Q-3.3 -32.55 -3.05 -32.95 L-2.95 -33.1 -2.85 -33.25 -1.2 -35.8 -3.15 -38.5 Q-3.4 -38.85 -3.2 -39.25 L-3.1 -39.35 -3.0 -39.9 -1.35 -42.45 -3.3 -45.15 Q-3.55 -45.5 -3.3 -45.9 L-3.25 -46.05 -3.15 -46.2 -1.5 -48.75 -3.45 -51.45 Q-3.7 -51.8 -3.45 -52.2 L-3.4 -52.3 -3.25 -52.7 -1.65 -55.25 -3.6 -57.95 Q-3.85 -58.3 -3.6 -58.7 L-3.5 -58.85 -3.4 -59.0 -1.75 -61.55 -3.7 -64.25 Q-4.0 -64.6 -3.75 -65.0 L-3.2 -65.45 -3.05 -65.9 -1.35 -68.55 -3.2 -71.15 -3.35 -71.75 -3.2 -72.2 -1.5 -74.85 -3.35 -77.45 -3.4 -78.2 -2.6 -78.75 -1.4 -78.8 -0.5 -78.3 0.2 -77.4 0.8 -78.35 M0.3 -72.4 L-0.15 -71.7 0.35 -71.1 0.75 -71.75 0.3 -72.4 M0.9 -65.4 L0.45 -66.1 -0.15 -65.2 -0.65 -64.75 -0.1 -64.05 0.6 -65.15 0.9 -65.4 M0.45 -58.45 L0.0 -59.05 -0.45 -58.4 0.0 -57.75 0.45 -58.45 M0.7 -52.05 L0.15 -52.75 -0.35 -52.0 0.15 -51.25 0.7 -52.05 M0.25 -46.25 L-0.15 -45.6 0.3 -44.95 0.75 -45.65 0.25 -46.25 M1.05 -39.15 L1.0 -39.25 0.4 -39.95 -0.05 -39.2 -0.1 -39.1 0.45 -38.3 1.05 -39.15 M1.0 -32.7 L0.55 -33.3 0.1 -32.65 0.6 -32.0 1.0 -32.7 M1.25 -26.3 L0.7 -27.0 0.2 -26.25 0.05 -26.1 0.75 -25.15 1.35 -26.15 1.25 -26.3 M0.85 -20.15 L0.4 -19.5 0.85 -18.85 1.3 -19.55 0.85 -20.15 M1.0 -13.85 L0.5 -13.1 1.0 -12.35 1.55 -13.15 1.0 -13.85 M1.6 -6.75 L1.1 -7.35 0.7 -6.7 1.15 -6.05 1.6 -6.75" fill="#0c100f" fill-rule="evenodd" stroke="none"/>
    <path d="M1.45 -78.85 L2.65 -78.9 Q3.25 -78.7 3.45 -78.35 3.75 -77.95 3.5 -77.6 L1.7 -74.9 3.55 -72.35 3.65 -71.9 3.65 -71.3 1.85 -68.6 3.7 -66.05 Q3.95 -65.65 3.7 -65.3 L3.35 -64.95 3.3 -64.4 1.45 -61.6 3.2 -59.15 3.25 -59.0 3.4 -58.85 Q3.65 -58.45 3.4 -58.1 L1.55 -55.3 3.35 -52.85 3.45 -52.45 3.55 -52.35 Q3.8 -51.95 3.55 -51.6 L1.7 -48.8 3.45 -46.35 3.5 -46.2 3.7 -46.05 Q3.95 -45.65 3.7 -45.3 L1.85 -42.5 3.6 -40.05 3.7 -39.5 3.8 -39.4 Q4.1 -39.0 3.85 -38.65 L2.0 -35.85 3.75 -33.4 3.8 -33.25 3.95 -33.1 4.0 -32.35 2.15 -29.55 3.9 -27.1 3.95 -26.4 4.1 -26.25 4.15 -25.5 2.3 -22.7 4.05 -20.25 4.1 -20.1 4.25 -19.95 Q4.5 -19.55 4.25 -19.2 L2.4 -16.4 4.2 -13.95 4.3 -13.55 4.4 -13.45 Q4.65 -13.05 4.4 -12.7 L2.55 -9.9 4.3 -7.45 4.35 -7.3 4.55 -7.15 Q4.8 -6.75 4.55 -6.4 L2.7 -3.6 4.45 -1.15 Q4.7 -0.75 4.45 -0.4 L3.7 0.2 2.5 0.25 1.55 -0.3 1.5 -0.35 1.25 -13.0 1.3 -13.1 1.25 -13.15 0.95 -25.85 1.1 -26.15 1.0 -26.25 0.95 -26.3 0.7 -38.95 0.8 -39.1 0.75 -39.2 0.65 -39.25 0.4 -51.9 0.45 -52.0 0.4 -52.05 0.1 -64.75 0.35 -65.15 0.65 -65.4 0.2 -66.05 0.1 -65.9 0.0 -71.2 0.1 -71.05 0.5 -71.75 0.05 -72.35 -0.05 -72.2 -0.15 -77.5 -0.05 -77.35 0.55 -78.35 Q0.8 -78.7 1.45 -78.85" fill="#4f5b56" fill-rule="evenodd" stroke="none"/>
  </g>
</svg>
