<?xml version="1.0" encoding="UTF-8" standalone="no"?>
<svg xmlns:xlink="http://www.w3.org/1999/xlink" height="76.05px" width="8.1px" xmlns="http://www.w3.org/2000/svg">
  <g transform="matrix(1.0, 0.0, 0.0, 1.0, 3.5, 76.15)">
    <path d="M0.75 -75.5 Q1.0 -75.85 1.5 -76.0 L2.55 -76.05 Q3.15 -75.9 3.35 -75.5 L3.3 -74.8 1.55 -71.9 2.5 -70.6 2.7 -70.55 3.45 -70.0 3.4 -69.3 1.7 -66.45 3.2 -64.25 Q3.4 -63.9 3.2 -63.55 L3.15 -63.45 3.45 -63.1 3.4 -62.4 1.7 -59.5 3.2 -57.35 3.2 -57.3 3.6 -56.9 Q3.8 -56.55 3.55 -56.2 L1.8 -53.3 3.3 -51.15 3.75 -50.75 Q3.95 -50.4 3.7 -50.05 L1.95 -47.15 3.35 -45.15 3.85 -44.7 3.8 -44.0 2.1 -41.1 3.6 -38.95 3.7 -38.7 4.0 -38.35 3.95 -37.65 2.2 -34.75 3.7 -32.6 4.15 -32.2 4.1 -31.5 2.35 -28.6 3.85 -26.45 3.95 -25.95 4.1 -25.75 Q4.35 -25.4 4.1 -25.05 L2.35 -22.15 3.8 -20.1 4.25 -19.65 Q4.45 -19.3 4.2 -18.95 L2.5 -16.05 4.0 -13.9 4.05 -13.7 4.4 -13.35 Q4.6 -13.0 4.35 -12.65 L2.6 -9.75 4.0 -7.75 4.5 -7.3 Q4.75 -6.95 4.5 -6.6 L2.75 -3.7 4.25 -1.55 Q4.45 -1.2 4.25 -0.85 4.05 -0.45 3.6 -0.25 3.05 -0.1 2.5 -0.25 1.9 -0.4 1.65 -0.75 L1.25 -1.25 0.9 -0.7 0.15 -0.2 -0.95 -0.15 -1.7 -0.7 Q-1.9 -1.05 -1.7 -1.4 L-0.3 -3.65 -2.15 -6.45 Q-2.4 -6.8 -2.25 -7.15 -2.1 -7.45 -1.75 -7.6 L-0.45 -9.7 -2.3 -12.5 Q-2.55 -12.85 -2.35 -13.2 L-2.05 -13.55 -1.95 -13.75 -0.55 -16.0 -2.45 -18.8 -2.5 -19.5 -2.05 -19.95 -0.7 -22.1 -2.55 -24.9 Q-2.8 -25.25 -2.65 -25.6 L-2.2 -26.05 -2.1 -26.3 -0.7 -28.55 -2.55 -31.35 -2.6 -32.05 -2.25 -32.45 -0.85 -34.7 -2.7 -37.5 -2.75 -38.2 -2.45 -38.55 -2.35 -38.8 -0.95 -41.05 -2.85 -43.85 Q-3.1 -44.2 -2.9 -44.55 L-2.4 -45.0 -1.1 -47.1 -2.95 -49.9 Q-3.2 -50.25 -3.0 -50.6 L-2.65 -51.0 -1.25 -53.25 -3.1 -56.05 -3.15 -56.75 -2.8 -57.15 -2.75 -57.2 -1.35 -59.45 -3.25 -62.25 -3.3 -62.95 -2.8 -63.4 -2.75 -64.1 -1.35 -66.4 -3.25 -69.15 -3.3 -69.85 Q-3.1 -70.25 -2.55 -70.4 L-2.35 -70.45 -1.5 -71.85 -3.35 -74.65 -3.4 -75.35 -2.7 -75.9 -1.65 -75.95 Q-1.05 -75.8 -0.8 -75.45 L-0.05 -74.25 0.75 -75.5 M0.3 -69.15 L0.05 -69.45 -0.15 -69.1 0.1 -68.75 0.3 -69.15 M0.85 -63.1 L0.9 -63.15 0.6 -63.45 0.2 -64.0 -0.15 -63.4 -0.7 -63.0 0.1 -61.85 0.85 -63.1 M0.2 -57.05 L-0.15 -56.5 -0.25 -56.35 0.2 -55.65 0.7 -56.4 0.6 -56.55 0.2 -57.05 M0.8 -50.25 L0.75 -50.35 0.3 -50.85 0.0 -50.3 -0.1 -50.2 0.35 -49.5 0.8 -50.25 M0.05 -44.1 L0.5 -43.45 0.9 -44.15 0.85 -44.2 0.45 -44.7 0.1 -44.15 0.05 -44.1 M0.25 -38.1 L0.1 -37.9 0.6 -37.1 1.15 -37.95 1.0 -38.15 0.6 -38.65 0.25 -38.1 M1.15 -31.8 L0.75 -32.3 0.4 -31.75 0.3 -31.65 0.75 -30.95 1.2 -31.7 1.15 -31.8 M1.25 -25.65 L0.85 -26.15 0.5 -25.6 0.25 -25.3 0.75 -24.5 1.4 -25.5 1.25 -25.65 M0.45 -19.05 L0.9 -18.4 1.3 -19.1 1.25 -19.2 0.85 -19.7 0.5 -19.15 0.45 -19.05 M1.0 -13.6 L0.65 -13.05 0.5 -12.9 1.0 -12.1 1.5 -12.95 1.4 -13.1 1.0 -13.6 M1.6 -6.75 L1.55 -6.8 1.1 -7.3 0.8 -6.75 0.75 -6.7 1.15 -6.05 1.6 -6.75" fill="#0c100f" fill-rule="evenodd" stroke="none"/>
    <path d="M1.35 -76.05 L2.4 -76.1 3.2 -75.55 3.15 -74.85 1.4 -72.0 2.35 -70.6 2.55 -70.6 Q3.1 -70.45 3.3 -70.05 L3.25 -69.35 1.55 -66.45 3.05 -64.3 Q3.25 -63.95 3.05 -63.6 L3.0 -63.5 3.3 -63.15 3.25 -62.45 1.55 -59.6 3.05 -57.4 3.05 -57.35 3.45 -56.95 3.4 -56.25 1.65 -53.4 3.15 -51.2 3.55 -50.8 Q3.8 -50.45 3.55 -50.1 L1.8 -47.2 3.2 -45.2 3.7 -44.75 Q3.9 -44.4 3.65 -44.05 L1.95 -41.15 3.45 -39.0 3.55 -38.75 3.85 -38.4 3.8 -37.7 2.05 -34.85 3.55 -32.65 4.0 -32.25 3.95 -31.55 2.2 -28.7 3.7 -26.5 3.8 -26.0 3.95 -25.8 Q4.2 -25.45 3.95 -25.1 L2.2 -22.2 3.65 -20.15 4.1 -19.7 4.05 -19.0 2.35 -16.15 3.85 -13.95 3.9 -13.75 4.25 -13.4 Q4.45 -13.05 4.2 -12.7 L2.45 -9.8 3.85 -7.8 4.35 -7.35 Q4.6 -7.0 4.35 -6.65 L2.6 -3.75 4.1 -1.6 Q4.3 -1.25 4.1 -0.9 L3.4 -0.3 Q2.9 -0.15 2.3 -0.3 1.75 -0.45 1.5 -0.75 L1.4 -0.9 1.3 -6.5 1.45 -6.75 1.4 -6.8 1.3 -6.95 1.15 -12.6 1.35 -12.95 1.25 -13.1 1.15 -13.25 1.0 -18.9 1.15 -19.1 1.1 -19.2 1.0 -19.35 0.9 -24.95 1.2 -25.55 1.1 -25.7 0.85 -26.05 0.75 -31.2 1.05 -31.75 1.0 -31.85 0.75 -32.2 0.6 -37.35 1.0 -38.0 0.85 -38.2 0.6 -38.5 0.5 -43.7 0.75 -44.2 0.7 -44.25 0.45 -44.55 0.35 -49.75 0.65 -50.3 0.6 -50.4 0.3 -50.75 0.2 -55.9 0.55 -56.45 0.45 -56.6 0.2 -56.95 0.1 -62.1 0.7 -63.15 0.75 -63.2 0.45 -63.5 0.05 -64.0 -0.05 -68.75 0.15 -69.2 -0.1 -69.55 -0.2 -74.3 0.6 -75.55 Q0.85 -75.9 1.35 -76.05" fill="#4f5b56" fill-rule="evenodd" stroke="none"/>
  </g>
</svg>
