<?xml version="1.0" encoding="UTF-8" standalone="no"?>
<svg xmlns:xlink="http://www.w3.org/1999/xlink" height="63.3px" width="7.9px" xmlns="http://www.w3.org/2000/svg">
  <g transform="matrix(1.0, 0.0, 0.0, 1.0, 2.9, 63.35)">
    <path d="M3.95 -62.25 L2.2 -59.8 2.85 -59.05 3.35 -59.0 Q3.9 -58.9 4.1 -58.55 L4.05 -57.95 2.25 -55.55 3.75 -53.75 Q3.95 -53.45 3.75 -53.15 L3.7 -53.1 4.25 -52.75 Q4.45 -52.45 4.2 -52.15 L2.4 -49.75 3.8 -48.05 4.35 -47.65 Q4.55 -47.35 4.3 -47.05 L2.5 -44.65 4.0 -42.85 4.05 -42.75 4.45 -42.4 Q4.65 -42.1 4.4 -41.8 L2.6 -39.4 4.05 -37.6 4.55 -37.25 Q4.8 -36.95 4.55 -36.65 L2.75 -34.2 4.2 -32.45 4.25 -32.4 4.7 -32.05 4.65 -31.45 2.85 -29.05 4.05 -27.6 4.8 -27.15 4.75 -26.55 2.95 -24.1 4.45 -22.35 Q4.65 -22.05 4.45 -21.75 L4.4 -21.7 4.45 -21.7 Q4.65 -21.4 4.4 -21.1 L2.85 -18.95 4.55 -16.9 4.6 -16.4 Q4.75 -16.2 4.55 -15.95 L3.0 -13.8 4.7 -11.75 Q4.9 -11.45 4.7 -11.15 4.9 -10.9 4.65 -10.6 L3.1 -8.45 4.8 -6.4 4.85 -5.9 4.75 -5.45 3.2 -3.3 4.9 -1.25 Q5.1 -0.95 4.9 -0.65 4.7 -0.35 4.25 -0.2 L3.15 -0.15 Q2.55 -0.3 2.3 -0.6 L1.7 -1.35 1.15 -0.55 Q0.9 -0.25 0.4 -0.1 L-0.7 -0.05 -1.45 -0.5 Q-1.65 -0.8 -1.45 -1.1 L0.15 -3.25 -1.5 -5.3 -1.65 -5.75 -1.55 -6.25 0.05 -8.4 -1.6 -10.45 Q-1.85 -10.75 -1.7 -11.0 L-1.65 -11.6 -0.05 -13.75 -1.7 -15.8 -1.9 -16.25 -1.8 -16.75 -0.2 -18.9 -1.85 -20.95 Q-2.1 -21.25 -1.9 -21.55 L-1.55 -21.85 -1.45 -22.2 -0.1 -24.05 -1.95 -26.4 Q-2.2 -26.7 -2.0 -27.0 L-1.3 -27.45 -0.2 -29.0 -2.05 -31.3 -2.1 -31.9 -1.7 -32.25 -1.7 -32.3 -0.3 -34.15 -2.15 -36.5 Q-2.4 -36.8 -2.25 -37.1 L-1.8 -37.45 -0.45 -39.35 -2.3 -41.65 -2.35 -42.25 -1.95 -42.6 -1.9 -42.7 -0.55 -44.6 -2.4 -46.9 Q-2.65 -47.2 -2.45 -47.5 L-1.95 -47.9 -0.65 -49.7 -2.5 -52.0 Q-2.75 -52.3 -2.55 -52.6 L-2.15 -52.95 -2.15 -53.0 Q-2.35 -53.3 -2.15 -53.6 L-0.8 -55.5 -2.65 -57.8 -2.7 -58.4 Q-2.5 -58.75 -1.95 -58.85 L-1.45 -58.95 -0.85 -59.75 -2.75 -62.1 -2.8 -62.7 -2.05 -63.15 -1.0 -63.2 Q-0.45 -63.1 -0.2 -62.8 L0.65 -61.8 1.4 -62.85 Q1.65 -63.15 2.2 -63.25 L3.25 -63.3 4.0 -62.85 3.95 -62.25 M0.8 -57.65 L0.7 -57.85 0.55 -57.7 0.75 -57.5 0.8 -57.65 M1.4 -47.2 L1.3 -47.3 0.95 -47.75 0.6 -47.25 0.5 -47.15 0.95 -46.6 1.4 -47.2 M1.65 -52.75 L1.15 -53.1 0.8 -53.55 0.45 -53.05 0.0 -52.7 0.05 -52.7 0.85 -51.7 1.65 -52.75 M1.05 -42.65 L0.7 -42.15 0.5 -42.0 1.1 -41.35 1.55 -42.05 1.4 -42.2 1.05 -42.65 M0.7 -36.75 L1.2 -36.2 1.65 -36.8 1.55 -36.95 1.15 -37.4 0.85 -36.9 0.7 -36.75 M1.8 -31.65 L1.65 -31.8 1.3 -32.25 0.95 -31.75 0.8 -31.6 1.3 -31.0 1.8 -31.65 M1.0 -26.5 L1.4 -26.1 1.75 -26.55 1.75 -26.6 1.4 -27.05 1.05 -26.55 1.0 -26.5 M1.85 -21.7 L1.5 -22.15 1.15 -21.65 0.85 -21.4 1.25 -20.95 1.85 -21.7 M1.8 -16.4 L1.35 -17.0 0.9 -16.35 1.4 -15.8 1.8 -16.4 M1.0 -11.1 L1.5 -10.45 2.05 -11.15 1.45 -11.8 1.0 -11.1 M2.05 -5.9 L1.6 -6.5 1.15 -5.85 1.6 -5.3 2.05 -5.9" fill="#0c100f" fill-rule="evenodd" stroke="none"/>
    <path d="M3.75 -62.85 Q3.95 -62.55 3.7 -62.25 L1.95 -59.8 2.6 -59.0 3.1 -59.0 3.85 -58.55 Q4.05 -58.25 3.8 -57.95 L2.0 -55.5 3.5 -53.75 Q3.7 -53.45 3.5 -53.15 L3.45 -53.1 4.0 -52.75 3.95 -52.15 2.15 -49.7 3.55 -48.05 4.1 -47.65 4.05 -47.05 2.25 -44.65 3.75 -42.85 3.8 -42.75 4.2 -42.4 4.15 -41.8 2.35 -39.35 3.8 -37.6 4.3 -37.25 Q4.55 -36.95 4.3 -36.65 L2.5 -34.2 3.95 -32.45 4.0 -32.4 4.45 -32.05 Q4.65 -31.75 4.4 -31.45 L2.6 -29.0 3.8 -27.6 4.55 -27.15 4.5 -26.55 2.7 -24.1 4.2 -22.35 Q4.4 -22.05 4.2 -21.75 L4.15 -21.7 4.2 -21.7 4.15 -21.1 2.6 -18.95 4.3 -16.9 4.35 -16.4 Q4.5 -16.2 4.3 -15.95 L2.75 -13.8 4.45 -11.75 Q4.65 -11.45 4.45 -11.15 4.65 -10.9 4.4 -10.6 L2.85 -8.45 4.55 -6.4 4.6 -5.9 4.5 -5.45 2.95 -3.3 4.65 -1.25 Q4.85 -0.95 4.65 -0.65 4.45 -0.35 4.0 -0.2 L2.9 -0.15 Q2.3 -0.3 2.05 -0.6 L1.5 -1.25 1.4 -5.3 1.8 -5.9 1.4 -6.4 1.3 -10.4 1.8 -11.15 1.25 -11.75 1.2 -15.75 1.55 -16.4 1.15 -16.9 1.05 -20.9 1.6 -21.7 1.25 -22.15 1.05 -21.85 0.95 -26.3 1.15 -26.1 1.5 -26.55 1.5 -26.6 1.15 -27.05 0.95 -26.75 0.85 -31.2 1.05 -31.0 1.55 -31.65 1.4 -31.8 1.05 -32.25 0.85 -31.95 0.75 -36.4 0.95 -36.2 1.4 -36.8 1.3 -36.95 0.9 -37.4 0.7 -37.1 0.6 -41.55 0.85 -41.35 1.3 -42.0 1.15 -42.2 0.8 -42.65 0.6 -42.35 0.5 -46.8 0.7 -46.6 1.15 -47.2 1.05 -47.3 0.7 -47.75 0.5 -47.45 0.4 -51.9 0.6 -51.7 1.4 -52.75 Q1.1 -52.9 0.9 -53.1 L0.55 -53.55 0.35 -53.25 0.2 -62.0 0.4 -61.8 1.15 -62.85 Q1.4 -63.15 1.95 -63.25 L3.0 -63.3 Q3.55 -63.2 3.75 -62.85 M0.45 -57.85 L0.3 -57.6 0.5 -57.5 0.55 -57.65 0.45 -57.85" fill="#4f5b56" fill-rule="evenodd" stroke="none"/>
  </g>
</svg>
