<?xml version="1.0" encoding="UTF-8" standalone="no"?>
<svg xmlns:xlink="http://www.w3.org/1999/xlink" height="12.7px" width="12.4px" xmlns="http://www.w3.org/2000/svg">
  <g transform="matrix(1.0, 0.0, 0.0, 1.0, 48.85, -22.8)">
    <path d="M-43.1 33.85 L-48.85 33.4 -45.3 32.9 -47.65 30.4 -43.8 31.7 -47.55 27.55 -43.4 29.8 -47.45 22.8 -40.9 29.7 -41.35 23.55 Q-40.0 27.6 -36.45 35.5 L-40.6 27.15 -39.9 32.0 -43.25 28.5 -42.15 30.9 -44.75 29.7 -42.95 32.25 -45.95 31.65 -42.85 33.65 -46.6 33.5 -43.1 33.85" fill="#ff9900" fill-rule="evenodd" stroke="none"/>
    <path d="M-36.45 35.5 L-39.65 30.45 -38.85 34.2 -42.3 29.65 -40.2 33.3 -43.35 30.9 -41.3 33.05 -44.2 32.5 -40.4 34.3 -43.1 33.85 -46.6 33.5 -42.85 33.65 -45.95 31.65 -42.95 32.25 -44.75 29.7 -42.15 30.9 -43.25 28.5 -39.9 32.0 -40.6 27.15 -36.45 35.5" fill="#ff6600" fill-rule="evenodd" stroke="none"/>
  </g>
</svg>
