<?xml version="1.0" encoding="UTF-8" standalone="no"?>
<svg xmlns:xlink="http://www.w3.org/1999/xlink" height="47.0px" width="32.05px" xmlns="http://www.w3.org/2000/svg">
  <g transform="matrix(1.0, 0.0, 0.0, 1.0, 1.0, 16.0)">
    <path d="M3.15 -14.2 Q3.8 -13.55 4.4 -11.8 L5.95 -8.2 8.45 -3.75 10.05 -4.15 Q14.8 -4.85 18.5 -3.6 L20.6 -2.65 21.3 -2.15 Q22.3 -1.6 23.0 -0.9 24.7 0.5 25.6 2.45 L26.35 5.05 26.75 7.75 Q28.45 7.95 29.25 8.95 L29.8 9.85 29.9 10.3 Q30.3 11.7 29.6 12.95 L29.0 13.75 29.05 13.9 29.15 14.25 Q29.4 15.1 29.15 15.9 29.55 18.25 28.95 21.1 26.55 27.8 19.55 29.4 L14.5 30.0 14.25 30.0 12.2 29.9 Q9.15 29.5 6.6 28.15 3.2 26.3 1.35 23.0 -0.5 19.7 0.25 16.1 L0.5 15.3 Q0.9 13.9 1.6 12.65 L1.6 12.55 1.55 12.35 1.25 11.7 Q0.25 9.65 0.1 7.9 0.05 6.3 0.4 5.05 L0.95 3.8 Q1.2 2.65 2.15 1.15 L3.05 -0.1 5.35 -2.1 5.6 -2.25 6.1 -2.55 3.5 -6.55 0.4 -11.85 Q-0.2 -13.6 0.1 -14.25 0.4 -14.9 1.0 -14.95 L1.15 -14.95 1.6 -14.95 Q2.4 -14.85 3.15 -14.2 M27.1 10.8 L26.5 10.8 27.55 12.05 28.0 11.2 Q27.6 10.85 27.1 10.8" fill="#f7f7d8" fill-rule="evenodd" stroke="none"/>
    <path d="M3.15 -14.2 Q3.8 -13.55 4.4 -11.8 L5.95 -8.2 8.45 -3.75 10.05 -4.15 Q14.8 -4.85 18.5 -3.6 L20.6 -2.65 21.3 -2.15 Q22.3 -1.6 23.0 -0.9 24.7 0.5 25.6 2.45 L26.35 5.05 26.75 7.75 Q28.45 7.95 29.25 8.95 L29.8 9.85 29.9 10.3 Q30.3 11.7 29.6 12.95 L29.0 13.75 29.05 13.9 29.15 14.25 Q29.4 15.1 29.15 15.9 29.55 18.25 28.95 21.1 26.55 27.8 19.55 29.4 L14.5 30.0 14.25 30.0 12.2 29.9 Q9.15 29.5 6.6 28.15 3.2 26.3 1.35 23.0 -0.5 19.7 0.25 16.1 L0.5 15.3 Q0.9 13.9 1.6 12.65 L1.6 12.55 1.55 12.35 1.25 11.7 Q0.25 9.65 0.1 7.9 0.05 6.3 0.4 5.05 L0.95 3.8 Q1.2 2.65 2.15 1.15 L3.05 -0.1 5.35 -2.1 5.6 -2.25 6.1 -2.55 3.5 -6.55 0.4 -11.85 Q-0.2 -13.6 0.1 -14.25 0.4 -14.9 1.0 -14.95 L1.15 -14.95 1.6 -14.95 Q2.4 -14.85 3.15 -14.2 Z" fill="none" stroke="#6b3101" stroke-linecap="round" stroke-linejoin="round" stroke-width="2.0"/>
  </g>
</svg>
