<?xml version="1.0" encoding="UTF-8" standalone="no"?>
<svg xmlns:xlink="http://www.w3.org/1999/xlink" height="47.0px" width="30.0px" xmlns="http://www.w3.org/2000/svg">
  <g transform="matrix(1.0, 0.0, 0.0, 1.0, 0.0, 16.0)">
    <path d="M20.1 -13.6 Q22.15 -12.25 22.15 -10.35 L22.05 -9.5 22.1 -9.4 22.15 -9.25 22.15 -8.15 22.1 -7.6 22.15 -6.7 22.4 -6.2 Q24.85 -5.0 26.3 -3.85 28.85 -2.1 28.95 -0.2 L28.9 1.4 28.35 4.6 Q28.35 5.6 27.15 6.65 L26.6 7.0 26.4 7.15 24.7 15.1 Q27.6 17.4 27.05 19.8 L26.25 25.3 Q25.25 27.3 23.6 28.3 22.25 29.05 19.45 29.6 L18.7 29.7 17.35 29.9 Q16.5 30.1 14.15 29.9 L9.3 29.1 7.85 28.45 Q4.65 27.0 3.35 24.05 2.65 21.5 2.9 18.65 3.15 15.95 5.25 15.0 L3.65 7.25 3.3 7.05 2.15 6.1 Q1.45 5.25 1.2 3.75 L1.1 3.2 Q0.85 1.25 1.25 -0.9 L1.45 -1.6 Q2.25 -3.85 4.55 -5.15 5.7 -5.95 7.9 -6.8 L8.1 -7.15 8.05 -9.6 8.1 -9.6 8.1 -10.05 8.15 -10.1 8.1 -10.45 Q8.1 -12.35 10.1 -13.65 12.15 -15.0 15.1 -15.0 18.0 -14.95 20.1 -13.6" fill="#80181f" fill-rule="evenodd" stroke="none"/>
    <path d="M20.1 -13.6 Q22.15 -12.25 22.15 -10.35 L22.05 -9.5 22.1 -9.4 22.15 -9.25 22.15 -8.15 22.1 -7.6 22.15 -6.7 22.4 -6.2 Q24.85 -5.0 26.3 -3.85 28.85 -2.1 28.95 -0.2 L28.9 1.4 28.35 4.6 Q28.35 5.6 27.15 6.65 L26.6 7.0 26.4 7.15 24.7 15.1 Q27.6 17.4 27.05 19.8 L26.25 25.3 Q25.25 27.3 23.6 28.3 22.25 29.05 19.45 29.6 L18.7 29.7 17.35 29.9 Q16.5 30.1 14.15 29.9 L9.3 29.1 7.85 28.45 Q4.65 27.0 3.35 24.05 2.65 21.5 2.9 18.65 3.15 15.95 5.25 15.0 L3.65 7.25 3.3 7.05 2.15 6.1 Q1.45 5.25 1.2 3.75 L1.1 3.2 Q0.85 1.25 1.25 -0.9 L1.45 -1.6 Q2.25 -3.85 4.55 -5.15 5.7 -5.95 7.9 -6.8 L8.1 -7.15 8.05 -9.6 8.1 -9.6 8.1 -10.05 8.15 -10.1 8.1 -10.45 Q8.1 -12.35 10.1 -13.65 12.15 -15.0 15.1 -15.0 18.0 -14.95 20.1 -13.6 Z" fill="none" stroke="#660108" stroke-linecap="round" stroke-linejoin="round" stroke-width="2.0"/>
    <path d="M13.6 23.85 L14.65 23.75 17.05 23.3 Q19.8 22.45 20.2 20.75 L21.55 16.45 22.2 12.35 22.2 11.8 Q22.25 9.2 21.55 7.85 23.85 7.25 26.65 5.85 L23.75 19.45 23.65 19.9 Q23.3 21.65 21.85 22.85 L21.8 22.9 21.75 22.9 21.55 23.0 Q18.5 24.2 15.35 24.15 L15.35 24.35 14.85 24.15 13.6 24.0 13.6 23.85 M11.5 23.65 L13.5 23.85 13.5 23.9 11.65 23.75 11.5 23.65" fill="#83060d" fill-rule="evenodd" stroke="none"/>
    <path d="M21.55 7.85 Q22.25 9.2 22.2 11.8 L22.2 12.35 21.55 16.45 20.2 20.75 Q19.8 22.45 17.05 23.3 L14.65 23.75 13.6 23.85 13.5 23.85 11.5 23.65 11.2 23.55 8.45 22.65 Q7.3 22.05 6.65 20.7 L6.25 19.75 3.35 5.9 5.15 6.75 5.05 7.65 Q5.05 8.85 5.9 12.35 L6.6 15.05 7.5 17.7 Q8.45 20.95 8.9 21.15 L9.35 20.75 9.35 20.1 9.35 19.0 8.45 15.95 Q7.75 13.9 7.55 12.35 L7.45 11.3 7.5 9.25 Q7.65 8.45 8.4 7.7 L8.85 7.85 12.4 8.45 Q15.25 8.85 17.85 8.55 L18.55 8.35 18.55 8.4 19.0 8.35 21.55 7.85" fill="#b6333b" fill-rule="evenodd" stroke="none"/>
    <path d="M8.4 7.7 Q7.65 8.45 7.5 9.25 L7.45 11.3 7.55 12.35 Q7.75 13.9 8.45 15.95 L9.35 19.0 9.35 20.1 9.35 20.75 8.9 21.15 Q8.45 20.95 7.5 17.7 L6.6 15.05 5.9 12.35 Q5.05 8.85 5.05 7.65 L5.15 6.75 7.15 7.5 8.4 7.7" fill="#e57980" fill-rule="evenodd" stroke="none"/>
    <path d="M1.25 -0.95 L1.45 -1.65 Q2.25 -3.9 4.55 -5.15 6.75 -6.75 12.4 -8.35 9.85 -7.25 6.1 -4.55 L3.65 -2.2 Q2.9 -0.95 2.7 0.1 3.55 2.3 5.1 2.8 6.65 3.35 7.5 2.55 L8.7 -1.0 Q10.95 -6.15 14.8 -8.9 L14.9 -8.9 19.25 -4.75 Q23.0 -1.25 23.05 1.0 23.1 4.8 16.45 5.85 L11.6 6.25 9.35 5.85 7.95 5.6 7.05 5.3 6.65 5.2 6.5 5.15 Q2.75 3.75 1.65 1.15 1.4 0.5 1.3 -0.15 1.2 -0.55 1.25 -0.95" fill="#db646b" fill-rule="evenodd" stroke="none"/>
    <path d="M8.8 9.15 L8.35 8.95 7.1 8.7 5.1 7.9 3.3 7.05 2.15 6.05 Q1.45 5.25 1.2 3.75 L1.1 3.15 Q0.85 1.2 1.25 -0.95 1.2 -0.55 1.3 -0.15 1.4 0.5 1.65 1.15 2.75 3.75 6.5 5.15 L6.65 5.2 7.05 5.3 7.95 5.6 7.95 5.65 7.95 6.0 8.5 8.4 8.8 9.15" fill="#bb3a42" fill-rule="evenodd" stroke="none"/>
    <path d="M12.4 -8.35 L13.95 -8.8 14.15 -8.8 14.8 -8.9 Q10.95 -6.15 8.7 -1.0 L7.5 2.55 Q6.65 3.35 5.1 2.8 3.55 2.3 2.7 0.1 2.9 -0.95 3.65 -2.2 L6.1 -4.55 Q9.85 -7.25 12.4 -8.35" fill="#f79aa0" fill-rule="evenodd" stroke="none"/>
    <path d="M14.9 -8.9 Q16.2 -8.9 17.15 -8.35 L17.95 -8.3 Q23.7 -5.85 26.3 -3.9 28.85 -2.15 28.95 -0.2 L28.9 1.35 Q25.7 4.65 21.2 5.95 L12.4 6.35 11.6 6.25 16.45 5.85 Q23.1 4.8 23.05 1.0 23.0 -1.25 19.25 -4.75 L14.9 -8.9" fill="#c63e45" fill-rule="evenodd" stroke="none"/>
    <path d="M28.9 1.35 L28.35 4.55 Q28.35 5.6 27.15 6.6 26.85 6.75 26.6 7.0 23.8 8.45 21.5 9.15 L18.95 9.65 18.5 9.7 18.5 9.65 Q19.3 9.3 20.5 8.9 L21.05 8.5 Q21.4 7.9 21.4 7.3 21.4 6.25 21.2 5.95 25.7 4.65 28.9 1.35" fill="#8c0c14" fill-rule="evenodd" stroke="none"/>
    <path d="M18.5 9.65 L17.8 9.9 12.35 9.75 8.8 9.15 8.5 8.4 7.95 6.0 7.95 5.65 7.95 5.6 9.35 5.85 11.6 6.25 12.4 6.35 21.2 5.95 Q21.4 6.25 21.4 7.3 21.4 7.9 21.05 8.5 L20.5 8.9 Q19.3 9.3 18.5 9.65" fill="#9f141c" fill-rule="evenodd" stroke="none"/>
    <path d="M9.6 -8.55 Q11.85 -10.05 15.0 -10.0 18.15 -10.0 20.4 -8.5 22.6 -7.0 22.6 -4.9 22.6 -2.85 20.4 -1.4 18.1 0.0 15.0 0.0 11.9 -0.05 9.6 -1.45 7.4 -2.95 7.4 -5.0 7.4 -7.1 9.6 -8.55" fill="#c4c9a6" fill-rule="evenodd" stroke="none"/>
    <path d="M22.6 -4.6 Q22.4 -2.3 19.65 -0.95 L18.3 -4.55 20.9 -5.65 21.4 -5.4 22.6 -4.6" fill="#d7dcc4" fill-rule="evenodd" stroke="none"/>
    <path d="M9.95 -5.2 Q8.9 -4.4 8.05 -2.9 7.4 -3.85 7.4 -4.9 L7.45 -5.55 8.75 -6.45 9.1 -5.95 9.95 -5.2" fill="#d7dcc4" fill-rule="evenodd" stroke="none"/>
    <path d="M8.05 -9.6 L15.2 -9.4 22.0 -9.9 22.15 -6.5 Q22.15 -4.6 20.1 -3.25 18.0 -1.9 15.1 -1.9 12.15 -1.95 10.1 -3.3 8.1 -4.7 8.1 -6.6 L8.05 -9.6" fill="#fffbf8" fill-rule="evenodd" stroke="none"/>
    <path d="M18.85 -11.4 L19.05 -8.85 Q19.0 -6.7 17.9 -4.55 L17.65 -3.85 15.1 -3.65 Q12.1 -3.65 10.2 -5.0 8.05 -6.45 8.1 -8.3 L8.1 -10.05 8.65 -11.3 15.25 -11.0 18.85 -11.4" fill="#c4c9a6" fill-rule="evenodd" stroke="none"/>
    <path d="M17.65 -3.85 L17.9 -4.55 Q19.0 -6.7 19.05 -8.85 L18.85 -11.4 20.7 -11.55 21.55 -10.55 22.1 -9.45 22.15 -9.3 22.15 -8.2 Q22.15 -6.35 20.15 -4.9 19.0 -4.15 17.65 -3.85" fill="#b3b893" fill-rule="evenodd" stroke="none"/>
    <path d="M10.1 -13.7 Q12.15 -15.05 15.1 -15.0 18.0 -15.0 20.1 -13.65 22.15 -12.2 22.15 -10.3 22.15 -8.45 20.1 -7.1 18.0 -5.75 15.1 -5.75 12.15 -5.8 10.1 -7.15 8.1 -8.55 8.1 -10.4 8.1 -12.3 10.1 -13.7" fill="#ffffff" fill-rule="evenodd" stroke="none"/>
    <path d="M10.9 -13.6 Q12.6 -14.75 15.1 -14.7 17.6 -14.7 19.35 -13.55 21.1 -12.4 21.1 -10.75 21.1 -9.2 19.35 -8.05 17.6 -6.9 15.1 -6.9 12.65 -6.95 10.9 -8.1 9.15 -9.25 9.15 -10.8 9.15 -12.45 10.9 -13.6" fill="#eff2e6" fill-rule="evenodd" stroke="none"/>
    <path d="M27.05 19.9 L26.9 20.55 Q25.4 23.2 20.85 25.15 L20.05 25.45 19.1 25.85 18.95 25.85 18.75 25.6 Q18.15 24.9 16.85 24.65 L15.3 24.35 15.3 24.15 Q18.45 24.2 21.5 22.8 L21.7 22.65 21.75 22.65 21.8 22.6 Q23.25 21.2 23.6 19.15 L23.7 18.6 24.25 14.8 Q27.65 17.25 27.05 19.9" fill="#951118" fill-rule="evenodd" stroke="none"/>
    <path d="M18.95 25.85 L19.1 25.85 20.05 25.45 20.85 25.15 Q25.4 23.2 26.9 20.55 L27.05 19.9 26.25 25.35 Q25.25 27.35 23.6 28.35 22.25 29.1 19.45 29.65 L18.7 29.75 19.15 28.9 19.35 27.15 19.25 26.4 18.95 25.85" fill="#830e14" fill-rule="evenodd" stroke="none"/>
    <path d="M2.9 18.7 Q3.65 20.3 4.9 21.7 4.95 23.85 6.35 26.3 L7.85 28.5 Q4.65 27.1 3.35 24.1 2.65 21.6 2.9 18.7" fill="#c94249" fill-rule="evenodd" stroke="none"/>
    <path d="M4.9 21.7 Q3.65 20.3 2.9 18.7 3.15 15.85 5.45 14.95 L6.2 18.95 6.6 20.1 5.9 20.6 Q4.95 21.15 4.9 21.7" fill="#e96f75" fill-rule="evenodd" stroke="none"/>
    <path d="M15.3 24.35 L16.85 24.65 Q18.15 24.9 18.75 25.6 L18.95 25.85 Q13.05 26.3 7.6 23.9 L4.9 21.7 Q4.95 21.15 5.9 20.6 L6.6 20.1 Q7.25 21.65 8.4 22.35 9.15 22.8 11.15 23.45 L11.45 23.5 11.6 23.6 13.45 23.85 13.55 23.95 14.8 24.15 15.3 24.35" fill="#cd434a" fill-rule="evenodd" stroke="none"/>
    <path d="M18.95 25.85 L19.25 26.4 19.35 27.15 19.15 28.9 18.7 29.75 17.35 29.95 Q16.5 30.15 14.15 29.95 L9.3 29.15 7.85 28.5 6.35 26.3 Q4.95 23.85 4.9 21.7 L7.6 23.9 Q13.05 26.3 18.95 25.85" fill="#b42a31" fill-rule="evenodd" stroke="none"/>
    <path d="M11.35 10.35 L12.05 10.2 13.85 10.05 17.9 10.15 19.65 10.5 18.8 12.7 22.05 12.15 19.85 19.3 Q15.3 22.1 9.9 18.85 L7.95 11.9 8.5 12.0 11.65 12.55 10.9 10.5 11.35 10.35 M18.2 11.25 Q16.85 10.75 15.35 10.7 L12.45 11.2 12.95 13.85 9.65 13.25 11.05 18.2 Q15.05 20.1 19.25 18.25 L20.5 13.4 17.3 13.9 18.2 11.25" fill="#d8c9db" fill-rule="evenodd" stroke="none"/>
    <path d="M18.2 11.25 L17.3 13.9 20.5 13.4 19.25 18.25 Q15.05 20.1 11.05 18.2 L9.65 13.25 12.95 13.85 12.45 11.2 15.35 10.7 Q16.85 10.75 18.2 11.25 M11.6 15.0 L11.55 15.35 Q11.5 16.05 11.9 16.65 12.3 17.85 13.5 17.85 L13.95 17.7 13.95 16.9 13.85 16.0 Q13.9 15.4 13.5 15.15 L11.6 15.0 M16.75 17.75 L16.7 15.35 Q15.05 14.85 14.75 16.2 L14.75 17.55 14.85 18.05 15.05 18.05 16.75 17.75 M19.4 15.65 Q19.4 15.15 18.9 15.1 18.3 15.05 17.5 15.55 L17.3 16.9 17.3 17.65 17.9 17.65 Q19.05 17.65 19.4 15.65 M16.4 12.1 L15.3 12.0 14.3 12.1 Q14.2 12.1 14.25 12.4 14.25 13.3 14.75 13.75 L16.15 13.75 16.55 12.45 16.4 12.1" fill="#5ca882" fill-rule="evenodd" stroke="none"/>
    <path d="M16.4 12.1 L16.55 12.45 16.15 13.75 14.75 13.75 Q14.25 13.3 14.25 12.4 14.2 12.1 14.3 12.1 L15.3 12.0 16.4 12.1 M19.4 15.65 Q19.05 17.65 17.9 17.65 L17.3 17.65 17.3 16.9 17.5 15.55 Q18.3 15.05 18.9 15.1 19.4 15.15 19.4 15.65 M16.75 17.75 L15.05 18.05 14.85 18.05 14.75 17.55 14.75 16.2 Q15.05 14.85 16.7 15.35 L16.75 17.75 M11.6 15.0 L13.5 15.15 Q13.9 15.4 13.85 16.0 L13.95 16.9 13.95 17.7 13.5 17.85 Q12.3 17.85 11.9 16.65 11.5 16.05 11.55 15.35 L11.6 15.0" fill="#eee9ef" fill-rule="evenodd" stroke="none"/>
  </g>
</svg>
