<?xml version="1.0" encoding="UTF-8" standalone="no"?>
<svg xmlns:xlink="http://www.w3.org/1999/xlink" height="114.0px" width="100.25px" xmlns="http://www.w3.org/2000/svg">
  <g transform="matrix(1.0, 0.0, 0.0, 1.0, 8.85, 12.0)">
    <path d="M15.6 -7.25 Q47.05 -11.1 74.6 -6.5 75.75 7.3 76.9 14.6 L78.05 17.7 Q78.05 20.0 78.8 21.15 L83.05 31.1 Q84.55 34.55 86.5 36.1 88.4 37.65 88.4 38.4 L88.4 38.8 88.0 39.55 86.5 43.75 86.5 44.15 Q86.1 44.55 85.35 46.45 84.95 46.85 84.55 48.0 L74.6 64.85 75.0 67.55 75.35 70.65 74.6 72.95 74.2 75.25 76.15 95.95 69.65 96.7 64.25 97.5 63.5 95.2 Q63.5 93.65 63.1 94.05 62.35 95.2 61.95 97.85 L61.6 97.85 60.05 94.8 59.3 98.25 53.9 98.25 44.75 98.65 41.3 99.0 40.9 99.0 39.35 95.95 Q38.2 96.7 37.05 98.65 L36.7 98.65 35.15 94.05 34.75 94.05 34.75 94.4 34.4 97.1 33.6 98.65 33.25 98.65 21.75 97.85 Q21.35 95.2 20.6 94.4 20.6 95.2 19.85 97.1 L19.85 97.85 18.3 97.85 15.25 97.5 10.65 96.7 Q7.95 95.95 5.65 95.95 L7.95 82.15 7.95 81.75 8.35 81.35 9.5 75.25 7.6 71.0 7.95 66.0 Q7.6 63.35 5.65 60.65 1.05 54.5 -1.6 49.5 L-2.4 48.35 -4.7 44.15 -4.7 43.0 Q-5.45 41.45 -5.85 39.55 L-5.85 38.4 -2.75 34.2 -1.6 32.65 -0.85 31.5 0.7 28.4 Q1.45 26.9 2.2 22.65 L3.35 18.85 Q3.75 16.9 3.75 15.0 L3.75 14.6 Q5.3 6.55 6.8 -5.7 13.7 -7.25 15.6 -7.25" fill="#a3670f" fill-rule="evenodd" stroke="none"/>
    <path d="M15.6 -7.25 Q47.05 -11.1 74.6 -6.5 75.75 7.3 76.9 14.6 L78.05 17.7 Q78.05 20.0 78.8 21.15 L83.05 31.1 Q84.55 34.55 86.5 36.1 88.4 37.65 88.4 38.4 L88.4 38.8 88.0 39.55 86.5 43.75 86.5 44.15 Q86.1 44.55 85.35 46.45 84.95 46.85 84.55 48.0 L74.6 64.85 75.0 67.55 75.35 70.65 74.6 72.95 74.2 75.25 76.15 95.95 69.65 96.7 64.25 97.5 63.5 95.2 Q63.5 93.65 63.1 94.05 62.35 95.2 61.95 97.85 L61.6 97.85 60.05 94.8 59.3 98.25 53.9 98.25 44.75 98.65 41.3 99.0 40.9 99.0 39.35 95.95 Q38.2 96.7 37.05 98.65 L36.7 98.65 35.15 94.05 34.75 94.05 34.75 94.4 34.4 97.1 33.6 98.65 33.25 98.65 21.75 97.85 Q21.35 95.2 20.6 94.4 20.6 95.2 19.85 97.1 L19.85 97.85 18.3 97.85 15.25 97.5 10.65 96.7 Q7.95 95.95 5.65 95.95 L7.95 82.15 7.95 81.75 8.35 81.35 9.5 75.25 7.6 71.0 7.95 66.0 Q7.6 63.35 5.65 60.65 1.05 54.5 -1.6 49.5 L-2.4 48.35 -4.7 44.15 -4.7 43.0 Q-5.45 41.45 -5.85 39.55 L-5.85 38.4 -2.75 34.2 -1.6 32.65 -0.85 31.5 0.7 28.4 Q1.45 26.9 2.2 22.65 L3.35 18.85 Q3.75 16.9 3.75 15.0 L3.75 14.6 Q5.3 6.55 6.8 -5.7 13.7 -7.25 15.6 -7.25 Z" fill="none" stroke="#411d14" stroke-linecap="round" stroke-linejoin="round" stroke-width="6.0"/>
    <path d="M3.75 15.45 L3.75 15.05 Q5.3 7.0 6.8 -5.25 L11.4 -6.05 Q14.1 -6.8 15.6 -6.8 44.75 -10.25 70.4 -6.8 L74.6 -6.05 Q75.75 7.75 76.9 15.05 L78.05 18.15 77.65 18.15 68.85 21.95 59.3 24.65 Q48.95 26.2 40.5 26.2 L36.7 26.2 Q35.55 26.2 34.75 25.8 27.5 25.05 21.0 23.1 11.8 20.05 3.75 15.45 M83.05 31.55 Q84.55 35.0 86.5 36.55 88.4 38.1 88.4 38.85 L88.4 39.25 88.0 40.0 86.5 44.2 86.5 44.6 Q86.1 45.0 85.35 46.9 84.95 47.3 84.95 48.05 84.55 48.05 84.55 48.45 L84.2 49.2 Q78.8 51.5 70.0 52.3 L67.7 52.3 Q58.15 52.3 51.6 49.95 L47.05 48.05 44.35 46.9 42.45 45.35 Q41.65 45.0 41.3 44.6 L41.3 44.3 Q41.3 45.0 40.15 46.15 L39.75 46.5 Q38.6 47.65 34.75 48.8 L32.45 49.2 Q30.15 50.75 28.25 50.75 23.65 51.9 16.0 52.3 L11.8 52.3 4.9 51.5 Q0.7 50.75 -0.85 48.8 L-4.7 44.6 -4.7 43.45 Q-5.45 41.9 -5.85 40.0 L-5.85 38.85 -2.75 34.65 -1.6 33.1 -0.85 31.95 Q-0.45 30.4 0.7 28.85 0.7 35.8 1.45 38.85 L1.45 40.4 Q3.75 45.35 7.2 46.15 L17.15 46.9 22.9 46.5 28.65 45.35 32.85 44.2 35.55 43.05 37.45 42.3 Q38.6 40.75 38.6 38.85 L40.15 35.8 40.9 31.95 Q40.9 35.0 42.45 38.85 L42.8 41.55 45.1 43.05 Q46.65 43.85 53.9 46.15 61.2 48.05 69.65 47.65 77.65 46.9 79.95 42.7 L81.5 38.85 83.05 31.55" fill="#c47500" fill-rule="evenodd" stroke="none"/>
    <path d="M3.75 15.45 Q11.8 20.05 21.0 23.1 27.5 25.05 34.75 25.8 35.55 26.2 36.7 26.2 L40.5 26.2 Q48.95 26.2 59.3 24.65 L68.85 21.95 77.65 18.15 78.05 18.15 Q78.05 20.45 78.8 21.6 81.1 28.1 83.05 31.55 L81.5 38.85 79.95 42.7 Q77.65 46.9 69.65 47.65 61.2 48.05 53.9 46.15 46.65 43.85 45.1 43.05 L42.8 41.55 42.45 38.85 Q40.9 35.0 40.9 31.95 L40.15 35.8 38.6 38.85 Q38.6 40.75 37.45 42.3 L35.55 43.05 32.85 44.2 28.65 45.35 22.9 46.5 17.15 46.9 7.2 46.15 Q3.75 45.35 1.45 40.4 L1.45 38.85 Q0.7 35.8 0.7 28.85 2.2 24.25 3.35 19.3 3.75 17.35 3.75 15.45 M11.8 52.3 L16.0 52.3 Q23.65 51.9 28.25 50.75 30.15 50.75 32.45 49.2 L34.75 48.8 Q38.6 47.65 39.75 46.5 L40.15 46.15 Q41.3 45.0 41.3 44.3 L41.3 44.6 Q41.65 45.0 42.45 45.35 L44.35 46.9 47.05 48.05 51.6 49.95 Q58.15 52.3 67.7 52.3 L70.0 52.3 Q70.4 53.05 70.4 54.2 70.4 58.05 67.7 62.25 65.05 66.85 62.75 66.45 L63.9 67.6 Q64.25 68.4 64.25 69.55 64.25 71.85 63.5 73.75 L62.75 73.75 Q49.3 79.15 39.0 78.0 28.25 77.2 17.15 73.0 16.75 71.45 16.75 69.9 16.75 68.4 17.55 67.6 L19.05 65.3 Q16.4 64.95 14.1 61.1 11.4 57.25 11.4 53.8 11.4 53.05 11.8 52.3" fill="#d78101" fill-rule="evenodd" stroke="none"/>
    <path d="M84.2 49.2 L74.6 65.3 75.0 68.0 Q68.85 71.45 63.5 73.75 64.25 71.85 64.25 69.55 64.25 68.4 63.9 67.6 L62.75 66.45 Q65.05 66.85 67.7 62.25 70.4 58.05 70.4 54.2 70.4 53.05 70.0 52.3 78.8 51.5 84.2 49.2 M7.6 68.75 L7.95 66.45 Q7.6 63.8 5.65 61.1 1.05 54.95 -1.6 49.95 L-2.4 48.8 -4.7 44.6 -0.85 48.8 Q0.7 50.75 4.9 51.5 L11.8 52.3 Q11.4 53.05 11.4 53.8 11.4 57.25 14.1 61.1 16.4 64.95 19.05 65.3 L17.55 67.6 Q16.75 68.4 16.75 69.9 16.75 71.45 17.15 73.0 12.55 71.1 7.6 68.75" fill="#af6901" fill-rule="evenodd" stroke="none"/>
    <path d="M75.0 68.0 L75.35 71.1 74.6 73.4 Q57.75 81.8 42.45 81.8 L39.0 81.8 Q24.8 81.05 8.35 73.75 L7.6 71.45 7.6 68.75 Q12.55 71.1 17.15 73.0 28.25 77.2 39.0 78.0 49.3 79.15 62.75 73.75 L63.5 73.75 Q68.85 71.45 75.0 68.0" fill="#eacc86" fill-rule="evenodd" stroke="none"/>
    <path d="M41.3 99.45 L40.9 99.45 39.35 96.4 Q38.2 97.15 37.05 99.1 L36.7 99.1 35.15 94.5 34.75 94.5 34.75 94.85 34.4 97.55 33.6 99.1 33.25 99.1 24.45 98.7 Q22.5 93.7 25.2 84.9 L26.35 82.95 25.95 84.9 25.6 87.55 25.6 90.25 26.75 87.55 Q29.0 83.75 30.55 82.6 L33.25 82.95 38.2 83.75 Q38.6 85.25 38.6 89.1 L40.5 84.9 41.3 86.05 41.65 87.55 42.45 83.75 46.25 83.75 Q47.05 84.1 47.05 84.9 L46.65 87.2 Q45.9 89.1 44.75 92.95 42.8 96.8 43.2 96.8 42.8 96.8 41.3 94.85 42.45 97.15 41.65 98.3 41.65 99.1 41.3 99.45 M22.15 98.3 L21.75 98.3 Q21.35 95.65 20.6 94.85 20.6 95.65 19.85 97.55 L19.85 98.3 18.3 98.3 15.25 97.95 10.65 97.15 11.8 92.2 8.7 94.5 11.0 87.95 13.3 82.2 16.0 79.15 Q18.2 79.5 17.6 78.8 17.95 79.15 18.7 79.15 21.75 79.9 22.15 80.3 L23.65 80.65 Q22.15 82.6 22.15 86.8 L22.15 87.2 Q21.0 93.7 22.15 98.3 M33.6 86.05 L31.7 86.05 Q29.8 86.8 28.65 89.1 28.25 89.85 28.25 90.65 L28.25 92.2 27.1 96.0 29.8 96.4 30.95 96.4 33.25 90.65 Q33.25 90.25 34.75 88.7 36.3 87.55 36.3 86.8 L35.9 86.05 Q35.55 85.65 34.75 86.05 L33.6 86.05" fill="#64503c" fill-rule="evenodd" stroke="none"/>
    <path d="M10.65 97.15 Q7.95 96.4 5.65 96.4 L7.95 82.6 7.95 82.2 8.35 81.8 9.5 75.7 12.55 77.2 14.1 77.6 14.1 78.0 Q16.0 78.0 17.55 78.75 L17.6 78.8 Q18.2 79.5 16.0 79.15 L13.3 82.2 11.0 87.95 8.7 94.5 11.8 92.2 10.65 97.15" fill="#433323" fill-rule="evenodd" stroke="none"/>
    <path d="M74.6 73.4 L74.2 75.7 70.75 77.2 68.85 78.0 66.55 78.75 65.4 79.15 57.35 81.8 53.9 82.6 Q53.15 82.6 52.0 82.95 L48.95 83.35 46.25 83.75 42.45 83.75 40.15 83.75 38.6 83.75 38.2 83.75 33.25 82.95 30.55 82.6 Q29.0 82.2 28.25 81.8 26.75 81.8 24.05 80.65 L23.65 80.65 22.15 80.3 Q21.75 79.9 18.7 79.15 17.95 79.15 17.6 78.8 L17.55 78.75 Q16.0 78.0 14.1 78.0 L14.1 77.6 12.55 77.2 9.5 75.7 8.35 73.75 Q24.8 81.05 39.0 81.8 L42.45 81.8 Q57.75 81.8 74.6 73.4" fill="#fcfbe3" fill-rule="evenodd" stroke="none"/>
    <path d="M33.6 86.05 L34.75 86.05 Q35.55 85.65 35.9 86.05 L36.3 86.8 Q36.3 87.55 34.75 88.7 33.25 90.25 33.25 90.65 L30.95 96.4 29.8 96.4 27.1 96.0 28.25 92.2 28.25 90.65 Q28.25 89.85 28.65 89.1 29.8 86.8 31.7 86.05 L33.6 86.05" fill="#725d48" fill-rule="evenodd" stroke="none"/>
    <path d="M38.2 83.75 L38.6 83.75 40.15 83.75 42.45 83.75 41.65 87.55 41.3 86.05 40.5 84.9 38.6 89.1 Q38.6 85.25 38.2 83.75" fill="#433426" fill-rule="evenodd" stroke="none"/>
    <path d="M24.45 98.7 L22.15 98.3 Q21.0 93.7 22.15 87.2 L22.15 86.8 Q22.15 82.6 23.65 80.65 L24.05 80.65 Q26.75 81.8 28.25 81.8 29.0 82.2 30.55 82.6 29.0 83.75 26.75 87.55 L25.6 90.25 25.6 87.55 25.95 84.9 26.35 82.95 25.2 84.9 Q22.5 93.7 24.45 98.7" fill="#413325" fill-rule="evenodd" stroke="none"/>
    <path d="M74.2 75.7 L76.15 96.4 69.65 97.15 Q69.65 96.8 70.0 96.4 L70.0 93.7 70.4 93.7 72.3 95.65 72.3 91.8 Q72.3 88.7 71.9 86.4 71.9 82.2 70.75 82.2 70.0 82.2 69.65 82.6 L68.85 83.75 Q69.65 81.8 68.85 79.9 67.7 78.75 66.55 78.75 L68.85 78.0 70.75 77.2 74.2 75.7 M56.2 98.7 L53.9 98.7 Q52.4 96.8 50.45 90.65 49.3 93.35 47.4 96.4 45.9 98.7 45.1 99.1 L44.75 99.1 43.2 99.1 Q48.2 92.95 52.0 82.95 53.15 82.6 53.9 82.6 L51.25 88.35 Q52.75 95.65 56.2 98.7" fill="#2e2115" fill-rule="evenodd" stroke="none"/>
    <path d="M69.65 97.15 L64.25 97.95 63.5 95.65 Q63.5 94.1 63.1 94.5 62.35 95.65 61.95 98.3 L61.6 98.3 60.05 95.25 59.3 98.7 56.2 98.7 Q52.75 95.65 51.25 88.35 L53.9 82.6 57.35 81.8 65.4 79.15 66.55 78.75 Q67.7 78.75 68.85 79.9 69.65 81.8 68.85 83.75 L69.65 82.6 Q70.0 82.2 70.75 82.2 71.9 82.2 71.9 86.4 72.3 88.7 72.3 91.8 L72.3 95.65 70.4 93.7 70.0 93.7 70.0 96.4 Q69.65 96.8 69.65 97.15" fill="#3f2e1e" fill-rule="evenodd" stroke="none"/>
    <path d="M43.2 99.1 L41.3 99.45 Q41.65 99.1 41.65 98.3 42.45 97.15 41.3 94.85 42.8 96.8 43.2 96.8 42.8 96.8 44.75 92.95 45.9 89.1 46.65 87.2 L47.05 84.9 Q47.05 84.1 46.25 83.75 L48.95 83.35 52.0 82.95 Q48.2 92.95 43.2 99.1" fill="#4a3928" fill-rule="evenodd" stroke="none"/>
    <path d="M53.9 98.7 L45.1 99.1 Q45.9 98.7 47.4 96.4 49.3 93.35 50.45 90.65 52.4 96.8 53.9 98.7" fill="#c8c8c8" fill-rule="evenodd" stroke="none"/>
  </g>
</svg>
