<?xml version="1.0" encoding="UTF-8" standalone="no"?>
<svg xmlns:xlink="http://www.w3.org/1999/xlink" height="110.8px" width="99.9px" xmlns="http://www.w3.org/2000/svg">
  <g transform="matrix(1.0, 0.0, 0.0, 1.0, 8.75, 9.5)">
    <path d="M6.5 -3.35 Q13.4 -4.9 15.3 -4.9 31.4 -6.8 46.7 -6.45 L57.05 -6.05 74.3 -4.15 Q75.85 13.5 77.35 20.05 78.15 22.35 78.9 23.85 L80.45 27.7 Q81.6 31.55 83.1 33.85 83.9 35.0 85.0 37.7 85.4 37.7 86.55 38.45 L86.95 38.85 Q88.45 40.35 88.1 41.5 L86.55 46.1 83.9 51.5 74.7 67.2 74.7 68.35 75.05 70.65 75.45 73.0 74.7 75.65 74.3 77.6 76.2 98.3 43.65 98.3 41.35 88.7 38.3 98.3 31.8 98.3 30.25 97.9 5.35 98.3 8.05 84.5 8.05 83.7 9.55 77.6 7.25 73.35 7.65 68.35 7.25 65.3 5.35 63.0 Q1.15 56.85 -1.55 52.25 -1.9 51.5 -2.3 51.1 -5.35 46.5 -5.75 41.15 L-4.6 39.2 -5.0 39.2 -3.05 37.7 -3.05 36.55 -1.9 35.4 -0.75 34.25 Q1.15 30.4 1.9 26.55 2.3 25.8 2.3 25.0 L3.8 17.35 Q4.2 13.9 4.95 9.65 L6.5 -3.35" fill="#795d1f" fill-rule="evenodd" stroke="none"/>
    <path d="M6.5 -3.35 L4.95 9.65 Q4.2 13.9 3.8 17.35 L2.3 25.0 Q2.3 25.8 1.9 26.55 1.15 30.4 -0.75 34.25 L-1.9 35.4 -3.05 36.55 -3.05 37.7 -5.0 39.2 -4.6 39.2 -5.75 41.15 Q-5.35 46.5 -2.3 51.1 -1.9 51.5 -1.55 52.25 1.15 56.85 5.35 63.0 L7.25 65.3 7.65 68.35 7.25 73.35 9.55 77.6 8.05 83.7 8.05 84.5 5.35 98.3 30.25 97.9 31.8 98.3 38.3 98.3 41.35 88.7 43.65 98.3 76.2 98.3 74.3 77.6 74.7 75.65 75.45 73.0 75.05 70.65 74.7 68.35 74.7 67.2 83.9 51.5 86.55 46.1 88.1 41.5 Q88.45 40.35 86.95 38.85 L86.55 38.45 Q85.4 37.7 85.0 37.7 83.9 35.0 83.1 33.85 81.6 31.55 80.45 27.7 L78.9 23.85 Q78.15 22.35 77.35 20.05 75.85 13.5 74.3 -4.15 L57.05 -6.05 46.7 -6.45 Q31.4 -6.8 15.3 -4.9 13.4 -4.9 6.5 -3.35 Z" fill="none" stroke="#2c190b" stroke-linecap="round" stroke-linejoin="round" stroke-width="6.0"/>
    <path d="M5.7 -0.1 Q6.1 -2.0 6.1 -4.3 L14.9 -5.85 Q31.0 -7.75 46.3 -7.4 L56.65 -7.0 73.9 -5.1 Q74.3 -3.15 74.3 -1.65 70.45 0.3 60.5 3.35 L58.6 3.75 Q47.45 6.8 37.9 6.8 L23.35 5.25 19.9 4.5 Q12.25 2.6 5.7 -0.1" fill="#a2a2a2" fill-rule="evenodd" stroke="none"/>
    <path d="M80.05 26.75 Q81.2 30.6 82.7 32.9 L84.6 36.75 Q85.0 36.75 86.15 37.5 L86.55 37.9 Q88.05 39.4 87.7 40.55 L86.15 45.15 83.5 50.55 75.05 64.35 68.15 64.35 Q73.15 56.3 75.05 50.15 78.1 42.1 80.05 26.75 M6.85 64.35 L4.95 62.05 -2.3 51.3 -2.7 50.15 Q-5.75 45.55 -6.55 40.2 L-5.0 37.9 -3.45 36.75 -3.45 35.6 -2.3 34.45 -1.15 33.3 Q0.75 29.45 1.5 25.6 1.5 34.45 3.05 42.1 L1.5 42.85 Q0.0 43.65 -1.15 47.1 0.75 51.7 3.05 51.7 4.95 52.1 6.1 55.15 6.85 58.2 7.65 58.2 L9.15 57.85 12.6 64.35 6.85 64.35" fill="#41310d" fill-rule="evenodd" stroke="none"/>
    <path d="M75.05 4.5 L75.05 6.4 Q76.6 15.65 76.95 19.1 77.75 21.4 78.5 22.9 L80.05 26.75 Q78.1 42.1 75.05 50.15 73.15 56.3 68.15 64.35 L64.7 64.35 63.55 64.35 64.3 63.6 Q64.3 62.8 62.8 62.45 60.9 62.05 60.9 61.65 60.5 60.9 60.5 59.35 L60.5 57.05 Q59.35 56.7 58.6 58.2 57.05 60.15 56.3 60.5 55.9 60.15 54.75 57.45 54.0 54.75 53.2 54.4 52.85 54.75 52.85 56.7 52.85 59.0 52.45 60.15 L49.0 64.35 20.65 64.35 16.05 64.35 12.6 64.35 9.15 57.85 Q9.55 57.05 10.7 56.3 13.0 54.0 13.0 53.6 13.0 52.85 10.7 50.15 L7.65 47.85 Q6.5 45.95 6.85 44.0 6.85 42.1 6.5 41.7 L4.55 41.7 3.05 42.1 Q1.5 34.45 1.5 25.6 1.9 24.85 1.9 24.05 L2.65 22.15 Q2.65 24.85 4.2 29.05 4.55 29.05 5.35 28.3 L6.85 27.9 7.65 30.6 Q8.8 33.3 11.1 33.3 13.0 33.3 14.55 32.5 16.05 30.95 16.05 28.65 16.05 24.85 13.4 22.9 11.1 21.75 11.1 18.7 11.1 16.8 11.85 14.85 L12.25 13.7 12.6 12.95 Q10.7 10.65 10.3 7.95 L9.95 7.95 10.7 6.8 Q12.25 5.25 13.4 5.25 15.3 5.25 16.85 8.35 16.85 8.7 18.0 10.65 19.15 12.2 19.15 12.95 19.15 13.7 17.2 14.1 L16.05 14.85 Q18.0 15.25 19.9 16.0 L30.25 17.95 Q29.45 19.45 29.45 20.25 30.6 19.1 32.15 19.1 33.7 19.1 36.0 19.85 L36.0 21.4 Q36.0 21.75 36.35 21.75 37.5 21.75 37.9 21.0 L38.3 21.0 36.75 26.0 Q34.85 32.5 34.85 34.8 L39.8 41.35 Q44.4 47.45 45.15 49.4 44.8 47.85 47.1 43.65 49.0 39.8 50.55 39.05 49.0 37.5 44.8 35.2 42.85 34.45 42.85 31.75 42.85 27.5 45.95 26.35 51.7 23.7 54.75 21.0 L53.2 18.3 Q52.85 17.15 56.65 15.25 L68.9 14.5 Q70.85 14.5 72.35 12.55 73.15 11.8 73.15 10.65 73.15 9.85 70.05 5.25 L75.05 4.5 M66.25 97.35 L42.85 97.35 40.95 87.75 37.9 97.35 31.4 97.35 29.85 96.95 17.2 97.35 16.45 93.5 15.7 87.35 Q16.05 87.75 16.05 88.5 16.45 88.5 18.0 92.0 19.9 95.45 21.45 95.45 L28.3 93.9 34.05 89.65 Q34.05 90.05 34.45 90.05 34.45 91.2 35.2 91.2 35.6 91.6 36.0 91.6 L38.3 92.75 Q38.65 92.35 38.65 91.6 L37.9 90.05 37.9 88.15 37.9 85.85 38.65 83.9 Q36.35 82.75 33.3 80.85 L30.6 86.6 29.85 87.35 29.1 88.9 Q27.15 90.45 24.85 90.45 21.45 90.45 21.05 89.65 L20.3 88.9 Q19.15 86.6 19.15 81.6 19.15 79.3 19.5 77.4 L19.15 76.65 21.45 76.65 58.6 76.65 63.55 76.65 67.0 76.65 67.75 79.3 Q64.7 80.45 61.65 82.75 L58.95 85.05 Q58.6 85.05 57.8 84.3 L57.05 83.15 Q56.3 81.6 56.3 80.85 56.3 79.7 56.65 79.3 55.9 78.95 54.75 78.95 L52.85 78.95 51.3 79.3 Q52.05 80.45 52.85 84.3 53.2 87.0 54.0 88.15 L53.6 88.15 52.85 88.15 Q51.3 88.9 51.3 89.3 51.3 90.8 49.75 91.6 48.6 92.35 47.45 92.35 L46.3 91.6 Q45.95 91.2 45.15 91.2 48.25 95.45 50.15 95.45 51.7 95.45 54.35 93.5 L54.4 93.5 Q54.75 93.15 55.15 93.15 58.2 90.45 58.6 90.45 60.1 90.45 62.05 92.35 L64.7 95.45 Q64.7 95.05 66.25 91.6 66.6 89.3 67.4 88.5 L66.25 97.35 M4.55 8.7 L4.95 7.55 4.95 6.4 9.95 7.95 4.55 8.7 M23.35 5.25 L37.9 6.8 Q47.45 6.8 58.6 3.75 L60.5 3.35 Q60.1 7.55 52.85 9.5 45.15 11.8 45.15 13.35 45.15 14.5 47.1 16.0 49.0 17.15 49.0 19.45 49.0 21.0 47.45 23.3 45.55 25.6 43.65 25.6 41.75 25.6 39.8 24.85 38.3 23.3 38.3 21.75 38.3 21.0 39.45 19.85 L40.2 18.7 Q40.2 17.55 38.65 15.65 36.75 13.7 36.0 13.7 L29.45 14.1 Q27.55 14.1 26.4 13.35 24.85 12.55 24.5 10.65 L23.7 6.4 Q23.7 5.65 23.35 5.25 M65.45 37.9 Q68.9 35.2 71.6 31.35 73.9 27.15 73.9 23.3 73.9 22.9 73.5 22.9 L73.15 22.55 Q70.85 22.55 67.75 24.45 66.25 25.2 64.7 25.2 L64.3 28.65 Q63.95 31.75 63.15 33.3 L62.4 35.95 60.9 38.25 Q59.75 39.8 59.75 41.35 59.75 42.85 63.55 45.55 L67.4 49.0 67.75 53.6 67.4 58.2 67.4 62.45 Q68.15 60.15 70.05 55.55 71.6 52.1 71.6 50.55 71.6 49.75 69.3 44.4 66.6 39.05 65.45 37.9 M28.7 45.55 Q25.25 44.4 24.1 42.1 22.95 39.4 19.5 39.05 L19.15 39.05 Q18.0 39.4 17.2 39.8 16.45 41.35 16.45 43.65 16.45 46.3 20.3 47.1 24.5 47.85 24.5 50.15 24.5 53.25 21.05 55.15 17.2 56.7 17.2 59.0 17.2 61.3 20.3 62.45 22.55 63.6 25.65 63.6 32.55 63.6 34.85 60.15 35.6 59.35 36.0 58.2 36.75 55.15 37.15 55.15 37.9 53.6 40.2 53.6 L45.15 54.4 46.3 54.4 46.3 53.6 Q46.3 51.7 39.8 48.6 33.7 45.55 31.75 45.55 L28.7 45.55 M56.65 64.35 L52.45 64.35 Q53.6 63.6 54.35 63.6 55.5 63.6 56.65 64.35 M16.85 76.65 L18.0 76.65 Q17.2 78.95 16.45 79.3 L15.3 80.45 Q15.3 79.45 15.6 78.45 L15.7 78.15 15.7 77.8 15.7 76.65 16.85 76.65 M54.35 88.5 L54.0 88.5 54.0 88.15 54.35 88.5" fill="#503d13" fill-rule="evenodd" stroke="none"/>
    <path d="M62.4 35.95 L63.15 33.3 Q63.95 31.75 64.3 28.65 L64.7 25.2 Q66.25 25.2 67.75 24.45 70.85 22.55 73.15 22.55 L73.5 22.9 Q73.9 22.9 73.9 23.3 73.9 27.15 71.6 31.35 68.9 35.2 65.45 37.9 63.95 37.5 62.4 35.95" fill="#5d491c" fill-rule="evenodd" stroke="none"/>
    <path d="M74.3 -1.65 L75.05 4.5 70.05 5.25 Q62.8 6.4 56.65 15.25 52.85 17.15 53.2 18.3 L54.75 21.0 Q51.7 23.7 45.95 26.35 42.85 27.5 42.85 31.75 42.85 34.45 44.8 35.2 49.0 37.5 50.55 39.05 49.0 39.8 47.1 43.65 44.8 47.85 45.15 49.4 44.4 47.45 39.8 41.35 L34.85 34.8 Q34.85 32.5 36.75 26.0 L38.3 21.0 37.9 21.0 Q37.5 21.75 36.35 21.75 36.0 21.75 36.0 21.4 L36.0 19.85 Q33.7 19.1 32.15 19.1 30.6 19.1 29.45 20.25 29.45 19.45 30.25 17.95 L19.9 16.0 Q18.0 15.25 16.05 14.85 L17.2 14.1 Q19.15 13.7 19.15 12.95 19.15 12.2 18.0 10.65 16.85 8.7 16.85 8.35 15.3 5.25 13.4 5.25 12.25 5.25 10.7 6.8 L9.95 7.95 4.95 6.4 5.7 -0.1 Q12.25 2.6 19.9 4.5 L23.35 5.25 Q23.7 5.65 23.7 6.4 L24.5 10.65 Q24.85 12.55 26.4 13.35 27.55 14.1 29.45 14.1 L36.0 13.7 Q36.75 13.7 38.65 15.65 40.2 17.55 40.2 18.7 L39.45 19.85 Q38.3 21.0 38.3 21.75 38.3 23.3 39.8 24.85 41.75 25.6 43.65 25.6 45.55 25.6 47.45 23.3 49.0 21.0 49.0 19.45 49.0 17.15 47.1 16.0 45.15 14.5 45.15 13.35 45.15 11.8 52.85 9.5 60.1 7.55 60.5 3.35 70.45 0.3 74.3 -1.65 M52.85 9.85 L54.0 9.85 Q54.35 9.85 54.75 9.5 L52.85 9.85" fill="#66501d" fill-rule="evenodd" stroke="none"/>
    <path d="M70.05 5.25 Q73.15 9.85 73.15 10.65 73.15 11.8 72.35 12.55 70.85 14.5 68.9 14.5 L56.65 15.25 Q62.8 6.4 70.05 5.25 M52.85 9.85 L54.75 9.5 Q54.35 9.85 54.0 9.85 L52.85 9.85" fill="#624e22" fill-rule="evenodd" stroke="none"/>
    <path d="M62.4 35.95 Q63.95 37.5 65.45 37.9 66.6 39.05 69.3 44.4 71.6 49.75 71.6 50.55 71.6 52.1 70.05 55.55 68.15 60.15 67.4 62.45 L67.4 58.2 67.75 53.6 67.4 49.0 63.55 45.55 Q59.75 42.85 59.75 41.35 59.75 39.8 60.9 38.25 L62.4 35.95" fill="#7e652e" fill-rule="evenodd" stroke="none"/>
    <path d="M2.65 22.15 L2.65 20.6 Q2.65 18.7 3.4 16.4 3.8 12.95 4.55 8.7 L9.95 7.95 10.3 7.95 Q10.7 10.65 12.6 12.95 L12.25 13.7 11.85 14.85 Q11.1 16.8 11.1 18.7 11.1 21.75 13.4 22.9 16.05 24.85 16.05 28.65 16.05 30.95 14.55 32.5 13.0 33.3 11.1 33.3 8.8 33.3 7.65 30.6 L6.85 27.9 5.35 28.3 Q4.55 29.05 4.2 29.05 2.65 24.85 2.65 22.15" fill="#7b622c" fill-rule="evenodd" stroke="none"/>
    <path d="M3.05 42.1 Q3.8 45.15 4.95 47.85 6.1 52.1 9.15 57.85 L7.65 58.2 Q6.85 58.2 6.1 55.15 4.95 52.1 3.05 51.7 0.75 51.7 -1.15 47.1 0.0 43.65 1.5 42.85 L3.05 42.1" fill="#544015" fill-rule="evenodd" stroke="none"/>
    <path d="M3.05 42.1 L4.55 41.7 6.5 41.7 Q6.85 42.1 6.85 44.0 6.5 45.95 7.65 47.85 L10.7 50.15 Q13.0 52.85 13.0 53.6 13.0 54.0 10.7 56.3 9.55 57.05 9.15 57.85 6.1 52.1 4.95 47.85 3.8 45.15 3.05 42.1" fill="#624c1b" fill-rule="evenodd" stroke="none"/>
    <path d="M34.85 60.15 Q32.55 63.6 25.65 63.6 22.55 63.6 20.3 62.45 17.2 61.3 17.2 59.0 17.2 56.7 21.05 55.15 24.5 53.25 24.5 50.15 24.5 47.85 20.3 47.1 16.45 46.3 16.45 43.65 16.45 41.35 17.2 39.8 18.0 39.4 19.15 39.05 L19.5 39.05 Q22.95 39.4 24.1 42.1 25.25 44.4 28.7 45.55 28.7 51.7 30.6 54.75 32.15 57.05 34.85 60.15" fill="#856b2f" fill-rule="evenodd" stroke="none"/>
    <path d="M34.85 60.15 Q32.15 57.05 30.6 54.75 28.7 51.7 28.7 45.55 L31.75 45.55 Q33.7 45.55 39.8 48.6 46.3 51.7 46.3 53.6 L46.3 54.4 45.15 54.4 40.2 53.6 Q37.9 53.6 37.15 55.15 36.75 55.15 36.0 58.2 35.6 59.35 34.85 60.15" fill="#69521e" fill-rule="evenodd" stroke="none"/>
    <path d="M75.05 64.35 L73.9 66.25 74.3 67.4 64.7 67.4 64.7 64.35 68.15 64.35 75.05 64.35 M7.25 67.4 L6.85 64.35 12.6 64.35 16.05 64.35 16.05 67.4 7.25 67.4 M20.65 64.35 L49.0 64.35 52.45 64.35 56.65 64.35 60.1 64.35 59.75 67.4 21.05 67.4 20.65 64.35" fill="#686d4c" fill-rule="evenodd" stroke="none"/>
    <path d="M16.05 64.35 L20.65 64.35 21.05 67.4 16.05 67.4 16.05 64.35 M63.55 64.35 L64.7 64.35 64.7 67.4 59.75 67.4 60.1 64.35 63.55 64.35 M19.15 76.65 L18.0 76.65 16.85 76.65 16.85 74.7 21.45 74.7 21.45 76.65 19.15 76.65 M58.6 76.65 L58.95 74.7 63.95 74.7 63.55 76.65 58.6 76.65" fill="#bbb367" fill-rule="evenodd" stroke="none"/>
    <path d="M74.3 67.4 L74.65 69.7 74.65 72.05 74.3 74.7 63.95 74.7 64.7 67.4 74.3 67.4 M8.0 74.7 L6.85 72.4 7.25 67.4 16.05 67.4 16.85 74.7 8.0 74.7 M21.05 67.4 L59.75 67.4 58.95 74.7 21.45 74.7 21.05 67.4" fill="#242716" fill-rule="evenodd" stroke="none"/>
    <path d="M18.0 76.65 L19.15 76.65 19.5 77.4 Q19.15 79.3 19.15 81.6 19.15 86.6 20.3 88.9 L19.9 89.3 19.15 91.2 Q19.15 92.35 21.05 93.15 22.55 94.3 23.35 94.3 26.4 94.3 27.55 91.6 L29.1 88.9 29.85 87.35 30.6 86.6 33.3 80.85 33.3 82.0 Q32.55 82.75 32.55 83.15 32.55 85.05 34.05 86.2 36.0 87.0 36.0 87.75 36.0 89.3 35.6 91.2 L35.2 91.2 Q34.45 91.2 34.45 90.05 34.05 90.05 34.05 89.65 L28.3 93.9 21.45 95.45 Q19.9 95.45 18.0 92.0 16.45 88.5 16.05 88.5 16.05 87.75 15.7 87.35 15.3 87.0 13.75 87.0 L14.9 80.85 15.3 80.45 16.45 79.3 Q17.2 78.95 18.0 76.65" fill="#664f1d" fill-rule="evenodd" stroke="none"/>
    <path d="M74.3 74.7 L73.9 76.65 70.85 76.65 68.55 76.65 67.0 76.65 63.55 76.65 63.95 74.7 74.3 74.7 M9.15 76.65 L8.0 74.7 16.85 74.7 16.85 76.65 15.7 76.65 13.0 76.65 9.15 76.65 M21.45 74.7 L58.95 74.7 58.6 76.65 21.45 76.65 21.45 74.7" fill="#6f7748" fill-rule="evenodd" stroke="none"/>
    <path d="M73.15 97.35 L70.05 97.35 70.05 93.9 69.7 89.3 Q69.3 87.0 69.3 83.55 68.9 80.85 68.9 78.95 68.55 77.8 68.55 76.65 L70.85 76.65 Q71.2 79.7 72.35 84.3 L72.35 84.7 Q73.15 87.35 73.15 91.2 L73.15 97.35 M12.6 97.35 L8.8 97.35 Q9.15 93.9 9.95 89.3 11.1 83.15 13.0 76.65 L15.7 76.65 15.7 77.8 15.7 78.15 15.6 78.45 14.9 80.85 13.75 87.0 13.4 87.75 Q12.6 94.3 12.6 97.35" fill="#e2bc46" fill-rule="evenodd" stroke="none"/>
    <path d="M73.9 76.65 L75.8 97.35 73.15 97.35 73.15 91.2 Q73.9 87.75 73.9 85.85 73.9 85.45 72.35 84.3 71.2 79.7 70.85 76.65 L73.9 76.65 M70.05 97.35 L66.25 97.35 67.4 88.5 67.75 88.5 68.15 88.5 Q68.9 88.5 69.7 89.3 L70.05 93.9 70.05 97.35 M17.2 97.35 L12.6 97.35 Q12.6 94.3 13.4 87.75 L13.75 87.0 Q15.3 87.0 15.7 87.35 L16.45 93.5 17.2 97.35 M8.8 97.35 L4.95 97.35 7.65 83.55 7.65 82.75 9.15 76.65 13.0 76.65 Q11.1 83.15 9.95 89.3 9.15 93.9 8.8 97.35 M15.3 80.45 L14.9 80.85 15.6 78.45 Q15.3 79.45 15.3 80.45 M67.75 79.3 L67.0 76.65 68.55 76.65 Q68.55 77.8 68.9 78.95 L67.75 79.3" fill="#41310f" fill-rule="evenodd" stroke="none"/>
    <path d="M29.1 88.9 L27.55 91.6 Q26.4 94.3 23.35 94.3 22.55 94.3 21.05 93.15 19.15 92.35 19.15 91.2 L19.9 89.3 20.3 88.9 21.05 89.65 Q21.45 90.45 24.85 90.45 27.15 90.45 29.1 88.9" fill="#856b32" fill-rule="evenodd" stroke="none"/>
    <path d="M35.2 91.2 L35.6 91.2 Q36.0 89.3 36.0 87.75 36.0 87.0 34.05 86.2 32.55 85.05 32.55 83.15 32.55 82.75 33.3 82.0 L33.3 80.85 Q36.35 82.75 38.65 83.9 L37.9 85.85 37.9 88.15 37.9 90.05 38.65 91.6 Q38.65 92.35 38.3 92.75 L36.0 91.6 Q35.6 91.6 35.2 91.2" fill="#7e642c" fill-rule="evenodd" stroke="none"/>
    <path d="M16.05 67.4 L21.05 67.4 21.45 74.7 16.85 74.7 16.05 67.4 M58.95 74.7 L59.75 67.4 64.7 67.4 63.95 74.7 58.95 74.7" fill="#9a8735" fill-rule="evenodd" stroke="none"/>
    <path d="M49.0 64.35 L52.45 60.15 Q52.85 59.0 52.85 56.7 52.85 54.75 53.2 54.4 54.0 54.75 54.75 57.45 55.9 60.15 56.3 60.5 57.05 60.15 58.6 58.2 59.35 56.7 60.5 57.05 L60.5 59.35 Q60.5 60.9 60.9 61.65 60.9 62.05 62.8 62.45 64.3 62.8 64.3 63.6 L63.55 64.35 60.1 64.35 56.65 64.35 Q55.5 63.6 54.35 63.6 53.6 63.6 52.45 64.35 L49.0 64.35" fill="#624b18" fill-rule="evenodd" stroke="none"/>
    <path d="M54.0 88.15 Q53.2 87.0 52.85 84.3 52.05 80.45 51.3 79.3 L52.85 78.95 54.75 78.95 Q55.9 78.95 56.65 79.3 56.3 79.7 56.3 80.85 56.3 81.6 57.05 83.15 L57.8 84.3 Q58.6 85.05 58.95 85.05 59.35 85.05 60.1 85.85 61.65 87.0 63.15 87.0 64.7 86.2 65.85 86.2 66.6 86.2 67.0 87.0 67.75 87.35 67.75 88.15 L67.75 88.5 67.4 88.5 Q66.6 89.3 66.25 91.6 64.7 95.05 64.7 95.45 L62.05 92.35 Q60.1 90.45 58.6 90.45 58.2 90.45 55.15 93.15 54.75 93.15 54.4 93.5 L55.15 92.35 55.9 90.05 Q55.9 88.9 54.35 88.5 L54.0 88.15" fill="#796028" fill-rule="evenodd" stroke="none"/>
    <path d="M58.95 85.05 L61.65 82.75 Q64.7 80.45 67.75 79.3 L68.9 78.95 Q68.9 80.85 69.3 83.55 69.3 87.0 69.7 89.3 68.9 88.5 68.15 88.5 L67.75 88.5 67.75 88.15 Q67.75 87.35 67.0 87.0 66.6 86.2 65.85 86.2 64.7 86.2 63.15 87.0 61.65 87.0 60.1 85.85 59.35 85.05 58.95 85.05" fill="#69521f" fill-rule="evenodd" stroke="none"/>
    <path d="M54.4 93.5 L54.35 93.5 Q51.7 95.45 50.15 95.45 48.25 95.45 45.15 91.2 45.95 91.2 46.3 91.6 L47.45 92.35 Q48.6 92.35 49.75 91.6 51.3 90.8 51.3 89.3 51.3 88.9 52.85 88.15 L53.6 88.15 54.0 88.15 54.0 88.5 54.35 88.5 Q55.9 88.9 55.9 90.05 L55.15 92.35 54.4 93.5" fill="#9c7e39" fill-rule="evenodd" stroke="none"/>
    <path d="M73.15 91.2 Q73.15 87.35 72.35 84.7 L72.35 84.3 Q73.9 85.45 73.9 85.85 73.9 87.75 73.15 91.2" fill="#66501e" fill-rule="evenodd" stroke="none"/>
    <path d="M86.55 37.9 Q80.8 52.85 72.75 64.35 L70.45 64.35 Q79.25 51.7 84.6 36.75 85.0 36.75 86.15 37.5 L86.55 37.9 M10.7 64.35 Q2.65 55.15 -5.0 37.9 L-3.45 36.75 Q2.25 49.75 12.6 64.35 L10.7 64.35" fill="#e2bc46" fill-rule="evenodd" stroke="none"/>
  </g>
</svg>
