<?xml version="1.0" encoding="UTF-8" standalone="no"?>
<svg xmlns:xlink="http://www.w3.org/1999/xlink" height="97.8px" width="99.2px" xmlns="http://www.w3.org/2000/svg">
  <g transform="matrix(1.0, 0.0, 0.0, 1.0, 8.6, -2.85)">
    <path d="M87.1 49.35 Q85.55 53.15 83.25 57.25 L74.05 73.3 74.8 76.45 74.45 78.8 76.75 97.3 44.95 97.65 44.2 88.4 40.35 88.4 37.65 97.3 5.5 97.3 9.7 79.15 7.8 76.75 8.2 73.65 7.05 71.6 4.75 67.85 Q1.3 60.3 -1.4 56.2 -5.25 51.05 -5.6 49.35 L-2.15 44.2 Q-1.0 42.85 0.5 38.7 L1.3 36.35 Q3.2 30.2 3.95 25.35 4.35 25.05 4.35 24.35 4.75 19.55 5.9 8.6 5.9 7.9 6.25 7.25 L38.45 6.5 41.9 6.5 44.2 6.5 73.65 5.85 74.45 8.6 75.2 14.75 77.1 24.0 Q77.1 25.7 77.5 27.1 78.65 30.2 79.4 33.25 80.2 36.0 83.25 40.45 85.95 45.2 87.45 46.25 87.85 46.6 87.1 49.35" fill="#5d4c23" fill-rule="evenodd" stroke="none"/>
    <path d="M87.1 49.35 Q85.55 53.15 83.25 57.25 L74.05 73.3 74.8 76.45 74.45 78.8 76.75 97.3 44.95 97.65 44.2 88.4 40.35 88.4 37.65 97.3 5.5 97.3 9.7 79.15 7.8 76.75 8.2 73.65 7.05 71.6 4.75 67.85 Q1.3 60.3 -1.4 56.2 -5.25 51.05 -5.6 49.35 L-2.15 44.2 Q-1.0 42.85 0.5 38.7 L1.3 36.35 Q3.2 30.2 3.95 25.35 4.35 25.05 4.35 24.35 4.75 19.55 5.9 8.6 5.9 7.9 6.25 7.25 L38.45 6.5 41.9 6.5 44.2 6.5 73.65 5.85 74.45 8.6 75.2 14.75 77.1 24.0 Q77.1 25.7 77.5 27.1 78.65 30.2 79.4 33.25 80.2 36.0 83.25 40.45 85.95 45.2 87.45 46.25 87.85 46.6 87.1 49.35 Z" fill="none" stroke="#2a1b10" stroke-linecap="round" stroke-linejoin="round" stroke-width="6.0"/>
    <path d="M80.85 37.95 Q84.3 43.1 86.95 45.5 87.35 45.8 86.6 48.55 85.05 52.3 82.75 56.05 L77.0 68.1 70.5 66.4 Q70.5 62.6 69.75 59.85 75.1 59.5 76.6 57.1 L78.55 53.7 Q79.3 52.3 80.05 48.9 80.85 45.15 80.85 37.95 M4.25 67.4 Q0.8 59.5 -1.9 55.4 -5.75 50.25 -6.1 48.9 L-2.65 43.45 Q-1.5 42.05 0.0 37.95 0.0 40.35 0.4 43.75 0.8 47.2 2.3 51.65 3.45 56.05 6.9 57.8 L10.35 59.5 10.35 60.2 Q9.6 61.55 9.6 63.6 9.6 64.35 10.0 65.35 L4.25 67.4" fill="#332910" fill-rule="evenodd" stroke="none"/>
    <path d="M0.0 37.95 L0.4 35.9 Q2.7 29.35 3.45 24.6 L3.85 23.55 5.4 6.45 37.95 5.75 41.0 5.75 43.7 5.75 73.15 4.75 74.7 13.95 76.6 23.2 Q76.6 24.9 77.0 26.65 L78.9 32.45 80.85 37.95 Q80.85 45.15 80.05 48.9 79.3 52.3 78.55 53.7 L76.6 57.1 Q75.1 59.5 69.75 59.85 70.5 62.6 70.5 66.4 40.6 72.85 10.0 65.35 9.6 64.35 9.6 63.6 9.6 61.55 10.35 60.2 L10.35 59.5 6.9 57.8 Q3.45 56.05 2.3 51.65 0.8 47.2 0.4 43.75 0.0 40.35 0.0 37.95" fill="#463a1d" fill-rule="evenodd" stroke="none"/>
    <path d="M77.0 68.1 L75.1 69.75 70.9 69.75 70.1 69.75 70.5 66.4 77.0 68.1 M6.55 70.8 L4.25 67.4 10.0 65.35 10.75 69.1 11.5 70.5 6.55 70.8" fill="#72591c" fill-rule="evenodd" stroke="none"/>
    <path d="M75.1 69.75 L73.15 72.85 71.65 72.85 57.45 75.6 Q57.1 75.6 57.1 76.0 L51.35 76.3 Q40.6 77.65 28.75 76.65 L23.0 76.0 20.3 75.25 14.55 74.25 7.7 72.85 6.55 70.8 11.5 70.5 Q39.1 75.6 62.05 71.5 62.85 71.15 63.2 71.15 L70.1 69.75 70.9 69.75 75.1 69.75" fill="#f99706" fill-rule="evenodd" stroke="none"/>
    <path d="M10.0 65.35 Q40.6 72.85 70.5 66.4 L70.1 69.75 63.2 71.15 Q62.85 71.15 62.05 71.5 39.1 75.6 11.5 70.5 L10.75 69.1 10.0 65.35" fill="#7e6322" fill-rule="evenodd" stroke="none"/>
    <path d="M73.15 72.85 L74.3 75.25 73.95 78.35 70.1 79.35 Q63.6 81.8 57.45 82.8 57.85 79.35 57.1 76.0 57.1 75.6 57.45 75.6 L71.65 72.85 73.15 72.85 M8.85 78.7 L9.2 78.35 7.3 76.0 7.7 72.85 14.55 74.25 20.3 75.25 23.0 76.0 23.0 77.3 Q22.25 80.1 23.0 82.45 17.25 81.8 11.9 80.1 L8.85 78.7 M28.75 76.65 Q40.6 77.65 51.35 76.3 52.5 80.4 51.75 83.85 40.25 85.2 28.75 83.5 28.0 81.8 28.75 76.65" fill="#060702" fill-rule="evenodd" stroke="none"/>
    <path d="M73.95 78.35 L76.25 96.85 62.05 96.85 Q71.65 96.5 70.1 79.35 L73.95 78.35 M18.0 96.5 L5.0 96.85 8.85 78.7 11.9 80.1 Q10.0 94.45 18.0 96.5" fill="#48230f" fill-rule="evenodd" stroke="none"/>
    <path d="M62.05 96.85 L61.7 96.85 44.45 96.85 43.7 87.6 39.85 87.6 37.15 96.5 18.0 96.5 Q10.0 94.45 11.9 80.1 17.25 81.8 23.0 82.45 L28.75 83.5 Q40.25 85.2 51.75 83.85 54.0 83.15 57.45 82.8 63.6 81.8 70.1 79.35 71.65 96.5 62.05 96.85" fill="#853a0f" fill-rule="evenodd" stroke="none"/>
    <path d="M23.0 82.45 Q22.25 80.1 23.0 77.3 L23.0 76.0 28.75 76.65 Q28.0 81.8 28.75 83.5 L23.0 82.45 M51.35 76.3 L57.1 76.0 Q57.85 79.35 57.45 82.8 54.0 83.15 51.75 83.85 52.5 80.4 51.35 76.3" fill="#46483c" fill-rule="evenodd" stroke="none"/>
    <path d="M62.05 96.85 L61.7 96.85" fill="none" stroke="#2c190b" stroke-linecap="round" stroke-linejoin="round" stroke-width="0.5"/>
    <path d="M72.9 5.2 L74.45 11.0 Q62.2 18.55 49.15 21.25 L33.85 21.25 Q19.3 19.85 5.5 12.7 L5.5 6.9 72.9 5.2 M58.75 13.4 L51.85 15.75 Q44.2 17.8 41.1 17.8 30.8 17.8 30.0 16.1 48.0 15.75 53.0 10.65 52.6 10.3 50.7 10.3 49.55 10.3 43.8 11.65 L32.3 12.7 22.75 12.35 15.05 11.65 13.9 11.65 Q13.15 11.65 12.75 12.0 12.0 12.0 11.6 12.7 13.55 13.7 17.75 14.05 L24.65 15.45 21.2 15.45 17.75 16.1 30.0 19.2 44.2 20.25 Q46.85 20.25 53.35 18.55 60.65 16.1 60.65 14.4 60.65 13.4 58.75 13.4" fill="#850101" fill-rule="evenodd" stroke="none"/>
    <path d="M58.75 13.4 Q60.65 13.4 60.65 14.4 60.65 16.1 53.35 18.55 46.85 20.25 44.2 20.25 L30.0 19.2 17.75 16.1 21.2 15.45 24.65 15.45 17.75 14.05 Q13.55 13.7 11.6 12.7 12.0 12.0 12.75 12.0 13.15 11.65 13.9 11.65 L15.05 11.65 22.75 12.35 32.3 12.7 43.8 11.65 Q49.55 10.3 50.7 10.3 52.6 10.3 53.0 10.65 48.0 15.75 30.0 16.1 30.8 17.8 41.1 17.8 44.2 17.8 51.85 15.75 L58.75 13.4" fill="#a61010" fill-rule="evenodd" stroke="none"/>
    <path d="M51.1 22.3 Q46.5 21.25 41.9 21.25 35.75 21.25 31.55 22.65 31.55 20.25 33.85 17.5 L49.15 17.5 Q51.1 19.55 51.1 22.3 M31.9 24.7 L33.85 27.1 49.15 27.1 Q50.3 25.7 50.3 24.35 56.45 25.05 58.75 29.15 59.1 30.2 59.9 31.2 60.65 33.25 59.9 35.65 L58.35 32.55 Q57.2 31.5 56.05 31.2 L53.0 30.85 51.1 30.85 Q50.3 30.85 49.95 31.2 L49.55 31.2 48.0 32.25 47.65 33.95 Q47.65 36.35 48.4 38.05 L51.1 43.15 Q48.8 41.1 46.85 38.05 L44.2 32.25 42.25 33.55 41.5 34.3 40.75 31.9 40.75 31.5 Q40.75 31.2 41.1 31.2 L41.1 30.5 39.95 30.5 37.65 30.5 35.75 30.2 Q35.0 30.2 33.85 31.2 L31.9 33.95 Q30.0 36.65 29.65 39.4 L29.65 38.7 Q29.65 37.0 31.15 31.9 L32.7 27.1 31.9 26.4 Q31.15 25.7 31.15 25.35 L30.0 25.05 31.9 24.7" fill="#6b0000" fill-rule="evenodd" stroke="none"/>
    <path d="M31.55 22.65 Q35.75 21.25 41.9 21.25 46.5 21.25 51.1 22.3 51.1 23.3 50.3 24.35 50.3 25.7 49.15 27.1 L33.85 27.1 31.9 24.7 Q31.55 23.65 31.55 22.65 M41.9 21.9 L38.45 22.3 36.5 22.3 33.85 23.3 33.85 24.7 46.85 25.35 Q47.65 25.35 48.0 24.7 48.0 23.3 44.2 22.3 L41.9 21.9 M41.5 34.3 L42.25 33.55 44.2 32.25 46.85 38.05 Q48.8 41.1 51.1 43.15 L48.4 38.05 Q47.65 36.35 47.65 33.95 L48.0 32.25 49.55 31.2 49.95 31.2 Q50.3 30.85 51.1 30.85 L53.0 30.85 56.05 31.2 Q57.2 31.5 58.35 32.55 L59.9 35.65 59.9 36.35 Q58.75 39.05 56.05 42.85 54.5 44.55 55.3 47.3 L56.45 51.05 51.85 46.6 Q44.55 41.45 42.25 37.7 L41.5 34.3 M51.1 32.55 Q50.3 32.55 50.3 32.9 49.15 33.55 49.15 33.95 49.15 35.3 51.45 38.05 L54.15 41.45 54.9 41.45 54.5 38.7 Q54.5 38.05 55.3 36.65 56.45 35.65 56.45 34.95 56.45 33.95 54.5 33.25 52.6 32.55 51.1 32.55 M40.75 31.9 Q38.8 38.05 38.45 38.05 36.5 41.85 29.65 47.3 26.55 49.35 24.65 51.05 25.4 49.7 25.4 48.0 26.55 44.9 25.4 43.15 21.95 39.4 21.2 36.65 20.45 34.3 21.2 31.2 L22.35 29.45 Q24.65 25.7 30.0 25.05 L31.15 25.35 Q31.15 25.7 31.9 26.4 L32.7 27.1 31.15 31.9 Q29.65 37.0 29.65 38.7 L29.65 39.4 Q30.0 36.65 31.9 33.95 L33.85 31.2 Q35.0 30.2 35.75 30.2 L37.65 30.5 39.95 30.5 41.1 30.5 41.1 31.2 Q40.75 31.2 40.75 31.5 L40.75 31.9 M28.5 27.1 Q26.95 27.1 25.8 28.8 25.4 29.15 25.4 29.45 L24.65 31.2 23.9 32.25 Q23.5 33.55 23.5 34.95 23.5 36.35 24.25 38.05 L25.4 40.8 Q24.25 37.35 25.8 34.3 L29.65 28.8 29.65 27.1 28.5 27.1" fill="#850101" fill-rule="evenodd" stroke="none"/>
    <path d="M41.9 21.9 L44.2 22.3 Q48.0 23.3 48.0 24.7 47.65 25.35 46.85 25.35 L33.85 24.7 33.85 23.3 36.5 22.3 38.45 22.3 41.9 21.9 M51.1 32.55 Q52.6 32.55 54.5 33.25 56.45 33.95 56.45 34.95 56.45 35.65 55.3 36.65 54.5 38.05 54.5 38.7 L54.9 41.45 54.15 41.45 51.45 38.05 Q49.15 35.3 49.15 33.95 49.15 33.55 50.3 32.9 50.3 32.55 51.1 32.55 M28.5 27.1 L29.65 27.1 29.65 28.8 25.8 34.3 Q24.25 37.35 25.4 40.8 L24.25 38.05 Q23.5 36.35 23.5 34.95 23.5 33.55 23.9 32.25 L24.65 31.2 25.4 29.45 Q25.4 29.15 25.8 28.8 26.95 27.1 28.5 27.1" fill="#a61010" fill-rule="evenodd" stroke="none"/>
  </g>
</svg>
