<?xml version="1.0" encoding="UTF-8" standalone="no"?>
<svg xmlns:xlink="http://www.w3.org/1999/xlink" height="87.2px" width="73.2px" xmlns="http://www.w3.org/2000/svg">
  <g transform="matrix(1.0, 0.0, 0.0, 1.0, -3.6, 6.35)">
    <path d="M23.9 -3.35 L23.9 -1.15 57.5 -0.45 57.5 -2.5 65.85 -2.5 65.85 -0.3 68.25 -0.2 69.75 12.75 Q70.85 25.75 71.15 38.45 L71.8 38.9 73.0 53.55 73.55 69.35 73.8 74.25 68.85 75.9 68.85 75.95 68.1 76.15 66.35 76.55 62.45 77.05 58.85 77.4 58.75 77.4 56.75 77.6 53.9 77.6 47.65 77.15 45.55 76.8 43.85 76.15 44.2 68.15 44.3 68.0 40.6 67.4 36.8 67.9 36.9 75.95 36.0 76.3 35.9 76.3 33.9 76.8 32.5 77.05 26.3 77.75 26.25 77.75 24.15 77.85 22.35 77.85 16.25 77.0 13.35 76.2 6.6 73.15 7.2 68.65 Q8.35 59.35 9.15 48.8 L9.5 43.75 Q9.55 41.35 9.75 39.0 L10.0 38.9 Q10.2 25.3 11.85 12.0 12.75 5.3 13.8 -1.4 L15.55 -1.3 15.55 -3.35 23.9 -3.35" fill="#f7ffb1" fill-rule="evenodd" stroke="none"/>
    <path d="M23.9 -3.35 L15.55 -3.35 15.55 -1.3 13.8 -1.4 Q12.75 5.3 11.85 12.0 10.2 25.3 10.0 38.9 L9.75 39.0 Q9.55 41.35 9.5 43.75 L9.15 48.8 Q8.35 59.35 7.2 68.65 L6.6 73.15 13.35 76.2 16.25 77.0 22.35 77.85 24.15 77.85 26.25 77.75 26.3 77.75 32.5 77.05 33.9 76.8 35.9 76.3 36.0 76.3 36.9 75.95 36.8 67.9 40.6 67.4 44.3 68.0 44.2 68.15 43.85 76.15 45.55 76.8 47.65 77.15 53.9 77.6 56.75 77.6 58.75 77.4 58.85 77.4 62.45 77.05 66.35 76.55 68.1 76.15 68.85 75.95 68.85 75.9 73.8 74.25 73.55 69.35 73.0 53.55 71.8 38.9 71.15 38.45 Q70.85 25.75 69.75 12.75 L68.25 -0.2 65.85 -0.3 65.85 -2.5 57.5 -2.5 57.5 -0.45 23.9 -1.15 23.9 -3.35 Z" fill="none" stroke="#283757" stroke-linecap="round" stroke-linejoin="round" stroke-width="6.0"/>
    <path d="M12.05 11.9 L14.1 -1.5 68.5 -0.3 69.95 12.65 58.05 15.9 Q42.35 19.55 32.7 19.55 25.7 19.55 18.35 15.7 15.15 14.1 12.05 11.9" fill="#dece84" fill-rule="evenodd" stroke="none"/>
    <path d="M12.05 11.9 Q15.15 14.1 18.35 15.7 25.7 19.55 32.7 19.55 42.35 19.55 58.05 15.9 L69.95 12.65 Q71.85 33.6 71.35 53.7 L10.45 54.25 Q9.5 32.75 12.05 11.9" fill="#fbffd5" fill-rule="evenodd" stroke="none"/>
    <path d="M9.4 43.4 L17.0 40.1 Q40.25 57.85 64.6 40.6 L72.25 44.35 73.0 53.25 73.6 69.1 Q62.15 75.4 48.0 73.15 L46.65 72.95 46.55 72.05 46.35 68.4 Q46.35 67.75 47.4 66.55 48.45 65.35 48.45 64.8 L48.45 64.5 Q44.55 65.45 40.4 65.45 L33.1 64.25 32.5 64.25 Q34.1 66.15 34.75 67.9 35.3 69.6 35.3 71.85 L32.25 72.7 Q18.55 75.9 7.15 68.35 8.3 59.1 9.1 48.55 L9.4 43.4" fill="#1d5b85" fill-rule="evenodd" stroke="none"/>
    <path d="M72.25 44.35 L64.6 40.6 Q40.25 57.85 17.0 40.1 L9.4 43.4 9.7 38.7 18.35 34.9 Q39.45 52.55 64.9 35.1 L71.8 38.55 72.25 44.35 M7.15 68.35 Q18.55 75.9 32.25 72.7 L35.3 71.85 36.8 71.35 36.85 75.65 35.95 76.05 35.85 76.05 33.85 76.55 32.5 76.75 26.25 77.4 26.2 77.4 24.1 77.5 22.35 77.5 16.15 76.7 13.35 75.95 6.55 72.85 7.15 68.35 M46.65 72.95 L48.0 73.15 Q62.15 75.4 73.6 69.1 L73.8 74.0 68.75 75.6 68.75 75.7 68.1 75.85 66.25 76.3 62.45 76.8 58.85 77.15 58.75 77.15 56.7 77.3 53.9 77.3 47.65 76.9 45.5 76.55 43.85 75.85 43.95 72.35 46.65 72.95" fill="#88cae6" fill-rule="evenodd" stroke="none"/>
    <path d="M35.3 71.85 Q35.3 69.6 34.75 67.9 34.1 66.15 32.5 64.25 L33.1 64.25 40.4 65.45 Q44.55 65.45 48.45 64.5 L48.45 64.8 Q48.45 65.35 47.4 66.55 46.35 67.75 46.35 68.4 L46.55 72.05 46.65 72.95 43.95 72.35 44.15 67.85 44.25 67.7 40.5 67.15 36.7 67.6 36.65 67.6 36.7 67.7 36.8 71.35 35.3 71.85" fill="#124364" fill-rule="evenodd" stroke="none"/>
    <path d="M24.1 -3.45 L24.1 47.2 15.75 47.2 15.75 -3.45 24.1 -3.45" fill="#298ccd" fill-rule="evenodd" stroke="none"/>
    <path d="M14.85 43.2 Q16.8 41.25 19.45 41.25 22.15 41.25 24.0 43.2 25.95 45.25 25.95 48.05 25.95 50.85 24.0 52.8 22.15 54.9 19.45 54.9 16.8 54.9 14.85 52.8 13.0 50.85 13.0 48.05 13.0 45.25 14.85 43.2" fill="#88cae6" fill-rule="evenodd" stroke="none"/>
    <path d="M23.65 48.05 Q23.65 49.9 22.45 51.1 21.15 52.45 19.5 52.45 17.85 52.45 16.6 51.1 15.3 49.9 15.3 48.05 15.3 46.25 16.6 45.0 17.85 43.7 19.5 43.7 21.15 43.7 22.45 45.0 23.65 46.25 23.65 48.05" fill="#ade6ff" fill-rule="evenodd" stroke="none"/>
    <path d="M66.05 -2.6 L66.05 48.05 57.7 48.05 57.7 -2.6 66.05 -2.6" fill="#298ccd" fill-rule="evenodd" stroke="none"/>
    <path d="M66.5 44.9 Q68.4 46.95 68.4 49.75 68.4 52.55 66.5 54.5 64.65 56.5 62.0 56.5 59.35 56.5 57.4 54.5 55.45 52.55 55.45 49.75 55.45 46.95 57.4 44.9 59.35 42.85 62.0 42.85 64.65 42.85 66.5 44.9" fill="#88cae6" fill-rule="evenodd" stroke="none"/>
    <path d="M65.0 46.5 Q66.2 47.85 66.2 49.75 66.2 51.5 65.0 52.7 63.75 54.05 62.0 54.05 60.4 54.05 59.1 52.7 57.9 51.5 57.9 49.75 57.9 47.85 59.1 46.5 60.4 45.3 62.0 45.3 63.75 45.3 65.0 46.5" fill="#ade6ff" fill-rule="evenodd" stroke="none"/>
  </g>
</svg>
