<?xml version="1.0" encoding="UTF-8" standalone="no"?>
<svg xmlns:xlink="http://www.w3.org/1999/xlink" height="86.6px" width="82.75px" xmlns="http://www.w3.org/2000/svg">
  <g transform="matrix(1.0, 0.0, 0.0, 1.0, 1.35, -4.4)">
    <path d="M72.95 7.4 L76.45 10.5 Q74.9 12.45 73.7 14.8 L78.4 82.9 Q75.65 84.45 72.55 85.25 60.85 89.1 45.65 86.0 L42.95 85.25 42.95 77.05 Q40.6 78.25 38.25 77.05 L38.25 85.25 35.15 86.0 Q21.1 90.3 8.25 85.25 4.75 83.7 1.65 81.75 L2.4 76.3 2.4 73.55 7.85 18.3 Q5.15 14.4 3.2 10.5 L7.5 7.4 72.95 7.4" fill="#b4b4c4" fill-rule="evenodd" stroke="none"/>
    <path d="M72.95 7.4 L7.5 7.4 3.2 10.5 Q5.15 14.4 7.85 18.3 L2.4 73.55 2.4 76.3 1.65 81.75 Q4.75 83.7 8.25 85.25 21.1 90.3 35.15 86.0 L38.25 85.25 38.25 77.05 Q40.6 78.25 42.95 77.05 L42.95 85.25 45.65 86.0 Q60.85 89.1 72.55 85.25 75.65 84.45 78.4 82.9 L73.7 14.8 Q74.9 12.45 76.45 10.5 L72.95 7.4 Z" fill="none" stroke="#202235" stroke-linecap="round" stroke-linejoin="round" stroke-width="6.0"/>
    <path d="M9.8 42.25 L9.8 33.3 Q9.4 29.05 10.2 24.35 10.6 21.65 12.95 20.85 15.25 20.1 19.15 22.05 23.45 24.0 26.2 24.75 30.05 26.3 34.35 27.5 L34.75 27.5 Q35.15 27.5 35.55 27.85 L35.55 27.5 46.05 27.85 45.65 28.25 Q46.05 28.25 46.45 27.85 55.8 25.55 62.8 21.25 70.2 19.7 71.0 29.05 L71.0 42.65 Q63.6 45.4 59.3 46.55 L47.2 48.5 Q41.0 49.3 32.8 48.5 18.75 46.95 9.8 42.25" fill="#fffeff" fill-rule="evenodd" stroke="none"/>
    <path d="M71.0 42.65 L71.0 29.05 Q70.2 19.7 62.8 21.25 55.8 25.55 46.45 27.85 46.05 28.25 45.65 28.25 L46.05 27.85 35.55 27.5 35.55 27.85 Q35.15 27.5 34.75 27.5 L34.35 27.5 Q30.05 26.3 26.2 24.75 23.45 24.0 19.15 22.05 15.25 20.1 12.95 20.85 10.6 21.65 10.2 24.35 9.4 29.05 9.8 33.3 L9.8 42.25 5.9 39.95 8.65 7.65 72.95 7.65 75.25 41.1 72.15 42.25 Q71.75 42.25 71.0 42.65" fill="#e5e5e7" fill-rule="evenodd" stroke="none"/>
    <path d="M9.8 42.25 Q18.75 46.95 32.8 48.5 41.0 49.3 47.2 48.5 L59.3 46.55 Q63.6 45.4 71.0 42.65 L71.35 45.4 Q40.2 58.6 9.05 45.8 L9.8 42.25" fill="#585f8c" fill-rule="evenodd" stroke="none"/>
    <path d="M71.0 42.65 Q71.75 42.25 72.15 42.25 L75.25 41.1 75.65 43.85 71.35 45.4 71.0 42.65 M5.9 39.95 L9.8 42.25 9.05 45.8 Q7.1 45.0 5.15 43.85 L5.9 39.95" fill="#252f69" fill-rule="evenodd" stroke="none"/>
    <path d="M71.35 45.4 L75.65 43.85 76.05 50.05 71.35 52.4 Q71.75 48.9 71.35 45.4 M4.75 49.65 L5.15 43.85 Q7.1 45.0 9.05 45.8 8.65 48.5 8.65 51.2 L4.75 49.65" fill="#1c234d" fill-rule="evenodd" stroke="none"/>
    <path d="M76.05 50.05 L76.05 53.15 70.6 55.5 71.35 52.4 76.05 50.05 M8.65 53.95 L4.35 51.6 4.75 49.65 8.65 51.2 8.65 53.95" fill="#151b3c" fill-rule="evenodd" stroke="none"/>
    <path d="M70.6 55.5 Q59.7 59.8 45.65 60.2 22.65 60.95 8.65 53.95 L8.65 51.2 Q40.2 64.85 71.35 52.4 L70.6 55.5" fill="#21284d" fill-rule="evenodd" stroke="none"/>
    <path d="M9.05 45.8 Q40.2 58.6 71.35 45.4 71.75 48.9 71.35 52.4 40.2 64.85 8.65 51.2 8.65 48.5 9.05 45.8" fill="#2a3260" fill-rule="evenodd" stroke="none"/>
    <path d="M70.2 7.25 L71.75 7.25 Q59.3 23.6 43.7 31.75 L43.3 31.75 Q58.1 22.8 70.2 7.25 M72.95 7.25 L76.45 10.75 Q74.5 13.85 72.15 16.6 60.45 32.15 46.05 36.85 L46.05 35.25 Q46.45 33.3 45.65 32.55 L44.5 31.75 Q60.05 25.15 72.95 7.25 M33.95 36.85 Q16.8 30.6 7.85 18.55 5.15 14.65 3.2 10.75 L7.45 7.65 Q15.25 24.75 35.55 31.75 33.95 32.55 33.95 34.5 L33.95 36.85 M9.05 7.65 L10.2 7.65 Q20.35 24.35 37.1 31.75 L36.7 31.75 Q18.4 24.35 9.05 7.65 M30.45 7.25 L48.0 7.25 Q48.0 9.95 47.6 12.3 L31.25 12.3 Q30.45 9.95 30.45 7.25 M47.2 16.6 L45.65 22.8 33.95 22.8 Q32.8 19.7 32.0 16.6 L47.2 16.6 M42.55 32.15 L41.75 32.15 37.85 32.15 37.1 31.0 35.9 27.5 43.7 27.5 42.55 31.75 42.55 32.15" fill="#2a3260" fill-rule="evenodd" stroke="none"/>
    <path d="M71.75 7.25 L72.95 7.25 Q60.05 25.15 44.5 31.75 L43.7 31.75 Q59.3 23.6 71.75 7.25 M7.45 7.65 L9.05 7.65 Q18.4 24.35 36.7 31.75 L35.9 31.75 35.55 31.75 Q15.25 24.75 7.45 7.65 M10.2 7.65 L25.8 7.25 Q26.2 9.95 26.95 12.3 L28.5 16.6 Q29.7 19.7 31.25 22.8 L34.35 27.5 37.85 32.15 37.45 32.15 37.1 31.75 Q20.35 24.35 10.2 7.65 M53.45 7.25 L70.2 7.25 Q58.1 22.8 43.3 31.75 L42.95 31.75 42.55 32.15 Q42.95 31.4 43.3 31.0 L45.65 27.5 Q47.2 25.55 48.4 22.8 L50.7 16.6 Q51.5 15.05 51.9 12.3 L53.45 7.25 M47.6 12.3 Q47.6 14.65 47.2 16.6 L32.0 16.6 Q31.25 14.65 31.25 12.3 L47.6 12.3 M45.65 22.8 L43.7 27.5 35.9 27.5 Q34.75 25.15 33.95 22.8 L45.65 22.8" fill="#fffeff" fill-rule="evenodd" stroke="none"/>
    <path d="M25.8 7.25 L30.45 7.25 Q30.45 9.95 31.25 12.3 L26.95 12.3 Q26.2 9.95 25.8 7.25 M48.0 7.25 L53.45 7.25 51.9 12.3 47.6 12.3 Q48.0 9.95 48.0 7.25 M50.7 16.6 L48.4 22.8 45.65 22.8 47.2 16.6 50.7 16.6 M45.65 27.5 L43.3 31.0 Q42.95 31.4 42.55 32.15 L42.55 31.75 43.7 27.5 45.65 27.5 M32.0 16.6 Q32.8 19.7 33.95 22.8 L31.25 22.8 Q29.7 19.7 28.5 16.6 L32.0 16.6 M35.9 27.5 L37.1 31.0 37.85 32.15 34.35 27.5 35.9 27.5" fill="#151d4a" fill-rule="evenodd" stroke="none"/>
    <path d="M47.6 12.3 L51.9 12.3 Q51.5 15.05 50.7 16.6 L47.2 16.6 Q47.6 14.65 47.6 12.3 M48.4 22.8 Q47.2 25.55 45.65 27.5 L43.7 27.5 45.65 22.8 48.4 22.8 M31.25 12.3 Q31.25 14.65 32.0 16.6 L28.5 16.6 26.95 12.3 31.25 12.3 M33.95 22.8 Q34.75 25.15 35.9 27.5 L34.35 27.5 31.25 22.8 33.95 22.8" fill="#c7c6ce" fill-rule="evenodd" stroke="none"/>
    <path d="M46.05 36.85 L45.65 37.6 Q45.65 38.0 44.9 38.4 L43.7 39.15 39.05 39.55 35.15 38.75 34.75 38.0 33.95 36.85 33.95 34.5 Q33.95 32.55 35.55 31.75 L35.9 31.75 36.7 31.75 37.1 31.75 37.45 32.15 37.85 32.15 41.75 32.15 42.55 32.15 42.95 31.75 43.3 31.75 43.7 31.75 44.5 31.75 45.65 32.55 Q46.45 33.3 46.05 35.25 L46.05 36.85" fill="#232a54" fill-rule="evenodd" stroke="none"/>
    <path d="M33.95 36.05 Q33.95 34.1 35.55 31.75 L44.9 31.75 Q46.05 33.7 46.05 35.65 43.3 34.9 40.6 34.9 36.7 34.9 33.95 36.05 M45.65 37.6 Q48.0 38.4 49.55 41.5 50.7 44.2 49.55 50.45 L49.55 52.0 Q48.75 46.15 48.0 45.4 47.6 44.6 46.8 43.85 L45.65 43.05 Q45.25 43.05 45.25 43.45 L44.1 43.85 44.1 45.4 Q44.1 47.35 44.5 48.9 L46.05 53.15 Q44.5 51.2 43.3 48.9 L41.75 44.2 40.6 45.0 Q40.2 45.4 40.2 45.8 39.8 45.0 39.8 43.85 L39.8 43.45 39.8 42.3 Q39.8 42.65 39.4 42.65 L37.85 42.25 36.7 42.25 Q35.55 42.25 34.35 45.4 33.2 47.7 32.8 49.65 L32.8 49.3 Q32.8 47.7 33.95 43.85 L34.75 39.95 34.35 39.15 33.95 38.4 Q33.6 38.4 33.2 38.0 L34.35 38.0 35.55 39.55 44.9 39.55 Q45.65 38.75 45.65 37.6" fill="#c8c8c8" fill-rule="evenodd" stroke="none"/>
    <path d="M33.95 36.05 Q36.7 34.9 40.6 34.9 43.3 34.9 46.05 35.65 L45.65 37.6 Q45.65 38.75 44.9 39.55 L35.55 39.55 34.35 38.0 33.95 36.05 M49.55 52.0 L48.75 53.95 48.75 56.3 49.15 59.4 Q48.0 57.45 46.45 55.9 42.15 51.6 40.6 48.5 L40.2 45.8 Q40.2 45.4 40.6 45.0 L41.75 44.2 43.3 48.9 Q44.5 51.2 46.05 53.15 L44.5 48.9 Q44.1 47.35 44.1 45.4 L44.1 43.85 45.25 43.45 Q45.25 43.05 45.65 43.05 L46.8 43.85 Q47.6 44.6 48.0 45.4 48.75 46.15 49.55 52.0 M39.8 43.85 L38.65 48.9 Q37.1 52.0 32.8 56.3 L30.05 59.8 Q30.05 58.6 30.45 57.05 31.25 54.35 30.05 52.4 28.9 50.05 28.9 47.7 28.9 45.4 30.05 42.25 31.65 38.75 33.2 38.0 33.6 38.4 33.95 38.4 L34.35 39.15 34.75 39.95 33.95 43.85 Q32.8 47.7 32.8 49.3 L32.8 49.65 Q33.2 47.7 34.35 45.4 35.55 42.25 36.7 42.25 L37.85 42.25 39.4 42.65 Q39.8 42.65 39.8 42.3 L39.8 43.45 39.8 43.85" fill="#e5e5e7" fill-rule="evenodd" stroke="none"/>
    <path d="M2.4 74.2 L4.35 51.6 8.65 53.95 Q7.45 65.6 7.85 76.15 L2.4 74.2 M70.6 55.5 L76.05 53.15 78.0 74.95 72.95 76.9 Q73.7 67.95 70.6 55.5 M78.0 77.7 L78.0 80.4 72.55 82.75 73.3 79.25 78.0 77.7 M42.95 83.15 L42.95 80.0 46.05 80.8 Q46.05 82.35 45.65 83.9 L42.95 83.15 M42.95 77.3 Q40.6 78.85 38.25 77.3 L34.75 78.1 33.2 73.0 Q40.2 76.15 48.4 73.0 47.2 76.15 46.8 78.45 44.9 78.1 42.95 77.3 M38.25 80.4 L38.25 82.75 Q36.7 83.15 35.15 83.9 L35.15 81.2 38.25 80.4 M2.0 79.25 L2.4 76.5 Q5.15 78.45 7.85 79.25 L7.85 82.75 Q4.75 81.2 2.0 79.25" fill="#d3d1d4" fill-rule="evenodd" stroke="none"/>
    <path d="M72.55 85.85 Q60.85 89.35 45.65 86.25 L45.65 83.9 Q59.7 87.8 72.55 82.75 L72.55 85.85 M35.15 86.25 Q21.1 90.55 8.25 85.45 7.85 83.9 7.85 82.75 21.1 88.2 35.15 83.9 L35.15 86.25 M7.85 79.25 L7.85 76.15 Q20.7 81.2 34.75 78.1 34.75 79.65 35.15 81.2 19.95 84.3 7.85 79.25 M46.8 78.45 Q60.45 81.2 72.95 76.9 72.95 78.1 73.3 79.25 L67.45 80.8 Q57.35 83.15 46.05 80.8 L46.8 78.45" fill="#2a3260" fill-rule="evenodd" stroke="none"/>
    <path d="M78.0 74.95 L78.0 77.7 73.3 79.25 Q72.95 78.1 72.95 76.9 L78.0 74.95 M78.0 80.4 L78.4 83.55 72.55 85.85 72.55 82.75 78.0 80.4 M45.65 86.25 L42.95 85.85 42.95 83.15 45.65 83.9 45.65 86.25 M42.95 80.0 L42.95 77.3 Q44.9 78.1 46.8 78.45 L46.05 80.8 42.95 80.0 M38.25 77.3 L38.25 80.4 35.15 81.2 Q34.75 79.65 34.75 78.1 L38.25 77.3 M38.25 82.75 L38.25 85.45 35.15 86.25 35.15 83.9 Q36.7 83.15 38.25 82.75 M8.25 85.45 Q4.75 84.3 1.65 82.35 L2.0 79.25 Q4.75 81.2 7.85 82.75 7.85 83.9 8.25 85.45 M2.4 76.5 L2.4 74.2 7.85 76.15 7.85 79.25 Q5.15 78.45 2.4 76.5" fill="#1e254d" fill-rule="evenodd" stroke="none"/>
    <path d="M8.65 53.95 Q22.65 60.95 45.65 60.2 59.7 59.8 70.6 55.5 73.7 67.95 72.95 76.9 60.45 81.2 46.8 78.45 47.2 76.15 48.4 73.0 40.2 76.15 33.2 73.0 L34.75 78.1 Q20.7 81.2 7.85 76.15 7.45 65.6 8.65 53.95 M7.85 79.25 Q19.95 84.3 35.15 81.2 L35.15 83.9 Q21.1 88.2 7.85 82.75 L7.85 79.25 M45.65 83.9 Q46.05 82.35 46.05 80.8 57.35 83.15 67.45 80.8 L73.3 79.25 72.55 82.75 Q59.7 87.8 45.65 83.9" fill="#fffeff" fill-rule="evenodd" stroke="none"/>
  </g>
</svg>
