<?xml version="1.0" encoding="UTF-8" standalone="no"?>
<svg xmlns:xlink="http://www.w3.org/1999/xlink" height="87.6px" width="80.2px" xmlns="http://www.w3.org/2000/svg">
  <g transform="matrix(1.0, 0.0, 0.0, 1.0, 0.45, -1.0)">
    <path d="M72.5 7.85 L74.6 50.6 74.6 55.2 74.25 55.2 75.0 69.3 75.35 71.8 Q76.75 72.15 76.75 71.8 L76.75 74.95 76.75 80.95 76.75 82.05 71.1 83.45 68.65 83.8 64.0 84.85 Q56.95 85.55 49.15 84.85 L48.5 84.85 Q42.1 84.1 42.45 83.8 L41.75 80.95 41.05 76.75 40.7 74.25 40.3 77.4 39.65 80.95 39.3 84.1 Q37.9 85.2 33.6 85.55 L32.95 85.55 Q23.35 85.9 10.3 83.8 L7.5 83.1 Q4.3 82.7 2.55 81.3 L2.55 80.95 3.2 74.6 3.6 71.8 5.0 71.8 Q5.0 70.35 5.35 69.3 5.7 64.7 6.1 62.6 L6.75 55.2 6.75 53.75 7.1 52.75 7.5 50.95 10.65 6.45 Q10.65 5.75 11.7 5.4 L11.35 5.4 12.05 5.05 16.65 4.0 18.8 4.0 Q24.75 7.5 37.15 8.6 49.55 10.0 64.35 5.4 L64.75 5.4 65.1 4.7 67.9 5.4 70.7 6.1 71.1 6.45 72.5 7.85" fill="#30949c" fill-rule="evenodd" stroke="none"/>
    <path d="M72.5 7.85 L74.6 50.6 74.6 55.2 74.25 55.2 75.0 69.3 75.35 71.8 Q76.75 72.15 76.75 71.8 L76.75 74.95 76.75 80.95 76.75 82.05 71.1 83.45 68.65 83.8 64.0 84.85 Q56.95 85.55 49.15 84.85 L48.5 84.85 Q42.1 84.1 42.45 83.8 L41.75 80.95 41.05 76.75 40.7 74.25 40.3 77.4 39.65 80.95 39.3 84.1 Q37.9 85.2 33.6 85.55 L32.95 85.55 Q23.35 85.9 10.3 83.8 L7.5 83.1 Q4.3 82.7 2.55 81.3 L2.55 80.95 3.2 74.6 3.6 71.8 5.0 71.8 Q5.0 70.35 5.35 69.3 5.7 64.7 6.1 62.6 L6.75 55.2 6.75 53.75 7.1 52.75 7.5 50.95 10.65 6.45 Q10.65 5.75 11.7 5.4 L11.35 5.4 12.05 5.05 16.65 4.0 18.8 4.0 Q24.75 7.5 37.15 8.6 49.55 10.0 64.35 5.4 L64.75 5.4 65.1 4.7 67.9 5.4 70.7 6.1 71.1 6.45 72.5 7.85 Z" fill="none" stroke="#022356" stroke-linecap="round" stroke-linejoin="round" stroke-width="6.0"/>
    <path d="M35.8 55.4 L35.8 64.55 Q35.8 67.75 36.85 68.8 37.6 69.5 38.6 69.85 L40.75 70.2 40.75 69.85 40.75 55.4 Q56.65 56.1 69.0 51.85 70.8 63.85 69.75 69.85 69.35 72.7 68.35 74.1 L67.95 74.1 66.55 74.45 57.0 75.5 45.35 75.15 Q45.7 73.0 46.4 70.95 L40.75 71.25 34.7 70.55 Q35.45 73.0 35.8 75.15 L14.25 74.45 13.55 74.45 Q11.4 73.65 11.05 69.85 10.35 64.55 12.15 52.55 24.15 55.4 35.8 55.4 M10.35 84.3 Q9.65 82.9 9.65 81.85 9.25 79.35 10.35 76.95 22.75 79.35 35.8 78.7 L35.1 82.55 33.65 86.1 32.95 86.1 Q23.4 86.45 10.35 84.3 M68.65 84.7 L64.05 85.4 Q57.0 86.1 49.25 85.4 L48.5 85.4 Q47.1 84.0 46.4 82.55 L45.7 77.6 Q57.35 79.05 69.0 77.3 69.35 79.35 69.0 81.85 L68.65 84.7" fill="#39a0f1" fill-rule="evenodd" stroke="none"/>
    <path d="M40.75 55.4 L40.75 69.85 40.75 70.2 38.6 69.85 Q37.6 69.5 36.85 68.8 35.8 67.75 35.8 64.55 L35.8 55.4 39.7 55.4 40.75 55.4 M13.55 74.45 L14.25 74.45 35.8 75.15 35.8 78.7 Q22.75 79.35 10.35 76.95 10.7 75.5 11.4 74.1 L13.55 74.45 M45.35 75.15 L57.0 75.5 66.55 74.45 67.95 74.1 68.35 74.1 68.65 74.1 69.0 77.3 Q57.35 79.05 45.7 77.6 45.35 76.55 45.35 75.15" fill="#59b9ff" fill-rule="evenodd" stroke="none"/>
    <path d="M3.3 75.15 L3.65 72.7 5.05 72.7 11.4 74.1 Q10.7 75.5 10.35 76.95 L3.3 75.15 M40.4 78.35 L35.8 78.7 35.8 75.15 40.75 74.8 40.4 78.35 M68.65 74.1 L75.4 72.35 76.8 72.4 76.8 75.5 69.0 77.3 68.65 74.1 M41.1 77.6 L40.75 74.8 45.35 75.15 Q45.35 76.55 45.7 77.6 L41.1 77.6" fill="#2c90dd" fill-rule="evenodd" stroke="none"/>
    <path d="M12.15 52.55 Q10.35 64.55 11.05 69.85 11.4 73.65 13.55 74.45 L11.4 74.1 5.05 72.7 Q5.05 71.25 5.4 69.85 5.8 65.25 6.1 63.5 L7.5 51.5 12.15 52.55 M35.8 75.15 Q35.45 73.0 34.7 70.55 L40.75 71.25 46.4 70.95 Q45.7 73.0 45.35 75.15 L40.75 74.8 35.8 75.15 M68.35 74.1 Q69.35 72.7 69.75 69.85 70.8 63.85 69.0 51.85 L73.95 50.45 75.05 69.85 75.4 72.35 68.65 74.1 68.35 74.1 M10.35 84.3 L7.5 84.0 Q4.3 83.3 2.55 81.85 L3.3 75.15 10.35 76.95 Q9.25 79.35 9.65 81.85 9.65 82.9 10.35 84.3 M33.65 86.1 L35.1 82.55 35.8 78.7 40.4 78.35 39.7 81.85 39.35 84.7 Q37.95 85.75 33.65 86.1 M76.8 75.5 L76.8 81.85 76.8 82.55 71.15 84.0 68.65 84.7 69.0 81.85 Q69.35 79.35 69.0 77.3 L76.8 75.5 M48.5 85.4 Q42.15 85.05 42.5 84.3 L41.8 81.85 41.1 77.6 45.7 77.6 46.4 82.55 Q47.1 84.0 48.5 85.4" fill="#126bb2" fill-rule="evenodd" stroke="none"/>
    <path d="M67.95 5.95 L68.35 5.95 Q69.35 10.2 70.1 19.7 L70.4 32.8 70.1 43.05 Q69.75 49.75 68.65 53.25 55.6 57.15 42.5 55.75 42.9 55.0 42.9 53.95 L42.9 43.7 42.9 38.8 Q53.45 31.75 60.9 19.35 L67.95 5.95 M14.25 5.25 L16.7 4.55 Q23.05 20.75 32.65 30.0 L38.6 35.95 Q40.4 38.1 40.0 41.25 L40.0 52.95 Q40.0 57.15 30.85 56.4 L16.35 54.35 Q13.55 51.85 13.15 50.05 12.8 48.3 12.15 39.85 11.05 31.0 14.25 5.25" fill="#a5e7ff" fill-rule="evenodd" stroke="none"/>
    <path d="M67.95 5.95 L60.9 19.35 Q53.45 31.75 42.9 38.8 L42.9 43.7 42.9 53.95 Q42.9 55.0 42.5 55.75 55.6 57.15 68.65 53.25 L74.7 51.15 74.7 53.95 69.75 55.4 67.6 56.1 Q61.25 57.85 54.2 58.2 47.45 58.55 40.75 57.85 L40.4 57.85 39.35 58.2 35.45 58.55 22.75 57.85 16.0 56.4 12.5 55.75 6.8 54.7 7.5 52.2 16.35 54.35 30.85 56.4 Q40.0 57.15 40.0 52.95 L40.0 41.25 Q40.4 38.1 38.6 35.95 L32.65 30.0 Q23.05 20.75 16.7 4.55 L19.9 4.55 Q22.4 11.25 26.25 17.6 32.25 27.85 41.45 35.6 42.9 35.25 46.75 32.05 50.3 28.9 55.95 20.75 61.25 13.0 65.15 5.25 L67.95 5.95" fill="#126bb2" fill-rule="evenodd" stroke="none"/>
    <path d="M68.65 53.25 Q69.75 49.75 70.1 43.05 L70.4 32.8 70.1 19.7 Q69.35 10.2 68.35 5.95 71.85 7.0 72.55 8.45 L74.7 51.15 68.65 53.25 M7.5 52.2 L10.7 7.0 Q10.7 5.95 14.25 5.25 11.05 31.0 12.15 39.85 12.8 48.3 13.15 50.05 13.55 51.85 16.35 54.35 L7.5 52.2" fill="#8bd3fa" fill-rule="evenodd" stroke="none"/>
    <path d="M64.05 4.9 L70.4 5.95 Q65.45 16.2 58.45 26.05 50.65 37.0 46.05 40.9 41.45 45.15 40.4 45.5 27.3 35.25 19.2 22.15 14.25 13.75 10.7 4.9 L17.75 3.5 Q19.9 9.85 24.15 17.6 28.75 25.7 33.3 31.75 38.25 38.1 41.1 37.0 44.3 36.35 50.65 26.8 57.7 17.25 64.05 4.9" fill="#126bb2" fill-rule="evenodd" stroke="none"/>
    <path d="M17.75 3.5 Q23.8 6.65 36.5 8.05 49.25 9.85 64.05 4.9 57.7 17.25 50.65 26.8 44.3 36.35 41.1 37.0 38.25 38.1 33.3 31.75 28.75 25.7 24.15 17.6 19.9 9.85 17.75 3.5" fill="#4eb0e5" fill-rule="evenodd" stroke="none"/>
    <path d="M35.45 58.55 L39.35 58.2 40.4 57.85 40.75 57.85 Q47.45 58.55 54.2 58.2 61.25 57.85 67.6 56.1 L69.75 55.4 74.7 53.95 74.7 55.75 Q73.3 56.8 64.05 58.9 52.05 60.7 41.1 58.55 38.25 59.65 28.75 59.65 19.2 59.65 6.8 56.4 L6.8 54.7 12.5 55.75 16.0 56.4 22.75 57.85 35.45 58.55" fill="#126bb2" fill-rule="evenodd" stroke="none"/>
    <path d="M39.45 16.85 L41.6 16.8 45.2 16.95 Q46.15 17.45 47.1 18.7 48.45 20.45 48.45 21.9 48.45 23.35 46.9 24.4 L46.5 24.65 41.5 24.8 40.95 24.8 Q38.95 24.25 38.2 23.55 37.4 22.8 37.4 21.45 37.4 17.55 39.45 16.85 M46.3 26.85 L47.35 28.75 Q48.65 31.5 49.75 40.45 50.0 42.35 49.2 44.9 45.25 52.65 41.9 53.6 39.8 53.8 38.7 52.15 L38.4 51.65 36.2 47.4 Q34.35 43.7 34.45 40.6 34.5 37.5 35.5 32.2 36.5 26.85 38.2 26.55 39.9 26.25 40.4 28.4 L40.95 32.0 42.8 28.55 43.6 27.2 Q44.2 26.5 44.95 26.45 45.85 26.4 46.3 26.85 M45.45 35.7 L45.45 36.05 45.6 37.2 Q45.6 38.05 46.1 38.05 46.6 38.05 46.9 37.3 L47.15 36.4 Q47.15 34.75 46.05 34.75 45.6 34.75 45.45 35.7 M47.0 42.3 Q46.7 40.0 45.9 39.85 45.05 39.65 43.85 43.6 42.55 47.5 41.5 48.6 40.4 49.65 40.65 50.45 40.9 51.4 42.1 51.5 43.25 51.55 45.25 48.1 47.3 44.55 47.0 42.3" fill="#eceae7" fill-rule="evenodd" stroke="none"/>
    <path d="M35.4 24.4 Q33.7 24.05 32.95 23.2 32.25 22.5 33.15 20.6 34.05 18.65 35.0 17.7 35.75 16.95 39.45 16.85 37.4 17.55 37.4 21.45 37.4 22.8 38.2 23.55 38.95 24.25 40.95 24.8 L35.6 24.45 35.4 24.4" fill="#d4cdc3" fill-rule="evenodd" stroke="none"/>
    <path d="M47.95 24.55 L49.75 32.95 50.0 34.6 Q50.35 37.0 50.15 35.1 51.45 42.25 51.05 43.2 L48.7 47.4 45.85 51.5 Q43.3 54.3 41.15 54.2 40.35 54.15 39.6 53.7 38.3 53.0 37.0 51.2 L34.3 47.9 Q31.55 44.1 31.4 41.95 31.25 39.75 33.3 31.85 L35.4 24.4 35.6 24.45 40.95 24.8 41.5 24.8 46.5 24.65 47.75 24.55 47.95 24.55 M46.3 26.85 Q45.85 26.4 44.95 26.45 44.2 26.5 43.6 27.2 L42.8 28.55 40.95 32.0 40.4 28.4 Q39.9 26.25 38.2 26.55 36.5 26.85 35.5 32.2 34.5 37.5 34.45 40.6 34.35 43.7 36.2 47.4 L38.4 51.65 38.7 52.15 Q39.8 53.8 41.9 53.6 45.25 52.65 49.2 44.9 50.0 42.35 49.75 40.45 48.65 31.5 47.35 28.75 L46.3 26.85" fill="#c9c0b3" fill-rule="evenodd" stroke="none"/>
    <path d="M45.45 35.7 Q45.6 34.75 46.05 34.75 47.15 34.75 47.15 36.4 L46.9 37.3 Q46.6 38.05 46.1 38.05 45.6 38.05 45.6 37.2 L45.45 36.05 45.45 35.7 M47.0 42.3 Q47.3 44.55 45.25 48.1 43.25 51.55 42.1 51.5 40.9 51.4 40.65 50.45 40.4 49.65 41.5 48.6 42.55 47.5 43.85 43.6 45.05 39.65 45.9 39.85 46.7 40.0 47.0 42.3" fill="#fffcf7" fill-rule="evenodd" stroke="none"/>
    <path d="M45.2 16.95 L48.25 17.55 Q49.2 18.15 50.05 20.45 50.8 22.5 50.2 23.35 49.55 24.35 47.95 24.55 L47.75 24.55 46.5 24.65 46.9 24.4 Q48.45 23.35 48.45 21.9 48.45 20.45 47.1 18.7 46.15 17.45 45.2 16.95" fill="#f7f7f5" fill-rule="evenodd" stroke="none"/>
    <path d="M68.25 42.9 L55.15 45.7" fill="none" stroke="#4eb0e5" stroke-linecap="butt" stroke-linejoin="miter" stroke-miterlimit="3.0" stroke-width="1.0"/>
    <path d="M14.15 42.9 L27.25 46.05" fill="none" stroke="#4eb0e5" stroke-linecap="butt" stroke-linejoin="round" stroke-width="1.0"/>
  </g>
</svg>
