<?xml version="1.0" encoding="UTF-8" standalone="no"?>
<svg xmlns:xlink="http://www.w3.org/1999/xlink" height="85.3px" width="77.2px" xmlns="http://www.w3.org/2000/svg">
  <g transform="matrix(1.0, 0.0, 0.0, 1.0, -0.6, -1.8)">
    <path d="M5.4 55.3 L5.8 55.3 10.15 4.8 69.35 4.8 74.8 80.15 69.35 82.0 Q62.85 84.1 56.75 84.1 L54.95 84.1 Q49.85 84.1 45.15 82.7 43.7 82.35 42.3 81.65 L42.3 74.05 Q39.75 72.6 36.9 74.05 L36.9 82.0 Q35.05 82.35 33.25 83.05 L32.85 83.05 Q20.25 85.95 8.65 80.95 L8.65 80.55 4.0 78.35 3.6 78.0 5.4 55.3" fill="#560000" fill-rule="evenodd" stroke="none"/>
    <path d="M5.4 55.3 L3.6 78.0 4.0 78.35 8.65 80.55 8.65 80.95 Q20.25 85.95 32.85 83.05 L33.25 83.05 Q35.05 82.35 36.9 82.0 L36.9 74.05 Q39.75 72.6 42.3 74.05 L42.3 81.65 Q43.7 82.35 45.15 82.7 49.85 84.1 54.95 84.1 L56.75 84.1 Q62.85 84.1 69.35 82.0 L74.8 80.15 69.35 4.8 10.15 4.8 5.8 55.3 5.4 55.3 Z" fill="none" stroke="#202235" stroke-linecap="round" stroke-linejoin="round" stroke-width="6.0"/>
    <path d="M69.75 47.35 L42.3 48.8 Q16.65 49.9 9.05 47.7 10.85 29.3 12.3 18.15 37.6 25.0 66.85 18.85 68.7 32.15 69.75 47.35" fill="#1447b2" fill-rule="evenodd" stroke="none"/>
    <path d="M70.5 17.75 L72.25 46.95 69.75 47.35 Q68.7 32.15 66.85 18.85 L70.5 17.75 M9.05 47.7 L6.55 46.95 9.05 17.05 11.55 17.75 Q11.95 17.75 12.3 18.15 10.85 29.3 9.05 47.7" fill="#083593" fill-rule="evenodd" stroke="none"/>
    <path d="M64.65 4.8 L69.35 4.8 70.5 17.75 66.85 18.85 64.65 4.8 M9.05 17.05 L10.15 4.8 14.5 4.8 12.3 18.15 Q11.95 17.75 11.55 17.75 L9.05 17.05" fill="#042772" fill-rule="evenodd" stroke="none"/>
    <path d="M14.5 4.8 L64.65 4.8 66.85 18.85 Q37.6 25.0 12.3 18.15 L14.5 4.8" fill="#09348e" fill-rule="evenodd" stroke="none"/>
    <path d="M8.65 56.0 L14.5 56.7 17.75 57.1 23.15 57.45 34.7 57.8 56.75 57.1 57.1 57.1 62.85 56.7 65.45 56.4 66.1 56.4 70.1 56.0 Q70.1 58.2 70.5 60.3 71.15 75.5 69.35 82.0 62.85 84.1 56.75 84.1 L54.95 84.1 Q49.85 84.1 45.15 82.7 44.1 75.1 46.3 69.0 38.65 71.2 31.45 68.6 34.35 76.6 32.85 83.05 20.25 85.95 8.65 80.95 L8.65 80.55 Q6.15 75.1 8.3 58.85 8.3 57.45 8.65 56.0" fill="#990000" fill-rule="evenodd" stroke="none"/>
    <path d="M8.65 56.0 Q8.3 57.45 8.3 58.85 6.15 75.1 8.65 80.55 L4.0 78.35 3.6 78.0 5.4 55.3 8.3 55.6 8.65 56.0 M32.85 83.05 Q34.35 76.6 31.45 68.6 38.65 71.2 46.3 69.0 44.1 75.1 45.15 82.7 43.7 82.35 42.3 81.65 L42.3 74.05 Q39.75 72.6 36.9 74.05 L36.9 82.0 Q35.05 82.35 33.25 83.05 L32.85 83.05 M69.35 82.0 Q71.15 75.5 70.5 60.3 70.1 58.2 70.1 56.0 L73.0 55.3 74.8 80.15 69.35 82.0" fill="#700000" fill-rule="evenodd" stroke="none"/>
    <path d="M57.1 57.1 L56.75 57.1" fill="none" stroke="#e73535" stroke-linecap="round" stroke-linejoin="round" stroke-width="0.2"/>
    <path d="M65.8 58.2 L63.25 58.55 Q63.25 53.85 62.85 47.7 L65.05 47.35 65.8 58.2 M18.05 58.85 L14.8 58.55 15.9 47.7 18.05 47.7 Q17.0 54.55 18.05 58.85" fill="#7b0101" fill-rule="evenodd" stroke="none"/>
    <path d="M63.25 58.55 L57.45 58.85 57.45 47.7 62.85 47.7 Q63.25 53.85 63.25 58.55 M23.15 59.25 L18.05 58.85 Q17.0 54.55 18.05 47.7 L23.9 48.05 23.15 59.25" fill="#b60d0d" fill-rule="evenodd" stroke="none"/>
    <path d="M70.5 46.65 L72.65 46.65 73.35 57.45 70.5 57.8 Q71.15 54.2 70.5 46.65 M8.65 57.45 L5.8 57.1 6.85 46.65 9.4 46.95 Q8.3 52.75 8.65 57.45" fill="#d7c64b" fill-rule="evenodd" stroke="none"/>
    <path d="M65.05 47.35 L70.5 46.65 Q71.15 54.2 70.5 57.8 L66.5 58.2 Q66.1 58.2 65.8 58.55 L65.8 58.2 65.05 47.35 M57.45 58.85 L57.1 58.85 35.05 59.95 Q25.3 59.25 23.5 59.65 L23.15 59.65 23.15 59.25 23.9 48.05 Q40.15 49.1 57.45 47.7 L57.45 58.85 M14.8 58.55 L9.05 57.8 8.65 57.45 Q8.3 52.75 9.4 46.95 L15.9 47.7 14.8 58.55" fill="#f2f567" fill-rule="evenodd" stroke="none"/>
    <path d="M39.85 54.75 Q39.85 53.55 39.05 52.75 38.15 51.95 36.95 51.95 35.8 51.95 34.95 52.75 34.15 53.55 34.15 54.75 34.15 55.95 34.95 56.75 35.8 57.6 36.95 57.6 38.15 57.6 39.05 56.75 39.85 55.95 39.85 54.75 M32.55 56.6 Q32.55 53.55 34.7 51.45 36.75 49.3 39.85 49.3 42.85 49.3 45.0 51.45 47.15 53.55 47.15 56.6 47.15 59.6 45.0 61.75 42.85 63.85 39.85 63.85 36.75 63.85 34.7 61.75 32.55 59.6 32.55 56.6 M37.2 58.8 Q36.75 59.25 36.75 59.8 36.75 60.4 37.2 60.85 L38.2 61.2 Q38.8 61.2 39.2 60.85 39.6 60.4 39.6 59.8 39.6 59.25 39.2 58.8 38.8 58.45 38.2 58.45 37.65 58.45 37.2 58.8" fill="#d7c64b" fill-rule="evenodd" stroke="none"/>
    <path d="M39.85 54.75 Q39.85 55.95 39.05 56.75 38.15 57.6 36.95 57.6 35.8 57.6 34.95 56.75 34.15 55.95 34.15 54.75 34.15 53.55 34.95 52.75 35.8 51.95 36.95 51.95 38.15 51.95 39.05 52.75 39.85 53.55 39.85 54.75 M37.2 58.8 Q37.65 58.45 38.2 58.45 38.8 58.45 39.2 58.8 39.6 59.25 39.6 59.8 39.6 60.4 39.2 60.85 38.8 61.2 38.2 61.2 L37.2 60.85 Q36.75 60.4 36.75 59.8 36.75 59.25 37.2 58.8" fill="#f5f7d3" fill-rule="evenodd" stroke="none"/>
    <path d="M30.25 56.6 Q30.25 52.6 33.05 49.85 35.85 47.1 39.85 47.1 43.75 47.1 46.55 49.85 49.4 52.6 49.4 56.6 49.4 60.55 46.55 63.3 43.75 66.05 39.85 66.05 35.85 66.05 33.05 63.3 30.25 60.55 30.25 56.6 M32.55 56.6 Q32.55 59.6 34.7 61.75 36.75 63.85 39.85 63.85 42.85 63.85 45.0 61.75 47.15 59.6 47.15 56.6 47.15 53.55 45.0 51.45 42.85 49.3 39.85 49.3 36.75 49.3 34.7 51.45 32.55 53.55 32.55 56.6" fill="#b8a832" fill-rule="evenodd" stroke="none"/>
    <path d="M43.7 22.45 L45.5 22.8 Q47.35 21.7 49.55 21.0 L50.6 22.45 Q48.75 22.8 47.7 23.55 48.75 23.85 49.15 24.6 50.2 25.35 49.85 25.65 L48.4 28.55 Q51.7 31.5 51.7 35.05 51.7 39.45 48.1 42.65 44.45 45.55 39.4 45.55 34.7 45.55 31.05 42.65 27.8 39.45 27.8 35.05 27.8 31.1 31.05 27.85 34.7 25.0 39.4 25.0 L40.85 25.0 41.9 22.8 Q42.3 22.1 43.7 22.45" fill="#f8fa8e" fill-rule="evenodd" stroke="none"/>
    <path d="M43.7 22.45 L45.5 22.8 Q47.35 21.7 49.55 21.0 L50.6 22.45 Q48.75 22.8 47.7 23.55 48.75 23.85 49.15 24.6 50.2 25.35 49.85 25.65 L48.4 28.55 Q51.7 31.5 51.7 35.05 51.7 39.45 48.1 42.65 44.45 45.55 39.4 45.55 34.7 45.55 31.05 42.65 27.8 39.45 27.8 35.05 27.8 31.1 31.05 27.85 34.7 25.0 39.4 25.0 L40.85 25.0 41.9 22.8 Q42.3 22.1 43.7 22.45 Z" fill="none" stroke="#d92525" stroke-linecap="round" stroke-linejoin="round" stroke-width="0.2"/>
    <path d="M48.1 29.95 L48.4 31.1 Q48.4 32.55 46.95 33.6 L45.15 34.35 45.5 34.35 Q45.9 34.75 46.3 34.75 L48.4 35.4 Q49.85 36.55 49.85 38.65 49.85 40.85 48.1 41.9 L47.7 42.65 Q45.15 44.1 39.4 44.5 L32.2 44.5 35.05 43.75 32.55 28.25 31.05 27.85 40.85 27.85 46.65 28.55 48.1 29.95 M40.85 29.95 Q39.75 29.3 38.0 29.3 L38.3 32.95 Q40.15 32.95 41.2 32.15 41.9 31.8 41.9 31.1 L41.9 30.75 40.85 29.95 M41.2 36.85 L40.15 36.85 39.05 36.85 Q38.65 36.85 38.0 37.25 L37.6 41.55 40.45 39.45 Q41.55 38.65 41.55 37.6 L41.2 36.85" fill="#d92525" fill-rule="evenodd" stroke="none"/>
  </g>
</svg>
