<?xml version="1.0" encoding="UTF-8" standalone="no"?>
<svg xmlns:xlink="http://www.w3.org/1999/xlink" height="91.85px" width="81.95px" xmlns="http://www.w3.org/2000/svg">
  <g transform="matrix(1.0, 0.0, 0.0, 1.0, 1.55, -1.7)">
    <path d="M66.5 6.45 Q72.6 7.6 73.0 9.4 L75.2 55.5 74.8 55.9 75.85 74.35 75.85 76.45 77.4 76.55 77.4 79.7 77.4 86.2 77.4 87.35 Q73.75 88.05 71.95 88.75 L69.35 89.1 66.5 89.45 64.35 89.8 Q57.45 90.5 49.55 90.2 L48.45 89.8 42.3 89.1 41.95 86.2 41.2 81.9 40.85 79.0 40.15 82.65 39.75 86.2 39.35 89.1 Q37.95 90.2 33.25 90.5 L32.85 90.5 Q22.8 90.9 9.4 88.75 L6.9 88.4 Q3.25 87.65 1.45 86.55 L1.45 86.2 2.55 79.4 2.9 76.8 4.35 76.8 4.35 74.35 Q5.1 69.25 5.1 67.45 L6.5 56.6 6.15 56.6 10.15 11.5 9.75 7.95 Q9.75 6.15 19.55 5.4 L37.95 4.7 39.35 4.7 40.85 4.7 Q58.5 5.0 66.5 6.45 M43.4 59.85 L41.95 59.55 42.3 59.85 43.4 59.85" fill="#3b77b8" fill-rule="evenodd" stroke="none"/>
    <path d="M66.5 6.45 Q58.5 5.0 40.85 4.7 L39.35 4.7 37.95 4.7 19.55 5.4 Q9.75 6.15 9.75 7.95 L10.15 11.5 6.15 56.6 6.5 56.6 5.1 67.45 Q5.1 69.25 4.35 74.35 L4.35 76.8 2.9 76.8 2.55 79.4 1.45 86.2 1.45 86.55 Q3.25 87.65 6.9 88.4 L9.4 88.75 Q22.8 90.9 32.85 90.5 L33.25 90.5 Q37.95 90.2 39.35 89.1 L39.75 86.2 40.15 82.65 40.85 79.0 41.2 81.9 41.95 86.2 42.3 89.1 48.45 89.8 49.55 90.2 Q57.45 90.5 64.35 89.8 L66.5 89.45 69.35 89.1 71.95 88.75 Q73.75 88.05 77.4 87.35 L77.4 86.2 77.4 79.7 77.4 76.55 75.85 76.45 75.85 74.35 74.8 55.9 75.2 55.5 73.0 9.4 Q72.6 7.6 66.5 6.45 Z" fill="none" stroke="#283757" stroke-linecap="round" stroke-linejoin="round" stroke-width="6.0"/>
    <path d="M35.75 59.3 L35.75 68.35 Q35.75 71.95 36.9 73.0 37.2 73.8 38.75 74.15 39.8 74.45 40.85 74.15 L42.3 74.15 42.3 59.7 57.1 58.6 Q63.25 57.9 69.75 55.75 71.6 67.95 70.5 74.15 69.75 76.65 68.7 78.45 L67.25 78.85 57.5 79.5 45.55 79.15 Q45.55 77.35 46.3 74.85 L40.85 75.6 Q37.2 75.6 34.7 74.45 35.5 77.35 35.75 79.5 L13.75 78.85 Q13.35 78.45 12.7 78.45 10.9 78.1 10.1 74.15 9.4 68.35 11.55 56.05 23.5 59.3 35.75 59.3 M9.4 88.55 Q9.05 87.5 9.05 86.0 8.7 83.55 9.4 81.35 22.05 83.55 35.5 82.75 35.5 84.6 34.7 86.8 L33.3 90.75 32.9 90.75 Q22.8 91.1 9.4 88.55 M45.9 82.1 L69.75 81.35 Q70.15 83.85 69.75 86.0 L69.4 88.9 Q66.85 89.65 64.35 89.65 57.5 90.75 49.55 89.95 L48.45 89.95 Q47.0 88.2 46.6 86.8 45.9 85.3 45.9 82.1" fill="#3f96f5" fill-rule="evenodd" stroke="none"/>
    <path d="M42.3 59.7 L42.3 74.15 40.85 74.15 Q39.8 74.45 38.75 74.15 37.2 73.8 36.9 73.0 35.75 71.95 35.75 68.35 L35.75 59.3 42.3 59.7" fill="#307fc2" fill-rule="evenodd" stroke="none"/>
    <path d="M11.55 56.05 Q9.4 68.35 10.1 74.15 10.9 78.1 12.7 78.45 13.35 78.45 13.75 78.85 L35.75 79.5 Q35.5 77.35 34.7 74.45 37.2 75.6 40.85 75.6 L46.3 74.85 Q45.55 77.35 45.55 79.15 L57.5 79.5 67.25 78.85 68.7 78.45 Q69.75 76.65 70.5 74.15 71.6 67.95 69.75 55.75 71.2 54.95 74.85 54.25 L75.9 74.15 75.9 76.65 69.0 78.45 69.75 81.35 45.9 82.1 Q45.55 80.6 45.55 79.15 L40.85 79.15 35.75 79.5 35.5 82.75 40.15 82.45 39.8 86.0 39.4 89.25 Q37.95 90.35 33.3 90.75 L34.7 86.8 Q35.5 84.6 35.5 82.75 22.05 83.55 9.4 81.35 8.7 83.55 9.05 86.0 9.05 87.5 9.4 88.55 L6.9 88.2 Q3.3 87.5 1.5 86.4 L1.5 86.0 2.55 79.5 9.4 81.35 Q10.1 79.5 10.9 78.45 L4.35 76.65 4.35 74.15 Q5.05 69.4 5.05 67.3 L6.55 55.35 11.55 56.05 M41.2 81.7 L45.9 82.1 Q45.9 85.3 46.6 86.8 47.0 88.2 48.45 89.95 L42.3 88.9 41.95 86.0 41.2 81.7 M69.4 88.9 L69.75 86.0 Q70.15 83.85 69.75 81.35 L77.3 79.9 77.3 86.0 77.3 87.1 71.95 88.55 69.4 88.9" fill="#2774b4" fill-rule="evenodd" stroke="none"/>
    <path d="M4.35 76.65 L10.9 78.45 Q10.1 79.5 9.4 81.35 L2.55 79.5 2.9 76.65 4.35 76.65 M35.5 82.75 L35.75 79.5 40.85 79.15 45.55 79.15 Q45.55 80.6 45.9 82.1 L41.2 81.7 40.85 79.15 40.15 82.45 35.5 82.75 M69.75 81.35 L69.0 78.45 75.9 76.65 Q77.3 77.05 77.3 76.65 L77.3 79.9 69.75 81.35" fill="#165d98" fill-rule="evenodd" stroke="none"/>
    <path d="M73.0 9.15 L73.0 11.35 69.4 14.55 Q58.55 23.2 47.35 24.7 L47.0 24.3 46.6 24.3 Q46.3 24.3 46.3 24.7 L46.3 25.05 Q30.05 27.2 13.75 14.2 L12.7 13.5 Q12.7 13.15 12.3 13.15 L10.1 10.95 9.8 7.7 Q9.8 7.4 10.9 6.65 18.45 14.55 28.95 18.9 40.5 23.6 53.1 18.9 64.7 14.95 73.0 9.15" fill="#5798de" fill-rule="evenodd" stroke="none"/>
    <path d="M73.0 11.35 L75.2 52.1 69.75 53.2 Q71.95 39.15 69.4 14.55 L73.0 11.35 M6.55 52.5 L10.1 10.95 12.3 13.15 Q12.7 13.15 12.7 13.5 L13.75 14.2 Q10.5 44.9 11.55 53.55 L10.1 53.2 6.55 52.5 M46.3 25.05 L46.3 24.7 Q46.3 24.3 46.6 24.3 L47.0 24.3 47.35 24.7 47.0 25.4 46.3 25.05" fill="#73aae5" fill-rule="evenodd" stroke="none"/>
    <path d="M10.9 6.65 Q12.7 5.9 19.6 5.2 L27.15 4.45 37.95 4.45 39.4 4.45 40.85 4.45 56.05 5.2 Q72.25 6.25 73.0 9.15 64.7 14.95 53.1 18.9 40.5 23.6 28.95 18.9 18.45 14.55 10.9 6.65" fill="#4a86c6" fill-rule="evenodd" stroke="none"/>
    <path d="M47.35 24.7 Q58.55 23.2 69.4 14.55 71.95 39.15 69.75 53.2 40.15 58.2 11.55 53.55 10.5 44.9 13.75 14.2 30.05 27.2 46.3 25.05 L47.0 25.4 47.35 24.7" fill="#92c5fc" fill-rule="evenodd" stroke="none"/>
    <path d="M75.2 52.1 L75.2 55.75 70.15 57.15 Q58.55 59.7 44.1 59.7 L40.5 59.7 35.5 59.7 Q23.5 59.3 11.55 57.5 L10.5 57.5 6.15 56.45 6.55 52.5 10.1 53.2 11.55 53.55 Q40.15 58.2 69.75 53.2 L75.2 52.1" fill="#b0d3fa" fill-rule="evenodd" stroke="none"/>
    <path d="M15.55 53.55 L25.7 34.4 54.9 35.55 64.0 53.55 Q51.35 55.35 39.0 55.35 26.8 55.35 15.55 53.55" fill="#6ca7e7" fill-rule="evenodd" stroke="none"/>
    <path d="M15.55 53.55 L12.3 53.55 22.05 32.3 58.15 32.95 66.5 53.55 64.0 53.55 54.9 35.55 25.7 34.4 15.55 53.55" fill="#b0d3fa" fill-rule="evenodd" stroke="none"/>
    <path d="M50.1 41.5 Q50.15 42.7 48.1 44.0 L44.35 46.1 46.3 49.35 Q48.05 52.8 46.85 53.8 45.7 54.75 42.75 52.15 L40.05 49.35 37.6 52.15 Q34.95 54.8 33.5 54.05 32.15 53.25 33.7 49.7 L35.6 46.25 Q33.85 45.65 32.2 44.75 28.9 42.9 29.1 41.6 29.3 40.3 33.25 40.6 L37.15 41.2 37.6 38.2 Q38.4 35.25 39.6 35.2 40.8 35.15 41.8 38.05 L42.5 41.05 46.45 40.4 Q50.05 40.25 50.1 41.5" fill="#d8de67" fill-rule="evenodd" stroke="none"/>
  </g>
</svg>
