<?xml version="1.0" encoding="UTF-8" standalone="no"?>
<svg xmlns:xlink="http://www.w3.org/1999/xlink" height="66.65px" width="705.0px" xmlns="http://www.w3.org/2000/svg">
  <g transform="matrix(1.0, 0.0, 0.0, 1.0, 0.0, 0.0)">
    <path d="M125.65 8.35 Q127.9 10.45 128.2 13.95 L131.3 49.55 Q96.75 45.05 70.6 40.4 27.65 32.8 0.0 24.15 0.15 21.55 1.7 19.55 3.85 16.85 7.75 16.55 L119.05 6.2 119.95 6.2 Q123.35 6.2 125.65 8.35" fill="#ffffff" fill-rule="evenodd" stroke="none"/>
    <path d="M367.35 12.35 Q377.05 19.05 382.85 31.2 388.7 43.35 389.95 59.3 L390.1 66.4 347.95 65.5 341.75 65.3 Q340.6 55.4 330.1 51.5 326.8 50.25 323.0 49.8 L319.85 49.55 320.75 64.55 264.4 61.75 259.4 10.6 Q259.15 6.8 261.3 4.35 263.45 1.75 267.25 1.5 L302.25 0.0 Q311.0 0.0 317.2 0.4 335.4 1.35 347.65 4.25 359.9 7.2 367.35 12.35" fill="#ffffff" fill-rule="evenodd" stroke="none"/>
    <path d="M587.95 6.95 Q600.05 10.4 607.3 15.9 615.55 22.2 620.7 32.7 625.8 43.15 627.25 56.7 L626.25 56.8 577.65 61.45 Q574.5 54.6 566.05 52.1 563.4 51.3 560.55 51.05 L558.2 50.95 558.15 62.8 502.5 65.45 499.55 9.35 Q499.45 5.6 501.7 3.15 504.0 0.7 507.75 0.6 516.9 0.3 525.3 0.3 L557.7 1.7 Q575.85 3.45 587.95 6.95" fill="#ffffff" fill-rule="evenodd" stroke="none"/>
    <path d="M456.15 28.95 Q458.85 28.95 460.95 30.55 463.0 32.15 463.8 34.8 L473.6 66.2 Q435.8 66.95 395.65 66.5 L399.8 39.4 Q400.15 36.45 402.15 34.5 404.15 32.55 407.1 32.3 L455.5 28.95 456.15 28.95" fill="#ffffff" fill-rule="evenodd" stroke="none"/>
    <path d="M220.8 28.95 Q223.5 28.95 225.6 30.55 227.65 32.15 228.45 34.8 L236.3 59.85 Q198.7 57.15 162.45 53.2 L164.45 39.45 Q164.8 36.5 166.8 34.5 168.85 32.55 171.75 32.3 L220.15 28.95 220.8 28.95" fill="#ffffff" fill-rule="evenodd" stroke="none"/>
    <path d="M694.8 28.95 Q697.5 28.95 699.6 30.55 701.65 32.15 702.45 34.8 L705.0 42.85 Q678.3 50.25 635.95 55.65 L638.45 39.4 Q638.85 36.45 640.85 34.5 642.85 32.55 645.75 32.3 L694.15 28.95 694.8 28.95" fill="#ffffff" fill-rule="evenodd" stroke="none"/>
  </g>
</svg>
