<?xml version="1.0" encoding="UTF-8" standalone="no"?>
<svg xmlns:xlink="http://www.w3.org/1999/xlink" height="46.75px" width="39.0px" xmlns="http://www.w3.org/2000/svg">
  <g transform="matrix(1.0, 0.0, 0.0, 1.0, -2.2, -1.8)">
    <path d="M40.65 37.7 L40.85 37.95 41.2 47.0 41.0 47.25 4.1 48.55 Q3.75 48.3 2.2 3.35 L2.35 3.1 39.4 1.8 39.6 2.05 39.9 11.1 39.75 11.4 18.25 12.15 Q17.4 12.25 17.45 12.65 L17.7 20.3 Q17.7 20.75 18.55 20.75 L35.55 20.15 35.75 20.45 36.1 29.5 35.9 29.75 18.75 30.35 Q18.0 30.35 18.0 30.9 L18.15 38.0 Q18.1 38.55 18.95 38.45 L40.65 37.7" fill="#ff0000" fill-rule="evenodd" stroke="none"/>
  </g>
</svg>
