<?xml version="1.0" encoding="UTF-8" standalone="no"?>
<svg xmlns:xlink="http://www.w3.org/1999/xlink" height="7.65px" width="27.0px" xmlns="http://www.w3.org/2000/svg">
  <g transform="matrix(1.0, 0.0, 0.0, 1.0, 0.5, -3.6)">
    <path d="M25.25 10.25 L25.3 10.3 25.3 10.25 25.25 10.25 25.25 10.2 25.2 10.25 25.25 10.25 M25.25 10.2 L25.35 10.1 25.35 10.05 25.25 10.05 25.25 10.2 M25.35 10.05 L25.35 9.9 25.5 10.05 25.55 10.15 25.55 10.1 25.55 9.6 26.2 10.05 26.25 10.15 26.45 10.15 26.4 10.25 26.5 10.25 26.45 10.55 26.45 10.6 26.45 10.7 26.35 10.65 26.2 10.85 25.7 11.05 25.45 11.15 25.5 11.0 25.45 11.05 25.35 11.05 25.2 11.25 25.0 11.25 25.0 11.05 24.65 11.05 24.85 10.8 24.85 10.65 24.85 10.35 25.0 10.5 25.05 10.45 25.0 10.35 25.2 10.25 25.1 10.4 25.05 10.45 25.15 10.6 25.2 10.6 25.2 10.55 25.25 10.55 25.25 10.5 25.3 10.35 25.3 10.3 M25.15 10.6 L25.15 10.65 25.4 10.85 25.3 10.55 25.2 10.6 25.25 10.55 25.3 10.55 25.25 10.5 25.3 10.5 25.35 10.5 25.35 10.45 25.3 10.35 M25.15 10.6 L25.1 10.65 24.95 10.7 24.95 10.75 24.9 10.75 25.0 10.9 25.0 10.8 25.15 10.65 25.25 10.95 25.45 10.9 25.4 10.9 25.4 10.85 25.45 10.85 25.65 10.6 25.65 10.5 25.55 10.5 25.45 10.5 25.3 10.55 25.3 10.5 M25.0 10.5 L25.05 10.55 25.15 10.6 M25.0 10.5 L24.85 10.65 24.9 10.75 24.85 10.8 M25.25 10.95 L25.2 10.95 25.0 10.9 25.0 11.05 25.35 11.05 25.4 11.0 25.45 10.9 25.45 10.85 25.5 10.85 25.55 10.8 25.65 10.6 25.7 10.5 25.65 10.5 25.6 10.45 25.55 10.45 25.55 10.5 M25.55 10.1 L25.6 10.0 25.7 10.0 25.75 10.05 25.9 10.0 26.1 10.0 26.15 10.15 26.25 10.15 26.35 10.25 26.4 10.25 26.35 10.3 26.45 10.55 26.4 10.6 26.45 10.6 26.35 10.65 26.4 10.6 26.25 10.5 26.2 10.6 26.15 10.6 26.35 10.65 25.95 10.95 25.7 11.05 25.6 11.05 25.5 11.0 25.5 10.95 25.35 11.05 M25.75 10.05 L25.6 10.1 25.7 10.15 25.65 10.3 25.7 10.35 25.75 10.35 25.8 10.35 25.75 10.1 25.75 10.05 M25.6 10.1 L25.55 10.1 M25.55 10.15 L25.55 10.25 25.65 10.3 25.55 10.35 25.6 10.35 25.7 10.35 M25.35 10.1 L25.3 10.25 25.45 10.15 25.55 10.15 M25.45 10.45 L25.4 10.45 25.45 10.5 25.55 10.45 25.45 10.45 25.55 10.4 25.55 10.35 25.55 10.25 M25.55 10.4 L25.55 10.45 M25.35 10.45 L25.4 10.45 M25.8 10.45 L25.75 10.45 25.75 10.5 25.8 10.5 25.8 10.45 25.8 10.4 25.7 10.45 25.75 10.5 25.7 10.6 25.7 10.7 25.65 10.8 25.8 10.5 M25.6 10.45 L25.7 10.45 25.7 10.4 25.6 10.35 M25.8 10.4 L25.85 10.35 25.8 10.35 25.8 10.4 25.9 10.35 25.85 10.35 Q26.0 10.2 26.15 10.15 L26.15 10.25 26.35 10.25 26.35 10.3 26.25 10.5 26.05 10.35 26.15 10.25 26.1 10.25 25.95 10.5 26.05 10.55 26.15 10.6 26.0 10.8 25.9 10.8 25.95 10.5 25.8 10.4 25.75 10.35 25.7 10.45 25.7 10.5 25.75 10.5 M25.7 10.6 L25.7 10.55 25.6 10.8 25.65 10.8 M25.7 10.55 L25.7 10.5 M25.45 10.9 L25.5 10.9 25.5 10.85 25.55 10.85 25.6 10.8 25.6 10.85 25.55 10.9 25.55 10.95 25.5 10.95 25.55 10.9 25.55 10.85 25.5 10.9 M25.5 10.95 L25.45 10.95 25.4 11.0 M25.45 10.9 L25.45 10.95 M0.25 3.6 L0.45 3.8 0.55 3.75 0.6 3.75 0.65 3.8 0.7 3.95 0.7 4.05 0.8 4.35 0.8 4.45 0.7 4.55 0.6 4.6 0.6 4.8 0.45 4.8 0.35 5.05 0.7 4.85 0.8 4.8 0.9 4.75 0.9 4.8 Q0.9 5.05 0.8 4.8 L0.6 5.0 0.25 5.15 0.25 5.1 -0.1 5.15 -0.35 5.1 -0.5 4.75 -0.5 4.65 -0.45 4.05 -0.5 3.9 -0.25 3.7 0.1 3.6 0.2 3.75 0.25 3.65 0.25 3.6 M0.55 3.75 L0.5 3.8 0.55 3.9 0.6 3.85 0.7 4.05 0.7 4.1 0.7 4.2 0.65 4.25 0.65 4.3 0.8 4.45 0.6 4.5 0.6 4.6 0.55 4.65 0.5 4.55 0.35 4.7 0.45 4.8 M0.5 4.1 L0.55 4.15 0.55 4.05 0.55 4.0 0.45 4.1 0.5 4.1 M0.55 4.05 L0.6 4.1 0.7 4.1 0.55 3.9 0.45 3.95 0.45 4.1 0.4 4.05 0.25 3.85 0.35 4.05 0.4 4.1 0.45 4.1 0.45 4.3 0.55 4.3 0.6 4.35 0.65 4.3 0.6 4.25 0.6 4.15 0.55 4.15 0.6 4.1 0.6 4.15 M0.45 3.8 L0.5 3.8 0.45 3.95 0.25 3.85 0.2 3.75 0.2 3.85 0.25 3.85 0.25 3.8 0.2 3.75 M0.45 3.8 L0.4 3.8 0.25 3.85 M0.5 4.55 L0.5 4.45 0.45 4.3 0.4 4.35 0.15 4.35 -0.05 4.3 -0.15 4.2 -0.15 4.05 -0.3 4.25 -0.15 4.3 0.0 4.4 0.0 4.35 0.35 4.7 0.25 4.8 0.2 4.8 0.2 4.9 0.1 4.85 0.1 4.9 0.25 5.1 0.35 5.05 M0.5 4.55 L0.6 4.5 0.6 4.35 0.45 4.3 0.1 4.05 -0.05 3.9 -0.15 4.05 -0.15 3.95 -0.05 3.9 -0.35 3.85 -0.35 4.1 -0.3 4.2 -0.3 4.25 -0.15 4.45 -0.1 4.5 0.0 4.4 0.2 4.75 0.2 4.8 -0.1 4.5 -0.25 4.6 -0.1 4.7 0.1 4.85 0.05 4.85 0.0 4.8 -0.2 4.7 -0.35 4.65 -0.5 4.65 -0.35 4.35 -0.35 4.15 -0.45 4.05 -0.45 4.0 -0.35 4.1 -0.35 4.15 -0.3 4.2 M0.25 3.8 L0.25 3.65 M-0.3 4.25 L-0.35 4.35 -0.35 4.65 -0.25 4.6 M-0.2 4.7 L-0.1 4.7 0.0 4.8" fill="none" stroke="#000000" stroke-linecap="round" stroke-linejoin="round" stroke-width="0.05"/>
  </g>
</svg>
