<?xml version="1.0" encoding="UTF-8" standalone="no"?>
<svg xmlns:xlink="http://www.w3.org/1999/xlink" height="6.45px" width="20.0px" xmlns="http://www.w3.org/2000/svg">
  <g transform="matrix(1.0, 0.0, 0.0, 1.0, -5.45, -13.9)">
    <path d="M23.5 14.35 L22.6 14.45 21.9 14.4 21.95 14.45 22.1 14.6 Q21.8 14.9 21.2 14.85 L20.45 14.8 20.9 15.0 21.8 15.15 22.75 14.8 23.65 14.35 23.5 14.35 M10.05 15.3 L10.0 15.05 10.05 15.05 10.05 15.3 10.1 15.45 10.4 15.85 10.5 15.75 10.6 15.5 10.85 15.75 11.2 15.95 11.3 15.45 11.3 15.4 10.95 15.15 10.95 14.95 11.05 14.9 11.15 14.85 Q11.6 15.05 11.65 15.7 L11.6 15.7 11.65 15.75 11.9 15.85 12.2 16.05 12.2 15.6 12.3 15.6 12.45 16.65 12.75 16.65 12.9 15.7 13.05 15.8 13.1 15.95 13.35 15.95 13.4 15.75 13.0 15.55 12.95 15.5 12.8 15.7 12.65 15.4 12.65 15.15 12.95 15.5 13.0 15.35 13.1 15.15 13.4 15.4 13.45 14.95 13.55 14.9 13.7 15.25 13.85 15.5 14.05 15.25 14.4 15.5 14.7 15.85 14.85 15.5 15.15 15.15 15.3 15.3 15.5 15.6 15.7 15.2 15.85 14.8 16.05 15.15 16.1 15.5 16.25 15.55 16.4 15.6 16.45 15.2 16.5 14.8 16.55 14.75 16.65 14.7 16.7 15.15 16.75 15.7 16.8 15.7 16.8 15.75 17.0 15.45 17.1 15.25 17.3 16.05 17.35 15.85 17.6 15.9 17.8 16.2 18.15 15.35 Q18.5 14.75 18.8 14.7 L18.8 15.05 18.9 14.95 18.95 15.3 18.95 15.75 18.95 15.85 19.35 15.35 19.5 14.85 19.75 15.0 19.95 15.15 20.0 15.0 20.0 14.95 20.05 14.9 20.4 14.8 20.45 14.8 M25.45 19.2 Q25.05 19.35 24.95 19.1 L24.75 18.5 24.65 18.6 24.6 18.8 24.45 18.85 24.35 18.95 24.4 18.7 24.45 18.3 M8.3 14.75 L8.25 14.75 7.4 14.9 7.4 14.85 7.3 14.9 7.55 14.95 7.8 15.15 8.3 15.15 8.5 15.0 8.6 15.05 8.65 15.15 8.3 15.15 7.9 15.45 7.1 15.85 Q7.2 15.35 6.7 14.85 L6.3 14.55 6.05 14.6 5.85 14.6 5.7 14.5 5.7 14.35 6.3 14.55 6.55 14.35 6.95 13.9 7.2 14.5 7.25 14.6 7.25 14.5 7.4 14.5 7.55 14.5 7.95 14.5 8.25 14.7 8.3 14.75 8.65 14.6 8.5 14.75 8.3 14.75 M8.25 14.75 L7.95 14.7 7.55 14.5 7.5 14.85 7.4 14.85 7.25 14.6 7.25 14.9 7.3 14.9 M7.25 14.6 L7.1 14.75 7.1 14.9 7.25 14.9 M7.25 14.6 L7.4 14.5 M9.5 15.25 L9.65 15.5 9.9 15.75 10.05 15.75 10.05 15.3 M6.2 19.9 L6.4 19.9 6.5 20.15 6.55 20.35 6.2 19.9 6.1 19.8 Q5.9 20.05 5.55 20.05 L5.5 19.7 5.45 19.35 6.2 19.2 6.2 19.15 6.25 19.15 6.7 18.65 6.45 19.15 6.95 19.1 M6.3 19.5 L6.45 19.15 6.25 19.15 6.2 19.2 5.85 19.5 6.1 19.8 6.3 19.5 M20.0 14.95 L20.05 14.95 20.05 14.9 M16.65 18.35 L16.65 18.4 16.75 18.45 16.8 18.6 16.85 18.65 16.9 18.6 16.9 18.65 17.0 18.65 17.0 18.25 17.15 18.4 17.2 18.7 17.15 18.75 16.95 18.8 16.85 18.75 16.9 18.7 16.8 18.7 16.75 18.7 16.75 18.8 16.65 18.7 16.55 18.8 16.55 18.7 16.5 18.7 16.5 18.35 16.55 18.25 16.65 18.35 16.55 18.35 16.65 18.7 16.7 18.6 16.65 18.4 M11.3 15.45 L11.6 15.7 Q11.65 15.35 11.3 15.05 L11.3 15.4 M13.9 15.7 L13.85 15.5 13.55 15.75 13.6 15.75 13.8 15.7 13.9 15.7 M13.4 15.5 L13.4 15.75 13.55 15.75 13.4 15.4 13.4 15.5 M16.9 18.7 L16.9 18.65 16.85 18.65 16.8 18.65 16.8 18.7 M16.9 18.7 L17.0 18.7 17.0 18.65 17.15 18.75 M16.8 18.6 L16.75 18.6 16.75 18.7 16.8 18.65 16.8 18.6 M16.75 18.45 L16.75 18.6 M16.7 18.6 L16.75 18.45 M16.75 18.8 L16.7 18.6" fill="none" stroke="#000000" stroke-linecap="round" stroke-linejoin="round" stroke-width="0.05"/>
  </g>
</svg>
