<?xml version="1.0" encoding="UTF-8" standalone="no"?>
<svg xmlns:xlink="http://www.w3.org/1999/xlink" height="17.5px" width="19.25px" xmlns="http://www.w3.org/2000/svg">
  <g transform="matrix(1.0, 0.0, 0.0, 1.0, -5.15, -10.55)">
    <path d="M18.1 11.6 L18.25 11.95 18.45 12.0 18.4 11.9 18.35 11.85 18.45 11.15 18.2 11.05 17.9 10.95 18.05 10.9 18.4 10.85 Q18.65 10.85 19.0 11.15 L19.3 11.4 20.25 11.4 20.25 11.05 20.55 11.35 20.7 12.1 20.95 11.7 20.95 11.6 20.85 11.3 20.8 11.25 20.7 11.25 20.7 11.1 20.8 11.25 20.9 11.3 20.95 11.6 M20.95 11.7 L20.9 11.95 20.7 12.1 20.65 12.15 20.25 12.65 M22.15 17.65 L22.2 18.75 Q22.35 19.55 23.05 19.4 L23.05 19.35 22.95 19.35 22.9 18.25 22.85 18.25 22.8 19.05 22.7 17.7 22.6 17.7 22.35 18.15 22.35 18.25 22.25 18.0 22.25 17.8 22.15 17.65 M22.6 17.7 L22.6 17.65 22.8 17.25 23.15 17.65 23.2 18.1 23.2 18.2 23.15 18.7 23.05 19.3 23.05 19.35 M22.8 17.8 L22.85 18.05 22.85 17.65 22.8 17.65 22.8 17.8 22.8 17.95 22.85 18.05 22.85 18.1 23.05 18.45 23.05 18.55 23.2 18.2 M22.9 18.25 L22.85 18.2 22.85 18.25 M22.85 18.1 L22.85 18.2 M22.8 17.95 L22.85 18.1 M24.4 22.55 L24.15 22.35 M23.05 18.55 L23.05 19.3 M23.05 18.55 L22.9 18.25 M11.15 11.35 L11.15 11.6 11.15 11.65 11.35 11.6 11.25 11.35 Q11.1 10.9 10.7 11.05 L10.7 11.3 10.65 11.5 10.7 11.6 10.75 11.7 10.8 11.7 11.0 11.65 11.0 11.25 11.05 11.25 11.15 11.35 M10.3 10.75 L10.45 10.7 10.35 10.7 10.3 10.75 10.35 10.55 9.6 10.8 9.2 11.1 9.3 11.1 9.6 11.1 9.65 11.05 10.3 10.75 10.25 10.8 9.85 11.5 10.25 11.65 10.5 11.65 10.35 11.5 10.35 11.4 10.5 11.65 10.65 11.7 10.55 11.4 10.65 11.4 10.65 11.5 10.65 11.6 10.65 11.7 10.75 11.7 10.8 11.8 10.8 11.95 10.95 12.1 11.0 12.05 11.0 11.65 11.15 11.65 11.15 11.8 11.25 11.8 11.25 12.05 11.0 12.05 10.95 12.15 11.05 12.2 11.35 11.9 11.4 11.85 11.35 11.6 11.8 11.4 11.95 11.35 12.45 11.15 12.3 11.0 12.3 10.85 12.6 11.1 12.85 11.0 13.05 11.4 13.1 11.5 13.15 11.6 13.25 11.7 13.4 11.8 13.35 11.55 13.25 11.1 13.6 11.25 13.4 10.9 13.45 10.9 14.05 11.45 14.0 11.15 14.1 11.15 14.45 11.5 14.45 11.35 14.7 11.65 14.7 11.6 15.0 11.6 15.0 11.65 15.05 11.6 15.05 11.15 15.15 11.25 15.25 11.6 15.55 11.55 15.6 11.55 15.85 11.55 15.9 11.45 15.9 11.55 16.35 11.55 16.35 11.25 16.45 11.3 16.5 11.1 16.8 11.5 16.85 11.5 17.15 11.15 17.0 11.6 17.3 11.7 17.4 11.75 17.5 10.8 17.5 10.9 17.65 11.2 17.75 11.7 17.75 11.8 18.25 11.95 18.35 12.05 18.8 12.5 18.9 12.3 18.5 12.05 18.45 12.05 18.45 12.0 18.5 12.05 18.8 11.75 19.05 11.4 18.85 11.4 18.45 11.15 M10.55 11.8 L10.7 12.3 10.8 12.3 10.8 12.2 10.7 11.95 10.65 11.85 10.5 11.65 10.55 11.8 M10.7 11.95 L10.65 11.7 10.8 11.95 10.8 12.1 10.85 12.2 10.95 12.1 10.95 12.15 10.9 12.2 10.85 12.2 10.8 12.2 10.8 12.1 10.7 11.95 M11.15 11.8 L11.05 11.8 11.0 12.05 11.1 11.9 11.15 11.8 M12.45 11.15 L12.6 11.1 12.8 11.25 13.1 11.55 13.1 11.5 M11.45 11.95 L11.45 11.75 11.4 11.85 11.45 11.95 M11.95 11.35 L12.05 11.9 12.05 11.95 12.15 12.45 12.25 12.15 12.3 12.15 12.3 12.6 12.35 12.6 12.55 12.55 12.55 12.45 12.6 12.2 12.55 11.85 12.3 11.6 12.2 11.65 12.05 11.85 12.05 11.65 12.15 11.6 12.2 11.65 M13.25 11.7 L13.25 11.8 13.1 11.65 13.1 12.2 13.5 12.0 13.8 11.7 13.6 11.25 14.05 11.45 14.35 11.55 14.5 11.7 14.45 11.5 14.7 11.85 14.7 11.7 14.65 11.7 14.7 11.65 15.0 11.65 15.05 11.7 15.05 11.6 15.25 11.6 15.25 11.7 15.55 11.7 15.55 11.6 15.55 11.55 M13.1 11.55 L13.15 11.6 M12.45 11.15 L12.85 11.45 13.1 11.65 13.1 11.55 M17.75 11.8 L17.75 11.9 18.15 12.25 17.7 12.25 17.65 12.65 17.55 12.65 17.55 12.2 17.5 12.15 17.5 12.2 17.4 12.2 17.3 13.2 17.2 13.3 16.95 13.0 16.75 12.85 16.7 12.95 16.4 13.4 16.4 13.3 16.55 12.95 16.5 12.95 16.5 12.8 16.25 13.1 16.3 12.7 16.15 12.55 16.05 12.65 15.9 12.95 15.65 13.35 15.2 13.75 14.75 13.3 14.65 13.3 13.85 12.05 13.85 11.75 13.8 11.7 M13.85 11.75 L13.85 11.5 14.0 11.5 14.1 11.6 14.1 11.5 14.05 11.45 M14.1 12.05 L14.6 12.7 14.35 12.15 14.2 12.15 14.1 12.05 M14.1 11.5 L14.35 11.75 14.4 11.85 14.45 11.9 14.45 11.95 14.6 12.05 14.5 11.7 14.7 11.85 14.7 11.9 14.85 12.0 14.7 11.7 14.7 11.65 M14.4 11.85 L14.1 11.6 14.35 12.15 14.6 12.2 14.6 12.1 14.45 11.95 M14.7 11.9 L14.7 11.95 14.85 12.2 14.85 12.0 14.95 12.25 15.05 12.25 15.05 11.95 15.05 11.7 14.7 11.7 M14.6 12.2 L14.65 12.2 14.6 12.1 14.6 12.05 14.7 12.2 14.75 12.2 14.7 12.15 14.7 11.95 M14.75 12.2 L14.85 12.2 14.95 12.25 15.1 12.5 15.05 12.25 15.25 12.3 15.25 12.05 15.25 12.0 15.05 11.7 15.25 11.7 15.25 12.0 15.45 12.25 15.5 12.35 15.5 12.3 15.5 11.85 15.55 11.9 15.55 11.8 15.55 11.7 15.6 11.7 15.55 11.6 M14.65 12.2 L14.75 12.35 14.8 12.45 14.75 12.3 14.7 12.2 14.65 12.2 M16.45 11.45 L16.5 11.35 16.45 11.3 16.45 11.45 16.35 11.65 16.35 11.7 16.7 11.7 16.85 11.55 16.85 11.5 17.0 11.6 17.0 11.65 17.0 11.7 17.4 11.75 17.45 11.75 17.55 11.75 17.55 11.6 17.55 11.4 17.65 11.25 17.65 11.2 M15.75 12.15 L15.75 12.2 15.95 12.35 16.25 11.7 15.85 11.7 15.85 11.8 15.75 12.1 15.75 12.15 15.7 12.3 15.7 12.4 15.8 12.4 15.8 12.3 15.75 12.2 M15.75 12.1 L15.7 12.05 15.6 12.3 15.6 12.35 15.65 12.4 15.7 12.15 15.75 12.15 M15.7 12.05 L15.6 11.95 15.6 12.25 15.6 12.3 M15.6 11.95 L15.55 11.9 15.5 12.3 15.6 12.25 M15.6 11.95 L15.6 11.7 15.85 11.7 15.85 11.55 15.9 11.55 15.85 11.7 M16.45 11.45 L16.25 11.7 16.35 11.7 16.15 12.25 16.1 12.35 16.05 12.4 16.1 12.5 16.5 12.0 16.7 11.7 16.95 11.7 17.0 11.65 16.85 11.55 M16.35 11.7 L16.2 12.1 16.1 12.35 M15.85 11.8 L15.7 12.05 M16.95 11.7 L16.75 12.25 16.65 12.55 17.05 12.05 16.85 12.5 16.9 12.45 17.1 12.2 17.15 12.2 17.15 12.15 17.2 11.9 17.15 11.85 17.0 11.7 16.95 11.7 M17.45 11.75 L17.55 11.8 17.55 11.75 M17.2 11.8 L17.2 11.9 17.35 12.05 17.35 12.0 17.3 11.8 17.2 11.8 M17.5 12.15 L17.4 12.05 17.4 12.15 17.4 12.2 M17.4 12.05 L17.35 12.05 17.4 12.15 M16.95 13.0 L17.15 12.5 17.15 12.85 17.2 12.75 17.2 12.15 17.15 12.15 M17.4 11.75 L17.4 12.0 17.4 12.05 M17.55 12.2 L17.55 11.8 17.5 12.15 M17.55 11.6 L17.65 11.25 M16.5 11.35 L16.8 11.5 M19.05 11.4 L19.1 11.4 19.1 11.35 19.05 11.4 M19.1 11.4 L19.3 11.4 19.45 11.65 19.55 11.5 19.55 11.6 19.45 11.7 19.55 12.25 19.3 12.95 18.9 12.3 19.1 12.0 19.1 11.4 M19.45 11.65 L19.45 11.7 19.35 11.9 19.1 12.2 19.1 12.0 19.15 11.95 19.45 11.65 M17.75 11.9 L17.7 12.2 17.7 12.25 17.55 12.2 M17.55 11.8 L17.75 11.8 M17.75 11.9 L17.55 11.8 M8.5 11.85 L8.8 12.4 8.7 12.0 8.5 11.85 8.4 11.7 7.95 11.1 7.95 10.85 8.6 11.05 9.2 11.1 9.05 11.55 9.6 11.1 9.9 11.1 10.25 10.8 M9.85 11.5 L9.65 11.25 9.2 11.9 8.95 12.4 9.05 12.4 9.7 11.7 9.85 11.5 M8.0 16.75 L8.0 17.05 8.1 16.95 8.1 16.75 8.0 16.75 M7.7 17.1 L7.65 17.1 7.65 16.9 7.85 16.9 7.85 17.1 7.7 17.1 7.85 17.15 7.95 16.95 7.95 17.1 8.0 17.05 8.0 17.2 8.1 16.95 M7.95 17.1 L7.95 17.15 7.95 17.2 8.0 17.2 8.0 17.35 7.95 17.2 M7.85 17.25 L7.95 17.15 7.85 17.15 7.85 17.25 M5.7 22.35 L5.5 22.1 5.35 22.25 5.2 21.7 5.15 21.15 5.2 20.4 Q5.25 20.1 5.4 19.95 L5.45 19.95 5.7 19.8 5.75 20.2 5.8 20.3 5.8 19.95 5.85 19.95 5.95 19.95 5.95 20.0 6.05 20.15 6.05 20.4 6.25 20.85 6.2 21.05 6.15 21.1 6.05 21.1 6.05 21.45 6.05 21.9 6.0 21.65 5.85 21.8 5.5 22.1 5.5 22.05 5.35 21.75 5.85 21.75 5.85 21.45 5.8 21.35 5.7 20.95 5.7 20.9 5.6 20.65 5.4 19.95 M5.45 19.95 L5.5 19.95 5.6 20.15 5.8 20.45 5.8 20.35 5.8 20.3 M5.95 20.3 L5.95 20.45 5.95 20.55 5.95 20.6 6.05 20.65 6.05 20.4 5.95 20.2 5.95 20.3 M5.95 20.2 L5.9 20.1 5.95 20.45 M5.9 20.1 L5.85 19.95 5.85 20.05 5.9 20.1 M5.8 20.35 L5.85 20.1 5.85 20.05 M5.95 20.55 L5.85 20.45 5.85 20.6 5.95 20.75 5.95 20.6 6.05 21.1 5.95 20.8 5.9 21.1 6.05 21.1 M5.8 20.45 L5.8 20.5 5.85 20.6 5.85 20.95 5.85 21.1 5.95 20.75 5.95 20.8 M5.8 20.5 L5.8 20.7 5.85 20.95 M5.85 20.45 L5.8 20.35 M5.85 20.45 L5.85 20.1 M5.7 20.9 L5.7 20.8 5.7 20.75 5.65 20.7 5.6 20.5 5.6 20.4 5.65 20.7 M5.7 20.95 L5.75 21.0 5.7 20.8 M5.75 21.0 L5.75 21.05 5.8 21.15 5.8 21.1 5.7 20.75 5.6 20.15 M5.8 20.7 L5.8 21.1 5.85 21.2 5.85 21.3 5.9 21.1 5.85 21.1 M5.8 21.15 L5.8 21.3 5.85 21.3 5.8 21.15 M5.8 21.3 L5.8 21.35 M5.85 21.45 L5.85 21.3 6.0 21.65 6.05 21.45 M5.75 21.05 L5.8 21.3 M16.65 12.55 L16.65 12.6 16.6 12.7 16.85 12.5 16.7 12.85 16.75 12.85 16.9 12.6 17.1 12.2 M16.55 12.95 L16.6 12.75 16.55 12.75 16.5 12.8 16.45 12.75 16.3 12.7 16.3 12.6 16.15 12.55 16.1 12.5 16.1 12.55 16.15 12.55 16.35 12.3 16.3 12.6 16.4 12.65 16.55 12.75 16.65 12.6 M16.55 12.95 L16.7 12.95 16.7 12.85 16.6 12.75 16.6 12.7 16.55 12.75 16.45 12.75 16.4 12.65 M15.9 12.95 L15.9 12.85 16.05 12.5 15.95 12.5 15.9 12.55 15.8 12.7 15.75 12.85 15.5 13.4 15.5 13.3 15.55 13.0 15.5 13.05 15.4 13.15 15.05 13.55 15.05 13.45 15.4 13.15 15.5 12.95 15.55 12.65 15.45 12.65 15.25 13.05 15.25 12.95 15.2 12.85 15.0 13.05 15.0 13.1 14.95 13.1 14.9 13.2 14.85 13.1 14.8 13.3 14.75 13.3 14.55 12.95 13.85 11.75 M16.05 12.5 L16.05 12.4 15.95 12.5 15.9 12.45 15.9 12.55 15.75 12.6 15.7 12.65 15.7 12.6 15.65 12.6 15.7 12.75 15.8 12.7 M16.05 12.4 L15.95 12.35 15.9 12.45 15.8 12.4 15.75 12.55 15.75 12.6 15.7 12.6 15.65 12.55 15.65 12.6 15.6 12.65 15.55 13.0 15.7 12.75 15.75 12.85 M16.05 12.5 L16.1 12.55 15.9 12.95 M15.6 12.35 L15.5 12.35 15.55 12.4 15.6 12.35 15.6 12.45 15.65 12.4 15.7 12.4 15.65 12.55 15.6 12.5 15.55 12.65 15.6 12.65 15.65 12.55 M15.5 12.35 L15.5 12.4 15.55 12.45 15.55 12.4 15.6 12.5 15.6 12.45 M15.55 12.45 L15.6 12.5 M15.25 12.3 L15.5 12.35 M15.45 12.65 L15.25 12.7 15.2 12.85 15.1 12.65 15.1 12.55 15.1 12.5 M15.55 12.45 L15.45 12.65 M15.25 12.3 L15.25 12.7 15.1 12.65 M18.15 17.35 L18.1 17.65 18.05 18.0 18.0 18.0 17.9 17.25 18.15 17.35 18.15 17.25 18.15 17.2 18.2 17.35 18.4 17.35 18.4 17.9 18.35 17.9 18.2 17.35 18.15 17.35 M14.85 12.2 L14.9 12.45 14.9 12.5 15.0 12.65 15.0 13.05 14.95 13.05 14.95 13.1 14.9 13.1 14.85 13.1 14.85 13.05 14.6 12.7 14.8 13.1 14.85 13.1 M14.8 12.45 L14.9 12.65 14.9 12.5 M14.8 12.45 L14.9 12.85 14.9 12.65 14.95 13.05 14.9 13.1 14.9 12.85 14.85 13.05 14.65 12.35 14.6 12.2 M14.75 12.2 L14.75 12.3 14.9 12.45 M12.15 12.45 L12.15 12.5 12.2 12.55 12.3 12.6 12.4 12.65 12.5 12.65 12.55 12.55 13.1 11.65 M12.05 11.95 L11.9 12.65 12.1 12.55 12.15 12.45 M10.45 13.8 Q10.85 13.8 11.25 14.05 L11.7 14.45 11.85 14.75 11.6 14.8 11.25 14.9 11.0 14.85 10.8 14.9 10.45 14.65 10.2 14.05 10.35 14.05 10.35 14.1 10.4 14.0 10.45 13.85 10.45 13.8 M10.35 14.1 L10.45 14.1 10.45 13.85 M10.35 14.1 L10.35 14.2 10.4 14.15 10.35 14.1 M10.35 14.2 L10.35 14.25 10.45 14.35 10.45 14.25 10.4 14.15 10.45 14.1 10.45 14.2 10.45 14.25 10.75 14.65 11.0 14.85 11.35 14.65 11.7 14.45 M11.2 18.25 L11.4 18.65 11.75 17.95 11.85 17.65 11.85 17.55 11.85 17.45 12.35 17.95 12.45 17.95 12.55 17.95 12.65 17.8 12.7 17.8 12.75 18.0 13.1 17.7 13.1 18.8 13.0 18.95 12.9 18.95 12.85 18.7 12.8 18.55 12.7 18.55 12.55 19.2 12.35 19.95 12.3 19.9 12.2 19.85 12.05 19.6 11.75 19.4 11.35 19.5 11.05 19.6 11.05 19.5 11.35 18.75 11.2 18.35 11.2 18.25 M12.0 18.0 L12.2 18.0 12.2 17.7 12.1 17.65 12.0 17.9 12.0 18.0 12.15 18.25 12.2 18.0 12.25 18.0 12.3 17.95 12.3 17.9 12.35 17.95 12.4 18.0 12.45 18.1 12.45 17.95 M12.0 18.0 L11.95 18.0 11.9 18.1 11.85 18.2 11.95 18.25 12.0 19.0 12.0 18.55 12.15 18.25 12.2 18.35 12.25 18.3 12.2 18.0 M11.85 17.65 L11.85 17.8 11.9 17.7 11.85 17.55 M11.75 17.95 L11.7 18.5 11.8 18.35 11.8 18.3 11.85 18.15 11.9 18.0 11.85 18.0 11.85 17.8 11.75 17.95 M11.95 17.9 L12.0 17.65 12.0 17.55 11.9 17.7 11.95 17.9 12.0 17.9 11.95 18.0 11.9 18.0 11.95 17.9 M11.8 18.3 L11.85 18.2 11.85 18.15 M12.25 18.3 L12.45 18.2 12.4 18.0 12.35 18.0 12.35 17.95 12.3 17.95 M12.55 17.95 L12.65 17.9 12.7 18.1 12.75 18.0 12.8 18.15 12.8 18.5 12.8 18.55 M12.25 18.3 L12.25 18.4 12.3 18.35 12.5 18.5 12.55 18.45 12.45 18.2 12.5 18.1 12.55 17.95 M12.55 18.45 L12.55 18.4 12.7 18.1 12.8 18.5 M14.85 20.65 L14.85 20.4 14.75 20.65 14.85 20.65 14.85 20.7 14.9 20.6 14.9 20.4 14.85 20.4 M14.9 20.35 L14.85 20.25 14.9 20.4 14.9 20.35 M14.9 20.6 L14.95 20.5 14.9 20.4 M14.95 20.55 L15.05 20.55 15.15 21.0 15.2 21.1 15.25 20.65 15.3 20.15 15.4 20.1 15.4 19.95 15.45 20.1 15.5 20.1 15.65 20.05 Q15.45 19.8 15.1 19.8 L15.0 20.3 14.95 20.5 14.95 20.55 15.1 21.0 15.2 21.3 15.2 21.1 15.25 21.3 15.35 21.1 15.4 20.1 15.45 20.1 15.5 20.15 15.5 20.2 15.55 20.4 15.55 21.35 15.5 21.45 15.4 21.55 15.4 20.95 15.35 21.1 15.3 21.45 15.45 21.7 15.65 21.25 15.75 21.0 15.75 20.15 15.65 20.05 15.75 20.05 15.75 20.15 15.85 20.55 15.75 21.0 15.75 21.2 15.5 21.75 15.45 21.7 15.4 21.8 15.3 21.8 15.2 21.35 15.1 21.45 15.05 21.45 14.95 20.9 14.9 21.1 14.85 21.2 14.75 21.5 14.75 21.35 14.75 21.2 14.75 20.95 14.75 20.65 M14.95 20.55 L14.95 20.6 14.95 20.85 14.95 20.9 14.9 20.8 14.9 20.7 14.85 20.85 14.9 21.1 M14.95 20.6 L14.9 20.7 14.9 20.6 M14.75 21.35 L14.85 20.85 14.85 20.7 14.8 20.95 14.75 21.2 M14.75 20.95 L14.85 20.7 M12.55 18.65 L12.5 18.55 12.5 18.5 12.35 18.85 12.35 19.05 12.45 19.05 12.55 18.8 12.55 18.75 12.55 18.65 12.55 18.55 12.55 18.45 M12.35 18.85 L12.0 19.5 12.2 19.5 12.45 19.1 12.55 18.8 M12.35 18.85 L12.3 18.45 12.25 18.4 12.1 18.8 12.0 19.0 12.0 19.05 12.0 19.5 11.6 19.05 11.55 19.15 11.5 19.05 11.5 18.95 11.35 18.75 11.4 18.65 11.5 18.95 11.55 19.0 11.6 19.05 11.7 18.55 11.65 18.6 11.7 18.5 11.7 18.55 M12.0 19.05 L11.95 19.25 11.9 18.65 11.85 18.2 M10.95 23.0 L11.05 23.05 10.95 22.8 10.95 23.0 10.95 23.05 11.05 23.05 M15.5 20.2 L15.45 20.75 15.4 20.95 15.5 20.15 M15.25 21.35 L15.3 21.45 15.25 21.3 15.25 21.35 15.2 21.3 15.2 21.35 15.25 21.35 M17.7 22.55 L17.8 22.25 17.8 22.2 17.7 22.35 17.7 22.55 17.7 23.1 17.75 23.25 17.8 23.95 17.7 23.95 17.7 23.5 17.5 23.3 17.35 24.15 17.3 24.3 17.35 24.4 17.3 24.45 17.25 24.55 17.3 24.3 M17.5 22.8 L17.5 22.75 17.45 22.75 17.35 22.95 17.4 23.1 17.45 22.95 17.5 23.05 17.5 22.85 17.5 22.8 17.6 22.7 17.5 22.75 M17.6 22.7 L17.7 22.55 M17.35 24.15 L17.45 23.25 17.4 23.1 17.2 23.5 17.0 23.95 17.0 23.5 17.15 22.75 17.25 22.1 17.75 22.1 17.7 21.8 17.8 21.8 17.8 22.0 18.0 22.4 18.15 23.0 18.1 23.4 18.0 23.8 18.0 23.9 17.8 22.85 17.8 22.4 17.8 22.35 17.8 22.25 M17.5 23.3 L17.45 23.25 17.5 23.05 17.5 23.15 17.6 23.25 17.7 23.5 17.7 23.1 17.6 22.7 M17.5 23.15 L17.5 23.3 M17.8 22.0 L17.8 22.1 17.8 22.2 17.75 22.1 17.8 22.1 M12.7 27.3 L13.0 27.45 13.35 27.7 13.35 27.9 13.25 27.9 13.25 27.95 12.9 28.0 12.45 28.05 12.05 28.0 11.65 27.95 11.65 27.9 11.9 27.85 11.5 27.8 11.85 27.6 11.6 27.6 11.85 27.55 11.55 27.5 11.95 27.25 Q12.15 27.1 12.3 27.05 L13.0 27.05 12.6 27.25 12.65 27.3 13.0 27.15 13.15 27.15 12.8 27.25 12.7 27.3 12.45 27.4 12.4 27.4 12.2 27.45 11.85 27.6 12.8 27.5 12.9 27.5 12.65 27.6 12.85 27.85 12.85 27.9 13.25 27.9 M12.55 27.25 L12.25 27.3 12.0 27.4 12.25 27.4 12.3 27.4 12.6 27.25 12.55 27.25 M12.45 27.4 L12.65 27.3 12.7 27.3 M12.4 27.4 L12.3 27.4 M12.25 27.4 L11.85 27.55 M11.9 27.85 L12.4 27.7 12.65 27.6 M12.85 27.9 L13.05 27.95 13.25 27.95 M11.9 27.85 L12.85 27.9" fill="none" stroke="#000000" stroke-linecap="round" stroke-linejoin="round" stroke-width="0.05"/>
  </g>
</svg>
