<?xml version="1.0" encoding="UTF-8" standalone="no"?>
<svg xmlns:xlink="http://www.w3.org/1999/xlink" height="1.4px" width="5.6px" xmlns="http://www.w3.org/2000/svg">
  <g transform="matrix(1.0, 0.0, 0.0, 1.0, -11.05, -22.65)">
    <path d="M16.45 23.15 L16.1 22.9 16.1 23.55 15.95 23.5 15.85 23.4 15.75 23.2 Q15.6 23.05 15.35 23.05 14.85 23.05 14.7 22.85 L14.3 22.65 13.55 22.9 13.2 23.0 13.2 23.15 13.15 23.2 13.05 23.3 12.7 23.15 12.45 23.15 12.45 23.3 12.5 23.3 12.55 23.4 12.7 23.4 12.9 23.4 12.95 23.4 13.05 23.45 Q13.25 23.5 13.5 23.7 L14.0 24.0 14.1 23.9 14.2 23.65 14.95 23.65 14.55 23.9 14.25 24.05 14.0 24.0 13.9 24.05 13.2 23.85 12.95 23.75 12.95 23.9 12.85 24.0 12.55 24.05 12.25 23.95 12.1 24.0 11.55 24.05 11.55 23.9 11.45 23.9 11.45 23.8 11.6 23.75 11.1 23.8 11.05 23.8 11.05 23.65 11.25 23.6 11.1 23.8 M12.5 23.4 L12.55 23.55 12.55 23.4 12.5 23.4 12.45 23.3 12.0 23.45 12.05 23.45 12.2 23.45 12.5 23.4 M12.3 23.55 L12.05 23.55 12.05 23.7 12.2 23.65 12.3 23.65 12.3 23.55 12.2 23.45 M12.05 23.8 L12.05 23.7 12.0 23.7 11.9 23.7 12.2 23.9 12.3 23.8 12.05 23.8 M12.3 23.8 L12.45 23.8 12.5 23.8 12.55 23.7 12.4 23.65 12.3 23.65 12.3 23.7 12.3 23.8 M12.05 23.7 L12.3 23.65 M12.55 23.65 L12.6 23.65 12.7 23.6 12.55 23.6 12.55 23.65 12.55 23.7 12.95 23.75 12.95 23.65 12.85 23.6 12.85 23.55 12.7 23.6 12.7 23.55 12.55 23.55 12.55 23.6 12.4 23.65 M12.3 23.55 L12.55 23.55 M11.6 23.75 L11.6 23.65 11.9 23.7 11.6 23.75 11.55 23.9 12.2 23.9 12.3 23.9 12.45 23.8 12.45 23.9 12.3 23.9 12.25 23.95 12.2 23.9 M12.85 23.55 L12.75 23.55 12.7 23.55 12.7 23.4 M12.95 23.4 L12.95 23.55 12.85 23.55 M12.9 23.4 L12.75 23.55 M13.2 23.0 L12.7 23.15 M16.55 23.55 L16.45 23.55 16.65 23.6 16.55 23.55" fill="none" stroke="#000000" stroke-linecap="round" stroke-linejoin="round" stroke-width="0.05"/>
  </g>
</svg>
