<?xml version="1.0" encoding="UTF-8" standalone="no"?>
<svg xmlns:xlink="http://www.w3.org/1999/xlink" height="14.8px" width="40.35px" xmlns="http://www.w3.org/2000/svg">
  <g transform="matrix(1.0, 0.0, 0.0, 1.0, 2.65, -8.85)">
    <path d="M25.2 13.05 L25.45 13.1 25.7 13.15 25.75 12.9 M27.2 18.35 L27.25 18.65 27.3 18.85 27.3 18.9 27.45 18.55 27.3 18.55 27.25 18.55 27.3 18.45 27.3 18.4 27.2 18.3 27.2 18.35 27.2 18.8 27.25 18.8 27.3 18.85 M27.7 18.4 L27.75 18.35 27.7 18.25 27.7 18.4 27.7 18.45 27.8 18.55 27.75 18.4 27.75 18.35 27.8 18.3 27.95 18.65 28.2 18.6 28.35 18.45 28.3 18.15 28.4 18.4 28.45 18.2 28.45 18.6 28.45 18.8 28.45 18.9 28.45 19.05 28.35 19.0 28.3 19.15 27.7 18.65 27.7 18.9 27.6 18.9 27.45 19.05 27.45 18.9 27.3 18.9 M27.55 18.25 L27.45 18.55 27.6 18.55 27.6 18.3 27.55 18.25 27.45 18.15 27.45 18.55 27.45 18.9 27.5 18.9 27.6 18.8 27.6 18.55 27.7 18.45 27.6 18.3 27.6 18.05 27.55 18.25 M21.35 20.65 L21.45 21.15 21.5 21.5 21.6 21.45 21.6 21.3 21.7 21.3 21.7 21.25 21.8 20.3 21.95 20.3 21.95 21.05 21.7 21.3 21.95 21.3 22.05 21.3 22.05 21.8 22.2 21.9 22.05 21.9 22.05 22.05 21.9 21.9 21.75 21.9 21.8 22.0 21.7 21.9 21.6 21.9 21.35 21.75 21.15 21.6 20.95 21.65 20.95 20.8 21.0 20.8 20.95 20.65 21.0 20.75 21.05 20.65 21.35 20.65 M21.0 20.8 L21.0 20.75 21.3 21.2 21.45 21.4 21.5 21.5 21.65 21.65 21.75 21.65 21.75 21.55 21.6 21.55 21.6 21.45 21.65 21.4 21.7 21.3 21.75 21.55 21.8 21.6 21.95 21.3 M21.45 21.5 L21.7 21.9 21.75 21.9 21.75 21.75 21.65 21.65 21.6 21.65 21.5 21.5 21.45 21.5 21.35 21.3 21.3 21.2 21.0 20.8 M21.9 21.7 L21.8 21.6 21.75 21.65 21.75 21.75 21.9 21.9 22.05 21.9 22.05 21.8 21.9 21.7 M21.15 21.6 L21.2 21.6 21.05 21.55 21.15 21.6 M21.2 21.6 L21.45 21.5 M27.95 18.65 L28.0 18.7 28.35 18.9 28.4 18.65 28.4 18.55 28.35 18.45 28.4 18.4 28.45 18.6 28.4 18.65 28.45 18.8 M27.95 18.65 L27.9 18.65 28.0 18.7 28.05 18.8 28.35 19.0 28.35 18.9 28.45 18.9 M27.65 18.75 L27.7 18.65 27.7 18.45 27.65 18.7 27.65 18.75 27.6 18.9 27.6 18.8 27.65 18.75 M27.8 18.65 L27.9 18.65 27.8 18.55 27.8 18.65 M27.3 18.55 L27.3 18.45 M27.6 18.9 L27.5 18.9 27.45 19.05 M2.6 19.1 L2.7 18.8 2.7 18.65 2.45 18.15 2.9 18.05 3.3 17.9 3.45 18.05 3.55 18.45 3.65 18.35 3.85 18.3 4.1 18.15 4.05 18.4 4.1 18.45 4.7 18.65 4.75 18.3 4.8 17.8 5.25 17.55 5.25 17.5 5.2 17.3 5.3 17.3 5.25 17.5 M3.55 18.45 L3.2 18.9 3.45 19.3 3.85 18.8 4.05 18.4 3.85 18.3 M3.2 18.8 L3.05 18.6 3.2 18.85 3.2 18.8 M3.2 18.85 L3.2 18.9 3.2 19.05 3.2 19.55 2.8 18.9 2.75 18.75 2.7 18.65 2.7 18.4 2.75 18.75 2.8 18.8 3.2 19.05 M3.05 18.6 L2.95 18.4 2.95 18.55 3.05 18.6 M15.45 18.4 L15.45 17.8 15.85 18.1 16.2 18.3 16.35 18.3 16.3 18.2 16.25 18.1 15.95 17.9 16.35 17.9 16.3 18.2" fill="none" stroke="#000000" stroke-linecap="round" stroke-linejoin="round" stroke-opacity="0.29803923" stroke-width="0.05"/>
    <path d="M30.3 21.4 Q31.25 21.4 32.1 21.9 L32.1 21.95 32.2 21.55 Q32.85 21.6 33.25 22.25 L33.3 22.1 33.3 22.05 33.3 21.4 33.5 21.6 33.6 21.9 33.35 22.3 33.3 22.35 33.3 22.4 32.55 23.1 31.0 23.55 Q30.5 23.55 30.0 23.05 L29.75 22.8 29.7 22.8 29.7 22.95 29.6 23.0 29.45 23.05 29.15 22.8 29.05 22.65 28.9 22.65 28.6 22.65 28.45 22.55 28.05 23.15 28.0 22.75 27.95 22.3 28.0 21.9 28.05 21.65 28.7 21.65 28.8 21.8 Q29.0 21.55 29.4 21.5 L30.1 21.4 30.15 21.4 30.3 21.4 M29.5 22.2 L29.45 22.3 29.55 22.2 29.5 22.2 M29.55 22.15 L29.55 22.2 29.55 22.5 29.7 22.7 29.7 22.4 29.6 22.15 29.55 22.15 29.55 22.1 29.6 22.15 29.7 22.15 29.7 22.4 M29.45 22.3 L29.4 22.35 29.35 22.75 29.5 22.8 29.55 22.8 29.55 22.5 29.45 22.3 M29.25 22.5 L29.05 22.2 28.8 21.8 28.7 21.9 28.5 22.45 28.9 22.55 29.05 22.65 29.2 22.55 29.25 22.5 29.4 22.35 29.5 22.05 Q29.75 21.45 30.1 21.4 M29.7 22.8 L29.55 22.8 29.6 23.0 M29.75 22.8 L29.7 22.7 29.7 22.8 M29.25 22.5 L29.35 22.75 29.05 22.65 28.95 22.6 28.9 22.55 M33.3 22.35 L33.2 22.4 33.15 22.45 32.95 22.8 32.7 22.55 32.65 22.55 32.0 22.25 31.4 22.8 30.95 22.5 30.45 21.9 30.1 22.75 29.75 22.8 M28.45 22.55 L28.3 22.4 28.5 22.45 28.45 22.55 M33.25 18.95 L33.95 18.8 33.85 18.9 33.25 18.95 33.0 18.95 32.7 18.9 32.7 19.0 32.85 19.1 33.1 19.25 M32.7 19.0 L32.6 18.85 32.6 18.9 32.7 19.05 32.7 19.0 M32.7 18.9 L32.7 18.85 32.65 18.85 32.6 18.8 32.55 18.8 32.6 18.85 M32.6 18.8 L32.45 18.7 32.55 18.8 M30.15 21.4 L31.4 21.95 32.0 22.25 32.1 21.95 32.45 22.25 32.7 22.55 33.1 22.4 33.2 22.4 33.25 22.25 33.3 22.35 33.3 22.3 33.3 22.1 M33.3 22.05 L33.45 22.05 33.35 22.3 33.3 22.3 M37.7 22.05 L36.95 21.8 M0.4 12.2 L0.45 12.3 0.5 12.3 0.25 11.95 0.4 12.2 M2.2 13.3 L1.5 12.75 1.1 12.5 Q1.25 13.4 1.8 13.4 L2.1 13.4 2.2 13.3 M0.5 12.3 L0.7 12.3 0.75 12.3 0.8 12.35 0.95 12.45 1.05 12.3 1.1 12.5 0.95 12.45 0.7 12.7 0.7 12.75 0.7 12.8 0.65 13.5 0.85 13.6 1.3 13.8 1.35 13.85 1.45 13.9 1.15 14.05 0.7 14.05 0.65 14.05 0.6 14.4 -0.35 14.0 -0.85 13.75 -1.55 13.4 -1.55 13.3 -0.85 13.75 -0.65 13.8 0.65 14.05 0.65 13.5 0.35 13.4 0.2 13.45 -0.1 13.65 -0.3 13.8 -0.25 13.65 -0.4 13.65 -0.3 13.1 -0.35 13.05 -0.55 13.8 -0.65 13.65 -0.65 12.05 -0.55 12.05 -0.4 12.25 -0.4 12.15 -0.25 11.95 M0.7 12.7 L0.7 12.4 0.65 12.6 0.7 12.75 0.5 12.85 0.5 12.9 -0.05 13.15 -0.2 13.15 -0.2 13.2 -0.25 13.65 -0.05 13.55 0.2 13.45 M0.7 12.3 L0.7 12.4 M0.8 12.35 L0.75 12.45 0.7 12.7 M0.45 12.3 L0.3 12.3 0.45 12.65 0.6 12.65 0.45 12.3 M0.5 12.85 L0.4 12.9 Q0.05 12.9 -0.15 12.7 L-0.15 12.75 -0.2 13.15 -0.3 13.1 -0.2 12.8 -0.15 12.75 M-0.4 12.25 L-0.15 12.65 -0.15 12.7 0.3 12.3 0.3 12.25 0.25 11.95 M0.5 12.85 L0.65 12.6 0.5 12.3 M1.6 22.65 L1.7 22.65 2.2 23.05 2.2 22.9 2.05 22.65 1.8 22.4 1.95 22.4 2.0 22.5 2.3 22.7 2.45 22.9 2.45 22.95 2.6 23.0 2.95 23.3 2.85 23.35 2.8 23.4 2.3 23.3 1.95 22.9 1.95 23.4 1.35 23.2 1.35 23.15 0.95 23.3 0.15 23.4 -0.25 23.25 -0.3 23.3 -0.6 23.05 -0.65 23.05 -0.8 23.05 -1.5 23.0 -1.75 23.25 Q-2.25 23.75 -2.55 23.65 L-2.65 22.4 -2.65 21.7 -2.3 21.3 Q-2.25 21.3 -1.7 21.65 L-1.9 21.15 Q-1.2 21.25 -0.8 21.65 -0.55 21.85 -0.45 22.15 L0.1 21.9 0.4 21.6 0.45 21.55 0.4 21.5 -0.85 21.3 Q-1.9 21.1 -2.4 20.65 L-2.4 20.4 -0.95 20.95 0.4 21.5 0.6 21.55 0.7 21.55 0.7 23.15 1.3 23.15 1.05 22.65 1.55 22.55 1.6 22.65 1.55 22.95 1.35 23.15 1.3 23.15 1.55 22.95 M2.45 22.95 L2.3 22.9 2.35 23.0 2.45 23.05 2.45 22.95 M2.0 22.5 L2.1 22.7 2.3 22.9 2.2 22.9 2.35 23.0 M0.4 21.6 L0.0 22.15 -0.4 22.65 -0.45 22.15 -0.5 22.15 -1.55 21.75 -1.7 21.65 -1.15 22.3 -0.6 22.8 0.4 23.15 0.45 23.15 0.55 23.15 Q0.4 22.25 0.6 21.55 L0.45 21.55 M0.7 23.15 L0.6 23.3 0.55 23.15 0.7 23.15 M-0.6 23.05 L-0.3 23.2 -0.25 23.25 -0.15 23.15 0.2 23.15 0.4 23.15 M1.6 22.65 L1.05 22.65 M-1.05 9.05 L-0.75 8.85 -0.65 9.1 M-0.4 12.25 L-0.4 13.05 -0.35 13.05 -0.3 12.65 -0.15 12.65 M-0.6 22.8 L-1.0 22.6 -2.4 21.9 -2.55 21.9 -1.6 22.95 -1.5 23.0 -1.2 22.8 Q-0.9 22.8 -0.65 23.05" fill="none" stroke="#000000" stroke-linecap="round" stroke-linejoin="round" stroke-opacity="0.08627451" stroke-width="0.05"/>
  </g>
</svg>
