<?xml version="1.0" encoding="UTF-8" standalone="no"?>
<svg xmlns:xlink="http://www.w3.org/1999/xlink" height="4.75px" width="20.8px" xmlns="http://www.w3.org/2000/svg">
  <g transform="matrix(1.0, 0.0, 0.0, 1.0, -5.15, -20.55)">
    <path d="M21.8 22.8 L21.65 22.9 21.7 23.15 21.7 23.05 21.8 22.8 21.8 22.65 22.45 22.65 23.15 22.95 23.25 22.9 23.1 22.8 22.15 22.4 Q21.75 22.4 21.7 22.8 L21.65 22.9 21.6 23.0 21.45 23.3 21.45 23.55 21.7 23.15 21.7 23.8 21.8 23.35 21.8 22.8 21.9 22.8 22.05 22.8 22.3 22.8 22.55 22.8 22.85 23.0 23.15 22.95 23.2 22.95 23.35 22.95 23.25 22.9 23.6 22.9 23.7 22.9 23.85 22.9 24.6 22.85 25.55 22.65 25.6 23.4 25.95 24.05 25.75 24.55 25.45 24.65 25.3 24.2 25.05 23.9 24.45 24.5 23.7 24.8 23.2 24.75 23.05 24.5 23.1 25.05 22.55 24.35 22.3 23.95 22.05 23.8 22.05 23.65 22.3 23.95 22.9 24.2 23.05 24.25 24.1 24.3 M25.05 23.9 L24.45 23.8 24.05 23.85 23.7 24.05 23.1 24.05 23.1 23.55 23.05 23.5 22.8 23.4 22.55 23.5 22.45 23.65 22.45 23.45 22.3 23.9 22.3 22.9 22.2 22.85 22.05 22.8 M22.3 22.8 L22.3 22.9 M22.45 23.45 L22.5 23.3 22.65 23.15 22.85 23.0 22.95 23.05 23.35 23.3 23.6 23.2 23.35 22.95 23.7 23.05 23.7 22.95 23.7 22.9 M23.8 23.05 L23.75 23.0 23.75 23.05 23.8 23.05 M23.7 22.95 L23.75 23.0 23.85 22.9 M23.7 23.05 L23.75 23.05 M23.6 23.2 L23.7 23.3 23.7 23.05 23.65 23.15 23.6 23.2 M22.9 24.2 L23.0 24.4 23.05 24.5 M25.05 23.9 L25.7 24.05 25.95 24.05 M7.35 23.9 L6.75 24.45 6.3 24.55 6.0 24.5 5.85 24.3 5.75 24.55 5.6 24.65 5.2 24.35 5.15 24.3 5.7 23.8 6.05 23.55 6.05 23.8 6.25 23.7 6.55 23.55 M19.1 23.75 L18.8 24.05 18.75 24.0 18.2 24.05 18.0 24.5 17.7 24.55 Q17.45 24.55 17.2 24.35 L16.95 24.2 16.95 24.55 16.2 24.8 16.1 25.05 Q15.8 25.05 15.65 24.85 L15.6 24.85 14.9 24.9 14.5 25.05 14.1 24.9 14.05 24.9 13.85 24.9 13.7 24.9 13.35 24.9 13.15 24.9 12.75 25.1 12.15 25.3 11.1 24.85 10.85 24.65 10.8 24.65 10.4 24.15 9.55 23.65 9.55 23.5 9.55 23.35 9.45 23.3 9.45 23.15 9.55 23.3 9.55 23.05 9.7 23.05 9.7 23.2 9.8 23.05 9.95 23.15 9.95 23.55 10.15 23.35 10.05 23.1 9.95 23.05 9.95 22.9 10.05 23.1 10.25 23.25 10.5 23.05 Q10.8 22.8 11.25 22.8 L11.3 22.8 11.4 22.3 Q11.5 21.8 11.75 21.8 L12.7 22.05 13.45 22.3 13.55 21.85 13.05 21.8 12.8 21.55 12.7 21.1 Q12.7 20.55 13.2 20.55 13.5 20.55 13.7 20.8 L13.85 21.0 13.9 20.95 13.95 20.8 14.3 21.0 14.45 21.15 14.65 21.1 14.95 20.9 M10.4 24.15 L10.3 23.9 10.1 23.7 9.7 23.65 9.7 23.4 9.6 23.3 9.55 23.5 M9.7 23.2 L9.7 23.4 9.85 23.5 10.1 23.7 10.35 23.85 10.55 23.55 10.3 23.5 10.15 23.35 10.25 23.25 10.55 23.5 10.55 23.3 11.25 23.4 11.2 22.9 11.3 22.8 12.35 23.05 12.7 23.15 13.2 23.0 13.55 22.9 14.3 22.65 14.7 22.85 Q14.85 23.05 15.35 23.05 15.6 23.05 15.75 23.2 L15.85 23.4 15.95 23.5 16.1 23.55 16.1 22.9 16.45 23.15 M9.55 23.35 L9.55 23.3 9.6 23.3 9.65 23.25 9.7 23.2 M13.8 21.15 L13.95 21.15 13.85 21.0 13.8 21.15 13.75 21.7 13.7 22.15 13.8 22.15 Q13.8 21.95 13.95 21.7 L14.3 21.3 14.7 21.75 15.05 22.15 Q15.45 21.5 15.85 21.4 L16.1 22.05 16.2 22.45 16.25 22.4 Q16.35 22.3 16.55 22.15 16.55 22.65 16.7 22.9 L16.8 22.9 17.0 22.6 17.55 22.3 17.7 22.9 17.95 23.65 17.95 22.9 18.0 22.7 18.05 22.7 17.95 22.9 M10.55 23.5 L10.6 23.55 10.8 23.55 11.05 23.6 11.3 23.55 11.25 23.4 M10.35 23.85 L10.4 23.9 10.45 23.9 10.55 24.0 10.6 23.8 10.8 23.8 11.05 23.8 11.05 23.65 11.1 23.65 11.05 23.6 10.75 23.65 10.6 23.55 10.55 23.55 10.55 23.5 M11.3 23.55 L11.25 23.6 11.15 23.7 11.25 23.7 11.3 23.75 11.6 23.75 11.6 23.65 11.9 23.7 12.0 23.7 12.05 23.7 12.05 23.55 12.3 23.55 12.2 23.45 12.05 23.45 12.0 23.45 12.45 23.3 12.45 23.15 12.65 23.15 12.45 23.1 12.35 23.05 M11.05 23.8 L11.1 23.8 11.15 23.7 11.1 23.65 11.25 23.6 M11.1 23.8 L11.3 23.75 11.45 23.8 11.6 23.75 11.9 23.7 12.0 23.8 12.05 23.75 12.05 23.7 12.15 23.65 12.3 23.55 12.45 23.55 12.55 23.55 12.5 23.4 12.2 23.45 M10.7 23.9 L10.7 24.05 10.75 24.05 10.7 23.9 M10.75 24.15 L10.8 24.35 10.8 24.4 11.0 24.5 10.75 24.05 10.75 24.15 M10.8 24.35 L10.55 24.0 10.55 24.15 10.4 23.9 10.3 23.9 10.35 23.85 M10.4 24.15 L10.7 24.35 10.8 24.4 10.85 24.65 M10.8 24.4 L10.8 24.55 10.8 24.65 M12.55 23.55 L12.55 23.4 12.5 23.4 12.45 23.3 12.5 23.3 12.55 23.4 12.7 23.4 12.9 23.4 12.95 23.4 13.05 23.45 Q13.25 23.5 13.5 23.7 L13.6 23.8 14.1 23.9 14.2 23.65 14.95 23.65 14.55 23.9 15.8 23.85 15.85 23.85 15.95 23.8 16.2 23.85 17.3 23.8 17.65 23.7 17.95 23.65 13.7 23.4 13.05 23.3 13.05 23.25 12.95 23.25 12.65 23.15 12.7 23.15 12.95 23.25 M12.15 23.7 L12.3 23.65 12.2 23.65 12.15 23.65 12.15 23.7 12.1 23.7 12.05 23.75 12.05 23.8 12.3 23.8 12.3 23.7 12.3 23.65 12.3 23.55 M12.05 23.7 L12.1 23.7 M12.55 23.6 L12.7 23.6 12.55 23.55 12.55 23.6 12.55 23.65 12.6 23.65 12.7 23.6 12.7 23.55 12.55 23.55 M12.55 23.6 L12.4 23.65 12.55 23.7 12.55 23.65 M12.3 23.8 L12.45 23.8 12.5 23.8 12.55 23.7 12.95 23.75 12.95 23.65 12.85 23.6 12.7 23.6 12.85 23.55 12.75 23.55 12.7 23.55 12.7 23.4 M12.4 23.65 L12.3 23.65 M14.55 23.9 L14.25 24.05 14.0 24.0 13.9 24.05 13.2 23.85 12.95 23.75 12.95 23.9 12.85 24.0 12.55 24.05 12.25 23.95 12.1 24.0 11.6 24.05 11.65 24.05 12.05 24.4 12.55 24.45 12.95 24.55 12.95 24.05 13.25 24.55 13.3 24.55 13.75 24.65 14.0 24.5 14.4 24.35 14.5 24.3 14.8 24.55 15.1 24.75 15.35 24.65 15.55 24.25 15.85 23.85 16.2 23.85 16.25 23.9 16.45 24.05 16.95 23.9 16.95 24.2 16.9 24.15 16.4 24.5 16.2 24.8 15.65 24.85 M12.25 23.95 L12.2 23.9 11.7 23.9 11.55 23.9 11.55 24.0 11.6 24.05 11.55 24.05 11.55 24.0 11.1 23.8 M11.7 23.9 L11.55 23.85 11.55 23.9 11.45 23.9 11.45 23.8 11.55 23.85 11.6 23.75 M12.25 23.95 L12.3 23.9 12.2 23.9 12.0 23.8 11.7 23.9 M12.45 23.9 L12.45 23.8 12.3 23.9 12.45 23.9 M11.7 24.55 L11.5 24.6 11.95 24.65 12.4 24.65 12.05 24.4 Q11.9 24.4 11.7 24.55 M12.2 23.9 L12.3 23.8 M13.8 21.15 L13.55 21.75 13.55 21.85 M12.95 23.4 L12.95 23.55 12.85 23.55 12.85 23.6 13.35 23.7 13.6 23.8 14.0 24.0 14.1 23.9 14.3 23.9 14.55 23.9 M13.05 23.3 L13.15 23.2 13.2 23.15 13.2 23.0 M12.75 23.55 L12.9 23.4 M16.55 23.55 L16.45 23.55 16.65 23.6 16.55 23.55 M15.35 24.65 L15.6 24.85 M15.1 24.75 L15.35 24.8 15.35 24.65 M14.9 24.9 L14.55 24.9 14.1 24.9 M14.9 24.9 L14.95 24.85 15.1 24.75 M14.05 24.9 L13.9 24.75 13.75 24.65 13.5 24.75 13.7 24.9 M13.5 24.75 L13.25 24.55 12.65 24.6 12.4 24.65 12.45 24.65 13.15 24.9 13.45 24.8 13.5 24.75 M11.5 24.6 L11.3 24.65 11.0 24.5 11.5 24.6 M14.05 24.9 L14.4 24.35" fill="none" stroke="#000000" stroke-linecap="round" stroke-linejoin="round" stroke-width="0.05"/>
  </g>
</svg>
