<?xml version="1.0" encoding="UTF-8" standalone="no"?>
<svg xmlns:xlink="http://www.w3.org/1999/xlink" height="23.1px" width="33.45px" xmlns="http://www.w3.org/2000/svg">
  <g transform="matrix(1.0, 0.0, 0.0, 1.0, 2.55, 1.85)">
    <path d="M30.9 -0.5 L27.5 -0.85 30.2 -0.5 30.05 -0.5 Q29.8 -0.15 29.15 0.2 L28.25 0.5 27.55 -0.05 27.0 -0.65 27.05 -0.7 Q26.85 -0.75 26.7 -1.25 L26.6 -1.15 26.35 -0.95 26.0 -1.0 25.75 -0.7 25.35 -0.35 25.25 -0.8 25.2 -0.8 24.85 -0.35 24.5 0.0 24.3 -0.55 24.2 -0.45 23.95 -0.1 23.6 0.25 23.6 -0.55 23.15 -0.55 22.9 0.25 22.15 0.7 22.05 0.4 21.7 0.35 Q21.35 0.35 20.95 0.7 L20.0 1.4 19.7 0.65 Q19.55 0.1 19.15 0.1 18.75 0.1 18.4 0.45 L17.85 0.8 17.45 0.7 17.1 0.6 16.8 0.65 16.55 0.7 16.3 0.4 16.05 0.2 Q15.95 0.2 15.8 0.4 L15.5 0.6 15.25 0.65 15.05 0.6 14.85 0.7 14.7 0.8 14.5 0.6 14.4 0.55 14.05 1.1 13.7 1.6 13.6 0.2 13.6 0.25 13.15 0.9 13.05 0.45 12.95 0.2 12.8 0.8 12.3 1.35 12.0 0.4 11.65 -0.45 11.45 -0.4 11.15 -0.2 10.6 0.55 10.6 0.45 10.5 -0.1 Q10.15 -0.05 9.55 0.45 L9.0 1.05 8.65 0.6 8.2 0.25 Q8.1 0.25 7.55 0.55 L7.4 0.25 7.15 0.1 6.9 0.3 6.6 0.7 6.55 0.4 6.35 0.35 6.15 0.45 5.95 0.55 5.7 0.25 5.45 0.0 5.3 0.4 5.15 0.6 4.95 0.3 4.55 0.0 4.45 0.5 Q4.45 0.65 4.1 0.6 L3.8 0.0 3.55 -0.65 3.45 -0.55 3.5 -0.05 3.0 0.6 2.7 -0.05 2.3 -0.7 2.3 0.1 2.1 0.45 1.85 0.6 1.45 -0.3 1.35 -1.25 1.35 -1.15 1.3 -0.45 1.25 0.2 0.95 0.2 0.45 -0.6 0.35 -1.0 0.25 -0.35 0.0 -0.65 0.3 -1.45 0.35 -1.0 M27.1 -0.7 L27.3 -0.9 27.25 -0.9 27.05 -0.7 27.1 -0.7 M27.5 -0.85 L27.4 -0.9 27.35 -0.9 27.3 -0.9 27.5 -0.85 M28.1 -1.85 L27.95 -1.65 27.7 -1.45 27.35 -0.9 M26.35 1.25 L26.3 1.25 26.1 1.5 26.05 1.55 26.1 1.65 26.15 1.5 26.15 1.6 26.1 1.65 26.1 2.1 26.05 1.75 26.0 1.75 26.05 1.55 26.0 1.4 26.15 1.3 26.3 1.25 26.35 1.15 26.35 1.25 M26.1 1.65 L26.1 1.7 26.05 1.75 26.1 1.65 M22.3 3.4 L22.15 3.0 22.05 3.45 22.05 3.6 22.25 3.65 22.35 3.65 22.3 3.4 M22.6 4.65 L22.3 4.2 22.0 3.8 22.0 3.9 21.9 3.9 21.9 3.45 22.0 3.6 22.05 3.6 22.0 3.8 M20.65 3.55 L20.6 3.85 20.6 3.9 20.8 3.75 20.75 4.1 20.75 4.45 20.8 4.2 20.9 3.75 20.9 3.65 20.8 3.6 20.65 3.55 M20.55 4.1 L20.6 3.9 20.45 4.0 20.55 4.1 M20.0 3.65 L20.0 4.25 Q20.0 3.9 19.6 3.45 L19.55 3.45 19.45 3.45 19.5 3.55 19.65 3.75 19.85 4.2 19.55 3.75 19.5 3.55 19.4 3.5 19.3 3.5 19.25 3.55 19.2 3.9 19.15 4.2 18.95 4.2 18.7 3.9 18.45 3.8 18.35 3.65 18.35 3.75 18.3 3.65 18.25 3.65 18.25 3.55 18.35 3.65 18.35 3.45 18.7 3.9 18.9 3.55 19.15 3.35 19.4 3.5 19.45 3.45 19.4 3.3 19.6 3.45 19.85 3.6 19.95 3.85 20.0 3.65 20.0 3.55 20.0 3.5 20.05 3.55 20.05 3.6 20.3 3.8 20.45 4.0 20.4 4.05 20.4 4.3 20.3 4.3 20.15 3.85 20.05 3.6 M20.7 7.65 L20.75 7.6 20.75 7.65 20.7 7.65 20.7 7.75 20.65 7.9 20.65 7.95 20.65 8.35 20.95 8.05 21.0 7.65 20.95 7.1 20.95 6.85 20.75 7.25 20.65 7.75 20.65 7.9 20.45 8.45 20.45 8.5 20.45 8.55 20.6 8.05 20.65 7.95 M20.45 8.5 L19.75 9.0 19.6 8.75 19.6 8.8 19.3 9.25 19.3 9.05 19.4 8.4 19.5 7.75 19.65 7.75 19.65 7.8 19.75 7.4 19.65 7.45 19.35 7.9 19.05 8.45 19.05 8.35 19.3 7.65 Q19.4 7.4 19.65 7.1 L19.85 7.35 19.9 7.55 19.95 7.55 19.95 7.45 20.3 6.85 20.35 7.3 20.4 7.65 20.45 7.65 20.55 7.0 20.9 6.5 20.95 6.85 M20.45 8.45 L20.4 7.85 20.3 7.8 20.2 7.65 20.0 7.85 20.0 7.9 19.9 8.15 19.75 8.7 19.75 8.45 19.75 8.25 19.6 8.75 19.6 8.5 19.65 8.0 19.65 7.8 19.75 7.85 19.85 7.55 19.9 7.55 M27.5 16.95 L27.5 16.65 M21.7 19.95 L21.7 20.35 21.7 20.4 21.9 20.75 21.9 20.85 22.05 20.5 22.05 20.4 22.0 19.95 21.65 19.6 21.45 20.0 21.55 20.0 21.65 21.15 21.7 20.55 21.7 20.4 21.65 20.25 21.65 20.1 21.65 19.95 21.7 19.95 M21.05 21.1 L21.0 19.95 21.1 20.1 21.1 20.3 21.2 20.55 21.2 20.45 21.45 20.0 M21.65 20.25 L21.7 20.35 21.65 20.1 M21.9 20.85 L21.9 21.0 22.05 20.5 M21.9 20.85 L21.7 20.55 21.9 21.2 21.9 21.0 M17.6 4.35 L17.55 4.35 17.6 4.45 17.6 4.35 17.5 4.05 17.5 4.15 17.55 4.35 M15.3 5.0 L15.2 4.65 M17.1 4.8 L17.35 5.35 17.6 5.35 17.6 5.3 17.6 5.0 17.15 4.6 17.1 4.75 17.1 4.8 M17.6 5.3 L17.8 4.8 17.85 4.45 17.7 4.9 17.6 4.5 17.6 5.0 M17.05 4.9 L17.0 4.8 17.0 5.15 17.0 5.05 17.05 4.9 17.1 4.75 17.0 4.55 17.0 4.8 M17.0 5.15 L17.35 5.6 17.6 5.35 M17.6 4.5 L17.6 4.45 M20.0 3.55 L20.05 3.55 M17.85 4.4 L17.9 4.0 18.0 3.9 17.85 4.4 17.85 4.45 M11.9 3.25 L12.2 3.25 M13.05 4.95 L13.45 5.6 13.5 5.4 13.55 5.1 13.55 5.0 13.5 4.8 13.7 5.0 13.85 4.55 13.95 4.15 13.95 4.35 13.8 5.15 Q13.7 5.15 13.55 5.0 M13.95 3.9 L13.85 4.2 13.75 4.3 13.8 4.2 13.95 3.85 13.95 3.9 M14.85 3.45 L15.0 3.95 14.75 3.45 14.85 3.45 M12.8 6.95 L12.7 6.5 13.3 6.95 13.4 7.25 13.25 7.2 13.25 7.45 13.1 7.55 13.0 7.5 12.9 7.65 12.9 7.45 12.9 6.95 12.8 6.95 M12.9 7.45 L13.0 7.5 13.25 7.2 13.25 6.95 12.9 6.95 M11.35 11.0 L11.3 10.85 11.3 10.95 11.35 11.0 11.45 11.2 11.65 11.4 11.7 11.55 11.85 11.95 11.9 11.6 11.9 11.7 11.85 12.0 11.85 12.05 11.85 12.1 11.8 12.45 11.65 12.7 11.15 12.4 11.15 11.8 11.2 11.35 11.2 10.85 11.3 10.95 11.4 11.2 11.45 11.2 11.55 11.45 11.65 11.65 11.7 11.55 M11.85 11.95 L11.85 12.0 M11.65 11.65 L11.85 11.95 M11.85 12.05 L11.55 12.55 11.55 12.0 11.65 11.65 M15.05 10.15 Q15.05 10.05 15.2 10.05 L15.4 10.05 15.4 9.6 15.55 9.8 15.55 9.95 15.6 10.15 15.65 10.35 15.65 10.15 15.75 10.15 15.75 10.65 15.65 10.65 15.65 10.35 15.5 11.05 15.4 11.05 15.4 10.95 15.15 11.3 15.1 10.9 15.05 10.5 15.05 10.15 M20.0 7.7 L19.95 7.55 19.95 7.65 19.9 8.05 20.0 7.85 20.0 7.7 M19.8 8.2 L19.75 8.45 19.9 8.15 19.9 8.05 19.8 8.2 19.95 7.55 M19.8 8.2 L19.75 8.25 19.75 7.85 19.65 8.35 19.75 8.25 M15.4 10.05 L15.55 10.05 15.55 9.95 M15.55 10.05 L15.5 10.6 15.4 10.95 15.4 10.05 M7.55 3.55 L8.3 3.55 8.55 3.6 8.75 3.75 8.95 3.9 9.0 3.9 8.8 3.95 8.75 4.0 9.15 4.1 9.15 4.15 9.0 4.3 8.85 4.45 8.9 4.55 9.15 4.4 9.05 4.55 8.7 4.9 8.7 4.8 8.8 4.65 8.55 4.75 8.35 5.0 8.35 5.05 8.3 4.95 8.25 4.9 7.95 5.0 7.5 4.7 7.1 4.45 7.05 4.5 6.95 4.55 6.9 4.55 6.55 4.65 6.55 4.7 Q6.45 4.95 6.15 5.0 L6.05 5.15 6.1 5.0 5.95 4.8 5.9 4.75 5.8 4.65 5.85 4.65 5.8 4.6 5.85 4.6 6.2 4.45 6.25 4.4 6.25 4.2 6.25 4.0 6.25 3.85 6.15 3.5 6.15 3.45 6.2 3.45 6.25 3.45 6.25 3.4 6.5 3.6 6.5 3.45 6.75 3.65 7.25 4.1 7.3 4.0 7.35 4.2 7.4 4.2 7.8 4.55 7.85 4.45 7.6 4.15 7.55 3.75 7.55 3.85 8.0 4.35 8.15 4.45 8.3 4.55 8.2 4.0 8.05 3.95 7.45 3.55 7.55 3.55 M6.65 3.65 L6.65 3.75 6.7 3.75 6.75 3.65 6.65 3.65 M6.65 3.85 L6.6 3.95 6.65 4.1 6.7 3.8 6.65 3.8 6.65 3.85 6.6 3.85 6.55 3.9 6.6 3.95 6.35 4.25 6.25 4.4 6.25 4.45 6.45 4.35 6.65 4.1 6.65 4.2 6.75 4.2 6.75 3.75 6.7 3.75 6.7 3.8 M6.65 3.8 L6.65 3.75 6.6 3.85 6.55 3.8 6.55 3.9 6.5 3.95 6.35 4.25 6.3 4.3 6.3 4.2 6.25 4.2 M6.45 4.45 L6.4 4.6 6.6 4.5 6.6 4.45 6.45 4.45 6.6 4.3 6.6 4.45 6.75 4.3 6.95 4.0 6.95 4.45 7.0 4.45 7.05 4.45 7.25 4.1 7.35 4.2 7.4 4.35 7.1 4.45 7.05 4.45 7.05 4.5 7.0 4.45 M6.55 3.8 L6.35 3.65 6.4 3.8 6.3 3.7 6.25 4.0 M6.65 3.75 L6.5 3.6 6.55 3.8 M6.2 3.45 L6.2 3.55 6.25 3.6 6.25 3.5 6.25 3.45 M6.15 3.5 L6.3 3.7 6.2 3.55 6.15 3.45 M6.3 3.7 L6.25 3.6 6.3 3.65 6.35 3.65 6.25 3.5 M6.25 4.45 L6.25 4.7 6.3 4.7 6.4 4.6 6.3 4.65 6.3 4.45 6.25 4.45 6.2 4.45 6.05 4.65 6.1 4.7 6.15 4.7 6.25 4.7 M6.05 4.65 L6.05 4.7 6.1 4.7 6.1 4.8 6.15 4.8 6.25 4.8 6.3 4.75 6.3 4.7 6.35 4.7 6.45 4.65 6.55 4.55 6.6 4.5 M6.25 4.8 L6.3 4.8 6.3 4.75 M6.05 4.65 L6.05 4.55 5.85 4.65 6.05 4.7 5.95 4.8 6.1 4.8 6.15 4.9 6.15 4.8 M5.9 4.75 L5.85 4.65 5.85 4.6 M6.15 5.0 L6.15 4.9 6.1 5.0 6.15 5.0 6.25 4.8 M5.4 5.0 L5.15 5.2 5.2 5.2 5.25 5.25 5.25 5.7 5.2 5.75 5.15 5.85 5.1 5.95 Q5.05 6.5 4.65 6.5 L4.4 6.3 4.1 6.05 3.65 5.4 3.55 5.2 3.45 5.0 3.5 5.05 3.55 5.2 M6.95 4.45 L6.7 4.5 6.95 4.55 M6.35 4.7 L6.55 4.65 6.55 4.55 6.7 4.5 6.6 4.45 M6.45 4.45 L6.3 4.45 M9.15 4.15 L8.95 4.3 8.85 4.4 8.85 4.45 8.8 4.6 8.9 4.55 8.9 4.65 8.8 4.65 8.8 4.6 8.8 4.5 8.6 4.6 8.55 4.75 8.35 4.85 8.35 5.0 8.3 4.95 M8.2 4.0 L8.25 4.0 8.45 4.0 8.2 3.75 8.2 4.0 M7.8 4.55 L8.25 4.9 8.0 4.35 7.75 4.3 7.85 4.45 M8.6 4.0 L8.7 4.2 8.7 4.25 8.75 4.0 8.7 4.0 8.6 4.0 8.75 3.95 8.8 3.95 8.8 3.9 8.95 3.9 M8.6 4.0 L8.5 4.0 8.45 4.0 8.65 4.15 8.7 4.2 M8.3 4.55 L8.5 4.65 8.6 4.6 8.65 4.45 8.7 4.25 8.85 4.4 8.8 4.5 8.7 4.25 M8.55 3.6 L7.75 3.65 8.05 3.95 M8.3 4.55 L8.35 4.85 8.25 4.9 M1.75 2.85 L1.85 2.05 1.9 2.85 2.4 3.25 2.4 3.3 1.95 3.1 1.6 2.95 1.6 3.1 1.5 2.55 1.7 2.85 1.75 2.85 M3.65 4.8 L3.95 5.6 4.35 5.75 4.4 5.75 4.35 5.5 4.15 5.3 3.75 4.8 3.65 4.8 M5.05 5.25 L5.15 5.2 5.05 5.15 5.05 5.25 5.25 5.25 M4.1 4.4 L4.25 4.65 4.1 4.7 4.2 4.7 4.65 5.3 4.8 5.5 4.85 5.45 4.95 5.15 5.05 5.15 4.85 5.55 5.15 5.85 5.05 5.25 M4.35 5.5 L4.25 5.35 4.1 4.7 M4.8 5.5 L4.85 5.55 4.8 5.65 4.6 6.3 4.6 5.85 4.55 5.85 4.55 5.75 4.5 5.7 4.5 5.75 4.55 5.95 4.45 5.85 4.4 5.75 4.5 5.75 M4.6 5.75 L4.6 5.85 4.65 5.7 4.6 5.75 4.55 5.6 4.55 5.75 4.6 5.75 M4.65 5.7 L4.8 5.5 M4.5 5.7 L4.45 5.65 4.35 5.5 M4.8 5.65 L4.65 5.7 M9.0 6.4 L9.0 6.5 9.0 6.55 9.05 6.6 9.1 6.8 9.15 6.95 8.9 6.3 8.9 6.4 9.0 6.4 M9.0 6.5 L8.95 6.5 9.05 6.8 9.0 6.55 M8.95 6.5 L8.9 6.55 8.8 6.9 8.55 7.3 8.55 7.35 8.55 7.4 8.7 7.75 8.85 7.7 8.85 7.65 9.0 7.15 9.0 7.25 9.0 7.45 9.1 7.3 9.05 7.3 9.05 6.85 9.05 6.8 M8.95 6.5 L8.9 6.4 8.8 6.4 8.65 6.65 8.9 6.55 M9.15 6.95 L9.15 7.0 9.15 7.1 9.15 7.15 9.15 7.25 9.15 7.3 9.1 7.4 9.05 7.75 9.0 7.75 9.0 7.5 8.95 7.5 8.95 7.6 8.9 7.9 8.8 7.85 8.75 7.85 8.65 8.1 8.55 8.0 8.55 7.85 8.5 7.85 8.2 7.7 8.2 7.75 8.15 7.65 8.15 7.6 7.9 7.4 7.45 6.65 7.5 6.45 7.45 6.3 7.55 6.35 7.65 6.5 7.85 6.4 Q7.9 6.3 8.0 6.3 L8.0 6.05 8.05 6.25 8.1 6.25 8.2 6.25 8.3 6.15 8.3 6.25 8.9 6.3 8.8 6.4 8.7 6.4 8.35 6.75 8.35 7.0 8.65 6.65 8.65 6.7 8.35 7.0 8.25 7.0 8.55 7.35 M9.1 7.3 L9.15 7.15 9.05 6.85 M9.1 7.3 L9.15 7.3 M9.0 7.5 L9.0 7.45 M8.85 7.7 L8.95 7.5 9.0 7.25 M8.3 6.25 L8.35 6.75 8.1 6.35 8.1 6.3 7.95 6.5 7.85 6.75 7.85 6.65 7.95 6.5 7.95 6.4 8.0 6.3 8.05 6.25 8.1 6.3 8.2 6.25 8.3 6.25 M7.95 6.9 L7.55 6.75 7.45 6.65 8.15 7.6 8.15 7.5 8.1 7.1 8.15 7.0 7.95 6.9 M8.25 7.0 L8.2 7.05 8.15 7.0 8.2 6.95 8.25 7.0 M8.7 7.75 L8.7 7.85 8.75 7.85 8.85 7.7 M8.55 7.4 L8.55 7.85 8.7 7.75 M8.2 7.7 L8.2 7.65 8.15 7.65 M7.4 10.75 L7.65 10.15 7.65 9.9 7.55 9.8 7.55 10.25 7.2 9.8 7.05 9.8 7.05 10.05 7.15 10.25 7.4 10.75 M2.15 17.25 L2.4 17.35 2.5 17.45 2.65 17.7 2.65 17.25 2.85 17.25 2.75 16.65 1.85 16.75 1.85 17.25 2.15 17.4 2.15 17.3 2.05 17.25 2.15 17.25 2.15 17.3 2.2 17.3 2.4 17.35 2.4 17.4 2.5 17.55 2.2 17.45 2.15 17.4 2.25 17.65 2.4 18.05 2.5 18.05 2.5 17.9 2.3 17.55 2.6 17.75 2.95 18.25 2.4 18.05 2.3 18.05 2.25 18.0 2.05 17.9 2.1 18.1 2.3 18.35 M2.25 18.0 L1.5 17.35 2.0 17.85 2.05 17.9 M2.85 17.25 L3.0 17.95 3.05 17.85 3.1 17.6 3.05 17.4 3.0 17.25 2.85 17.25 M10.05 20.65 L10.2 21.05 10.25 20.95 10.05 20.55 10.05 20.65 M6.85 19.05 L6.85 19.35 6.95 19.25 6.95 19.05 6.85 19.05 M6.55 19.4 L6.5 19.4 6.5 19.25 6.7 19.25 6.7 19.4 6.55 19.4 6.7 19.45 6.75 19.25 6.8 19.45 6.8 19.4 6.85 19.35 6.85 19.5 6.95 19.25 M6.7 19.45 L6.75 19.45 6.8 19.45 6.8 19.5 6.85 19.5 6.85 19.65 6.8 19.5 M6.7 19.45 L6.7 19.6 6.75 19.45 M16.35 17.3 L16.3 18.15 16.2 18.25 15.95 17.9 16.1 17.5 16.1 17.8 16.2 17.7 16.35 17.3 16.35 17.2 16.45 17.2 16.55 16.55 16.55 16.4 16.6 16.25 16.6 16.15 16.75 16.6 17.1 16.4 Q17.05 16.7 17.3 17.0 L17.8 17.45 18.05 17.0 18.05 16.3 17.8 16.7 17.45 17.0 17.4 16.9 17.35 16.85 17.45 16.1 M16.75 16.6 L16.75 16.65 16.7 17.15 16.65 17.6 16.55 17.6 16.55 16.55 16.6 16.25 M18.5 16.55 L18.5 16.45 18.1 16.9 18.05 17.0 18.05 17.2 18.3 16.85 18.5 16.55 M13.55 17.25 L13.55 17.05 13.6 17.3 13.6 17.45 13.65 17.5 13.65 17.4 13.7 17.45 13.7 17.55 13.65 17.5 13.7 17.8 13.6 17.45 13.6 17.55 13.55 17.8 13.55 17.4 13.45 17.25 13.55 17.25 13.6 17.3 M13.55 17.25 L13.55 17.4 13.6 17.45 M10.85 19.95 L10.8 20.2 10.85 20.2 10.95 19.95 11.05 20.0 11.05 20.3 11.1 20.3 11.15 20.2 11.2 20.3 11.2 20.25 10.7 19.75 10.7 19.85 10.75 20.0 10.85 19.85 10.85 19.95 M10.7 19.85 L10.7 19.95 10.7 20.1 10.75 20.0 10.8 20.2 10.75 20.3 10.8 20.3 10.85 20.2 10.85 20.3 11.05 20.3 11.1 20.65 11.3 20.5 11.2 20.3 11.1 20.3 M11.2 20.3 L11.25 20.3 11.3 20.4 11.3 20.25 11.2 20.25 M10.8 20.3 L10.85 20.3 11.0 20.55 11.05 20.3 M11.0 20.55 L11.05 20.65 11.1 20.65 11.1 20.7 11.15 20.65 11.35 20.8 11.4 20.75 11.3 20.5 11.35 20.4 11.4 20.25 11.3 20.25 M10.6 20.25 L10.5 20.9 10.7 20.45 10.75 20.3 10.7 20.3 10.7 20.1 10.6 20.25 10.7 19.95 M10.5 20.9 L10.7 20.5 10.7 20.45 M10.7 20.5 L10.75 20.4 10.8 20.3 M10.6 20.25 L10.25 20.95 10.25 21.0 10.35 21.25 10.5 20.9 M10.2 21.05 L10.35 21.25 M11.35 21.25 L11.4 21.25 11.4 21.05 11.4 20.95 11.35 21.1 11.35 21.25 M11.4 20.95 L11.35 20.85 11.35 20.8 11.2 21.15 11.15 20.75 11.1 20.7 10.95 21.1 10.85 21.25 10.75 20.95 10.7 20.5 10.8 20.55 10.85 21.25 10.85 20.85 11.0 20.55 M11.4 20.25 L11.5 20.1 11.55 20.1 11.6 20.3 11.9 20.0 11.9 21.1 11.85 21.25 11.7 21.0 11.65 20.85 11.55 20.85 11.4 21.25 M11.4 20.75 L11.4 20.7 11.55 20.4 11.5 20.2 11.4 20.25 M11.55 20.4 L11.65 20.8 11.65 20.45 11.6 20.3 11.55 20.4 M11.65 20.8 L11.65 20.85 M11.4 20.75 L11.4 20.85 11.4 20.95 M17.25 19.65 L17.25 20.2 17.15 20.2 17.05 19.65 17.0 19.65 16.95 19.95 16.9 20.3 16.8 20.3 16.75 19.6 17.0 19.65 17.0 19.5 17.05 19.65 17.25 19.65 M-0.45 -0.2 L-1.15 -0.65 Q-1.7 -0.9 -1.85 -1.2 L-1.7 -0.95 -1.0 -0.5 -1.6 -0.8 -1.85 -0.9 Q-2.4 -1.15 -2.55 -1.35 L-2.4 -1.35 -1.7 -0.95 -1.6 -0.8" fill="none" stroke="#000000" stroke-linecap="round" stroke-linejoin="round" stroke-width="0.05"/>
  </g>
</svg>
