<?xml version="1.0" encoding="UTF-8" standalone="no"?>
<svg xmlns:xlink="http://www.w3.org/1999/xlink" height="19.35px" width="38.35px" xmlns="http://www.w3.org/2000/svg">
  <g transform="matrix(1.0, 0.0, 0.0, 1.0, 3.9, -4.05)">
    <path d="M25.6 4.25 L25.85 4.3 26.15 4.35 26.2 4.05 M21.9 12.1 L21.9 12.9 21.65 13.15 21.9 13.15 22.05 13.15 22.05 13.75 22.2 13.85 22.05 13.85 22.05 14.0 21.85 13.85 21.7 13.85 21.75 13.95 21.65 13.85 21.5 13.85 21.2 13.65 21.0 13.55 20.8 13.6 20.8 12.65 20.8 12.5 20.85 12.6 20.95 12.5 21.2 12.5 21.35 13.05 21.45 13.4 21.5 13.35 21.5 13.15 21.65 13.15 21.75 12.1 21.9 12.1 M29.15 10.2 L29.2 10.3 29.25 10.25 29.2 10.05 29.15 10.1 29.15 10.2 M29.15 10.55 L29.1 10.7 29.25 10.75 29.25 10.6 29.15 10.55 28.8 10.45 29.1 10.7 29.1 10.85 28.4 10.3 28.4 10.6 28.3 10.6 28.25 10.7 28.25 10.6 28.15 10.6 28.1 10.75 28.1 10.6 28.0 10.6 28.0 10.55 27.9 10.45 27.85 10.45 27.85 10.0 27.85 9.95 28.0 10.05 27.95 10.1 28.0 10.2 28.1 10.2 28.1 9.8 28.2 9.9 28.25 9.7 28.25 9.95 28.4 10.1 28.4 10.05 28.4 9.85 28.45 10.0 28.55 9.95 28.65 10.3 28.95 10.3 29.15 10.1 29.1 9.8 29.2 10.05 29.25 9.85 29.25 10.25 29.25 10.45 29.25 10.6 M29.25 10.45 L29.2 10.3 29.15 10.55 M28.4 10.05 L28.45 10.0 28.45 10.05 28.5 10.2 28.5 10.25 28.65 10.3 28.7 10.4 28.8 10.45 M28.25 9.95 L28.25 10.2 28.4 10.1 28.5 10.2 M27.85 9.95 L27.9 10.0 27.95 10.1 27.9 10.2 28.0 10.2 M28.15 10.6 L28.25 10.45 28.25 10.2 28.1 10.2 28.1 10.6 28.15 10.6 M28.0 10.55 L27.9 10.3 27.85 10.0 M28.3 10.4 L28.25 10.45 28.25 10.6 28.3 10.6 28.3 10.4 28.35 10.35 28.4 10.1 28.4 10.3 28.35 10.35 M28.1 10.2 L28.0 10.6 M28.65 10.3 L28.55 10.3 28.5 10.25 M28.25 9.95 L28.2 9.9 28.1 10.2 M26.8 15.25 L26.8 15.3 26.85 15.3 26.8 15.25 M26.95 15.8 L27.05 15.8 26.95 15.4 26.95 15.7 26.95 15.8 26.85 15.35 26.85 15.3 M26.95 15.4 L26.85 15.35 26.95 15.7 M21.5 13.35 L21.55 13.3 21.65 13.15 21.65 13.5 21.75 13.5 21.9 13.15 M21.45 13.4 L21.6 13.6 21.7 13.55 21.65 13.5 21.5 13.45 21.5 13.35 M21.7 13.55 L21.7 13.7 21.85 13.85 22.05 13.85 22.05 13.75 21.85 13.6 21.75 13.5 21.7 13.55 M21.6 13.6 L21.7 13.7 21.7 13.85 21.65 13.85 21.35 13.4 21.1 13.5 21.0 13.55 20.95 13.45 21.1 13.5 M20.8 12.65 L20.85 12.6 21.15 13.1 21.35 13.3 21.4 13.4 21.45 13.4 21.5 13.6 21.6 13.6 M21.15 13.1 L21.2 13.2 21.35 13.4 21.4 13.4 M21.15 13.1 L20.8 12.65 M25.2 21.3 L25.2 20.9 25.3 21.5 25.35 21.55 25.9 21.95 26.2 22.15 26.3 21.9 26.25 22.2 26.55 22.35 26.55 21.9 27.0 22.35 27.3 22.15 Q27.6 22.15 27.9 22.45 L28.45 23.05 28.2 22.95 28.0 23.1 27.65 23.15 27.2 22.85 Q27.05 22.6 26.7 22.55 L26.65 22.6 26.5 22.7 26.45 22.9 26.45 22.7 25.9 23.05 Q25.55 23.05 25.35 22.6 L25.3 22.5 25.3 22.55 25.3 22.9 25.25 22.55 25.2 22.55 25.15 22.15 25.05 21.9 25.05 21.85 25.1 21.85 25.15 21.95 25.15 21.9 25.05 21.4 25.3 21.55 25.3 21.5 25.2 21.3 M25.1 21.85 L25.1 21.9 25.15 21.95 25.2 22.05 25.3 22.25 25.3 21.55 25.35 21.55 25.45 21.8 25.95 22.55 26.2 22.15 26.25 22.2 25.95 22.9 25.5 22.45 25.3 22.25 25.3 22.5 25.25 22.3 25.3 22.55 25.25 22.55 25.25 22.45 25.15 22.15 25.15 22.0 25.15 21.95 M25.2 22.05 L25.2 22.2 25.25 22.3 M25.2 22.2 L25.15 22.0 M26.85 22.45 L26.55 22.35 26.55 22.55 26.7 22.55 26.85 22.45 27.0 22.35 27.55 22.7 28.2 22.95 M26.45 22.7 L26.5 22.7 26.55 22.55 26.45 22.55 26.45 22.7 M31.8 16.8 L32.05 17.25 32.45 17.3 Q32.3 16.5 31.75 16.45 L31.15 16.45 31.5 16.6 31.7 16.7 31.8 16.8 M30.55 16.4 L30.6 16.8 Q30.75 17.5 31.3 17.85 L32.0 18.15 32.1 17.55 32.05 17.25 31.75 17.2 31.1 16.65 31.5 16.6 M32.45 18.0 L32.45 18.15 32.9 18.15 33.3 17.55 32.7 17.55 32.5 17.7 32.45 18.0 M32.9 20.05 Q32.7 20.8 32.3 20.8 32.05 20.8 31.8 20.25 31.6 19.7 31.7 19.15 L31.7 19.3 32.1 19.9 32.3 20.65 32.65 20.3 32.9 20.05 32.9 19.95 33.0 19.55 32.95 19.55 Q32.1 19.25 31.95 19.15 L31.95 18.8 32.1 18.55 32.55 18.7 32.65 18.8 32.6 18.7 32.45 18.15 32.3 18.15 32.0 18.15 Q31.85 18.65 31.4 18.65 31.05 18.65 30.75 18.4 L30.2 17.65 30.6 17.05 30.6 16.8 M33.3 18.4 L33.0 19.55 Q33.7 19.75 33.85 20.05 L33.85 19.3 33.7 18.8 33.6 18.4 33.3 18.4 M32.95 19.15 L32.65 18.8 32.95 19.3 32.95 19.15 M32.95 23.15 L33.4 23.1 34.05 22.9 33.9 22.9 33.2 22.9 32.95 22.9 M33.2 22.9 L33.5 22.8 33.85 22.8 33.95 22.8 34.45 22.9 34.05 22.9 M33.95 22.8 L33.9 22.9 M14.6 10.05 L14.6 9.4 15.0 9.75 15.45 9.95 15.55 9.95 15.5 9.85 15.45 9.75 Q15.4 9.6 15.15 9.55 L15.55 9.55 15.5 9.85 M3.05 9.05 L3.15 8.85 3.0 8.85 3.05 9.05 2.55 9.4 2.5 9.9 2.45 10.3 1.75 10.1 1.7 10.05 1.45 10.5 1.05 11.0 0.75 10.55 0.75 10.75 0.75 11.3 0.3 10.6 0.25 10.45 0.15 10.35 0.15 10.5 0.05 10.8 M1.75 9.8 L1.45 9.9 1.7 10.05 1.75 9.8 M0.15 10.35 L-0.1 9.8 0.4 9.65 0.9 9.55 1.05 9.65 1.05 9.95 0.95 10.2 Q1.1 10.05 1.25 10.0 L1.45 9.9 M0.55 10.25 L0.45 10.05 0.45 10.2 0.55 10.25 0.6 10.3 0.65 10.35 0.75 10.45 0.75 10.55 0.95 10.2 M0.75 10.75 L0.3 10.45 0.25 10.45 0.15 9.95 0.15 10.35 M0.65 10.35 L0.75 10.55 M4.45 16.05 L4.05 16.05 4.15 16.3 Q4.4 16.7 4.8 16.8 L4.9 16.8 4.95 16.55 4.7 16.0 4.45 15.9 4.45 16.05 M3.95 16.05 L4.05 16.05 4.0 15.9 3.95 15.9 3.95 16.05 3.7 16.05 3.7 15.9 3.8 15.8 3.95 15.8 4.05 15.8 4.3 15.8 4.4 15.9 4.45 15.9 M4.0 15.9 L3.95 15.8 M4.4 15.9 L4.0 15.9 M0.8 23.15 L0.35 23.15 0.1 23.15 -0.25 23.15 -0.15 23.3 0.1 23.4 -0.05 23.4 -0.15 23.3 -0.4 23.15 -1.65 23.15 -1.65 23.4 -2.55 23.4 -2.55 23.15 -2.6 23.05 -2.65 23.05 -2.65 22.05 -2.65 21.9 -2.65 21.4 -2.4 21.35 -2.05 21.3 -1.2 21.35 -0.7 21.4 -0.65 21.4 -0.4 21.4 -0.15 21.4 -0.3 22.25 -0.3 22.4 -0.3 22.65 0.15 22.5 0.6 22.3 0.6 22.55 0.5 22.7 0.1 23.15 -0.25 23.1 -0.25 23.15 -0.4 23.15 -0.4 23.05 -0.25 23.1 -0.3 22.4 M9.75 19.9 L9.8 20.05 9.6 20.05 9.7 20.15 9.3 20.15 9.7 20.25 9.95 20.3 9.85 20.35 9.8 20.4 9.45 20.6 9.05 20.65 8.95 20.65 8.9 20.55 8.8 20.55 8.8 20.4 8.75 20.3 8.7 19.9 8.8 20.0 8.8 19.9 8.95 19.9 9.0 20.05 9.1 20.1 9.3 20.15 9.25 20.05 9.2 20.05 9.05 20.05 8.8 19.65 8.8 19.4 9.25 19.7 9.35 19.8 9.7 19.8 9.75 19.9 M9.25 20.05 L9.6 20.05 9.35 19.8 9.2 19.8 9.2 20.05 M8.8 20.4 L8.8 20.0 9.0 20.05 9.05 20.3 9.05 20.65 M8.9 20.55 L8.8 20.4 M-2.05 17.55 L-2.65 17.8 -2.9 17.7 -3.05 17.55 -3.05 16.8 -3.05 16.55 -2.65 16.65 -2.4 16.55 -1.85 16.55 -1.65 16.55 -1.6 16.6 -1.55 16.85 Q-1.55 17.25 -2.05 17.55 L-2.05 17.8 Q-2.1 18.15 -2.45 18.15 -2.95 18.15 -3.4 17.8 -3.9 17.4 -3.9 16.9 L-3.65 16.4 -3.05 16.15 -2.7 15.95 -2.9 15.75 -2.95 15.75 -2.95 15.7 -3.15 15.65 -3.15 15.4 -3.05 15.35 -3.05 15.3 -2.9 14.8 Q-2.7 14.4 -2.3 14.4 -2.0 14.4 -1.75 14.65 L-1.55 15.05 M-3.05 15.35 L-3.05 15.4 -2.95 15.7 -2.9 15.75 -2.6 15.8 -2.55 15.8 -2.55 15.75 Q-2.3 15.45 -2.05 15.55 L-2.05 15.65 -2.25 15.75 -2.55 15.8 -2.7 15.95 -2.3 16.05 -1.95 15.95 -1.8 15.8 -1.8 15.4 -2.15 15.3 -3.05 15.3 M-3.05 16.8 L-2.9 16.8 -2.65 16.65 -2.35 16.8 -2.3 16.8 -2.1 16.95 -2.05 17.05 -1.85 16.55 M-2.1 16.95 L-2.05 17.4 -2.05 17.55 M-2.35 16.8 L-2.1 16.95 M-2.9 16.8 L-2.35 16.8 M-1.9 21.4 L-1.85 21.55 -1.75 21.55 -1.05 21.4 -1.9 21.4 M-0.7 21.4 L-1.05 21.4 M-2.65 22.05 L-2.55 22.15 -2.3 22.15 -2.25 22.1 -2.4 21.9 -2.65 21.9 M-0.6 21.55 L-0.55 22.9 -0.4 22.9 -0.3 22.2 -0.3 21.95 -0.35 21.55 -0.6 21.55 -0.65 21.4 M-0.3 22.25 L-0.3 22.2 M-0.3 21.95 L-0.3 21.55 -0.35 21.55 -0.4 21.4 M-0.6 21.55 L-1.65 21.55 -1.0 22.25 -1.0 22.55 -0.9 22.65 -1.05 22.65 -1.0 22.55 -1.3 22.15 -1.65 21.65 -1.65 21.8 -1.65 21.9 -1.65 22.25 -1.4 22.45 -0.65 22.9 -0.8 22.9 -1.2 22.8 -1.65 22.8 -1.65 23.15 -2.55 23.15 -2.15 22.95 -1.65 22.8 -1.65 22.25 -1.7 22.2 -1.8 22.8 -2.05 22.35 -2.25 22.1 -2.05 21.9 -1.9 21.8 -1.7 22.2 -1.65 21.9 M-1.75 21.55 L-1.65 21.55 -1.65 21.65 M-1.85 21.55 L-1.65 21.8" fill="none" stroke="#000000" stroke-linecap="round" stroke-linejoin="round" stroke-opacity="0.08627451" stroke-width="0.05"/>
  </g>
</svg>
