<?xml version="1.0" encoding="UTF-8" standalone="no"?>
<svg xmlns:xlink="http://www.w3.org/1999/xlink" height="25.55px" width="29.75px" xmlns="http://www.w3.org/2000/svg">
  <g transform="matrix(1.0, 0.0, 0.0, 1.0, 0.7, 5.05)">
    <path d="M14.8 -1.85 L14.85 -2.1 14.8 -2.9 14.8 -3.2 14.9 -3.35 15.0 -3.3 15.35 -2.6 15.45 -2.4 15.8 -2.15 15.95 -3.45 15.95 -3.35 16.05 -2.65 16.0 -1.75 15.6 -1.3 15.55 -1.2 15.2 -0.75 15.05 -0.7 14.9 -0.95 14.8 -1.45 14.8 -1.85 14.7 -1.7 14.7 -1.9 14.6 -2.05 14.5 -2.1 14.35 -2.15 14.25 -2.4 14.2 -2.75 13.65 -2.55 13.2 -2.15 13.2 -2.3 13.3 -3.2 13.0 -2.9 12.75 -2.5 12.6 -2.9 12.5 -3.3 12.25 -2.85 11.75 -2.4 11.75 -2.45 11.7 -2.5 11.5 -3.0 11.35 -2.7 10.95 -2.3 10.75 -2.6 10.6 -2.85 Q10.4 -2.2 9.9 -2.05 L9.7 -2.45 9.35 -2.75 9.3 -2.3 9.2 -1.95 9.1 -1.95 9.0 -2.35 8.9 -2.65 8.7 -2.6 8.55 -2.55 8.5 -2.8 8.1 -3.0 7.95 -2.75 7.7 -2.55 7.4 -2.75 7.15 -2.95 7.05 -2.75 7.15 -2.65 7.2 -2.6 7.4 -2.15 7.15 -2.65 6.9 -2.3 6.4 -1.85 6.45 -2.4 6.35 -2.45 6.25 -2.25 5.6 -2.05 5.25 -2.15 5.0 -2.55 5.05 -2.7 4.5 -2.65 4.5 -2.55 4.4 -2.55 4.3 -2.4 4.25 -2.45 4.2 -2.5 4.1 -2.6 4.1 -2.2 3.85 -2.65 3.8 -2.7 3.7 -2.4 3.4 -2.2 3.1 -2.4 2.95 -3.1 2.7 -2.75 2.4 -2.5 2.35 -2.55 2.35 -3.2 2.3 -3.2 2.25 -2.9 1.8 -2.2 1.8 -3.3 1.75 -3.3 1.6 -3.05 1.2 -2.55 1.2 -3.2 1.3 -3.5 1.15 -3.75 1.1 -3.65 0.65 -3.1 0.4 -3.55 0.4 -4.0 0.05 -3.35 -0.35 -2.85 -0.6 -3.7 -0.55 -4.2 -0.7 -4.1 -0.7 -4.55 -0.6 -4.55 -0.55 -4.2 -0.4 -4.4 0.0 -4.55 0.1 -4.1 0.3 -4.45 0.45 -4.7 0.6 -4.4 0.8 -4.1 1.0 -4.2 1.0 -4.25 0.8 -4.9 0.9 -4.9 1.05 -4.35 1.1 -4.25 1.1 -5.05 Q1.75 -5.0 2.45 -3.95 L2.7 -3.5 2.8 -3.7 2.8 -3.4 2.9 -3.2 3.0 -3.1 3.15 -3.1 3.1 -3.2 3.05 -3.35 3.05 -3.45 3.05 -3.65 3.5 -3.65 3.65 -3.45 3.65 -3.5 3.65 -3.55 3.7 -3.55 3.95 -4.1 4.1 -3.95 4.35 -3.75 4.45 -3.6 5.5 -3.45 5.7 -3.45 6.95 -3.3 8.35 -3.35 10.05 -3.45 11.5 -3.45 12.7 -3.45 13.8 -3.6 14.9 -3.7 16.5 -3.6 18.15 -3.45 21.95 -3.85 24.85 -3.8 24.95 -3.9 25.1 -3.8 25.15 -3.9 25.2 -3.9 25.1 -3.75 25.25 -3.65 25.55 -3.3 25.9 -3.65 26.05 -3.45 26.2 -3.2 26.9 -3.7 27.35 -4.25 27.45 -3.55 27.45 -3.0 27.8 -3.65 27.85 -3.6 27.9 -3.55 28.15 -3.7 28.4 -4.0 28.8 -3.65 28.95 -3.25 28.95 -3.0 29.05 -2.75 Q29.0 -2.65 28.75 -2.6 L28.25 -2.5 Q28.0 -2.5 27.75 -2.65 L27.35 -2.85 26.9 -2.35 25.7 -2.15 25.5 -2.15 Q25.3 -2.2 25.3 -2.6 L25.4 -2.95 25.65 -3.1 26.25 -2.95 26.9 -2.85 27.3 -2.85 27.35 -2.9 27.45 -3.0 27.45 -2.95 27.35 -2.9 27.35 -2.85 27.3 -2.85 27.0 -2.85 26.9 -2.85 M3.15 -3.1 L3.15 -3.0 3.25 -2.9 3.45 -2.85 3.55 -3.15 3.05 -3.45 3.1 -3.3 3.1 -3.2 M1.35 -4.65 L1.35 -4.35 Q1.8 -4.35 2.1 -3.95 L2.4 -3.55 2.4 -3.5 2.55 -3.3 2.7 -3.5 2.8 -3.4 2.8 -2.95 2.55 -3.3 2.45 -3.2 2.35 -3.2 2.35 -3.25 2.3 -3.2 2.05 -3.2 1.8 -3.3 1.8 -3.4 1.75 -3.3 1.55 -3.6 1.4 -4.0 1.4 -3.75 1.35 -3.65 1.35 -3.45 1.3 -3.5 1.35 -3.65 1.35 -4.1 1.15 -3.75 1.0 -4.2 1.1 -4.25 1.15 -4.3 1.35 -4.35 1.35 -4.25 1.4 -4.1 1.4 -4.0 M3.45 -2.85 L3.5 -2.85 3.6 -3.2 3.65 -3.0 3.65 -2.95 3.75 -2.8 3.8 -2.75 3.85 -2.75 3.85 -2.95 3.9 -2.9 3.95 -3.1 3.9 -3.35 3.85 -3.45 3.75 -3.5 3.7 -3.55 3.65 -3.5 3.7 -3.4 3.7 -3.35 3.85 -3.0 3.75 -3.0 3.7 -3.35 M3.7 -3.4 L3.65 -3.45 3.55 -3.15 M4.1 -3.95 L4.1 -3.7 4.2 -2.65 4.3 -2.6 4.4 -2.55 4.5 -2.65 4.5 -2.85 4.55 -3.15 4.45 -3.6 M1.35 -4.25 L1.35 -4.1 1.4 -4.1 M2.4 -3.55 L2.35 -3.55 2.35 -3.25 2.4 -3.5 M4.1 -2.6 L4.0 -2.75 3.9 -2.9 3.85 -2.75 3.8 -2.7 3.8 -2.75 3.65 -2.75 3.65 -2.85 3.65 -2.95 M3.15 -3.0 L3.0 -3.05 3.4 -2.75 3.45 -2.85 M3.65 -2.85 L3.75 -2.8 M3.0 -3.1 L2.95 -3.1 3.0 -3.05 3.0 -3.1 M4.95 -1.1 L5.0 -1.1 5.3 -0.8 5.7 -0.7 6.3 -0.8 Q6.2 -0.85 6.05 -0.95 5.35 -1.25 5.2 -1.5 L5.25 -1.5 5.85 -1.1 6.05 -0.95 6.35 -0.85 6.6 -0.95 Q6.45 -1.45 5.4 -1.75 L4.15 -1.95 3.75 -1.95 Q4.3 -1.75 4.7 -1.35 L4.95 -1.1 5.3 -0.8 M4.1 -3.7 L4.1 -2.6 M6.5 -2.7 L6.45 -2.4 6.8 -2.3 6.95 -2.6 7.05 -2.75 6.9 -2.85 6.5 -2.7 6.35 -2.45 6.0 -2.55 Q5.75 -2.6 5.55 -2.8 5.2 -3.05 5.2 -3.45 5.5 -2.8 6.0 -2.6 L6.0 -2.55 6.05 -2.55 6.5 -2.7 M7.6 -1.5 L7.95 -1.95 8.3 -1.6 7.6 -1.5 7.25 -1.45 7.05 -1.25 6.9 -1.15 6.9 -1.1 6.8 -1.0 6.6 -0.85 6.6 -0.8 6.55 -0.8 6.35 -0.8 6.3 -0.8 6.35 -0.85 6.55 -0.8 6.6 -0.85 6.6 -0.95 6.85 -1.1 6.95 -1.35 7.05 -1.35 6.9 -1.15 M6.85 -1.1 L6.9 -1.1 M6.85 -1.1 L6.6 -0.85 M14.9 -3.2 L14.85 -2.1 14.85 -1.9 14.95 -2.05 15.15 -2.5 15.25 -2.5 15.35 -1.25 15.6 -1.3 15.6 -1.8 15.45 -2.4 15.3 -2.55 Q14.95 -2.9 15.0 -3.2 L14.9 -3.2 M15.2 -0.75 L15.05 -1.05 14.85 -1.9 14.8 -1.85 M16.05 -0.65 L16.3 -1.15 16.5 -1.95 16.3 -1.75 16.3 -1.85 16.5 -2.05 16.4 -2.4 16.3 -2.95 16.4 -3.0 16.65 -3.0 16.8 -2.9 16.95 -2.75 16.6 -2.2 16.5 -2.05 16.5 -1.95 16.7 -2.15 17.05 -2.4 17.05 -1.4 17.05 -1.35 17.9 -1.95 18.55 -2.4 18.45 -2.4 17.7 -2.4 17.4 -2.85 19.35 -2.9 21.45 -3.3 20.8 -2.75 21.5 -2.45 22.05 -2.15 22.9 -2.4 23.5 -2.65 23.95 -2.2 24.6 -3.0 24.95 -3.6 24.3 -3.1 Q23.6 -2.75 23.15 -2.75 L22.5 -2.9 22.35 -3.0 22.0 -3.2 M19.35 -2.3 L20.45 -2.6 20.8 -2.75 20.7 -2.75 19.7 -2.55 19.3 -2.5 19.35 -2.3 M19.3 -2.5 L18.55 -2.4 19.15 -2.75 19.3 -2.5 M25.05 -3.7 L25.1 -3.75 25.1 -3.8 25.05 -3.7 24.85 -3.8 24.3 -3.25 Q23.8 -2.85 23.5 -2.85 L22.65 -2.95 22.35 -3.0 M24.95 -3.6 L25.05 -3.7 M28.95 -3.0 L28.95 -2.95 28.75 -2.6 M28.4 3.4 L28.45 3.15 28.45 3.1 28.4 2.85 28.3 2.85 28.3 2.95 28.25 3.05 28.2 3.2 28.2 2.95 28.3 2.95 M28.5 2.95 L28.45 3.1 28.5 3.15 28.5 2.95 M24.25 4.5 L24.15 4.65 24.15 4.6 24.05 4.7 23.95 5.1 23.95 5.0 24.05 4.7 24.05 4.65 24.15 4.25 24.15 4.6 24.25 4.5 24.4 4.2 24.75 4.8 24.85 4.8 24.85 4.45 24.9 4.0 25.0 4.1 Q25.05 3.75 24.4 3.6 L23.7 3.5 23.65 3.65 23.6 3.9 23.85 4.55 23.85 4.65 23.75 4.65 23.85 5.0 Q23.3 4.75 23.2 4.2 L23.3 4.2 23.55 4.45 23.75 4.65 23.6 4.3 23.45 3.95 23.2 3.95 23.2 3.5 23.3 3.5 23.45 3.95 M26.4 15.5 L26.0 16.25 26.0 15.6 26.3 14.9 M23.7 16.85 L24.05 16.05 23.7 16.05 23.4 16.2 M21.35 16.55 L21.35 16.8 M21.15 19.65 L21.2 20.05 M16.5 2.3 L16.0 2.6 15.65 2.3 M16.3 5.0 L16.4 5.25 16.4 5.3 16.45 5.35 16.55 5.35 16.55 5.8 16.45 5.8 16.4 5.3 16.2 5.1 16.3 5.0 M19.75 3.65 L19.85 4.1 M11.4 3.65 L11.5 3.85 11.4 3.8 11.4 3.65 M11.65 10.6 L11.5 10.45 11.4 10.35 11.65 11.05 11.7 11.0 11.65 10.65 11.65 10.6 Q11.65 10.25 11.9 10.1 L12.45 9.9 12.65 9.6 12.9 9.95 13.0 10.0 13.0 10.15 13.1 10.3 13.15 10.3 13.15 10.05 13.15 10.0 13.15 10.3 M11.9 10.65 L11.8 10.8 12.15 11.2 13.1 11.85 13.35 10.8 13.15 10.4 13.1 10.3 13.0 10.85 13.0 10.5 12.65 11.05 12.55 11.05 12.65 10.55 12.75 10.25 12.85 10.15 12.9 10.0 12.9 9.95 12.85 9.95 12.6 9.9 12.45 9.9 11.9 10.65 M11.1 11.1 L11.2 11.4 11.3 11.75 11.4 11.8 11.5 11.85 Q11.4 11.55 11.65 11.05 L11.75 11.4 11.7 11.2 11.7 11.0 11.8 10.8 11.65 10.6 M11.85 11.7 L11.75 11.4 11.85 11.75 11.85 11.7 M13.95 10.05 Q13.6 10.05 13.4 10.7 L13.35 10.8 13.5 11.15 14.05 10.7 14.25 10.15 14.15 10.1 13.95 10.05 M13.0 10.15 L13.0 10.5 13.1 10.3 M12.85 10.15 L12.7 10.4 12.65 10.55 M13.0 10.15 L12.9 10.0 M6.8 2.3 L6.2 2.6 5.65 2.35 M6.0 4.85 L6.45 5.55 6.5 5.5 6.5 4.8 6.1 4.7 5.8 4.55 5.8 4.8 5.95 4.8 6.0 4.85 M5.8 4.8 L5.85 4.85 5.95 4.9 5.95 4.8 M6.45 5.55 L6.6 5.85 6.25 6.2 5.8 6.5 5.75 6.35 5.7 6.05 5.55 5.6 5.4 5.6 5.4 5.3 5.35 5.0 5.45 5.4 5.55 5.6 5.9 5.6 6.05 5.35 6.05 5.25 6.0 5.05 5.95 4.9 5.7 5.35 5.75 5.1 5.75 4.95 5.75 4.8 5.6 4.8 5.6 4.55 5.75 4.8 5.8 4.8 5.8 4.9 5.8 5.05 5.75 4.95 5.8 4.9 M6.45 5.55 L6.4 5.6 6.0 5.6 6.0 5.7 5.85 6.05 5.7 6.05 5.75 5.85 5.9 5.6 6.0 5.6 6.05 5.35 M1.95 6.15 L2.15 6.4 1.95 6.4 1.95 6.15 1.95 5.7 1.85 6.0 1.85 6.15 1.8 6.15 1.85 6.0 M4.55 11.5 Q4.55 11.85 4.7 12.05 M9.0 6.75 L9.15 7.5 9.25 7.4 9.3 7.05 9.35 6.75 9.45 6.75 9.45 7.2 9.25 7.4 M18.35 12.55 L18.8 12.95 18.95 13.35 M17.4 16.55 L17.45 16.95 M15.75 17.8 L15.7 17.2 M17.6 17.4 L18.05 17.8 18.05 17.35 18.05 17.2 18.0 17.15 17.95 17.0 17.95 16.9 17.9 16.75 17.6 17.35 17.6 17.4 M18.35 16.85 L18.3 17.25 18.45 16.75 18.35 16.85 M18.05 17.2 L17.95 16.9 M18.05 17.8 L18.05 18.15 18.25 17.65 18.3 17.25 18.15 17.7 18.15 17.8 18.05 17.35 M12.75 17.35 L12.8 18.0 12.45 17.4 12.25 17.25 11.75 17.1 11.45 17.0 11.6 17.0 11.75 16.8 M13.25 17.35 L13.9 18.45 13.95 18.25 14.0 17.95 14.0 17.8 14.05 17.85 14.25 18.0 M13.35 19.75 L13.7 19.75 13.15 19.3 13.25 19.75 13.35 19.75 13.35 20.3 13.45 20.3 13.7 20.05 13.7 19.75 13.85 20.1 13.9 20.2 13.95 20.3 13.85 20.1 13.7 20.05 13.7 20.3 13.55 20.35 13.45 20.35 13.35 20.5 13.35 20.3 13.45 20.35 13.45 20.3" fill="none" stroke="#000000" stroke-linecap="round" stroke-linejoin="round" stroke-width="0.05"/>
  </g>
</svg>
