<?xml version="1.0" encoding="UTF-8" standalone="no"?>
<svg xmlns:xlink="http://www.w3.org/1999/xlink" height="6.25px" width="28.4px" xmlns="http://www.w3.org/2000/svg">
  <g transform="matrix(1.0, 0.0, 0.0, 1.0, -1.4, -19.15)">
    <path d="M21.7 22.95 L21.65 22.95 21.7 23.15 21.7 23.05 21.7 22.95 21.7 22.9 21.65 22.9 21.65 22.95 21.65 23.05 21.7 23.15 21.7 23.8 21.8 23.35 21.8 22.9 21.7 23.05 M21.7 22.85 L21.7 22.9 21.8 22.9 21.8 22.8 21.7 22.85 21.65 22.9 21.7 22.8 Q21.75 22.45 22.05 22.4 L21.5 22.65 20.95 22.9 21.65 22.9 21.6 23.0 21.45 23.3 21.45 23.55 21.7 23.15 M21.8 22.8 L21.8 22.65 22.45 22.65 22.5 22.65 22.85 22.65 22.65 22.55 Q22.45 22.4 22.25 22.4 L22.05 22.4 M22.05 22.8 L22.3 22.8 22.55 22.8 22.85 23.0 23.15 22.95 22.45 22.65 21.8 22.8 22.05 22.8 22.2 22.85 22.3 22.9 22.3 22.8 M22.3 22.9 L22.3 23.9 22.45 23.45 22.5 23.3 22.65 23.15 22.85 23.0 22.95 23.05 23.35 23.3 23.6 23.2 23.35 22.95 23.2 22.95 23.15 22.95 23.25 22.9 23.1 22.8 22.85 22.65 Q22.55 22.4 22.25 22.4 M22.45 23.45 L22.45 23.65 22.55 23.5 22.8 23.4 23.05 23.5 23.1 23.55 23.1 24.05 23.7 24.05 23.95 23.9 23.7 23.55 23.95 23.4 24.2 23.3 M24.9 22.85 L25.55 23.0 25.55 22.65 25.1 22.75 24.75 22.8 24.9 22.85 M23.25 22.9 L23.6 22.9 23.7 22.9 23.85 22.9 24.6 22.85 24.75 22.8 23.5 22.65 23.35 22.65 23.25 22.65 23.2 22.8 22.9 22.65 22.85 22.65 M23.35 22.95 L23.25 22.9 M23.25 22.65 L22.9 22.65 M23.7 22.9 L23.7 22.95 23.75 23.0 23.85 22.9 M23.7 22.95 L23.7 23.05 23.75 23.05 23.75 23.0 23.8 23.05 23.75 23.05 M23.6 23.2 L23.65 23.15 23.7 23.05 23.35 22.95 M23.6 23.2 L23.7 23.3 23.7 23.05 M25.05 23.9 L25.4 24.0 25.45 23.8 24.9 23.9 25.05 23.9 M24.9 23.9 L24.45 23.8 24.05 23.85 23.95 23.9 24.3 24.15 25.05 24.9 25.15 24.9 25.2 24.4 25.2 24.35 25.35 24.3 25.4 24.0 25.7 24.05 25.95 24.05 25.75 23.8 25.45 23.8 M25.55 23.0 L26.0 23.05 26.1 23.05 26.6 22.9 27.15 22.8 27.6 22.9 27.55 22.8 27.3 22.3 26.85 22.2 26.45 22.15 25.7 22.35 Q25.2 22.55 25.1 22.75 M25.55 23.0 L25.6 23.4 25.75 23.8 26.45 23.7 26.45 23.65 26.4 23.65 25.9 23.65 Q25.7 23.55 25.85 23.05 L26.0 23.05 M27.35 23.5 L27.45 23.55 27.45 23.65 27.35 23.5 27.3 23.5 27.05 23.45 27.05 23.55 26.8 23.65 26.55 23.65 26.5 23.65 26.45 23.65 26.2 23.3 27.05 23.4 27.2 23.3 27.3 23.5 M25.4 24.3 L25.35 24.3 25.3 24.9 25.15 24.9 25.15 24.95 25.4 25.05 26.15 24.85 26.95 24.65 26.95 24.3 26.45 24.45 26.05 24.65 25.7 24.45 25.4 24.3 M25.75 23.8 L25.95 23.9 26.25 24.15 26.55 24.0 26.7 23.8 26.8 23.85 26.95 23.9 26.95 24.3 27.2 24.3 27.3 24.3 Q27.55 24.35 27.7 24.55 L27.95 24.55 28.05 23.9 28.7 23.9 Q28.7 24.3 28.8 24.3 L28.8 24.55 27.95 24.55 M27.05 23.4 L27.05 23.45 26.75 23.6 26.55 23.65 M27.2 24.3 L27.2 24.55 27.7 24.55 M27.05 23.45 L26.5 23.65 M28.8 23.2 L28.9 23.15 29.2 23.05 29.45 23.1 29.55 23.05 29.6 23.15 29.8 23.3 29.65 23.2 29.6 23.15 29.55 23.1 29.45 23.1 29.35 23.2 28.95 23.15 29.0 23.3 29.05 23.4 29.0 23.35 28.8 23.2 28.55 23.3 28.05 23.15 27.95 23.15 26.95 23.05 26.1 23.05 M28.05 23.15 L27.9 23.05 27.6 22.9 27.95 23.15 M2.1 23.65 L3.05 23.75 2.95 23.65 3.2 23.55 2.5 23.45 2.2 23.6 2.05 23.65 2.1 23.65 M1.95 23.65 L2.2 23.4 1.95 23.4 1.65 23.65 1.4 24.0 1.7 23.9 1.7 23.8 1.8 23.8 2.05 23.65 1.95 23.65 M2.5 23.45 L2.2 23.4 2.6 23.1 2.8 22.6 3.3 22.55 3.3 22.4 3.9 22.55 4.15 22.55 Q4.45 22.65 4.55 23.0 L4.7 23.05 5.15 22.95 5.45 22.8 6.35 23.55 6.45 23.55 6.4 23.35 6.3 23.15 6.45 23.15 6.85 23.35 7.25 23.4 8.2 23.15 Q8.2 22.8 8.35 22.8 L8.8 22.75 9.2 22.65 10.45 22.2 11.0 21.6 10.2 21.55 11.2 21.0 11.7 20.3 11.2 20.4 11.2 20.3 11.7 20.3 12.05 20.0 12.0 19.9 12.0 19.85 12.45 19.55 12.8 19.3 13.4 19.15 14.25 19.65 14.85 20.15 14.85 20.2 14.9 20.2 15.05 20.25 15.2 20.35 15.35 20.4 15.2 20.4 15.2 20.35 14.9 20.2 M1.8 23.9 L1.8 23.8 1.7 23.9 1.8 23.9 1.9 23.85 2.55 23.8 3.15 23.9 3.05 23.75 3.2 23.75 3.2 23.55 3.25 22.75 2.9 22.95 2.6 23.1 2.55 23.3 2.5 23.45 M1.7 23.9 L1.7 24.05 1.8 23.9 3.15 23.9 3.2 23.9 3.2 23.75 3.65 23.75 3.7 23.75 3.85 23.7 3.2 23.55 3.45 23.45 4.2 23.3 4.8 23.55 5.5 23.8 5.85 23.7 6.05 23.55 6.05 23.65 6.35 23.55 6.4 23.65 6.45 23.6 6.45 23.55 6.55 23.55 7.05 23.6 7.4 23.9 8.2 23.9 8.7 24.4 M3.9 22.55 L3.5 22.55 3.3 22.55 3.25 22.75 3.65 22.65 4.05 22.85 4.55 23.05 4.55 23.0 4.15 22.7 3.9 22.55 M3.45 23.95 L4.25 24.15 4.7 24.0 4.75 23.95 4.25 23.8 3.65 23.75 3.3 23.9 3.45 23.95 M3.2 23.9 L3.3 23.9 M4.25 23.8 L4.65 23.8 4.15 23.65 3.85 23.7 4.25 23.8 M3.95 24.55 L3.95 24.65 4.1 24.55 3.95 24.55 M4.65 23.8 L4.8 23.85 4.8 23.8 4.85 23.85 4.9 23.85 5.15 23.85 5.5 23.85 5.65 23.85 5.7 23.8 5.85 23.7 6.05 23.65 6.05 23.8 6.25 23.7 6.4 23.65 6.45 23.65 6.45 23.6 6.55 23.55 6.55 23.9 7.4 23.9 7.6 24.05 8.1 24.05 8.2 23.9 8.2 24.05 8.1 24.05 8.1 24.55 7.7 25.05 7.35 24.6 7.05 24.15 6.2 24.85 5.45 25.3 5.2 24.6 5.05 24.6 4.65 25.1 Q4.3 25.45 3.95 25.4 L3.95 24.65 2.65 24.9 2.0 24.6 1.7 24.05 M4.75 23.95 L4.8 23.95 4.85 23.95 4.75 23.9 4.75 23.95 M4.8 23.95 L4.7 24.0 4.1 24.55 4.75 24.6 5.05 24.6 5.05 24.55 5.2 24.55 5.2 24.6 5.4 24.65 5.15 24.25 5.05 24.1 4.8 23.95 M5.05 24.1 L5.45 24.3 5.4 24.15 5.3 24.15 5.05 24.05 5.05 24.1 M5.05 24.05 L4.95 23.9 4.85 23.9 4.85 23.95 5.05 24.05 M4.85 23.85 L4.95 23.9 5.15 23.85 M4.8 23.85 L4.85 23.85 M4.65 23.8 L4.75 23.9 4.8 23.85 M6.55 23.9 L5.7 23.85 5.65 23.85 5.3 24.15 M9.95 23.05 L10.05 23.1 9.95 22.9 9.95 23.05 M9.85 23.5 L10.3 23.9 10.4 23.85 10.35 23.7 10.3 23.65 10.3 23.6 10.35 23.7 10.4 23.8 10.55 23.55 10.3 23.5 10.15 23.35 9.95 23.55 9.95 23.15 9.8 23.05 9.65 23.25 9.6 23.3 9.85 23.5 M9.6 23.3 L9.45 23.15 9.45 23.3 9.55 23.35 9.55 23.5 9.6 23.3 M12.95 19.65 L12.5 20.05 12.55 20.3 12.95 19.8 12.95 19.65 M13.8 21.15 L13.95 21.15 13.85 21.0 13.8 21.15 13.75 21.7 13.7 22.15 13.8 22.15 Q13.8 21.95 13.95 21.7 L14.3 21.3 14.7 21.75 15.05 22.15 Q15.45 21.5 15.85 21.4 L16.1 22.05 16.2 22.45 16.25 22.4 Q16.35 22.3 16.55 22.15 16.55 22.65 16.7 22.9 L16.8 22.9 17.0 22.6 17.55 22.3 17.7 22.9 17.95 23.65 17.95 22.9 18.0 22.7 18.05 22.7 17.95 22.9 M13.85 21.0 L13.7 20.8 Q13.5 20.55 13.2 20.55 12.7 20.55 12.7 21.1 L12.8 21.55 13.05 21.8 13.55 21.85 13.55 21.75 13.8 21.15 M14.95 20.9 L14.65 21.1 14.45 21.15 14.3 21.0 13.95 20.8 13.9 20.95 13.85 21.0 M14.85 20.15 L14.8 20.15 14.8 20.3 14.95 20.65 14.7 20.3 14.45 20.05 14.2 20.1 14.05 20.3 14.25 20.6 14.65 21.1 M12.4 20.2 L12.3 20.3 12.3 20.4 12.4 20.2 12.45 20.05 12.5 20.05 12.4 20.2 M13.55 21.85 L13.45 22.3 12.7 22.05 11.75 21.8 Q11.5 21.8 11.4 22.3 L11.3 22.8 12.35 23.05 12.7 23.15 13.2 23.0 13.55 22.9 14.3 22.65 14.7 22.85 Q14.85 23.05 15.35 23.05 15.6 23.05 15.75 23.2 L15.85 23.4 15.95 23.5 16.1 23.55 16.1 22.9 16.45 23.15 M11.3 22.8 L11.2 22.9 11.25 23.4 11.3 23.55 11.25 23.6 11.15 23.7 11.25 23.7 11.3 23.75 11.6 23.75 11.75 23.75 11.9 23.7 12.0 23.7 12.05 23.7 12.05 23.55 12.3 23.55 12.2 23.45 12.05 23.45 12.0 23.45 12.45 23.3 12.45 23.15 12.65 23.15 12.45 23.1 12.35 23.05 M11.2 21.65 L11.2 21.55 11.05 21.4 11.0 21.6 11.2 21.65 M11.3 22.8 L11.25 22.8 Q10.8 22.8 10.5 23.05 L10.25 23.25 10.55 23.5 10.55 23.3 11.25 23.4 M10.8 23.55 L10.6 23.55 10.75 23.65 11.05 23.6 10.8 23.55 M11.05 23.8 L11.1 23.8 11.15 23.7 11.1 23.65 11.05 23.65 11.05 23.8 M11.25 23.6 L11.1 23.65 11.05 23.6 11.3 23.55 M11.1 23.8 L11.3 23.75 11.45 23.8 11.6 23.75 11.55 23.85 11.7 23.9 11.7 23.8 11.75 23.9 12.0 23.8 11.9 23.7 M10.25 23.25 L10.15 23.35 10.05 23.1 10.25 23.25 M10.6 23.55 L10.55 23.5 10.55 23.55 10.6 23.55 M10.7 24.25 L10.4 23.8 10.4 23.85 10.45 24.15 10.7 24.25 11.2 24.7 11.2 24.65 11.85 25.05 11.9 25.05 12.2 24.85 11.9 24.65 11.75 24.0 11.55 24.05 11.55 23.9 11.45 23.9 11.45 23.8 11.55 23.85 11.55 23.9 11.7 23.9 11.75 23.9 12.2 23.9 12.0 23.8 12.05 23.75 12.05 23.7 12.15 23.65 12.3 23.55 12.45 23.55 12.55 23.55 12.5 23.4 12.2 23.45 M10.7 24.25 L10.9 24.5 11.2 24.85 11.2 24.7 11.3 24.8 11.55 25.15 11.65 25.15 11.9 25.05 12.0 25.1 12.15 25.05 12.75 25.25 12.95 25.3 13.05 25.3 13.85 25.0 13.8 25.0 13.5 25.05 12.5 24.75 12.45 24.7 12.45 24.8 12.2 24.85 12.45 24.7 11.8 24.0 11.75 24.0 11.7 23.9 M12.45 23.3 L12.5 23.3 12.55 23.4 12.7 23.4 12.9 23.4 12.95 23.4 13.05 23.45 Q13.25 23.5 13.5 23.7 L13.6 23.8 14.1 23.9 14.2 23.65 14.95 23.65 14.55 23.9 15.8 23.85 17.3 23.8 17.65 23.7 17.95 23.65 13.7 23.4 13.05 23.3 13.05 23.25 12.95 23.25 12.65 23.15 12.7 23.15 12.95 23.25 M12.55 23.55 L12.55 23.4 12.5 23.4 12.45 23.3 M12.1 23.7 L12.05 23.75 12.05 23.8 12.3 23.8 12.3 23.7 12.3 23.65 12.15 23.7 12.1 23.7 12.05 23.7 M12.15 23.7 L12.15 23.65 12.2 23.65 12.3 23.65 12.3 23.55 M12.55 23.65 L12.55 23.7 12.95 23.75 12.95 23.65 12.85 23.6 12.7 23.6 12.6 23.65 12.55 23.65 12.55 23.6 12.4 23.65 12.55 23.7 12.5 23.8 12.45 23.8 12.45 23.9 12.3 23.9 12.25 23.95 12.55 24.05 12.85 24.0 12.95 23.9 12.95 23.75 13.2 23.85 13.9 24.05 14.0 24.0 13.6 23.8 13.35 23.7 12.85 23.6 12.85 23.55 12.7 23.6 12.55 23.55 12.55 23.6 12.7 23.6 12.7 23.55 12.55 23.55 M12.3 23.65 L12.4 23.65 M12.3 23.8 L12.2 23.9 12.3 23.9 12.45 23.8 12.3 23.8 M11.8 24.0 L11.75 23.9 M12.45 24.7 L12.5 24.5 12.55 24.3 12.6 24.6 13.2 24.3 M12.25 23.95 L12.1 24.0 11.8 24.0 M12.2 23.9 L12.25 23.95 M13.05 23.3 L13.15 23.2 13.2 23.15 13.2 23.0 M12.9 23.4 L12.75 23.55 12.85 23.55 12.95 23.55 12.95 23.4 M12.7 23.4 L12.7 23.55 12.75 23.55 M14.3 23.9 L14.35 24.0 14.55 23.9 14.3 23.9 14.3 24.0 14.35 24.0 14.6 24.85 15.15 24.65 16.5 24.3 16.8 24.35 16.8 24.55 17.45 23.9 17.5 24.1 17.55 24.3 17.65 24.3 17.7 24.4 18.25 24.05 18.55 24.1 18.8 24.15 18.85 24.2 18.95 24.3 18.3 24.8 17.55 25.05 16.9 25.0 16.7 25.3 16.65 25.0 16.45 24.95 16.0 24.95 15.45 25.05 15.0 25.0 14.7 25.15 13.55 25.4 12.95 25.3 12.0 25.1 11.95 25.15 11.75 25.3 11.55 25.15 11.2 24.85 10.8 25.15 10.75 25.05 10.7 25.05 10.45 24.15 10.45 24.8 9.6 24.7 8.55 24.65 M14.3 24.0 L14.3 24.05 13.85 25.0 14.6 24.85 14.75 24.95 15.35 24.9 15.45 24.9 15.6 24.9 16.05 24.9 16.1 24.9 16.55 24.55 16.6 24.9 16.65 24.9 16.95 24.9 16.9 25.0 16.65 25.0 16.65 24.9 M14.3 23.9 L14.1 23.9 14.0 24.0 14.25 24.05 14.3 24.0 M16.55 23.55 L16.45 23.55 16.65 23.6 16.55 23.55 M18.7 23.8 L18.8 24.05 19.1 23.75 M16.0 24.95 L15.6 24.9 M16.0 24.95 L16.05 24.9 M16.1 24.9 L16.6 24.9 M15.0 25.0 L14.75 24.95 14.0 25.0 13.85 25.0 M13.8 25.0 Q12.85 25.0 12.6 24.6 L12.45 24.7 M15.0 25.0 L15.35 24.9 M25.15 24.95 L24.75 24.75 24.3 24.4 25.05 25.15 25.15 24.95" fill="none" stroke="#000000" stroke-linecap="round" stroke-linejoin="round" stroke-width="0.05"/>
  </g>
</svg>
