<?xml version="1.0" encoding="UTF-8" standalone="no"?>
<svg xmlns:xlink="http://www.w3.org/1999/xlink" height="32.4px" width="27.55px" xmlns="http://www.w3.org/2000/svg">
  <g transform="matrix(1.0, 0.0, 0.0, 1.0, -1.5, 8.15)">
    <path d="M6.35 -7.15 L6.4 -6.8 6.45 -6.35 6.7 -6.35 6.8 -6.65 6.8 -6.35 6.85 -6.35 6.9 -6.25 7.1 -6.4 7.25 -6.7 7.25 -6.85 7.05 -6.45 7.05 -7.05 7.15 -7.2 7.15 -7.25 7.25 -7.15 7.25 -6.85 7.4 -7.3 7.4 -7.35 7.45 -6.9 7.7 -6.35 8.05 -6.8 8.3 -7.25 8.25 -7.0 8.25 -6.5 8.5 -6.8 8.65 -7.0 8.45 -6.6 8.25 -6.15 8.15 -6.0 8.65 -6.65 9.1 -7.2 8.65 -5.8 8.65 -5.75 9.35 -6.45 9.7 -7.1 9.75 -7.25 9.75 -7.15 9.7 -7.1 9.5 -6.4 9.4 -6.0 9.9 -7.05 9.9 -6.7 9.7 -6.1 9.3 -5.55 9.4 -6.0 8.85 -5.45 9.2 -5.2 9.9 -5.75 10.45 -6.9 10.55 -7.0 10.35 -6.5 10.2 -5.9 10.2 -5.8 10.45 -6.45 10.8 -7.25 10.9 -7.3 10.8 -7.0 10.8 -6.45 11.05 -6.5 M2.95 -5.65 L3.25 -5.75 3.85 -6.35 3.95 -6.45 4.05 -6.6 4.4 -7.15 4.3 -6.8 4.2 -6.45 4.55 -6.6 4.85 -6.8 4.95 -6.8 4.4 -6.35 4.05 -6.0 3.95 -6.0 4.0 -6.3 4.05 -6.6 M7.55 -6.25 L7.5 -6.25 7.5 -6.35 7.55 -6.25 7.55 -6.2 8.1 -5.6 8.4 -5.45 8.45 -5.6 8.6 -6.0 8.65 -5.75 8.8 -5.5 8.85 -5.45 8.6 -5.4 8.4 -5.45 8.15 -5.1 7.75 -5.75 7.55 -6.2 M26.35 -6.75 L26.05 -6.7 26.05 -6.6 25.85 -6.25 25.55 -6.15 25.15 -6.2 24.85 -6.3 23.95 -5.9 22.15 -6.4 22.0 -6.45 21.55 -6.45 21.5 -6.45 21.7 -6.6 20.0 -7.05 21.2 -7.3 21.1 -7.45 20.6 -8.15 19.7 -6.7 Q18.95 -5.55 18.35 -5.55 L18.25 -5.55 17.1 -5.4 16.75 -5.45 16.6 -5.75 16.6 -6.05 16.15 -6.1 16.05 -5.9 16.05 -6.1 15.8 -6.15 15.55 -6.2 13.9 -6.35 13.85 -6.35 13.2 -6.25 13.05 -6.25 13.3 -5.8 12.5 -6.0 12.4 -6.15 13.05 -6.25 12.7 -6.5 12.2 -6.7 11.6 -6.5 11.5 -6.5 11.75 -6.65 12.1 -6.7 12.2 -6.7 13.55 -7.05 14.4 -7.15 15.8 -6.7 16.05 -6.6 16.1 -6.75 16.25 -7.15 16.15 -6.85 16.15 -6.75 16.2 -6.9 16.25 -7.0 16.25 -6.9 16.15 -6.35 16.1 -6.1 16.15 -6.1 16.2 -6.2 16.35 -6.6 16.35 -6.5 16.6 -6.1 16.6 -6.35 17.05 -6.35 17.5 -6.1 17.5 -6.0 17.3 -5.95 17.85 -5.75 Q18.05 -5.6 18.25 -5.55 L18.3 -5.6 19.05 -6.25 19.0 -7.15 18.85 -6.65 18.45 -6.25 18.4 -6.5 18.35 -6.75 18.4 -7.0 M15.95 -6.4 L16.05 -6.1 16.05 -6.45 16.1 -6.6 16.05 -6.6 15.95 -6.4 15.95 -6.45 15.8 -6.25 15.8 -6.15 15.95 -6.4 M16.05 -6.6 L15.95 -6.45 15.8 -6.7 M16.1 -6.6 L16.1 -6.65 16.05 -6.6 M16.15 -6.35 L16.15 -6.45 16.1 -6.6 M16.1 -6.75 L16.15 -6.75 M16.1 -6.65 L16.1 -6.75 M16.15 -6.45 L16.2 -6.9 M19.05 -6.25 L19.45 -6.8 19.45 -6.7 19.3 -6.3 19.1 -6.1 19.05 -6.25 M13.85 -6.35 Q13.7 -6.55 13.7 -6.75 L13.75 -7.05 13.65 -7.05 13.45 -6.45 13.45 -6.9 13.55 -7.05 M16.6 -6.1 L16.6 -6.05 16.7 -6.05 16.95 -6.0 17.3 -5.95 17.05 -5.9 16.7 -6.05 M16.1 -6.1 L16.05 -6.1 M20.05 1.35 L20.05 1.3 20.2 0.9 20.3 0.8 20.1 0.1 20.1 -0.7 20.6 0.0 20.7 0.55 21.1 0.35 20.9 0.9 20.45 1.45 20.35 1.9 20.0 2.4 19.9 2.4 19.75 2.95 19.75 3.05 19.65 2.6 19.6 2.15 19.6 2.05 19.9 2.4 20.05 1.35 19.75 1.9 19.75 1.8 19.8 0.3 19.75 0.2 19.75 0.25 19.75 0.5 19.6 1.25 19.2 2.4 19.2 2.3 19.15 2.85 19.0 2.9 18.95 3.05 18.65 1.65 18.55 1.2 18.55 1.25 18.15 2.25 18.15 2.15 18.25 1.2 18.35 0.35 18.55 1.2 18.8 0.0 18.95 0.05 19.25 0.1 19.55 -0.25 19.4 -0.35 19.15 -0.15 19.15 -0.35 19.4 -0.35 19.65 -0.55 19.95 -0.85 19.6 -0.3 19.55 -0.25 19.7 0.0 19.75 -0.25 19.75 0.2 19.7 0.0 19.5 1.05 19.2 2.3 19.25 1.45 19.25 1.0 19.2 0.8 19.2 0.75 19.25 1.0 M25.9 -7.0 L25.6 -7.15 24.5 -7.3 24.9 -6.85 25.35 -6.8 25.75 -6.85 25.9 -7.0 26.1 -7.0 25.95 -6.9 26.05 -6.7 25.25 -6.55 25.05 -6.4 24.85 -6.3 24.7 -6.45 25.25 -6.55 25.75 -6.85 25.95 -6.9 25.9 -7.0 M21.7 -6.6 L22.3 -7.0 23.25 -7.5 22.65 -7.5 Q21.8 -7.05 21.55 -7.05 L21.2 -7.3 22.4 -7.6 23.25 -7.6 23.25 -7.5 23.3 -7.45 23.35 -7.4 Q23.25 -6.95 22.45 -6.65 L22.0 -6.45 21.7 -6.6 M23.75 -6.9 L23.9 -7.15 23.85 -6.9 23.8 -6.7 23.75 -6.9 23.6 -6.6 23.55 -6.7 23.5 -7.35 23.45 -7.3 23.4 -7.25 23.4 -7.2 23.35 -7.05 23.35 -7.15 23.4 -7.25 23.45 -7.4 23.5 -7.35 M25.25 0.55 L25.1 0.3 25.1 0.35 25.2 0.45 25.25 0.55 25.45 0.75 M24.75 0.1 L25.05 0.3 25.05 0.25 25.1 0.3 25.05 0.3 25.1 0.65 25.1 0.35 M25.1 0.65 L25.1 1.15 M20.7 0.55 L20.75 0.75 20.45 0.75 20.3 0.95 20.35 1.2 20.45 1.45 20.4 1.45 20.35 1.2 M20.05 1.35 L20.25 1.0 20.3 0.95 20.3 0.8 20.45 0.75 20.7 0.55 M24.65 3.3 L24.7 3.6 24.85 3.95 25.45 3.2 25.25 3.65 25.1 3.85 25.15 3.7 25.2 3.65 25.1 3.85 M21.0 8.25 L20.7 8.35 20.65 8.55 20.7 8.85 20.75 9.1 20.85 9.0 20.9 8.75 21.1 8.65 21.35 8.75 21.45 8.3 21.2 8.55 21.2 8.1 21.0 8.25 20.7 8.25 20.7 8.35 M25.95 16.65 L26.25 16.7 M26.55 17.45 L25.65 17.55 25.45 17.55 Q25.3 17.5 25.3 17.25 M28.1 15.95 L28.4 15.7 28.75 16.05 28.9 16.45 28.9 16.75 28.65 17.1 28.7 17.1 28.75 17.1 29.0 16.9 29.05 16.9 28.75 17.1 M28.7 17.1 L28.4 17.2 M24.05 16.6 L23.85 16.75 M24.3 17.1 L23.95 17.45 M23.25 21.65 Q22.85 21.45 22.75 20.95 M27.85 19.7 L27.8 19.8 27.75 19.95 27.75 19.7 27.85 19.7 27.85 19.6 27.95 19.6 28.0 19.85 28.05 19.7 28.05 19.85 28.0 19.85 28.0 19.9 27.95 20.15 M12.45 0.3 L12.35 0.3 12.35 0.65 12.45 0.65 12.45 1.0 12.5 1.0 12.55 1.1 12.55 0.75 12.5 0.5 12.45 0.3 M12.35 0.65 L12.35 1.35 12.45 1.25 12.45 1.0 M13.15 6.0 L13.45 7.2 13.5 7.2 13.5 6.35 13.7 6.75 14.0 6.7 M13.15 11.95 L13.1 12.05 13.0 12.05 Q13.0 11.95 13.15 11.95 M8.55 2.05 L8.55 2.35 8.55 2.25 8.55 2.05 8.4 1.65 8.2 1.0 8.2 1.1 8.1 1.6 8.0 1.9 7.95 2.05 7.95 1.9 7.85 1.9 Q7.8 1.65 7.9 1.35 L7.95 1.3 7.95 0.55 8.0 0.65 8.1 0.95 8.2 0.8 8.65 1.35 Q8.65 1.15 8.8 1.0 L9.05 1.15 9.1 1.35 9.05 1.6 9.0 1.8 9.0 2.25 8.9 2.25 8.9 1.8 8.9 1.1 9.0 1.8 8.9 1.8 M8.0 1.9 L8.05 1.6 8.1 1.6 8.1 1.2 8.1 0.95 7.95 1.3 7.95 1.9 8.0 1.9 M1.6 0.85 L1.5 1.35 1.5 1.25 1.55 0.9 1.6 0.85 1.6 0.8 1.6 0.7 1.6 0.55 1.6 0.1 1.65 0.55 1.9 0.7 2.15 0.9 2.2 0.9 2.35 0.5 2.3 0.3 2.4 0.3 2.4 0.6 2.2 1.45 2.0 1.45 1.95 1.5 1.95 1.45 Q1.7 1.3 1.65 0.7 L1.65 0.55 1.6 0.55 M2.4 0.6 L2.35 0.5 M2.15 0.9 L2.05 0.9 2.05 0.95 1.95 1.1 1.95 1.45 2.0 1.45 2.2 0.95 2.15 0.9 M2.2 0.95 L2.2 0.9 M9.15 6.85 L9.1 7.4 9.0 8.0 9.0 7.95 8.95 7.5 8.8 8.1 8.8 6.95 8.9 7.25 8.95 7.5 8.95 7.4 8.9 7.25 M5.15 6.85 L4.9 6.85 Q4.9 7.1 5.4 7.6 L5.35 7.15 M5.95 17.1 Q5.75 17.1 5.5 16.9 5.2 16.65 5.15 16.2 5.5 16.85 5.95 17.1 L6.0 17.1 6.05 17.1 6.45 17.05 6.45 17.25 6.45 17.3 6.65 17.35 6.4 17.8 6.45 17.3 6.35 17.25 6.2 17.45 5.6 17.65 5.25 17.55 4.95 17.15 5.0 16.9 M4.65 18.3 L4.95 18.55 5.0 18.65 Q5.3 19.0 5.7 19.0 L6.25 18.85 6.0 18.7 5.15 18.15 5.25 18.15 5.8 18.6 6.0 18.7 6.35 18.8 6.55 18.7 Q6.4 18.25 5.4 17.95 L4.65 17.8 M6.45 17.05 L6.35 17.25 6.0 17.1 M11.3 17.0 L10.95 17.35 10.75 17.1 10.6 16.85 Q10.4 17.45 9.85 17.65 L9.65 17.25 M4.95 18.55 L4.95 18.6 5.0 18.65 5.2 19.1 5.75 19.35 6.45 18.95 6.55 18.9 6.5 18.85 6.3 18.9 6.25 18.85 6.35 18.8 6.5 18.85 6.6 18.85 6.55 18.7 6.8 18.55 Q6.9 18.45 6.95 18.45 L6.9 18.55 6.75 18.7 6.6 18.85 6.6 18.9 6.55 18.9 6.6 18.85 6.8 18.55 6.9 18.55 M5.0 22.15 L5.1 22.35 5.45 22.35 5.6 22.1 5.6 22.0 5.55 21.75 5.5 21.65 5.25 22.1 5.3 21.8 5.3 21.7 5.3 21.55 5.15 21.55 5.15 21.3 5.3 21.55 5.35 21.55 5.35 21.3 5.65 21.45 6.05 21.55 6.05 22.25 6.0 22.25 6.0 22.3 6.15 22.6 5.8 22.9 5.35 23.25 5.3 23.05 5.25 22.8 5.1 22.35 4.95 22.35 4.95 22.05 4.9 21.75 5.0 22.15 M5.5 21.65 L5.5 21.55 5.35 21.55 5.4 21.6 5.5 21.65 M5.6 22.1 L5.55 22.35 5.95 22.35 6.0 22.3 5.55 21.6 5.5 21.55 M5.3 21.7 L5.35 21.65 5.35 21.55 M5.3 21.7 L5.35 21.8 5.35 21.65 M5.55 22.35 L5.45 22.35 5.3 22.55 5.25 22.8 5.4 22.8 5.55 22.4 5.55 22.35 M8.55 23.5 L8.7 24.25 8.8 24.15 8.85 23.8 8.9 23.5 9.0 23.5 9.0 23.95 8.8 24.15 M15.55 19.35 L15.15 18.95 15.05 19.0 14.85 18.75 14.75 18.2 15.05 18.6 15.15 18.95 15.4 18.8 M11.05 20.6 L10.95 20.55 10.95 20.4 11.05 20.6 M19.3 20.4 L19.4 20.85 M16.0 22.55 L15.95 22.0 15.75 21.8 15.85 21.75 15.95 22.0 16.0 22.1 16.1 22.1 16.1 22.55 16.0 22.55 M15.35 17.05 L15.1 16.7 M15.3 17.7 L15.3 18.45" fill="none" stroke="#000000" stroke-linecap="round" stroke-linejoin="round" stroke-width="0.05"/>
  </g>
</svg>
