<?xml version="1.0" encoding="UTF-8" standalone="no"?>
<svg xmlns:xlink="http://www.w3.org/1999/xlink" height="11.95px" width="36.65px" xmlns="http://www.w3.org/2000/svg">
  <g transform="matrix(1.0, 0.0, 0.0, 1.0, 2.8, -11.35)">
    <path d="M25.05 12.55 L25.05 12.8 25.0 12.9 25.0 12.95 24.95 13.25 24.95 13.15 24.85 12.8 24.85 12.85 24.7 12.8 24.7 12.65 24.85 12.8 25.05 12.8 M27.6 22.65 L27.85 22.7 27.65 22.5 27.6 22.65 M29.05 22.15 L28.85 22.55 28.85 22.6 28.8 22.65 28.6 23.15 28.7 23.3 28.55 23.3 28.6 23.15 28.45 23.05 28.45 23.15 27.9 22.8 27.85 22.75 27.85 22.7 27.8 22.8 27.45 22.65 27.45 22.3 27.65 22.5 27.75 22.45 27.95 22.3 27.95 22.65 27.9 22.65 27.85 22.7 M28.45 23.05 L28.1 22.85 27.85 22.75 M28.85 22.6 L28.7 22.55 28.7 22.35 28.55 22.3 28.55 22.4 28.5 22.9 28.45 23.05 M32.1 15.55 L32.1 15.95 32.2 16.15 32.65 16.4 32.7 16.4 32.85 16.0 32.95 15.65 32.9 15.3 32.3 15.3 32.7 15.05 32.7 14.9 32.8 14.9 32.8 14.95 Q33.0 14.8 33.05 14.8 L31.95 14.8 31.95 14.4 33.3 14.6 Q33.85 14.8 33.85 15.5 L33.8 15.9 33.7 16.3 33.7 16.1 33.6 16.05 33.6 15.55 33.45 15.55 Q33.3 16.35 32.7 16.4 M32.9 15.25 L32.8 14.95 32.7 15.05 32.7 15.15 32.9 15.3 32.9 15.25 M32.1 15.95 L32.1 16.8 M32.8 21.25 L32.8 21.15 33.3 21.3 33.3 21.55 33.05 21.45 32.8 21.25 32.7 21.4 32.45 21.65 32.2 21.1 32.05 20.95 32.05 21.05 31.7 21.65 31.45 21.65 31.45 21.05 31.1 21.3 31.1 21.15 31.2 21.05 31.45 21.05 31.5 20.95 31.55 20.95 31.55 20.9 31.7 20.65 31.8 20.7 32.1 20.4 32.1 20.3 32.05 20.95 31.8 20.7 31.65 20.85 31.55 20.9 M31.45 21.05 L31.5 21.05 31.65 21.05 31.6 21.0 31.55 20.95 31.45 21.05 M31.65 21.05 L31.8 21.05 31.95 21.15 31.85 21.15 31.65 21.05 M4.8 12.05 L5.1 12.1 Q5.1 11.75 5.45 11.65 L5.65 11.65 5.9 11.45 6.45 11.4 6.5 11.5 6.55 11.7 6.55 11.75 6.7 11.8 6.95 11.85 7.45 11.9 6.7 11.85 6.7 12.3 7.6 12.05 7.6 12.15 7.55 12.2 5.8 13.65 5.6 13.6 5.6 13.05 5.2 12.8 5.1 12.25 4.7 12.15 4.8 12.05 M5.6 11.8 L5.3 11.8 5.6 11.95 5.6 11.8 5.65 11.65 5.95 11.65 6.25 11.65 6.35 11.65 6.55 11.75 6.55 11.8 6.6 11.8 6.7 11.8 6.7 11.85 6.6 11.8 M5.6 12.2 L5.65 12.25 6.15 12.35 5.9 12.15 5.6 11.95 5.6 12.2 5.1 12.1 5.05 12.15 5.1 12.25 5.45 12.35 5.6 12.35 5.6 12.2 M5.6 11.8 L6.2 11.8 6.25 11.7 6.25 11.65 M6.2 11.8 L6.25 11.8 6.55 11.8 6.25 11.7 M6.55 11.8 L6.15 12.35 6.25 12.4 6.35 12.4 6.45 12.4 6.6 12.4 6.7 12.3 6.7 12.35 6.85 12.35 7.55 12.2 M6.7 12.35 L6.5 12.8 Q6.15 13.15 5.6 13.05 L5.6 12.65 5.6 12.35 6.05 12.4 6.15 12.35 M5.6 13.05 L6.35 12.55 6.6 12.4 6.7 12.35 M6.05 12.4 L6.2 12.4 6.25 12.4 M5.6 12.65 L6.05 12.4 M1.3 22.55 L1.0 22.4 0.8 22.3 0.8 22.4 0.7 22.15 0.45 22.05 0.6 22.05 0.35 21.9 0.45 21.9 0.65 22.05 1.3 22.15 1.3 22.3 0.95 22.2 0.65 22.05 0.6 22.05 0.7 22.15 M17.95 14.4 L17.95 14.9 17.85 14.9 17.85 15.15 18.35 14.45 18.2 14.4 17.95 14.4 17.9 14.65 17.85 14.9 17.7 14.9 17.5 14.7 17.3 14.4 17.95 14.4 M18.9 14.8 L18.8 14.9 18.9 14.75 18.7 14.65 18.7 15.4 18.95 14.8 18.9 14.8 18.9 14.75 19.05 14.55 18.35 14.45 Q18.75 13.85 19.05 13.8 L19.05 14.55 19.2 14.55 19.2 14.8 19.15 14.8 19.2 14.9 19.2 15.25 18.95 14.8 18.9 14.75 M19.2 14.55 L19.1 14.7 19.15 14.8 M18.95 14.8 Q19.0 14.7 19.1 14.7 M-1.8 17.9 L-1.85 18.45 -1.7 18.4 -1.15 18.45 -0.8 18.8 -0.85 18.9 -0.65 18.9 -0.6 19.15 -0.55 19.55 -0.65 19.95 -0.65 20.4 -0.8 20.55 -1.05 20.15 -1.15 20.15 -1.4 20.35 -1.9 20.65 -1.85 20.9 -1.8 20.95 Q-1.75 20.95 -1.65 21.05 L-1.8 21.05 -1.8 20.95 -2.05 20.8 -1.85 20.9 M-0.85 18.9 L-1.4 18.9 -1.5 19.1 -1.1 19.2 -1.0 19.1 -0.85 18.9 M-1.1 19.2 L-0.95 19.3 -0.9 19.15 -0.8 19.15 -0.75 19.25 -0.65 19.4 -0.65 19.95 -0.8 20.05 -1.05 20.05 -1.05 20.15 -1.1 20.05 -1.15 20.15 -1.65 19.95 -1.9 19.55 -2.05 19.4 -2.05 19.65 -1.95 20.35 -1.9 20.65 -2.1 20.65 -2.45 20.65 -2.8 20.3 -2.6 19.45 -2.5 18.95 -2.65 18.9 -2.4 18.6 -2.4 18.3 -2.3 18.5 -2.25 18.5 -1.85 18.45 -1.85 18.55 -1.9 19.0 -1.85 19.05 -1.65 19.1 -1.65 18.8 -1.55 19.1 -1.5 19.1 -1.5 19.2 -1.4 19.4 -1.3 19.4 -1.1 19.2 M-1.4 19.4 L-1.3 19.65 -1.1 20.05 -1.0 19.95 -0.95 19.3 -0.8 19.4 -1.0 19.95 -1.05 20.05 -1.1 20.05 -1.45 19.95 -1.9 19.55 -1.9 19.4 -1.9 19.3 -2.05 19.4 M-1.65 19.1 L-1.55 19.3 -1.5 19.2 -1.55 19.1 -1.65 19.1 M-2.4 18.6 L-2.5 18.95 -1.9 19.05 -1.9 19.0 -2.3 18.5 -2.4 18.6 M-1.55 19.3 L-1.55 19.4 -1.4 19.4 M-1.55 19.4 L-1.85 19.05 -1.9 19.05 -1.9 19.3" fill="none" stroke="#000000" stroke-linecap="round" stroke-linejoin="round" stroke-opacity="0.08627451" stroke-width="0.05"/>
  </g>
</svg>
