<?xml version="1.0" encoding="UTF-8" standalone="no"?>
<svg xmlns:xlink="http://www.w3.org/1999/xlink" height="35.4px" width="26.4px" xmlns="http://www.w3.org/2000/svg">
  <g transform="matrix(1.0, 0.0, 0.0, 1.0, -2.05, 11.4)">
    <path d="M22.35 -9.95 L22.35 -9.8 22.2 -9.55 21.65 -9.05 21.95 -8.6 21.6 -8.95 21.55 -8.85 21.55 -8.95 21.6 -8.95 21.4 -9.15 21.0 -8.4 21.0 -9.4 21.4 -9.15 21.45 -9.2 21.65 -9.05 22.35 -9.95 22.3 -10.0 21.65 -9.45 21.65 -10.25 21.1 -10.0 20.55 -9.8 20.5 -9.75 20.45 -9.7 20.25 -9.25 19.9 -8.4 Q19.65 -8.05 19.3 -8.05 19.1 -8.05 18.3 -8.6 L18.0 -8.5 18.0 -8.55 17.3 -9.15 17.15 -9.25 16.75 -9.45 16.75 -9.4 16.55 -9.4 16.15 -9.4 15.85 -8.85 14.85 -9.65 14.75 -9.7 Q14.2 -10.0 14.0 -10.5 L13.95 -10.5 12.8 -9.65 Q13.05 -9.9 13.1 -11.25 L11.75 -9.7 11.65 -9.6 11.6 -9.15 11.6 -9.5 10.8 -8.85 10.65 -8.85 10.6 -8.95 10.6 -9.25 10.45 -9.15 Q9.5 -8.4 9.1 -8.4 8.65 -8.4 8.45 -8.95 L8.35 -8.95 8.15 -8.95 8.1 -9.0 8.35 -9.65 8.2 -10.7 8.0 -10.7 7.7 -10.35 7.75 -9.75 7.75 -9.2 7.25 -9.5 7.05 -9.2 6.85 -8.95 6.25 -9.45 6.55 -9.75 6.9 -10.0 7.65 -10.55 7.7 -10.35 7.65 -10.3 7.3 -9.65 7.25 -9.5 6.55 -9.75 M8.35 -9.65 L8.45 -9.8 Q8.75 -10.15 9.0 -10.15 L9.5 -10.0 9.6 -9.9 10.15 -10.45 10.75 -11.1 10.95 -11.4 10.95 -11.1 11.1 -11.15 11.5 -11.0 11.65 -10.7 11.75 -10.15 11.65 -9.6 11.6 -9.5 11.6 -9.6 11.65 -10.6 10.6 -9.25 10.6 -9.75 10.95 -11.1 10.35 -10.45 9.9 -9.45 9.6 -9.9 9.05 -9.4 8.45 -8.95 8.35 -9.45 8.35 -9.65 M3.55 -2.4 L3.5 -2.25 3.4 -2.05 3.45 -1.75 3.45 -1.7 3.55 -2.4 M7.55 -1.15 L7.75 -1.35 7.85 -1.5 8.4 -1.5 8.4 -1.85 8.25 -2.25 7.95 -2.05 7.45 -2.05 Q7.5 -2.5 7.65 -2.6 L8.0 -2.65 8.75 -2.4 9.0 -2.15 9.0 -2.2 9.1 -2.2 9.2 -1.85 9.45 -1.25 9.35 -1.25 9.35 -1.3 9.25 -1.45 9.25 -1.4 9.2 -1.05 8.8 -0.8 8.8 -0.85 8.7 -0.8 8.65 -0.8 8.7 -1.05 8.55 -1.45 8.35 -1.25 8.4 -1.5 8.55 -1.5 8.4 -1.85 8.45 -2.3 8.35 -2.3 8.25 -2.25 8.15 -2.4 8.2 -2.4 8.25 -2.3 8.35 -2.3 8.45 -2.4 8.45 -2.3 M9.25 -1.45 L9.2 -1.5 9.0 -1.75 9.0 -2.15 9.2 -1.85 9.25 -1.45 M8.55 -1.45 L8.55 -1.5 8.65 -1.5 8.8 -1.7 9.0 -1.7 9.0 -1.05 8.8 -0.85 8.7 -1.05 8.7 -1.5 8.65 -1.5 8.55 -1.45 M18.0 -10.7 L18.0 -10.6 17.95 -10.45 18.15 -9.95 18.25 -9.5 18.35 -9.45 18.35 -10.25 18.0 -10.7 M17.95 -10.45 L17.9 -10.35 17.9 -10.1 17.9 -10.0 18.0 -9.65 18.0 -9.6 18.25 -9.5 18.25 -9.3 19.35 -10.55 19.35 -10.65 19.4 -11.15 19.75 -10.6 20.15 -10.7 20.4 -10.65 20.5 -10.6 20.5 -10.15 20.2 -9.65 20.5 -9.75 20.65 -10.05 Q20.95 -10.45 21.35 -10.45 L21.4 -10.45 21.55 -10.45 21.9 -10.35 22.15 -10.55 M14.0 -10.5 L14.0 -10.6 14.05 -10.55 Q14.9 -11.35 15.25 -11.35 L15.3 -11.05 15.35 -10.65 15.25 -10.1 15.15 -9.55 16.4 -10.8 16.55 -10.8 16.65 -10.0 16.7 -9.75 16.8 -9.65 17.9 -9.65 17.95 -9.6 17.9 -10.0 17.85 -10.2 17.7 -10.7 17.95 -10.45 M18.0 -9.6 L18.0 -9.55 17.95 -9.6 18.0 -9.6 M19.75 -10.6 L19.75 -10.25 19.6 -9.45 19.6 -10.5 19.3 -10.25 19.15 -9.9 18.5 -9.0 18.2 -8.65 18.3 -8.6 19.5 -9.4 20.2 -9.65 19.7 -9.1 19.65 -9.0 20.2 -9.45 20.45 -9.7 M16.8 -9.65 L17.15 -9.25 18.1 -8.75 18.75 -9.7 19.3 -10.25 19.35 -10.55 19.6 -10.8 19.6 -10.5 19.75 -10.6 M16.7 -9.75 L16.7 -9.65 16.8 -9.65 M16.7 -9.65 L16.55 -9.65 16.45 -9.55 16.75 -9.45 16.7 -9.65 M15.15 -9.55 L16.15 -9.4 16.2 -10.1 16.7 -9.75 M17.7 -8.35 L17.7 -8.5 17.65 -8.5 17.65 -8.4 17.7 -8.35 17.7 -8.25 17.7 -8.1 17.7 -8.05 17.65 -7.8 17.65 -8.05 17.6 -8.05 17.55 -7.95 17.55 -8.05 17.6 -8.05 17.65 -8.1 17.65 -8.15 17.65 -8.4 M17.7 -8.25 L17.65 -8.15 17.7 -8.1 M17.7 -8.05 L17.65 -8.05 17.65 -8.1 M19.65 -9.0 L19.6 -9.0 19.05 -8.5 18.95 -8.4 18.9 -8.4 19.05 -8.5 M18.2 -8.65 L18.05 -8.55 18.0 -8.55 18.1 -8.75 18.2 -8.65 M14.75 -9.7 L14.05 -10.55 14.0 -10.5 M14.75 -9.7 L15.05 -9.6 15.15 -9.55 M11.65 -10.7 L11.65 -10.6 M12.2 -6.9 L12.3 -6.5 12.45 -6.75 12.55 -7.05 12.55 -6.5 12.9 -6.7 M14.05 -1.9 L13.9 -1.75 14.55 -1.4 14.85 -0.8 14.95 -1.25 14.95 -1.45 14.75 -1.65 14.6 -1.7 14.5 -1.65 14.4 -1.8 14.15 -2.1 14.05 -1.9 M14.85 -0.8 L14.95 -0.8 14.95 -0.95 14.95 -1.1 14.95 -1.25 M14.95 -0.95 L15.0 -0.95 15.05 -0.9 15.15 -1.25 15.05 -1.35 14.95 -1.45 M14.0 -0.9 L14.25 -1.25 14.6 -0.9 14.85 -0.6 14.85 -0.8 M19.75 -0.5 L19.6 -0.25 19.5 0.2 19.7 0.0 19.85 -0.15 19.95 -0.2 19.95 -0.05 20.0 -0.1 20.05 -0.25 20.05 0.2 19.95 -0.05 20.0 0.0 20.05 0.2 M15.2 -1.65 L15.15 -1.25 15.3 -1.0 15.25 -1.3 15.2 -1.65 M15.3 -1.0 L15.3 -0.8 15.4 -0.7 15.3 -1.0 M21.4 -10.45 L20.75 -10.0 20.55 -9.8 M22.3 -10.0 L22.1 -10.25 21.9 -10.35 21.65 -10.25 21.65 -10.35 21.55 -10.45 M21.65 -9.05 L21.65 -9.0 21.6 -8.95 M22.6 -10.05 L22.6 -9.25 M24.15 0.7 L24.15 0.4 Q23.95 0.4 23.85 0.55 L23.8 0.45 23.75 0.45 23.7 -0.05 23.6 0.3 23.5 0.3 23.5 -0.25 23.6 -0.55 23.65 -0.85 23.7 -0.45 23.7 -0.05 M23.6 0.65 L23.65 0.95 M21.15 8.1 L21.0 7.95 21.15 8.05 21.15 8.1 21.25 8.2 21.2 8.2 21.15 8.1 M27.35 11.95 L27.65 11.85 27.7 12.0 27.75 12.2 27.65 12.35 27.65 12.4 27.6 12.45 27.65 12.3 27.65 12.35 M27.75 13.25 L28.2 13.15 28.45 13.2 28.0 13.55 M25.9 17.8 L25.8 17.7 25.8 17.65 25.75 17.65 25.8 18.0 25.8 17.75 25.9 17.8 26.0 17.9 25.8 17.65 25.75 17.5 25.75 17.65 25.45 17.45 M26.15 18.1 L26.0 17.9 M21.45 18.1 L21.4 17.9 21.2 18.1 21.45 18.1 21.8 17.75 21.4 17.9 M25.35 20.65 L25.4 20.95 M25.8 18.0 L25.8 18.55 M17.5 4.45 L17.5 3.95 M10.15 5.7 L10.2 5.7 10.15 5.65 10.15 5.7 10.2 5.8 10.25 6.05 10.3 6.05 10.2 5.7 M5.5 2.5 L5.45 1.85 5.4 1.85 5.4 1.95 5.35 2.15 5.4 1.85 5.4 1.7 5.45 1.85 5.5 1.45 M10.15 5.7 L10.05 5.8 10.15 5.65 10.05 5.45 9.9 5.8 9.8 6.15 M2.1 12.4 L2.1 12.7 2.05 13.1 M2.3 17.45 L2.35 17.9 M2.6 18.05 L2.9 18.2 2.95 17.9 2.95 18.25 3.1 17.95 3.0 17.65 3.1 17.65 3.1 17.95 M2.95 18.25 L2.9 18.25 2.9 18.2 M17.6 14.75 L17.9 14.8 18.95 14.7 18.7 14.4 18.15 14.2 17.9 14.15 M18.15 14.2 L18.3 14.15 18.3 14.1 17.9 13.8 M13.9 23.35 L14.05 24.0 14.25 23.7 M19.45 19.25 L19.5 19.55 M18.85 19.6 L19.0 19.35" fill="none" stroke="#000000" stroke-linecap="round" stroke-linejoin="round" stroke-width="0.05"/>
  </g>
</svg>
