<?xml version="1.0" encoding="UTF-8" standalone="no"?>
<svg xmlns:xlink="http://www.w3.org/1999/xlink" height="8.0px" width="39.2px" xmlns="http://www.w3.org/2000/svg">
  <g transform="matrix(1.0, 0.0, 0.0, 1.0, 2.65, -14.3)">
    <path d="M28.05 19.3 L28.05 18.55 27.4 19.3 27.1 19.2 27.05 19.15 27.15 18.65 27.05 18.65 26.6 17.85 26.6 17.65 26.45 17.65 26.6 17.5 26.55 17.25 26.7 16.65 27.0 16.3 27.05 16.3 27.05 16.15 Q27.65 16.15 27.75 16.45 L27.8 16.7 27.95 16.85 Q28.45 17.25 28.55 17.75 L28.7 17.55 28.8 17.55 28.75 18.0 28.7 18.4 Q29.4 18.45 29.75 17.9 L30.2 16.8 29.7 16.6 29.1 16.55 28.75 16.6 28.3 16.8 M27.6 16.55 L27.8 17.2 27.8 16.95 27.65 16.55 27.6 16.5 27.6 16.55 M27.8 16.95 L27.8 16.7 27.65 16.55 27.6 16.4 27.6 16.5 27.05 16.3 27.05 17.15 27.15 17.3 27.45 17.3 27.45 17.35 27.6 17.4 27.45 17.65 27.7 17.65 27.65 17.9 27.6 17.9 27.45 17.7 27.25 18.1 27.15 18.65 27.6 18.1 27.8 17.25 27.8 17.2 28.05 18.55 28.4 18.0 27.9 17.15 27.8 16.95 M26.6 17.5 L26.8 17.3 27.15 17.3 27.3 17.55 27.4 17.65 27.45 17.65 27.45 17.7 27.4 17.65 26.6 17.65 26.6 17.5 M28.55 18.15 L28.55 17.75 28.4 18.0 28.55 18.15 M23.95 14.55 L24.1 14.45 24.45 14.4 24.3 14.5 24.0 14.55 23.95 14.55 23.75 14.5 23.7 14.4 23.6 14.3 23.95 14.55 M22.9 21.5 L22.95 21.55 Q23.3 21.35 23.6 21.55 L23.7 21.65 23.8 21.8 23.95 21.8 23.95 21.4 23.6 21.3 23.05 21.3 22.85 21.45 22.9 21.5 M23.6 21.05 L23.2 21.2 23.05 21.3 22.8 21.3 22.85 21.45 22.7 21.55 23.3 22.0 23.95 22.3 23.8 21.8 23.7 21.85 23.35 21.9 23.65 21.7 23.7 21.65 M35.25 20.6 L35.5 20.4 35.95 20.15 35.85 20.5 35.25 20.6 35.05 20.8 35.05 20.65 35.25 20.05 35.4 19.7 34.7 20.15 34.7 19.3 35.45 19.55 35.8 19.75 Q36.55 20.25 36.55 20.65 L36.4 21.15 36.2 21.55 35.95 20.9 35.8 21.05 35.6 21.65 35.15 21.9 34.7 21.65 Q34.5 21.3 34.45 20.65 M35.45 19.55 L35.4 19.7 35.45 19.65 35.45 19.55 M9.6 18.15 L9.45 18.4 9.3 18.4 9.6 18.15 9.6 18.1 9.65 18.1 9.75 17.8 9.7 17.8 9.45 17.65 9.1 17.3 9.05 16.95 9.15 16.55 9.2 16.15 9.3 16.05 9.85 17.05 9.95 17.45 9.95 17.5 10.2 17.8 10.2 17.4 M9.85 17.35 L9.7 17.05 9.7 17.15 9.8 17.6 9.8 17.7 9.95 17.45 9.85 17.35 M9.95 17.9 L9.9 17.85 9.85 17.85 9.95 17.9 9.95 17.8 9.9 17.85 9.8 17.7 9.75 17.75 9.8 17.8 9.8 17.85 9.85 17.85 9.85 17.9 9.95 17.9 10.2 18.0 10.2 17.8 9.95 17.8 9.95 17.5 M9.65 18.1 L9.8 17.95 9.8 17.85 9.75 17.8 9.75 17.75 9.7 17.65 9.7 17.8 M9.75 17.8 L9.8 17.8 M10.45 18.05 L10.2 18.0 10.2 18.15 9.95 17.9 9.9 18.2 9.8 18.4 9.8 18.3 9.8 17.95 9.85 17.9 M1.7 16.7 L1.7 16.45 Q1.7 16.1 2.1 16.05 L2.5 16.05 3.05 16.25 3.05 16.05 3.15 16.2 3.25 16.15 3.85 16.05 3.85 16.65 3.85 16.9 3.35 17.95 3.65 18.0 3.75 17.9 4.2 17.55 4.3 17.55 3.8 18.05 3.85 18.05 3.6 18.3 3.5 18.4 3.25 18.55 3.2 18.55 3.15 18.4 3.05 18.2 3.0 17.95 2.45 17.9 2.45 17.7 2.2 18.15 1.9 17.75 1.8 17.3 2.5 17.15 2.55 17.05 2.6 17.15 2.75 17.1 2.8 17.1 2.8 16.8 1.8 16.8 1.7 16.7 M2.45 17.7 L2.45 17.6 2.5 17.15 2.6 17.15 2.45 17.6 M3.05 16.3 L3.05 16.25 2.8 16.8 3.05 16.8 3.05 16.3 3.2 16.8 3.2 17.0 3.85 16.65 3.3 16.4 3.15 16.2 3.05 16.25 M3.2 17.0 L3.05 17.0 3.0 17.25 3.05 17.3 3.05 17.4 3.2 17.15 3.2 17.0 M3.05 17.0 L2.8 17.1 2.8 17.55 2.95 17.55 2.95 17.15 3.0 17.25 M2.95 17.55 L3.0 17.75 3.0 17.95 3.05 17.95 3.05 17.4 2.95 17.55 M3.5 18.4 L3.8 18.05 3.65 18.0 Q3.35 18.25 3.2 18.4 L3.35 17.95 3.05 17.95 3.05 18.2 M3.05 17.0 L3.05 16.8 M2.8 21.5 L3.0 21.65 3.65 21.9 4.2 21.55 3.3 21.25 2.45 20.9 2.35 21.25 2.2 21.55 2.55 21.65 2.8 21.6 2.8 21.5 2.55 21.3 2.8 21.3 2.8 21.5 M1.8 21.3 L2.2 21.55 2.1 21.4 1.8 21.3 1.95 21.9 M16.55 16.9 L16.55 17.1 16.45 17.15 16.45 16.8 16.6 16.9 16.7 16.8 16.8 17.1 16.6 16.9 16.55 16.9 M20.15 19.1 Q20.2 19.2 20.55 19.3 M-0.8 18.3 L-1.2 18.1 -1.4 18.05 -1.35 18.2 -1.15 18.7 -1.2 19.05 -1.3 19.3 -1.9 19.3 -1.95 19.25 -2.05 19.3 -2.4 19.15 -2.55 18.6 -2.5 18.4 -2.65 18.4 -2.65 18.15 -2.65 17.8 -2.3 17.15 -2.3 17.3 -2.35 17.4 -2.5 17.95 -2.65 18.15 -2.35 17.4 M-2.3 18.4 L-2.3 18.9 -1.95 19.25 -1.6 18.8 -1.55 18.05 -1.4 18.05 -1.55 17.4 Q-1.95 17.3 -2.25 17.75 L-2.5 18.4 -2.3 18.4 -2.3 17.9 -1.9 17.9 -1.8 18.1 -1.8 18.3 -1.9 18.4 -2.3 18.4" fill="none" stroke="#000000" stroke-linecap="round" stroke-linejoin="round" stroke-opacity="0.08627451" stroke-width="0.05"/>
  </g>
</svg>
