<?xml version="1.0" encoding="UTF-8" standalone="no"?>
<svg xmlns:xlink="http://www.w3.org/1999/xlink" height="26.3px" width="4.35px" xmlns="http://www.w3.org/2000/svg">
  <g transform="matrix(1.0, 0.0, 0.0, 1.0, -11.3, 17.55)">
    <path d="M13.5 -16.75 L14.05 -16.9 14.65 -16.55 14.75 -16.65 14.75 -16.9 14.7 -17.05 14.5 -17.05 14.05 -17.05 Q13.8 -17.1 13.65 -17.4 L14.45 -17.25 14.1 -17.55 14.0 -17.55 14.4 -17.5 15.0 -17.15 14.9 -17.1 15.15 -17.0 15.65 -16.8 M14.9 -17.1 L14.8 -17.1 14.7 -17.05 14.65 -17.15 14.45 -17.25 14.9 -17.1 M15.1 -13.5 L14.95 -13.5 14.95 -13.6 15.1 -13.5 M11.3 -5.4 L11.3 -5.0 11.75 -5.0 11.75 -5.4 M15.25 8.45 L15.5 8.75" fill="none" stroke="#000000" stroke-linecap="round" stroke-linejoin="round" stroke-width="0.05"/>
  </g>
</svg>
