<?xml version="1.0" encoding="UTF-8" standalone="no"?>
<svg xmlns:xlink="http://www.w3.org/1999/xlink" height="31.55px" width="19.85px" xmlns="http://www.w3.org/2000/svg">
  <g transform="matrix(1.0, 0.0, 0.0, 1.0, 0.95, -0.05)">
    <path d="M17.25 8.3 Q17.85 10.5 17.9 11.75 L17.95 12.1 18.4 21.9 18.3 24.65 18.0 26.35 Q17.6 28.25 17.05 29.1 L16.1 30.1 15.9 30.25 15.8 30.3 Q14.7 30.95 12.5 31.0 L9.7 31.1 4.4 30.9 Q2.75 30.6 1.8 29.95 0.85 29.25 0.3 27.65 L-0.45 24.55 0.1 10.8 0.5 9.15 1.35 6.65 Q2.0 4.8 3.95 2.7 5.85 0.55 9.0 0.55 12.1 0.55 14.35 3.35 16.55 6.05 17.25 8.3" fill="#c63420" fill-rule="evenodd" stroke="none"/>
    <path d="M17.25 8.3 Q16.55 6.05 14.35 3.35 12.1 0.55 9.0 0.55 5.85 0.55 3.95 2.7 2.0 4.8 1.35 6.65 L0.5 9.15 0.1 10.8 -0.45 24.55 0.3 27.65 Q0.85 29.25 1.8 29.95 2.75 30.6 4.4 30.9 L9.7 31.1 12.5 31.0 Q14.7 30.95 15.8 30.3 L15.9 30.25 16.1 30.1 17.05 29.1 Q17.6 28.25 18.0 26.35 L18.3 24.65 18.4 21.9 17.95 12.1 17.9 11.75 Q17.85 10.5 17.25 8.3 Z" fill="none" stroke="#541f1c" stroke-linecap="round" stroke-linejoin="round" stroke-width="1.0"/>
    <path d="M17.95 12.1 L17.95 12.3 17.9 12.3 Q9.35 10.7 -0.05 13.05 L-0.1 12.8 0.8 8.75 Q1.6 5.75 3.55 3.65 5.5 1.55 8.8 1.45 12.05 1.35 14.25 3.75 16.4 6.15 16.9 8.1 L17.55 10.55 17.75 11.45 17.95 12.1" fill="#ec4f3a" fill-rule="evenodd" stroke="none"/>
    <path d="M17.95 12.1 L17.75 11.45 17.55 10.55 16.9 8.1 Q16.4 6.15 14.25 3.75 12.05 1.35 8.8 1.45 5.5 1.55 3.55 3.65 1.6 5.75 0.8 8.75 L-0.1 12.8 -0.05 13.05 Q9.35 10.7 17.9 12.3 L17.95 12.3 18.4 21.9 Q17.4 24.55 15.95 25.8 L15.45 26.05 12.5 26.5 Q9.7 26.85 7.05 26.6 L4.2 26.25 Q0.55 24.85 -0.55 21.45 L-0.1 12.8 0.1 10.8 0.5 9.15 1.35 6.65 Q2.0 4.8 3.95 2.7 5.85 0.55 9.0 0.55 12.1 0.55 14.35 3.35 16.55 6.05 17.25 8.3 17.85 10.5 17.9 11.75 L17.95 12.1" fill="#e83c25" fill-rule="evenodd" stroke="none"/>
    <path d="M18.4 21.9 L18.3 24.65 18.0 26.35 Q17.6 28.25 17.05 29.1 L16.1 30.1 15.9 30.25 15.8 30.3 Q14.7 30.95 12.5 31.0 L9.7 31.1 4.4 30.9 Q2.75 30.6 1.8 29.95 0.85 29.25 0.3 27.65 L-0.45 24.55 -0.55 21.45 Q0.55 24.85 4.2 26.25 L7.05 26.6 Q9.7 26.85 12.5 26.5 L15.45 26.05 15.95 25.8 Q17.4 24.55 18.4 21.9" fill="#d44632" fill-rule="evenodd" stroke="none"/>
    <path d="M14.75 30.05 Q9.1 31.1 3.3 30.35 L4.1 26.3 Q9.4 26.65 14.05 26.15 14.25 28.75 14.75 30.05" fill="#c11e0e" fill-rule="evenodd" stroke="none"/>
    <path d="M4.1 13.05 Q2.6 13.05 1.55 14.05 0.5 15.1 0.5 16.55 L0.5 21.4 Q0.5 22.85 1.55 23.85 2.6 24.85 4.1 24.85 L13.9 24.85 Q15.45 24.85 16.5 23.85 17.55 22.85 17.55 21.4 L17.55 16.55 Q17.55 15.1 16.5 14.05 15.45 13.05 13.9 13.05 L4.1 13.05" fill="#ffd6d4" fill-rule="evenodd" stroke="none"/>
    <path d="M4.05 13.05 L14.35 13.05 Q15.9 13.05 17.05 14.05 18.15 15.1 18.15 16.55 L18.15 21.45 Q18.15 22.9 17.05 24.0 15.9 25.05 14.35 25.05 L4.05 25.05 Q2.5 25.05 1.35 24.0 0.25 22.95 0.25 21.45 L0.25 16.55 Q0.25 15.1 1.35 14.05 2.5 13.05 4.05 13.05" fill="#ff7761" fill-rule="evenodd" stroke="none"/>
    <path d="M15.6 21.55 L15.6 17.65 Q15.6 16.5 14.8 15.65 14.0 14.85 12.9 14.85 L5.6 14.85 Q4.5 14.85 3.7 15.65 2.9 16.5 2.9 17.65 L2.9 21.55 Q2.9 22.7 3.7 23.5 4.5 24.35 5.6 24.35 L12.9 24.35 Q14.0 24.35 14.8 23.5 15.6 22.7 15.6 21.55" fill="#c11e0e" fill-rule="evenodd" stroke="none"/>
    <path d="M4.55 14.9 L13.0 14.9 Q14.3 14.9 15.25 15.7 16.2 16.55 16.2 17.7 L16.2 21.6 Q16.2 22.75 15.25 23.55 14.3 24.4 13.0 24.4 L4.55 24.4 Q3.3 24.4 2.35 23.55 1.45 22.75 1.45 21.6 L1.45 17.7 Q1.45 16.55 2.35 15.7 3.3 14.9 4.55 14.9" fill="#c11e0e" fill-rule="evenodd" stroke="none"/>
    <path d="M15.55 19.5 L15.55 16.8 Q15.55 15.95 14.65 15.4 13.75 14.85 12.55 14.85 L4.5 14.85 Q3.3 14.85 2.4 15.4 1.5 15.95 1.5 16.8 L1.5 19.5 Q1.5 20.3 2.4 20.9 3.25 21.5 4.5 21.5 L12.55 21.5 Q13.8 21.5 14.65 20.9 15.55 20.3 15.55 19.5" fill="#e83c25" fill-rule="evenodd" stroke="none"/>
    <path d="M6.15 13.4 L8.05 13.4 8.2 15.0 6.5 15.0 6.15 13.4 M9.8 13.4 L11.55 13.4 11.45 15.0 9.85 15.0 9.8 13.4 M13.55 13.4 L14.15 13.4 15.75 13.7 14.5 15.3 13.05 15.0 13.55 13.4 M17.6 15.2 Q18.05 15.95 18.05 16.85 L18.05 17.1 15.8 17.5 15.8 16.75 15.7 16.2 17.6 15.2 M18.05 18.7 L18.05 20.25 15.8 20.35 15.8 18.95 18.05 18.7 M18.0 22.15 Q17.8 23.3 16.9 24.1 L16.6 24.35 14.85 22.95 14.95 22.85 15.7 21.9 18.0 22.15 M14.4 25.15 L14.15 25.15 11.95 25.15 11.65 23.65 12.8 23.65 13.3 23.6 14.4 25.15 M9.6 25.15 L7.4 25.15 7.25 23.65 9.4 23.65 9.6 25.15 M5.45 25.15 L3.65 25.15 3.55 25.15 4.35 23.6 4.8 23.65 5.6 23.65 5.45 25.15 M1.4 24.5 L0.9 24.1 Q0.35 23.65 0.15 23.05 -0.2 22.4 -0.2 21.65 L-0.2 21.55 1.75 21.3 2.1 22.35 2.6 22.85 3.05 23.1 1.4 24.5 M-0.2 19.95 L-0.2 18.45 1.7 18.4 1.7 19.25 1.75 19.6 1.75 19.8 -0.2 19.95 M-0.2 17.0 L-0.2 16.85 Q-0.2 15.8 0.35 15.05 L2.1 15.85 1.7 16.75 1.7 17.1 -0.2 17.0 M2.1 13.65 L3.65 13.4 4.3 13.4 4.85 15.0 4.45 15.0 3.3 15.2 2.1 13.65" fill="#191919" fill-rule="evenodd" stroke="none"/>
    <path d="M6.15 13.4 L6.5 15.0 4.85 15.0 4.3 13.4 6.15 13.4 M8.2 15.0 L8.05 13.4 9.8 13.4 9.85 15.0 8.2 15.0 M11.55 13.4 L13.55 13.4 13.05 15.0 11.45 15.0 11.55 13.4 M15.75 13.7 L16.9 14.4 17.6 15.2 15.7 16.2 14.95 15.55 14.5 15.3 15.75 13.7 M18.05 17.1 L18.05 18.7 15.8 18.95 15.8 17.5 18.05 17.1 M18.05 20.25 L18.05 21.65 18.0 22.15 15.7 21.9 15.8 21.1 15.8 20.35 18.05 20.25 M16.6 24.35 Q15.7 25.05 14.4 25.15 L13.3 23.6 Q14.15 23.5 14.85 22.95 L16.6 24.35 M11.95 25.15 L9.6 25.15 9.4 23.65 11.65 23.65 11.95 25.15 M7.4 25.15 L5.45 25.15 5.6 23.65 7.25 23.65 7.4 25.15 M3.55 25.15 Q2.35 25.1 1.4 24.5 L3.05 23.1 Q3.6 23.55 4.35 23.6 L3.55 25.15 M-0.2 21.55 L-0.2 19.95 1.75 19.8 1.75 21.1 1.75 21.3 -0.2 21.55 M-0.2 18.45 L-0.2 17.0 1.7 17.1 1.7 18.4 -0.2 18.45 M0.35 15.05 L0.9 14.4 Q1.45 13.9 2.1 13.65 L3.3 15.2 2.55 15.55 2.1 15.85 0.35 15.05" fill="#eff268" fill-rule="evenodd" stroke="none"/>
    <path d="M10.85 2.8 L11.25 4.7 Q8.85 5.4 6.4 6.35 L7.05 4.0 Q8.85 3.3 10.85 2.8 M11.4 6.6 L11.7 8.65 6.0 10.5 Q6.0 9.35 6.15 8.3 8.8 7.2 11.4 6.6 M11.7 10.7 L11.65 12.2 10.15 12.3 6.05 12.5 6.05 12.45 Q8.8 11.3 11.7 10.7 M10.5 1.3 L7.7 2.3 8.25 1.35 Q8.95 0.85 10.45 1.1 L10.45 1.0 10.5 1.3" fill="#191919" fill-rule="evenodd" stroke="none"/>
    <path d="M10.85 2.8 Q8.85 3.3 7.05 4.0 L7.7 2.3 10.5 1.3 10.85 2.8 M6.4 6.35 Q8.85 5.4 11.25 4.7 L11.4 6.6 Q8.8 7.2 6.15 8.3 L6.4 6.35 M11.7 8.65 L11.7 10.7 Q8.8 11.3 6.05 12.45 L6.0 10.5 11.7 8.65" fill="#eff268" fill-rule="evenodd" stroke="none"/>
  </g>
</svg>
