<?xml version="1.0" encoding="UTF-8" standalone="no"?>
<svg xmlns:xlink="http://www.w3.org/1999/xlink" height="155.2px" width="648.75px" xmlns="http://www.w3.org/2000/svg">
  <g transform="matrix(1.0, 0.0, 0.0, 1.0, -47.1, -221.85)">
    <path d="M66.75 319.9 L70.15 309.15 70.2 309.1 81.7 313.65 84.2 313.8 90.6 317.25 92.9 317.3 98.35 320.4 101.0 320.25 106.5 323.6 109.1 323.5 117.0 327.85 119.85 327.65 128.25 332.4 131.0 331.95 138.75 336.55 134.55 339.5 134.2 339.75 133.0 340.6 132.95 340.65 131.85 341.45 131.75 341.4 131.4 341.7 131.05 341.95 125.5 345.8 121.95 348.25 120.8 349.1 120.15 349.5 118.95 350.35 118.25 350.8 111.0 355.85 49.1 375.05 51.6 365.05 52.8 363.5 54.65 354.65 56.2 352.95 57.9 344.8 59.35 343.1 60.2 337.25 61.7 335.45 62.65 329.8 64.1 328.2 65.25 321.55 66.75 319.9" fill="#e2a83a" fill-rule="evenodd" stroke="none"/>
    <path d="M66.75 319.9 L70.15 309.15 70.2 309.1 81.7 313.65 84.2 313.8 90.6 317.25 92.9 317.3 98.35 320.4 101.0 320.25 106.5 323.6 109.1 323.5 117.0 327.85 119.85 327.65 128.25 332.4 131.0 331.95 138.75 336.55 134.55 339.5 134.2 339.75 133.0 340.6 132.95 340.65 131.85 341.45 131.75 341.4 131.4 341.7 131.05 341.95 125.5 345.8 121.95 348.25 120.8 349.1 120.15 349.5 118.95 350.35 118.25 350.8 111.0 355.85 49.1 375.05 51.6 365.05 52.8 363.5 54.65 354.65 56.2 352.95 57.9 344.8 59.35 343.1 60.2 337.25 61.7 335.45 62.65 329.8 64.1 328.2 65.25 321.55 66.75 319.9 Z" fill="none" stroke="#936102" stroke-linecap="round" stroke-linejoin="round" stroke-width="4.0"/>
    <path d="M70.15 309.15 L70.2 309.1 81.7 313.65 76.7 316.6 70.15 309.15 M84.2 313.8 L90.6 317.25 86.05 319.95 80.65 315.75 84.2 313.8 M92.9 317.3 L98.35 320.4 95.85 321.8 90.15 318.95 92.9 317.3 M101.0 320.25 L106.5 323.6 97.4 328.9 92.6 325.1 101.0 320.25 M109.1 323.5 L117.0 327.85 112.7 330.3 104.5 326.2 109.1 323.5 M119.85 327.65 L128.25 332.4 125.35 334.05 120.2 330.95 108.7 337.8 106.0 335.65 119.85 327.65 M131.0 331.95 L138.75 336.55 134.55 339.5 126.45 334.6 131.0 331.95 M118.25 350.8 L111.0 355.85 103.85 347.8 110.4 343.95 118.25 350.8 M77.55 317.55 L79.6 316.4 84.85 320.6 81.9 322.3 81.7 322.3 77.55 317.55 M82.45 323.25 L88.95 319.6 94.65 322.5 86.25 327.35 86.1 327.4 82.45 323.25 M86.95 328.35 L87.05 328.3 91.4 325.75 96.2 329.55 90.8 332.7 90.75 332.7 86.95 328.35 M91.55 333.6 L103.25 326.85 111.45 331.1 96.85 339.5 96.65 339.55 91.55 333.6 M97.5 340.5 L104.7 336.35 107.45 338.5 105.5 339.7 109.5 343.15 103.3 346.75 103.05 346.85 97.5 340.5" fill="#f5bc51" fill-rule="evenodd" stroke="none"/>
    <path d="M93.05 361.45 L91.65 361.9 88.1 353.0 62.15 361.6 60.6 371.55 59.0 371.95 60.65 362.1 51.6 365.05 52.8 363.5 73.95 356.45 73.2 348.55 54.65 354.65 56.2 352.95 62.65 350.8 64.0 342.75 57.9 344.8 59.35 343.1 72.25 338.8 71.75 333.4 60.2 337.25 61.7 335.45 65.45 334.25 66.45 328.55 62.65 329.8 64.1 328.2 71.0 325.85 70.4 319.9 65.25 321.55 66.75 319.9 76.7 316.6 77.5 317.5 71.65 319.45 72.25 325.5 81.7 322.3 82.45 323.25 77.75 324.8 79.75 329.55 86.1 327.4 86.95 328.35 73.05 333.0 73.55 338.4 90.75 332.7 91.55 333.6 82.65 336.6 85.5 343.25 96.65 339.55 97.5 340.5 74.5 348.1 75.35 356.0 103.05 346.85 103.85 347.8 89.35 352.6 93.05 361.45 M78.7 329.85 L76.8 325.05 67.25 328.35 66.4 333.95 78.7 329.85 M65.05 342.4 L63.85 350.4 84.3 343.65 81.6 336.9 65.05 342.4" fill="#f5c463" fill-rule="evenodd" stroke="none"/>
    <path d="M134.55 339.5 L134.2 339.75 125.95 334.9 125.95 334.95 124.95 334.3 124.9 334.3 120.05 331.45 106.45 339.7 118.95 350.35 118.25 350.8 110.4 343.95 109.5 343.15 105.5 339.7 107.45 338.5 108.7 337.8 120.2 330.95 125.35 334.05 126.45 334.6 134.55 339.5 M111.0 355.85 L93.05 361.45 89.35 352.6 103.85 347.8 111.0 355.85 M91.65 361.9 L60.6 371.55 62.15 361.6 88.1 353.0 91.65 361.9 M59.0 371.95 L49.1 375.05 51.6 365.05 60.65 362.1 59.0 371.95 M52.8 363.5 L54.65 354.65 73.2 348.55 73.95 356.45 52.8 363.5 M56.2 352.95 L57.9 344.8 64.0 342.75 62.65 350.8 56.2 352.95 M59.35 343.1 L60.2 337.25 71.75 333.4 72.25 338.8 59.35 343.1 M61.7 335.45 L62.65 329.8 66.45 328.55 65.45 334.25 61.7 335.45 M64.1 328.2 L65.25 321.55 70.4 319.9 71.0 325.85 64.1 328.2 M66.75 319.9 L70.15 309.15 76.7 316.6 66.75 319.9 M81.7 322.3 L72.25 325.5 71.65 319.45 77.5 317.5 77.55 317.55 81.7 322.3 M78.7 329.85 L66.4 333.95 67.25 328.35 76.8 325.05 78.7 329.85 M86.1 327.4 L79.75 329.55 77.75 324.8 82.45 323.25 86.1 327.4 M90.75 332.7 L73.55 338.4 73.05 333.0 86.95 328.35 90.75 332.7 M103.05 346.85 L75.35 356.0 74.5 348.1 97.5 340.5 103.05 346.85 M65.05 342.4 L81.6 336.9 84.3 343.65 63.85 350.4 65.05 342.4 M96.65 339.55 L85.5 343.25 82.65 336.6 91.55 333.6 96.65 339.55" fill="#e2a83a" fill-rule="evenodd" stroke="none"/>
    <path d="M81.7 313.65 L84.2 313.8 80.65 315.75 86.05 319.95 90.6 317.25 92.9 317.3 90.15 318.95 95.85 321.8 98.35 320.4 101.0 320.25 92.6 325.1 97.4 328.9 106.5 323.6 109.1 323.5 104.5 326.2 112.7 330.3 117.0 327.85 119.85 327.65 106.0 335.65 108.7 337.8 107.45 338.5 104.7 336.35 97.5 340.5 96.65 339.55 96.85 339.5 111.45 331.1 103.25 326.85 91.55 333.6 90.75 332.7 90.8 332.7 96.2 329.55 91.4 325.75 87.05 328.3 86.95 328.35 86.1 327.4 86.25 327.35 94.65 322.5 88.95 319.6 82.45 323.25 81.7 322.3 81.9 322.3 84.85 320.6 79.6 316.4 77.55 317.55 77.5 317.5 76.7 316.6 81.7 313.65 M128.25 332.4 L131.0 331.95 126.45 334.6 125.35 334.05 128.25 332.4 M103.05 346.85 L103.3 346.75 109.5 343.15 110.4 343.95 103.85 347.8 103.05 346.85" fill="#ffd583" fill-rule="evenodd" stroke="none"/>
    <path d="M134.2 339.75 L133.0 340.6 119.95 332.5 119.85 332.6 108.2 339.8 108.95 340.4 114.0 344.55 120.15 349.5 118.95 350.35 106.45 339.7 120.05 331.45 124.9 334.3 124.95 334.3 125.95 334.95 125.95 334.9 134.2 339.75" fill="#fcd994" fill-rule="evenodd" stroke="none"/>
    <path d="M131.05 341.95 L125.5 345.8 121.95 348.25 120.8 349.1 120.15 349.5 114.0 344.55 119.8 334.2 131.05 341.95" fill="url(#gradient0)" fill-rule="evenodd" stroke="none"/>
    <path d="M131.75 341.4 L131.4 341.7 131.05 341.95 119.8 334.2 119.85 333.55 131.75 341.4" fill="#795002" fill-rule="evenodd" stroke="none"/>
    <path d="M133.0 340.6 L132.95 340.65 131.85 341.45 131.75 341.4 119.85 333.55 119.85 333.5 119.8 333.5 119.85 332.6 119.95 332.5 133.0 340.6" fill="#bf8f34" fill-rule="evenodd" stroke="none"/>
    <path d="M119.85 332.6 L119.8 333.5 119.85 333.5 119.85 333.55 108.95 340.4 108.2 339.8 119.85 332.6" fill="#91691a" fill-rule="evenodd" stroke="none"/>
    <path d="M119.8 334.2 L114.0 344.55 108.95 340.4 119.85 333.55 119.8 334.2" fill="url(#gradient1)" fill-rule="evenodd" stroke="none"/>
    <path d="M667.2 292.25 L670.95 295.6 675.85 312.05 680.0 315.6 685.1 333.3 689.45 336.45 693.85 353.1 684.2 351.5 683.35 351.3 680.6 350.85 680.5 350.85 677.95 350.45 677.85 350.4 676.95 350.25 676.15 350.1 663.45 347.95 655.3 346.55 652.55 346.1 651.15 345.85 648.45 345.35 646.9 345.1 630.1 342.25 520.1 285.5 536.85 275.25 540.65 274.7 555.0 265.15 559.35 264.85 572.65 256.0 576.85 255.65 585.9 248.85 590.35 248.45 599.15 241.95 603.25 241.7 613.75 234.25 618.0 233.95 637.1 223.9 637.25 223.85 646.75 245.5 650.0 248.95 654.1 262.3 657.1 265.5 660.45 276.9 664.3 280.35 667.2 292.25" fill="#e2a83a" fill-rule="evenodd" stroke="none"/>
    <path d="M667.2 292.25 L670.95 295.6 675.85 312.05 680.0 315.6 685.1 333.3 689.45 336.45 693.85 353.1 684.2 351.5 683.35 351.3 680.6 350.85 680.5 350.85 677.95 350.45 677.85 350.4 676.95 350.25 676.15 350.1 663.45 347.95 655.3 346.55 652.55 346.1 651.15 345.85 648.45 345.35 646.9 345.1 630.1 342.25 520.1 285.5 536.85 275.25 540.65 274.7 555.0 265.15 559.35 264.85 572.65 256.0 576.85 255.65 585.9 248.85 590.35 248.45 599.15 241.95 603.25 241.7 613.75 234.25 618.0 233.95 637.1 223.9 637.25 223.85 646.75 245.5 650.0 248.95 654.1 262.3 657.1 265.5 660.45 276.9 664.3 280.35 667.2 292.25 Z" fill="none" stroke="#936102" stroke-linecap="round" stroke-linejoin="round" stroke-width="4.0"/>
    <path d="M657.1 265.5 L651.2 263.9 655.1 275.5 660.45 276.9 664.3 280.35 646.3 275.65 647.8 287.25 667.2 292.25 670.95 295.6 661.0 293.05 666.65 309.7 675.85 312.05 680.0 315.6 650.4 307.95 651.25 314.55 648.6 313.85 647.75 307.2 632.85 303.4 632.4 303.15 632.5 300.8 632.8 300.95 664.05 309.05 658.5 292.35 633.45 285.85 633.4 285.85 633.55 283.5 633.75 283.6 645.25 286.55 643.8 275.0 634.4 272.6 634.2 272.5 634.35 270.1 634.6 270.25 652.65 274.9 648.75 263.25 635.3 259.65 635.0 259.5 635.15 257.3 635.5 257.5 641.8 259.15 640.25 246.35 635.95 245.15 635.85 245.1 636.0 242.8 646.75 245.5 650.0 248.95 642.6 246.95 644.25 259.8 654.1 262.3 657.1 265.5 M678.95 331.7 L685.1 333.3 689.45 336.45 679.6 333.95 678.95 331.7 M631.45 319.3 L631.9 319.55 645.15 322.95 645.35 325.2 631.3 321.65 631.45 319.3" fill="#ffd583" fill-rule="evenodd" stroke="none"/>
    <path d="M660.45 276.9 L655.1 275.5 651.2 263.9 657.1 265.5 660.45 276.9 M654.1 262.3 L644.25 259.8 642.6 246.95 650.0 248.95 654.1 262.3 M646.75 245.5 L636.0 242.8 637.1 223.9 637.25 223.85 646.75 245.5 M635.85 245.1 L635.95 245.15 640.25 246.35 641.8 259.15 635.5 257.5 635.15 257.3 635.85 245.1 M635.0 259.5 L635.3 259.65 648.75 263.25 652.65 274.9 634.6 270.25 634.35 270.1 635.0 259.5 M634.2 272.5 L634.4 272.6 643.8 275.0 645.25 286.55 633.75 283.6 633.55 283.5 634.2 272.5 M633.4 285.85 L633.45 285.85 658.5 292.35 664.05 309.05 632.8 300.95 632.5 300.8 633.4 285.85 M632.4 303.15 L632.85 303.4 647.75 307.2 648.6 313.85 644.35 312.85 645.15 322.95 631.9 319.55 631.45 319.3 632.4 303.15 M651.25 314.55 L650.4 307.95 680.0 315.6 685.1 333.3 678.95 331.7 676.1 320.6 651.25 314.55 M675.85 312.05 L666.65 309.7 661.0 293.05 670.95 295.6 675.85 312.05 M667.2 292.25 L647.8 287.25 646.3 275.65 664.3 280.35 667.2 292.25 M646.9 345.1 L630.1 342.25 631.3 321.65 645.35 325.2 646.9 345.1 M679.6 333.95 L689.45 336.45 693.85 353.1 684.2 351.5 679.6 333.95" fill="#f5bc51" fill-rule="evenodd" stroke="none"/>
    <path d="M648.6 313.85 L651.25 314.55 676.1 320.6 678.95 331.7 679.6 333.95 684.2 351.5 683.35 351.3 678.65 333.75 678.55 333.7 678.0 331.5 678.05 331.45 675.3 321.1 645.6 314.1 648.45 345.35 646.9 345.1 645.35 325.2 645.15 322.95 644.35 312.85 648.6 313.85 M630.1 342.25 L598.25 325.85 605.1 308.8 631.3 321.65 630.1 342.25 M595.7 324.55 L540.45 296.05 555.85 284.6 602.75 307.65 595.7 324.55 M537.7 294.55 L520.1 285.5 536.85 275.25 553.25 283.35 537.7 294.55 M540.65 274.7 L555.0 265.15 588.45 281.6 578.85 293.45 540.65 274.7 M559.35 264.85 L572.65 256.0 583.7 261.4 571.0 270.55 559.35 264.85 M576.85 255.65 L585.9 248.85 606.75 259.05 600.2 267.1 576.85 255.65 M590.35 248.45 L599.15 241.95 606.0 245.35 597.0 251.75 590.35 248.45 M603.25 241.7 L613.75 234.25 623.05 238.85 615.8 247.8 603.25 241.7 M618.0 233.95 L637.1 223.9 636.0 242.8 618.0 233.95 M635.15 257.3 L618.05 248.9 625.25 239.9 635.85 245.1 635.15 257.3 M585.6 262.35 L615.45 277.0 610.15 289.85 573.15 271.65 585.6 262.35 M631.45 319.3 L581.4 294.7 590.9 282.8 632.4 303.15 631.45 319.3 M635.0 259.5 L634.35 270.1 622.85 264.45 626.5 255.35 635.0 259.5 M621.05 263.55 L598.7 252.6 607.45 246.1 624.8 254.5 621.05 263.55 M632.5 300.8 L612.25 290.9 617.4 278.0 633.4 285.85 632.5 300.8 M634.2 272.5 L633.55 283.5 602.55 268.25 609.0 260.2 634.2 272.5" fill="#e2a83a" fill-rule="evenodd" stroke="none"/>
    <path d="M676.15 350.1 L663.45 347.95 655.3 346.55 652.55 346.1 651.15 345.85 649.4 330.8 671.2 324.45 676.15 350.1" fill="url(#gradient2)" fill-rule="evenodd" stroke="none"/>
    <path d="M651.15 345.85 L648.45 345.35 645.6 314.1 675.3 321.1 678.05 331.45 678.0 331.5 678.55 333.7 678.65 333.75 683.35 351.3 680.6 350.85 673.6 322.4 673.4 322.35 647.85 316.6 648.05 318.4 649.4 330.8 651.15 345.85" fill="#fcd994" fill-rule="evenodd" stroke="none"/>
    <path d="M673.4 322.35 L673.6 322.4 680.6 350.85 680.5 350.85 677.95 350.45 677.85 350.4 672.1 323.55 673.4 322.35" fill="#bf8f34" fill-rule="evenodd" stroke="none"/>
    <path d="M648.05 318.4 L647.85 316.6 673.4 322.35 672.1 323.55 672.1 323.6 648.05 318.4" fill="#91691a" fill-rule="evenodd" stroke="none"/>
    <path d="M672.1 323.55 L677.85 350.4 676.95 350.25 676.15 350.1 671.2 324.45 672.1 323.6 672.1 323.55" fill="#795002" fill-rule="evenodd" stroke="none"/>
    <path d="M649.4 330.8 L648.05 318.4 672.1 323.6 671.2 324.45 649.4 330.8" fill="url(#gradient3)" fill-rule="evenodd" stroke="none"/>
    <path d="M636.0 242.8 L635.85 245.1 625.25 239.9 618.05 248.9 635.15 257.3 635.0 259.5 626.5 255.35 622.85 264.45 634.35 270.1 634.2 272.5 609.0 260.2 602.55 268.25 633.55 283.5 633.4 285.85 617.4 278.0 612.25 290.9 632.5 300.8 632.4 303.15 590.9 282.8 581.4 294.7 631.45 319.3 631.3 321.65 605.1 308.8 598.25 325.85 595.7 324.55 602.75 307.65 555.85 284.6 540.45 296.05 537.7 294.55 553.25 283.35 536.85 275.25 540.65 274.7 578.85 293.45 588.45 281.6 555.0 265.15 559.35 264.85 571.0 270.55 583.7 261.4 572.65 256.0 576.85 255.65 600.2 267.1 606.75 259.05 585.9 248.85 590.35 248.45 597.0 251.75 606.0 245.35 599.15 241.95 603.25 241.7 615.8 247.8 623.05 238.85 613.75 234.25 618.0 233.95 636.0 242.8 M585.6 262.35 L573.15 271.65 610.15 289.85 615.45 277.0 585.6 262.35 M621.05 263.55 L624.8 254.5 607.45 246.1 598.7 252.6 621.05 263.55" fill="#f5c463" fill-rule="evenodd" stroke="none"/>
    <path d="M125.75 303.15 L126.05 303.55 Q129.25 308.7 131.35 313.6 L132.45 312.8 132.4 312.7 132.1 311.9 132.0 311.45 132.0 311.4 132.45 311.55 132.6 311.65 132.0 309.2 131.0 307.2 Q130.15 304.85 131.95 305.95 135.5 309.35 137.25 313.2 138.4 315.8 138.7 318.55 138.85 320.65 138.15 321.8 137.5 323.0 135.6 323.55 136.6 326.2 136.55 327.4 136.4 329.2 134.35 330.45 132.5 331.6 131.05 331.9 L128.8 331.75 128.3 331.6 Q127.1 331.0 126.75 330.1 L125.5 326.05 123.6 324.95 122.35 324.05 121.2 322.95 121.15 322.9 120.9 322.6 Q120.0 321.6 120.2 321.0 120.3 320.65 120.75 320.7 L120.75 320.65 Q120.6 320.25 120.75 320.2 L121.15 320.35 121.75 320.8 121.9 321.05 122.95 321.6 124.25 322.1 122.7 317.45 Q119.1 317.8 114.35 310.6 L114.0 310.15 113.05 308.55 Q110.9 304.75 111.45 302.2 112.1 300.4 113.35 302.0 L113.95 302.75 114.85 304.35 114.95 304.15 114.9 304.05 115.25 304.3 115.75 305.1 115.65 305.5 Q118.25 309.35 119.95 309.1 119.3 306.9 119.0 305.15 L118.85 304.95 118.65 304.3 118.55 303.9 118.5 303.85 118.85 303.95 Q118.55 300.55 119.85 299.45 L120.15 299.25 Q120.85 298.85 121.55 299.0 123.45 299.3 125.75 303.15" fill="#5b9311" fill-rule="evenodd" stroke="none"/>
    <path d="M125.75 303.15 Q123.45 299.3 121.55 299.0 120.85 298.85 120.15 299.25 L119.85 299.45 Q118.55 300.55 118.85 303.95 L118.5 303.85 118.55 303.9 118.65 304.3 118.85 304.95 119.0 305.15 Q119.3 306.9 119.95 309.1 118.25 309.35 115.65 305.5 L115.75 305.1 115.25 304.3 114.9 304.05 114.95 304.15 114.85 304.35 113.95 302.75 113.35 302.0 Q112.1 300.4 111.45 302.2 110.9 304.75 113.05 308.55 L114.0 310.15 114.35 310.6 Q119.1 317.8 122.7 317.45 L124.25 322.1 122.95 321.6 121.9 321.05 121.75 320.8 121.15 320.35 120.75 320.2 Q120.6 320.25 120.75 320.65 L120.75 320.7 Q120.3 320.65 120.2 321.0 120.0 321.6 120.9 322.6 L121.15 322.9 121.2 322.95 122.35 324.05 123.6 324.95 125.5 326.05 126.75 330.1 Q127.1 331.0 128.3 331.6 L128.8 331.75 131.05 331.9 Q132.5 331.6 134.35 330.45 136.4 329.2 136.55 327.4 136.6 326.2 135.6 323.55 137.5 323.0 138.15 321.8 138.85 320.65 138.7 318.55 138.4 315.8 137.25 313.2 135.5 309.35 131.95 305.95 130.15 304.85 131.0 307.2 L132.0 309.2 132.6 311.65 132.45 311.55 132.0 311.4 132.0 311.45 132.1 311.9 132.4 312.7 132.45 312.8 131.35 313.6 Q129.25 308.7 126.05 303.55 L125.75 303.15 Z" fill="none" stroke="#305400" stroke-linecap="round" stroke-linejoin="round" stroke-width="3.5"/>
    <path d="M131.35 313.6 L131.95 314.95 133.55 318.65 134.8 321.6 135.55 323.6 Q136.55 326.2 136.5 327.4 136.4 329.2 134.35 330.45 132.5 331.6 131.05 331.9 L128.8 331.75 130.2 331.25 Q132.3 329.75 132.05 325.95 130.7 318.25 127.8 309.8 125.05 301.65 121.5 299.0 123.45 299.3 125.7 303.15 L126.05 303.55 Q129.25 308.7 131.35 313.6" fill="#467f09" fill-rule="evenodd" stroke="none"/>
    <path d="M131.0 307.2 Q131.0 306.8 131.25 306.95 133.55 309.0 134.85 311.6 135.7 313.2 135.7 314.4 135.65 315.5 134.75 316.25 133.8 317.05 131.95 314.95 L131.35 313.6 Q133.45 313.05 131.95 309.25 L131.0 307.2" fill="#81ad26" fill-rule="evenodd" stroke="none"/>
    <path d="M131.95 314.95 Q133.8 317.05 134.75 316.25 135.65 315.5 135.7 314.4 135.7 313.2 134.85 311.6 133.55 309.0 131.25 306.95 131.0 306.8 131.0 307.2 130.1 304.85 131.95 305.95 135.5 309.35 137.25 313.25 139.45 321.6 134.8 321.6 L133.55 318.65 131.95 314.95" fill="#477005" fill-rule="evenodd" stroke="none"/>
    <path d="M124.65 309.35 Q125.4 312.3 125.6 314.55 125.85 316.95 125.3 317.4 L124.7 317.3 124.1 316.75 Q123.25 315.6 122.2 312.05 L121.2 308.1 120.6 304.45 Q120.3 301.25 121.35 301.7 122.1 302.0 123.0 304.3 123.9 306.4 124.65 309.35 M124.3 309.35 L122.85 305.35 Q122.05 303.5 121.45 303.35 120.6 303.05 120.95 305.5 L121.55 308.45 122.45 311.6 Q123.4 314.4 124.15 315.3 L124.65 315.7 125.15 315.8 Q125.6 315.35 125.25 313.5 L124.3 309.35" fill="#94d455" fill-rule="evenodd" stroke="none"/>
    <path d="M124.3 309.35 L125.25 313.5 Q125.6 315.35 125.15 315.8 L124.65 315.7 124.15 315.3 Q123.4 314.4 122.45 311.6 L121.55 308.45 120.95 305.5 Q120.6 303.05 121.45 303.35 122.05 303.5 122.85 305.35 L124.3 309.35" fill="#a0e05e" fill-rule="evenodd" stroke="none"/>
    <path d="M124.65 309.35 Q123.9 306.4 123.0 304.3 122.1 302.0 121.35 301.7 120.3 301.25 120.6 304.45 L121.2 308.1 122.2 312.05 Q123.25 315.6 124.1 316.75 L124.7 317.3 125.3 317.4 Q125.85 316.95 125.6 314.55 125.4 312.3 124.65 309.35 M121.5 299.0 Q125.05 301.65 127.8 309.8 130.7 318.25 132.05 325.95 132.3 329.75 130.2 331.25 L128.8 331.75 128.3 331.6 Q127.1 331.0 126.75 330.1 L125.5 326.05 128.0 326.8 Q129.15 326.95 129.9 326.35 L130.5 325.4 Q130.75 324.85 130.65 324.05 130.5 322.75 129.75 321.95 L128.75 321.35 127.95 321.4 127.85 321.45 127.5 321.6 126.75 321.85 126.6 322.0 125.15 322.25 124.25 322.1 122.7 317.45 122.1 315.95 120.7 311.65 119.95 309.15 Q117.7 301.2 119.85 299.45 L120.15 299.25 Q120.8 298.85 121.5 299.0" fill="#7eba2f" fill-rule="evenodd" stroke="none"/>
    <path d="M126.6 322.0 L127.35 322.3 Q127.6 322.6 127.45 322.85 L127.15 323.15 Q126.4 323.75 124.95 323.4 123.5 323.1 122.9 322.35 L122.7 321.9 Q122.65 321.8 122.75 321.65 L122.95 321.6 124.25 322.1 125.15 322.25 126.6 322.0" fill="#b1d943" fill-rule="evenodd" stroke="none"/>
    <path d="M122.95 321.6 L122.75 321.65 Q122.65 321.8 122.7 321.9 L122.9 322.35 Q123.5 323.1 124.95 323.4 126.4 323.75 127.15 323.15 L127.45 322.85 Q127.6 322.6 127.35 322.3 L126.6 322.0 126.75 321.85 127.5 321.6 127.85 321.45 127.95 321.4 128.75 321.95 129.15 322.5 129.3 323.75 Q129.2 324.5 127.6 325.2 126.0 325.8 124.0 324.7 L121.15 322.95 121.15 322.9 120.9 322.6 Q120.0 321.6 120.2 321.0 120.35 320.4 121.8 321.0 L122.95 321.6" fill="#85b424" fill-rule="evenodd" stroke="none"/>
    <path d="M122.1 315.95 L122.7 317.45 Q119.1 317.8 114.3 310.65 L114.0 310.15 113.05 308.55 Q115.15 311.8 116.95 313.35 120.45 316.55 122.1 315.95" fill="#3c6b00" fill-rule="evenodd" stroke="none"/>
    <path d="M121.15 322.95 L124.0 324.7 Q126.0 325.8 127.6 325.2 129.2 324.5 129.3 323.75 L129.15 322.5 128.75 321.95 127.95 321.4 128.75 321.35 129.75 321.95 Q130.5 322.75 130.65 324.05 130.75 324.85 130.5 325.4 L129.9 326.35 Q129.15 326.95 128.0 326.8 L125.5 326.05 123.6 325.0 122.35 324.05 121.15 322.95" fill="#538710" fill-rule="evenodd" stroke="none"/>
    <path d="M134.8 321.6 Q139.45 321.6 137.25 313.25 138.4 315.8 138.7 318.55 138.85 320.65 138.15 321.8 137.5 323.0 135.55 323.6 L134.8 321.6" fill="#365800" fill-rule="evenodd" stroke="none"/>
    <path d="M119.95 309.15 L120.7 311.65 Q119.95 313.2 117.7 312.1 114.05 309.05 112.95 305.8 111.9 303.35 112.3 302.1 L113.35 302.0 113.95 302.75 Q117.75 309.45 119.95 309.15 M113.4 303.95 L113.85 305.4 114.75 306.95 115.6 307.95 Q116.4 308.7 117.1 308.3 116.45 307.9 115.4 306.25 L113.9 303.95 113.7 303.7 113.45 303.5 113.35 303.55 113.4 303.95" fill="#86c740" fill-rule="evenodd" stroke="none"/>
    <path d="M120.7 311.65 L122.1 315.95 Q120.45 316.55 116.95 313.35 115.15 311.8 113.05 308.55 L113.0 308.55 Q110.9 304.75 111.45 302.2 112.1 300.45 113.35 302.0 L112.3 302.1 Q111.9 303.35 112.95 305.8 114.05 309.05 117.7 312.1 119.95 313.2 120.7 311.65" fill="#559109" fill-rule="evenodd" stroke="none"/>
    <path d="M113.4 303.95 L113.35 303.55 113.45 303.5 113.7 303.7 113.9 303.95 115.4 306.25 Q116.45 307.9 117.1 308.3 116.4 308.7 115.6 307.95 L114.75 306.95 113.85 305.4 113.4 303.95" fill="#98d951" fill-rule="evenodd" stroke="none"/>
    <path d="M134.85 318.1 L134.75 317.65 134.95 317.95 134.95 318.25 134.95 318.3 134.85 318.1" fill="#3c8009" fill-rule="evenodd" stroke="none"/>
    <path d="M136.8 320.55 L136.7 320.5 Q136.35 320.5 136.35 320.15 L136.45 319.4 136.6 319.0 136.8 319.35 136.9 320.05 136.8 320.55" fill="#275b00" fill-rule="evenodd" stroke="none"/>
    <path d="M136.8 320.55 L136.9 320.05 136.8 319.35 136.6 319.0 136.65 318.95 136.9 319.25 137.15 320.2 136.9 320.55 136.8 320.55" fill="#1a3f00" fill-rule="evenodd" stroke="none"/>
    <path d="M127.35 311.75 L127.65 312.3 127.9 313.55 127.65 314.35 127.4 314.3 Q126.85 314.2 126.9 313.6 L127.1 312.4 127.35 311.75 M127.25 313.85 L127.3 313.25 127.25 312.3 127.15 313.05 Q127.0 313.75 127.15 313.7 L127.25 313.85" fill="#3d8e01" fill-rule="evenodd" stroke="none"/>
    <path d="M127.65 314.35 L127.9 313.55 127.65 312.3 127.35 311.75 127.4 311.7 127.8 312.25 Q128.2 312.85 128.25 313.75 128.25 314.3 127.8 314.3 L127.65 314.35" fill="#255800" fill-rule="evenodd" stroke="none"/>
    <path d="M127.25 313.85 L127.15 313.7 Q127.0 313.75 127.15 313.05 L127.25 312.3 127.3 313.25 127.25 313.85" fill="#69cd1e" fill-rule="evenodd" stroke="none"/>
    <path d="M132.65 320.55 L132.95 320.85 133.2 321.8 132.9 322.15 132.8 322.15 132.95 321.65 132.75 320.9 132.65 320.55" fill="#1a3f00" fill-rule="evenodd" stroke="none"/>
    <path d="M132.65 320.9 L132.6 321.5 132.55 321.8 132.5 321.7 132.5 321.35 132.65 320.9" fill="#3c8009" fill-rule="evenodd" stroke="none"/>
    <path d="M132.65 320.55 L132.75 320.9 132.95 321.65 132.8 322.15 132.7 322.15 Q132.3 322.05 132.35 321.65 L132.5 320.9 132.65 320.55 M132.65 320.9 L132.5 321.35 132.5 321.7 132.55 321.8 132.6 321.5 132.65 320.9" fill="#275b00" fill-rule="evenodd" stroke="none"/>
    <path d="M136.2 322.7 L136.15 322.5 136.15 322.4 136.25 322.65 136.2 322.7" fill="#3c8009" fill-rule="evenodd" stroke="none"/>
    <path d="M137.5 315.95 L137.7 316.2 137.9 316.6 137.75 317.0 137.6 317.05 137.6 317.0 137.5 316.75 137.45 316.2 137.5 315.95 M137.7 316.55 L137.8 316.75 137.75 316.45 137.7 316.3 137.7 316.55" fill="#275b00" fill-rule="evenodd" stroke="none"/>
    <path d="M137.6 317.0 L137.35 316.85 137.35 316.2 137.5 315.95 137.45 316.2 137.5 316.75 137.6 317.0" fill="#1a3f00" fill-rule="evenodd" stroke="none"/>
    <path d="M137.7 316.55 L137.7 316.3 137.75 316.45 137.8 316.75 137.7 316.55" fill="#3c8009" fill-rule="evenodd" stroke="none"/>
    <path d="M134.1 324.55 L134.15 324.5 134.65 325.05 Q135.05 325.7 135.1 326.6 135.1 327.1 134.6 327.15 L134.45 327.15 Q134.75 327.05 134.7 326.35 L134.4 325.1 134.1 324.55" fill="#1a3f00" fill-rule="evenodd" stroke="none"/>
    <path d="M134.1 324.55 L134.4 325.1 134.7 326.35 Q134.75 327.05 134.45 327.15 L134.2 327.15 Q133.6 327.05 133.65 326.4 133.7 325.75 133.9 325.2 L134.1 324.55 M133.95 325.9 Q133.8 326.55 133.95 326.55 L134.0 326.65 134.05 326.05 134.05 325.05 133.95 325.9" fill="#275b00" fill-rule="evenodd" stroke="none"/>
    <path d="M133.95 325.9 L134.05 325.05 134.05 326.05 134.0 326.65 133.95 326.55 Q133.8 326.55 133.95 325.9" fill="#3c8009" fill-rule="evenodd" stroke="none"/>
    <path d="M130.5 328.1 L131.05 328.6 131.8 329.5 Q132.15 330.05 131.65 330.4 L131.55 330.55 Q131.2 330.55 130.9 329.95 L130.5 328.75 130.5 328.1 M131.35 329.15 L130.8 328.55 131.3 329.4 131.55 329.85 131.65 329.75 131.35 329.15" fill="#275b00" fill-rule="evenodd" stroke="none"/>
    <path d="M131.35 329.15 L131.65 329.75 131.55 329.85 131.3 329.4 130.8 328.55 131.35 329.15" fill="#3c8009" fill-rule="evenodd" stroke="none"/>
    <path d="M130.5 328.1 L130.5 328.75 130.9 329.95 Q131.2 330.55 131.55 330.55 L131.35 330.65 Q130.85 330.85 130.65 330.35 130.25 329.55 130.25 328.8 130.25 328.1 130.4 328.05 L130.5 328.1" fill="#1a3f00" fill-rule="evenodd" stroke="none"/>
    <path d="M127.85 325.5 L127.8 325.55 127.6 325.25 127.3 324.7 127.65 325.1 127.85 325.5" fill="#3c8009" fill-rule="evenodd" stroke="none"/>
    <path d="M123.1 314.55 L122.95 314.65 Q122.45 314.85 122.15 314.35 121.75 313.4 121.75 312.55 121.7 311.8 121.9 311.8 L121.95 311.8 121.95 312.55 122.45 313.9 Q122.75 314.65 123.1 314.55" fill="#2d6d00" fill-rule="evenodd" stroke="none"/>
    <path d="M121.95 311.8 L122.65 312.3 123.5 313.4 Q123.85 314.0 123.35 314.45 L123.1 314.55 Q122.75 314.65 122.45 313.9 L121.95 312.55 121.95 311.8 M122.9 313.35 L123.2 313.85 Q123.15 313.7 123.3 313.7 123.4 313.6 122.9 313.05 L122.3 312.3 122.9 313.35" fill="#5fa32b" fill-rule="evenodd" stroke="none"/>
    <path d="M122.9 313.35 L122.3 312.3 122.9 313.05 Q123.4 313.6 123.3 313.7 123.15 313.7 123.2 313.85 L122.9 313.35" fill="#92d95d" fill-rule="evenodd" stroke="none"/>
    <path d="M119.8 314.55 L119.65 314.65 Q119.4 314.8 119.25 314.45 119.0 314.0 119.05 313.6 L119.15 313.15 119.15 313.5 119.4 314.25 119.8 314.55" fill="#1a3f00" fill-rule="evenodd" stroke="none"/>
    <path d="M119.15 313.15 L119.45 313.4 119.95 314.0 Q120.15 314.25 119.85 314.55 L119.8 314.55 119.4 314.25 119.15 313.5 119.15 313.15 M119.3 313.4 L119.65 313.9 119.8 314.2 119.85 314.15 119.65 313.75 119.3 313.4" fill="#275b00" fill-rule="evenodd" stroke="none"/>
    <path d="M119.3 313.4 L119.65 313.75 119.85 314.15 119.8 314.2 119.65 313.9 119.3 313.4" fill="#3c8009" fill-rule="evenodd" stroke="none"/>
    <path d="M125.6 309.0 L125.65 308.9 126.0 309.15 126.45 310.0 Q126.55 310.3 126.25 310.4 L126.15 310.45 126.2 309.95 125.85 309.2 125.6 309.0" fill="#5ea11f" fill-rule="evenodd" stroke="none"/>
    <path d="M126.15 310.45 L126.05 310.45 Q125.65 310.45 125.6 310.1 L125.55 309.35 125.6 309.0 125.85 309.2 126.2 309.95 126.15 310.45 M125.85 310.2 L125.8 309.85 125.65 309.35 125.7 309.75 125.75 310.15 125.85 310.2" fill="#94d455" fill-rule="evenodd" stroke="none"/>
    <path d="M125.85 310.2 L125.75 310.15 125.7 309.75 125.65 309.35 125.8 309.85 125.85 310.2" fill="#cdf5af" fill-rule="evenodd" stroke="none"/>
    <path d="M117.1 308.8 L117.45 309.15 118.0 309.75 Q118.15 310.1 117.9 310.3 L117.75 310.4 117.35 310.0 117.1 309.2 117.1 308.8 M117.85 310.0 L117.85 309.85 117.65 309.5 117.25 309.05 117.6 309.65 117.85 310.0" fill="#78af41" fill-rule="evenodd" stroke="none"/>
    <path d="M117.75 310.4 L117.7 310.45 Q117.4 310.55 117.2 310.25 L116.95 309.25 Q116.95 308.85 117.1 308.8 L117.1 309.2 117.35 310.0 117.75 310.4" fill="#518322" fill-rule="evenodd" stroke="none"/>
    <path d="M117.85 310.0 L117.6 309.65 117.25 309.05 117.65 309.5 117.85 309.85 117.85 310.0" fill="#cdf5af" fill-rule="evenodd" stroke="none"/>
    <path d="M132.3 312.25 L132.1 311.8 132.45 312.35 132.65 312.7 132.5 312.65 132.3 312.25" fill="#cdf5af" fill-rule="evenodd" stroke="none"/>
    <path d="M133.0 312.85 L132.85 312.9 Q132.5 313.0 132.35 312.7 L132.05 311.9 131.95 311.45 132.3 311.65 132.9 312.3 133.0 312.85 M132.3 312.25 L132.5 312.65 132.65 312.7 132.45 312.35 132.1 311.8 132.3 312.25" fill="#78af41" fill-rule="evenodd" stroke="none"/>
    <path d="M133.0 312.85 L132.9 312.3 132.3 311.65 131.95 311.45 131.95 311.4 132.4 311.55 133.15 312.3 Q133.4 312.6 133.1 312.75 L133.0 312.85" fill="#518322" fill-rule="evenodd" stroke="none"/>
    <path d="M134.75 312.05 L135.05 312.3 135.5 313.1 135.45 313.7 135.25 313.75 Q134.85 313.75 134.75 313.35 L134.75 312.45 134.75 312.05 M135.0 313.4 L135.1 313.4 135.0 313.05 134.8 312.4 134.85 312.95 135.0 313.4" fill="#3d8e01" fill-rule="evenodd" stroke="none"/>
    <path d="M134.75 312.05 L134.75 311.95 135.2 312.25 135.8 313.2 Q135.85 313.55 135.55 313.7 L135.45 313.7 135.5 313.1 135.05 312.3 134.75 312.05" fill="#255800" fill-rule="evenodd" stroke="none"/>
    <path d="M135.0 313.4 L134.85 312.95 134.8 312.4 135.0 313.05 135.1 313.4 135.0 313.4" fill="#69cd1e" fill-rule="evenodd" stroke="none"/>
    <path d="M128.3 317.4 L128.8 318.05 129.4 319.35 Q129.65 320.05 129.0 320.35 L128.8 320.4 Q128.35 320.35 128.25 319.6 L128.15 318.1 128.3 317.4 M128.85 319.1 L129.05 319.7 129.1 319.55 128.95 318.9 128.55 317.95 128.85 319.1" fill="#3d8e01" fill-rule="evenodd" stroke="none"/>
    <path d="M128.8 320.4 L128.55 320.5 Q127.95 320.55 127.85 319.9 127.65 318.9 127.9 318.05 128.05 317.35 128.25 317.3 L128.3 317.4 128.15 318.1 128.25 319.6 Q128.35 320.35 128.8 320.4" fill="#255800" fill-rule="evenodd" stroke="none"/>
    <path d="M128.85 319.1 L128.55 317.95 128.95 318.9 129.1 319.55 129.05 319.7 128.85 319.1" fill="#69cd1e" fill-rule="evenodd" stroke="none"/>
    <path d="M125.15 317.0 L124.65 316.35 125.1 317.2 125.4 317.7 Q125.35 317.6 125.45 317.55 L125.15 317.0 M124.3 316.0 L124.85 316.35 125.6 317.35 Q125.9 317.8 125.5 318.15 L125.35 318.3 124.7 317.8 Q124.4 317.25 124.35 316.55 L124.3 316.0" fill="#3d8e01" fill-rule="evenodd" stroke="none"/>
    <path d="M125.15 317.0 L125.45 317.55 Q125.35 317.6 125.4 317.7 L125.1 317.2 124.65 316.35 125.15 317.0" fill="#69cd1e" fill-rule="evenodd" stroke="none"/>
    <path d="M125.35 318.3 L125.2 318.4 Q124.8 318.6 124.5 318.15 124.15 317.3 124.15 316.65 L124.25 315.95 124.3 316.0 124.35 316.55 Q124.4 317.25 124.7 317.8 L125.35 318.3" fill="#255800" fill-rule="evenodd" stroke="none"/>
    <path d="M119.4 305.15 L119.3 304.65 118.8 304.05 118.5 303.9 118.5 303.85 118.95 303.95 119.55 304.65 Q119.75 304.95 119.5 305.1 L119.4 305.15" fill="#5ea11f" fill-rule="evenodd" stroke="none"/>
    <path d="M119.4 305.15 L119.35 305.25 Q119.0 305.3 118.85 304.95 L118.55 304.3 118.5 303.9 118.8 304.05 119.3 304.65 119.4 305.15 M118.95 305.0 L119.1 305.0 118.95 304.75 118.65 304.2 118.8 304.65 118.95 305.0" fill="#94d455" fill-rule="evenodd" stroke="none"/>
    <path d="M118.95 305.0 L118.8 304.65 118.65 304.2 118.95 304.75 119.1 305.0 118.95 305.0" fill="#cdf5af" fill-rule="evenodd" stroke="none"/>
    <path d="M114.85 304.15 L114.85 304.05 115.2 304.3 115.7 305.1 Q115.85 305.45 115.5 305.55 L115.45 305.6 115.45 305.1 115.15 304.35 114.85 304.15" fill="#5ea11f" fill-rule="evenodd" stroke="none"/>
    <path d="M114.85 304.15 L115.15 304.35 115.45 305.1 115.45 305.6 115.3 305.6 114.85 305.25 114.8 304.55 114.85 304.15 M115.05 305.3 L115.1 305.3 115.05 304.95 114.95 304.45 114.95 304.9 115.05 305.3" fill="#94d455" fill-rule="evenodd" stroke="none"/>
    <path d="M115.05 305.3 L114.95 304.9 114.95 304.45 115.05 304.95 115.1 305.3 115.05 305.3" fill="#cdf5af" fill-rule="evenodd" stroke="none"/>
    <path d="M125.45 304.7 L125.35 304.2 125.55 304.75 125.65 305.1 125.55 305.05 125.45 304.7" fill="#cdf5af" fill-rule="evenodd" stroke="none"/>
    <path d="M125.45 304.7 L125.55 305.05 125.65 305.1 125.55 304.75 125.35 304.2 125.45 304.7 M125.35 303.95 L125.6 304.15 125.95 304.85 125.9 305.35 125.8 305.4 125.35 305.05 125.3 304.3 125.35 303.95" fill="#94d455" fill-rule="evenodd" stroke="none"/>
    <path d="M125.35 303.95 L125.35 303.85 125.75 304.05 126.25 304.85 Q126.3 305.25 126.0 305.3 L125.9 305.35 125.95 304.85 125.6 304.15 125.35 303.95" fill="#5ea11f" fill-rule="evenodd" stroke="none"/>
    <path d="M124.2 321.65 L124.2 321.6 124.6 321.7 125.3 322.35 Q125.45 322.65 125.2 322.85 L125.05 322.9 125.0 322.35 124.5 321.85 124.2 321.65" fill="#5ea11f" fill-rule="evenodd" stroke="none"/>
    <path d="M124.45 322.35 L124.35 321.9 124.65 322.45 124.8 322.7 124.7 322.7 124.45 322.35" fill="#cdf5af" fill-rule="evenodd" stroke="none"/>
    <path d="M124.2 321.65 L124.5 321.85 125.0 322.35 125.05 322.9 125.0 322.9 Q124.7 323.05 124.55 322.75 L124.25 322.05 124.2 321.65 M124.45 322.35 L124.7 322.7 124.8 322.7 124.65 322.45 124.35 321.9 124.45 322.35" fill="#94d455" fill-rule="evenodd" stroke="none"/>
    <path d="M120.75 320.2 L121.1 320.35 121.7 320.8 Q121.95 321.05 121.75 321.35 L121.65 321.45 121.25 321.2 120.85 320.55 120.75 320.2 M121.6 321.05 L121.65 320.95 121.4 320.7 120.95 320.4 121.4 320.8 121.6 321.05" fill="#94d455" fill-rule="evenodd" stroke="none"/>
    <path d="M121.6 321.05 L121.4 320.8 120.95 320.4 121.4 320.7 121.65 320.95 121.6 321.05" fill="#cdf5af" fill-rule="evenodd" stroke="none"/>
    <path d="M120.75 320.2 L120.85 320.55 121.25 321.2 121.65 321.45 Q121.4 321.7 121.15 321.45 L120.7 320.6 120.65 320.2 120.75 320.2" fill="#5ea11f" fill-rule="evenodd" stroke="none"/>
    <path d="M132.35 317.4 L132.3 317.45 132.15 317.45 Q131.7 317.4 131.75 316.95 131.75 316.45 131.9 316.15 L132.1 315.65 132.3 316.05 132.45 316.9 132.35 317.4 M132.0 317.1 L132.0 316.7 132.0 316.05 131.95 316.6 131.95 317.0 132.0 317.1" fill="#3d8e01" fill-rule="evenodd" stroke="none"/>
    <path d="M132.0 317.1 L131.95 317.0 131.95 316.6 132.0 316.05 132.0 316.7 132.0 317.1" fill="#69cd1e" fill-rule="evenodd" stroke="none"/>
    <path d="M132.1 315.65 L132.4 316.0 132.75 317.0 Q132.75 317.45 132.35 317.4 L132.45 316.9 132.3 316.05 132.1 315.65" fill="#255800" fill-rule="evenodd" stroke="none"/>
    <path d="M120.8 301.15 L120.8 301.05 121.15 301.3 121.65 302.1 121.45 302.55 121.3 302.55 121.4 302.05 121.0 301.4 120.8 301.15" fill="#5ea11f" fill-rule="evenodd" stroke="none"/>
    <path d="M120.8 301.15 L121.0 301.4 121.4 302.05 121.3 302.55 121.25 302.6 Q120.85 302.6 120.8 302.25 L120.75 301.5 120.8 301.15 M120.95 302.25 L121.05 302.35 121.0 302.0 120.8 301.4 120.9 301.9 120.95 302.25" fill="#94d455" fill-rule="evenodd" stroke="none"/>
    <path d="M120.95 302.25 L120.9 301.9 120.8 301.4 121.0 302.0 121.05 302.35 120.95 302.25" fill="#cdf5af" fill-rule="evenodd" stroke="none"/>
  </g>
  <defs>
    <linearGradient gradientTransform="matrix(0.0047, -0.0062, 0.0073, 0.0053, 120.3, 341.7)" gradientUnits="userSpaceOnUse" id="gradient0" spreadMethod="pad" x1="-819.2" x2="819.2">
      <stop offset="0.0" stop-color="#4d3100"/>
      <stop offset="1.0" stop-color="#8c6112"/>
    </linearGradient>
    <linearGradient gradientTransform="matrix(0.0023, -0.0024, 0.004, 0.0036, 115.4, 339.6)" gradientUnits="userSpaceOnUse" id="gradient1" spreadMethod="pad" x1="-819.2" x2="819.2">
      <stop offset="0.0" stop-color="#513704"/>
      <stop offset="1.0" stop-color="#664506"/>
    </linearGradient>
    <linearGradient gradientTransform="matrix(0.0146, -0.0022, 0.0029, 0.017, 661.85, 335.4)" gradientUnits="userSpaceOnUse" id="gradient2" spreadMethod="pad" x1="-819.2" x2="819.2">
      <stop offset="0.0" stop-color="#4d3100"/>
      <stop offset="1.0" stop-color="#8c6112"/>
    </linearGradient>
    <linearGradient gradientTransform="matrix(0.0063, -3.0E-4, 6.0E-4, 0.0101, 658.0, 326.0)" gradientUnits="userSpaceOnUse" id="gradient3" spreadMethod="pad" x1="-819.2" x2="819.2">
      <stop offset="0.0" stop-color="#513704"/>
      <stop offset="1.0" stop-color="#664506"/>
    </linearGradient>
  </defs>
</svg>
