<?xml version="1.0" encoding="UTF-8" standalone="no"?>
<svg xmlns:xlink="http://www.w3.org/1999/xlink" height="75.35px" width="73.9px" xmlns="http://www.w3.org/2000/svg">
  <g transform="matrix(1.0, 0.0, 0.0, 1.0, -128.75, -69.8)">
    <path d="M169.7 78.55 L170.45 71.8 Q176.9 72.65 183.0 76.05 L182.95 76.2 183.05 79.85 181.3 82.85 Q185.1 85.3 187.65 88.75 L193.0 84.5 Q196.85 89.65 198.7 96.3 L198.65 96.3 199.45 99.0 193.95 100.5 194.0 100.55 Q195.05 104.45 195.2 108.25 L195.2 108.85 199.85 109.3 199.8 109.55 200.65 112.55 Q200.1 116.8 198.55 120.95 L197.7 122.95 196.2 125.6 191.3 122.75 191.2 122.95 190.95 123.3 Q188.7 127.15 185.8 130.05 L187.15 131.75 187.1 131.9 187.3 135.7 187.45 135.9 Q183.45 139.15 178.45 141.1 L176.9 141.65 175.15 142.15 175.1 142.15 173.65 136.75 173.5 136.8 173.45 136.8 Q167.9 138.35 162.35 137.85 L162.35 138.75 161.5 143.15 Q154.9 142.4 148.6 138.9 L148.55 138.85 148.75 138.5 149.9 134.55 150.4 133.75 146.45 130.8 Q144.2 128.75 142.55 126.6 L142.5 126.55 142.4 126.55 138.2 129.85 138.05 129.9 Q133.85 124.75 131.95 117.8 L131.9 117.65 132.05 117.6 133.95 114.15 136.75 113.4 136.45 111.4 Q136.1 108.55 136.5 105.45 L136.5 104.8 136.5 104.65 136.45 104.65 130.75 103.95 130.85 103.8 131.2 101.75 131.4 100.65 Q132.5 95.85 135.15 91.15 L135.25 90.95 135.3 90.95 137.0 88.9 137.15 88.7 137.25 88.7 141.8 91.25 Q144.25 87.75 147.4 85.35 L147.8 85.05 144.6 81.1 145.7 78.65 Q150.8 74.8 157.45 72.95 L159.2 79.3 Q164.45 77.85 169.4 78.55 L169.7 78.55 M175.15 110.3 L175.75 109.35 175.35 107.65 Q174.8 105.7 173.65 104.05 L173.4 103.8 Q172.3 102.5 170.65 101.6 168.8 100.6 166.9 100.35 L163.0 100.6 Q161.0 101.15 159.45 102.4 157.9 103.6 156.95 105.4 L156.5 106.35 156.75 107.9 157.75 110.5 158.55 111.55 159.9 112.95 161.45 114.05 Q163.3 115.2 165.25 115.4 L169.05 115.0 169.65 114.85 Q171.3 114.3 172.7 113.2 174.25 112.1 175.15 110.3" fill="#b1c4cb" fill-rule="evenodd" stroke="none"/>
    <path d="M169.7 78.55 L170.45 71.8 Q176.9 72.65 183.0 76.05 L182.95 76.2 183.05 79.85 181.3 82.85 Q185.1 85.3 187.65 88.75 L193.0 84.5 Q196.85 89.65 198.7 96.3 L198.65 96.3 199.45 99.0 193.95 100.5 194.0 100.55 Q195.05 104.45 195.2 108.25 L195.2 108.85 199.85 109.3 199.8 109.55 200.65 112.55 Q200.1 116.8 198.55 120.95 L197.7 122.95 196.2 125.6 191.3 122.75 191.2 122.95 190.95 123.3 Q188.7 127.15 185.8 130.05 L187.15 131.75 187.1 131.9 187.3 135.7 187.45 135.9 Q183.45 139.15 178.45 141.1 L176.9 141.65 175.15 142.15 175.1 142.15 173.65 136.75 173.5 136.8 173.45 136.8 Q167.9 138.35 162.35 137.85 L162.35 138.75 161.5 143.15 Q154.9 142.4 148.6 138.9 L148.55 138.85 148.75 138.5 149.9 134.55 150.4 133.75 146.45 130.8 Q144.2 128.75 142.55 126.6 L142.5 126.55 142.4 126.55 138.2 129.85 138.05 129.9 Q133.85 124.75 131.95 117.8 L131.9 117.65 132.05 117.6 133.95 114.15 136.75 113.4 136.45 111.4 Q136.1 108.55 136.5 105.45 L136.5 104.8 136.5 104.65 136.45 104.65 130.75 103.95 130.85 103.8 131.2 101.75 131.4 100.65 Q132.5 95.85 135.15 91.15 L135.25 90.95 135.3 90.95 137.0 88.9 137.15 88.7 137.25 88.7 141.8 91.25 Q144.25 87.75 147.4 85.35 L147.8 85.05 144.6 81.1 145.7 78.65 Q150.8 74.8 157.45 72.95 L159.2 79.3 Q164.45 77.85 169.4 78.55 L169.7 78.55 M175.15 110.3 Q174.25 112.1 172.7 113.2 171.3 114.3 169.65 114.85 L169.05 115.0 165.25 115.4 Q163.3 115.2 161.45 114.05 L159.9 112.95 158.55 111.55 157.75 110.5 156.75 107.9 156.5 106.35 156.95 105.4 Q157.9 103.6 159.45 102.4 161.0 101.15 163.0 100.6 L166.9 100.35 Q168.8 100.6 170.65 101.6 172.3 102.5 173.4 103.8 L173.65 104.05 Q174.8 105.7 175.35 107.65 L175.75 109.35 175.15 110.3" fill="none" stroke="#005c8e" stroke-linecap="round" stroke-linejoin="round" stroke-width="4.0"/>
    <path d="M177.2 102.0 Q176.6 100.35 175.65 99.2 174.2 97.35 172.0 96.1 170.0 94.85 167.75 94.6 L163.1 95.0 Q160.75 95.65 158.9 97.05 157.1 98.4 155.9 100.55 L155.85 100.55 Q154.8 102.7 154.6 105.05 154.35 106.3 154.5 107.65 L154.85 109.5 155.45 111.15 Q148.5 113.05 142.3 109.3 L141.3 108.7 139.7 107.45 139.65 107.3 Q139.4 105.25 139.55 103.25 L139.7 102.05 133.0 101.2 132.95 101.2 133.05 101.1 Q133.15 100.15 133.4 99.1 134.15 95.25 135.95 91.3 L137.05 89.0 137.2 88.8 137.3 88.8 141.8 91.35 143.1 92.05 143.85 91.0 Q145.6 87.85 148.1 85.65 L148.9 85.05 149.9 84.2 149.9 84.1 145.75 78.7 Q150.85 74.85 157.5 73.0 L159.25 79.4 Q164.5 77.95 169.4 78.65 L169.75 78.6 170.5 71.85 Q176.95 72.75 183.05 76.15 L183.0 76.3 179.7 81.95 180.55 82.4 181.3 82.9 Q185.1 85.4 187.65 88.8 L193.0 84.6 Q196.9 89.7 198.75 96.4 L198.7 96.4 192.25 98.2 192.3 98.3 192.4 98.7 Q186.1 98.45 180.2 100.85 L177.2 102.0" fill="#bbd4de" fill-rule="evenodd" stroke="none"/>
    <path d="M155.45 111.15 L154.85 109.5 154.5 107.65 Q154.35 106.3 154.6 105.05 154.8 102.7 155.85 100.55 L155.9 100.55 Q157.1 98.4 158.9 97.05 160.75 95.65 163.1 95.0 L167.75 94.6 Q170.0 94.85 172.0 96.1 174.2 97.35 175.65 99.2 176.6 100.35 177.2 102.0 L177.6 103.2 Q178.3 105.7 178.05 107.9 177.9 109.5 177.2 111.2 L176.45 112.35 Q175.45 114.45 173.7 115.75 172.05 117.0 170.1 117.7 L169.45 117.9 164.75 118.3 Q162.55 118.05 160.3 116.8 L158.55 115.4 157.0 113.75 Q156.1 112.6 155.45 111.15 M175.75 109.4 Q176.4 108.0 176.55 106.6 176.75 104.75 176.15 102.65 L176.15 102.55 Q175.6 100.6 174.5 99.15 173.2 97.65 171.35 96.6 169.65 95.5 167.75 95.35 L163.7 95.55 Q161.75 96.1 160.3 97.4 158.7 98.5 157.65 100.35 156.65 102.2 156.5 104.15 156.35 105.25 156.55 106.4 L156.8 108.0 157.8 110.55 158.55 111.6 159.9 113.05 Q160.65 113.7 161.45 114.15 163.35 115.25 165.25 115.45 L169.1 115.05 169.7 114.9 Q171.35 114.4 172.75 113.3 174.25 112.2 175.15 110.4 L175.75 109.4" fill="#d5eef7" fill-rule="evenodd" stroke="none"/>
    <path d="M156.55 106.4 Q156.35 105.25 156.5 104.15 156.65 102.2 157.65 100.35 158.7 98.5 160.3 97.4 161.75 96.1 163.7 95.55 L167.75 95.35 Q169.65 95.5 171.35 96.6 173.2 97.65 174.5 99.15 175.6 100.6 176.15 102.55 L176.15 102.65 Q176.75 104.75 176.55 106.6 176.4 108.0 175.75 109.4 L175.35 107.75 Q174.8 105.8 173.65 104.1 L173.45 103.9 Q172.3 102.55 170.7 101.7 168.85 100.7 166.95 100.4 L163.0 100.7 Q161.0 101.25 159.5 102.45 157.95 103.7 157.0 105.5 156.6 105.9 156.55 106.4" fill="#83979f" fill-rule="evenodd" stroke="none"/>
    <path d="M192.4 98.7 L192.3 98.3 194.0 100.55 194.0 100.65 Q195.1 104.55 195.2 108.35 L195.2 108.9 193.25 108.55 193.45 105.7 193.2 102.25 193.0 100.85 192.9 100.5 192.4 98.7 M181.3 82.9 L180.55 82.4 179.7 81.95 183.0 76.3 183.05 79.95 181.3 82.9 M149.9 84.2 L148.9 85.05 148.1 85.65 Q145.6 87.85 143.85 91.0 L143.1 92.05 141.8 91.35 Q144.3 87.85 147.45 85.45 L147.8 85.15 149.9 84.2 M137.05 89.0 L135.95 91.3 Q134.15 95.25 133.4 99.1 133.15 100.15 133.05 101.1 L132.95 101.2 133.0 101.2 130.85 103.9 131.2 101.85 Q131.25 101.25 131.45 100.75 132.55 95.95 135.15 91.25 L135.3 91.05 135.35 91.05 137.05 89.0 M139.7 102.05 L139.55 103.25 Q139.4 105.25 139.65 107.3 L139.7 107.45 Q139.85 109.9 140.55 112.45 L136.8 113.5 136.45 111.45 Q136.15 108.6 136.55 105.5 L136.5 104.9 136.55 104.75 136.5 104.75 139.7 102.05 M199.85 109.6 L199.85 109.65 200.65 112.6 Q200.1 116.9 198.55 121.0 L197.7 123.05 196.25 125.7 195.5 121.85 195.7 121.9 Q197.5 118.65 198.65 115.25 L199.35 112.4 199.8 109.5 199.85 109.6 M191.3 122.95 L191.2 123.0 191.0 123.4 Q188.7 127.2 185.85 130.15 L183.1 126.65 Q187.2 123.4 189.85 118.65 L191.3 122.95 M187.1 131.95 L187.3 135.8 187.45 136.0 Q183.45 139.2 178.45 141.15 L176.95 141.7 175.2 142.2 175.35 137.7 Q180.25 136.35 184.45 133.95 L185.35 133.3 Q186.2 132.55 187.1 131.95 M173.5 136.9 L173.45 136.9 Q167.9 138.45 162.4 137.9 L163.15 132.15 Q168.35 132.8 173.6 131.3 L173.6 131.35 173.5 136.9 M150.45 133.8 Q148.3 132.55 146.5 130.85 144.2 128.85 142.6 126.7 L145.2 121.85 146.85 123.9 Q149.5 126.75 153.15 128.7 L150.45 133.8 M138.25 129.95 L138.1 130.0 Q133.9 124.8 132.0 117.85 L131.95 117.7 132.1 117.65 134.0 114.25 134.85 116.9 Q136.05 120.15 137.75 123.05 L139.85 126.1 138.25 129.95" fill="#6f8891" fill-rule="evenodd" stroke="none"/>
    <path d="M192.3 98.3 L192.25 98.2 198.7 96.4 199.5 99.05 194.0 100.55 192.3 98.3 M145.75 78.7 L149.9 84.1 149.9 84.2 147.8 85.15 144.6 81.2 145.75 78.7 M133.0 101.2 L139.7 102.05 136.5 104.75 130.8 104.05 130.85 103.9 133.0 101.2 M196.25 125.7 L191.3 122.8 191.3 122.95 189.85 118.65 189.8 118.55 195.5 121.85 196.25 125.7 M175.2 142.2 L175.15 142.2 173.65 136.85 173.5 136.9 173.6 131.35 175.35 137.7 175.2 142.2 M162.35 138.75 L162.35 138.8 161.55 143.2 Q154.95 142.5 148.65 138.95 L148.55 138.95 148.8 138.55 149.95 134.6 150.65 135.0 Q156.25 138.0 162.35 138.75 M142.6 126.7 L142.55 126.65 142.4 126.6 138.25 129.95 139.85 126.1 145.2 121.85 142.6 126.7" fill="#516870" fill-rule="evenodd" stroke="none"/>
    <path d="M177.2 102.0 L180.2 100.85 Q186.1 98.45 192.4 98.7 L192.9 100.5 193.0 100.85 193.2 102.25 193.45 105.7 193.25 108.55 195.2 108.9 199.85 109.35 199.85 109.6 199.8 109.5 199.35 112.4 198.65 115.25 Q197.5 118.65 195.7 121.9 L195.5 121.85 189.8 118.55 189.85 118.65 Q187.2 123.4 183.1 126.65 L185.85 130.15 187.2 131.85 187.1 131.95 Q186.2 132.55 185.35 133.3 L184.45 133.95 Q180.25 136.35 175.35 137.7 L173.6 131.35 173.6 131.3 Q168.35 132.8 163.15 132.15 L162.4 137.9 162.35 138.75 Q156.25 138.0 150.65 135.0 L149.95 134.6 150.45 133.8 153.15 128.7 Q149.5 126.75 146.85 123.9 L145.2 121.85 139.85 126.1 137.75 123.05 Q136.05 120.15 134.85 116.9 L134.0 114.25 136.8 113.5 140.55 112.45 Q139.85 109.9 139.7 107.45 L141.3 108.7 142.3 109.3 Q148.5 113.05 155.45 111.15 156.1 112.6 157.0 113.75 L158.55 115.4 160.3 116.8 Q162.55 118.05 164.75 118.3 L169.45 117.9 170.1 117.7 Q172.05 117.0 173.7 115.75 175.45 114.45 176.45 112.35 L177.2 111.2 Q177.9 109.5 178.05 107.9 178.3 105.7 177.6 103.2 L177.2 102.0" fill="#b1c4cb" fill-rule="evenodd" stroke="none"/>
  </g>
</svg>
