<?xml version="1.0" encoding="UTF-8" standalone="no"?>
<svg xmlns:xlink="http://www.w3.org/1999/xlink" height="448.7px" width="687.7px" xmlns="http://www.w3.org/2000/svg">
  <g transform="matrix(1.0, 0.0, 0.0, 1.0, -3.5, -50.95)">
    <path d="M483.8 474.05 Q493.45 471.65 507.1 471.65 520.7 471.65 530.35 474.05 540.0 476.5 540.0 479.95 540.0 483.4 530.35 485.8 520.7 488.25 507.1 488.25 493.45 488.25 483.8 485.8 474.15 483.4 474.15 479.95 474.15 476.5 483.8 474.05" fill="url(#gradient0)" fill-rule="evenodd" stroke="none"/>
    <path d="M493.0 463.5 Q493.85 463.95 493.0 466.2 492.1 468.55 491.85 471.7 L491.85 472.15 494.9 471.5 496.15 471.25 496.45 471.2 497.3 469.55 Q498.6 467.25 500.4 465.15 501.0 461.9 502.45 459.95 503.4 458.6 504.45 457.55 506.6 455.35 507.65 454.75 L508.45 454.05 509.15 453.75 509.25 453.85 509.1 454.75 507.85 457.3 507.7 457.6 Q507.25 458.35 506.75 459.85 L505.75 462.8 505.6 463.4 505.1 465.45 504.45 469.55 Q510.2 468.4 512.75 468.35 L515.1 468.25 Q516.0 464.95 517.3 462.2 518.3 460.1 519.55 458.3 520.75 456.35 521.9 455.4 523.4 453.9 524.0 455.2 524.9 456.85 523.4 460.7 521.7 463.95 520.4 468.65 L521.2 468.8 527.4 470.05 528.1 470.15 528.85 470.6 Q529.6 471.1 530.35 472.25 531.2 473.45 531.4 475.2 L531.5 476.55 531.4 478.9 531.2 480.4 Q530.75 483.2 529.85 483.25 L529.6 483.25 528.0 483.55 527.85 483.4 Q527.2 483.35 526.5 482.9 L524.3 481.85 524.1 481.7 522.2 481.0 520.9 480.65 519.1 480.0 518.45 484.0 Q518.15 486.45 518.15 488.4 518.15 491.4 518.95 493.9 L519.1 494.95 518.95 495.85 Q518.75 496.85 517.9 497.0 L517.7 496.75 517.55 496.7 517.55 496.6 Q515.95 495.2 515.2 493.15 L514.6 491.8 514.15 490.35 Q513.15 487.1 512.9 483.2 512.6 480.25 512.85 478.5 L512.7 478.5 509.15 478.2 506.3 478.0 506.35 478.8 506.9 483.65 508.7 489.4 508.85 489.9 509.75 491.65 512.0 494.5 513.15 495.85 513.3 496.4 Q513.3 497.25 512.7 496.9 L512.3 496.85 510.95 496.4 509.4 495.65 509.1 495.35 Q506.6 493.6 504.25 489.75 500.7 484.1 500.7 480.7 500.7 479.2 500.95 478.05 L499.35 478.05 498.65 483.85 Q498.45 487.95 499.25 491.05 499.8 493.9 498.45 494.65 497.6 494.9 496.45 493.55 L495.1 490.95 Q494.65 489.9 494.35 488.7 L494.05 488.3 492.7 486.2 491.85 484.85 Q490.3 482.05 490.0 479.65 L489.85 478.45 488.25 478.5 483.95 478.6 Q480.95 478.5 480.5 477.85 479.95 477.3 482.15 475.8 484.15 474.45 488.4 473.0 L488.45 473.0 489.3 472.8 489.3 471.25 489.3 469.85 489.4 468.0 Q489.45 466.75 490.45 464.7 491.35 462.75 492.95 463.55 L493.0 463.5 M493.0 478.3 L493.85 480.7 494.0 479.85 494.05 479.4 494.2 478.3 493.0 478.3" fill="#eebe59" fill-rule="evenodd" stroke="none"/>
    <path d="M492.95 463.55 Q491.35 462.75 490.45 464.7 489.45 466.75 489.4 468.0 L489.3 469.85 489.3 471.25 489.3 472.8 488.45 473.0 488.4 473.0 Q484.15 474.45 482.15 475.8 479.95 477.3 480.5 477.85 480.95 478.5 483.95 478.6 L488.25 478.5 489.85 478.45 490.0 479.65 Q490.3 482.05 491.85 484.85 L492.7 486.2 494.05 488.3 494.35 488.7 Q494.65 489.9 495.1 490.95 L496.45 493.55 Q497.6 494.9 498.45 494.65 499.8 493.9 499.25 491.05 498.45 487.95 498.65 483.85 L499.35 478.05 500.95 478.05 Q500.7 479.2 500.7 480.7 500.7 484.1 504.25 489.75 506.6 493.6 509.1 495.35 L509.4 495.65 510.95 496.4 512.3 496.85 512.7 496.9 Q513.3 497.25 513.3 496.4 L513.15 495.85 512.0 494.5 509.75 491.65 508.85 489.9 508.7 489.4 506.9 483.65 506.35 478.8 506.3 478.0 509.15 478.2 512.7 478.5 512.85 478.5 Q512.6 480.25 512.9 483.2 513.15 487.1 514.15 490.35 L514.6 491.8 515.2 493.15 Q515.95 495.2 517.55 496.6 L517.55 496.7 517.7 496.75 517.9 497.0 Q518.75 496.85 518.95 495.85 L519.1 494.95 518.95 493.9 Q518.15 491.4 518.15 488.4 518.15 486.45 518.45 484.0 L519.1 480.0 520.9 480.65 522.2 481.0 524.1 481.7 524.3 481.85 526.5 482.9 Q527.2 483.35 527.85 483.4 L528.0 483.55 529.6 483.25 529.85 483.25 Q530.75 483.2 531.2 480.4 L531.4 478.9 531.5 476.55 531.4 475.2 Q531.2 473.45 530.35 472.25 529.6 471.1 528.85 470.6 L528.1 470.15 527.4 470.05 521.2 468.8 520.4 468.65 Q521.7 463.95 523.4 460.7 524.9 456.85 524.0 455.2 523.4 453.9 521.9 455.4 520.75 456.35 519.55 458.3 518.3 460.1 517.3 462.2 516.0 464.95 515.1 468.25 L512.75 468.35 Q510.2 468.4 504.45 469.55 L505.1 465.45 505.6 463.4 505.75 462.8 506.75 459.85 Q507.25 458.35 507.7 457.6 L507.85 457.3 509.1 454.75 509.25 453.85 509.15 453.75 508.45 454.05 507.65 454.75 Q506.6 455.35 504.45 457.55 503.4 458.6 502.45 459.95 501.0 461.9 500.4 465.15 498.6 467.25 497.3 469.55 L496.45 471.2 496.15 471.25 494.9 471.5 491.85 472.15 491.85 471.7 Q492.1 468.55 493.0 466.2 493.85 463.95 493.0 463.5" fill="none" stroke="#3f352b" stroke-linecap="round" stroke-linejoin="round" stroke-width="2.0"/>
    <path d="M493.0 463.5 L492.95 463.55 Z" fill="none" stroke="#512a0c" stroke-linecap="round" stroke-linejoin="round" stroke-width="2.0"/>
    <path d="M522.2 481.0 L520.9 480.65 516.7 479.4 512.7 478.5 509.15 478.2 502.8 478.0 490.75 478.45 488.25 478.5 483.95 478.6 Q480.95 478.5 480.5 477.85 479.95 477.3 482.15 475.8 484.15 474.45 488.4 473.0 L488.45 473.0 494.9 471.5 496.15 471.25 Q508.7 468.5 512.75 468.35 L521.2 468.8 527.4 470.05 528.1 470.15 Q526.5 470.35 525.6 471.95 525.35 471.1 524.3 470.9 L523.8 470.8 Q523.2 470.65 521.4 471.5 519.5 472.35 519.4 474.45 519.25 476.55 519.55 477.3 L519.85 478.35 520.25 478.9 521.75 480.65 522.2 481.0 M505.9 475.05 L506.2 475.55 506.95 476.55 Q509.55 477.6 511.55 477.6 514.45 477.6 514.8 476.8 L515.2 476.0 515.4 474.45 514.75 472.7 Q514.15 471.35 511.55 470.2 508.85 469.15 506.65 471.05 L506.05 472.1 Q505.6 473.0 505.6 473.85 L505.85 474.9 505.9 475.05 M488.1 475.35 L487.95 474.45 487.8 474.2 485.55 475.1 Q483.55 475.7 482.6 476.8 481.4 478.0 484.45 478.0 L487.5 477.75 487.55 477.7 Q488.1 476.5 488.1 475.35" fill="#726045" fill-rule="evenodd" stroke="none"/>
    <path d="M505.85 474.9 L505.9 474.2 Q506.3 472.65 509.1 472.4 L509.75 472.4 510.15 472.4 Q513.15 472.65 513.15 475.2 L512.9 476.3 512.6 476.4 512.15 476.4 509.15 476.0 508.3 475.8 506.35 475.35 505.9 475.05 505.85 474.9" fill="#e9e1c3" fill-rule="evenodd" stroke="none"/>
    <path d="M526.5 482.9 L524.3 481.85 524.1 481.7 522.2 481.0 521.75 480.65 520.25 478.9 519.85 478.35 519.55 477.3 Q519.25 476.55 519.4 474.45 519.5 472.35 521.4 471.5 523.2 470.65 523.8 470.8 L524.3 470.9 Q525.35 471.1 525.6 471.95 L525.15 472.55 Q524.4 474.35 524.4 476.3 524.4 479.4 525.75 481.85 L526.5 482.9 M505.85 474.9 L505.6 473.85 Q505.6 473.0 506.05 472.1 L506.65 471.05 Q508.85 469.15 511.55 470.2 514.15 471.35 514.75 472.7 L515.4 474.45 515.2 476.0 514.8 476.8 Q514.45 477.6 511.55 477.6 509.55 477.6 506.95 476.55 L506.2 475.55 505.9 475.05 506.35 475.35 508.3 475.8 509.15 476.0 512.15 476.4 512.6 476.4 512.9 476.3 513.15 475.2 Q513.15 472.65 510.15 472.4 L509.75 472.4 509.1 472.4 Q506.3 472.65 505.9 474.2 L505.85 474.9" fill="#c9b37f" fill-rule="evenodd" stroke="none"/>
    <path d="M488.1 475.35 Q488.1 476.5 487.55 477.7 L487.5 477.75 484.45 478.0 Q481.4 478.0 482.6 476.8 483.55 475.7 485.55 475.1 L487.8 474.2 487.95 474.45 488.1 475.35" fill="#a3986f" fill-rule="evenodd" stroke="none"/>
    <path d="M528.1 470.15 L528.85 470.6 Q529.6 471.1 530.35 472.25 531.2 473.45 531.4 475.2 L529.9 475.35 531.5 476.55 531.4 478.9 531.2 480.4 530.3 479.55 Q529.6 478.8 529.15 479.05 528.6 479.4 528.75 479.65 L529.7 481.25 Q530.35 482.65 529.6 483.25 L528.0 483.55 527.85 483.4 Q527.2 483.35 526.5 482.9 L525.75 481.85 Q524.4 479.4 524.4 476.3 524.4 474.35 525.15 472.55 L525.6 471.95 Q526.5 470.35 528.1 470.15" fill="#f5f2e5" fill-rule="evenodd" stroke="none"/>
    <path d="M531.4 475.2 L531.5 476.55 529.9 475.35 531.4 475.2 M531.2 480.4 Q530.75 483.2 529.85 483.25 L529.6 483.25 Q530.35 482.65 529.7 481.25 L528.75 479.65 Q528.6 479.4 529.15 479.05 529.6 478.8 530.3 479.55 L531.2 480.4" fill="#b8ae89" fill-rule="evenodd" stroke="none"/>
    <path d="M517.7 496.75 Q518.15 496.4 518.15 495.25 L517.75 493.6 517.7 493.4 517.6 493.15 517.4 491.55 Q517.2 490.35 517.15 488.6 L517.05 487.5 517.15 482.8 517.2 481.9 517.3 481.25 517.4 478.95 517.2 477.1 Q516.75 474.6 514.95 474.6 L514.3 474.65 513.55 475.1 513.55 474.95 Q514.6 474.15 515.65 474.15 516.75 474.15 517.6 475.05 L518.15 475.85 518.35 476.7 518.9 479.4 518.95 479.8 519.1 479.8 518.45 484.0 Q518.15 486.45 518.15 488.4 518.15 491.4 518.95 493.9 L519.1 494.95 518.95 495.85 Q518.75 496.85 517.9 497.0 L517.7 496.75" fill="#b8ae89" fill-rule="evenodd" stroke="none"/>
    <path d="M513.55 475.1 L514.3 474.65 514.95 474.6 Q516.75 474.6 517.2 477.1 L517.4 478.95 517.3 481.25 517.2 481.9 517.15 482.8 517.05 487.5 517.15 488.6 Q517.2 490.35 517.4 491.55 L517.6 493.15 517.7 493.4 517.75 493.6 518.15 495.25 Q518.15 496.4 517.7 496.75 L517.55 496.7 517.55 496.6 Q515.95 495.2 515.2 493.15 L514.6 491.8 515.35 492.0 515.4 492.0 Q516.1 492.0 516.4 490.75 L516.4 490.65 516.3 488.6 516.25 485.3 516.25 482.3 Q516.15 481.4 516.4 479.7 516.55 478.05 516.3 477.45 516.1 476.85 515.55 476.4 L514.65 475.7 513.9 475.4 513.45 475.4 513.55 475.1" fill="#d7cda7" fill-rule="evenodd" stroke="none"/>
    <path d="M513.45 475.4 L513.9 475.4 514.65 475.7 515.55 476.4 Q516.1 476.85 516.3 477.45 516.55 478.05 516.4 479.7 516.15 481.4 516.25 482.3 L516.25 485.3 516.3 488.6 516.4 490.65 516.4 490.75 Q516.1 492.0 515.4 492.0 L515.35 492.0 514.6 491.8 514.15 490.35 Q513.15 487.1 512.9 483.2 512.55 479.25 513.0 477.55 L513.45 475.4" fill="#fffbee" fill-rule="evenodd" stroke="none"/>
    <path d="M521.9 455.4 Q523.4 453.9 524.0 455.2 524.9 456.85 523.4 460.7 521.55 464.25 520.15 469.6 L519.95 470.35 518.75 471.95 516.55 473.15 517.45 472.5 517.45 472.4 517.55 472.35 517.7 472.35 517.75 472.25 517.85 472.15 Q518.8 470.9 519.7 468.35 L519.85 468.35 519.95 467.95 522.45 458.15 Q522.65 456.35 521.9 455.4" fill="#b8ae89" fill-rule="evenodd" stroke="none"/>
    <path d="M521.9 455.4 Q522.65 456.35 522.45 458.15 L519.95 467.95 519.85 468.35 519.7 468.35 Q518.8 470.9 517.85 472.15 L517.75 472.25 517.55 472.35 517.45 472.4 517.45 472.5 516.55 473.15 516.15 473.3 515.4 473.25 Q514.95 472.8 514.5 471.55 L514.45 471.2 514.65 469.85 515.25 470.5 516.4 470.65 Q517.55 470.5 518.05 469.85 518.9 467.5 518.95 465.6 518.9 463.95 518.15 463.1 L517.3 462.2 Q518.3 460.1 519.55 458.3 520.75 456.35 521.9 455.4" fill="#d7cda7" fill-rule="evenodd" stroke="none"/>
    <path d="M514.65 469.85 Q515.7 465.55 517.3 462.2 L518.15 463.1 Q518.9 463.95 518.95 465.6 518.9 467.5 518.05 469.85 517.55 470.5 516.4 470.65 L515.25 470.5 514.65 469.85" fill="#f7f0d5" fill-rule="evenodd" stroke="none"/>
    <path d="M517.75 472.25 L517.7 472.35 517.55 472.35 517.75 472.25" fill="#e9e1c3" fill-rule="evenodd" stroke="none"/>
    <path d="M492.95 463.55 L493.0 463.5 Q493.85 463.95 493.0 466.2 492.1 468.55 491.85 471.7 L491.85 473.85 491.8 474.8 Q491.8 475.8 492.15 478.45 L492.55 481.85 Q492.55 483.85 492.0 484.6 490.8 482.05 490.5 479.7 L489.9 475.7 Q489.7 474.8 489.75 473.55 L489.85 471.5 489.75 470.05 489.85 468.2 489.9 467.7 490.8 468.5 Q491.7 468.7 492.1 467.2 492.4 466.15 491.4 466.0 L490.6 465.9 490.45 465.85 490.8 465.1 491.05 465.25 491.5 465.3 491.65 465.1 491.1 464.5 491.4 464.0 Q492.0 463.4 492.95 463.55" fill="#d7cda7" fill-rule="evenodd" stroke="none"/>
    <path d="M492.95 463.55 Q492.0 463.4 491.4 464.0 L491.1 464.5 491.65 465.1 491.5 465.3 491.05 465.25 490.8 465.1 490.45 465.85 490.6 465.9 491.4 466.0 Q492.4 466.15 492.1 467.2 491.7 468.7 490.8 468.5 L489.9 467.7 489.85 468.2 489.75 470.05 489.85 471.5 489.75 473.55 Q489.7 474.8 489.9 475.7 L490.5 479.7 Q490.8 482.05 492.0 484.6 L491.85 484.85 Q490.3 482.05 490.0 479.65 L489.55 475.65 Q489.3 474.75 489.3 473.45 L489.3 471.25 489.3 469.85 489.4 468.0 Q489.45 466.75 490.45 464.7 491.35 462.75 492.95 463.55" fill="#e9e1c3" fill-rule="evenodd" stroke="none"/>
    <path d="M492.0 484.6 Q492.55 483.85 492.55 481.85 L492.15 478.45 Q491.8 475.8 491.8 474.8 L491.85 473.85 Q491.95 475.85 492.8 477.75 L492.95 478.2 494.5 482.95 Q494.9 485.1 495.55 487.1 L496.25 490.5 Q495.35 490.3 494.05 488.3 L492.7 486.2 491.85 484.85 492.0 484.6" fill="#b8ae89" fill-rule="evenodd" stroke="none"/>
    <path d="M493.0 463.5 L492.95 463.55" fill="none" stroke="#512a0c" stroke-linecap="round" stroke-linejoin="round" stroke-width="0.05"/>
    <path d="M496.3 471.4 L497.3 469.55 Q499.05 466.45 501.75 463.65 L501.9 463.35 502.45 462.95 502.65 462.9 Q503.55 462.45 503.7 462.9 504.0 463.25 503.65 464.5 L502.15 469.15 Q500.6 472.35 499.95 475.85 L499.5 477.3 Q498.9 480.4 498.65 483.85 498.45 487.95 499.25 491.05 499.8 493.9 498.45 494.65 497.6 494.9 496.45 493.55 497.45 493.45 497.85 492.15 L498.0 489.0 497.85 486.8 498.3 476.8 Q498.3 475.55 497.9 474.35 L497.9 474.3 Q497.6 472.95 497.15 472.55 L496.3 471.4" fill="#a18f6d" fill-rule="evenodd" stroke="none"/>
    <path d="M496.45 493.55 L495.1 490.95 Q494.5 489.55 494.05 487.8 L494.2 487.7 Q495.95 487.5 496.25 486.2 497.0 482.0 497.45 480.3 L498.05 477.0 498.2 476.25 497.9 474.35 Q498.3 475.55 498.3 476.8 L497.85 486.8 498.0 489.0 497.85 492.15 Q497.45 493.45 496.45 493.55 M495.85 472.55 L496.3 471.4 497.15 472.55 496.55 472.4 495.85 472.55" fill="#d7cda7" fill-rule="evenodd" stroke="none"/>
    <path d="M494.05 487.8 Q493.25 484.15 494.0 479.85 L494.05 479.4 Q494.45 475.8 495.85 472.55 L496.55 472.4 497.15 472.55 Q497.6 472.95 497.9 474.3 L497.9 474.35 498.2 476.25 498.05 477.0 497.45 480.3 Q497.0 482.0 496.25 486.2 495.95 487.5 494.2 487.7 L494.05 487.8" fill="#ece4c7" fill-rule="evenodd" stroke="none"/>
    <path d="M507.65 454.75 L508.45 454.05 509.15 453.75 509.25 453.85 509.1 454.75 507.85 457.3 507.7 457.6 Q507.25 458.35 506.75 459.85 L505.75 462.8 505.6 463.4 505.1 465.45 504.25 470.6 503.8 471.7 Q503.55 472.4 502.95 472.7 L501.7 473.0 501.45 473.0 502.65 471.8 Q503.2 471.05 503.4 469.85 L503.8 467.1 504.25 464.7 505.0 461.55 505.6 458.75 505.15 457.9 Q504.75 457.55 504.45 457.55 506.6 455.35 507.65 454.75" fill="#b8ae89" fill-rule="evenodd" stroke="none"/>
    <path d="M500.25 469.85 L500.1 469.75 500.1 469.55 500.1 469.3 Q500.15 468.0 500.7 465.0 501.45 461.25 502.15 461.25 502.6 461.25 502.9 462.05 503.25 462.9 503.25 464.0 L502.75 467.2 502.05 469.7 501.25 470.45 Q500.6 470.45 500.25 470.0 L500.25 469.85" fill="#f7f2dc" fill-rule="evenodd" stroke="none"/>
    <path d="M501.45 473.0 L501.3 473.0 Q500.3 472.85 499.7 471.95 L499.55 471.8 499.5 471.65 500.25 465.7 Q500.95 462.05 502.45 459.95 503.4 458.6 504.45 457.55 504.75 457.55 505.15 457.9 L505.6 458.75 505.0 461.55 504.25 464.7 503.8 467.1 503.4 469.85 Q503.2 471.05 502.65 471.8 L501.45 473.0 M500.25 470.0 Q500.6 470.45 501.25 470.45 L502.05 469.7 502.75 467.2 503.25 464.0 Q503.25 462.9 502.9 462.05 502.6 461.25 502.15 461.25 501.45 461.25 500.7 465.0 500.15 468.0 500.1 469.3 L500.1 469.55 500.1 469.75 500.25 469.85 500.25 470.0 M501.3 476.8 L501.6 476.1 Q502.3 474.95 503.55 474.95 L503.8 474.95 Q506.0 475.2 506.35 478.8 L506.9 483.65 508.7 489.4 508.85 489.9 509.75 491.65 512.0 494.5 513.15 495.85 513.3 496.4 Q513.3 497.25 512.7 496.9 L512.3 496.85 510.95 496.4 509.4 495.65 Q509.3 493.6 508.15 490.8 L507.95 490.2 507.05 487.95 506.0 485.7 Q505.55 484.4 504.9 480.7 L504.85 480.0 Q504.15 476.25 502.15 476.25 L502.05 476.25 501.3 476.8" fill="#d7cda7" fill-rule="evenodd" stroke="none"/>
    <path d="M509.4 495.65 L509.1 495.35 Q506.6 493.6 504.25 489.75 500.7 484.1 500.7 480.7 500.7 478.2 501.3 476.8 L502.05 476.25 502.15 476.25 Q504.15 476.25 504.85 480.0 L504.9 480.7 Q505.55 484.4 506.0 485.7 L507.05 487.95 507.95 490.2 508.15 490.8 Q509.3 493.6 509.4 495.65" fill="#f5f0dc" fill-rule="evenodd" stroke="none"/>
    <path d="M500.25 469.85 L500.25 470.0" fill="none" stroke="#41350f" stroke-linecap="round" stroke-linejoin="round" stroke-width="0.05"/>
    <path d="M504.45 457.55 Q506.6 455.35 507.65 454.75" fill="none" stroke="#5d5045" stroke-linecap="round" stroke-linejoin="round" stroke-width="0.05"/>
    <path d="M506.65 491.65 L506.3 491.0 Q506.0 490.95 505.3 491.35 505.1 491.05 505.2 490.7 L505.65 490.1 Q506.15 489.65 506.75 489.95 507.35 490.3 507.1 491.0 L506.65 491.65" fill="#d7cca5" fill-rule="evenodd" stroke="none"/>
    <path d="M506.7 492.85 Q507.1 492.3 507.45 492.45 L507.95 493.1 507.0 493.05 506.7 492.85" fill="#cbbf97" fill-rule="evenodd" stroke="none"/>
    <path d="M506.1 487.4 L506.0 487.1 505.6 487.3 505.5 486.95 505.7 486.75 506.2 486.7 506.3 487.15 506.1 487.4" fill="#b0a787" fill-rule="evenodd" stroke="none"/>
    <path d="M504.65 489.15 Q504.8 488.9 504.95 489.0 L505.2 489.25 504.8 489.2 504.65 489.15" fill="#bdb390" fill-rule="evenodd" stroke="none"/>
    <path d="M590.9 64.0 L587.7 64.3 586.1 64.6 Q579.85 66.2 577.7 70.85 575.85 75.0 577.45 80.75 578.15 83.2 578.4 83.65 L576.2 82.15 574.7 80.75 Q573.5 82.15 573.25 85.25 573.0 88.3 573.75 90.85 575.5 97.15 581.9 99.15 587.3 100.85 594.1 99.1 595.75 98.7 597.95 97.5 L601.35 95.6 601.25 95.15 Q598.25 94.9 596.05 94.05 593.7 93.1 592.1 91.3 596.55 93.55 601.65 93.0 602.05 91.9 603.0 90.6 605.0 87.8 607.7 87.0 605.25 89.15 604.5 90.15 603.2 91.85 603.9 94.45 605.5 100.05 617.9 100.55 621.8 100.8 626.7 100.35 L629.1 100.2 Q636.1 98.05 642.7 94.75 654.6 88.55 653.05 83.0 652.75 81.95 651.9 81.15 L650.35 79.9 Q648.4 78.7 646.1 78.55 L645.15 80.75 643.8 82.55 643.3 83.1 643.1 83.35 643.05 83.4 643.0 83.45 642.95 83.45 Q640.8 85.5 637.7 87.2 640.3 84.4 641.1 82.9 642.9 79.9 642.15 77.25 641.15 73.8 637.45 72.1 634.1 70.55 629.55 70.85 636.4 69.2 639.5 69.65 643.9 70.35 645.7 74.75 646.15 75.9 646.15 77.7 651.0 78.05 653.4 79.6 656.95 81.9 657.05 84.7 657.2 89.4 647.3 94.5 640.2 98.15 632.65 100.05 625.85 101.85 619.8 102.35 L615.05 102.45 Q604.15 102.35 602.45 97.95 L600.0 99.7 597.35 101.3 594.7 102.4 590.2 103.4 580.7 103.05 Q574.6 102.05 571.25 96.8 569.0 93.25 569.65 88.25 570.35 82.95 574.35 80.3 573.45 79.2 573.15 77.9 571.55 72.45 575.1 68.6 577.95 65.45 583.35 64.05 L589.1 63.7 590.9 64.0" fill="#c0d0ce" fill-rule="evenodd" stroke="none"/>
    <path d="M643.8 82.55 L645.15 80.75 646.1 78.55 Q648.4 78.7 650.35 79.9 L651.9 81.15 Q652.75 81.95 653.05 83.0 654.6 88.55 642.7 94.75 636.1 98.05 629.1 100.2 L626.7 100.35 Q621.8 100.8 617.9 100.55 605.5 100.05 603.9 94.45 603.2 91.85 604.5 90.15 605.25 89.15 607.7 87.0 605.0 87.8 603.0 90.6 602.05 91.9 601.65 93.0 596.55 93.55 592.1 91.3 593.7 93.1 596.05 94.05 598.25 94.9 601.25 95.15 L601.35 95.6 597.95 97.5 Q595.75 98.7 594.1 99.1 587.3 100.85 581.9 99.15 575.5 97.15 573.75 90.85 573.0 88.3 573.25 85.25 573.5 82.15 574.7 80.75 L576.2 82.15 578.4 83.65 Q578.15 83.2 577.45 80.75 575.85 75.0 577.7 70.85 579.85 66.2 586.1 64.6 L587.7 64.3 590.9 64.0 592.65 64.7 Q591.15 65.35 589.7 66.6 586.8 69.15 587.45 71.55 587.6 72.15 588.1 72.75 L589.0 73.75 Q587.9 71.25 589.55 69.05 591.2 66.85 594.2 66.0 L593.2 64.45 592.75 63.35 Q592.15 59.05 595.9 55.4 598.95 52.6 603.15 51.5 607.45 50.4 611.6 51.45 616.3 52.65 617.8 56.25 L617.95 56.6 616.55 56.8 Q615.7 57.05 614.65 57.7 L615.45 57.55 618.25 57.7 Q620.05 58.0 621.4 59.0 622.75 59.95 623.1 61.3 623.75 63.55 622.45 65.5 621.25 67.4 618.4 68.55 L616.3 69.05 613.85 69.3 613.6 69.35 615.2 70.0 617.55 70.65 Q620.5 71.2 625.15 69.5 L625.95 70.55 626.25 71.75 628.05 71.25 629.55 70.85 Q634.1 70.55 637.45 72.1 641.15 73.8 642.15 77.25 642.9 79.9 641.1 82.9 640.3 84.4 637.7 87.2 640.8 85.5 642.95 83.45 L643.0 83.45 643.05 83.4 643.1 83.35 643.8 82.55" fill="#ffffff" fill-rule="evenodd" stroke="none"/>
    <path d="M629.55 70.85 L628.05 71.25 626.25 71.75 625.95 70.55 625.15 69.5 Q620.5 71.2 617.55 70.65 L615.2 70.0 613.6 69.35 613.85 69.3 616.3 69.05 618.4 68.55 Q621.25 67.4 622.45 65.5 623.75 63.55 623.1 61.3 622.75 59.95 621.4 59.0 620.05 58.0 618.25 57.7 L615.45 57.55 614.65 57.7 Q615.7 57.05 616.55 56.8 L617.95 56.6 Q620.5 56.4 623.35 57.95 626.25 59.5 626.75 61.6 627.35 64.15 626.35 66.45 627.25 66.75 628.3 67.95 629.15 69.15 629.55 70.85 M593.2 64.45 L594.2 66.0 Q591.2 66.85 589.55 69.05 587.9 71.25 589.0 73.75 L588.1 72.75 Q587.6 72.15 587.45 71.55 586.8 69.15 589.7 66.6 591.15 65.35 592.65 64.7 592.9 64.6 593.2 64.45" fill="#dde7e6" fill-rule="evenodd" stroke="none"/>
    <path d="M119.0 138.45 Q132.1 135.25 138.1 136.15 146.5 137.45 150.0 145.95 150.9 148.15 150.8 151.6 160.15 152.3 164.8 155.25 171.6 159.7 171.85 165.0 172.1 174.1 153.05 183.85 139.4 190.95 124.9 194.6 111.85 198.0 100.2 198.95 95.65 199.25 91.1 199.15 70.1 198.95 66.85 190.5 L62.15 193.9 57.05 196.95 Q53.8 198.75 51.9 199.1 L43.25 201.0 Q36.45 202.5 24.95 200.35 13.3 198.4 6.85 188.35 2.5 181.5 3.8 171.9 5.1 161.7 12.75 156.55 11.1 154.5 10.45 151.95 7.45 141.5 14.2 134.1 19.7 128.05 30.1 125.4 35.15 124.15 41.15 124.75 L44.6 125.3 38.45 125.9 35.45 126.45 Q23.4 129.5 19.25 138.45 15.65 146.4 18.75 157.45 20.15 162.2 20.65 163.05 L16.4 160.2 13.5 157.5 Q11.2 160.2 10.7 166.1 10.15 171.95 11.6 176.95 15.0 189.0 27.3 192.8 37.75 196.05 50.8 192.75 53.9 191.95 58.2 189.65 L64.7 186.05 64.55 185.15 Q58.75 184.65 54.5 183.0 50.05 181.2 46.9 177.75 55.5 182.05 65.25 181.0 66.05 178.9 67.85 176.45 71.75 171.0 76.95 169.5 72.2 173.6 70.75 175.55 68.3 178.8 69.65 183.8 72.7 194.55 96.5 195.55 104.05 196.0 113.5 195.2 L118.05 194.85 Q131.55 190.7 144.25 184.35 167.15 172.45 164.1 161.85 163.55 159.75 161.85 158.25 L158.9 155.85 Q155.2 153.55 150.75 153.25 150.15 155.65 148.95 157.45 148.15 158.8 146.35 161.0 L145.35 162.0 145.2 162.2 144.95 162.4 144.9 162.55 Q144.85 162.55 144.75 162.65 L144.7 162.65 Q140.55 166.6 134.55 169.85 139.65 164.45 141.15 161.65 144.6 155.85 143.15 150.75 141.2 144.1 134.15 140.85 127.65 137.85 119.0 138.45" fill="#c0d0ce" fill-rule="evenodd" stroke="none"/>
    <path d="M44.6 125.3 Q46.55 125.8 48.0 126.6 45.1 127.85 42.3 130.3 36.75 135.15 38.05 139.8 38.35 140.9 39.25 142.15 L41.0 144.0 Q38.9 139.15 42.0 135.0 45.2 130.75 50.95 129.05 49.75 127.9 49.0 126.1 48.35 125.0 48.15 124.0 47.05 115.7 54.2 108.8 60.15 103.35 68.15 101.25 76.45 99.1 84.4 101.1 93.5 103.45 96.4 110.35 L96.6 111.0 93.9 111.45 Q92.35 111.9 90.3 113.1 L91.85 112.8 97.15 113.1 Q100.7 113.75 103.3 115.65 105.85 117.5 106.55 120.1 107.8 124.35 105.35 128.15 102.95 131.8 97.45 134.05 L93.4 135.0 88.8 135.4 88.3 135.55 91.3 136.8 Q93.7 137.65 95.85 138.1 101.6 139.1 110.45 135.85 L112.05 137.85 Q112.6 138.8 112.6 140.2 L116.0 139.15 119.0 138.45 Q127.65 137.85 134.15 140.85 141.2 144.1 143.15 150.75 144.6 155.85 141.15 161.65 139.65 164.45 134.55 169.85 140.55 166.6 144.7 162.65 L144.75 162.65 Q144.85 162.55 144.9 162.55 L144.95 162.4 145.2 162.2 146.35 161.0 Q148.15 158.8 148.95 157.45 150.15 155.65 150.75 153.25 155.2 153.55 158.9 155.85 L161.85 158.25 Q163.55 159.75 164.1 161.85 167.15 172.45 144.25 184.35 131.55 190.7 118.05 194.85 L113.5 195.2 Q104.05 196.0 96.5 195.55 72.7 194.55 69.65 183.8 68.3 178.8 70.75 175.55 72.2 173.6 76.95 169.5 71.75 171.0 67.85 176.45 66.05 178.9 65.25 181.0 55.5 182.05 46.9 177.75 50.05 181.2 54.5 183.0 58.75 184.65 64.55 185.15 L64.7 186.05 58.2 189.65 Q53.9 191.95 50.8 192.75 37.75 196.05 27.3 192.8 15.0 189.0 11.6 176.95 10.15 171.95 10.7 166.1 11.2 160.2 13.5 157.5 L16.4 160.2 20.65 163.05 Q20.15 162.2 18.75 157.45 15.65 146.4 19.25 138.45 23.4 129.5 35.45 126.45 L38.45 125.9 44.6 125.3" fill="#ffffff" fill-rule="evenodd" stroke="none"/>
    <path d="M48.0 126.6 L49.0 126.1 Q49.75 127.9 50.95 129.05 45.2 130.75 42.0 135.0 38.9 139.15 41.0 144.0 L39.25 142.15 Q38.35 140.9 38.05 139.8 36.75 135.15 42.3 130.3 45.1 127.85 48.0 126.6 M96.6 111.0 Q101.5 110.65 107.0 113.6 112.55 116.65 113.55 120.6 114.7 125.55 112.75 129.95 114.5 130.5 116.5 132.9 118.2 135.2 119.0 138.45 L116.0 139.15 112.6 140.2 Q112.6 138.8 112.05 137.85 L110.45 135.85 Q101.6 139.1 95.85 138.1 93.7 137.65 91.3 136.8 L88.3 135.55 88.8 135.4 93.4 135.0 97.45 134.05 Q102.95 131.8 105.35 128.15 107.8 124.35 106.55 120.1 105.85 117.5 103.3 115.65 100.7 113.75 97.15 113.1 L91.85 112.8 90.3 113.1 Q92.35 111.9 93.9 111.45 L96.6 111.0" fill="#dde7e6" fill-rule="evenodd" stroke="none"/>
    <path d="M72.85 364.7 L88.9 378.35 93.35 401.05 Q97.65 425.1 97.3 432.0 98.95 433.0 100.7 435.4 104.95 441.2 106.0 447.1 L107.45 455.8 Q108.6 463.8 107.9 466.05 L95.85 473.25 Q64.8 481.95 46.15 481.6 33.25 481.75 23.4 477.0 L16.1 472.2 12.65 401.8 28.95 363.8 45.95 359.0 72.85 364.7" fill="#bd9542" fill-rule="evenodd" stroke="none"/>
    <path d="M72.85 364.7 L88.9 378.35 93.35 401.05 Q97.65 425.1 97.3 432.0 98.95 433.0 100.7 435.4 104.95 441.2 106.0 447.1 L107.45 455.8 Q108.6 463.8 107.9 466.05 L95.85 473.25 Q64.8 481.95 46.15 481.6 33.25 481.75 23.4 477.0 L16.1 472.2 12.65 401.8 28.95 363.8 45.95 359.0 72.85 364.7 Z" fill="none" stroke="#84612e" stroke-linecap="round" stroke-linejoin="round" stroke-width="4.0"/>
    <path d="M82.05 376.7 L88.9 393.05 Q95.5 412.35 96.35 426.9 98.05 473.55 95.9 473.2 64.8 481.95 46.05 481.65 33.2 481.8 23.4 477.0 19.75 474.8 16.05 472.2 14.55 437.0 12.65 401.85 L82.05 376.7" fill="#936b34" fill-rule="evenodd" stroke="none"/>
    <path d="M28.95 363.8 L34.25 375.8 36.55 389.0 36.6 399.4 Q36.55 411.25 35.45 419.3 34.0 427.45 28.95 425.15 25.8 423.55 22.95 419.75 L14.25 400.85 28.95 363.8" fill="#c6a473" fill-rule="evenodd" stroke="none"/>
    <path d="M31.4 377.7 L28.95 363.8 Q37.45 361.6 45.95 359.0 L72.8 364.7 89.7 379.3 74.3 405.7 Q71.45 410.15 69.45 406.55 L56.7 387.3 48.75 386.85 31.4 377.7" fill="#e5d3ad" fill-rule="evenodd" stroke="none"/>
    <path d="M46.75 391.85 L56.3 389.15 56.15 404.6 33.95 427.1 51.1 479.7 30.6 424.15 43.35 401.05 46.75 391.85" fill="#c6a473" fill-rule="evenodd" stroke="none"/>
    <path d="M34.5 387.55 Q35.2 385.3 36.4 384.05 L37.35 383.15 50.05 390.25 49.45 407.15 Q43.7 415.4 37.6 423.3 L42.85 437.05 36.1 441.45 30.9 428.0 34.5 387.55" fill="#e0c48f" fill-rule="evenodd" stroke="none"/>
    <path d="M62.4 399.15 Q61.0 393.3 64.35 394.2 66.95 394.4 70.8 398.0 71.3 398.7 80.35 388.75 89.4 378.8 89.65 379.25 92.7 394.4 98.7 431.6 L80.9 456.85 Q63.25 481.4 64.5 478.05 64.95 476.9 57.65 449.5 L71.55 430.5 69.9 400.75 62.4 399.15" fill="#ad9065" fill-rule="evenodd" stroke="none"/>
    <path d="M30.1 370.4 L31.4 377.7 48.75 386.85 55.8 385.95 62.3 393.45 72.95 394.8 86.7 381.7 73.25 400.9 60.45 395.95 56.35 389.15 50.0 390.8 30.8 380.7 30.1 370.4" fill="#fdfcfb" fill-rule="evenodd" stroke="none"/>
    <path d="M60.35 395.95 L72.75 400.95 71.85 428.35 55.65 421.9 60.35 395.95" fill="#c6a473" fill-rule="evenodd" stroke="none"/>
    <path d="M104.25 445.6 L106.8 453.75 Q109.0 462.3 107.85 466.1 102.7 469.2 100.9 469.15 99.05 469.1 98.05 465.3 L91.55 456.8 Q86.4 450.15 87.85 442.0 90.05 440.2 97.25 442.5 101.1 444.0 104.25 445.6" fill="#c6a473" fill-rule="evenodd" stroke="none"/>
    <path d="M91.95 454.95 L93.85 455.7 Q95.8 456.75 96.8 458.35 97.7 459.3 103.55 461.85 105.3 463.7 102.85 465.9 L99.6 470.1 Q97.45 472.2 96.15 470.7 88.6 460.55 88.8 459.75 L91.95 454.95" fill="#e5d3ad" fill-rule="evenodd" stroke="none"/>
    <path d="M91.4 447.85 Q87.95 446.7 87.5 442.05 87.0 437.15 91.6 432.75 95.95 428.8 100.65 435.45 104.9 441.15 105.95 447.05 106.65 450.9 104.7 452.35 L101.15 452.25 Q100.2 450.95 95.55 449.25 L91.4 447.85" fill="#d9bc88" fill-rule="evenodd" stroke="none"/>
    <path d="M35.9 498.45 L34.0 499.65 39.35 493.15 40.05 492.5 34.3 488.25 19.75 487.6 33.9 484.6 45.6 490.9 64.6 488.6 64.9 488.65 63.45 488.95 43.4 495.1 42.0 494.05 35.9 498.45" fill="#a05b10" fill-rule="evenodd" stroke="none"/>
    <path d="M63.45 488.95 L43.9 497.0 41.8 495.15 35.9 498.45 42.0 494.05 43.4 495.1 63.45 488.95" fill="#ffffff" fill-rule="evenodd" stroke="none"/>
    <path d="M45.3 469.45 Q54.65 470.9 54.3 471.15 L50.8 478.4 56.65 487.95 Q56.9 488.3 56.6 489.0 L41.7 491.6 45.3 469.45" fill="#a27f46" fill-rule="evenodd" stroke="none"/>
    <path d="M61.9 467.15 L63.6 473.25 Q65.4 479.95 64.7 483.05 61.35 485.45 60.1 485.3 58.85 485.3 58.1 482.3 L53.4 475.45 Q49.75 470.1 50.75 463.9 52.15 462.4 57.1 464.65 59.6 465.65 61.9 467.15" fill="#c6a473" fill-rule="evenodd" stroke="none"/>
    <path d="M36.0 468.35 L45.85 469.15 46.75 470.85 Q47.65 473.35 46.75 477.7 45.2 484.35 47.45 486.5 L44.65 489.45 41.7 491.6 38.4 488.1 36.0 468.35" fill="#e0c48f" fill-rule="evenodd" stroke="none"/>
    <path d="M54.2 488.4 L53.0 487.55 Q52.25 486.65 49.85 486.05 47.45 485.2 47.35 482.35 L47.65 479.4 48.95 477.3 Q50.2 475.15 51.1 474.4 52.1 473.8 53.35 474.0 L54.25 474.25 60.25 486.1 Q56.95 489.75 54.2 488.4" fill="#84612e" fill-rule="evenodd" stroke="none"/>
    <path d="M61.3 482.75 L59.35 485.85 Q57.8 487.55 56.95 486.25 51.5 478.9 51.7 477.65 L53.55 473.95 54.95 474.75 Q56.3 475.6 56.95 476.7 58.3 478.55 61.6 479.8 62.85 480.85 61.3 482.75" fill="#e5d3ad" fill-rule="evenodd" stroke="none"/>
    <path d="M29.6 462.85 Q29.2 459.4 33.55 464.05 L37.8 469.25 37.8 476.35 Q38.05 483.75 39.65 486.8 42.75 492.7 39.9 491.95 36.85 491.25 35.45 489.0 34.9 488.3 31.9 486.5 28.95 484.95 28.75 483.95 28.45 482.15 28.45 477.55 28.6 472.4 29.35 470.75 30.15 469.4 29.9 465.9 L29.6 462.85" fill="#c6a473" fill-rule="evenodd" stroke="none"/>
    <path d="M59.5 459.25 Q62.3 463.5 63.1 468.15 63.65 471.15 62.4 472.2 61.15 473.45 60.0 472.0 59.05 471.15 56.15 469.8 L53.2 468.45 Q50.95 467.35 50.55 463.95 50.1 460.1 53.0 456.85 56.0 453.85 59.5 459.25" fill="#d9bc88" fill-rule="evenodd" stroke="none"/>
    <path d="M36.35 455.25 L44.8 453.75 56.65 456.4 52.9 465.55 49.85 470.7 48.0 467.25 35.1 466.85 29.6 461.6 36.35 455.25" fill="#e5d3ad" fill-rule="evenodd" stroke="none"/>
    <path d="M51.4 471.25 L46.1 469.5 37.8 469.25 33.1 465.15 37.4 467.05 45.45 466.7 49.9 467.55 56.15 458.2 51.4 471.25" fill="#f2ede4" fill-rule="evenodd" stroke="none"/>
    <path d="M667.3 362.2 Q669.6 356.4 673.15 361.1 677.0 368.2 674.15 381.3 L674.1 381.45 672.7 387.0 672.15 388.75 Q664.45 414.4 653.5 416.55 L653.15 431.8 Q654.35 431.0 656.4 429.1 L659.1 426.45 Q659.05 426.05 659.35 425.55 659.95 424.55 660.7 423.8 661.55 422.9 661.7 422.9 L661.8 422.85 Q662.15 422.9 662.15 424.15 L662.15 424.5 Q663.55 423.95 664.05 424.9 665.1 426.35 663.55 430.2 L662.95 431.35 662.85 431.45 Q661.75 433.85 660.45 435.75 659.6 437.4 657.6 439.75 655.35 442.75 652.85 444.6 L652.85 457.85 Q652.6 460.75 649.5 463.55 L648.25 464.5 Q645.3 466.55 641.7 467.0 637.05 467.4 630.6 465.7 623.4 463.8 621.35 458.55 620.1 455.0 620.7 446.3 614.65 446.4 611.45 443.4 608.35 440.6 606.9 434.2 605.3 425.75 606.45 417.05 608.15 404.05 615.7 390.7 620.1 385.75 619.6 393.6 L618.45 400.5 Q618.15 405.3 618.85 408.2 L619.25 407.75 Q620.15 406.8 620.4 406.9 L620.4 407.0 620.65 408.5 620.4 411.05 620.4 411.4 Q621.85 413.05 624.25 413.0 626.2 396.45 631.0 378.3 L631.5 376.8 Q634.9 363.35 640.35 360.7 642.2 359.6 644.6 360.15 L645.7 360.45 Q650.6 362.5 652.65 372.85 653.35 372.25 653.65 372.4 L653.65 372.55 653.7 373.8 653.65 376.0 653.35 376.75 Q654.05 382.1 654.15 389.3 659.35 388.55 663.7 374.65 662.95 374.45 663.0 373.65 663.05 372.0 663.75 370.75 664.25 369.7 664.6 369.75 L664.6 369.95 664.9 370.6 666.3 365.0 Q666.7 363.4 667.3 362.2" fill="#5b9311" fill-rule="evenodd" stroke="none"/>
    <path d="M667.3 362.2 Q669.6 356.4 673.15 361.1 677.0 368.2 674.15 381.3 L674.1 381.45 672.7 387.0 672.15 388.75 Q664.45 414.4 653.5 416.55 L653.15 431.8 Q654.35 431.0 656.4 429.1 L659.1 426.45 Q659.05 426.05 659.35 425.55 659.95 424.55 660.7 423.8 661.55 422.9 661.7 422.9 L661.8 422.85 Q662.15 422.9 662.15 424.15 L662.15 424.5 Q663.55 423.95 664.05 424.9 665.1 426.35 663.55 430.2 L662.95 431.35 662.85 431.45 Q661.75 433.85 660.45 435.75 659.6 437.4 657.6 439.75 655.35 442.75 652.85 444.6 L652.85 457.85 Q652.6 460.75 649.5 463.55 L648.25 464.5 Q645.3 466.55 641.7 467.0 637.05 467.4 630.6 465.7 623.4 463.8 621.35 458.55 620.1 455.0 620.7 446.3 614.65 446.4 611.45 443.4 608.35 440.6 606.9 434.2 605.3 425.75 606.45 417.05 608.15 404.05 615.7 390.7 620.1 385.75 619.6 393.6 L618.45 400.5 Q618.15 405.3 618.85 408.2 L619.25 407.75 Q620.15 406.8 620.4 406.9 L620.4 407.0 620.65 408.5 620.4 411.05 620.4 411.4 Q621.85 413.05 624.25 413.0 626.2 396.45 631.0 378.3 L631.5 376.8 Q634.9 363.35 640.35 360.7 642.2 359.6 644.6 360.15 L645.7 360.45 Q650.6 362.5 652.65 372.85 653.35 372.25 653.65 372.4 L653.65 372.55 653.7 373.8 653.65 376.0 653.35 376.75 Q654.05 382.1 654.15 389.3 659.35 388.55 663.7 374.65 662.95 374.45 663.0 373.65 663.05 372.0 663.75 370.75 664.25 369.7 664.6 369.75 L664.6 369.95 664.9 370.6 666.3 365.0 Q666.7 363.4 667.3 362.2 Z" fill="none" stroke="#305400" stroke-linecap="round" stroke-linejoin="round" stroke-width="3.5"/>
    <path d="M668.4 366.7 L668.8 366.9 668.95 368.15 Q669.15 369.65 668.8 372.75 668.35 376.3 667.6 378.15 L666.0 381.9 Q664.35 384.85 661.8 384.3 663.4 382.55 665.05 376.65 666.5 370.7 667.45 368.35 L667.85 367.5 668.4 366.7" fill="#98d951" fill-rule="evenodd" stroke="none"/>
    <path d="M668.4 366.7 L667.85 367.5 667.45 368.35 Q666.5 370.7 665.05 376.65 663.4 382.55 661.8 384.3 664.35 384.85 666.0 381.9 L667.6 378.15 Q668.35 376.3 668.8 372.75 669.15 369.65 668.95 368.15 L668.8 366.9 668.4 366.7 M654.2 389.3 Q660.95 388.35 666.3 364.9 L667.3 362.15 Q669.55 360.15 670.55 361.65 672.8 364.9 671.9 373.1 671.55 383.8 663.55 396.1 657.75 401.4 654.25 397.4 L654.2 389.3" fill="#86c740" fill-rule="evenodd" stroke="none"/>
    <path d="M674.1 381.45 L672.7 386.95 672.2 388.75 Q664.45 414.4 653.55 416.55 L653.55 416.45 Q653.65 413.8 653.9 411.4 659.3 411.8 666.85 399.2 670.7 392.95 674.1 381.45" fill="#3c6b00" fill-rule="evenodd" stroke="none"/>
    <path d="M667.3 362.15 Q669.65 356.4 673.15 361.1 677.1 368.2 674.2 381.3 L674.1 381.45 Q670.7 392.95 666.85 399.2 659.3 411.8 653.9 411.4 L654.25 397.4 Q657.75 401.4 663.55 396.1 671.55 383.8 671.9 373.1 672.8 364.9 670.55 361.65 669.55 360.15 667.3 362.15" fill="#559109" fill-rule="evenodd" stroke="none"/>
    <path d="M650.05 400.1 Q650.15 411.5 648.7 415.7 L647.45 418.0 Q646.65 419.05 645.7 418.7 643.65 418.0 642.3 410.55 640.85 403.8 640.4 394.3 639.95 384.9 640.65 377.75 641.25 370.0 643.3 368.5 645.95 366.4 647.95 376.0 649.25 382.4 649.5 387.45 L650.05 400.1 M648.85 388.75 Q648.85 384.8 647.95 379.5 646.8 371.9 644.4 373.45 642.85 374.55 642.1 380.75 641.25 386.3 641.45 393.95 641.5 401.55 642.3 407.0 643.1 412.95 644.7 413.7 645.5 414.0 646.2 413.15 L647.3 411.35 Q648.55 408.1 648.8 398.85 L648.85 388.75" fill="#94d455" fill-rule="evenodd" stroke="none"/>
    <path d="M653.55 416.55 L653.15 431.8 Q652.05 432.6 650.55 433.0 L646.1 433.55 645.4 433.25 642.95 433.1 641.75 433.0 641.45 433.0 639.05 433.5 Q637.55 434.25 636.6 436.25 635.05 439.2 635.9 443.2 636.25 445.75 637.4 447.25 638.45 448.5 640.15 449.4 642.9 450.6 646.15 449.1 648.35 448.2 652.9 444.6 L652.9 457.8 Q652.65 460.75 649.55 463.55 L648.3 464.5 643.6 464.25 Q636.0 461.75 633.45 450.2 630.4 426.2 631.35 398.45 632.2 371.7 640.4 360.7 642.3 359.6 644.65 360.15 L645.75 360.45 Q653.65 363.8 654.2 389.3 L654.25 397.4 653.9 411.4 Q653.65 413.8 653.55 416.45 L653.55 416.55 M650.05 400.1 L649.5 387.45 Q649.25 382.4 647.95 376.0 645.95 366.4 643.3 368.5 641.25 370.0 640.65 377.75 639.95 384.9 640.4 394.3 640.85 403.8 642.3 410.55 643.65 418.0 645.7 418.7 646.65 419.05 647.45 418.0 L648.7 415.7 Q650.15 411.5 650.05 400.1" fill="#7eba2f" fill-rule="evenodd" stroke="none"/>
    <path d="M656.4 429.1 L659.35 426.25 Q663.1 423.15 664.1 424.9 665.1 426.35 663.55 430.2 L662.95 431.35 662.9 431.45 Q661.3 434.05 656.25 439.25 651.1 444.35 645.85 443.9 640.5 443.4 639.55 441.25 638.7 439.05 638.9 437.4 638.8 436.45 639.5 435.45 640.1 434.45 641.45 433.0 L641.75 433.0 642.95 433.1 645.4 433.25 646.1 433.55 Q644.3 434.4 644.0 435.2 643.65 436.25 644.1 436.8 644.4 437.2 645.5 437.55 648.2 438.55 652.25 436.25 656.15 434.0 657.25 431.4 L657.6 429.75 Q657.55 429.35 657.05 429.1 L656.4 429.1" fill="#85b424" fill-rule="evenodd" stroke="none"/>
    <path d="M653.15 431.8 Q654.4 431.0 656.4 429.1 L657.05 429.1 Q657.55 429.35 657.6 429.75 L657.25 431.4 Q656.15 434.0 652.25 436.25 648.2 438.55 645.5 437.55 644.4 437.2 644.1 436.8 643.65 436.25 644.0 435.2 644.3 434.4 646.1 433.55 L650.55 433.0 Q652.05 432.6 653.15 431.8" fill="#b1d943" fill-rule="evenodd" stroke="none"/>
    <path d="M662.9 431.45 L660.45 435.75 Q659.7 437.4 657.65 439.75 655.4 442.6 652.9 444.6 648.35 448.2 646.15 449.1 642.9 450.6 640.15 449.4 638.45 448.5 637.4 447.25 636.25 445.75 635.9 443.2 635.05 439.2 636.6 436.25 637.55 434.25 639.05 433.5 L641.45 433.0 Q640.1 434.45 639.5 435.45 638.8 436.45 638.9 437.4 638.7 439.05 639.55 441.25 640.5 443.4 645.85 443.9 651.1 444.35 656.25 439.25 661.3 434.05 662.9 431.45" fill="#538710" fill-rule="evenodd" stroke="none"/>
    <path d="M648.85 388.75 L648.8 398.85 Q648.55 408.1 647.3 411.35 L646.2 413.15 Q645.5 414.0 644.7 413.7 643.1 412.95 642.3 407.0 641.5 401.55 641.45 393.95 641.25 386.3 642.1 380.75 642.85 374.55 644.4 373.45 646.8 371.9 647.95 379.5 648.85 384.8 648.85 388.75" fill="#a0e05e" fill-rule="evenodd" stroke="none"/>
    <path d="M606.5 417.05 Q608.15 404.0 615.7 390.65 620.15 385.7 619.6 393.6 619.3 392.45 618.65 393.05 613.65 401.2 612.15 410.2 611.05 415.7 612.25 419.25 613.3 422.4 616.65 423.85 620.15 425.35 623.75 417.45 L622.3 429.8 Q621.65 435.2 621.3 439.8 607.5 443.95 606.5 417.05" fill="#477005" fill-rule="evenodd" stroke="none"/>
    <path d="M619.6 393.6 Q619.4 396.3 618.5 400.5 617.6 413.2 624.25 413.0 L623.75 417.45 Q620.15 425.35 616.65 423.85 613.3 422.4 612.25 419.25 611.05 415.7 612.15 410.2 613.65 401.2 618.65 393.05 619.3 392.45 619.6 393.6" fill="#81ad26" fill-rule="evenodd" stroke="none"/>
    <path d="M648.3 464.5 Q645.3 466.5 641.75 467.0 637.1 467.4 630.65 465.7 623.45 463.8 621.4 458.55 620.15 455.0 620.75 446.3 620.85 443.35 621.3 439.8 621.65 435.2 622.3 429.8 L623.75 417.45 624.25 413.0 Q626.25 396.45 631.0 378.3 L631.55 376.75 Q634.95 363.35 640.4 360.7 632.2 371.7 631.35 398.45 630.4 426.2 633.45 450.2 636.0 461.75 643.6 464.25 L648.3 464.5" fill="#467f09" fill-rule="evenodd" stroke="none"/>
    <path d="M620.75 446.3 Q614.65 446.35 611.5 443.4 608.4 440.6 606.9 434.2 605.3 425.75 606.5 417.05 607.5 443.95 621.3 439.8 620.85 443.35 620.75 446.3" fill="#365800" fill-rule="evenodd" stroke="none"/>
    <path d="M617.85 429.9 Q617.55 429.9 617.6 429.1 L617.85 428.0 617.95 429.35 617.85 430.1 617.85 429.9" fill="#3c8009" fill-rule="evenodd" stroke="none"/>
    <path d="M613.6 433.65 L614.4 434.75 615.35 436.75 Q615.75 437.8 614.7 438.3 L614.4 438.5 Q613.9 438.3 613.65 437.15 613.3 435.9 613.35 434.8 613.45 433.6 613.6 433.65" fill="#275b00" fill-rule="evenodd" stroke="none"/>
    <path d="M614.4 438.5 L614.15 438.5 Q613.4 438.75 613.0 437.7 612.7 436.05 612.95 434.75 613.2 433.5 613.5 433.55 L613.6 433.65 Q613.45 433.6 613.35 434.8 613.3 435.9 613.65 437.15 613.9 438.3 614.4 438.5" fill="#1a3f00" fill-rule="evenodd" stroke="none"/>
    <path d="M634.55 403.85 L635.9 405.4 Q637.0 406.9 637.55 408.85 638.25 410.65 636.65 411.4 L636.0 411.75 Q635.0 411.5 634.55 409.7 633.95 407.6 634.15 405.7 L634.55 403.85 M636.35 407.55 L635.3 405.35 636.1 408.2 636.75 409.95 Q636.65 409.6 636.95 409.45 637.3 409.45 636.35 407.55" fill="#3d8e01" fill-rule="evenodd" stroke="none"/>
    <path d="M636.35 407.55 Q637.3 409.45 636.95 409.45 636.65 409.6 636.75 409.95 L636.1 408.2 635.3 405.35 636.35 407.55" fill="#69cd1e" fill-rule="evenodd" stroke="none"/>
    <path d="M636.0 411.75 L635.45 411.85 Q634.1 412.2 633.55 410.6 633.0 407.85 633.55 405.75 633.85 403.6 634.4 403.65 L634.55 403.85 634.15 405.7 Q633.95 407.6 634.55 409.7 635.0 411.5 636.0 411.75" fill="#255800" fill-rule="evenodd" stroke="none"/>
    <path d="M627.75 439.5 Q627.1 439.4 626.8 438.3 626.45 437.15 626.7 435.8 626.7 434.8 626.8 434.75 L627.6 435.7 628.65 437.7 Q629.1 438.85 628.05 439.4 L627.75 439.5 M628.15 438.3 L628.25 438.1 Q628.55 438.1 627.9 437.0 627.4 435.8 627.1 435.65 L627.75 437.4 628.15 438.3" fill="#275b00" fill-rule="evenodd" stroke="none"/>
    <path d="M626.8 434.75 Q626.7 434.8 626.7 435.8 626.45 437.15 626.8 438.3 627.1 439.4 627.75 439.5 L627.4 439.6 Q626.4 439.8 626.2 438.85 625.85 437.2 626.15 435.8 626.4 434.55 626.75 434.75 L626.8 434.75" fill="#1a3f00" fill-rule="evenodd" stroke="none"/>
    <path d="M628.15 438.3 L627.75 437.4 627.1 435.65 Q627.4 435.8 627.9 437.0 628.55 438.1 628.25 438.1 L628.15 438.3" fill="#3c8009" fill-rule="evenodd" stroke="none"/>
    <path d="M617.95 443.4 L618.0 442.3 Q618.0 443.15 618.15 443.7 L618.05 444.3 617.95 444.25 617.95 443.4" fill="#3c8009" fill-rule="evenodd" stroke="none"/>
    <path d="M608.85 428.7 L608.85 428.75 608.35 428.75 Q607.7 428.65 607.6 427.75 L607.85 426.35 608.15 425.45 608.6 426.2 608.85 427.7 608.85 428.7 M608.1 428.1 L608.15 427.4 608.1 426.1 607.9 427.15 Q607.9 428.05 608.05 428.05 L608.1 428.1" fill="#275b00" fill-rule="evenodd" stroke="none"/>
    <path d="M608.15 425.45 Q608.45 425.2 608.85 426.05 609.35 426.8 609.45 428.05 609.45 428.7 608.85 428.7 L608.85 427.7 608.6 426.2 608.15 425.45" fill="#1a3f00" fill-rule="evenodd" stroke="none"/>
    <path d="M608.1 428.1 L608.05 428.05 Q607.9 428.05 607.9 427.15 L608.1 426.1 608.15 427.4 608.1 428.1" fill="#3c8009" fill-rule="evenodd" stroke="none"/>
    <path d="M628.35 453.65 Q628.7 453.65 627.75 451.7 L626.6 449.3 627.55 452.4 628.2 454.1 Q628.05 453.75 628.35 453.65 M625.9 447.85 L627.3 449.65 Q628.35 451.15 629.1 453.05 629.75 454.9 628.15 455.75 L627.4 455.95 Q626.4 455.8 625.9 453.75 625.4 451.9 625.6 449.85 625.75 447.8 625.9 447.85" fill="#275b00" fill-rule="evenodd" stroke="none"/>
    <path d="M628.35 453.65 Q628.05 453.75 628.2 454.1 L627.55 452.4 626.6 449.3 627.75 451.7 Q628.7 453.65 628.35 453.65" fill="#3c8009" fill-rule="evenodd" stroke="none"/>
    <path d="M627.4 455.95 L626.9 456.1 Q625.4 456.45 624.9 454.85 624.3 452.1 624.85 449.85 625.25 447.8 625.85 447.8 L625.9 447.85 Q625.75 447.8 625.6 449.85 625.4 451.9 625.9 453.75 626.4 455.8 627.4 455.95" fill="#1a3f00" fill-rule="evenodd" stroke="none"/>
    <path d="M639.05 463.4 Q640.15 463.05 640.4 461.05 640.75 459.05 640.6 457.1 L640.05 455.2 640.15 455.0 Q640.7 454.95 641.25 457.0 641.95 459.2 641.6 461.95 641.25 463.65 639.65 463.5 L639.05 463.4" fill="#1a3f00" fill-rule="evenodd" stroke="none"/>
    <path d="M640.05 455.2 L640.6 457.1 Q640.75 459.05 640.4 461.05 640.15 463.05 639.05 463.4 L638.55 463.15 Q636.7 462.4 637.3 460.55 637.8 458.55 638.75 457.05 639.75 455.25 640.05 455.2 M638.35 461.35 L638.75 459.8 Q638.85 459.0 639.45 456.75 639.15 457.1 638.4 459.05 637.7 461.1 638.05 461.1 L638.35 461.35" fill="#275b00" fill-rule="evenodd" stroke="none"/>
    <path d="M638.35 461.35 L638.05 461.1 Q637.7 461.1 638.4 459.05 639.15 457.1 639.45 456.75 638.85 459.0 638.75 459.8 L638.35 461.35" fill="#3c8009" fill-rule="evenodd" stroke="none"/>
    <path d="M645.65 443.75 Q646.1 442.45 646.3 442.25 L645.9 444.1 645.55 445.15 Q645.55 445.05 645.4 445.05 645.1 445.05 645.65 443.75" fill="#3c8009" fill-rule="evenodd" stroke="none"/>
    <path d="M649.6 408.4 L648.95 408.15 Q646.9 407.35 647.5 405.25 648.15 403.05 649.05 401.2 650.35 399.3 650.6 399.2 L650.65 399.2 651.25 401.3 Q651.45 403.65 651.05 405.8 650.75 408.15 649.6 408.4 M648.35 405.95 Q648.7 405.9 648.7 406.35 L649.25 404.4 650.0 400.85 648.8 403.6 Q647.95 405.8 648.35 405.95" fill="#5fa32b" fill-rule="evenodd" stroke="none"/>
    <path d="M649.6 408.4 Q650.75 408.15 651.05 405.8 651.45 403.65 651.25 401.3 L650.65 399.2 650.8 399.0 Q651.3 398.95 651.9 401.2 652.7 403.7 652.3 406.85 651.85 408.7 650.2 408.45 L649.6 408.4" fill="#2d6d00" fill-rule="evenodd" stroke="none"/>
    <path d="M648.35 405.95 Q647.95 405.8 648.8 403.6 L650.0 400.85 649.25 404.4 648.7 406.35 Q648.7 405.9 648.35 405.95" fill="#92d95d" fill-rule="evenodd" stroke="none"/>
    <path d="M659.55 405.35 L659.35 405.35 Q658.2 404.8 658.55 403.8 L659.45 401.6 Q659.95 400.7 660.2 400.5 L660.4 401.7 Q660.6 402.95 660.4 404.1 660.25 405.35 659.55 405.35 M659.1 404.3 L659.35 403.3 659.85 401.45 659.2 402.9 Q658.8 404.1 659.0 404.15 L659.1 404.3" fill="#275b00" fill-rule="evenodd" stroke="none"/>
    <path d="M660.2 400.5 Q660.55 400.4 660.85 401.75 661.3 402.9 661.05 404.5 660.8 405.55 659.95 405.45 L659.55 405.35 Q660.25 405.35 660.4 404.1 660.6 402.95 660.4 401.7 L660.2 400.5" fill="#1a3f00" fill-rule="evenodd" stroke="none"/>
    <path d="M659.1 404.3 L659.0 404.15 Q658.8 404.1 659.2 402.9 L659.85 401.45 659.35 403.3 659.1 404.3" fill="#3c8009" fill-rule="evenodd" stroke="none"/>
    <path d="M637.25 393.95 L637.7 395.1 638.2 397.35 Q638.35 398.5 637.25 398.8 L636.85 398.8 Q636.35 398.6 636.25 397.35 636.3 396.15 636.7 394.95 L637.25 393.95 M637.5 397.9 Q637.55 397.6 637.8 397.65 L637.6 396.4 637.45 395.0 637.5 396.8 637.5 397.9" fill="#94d455" fill-rule="evenodd" stroke="none"/>
    <path d="M636.85 398.8 L636.6 398.8 Q635.65 398.7 635.65 397.7 635.65 396.05 636.25 394.9 636.85 393.8 637.05 393.9 L637.25 393.95 636.7 394.95 Q636.3 396.15 636.25 397.35 636.35 398.6 636.85 398.8" fill="#5ea11f" fill-rule="evenodd" stroke="none"/>
    <path d="M637.5 397.9 L637.5 396.8 637.45 395.0 637.6 396.4 637.8 397.65 Q637.55 397.6 637.5 397.9" fill="#cdf5af" fill-rule="evenodd" stroke="none"/>
    <path d="M662.35 385.8 L662.4 385.7 Q662.85 385.7 663.15 386.95 663.5 388.4 663.3 390.25 663.05 391.25 662.05 391.2 L661.75 391.15 Q662.45 391.0 662.65 389.7 662.85 388.4 662.65 387.1 L662.35 385.8" fill="#518322" fill-rule="evenodd" stroke="none"/>
    <path d="M662.05 386.75 L661.6 388.8 661.15 390.05 661.1 389.7 Q660.95 389.7 661.35 388.35 L662.05 386.75" fill="#cdf5af" fill-rule="evenodd" stroke="none"/>
    <path d="M662.35 385.8 L662.65 387.1 Q662.85 388.4 662.65 389.7 662.45 391.0 661.75 391.15 L661.35 391.0 Q660.35 390.6 660.55 389.35 660.95 388.0 661.55 387.05 L662.35 385.8 M662.05 386.75 L661.35 388.35 Q660.95 389.7 661.1 389.7 L661.15 390.05 661.6 388.8 662.05 386.75" fill="#78af41" fill-rule="evenodd" stroke="none"/>
    <path d="M620.55 407.0 L620.75 408.5 Q620.85 409.7 620.55 411.05 620.3 412.2 619.2 412.2 L618.75 412.2 Q618.25 411.65 618.55 410.35 618.95 409.1 619.65 407.95 L620.55 407.0 M619.65 411.3 L620.1 411.1 620.25 409.8 620.5 408.2 620.0 410.15 619.65 411.3" fill="#78af41" fill-rule="evenodd" stroke="none"/>
    <path d="M618.75 412.2 L618.35 412.05 Q617.4 411.75 617.75 410.65 618.3 408.9 619.35 407.75 620.25 406.75 620.55 406.9 L620.55 407.0 619.65 407.95 Q618.95 409.1 618.55 410.35 618.25 411.65 618.75 412.2" fill="#518322" fill-rule="evenodd" stroke="none"/>
    <path d="M619.65 411.3 L620.0 410.15 620.5 408.2 620.25 409.8 620.1 411.1 619.65 411.3" fill="#cdf5af" fill-rule="evenodd" stroke="none"/>
    <path d="M613.35 414.15 L612.95 412.4 613.0 414.65 613.1 415.75 613.3 415.6 Q613.5 415.6 613.35 414.15 M612.8 411.3 L613.3 412.6 613.9 415.3 Q614.05 416.55 612.75 416.9 L612.2 416.9 Q611.6 416.55 611.6 415.2 611.6 413.8 612.15 412.45 612.7 411.15 612.8 411.3" fill="#3d8e01" fill-rule="evenodd" stroke="none"/>
    <path d="M613.35 414.15 Q613.5 415.6 613.3 415.6 L613.1 415.75 613.0 414.65 612.95 412.4 613.35 414.15" fill="#69cd1e" fill-rule="evenodd" stroke="none"/>
    <path d="M612.2 416.9 L611.95 416.9 Q610.9 416.9 610.7 415.65 610.9 413.7 611.65 412.35 612.2 411.0 612.7 411.1 L612.8 411.3 Q612.7 411.15 612.15 412.45 611.6 413.8 611.6 415.2 611.6 416.55 612.2 416.9" fill="#255800" fill-rule="evenodd" stroke="none"/>
    <path d="M636.75 421.45 Q636.65 421.15 636.95 421.15 637.45 421.0 638.55 423.05 640.1 425.35 640.4 428.55 640.65 430.5 638.8 430.8 L638.15 430.85 Q639.35 430.25 639.0 427.9 638.8 425.6 637.9 423.4 636.95 421.15 636.75 421.45" fill="#255800" fill-rule="evenodd" stroke="none"/>
    <path d="M636.75 421.45 Q636.95 421.15 637.9 423.4 638.8 425.6 639.0 427.9 639.35 430.25 638.15 430.85 L637.45 430.85 Q635.2 430.5 635.3 428.25 635.3 425.85 635.9 423.75 636.55 421.55 636.75 421.45 M636.2 426.35 Q635.95 428.75 636.25 428.6 636.7 428.6 636.7 429.05 L636.65 426.95 636.65 423.35 Q636.4 423.8 636.2 426.35" fill="#3d8e01" fill-rule="evenodd" stroke="none"/>
    <path d="M636.2 426.35 Q636.4 423.8 636.65 423.35 L636.65 426.95 636.7 429.05 Q636.7 428.6 636.25 428.6 635.95 428.75 636.2 426.35" fill="#69cd1e" fill-rule="evenodd" stroke="none"/>
    <path d="M647.4 413.7 L647.5 413.55 Q647.95 413.5 648.6 415.4 649.1 417.5 648.8 420.2 648.35 421.75 646.95 421.5 L646.45 421.4 Q647.4 421.15 647.9 419.3 648.15 417.45 647.75 415.4 L647.4 413.7" fill="#255800" fill-rule="evenodd" stroke="none"/>
    <path d="M646.45 421.4 L645.9 421.15 Q644.3 420.45 644.8 418.8 645.35 416.9 646.2 415.3 L647.4 413.7 647.75 415.4 Q648.15 417.45 647.9 419.3 647.4 421.15 646.45 421.4 M645.7 419.7 L646.15 418.0 646.85 415.1 Q646.5 415.55 645.9 417.45 645.1 419.25 645.5 419.2 645.7 419.3 645.7 419.7" fill="#3d8e01" fill-rule="evenodd" stroke="none"/>
    <path d="M645.7 419.7 Q645.7 419.3 645.5 419.2 645.1 419.25 645.9 417.45 646.5 415.55 646.85 415.1 L646.15 418.0 645.7 419.7" fill="#69cd1e" fill-rule="evenodd" stroke="none"/>
    <path d="M652.15 377.1 L651.85 377.0 Q650.95 376.75 651.25 375.75 651.8 374.1 652.45 373.1 653.45 372.2 653.7 372.35 L653.7 372.55 653.05 373.3 652.0 375.5 Q651.7 376.65 652.15 377.1" fill="#5ea11f" fill-rule="evenodd" stroke="none"/>
    <path d="M653.7 372.55 L653.9 373.8 653.7 376.0 Q653.55 377.0 652.4 377.2 L652.15 377.1 Q651.7 376.65 652.0 375.5 L653.05 373.3 653.7 372.55 M653.3 376.2 L653.55 374.95 653.55 373.45 653.15 375.35 653.0 376.3 Q653.05 376.05 653.3 376.2" fill="#94d455" fill-rule="evenodd" stroke="none"/>
    <path d="M653.3 376.2 Q653.05 376.05 653.0 376.3 L653.15 375.35 653.55 373.45 653.55 374.95 653.3 376.2" fill="#cdf5af" fill-rule="evenodd" stroke="none"/>
    <path d="M664.4 374.7 Q663.8 374.45 663.85 373.3 663.85 372.05 664.15 370.9 664.65 369.7 664.7 369.9 L665.3 371.05 665.7 373.3 Q665.8 374.45 664.75 374.7 L664.4 374.7 M664.95 372.55 L665.05 373.65 665.2 373.55 665.15 372.35 Q665.1 371.1 664.85 370.9 L664.95 372.55" fill="#94d455" fill-rule="evenodd" stroke="none"/>
    <path d="M664.7 369.9 Q664.65 369.7 664.15 370.9 663.85 372.05 663.85 373.3 663.8 374.45 664.4 374.7 L664.15 374.7 Q663.05 374.65 663.1 373.6 663.25 372.0 663.85 370.75 664.35 369.7 664.7 369.75 L664.7 369.9" fill="#5ea11f" fill-rule="evenodd" stroke="none"/>
    <path d="M664.95 372.55 L664.85 370.9 Q665.1 371.1 665.15 372.35 L665.2 373.55 665.05 373.65 664.95 372.55" fill="#cdf5af" fill-rule="evenodd" stroke="none"/>
    <path d="M633.05 383.45 Q632.5 383.2 632.55 382.05 632.55 380.9 632.8 379.65 L633.35 378.7 633.9 379.9 634.4 382.1 Q634.4 383.15 633.4 383.45 L633.05 383.45 M633.55 381.45 L633.6 382.55 Q633.7 382.25 633.9 382.25 L633.9 381.1 633.55 379.65 633.55 381.45" fill="#94d455" fill-rule="evenodd" stroke="none"/>
    <path d="M633.35 378.7 L632.8 379.65 Q632.55 380.9 632.55 382.05 632.5 383.2 633.05 383.45 L632.7 383.45 Q631.75 383.5 631.7 382.4 631.9 380.85 632.35 379.65 633.0 378.5 633.35 378.6 L633.35 378.7" fill="#5ea11f" fill-rule="evenodd" stroke="none"/>
    <path d="M633.55 381.45 L633.55 379.65 633.9 381.1 633.9 382.25 Q633.7 382.25 633.6 382.55 L633.55 381.45" fill="#cdf5af" fill-rule="evenodd" stroke="none"/>
    <path d="M652.75 430.3 Q652.7 430.2 652.0 431.15 651.4 432.15 651.05 433.2 650.75 434.4 651.3 434.85 L650.9 434.8 Q650.05 434.45 650.2 433.5 650.65 431.8 651.7 430.85 652.4 429.9 652.75 430.1 L652.75 430.3" fill="#5ea11f" fill-rule="evenodd" stroke="none"/>
    <path d="M652.7 432.7 L652.65 431.2 652.3 433.1 652.0 434.15 652.3 433.85 652.7 432.7 M651.3 434.85 Q650.75 434.4 651.05 433.2 651.4 432.15 652.0 431.15 652.7 430.2 652.75 430.3 L653.0 431.55 652.8 433.85 Q652.7 434.95 651.5 434.85 L651.3 434.85" fill="#94d455" fill-rule="evenodd" stroke="none"/>
    <path d="M652.7 432.7 L652.3 433.85 652.0 434.15 652.3 433.1 652.65 431.2 652.7 432.7" fill="#cdf5af" fill-rule="evenodd" stroke="none"/>
    <path d="M661.75 422.9 L662.0 422.85 Q662.3 422.9 662.3 424.1 662.25 425.5 661.65 427.0 661.15 428.0 660.25 427.45 L660.2 427.4 Q660.75 427.4 661.15 426.4 661.65 425.45 661.75 424.1 662.0 422.9 661.75 422.9" fill="#5ea11f" fill-rule="evenodd" stroke="none"/>
    <path d="M660.2 427.4 L659.8 427.25 Q658.9 426.55 659.5 425.55 L660.8 423.75 661.75 422.9 Q662.0 422.9 661.75 424.1 661.65 425.45 661.15 426.4 660.75 427.4 660.2 427.4 M659.8 426.0 L659.95 426.25 Q660.05 425.75 660.4 425.35 L661.35 423.7 660.35 424.95 Q659.6 426.0 659.8 426.0" fill="#94d455" fill-rule="evenodd" stroke="none"/>
    <path d="M659.8 426.0 Q659.6 426.0 660.35 424.95 L661.35 423.7 660.4 425.35 Q660.05 425.75 659.95 426.25 L659.8 426.0" fill="#cdf5af" fill-rule="evenodd" stroke="none"/>
    <path d="M625.05 425.15 L624.75 425.15 Q623.6 425.5 623.25 424.3 622.9 422.4 623.3 420.9 623.55 419.55 623.9 419.55 L624.0 419.65 Q623.9 419.55 623.7 421.0 623.6 422.3 624.0 423.7 624.25 425.1 625.05 425.15" fill="#255800" fill-rule="evenodd" stroke="none"/>
    <path d="M624.0 419.65 L624.95 420.9 Q625.75 421.8 626.15 423.1 626.6 424.5 625.45 425.0 L625.05 425.15 Q624.25 425.1 624.0 423.7 623.6 422.3 623.7 421.0 623.9 419.55 624.0 419.65 M625.6 423.6 Q625.95 423.6 625.25 422.3 L624.55 420.75 625.2 422.7 Q625.2 423.35 625.5 423.95 625.4 423.6 625.6 423.6" fill="#3d8e01" fill-rule="evenodd" stroke="none"/>
    <path d="M625.6 423.6 Q625.4 423.6 625.5 423.95 625.2 423.35 625.2 422.7 L624.55 420.75 625.25 422.3 Q625.95 423.6 625.6 423.6" fill="#69cd1e" fill-rule="evenodd" stroke="none"/>
    <path d="M644.1 371.0 Q643.5 370.75 643.5 369.55 L644.0 367.3 Q644.35 366.1 644.4 366.35 L644.95 367.4 645.5 369.7 Q645.55 370.75 644.4 371.05 L644.1 371.0 M644.75 370.1 Q644.8 369.85 644.95 369.9 645.1 369.85 644.85 368.75 L644.6 367.2 644.65 369.2 644.75 370.1" fill="#94d455" fill-rule="evenodd" stroke="none"/>
    <path d="M644.4 366.35 Q644.35 366.1 644.0 367.3 L643.5 369.55 Q643.5 370.75 644.1 371.0 L643.75 371.05 Q642.9 371.05 642.8 370.1 642.9 368.3 643.5 367.1 644.1 366.05 644.35 366.05 L644.4 366.35" fill="#5ea11f" fill-rule="evenodd" stroke="none"/>
    <path d="M644.75 370.1 L644.65 369.2 644.6 367.2 644.85 368.75 Q645.1 369.85 644.95 369.9 644.8 369.85 644.75 370.1" fill="#cdf5af" fill-rule="evenodd" stroke="none"/>
    <path d="M669.2 436.3 L680.95 441.05 687.1 448.55 687.15 448.55 687.15 448.65 687.5 449.05 687.25 449.35 Q688.0 455.35 687.65 464.55 687.35 470.8 686.7 473.65 687.4 474.2 688.0 475.5 689.45 478.45 689.45 481.2 L689.15 482.85 689.3 484.3 Q689.6 488.4 688.8 490.05 686.2 491.0 685.35 490.85 L685.15 490.8 685.05 490.85 Q683.8 491.75 683.3 491.4 L682.75 492.3 Q667.9 493.8 659.4 492.15 653.55 491.15 649.45 488.25 L646.5 485.45 646.75 483.4 645.35 484.0 645.25 484.15 638.55 484.15 638.4 483.95 Q638.3 484.4 637.75 484.15 636.5 483.65 636.05 482.55 L634.7 481.2 Q633.5 480.3 633.5 479.85 633.5 479.0 633.85 477.0 634.3 474.75 634.75 474.15 635.2 473.6 635.4 472.05 L635.5 470.7 Q635.5 470.35 635.65 470.2 L635.6 470.15 639.0 467.9 642.8 467.9 646.9 469.6 Q647.7 469.5 648.4 470.6 L650.6 453.15 650.65 453.15 661.05 437.15 669.2 436.3 M642.4 474.95 L642.1 474.65 642.2 474.9 642.4 474.95 M638.4 473.05 L638.55 473.15 639.6 473.3 638.4 473.05 M643.95 475.5 L644.25 475.6 644.25 475.15 643.95 475.5 M662.85 446.95 L663.05 446.85 662.5 446.45 662.5 447.25 662.85 446.95" fill="#d29d38" fill-rule="evenodd" stroke="none"/>
    <path d="M669.2 436.3 L661.05 437.15 650.65 453.15 650.6 453.15 648.4 470.6 Q647.7 469.5 646.9 469.6 L642.8 467.9 639.0 467.9 635.6 470.15 635.65 470.2 Q635.5 470.35 635.5 470.7 L635.4 472.05 Q635.2 473.6 634.75 474.15 634.3 474.75 633.85 477.0 633.5 479.0 633.5 479.85 633.5 480.3 634.7 481.2 L636.05 482.55 Q636.5 483.65 637.75 484.15 638.3 484.4 638.4 483.95 L638.55 484.15 645.25 484.15 645.35 484.0 646.75 483.4 646.5 485.45 649.45 488.25 Q653.55 491.15 659.4 492.15 667.9 493.8 682.75 492.3 L683.3 491.4 Q683.8 491.75 685.05 490.85 L685.15 490.8 685.35 490.85 Q686.2 491.0 688.8 490.05 689.6 488.4 689.3 484.3 L689.15 482.85 689.45 481.2 Q689.45 478.45 688.0 475.5 687.4 474.2 686.7 473.65 687.35 470.8 687.65 464.55 688.0 455.35 687.25 449.35 L687.5 449.05 687.15 448.65 687.15 448.55 687.1 448.55 680.95 441.05 669.2 436.3 Z" fill="none" stroke="#834f0f" stroke-linecap="round" stroke-linejoin="round" stroke-width="3.5"/>
    <path d="M641.8 474.75 Q645.8 476.1 645.6 476.2 L643.55 479.1 645.35 483.7 645.25 484.15 638.55 484.15 641.8 474.75" fill="#a27f46" fill-rule="evenodd" stroke="none"/>
    <path d="M649.25 475.05 L649.5 477.85 Q649.8 480.9 649.25 482.2 647.6 483.0 647.05 482.8 646.5 482.7 646.45 481.35 L644.9 478.0 Q643.7 475.4 644.65 472.75 645.35 472.25 647.35 473.6 L649.25 475.05" fill="#c6a473" fill-rule="evenodd" stroke="none"/>
    <path d="M637.85 473.6 L642.1 474.65 642.35 475.5 Q642.55 476.65 641.8 478.45 640.65 481.25 641.45 482.35 L640.0 483.45 638.55 484.15 637.4 482.35 637.85 473.6" fill="#e0c48f" fill-rule="evenodd" stroke="none"/>
    <path d="M644.25 483.7 L643.8 483.25 Q643.55 482.8 642.55 482.35 641.55 481.8 641.75 480.55 L642.1 479.3 642.8 478.45 Q643.55 477.65 644.0 477.4 644.45 477.2 645.0 477.4 L645.35 477.55 647.05 483.15 Q645.35 484.55 644.25 483.7" fill="#84612e" fill-rule="evenodd" stroke="none"/>
    <path d="M647.8 481.8 L646.7 483.0 Q645.9 483.65 645.6 483.0 643.8 479.4 644.0 478.85 L645.1 477.4 645.6 477.85 646.35 478.85 Q646.8 479.75 648.15 480.55 648.6 481.1 647.8 481.8" fill="#e5d3ad" fill-rule="evenodd" stroke="none"/>
    <path d="M635.5 470.7 Q635.6 469.15 637.1 471.5 L638.55 474.15 638.0 477.2 Q637.55 480.45 638.0 481.9 638.95 484.7 637.75 484.15 636.5 483.65 636.05 482.55 L634.7 481.2 Q633.5 480.3 633.5 479.85 633.5 479.0 633.85 477.0 634.3 474.75 634.75 474.15 635.2 473.6 635.4 472.05 L635.5 470.7" fill="#c6a473" fill-rule="evenodd" stroke="none"/>
    <path d="M648.8 471.4 Q649.7 473.5 649.7 475.6 649.7 476.95 649.05 477.3 648.4 477.75 648.05 477.0 L646.5 475.75 645.35 474.95 Q644.45 474.3 644.55 472.75 644.65 471.05 646.15 469.9 647.7 468.8 648.8 471.4" fill="#d9bc88" fill-rule="evenodd" stroke="none"/>
    <path d="M639.0 467.9 L642.8 467.9 647.8 469.95 645.45 473.7 643.7 475.65 643.2 474.05 637.55 472.85 635.6 470.15 639.0 467.9" fill="#e5d3ad" fill-rule="evenodd" stroke="none"/>
    <path d="M636.85 471.95 L638.55 473.15 642.1 473.6 644.0 474.3 646.45 472.3 643.45 476.1 642.1 474.65 638.55 474.15 636.85 471.95" fill="#f2ede4" fill-rule="evenodd" stroke="none"/>
    <path d="M684.2 447.25 L686.0 455.25 Q687.5 464.55 686.65 471.25 683.75 492.65 682.75 492.3 667.9 493.8 659.4 492.15 653.55 491.15 649.45 488.25 L646.5 485.45 650.6 453.15 684.2 447.25" fill="#936b34" fill-rule="evenodd" stroke="none"/>
    <path d="M662.5 443.0 L662.5 449.2 661.7 453.95 Q660.7 459.35 659.55 462.95 658.25 466.5 656.15 465.05 654.85 464.05 653.85 462.1 L650.65 453.15 661.05 437.15 662.5 443.0" fill="#c6a473" fill-rule="evenodd" stroke="none"/>
    <path d="M661.05 437.15 L669.2 436.3 680.95 441.05 687.5 449.05 678.35 459.85 Q676.7 461.6 676.05 459.85 L671.8 450.05 668.2 449.2 661.05 443.65 661.05 437.15" fill="#e5d3ad" fill-rule="evenodd" stroke="none"/>
    <path d="M666.9 451.35 L671.5 450.85 670.2 457.85 658.25 466.35 661.85 491.65 656.95 464.7 664.65 455.25 666.9 451.35" fill="#c6a473" fill-rule="evenodd" stroke="none"/>
    <path d="M661.7 448.4 Q662.2 447.4 662.85 446.95 L663.35 446.6 668.55 450.85 666.9 458.5 660.2 464.9 661.55 471.6 658.1 473.05 656.8 466.5 661.7 448.4" fill="#e0c48f" fill-rule="evenodd" stroke="none"/>
    <path d="M676.7 457.2 L673.45 455.9 Q673.3 453.15 674.75 453.8 675.9 454.1 677.35 456.05 677.55 456.4 682.25 452.3 L687.15 448.55 Q688.0 454.75 687.65 464.55 687.15 474.85 685.7 475.8 L675.55 485.3 Q667.4 493.3 668.05 492.0 668.4 491.5 667.25 478.45 L675.1 470.95 676.7 457.2" fill="#ad9065" fill-rule="evenodd" stroke="none"/>
    <path d="M661.05 440.25 L661.05 443.65 668.2 449.2 671.5 449.4 Q671.8 449.4 673.45 452.95 674.25 453.8 676.2 454.95 677.85 456.05 678.0 457.7 675.1 456.7 672.8 454.25 672.0 450.85 671.5 450.85 L668.4 450.85 660.55 444.95 661.05 440.25" fill="#fdfcfb" fill-rule="evenodd" stroke="none"/>
    <path d="M672.8 454.25 L678.0 457.55 675.4 469.95 668.55 465.7 672.8 454.25" fill="#c6a473" fill-rule="evenodd" stroke="none"/>
    <path d="M688.8 480.4 L689.3 484.3 Q689.6 488.4 688.8 490.05 686.2 491.0 685.35 490.85 684.55 490.7 684.4 488.9 L682.1 484.5 Q680.3 481.05 681.6 477.45 682.75 476.8 685.85 478.45 L688.8 480.4" fill="#c6a473" fill-rule="evenodd" stroke="none"/>
    <path d="M682.45 483.65 L683.25 484.15 Q684.05 484.8 684.4 485.6 684.7 486.1 687.15 487.75 687.5 488.25 686.5 489.55 L685.05 490.85 Q683.5 491.95 683.1 491.15 680.45 485.95 680.65 485.6 L682.45 483.65" fill="#e5d3ad" fill-rule="evenodd" stroke="none"/>
    <path d="M682.75 480.4 Q681.3 479.6 681.45 477.45 681.6 475.15 684.05 473.55 686.35 472.05 688.0 475.5 689.45 478.45 689.45 481.2 689.45 483.0 688.45 483.5 687.5 484.0 686.85 483.15 686.5 482.5 684.55 481.35 L682.75 480.4" fill="#d9bc88" fill-rule="evenodd" stroke="none"/>
    <path d="M401.2 107.2 L518.55 107.2 Q533.8 107.2 544.55 119.3 555.35 131.45 555.35 148.65 L555.35 245.85 498.05 245.85 444.8 136.95 401.2 107.2" fill="#67cae9" fill-rule="evenodd" stroke="none"/>
    <path d="M401.2 107.2 L444.8 136.95 444.0 138.25 398.6 107.2 401.2 107.2 M555.35 246.8 L555.35 248.45 498.1 248.45 497.2 246.8 555.35 246.8 M485.2 347.25 L483.9 347.25 495.7 247.25 443.65 141.5 355.05 281.65 373.35 347.25 371.65 347.25 353.4 281.5 352.35 282.95 238.3 251.25 171.35 343.95 170.7 343.7 170.0 343.25 169.9 343.2 237.95 249.55 236.55 249.55 184.85 107.25 185.95 107.2 186.6 107.2 237.95 249.55 353.4 281.5 444.0 138.25 497.2 246.8 485.2 347.25" fill="#3db3d9" fill-rule="evenodd" stroke="none"/>
    <path d="M444.8 136.95 L498.05 245.85 555.35 245.85 555.35 246.8 497.2 246.8 498.1 248.45 486.3 347.25 485.2 347.25 497.2 246.8 444.0 138.25 353.4 281.5 237.95 249.55 186.6 107.2 188.55 107.2 239.65 248.8 352.55 279.65 442.55 138.35 396.9 107.2 398.6 107.2 444.0 138.25 444.8 136.95 M371.65 347.25 L369.85 347.25 352.35 282.95 353.4 281.5 371.65 347.25 M169.9 343.2 L168.7 342.55 Q202.6 295.75 236.55 249.55 L237.95 249.55 169.9 343.2" fill="#98e6ff" fill-rule="evenodd" stroke="none"/>
    <path d="M188.55 107.2 L396.9 107.2 442.55 138.35 352.55 279.65 239.65 248.8 188.55 107.2" fill="#81d4ee" fill-rule="evenodd" stroke="none"/>
    <path d="M483.9 347.25 L373.35 347.25 355.05 281.65 443.65 141.5 495.7 247.25 483.9 347.25" fill="#68ccec" fill-rule="evenodd" stroke="none"/>
    <path d="M369.85 347.25 L185.95 347.25 Q179.0 347.25 171.35 343.95 L238.3 251.25 352.35 282.95 369.85 347.25" fill="#71d3f3" fill-rule="evenodd" stroke="none"/>
    <path d="M555.35 248.45 L555.35 305.8 Q555.35 323.0 544.55 335.15 533.8 347.25 518.55 347.25 L486.3 347.25 498.1 248.45 555.35 248.45" fill="#70c6e2" fill-rule="evenodd" stroke="none"/>
    <path d="M168.7 342.55 L166.4 341.0 Q163.0 338.55 160.0 335.15 149.2 323.0 149.2 305.8 L149.2 148.65 Q149.2 131.45 160.0 119.3 170.3 107.65 184.85 107.25 L236.55 249.55 Q202.6 295.75 168.7 342.55" fill="#60c4e5" fill-rule="evenodd" stroke="none"/>
    <path d="M555.35 245.85 L555.35 148.65 Q555.35 131.45 544.55 119.3 533.8 107.2 518.55 107.2 L401.2 107.2 M555.35 245.85 L555.35 246.8 M555.35 248.45 L555.35 305.8 Q555.35 323.0 544.55 335.15 533.8 347.25 518.55 347.25 L486.3 347.25 485.2 347.25 M483.9 347.25 L373.35 347.25 M371.65 347.25 L369.85 347.25 185.95 347.25 Q179.0 347.25 171.35 343.95 M169.9 343.2 L168.7 342.55 166.4 341.0 Q163.0 338.55 160.0 335.15 149.2 323.0 149.2 305.8 L149.2 148.65 Q149.2 131.45 160.0 119.3 170.3 107.65 184.85 107.25 L185.95 107.2 186.6 107.2 M188.55 107.2 L396.9 107.2" fill="none" stroke="#e5feff" stroke-linecap="round" stroke-linejoin="round" stroke-width="7.0"/>
    <path d="M528.0 120.9 Q528.0 122.75 526.8 124.0 L526.65 124.2 525.4 125.0 523.9 125.25 Q522.2 125.25 521.0 124.0 519.8 122.75 519.8 120.9 519.8 119.15 520.9 117.95 L521.0 117.75 521.95 117.05 Q522.85 116.5 523.9 116.5 525.6 116.5 526.8 117.75 528.0 119.05 528.0 120.9" fill="#1e9ac2" fill-rule="evenodd" stroke="none"/>
    <path d="M522.0 116.95 Q522.8 116.5 523.7 116.5 525.25 116.5 526.35 117.6 L527.3 119.3 527.45 120.4 527.3 121.5 526.35 123.2 526.2 123.4 522.0 116.95 M525.1 124.1 L523.7 124.35 Q522.2 124.35 521.15 123.2 520.1 122.05 520.1 120.4 520.1 118.85 521.0 117.75 L525.1 124.1" fill="#91dff7" fill-rule="evenodd" stroke="none"/>
    <path d="M526.2 123.4 L525.1 124.1 521.0 117.75 521.15 117.6 522.0 116.95 526.2 123.4" fill="#68c8e7" fill-rule="evenodd" stroke="none"/>
    <path d="M539.35 134.8 Q541.1 134.8 542.3 136.1 543.5 137.35 543.5 139.2 543.5 141.05 542.3 142.35 L542.1 142.5 540.85 143.3 539.35 143.55 Q537.7 143.55 536.5 142.35 535.3 141.05 535.3 139.2 535.3 137.45 536.35 136.3 L536.5 136.1 537.4 135.4 Q538.3 134.8 539.35 134.8" fill="#1e9ac2" fill-rule="evenodd" stroke="none"/>
    <path d="M537.45 135.3 Q538.25 134.8 539.2 134.8 540.75 134.8 541.8 135.95 L542.75 137.65 542.9 138.75 542.75 139.85 541.8 141.55 541.65 141.7 537.45 135.3 M540.55 142.45 L539.2 142.65 Q537.7 142.65 536.6 141.55 535.55 140.4 535.55 138.75 535.55 137.2 536.5 136.1 L540.55 142.45" fill="#91dff7" fill-rule="evenodd" stroke="none"/>
    <path d="M541.65 141.7 L540.55 142.45 536.5 136.1 536.6 135.95 537.45 135.3 541.65 141.7" fill="#68c8e7" fill-rule="evenodd" stroke="none"/>
    <path d="M518.5 330.5 Q519.35 329.95 520.45 329.95 522.15 329.95 523.35 331.2 524.55 332.5 524.55 334.35 524.55 336.2 523.35 337.45 L523.2 337.65 521.95 338.45 520.45 338.7 Q518.75 338.7 517.55 337.45 516.35 336.2 516.35 334.35 516.35 332.6 517.4 331.4 L517.55 331.2 518.5 330.5" fill="#1e9ac2" fill-rule="evenodd" stroke="none"/>
    <path d="M522.75 336.85 L521.65 337.55 517.55 331.2 Q517.65 331.1 517.7 331.1 518.1 330.65 518.55 330.4 L522.75 336.85" fill="#68c8e7" fill-rule="evenodd" stroke="none"/>
    <path d="M518.55 330.4 Q519.3 329.95 520.25 329.95 521.8 329.95 522.85 331.1 523.6 331.85 523.85 332.8 L524.0 333.85 523.85 334.95 Q523.6 335.9 522.85 336.65 L522.75 336.85 518.55 330.4 M521.65 337.55 L520.25 337.8 Q518.75 337.8 517.7 336.65 516.6 335.5 516.6 333.85 516.6 332.3 517.55 331.2 L521.65 337.55" fill="#91dff7" fill-rule="evenodd" stroke="none"/>
    <path d="M536.35 317.95 L536.5 317.75 537.4 317.05 Q538.3 316.5 539.35 316.5 541.1 316.5 542.3 317.75 543.5 319.05 543.5 320.85 543.5 322.7 542.3 324.0 L542.1 324.2 540.85 325.0 539.35 325.2 Q537.7 325.2 536.5 324.0 535.3 322.7 535.3 320.85 535.3 319.1 536.35 317.95" fill="#1e9ac2" fill-rule="evenodd" stroke="none"/>
    <path d="M540.55 324.1 L539.2 324.3 Q537.7 324.3 536.6 323.2 535.55 322.05 535.55 320.4 535.55 318.85 536.5 317.75 L540.55 324.1 M537.45 316.95 Q538.25 316.5 539.2 316.5 540.75 316.5 541.8 317.6 L542.75 319.3 542.9 320.4 542.75 321.5 541.8 323.2 541.65 323.4 537.45 316.95" fill="#91dff7" fill-rule="evenodd" stroke="none"/>
    <path d="M536.5 317.75 L536.6 317.6 537.45 316.95 541.65 323.4 540.55 324.1 536.5 317.75" fill="#68c8e7" fill-rule="evenodd" stroke="none"/>
    <path d="M161.15 317.75 L162.05 317.05 Q162.95 316.5 164.0 316.5 165.75 316.5 166.95 317.75 168.15 319.05 168.15 320.85 168.15 322.7 166.95 324.0 L166.75 324.2 165.5 325.0 164.0 325.2 Q162.3 325.2 161.15 324.0 159.95 322.7 159.95 320.85 159.95 319.1 161.0 317.95 L161.15 317.75" fill="#1e9ac2" fill-rule="evenodd" stroke="none"/>
    <path d="M161.15 317.75 L161.25 317.6 162.1 316.95 166.3 323.4 165.2 324.1 161.15 317.75" fill="#68c8e7" fill-rule="evenodd" stroke="none"/>
    <path d="M165.2 324.1 L163.85 324.3 Q162.3 324.3 161.25 323.2 160.2 322.05 160.2 320.4 160.2 318.85 161.15 317.75 L165.2 324.1 M162.1 316.95 Q162.9 316.5 163.85 316.5 165.4 316.5 166.45 317.6 167.15 318.35 167.4 319.3 L167.55 320.4 167.4 321.5 Q167.15 322.45 166.45 323.2 L166.3 323.4 162.1 316.95" fill="#91dff7" fill-rule="evenodd" stroke="none"/>
    <path d="M181.35 333.25 L181.45 333.05 Q181.9 332.6 182.4 332.35 183.3 331.8 184.35 331.8 186.1 331.8 187.3 333.05 188.5 334.35 188.5 336.2 188.5 338.0 187.3 339.3 L187.1 339.5 185.85 340.3 184.35 340.55 Q182.65 340.55 181.45 339.3 180.25 338.0 180.25 336.2 180.25 334.45 181.35 333.25" fill="#1e9ac2" fill-rule="evenodd" stroke="none"/>
    <path d="M185.55 339.4 L184.2 339.65 Q182.65 339.65 181.6 338.5 180.55 337.35 180.55 335.7 180.55 334.15 181.45 333.05 L185.55 339.4 M182.45 332.25 Q183.25 331.8 184.2 331.8 185.75 331.8 186.8 332.9 187.5 333.65 187.75 334.6 L187.9 335.7 187.75 336.8 Q187.5 337.75 186.8 338.5 L186.65 338.7 182.45 332.25" fill="#91dff7" fill-rule="evenodd" stroke="none"/>
    <path d="M181.45 333.05 L181.6 332.9 182.45 332.25 186.65 338.7 185.55 339.4 181.45 333.05" fill="#68c8e7" fill-rule="evenodd" stroke="none"/>
    <path d="M173.8 130.9 L173.65 131.1 172.4 131.9 170.9 132.15 Q169.2 132.15 168.0 130.9 166.8 129.6 166.8 127.8 166.8 126.05 167.85 124.85 L168.0 124.65 Q168.45 124.2 168.95 123.95 169.8 123.4 170.9 123.4 172.6 123.4 173.8 124.65 175.0 125.95 175.0 127.8 175.0 129.6 173.8 130.9" fill="#1e9ac2" fill-rule="evenodd" stroke="none"/>
    <path d="M168.95 123.85 Q169.75 123.4 170.7 123.4 172.25 123.4 173.3 124.5 174.0 125.3 174.3 126.2 L174.4 127.3 174.3 128.4 Q174.0 129.35 173.3 130.1 L173.2 130.3 168.95 123.85 M172.05 131.0 L170.7 131.25 Q169.2 131.25 168.15 130.1 167.05 128.95 167.05 127.3 167.05 125.75 168.0 124.65 L172.05 131.0" fill="#91dff7" fill-rule="evenodd" stroke="none"/>
    <path d="M173.2 130.3 L172.05 131.0 168.0 124.65 168.15 124.5 168.95 123.85 173.2 130.3" fill="#68c8e7" fill-rule="evenodd" stroke="none"/>
    <path d="M203.7 119.05 Q203.7 120.9 202.55 122.15 L202.35 122.35 201.1 123.15 199.6 123.4 Q197.9 123.4 196.7 122.15 195.5 120.9 195.5 119.05 195.5 117.3 196.6 116.1 L196.7 115.9 Q197.15 115.45 197.65 115.2 198.55 114.65 199.6 114.65 201.35 114.65 202.55 115.9 203.7 117.2 203.7 119.05" fill="#1e9ac2" fill-rule="evenodd" stroke="none"/>
    <path d="M197.7 115.1 Q198.5 114.65 199.4 114.65 201.0 114.65 202.05 115.8 202.75 116.55 203.0 117.5 L203.15 118.55 203.0 119.65 Q202.75 120.6 202.05 121.35 L201.9 121.55 197.7 115.1 M200.8 122.25 L199.4 122.5 Q197.9 122.5 196.85 121.35 195.8 120.2 195.8 118.55 195.8 117.0 196.7 115.9 L200.8 122.25" fill="#91dff7" fill-rule="evenodd" stroke="none"/>
    <path d="M201.9 121.55 L200.8 122.25 196.7 115.9 196.85 115.8 197.7 115.1 201.9 121.55" fill="#68c8e7" fill-rule="evenodd" stroke="none"/>
    <path d="M248.85 242.8 L247.6 243.65 246.1 243.85 Q244.4 243.85 243.2 242.65 242.0 241.35 242.0 239.5 242.0 237.75 243.1 236.6 L243.2 236.4 Q243.65 235.9 244.15 235.7 245.05 235.1 246.1 235.1 247.85 235.1 249.0 236.4 250.2 237.65 250.2 239.5 250.2 241.35 249.0 242.65 L248.85 242.8" fill="#1e9ac2" fill-rule="evenodd" stroke="none"/>
    <path d="M244.2 235.6 Q245.0 235.1 245.9 235.1 247.45 235.1 248.55 236.25 249.25 237.0 249.5 237.95 L249.65 239.05 249.5 240.15 248.55 241.85 248.4 242.0 244.2 235.6 M247.3 242.75 L245.9 242.95 Q244.4 242.95 243.35 241.85 242.3 240.7 242.3 239.05 242.3 237.5 243.2 236.4 L247.3 242.75" fill="#91dff7" fill-rule="evenodd" stroke="none"/>
    <path d="M248.4 242.0 L247.3 242.75 243.2 236.4 243.35 236.25 244.2 235.6 248.4 242.0" fill="#68c8e7" fill-rule="evenodd" stroke="none"/>
    <path d="M243.5 267.5 L242.0 267.7 Q240.3 267.7 239.1 266.5 237.9 265.2 237.9 263.35 237.9 261.65 238.95 260.45 L239.1 260.25 240.05 259.55 Q240.9 259.0 242.0 259.0 243.7 259.0 244.9 260.25 246.1 261.55 246.1 263.35 246.1 265.2 244.9 266.5 L244.7 266.7 243.5 267.5" fill="#1e9ac2" fill-rule="evenodd" stroke="none"/>
    <path d="M244.3 265.9 L243.15 266.6 239.1 260.25 239.25 260.1 240.05 259.45 244.3 265.9" fill="#68c8e7" fill-rule="evenodd" stroke="none"/>
    <path d="M240.05 259.45 Q240.85 259.0 241.8 259.0 243.35 259.0 244.4 260.1 245.1 260.85 245.4 261.8 L245.5 262.9 245.4 264.0 Q245.1 264.95 244.4 265.7 L244.3 265.9 240.05 259.45 M243.15 266.6 L241.8 266.8 Q240.3 266.8 239.25 265.7 238.15 264.55 238.15 262.9 238.15 261.35 239.1 260.25 L243.15 266.6" fill="#91dff7" fill-rule="evenodd" stroke="none"/>
    <path d="M220.6 243.95 L220.75 243.75 221.7 243.05 Q222.55 242.5 223.65 242.5 225.35 242.5 226.55 243.75 227.75 245.05 227.75 246.9 227.75 248.75 226.55 250.0 L226.35 250.2 225.15 251.0 223.65 251.25 Q221.95 251.25 220.75 250.0 219.55 248.75 219.55 246.9 219.55 245.15 220.6 243.95" fill="#1e9ac2" fill-rule="evenodd" stroke="none"/>
    <path d="M225.95 249.4 L224.8 250.1 220.75 243.75 220.9 243.65 221.7 242.95 225.95 249.4" fill="#68c8e7" fill-rule="evenodd" stroke="none"/>
    <path d="M221.7 242.95 Q222.5 242.5 223.45 242.5 225.0 242.5 226.05 243.65 226.75 244.4 227.05 245.35 L227.15 246.4 227.05 247.5 Q226.75 248.45 226.05 249.2 L225.95 249.4 221.7 242.95 M224.8 250.1 L223.45 250.35 Q221.95 250.35 220.9 249.2 219.8 248.05 219.8 246.4 219.8 244.85 220.75 243.75 L224.8 250.1" fill="#91dff7" fill-rule="evenodd" stroke="none"/>
    <path d="M423.1 137.5 Q424.0 136.95 425.05 136.95 426.75 136.95 427.95 138.2 429.15 139.5 429.15 141.35 429.15 143.2 427.95 144.45 L427.8 144.65 426.55 145.45 425.05 145.7 Q423.35 145.7 422.15 144.45 420.95 143.2 420.95 141.35 420.95 139.6 422.05 138.4 L422.15 138.2 423.1 137.5" fill="#1e9ac2" fill-rule="evenodd" stroke="none"/>
    <path d="M426.25 144.55 L424.85 144.8 Q423.35 144.8 422.3 143.65 421.25 142.5 421.25 140.85 421.25 139.3 422.15 138.2 L426.25 144.55 M423.15 137.4 Q423.95 136.95 424.85 136.95 426.4 136.95 427.5 138.1 428.2 138.85 428.45 139.8 L428.6 140.85 428.45 141.95 Q428.2 142.9 427.5 143.65 L427.35 143.85 423.15 137.4" fill="#91dff7" fill-rule="evenodd" stroke="none"/>
    <path d="M422.15 138.2 L422.3 138.1 423.15 137.4 427.35 143.85 426.25 144.55 422.15 138.2" fill="#68c8e7" fill-rule="evenodd" stroke="none"/>
    <path d="M438.75 158.45 Q438.75 156.7 439.8 155.5 L439.95 155.3 440.85 154.6 Q441.75 154.05 442.8 154.05 444.55 154.05 445.75 155.3 446.95 156.6 446.95 158.45 446.95 160.3 445.75 161.55 L445.55 161.75 444.3 162.55 442.8 162.8 Q441.15 162.8 439.95 161.55 438.75 160.3 438.75 158.45" fill="#1e9ac2" fill-rule="evenodd" stroke="none"/>
    <path d="M444.0 161.65 L442.65 161.9 Q441.15 161.9 440.05 160.75 439.0 159.6 439.0 157.95 439.0 156.4 439.95 155.3 L444.0 161.65 M440.9 154.5 L442.65 154.05 Q444.2 154.05 445.25 155.2 445.95 155.95 446.25 156.9 L446.35 157.95 446.25 159.05 Q445.95 160.0 445.25 160.75 L445.1 160.95 440.9 154.5" fill="#91dff7" fill-rule="evenodd" stroke="none"/>
    <path d="M439.95 155.3 L440.05 155.2 440.9 154.5 445.1 160.95 444.0 161.65 439.95 155.3" fill="#68c8e7" fill-rule="evenodd" stroke="none"/>
    <path d="M508.95 256.95 Q508.95 258.8 507.75 260.05 L507.6 260.25 506.35 261.05 504.85 261.3 Q503.15 261.3 501.95 260.05 500.75 258.8 500.75 256.95 500.75 255.2 501.8 254.0 L501.95 253.85 Q502.4 253.35 502.9 253.1 503.75 252.55 504.85 252.55 506.55 252.55 507.75 253.85 508.95 255.1 508.95 256.95" fill="#1e9ac2" fill-rule="evenodd" stroke="none"/>
    <path d="M502.9 253.05 Q503.7 252.55 504.65 252.55 506.2 252.55 507.25 253.7 508.0 254.45 508.25 255.4 L508.4 256.5 508.25 257.55 Q508.0 258.5 507.25 259.25 L507.15 259.45 502.9 253.05 M506.05 260.15 L504.65 260.4 Q503.15 260.4 502.1 259.25 501.0 258.15 501.0 256.5 501.0 254.9 501.95 253.85 L506.05 260.15" fill="#91dff7" fill-rule="evenodd" stroke="none"/>
    <path d="M507.15 259.45 L506.05 260.15 501.95 253.85 502.1 253.7 Q502.5 253.25 502.9 253.05 L507.15 259.45" fill="#68c8e7" fill-rule="evenodd" stroke="none"/>
    <path d="M502.65 229.35 Q503.85 230.65 503.85 232.5 503.85 234.3 502.65 235.6 L502.5 235.8 501.25 236.6 499.75 236.8 Q498.05 236.8 496.85 235.6 495.65 234.3 495.65 232.5 495.65 230.75 496.7 229.55 L496.85 229.35 Q497.3 228.9 497.8 228.65 498.65 228.1 499.75 228.1 501.45 228.1 502.65 229.35" fill="#1e9ac2" fill-rule="evenodd" stroke="none"/>
    <path d="M497.85 228.55 Q498.6 228.1 499.55 228.1 501.1 228.1 502.15 229.2 502.9 229.95 503.15 230.9 L503.3 232.0 503.15 233.1 Q502.9 234.05 502.15 234.8 L502.05 235.0 497.85 228.55 M500.95 235.7 L499.55 235.9 Q498.05 235.9 497.0 234.8 495.9 233.65 495.9 232.0 495.9 230.45 496.85 229.35 L500.95 235.7" fill="#91dff7" fill-rule="evenodd" stroke="none"/>
    <path d="M502.05 235.0 L500.95 235.7 496.85 229.35 497.0 229.2 497.85 228.55 502.05 235.0" fill="#68c8e7" fill-rule="evenodd" stroke="none"/>
    <path d="M483.7 248.05 L484.6 247.35 Q485.5 246.8 486.55 246.8 488.3 246.8 489.5 248.05 490.7 249.35 490.7 251.2 490.7 253.05 489.5 254.3 L489.3 254.5 488.05 255.3 486.55 255.55 Q484.9 255.55 483.7 254.3 482.5 253.05 482.5 251.2 482.5 249.45 483.55 248.25 L483.7 248.05" fill="#1e9ac2" fill-rule="evenodd" stroke="none"/>
    <path d="M483.7 248.05 L483.8 247.95 484.65 247.25 488.85 253.7 487.75 254.4 483.7 248.05" fill="#68c8e7" fill-rule="evenodd" stroke="none"/>
    <path d="M487.75 254.4 L486.4 254.65 Q484.9 254.65 483.8 253.5 482.75 252.35 482.75 250.7 482.75 249.15 483.7 248.05 L487.75 254.4 M484.65 247.25 Q485.45 246.8 486.4 246.8 487.95 246.8 489.0 247.95 489.7 248.7 490.0 249.65 L490.1 250.7 490.0 251.8 Q489.7 252.75 489.0 253.5 L488.85 253.7 484.65 247.25" fill="#91dff7" fill-rule="evenodd" stroke="none"/>
    <path d="M340.8 292.8 Q340.8 291.05 341.85 289.9 L342.0 289.7 Q342.4 289.2 342.9 289.0 343.8 288.4 344.85 288.4 346.6 288.4 347.8 289.7 349.0 290.95 349.0 292.8 349.0 294.65 347.8 295.95 L347.6 296.1 Q347.05 296.6 346.35 296.9 L344.85 297.15 Q343.15 297.15 342.0 295.95 340.8 294.65 340.8 292.8" fill="#1e9ac2" fill-rule="evenodd" stroke="none"/>
    <path d="M346.05 296.0 L344.7 296.25 Q343.15 296.25 342.1 295.1 341.05 294.0 341.05 292.35 341.05 290.8 342.0 289.7 L346.05 296.0 M342.95 288.9 Q343.75 288.4 344.7 288.4 346.25 288.4 347.3 289.55 L348.25 291.25 348.4 292.35 348.25 293.4 347.3 295.1 347.15 295.3 342.95 288.9" fill="#91dff7" fill-rule="evenodd" stroke="none"/>
    <path d="M342.0 289.7 L342.1 289.55 342.95 288.9 347.15 295.3 346.05 296.0 342.0 289.7" fill="#68c8e7" fill-rule="evenodd" stroke="none"/>
    <path d="M364.45 281.1 L364.6 280.9 365.5 280.2 Q366.4 279.65 367.45 279.65 369.2 279.65 370.4 280.9 371.6 282.2 371.6 284.0 371.6 285.85 370.4 287.15 L370.2 287.35 368.95 288.15 367.45 288.35 Q365.8 288.35 364.6 287.15 363.4 285.85 363.4 284.0 363.4 282.25 364.45 281.1" fill="#1e9ac2" fill-rule="evenodd" stroke="none"/>
    <path d="M369.75 286.5 L368.65 287.25 364.6 280.9 364.7 280.75 365.55 280.1 369.75 286.5" fill="#68c8e7" fill-rule="evenodd" stroke="none"/>
    <path d="M365.55 280.1 Q366.35 279.65 367.3 279.65 368.85 279.65 369.9 280.75 370.6 281.5 370.9 282.45 L371.0 283.55 370.9 284.65 Q370.6 285.6 369.9 286.35 L369.75 286.5 365.55 280.1 M368.65 287.25 L367.3 287.45 Q365.8 287.45 364.7 286.35 363.65 285.2 363.65 283.55 363.65 282.0 364.6 280.9 L368.65 287.25" fill="#91dff7" fill-rule="evenodd" stroke="none"/>
    <path d="M352.3 265.7 Q352.3 267.55 351.1 268.8 L350.95 269.0 349.7 269.8 348.2 270.05 Q346.5 270.05 345.3 268.8 344.1 267.55 344.1 265.7 344.1 263.95 345.15 262.75 L345.3 262.55 346.25 261.85 Q347.1 261.3 348.2 261.3 349.9 261.3 351.1 262.55 352.3 263.85 352.3 265.7" fill="#1e9ac2" fill-rule="evenodd" stroke="none"/>
    <path d="M346.3 261.75 Q347.05 261.3 348.0 261.3 349.55 261.3 350.6 262.45 351.35 263.2 351.6 264.15 L351.75 265.2 351.6 266.3 Q351.35 267.25 350.6 268.0 L350.5 268.2 346.3 261.75 M349.4 268.9 L348.0 269.15 Q346.5 269.15 345.45 268.0 344.35 266.85 344.35 265.2 344.35 263.65 345.3 262.55 L349.4 268.9" fill="#91dff7" fill-rule="evenodd" stroke="none"/>
    <path d="M350.5 268.2 L349.4 268.9 345.3 262.55 345.45 262.45 346.3 261.75 350.5 268.2" fill="#68c8e7" fill-rule="evenodd" stroke="none"/>
    <path d="M392.5 116.6 Q392.5 118.45 391.3 119.7 L391.15 119.9 389.9 120.7 388.4 120.95 Q386.7 120.95 385.5 119.7 384.3 118.45 384.3 116.6 384.3 114.85 385.35 113.65 L385.5 113.45 386.45 112.75 Q387.3 112.2 388.4 112.2 390.1 112.2 391.3 113.45 392.5 114.75 392.5 116.6" fill="#1e9ac2" fill-rule="evenodd" stroke="none"/>
    <path d="M386.5 112.65 Q387.3 112.2 388.2 112.2 389.75 112.2 390.8 113.3 391.55 114.1 391.8 115.0 L391.95 116.1 391.8 117.2 Q391.55 118.15 390.8 118.9 L390.7 119.1 386.5 112.65 M389.6 119.8 L388.2 120.05 Q386.7 120.05 385.65 118.9 384.55 117.75 384.55 116.1 384.55 114.55 385.5 113.45 L389.6 119.8" fill="#91dff7" fill-rule="evenodd" stroke="none"/>
    <path d="M390.7 119.1 L389.6 119.8 385.5 113.45 385.65 113.3 386.5 112.65 390.7 119.1" fill="#68c8e7" fill-rule="evenodd" stroke="none"/>
    <path d="M492.45 199.75 Q499.35 199.75 499.35 210.55 L499.35 232.25 Q499.35 243.05 492.45 243.05 L205.45 243.05 Q198.6 242.95 198.6 232.25 L198.6 210.55 Q198.6 199.85 205.45 199.75 L492.45 199.75" fill="#e7fff8" fill-rule="evenodd" stroke="none"/>
  </g>
  <defs>
    <radialGradient cx="0" cy="0" gradientTransform="matrix(2.0E-4, -0.0113, 0.0478, 2.0E-4, 507.1, 479.95)" gradientUnits="userSpaceOnUse" id="gradient0" r="819.2" spreadMethod="pad">
      <stop offset="0.19607843137254902" stop-color="#875b26" stop-opacity="0.6784314"/>
      <stop offset="0.615686274509804" stop-color="#744c25" stop-opacity="0.29803923"/>
      <stop offset="0.8470588235294118" stop-color="#ad9065" stop-opacity="0.0"/>
    </radialGradient>
  </defs>
</svg>
