<?xml version="1.0" encoding="UTF-8" standalone="no"?>
<svg xmlns:xlink="http://www.w3.org/1999/xlink" height="104.05px" width="339.65px" xmlns="http://www.w3.org/2000/svg">
  <g transform="matrix(1.0, 0.0, 0.0, 1.0, -176.5, -162.05)">
    <path d="M197.75 191.45 L201.35 195.15 Q204.4 192.15 207.9 190.55 L208.25 190.5 206.2 185.7 Q210.9 183.8 216.2 183.8 L216.3 183.9 216.2 188.8 216.95 188.95 217.65 188.95 Q221.15 189.1 224.2 190.3 L226.15 185.45 Q230.7 187.25 234.55 191.05 L230.7 194.85 230.9 195.0 231.0 195.15 232.05 196.2 232.2 196.35 232.95 197.2 234.35 199.55 235.4 201.35 236.75 201.0 240.1 199.5 241.0 201.55 241.45 203.7 Q242.0 206.6 241.9 209.35 L241.85 209.4 236.7 209.35 236.9 209.5 Q236.7 213.8 235.25 217.5 L239.9 219.4 239.25 221.1 238.9 221.9 Q236.9 225.1 234.1 227.9 L230.6 224.4 Q227.6 227.4 223.8 229.0 L225.65 233.75 224.0 234.35 Q220.3 235.6 216.45 235.8 L215.75 235.6 215.6 230.4 209.6 229.8 207.75 229.05 205.7 233.95 203.25 232.8 198.85 229.8 197.3 228.35 201.15 224.55 Q199.7 223.15 198.55 221.6 L198.5 221.55 196.9 218.8 196.6 217.9 191.8 219.95 191.75 219.95 191.8 219.85 191.1 218.35 Q190.3 215.6 190.0 212.05 L189.9 210.3 189.95 210.0 195.15 210.0 195.25 208.9 Q195.25 206.05 196.15 203.65 L196.35 202.9 196.85 201.95 196.75 201.9 191.8 199.9 Q193.95 195.35 197.75 191.45" fill="#e7fff8" fill-rule="evenodd" stroke="none"/>
    <path d="M490.2 192.1 L488.6 188.4 Q492.25 186.95 496.3 186.95 L496.4 187.05 496.3 190.8 496.9 190.9 497.45 190.9 Q500.15 191.0 502.5 191.95 L504.05 188.2 Q507.55 189.6 510.45 192.55 L507.55 195.45 507.7 195.6 507.75 195.7 508.55 196.5 508.65 196.6 509.25 197.3 510.35 199.1 511.15 200.5 512.2 200.2 514.8 199.05 515.45 200.65 515.85 202.3 Q516.25 204.5 516.15 206.65 L512.15 206.65 512.3 206.75 Q512.15 210.05 511.05 212.95 L514.65 214.4 514.1 215.7 513.85 216.35 Q512.3 218.75 510.1 220.95 L507.45 218.2 Q505.1 220.55 502.2 221.75 L503.65 225.45 502.35 225.9 Q499.5 226.85 496.5 227.0 L496.0 226.85 495.9 222.9 491.2 222.4 489.8 221.8 488.25 225.6 Q487.25 225.25 486.35 224.75 L482.95 222.4 481.8 221.3 484.7 218.35 482.7 216.1 482.7 216.05 481.45 213.9 481.2 213.2 477.55 214.8 477.5 214.8 477.55 214.7 477.0 213.55 Q476.35 211.45 476.15 208.75 L476.05 207.4 Q476.0 207.25 476.1 207.1 L480.1 207.1 480.2 206.25 Q480.2 204.1 480.9 202.25 L481.05 201.65 481.45 200.95 481.35 200.9 477.55 199.35 Q479.2 195.85 482.15 192.85 L484.9 195.7 Q487.25 193.4 489.95 192.15 L490.2 192.1" fill="#e7fff8" fill-rule="evenodd" stroke="none"/>
    <path d="M469.05 218.6 L469.4 218.5 467.35 213.7 Q472.05 211.8 477.35 211.8 L477.5 211.95 477.35 216.85 478.1 216.95 478.8 216.95 Q482.3 217.1 485.35 218.3 L487.35 213.45 Q491.9 215.25 495.7 219.1 L491.9 222.85 492.05 223.0 492.15 223.2 493.2 224.2 493.35 224.4 494.1 225.25 495.55 227.6 496.55 229.4 497.9 229.0 501.3 227.55 502.15 229.6 502.65 231.7 Q503.15 234.65 503.05 237.4 L503.0 237.45 497.85 237.4 498.05 237.5 Q497.85 241.8 496.4 245.5 L501.05 247.45 500.4 249.1 500.05 249.95 Q498.1 253.1 495.25 255.95 L491.75 252.4 Q488.75 255.45 484.95 257.0 L486.85 261.75 485.15 262.4 Q481.45 263.6 477.6 263.8 L476.9 263.6 476.8 258.45 Q473.6 258.7 470.75 257.8 L468.9 257.1 466.85 261.95 Q465.6 261.5 464.4 260.8 462.1 259.5 460.0 257.8 L458.5 256.4 462.3 252.55 459.7 249.6 459.65 249.55 458.05 246.8 457.75 245.9 452.95 247.95 452.9 247.95 452.95 247.9 452.25 246.35 Q451.45 243.6 451.15 240.1 L451.05 238.35 Q450.95 238.15 451.15 238.0 L456.3 238.0 Q456.3 237.45 456.45 236.95 456.45 234.05 457.35 231.7 L457.5 230.95 458.05 229.95 457.9 229.9 453.0 227.9 Q455.1 223.35 458.95 219.5 L462.5 223.2 Q465.55 220.2 469.05 218.6" fill="#e7fff8" fill-rule="evenodd" stroke="none"/>
    <path d="M207.0 220.05 L207.15 220.15 207.2 220.3 208.0 221.05 208.15 221.2 208.65 221.8 209.75 223.55 210.5 224.95 211.55 224.65 214.05 223.55 214.7 225.1 Q214.8 226.05 215.05 226.65 215.45 228.85 215.35 230.9 L211.5 230.9 211.6 231.0 Q211.5 234.2 210.4 237.0 L213.85 238.45 213.4 239.65 213.15 240.25 Q211.65 242.65 209.5 244.75 L206.95 242.1 Q204.7 244.4 201.85 245.55 L203.25 249.15 201.95 249.6 Q199.2 250.5 196.35 250.65 L195.8 250.5 195.75 246.65 191.2 246.2 189.8 245.6 188.3 249.25 186.45 248.4 183.2 246.2 182.05 245.1 184.9 242.25 182.95 240.05 181.75 238.0 181.5 237.3 177.9 238.8 177.9 238.75 177.4 237.6 Q176.8 235.55 176.55 232.95 L176.5 231.6 Q176.45 231.5 176.55 231.35 L180.45 231.35 180.5 230.55 Q180.5 228.4 181.2 226.65 L181.35 226.05 181.7 225.35 181.6 225.35 177.9 223.8 Q179.5 220.4 182.4 217.55 L185.05 220.3 Q187.3 218.05 189.95 216.85 L190.2 216.8 188.7 213.2 Q192.2 211.8 196.15 211.8 L196.25 211.9 196.15 215.55 196.7 215.6 197.2 215.6 Q199.9 215.75 202.15 216.65 L203.6 213.05 Q207.0 214.4 209.85 217.2 L207.0 220.05" fill="#e7fff8" fill-rule="evenodd" stroke="none"/>
    <path d="M395.85 172.5 Q397.2 169.55 399.7 167.05 L402.05 169.45 Q404.05 167.5 406.35 166.45 L406.55 166.4 405.2 163.3 Q408.25 162.05 411.7 162.05 L411.8 162.15 411.7 165.3 412.2 165.4 412.65 165.4 Q414.95 165.5 416.9 166.3 L418.25 163.15 Q421.2 164.3 423.65 166.8 L421.2 169.25 421.3 169.35 421.35 169.45 422.05 170.15 422.15 170.2 422.6 170.8 423.55 172.3 424.2 173.5 425.15 173.25 427.3 172.3 427.9 173.65 428.2 175.05 Q428.55 176.9 428.45 178.7 L425.1 178.7 425.2 178.8 Q425.1 181.6 424.15 184.0 L427.2 185.25 426.75 186.35 426.5 186.9 Q425.2 188.95 423.35 190.8 L421.1 188.5 Q419.15 190.45 416.65 191.5 L417.9 194.6 416.8 194.95 Q414.35 195.8 411.85 195.9 L411.4 195.8 411.35 192.4 407.4 192.0 406.2 191.5 404.9 194.7 Q404.05 194.45 403.3 194.0 401.8 193.1 400.4 192.0 L399.45 191.05 401.9 188.6 400.2 186.7 400.2 186.65 399.15 184.85 398.95 184.25 395.85 185.6 395.8 185.6 395.85 185.55 395.35 184.55 Q394.85 182.8 394.7 180.5 L394.6 179.35 Q394.55 179.2 394.65 179.1 L398.0 179.1 398.1 178.4 Q398.1 176.55 398.65 175.0 L398.8 174.5 399.15 173.9 399.05 173.85 395.85 172.5" fill="#e7fff8" fill-rule="evenodd" stroke="none"/>
    <path d="M249.95 238.8 L250.0 238.9 249.95 241.45 250.35 241.5 250.7 241.5 Q252.6 241.6 254.15 242.25 L255.2 239.7 Q257.6 240.65 259.6 242.65 L257.6 244.6 257.7 244.75 258.3 245.35 258.35 245.45 258.75 245.9 259.5 247.1 260.05 248.05 260.8 247.85 262.5 247.05 263.0 248.2 263.25 249.3 Q263.55 250.8 263.45 252.3 L260.85 252.3 Q260.75 254.6 259.95 256.55 L262.45 257.55 262.05 258.45 261.9 258.85 259.35 262.0 257.55 260.1 Q255.95 261.7 253.95 262.55 L254.95 265.1 254.05 265.35 250.1 266.1 249.7 266.05 249.65 263.3 246.45 263.0 245.5 262.6 244.45 265.15 243.15 264.6 240.85 263.0 240.05 262.2 242.05 260.25 240.7 258.7 240.7 258.65 239.8 257.2 239.65 256.7 237.15 257.8 237.1 257.8 237.15 257.75 236.8 256.95 Q236.35 255.5 236.2 253.65 L236.1 252.75 236.15 252.55 238.85 252.55 238.95 252.0 Q238.95 250.5 239.4 249.25 L239.55 248.85 239.8 248.35 239.75 248.35 237.15 247.25 Q238.25 244.9 240.25 242.85 L242.15 244.75 Q243.75 243.2 245.6 242.35 L245.75 242.35 244.7 239.8 Q247.15 238.8 249.95 238.8" fill="#e7fff8" fill-rule="evenodd" stroke="none"/>
  </g>
</svg>
