<?xml version="1.0" encoding="UTF-8" standalone="no"?>
<svg xmlns:xlink="http://www.w3.org/1999/xlink" height="23.2px" width="179.1px" xmlns="http://www.w3.org/2000/svg">
  <g transform="matrix(1.0, 0.0, 0.0, 1.0, 0.0, 0.0)">
    <path d="M177.65 1.8 Q178.4 2.55 178.45 3.65 L179.1 19.15 Q179.15 20.2 178.45 21.0 177.75 21.8 176.65 21.9 L172.6 22.15 172.5 22.15 171.45 21.9 170.55 21.3 169.3 21.6 166.85 21.6 165.65 21.3 164.75 21.9 163.65 22.15 159.65 22.0 158.6 21.75 157.75 21.15 157.55 20.85 Q156.25 22.0 154.65 22.6 153.1 23.2 151.35 23.2 146.85 23.2 144.05 20.6 142.85 21.6 141.0 22.15 L137.4 22.65 Q132.85 22.65 129.8 20.05 129.25 21.3 127.8 22.0 L125.05 22.6 122.95 22.3 Q122.25 22.8 121.35 22.8 L116.75 22.75 Q115.8 22.7 115.1 22.1 114.4 21.5 114.25 20.6 L114.25 20.55 114.15 20.05 114.1 20.25 Q113.9 21.2 113.15 21.75 112.45 22.35 111.5 22.35 L106.95 22.35 106.35 22.25 105.75 22.35 101.5 22.5 100.1 22.1 99.1 21.0 99.0 20.75 98.1 21.9 96.65 22.35 92.6 22.5 Q91.5 22.5 90.75 21.8 89.95 21.05 89.95 19.85 L89.95 13.25 88.7 15.75 88.8 19.85 Q88.8 21.0 88.05 21.75 87.25 22.5 86.15 22.5 L81.4 22.6 Q80.25 22.6 79.5 21.85 78.75 21.1 78.75 19.95 L78.75 17.95 77.6 19.7 Q76.2 21.4 74.35 22.3 72.45 23.2 70.3 23.2 66.0 23.2 63.2 20.8 L62.3 21.9 Q61.7 22.3 60.9 22.35 L56.7 22.5 Q55.9 22.5 55.25 22.1 54.6 21.7 54.3 21.0 L54.2 20.75 53.25 21.9 51.8 22.35 47.75 22.5 46.75 22.35 45.9 21.8 45.45 21.2 Q43.1 23.15 39.25 23.15 34.9 23.15 32.55 20.75 30.2 18.35 30.2 13.95 L30.2 13.3 29.0 15.75 29.05 19.85 Q29.05 21.0 28.3 21.75 27.55 22.5 26.45 22.5 L21.65 22.6 Q20.55 22.6 19.8 21.85 19.05 21.1 19.05 19.95 L19.05 17.95 17.85 19.7 Q16.45 21.4 14.6 22.3 12.75 23.2 10.6 23.2 5.7 23.2 2.8 20.1 0.0 17.1 0.0 12.25 0.0 7.55 2.85 4.35 5.9 0.9 10.75 0.9 13.35 0.9 15.5 2.3 16.15 1.85 16.95 1.85 L21.75 1.95 Q22.6 1.95 23.3 2.4 23.95 2.9 24.25 3.7 L24.25 3.65 Q24.55 2.9 25.2 2.4 25.9 1.95 26.75 1.95 L31.5 1.95 32.35 2.05 32.95 2.0 37.65 2.25 38.65 2.55 39.45 3.1 40.3 2.45 41.35 2.2 45.8 2.1 Q46.2 1.7 46.7 1.45 L47.75 1.25 52.0 1.3 53.4 1.7 Q54.05 2.05 54.35 2.75 L54.4 2.85 Q54.7 2.1 55.35 1.7 56.0 1.25 56.8 1.25 L60.95 1.3 Q61.9 1.3 62.65 1.85 63.35 2.45 63.55 3.4 66.35 0.9 70.45 0.9 73.1 0.9 75.2 2.3 75.85 1.85 76.65 1.85 L81.45 1.95 Q82.3 1.95 83.0 2.4 83.65 2.9 83.95 3.7 L83.95 3.65 Q84.25 2.9 84.95 2.4 85.6 1.95 86.45 1.95 L90.8 1.95 Q91.5 1.25 92.55 1.25 L96.85 1.3 98.2 1.7 Q98.85 2.05 99.2 2.75 L99.25 2.85 Q99.55 2.1 100.15 1.7 100.8 1.25 101.65 1.25 L105.75 1.3 Q106.55 1.3 107.2 1.7 107.85 2.1 108.15 2.8 108.4 2.0 109.1 1.5 109.8 1.0 110.65 1.0 L117.75 1.0 Q118.7 1.0 119.4 1.6 120.15 2.2 120.35 3.1 L122.9 14.9 125.0 14.5 126.6 14.75 Q126.3 13.4 126.3 11.9 126.3 6.0 130.5 2.75 134.1 0.0 139.8 0.0 141.15 0.0 141.95 0.75 142.65 1.35 142.8 2.25 L143.15 4.85 143.6 4.35 Q146.65 0.9 151.5 0.9 153.3 0.9 154.85 1.55 156.45 2.2 157.7 3.5 157.8 2.45 158.55 1.75 159.3 1.05 160.4 1.05 L164.95 1.1 Q165.85 1.1 166.55 1.6 167.25 2.1 167.5 2.95 L168.1 4.8 168.7 2.95 Q168.95 2.1 169.65 1.6 170.35 1.1 171.25 1.1 L175.8 1.05 Q176.9 1.05 177.65 1.8 M150.9 10.95 L150.7 11.2 Q150.35 11.75 150.35 12.5 150.35 13.2 150.7 13.75 L150.9 14.0 151.05 14.05 151.2 14.0 151.4 13.75 Q151.8 13.2 151.8 12.5 151.8 11.75 151.4 11.2 L151.2 10.95 150.9 10.95 M136.2 10.95 L136.0 11.95 136.1 12.6 136.3 12.85 137.6 13.15 Q138.85 13.15 140.45 12.15 L140.75 12.0 Q140.8 10.8 141.0 9.7 L140.8 9.75 139.75 9.7 Q137.85 9.7 136.8 10.3 L136.2 10.95 M69.9 10.95 L69.7 11.2 Q69.3 11.75 69.3 12.5 69.3 13.2 69.7 13.75 L69.9 14.0 70.0 14.05 70.15 14.0 70.35 13.75 Q70.75 13.2 70.75 12.5 70.75 11.75 70.35 11.2 L70.15 10.95 69.9 10.95 M10.15 10.95 L9.95 11.2 Q9.6 11.75 9.6 12.5 9.6 13.2 9.95 13.75 L10.15 14.0 10.3 14.05 10.45 14.0 10.65 13.75 Q11.05 13.2 11.05 12.5 11.05 11.75 10.65 11.2 L10.45 10.95 10.15 10.95" fill="#6a2316" fill-rule="evenodd" stroke="none"/>
    <path d="M11.1 10.9 L10.65 10.45 10.3 10.4 9.95 10.45 9.5 10.9 Q9.05 11.6 9.05 12.5 9.05 13.35 9.5 14.05 L9.95 14.5 10.3 14.6 10.65 14.5 11.1 14.05 Q11.6 13.35 11.6 12.5 11.6 11.6 11.1 10.9 M69.65 10.45 L69.25 10.9 Q68.75 11.55 68.75 12.5 68.75 13.4 69.25 14.05 L69.65 14.5 70.0 14.6 70.4 14.5 70.85 14.05 71.3 12.5 Q71.3 11.6 70.85 10.9 L70.4 10.45 70.0 10.4 69.65 10.45 M139.75 9.15 Q137.7 9.15 136.5 9.85 135.95 10.2 135.7 10.7 135.45 11.2 135.45 11.95 135.45 12.45 135.6 12.8 L135.9 13.25 137.6 13.7 Q139.0 13.7 140.75 12.6 L140.8 12.6 141.3 12.35 141.3 12.25 Q141.3 10.55 141.7 9.0 L140.8 9.2 139.75 9.15 M150.7 10.45 L150.25 10.9 Q149.8 11.55 149.8 12.5 149.8 13.4 150.25 14.05 L150.7 14.5 151.05 14.6 151.4 14.5 151.85 14.05 Q152.35 13.35 152.35 12.5 152.35 11.6 151.85 10.9 L151.4 10.45 151.05 10.4 150.7 10.45 M177.3 2.2 Q177.9 2.8 177.9 3.65 L178.55 19.15 Q178.6 20.0 178.05 20.65 177.5 21.25 176.65 21.35 L172.5 21.6 171.45 21.3 170.7 20.55 Q170.1 21.05 169.3 21.05 L166.85 21.05 Q166.1 21.05 165.5 20.55 L164.75 21.3 163.65 21.6 159.65 21.45 Q158.75 21.4 158.15 20.75 L157.7 19.9 Q156.45 21.25 154.8 21.95 153.2 22.65 151.35 22.65 146.8 22.65 144.05 19.8 142.9 21.0 140.85 21.6 L137.4 22.1 Q132.85 22.1 129.9 19.4 L129.55 19.05 129.05 20.3 127.55 21.5 125.05 22.05 122.85 21.65 Q122.25 22.25 121.35 22.25 L116.8 22.2 Q116.0 22.15 115.45 21.7 114.9 21.2 114.75 20.5 L114.5 18.85 113.8 18.85 113.55 20.15 112.8 21.35 111.5 21.8 106.95 21.8 106.3 21.7 105.7 21.8 101.5 21.95 100.4 21.65 Q99.85 21.3 99.6 20.75 L98.65 18.75 98.65 19.75 Q98.65 20.6 98.05 21.2 97.5 21.75 96.65 21.8 L92.6 21.95 Q91.7 21.95 91.1 21.4 90.5 20.8 90.5 19.85 L90.5 10.9 88.15 15.65 88.25 19.85 Q88.25 20.75 87.65 21.35 87.05 21.95 86.15 21.95 L81.4 22.05 Q80.5 22.05 79.9 21.45 79.3 20.85 79.3 19.95 L79.3 15.6 79.2 15.4 Q78.6 17.55 77.15 19.35 75.85 21.0 74.1 21.8 72.35 22.65 70.3 22.65 65.65 22.65 62.9 19.7 L62.9 19.75 Q62.9 20.6 62.3 21.2 61.75 21.75 60.9 21.8 L56.7 21.95 55.55 21.65 54.8 20.75 53.85 18.75 53.85 19.75 Q53.8 20.6 53.25 21.2 52.65 21.75 51.8 21.8 L47.75 21.95 Q46.9 21.95 46.3 21.4 45.8 20.9 45.7 20.2 43.4 22.6 39.25 22.6 35.15 22.6 32.95 20.35 30.75 18.15 30.75 13.95 L30.8 10.85 28.45 15.65 28.5 19.85 Q28.5 20.75 27.9 21.35 27.3 21.95 26.4 21.95 L21.65 22.05 Q20.8 22.05 20.15 21.45 19.6 20.85 19.6 19.95 L19.6 15.6 19.5 15.4 Q18.9 17.55 17.45 19.35 16.1 21.0 14.4 21.8 12.65 22.65 10.6 22.65 5.9 22.65 3.2 19.7 0.55 16.85 0.55 12.25 0.55 7.75 3.25 4.7 6.15 1.45 10.75 1.45 13.4 1.45 15.5 2.95 16.1 2.4 16.95 2.4 L21.75 2.5 Q22.45 2.5 23.0 2.9 L23.75 3.95 24.2 5.45 24.75 3.85 Q25.0 3.25 25.55 2.85 26.05 2.5 26.75 2.5 L31.5 2.5 32.35 2.65 32.95 2.55 37.65 2.8 Q38.3 2.85 38.8 3.25 L39.5 4.2 Q39.7 3.55 40.2 3.2 40.7 2.75 41.4 2.75 L46.05 2.6 46.05 2.65 46.8 2.05 47.75 1.8 52.0 1.85 53.1 2.15 53.9 3.05 54.75 4.85 54.75 3.95 Q54.75 3.0 55.35 2.4 55.95 1.8 56.8 1.8 L60.95 1.85 Q61.85 1.85 62.45 2.45 63.05 3.05 63.05 3.95 L63.0 4.65 Q65.9 1.45 70.45 1.45 73.1 1.45 75.25 2.95 75.8 2.4 76.65 2.4 L81.45 2.5 82.7 2.9 83.45 3.95 83.9 5.45 84.5 3.85 Q84.7 3.25 85.25 2.85 85.8 2.5 86.45 2.5 L91.0 2.5 91.7 2.0 92.55 1.8 96.85 1.85 97.9 2.15 98.7 3.0 98.7 3.05 99.55 4.85 99.55 3.95 Q99.55 3.0 100.15 2.4 100.75 1.8 101.65 1.8 L105.75 1.85 Q106.65 1.85 107.25 2.45 107.85 3.05 107.85 3.95 L107.85 6.6 108.6 3.2 Q108.75 2.45 109.35 2.0 109.9 1.55 110.65 1.55 L117.75 1.55 Q118.5 1.55 119.05 2.0 119.65 2.5 119.8 3.25 L122.5 15.65 122.55 15.6 Q123.75 15.05 125.0 15.05 126.3 15.05 127.45 15.6 126.85 13.9 126.85 11.9 126.85 6.3 130.85 3.2 134.3 0.55 139.8 0.55 141.15 0.55 141.8 1.35 L142.25 2.35 142.85 6.3 Q143.35 5.45 144.0 4.7 146.9 1.45 151.5 1.45 153.5 1.45 155.2 2.35 156.95 3.2 158.2 4.9 L158.25 3.65 Q158.3 2.8 158.9 2.2 159.5 1.6 160.4 1.6 L164.95 1.65 Q165.65 1.65 166.2 2.05 L166.95 3.1 168.1 6.55 169.2 3.1 Q169.4 2.45 170.0 2.05 170.55 1.65 171.25 1.65 L175.8 1.6 Q176.65 1.6 177.3 2.2" fill="url(#gradient0)" fill-rule="evenodd" stroke="none"/>
    <path d="M18.3 12.35 Q18.3 15.85 16.25 18.4 14.0 21.1 10.6 21.1 6.6 21.1 4.35 18.65 2.1 16.3 2.1 12.25 2.1 8.35 4.4 5.75 6.85 3.0 10.75 3.0 14.2 3.0 16.4 6.05 18.3 8.8 18.3 12.35 M10.3 8.85 Q9.05 8.85 8.25 10.0 7.5 11.1 7.5 12.5 7.5 13.85 8.25 14.95 9.05 16.15 10.3 16.15 11.55 16.15 12.4 14.95 13.15 13.85 13.15 12.5 13.15 11.1 12.4 10.0 11.55 8.85 10.3 8.85" fill="#e66712" fill-rule="evenodd" stroke="none"/>
    <path d="M32.05 4.6 L26.9 15.3 26.95 19.85 26.8 20.25 26.4 20.4 21.65 20.5 Q21.4 20.5 21.3 20.35 L21.15 19.95 21.15 15.3 16.4 4.5 Q16.4 4.25 16.55 4.1 16.7 3.95 16.95 3.95 L21.7 4.05 Q22.15 4.05 22.25 4.4 L24.1 10.3 26.2 4.4 26.75 4.05 31.5 4.05 31.9 4.2 32.05 4.6" fill="#e66712" fill-rule="evenodd" stroke="none"/>
    <path d="M41.1 4.45 L41.45 4.3 46.05 4.15 46.45 4.35 46.6 4.75 46.4 13.75 Q46.3 17.4 44.5 19.2 42.7 21.05 39.25 21.05 35.8 21.05 34.05 19.25 32.3 17.5 32.3 13.95 L32.4 4.65 Q32.4 4.4 32.55 4.25 32.7 4.1 32.95 4.1 L37.55 4.35 37.95 4.55 38.05 4.9 37.85 13.7 Q37.85 15.25 38.45 15.8 L39.3 16.1 40.1 15.9 40.6 15.2 40.85 13.3 40.95 4.85 Q40.95 4.6 41.1 4.45" fill="#e66712" fill-rule="evenodd" stroke="none"/>
    <path d="M61.5 3.95 L61.35 19.7 61.2 20.1 60.8 20.25 56.7 20.4 56.2 20.1 52.35 11.9 52.3 19.7 52.15 20.1 51.75 20.25 47.75 20.4 47.35 20.3 Q47.2 20.15 47.2 19.85 L47.2 3.95 Q47.2 3.65 47.35 3.5 L47.75 3.35 52.0 3.4 52.5 3.7 56.3 11.85 56.3 3.95 Q56.3 3.65 56.45 3.5 56.6 3.35 56.8 3.35 L60.95 3.4 61.35 3.55 61.5 3.95" fill="#e66712" fill-rule="evenodd" stroke="none"/>
    <path d="M78.05 12.35 Q78.05 15.85 75.95 18.4 73.75 21.1 70.3 21.1 66.3 21.1 64.05 18.65 61.85 16.25 61.85 12.25 61.85 8.35 64.15 5.75 66.55 3.0 70.45 3.0 73.95 3.0 76.1 6.05 78.05 8.8 78.05 12.35 M67.95 10.0 Q67.2 11.1 67.2 12.5 67.2 13.85 67.95 14.95 68.75 16.15 70.0 16.15 71.3 16.15 72.1 14.95 72.85 13.85 72.85 12.5 72.85 11.1 72.1 10.0 71.3 8.85 70.0 8.85 68.75 8.85 67.95 10.0" fill="#e66712" fill-rule="evenodd" stroke="none"/>
    <path d="M91.6 4.2 L91.75 4.6 86.6 15.3 86.7 19.85 86.55 20.25 86.1 20.4 81.4 20.5 81.0 20.35 80.85 19.95 80.85 15.3 76.15 4.5 76.3 4.1 Q76.4 3.95 76.65 3.95 L81.45 4.05 Q81.85 4.05 81.95 4.4 L83.85 10.3 85.95 4.4 Q86.05 4.05 86.45 4.05 L91.2 4.05 91.6 4.2" fill="#e66712" fill-rule="evenodd" stroke="none"/>
    <path d="M106.3 3.95 L106.15 19.7 106.0 20.1 105.65 20.25 101.5 20.4 Q101.15 20.4 101.0 20.1 L97.2 11.9 97.1 19.7 96.95 20.1 96.55 20.25 92.6 20.4 92.2 20.3 Q92.05 20.15 92.05 19.85 L92.05 3.95 Q92.05 3.65 92.2 3.5 92.3 3.35 92.55 3.35 L96.85 3.4 Q97.15 3.4 97.3 3.7 L101.1 11.85 101.1 3.95 Q101.1 3.65 101.25 3.5 L101.65 3.35 105.75 3.4 106.15 3.55 106.3 3.95" fill="#e66712" fill-rule="evenodd" stroke="none"/>
    <path d="M121.9 20.15 L121.75 20.55 121.35 20.7 116.85 20.65 116.5 20.5 116.3 20.2 115.8 17.3 112.55 17.3 112.05 19.8 111.85 20.1 111.5 20.25 106.95 20.25 106.55 20.1 106.4 19.65 106.4 19.6 110.15 3.55 Q110.15 3.3 110.3 3.2 L110.65 3.1 117.75 3.1 118.1 3.2 118.25 3.55 121.9 20.1 121.9 20.15 M115.0 12.95 L114.3 8.9 113.45 12.95 115.0 12.95" fill="#e66712" fill-rule="evenodd" stroke="none"/>
    <path d="M122.0 18.5 Q122.0 17.55 123.2 17.0 L125.0 16.6 Q125.95 16.6 126.85 17.05 128.05 17.6 128.05 18.6 128.05 19.55 126.9 20.1 L125.05 20.5 123.2 20.1 Q122.0 19.55 122.0 18.5" fill="#e66712" fill-rule="evenodd" stroke="none"/>
    <path d="M143.1 18.6 Q142.2 19.6 140.4 20.1 L137.4 20.55 Q133.45 20.55 130.95 18.25 128.4 15.9 128.4 11.9 128.4 7.05 131.8 4.45 134.85 2.1 139.8 2.1 140.65 2.1 140.7 2.55 L141.35 7.0 141.25 7.45 140.8 7.65 139.75 7.6 Q137.25 7.6 135.7 8.55 133.9 9.65 133.9 11.95 133.9 13.55 134.9 14.45 135.9 15.25 137.6 15.25 139.45 15.25 141.6 13.9 L141.9 13.8 Q142.35 13.8 142.45 14.25 L143.2 18.2 143.1 18.55 143.1 18.6" fill="#e66712" fill-rule="evenodd" stroke="none"/>
    <path d="M159.05 12.35 Q159.05 15.85 157.0 18.4 154.75 21.1 151.35 21.1 147.35 21.1 145.05 18.65 142.85 16.25 142.85 12.25 142.85 8.35 145.15 5.75 147.6 3.0 151.5 3.0 154.95 3.0 157.1 6.05 159.05 8.8 159.05 12.35 M149.0 10.0 Q148.25 11.1 148.25 12.5 148.25 13.85 149.0 14.95 149.8 16.15 151.05 16.15 152.3 16.15 153.15 14.95 153.9 13.85 153.9 12.5 153.9 11.1 153.15 10.0 152.3 8.85 151.05 8.85 149.8 8.85 149.0 10.0" fill="#e66712" fill-rule="evenodd" stroke="none"/>
    <path d="M176.2 3.3 L176.35 3.7 177.0 19.2 176.85 19.6 176.5 19.8 172.5 20.05 172.1 19.9 171.95 19.5 171.8 12.15 169.85 19.1 169.65 19.4 169.3 19.5 166.85 19.5 166.55 19.4 166.35 19.1 164.4 12.15 164.2 19.5 164.05 19.9 163.65 20.05 159.7 19.9 159.3 19.7 159.15 19.3 159.8 3.7 159.95 3.3 160.4 3.15 164.95 3.2 165.3 3.3 165.5 3.6 168.1 11.5 170.7 3.55 170.9 3.3 171.25 3.2 175.8 3.15 176.2 3.3" fill="#e66712" fill-rule="evenodd" stroke="none"/>
    <path d="M18.05 12.35 Q18.05 15.75 16.05 18.2 13.9 20.85 10.6 20.85 6.75 20.85 4.5 18.45 2.4 16.15 2.4 12.25 2.4 8.45 4.65 5.9 6.95 3.25 10.75 3.25 14.05 3.25 16.15 6.2 18.05 8.9 18.05 12.35 M10.3 8.55 Q8.9 8.55 8.0 9.85 7.2 11.0 7.2 12.5 7.2 13.95 8.0 15.1 8.9 16.4 10.3 16.4 11.7 16.4 12.6 15.1 13.4 13.9 13.4 12.5 13.4 11.05 12.6 9.85 11.7 8.55 10.3 8.55" fill="#ffffff" fill-rule="evenodd" stroke="none"/>
    <path d="M31.8 4.6 L26.6 15.2 26.7 19.85 26.4 20.15 21.7 20.25 Q21.4 20.25 21.4 19.95 L21.4 15.2 16.7 4.5 Q16.7 4.25 16.95 4.25 L21.7 4.3 Q21.95 4.3 22.0 4.5 L24.1 11.15 26.45 4.5 Q26.55 4.3 26.75 4.3 L31.5 4.3 31.8 4.6" fill="#ffffff" fill-rule="evenodd" stroke="none"/>
    <path d="M46.1 13.75 Q45.95 20.75 39.25 20.75 32.55 20.75 32.55 13.95 L32.7 4.65 Q32.7 4.35 33.0 4.4 L37.55 4.65 37.8 4.9 37.6 13.7 Q37.6 16.35 39.3 16.35 40.4 16.35 40.85 15.3 L41.1 13.3 41.2 4.85 41.45 4.55 46.05 4.45 46.25 4.55 46.35 4.75 46.1 13.75" fill="#ffffff" fill-rule="evenodd" stroke="none"/>
    <path d="M61.2 3.95 L61.05 19.7 60.8 20.0 56.7 20.15 56.45 20.0 52.1 10.7 52.0 19.7 51.75 20.0 47.8 20.15 Q47.5 20.15 47.5 19.85 L47.5 3.95 Q47.5 3.6 47.75 3.65 L52.0 3.65 52.25 3.8 56.55 13.05 56.55 3.95 Q56.55 3.6 56.85 3.65 L60.95 3.65 61.2 3.95" fill="#ffffff" fill-rule="evenodd" stroke="none"/>
    <path d="M77.75 12.35 Q77.75 15.75 75.75 18.2 73.6 20.85 70.3 20.85 66.45 20.85 64.25 18.45 62.1 16.15 62.1 12.25 62.1 8.45 64.35 5.9 66.7 3.25 70.45 3.25 73.8 3.25 75.85 6.2 77.75 8.85 77.75 12.35 M67.75 9.85 Q66.95 11.0 66.95 12.5 66.95 13.95 67.75 15.1 68.6 16.4 70.0 16.4 71.4 16.4 72.35 15.1 73.15 13.95 73.15 12.5 73.15 11.0 72.35 9.85 71.4 8.55 70.0 8.55 68.65 8.55 67.75 9.85" fill="#ffffff" fill-rule="evenodd" stroke="none"/>
    <path d="M91.5 4.6 L86.35 15.2 86.4 19.85 86.1 20.15 81.4 20.25 Q81.1 20.25 81.1 19.95 L81.1 15.2 76.4 4.5 76.7 4.25 81.45 4.3 81.7 4.5 83.8 11.15 86.2 4.5 Q86.25 4.3 86.45 4.3 L91.2 4.3 91.5 4.6" fill="#ffffff" fill-rule="evenodd" stroke="none"/>
    <path d="M106.05 3.95 L105.9 19.7 105.6 20.0 101.5 20.15 101.25 20.0 96.95 10.7 96.85 19.7 96.55 20.0 92.6 20.15 Q92.3 20.15 92.3 19.85 L92.3 3.95 Q92.3 3.6 92.6 3.65 L96.85 3.65 97.05 3.8 101.4 13.05 101.4 3.95 Q101.4 3.6 101.65 3.65 L105.75 3.65 106.05 3.95" fill="#ffffff" fill-rule="evenodd" stroke="none"/>
    <path d="M118.0 3.6 L121.65 20.15 121.35 20.45 116.85 20.35 116.55 20.15 116.0 17.0 112.35 17.0 111.8 19.7 111.5 19.95 106.95 19.95 106.7 19.65 106.7 19.6 110.4 3.6 Q110.45 3.35 110.65 3.35 L117.75 3.35 118.0 3.6 M115.35 13.25 L114.3 7.45 113.1 13.25 115.35 13.25" fill="#ffffff" fill-rule="evenodd" stroke="none"/>
    <path d="M122.3 18.5 Q122.3 17.75 123.3 17.25 L125.0 16.9 126.75 17.3 Q127.75 17.8 127.75 18.6 127.75 19.4 126.75 19.85 126.0 20.25 125.05 20.25 124.1 20.25 123.3 19.85 122.3 19.4 122.3 18.5" fill="#ffffff" fill-rule="evenodd" stroke="none"/>
    <path d="M142.85 18.4 Q142.05 19.35 140.35 19.85 L137.4 20.3 Q133.55 20.3 131.15 18.1 128.7 15.75 128.7 11.9 128.7 7.15 131.95 4.65 134.9 2.4 139.8 2.4 L140.45 2.6 141.1 7.05 140.8 7.35 139.75 7.3 Q137.2 7.3 135.55 8.3 133.65 9.5 133.65 11.95 133.65 13.7 134.75 14.65 135.8 15.55 137.6 15.55 139.55 15.55 141.75 14.15 L141.9 14.1 142.2 14.3 142.95 18.2 142.85 18.4" fill="#ffffff" fill-rule="evenodd" stroke="none"/>
    <path d="M158.8 12.35 Q158.8 15.75 156.75 18.2 154.65 20.85 151.35 20.85 147.45 20.85 145.25 18.45 143.15 16.15 143.15 12.25 143.15 8.45 145.35 5.9 147.7 3.25 151.5 3.25 154.8 3.25 156.9 6.2 158.8 8.85 158.8 12.35 M148.75 9.85 Q147.95 11.0 147.95 12.5 147.95 13.95 148.75 15.1 149.65 16.4 151.05 16.4 152.45 16.4 153.35 15.1 154.15 13.95 154.15 12.5 154.15 11.0 153.35 9.85 152.45 8.55 151.05 8.55 149.65 8.55 148.75 9.85" fill="#ffffff" fill-rule="evenodd" stroke="none"/>
    <path d="M176.1 3.75 L176.7 19.25 176.45 19.5 172.5 19.75 172.25 19.5 172.05 10.3 169.6 19.0 169.3 19.25 166.85 19.25 166.6 19.0 164.15 10.3 163.95 19.5 163.65 19.75 159.75 19.6 Q159.45 19.6 159.45 19.3 L160.1 3.75 Q160.1 3.45 160.4 3.45 L164.95 3.45 Q165.15 3.45 165.2 3.65 L168.1 12.35 170.95 3.65 171.25 3.45 175.8 3.45 176.1 3.75" fill="#ffffff" fill-rule="evenodd" stroke="none"/>
  </g>
  <defs>
    <linearGradient gradientTransform="matrix(0.0, 0.0117, 0.0117, 0.0, 89.55, 12.2)" gradientUnits="userSpaceOnUse" id="gradient0" spreadMethod="pad" x1="-819.2" x2="819.2">
      <stop offset="0.0" stop-color="#f4b012"/>
      <stop offset="0.5686274509803921" stop-color="#da2e19"/>
      <stop offset="1.0" stop-color="#b81c1d"/>
    </linearGradient>
  </defs>
</svg>
