<?xml version="1.0" encoding="UTF-8" standalone="no"?>
<svg xmlns:xlink="http://www.w3.org/1999/xlink" height="90.7px" width="86.55px" xmlns="http://www.w3.org/2000/svg">
  <g transform="matrix(1.0, 0.0, 0.0, 1.0, -0.5, -16.95)">
    <path d="M83.4 95.3 Q83.4 97.0 84.05 98.75 61.0 106.25 45.5 104.2 L45.5 100.8 45.15 95.3 40.0 95.3 39.65 100.8 39.3 103.5 Q24.15 107.25 3.5 98.05 L4.2 94.3 Q4.2 93.25 4.55 91.55 5.55 84.35 7.3 76.85 8.0 72.4 9.0 67.6 L9.7 20.45 75.8 20.45 75.8 23.2 Q75.8 28.65 76.15 34.45 76.15 40.95 76.85 52.6 77.2 57.35 77.55 69.65 L79.6 80.25 81.65 89.5 Q82.35 92.55 83.4 95.3" fill="#272121" fill-rule="evenodd" stroke="none"/>
    <path d="M83.4 95.3 Q82.35 92.55 81.65 89.5 L79.6 80.25 77.55 69.65 Q77.2 57.35 76.85 52.6 76.15 40.95 76.15 34.45 75.8 28.65 75.8 23.2 L75.8 20.45 9.7 20.45 9.0 67.6 Q8.0 72.4 7.3 76.85 5.55 84.35 4.55 91.55 4.2 93.25 4.2 94.3 L3.5 98.05 Q24.15 107.25 39.3 103.5 L39.65 100.8 40.0 95.3 45.15 95.3 45.5 100.8 45.5 104.2 Q61.0 106.25 84.05 98.75 83.4 97.0 83.4 95.3 Z" fill="none" stroke="#000000" stroke-linecap="round" stroke-linejoin="round" stroke-width="6.0"/>
    <path d="M83.4 95.3 Q83.4 97.0 84.05 98.75 L77.2 100.8 Q61.7 104.9 50.0 104.55 L49.65 100.8 Q53.45 101.1 57.2 100.8 L59.6 100.8 Q68.25 100.1 75.8 98.05 76.15 97.7 76.85 97.35 79.95 96.7 83.4 95.3 M39.65 100.8 L39.3 103.5 34.85 104.55 Q24.15 105.55 11.1 100.8 7.3 99.75 3.5 98.05 L4.2 94.3 Q7.3 96.0 10.75 97.35 L13.85 98.75 17.6 99.4 Q26.2 101.8 35.2 100.8 L39.65 100.8 M9.0 52.6 L9.7 20.45 35.85 20.45 Q33.45 21.8 31.4 23.2 L23.8 29.0 23.8 29.35 Q21.4 31.4 20.05 33.75 17.95 36.15 15.2 40.6 L13.85 43.7 Q11.4 47.45 9.0 52.6 M51.7 20.45 L75.8 20.45 75.8 23.2 Q75.8 28.65 76.15 34.45 76.15 40.95 76.85 52.6 74.45 46.1 71.65 41.3 69.95 38.2 68.25 36.15 L67.2 34.8 62.4 29.35 59.3 26.25 Q57.2 24.9 55.5 23.2 L51.7 20.45" fill="#181212" fill-rule="evenodd" stroke="none"/>
    <path d="M81.65 89.5 Q82.35 92.55 83.4 95.3 79.95 96.7 76.85 97.35 76.15 97.7 75.8 98.05 75.45 98.05 75.45 97.7 75.1 97.35 75.1 94.95 75.1 92.55 76.5 90.5 77.85 88.8 79.6 88.8 80.65 88.8 81.65 89.5 M4.55 91.55 Q5.55 84.35 7.3 76.85 9.0 75.8 9.7 75.8 11.4 75.8 11.4 77.85 L10.75 82.0 Q10.75 83.7 12.1 86.1 12.45 86.4 12.45 86.75 14.15 89.85 14.15 90.85 14.15 92.25 12.45 93.6 L11.1 94.6 10.4 94.6 Q8.0 94.6 5.2 92.55 L4.55 91.55 M57.2 34.45 L62.4 38.2 Q62.4 39.95 61.0 40.95 59.6 41.65 57.2 41.65 L55.15 41.3 Q54.8 41.3 54.1 38.55 53.75 37.9 52.4 37.55 L57.2 34.45 M33.1 36.5 Q32.4 38.2 30.7 39.95 27.6 43.0 26.2 43.0 L20.05 42.3 18.3 42.0 18.3 40.95 18.65 39.95 Q19.0 39.25 19.0 38.55 L20.35 35.5 Q21.4 34.45 23.15 34.1 L25.9 33.1 26.55 34.8 Q26.9 35.15 27.95 35.15 L29.3 34.8 30.35 35.5 Q31.75 36.15 33.1 36.5 M13.15 53.6 L13.5 53.6 17.25 54.65 Q19.0 54.65 22.8 51.9 26.2 49.5 27.25 49.5 28.65 49.5 28.65 50.5 28.65 52.9 25.2 56.35 21.75 59.05 21.75 60.8 21.75 61.8 22.8 63.85 24.15 66.25 24.15 67.6 24.15 71.4 22.1 74.8 20.05 78.2 17.25 78.2 14.5 78.2 14.5 75.8 L14.85 72.75 Q15.55 70.0 15.55 68.65 15.55 64.55 13.5 62.15 L13.15 62.15 Q11.75 59.75 11.75 57.7 L11.75 56.7 12.1 56.35 12.8 54.3 12.8 53.95 Q12.8 53.6 13.15 53.6 M13.85 98.75 L13.85 98.05 Q16.6 97.35 16.95 93.6 17.95 89.85 19.0 87.8 L20.05 89.85 Q21.4 92.9 23.45 92.9 L27.6 93.25 Q29.3 93.95 29.3 96.7 29.3 99.4 23.15 99.4 L21.4 99.05 20.05 99.05 17.6 99.4 13.85 98.75 M34.85 88.8 L34.5 87.8 33.8 85.05 Q34.15 80.6 33.8 79.9 33.1 78.55 32.1 78.55 30.7 78.2 29.65 76.85 29.3 76.85 29.0 75.15 27.95 73.1 27.95 72.75 27.95 71.05 29.3 70.0 29.3 69.65 29.65 69.35 30.0 70.0 31.05 70.7 32.75 72.75 33.8 72.75 34.5 72.75 35.5 71.7 36.9 70.7 38.3 70.7 39.65 70.7 41.05 72.75 42.4 74.8 42.4 76.15 42.4 77.55 41.05 79.6 39.65 82.3 39.65 83.35 38.95 85.05 38.95 87.8 L37.95 89.5 36.55 89.85 Q35.5 89.85 34.85 88.8 M50.65 91.2 Q51.0 91.2 51.35 91.55 53.45 94.3 54.8 94.95 L58.95 96.35 Q60.3 97.0 60.3 98.75 60.3 100.1 59.6 100.8 L57.2 100.8 Q53.45 101.1 49.65 100.8 L48.25 92.9 50.65 91.2 M42.75 45.75 L47.9 45.05 Q50.65 43.7 51.7 43.7 53.45 43.7 54.8 44.7 56.5 45.4 56.5 47.45 56.5 49.15 52.75 50.2 48.95 50.85 48.95 53.25 48.95 56.0 46.55 59.4 44.15 62.5 42.4 62.5 39.65 62.5 36.55 58.4 33.8 54.95 33.1 51.9 L33.8 47.45 Q33.8 46.4 34.85 45.4 36.55 43.7 37.6 43.7 38.3 43.7 40.35 45.05 L42.75 45.75 M26.9 82.3 Q26.9 84.35 25.55 84.35 23.8 84.35 22.45 83.35 21.05 82.3 21.4 80.6 L22.1 80.6 Q24.15 79.25 25.2 79.6 26.9 80.6 26.9 82.3 M73.05 73.75 L71.0 74.1 Q67.9 74.1 64.8 70.35 62.05 66.25 60.3 66.25 58.95 66.25 57.2 66.95 55.85 67.6 54.45 67.6 53.45 67.6 52.05 66.6 50.35 65.55 50.35 63.85 50.35 62.15 53.1 60.1 55.5 58.05 55.5 56.0 55.15 52.9 55.5 52.6 56.5 51.9 59.6 50.5 L62.7 49.15 67.55 50.5 Q72.7 51.2 72.7 54.65 72.7 55.3 71.65 57.0 70.65 59.05 70.65 60.1 70.65 61.1 73.05 63.85 75.8 66.95 75.8 69.35 75.8 71.4 74.1 73.1 73.75 73.1 73.05 73.75 M51.7 79.9 Q51.7 78.2 55.15 74.8 58.25 71.4 59.95 71.4 61.35 71.4 63.05 73.1 65.15 74.8 65.15 76.85 L64.8 79.6 Q64.8 81.65 66.5 82.3 67.2 82.65 68.25 85.05 69.25 87.45 69.25 89.15 69.25 94.3 65.15 94.3 62.4 94.3 61.7 91.9 61.7 88.45 61.0 86.75 59.95 84.35 55.85 83.0 51.7 82.0 51.7 79.9" fill="#1e1e1e" fill-rule="evenodd" stroke="none"/>
    <path d="M35.85 20.45 L51.7 20.45 55.5 23.2 Q57.2 24.9 59.3 26.25 L62.4 29.35 59.95 32.4 57.2 34.45 52.4 37.55 Q51.35 38.2 50.0 38.2 46.2 39.6 43.1 39.6 40.35 39.6 36.55 38.2 34.85 37.55 33.1 36.5 31.75 36.15 30.35 35.5 L29.3 34.8 Q27.25 33.45 24.5 30.35 L23.8 29.35 23.8 29.0 31.4 23.2 Q33.45 21.8 35.85 20.45" fill="#a6a6a6" fill-rule="evenodd" stroke="none"/>
    <path d="M76.5 90.5 Q75.1 92.55 75.1 94.95 75.1 97.35 75.45 97.7 75.45 98.05 75.8 98.05 68.25 100.1 59.6 100.8 60.3 100.1 60.3 98.75 60.3 97.0 58.95 96.35 L54.8 94.95 Q53.45 94.3 51.35 91.55 51.0 91.2 50.65 91.2 L53.75 87.8 Q45.85 89.85 37.95 89.5 L38.95 87.8 Q38.95 85.05 39.65 83.35 39.65 82.3 41.05 79.6 42.4 77.55 42.4 76.15 42.4 74.8 41.05 72.75 39.65 70.7 38.3 70.7 36.9 70.7 35.5 71.7 34.5 72.75 33.8 72.75 32.75 72.75 31.05 70.7 30.0 70.0 29.65 69.35 29.3 69.65 29.3 70.0 27.95 71.05 27.95 72.75 27.95 73.1 29.0 75.15 29.3 76.85 29.65 76.85 30.7 78.2 32.1 78.55 33.1 78.55 33.8 79.9 34.15 80.6 33.8 85.05 L34.5 87.8 34.85 88.8 30.35 87.8 Q34.15 91.55 36.55 92.9 L35.2 100.8 Q26.2 101.8 17.6 99.4 L20.05 99.05 21.4 99.05 23.15 99.4 Q29.3 99.4 29.3 96.7 29.3 93.95 27.6 93.25 L23.45 92.9 Q21.4 92.9 20.05 89.85 L19.0 87.8 Q17.95 89.85 16.95 93.6 16.6 97.35 13.85 98.05 L13.85 98.75 10.75 97.35 10.75 96.35 Q10.75 95.3 11.1 94.6 L12.45 93.6 Q14.15 92.25 14.15 90.85 14.15 89.85 12.45 86.75 12.45 86.4 12.1 86.1 L12.8 84.05 Q14.15 76.5 14.15 74.45 13.5 69.0 13.15 62.15 L13.5 62.15 Q15.55 64.55 15.55 68.65 15.55 70.0 14.85 72.75 L14.5 75.8 Q14.5 78.2 17.25 78.2 20.05 78.2 22.1 74.8 24.15 71.4 24.15 67.6 24.15 66.25 22.8 63.85 21.75 61.8 21.75 60.8 21.75 59.05 25.2 56.35 28.65 52.9 28.65 50.5 28.65 49.5 27.25 49.5 26.2 49.5 22.8 51.9 19.0 54.65 17.25 54.65 L13.5 53.6 13.15 53.6 13.15 50.85 13.85 43.7 15.2 40.6 Q17.95 36.15 20.05 33.75 21.4 31.4 23.8 29.35 L24.5 30.35 Q27.25 33.45 29.3 34.8 L27.95 35.15 Q26.9 35.15 26.55 34.8 L25.9 33.1 23.15 34.1 Q21.4 34.45 20.35 35.5 L19.0 38.55 Q19.0 39.25 18.65 39.95 L18.3 40.95 18.3 42.0 20.05 42.3 26.2 43.0 Q27.6 43.0 30.7 39.95 32.4 38.2 33.1 36.5 34.85 37.55 36.55 38.2 40.35 39.6 43.1 39.6 46.2 39.6 50.0 38.2 51.35 38.2 52.4 37.55 53.75 37.9 54.1 38.55 54.8 41.3 55.15 41.3 L57.2 41.65 Q59.6 41.65 61.0 40.95 62.4 39.95 62.4 38.2 L57.2 34.45 59.95 32.4 62.4 29.35 67.2 34.8 68.25 36.15 Q69.95 38.2 71.65 41.3 72.0 43.7 72.7 47.1 73.4 51.2 73.4 55.65 L73.05 63.85 Q70.65 61.1 70.65 60.1 70.65 59.05 71.65 57.0 72.7 55.3 72.7 54.65 72.7 51.2 67.55 50.5 L62.7 49.15 59.6 50.5 Q56.5 51.9 55.5 52.6 55.15 52.9 55.5 56.0 55.5 58.05 53.1 60.1 50.35 62.15 50.35 63.85 50.35 65.55 52.05 66.6 53.45 67.6 54.45 67.6 55.85 67.6 57.2 66.95 58.95 66.25 60.3 66.25 62.05 66.25 64.8 70.35 67.9 74.1 71.0 74.1 L73.05 73.75 Q73.75 77.2 75.8 85.05 L76.5 90.5 M42.75 45.75 L40.35 45.05 Q38.3 43.7 37.6 43.7 36.55 43.7 34.85 45.4 33.8 46.4 33.8 47.45 L33.1 51.9 Q33.8 54.95 36.55 58.4 39.65 62.5 42.4 62.5 44.15 62.5 46.55 59.4 48.95 56.0 48.95 53.25 48.95 50.85 52.75 50.2 56.5 49.15 56.5 47.45 56.5 45.4 54.8 44.7 53.45 43.7 51.7 43.7 50.65 43.7 47.9 45.05 L42.75 45.75 M26.9 82.3 Q26.9 80.6 25.2 79.6 24.15 79.25 22.1 80.6 L21.4 80.6 Q21.05 82.3 22.45 83.35 23.8 84.35 25.55 84.35 26.9 84.35 26.9 82.3 M51.7 79.9 Q51.7 82.0 55.85 83.0 59.95 84.35 61.0 86.75 61.7 88.45 61.7 91.9 62.4 94.3 65.15 94.3 69.25 94.3 69.25 89.15 69.25 87.45 68.25 85.05 67.2 82.65 66.5 82.3 64.8 81.65 64.8 79.6 L65.15 76.85 Q65.15 74.8 63.05 73.1 61.35 71.4 59.95 71.4 58.25 71.4 55.15 74.8 51.7 78.2 51.7 79.9" fill="#ffffff" fill-rule="evenodd" stroke="none"/>
    <path d="M43.8 95.3 L40.0 95.3 39.65 100.8 35.2 100.8 36.55 92.9 Q34.15 91.55 30.35 87.8 L34.85 88.8 Q35.5 89.85 36.55 89.85 L37.95 89.5 Q45.85 89.85 53.75 87.8 L50.65 91.2 Q49.3 89.15 48.25 89.15 47.9 89.15 46.2 90.5 44.15 91.9 43.8 93.25 L43.8 95.3 M4.2 94.3 Q4.2 93.25 4.55 91.55 L5.2 92.55 Q8.0 94.6 10.4 94.6 L11.1 94.6 Q10.75 95.3 10.75 96.35 L10.75 97.35 Q7.3 96.0 4.2 94.3 M7.3 76.85 Q8.0 72.4 9.0 67.6 L9.0 52.6 Q11.4 47.45 13.85 43.7 L13.15 50.85 13.15 53.6 Q12.8 53.6 12.8 53.95 L12.8 54.3 12.1 56.35 11.75 56.7 11.75 57.7 Q11.75 59.75 13.15 62.15 13.5 69.0 14.15 74.45 14.15 76.5 12.8 84.05 L12.1 86.1 Q10.75 83.7 10.75 82.0 L11.4 77.85 Q11.4 75.8 9.7 75.8 9.0 75.8 7.3 76.85 M76.85 52.6 Q76.85 57.35 77.55 69.65 L79.6 80.25 81.65 89.5 Q80.65 88.8 79.6 88.8 77.85 88.8 76.5 90.5 L75.8 85.05 Q73.75 77.2 73.05 73.75 73.75 73.1 74.1 73.1 75.8 71.4 75.8 69.35 75.8 66.95 73.05 63.85 L73.4 55.65 Q73.4 51.2 72.7 47.1 72.0 43.7 71.65 41.3 74.45 46.1 76.85 52.6" fill="#989696" fill-rule="evenodd" stroke="none"/>
    <path d="M45.5 100.8 L45.15 95.3 43.8 95.3 43.8 93.25 Q44.15 91.9 46.2 90.5 47.9 89.15 48.25 89.15 49.3 89.15 50.65 91.2 L48.25 92.9 49.65 100.8 45.5 100.8" fill="#0b0b0b" fill-rule="evenodd" stroke="none"/>
    <path d="M50.0 104.55 L45.5 104.2 45.5 100.8 49.65 100.8 50.0 104.55" fill="#000000" fill-rule="evenodd" stroke="none"/>
    <path d="M42.4 39.6 L44.45 39.6 44.15 97.0 41.05 97.0 42.4 39.6" fill="#181212" fill-rule="evenodd" stroke="none"/>
    <path d="M56.85 39.2 Q50.3 43.6 41.35 42.6 26.2 40.9 18.95 23.8 L16.2 16.95 22.05 16.95 Q24.15 24.5 28.6 29.6 32.75 34.05 37.2 35.4 L43.75 37.15 49.95 36.1 Q54.1 35.4 58.55 30.65 62.7 25.85 65.8 16.95 L71.3 16.95 70.25 19.0 Q67.5 26.2 66.15 28.9 62.35 35.75 56.85 39.2" fill="#181212" fill-rule="evenodd" stroke="none"/>
  </g>
</svg>
