<?xml version="1.0" encoding="UTF-8" standalone="no"?>
<svg xmlns:xlink="http://www.w3.org/1999/xlink" height="89.0px" width="84.95px" xmlns="http://www.w3.org/2000/svg">
  <g transform="matrix(1.0, 0.0, 0.0, 1.0, -2.0, -18.8)">
    <path d="M81.6 89.9 Q81.6 90.25 81.9 90.25 82.25 92.9 83.25 95.6 83.25 97.3 83.95 98.6 79.2 100.25 74.5 101.3 60.7 104.95 50.2 104.6 L46.2 104.3 46.2 100.95 46.2 95.6 40.75 95.6 40.4 100.6 40.1 103.65 35.05 104.6 Q25.3 105.3 12.8 101.3 L5.0 98.25 5.7 94.6 6.4 91.9 6.4 90.25 Q7.4 84.2 8.75 77.85 8.75 76.5 9.1 75.15 L10.45 68.85 11.1 21.95 75.85 21.95 Q75.85 23.65 76.15 24.95 L76.15 36.3 Q76.15 41.0 76.5 48.7 76.85 51.05 76.85 53.75 76.85 57.1 77.5 64.5 77.5 67.1 77.85 70.5 77.85 72.5 78.55 74.5 L79.55 80.9 81.6 89.9" fill="#8c8383" fill-rule="evenodd" stroke="none"/>
    <path d="M81.6 89.9 L79.55 80.9 78.55 74.5 Q77.85 72.5 77.85 70.5 77.5 67.1 77.5 64.5 76.85 57.1 76.85 53.75 76.85 51.05 76.5 48.7 76.15 41.0 76.15 36.3 L76.15 24.95 Q75.85 23.65 75.85 21.95 L11.1 21.95 10.45 68.85 9.1 75.15 Q8.75 76.5 8.75 77.85 7.4 84.2 6.4 90.25 L6.4 91.9 5.7 94.6 5.0 98.25 12.8 101.3 Q25.3 105.3 35.05 104.6 L40.1 103.65 40.4 100.6 40.75 95.6 46.2 95.6 46.2 100.95 46.2 104.3 50.2 104.6 Q60.7 104.95 74.5 101.3 79.2 100.25 83.95 98.6 83.25 97.3 83.25 95.6 82.25 92.9 81.9 90.25 81.6 90.25 81.6 89.9 Z" fill="none" stroke="#000000" stroke-linecap="round" stroke-linejoin="round" stroke-width="6.0"/>
    <path d="M78.55 77.55 L79.55 83.9 Q80.9 88.6 81.6 92.95 L81.9 93.6 83.25 98.65 83.95 101.95 74.5 104.65 Q77.2 95.95 73.45 79.2 76.15 78.55 78.55 77.55 M12.8 104.65 Q9.1 103.0 5.0 101.35 L5.7 97.6 6.4 94.95 Q6.4 94.3 6.75 93.6 7.4 87.25 8.75 80.9 8.75 79.55 9.1 78.25 L14.45 79.2 Q11.1 94.3 12.8 104.65" fill="#1e1818" fill-rule="evenodd" stroke="none"/>
    <path d="M10.75 67.85 L11.45 25.35 12.8 25.35 Q12.1 45.4 16.5 59.15 17.85 62.15 21.55 64.8 24.6 67.15 28.3 68.55 L35.35 71.2 Q23.25 70.2 10.75 67.85 M74.5 25.35 L76.15 25.35 76.15 28.35 76.15 39.4 76.85 52.15 76.85 56.8 77.5 67.85 Q66.4 70.2 54.6 70.85 56.95 69.85 60.7 67.85 64.0 65.5 66.75 62.45 69.8 59.15 70.45 55.8 74.15 42.05 74.5 25.35" fill="#a2a2a2" fill-rule="evenodd" stroke="none"/>
    <path d="M12.8 25.35 L74.5 25.35 Q74.15 42.05 70.45 55.8 69.8 59.15 66.75 62.45 64.0 65.5 60.7 67.85 56.95 69.85 54.6 70.85 45.15 71.85 35.35 71.2 L28.3 68.55 Q24.6 67.15 21.55 64.8 17.85 62.15 16.5 59.15 12.1 45.4 12.8 25.35" fill="#c8c8c8" fill-rule="evenodd" stroke="none"/>
    <path d="M78.55 77.55 Q76.15 78.55 73.45 79.2 46.5 85.25 14.45 79.2 L9.1 78.25 10.45 71.85 10.75 67.85 Q23.25 70.2 35.35 71.2 45.15 71.85 54.6 70.85 66.4 70.2 77.5 67.85 77.5 70.2 77.85 73.85 L78.55 77.55" fill="#000000" fill-rule="evenodd" stroke="none"/>
    <path d="M50.2 107.7 L46.2 107.35 46.2 104.0 46.2 98.65 41.1 98.65 40.4 103.65 40.4 106.65 35.05 107.7 36.75 97.95 Q34.4 96.65 31.35 93.6 44.15 96.3 54.6 92.95 52.55 96.65 48.9 98.65 L50.2 107.7" fill="#191414" fill-rule="evenodd" stroke="none"/>
    <path d="M73.45 79.2 Q77.2 95.95 74.5 104.65 61.0 108.0 50.2 107.7 L48.9 98.65 Q52.55 96.65 54.6 92.95 44.15 96.3 31.35 93.6 34.4 96.65 36.75 97.95 L35.05 107.7 Q25.3 108.35 12.8 104.65 11.1 94.3 14.45 79.2 46.5 85.25 73.45 79.2" fill="#272121" fill-rule="evenodd" stroke="none"/>
    <path d="M23.45 24.85 L23.45 71.85 14.35 71.85 14.35 24.85 23.45 24.85" fill="#000000" fill-rule="evenodd" stroke="none"/>
    <path d="M70.4 23.3 L70.4 72.65 61.15 72.65 61.15 23.3 70.4 23.3" fill="#000000" fill-rule="evenodd" stroke="none"/>
    <path d="M41.3 47.5 Q40.95 47.45 39.9 46.65 28.7 36.9 23.4 25.25 31.65 31.6 42.75 31.6 49.1 31.6 54.9 28.1 L59.65 24.55 Q56.45 30.95 52.8 36.2 48.0 43.0 42.6 47.1 L41.4 47.65 41.3 47.5" fill="#ccc7c1" fill-rule="evenodd" stroke="none"/>
    <path d="M19.65 20.2 L19.85 21.85 19.9 22.2 Q20.45 25.8 22.3 29.95 24.6 35.35 27.75 39.3 L33.2 45.65 36.25 48.6 Q37.1 49.3 37.1 48.8 37.1 48.4 37.7 48.8 36.75 49.45 35.75 50.4 33.55 52.5 29.5 58.25 29.0 59.1 28.1 58.6 27.25 58.25 26.55 57.4 15.25 40.75 15.6 24.95 L15.6 24.85 19.65 20.2 M62.95 20.4 L68.3 25.3 Q70.0 26.3 68.55 32.25 64.2 47.0 54.35 58.45 52.65 59.75 50.9 57.2 47.35 51.45 45.0 49.65 51.5 45.3 55.9 36.6 L61.4 25.6 62.8 21.5 62.85 21.45 62.95 20.4" fill="#eeedec" fill-rule="evenodd" stroke="none"/>
    <path d="M19.65 20.2 L20.9 18.8 Q21.95 22.1 23.4 25.25 28.7 36.9 39.9 46.65 40.95 47.45 41.3 47.5 L41.3 47.65 Q39.55 47.65 37.7 48.8 37.1 48.4 37.1 48.8 37.1 49.3 36.25 48.6 L33.2 45.65 27.75 39.3 Q24.6 35.35 22.3 29.95 20.45 25.8 19.9 22.2 L19.85 21.85 19.65 20.2 M61.95 19.5 L62.95 20.4 62.85 21.45 62.8 21.5 61.4 25.6 55.9 36.6 Q51.5 45.3 45.0 49.65 42.9 48.0 41.4 47.65 L42.6 47.1 Q48.0 43.0 52.8 36.2 56.45 30.95 59.65 24.55 L61.95 19.5" fill="#ffffff" fill-rule="evenodd" stroke="none"/>
    <path d="M23.4 25.25 Q21.95 22.1 20.9 18.8 L61.9 19.4 61.95 19.5 59.65 24.55 54.9 28.1 Q49.1 31.6 42.75 31.6 31.65 31.6 23.4 25.25" fill="#a6a29e" fill-rule="evenodd" stroke="none"/>
    <path d="M58.75 53.55 L58.65 54.5 57.65 58.55 Q56.3 62.6 53.0 60.35 L44.85 53.95 Q44.1 52.45 44.5 50.7 L44.6 50.15 Q45.9 50.15 47.45 49.5 L49.65 48.5 50.9 47.95 52.35 47.15 Q53.35 46.45 53.75 46.3 54.4 45.9 55.0 45.9 56.2 45.9 56.85 46.9 L57.95 49.35 Q58.45 50.3 58.6 51.85 L58.75 53.55" fill="#14131b" fill-rule="evenodd" stroke="none"/>
    <path d="M24.05 52.8 Q24.2 50.45 25.1 48.7 26.45 46.1 28.85 46.1 29.65 46.1 33.6 48.25 37.6 50.45 39.75 50.45 L39.85 50.45 39.9 50.7 Q40.3 52.9 39.75 54.05 L29.35 60.9 Q28.1 61.95 26.95 60.7 24.4 56.4 24.05 52.8" fill="#0b0f10" fill-rule="evenodd" stroke="none"/>
    <path d="M39.85 50.45 L39.55 49.45 Q41.75 47.65 44.85 49.15 L44.6 50.15 44.5 50.7 43.7 51.05 41.8 51.35 Q40.65 51.35 39.9 50.7 L39.85 50.45" fill="#2b2b23" fill-rule="evenodd" stroke="none"/>
    <path d="M44.85 53.95 Q42.15 55.2 39.75 54.05 40.3 52.9 39.9 50.7 40.65 51.35 41.8 51.35 L43.7 51.05 44.5 50.7 Q44.1 52.45 44.85 53.95" fill="#0b0a08" fill-rule="evenodd" stroke="none"/>
    <path d="M24.05 52.8 Q23.7 50.1 24.95 47.15 26.25 44.15 27.8 44.1 29.1 44.05 34.45 46.8 L39.55 49.45 39.85 50.45 39.75 50.45 Q37.6 50.45 33.6 48.25 29.65 46.1 28.85 46.1 26.45 46.1 25.1 48.7 24.2 50.45 24.05 52.8 M44.85 49.15 L54.8 43.8 Q57.75 42.1 58.55 46.8 59.15 50.15 58.75 53.55 L58.6 51.85 Q58.45 50.3 57.95 49.35 L56.85 46.9 Q56.2 45.9 55.0 45.9 54.4 45.9 53.75 46.3 53.35 46.45 52.35 47.15 L50.9 47.95 49.65 48.5 47.45 49.5 Q45.9 50.15 44.6 50.15 L44.85 49.15" fill="#4d4d4a" fill-rule="evenodd" stroke="none"/>
    <path d="M44.5 58.8 Q45.15 58.8 45.5 59.45 46.2 59.8 46.2 60.45 46.2 61.15 45.5 61.85 45.15 62.45 44.5 62.45 43.45 62.45 43.15 61.85 42.45 61.15 42.45 60.45 42.45 59.8 43.15 59.45 43.45 58.8 44.5 58.8" fill="#000000" fill-rule="evenodd" stroke="none"/>
    <path d="M44.5 58.8 Q45.15 58.8 45.5 59.45 46.2 59.8 46.2 60.45 46.2 61.15 45.5 61.85 45.15 62.45 44.5 62.45 43.45 62.45 43.15 61.85 42.45 61.15 42.45 60.45 42.45 59.8 43.15 59.45 43.45 58.8 44.5 58.8 Z" fill="none" stroke="#4d4d4a" stroke-linecap="round" stroke-linejoin="round" stroke-width="0.5"/>
    <path d="M44.15 66.2 Q44.8 66.2 45.15 66.55 45.85 67.15 45.85 67.85 45.85 68.55 45.15 69.15 44.8 69.85 44.15 69.85 43.45 69.85 42.8 69.15 42.15 68.55 42.15 67.85 42.15 67.15 42.8 66.55 43.45 66.2 44.15 66.2" fill="#000000" fill-rule="evenodd" stroke="none"/>
    <path d="M44.15 66.2 Q44.8 66.2 45.15 66.55 45.85 67.15 45.85 67.85 45.85 68.55 45.15 69.15 44.8 69.85 44.15 69.85 43.45 69.85 42.8 69.15 42.15 68.55 42.15 67.85 42.15 67.15 42.8 66.55 43.45 66.2 44.15 66.2 Z" fill="none" stroke="#4d4d4a" stroke-linecap="round" stroke-linejoin="round" stroke-width="0.5"/>
  </g>
</svg>
