<?xml version="1.0" encoding="UTF-8" standalone="no"?>
<svg xmlns:xlink="http://www.w3.org/1999/xlink" height="88.3px" width="90.55px" xmlns="http://www.w3.org/2000/svg">
  <g transform="matrix(1.0, 0.0, 0.0, 1.0, 3.55, -21.1)">
    <path d="M82.3 34.7 L80.25 34.7 76.8 34.0 75.4 36.4 75.4 37.4 75.4 38.1 75.4 39.45 Q75.4 42.9 75.75 47.0 L75.75 49.7 Q76.1 51.1 76.1 53.15 L79.2 53.5 76.1 56.2 Q76.1 57.95 76.45 59.65 L76.45 60.65 76.45 64.1 Q76.45 64.75 76.8 65.45 L76.8 66.15 76.8 69.2 76.8 70.6 Q77.5 70.25 78.15 70.25 78.15 71.6 78.5 73.3 L78.5 76.05 79.2 78.45 79.2 80.15 79.55 81.5 Q79.2 81.5 78.85 81.85 L79.2 81.85 Q79.9 87.0 80.95 91.1 L80.95 91.75 Q81.6 94.85 82.65 97.25 82.65 98.95 83.0 100.3 80.95 101.35 78.5 102.05 L75.4 102.7 74.75 103.05 Q74.05 103.05 73.7 103.4 59.6 106.8 48.9 106.15 L44.75 106.15 44.75 102.7 44.75 97.25 39.25 97.25 38.9 102.35 38.55 105.8 34.8 106.15 33.05 106.15 Q24.1 107.15 12.75 104.1 L12.05 103.4 10.7 103.05 8.6 102.35 Q5.5 101.35 3.1 100.0 3.1 98.25 3.45 96.55 3.45 95.55 3.8 94.85 3.1 94.85 2.4 95.2 L5.5 80.5 Q5.5 79.8 5.85 78.8 6.2 76.4 6.9 74.0 L6.9 70.25 8.3 70.6 8.3 69.9 8.6 56.2 Q8.3 55.9 8.3 55.55 4.5 45.3 3.1 34.0 L1.05 34.7 Q1.05 34.0 0.35 32.95 -0.35 31.6 -0.35 30.25 -0.7 29.9 -0.35 29.2 L0.35 27.85 8.6 26.15 8.6 24.1 75.05 24.1 Q75.05 24.75 75.4 25.1 L80.6 25.1 79.55 27.15 83.0 27.85 Q83.7 28.55 83.7 29.2 L84.0 31.25 Q83.7 32.95 82.3 34.7 M5.85 34.0 L4.85 34.0 Q6.55 44.95 8.6 51.45 L8.6 43.55 Q6.55 39.45 5.85 34.0 M8.3 33.65 Q8.3 35.0 8.6 36.75 L8.6 33.3 8.3 33.65" fill="#6d6060" fill-rule="evenodd" stroke="none"/>
    <path d="M82.3 34.7 L80.25 34.7 76.8 34.0 75.4 36.4 75.4 37.4 75.4 38.1 75.4 39.45 Q75.4 42.9 75.75 47.0 L75.75 49.7 Q76.1 51.1 76.1 53.15 L79.2 53.5 76.1 56.2 Q76.1 57.95 76.45 59.65 L76.45 60.65 76.45 64.1 Q76.45 64.75 76.8 65.45 L76.8 66.15 76.8 69.2 76.8 70.6 Q77.5 70.25 78.15 70.25 78.15 71.6 78.5 73.3 L78.5 76.05 79.2 78.45 79.2 80.15 79.55 81.5 Q79.2 81.5 78.85 81.85 L79.2 81.85 Q79.9 87.0 80.95 91.1 L80.95 91.75 Q81.6 94.85 82.65 97.25 82.65 98.95 83.0 100.3 80.95 101.35 78.5 102.05 L75.4 102.7 74.75 103.05 Q74.05 103.05 73.7 103.4 59.6 106.8 48.9 106.15 L44.75 106.15 44.75 102.7 44.75 97.25 39.25 97.25 38.9 102.35 38.55 105.8 34.8 106.15 33.05 106.15 Q24.1 107.15 12.75 104.1 L12.05 103.4 10.7 103.05 8.6 102.35 Q5.5 101.35 3.1 100.0 3.1 98.25 3.45 96.55 3.45 95.55 3.8 94.85 3.1 94.85 2.4 95.2 L5.5 80.5 Q5.5 79.8 5.85 78.8 6.2 76.4 6.9 74.0 L6.9 70.25 8.3 70.6 8.3 69.9 8.6 56.2 Q8.3 55.9 8.3 55.55 4.5 45.3 3.1 34.0 L1.05 34.7 Q1.05 34.0 0.35 32.95 -0.35 31.6 -0.35 30.25 -0.7 29.9 -0.35 29.2 L0.35 27.85 8.6 26.15 8.6 24.1 75.05 24.1 Q75.05 24.75 75.4 25.1 L80.6 25.1 79.55 27.15 83.0 27.85 Q83.7 28.55 83.7 29.2 L84.0 31.25 Q83.7 32.95 82.3 34.7 Z" fill="none" stroke="#000000" stroke-linecap="round" stroke-linejoin="round" stroke-width="6.0"/>
    <path d="M73.35 24.0 L75.4 24.0 75.4 25.05 75.4 28.1 75.4 28.45 75.4 36.3 75.4 37.0 75.4 39.4 73.35 40.1 Q70.25 41.45 62.35 43.85 56.8 45.55 43.75 51.35 39.25 51.35 10.0 37.0 L8.6 37.0 8.6 24.0 11.7 24.0 Q19.3 31.55 38.9 35.3 57.5 35.65 73.35 24.0" fill="#8c8383" fill-rule="evenodd" stroke="none"/>
    <path d="M8.6 37.0 L10.0 37.0 Q39.25 51.35 43.75 51.35 56.8 45.55 62.35 43.85 70.25 41.45 73.35 40.1 L75.4 39.4 Q75.4 42.5 75.75 46.9 L75.75 49.65 Q76.1 51.7 76.1 54.45 76.1 56.15 76.45 59.25 L76.45 59.55 76.45 60.6 76.45 64.0 Q76.45 64.7 76.8 65.4 L76.8 66.05 76.8 69.15 76.8 71.55 77.15 73.95 77.85 75.65 Q76.1 76.0 74.4 76.65 L71.65 77.35 70.6 77.7 61.3 80.1 Q50.95 83.15 49.25 86.25 37.9 88.95 37.2 86.6 36.5 83.85 35.15 82.15 33.75 80.4 28.95 79.05 L20.65 76.3 Q19.3 75.65 17.55 75.65 L16.55 75.65 12.75 75.3 6.9 75.3 Q6.9 74.95 7.25 74.25 7.6 71.9 8.3 69.85 L8.6 37.0" fill="#2a2929" fill-rule="evenodd" stroke="none"/>
    <path d="M73.35 24.0 Q57.5 35.65 38.9 35.3 19.3 31.55 11.7 24.0 L73.35 24.0" fill="#6b6262" fill-rule="evenodd" stroke="none"/>
    <path d="M78.5 101.95 L75.4 102.65 Q75.4 89.65 70.6 77.7 L71.65 77.35 74.4 76.65 Q78.15 90.0 78.5 101.95 M12.05 103.35 L10.7 103.0 Q9.65 102.65 8.6 101.95 8.3 94.1 12.75 75.3 L16.55 75.65 Q11.7 94.1 12.05 103.35" fill="#c48019" fill-rule="evenodd" stroke="none"/>
    <path d="M75.4 102.65 L74.75 103.0 73.7 103.35 Q59.6 107.1 48.9 106.4 L47.55 98.9 Q50.3 97.85 52.0 93.05 41.65 95.8 31.0 93.05 33.75 98.9 36.15 98.9 L34.8 106.05 33.05 106.4 Q24.1 107.1 12.75 103.65 12.4 103.35 12.05 103.35 11.7 94.1 16.55 75.65 L17.55 75.65 Q19.3 75.65 20.65 76.3 L28.95 79.05 Q33.75 80.4 35.15 82.15 36.5 83.85 37.2 86.6 37.9 88.95 49.25 86.25 50.95 83.15 61.3 80.1 L70.6 77.7 Q75.4 89.65 75.4 102.65" fill="#585151" fill-rule="evenodd" stroke="none"/>
    <path d="M77.85 75.65 L77.85 77.0 79.2 82.15 Q79.9 86.6 80.95 90.7 L80.95 91.0 80.95 92.05 82.65 97.15 Q82.65 98.9 83.35 100.25 80.95 101.3 78.5 101.95 78.15 90.0 74.4 76.65 76.1 76.0 77.85 75.65 M48.9 106.4 L44.75 106.05 44.75 102.65 44.45 97.15 39.25 97.15 38.9 102.3 38.55 105.05 34.8 106.05 36.15 98.9 Q33.75 98.9 31.0 93.05 41.65 95.8 52.0 93.05 50.3 97.85 47.55 98.9 L48.9 106.4 M8.6 101.95 Q5.85 101.3 3.1 99.55 3.1 97.85 3.45 96.15 L3.8 93.4 4.15 92.05 Q4.15 91.35 4.5 90.7 5.2 84.85 6.55 79.05 L6.55 77.35 Q6.55 76.65 6.9 76.3 L6.9 75.3 12.75 75.3 Q8.3 94.1 8.6 101.95" fill="#333030" fill-rule="evenodd" stroke="none"/>
    <path d="M34.1 73.6 Q34.45 70.5 38.9 69.85 L51.3 73.6 51.3 77.35 51.3 85.9 37.9 88.65 Q34.45 88.65 33.4 85.9 L34.1 77.35 34.1 73.6 M37.55 83.15 Q37.9 85.55 40.3 84.85 L48.2 83.15 48.2 77.0 39.95 73.95 Q37.55 73.95 37.55 76.3 L37.55 83.15" fill="#ffe2aa" fill-rule="evenodd" stroke="none"/>
    <path d="M34.1 73.6 L34.1 77.35 Q20.65 77.0 6.9 73.25 L6.9 70.15 Q20.35 72.9 34.1 73.6 M51.3 77.35 L51.3 73.6 Q64.75 72.55 78.15 69.85 78.5 71.55 78.5 73.25 65.8 77.0 51.3 77.35" fill="#fac560" fill-rule="evenodd" stroke="none"/>
    <path d="M34.1 77.35 L33.4 85.9 Q19.65 84.85 5.2 81.45 L5.5 80.75 5.85 78.7 6.9 73.95 6.9 73.25 Q20.65 77.0 34.1 77.35 M51.3 85.9 L51.3 77.35 Q65.8 77.0 78.5 73.25 L78.5 75.65 Q79.2 77.0 79.2 78.05 79.2 79.4 79.55 80.1 L79.55 81.1 Q65.1 84.85 51.3 85.9" fill="#e9a31b" fill-rule="evenodd" stroke="none"/>
    <path d="M52.7 57.2 L51.3 57.5 50.95 57.5 49.25 57.2 Q48.55 56.15 48.55 55.45 48.55 54.1 49.25 53.4 49.95 53.05 50.95 53.05 L51.3 53.05 52.7 53.4 Q53.05 54.1 53.05 55.45 L52.7 57.2" fill="#f7b638" fill-rule="evenodd" stroke="none"/>
    <path d="M52.7 57.2 L51.3 57.5 50.95 57.5 49.25 57.2 Q48.55 56.15 48.55 55.45 48.55 54.1 49.25 53.4 49.95 53.05 50.95 53.05 L51.3 53.05 52.7 53.4 Q53.05 54.1 53.05 55.45 L52.7 57.2 Z" fill="none" stroke="#fac560" stroke-linecap="round" stroke-linejoin="round" stroke-width="0.5"/>
    <path d="M51.3 61.6 L52.7 62.3 Q53.05 63.0 53.05 64.0 53.05 65.05 52.7 65.7 52.0 66.4 51.3 66.4 L50.95 66.4 Q49.95 66.4 49.25 65.7 48.55 65.05 48.55 64.0 48.55 63.0 49.25 62.3 49.95 61.6 50.95 61.6 L51.3 61.6" fill="#f7b638" fill-rule="evenodd" stroke="none"/>
    <path d="M51.3 61.6 L52.7 62.3 Q53.05 63.0 53.05 64.0 53.05 65.05 52.7 65.7 52.0 66.4 51.3 66.4 L50.95 66.4 Q49.95 66.4 49.25 65.7 48.55 65.05 48.55 64.0 48.55 63.0 49.25 62.3 49.95 61.6 50.95 61.6 L51.3 61.6 Z" fill="none" stroke="#fac560" stroke-linecap="round" stroke-linejoin="round" stroke-width="0.5"/>
    <path d="M36.5 61.6 Q36.85 61.6 37.55 62.3 38.25 62.65 38.25 64.0 38.25 65.05 37.55 65.7 L36.5 66.4 35.8 66.4 Q34.8 66.4 34.1 65.7 33.05 65.05 33.05 64.0 33.05 62.65 34.1 62.3 34.8 61.3 35.8 61.3 36.15 61.3 36.5 61.6" fill="#f7b638" fill-rule="evenodd" stroke="none"/>
    <path d="M36.5 61.6 Q36.85 61.6 37.55 62.3 38.25 62.65 38.25 64.0 38.25 65.05 37.55 65.7 L36.5 66.4 35.8 66.4 Q34.8 66.4 34.1 65.7 33.05 65.05 33.05 64.0 33.05 62.65 34.1 62.3 34.8 61.3 35.8 61.3 36.15 61.3 36.5 61.6 Z" fill="none" stroke="#fac560" stroke-linecap="round" stroke-linejoin="round" stroke-width="0.5"/>
    <path d="M36.5 53.05 Q36.85 53.05 37.55 53.4 38.25 54.1 38.25 55.45 38.25 56.15 37.55 57.2 36.85 57.2 36.5 57.5 L35.8 57.5 34.1 57.2 Q33.4 56.15 33.4 55.45 33.4 54.1 34.1 53.4 L35.8 53.05 36.5 53.05" fill="#f7b638" fill-rule="evenodd" stroke="none"/>
    <path d="M36.5 53.05 Q36.85 53.05 37.55 53.4 38.25 54.1 38.25 55.45 38.25 56.15 37.55 57.2 36.85 57.2 36.5 57.5 L35.8 57.5 34.1 57.2 Q33.4 56.15 33.4 55.45 33.4 54.1 34.1 53.4 L35.8 53.05 36.5 53.05 Z" fill="none" stroke="#fac560" stroke-linecap="round" stroke-linejoin="round" stroke-width="0.5"/>
    <path d="M69.9 27.8 L74.4 26.05 75.05 26.05 83.0 27.8 Q83.7 28.1 84.0 29.15 L84.0 31.2 Q83.7 32.9 82.3 34.6 L80.25 34.6 76.45 33.6 76.1 33.6 75.4 33.25 69.9 31.9 69.9 27.8 M3.1 33.6 L1.05 34.6 Q1.05 33.6 0.35 32.9 -0.35 31.55 -0.35 30.15 -0.7 29.5 -0.35 29.15 L0.35 27.45 8.95 26.05 13.8 27.8 13.8 31.55 8.95 33.25 8.6 33.25 7.95 33.25 5.85 33.6 4.85 33.6 3.1 33.6" fill="#e98c1b" fill-rule="evenodd" stroke="none"/>
    <path d="M69.9 40.1 L44.75 49.65 44.75 72.55 41.65 72.55 41.65 50.0 32.7 46.9 31.7 46.6 28.95 45.9 27.2 45.2 13.8 40.75 13.8 31.55 33.05 38.7 Q36.5 40.75 38.55 42.8 40.65 44.85 41.35 47.95 L41.65 50.0 43.05 50.0 44.75 49.65 44.75 47.95 Q45.8 43.85 49.6 41.1 54.75 37.35 69.9 31.9 L69.9 40.1" fill="#f7b638" fill-rule="evenodd" stroke="none"/>
    <path d="M13.8 27.8 L34.8 35.3 Q37.2 35.65 38.55 37.0 42.0 39.75 43.05 44.85 43.4 41.8 45.8 38.7 47.85 36.0 49.95 35.3 L67.15 29.15 69.9 27.8 69.9 31.9 Q54.75 37.35 49.6 41.1 45.8 43.85 44.75 47.95 L44.75 49.65 43.05 50.0 41.65 50.0 41.35 47.95 Q40.65 44.85 38.55 42.8 36.5 40.75 33.05 38.7 L13.8 31.55 13.8 27.8" fill="#fadc7e" fill-rule="evenodd" stroke="none"/>
    <path d="M75.4 33.25 L75.4 35.65 75.4 38.05 69.9 40.1 69.9 31.9 75.4 33.25 M13.8 31.55 L13.8 40.75 9.65 39.4 8.6 37.0 8.6 33.25 8.95 33.25 13.8 31.55" fill="#2a2929" fill-rule="evenodd" stroke="none"/>
    <path d="M32.7 46.9 Q31.7 55.15 28.25 60.25 24.8 66.05 19.3 66.05 12.05 66.05 8.3 55.45 4.5 45.2 3.1 33.6 L4.85 33.6 Q7.25 48.3 10.0 55.15 13.8 64.35 19.3 64.35 22.4 64.35 25.15 61.3 L28.6 55.8 Q30.65 52.4 31.7 46.6 L32.7 46.9 M27.2 45.2 L28.95 45.9 Q27.55 49.3 25.15 51.35 22.75 53.05 20.35 53.05 15.85 53.4 11.7 47.95 6.9 42.15 5.85 33.6 L7.95 33.25 8.6 37.0 9.65 39.4 Q10.35 41.45 11.7 43.5 13.8 46.9 15.5 48.3 17.55 50.35 20.0 50.35 24.1 50.35 27.2 45.2" fill="#d27300" fill-rule="evenodd" stroke="none"/>
    <path d="M1.15 93.0 L2.7 85.0 Q25.45 79.0 43.25 61.45 61.05 42.6 66.95 26.2 L75.15 26.2 Q62.1 57.7 37.85 75.1 26.25 83.4 18.4 87.15 11.4 90.5 1.15 93.0" fill="#c41919" fill-rule="evenodd" stroke="none"/>
    <path d="M75.15 26.2 L78.75 26.2 Q55.2 83.4 0.55 96.3 L1.15 93.0 Q11.4 90.5 18.4 87.15 26.25 83.4 37.85 75.1 62.1 57.7 75.15 26.2 M2.7 85.0 L3.6 81.6 Q41.6 72.6 63.55 26.2 L66.95 26.2 Q61.05 42.6 43.25 61.45 25.45 79.0 2.7 85.0" fill="#6b0000" fill-rule="evenodd" stroke="none"/>
    <path d="M70.75 59.65 L72.4 68.6 63.8 64.35 55.2 68.6 56.85 59.65 49.9 53.25 59.5 51.95 64.05 44.05 68.1 51.95 77.75 53.25 70.75 59.65" fill="url(#gradient0)" fill-rule="evenodd" stroke="none"/>
    <path d="M76.0 54.65 L70.05 60.2 71.45 67.9 64.05 64.25 56.65 67.9 58.05 60.2 52.05 54.65 60.35 53.55 64.05 46.45 67.75 53.55 76.0 54.65" fill="#ffe758" fill-rule="evenodd" stroke="none"/>
    <path d="M57.8 59.6 L51.8 54.1 63.2 57.5 57.8 59.6" fill="#f2a500" fill-rule="evenodd" stroke="none"/>
    <path d="M75.75 54.1 L69.8 59.6 65.2 57.5 75.75 54.1" fill="#f2a500" fill-rule="evenodd" stroke="none"/>
    <path d="M64.2 63.85 L56.35 67.35 63.8 57.95 71.2 67.35 64.2 63.85" fill="#d27300" fill-rule="evenodd" stroke="none"/>
    <path d="M64.5 45.55 L68.2 52.6 64.5 56.3 64.5 45.55" fill="#f2a500" fill-rule="evenodd" stroke="none"/>
  </g>
  <defs>
    <radialGradient cx="0" cy="0" gradientTransform="matrix(0.0239, 0.0, 0.0, -0.0225, 64.3, 52.1)" gradientUnits="userSpaceOnUse" id="gradient0" r="819.2" spreadMethod="pad">
      <stop offset="0.0" stop-color="#de8500"/>
      <stop offset="1.0" stop-color="#833900"/>
    </radialGradient>
  </defs>
</svg>
