<?xml version="1.0" encoding="UTF-8" standalone="no"?>
<svg xmlns:xlink="http://www.w3.org/1999/xlink" height="90.6px" width="94.1px" xmlns="http://www.w3.org/2000/svg">
  <g transform="matrix(1.0, 0.0, 0.0, 1.0, 3.75, -16.7)">
    <path d="M83.25 94.55 Q83.6 94.55 83.6 94.9 L84.6 98.35 79.8 99.7 79.45 99.7 77.05 100.4 75.65 100.7 Q75.35 100.9 75.0 101.05 L71.9 101.75 Q60.15 104.15 50.85 104.15 L50.2 104.15 46.05 103.8 46.05 101.05 46.05 97.3 46.05 94.9 40.55 94.9 40.55 97.3 40.2 101.05 40.2 103.1 36.05 104.15 35.4 104.15 34.7 104.15 Q26.1 104.8 15.75 102.1 L14.4 101.4 13.0 101.05 11.95 100.7 9.9 100.05 Q7.15 98.65 4.05 97.65 L4.75 94.2 5.1 91.15 5.1 90.45 5.4 88.75 7.5 76.8 Q7.85 76.1 7.85 75.1 L8.2 74.4 Q8.2 73.7 8.5 73.05 L8.5 72.35 9.2 67.2 9.9 47.75 -0.75 32.35 9.9 19.7 60.85 21.75 61.9 21.4 76.35 21.75 87.35 29.95 77.4 47.05 77.4 47.4 77.4 52.5 77.4 56.95 77.4 57.3 77.4 58.35 Q77.4 59.7 77.75 61.75 L77.75 63.1 77.75 63.8 77.75 65.15 78.05 66.2 78.05 66.9 78.05 69.25 78.75 72.0 Q78.75 72.7 79.1 72.7 L79.1 73.7 79.45 74.75 Q79.45 77.45 80.15 79.85 L82.2 88.75 82.2 89.1 82.55 89.45 83.25 94.55" fill="#2c2323" fill-rule="evenodd" stroke="none"/>
    <path d="M83.25 94.55 L82.55 89.45 82.2 89.1 82.2 88.75 80.15 79.85 Q79.45 77.45 79.45 74.75 L79.1 73.7 79.1 72.7 Q78.75 72.7 78.75 72.0 L78.05 69.25 78.05 66.9 78.05 66.2 77.75 65.15 77.75 63.8 77.75 63.1 77.75 61.75 Q77.4 59.7 77.4 58.35 L77.4 57.3 77.4 56.95 77.4 52.5 77.4 47.4 77.4 47.05 87.35 29.95 76.35 21.75 61.9 21.4 60.85 21.75 9.9 19.7 -0.75 32.35 9.9 47.75 9.2 67.2 8.5 72.35 8.5 73.05 Q8.2 73.7 8.2 74.4 L7.85 75.1 Q7.85 76.1 7.5 76.8 L5.4 88.75 5.1 90.45 5.1 91.15 4.75 94.2 4.05 97.65 Q7.15 98.65 9.9 100.05 L11.95 100.7 13.0 101.05 14.4 101.4 15.75 102.1 Q26.1 104.8 34.7 104.15 L35.4 104.15 36.05 104.15 40.2 103.1 40.2 101.05 40.55 97.3 40.55 94.9 46.05 94.9 46.05 97.3 46.05 101.05 46.05 103.8 50.2 104.15 50.85 104.15 Q60.15 104.15 71.9 101.75 L75.0 101.05 Q75.35 100.9 75.65 100.7 L77.05 100.4 79.45 99.7 79.8 99.7 84.6 98.35 83.6 94.9 Q83.6 94.55 83.25 94.55 Z" fill="none" stroke="#100f0f" stroke-linecap="round" stroke-linejoin="round" stroke-width="6.0"/>
    <path d="M72.25 101.6 Q60.5 104.35 50.9 104.0 L50.55 101.6 Q62.6 101.6 72.25 98.85 L72.25 101.6 M35.75 104.0 L34.7 104.0 Q26.45 104.65 16.1 101.95 L16.1 99.55 16.1 98.2 Q25.75 100.55 36.4 100.9 L35.75 104.0 M1.3 30.15 L3.7 27.75 11.65 39.05 10.95 43.5 1.3 30.15 M5.45 25.0 L9.9 19.9 15.05 20.25 12.65 33.9 5.45 25.0 M72.25 21.6 L76.7 21.95 80.15 24.7 74.65 33.55 72.25 21.6 M83.25 26.4 L85.3 28.45 77.05 42.1 76.35 42.45 75.65 38.35 83.25 26.4 M19.9 21.6 Q21.95 30.15 25.75 35.95 30.9 42.8 38.5 44.5 L43.65 45.55 48.8 45.2 Q55.7 44.5 61.2 38.35 66.7 32.55 68.45 24.35 69.15 26.4 69.45 30.15 70.15 33.2 70.5 39.7 L71.55 48.95 Q71.2 50.3 71.2 55.8 L70.85 65.35 Q70.5 66.4 70.5 67.4 69.8 73.9 69.8 75.6 69.8 77.3 70.85 85.55 72.25 93.05 72.25 94.05 62.6 96.8 50.2 97.15 L49.85 94.05 Q52.25 92.7 54.0 88.25 43.3 91.0 33.3 88.25 L38.15 93.75 37.1 97.15 Q26.8 96.45 16.8 94.05 17.15 90.3 18.5 84.85 L20.25 73.2 18.85 67.75 Q18.5 66.4 18.5 65.35 17.5 60.9 17.5 56.15 17.5 48.6 18.5 35.6 19.2 26.4 19.9 21.6" fill="#333030" fill-rule="evenodd" stroke="none"/>
    <path d="M85.3 28.45 L87.4 30.15 77.75 46.9 76.35 42.45 77.05 42.1 85.3 28.45 M9.9 47.9 L-0.75 32.55 1.3 30.15 10.95 43.5 10.25 47.9 9.9 47.9 M3.7 27.75 L5.45 25.0 12.65 33.9 11.65 39.05 3.7 27.75 M19.55 20.25 L19.9 20.25 26.8 20.55 Q30.2 37.0 41.6 39.7 44.35 40.75 46.75 40.4 57.75 39.7 63.25 21.6 L68.1 21.6 69.15 21.6 68.45 24.35 Q66.7 32.55 61.2 38.35 55.7 44.5 48.8 45.2 L43.65 45.55 38.5 44.5 Q30.9 42.8 25.75 35.95 21.95 30.15 19.9 21.6 19.55 20.9 19.55 20.25 M27.8 20.55 L29.55 20.55 Q30.9 28.1 34.35 32.55 38.15 37.65 43.65 38.35 49.5 38.7 53.65 34.6 57.4 30.5 61.2 21.6 L62.25 21.6 Q58.8 31.15 54.3 35.6 50.2 39.4 44.35 39.4 38.5 38.7 34.35 33.9 30.2 29.1 27.8 20.55 M80.15 24.7 L83.25 26.4 75.65 38.35 74.65 33.55 80.15 24.7 M16.1 98.2 L16.8 94.05 Q26.8 96.45 37.1 97.15 L36.4 100.9 Q25.75 100.55 16.1 98.2 M72.25 94.05 L72.25 98.85 Q62.6 101.6 50.55 101.6 L50.2 97.15 Q62.6 96.8 72.25 94.05" fill="#ffbb1b" fill-rule="evenodd" stroke="none"/>
    <path d="M77.75 46.9 L77.75 47.25 77.75 52.35 77.75 57.15 77.75 57.5 77.75 58.2 Q77.75 59.55 78.1 61.6 L78.1 63.3 78.1 63.65 78.1 65.35 78.1 66.4 78.1 67.05 Q78.1 68.1 78.4 69.45 L79.1 71.85 Q79.1 72.55 79.45 72.9 L79.45 73.55 79.45 74.6 Q79.8 77.3 80.5 80.05 L82.55 88.6 82.55 89.3 82.9 89.65 Q77.75 92.35 72.25 94.05 72.25 93.05 70.85 85.55 69.8 77.3 69.8 75.6 69.8 73.9 70.5 67.4 70.5 66.4 70.85 65.35 L71.2 55.8 Q71.2 50.3 71.55 48.95 L70.5 39.7 Q70.15 33.2 69.45 30.15 69.15 26.4 68.45 24.35 L69.15 21.6 72.25 21.6 74.65 33.55 75.65 38.35 76.35 42.45 77.75 46.9 M83.6 94.4 L83.95 94.75 Q84.3 96.45 84.95 98.2 82.55 98.85 79.8 99.9 L77.05 100.25 76.0 100.9 75.35 100.9 72.25 101.6 72.25 98.85 Q78.1 97.15 83.6 94.4 M50.9 104.0 L50.2 104.0 46.4 104.0 46.4 101.25 50.55 101.6 50.9 104.0 M46.4 97.15 L46.4 94.75 40.9 94.75 40.9 97.15 37.1 97.15 38.15 93.75 33.3 88.25 Q43.3 91.0 54.0 88.25 52.25 92.7 49.85 94.05 L50.2 97.15 46.4 97.15 M40.2 100.9 L40.2 103.3 36.4 104.0 35.75 104.0 36.4 100.9 40.2 100.9 M16.1 101.95 Q15.05 101.95 14.75 101.6 14.05 101.25 13.35 101.25 13.0 100.9 12.3 100.9 10.95 100.25 9.9 100.25 7.5 98.85 4.4 97.85 L5.1 94.05 Q10.25 96.45 16.1 98.2 L16.1 99.55 16.1 101.95 M5.45 90.65 L5.75 88.6 7.85 76.65 Q8.2 75.95 8.2 74.95 8.2 74.6 8.55 74.25 8.55 73.55 8.85 72.9 L8.85 72.55 9.55 67.4 9.9 48.25 10.25 47.9 10.95 43.5 11.65 39.05 12.65 33.9 15.05 20.25 19.55 20.25 Q19.55 20.9 19.9 21.6 19.2 26.4 18.5 35.6 17.5 48.6 17.5 56.15 17.5 60.9 18.5 65.35 18.5 66.4 18.85 67.75 L20.25 73.2 18.5 84.85 Q17.15 90.3 16.8 94.05 10.95 92.7 5.45 90.65" fill="#1c1717" fill-rule="evenodd" stroke="none"/>
    <path d="M82.9 89.65 L83.6 94.4 Q78.1 97.15 72.25 98.85 L72.25 94.05 Q77.75 92.35 82.9 89.65 M46.4 101.25 L46.4 97.15 50.2 97.15 50.55 101.6 46.4 101.25 M40.9 97.15 L40.2 100.9 36.4 100.9 37.1 97.15 40.9 97.15 M5.1 94.05 L5.45 91.0 5.45 90.65 Q10.95 92.7 16.8 94.05 L16.1 98.2 Q10.25 96.45 5.1 94.05" fill="#b48006" fill-rule="evenodd" stroke="none"/>
    <path d="M9.9 48.25 L9.9 47.9 10.25 47.9 9.9 48.25 M26.8 20.55 L27.8 20.55 Q30.2 29.1 34.35 33.9 38.5 38.7 44.35 39.4 50.2 39.4 54.3 35.6 58.8 31.15 62.25 21.6 L63.25 21.6 Q57.75 39.7 46.75 40.4 44.35 40.75 41.6 39.7 30.2 37.0 26.8 20.55 M29.55 20.55 L61.2 21.6 Q57.4 30.5 53.65 34.6 49.5 38.7 43.65 38.35 38.15 37.65 34.35 32.55 30.9 28.1 29.55 20.55" fill="#4d4242" fill-rule="evenodd" stroke="none"/>
  </g>
</svg>
