<?xml version="1.0" encoding="UTF-8" standalone="no"?>
<svg xmlns:xlink="http://www.w3.org/1999/xlink" height="38.35px" width="37.7px" xmlns="http://www.w3.org/2000/svg">
  <g transform="matrix(1.0, 0.0, 0.0, 1.0, -497.75, -89.65)">
    <path d="M507.95 98.05 L506.4 96.15 506.95 94.95 Q509.4 93.1 512.6 92.2 L513.45 95.25 518.35 94.9 518.5 94.9 518.9 91.65 Q522.0 92.05 524.9 93.7 L524.95 95.5 524.1 96.95 Q525.95 98.15 527.15 99.8 L529.75 97.75 Q531.6 100.25 532.5 103.45 L532.45 103.45 532.85 104.75 530.2 105.45 530.2 105.5 Q530.75 107.4 530.8 109.2 L530.8 109.5 533.05 109.7 533.0 109.85 533.45 111.3 532.4 115.35 532.0 116.3 531.3 117.55 528.9 116.2 528.9 116.3 528.75 116.45 526.25 119.7 526.9 120.55 527.0 122.45 527.05 122.55 Q525.15 124.1 522.75 125.05 L522.0 125.3 521.15 125.55 521.1 125.55 520.4 122.95 520.3 122.95 514.95 123.45 514.95 123.9 514.55 126.0 Q511.4 125.65 508.35 124.0 L508.35 123.95 509.0 121.9 509.2 121.5 507.3 120.05 505.45 118.05 505.35 118.05 503.35 119.6 503.25 119.65 Q501.25 117.15 500.35 113.8 L500.3 113.75 500.4 113.7 501.3 112.05 502.65 111.7 502.5 110.75 Q502.35 109.35 502.5 107.85 L502.5 107.55 502.5 107.45 499.75 107.15 499.8 107.05 499.95 106.1 500.05 105.55 Q500.6 103.25 501.85 100.95 L501.9 100.85 501.95 100.85 502.75 99.9 502.85 99.8 502.9 99.8 505.05 101.0 Q506.25 99.35 507.75 98.15 L507.95 98.05 M518.95 106.0 L517.15 105.4 515.3 105.5 Q514.3 105.8 513.6 106.4 512.85 106.95 512.35 107.85 L512.15 108.3 512.3 109.05 Q512.45 109.75 512.75 110.3 L513.15 110.8 513.8 111.45 514.55 112.0 516.35 112.65 518.2 112.45 518.5 112.4 Q519.3 112.1 519.95 111.6 L521.15 110.2 521.45 109.75 521.25 108.9 520.4 107.2 520.3 107.05 518.95 106.0" fill="#b1c4cb" fill-rule="evenodd" stroke="none"/>
    <path d="M507.95 98.05 L506.4 96.15 506.95 94.95 Q509.4 93.1 512.6 92.2 L513.45 95.25 518.35 94.9 518.5 94.9 518.9 91.65 Q522.0 92.05 524.9 93.7 L524.95 95.5 524.1 96.95 Q525.95 98.15 527.15 99.8 L529.75 97.75 Q531.6 100.25 532.5 103.45 L532.45 103.45 532.85 104.75 530.2 105.45 530.2 105.5 Q530.75 107.4 530.8 109.2 L530.8 109.5 533.05 109.7 533.0 109.85 533.45 111.3 532.4 115.35 532.0 116.3 531.3 117.55 528.9 116.2 528.9 116.3 528.75 116.45 526.25 119.7 526.9 120.55 527.0 122.45 527.05 122.55 Q525.15 124.1 522.75 125.05 L522.0 125.3 521.15 125.55 521.1 125.55 520.4 122.95 520.3 122.95 514.95 123.45 514.95 123.9 514.55 126.0 Q511.4 125.65 508.35 124.0 L508.35 123.95 509.0 121.9 509.2 121.5 507.3 120.05 505.45 118.05 505.35 118.05 503.35 119.6 503.25 119.65 Q501.25 117.15 500.35 113.8 L500.3 113.75 500.4 113.7 501.3 112.05 502.65 111.7 502.5 110.75 Q502.35 109.35 502.5 107.85 L502.5 107.55 502.5 107.45 499.75 107.15 499.8 107.05 499.95 106.1 500.05 105.55 Q500.6 103.25 501.85 100.95 L501.9 100.85 501.95 100.85 502.75 99.9 502.85 99.8 502.9 99.8 505.05 101.0 Q506.25 99.35 507.75 98.15 L507.95 98.05 M518.95 106.0 L520.3 107.05 520.4 107.2 521.25 108.9 521.45 109.75 521.15 110.2 519.95 111.6 Q519.3 112.1 518.5 112.4 L518.2 112.45 516.35 112.65 514.55 112.0 513.8 111.45 513.15 110.8 512.75 110.3 Q512.45 109.75 512.3 109.05 L512.15 108.3 512.35 107.85 Q512.85 106.95 513.6 106.4 514.3 105.8 515.3 105.5 L517.15 105.4 518.95 106.0" fill="none" stroke="#005c8e" stroke-linecap="round" stroke-linejoin="round" stroke-width="4.0"/>
    <path d="M507.0 94.95 L509.0 97.55 509.0 97.6 507.95 98.1 506.4 96.15 507.0 94.95 M500.85 105.8 L504.05 106.2 502.5 107.5 499.75 107.2 499.8 107.1 500.85 105.8 M529.4 104.4 L529.4 104.35 532.5 103.5 532.85 104.75 530.2 105.5 529.4 104.4 M531.3 117.6 L528.9 116.2 528.9 116.3 528.2 114.2 528.2 114.15 530.95 115.75 531.3 117.6 M521.15 125.55 L520.4 123.0 520.35 123.0 520.4 120.35 521.25 123.4 521.15 125.55 M514.95 123.9 L514.95 123.95 514.6 126.05 Q511.4 125.7 508.35 124.0 L508.45 123.8 509.0 121.9 509.35 122.1 Q512.05 123.55 514.95 123.9 M505.45 118.1 L505.45 118.05 505.35 118.05 503.35 119.65 504.15 117.8 506.7 115.75 505.45 118.1" fill="#516870" fill-rule="evenodd" stroke="none"/>
    <path d="M509.0 97.6 L509.0 97.55 507.0 94.95 Q509.45 93.1 512.65 92.2 L513.5 95.3 518.35 94.95 518.55 94.9 518.9 91.65 Q522.0 92.1 524.95 93.75 L524.9 93.8 523.35 96.55 523.75 96.75 524.1 97.0 Q525.95 98.2 527.15 99.85 L529.75 97.8 Q531.6 100.25 532.5 103.5 L529.4 104.35 529.4 104.4 529.45 104.6 Q526.4 104.5 523.6 105.65 L522.15 106.2 521.4 104.85 Q520.7 103.95 519.6 103.35 518.65 102.75 517.6 102.65 L515.35 102.8 Q514.2 103.15 513.3 103.8 512.45 104.45 511.85 105.5 511.35 106.55 511.25 107.65 511.1 108.25 511.2 108.9 L511.35 109.8 511.65 110.6 Q508.3 111.5 505.3 109.7 L504.85 109.4 504.05 108.8 504.05 108.75 504.0 106.8 504.05 106.2 500.85 105.8 500.8 105.8 500.85 105.75 501.05 104.8 Q501.4 102.95 502.25 101.05 L502.8 99.95 502.85 99.85 502.9 99.85 505.05 101.05 505.7 101.4 506.05 100.9 Q506.9 99.4 508.1 98.3 L508.5 98.05 509.0 97.6" fill="#bbd4de" fill-rule="evenodd" stroke="none"/>
    <path d="M507.95 98.1 L509.0 97.6 508.5 98.05 508.1 98.3 Q506.9 99.4 506.05 100.9 L505.7 101.4 505.05 101.05 Q506.3 99.4 507.8 98.2 L507.95 98.1 M502.8 99.95 L502.25 101.05 Q501.4 102.95 501.05 104.8 L500.85 105.75 500.8 105.8 500.85 105.8 499.8 107.1 499.95 106.1 500.1 105.6 Q500.6 103.3 501.85 101.0 L501.95 100.9 502.8 99.95 M504.05 106.2 L504.0 106.8 504.05 108.75 504.05 108.8 504.45 111.25 502.65 111.75 502.5 110.75 Q502.35 109.4 502.55 107.9 L502.5 107.6 502.55 107.5 502.5 107.5 504.05 106.2 M529.45 104.6 L529.4 104.4 530.2 105.5 530.2 105.55 Q530.75 107.4 530.8 109.25 L530.8 109.5 529.85 109.35 529.95 108.0 529.85 106.3 529.75 105.65 529.7 105.45 529.45 104.6 M524.1 97.0 L523.75 96.75 523.35 96.55 524.9 93.8 524.95 95.55 524.1 97.0 M533.05 109.85 L533.05 109.9 533.45 111.3 532.4 115.35 532.0 116.35 531.3 117.6 530.95 115.75 531.05 115.8 532.45 112.6 532.8 111.2 533.0 109.8 533.05 109.85 M528.9 116.3 L528.8 116.5 526.3 119.75 524.95 118.05 Q526.95 116.5 528.2 114.2 L528.9 116.3 M526.9 120.65 L527.0 122.5 527.05 122.6 Q525.15 124.1 522.75 125.05 L522.0 125.3 521.15 125.55 521.25 123.4 Q523.6 122.75 525.6 121.6 525.8 121.4 526.05 121.3 L526.9 120.65 M520.35 123.0 L520.3 123.0 515.0 123.5 515.35 120.7 520.4 120.3 520.4 120.35 520.35 123.0 M509.25 121.5 Q508.2 120.9 507.35 120.1 L505.45 118.1 506.7 115.75 507.5 116.75 Q508.8 118.1 510.55 119.05 L509.25 121.5 M503.35 119.65 L503.3 119.7 Q501.25 117.2 500.35 113.85 L500.35 113.75 500.4 113.75 501.3 112.1 501.7 113.4 503.1 116.35 504.15 117.8 503.35 119.65" fill="#6f8891" fill-rule="evenodd" stroke="none"/>
    <path d="M504.05 108.8 L504.85 109.4 505.3 109.7 Q508.3 111.5 511.65 110.6 L512.4 111.85 513.15 112.65 514.0 113.35 Q515.05 113.95 516.15 114.05 L518.4 113.85 518.7 113.75 520.45 112.8 Q521.3 112.2 521.75 111.2 L522.15 110.65 522.55 109.05 522.3 106.75 522.15 106.2 523.6 105.65 Q526.4 104.5 529.45 104.6 L529.7 105.45 529.75 105.65 529.85 106.3 529.95 108.0 529.85 109.35 530.8 109.5 533.05 109.75 533.05 109.85 533.0 109.8 532.8 111.2 532.45 112.6 531.05 115.8 530.95 115.75 528.2 114.15 528.2 114.2 Q526.95 116.5 524.95 118.05 L526.3 119.75 526.95 120.6 526.9 120.65 526.05 121.3 Q525.8 121.4 525.6 121.6 523.6 122.75 521.25 123.4 L520.4 120.35 520.4 120.3 515.35 120.7 515.0 123.5 514.95 123.9 Q512.05 123.55 509.35 122.1 L509.0 121.9 509.25 121.5 510.55 119.05 Q508.8 118.1 507.5 116.75 L506.7 115.75 504.15 117.8 503.1 116.35 501.7 113.4 501.3 112.1 502.65 111.75 504.45 111.25 504.05 108.8" fill="#b1c4cb" fill-rule="evenodd" stroke="none"/>
    <path d="M511.65 110.6 L511.35 109.8 511.2 108.9 Q511.1 108.25 511.25 107.65 511.35 106.55 511.85 105.5 512.45 104.45 513.3 103.8 514.2 103.15 515.35 102.8 L517.6 102.65 Q518.65 102.75 519.6 103.35 520.7 103.95 521.4 104.85 L522.15 106.2 522.3 106.75 522.55 109.05 522.15 110.65 521.75 111.2 Q521.3 112.2 520.45 112.8 L518.7 113.75 518.4 113.85 516.15 114.05 Q515.05 113.95 514.0 113.35 L513.15 112.65 512.4 111.85 511.65 110.6 M521.45 109.75 L521.8 108.4 Q521.9 107.5 521.6 106.5 L521.6 106.45 520.85 104.8 519.3 103.6 Q518.5 103.05 517.6 103.0 L515.65 103.1 Q514.7 103.35 514.0 104.0 513.2 104.5 512.7 105.4 512.25 106.3 512.15 107.25 L512.2 108.3 512.3 109.1 512.8 110.3 513.15 110.8 513.8 111.5 514.55 112.05 516.35 112.7 518.25 112.5 518.5 112.4 520.0 111.65 521.15 110.25 521.45 109.75" fill="#d5eef7" fill-rule="evenodd" stroke="none"/>
    <path d="M512.2 108.3 L512.15 107.25 Q512.25 106.3 512.7 105.4 513.2 104.5 514.0 104.0 514.7 103.35 515.65 103.1 L517.6 103.0 Q518.5 103.05 519.3 103.6 L520.85 104.8 521.6 106.45 521.6 106.5 Q521.9 107.5 521.8 108.4 L521.45 109.75 521.25 108.95 520.4 107.2 520.3 107.1 519.0 106.05 Q518.1 105.55 517.2 105.45 L515.3 105.55 Q514.3 105.85 513.6 106.4 512.85 107.0 512.4 107.9 L512.2 108.3" fill="#83979f" fill-rule="evenodd" stroke="none"/>
  </g>
</svg>
