<?xml version="1.0" encoding="UTF-8" standalone="no"?>
<svg xmlns:xlink="http://www.w3.org/1999/xlink" height="128.9px" width="37.3px" xmlns="http://www.w3.org/2000/svg">
  <g transform="matrix(1.0, 0.0, 0.0, 1.0, -109.6, -374.05)">
    <path d="M114.2 484.1 L109.6 486.4 114.2 481.75 119.35 486.8 128.1 485.55 130.85 478.5 140.2 479.7 146.9 476.2 142.8 481.5 132.7 481.05 131.4 488.55 127.8 488.85 129.7 493.6 126.2 498.05 127.0 493.3 125.25 489.25 116.45 490.0 114.2 484.1" fill="#af691c" fill-rule="evenodd" stroke="none"/>
    <path d="M146.45 476.7 L143.4 482.75 133.2 483.05 132.25 490.65 129.7 490.65 130.9 494.95 125.7 498.5 129.2 494.05 127.4 489.3 130.9 489.0 132.25 481.6 142.5 481.6 146.45 476.7" fill="#ffffff" fill-rule="evenodd" stroke="none"/>
    <path d="M115.95 490.5 L124.8 489.75 125.7 492.25 115.95 491.65 114.0 486.65 114.15 486.05 115.95 490.5" fill="#ffffff" fill-rule="evenodd" stroke="none"/>
    <path d="M138.5 478.9 L145.25 479.2 137.3 480.1 138.5 478.9" fill="#ffffff" fill-rule="evenodd" stroke="none"/>
    <path d="M126.25 496.9 L128.5 497.05 126.85 502.95 126.25 496.9" fill="#af691c" fill-rule="evenodd" stroke="none"/>
    <path d="M117.9 468.35 L120.05 471.45" fill="none" stroke="#624729" stroke-linecap="round" stroke-linejoin="round" stroke-width="0.05"/>
    <path d="M118.15 468.6 L130.55 466.25 137.8 474.25 137.35 479.15 134.1 488.85 119.9 490.25 119.6 490.25 119.25 490.1 119.1 489.8 114.6 483.95 112.65 478.15 118.15 468.6" fill="#af691c" fill-rule="evenodd" stroke="none"/>
    <path d="M137.4 473.3 L136.95 478.0 133.7 487.6 119.65 489.05 114.6 482.9 112.9 477.1 137.4 473.3" fill="#d271ab" fill-rule="evenodd" stroke="none"/>
    <path d="M112.8 477.05 L118.15 467.8 130.25 465.65 137.35 473.3 133.45 484.8 118.95 486.35 112.8 477.05" fill="#f0a5d2" fill-rule="evenodd" stroke="none"/>
    <path d="M112.8 477.05 L118.15 467.8 130.25 465.65 137.35 473.3 112.8 477.05" fill="#ffc4e7" fill-rule="evenodd" stroke="none"/>
    <path d="M120.55 470.5 L128.65 468.75 132.8 473.65 129.9 479.75 121.35 480.7 117.65 475.3 120.55 470.5" fill="#fce3f2" fill-rule="evenodd" stroke="none"/>
    <path d="M121.55 480.05 L120.4 485.7 133.45 484.95 118.8 486.8 121.55 480.05" fill="#ffffff" fill-rule="evenodd" stroke="none"/>
    <path d="M118.95 486.35 L119.9 486.35 119.9 489.0 119.1 488.7 118.95 486.35" fill="#ffffff" fill-rule="evenodd" stroke="none"/>
    <path d="M113.3 477.65 L118.3 475.05 114.6 477.8 118.95 486.35 113.3 477.65" fill="#ffffff" fill-rule="evenodd" stroke="none"/>
    <path d="M128.15 468.75 L130.25 465.65 128.95 469.25 128.15 468.75" fill="#ffffff" fill-rule="evenodd" stroke="none"/>
    <path d="M132.65 473.95 L137.35 473.3 132.2 474.9 132.65 473.95" fill="#ffffff" fill-rule="evenodd" stroke="none"/>
    <path d="M130.55 478.8 L133.45 484.8 129.25 479.45 130.55 478.8" fill="#ffffff" fill-rule="evenodd" stroke="none"/>
    <path d="M133.45 484.8 L133.65 487.6 132.5 484.95 133.45 484.8" fill="#ffffff" fill-rule="evenodd" stroke="none"/>
    <path d="M128.95 469.25 L133.0 473.95 130.1 479.6 121.35 480.7 117.65 475.3 122.0 479.6 129.25 478.65 131.55 473.95 128.95 469.25" fill="#ffffff" fill-rule="evenodd" stroke="none"/>
    <path d="M120.55 470.5 L118.3 476.3 117.65 475.3 120.55 470.5" fill="#ffffff" fill-rule="evenodd" stroke="none"/>
    <path d="M119.45 471.2 L117.3 468.15 120.15 470.6 119.45 471.2" fill="#ffffff" fill-rule="evenodd" stroke="none"/>
    <path d="M134.45 398.8 Q130.2 400.3 124.2 400.3 118.15 400.3 113.9 398.8 109.6 397.35 109.6 395.3 109.6 393.2 113.9 391.7 118.15 390.25 124.2 390.25 130.2 390.25 134.45 391.7 138.75 393.2 138.75 395.3 138.75 397.35 134.45 398.8" fill="url(#gradient0)" fill-rule="evenodd" stroke="none"/>
    <path d="M118.4 394.25 L117.55 388.95 Q118.05 386.95 118.85 384.75 L119.5 382.85 119.9 379.75 123.9 375.4 127.0 375.05 129.05 378.7 130.85 384.3 131.55 389.95 131.55 393.9 Q130.05 395.35 126.05 396.05 L124.9 395.95 Q121.25 395.7 118.4 394.25" fill="#d9bb7b" fill-rule="evenodd" stroke="none"/>
    <path d="M118.4 394.25 Q121.25 395.7 124.9 395.95 L126.05 396.05 Q130.05 395.35 131.55 393.9 L131.55 389.95 130.85 384.3 129.05 378.7 127.0 375.05 123.9 375.4 119.9 379.75 119.5 382.85 118.85 384.75 Q118.05 386.95 117.55 388.95 L118.4 394.25 Z" fill="none" stroke="#834f0f" stroke-linecap="round" stroke-linejoin="round" stroke-width="2.0"/>
    <path d="M123.9 375.4 L127.0 375.05 129.05 378.9 130.5 385.5 130.7 394.1 118.4 394.25 117.55 388.95 Q118.05 386.95 118.85 384.75 L119.5 382.85 119.9 379.75 123.9 375.4" fill="#e5d3ad" fill-rule="evenodd" stroke="none"/>
    <path d="M125.95 375.75 L127.0 375.05 129.05 378.7 130.45 384.9 130.6 394.1 126.1 396.0 Q121.7 395.95 118.4 394.25 L120.6 394.0 121.5 392.45 126.0 386.8 126.55 386.45 125.85 386.1 125.65 383.35 124.9 382.6 126.6 382.0 126.15 381.9 124.55 380.3 122.55 379.6 123.55 377.35 125.95 375.75" fill="#c6a473" fill-rule="evenodd" stroke="none"/>
    <path d="M129.9 385.5 L129.05 378.7 130.85 384.3 131.55 389.95 131.55 393.9 Q130.05 395.35 126.05 396.05 121.7 395.75 119.7 394.8 L124.15 395.2 126.6 394.45 128.05 392.25 129.2 388.35 127.8 388.9 129.1 387.9 129.9 385.5" fill="#936b34" fill-rule="evenodd" stroke="none"/>
    <path d="M128.45 394.25 L130.25 392.65 130.65 393.45 128.45 394.25" fill="#c6a473" fill-rule="evenodd" stroke="none"/>
    <path d="M122.7 386.0 L123.8 386.3 123.2 388.0 122.55 388.05 122.7 386.0" fill="#c6a473" fill-rule="evenodd" stroke="none"/>
    <path d="M126.3 380.8 L127.8 379.5 128.55 380.4 126.3 380.8" fill="#e0c48f" fill-rule="evenodd" stroke="none"/>
    <path d="M117.95 389.4 L118.3 389.1 119.8 390.1 119.5 390.3 117.95 389.4" fill="#c6a473" fill-rule="evenodd" stroke="none"/>
    <path d="M121.8 393.85 L125.15 390.3 123.3 393.9 121.8 393.85" fill="#e0c48f" fill-rule="evenodd" stroke="none"/>
    <path d="M126.85 375.05 L123.45 377.2 122.55 379.6 124.9 380.45 125.95 381.65 126.6 382.0 125.25 382.6 125.65 383.45 125.85 386.1 125.5 383.65 124.7 382.55 126.0 382.1 124.6 380.55 122.35 379.65 123.4 377.0 126.85 375.05" fill="#fdfcfb" fill-rule="evenodd" stroke="none"/>
  </g>
  <defs>
    <radialGradient cx="0" cy="0" gradientTransform="matrix(1.0E-4, -0.0069, 0.0211, 1.0E-4, 124.2, 395.3)" gradientUnits="userSpaceOnUse" id="gradient0" r="819.2" spreadMethod="pad">
      <stop offset="0.19607843137254902" stop-color="#875b26" stop-opacity="0.6784314"/>
      <stop offset="0.615686274509804" stop-color="#744c25" stop-opacity="0.29803923"/>
      <stop offset="0.8470588235294118" stop-color="#ad9065" stop-opacity="0.0"/>
    </radialGradient>
  </defs>
</svg>
