<?xml version="1.0" encoding="UTF-8" standalone="no"?>
<svg xmlns:xlink="http://www.w3.org/1999/xlink" height="66.55px" width="52.05px" xmlns="http://www.w3.org/2000/svg">
  <g transform="matrix(1.0, 0.0, 0.0, 1.0, 1.95, 4.4)">
    <path d="M45.4 4.0 L47.1 5.3 30.8 26.1 30.3 27.4 Q29.65 28.65 28.65 29.5 L23.25 39.35 23.7 44.6 23.7 45.0 23.55 45.0 Q24.6 49.15 22.45 53.05 20.35 57.25 15.85 58.6 11.25 60.0 7.15 57.8 2.95 55.55 1.65 51.15 0.2 46.65 2.35 42.45 4.55 38.25 9.15 37.0 L9.05 36.75 11.1 35.45 13.95 33.45 13.95 33.65 18.6 25.15 18.6 25.0 Q18.35 23.25 19.25 21.6 20.1 19.85 21.7 19.0 L22.85 18.6 38.4 -1.4 40.6 0.35 45.4 4.0" fill="#a2a2a2" fill-rule="evenodd" stroke="none"/>
    <path d="M45.4 4.0 L47.1 5.3 30.8 26.1 30.3 27.4 Q29.65 28.65 28.65 29.5 L23.25 39.35 23.7 44.6 23.7 45.0 23.55 45.0 Q24.6 49.15 22.45 53.05 20.35 57.25 15.85 58.6 11.25 60.0 7.15 57.8 2.95 55.55 1.65 51.15 0.2 46.65 2.35 42.45 4.55 38.25 9.15 37.0 L9.05 36.75 11.1 35.45 13.95 33.45 13.95 33.65 18.6 25.15 18.6 25.0 Q18.35 23.25 19.25 21.6 20.1 19.85 21.7 19.0 L22.85 18.6 38.4 -1.4 40.6 0.35 45.4 4.0 Z" fill="none" stroke="#283757" stroke-linecap="round" stroke-linejoin="round" stroke-width="6.0"/>
    <path d="M23.85 21.45 L29.2 24.1 17.45 45.05 12.8 41.75 23.85 21.45" fill="#c8c8c8" fill-rule="evenodd" stroke="none"/>
    <path d="M12.8 41.75 L10.15 40.55 21.4 20.05 23.85 21.45 12.8 41.75" fill="#e6e6e6" fill-rule="evenodd" stroke="none"/>
    <path d="M29.2 24.1 L31.0 25.15 19.4 46.25 17.45 45.05 29.2 24.1" fill="#a2a2a2" fill-rule="evenodd" stroke="none"/>
    <path d="M19.4 46.25 L17.45 45.05 12.8 41.75 10.15 40.55" fill="none" stroke="#283757" stroke-linecap="round" stroke-linejoin="round" stroke-opacity="0.49803922" stroke-width="0.1"/>
    <path d="M45.4 4.0 L47.1 5.3 29.25 28.05 27.5 26.55 45.4 4.0" fill="#a2a2a2" fill-rule="evenodd" stroke="none"/>
    <path d="M40.6 0.35 L45.4 4.0 27.5 26.55 23.55 22.5 40.6 0.35" fill="#c8c8c8" fill-rule="evenodd" stroke="none"/>
    <path d="M23.55 22.5 L21.2 20.75 38.4 -1.45 40.6 0.35 23.55 22.5" fill="#e6e6e6" fill-rule="evenodd" stroke="none"/>
    <path d="M29.25 28.05 L27.5 26.55 23.55 22.5 21.2 20.75" fill="none" stroke="#283757" stroke-linecap="round" stroke-linejoin="round" stroke-opacity="0.49803922" stroke-width="0.1"/>
    <path d="M23.0 18.6 L23.9 18.4 Q25.85 18.0 27.65 18.9 29.35 19.9 30.15 21.45 L30.7 22.75 31.0 24.8 Q30.95 26.1 30.3 27.4 L28.4 29.65 Q27.6 30.25 26.6 30.5 L25.65 30.75 Q23.7 30.95 21.8 30.05 20.5 29.3 19.8 28.2 19.05 27.4 18.8 26.4 L18.6 25.0 Q18.35 23.25 19.25 21.6 20.1 19.85 21.7 19.0 L23.0 18.6" fill="#b7b7b7" fill-rule="evenodd" stroke="none"/>
    <path d="M22.2 19.05 Q24.15 18.4 26.0 19.3 27.9 20.3 28.5 22.3 29.15 24.25 28.2 26.05 27.25 27.95 25.3 28.6 23.3 29.25 21.45 28.25 19.6 27.35 18.95 25.4 18.35 23.4 19.25 21.5 20.2 19.7 22.2 19.05" fill="#dae3e9" fill-rule="evenodd" stroke="none"/>
    <path d="M20.3 23.3 Q20.1 22.65 20.4 22.0 20.75 21.35 21.4 21.15 L22.7 21.25 Q23.35 21.55 23.55 22.2 23.8 22.9 23.45 23.55 23.15 24.2 22.45 24.4 L21.15 24.3 Q20.55 24.0 20.3 23.3" fill="#ffffff" fill-rule="evenodd" stroke="none"/>
    <path d="M14.45 36.5 Q16.15 36.9 17.8 37.65 19.6 38.65 20.8 40.0 21.8 41.1 22.45 42.45 23.1 43.35 23.4 44.35 24.75 48.85 22.45 53.05 20.35 57.25 15.85 58.6 11.25 60.0 7.15 57.8 2.95 55.55 1.65 51.15 0.2 46.65 2.35 42.45 4.55 38.25 9.2 36.95 L11.8 36.35 14.45 36.5" fill="#2b9be6" fill-rule="evenodd" stroke="none"/>
    <path d="M3.1 49.2 Q2.05 45.8 3.55 42.65 5.25 39.55 8.6 38.45 11.95 37.35 15.05 38.9 18.25 40.5 19.3 43.9 20.4 47.25 18.75 50.35 17.2 53.5 13.85 54.6 10.5 55.7 7.25 54.1 4.2 52.55 3.1 49.2" fill="#3ebbeb" fill-rule="evenodd" stroke="none"/>
    <path d="M4.3 47.3 Q3.8 45.8 4.5 44.35 5.25 42.95 6.75 42.45 8.25 42.0 9.65 42.7 11.05 43.45 11.55 44.95 12.0 46.45 11.3 47.85 10.6 49.25 9.1 49.7 L6.15 49.5 Q4.75 48.8 4.3 47.3" fill="#ffffff" fill-opacity="0.69411767" fill-rule="evenodd" stroke="none"/>
    <path d="M14.95 35.25 L14.8 35.25 Q14.0 35.4 12.8 36.2 12.5 36.35 12.2 36.6 L10.6 38.05 9.85 38.8 9.05 36.75 11.1 35.45 13.95 33.45 14.95 35.25" fill="#e6e6e6" fill-rule="evenodd" stroke="none"/>
    <path d="M9.85 38.8 L10.6 38.05 12.2 36.6 Q12.5 36.35 12.8 36.2 14.0 35.4 14.8 35.25 L14.95 35.25 18.4 37.5 20.95 39.1 21.2 41.15 21.1 43.55 20.7 45.2 Q18.0 45.05 15.0 43.45 11.45 41.55 9.85 38.8" fill="#c8c8c8" fill-rule="evenodd" stroke="none"/>
    <path d="M20.7 45.2 L21.1 43.55 21.2 41.15 20.95 39.1 23.25 39.35 23.7 44.6 23.7 45.0 20.7 45.2" fill="#a2a2a2" fill-rule="evenodd" stroke="none"/>
  </g>
</svg>
