<?xml version="1.0" encoding="UTF-8" standalone="no"?>
<svg xmlns:xlink="http://www.w3.org/1999/xlink" height="66.55px" width="52.05px" xmlns="http://www.w3.org/2000/svg">
  <g transform="matrix(1.0, 0.0, 0.0, 1.0, -1.55, -1.85)">
    <path d="M44.1 6.6 L48.9 10.25 50.6 11.55 34.3 32.35 33.8 33.65 Q33.15 34.9 32.15 35.75 L26.75 45.6 27.2 50.85 27.2 51.25 27.05 51.25 Q28.1 55.4 25.95 59.3 23.85 63.5 19.35 64.85 14.75 66.25 10.65 64.05 6.45 61.8 5.15 57.4 3.7 52.9 5.85 48.7 8.05 44.5 12.65 43.25 L12.55 43.0 14.6 41.7 17.45 39.7 17.45 39.9 22.1 31.4 22.1 31.25 Q21.85 29.5 22.75 27.85 23.6 26.1 25.2 25.25 L26.35 24.85 41.9 4.85 44.1 6.6" fill="#a2a2a2" fill-rule="evenodd" stroke="none"/>
    <path d="M44.1 6.6 L48.9 10.25 50.6 11.55 34.3 32.35 33.8 33.65 Q33.15 34.9 32.15 35.75 L26.75 45.6 27.2 50.85 27.2 51.25 27.05 51.25 Q28.1 55.4 25.95 59.3 23.85 63.5 19.35 64.85 14.75 66.25 10.65 64.05 6.45 61.8 5.15 57.4 3.7 52.9 5.85 48.7 8.05 44.5 12.65 43.25 L12.55 43.0 14.6 41.7 17.45 39.7 17.45 39.9 22.1 31.4 22.1 31.25 Q21.85 29.5 22.75 27.85 23.6 26.1 25.2 25.25 L26.35 24.85 41.9 4.85 44.1 6.6 Z" fill="none" stroke="#000000" stroke-linecap="round" stroke-linejoin="round" stroke-width="6.0"/>
    <path d="M27.35 27.7 L32.7 30.35 20.95 51.3 16.3 48.0 27.35 27.7" fill="#c8c8c8" fill-rule="evenodd" stroke="none"/>
    <path d="M13.65 46.8 L24.9 26.3 27.35 27.7 16.3 48.0 13.65 46.8" fill="#e6e6e6" fill-rule="evenodd" stroke="none"/>
    <path d="M32.7 30.35 L34.5 31.4 22.9 52.5 20.95 51.3 32.7 30.35" fill="#a2a2a2" fill-rule="evenodd" stroke="none"/>
    <path d="M22.9 52.5 L20.95 51.3 16.3 48.0 13.65 46.8" fill="none" stroke="#283757" stroke-linecap="round" stroke-linejoin="round" stroke-opacity="0.49803922" stroke-width="0.1"/>
    <path d="M48.9 10.25 L50.6 11.55 32.75 34.3 31.0 32.8 48.9 10.25" fill="#a2a2a2" fill-rule="evenodd" stroke="none"/>
    <path d="M44.1 6.6 L48.9 10.25 31.0 32.8 27.05 28.75 44.1 6.6" fill="#c8c8c8" fill-rule="evenodd" stroke="none"/>
    <path d="M24.7 27.0 L41.9 4.8 44.1 6.6 27.05 28.75 24.7 27.0" fill="#e6e6e6" fill-rule="evenodd" stroke="none"/>
    <path d="M32.75 34.3 L31.0 32.8 27.05 28.75 24.7 27.0" fill="none" stroke="#283757" stroke-linecap="round" stroke-linejoin="round" stroke-opacity="0.49803922" stroke-width="0.1"/>
    <path d="M34.5 31.05 Q34.45 32.35 33.8 33.65 L31.9 35.9 Q31.1 36.5 30.1 36.75 L29.15 37.0 Q27.2 37.2 25.3 36.3 24.0 35.55 23.3 34.45 22.55 33.65 22.3 32.65 L22.1 31.25 Q21.85 29.5 22.75 27.85 23.6 26.1 25.2 25.25 L26.5 24.85 27.4 24.65 Q29.35 24.25 31.15 25.15 32.85 26.15 33.65 27.7 L34.2 29.0 34.5 31.05" fill="#b7b7b7" fill-rule="evenodd" stroke="none"/>
    <path d="M25.7 25.3 Q27.65 24.65 29.5 25.55 31.4 26.55 32.0 28.55 32.65 30.5 31.7 32.3 30.75 34.2 28.8 34.85 26.8 35.5 24.95 34.5 23.1 33.6 22.45 31.65 21.85 29.65 22.75 27.75 23.7 25.95 25.7 25.3" fill="#dae3e9" fill-rule="evenodd" stroke="none"/>
    <path d="M23.8 29.55 Q23.6 28.9 23.9 28.25 24.25 27.6 24.9 27.4 L26.2 27.5 Q26.85 27.8 27.05 28.45 27.3 29.15 26.95 29.8 26.65 30.45 25.95 30.65 L24.65 30.55 Q24.05 30.25 23.8 29.55" fill="#ffffff" fill-rule="evenodd" stroke="none"/>
    <path d="M24.3 46.25 Q25.3 47.35 25.95 48.7 26.6 49.6 26.9 50.6 28.25 55.1 25.95 59.3 23.85 63.5 19.35 64.85 14.75 66.25 10.65 64.05 6.45 61.8 5.15 57.4 3.7 52.9 5.85 48.7 8.05 44.5 12.7 43.2 L15.3 42.6 17.95 42.75 Q19.65 43.15 21.3 43.9 23.1 44.9 24.3 46.25" fill="#383838" fill-rule="evenodd" stroke="none"/>
    <path d="M6.6 55.45 Q5.55 52.05 7.05 48.9 8.75 45.8 12.1 44.7 15.45 43.6 18.55 45.15 21.75 46.75 22.8 50.15 23.9 53.5 22.25 56.6 20.7 59.75 17.35 60.85 14.0 61.95 10.75 60.35 7.7 58.8 6.6 55.45" fill="#5b5b5b" fill-rule="evenodd" stroke="none"/>
    <path d="M7.8 53.55 Q7.3 52.05 8.0 50.6 8.75 49.2 10.25 48.7 11.75 48.25 13.15 48.95 14.55 49.7 15.05 51.2 15.5 52.7 14.8 54.1 14.1 55.5 12.6 55.95 L9.65 55.75 Q8.25 55.05 7.8 53.55" fill="#ffffff" fill-opacity="0.69411767" fill-rule="evenodd" stroke="none"/>
    <path d="M18.45 41.5 L18.3 41.5 Q17.5 41.65 16.3 42.45 L15.7 42.85 14.1 44.3 13.35 45.05 12.55 43.0 14.6 41.7 17.45 39.7 18.45 41.5" fill="#e6e6e6" fill-rule="evenodd" stroke="none"/>
    <path d="M13.35 45.05 L14.1 44.3 15.7 42.85 16.3 42.45 Q17.5 41.65 18.3 41.5 L18.45 41.5 21.9 43.75 24.45 45.35 24.7 47.4 24.6 49.8 24.2 51.45 Q21.5 51.3 18.5 49.7 14.95 47.8 13.35 45.05" fill="#c8c8c8" fill-rule="evenodd" stroke="none"/>
    <path d="M24.2 51.45 L24.6 49.8 24.7 47.4 24.45 45.35 26.75 45.6 27.2 50.85 27.2 51.25 24.2 51.45" fill="#a2a2a2" fill-rule="evenodd" stroke="none"/>
  </g>
</svg>
