<?xml version="1.0" encoding="UTF-8" standalone="no"?>
<svg xmlns:xlink="http://www.w3.org/1999/xlink" height="100.45px" width="122.15px" xmlns="http://www.w3.org/2000/svg">
  <g transform="matrix(1.0, 0.0, 0.0, 1.0, 57.0, 51.3)">
    <path d="M-14.8 20.25 L-9.45 18.85 -9.25 18.85 -13.3 20.6 Q-16.75 22.15 -18.35 22.6 -20.05 23.05 -23.35 24.65 -26.55 26.25 -27.15 28.2 -27.85 30.1 -26.65 31.45 -25.45 32.85 -21.8 34.15 -18.15 35.4 -10.05 34.1 -2.05 32.8 5.6 28.85 2.35 31.45 -2.0 33.05 L-10.5 35.8 Q-14.6 36.95 -20.5 36.7 -26.35 36.4 -29.25 35.2 -33.55 33.35 -32.25 30.3 -31.15 27.6 -28.15 25.6 -26.0 24.1 -21.55 22.3 -20.3 21.8 -14.8 20.25" fill="#3e4043" fill-rule="evenodd" stroke="none"/>
    <path d="M6.7 3.75 L6.65 3.9 -8.4 9.5 Q-22.65 15.3 -24.0 18.55 -24.75 20.3 -22.9 22.15 -21.55 23.5 -19.15 24.5 L-12.55 26.75 -12.5 26.85 -18.0 25.95 Q-21.55 25.3 -24.1 24.2 -26.7 23.1 -27.6 21.85 -28.1 21.15 -28.05 19.95 -27.95 18.55 -27.25 17.45 -25.55 15.0 -22.2 13.45 -18.2 11.6 -13.6 10.0 L-4.0 6.8 6.7 3.75" fill="#77808f" fill-rule="evenodd" stroke="none"/>
    <path d="M34.25 -0.55 Q36.95 0.6 35.7 3.55 34.75 5.95 28.5 10.9 L28.45 11.0 30.05 11.05 Q31.0 11.45 31.2 12.05 L30.9 13.4 Q30.2 15.05 28.05 16.8 L28.05 16.9 Q28.8 16.45 29.3 16.25 30.3 15.7 30.75 15.9 31.65 16.3 31.25 17.2 30.35 19.35 25.75 22.6 L20.55 26.1 21.45 25.9 21.55 26.4 Q21.1 27.55 16.45 29.6 L11.85 31.4 11.75 31.4 14.65 29.55 Q16.35 27.75 17.25 27.3 L17.25 27.2 12.9 29.2 7.6 30.3 Q13.2 28.6 17.2 25.5 15.8 26.25 11.4 27.85 11.25 28.2 10.75 28.0 L17.95 24.1 Q24.8 20.0 25.7 17.85 L25.85 16.8 Q24.35 17.35 17.0 21.35 11.6 24.25 6.9 25.05 L6.8 25.05 13.05 21.8 Q16.3 19.9 17.9 18.0 L17.95 17.9 Q15.4 20.1 6.2 23.55 -3.15 27.1 -7.1 27.3 L-7.2 27.3 -2.75 25.35 2.35 22.75 8.35 20.1 Q11.6 18.6 12.4 17.2 L11.9 17.0 9.05 17.6 10.5 16.65 11.4 16.0 11.35 15.9 Q12.3 14.75 2.0 19.45 -3.5 21.55 -6.75 20.6 L-3.45 19.8 Q-1.75 19.35 -0.2 18.25 L0.0 17.75 -0.4 17.55 Q-3.25 18.7 -6.85 18.7 -10.4 18.75 -13.45 17.6 L-4.45 16.75 Q3.3 15.7 12.0 12.1 20.75 8.5 27.75 3.8 L27.65 4.45 Q27.05 5.95 22.5 8.7 L17.1 12.0 Q18.7 11.7 24.15 8.9 30.35 5.75 30.95 4.3 31.35 3.35 30.95 2.6 30.6 1.85 29.65 1.5 L21.15 2.25 13.25 3.25 13.75 3.0 15.05 2.35 23.5 -0.05 Q31.0 -1.9 34.25 -0.55 M21.55 17.5 Q25.05 16.0 25.7 14.4 L26.05 13.1 Q26.1 12.1 25.95 12.25 23.6 15.45 18.25 18.7 19.55 18.4 21.55 17.5 M31.85 5.85 L34.7 2.75 Q35.2 1.55 34.2 1.15 L33.2 0.95 33.05 0.95 Q32.25 1.0 32.35 1.65 L32.35 2.75 32.15 4.15 Q31.65 5.35 29.6 6.7 L26.55 8.7 Q25.5 9.35 23.5 10.9 L20.7 12.9 20.55 12.95 20.55 13.05 20.7 12.9 Q23.8 11.95 28.3 8.9 L31.85 5.85" fill="#424446" fill-rule="evenodd" stroke="none"/>
    <path d="M10.8 32.1 Q12.6 31.25 14.1 30.75 L18.5 30.45 Q19.5 30.9 19.9 31.75 20.35 32.65 19.9 33.65 19.15 35.45 17.15 37.85 L15.0 39.3 16.35 38.85 Q17.5 38.35 17.85 38.65 18.25 38.95 17.2 41.2 16.15 43.35 11.05 46.35 6.0 49.2 1.75 49.15 6.45 48.0 9.4 46.35 12.25 44.65 14.7 42.2 L16.15 40.3 9.85 43.35 Q5.55 44.85 3.65 45.2 L-0.85 45.9 -5.0 46.2 -7.95 46.0 -10.4 45.65 -12.85 44.7 Q-14.25 44.1 -14.75 42.95 -15.3 41.8 -14.25 40.55 -13.2 39.3 -9.9 37.75 -6.6 36.25 -4.95 35.65 L-1.15 34.4 2.0 33.65 2.9 33.55 Q2.85 33.55 2.75 33.65 L2.45 33.7 Q-1.15 35.0 -6.55 37.4 -11.95 39.7 -12.2 41.15 -12.45 42.5 -10.75 43.45 L-3.5 43.7 5.1 41.8 Q9.1 40.7 12.75 38.55 16.3 36.35 17.25 34.85 18.25 33.25 17.95 32.55 17.65 31.75 16.95 31.45 15.85 31.0 13.75 31.5 L10.8 32.1" fill="#242425" fill-rule="evenodd" stroke="none"/>
    <path d="M-49.2 -4.3 Q-51.4 -5.65 -51.85 -5.15 -52.85 -3.95 -48.8 -1.35 -45.45 0.8 -41.0 2.35 -36.0 4.0 -31.95 4.5 -29.4 4.75 -25.95 4.6 -22.05 4.45 -21.85 3.9 L-21.75 3.6 -21.85 3.45 -27.45 2.95 -32.7 2.4 -38.25 0.65 Q-41.5 -0.4 -44.55 -1.7 -45.8 -2.2 -49.2 -4.3 M58.4 -42.1 Q58.8 -41.4 58.3 -40.2 57.65 -38.7 55.25 -36.85 53.9 -35.75 51.6 -34.15 L49.8 -32.8 47.75 -31.0 Q44.55 -27.75 44.3 -26.55 44.15 -25.95 44.75 -26.05 47.15 -27.25 52.65 -31.75 59.5 -37.35 60.85 -40.6 61.85 -43.0 60.0 -43.8 L59.3 -44.0 57.4 -44.15 58.4 -42.1 M14.5 -3.3 Q11.3 -1.75 8.55 -1.3 L4.8 -0.65 -0.15 0.2 -4.8 0.75 -8.75 1.2 Q-11.05 1.75 -10.65 2.9 -10.45 3.5 -8.8 3.35 L-5.4 3.05 -0.75 2.65 7.15 1.15 Q12.15 -0.1 15.4 -1.65 18.6 -3.25 22.1 -5.45 18.0 -4.95 14.5 -3.3 M13.7 -35.7 L13.5 -35.8 13.65 -35.65 0.6 -33.75 Q-13.85 -31.2 -20.35 -28.4 L-27.3 -25.5 Q-31.15 -23.85 -35.45 -21.6 -36.55 -20.95 -41.95 -18.5 -47.0 -15.9 -47.9 -13.7 -50.15 -8.35 -36.8 -2.75 L-33.9 -1.9 -30.85 -1.05 -33.6 -2.8 -36.55 -4.55 -36.5 -4.7 Q-30.8 -2.5 -22.85 -2.25 L-10.7 -3.05 -22.1 -3.6 -24.55 -4.25 Q-26.75 -4.85 -27.35 -5.25 L-21.35 -4.8 Q-17.6 -4.55 -14.2 -4.75 -3.3 -5.25 2.55 -6.85 12.7 -9.15 17.65 -10.85 26.05 -13.7 29.85 -18.15 L19.7 -14.5 Q13.5 -12.45 10.05 -12.95 22.1 -16.8 28.1 -19.3 41.3 -24.7 43.1 -29.05 L43.4 -30.25 Q39.2 -29.75 32.05 -27.3 24.75 -24.75 20.75 -24.05 L38.75 -31.85 Q53.85 -38.7 55.05 -41.55 55.35 -42.35 55.1 -43.4 54.75 -44.7 53.8 -45.1 L42.5 -45.45 31.55 -44.55 Q38.65 -46.9 47.0 -47.5 57.15 -48.25 63.25 -45.7 65.85 -44.65 64.85 -41.85 63.7 -38.45 61.4 -35.15 50.55 -23.8 44.65 -19.55 34.9 -12.55 25.6 -8.6 30.3 -10.25 37.15 -13.1 46.4 -17.0 50.5 -18.35 L50.45 -18.2 Q24.2 -1.35 9.85 2.15 -4.55 5.65 -12.7 6.1 L-19.85 6.7 -24.9 6.95 Q-34.1 6.1 -41.95 3.85 -48.4 2.0 -52.05 -0.25 -58.45 -4.1 -56.6 -8.55 -54.2 -14.25 -47.7 -19.45 L-40.3 -24.25 -41.8 -23.1 -48.45 -16.8 -48.8 -15.85 Q-37.95 -23.25 -20.4 -29.85 L-12.05 -32.75 Q-7.4 -34.1 -3.35 -34.65 L5.6 -35.75 11.05 -36.15 Q13.9 -36.2 13.7 -35.7" fill="#313030" fill-rule="evenodd" stroke="none"/>
    <path d="M-22.5 7.35 Q-23.3 9.25 -32.9 10.25 L-38.1 9.65 Q-42.85 9.05 -44.65 8.25 -47.1 7.25 -49.55 5.75 -52.55 3.95 -52.65 3.05 L-51.65 3.15 -51.5 3.25 -51.25 3.3 -50.55 3.6 Q-43.75 6.05 -36.65 7.1 -29.15 8.1 -22.4 7.1 L-22.5 7.35" fill="#8c8c8c" fill-rule="evenodd" stroke="none"/>
    <path d="M45.75 -51.3 L45.3 -50.15 43.95 -47.95 39.8 -43.6 45.4 -46.15 Q39.2 -40.9 33.55 -37.55 25.7 -33.0 15.1 -28.8 16.45 -28.7 23.25 -30.65 30.1 -32.65 37.65 -35.9 L32.25 -32.3 Q31.05 -31.55 25.75 -28.95 L17.35 -24.9 Q13.0 -22.9 9.5 -21.9 L15.05 -22.95 18.7 -24.15 22.15 -25.3 24.75 -26.55 Q23.65 -25.35 21.95 -24.3 L18.0 -22.15 Q12.25 -19.25 8.75 -18.3 L0.7 -16.2 -7.6 -15.05 Q-12.6 -14.9 -18.8 -15.3 -25.0 -15.75 -37.3 -20.4 -30.05 -18.35 -26.85 -17.65 L-32.95 -21.0 Q-28.8 -19.3 -25.85 -18.45 L-20.1 -17.4 -14.35 -16.95 Q-11.3 -16.95 -8.3 -17.75 L-19.75 -18.2 Q-22.55 -18.7 -25.75 -19.85 -32.2 -22.0 -34.35 -25.05 -35.3 -26.4 -34.75 -28.55 -34.35 -30.4 -33.2 -31.85 -31.35 -34.15 -29.1 -35.65 L-23.35 -38.75 Q-20.65 -40.0 -16.1 -41.15 L-8.75 -42.8 -11.8 -41.95 Q-24.7 -38.25 -31.15 -31.2 -32.25 -29.95 -32.2 -28.2 -32.15 -26.35 -30.8 -25.4 -28.8 -24.1 -25.65 -23.25 L-20.1 -22.4 -11.65 -22.85 Q-8.1 -23.35 -4.35 -24.5 -9.25 -24.15 -16.0 -25.55 L-8.65 -26.25 -0.35 -27.95 7.25 -29.8 Q12.25 -31.2 17.05 -33.2 L8.95 -28.1 Q15.4 -30.3 20.25 -32.95 L26.4 -36.5 30.9 -39.4 Q34.15 -41.35 45.75 -51.3" fill="#838383" fill-rule="evenodd" stroke="none"/>
  </g>
</svg>
