<?xml version="1.0" encoding="UTF-8" standalone="no"?>
<svg xmlns:xlink="http://www.w3.org/1999/xlink" height="112.0px" width="132.5px" xmlns="http://www.w3.org/2000/svg">
  <g transform="matrix(1.0, 0.0, 0.0, 1.0, 58.25, 60.05)">
    <path d="M21.7 23.9 Q12.05 27.15 7.95 28.05 -3.65 30.65 -9.25 27.9 -11.75 26.6 -12.65 24.85 -13.6 23.05 -12.65 21.15 -11.55 19.1 -10.0 18.0 -8.55 17.0 -5.65 16.05 -3.8 15.45 3.05 14.35 -2.05 15.85 -4.3 17.05 L-8.25 19.35 Q-9.6 20.4 -9.95 22.15 -10.25 23.4 -9.15 24.35 -8.5 24.95 -6.85 25.65 -0.75 28.2 7.8 27.05 L21.7 23.9" fill="#323232" fill-rule="evenodd" stroke="none"/>
    <path d="M20.15 27.8 L15.8 28.15 Q20.4 25.5 26.4 26.7 25.2 25.9 22.9 25.15 L16.25 24.7 Q11.9 24.95 9.4 25.65 L8.95 25.45 18.0 24.05 Q23.5 23.55 27.05 25.0 28.75 25.7 28.95 26.85 29.15 27.95 28.2 30.2 27.2 32.6 25.05 34.45 L21.9 36.9 16.4 39.15 Q12.3 40.65 10.5 40.8 14.85 40.7 19.6 39.1 24.7 37.35 28.7 34.5 L28.9 34.45 Q26.6 37.1 23.0 38.85 L17.0 40.95 Q12.2 42.6 8.45 43.25 L0.95 44.1 3.9 44.35 8.2 44.1 13.0 43.35 15.0 43.0 18.25 42.2 Q10.25 47.15 7.7 47.35 11.65 47.4 13.85 46.45 15.45 45.85 19.4 43.4 L19.2 43.95 Q16.35 46.95 11.95 49.0 7.0 51.3 3.25 50.7 L6.35 51.3 7.05 51.9 5.8 51.95 Q2.55 52.05 1.1 51.4 L0.45 51.15 Q0.25 51.0 0.5 50.45 L1.05 49.9 1.5 49.3 -1.6 49.05 -4.35 48.2 Q-7.3 46.95 -6.7 45.6 -6.5 45.1 -5.45 44.65 -4.35 44.2 -3.65 44.15 L-3.75 44.1 Q-6.2 43.9 -8.3 43.0 L-10.35 41.65 -11.9 40.35 Q-6.25 42.8 -1.9 41.9 L-2.15 41.8 -4.2 41.4 -7.95 40.15 Q-10.65 39.05 -12.25 37.2 -14.35 34.75 -13.2 32.05 L-11.35 28.85 -11.0 28.6 Q-7.85 26.0 -6.1 25.35 L-7.65 27.25 Q-9.05 28.95 -9.45 30.25 -9.95 31.55 -8.3 32.4 -5.7 33.95 1.9 33.1 L6.4 33.4 2.85 33.8 Q1.2 34.2 0.85 34.55 0.45 34.95 0.8 35.3 L1.45 35.9 7.95 36.1 14.65 34.65 Q16.3 34.2 20.65 32.15 25.35 29.95 25.7 29.1 25.85 28.75 25.65 28.5 L25.0 28.1 20.15 27.8" fill="#27271f" fill-rule="evenodd" stroke="none"/>
    <path d="M35.05 6.2 L34.1 6.85 34.0 7.05 35.6 7.25 Q35.95 7.4 36.0 8.05 L35.95 8.7 35.5 10.25 Q34.4 12.9 31.9 14.2 29.4 15.5 29.2 16.05 28.9 16.75 29.45 17.05 L30.65 17.45 Q32.5 18.05 31.3 20.85 29.9 24.25 27.7 26.0 26.2 27.15 21.9 29.3 L26.05 26.7 Q27.7 25.4 28.9 23.5 L29.95 20.9 Q28.5 21.25 26.1 22.35 L22.05 23.9 Q22.45 23.3 24.3 22.2 25.75 21.2 26.2 20.1 L26.6 18.65 25.1 18.5 23.5 18.2 Q21.85 17.5 22.5 16.05 22.65 15.6 25.8 13.25 L30.1 9.7 30.55 8.6 28.95 7.75 Q26.2 6.6 22.3 7.25 L16.6 8.4 16.4 8.3 Q19.35 6.7 23.45 5.75 L28.25 4.8 29.65 4.55 Q29.15 3.25 28.6 3.0 L23.95 2.6 22.9 2.55 21.6 2.65 21.45 2.6 22.65 2.5 27.1 2.1 34.3 2.55 Q35.4 3.05 35.95 5.15 L35.05 6.2 M15.95 10.95 Q8.8 14.9 3.0 15.85 L-8.65 15.5 -10.05 14.8 -9.5 15.35 -9.35 15.5 -9.1 15.6 -9.35 15.45 -9.3 15.4 -9.5 15.35 -8.65 15.5 -6.15 16.7 Q-1.7 18.25 0.4 18.55 5.15 19.15 10.0 18.45 L7.6 18.95 Q0.3 21.2 -6.6 21.6 -13.6 22.0 -20.25 18.25 L-22.65 16.7 Q-26.7 13.55 -25.75 10.05 -24.55 5.75 -17.1 3.45 L-16.5 3.3 Q-8.5 0.95 -5.0 1.4 -6.35 1.8 -8.85 3.4 -11.8 5.25 -12.15 6.5 -12.55 7.75 -11.75 8.35 -10.9 8.95 -10.25 9.1 L-6.85 9.7 1.95 10.1 Q-4.6 12.3 -9.15 12.3 L3.8 13.0 Q7.9 12.75 15.95 10.95" fill="#3f3f31" fill-rule="evenodd" stroke="none"/>
    <path d="M12.75 -34.7 Q9.95 -33.7 1.05 -31.75 -8.1 -29.8 -13.6 -27.1 -24.4 -21.75 -26.8 -20.2 -33.15 -16.3 -35.75 -11.4 -37.75 -7.65 -36.2 -4.8 -34.7 -2.2 -29.0 1.2 -27.65 2.0 -24.45 2.65 L-19.8 3.3 -21.45 3.35 -23.1 3.4 -26.65 3.6 -30.4 2.7 -32.85 2.0 -36.05 1.25 Q-35.05 2.6 -29.65 5.05 -23.3 7.7 -9.75 7.65 2.45 7.6 8.3 5.95 L8.25 6.15 Q6.7 6.95 3.85 7.4 L-1.25 8.2 Q4.75 8.6 11.85 7.4 L27.0 4.85 Q15.65 10.45 -1.85 12.2 -20.95 14.1 -32.4 9.3 -36.75 7.8 -40.65 5.15 -48.2 -0.2 -46.7 -7.0 -45.95 -10.35 -43.2 -14.45 -41.1 -17.6 -38.7 -20.0 -36.3 -22.3 -32.5 -24.4 L-27.4 -26.85 Q-25.45 -27.8 -22.75 -28.35 L-17.95 -29.6 Q-30.9 -24.7 -33.8 -19.05 L-33.85 -19.05 -33.9 -18.95 -33.8 -19.05 Q-25.35 -25.9 -11.9 -29.6 -6.05 -31.25 12.75 -34.7" fill="#2a2a20" fill-rule="evenodd" stroke="none"/>
    <path d="M62.1 -51.0 L62.25 -52.05 61.4 -52.6 Q59.7 -53.3 57.55 -51.55 L52.9 -47.9 49.1 -45.1 46.7 -43.75 44.05 -42.3 37.6 -39.15 37.75 -39.1 Q41.45 -39.15 44.65 -40.35 L51.25 -43.35 Q53.15 -44.2 56.85 -46.65 61.55 -49.65 62.1 -51.0 M44.25 -59.35 Q52.6 -60.55 60.15 -59.75 67.6 -58.95 70.6 -57.15 73.55 -55.35 74.05 -53.8 74.55 -52.4 73.85 -50.7 70.4 -42.45 64.45 -37.25 60.45 -33.85 50.75 -28.55 L50.25 -28.45 50.45 -28.4 50.75 -28.55 Q53.9 -29.15 60.1 -31.3 62.55 -32.05 64.55 -35.15 66.15 -38.05 66.4 -37.95 67.1 -37.65 66.75 -36.25 L66.0 -34.5 Q64.55 -31.0 60.95 -26.65 58.2 -23.25 54.85 -20.25 L55.1 -20.15 Q58.1 -18.9 63.75 -24.6 L69.4 -31.25 Q70.25 -30.25 69.1 -27.9 67.35 -23.65 55.35 -14.8 50.85 -11.65 47.85 -10.05 44.0 -8.05 39.4 -6.75 36.5 -5.9 31.85 -3.5 26.5 -0.75 24.0 0.25 13.2 4.15 4.15 4.05 13.8 1.05 18.55 -0.7 26.9 -3.8 32.15 -8.5 L32.75 -9.95 18.35 -4.2 Q5.45 0.5 2.25 -0.8 L1.9 -0.95 Q6.1 -1.15 13.45 -4.15 19.35 -6.6 23.8 -9.35 10.8 -4.95 -2.85 -6.65 -14.1 -8.1 -28.8 -14.25 -32.95 -16.0 -34.05 -17.05 -16.15 -12.3 -6.75 -11.65 8.45 -10.65 18.35 -17.5 L18.1 -17.6 12.1 -16.85 6.65 -15.95 Q12.75 -18.0 16.35 -20.05 19.85 -22.1 24.65 -26.35 20.55 -24.5 9.45 -21.65 L9.3 -21.75 16.45 -23.85 Q20.3 -25.05 23.3 -27.8 L23.4 -27.95 20.75 -27.1 Q18.8 -26.3 18.15 -26.25 L17.95 -26.35 Q22.7 -28.65 27.65 -33.2 L35.15 -39.95 Q25.8 -34.6 16.25 -30.65 6.05 -26.4 -1.25 -25.1 -15.85 -22.6 -28.9 -25.3 -32.55 -26.15 -36.35 -27.75 L-41.85 -30.15 Q-46.5 -32.2 -47.35 -32.85 L-43.8 -31.55 Q-35.4 -28.2 -27.2 -27.05 L-14.95 -26.2 Q-10.9 -26.5 -1.95 -28.15 6.95 -29.85 14.55 -33.0 22.15 -36.15 26.5 -40.05 12.6 -36.5 4.6 -36.9 L-7.95 -37.95 Q-15.1 -38.85 -19.7 -40.8 L-23.95 -42.75 -24.85 -43.15 Q-17.5 -41.85 -11.25 -41.55 -2.95 -41.0 9.85 -41.65 16.7 -42.0 28.0 -45.4 41.5 -49.55 43.25 -53.7 43.8 -54.95 42.7 -55.4 40.45 -56.35 26.3 -53.35 15.4 -51.0 11.75 -50.75 22.95 -54.5 29.3 -56.25 35.8 -58.15 44.25 -59.35 M32.95 -14.65 Q39.2 -14.5 45.0 -16.8 50.9 -19.05 54.7 -23.05 L55.15 -24.2 Q55.2 -24.4 54.7 -24.6 54.4 -24.75 53.0 -23.9 51.5 -23.0 51.0 -22.95 47.1 -20.45 44.6 -19.1 41.95 -17.7 38.6 -16.55 L32.95 -14.65 M64.05 -47.3 Q64.5 -48.9 63.0 -49.1 L58.5 -45.75 55.4 -43.35 53.4 -41.95 Q51.9 -40.85 49.95 -39.15 L50.15 -39.1 Q53.0 -39.05 58.35 -42.4 63.7 -45.8 64.05 -47.3" fill="#1e1d1d" fill-rule="evenodd" stroke="none"/>
    <path d="M32.55 -21.3 Q27.55 -18.45 23.6 -16.95 L11.7 -12.65 Q3.7 -9.9 -12.75 -6.0 L-1.5 -5.0 -1.6 -4.8 -12.15 -3.85 -25.4 -4.4 -18.9 -6.1 Q-17.3 -6.5 -12.6 -8.55 -20.8 -6.15 -30.7 -7.2 -40.7 -8.35 -47.75 -11.35 -54.8 -14.3 -56.95 -17.3 -59.05 -20.3 -57.8 -25.6 -56.5 -30.95 -49.35 -37.45 -43.2 -43.05 -36.65 -47.25 -38.55 -44.65 -40.75 -42.9 -43.6 -40.5 -45.2 -38.15 L-45.3 -38.05 -45.4 -37.85 -45.2 -38.15 Q-32.9 -46.5 -16.6 -51.05 1.65 -56.3 17.5 -58.2 -0.1 -54.3 -20.75 -46.9 -41.5 -39.5 -47.1 -31.65 -40.4 -36.95 -28.6 -40.8 -16.75 -44.7 -10.55 -46.2 -16.05 -44.25 -26.35 -39.4 -45.15 -30.55 -46.6 -28.25 -48.05 -26.05 -47.75 -25.0 -47.45 -24.0 -46.45 -22.95 -45.4 -21.95 -44.35 -21.5 L-41.75 -20.65 Q-40.05 -20.15 -37.7 -18.55 L-33.05 -15.8 -38.65 -17.5 -40.95 -18.0 -40.8 -17.75 -39.05 -15.95 Q-38.2 -15.15 -37.0 -14.65 -28.8 -11.25 -11.25 -12.6 1.75 -13.6 15.8 -17.85 29.85 -22.1 39.1 -27.3 48.3 -32.5 55.85 -41.05 52.4 -36.15 49.1 -33.05 45.85 -29.95 41.7 -27.05 37.65 -24.1 32.55 -21.3" fill="#323232" fill-rule="evenodd" stroke="none"/>
  </g>
</svg>
