<?xml version="1.0" encoding="UTF-8" standalone="no"?>
<svg xmlns:xlink="http://www.w3.org/1999/xlink" height="102.25px" width="109.9px" xmlns="http://www.w3.org/2000/svg">
  <g transform="matrix(1.0, 0.0, 0.0, 1.0, 51.5, 50.25)">
    <path d="M21.95 -1.0 L28.45 -3.35 Q33.25 -4.85 36.65 -3.45 38.5 -2.65 38.65 -1.7 38.75 -1.0 37.85 1.2 35.9 5.9 20.9 16.0 12.55 21.65 3.25 24.75 L10.85 24.55 Q15.05 23.0 17.25 20.95 14.05 24.15 10.2 26.1 6.35 28.1 2.15 28.65 -2.05 29.25 -6.55 31.15 -11.65 32.5 -15.0 30.85 L-14.9 30.85 Q-13.65 30.7 -11.95 29.95 -10.2 29.25 -9.15 28.45 L-9.35 28.4 -14.9 28.45 Q-18.1 28.4 -20.45 27.45 L-23.0 26.1 -25.4 24.7 -25.3 24.5 Q-22.25 26.25 -18.75 26.85 L-12.45 27.1 -7.0 26.5 Q-1.65 25.55 -1.05 24.1 L-1.0 23.75 -1.05 23.6 -6.45 24.2 Q-10.4 24.45 -13.15 23.25 -15.8 22.15 -16.55 20.8 -13.45 22.5 -9.8 22.3 -7.05 22.2 -4.5 21.05 -6.3 21.7 -9.45 21.05 -11.9 20.55 -14.65 19.4 -17.45 18.25 -18.15 17.7 -20.15 16.3 -19.35 14.35 -18.7 12.8 -16.55 10.75 L-14.65 9.0 -13.5 8.1 -12.45 7.1 -14.95 10.05 Q-16.6 11.95 -17.35 13.75 -17.85 14.95 -17.1 15.8 L-14.95 17.5 Q-13.45 18.5 -10.15 18.9 L-0.3 18.25 -4.55 17.15 -8.4 16.25 Q2.55 15.9 15.2 13.25 L20.85 11.75 Q23.4 10.85 25.65 9.2 L29.95 6.1 Q33.5 3.25 34.25 1.55 L34.6 0.1 Q34.6 -0.6 33.5 -1.05 L27.65 -1.5 21.95 -1.0" fill="#6b6b6b" fill-rule="evenodd" stroke="none"/>
    <path d="M15.15 28.75 Q9.5 32.05 6.85 33.1 L3.95 34.3 2.9 34.75 -1.0 36.65 Q4.05 35.35 7.95 33.45 11.75 31.5 15.15 28.75 M28.95 13.3 Q29.25 14.65 28.75 15.85 27.0 20.05 22.6 23.1 20.05 24.9 14.9 27.65 L15.1 27.75 Q20.0 26.5 27.7 21.9 20.7 28.45 10.5 33.35 L2.4 37.0 -1.0 38.1 -3.8 38.85 0.05 38.55 3.2 38.1 -2.35 40.4 -5.55 41.8 -10.3 43.25 -17.8 44.1 -11.95 42.35 -18.25 42.65 Q-21.0 42.1 -23.45 41.1 L-26.4 39.8 -28.7 38.05 Q-23.5 40.35 -18.8 40.7 L-12.35 40.35 Q-9.2 39.8 -7.55 39.15 L-19.55 38.8 Q-26.6 37.6 -28.95 36.65 -31.3 35.65 -32.4 33.9 -33.55 32.05 -32.8 30.25 -31.05 26.1 -16.15 21.65 L-7.0 19.15 -8.35 19.65 -15.5 22.55 Q-18.0 23.4 -22.45 25.55 -28.2 28.2 -28.95 29.35 -30.2 31.0 -28.8 32.3 -27.5 33.6 -24.85 33.6 -23.25 33.55 -20.6 32.5 -17.5 31.25 -15.1 30.9 L-17.65 32.2 Q-19.85 33.45 -20.15 34.15 -20.35 34.55 -19.95 35.05 -19.45 35.95 -17.5 36.25 L-12.5 36.05 -7.85 35.25 Q0.0 33.95 3.35 31.5 L-0.7 31.85 -3.4 32.15 -3.8 32.0 Q1.15 31.3 11.55 27.15 24.45 22.0 26.3 17.6 L26.85 16.15 26.25 15.05 Q25.5 17.7 22.7 19.55 20.25 21.15 16.9 21.9 L20.8 19.75 Q24.0 17.85 24.75 16.1 L25.0 14.9 Q24.95 14.45 24.25 14.2 22.6 13.5 13.6 14.15 L3.6 14.85 3.65 14.7 15.15 12.3 Q25.25 10.5 27.55 11.45 28.6 11.9 28.95 13.3" fill="#333232" fill-rule="evenodd" stroke="none"/>
    <path d="M-24.5 45.65 L-23.45 44.35 -21.4 43.2 -18.05 41.5 -17.35 41.35 -20.25 43.2 Q-22.5 44.55 -22.95 45.65 -23.4 46.7 -23.05 47.25 L-21.3 48.5 Q-19.8 49.25 -16.85 49.5 L-13.1 49.4 -14.5 50.35 Q-15.4 50.85 -17.4 51.05 -15.15 51.5 -12.1 51.05 L-12.1 51.15 -15.7 52.0 -19.4 51.6 -21.95 50.9 Q-18.85 50.9 -16.5 50.1 L-19.75 50.0 -22.65 49.2 Q-24.0 48.55 -24.35 47.9 L-24.8 46.85 Q-24.85 46.3 -24.5 45.65" fill="#333232" fill-rule="evenodd" stroke="none"/>
    <path d="M2.3 36.1 Q-0.6 36.45 -2.75 37.3 1.7 35.35 3.05 35.1 L5.9 34.95 7.6 35.25 8.25 35.5 Q9.65 36.1 10.1 37.15 10.55 38.1 10.1 39.2 9.4 40.8 6.65 43.05 4.3 44.95 2.8 45.55 L3.6 45.6 5.8 45.1 0.6 48.6 Q-2.2 50.2 -4.15 50.45 L-4.25 50.45 Q0.05 48.3 0.95 47.0 L1.1 46.65 Q-1.45 48.2 -3.65 48.5 -3.1 48.4 -1.15 47.15 0.9 45.85 0.95 45.3 L1.05 45.05 Q-1.2 46.4 -4.8 47.5 -8.75 48.6 -10.8 48.3 L-10.9 48.3 Q-8.1 48.0 -5.3 46.9 -2.45 45.8 0.3 44.4 L5.3 41.8 Q7.7 40.5 8.4 38.9 9.15 37.05 7.45 36.35 L2.3 36.1" fill="#444444" fill-rule="evenodd" stroke="none"/>
    <path d="M-32.45 -6.4 Q-26.6 -4.9 -22.5 -4.5 -18.0 -3.95 -14.05 -4.35 -9.95 -4.8 -6.1 -6.25 -2.5 -7.55 -0.25 -9.25 L-0.05 -9.25 0.0 -9.45 -0.25 -9.25 -10.85 -8.2 -18.95 -7.75 Q-25.65 -8.05 -32.4 -9.25 L-40.6 -10.85 Q-36.85 -7.5 -32.45 -6.4 M39.1 -16.55 Q37.7 -15.75 37.2 -14.95 36.55 -14.05 35.1 -13.4 33.35 -12.75 32.75 -12.2 L35.65 -12.9 Q37.55 -13.55 38.05 -13.95 33.6 -8.85 23.05 -6.55 26.05 -6.4 29.8 -7.7 31.45 -8.3 35.6 -10.2 L35.4 -9.7 Q34.65 -7.85 25.05 -4.0 L19.25 -1.7 Q16.3 -0.35 13.85 1.5 L13.65 1.45 13.6 1.6 13.85 1.5 Q18.65 1.2 28.65 -3.7 40.0 -9.3 42.0 -14.1 43.1 -16.8 41.85 -17.35 L41.45 -17.4 41.2 -17.25 Q40.4 -17.35 39.1 -16.55 M25.55 -30.2 L25.45 -30.0 Q24.05 -29.45 19.65 -26.1 15.2 -22.85 11.55 -21.55 19.9 -21.8 27.35 -25.1 25.8 -24.1 21.85 -22.6 18.15 -21.1 15.95 -20.55 L16.1 -20.5 23.95 -21.35 Q28.5 -22.05 31.7 -23.55 L38.9 -27.05 Q44.8 -30.1 45.6 -32.0 45.8 -32.4 45.6 -32.9 L45.15 -33.5 Q42.45 -34.65 32.7 -35.95 L23.25 -37.0 37.05 -37.2 Q45.15 -37.0 51.35 -34.4 53.9 -33.35 54.65 -32.3 55.65 -31.1 54.7 -28.85 L54.05 -27.4 53.25 -26.75 52.7 -26.65 52.65 -26.45 53.25 -26.75 54.95 -27.85 Q56.8 -29.2 57.15 -30.0 57.8 -31.6 57.6 -32.55 L57.15 -35.2 Q59.1 -31.65 57.95 -28.9 57.6 -28.05 52.15 -23.55 46.7 -19.0 44.8 -18.05 L45.15 -17.0 Q45.5 -16.05 45.3 -15.65 43.0 -10.15 29.1 -2.45 20.7 2.25 12.3 5.65 1.0 10.2 -9.15 12.15 -22.9 14.85 -32.25 12.15 -28.9 12.45 -25.35 12.15 -21.4 11.8 -18.85 10.85 L-19.05 10.75 -21.8 10.65 -24.45 10.65 -25.4 10.3 -25.3 10.1 Q-21.95 9.85 -21.15 8.35 L-26.7 7.95 -32.3 7.15 -39.55 5.05 -44.8 3.25 Q-47.25 2.2 -47.9 1.75 L-51.5 -0.85 -48.15 -0.1 -44.75 0.65 -49.4 -3.25 -48.2 -2.75 -46.35 -1.75 Q-44.75 -0.85 -43.75 -0.45 L-38.4 1.15 -33.7 1.6 Q-35.2 1.6 -39.25 -0.1 -42.3 -1.35 -45.6 -3.6 -48.5 -5.65 -50.25 -7.5 L-48.2 -6.95 -46.2 -6.85 Q-47.8 -7.5 -48.95 -8.95 L-50.6 -11.3 -49.15 -10.7 -47.75 -10.85 Q-49.35 -11.8 -50.1 -12.5 -51.3 -13.75 -50.65 -15.25 L-48.6 -18.1 Q-46.85 -20.05 -42.95 -22.35 -39.05 -24.65 -34.55 -26.45 -29.9 -28.3 -24.25 -28.95 L-10.25 -29.4 Q-29.15 -26.9 -36.55 -22.6 -44.0 -18.3 -46.1 -15.3 -37.2 -17.5 -33.5 -17.6 -37.35 -16.65 -39.9 -15.1 L-38.95 -14.75 -31.05 -14.35 Q-26.95 -14.7 -23.35 -15.8 L-23.55 -15.85 -25.75 -16.0 Q-27.35 -16.2 -30.2 -17.1 L-23.5 -17.45 Q-19.65 -18.0 -18.45 -18.7 L-28.1 -21.65 Q-10.15 -21.0 -3.0 -22.0 L10.25 -24.25 Q16.3 -25.5 25.55 -30.2" fill="#191919" fill-rule="evenodd" stroke="none"/>
    <path d="M29.5 -39.6 L29.4 -39.4 Q22.6 -34.2 19.0 -32.45 15.45 -30.75 3.3 -26.3 L3.5 -26.25 Q6.85 -26.3 11.85 -27.5 16.85 -28.75 19.95 -29.95 18.2 -28.3 11.7 -25.9 7.75 -24.5 0.5 -22.7 L-0.15 -22.75 -0.2 -22.55 0.5 -22.7 Q5.95 -22.7 17.3 -26.1 27.85 -29.2 33.95 -32.1 24.6 -23.8 7.05 -18.0 -10.8 -12.15 -20.75 -14.45 L-20.65 -14.65 Q-16.9 -15.25 -12.8 -16.45 -8.55 -17.65 -6.05 -18.95 -10.55 -18.6 -16.6 -19.1 -23.5 -19.7 -26.5 -21.1 L-19.25 -21.9 Q-14.6 -22.5 -12.4 -23.5 L-12.6 -23.6 Q-19.7 -22.3 -25.55 -25.25 -31.4 -28.2 -32.55 -30.45 -33.7 -32.8 -33.3 -34.85 -33.0 -37.0 -30.6 -39.05 -28.25 -41.15 -23.4 -43.1 -18.55 -45.05 -11.75 -45.45 L-2.95 -46.1 -14.7 -43.45 Q-24.25 -41.05 -25.55 -38.8 -26.95 -36.6 -26.0 -35.2 -25.05 -33.8 -22.8 -32.85 -19.95 -31.7 -12.5 -30.7 -9.65 -30.35 -7.65 -30.6 L-2.8 -31.0 Q0.1 -31.1 11.1 -33.4 22.0 -35.7 29.5 -39.6" fill="#333232" fill-rule="evenodd" stroke="none"/>
    <path d="M26.85 -49.55 Q32.4 -48.7 37.45 -46.55 43.45 -44.05 41.5 -39.45 38.9 -33.2 27.2 -26.8 17.15 -21.4 11.6 -20.75 L11.4 -20.85 Q18.35 -23.4 24.1 -27.05 30.85 -31.35 33.7 -35.8 L33.95 -36.8 Q29.3 -33.25 26.2 -31.95 23.05 -30.65 18.9 -29.85 L18.7 -29.9 Q23.25 -32.15 26.3 -33.95 32.0 -37.35 33.65 -41.25 34.6 -43.55 32.35 -45.45 30.9 -46.7 27.65 -48.05 24.35 -49.45 17.25 -50.25 L26.85 -49.55" fill="#5b5b5b" fill-rule="evenodd" stroke="none"/>
  </g>
</svg>
