<?xml version="1.0" encoding="UTF-8" standalone="no"?>
<svg xmlns:xlink="http://www.w3.org/1999/xlink" height="36.75px" width="7.9px" xmlns="http://www.w3.org/2000/svg">
  <g transform="matrix(1.0, 0.0, 0.0, 1.0, 4.35, 37.2)">
    <path d="M0.1 -23.4 L0.4 -23.65 -0.05 -24.35 -0.65 -23.45 -1.15 -23.0 -0.6 -22.3 0.1 -23.4 M0.3 -36.6 Q0.55 -36.95 1.2 -37.1 L2.4 -37.15 3.2 -36.6 Q3.5 -36.2 3.25 -35.85 L1.45 -33.15 3.3 -30.6 3.4 -30.15 3.4 -29.55 1.6 -26.85 3.45 -24.3 Q3.7 -23.9 3.45 -23.55 L3.1 -23.2 3.05 -22.65 1.2 -19.85 2.95 -17.4 3.0 -17.25 3.15 -17.1 Q3.4 -16.7 3.15 -16.35 L1.3 -13.55 3.1 -11.1 3.2 -10.7 3.3 -10.6 Q3.55 -10.2 3.3 -9.85 L1.45 -7.05 3.2 -4.6 3.25 -4.45 3.45 -4.3 Q3.7 -3.9 3.45 -3.55 L1.6 -0.75 1.85 -0.45 -2.0 -0.45 -1.85 -0.7 -3.8 -3.4 Q-4.05 -3.75 -3.8 -4.15 L-3.75 -4.3 -3.65 -4.45 -2.0 -7.0 -3.95 -9.7 Q-4.2 -10.05 -3.95 -10.45 L-3.9 -10.55 -3.75 -10.95 -2.15 -13.5 -4.1 -16.2 Q-4.35 -16.55 -4.1 -16.95 L-4.0 -17.1 -3.9 -17.25 -2.25 -19.8 -4.2 -22.5 Q-4.5 -22.85 -4.25 -23.25 L-3.7 -23.7 -3.55 -24.15 -1.85 -26.8 -3.7 -29.4 -3.85 -30.0 -3.7 -30.45 -2.0 -33.1 -3.85 -35.7 Q-4.1 -36.05 -3.9 -36.45 -3.7 -36.8 -3.1 -37.0 L-1.9 -37.05 -1.0 -36.55 -0.3 -35.65 0.3 -36.6 M-0.15 -29.35 L0.25 -30.0 -0.2 -30.65 -0.65 -29.95 -0.15 -29.35 M-0.95 -16.65 L-0.5 -16.0 -0.05 -16.7 -0.5 -17.3 -0.95 -16.65 M-0.85 -10.25 L-0.35 -9.5 0.2 -10.3 -0.35 -11.0 -0.85 -10.25 M-0.65 -3.85 L-0.2 -3.2 0.25 -3.9 -0.25 -4.5 -0.65 -3.85" fill="#0c100f" fill-rule="evenodd" stroke="none"/>
    <path d="M0.95 -37.1 L2.15 -37.15 2.95 -36.6 Q3.25 -36.2 3.0 -35.85 L1.2 -33.15 3.05 -30.6 3.15 -30.15 3.15 -29.55 1.35 -26.85 3.2 -24.3 Q3.45 -23.9 3.2 -23.55 L2.85 -23.2 2.8 -22.65 0.95 -19.85 2.7 -17.4 2.75 -17.25 2.9 -17.1 Q3.15 -16.7 2.9 -16.35 L1.05 -13.55 2.85 -11.1 2.95 -10.7 3.05 -10.6 Q3.3 -10.2 3.05 -9.85 L1.2 -7.05 2.95 -4.6 3.0 -4.45 3.2 -4.3 Q3.45 -3.9 3.2 -3.55 L1.35 -0.75 1.6 -0.45 0.1 -0.45 -0.1 -10.15 -0.05 -10.25 -0.1 -10.3 -0.4 -23.0 -0.15 -23.4 0.15 -23.65 -0.3 -24.3 -0.4 -24.15 -0.5 -29.45 -0.4 -29.3 0.0 -30.0 -0.45 -30.6 -0.55 -30.45 -0.65 -35.75 -0.55 -35.6 0.05 -36.6 Q0.3 -36.95 0.95 -37.1" fill="#4f5b56" fill-rule="evenodd" stroke="none"/>
  </g>
</svg>
