<?xml version="1.0" encoding="UTF-8" standalone="no"?>
<svg xmlns:xlink="http://www.w3.org/1999/xlink" height="25.95px" width="7.45px" xmlns="http://www.w3.org/2000/svg">
  <g transform="matrix(1.0, 0.0, 0.0, 1.0, 4.15, 26.35)">
    <path d="M1.3 -26.35 L2.0 -26.3 2.75 -25.85 2.7 -25.25 0.95 -22.8 1.6 -22.05 2.1 -22.0 Q2.65 -21.9 2.85 -21.55 L2.8 -20.95 1.0 -18.55 2.5 -16.75 Q2.7 -16.45 2.5 -16.15 L2.45 -16.1 3.0 -15.75 2.95 -15.15 1.15 -12.75 2.55 -11.05 3.1 -10.65 Q3.3 -10.35 3.05 -10.05 L1.25 -7.65 2.75 -5.85 2.8 -5.75 3.2 -5.4 Q3.4 -5.1 3.15 -4.8 L1.35 -2.4 2.8 -0.6 3.2 -0.4 2.95 -0.4 2.55 -0.6 1.1 -2.35 2.9 -4.8 2.95 -5.4 2.55 -5.75 2.5 -5.85 1.0 -7.65 2.8 -10.05 2.85 -10.65 2.3 -11.05 0.9 -12.7 2.7 -15.15 2.75 -15.75 2.2 -16.1 2.25 -16.15 Q2.45 -16.45 2.25 -16.75 L0.75 -18.5 2.55 -20.95 Q2.8 -21.25 2.6 -21.55 2.4 -21.9 1.85 -22.0 L1.35 -22.0 0.7 -22.8 2.45 -25.25 Q2.7 -25.55 2.5 -25.85 L1.75 -26.3 1.3 -26.35 M-0.55 -0.4 L-3.15 -0.4 -3.05 -0.45 -1.7 -2.35 -3.55 -4.65 -3.6 -5.25 -3.2 -5.6 -3.15 -5.7 -1.8 -7.6 -3.65 -9.9 Q-3.9 -10.2 -3.7 -10.5 L-3.2 -10.9 -1.9 -12.7 -3.75 -15.0 Q-4.0 -15.3 -3.8 -15.6 L-3.4 -15.95 -3.4 -16.0 Q-3.6 -16.3 -3.4 -16.6 L-2.05 -18.5 -3.9 -20.8 -3.95 -21.4 Q-3.75 -21.75 -3.2 -21.85 L-2.7 -21.95 -2.1 -22.75 -4.0 -25.1 -4.05 -25.7 -3.3 -26.15 -2.25 -26.2 Q-1.7 -26.1 -1.45 -25.8 L-0.7 -24.95 -0.85 -24.8 -1.05 -25.0 -0.9 -16.25 -0.7 -16.55 -0.55 -16.35 -0.8 -16.05 -1.25 -15.7 -1.2 -15.7 -0.5 -14.85 -0.65 -14.7 -0.85 -14.9 -0.75 -10.45 -0.55 -10.75 -0.4 -10.55 -0.65 -10.25 -0.75 -10.15 -0.4 -9.75 -0.55 -9.6 -0.75 -9.8 -0.65 -5.35 -0.45 -5.65 -0.3 -5.45 -0.55 -5.15 -0.75 -5.0 -0.3 -4.5 -0.4 -4.35 -0.65 -4.55 -0.55 -0.4 M-0.7 -20.65 L-0.75 -20.5 -0.95 -20.6 -0.8 -20.85 -0.7 -20.65" fill="#0c100f" fill-rule="evenodd" stroke="none"/>
    <path d="M-0.7 -24.95 L-0.1 -25.85 Q0.15 -26.15 0.7 -26.25 L1.3 -26.35 1.75 -26.3 2.5 -25.85 Q2.7 -25.55 2.45 -25.25 L0.7 -22.8 1.35 -22.0 1.85 -22.0 Q2.4 -21.9 2.6 -21.55 2.8 -21.25 2.55 -20.95 L0.75 -18.5 2.25 -16.75 Q2.45 -16.45 2.25 -16.15 L2.2 -16.1 2.75 -15.75 2.7 -15.15 0.9 -12.7 2.3 -11.05 2.85 -10.65 2.8 -10.05 1.0 -7.65 2.5 -5.85 2.55 -5.75 2.95 -5.4 2.9 -4.8 1.1 -2.35 2.55 -0.6 2.95 -0.4 -0.55 -0.4 -0.65 -4.55 -0.4 -4.35 -0.3 -4.5 0.05 -5.0 -0.1 -5.2 -0.3 -5.45 -0.45 -5.65 -0.65 -5.35 -0.75 -9.8 -0.55 -9.6 -0.4 -9.75 -0.1 -10.2 -0.2 -10.3 -0.4 -10.55 -0.55 -10.75 -0.75 -10.45 -0.85 -14.9 -0.65 -14.7 -0.5 -14.85 0.15 -15.75 -0.35 -16.1 -0.55 -16.35 -0.7 -16.55 -0.9 -16.25 -1.05 -25.0 -0.85 -24.8 -0.7 -24.95 M-0.7 -20.65 L-0.8 -20.85 -0.95 -20.6 -0.75 -20.5 -0.7 -20.65" fill="#4f5b56" fill-rule="evenodd" stroke="none"/>
  </g>
</svg>
