<?xml version="1.0" encoding="UTF-8" standalone="no"?>
<svg xmlns:xlink="http://www.w3.org/1999/xlink" height="45.55px" width="32.0px" xmlns="http://www.w3.org/2000/svg">
  <g transform="matrix(1.0, 0.0, 0.0, 1.0, 1.0, 15.0)">
    <path d="M3.8 -12.55 Q1.95 -12.35 3.05 -10.75 L1.55 -10.7 Q0.35 -10.4 1.65 -9.05 L0.85 -7.75 Q0.3 -6.45 1.4 -6.1 L1.5 -6.05 0.9 -4.8 0.85 -4.6 0.75 -4.25 Q-0.3 -3.95 0.95 -2.65 L0.15 -1.35 Q-0.3 -0.25 0.45 0.2 L0.45 1.15 0.2 1.65 Q-0.15 2.8 0.45 3.25 L0.45 4.3 0.2 5.3 Q-0.15 7.4 0.4 8.7 L0.55 9.5 0.7 10.15 0.55 11.55 Q0.3 12.7 0.5 13.65 L0.65 14.75 0.15 16.85 Q-0.05 18.45 0.55 18.5 0.6 19.15 0.8 19.6 L0.7 20.95 1.0 22.4 0.9 22.7 Q0.6 24.75 1.65 24.3 L1.9 24.2 2.1 24.45 1.5 24.9 1.4 26.65 Q1.45 28.4 2.35 28.65 4.5 28.45 4.75 28.05 L6.1 28.95 9.4 28.8 Q12.35 28.9 12.6 28.15 L12.35 28.9 13.2 29.25 15.1 29.2 17.1 29.55 Q19.15 29.65 19.3 28.5 L19.6 28.9 21.55 28.8 23.2 29.2 Q24.9 29.45 25.0 28.65 L26.1 28.8 Q27.25 28.75 27.45 27.85 28.95 28.15 29.15 27.4 29.7 25.2 29.0 25.1 28.6 25.0 28.8 24.25 29.65 24.4 29.65 23.95 L29.55 22.75 29.75 22.35 Q30.15 21.35 29.2 20.95 L29.15 20.8 29.3 19.6 Q29.65 19.6 29.65 19.3 L29.6 18.3 29.75 17.9 Q30.1 16.95 29.3 16.55 L29.3 16.45 29.65 16.1 29.55 14.65 29.7 14.25 Q30.35 12.75 29.6 12.1 L29.1 11.8 29.45 10.8 29.5 10.6 29.75 10.1 Q30.05 9.25 29.5 8.85 L29.25 7.7 29.35 5.7 29.3 5.2 29.35 5.0 29.45 3.65 Q29.75 2.7 29.25 2.25 L29.35 1.8 Q29.65 0.5 29.25 -0.2 L29.4 -0.65 Q29.75 -1.6 29.35 -2.1 29.4 -2.9 28.75 -3.6 L29.05 -4.6 29.4 -5.35 Q29.9 -6.75 28.7 -7.2 L29.4 -8.5 Q30.05 -10.25 27.95 -10.6 28.25 -11.45 28.05 -12.05 27.65 -13.3 25.25 -12.2 25.2 -12.85 24.75 -13.25 23.9 -14.05 22.0 -12.6 L21.2 -13.3 Q20.15 -13.7 19.2 -12.1 18.95 -12.9 18.3 -13.3 17.0 -14.1 15.1 -12.2 L13.85 -13.25 Q12.5 -13.95 11.85 -12.2 L11.0 -13.5 Q10.05 -14.5 9.4 -12.9 L7.95 -13.85 Q6.35 -14.45 5.9 -12.4 L3.8 -12.55 Z" fill="none" stroke="#321b5f" stroke-linecap="round" stroke-linejoin="round" stroke-width="2.0"/>
    <path d="M10.25 -7.1 L11.1 -5.8 Q11.75 -7.55 13.15 -6.85 13.85 -6.5 14.4 -5.8 16.3 -7.7 17.55 -6.9 18.2 -6.5 18.45 -5.7 19.4 -7.3 20.45 -6.9 L21.3 -6.2 Q23.2 -7.65 24.05 -6.85 24.5 -6.45 24.55 -5.8 26.95 -6.9 27.35 -5.65 27.55 -5.05 27.25 -4.2 29.35 -3.85 28.7 -2.1 28.4 -1.2 27.65 -0.4 28.55 0.15 28.35 1.55 L28.0 2.8 Q28.9 3.75 28.4 4.8 L27.75 5.6 Q29.15 6.2 28.65 8.25 L27.9 10.15 Q29.05 11.05 28.4 15.05 29.45 15.45 29.05 16.5 L28.4 17.5 Q27.7 19.1 28.3 19.25 L28.75 20.6 28.95 22.5 Q28.95 23.3 26.25 22.25 26.0 23.15 25.15 23.05 L24.3 22.8 Q24.2 23.6 22.5 23.7 L20.8 23.7 Q19.45 24.1 18.9 23.4 L18.6 22.65 Q18.45 23.8 16.4 23.7 L14.4 23.35 12.5 23.4 11.65 23.05 11.9 22.3 Q11.65 23.05 8.65 22.95 7.6 24.15 6.3 23.6 L5.2 22.8 1.7 23.15 Q0.8 22.9 0.7 20.95 L0.8 19.05 Q2.6 17.6 0.95 18.4 -0.1 18.9 0.15 16.85 L0.65 14.65 Q1.5 12.65 0.45 8.8 -0.15 7.45 0.2 5.3 L0.65 3.4 Q-0.2 3.0 0.2 1.65 L0.8 0.35 Q-0.4 0.0 0.15 -1.35 L0.95 -2.65 Q-0.35 -4.0 0.85 -4.3 L2.35 -4.35 Q1.25 -5.95 3.1 -6.15 L5.2 -6.0 Q5.65 -8.0 7.2 -7.45 8.0 -7.15 8.65 -6.5 9.3 -8.1 10.25 -7.1" fill="#5b3aad" fill-rule="evenodd" stroke="none"/>
    <path d="M29.45 10.8 L29.1 11.8 Q30.5 12.35 29.7 14.25 L28.6 16.0 Q29.75 16.9 29.1 20.9 30.15 21.3 29.75 22.35 L29.1 23.35 Q28.4 24.95 29.0 25.1 29.7 25.2 29.15 27.4 28.95 28.15 27.45 27.85 27.25 28.75 26.1 28.8 L25.0 28.65 Q24.9 29.45 23.2 29.2 L21.55 28.8 19.6 28.9 19.3 28.5 Q19.15 29.65 17.1 29.55 L15.1 29.2 13.2 29.25 12.35 28.9 12.6 28.15 Q12.35 28.9 9.4 28.8 L6.1 28.95 4.75 28.05 Q4.5 28.45 2.35 28.65 1.45 28.4 1.4 26.65 L1.5 24.9 Q3.3 23.5 1.65 24.3 0.6 24.75 0.9 22.7 L1.4 20.5 Q0.45 19.85 0.45 17.0 L0.7 14.3 Q0.1 12.95 0.7 10.95 L1.4 9.25 Q0.5 8.85 0.9 7.5 L1.5 6.2 Q0.3 5.85 0.85 4.5 L1.65 3.2 Q0.35 1.85 1.55 1.55 L3.05 1.5 Q1.95 -0.1 3.8 -0.3 L5.9 -0.15 Q6.35 -2.15 7.95 -1.6 L9.4 -0.65 Q10.05 -2.25 11.0 -1.25 L11.85 0.05 Q12.5 -1.7 13.85 -1.0 L15.1 0.05 Q17.0 -1.85 18.3 -1.05 18.95 -0.65 19.2 0.15 20.15 -1.45 21.2 -1.05 L22.0 -0.35 Q23.9 -1.8 24.75 -1.0 25.2 -0.6 25.25 0.05 27.65 -1.05 28.05 0.2 28.25 0.85 27.95 1.7 30.05 2.0 29.4 3.75 L28.35 5.45 Q29.25 6.0 29.1 7.4 L28.75 8.65 Q29.65 9.6 29.45 10.8" fill="#493291" fill-rule="evenodd" stroke="none"/>
    <path d="M7.95 -6.05 L9.4 -5.1 Q10.05 -6.7 11.0 -5.7 L11.85 -4.35 Q12.5 -6.1 13.85 -5.4 L15.1 -4.35 Q17.0 -6.25 18.3 -5.45 18.95 -5.05 19.2 -4.3 20.15 -5.9 21.2 -5.5 L22.0 -4.8 Q23.9 -6.2 24.75 -5.4 25.2 -5.0 25.25 -4.35 27.65 -5.45 28.05 -4.2 28.25 -3.6 27.95 -2.75 30.05 -2.4 29.4 -0.65 L28.35 1.0 Q29.25 1.6 29.1 2.95 L28.75 4.2 Q29.65 5.2 29.15 6.25 L28.45 7.05 Q29.85 7.6 29.35 9.65 L28.6 11.55 Q29.75 12.5 29.1 16.45 30.15 16.85 29.75 17.9 L29.1 18.9 Q28.4 20.6 29.0 20.65 29.25 20.7 29.45 22.05 L29.65 23.95 Q29.65 24.75 26.95 23.7 26.7 24.6 25.85 24.5 L25.0 24.2 Q24.9 25.0 23.2 25.15 L21.5 25.1 Q20.15 25.5 19.6 24.85 L19.3 24.1 Q19.15 25.25 17.1 25.1 L15.1 24.75 13.2 24.8 12.35 24.45 12.6 23.7 12.4 23.95 Q13.0 22.85 12.85 21.8 12.75 20.75 12.1 21.95 L11.95 22.15 10.55 23.9 9.9 24.4 9.4 24.4 Q8.35 25.55 7.0 25.0 L5.9 24.2 2.45 24.6 Q1.5 24.35 1.4 22.4 L1.5 20.5 Q3.3 19.05 1.65 19.85 0.6 20.35 0.9 18.3 L1.4 16.1 Q0.45 15.45 0.45 12.6 L0.7 9.9 Q0.1 8.55 0.7 6.55 L1.4 4.85 Q0.5 4.45 0.9 3.05 L1.5 1.75 Q0.3 1.45 0.85 0.1 L1.65 -1.2 Q0.35 -2.55 1.55 -2.85 L3.05 -2.9 Q1.95 -4.5 3.8 -4.7 L5.9 -4.55 Q6.35 -6.6 7.95 -6.05" fill="#5b3aad" fill-rule="evenodd" stroke="none"/>
    <path d="M11.0 -10.35 L11.85 -9.05 Q12.5 -10.8 13.85 -10.1 L15.1 -9.05 Q17.0 -10.95 18.3 -10.15 18.95 -9.75 19.2 -8.95 20.15 -10.55 21.2 -10.15 L22.0 -9.45 Q23.9 -10.9 24.75 -10.1 25.2 -9.7 25.25 -9.05 27.65 -10.15 28.05 -8.9 28.25 -8.25 27.95 -7.4 30.05 -7.1 29.4 -5.35 L28.35 -3.65 Q29.25 -3.1 29.1 -1.7 L28.75 -0.45 Q29.65 0.5 29.15 1.55 L28.45 2.4 Q29.85 2.95 29.35 5.0 L28.6 6.9 Q29.75 7.8 29.1 11.8 30.15 12.2 29.75 13.25 L29.1 14.25 Q28.35 15.9 29.0 16.0 L29.45 17.35 29.65 19.3 Q29.65 20.05 26.95 19.0 26.7 19.9 25.85 19.8 L25.0 19.55 Q24.9 20.35 23.2 20.5 L21.5 20.45 Q20.15 20.85 19.6 20.15 L19.3 19.4 Q19.15 20.55 17.1 20.45 L15.1 20.1 13.2 20.15 12.35 19.8 12.6 19.05 Q12.35 19.8 9.4 19.7 8.35 20.9 7.0 20.35 L5.9 19.55 2.45 19.9 Q1.5 19.7 1.4 17.7 L1.5 15.8 Q3.3 14.4 1.65 15.2 0.6 15.7 0.9 13.6 L1.4 11.4 Q0.45 10.75 0.45 7.9 L0.7 5.2 Q0.1 3.85 0.7 1.85 L1.4 0.15 Q0.5 -0.25 0.9 -1.6 L1.5 -2.9 Q0.3 -3.25 0.85 -4.6 L1.65 -5.85 Q0.35 -7.2 1.55 -7.55 L3.05 -7.6 Q1.95 -9.2 3.8 -9.4 L5.9 -9.25 Q6.35 -11.25 7.95 -10.7 L9.4 -9.75 Q10.05 -11.35 11.0 -10.35" fill="#6d3ec6" fill-rule="evenodd" stroke="none"/>
    <path d="M11.0 -13.5 L11.85 -12.2 Q12.5 -13.95 13.85 -13.25 L15.1 -12.2 Q17.0 -14.1 18.3 -13.3 18.95 -12.9 19.2 -12.1 20.15 -13.7 21.2 -13.3 L22.0 -12.6 Q23.9 -14.05 24.75 -13.25 25.2 -12.85 25.25 -12.2 27.65 -13.3 28.05 -12.05 28.25 -11.45 27.95 -10.6 30.05 -10.25 29.4 -8.5 29.1 -7.65 28.35 -6.85 29.25 -6.25 29.1 -4.85 L28.75 -3.6 Q29.65 -2.65 29.15 -1.6 L28.45 -0.8 Q29.85 -0.25 29.35 1.8 L28.6 3.75 Q29.75 4.65 29.1 8.65 30.15 9.05 29.75 10.1 L29.1 11.05 Q28.4 12.7 29.0 12.85 L29.45 14.2 29.65 16.1 Q29.65 16.9 26.95 15.85 26.7 16.75 25.85 16.65 L25.0 16.35 Q24.9 17.15 23.2 17.3 L21.5 17.25 Q20.15 17.65 19.6 17.0 L19.3 16.25 Q19.15 17.4 17.1 17.25 L15.1 16.9 13.2 17.0 12.35 16.65 12.6 15.9 Q12.35 16.65 9.4 16.55 8.35 17.75 7.0 17.15 L5.9 16.35 2.45 16.75 Q1.5 16.5 1.4 14.55 L1.5 12.65 Q3.3 11.2 1.65 12.0 0.6 12.5 0.9 10.45 L1.4 8.25 Q0.45 7.6 0.45 4.75 L0.7 2.05 Q0.1 0.7 0.7 -1.3 L1.4 -3.0 Q0.5 -3.4 0.9 -4.8 L1.5 -6.1 Q0.3 -6.4 0.85 -7.75 L1.65 -9.05 Q0.35 -10.4 1.55 -10.7 L3.05 -10.75 Q1.95 -12.35 3.8 -12.55 L5.9 -12.4 Q6.35 -14.45 7.95 -13.85 L9.4 -12.9 Q10.05 -14.5 11.0 -13.5" fill="#8448e5" fill-rule="evenodd" stroke="none"/>
    <path d="M10.15 -11.9 Q10.7 -13.3 11.55 -12.45 L12.25 -11.3 Q12.8 -12.8 14.0 -12.2 L15.1 -11.3 Q16.75 -12.95 17.85 -12.25 18.45 -11.9 18.65 -11.25 19.5 -12.6 20.4 -12.25 L21.1 -11.65 Q22.7 -12.9 23.45 -12.2 L23.9 -11.3 Q26.0 -12.25 26.35 -11.15 26.5 -10.6 26.25 -9.9 28.05 -9.6 27.5 -8.1 27.2 -7.35 26.55 -6.65 27.35 -6.15 27.2 -4.95 L26.9 -3.85 Q27.7 -3.0 27.25 -2.1 L26.7 -1.4 Q27.9 -0.95 27.45 0.85 L26.8 2.5 Q27.8 3.3 27.25 6.75 28.15 7.1 27.8 8.0 L27.25 8.85 Q26.6 10.25 27.15 10.4 27.35 10.45 27.55 11.6 L27.7 13.2 Q27.7 13.9 25.35 13.0 25.0 14.2 23.65 13.45 23.55 14.55 20.65 14.2 19.45 14.6 19.0 14.0 L18.75 13.35 Q18.6 14.3 16.85 14.2 L15.1 13.9 13.45 13.95 12.7 13.65 12.95 13.0 Q12.7 13.65 10.15 13.6 9.25 14.65 8.1 14.15 L7.15 13.45 4.15 13.8 Q3.35 13.6 3.25 11.85 L3.35 10.2 Q4.9 9.0 3.45 9.65 2.55 10.1 2.8 8.3 L3.2 6.4 Q2.4 5.85 2.4 3.4 L2.6 1.05 Q2.1 -0.15 2.6 -1.85 L3.2 -3.35 Q2.45 -3.7 2.85 -4.9 L3.35 -6.0 Q2.3 -6.3 2.75 -7.45 L3.45 -8.55 Q2.35 -9.75 3.4 -10.0 L4.7 -10.05 Q3.7 -11.45 5.35 -11.6 L7.15 -11.45 Q7.55 -13.2 8.9 -12.7 9.55 -12.5 10.15 -11.9" fill="#a07dff" fill-rule="evenodd" stroke="none"/>
    <path d="M10.6 -11.15 Q11.1 -12.45 11.9 -11.65 L12.55 -10.6 Q13.05 -11.95 14.15 -11.4 L15.1 -10.6 Q16.6 -12.1 17.6 -11.45 L18.3 -10.55 Q19.05 -11.8 19.9 -11.45 L20.55 -10.9 Q22.0 -12.0 22.65 -11.4 L23.05 -10.6 25.25 -10.5 25.2 -9.35 Q26.85 -9.05 26.35 -7.7 26.1 -7.0 25.5 -6.4 26.6 -5.65 25.8 -3.85 26.5 -3.1 26.1 -2.3 L25.6 -1.65 Q26.65 -1.2 26.3 0.4 L25.7 1.9 Q26.6 2.6 26.1 5.75 26.9 6.05 26.6 6.9 L26.1 7.65 Q25.5 8.95 26.0 9.05 L26.4 10.15 26.55 11.65 Q26.55 12.25 24.4 11.45 24.1 12.55 22.85 11.85 22.75 12.85 20.15 12.55 19.05 12.85 18.6 12.35 L18.4 11.75 Q18.3 12.65 16.7 12.55 L15.1 12.25 13.65 12.3 12.95 12.05 13.15 11.45 Q12.95 12.05 10.6 11.95 9.8 12.9 8.75 12.45 L7.9 11.85 5.15 12.15 Q4.45 11.95 4.35 10.4 L4.45 8.9 Q5.85 7.8 4.55 8.4 3.7 8.8 3.95 7.15 L4.35 5.45 Q3.55 4.95 3.6 2.75 L3.8 0.6 Q3.35 -0.5 3.8 -2.05 L4.35 -3.35 Q3.65 -3.7 3.95 -4.8 L4.45 -5.8 Q3.5 -6.05 3.9 -7.1 L4.55 -8.1 Q3.5 -9.2 4.5 -9.45 L5.65 -9.45 Q4.8 -10.75 6.25 -10.85 L7.9 -10.75 Q8.3 -12.35 9.5 -11.9 L10.6 -11.15" fill="#ae77f7" fill-rule="evenodd" stroke="none"/>
    <path d="M6.8 -8.25 L8.5 -8.45 Q10.4 -8.2 11.35 -5.8 10.5 -4.95 9.45 -4.85 7.45 -4.6 6.8 -8.25" fill="#763dd3" fill-rule="evenodd" stroke="none"/>
    <path d="M6.8 -8.9 L8.9 -9.45 Q11.05 -9.45 11.35 -6.45 10.5 -5.6 9.45 -5.5 7.45 -5.25 6.8 -8.9" fill="#b180ff" fill-rule="evenodd" stroke="none"/>
    <path d="M6.8 -8.9 L7.9 -7.05 Q9.35 -5.4 11.35 -6.45 10.5 -5.6 9.55 -5.5 7.55 -5.25 6.8 -8.9" fill="#9c6df7" fill-rule="evenodd" stroke="none"/>
    <path d="M7.7 -9.1 L9.25 -9.35 Q10.85 -9.1 11.35 -6.45 L10.65 -7.6 Q9.6 -8.85 7.7 -9.1" fill="#d4bdff" fill-rule="evenodd" stroke="none"/>
    <path d="M3.25 3.65 L4.5 2.5 Q6.2 1.65 8.4 3.1 8.15 4.3 7.4 4.95 5.9 6.3 3.25 3.65" fill="#763dd3" fill-rule="evenodd" stroke="none"/>
    <path d="M2.9 3.1 L4.3 1.45 Q6.05 0.25 8.0 2.55 7.75 3.75 7.0 4.4 5.5 5.75 2.9 3.1" fill="#b180ff" fill-rule="evenodd" stroke="none"/>
    <path d="M2.9 3.1 L4.85 4.05 Q7.0 4.55 8.0 2.55 7.8 3.7 7.05 4.35 5.6 5.65 2.9 3.1" fill="#9c6df7" fill-rule="evenodd" stroke="none"/>
    <path d="M3.55 2.4 L4.65 1.35 Q6.1 0.65 8.0 2.55 7.55 2.15 6.8 1.95 5.25 1.55 3.55 2.4" fill="#d4bdff" fill-rule="evenodd" stroke="none"/>
    <path d="M25.65 10.7 Q23.05 13.35 21.55 12.0 L20.55 10.15 Q22.7 8.7 24.4 9.55 L25.65 10.7" fill="#763dd3" fill-rule="evenodd" stroke="none"/>
    <path d="M26.0 10.15 Q23.4 12.8 21.9 11.45 L20.9 9.6 Q22.85 7.3 24.65 8.5 25.5 9.1 26.0 10.15" fill="#b180ff" fill-rule="evenodd" stroke="none"/>
    <path d="M21.0 9.75 Q22.05 11.65 24.05 11.1 25.15 10.85 26.0 10.15 23.3 12.7 21.85 11.4 L21.0 9.75" fill="#9c6df7" fill-rule="evenodd" stroke="none"/>
    <path d="M25.4 9.5 Q23.7 8.6 22.1 9.0 L20.9 9.6 Q22.8 7.7 24.3 8.4 25.05 8.75 25.4 9.5" fill="#d4bdff" fill-rule="evenodd" stroke="none"/>
    <path d="M18.6 4.8 Q17.05 6.35 16.2 5.55 L15.6 4.45 Q16.85 3.65 17.85 4.15 L18.6 4.8" fill="#763dd3" fill-rule="evenodd" stroke="none"/>
    <path d="M18.8 4.5 Q17.25 6.05 16.4 5.25 L15.8 4.15 Q16.95 2.8 18.0 3.5 L18.8 4.5" fill="#b180ff" fill-rule="evenodd" stroke="none"/>
    <path d="M15.85 4.25 Q16.45 5.35 17.65 5.05 L18.8 4.5 Q17.25 6.0 16.35 5.25 L15.85 4.25" fill="#9c6df7" fill-rule="evenodd" stroke="none"/>
    <path d="M18.45 4.1 Q17.45 3.55 16.55 3.8 L15.8 4.15 Q16.95 3.05 17.8 3.45 L18.45 4.1" fill="#d4bdff" fill-rule="evenodd" stroke="none"/>
    <path d="M25.4 -6.55 Q22.8 -3.9 21.3 -5.25 L20.3 -7.1 Q22.45 -8.5 24.15 -7.65 L25.4 -6.55" fill="#763dd3" fill-rule="evenodd" stroke="none"/>
    <path d="M25.75 -7.05 Q23.15 -4.4 21.65 -5.75 L20.65 -7.6 Q22.6 -9.9 24.35 -8.7 25.25 -8.1 25.75 -7.05" fill="#b180ff" fill-rule="evenodd" stroke="none"/>
    <path d="M25.75 -7.05 Q23.05 -4.5 21.6 -5.8 L20.75 -7.4 Q21.75 -5.6 23.8 -6.1 24.9 -6.4 25.75 -7.05" fill="#9c6df7" fill-rule="evenodd" stroke="none"/>
    <path d="M25.15 -7.75 Q23.45 -8.6 21.85 -8.2 L20.65 -7.6 Q22.55 -9.5 24.05 -8.8 24.8 -8.45 25.15 -7.75" fill="#d4bdff" fill-rule="evenodd" stroke="none"/>
    <path d="M10.3 18.5 Q9.35 17.7 8.6 16.15 7.05 12.95 11.0 12.2 12.75 14.9 11.7 16.95 11.2 18.0 10.3 18.5" fill="#580dd3" fill-rule="evenodd" stroke="none"/>
    <path d="M10.55 17.0 Q7.35 13.8 9.0 12.0 9.8 11.1 11.25 10.8 14.0 13.2 12.55 15.35 L10.55 17.0" fill="#b180ff" fill-rule="evenodd" stroke="none"/>
    <path d="M10.55 17.0 Q7.45 13.7 9.05 11.9 9.85 11.05 11.25 10.8 8.8 12.0 9.45 14.65 9.75 15.95 10.55 17.0" fill="#9c6df7" fill-rule="evenodd" stroke="none"/>
    <path d="M11.35 16.25 Q12.45 14.2 11.95 12.3 L11.25 10.8 Q13.55 13.15 12.65 14.95 12.25 15.85 11.35 16.25" fill="#d4bdff" fill-rule="evenodd" stroke="none"/>
    <path d="M25.65 1.35 Q25.65 2.15 24.85 2.15 24.0 2.15 24.0 1.35 L24.25 0.75 Q24.5 0.5 24.85 0.5 L25.4 0.75 25.65 1.35" fill="#c29cff" fill-rule="evenodd" stroke="none"/>
    <path d="M8.15 9.9 Q8.15 10.35 7.75 10.7 L6.8 11.0 5.85 10.7 Q5.45 10.35 5.45 9.9 5.45 9.45 5.85 9.15 6.25 8.8 6.8 8.8 7.35 8.8 7.75 9.15 8.15 9.45 8.15 9.9" fill="#bd94ff" fill-rule="evenodd" stroke="none"/>
    <path d="M10.45 -1.0 Q10.45 -0.55 10.05 -0.2 L9.05 0.1 8.1 -0.2 Q7.7 -0.55 7.7 -1.0 7.7 -1.45 8.1 -1.75 L9.05 -2.05 10.05 -1.75 Q10.45 -1.45 10.45 -1.0" fill="#d0b3ff" fill-rule="evenodd" stroke="none"/>
    <path d="M6.85 22.55 L6.55 23.2 Q6.25 23.5 5.8 23.5 5.4 23.5 5.1 23.2 4.8 22.95 4.8 22.55 4.8 22.2 5.1 21.9 L5.8 21.65 6.55 21.9 6.85 22.55" fill="#4e359b" fill-rule="evenodd" stroke="none"/>
    <path d="M24.15 23.5 L23.85 24.15 23.15 24.4 22.45 24.15 Q22.15 23.9 22.15 23.5 22.15 23.1 22.45 22.8 L23.15 22.55 Q23.55 22.55 23.85 22.8 L24.15 23.5" fill="#4e359b" fill-rule="evenodd" stroke="none"/>
    <path d="M17.3 19.3 Q17.3 20.0 16.55 20.0 15.8 20.0 15.8 19.3 L16.05 18.8 16.55 18.6 17.1 18.8 17.3 19.3" fill="#8448e5" fill-rule="evenodd" stroke="none"/>
    <path d="M27.45 18.5 Q27.45 19.2 26.75 19.2 26.0 19.2 26.0 18.5 26.0 17.8 26.75 17.8 27.45 17.8 27.45 18.5" fill="#8448e5" fill-rule="evenodd" stroke="none"/>
  </g>
</svg>
