<?xml version="1.0" encoding="UTF-8" standalone="no"?>
<svg xmlns:xlink="http://www.w3.org/1999/xlink" height="46.95px" width="32.0px" xmlns="http://www.w3.org/2000/svg">
  <g transform="matrix(1.0, 0.0, 0.0, 1.0, 1.0, 12.7)">
    <path d="M2.9 30.25 Q2.9 28.6 6.55 27.45 10.2 26.25 15.3 26.25 20.4 26.25 24.05 27.45 27.65 28.6 27.65 30.25 27.65 31.9 24.05 33.05 20.4 34.25 15.3 34.25 10.2 34.25 6.55 33.05 2.9 31.9 2.9 30.25" fill="url(#gradient0)" fill-rule="evenodd" stroke="none"/>
    <path d="M1.5 -10.2 Q2.35 -11.0 3.4 -11.35 L5.45 -11.7 24.25 -11.7 25.5 -11.55 Q27.25 -11.4 28.55 -10.2 30.0 -8.75 30.0 -6.75 L30.0 16.65 Q30.0 18.65 28.55 20.05 L28.0 20.55 27.05 25.15 Q26.65 27.15 25.2 28.5 23.7 29.85 21.6 29.85 L8.95 29.85 Q6.85 29.85 5.4 28.5 4.15 27.35 3.95 25.85 L3.55 24.5 2.25 20.85 1.5 20.05 Q0.55 19.15 0.2 18.05 L0.05 17.4 0.0 16.65 0.0 -6.75 Q0.0 -8.75 1.5 -10.2 Z" fill="none" stroke="#2a1d0e" stroke-linecap="round" stroke-linejoin="round" stroke-width="2.0"/>
    <path d="M5.4 28.5 Q3.9 27.15 3.9 25.25 L1.6 16.05 Q1.6 13.3 8.95 13.3 L21.6 13.3 26.05 13.65 Q28.4 14.2 28.4 15.9 L26.65 25.25 Q26.65 27.15 25.2 28.5 23.7 29.85 21.6 29.85 L8.95 29.85 Q6.85 29.85 5.4 28.5" fill="#422613" fill-rule="evenodd" stroke="none"/>
    <path d="M5.3 27.5 Q3.85 26.15 3.85 24.25 L1.55 15.05 Q1.55 12.3 8.85 12.3 L21.55 12.3 25.95 12.65 Q28.3 13.2 28.3 14.9 L26.55 24.25 Q26.55 26.15 25.1 27.5 23.6 28.85 21.55 28.85 L8.85 28.85 Q6.8 28.85 5.3 27.5" fill="#563417" fill-rule="evenodd" stroke="none"/>
    <path d="M5.8 22.4 L6.25 25.35 Q6.95 28.45 8.1 29.05 7.1 28.85 6.0 28.2 3.85 26.8 3.5 24.3 L2.45 19.1 3.45 20.55 Q4.7 22.05 5.8 22.4" fill="#492b17" fill-rule="evenodd" stroke="none"/>
    <path d="M24.5 22.4 Q26.15 21.55 27.6 19.2 L26.55 24.4 Q26.2 26.85 24.05 28.25 L21.95 29.1 Q23.1 28.5 23.9 25.4 L24.5 22.4" fill="#492b17" fill-rule="evenodd" stroke="none"/>
    <path d="M26.15 9.1 Q27.8 10.45 27.8 12.35 L27.8 19.7 Q27.8 21.6 26.15 22.95 24.5 24.3 22.15 24.3 L7.85 24.3 Q5.5 24.3 3.85 22.95 2.2 21.6 2.2 19.7 L2.2 12.35 Q2.2 10.45 3.85 9.1 5.5 7.75 7.85 7.75 L22.15 7.75 Q24.5 7.75 26.15 9.1" fill="#3d2411" fill-rule="evenodd" stroke="none"/>
  </g>
  <defs>
    <radialGradient cx="0" cy="0" gradientTransform="matrix(0.0147, 0.0, 0.0, 0.0057, 15.3, 30.25)" gradientUnits="userSpaceOnUse" id="gradient0" r="819.2" spreadMethod="pad">
      <stop offset="0.00784313725490196" stop-color="#4d3212" stop-opacity="0.8"/>
      <stop offset="1.0" stop-color="#6b5438" stop-opacity="0.08627451"/>
    </radialGradient>
  </defs>
</svg>
