<?xml version="1.0" encoding="UTF-8" standalone="no"?>
<svg xmlns:xlink="http://www.w3.org/1999/xlink" height="49.85px" width="32.5px" xmlns="http://www.w3.org/2000/svg">
  <g transform="matrix(1.0, 0.0, 0.0, 1.0, 1.0, 15.0)">
    <path d="M30.2 28.7 Q30.2 31.25 25.95 33.05 21.7 34.85 15.7 34.85 9.75 34.85 5.45 33.05 1.2 31.25 1.2 28.7 1.2 26.15 5.45 24.35 9.75 22.55 15.7 22.55 21.7 22.55 25.95 24.35 30.2 26.15 30.2 28.7" fill="url(#gradient0)" fill-rule="evenodd" stroke="none"/>
    <path d="M16.9 -14.0 Q17.65 -13.95 18.15 -13.25 18.65 -12.6 18.6 -12.0 L18.55 -11.8 18.55 -11.55 18.85 -10.65 18.8 -10.45 19.1 -10.15 19.35 -9.45 Q19.75 -8.9 19.6 -8.25 L19.6 -7.65 19.6 -7.5 19.6 -7.45 19.7 -6.6 Q19.7 -6.35 19.85 -6.25 L19.9 -5.8 19.85 -5.5 19.85 -5.2 19.65 -4.75 19.5 -4.45 19.65 -3.9 19.8 -3.65 19.9 -3.45 20.1 -3.6 20.15 -3.8 Q20.2 -4.3 20.7 -4.65 L20.7 -4.75 20.7 -5.05 Q20.8 -5.65 21.5 -6.15 22.15 -6.65 22.75 -6.55 L22.95 -6.55 23.25 -6.45 24.15 -5.7 Q24.55 -5.0 24.45 -4.4 L24.4 -4.25 24.4 -4.1 Q24.8 -3.55 24.65 -3.0 L24.6 -2.7 24.7 -2.5 24.9 -1.9 24.95 -1.8 25.15 -0.9 25.05 -0.45 Q25.25 -0.3 25.05 0.2 L24.85 0.65 25.2 1.0 Q25.45 1.15 25.2 1.9 L24.85 2.7 24.7 3.25 24.8 3.5 24.9 3.7 Q26.75 1.65 28.65 2.05 L29.45 2.55 Q30.3 3.2 30.45 4.15 30.95 7.15 24.55 11.75 L22.8 12.95 21.95 13.65 21.05 14.1 20.8 14.25 21.1 14.6 21.45 15.05 Q24.5 11.9 26.55 13.45 28.8 15.05 28.45 18.3 28.1 21.7 23.25 22.5 L23.2 23.0 Q22.85 28.3 18.7 29.45 L14.6 29.7 14.5 29.7 Q9.0 29.15 7.7 25.1 L7.6 24.8 Q5.0 25.2 3.9 22.85 2.6 20.1 3.65 17.7 4.7 15.2 8.5 17.3 L8.9 16.45 5.8 15.85 Q3.25 15.5 2.0 14.0 -0.45 11.0 0.1 7.45 0.65 3.95 3.3 4.2 5.45 4.4 7.75 8.75 L8.45 10.15 8.4 9.3 7.8 8.25 7.75 8.15 7.5 8.0 Q7.15 7.75 7.05 6.6 L7.2 6.1 7.3 5.5 Q7.15 5.2 7.4 4.75 L7.6 4.4 7.35 4.3 Q7.05 4.1 7.0 3.25 L7.05 3.2 Q6.9 2.9 7.2 2.4 L7.3 2.0 7.15 1.5 6.75 0.75 Q6.5 0.0 6.8 -0.15 L7.15 -0.5 6.9 -0.95 Q6.75 -1.5 6.95 -1.6 L7.0 -1.6 6.85 -2.05 Q6.8 -2.4 7.1 -2.95 L7.1 -3.0 7.3 -3.65 7.45 -3.85 7.35 -4.2 Q7.2 -4.75 7.6 -5.3 L7.55 -5.55 Q7.45 -6.15 7.85 -6.85 8.3 -7.55 9.0 -7.7 L9.05 -7.75 9.25 -7.75 Q9.9 -7.8 10.5 -7.3 11.15 -6.8 11.25 -6.2 L11.3 -5.95 11.35 -5.8 Q11.8 -5.45 11.85 -5.0 L11.9 -4.8 12.25 -4.55 12.3 -4.65 12.55 -4.95 12.5 -5.5 12.35 -6.35 Q12.3 -7.1 12.65 -7.2 L13.05 -7.5 13.05 -7.55 12.95 -7.95 Q12.9 -8.5 13.2 -8.6 L13.2 -9.05 13.65 -9.85 13.7 -9.9 Q13.7 -10.15 14.05 -10.45 L14.25 -10.6 14.25 -10.95 Q14.25 -11.45 14.8 -12.0 L14.8 -12.25 Q14.85 -12.85 15.5 -13.4 15.95 -13.85 16.45 -13.95 L16.85 -14.0 16.9 -14.0 Z" fill="none" stroke="#002b4a" stroke-linecap="round" stroke-linejoin="round" stroke-width="2.0"/>
    <path d="M24.55 11.75 L20.45 14.5 20.95 11.25 Q21.75 8.7 23.1 6.3 25.8 1.45 28.65 2.05 L29.45 2.55 Q30.3 3.2 30.45 4.15 30.95 7.15 24.55 11.75" fill="url(#gradient1)" fill-rule="evenodd" stroke="none"/>
    <path d="M24.4 5.45 Q24.95 4.5 25.75 3.7 27.35 2.05 28.45 2.65 L29.6 4.3 Q29.85 6.35 25.45 8.35 L22.55 11.0 24.4 5.45" fill="url(#gradient2)" fill-rule="evenodd" stroke="none"/>
    <path d="M8.9 16.35 Q12.2 9.8 16.95 11.55 19.35 12.45 21.1 14.6 23.5 17.35 23.2 23.0 22.75 29.75 16.1 29.75 9.2 29.75 7.7 25.1 6.4 21.3 8.9 16.35" fill="url(#gradient3)" fill-rule="evenodd" stroke="none"/>
    <path d="M16.4 21.0 Q16.4 21.7 16.0 22.25 15.6 22.75 15.05 22.75 14.5 22.75 14.1 22.25 13.7 21.7 13.7 21.0 13.7 20.3 14.1 19.75 14.5 19.25 15.05 19.25 15.6 19.25 16.0 19.75 16.4 20.3 16.4 21.0" fill="#077d4d" fill-rule="evenodd" stroke="none"/>
    <path d="M16.85 -14.0 Q17.6 -13.95 18.1 -13.05 18.6 -12.25 18.55 -11.45 L18.45 -10.95 Q18.8 -10.3 18.75 -9.7 L18.7 -9.35 19.2 -8.2 19.55 -7.05 19.3 -6.35 19.05 -5.7 Q19.05 -5.35 19.4 -4.6 L19.7 -3.45 19.45 -2.7 19.2 -1.95 Q19.2 -1.55 19.6 -0.7 19.95 0.1 19.9 0.6 L19.45 1.75 18.9 2.9 18.95 3.75 Q18.85 5.2 17.65 6.2 16.45 7.15 14.9 7.05 13.35 6.95 12.3 5.8 11.3 4.65 11.4 3.2 L11.6 2.3 11.3 1.15 Q11.0 0.4 11.05 -0.05 L11.55 -1.65 Q11.95 -2.45 12.3 -2.65 12.55 -2.75 12.4 -3.2 L12.15 -4.0 12.65 -5.15 13.25 -6.25 13.2 -6.85 13.05 -7.5 13.55 -8.6 14.15 -9.55 14.15 -10.05 Q14.25 -10.85 14.75 -11.35 L14.75 -11.7 Q14.85 -12.5 15.45 -13.25 16.1 -14.05 16.85 -14.0" fill="url(#gradient4)" fill-rule="evenodd" stroke="none"/>
    <path d="M16.9 -14.0 Q17.65 -13.95 18.15 -13.25 18.65 -12.6 18.6 -12.0 L18.5 -11.65 Q18.85 -11.25 18.85 -10.65 L18.75 -10.35 19.35 -9.45 Q19.75 -8.9 19.6 -8.25 19.5 -7.9 19.7 -6.6 19.7 -6.35 19.85 -6.25 L19.9 -5.8 19.65 -5.2 19.45 -4.65 Q19.45 -4.3 19.8 -3.65 L20.15 -2.65 19.9 -2.0 19.7 -1.4 19.9 -0.3 20.1 0.75 Q20.0 1.6 19.7 1.9 L18.75 2.45 17.25 3.55 Q16.05 4.3 14.65 3.95 13.3 3.55 12.75 2.75 L11.9 1.55 11.05 0.85 Q10.8 0.5 11.0 -0.6 L11.55 -1.65 Q11.5 -1.95 11.85 -2.3 12.3 -2.65 12.3 -2.95 L12.0 -3.8 Q11.8 -4.2 12.4 -4.75 L12.5 -5.5 12.35 -6.35 Q12.3 -7.1 12.65 -7.2 L13.05 -7.5 13.2 -9.05 13.65 -9.85 14.25 -10.6 14.25 -10.95 Q14.25 -11.45 14.8 -12.0 L14.8 -12.25 Q14.85 -12.85 15.5 -13.4 16.15 -14.05 16.9 -14.0" fill="#1064b3" fill-rule="evenodd" stroke="none"/>
    <path d="M16.85 -13.4 Q17.5 -13.35 17.95 -12.85 18.4 -12.4 18.35 -11.95 L18.3 -11.7 18.6 -11.0 18.55 -10.8 19.1 -10.15 Q19.4 -9.7 19.3 -9.25 19.2 -9.0 19.4 -8.1 L19.5 -7.8 19.6 -7.5 19.35 -7.05 19.2 -6.65 Q19.2 -6.45 19.55 -5.95 L19.85 -5.2 19.65 -4.75 19.45 -4.3 19.7 -3.55 19.8 -2.8 Q19.75 -2.2 19.5 -1.95 L18.65 -1.55 17.35 -0.75 15.1 -0.55 Q13.9 -0.8 13.4 -1.4 L12.7 -2.3 11.9 -2.8 Q11.7 -3.05 11.85 -3.85 L12.3 -4.6 12.6 -5.05 12.95 -5.55 12.7 -6.15 Q12.5 -6.4 13.0 -6.8 L13.1 -7.35 12.95 -7.95 Q12.9 -8.5 13.2 -8.6 13.55 -8.65 13.6 -8.8 L13.7 -9.9 Q13.7 -10.15 14.05 -10.45 L14.6 -11.0 14.55 -11.25 15.05 -12.0 15.05 -12.2 Q15.1 -12.65 15.6 -13.0 16.2 -13.45 16.85 -13.4" fill="#2997ff" fill-rule="evenodd" stroke="none"/>
    <path d="M15.65 -8.15 Q15.55 -7.25 14.7 -7.35 14.35 -7.35 14.15 -7.65 13.9 -7.9 13.95 -8.3 L14.25 -8.9 14.85 -9.1 Q15.75 -9.0 15.65 -8.15" fill="#40afff" fill-rule="evenodd" stroke="none"/>
    <path d="M18.6 -7.95 L18.3 -7.25 17.7 -7.0 Q17.35 -7.05 17.15 -7.35 16.9 -7.65 16.95 -8.05 17.05 -9.0 17.85 -9.0 L18.4 -8.65 18.6 -7.95" fill="#40afff" fill-rule="evenodd" stroke="none"/>
    <path d="M15.2 -3.15 L14.95 -2.7 14.4 -2.55 13.9 -2.75 Q13.7 -3.0 13.75 -3.25 13.75 -4.0 14.55 -3.9 L15.05 -3.65 15.2 -3.15" fill="#40afff" fill-rule="evenodd" stroke="none"/>
    <path d="M13.3 1.05 Q13.2 1.65 12.6 1.55 12.35 1.55 12.15 1.35 L12.0 0.95 Q12.0 0.4 12.7 0.4 13.3 0.5 13.3 1.05" fill="#4099ff" fill-rule="evenodd" stroke="none"/>
    <path d="M17.1 -0.05 Q17.0 0.55 16.4 0.45 15.7 0.45 15.8 -0.15 15.8 -0.8 16.45 -0.7 17.1 -0.7 17.1 -0.05" fill="#40afff" fill-rule="evenodd" stroke="none"/>
    <path d="M18.1 -3.1 Q18.0 -2.6 17.5 -2.6 16.95 -2.7 17.05 -3.2 L17.2 -3.55 17.6 -3.65 Q18.1 -3.65 18.1 -3.1" fill="#40afff" fill-rule="evenodd" stroke="none"/>
    <path d="M17.55 -5.85 L17.35 -5.4 16.85 -5.3 Q16.2 -5.3 16.3 -5.95 16.3 -6.55 16.95 -6.55 17.65 -6.45 17.55 -5.85" fill="#40afff" fill-rule="evenodd" stroke="none"/>
    <path d="M18.25 -8.85 Q18.25 -8.2 17.6 -8.3 L17.15 -8.5 17.0 -8.95 Q17.1 -9.55 17.7 -9.55 18.35 -9.45 18.25 -8.85" fill="#a2ff80" fill-rule="evenodd" stroke="none"/>
    <path d="M15.8 -8.95 Q15.8 -8.45 15.2 -8.45 14.7 -8.45 14.7 -9.05 14.7 -9.55 15.3 -9.55 15.9 -9.45 15.8 -8.95" fill="#a2ff80" fill-rule="evenodd" stroke="none"/>
    <path d="M16.1 -5.95 Q16.1 -5.45 15.5 -5.45 15.0 -5.55 15.0 -6.05 15.1 -6.55 15.6 -6.55 16.2 -6.45 16.1 -5.95" fill="#a2ff80" fill-rule="evenodd" stroke="none"/>
    <path d="M18.95 -4.9 L18.75 -4.5 18.35 -4.4 Q17.85 -4.4 17.85 -4.95 17.95 -5.55 18.45 -5.45 19.05 -5.45 18.95 -4.9" fill="#a2ff80" fill-rule="evenodd" stroke="none"/>
    <path d="M13.85 -3.95 Q13.75 -3.45 13.25 -3.45 12.65 -3.55 12.75 -4.05 12.75 -4.55 13.3 -4.55 13.85 -4.55 13.85 -3.95" fill="#a2ff80" fill-rule="evenodd" stroke="none"/>
    <path d="M16.9 -3.05 Q16.8 -2.55 16.3 -2.55 L15.9 -2.75 15.8 -3.15 Q15.8 -3.65 16.4 -3.65 16.9 -3.55 16.9 -3.05" fill="#69ffae" fill-rule="evenodd" stroke="none"/>
    <path d="M18.9 -2.2 Q18.8 -1.7 18.3 -1.7 17.7 -1.8 17.8 -2.3 17.8 -2.8 18.35 -2.8 18.9 -2.7 18.9 -2.2" fill="#63ffda" fill-rule="evenodd" stroke="none"/>
    <path d="M14.3 4.85 Q14.25 5.3 13.6 5.3 13.0 5.2 13.05 4.75 13.05 4.25 13.7 4.35 14.3 4.35 14.3 4.85" fill="#4080ff" fill-rule="evenodd" stroke="none"/>
    <path d="M17.25 2.65 Q17.15 3.35 16.4 3.35 15.7 3.25 15.7 2.55 15.8 1.75 16.55 1.85 17.25 1.85 17.25 2.65" fill="#40c6ff" fill-rule="evenodd" stroke="none"/>
    <path d="M13.4 -0.9 Q13.3 -0.15 12.55 -0.25 11.85 -0.25 11.85 -1.05 11.95 -1.8 12.7 -1.7 13.4 -1.7 13.4 -0.9" fill="#40afff" fill-rule="evenodd" stroke="none"/>
    <path d="M19.25 1.4 Q19.15 1.9 18.7 1.8 18.25 1.8 18.25 1.35 18.25 0.95 18.75 0.95 19.25 0.95 19.25 1.4" fill="#40afff" fill-rule="evenodd" stroke="none"/>
    <path d="M13.45 -2.3 L13.05 -2.05 Q12.65 -2.05 12.75 -2.35 12.75 -2.7 13.1 -2.6 13.45 -2.6 13.45 -2.3" fill="#40e9ff" fill-rule="evenodd" stroke="none"/>
    <path d="M14.5 -5.65 L14.05 -5.25 Q13.65 -5.25 13.65 -5.7 13.75 -6.1 14.15 -6.1 14.6 -6.1 14.5 -5.65" fill="#40afff" fill-rule="evenodd" stroke="none"/>
    <path d="M18.4 -11.55 Q18.3 -10.85 17.8 -10.4 L17.8 -10.2 17.6 -9.8 17.2 -9.7 17.15 -9.7 16.5 -9.3 16.05 -9.5 15.9 -10.0 15.95 -10.1 15.75 -10.2 15.75 -10.0 15.55 -9.55 15.15 -9.4 Q14.55 -9.4 14.65 -10.1 14.65 -10.7 15.25 -10.7 14.95 -11.15 14.95 -11.8 15.05 -12.5 15.55 -13.0 16.1 -13.45 16.8 -13.4 17.5 -13.35 18.0 -12.8 18.45 -12.25 18.4 -11.55" fill="#63c6ff" fill-rule="evenodd" stroke="none"/>
    <path d="M18.1 4.85 L17.8 5.35 Q17.55 5.6 17.25 5.55 16.5 5.45 16.5 4.75 16.6 3.95 17.35 4.05 18.1 4.05 18.1 4.85" fill="#4080ff" fill-rule="evenodd" stroke="none"/>
    <path d="M14.95 1.45 Q14.85 1.95 14.45 1.85 14.0 1.85 14.0 1.35 14.0 1.15 14.15 1.05 L14.5 0.95 Q14.95 0.95 14.95 1.45" fill="#40b9ff" fill-rule="evenodd" stroke="none"/>
    <path d="M18.95 -0.8 L18.8 -0.5 18.45 -0.4 Q18.0 -0.4 18.0 -0.9 18.1 -1.4 18.5 -1.3 18.95 -1.3 18.95 -0.8" fill="#40b9ff" fill-rule="evenodd" stroke="none"/>
    <path d="M13.25 2.6 Q13.25 3.0 12.75 3.0 L12.35 2.55 12.5 2.3 12.85 2.2 Q13.35 2.2 13.25 2.6" fill="#40a3ff" fill-rule="evenodd" stroke="none"/>
    <path d="M16.55 -11.5 Q16.45 -10.85 15.85 -10.95 15.2 -10.95 15.3 -11.6 15.4 -12.2 15.95 -12.2 16.55 -12.1 16.55 -11.5" fill="#5cf3ff" fill-rule="evenodd" stroke="none"/>
    <path d="M17.3 -12.1 Q17.2 -11.5 16.6 -11.5 15.9 -11.6 16.0 -12.2 16.1 -12.8 16.7 -12.8 17.4 -12.7 17.3 -12.1" fill="#5cf3ff" fill-rule="evenodd" stroke="none"/>
    <path d="M24.25 -3.5 Q24.65 -2.85 24.5 -2.1 L24.35 -1.65 Q24.35 -1.35 24.7 -0.55 L24.85 0.6 24.55 1.2 24.3 1.8 24.6 3.0 24.75 4.25 24.35 4.95 Q24.05 5.35 24.25 5.5 24.55 5.75 24.7 6.65 L24.75 8.3 24.2 9.4 23.55 10.45 Q23.45 10.75 23.5 11.35 23.25 12.8 21.95 13.65 20.65 14.5 19.1 14.2 17.55 13.95 16.7 12.75 15.8 11.5 16.1 10.05 L16.35 9.25 16.15 8.05 Q15.95 7.25 16.05 6.8 16.15 6.3 16.7 5.6 L17.4 4.5 17.4 3.7 17.35 2.9 Q17.45 2.45 17.9 1.9 L18.55 0.9 18.5 0.2 18.45 -0.5 Q18.55 -1.0 19.1 -1.55 L19.9 -2.5 19.95 -2.9 Q20.1 -3.55 20.6 -4.05 L20.65 -4.5 Q20.75 -5.3 21.45 -5.95 22.2 -6.7 22.95 -6.55 23.65 -6.45 24.1 -5.5 24.5 -4.65 24.35 -3.85 L24.25 -3.5" fill="url(#gradient5)" fill-rule="evenodd" stroke="none"/>
    <path d="M24.35 -4.15 Q24.8 -3.55 24.65 -3.0 L24.55 -2.7 24.95 -1.8 25.15 -0.9 24.85 0.6 Q24.85 0.8 25.2 1.0 25.45 1.15 25.2 1.9 L24.85 2.7 Q24.6 3.25 24.75 3.45 25.2 4.15 24.9 4.45 L24.35 5.15 Q24.3 5.45 24.6 5.9 24.85 6.35 24.7 6.65 24.6 6.85 24.95 7.75 24.8 8.9 24.5 9.15 L23.5 9.65 22.4 10.65 Q21.6 11.25 20.2 11.3 18.75 11.3 17.85 10.3 L16.65 8.9 15.9 8.1 Q15.7 7.7 15.8 6.9 L16.25 5.95 16.75 4.95 16.75 4.3 16.7 3.6 Q16.75 3.2 17.25 2.7 L17.9 1.85 17.85 1.25 17.8 0.6 17.95 0.25 18.15 -0.15 18.75 -1.7 Q18.75 -2.35 19.3 -2.8 L20.1 -3.55 20.15 -3.8 Q20.2 -4.3 20.7 -4.7 L20.7 -5.05 Q20.8 -5.65 21.5 -6.15 22.2 -6.7 22.9 -6.55 23.65 -6.45 24.15 -5.7 24.55 -5.0 24.45 -4.4 L24.35 -4.15" fill="#1586f0" fill-rule="evenodd" stroke="none"/>
    <path d="M24.45 -3.4 L24.35 -3.15 24.7 -2.5 24.9 -1.85 24.7 -0.75 25.0 -0.45 Q25.25 -0.35 25.05 0.2 L24.8 0.75 Q24.6 1.15 24.7 1.3 25.1 1.8 24.85 2.05 L24.4 2.55 24.6 3.1 24.75 3.6 25.0 4.45 24.65 5.45 23.8 5.75 22.85 6.45 Q22.2 6.9 20.95 6.85 19.7 6.8 18.85 6.1 L17.8 5.0 17.1 4.45 17.0 3.55 17.35 2.85 17.8 2.15 17.75 1.7 17.65 1.2 Q17.7 0.9 18.15 0.55 L18.7 -0.05 18.65 -0.5 18.55 -0.95 18.7 -1.2 18.85 -1.45 19.3 -2.6 Q19.3 -3.05 19.75 -3.4 20.3 -3.7 20.45 -3.9 L20.45 -4.1 20.95 -4.7 20.95 -4.95 Q21.05 -5.4 21.6 -5.75 L22.8 -6.0 Q23.45 -5.9 23.9 -5.35 L24.2 -4.4 24.15 -4.2 24.45 -3.4" fill="#4abeff" fill-rule="evenodd" stroke="none"/>
    <path d="M22.55 -0.65 L22.9 -1.2 23.55 -1.35 24.1 -1.0 24.2 -0.35 Q24.05 0.5 23.2 0.4 22.4 0.2 22.55 -0.65" fill="#40afff" fill-rule="evenodd" stroke="none"/>
    <path d="M19.6 -1.15 Q19.75 -2.1 20.6 -2.0 21.45 -1.85 21.25 -0.85 L20.9 -0.2 Q20.6 0.05 20.25 -0.05 19.9 -0.1 19.7 -0.4 L19.6 -1.15" fill="#40afff" fill-rule="evenodd" stroke="none"/>
    <path d="M22.45 3.7 Q23.15 3.85 23.05 4.55 22.85 5.2 22.2 5.1 21.9 5.05 21.7 4.8 L21.6 4.3 Q21.7 3.6 22.45 3.7" fill="#40afff" fill-rule="evenodd" stroke="none"/>
    <path d="M22.3 8.8 Q22.4 8.25 23.05 8.35 23.7 8.55 23.6 9.05 23.5 9.6 22.85 9.5 22.2 9.4 22.3 8.8" fill="#4099ff" fill-rule="evenodd" stroke="none"/>
    <path d="M18.95 6.85 Q19.05 6.25 19.7 6.35 19.95 6.4 20.1 6.6 L20.2 7.05 19.95 7.45 19.45 7.5 Q18.85 7.4 18.95 6.85" fill="#40afff" fill-rule="evenodd" stroke="none"/>
    <path d="M18.8 3.65 Q18.9 3.1 19.4 3.2 19.95 3.3 19.85 3.85 19.7 4.35 19.2 4.25 18.7 4.15 18.8 3.65" fill="#40afff" fill-rule="evenodd" stroke="none"/>
    <path d="M20.05 1.1 Q20.15 0.5 20.8 0.6 21.4 0.7 21.3 1.35 L21.05 1.75 20.55 1.85 Q19.95 1.75 20.05 1.1" fill="#40afff" fill-rule="evenodd" stroke="none"/>
    <path d="M20.2 -1.95 Q20.3 -2.55 20.95 -2.45 21.55 -2.35 21.45 -1.75 21.25 -1.1 20.7 -1.25 20.05 -1.35 20.2 -1.95" fill="#a2ff80" fill-rule="evenodd" stroke="none"/>
    <path d="M22.6 -1.45 Q22.7 -2.0 23.25 -1.9 23.8 -1.8 23.7 -1.25 23.55 -0.7 23.05 -0.8 22.5 -0.95 22.6 -1.45" fill="#a2ff80" fill-rule="evenodd" stroke="none"/>
    <path d="M22.1 0.95 Q22.65 1.05 22.55 1.55 22.45 2.1 21.9 2.0 21.35 1.9 21.45 1.35 21.65 0.8 22.1 0.95" fill="#a2ff80" fill-rule="evenodd" stroke="none"/>
    <path d="M18.45 1.7 Q18.55 1.15 19.1 1.25 19.65 1.45 19.55 1.9 19.4 2.45 18.9 2.35 18.35 2.25 18.45 1.7" fill="#a2ff80" fill-rule="evenodd" stroke="none"/>
    <path d="M23.15 3.85 Q23.25 3.3 23.8 3.4 24.35 3.5 24.25 4.05 24.05 4.6 23.6 4.45 23.05 4.35 23.15 3.85" fill="#a2ff80" fill-rule="evenodd" stroke="none"/>
    <path d="M19.95 4.0 Q20.05 3.45 20.6 3.55 21.1 3.65 21.0 4.2 20.9 4.7 20.35 4.6 19.8 4.5 19.95 4.0" fill="#a2ff80" fill-rule="evenodd" stroke="none"/>
    <path d="M17.8 4.35 Q17.9 3.8 18.45 3.9 19.0 4.0 18.85 4.5 18.75 5.05 18.2 4.95 L17.85 4.75 17.8 4.35" fill="#f3ff80" fill-rule="evenodd" stroke="none"/>
    <path d="M20.3 12.25 Q20.4 11.8 21.0 11.9 21.65 12.0 21.55 12.5 21.45 12.95 20.8 12.85 20.2 12.75 20.3 12.25" fill="#4080ff" fill-rule="evenodd" stroke="none"/>
    <path d="M18.05 9.4 Q18.2 8.7 18.95 8.8 19.7 9.0 19.55 9.7 19.4 10.4 18.65 10.3 L18.15 9.95 18.05 9.4" fill="#40c6ff" fill-rule="evenodd" stroke="none"/>
    <path d="M22.75 6.9 L23.05 6.4 23.65 6.3 Q24.35 6.4 24.25 7.15 24.05 7.95 23.35 7.75 L22.85 7.45 22.75 6.9" fill="#40afff" fill-rule="evenodd" stroke="none"/>
    <path d="M16.45 7.75 Q16.55 7.3 17.0 7.4 17.5 7.5 17.4 7.9 17.3 8.35 16.85 8.25 16.35 8.15 16.45 7.75" fill="#40afff" fill-rule="evenodd" stroke="none"/>
    <path d="M23.05 5.55 Q23.15 5.3 23.45 5.3 23.85 5.4 23.75 5.65 23.75 5.9 23.35 5.9 L23.05 5.55" fill="#40e9ff" fill-rule="evenodd" stroke="none"/>
    <path d="M22.95 2.05 Q23.05 1.6 23.45 1.7 23.85 1.8 23.75 2.2 23.75 2.65 23.25 2.55 22.85 2.45 22.95 2.05" fill="#40afff" fill-rule="evenodd" stroke="none"/>
    <path d="M24.2 -4.0 Q24.05 -3.35 23.6 -3.0 24.15 -2.9 24.05 -2.25 23.85 -1.6 23.35 -1.7 22.8 -1.8 22.9 -2.45 L23.0 -2.65 22.8 -2.6 22.8 -2.5 Q22.65 -1.85 22.0 -1.95 21.6 -2.05 21.5 -2.5 L21.45 -2.5 Q20.9 -2.6 21.0 -3.15 L21.05 -3.3 Q20.65 -3.95 20.8 -4.6 20.95 -5.3 21.55 -5.7 L22.85 -6.0 Q23.55 -5.9 23.9 -5.3 24.3 -4.7 24.2 -4.0" fill="#26e5fc" fill-rule="evenodd" stroke="none"/>
    <path d="M16.65 11.35 Q16.75 10.6 17.55 10.7 18.3 10.85 18.2 11.6 18.05 12.35 17.25 12.25 L16.75 11.9 16.65 11.35" fill="#4080ff" fill-rule="evenodd" stroke="none"/>
    <path d="M20.6 8.8 Q20.7 8.3 21.15 8.4 21.65 8.5 21.55 8.95 21.45 9.35 20.95 9.35 20.5 9.25 20.6 8.8" fill="#40b9ff" fill-rule="evenodd" stroke="none"/>
    <path d="M17.35 5.65 Q17.45 5.2 17.9 5.3 18.35 5.4 18.25 5.8 18.15 6.3 17.7 6.2 17.25 6.1 17.35 5.65" fill="#40b9ff" fill-rule="evenodd" stroke="none"/>
    <path d="M21.9 10.35 Q22.0 9.95 22.45 10.05 22.9 10.05 22.8 10.5 22.7 10.9 22.25 10.8 21.8 10.8 21.9 10.35" fill="#40a3ff" fill-rule="evenodd" stroke="none"/>
    <path d="M22.6 -4.1 L22.85 -4.5 23.3 -4.65 Q23.9 -4.5 23.8 -3.9 L23.55 -3.5 23.05 -3.4 Q22.45 -3.5 22.6 -4.1" fill="#5cf3ff" fill-rule="evenodd" stroke="none"/>
    <path d="M22.0 -4.85 Q22.1 -5.5 22.75 -5.4 23.4 -5.2 23.3 -4.65 23.1 -4.0 22.5 -4.1 21.9 -4.2 22.0 -4.85" fill="#5cf3ff" fill-rule="evenodd" stroke="none"/>
    <path d="M12.05 -4.05 L12.05 -3.7 12.9 -2.75 13.5 -1.65 13.45 -0.95 13.45 -0.25 14.05 0.75 14.65 1.75 14.6 2.55 14.6 3.35 15.3 4.45 15.95 5.65 15.85 6.85 15.65 8.05 15.9 8.9 Q16.2 10.35 15.3 11.6 14.45 12.8 12.9 13.05 11.35 13.3 10.05 12.5 8.75 11.65 8.45 10.2 L8.4 9.3 7.8 8.25 Q7.35 7.6 7.25 7.15 7.1 6.4 7.3 5.5 7.45 4.6 7.75 4.35 7.95 4.2 7.65 3.8 L7.2 3.05 Q7.1 2.6 7.4 1.85 L7.65 0.6 7.45 0.05 7.15 -0.55 Q7.05 -1.0 7.3 -1.7 L7.65 -2.8 7.5 -3.25 Q7.35 -4.0 7.75 -4.7 L7.65 -5.0 Q7.5 -5.8 7.9 -6.65 8.35 -7.6 9.05 -7.75 9.8 -7.85 10.5 -7.15 11.2 -6.5 11.35 -5.7 L11.4 -5.2 Q11.9 -4.7 12.05 -4.05" fill="url(#gradient6)" fill-rule="evenodd" stroke="none"/>
    <path d="M11.85 -5.0 L11.9 -4.7 12.7 -4.0 Q13.25 -3.5 13.25 -2.85 13.25 -2.45 13.8 -1.3 L14.05 -0.95 14.2 -0.55 14.15 0.1 14.05 0.7 14.7 1.5 Q15.2 2.0 15.3 2.4 L15.25 3.1 15.25 3.75 15.75 4.75 16.15 5.7 Q16.3 6.5 16.1 6.95 L15.35 7.7 14.2 9.15 Q13.25 10.15 11.8 10.1 10.4 10.05 9.65 9.45 L8.5 8.45 7.5 8.0 Q7.15 7.75 7.05 6.6 L7.3 5.5 Q7.15 5.2 7.4 4.75 L7.65 4.0 7.1 3.3 Q6.8 3.0 7.25 2.3 7.4 2.05 7.15 1.5 L6.75 0.75 Q6.5 0.0 6.8 -0.15 L7.15 -0.55 6.85 -2.05 Q6.8 -2.4 7.1 -2.95 L7.45 -3.85 7.35 -4.2 Q7.2 -4.75 7.6 -5.3 L7.55 -5.55 Q7.45 -6.15 7.85 -6.85 8.35 -7.6 9.05 -7.75 9.8 -7.85 10.5 -7.3 11.15 -6.8 11.25 -6.2 L11.25 -5.85 Q11.8 -5.5 11.85 -5.0" fill="#147bdb" fill-rule="evenodd" stroke="none"/>
    <path d="M12.25 -4.55 L12.7 -3.75 Q12.65 -3.45 13.15 -2.65 L13.3 -2.4 13.45 -2.1 13.35 -1.65 13.3 -1.2 13.8 -0.6 14.3 0.0 14.25 0.5 14.2 1.0 14.65 1.7 14.95 2.4 14.9 3.3 14.2 3.85 13.15 4.9 Q12.3 5.65 11.0 5.7 9.75 5.7 9.15 5.25 L8.2 4.6 7.35 4.3 Q7.05 4.1 7.0 3.25 L7.2 2.45 Q7.1 2.25 7.35 1.95 L7.6 1.4 7.15 0.85 Q6.9 0.65 7.3 0.15 L7.2 -0.4 6.9 -0.95 Q6.75 -1.5 6.95 -1.6 L7.3 -1.9 7.1 -3.0 7.3 -3.65 7.65 -4.3 7.55 -4.55 Q7.5 -5.0 7.85 -5.35 L7.8 -5.55 Q7.7 -6.0 8.1 -6.5 8.55 -7.05 9.2 -7.15 L10.45 -6.9 11.05 -6.15 11.05 -5.85 11.55 -5.25 11.55 -5.05 12.25 -4.55" fill="#47bdff" fill-rule="evenodd" stroke="none"/>
    <path d="M9.45 -1.8 L9.35 -1.15 Q9.15 -0.85 8.8 -0.8 8.45 -0.7 8.15 -0.95 7.85 -1.15 7.8 -1.5 7.65 -2.35 8.45 -2.55 9.3 -2.65 9.45 -1.8" fill="#40afff" fill-rule="evenodd" stroke="none"/>
    <path d="M12.4 -2.3 L12.3 -1.6 11.75 -1.2 Q10.9 -1.1 10.75 -2.05 10.65 -2.4 10.85 -2.75 11.0 -3.05 11.35 -3.15 12.25 -3.25 12.4 -2.3" fill="#40afff" fill-rule="evenodd" stroke="none"/>
    <path d="M10.4 3.1 Q10.5 3.8 9.8 3.95 9.05 4.05 8.95 3.35 8.8 2.75 9.55 2.55 10.2 2.45 10.4 3.1" fill="#40afff" fill-rule="evenodd" stroke="none"/>
    <path d="M9.7 7.65 Q9.8 8.15 9.15 8.35 8.5 8.45 8.4 7.9 8.3 7.3 8.95 7.2 9.5 7.1 9.7 7.65" fill="#4099ff" fill-rule="evenodd" stroke="none"/>
    <path d="M13.05 5.65 Q13.15 6.25 12.5 6.35 11.95 6.45 11.75 5.9 11.65 5.3 12.3 5.2 12.95 5.1 13.05 5.65" fill="#40afff" fill-rule="evenodd" stroke="none"/>
    <path d="M13.2 2.5 Q13.3 3.0 12.8 3.1 12.25 3.2 12.15 2.65 12.05 2.15 12.55 2.05 13.1 1.95 13.2 2.5" fill="#40afff" fill-rule="evenodd" stroke="none"/>
    <path d="M11.95 -0.05 Q12.05 0.55 11.45 0.65 L10.95 0.55 10.7 0.15 10.8 -0.3 11.2 -0.55 Q11.8 -0.65 11.95 -0.05" fill="#40afff" fill-rule="evenodd" stroke="none"/>
    <path d="M11.8 -3.1 Q11.9 -2.5 11.3 -2.4 10.65 -2.3 10.55 -2.9 10.45 -3.5 11.05 -3.6 L11.55 -3.5 11.8 -3.1" fill="#a2ff80" fill-rule="evenodd" stroke="none"/>
    <path d="M9.4 -2.6 Q9.5 -2.1 8.95 -2.0 8.4 -1.9 8.3 -2.4 8.2 -2.95 8.75 -3.05 9.3 -3.15 9.4 -2.6" fill="#a2ff80" fill-rule="evenodd" stroke="none"/>
    <path d="M10.5 0.2 Q10.6 0.75 10.1 0.85 9.55 0.95 9.45 0.4 9.25 -0.15 9.85 -0.25 10.4 -0.35 10.5 0.2" fill="#a2ff80" fill-rule="evenodd" stroke="none"/>
    <path d="M13.55 0.55 Q13.65 1.05 13.1 1.2 12.55 1.3 12.45 0.75 12.35 0.2 12.9 0.1 13.45 0.0 13.55 0.55" fill="#a2ff80" fill-rule="evenodd" stroke="none"/>
    <path d="M8.85 2.7 Q8.95 3.2 8.4 3.3 7.85 3.4 7.75 2.85 7.65 2.35 8.2 2.25 8.75 2.15 8.85 2.7" fill="#a2ff80" fill-rule="evenodd" stroke="none"/>
    <path d="M12.05 2.85 Q12.15 3.35 11.6 3.45 11.15 3.55 10.95 3.0 10.85 2.5 11.4 2.4 11.95 2.3 12.05 2.85" fill="#a2ff80" fill-rule="evenodd" stroke="none"/>
    <path d="M14.2 3.15 Q14.3 3.7 13.75 3.8 13.3 3.9 13.1 3.35 13.0 2.9 13.55 2.7 14.1 2.6 14.2 3.15" fill="#f3ff80" fill-rule="evenodd" stroke="none"/>
    <path d="M11.7 11.1 Q11.8 11.6 11.15 11.7 10.55 11.8 10.45 11.3 10.35 10.85 11.0 10.75 11.6 10.65 11.7 11.1" fill="#4080ff" fill-rule="evenodd" stroke="none"/>
    <path d="M13.95 8.25 Q14.05 9.0 13.35 9.1 L12.75 9.0 12.45 8.5 12.55 7.95 Q12.7 7.7 13.05 7.65 L13.6 7.75 13.95 8.25" fill="#40c6ff" fill-rule="evenodd" stroke="none"/>
    <path d="M9.25 5.75 L9.15 6.3 8.65 6.6 Q7.9 6.7 7.75 6.0 L7.85 5.45 8.35 5.15 Q9.1 4.95 9.25 5.75" fill="#40afff" fill-rule="evenodd" stroke="none"/>
    <path d="M15.55 6.6 Q15.65 7.0 15.15 7.1 14.65 7.2 14.55 6.75 14.45 6.35 14.95 6.25 15.45 6.15 15.55 6.6" fill="#40afff" fill-rule="evenodd" stroke="none"/>
    <path d="M8.95 4.4 L8.65 4.7 Q8.25 4.8 8.25 4.5 8.15 4.25 8.5 4.15 8.85 4.05 8.95 4.4" fill="#40e9ff" fill-rule="evenodd" stroke="none"/>
    <path d="M9.05 0.9 Q9.15 1.3 8.7 1.4 8.3 1.5 8.2 1.05 8.1 0.65 8.55 0.55 8.95 0.45 9.05 0.9" fill="#40afff" fill-rule="evenodd" stroke="none"/>
    <path d="M9.15 -7.15 Q9.85 -7.3 10.45 -6.9 11.05 -6.45 11.2 -5.75 11.3 -5.05 10.95 -4.5 L11.0 -4.3 Q11.1 -3.75 10.55 -3.65 L10.5 -3.65 Q10.4 -3.15 9.95 -3.1 9.4 -3.0 9.2 -3.65 L9.2 -3.75 9.0 -3.8 9.05 -3.6 Q9.2 -3.0 8.65 -2.9 8.1 -2.8 7.95 -3.4 7.85 -4.05 8.4 -4.15 7.95 -4.5 7.8 -5.15 7.7 -5.85 8.1 -6.45 8.5 -7.05 9.15 -7.15" fill="#26e5fc" fill-rule="evenodd" stroke="none"/>
    <path d="M15.35 10.15 L15.25 10.75 14.75 11.05 Q14.0 11.2 13.8 10.45 L13.9 9.9 Q14.1 9.65 14.45 9.55 L15.05 9.7 15.35 10.15" fill="#4080ff" fill-rule="evenodd" stroke="none"/>
    <path d="M11.4 7.65 Q11.5 8.05 11.0 8.15 10.55 8.25 10.45 7.8 10.35 7.35 10.85 7.25 11.3 7.15 11.4 7.65" fill="#40b9ff" fill-rule="evenodd" stroke="none"/>
    <path d="M14.65 4.5 Q14.75 4.95 14.3 5.05 13.8 5.15 13.7 4.65 13.6 4.2 14.1 4.1 14.55 4.1 14.65 4.5" fill="#40b9ff" fill-rule="evenodd" stroke="none"/>
    <path d="M10.1 9.2 Q10.2 9.55 9.7 9.65 L9.2 9.35 Q9.1 8.95 9.55 8.85 10.0 8.75 10.1 9.2" fill="#40a3ff" fill-rule="evenodd" stroke="none"/>
    <path d="M9.4 -5.25 Q9.5 -4.65 8.9 -4.55 8.3 -4.45 8.2 -5.05 L8.3 -5.55 Q8.4 -5.75 8.65 -5.8 9.3 -5.9 9.4 -5.25" fill="#5cf3ff" fill-rule="evenodd" stroke="none"/>
    <path d="M10.0 -6.0 Q10.1 -5.45 9.45 -5.25 8.8 -5.15 8.7 -5.8 8.6 -6.45 9.2 -6.55 9.8 -6.65 10.0 -6.0" fill="#5cf3ff" fill-rule="evenodd" stroke="none"/>
    <path d="M17.05 1.7 L16.95 2.2 Q17.4 2.75 17.4 3.45 L17.35 3.85 18.0 4.95 18.45 6.2 18.25 6.95 18.1 7.65 18.5 8.75 Q18.9 9.5 18.9 9.95 L18.7 10.75 18.55 11.55 19.05 12.8 Q19.45 13.6 19.45 14.15 L19.1 15.4 Q18.7 16.25 18.65 16.6 L18.75 17.5 Q18.75 19.05 17.6 20.15 16.45 21.25 14.8 21.25 13.15 21.25 12.0 20.15 10.85 19.05 10.85 17.5 L10.95 16.55 10.5 15.4 Q10.2 14.65 10.2 14.15 10.2 13.35 10.6 12.45 10.95 11.55 11.3 11.35 11.55 11.2 11.3 10.75 L11.0 9.95 Q11.0 9.45 11.4 8.7 L11.95 7.5 11.8 6.85 11.65 6.2 Q11.65 5.7 12.05 5.05 L12.65 3.95 12.6 3.45 Q12.6 2.7 13.1 2.05 L13.05 1.7 Q13.05 0.85 13.65 0.05 14.3 -0.85 15.1 -0.85 15.9 -0.85 16.5 0.05 17.05 0.85 17.05 1.7" fill="url(#gradient7)" fill-rule="evenodd" stroke="none"/>
    <path d="M11.25 8.3 L11.0 7.45 Q10.9 6.6 11.25 6.55 L11.65 6.2 11.7 4.6 Q11.7 4.2 12.1 3.7 L12.65 2.85 12.6 2.5 Q12.6 1.9 13.1 1.4 L13.1 1.1 Q13.1 0.45 13.7 -0.15 14.3 -0.85 15.1 -0.85 15.9 -0.85 16.5 -0.15 17.05 0.45 17.05 1.1 L17.0 1.5 Q17.4 1.9 17.4 2.5 L17.4 2.8 18.05 3.65 Q18.5 4.25 18.4 4.95 L18.7 6.6 18.85 7.05 18.95 7.45 18.75 8.1 18.55 8.7 19.05 9.7 19.45 10.7 19.25 11.4 Q19.1 11.75 19.1 12.1 L19.45 13.2 19.65 14.25 19.35 15.55 18.4 16.2 16.9 17.45 Q15.75 18.3 14.25 18.0 12.8 17.75 12.15 16.95 L11.2 15.7 10.3 15.05 Q10.0 14.7 10.1 13.55 L10.55 12.4 Q10.5 12.1 10.85 11.7 L11.25 11.0 10.85 10.15 Q10.6 9.75 11.2 9.1 11.4 8.9 11.25 8.3" fill="#46a0ea" fill-rule="evenodd" stroke="none"/>
    <path d="M16.8 1.15 L16.75 1.45 Q17.15 1.75 17.15 2.15 L17.1 2.35 17.7 3.0 Q18.1 3.4 18.0 3.9 17.95 4.2 18.25 5.15 L18.35 5.4 18.45 5.75 18.25 6.2 18.1 6.65 18.55 7.35 18.95 8.05 18.75 8.6 Q18.6 8.85 18.6 9.05 L18.9 9.85 19.1 10.65 18.85 11.55 18.0 12.0 16.7 12.9 Q15.7 13.5 14.4 13.3 13.1 13.1 12.55 12.55 L11.7 11.65 10.85 11.2 Q10.6 10.95 10.7 10.1 L11.15 9.3 11.35 8.8 11.7 8.25 11.35 7.65 Q11.15 7.35 11.65 6.9 11.85 6.8 11.7 6.35 L11.5 5.75 Q11.4 5.15 11.7 5.05 L12.1 4.8 12.1 3.65 Q12.1 3.4 12.45 3.05 L12.95 2.4 12.9 2.15 Q12.9 1.75 13.35 1.35 L13.35 1.15 Q13.35 0.7 13.85 0.25 14.45 -0.25 15.1 -0.25 15.75 -0.25 16.3 0.25 L16.8 1.15" fill="#66d0ff" fill-rule="evenodd" stroke="none"/>
    <path d="M14.3 5.3 Q14.3 6.25 13.4 6.25 12.5 6.25 12.5 5.3 12.5 4.95 12.75 4.65 13.05 4.4 13.4 4.4 13.8 4.4 14.05 4.65 L14.3 5.3" fill="#40e9ff" fill-rule="evenodd" stroke="none"/>
    <path d="M17.4 5.3 L17.15 6.05 Q16.9 6.35 16.55 6.35 16.15 6.35 15.9 6.05 15.65 5.75 15.65 5.3 L15.9 4.6 Q16.2 4.3 16.55 4.3 16.9 4.3 17.15 4.6 L17.4 5.3" fill="#40e9ff" fill-rule="evenodd" stroke="none"/>
    <path d="M14.25 10.55 L14.05 11.1 13.5 11.3 Q12.7 11.3 12.7 10.55 12.7 9.85 13.5 9.85 14.25 9.85 14.25 10.55" fill="#40e9ff" fill-rule="evenodd" stroke="none"/>
    <path d="M12.6 15.1 Q12.6 15.7 11.9 15.7 11.25 15.7 11.25 15.1 11.25 14.5 11.9 14.5 12.6 14.5 12.6 15.1" fill="#4099ff" fill-rule="evenodd" stroke="none"/>
    <path d="M16.45 13.65 Q16.45 14.25 15.8 14.25 15.1 14.25 15.1 13.65 15.1 13.05 15.8 13.05 16.45 13.05 16.45 13.65" fill="#40afff" fill-rule="evenodd" stroke="none"/>
    <path d="M17.25 10.4 Q17.25 11.0 16.7 11.0 16.15 11.0 16.15 10.4 16.15 9.85 16.7 9.85 17.25 9.85 17.25 10.4" fill="#40e9ff" fill-rule="evenodd" stroke="none"/>
    <path d="M16.5 7.6 Q16.5 8.25 15.8 8.25 15.15 8.25 15.15 7.6 15.15 6.9 15.8 6.9 16.5 6.9 16.5 7.6" fill="#40e9ff" fill-rule="evenodd" stroke="none"/>
    <path d="M17.0 4.4 Q17.0 5.05 16.3 5.05 15.65 5.05 15.65 4.4 15.65 3.75 16.3 3.75 17.0 3.75 17.0 4.4" fill="#f3ff80" fill-rule="evenodd" stroke="none"/>
    <path d="M14.4 4.5 Q14.4 5.05 13.8 5.05 13.25 5.05 13.25 4.5 13.25 3.9 13.8 3.9 14.4 3.9 14.4 4.5" fill="#f3ff80" fill-rule="evenodd" stroke="none"/>
    <path d="M15.0 7.6 Q15.0 8.15 14.4 8.15 13.8 8.15 13.8 7.6 13.8 7.0 14.4 7.0 15.0 7.0 15.0 7.6" fill="#f3ff80" fill-rule="evenodd" stroke="none"/>
    <path d="M18.05 8.5 Q18.05 9.05 17.45 9.05 16.85 9.05 16.85 8.5 16.85 7.9 17.45 7.9 18.05 7.9 18.05 8.5" fill="#f3ff80" fill-rule="evenodd" stroke="none"/>
    <path d="M12.75 9.85 Q12.75 10.4 12.15 10.4 11.6 10.4 11.6 9.85 11.6 9.25 12.15 9.25 12.75 9.25 12.75 9.85" fill="#f3ff80" fill-rule="evenodd" stroke="none"/>
    <path d="M16.05 10.55 L15.85 10.95 Q15.7 11.15 15.45 11.15 15.25 11.15 15.05 10.95 L14.85 10.55 Q14.85 10.0 15.45 10.0 16.05 10.0 16.05 10.55" fill="#f3ff80" fill-rule="evenodd" stroke="none"/>
    <path d="M18.15 11.3 Q18.15 11.85 17.6 11.85 17.0 11.85 17.0 11.3 17.0 10.7 17.6 10.7 18.15 10.7 18.15 11.3" fill="#f3ff80" fill-rule="evenodd" stroke="none"/>
    <path d="M13.95 19.0 Q13.95 19.5 13.3 19.5 12.65 19.5 12.65 19.0 12.65 18.5 13.3 18.5 13.95 18.5 13.95 19.0" fill="#4080ff" fill-rule="evenodd" stroke="none"/>
    <path d="M16.85 16.5 L16.6 17.05 16.05 17.25 Q15.25 17.25 15.25 16.5 15.25 15.7 16.05 15.7 16.85 15.7 16.85 16.5" fill="#40c6ff" fill-rule="evenodd" stroke="none"/>
    <path d="M12.55 13.05 Q12.55 13.8 11.75 13.8 10.95 13.8 10.95 13.05 10.95 12.25 11.75 12.25 12.55 12.25 12.55 13.05" fill="#40c6ff" fill-rule="evenodd" stroke="none"/>
    <path d="M18.85 15.05 Q18.85 15.5 18.3 15.5 17.8 15.5 17.8 15.05 17.8 14.6 18.3 14.6 18.85 14.6 18.85 15.05" fill="#40afff" fill-rule="evenodd" stroke="none"/>
    <path d="M12.5 11.6 Q12.5 11.9 12.1 11.9 11.75 11.9 11.75 11.6 11.75 11.3 12.1 11.3 12.5 11.3 12.5 11.6" fill="#40e9ff" fill-rule="evenodd" stroke="none"/>
    <path d="M13.35 8.05 L12.9 8.5 Q12.45 8.5 12.45 8.05 12.45 7.6 12.9 7.6 13.35 7.6 13.35 8.05" fill="#40e9ff" fill-rule="evenodd" stroke="none"/>
    <path d="M17.95 18.7 L17.7 19.25 17.1 19.5 Q16.3 19.5 16.3 18.7 16.3 17.9 17.1 17.9 L17.7 18.15 17.95 18.7" fill="#4080ff" fill-rule="evenodd" stroke="none"/>
    <path d="M14.35 15.4 Q14.35 15.85 13.85 15.85 13.4 15.85 13.4 15.4 13.4 14.9 13.85 14.9 14.35 14.9 14.35 15.4" fill="#40b9ff" fill-rule="evenodd" stroke="none"/>
    <path d="M18.35 12.75 Q18.35 13.25 17.85 13.25 17.35 13.25 17.35 12.75 17.35 12.25 17.85 12.25 18.35 12.25 18.35 12.75" fill="#40b9ff" fill-rule="evenodd" stroke="none"/>
    <path d="M12.7 16.75 Q12.7 17.15 12.25 17.15 11.75 17.15 11.75 16.75 11.75 16.3 12.25 16.3 12.7 16.3 12.7 16.75" fill="#40a3ff" fill-rule="evenodd" stroke="none"/>
    <path d="M16.8 2.0 L16.85 2.15 17.35 3.05 Q17.7 3.4 17.45 3.45 L17.7 3.4 Q17.95 3.4 17.95 3.55 17.95 4.25 18.45 5.75 18.7 6.35 18.1 6.65 19.0 7.7 18.75 8.45 L18.3 8.95 Q18.7 8.65 18.5 8.1 L18.25 7.6 Q17.55 7.15 17.5 6.5 L17.6 5.9 Q17.9 5.35 17.65 4.75 L17.35 4.3 16.85 3.5 16.35 2.85 16.4 3.0 Q16.4 3.6 15.8 3.6 L15.75 3.6 15.1 4.05 Q14.4 4.05 14.4 3.4 L14.45 3.25 14.25 3.15 14.25 3.4 Q14.25 4.05 13.7 4.05 13.1 4.05 13.1 3.4 L13.1 3.2 Q12.5 3.9 12.5 4.4 L12.15 4.15 Q11.95 3.8 12.5 3.2 L13.4 2.25 13.3 1.55 Q13.3 0.8 13.85 0.3 14.35 -0.25 15.1 -0.25 15.8 -0.25 16.35 0.3 16.85 0.8 16.85 1.55 L16.85 1.85 16.8 2.0" fill="#73eeff" fill-rule="evenodd" stroke="none"/>
    <path d="M15.0 0.4 Q15.7 0.4 15.7 1.1 15.7 1.75 15.0 1.75 L14.95 1.75 Q14.95 2.4 14.3 2.4 13.65 2.4 13.65 1.75 13.65 1.1 14.3 1.1 L14.35 1.1 Q14.35 0.4 15.0 0.4" fill="#d7feff" fill-rule="evenodd" stroke="none"/>
    <path d="M28.45 18.3 Q28.05 22.3 21.3 22.7 L16.4 23.5 17.5 20.6 Q18.85 18.1 20.6 16.0 24.2 11.7 26.55 13.45 28.8 15.05 28.45 18.3" fill="url(#gradient8)" fill-rule="evenodd" stroke="none"/>
    <path d="M3.3 4.2 Q5.45 4.4 7.75 8.75 8.9 10.9 9.6 13.0 L11.3 17.85 Q11.7 20.7 11.35 20.5 L10.3 18.55 9.2 16.55 5.8 15.85 Q3.25 15.5 2.0 14.0 -0.45 11.0 0.1 7.45 0.65 3.95 3.3 4.2" fill="url(#gradient9)" fill-rule="evenodd" stroke="none"/>
    <path d="M1.85 4.9 Q4.8 4.4 6.8 8.8 7.85 11.0 8.25 13.3 7.05 12.65 5.25 12.9 3.6 13.15 2.65 12.35 1.15 11.05 1.05 8.45 L1.25 6.1 Q1.2 5.4 1.5 5.05 L1.85 4.9" fill="url(#gradient10)" fill-rule="evenodd" stroke="none"/>
    <path d="M22.9 19.55 L21.55 19.25 Q20.05 19.2 19.1 20.3 L20.65 17.3 Q22.5 14.25 23.95 13.85 L25.0 13.35 Q26.25 13.3 27.4 15.75 L27.1 17.8 Q26.2 19.8 22.9 19.55" fill="url(#gradient11)" fill-rule="evenodd" stroke="none"/>
    <path d="M8.25 25.85 L9.75 26.95 Q11.8 28.1 14.75 28.2 L19.75 27.85 Q21.05 27.55 22.15 26.75 L20.4 28.55 Q18.0 30.25 14.6 29.7 11.2 29.15 9.55 27.65 L8.25 25.85" fill="#00232d" fill-rule="evenodd" stroke="none"/>
    <path d="M9.1 26.6 Q7.7 24.05 8.55 22.85 L8.85 24.9 Q9.25 26.55 10.0 27.4 L9.1 26.6" fill="#00232d" fill-rule="evenodd" stroke="none"/>
    <path d="M10.6 27.7 Q9.2 25.15 10.05 23.95 L10.35 26.0 Q10.75 27.65 11.5 28.5 L10.6 27.7" fill="#005c3a" fill-rule="evenodd" stroke="none"/>
    <path d="M17.9 28.15 Q19.7 27.55 20.2 25.85 L19.75 27.9 19.9 27.8 20.65 27.6 21.95 24.75 Q21.85 27.3 21.45 27.65 L17.9 28.15" fill="#00232d" fill-rule="evenodd" stroke="none"/>
    <path d="M3.9 22.85 Q5.55 26.3 10.45 23.8 L14.25 22.5 12.45 20.3 Q10.7 18.65 8.75 17.45 4.75 15.1 3.65 17.7 2.6 20.1 3.9 22.85" fill="url(#gradient12)" fill-rule="evenodd" stroke="none"/>
    <path d="M8.25 21.65 L9.1 20.8 11.2 20.75 9.1 18.65 Q6.8 16.65 5.65 16.95 L4.7 16.9 Q3.85 17.4 3.8 20.1 L4.7 21.8 Q6.0 23.3 8.25 21.65" fill="url(#gradient13)" fill-rule="evenodd" stroke="none"/>
  </g>
  <defs>
    <radialGradient cx="0" cy="0" gradientTransform="matrix(0.0172, 0.0, 0.0, 0.0087, 15.7, 28.7)" gradientUnits="userSpaceOnUse" id="gradient0" r="819.2" spreadMethod="pad">
      <stop offset="0.00784313725490196" stop-color="#4d3212" stop-opacity="0.8"/>
      <stop offset="1.0" stop-color="#6b5438" stop-opacity="0.08627451"/>
    </radialGradient>
    <linearGradient gradientTransform="matrix(-0.0084, 0.0067, 0.0067, 0.0084, 27.1, 5.85)" gradientUnits="userSpaceOnUse" id="gradient1" spreadMethod="pad" x1="-819.2" x2="819.2">
      <stop offset="0.0" stop-color="#009144"/>
      <stop offset="1.0" stop-color="#00472e"/>
    </linearGradient>
    <linearGradient gradientTransform="matrix(-0.006, 0.0056, 0.0056, 0.006, 25.9, 6.2)" gradientUnits="userSpaceOnUse" id="gradient2" spreadMethod="pad" x1="-819.2" x2="819.2">
      <stop offset="0.0" stop-color="#00cc57"/>
      <stop offset="1.0" stop-color="#00472e" stop-opacity="0.0"/>
    </linearGradient>
    <radialGradient cx="0" cy="0" gradientTransform="matrix(0.0182, 0.0, 0.0, -0.0182, 15.45, 20.9)" gradientUnits="userSpaceOnUse" id="gradient3" r="819.2" spreadMethod="pad">
      <stop offset="0.0" stop-color="#a80077"/>
      <stop offset="0.054901960784313725" stop-color="#9a0871"/>
      <stop offset="0.29411764705882354" stop-color="#64265c"/>
      <stop offset="0.5176470588235295" stop-color="#383d4b"/>
      <stop offset="0.7137254901960784" stop-color="#1a4e3f"/>
      <stop offset="0.8823529411764706" stop-color="#075838"/>
      <stop offset="1.0" stop-color="#005c35"/>
    </radialGradient>
    <linearGradient gradientTransform="matrix(-5.0E-4, 0.0026, 0.0026, 5.0E-4, 14.65, 4.9)" gradientUnits="userSpaceOnUse" id="gradient4" spreadMethod="pad" x1="-819.2" x2="819.2">
      <stop offset="0.0" stop-color="#002199"/>
      <stop offset="1.0" stop-color="#009e8c"/>
    </linearGradient>
    <linearGradient gradientTransform="matrix(7.0E-4, -0.0025, 0.0025, 7.0E-4, 20.0, 12.25)" gradientUnits="userSpaceOnUse" id="gradient5" spreadMethod="pad" x1="-819.2" x2="819.2">
      <stop offset="0.0" stop-color="#002199"/>
      <stop offset="1.0" stop-color="#009e8c"/>
    </linearGradient>
    <linearGradient gradientTransform="matrix(2.0E-4, 0.0026, 0.0026, -2.0E-4, 11.95, 11.1)" gradientUnits="userSpaceOnUse" id="gradient6" spreadMethod="pad" x1="-819.2" x2="819.2">
      <stop offset="0.0" stop-color="#002199"/>
      <stop offset="1.0" stop-color="#009e8c"/>
    </linearGradient>
    <linearGradient gradientTransform="matrix(-3.0E-4, 0.0027, 0.0027, 3.0E-4, 14.3, 19.05)" gradientUnits="userSpaceOnUse" id="gradient7" spreadMethod="pad" x1="-819.2" x2="819.2">
      <stop offset="0.0" stop-color="#002fde"/>
      <stop offset="1.0" stop-color="#009e8c"/>
    </linearGradient>
    <linearGradient gradientTransform="matrix(-0.0088, 0.0042, 0.0042, 0.0088, 25.0, 17.4)" gradientUnits="userSpaceOnUse" id="gradient8" spreadMethod="pad" x1="-819.2" x2="819.2">
      <stop offset="0.0" stop-color="#00592a"/>
      <stop offset="1.0" stop-color="#00472e"/>
    </linearGradient>
    <linearGradient gradientTransform="matrix(0.0057, -0.0011, -0.0011, -0.0057, 5.5, 12.65)" gradientUnits="userSpaceOnUse" id="gradient9" spreadMethod="pad" x1="-819.2" x2="819.2">
      <stop offset="0.0" stop-color="#008c42"/>
      <stop offset="1.0" stop-color="#00472e"/>
    </linearGradient>
    <linearGradient gradientTransform="matrix(0.0044, 0.0, 0.0, -0.0044, 4.65, 9.05)" gradientUnits="userSpaceOnUse" id="gradient10" spreadMethod="pad" x1="-819.2" x2="819.2">
      <stop offset="0.0" stop-color="#00d45b"/>
      <stop offset="1.0" stop-color="#00472e" stop-opacity="0.0"/>
    </linearGradient>
    <linearGradient gradientTransform="matrix(-0.0056, 0.0053, 0.0053, 0.0056, 23.8, 17.4)" gradientUnits="userSpaceOnUse" id="gradient11" spreadMethod="pad" x1="-819.2" x2="819.2">
      <stop offset="0.0" stop-color="#00de5f"/>
      <stop offset="1.0" stop-color="#00472e" stop-opacity="0.0"/>
    </linearGradient>
    <linearGradient gradientTransform="matrix(0.0076, 1.0E-4, -1.0E-4, 0.0097, 6.05, 20.55)" gradientUnits="userSpaceOnUse" id="gradient12" spreadMethod="pad" x1="-819.2" x2="819.2">
      <stop offset="0.0" stop-color="#00592a"/>
      <stop offset="1.0" stop-color="#00472e"/>
    </linearGradient>
    <linearGradient gradientTransform="matrix(0.0058, 0.0024, -0.0019, 0.0073, 6.9, 20.05)" gradientUnits="userSpaceOnUse" id="gradient13" spreadMethod="pad" x1="-819.2" x2="819.2">
      <stop offset="0.0" stop-color="#00de5f"/>
      <stop offset="1.0" stop-color="#00472e" stop-opacity="0.0"/>
    </linearGradient>
  </defs>
</svg>
