<?xml version="1.0" encoding="UTF-8" standalone="no"?>
<svg xmlns:xlink="http://www.w3.org/1999/xlink" height="28.5px" width="29.1px" xmlns="http://www.w3.org/2000/svg">
  <g transform="matrix(1.0, 0.0, 0.0, 1.0, 0.0, 0.0)">
    <path d="M23.55 6.1 Q23.25 6.65 22.4 6.7 21.5 6.75 20.6 6.25 19.7 5.75 19.3 4.95 18.85 4.2 19.15 3.65 19.45 3.1 20.35 3.05 21.2 3.0 22.1 3.5 L23.45 4.8 Q23.9 5.55 23.55 6.1" fill="#ffd4d2" fill-rule="evenodd" stroke="none"/>
    <path d="M15.5 19.5 Q15.0 20.45 13.95 20.75 L12.0 20.5 Q11.1 20.0 10.8 19.0 10.55 17.95 11.05 17.05 11.6 16.1 12.6 15.8 13.6 15.55 14.55 16.05 15.45 16.55 15.7 17.55 16.0 18.6 15.5 19.5" fill="#ffbbb8" fill-rule="evenodd" stroke="none"/>
    <path d="M11.4 10.3 L9.45 10.35 Q8.5 10.0 8.15 9.15 7.8 8.3 8.3 7.4 8.75 6.5 9.75 6.15 L11.65 6.1 Q12.6 6.45 12.95 7.3 13.3 8.15 12.85 9.05 12.4 9.95 11.4 10.3" fill="#ffd4d2" fill-rule="evenodd" stroke="none"/>
    <path d="M23.65 13.3 Q24.35 12.55 25.25 12.6 26.2 12.6 26.8 13.4 27.45 14.15 27.4 15.2 27.35 16.3 26.7 17.0 26.0 17.75 25.1 17.7 24.15 17.65 23.55 16.9 22.9 16.15 22.95 15.05 23.0 14.0 23.65 13.3" fill="#ffb3b0" fill-rule="evenodd" stroke="none"/>
    <path d="M0.15 14.9 Q1.55 14.45 1.8 17.35 2.05 20.25 1.25 20.4 0.65 19.65 0.4 19.0 L0.1 17.5 Q-0.15 15.75 0.15 14.9" fill="#ffb1ad" fill-rule="evenodd" stroke="none"/>
    <path d="M10.0 0.7 L11.85 0.0 Q11.6 1.0 10.0 1.65 L8.15 1.7 10.0 0.7" fill="#ffd4d2" fill-rule="evenodd" stroke="none"/>
    <path d="M28.35 6.45 L29.1 8.25 Q28.0 7.95 27.35 6.45 26.95 5.4 27.2 4.65 L28.35 6.45" fill="#ffd4d2" fill-rule="evenodd" stroke="none"/>
    <path d="M22.0 28.0 L19.95 28.5 Q19.15 27.45 19.8 25.95 20.2 24.95 21.05 24.5 L22.6 24.35 Q23.3 24.65 23.55 25.5 23.8 26.4 23.4 27.35 L22.0 28.0" fill="#ff827d" fill-rule="evenodd" stroke="none"/>
  </g>
</svg>
