<?xml version="1.0" encoding="UTF-8" standalone="no"?>
<svg xmlns:xlink="http://www.w3.org/1999/xlink" height="41.7px" width="31.95px" xmlns="http://www.w3.org/2000/svg">
  <g transform="matrix(1.0, 0.0, 0.0, 1.0, 1.0, 6.0)">
    <path d="M26.3 24.35 Q30.9 26.3 30.9 29.05 30.9 31.8 26.3 33.75 21.7 35.7 15.2 35.7 8.75 35.7 4.1 33.75 -0.5 31.8 -0.5 29.05 -0.5 26.3 4.1 24.35 8.75 22.4 15.2 22.4 21.7 22.4 26.3 24.35" fill="url(#gradient0)" fill-rule="evenodd" stroke="none"/>
    <path d="M6.2 -3.25 Q10.45 -6.15 16.15 -4.3 18.95 -3.35 20.95 -1.85 29.3 -0.55 29.65 4.55 30.05 5.8 29.95 7.15 29.8 9.3 28.5 11.4 27.25 13.8 24.85 15.95 L23.65 17.0 23.85 17.7 24.2 18.45 Q25.2 20.85 25.45 22.95 L25.5 23.5 Q25.85 27.0 22.9 28.8 20.85 30.1 18.2 30.05 L17.1 30.05 Q11.9 29.85 10.95 28.55 L10.9 28.05 10.85 28.0 Q10.05 26.85 10.65 23.3 L10.6 22.9 7.75 22.95 6.5 22.6 4.55 22.0 4.3 21.9 4.0 21.75 Q-0.3 19.7 0.05 14.8 L0.1 14.45 0.65 9.25 0.6 9.05 Q0.2 6.75 0.7 4.6 L0.85 3.8 Q1.45 1.3 3.65 -0.95 4.8 -2.3 6.2 -3.25 Z" fill="none" stroke="#2d0d6b" stroke-linecap="round" stroke-linejoin="round" stroke-width="2.0"/>
    <path d="M10.9 24.95 Q10.0 21.35 11.7 19.7 13.4 18.05 13.45 15.95 L13.1 14.2 16.9 10.7 Q21.85 12.95 24.2 18.45 25.35 21.2 25.5 23.5 25.85 27.0 22.9 28.8 20.0 30.65 15.85 29.75 11.9 28.95 10.9 24.95" fill="#7c9ecb" fill-rule="evenodd" stroke="none"/>
    <path d="M10.65 23.05 Q10.7 22.2 11.05 21.1 11.8 18.95 13.6 18.0 L14.8 18.15 13.85 22.45 Q13.65 27.0 17.4 28.1 L21.6 27.85 Q23.75 27.05 25.25 25.35 L23.8 27.65 Q21.35 29.85 16.2 29.6 11.9 29.4 10.85 28.0 10.0 26.8 10.65 23.05" fill="#5481c9" fill-rule="evenodd" stroke="none"/>
    <path d="M10.95 22.0 L11.25 17.95 Q15.85 15.6 20.4 13.2 L22.2 14.85 Q23.95 16.8 23.95 18.5 23.95 20.3 21.65 21.75 19.7 22.9 17.9 23.05 L12.95 22.7 11.1 22.1 10.95 22.0" fill="#486087" fill-rule="evenodd" stroke="none"/>
    <path d="M23.0 21.0 Q23.35 21.2 24.35 19.5 25.05 20.65 25.4 22.9 L25.25 23.7 Q25.05 25.4 23.55 26.1 24.0 25.25 23.55 23.05 L23.0 21.0 M25.4 22.9 L25.45 22.95 25.5 23.5 25.4 22.9" fill="#92bbfc" fill-rule="evenodd" stroke="none"/>
    <path d="M10.4 26.35 L11.75 27.0 11.65 26.55 11.8 25.1 Q11.8 24.15 12.1 22.95 L12.35 22.0 12.35 23.05 Q12.45 24.3 12.8 25.4 L13.65 27.35 14.35 28.2 Q20.1 30.5 24.15 27.25 L22.65 28.7 Q20.5 30.15 17.1 30.05 11.9 29.85 10.95 28.55 10.8 27.0 10.4 26.35" fill="#416cab" fill-rule="evenodd" stroke="none"/>
    <path d="M16.15 -4.3 Q18.95 -3.35 20.95 -1.85 32.45 -0.05 28.75 8.85 27.35 12.2 24.1 15.6 21.1 18.65 18.4 20.0 9.6 24.3 4.3 21.9 -0.3 19.9 0.05 14.8 L0.45 11.75 0.6 9.05 Q-0.2 4.5 2.55 0.45 4.15 -1.85 6.2 -3.25 10.45 -6.15 16.15 -4.3" fill="#9550ef" fill-rule="evenodd" stroke="none"/>
    <path d="M29.95 7.15 Q29.45 15.05 12.9 22.1 9.4 23.6 4.9 22.1 -0.6 20.3 0.05 14.8 0.6 9.05 0.9 7.25 0.35 5.9 0.85 3.8 1.85 -0.35 7.2 -3.8 L11.9 -4.1 Q16.25 -3.5 14.6 1.3 L13.5 2.8 Q11.95 4.5 9.85 5.75 6.45 7.7 5.7 7.7 L5.55 9.45 Q5.55 11.45 6.05 12.9 7.65 17.6 13.85 14.8 17.85 12.35 21.5 9.3 28.8 3.3 27.15 0.65 L28.65 2.4 Q30.1 4.7 29.95 7.15" fill="url(#gradient1)" fill-rule="evenodd" stroke="none"/>
    <path d="M10.9 -3.55 L12.9 -4.2 Q15.3 -4.5 17.15 -2.85 L17.1 -1.55 Q16.65 -0.1 14.7 0.35 14.7 -0.75 14.2 -1.8 13.2 -3.9 10.9 -3.55" fill="#ba8aff" fill-rule="evenodd" stroke="none"/>
    <path d="M7.8 -3.7 L9.4 -4.15 Q11.1 -4.15 11.55 -2.1 L10.6 -0.25 Q9.0 1.75 5.6 2.35 L2.05 2.45 Q2.5 1.65 2.4 1.3 3.2 0.2 4.3 -0.95 6.45 -3.3 7.8 -3.7" fill="#9e6fe8" fill-rule="evenodd" stroke="none"/>
    <path d="M27.55 2.7 Q28.35 3.4 28.15 5.2 27.9 7.2 26.4 8.85 L24.1 10.95 Q23.45 11.25 22.9 10.55 22.25 9.65 24.7 6.95 25.8 5.75 26.6 3.65 27.1 2.3 27.55 2.7" fill="#ba8aff" fill-rule="evenodd" stroke="none"/>
    <path d="M15.45 1.2 L16.95 0.55 Q18.4 -0.35 18.45 -1.35 L19.7 -1.05 Q17.8 1.75 16.1 1.95 14.9 2.35 15.45 1.2" fill="#c7a4ff" fill-rule="evenodd" stroke="none"/>
    <path d="M29.75 7.65 Q29.0 12.2 24.85 15.95 22.35 18.2 18.2 20.35 12.4 23.35 7.75 22.95 L4.2 21.9 Q7.85 22.9 11.85 21.5 14.1 20.7 17.55 18.8 21.85 16.75 26.2 12.0 L29.75 7.65" fill="#4917aa" fill-rule="evenodd" stroke="none"/>
    <path d="M1.65 3.65 Q1.85 5.9 5.1 5.7 L8.25 5.0 Q7.05 6.2 3.25 7.15 1.55 7.1 1.4 5.35 L1.65 3.65" fill="#9a3bed" fill-rule="evenodd" stroke="none"/>
    <path d="M21.8 -0.1 Q23.75 -0.05 25.2 1.05 L26.25 2.1 Q26.5 4.1 23.75 6.4 22.4 7.55 20.95 8.3 21.35 7.3 19.5 5.25 L17.55 3.4 Q20.0 2.1 21.8 -0.1" fill="#b180ff" fill-rule="evenodd" stroke="none"/>
    <path d="M8.4 15.5 L8.1 16.4 Q7.8 16.75 7.4 16.75 7.0 16.75 6.7 16.4 6.4 16.0 6.4 15.5 6.4 15.0 6.7 14.65 7.0 14.25 7.4 14.25 7.8 14.25 8.1 14.65 L8.4 15.5" fill="#9550ef" fill-rule="evenodd" stroke="none"/>
    <path d="M11.7 15.4 Q11.7 16.35 10.9 16.35 10.1 16.35 10.1 15.4 10.1 15.0 10.35 14.75 10.55 14.45 10.9 14.45 11.25 14.45 11.45 14.75 L11.7 15.4" fill="#9550ef" fill-rule="evenodd" stroke="none"/>
    <path d="M11.4 13.5 L11.05 14.4 Q10.7 14.75 10.2 14.75 9.7 14.75 9.3 14.4 8.95 14.05 8.95 13.5 8.95 13.0 9.3 12.65 9.7 12.3 10.2 12.3 10.7 12.3 11.05 12.65 11.4 13.0 11.4 13.5" fill="url(#gradient2)" fill-rule="evenodd" stroke="none"/>
    <path d="M9.25 10.75 L9.05 11.15 8.55 11.35 Q8.25 11.35 8.05 11.15 L7.8 10.75 8.05 10.3 8.55 10.1 9.05 10.3 9.25 10.75" fill="url(#gradient3)" fill-rule="evenodd" stroke="none"/>
    <path d="M1.6 16.35 L2.35 15.95 Q3.2 15.7 3.95 16.25 L6.35 18.95 Q8.15 20.45 11.7 19.4 L16.1 17.85 Q13.1 20.15 9.75 21.15 3.15 23.05 1.6 16.35" fill="#9a3bed" fill-rule="evenodd" stroke="none"/>
  </g>
  <defs>
    <radialGradient cx="0" cy="0" gradientTransform="matrix(0.0186, 0.0, 0.0, 0.0094, 15.2, 29.05)" gradientUnits="userSpaceOnUse" id="gradient0" r="819.2" spreadMethod="pad">
      <stop offset="0.00784313725490196" stop-color="#4d3212" stop-opacity="0.8"/>
      <stop offset="1.0" stop-color="#6b5438" stop-opacity="0.08627451"/>
    </radialGradient>
    <linearGradient gradientTransform="matrix(0.0151, -0.0053, -0.0053, -0.0151, 14.2, 7.7)" gradientUnits="userSpaceOnUse" id="gradient1" spreadMethod="pad" x1="-819.2" x2="819.2">
      <stop offset="0.0" stop-color="#8341e0"/>
      <stop offset="1.0" stop-color="#6c22d4"/>
    </linearGradient>
    <linearGradient gradientTransform="matrix(0.0011, -4.0E-4, -4.0E-4, -0.0011, 10.2, 13.5)" gradientUnits="userSpaceOnUse" id="gradient2" spreadMethod="pad" x1="-819.2" x2="819.2">
      <stop offset="0.0" stop-color="#8341e0"/>
      <stop offset="1.0" stop-color="#6c22d4"/>
    </linearGradient>
    <linearGradient gradientTransform="matrix(6.0E-4, -2.0E-4, -2.0E-4, -6.0E-4, 8.55, 10.7)" gradientUnits="userSpaceOnUse" id="gradient3" spreadMethod="pad" x1="-819.2" x2="819.2">
      <stop offset="0.0" stop-color="#8341e0"/>
      <stop offset="1.0" stop-color="#6c22d4"/>
    </linearGradient>
  </defs>
</svg>
