<?xml version="1.0" encoding="UTF-8" standalone="no"?>
<svg xmlns:xlink="http://www.w3.org/1999/xlink" height="42.15px" width="28.95px" xmlns="http://www.w3.org/2000/svg">
  <g transform="matrix(1.0, 0.0, 0.0, 1.0, 0.8, 11.4)">
    <path d="M10.4 20.0 L10.55 20.0 10.65 20.1 10.6 20.2 10.5 20.25 10.4 20.0" fill="#81f7e3" fill-rule="evenodd" stroke="none"/>
    <path d="M23.1 6.8 L23.1 3.65 21.75 3.2 18.3 2.45 Q13.7 1.65 9.05 2.45 L5.5 3.25 4.2 3.65 4.2 6.45 6.1 6.35 21.15 6.5 23.1 6.8 M1.9 -8.95 Q1.9 -10.4 3.1 -10.4 4.15 -10.45 4.2 -8.95 L4.2 -8.5 6.3 -9.0 9.0 -9.55 Q13.75 -10.3 18.25 -9.65 L22.1 -8.8 23.1 -8.5 23.1 -8.95 Q23.1 -10.4 24.3 -10.4 25.4 -10.45 25.45 -8.95 L25.45 -8.0 Q27.15 -7.35 27.15 -4.9 L27.15 0.6 Q27.15 3.05 25.45 3.75 L25.45 6.75 25.4 7.8 Q26.55 8.7 26.6 9.9 L26.8 17.05 26.75 17.55 26.8 18.75 Q26.85 20.0 25.6 20.9 L25.6 26.4 26.05 26.4 26.05 26.45 26.1 27.05 26.05 27.05 26.1 29.75 20.9 29.75 20.9 26.45 21.45 26.45 21.45 24.3 6.0 24.3 6.0 26.4 6.45 26.4 6.45 26.45 6.5 27.05 6.45 27.05 6.5 29.75 1.35 29.75 1.35 26.45 1.85 26.45 1.85 20.7 Q0.55 19.75 0.55 18.55 L0.6 17.15 0.55 16.8 0.6 9.6 Q0.6 8.35 1.95 7.45 L1.9 6.75 1.9 3.7 Q0.2 3.0 0.2 0.6 L0.2 -4.9 Q0.2 -7.3 1.9 -8.0 L1.9 -8.95 M21.45 22.05 L6.15 21.95 6.0 21.95 6.0 23.45 21.45 23.45 21.45 22.05" fill="#c6c062" fill-rule="evenodd" stroke="none"/>
    <path d="M1.9 -8.95 L1.9 -8.0 Q0.2 -7.3 0.2 -4.9 L0.2 0.6 Q0.2 3.0 1.9 3.7 L1.9 6.75 1.95 7.45 Q0.6 8.35 0.6 9.6 L0.55 16.8 0.6 17.15 0.55 18.55 Q0.55 19.75 1.85 20.7 L1.85 26.45 1.35 26.45 1.35 29.75 6.5 29.75 6.45 27.05 6.5 27.05 6.45 26.45 6.45 26.4 6.0 26.4 6.0 24.3 21.45 24.3 21.45 26.45 20.9 26.45 20.9 29.75 26.1 29.75 26.05 27.05 26.1 27.05 26.05 26.45 26.05 26.4 25.6 26.4 25.6 20.9 Q26.85 20.0 26.8 18.75 L26.75 17.55 26.8 17.05 26.6 9.9 Q26.55 8.7 25.4 7.8 L25.45 6.75 25.45 3.75 Q27.15 3.05 27.15 0.6 L27.15 -4.9 Q27.15 -7.35 25.45 -8.0 L25.45 -8.95 Q25.4 -10.45 24.3 -10.4 23.1 -10.4 23.1 -8.95 L23.1 -8.5 22.1 -8.8 18.25 -9.65 Q13.75 -10.3 9.0 -9.55 L6.3 -9.0 4.2 -8.5 4.2 -8.95 Q4.15 -10.45 3.1 -10.4 1.9 -10.4 1.9 -8.95 M23.1 6.8 L21.15 6.5 6.1 6.35 4.2 6.45 4.2 3.65 5.5 3.25 9.05 2.45 Q13.7 1.65 18.3 2.45 L21.75 3.2 23.1 3.65 23.1 6.8 M21.45 22.05 L6.15 21.95 6.0 21.95 6.0 23.45 21.45 23.45 21.45 22.05" fill="none" stroke="#744d00" stroke-linecap="round" stroke-linejoin="round" stroke-width="2.0"/>
    <path d="M23.6 24.0 Q23.6 24.45 22.8 24.45 L4.65 24.45 Q3.9 24.45 3.9 24.0 L4.1 23.7 4.65 23.55 22.8 23.55 Q23.6 23.55 23.6 24.0" fill="#fefde8" fill-rule="evenodd" stroke="none"/>
    <path d="M25.1 29.0 Q24.5 29.55 23.6 29.55 22.7 29.55 22.15 29.0 21.55 28.5 21.55 27.75 L21.55 20.1 Q21.55 19.4 22.15 18.85 22.7 18.35 23.6 18.35 24.5 18.35 25.1 18.85 25.7 19.4 25.7 20.1 L25.7 27.75 Q25.7 28.5 25.1 29.0" fill="#e0dc9e" fill-rule="evenodd" stroke="none"/>
    <path d="M24.3 27.5 Q24.05 27.85 23.6 27.85 23.1 27.85 22.85 27.5 22.55 27.15 22.55 26.6 L22.55 21.2 Q22.55 20.7 22.85 20.3 23.2 20.0 23.6 20.0 24.05 20.0 24.3 20.3 24.65 20.7 24.65 21.2 L24.65 26.6 Q24.65 27.15 24.3 27.5" fill="url(#gradient0)" fill-rule="evenodd" stroke="none"/>
    <path d="M26.2 29.9 L21.0 29.9 21.0 26.55 26.15 26.55 26.2 29.9" fill="#c4ba71" fill-rule="evenodd" stroke="none"/>
    <path d="M25.35 29.9 L21.95 29.9 21.95 26.55 25.3 26.55 25.35 29.9" fill="#ece8ad" fill-rule="evenodd" stroke="none"/>
    <path d="M24.55 29.85 L22.6 29.85 22.6 26.55 24.5 26.55 24.55 29.85" fill="#ffffff" fill-rule="evenodd" stroke="none"/>
    <path d="M26.2 27.15 L21.1 27.2 21.0 26.6 21.0 26.55 26.15 26.5 26.2 27.15" fill="url(#gradient1)" fill-rule="evenodd" stroke="none"/>
    <path d="M26.2 29.85 L21.1 29.9 21.1 29.25 21.0 29.2 26.2 29.2 26.2 29.85" fill="url(#gradient2)" fill-rule="evenodd" stroke="none"/>
    <path d="M5.55 29.0 Q4.95 29.55 4.05 29.55 3.15 29.55 2.6 29.0 2.0 28.5 2.0 27.75 L2.0 20.1 Q2.0 19.4 2.6 18.85 3.15 18.35 4.05 18.35 4.95 18.35 5.55 18.85 6.15 19.4 6.15 20.1 L6.15 27.75 Q6.15 28.5 5.55 29.0" fill="#e0dc9e" fill-rule="evenodd" stroke="none"/>
    <path d="M4.75 27.5 Q4.5 27.85 4.05 27.85 3.55 27.85 3.3 27.5 3.0 27.15 3.0 26.6 L3.0 21.2 Q3.0 20.7 3.3 20.3 L4.05 20.0 Q4.5 20.0 4.75 20.3 5.1 20.7 5.1 21.2 L5.1 26.6 Q5.1 27.15 4.75 27.5" fill="url(#gradient3)" fill-rule="evenodd" stroke="none"/>
    <path d="M23.15 -8.8 Q23.1 -10.3 24.3 -10.3 25.4 -10.35 25.45 -8.8 L25.45 6.85 25.15 9.35 Q24.75 10.45 24.3 10.45 23.85 10.45 23.5 9.35 23.1 8.3 23.1 6.85 L23.15 -8.8" fill="#e0dc9e" fill-rule="evenodd" stroke="none"/>
    <path d="M23.75 -8.45 Q23.75 -9.1 24.3 -9.15 24.9 -9.15 24.95 -8.45 L24.95 6.5 24.95 7.1 Q24.3 8.75 23.75 7.1 L23.75 6.5 23.75 -8.45" fill="url(#gradient4)" fill-rule="evenodd" stroke="none"/>
    <path d="M2.0 -8.8 Q1.95 -10.3 3.15 -10.3 4.25 -10.35 4.3 -8.8 L4.3 6.85 4.0 9.35 Q3.6 10.45 3.15 10.45 2.7 10.45 2.35 9.35 1.95 8.3 1.95 6.85 L2.0 -8.8" fill="#e0dc9e" fill-rule="evenodd" stroke="none"/>
    <path d="M2.6 -8.45 Q2.6 -9.1 3.15 -9.15 3.75 -9.15 3.8 -8.45 L3.8 6.5 3.8 7.1 Q3.15 8.75 2.6 7.1 L2.6 6.5 2.6 -8.45" fill="url(#gradient5)" fill-rule="evenodd" stroke="none"/>
    <path d="M26.55 11.85 L26.8 18.85 Q26.85 20.25 25.25 21.2 23.7 22.2 21.4 22.15 L6.15 22.05 Q3.8 22.0 2.25 21.05 0.55 20.0 0.55 18.6 L0.65 11.6 Q0.65 10.2 2.25 9.3 3.85 8.25 6.15 8.3 L21.1 8.5 Q23.3 8.5 24.95 9.55 26.5 10.45 26.55 11.85" fill="#dbd07b" fill-rule="evenodd" stroke="none"/>
    <path d="M26.8 15.25 L26.85 17.15 Q26.9 18.55 25.3 19.55 23.75 20.55 21.45 20.5 L6.2 20.45 Q3.85 20.4 2.25 19.4 0.6 18.35 0.6 16.9 L0.6 15.35 1.05 15.05 1.1 17.4 Q2.7 19.75 6.7 19.9 L21.8 19.95 Q24.9 19.85 26.35 17.55 L26.3 14.95 26.8 15.25" fill="#fefde8" fill-rule="evenodd" stroke="none"/>
    <path d="M26.3 14.95 L26.35 17.55 Q24.9 19.85 21.8 19.95 L6.7 19.9 Q2.7 19.75 1.1 17.4 L1.05 15.05 Q13.2 7.7 26.3 14.95" fill="#fefbd1" fill-rule="evenodd" stroke="none"/>
    <path d="M26.7 10.9 L26.8 15.25 26.3 14.95 Q13.2 7.7 1.05 15.05 L0.6 15.35 0.65 10.9 Q13.0 7.4 26.7 10.9" fill="#f3efb9" fill-rule="evenodd" stroke="none"/>
    <path d="M0.65 10.9 L0.65 9.75 Q0.65 8.35 2.3 7.4 3.85 6.4 6.15 6.45 L21.15 6.65 Q23.4 6.65 25.05 7.65 26.6 8.65 26.65 10.0 L26.7 10.9 Q13.0 7.4 0.65 10.9" fill="#e7de9d" fill-rule="evenodd" stroke="none"/>
    <path d="M24.95 10.2 L25.25 16.45 Q25.35 17.7 23.95 18.55 22.6 19.45 20.55 19.45 L7.0 19.35 Q4.95 19.35 3.5 18.45 2.05 17.55 2.1 16.3 L2.25 9.95 Q2.3 8.8 3.7 7.95 5.1 7.1 7.1 7.1 L20.1 7.2 Q22.0 7.25 23.45 8.1 24.9 9.0 24.95 10.2" fill="url(#gradient6)" fill-rule="evenodd" stroke="none"/>
    <path d="M22.85 15.55 Q24.05 13.85 24.6 11.85 L24.8 15.1 Q24.9 16.3 23.6 17.15 22.25 17.95 20.25 17.9 L7.15 17.8 Q5.15 17.8 3.8 16.95 2.5 16.1 2.55 14.9 L2.8 10.9 Q2.75 13.45 4.8 15.5 6.2 16.35 8.45 16.95 14.45 17.65 20.3 17.05 21.9 16.5 22.85 15.55" fill="#fffde5" fill-rule="evenodd" stroke="none"/>
    <path d="M22.85 15.55 Q23.05 12.15 22.25 11.1 21.35 9.95 19.3 9.0 17.2 8.0 13.35 8.05 9.55 8.1 7.5 9.35 5.4 10.55 5.1 12.0 L4.8 15.5 Q2.75 13.45 2.8 10.9 L2.9 9.1 Q2.95 8.05 4.35 7.3 5.7 6.55 7.55 6.6 L19.75 6.7 Q21.6 6.75 22.95 7.5 24.35 8.3 24.4 9.4 L24.6 11.85 Q24.05 13.85 22.85 15.55" fill="#fffbcd" fill-rule="evenodd" stroke="none"/>
    <path d="M4.8 15.5 L5.1 12.0 Q5.4 10.55 7.5 9.35 9.55 8.1 13.35 8.05 17.2 8.0 19.3 9.0 21.35 9.95 22.25 11.1 23.05 12.15 22.85 15.55 21.9 16.5 20.3 17.05 14.45 17.65 8.45 16.95 6.2 16.35 4.8 15.5" fill="#faf6da" fill-rule="evenodd" stroke="none"/>
    <path d="M6.65 29.9 L1.45 29.9 1.45 26.55 6.6 26.55 6.65 29.9" fill="#c4ba71" fill-rule="evenodd" stroke="none"/>
    <path d="M5.8 29.9 L2.4 29.9 2.4 26.55 5.75 26.55 5.8 29.9" fill="#ece8ad" fill-rule="evenodd" stroke="none"/>
    <path d="M4.85 29.85 L2.9 29.85 2.9 26.55 4.8 26.55 4.85 29.85" fill="#ffffff" fill-rule="evenodd" stroke="none"/>
    <path d="M6.65 27.15 L1.55 27.2 1.45 26.6 1.45 26.55 6.6 26.5 6.65 27.15" fill="url(#gradient7)" fill-rule="evenodd" stroke="none"/>
    <path d="M6.65 29.85 L1.55 29.9 1.55 29.25 1.45 29.2 6.65 29.2 6.65 29.85" fill="url(#gradient8)" fill-rule="evenodd" stroke="none"/>
    <path d="M22.35 -7.75 L22.65 -7.65 22.75 -7.65 23.2 -7.5 Q26.15 -7.5 26.15 -4.6 L26.15 0.15 Q26.15 2.9 23.5 3.05 L23.2 3.05 22.15 2.7 Q22.6 2.2 22.75 1.15 23.15 -1.65 23.05 -4.35 23.1 -6.0 22.35 -7.75 M5.3 2.7 L4.15 3.05 Q1.2 3.05 1.2 0.15 L1.2 -4.6 Q1.2 -7.5 4.15 -7.5 L5.8 -7.95 Q4.35 -6.45 4.3 -2.5 4.2 1.45 5.3 2.7" fill="#f0edb9" fill-rule="evenodd" stroke="none"/>
    <path d="M18.7 -8.6 Q19.4 -3.45 18.85 1.9 14.05 1.0 9.25 1.75 L9.2 1.8 8.8 1.85 Q7.8 -3.1 8.9 -8.6 L9.2 -8.65 11.35 -8.9 18.7 -8.6" fill="#fffcde" fill-rule="evenodd" stroke="none"/>
    <path d="M22.3 -7.8 L22.35 -7.75 Q23.1 -6.0 23.05 -4.35 23.15 -1.65 22.75 1.15 22.6 2.2 22.15 2.7 L18.85 1.9 Q19.4 -3.45 18.7 -8.6 L22.3 -7.8 M5.3 2.7 Q4.2 1.45 4.3 -2.5 4.35 -6.45 5.8 -7.95 L6.4 -8.1 6.85 -8.2 8.9 -8.6 Q7.8 -3.1 8.8 1.85 L5.7 2.6 5.3 2.7" fill="#f7f5cc" fill-rule="evenodd" stroke="none"/>
    <path d="M22.35 -7.75 L22.3 -7.8 22.15 -8.7 24.0 -8.15 Q27.2 -8.15 27.2 -4.8 L27.2 0.65 Q27.2 4.05 24.0 4.05 L21.75 3.3 22.15 2.7 23.2 3.05 23.5 3.05 Q26.15 2.9 26.15 0.15 L26.15 -4.6 Q26.15 -7.5 23.2 -7.5 L22.75 -7.65 22.65 -7.65 22.35 -7.75 M5.8 -7.95 L4.15 -7.5 Q1.2 -7.5 1.2 -4.6 L1.2 0.15 Q1.2 3.05 4.15 3.05 L5.3 2.7 5.55 3.35 3.4 4.05 Q0.2 4.05 0.2 0.65 L0.2 -4.8 Q0.2 -8.15 3.4 -8.15 L6.3 -8.95 5.8 -7.95" fill="#dbd07b" fill-rule="evenodd" stroke="none"/>
    <path d="M22.15 2.7 L21.75 3.3 18.3 2.55 18.85 1.9 22.15 2.7 M22.15 -8.7 L22.3 -7.8 18.7 -8.6 18.25 -9.55 22.15 -8.7 M5.8 -7.95 L6.3 -8.95 9.05 -9.5 8.9 -8.6 6.85 -8.2 6.4 -8.1 5.8 -7.95 M5.55 3.35 L5.3 2.7 5.7 2.6 8.8 1.85 9.1 2.55 5.55 3.35" fill="#deda9a" fill-rule="evenodd" stroke="none"/>
    <path d="M8.9 -8.6 L9.05 -9.5 Q13.75 -10.2 18.25 -9.55 L18.7 -8.6 11.35 -8.9 9.2 -8.65 8.9 -8.6 M18.85 1.9 L18.3 2.55 Q13.7 1.75 9.1 2.55 L8.8 1.85 9.2 1.8 9.25 1.75 Q14.05 1.0 18.85 1.9" fill="#eeeab5" fill-rule="evenodd" stroke="none"/>
  </g>
  <defs>
    <linearGradient gradientTransform="matrix(2.0E-4, -0.0042, -0.0054, -1.0E-4, 23.6, 25.3)" gradientUnits="userSpaceOnUse" id="gradient0" spreadMethod="pad" x1="-819.2" x2="819.2">
      <stop offset="0.00392156862745098" stop-color="#ffffff"/>
      <stop offset="0.00392156862745098" stop-color="#ffffff"/>
      <stop offset="1.0" stop-color="#fefbd0"/>
    </linearGradient>
    <linearGradient gradientTransform="matrix(0.0031, 0.0, 0.0, -0.0024, 23.6, 26.85)" gradientUnits="userSpaceOnUse" id="gradient1" spreadMethod="pad" x1="-819.2" x2="819.2">
      <stop offset="0.0" stop-color="#f3dfbb"/>
      <stop offset="0.4588235294117647" stop-color="#fefce6"/>
      <stop offset="1.0" stop-color="#d2cd89"/>
    </linearGradient>
    <linearGradient gradientTransform="matrix(0.0031, 0.0, 0.0, -0.0024, 23.6, 29.55)" gradientUnits="userSpaceOnUse" id="gradient2" spreadMethod="pad" x1="-819.2" x2="819.2">
      <stop offset="0.0" stop-color="#f3dfbb"/>
      <stop offset="0.4588235294117647" stop-color="#fefce6"/>
      <stop offset="1.0" stop-color="#d2cd89"/>
    </linearGradient>
    <linearGradient gradientTransform="matrix(2.0E-4, -0.0042, -0.0054, -1.0E-4, 4.05, 25.3)" gradientUnits="userSpaceOnUse" id="gradient3" spreadMethod="pad" x1="-819.2" x2="819.2">
      <stop offset="0.00392156862745098" stop-color="#ffffff"/>
      <stop offset="0.00392156862745098" stop-color="#ffffff"/>
      <stop offset="1.0" stop-color="#fefbd0"/>
    </linearGradient>
    <linearGradient gradientTransform="matrix(3.0E-4, -0.0096, 0.0079, 4.0E-4, 24.65, 0.25)" gradientUnits="userSpaceOnUse" id="gradient4" spreadMethod="pad" x1="-819.2" x2="819.2">
      <stop offset="0.00392156862745098" stop-color="#ffffff"/>
      <stop offset="0.00392156862745098" stop-color="#ffffff"/>
      <stop offset="1.0" stop-color="#fefbd0"/>
    </linearGradient>
    <linearGradient gradientTransform="matrix(6.0E-4, -0.0095, 0.0079, 7.0E-4, 3.3, -0.65)" gradientUnits="userSpaceOnUse" id="gradient5" spreadMethod="pad" x1="-819.2" x2="819.2">
      <stop offset="0.00392156862745098" stop-color="#ffffff"/>
      <stop offset="0.00392156862745098" stop-color="#ffffff"/>
      <stop offset="1.0" stop-color="#fefbd0"/>
    </linearGradient>
    <linearGradient gradientTransform="matrix(-1.0E-4, 0.0079, 0.0088, 1.0E-4, 13.75, 12.95)" gradientUnits="userSpaceOnUse" id="gradient6" spreadMethod="pad" x1="-819.2" x2="819.2">
      <stop offset="0.0" stop-color="#e2d99c"/>
      <stop offset="1.0" stop-color="#e0dca4"/>
    </linearGradient>
    <linearGradient gradientTransform="matrix(0.0031, 0.0, 0.0, -0.0024, 4.05, 26.85)" gradientUnits="userSpaceOnUse" id="gradient7" spreadMethod="pad" x1="-819.2" x2="819.2">
      <stop offset="0.0" stop-color="#f3dfbb"/>
      <stop offset="0.4588235294117647" stop-color="#fefce6"/>
      <stop offset="1.0" stop-color="#d2cd89"/>
    </linearGradient>
    <linearGradient gradientTransform="matrix(0.0031, 0.0, 0.0, -0.0024, 4.05, 29.55)" gradientUnits="userSpaceOnUse" id="gradient8" spreadMethod="pad" x1="-819.2" x2="819.2">
      <stop offset="0.0" stop-color="#f3dfbb"/>
      <stop offset="0.4588235294117647" stop-color="#fefce6"/>
      <stop offset="1.0" stop-color="#d2cd89"/>
    </linearGradient>
  </defs>
</svg>
