<?xml version="1.0" encoding="UTF-8" standalone="no"?>
<svg xmlns:xlink="http://www.w3.org/1999/xlink" height="32.25px" width="31.9px" xmlns="http://www.w3.org/2000/svg">
  <g transform="matrix(1.0, 0.0, 0.0, 1.0, 2.4, -0.05)">
    <path d="M4.9 24.0 Q8.05 22.6 12.55 22.6 16.95 22.6 20.1 24.0 23.25 25.45 23.25 27.45 23.25 29.45 20.1 30.9 16.95 32.3 12.55 32.3 8.05 32.3 4.9 30.9 1.8 29.45 1.8 27.45 1.8 25.45 4.9 24.0" fill="url(#gradient0)" fill-rule="evenodd" stroke="none"/>
    <path d="M23.2 7.95 Q23.9 8.4 24.8 8.4 L26.65 8.2 27.4 8.0 27.7 7.8 26.6 9.2 26.15 10.05 Q25.7 11.0 25.65 11.65 25.65 12.4 25.8 12.65 L26.0 12.8 25.4 12.85 Q24.65 13.0 24.0 13.4 L23.15 14.2 Q23.55 14.6 24.0 14.6 L25.1 14.4 25.4 14.15 25.55 14.7 Q25.8 15.3 26.4 15.75 L27.7 16.55 28.3 16.75 28.5 16.75 27.15 17.2 26.45 17.5 25.35 18.25 24.9 19.0 24.9 19.15 24.55 18.95 23.4 18.6 Q22.8 18.55 22.25 18.85 22.0 18.95 21.8 19.15 L21.35 19.75 20.25 18.6 19.55 18.15 19.5 18.25 19.4 18.1 19.2 18.1 Q19.4 18.75 18.45 19.2 L18.0 19.45 18.45 19.75 19.15 20.75 19.05 20.65 17.65 20.55 17.85 21.1 17.85 21.15 19.85 23.65 Q21.7 25.65 21.15 26.9 20.55 28.0 19.05 28.7 17.5 29.3 16.85 28.1 L16.8 27.95 16.7 27.65 16.35 26.55 15.9 25.4 15.85 25.3 15.5 24.4 15.05 23.4 14.45 22.2 14.25 21.85 14.2 22.2 13.95 23.25 13.7 23.7 13.05 22.6 12.65 23.25 11.85 24.0 Q11.2 24.45 11.3 24.2 L11.5 23.35 11.7 22.05 11.9 20.85 11.65 20.85 11.65 21.1 11.55 21.25 11.3 20.95 11.25 20.85 10.9 20.8 10.65 21.1 10.55 21.25 Q10.3 21.8 10.35 22.15 L10.55 22.7 10.65 23.0 10.15 22.95 9.45 23.15 9.2 23.55 8.9 23.55 8.2 23.7 7.15 24.05 8.25 22.0 7.05 24.15 7.2 23.45 7.2 23.05 7.05 22.35 6.85 21.9 6.95 21.75 7.35 21.4 7.05 21.35 Q5.9 21.35 5.35 20.65 L5.2 20.8 4.6 21.7 4.3 22.25 3.8 21.35 Q3.2 20.55 2.65 20.55 L1.65 20.55 1.35 20.15 0.45 19.25 -1.4 18.1 -0.25 17.45 0.35 17.0 1.35 15.95 1.7 15.05 1.65 14.9 2.1 15.1 2.3 15.2 2.3 15.15 2.45 15.05 1.3 14.2 Q-0.15 12.95 0.45 11.0 0.65 10.2 1.35 9.75 L2.1 9.6 2.3 9.5 2.15 9.25 1.8 9.0 Q1.6 8.65 1.7 8.2 1.9 7.3 3.05 6.75 L3.65 6.3 3.5 6.1 3.65 6.1 3.9 6.25 4.25 6.1 4.3 6.1 4.3 6.05 3.9 5.4 4.45 5.9 4.45 5.8 4.35 5.35 4.35 5.05 4.7 5.05 5.1 5.2 5.9 4.6 5.95 3.85 6.25 4.3 6.45 4.15 6.35 3.95 6.35 3.8 6.6 4.05 6.75 3.95 6.65 3.25 6.65 3.15 7.05 3.7 7.1 3.85 Q8.0 3.25 9.0 3.05 L9.65 4.0 9.95 4.05 9.8 2.8 10.25 2.8 10.3 2.75 10.3 2.8 10.35 3.45 10.5 3.1 10.55 2.7 10.75 2.7 Q11.85 1.15 13.7 1.05 L14.0 1.1 14.15 1.05 15.05 1.25 15.4 1.6 16.9 1.45 17.05 1.45 17.3 1.45 Q18.6 1.35 19.7 3.2 L20.05 3.85 Q20.15 4.45 19.8 4.9 L19.85 6.15 20.65 6.45 20.2 6.75 20.8 7.7 20.65 7.8 20.35 8.25 Q20.7 8.1 21.1 8.25 21.7 8.1 22.15 8.6 L22.5 8.05 22.6 7.55 23.2 7.95 M8.25 22.0 L8.65 21.25 8.25 22.0 M-1.4 18.1 L0.95 17.75 3.35 17.35 0.95 17.75 -1.4 18.1" fill="#4ca119" fill-rule="evenodd" stroke="none"/>
    <path d="M23.2 7.95 Q23.9 8.4 24.8 8.4 L26.65 8.2 27.4 8.0 27.7 7.8 26.6 9.2 26.15 10.05 Q25.7 11.0 25.65 11.65 25.65 12.4 25.8 12.65 L26.0 12.8 25.4 12.85 Q24.65 13.0 24.0 13.4 L23.15 14.2 Q23.55 14.6 24.0 14.6 L25.1 14.4 25.4 14.15 25.55 14.7 Q25.8 15.3 26.4 15.75 L27.7 16.55 28.3 16.75 28.5 16.75 27.15 17.2 26.45 17.5 25.35 18.25 24.9 19.0 24.9 19.15 24.55 18.95 23.4 18.6 Q22.8 18.55 22.25 18.85 22.0 18.95 21.8 19.15 L21.35 19.75 20.25 18.6 19.55 18.15 19.5 18.25 19.4 18.1 19.2 18.1 Q19.4 18.75 18.45 19.2 L18.0 19.45 18.45 19.75 19.15 20.75 19.05 20.65 17.65 20.55 17.85 21.1 17.85 21.15 19.85 23.65 Q21.7 25.65 21.15 26.9 20.55 28.0 19.05 28.7 17.5 29.3 16.85 28.1 L16.8 27.95 16.7 27.65 16.35 26.55 15.9 25.4 15.85 25.3 15.5 24.4 15.05 23.4 14.45 22.2 14.25 21.85 14.2 22.2 13.95 23.25 13.7 23.7 13.05 22.6 12.65 23.25 11.85 24.0 Q11.2 24.45 11.3 24.2 L11.5 23.35 11.7 22.05 11.9 20.85 11.65 20.85 11.65 21.1 11.55 21.25 11.3 20.95 11.25 20.85 10.9 20.8 10.65 21.1 10.55 21.25 Q10.3 21.8 10.35 22.15 L10.55 22.7 10.65 23.0 10.15 22.95 9.45 23.15 9.2 23.55 8.9 23.55 8.2 23.7 7.15 24.05 8.25 22.0 7.05 24.15 7.2 23.45 7.2 23.05 7.05 22.35 6.85 21.9 6.95 21.75 7.35 21.4 7.05 21.35 Q5.9 21.35 5.35 20.65 L5.2 20.8 4.6 21.7 4.3 22.25 3.8 21.35 Q3.2 20.55 2.65 20.55 L1.65 20.55 1.35 20.15 0.45 19.25 -1.4 18.1 -0.25 17.45 0.35 17.0 1.35 15.95 1.7 15.05 1.65 14.9 2.1 15.1 2.3 15.2 2.3 15.15 2.45 15.05 1.3 14.2 Q-0.15 12.95 0.45 11.0 0.65 10.2 1.35 9.75 L2.1 9.6 2.3 9.5 2.15 9.25 1.8 9.0 Q1.6 8.65 1.7 8.2 1.9 7.3 3.05 6.75 L3.65 6.3 3.5 6.1 3.65 6.1 3.9 6.25 4.25 6.1 4.3 6.1 4.3 6.05 3.9 5.4 4.45 5.9 4.45 5.8 4.35 5.35 4.35 5.05 4.7 5.05 5.1 5.2 5.9 4.6 5.95 3.85 6.25 4.3 6.45 4.15 6.35 3.95 6.35 3.8 6.6 4.05 6.75 3.95 6.65 3.25 6.65 3.15 7.05 3.7 7.1 3.85 Q8.0 3.25 9.0 3.05 L9.65 4.0 9.95 4.05 9.8 2.8 10.25 2.8 10.3 2.75 10.3 2.8 10.35 3.45 10.5 3.1 10.55 2.7 10.75 2.7 Q11.85 1.15 13.7 1.05 L14.0 1.1 14.15 1.05 15.05 1.25 15.4 1.6 16.9 1.45 17.05 1.45 17.3 1.45 Q18.6 1.35 19.7 3.2 L20.05 3.85 Q20.15 4.45 19.8 4.9 L19.85 6.15 20.65 6.45 20.2 6.75 20.8 7.7 20.65 7.8 20.35 8.25 Q20.7 8.1 21.1 8.25 21.7 8.1 22.15 8.6 L22.5 8.05 22.6 7.55 23.2 7.95 M3.35 17.35 L0.95 17.75 -1.4 18.1 M8.65 21.25 L8.25 22.0" fill="none" stroke="#005f37" stroke-linecap="round" stroke-linejoin="round" stroke-width="2.0"/>
    <path d="M12.45 12.65 L12.2 13.15 11.65 13.35 11.1 13.15 10.85 12.65 Q10.85 12.3 11.1 12.1 L11.65 11.9 12.2 12.1 12.45 12.65" fill="url(#gradient1)" fill-rule="evenodd" stroke="none"/>
    <path d="M12.0 12.45 L11.85 12.75 11.55 12.85 11.2 12.75 11.1 12.45 11.2 12.15 Q11.35 12.0 11.55 12.0 L11.85 12.15 12.0 12.45" fill="#fff93f" fill-rule="evenodd" stroke="none"/>
    <path d="M26.3 15.65 L27.6 16.45 28.3 16.7 17.35 16.9 Q17.35 16.65 18.2 16.3 L19.25 15.7 19.35 14.95 19.25 14.6 20.05 14.7 Q20.9 14.65 21.55 14.05 L22.15 13.45 22.4 13.05 22.85 13.8 23.9 14.55 25.0 14.3 25.3 14.05 25.45 14.6 Q25.7 15.25 26.3 15.65" fill="#1f6b50" fill-rule="evenodd" stroke="none"/>
    <path d="M27.15 17.2 L26.45 17.5 25.35 18.35 24.9 19.05 24.95 19.2 24.55 18.95 23.4 18.65 22.25 18.85 21.8 19.15 21.35 19.85 20.25 18.6 Q19.95 18.35 19.5 18.2 L19.15 18.0 18.8 18.3 18.5 17.85 17.75 17.15 17.6 16.95 28.55 16.75 27.15 17.2" fill="#1b9c6e" fill-rule="evenodd" stroke="none"/>
    <path d="M18.75 5.15 Q19.05 4.9 19.6 4.75 L19.2 5.55 19.75 6.1 20.65 6.45 20.2 6.75 20.8 7.7 20.65 7.8 20.2 8.4 21.4 9.2 21.4 9.15 21.7 10.8 21.1 10.85 21.75 11.15 21.75 11.75 21.75 12.1 21.85 12.15 22.25 12.4 22.3 12.5 21.75 12.9 21.8 12.9 22.25 13.25 21.55 13.7 21.3 14.75 20.6 16.2 20.9 16.75 20.65 16.75 Q20.85 16.9 20.65 16.85 20.5 16.8 20.3 17.1 L19.5 18.25 19.05 17.55 19.2 18.0 Q19.4 18.7 18.45 19.2 L15.8 20.25 15.5 19.8 15.45 19.85 15.35 20.35 15.25 20.4 14.5 19.45 14.65 20.55 14.55 20.6 14.0 19.95 13.7 20.75 11.95 20.85 11.65 20.85 11.65 21.1 11.55 21.25 11.3 20.95 11.25 20.85 10.9 20.8 10.65 21.1 10.6 21.0 10.55 20.8 9.15 20.5 8.9 20.15 8.65 20.25 8.6 20.35 8.45 20.3 8.25 20.05 7.9 19.8 7.65 19.9 7.6 20.0 6.75 19.5 6.7 19.5 6.45 19.75 6.45 19.35 6.3 19.25 6.05 19.3 5.55 19.15 5.5 18.65 4.9 18.45 3.9 18.05 4.3 17.35 4.2 17.3 3.2 17.55 3.8 16.75 3.2 16.65 3.15 16.25 3.05 15.8 2.7 15.75 2.7 15.35 2.75 15.2 2.85 15.05 Q2.3 14.0 2.25 12.65 L2.3 12.65 2.6 12.65 Q3.05 12.5 3.1 12.2 L2.2 11.9 2.55 11.55 2.6 11.55 2.25 11.25 2.2 11.25 2.3 10.2 1.8 9.7 2.35 9.45 2.4 9.45 2.55 9.0 2.45 8.95 2.25 8.6 2.3 8.6 2.75 8.7 2.8 8.4 2.85 8.35 Q3.2 7.4 3.85 6.5 L3.5 6.1 3.65 6.1 4.1 6.25 4.3 6.05 3.9 5.4 4.45 5.9 4.45 5.8 4.35 5.35 4.35 5.05 4.7 5.05 5.1 5.2 5.9 4.6 5.9 4.55 5.95 4.65 5.0 5.4 4.45 5.9 4.3 6.05 3.95 6.65 4.15 7.0 4.35 7.3 3.95 7.8 Q3.55 8.25 3.55 8.85 L3.65 10.1 3.4 10.95 3.2 11.6 3.6 12.0 4.3 12.35 3.75 13.15 3.35 13.95 3.65 14.5 Q3.95 14.9 4.3 14.9 L4.15 15.3 Q4.15 15.8 4.6 15.95 L5.7 16.2 5.85 17.15 5.95 18.0 Q6.1 18.0 6.1 18.1 L6.3 17.8 Q6.45 17.65 6.7 17.65 L7.15 18.15 Q7.5 18.6 8.25 18.45 L8.6 19.15 9.05 18.85 9.55 18.65 10.45 19.15 11.35 19.75 11.85 19.5 12.4 19.35 12.65 19.95 12.75 20.05 13.35 18.85 13.85 18.85 14.6 19.2 Q15.05 19.55 15.45 19.6 L15.7 19.0 Q16.65 19.55 16.95 19.55 17.25 19.55 17.8 19.0 L18.4 18.25 Q18.05 17.55 18.7 17.35 L19.6 17.3 19.9 16.85 20.2 16.1 Q20.15 15.8 20.5 15.55 L20.85 15.1 20.65 14.55 21.05 13.85 21.45 12.65 Q21.45 12.15 20.9 11.8 L21.25 11.45 20.9 10.65 20.4 9.85 20.55 9.7 20.75 9.65 20.0 9.15 19.5 8.5 19.8 8.1 20.0 7.7 Q20.0 6.9 19.2 5.95 18.9 5.65 18.75 5.15 M21.75 12.9 L21.7 12.8 21.7 12.9 21.75 12.9" fill="#3a7715" fill-rule="evenodd" stroke="none"/>
    <path d="M5.9 4.55 L5.95 3.85 6.25 4.3 6.45 4.15 6.35 3.95 6.35 3.8 6.6 4.05 6.75 3.95 6.65 3.25 6.65 3.15 7.05 3.7 7.1 3.85 Q8.0 3.25 9.0 3.05 L9.95 4.45 10.0 4.45 9.8 2.8 10.25 2.8 10.3 2.75 10.3 2.8 10.45 3.7 10.55 2.7 11.95 2.65 12.4 2.65 12.65 2.25 12.9 2.65 13.6 2.75 13.9 2.5 14.05 2.8 14.6 2.95 14.9 2.65 14.9 2.6 15.0 3.05 16.0 3.4 16.65 2.6 16.6 3.7 Q17.55 4.15 18.5 4.9 L18.75 5.15 Q18.9 5.65 19.2 5.95 20.0 6.9 20.0 7.7 L19.8 8.1 19.5 8.5 20.0 9.15 20.75 9.65 20.55 9.7 20.4 9.85 20.9 10.65 21.25 11.45 20.9 11.8 Q21.45 12.15 21.45 12.65 L21.05 13.85 20.65 14.55 20.85 15.1 20.5 15.55 Q20.15 15.8 20.2 16.1 L19.9 16.85 19.6 17.3 18.7 17.35 Q18.05 17.55 18.4 18.25 L17.8 19.0 Q17.25 19.55 16.95 19.55 16.65 19.55 15.7 19.0 L15.45 19.6 Q15.05 19.55 14.6 19.2 L13.85 18.85 13.35 18.85 12.75 20.05 12.65 19.95 12.4 19.35 11.85 19.5 11.35 19.75 10.45 19.15 9.55 18.65 9.05 18.85 8.6 19.15 8.25 18.45 Q7.5 18.6 7.15 18.15 L6.7 17.65 Q6.45 17.65 6.3 17.8 L6.1 18.1 Q6.1 18.0 5.95 18.0 L5.85 17.15 5.7 16.2 4.6 15.95 Q4.15 15.8 4.15 15.3 L4.3 14.9 Q3.95 14.9 3.65 14.5 L3.35 13.95 3.75 13.15 4.3 12.35 3.6 12.0 3.2 11.6 3.4 10.95 3.65 10.1 3.55 8.85 Q3.55 8.25 3.95 7.8 L4.35 7.3 4.15 7.0 3.95 6.65 4.3 6.05 4.45 5.9 5.0 5.4 5.95 4.65 5.9 4.55 M16.9 5.25 L16.0 5.15 15.3 5.0 14.25 5.05 14.2 4.15 14.0 4.15 Q12.45 4.95 11.65 4.6 11.1 4.45 10.45 5.0 L9.55 5.6 9.3 5.15 9.2 5.35 8.95 5.35 8.65 5.25 8.3 5.05 7.95 5.05 7.95 5.95 Q8.15 5.8 8.05 6.25 7.85 6.1 7.7 6.1 L7.8 6.3 7.4 6.3 6.5 5.8 Q6.9 6.75 6.9 7.95 L6.5 7.9 5.95 7.95 6.2 8.55 6.3 9.3 Q6.3 9.75 5.7 10.2 L5.05 10.75 5.35 11.45 5.5 12.05 5.3 12.5 4.7 12.55 4.55 14.0 Q4.55 14.6 4.9 14.55 L6.15 14.6 5.95 14.85 Q5.8 15.0 5.8 15.2 L7.15 15.55 8.85 15.8 Q8.6 17.2 9.65 17.2 L10.75 17.3 11.55 18.55 12.65 17.95 13.9 17.35 14.45 17.8 14.75 18.45 15.15 18.45 15.5 17.8 15.85 17.45 16.15 17.8 16.65 17.8 17.7 17.45 Q18.25 17.0 18.9 16.85 L18.7 16.4 19.5 16.4 19.3 14.6 Q19.3 13.95 19.55 13.6 19.7 13.4 20.3 13.1 L19.85 12.3 19.4 11.25 19.8 10.7 20.15 10.2 18.8 9.0 Q18.1 8.35 18.25 7.7 18.3 7.1 17.55 6.65 16.7 6.15 16.7 5.75 L16.9 5.25 M6.15 16.1 L6.25 16.25 6.8 16.1 6.15 16.1" fill="#146649" fill-rule="evenodd" stroke="none"/>
    <path d="M16.9 5.25 L16.7 5.75 Q16.7 6.15 17.55 6.65 18.3 7.1 18.25 7.7 18.1 8.35 18.8 9.0 L20.15 10.2 19.8 10.7 19.4 11.25 19.85 12.3 20.3 13.1 Q19.7 13.4 19.55 13.6 19.3 13.95 19.3 14.6 L19.5 16.4 18.7 16.4 18.9 16.85 Q18.25 17.0 17.7 17.45 L16.65 17.8 16.15 17.8 15.85 17.45 15.5 17.8 15.15 18.45 14.75 18.45 14.45 17.8 13.9 17.35 12.65 17.95 11.55 18.55 10.75 17.3 9.65 17.2 Q8.6 17.2 8.85 15.8 L7.15 15.55 5.8 15.2 Q5.8 15.0 5.95 14.85 L6.15 14.6 4.9 14.55 Q4.55 14.6 4.55 14.0 L4.7 12.55 5.3 12.5 5.5 12.05 5.35 11.45 5.05 10.75 5.7 10.2 Q6.3 9.75 6.3 9.3 L6.2 8.55 5.95 7.95 6.5 7.9 6.9 7.95 Q6.9 6.75 6.5 5.8 L7.4 6.3 7.8 6.3 7.7 6.1 Q7.85 6.1 8.05 6.25 8.15 5.8 7.95 5.95 L7.95 5.05 8.3 5.05 8.65 5.25 8.95 5.35 9.2 5.35 9.3 5.15 9.55 5.6 10.45 5.0 Q11.1 4.45 11.65 4.6 12.45 4.95 14.0 4.15 L14.2 4.15 14.25 5.05 15.3 5.0 16.0 5.15 16.9 5.25 M13.35 6.5 L12.15 7.25 11.0 6.95 10.0 6.4 9.1 7.8 8.0 9.3 8.0 9.4 7.85 9.4 7.05 9.75 Q6.35 10.0 6.45 10.35 L8.55 11.45 8.45 11.6 7.55 12.35 6.45 13.0 6.6 13.0 Q7.05 12.8 7.8 14.1 8.55 15.4 8.8 15.4 L9.5 14.65 10.4 13.75 10.7 13.55 10.6 13.85 10.45 14.8 13.2 16.4 Q13.2 14.7 13.7 14.45 L14.9 15.65 16.7 13.55 15.6 12.6 14.9 11.75 Q14.9 11.1 16.7 8.7 16.3 8.25 15.3 7.95 14.8 7.8 14.8 6.9 14.8 5.95 15.05 5.35 14.5 5.55 13.35 6.5" fill="#6cc237" fill-rule="evenodd" stroke="none"/>
    <path d="M13.35 6.5 Q14.5 5.55 15.05 5.35 14.8 5.95 14.8 6.9 14.8 7.8 15.3 7.95 16.3 8.25 16.7 8.7 14.9 11.1 14.9 11.75 L15.6 12.6 16.7 13.55 14.9 15.65 13.7 14.45 Q13.2 14.7 13.2 16.4 L10.45 14.8 10.6 13.85 10.7 13.55 10.4 13.75 9.5 14.65 8.8 15.4 Q8.55 15.4 7.8 14.1 7.05 12.8 6.6 13.0 L6.45 13.0 7.55 12.35 8.45 11.6 8.55 11.45 6.45 10.35 Q6.35 10.0 7.05 9.75 L7.85 9.4 8.0 9.4 8.0 9.3 9.1 7.8 10.0 6.4 11.0 6.95 12.15 7.25 13.35 6.5" fill="#88db54" fill-rule="evenodd" stroke="none"/>
    <path d="M5.6 9.55 L5.35 10.05 4.85 10.25 4.3 10.1 4.1 9.6 4.3 9.1 Q4.5 8.9 4.85 8.85 L5.35 9.05 5.6 9.55" fill="url(#gradient2)" fill-rule="evenodd" stroke="none"/>
    <path d="M5.15 9.35 L5.05 9.65 4.7 9.85 4.4 9.7 4.3 9.4 4.4 9.1 4.7 9.0 5.05 9.05 5.15 9.35" fill="#e51717" fill-rule="evenodd" stroke="none"/>
    <path d="M12.2 19.45 L11.9 20.1 Q11.65 20.4 11.2 20.4 10.8 20.4 10.5 20.1 10.2 19.9 10.2 19.5 10.2 19.1 10.5 18.75 10.8 18.5 11.2 18.5 L11.9 18.75 12.2 19.45" fill="url(#gradient3)" fill-rule="evenodd" stroke="none"/>
    <path d="M11.65 19.2 L11.5 19.6 11.05 19.75 10.65 19.6 10.5 19.2 Q10.5 18.95 10.65 18.8 10.85 18.65 11.05 18.65 L11.5 18.8 11.65 19.2" fill="#e51717" fill-rule="evenodd" stroke="none"/>
    <path d="M13.4 19.1 L13.25 19.55 12.75 19.75 12.3 19.55 12.05 19.1 12.25 18.65 Q12.4 18.45 12.7 18.45 L13.2 18.65 13.4 19.1" fill="url(#gradient4)" fill-rule="evenodd" stroke="none"/>
    <path d="M13.0 18.95 L12.9 19.2 12.6 19.3 12.3 19.2 12.2 18.95 12.3 18.65 12.6 18.55 12.9 18.65 13.0 18.95" fill="#e2dd27" fill-rule="evenodd" stroke="none"/>
    <path d="M18.8 18.1 L18.6 18.5 18.2 18.75 Q17.9 18.75 17.75 18.55 L17.55 18.15 17.75 17.7 Q17.9 17.55 18.2 17.55 L18.6 17.65 18.8 18.1" fill="url(#gradient5)" fill-rule="evenodd" stroke="none"/>
    <path d="M18.45 17.9 L18.35 18.2 18.1 18.3 17.8 18.2 17.7 17.95 17.8 17.75 Q17.95 17.6 18.1 17.6 L18.35 17.75 18.45 17.9" fill="#e51717" fill-rule="evenodd" stroke="none"/>
    <path d="M18.2 16.8 L18.05 17.15 17.7 17.3 17.3 17.15 17.15 16.8 17.3 16.45 Q17.45 16.3 17.7 16.3 L18.05 16.45 18.2 16.8" fill="url(#gradient6)" fill-rule="evenodd" stroke="none"/>
    <path d="M17.9 16.65 L17.8 16.9 17.6 16.95 17.4 16.9 17.3 16.65 17.4 16.45 17.6 16.4 17.8 16.45 17.9 16.65" fill="#fff93f" fill-rule="evenodd" stroke="none"/>
    <path d="M20.15 15.5 L19.95 16.0 19.45 16.2 Q19.1 16.2 18.9 16.0 L18.7 15.5 Q18.7 15.2 18.85 15.0 19.05 14.8 19.4 14.8 L19.9 15.0 20.15 15.5" fill="url(#gradient7)" fill-rule="evenodd" stroke="none"/>
    <path d="M19.75 15.3 L19.6 15.6 19.3 15.7 19.0 15.6 18.9 15.3 18.95 15.0 19.25 14.9 19.55 15.0 19.75 15.3" fill="#fff93f" fill-rule="evenodd" stroke="none"/>
    <path d="M20.9 11.65 L20.7 12.15 20.2 12.35 Q19.85 12.35 19.65 12.15 L19.45 11.65 Q19.45 11.35 19.6 11.15 19.8 10.95 20.15 10.95 L20.65 11.15 20.9 11.65" fill="url(#gradient8)" fill-rule="evenodd" stroke="none"/>
    <path d="M20.5 11.45 L20.35 11.75 20.05 11.85 19.75 11.75 19.65 11.45 19.7 11.15 20.0 11.05 20.3 11.15 20.5 11.45" fill="#fff93f" fill-rule="evenodd" stroke="none"/>
    <path d="M20.35 12.4 L20.2 12.75 19.85 12.9 19.45 12.75 19.3 12.4 19.45 12.05 Q19.6 11.9 19.85 11.9 20.05 11.9 20.2 12.05 L20.35 12.4" fill="url(#gradient9)" fill-rule="evenodd" stroke="none"/>
    <path d="M20.05 12.25 L19.95 12.5 19.75 12.55 19.55 12.5 19.45 12.25 19.55 12.05 19.75 12.0 19.95 12.05 20.05 12.25" fill="#fff93f" fill-rule="evenodd" stroke="none"/>
    <path d="M18.15 5.9 L17.95 6.35 17.45 6.55 Q17.15 6.55 16.95 6.35 L16.75 5.9 16.95 5.4 17.45 5.2 17.95 5.4 18.15 5.9" fill="url(#gradient10)" fill-rule="evenodd" stroke="none"/>
    <path d="M17.75 5.7 L17.6 6.0 17.35 6.1 17.05 6.0 16.9 5.7 17.05 5.45 Q17.15 5.3 17.35 5.3 L17.6 5.45 17.75 5.7" fill="#e51717" fill-rule="evenodd" stroke="none"/>
    <path d="M21.55 10.15 L21.25 10.95 Q20.95 11.3 20.45 11.3 20.0 11.3 19.65 10.95 19.3 10.65 19.3 10.2 19.3 9.75 19.6 9.45 19.95 9.15 20.4 9.15 20.9 9.15 21.2 9.45 L21.55 10.15" fill="url(#gradient11)" fill-rule="evenodd" stroke="none"/>
    <path d="M20.9 9.95 L20.7 10.35 20.25 10.55 Q19.95 10.55 19.8 10.35 L19.6 9.95 Q19.6 9.65 19.8 9.5 19.95 9.3 20.25 9.3 L20.7 9.5 20.9 9.95" fill="#e51717" fill-rule="evenodd" stroke="none"/>
    <path d="M10.75 10.5 Q10.3 12.65 8.75 12.45 7.15 12.3 6.15 11.15 L5.35 10.6 Q4.0 10.9 2.7 9.8 1.4 8.7 2.6 7.15 3.15 6.4 4.25 6.0 L7.3 6.1 Q9.0 6.7 10.1 7.45 11.2 8.25 10.75 10.5" fill="#bf2547" fill-rule="evenodd" stroke="none"/>
    <path d="M1.3 9.7 Q2.15 9.15 2.85 10.1 L3.35 10.35 Q3.85 10.9 3.75 12.2 3.65 13.5 4.8 14.8 L6.0 15.85 3.75 15.55 Q2.25 15.15 1.25 14.2 -0.1 12.85 0.45 10.95 0.65 10.15 1.3 9.7" fill="#e55c7a" fill-rule="evenodd" stroke="none"/>
    <path d="M5.35 8.55 L5.4 10.5 Q5.35 9.35 4.25 9.45 L3.1 9.8 3.65 9.05 Q4.4 8.4 5.35 8.55" fill="#e5585e" fill-rule="evenodd" stroke="none"/>
    <path d="M2.65 13.5 Q2.3 13.05 2.2 12.4 1.9 11.1 2.85 10.25 L3.35 10.15 4.75 10.5 5.55 10.85 Q6.25 11.3 5.85 12.2 5.45 13.25 4.2 13.65 L2.65 13.5" fill="#f36b6f" fill-rule="evenodd" stroke="none"/>
    <path d="M3.35 14.35 L3.75 13.25 4.3 12.75 5.0 12.35 Q5.9 11.7 5.75 9.9 5.7 8.7 6.6 8.05 7.65 7.25 8.95 8.55 L9.65 9.15 10.25 9.9 Q10.8 11.2 9.4 14.15 7.65 17.75 3.55 15.15 3.25 14.9 3.35 14.35" fill="#b82547" fill-rule="evenodd" stroke="none"/>
    <path d="M6.55 7.15 L7.4 7.05 Q7.7 7.15 8.0 7.4 8.65 8.1 8.3 9.95 7.9 11.7 7.0 13.15 5.95 14.85 4.75 15.25 3.8 15.55 3.05 15.0 2.7 14.8 2.8 14.2 L3.35 14.6 Q4.05 14.85 4.85 14.35 L5.95 13.1 6.0 12.4 5.9 12.0 Q7.15 11.25 7.4 10.7 L7.55 9.9 7.6 9.2 7.3 8.7 Q7.15 8.35 7.5 7.95 L6.55 7.15" fill="#d74768" fill-rule="evenodd" stroke="none"/>
    <path d="M2.8 14.2 L2.85 13.9 3.15 13.15 3.4 12.85 4.15 12.35 Q4.85 11.75 5.3 10.4 4.8 8.35 6.35 7.3 L6.55 7.15 7.5 7.95 Q7.15 8.35 7.3 8.7 L7.6 9.2 7.55 9.9 7.4 10.7 Q7.15 11.25 5.9 12.0 L6.0 12.4 5.95 13.1 4.85 14.35 Q4.05 14.85 3.35 14.6 L2.8 14.2" fill="#f36b6f" fill-rule="evenodd" stroke="none"/>
    <path d="M0.8 10.25 Q1.2 9.85 1.7 10.0 1.85 10.8 1.5 11.65 L1.7 12.35 2.1 13.5 Q2.9 14.6 2.3 14.55 2.0 14.5 1.45 14.15 0.9 13.85 0.55 12.95 0.15 12.05 0.4 11.05 L0.8 10.25" fill="#f36b6f" fill-rule="evenodd" stroke="none"/>
    <path d="M0.55 11.25 Q1.15 11.3 1.25 12.25 L1.6 13.1 0.8 12.7 Q0.45 12.35 0.45 11.75 L0.55 11.25" fill="#ffd5c2" fill-rule="evenodd" stroke="none"/>
    <path d="M2.2 9.2 Q1.95 9.25 1.75 9.0 1.55 8.65 1.65 8.2 1.9 7.0 3.85 6.35 L4.65 6.2 Q5.45 6.15 5.65 7.1 5.1 6.9 4.4 7.35 L3.1 8.45 2.2 9.2" fill="#e55c7a" fill-rule="evenodd" stroke="none"/>
    <path d="M2.1 8.2 L2.15 7.8 Q2.35 7.2 3.1 6.85 3.9 6.65 3.95 6.85 L3.05 7.25 Q2.25 7.65 2.1 8.2" fill="#ffb59f" fill-rule="evenodd" stroke="none"/>
    <path d="M2.9 14.3 L2.7 14.1 3.8 12.95 5.3 11.65 Q5.45 12.25 5.2 12.9 4.75 14.2 2.9 14.3" fill="#ffc8ad" fill-rule="evenodd" stroke="none"/>
    <path d="M5.6 10.4 L5.3 9.55 Q5.3 8.65 6.2 8.3 L6.6 8.7 Q6.75 9.25 5.6 10.4" fill="#fcb895" fill-rule="evenodd" stroke="none"/>
    <path d="M2.65 13.2 Q2.3 12.95 2.1 12.35 L2.65 12.35 Q3.35 12.2 4.05 11.65 4.9 10.95 4.9 10.15 L4.85 11.05 Q4.45 12.2 2.65 13.2" fill="#d74768" fill-rule="evenodd" stroke="none"/>
    <path d="M3.2 9.6 L2.75 9.4 Q2.4 9.05 2.5 8.6 L2.95 7.9 Q3.3 7.55 4.15 7.4 L5.55 7.45 Q5.3 7.6 5.0 7.8 3.5 8.75 3.2 9.6" fill="#d64564" fill-rule="evenodd" stroke="none"/>
    <path d="M2.55 14.0 Q1.85 13.6 1.55 12.25 L1.5 11.2 Q1.55 10.5 1.85 10.15 L2.2 9.95 Q2.6 9.8 2.85 10.25 2.55 10.45 2.35 10.95 2.0 12.05 2.6 13.45 L2.55 14.0" fill="#bf2547" fill-rule="evenodd" stroke="none"/>
    <path d="M4.55 11.8 L5.0 10.65 5.15 11.0 5.6 11.3 5.5 11.3 Q4.85 11.25 4.55 11.8" fill="#fffaf5" fill-rule="evenodd" stroke="none"/>
    <path d="M2.4 11.45 L2.55 11.15 Q2.8 10.9 3.25 10.75 4.1 10.55 4.1 10.9 L3.2 11.5 2.4 11.45" fill="#fcb49b" fill-rule="evenodd" stroke="none"/>
    <path d="M2.55 14.0 Q1.7 13.1 1.5 11.8 L1.55 10.85 1.85 10.15 2.2 9.9 2.65 10.25 Q2.2 10.5 1.9 11.5 1.75 11.9 2.0 12.5 L2.55 14.0" fill="#d64564" fill-rule="evenodd" stroke="none"/>
    <path d="M3.05 9.25 L2.7 9.1 Q2.4 8.9 2.6 8.65 L3.15 7.9 4.65 7.95 3.75 8.25 Q2.85 8.6 3.05 9.25" fill="#ffad99" fill-rule="evenodd" stroke="none"/>
    <path d="M1.65 20.6 L1.35 20.2 0.4 19.25 -1.4 18.15 10.05 16.6 9.1 17.4 7.95 18.3 7.8 19.4 7.8 19.95 6.75 20.1 Q5.65 20.4 5.15 20.85 L4.55 21.7 4.25 22.3 3.8 21.4 Q3.2 20.55 2.6 20.6 L1.65 20.6" fill="#146649" fill-rule="evenodd" stroke="none"/>
    <path d="M4.7 14.55 L5.2 13.7 5.65 14.15 6.5 14.9 7.35 15.3 8.25 15.05 Q8.15 15.2 8.9 15.75 L9.8 16.4 10.0 16.6 -1.45 18.2 -0.3 17.55 0.3 17.15 1.3 16.1 1.65 15.2 1.6 15.05 2.0 15.2 3.15 15.45 4.3 15.0 4.7 14.55" fill="#1b9c6e" fill-rule="evenodd" stroke="none"/>
    <path d="M19.35 3.2 Q19.95 4.4 19.85 6.4 19.7 8.35 19.15 9.7 18.6 11.1 16.2 11.3 13.8 11.5 13.65 9.8 13.55 8.2 14.45 6.8 L14.1 5.3 14.8 2.8 Q15.15 1.0 16.95 1.5 18.7 1.95 19.35 3.2" fill="#bf2547" fill-rule="evenodd" stroke="none"/>
    <path d="M15.15 3.3 L15.0 3.95 Q14.55 4.6 13.2 4.9 11.85 5.15 10.75 6.75 L10.0 8.35 9.8 5.95 Q9.85 4.25 10.6 2.95 11.6 1.15 13.7 1.15 14.6 1.05 15.2 1.65 16.0 2.35 15.15 3.3" fill="#e55c7a" fill-rule="evenodd" stroke="none"/>
    <path d="M17.7 5.3 L15.7 5.9 Q16.85 5.6 16.5 4.5 L15.9 3.4 16.75 3.75 Q17.6 4.25 17.7 5.3" fill="#e5585e" fill-rule="evenodd" stroke="none"/>
    <path d="M12.0 4.1 Q12.35 3.55 13.0 3.25 L15.35 3.3 15.55 3.75 15.55 5.35 15.35 6.25 Q15.0 7.05 14.0 6.95 12.85 6.8 12.25 5.7 11.55 4.6 12.0 4.1" fill="#f36b6f" fill-rule="evenodd" stroke="none"/>
    <path d="M11.4 5.15 L12.55 5.15 Q12.9 5.2 13.2 5.55 L13.8 6.15 16.45 6.2 Q17.65 5.75 18.6 6.5 19.6 7.35 18.55 9.05 L18.1 9.9 17.45 10.8 Q16.25 11.75 12.9 11.2 8.85 10.55 10.65 5.55 10.7 5.15 11.4 5.15" fill="#cb3054" fill-rule="evenodd" stroke="none"/>
    <path d="M19.15 6.3 L19.5 7.15 19.25 7.8 Q18.7 8.7 16.7 8.9 L13.15 8.6 Q11.2 8.05 10.5 6.95 9.95 6.05 10.4 5.05 10.5 4.65 11.15 4.6 L10.8 5.3 Q10.75 6.1 11.4 6.75 12.1 7.35 12.9 7.45 L13.7 7.3 14.05 7.15 Q15.1 8.2 15.7 8.3 L16.6 8.2 17.3 7.95 17.8 7.55 18.55 7.5 Q18.6 7.05 19.15 6.3" fill="#d74768" fill-rule="evenodd" stroke="none"/>
    <path d="M11.15 4.6 L11.45 4.55 12.3 4.6 12.7 4.75 13.35 5.4 Q14.15 6.0 15.6 6.0 L19.0 6.1 19.15 6.3 Q18.6 7.05 18.55 7.5 L17.8 7.55 17.3 7.95 16.6 8.2 15.7 8.3 Q15.1 8.2 14.05 7.15 L13.7 7.3 12.9 7.45 Q12.1 7.35 11.4 6.75 10.75 6.1 10.8 5.3 L11.15 4.6" fill="#f36b6f" fill-rule="evenodd" stroke="none"/>
    <path d="M15.35 2.0 L13.65 2.3 12.95 2.7 11.85 3.5 Q10.9 4.7 10.9 4.05 L11.05 3.05 Q11.25 2.35 12.05 1.7 12.95 1.05 14.0 0.95 L14.9 1.15 Q15.4 1.45 15.35 2.0" fill="#f36b6f" fill-rule="evenodd" stroke="none"/>
    <path d="M13.8 1.2 Q13.9 1.8 13.0 2.2 L12.15 2.9 12.4 1.9 Q12.7 1.45 13.25 1.25 L13.8 1.2" fill="#ffd5c2" fill-rule="evenodd" stroke="none"/>
    <path d="M16.3 2.3 Q16.15 2.0 16.4 1.75 16.7 1.4 17.2 1.35 18.45 1.3 19.6 3.15 L19.9 3.85 Q20.1 4.65 19.15 5.2 19.25 4.55 18.7 3.95 18.05 3.3 17.2 3.0 L16.3 2.3" fill="#e55c7a" fill-rule="evenodd" stroke="none"/>
    <path d="M17.3 1.9 L17.7 1.8 Q18.4 1.8 18.9 2.4 19.3 3.3 19.05 3.35 L18.5 2.55 Q17.85 1.8 17.3 1.9" fill="#ffb59f" fill-rule="evenodd" stroke="none"/>
    <path d="M11.25 4.55 L11.35 4.3 Q11.75 4.25 12.8 5.1 13.95 6.3 14.45 6.25 L13.2 6.55 Q11.8 6.45 11.25 4.55" fill="#ffc8ad" fill-rule="evenodd" stroke="none"/>
    <path d="M15.8 6.15 Q16.15 5.8 16.65 5.6 17.55 5.25 18.1 6.15 L17.85 6.65 Q17.25 6.95 15.8 6.15" fill="#fcb895" fill-rule="evenodd" stroke="none"/>
    <path d="M12.3 3.95 L13.05 3.15 13.2 3.7 Q13.5 4.4 14.2 4.95 15.1 5.6 15.9 5.4 L14.95 5.6 Q13.75 5.5 12.3 3.95" fill="#d74768" fill-rule="evenodd" stroke="none"/>
    <path d="M16.15 3.4 L16.25 2.9 Q16.5 2.4 17.0 2.4 17.5 2.45 17.8 2.65 18.25 2.9 18.6 3.65 L18.75 5.2 18.35 4.75 Q17.0 3.45 16.15 3.4" fill="#d64564" fill-rule="evenodd" stroke="none"/>
    <path d="M11.45 4.1 Q11.7 3.3 13.05 2.55 L14.05 2.15 15.25 2.2 15.55 2.5 Q15.75 2.85 15.35 3.3 15.05 3.0 14.5 3.0 13.4 2.9 12.05 4.0 L11.45 4.1" fill="#bf2547" fill-rule="evenodd" stroke="none"/>
    <path d="M14.15 5.5 L15.45 5.65 15.15 5.9 Q14.95 6.15 14.9 6.45 L14.9 6.35 Q14.75 5.6 14.15 5.5" fill="#fffaf5" fill-rule="evenodd" stroke="none"/>
    <path d="M14.05 3.15 L14.35 3.25 14.95 3.8 Q15.3 4.65 14.95 4.75 L14.2 4.0 Q13.45 3.25 14.05 3.15" fill="#fcb49b" fill-rule="evenodd" stroke="none"/>
    <path d="M11.45 4.1 Q12.2 2.95 13.5 2.4 L14.45 2.15 15.25 2.2 15.5 2.45 15.3 3.1 Q15.0 2.7 13.9 2.7 13.45 2.7 12.9 3.05 L11.45 4.1" fill="#d64564" fill-rule="evenodd" stroke="none"/>
    <path d="M16.45 3.15 L16.5 2.75 Q16.65 2.35 16.9 2.5 L17.8 2.85 Q18.6 3.35 18.1 4.4 L17.6 3.55 Q17.0 2.75 16.45 3.15" fill="#ffad99" fill-rule="evenodd" stroke="none"/>
    <path d="M24.8 8.4 L26.65 8.2 27.55 7.95 17.0 16.15 Q16.85 15.95 17.45 15.0 L18.0 13.65 17.55 12.8 17.2 12.6 18.0 12.05 Q18.75 11.4 18.95 10.35 L19.1 9.3 19.05 8.7 20.05 9.15 21.65 9.05 22.5 8.05 22.6 7.55 23.2 7.95 Q23.9 8.4 24.8 8.4" fill="#146649" fill-rule="evenodd" stroke="none"/>
    <path d="M27.7 7.8 L26.6 9.2 26.15 10.05 Q25.7 11.0 25.65 11.65 25.65 12.4 25.8 12.65 L26.0 12.8 25.4 12.85 Q24.65 13.0 24.0 13.4 23.4 13.75 23.05 14.4 L22.85 15.05 22.9 16.05 20.9 15.7 19.9 15.8 19.45 15.9 19.35 16.4 18.7 16.25 17.4 16.1 17.2 15.95 27.7 7.8" fill="#179854" fill-rule="evenodd" stroke="none"/>
    <path d="M7.5 4.55 Q9.45 3.5 10.95 4.6 12.5 5.65 13.95 7.55 15.4 9.45 16.0 11.05 16.65 12.75 15.0 14.7 13.25 16.65 11.9 15.1 10.45 13.7 10.05 11.8 L8.85 10.65 Q7.45 9.4 6.5 7.55 5.6 5.7 7.5 4.55" fill="#bf2547" fill-rule="evenodd" stroke="none"/>
    <path d="M9.55 8.55 Q9.7 9.45 8.9 10.65 8.1 11.9 8.5 14.15 L9.1 16.15 7.1 14.05 Q5.8 12.45 5.35 10.75 4.7 8.35 6.25 6.85 6.95 6.15 7.85 6.25 8.95 6.35 9.2 7.8 L9.55 8.55" fill="#e55c7a" fill-rule="evenodd" stroke="none"/>
    <path d="M11.9 8.4 L10.85 10.35 Q11.45 9.2 10.3 8.45 L9.0 7.9 9.9 7.6 Q11.0 7.45 11.9 8.4" fill="#e5585e" fill-rule="evenodd" stroke="none"/>
    <path d="M6.5 11.3 L6.65 9.8 Q7.1 8.3 8.5 8.15 L9.0 8.45 10.25 9.95 10.85 10.8 Q11.25 11.85 10.4 12.5 L7.95 12.6 Q6.55 12.1 6.5 11.3" fill="#f36b6f" fill-rule="evenodd" stroke="none"/>
    <path d="M7.4 12.05 L8.35 11.25 9.15 11.1 10.1 11.25 Q11.35 11.3 12.15 9.4 12.75 8.15 14.05 8.15 15.55 8.25 16.05 10.55 L16.45 11.65 Q16.75 12.35 16.65 12.95 16.45 14.65 13.45 16.55 9.8 18.85 7.15 12.95 7.0 12.5 7.4 12.05" fill="#a61c3c" fill-rule="evenodd" stroke="none"/>
    <path d="M14.25 7.65 L15.25 8.25 15.6 9.0 Q15.85 10.2 14.45 11.85 13.2 13.3 11.5 14.05 9.5 14.95 8.1 14.45 7.0 14.0 6.5 12.8 6.3 12.35 6.75 11.85 L7.1 12.7 Q7.65 13.5 8.7 13.55 9.7 13.7 10.4 13.15 L10.85 12.55 11.0 12.05 13.2 11.95 13.8 11.25 14.2 10.5 14.2 9.8 Q14.25 9.3 14.8 9.2 14.45 8.75 14.25 7.65" fill="#d74768" fill-rule="evenodd" stroke="none"/>
    <path d="M6.75 11.85 L6.95 11.55 7.65 11.0 8.05 10.9 9.05 10.95 Q10.15 10.95 11.3 9.9 11.95 7.5 14.0 7.6 L14.25 7.65 Q14.45 8.75 14.8 9.2 14.25 9.3 14.2 9.8 L14.2 10.5 13.8 11.25 13.2 11.95 11.0 12.05 10.85 12.55 10.4 13.15 Q9.7 13.7 8.7 13.55 7.65 13.5 7.1 12.7 L6.75 11.85" fill="#f36b6f" fill-rule="evenodd" stroke="none"/>
    <path d="M6.35 8.45 L6.15 9.3 Q5.9 10.3 6.0 10.85 6.15 12.6 5.65 12.1 L4.95 11.05 Q4.6 10.2 4.7 9.05 4.8 7.85 5.6 7.05 6.0 6.65 6.45 6.55 7.05 6.4 7.45 7.0 7.15 7.9 6.35 8.45" fill="#f36b6f" fill-rule="evenodd" stroke="none"/>
    <path d="M5.65 7.35 Q6.2 7.9 5.75 8.85 L5.65 10.1 5.1 9.0 Q4.95 8.35 5.3 7.75 L5.65 7.35" fill="#ffd5c2" fill-rule="evenodd" stroke="none"/>
    <path d="M8.4 6.55 L8.05 6.0 Q8.05 5.5 8.35 5.15 L11.6 5.05 12.5 5.4 Q13.25 6.0 12.95 7.2 12.5 6.55 11.6 6.4 L9.7 6.55 Q8.95 6.8 8.4 6.55" fill="#e55c7a" fill-rule="evenodd" stroke="none"/>
    <path d="M8.85 5.5 L9.1 5.1 Q9.65 4.65 10.6 4.85 11.5 5.35 11.4 5.6 L10.25 5.25 Q9.25 5.0 8.85 5.5" fill="#ffb59f" fill-rule="evenodd" stroke="none"/>
    <path d="M6.35 12.25 L6.2 11.95 Q6.4 11.6 7.95 11.6 L10.15 11.5 Q9.95 12.25 9.4 12.75 8.25 13.6 6.35 12.25" fill="#ffc8ad" fill-rule="evenodd" stroke="none"/>
    <path d="M11.1 10.45 L11.35 9.4 Q11.8 8.4 12.85 8.85 L13.05 9.45 Q12.9 10.15 11.1 10.45" fill="#fcb895" fill-rule="evenodd" stroke="none"/>
    <path d="M6.65 10.95 Q6.45 10.45 6.6 9.65 L7.2 10.1 Q7.9 10.5 8.9 10.5 10.15 10.45 10.55 9.7 10.55 10.2 10.0 10.55 9.0 11.35 6.65 10.95" fill="#d74768" fill-rule="evenodd" stroke="none"/>
    <path d="M9.15 7.7 L8.85 7.15 Q8.65 6.55 9.05 6.2 L9.85 5.85 Q10.4 5.75 11.3 6.2 L12.65 7.5 11.9 7.35 Q9.9 7.1 9.15 7.7" fill="#d64564" fill-rule="evenodd" stroke="none"/>
    <path d="M6.05 11.7 Q5.6 10.75 6.1 9.1 L6.6 8.0 Q7.05 7.4 7.55 7.25 L8.0 7.3 Q8.45 7.45 8.5 8.15 8.05 8.1 7.6 8.5 6.65 9.25 6.5 11.15 L6.05 11.7" fill="#bf2547" fill-rule="evenodd" stroke="none"/>
    <path d="M9.25 11.05 L10.35 10.25 10.4 10.75 10.65 11.35 10.5 11.25 Q9.9 10.7 9.25 11.05" fill="#fffaf5" fill-rule="evenodd" stroke="none"/>
    <path d="M7.35 8.95 L7.7 8.85 8.6 8.95 Q9.5 9.4 9.35 9.8 L8.15 9.7 Q7.0 9.45 7.35 8.95" fill="#fcb49b" fill-rule="evenodd" stroke="none"/>
    <path d="M6.05 11.7 Q5.8 10.1 6.3 8.65 L6.85 7.75 7.55 7.25 7.95 7.25 8.25 8.0 Q7.7 7.9 6.9 8.65 6.5 8.95 6.4 9.7 L6.05 11.7" fill="#d64564" fill-rule="evenodd" stroke="none"/>
    <path d="M9.2 7.3 L8.95 6.85 Q8.75 6.4 9.1 6.3 L10.05 6.0 Q11.05 5.9 11.5 7.25 L10.45 6.8 Q9.35 6.5 9.2 7.3" fill="#ffad99" fill-rule="evenodd" stroke="none"/>
    <path d="M16.75 27.9 L17.0 28.25 Q18.3 28.05 18.9 27.3 19.55 26.45 19.65 25.5 19.7 24.6 18.7 23.55 L17.45 22.05 16.3 20.5 15.05 18.55 15.0 18.4 15.85 17.75 Q17.85 21.55 19.75 23.6 21.7 25.65 21.05 26.8 20.45 27.95 18.95 28.65 17.45 29.25 16.8 28.05 L16.75 27.9 M13.95 21.25 Q14.25 21.75 15.65 20.5 16.15 20.4 16.15 20.75 16.15 21.25 15.3 21.75 L14.45 22.2 13.95 21.25 M15.0 23.35 L15.75 23.1 17.0 22.35 17.4 22.75 Q17.4 23.35 15.45 24.35 L15.0 23.35 M15.85 25.35 L17.05 24.95 18.1 24.3 18.25 24.4 18.25 24.8 Q18.0 25.8 16.3 26.5 L15.85 25.35" fill="#d0bf91" fill-rule="evenodd" stroke="none"/>
    <path d="M15.0 18.4 L15.05 18.55 16.3 20.5 17.45 22.05 18.7 23.55 Q19.7 24.6 19.65 25.5 19.55 26.45 18.9 27.3 18.3 28.05 17.0 28.25 L16.75 27.9 16.65 27.6 16.3 26.5 Q18.0 25.8 18.25 24.8 L18.25 24.4 18.1 24.3 17.05 24.95 15.85 25.35 15.85 25.25 15.45 24.35 Q17.4 23.35 17.4 22.75 L17.0 22.35 15.75 23.1 15.0 23.35 14.45 22.2 15.3 21.75 Q16.15 21.25 16.15 20.75 16.15 20.4 15.65 20.5 14.25 21.75 13.95 21.25 L13.1 19.9 15.0 18.4" fill="#fff7e0" fill-rule="evenodd" stroke="none"/>
    <path d="M18.5 12.45 Q17.9 11.45 18.95 9.65 19.95 7.85 21.2 8.2 22.45 8.6 22.9 9.55 23.35 10.6 23.0 12.55 22.6 14.55 22.0 15.95 21.35 17.4 19.3 17.9 17.15 18.4 17.25 16.75 17.3 15.15 18.35 13.7 17.85 12.05 18.5 12.45" fill="#bf2547" fill-rule="evenodd" stroke="none"/>
    <path d="M17.7 11.75 Q16.5 12.2 15.35 13.9 L14.5 15.5 Q14.5 13.9 14.65 13.2 14.9 11.5 15.65 10.15 16.8 8.2 18.55 7.95 19.3 7.75 19.8 8.25 20.4 8.85 19.55 9.9 L19.3 10.55 Q18.85 11.25 17.7 11.75" fill="#e55c7a" fill-rule="evenodd" stroke="none"/>
    <path d="M20.9 12.05 L19.15 12.95 Q20.15 12.45 19.95 11.4 L19.6 10.4 20.25 10.65 Q21.0 11.0 20.9 12.05" fill="#e5585e" fill-rule="evenodd" stroke="none"/>
    <path d="M16.15 11.55 Q16.55 11.0 17.15 10.6 18.3 9.75 19.15 10.35 L19.3 10.8 19.05 12.35 18.8 13.25 Q18.45 14.15 17.6 14.15 16.6 14.2 16.15 13.1 15.7 12.1 16.15 11.55" fill="#f36b6f" fill-rule="evenodd" stroke="none"/>
    <path d="M15.35 12.45 L16.35 12.35 16.85 12.65 17.3 13.15 Q17.95 13.8 19.55 12.9 20.65 12.3 21.35 12.9 22.15 13.65 21.05 15.45 L20.55 16.35 19.9 17.35 Q18.75 18.4 15.95 18.3 12.5 18.2 14.65 12.95 14.8 12.55 15.35 12.45" fill="#cb3054" fill-rule="evenodd" stroke="none"/>
    <path d="M22.05 12.1 L22.3 12.95 22.0 13.65 Q21.4 14.6 19.65 15.05 L16.65 15.2 Q15.0 14.85 14.55 13.85 14.2 13.05 14.65 12.05 14.85 11.65 15.4 11.5 L15.05 12.2 Q14.85 13.05 15.4 13.55 15.85 14.1 16.55 14.1 L17.2 13.85 17.6 13.65 Q18.35 14.55 18.85 14.55 L19.65 14.35 20.3 14.05 20.75 13.6 Q21.1 13.2 21.45 13.4 L22.05 12.1" fill="#d74768" fill-rule="evenodd" stroke="none"/>
    <path d="M15.4 11.5 L15.65 11.4 16.4 11.35 Q16.6 11.25 16.7 11.45 L17.15 12.0 Q17.8 12.5 19.05 12.3 20.95 10.95 21.95 11.95 L22.05 12.1 21.45 13.4 Q21.1 13.2 20.75 13.6 L20.3 14.05 19.65 14.35 18.85 14.55 Q18.35 14.55 17.6 13.65 L17.2 13.85 16.55 14.1 Q15.85 14.1 15.4 13.55 14.85 13.05 15.05 12.2 L15.4 11.5" fill="#f36b6f" fill-rule="evenodd" stroke="none"/>
    <path d="M17.15 10.05 L16.1 11.0 Q15.2 12.25 15.2 11.65 L15.5 10.65 Q15.75 9.9 16.5 9.2 17.3 8.45 18.3 8.25 L19.0 8.3 Q19.45 8.5 19.3 9.05 L17.8 9.6 17.15 10.05" fill="#f36b6f" fill-rule="evenodd" stroke="none"/>
    <path d="M18.1 8.5 Q18.1 9.1 17.25 9.6 L16.45 10.35 16.75 9.35 Q17.05 8.8 17.6 8.6 L18.1 8.5" fill="#ffd5c2" fill-rule="evenodd" stroke="none"/>
    <path d="M20.05 9.25 Q19.95 9.0 20.25 8.65 20.5 8.35 21.0 8.25 22.1 7.95 22.8 9.65 L23.05 10.35 Q23.05 11.1 22.2 11.75 22.35 11.1 21.9 10.6 21.45 10.0 20.8 9.8 L20.05 9.25" fill="#e55c7a" fill-rule="evenodd" stroke="none"/>
    <path d="M20.95 8.75 L21.35 8.55 Q21.95 8.45 22.3 9.05 22.55 9.8 22.3 9.95 L21.9 9.2 Q21.5 8.55 20.95 8.75" fill="#ffb59f" fill-rule="evenodd" stroke="none"/>
    <path d="M15.45 12.1 L15.55 11.85 Q15.9 11.75 16.75 12.45 17.6 13.45 18.05 13.35 L16.9 13.85 Q15.7 13.95 15.45 12.1" fill="#ffc8ad" fill-rule="evenodd" stroke="none"/>
    <path d="M19.2 13.1 Q19.5 12.75 19.95 12.5 20.8 12.0 21.15 12.8 L20.9 13.35 19.2 13.1" fill="#fcb895" fill-rule="evenodd" stroke="none"/>
    <path d="M16.45 11.4 L17.2 10.5 17.25 11.05 Q17.4 11.7 17.95 12.1 18.65 12.65 19.35 12.35 L18.55 12.7 Q17.5 12.8 16.45 11.4" fill="#d74768" fill-rule="evenodd" stroke="none"/>
    <path d="M19.85 10.35 L20.0 9.85 Q20.25 9.35 20.65 9.3 L21.35 9.4 21.9 10.3 21.85 11.8 21.55 11.4 Q20.6 10.3 19.85 10.35" fill="#d64564" fill-rule="evenodd" stroke="none"/>
    <path d="M15.7 11.6 Q16.0 10.8 17.3 9.9 L18.2 9.4 19.15 9.3 19.4 9.55 Q19.6 9.85 19.15 10.35 18.95 10.1 18.45 10.15 17.45 10.25 16.2 11.45 15.95 11.7 15.7 11.6" fill="#bf2547" fill-rule="evenodd" stroke="none"/>
    <path d="M17.85 12.65 L18.95 12.65 18.65 12.95 18.35 13.5 18.4 13.4 Q18.4 12.75 17.85 12.65" fill="#fffaf5" fill-rule="evenodd" stroke="none"/>
    <path d="M18.05 10.4 L18.3 10.4 18.75 10.9 Q18.95 11.7 18.6 11.85 L18.05 11.2 Q17.55 10.55 18.05 10.4" fill="#fcb49b" fill-rule="evenodd" stroke="none"/>
    <path d="M15.7 11.6 Q16.5 10.4 17.65 9.7 L18.5 9.3 19.15 9.3 19.4 9.5 19.1 10.15 Q18.9 9.75 18.0 9.95 17.55 10.0 17.05 10.45 L15.7 11.6" fill="#d64564" fill-rule="evenodd" stroke="none"/>
    <path d="M20.1 10.1 L20.15 9.7 Q20.35 9.3 20.6 9.4 L21.35 9.55 Q21.9 10.0 21.35 11.1 L21.1 10.3 Q20.65 9.6 20.1 10.1" fill="#ffad99" fill-rule="evenodd" stroke="none"/>
    <path d="M7.55 18.25 Q6.95 18.95 5.55 18.85 4.1 18.85 4.2 17.9 4.25 16.95 4.85 16.35 5.55 15.7 7.0 15.3 L9.5 14.85 Q10.6 14.75 11.25 15.95 11.9 17.15 10.7 17.6 L8.4 17.95 Q7.35 18.85 7.55 18.25" fill="#bf2547" fill-rule="evenodd" stroke="none"/>
    <path d="M5.15 19.35 Q5.5 18.75 6.35 18.9 L6.85 18.9 Q7.4 18.95 7.95 19.55 8.4 20.2 9.75 20.35 L11.05 20.4 9.35 21.05 7.1 21.35 Q5.6 21.3 5.1 20.25 4.9 19.75 5.15 19.35" fill="#e55c7a" fill-rule="evenodd" stroke="none"/>
    <path d="M7.45 16.65 L8.3 17.55 7.05 17.5 6.45 18.0 6.5 17.55 Q6.7 16.95 7.45 16.65" fill="#e5585e" fill-rule="evenodd" stroke="none"/>
    <path d="M7.75 19.9 L6.9 19.6 Q6.15 19.1 6.45 18.35 L6.8 18.15 Q7.2 17.85 7.85 17.75 L8.5 17.6 Q9.2 17.55 9.35 18.15 9.5 18.75 8.8 19.4 8.2 20.0 7.75 19.9" fill="#f36b6f" fill-rule="evenodd" stroke="none"/>
    <path d="M8.65 20.35 L8.45 19.75 8.55 19.25 8.85 18.8 Q9.2 18.2 8.3 17.45 7.75 16.95 8.1 16.25 8.5 15.5 9.95 15.65 L10.65 15.65 11.4 15.75 Q12.3 16.15 12.65 18.05 13.05 20.3 9.1 20.6 L8.65 20.35" fill="#cb3054" fill-rule="evenodd" stroke="none"/>
    <path d="M7.65 15.25 L8.2 14.85 8.7 14.85 Q9.45 14.85 10.05 15.85 10.55 16.75 10.55 17.75 10.55 18.9 9.9 19.55 9.45 20.1 8.6 20.15 L8.15 19.85 8.7 19.8 Q9.3 19.65 9.6 19.1 9.9 18.6 9.8 18.15 L9.55 17.8 9.35 17.65 9.8 16.5 9.55 16.1 9.2 15.75 8.85 15.6 Q8.55 15.55 8.65 15.25 L7.65 15.25" fill="#d74768" fill-rule="evenodd" stroke="none"/>
    <path d="M8.15 19.85 L8.1 19.65 7.9 19.2 Q7.85 19.05 7.95 19.0 L8.2 18.5 Q8.5 17.95 8.2 17.15 6.95 16.4 7.55 15.35 L7.65 15.25 8.65 15.25 Q8.55 15.55 8.85 15.6 L9.2 15.75 9.55 16.1 9.8 16.5 9.35 17.65 9.55 17.8 9.8 18.15 Q9.9 18.6 9.6 19.1 9.3 19.65 8.7 19.8 L8.15 19.85" fill="#f36b6f" fill-rule="evenodd" stroke="none"/>
    <path d="M5.05 19.15 Q5.15 18.8 5.55 18.7 6.0 19.0 6.1 19.5 L6.55 19.75 7.35 20.1 Q8.4 20.35 7.95 20.5 L7.2 20.65 6.05 20.45 Q5.4 20.15 5.15 19.65 L5.05 19.15" fill="#f36b6f" fill-rule="evenodd" stroke="none"/>
    <path d="M5.3 19.65 L6.2 19.85 6.85 20.15 6.1 20.25 Q5.7 20.25 5.45 19.95 L5.3 19.65" fill="#ffd5c2" fill-rule="evenodd" stroke="none"/>
    <path d="M5.55 18.1 L5.1 18.2 4.7 17.9 Q4.4 17.25 5.45 16.2 L5.9 15.85 7.0 15.9 6.2 16.5 Q5.9 16.95 5.85 17.5 L5.55 18.1" fill="#e55c7a" fill-rule="evenodd" stroke="none"/>
    <path d="M5.1 17.7 L4.9 17.5 Q4.75 17.15 5.1 16.7 L5.75 16.4 5.25 16.95 Q4.85 17.4 5.1 17.7" fill="#ffb59f" fill-rule="evenodd" stroke="none"/>
    <path d="M8.25 20.15 L8.05 20.15 Q7.9 20.05 8.25 19.25 L8.75 18.1 9.25 18.65 Q9.5 19.4 8.25 20.15" fill="#ffc8ad" fill-rule="evenodd" stroke="none"/>
    <path d="M8.4 17.4 L7.85 17.1 Q7.4 16.7 7.9 16.25 L8.3 16.25 Q8.65 16.4 8.4 17.4" fill="#fcb895" fill-rule="evenodd" stroke="none"/>
    <path d="M7.6 19.75 L6.85 19.55 7.25 19.35 7.9 18.55 Q8.15 17.9 7.8 17.55 L8.2 18.0 Q8.4 18.6 7.6 19.75" fill="#d74768" fill-rule="evenodd" stroke="none"/>
    <path d="M6.35 17.95 L6.0 18.0 Q5.6 18.0 5.5 17.75 L5.5 17.25 Q5.6 16.95 6.05 16.6 6.35 16.35 7.1 16.1 L6.85 16.4 Q6.2 17.45 6.35 17.95" fill="#d64564" fill-rule="evenodd" stroke="none"/>
    <path d="M7.85 20.2 L6.45 19.75 5.9 19.3 Q5.65 18.95 5.75 18.7 L5.85 18.45 6.45 18.35 6.45 18.85 Q6.65 19.45 7.65 19.9 L7.85 20.2" fill="#bf2547" fill-rule="evenodd" stroke="none"/>
    <path d="M8.25 18.45 L8.05 17.75 8.35 17.85 8.8 17.85 8.7 17.85 Q8.25 18.05 8.25 18.45" fill="#fffaf5" fill-rule="evenodd" stroke="none"/>
    <path d="M6.65 19.1 L6.65 18.85 6.9 18.45 Q7.4 18.05 7.6 18.2 L7.2 18.75 6.65 19.1" fill="#fcb49b" fill-rule="evenodd" stroke="none"/>
    <path d="M7.85 20.2 Q6.9 20.1 6.25 19.55 L5.85 19.15 5.75 18.7 5.85 18.45 6.35 18.4 Q6.15 18.7 6.3 19.25 L6.85 19.65 7.85 20.2" fill="#d64564" fill-rule="evenodd" stroke="none"/>
    <path d="M6.15 17.85 L5.8 17.9 5.55 17.7 5.6 17.15 Q5.85 16.65 6.7 16.65 L6.15 17.15 Q5.7 17.6 6.15 17.85" fill="#ffad99" fill-rule="evenodd" stroke="none"/>
    <path d="M9.15 23.6 L8.9 23.55 8.15 23.7 7.15 24.05 10.05 18.75 10.1 19.4 10.1 20.2 10.55 20.65 10.75 20.8 10.5 21.25 10.3 22.2 10.5 22.7 10.65 23.0 10.15 22.95 Q9.6 22.9 9.4 23.15 L9.15 23.6" fill="#1f6b50" fill-rule="evenodd" stroke="none"/>
    <path d="M7.45 20.4 L7.25 19.95 7.55 19.85 8.15 19.75 8.55 19.55 8.75 19.05 9.25 19.0 9.8 18.85 9.95 18.85 7.1 24.15 7.15 23.45 7.15 23.05 7.0 22.3 6.8 21.9 6.7 21.85 6.9 21.75 7.35 21.3 7.5 20.75 7.45 20.4" fill="#179854" fill-rule="evenodd" stroke="none"/>
    <path d="M9.1 16.75 L11.45 16.55 11.45 16.4 11.95 16.5 12.65 16.7 12.65 16.1 12.85 16.85 12.9 16.9 12.8 16.25 12.95 16.2 13.3 16.2 14.3 16.1 14.9 15.65 14.95 15.65 15.7 15.15 16.65 14.75 Q16.9 14.6 17.15 14.6 17.65 14.45 17.75 14.6 L17.8 15.2 17.8 15.6 Q17.75 15.9 17.85 16.1 L17.9 16.25 18.05 16.55 18.6 17.35 18.75 17.8 18.9 17.8 18.85 17.9 18.75 18.0 18.2 18.3 17.5 18.5 16.65 18.65 17.95 19.35 18.45 19.75 19.15 20.75 19.05 20.6 19.05 20.65 17.65 20.55 17.9 21.35 18.0 22.5 18.0 22.75 17.85 23.1 17.8 23.1 17.2 22.35 16.15 21.4 15.0 20.05 14.05 18.8 14.1 18.7 13.95 18.7 13.35 18.6 Q14.25 19.8 14.3 21.55 L14.2 22.2 13.95 23.25 13.7 23.7 13.05 22.6 12.65 23.25 11.85 24.0 Q11.2 24.45 11.3 24.2 L11.5 23.35 11.7 22.05 12.0 20.3 12.2 19.75 11.65 20.05 10.3 20.5 9.8 20.55 Q9.5 20.65 9.45 20.45 L9.65 20.35 9.25 20.35 Q9.0 20.4 9.1 19.15 L9.05 19.15 9.05 18.9 8.7 18.1 8.45 17.45 Q8.45 17.1 9.1 16.75" fill="#e9d185" fill-rule="evenodd" stroke="none"/>
    <path d="M9.1 16.75 L11.45 16.55 11.45 16.4 11.95 16.5 12.65 16.7 12.65 16.1 12.85 16.85 12.9 16.9 12.8 16.25 12.95 16.2 13.3 16.2 14.3 16.1 14.9 15.65 14.95 15.65 15.7 15.15 16.65 14.75 Q16.9 14.6 17.15 14.6 17.65 14.45 17.75 14.6 L17.8 15.2 17.8 15.6 Q17.75 15.9 17.85 16.1 L17.9 16.25 18.05 16.55 18.6 17.35 18.75 17.8 18.9 17.8 18.85 17.9 18.75 18.0 18.2 18.3 17.5 18.5 16.65 18.65 17.95 19.35 18.45 19.75 19.15 20.75 19.05 20.6 19.05 20.65 17.65 20.55 17.9 21.35 18.0 22.5 18.0 22.75 17.85 23.1 17.8 23.1 17.2 22.35 16.15 21.4 15.0 20.05 14.05 18.8 14.1 18.7 13.95 18.7 13.35 18.6 Q14.25 19.8 14.3 21.55 L14.2 22.2 13.95 23.25 13.7 23.7 13.05 22.6 12.65 23.25 11.85 24.0 Q11.2 24.45 11.3 24.2 L11.5 23.35 11.7 22.05 12.0 20.3 12.2 19.75 11.65 20.05 10.3 20.5 9.8 20.55 Q9.5 20.65 9.45 20.45 L9.65 20.35 9.25 20.35 Q9.0 20.4 9.1 19.15 L9.05 19.15 9.05 18.9 8.7 18.1 8.45 17.45 Q8.45 17.1 9.1 16.75 Z" fill="none" stroke="#660000" stroke-linecap="round" stroke-linejoin="round" stroke-width="0.5"/>
    <path d="M12.6 23.2 L11.8 23.95 Q11.25 24.4 11.25 24.2 L11.5 23.35 11.65 22.0 12.0 20.25 13.1 20.35 13.9 21.1 14.25 21.5 14.15 22.2 13.95 23.2 13.65 23.65 13.05 22.55 12.6 23.2" fill="#ffe79a" fill-rule="evenodd" stroke="none"/>
    <path d="M13.25 18.5 Q14.2 19.75 14.25 21.5 L13.9 21.1 13.1 20.35 12.0 20.25 12.4 18.85 13.25 18.5" fill="#d4ba44" fill-rule="evenodd" stroke="none"/>
    <path d="M17.75 23.05 L17.25 22.35 16.1 21.35 14.95 20.05 14.0 18.8 14.25 18.05 Q16.75 18.35 18.85 20.35 L19.0 20.65 17.6 20.55 17.85 21.3 17.95 22.5 17.9 22.7 17.8 23.05 17.75 23.05" fill="#d4ba44" fill-rule="evenodd" stroke="none"/>
    <path d="M17.75 23.05 L17.8 23.05" fill="none" stroke="#511206" stroke-linecap="round" stroke-linejoin="round" stroke-width="0.05"/>
    <path d="M14.55 18.55 L14.65 18.25 Q16.4 18.25 17.9 19.35 L18.45 19.8 19.15 20.75 Q17.0 18.9 14.55 18.55" fill="#ffe79a" fill-rule="evenodd" stroke="none"/>
    <path d="M13.3 18.2 L12.3 19.2 Q11.0 20.3 9.25 20.3 9.05 20.35 9.1 19.0 9.75 19.05 10.55 18.35 L11.2 17.4 11.45 16.4 11.95 16.5 12.65 16.7 13.15 17.1 Q13.55 17.55 13.35 18.1 L13.3 18.2" fill="#fcdf5c" fill-rule="evenodd" stroke="none"/>
    <path d="M13.3 18.2 L13.35 18.1 Q13.55 17.55 13.15 17.1 L12.65 16.7 11.95 16.5 11.45 16.4" fill="none" stroke="#511206" stroke-linecap="round" stroke-linejoin="round" stroke-width="0.05"/>
    <path d="M8.4 17.4 Q8.35 17.05 9.05 16.7 L11.4 16.5 11.15 17.45 10.55 18.35 Q9.65 19.2 9.0 19.15 L9.0 18.8 8.65 18.05 8.4 17.4" fill="#fff1d2" fill-rule="evenodd" stroke="none"/>
    <path d="M10.35 20.45 L9.8 20.45 9.4 20.35 10.05 20.1 11.25 19.5 12.55 18.8 13.2 18.3 Q13.35 18.05 13.5 18.05 L13.45 18.35 13.25 18.65 12.95 18.9 11.6 19.95 10.35 20.45" fill="#a1722c" fill-rule="evenodd" stroke="none"/>
    <path d="M15.4 16.4 L16.35 16.85 17.1 16.85 17.95 16.5 18.5 17.35 Q18.95 18.0 18.1 18.3 L16.0 18.45 14.3 18.2 13.9 18.05 13.6 17.6 Q13.4 17.1 13.85 16.45 L14.85 15.6 Q15.0 16.1 15.4 16.4" fill="#ffe366" fill-rule="evenodd" stroke="none"/>
    <path d="M15.35 16.3 L14.7 15.75 16.55 14.7 17.65 14.6 17.7 15.3 Q17.65 15.9 17.75 16.15 L17.9 16.45 17.05 16.75 16.25 16.7 15.35 16.3" fill="#f7e8b8" fill-rule="evenodd" stroke="none"/>
    <path d="M14.45 15.95 L15.6 15.15 Q16.0 15.8 16.55 16.0 L17.75 16.1 17.85 16.25 17.95 16.5 17.1 16.85 16.35 16.85 15.4 16.4 Q15.0 16.1 14.45 15.95" fill="#ffe366" fill-rule="evenodd" stroke="none"/>
    <path d="M17.05 14.65 Q17.65 14.45 17.75 14.65 L17.8 15.35 17.85 16.15 16.65 16.05 Q16.0 15.75 15.7 15.2 L17.05 14.65" fill="#fff7e0" fill-rule="evenodd" stroke="none"/>
    <path d="M13.95 18.0 L18.95 17.75 18.9 17.85 Q17.4 18.75 15.65 18.55 L14.55 18.35 14.15 18.2 13.95 18.0" fill="#9a6f30" fill-rule="evenodd" stroke="none"/>
    <path d="M14.85 16.05 L15.2 16.95 Q15.35 17.55 14.85 18.25 14.3 19.0 13.6 18.5 12.85 17.85 12.8 16.2 L12.95 16.2 13.25 16.1 14.85 16.05" fill="#ffe366" fill-rule="evenodd" stroke="none"/>
    <path d="M14.85 15.85 L15.0 16.1 15.35 17.0 Q15.6 17.95 15.3 18.25 14.95 18.65 14.35 18.7 L13.45 18.7 Q13.15 18.55 12.9 17.65 12.65 16.8 12.7 16.2 L12.8 16.2 13.1 17.45 13.55 18.0 14.2 17.95 14.95 17.55 15.05 16.8 14.85 16.05 14.85 15.85" fill="#d4b25f" fill-rule="evenodd" stroke="none"/>
    <path d="M13.8 14.35 L13.55 14.95 12.9 15.2 12.25 14.95 Q11.95 14.7 11.95 14.35 11.95 14.0 12.25 13.7 12.5 13.45 12.9 13.45 13.25 13.45 13.55 13.7 L13.8 14.35" fill="url(#gradient12)" fill-rule="evenodd" stroke="none"/>
    <path d="M13.25 14.1 L13.1 14.45 12.75 14.6 Q12.5 14.6 12.35 14.45 L12.2 14.1 12.35 13.75 Q12.5 13.6 12.75 13.6 12.95 13.6 13.1 13.75 L13.25 14.1" fill="#fff93f" fill-rule="evenodd" stroke="none"/>
    <path d="M3.85 15.8 L3.6 16.4 2.95 16.65 Q2.55 16.65 2.3 16.4 2.0 16.15 2.0 15.8 2.0 15.45 2.3 15.15 2.55 14.9 2.95 14.9 L3.6 15.15 3.85 15.8" fill="url(#gradient13)" fill-rule="evenodd" stroke="none"/>
    <path d="M3.3 15.55 L3.15 15.9 2.8 16.05 2.4 15.9 2.25 15.55 2.4 15.2 Q2.55 15.05 2.8 15.05 L3.15 15.2 3.3 15.55" fill="#fff93f" fill-rule="evenodd" stroke="none"/>
  </g>
  <defs>
    <radialGradient cx="0" cy="0" gradientTransform="matrix(1.0E-4, -0.0067, 0.0156, 1.0E-4, 12.55, 27.45)" gradientUnits="userSpaceOnUse" id="gradient0" r="819.2" spreadMethod="pad">
      <stop offset="0.19607843137254902" stop-color="#3a2e2e" stop-opacity="0.6784314"/>
      <stop offset="0.7176470588235294" stop-color="#3f2121" stop-opacity="0.29803923"/>
      <stop offset="0.8470588235294118" stop-color="#5f3e3e" stop-opacity="0.0"/>
    </radialGradient>
    <linearGradient gradientTransform="matrix(-4.0E-4, -9.0E-4, -9.0E-4, 4.0E-4, 11.45, 12.2)" gradientUnits="userSpaceOnUse" id="gradient1" spreadMethod="pad" x1="-819.2" x2="819.2">
      <stop offset="0.0" stop-color="#b39425"/>
      <stop offset="0.06274509803921569" stop-color="#bfa523"/>
      <stop offset="0.1803921568627451" stop-color="#d1be1f"/>
      <stop offset="0.30980392156862746" stop-color="#dfd11c"/>
      <stop offset="0.4588235294117647" stop-color="#e9df1a"/>
      <stop offset="0.6509803921568628" stop-color="#eee719"/>
      <stop offset="1.0" stop-color="#f0e919"/>
    </linearGradient>
    <linearGradient gradientTransform="matrix(-4.0E-4, -9.0E-4, -9.0E-4, 4.0E-4, 4.65, 9.2)" gradientUnits="userSpaceOnUse" id="gradient2" spreadMethod="pad" x1="-819.2" x2="819.2">
      <stop offset="0.0" stop-color="#871c21"/>
      <stop offset="0.09803921568627451" stop-color="#991a1d"/>
      <stop offset="0.23921568627450981" stop-color="#ac1719"/>
      <stop offset="0.403921568627451" stop-color="#ba1516"/>
      <stop offset="0.615686274509804" stop-color="#c21414"/>
      <stop offset="1.0" stop-color="#c41414"/>
    </linearGradient>
    <linearGradient gradientTransform="matrix(-5.0E-4, -0.0012, -0.0012, 5.0E-4, 11.0, 18.95)" gradientUnits="userSpaceOnUse" id="gradient3" spreadMethod="pad" x1="-819.2" x2="819.2">
      <stop offset="0.0" stop-color="#871c21"/>
      <stop offset="0.09803921568627451" stop-color="#991a1d"/>
      <stop offset="0.23921568627450981" stop-color="#ac1719"/>
      <stop offset="0.403921568627451" stop-color="#ba1516"/>
      <stop offset="0.615686274509804" stop-color="#c21414"/>
      <stop offset="1.0" stop-color="#c41414"/>
    </linearGradient>
    <linearGradient gradientTransform="matrix(-4.0E-4, -8.0E-4, -8.0E-4, 4.0E-4, 12.55, 18.75)" gradientUnits="userSpaceOnUse" id="gradient4" spreadMethod="pad" x1="-819.2" x2="819.2">
      <stop offset="0.0" stop-color="#b39425"/>
      <stop offset="0.06274509803921569" stop-color="#bfa523"/>
      <stop offset="0.1803921568627451" stop-color="#d1be1f"/>
      <stop offset="0.30980392156862746" stop-color="#dfd11c"/>
      <stop offset="0.4588235294117647" stop-color="#e9df1a"/>
      <stop offset="0.6509803921568628" stop-color="#eee719"/>
      <stop offset="1.0" stop-color="#f0e919"/>
    </linearGradient>
    <linearGradient gradientTransform="matrix(-4.0E-4, -7.0E-4, -8.0E-4, 3.0E-4, 18.05, 17.8)" gradientUnits="userSpaceOnUse" id="gradient5" spreadMethod="pad" x1="-819.2" x2="819.2">
      <stop offset="0.0" stop-color="#871c21"/>
      <stop offset="0.09803921568627451" stop-color="#991a1d"/>
      <stop offset="0.23921568627450981" stop-color="#ac1719"/>
      <stop offset="0.403921568627451" stop-color="#ba1516"/>
      <stop offset="0.615686274509804" stop-color="#c21414"/>
      <stop offset="1.0" stop-color="#c41414"/>
    </linearGradient>
    <linearGradient gradientTransform="matrix(-3.0E-4, -6.0E-4, -6.0E-4, 3.0E-4, 17.55, 16.55)" gradientUnits="userSpaceOnUse" id="gradient6" spreadMethod="pad" x1="-819.2" x2="819.2">
      <stop offset="0.0" stop-color="#b39425"/>
      <stop offset="0.06274509803921569" stop-color="#bfa523"/>
      <stop offset="0.1803921568627451" stop-color="#d1be1f"/>
      <stop offset="0.30980392156862746" stop-color="#dfd11c"/>
      <stop offset="0.4588235294117647" stop-color="#e9df1a"/>
      <stop offset="0.6509803921568628" stop-color="#eee719"/>
      <stop offset="1.0" stop-color="#f0e919"/>
    </linearGradient>
    <linearGradient gradientTransform="matrix(-4.0E-4, -9.0E-4, -9.0E-4, 4.0E-4, 19.25, 15.1)" gradientUnits="userSpaceOnUse" id="gradient7" spreadMethod="pad" x1="-819.2" x2="819.2">
      <stop offset="0.0" stop-color="#b39425"/>
      <stop offset="0.06274509803921569" stop-color="#bfa523"/>
      <stop offset="0.1803921568627451" stop-color="#d1be1f"/>
      <stop offset="0.30980392156862746" stop-color="#dfd11c"/>
      <stop offset="0.4588235294117647" stop-color="#e9df1a"/>
      <stop offset="0.6509803921568628" stop-color="#eee719"/>
      <stop offset="1.0" stop-color="#f0e919"/>
    </linearGradient>
    <linearGradient gradientTransform="matrix(-4.0E-4, -9.0E-4, -9.0E-4, 4.0E-4, 20.0, 11.25)" gradientUnits="userSpaceOnUse" id="gradient8" spreadMethod="pad" x1="-819.2" x2="819.2">
      <stop offset="0.0" stop-color="#b39425"/>
      <stop offset="0.06274509803921569" stop-color="#bfa523"/>
      <stop offset="0.1803921568627451" stop-color="#d1be1f"/>
      <stop offset="0.30980392156862746" stop-color="#dfd11c"/>
      <stop offset="0.4588235294117647" stop-color="#e9df1a"/>
      <stop offset="0.6509803921568628" stop-color="#eee719"/>
      <stop offset="1.0" stop-color="#f0e919"/>
    </linearGradient>
    <linearGradient gradientTransform="matrix(-3.0E-4, -6.0E-4, -6.0E-4, 3.0E-4, 19.7, 12.15)" gradientUnits="userSpaceOnUse" id="gradient9" spreadMethod="pad" x1="-819.2" x2="819.2">
      <stop offset="0.0" stop-color="#b39425"/>
      <stop offset="0.06274509803921569" stop-color="#bfa523"/>
      <stop offset="0.1803921568627451" stop-color="#d1be1f"/>
      <stop offset="0.30980392156862746" stop-color="#dfd11c"/>
      <stop offset="0.4588235294117647" stop-color="#e9df1a"/>
      <stop offset="0.6509803921568628" stop-color="#eee719"/>
      <stop offset="1.0" stop-color="#f0e919"/>
    </linearGradient>
    <linearGradient gradientTransform="matrix(-4.0E-4, -8.0E-4, -9.0E-4, 4.0E-4, 17.25, 5.5)" gradientUnits="userSpaceOnUse" id="gradient10" spreadMethod="pad" x1="-819.2" x2="819.2">
      <stop offset="0.0" stop-color="#871c21"/>
      <stop offset="0.09803921568627451" stop-color="#991a1d"/>
      <stop offset="0.23921568627450981" stop-color="#ac1719"/>
      <stop offset="0.403921568627451" stop-color="#ba1516"/>
      <stop offset="0.615686274509804" stop-color="#c21414"/>
      <stop offset="1.0" stop-color="#c41414"/>
    </linearGradient>
    <linearGradient gradientTransform="matrix(-6.0E-4, -0.0013, -0.0014, 6.0E-4, 20.15, 9.65)" gradientUnits="userSpaceOnUse" id="gradient11" spreadMethod="pad" x1="-819.2" x2="819.2">
      <stop offset="0.0" stop-color="#871c21"/>
      <stop offset="0.09803921568627451" stop-color="#991a1d"/>
      <stop offset="0.23921568627450981" stop-color="#ac1719"/>
      <stop offset="0.403921568627451" stop-color="#ba1516"/>
      <stop offset="0.615686274509804" stop-color="#c21414"/>
      <stop offset="1.0" stop-color="#c41414"/>
    </linearGradient>
    <linearGradient gradientTransform="matrix(-5.0E-4, -0.0011, -0.0011, 5.0E-4, 12.65, 13.85)" gradientUnits="userSpaceOnUse" id="gradient12" spreadMethod="pad" x1="-819.2" x2="819.2">
      <stop offset="0.0" stop-color="#b39425"/>
      <stop offset="0.06274509803921569" stop-color="#bfa523"/>
      <stop offset="0.1803921568627451" stop-color="#d1be1f"/>
      <stop offset="0.30980392156862746" stop-color="#dfd11c"/>
      <stop offset="0.4588235294117647" stop-color="#e9df1a"/>
      <stop offset="0.6509803921568628" stop-color="#eee719"/>
      <stop offset="1.0" stop-color="#f0e919"/>
    </linearGradient>
    <linearGradient gradientTransform="matrix(-5.0E-4, -0.0011, -0.0011, 5.0E-4, 2.7, 15.3)" gradientUnits="userSpaceOnUse" id="gradient13" spreadMethod="pad" x1="-819.2" x2="819.2">
      <stop offset="0.0" stop-color="#b39425"/>
      <stop offset="0.06274509803921569" stop-color="#bfa523"/>
      <stop offset="0.1803921568627451" stop-color="#d1be1f"/>
      <stop offset="0.30980392156862746" stop-color="#dfd11c"/>
      <stop offset="0.4588235294117647" stop-color="#e9df1a"/>
      <stop offset="0.6509803921568628" stop-color="#eee719"/>
      <stop offset="1.0" stop-color="#f0e919"/>
    </linearGradient>
  </defs>
</svg>
