<?xml version="1.0" encoding="UTF-8" standalone="no"?>
<svg xmlns:xlink="http://www.w3.org/1999/xlink" height="9.2px" width="10.0px" xmlns="http://www.w3.org/2000/svg">
  <g transform="matrix(1.0, 0.0, 0.0, 1.0, -0.1, -0.1)">
    <path d="M8.2 1.85 L8.35 1.8 8.5 1.95 8.45 2.25 7.65 2.85 7.15 3.1 6.75 3.25 6.45 3.3 6.35 3.2 6.35 3.1 7.7 2.5 8.1 2.2 8.05 2.2 8.0 2.15 Q7.95 2.05 8.05 1.9 L8.1 1.9 8.2 1.85 M5.7 3.6 L5.25 3.7 5.1 3.65 5.1 3.75 4.7 4.95 4.4 5.35 4.4 5.45 4.1 5.75 Q3.35 6.65 2.85 6.7 L2.5 6.8 2.35 6.85 2.35 6.75 2.3 6.6 2.4 6.5 4.0 4.95 4.4 4.4 4.6 4.1 4.85 3.55 4.45 3.1 3.9 2.6 3.6 1.95 3.65 1.95 3.65 2.0 3.75 2.05 4.5 2.85 Q4.65 3.15 5.05 3.25 L5.65 2.95 5.9 2.5 5.65 1.9 5.3 1.55 5.2 1.45 5.15 1.35 5.4 1.4 5.95 2.05 6.45 2.8 Q6.3 2.85 6.45 2.9 L6.2 3.2 5.95 3.5 Q5.8 3.5 5.7 3.6" fill="#b89643" fill-rule="evenodd" stroke="none"/>
    <path d="M3.65 2.0 Q3.8 1.45 4.7 1.35 L5.1 1.35 5.4 0.75 5.5 0.7 6.45 1.1 6.75 1.1 7.2 1.0 7.25 1.1 8.0 1.65 8.2 1.85 8.1 1.9 8.05 1.9 7.85 2.15 Q7.1 2.4 6.45 2.8 L5.95 2.05 5.4 1.4 5.15 1.35 5.2 1.45 5.3 1.55 5.65 1.9 5.9 2.5 5.65 2.95 5.05 3.25 Q4.65 3.15 4.5 2.85 L3.75 2.05 3.65 2.0" fill="#ffe366" fill-rule="evenodd" stroke="none"/>
    <path d="M8.05 1.9 Q7.95 2.05 8.0 2.15 L8.05 2.2 8.1 2.2 7.7 2.5 6.35 3.1 6.35 3.2 6.2 3.2 6.45 2.9 Q6.3 2.85 6.45 2.8 7.1 2.4 7.85 2.15 L8.05 1.9" fill="#9a6f30" fill-rule="evenodd" stroke="none"/>
    <path d="M7.65 2.85 L8.4 3.0 8.9 3.15 9.7 3.6 7.15 3.1 7.65 2.85 M7.2 5.65 L7.4 6.2 7.65 7.15 7.8 7.7 6.75 6.95 Q6.65 7.2 6.7 7.7 L6.4 8.75 6.2 9.15 6.2 9.2 6.15 9.3 6.2 9.15 5.85 8.3 5.4 7.05 4.9 5.4 Q5.05 5.1 5.8 5.15 L6.75 5.45 7.2 5.65" fill="#ffe79a" fill-rule="evenodd" stroke="none"/>
    <path d="M5.5 0.7 L5.6 0.55 5.7 0.45 Q5.75 0.15 6.25 0.1 L6.8 0.3 6.9 0.4 7.15 0.85 7.1 0.85 7.15 0.9 7.15 0.95 7.2 1.0 6.75 1.1 6.45 1.1 5.5 0.7 M4.15 3.0 L4.45 3.3 3.35 3.9 Q2.85 4.1 2.5 4.45 L2.05 4.85 1.8 4.85 1.3 4.45 Q1.1 4.35 1.05 3.9 0.95 3.4 1.6 3.25 L2.4 3.15 3.5 2.9 4.15 3.0" fill="#fff7e0" fill-rule="evenodd" stroke="none"/>
    <path d="M9.7 3.6 L8.85 3.85 9.3 4.4 9.95 5.15 Q9.8 5.25 10.05 5.4 L10.1 5.65 9.45 5.3 Q8.8 5.2 8.35 4.9 L7.0 4.3 5.75 3.6 5.7 3.6 Q5.8 3.5 5.95 3.5 L6.2 3.2 6.35 3.2 6.45 3.3 6.75 3.25 7.15 3.1 9.7 3.6 M5.25 3.7 L7.2 5.65 6.75 5.45 5.8 5.15 Q5.05 5.1 4.9 5.4 L4.7 4.95 5.1 3.75 5.1 3.65 5.25 3.7" fill="#d4ba44" fill-rule="evenodd" stroke="none"/>
    <path d="M2.35 6.75 Q2.05 6.75 1.6 5.65 L1.9 5.45 1.6 5.55 1.4 5.3 0.7 4.75 Q0.1 4.45 0.2 4.4 0.0 4.3 0.15 4.2 -0.05 3.95 0.5 3.5 1.1 2.7 2.65 2.6 L3.2 2.5 3.8 2.55 3.9 2.6 4.45 3.1 4.85 3.55 4.6 4.1 4.4 4.4 4.0 4.95 2.4 6.5 2.3 6.6 2.35 6.75 M4.15 3.0 L3.5 2.9 2.4 3.15 1.6 3.25 Q0.95 3.4 1.05 3.9 1.1 4.35 1.3 4.45 L1.8 4.85 2.05 4.85 2.5 4.45 Q2.85 4.1 3.35 3.9 L4.45 3.3 4.15 3.0" fill="#fcdf5c" fill-rule="evenodd" stroke="none"/>
  </g>
</svg>
