<?xml version="1.0" encoding="UTF-8" standalone="no"?>
<svg xmlns:xlink="http://www.w3.org/1999/xlink" height="34.2px" width="22.95px" xmlns="http://www.w3.org/2000/svg">
  <g transform="matrix(1.0, 0.0, 0.0, 1.0, 2.1, 1.0)">
    <path d="M1.25 24.55 Q4.6 23.1 9.4 23.1 14.1 23.1 17.45 24.55 20.85 26.05 20.85 28.15 20.85 30.25 17.45 31.7 14.1 33.2 9.4 33.2 4.6 33.2 1.25 31.7 -2.1 30.25 -2.1 28.15 -2.1 26.05 1.25 24.55" fill="url(#gradient0)" fill-rule="evenodd" stroke="none"/>
    <path d="M13.7 4.8 L13.7 4.95 Q14.65 5.45 15.55 6.1 18.05 8.05 17.95 10.5 L16.45 22.45 16.5 22.75 16.6 23.65 16.55 24.15 16.6 24.9 Q16.5 27.05 14.35 28.55 12.25 29.95 9.25 29.95 6.3 29.95 4.1 28.5 1.9 27.0 1.75 24.85 1.7 24.2 1.9 23.6 L1.85 23.15 1.95 22.25 1.75 21.05 1.7 20.95 1.0 15.3 1.05 15.35 0.4 10.75 0.3 10.25 Q0.3 8.55 1.55 7.1 2.75 5.7 4.9 4.8 L4.85 3.5 4.9 3.5 4.85 2.9 Q4.85 1.75 6.1 0.85 7.4 0.0 9.25 0.0 11.05 0.0 12.35 0.85 13.65 1.75 13.65 2.9 L13.65 3.2 13.7 4.8" fill="#cc6600" fill-rule="evenodd" stroke="none"/>
    <path d="M13.7 4.8 L13.7 4.95 Q14.65 5.45 15.55 6.1 18.05 8.05 17.95 10.5 L16.45 22.45 16.5 22.75 16.6 23.65 16.55 24.15 16.6 24.9 Q16.5 27.05 14.35 28.55 12.25 29.95 9.25 29.95 6.3 29.95 4.1 28.5 1.9 27.0 1.75 24.85 1.7 24.2 1.9 23.6 L1.85 23.15 1.95 22.25 1.75 21.05 1.7 20.95 1.0 15.3 1.05 15.35 0.4 10.75 0.3 10.25 Q0.3 8.55 1.55 7.1 2.75 5.7 4.9 4.8 L4.85 3.5 4.9 3.5 4.85 2.9 Q4.85 1.75 6.1 0.85 7.4 0.0 9.25 0.0 11.05 0.0 12.35 0.85 13.65 1.75 13.65 2.9 L13.65 3.2 13.7 4.8 Z" fill="none" stroke="#457709" stroke-linecap="round" stroke-linejoin="round" stroke-width="2.0"/>
    <path d="M1.75 24.85 Q1.65 22.65 3.85 21.0 6.0 19.45 9.2 19.5 12.3 19.5 14.5 21.1 16.65 22.7 16.55 24.95 16.5 27.05 14.35 28.5 12.2 29.95 9.25 29.95 6.25 29.95 4.05 28.5 1.85 27.0 1.75 24.85" fill="#b4bd92" fill-rule="evenodd" stroke="none"/>
    <path d="M1.8 23.15 Q1.7 21.2 3.9 19.8 6.05 18.4 9.2 18.4 12.3 18.45 14.45 19.85 16.6 21.25 16.5 23.2 16.45 25.05 14.3 26.35 12.2 27.65 9.25 27.65 6.25 27.65 4.1 26.35 1.9 25.0 1.8 23.15" fill="#f0f4e7" fill-rule="evenodd" stroke="none"/>
    <path d="M1.85 23.6 Q1.75 21.45 3.9 19.95 6.05 18.45 9.25 18.45 12.35 18.5 14.5 20.05 16.65 21.55 16.55 23.65 16.45 25.7 14.35 27.1 12.2 28.5 9.25 28.5 6.3 28.5 4.1 27.05 1.95 25.65 1.85 23.6" fill="#dce2c9" fill-rule="evenodd" stroke="none"/>
    <path d="M1.95 22.75 L0.3 10.2 8.7 10.65 17.9 10.5 16.45 22.8 Q16.35 24.5 14.25 25.7 12.2 26.85 9.25 26.85 6.35 26.85 4.25 25.65 2.05 24.45 1.95 22.75" fill="#d0d7b1" fill-rule="evenodd" stroke="none"/>
    <path d="M2.85 6.9 Q5.45 5.2 9.15 5.3 12.85 5.35 15.35 7.1 17.9 8.85 17.75 11.15 17.6 13.35 15.1 14.9 12.65 16.4 9.2 16.35 5.75 16.3 3.2 14.75 0.65 13.2 0.45 10.9 0.35 8.55 2.85 6.9" fill="#fffbf8" fill-rule="evenodd" stroke="none"/>
    <path d="M2.8 15.3 Q4.3 16.25 6.0 16.8 11.35 18.5 16.5 15.05 L15.55 22.45 Q14.0 23.55 11.7 24.1 6.95 25.15 2.8 22.35 L2.1 18.0 1.65 14.4 2.8 15.3" fill="#eaeecf" fill-rule="evenodd" stroke="none"/>
    <path d="M15.25 14.65 Q12.7 16.2 9.2 16.15 5.65 16.1 3.0 14.5 0.35 12.85 0.35 10.55 0.3 8.15 2.95 6.25 5.65 4.3 9.2 4.3 12.9 4.3 15.5 6.35 18.05 8.3 17.9 10.8 17.75 13.1 15.25 14.65" fill="url(#gradient1)" fill-rule="evenodd" stroke="none"/>
    <path d="M15.65 8.25 Q16.85 10.1 16.85 12.95 L16.35 13.4 15.1 14.3 Q14.15 14.9 13.0 15.2 L13.0 11.65 Q12.85 10.3 12.3 8.8 L11.3 6.55 12.9 5.85 13.8 6.35 Q14.85 7.1 15.65 8.25" fill="#fefef7" fill-rule="evenodd" stroke="none"/>
    <path d="M5.7 6.35 L6.55 6.8 Q5.3 7.75 4.25 9.8 3.2 12.0 3.05 14.15 L1.2 12.5 Q1.5 10.9 2.2 9.5 3.45 7.0 5.7 6.35" fill="#fefef7" fill-rule="evenodd" stroke="none"/>
    <path d="M5.85 4.1 Q7.25 3.15 9.25 3.15 11.2 3.15 12.6 4.1 14.0 5.05 14.0 6.35 14.0 7.65 12.6 8.6 11.2 9.5 9.25 9.5 7.3 9.5 5.85 8.6 4.5 7.65 4.5 6.35 4.5 5.05 5.85 4.1" fill="#c4c9a6" fill-rule="evenodd" stroke="none"/>
    <path d="M14.0 6.55 Q13.9 8.0 12.15 8.9 L11.3 6.6 12.9 5.9 13.25 6.05 14.0 6.55" fill="#d7dcc4" fill-rule="evenodd" stroke="none"/>
    <path d="M6.05 6.25 Q5.4 6.75 4.85 7.7 4.5 7.1 4.5 6.4 L4.5 6.0 5.35 5.45 5.55 5.75 6.05 6.25" fill="#d7dcc4" fill-rule="evenodd" stroke="none"/>
    <path d="M4.85 3.45 L9.35 3.55 13.6 3.2 13.65 5.35 Q13.65 6.55 12.4 7.4 11.1 8.25 9.25 8.25 7.4 8.25 6.15 7.4 4.85 6.55 4.85 5.35 L4.85 3.45" fill="#fffbf8" fill-rule="evenodd" stroke="none"/>
    <path d="M4.85 2.9 L9.35 3.05 13.6 2.65 13.65 4.8 Q13.65 6.0 12.4 6.9 11.1 7.75 9.25 7.75 7.4 7.75 6.15 6.9 4.85 6.0 4.85 4.8 L4.85 2.9" fill="#909b69" fill-rule="evenodd" stroke="none"/>
    <path d="M11.85 5.05 L12.95 4.0 12.95 6.4 12.65 6.65 11.85 7.15 11.85 5.05" fill="#b5bc98" fill-rule="evenodd" stroke="none"/>
    <path d="M9.25 5.7 L9.6 5.7 10.5 5.45 10.45 7.6 9.25 7.75 9.25 5.7" fill="#bdc49f" fill-rule="evenodd" stroke="none"/>
    <path d="M6.3 5.15 L6.7 5.4 7.6 5.6 7.6 7.5 6.3 7.0 6.3 5.15" fill="#cdd5ad" fill-rule="evenodd" stroke="none"/>
    <path d="M6.1 0.85 Q7.4 0.0 9.25 0.0 11.05 0.0 12.35 0.85 13.65 1.75 13.65 2.9 13.65 4.1 12.35 5.0 11.05 5.85 9.25 5.85 7.4 5.85 6.1 5.0 4.85 4.1 4.85 2.9 4.85 1.75 6.1 0.85" fill="#ffffff" fill-rule="evenodd" stroke="none"/>
    <path d="M6.6 0.9 Q7.65 0.2 9.25 0.2 10.8 0.2 11.9 0.9 13.0 1.65 13.0 2.65 13.0 3.7 11.9 4.4 10.8 5.15 9.25 5.15 7.7 5.15 6.6 4.4 5.5 3.7 5.5 2.65 5.5 1.65 6.6 0.9" fill="#eff2e6" fill-rule="evenodd" stroke="none"/>
    <path d="M2.5 22.3 Q2.4 20.7 4.35 19.5 6.3 18.35 9.1 18.4 11.9 18.4 13.8 19.55 15.7 20.75 15.6 22.35 15.6 23.9 13.65 25.0 11.8 26.05 9.15 26.05 6.5 26.05 4.55 24.95 2.6 23.85 2.5 22.3" fill="#c6cd8f" fill-rule="evenodd" stroke="none"/>
    <path d="M16.75 13.8 L15.45 24.75 Q14.75 25.7 12.8 26.35 L13.0 16.1 14.25 15.65 Q15.7 14.95 16.75 13.8" fill="#fbfcf0" fill-rule="evenodd" stroke="none"/>
    <path d="M13.0 17.0 Q14.6 16.5 16.55 15.2 L15.8 22.05 Q15.6 20.2 12.9 19.15 L13.0 17.0" fill="#edf1de" fill-rule="evenodd" stroke="none"/>
    <path d="M15.7 22.85 Q15.2 24.65 12.8 25.45 L12.9 19.2 Q15.7 20.2 15.75 22.2 L15.7 22.85" fill="#dce1b6" fill-rule="evenodd" stroke="none"/>
    <path d="M12.8 25.4 Q15.2 24.6 15.7 22.85 L15.45 24.75 Q14.85 25.6 12.8 26.35 L12.8 25.4" fill="#e8ecd0" fill-rule="evenodd" stroke="none"/>
    <path d="M0.8 13.3 L2.65 15.2 Q5.35 17.15 9.35 17.25 L9.35 24.05 6.35 24.25 Q3.05 23.9 1.7 20.95 L0.8 13.3" fill="#73b123" fill-rule="evenodd" stroke="none"/>
    <path d="M1.0 15.2 L2.65 16.85 Q4.95 18.45 8.4 18.6 L8.4 23.3 5.95 23.0 Q3.15 22.3 1.6 20.0 L1.0 15.2" fill="url(#gradient2)" fill-rule="evenodd" stroke="none"/>
    <path d="M0.85 14.05 L0.8 13.3 Q2.5 15.75 6.1 16.75 L9.35 17.25 9.35 24.55 Q5.45 24.9 3.3 23.2 1.85 22.05 1.8 21.0 L3.05 22.3 Q5.4 24.05 8.9 24.0 L8.9 17.9 Q5.1 17.75 2.55 15.9 L0.85 14.05" fill="#678633" fill-rule="evenodd" stroke="none"/>
    <path d="M1.25 13.2 Q1.8 14.0 3.05 14.8 L4.35 25.75 3.25 25.0 2.85 24.6 1.25 13.2" fill="#f7f9e5" fill-rule="evenodd" stroke="none"/>
    <path d="M1.65 16.0 L1.5 14.9 3.25 16.3 3.35 17.2 1.65 16.0" fill="#95c944" fill-rule="evenodd" stroke="none"/>
    <path d="M2.5 22.4 L4.1 23.75 4.25 24.75 2.7 23.65 2.5 22.4" fill="#dee0ba" fill-rule="evenodd" stroke="none"/>
    <path d="M3.9 21.95 L4.0 22.95 2.4 21.8 2.25 20.7 3.9 21.95" fill="#92bd4e" fill-rule="evenodd" stroke="none"/>
    <path d="M2.3 20.85 L1.65 16.0 2.35 16.6 3.35 17.2 3.9 22.15 Q3.1 21.75 2.3 20.85" fill="#578327" fill-rule="evenodd" stroke="none"/>
    <path d="M2.4 21.8 L4.0 22.95 4.1 23.75 2.5 22.4 2.4 21.8" fill="#7f9f4a" fill-rule="evenodd" stroke="none"/>
    <path d="M1.55 15.0 L1.4 14.1 3.15 15.45 3.25 16.3 Q2.65 16.0 1.55 15.0" fill="#e6efc4" fill-rule="evenodd" stroke="none"/>
    <path d="M6.0 26.65 L8.7 27.2 9.9 27.2 12.4 26.75 13.9 26.1 Q14.8 25.75 14.4 26.15 12.8 27.85 9.6 28.0 L7.4 27.75 Q5.9 27.4 5.0 26.7 L6.0 26.65" fill="#fffefa" fill-rule="evenodd" stroke="none"/>
  </g>
  <defs>
    <radialGradient cx="0" cy="0" gradientTransform="matrix(1.0E-4, -0.0069, 0.0166, 1.0E-4, 9.4, 28.15)" gradientUnits="userSpaceOnUse" id="gradient0" r="819.2" spreadMethod="pad">
      <stop offset="0.19607843137254902" stop-color="#3a2e2e" stop-opacity="0.6784314"/>
      <stop offset="0.7176470588235294" stop-color="#3f2121" stop-opacity="0.29803923"/>
      <stop offset="0.8470588235294118" stop-color="#5f3e3e" stop-opacity="0.0"/>
    </radialGradient>
    <radialGradient cx="0" cy="0" fx="60.800000000000004" fy="0" gradientTransform="matrix(0.0189, 0.0, 0.0, -0.0169, 6.65, 9.3)" gradientUnits="userSpaceOnUse" id="gradient1" r="819.2" spreadMethod="pad">
      <stop offset="0.011764705882352941" stop-color="#ffffff"/>
      <stop offset="1.0" stop-color="#8da61b"/>
    </radialGradient>
    <linearGradient gradientTransform="matrix(0.0039, -1.0E-4, 1.0E-4, -0.0034, 4.65, 19.25)" gradientUnits="userSpaceOnUse" id="gradient2" spreadMethod="pad" x1="-819.2" x2="819.2">
      <stop offset="0.0" stop-color="#2a5600"/>
      <stop offset="0.9882352941176471" stop-color="#4d8726"/>
    </linearGradient>
  </defs>
</svg>
