<?xml version="1.0" encoding="UTF-8" standalone="no"?>
<svg xmlns:xlink="http://www.w3.org/1999/xlink" height="26.3px" width="25.7px" xmlns="http://www.w3.org/2000/svg">
  <g transform="matrix(1.0, 0.0, 0.0, 1.0, 0.05, 0.0)">
    <path d="M0.15 8.5 Q-0.7 6.1 2.5 4.2 L8.75 4.6 Q16.9 6.6 16.75 14.1 13.4 3.9 0.15 8.5" fill="url(#gradient0)" fill-rule="evenodd" stroke="none"/>
    <path d="M5.35 1.3 Q11.35 3.15 15.6 7.7 19.25 12.9 14.6 17.1 19.1 11.05 12.0 7.1 5.6 4.45 0.65 5.7 -0.3 2.55 5.35 1.3" fill="url(#gradient1)" fill-rule="evenodd" stroke="none"/>
    <path d="M5.0 1.5 Q5.35 -1.0 11.1 0.65 14.0 1.95 17.2 7.8 20.35 13.7 14.5 17.1 19.4 11.0 14.25 6.65 9.05 2.3 5.0 1.5" fill="url(#gradient2)" fill-rule="evenodd" stroke="none"/>
    <path d="M17.15 3.55 L19.35 5.2 Q21.1 13.15 15.65 16.3 18.3 14.65 18.6 10.7 19.0 6.45 17.15 3.55" fill="url(#gradient3)" fill-rule="evenodd" stroke="none"/>
    <path d="M14.5 13.9 Q11.25 8.25 7.2 12.4 3.1 16.55 3.75 23.1 1.85 13.85 6.9 10.5 11.9 7.1 14.5 13.9" fill="url(#gradient4)" fill-rule="evenodd" stroke="none"/>
    <path d="M22.4 12.95 Q19.25 17.45 14.6 17.0 19.35 16.2 20.4 10.85 20.9 6.4 19.75 1.95 22.0 -1.25 24.2 3.0 25.6 8.45 22.4 12.95" fill="url(#gradient5)" fill-rule="evenodd" stroke="none"/>
    <path d="M17.95 22.4 Q11.6 20.85 11.7 15.05 14.35 23.0 24.65 19.4 27.35 20.8 22.85 22.75 L17.95 22.4" fill="url(#gradient6)" fill-rule="evenodd" stroke="none"/>
    <path d="M15.45 20.55 Q20.5 22.6 24.35 21.65 27.45 24.6 20.65 25.05 15.95 23.65 12.65 20.1 9.8 16.05 13.45 12.75 9.9 17.45 15.45 20.55" fill="url(#gradient7)" fill-rule="evenodd" stroke="none"/>
    <path d="M13.75 20.9 Q17.8 24.3 20.95 24.95 21.65 27.3 16.2 25.55 13.9 24.55 11.35 20.55 8.9 16.6 13.5 12.75 9.65 17.5 13.75 20.9" fill="url(#gradient8)" fill-rule="evenodd" stroke="none"/>
    <path d="M10.25 17.75 Q9.95 21.05 11.35 23.3 L9.65 22.05 Q8.35 15.8 12.5 13.35 10.5 14.65 10.25 17.75" fill="url(#gradient9)" fill-rule="evenodd" stroke="none"/>
    <path d="M7.25 16.0 Q9.75 12.5 13.4 12.85 9.65 13.45 8.85 17.6 8.45 21.1 9.35 24.6 7.15 27.85 5.9 23.75 4.75 19.5 7.25 16.0" fill="url(#gradient10)" fill-rule="evenodd" stroke="none"/>
    <path d="M14.95 14.1 Q12.6 17.55 16.15 18.7 19.7 19.85 23.25 17.6 18.5 21.3 15.15 19.45 11.8 17.5 14.95 14.1" fill="url(#gradient11)" fill-rule="evenodd" stroke="none"/>
  </g>
  <defs>
    <linearGradient gradientTransform="matrix(0.0118, 0.0041, -0.0012, 0.0034, 8.1, 6.95)" gradientUnits="userSpaceOnUse" id="gradient0" spreadMethod="pad" x1="-819.2" x2="819.2">
      <stop offset="0.0" stop-color="#e8c4ff"/>
      <stop offset="1.0" stop-color="#7c00aa"/>
    </linearGradient>
    <linearGradient gradientTransform="matrix(0.0094, 0.0079, -0.0056, 0.0066, 8.6, 9.35)" gradientUnits="userSpaceOnUse" id="gradient1" spreadMethod="pad" x1="-819.2" x2="819.2">
      <stop offset="0.0" stop-color="#e8c4ff"/>
      <stop offset="1.0" stop-color="#7c00aa"/>
    </linearGradient>
    <linearGradient gradientTransform="matrix(0.0038, 0.0101, -0.0024, 9.0E-4, 23.1, 3.05)" gradientUnits="userSpaceOnUse" id="gradient2" spreadMethod="pad" x1="-819.2" x2="819.2">
      <stop offset="0.0" stop-color="#e8c4ff"/>
      <stop offset="1.0" stop-color="#7c00aa"/>
    </linearGradient>
    <linearGradient gradientTransform="matrix(-8.0E-4, 0.0069, -0.0034, -4.0E-4, 19.1, 10.0)" gradientUnits="userSpaceOnUse" id="gradient3" spreadMethod="pad" x1="-819.2" x2="819.2">
      <stop offset="0.0" stop-color="#e8c4ff"/>
      <stop offset="1.0" stop-color="#7c00aa"/>
    </linearGradient>
    <linearGradient gradientTransform="matrix(0.0089, -0.0034, 0.0011, 0.0027, 8.15, 15.6)" gradientUnits="userSpaceOnUse" id="gradient4" spreadMethod="pad" x1="-819.2" x2="819.2">
      <stop offset="0.0" stop-color="#e8c4ff"/>
      <stop offset="1.0" stop-color="#7c00aa"/>
    </linearGradient>
    <linearGradient gradientTransform="matrix(-0.0046, 0.0086, -0.0053, -0.0028, 22.6, 10.7)" gradientUnits="userSpaceOnUse" id="gradient5" spreadMethod="pad" x1="-819.2" x2="819.2">
      <stop offset="0.0" stop-color="#e8c4ff"/>
      <stop offset="1.0" stop-color="#7c00aa"/>
    </linearGradient>
    <linearGradient gradientTransform="matrix(-0.0092, -0.0032, 9.0E-4, -0.0026, 19.35, 20.3)" gradientUnits="userSpaceOnUse" id="gradient6" spreadMethod="pad" x1="-819.2" x2="819.2">
      <stop offset="0.0" stop-color="#e8c4ff"/>
      <stop offset="1.0" stop-color="#7c00aa"/>
    </linearGradient>
    <linearGradient gradientTransform="matrix(-0.0076, -0.0064, 0.0044, -0.0052, 19.05, 18.7)" gradientUnits="userSpaceOnUse" id="gradient7" spreadMethod="pad" x1="-819.2" x2="819.2">
      <stop offset="0.0" stop-color="#e8c4ff"/>
      <stop offset="1.0" stop-color="#7c00aa"/>
    </linearGradient>
    <linearGradient gradientTransform="matrix(-0.0031, -0.008, 0.0019, -7.0E-4, 6.95, 23.85)" gradientUnits="userSpaceOnUse" id="gradient8" spreadMethod="pad" x1="-819.2" x2="819.2">
      <stop offset="0.0" stop-color="#e8c4ff"/>
      <stop offset="1.0" stop-color="#7c00aa"/>
    </linearGradient>
    <linearGradient gradientTransform="matrix(6.0E-4, -0.0054, 0.0026, 3.0E-4, 9.85, 18.3)" gradientUnits="userSpaceOnUse" id="gradient9" spreadMethod="pad" x1="-819.2" x2="819.2">
      <stop offset="0.0" stop-color="#e8c4ff"/>
      <stop offset="1.0" stop-color="#7c00aa"/>
    </linearGradient>
    <linearGradient gradientTransform="matrix(0.0047, -0.009, 0.0042, 0.0022, 7.1, 18.55)" gradientUnits="userSpaceOnUse" id="gradient10" spreadMethod="pad" x1="-819.2" x2="819.2">
      <stop offset="0.0" stop-color="#e8c4ff"/>
      <stop offset="1.0" stop-color="#7c00aa"/>
    </linearGradient>
    <linearGradient gradientTransform="matrix(-2.0E-4, 0.0061, -0.0019, -1.0E-4, 10.85, 8.4)" gradientUnits="userSpaceOnUse" id="gradient11" spreadMethod="pad" x1="-819.2" x2="819.2">
      <stop offset="0.0" stop-color="#e8c4ff"/>
      <stop offset="1.0" stop-color="#7c00aa"/>
    </linearGradient>
  </defs>
</svg>
