<?xml version="1.0" encoding="UTF-8" standalone="no"?>
<svg xmlns:xlink="http://www.w3.org/1999/xlink" height="45.2px" width="33.2px" xmlns="http://www.w3.org/2000/svg">
  <g transform="matrix(1.0, 0.0, 0.0, 1.0, 2.0, 16.1)">
    <path d="M2.8 23.9 L14.6 23.05 26.3 23.9 Q31.2 24.8 31.2 26.05 31.2 27.3 26.3 28.2 L14.6 29.1 2.8 28.2 Q-2.0 27.3 -2.0 26.05 -2.0 24.8 2.8 23.9" fill="url(#gradient0)" fill-rule="evenodd" stroke="none"/>
    <path d="M15.7 -15.0 L15.3 -15.1 24.65 -15.1 24.55 -15.05 27.25 -15.05 29.85 -10.85 29.75 -4.8 29.8 -4.9 29.75 23.75 Q28.55 25.15 26.15 26.0 L24.75 26.3 Q23.35 26.4 22.75 25.45 22.2 24.6 21.95 23.75 L21.8 23.15 21.3 23.05 20.9 23.6 20.2 25.05 19.95 25.45 19.7 25.6 18.7 25.85 17.35 25.9 16.0 24.95 15.05 24.0 Q13.35 25.4 13.0 24.85 12.0 24.7 10.5 25.8 L10.5 25.9 10.25 25.9 8.4 26.0 7.5 25.8 6.35 25.65 5.6 24.65 5.15 24.2 5.1 24.2 4.65 24.4 4.3 24.65 4.15 24.9 Q4.0 25.35 3.1 25.65 L1.9 25.75 0.05 24.7 0.05 7.9 0.0 8.0 0.05 -7.75 0.15 -7.8 0.15 -13.1 0.95 -13.75 0.95 -13.9 2.45 -15.05 10.6 -15.05 11.55 -14.75 10.9 -14.65 12.15 -14.15 13.95 -15.0 15.7 -15.0" fill="#8b6ba5" fill-rule="evenodd" stroke="none"/>
    <path d="M15.7 -15.0 L13.95 -15.0 12.15 -14.15 10.9 -14.65 11.55 -14.75 10.6 -15.05 2.45 -15.05 0.95 -13.9 0.95 -13.75 0.15 -13.1 0.15 -7.8 0.05 -7.75 0.0 8.0 0.05 7.9 0.05 24.7 1.9 25.75 3.1 25.65 Q4.0 25.35 4.15 24.9 L4.3 24.65 4.65 24.4 5.1 24.2 5.15 24.2 5.6 24.65 6.35 25.65 7.5 25.8 8.4 26.0 10.25 25.9 10.5 25.9 10.5 25.8 Q12.0 24.7 13.0 24.85 13.35 25.4 15.05 24.0 L16.0 24.95 17.35 25.9 18.7 25.85 19.7 25.6 19.95 25.45 20.2 25.05 20.9 23.6 21.3 23.05 21.8 23.15 21.95 23.75 Q22.2 24.6 22.75 25.45 23.35 26.4 24.75 26.3 L26.15 26.0 Q28.55 25.15 29.75 23.75 L29.8 -4.9 29.75 -4.8 29.85 -10.85 27.25 -15.05 24.55 -15.05 24.65 -15.1 15.3 -15.1 15.7 -15.0 Z" fill="none" stroke="#624729" stroke-linecap="round" stroke-linejoin="round" stroke-width="2.0"/>
    <path d="M3.95 24.95 Q3.65 25.45 2.85 25.45 L1.85 25.15 0.85 24.75 0.05 24.55 0.05 -5.45 29.75 -5.45 29.75 23.65 Q28.55 25.0 26.15 25.85 24.2 25.35 21.9 22.75 21.55 22.4 20.9 23.5 L20.05 25.15 18.7 25.65 17.35 25.7 16.0 24.8 Q14.85 23.85 14.2 22.65 13.45 25.05 13.0 24.75 11.95 24.55 10.25 25.75 L8.4 25.85 6.9 25.45 5.85 24.75 5.15 24.1 Q4.95 24.1 4.65 24.25 4.15 24.55 3.95 24.95" fill="#bf7b2a" fill-rule="evenodd" stroke="none"/>
    <path d="M16.05 -4.75 L17.4 -3.75 18.35 4.45 15.85 17.4 15.15 23.8 Q13.35 25.3 13.0 24.75 L13.0 18.35 12.3 14.45 12.75 10.25 12.45 4.35 10.6 1.25 11.0 -4.45 14.65 -5.75 16.05 -4.75" fill="#9a5c18" fill-rule="evenodd" stroke="none"/>
    <path d="M23.05 -4.4 L25.65 -6.15 27.8 -5.15 29.75 -4.1 29.75 -1.3 Q29.6 -0.3 29.1 0.55 28.1 2.4 26.4 1.85 L25.5 12.6 26.2 17.55 26.15 25.85 24.75 26.15 Q23.35 26.25 22.75 25.35 L21.95 23.65 21.8 23.1 21.15 23.0 20.6 24.1 19.95 25.35 17.5 25.75 Q19.3 23.25 19.7 22.15 L19.95 20.5 20.0 19.7 19.75 15.3 Q19.65 14.3 18.3 13.1 18.1 12.95 17.95 5.1 17.75 -2.55 18.45 -1.25 L20.8 -2.75 23.05 -4.4" fill="#9a5c18" fill-rule="evenodd" stroke="none"/>
    <path d="M1.0 0.5 L2.1 1.15 Q2.45 1.25 3.8 0.4 L4.2 1.05 Q4.6 1.8 4.95 1.95 L6.35 2.5 5.85 10.45 4.35 15.7 2.9 16.4 2.9 14.8 1.55 5.35 0.1 3.6 0.1 -0.15 1.0 0.5" fill="#bf7b2a" fill-rule="evenodd" stroke="none"/>
    <path d="M26.8 8.95 L26.8 14.45 26.2 16.2 Q25.2 16.05 24.55 15.35 24.2 14.85 23.8 13.1 L23.5 11.45 26.1 2.9 27.95 3.85 26.8 8.95" fill="#c98f42" fill-rule="evenodd" stroke="none"/>
    <path d="M27.85 10.65 L26.8 13.9 Q25.7 13.8 25.2 13.35 24.8 13.0 24.7 11.95 L24.65 10.85 26.1 5.2 27.95 6.3 27.85 10.65" fill="#dba652" fill-rule="evenodd" stroke="none"/>
    <path d="M2.05 2.4 L3.15 3.15 Q4.2 4.1 4.3 4.8 L4.1 13.25 2.9 14.8 0.5 3.8 2.05 2.4" fill="#dba652" fill-rule="evenodd" stroke="none"/>
    <path d="M18.4 12.4 L16.65 11.7 16.45 7.0 14.5 3.35 16.3 0.0 18.1 1.65 19.75 7.1 18.4 12.4" fill="#dba652" fill-rule="evenodd" stroke="none"/>
    <path d="M19.4 11.65 L17.7 9.15 Q17.3 6.85 17.5 6.05 L18.1 3.7 Q18.65 4.4 19.9 4.25 L21.0 3.95 21.15 7.5 19.4 11.65" fill="#bc7335" fill-rule="evenodd" stroke="none"/>
    <path d="M9.75 14.3 L10.5 25.75 9.35 25.8 6.35 25.45 5.25 24.1 8.0 10.4 9.75 14.3" fill="#c98f42" fill-rule="evenodd" stroke="none"/>
    <path d="M9.75 1.15 L10.55 0.9 9.75 12.75 7.95 11.45 8.0 9.25 Q8.05 6.95 8.2 6.45 L9.75 1.15" fill="#dba652" fill-rule="evenodd" stroke="none"/>
    <path d="M0.9 0.25 L0.05 -0.2 0.05 -7.25 Q0.75 -7.5 1.4 -7.85 L1.8 -8.85 7.55 -9.15 14.0 -6.05 12.25 3.35 10.7 1.85 9.75 1.85 8.2 8.0 6.55 21.35 5.25 24.1 4.8 24.15 Q4.3 24.35 4.15 24.75 4.0 25.25 3.1 25.45 L1.9 25.55 0.1 24.55 0.1 4.5 0.5 4.65 2.9 16.5 4.35 17.45 Q5.4 13.9 5.45 12.95 L5.85 1.8 3.35 1.85 2.3 -0.35 Q1.8 0.55 0.9 0.25" fill="#9a5c18" fill-rule="evenodd" stroke="none"/>
    <path d="M25.65 6.15 Q24.5 10.9 23.65 15.5 L19.4 11.65 21.1 8.15 Q22.8 4.7 23.0 4.9 23.3 5.25 25.65 6.15" fill="#c18630" fill-rule="evenodd" stroke="none"/>
    <path d="M21.7 -9.05 L18.0 -12.0 22.35 -10.05 24.25 -6.1 29.75 -3.0 29.8 -2.95 29.35 -3.15 22.85 -5.4 22.7 -5.95 20.2 -5.95 19.45 -6.0 22.15 -6.7 22.45 -6.75 21.75 -9.0 21.7 -9.05" fill="#a05b10" fill-rule="evenodd" stroke="none"/>
    <path d="M29.35 -3.15 L22.6 -4.8 22.4 -5.7 20.2 -5.95 22.7 -5.95 22.85 -5.4 29.35 -3.15 M22.15 -6.7 L21.7 -9.05 21.75 -9.0 22.45 -6.75 22.15 -6.7" fill="#ffffff" fill-rule="evenodd" stroke="none"/>
    <path d="M29.75 -3.0 L24.25 -6.1 22.35 -10.05 18.0 -12.0 21.7 -9.05 22.15 -6.7 19.45 -6.0 20.2 -5.95 22.4 -5.7 22.6 -4.8 29.35 -3.15 29.8 -2.95 29.75 3.75 29.05 5.5 26.55 4.3 22.05 5.95 21.5 9.3 19.5 11.15 18.35 9.65 15.3 8.85 12.45 13.2 10.15 12.45 9.45 9.35 7.5 8.1 5.75 10.05 4.25 12.45 2.3 12.9 0.15 9.55 0.15 -12.85 2.55 -14.9 9.9 -14.9 12.15 -13.95 13.95 -14.9 27.25 -14.95 29.85 -10.4 29.75 -3.0" fill="#f0cd84" fill-rule="evenodd" stroke="none"/>
    <path d="M0.0 10.1 L0.1 2.75 1.1 3.3 0.15 6.4 0.35 7.95 0.0 10.1" fill="#c99045" fill-rule="evenodd" stroke="none"/>
    <path d="M0.05 2.2 L0.05 -0.75 0.8 -0.1 0.05 2.2" fill="#d19d4a" fill-rule="evenodd" stroke="none"/>
    <path d="M0.75 3.25 L3.3 4.1 6.2 3.05 8.85 4.0 6.25 3.6 3.55 5.35 0.35 5.2 0.75 3.25" fill="#af691c" fill-rule="evenodd" stroke="none"/>
    <path d="M0.15 -1.0 L0.15 -6.35 1.1 -4.95 0.5 -4.0 1.1 -1.3 0.15 -1.0" fill="#c99045" fill-rule="evenodd" stroke="none"/>
    <path d="M4.3 -13.55 L2.45 -14.95 10.6 -14.95 8.85 -14.0 6.7 -14.5 4.3 -13.55 M25.85 -15.0 L24.65 -15.0 22.45 -13.9 21.8 -14.35 20.65 -14.0 18.6 -14.8 17.6 -14.2 Q16.2 -14.8 15.3 -15.0 L25.85 -15.0" fill="#d19d4a" fill-rule="evenodd" stroke="none"/>
    <path d="M29.8 -3.9 L29.7 10.3 28.8 7.05 29.65 5.7 28.5 2.3 29.45 0.7 28.45 -1.65 29.8 -3.9" fill="#d19d4a" fill-rule="evenodd" stroke="none"/>
    <path d="M6.9 -14.95 L8.85 -14.85 8.85 -14.0 6.9 -14.95" fill="#a05b10" fill-rule="evenodd" stroke="none"/>
    <path d="M16.75 -8.35 L14.2 -9.2 15.9 -9.2 16.75 -8.35" fill="#a05b10" fill-rule="evenodd" stroke="none"/>
    <path d="M21.6 -15.0 L19.4 -13.9 18.75 -14.35 17.6 -14.0 15.55 -14.8 21.6 -15.0" fill="#a05b10" fill-rule="evenodd" stroke="none"/>
    <path d="M28.45 -1.65 L29.8 -0.1 29.75 3.5 28.5 2.3 29.45 0.7 28.45 -1.65" fill="#a05b10" fill-rule="evenodd" stroke="none"/>
    <path d="M29.65 4.8 L29.75 12.7 28.0 4.3 29.65 4.8" fill="#9a5c18" fill-rule="evenodd" stroke="none"/>
    <path d="M24.65 2.35 L27.0 1.15 25.55 3.0 22.05 2.85 21.6 5.45 20.35 5.55 21.0 7.2 19.8 8.75 20.05 7.1 19.45 5.7 16.4 5.95 15.6 3.9 14.0 4.7 15.6 3.1 17.4 4.85 20.45 4.4 21.4 1.95 24.65 2.35" fill="#af691c" fill-rule="evenodd" stroke="none"/>
    <path d="M4.75 -3.7 L6.3 -4.8 7.45 -6.15 7.1 -4.8 8.8 -3.35 6.75 -3.85 4.75 -3.7" fill="#af691c" fill-rule="evenodd" stroke="none"/>
    <path d="M4.0 5.95 L1.1 5.75 0.65 6.75 1.05 8.1 0.0 10.1 0.35 7.95 0.15 6.4 0.6 5.25 3.55 5.35 6.25 3.6 8.95 4.1 6.4 4.15 4.0 5.95" fill="#ffffff" fill-rule="evenodd" stroke="none"/>
    <path d="M1.1 -1.3 L0.8 -0.8 1.6 -0.1 0.1 2.75 0.8 -0.1 0.05 -0.75 1.1 -1.3" fill="#ffffff" fill-rule="evenodd" stroke="none"/>
    <path d="M0.5 -4.0 L1.95 -1.55 1.1 -1.3 0.5 -4.0" fill="#ffffff" fill-rule="evenodd" stroke="none"/>
    <path d="M1.45 -13.2 L1.7 -11.25 1.0 -12.2 0.95 -13.7 2.45 -14.95 4.3 -13.55 6.7 -14.5 4.5 -13.2 2.25 -14.05 1.45 -13.2" fill="#ffffff" fill-rule="evenodd" stroke="none"/>
    <path d="M1.1 -4.95 L1.7 -4.6 0.5 -4.0 1.1 -4.95" fill="#ffffff" fill-rule="evenodd" stroke="none"/>
    <path d="M8.8 -3.35 L4.75 -3.7 6.75 -3.85 8.8 -3.35" fill="#ffffff" fill-rule="evenodd" stroke="none"/>
    <path d="M9.2 -6.4 L9.35 -5.2 10.65 -3.35 8.8 -4.95 9.2 -6.4" fill="#ffffff" fill-rule="evenodd" stroke="none"/>
    <path d="M8.85 -14.0 L10.6 -14.95 11.55 -14.65 8.85 -14.0" fill="#ffffff" fill-rule="evenodd" stroke="none"/>
    <path d="M12.05 -8.4 L13.0 -8.85 14.2 -9.2 15.6 -8.7 12.05 -8.4" fill="#ffffff" fill-rule="evenodd" stroke="none"/>
    <path d="M14.55 -14.2 L15.55 -14.8 17.6 -14.0 15.0 -13.7 14.55 -14.2" fill="#ffffff" fill-rule="evenodd" stroke="none"/>
    <path d="M19.4 -13.9 L21.6 -15.0 25.0 -14.95 19.4 -13.9" fill="#ffffff" fill-rule="evenodd" stroke="none"/>
    <path d="M27.0 1.15 L25.95 3.25 22.4 3.35 22.05 6.0 21.15 6.0 21.6 7.5 19.8 8.75 21.0 7.2 20.35 5.55 21.6 5.45 22.05 2.85 25.6 2.85 27.0 1.15" fill="#ffffff" fill-rule="evenodd" stroke="none"/>
    <path d="M14.0 4.7 L15.6 3.9 15.85 4.6 14.0 4.7" fill="#ffffff" fill-rule="evenodd" stroke="none"/>
    <path d="M16.4 5.95 L19.45 5.7 19.8 6.55 16.4 6.35 15.7 4.6 15.75 4.4 16.4 5.95" fill="#ffffff" fill-rule="evenodd" stroke="none"/>
    <path d="M0.35 9.45 L2.2 13.0 0.05 10.35 0.35 9.45" fill="#ffffff" fill-rule="evenodd" stroke="none"/>
    <path d="M7.35 8.7 L9.55 9.4 10.0 12.15 9.3 9.7 7.35 8.7" fill="#ffffff" fill-rule="evenodd" stroke="none"/>
    <path d="M15.25 9.1 L18.25 9.7 19.45 11.0 15.25 9.1" fill="#ffffff" fill-rule="evenodd" stroke="none"/>
    <path d="M26.95 4.05 L29.35 5.8 27.0 4.9 22.5 6.2 26.95 4.05" fill="#ffffff" fill-rule="evenodd" stroke="none"/>
    <path d="M18.9 -2.15 L19.05 -1.15 18.8 -0.95 18.45 -2.05 18.9 -2.15" fill="#ffffff" fill-rule="evenodd" stroke="none"/>
    <path d="M23.85 -2.25 L26.65 2.35 25.9 4.7 23.25 9.15 16.2 8.4 16.2 8.45 16.15 8.4 16.0 8.4 15.95 8.3 15.8 8.2 15.85 8.0 14.2 4.8 13.9 1.8 17.55 -2.35 23.85 -2.25" fill="#af691c" fill-rule="evenodd" stroke="none"/>
    <path d="M26.55 2.05 L25.85 4.35 23.3 8.65 16.25 7.9 14.5 4.45 14.15 1.45 26.55 2.05" fill="#aebc2a" fill-rule="evenodd" stroke="none"/>
    <path d="M14.15 1.45 L17.7 -2.55 23.9 -2.4 26.55 2.05 23.5 7.25 16.2 6.55 14.15 1.45" fill="#cddd31" fill-rule="evenodd" stroke="none"/>
    <path d="M26.55 2.05 L14.15 1.45 17.7 -2.55 23.9 -2.4 26.55 2.05" fill="#efff92" fill-rule="evenodd" stroke="none"/>
    <path d="M18.65 -0.95 L22.75 -1.0 24.3 1.75 22.2 4.4 18.05 4.05 16.75 1.1 18.65 -0.95" fill="#dcf451" fill-rule="evenodd" stroke="none"/>
    <path d="M18.1 3.75 L16.95 6.4 23.5 7.3 16.05 6.85 18.1 3.75" fill="#ffffff" fill-rule="evenodd" stroke="none"/>
    <path d="M16.2 6.55 L16.65 6.65 16.4 7.95 16.05 7.75 16.2 6.55" fill="#ffffff" fill-rule="evenodd" stroke="none"/>
    <path d="M14.3 1.75 L17.1 0.95 14.95 2.0 16.2 6.55 14.3 1.75" fill="#ffffff" fill-rule="evenodd" stroke="none"/>
    <path d="M18.65 -0.95 L17.6 -2.0 15.15 0.4 17.7 -2.55 18.65 -0.95" fill="#ffffff" fill-rule="evenodd" stroke="none"/>
    <path d="M22.55 -1.05 L23.9 -2.4 22.85 -0.8 22.55 -1.05" fill="#ffffff" fill-rule="evenodd" stroke="none"/>
    <path d="M24.25 1.95 L26.55 2.05 23.8 2.35 24.25 1.95" fill="#ffffff" fill-rule="evenodd" stroke="none"/>
    <path d="M22.65 4.05 L23.5 7.25 22.0 4.2 22.65 4.05" fill="#ffffff" fill-rule="evenodd" stroke="none"/>
    <path d="M23.5 7.25 L23.3 8.65 22.95 7.25 23.5 7.25" fill="#ffffff" fill-rule="evenodd" stroke="none"/>
    <path d="M22.85 -0.8 L24.35 1.9 22.35 4.4 18.05 4.05 16.75 1.1 18.4 3.6 22.05 3.85 23.7 1.75 22.85 -0.8" fill="#ffffff" fill-rule="evenodd" stroke="none"/>
    <path d="M18.65 -0.95 L16.95 1.55 16.75 1.1 18.65 -0.95" fill="#ffffff" fill-rule="evenodd" stroke="none"/>
    <path d="M14.75 5.8 L15.45 6.95 13.45 7.5 11.9 6.85 11.7 6.45 13.4 6.65 14.75 5.8" fill="#af691c" fill-rule="evenodd" stroke="none"/>
    <path d="M11.7 6.45 L12.0 6.85 10.75 7.35 11.7 6.45" fill="#af691c" fill-rule="evenodd" stroke="none"/>
    <path d="M19.8 8.5 L20.6 8.55 20.0 10.6 19.8 8.5" fill="#af691c" fill-rule="evenodd" stroke="none"/>
    <path d="M27.9 -7.2 L27.0 -5.05 27.0 -4.95 26.9 -4.85 26.8 -4.8 22.25 -4.0 20.3 -6.75 19.75 -8.25 21.3 -11.35 25.35 -11.7 27.95 -9.2 27.9 -7.2" fill="#af691c" fill-rule="evenodd" stroke="none"/>
    <path d="M19.8 -8.5 L27.8 -9.4 27.75 -7.45 26.8 -5.15 22.25 -4.3 20.4 -7.0 19.8 -8.5" fill="#18a4c4" fill-rule="evenodd" stroke="none"/>
    <path d="M27.8 -9.4 L26.8 -6.0 22.05 -5.25 19.8 -8.5 21.3 -11.5 25.3 -11.85 27.8 -9.4" fill="#57c0dd" fill-rule="evenodd" stroke="none"/>
    <path d="M19.8 -8.5 L21.3 -11.5 25.3 -11.85 27.8 -9.4 19.8 -8.5" fill="#8cd9ea" fill-rule="evenodd" stroke="none"/>
    <path d="M24.8 -10.8 L26.1 -9.5 25.45 -7.6 22.7 -7.15 21.3 -8.75 22.15 -10.65 24.8 -10.8" fill="#caf1ff" fill-rule="evenodd" stroke="none"/>
    <path d="M25.35 -7.75 L26.8 -5.85 22.05 -5.2 26.25 -6.05 25.35 -7.75" fill="#ffffff" fill-rule="evenodd" stroke="none"/>
    <path d="M27.75 -9.2 L26.8 -6.0 27.3 -9.05 25.9 -9.6 27.75 -9.2" fill="#ffffff" fill-rule="evenodd" stroke="none"/>
    <path d="M24.8 -10.8 L25.3 -11.85 27.1 -10.1 25.4 -11.5 24.8 -10.8" fill="#ffffff" fill-rule="evenodd" stroke="none"/>
    <path d="M22.25 -10.65 L22.05 -10.5 21.3 -11.5 22.25 -10.65" fill="#ffffff" fill-rule="evenodd" stroke="none"/>
    <path d="M21.3 -8.65 L21.6 -8.45 19.8 -8.5 21.3 -8.65" fill="#ffffff" fill-rule="evenodd" stroke="none"/>
    <path d="M22.5 -7.35 L22.9 -7.25 22.05 -5.25 22.5 -7.35" fill="#ffffff" fill-rule="evenodd" stroke="none"/>
    <path d="M22.05 -5.25 L22.4 -5.3 22.25 -4.3 22.05 -5.25" fill="#ffffff" fill-rule="evenodd" stroke="none"/>
    <path d="M25.45 -7.6 L22.7 -7.15 21.25 -8.65 22.05 -10.5 21.65 -8.8 22.8 -7.5 25.2 -7.85 26.1 -9.5 25.45 -7.6" fill="#ffffff" fill-rule="evenodd" stroke="none"/>
    <path d="M24.8 -10.8 L26.1 -9.5 26.0 -9.2 24.8 -10.8" fill="#ffffff" fill-rule="evenodd" stroke="none"/>
    <path d="M4.4 2.55 L7.3 2.0 9.05 3.85 8.9 5.0 8.15 7.3 4.8 7.65 4.75 7.65 4.65 7.6 4.65 7.5 3.55 6.15 3.1 4.8 4.4 2.55" fill="#af691c" fill-rule="evenodd" stroke="none"/>
    <path d="M8.9 3.65 L8.8 4.75 8.05 7.0 4.75 7.35 3.55 5.9 3.15 4.55 8.9 3.65" fill="#f77fa4" fill-rule="evenodd" stroke="none"/>
    <path d="M3.15 4.55 L4.4 2.35 7.25 1.85 8.9 3.65 8.0 6.35 4.6 6.7 3.15 4.55" fill="#ffaec3" fill-rule="evenodd" stroke="none"/>
    <path d="M8.9 3.65 L3.15 4.55 4.4 2.35 7.25 1.85 8.9 3.65" fill="#ffccd9" fill-rule="evenodd" stroke="none"/>
    <path d="M4.95 3.0 L6.85 2.6 7.85 3.7 7.15 5.15 5.15 5.4 4.3 4.15 4.95 3.0" fill="#ffe6eb" fill-rule="evenodd" stroke="none"/>
    <path d="M5.2 5.25 L4.95 6.55 8.0 6.4 4.55 6.8 5.2 5.25" fill="#ffffff" fill-rule="evenodd" stroke="none"/>
    <path d="M4.6 6.7 L4.8 6.7 4.8 7.35 4.65 7.25 4.6 6.7" fill="#ffffff" fill-rule="evenodd" stroke="none"/>
    <path d="M3.25 4.7 L4.45 4.05 3.55 4.7 4.6 6.7 3.25 4.7" fill="#ffffff" fill-rule="evenodd" stroke="none"/>
    <path d="M6.75 2.6 L7.25 1.85 6.95 2.7 6.75 2.6" fill="#ffffff" fill-rule="evenodd" stroke="none"/>
    <path d="M7.8 3.8 L8.9 3.65 7.7 4.0 7.8 3.8" fill="#ffffff" fill-rule="evenodd" stroke="none"/>
    <path d="M7.3 4.95 L8.0 6.35 7.0 5.1 7.3 4.95" fill="#ffffff" fill-rule="evenodd" stroke="none"/>
    <path d="M8.0 6.35 L8.05 7.0 7.8 6.4 8.0 6.35" fill="#ffffff" fill-rule="evenodd" stroke="none"/>
    <path d="M6.95 2.7 L7.9 3.8 7.2 5.1 5.15 5.4 4.3 4.15 5.3 5.1 7.0 4.9 7.55 3.8 6.95 2.7" fill="#ffffff" fill-rule="evenodd" stroke="none"/>
    <path d="M4.95 3.0 L4.45 4.35 4.3 4.15 4.95 3.0" fill="#ffffff" fill-rule="evenodd" stroke="none"/>
    <path d="M4.7 -13.25 L5.9 -11.5" fill="none" stroke="#624729" stroke-linecap="round" stroke-linejoin="round" stroke-width="0.05"/>
    <path d="M4.9 -13.1 L11.75 -14.4 15.75 -10.0 15.5 -7.3 13.7 -1.9 5.85 -1.15 5.7 -1.15 5.5 -1.2 5.4 -1.4 2.9 -4.6 1.85 -7.8 4.9 -13.1" fill="#af691c" fill-rule="evenodd" stroke="none"/>
    <path d="M15.5 -10.5 L15.25 -7.9 13.45 -2.6 5.7 -1.8 2.9 -5.2 1.95 -8.4 15.5 -10.5" fill="#d271ab" fill-rule="evenodd" stroke="none"/>
    <path d="M1.95 -8.4 L4.9 -13.55 11.55 -14.75 15.5 -10.5 13.35 -4.15 5.35 -3.3 1.95 -8.4" fill="#f0a5d2" fill-rule="evenodd" stroke="none"/>
    <path d="M1.95 -8.4 L4.9 -13.55 11.55 -14.75 15.5 -10.5 1.95 -8.4" fill="#ffc4e7" fill-rule="evenodd" stroke="none"/>
    <path d="M6.2 -12.05 L10.7 -13.0 13.0 -10.3 11.4 -6.95 6.65 -6.4 4.6 -9.35 6.2 -12.05" fill="#fce3f2" fill-rule="evenodd" stroke="none"/>
    <path d="M6.75 -6.75 L6.15 -3.65 13.35 -4.1 5.25 -3.05 6.75 -6.75" fill="#ffffff" fill-rule="evenodd" stroke="none"/>
    <path d="M5.35 -3.3 L5.85 -3.3 5.85 -1.8 5.4 -2.0 5.35 -3.3" fill="#ffffff" fill-rule="evenodd" stroke="none"/>
    <path d="M2.2 -8.05 Q3.65 -8.75 4.95 -9.55 L2.9 -8.0 5.35 -3.3 2.2 -8.05" fill="#ffffff" fill-rule="evenodd" stroke="none"/>
    <path d="M10.4 -13.0 L11.55 -14.75 10.85 -12.75 10.4 -13.0" fill="#ffffff" fill-rule="evenodd" stroke="none"/>
    <path d="M12.9 -10.15 L15.5 -10.5 12.65 -9.65 12.9 -10.15" fill="#ffffff" fill-rule="evenodd" stroke="none"/>
    <path d="M11.75 -7.45 L13.35 -4.15 11.05 -7.1 11.75 -7.45" fill="#ffffff" fill-rule="evenodd" stroke="none"/>
    <path d="M13.35 -4.15 L13.45 -2.6 12.8 -4.1 13.35 -4.15" fill="#ffffff" fill-rule="evenodd" stroke="none"/>
    <path d="M10.85 -12.75 L13.1 -10.15 11.5 -7.05 6.65 -6.4 4.6 -9.35 7.0 -7.05 11.05 -7.55 12.3 -10.15 10.85 -12.75" fill="#ffffff" fill-rule="evenodd" stroke="none"/>
    <path d="M6.2 -12.05 L4.95 -8.85 4.6 -9.35 6.2 -12.05" fill="#ffffff" fill-rule="evenodd" stroke="none"/>
    <path d="M6.05 -11.95 L5.7 -11.6 4.5 -13.3 6.05 -11.95" fill="#ffffff" fill-rule="evenodd" stroke="none"/>
  </g>
  <defs>
    <radialGradient cx="0" cy="0" gradientTransform="matrix(1.0E-4, -0.0042, 0.0241, 1.0E-4, 14.6, 26.05)" gradientUnits="userSpaceOnUse" id="gradient0" r="819.2" spreadMethod="pad">
      <stop offset="0.19607843137254902" stop-color="#3a2e2e" stop-opacity="0.6784314"/>
      <stop offset="0.7176470588235294" stop-color="#3f2121" stop-opacity="0.29803923"/>
      <stop offset="0.8470588235294118" stop-color="#5f3e3e" stop-opacity="0.0"/>
    </radialGradient>
  </defs>
</svg>
