<?xml version="1.0" encoding="UTF-8" standalone="no"?>
<svg xmlns:xlink="http://www.w3.org/1999/xlink" height="46.45px" width="31.85px" xmlns="http://www.w3.org/2000/svg">
  <g transform="matrix(1.0, 0.0, 0.0, 1.0, 1.0, 16.0)">
    <path d="M12.1 -13.55 Q15.1 -14.75 17.75 -15.0 L19.65 -14.6 21.55 -13.75 24.85 -7.65 28.55 4.4 28.75 5.85 28.85 7.05 29.85 16.45 29.75 25.0 28.6 25.9 Q26.45 27.25 22.55 28.35 L17.85 29.45 17.8 29.45 Q9.2 28.65 4.95 26.8 L1.55 25.25 Q0.55 21.2 0.0 13.85 1.15 7.15 4.3 0.95 L5.25 -5.7 Q7.25 -10.2 12.1 -13.55" fill="#c98f42" fill-rule="evenodd" stroke="none"/>
    <path d="M12.1 -13.55 Q7.25 -10.2 5.25 -5.7 L4.3 0.95 Q1.15 7.15 0.0 13.85 0.55 21.2 1.55 25.25 L4.95 26.8 Q9.2 28.65 17.8 29.45 L17.85 29.45 22.55 28.35 Q26.45 27.25 28.6 25.9 L29.75 25.0 29.85 16.45 28.85 7.05 28.75 5.85 28.55 4.4 24.85 -7.65 21.55 -13.75 19.65 -14.6 17.75 -15.0 Q15.1 -14.75 12.1 -13.55 Z" fill="none" stroke="#4a4641" stroke-linecap="round" stroke-linejoin="round" stroke-width="2.0"/>
    <path d="M1.55 25.25 Q0.55 21.2 0.0 13.85 1.15 7.15 4.3 0.95 L5.25 -5.7 Q7.25 -10.2 12.1 -13.55 15.1 -14.75 17.75 -15.0 L19.65 -14.6 Q18.75 -11.65 18.8 -10.45 18.8 -9.25 11.55 -9.25 L8.4 -6.85 15.15 -4.4 18.5 -0.95 19.5 -0.65 15.8 0.5 17.4 2.25 17.85 8.05 19.25 8.85 18.05 9.6 8.25 21.6 6.25 24.8 1.55 25.25 M4.15 16.95 L4.65 16.5 1.6 14.25 0.75 14.9 4.15 16.95 M13.5 7.05 L9.8 5.8 Q10.0 6.35 9.25 12.65 L11.35 12.45 13.5 7.05 M16.15 17.05 L12.0 24.75 8.9 24.6 16.15 17.05" fill="#f2eee3" fill-rule="evenodd" stroke="none"/>
    <path d="M1.55 25.25 L6.25 24.8 8.25 21.6 18.05 9.6 19.25 8.85 17.85 8.05 17.4 2.25 15.8 0.5 19.5 -0.65 18.5 -0.95 15.15 -4.4 8.4 -6.85 11.55 -9.25 Q18.8 -9.25 18.8 -10.45 18.75 -11.65 19.65 -14.6 L21.55 -13.75 24.85 -7.65 26.5 6.9 24.65 12.0 21.8 14.05 24.9 13.0 22.25 21.25 19.0 26.0 13.9 27.5 4.35 26.5 4.95 26.8 1.55 25.25 M23.6 -7.0 L18.9 -3.25 24.3 -4.15 23.6 -7.0 M16.15 17.05 L8.9 24.6 12.0 24.75 16.15 17.05" fill="#bfbaaa" fill-rule="evenodd" stroke="none"/>
    <path d="M23.6 -7.0 L24.3 -4.15 18.9 -3.25 23.6 -7.0" fill="#cbc6b8" fill-rule="evenodd" stroke="none"/>
    <path d="M24.85 -7.65 L28.55 4.4 28.75 5.85 28.85 7.05 29.15 17.25 Q29.0 22.35 28.15 25.3 26.0 27.5 17.8 29.45 9.2 28.65 4.95 26.8 L4.35 26.5 13.9 27.5 19.0 26.0 22.25 21.25 24.9 13.0 21.8 14.05 24.65 12.0 26.5 6.9 24.85 -7.65" fill="#8c857a" fill-rule="evenodd" stroke="none"/>
    <path d="M28.85 7.05 L29.85 16.45 29.75 25.0 28.6 25.9 Q26.45 27.25 22.55 28.35 L17.85 29.45 17.8 29.45 Q26.0 27.5 28.15 25.3 29.0 22.35 29.15 17.25 L28.85 7.05" fill="#b4ada5" fill-rule="evenodd" stroke="none"/>
    <path d="M4.15 16.95 L0.75 14.9 1.6 14.25 4.65 16.5 4.15 16.95" fill="#c2bcac" fill-rule="evenodd" stroke="none"/>
    <path d="M13.5 7.05 L11.35 12.45 9.25 12.65 Q10.0 6.35 9.8 5.8 L13.5 7.05" fill="#d7d0c1" fill-rule="evenodd" stroke="none"/>
  </g>
</svg>
