<?xml version="1.0" encoding="UTF-8" standalone="no"?>
<svg xmlns:xlink="http://www.w3.org/1999/xlink" height="48.9px" width="33.9px" xmlns="http://www.w3.org/2000/svg">
  <g transform="matrix(1.0, 0.0, 0.0, 1.0, 2.15, 15.65)">
    <path d="M2.75 20.5 Q7.7 18.35 14.8 18.35 21.8 18.35 26.75 20.5 31.75 22.75 31.75 25.85 31.75 28.9 26.75 31.05 21.8 33.25 14.8 33.25 7.7 33.25 2.75 31.05 -2.15 28.9 -2.15 25.85 -2.15 22.75 2.75 20.5" fill="url(#gradient0)" fill-rule="evenodd" stroke="none"/>
    <path d="M16.05 -14.65 Q16.5 -14.65 16.9 -13.95 L17.25 -13.3 17.6 -12.6 17.9 -11.55 18.7 -8.3 18.75 -8.25 19.1 -6.65 19.85 -1.65 20.2 0.25 20.45 -1.4 21.4 -5.0 21.7 -5.95 22.0 -6.5 22.3 -7.1 Q22.65 -7.7 23.0 -7.7 23.3 -7.75 23.8 -6.5 L23.95 -6.05 25.2 -1.85 25.75 0.3 25.95 1.3 26.55 3.65 26.7 4.65 27.3 7.6 27.45 9.0 27.6 9.75 27.85 11.1 28.05 13.2 28.2 14.85 28.35 17.5 28.35 18.0 Q30.05 19.4 29.95 21.0 L29.8 23.95 Q29.85 25.05 29.0 25.75 L27.7 26.3 27.6 26.35 24.75 27.05 24.5 28.95 23.1 29.6 Q22.5 30.05 22.0 30.1 L21.9 30.25 17.6 30.2 17.4 29.9 17.35 29.9 Q16.45 29.7 16.25 29.4 L15.0 29.0 14.95 28.85 11.1 29.35 Q10.5 29.9 10.45 29.55 L10.4 29.6 7.4 29.65 7.4 29.6 5.0 28.25 1.6 26.8 0.55 26.15 0.0 25.6 0.05 24.3 0.25 22.1 0.8 19.85 0.9 19.6 0.8 19.55 0.75 19.55 1.2 18.7 Q1.7 17.6 2.4 16.75 2.05 16.95 1.75 17.25 1.55 17.45 1.55 16.85 1.55 15.9 1.9 14.05 L2.3 12.45 3.45 11.95 3.5 10.6 3.55 10.05 3.6 9.85 3.7 8.35 3.75 7.65 4.1 5.2 4.15 4.3 4.45 2.3 4.6 1.45 4.75 0.3 4.9 -0.35 5.6 -3.95 5.7 -4.35 Q6.0 -5.4 6.2 -5.4 L6.7 -4.9 7.0 -4.45 7.45 -3.2 8.0 -0.95 8.25 -0.25 8.35 0.25 9.0 3.75 9.15 4.6 9.35 5.75 9.6 7.65 9.8 8.0 Q9.95 8.3 10.0 8.05 L10.55 4.8 10.7 3.85 11.45 0.35 11.55 -0.3 11.7 -0.9 12.35 -3.7 12.65 -4.9 13.1 -6.6 13.2 -7.05 13.3 -7.5 14.9 -12.6 15.05 -13.15 Q15.7 -14.65 16.05 -14.65 M25.25 5.95 Q25.1 5.95 24.95 6.15 L25.45 6.05 25.25 5.95 M11.45 0.35 L11.5 0.45 11.5 0.35 11.45 0.35 M12.85 1.85 L13.45 1.95 Q13.3 1.8 13.1 1.8 L12.85 1.85 M5.1 6.2 L4.95 6.25 5.3 6.3 5.1 6.2" fill="#b69346" fill-rule="evenodd" stroke="none"/>
    <path d="M16.05 -14.65 Q16.5 -14.65 16.9 -13.95 L17.25 -13.3 17.6 -12.6 17.9 -11.55 18.7 -8.3 18.75 -8.25 19.1 -6.65 19.85 -1.65 20.2 0.25 20.45 -1.4 21.4 -5.0 21.7 -5.95 22.0 -6.5 22.3 -7.1 Q22.65 -7.7 23.0 -7.7 23.3 -7.75 23.8 -6.5 L23.95 -6.05 25.2 -1.85 25.75 0.3 25.95 1.3 26.55 3.65 26.7 4.65 27.3 7.6 27.45 9.0 27.6 9.75 27.85 11.1 28.05 13.2 28.2 14.85 28.35 17.5 28.35 18.0 Q30.05 19.4 29.95 21.0 L29.8 23.95 Q29.85 25.05 29.0 25.75 L27.7 26.3 27.6 26.35 24.75 27.05 24.5 28.95 23.1 29.6 Q22.5 30.05 22.0 30.1 L21.9 30.25 17.6 30.2 17.4 29.9 17.35 29.9 Q16.45 29.7 16.25 29.4 L15.0 29.0 14.95 28.85 11.1 29.35 Q10.5 29.9 10.45 29.55 L10.4 29.6 7.4 29.65 7.4 29.6 5.0 28.25 1.6 26.8 0.55 26.15 0.0 25.6 0.05 24.3 0.25 22.1 0.8 19.85 0.9 19.6 0.8 19.55 0.75 19.55 1.2 18.7 Q1.7 17.6 2.4 16.75 2.05 16.95 1.75 17.25 1.55 17.45 1.55 16.85 1.55 15.9 1.9 14.05 L2.3 12.45 3.45 11.95 3.5 10.6 3.55 10.05 3.6 9.85 3.7 8.35 3.75 7.65 4.1 5.2 4.15 4.3 4.45 2.3 4.6 1.45 4.75 0.3 4.9 -0.35 5.6 -3.95 5.7 -4.35 Q6.0 -5.4 6.2 -5.4 L6.7 -4.9 7.0 -4.45 7.45 -3.2 8.0 -0.95 8.25 -0.25 8.35 0.25 9.0 3.75 9.15 4.6 9.35 5.75 9.6 7.65 9.8 8.0 Q9.95 8.3 10.0 8.05 L10.55 4.8 10.7 3.85 11.45 0.35 11.55 -0.3 11.7 -0.9 12.35 -3.7 12.65 -4.9 13.1 -6.6 13.2 -7.05 13.3 -7.5 14.9 -12.6 15.05 -13.15 Q15.7 -14.65 16.05 -14.65 M11.45 0.35 L11.5 0.45 11.5 0.35 11.45 0.35" fill="none" stroke="#5b3518" stroke-linecap="round" stroke-linejoin="round" stroke-width="2.0"/>
    <path d="M25.25 5.95 L25.45 6.05 24.95 6.15 Q25.1 5.95 25.25 5.95 M12.85 1.85 L13.45 1.95 Q13.3 1.8 13.1 1.8 L12.85 1.85 M5.1 6.2 L4.95 6.25 5.3 6.3 5.1 6.2" fill="none" stroke="#9a653b" stroke-linecap="round" stroke-linejoin="round" stroke-width="0.5"/>
  </g>
  <defs>
    <radialGradient cx="0" cy="0" gradientTransform="matrix(1.0E-4, -0.0102, 0.0246, 2.0E-4, 14.8, 25.85)" gradientUnits="userSpaceOnUse" id="gradient0" r="819.2" spreadMethod="pad">
      <stop offset="0.19607843137254902" stop-color="#3a2e2e" stop-opacity="0.6784314"/>
      <stop offset="0.7176470588235294" stop-color="#3f2121" stop-opacity="0.29803923"/>
      <stop offset="0.8470588235294118" stop-color="#5f3e3e" stop-opacity="0.0"/>
    </radialGradient>
  </defs>
</svg>
