<?xml version="1.0" encoding="UTF-8" standalone="no"?>
<svg xmlns:xlink="http://www.w3.org/1999/xlink" height="33.65px" width="31.3px" xmlns="http://www.w3.org/2000/svg">
  <g transform="matrix(1.0, 0.0, 0.0, 1.0, 0.75, 0.6)">
    <path d="M14.9 21.2 Q21.3 21.2 25.85 22.95 30.5 24.7 30.5 27.15 30.5 29.6 25.85 31.3 21.3 33.05 14.9 33.05 8.35 33.05 3.8 31.3 -0.75 29.6 -0.75 27.15 -0.75 24.7 3.8 22.95 8.35 21.2 14.9 21.2" fill="url(#gradient0)" fill-rule="evenodd" stroke="none"/>
    <path d="M28.8 0.55 Q30.25 6.15 28.85 19.5 L28.8 19.55 28.9 19.6 28.4 25.2 Q27.8 28.45 26.7 29.15 L3.5 29.2 3.4 29.05 Q2.5 27.65 2.05 25.65 L1.55 21.2 1.3 19.5 1.3 19.4 Q-0.4 5.5 1.55 0.4 L28.8 0.4 28.8 0.55" fill="#d2cab3" fill-rule="evenodd" stroke="none"/>
    <path d="M28.8 0.55 Q30.25 6.15 28.85 19.5 L28.8 19.55 28.9 19.6 28.4 25.2 Q27.8 28.45 26.7 29.15 L3.5 29.2 3.4 29.05 Q2.5 27.65 2.05 25.65 L1.55 21.2 1.3 19.5 1.3 19.4 Q-0.4 5.5 1.55 0.4 L28.8 0.4 28.8 0.55 Z" fill="none" stroke="#351913" stroke-linecap="round" stroke-linejoin="round" stroke-width="2.0"/>
    <path d="M28.35 0.4 L28.55 0.4 28.65 0.45 Q30.25 6.15 28.85 19.6 L28.8 19.6 28.8 19.55 28.75 19.55 Q29.8 10.15 28.35 0.4 M6.55 0.4 L7.1 0.4 Q5.95 9.5 7.1 19.4 L7.1 19.5 6.55 19.5 6.55 19.4 Q5.35 9.5 6.55 0.4 M15.85 0.4 L16.35 0.4 17.0 5.0 21.1 9.05 21.05 9.1 16.6 5.35 15.85 0.4 M17.3 19.55 L16.7 19.55 16.55 15.85 16.45 13.0 16.75 12.8 17.3 19.5 17.3 19.55" fill="#ffc75d" fill-rule="evenodd" stroke="none"/>
    <path d="M1.3 19.4 Q-0.4 5.5 1.55 0.4 L6.55 0.4 Q5.35 9.5 6.55 19.4 L1.3 19.4 M23.95 0.4 L28.35 0.4 Q29.8 10.15 28.75 19.55 L23.3 19.55 23.35 19.5 24.0 19.5 Q25.45 10.25 23.95 0.4 M5.55 2.9 Q5.45 1.1 4.0 0.95 2.5 0.85 1.8 3.25 1.05 5.6 1.1 8.75 1.1 11.85 1.8 13.3 2.4 14.7 3.6 14.6 4.85 14.45 5.2 12.1 5.6 9.75 5.65 7.15 L5.55 2.9" fill="#f0a127" fill-rule="evenodd" stroke="none"/>
    <path d="M23.3 0.4 L23.95 0.4 Q25.45 10.25 24.0 19.5 L23.35 19.5 Q24.8 10.25 23.3 0.4" fill="#ad6917" fill-rule="evenodd" stroke="none"/>
    <path d="M7.1 0.4 L14.0 0.4 13.25 5.1 9.25 9.05 14.2 12.65 14.15 16.35 14.1 19.55 10.4 19.55 7.1 19.55 7.1 19.5 7.1 19.4 Q5.95 9.5 7.1 0.4 M16.35 0.4 L23.3 0.4 Q24.8 10.25 23.35 19.5 L23.3 19.55 20.85 19.55 17.3 19.55 17.3 19.5 16.75 12.8 16.75 12.75 16.85 12.7 21.05 9.1 21.1 9.05 17.0 5.0 16.35 0.4" fill="#622a0f" fill-rule="evenodd" stroke="none"/>
    <path d="M10.0 20.85 L12.0 20.85 20.3 20.8 21.0 20.8 26.05 20.8 27.8 20.75 27.7 22.45 Q26.7 22.45 26.4 23.35 L25.75 25.15 Q25.2 26.0 24.0 25.85 L22.85 26.25 22.25 27.0 22.3 27.3 18.7 27.3 12.4 27.25 9.9 27.25 9.1 27.25 8.9 27.25 8.4 27.25 8.3 26.75 8.0 26.25 7.3 25.6 6.15 25.45 5.65 25.3 Q4.9 24.95 4.6 23.85 4.3 22.4 3.25 22.4 3.0 22.4 2.75 22.55 L2.65 21.85 2.6 20.9 10.0 20.85" fill="#461c09" fill-rule="evenodd" stroke="none"/>
    <path d="M21.0 20.8 L20.3 20.8 12.0 20.85 10.0 20.85 Q10.05 20.2 10.4 19.55 L14.1 19.55 14.15 16.35 16.55 15.85 16.7 19.55 17.3 19.55 20.85 19.55 21.0 20.8" fill="#b16f20" fill-rule="evenodd" stroke="none"/>
    <path d="M28.85 19.6 L28.4 25.2 Q27.8 28.45 26.7 29.15 L20.65 29.2 22.15 27.35 22.4 27.3 Q22.5 26.95 23.05 26.7 23.7 26.25 24.2 26.25 25.4 26.4 25.9 25.55 L26.55 23.75 Q26.85 22.95 27.65 22.85 L27.7 22.5 27.7 22.45 27.8 20.75 26.05 20.8 21.0 20.8 20.85 19.55 23.3 19.55 28.75 19.55 28.8 19.55 28.8 19.6 28.85 19.6 M15.9 29.2 L8.45 29.2 9.9 27.25 12.4 27.25 18.7 27.3 15.9 29.2 M4.6 29.2 L3.5 29.2 3.4 29.05 Q2.5 27.65 2.05 25.65 L1.55 21.2 1.3 19.5 1.3 19.4 6.55 19.4 6.55 19.5 7.1 19.5 7.1 19.55 10.4 19.55 Q10.05 20.2 10.0 20.85 L2.6 20.9 2.65 21.85 2.75 22.55 2.75 22.8 3.0 22.75 Q4.0 22.75 4.4 24.2 4.5 24.9 4.95 25.3 5.3 25.7 5.9 25.75 L6.9 25.95 6.9 25.9 6.95 25.95 7.0 25.95 7.8 26.55 8.0 26.9 8.0 26.95 4.6 29.2 M3.3 23.7 Q3.15 23.2 2.65 23.25 2.3 23.4 2.25 24.2 2.2 24.9 2.45 25.85 L3.0 27.2 Q3.3 27.6 3.65 27.45 4.0 27.35 3.95 26.6 L3.7 25.0 3.3 23.7" fill="#c67817" fill-rule="evenodd" stroke="none"/>
    <path d="M2.75 22.55 Q3.0 22.4 3.25 22.4 4.3 22.4 4.6 23.85 4.9 24.95 5.65 25.3 L6.15 25.45 7.3 25.6 8.0 26.25 8.3 26.75 8.4 27.25 8.35 27.25 8.05 27.25 8.0 27.0 8.0 26.95 8.0 26.9 7.8 26.55 7.0 25.95 6.95 25.95 6.9 25.9 6.9 25.95 5.9 25.75 Q5.3 25.7 4.95 25.3 4.5 24.9 4.4 24.2 4.0 22.75 3.0 22.75 L2.75 22.8 2.75 22.55 M22.3 27.3 L22.25 27.0 22.85 26.25 24.0 25.85 Q25.2 26.0 25.75 25.15 L26.4 23.35 Q26.7 22.45 27.7 22.45 L27.7 22.5 27.65 22.85 Q26.85 22.95 26.55 23.75 L25.9 25.55 Q25.4 26.4 24.2 26.25 23.7 26.25 23.05 26.7 22.5 26.95 22.4 27.3 L22.3 27.3" fill="#ffb33f" fill-rule="evenodd" stroke="none"/>
    <path d="M14.0 0.4 L15.85 0.4 16.6 5.35 21.05 9.1 16.85 12.7 16.75 12.75 16.75 12.8 16.45 13.0 16.55 15.85 14.15 16.35 14.2 12.65 9.25 9.05 13.25 5.1 14.0 0.4" fill="#fa9924" fill-rule="evenodd" stroke="none"/>
    <path d="M5.55 2.9 L5.65 7.15 Q5.6 9.75 5.2 12.1 4.85 14.45 3.6 14.6 2.4 14.7 1.8 13.3 1.1 11.85 1.1 8.75 1.05 5.6 1.8 3.25 2.5 0.85 4.0 0.95 5.45 1.1 5.55 2.9" fill="#f0c75f" fill-rule="evenodd" stroke="none"/>
    <path d="M3.3 23.7 L3.7 25.0 3.95 26.6 Q4.0 27.35 3.65 27.45 3.3 27.6 3.0 27.2 L2.45 25.85 Q2.2 24.9 2.25 24.2 2.3 23.4 2.65 23.25 3.15 23.2 3.3 23.7" fill="#f0a32c" fill-rule="evenodd" stroke="none"/>
    <path d="M20.65 29.2 L15.9 29.2 18.7 27.3 22.3 27.3 22.4 27.3 22.15 27.35 20.65 29.2 M8.45 29.2 L4.6 29.2 8.0 26.95 8.0 27.0 8.05 27.25 8.35 27.25 8.4 27.25 8.9 27.25 9.1 27.25 9.9 27.25 8.45 29.2" fill="#e29d34" fill-rule="evenodd" stroke="none"/>
    <path d="M26.35 1.3 Q27.65 1.15 28.25 3.55 28.9 5.9 28.85 9.05 28.8 12.2 28.25 13.65 27.8 15.05 26.65 14.9 25.6 14.75 25.25 12.4 24.95 10.05 24.95 7.5 L25.0 3.2 Q25.1 1.45 26.35 1.3" fill="#f0c75f" fill-rule="evenodd" stroke="none"/>
    <path d="M27.55 5.15 Q27.3 5.6 26.85 5.6 L26.05 5.15 Q25.8 4.75 25.8 4.15 25.8 3.6 26.05 3.15 L26.85 2.7 Q27.3 2.7 27.55 3.15 27.9 3.6 27.9 4.15 27.9 4.75 27.55 5.15" fill="#fce292" fill-rule="evenodd" stroke="none"/>
    <path d="M25.25 2.3 Q28.05 3.6 28.05 7.25 L27.9 9.9 Q27.5 11.35 25.85 12.1 24.25 12.9 20.95 13.15 L15.3 13.3 Q7.65 13.3 4.8 11.9 3.15 11.15 2.75 9.8 2.6 9.25 2.6 7.25 L2.8 4.65 Q3.25 3.25 4.9 2.45 7.55 1.2 15.3 1.2 L20.65 1.3 Q23.6 1.5 25.25 2.3" fill="#ff9c4f" fill-opacity="0.08627451" fill-rule="evenodd" stroke="none"/>
    <path d="M24.75 4.55 L26.15 4.15 28.5 3.3 28.85 8.95 28.85 9.85 Q27.7 8.65 24.1 7.3 20.1 5.85 17.25 5.85 L8.2 6.4 Q3.0 7.2 1.8 9.5 L1.4 3.15 5.35 4.85 9.05 4.95 15.95 4.6 20.45 4.65 24.75 4.55" fill="#ffbb3a" fill-opacity="0.12156863" fill-rule="evenodd" stroke="none"/>
    <path d="M13.1 6.05 L13.4 5.75 16.95 5.75 19.05 8.25 17.75 11.35 13.4 11.65 11.6 8.65 11.8 8.45 11.7 8.35 11.8 8.35 13.1 6.15 13.1 6.05" fill="#622a0f" fill-rule="evenodd" stroke="none"/>
    <path d="M18.8 23.15 L18.65 23.55 Q15.8 24.25 12.7 23.55 L12.5 22.9 12.55 22.5 Q14.65 22.45 16.45 21.4 L18.1 20.15 Q18.7 21.25 18.8 23.15" fill="#b47121" fill-rule="evenodd" stroke="none"/>
    <path d="M12.5 22.9 L12.5 22.5 Q12.45 21.75 12.7 20.55 13.75 17.75 15.85 18.1 17.4 18.3 18.25 19.9 L18.7 20.85 18.8 23.15 Q18.7 21.25 18.1 20.15 17.3 18.85 15.8 18.7 13.2 18.35 12.55 22.5 L12.5 22.9" fill="#ffc75d" fill-rule="evenodd" stroke="none"/>
    <path d="M18.1 20.15 L16.45 21.4 Q14.65 22.45 12.55 22.5 13.2 18.35 15.8 18.7 17.3 18.85 18.1 20.15" fill="#fa9924" fill-rule="evenodd" stroke="none"/>
    <path d="M4.65 4.35 L3.95 4.8 Q3.5 4.8 3.15 4.35 2.9 3.95 2.9 3.35 2.9 2.8 3.15 2.35 3.5 1.9 3.95 1.9 L4.65 2.35 Q5.0 2.8 5.0 3.35 5.0 3.95 4.65 4.35" fill="#fce292" fill-rule="evenodd" stroke="none"/>
    <path d="M13.45 6.45 L13.4 7.5 12.45 8.3 13.4 7.7 13.25 8.4 12.3 8.5 12.25 8.5 12.4 8.4 12.4 8.35 12.4 8.3 13.45 6.45 13.45 6.4 13.65 6.15 14.15 6.95 13.4 8.35 13.3 8.35 13.5 7.15 13.45 6.45" fill="#e7f9ff" fill-rule="evenodd" stroke="none"/>
    <path d="M12.3 8.5 L13.25 8.4 13.4 7.7 12.45 8.3 13.4 7.5 13.45 6.45 13.5 7.15 13.3 8.35 13.4 8.35 14.15 6.95 13.65 8.25 13.7 8.25 14.1 8.9 14.35 9.4 14.4 9.35 16.3 9.2 16.9 8.45 16.4 7.3 16.2 6.95 17.0 8.25 17.0 8.3 16.95 8.35 16.5 9.4 17.3 10.75 15.55 10.85 13.85 10.95 14.85 10.7 16.9 10.6 16.45 9.45 14.75 9.55 14.5 9.6 13.75 10.85 14.2 9.4 13.5 8.5 12.3 8.5 M16.7 6.15 L17.9 7.65 16.75 6.45 16.2 6.95 14.15 6.95 13.65 6.15 14.3 6.9 16.3 6.75 16.7 6.15 M18.35 8.25 L17.3 10.75 17.95 8.5 17.05 8.3 18.35 8.25 M13.7 11.0 L13.7 10.95 13.75 10.95 13.7 11.0" fill="#ffffff" fill-rule="evenodd" stroke="none"/>
    <path d="M16.2 6.95 L16.4 7.3 14.1 8.9 13.7 8.25 13.65 8.25 14.15 6.95 16.2 6.95" fill="#6fb0c6" fill-rule="evenodd" stroke="none"/>
    <path d="M12.4 8.35 L12.4 8.4 12.35 8.35 12.4 8.35 M18.35 8.2 L18.4 8.2 18.35 8.25 18.35 8.2" fill="#18a4c4" fill-rule="evenodd" stroke="none"/>
    <path d="M12.25 8.5 L12.3 8.5 13.5 8.5 14.2 9.4 13.75 10.85 13.75 10.95 13.7 10.95 12.25 8.5" fill="#57c0dd" fill-rule="evenodd" stroke="none"/>
    <path d="M16.4 7.3 L16.9 8.45 16.3 9.2 14.4 9.35 14.35 9.4 14.1 8.9 16.4 7.3" fill="#96ccde" fill-rule="evenodd" stroke="none"/>
    <path d="M13.75 10.85 L14.5 9.6 14.75 9.55 16.45 9.45 16.9 10.6 14.85 10.7 13.85 10.95 13.75 10.95 13.75 10.85" fill="#3c95ad" fill-rule="evenodd" stroke="none"/>
    <path d="M13.85 10.95 L15.55 10.85 13.7 11.0 13.75 10.95 13.85 10.95 M17.3 10.75 L16.5 9.4 16.95 8.35 17.05 8.3 17.95 8.5 17.3 10.75" fill="#328095" fill-rule="evenodd" stroke="none"/>
    <path d="M17.0 8.3 L17.0 8.25 16.2 6.95 16.75 6.45 17.9 7.65 18.35 8.2 18.35 8.25 17.05 8.3 17.0 8.3" fill="#60a8b8" fill-rule="evenodd" stroke="none"/>
    <path d="M16.95 8.35 L17.0 8.3 17.05 8.3 16.95 8.35 M13.65 6.15 L16.7 6.15 16.3 6.75 14.3 6.9 13.65 6.15" fill="#8cd9ea" fill-rule="evenodd" stroke="none"/>
    <path d="M15.55 20.0 L15.75 20.9 15.9 21.8 15.75 22.6 15.6 23.15 15.6 23.35 15.45 22.9 Q15.25 22.45 15.2 21.85 L15.3 20.95 15.55 20.0" fill="#461c09" fill-rule="evenodd" stroke="none"/>
    <path d="M25.7 28.8 L25.25 28.7 24.95 28.5 24.95 28.4 Q24.95 28.0 25.35 27.55 L26.2 26.75 27.55 24.6 Q27.75 24.8 27.75 25.35 L27.1 27.3 26.1 28.65 25.7 28.8" fill="#ee9a1a" fill-rule="evenodd" stroke="none"/>
    <path d="M26.45 28.15 L26.25 28.2 26.1 28.0 26.2 27.75 26.35 27.55 26.6 27.6 26.7 27.7 26.65 28.0 26.45 28.15" fill="#f3c85d" fill-rule="evenodd" stroke="none"/>
  </g>
  <defs>
    <radialGradient cx="0" cy="0" gradientTransform="matrix(1.0E-4, -0.0081, 0.0227, 2.0E-4, 14.9, 27.15)" gradientUnits="userSpaceOnUse" id="gradient0" r="819.2" spreadMethod="pad">
      <stop offset="0.19607843137254902" stop-color="#000000" stop-opacity="0.6784314"/>
      <stop offset="0.7058823529411765" stop-color="#000000" stop-opacity="0.29803923"/>
      <stop offset="0.8470588235294118" stop-color="#000000" stop-opacity="0.0"/>
    </radialGradient>
  </defs>
</svg>
