<?xml version="1.0" encoding="UTF-8" standalone="no"?>
<svg xmlns:xlink="http://www.w3.org/1999/xlink" height="34.85px" width="24.9px" xmlns="http://www.w3.org/2000/svg">
  <g transform="matrix(1.0, 0.0, 0.0, 1.0, -0.85, -1.55)">
    <path d="M13.4 19.85 Q18.5 19.85 22.1 22.25 25.75 24.7 25.75 28.15 25.75 31.55 22.1 33.95 18.5 36.4 13.4 36.4 8.2 36.4 4.6 33.95 0.95 31.55 0.95 28.15 0.95 24.7 4.6 22.25 8.2 19.85 13.4 19.85" fill="url(#gradient0)" fill-rule="evenodd" stroke="none"/>
    <path d="M24.1 14.15 Q24.85 17.55 24.45 20.3 L24.3 21.2 23.9 22.5 22.95 24.7 Q21.8 26.85 20.2 28.05 L19.75 28.4 19.25 28.7 18.95 28.85 18.15 29.25 15.25 29.9 13.05 29.95 12.8 29.9 12.4 29.9 10.35 29.55 10.05 29.5 9.65 29.35 Q6.35 28.2 4.3 25.25 L4.2 25.1 3.55 24.05 3.5 23.95 3.45 23.85 Q1.75 20.9 1.85 17.7 L1.85 17.3 Q2.1 13.4 4.2 9.2 6.6 4.5 9.75 3.25 12.85 2.0 15.75 2.95 18.1 3.7 19.9 5.7 22.95 9.1 24.1 14.15" fill="#f4e9d6" fill-rule="evenodd" stroke="none"/>
    <path d="M24.1 14.15 Q22.95 9.1 19.9 5.7 18.1 3.7 15.75 2.95 12.85 2.0 9.75 3.25 6.6 4.5 4.2 9.2 2.1 13.4 1.85 17.3 L1.85 17.7 Q1.75 20.9 3.45 23.85 L3.5 23.95 3.55 24.05 4.2 25.1 4.3 25.25 Q6.35 28.2 9.65 29.35 L10.05 29.5 10.35 29.55 12.4 29.9 12.8 29.9 13.05 29.95 15.25 29.9 18.15 29.25 18.95 28.85 19.25 28.7 19.75 28.4 20.2 28.05 Q21.8 26.85 22.95 24.7 L23.9 22.5 24.3 21.2 24.45 20.3 Q24.85 17.55 24.1 14.15 Z" fill="none" stroke="#5b1b4f" stroke-linecap="round" stroke-linejoin="round" stroke-width="2.0"/>
    <path d="M9.7 3.45 Q12.75 2.25 15.65 3.15 18.05 3.95 19.85 5.95 22.9 9.35 24.05 14.35 25.15 19.2 23.8 22.75 22.4 26.55 20.15 28.3 17.5 30.35 13.0 30.2 7.55 30.0 4.3 25.5 1.55 21.7 1.8 17.55 2.05 13.6 4.15 9.45 6.55 4.75 9.7 3.45" fill="#ff0000" fill-rule="evenodd" stroke="none"/>
    <path d="M21.2 12.4 Q21.9 16.1 20.75 19.45 19.8 23.0 16.75 25.65 13.85 28.15 9.65 29.35 5.85 28.0 3.7 24.25 L3.55 24.05 Q2.55 22.2 2.1 20.4 L3.45 19.95 Q4.75 19.45 4.45 18.2 L3.8 16.0 2.65 13.1 Q3.2 11.2 4.2 9.2 6.6 4.5 9.75 3.25 12.85 2.0 15.75 2.95 18.1 3.7 19.9 5.7 22.95 9.1 24.1 14.15 25.2 19.0 23.9 22.5 L22.45 25.4 Q24.55 19.95 23.45 14.65 22.25 8.95 17.65 6.5 20.45 8.25 21.2 12.4" fill="#f4e9d6" fill-rule="evenodd" stroke="none"/>
    <path d="M15.2 21.9 Q15.45 22.8 14.95 23.6 14.55 24.4 13.6 24.6 12.75 24.8 11.95 24.3 11.15 23.8 10.9 22.9 10.65 22.05 11.15 21.25 11.6 20.45 12.5 20.25 13.35 20.0 14.15 20.5 14.95 21.0 15.2 21.9" fill="#bf72ae" fill-rule="evenodd" stroke="none"/>
    <path d="M4.95 20.6 Q9.4 24.75 15.2 22.15 21.0 19.55 22.05 13.25 23.0 16.6 19.15 23.25 15.45 29.85 13.0 29.75 7.55 29.6 4.3 25.1 1.55 21.25 1.8 17.1 2.0 14.45 3.15 11.3 4.5 7.9 6.35 5.65 3.45 10.25 2.95 13.15 2.2 17.05 4.95 20.6" fill="#bbb29f" fill-rule="evenodd" stroke="none"/>
    <path d="M15.55 11.65 Q15.55 13.55 14.2 14.95 12.95 16.3 11.05 16.3 9.2 16.3 7.95 14.95 6.6 13.55 6.6 11.65 6.6 9.8 7.95 8.4 9.2 7.1 11.05 7.1 12.9 7.1 14.2 8.4 15.55 9.75 15.55 11.65" fill="#ffffff" fill-rule="evenodd" stroke="none"/>
    <path d="M23.35 14.45 Q24.5 19.75 22.4 25.25 21.0 27.55 18.9 28.65 16.55 29.9 13.0 29.75 11.25 29.75 9.55 29.15 13.8 27.95 16.7 25.45 19.75 22.85 20.7 19.25 21.85 15.9 21.15 12.2 20.4 8.05 17.6 6.3 22.2 8.75 23.35 14.45" fill="#ada388" fill-rule="evenodd" stroke="none"/>
    <path d="M10.8 13.1 L10.6 12.9 12.8 12.3 15.15 12.25 Q16.15 12.4 17.55 13.1 19.2 14.0 19.0 14.8 18.75 15.85 15.0 14.45 11.6 13.25 10.55 13.35 L11.15 13.15 10.8 13.1" fill="#b6ccc8" fill-rule="evenodd" stroke="none"/>
    <path d="M19.05 28.05 Q17.75 28.8 16.15 29.05 L12.8 28.9 Q11.0 28.45 7.85 26.9 14.25 29.9 19.5 26.4 24.75 22.95 24.45 17.05 24.65 20.0 23.5 23.1 22.35 26.2 19.05 28.05" fill="#a9a2a6" fill-rule="evenodd" stroke="none"/>
    <path d="M17.4 15.5 Q15.15 14.65 13.05 12.45 L16.95 12.6 Q19.0 12.65 19.95 11.25 L21.65 13.35 23.2 15.55 22.8 15.35 17.4 15.5" fill="#cfd4cf" fill-rule="evenodd" stroke="none"/>
    <path d="M16.05 6.5 L13.8 6.4 11.55 6.55 9.75 6.5 8.75 6.35 9.15 6.35 Q9.2 5.05 10.15 4.85 L11.9 5.05 14.05 5.4 16.15 5.85 16.05 6.5" fill="#a2a9a2" fill-rule="evenodd" stroke="none"/>
    <path d="M11.75 7.1 L11.35 6.65 10.1 5.2 10.6 5.05 12.2 5.45 13.05 5.8 13.85 6.15 Q13.6 6.8 12.65 7.15 L11.75 7.1" fill="#bf72ae" fill-rule="evenodd" stroke="none"/>
    <path d="M5.55 6.7 Q7.45 3.95 9.7 3.0 L11.55 2.5 Q9.6 8.1 5.55 6.7" fill="#d2629a" fill-rule="evenodd" stroke="none"/>
    <path d="M22.25 9.55 Q23.8 12.45 24.35 16.0 L21.65 15.35 Q20.25 14.9 19.45 14.15 18.4 12.65 19.35 11.15 20.35 9.6 22.25 9.55" fill="#cd5490" fill-rule="evenodd" stroke="none"/>
    <path d="M19.05 18.35 Q19.55 18.05 20.45 18.05 L21.8 18.35 Q22.4 18.9 22.55 20.05 22.75 21.25 22.1 21.5 L21.3 21.45 20.5 21.1 Q19.6 20.7 18.95 19.9 18.2 18.9 19.05 18.35" fill="#bd427e" fill-rule="evenodd" stroke="none"/>
    <path d="M11.75 11.55 Q11.75 12.95 10.55 13.7 L9.35 14.0 8.85 13.85 8.8 13.75 8.7 13.1 8.65 12.25 8.85 11.85 9.1 11.55 Q9.8 10.8 10.5 10.7 11.3 10.7 11.75 11.55" fill="#d95d8c" fill-rule="evenodd" stroke="none"/>
    <path d="M8.25 16.2 Q8.25 16.9 7.7 16.9 7.15 16.9 7.15 16.2 7.15 15.5 7.7 15.5 8.25 15.5 8.25 16.2" fill="#cb4c7c" fill-rule="evenodd" stroke="none"/>
    <path d="M19.45 27.75 Q17.15 30.15 12.35 30.15 10.75 30.2 9.0 29.1 L6.35 26.8 Q8.25 27.85 10.25 28.2 L12.95 28.7 Q15.6 29.1 19.45 27.75" fill="#8e8864" fill-rule="evenodd" stroke="none"/>
    <path d="M5.95 20.7 Q6.6 18.25 8.85 17.2 L9.35 16.95 Q10.1 16.8 9.9 18.75 9.65 21.3 10.4 22.4 11.9 24.6 15.45 24.6 17.15 24.6 17.75 24.0 18.0 23.8 18.15 24.0 L18.2 24.05 Q18.45 25.1 18.3 25.65 17.95 26.95 15.9 27.8 13.3 28.8 10.5 28.2 7.45 27.5 6.35 25.25 5.3 23.0 5.95 20.7" fill="#b42f7f" fill-rule="evenodd" stroke="none"/>
    <path d="M1.85 17.3 L2.25 14.75 2.65 13.1 Q4.2 14.9 4.4 15.85 L4.65 18.15 Q4.75 19.45 3.45 19.95 L2.1 20.4 Q1.75 18.85 1.85 17.3" fill="#cb5590" fill-rule="evenodd" stroke="none"/>
  </g>
  <defs>
    <radialGradient cx="0" cy="0" gradientTransform="matrix(1.0E-4, -0.0113, 0.018, 2.0E-4, 13.4, 28.15)" gradientUnits="userSpaceOnUse" id="gradient0" r="819.2" spreadMethod="pad">
      <stop offset="0.19607843137254902" stop-color="#000000" stop-opacity="0.6784314"/>
      <stop offset="0.7058823529411765" stop-color="#000000" stop-opacity="0.29803923"/>
      <stop offset="0.8470588235294118" stop-color="#000000" stop-opacity="0.0"/>
    </radialGradient>
  </defs>
</svg>
