<?xml version="1.0" encoding="UTF-8" standalone="no"?>
<svg xmlns:xlink="http://www.w3.org/1999/xlink" height="34.75px" width="33.75px" xmlns="http://www.w3.org/2000/svg">
  <g transform="matrix(1.0, 0.0, 0.0, 1.0, 2.3, 0.95)">
    <path d="M14.6 16.85 Q21.55 16.85 26.45 19.3 31.45 21.8 31.45 25.35 31.45 28.8 26.45 31.3 21.55 33.8 14.6 33.8 7.55 33.8 2.65 31.3 -2.3 28.8 -2.3 25.35 -2.3 21.8 2.65 19.3 7.55 16.85 14.6 16.85" fill="url(#gradient0)" fill-rule="evenodd" stroke="none"/>
    <path d="M28.1 6.25 Q30.4 10.0 29.8 12.6 L29.3 13.9 28.6 15.95 Q28.1 17.2 28.15 18.4 28.25 19.55 27.95 21.3 27.65 23.1 25.55 23.7 23.35 24.3 20.15 23.75 L14.5 23.5 Q11.95 23.9 9.5 24.8 7.0 25.7 5.55 25.7 4.1 25.75 2.8 24.9 L2.6 26.1 Q2.45 27.15 1.85 26.35 L1.7 26.25 Q-1.15 22.45 0.8 17.25 0.7 16.55 1.1 15.65 1.3 15.0 1.65 14.3 L1.75 14.2 1.8 14.1 Q2.0 13.8 1.8 13.15 L1.8 12.6 1.4 11.05 Q1.35 10.75 1.45 10.7 L1.8 10.8 2.7 11.25 2.95 11.2 Q3.25 11.4 3.35 11.0 L3.3 10.4 3.25 9.9 Q2.9 6.65 3.6 3.7 3.9 2.75 4.3 3.35 L4.3 3.4 4.35 3.4 5.4 6.35 6.65 9.25 7.4 8.5 Q7.55 8.05 8.05 8.2 9.0 8.4 10.05 6.75 L10.1 6.7 10.05 6.65 10.05 6.6 Q9.5 4.15 9.8 2.4 L9.8 2.35 Q10.0 1.15 10.45 2.5 L10.45 2.55 10.45 2.65 Q10.85 3.9 11.8 5.3 L11.9 5.45 11.85 5.35 Q13.8 1.35 16.85 0.4 L17.2 0.35 17.35 0.3 17.45 0.3 Q20.4 -0.3 22.75 0.65 23.9 1.15 25.0 2.05 26.75 3.55 28.1 6.25 M9.75 10.2 L9.75 10.35 9.8 10.35 9.75 10.2 M11.05 12.9 L11.1 12.8 11.05 12.8 11.05 12.9" fill="#330000" fill-rule="evenodd" stroke="none"/>
    <path d="M28.1 6.25 Q30.4 10.0 29.8 12.6 L29.3 13.9 28.6 15.95 Q28.1 17.2 28.15 18.4 28.25 19.55 27.95 21.3 27.65 23.1 25.55 23.7 23.35 24.3 20.15 23.75 L14.5 23.5 Q11.95 23.9 9.5 24.8 7.0 25.7 5.55 25.7 4.1 25.75 2.8 24.9 L2.6 26.1 Q2.45 27.15 1.85 26.35 L1.7 26.25 Q-1.15 22.45 0.8 17.25 0.7 16.55 1.1 15.65 1.3 15.0 1.65 14.3 L1.75 14.2 1.8 14.1 Q2.0 13.8 1.8 13.15 L1.8 12.6 1.4 11.05 Q1.35 10.75 1.45 10.7 L1.8 10.8 2.7 11.25 2.95 11.2 Q3.25 11.4 3.35 11.0 L3.3 10.4 3.25 9.9 Q2.9 6.65 3.6 3.7 3.9 2.75 4.3 3.35 L4.3 3.4 4.35 3.4 5.4 6.35 6.65 9.25 7.4 8.5 Q7.55 8.05 8.05 8.2 9.0 8.4 10.05 6.75 L10.1 6.7 10.05 6.65 10.05 6.6 Q9.5 4.15 9.8 2.4 L9.8 2.35 Q10.0 1.15 10.45 2.5 L10.45 2.55 10.45 2.65 Q10.85 3.9 11.8 5.3 L11.9 5.45 11.85 5.35 Q13.8 1.35 16.85 0.4 L17.2 0.35 17.35 0.3 17.45 0.3 Q20.4 -0.3 22.75 0.65 23.9 1.15 25.0 2.05 26.75 3.55 28.1 6.25 Z" fill="none" stroke="#333333" stroke-linecap="round" stroke-linejoin="round" stroke-width="2.0"/>
    <path d="M11.9 6.65 L12.45 6.35 12.8 5.95 13.1 5.25 13.35 4.6 13.5 3.95 13.9 3.45 Q15.15 2.3 16.4 2.1 16.9 2.05 17.35 1.65 L18.15 1.0 19.15 0.55 20.15 0.5 Q21.4 0.55 22.5 1.25 23.75 2.0 24.3 3.3 L24.55 3.9 24.8 4.65 25.15 5.2 25.55 5.45 26.5 6.15 26.95 6.85 27.25 7.85 27.3 9.35 27.15 10.05 26.85 9.3 26.5 8.55 26.45 8.4 26.6 8.15 26.55 7.7 Q26.5 6.85 26.0 6.25 L25.75 5.95 25.05 5.7 24.3 5.55 23.65 5.35 23.05 5.0 22.4 4.8 Q21.15 4.7 19.5 5.9 L18.4 6.7 17.45 6.95 16.7 6.8 Q16.35 6.65 15.85 6.8 15.35 6.9 14.9 7.65 14.4 8.45 14.45 8.55 L14.4 8.6 14.4 8.65 14.35 8.75 14.35 9.1 14.35 9.15 14.3 9.35 14.45 9.75 14.45 9.9 14.95 10.9 15.75 11.7 Q16.0 11.7 16.3 11.95 L16.65 12.45 16.85 13.05 17.35 13.35 17.7 13.2 Q17.95 13.0 18.35 13.05 L20.3 13.9 Q22.1 14.85 22.85 14.85 L23.45 14.7 23.85 14.1 Q24.1 13.8 24.55 13.75 L25.1 13.55 Q24.75 13.8 24.45 14.4 L23.9 15.45 Q23.5 16.05 23.15 16.05 L22.15 16.1 21.7 16.0 21.3 15.95 20.7 15.95 20.05 16.05 19.1 15.8 17.7 15.55 16.55 15.75 15.65 16.15 15.45 16.05 14.85 15.7 14.3 15.35 Q13.9 15.35 12.9 15.85 L11.7 16.3 11.05 16.15 10.65 15.55 11.3 15.0 12.05 14.6 11.5 14.3 10.85 14.1 10.55 13.45 10.4 12.75 10.2 12.95 10.15 13.3 9.85 13.85 8.95 14.3 8.35 14.45 Q7.5 14.45 7.2 15.2 L7.1 15.9 7.1 16.0 7.05 16.45 7.05 16.55 7.0 16.75 6.95 17.05 7.05 17.3 7.65 17.05 8.25 16.9 Q8.6 16.95 9.05 17.25 L10.0 17.6 10.8 17.25 11.05 17.2 10.6 17.6 9.9 18.15 8.7 17.75 Q7.95 17.4 7.45 17.4 L6.95 17.45 6.6 17.55 Q6.3 17.55 6.15 17.15 L6.15 16.85 6.2 16.15 5.85 14.85 Q5.5 14.1 5.05 14.1 L4.45 14.1 3.9 14.05 3.45 13.8 3.0 13.6 Q2.6 13.6 1.8 14.6 L1.2 15.55 1.75 14.25 1.85 14.1 1.85 14.0 2.05 13.9 2.35 13.7 2.65 13.35 2.8 13.1 3.0 12.1 Q3.2 11.65 3.6 11.55 3.9 12.05 4.45 12.0 5.6 11.75 6.55 11.05 L6.85 10.8 7.2 10.65 7.75 10.05 8.05 9.45 Q8.2 8.95 8.45 8.9 9.05 8.85 9.6 8.1 10.15 7.25 10.55 7.1 L10.7 7.05 11.9 6.65 M21.65 4.05 L22.6 4.25 22.95 4.2 23.05 3.85 Q23.0 3.35 21.8 2.45 20.65 1.6 19.95 1.6 18.5 1.55 18.0 2.7 L17.8 3.5 17.5 3.85 17.1 3.6 16.6 3.5 Q16.25 3.5 15.95 3.75 L15.5 4.65 15.1 5.4 14.8 5.9 14.85 6.1 15.05 6.1 15.5 5.95 16.05 5.65 16.5 5.25 17.05 5.05 Q17.4 5.05 17.7 5.45 L18.25 5.75 19.1 5.5 19.55 4.8 20.1 4.2 Q20.45 3.9 21.0 3.9 L21.65 4.05 M24.35 17.6 L24.4 17.55 24.45 17.6 24.35 17.6 M20.65 15.7 L21.3 15.65 21.8 15.3 20.0 14.65 17.75 14.1 17.3 14.2 16.85 14.2 Q16.25 14.2 16.2 13.5 L16.2 12.8 16.1 12.45 15.95 12.45 Q15.75 13.5 15.3 13.85 L14.2 14.5 13.1 14.9 11.95 15.35 11.75 15.4 11.55 15.45 11.5 15.45 11.3 15.7 11.5 15.75 13.25 15.35 Q14.45 14.85 14.9 14.85 L15.75 15.1 16.8 15.3 17.55 15.15 18.35 15.05 19.55 15.4 20.65 15.7 M11.45 8.85 L11.45 8.8 11.25 8.65 10.7 9.25 10.3 9.75 10.25 9.8 9.95 9.95 9.85 10.15 9.8 10.3 9.85 10.55 10.2 11.0 Q10.5 11.35 10.75 11.35 11.15 11.35 11.4 10.8 L11.55 9.9 11.45 9.15 11.45 9.05 11.45 8.85 M11.65 11.5 Q11.4 11.85 11.3 12.15 L11.25 12.2 11.2 12.4 11.1 12.7 11.15 12.8 11.15 13.3 Q11.25 14.0 11.9 14.0 12.7 14.05 13.55 13.25 14.45 12.4 14.4 11.45 L14.05 10.2 Q13.8 9.6 13.35 9.7 12.75 9.85 11.95 11.05 L11.65 11.5 M7.05 12.45 L7.05 12.3 Q6.95 12.05 6.7 12.1 L5.85 12.6 5.75 12.7 5.65 12.85 5.7 13.45 5.85 13.7 Q6.45 14.35 6.9 13.7 L7.0 12.7 7.0 12.65 7.05 12.45 M9.7 10.9 L9.5 10.7 9.2 10.7 8.55 10.95 Q8.25 11.1 8.1 11.2 L8.05 11.25 7.9 11.3 7.8 11.7 7.8 11.95 8.0 12.45 Q8.2 12.9 8.9 13.15 9.7 13.35 9.85 12.5 L9.7 11.45 9.7 11.35 9.7 11.3 9.7 11.1 9.7 10.9" fill="#fff6d6" fill-rule="evenodd" stroke="none"/>
    <path d="M26.45 8.4 L26.5 8.55 26.85 9.3 27.15 10.05 27.3 9.35 27.25 7.85 26.95 6.85 26.5 6.15 25.55 5.45 25.15 5.2 24.8 4.65 24.55 3.9 24.3 3.3 Q23.75 2.0 22.5 1.25 21.4 0.55 20.15 0.5 L19.15 0.55 18.15 1.0 17.35 1.65 Q16.9 2.05 16.4 2.1 15.15 2.3 13.9 3.45 L13.5 3.95 13.35 4.6 13.1 5.25 12.8 5.95 12.45 6.35 11.9 6.65 12.2 6.25 Q12.3 5.95 12.0 5.4 L11.9 5.25 Q13.9 1.25 16.95 0.35 L17.3 0.3 17.45 0.25 17.55 0.25 Q20.5 -0.35 22.85 0.6 24.0 1.1 25.1 2.0 L27.65 5.65 28.65 7.7 Q29.45 9.6 29.5 10.4 29.55 11.25 29.05 11.5 L28.7 11.65 28.5 11.9 28.65 12.2 29.05 12.25 29.1 12.4 29.15 12.6 Q29.2 13.15 28.75 13.3 L27.8 13.65 27.3 14.5 Q27.05 15.0 27.15 15.7 27.25 16.6 25.95 16.9 L23.65 17.1 22.25 16.8 20.55 16.45 19.2 16.5 17.85 16.9 17.2 17.1 Q16.8 17.15 16.6 17.3 16.35 17.55 16.25 17.95 L16.0 18.2 15.65 18.2 15.2 18.0 14.8 17.8 Q14.55 17.75 14.2 18.25 L13.6 18.7 13.1 18.45 12.35 17.9 11.7 17.9 11.05 18.4 Q10.7 18.8 10.4 18.8 L9.2 18.4 8.25 17.95 Q7.65 17.95 7.2 18.4 L6.7 18.8 Q6.45 18.8 6.15 18.45 L6.0 18.05 6.05 17.15 6.15 16.85 6.15 17.15 Q6.3 17.55 6.6 17.55 L6.95 17.45 7.45 17.4 Q7.95 17.4 8.7 17.75 L9.9 18.15 10.6 17.6 11.05 17.2 11.35 17.1 11.8 17.0 12.6 17.3 13.4 17.6 13.45 17.6 13.7 17.45 14.05 17.2 14.5 17.15 15.0 17.2 15.85 17.3 Q16.6 17.25 16.55 16.8 L16.25 16.3 15.65 16.15 16.55 15.75 17.7 15.55 19.1 15.8 20.05 16.05 20.7 15.95 21.3 15.95 21.7 16.0 22.15 16.1 23.15 16.05 Q23.5 16.05 23.9 15.45 L24.45 14.4 Q24.75 13.8 25.1 13.55 L25.25 13.5 Q26.05 13.3 26.5 12.6 27.05 11.9 27.0 10.85 L26.55 8.85 26.35 8.4 26.15 7.9 26.1 7.75 26.25 7.95 26.45 8.4" fill="#e7dcc1" fill-rule="evenodd" stroke="none"/>
    <path d="M21.65 4.05 L21.0 3.9 Q20.45 3.9 20.1 4.2 L19.55 4.8 19.1 5.5 18.25 5.75 17.7 5.45 Q17.4 5.05 17.05 5.05 L16.5 5.25 16.05 5.65 15.5 5.95 15.05 6.1 14.85 6.1 14.8 5.9 15.1 5.4 15.5 4.65 15.95 3.75 Q16.25 3.5 16.6 3.5 L17.1 3.6 17.5 3.85 17.8 3.5 18.0 2.7 Q18.5 1.55 19.95 1.6 20.65 1.6 21.8 2.45 23.0 3.35 23.05 3.85 L22.95 4.2 22.6 4.25 21.65 4.05" fill="#fffbe9" fill-rule="evenodd" stroke="none"/>
    <path d="M14.45 9.75 L14.3 9.35 14.35 9.15 14.35 9.1 14.4 8.75 14.4 8.65 14.4 8.6 14.45 8.55 Q14.4 8.45 14.9 7.65 15.35 6.9 15.85 6.8 16.35 6.65 16.7 6.8 L17.45 6.95 18.4 6.7 19.5 5.9 Q21.15 4.7 22.4 4.8 L23.05 5.0 23.65 5.35 24.3 5.55 25.05 5.7 25.75 5.95 26.0 6.25 Q26.5 6.85 26.55 7.7 L26.6 8.15 26.45 8.4 26.25 7.95 26.1 7.75 26.1 7.85 26.05 7.8 26.05 7.75 25.9 7.4 Q25.55 6.9 25.0 6.8 L23.9 6.4 22.75 6.05 Q21.6 6.0 20.85 6.45 L19.7 7.55 18.75 8.75 Q18.35 9.1 17.9 9.05 L17.3 8.9 16.95 8.85 16.55 8.95 16.0 9.0 15.5 8.85 15.15 9.05 15.05 9.55 15.15 10.05 15.5 10.45 15.65 10.95 15.7 11.15 15.45 10.95 15.3 10.6 15.2 10.5 14.85 10.15 14.5 9.85 14.45 9.75" fill="#bfb09c" fill-rule="evenodd" stroke="none"/>
    <path d="M23.5 13.15 L23.7 12.95 24.1 11.85 Q24.05 11.15 23.6 10.95 L23.15 10.75 22.7 10.3 21.9 9.65 20.9 9.0 Q20.45 9.0 20.0 9.35 L19.25 10.1 17.6 11.1 Q17.3 11.45 17.4 11.65 L17.5 11.85 17.35 11.85 16.35 11.55 15.7 11.15 15.65 10.95 15.5 10.45 15.15 10.05 15.05 9.55 15.15 9.05 15.5 8.85 16.0 9.0 16.55 8.95 16.95 8.85 17.3 8.9 17.9 9.05 Q18.35 9.1 18.75 8.75 L19.7 7.55 20.85 6.45 Q21.6 6.0 22.75 6.05 L23.9 6.4 25.0 6.8 Q25.55 6.9 25.9 7.4 L26.05 7.75 26.05 7.8 26.1 7.85 26.15 8.0 26.2 8.55 26.25 8.7 26.2 10.65 25.8 11.25 25.15 12.25 Q24.7 12.85 23.5 13.15" fill="#190d0d" fill-rule="evenodd" stroke="none"/>
    <path d="M17.5 11.85 L17.4 11.65 Q17.3 11.45 17.6 11.1 L19.25 10.1 20.0 9.35 Q20.45 9.0 20.9 9.0 L21.9 9.65 22.7 10.3 23.15 10.75 23.6 10.95 Q24.05 11.15 24.1 11.85 L23.7 12.95 23.5 13.15 23.3 13.2 22.7 13.3 21.15 13.35 20.1 13.1 19.1 12.75 18.3 12.25 17.6 11.85 17.5 11.85" fill="#484342" fill-rule="evenodd" stroke="none"/>
    <path d="M25.1 13.55 L24.55 13.75 Q24.1 13.8 23.85 14.1 L23.45 14.7 22.85 14.85 Q22.1 14.85 20.3 13.9 L18.35 13.05 Q17.95 13.0 17.7 13.2 L17.35 13.35 16.85 13.05 16.65 12.45 16.3 11.95 Q16.0 11.7 15.75 11.7 L14.95 10.9 14.45 9.9 14.45 9.75 14.5 9.85 14.85 10.15 15.2 10.5 15.3 10.6 15.45 10.95 15.7 11.15 16.35 11.55 17.35 11.85 17.5 11.85 17.6 11.85 18.3 12.25 19.1 12.75 20.1 13.1 21.15 13.35 22.7 13.3 23.3 13.2 23.5 13.15 Q24.7 12.85 25.15 12.25 L25.8 11.25 26.2 10.65 26.25 8.7 26.2 8.55 26.15 8.0 26.1 7.85 26.1 7.75 26.15 7.9 26.35 8.4 26.55 8.85 27.0 10.85 Q27.05 11.9 26.5 12.6 26.05 13.3 25.25 13.5 L25.1 13.55" fill="#e2d1b9" fill-rule="evenodd" stroke="none"/>
    <path d="M25.1 2.0 Q26.85 3.5 28.2 6.2 30.5 9.95 29.85 12.55 L29.4 13.85 29.05 14.45 28.7 15.3 28.4 15.95 27.95 16.45 27.3 17.05 26.05 17.55 24.45 17.6 24.4 17.55 24.35 17.6 24.3 17.6 23.85 17.6 21.95 17.2 21.45 16.95 21.05 16.8 20.35 16.8 18.85 17.05 18.25 17.2 17.95 17.3 17.8 17.35 17.55 17.4 17.25 17.3 Q16.65 17.25 16.45 17.7 L16.25 17.95 Q16.35 17.55 16.6 17.3 16.8 17.15 17.2 17.1 L17.85 16.9 19.2 16.5 20.55 16.45 22.25 16.8 23.65 17.1 25.95 16.9 Q27.25 16.6 27.15 15.7 27.05 15.0 27.3 14.5 L27.8 13.65 28.75 13.3 Q29.2 13.15 29.15 12.6 L29.1 12.4 29.05 12.25 28.65 12.2 28.5 11.9 28.7 11.65 29.05 11.5 Q29.55 11.25 29.5 10.4 29.45 9.6 28.65 7.7 L27.65 5.65 25.1 2.0" fill="#aaa597" fill-rule="evenodd" stroke="none"/>
    <path d="M29.4 13.85 L28.65 15.9 Q28.2 17.15 28.25 18.35 L28.0 21.2 Q27.7 23.0 25.55 23.6 23.4 24.25 20.3 23.65 L14.55 23.4 Q11.95 23.8 9.6 24.75 7.1 25.65 5.65 25.65 4.15 25.65 2.9 24.85 L3.25 23.75 Q3.5 23.1 4.45 22.15 3.85 23.1 4.5 24.05 5.15 24.95 6.0 25.0 L8.55 24.6 10.8 23.85 11.75 23.55 12.65 23.2 13.7 22.7 14.65 22.45 15.2 22.55 15.45 22.7 16.0 22.8 16.85 22.95 18.1 22.45 Q18.9 22.0 19.3 22.0 L19.85 22.15 20.35 22.35 21.3 22.0 Q21.9 21.55 22.05 21.55 L22.75 21.85 23.35 22.35 Q24.2 23.15 24.9 23.15 25.8 23.2 26.3 22.05 L26.85 20.1 27.1 17.85 27.3 17.05 27.95 16.45 28.4 15.95 28.7 15.3 29.05 14.45 29.4 13.85" fill="#988975" fill-rule="evenodd" stroke="none"/>
    <path d="M24.45 17.6 L26.05 17.55 27.3 17.05 27.1 17.85 26.85 20.1 26.3 22.05 Q25.8 23.2 24.9 23.15 24.2 23.15 23.35 22.35 L22.75 21.85 22.05 21.55 Q21.9 21.55 21.3 22.0 L20.35 22.35 19.85 22.15 19.3 22.0 Q18.9 22.0 18.1 22.45 L16.85 22.95 16.0 22.8 15.45 22.7 15.2 22.55 14.65 22.45 13.7 22.7 12.65 23.2 11.75 23.55 10.8 23.85 8.55 24.6 6.0 25.0 Q5.15 24.95 4.5 24.05 3.85 23.1 4.45 22.15 L4.85 21.75 5.5 22.45 6.0 22.7 6.6 23.15 7.6 22.95 7.8 22.5 8.4 22.7 8.95 22.85 9.0 22.85 9.8 23.55 Q10.3 24.15 10.25 23.5 L10.35 23.5 10.6 23.3 10.7 22.85 Q10.75 22.45 11.1 22.4 L11.55 22.55 11.85 22.75 12.4 22.75 Q12.8 22.8 13.0 22.35 L13.3 21.85 Q13.35 21.7 13.55 21.7 L14.1 21.95 14.65 22.1 Q15.1 22.15 15.3 21.8 L15.6 21.5 16.15 21.65 16.7 21.85 17.1 21.6 17.5 21.45 17.8 21.55 18.1 21.7 18.4 21.5 18.45 21.0 18.85 21.2 19.5 21.35 19.95 21.05 20.1 20.9 20.75 20.85 20.8 20.85 Q21.25 21.05 21.55 20.5 21.9 20.0 22.1 20.0 L22.5 20.1 22.85 20.15 Q23.35 20.15 23.7 19.45 L24.35 17.6 24.45 17.6 M5.35 22.95 L5.15 23.1 5.5 23.55 6.0 23.85 6.4 24.3 6.85 24.5 Q7.2 24.5 7.8 24.1 L8.45 23.25 8.4 23.05 8.15 22.95 7.75 23.2 6.9 23.45 6.05 23.1 5.9 23.1 5.6 22.95 5.35 22.95" fill="#d0ba9c" fill-rule="evenodd" stroke="none"/>
    <path d="M16.25 17.95 L16.45 17.7 Q16.65 17.25 17.25 17.3 L17.55 17.4 17.8 17.35 17.95 17.3 18.25 17.2 18.85 17.05 20.35 16.8 21.05 16.8 21.45 16.95 21.95 17.2 23.85 17.6 24.3 17.6 24.35 17.6 23.7 19.45 Q23.35 20.15 22.85 20.15 L22.5 20.1 22.1 20.0 Q21.9 20.0 21.55 20.5 21.25 21.05 20.8 20.85 L21.25 20.45 Q21.7 19.85 22.0 19.85 L22.25 19.9 22.5 20.0 22.75 19.75 22.9 19.15 22.7 18.75 22.25 18.65 21.85 18.35 21.45 18.2 21.35 18.2 21.35 18.15 Q21.3 17.5 20.75 17.65 20.55 17.65 20.65 18.25 L20.65 18.35 20.75 18.55 20.65 18.55 20.4 18.45 20.25 18.0 Q19.95 17.35 19.9 17.95 L19.9 18.2 19.6 18.3 19.6 18.0 Q19.55 17.3 18.85 17.55 18.55 17.7 18.75 18.45 L18.8 18.5 18.9 18.8 19.05 19.15 18.75 19.35 18.4 18.35 Q18.0 17.7 18.1 18.7 L18.2 19.3 18.1 19.25 18.0 19.2 17.9 18.9 17.9 18.85 17.7 17.95 17.2 17.55 16.95 17.55 16.75 17.7 Q16.3 18.1 16.6 18.85 L16.75 19.05 17.15 19.75 16.95 20.1 16.6 19.5 16.15 18.8 Q16.0 18.6 16.0 19.0 L16.0 19.8 15.8 19.8 15.75 19.0 15.55 18.4 Q14.85 17.7 14.5 18.2 14.15 18.6 14.45 19.15 L15.1 20.25 15.15 20.35 15.05 20.4 14.75 20.25 14.5 19.75 14.0 19.05 Q13.55 18.55 13.55 19.35 L13.6 19.8 13.5 19.9 13.3 20.25 13.2 19.8 13.2 19.7 Q13.0 18.7 12.7 18.55 11.95 18.1 11.8 18.85 11.7 19.15 12.25 19.85 L12.1 19.8 12.0 19.85 11.7 19.4 Q11.4 19.0 11.4 19.6 L11.4 20.3 11.1 20.35 10.55 19.95 10.1 19.6 Q10.05 19.6 9.95 19.7 9.8 19.65 9.75 19.9 L9.7 19.9 9.3 20.3 Q9.05 18.5 8.45 18.45 8.25 18.3 7.9 18.45 8.15 18.2 8.4 18.2 8.75 18.25 9.5 18.7 L10.35 19.2 10.85 19.0 11.1 18.6 Q11.45 17.95 12.15 17.95 12.6 18.0 12.95 18.35 L13.1 18.45 13.6 18.7 14.2 18.25 Q14.55 17.75 14.8 17.8 L15.2 18.0 15.65 18.2 16.0 18.2 16.25 17.95 M6.85 19.9 L7.1 19.7 7.3 20.6 Q7.9 21.7 9.0 22.85 L8.95 22.85 8.4 22.7 7.8 22.5 Q7.9 21.8 7.15 20.55 L6.85 19.9" fill="#463b2f" fill-rule="evenodd" stroke="none"/>
    <path d="M7.0 16.75 L7.05 16.55 7.05 16.65 7.0 16.75 M10.2 12.95 L10.4 12.75 10.55 13.45 10.85 14.1 11.5 14.3 12.05 14.6 11.3 15.0 10.65 15.55 11.05 16.15 11.7 16.3 12.9 15.85 Q13.9 15.35 14.3 15.35 L14.85 15.7 15.45 16.05 15.65 16.15 16.25 16.3 16.55 16.8 Q16.6 17.25 15.85 17.3 L15.0 17.2 14.5 17.15 14.05 17.2 13.7 17.45 13.45 17.6 12.75 17.2 Q12.0 16.7 11.7 16.7 L10.95 16.9 10.25 17.0 9.4 16.75 8.5 16.6 7.95 16.6 7.8 16.65 Q7.4 16.55 7.55 16.15 7.45 15.85 7.9 15.3 8.3 14.8 9.0 14.6 L9.55 14.3 10.0 13.85 10.2 13.15 10.2 12.95 M20.65 15.7 L19.55 15.4 18.35 15.05 17.55 15.15 16.8 15.3 15.75 15.1 14.9 14.85 Q14.45 14.85 13.25 15.35 L11.5 15.75 11.3 15.7 11.5 15.45 11.55 15.45 11.75 15.4 11.95 15.35 13.1 14.9 14.2 14.5 15.3 13.85 Q15.75 13.5 15.95 12.45 L16.1 12.45 16.2 12.8 16.2 13.5 Q16.25 14.2 16.85 14.2 L17.3 14.2 17.75 14.1 20.0 14.65 21.8 15.3 21.3 15.65 20.65 15.7" fill="#fff9e3" fill-rule="evenodd" stroke="none"/>
    <path d="M20.65 18.25 Q20.55 17.65 20.75 17.65 21.3 17.5 21.35 18.15 L21.05 17.95 20.75 18.05 20.65 18.25 M20.7 19.6 L20.75 19.85 20.7 20.45 Q20.6 20.65 20.3 20.25 L20.05 19.8 20.05 19.75 20.45 20.0 Q20.65 20.0 20.7 19.6 M14.75 20.25 L14.95 21.4 Q14.95 21.95 14.35 21.75 13.9 21.8 13.65 20.75 L13.7 20.7 13.85 20.95 14.3 21.35 14.65 21.1 14.65 20.55 14.6 20.15 14.5 19.75 14.75 20.25 M12.45 20.2 L12.25 19.85 Q11.7 19.15 11.8 18.85 11.95 18.1 12.7 18.55 13.0 18.7 13.2 19.7 L12.45 18.85 Q12.25 18.8 12.2 19.0 L12.2 19.3 12.35 19.9 12.35 19.95 12.45 20.2 M10.2 6.7 L10.5 6.75 10.9 6.45 11.1 5.8 11.0 4.85 10.75 3.95 10.55 2.95 10.55 2.55 10.85 3.4 11.0 3.75 11.1 4.3 11.5 5.15 11.85 6.1 Q11.85 6.55 11.4 6.8 L10.55 7.0 10.2 6.85 10.15 6.7 10.2 6.7 M16.75 19.05 L16.6 18.85 Q16.3 18.1 16.75 17.7 L16.95 17.55 17.2 17.55 17.7 17.95 17.9 18.85 17.9 18.9 17.8 18.6 Q17.6 18.2 17.25 18.2 16.9 18.15 16.8 18.45 16.7 18.65 16.75 19.05 M18.9 18.8 L18.8 18.5 18.75 18.45 Q18.55 17.7 18.85 17.55 19.55 17.3 19.6 18.0 L19.6 18.3 19.45 18.15 19.2 18.0 18.9 18.35 18.9 18.8 M15.75 19.0 L15.55 18.7 15.15 18.45 14.85 18.65 14.75 19.05 15.0 19.9 15.1 20.25 14.45 19.15 Q14.15 18.6 14.5 18.2 14.85 17.7 15.55 18.4 L15.75 19.0" fill="#ece5dd" fill-rule="evenodd" stroke="none"/>
    <path d="M1.8 26.2 Q-1.05 22.4 0.95 17.15 L1.35 16.25 1.65 16.05 Q2.0 15.8 2.2 15.85 L2.6 16.05 Q2.8 16.25 3.15 16.25 L3.45 16.25 3.7 16.15 Q4.05 16.15 4.25 16.45 L4.4 17.1 3.95 18.45 3.0 19.8 2.1 21.35 Q1.65 22.35 1.7 23.25 L1.8 24.0 1.9 24.75 1.8 26.2 M20.75 18.55 L20.65 18.35 20.65 18.25 20.75 18.05 21.05 17.95 21.35 18.15 21.35 18.2 21.3 19.6 Q21.2 20.0 21.0 19.4 L20.75 18.55 M19.9 18.2 L19.9 17.95 Q19.95 17.35 20.25 18.0 L20.4 18.45 20.7 19.6 Q20.65 20.0 20.45 20.0 L20.05 19.75 20.05 19.8 20.0 19.7 19.95 19.3 19.9 18.2 M19.6 18.3 L19.65 18.4 19.9 20.35 19.9 20.4 Q19.95 21.0 19.55 20.15 L19.05 19.15 18.9 18.8 18.9 18.35 19.2 18.0 19.45 18.15 19.6 18.3 M18.75 19.35 L19.0 20.75 Q18.8 21.25 18.35 20.2 L18.2 19.3 18.1 18.7 Q18.0 17.7 18.4 18.35 L18.75 19.35 M18.0 19.2 L18.0 19.45 18.25 20.8 Q18.3 21.9 17.65 20.6 L17.15 19.75 16.75 19.05 Q16.7 18.65 16.8 18.45 16.9 18.15 17.25 18.2 17.6 18.2 17.8 18.6 L17.9 18.9 18.0 19.2 M16.95 20.1 Q17.5 21.35 16.9 21.5 16.35 21.7 16.2 21.2 L16.0 19.8 16.0 19.0 Q16.0 18.6 16.15 18.8 L16.6 19.5 16.95 20.1 M15.8 19.8 L15.8 19.85 Q16.15 21.8 15.6 21.1 L15.15 20.35 15.1 20.25 15.0 19.9 14.75 19.05 14.85 18.65 15.15 18.45 15.55 18.7 15.75 19.0 15.8 19.8 M13.65 20.75 L13.6 19.8 13.55 19.35 Q13.55 18.55 14.0 19.05 L14.5 19.75 14.6 20.15 14.65 20.55 14.65 21.1 14.3 21.35 13.85 20.95 13.7 20.7 13.65 20.75 M13.3 20.25 Q13.55 21.65 13.2 21.15 L12.5 20.25 12.45 20.2 12.35 19.95 12.35 19.9 12.2 19.3 12.2 19.0 Q12.25 18.8 12.45 18.85 L13.2 19.7 13.2 19.8 13.3 20.25 M12.0 19.85 L12.55 21.55 Q12.65 22.55 12.05 22.2 11.8 22.05 11.4 20.9 L11.4 20.3 11.4 19.6 Q11.4 19.0 11.7 19.4 L12.0 19.85 M10.05 22.8 L10.2 23.15 10.25 23.5 Q10.3 24.15 9.8 23.55 L9.0 22.85 Q7.9 21.7 7.3 20.6 L7.1 19.7 7.1 19.65 7.2 19.45 7.6 18.8 7.9 18.45 Q8.25 18.3 8.45 18.45 9.05 18.5 9.3 20.3 L9.3 20.45 9.6 21.3 9.65 21.55 10.0 22.6 10.05 22.8 M10.55 2.55 L10.55 2.95 10.75 3.95 11.0 4.85 11.1 5.8 10.9 6.45 10.5 6.75 10.2 6.7 10.15 6.6 10.05 6.55 Q9.6 4.1 9.85 2.4 L9.9 2.35 Q10.1 1.05 10.55 2.45 L10.55 2.55 M9.85 10.15 L9.95 9.95 10.25 9.8 10.3 9.75 10.7 9.25 11.25 8.65 11.45 8.8 11.45 8.85 11.4 8.85 Q11.2 8.85 10.75 9.7 L10.05 10.45 9.9 10.35 9.9 10.3 9.85 10.15 M3.3 9.95 L3.3 9.85 Q3.0 6.6 3.7 3.65 3.95 2.7 4.4 3.3 L4.4 3.35 4.45 3.45 4.45 3.55 4.5 3.6 4.5 3.7 4.55 3.8 4.55 3.9 4.65 4.6 4.8 5.75 5.1 7.35 5.5 8.85 Q5.7 9.3 5.55 9.8 L4.85 10.55 4.1 10.75 3.6 10.4 3.3 9.95 M1.55 10.65 L1.9 10.75 2.8 11.15 2.6 11.5 2.4 11.85 2.35 11.9 Q1.8 11.85 1.55 10.65 M5.75 12.7 L5.85 12.6 6.7 12.1 Q6.95 12.05 7.05 12.3 L7.05 12.45 6.9 12.55 6.65 12.65 6.4 13.05 6.1 13.3 5.85 13.25 5.7 13.1 5.75 12.9 5.75 12.7 M8.05 11.25 L8.1 11.2 Q8.25 11.1 8.55 10.95 L9.2 10.7 9.5 10.7 9.7 10.9 9.55 10.9 9.2 10.95 8.9 11.2 8.55 11.7 8.2 11.95 8.05 11.9 7.95 11.65 7.95 11.35 8.05 11.25 M5.75 21.0 L5.75 20.9 5.75 20.35 5.95 19.15 5.95 19.1 6.05 19.0 6.1 18.95 6.1 18.9 Q6.3 18.55 6.5 19.15 L6.85 19.9 7.15 20.55 Q7.9 21.8 7.8 22.5 L7.6 22.95 6.6 23.15 6.0 22.7 5.8 21.85 5.75 21.0" fill="#ffffff" fill-rule="evenodd" stroke="none"/>
    <path d="M21.35 18.2 L21.45 18.2 21.85 18.35 22.25 18.65 22.7 18.75 22.9 19.15 22.75 19.75 22.5 20.0 22.25 19.9 22.0 19.85 Q21.7 19.85 21.25 20.45 L20.8 20.85 20.75 20.85 20.1 20.9 19.95 21.05 19.5 21.35 18.85 21.2 18.45 21.0 18.4 21.5 18.1 21.7 17.8 21.55 17.5 21.45 17.1 21.6 16.7 21.85 16.15 21.65 15.6 21.5 15.3 21.8 Q15.1 22.15 14.65 22.1 L14.1 21.95 13.55 21.7 Q13.35 21.7 13.3 21.85 L13.0 22.35 Q12.8 22.8 12.4 22.75 L11.85 22.75 11.55 22.55 11.1 22.4 Q10.75 22.45 10.7 22.85 L10.6 23.3 10.35 23.5 10.25 23.5 10.2 23.15 10.05 22.8 10.4 22.35 10.45 21.55 10.3 20.45 Q10.15 19.7 9.95 19.7 10.05 19.6 10.1 19.6 L10.55 19.95 11.1 20.35 11.4 20.3 11.4 20.9 Q11.8 22.05 12.05 22.2 12.65 22.55 12.55 21.55 L12.0 19.85 12.1 19.8 12.25 19.85 12.45 20.2 12.5 20.25 13.2 21.15 Q13.55 21.65 13.3 20.25 L13.5 19.9 13.6 19.8 13.65 20.75 Q13.9 21.8 14.35 21.75 14.95 21.95 14.95 21.4 L14.75 20.25 15.05 20.4 15.15 20.35 15.6 21.1 Q16.15 21.8 15.8 19.85 L15.8 19.8 16.0 19.8 16.2 21.2 Q16.35 21.7 16.9 21.5 17.5 21.35 16.95 20.1 L17.15 19.75 17.65 20.6 Q18.3 21.9 18.25 20.8 L18.0 19.45 18.0 19.2 18.1 19.25 18.2 19.3 18.35 20.2 Q18.8 21.25 19.0 20.75 L18.75 19.35 19.05 19.15 19.55 20.15 Q19.95 21.0 19.9 20.4 L19.9 20.35 19.65 18.4 19.6 18.3 19.9 18.2 19.95 19.3 20.0 19.7 20.05 19.8 20.3 20.25 Q20.6 20.65 20.7 20.45 L20.75 19.85 20.7 19.6 20.4 18.45 20.65 18.55 20.75 18.55 21.0 19.4 Q21.2 20.0 21.3 19.6 L21.35 18.2 M6.0 18.05 L6.15 18.45 Q6.45 18.8 6.7 18.8 L7.2 18.4 Q7.65 17.95 8.25 17.95 L9.2 18.4 10.4 18.8 Q10.7 18.8 11.05 18.4 L11.7 17.9 12.35 17.9 13.1 18.45 12.95 18.35 Q12.6 18.0 12.15 17.95 11.45 17.95 11.1 18.6 L10.85 19.0 10.35 19.2 9.5 18.7 Q8.75 18.25 8.4 18.2 8.15 18.2 7.9 18.45 L7.6 18.8 7.2 19.45 7.1 19.65 7.1 19.7 6.85 19.9 6.5 19.15 Q6.3 18.55 6.1 18.9 L6.0 18.6 5.95 18.2 6.0 18.05 M5.3 21.35 L5.35 21.35 5.55 21.25 5.75 21.0 5.8 21.85 6.0 22.7 5.5 22.45 4.85 21.75 5.05 21.6 5.15 21.5 5.25 21.5 5.25 21.45 5.15 21.5 5.3 21.35 M9.3 20.3 L9.7 19.9 9.75 19.9 9.65 20.45 9.6 21.3 9.3 20.45 9.3 20.3" fill="#776c5f" fill-rule="evenodd" stroke="none"/>
    <path d="M11.9 6.65 L10.7 7.05 10.55 7.1 10.2 6.85 10.55 7.0 11.4 6.8 Q11.85 6.55 11.85 6.1 L11.5 5.15 11.1 4.3 11.0 3.75 11.9 5.25 12.0 5.4 Q12.3 5.95 12.2 6.25 L11.9 6.65" fill="#aa9e90" fill-rule="evenodd" stroke="none"/>
    <path d="M14.35 9.1 L14.35 8.75 14.4 8.65 14.4 8.75 14.35 9.1" fill="#bdad97" fill-rule="evenodd" stroke="none"/>
    <path d="M10.55 7.1 Q10.15 7.25 9.6 8.1 9.05 8.85 8.45 8.9 8.2 8.95 8.05 9.45 L7.75 10.05 7.2 10.65 6.85 10.8 Q7.4 10.05 6.9 9.5 L6.75 9.2 7.5 8.45 Q7.65 7.95 8.15 8.1 9.1 8.35 10.15 6.7 L10.2 6.85 10.55 7.1" fill="#cdc0a0" fill-rule="evenodd" stroke="none"/>
    <path d="M9.95 19.7 Q10.15 19.7 10.3 20.45 L10.45 21.55 10.4 22.35 10.05 22.8 10.0 22.6 9.65 21.55 9.6 21.3 9.65 20.45 9.75 19.9 Q9.8 19.65 9.95 19.7 M9.85 10.15 L9.9 10.3 9.9 10.35 10.05 10.45 10.75 9.7 Q11.2 8.85 11.4 8.85 L11.45 8.85 11.45 9.05 11.45 9.5 11.45 9.8 11.3 10.7 10.65 11.05 Q10.4 11.0 10.05 10.75 L9.85 10.55 9.8 10.3 9.85 10.15 M4.55 3.8 L5.1 5.2 5.4 6.25 5.85 7.45 6.3 8.65 6.6 10.0 Q6.65 10.45 6.3 10.85 L5.7 11.3 4.95 11.5 4.1 11.65 3.7 11.5 3.5 11.3 3.45 11.2 3.4 10.9 3.4 10.35 3.3 9.95 3.6 10.4 4.1 10.75 4.85 10.55 5.55 9.8 Q5.7 9.3 5.5 8.85 L5.1 7.35 4.8 5.75 4.65 4.6 4.55 3.9 4.55 3.8 M5.75 12.7 L5.75 12.9 5.7 13.1 5.85 13.25 6.1 13.3 6.4 13.05 6.65 12.65 6.9 12.55 7.05 12.45 7.0 12.65 7.0 12.7 6.8 13.4 6.3 13.8 6.05 13.75 5.85 13.55 5.7 13.45 5.65 12.85 5.75 12.7 M8.05 11.25 L7.95 11.35 7.95 11.65 8.05 11.9 8.2 11.95 8.55 11.7 8.9 11.2 9.2 10.95 9.55 10.9 9.7 10.9 9.7 11.1 9.7 11.3 9.7 11.35 9.7 11.45 9.65 12.2 Q9.5 12.75 8.9 12.7 8.45 12.7 8.1 12.35 L7.8 11.95 7.8 11.7 7.9 11.3 8.05 11.25" fill="#e7e2da" fill-rule="evenodd" stroke="none"/>
    <path d="M11.45 9.05 L11.45 9.15 11.55 9.9 11.4 10.8 Q11.15 11.35 10.75 11.35 10.5 11.35 10.2 11.0 L9.85 10.55 10.05 10.75 Q10.4 11.0 10.65 11.05 L11.3 10.7 11.45 9.8 11.45 9.5 11.45 9.05" fill="#aaa49b" fill-rule="evenodd" stroke="none"/>
    <path d="M11.25 12.2 L11.3 12.15 Q11.4 11.85 11.65 11.5 L12.4 10.8 13.05 10.6 13.6 11.0 13.65 11.6 Q13.7 12.35 13.05 13.05 12.45 13.6 11.9 13.6 11.55 13.55 11.35 13.3 L11.15 12.8 11.25 12.2" fill="#231815" fill-rule="evenodd" stroke="none"/>
    <path d="M11.65 11.5 L11.95 11.05 Q12.75 9.85 13.35 9.7 13.8 9.6 14.05 10.2 L14.4 11.45 Q14.45 12.4 13.55 13.25 12.7 14.05 11.9 14.0 11.25 14.0 11.15 13.3 L11.15 12.8 11.35 13.3 Q11.55 13.55 11.9 13.6 12.45 13.6 13.05 13.05 13.7 12.35 13.65 11.6 L13.6 11.0 13.05 10.6 12.4 10.8 11.65 11.5" fill="#565656" fill-rule="evenodd" stroke="none"/>
    <path d="M2.9 24.85 L2.7 26.0 Q2.55 27.1 1.9 26.3 L1.8 26.2 1.9 24.75 1.8 24.0 1.7 23.25 Q1.65 22.35 2.1 21.35 L3.0 19.8 3.95 18.45 4.4 17.1 4.25 16.45 Q4.05 16.15 3.7 16.15 L3.45 16.25 3.15 16.25 Q2.8 16.25 2.6 16.05 L2.2 15.85 Q2.0 15.8 1.65 16.05 L1.35 16.25 2.0 15.2 Q2.4 14.7 2.7 14.95 L3.15 15.2 3.4 15.3 3.9 15.15 Q4.3 15.05 4.6 15.4 L5.15 16.3 5.55 17.45 5.6 18.65 5.45 19.5 5.5 20.0 5.45 20.65 5.35 21.25 5.3 21.35 5.15 21.5 5.25 21.45 5.25 21.5 5.15 21.5 5.05 21.6 4.85 21.75 4.45 22.15 Q3.5 23.1 3.25 23.75 L2.9 24.85 M1.85 12.55 L1.5 11.0 Q1.45 10.65 1.55 10.65 1.8 11.85 2.35 11.9 L2.1 12.2 1.85 12.55" fill="#ded5c9" fill-rule="evenodd" stroke="none"/>
    <path d="M3.6 11.55 Q3.2 11.65 3.0 12.1 L2.8 13.1 2.65 13.35 2.35 13.7 2.05 13.9 1.85 14.0 Q2.1 13.7 1.9 13.15 L1.85 12.55 2.1 12.2 2.35 11.9 2.4 11.85 2.6 11.5 2.8 11.15 3.0 11.2 Q3.25 11.3 3.35 11.05 L3.4 10.9 3.45 11.2 3.5 11.3 3.6 11.55" fill="#d2c5a6" fill-rule="evenodd" stroke="none"/>
    <path d="M6.85 10.8 L6.55 11.05 Q5.6 11.75 4.45 12.0 3.9 12.05 3.6 11.55 L3.5 11.3 3.7 11.5 4.1 11.65 4.95 11.5 5.7 11.3 6.3 10.85 Q6.65 10.45 6.6 10.0 L6.3 8.65 5.85 7.45 5.4 6.25 5.1 5.2 5.5 6.25 6.75 9.2 6.9 9.5 Q7.4 10.05 6.85 10.8" fill="#989188" fill-rule="evenodd" stroke="none"/>
    <path d="M9.7 11.45 L9.85 12.5 Q9.7 13.35 8.9 13.15 8.2 12.9 8.0 12.45 L7.8 11.95 8.1 12.35 Q8.45 12.7 8.9 12.7 9.5 12.75 9.65 12.2 L9.7 11.45" fill="#9c978e" fill-rule="evenodd" stroke="none"/>
    <path d="M11.05 17.2 L10.8 17.25 10.0 17.6 9.05 17.25 Q8.6 16.95 8.25 16.9 L7.65 17.05 7.05 17.3 6.95 17.05 7.0 16.75 7.05 16.65 7.05 16.55 7.05 16.45 7.1 16.0 7.1 15.9 7.2 15.2 Q7.5 14.45 8.35 14.45 L8.95 14.3 9.85 13.85 10.15 13.3 10.2 12.95 10.2 13.15 10.0 13.85 9.55 14.3 9.0 14.6 Q8.3 14.8 7.9 15.3 7.45 15.85 7.55 16.15 7.4 16.55 7.8 16.65 L7.95 16.6 8.5 16.6 9.4 16.75 10.25 17.0 10.95 16.9 11.7 16.7 Q12.0 16.7 12.75 17.2 L13.45 17.6 13.4 17.6 12.6 17.3 11.8 17.0 11.35 17.1 11.05 17.2" fill="#ded5b7" fill-rule="evenodd" stroke="none"/>
    <path d="M7.0 12.7 L6.9 13.7 Q6.45 14.35 5.85 13.7 L5.7 13.45 5.85 13.55 6.05 13.75 6.3 13.8 6.8 13.4 7.0 12.7" fill="#a19b92" fill-rule="evenodd" stroke="none"/>
    <path d="M1.2 15.55 L1.8 14.6 Q2.6 13.6 3.0 13.6 L3.45 13.8 3.9 14.05 4.45 14.1 5.05 14.1 Q5.5 14.1 5.85 14.85 L6.2 16.15 6.15 16.85 6.05 17.15 6.0 18.05 5.95 18.2 6.0 18.6 6.1 18.9 6.1 18.95 5.95 19.1 5.95 19.15 5.75 20.35 5.75 20.9 5.75 21.0 5.55 21.25 5.35 21.35 5.3 21.35 5.35 21.25 5.45 20.65 5.5 20.0 5.45 19.5 5.6 18.65 5.55 17.45 5.15 16.3 4.6 15.4 Q4.3 15.05 3.9 15.15 L3.4 15.3 3.15 15.2 2.7 14.95 Q2.4 14.7 2.0 15.2 L1.35 16.25 0.95 17.15 Q0.8 16.5 1.2 15.55" fill="#aa9c89" fill-rule="evenodd" stroke="none"/>
    <path d="M5.35 22.95 L5.6 22.95 5.9 23.1 6.05 23.1 6.9 23.45 7.75 23.2 8.15 22.95 8.4 23.05 8.45 23.25 7.8 24.1 Q7.2 24.5 6.85 24.5 L6.4 24.3 6.0 23.85 5.5 23.55 5.15 23.1 5.35 22.95" fill="#e0d8b5" fill-rule="evenodd" stroke="none"/>
  </g>
  <defs>
    <radialGradient cx="0" cy="0" gradientTransform="matrix(1.0E-4, -0.0116, 0.0245, 2.0E-4, 14.6, 25.35)" gradientUnits="userSpaceOnUse" id="gradient0" r="819.2" spreadMethod="pad">
      <stop offset="0.19607843137254902" stop-color="#000000" stop-opacity="0.6784314"/>
      <stop offset="0.7058823529411765" stop-color="#000000" stop-opacity="0.29803923"/>
      <stop offset="0.8470588235294118" stop-color="#000000" stop-opacity="0.0"/>
    </radialGradient>
  </defs>
</svg>
