<?xml version="1.0" encoding="UTF-8" standalone="no"?>
<svg xmlns:xlink="http://www.w3.org/1999/xlink" height="2.25px" width="2.25px" xmlns="http://www.w3.org/2000/svg">
  <g transform="matrix(1.0, 0.0, 0.0, 1.0, 1.1, 1.1)">
    <path d="M0.2 -1.1 Q0.65 -1.0 0.95 -0.65 1.25 -0.3 1.15 0.2 L0.85 0.85 0.7 0.95 -0.15 1.1 -0.7 0.85 -0.9 0.65 -1.05 -0.15 -0.6 -0.9 0.2 -1.1" fill="#c24b2a" fill-rule="evenodd" stroke="none"/>
    <path d="M0.8 0.55 L0.15 0.8 -0.5 0.55 -0.7 -0.05 -0.5 -0.7 0.15 -0.95 0.8 -0.7 1.05 -0.05 0.8 0.55" fill="#ec763c" fill-rule="evenodd" stroke="none"/>
    <path d="M0.75 0.0 L0.35 0.15 -0.05 0.0 -0.2 -0.4 -0.05 -0.8 0.35 -0.95 0.75 -0.8 0.9 -0.4 0.75 0.0" fill="#ffc438" fill-rule="evenodd" stroke="none"/>
  </g>
</svg>
