<?xml version="1.0" encoding="UTF-8" standalone="no"?>
<svg xmlns:xlink="http://www.w3.org/1999/xlink" height="42.0px" width="32.3px" xmlns="http://www.w3.org/2000/svg">
  <g transform="matrix(1.0, 0.0, 0.0, 1.0, 1.0, 11.4)">
    <path d="M29.3 21.0 L29.6 23.8 29.7 24.55 30.3 29.45 15.0 29.6 15.05 29.45 0.0 29.6 1.15 19.0 1.35 17.0 1.55 15.25 2.45 6.4 4.1 2.5 4.35 2.5 4.7 -1.05 6.1 -4.3 6.85 -4.3 11.4 -4.3 11.7 -7.4 13.0 -10.4 13.65 -10.4 18.25 -10.4 19.5 -7.6 19.9 -4.35 24.3 -4.35 25.6 -1.3 26.15 3.1 27.45 6.2 29.05 19.0 29.25 20.85 29.8 21.0 29.3 21.0 M14.55 10.5 L14.6 10.85 15.15 11.0 14.65 11.0 14.9 13.5 14.95 14.1 15.3 16.95 16.05 10.45 14.55 10.5 M13.95 18.25 L14.05 19.0 14.25 20.6 15.95 21.1 16.15 19.0 16.25 18.3 15.15 18.3 15.15 18.2 13.95 18.25 M14.6 23.8 L14.7 24.55 15.15 28.25 15.95 21.1 14.3 21.1 14.6 23.8" fill="#c7bb67" fill-rule="evenodd" stroke="none"/>
    <path d="M29.3 21.0 L29.6 23.8 29.7 24.55 30.3 29.45 15.0 29.6 15.05 29.45 0.0 29.6 1.15 19.0 1.35 17.0 1.55 15.25 2.45 6.4 4.1 2.5 4.35 2.5 4.7 -1.05 6.1 -4.3 6.85 -4.3 11.4 -4.3 11.7 -7.4 13.0 -10.4 13.65 -10.4 18.25 -10.4 19.5 -7.6 19.9 -4.35 24.3 -4.35 25.6 -1.3 26.15 3.1 27.45 6.2 29.05 19.0 29.25 20.85 M14.55 10.5 L14.6 10.85 15.15 11.0 14.65 11.0 14.9 13.5 14.95 14.1 15.3 16.95 16.05 10.45 14.55 10.5 M13.95 18.25 L14.05 19.0 14.25 20.6 15.95 21.1 16.15 19.0 16.25 18.3 15.15 18.3 15.15 18.2 13.95 18.25 M14.6 23.8 L14.7 24.55 15.15 28.25 15.95 21.1 14.3 21.1 14.6 23.8" fill="none" stroke="#513900" stroke-linecap="round" stroke-linejoin="round" stroke-width="2.0"/>
    <path d="M5.0 2.9 L10.9 2.9 11.3 6.05 11.4 6.8 12.15 13.0 12.15 20.75 2.45 20.75 2.6 19.4 2.9 15.75 3.05 14.2 3.75 6.7 3.75 18.6 10.45 19.15 10.45 3.5 5.0 2.9" fill="url(#gradient0)" fill-rule="evenodd" stroke="none"/>
    <path d="M10.9 2.9 L12.45 6.6 14.05 19.4 14.6 24.2 14.7 24.95 15.3 29.85 13.2 21.35 12.95 19.4 12.15 13.0 11.4 6.8 11.3 6.05 10.9 2.9" fill="#8c6300" fill-rule="evenodd" stroke="none"/>
    <path d="M0.0 30.0 L1.15 19.4 1.35 17.4 1.55 15.65 2.45 6.8 4.1 2.9 3.75 6.7 3.05 14.2 2.9 15.75 2.6 19.4 2.45 20.75 2.4 21.35 0.0 30.0" fill="#bf8900" fill-rule="evenodd" stroke="none"/>
    <path d="M4.1 2.9 L5.0 2.9 10.45 3.5 10.45 19.15 3.75 18.6 3.75 6.7 4.1 2.9 M5.2 4.45 L8.2 3.65 4.6 3.65 3.95 13.0 5.2 4.45" fill="#ffc400" fill-rule="evenodd" stroke="none"/>
    <path d="M5.2 4.45 L3.95 13.0 4.6 3.65 8.2 3.65 5.2 4.45" fill="#d2a200" fill-rule="evenodd" stroke="none"/>
    <path d="M12.15 13.0 L12.95 19.4 13.2 21.35 2.4 21.35 2.45 20.75 12.15 20.75 12.15 13.0" fill="url(#gradient1)" fill-rule="evenodd" stroke="none"/>
    <path d="M17.7 18.75 L17.3 18.55 17.7 18.55 17.7 18.75" fill="url(#gradient2)" fill-rule="evenodd" stroke="none"/>
    <path d="M15.3 29.85 L0.0 30.0 2.4 21.35 13.2 21.35 15.3 29.85 M12.1 23.6 L3.05 23.6 0.85 29.1 8.15 29.75 14.5 29.25 12.1 23.6" fill="url(#gradient3)" fill-rule="evenodd" stroke="none"/>
    <path d="M12.1 23.6 L14.5 29.25 8.15 29.75 0.85 29.1 3.05 23.6 12.1 23.6" fill="url(#gradient4)" fill-rule="evenodd" stroke="none"/>
    <path d="M7.7 23.5 L9.7 21.25 11.95 21.25 10.1 23.5 7.7 23.5 M11.55 25.15 L12.6 23.85 12.85 24.75 11.9 25.9 11.55 25.15" fill="url(#gradient5)" fill-rule="evenodd" stroke="none"/>
    <path d="M7.7 23.5 L10.1 23.5 5.1 29.5 2.6 29.3 7.7 23.5" fill="url(#gradient6)" fill-rule="evenodd" stroke="none"/>
    <path d="M11.55 25.15 L11.9 25.9 9.0 29.5 7.9 29.6 11.55 25.15" fill="url(#gradient7)" fill-rule="evenodd" stroke="none"/>
    <path d="M5.1 29.5 L4.8 29.85 2.05 29.9 2.6 29.3 5.1 29.5" fill="url(#gradient8)" fill-rule="evenodd" stroke="none"/>
    <path d="M9.0 29.5 L8.75 29.85 7.7 29.85 7.9 29.6 9.0 29.5" fill="url(#gradient9)" fill-rule="evenodd" stroke="none"/>
    <path d="M10.7 8.1 L3.75 15.45 3.75 14.1 10.65 7.3 10.7 8.1" fill="#ffebad" fill-rule="evenodd" stroke="none"/>
    <path d="M10.65 7.3 L11.3 6.65 11.4 7.4 10.7 8.1 10.65 7.3 M3.75 15.45 L2.9 16.35 3.05 14.8 3.75 14.1 3.75 15.45" fill="url(#gradient10)" fill-rule="evenodd" stroke="none"/>
    <path d="M10.4 21.05 L12.3 20.75 13.25 18.7 13.25 20.7 16.0 21.5 13.05 21.5 13.05 24.0 12.5 21.2 10.4 21.2 10.4 21.05" fill="#ffffff" fill-rule="evenodd" stroke="none"/>
    <path d="M27.15 13.0 L26.4 6.8 26.3 6.05 25.9 2.9 27.45 6.6 29.05 19.4 29.6 24.2 29.7 24.95 30.3 29.85 28.2 21.35 27.95 19.4 27.15 13.0" fill="#8a6200" fill-rule="evenodd" stroke="none"/>
    <path d="M25.9 2.9 L26.3 6.05 26.4 6.8 27.15 13.0 27.15 20.75 17.45 20.75 17.6 19.4 17.9 15.75 18.05 14.2 18.75 6.7 18.75 18.6 25.45 19.15 25.45 3.5 20.0 2.9 25.9 2.9" fill="url(#gradient11)" fill-rule="evenodd" stroke="none"/>
    <path d="M17.45 20.75 L27.15 20.75 27.15 13.0 27.95 19.4 28.2 21.35 17.4 21.35 17.45 20.75" fill="url(#gradient12)" fill-rule="evenodd" stroke="none"/>
    <path d="M20.0 2.9 L25.45 3.5 25.45 19.15 18.75 18.6 18.75 6.7 19.1 2.9 20.0 2.9 M18.95 13.0 L20.2 4.45 23.2 3.65 19.6 3.65 18.95 13.0" fill="#ffc400" fill-rule="evenodd" stroke="none"/>
    <path d="M18.75 6.7 L18.05 14.2 17.9 15.75 17.6 19.4 17.45 20.75 17.4 21.35 15.0 30.0 16.15 19.4 16.35 17.4 16.55 15.65 17.45 6.8 19.1 2.9 18.75 6.7" fill="#c48c00" fill-rule="evenodd" stroke="none"/>
    <path d="M18.95 13.0 L19.6 3.65 23.2 3.65 20.2 4.45 18.95 13.0" fill="#d2a200" fill-rule="evenodd" stroke="none"/>
    <path d="M28.2 21.35 L30.3 29.85 15.0 30.0 17.4 21.35 28.2 21.35 M23.15 29.75 L29.5 29.25 27.1 23.6 18.05 23.6 15.85 29.1 23.15 29.75" fill="url(#gradient13)" fill-rule="evenodd" stroke="none"/>
    <path d="M23.15 29.75 L15.85 29.1 18.05 23.6 27.1 23.6 29.5 29.25 23.15 29.75" fill="url(#gradient14)" fill-rule="evenodd" stroke="none"/>
    <path d="M22.7 23.5 L24.7 21.25 26.95 21.25 25.1 23.5 22.7 23.5 M26.55 25.15 L27.6 23.85 27.85 24.75 26.9 25.9 26.55 25.15" fill="url(#gradient15)" fill-rule="evenodd" stroke="none"/>
    <path d="M25.1 23.5 L20.1 29.5 17.6 29.3 22.7 23.5 25.1 23.5" fill="url(#gradient16)" fill-rule="evenodd" stroke="none"/>
    <path d="M20.1 29.5 L19.8 29.85 17.05 29.9 17.6 29.3 20.1 29.5" fill="url(#gradient17)" fill-rule="evenodd" stroke="none"/>
    <path d="M22.9 29.6 L26.55 25.15 26.9 25.9 24.0 29.5 22.9 29.6" fill="url(#gradient18)" fill-rule="evenodd" stroke="none"/>
    <path d="M24.0 29.5 L23.75 29.85 22.7 29.85 22.9 29.6 24.0 29.5" fill="url(#gradient19)" fill-rule="evenodd" stroke="none"/>
    <path d="M25.65 7.3 L26.3 6.65 26.4 7.4 25.7 8.1 25.65 7.3 M18.75 15.45 L17.9 16.35 18.05 14.8 18.75 14.1 18.75 15.45" fill="url(#gradient20)" fill-rule="evenodd" stroke="none"/>
    <path d="M25.7 8.1 L18.75 15.45 18.75 14.1 25.65 7.3 25.7 8.1" fill="#ffebad" fill-rule="evenodd" stroke="none"/>
    <path d="M24.2 20.95 L26.1 20.65 27.05 18.6 27.05 20.6 29.8 21.4 26.85 21.4 26.85 23.9 26.3 21.1 24.2 21.1 24.2 20.95" fill="#ffffff" fill-rule="evenodd" stroke="none"/>
    <path d="M2.65 18.05 L3.65 9.2 3.8 7.5 3.95 6.05 4.7 -1.35 6.1 -4.6 5.8 -1.45 5.2 4.85 5.1 6.15 4.85 9.2 4.7 10.3 4.7 10.8 2.65 18.05" fill="#d99b00" fill-rule="evenodd" stroke="none"/>
    <path d="M6.1 -4.6 L6.85 -4.6 11.4 -4.1 11.4 8.95 5.8 8.5 5.8 -1.45 6.1 -4.6 M7.0 -3.35 L9.55 -4.0 6.5 -4.0 6.0 3.85 7.0 -3.35" fill="#e5b000" fill-rule="evenodd" stroke="none"/>
    <path d="M7.0 -3.35 L6.0 3.85 6.5 -4.0 9.55 -4.0 7.0 -3.35" fill="#c49700" fill-rule="evenodd" stroke="none"/>
    <path d="M6.85 -4.6 L11.8 -4.6 12.15 -2.0 12.2 -1.35 12.85 3.85 12.85 10.3 4.7 10.3 4.85 9.2 5.1 6.15 5.2 4.85 5.8 -1.45 5.8 8.5 11.4 8.95 11.4 -4.1 6.85 -4.6" fill="url(#gradient21)" fill-rule="evenodd" stroke="none"/>
    <path d="M11.8 -4.6 L13.1 -1.55 14.45 9.2 14.9 13.2 14.95 13.8 15.45 17.9 13.7 10.8 13.5 9.2 12.85 3.85 12.2 -1.35 12.15 -2.0 11.8 -4.6" fill="#bb8500" fill-rule="evenodd" stroke="none"/>
    <path d="M17.5 8.65 L17.15 8.45 17.5 8.45 17.5 8.65" fill="url(#gradient22)" fill-rule="evenodd" stroke="none"/>
    <path d="M4.7 10.8 L4.7 10.3 12.85 10.3 12.85 3.85 13.5 9.2 13.7 10.8 4.7 10.8" fill="url(#gradient23)" fill-rule="evenodd" stroke="none"/>
    <path d="M15.45 17.9 L2.65 18.05 4.7 10.8 13.7 10.8 15.45 17.9 M5.2 12.7 L3.4 17.3 9.5 17.85 14.8 17.4 12.8 12.7 5.2 12.7" fill="url(#gradient24)" fill-rule="evenodd" stroke="none"/>
    <path d="M5.2 12.7 L12.8 12.7 14.8 17.4 9.5 17.85 3.4 17.3 5.2 12.7" fill="url(#gradient25)" fill-rule="evenodd" stroke="none"/>
    <path d="M8.35 17.75 L9.25 17.7 9.05 18.0 8.2 18.0 8.35 17.75" fill="url(#gradient26)" fill-rule="evenodd" stroke="none"/>
    <path d="M9.25 17.7 L8.35 17.75 11.4 14.05 11.7 14.65 9.25 17.7" fill="url(#gradient27)" fill-rule="evenodd" stroke="none"/>
    <path d="M6.0 17.7 L5.75 18.0 3.45 18.0 3.9 17.5 6.0 17.7" fill="url(#gradient28)" fill-rule="evenodd" stroke="none"/>
    <path d="M3.9 17.5 L8.2 12.65 10.2 12.65 6.0 17.7 3.9 17.5" fill="url(#gradient29)" fill-rule="evenodd" stroke="none"/>
    <path d="M11.7 14.65 L11.4 14.05 12.3 12.95 12.5 13.7 11.7 14.65 M8.2 12.65 L9.85 10.8 11.75 10.8 10.2 12.65 8.2 12.65" fill="url(#gradient30)" fill-rule="evenodd" stroke="none"/>
    <path d="M10.45 10.45 L10.45 10.3 12.05 10.05 12.85 8.35 12.85 10.0 15.15 10.7 12.65 10.7 12.65 12.8 12.2 10.45 10.45 10.45" fill="#ffffff" fill-rule="evenodd" stroke="none"/>
    <path d="M15.15 18.0 L16.15 9.15 16.3 7.45 16.45 6.0 17.2 -1.4 18.6 -4.65 18.3 -1.5 17.7 4.8 17.6 6.1 17.35 9.15 17.2 10.25 17.2 10.75 15.15 18.0" fill="#d99b00" fill-rule="evenodd" stroke="none"/>
    <path d="M18.6 -4.65 L19.35 -4.65 23.9 -4.15 23.9 8.9 18.3 8.45 18.3 -1.5 18.6 -4.65 M19.5 -3.4 L22.05 -4.05 19.0 -4.05 18.5 3.8 19.5 -3.4" fill="#eeb700" fill-rule="evenodd" stroke="none"/>
    <path d="M24.3 -4.65 L25.6 -1.6 26.95 9.15 27.4 13.15 27.45 13.75 27.95 17.85 26.2 10.75 26.0 9.15 25.35 3.8 24.7 -1.4 24.65 -2.05 24.3 -4.65" fill="#bb8500" fill-rule="evenodd" stroke="none"/>
    <path d="M19.35 -4.65 L24.3 -4.65 24.65 -2.05 24.7 -1.4 25.35 3.8 25.35 10.25 17.2 10.25 17.35 9.15 17.6 6.1 17.7 4.8 18.3 -1.5 18.3 8.45 23.9 8.9 23.9 -4.15 19.35 -4.65" fill="url(#gradient31)" fill-rule="evenodd" stroke="none"/>
    <path d="M19.5 -3.4 L18.5 3.8 19.0 -4.05 22.05 -4.05 19.5 -3.4" fill="#d2a200" fill-rule="evenodd" stroke="none"/>
    <path d="M17.2 10.75 L17.2 10.25 25.35 10.25 25.35 3.8 26.0 9.15 26.2 10.75 17.2 10.75" fill="url(#gradient32)" fill-rule="evenodd" stroke="none"/>
    <path d="M30.0 8.4 L30.0 8.6 29.65 8.4 30.0 8.4" fill="url(#gradient33)" fill-rule="evenodd" stroke="none"/>
    <path d="M27.95 17.85 L15.15 18.0 17.2 10.75 26.2 10.75 27.95 17.85 M27.3 17.35 L25.3 12.65 17.7 12.65 15.9 17.25 22.0 17.8 27.3 17.35" fill="url(#gradient34)" fill-rule="evenodd" stroke="none"/>
    <path d="M27.3 17.35 L22.0 17.8 15.9 17.25 17.7 12.65 25.3 12.65 27.3 17.35" fill="url(#gradient35)" fill-rule="evenodd" stroke="none"/>
    <path d="M20.7 12.6 L22.35 10.75 24.25 10.75 22.7 12.6 20.7 12.6 M23.9 14.0 L24.8 12.9 25.0 13.65 24.2 14.6 23.9 14.0" fill="url(#gradient36)" fill-rule="evenodd" stroke="none"/>
    <path d="M24.2 14.6 L21.75 17.65 20.85 17.7 23.9 14.0 24.2 14.6" fill="url(#gradient37)" fill-rule="evenodd" stroke="none"/>
    <path d="M20.7 12.6 L22.7 12.6 18.5 17.65 16.4 17.45 20.7 12.6" fill="url(#gradient38)" fill-rule="evenodd" stroke="none"/>
    <path d="M21.75 17.65 L21.55 17.95 20.7 17.95 20.85 17.7 21.75 17.65" fill="url(#gradient39)" fill-rule="evenodd" stroke="none"/>
    <path d="M18.5 17.65 L18.25 17.95 15.95 17.95 16.4 17.45 18.5 17.65" fill="url(#gradient40)" fill-rule="evenodd" stroke="none"/>
    <path d="M22.95 10.4 L22.95 10.25 24.55 10.0 25.35 8.3 25.35 9.95 27.65 10.65 25.15 10.65 25.15 12.75 24.7 10.4 22.95 10.4" fill="#ffffff" fill-rule="evenodd" stroke="none"/>
    <path d="M18.25 -10.6 L18.55 -8.2 18.65 -7.6 19.2 -2.8 19.2 3.15 11.7 3.15 11.85 2.15 12.05 -0.65 12.2 -1.85 12.7 -7.7 12.7 1.5 17.9 1.95 17.9 -10.15 13.65 -10.6 18.25 -10.6" fill="url(#gradient41)" fill-rule="evenodd" stroke="none"/>
    <path d="M19.2 -2.8 L18.65 -7.6 18.55 -8.2 18.25 -10.6 19.5 -7.8 20.7 2.15 21.15 5.85 21.2 6.4 21.65 10.2 20.0 3.65 19.85 2.15 19.2 -2.8" fill="#bb8500" fill-rule="evenodd" stroke="none"/>
    <path d="M12.7 -7.7 L12.2 -1.85 12.05 -0.65 11.85 2.15 11.7 3.15 11.7 3.65 9.85 10.35 10.75 2.15 10.85 0.6 11.0 -0.8 11.7 -7.6 13.0 -10.6 12.7 -7.7" fill="#d99b00" fill-rule="evenodd" stroke="none"/>
    <path d="M13.65 -10.6 L17.9 -10.15 17.9 1.95 12.7 1.5 12.7 -7.7 13.0 -10.6 13.65 -10.6" fill="#eec400" fill-rule="evenodd" stroke="none"/>
    <path d="M23.2 1.45 L23.55 1.45 23.55 1.6 23.2 1.45" fill="url(#gradient42)" fill-rule="evenodd" stroke="none"/>
    <path d="M11.7 3.15 L19.2 3.15 19.2 -2.8 19.85 2.15 20.0 3.65 11.7 3.65 11.7 3.15" fill="url(#gradient43)" fill-rule="evenodd" stroke="none"/>
    <path d="M20.0 3.65 L21.65 10.2 9.85 10.35 11.7 3.65 20.0 3.65 M12.2 5.4 L10.5 9.65 16.1 10.15 21.05 9.7 19.2 5.4 12.2 5.4" fill="url(#gradient44)" fill-rule="evenodd" stroke="none"/>
    <path d="M12.2 5.4 L19.2 5.4 21.05 9.7 16.1 10.15 10.5 9.65 12.2 5.4" fill="url(#gradient45)" fill-rule="evenodd" stroke="none"/>
    <path d="M15.0 5.6 L16.5 3.9 18.3 3.9 16.85 5.6 16.75 5.6 15.0 5.6" fill="url(#gradient46)" fill-rule="evenodd" stroke="none"/>
    <path d="M16.75 5.6 L13.1 10.0 11.15 9.8 15.15 5.3 15.25 5.3 14.95 5.6 15.0 5.6 16.75 5.6" fill="url(#gradient47)" fill-rule="evenodd" stroke="none"/>
    <path d="M13.1 10.0 L12.85 10.25 10.75 10.25 11.15 9.8 13.1 10.0" fill="url(#gradient48)" fill-rule="evenodd" stroke="none"/>
    <path d="M18.1 6.6 L18.95 5.6 19.1 6.3 18.35 7.15 18.1 6.6" fill="url(#gradient49)" fill-rule="evenodd" stroke="none"/>
    <path d="M18.35 7.15 L16.1 10.0 15.25 10.05 18.1 6.6 18.35 7.15" fill="url(#gradient50)" fill-rule="evenodd" stroke="none"/>
    <path d="M16.1 10.0 L15.9 10.25 15.15 10.25 15.25 10.05 16.1 10.0" fill="url(#gradient51)" fill-rule="evenodd" stroke="none"/>
    <path d="M16.4 -10.15 L13.85 -9.5 12.85 -2.3 13.35 -10.15 16.4 -10.15" fill="#c49700" fill-rule="evenodd" stroke="none"/>
    <path d="M17.95 -7.9 L18.0 -7.3 12.65 -1.6 12.65 -2.65 17.95 -7.9 M18.2 -5.85 L18.25 -5.1 12.65 1.7 12.65 0.45 18.2 -5.85" fill="#ffebad" fill-rule="evenodd" stroke="none"/>
    <path d="M18.0 -7.3 L17.95 -7.9 18.45 -8.45 18.55 -7.85 18.0 -7.3 M12.65 -2.65 L12.65 -1.6 11.95 -0.9 12.1 -2.1 12.65 -2.65" fill="url(#gradient52)" fill-rule="evenodd" stroke="none"/>
    <path d="M18.25 -5.1 L18.2 -5.85 18.75 -6.5 18.85 -5.8 18.25 -5.1 M12.65 0.45 L12.65 1.7 11.95 2.55 12.1 1.1 12.65 0.45" fill="url(#gradient53)" fill-rule="evenodd" stroke="none"/>
    <path d="M18.6 3.3 L16.95 3.3 16.95 3.15 18.45 2.95 19.2 1.35 19.2 2.9 21.3 3.55 19.0 3.55 19.0 5.5 18.6 3.3" fill="#ffffff" fill-rule="evenodd" stroke="none"/>
  </g>
  <defs>
    <linearGradient gradientTransform="matrix(0.0, 0.0107, -0.0113, 0.0, 7.85, 12.7)" gradientUnits="userSpaceOnUse" id="gradient0" spreadMethod="pad" x1="-819.2" x2="819.2">
      <stop offset="0.0" stop-color="#ffe000"/>
      <stop offset="1.0" stop-color="#f5e360"/>
    </linearGradient>
    <linearGradient gradientTransform="matrix(0.0, 0.0107, -0.0113, 0.0, 7.85, 12.7)" gradientUnits="userSpaceOnUse" id="gradient1" spreadMethod="pad" x1="-819.2" x2="819.2">
      <stop offset="0.0" stop-color="#faf2c0"/>
      <stop offset="0.9882352941176471" stop-color="#fff6b1"/>
    </linearGradient>
    <linearGradient gradientTransform="matrix(0.0, 0.0107, -0.0113, 0.0, 7.85, 12.7)" gradientUnits="userSpaceOnUse" id="gradient2" spreadMethod="pad" x1="-819.2" x2="819.2">
      <stop offset="0.0" stop-color="#fff4aa"/>
      <stop offset="1.0" stop-color="#fcf094"/>
    </linearGradient>
    <linearGradient gradientTransform="matrix(0.0, -0.0053, 0.0093, 0.0, 7.65, 25.65)" gradientUnits="userSpaceOnUse" id="gradient3" spreadMethod="pad" x1="-819.2" x2="819.2">
      <stop offset="0.0" stop-color="#d9a700"/>
      <stop offset="1.0" stop-color="#fcd75f"/>
    </linearGradient>
    <linearGradient gradientTransform="matrix(0.0, -0.0044, 0.0083, 0.0, 7.65, 26.15)" gradientUnits="userSpaceOnUse" id="gradient4" spreadMethod="pad" x1="-819.2" x2="819.2">
      <stop offset="0.0" stop-color="#bd7c00"/>
      <stop offset="1.0" stop-color="#e2ad00"/>
    </linearGradient>
    <linearGradient gradientTransform="matrix(0.0, -0.0053, 0.0093, 0.0, 6.4, 25.55)" gradientUnits="userSpaceOnUse" id="gradient5" spreadMethod="pad" x1="-819.2" x2="819.2">
      <stop offset="0.0" stop-color="#eebc13"/>
      <stop offset="1.0" stop-color="#fade85"/>
    </linearGradient>
    <linearGradient gradientTransform="matrix(0.0, -0.0044, 0.0083, 0.0, 6.4, 26.05)" gradientUnits="userSpaceOnUse" id="gradient6" spreadMethod="pad" x1="-819.2" x2="819.2">
      <stop offset="0.0" stop-color="#fab93e"/>
      <stop offset="1.0" stop-color="#ffd448"/>
    </linearGradient>
    <linearGradient gradientTransform="matrix(0.0, -0.0044, 0.0083, 0.0, 6.4, 26.05)" gradientUnits="userSpaceOnUse" id="gradient7" spreadMethod="pad" x1="-819.2" x2="819.2">
      <stop offset="0.0" stop-color="#e79802"/>
      <stop offset="1.0" stop-color="#ffc919"/>
    </linearGradient>
    <linearGradient gradientTransform="matrix(0.0, -0.0053, 0.0093, 0.0, 6.4, 25.55)" gradientUnits="userSpaceOnUse" id="gradient8" spreadMethod="pad" x1="-819.2" x2="819.2">
      <stop offset="0.0" stop-color="#fadd7e"/>
      <stop offset="1.0" stop-color="#ffe38c"/>
      <stop offset="1.0" stop-color="#ffe8a3"/>
    </linearGradient>
    <linearGradient gradientTransform="matrix(0.0, -0.0053, 0.0093, 0.0, 6.4, 25.55)" gradientUnits="userSpaceOnUse" id="gradient9" spreadMethod="pad" x1="-819.2" x2="819.2">
      <stop offset="0.0" stop-color="#f7be00"/>
      <stop offset="1.0" stop-color="#ffe38c"/>
    </linearGradient>
    <linearGradient gradientTransform="matrix(0.0, 0.0107, -0.0113, 0.0, 7.85, 13.3)" gradientUnits="userSpaceOnUse" id="gradient10" spreadMethod="pad" x1="-819.2" x2="819.2">
      <stop offset="0.0" stop-color="#faf6dc"/>
      <stop offset="1.0" stop-color="#fafafa"/>
    </linearGradient>
    <linearGradient gradientTransform="matrix(0.0, 0.0107, -0.0113, 0.0, 22.85, 12.7)" gradientUnits="userSpaceOnUse" id="gradient11" spreadMethod="pad" x1="-819.2" x2="819.2">
      <stop offset="0.0" stop-color="#ffe000"/>
      <stop offset="1.0" stop-color="#f5e360"/>
    </linearGradient>
    <linearGradient gradientTransform="matrix(0.0, 0.0107, -0.0113, 0.0, 22.85, 12.7)" gradientUnits="userSpaceOnUse" id="gradient12" spreadMethod="pad" x1="-819.2" x2="819.2">
      <stop offset="0.0" stop-color="#faf2c0"/>
      <stop offset="0.9882352941176471" stop-color="#fff6b1"/>
    </linearGradient>
    <linearGradient gradientTransform="matrix(0.0, -0.0053, 0.0093, 0.0, 22.65, 25.65)" gradientUnits="userSpaceOnUse" id="gradient13" spreadMethod="pad" x1="-819.2" x2="819.2">
      <stop offset="0.0" stop-color="#d9a700"/>
      <stop offset="1.0" stop-color="#fcd75f"/>
    </linearGradient>
    <linearGradient gradientTransform="matrix(0.0, -0.0044, 0.0083, 0.0, 22.65, 26.15)" gradientUnits="userSpaceOnUse" id="gradient14" spreadMethod="pad" x1="-819.2" x2="819.2">
      <stop offset="0.0" stop-color="#bd7c00"/>
      <stop offset="1.0" stop-color="#e2ad00"/>
    </linearGradient>
    <linearGradient gradientTransform="matrix(0.0, -0.0053, 0.0093, 0.0, 21.4, 25.55)" gradientUnits="userSpaceOnUse" id="gradient15" spreadMethod="pad" x1="-819.2" x2="819.2">
      <stop offset="0.0" stop-color="#eebc13"/>
      <stop offset="1.0" stop-color="#fade85"/>
    </linearGradient>
    <linearGradient gradientTransform="matrix(0.0, -0.0044, 0.0083, 0.0, 21.4, 26.05)" gradientUnits="userSpaceOnUse" id="gradient16" spreadMethod="pad" x1="-819.2" x2="819.2">
      <stop offset="0.0" stop-color="#fab93e"/>
      <stop offset="1.0" stop-color="#ffd448"/>
    </linearGradient>
    <linearGradient gradientTransform="matrix(0.0, -0.0053, 0.0093, 0.0, 21.4, 25.55)" gradientUnits="userSpaceOnUse" id="gradient17" spreadMethod="pad" x1="-819.2" x2="819.2">
      <stop offset="0.0" stop-color="#fadd7e"/>
      <stop offset="1.0" stop-color="#ffe38c"/>
      <stop offset="1.0" stop-color="#ffe8a3"/>
    </linearGradient>
    <linearGradient gradientTransform="matrix(0.0, -0.0044, 0.0083, 0.0, 21.4, 26.05)" gradientUnits="userSpaceOnUse" id="gradient18" spreadMethod="pad" x1="-819.2" x2="819.2">
      <stop offset="0.0" stop-color="#e79802"/>
      <stop offset="1.0" stop-color="#ffc919"/>
    </linearGradient>
    <linearGradient gradientTransform="matrix(0.0, -0.0053, 0.0093, 0.0, 21.4, 25.55)" gradientUnits="userSpaceOnUse" id="gradient19" spreadMethod="pad" x1="-819.2" x2="819.2">
      <stop offset="0.0" stop-color="#f7be00"/>
      <stop offset="1.0" stop-color="#ffe38c"/>
    </linearGradient>
    <linearGradient gradientTransform="matrix(0.0, 0.0107, -0.0113, 0.0, 22.85, 13.3)" gradientUnits="userSpaceOnUse" id="gradient20" spreadMethod="pad" x1="-819.2" x2="819.2">
      <stop offset="0.0" stop-color="#faf6dc"/>
      <stop offset="1.0" stop-color="#fafafa"/>
    </linearGradient>
    <linearGradient gradientTransform="matrix(0.0, 0.009, -0.0094, 0.0, 9.25, 3.55)" gradientUnits="userSpaceOnUse" id="gradient21" spreadMethod="pad" x1="-819.2" x2="819.2">
      <stop offset="0.0" stop-color="#ffe000"/>
      <stop offset="1.0" stop-color="#f5e360"/>
    </linearGradient>
    <linearGradient gradientTransform="matrix(0.0, 0.009, -0.0094, 0.0, 9.25, 3.55)" gradientUnits="userSpaceOnUse" id="gradient22" spreadMethod="pad" x1="-819.2" x2="819.2">
      <stop offset="0.0" stop-color="#fff4aa"/>
      <stop offset="1.0" stop-color="#fcf094"/>
    </linearGradient>
    <linearGradient gradientTransform="matrix(0.0, 0.009, -0.0094, 0.0, 9.25, 3.55)" gradientUnits="userSpaceOnUse" id="gradient23" spreadMethod="pad" x1="-819.2" x2="819.2">
      <stop offset="0.0" stop-color="#faf2c0"/>
      <stop offset="0.9882352941176471" stop-color="#fff6b1"/>
    </linearGradient>
    <linearGradient gradientTransform="matrix(0.0, -0.0044, 0.0078, 0.0, 9.05, 14.4)" gradientUnits="userSpaceOnUse" id="gradient24" spreadMethod="pad" x1="-819.2" x2="819.2">
      <stop offset="0.0" stop-color="#d9a700"/>
      <stop offset="1.0" stop-color="#fcd75f"/>
    </linearGradient>
    <linearGradient gradientTransform="matrix(0.0, -0.0037, 0.007, 0.0, 9.05, 14.85)" gradientUnits="userSpaceOnUse" id="gradient25" spreadMethod="pad" x1="-819.2" x2="819.2">
      <stop offset="0.0" stop-color="#bd7c00"/>
      <stop offset="1.0" stop-color="#e2ad00"/>
    </linearGradient>
    <linearGradient gradientTransform="matrix(0.0, -0.0044, 0.0078, 0.0, 7.1, 14.4)" gradientUnits="userSpaceOnUse" id="gradient26" spreadMethod="pad" x1="-819.2" x2="819.2">
      <stop offset="0.0" stop-color="#f7be00"/>
      <stop offset="1.0" stop-color="#ffe38c"/>
    </linearGradient>
    <linearGradient gradientTransform="matrix(0.0, -0.0037, 0.007, 0.0, 7.1, 14.8)" gradientUnits="userSpaceOnUse" id="gradient27" spreadMethod="pad" x1="-819.2" x2="819.2">
      <stop offset="0.0" stop-color="#e79802"/>
      <stop offset="1.0" stop-color="#ffc919"/>
    </linearGradient>
    <linearGradient gradientTransform="matrix(0.0, -0.0044, 0.0078, 0.0, 7.1, 14.4)" gradientUnits="userSpaceOnUse" id="gradient28" spreadMethod="pad" x1="-819.2" x2="819.2">
      <stop offset="0.0" stop-color="#fadd7e"/>
      <stop offset="1.0" stop-color="#ffe38c"/>
      <stop offset="1.0" stop-color="#ffe8a3"/>
    </linearGradient>
    <linearGradient gradientTransform="matrix(0.0, -0.0037, 0.007, 0.0, 7.1, 14.8)" gradientUnits="userSpaceOnUse" id="gradient29" spreadMethod="pad" x1="-819.2" x2="819.2">
      <stop offset="0.0" stop-color="#fab93e"/>
      <stop offset="1.0" stop-color="#ffd448"/>
    </linearGradient>
    <linearGradient gradientTransform="matrix(0.0, -0.0044, 0.0078, 0.0, 7.1, 14.4)" gradientUnits="userSpaceOnUse" id="gradient30" spreadMethod="pad" x1="-819.2" x2="819.2">
      <stop offset="0.0" stop-color="#eebc13"/>
      <stop offset="1.0" stop-color="#fade85"/>
    </linearGradient>
    <linearGradient gradientTransform="matrix(0.0, 0.009, -0.0094, 0.0, 21.75, 3.5)" gradientUnits="userSpaceOnUse" id="gradient31" spreadMethod="pad" x1="-819.2" x2="819.2">
      <stop offset="0.0" stop-color="#ffe000"/>
      <stop offset="1.0" stop-color="#f5e360"/>
    </linearGradient>
    <linearGradient gradientTransform="matrix(0.0, 0.009, -0.0094, 0.0, 21.75, 3.5)" gradientUnits="userSpaceOnUse" id="gradient32" spreadMethod="pad" x1="-819.2" x2="819.2">
      <stop offset="0.0" stop-color="#faf2c0"/>
      <stop offset="0.9882352941176471" stop-color="#fff6b1"/>
    </linearGradient>
    <linearGradient gradientTransform="matrix(0.0, 0.009, -0.0094, 0.0, 21.75, 3.5)" gradientUnits="userSpaceOnUse" id="gradient33" spreadMethod="pad" x1="-819.2" x2="819.2">
      <stop offset="0.0" stop-color="#fff4aa"/>
      <stop offset="1.0" stop-color="#fcf094"/>
    </linearGradient>
    <linearGradient gradientTransform="matrix(0.0, -0.0044, 0.0078, 0.0, 21.55, 14.35)" gradientUnits="userSpaceOnUse" id="gradient34" spreadMethod="pad" x1="-819.2" x2="819.2">
      <stop offset="0.0" stop-color="#d9a700"/>
      <stop offset="1.0" stop-color="#fcd75f"/>
    </linearGradient>
    <linearGradient gradientTransform="matrix(0.0, -0.0037, 0.007, 0.0, 21.55, 14.8)" gradientUnits="userSpaceOnUse" id="gradient35" spreadMethod="pad" x1="-819.2" x2="819.2">
      <stop offset="0.0" stop-color="#bd7c00"/>
      <stop offset="1.0" stop-color="#e2ad00"/>
    </linearGradient>
    <linearGradient gradientTransform="matrix(0.0, -0.0044, 0.0078, 0.0, 19.6, 14.35)" gradientUnits="userSpaceOnUse" id="gradient36" spreadMethod="pad" x1="-819.2" x2="819.2">
      <stop offset="0.0" stop-color="#eebc13"/>
      <stop offset="1.0" stop-color="#fade85"/>
    </linearGradient>
    <linearGradient gradientTransform="matrix(0.0, -0.0037, 0.007, 0.0, 19.6, 14.75)" gradientUnits="userSpaceOnUse" id="gradient37" spreadMethod="pad" x1="-819.2" x2="819.2">
      <stop offset="0.0" stop-color="#e79802"/>
      <stop offset="1.0" stop-color="#ffc919"/>
    </linearGradient>
    <linearGradient gradientTransform="matrix(0.0, -0.0037, 0.007, 0.0, 19.6, 14.75)" gradientUnits="userSpaceOnUse" id="gradient38" spreadMethod="pad" x1="-819.2" x2="819.2">
      <stop offset="0.0" stop-color="#fab93e"/>
      <stop offset="1.0" stop-color="#ffd448"/>
    </linearGradient>
    <linearGradient gradientTransform="matrix(0.0, -0.0044, 0.0078, 0.0, 19.6, 14.35)" gradientUnits="userSpaceOnUse" id="gradient39" spreadMethod="pad" x1="-819.2" x2="819.2">
      <stop offset="0.0" stop-color="#f7be00"/>
      <stop offset="1.0" stop-color="#ffe38c"/>
    </linearGradient>
    <linearGradient gradientTransform="matrix(0.0, -0.0044, 0.0078, 0.0, 19.6, 14.35)" gradientUnits="userSpaceOnUse" id="gradient40" spreadMethod="pad" x1="-819.2" x2="819.2">
      <stop offset="0.0" stop-color="#fadd7e"/>
      <stop offset="1.0" stop-color="#ffe38c"/>
      <stop offset="1.0" stop-color="#ffe8a3"/>
    </linearGradient>
    <linearGradient gradientTransform="matrix(0.0, 0.0083, -0.0087, 0.0, 15.9, -3.05)" gradientUnits="userSpaceOnUse" id="gradient41" spreadMethod="pad" x1="-819.2" x2="819.2">
      <stop offset="0.0" stop-color="#ffe000"/>
      <stop offset="1.0" stop-color="#f5e360"/>
    </linearGradient>
    <linearGradient gradientTransform="matrix(0.0, 0.0083, -0.0087, 0.0, 15.9, -3.05)" gradientUnits="userSpaceOnUse" id="gradient42" spreadMethod="pad" x1="-819.2" x2="819.2">
      <stop offset="0.0" stop-color="#fff4aa"/>
      <stop offset="1.0" stop-color="#fcf094"/>
    </linearGradient>
    <linearGradient gradientTransform="matrix(0.0, 0.0083, -0.0087, 0.0, 15.9, -3.05)" gradientUnits="userSpaceOnUse" id="gradient43" spreadMethod="pad" x1="-819.2" x2="819.2">
      <stop offset="0.0" stop-color="#faf2c0"/>
      <stop offset="0.9882352941176471" stop-color="#fff6b1"/>
    </linearGradient>
    <linearGradient gradientTransform="matrix(0.0, -0.0041, 0.0072, 0.0, 15.75, 6.95)" gradientUnits="userSpaceOnUse" id="gradient44" spreadMethod="pad" x1="-819.2" x2="819.2">
      <stop offset="0.0" stop-color="#d9a700"/>
      <stop offset="1.0" stop-color="#fcd75f"/>
    </linearGradient>
    <linearGradient gradientTransform="matrix(0.0, -0.0034, 0.0064, 0.0, 15.75, 7.4)" gradientUnits="userSpaceOnUse" id="gradient45" spreadMethod="pad" x1="-819.2" x2="819.2">
      <stop offset="0.0" stop-color="#bd7c00"/>
      <stop offset="1.0" stop-color="#e2ad00"/>
    </linearGradient>
    <linearGradient gradientTransform="matrix(0.0, -0.0041, 0.0072, 0.0, 14.0, 7.2)" gradientUnits="userSpaceOnUse" id="gradient46" spreadMethod="pad" x1="-819.2" x2="819.2">
      <stop offset="0.0" stop-color="#fae499"/>
      <stop offset="1.0" stop-color="#ffe9a6"/>
    </linearGradient>
    <linearGradient gradientTransform="matrix(0.0, -0.0034, 0.0065, 0.0, 14.1, 7.3)" gradientUnits="userSpaceOnUse" id="gradient47" spreadMethod="pad" x1="-819.2" x2="819.2">
      <stop offset="0.0" stop-color="#faeaa0"/>
      <stop offset="1.0" stop-color="#fcecb7"/>
    </linearGradient>
    <linearGradient gradientTransform="matrix(0.0, -0.0041, 0.0072, 0.0, 14.1, 6.95)" gradientUnits="userSpaceOnUse" id="gradient48" spreadMethod="pad" x1="-819.2" x2="819.2">
      <stop offset="0.0" stop-color="#fff2c9"/>
      <stop offset="1.0" stop-color="#ffeebb"/>
      <stop offset="1.0" stop-color="#ffe8a3"/>
    </linearGradient>
    <linearGradient gradientTransform="matrix(0.0, -0.0041, 0.0072, 0.0, 14.1, 6.95)" gradientUnits="userSpaceOnUse" id="gradient49" spreadMethod="pad" x1="-819.2" x2="819.2">
      <stop offset="0.0" stop-color="#eebc13"/>
      <stop offset="1.0" stop-color="#fade85"/>
    </linearGradient>
    <linearGradient gradientTransform="matrix(0.0, -0.0034, 0.0065, 0.0, 14.1, 7.3)" gradientUnits="userSpaceOnUse" id="gradient50" spreadMethod="pad" x1="-819.2" x2="819.2">
      <stop offset="0.0" stop-color="#e79802"/>
      <stop offset="1.0" stop-color="#ffc919"/>
    </linearGradient>
    <linearGradient gradientTransform="matrix(0.0, -0.0041, 0.0072, 0.0, 14.1, 6.95)" gradientUnits="userSpaceOnUse" id="gradient51" spreadMethod="pad" x1="-819.2" x2="819.2">
      <stop offset="0.0" stop-color="#f7be00"/>
      <stop offset="1.0" stop-color="#ffe38c"/>
    </linearGradient>
    <linearGradient gradientTransform="matrix(0.0, 0.0083, -0.0087, 0.0, 15.8, -3.25)" gradientUnits="userSpaceOnUse" id="gradient52" spreadMethod="pad" x1="-819.2" x2="819.2">
      <stop offset="0.0" stop-color="#faf6dc"/>
      <stop offset="1.0" stop-color="#fafafa"/>
    </linearGradient>
    <linearGradient gradientTransform="matrix(0.0, 0.0083, -0.0087, 0.0, 15.8, -0.85)" gradientUnits="userSpaceOnUse" id="gradient53" spreadMethod="pad" x1="-819.2" x2="819.2">
      <stop offset="0.0" stop-color="#faf6dc"/>
      <stop offset="1.0" stop-color="#fafafa"/>
    </linearGradient>
  </defs>
</svg>
