<?xml version="1.0" encoding="UTF-8" standalone="no"?>
<svg xmlns:xlink="http://www.w3.org/1999/xlink" height="41.55px" width="30.9px" xmlns="http://www.w3.org/2000/svg">
  <g transform="matrix(1.0, 0.0, 0.0, 1.0, 0.2, 10.65)">
    <path d="M7.45 -9.1 L8.05 -9.1 Q15.2 -10.2 22.25 -9.1 L23.2 -9.1 23.75 -9.05 24.35 -9.1 24.9 -9.05 25.75 -8.95 Q26.9 -8.65 27.9 -7.95 L28.15 -7.8 Q29.65 -6.5 29.65 -4.75 L29.65 -4.25 29.65 -4.05 29.65 -3.45 29.65 -2.55 29.65 -2.45 29.65 -1.15 29.65 0.15 29.65 2.45 29.7 7.2 29.7 7.8 29.7 8.6 29.65 8.6 29.65 8.85 Q29.65 10.8 28.15 12.0 L27.5 12.5 Q28.05 14.1 28.05 16.0 L28.0 17.1 28.05 18.25 Q28.05 22.95 24.25 26.55 20.45 29.9 15.15 29.9 12.35 29.9 10.05 29.05 7.7 28.2 5.8 26.55 L4.75 25.45 Q1.95 22.25 1.95 18.25 L2.0 17.1 1.95 16.0 Q1.95 13.95 2.65 12.15 L2.45 12.0 Q0.85 10.8 0.85 8.85 L0.85 8.7 0.8 8.7 0.8 7.85 0.8 7.25 0.8 6.9 0.85 2.45 0.85 0.15 0.85 -1.15 0.85 -2.45 0.85 -3.45 0.85 -4.05 0.9 -4.25 0.9 -4.4 0.85 -4.75 Q0.85 -6.5 2.45 -7.8 L2.6 -7.85 Q3.55 -8.6 4.65 -8.8 L6.35 -9.1 6.9 -9.05 7.45 -9.1" fill="#dba972" fill-rule="evenodd" stroke="none"/>
    <path d="M7.45 -9.1 L6.9 -9.05 6.35 -9.1 4.65 -8.8 Q3.55 -8.6 2.6 -7.85 L2.45 -7.8 Q0.85 -6.5 0.85 -4.75 L0.9 -4.4 0.9 -4.25 0.85 -4.05 0.85 -3.45 0.85 -2.45 0.85 -1.15 0.85 0.15 0.85 2.45 0.8 6.9 0.8 7.25 0.8 7.85 0.8 8.7 0.85 8.7 0.85 8.85 Q0.85 10.8 2.45 12.0 L2.65 12.15 Q1.95 13.95 1.95 16.0 L2.0 17.1 1.95 18.25 Q1.95 22.25 4.75 25.45 L5.8 26.55 Q7.7 28.2 10.05 29.05 12.35 29.9 15.15 29.9 20.45 29.9 24.25 26.55 28.05 22.95 28.05 18.25 L28.0 17.1 28.05 16.0 Q28.05 14.1 27.5 12.5 L28.15 12.0 Q29.65 10.8 29.65 8.85 L29.65 8.6 29.7 8.6 29.7 7.8 29.7 7.2 29.65 2.45 29.65 0.15 29.65 -1.15 29.65 -2.45 29.65 -2.55 29.65 -3.45 29.65 -4.05 29.65 -4.25 29.65 -4.75 Q29.65 -6.5 28.15 -7.8 L27.9 -7.95 Q26.9 -8.65 25.75 -8.95 L24.9 -9.05 24.35 -9.1 23.75 -9.05 23.2 -9.1 22.25 -9.1 Q15.2 -10.2 8.05 -9.1 L7.45 -9.1 Z" fill="none" stroke="#6b4700" stroke-linecap="round" stroke-linejoin="round" stroke-width="2.0"/>
    <path d="M28.05 18.25 Q28.05 22.95 24.25 26.55 20.45 29.9 15.15 29.9 12.35 29.9 10.05 29.05 7.7 28.2 5.8 26.55 L4.75 25.45 Q1.95 22.25 1.95 18.25 1.95 13.3 5.8 10.0 9.6 6.5 15.15 6.5 20.45 6.5 24.25 10.0 28.05 13.3 28.05 18.25" fill="#634c3c" fill-rule="evenodd" stroke="none"/>
    <path d="M15.15 27.8 Q9.6 27.8 5.8 24.1 1.95 20.75 1.95 16.0 1.95 11.15 5.8 7.95 9.6 4.65 15.15 4.65 20.45 4.65 24.25 7.95 28.05 11.15 28.05 16.0 28.05 20.75 24.25 24.1 20.45 27.8 15.15 27.8" fill="#98816c" fill-rule="evenodd" stroke="none"/>
    <path d="M14.95 26.15 Q9.9 26.15 6.3 23.0 2.8 19.9 2.8 15.65 2.8 11.15 6.3 7.95 9.9 4.9 14.95 4.9 19.95 4.9 23.55 7.95 26.85 11.15 26.85 15.65 26.85 19.9 23.55 23.0 19.95 26.15 14.95 26.15" fill="#c5b4a0" fill-rule="evenodd" stroke="none"/>
    <path d="M7.5 8.65 Q10.65 5.85 15.15 5.85 19.5 5.85 22.65 8.65 25.8 11.4 25.8 15.4 25.8 19.25 22.65 22.1 19.5 24.9 15.15 24.9 10.65 24.9 7.5 22.1 4.4 19.25 4.4 15.4 4.4 11.4 7.5 8.65" fill="#98816c" fill-rule="evenodd" stroke="none"/>
    <path d="M7.75 7.4 Q10.85 4.7 15.25 4.7 19.6 4.7 22.65 7.4 25.75 9.95 25.75 13.85 25.75 17.65 22.65 20.3 19.6 23.3 15.25 23.3 10.85 23.3 7.75 20.3 4.7 17.65 4.7 13.85 4.7 9.95 7.75 7.4" fill="#e9d5bc" fill-rule="evenodd" stroke="none"/>
    <path d="M22.35 19.05 L22.35 1.25 24.95 1.25 24.95 13.2 24.95 14.2 Q24.7 16.95 22.35 19.05" fill="#634c3c" fill-rule="evenodd" stroke="none"/>
    <path d="M22.35 1.25 L22.35 19.05 22.05 19.35 Q20.7 20.5 19.15 21.1 L19.15 1.25 22.35 1.25" fill="#7d6759" fill-rule="evenodd" stroke="none"/>
    <path d="M19.15 1.25 L19.15 21.1 18.1 21.45 15.35 21.75 15.15 21.75 15.15 1.25 19.15 1.25" fill="#98816c" fill-rule="evenodd" stroke="none"/>
    <path d="M11.05 1.25 L15.15 1.25 15.15 21.75 12.75 21.6 11.55 21.1 11.4 21.1 11.05 20.95 11.05 1.25" fill="#c5b4a0" fill-rule="evenodd" stroke="none"/>
    <path d="M7.95 19.0 Q5.75 16.95 5.35 14.2 L5.35 1.25 7.95 1.25 7.95 19.0" fill="#917a63" fill-rule="evenodd" stroke="none"/>
    <path d="M7.95 1.25 L11.05 1.25 11.05 20.95 8.65 19.55 8.35 19.35 7.95 19.0 7.95 1.25" fill="#a7927d" fill-rule="evenodd" stroke="none"/>
    <path d="M8.05 -7.9 L6.2 -7.95 4.65 -7.65 4.65 -8.8 6.35 -9.1 6.9 -9.05 7.45 -9.1 8.05 -9.1 8.05 -7.9 M4.65 3.3 L6.2 3.0 8.05 3.05 8.05 4.4 6.25 4.35 4.65 4.7 4.65 3.3" fill="#eedecd" fill-rule="evenodd" stroke="none"/>
    <path d="M4.65 -7.65 L6.2 -7.95 8.05 -7.9 8.05 3.05 6.2 3.0 4.65 3.3 4.65 -7.65 M22.25 3.2 L22.25 -7.8 24.6 -7.8 25.75 -7.6 25.75 3.35 24.6 3.2 22.25 3.2" fill="#e0bda6" fill-rule="evenodd" stroke="none"/>
    <path d="M8.05 -7.9 L8.05 -9.1 Q15.2 -10.2 22.25 -9.1 L22.25 -7.8 Q15.35 -8.95 8.05 -7.9 M8.05 4.4 L8.05 3.05 Q15.25 1.9 22.25 3.2 L22.25 4.45 Q15.45 3.05 8.05 4.4" fill="#fffbf7" fill-rule="evenodd" stroke="none"/>
    <path d="M4.65 -8.8 L4.65 -7.65 3.7 -7.2 2.45 -6.4 2.45 -7.8 2.6 -7.85 Q3.55 -8.6 4.65 -8.8 M2.45 4.55 Q3.1 4.0 3.7 3.75 L4.65 3.3 4.65 4.7 Q4.15 4.85 3.75 5.15 3.0 5.35 2.45 5.85 L2.45 4.55 M25.75 -7.6 L25.75 -8.95 Q26.9 -8.65 27.9 -7.95 L27.9 -6.65 25.75 -7.6 M25.75 3.35 Q26.85 3.6 27.9 4.35 L27.9 5.7 Q26.9 4.95 25.75 4.7 L25.75 3.35" fill="#e7d4c1" fill-rule="evenodd" stroke="none"/>
    <path d="M2.45 -7.8 L2.45 -6.4 2.0 -6.0 Q1.2 -5.3 0.9 -4.4 L0.85 -4.75 Q0.85 -6.5 2.45 -7.8 M29.65 -4.05 Q29.35 -5.4 28.1 -6.45 L27.9 -6.65 27.9 -7.95 28.15 -7.8 Q29.65 -6.5 29.65 -4.75 L29.65 -4.25 29.65 -4.05 M29.7 7.2 L29.7 7.8 29.7 8.6 29.65 8.55 Q29.55 6.95 28.15 5.85 L27.9 5.7 27.9 4.35 28.1 4.45 Q29.5 5.6 29.7 7.2 M0.8 8.7 L0.8 7.85 0.8 7.25 0.8 6.9 Q1.05 5.85 2.0 4.95 2.25 4.7 2.45 4.55 L2.45 5.85 Q1.0 7.0 0.85 8.6 L0.8 8.7" fill="#e0cdb9" fill-rule="evenodd" stroke="none"/>
    <path d="M4.65 -7.65 L4.65 3.3 3.7 3.75 Q3.1 4.0 2.45 4.55 L2.45 -6.4 3.7 -7.2 4.65 -7.65 M25.75 -7.6 L27.9 -6.65 27.9 4.35 Q26.85 3.6 25.75 3.35 L25.75 -7.6" fill="#b69885" fill-rule="evenodd" stroke="none"/>
    <path d="M0.9 -4.4 Q1.2 -5.3 2.0 -6.0 L2.45 -6.4 2.45 4.55 Q2.25 4.7 2.0 4.95 1.05 5.85 0.8 6.9 L0.85 2.45 0.85 0.15 0.85 -1.15 0.85 -2.45 0.85 -3.45 0.85 -4.05 0.9 -4.25 0.9 -4.4 M27.9 -6.65 L28.1 -6.45 Q29.35 -5.4 29.65 -4.05 L29.65 -3.45 29.65 -2.55 29.65 -2.45 29.65 -1.15 29.65 0.15 29.65 2.45 29.7 7.2 Q29.5 5.6 28.1 4.45 L27.9 4.35 27.9 -6.65" fill="#957e6f" fill-rule="evenodd" stroke="none"/>
    <path d="M22.25 -7.8 L22.25 -9.1 23.2 -9.1 23.75 -9.05 24.35 -9.1 24.9 -9.05 25.75 -8.95 25.75 -7.6 24.6 -7.8 22.25 -7.8 M25.75 3.35 L25.75 4.7 24.6 4.45 22.25 4.45 22.25 3.2 24.6 3.2 25.75 3.35" fill="#faeee1" fill-rule="evenodd" stroke="none"/>
    <path d="M8.05 3.05 L8.05 -7.9 Q15.35 -8.95 22.25 -7.8 L22.25 3.2 Q15.25 1.9 8.05 3.05" fill="#ecd3b8" fill-rule="evenodd" stroke="none"/>
    <path d="M4.65 4.7 L6.25 4.35 8.05 4.4 Q15.45 3.05 22.25 4.45 L24.6 4.45 25.75 4.7 Q26.9 4.95 27.9 5.7 L28.15 5.85 Q29.55 6.95 29.65 8.55 L29.65 8.6 29.65 8.85 Q29.65 10.8 28.15 12.0 26.5 13.35 24.35 13.35 L23.2 13.25 23.05 13.25 Q21.6 13.1 20.6 12.3 18.75 9.9 19.8 8.1 21.0 6.35 22.85 6.65 24.05 6.9 24.65 7.6 25.25 8.3 25.1 9.3 24.95 10.1 24.1 10.3 L23.7 10.4 23.65 10.4 Q22.3 10.15 22.3 9.6 L22.5 9.05 22.65 8.6 22.3 8.2 21.65 7.95 Q20.8 7.95 20.8 9.05 L20.9 9.5 20.9 9.55 20.8 9.45 Q20.6 9.45 20.8 10.6 21.05 11.65 21.95 12.25 23.35 13.15 25.5 12.7 27.2 12.25 28.25 11.0 29.25 9.7 28.7 8.05 28.15 6.4 26.35 5.75 24.65 5.05 22.25 5.25 15.5 3.65 7.8 5.2 6.0 4.9 3.85 6.0 1.7 7.2 1.85 9.5 2.05 11.25 4.2 12.1 L8.4 12.25 9.85 10.5 10.0 9.85 9.9 9.45 9.85 9.5 9.9 9.25 9.6 8.3 8.9 7.75 Q8.45 7.65 8.2 7.95 7.9 8.25 7.9 8.7 7.85 9.2 8.6 9.4 9.3 9.6 9.3 9.75 L9.3 9.95 Q6.4 11.25 5.75 9.35 5.45 8.35 6.05 7.65 6.65 6.95 7.85 6.65 10.35 6.45 11.0 8.75 11.35 10.4 9.55 12.5 8.6 13.05 7.5 13.25 L6.95 13.35 6.35 13.35 5.85 13.35 Q3.95 13.2 2.45 12.0 0.85 10.8 0.85 8.85 L0.85 8.7 0.85 8.6 Q1.0 7.0 2.45 5.85 3.0 5.35 3.75 5.15 4.15 4.85 4.65 4.7" fill="#634c3c" fill-rule="evenodd" stroke="none"/>
    <path d="M20.6 12.3 L20.2 11.95 19.6 11.1 19.3 10.6 Q18.95 10.0 18.9 9.35 L18.85 9.1 18.85 8.85 18.95 8.1 20.1 6.85 Q21.2 6.0 22.55 6.05 23.95 6.1 24.85 6.9 25.9 7.7 25.9 8.95 25.9 9.95 25.05 10.55 24.25 11.15 23.25 11.1 22.05 11.05 21.35 10.25 L20.9 9.5 20.8 9.05 Q20.8 7.95 21.65 7.95 L22.3 8.2 22.65 8.6 22.5 9.05 22.3 9.6 Q22.3 10.15 23.65 10.4 L23.7 10.4 24.1 10.3 Q24.95 10.1 25.1 9.3 25.25 8.3 24.65 7.6 24.05 6.9 22.85 6.65 21.0 6.35 19.8 8.1 18.75 9.9 20.6 12.3 M11.65 8.85 Q11.65 10.8 10.15 12.0 L9.55 12.5 Q11.35 10.4 11.0 8.75 10.35 6.45 7.85 6.65 6.65 6.95 6.05 7.65 5.45 8.35 5.75 9.35 6.4 11.25 9.3 9.95 L9.3 9.75 Q9.3 9.6 8.6 9.4 7.85 9.2 7.9 8.7 7.9 8.25 8.2 7.95 8.45 7.65 8.9 7.75 L9.6 8.3 9.9 9.25 9.85 9.5 9.8 9.65 9.25 10.35 Q8.6 11.0 7.45 11.1 6.55 11.2 5.7 10.6 4.85 9.95 4.85 8.95 4.85 7.7 5.9 6.9 6.8 6.1 8.05 6.05 L8.1 6.05 Q9.5 6.0 10.55 6.85 11.35 7.45 11.6 8.25 L11.55 8.8 11.65 8.85" fill="#c5b4a0" fill-rule="evenodd" stroke="none"/>
    <path d="M9.85 9.5 L9.9 9.45 10.0 9.85 9.85 10.5 8.4 12.25 4.2 12.1 Q2.05 11.25 1.85 9.5 1.7 7.2 3.85 6.0 6.0 4.9 7.8 5.2 15.5 3.65 22.25 5.25 24.65 5.05 26.35 5.75 28.15 6.4 28.7 8.05 29.25 9.7 28.25 11.0 27.2 12.25 25.5 12.7 23.35 13.15 21.95 12.25 21.05 11.65 20.8 10.6 20.6 9.45 20.8 9.45 L20.9 9.55 20.9 9.5 21.35 10.25 Q22.05 11.05 23.25 11.1 24.25 11.15 25.05 10.55 25.9 9.95 25.9 8.95 25.9 7.7 24.85 6.9 23.95 6.1 22.55 6.05 21.2 6.0 20.1 6.85 L18.95 8.1 Q15.5 6.25 11.6 8.25 11.35 7.45 10.55 6.85 9.5 6.0 8.1 6.05 L8.05 6.05 Q6.8 6.1 5.9 6.9 4.85 7.7 4.85 8.95 4.85 9.95 5.7 10.6 6.55 11.2 7.45 11.1 8.6 11.0 9.25 10.35 L9.8 9.65 9.85 9.5" fill="#98816c" fill-rule="evenodd" stroke="none"/>
    <path d="M29.7 8.6 L29.65 8.6 29.65 8.55 29.7 8.6 M0.85 8.7 L0.8 8.7 0.85 8.6 0.85 8.7" fill="#f7dfc3" fill-rule="evenodd" stroke="none"/>
    <path d="M18.85 8.85 Q15.3 6.9 11.65 8.85 L11.55 8.8 11.6 8.25 Q15.5 6.25 18.95 8.1 L18.85 8.85" fill="#856416" fill-rule="evenodd" stroke="none"/>
  </g>
</svg>
