<?xml version="1.0" encoding="UTF-8" standalone="no"?>
<svg xmlns:xlink="http://www.w3.org/1999/xlink" height="36.1px" width="31.9px" xmlns="http://www.w3.org/2000/svg">
  <g transform="matrix(1.0, 0.0, 0.0, 1.0, 0.9, -0.25)">
    <path d="M22.15 4.1 L23.6 6.05 24.25 7.55 24.35 7.55 24.35 7.4 Q24.5 7.05 25.2 6.85 L26.35 6.75 27.3 7.0 27.85 7.3 28.1 7.65 28.1 8.05 27.85 8.4 27.55 8.6 27.15 8.8 26.45 9.05 25.4 9.15 26.35 10.8 27.35 10.75 28.3 11.05 28.95 11.4 29.25 11.7 29.25 12.2 29.0 12.6 28.6 12.8 28.2 13.1 27.45 13.35 27.1 13.45 27.2 14.35 28.05 14.6 29.1 15.25 29.75 15.85 30.0 16.3 29.8 16.8 29.35 17.2 28.95 17.4 28.35 17.55 27.35 17.6 26.9 17.6 26.35 19.2 27.0 19.8 27.7 21.1 27.9 22.0 27.9 22.6 27.5 23.05 26.8 23.2 26.25 23.05 25.6 22.9 24.5 22.4 24.5 22.35 23.65 23.25 23.25 23.65 23.45 24.1 23.9 25.8 23.9 27.0 23.65 27.7 23.0 28.05 22.25 28.05 21.6 27.75 20.85 27.3 19.85 26.4 19.5 26.0 17.6 26.55 17.5 27.45 17.0 29.2 16.4 30.3 15.85 30.75 15.0 30.75 Q14.7 30.7 14.35 30.35 L13.9 29.7 13.45 28.9 13.0 27.6 12.85 26.65 10.6 26.0 10.1 26.55 9.1 27.45 8.35 27.9 7.7 28.15 6.9 28.2 6.25 27.8 6.05 27.15 6.05 25.95 Q6.1 25.15 6.45 24.3 L6.8 23.6 6.45 23.25 5.7 22.45 5.35 22.65 4.3 23.15 3.6 23.35 3.05 23.4 2.4 23.3 2.0 22.85 Q1.9 22.7 1.95 22.25 L2.2 21.3 2.9 20.1 3.7 19.25 3.25 17.9 2.7 17.9 1.7 17.85 1.1 17.7 0.65 17.55 0.2 17.15 0.1 16.6 0.3 16.15 0.9 15.55 2.0 14.9 2.85 14.65 3.05 13.05 2.7 12.95 1.9 12.7 1.45 12.4 1.1 12.15 0.85 11.75 0.85 11.35 1.15 10.95 1.75 10.6 2.75 10.35 4.05 10.45 4.6 9.5 3.5 9.45 2.8 9.2 2.4 9.0 2.1 8.75 1.9 8.4 1.9 8.05 2.15 7.7 2.7 7.4 3.6 7.15 4.8 7.25 Q5.45 7.45 5.65 7.8 L5.7 7.95 Q6.0 6.75 6.6 5.9 8.35 3.65 10.3 2.5 14.0 0.4 18.15 1.8 20.45 2.5 22.15 4.1 M23.35 8.6 Q21.1 3.9 17.25 2.75 L15.0 2.35 Q14.1 2.3 12.8 2.75 9.9 3.7 8.05 6.5 7.0 8.1 6.65 9.35 7.0 10.0 7.25 12.4 8.25 17.4 11.85 18.75 13.7 19.5 16.0 19.3 18.5 19.0 20.0 17.7 L21.85 15.3 Q22.5 14.1 22.85 11.95 L23.0 10.15 Q23.05 9.15 23.35 8.6" fill="#704406" fill-rule="evenodd" stroke="none"/>
    <path d="M22.15 4.1 Q20.45 2.5 18.15 1.8 14.0 0.4 10.3 2.5 8.35 3.65 6.6 5.9 6.0 6.75 5.7 7.95 L5.65 7.8 Q5.45 7.45 4.8 7.25 L3.6 7.15 2.7 7.4 2.15 7.7 1.9 8.05 1.9 8.4 2.1 8.75 2.4 9.0 2.8 9.2 3.5 9.45 4.6 9.5 4.05 10.45 2.75 10.35 1.75 10.6 1.15 10.95 0.85 11.35 0.85 11.75 1.1 12.15 1.45 12.4 1.9 12.7 2.7 12.95 3.05 13.05 2.85 14.65 2.0 14.9 0.9 15.55 0.3 16.15 0.1 16.6 0.2 17.15 0.65 17.55 1.1 17.7 1.7 17.85 2.7 17.9 3.25 17.9 3.7 19.25 2.9 20.1 2.2 21.3 1.95 22.25 Q1.9 22.7 2.0 22.85 L2.4 23.3 3.05 23.4 3.6 23.35 4.3 23.15 5.35 22.65 5.7 22.45 6.45 23.25 6.8 23.6 6.45 24.3 Q6.1 25.15 6.05 25.95 L6.05 27.15 6.25 27.8 6.9 28.2 7.7 28.15 8.35 27.9 9.1 27.45 10.1 26.55 10.6 26.0 12.85 26.65 13.0 27.6 13.45 28.9 13.9 29.7 14.35 30.35 Q14.7 30.7 15.0 30.75 L15.85 30.75 16.4 30.3 17.0 29.2 17.5 27.45 17.6 26.55 19.5 26.0 19.85 26.4 20.85 27.3 21.6 27.75 22.25 28.05 23.0 28.05 23.65 27.7 23.9 27.0 23.9 25.8 23.45 24.1 23.25 23.65 23.65 23.25 24.5 22.35 24.5 22.4 25.6 22.9 26.25 23.05 26.8 23.2 27.5 23.05 27.9 22.6 27.9 22.0 27.7 21.1 27.0 19.8 26.35 19.2 26.9 17.6 27.35 17.6 28.35 17.55 28.95 17.4 29.35 17.2 29.8 16.8 30.0 16.3 29.75 15.85 29.1 15.25 28.05 14.6 27.2 14.35 27.1 13.45 27.45 13.35 28.2 13.1 28.6 12.8 29.0 12.6 29.25 12.2 29.25 11.7 28.95 11.4 28.3 11.05 27.35 10.75 26.35 10.8 25.4 9.15 26.45 9.05 27.15 8.8 27.55 8.6 27.85 8.4 28.1 8.05 28.1 7.65 27.85 7.3 27.3 7.0 26.35 6.75 25.2 6.85 Q24.5 7.05 24.35 7.4 L24.35 7.55 24.25 7.55 23.6 6.05 22.15 4.1 M23.35 8.6 Q21.1 3.9 17.25 2.75 L15.0 2.35 Q14.1 2.3 12.8 2.75 9.9 3.7 8.05 6.5 7.0 8.1 6.65 9.35 7.0 10.0 7.25 12.4 8.25 17.4 11.85 18.75 13.7 19.5 16.0 19.3 18.5 19.0 20.0 17.7 L21.85 15.3 Q22.5 14.1 22.85 11.95 L23.0 10.15 Q23.05 9.15 23.35 8.6" fill="none" stroke="#660000" stroke-linecap="round" stroke-linejoin="round" stroke-width="2.0"/>
    <path d="M5.45 8.45 L5.5 8.3 Q5.8 6.9 6.5 5.95 8.25 3.65 10.25 2.55 13.9 0.45 18.1 1.8 20.35 2.55 22.05 4.15 L23.5 6.1 24.15 7.6 Q23.75 7.65 23.7 8.15 23.0 6.2 21.5 4.65 L20.8 4.05 Q18.25 1.8 14.9 1.8 L13.0 2.0 Q10.7 2.55 9.05 4.1 L7.35 6.0 6.1 8.9 5.45 8.45" fill="#fc9602" fill-rule="evenodd" stroke="none"/>
    <path d="M24.15 7.6 L24.5 7.85 24.9 8.4 25.1 8.85 25.2 9.0 25.6 10.45 25.7 12.45 Q25.7 14.85 25.05 16.7 24.3 18.6 22.7 20.15 19.65 23.45 15.1 23.45 10.65 23.45 7.4 20.15 4.25 16.95 4.25 12.25 4.25 10.55 4.6 9.45 L4.6 9.3 Q4.85 8.8 5.1 8.65 5.3 8.45 5.45 8.45 4.75 12.15 5.6 14.95 6.8 18.45 9.25 20.1 12.55 22.2 15.7 21.75 19.4 21.65 22.2 18.5 24.5 15.95 24.55 11.95 24.7 10.25 24.3 8.15 L24.15 7.6 M6.1 8.9 L7.35 6.0 9.05 4.1 Q10.7 2.55 13.0 2.0 L14.9 1.8 Q18.25 1.8 20.8 4.05 L21.5 4.65 Q23.0 6.2 23.7 8.15 L23.3 8.65 Q21.05 3.95 17.15 2.8 L14.9 2.4 12.7 2.8 Q9.85 3.75 8.0 6.55 6.9 8.15 6.55 9.4 L6.1 8.9" fill="#9f4e00" fill-rule="evenodd" stroke="none"/>
    <path d="M25.2 9.0 Q27.1 11.6 27.1 14.7 27.1 19.75 23.55 23.3 20.0 26.85 14.95 26.85 9.85 26.85 6.35 23.3 2.75 19.75 2.75 14.7 2.75 11.85 4.6 9.45 4.25 10.55 4.25 12.25 4.25 16.95 7.4 20.15 10.65 23.45 15.1 23.45 19.65 23.45 22.7 20.15 24.3 18.6 25.05 16.7 25.7 14.85 25.7 12.45 L25.6 10.45 25.2 9.0 M23.3 8.65 L23.7 8.15 Q24.0 9.35 23.8 12.35 23.7 15.15 21.35 17.9 18.9 20.6 14.9 20.6 11.0 20.6 8.4 17.9 7.2 16.65 6.55 14.95 6.1 13.55 6.0 11.35 5.8 9.8 6.1 8.9 L6.55 9.4 7.2 12.4 Q8.15 17.45 11.75 18.8 13.6 19.55 15.9 19.35 18.4 19.05 19.95 17.75 L21.8 15.35 Q22.4 14.15 22.75 12.0 L22.9 10.2 Q23.0 9.15 23.3 8.65" fill="#d99b25" fill-rule="evenodd" stroke="none"/>
    <path d="M5.45 8.45 L6.1 8.9 Q5.8 9.8 6.0 11.35 6.1 13.55 6.55 14.95 7.2 16.65 8.4 17.9 11.0 20.6 14.9 20.6 18.9 20.6 21.35 17.9 23.7 15.15 23.8 12.35 24.0 9.35 23.7 8.15 23.75 7.65 24.15 7.6 L24.3 8.15 Q24.7 10.25 24.55 11.95 24.5 15.95 22.2 18.5 19.4 21.65 15.7 21.75 12.55 22.2 9.25 20.1 6.8 18.45 5.6 14.95 4.75 12.15 5.45 8.45" fill="#8a4900" fill-rule="evenodd" stroke="none"/>
    <path d="M25.2 9.0 Q27.1 11.6 27.1 14.7 27.1 19.75 23.55 23.3 20.0 26.85 14.95 26.85 9.85 26.85 6.35 23.3 2.75 19.75 2.75 14.7 2.75 11.85 4.6 9.45" fill="none" stroke="#b82800" stroke-linecap="round" stroke-linejoin="round" stroke-width="1.0"/>
    <path d="M24.2 7.75 L24.2 7.65 24.25 7.45 Q24.45 7.1 25.1 6.9 L26.3 6.8 27.2 7.05 27.75 7.35 28.0 7.65 Q27.85 7.95 27.3 8.25 L26.3 8.6 26.0 8.65 24.85 8.5 24.2 7.75 M27.35 7.45 L26.4 7.05 26.3 7.0 25.75 6.95 25.0 7.15 24.65 7.65 Q24.6 7.9 24.85 8.15 L25.0 8.2 25.55 8.4 25.95 8.4 26.3 8.4 26.75 8.2 27.5 7.65 27.35 7.45" fill="#f79836" fill-rule="evenodd" stroke="none"/>
    <path d="M24.9 7.5 L24.85 7.65 25.25 8.05 25.7 8.1 26.3 8.05 26.7 7.9 27.0 7.65 26.6 7.75 26.3 7.85 26.15 7.85 25.5 7.8 25.2 7.65 25.1 7.6 25.0 7.45 24.9 7.5 M24.65 7.65 L25.0 7.15 25.75 6.95 26.3 7.0 26.4 7.05 27.35 7.45 27.5 7.65 26.75 8.1 26.35 8.25 25.9 8.3 25.3 8.25 24.85 8.0 24.65 7.65" fill="#ffdb83" fill-rule="evenodd" stroke="none"/>
    <path d="M24.9 7.5 L25.0 7.45 25.1 7.6 25.2 7.65 25.5 7.8 26.15 7.85 26.3 7.85 26.6 7.75 27.0 7.65 26.7 7.9 26.3 8.05 25.7 8.1 25.25 8.05 24.85 7.65 24.9 7.5" fill="#fff6e2" fill-rule="evenodd" stroke="none"/>
    <path d="M27.5 7.65 L26.75 8.2 26.3 8.4 25.95 8.4 25.55 8.4 25.0 8.2 24.85 8.15 Q24.6 7.9 24.65 7.65 L24.85 8.0 25.3 8.25 25.9 8.3 26.35 8.25 26.75 8.1 27.5 7.65" fill="#e27402" fill-rule="evenodd" stroke="none"/>
    <path d="M24.2 7.75 L24.85 8.5 26.0 8.65 26.3 8.6 27.3 8.25 Q27.85 7.95 28.0 7.65 L28.0 8.05 27.8 8.4 27.5 8.65 27.1 8.85 26.35 9.1 Q24.85 9.5 24.25 8.45 L24.15 8.1 24.2 7.75" fill="#bf5e01" fill-rule="evenodd" stroke="none"/>
    <path d="M27.35 7.45 L27.5 7.65 26.75 8.2 26.3 8.4 25.95 8.4 25.55 8.4 25.0 8.2 24.85 8.15 Q24.6 7.9 24.65 7.65" fill="none" stroke="#ec9b4b" stroke-linecap="round" stroke-linejoin="round" stroke-width="0.1"/>
    <path d="M25.65 7.45 L25.55 7.5 25.45 7.45 25.4 7.35 25.45 7.25 25.55 7.2 25.65 7.25 25.7 7.35 25.65 7.45" fill="#ffffff" fill-rule="evenodd" stroke="none"/>
    <path d="M29.15 11.75 L29.15 12.25 28.9 12.65 28.55 12.85 28.1 13.15 27.35 13.4 Q25.6 13.85 24.9 12.7 L24.85 12.3 24.85 11.9 Q24.95 12.4 25.6 12.7 L26.9 12.85 27.25 12.8 28.35 12.4 29.15 11.75" fill="#bf5e01" fill-rule="evenodd" stroke="none"/>
    <path d="M29.15 11.75 L28.35 12.4 27.25 12.8 26.9 12.85 25.6 12.7 Q24.95 12.4 24.85 11.9 L24.85 11.7 24.95 11.55 Q25.1 11.15 25.9 10.95 L27.25 10.8 28.25 11.1 28.85 11.45 29.15 11.75 M25.4 11.7 Q25.3 12.05 25.6 12.35 L25.75 12.4 26.35 12.65 26.8 12.65 27.25 12.6 27.8 12.4 28.6 11.8 28.4 11.55 Q28.1 11.35 27.4 11.1 L27.25 11.05 26.65 11.0 25.8 11.2 Q25.45 11.35 25.4 11.7" fill="#f79836" fill-rule="evenodd" stroke="none"/>
    <path d="M25.8 11.55 L25.65 11.6 25.65 11.75 26.0 12.15 26.6 12.3 27.25 12.25 27.7 12.05 28.0 11.7 27.55 11.9 27.25 12.0 27.1 12.0 26.35 11.95 26.0 11.7 25.9 11.7 25.8 11.55 M28.6 11.8 L27.75 12.3 27.3 12.4 26.75 12.5 26.1 12.4 25.6 12.15 25.4 11.7 Q25.45 11.35 25.8 11.2 L26.65 11.0 27.25 11.05 27.4 11.1 Q28.1 11.35 28.4 11.55 L28.6 11.8" fill="#ffd100" fill-rule="evenodd" stroke="none"/>
    <path d="M25.8 11.55 L25.9 11.7 26.0 11.7 26.35 11.95 27.1 12.0 27.25 12.0 27.55 11.9 28.0 11.7 27.7 12.05 27.25 12.25 26.6 12.3 26.0 12.15 25.65 11.75 25.65 11.6 25.8 11.55" fill="#fff6e2" fill-rule="evenodd" stroke="none"/>
    <path d="M25.4 11.7 L25.6 12.15 26.1 12.4 26.75 12.5 27.3 12.4 27.75 12.3 28.6 11.8 27.8 12.4 27.25 12.6 26.8 12.65 26.35 12.65 25.75 12.4 25.6 12.35 Q25.3 12.05 25.4 11.7" fill="#e27402" fill-rule="evenodd" stroke="none"/>
    <path d="M25.4 11.7 Q25.3 12.05 25.6 12.35 L25.75 12.4 26.35 12.65 26.8 12.65 27.25 12.6 27.8 12.4 28.6 11.8 28.4 11.55" fill="none" stroke="#ec9b4b" stroke-linecap="round" stroke-linejoin="round" stroke-width="0.1"/>
    <path d="M26.3 11.5 L26.15 11.55 26.05 11.5 26.0 11.4 26.05 11.25 26.15 11.2 26.3 11.25 26.35 11.4 26.3 11.5" fill="#ffffff" fill-rule="evenodd" stroke="none"/>
    <path d="M15.75 30.8 L14.9 30.8 Q14.6 30.75 14.25 30.35 L13.8 29.75 13.35 28.95 12.9 27.65 Q12.1 24.55 14.15 23.45 L14.8 23.3 15.5 23.4 Q14.55 23.55 14.1 24.6 13.65 25.55 13.8 26.9 L13.9 27.5 Q14.05 28.45 14.6 29.4 15.15 30.5 15.75 30.8" fill="#bf5e01" fill-rule="evenodd" stroke="none"/>
    <path d="M15.75 30.8 Q15.15 30.5 14.6 29.4 14.05 28.45 13.9 27.5 L13.8 26.9 Q13.65 25.55 14.1 24.6 14.55 23.55 15.5 23.4 L15.85 23.4 16.15 23.5 Q16.85 23.75 17.25 25.1 17.65 26.35 17.4 27.5 L16.95 29.25 16.3 30.35 15.75 30.8 M15.85 24.3 Q15.25 24.1 14.75 24.7 L14.65 24.9 14.25 26.0 14.2 26.75 14.3 27.5 14.65 28.45 15.7 29.8 16.15 29.5 16.95 27.75 17.0 27.5 17.05 26.45 16.75 24.95 Q16.45 24.35 15.85 24.3" fill="#f79836" fill-rule="evenodd" stroke="none"/>
    <path d="M15.85 24.3 Q15.5 24.25 15.1 24.65 14.75 24.9 14.6 25.55 14.4 26.15 14.45 26.7 L14.6 27.6 14.8 28.35 15.7 29.8 14.65 28.45 14.3 27.5 14.2 26.75 14.25 26.0 14.65 24.9 14.75 24.7 Q15.25 24.1 15.85 24.3" fill="#e27402" fill-rule="evenodd" stroke="none"/>
    <path d="M15.7 29.8 L14.8 28.35 14.6 27.6 14.45 26.7 Q14.4 26.15 14.6 25.55 14.75 24.9 15.1 24.65 15.5 24.25 15.85 24.3 16.45 24.35 16.75 24.95 L17.05 26.45 17.0 27.5 16.95 27.75 16.15 29.5 15.7 29.8 M15.8 25.25 L15.9 25.15 16.2 24.95 16.05 24.8 15.75 24.75 Q15.35 24.8 15.05 25.4 L14.8 26.3 14.9 27.5 15.3 28.25 15.85 28.85 Q15.6 28.45 15.5 28.05 L15.4 27.5 15.4 27.15 15.5 25.9 15.8 25.25" fill="#ffee00" fill-rule="evenodd" stroke="none"/>
    <path d="M15.8 25.25 L15.5 25.9 15.4 27.15 15.4 27.5 15.5 28.05 Q15.6 28.45 15.85 28.85 L15.3 28.25 14.9 27.5 14.8 26.3 15.05 25.4 Q15.35 24.8 15.75 24.75 L16.05 24.8 16.2 24.95 15.9 25.15 15.8 25.25" fill="#fff6e2" fill-rule="evenodd" stroke="none"/>
    <path d="M15.85 24.3 Q15.25 24.1 14.75 24.7 L14.65 24.9 14.25 26.0 14.2 26.75 14.3 27.5 14.65 28.45 15.7 29.8 16.15 29.5" fill="none" stroke="#ec9b4b" stroke-linecap="round" stroke-linejoin="round" stroke-width="0.1"/>
    <path d="M15.8 26.25 L15.7 26.05 15.8 25.8 16.0 25.75 16.2 25.8 16.3 26.05 16.2 26.25 16.0 26.3 15.8 26.25" fill="#ffffff" fill-rule="evenodd" stroke="none"/>
    <path d="M20.95 22.6 L20.75 22.7 Q20.35 23.0 20.4 23.6 L20.7 24.5 21.3 25.35 22.0 25.85 22.7 26.05 22.05 25.6 21.7 25.15 21.55 24.9 21.0 23.8 21.0 23.15 21.05 23.0 21.1 22.7 Q21.1 22.6 20.95 22.6 M20.55 22.35 L21.6 22.45 22.6 23.5 23.0 24.4 23.05 24.65 23.3 26.45 23.05 26.9 21.7 26.1 21.1 25.6 20.6 24.9 20.1 23.95 20.1 23.0 Q20.25 22.5 20.55 22.35" fill="#02ff18" fill-rule="evenodd" stroke="none"/>
    <path d="M20.95 22.6 Q21.1 22.6 21.1 22.7 L21.05 23.0 21.0 23.15 21.0 23.8 21.55 24.9 21.7 25.15 22.05 25.6 22.7 26.05 22.0 25.85 21.3 25.35 20.7 24.5 20.4 23.6 Q20.35 23.0 20.75 22.7 L20.95 22.6" fill="#fff6e2" fill-rule="evenodd" stroke="none"/>
    <path d="M23.3 26.45 L23.05 24.65 23.0 24.4 22.6 23.5 21.6 22.45 20.55 22.35 Q20.0 22.5 19.85 23.15 L19.9 23.4 20.05 24.5 20.35 25.1 20.8 25.65 21.5 26.3 23.05 26.9 23.3 26.45 M19.9 21.7 L20.1 21.6 20.4 21.55 Q21.1 21.45 22.1 22.3 23.0 23.15 23.35 24.15 L23.8 25.85 23.8 27.05 23.55 27.75 21.95 27.1 20.45 25.9 20.1 25.4 Q19.35 24.4 19.25 23.4 19.2 22.3 19.9 21.7" fill="#f79836" fill-rule="evenodd" stroke="none"/>
    <path d="M19.9 21.7 Q19.2 22.3 19.25 23.4 19.35 24.4 20.1 25.4 L20.45 25.9 21.95 27.1 23.55 27.75 22.9 28.1 22.15 28.1 21.5 27.75 20.75 27.35 19.75 26.45 Q17.7 24.3 18.8 22.4 L19.25 21.95 19.9 21.7" fill="#bf5e01" fill-rule="evenodd" stroke="none"/>
    <path d="M23.05 26.9 L21.5 26.3 20.8 25.65 20.35 25.1 20.05 24.5 19.9 23.4 19.85 23.15 Q20.0 22.5 20.55 22.35 20.25 22.5 20.1 23.0 L20.1 23.95 20.6 24.9 21.1 25.6 21.7 26.1 23.05 26.9" fill="#e27402" fill-rule="evenodd" stroke="none"/>
    <path d="M23.3 26.45 L23.05 26.9 21.5 26.3 20.8 25.65 20.35 25.1 20.05 24.5 19.9 23.4 19.85 23.15 Q20.0 22.5 20.55 22.35" fill="none" stroke="#ec9b4b" stroke-linecap="round" stroke-linejoin="round" stroke-width="0.1"/>
    <path d="M21.5 23.7 L21.35 23.55 21.3 23.35 21.45 23.2 21.65 23.15 21.8 23.3 21.85 23.5 21.75 23.65 21.5 23.7" fill="#ffffff" fill-rule="evenodd" stroke="none"/>
    <path d="M23.55 18.65 L23.75 18.5 24.0 18.35 Q24.5 18.15 25.45 18.65 L26.9 19.85 27.6 21.15 27.85 22.05 27.85 22.65 26.4 22.55 24.9 21.85 24.5 21.55 23.45 20.1 Q23.1 19.25 23.55 18.65 M27.3 21.7 L26.75 20.25 26.65 20.1 26.1 19.5 Q25.65 19.05 25.1 18.85 24.6 18.65 24.2 19.0 23.8 19.2 23.85 19.75 L23.95 20.0 24.3 20.8 24.7 21.2 25.2 21.55 25.9 21.9 27.25 22.1 27.3 21.7" fill="#f79836" fill-rule="evenodd" stroke="none"/>
    <path d="M24.2 19.0 Q24.6 18.65 25.1 18.85 25.65 19.05 26.1 19.5 L26.65 20.1 26.75 20.25 27.3 21.7 27.25 22.1 25.95 21.75 25.4 21.55 24.8 21.1 24.25 20.35 24.0 19.6 24.2 19.0 M24.75 19.35 L24.8 19.15 24.6 19.15 Q24.5 19.15 24.45 19.25 24.25 19.5 24.45 20.0 L24.8 20.7 25.5 21.25 26.15 21.5 26.75 21.5 26.15 21.2 25.75 21.0 25.6 20.85 24.9 20.05 24.75 19.5 24.75 19.35" fill="#ffd100" fill-rule="evenodd" stroke="none"/>
    <path d="M24.75 19.35 L24.75 19.5 24.9 20.05 25.6 20.85 25.75 21.0 26.15 21.2 26.75 21.5 26.15 21.5 25.5 21.25 24.8 20.7 24.45 20.0 Q24.25 19.5 24.45 19.25 24.5 19.15 24.6 19.15 L24.8 19.15 24.75 19.35" fill="#fff6e2" fill-rule="evenodd" stroke="none"/>
    <path d="M23.55 18.65 Q23.1 19.25 23.45 20.1 L24.5 21.55 24.9 21.85 26.4 22.55 27.85 22.65 27.4 23.1 26.75 23.25 26.15 23.1 25.5 22.95 24.45 22.45 Q22.3 21.2 22.85 19.45 L23.15 19.0 23.55 18.65" fill="#bf5e01" fill-rule="evenodd" stroke="none"/>
    <path d="M27.25 22.1 L25.9 21.9 25.2 21.55 24.7 21.2 24.3 20.8 23.95 20.0 23.85 19.75 Q23.8 19.2 24.2 19.0 L24.0 19.6 24.25 20.35 24.8 21.1 25.4 21.55 25.95 21.75 27.25 22.1" fill="#e27402" fill-rule="evenodd" stroke="none"/>
    <path d="M27.3 21.7 L27.25 22.1 25.9 21.9 25.2 21.55 24.7 21.2 24.3 20.8 23.95 20.0 23.85 19.75 Q23.8 19.2 24.2 19.0" fill="none" stroke="#ec9b4b" stroke-linecap="round" stroke-linejoin="round" stroke-width="0.1"/>
    <path d="M25.3 19.85 L25.15 19.8 25.05 19.65 25.1 19.5 Q25.15 19.4 25.25 19.4 L25.45 19.5 25.5 19.6 25.45 19.8 25.3 19.85" fill="#ffffff" fill-rule="evenodd" stroke="none"/>
    <path d="M24.85 15.15 L24.9 15.0 25.05 14.75 Q25.4 14.35 26.35 14.3 L27.95 14.6 29.0 15.3 29.65 15.9 29.9 16.35 Q29.55 16.7 28.7 16.85 L27.35 17.0 26.95 16.9 25.4 16.35 Q24.85 15.85 24.85 15.15 M29.05 15.85 L28.05 15.0 27.9 14.9 27.2 14.7 26.15 14.65 Q25.7 14.7 25.55 15.15 25.35 15.5 25.6 15.9 L25.75 16.05 26.35 16.45 26.9 16.65 27.4 16.7 28.15 16.65 29.2 16.2 29.05 15.85" fill="#f79836" fill-rule="evenodd" stroke="none"/>
    <path d="M25.55 15.15 Q25.7 14.7 26.15 14.65 L27.2 14.7 27.9 14.9 28.05 15.0 29.05 15.85 29.2 16.2 28.05 16.5 27.5 16.55 26.9 16.45 26.15 16.15 25.6 15.7 25.55 15.15 M25.95 15.1 L25.85 15.3 26.15 15.85 Q26.35 16.1 26.75 16.15 L27.5 16.3 28.1 16.2 28.55 16.0 28.0 16.0 27.6 16.0 27.45 15.95 26.55 15.7 26.2 15.35 26.1 15.2 26.05 15.0 25.95 15.1" fill="#ff00df" fill-rule="evenodd" stroke="none"/>
    <path d="M25.95 15.1 L26.05 15.0 26.1 15.2 26.2 15.35 26.55 15.7 27.45 15.95 27.6 16.0 28.0 16.0 28.55 16.0 28.1 16.2 27.5 16.3 26.75 16.15 Q26.35 16.1 26.15 15.85 L25.85 15.3 25.95 15.1" fill="#fff6e2" fill-rule="evenodd" stroke="none"/>
    <path d="M29.2 16.2 L28.15 16.65 27.4 16.7 26.9 16.65 26.35 16.45 25.75 16.05 25.6 15.9 Q25.35 15.5 25.55 15.15 L25.6 15.7 26.15 16.15 26.9 16.45 27.5 16.55 28.05 16.5 29.2 16.2" fill="#e27402" fill-rule="evenodd" stroke="none"/>
    <path d="M24.85 15.15 Q24.85 15.85 25.4 16.35 L26.95 16.9 27.35 17.0 28.7 16.85 Q29.55 16.7 29.9 16.35 L29.75 16.85 29.3 17.25 28.85 17.45 28.25 17.55 27.25 17.65 Q25.1 17.6 24.75 16.1 L24.7 15.6 24.85 15.15" fill="#bf5e01" fill-rule="evenodd" stroke="none"/>
    <path d="M29.05 15.85 L29.2 16.2 28.15 16.65 27.4 16.7 26.9 16.65 26.35 16.45 25.75 16.05 25.6 15.9 Q25.35 15.5 25.55 15.15" fill="none" stroke="#ec9b4b" stroke-linecap="round" stroke-linejoin="round" stroke-width="0.1"/>
    <path d="M26.7 15.3 L26.5 15.3 26.45 15.2 26.45 15.05 26.5 14.95 26.65 14.9 26.75 15.05 26.8 15.15 26.7 15.3" fill="#ffffff" fill-rule="evenodd" stroke="none"/>
    <path d="M5.15 8.05 L4.8 7.55 4.05 7.35 3.5 7.4 3.4 7.45 Q2.75 7.65 2.45 7.85 L2.35 8.05 3.05 8.6 3.5 8.75 3.85 8.8 4.25 8.8 4.8 8.6 4.95 8.55 5.15 8.05 M1.8 8.05 L2.05 7.75 2.6 7.45 3.5 7.2 4.7 7.3 Q5.35 7.5 5.55 7.85 L5.6 8.05 5.6 8.15 Q5.5 8.65 5.0 8.9 L3.85 9.05 3.5 9.0 2.5 8.65 1.8 8.05" fill="#f79836" fill-rule="evenodd" stroke="none"/>
    <path d="M2.45 7.85 Q2.75 7.65 3.4 7.45 L3.5 7.4 4.05 7.35 4.8 7.55 5.15 8.05 5.0 8.4 4.5 8.65 3.9 8.7 3.45 8.65 3.1 8.5 2.35 8.05 2.45 7.85 M3.5 8.45 L4.1 8.5 4.6 8.4 4.95 8.05 4.9 7.9 4.8 7.85 4.7 8.0 4.6 8.05 4.3 8.2 3.65 8.25 3.5 8.25 3.2 8.15 2.8 8.05 3.1 8.3 3.5 8.45" fill="#ffdb83" fill-rule="evenodd" stroke="none"/>
    <path d="M5.15 8.05 L4.95 8.55 4.8 8.6 4.25 8.8 3.85 8.8 3.5 8.75 3.05 8.6 2.35 8.05 3.1 8.5 3.45 8.65 3.9 8.7 4.5 8.65 5.0 8.4 5.15 8.05" fill="#e27402" fill-rule="evenodd" stroke="none"/>
    <path d="M3.5 8.45 L3.1 8.3 2.8 8.05 3.2 8.15 3.5 8.25 3.65 8.25 4.3 8.2 4.6 8.05 4.7 8.0 4.8 7.85 4.9 7.9 4.95 8.05 4.6 8.4 4.1 8.5 3.5 8.45" fill="#fff6e2" fill-rule="evenodd" stroke="none"/>
    <path d="M5.6 8.15 L5.65 8.5 5.55 8.85 Q5.0 9.85 3.45 9.5 L2.75 9.25 2.35 9.05 2.0 8.8 1.8 8.45 1.8 8.05 2.5 8.65 3.5 9.0 3.85 9.05 5.0 8.9 Q5.5 8.65 5.6 8.15" fill="#bf5e01" fill-rule="evenodd" stroke="none"/>
    <path d="M5.15 8.05 L4.95 8.55 4.8 8.6 4.25 8.8 3.85 8.8 3.5 8.75 3.05 8.6 2.35 8.05 2.45 7.85" fill="none" stroke="#ec9b4b" stroke-linecap="round" stroke-linejoin="round" stroke-width="0.1"/>
    <path d="M4.2 7.85 L4.3 7.9 4.4 7.85 4.45 7.75 4.4 7.65 4.3 7.6 4.2 7.65 4.15 7.75 4.2 7.85" fill="#ffffff" fill-rule="evenodd" stroke="none"/>
    <path d="M0.75 11.35 L1.05 11.0 1.65 10.65 2.7 10.4 4.05 10.5 Q4.8 10.7 5.0 11.15 L5.0 11.35 5.0 11.45 Q4.95 12.05 4.3 12.3 L3.0 12.45 2.7 12.4 1.55 12.05 0.75 11.35 M1.3 11.35 L2.1 12.0 2.7 12.2 3.1 12.25 3.5 12.2 4.15 12.0 4.25 11.95 4.5 11.35 Q4.5 10.95 4.1 10.8 L3.25 10.6 2.7 10.65 2.5 10.7 1.5 11.15 1.3 11.35" fill="#f79836" fill-rule="evenodd" stroke="none"/>
    <path d="M5.0 11.45 L5.05 11.9 5.0 12.25 Q4.35 13.45 2.6 13.0 L1.8 12.75 1.35 12.45 1.0 12.2 0.75 11.8 0.75 11.35 1.55 12.05 2.7 12.4 3.0 12.45 4.3 12.3 Q4.95 12.05 5.0 11.45" fill="#bf5e01" fill-rule="evenodd" stroke="none"/>
    <path d="M4.5 11.35 L4.25 11.95 4.15 12.0 3.5 12.2 3.1 12.25 2.7 12.2 2.1 12.0 1.3 11.35 2.15 11.9 2.6 12.05 3.1 12.05 3.8 12.05 4.3 11.7 4.5 11.35" fill="#e27402" fill-rule="evenodd" stroke="none"/>
    <path d="M2.25 11.65 L1.9 11.35 2.35 11.5 2.7 11.55 2.85 11.6 3.55 11.55 3.9 11.35 4.0 11.3 4.15 11.1 4.25 11.2 4.25 11.35 3.85 11.75 3.35 11.9 2.7 11.8 2.25 11.65" fill="#fff6e2" fill-rule="evenodd" stroke="none"/>
    <path d="M1.3 11.35 L1.5 11.15 2.5 10.7 2.7 10.65 3.25 10.6 4.1 10.8 Q4.5 10.95 4.5 11.35 L4.3 11.7 3.8 12.05 3.1 12.05 2.6 12.05 2.15 11.9 1.3 11.35 M2.25 11.65 L2.7 11.8 3.35 11.9 3.85 11.75 4.25 11.35 4.25 11.2 4.15 11.1 4.0 11.3 3.9 11.35 3.55 11.55 2.85 11.6 2.7 11.55 2.35 11.5 1.9 11.35 2.25 11.65" fill="#ffe000" fill-rule="evenodd" stroke="none"/>
    <path d="M4.5 11.35 L4.25 11.95 4.15 12.0 3.5 12.2 3.1 12.25 2.7 12.2 2.1 12.0 1.3 11.35 1.5 11.15" fill="none" stroke="#ec9b4b" stroke-linecap="round" stroke-linejoin="round" stroke-width="0.1"/>
    <path d="M3.55 11.15 L3.65 11.2 3.75 11.15 3.8 11.05 3.75 10.9 3.65 10.85 3.55 10.9 3.5 11.05 3.55 11.15" fill="#ffffff" fill-rule="evenodd" stroke="none"/>
    <path d="M6.5 26.65 Q6.4 26.0 6.65 24.8 L6.75 24.55 7.15 23.65 Q7.55 23.0 8.1 22.65 8.65 22.25 9.2 22.5 L9.65 23.1 9.6 24.1 9.15 25.1 8.65 25.8 8.1 26.3 6.7 27.05 Q6.5 27.05 6.5 26.65 M8.6 22.9 L8.75 23.1 8.75 23.35 8.75 24.0 8.2 25.1 8.0 25.3 7.65 25.7 7.05 26.2 7.75 25.95 8.4 25.55 9.1 24.65 9.35 23.75 9.05 22.85 8.8 22.8 8.6 22.9" fill="#4aff00" fill-rule="evenodd" stroke="none"/>
    <path d="M9.2 22.5 Q8.65 22.25 8.1 22.65 7.55 23.0 7.15 23.65 L6.75 24.55 6.65 24.8 Q6.4 26.0 6.5 26.65 6.5 27.05 6.7 27.05 L8.2 26.45 8.95 25.85 9.35 25.25 9.7 24.65 9.85 23.55 9.85 23.35 Q9.75 22.65 9.2 22.5 M6.15 27.85 L5.95 27.2 5.95 26.0 6.35 24.35 Q6.75 23.35 7.6 22.5 8.6 21.55 9.35 21.7 L9.6 21.75 9.85 21.9 Q10.6 22.45 10.5 23.55 10.35 24.5 9.65 25.6 L9.3 26.05 7.75 27.3 Q6.8 27.9 6.15 27.85" fill="#f79836" fill-rule="evenodd" stroke="none"/>
    <path d="M6.7 27.05 L8.1 26.3 8.65 25.8 9.15 25.1 9.6 24.1 9.65 23.1 9.2 22.5 Q9.75 22.65 9.85 23.35 L9.85 23.55 9.7 24.65 9.35 25.25 8.95 25.85 8.2 26.45 6.7 27.05" fill="#e27402" fill-rule="evenodd" stroke="none"/>
    <path d="M8.6 22.9 L8.8 22.8 9.05 22.85 9.35 23.75 9.1 24.65 8.4 25.55 7.75 25.95 7.05 26.2 7.65 25.7 8.0 25.3 8.2 25.1 8.75 24.0 8.75 23.35 8.75 23.1 8.6 22.9" fill="#fff6e2" fill-rule="evenodd" stroke="none"/>
    <path d="M9.85 21.9 L10.5 22.15 10.95 22.6 Q12.1 24.5 10.0 26.6 L9.0 27.5 8.25 27.95 7.6 28.2 6.85 28.25 6.15 27.85 Q6.8 27.9 7.75 27.3 L9.3 26.05 9.65 25.6 Q10.35 24.5 10.5 23.55 10.6 22.45 9.85 21.9" fill="#bf5e01" fill-rule="evenodd" stroke="none"/>
    <path d="M6.5 26.65 Q6.5 27.05 6.7 27.05 M9.2 22.5 Q9.75 22.65 9.85 23.35 L9.85 23.55 9.7 24.65 9.35 25.25 8.95 25.85 8.2 26.45 6.7 27.05" fill="none" stroke="#ec9b4b" stroke-linecap="round" stroke-linejoin="round" stroke-width="0.1"/>
    <path d="M8.3 23.65 L8.45 23.5 8.5 23.3 8.35 23.15 8.15 23.1 8.0 23.25 7.95 23.45 8.05 23.6 8.3 23.65" fill="#ffffff" fill-rule="evenodd" stroke="none"/>
    <path d="M4.9 19.4 L5.05 19.35 5.25 19.5 Q5.45 19.75 5.3 20.25 L4.9 20.9 4.2 21.5 3.55 21.75 2.95 21.75 3.55 21.5 3.9 21.2 4.1 21.1 4.8 20.3 4.95 19.8 5.0 19.65 4.9 19.4" fill="#fff6e2" fill-rule="evenodd" stroke="none"/>
    <path d="M4.9 19.4 L5.0 19.65 4.95 19.8 4.8 20.3 4.1 21.1 3.9 21.2 3.55 21.5 2.95 21.75 3.55 21.75 4.2 21.5 4.9 20.9 5.3 20.25 Q5.45 19.75 5.25 19.5 L5.05 19.35 4.9 19.4 M2.4 21.95 Q2.45 21.45 2.95 20.5 L3.05 20.35 3.55 19.75 4.6 19.1 5.45 19.2 5.7 19.8 5.45 20.6 4.9 21.3 4.3 21.75 3.8 22.0 2.45 22.35 Q2.35 22.3 2.4 21.95" fill="#fcde04" fill-rule="evenodd" stroke="none"/>
    <path d="M5.45 19.2 L4.6 19.1 3.55 19.75 3.05 20.35 2.95 20.5 Q2.45 21.45 2.4 21.95 2.35 22.3 2.45 22.35 L3.85 22.2 4.55 21.85 5.0 21.5 5.4 21.05 5.75 20.2 5.85 20.05 Q5.9 19.45 5.45 19.2 M1.9 22.9 Q1.8 22.75 1.85 22.3 L2.1 21.35 2.8 20.1 Q3.3 19.35 4.25 18.9 5.2 18.35 5.75 18.65 L6.0 18.7 6.15 18.9 Q6.6 19.5 6.25 20.35 L5.15 21.8 4.75 22.1 3.3 22.75 1.9 22.9" fill="#f79836" fill-rule="evenodd" stroke="none"/>
    <path d="M6.15 18.9 L6.55 19.25 6.85 19.7 Q7.35 21.4 5.25 22.7 L4.25 23.2 3.5 23.4 2.95 23.45 2.35 23.35 1.9 22.9 3.3 22.75 4.75 22.1 5.15 21.8 6.25 20.35 Q6.6 19.5 6.15 18.9" fill="#bf5e01" fill-rule="evenodd" stroke="none"/>
    <path d="M2.45 22.35 L3.8 22.0 4.3 21.75 4.9 21.3 5.45 20.6 5.7 19.8 5.45 19.2 Q5.9 19.45 5.85 20.05 L5.75 20.2 5.4 21.05 5.0 21.5 4.55 21.85 3.85 22.2 2.45 22.35" fill="#e27402" fill-rule="evenodd" stroke="none"/>
    <path d="M2.4 21.95 Q2.35 22.3 2.45 22.35 M5.45 19.2 Q5.9 19.45 5.85 20.05 L5.75 20.2 5.4 21.05 5.0 21.5 4.55 21.85 3.85 22.2 2.45 22.35" fill="none" stroke="#ec9b4b" stroke-linecap="round" stroke-linejoin="round" stroke-width="0.1"/>
    <path d="M4.45 19.9 L4.6 19.85 4.7 19.7 4.65 19.55 4.5 19.45 4.3 19.55 4.25 19.65 4.3 19.85 4.45 19.9" fill="#ffffff" fill-rule="evenodd" stroke="none"/>
    <path d="M5.0 15.45 L5.15 15.9 5.15 16.4 Q4.8 17.9 2.6 17.95 L1.6 17.9 1.0 17.75 0.55 17.55 0.1 17.15 0.0 16.65 1.15 17.15 2.55 17.3 2.95 17.25 Q3.85 17.1 4.45 16.65 5.05 16.15 5.0 15.45" fill="#bf5e01" fill-rule="evenodd" stroke="none"/>
    <path d="M3.8 15.35 L3.95 15.35 4.05 15.55 Q4.1 15.85 3.75 16.15 L3.1 16.45 2.35 16.6 1.75 16.5 1.3 16.25 1.85 16.35 2.3 16.3 2.45 16.25 3.3 15.95 3.7 15.65 3.75 15.55 3.8 15.35" fill="#fff6e2" fill-rule="evenodd" stroke="none"/>
    <path d="M0.8 16.15 L1.8 15.35 2.0 15.25 Q2.3 15.05 2.7 15.0 L3.7 15.0 Q4.2 15.0 4.3 15.4 L4.25 16.0 3.7 16.45 2.95 16.8 2.35 16.85 1.8 16.8 0.65 16.5 0.8 16.15 M3.8 15.35 L3.75 15.55 3.7 15.65 3.3 15.95 2.45 16.25 2.3 16.3 1.85 16.35 1.3 16.25 1.75 16.5 2.35 16.6 3.1 16.45 3.75 16.15 Q4.1 15.85 4.05 15.55 L3.95 15.35 3.8 15.35" fill="#ff04fb" fill-rule="evenodd" stroke="none"/>
    <path d="M0.0 16.65 L0.2 16.2 0.85 15.6 Q1.3 15.25 1.9 14.95 L3.5 14.6 Q4.5 14.65 4.8 15.1 L4.95 15.3 5.0 15.45 Q5.05 16.15 4.45 16.65 3.85 17.1 2.95 17.25 L2.55 17.3 1.15 17.15 0.0 16.65 M4.3 15.4 Q4.2 15.0 3.7 15.0 L2.7 15.0 Q2.3 15.05 2.0 15.25 L1.8 15.35 0.8 16.15 0.65 16.5 1.75 16.95 2.45 17.0 2.95 16.95 3.5 16.8 4.1 16.35 4.25 16.2 Q4.55 15.8 4.3 15.4" fill="#f79836" fill-rule="evenodd" stroke="none"/>
    <path d="M0.65 16.5 L1.8 16.8 2.35 16.85 2.95 16.8 3.7 16.45 4.25 16.0 4.3 15.4 Q4.55 15.8 4.25 16.2 L4.1 16.35 3.5 16.8 2.95 16.95 2.45 17.0 1.75 16.95 0.65 16.5" fill="#e27402" fill-rule="evenodd" stroke="none"/>
    <path d="M0.8 16.15 L0.65 16.5 M4.3 15.4 Q4.55 15.8 4.25 16.2 L4.1 16.35 3.5 16.8 2.95 16.95 2.45 17.0 1.75 16.95 0.65 16.5" fill="none" stroke="#ec9b4b" stroke-linecap="round" stroke-linejoin="round" stroke-width="0.1"/>
    <path d="M3.15 15.65 L3.35 15.65 3.4 15.55 3.4 15.4 3.35 15.3 3.2 15.25 3.1 15.4 3.05 15.5 3.15 15.65" fill="#ffffff" fill-rule="evenodd" stroke="none"/>
    <path d="M6.1 14.25 L5.7 14.25 5.4 13.8 5.4 13.35 5.8 13.1 6.3 13.1 6.55 13.5 6.5 13.95 6.1 14.25" fill="#ecd25b" fill-rule="evenodd" stroke="none"/>
    <path d="M6.0 13.85 L5.8 13.95 5.6 13.95 5.45 13.75 5.45 13.5 5.7 13.4 5.9 13.45 6.05 13.6 6.0 13.85" fill="#fff1b1" fill-rule="evenodd" stroke="none"/>
    <path d="M7.1 17.75 L6.65 17.75 6.35 17.3 6.35 16.8 Q6.45 16.55 6.75 16.55 L7.25 16.55 7.55 16.95 7.5 17.45 7.1 17.75" fill="#ecd25b" fill-rule="evenodd" stroke="none"/>
    <path d="M7.05 17.05 L7.0 17.25 6.85 17.4 6.6 17.4 6.5 17.2 6.5 17.0 6.7 16.85 6.9 16.85 7.05 17.05" fill="#fff1b1" fill-rule="evenodd" stroke="none"/>
    <path d="M9.35 20.5 L8.9 20.5 8.55 20.05 8.55 19.55 9.0 19.2 9.55 19.25 9.85 19.7 9.8 20.2 9.35 20.5" fill="#ecd25b" fill-rule="evenodd" stroke="none"/>
    <path d="M9.15 19.55 L9.3 19.75 9.25 20.0 9.1 20.1 8.85 20.1 8.75 19.9 8.75 19.7 Q8.75 19.55 8.9 19.55 L9.15 19.55" fill="#fff1b1" fill-rule="evenodd" stroke="none"/>
    <path d="M13.25 22.5 L12.65 22.5 Q12.3 22.3 12.25 21.9 L12.25 21.35 Q12.45 21.0 12.8 20.95 L13.45 21.0 13.8 21.5 13.75 22.15 13.25 22.5" fill="#ecd25b" fill-rule="evenodd" stroke="none"/>
    <path d="M13.25 21.9 L13.05 22.05 12.8 22.05 12.6 21.8 12.6 21.5 Q12.7 21.35 12.85 21.35 L13.15 21.35 13.3 21.55 13.25 21.9" fill="#fff1b1" fill-rule="evenodd" stroke="none"/>
    <path d="M17.25 22.35 L16.65 22.35 16.3 21.8 Q16.15 21.5 16.3 21.25 16.45 20.9 16.85 20.85 L17.45 20.9 17.8 21.4 Q17.95 21.7 17.7 22.0 L17.25 22.35" fill="#ecd25b" fill-rule="evenodd" stroke="none"/>
    <path d="M17.0 21.95 L16.65 21.95 16.5 21.7 16.5 21.45 16.75 21.25 17.0 21.25 17.2 21.55 17.15 21.8 17.0 21.95" fill="#fff1b1" fill-rule="evenodd" stroke="none"/>
    <path d="M21.45 20.45 L20.9 20.45 20.55 19.9 20.55 19.35 Q20.7 19.0 21.05 18.95 L21.65 19.0 22.0 19.5 21.95 20.1 21.45 20.45" fill="#ecd25b" fill-rule="evenodd" stroke="none"/>
    <path d="M20.75 19.8 L20.75 19.55 Q20.85 19.4 21.0 19.4 L21.25 19.4 21.45 19.65 21.4 19.9 21.2 20.1 20.9 20.1 20.75 19.8" fill="#fff1b1" fill-rule="evenodd" stroke="none"/>
    <path d="M23.6 17.55 L23.05 17.55 22.7 17.0 22.7 16.45 Q22.85 16.1 23.2 16.05 L23.8 16.1 24.15 16.6 24.1 17.2 Q23.95 17.45 23.6 17.55" fill="#ecd25b" fill-rule="evenodd" stroke="none"/>
    <path d="M23.1 17.15 L22.95 16.85 22.95 16.6 Q23.0 16.45 23.15 16.45 L23.45 16.45 23.6 16.7 23.55 16.95 23.35 17.15 23.1 17.15" fill="#fff1b1" fill-rule="evenodd" stroke="none"/>
    <path d="M24.25 14.25 L23.7 14.25 23.4 13.75 23.4 13.25 Q23.55 12.95 23.85 12.9 L24.4 12.95 24.75 13.4 24.65 13.95 24.25 14.25" fill="#ecd25b" fill-rule="evenodd" stroke="none"/>
    <path d="M23.95 13.95 L23.7 13.95 23.55 13.75 23.55 13.5 23.75 13.35 24.05 13.35 24.15 13.55 24.1 13.85 23.95 13.95" fill="#fff1b1" fill-rule="evenodd" stroke="none"/>
    <path d="M4.8 35.25 Q0.4 34.15 0.4 32.6 0.4 31.05 4.8 29.95 9.15 28.85 15.3 28.85 21.5 28.85 25.85 29.95 30.25 31.05 30.25 32.6 30.25 34.15 25.85 35.25 21.5 36.35 15.3 36.35 9.15 36.35 4.8 35.25" fill="url(#gradient0)" fill-rule="evenodd" stroke="none"/>
  </g>
  <defs>
    <radialGradient cx="0" cy="0" gradientTransform="matrix(0.0177, 0.0, 0.0, 0.0053, 15.3, 32.6)" gradientUnits="userSpaceOnUse" id="gradient0" r="819.2" spreadMethod="pad">
      <stop offset="0.00784313725490196" stop-color="#4d3212" stop-opacity="0.8"/>
      <stop offset="1.0" stop-color="#6b5438" stop-opacity="0.08627451"/>
    </radialGradient>
  </defs>
</svg>
