<?xml version="1.0" encoding="UTF-8" standalone="no"?>
<svg xmlns:xlink="http://www.w3.org/1999/xlink" height="85.25px" width="74.1px" xmlns="http://www.w3.org/2000/svg">
  <g transform="matrix(1.0, 0.0, 0.0, 1.0, 1.0, 1.0)">
    <path d="M67.2 14.05 Q68.75 20.1 67.2 24.75 71.8 28.2 71.15 32.95 L71.1 34.6 Q70.7 37.7 68.35 38.4 L69.25 42.6 69.3 42.85 69.8 48.0 69.8 51.8 69.25 54.15 Q68.85 55.4 68.1 56.3 L67.15 57.2 67.05 57.3 67.05 66.3 Q68.85 67.45 70.0 69.05 L71.05 70.85 Q71.7 72.3 71.95 74.1 L72.1 76.0 Q72.2 79.1 70.8 80.3 69.5 81.45 67.9 81.45 L66.5 81.2 66.45 81.2 65.3 80.6 Q65.1 81.45 64.55 82.05 63.55 83.25 61.3 83.25 59.0 83.2 57.75 82.4 57.0 81.9 56.6 81.15 L56.4 80.7 55.1 81.05 54.5 81.15 Q51.2 81.45 50.1 78.5 49.65 77.25 49.65 76.05 49.65 73.5 51.65 71.05 L51.65 66.6 50.95 65.95 50.35 64.3 Q45.1 62.1 42.2 73.85 41.35 75.8 40.05 76.0 L35.15 75.7 Q33.4 74.7 33.25 71.35 31.9 66.25 27.9 63.8 24.65 62.3 22.7 65.3 22.25 67.05 21.0 67.1 L21.0 71.05 Q22.95 73.5 22.95 76.05 L22.5 78.5 Q21.4 81.45 18.15 81.15 L17.5 81.05 16.2 80.7 16.05 81.15 14.9 82.4 Q13.65 83.2 11.35 83.25 9.1 83.25 8.05 82.05 L7.3 80.6 6.15 81.2 4.7 81.45 Q3.1 81.45 1.8 80.3 0.45 79.1 0.5 76.0 L0.65 74.1 Q0.9 72.3 1.6 70.85 2.0 69.9 2.65 69.05 3.8 67.45 5.55 66.3 L5.55 57.15 4.3 56.6 Q2.35 55.4 2.15 51.65 L2.0 48.35 Q2.0 45.65 2.25 43.15 2.5 40.7 3.05 38.5 0.3 37.95 0.05 33.6 L0.05 31.15 Q0.3 25.45 5.65 24.9 4.1 24.3 3.6 22.2 2.75 16.05 6.7 11.2 8.8 8.55 11.85 8.15 L16.25 8.55 16.45 8.35 Q25.0 -0.8 35.25 0.1 47.95 0.1 54.75 8.65 L54.8 8.65 Q58.55 7.45 61.35 8.25 65.2 9.3 67.2 14.05 M16.45 50.15 L16.3 49.75 16.3 50.05 16.45 50.15 M56.15 51.15 Q56.75 50.7 57.35 50.4 L57.4 49.4 56.9 50.25 56.15 51.15" fill="#f3bb57" fill-rule="evenodd" stroke="none"/>
    <path d="M67.2 14.05 Q68.75 20.1 67.2 24.75 71.8 28.2 71.15 32.95 L71.1 34.6 Q70.7 37.7 68.35 38.4 L69.25 42.6 69.3 42.85 69.8 48.0 69.8 51.8 69.25 54.15 Q68.85 55.4 68.1 56.3 L67.15 57.2 67.05 57.3 67.05 66.3 Q68.85 67.45 70.0 69.05 L71.05 70.85 Q71.7 72.3 71.95 74.1 L72.1 76.0 Q72.2 79.1 70.8 80.3 69.5 81.45 67.9 81.45 L66.5 81.2 66.45 81.2 65.3 80.6 Q65.1 81.45 64.55 82.05 63.55 83.25 61.3 83.25 59.0 83.2 57.75 82.4 57.0 81.9 56.6 81.15 L56.4 80.7 55.1 81.05 54.5 81.15 Q51.2 81.45 50.1 78.5 49.65 77.25 49.65 76.05 49.65 73.5 51.65 71.05 L51.65 66.6 50.95 65.95 50.35 64.3 Q45.1 62.1 42.2 73.85 41.35 75.8 40.05 76.0 L35.15 75.7 Q33.4 74.7 33.25 71.35 31.9 66.25 27.9 63.8 24.65 62.3 22.7 65.3 22.25 67.05 21.0 67.1 L21.0 71.05 Q22.95 73.5 22.95 76.05 L22.5 78.5 Q21.4 81.45 18.15 81.15 L17.5 81.05 16.2 80.7 16.05 81.15 14.9 82.4 Q13.65 83.2 11.35 83.25 9.1 83.25 8.05 82.05 L7.3 80.6 6.15 81.2 4.7 81.45 Q3.1 81.45 1.8 80.3 0.45 79.1 0.5 76.0 L0.65 74.1 Q0.9 72.3 1.6 70.85 2.0 69.9 2.65 69.05 3.8 67.45 5.55 66.3 L5.55 57.15 4.3 56.6 Q2.35 55.4 2.15 51.65 L2.0 48.35 Q2.0 45.65 2.25 43.15 2.5 40.7 3.05 38.5 0.3 37.95 0.05 33.6 L0.05 31.15 Q0.3 25.45 5.65 24.9 4.1 24.3 3.6 22.2 2.75 16.05 6.7 11.2 8.8 8.55 11.85 8.15 L16.25 8.55 16.45 8.35 Q25.0 -0.8 35.25 0.1 47.95 0.1 54.75 8.65 L54.8 8.65 Q58.55 7.45 61.35 8.25 65.2 9.3 67.2 14.05 Z" fill="none" stroke="#452603" stroke-linecap="round" stroke-linejoin="round" stroke-width="2.0"/>
    <path d="M56.2 11.95 L56.4 12.1 58.75 14.45 Q60.65 16.45 61.4 16.3 L62.65 15.85 Q63.2 15.5 63.3 13.85 63.4 12.2 61.9 10.85 60.35 9.45 58.3 9.45 L56.05 9.65 55.85 9.65 Q55.5 9.7 55.35 10.0 L54.95 9.2 54.8 8.65 Q58.55 7.45 61.35 8.25 67.45 12.05 66.4 18.15 65.85 21.55 62.6 21.45 59.8 21.5 58.85 18.6 58.8 15.25 56.2 11.95 M11.85 8.15 L16.25 8.55 16.45 8.35 15.75 10.1 Q14.6 9.0 13.1 9.3 9.15 11.05 9.15 15.55 9.15 16.25 9.7 16.7 10.25 17.15 11.15 17.15 12.15 17.15 13.0 16.2 L14.0 14.65 12.9 18.5 Q12.3 20.75 10.05 21.35 7.8 21.95 6.8 20.1 5.2 17.2 6.9 13.6 8.45 10.25 11.85 8.15" fill="#f6a61d" fill-rule="evenodd" stroke="none"/>
    <path d="M55.35 10.0 Q55.5 9.7 55.85 9.65 L56.05 9.65 58.3 9.45 Q60.35 9.45 61.9 10.85 63.4 12.2 63.3 13.85 63.2 15.5 62.65 15.85 L61.4 16.3 Q60.65 16.45 58.75 14.45 L56.4 12.1 56.2 11.95 55.95 11.75 55.85 11.65 55.8 11.6 55.8 11.55 55.7 11.4 55.5 10.95 55.3 10.25 55.35 10.0 M15.75 10.1 L15.8 10.2 15.7 10.4 Q14.95 11.5 14.25 13.6 L14.05 14.35 14.0 14.65 13.0 16.2 Q12.15 17.15 11.15 17.15 10.25 17.15 9.7 16.7 9.15 16.25 9.15 15.55 9.15 11.05 13.1 9.3 14.6 9.0 15.75 10.1" fill="#fcc258" fill-rule="evenodd" stroke="none"/>
    <path d="M54.8 8.65 L54.95 9.2 55.35 10.0 55.3 10.25 55.5 10.95 55.7 11.4 55.8 11.55 55.8 11.6 55.85 12.1 56.2 14.45 Q56.75 17.7 56.6 19.55 L56.6 33.7 56.15 41.65 Q36.5 46.75 14.6 41.65 L14.6 33.6 14.6 33.45 14.6 33.2 15.35 19.15 Q15.05 15.55 15.8 10.2 L15.75 10.1 16.45 8.35 Q25.0 -0.8 35.25 0.1 47.95 0.1 54.75 8.65 L54.8 8.65 M46.75 10.15 Q47.4 5.55 41.6 2.25 32.6 -1.3 26.85 3.5 22.2 8.6 27.6 17.85 36.05 27.85 43.8 17.7 46.45 12.6 46.75 10.15" fill="#df9613" fill-rule="evenodd" stroke="none"/>
    <path d="M46.75 10.15 Q46.45 12.6 43.8 17.7 36.05 27.85 27.6 17.85 22.2 8.6 26.85 3.5 32.6 -1.3 41.6 2.25 47.4 5.55 46.75 10.15" fill="#fcbe4e" fill-rule="evenodd" stroke="none"/>
    <path d="M14.6 33.6 Q14.1 38.25 10.5 38.8 L7.55 38.9 3.45 38.55 Q0.3 38.3 0.05 33.6 L1.25 34.75 Q2.05 35.45 2.9 35.4 L4.15 35.25 Q4.5 35.2 5.25 35.8 5.95 36.35 6.8 36.45 L8.6 36.1 9.8 35.45 11.05 35.8 Q12.05 36.0 13.1 35.4 14.05 34.75 14.6 33.6 M56.8 34.75 L57.75 35.45 58.95 36.0 60.2 36.2 62.2 35.85 63.7 34.55 64.7 35.75 Q65.4 36.5 66.25 36.5 67.25 36.5 67.95 35.85 68.65 35.25 68.85 34.25 L69.6 34.7 70.35 34.9 71.1 34.6 Q70.7 37.85 68.1 38.45 L63.05 38.9 Q57.4 38.9 56.75 34.65 L56.8 34.75" fill="#91601e" fill-rule="evenodd" stroke="none"/>
    <path d="M67.0 30.4 Q66.6 31.05 66.05 31.0 L65.45 30.95 64.45 30.1 63.2 31.0 Q62.55 31.1 62.15 30.4 61.7 29.7 61.55 28.85 61.4 28.05 61.95 26.95 L62.75 25.65 63.55 25.15 64.95 24.9 64.85 24.85 65.65 25.1 Q66.95 25.45 68.3 26.65 69.7 27.85 69.75 29.15 69.8 30.4 69.05 30.5 68.3 30.55 67.85 29.75 67.4 29.0 67.4 29.4 L67.0 30.4" fill="#f2a712" fill-rule="evenodd" stroke="none"/>
    <path d="M0.05 33.6 L0.05 31.15 Q0.3 25.45 5.65 24.9 4.1 24.3 3.6 22.2 2.75 16.05 6.7 11.2 8.8 8.55 11.85 8.15 8.45 10.25 6.9 13.6 5.2 17.2 6.8 20.1 7.8 21.95 10.05 21.35 12.3 20.75 12.9 18.5 L14.0 14.65 14.05 14.35 14.25 13.6 Q14.95 11.5 15.7 10.4 L15.8 10.2 Q15.05 15.55 15.35 19.15 L14.6 33.2 14.6 33.45 14.6 33.6 Q14.05 34.75 13.1 35.4 12.05 36.0 11.05 35.8 L9.8 35.45 8.6 36.1 6.8 36.45 Q5.95 36.35 5.25 35.8 4.5 35.2 4.15 35.25 L2.9 35.4 Q2.05 35.45 1.25 34.75 L0.05 33.6 M11.05 28.55 Q11.05 26.65 9.9 25.85 9.15 25.4 7.0 25.1 L6.9 25.1 6.85 25.05 6.3 25.05 5.65 25.2 4.4 25.6 Q3.1 26.2 2.55 27.2 2.0 28.2 2.0 29.75 2.0 31.15 2.9 31.15 3.45 31.15 3.95 30.55 L4.6 29.6 4.9 31.4 5.55 31.95 6.8 32.15 Q7.45 32.15 7.85 31.45 8.25 30.7 8.55 30.7 8.75 30.75 9.15 31.15 9.45 31.5 9.95 31.65 10.45 31.75 10.8 30.75 L11.05 28.55" fill="url(#gradient0)" fill-rule="evenodd" stroke="none"/>
    <path d="M11.05 28.55 L10.8 30.75 Q10.45 31.75 9.95 31.65 9.45 31.5 9.15 31.15 8.75 30.75 8.55 30.7 8.25 30.7 7.85 31.45 7.45 32.15 6.8 32.15 L5.55 31.95 4.9 31.4 4.6 29.6 3.95 30.55 Q3.45 31.15 2.9 31.15 2.0 31.15 2.0 29.75 2.0 28.2 2.55 27.2 3.1 26.2 4.4 25.6 L5.65 25.2 6.3 25.05 6.85 25.05 6.9 25.1 7.0 25.1 Q9.15 25.4 9.9 25.85 11.05 26.65 11.05 28.55" fill="#f7ab15" fill-rule="evenodd" stroke="none"/>
    <path d="M67.2 14.05 Q68.75 20.1 67.2 24.75 71.8 28.2 71.15 32.95 L71.1 34.6 70.35 34.9 69.6 34.7 68.85 34.25 Q68.65 35.25 67.95 35.85 67.25 36.5 66.25 36.5 65.4 36.5 64.7 35.75 L63.7 34.55 62.2 35.85 60.2 36.2 58.95 36.0 57.75 35.45 56.8 34.75 56.75 34.65 56.6 33.7 56.6 19.55 Q56.75 17.7 56.2 14.45 L55.85 12.1 55.8 11.6 55.85 11.65 55.95 11.75 56.2 11.95 Q58.8 15.25 58.85 18.6 59.8 21.5 62.6 21.45 65.85 21.55 66.4 18.15 67.45 12.05 61.35 8.25 65.2 9.3 67.2 14.05 M67.0 30.4 L67.4 29.4 Q67.4 29.0 67.85 29.75 68.3 30.55 69.05 30.5 69.8 30.4 69.75 29.15 69.7 27.85 68.3 26.65 66.95 25.45 65.65 25.1 L64.85 24.85 64.95 24.9 63.55 25.15 62.75 25.65 61.95 26.95 Q61.4 28.05 61.55 28.85 61.7 29.7 62.15 30.4 62.55 31.1 63.2 31.0 L64.45 30.1 65.45 30.95 66.05 31.0 Q66.6 31.05 67.0 30.4" fill="url(#gradient1)" fill-rule="evenodd" stroke="none"/>
    <path d="M21.0 68.25 L21.0 71.05 Q20.05 69.1 18.9 68.2 L18.7 65.5 20.3 67.25 20.8 67.95 21.0 68.25 M2.65 69.05 Q3.8 67.45 5.55 66.3 L5.55 64.7 6.2 62.8 Q6.7 61.95 7.75 61.5 L7.7 63.8 7.85 65.65 7.95 66.45 6.05 67.1 Q4.0 68.0 2.65 69.05" fill="url(#gradient2)" fill-rule="evenodd" stroke="none"/>
    <path d="M5.55 64.7 L5.55 53.75 8.95 53.75 Q8.2 56.3 7.95 58.6 L7.75 61.5 Q6.7 61.95 6.2 62.8 L5.55 64.7 M16.6 53.75 L21.0 53.75 21.0 68.25 20.8 67.95 20.3 67.25 18.7 65.5 Q17.6 56.95 16.6 53.75" fill="#986014" fill-rule="evenodd" stroke="none"/>
    <path d="M1.6 70.85 Q2.0 69.9 2.65 69.05 4.0 68.0 6.05 67.1 L7.95 66.45 11.4 65.9 Q14.25 65.9 18.25 67.85 L18.9 68.2 Q20.05 69.1 21.0 71.05 L21.1 72.35 Q21.1 73.95 20.05 75.15 18.95 76.45 17.15 76.45 L16.45 76.35 16.3 76.3 15.85 76.0 15.75 76.3 14.4 77.45 Q13.1 78.1 11.6 78.1 8.5 78.1 7.8 76.1 L7.7 76.15 7.5 76.3 7.05 76.6 5.9 76.95 Q4.3 76.95 3.0 75.65 1.5 74.15 1.5 71.8 L1.6 70.85 M3.95 70.2 L3.7 70.45 Q2.9 71.3 2.9 72.2 2.9 72.9 3.8 73.7 4.65 74.45 5.45 74.45 6.9 74.45 6.9 72.95 6.9 71.5 5.95 70.75 5.2 70.15 4.15 70.15 L3.95 70.2 M10.65 73.3 L9.85 74.1 Q9.35 74.75 9.35 75.3 9.35 75.8 9.95 76.2 L11.0 76.5 Q13.75 76.5 13.75 74.55 13.75 72.95 11.7 72.95 L11.15 72.95 10.65 73.3 M16.75 73.4 Q16.75 74.05 16.9 74.25 L17.65 74.45 Q18.5 74.45 19.2 73.4 L19.75 72.05 Q19.75 70.9 18.1 71.1 L17.2 72.25 Q16.75 72.85 16.75 73.4" fill="url(#gradient3)" fill-rule="evenodd" stroke="none"/>
    <path d="M21.0 71.05 Q22.95 73.5 22.95 76.05 L21.4 77.4 Q19.5 78.65 18.0 78.65 L17.6 78.65 17.6 78.45 17.45 77.95 Q17.15 77.2 16.45 76.35 L17.15 76.45 Q18.95 76.45 20.05 75.15 21.1 73.95 21.1 72.35 L21.0 71.05 M0.5 76.0 L0.65 74.1 Q0.9 72.3 1.6 70.85 L1.5 71.8 Q1.5 74.15 3.0 75.65 4.3 76.95 5.9 76.95 L7.05 76.6 7.5 76.3 Q6.85 76.8 6.35 77.95 L6.3 78.05 4.25 78.55 Q2.85 78.55 1.65 77.55 0.85 76.9 0.5 76.0 M7.7 76.15 L7.8 76.1 Q8.5 78.1 11.6 78.1 13.1 78.1 14.4 77.45 L15.75 76.3 16.1 78.7 15.95 78.8 14.65 79.75 Q13.35 80.35 12.1 80.35 L9.15 79.8 8.3 79.35 Q7.7 78.9 7.45 78.25 L7.55 77.25 7.7 76.15" fill="#c67a1f" fill-rule="evenodd" stroke="none"/>
    <path d="M22.95 76.05 L22.5 78.5 Q21.4 81.45 18.15 81.15 L18.0 80.0 17.6 78.65 18.0 78.65 Q19.5 78.65 21.4 77.4 L22.95 76.05 M16.2 80.7 L16.05 81.15 14.9 82.4 Q13.65 83.2 11.35 83.25 9.1 83.25 8.05 82.05 L7.45 79.85 7.45 79.25 7.4 78.5 7.45 78.25 Q7.7 78.9 8.3 79.35 L9.15 79.8 12.1 80.35 Q13.35 80.35 14.65 79.75 L15.95 78.8 16.1 78.7 16.25 80.15 16.25 80.65 16.2 80.7 M6.15 81.2 L4.7 81.45 Q3.1 81.45 1.8 80.3 0.45 79.1 0.5 76.0 0.85 76.9 1.65 77.55 2.85 78.55 4.25 78.55 L6.3 78.05 6.0 79.1 Q5.85 79.65 5.85 80.15 L5.85 80.7 6.15 81.2 M8.95 53.75 L16.6 53.75 Q17.6 56.95 18.7 65.5 17.8 63.95 15.55 62.9 L12.05 61.15 Q10.85 60.5 9.5 60.8 8.2 61.05 7.75 61.5 L7.95 58.6 Q8.2 56.3 8.95 53.75 M7.2 77.7 L7.2 77.65 7.25 77.65 7.2 77.7" fill="#aa6f1f" fill-rule="evenodd" stroke="none"/>
    <path d="M18.7 65.5 L18.9 68.2 18.25 67.85 Q14.25 65.9 11.4 65.9 L7.95 66.45 7.85 65.65 7.7 63.8 7.75 61.5 Q8.2 61.05 9.5 60.8 10.85 60.5 12.05 61.15 L15.55 62.9 Q17.8 63.95 18.7 65.5" fill="url(#gradient4)" fill-rule="evenodd" stroke="none"/>
    <path d="M16.75 73.4 Q16.75 72.85 17.2 72.25 L18.1 71.1 Q19.75 70.9 19.75 72.05 L19.2 73.4 Q18.5 74.45 17.65 74.45 L16.9 74.25 Q16.75 74.05 16.75 73.4 M10.65 73.3 L11.15 72.95 11.7 72.95 Q13.75 72.95 13.75 74.55 13.75 76.5 11.0 76.5 L9.95 76.2 Q9.35 75.8 9.35 75.3 9.35 74.75 9.85 74.1 L10.65 73.3 M3.95 70.2 L4.15 70.15 Q5.2 70.15 5.95 70.75 6.9 71.5 6.9 72.95 6.9 74.45 5.45 74.45 4.65 74.45 3.8 73.7 2.9 72.9 2.9 72.2 2.9 71.3 3.7 70.45 L3.95 70.2" fill="#ffca48" fill-rule="evenodd" stroke="none"/>
    <path d="M16.45 76.35 Q17.15 77.2 17.45 77.95 L17.6 78.45 17.6 78.65 17.25 78.55 16.45 78.15 16.1 78.7 15.75 76.3 15.85 76.0 16.3 76.3 16.45 76.35 M7.5 76.3 L7.7 76.15 7.55 77.25 7.45 78.25 7.2 77.7 7.25 77.65 7.2 77.65 7.2 77.7 6.3 78.05 6.35 77.95 Q6.85 76.8 7.5 76.3" fill="#9f5e11" fill-rule="evenodd" stroke="none"/>
    <path d="M18.15 81.15 L17.5 81.05 16.2 80.7 16.25 80.65 16.25 80.15 16.1 78.7 16.45 78.15 17.25 78.55 17.6 78.65 18.0 80.0 18.15 81.15 M8.05 82.05 L7.3 80.6 6.15 81.2 5.85 80.7 5.85 80.15 Q5.85 79.65 6.0 79.1 L6.3 78.05 7.2 77.7 7.45 78.25 7.4 78.5 7.45 79.25 7.45 79.85 8.05 82.05" fill="#855616" fill-rule="evenodd" stroke="none"/>
    <path d="M63.7 53.75 Q64.4 56.3 64.7 58.6 L64.9 61.5 63.85 61.15 60.55 60.25 57.45 60.0 Q55.65 60.0 54.45 61.0 55.05 56.95 56.05 53.75 L63.7 53.75 M72.1 76.0 Q72.2 79.1 70.8 80.3 69.5 81.45 67.9 81.45 L66.5 81.2 66.8 80.7 66.8 80.15 66.6 79.1 66.3 78.05 68.4 78.55 Q69.8 78.55 70.95 77.55 L72.1 76.0 M64.55 82.05 Q63.55 83.25 61.3 83.25 59.0 83.2 57.75 82.4 57.0 81.9 56.6 81.15 L56.4 80.7 56.4 80.65 56.4 80.15 Q56.4 79.4 56.55 78.7 L56.65 78.8 57.95 79.75 Q59.25 80.35 60.55 80.35 L63.5 79.8 64.35 79.35 65.2 78.25 65.25 78.5 65.2 79.25 65.15 79.85 64.55 82.05 M54.5 81.15 Q51.2 81.45 50.1 78.5 49.65 77.25 49.65 76.05 L51.2 77.4 Q53.1 78.65 54.6 78.65 L55.05 78.65 54.65 80.0 Q54.5 80.55 54.5 81.15 M65.45 77.65 L65.45 77.7 65.35 77.65 65.45 77.65" fill="#aa6f1f" fill-rule="evenodd" stroke="none"/>
    <path d="M63.7 53.75 L67.05 53.75 67.05 64.7 66.4 62.8 Q65.95 61.95 64.9 61.5 L64.7 58.6 Q64.4 56.3 63.7 53.75 M51.65 67.3 L51.65 53.75 56.05 53.75 Q55.05 56.95 54.45 61.0 53.4 61.85 52.8 63.5 L51.9 66.6 51.65 67.3" fill="#986014" fill-rule="evenodd" stroke="none"/>
    <path d="M54.45 61.0 Q55.65 60.0 57.45 60.0 L60.55 60.25 63.85 61.15 64.9 61.5 64.9 63.8 64.75 65.65 64.7 66.45 Q62.85 65.9 61.25 65.9 58.35 65.9 54.35 67.85 L53.75 68.2 Q54.05 63.9 54.45 61.1 L54.45 61.0" fill="url(#gradient5)" fill-rule="evenodd" stroke="none"/>
    <path d="M64.9 61.5 Q65.95 61.95 66.4 62.8 L67.05 64.7 67.05 66.3 Q68.85 67.45 70.0 69.05 68.65 68.0 66.6 67.1 L64.7 66.45 64.75 65.65 64.9 63.8 64.9 61.5 M51.65 71.05 L51.65 67.3 51.9 66.6 52.8 63.5 Q53.4 61.85 54.45 61.0 L54.45 61.1 Q54.05 63.9 53.75 68.2 52.6 69.1 51.65 71.05" fill="url(#gradient6)" fill-rule="evenodd" stroke="none"/>
    <path d="M70.0 69.05 L71.05 70.85 71.1 71.8 Q71.1 74.15 69.6 75.65 68.3 76.95 66.75 76.95 L65.6 76.6 65.1 76.3 64.9 76.15 64.85 76.1 Q64.15 78.1 61.0 78.1 59.55 78.1 58.25 77.45 57.25 76.95 56.9 76.3 L56.8 76.0 56.35 76.3 56.2 76.35 55.5 76.45 Q53.65 76.45 52.55 75.15 51.55 73.95 51.55 72.35 L51.65 71.05 Q52.6 69.1 53.75 68.2 L54.35 67.85 Q58.35 65.9 61.25 65.9 62.85 65.9 64.7 66.45 L66.6 67.1 Q68.65 68.0 70.0 69.05 M69.7 72.2 Q69.7 71.3 68.9 70.45 L68.65 70.2 68.5 70.15 Q67.45 70.15 66.7 70.75 65.75 71.5 65.75 72.95 65.75 74.45 67.15 74.45 67.95 74.45 68.85 73.7 69.7 72.9 69.7 72.2 M62.8 74.1 L62.0 73.3 61.5 72.95 60.95 72.95 Q58.85 72.95 58.85 74.55 58.85 76.5 61.6 76.5 L62.65 76.2 Q63.3 75.8 63.3 75.3 63.3 74.75 62.8 74.1 M55.45 72.25 L54.55 71.1 Q52.85 70.9 52.85 72.05 52.85 72.55 53.4 73.4 54.15 74.45 54.95 74.45 L55.7 74.25 55.85 73.4 Q55.85 72.85 55.45 72.25" fill="url(#gradient7)" fill-rule="evenodd" stroke="none"/>
    <path d="M62.8 74.1 Q63.3 74.75 63.3 75.3 63.3 75.8 62.65 76.2 L61.6 76.5 Q58.85 76.5 58.85 74.55 58.85 72.95 60.95 72.95 L61.5 72.95 62.0 73.3 62.8 74.1 M69.7 72.2 Q69.7 72.9 68.85 73.7 67.95 74.45 67.15 74.45 65.75 74.45 65.75 72.95 65.75 71.5 66.7 70.75 67.45 70.15 68.5 70.15 L68.65 70.2 68.9 70.45 Q69.7 71.3 69.7 72.2 M55.45 72.25 Q55.85 72.85 55.85 73.4 L55.7 74.25 54.95 74.45 Q54.15 74.45 53.4 73.4 52.85 72.55 52.85 72.05 52.85 70.9 54.55 71.1 L55.45 72.25" fill="#ffca48" fill-rule="evenodd" stroke="none"/>
    <path d="M71.05 70.85 Q71.7 72.3 71.95 74.1 L72.1 76.0 70.95 77.55 Q69.8 78.55 68.4 78.55 L66.3 78.05 66.25 77.95 Q65.8 76.8 65.1 76.3 L65.6 76.6 66.75 76.95 Q68.3 76.95 69.6 75.65 71.1 74.15 71.1 71.8 L71.05 70.85 M49.65 76.05 Q49.65 73.5 51.65 71.05 L51.55 72.35 Q51.55 73.95 52.55 75.15 53.65 76.45 55.5 76.45 L56.2 76.35 55.2 77.95 55.05 78.45 55.05 78.65 54.6 78.65 Q53.1 78.65 51.2 77.4 L49.65 76.05 M56.9 76.3 Q57.25 76.95 58.25 77.45 59.55 78.1 61.0 78.1 64.15 78.1 64.85 76.1 L64.9 76.15 65.1 77.25 65.2 78.25 64.35 79.35 63.5 79.8 60.55 80.35 Q59.25 80.35 57.95 79.75 L56.65 78.8 56.55 78.7 Q56.6 77.0 56.9 76.3" fill="#c67a1f" fill-rule="evenodd" stroke="none"/>
    <path d="M56.2 76.35 L56.35 76.3 56.8 76.0 56.9 76.3 Q56.6 77.0 56.55 78.7 L56.2 78.15 55.4 78.55 55.05 78.65 55.05 78.45 55.2 77.95 56.2 76.35 M64.9 76.15 L65.1 76.3 Q65.8 76.8 66.25 77.95 L66.3 78.05 65.45 77.7 65.2 78.25 65.1 77.25 64.9 76.15 M65.45 77.65 L65.35 77.65 65.45 77.7 65.45 77.65" fill="#9f5e11" fill-rule="evenodd" stroke="none"/>
    <path d="M66.5 81.2 L66.45 81.2 65.3 80.6 Q65.1 81.45 64.55 82.05 L65.15 79.85 65.2 79.25 65.25 78.5 65.2 78.25 65.45 77.7 66.3 78.05 66.6 79.1 66.8 80.15 66.8 80.7 66.5 81.2 M56.4 80.7 L55.1 81.05 54.5 81.15 Q54.5 80.55 54.65 80.0 L55.05 78.65 55.4 78.55 56.2 78.15 56.55 78.7 Q56.4 79.4 56.4 80.15 L56.4 80.65 56.4 80.7" fill="#855616" fill-rule="evenodd" stroke="none"/>
    <path d="M20.95 25.85 Q18.9 22.95 19.4 21.45 20.65 18.7 26.9 16.8 35.6 14.6 44.7 17.35 47.75 18.4 50.2 20.1 52.3 21.65 50.0 25.85 L49.25 27.5 48.65 29.25 45.85 28.35 49.1 23.55 Q49.85 21.2 47.4 20.1 45.05 19.0 42.45 18.3 L42.2 18.25 Q36.6 16.45 31.0 17.6 L30.8 17.65 Q27.1 18.35 24.55 20.3 22.5 21.9 23.45 23.5 24.3 25.15 26.3 28.05 L27.0 28.85 Q25.55 29.5 24.25 30.5 L24.2 30.45 22.35 27.6 20.95 25.85 M53.4 22.25 Q53.3 21.0 52.45 20.05 L51.3 19.05 Q36.5 10.35 21.2 18.0 17.8 19.75 16.7 22.15 15.15 21.1 13.55 20.45 L15.45 18.85 Q20.5 15.0 27.5 12.85 L29.55 12.25 29.85 12.3 Q37.5 10.7 44.95 13.15 50.7 15.0 56.3 19.2 L57.8 20.35 Q55.3 20.95 53.4 22.25" fill="#b57416" fill-rule="evenodd" stroke="none"/>
    <path d="M27.0 28.85 L26.3 28.05 Q24.3 25.15 23.45 23.5 22.5 21.9 24.55 20.3 27.1 18.35 30.8 17.65 L31.0 17.6 Q36.6 16.45 42.2 18.25 L42.45 18.3 Q45.05 19.0 47.4 20.1 49.85 21.2 49.1 23.55 L45.85 28.35 36.95 27.55 30.25 27.9 Q28.55 28.2 27.0 28.85" fill="#ffe98d" fill-rule="evenodd" stroke="none"/>
    <path d="M50.0 25.85 Q52.3 21.65 50.2 20.1 47.75 18.4 44.7 17.35 35.6 14.6 26.9 16.8 20.65 18.7 19.4 21.45 18.9 22.95 20.95 25.85 19.25 23.9 17.35 22.6 L17.35 22.55 17.3 22.55 16.7 22.15 Q17.8 19.75 21.2 18.0 36.5 10.35 51.3 19.05 L52.45 20.05 Q53.3 21.0 53.4 22.25 51.35 23.65 50.0 25.85" fill="#ffda93" fill-rule="evenodd" stroke="none"/>
    <path d="M53.5 22.9 L53.4 22.85 53.4 22.25 53.5 22.9" fill="#1b5789" fill-rule="evenodd" stroke="none"/>
    <path d="M20.95 25.85 L22.35 27.6 24.2 30.45 24.0 30.6 Q22.1 31.9 20.75 33.3 19.35 31.65 17.65 30.4 15.55 28.85 13.05 28.0 14.6 25.55 17.35 22.6 19.25 23.9 20.95 25.85 M48.65 29.25 L49.25 27.5 50.0 25.85 Q51.35 23.65 53.4 22.25 L53.4 22.85 53.5 22.9 53.4 22.25 Q56.9 24.15 58.5 26.9 55.35 28.1 53.35 30.25 52.45 31.15 51.85 32.2 50.35 30.85 48.5 29.75 L48.65 29.25 M57.35 50.4 Q60.15 48.8 63.05 48.2 L64.55 47.9 Q63.75 52.5 62.25 55.15 L55.85 55.45 Q57.1 52.8 57.35 50.4 M7.7 47.8 Q12.3 47.9 16.3 50.05 16.3 52.65 17.55 55.1 L9.7 54.85 8.8 54.2 8.4 53.75 Q7.85 52.55 7.7 51.4 7.5 50.15 7.65 48.05 L7.7 47.8" fill="#1e9cd2" fill-rule="evenodd" stroke="none"/>
    <path d="M17.3 22.55 L17.35 22.55 17.35 22.6 Q14.6 25.55 13.05 28.0 10.75 27.15 8.15 26.85 10.4 23.25 13.55 20.45 15.15 21.1 16.7 22.15 16.5 22.75 17.3 22.55 M53.4 22.25 Q55.3 20.95 57.8 20.35 L59.05 21.35 62.45 25.8 Q60.3 26.15 58.5 26.9 56.9 24.15 53.4 22.25" fill="#4188c2" fill-rule="evenodd" stroke="none"/>
    <path d="M51.85 32.2 Q52.45 31.15 53.35 30.25 55.35 28.1 58.5 26.9 61.5 30.4 63.0 34.5 60.65 34.85 58.6 35.85 L56.05 37.4 Q54.55 34.55 51.85 32.2" fill="#ffc433" fill-rule="evenodd" stroke="none"/>
    <path d="M24.25 30.5 Q25.55 29.5 27.0 28.85 28.95 30.7 32.2 29.6 36.15 28.2 40.15 29.55 44.1 30.85 45.3 29.15 L45.85 28.35 48.65 29.25 48.5 29.75 Q48.05 31.5 47.9 33.65 46.7 33.0 45.5 32.6 L44.4 32.1 42.85 31.65 41.75 31.4 40.6 31.15 39.65 31.05 39.65 30.9 39.55 30.9 39.55 31.05 37.05 30.9 36.45 30.9 35.95 30.9 35.9 30.9 33.65 31.15 32.0 31.45 31.35 31.6 29.5 32.25 28.85 32.5 Q27.5 33.05 26.15 33.75 L25.9 33.9 24.25 30.5" fill="#935905" fill-rule="evenodd" stroke="none"/>
    <path d="M42.85 31.65 Q42.5 33.65 42.55 34.95 L42.7 37.4 42.75 37.9 42.3 38.05 39.85 39.05 39.7 39.1 39.65 39.1 Q39.45 36.8 39.55 35.0 L39.65 31.05 40.6 31.15 41.75 31.4 42.85 31.65 M36.15 39.1 Q34.75 38.75 32.9 38.0 L32.6 37.9 32.6 35.35 Q32.6 33.3 32.0 31.45 L33.65 31.15 35.9 30.9 35.95 30.9 36.25 34.95 36.15 39.1 M29.5 36.9 L27.85 36.65 26.6 36.8 26.2 33.85 26.15 33.75 Q27.5 33.05 28.85 32.5 L29.4 34.75 29.5 36.85 29.5 36.9" fill="#c6a476" fill-rule="evenodd" stroke="none"/>
    <path d="M42.85 31.65 L44.4 32.1 45.5 32.6 45.6 34.3 45.7 35.85 45.7 36.95 43.35 37.65 42.75 37.9 42.7 37.4 42.55 34.95 Q42.5 33.65 42.85 31.65 M50.4 35.5 L52.65 37.45 54.0 39.15 52.9 40.4 52.85 40.5 Q51.9 39.2 50.45 38.05 49.4 37.2 48.15 36.95 L48.3 35.1 48.3 33.8 Q49.1 34.25 50.4 35.5 M21.25 41.2 L21.15 41.45 21.05 41.45 20.95 41.35 18.95 39.6 Q20.45 37.65 22.6 36.0 L24.4 34.75 25.9 33.9 26.15 33.75 26.2 33.85 26.6 36.8 Q24.95 37.1 23.5 38.25 21.75 39.65 21.25 41.2 M39.65 39.1 L38.0 39.3 37.1 39.25 36.15 39.1 36.25 34.95 35.95 30.9 36.45 30.9 37.05 30.9 39.55 31.05 39.65 31.05 39.55 35.0 Q39.45 36.8 39.65 39.1 M32.6 37.9 Q30.85 37.15 29.5 36.9 L29.5 36.85 29.4 34.75 28.85 32.5 29.5 32.25 31.35 31.6 32.0 31.45 Q32.6 33.3 32.6 35.35 L32.6 37.9 M52.9 40.6 L52.85 40.6 52.8 40.5 52.9 40.6" fill="#7d6038" fill-rule="evenodd" stroke="none"/>
    <path d="M47.9 33.65 Q48.05 31.5 48.5 29.75 50.35 30.85 51.85 32.2 50.95 33.65 50.4 35.5 49.1 34.25 48.3 33.8 L47.9 33.65" fill="#213b76" fill-rule="evenodd" stroke="none"/>
    <path d="M45.7 36.95 L45.7 35.85 45.6 34.3 45.5 32.6 Q46.7 33.0 47.9 33.65 L48.3 33.8 48.3 35.1 48.15 36.95 46.85 36.8 45.7 36.95" fill="#ce9a61" fill-rule="evenodd" stroke="none"/>
    <path d="M42.75 37.9 L43.35 37.65 45.7 36.95 46.85 36.8 48.15 36.95 Q49.4 37.2 50.45 38.05 51.9 39.2 52.85 40.5 L52.8 40.5 52.85 40.6 51.2 39.9 Q48.5 36.65 44.55 38.2 L44.25 38.4 43.25 38.85 40.15 39.85 39.9 39.9 37.65 40.1 37.2 40.1 36.55 40.15 33.85 39.45 32.7 39.05 31.95 38.8 30.35 38.2 28.7 37.8 25.7 37.95 Q24.05 38.35 22.1 40.65 L22.1 40.7 21.25 41.2 Q21.75 39.65 23.5 38.25 24.95 37.1 26.6 36.8 L27.85 36.65 29.5 36.9 Q30.85 37.15 32.6 37.9 L32.9 38.0 Q34.75 38.75 36.15 39.1 L37.1 39.25 38.0 39.3 39.65 39.1 39.7 39.1 39.85 39.05 42.3 38.05 42.75 37.9" fill="url(#gradient8)" fill-rule="evenodd" stroke="none"/>
    <path d="M45.85 28.35 L45.3 29.15 Q44.1 30.85 40.15 29.55 36.15 28.2 32.2 29.6 28.95 30.7 27.0 28.85 28.55 28.2 30.25 27.9 L36.95 27.55 45.85 28.35" fill="#b89e2f" fill-rule="evenodd" stroke="none"/>
    <path d="M40.25 41.45 L41.25 40.75 Q42.6 39.9 43.6 39.85 L45.8 39.6 46.05 39.6 50.1 39.7 50.95 39.85 51.2 39.9 52.85 40.6 53.1 41.1 Q54.3 42.55 54.8 45.35 L54.75 45.9 54.5 47.45 53.65 52.8 53.1 53.85 53.5 52.15 54.1 48.55 54.15 47.9 54.15 47.05 53.85 43.85 53.4 43.25 52.8 42.4 Q51.95 41.2 50.75 40.6 L45.9 40.3 43.65 40.2 Q42.7 40.3 41.5 41.25 L39.65 42.95 Q38.95 43.55 37.85 43.45 36.95 43.3 36.1 42.75 34.55 41.1 32.35 40.6 L30.75 40.4 23.6 40.95 Q21.95 42.1 21.4 42.9 L20.5 44.4 Q20.1 46.3 20.1 47.95 20.1 50.55 20.95 53.45 21.7 55.95 22.95 57.9 L22.5 57.45 21.9 56.3 19.95 52.55 Q19.5 50.5 19.45 48.1 L19.5 45.95 19.45 45.75 19.4 45.5 Q20.1 43.1 21.1 41.55 L21.15 41.55 21.05 41.45 21.15 41.45 21.25 41.2 22.1 40.7 22.25 40.6 24.2 39.9 26.95 39.65 31.4 39.9 32.45 40.1 Q34.55 40.6 36.1 41.85 L36.5 42.2 Q37.25 42.65 38.0 42.7 38.9 42.75 39.4 42.2 L40.15 41.55 40.25 41.45 M52.9 40.6 L52.8 40.5 52.85 40.5 52.9 40.6" fill="#644300" fill-rule="evenodd" stroke="none"/>
    <path d="M51.2 39.9 L50.95 39.85 50.1 39.7 46.05 39.6 45.8 39.6 43.6 39.85 Q42.6 39.9 41.25 40.75 L40.25 41.45 39.9 39.9 40.15 39.85 43.25 38.85 44.25 38.4 44.55 38.2 Q48.5 36.65 51.2 39.9 M36.1 41.85 Q34.55 40.6 32.45 40.1 L31.4 39.9 26.95 39.65 24.2 39.9 22.25 40.6 22.1 40.7 22.1 40.65 Q24.05 38.35 25.7 37.95 L28.7 37.8 30.35 38.2 31.95 38.8 32.7 39.05 33.85 39.45 36.55 40.15 36.1 41.85" fill="#6d4900" fill-rule="evenodd" stroke="none"/>
    <path d="M22.95 57.9 Q21.7 55.95 20.95 53.45 20.1 50.55 20.1 47.95 20.1 46.3 20.5 44.4 L21.4 42.9 Q21.95 42.1 23.6 40.95 L30.75 40.4 32.35 40.6 Q34.55 41.1 36.1 42.75 36.95 43.3 37.85 43.45 38.95 43.55 39.65 42.95 L41.5 41.25 Q42.7 40.3 43.65 40.2 L45.9 40.3 50.75 40.6 Q51.95 41.2 52.8 42.4 L53.4 43.25 53.85 43.85 54.15 47.05 54.15 47.9 54.1 48.55 53.5 52.15 53.1 53.85 51.85 56.3 51.3 57.25 50.6 58.3 49.8 58.95 46.35 61.25 Q48.8 59.4 50.2 57.25 L52.15 53.8 Q53.35 51.2 53.45 47.9 53.6 43.65 47.9 43.2 L44.3 43.5 Q42.8 43.85 40.15 45.15 38.2 45.75 36.25 45.15 32.6 43.5 28.15 43.25 22.35 43.05 21.35 46.95 20.1 51.6 23.85 56.6 25.5 58.85 27.35 60.35 L28.2 61.0 23.7 58.5 22.95 57.9" fill="url(#gradient9)" fill-rule="evenodd" stroke="none"/>
    <path d="M28.2 61.0 L27.35 60.35 Q25.5 58.85 23.85 56.6 20.1 51.6 21.35 46.95 22.35 43.05 28.15 43.25 32.6 43.5 36.25 45.15 38.2 45.75 40.15 45.15 42.8 43.85 44.3 43.5 L47.9 43.2 Q53.6 43.65 53.45 47.9 53.35 51.2 52.15 53.8 L50.2 57.25 Q48.8 59.4 46.35 61.25 L46.25 61.3 46.2 61.35 45.5 61.85 45.3 62.0 44.7 62.3 42.3 63.3 41.55 63.5 37.9 63.7 34.5 63.35 33.3 63.1 30.15 62.1 30.1 62.05 30.0 62.0 29.4 61.7 28.2 61.0 M46.85 60.35 L46.2 61.35 46.85 60.35" fill="url(#gradient10)" fill-rule="evenodd" stroke="none"/>
    <path d="M54.0 39.15 Q54.95 38.15 56.05 37.4 57.65 40.4 57.95 43.95 L56.7 44.55 55.3 45.45 55.05 45.6 54.75 45.9 54.8 45.35 Q54.3 42.55 53.1 41.1 L52.85 40.6 52.9 40.6 52.85 40.5 52.9 40.4 54.0 39.15 M50.2 60.55 Q51.9 59.75 53.4 59.45 52.95 60.35 52.8 62.3 51.45 62.5 50.05 63.0 L50.0 62.1 50.2 60.55" fill="#103851" fill-rule="evenodd" stroke="none"/>
    <path d="M51.85 32.2 Q54.55 34.55 56.05 37.4 54.95 38.15 54.0 39.15 L52.65 37.45 50.4 35.5 Q50.95 33.65 51.85 32.2" fill="#6b4312" fill-rule="evenodd" stroke="none"/>
    <path d="M19.45 45.75 L19.5 45.95 19.45 48.1 19.05 47.65 Q18.6 47.35 17.9 47.35 17.2 47.35 16.6 48.0 16.15 48.5 16.05 49.05 L15.95 48.5 15.95 48.35 15.9 48.15 15.9 48.05 Q15.9 47.0 16.15 46.65 L16.65 46.0 Q16.95 45.7 17.7 45.6 L18.15 45.55 19.45 45.75 M54.5 47.45 L54.75 45.9 55.05 45.6 55.3 45.45 Q55.5 45.3 55.75 45.3 L56.7 45.5 57.55 46.55 57.9 47.4 57.85 47.6 57.85 47.65 57.75 48.2 57.75 48.4 57.55 48.9 57.4 49.4 57.2 49.85 57.3 48.85 Q57.35 48.2 57.0 47.6 56.65 46.95 55.8 46.95 55.1 46.95 54.55 47.4 L54.5 47.45" fill="#efb961" fill-rule="evenodd" stroke="none"/>
    <path d="M19.45 48.1 Q19.5 50.5 19.95 52.55 18.3 52.2 17.2 51.1 L16.45 50.15 16.3 49.75 16.3 49.7 16.05 49.05 Q16.15 48.5 16.6 48.0 17.2 47.35 17.9 47.35 18.6 47.35 19.05 47.65 L19.45 48.1 M53.65 52.8 L54.5 47.45 54.55 47.4 Q55.1 46.95 55.8 46.95 56.65 46.95 57.0 47.6 57.35 48.2 57.3 48.85 L57.2 49.85 56.9 50.25 56.15 51.15 Q55.3 51.95 53.65 52.8 M54.9 48.8 L54.9 49.3 54.75 50.45 54.7 51.1 Q55.2 51.15 55.9 50.6 56.7 50.05 56.7 49.45 L56.5 48.9 Q56.25 48.6 55.85 48.6 L54.9 48.8 M17.05 49.45 Q17.05 50.05 17.85 50.6 18.55 51.15 19.1 51.1 L19.0 50.45 18.9 49.3 18.9 48.8 17.9 48.6 Q17.5 48.6 17.25 48.9 L17.05 49.45" fill="#cd9842" fill-rule="evenodd" stroke="none"/>
    <path d="M54.9 48.8 L55.85 48.6 Q56.25 48.6 56.5 48.9 L56.7 49.45 Q56.7 50.05 55.9 50.6 55.2 51.15 54.7 51.1 L54.75 50.45 54.9 49.3 54.9 48.8 M17.05 49.45 L17.25 48.9 Q17.5 48.6 17.9 48.6 L18.9 48.8 18.9 49.3 19.0 50.45 19.1 51.1 Q18.55 51.15 17.85 50.6 17.05 50.05 17.05 49.45" fill="#6b4b1c" fill-rule="evenodd" stroke="none"/>
    <path d="M57.9 47.4 L57.55 46.55 56.7 45.5 55.75 45.3 Q55.5 45.3 55.3 45.45 L56.7 44.55 57.95 43.95 57.9 47.4 M15.9 48.15 Q15.6 46.3 15.7 44.6 L16.5 44.95 17.7 45.6 Q16.95 45.7 16.65 46.0 L16.15 46.65 Q15.9 47.0 15.9 48.05 L15.9 48.15 M18.95 39.6 L17.25 38.35 Q18.45 35.55 20.75 33.3 L22.6 36.0 Q20.45 37.65 18.95 39.6" fill="#614515" fill-rule="evenodd" stroke="none"/>
    <path d="M57.95 43.95 Q59.8 43.2 61.9 42.85 L64.7 42.55 Q64.95 44.8 64.55 47.9 L63.05 48.2 Q60.15 48.8 57.35 50.4 L57.4 49.4 57.55 48.9 57.75 48.4 57.75 48.2 57.85 47.65 57.85 47.6 57.9 47.4 57.95 43.95 M8.0 42.7 L8.8 42.8 Q12.45 43.1 15.7 44.6 15.6 46.3 15.9 48.15 L15.95 48.35 15.95 48.5 16.05 49.05 16.3 49.7 16.3 49.75 16.3 50.05 Q12.3 47.9 7.7 47.8 7.7 45.2 8.0 42.7 M9.7 54.85 L17.55 55.1 20.3 59.4 Q17.6 58.6 14.95 59.4 L14.15 57.85 Q13.55 57.0 11.95 56.15 L9.7 54.85 M62.25 55.15 L62.05 55.55 61.6 55.9 Q59.6 57.3 58.9 59.1 L58.75 59.55 Q56.3 58.7 53.4 59.45 53.65 58.8 54.05 58.5 L55.85 55.45 62.25 55.15" fill="#ffc85f" fill-rule="evenodd" stroke="none"/>
    <path d="M16.7 22.15 L17.3 22.55 Q16.5 22.75 16.7 22.15 M56.05 37.4 L58.6 35.85 Q60.65 34.85 63.0 34.5 64.45 38.3 64.7 42.55 L61.9 42.85 Q59.8 43.2 57.95 43.95 57.65 40.4 56.05 37.4 M15.7 44.6 Q12.45 43.1 8.8 42.8 L8.0 42.7 Q8.4 38.55 9.7 34.9 L12.35 35.7 Q14.8 36.65 17.25 38.35 15.9 41.2 15.7 44.6" fill="#1088bc" fill-rule="evenodd" stroke="none"/>
    <path d="M62.45 25.8 L63.4 27.15 65.45 30.95 66.95 34.3 63.0 34.5 Q61.5 30.4 58.5 26.9 60.3 26.15 62.45 25.8 M4.15 34.6 Q4.6 33.25 5.2 32.05 6.25 29.75 7.55 27.8 L8.15 26.85 Q10.75 27.15 13.05 28.0 10.95 31.15 9.7 34.9 L4.15 34.6" fill="#b68b21" fill-rule="evenodd" stroke="none"/>
    <path d="M66.95 34.3 L67.95 37.1 Q68.8 39.8 69.25 42.6 L69.3 42.85 69.25 42.85 64.7 42.55 Q64.45 38.3 63.0 34.5 L66.95 34.3 M2.25 43.15 Q2.55 40.2 3.25 37.55 L4.15 34.6 9.7 34.9 Q8.4 38.55 8.0 42.7 L2.25 43.15" fill="#0a5677" fill-rule="evenodd" stroke="none"/>
    <path d="M69.3 42.85 L69.8 48.0 69.25 47.9 Q66.85 47.6 64.55 47.9 64.95 44.8 64.7 42.55 L69.25 42.85 69.3 42.85" fill="#876615" fill-rule="evenodd" stroke="none"/>
    <path d="M69.8 48.0 L69.8 51.8 69.25 54.15 Q68.85 55.4 68.1 56.3 65.4 55.35 62.4 55.15 L62.25 55.15 Q63.75 52.5 64.55 47.9 66.85 47.6 69.25 47.9 L69.8 48.0 M4.3 56.6 Q2.35 55.4 2.15 51.65 L2.0 48.35 7.7 47.8 7.65 48.05 Q7.5 50.15 7.7 51.4 7.85 52.55 8.4 53.75 L8.8 54.2 9.7 54.85 Q6.8 55.3 4.3 56.6" fill="#08455f" fill-rule="evenodd" stroke="none"/>
    <path d="M13.05 28.0 Q15.55 28.85 17.65 30.4 19.35 31.65 20.75 33.3 18.45 35.55 17.25 38.35 14.8 36.65 12.35 35.7 L9.7 34.9 Q10.95 31.15 13.05 28.0" fill="#ffb031" fill-rule="evenodd" stroke="none"/>
    <path d="M2.0 48.35 Q2.0 45.65 2.25 43.15 L8.0 42.7 Q7.7 45.2 7.7 47.8 L2.0 48.35" fill="#835929" fill-rule="evenodd" stroke="none"/>
    <path d="M24.2 30.45 L24.25 30.5 25.9 33.9 24.4 34.75 22.6 36.0 20.75 33.3 Q22.1 31.9 24.0 30.6 L24.2 30.45 M60.7 60.5 Q60.2 61.35 59.8 62.55 L59.5 63.25 Q58.55 62.85 57.6 62.55 L58.75 59.55 Q59.8 59.9 60.7 60.5 M13.7 63.6 L12.45 60.45 Q13.65 59.75 14.95 59.4 L16.05 62.25 16.2 62.65 Q14.95 63.0 13.7 63.6 M21.05 41.45 L21.15 41.55 21.1 41.55 Q20.1 43.1 19.4 45.5 L19.45 45.75 18.15 45.55 17.7 45.6 16.5 44.95 15.7 44.6 Q15.9 41.2 17.25 38.35 L18.95 39.6 20.95 41.35 21.05 41.45 M53.1 53.85 L53.65 52.8 Q55.3 51.95 56.15 51.15 L56.95 50.6 57.35 50.4 Q57.1 52.8 55.85 55.45 L52.4 56.2 51.85 56.3 53.1 53.85 M20.3 59.4 Q21.6 59.7 23.0 60.3 L23.0 62.75 20.95 62.35 Q20.8 60.65 20.3 59.4" fill="#09405f" fill-rule="evenodd" stroke="none"/>
    <path d="M40.25 41.45 L40.15 41.55 39.4 42.2 Q38.9 42.75 38.0 42.7 37.25 42.65 36.5 42.2 L36.1 41.85 36.55 40.15 37.2 40.1 37.65 40.1 39.9 39.9 40.25 41.45" fill="#7e5606" fill-rule="evenodd" stroke="none"/>
    <path d="M48.55 64.0 Q46.05 63.7 43.75 68.5 43.75 68.4 43.5 68.65 L44.5 65.4 Q45.25 62.9 46.2 61.35 L46.25 61.3 46.35 61.25 49.8 58.95 Q48.8 61.35 48.55 64.0 M32.8 69.9 Q31.3 65.9 27.9 63.8 26.3 63.05 25.0 63.45 L24.35 60.4 23.7 58.5 28.2 61.0 29.4 61.7 Q30.75 63.0 31.55 64.45 32.45 66.15 32.7 68.35 L32.8 69.9" fill="#56390f" fill-rule="evenodd" stroke="none"/>
    <path d="M50.35 64.3 L48.55 64.0 Q48.8 61.35 49.8 58.95 L50.6 58.3 50.6 58.8 50.2 60.55 50.0 62.1 50.05 63.0 50.35 64.3 M25.0 63.45 Q23.7 63.8 22.7 65.3 L22.85 64.45 22.85 64.2 22.85 64.1 23.0 62.75 23.0 60.3 Q22.9 59.2 22.95 57.95 L22.95 57.9 23.7 58.5 24.35 60.4 25.0 63.45" fill="#311e02" fill-rule="evenodd" stroke="none"/>
    <path d="M21.9 56.3 L22.5 57.45 22.95 57.9 22.95 57.95 Q22.9 59.2 23.0 60.3 21.6 59.7 20.3 59.4 L17.55 55.1 21.9 56.3 M55.85 55.45 L54.05 58.5 Q53.65 58.8 53.4 59.45 51.9 59.75 50.2 60.55 L50.6 58.8 50.6 58.3 51.3 57.25 51.85 56.3 52.4 56.2 55.85 55.45" fill="#482d12" fill-rule="evenodd" stroke="none"/>
    <path d="M29.4 61.7 L30.0 62.0 30.1 62.05 30.15 62.1 Q31.55 62.8 32.6 63.9 L34.15 66.1 34.25 66.3 34.25 66.35 34.6 67.1 35.3 69.3 32.7 68.35 Q32.45 66.15 31.55 64.45 30.75 63.0 29.4 61.7 M44.7 62.3 L45.3 62.0 45.5 61.85 46.2 61.35 Q45.25 62.9 44.5 65.4 L43.5 68.65 40.5 69.45 Q40.8 67.8 41.4 66.45 L41.45 66.35 Q41.95 65.2 42.7 64.3 43.55 63.15 44.7 62.3" fill="#7c551c" fill-rule="evenodd" stroke="none"/>
    <path d="M59.5 63.25 L58.3 65.7 Q57.75 66.45 56.55 66.8 L54.05 67.15 53.85 67.2 52.2 66.85 51.75 66.65 Q51.2 66.3 50.95 65.95 L50.35 64.3 50.05 63.0 Q51.45 62.5 52.8 62.3 L52.7 63.4 Q52.7 65.7 54.65 65.4 55.8 65.35 57.35 63.2 L57.6 62.55 Q58.55 62.85 59.5 63.25 M22.7 65.3 Q22.25 67.05 21.0 67.1 19.65 67.45 17.1 67.05 14.75 66.6 14.15 64.75 L13.7 63.6 Q14.95 63.0 16.2 62.65 17.25 65.25 18.6 65.9 L19.9 66.0 Q20.95 66.0 21.0 63.95 L20.95 62.35 23.0 62.75 22.85 64.1 22.85 64.2 22.85 64.45 22.7 65.3" fill="#4f3b0c" fill-rule="evenodd" stroke="none"/>
    <path d="M20.95 62.35 L21.0 63.95 Q20.95 66.0 19.9 66.0 L18.6 65.9 Q17.25 65.25 16.2 62.65 L20.95 62.35 M57.6 62.55 L57.35 63.2 Q55.8 65.35 54.65 65.4 52.7 65.7 52.7 63.4 L52.8 62.3 57.6 62.55" fill="#bb780f" fill-rule="evenodd" stroke="none"/>
    <path d="M35.6 64.55 L38.8 64.85 38.95 64.85 40.4 64.8 40.25 65.05 39.9 66.45 39.8 66.75 39.8 66.8 38.45 66.95 36.3 66.85 36.2 66.35 35.6 64.55" fill="#c28408" fill-rule="evenodd" stroke="none"/>
    <path d="M34.5 63.35 L37.9 63.7 41.55 63.5 40.4 64.8 38.95 64.85 38.8 64.85 35.6 64.55 Q35.15 63.7 34.5 63.35" fill="#9f6a00" fill-rule="evenodd" stroke="none"/>
    <path d="M35.6 64.55 L36.2 66.35 36.3 66.85 34.25 66.3 34.15 66.1 32.6 63.9 35.35 64.5 35.6 64.55 M39.8 66.8 L39.8 66.75 39.9 66.45 40.25 65.05 40.4 64.8 41.7 64.6 42.7 64.3 Q41.95 65.2 41.45 66.35 L39.8 66.8" fill="#b8711b" fill-rule="evenodd" stroke="none"/>
    <path d="M36.3 66.85 L38.45 66.95 39.8 66.8 Q39.55 67.75 39.4 69.65 L38.0 69.7 36.55 69.6 36.45 68.15 36.3 66.85" fill="#de970a" fill-rule="evenodd" stroke="none"/>
    <path d="M35.3 69.3 L34.6 67.1 34.25 66.35 34.25 66.3 36.3 66.85 36.45 68.15 36.55 69.6 35.3 69.3 M39.4 69.65 Q39.55 67.75 39.8 66.8 L41.45 66.35 41.4 66.45 Q40.8 67.8 40.5 69.45 L39.4 69.65" fill="#d78421" fill-rule="evenodd" stroke="none"/>
    <path d="M30.15 62.1 L33.3 63.1 34.5 63.35 Q35.15 63.7 35.6 64.55 L35.35 64.5 32.6 63.9 Q31.55 62.8 30.15 62.1 M41.55 63.5 L42.3 63.3 44.7 62.3 Q43.55 63.15 42.7 64.3 L41.7 64.6 40.4 64.8 41.55 63.5" fill="#985402" fill-rule="evenodd" stroke="none"/>
    <path d="M43.75 68.5 L42.75 70.8 40.25 71.7 Q40.3 70.5 40.5 69.45 L43.5 68.65 Q43.75 68.4 43.75 68.5 M33.1 70.75 L32.8 69.9 32.7 68.35 35.3 69.3 35.75 71.6 35.45 71.55 33.1 70.75" fill="#704d19" fill-rule="evenodd" stroke="none"/>
    <path d="M42.75 70.8 L41.95 73.9 Q41.4 75.75 39.45 76.15 L37.5 76.25 35.15 75.7 Q33.4 74.7 33.25 71.35 L33.1 70.75 35.45 71.55 35.75 71.6 35.75 72.05 35.8 72.7 Q36.1 74.35 37.5 74.45 L38.05 74.4 Q40.15 74.65 40.2 72.3 L40.2 72.25 40.25 71.7 42.75 70.8" fill="#704c18" fill-rule="evenodd" stroke="none"/>
    <path d="M36.55 69.6 L38.0 69.7 39.4 69.65 39.35 70.5 39.1 71.85 38.5 71.9 37.7 71.9 36.8 71.8 36.6 71.0 36.55 69.6" fill="#c68709" fill-rule="evenodd" stroke="none"/>
    <path d="M35.3 69.3 L36.55 69.6 36.6 71.0 36.8 71.8 35.75 71.6 35.3 69.3 M39.1 71.85 L39.35 70.5 39.4 69.65 40.5 69.45 Q40.3 70.5 40.25 71.7 L39.9 71.75 39.1 71.85" fill="#bb731d" fill-rule="evenodd" stroke="none"/>
    <path d="M36.8 71.8 L37.1 72.3 37.6 72.7 38.1 72.8 Q38.5 72.8 38.8 72.4 L39.1 71.85 39.9 71.75 40.25 71.7 40.2 72.25 40.2 72.3 Q40.15 74.65 38.05 74.4 L37.5 74.45 Q36.1 74.35 35.8 72.7 L35.75 72.05 35.75 71.6 36.8 71.8" fill="#aa691a" fill-rule="evenodd" stroke="none"/>
    <path d="M36.8 71.8 L37.7 71.9 38.5 71.9 39.1 71.85 38.8 72.4 Q38.5 72.8 38.1 72.8 L37.6 72.7 37.1 72.3 36.8 71.8" fill="#b67b06" fill-rule="evenodd" stroke="none"/>
    <path d="M20.3 59.4 Q20.8 60.65 20.95 62.35 L16.2 62.65 16.05 62.25 14.95 59.4 Q17.6 58.6 20.3 59.4 M53.4 59.45 Q56.3 58.7 58.75 59.55 L57.6 62.55 52.8 62.3 Q52.95 60.35 53.4 59.45" fill="#096791" fill-rule="evenodd" stroke="none"/>
    <path d="M19.95 52.55 L21.9 56.3 17.55 55.1 Q16.3 52.65 16.3 50.05 L16.45 50.15 17.2 51.1 Q18.3 52.2 19.95 52.55" fill="#0b273f" fill-rule="evenodd" stroke="none"/>
    <path d="M68.1 56.3 L67.15 57.2 Q66.4 57.7 65.55 58.0 L63.95 58.35 Q61.9 58.35 60.7 60.5 59.8 59.9 58.75 59.55 L58.9 59.1 Q59.6 57.3 61.6 55.9 L62.05 55.55 62.4 55.15 Q65.4 55.35 68.1 56.3 M12.45 60.45 L12.15 59.7 Q10.75 56.55 6.75 57.25 5.3 57.25 4.3 56.6 6.8 55.3 9.7 54.85 L11.95 56.15 Q13.55 57.0 14.15 57.85 L14.95 59.4 Q13.65 59.75 12.45 60.45" fill="#5b450f" fill-rule="evenodd" stroke="none"/>
    <path d="M46.2 61.35 L46.85 60.35" fill="none" stroke="#452603" stroke-linecap="round" stroke-linejoin="round" stroke-width="0.2"/>
    <path d="M48.1 45.2 Q53.05 45.6 53.6 48.8 53.35 51.5 52.35 53.65 L50.4 57.1 Q48.95 59.3 46.45 61.15 L45.7 61.7 44.9 62.15 42.5 63.15 41.75 63.35 38.1 63.55 34.7 63.2 33.5 62.95 30.2 61.85 Q26.9 60.35 24.05 56.45 21.65 53.25 21.3 50.25 L21.55 48.95 Q22.55 45.05 28.35 45.25 32.8 45.5 36.45 47.15 38.4 47.75 40.35 47.15 43.0 45.85 44.5 45.5 L48.1 45.2" fill="url(#gradient11)" fill-rule="evenodd" stroke="none"/>
    <path d="M39.95 16.3 Q40.1 15.8 40.85 15.05 L41.85 14.3 42.3 14.85 42.45 15.0 42.85 15.5 Q42.5 15.65 42.1 15.95 41.05 16.65 40.95 17.1 L39.95 16.3 M31.7 13.85 L32.55 14.35 Q33.7 15.1 34.15 15.8 L33.2 16.4 33.2 16.45 31.55 15.05 30.9 14.7 31.7 13.85 M27.5 21.05 L27.8 19.75 28.3 19.65 Q29.35 19.65 30.0 20.2 L29.55 21.15 28.3 20.9 27.5 21.05" fill="#955141" fill-rule="evenodd" stroke="none"/>
    <path d="M41.85 14.3 L40.85 15.05 Q40.1 15.8 39.95 16.3 L39.85 16.2 Q38.1 15.2 36.6 15.2 35.3 15.2 34.15 15.8 33.7 15.1 32.55 14.35 L31.7 13.85 Q32.45 13.15 33.25 12.75 L33.3 12.75 Q33.4 13.7 34.25 14.35 35.15 15.05 36.25 15.05 39.0 15.05 41.0 13.45 L41.85 14.3 M40.95 17.1 Q41.05 16.65 42.1 15.95 42.5 15.65 42.85 15.5 L43.6 16.65 Q45.45 19.4 45.95 22.6 L46.1 25.05 46.05 25.9 Q45.9 24.45 45.55 23.6 45.1 22.45 44.25 22.0 L44.2 21.9 Q43.65 19.8 41.75 17.85 L41.65 17.75 40.95 17.1 M27.65 26.2 Q27.15 25.0 27.15 23.65 L27.25 22.6 Q27.3 21.8 27.5 21.05 L28.3 20.9 29.55 21.15 29.3 21.95 29.25 22.15 29.25 22.25 Q27.6 22.7 27.6 25.55 L27.65 26.2 M27.8 19.75 L27.9 19.5 29.8 16.2 30.9 14.7 31.55 15.05 33.2 16.45 Q32.5 16.9 31.8 17.65 L31.4 18.05 Q30.5 19.1 30.0 20.2 29.35 19.65 28.3 19.65 L27.8 19.75" fill="#68362b" fill-rule="evenodd" stroke="none"/>
    <path d="M39.85 16.2 L39.95 16.3 40.95 17.1 41.65 17.75 41.75 17.85 40.4 19.35 Q40.1 19.45 39.85 19.7 L39.8 19.75 39.75 19.75 37.35 20.7 Q37.75 17.1 39.85 16.2 M31.8 17.65 Q32.5 16.9 33.2 16.45 L33.2 16.4 Q35.95 17.55 36.2 20.9 L35.7 20.9 33.85 20.55 33.7 20.3 33.75 20.3 33.6 20.15 33.55 20.1 33.3 19.9 32.9 19.65 32.5 19.45 Q31.85 18.65 31.8 17.65" fill="#ffd4a1" fill-rule="evenodd" stroke="none"/>
    <path d="M40.4 19.35 L40.85 19.25 Q41.35 19.25 41.7 19.65 L41.95 20.25 41.65 21.35 41.35 21.65 41.7 20.75 41.4 20.2 Q41.1 19.9 40.75 19.9 L39.65 20.2 38.85 20.85 39.5 20.05 39.8 19.75 39.85 19.7 Q40.1 19.45 40.4 19.35 M32.5 19.45 L32.9 19.65 33.3 19.9 33.55 20.1 Q33.3 19.95 32.9 19.9 L32.65 19.9 Q31.6 19.9 31.65 20.6 31.7 21.3 33.15 22.55 L32.25 21.9 31.75 21.4 Q31.2 20.8 31.2 20.3 31.2 19.9 31.45 19.65 31.7 19.35 32.2 19.4 L32.5 19.45" fill="#db9ca7" fill-rule="evenodd" stroke="none"/>
    <path d="M41.35 21.65 L41.65 21.35 41.95 20.25 41.7 19.65 Q41.35 19.25 40.85 19.25 L40.4 19.35 41.75 17.85 Q43.65 19.8 44.2 21.9 L44.15 21.95 42.95 21.7 Q42.35 21.7 40.35 22.9 38.3 24.1 36.55 24.1 35.1 24.1 33.05 23.15 31.0 22.15 29.95 22.15 L29.3 22.25 29.25 22.15 29.3 21.95 29.55 21.15 30.0 20.2 Q30.5 19.1 31.4 18.05 L31.8 17.65 Q31.85 18.65 32.5 19.45 L32.2 19.4 Q31.7 19.35 31.45 19.65 31.2 19.9 31.2 20.3 31.2 20.8 31.75 21.4 L32.25 21.9 33.15 22.55 34.0 22.75 Q34.55 22.75 34.55 21.9 L34.2 21.15 34.0 20.75 33.85 20.55 35.7 20.9 36.2 20.9 36.15 22.3 37.0 22.25 37.25 22.25 37.35 20.7 39.75 19.75 39.8 19.75 39.5 20.05 38.85 20.85 38.75 21.0 38.7 21.1 38.55 21.35 38.55 21.65 Q38.55 22.45 39.2 22.45 L41.0 21.9 41.35 21.65" fill="#f5ba72" fill-rule="evenodd" stroke="none"/>
    <path d="M40.45 20.4 L40.55 20.45 40.65 20.6 40.4 20.9 39.8 21.1 39.5 21.05 Q39.7 20.45 40.2 20.4 L40.4 20.4 40.45 20.4 M32.95 20.45 L33.05 20.55 33.3 20.8 33.25 20.9 32.75 20.7 32.35 20.35 32.55 20.25 32.7 20.25 32.95 20.45" fill="#ff7089" fill-rule="evenodd" stroke="none"/>
    <path d="M38.85 20.85 L39.65 20.2 40.75 19.9 Q41.1 19.9 41.4 20.2 L41.7 20.75 41.35 21.65 41.0 21.9 39.2 22.45 Q38.55 22.45 38.55 21.65 L38.55 21.35 38.7 21.1 38.75 21.0 38.85 20.85 M40.55 20.45 L40.5 20.4 40.45 20.4 40.4 20.4 40.2 20.4 Q39.7 20.45 39.5 21.05 L39.8 21.1 40.4 20.9 40.65 20.6 40.55 20.45 M33.15 22.55 Q31.7 21.3 31.65 20.6 31.6 19.9 32.65 19.9 L32.9 19.9 Q33.3 19.95 33.55 20.1 L33.6 20.15 33.7 20.3 33.85 20.55 34.0 20.75 34.2 21.15 34.55 21.9 Q34.55 22.75 34.0 22.75 L33.15 22.55 M32.95 20.45 L32.7 20.25 32.55 20.25 32.35 20.35 32.75 20.7 33.25 20.9 33.3 20.8 33.05 20.55 32.95 20.45" fill="#cd0000" fill-rule="evenodd" stroke="none"/>
    <path d="M44.15 21.95 L44.2 21.9 44.25 22.0 44.15 21.95 M29.3 22.25 L29.25 22.25 29.25 22.15 29.3 22.25 M36.2 20.9 L37.35 20.7 37.25 22.25 37.0 22.25 36.15 22.3 36.2 20.9" fill="#b57b18" fill-rule="evenodd" stroke="none"/>
    <path d="M44.25 22.0 L44.35 23.35 44.25 24.6 Q42.65 26.15 40.9 26.45 L40.85 26.45 33.25 26.7 Q31.55 26.5 29.2 24.85 L29.05 23.7 29.25 22.25 29.3 22.25 Q31.0 24.3 34.8 24.6 L40.25 24.3 Q42.3 23.85 44.15 21.95 L44.25 22.0" fill="#8e5f0f" fill-rule="evenodd" stroke="none"/>
    <path d="M44.25 22.0 Q45.1 22.45 45.55 23.6 45.9 24.45 46.05 25.9 L45.9 26.75 45.3 28.1 Q45.05 26.85 43.85 26.2 L44.25 24.6 44.35 23.35 44.25 22.0 M29.25 22.25 L29.05 23.7 29.2 24.85 29.5 25.75 28.6 26.55 28.25 27.35 27.65 26.2 27.6 25.55 Q27.6 22.7 29.25 22.25 M44.0 29.45 Q42.6 30.3 40.6 30.4 37.3 30.85 33.05 30.25 31.2 30.25 29.7 29.05 L29.2 28.6 29.1 28.45 Q29.2 26.9 30.1 26.7 L30.3 26.9 Q31.15 27.8 32.6 28.35 L39.3 28.65 Q42.0 28.15 42.85 27.55 43.85 27.9 44.0 29.45" fill="#482118" fill-rule="evenodd" stroke="none"/>
    <path d="M29.3 22.25 L29.95 22.15 Q31.0 22.15 33.05 23.15 35.1 24.1 36.55 24.1 38.3 24.1 40.35 22.9 42.35 21.7 42.95 21.7 L44.15 21.95 Q42.3 23.85 40.25 24.3 L34.8 24.6 Q31.0 24.3 29.3 22.25" fill="#d2954b" fill-rule="evenodd" stroke="none"/>
    <path d="M43.85 26.2 Q45.05 26.85 45.3 28.1 L45.2 28.3 44.65 28.9 44.0 29.45 Q43.85 27.9 42.85 27.55 L43.85 26.2 M30.1 26.7 Q29.2 26.9 29.1 28.45 L28.7 28.0 28.4 27.6 28.25 27.35 28.6 26.55 29.5 25.75 30.1 26.7" fill="#804132" fill-rule="evenodd" stroke="none"/>
    <path d="M44.25 24.6 L43.85 26.2 42.85 27.55 Q42.0 28.15 39.3 28.65 L32.6 28.35 Q31.15 27.8 30.3 26.9 L30.1 26.7 29.5 25.75 29.2 24.85 Q31.55 26.5 33.25 26.7 L40.85 26.45 40.9 26.45 Q42.65 26.15 44.25 24.6" fill="#c68c45" fill-rule="evenodd" stroke="none"/>
    <path d="M34.15 15.8 Q35.3 15.2 36.6 15.2 38.1 15.2 39.85 16.2 37.75 17.1 37.35 20.7 L36.2 20.9 Q35.95 17.55 33.2 16.4 L34.15 15.8" fill="#db9e34" fill-rule="evenodd" stroke="none"/>
    <path d="M41.0 13.45 Q39.0 15.05 36.25 15.05 35.15 15.05 34.25 14.35 33.4 13.7 33.3 12.75 35.0 11.8 37.9 12.0 39.4 12.1 41.0 13.45" fill="#985b4e" fill-rule="evenodd" stroke="none"/>
    <path d="M44.25 46.35 Q46.8 45.25 49.25 46.35 51.8 47.3 52.8 49.85 L52.95 50.2 Q48.35 55.0 40.85 55.35 L40.65 54.95 Q39.65 52.4 40.6 49.95 41.7 47.4 44.25 46.35" fill="url(#gradient12)" fill-rule="evenodd" stroke="none"/>
    <path d="M30.65 46.9 Q33.15 47.65 34.4 50.05 35.5 52.45 34.6 54.95 L34.55 55.35 Q27.5 54.8 22.35 51.25 L22.4 50.85 Q23.35 48.3 25.7 47.2 28.1 45.95 30.65 46.9" fill="url(#gradient13)" fill-rule="evenodd" stroke="none"/>
    <path d="M44.7 47.9 Q46.8 47.0 48.85 47.9 50.95 48.7 51.8 50.8 L51.9 51.1 Q48.1 55.1 41.9 55.35 L41.75 55.05 Q40.9 52.9 41.7 50.9 42.6 48.8 44.7 47.9" fill="url(#gradient14)" fill-rule="evenodd" stroke="none"/>
    <path d="M30.75 48.2 Q32.85 48.85 33.9 50.9 34.85 52.9 34.1 55.0 L34.05 55.35 Q28.05 54.9 23.7 51.9 L23.75 51.55 Q24.55 49.4 26.55 48.45 28.55 47.4 30.75 48.2" fill="url(#gradient15)" fill-rule="evenodd" stroke="none"/>
    <path d="M40.85 33.65 Q39.4 35.3 37.15 35.3 34.95 35.3 33.3 33.65 31.8 32.15 31.8 29.85 31.8 27.7 33.3 26.1 34.95 24.6 37.15 24.6 39.4 24.6 40.85 26.1 42.45 27.7 42.45 29.85 42.45 32.15 40.85 33.65 M39.25 26.2 Q38.15 25.0 36.5 25.0 34.85 25.0 33.65 26.2 32.5 27.4 32.5 29.05 32.5 30.75 33.65 31.8 34.85 33.05 36.5 33.05 38.15 33.05 39.25 31.8 40.5 30.75 40.5 29.05 40.5 27.4 39.25 26.2" fill="#f3aa00" fill-rule="evenodd" stroke="none"/>
    <path d="M35.95 28.25 L36.3 27.45 Q36.3 26.9 35.95 26.6 35.65 26.2 35.15 26.2 34.65 26.2 34.3 26.6 33.95 26.9 33.95 27.45 33.95 27.9 34.3 28.25 34.65 28.65 35.15 28.65 35.65 28.65 35.95 28.25 M35.65 30.55 Q34.55 30.55 33.9 29.8 33.15 29.15 33.15 28.1 33.15 27.1 33.9 26.4 34.55 25.7 35.65 25.7 36.7 25.7 37.25 26.4 38.05 27.1 38.05 28.1 38.05 29.15 37.25 29.8 36.7 30.55 35.65 30.55" fill="#ffff43" fill-rule="evenodd" stroke="none"/>
    <path d="M35.95 28.25 Q35.65 28.65 35.15 28.65 34.65 28.65 34.3 28.25 33.95 27.9 33.95 27.45 33.95 26.9 34.3 26.6 34.65 26.2 35.15 26.2 35.65 26.2 35.95 26.6 36.3 26.9 36.3 27.45 L35.95 28.25" fill="#ffffff" fill-rule="evenodd" stroke="none"/>
    <path d="M35.65 30.55 Q36.7 30.55 37.25 29.8 38.05 29.15 38.05 28.1 38.05 27.1 37.25 26.4 36.7 25.7 35.65 25.7 34.55 25.7 33.9 26.4 33.15 27.1 33.15 28.1 33.15 29.15 33.9 29.8 34.55 30.55 35.65 30.55 M39.25 26.2 Q40.5 27.4 40.5 29.05 40.5 30.75 39.25 31.8 38.15 33.05 36.5 33.05 34.85 33.05 33.65 31.8 32.5 30.75 32.5 29.05 32.5 27.4 33.65 26.2 34.85 25.0 36.5 25.0 38.15 25.0 39.25 26.2" fill="#ffd500" fill-rule="evenodd" stroke="none"/>
  </g>
  <defs>
    <linearGradient gradientTransform="matrix(0.0095, 0.0016, -0.0029, 0.017, 7.9, 22.25)" gradientUnits="userSpaceOnUse" id="gradient0" spreadMethod="pad" x1="-819.2" x2="819.2">
      <stop offset="0.0" stop-color="#e7970e"/>
      <stop offset="1.0" stop-color="#8c560e"/>
    </linearGradient>
    <linearGradient gradientTransform="matrix(-0.0093, 0.0015, -0.0028, -0.017, 63.5, 22.4)" gradientUnits="userSpaceOnUse" id="gradient1" spreadMethod="pad" x1="-819.2" x2="819.2">
      <stop offset="0.0" stop-color="#e7970e"/>
      <stop offset="1.0" stop-color="#87520c"/>
    </linearGradient>
    <linearGradient gradientTransform="matrix(0.0085, -0.0081, 0.0081, 0.0078, 13.1, 66.8)" gradientUnits="userSpaceOnUse" id="gradient2" spreadMethod="pad" x1="-819.2" x2="819.2">
      <stop offset="0.0" stop-color="#d99203"/>
      <stop offset="1.0" stop-color="#ad7300"/>
    </linearGradient>
    <linearGradient gradientTransform="matrix(0.0, 0.0077, -0.0115, 0.0, 13.7, 72.7)" gradientUnits="userSpaceOnUse" id="gradient3" spreadMethod="pad" x1="-819.2" x2="819.2">
      <stop offset="0.0" stop-color="#ffb31c"/>
      <stop offset="1.0" stop-color="#db9200"/>
    </linearGradient>
    <linearGradient gradientTransform="matrix(0.0085, -0.0081, 0.0081, 0.0078, 13.1, 66.8)" gradientUnits="userSpaceOnUse" id="gradient4" spreadMethod="pad" x1="-819.2" x2="819.2">
      <stop offset="0.0" stop-color="#fcb322"/>
      <stop offset="1.0" stop-color="#cb8905"/>
    </linearGradient>
    <linearGradient gradientTransform="matrix(-0.0085, -0.0081, -0.0081, 0.0078, 59.5, 66.8)" gradientUnits="userSpaceOnUse" id="gradient5" spreadMethod="pad" x1="-819.2" x2="819.2">
      <stop offset="0.0" stop-color="#fcb322"/>
      <stop offset="1.0" stop-color="#cb8905"/>
    </linearGradient>
    <linearGradient gradientTransform="matrix(-0.0085, -0.0081, -0.0081, 0.0078, 59.5, 66.8)" gradientUnits="userSpaceOnUse" id="gradient6" spreadMethod="pad" x1="-819.2" x2="819.2">
      <stop offset="0.0" stop-color="#d99203"/>
      <stop offset="1.0" stop-color="#ad7300"/>
    </linearGradient>
    <linearGradient gradientTransform="matrix(0.0, 0.0077, 0.0115, 0.0, 58.9, 72.7)" gradientUnits="userSpaceOnUse" id="gradient7" spreadMethod="pad" x1="-819.2" x2="819.2">
      <stop offset="0.0" stop-color="#ffb31c"/>
      <stop offset="1.0" stop-color="#db9200"/>
    </linearGradient>
    <linearGradient gradientTransform="matrix(0.0192, 0.0, 0.0, 0.0028, 36.95, 38.9)" gradientUnits="userSpaceOnUse" id="gradient8" spreadMethod="pad" x1="-819.2" x2="819.2">
      <stop offset="0.0" stop-color="#bd9968"/>
      <stop offset="0.16470588235294117" stop-color="#eec690"/>
      <stop offset="0.47843137254901963" stop-color="#fff2e0"/>
      <stop offset="0.8627450980392157" stop-color="#eec690"/>
      <stop offset="1.0" stop-color="#b49061"/>
    </linearGradient>
    <linearGradient gradientTransform="matrix(3.0E-4, -0.0126, 0.0128, 3.0E-4, 36.45, 42.15)" gradientUnits="userSpaceOnUse" id="gradient9" spreadMethod="pad" x1="-819.2" x2="819.2">
      <stop offset="0.0" stop-color="#bf8613"/>
      <stop offset="1.0" stop-color="#7c551c"/>
    </linearGradient>
    <linearGradient gradientTransform="matrix(0.0, -0.0109, 0.0131, 0.0, 62.9, 52.85)" gradientUnits="userSpaceOnUse" id="gradient10" spreadMethod="pad" x1="-819.2" x2="819.2">
      <stop offset="0.0" stop-color="#d48d00"/>
      <stop offset="1.0" stop-color="#a66e00"/>
    </linearGradient>
    <radialGradient cx="0" cy="0" gradientTransform="matrix(0.0209, 0.0, 0.0, 0.0186, 37.45, 47.9)" gradientUnits="userSpaceOnUse" id="gradient11" r="819.2" spreadMethod="pad">
      <stop offset="0.34509803921568627" stop-color="#fad489"/>
      <stop offset="0.5764705882352941" stop-color="#f6c666"/>
      <stop offset="0.7450980392156863" stop-color="#f0b642"/>
      <stop offset="0.9764705882352941" stop-color="#eca20d"/>
      <stop offset="1.0" stop-color="#eeab25"/>
    </radialGradient>
    <linearGradient gradientTransform="matrix(-0.0074, 0.0031, 0.0031, 0.0073, 46.85, 52.4)" gradientUnits="userSpaceOnUse" id="gradient12" spreadMethod="pad" x1="-819.2" x2="819.2">
      <stop offset="0.0" stop-color="#fad489"/>
      <stop offset="1.0" stop-color="#ffecc9"/>
    </linearGradient>
    <linearGradient gradientTransform="matrix(0.0074, 0.0025, -0.0025, 0.0074, 28.55, 52.95)" gradientUnits="userSpaceOnUse" id="gradient13" spreadMethod="pad" x1="-819.2" x2="819.2">
      <stop offset="0.0" stop-color="#fad489"/>
      <stop offset="1.0" stop-color="#ffecc9"/>
    </linearGradient>
    <linearGradient gradientTransform="matrix(-0.0061, 0.0026, 0.0026, 0.0061, 46.85, 52.9)" gradientUnits="userSpaceOnUse" id="gradient14" spreadMethod="pad" x1="-819.2" x2="819.2">
      <stop offset="0.0" stop-color="#cd860b"/>
      <stop offset="1.0" stop-color="#ad6b13"/>
    </linearGradient>
    <linearGradient gradientTransform="matrix(0.0063, 0.0021, -0.0021, 0.0062, 29.0, 53.3)" gradientUnits="userSpaceOnUse" id="gradient15" spreadMethod="pad" x1="-819.2" x2="819.2">
      <stop offset="0.0" stop-color="#d98c07"/>
      <stop offset="1.0" stop-color="#ad6b13"/>
    </linearGradient>
  </defs>
</svg>
