<?xml version="1.0" encoding="UTF-8" standalone="no"?>
<svg xmlns:xlink="http://www.w3.org/1999/xlink" height="44.85px" width="27.4px" xmlns="http://www.w3.org/2000/svg">
  <g transform="matrix(1.0, 0.0, 0.0, 1.0, 0.05, 16.0)">
    <path d="M26.4 21.5 Q26.4 24.55 22.8 26.7 19.2 28.85 14.1 28.85 9.05 28.85 5.4 26.7 1.8 24.55 1.8 21.5 1.8 18.4 5.4 16.25 9.05 14.1 14.1 14.1 19.2 14.1 22.8 16.25 26.4 18.4 26.4 21.5" fill="url(#gradient0)" fill-rule="evenodd" stroke="none"/>
    <path d="M18.3 -13.7 Q20.2 -12.5 20.2 -10.75 L20.1 -10.0 20.15 -9.9 20.2 -9.75 20.2 -8.75 20.15 -8.25 20.2 -7.45 20.4 -7.0 Q22.65 -5.9 23.95 -4.85 26.25 -3.25 26.35 -1.55 26.4 -0.05 25.8 2.85 25.8 3.75 24.75 4.7 L24.25 5.0 22.5 12.4 Q25.15 14.45 24.65 16.65 L23.9 21.65 Q23.0 23.45 21.5 24.35 20.25 25.05 17.75 25.55 L17.05 25.65 15.8 25.85 12.9 25.85 8.5 25.1 7.2 24.5 Q4.3 23.2 3.1 20.5 2.45 18.2 2.7 15.6 2.9 13.15 4.8 12.3 L3.35 5.25 3.05 5.05 2.0 4.2 Q1.35 3.4 1.15 2.05 L1.05 1.55 Q0.8 -0.2 1.2 -2.15 L1.35 -2.8 Q2.1 -4.85 4.2 -6.05 5.25 -6.75 7.25 -7.55 L7.4 -7.85 7.35 -10.1 7.4 -10.1 7.4 -10.5 7.45 -10.55 7.4 -10.85 Q7.4 -12.6 9.25 -13.75 11.1 -15.0 13.75 -15.0 16.4 -14.95 18.3 -13.7" fill="#80181f" fill-rule="evenodd" stroke="none"/>
    <path d="M18.3 -13.7 Q20.2 -12.5 20.2 -10.75 L20.1 -10.0 20.15 -9.9 20.2 -9.75 20.2 -8.75 20.15 -8.25 20.2 -7.45 20.4 -7.0 Q22.65 -5.9 23.95 -4.85 26.25 -3.25 26.35 -1.55 26.4 -0.05 25.8 2.85 25.8 3.75 24.75 4.7 L24.25 5.0 22.5 12.4 Q25.15 14.45 24.65 16.65 L23.9 21.65 Q23.0 23.45 21.5 24.35 20.25 25.05 17.75 25.55 L17.05 25.65 15.8 25.85 12.9 25.85 8.5 25.1 7.2 24.5 Q4.3 23.2 3.1 20.5 2.45 18.2 2.7 15.6 2.9 13.15 4.8 12.3 L3.35 5.25 3.05 5.05 2.0 4.2 Q1.35 3.4 1.15 2.05 L1.05 1.55 Q0.8 -0.2 1.2 -2.15 L1.35 -2.8 Q2.1 -4.85 4.2 -6.05 5.25 -6.75 7.25 -7.55 L7.4 -7.85 7.35 -10.1 7.4 -10.1 7.4 -10.5 7.45 -10.55 7.4 -10.85 Q7.4 -12.6 9.25 -13.75 11.1 -15.0 13.75 -15.0 16.4 -14.95 18.3 -13.7 Z" fill="none" stroke="#660108" stroke-linecap="round" stroke-linejoin="round" stroke-width="2.0"/>
    <path d="M19.65 5.8 Q21.75 5.25 24.25 3.95 L21.65 16.35 21.55 16.75 Q21.25 18.35 19.9 19.4 L19.85 19.45 19.8 19.45 Q19.75 19.45 19.65 19.55 16.85 20.65 14.0 20.6 L14.0 20.8 13.55 20.6 12.4 20.45 12.4 20.35 13.35 20.25 15.55 19.85 Q18.05 19.05 18.4 17.5 L19.65 13.6 20.25 9.9 20.25 9.4 Q20.25 7.0 19.65 5.8 M12.3 20.35 L12.3 20.4 10.65 20.25 10.5 20.15 12.3 20.35" fill="#83060d" fill-rule="evenodd" stroke="none"/>
    <path d="M12.4 20.35 L12.3 20.35 10.5 20.15 10.25 20.05 7.75 19.25 Q6.7 18.7 6.1 17.45 L5.75 16.6 3.1 4.0 4.75 4.8 4.65 5.6 Q4.65 6.7 5.4 9.9 L6.05 12.35 6.85 14.75 Q7.75 17.7 8.15 17.9 L8.55 17.5 8.55 16.9 8.55 15.9 7.75 13.15 Q7.1 11.3 6.9 9.9 L6.8 8.9 6.85 7.05 Q7.0 6.35 7.7 5.65 L8.1 5.8 11.3 6.35 Q13.9 6.7 16.25 6.4 L16.9 6.25 16.9 6.3 17.3 6.25 19.65 5.8 Q20.25 7.0 20.25 9.4 L20.25 9.9 19.65 13.6 18.4 17.5 Q18.05 19.05 15.55 19.85 L13.35 20.25 12.4 20.35" fill="#b6333b" fill-rule="evenodd" stroke="none"/>
    <path d="M4.75 4.8 L6.55 5.45 7.7 5.65 Q7.0 6.35 6.85 7.05 L6.8 8.9 6.9 9.9 Q7.1 11.3 7.75 13.15 L8.55 15.9 8.55 16.9 8.55 17.5 8.15 17.9 Q7.75 17.7 6.85 14.75 L6.05 12.35 5.4 9.9 Q4.65 6.7 4.65 5.6 L4.75 4.8" fill="#e57980" fill-rule="evenodd" stroke="none"/>
    <path d="M11.3 -8.95 Q9.0 -7.95 5.6 -5.5 L3.35 -3.35 Q2.7 -2.2 2.5 -1.25 3.3 0.75 4.7 1.2 6.1 1.7 6.85 0.95 L7.95 -2.25 Q10.0 -6.95 13.5 -9.45 L13.6 -9.45 Q16.05 -7.0 17.55 -5.65 20.95 -2.5 21.0 -0.45 21.05 3.0 15.0 3.95 L10.6 4.35 8.55 3.95 7.3 3.75 6.45 3.45 6.1 3.4 5.95 3.35 Q2.55 2.05 1.55 -0.3 L1.25 -1.5 Q1.15 -1.85 1.2 -2.2 L1.35 -2.85 Q2.1 -4.9 4.2 -6.05 6.2 -7.5 11.3 -8.95" fill="#db646b" fill-rule="evenodd" stroke="none"/>
    <path d="M1.2 -2.2 Q1.15 -1.85 1.25 -1.5 L1.55 -0.3 Q2.55 2.05 5.95 3.35 L6.1 3.4 6.45 3.45 7.3 3.75 7.3 3.8 7.3 4.1 Q7.4 5.1 7.8 6.3 L8.05 6.95 7.65 6.8 6.5 6.55 4.7 5.85 3.05 5.05 2.0 4.15 Q1.35 3.4 1.15 2.05 L1.05 1.5 Q0.8 -0.25 1.2 -2.2" fill="#bb3a42" fill-rule="evenodd" stroke="none"/>
    <path d="M13.5 -9.45 Q10.0 -6.95 7.95 -2.25 L6.85 0.95 Q6.1 1.7 4.7 1.2 3.3 0.75 2.5 -1.25 2.7 -2.2 3.35 -3.35 L5.6 -5.5 Q9.0 -7.95 11.3 -8.95 L12.75 -9.35 12.9 -9.35 13.5 -9.45" fill="#f79aa0" fill-rule="evenodd" stroke="none"/>
    <path d="M10.6 4.35 L15.0 3.95 Q21.05 3.0 21.0 -0.45 20.95 -2.5 17.55 -5.65 16.05 -7.0 13.6 -9.45 14.75 -9.45 15.65 -8.95 L16.35 -8.9 Q21.6 -6.65 23.95 -4.9 26.25 -3.3 26.35 -1.55 L26.3 -0.1 Q23.4 2.9 19.3 4.05 L11.3 4.4 10.6 4.35" fill="#c63e45" fill-rule="evenodd" stroke="none"/>
    <path d="M26.3 -0.1 L25.8 2.8 Q25.8 3.75 24.75 4.65 L24.25 5.0 Q21.7 6.35 19.6 6.95 L17.25 7.4 16.85 7.45 16.85 7.4 18.7 6.75 19.2 6.4 19.5 5.3 19.3 4.05 Q23.4 2.9 26.3 -0.1" fill="#8c0c14" fill-rule="evenodd" stroke="none"/>
    <path d="M7.3 3.75 L8.55 3.95 10.6 4.35 11.3 4.4 19.3 4.05 19.5 5.3 19.2 6.4 18.7 6.75 16.85 7.4 16.25 7.65 11.25 7.5 8.05 6.95 7.8 6.3 Q7.4 5.1 7.3 4.1 L7.3 3.8 7.3 3.75" fill="#9f141c" fill-rule="evenodd" stroke="none"/>
    <path d="M8.8 -9.15 Q10.8 -10.5 13.65 -10.5 16.55 -10.45 18.55 -9.1 20.55 -7.8 20.55 -5.9 20.55 -4.05 18.55 -2.7 16.5 -1.4 13.65 -1.45 10.85 -1.45 8.8 -2.75 6.75 -4.15 6.75 -6.0 6.75 -7.9 8.8 -9.15" fill="#c4c9a6" fill-rule="evenodd" stroke="none"/>
    <path d="M20.55 -5.6 Q20.4 -3.55 17.9 -2.25 L16.65 -5.55 19.05 -6.55 19.5 -6.35 20.55 -5.6" fill="#d7dcc4" fill-rule="evenodd" stroke="none"/>
    <path d="M9.1 -6.1 Q8.1 -5.4 7.35 -4.05 6.75 -4.95 6.75 -5.9 L6.8 -6.5 8.0 -7.25 8.3 -6.8 9.1 -6.1" fill="#d7dcc4" fill-rule="evenodd" stroke="none"/>
    <path d="M7.35 -10.1 L13.9 -9.95 20.05 -10.4 20.15 -7.35 Q20.15 -5.6 18.3 -4.35 16.4 -3.15 13.75 -3.2 11.1 -3.2 9.25 -4.4 7.4 -5.65 7.4 -7.4 L7.35 -10.1" fill="#fffbf8" fill-rule="evenodd" stroke="none"/>
    <path d="M16.1 -4.85 L13.8 -4.65 Q11.1 -4.7 9.35 -5.95 7.4 -7.2 7.45 -8.9 L7.4 -10.5 7.9 -11.65 13.95 -11.4 17.2 -11.7 17.35 -9.4 Q17.35 -7.45 16.35 -5.5 L16.1 -4.85" fill="#c4c9a6" fill-rule="evenodd" stroke="none"/>
    <path d="M16.1 -4.85 L16.35 -5.5 Q17.35 -7.45 17.35 -9.4 L17.2 -11.7 18.9 -11.85 19.7 -10.95 20.15 -9.95 20.2 -9.8 20.2 -8.8 Q20.15 -7.1 18.35 -5.8 17.35 -5.15 16.1 -4.85" fill="#b3b893" fill-rule="evenodd" stroke="none"/>
    <path d="M9.25 -13.85 Q11.1 -15.05 13.75 -15.05 16.4 -15.0 18.3 -13.8 20.15 -12.55 20.15 -10.8 20.15 -9.1 18.3 -7.85 16.4 -6.6 13.75 -6.65 11.1 -6.65 9.25 -7.9 7.4 -9.15 7.4 -10.85 7.4 -12.6 9.25 -13.85" fill="#ffffff" fill-rule="evenodd" stroke="none"/>
    <path d="M9.95 -13.75 Q11.5 -14.8 13.75 -14.8 16.05 -14.75 17.65 -13.7 19.25 -12.65 19.25 -11.2 19.25 -9.75 17.65 -8.7 16.05 -7.65 13.75 -7.7 11.55 -7.7 9.95 -8.75 8.35 -9.8 8.35 -11.25 8.35 -12.7 9.95 -13.75" fill="#eff2e6" fill-rule="evenodd" stroke="none"/>
    <path d="M24.65 16.75 L23.9 21.7 Q23.0 23.5 21.5 24.4 20.25 25.1 17.75 25.6 L17.05 25.7 17.45 24.9 17.65 23.35 17.55 22.65 17.25 22.15 17.4 22.15 18.25 21.8 19.0 21.5 Q23.15 19.75 24.5 17.35 L24.65 16.75" fill="#830e14" fill-rule="evenodd" stroke="none"/>
    <path d="M24.65 16.75 L24.5 17.35 Q23.15 19.75 19.0 21.5 L18.25 21.8 17.4 22.15 17.25 22.15 17.1 21.9 Q16.55 21.3 15.35 21.05 L13.95 20.8 13.95 20.6 Q16.8 20.65 19.6 19.4 L19.75 19.25 19.8 19.25 19.85 19.2 Q21.2 17.9 21.5 16.05 L21.6 15.55 22.1 12.1 Q25.2 14.35 24.65 16.75" fill="#951118" fill-rule="evenodd" stroke="none"/>
    <path d="M2.7 15.65 Q2.9 13.05 5.0 12.25 L5.7 15.9 Q5.8 16.45 6.05 16.9 L5.4 17.4 Q4.55 17.9 4.5 18.4 3.35 17.1 2.7 15.65" fill="#e96f75" fill-rule="evenodd" stroke="none"/>
    <path d="M6.05 16.9 Q6.65 18.35 7.7 18.95 8.35 19.4 10.2 19.95 L10.45 20.0 10.6 20.1 12.25 20.35 12.35 20.4 13.5 20.6 13.95 20.8 15.35 21.05 Q16.55 21.3 17.1 21.9 L17.25 22.15 Q11.9 22.55 6.95 20.4 L4.5 18.4 Q4.55 17.9 5.4 17.4 L6.05 16.9" fill="#cd434a" fill-rule="evenodd" stroke="none"/>
    <path d="M7.2 24.55 Q4.3 23.3 3.1 20.55 2.45 18.3 2.7 15.65 3.35 17.1 4.5 18.4 4.55 20.35 5.8 22.55 6.35 23.65 7.2 24.55" fill="#c94249" fill-rule="evenodd" stroke="none"/>
    <path d="M17.25 22.15 L17.55 22.65 17.65 23.35 17.45 24.9 17.05 25.7 15.8 25.85 Q15.05 26.05 12.9 25.85 L8.5 25.15 7.2 24.55 Q6.35 23.65 5.8 22.55 4.55 20.35 4.5 18.4 L6.95 20.4 Q11.9 22.55 17.25 22.15" fill="#b42a31" fill-rule="evenodd" stroke="none"/>
    <path d="M12.65 7.8 L16.3 7.9 17.9 8.2 17.15 10.2 20.1 9.7 18.1 16.2 Q13.95 18.75 9.05 15.8 L7.3 9.45 7.8 9.55 10.65 10.05 9.95 8.2 10.35 8.05 11.0 7.9 12.65 7.8 M11.35 8.85 L11.8 11.25 8.8 10.7 10.1 15.2 Q13.75 16.9 17.55 15.25 L18.7 10.85 15.75 11.3 16.6 8.9 Q15.35 8.4 14.0 8.4 12.75 8.4 11.35 8.85" fill="#d8c9db" fill-rule="evenodd" stroke="none"/>
    <path d="M14.95 9.65 L13.95 9.55 13.05 9.65 Q12.95 9.65 13.0 9.9 13.0 10.75 13.45 11.15 L14.75 11.15 15.1 9.95 14.95 9.65 M11.35 8.85 Q12.75 8.4 14.0 8.4 15.35 8.4 16.6 8.9 L15.75 11.3 18.7 10.85 17.55 15.25 Q13.75 16.9 10.1 15.2 L8.8 10.7 11.8 11.25 11.35 8.85 M12.75 14.75 L12.75 14.0 12.65 13.2 Q12.7 12.65 12.3 12.4 L10.6 12.3 10.55 12.6 Q10.5 13.25 10.85 13.8 11.25 14.9 12.3 14.9 L12.75 14.75 M17.25 12.4 Q16.7 12.35 15.95 12.8 L15.75 14.0 15.75 14.7 16.3 14.7 Q17.35 14.7 17.7 12.9 17.7 12.4 17.25 12.4 M15.25 14.8 L15.25 12.6 Q13.75 12.15 13.45 13.4 L13.45 14.6 13.55 15.05 13.75 15.05 15.25 14.8" fill="#5ca882" fill-rule="evenodd" stroke="none"/>
    <path d="M14.95 9.65 L15.1 9.95 14.75 11.15 13.45 11.15 Q13.0 10.75 13.0 9.9 12.95 9.65 13.05 9.65 L13.95 9.55 14.95 9.65 M15.25 14.8 L13.75 15.05 13.55 15.05 13.45 14.6 13.45 13.4 Q13.75 12.15 15.25 12.6 L15.25 14.8 M17.25 12.4 Q17.7 12.4 17.7 12.9 17.35 14.7 16.3 14.7 L15.75 14.7 15.75 14.0 15.95 12.8 Q16.7 12.35 17.25 12.4 M12.75 14.75 L12.3 14.9 Q11.25 14.9 10.85 13.8 10.5 13.25 10.55 12.6 L10.6 12.3 12.3 12.4 Q12.7 12.65 12.65 13.2 L12.75 14.0 12.75 14.75" fill="#eee9ef" fill-rule="evenodd" stroke="none"/>
  </g>
  <defs>
    <radialGradient cx="0" cy="0" gradientTransform="matrix(0.0146, 0.0, 0.0, 0.0105, 14.1, 21.5)" gradientUnits="userSpaceOnUse" id="gradient0" r="819.2" spreadMethod="pad">
      <stop offset="0.00784313725490196" stop-color="#4d3212" stop-opacity="0.8"/>
      <stop offset="1.0" stop-color="#6b5438" stop-opacity="0.11764706"/>
    </radialGradient>
  </defs>
</svg>
