<?xml version="1.0" encoding="UTF-8" standalone="no"?>
<svg xmlns:xlink="http://www.w3.org/1999/xlink" height="36.55px" width="32.2px" xmlns="http://www.w3.org/2000/svg">
  <g transform="matrix(1.0, 0.0, 0.0, 1.0, 1.0, 2.05)">
    <path d="M15.5 34.5 Q9.05 34.5 4.4 32.55 -0.2 30.6 -0.2 27.85 -0.2 25.1 4.4 23.15 9.05 21.2 15.5 21.2 22.0 21.2 26.6 23.15 31.2 25.1 31.2 27.85 31.2 30.6 26.6 32.55 22.0 34.5 15.5 34.5" fill="url(#gradient0)" fill-rule="evenodd" stroke="none"/>
    <path d="M15.4 -0.65 L18.6 -1.0 19.6 -0.6 20.6 0.2 21.3 1.25 22.35 3.65 23.55 6.55 24.75 9.25 26.1 12.15 27.35 15.35 28.55 18.5 29.5 21.6 29.9 23.35 30.0 24.0 29.75 25.8 29.3 26.85 28.5 27.1 Q27.15 27.1 26.05 26.4 L25.25 26.0 24.6 25.6 24.2 25.35 24.1 25.25 24.05 25.25 22.45 24.55 19.7 23.75 16.8 23.4 13.8 23.75 13.05 23.9 12.95 23.9 12.4 24.8 Q11.6 25.9 11.6 26.55 L11.75 27.4 11.95 28.5 11.65 30.3 11.15 32.25 11.0 31.7 10.85 31.25 11.1 30.0 11.35 28.7 11.15 28.0 10.6 27.35 10.35 26.5 10.25 25.5 10.25 24.1 8.25 23.8 7.75 23.7 7.6 23.65 7.45 23.75 Q7.0 23.75 6.6 23.35 L6.4 23.3 5.25 22.95 2.5 22.25 1.6 22.35 Q0.95 22.0 0.4 21.45 -0.05 21.0 0.0 20.3 L0.3 19.3 Q0.45 18.9 0.7 18.65 L0.85 18.45 0.95 18.25 0.8 18.2 0.15 18.1 Q0.1 16.45 2.2 15.75 L3.75 15.1 4.0 14.95 4.05 14.85 4.15 14.7 4.1 14.7 4.65 12.7 Q5.05 10.45 6.25 10.45 6.65 10.45 6.75 10.7 L6.8 10.9 6.9 10.75 8.8 8.3 Q9.35 7.7 10.05 7.25 L12.15 5.9 12.5 5.7 12.3 4.75 12.1 3.9 Q12.1 3.4 12.65 2.9 13.2 2.45 13.2 2.0 L13.0 1.2 Q13.0 0.8 13.6 0.45 L14.1 0.2 14.8 -0.35 15.4 -0.65 M12.9 5.4 L13.15 5.1 13.6 4.5 13.7 4.25 Q13.1 4.85 12.9 5.4" fill="#bd9861" fill-rule="evenodd" stroke="none"/>
    <path d="M15.4 -0.65 L18.6 -1.0 19.6 -0.6 20.6 0.2 21.3 1.25 22.35 3.65 23.55 6.55 24.75 9.25 26.1 12.15 27.35 15.35 28.55 18.5 29.5 21.6 29.9 23.35 30.0 24.0 29.75 25.8 29.3 26.85 28.5 27.1 Q27.15 27.1 26.05 26.4 L25.25 26.0 24.6 25.6 24.2 25.35 24.1 25.25 24.05 25.25 22.45 24.55 19.7 23.75 16.8 23.4 13.8 23.75 13.05 23.9 12.95 23.9 12.4 24.8 Q11.6 25.9 11.6 26.55 L11.75 27.4 11.95 28.5 11.65 30.3 11.15 32.25 11.0 31.7 10.85 31.25 11.1 30.0 11.35 28.7 11.15 28.0 10.6 27.35 10.35 26.5 10.25 25.5 10.25 24.1 8.25 23.8 7.75 23.7 7.6 23.65 7.45 23.75 Q7.0 23.75 6.6 23.35 L6.4 23.3 5.25 22.95 2.5 22.25 1.6 22.35 Q0.95 22.0 0.4 21.45 -0.05 21.0 0.0 20.3 L0.3 19.3 Q0.45 18.9 0.7 18.65 L0.85 18.45 0.95 18.25 0.8 18.2 0.15 18.1 Q0.1 16.45 2.2 15.75 L3.75 15.1 4.0 14.95 4.05 14.85 4.15 14.7 4.1 14.7 4.65 12.7 Q5.05 10.45 6.25 10.45 6.65 10.45 6.75 10.7 L6.8 10.9 6.9 10.75 8.8 8.3 Q9.35 7.7 10.05 7.25 L12.15 5.9 12.5 5.7 12.3 4.75 12.1 3.9 Q12.1 3.4 12.65 2.9 13.2 2.45 13.2 2.0 L13.0 1.2 Q13.0 0.8 13.6 0.45 L14.1 0.2 14.8 -0.35 15.4 -0.65 Z" fill="none" stroke="#693916" stroke-linecap="round" stroke-linejoin="round" stroke-width="2.0"/>
    <path d="M14.85 -0.35 L15.45 -0.65 18.65 -1.0 19.65 -0.6 20.65 0.2 21.35 1.25 22.4 3.65 23.6 6.55 24.8 9.25 26.1 12.15 27.35 15.35 28.55 18.5 29.5 21.6 29.9 23.35 29.6 22.35 Q29.4 21.6 28.8 21.05 L28.25 20.55 27.85 20.25 26.8 19.2 Q26.1 18.6 25.3 18.5 L24.8 18.45 Q24.1 18.5 23.65 19.1 L23.6 19.15 23.45 18.6 23.45 18.55 23.3 18.05 22.75 17.35 22.05 16.85 21.35 15.95 20.3 14.45 19.4 13.15 19.2 12.6 Q19.05 11.6 19.15 10.45 19.2 9.55 18.85 8.7 L18.6 8.3 18.25 7.9 16.5 5.95 Q15.45 4.7 14.9 3.2 14.6 2.2 14.6 1.25 14.55 0.95 14.65 0.55 L14.85 -0.35 M21.75 4.0 L21.45 2.45 20.75 1.3 20.1 0.55 19.35 0.15 Q18.5 -0.15 17.7 0.4 17.15 0.75 17.1 1.3 18.6 2.7 19.1 4.7 L19.4 5.95 20.05 7.0 20.4 7.5 21.0 8.8 21.15 9.3 Q21.25 11.55 22.25 13.35 L23.05 14.8 Q23.95 16.3 25.35 17.35 26.05 17.85 26.8 17.75 L26.95 17.4 27.0 17.0 26.75 15.85 25.6 13.95 24.8 12.8 Q23.9 11.35 23.5 9.6 L23.05 8.2 22.5 7.1 22.3 6.75 22.1 6.4 21.8 5.3 Q21.7 4.65 21.75 4.0" fill="#fad497" fill-rule="evenodd" stroke="none"/>
    <path d="M21.75 4.0 Q21.7 4.65 21.8 5.3 L22.1 6.4 22.3 6.75 22.5 7.1 23.05 8.2 23.5 9.6 Q23.9 11.35 24.8 12.8 L25.6 13.95 26.75 15.85 27.0 17.0 26.95 17.4 26.8 17.75 Q26.05 17.85 25.35 17.35 23.95 16.3 23.05 14.8 L22.25 13.35 Q21.25 11.55 21.15 9.3 L21.0 8.8 20.4 7.5 20.05 7.0 19.4 5.95 19.1 4.7 Q18.6 2.7 17.1 1.3 17.15 0.75 17.7 0.4 18.5 -0.15 19.35 0.15 L20.1 0.55 20.75 1.3 21.45 2.45 21.75 4.0" fill="#ffecd0" fill-rule="evenodd" stroke="none"/>
    <path d="M13.75 4.25 L13.7 3.25 Q13.35 2.25 13.6 1.2 13.7 0.55 14.15 0.2 L14.85 -0.35 14.65 0.55 Q14.55 0.95 14.6 1.25 14.6 2.2 14.9 3.2 15.45 4.7 16.5 5.95 L18.25 7.9 18.6 8.3 18.85 8.7 Q19.2 9.55 19.15 10.45 19.05 11.6 19.2 12.6 L19.4 13.15 20.3 14.45 21.35 15.95 22.05 16.85 22.75 17.35 23.3 18.05 23.45 18.55 23.45 18.6 23.6 19.15 23.65 19.3 23.65 19.4 23.45 20.3 23.2 21.0 23.15 21.3 23.6 23.2 23.1 22.55 22.55 21.9 Q22.2 21.45 22.2 21.05 L22.25 20.65 22.35 20.35 22.45 19.85 22.55 19.4 22.55 19.05 Q22.55 17.95 21.75 17.65 20.7 17.3 20.3 16.8 L20.25 16.8 20.25 16.75 19.9 16.5 Q19.05 15.65 18.45 14.45 L17.35 12.1 17.05 11.35 16.65 10.15 16.5 9.3 Q16.35 8.4 15.75 7.8 L14.7 6.8 14.2 6.25 Q13.65 5.35 13.75 4.25" fill="#c48748" fill-rule="evenodd" stroke="none"/>
    <path d="M17.35 12.1 L18.45 14.45 Q19.05 15.65 19.9 16.5 L20.25 16.75 20.25 16.8 20.3 16.8 Q20.7 17.3 21.75 17.65 22.55 17.95 22.55 19.05 L22.55 19.4 22.45 19.4 Q21.85 19.5 21.05 21.2 L20.9 21.6 Q19.85 21.0 18.65 20.9 L17.7 21.05 16.75 21.2 16.3 21.3 15.25 21.05 15.1 20.85 14.95 20.5 15.0 20.15 15.1 19.5 Q14.9 19.0 14.4 18.85 L13.7 19.2 13.1 19.75 12.7 20.2 12.6 19.75 Q12.6 18.3 13.85 16.8 L15.2 16.65 Q16.3 16.8 16.75 16.05 17.1 15.4 17.3 12.5 L17.35 12.1" fill="#e2a851" fill-rule="evenodd" stroke="none"/>
    <path d="M29.9 23.35 L30.0 24.0 29.75 25.8 29.3 26.85 28.5 27.1 Q27.15 27.1 26.05 26.4 L25.25 26.0 24.65 25.6 24.25 25.35 23.8 24.0 23.7 23.65 23.6 23.2 23.15 21.3 23.2 21.0 23.45 20.3 23.65 19.4 23.65 19.3 23.6 19.15 23.65 19.1 Q24.1 18.5 24.8 18.45 L25.3 18.5 Q26.1 18.6 26.8 19.2 L27.85 20.25 28.25 20.55 28.8 21.05 Q29.4 21.6 29.6 22.35 L29.9 23.35 M25.2 23.3 L25.05 23.8 25.0 24.0 Q25.0 24.45 25.3 24.75 L26.35 25.4 26.8 25.7 27.45 25.7 Q27.5 25.05 27.95 24.65 28.45 24.25 28.45 23.6 28.45 23.15 27.65 22.75 L26.55 22.2 Q26.35 22.05 26.1 21.1 25.85 20.4 25.35 20.4 24.8 20.55 24.8 20.8 25.4 21.85 25.4 22.45 L25.2 23.3" fill="#d9a269" fill-rule="evenodd" stroke="none"/>
    <path d="M22.55 19.4 L22.45 19.85 22.35 20.35 22.25 20.65 22.2 21.05 Q22.2 21.45 22.55 21.9 L23.1 22.55 23.6 23.2 23.55 23.2 21.95 22.25 21.5 22.0 20.9 21.6 21.05 21.2 Q21.85 19.5 22.45 19.4 L22.55 19.4 M12.7 20.2 L12.45 20.45 11.6 20.9 11.15 21.1 9.75 20.65 8.4 20.3 7.1 20.45 6.75 20.55 5.2 20.45 Q4.15 20.25 3.25 19.7 6.5 17.85 7.75 14.95 9.35 11.25 10.9 10.6 L13.0 9.2 Q14.2 8.2 15.05 7.85 L15.75 7.8 Q16.35 8.4 16.5 9.3 L16.65 10.15 17.05 11.35 17.35 12.1 17.3 12.5 Q17.1 15.4 16.75 16.05 16.3 16.8 15.2 16.65 L13.85 16.8 Q12.6 18.3 12.6 19.75 L12.7 20.2" fill="#fac069" fill-rule="evenodd" stroke="none"/>
    <path d="M0.7 18.65 L0.85 18.45 1.05 18.05 2.1 16.9 2.7 16.45 2.5 17.45 2.4 18.2 Q2.55 19.15 3.25 19.7 4.15 20.25 5.2 20.45 L6.75 20.55 7.1 20.45 8.4 20.3 9.75 20.65 11.15 21.1 11.6 20.9 12.45 20.45 12.7 20.2 13.1 19.75 13.7 19.2 14.4 18.85 Q14.9 19.0 15.1 19.5 L15.0 20.15 14.95 20.5 15.1 20.85 15.25 21.05 16.3 21.3 16.75 21.2 17.7 21.05 18.65 20.9 Q19.85 21.0 20.9 21.6 L21.5 22.0 21.95 22.25 23.55 23.2 23.6 23.2 23.7 23.65 23.8 24.0 Q22.95 23.95 21.8 23.35 L20.2 22.7 19.35 22.95 18.15 23.2 17.45 23.05 16.85 22.85 Q16.55 22.85 16.3 23.0 L15.65 23.15 Q15.2 23.15 14.75 22.7 14.3 22.25 14.1 22.25 L12.25 22.9 10.05 23.5 9.5 23.4 Q9.1 23.4 8.85 22.85 8.55 22.25 8.05 22.25 L6.95 22.4 5.95 22.15 4.7 21.7 2.55 21.25 Q1.5 21.25 1.15 20.05 L0.7 18.65" fill="#8e5112" fill-rule="evenodd" stroke="none"/>
    <path d="M25.2 23.3 L25.4 22.45 Q25.4 21.85 24.8 20.8 24.8 20.55 25.35 20.4 25.85 20.4 26.1 21.1 26.35 22.05 26.55 22.2 L27.65 22.75 Q28.45 23.15 28.45 23.6 28.45 24.25 27.95 24.65 27.5 25.05 27.45 25.7 L26.8 25.7 26.35 25.4 25.3 24.75 Q25.0 24.45 25.0 24.0 L25.05 23.8 25.2 23.3" fill="#f3bf8c" fill-rule="evenodd" stroke="none"/>
    <path d="M24.25 25.35 L24.15 25.25 24.1 25.25 22.5 24.55 Q21.2 24.0 19.75 23.75 L16.85 23.4 13.85 23.75 13.1 23.9 11.15 24.1 10.25 24.1 8.25 23.8 7.75 23.7 6.4 23.3 5.25 22.95 2.5 22.25 1.6 22.35 Q0.95 22.0 0.4 21.45 -0.05 21.0 0.0 20.3 L0.3 19.3 Q0.45 18.9 0.7 18.65 L1.15 20.05 Q1.5 21.25 2.55 21.25 L4.7 21.7 5.95 22.15 6.95 22.4 8.05 22.25 Q8.55 22.25 8.85 22.85 9.1 23.4 9.5 23.4 L10.05 23.5 12.25 22.9 14.1 22.25 Q14.3 22.25 14.75 22.7 15.2 23.15 15.65 23.15 L16.3 23.0 Q16.55 22.85 16.85 22.85 L17.45 23.05 18.15 23.2 19.35 22.95 20.2 22.7 21.8 23.35 Q22.95 23.95 23.8 24.0 L24.25 25.35" fill="#b47534" fill-rule="evenodd" stroke="none"/>
    <path d="M2.7 16.45 L3.65 15.65 4.0 15.15 4.55 14.3 5.05 13.45 5.2 13.35 6.1 11.95 6.75 10.95 6.9 10.75 8.8 8.3 Q9.35 7.7 10.05 7.25 11.05 6.5 12.2 5.9 L13.2 5.1 13.65 4.5 13.75 4.25 Q13.65 5.35 14.2 6.25 L14.7 6.8 15.75 7.8 15.05 7.85 Q14.2 8.2 13.0 9.2 L10.9 10.6 Q9.35 11.25 7.75 14.95 6.5 17.85 3.25 19.7 2.55 19.15 2.4 18.2 L2.5 17.45 2.7 16.45" fill="#fcd292" fill-rule="evenodd" stroke="none"/>
    <path d="M8.15 11.3 Q8.75 11.3 9.2 11.75 L10.05 12.7 Q8.4 13.35 8.35 14.15 L8.15 14.55 6.85 14.7 6.45 14.7 Q6.3 14.65 6.3 14.4 L6.4 14.2 6.4 14.05 Q6.4 12.9 7.25 12.0 7.85 11.3 8.15 11.3 M8.65 12.8 L8.5 12.6 8.4 12.35 7.55 12.9 Q6.95 13.25 6.95 13.75 L7.05 13.95 7.05 14.05 7.2 14.05 7.25 14.05 7.3 14.1 7.5 14.15 8.1 13.55 8.65 12.8" fill="#261f0d" fill-rule="evenodd" stroke="none"/>
    <path d="M21.25 23.55 L21.3 23.35 20.85 23.2 20.55 22.65 20.7 22.25 20.95 22.1 21.3 22.15 21.6 22.25 22.15 22.0 22.4 21.45 22.3 21.1 22.25 20.7 22.8 20.5 23.0 20.7 23.25 20.85 23.35 20.95 23.55 21.25 24.25 22.55 23.6 23.0 23.55 23.0 23.25 23.2 22.1 23.75 21.25 23.55 M18.8 19.3 L18.8 19.35 19.35 19.9 19.15 20.7 Q18.85 21.05 18.35 21.05 17.95 21.05 17.3 20.1 L16.25 19.1 15.8 19.2 15.4 19.3 14.3 19.2 13.15 19.05 Q12.45 19.05 11.9 19.9 L11.05 20.8 Q10.9 20.8 10.3 20.4 9.7 19.95 9.25 19.95 8.8 19.95 8.15 20.4 L7.25 20.8 Q6.5 20.8 6.05 19.85 5.5 18.75 5.05 18.55 L3.3 18.45 Q1.85 18.25 1.85 17.5 1.85 17.0 2.95 16.3 4.0 15.6 4.05 14.85 L4.15 14.7 4.1 14.7 4.65 12.7 Q5.05 10.45 6.25 10.45 6.65 10.45 6.75 10.7 L6.8 10.9 Q6.8 12.05 6.2 12.95 L5.55 14.2 5.95 15.25 6.3 15.9 6.2 16.35 6.15 16.7 Q6.15 17.35 6.55 17.85 7.05 18.4 7.9 18.4 9.05 18.4 11.2 17.35 L13.2 16.5 13.6 16.35 14.65 16.7 15.95 17.2 Q16.35 17.25 16.8 17.85 L17.5 18.75 18.0 19.05 18.5 19.25 18.8 19.3 M11.35 24.45 L11.75 23.45 Q11.7 22.85 11.9 22.35 L12.2 21.9 12.45 21.7 12.5 21.7 12.8 21.6 Q13.25 21.6 13.25 22.25 13.25 23.35 12.5 24.25 L11.15 25.85 11.05 25.45 10.9 25.2 11.35 24.45" fill="#ffecd0" fill-rule="evenodd" stroke="none"/>
    <path d="M23.25 20.85 L23.0 20.7 22.8 20.5 22.25 20.7 22.3 21.1 22.4 21.45 22.15 22.0 21.6 22.25 21.3 22.15 20.95 22.1 20.7 22.25 20.55 22.65 20.85 23.2 21.3 23.35 21.25 23.55 20.45 22.95 Q19.65 22.15 19.8 21.35 19.05 21.65 18.8 22.25 L18.1 22.65 Q17.3 22.65 17.05 21.6 L16.7 21.0 Q16.35 20.6 15.65 20.6 L15.05 20.65 Q14.35 20.75 13.9 21.15 13.25 21.8 13.25 22.9 L13.1 23.65 12.4 24.8 Q11.6 25.9 11.6 26.55 L11.75 27.4 11.95 28.5 11.65 30.3 11.15 32.25 11.0 31.7 10.85 31.25 11.1 30.0 11.35 28.7 11.15 28.0 10.6 27.35 10.35 26.5 10.25 25.5 10.25 23.95 10.2 23.5 Q10.05 21.7 9.4 21.7 8.6 21.7 8.1 22.7 L7.7 23.45 7.45 23.75 6.35 23.1 5.8 22.15 Q4.95 20.4 4.35 20.25 L3.2 20.1 Q2.35 19.95 1.85 19.6 L1.65 19.05 1.35 18.45 0.8 18.2 0.15 18.1 Q0.1 16.45 2.2 15.75 L3.75 15.1 4.0 14.95 4.05 14.85 Q4.0 15.6 2.95 16.3 1.85 17.0 1.85 17.5 1.85 18.25 3.3 18.45 L5.05 18.55 Q5.5 18.75 6.05 19.85 6.5 20.8 7.25 20.8 L8.15 20.4 Q8.8 19.95 9.25 19.95 9.7 19.95 10.3 20.4 10.9 20.8 11.05 20.8 L11.9 19.9 Q12.45 19.05 13.15 19.05 L14.3 19.2 15.4 19.3 15.8 19.2 16.25 19.1 17.3 20.1 Q17.95 21.05 18.35 21.05 18.85 21.05 19.15 20.7 L19.35 19.9 18.8 19.35 18.8 19.3 19.7 19.6 20.9 20.2 22.0 20.8 22.15 20.5 22.2 20.45 22.45 20.3 Q22.75 20.3 23.2 20.8 L23.25 20.85 M11.35 24.45 L10.9 25.2 11.05 25.45 11.15 25.85 12.5 24.25 Q13.25 23.35 13.25 22.25 13.25 21.6 12.8 21.6 L12.5 21.7 12.45 21.7 12.2 21.9 11.9 22.35 Q11.7 22.85 11.75 23.45 L11.35 24.45" fill="#e9c298" fill-rule="evenodd" stroke="none"/>
    <path d="M16.55 11.65 L15.65 11.15 16.65 9.05 17.85 10.15 16.55 11.65 M10.6 14.45 L9.7 13.95 10.7 11.85 11.9 12.95 10.6 14.45 M21.8 18.95 L20.5 20.45 19.6 19.95 20.6 17.85 21.8 18.95" fill="#738e12" fill-rule="evenodd" stroke="none"/>
    <path d="M12.2 12.15 L12.5 13.0 12.3 13.75 11.95 14.45 12.25 14.55 Q13.3 13.95 13.3 12.65 L13.15 11.9 13.0 11.25 Q13.0 10.6 13.35 10.6 13.7 10.6 14.0 11.0 L14.6 11.4 14.95 11.35 15.3 11.25 Q15.55 11.25 15.85 11.4 L16.0 11.5 16.05 11.6 16.35 12.25 17.2 13.95 Q17.2 14.55 16.85 14.55 L16.55 14.45 16.25 14.4 Q14.85 14.4 13.8 15.45 L13.75 15.4 13.2 14.85 Q12.8 14.85 12.3 15.15 L11.7 15.5 11.05 15.25 10.9 14.5 11.75 13.85 Q12.05 13.5 12.05 12.25 L12.2 12.15" fill="#e9c298" fill-rule="evenodd" stroke="none"/>
    <path d="M12.2 12.15 L12.05 12.0 12.0 11.85 11.8 10.3 Q11.8 9.75 12.2 9.4 L13.1 9.0 13.75 9.5 Q14.05 9.95 14.45 9.95 L15.1 9.75 15.5 9.75 Q15.5 10.25 15.95 11.35 L15.85 11.4 Q15.55 11.25 15.3 11.25 L14.95 11.35 14.6 11.4 14.0 11.0 Q13.7 10.6 13.35 10.6 13.0 10.6 13.0 11.25 L13.15 11.9 13.3 12.65 Q13.3 13.95 12.25 14.55 L11.95 14.45 12.3 13.75 12.5 13.0 12.2 12.15 M13.75 15.4 L13.75 15.5 13.65 15.65 Q12.5 16.85 11.7 16.85 L10.5 16.7 9.6 16.5 9.6 15.75 10.0 15.4 10.35 15.1 10.65 14.6 10.9 14.5 11.05 15.25 11.7 15.5 12.3 15.15 Q12.8 14.85 13.2 14.85 L13.75 15.4" fill="#ffecd0" fill-rule="evenodd" stroke="none"/>
    <path d="M11.3 18.8 L11.35 18.85 11.0 19.0 Q9.8 19.65 8.75 19.65 L8.15 19.55 7.9 19.15 8.0 19.0 8.05 18.95 8.15 18.9 8.1 18.85 8.05 18.85 8.0 18.8 7.65 18.4 7.45 17.75 Q7.45 17.1 8.3 16.5 L9.1 16.1 9.7 16.1 Q9.05 16.15 8.9 16.4 L8.75 16.45 8.3 16.9 8.05 17.35 8.2 17.6 8.35 17.6 8.55 17.6 8.65 17.6 8.65 17.85 8.75 18.25 9.0 18.65 9.25 18.95 9.75 18.9 10.1 18.95 10.5 19.0 11.3 18.8" fill="#e62b26" fill-rule="evenodd" stroke="none"/>
    <path d="M11.3 18.8 L10.5 19.0 10.1 18.95 9.75 18.9 9.25 18.95 9.0 18.65 8.75 18.25 8.65 17.85 8.65 17.6 8.65 17.55 8.75 17.45 8.8 17.4 9.3 17.05 Q9.85 16.7 10.25 16.7 L10.15 16.4 9.9 16.3 8.9 16.4 Q9.05 16.15 9.7 16.1 L10.55 16.1 10.85 16.25 11.15 16.6 11.5 16.8 11.55 16.3 11.75 16.1 11.8 16.1 12.3 16.6 12.35 17.4 11.8 18.45 11.35 18.8 11.3 18.8 M9.65 17.8 L9.2 18.35 9.15 18.45 9.35 18.55 9.85 18.4 10.45 17.95 10.4 17.6 10.4 17.25 9.65 17.8 M12.15 16.85 L12.0 16.55 Q11.85 16.55 11.75 17.1 L11.7 17.6 11.35 18.1 10.85 18.45 10.8 18.45 10.8 18.55 11.25 18.55 11.85 18.05 12.2 17.25 12.15 16.85" fill="#9e0e18" fill-rule="evenodd" stroke="none"/>
    <path d="M8.35 17.6 L8.2 17.6 8.05 17.35 8.3 16.9 8.75 16.45 8.9 16.4 9.9 16.3 10.15 16.4 10.25 16.7 Q9.85 16.7 9.3 17.05 L8.8 17.4 8.75 17.45 8.45 17.55 8.35 17.6" fill="#e6b692" fill-rule="evenodd" stroke="none"/>
    <path d="M9.65 17.8 L10.4 17.25 10.4 17.6 10.45 17.95 9.85 18.4 9.35 18.55 9.15 18.45 9.2 18.35 9.65 17.8" fill="#ea4853" fill-rule="evenodd" stroke="none"/>
    <path d="M12.15 16.85 L12.2 17.25 11.85 18.05 11.25 18.55 10.8 18.55 10.8 18.45 10.85 18.45 11.35 18.1 11.7 17.6 11.75 17.1 Q11.85 16.55 12.0 16.55 L12.15 16.85" fill="#bb0a1c" fill-rule="evenodd" stroke="none"/>
    <path d="M16.7 16.9 L18.15 16.7 Q18.8 16.9 18.9 17.1 L19.05 17.95 18.8 18.9 Q17.85 18.0 17.3 18.25 L17.05 18.3 16.5 17.45 16.35 17.2 Q16.3 17.0 16.4 16.95 L16.6 16.95 16.7 16.9 M17.05 17.15 L17.0 17.3 16.95 17.35 17.0 17.4 16.95 17.45 17.0 17.5 17.0 17.7 17.65 17.85 18.2 18.0 18.25 17.85 18.4 17.7 17.8 17.3 Q17.35 16.95 17.05 17.15" fill="#261f0d" fill-rule="evenodd" stroke="none"/>
    <path d="M11.9 7.2 L12.7 7.2 13.0 7.35 13.35 7.7 13.65 7.95 13.7 7.45 Q13.75 7.2 13.95 7.2 14.3 7.2 14.45 7.75 L14.55 8.5 Q14.55 9.1 14.0 9.6 L13.55 9.9 13.5 9.95 12.65 10.15 12.3 10.05 11.9 10.0 11.4 10.05 11.15 9.75 10.95 9.35 Q10.8 9.25 10.8 9.0 L10.85 8.75 10.85 8.7 10.9 8.55 11.0 8.55 11.5 8.2 Q12.0 7.8 12.45 7.85 L12.3 7.5 12.1 7.45 11.1 7.5 Q11.25 7.3 11.9 7.2 M13.9 8.75 L13.55 9.2 13.0 9.55 13.0 9.65 13.45 9.65 14.0 9.15 14.4 8.4 14.3 8.0 14.2 7.7 Q14.0 7.7 13.95 8.2 L13.9 8.75 M12.6 8.7 L12.55 8.4 Q12.3 8.45 11.8 8.9 L11.35 9.45 11.35 9.6 11.5 9.7 12.0 9.55 12.65 9.05 12.6 8.7" fill="#9e0e18" fill-rule="evenodd" stroke="none"/>
    <path d="M13.9 8.75 L13.95 8.2 Q14.0 7.7 14.2 7.7 L14.3 8.0 14.4 8.4 14.0 9.15 13.45 9.65 13.0 9.65 13.0 9.55 13.55 9.2 13.9 8.75" fill="#bb0a1c" fill-rule="evenodd" stroke="none"/>
    <path d="M11.1 7.5 L12.1 7.45 12.3 7.5 12.45 7.85 Q12.0 7.8 11.5 8.2 L11.0 8.55 10.9 8.55 10.65 8.7 10.55 8.75 10.4 8.75 10.25 8.5 10.5 8.05 10.9 7.6 11.1 7.5" fill="#e6b692" fill-rule="evenodd" stroke="none"/>
    <path d="M13.5 9.95 L13.2 10.15 Q12.0 10.75 10.9 10.75 L10.35 10.65 Q10.05 10.5 10.05 10.25 L10.15 10.15 10.2 10.1 10.3 10.1 10.25 10.05 10.3 10.0 10.25 9.95 10.15 9.95 9.8 9.55 9.6 8.85 Q9.6 8.2 10.5 7.6 10.9 7.35 11.25 7.2 L11.9 7.2 Q11.25 7.3 11.1 7.5 L10.9 7.6 10.5 8.05 10.25 8.5 10.4 8.75 10.55 8.75 10.7 8.75 10.85 8.75 10.8 9.0 Q10.8 9.25 10.95 9.35 L11.15 9.75 11.4 10.05 11.9 10.0 12.3 10.05 12.65 10.15 13.5 9.95" fill="#e62b26" fill-rule="evenodd" stroke="none"/>
    <path d="M12.6 8.7 L12.65 9.05 12.0 9.55 11.5 9.7 11.35 9.6 11.35 9.45 11.8 8.9 Q12.3 8.45 12.55 8.4 L12.6 8.7" fill="#ea4853" fill-rule="evenodd" stroke="none"/>
    <path d="M15.3 13.7 L15.75 13.7 15.9 13.8 16.1 14.0 16.3 14.15 16.3 13.85 16.45 13.7 16.75 14.0 16.8 14.45 16.45 15.05 16.2 15.25 15.7 15.35 15.5 15.35 15.3 15.3 15.0 15.35 14.85 15.15 14.75 14.95 14.65 14.75 14.7 14.6 14.7 14.5 14.75 14.45 15.05 14.3 15.6 14.1 15.5 13.9 15.4 13.85 14.85 13.9 Q14.9 13.75 15.3 13.7 M16.45 14.3 L16.4 14.6 16.2 14.85 15.9 15.05 15.9 15.1 16.15 15.1 16.5 14.85 16.7 14.4 16.65 14.15 16.55 14.0 16.45 14.3 M15.7 14.6 L15.65 14.4 15.25 14.7 15.0 15.0 14.95 15.05 15.05 15.15 15.35 15.05 15.7 14.75 15.7 14.6" fill="#9e0e18" fill-rule="evenodd" stroke="none"/>
    <path d="M14.85 13.9 L15.4 13.85 15.5 13.9 15.6 14.1 15.05 14.3 14.75 14.45 14.7 14.5 14.55 14.55 14.5 14.6 14.45 14.6 14.35 14.45 14.5 14.2 14.7 13.95 14.85 13.9" fill="#e6b692" fill-rule="evenodd" stroke="none"/>
    <path d="M16.45 14.3 L16.55 14.0 16.65 14.15 16.7 14.4 16.5 14.85 16.15 15.1 15.9 15.1 15.9 15.05 16.2 14.85 16.4 14.6 16.45 14.3" fill="#bb0a1c" fill-rule="evenodd" stroke="none"/>
    <path d="M15.7 14.6 L15.7 14.75 15.35 15.05 15.05 15.15 14.95 15.05 15.0 15.0 15.25 14.7 15.65 14.4 15.7 14.6" fill="#ea4853" fill-rule="evenodd" stroke="none"/>
    <path d="M15.3 13.7 Q14.9 13.75 14.85 13.9 L14.7 13.95 14.5 14.2 14.35 14.45 14.45 14.6 14.5 14.6 14.6 14.6 14.7 14.6 14.65 14.75 14.75 14.95 14.85 15.15 15.0 15.35 15.3 15.3 15.5 15.35 15.7 15.35 16.2 15.25 16.2 15.3 16.0 15.35 Q15.35 15.75 14.7 15.75 L14.4 15.65 14.25 15.45 14.3 15.4 14.35 15.35 14.4 15.3 14.35 15.3 14.3 15.25 14.1 15.05 14.0 14.65 Q14.0 14.3 14.5 13.95 L14.9 13.7 15.3 13.7" fill="#e62b26" fill-rule="evenodd" stroke="none"/>
    <path d="M14.7 -0.2 L15.4 -0.25 Q16.95 0.4 16.95 0.6 16.95 1.3 15.6 1.55 14.25 1.8 14.25 2.6 14.4 3.55 13.75 4.2 12.9 5.1 12.75 5.8 L12.55 5.8 12.35 4.7 12.15 3.85 Q12.15 3.35 12.7 2.85 13.25 2.4 13.25 1.95 L13.05 1.15 Q13.05 0.75 13.65 0.4 L14.15 0.15 14.7 -0.2" fill="#ffecd0" fill-rule="evenodd" stroke="none"/>
  </g>
  <defs>
    <radialGradient cx="0" cy="0" gradientTransform="matrix(0.0186, 0.0, 0.0, 0.0094, 15.5, 27.85)" gradientUnits="userSpaceOnUse" id="gradient0" r="819.2" spreadMethod="pad">
      <stop offset="0.00784313725490196" stop-color="#4d3212" stop-opacity="0.8"/>
      <stop offset="1.0" stop-color="#6b5438" stop-opacity="0.08627451"/>
    </radialGradient>
  </defs>
</svg>
