<?xml version="1.0" encoding="UTF-8" standalone="no"?>
<svg xmlns:xlink="http://www.w3.org/1999/xlink" height="39.2px" width="31.4px" xmlns="http://www.w3.org/2000/svg">
  <g transform="matrix(1.0, 0.0, 0.0, 1.0, -0.4, 0.3)">
    <path d="M23.85 0.75 L23.0 0.0 23.85 0.7 25.35 2.25 23.85 0.75 M26.7 4.85 L26.4 4.0 26.7 4.8 26.9 5.4 27.05 6.15 27.1 6.35 27.05 6.2 26.9 5.45 26.7 4.85 M5.45 22.55 L4.8 22.05 Q3.5 20.95 3.05 19.15 2.15 15.7 4.2 12.95 5.8 10.7 8.0 9.85 L9.15 9.5 9.1 8.75 9.2 7.25 Q9.35 6.5 9.65 5.8 L10.35 4.45 11.4 3.15 12.0 2.6 Q16.1 -0.15 20.6 1.1 24.25 2.05 26.4 5.75 26.9 6.7 27.0 7.8 27.35 11.3 25.35 14.1 24.45 15.3 23.85 16.55 25.05 16.75 25.95 17.8 27.0 19.1 26.65 20.9 26.3 22.95 24.95 24.1 23.2 25.6 21.2 26.2 20.8 26.1 20.8 26.3 20.7 26.85 20.9 27.05 L20.9 27.1 19.85 26.9 20.25 26.6 20.25 26.25 20.25 26.2 20.0 25.7 Q19.35 25.3 18.95 24.5 L18.0 21.6 17.7 22.35 Q17.25 23.65 16.45 24.4 16.25 24.3 15.7 24.7 L15.7 24.8 13.15 25.05 13.1 25.1 10.8 24.8 9.95 24.6 Q7.95 24.05 6.05 23.0 L5.7 22.75 5.45 22.55 M16.1 4.0 L15.95 4.05 15.95 4.1 16.1 4.0 M17.5 0.0 L17.6 0.0 17.6 0.15 17.5 0.0 M14.5 0.95 L14.55 0.9 14.55 1.0 14.5 0.95 M19.75 18.8 L19.75 18.75 19.55 18.75 19.4 18.8 19.75 18.8 M14.55 2.95 L14.55 2.85 14.5 2.85 14.5 2.9 14.55 2.95 M17.65 25.9 L17.6 25.9 17.35 26.0 16.95 26.35 16.5 26.45 16.45 26.35 16.15 25.2 16.05 25.2 16.05 25.1 15.9 25.1 15.9 24.85 Q16.05 24.55 16.45 24.55 L16.45 24.45 16.6 24.55 16.6 24.45 16.65 24.55 16.7 24.55 16.75 24.6 16.85 24.75 17.95 25.2 18.05 25.2 18.05 25.35 17.95 25.65 17.8 25.75 17.65 25.9" fill="#4ec27a" fill-rule="evenodd" stroke="none"/>
    <path d="M5.7 22.75 L6.05 23.0 Q7.95 24.05 9.95 24.6 L10.8 24.8 13.1 25.1 13.15 25.05 15.7 24.8 15.7 24.7 Q16.25 24.3 16.45 24.4 17.25 23.65 17.7 22.35 L18.0 21.6 18.95 24.5 Q19.35 25.3 20.0 25.7 L20.25 26.2 20.25 26.25 20.25 26.6 19.85 26.9 20.9 27.1 20.9 27.05 Q20.7 26.85 20.8 26.3 20.8 26.1 21.2 26.2 23.2 25.6 24.95 24.1 26.3 22.95 26.65 20.9 27.0 19.1 25.95 17.8 25.05 16.75 23.85 16.55 24.45 15.3 25.35 14.1 27.35 11.3 27.0 7.8 26.9 6.7 26.4 5.75 24.25 2.05 20.6 1.1 16.1 -0.15 12.0 2.6 L11.4 3.15 10.35 4.45 9.65 5.8 Q9.35 6.5 9.2 7.25 L9.1 8.75 9.15 9.5 8.0 9.85 Q5.8 10.7 4.2 12.95 2.15 15.7 3.05 19.15 3.5 20.95 4.8 22.05 L5.45 22.55 M17.65 25.9 L17.6 25.9 17.35 26.0 16.95 26.35 16.5 26.45 16.45 26.35 16.15 25.2 16.05 25.2 16.05 25.1 15.9 25.1 15.9 24.85 Q16.05 24.55 16.45 24.55 L16.45 24.45 16.6 24.55 16.6 24.45 16.65 24.55 16.7 24.55 16.75 24.6 16.85 24.75 17.95 25.2 18.05 25.2 18.05 25.35 17.95 25.65 17.8 25.75 17.65 25.9" fill="none" stroke="#693916" stroke-linecap="round" stroke-linejoin="round" stroke-width="2.0"/>
    <path d="M17.65 25.9 L18.25 26.65 18.25 25.8 Q18.45 25.1 18.95 24.5 M18.25 26.65 L18.5 27.2 18.75 27.8 19.3 28.6 20.2 28.15 20.3 28.1 20.45 27.6 M18.5 27.2 L18.0 28.6 Q17.7 29.15 17.8 29.75 M18.25 29.75 L18.5 29.05 Q18.8 28.7 19.3 28.6 20.0 29.3 21.05 29.75" fill="none" stroke="#693916" stroke-linecap="butt" stroke-linejoin="miter" stroke-width="2.0"/>
    <path d="M20.35 19.25 L20.35 19.3 19.85 19.3 20.1 19.25 20.35 19.25" fill="#fda31c" fill-rule="evenodd" stroke="none"/>
    <path d="M18.95 19.2 L18.9 19.2 18.95 19.15 18.95 19.2 M16.65 24.65 L16.65 24.6 16.7 24.65 16.65 24.65" fill="#007036" fill-rule="evenodd" stroke="none"/>
    <path d="M16.95 24.85 L18.05 25.3 17.9 25.35 17.8 25.55 17.55 25.45 17.15 25.3 16.8 25.1 16.65 25.0 16.5 25.0 16.8 25.2 16.85 25.2 16.85 25.3 17.2 25.5 17.35 25.7 17.35 25.75 17.15 25.7 17.0 25.85 16.85 25.7 16.8 25.6 16.7 25.45 16.5 25.2 16.55 25.3 16.65 25.5 16.95 26.3 16.7 26.35 16.5 25.75 16.45 25.55 16.4 25.45 16.35 25.35 16.35 25.2 16.5 25.05 16.5 25.0 16.85 24.85 16.95 24.85 M15.95 25.05 L15.95 24.95 Q16.1 24.65 16.5 24.65 L16.5 24.6 16.65 24.65 16.55 24.65 16.35 24.75 16.2 24.85 16.55 24.7 16.8 24.7 16.8 24.75 16.7 24.8 16.65 24.8 16.25 25.0 16.2 25.05 16.1 25.15 15.95 25.05" fill="#cc0000" fill-rule="evenodd" stroke="none"/>
    <path d="M16.65 24.65 L16.7 24.65 16.8 24.65 16.55 24.7 16.2 24.85 16.35 24.75 16.55 24.65 16.65 24.65" fill="#00a23f" fill-rule="evenodd" stroke="none"/>
    <path d="M16.8 24.65 L16.85 24.7 16.85 24.85 16.8 24.8 16.8 24.7 16.8 24.65" fill="#007337" fill-rule="evenodd" stroke="none"/>
    <path d="M16.55 24.7 L16.8 24.65 16.8 24.7 16.55 24.7" fill="#00923f" fill-rule="evenodd" stroke="none"/>
    <path d="M16.85 24.7 L16.95 24.85 16.85 24.85 16.5 25.0 16.5 25.05 16.35 25.2 16.35 25.35 16.35 25.45 16.4 25.45 16.4 25.6 16.4 25.7 16.45 25.75 16.5 26.45 16.2 25.3 16.1 25.3 16.1 25.2 15.95 25.2 15.95 25.05 16.1 25.15 16.35 25.0 16.5 24.85 16.65 24.8 16.7 24.8 16.8 24.75 16.8 24.7 16.8 24.8 16.85 24.85 16.85 24.7 M17.8 25.55 L17.8 25.6 17.55 25.45 17.8 25.55 M17.1 25.3 L17.4 25.7 17.45 25.75 17.45 25.8 17.35 25.75 17.35 25.7 17.4 25.7 17.2 25.5 16.85 25.3 16.85 25.2 17.1 25.3 M17.1 26.05 L17.1 26.1 17.0 26.3 16.85 25.95 16.95 26.3 16.65 25.5 16.7 25.5 16.8 25.6 16.8 25.75 16.85 25.75 16.95 25.85 17.05 25.95 17.05 26.0 17.1 26.05 M16.65 26.45 L16.55 26.45 16.5 25.85 16.45 25.75 16.5 25.75 16.7 26.35 16.5 25.85 16.65 26.45 M16.8 25.2 L16.5 25.0 16.65 25.0 16.8 25.2 M16.4 25.6 L16.45 25.55 16.5 25.75 16.4 25.6" fill="#a00101" fill-rule="evenodd" stroke="none"/>
    <path d="M18.05 25.3 L18.1 25.3 18.15 25.45 18.05 25.75 17.7 26.0 17.45 26.1 17.05 26.45 16.55 26.55 16.5 26.45 16.55 26.45 16.65 26.45 16.7 26.35 16.95 26.3 17.0 26.3 17.1 26.25 17.15 26.15 17.1 26.1 17.1 26.05 17.05 25.95 17.0 25.85 17.15 25.7 17.35 25.75 17.45 25.8 17.55 25.85 17.5 25.8 17.5 25.75 17.4 25.7 17.1 25.3 17.55 25.45 17.55 25.5 17.8 25.6 17.8 25.55 17.9 25.35 18.05 25.3" fill="#b10101" fill-rule="evenodd" stroke="none"/>
    <path d="M17.55 25.45 L17.8 25.6 17.55 25.5 17.55 25.45 M16.8 25.6 L16.85 25.75 16.8 25.75 16.8 25.6" fill="#007c3a" fill-rule="evenodd" stroke="none"/>
    <path d="M17.55 25.45 L17.1 25.3 16.85 25.2 16.8 25.2 16.8 25.1 17.15 25.3 17.55 25.45" fill="#00803b" fill-rule="evenodd" stroke="none"/>
    <path d="M16.65 24.8 L16.5 24.85 16.35 25.0 16.1 25.15 16.2 25.05 16.25 25.0 16.65 24.8" fill="#00863c" fill-rule="evenodd" stroke="none"/>
    <path d="M16.55 25.3 L16.5 25.2 16.7 25.45 16.65 25.4 16.55 25.3" fill="#008c3e" fill-rule="evenodd" stroke="none"/>
    <path d="M16.8 25.1 L16.8 25.2 16.65 25.0 16.8 25.1 M16.65 25.5 L16.55 25.3 16.65 25.4 16.7 25.45 16.8 25.6 16.7 25.5 16.65 25.4 16.65 25.5" fill="#00883d" fill-rule="evenodd" stroke="none"/>
    <path d="M16.8 25.6 L16.85 25.7 17.0 25.85 16.95 25.85 16.85 25.75 16.8 25.6 M16.65 25.5 L16.65 25.4 16.7 25.5 16.65 25.5 M17.4 25.7 L17.35 25.7 17.2 25.5 17.4 25.7" fill="#00843c" fill-rule="evenodd" stroke="none"/>
    <path d="M17.0 25.85 L17.05 25.95 17.1 26.05 17.05 26.0 17.05 25.95 16.95 25.85 17.0 25.85" fill="#008f3f" fill-rule="evenodd" stroke="none"/>
    <path d="M17.4 25.7 L17.5 25.75 17.5 25.8 17.55 25.85 17.45 25.8 17.45 25.75 17.4 25.7 M17.1 26.1 L17.15 26.15 17.1 26.25 17.0 26.3 16.95 26.3 16.85 25.95 17.0 26.3 17.1 26.1" fill="#007437" fill-rule="evenodd" stroke="none"/>
    <path d="M16.4 25.45 L16.35 25.45 16.35 25.35 16.4 25.45" fill="#009443" fill-rule="evenodd" stroke="none"/>
    <path d="M16.45 25.75 L16.4 25.7 16.4 25.6 16.5 25.75 16.45 25.75" fill="#2ca352" fill-rule="evenodd" stroke="none"/>
    <path d="M16.4 25.6 L16.4 25.45 16.45 25.55 16.4 25.6" fill="#009947" fill-rule="evenodd" stroke="none"/>
    <path d="M16.7 26.35 L16.65 26.45 16.5 25.85 16.7 26.35 M16.55 26.45 L16.5 26.45 16.45 25.75 16.5 25.85 16.55 26.45" fill="#3fa958" fill-rule="evenodd" stroke="none"/>
    <path d="M26.35 4.15 L26.65 4.95 26.8 5.6 27.0 6.35 27.05 6.55 27.0 6.4 26.8 5.65 26.65 5.0 26.35 4.2 Q25.5 2.35 23.9 0.95 L23.0 0.15 23.9 0.9 Q25.5 2.35 26.35 4.15" fill="#2ab861" fill-rule="evenodd" stroke="none"/>
    <path d="M17.5 0.85 L20.65 1.2 22.4 1.9 23.9 2.95 Q25.5 4.2 26.35 5.85 L26.65 6.55 26.8 7.1 27.0 7.8 27.05 7.95 27.05 8.1 27.1 8.9 Q27.1 11.3 25.4 14.25 L24.8 15.05 23.35 17.05 21.55 17.25 21.55 17.2 Q25.2 13.8 25.45 8.8 L25.45 8.7 Q25.15 3.15 17.5 0.85" fill="#22a152" fill-rule="evenodd" stroke="none"/>
    <path d="M21.55 17.2 L20.6 17.55 19.5 18.35 18.9 19.1 18.8 19.15 18.2 18.95 18.2 18.5 Q18.05 15.2 16.4 13.2 L16.0 12.8 15.6 12.4 15.0 11.95 Q13.65 10.95 11.9 10.4 L11.85 10.35 11.8 10.4 10.7 10.2 9.5 10.1 9.4 9.55 Q8.8 6.35 11.0 3.75 13.15 1.25 16.8 0.85 L17.5 0.85 Q25.15 3.15 25.45 8.7 L25.45 8.8 Q25.2 13.8 21.55 17.2 M20.6 3.95 L20.55 3.9 20.4 3.85 19.9 3.7 19.0 3.65 Q19.4 4.4 19.4 5.1 L19.4 5.15 19.35 5.2 20.6 5.6 20.6 3.95 M20.6 3.6 L20.55 2.3 Q19.35 1.65 18.05 1.8 L18.2 1.9 18.95 3.4 20.35 3.55 20.6 3.6 M16.7 3.95 L16.55 3.95 17.45 5.2 17.6 5.2 18.25 5.1 18.95 5.15 Q18.95 4.4 18.6 3.6 L18.2 3.6 16.7 3.95 M15.25 2.6 L15.2 2.65 15.15 2.65 15.25 2.75 15.55 2.95 16.45 3.75 16.5 3.75 18.5 3.4 17.8 1.9 17.65 1.8 Q16.5 1.85 15.25 2.6 M16.0 4.15 L16.05 4.2 16.2 4.1 16.0 4.15 M14.65 2.95 L14.65 3.0 14.7 3.05 14.75 2.95 14.65 2.95 M11.7 5.95 Q11.95 4.7 13.1 3.0 9.4 6.25 11.25 10.05 L12.3 10.3 12.4 10.3 12.35 10.25 11.7 8.45 Q11.4 7.25 11.7 5.95" fill="#54d285" fill-rule="evenodd" stroke="none"/>
    <path d="M20.6 3.95 L20.6 5.6 19.35 5.2 19.4 5.15 19.4 5.1 Q19.4 4.4 19.0 3.65 L19.9 3.7 20.4 3.85 20.55 3.9 20.6 3.95 M20.6 3.6 L20.35 3.55 18.95 3.4 18.2 1.9 18.05 1.8 Q19.35 1.65 20.55 2.3 L20.6 3.6 M15.25 2.6 Q16.5 1.85 17.65 1.8 L17.8 1.9 18.5 3.4 16.5 3.75 16.45 3.75 15.55 2.95 15.25 2.75 15.15 2.65 15.2 2.65 15.25 2.6 M16.7 3.95 L18.2 3.6 18.6 3.6 Q18.95 4.4 18.95 5.15 L18.25 5.1 17.6 5.2 17.45 5.2 16.55 3.95 16.7 3.95" fill="#abf3c7" fill-rule="evenodd" stroke="none"/>
    <path d="M17.55 0.1 L17.7 0.1 17.7 0.2 17.55 0.1 M14.7 1.05 L14.65 1.0 14.7 0.95 14.75 0.95 14.7 1.05" fill="#73e09d" fill-rule="evenodd" stroke="none"/>
    <path d="M11.7 5.95 Q11.4 7.25 11.7 8.45 L12.35 10.25 12.4 10.3 12.3 10.3 11.25 10.05 Q9.4 6.25 13.1 3.0 11.95 4.7 11.7 5.95" fill="#82e5a8" fill-rule="evenodd" stroke="none"/>
    <path d="M13.3 25.15 Q15.3 24.7 16.4 23.2 17.15 20.5 17.05 19.1 L16.9 16.5 Q16.85 15.45 16.15 14.15 15.45 12.8 14.2 11.85 L12.75 11.2 Q11.75 10.55 10.5 10.35 L7.1 10.45 Q8.45 9.8 9.8 9.5 L10.75 9.4 11.95 9.35 13.0 9.55 13.1 9.5 Q14.85 9.9 16.1 10.85 L16.65 11.35 17.0 11.75 17.35 12.25 Q18.85 14.3 18.6 17.95 L18.55 18.5 18.5 19.15 Q18.05 23.05 16.7 24.3 L16.65 24.45 16.6 24.35 16.6 24.45 16.45 24.35 16.45 24.45 15.85 24.75 15.85 24.85 15.3 24.95 13.8 25.15 13.6 25.15 13.4 25.15 13.3 25.15" fill="#c23141" fill-rule="evenodd" stroke="none"/>
    <path d="M7.1 10.45 L10.5 10.35 Q11.75 10.55 12.75 11.2 L14.2 11.85 Q15.45 12.8 16.15 14.15 16.85 15.45 16.9 16.5 L17.05 19.1 Q17.15 20.5 16.4 23.2 15.3 24.7 13.3 25.15 L13.25 25.15 11.75 24.85 10.15 24.6 10.05 24.55 9.75 24.45 8.1 23.85 7.3 23.5 7.2 23.55 6.85 23.35 6.3 22.95 6.05 22.85 5.95 22.7 5.9 22.7 5.65 22.5 5.45 22.4 5.0 22.05 4.45 21.4 4.05 21.0 Q2.35 18.6 3.1 15.55 3.8 12.55 6.6 10.7 L7.1 10.45 M10.3 12.05 L10.15 12.15 9.8 12.2 8.95 12.55 Q9.55 12.95 9.75 13.5 L9.8 13.6 10.85 13.3 10.4 12.05 10.3 12.05 M7.55 11.6 L7.7 11.6 Q8.4 11.85 8.9 12.4 9.25 12.0 10.0 11.9 L10.2 11.85 9.75 10.85 Q8.6 10.95 7.55 11.6 M8.9 13.95 Q9.15 13.75 9.4 13.7 9.15 13.1 8.7 12.65 L8.4 12.9 Q7.65 13.25 7.2 13.7 L7.15 13.85 Q7.8 14.05 8.25 14.4 L8.4 14.35 8.9 13.95 M7.3 11.85 Q7.3 11.75 7.2 11.8 6.35 12.3 5.65 13.3 L5.5 13.45 5.75 13.5 6.05 13.5 7.0 13.7 8.55 12.6 Q8.0 12.05 7.3 11.85 M4.1 17.45 Q3.85 16.3 4.1 14.5 2.6 18.3 5.0 20.6 L6.2 21.55 Q7.35 22.2 8.45 21.85 L6.85 21.0 Q5.8 20.35 5.15 19.5 L5.0 19.25 Q4.4 18.5 4.1 17.45" fill="#db6673" fill-rule="evenodd" stroke="none"/>
    <path d="M10.3 12.05 L10.4 12.05 10.85 13.3 9.8 13.6 9.75 13.5 Q9.55 12.95 8.95 12.55 L9.8 12.2 10.15 12.15 10.3 12.05 M7.55 11.6 Q8.6 10.95 9.75 10.85 L10.2 11.85 10.0 11.9 Q9.25 12.0 8.9 12.4 8.4 11.85 7.7 11.6 L7.55 11.6 M7.3 11.85 Q8.0 12.05 8.55 12.6 L7.0 13.7 6.05 13.5 5.75 13.5 5.5 13.45 5.65 13.3 Q6.35 12.3 7.2 11.8 7.3 11.75 7.3 11.85 M8.9 13.95 L8.4 14.35 8.25 14.4 Q7.8 14.05 7.15 13.85 L7.2 13.7 Q7.65 13.25 8.4 12.9 L8.7 12.65 Q9.15 13.1 9.4 13.7 9.15 13.75 8.9 13.95" fill="#ffbdbd" fill-rule="evenodd" stroke="none"/>
    <path d="M4.1 17.45 Q4.4 18.5 5.0 19.25 L5.15 19.5 Q5.8 20.35 6.85 21.0 L8.45 21.85 Q7.35 22.2 6.2 21.55 L5.0 20.6 Q2.6 18.3 4.1 14.5 3.85 16.3 4.1 17.45" fill="#fcadad" fill-rule="evenodd" stroke="none"/>
    <path d="M22.3 17.15 L22.3 17.2 22.4 17.4 22.45 17.4 22.65 17.85 23.55 18.0 23.65 18.05 23.65 17.2 23.65 17.15 22.7 17.1 22.3 17.15 M19.55 18.85 L19.55 18.8 19.6 18.65 19.65 18.55 19.9 18.2 21.3 16.95 20.6 17.25 20.2 17.55 Q19.55 17.95 19.2 18.5 L19.2 18.55 19.15 18.65 18.95 18.85 Q18.6 19.65 18.7 20.7 18.8 21.55 19.35 21.8 19.2 21.45 19.2 20.85 L19.2 20.75 19.2 20.65 19.2 20.5 19.2 20.2 19.25 19.75 19.25 19.7 19.3 19.45 19.35 19.25 19.4 19.25 19.4 19.15 19.4 19.0 19.5 18.85 19.55 18.85 19.95 18.85 19.95 18.8 19.7 18.8 19.55 18.85 M22.7 17.95 L22.65 18.0 22.75 18.7 22.85 18.7 23.25 18.8 23.5 18.9 23.55 18.9 23.7 18.15 23.5 18.05 22.7 17.95 M18.95 24.3 L18.7 23.65 18.7 23.6 18.7 23.55 18.6 23.4 18.3 22.5 18.15 21.95 18.1 21.9 18.05 21.7 18.05 21.35 18.0 21.2 18.0 20.9 18.0 20.75 18.05 20.45 18.0 20.35 18.1 19.9 18.15 19.65 18.55 18.75 18.6 18.7 19.25 17.85 20.4 16.95 21.35 16.6 23.3 16.4 23.85 16.5 24.15 16.65 Q26.55 19.1 25.95 20.7 25.35 22.35 24.55 23.3 23.75 24.3 21.5 25.7 20.4 25.9 19.5 25.15 L19.45 25.15 19.05 24.45 18.95 24.3 M23.85 17.3 L23.95 18.1 24.55 18.45 24.9 17.9 Q24.55 17.4 23.85 17.25 L23.85 17.3 M24.55 18.55 L24.45 18.55 24.35 18.45 23.85 18.25 23.7 18.95 23.7 19.0 24.25 19.4 24.55 18.65 24.55 18.55" fill="#deb349" fill-rule="evenodd" stroke="none"/>
    <path d="M22.3 17.15 L22.7 17.1 23.65 17.15 23.65 17.2 23.65 18.05 23.55 18.0 22.65 17.85 22.45 17.4 22.4 17.4 22.3 17.2 22.3 17.15 M22.7 17.95 L23.5 18.05 23.7 18.15 23.55 18.9 23.5 18.9 23.25 18.8 22.85 18.7 22.75 18.7 22.65 18.0 22.7 17.95 M23.85 17.3 L23.85 17.25 Q24.55 17.4 24.9 17.9 L24.55 18.45 23.95 18.1 23.85 17.3 M24.55 18.55 L24.55 18.65 24.25 19.4 23.7 19.0 23.7 18.95 23.85 18.25 24.35 18.45 24.45 18.55 24.55 18.55" fill="#fae4ae" fill-rule="evenodd" stroke="none"/>
    <path d="M19.55 18.85 L19.5 18.85 19.4 19.0 19.4 19.15 19.4 19.25 19.35 19.25 19.3 19.45 19.25 19.7 19.25 19.75 19.2 20.2 19.2 20.5 19.2 20.65 19.2 20.75 19.2 20.85 Q19.2 21.45 19.35 21.8 18.8 21.55 18.7 20.7 18.6 19.65 18.95 18.85 L19.15 18.65 19.2 18.55 19.2 18.5 Q19.55 17.95 20.2 17.55 L20.6 17.25 21.3 16.95 19.9 18.2 19.65 18.55 19.6 18.65 19.55 18.8 19.55 18.85" fill="#f5d584" fill-rule="evenodd" stroke="none"/>
    <path d="M24.15 16.65 Q25.0 16.8 25.6 17.3 26.4 17.9 26.8 18.7 L27.25 20.55 27.15 21.0 27.1 21.35 27.0 21.65 Q26.45 23.35 24.15 25.0 L22.05 26.2 21.4 26.3 21.3 26.3 21.05 26.35 21.05 26.3 21.0 26.3 21.0 26.25 20.95 26.25 20.6 26.15 20.5 26.2 20.4 26.1 20.3 26.0 20.1 25.9 20.05 25.8 19.65 25.4 19.6 25.35 19.6 25.25 19.5 25.15 Q20.4 25.9 21.5 25.7 23.75 24.3 24.55 23.3 25.35 22.35 25.95 20.7 26.55 19.1 24.15 16.65" fill="#b87f2a" fill-rule="evenodd" stroke="none"/>
    <path d="M21.05 26.4 L21.05 26.45 21.0 26.45 20.8 26.4 20.5 26.4 20.4 26.35 20.45 26.3 20.4 26.2 20.5 26.2 20.6 26.15 20.95 26.25 21.0 26.25 21.0 26.3 20.95 26.3 20.85 26.25 20.75 26.2 21.05 26.4 M20.25 26.75 L20.3 26.7 20.25 26.8 20.1 26.95 20.05 26.95 20.25 26.75 M20.85 26.85 L20.85 26.95 20.95 27.05 21.0 27.05 20.95 27.1 20.85 27.1 20.75 27.1 20.7 27.1 20.75 27.05 20.8 27.05 20.75 26.95 20.65 26.85 20.7 26.85 20.75 26.65 20.8 26.65 20.85 26.85 M20.65 26.5 L20.65 26.55 20.6 26.55 20.65 26.5 M20.6 26.65 L20.55 26.75 20.5 26.85 20.45 26.85 20.4 26.9 20.4 26.95 20.45 27.05 20.3 27.05 20.4 26.85 20.45 26.8 20.45 26.85 20.5 26.8 20.55 26.75 20.55 26.65 20.6 26.65" fill="#b87003" fill-rule="evenodd" stroke="none"/>
    <path d="M21.15 27.05 L21.25 27.05 21.15 27.2 21.1 27.2 21.05 27.25 20.75 27.2 20.7 27.2 20.6 27.15 20.55 27.15 20.2 27.1 20.05 26.95 20.1 26.95 20.25 27.05 20.3 27.05 20.45 27.05 20.5 26.85 20.65 26.85 20.65 27.15 20.7 27.1 20.75 27.1 20.85 27.1 20.95 27.1 21.0 27.05 21.05 27.05 21.15 27.05" fill="#db8402" fill-rule="evenodd" stroke="none"/>
    <path d="M20.05 26.95 L20.05 26.9 20.25 26.75 20.05 26.95 M20.95 26.95 L20.85 26.65 20.8 26.5 20.8 26.55 20.8 26.65 20.75 26.65 20.8 26.4 20.95 26.95 M20.55 26.55 L20.6 26.65 20.55 26.65 20.55 26.55 M20.45 26.8 L20.4 26.85 20.3 27.05 20.25 27.05 20.25 26.95 20.5 26.7 20.45 26.8" fill="#a00101" fill-rule="evenodd" stroke="none"/>
    <path d="M21.0 26.3 L21.05 26.4 20.75 26.2 20.85 26.25 20.95 26.3 21.0 26.3" fill="#00a23f" fill-rule="evenodd" stroke="none"/>
    <path d="M21.05 26.45 L21.15 27.05 21.05 27.05 21.0 27.05 20.95 27.05 20.95 26.95 20.8 26.4 20.75 26.65 20.7 26.85 20.65 26.85 20.5 26.85 20.55 26.75 20.6 26.65 20.65 26.55 20.65 26.5 20.6 26.5 20.6 26.55 20.55 26.55 20.55 26.65 20.5 26.7 20.25 26.95 20.25 27.05 20.1 26.95 20.25 26.8 20.35 26.75 20.45 26.55 20.5 26.5 20.5 26.4 20.8 26.4 21.0 26.45 21.05 26.45" fill="#f29300" fill-rule="evenodd" stroke="none"/>
    <path d="M21.05 26.35 L21.0 26.3 21.05 26.3 21.05 26.35" fill="#007036" fill-rule="evenodd" stroke="none"/>
    <path d="M20.95 26.95 L20.95 27.05 20.85 26.85 20.85 26.65 20.95 26.95" fill="#008c3e" fill-rule="evenodd" stroke="none"/>
    <path d="M20.6 26.55 L20.6 26.5 20.65 26.5 20.6 26.55 M20.35 26.65 L20.4 26.55 20.45 26.55 20.35 26.75 20.25 26.8 20.35 26.65" fill="#cc0000" fill-rule="evenodd" stroke="none"/>
    <path d="M20.65 26.55 L20.6 26.65 20.6 26.55 20.65 26.55" fill="#00843c" fill-rule="evenodd" stroke="none"/>
    <path d="M20.85 26.65 L20.85 26.85 20.8 26.65 20.8 26.55 20.85 26.65 M20.6 26.55 L20.6 26.65 20.55 26.55 20.6 26.55" fill="#00883d" fill-rule="evenodd" stroke="none"/>
    <path d="M20.85 26.85 L20.95 27.05 20.85 26.95 20.85 26.85 M20.8 26.55 L20.8 26.5 20.85 26.65 20.8 26.55" fill="#00803b" fill-rule="evenodd" stroke="none"/>
    <path d="M20.4 26.55 L20.5 26.4 20.5 26.5 20.45 26.55 20.4 26.55" fill="#009947" fill-rule="evenodd" stroke="none"/>
    <path d="M20.35 26.65 L20.35 26.55 20.4 26.55 20.35 26.65" fill="#2ca352" fill-rule="evenodd" stroke="none"/>
    <path d="M20.5 26.8 L20.5 26.75 20.55 26.75 20.5 26.8" fill="#007839" fill-rule="evenodd" stroke="none"/>
    <path d="M20.75 26.95 L20.8 27.05 20.75 27.05 20.75 26.95 M20.45 26.85 L20.45 26.8 20.5 26.7 20.5 26.75 20.5 26.8 20.45 26.85" fill="#007437" fill-rule="evenodd" stroke="none"/>
    <path d="M21.05 27.25 L20.95 27.25 20.7 27.2 20.75 27.2 21.05 27.25 M20.65 26.85 L20.75 26.95 20.75 27.05 20.7 27.1 20.65 27.15 20.65 26.85 M20.45 27.05 L20.4 26.95 20.45 26.85 20.5 26.85 20.45 27.05" fill="#b10101" fill-rule="evenodd" stroke="none"/>
    <path d="M20.4 26.95 L20.4 26.9 20.45 26.85 20.4 26.95" fill="#008f3f" fill-rule="evenodd" stroke="none"/>
    <path d="M20.5 26.75 L20.5 26.7 20.55 26.65 20.55 26.75 20.5 26.75" fill="#007c3a" fill-rule="evenodd" stroke="none"/>
    <path d="M20.3 26.7 L20.35 26.65 20.25 26.8 20.3 26.7" fill="#3fa958" fill-rule="evenodd" stroke="none"/>
    <path d="M20.7 27.2 L20.45 27.8 20.35 27.9 19.45 28.3 21.25 29.45 M18.95 24.3 Q18.5 24.8 18.4 25.55 L18.4 26.4 18.55 26.9 18.85 27.55 19.45 28.3 Q18.9 28.45 18.6 28.8 L18.4 29.45 M17.8 25.75 L18.4 26.4 M18.55 26.9 Q18.6 27.55 18.05 28.35 17.8 28.9 17.85 29.45" fill="none" stroke="#231916" stroke-linecap="butt" stroke-linejoin="miter" stroke-width="0.25"/>
    <path d="M0.4 32.25 Q0.4 29.5 5.0 27.55 9.65 25.6 16.1 25.6 22.6 25.6 27.2 27.55 31.8 29.5 31.8 32.25 31.8 35.0 27.2 36.95 22.6 38.9 16.1 38.9 9.65 38.9 5.0 36.95 0.4 35.0 0.4 32.25" fill="url(#gradient0)" fill-rule="evenodd" stroke="none"/>
  </g>
  <defs>
    <radialGradient cx="0" cy="0" gradientTransform="matrix(0.0186, 0.0, 0.0, 0.0094, 16.1, 32.25)" gradientUnits="userSpaceOnUse" id="gradient0" r="819.2" spreadMethod="pad">
      <stop offset="0.00784313725490196" stop-color="#4d3212" stop-opacity="0.8"/>
      <stop offset="1.0" stop-color="#6b5438" stop-opacity="0.08627451"/>
    </radialGradient>
  </defs>
</svg>
