<?xml version="1.0" encoding="UTF-8" standalone="no"?>
<svg xmlns:xlink="http://www.w3.org/1999/xlink" height="35.6px" width="31.65px" xmlns="http://www.w3.org/2000/svg">
  <g transform="matrix(1.0, 0.0, 0.0, 1.0, 0.85, 0.6)">
    <path d="M21.3 5.3 Q22.15 4.85 23.65 4.75 25.15 4.65 26.55 5.65 27.9 6.65 28.65 8.4 L29.65 11.6 Q30.35 15.35 28.15 18.25 26.35 20.55 23.95 20.8 L23.85 21.35 23.35 23.2 22.45 26.85 22.4 26.9 Q23.2 27.15 23.15 28.2 L23.15 28.25 22.1 30.7 21.25 31.5 18.05 32.15 15.55 32.2 11.65 31.75 Q7.8 31.05 4.7 29.4 3.65 28.9 3.5 27.65 3.2 26.35 3.75 25.15 4.1 24.45 4.9 24.45 L4.9 23.6 4.9 23.35 4.85 23.1 4.9 23.15 4.9 21.2 Q1.55 19.0 3.05 14.8 0.15 12.25 0.15 8.15 0.15 6.35 1.1 5.0 L1.7 4.1 Q3.5 1.95 6.15 1.05 L6.65 0.85 8.1 0.5 Q11.5 -0.05 13.9 2.35 L14.1 2.6 14.0 2.35 Q14.9 1.15 16.8 1.35 18.75 1.55 20.3 3.3 21.8 5.0 21.3 5.3 M21.3 5.35 L21.15 5.2 21.25 5.35 21.3 5.35" fill="#afa7a7" fill-rule="evenodd" stroke="none"/>
    <path d="M21.3 5.35 L21.15 5.2 21.25 5.35 21.3 5.35" fill="none" stroke="#4a0b00" stroke-linecap="round" stroke-linejoin="round" stroke-width="0.5"/>
    <path d="M21.3 5.3 Q22.15 4.85 23.65 4.75 25.15 4.65 26.55 5.65 27.9 6.65 28.65 8.4 L29.65 11.6 Q30.35 15.35 28.15 18.25 26.35 20.55 23.95 20.8 L23.85 21.35 23.35 23.2 22.45 26.85 22.4 26.9 Q23.2 27.15 23.15 28.2 L23.15 28.25 22.1 30.7 21.25 31.5 18.05 32.15 15.55 32.2 11.65 31.75 Q7.8 31.05 4.7 29.4 3.65 28.9 3.5 27.65 3.2 26.35 3.75 25.15 4.1 24.45 4.9 24.45 L4.9 23.6 4.9 23.35 4.85 23.1 4.9 23.15 4.9 21.2 Q1.55 19.0 3.05 14.8 0.15 12.25 0.15 8.15 0.15 6.35 1.1 5.0 L1.7 4.1 Q3.5 1.95 6.15 1.05 L6.65 0.85 8.1 0.5 Q11.5 -0.05 13.9 2.35 L14.1 2.6 14.0 2.35 Q14.9 1.15 16.8 1.35 18.75 1.55 20.3 3.3 21.8 5.0 21.3 5.3" fill="none" stroke="#626262" stroke-linecap="round" stroke-linejoin="round" stroke-width="2.0"/>
    <path d="M13.6 35.0 Q8.05 35.0 4.1 33.35 0.15 31.65 0.15 29.3 0.15 26.95 4.1 25.3 8.05 23.6 13.6 23.6 19.15 23.6 23.1 25.3 27.05 26.95 27.05 29.3 27.05 31.65 23.1 33.35 19.15 35.0 13.6 35.0" fill="url(#gradient0)" fill-rule="evenodd" stroke="none"/>
    <path d="M21.4 20.5 L23.2 20.2 Q24.25 20.1 23.95 21.35 L23.45 23.2 22.55 26.85 22.5 26.9 16.05 27.0 15.45 26.9 Q20.1 24.55 21.4 20.5 M23.25 28.2 L23.25 28.25 22.2 30.7 21.35 31.5 18.15 32.15 15.65 32.2 Q16.5 31.4 16.85 30.4 L17.2 29.05 17.15 28.5 17.35 28.5 19.6 28.45 21.55 28.35 23.25 28.2" fill="#bbb9b9" fill-rule="evenodd" stroke="none"/>
    <path d="M21.4 20.5 Q20.1 24.55 15.45 26.9 9.85 26.4 5.0 24.45 L5.0 23.6 5.0 23.35 4.95 23.1 5.0 23.15 5.0 19.6 7.7 19.25 10.45 19.55 Q12.35 20.2 12.6 19.9 L12.65 19.95 18.8 20.55 19.9 20.55 21.4 20.5" fill="#f2f2f2" fill-rule="evenodd" stroke="none"/>
    <path d="M16.05 27.0 L22.5 26.9 Q23.3 27.15 23.25 28.2 L21.55 28.35 19.6 28.45 17.35 28.5 17.15 28.5 16.95 27.8 Q16.65 27.25 16.05 27.0" fill="#dbdbd9" fill-rule="evenodd" stroke="none"/>
    <path d="M15.45 26.9 L16.05 27.0 Q16.65 27.25 16.95 27.8 L17.15 28.5 Q12.05 28.2 8.9 27.35 5.75 26.45 3.85 25.15 4.2 24.45 5.0 24.45 9.85 26.4 15.45 26.9" fill="#ffffff" fill-rule="evenodd" stroke="none"/>
    <path d="M15.65 32.2 L11.75 31.75 Q7.9 31.05 4.8 29.4 3.75 28.9 3.6 27.65 3.3 26.35 3.85 25.15 5.75 26.45 8.9 27.35 12.05 28.2 17.15 28.5 L17.2 29.05 16.85 30.4 Q16.5 31.4 15.65 32.2" fill="#ebebeb" fill-rule="evenodd" stroke="none"/>
    <path d="M14.1 2.6 L14.0 2.35 Q14.9 1.15 16.8 1.35 18.75 1.55 20.3 3.3 21.8 5.0 21.3 5.3 L21.3 5.35 21.15 5.2 Q19.6 3.3 17.65 3.05 16.05 2.85 15.5 4.15 14.9 5.55 15.05 6.7 L14.95 4.8 Q14.95 3.6 14.1 2.6" fill="#c6c6c6" fill-rule="evenodd" stroke="none"/>
    <path d="M21.3 5.3 Q22.15 4.85 23.65 4.75 25.15 4.65 26.55 5.65 27.9 6.65 28.65 8.4 L29.65 11.6 Q30.35 15.35 28.15 18.25 26.25 20.7 23.65 20.8 L22.0 20.65 20.95 21.55 19.9 22.35 17.6 22.95 Q14.25 23.35 12.4 20.5 L11.8 20.85 Q9.2 22.6 6.3 22.0 L5.1 21.3 Q1.5 19.1 3.05 14.8 0.15 12.25 0.15 8.15 0.15 6.35 1.1 5.0 L1.7 4.1 Q3.5 1.95 6.15 1.05 L6.65 0.85 8.1 0.5 Q4.75 2.15 4.05 3.0 3.3 3.8 2.55 5.8 0.95 9.85 3.85 12.7 L4.85 11.1 Q3.7 14.35 5.55 17.2 7.45 20.15 10.15 19.15 12.9 18.1 14.15 16.55 L14.25 16.75 14.1 17.4 14.1 18.05 Q15.9 22.1 19.85 20.3 21.85 19.4 25.1 16.35 24.5 17.7 22.35 20.1 25.1 20.45 26.6 18.7 28.1 16.9 27.9 13.75 27.65 10.55 25.15 8.9 22.65 7.2 19.65 8.0 L17.55 9.25 17.9 8.6 19.0 7.2 Q20.0 6.1 21.25 5.35 L21.3 5.35 21.3 5.3" fill="#dbdbd9" fill-rule="evenodd" stroke="none"/>
    <path d="M8.1 0.5 Q11.5 -0.05 13.9 2.35 L14.1 2.6 Q14.95 3.6 14.95 4.8 L15.05 6.7 Q14.9 5.55 15.5 4.15 16.05 2.85 17.65 3.05 19.6 3.3 21.15 5.2 L21.25 5.35 Q20.0 6.1 19.0 7.2 L17.9 8.6 17.55 9.25 19.65 8.0 Q22.65 7.2 25.15 8.9 27.65 10.55 27.9 13.75 28.1 16.9 26.6 18.7 25.1 20.45 22.35 20.1 24.5 17.7 25.1 16.35 21.85 19.4 19.85 20.3 15.9 22.1 14.1 18.05 L14.1 17.4 14.25 16.75 14.15 16.55 Q12.9 18.1 10.15 19.15 7.45 20.15 5.55 17.2 3.7 14.35 4.85 11.1 L3.85 12.7 Q0.95 9.85 2.55 5.8 3.3 3.8 4.05 3.0 4.75 2.15 8.1 0.5" fill="#fcfcfc" fill-rule="evenodd" stroke="none"/>
  </g>
  <defs>
    <radialGradient cx="0" cy="0" gradientTransform="matrix(0.016, 0.0, 0.0, 0.0081, 13.6, 29.3)" gradientUnits="userSpaceOnUse" id="gradient0" r="819.2" spreadMethod="pad">
      <stop offset="0.00784313725490196" stop-color="#4d3212" stop-opacity="0.8"/>
      <stop offset="1.0" stop-color="#6b5438" stop-opacity="0.08627451"/>
    </radialGradient>
  </defs>
</svg>
