<?xml version="1.0" encoding="UTF-8" standalone="no"?>
<svg xmlns:xlink="http://www.w3.org/1999/xlink" height="108.75px" width="93.65px" xmlns="http://www.w3.org/2000/svg">
  <g transform="matrix(1.0, 0.0, 0.0, 1.0, 1.9, 16.95)">
    <path d="M83.95 18.9 L84.15 19.45 84.2 19.6 84.85 21.45 85.35 23.25 85.4 23.55 89.6 65.2 Q90.25 69.85 87.9 71.7 87.15 72.3 86.05 72.6 L84.15 73.05 Q81.4 73.55 79.85 73.05 L79.6 72.95 76.4 71.4 75.1 70.55 Q73.7 69.7 72.5 69.25 L74.2 76.5 73.75 78.15 Q73.2 79.65 66.3 80.5 L64.85 80.65 Q64.45 82.9 62.3 84.85 L59.1 86.8 58.6 86.95 Q52.8 89.8 45.05 89.8 36.65 89.8 30.85 86.8 24.9 84.0 24.9 79.7 L25.15 79.2 25.45 77.95 Q24.15 78.6 22.7 77.05 L22.65 77.05 20.25 74.9 18.65 73.05 18.35 72.75 16.7 71.0 14.7 69.6 14.55 76.05 Q14.1 76.55 11.65 76.55 L10.15 76.45 Q8.45 76.15 6.85 75.3 L4.95 74.1 2.8 72.5 Q0.85 70.9 0.55 70.25 -0.1 68.9 0.2 66.7 L0.1 67.2 1.25 30.2 1.3 29.7 1.4 28.5 1.65 26.75 Q2.3 23.1 3.95 19.95 L5.45 17.5 5.55 17.4 6.8 15.85 Q7.9 14.55 9.25 13.4 12.9 10.25 18.05 8.05 20.9 6.8 24.2 5.9 27.45 4.95 31.2 4.3 L31.5 4.25 34.45 3.75 39.8 3.2 41.4 3.1 45.8 2.95 Q47.7 2.9 49.5 3.0 L60.1 4.25 61.85 4.65 63.65 5.1 66.85 6.1 Q70.25 7.3 73.45 9.0 L73.65 9.15 77.65 11.55 Q80.4 13.4 82.25 16.05 L82.45 16.3 83.95 18.9 M4.75 23.85 L4.65 23.7 4.6 24.45 4.75 23.85" fill="#e7732c" fill-rule="evenodd" stroke="none"/>
    <path d="M83.95 18.9 L84.15 19.45 84.2 19.6 84.85 21.45 85.35 23.25 85.4 23.55 89.6 65.2 Q90.25 69.85 87.9 71.7 87.15 72.3 86.05 72.6 L84.15 73.05 Q81.4 73.55 79.85 73.05 L79.6 72.95 76.4 71.4 75.1 70.55 Q73.7 69.7 72.5 69.25 L74.2 76.5 73.75 78.15 Q73.2 79.65 66.3 80.5 L64.85 80.65 Q64.45 82.9 62.3 84.85 L59.1 86.8 58.6 86.95 Q52.8 89.8 45.05 89.8 36.65 89.8 30.85 86.8 24.9 84.0 24.9 79.7 L25.15 79.2 25.45 77.95 Q24.15 78.6 22.7 77.05 L22.65 77.05 20.25 74.9 18.65 73.05 18.35 72.75 16.7 71.0 14.7 69.6 14.55 76.05 Q14.1 76.55 11.65 76.55 L10.15 76.45 Q8.45 76.15 6.85 75.3 L4.95 74.1 2.8 72.5 Q0.85 70.9 0.55 70.25 -0.1 68.9 0.2 66.7 L0.1 67.2 1.25 30.2 1.3 29.7 1.4 28.5 1.65 26.75 Q2.3 23.1 3.95 19.95 L5.45 17.5 5.55 17.4 6.8 15.85 Q7.9 14.55 9.25 13.4 12.9 10.25 18.05 8.05 20.9 6.8 24.2 5.9 27.45 4.95 31.2 4.3 L31.5 4.25 34.45 3.75 39.8 3.2 41.4 3.1 45.8 2.95 Q47.7 2.9 49.5 3.0 L60.1 4.25 61.85 4.65 63.65 5.1 66.85 6.1 Q70.25 7.3 73.45 9.0 L73.65 9.15 77.65 11.55 Q80.4 13.4 82.25 16.05 L82.45 16.3 83.95 18.9" fill="none" stroke="#950132" stroke-linecap="round" stroke-linejoin="round" stroke-width="4.0"/>
    <path d="M4.75 23.85 L4.6 24.45 4.65 23.7 4.75 23.85" fill="none" stroke="#693916" stroke-linecap="round" stroke-linejoin="round" stroke-width="1.0"/>
    <path d="M31.3 79.2 Q30.95 78.45 30.95 77.95 30.95 76.5 31.8 75.35 L32.8 74.4 Q33.65 73.55 35.15 72.8 L36.75 72.15 Q40.1 70.8 44.9 70.8 50.7 70.8 54.9 72.8 59.0 74.75 59.0 77.95 59.0 80.8 54.9 82.75 L54.4 82.9 52.55 83.75 49.6 84.5 44.9 84.85 Q39.1 84.85 35.15 82.75 L34.05 82.15 33.3 81.8 Q33.3 81.55 33.55 81.4 36.9 77.85 41.45 75.25 L41.45 73.55 36.65 76.5 Q34.05 77.6 31.3 79.2" fill="#91661e" fill-rule="evenodd" stroke="none"/>
    <path d="M33.3 81.8 L34.05 82.15 35.15 82.75 Q39.1 84.85 44.9 84.85 L49.6 84.5 52.55 83.75 54.4 82.9 54.9 82.75 Q59.0 80.8 59.0 77.95 59.0 74.75 54.9 72.8 50.7 70.8 44.9 70.8 40.1 70.8 36.75 72.15 L35.15 72.8 Q33.65 73.55 32.8 74.4 L31.8 75.35 Q30.95 76.5 30.95 77.95 30.95 78.45 31.3 79.2 L31.1 79.45 27.6 82.5 Q26.75 81.15 26.75 79.45 26.75 75.75 31.95 73.05 L32.2 72.9 32.3 72.9 Q37.35 70.3 44.9 70.3 52.45 70.3 57.85 73.05 63.05 75.75 63.05 79.45 63.05 83.4 57.85 85.95 L57.6 86.1 55.65 86.95 Q50.95 88.8 44.9 88.8 37.35 88.8 31.95 85.95 31.7 85.7 30.6 85.25 31.7 83.5 33.2 82.0 L33.3 81.8" fill="#774f0a" fill-rule="evenodd" stroke="none"/>
    <path d="M30.6 85.25 Q31.7 85.7 31.95 85.95 37.35 88.8 44.9 88.8 50.95 88.8 55.65 86.95 L57.6 86.1 57.85 85.95 Q63.05 83.4 63.05 79.45 63.05 75.75 57.85 73.05 52.45 70.3 44.9 70.3 37.35 70.3 32.3 72.9 L32.2 72.9 31.95 73.05 Q26.75 75.75 26.75 79.45 26.75 81.15 27.6 82.5 28.75 84.25 30.6 85.25 M32.7 71.95 L33.55 71.55 Q38.6 69.95 44.8 69.95 53.05 69.95 58.85 72.8 64.15 75.5 64.65 79.3 L64.65 79.7 64.65 79.95 Q64.65 82.75 62.05 85.1 L58.85 87.05 58.35 87.2 Q52.55 90.05 44.8 90.05 36.4 90.05 30.6 87.05 24.65 84.25 24.65 79.95 L24.9 79.45 Q25.4 75.35 30.6 72.8 31.7 72.15 32.7 71.95" fill="#5f3c00" fill-rule="evenodd" stroke="none"/>
    <path d="M31.3 79.2 Q34.05 77.6 36.65 76.5 L41.45 73.55 41.45 75.25 Q36.9 77.85 33.55 81.4 33.3 81.55 33.3 81.8 L33.2 82.0 Q31.55 81.4 31.1 79.45 L31.3 79.2" fill="#bf8521" fill-rule="evenodd" stroke="none"/>
    <path d="M33.2 82.0 Q31.7 83.5 30.6 85.25 28.75 84.25 27.6 82.5 L31.1 79.45 Q31.55 81.4 33.2 82.0" fill="#8a6324" fill-rule="evenodd" stroke="none"/>
    <path d="M40.7 67.85 L40.85 70.7 Q40.85 74.35 39.7 76.2 L39.45 76.2 38.6 76.45 Q38.35 76.95 38.85 77.2 L39.0 77.35 Q39.1 77.7 39.7 77.95 L41.55 78.3 Q43.65 78.8 43.65 76.45 L43.05 71.65 Q43.05 70.2 43.4 68.2 L46.4 68.2 46.25 73.25 Q46.25 75.25 47.35 76.95 47.35 78.2 45.75 79.3 44.05 80.4 42.45 80.4 L39.7 79.55 Q39.45 79.3 39.1 79.2 L38.25 78.8 37.35 77.7 Q36.6 76.35 37.35 75.1 L37.6 75.0 38.0 74.6 38.1 74.6 Q39.95 71.9 39.45 67.5 L40.7 67.85" fill="#7e5105" fill-rule="evenodd" stroke="none"/>
    <path d="M43.4 68.2 Q43.05 70.2 43.05 71.65 L43.65 76.45 Q43.65 78.8 41.55 78.3 L39.7 77.95 Q39.1 77.7 39.0 77.35 L38.85 77.2 Q38.35 76.95 38.6 76.45 L39.45 76.2 39.7 76.2 Q40.85 74.35 40.85 70.7 L40.7 67.85 43.4 68.2" fill="#a87723" fill-rule="evenodd" stroke="none"/>
    <path d="M42.45 80.4 Q44.05 80.4 45.75 79.3 47.35 78.2 47.35 76.95 46.25 75.25 46.25 73.25 L46.4 68.2 50.45 67.5 Q49.85 72.3 51.45 74.6 L51.95 75.5 Q52.3 75.95 52.3 76.6 L51.95 77.45 50.7 78.8 49.2 79.65 47.6 80.05 43.8 80.55 42.45 80.4" fill="#583000" fill-rule="evenodd" stroke="none"/>
    <path d="M73.55 9.15 L77.55 11.55 Q80.3 13.4 82.15 16.05 L82.35 16.3 83.85 18.9 84.05 19.45 84.1 19.6 84.45 21.25 84.55 23.25 84.55 23.7 Q84.45 26.05 83.15 27.15 81.75 28.25 81.75 28.5 L82.15 31.45 81.95 33.1 81.9 33.4 81.85 33.5 81.75 33.9 Q81.5 34.5 81.25 34.5 L80.75 34.4 80.25 34.0 79.9 33.7 Q78.9 32.9 78.25 32.9 77.5 32.9 77.1 33.35 L76.75 33.85 76.2 35.7 76.0 36.3 75.35 37.5 Q74.4 38.35 72.6 37.7 L69.5 36.6 67.75 36.3 67.5 36.25 Q66.4 36.25 65.65 38.4 64.8 40.75 63.8 46.15 L63.8 45.7 Q63.25 43.45 62.35 41.7 L61.6 40.45 Q60.7 39.25 59.75 39.2 L59.7 39.2 Q58.3 39.2 57.15 40.75 56.0 42.25 55.4 42.25 L53.6 41.15 53.05 40.75 51.8 40.0 51.4 40.05 Q50.55 40.25 50.1 41.4 49.75 42.3 49.7 43.85 L49.65 44.7 49.75 46.15 50.05 48.2 50.7 50.8 50.85 51.6 50.85 56.25 Q50.5 55.75 49.4 52.25 L47.95 47.65 47.35 46.05 45.8 42.85 45.55 42.5 Q44.35 40.65 43.15 40.3 L42.65 40.2 42.25 40.25 Q41.6 40.4 41.05 41.05 40.25 41.85 39.45 41.85 38.6 41.85 37.45 41.15 36.45 40.6 35.7 40.5 L35.35 40.45 33.05 40.85 30.15 41.65 29.15 41.55 29.1 41.4 29.1 41.25 29.1 40.85 29.0 39.4 28.7 39.0 Q27.4 39.0 25.85 40.0 L25.9 39.8 Q24.5 40.75 24.5 42.05 L24.65 43.6 24.8 45.7 24.8 46.7 24.75 47.3 24.75 47.5 24.1 49.35 23.9 49.35 23.25 45.05 22.9 42.25 Q22.75 41.05 21.6 39.8 L21.3 39.5 Q19.75 38.05 19.5 37.15 L19.8 36.9 19.9 36.35 19.15 36.15 19.0 36.15 17.6 36.55 15.25 37.0 Q13.95 37.05 12.45 34.9 L10.9 32.7 Q10.55 32.7 10.15 33.1 9.75 33.5 9.35 33.5 9.15 33.5 9.0 33.3 L8.85 33.1 8.75 32.85 8.6 32.3 8.55 30.65 Q7.0 30.7 6.75 33.35 L6.7 36.05 6.55 37.35 6.5 36.95 6.45 36.35 6.25 35.2 5.95 32.2 6.0 31.35 6.25 29.75 6.55 27.4 6.35 26.15 5.35 27.4 Q4.75 28.0 4.15 28.0 L4.65 23.85 4.55 23.7 Q3.05 21.8 4.7 20.3 L5.1 19.95 4.95 19.2 Q4.95 18.6 5.35 17.5 L5.45 17.4 6.7 15.85 Q6.7 16.6 7.25 16.8 7.8 17.0 8.15 17.55 L7.45 18.2 7.05 18.9 Q6.55 19.85 6.5 20.95 L6.45 21.35 Q6.45 21.95 7.2 23.2 L8.7 25.5 Q9.45 26.6 8.75 27.55 8.0 28.5 11.3 31.2 14.55 33.85 14.25 32.5 L16.3 29.4 16.55 29.5 Q16.95 29.5 16.85 31.25 L16.7 33.9 Q20.7 29.6 21.25 29.35 L21.8 29.25 20.6 31.35 Q19.65 33.0 20.8 34.4 L21.4 35.0 Q22.95 36.35 24.65 36.75 L25.4 36.85 Q27.45 37.05 30.3 36.05 L32.85 36.0 Q33.95 36.4 34.8 37.75 36.25 40.2 39.65 38.5 L40.45 38.0 Q42.2 36.9 43.8 37.15 45.4 37.4 46.85 39.15 L47.45 40.0 47.4 39.55 Q47.0 34.75 50.45 36.35 L51.75 36.95 Q54.15 37.95 54.5 37.75 54.95 37.45 55.95 37.1 56.95 36.7 57.3 36.7 L57.7 36.75 58.9 37.2 Q59.9 37.75 60.95 37.75 61.85 37.75 62.35 37.25 62.85 36.8 62.7 35.75 62.6 34.85 61.8 33.55 61.65 33.3 61.85 33.0 62.05 32.7 61.8 32.75 61.25 31.4 62.95 32.7 L63.55 33.2 Q65.95 35.2 67.7 34.85 L67.9 34.75 69.0 34.5 69.25 34.3 69.35 34.25 70.75 34.5 70.85 34.5 72.35 33.35 Q72.55 33.1 71.9 32.3 L70.95 31.2 69.2 29.35 Q69.95 29.5 72.05 30.8 L73.1 31.45 75.1 31.75 Q75.75 31.55 77.1 30.3 L78.9 28.45 80.85 26.1 Q81.7 24.7 81.7 23.75 L81.25 20.95 81.2 20.55 80.95 19.05 80.7 17.1 80.7 16.85 Q80.5 15.65 79.5 14.6 L77.45 12.55 Q75.9 10.7 73.55 9.15" fill="#ffc4d4" fill-rule="evenodd" stroke="none"/>
    <path d="M84.1 19.6 L84.75 21.45 85.25 23.25 85.3 23.55 89.5 65.2 Q90.15 69.85 87.8 71.7 84.15 73.9 79.75 70.3 73.2 60.95 69.35 49.8 66.15 40.5 65.1 43.7 64.5 45.5 65.25 53.75 65.8 60.25 67.15 70.7 L68.25 71.45 68.55 73.05 Q69.35 79.15 63.75 80.7 L53.2 80.4 Q47.15 79.4 46.55 76.9 L45.55 73.5 42.5 54.15 41.75 50.7 40.75 48.1 Q40.25 47.45 40.15 47.9 L39.9 49.55 39.65 53.3 39.6 54.2 Q39.2 61.0 39.45 66.9 L39.85 72.6 39.95 73.05 Q40.1 73.65 40.8 74.75 L42.85 77.3 43.2 77.7 Q43.65 78.45 43.0 79.0 42.35 79.6 41.2 79.8 L40.0 79.9 38.25 79.95 37.95 79.95 37.8 79.95 37.65 79.95 Q33.85 79.8 32.65 77.0 L32.4 76.2 32.2 75.8 30.9 69.05 29.45 60.85 Q28.95 58.75 28.45 59.3 L26.75 76.45 Q24.85 79.5 22.6 77.05 23.2 77.3 23.55 76.5 L23.55 76.45 Q23.9 75.5 23.8 73.05 L23.65 70.7 Q22.6 62.15 19.35 49.35 L17.85 43.8 17.8 43.6 Q16.25 41.1 14.9 42.9 13.6 44.65 13.15 49.45 L13.1 49.55 11.15 70.25 11.1 70.7 Q11.1 71.55 12.2 72.3 L13.15 73.05 14.1 74.3 Q14.55 74.95 14.6 75.4 L14.6 75.7 14.45 76.05 Q14.0 76.55 11.55 76.55 L10.05 76.45 Q8.35 76.15 6.75 75.3 L4.85 74.1 3.9 73.5 3.45 73.05 Q1.25 70.6 2.1 64.25 L2.6 58.35 Q2.8 52.2 2.15 44.5 L2.0 42.45 1.55 36.75 Q1.25 32.2 1.3 29.6 L1.3 28.5 1.55 26.75 Q2.2 23.1 3.85 19.95 L5.35 17.5 Q4.95 18.6 4.95 19.2 L5.1 19.95 4.7 20.3 Q3.05 21.8 4.55 23.7 L4.5 24.45 4.65 23.85 4.15 28.0 Q4.75 28.0 5.35 27.4 L6.35 26.15 6.55 27.4 6.25 29.75 6.0 31.35 5.95 32.2 6.25 35.2 6.45 36.35 6.5 36.95 Q6.65 41.6 7.5 50.25 L8.15 56.55 9.05 64.2 9.8 70.6 9.9 70.45 10.35 66.9 10.7 62.45 10.75 61.2 Q10.85 58.7 11.3 54.15 L11.55 51.55 11.85 44.5 11.85 40.6 Q11.8 32.8 10.3 33.75 8.95 34.55 8.85 33.45 L8.85 33.1 9.0 33.3 Q9.15 33.5 9.35 33.5 9.75 33.5 10.15 33.1 10.55 32.7 10.9 32.7 L12.45 34.9 Q13.95 37.05 15.25 37.0 L17.6 36.55 19.0 36.15 19.15 36.15 19.9 36.35 19.8 36.9 19.5 37.15 Q19.75 38.05 21.3 39.5 L21.6 39.8 Q22.75 41.05 22.9 42.25 L23.25 45.05 23.9 49.35 24.1 49.35 24.75 47.5 24.75 47.3 24.8 46.7 24.8 45.7 24.65 43.6 24.5 42.05 Q24.5 40.75 25.9 39.8 L25.85 40.0 Q26.0 42.3 27.65 49.6 29.55 56.75 29.6 53.25 L29.6 52.9 Q28.75 45.1 29.1 41.4 L29.15 41.55 30.15 41.65 33.05 40.85 35.35 40.45 35.7 40.5 37.55 42.75 38.6 44.65 Q39.45 46.3 39.85 46.25 40.25 46.2 41.1 43.9 41.95 41.6 42.8 40.65 L43.15 40.3 Q44.35 40.65 45.55 42.5 L45.8 42.85 47.35 46.05 47.95 47.65 49.4 52.25 Q50.5 55.75 50.85 56.25 L50.85 51.6 50.7 50.8 50.05 48.2 49.75 46.15 49.65 44.7 49.7 43.85 Q49.75 42.3 50.1 41.4 50.55 40.25 51.4 40.05 L52.5 41.25 Q53.3 42.4 53.85 44.1 L54.45 46.85 54.5 47.25 54.75 50.55 55.4 56.3 56.35 65.4 Q57.0 70.8 59.45 72.95 L59.6 71.45 Q59.6 70.1 58.3 62.45 57.2 56.25 57.0 52.55 L56.95 51.0 Q56.95 49.05 57.25 46.75 L57.65 44.35 57.75 43.8 Q58.6 39.6 59.75 39.2 60.7 39.25 61.6 40.45 L62.35 41.7 Q63.25 43.45 63.8 45.7 L63.8 46.15 Q64.8 40.75 65.65 38.4 66.4 36.25 67.5 36.25 67.75 37.05 69.35 40.05 L71.05 43.35 71.95 46.3 72.95 50.2 Q73.5 53.55 76.3 56.85 L80.95 62.4 77.55 54.0 Q75.95 49.15 75.95 43.75 L76.15 38.05 76.2 35.7 76.75 33.85 77.1 33.35 77.75 33.7 78.25 34.35 78.85 36.05 79.1 38.15 79.45 40.45 79.7 41.55 80.55 45.5 Q80.95 47.4 83.05 50.65 L82.15 47.9 81.6 46.0 81.3 44.15 81.25 41.9 81.25 38.15 Q81.35 35.45 81.75 33.9 L81.85 33.5 81.9 33.4 81.95 33.1 82.15 31.45 81.75 28.5 Q81.75 28.25 83.15 27.15 84.45 26.05 84.55 23.7 L84.55 23.25 84.45 21.25 84.1 19.6 M85.45 41.3 L85.35 41.5 85.2 41.55 85.2 45.1 85.9 51.85 85.95 57.6 85.7 63.7 Q85.05 67.75 82.95 67.75 81.45 67.75 80.25 66.3 L79.7 65.65 81.0 67.9 Q83.5 71.85 85.05 71.85 87.15 71.85 87.95 69.05 88.45 67.25 88.45 63.95 88.45 59.05 87.4 51.95 86.55 45.9 85.45 41.3" fill="#ff95a6" fill-rule="evenodd" stroke="none"/>
    <path d="M6.7 15.85 Q7.8 14.55 9.15 13.4 12.8 10.25 17.95 8.05 20.8 6.8 24.1 5.9 27.35 4.95 31.1 4.3 L31.4 4.25 34.35 3.75 39.7 3.2 41.3 3.1 45.7 2.95 Q47.6 2.9 49.4 3.0 L60.0 4.25 61.75 4.65 63.55 5.1 66.75 6.1 Q70.15 7.3 73.35 9.0 L73.55 9.15 Q75.9 10.7 77.45 12.55 L79.5 14.6 Q80.5 15.65 80.7 16.85 L80.7 17.1 80.95 19.05 81.2 20.55 81.25 20.95 81.7 23.75 Q81.7 24.7 80.85 26.1 L78.9 28.45 77.1 30.3 Q75.75 31.55 75.1 31.75 L73.1 31.45 72.05 30.8 Q69.95 29.5 69.2 29.35 L70.95 31.2 71.9 32.3 Q72.55 33.1 72.35 33.35 L70.85 34.5 70.75 34.5 69.35 34.25 69.25 34.3 69.0 34.5 67.9 34.75 67.7 34.85 Q65.95 35.2 63.55 33.2 L62.95 32.7 Q61.25 31.4 61.8 32.75 62.05 32.7 61.85 33.0 61.65 33.3 61.8 33.55 62.6 34.85 62.7 35.75 62.85 36.8 62.35 37.25 61.85 37.75 60.95 37.75 59.9 37.75 58.9 37.2 L57.7 36.75 57.3 36.7 Q56.95 36.7 55.95 37.1 54.95 37.45 54.5 37.75 54.15 37.95 51.75 36.95 L50.45 36.35 Q47.0 34.75 47.4 39.55 L47.45 40.0 46.85 39.15 Q45.4 37.4 43.8 37.15 42.2 36.9 40.45 38.0 L39.65 38.5 Q36.25 40.2 34.8 37.75 33.95 36.4 32.85 36.0 L30.3 36.05 Q27.45 37.05 25.4 36.85 L24.65 36.75 Q22.95 36.35 21.4 35.0 L20.8 34.4 Q19.65 33.0 20.6 31.35 L21.8 29.25 21.25 29.35 Q20.7 29.6 16.7 33.9 L16.85 31.25 Q16.95 29.5 16.55 29.5 L16.3 29.4 14.25 32.5 Q14.55 33.85 11.3 31.2 8.0 28.5 8.75 27.55 9.45 26.6 8.7 25.5 L7.2 23.2 Q6.45 21.95 6.45 21.35 L6.5 20.95 Q6.55 19.85 7.05 18.9 L7.45 18.2 8.15 17.55 Q7.8 17.0 7.25 16.8 6.7 16.6 6.7 15.85" fill="#fcadba" fill-rule="evenodd" stroke="none"/>
    <path d="M72.4 69.25 L74.1 76.5 73.7 75.9 Q72.25 74.1 71.0 73.05 L69.7 72.25 68.25 71.45 67.15 70.7 Q67.45 69.45 68.0 68.75 L68.35 68.45 Q68.9 68.0 70.05 68.2 71.55 68.5 72.4 69.25 M14.6 69.6 L14.6 75.4 Q14.55 74.95 14.1 74.3 L13.15 73.05 12.2 72.3 Q11.1 71.55 11.1 70.7 L11.15 70.25 Q11.25 69.7 11.7 69.5 L12.65 69.35 13.2 69.3 14.6 69.6 M3.9 73.5 L3.3 73.1 3.25 73.05 Q1.15 71.75 0.45 70.25 -0.2 68.9 0.1 66.7 L0.0 67.2 1.15 30.2 1.2 29.7 1.3 28.5 1.3 29.6 Q1.25 32.2 1.55 36.75 L2.0 42.45 2.15 44.5 Q2.8 52.2 2.6 58.35 L2.1 64.25 Q1.25 70.6 3.45 73.05 L3.9 73.5 M77.1 33.35 Q77.5 32.9 78.25 32.9 78.9 32.9 79.9 33.7 L80.25 34.0 80.75 34.4 81.25 34.5 Q81.5 34.5 81.75 33.9 81.35 35.45 81.25 38.15 L81.25 41.9 81.3 44.15 81.6 46.0 82.15 47.9 83.05 50.65 Q80.95 47.4 80.55 45.5 L79.7 41.55 79.45 40.45 79.1 38.15 78.85 36.05 78.25 34.35 77.75 33.7 77.1 33.35 M8.85 33.1 L8.85 33.45 Q8.95 34.55 10.3 33.75 11.8 32.8 11.85 40.6 L11.85 44.5 11.55 51.55 11.3 54.15 Q10.85 58.7 10.75 61.2 L10.7 62.45 10.35 66.9 9.9 70.45 9.8 70.6 9.05 64.2 8.15 56.55 7.5 50.25 Q6.65 41.6 6.5 36.95 L6.55 37.35 6.7 36.05 6.75 33.35 Q7.0 30.7 8.55 30.65 L8.6 32.3 8.75 32.85 8.85 33.1" fill="#ee6279" fill-rule="evenodd" stroke="none"/>
    <path d="M45.55 73.5 L45.35 73.05 45.25 72.95 Q44.3 71.6 42.1 71.5 L41.8 71.5 40.6 71.5 Q40.0 71.65 39.85 72.6 L39.45 66.9 Q39.2 61.0 39.6 54.2 L39.65 53.3 39.9 49.55 40.15 47.9 Q40.25 47.45 40.75 48.1 L41.75 50.7 42.5 54.15 45.55 73.5 M32.2 75.8 L31.85 75.15 Q28.45 72.85 27.5 74.95 L27.4 75.15 27.25 75.55 26.75 76.45 28.45 59.3 Q28.95 58.75 29.45 60.85 L30.9 69.05 32.2 75.8 M59.75 39.2 Q58.6 39.6 57.75 43.8 L57.65 44.35 57.25 46.75 Q56.95 49.05 56.95 51.0 L57.0 52.55 Q57.2 56.25 58.3 62.45 59.6 70.1 59.6 71.45 L59.45 72.95 Q57.0 70.8 56.35 65.4 L55.4 56.3 54.75 50.55 54.5 47.25 54.45 46.85 53.85 44.1 Q53.3 42.4 52.5 41.25 L51.4 40.05 51.8 40.0 53.05 40.75 53.6 41.15 55.4 42.25 Q56.0 42.25 57.15 40.75 58.3 39.2 59.7 39.2 L59.75 39.2 M85.45 41.3 Q86.55 45.9 87.4 51.95 88.45 59.05 88.45 63.95 88.45 67.25 87.95 69.05 87.15 71.85 85.05 71.85 83.5 71.85 81.0 67.9 L79.7 65.65 80.25 66.3 Q81.45 67.75 82.95 67.75 85.05 67.75 85.7 63.7 L85.95 57.6 85.9 51.85 85.2 45.1 85.2 41.55 85.35 41.5 85.45 41.3 M41.95 57.65 Q40.85 47.5 40.55 64.4 L40.55 69.4 Q40.9 70.95 42.35 69.4 42.7 65.2 42.45 61.45 L41.95 57.65" fill="#e5566d" fill-rule="evenodd" stroke="none"/>
    <path d="M87.8 71.7 Q87.05 72.3 85.95 72.6 L84.05 73.05 Q81.3 73.55 79.75 73.05 L79.5 72.95 Q78.0 72.35 76.3 71.4 L75.75 69.9 75.15 67.65 75.15 67.35 74.95 67.0 72.9 63.95 Q70.75 61.05 69.9 58.05 L69.85 58.0 67.8 51.15 Q66.7 47.35 66.25 47.35 65.95 47.35 65.9 47.85 L65.9 48.6 66.55 54.9 66.55 55.0 67.6 61.55 67.85 65.1 67.9 65.65 68.2 66.6 68.35 68.45 68.0 68.75 Q67.45 69.45 67.15 70.7 65.8 60.25 65.25 53.75 64.5 45.5 65.1 43.7 66.15 40.5 69.35 49.8 73.2 60.95 79.75 70.3 84.15 73.9 87.8 71.7 M22.6 77.05 L22.55 77.05 20.15 74.9 18.55 73.05 18.25 72.75 18.3 71.5 18.15 68.9 18.2 67.85 17.3 51.85 16.35 45.5 Q15.9 43.95 15.4 44.1 14.3 44.1 14.0 48.05 L12.5 66.55 12.55 66.85 12.65 69.35 11.7 69.5 Q11.25 69.7 11.15 70.25 L13.1 49.55 13.15 49.45 Q13.6 44.65 14.9 42.9 16.25 41.1 17.8 43.6 L17.85 43.8 19.35 49.35 Q22.6 62.15 23.65 70.7 L23.8 73.05 Q23.9 75.5 23.55 76.45 L23.55 76.5 Q23.2 77.3 22.6 77.05" fill="#f58798" fill-rule="evenodd" stroke="none"/>
    <path d="M74.1 76.5 L73.65 78.15 Q73.1 79.65 66.2 80.5 L63.75 80.7 Q69.35 79.15 68.55 73.05 L68.25 71.45 69.7 72.25 71.0 73.05 Q72.25 74.1 73.7 75.9 L74.1 76.5 M76.2 35.7 L76.15 38.05 75.95 43.75 Q75.95 49.15 77.55 54.0 L80.95 62.4 76.3 56.85 Q73.5 53.55 72.95 50.2 L71.95 46.3 71.05 43.35 69.35 40.05 Q67.75 37.05 67.5 36.25 L67.75 36.3 69.5 36.6 72.6 37.7 Q74.4 38.35 75.35 37.5 L76.0 36.3 76.2 35.7 M43.15 40.3 L42.8 40.65 Q41.95 41.6 41.1 43.9 40.25 46.2 39.85 46.25 39.45 46.3 38.6 44.65 L37.55 42.75 35.7 40.5 Q36.45 40.6 37.45 41.15 38.6 41.85 39.45 41.85 40.25 41.85 41.05 41.05 41.6 40.4 42.25 40.25 L42.65 40.2 43.15 40.3 M41.95 57.65 L42.45 61.45 Q42.7 65.2 42.35 69.4 40.9 70.95 40.55 69.4 L40.55 64.4 Q40.85 47.5 41.95 57.65" fill="#f77f85" fill-rule="evenodd" stroke="none"/>
    <path d="M76.3 71.4 L75.0 70.55 Q73.6 69.7 72.4 69.25 71.55 68.5 70.05 68.2 68.9 68.0 68.35 68.45 L68.2 66.6 67.9 65.65 67.85 65.1 67.6 61.55 66.55 55.0 66.55 54.9 65.9 48.6 65.9 47.85 Q65.95 47.35 66.25 47.35 66.7 47.35 67.8 51.15 L69.85 58.0 69.9 58.05 Q70.75 61.05 72.9 63.95 L74.95 67.0 75.15 67.35 75.15 67.65 75.75 69.9 76.3 71.4" fill="#ffa3b2" fill-rule="evenodd" stroke="none"/>
    <path d="M18.25 72.75 L16.6 71.0 14.6 69.6 13.2 69.3 12.65 69.35 12.55 66.85 12.5 66.55 14.0 48.05 Q14.3 44.1 15.4 44.1 15.9 43.95 16.35 45.5 L17.3 51.85 18.2 67.85 18.15 68.9 18.3 71.5 18.25 72.75" fill="#ffadba" fill-rule="evenodd" stroke="none"/>
    <path d="M29.1 41.4 Q28.75 45.1 29.6 52.9 L29.6 53.25 Q29.55 56.75 27.65 49.6 26.0 42.3 25.85 40.0 27.4 39.0 28.7 39.0 L29.0 39.4 29.1 40.85 29.1 41.25 29.1 41.4" fill="#f38597" fill-rule="evenodd" stroke="none"/>
    <path d="M42.1 71.5 L43.2 77.7 42.85 77.3 40.8 74.75 Q40.1 73.65 39.95 73.05 L39.85 72.6 Q40.0 71.65 40.6 71.5 L41.8 71.5 42.1 71.5" fill="#7b3306" fill-rule="evenodd" stroke="none"/>
    <path d="M67.7 26.0 L67.4 26.15 66.95 26.15 66.75 26.1 66.7 26.1 66.5 26.1 66.45 26.05 56.0 23.8 55.95 23.8 54.45 23.55 Q54.0 23.4 54.05 23.0 L54.15 22.5 54.2 22.3 54.4 21.1 54.0 21.0 53.75 21.0 52.4 20.75 Q51.95 20.6 52.1 20.3 L52.3 19.9 52.35 19.75 52.6 19.3 52.6 19.15 52.75 18.9 53.3 17.45 53.35 17.45 55.05 13.5 55.1 13.5 55.55 12.35 Q55.7 12.0 56.15 12.1 L67.15 14.45 67.15 14.5 68.35 14.7 68.55 14.75 68.8 14.85 68.85 14.85 Q69.6 15.05 69.45 15.55 L68.5 21.35 68.45 21.35 67.7 25.8 67.7 26.0" fill="#aa9948" fill-rule="evenodd" stroke="none"/>
    <path d="M67.7 26.0 L67.7 25.8 68.45 21.35 68.5 21.35 71.8 22.35 67.65 26.1 67.7 26.0" fill="#640006" fill-rule="evenodd" stroke="none"/>
    <path d="M68.5 21.35 L69.45 15.55 Q69.6 15.05 68.85 14.85 L68.8 14.85 68.55 14.75 68.35 14.7 67.15 14.5 67.15 14.45 56.15 12.1 Q55.7 12.0 55.55 12.35 L55.1 13.5 55.05 13.5 53.35 17.45 53.3 17.45 52.75 18.9 52.6 19.15 52.6 19.3 52.35 19.75 52.3 19.9 52.1 20.3 Q51.95 20.6 52.4 20.75 L53.75 21.0 54.0 21.0 54.4 21.1 54.2 22.3 54.15 22.5 54.05 23.0 Q54.0 23.4 54.45 23.55 L55.95 23.8 56.0 23.8 66.45 26.05 66.5 26.1 66.7 26.1 66.75 26.1 66.95 26.15 67.4 26.15 67.7 26.0 67.7 25.8 68.45 21.35 68.5 21.35 71.8 22.35 67.65 26.1 67.7 26.0" fill="none" stroke="#640006" stroke-linecap="round" stroke-linejoin="round" stroke-width="1.0"/>
    <path d="M68.55 15.4 L68.6 15.45 Q68.85 15.55 68.75 15.95 L68.65 17.1 68.6 17.1 Q67.8 16.85 67.95 15.95 67.1 15.85 67.1 15.1 L67.1 15.05 68.35 15.35 68.55 15.4 M55.4 14.4 L55.55 13.1 Q55.65 12.7 56.15 12.8 L57.45 13.05 Q57.2 13.55 56.65 13.7 L56.25 13.65 Q56.2 14.35 55.4 14.4" fill="#debc1e" fill-rule="evenodd" stroke="none"/>
    <path d="M68.65 17.1 L68.75 15.95 Q68.85 15.55 68.6 15.45 L68.55 15.4 Q69.3 15.55 69.15 16.05 L69.0 17.1 68.95 17.1 68.65 17.1 M57.45 13.05 L57.65 13.1 57.0 13.75 56.4 13.8 Q56.4 14.35 55.65 14.6 L55.3 14.6 55.4 14.4 Q56.2 14.35 56.25 13.65 L56.65 13.7 Q57.2 13.55 57.45 13.05" fill="#bd800c" fill-rule="evenodd" stroke="none"/>
    <path d="M68.65 17.1 L68.95 17.1 67.65 25.2 67.6 25.15 67.35 25.05 68.2 19.75 68.25 19.45 68.3 19.45 68.55 17.7 68.6 17.3 68.65 17.1" fill="#958e81" fill-rule="evenodd" stroke="none"/>
    <path d="M68.6 17.3 L68.55 17.7 Q61.7 15.1 55.3 14.65 L55.3 14.6 55.65 14.6 Q56.4 14.35 56.4 13.8 L57.0 13.75 Q64.35 15.0 68.6 17.3" fill="#705a37" fill-rule="evenodd" stroke="none"/>
    <path d="M67.1 15.1 Q67.1 15.85 67.95 15.95 67.8 16.85 68.6 17.1 L68.65 17.1 68.6 17.3 Q64.35 15.0 57.0 13.75 L57.65 13.1 67.1 15.1" fill="#6b5229" fill-rule="evenodd" stroke="none"/>
    <path d="M68.2 19.75 L67.35 25.05 67.3 25.05 Q66.45 24.9 66.3 25.8 L65.4 26.0 63.15 25.4 58.7 24.05 Q55.25 22.8 54.1 21.75 L65.65 24.15 67.4 19.7 Q67.95 18.35 68.2 19.75" fill="#e0d8cb" fill-rule="evenodd" stroke="none"/>
    <path d="M68.55 17.7 L68.3 19.45 68.25 19.45 68.2 19.75 Q67.95 18.35 67.4 19.7 L65.65 24.15 54.1 21.75 55.3 14.65 Q61.7 15.1 68.55 17.7" fill="#856e4d" fill-rule="evenodd" stroke="none"/>
    <path d="M54.1 21.75 Q55.25 22.8 58.7 24.05 L63.15 25.4 65.4 26.0 65.25 26.35 55.75 24.3 55.7 24.2 Q55.7 23.4 54.8 23.15 54.95 22.6 54.35 22.15 L54.05 22.0 54.1 21.75" fill="#bbad90" fill-rule="evenodd" stroke="none"/>
    <path d="M67.35 25.05 L67.6 25.15 67.65 25.2 67.6 25.65 67.45 26.25 67.45 26.3 67.4 26.3 67.1 26.65 66.7 26.65 66.75 26.6 66.8 26.6 66.85 26.55 67.05 26.3 67.1 26.2 67.3 25.2 67.35 25.1 67.35 25.05 M54.05 22.2 L54.05 22.0 54.35 22.15 Q54.95 22.6 54.8 23.15 55.7 23.4 55.7 24.2 L55.75 24.3 55.75 24.35 55.55 24.25 55.45 23.8 Q55.35 23.4 54.6 23.2 54.8 22.55 54.05 22.2" fill="#9a6604" fill-rule="evenodd" stroke="none"/>
    <path d="M65.4 26.0 L66.3 25.8 Q66.45 24.9 67.3 25.05 L67.35 25.05 67.35 25.1 67.3 25.2 67.1 26.2 67.05 26.3 66.85 26.55 66.8 26.6 66.75 26.6 66.7 26.65 66.5 26.6 66.4 26.55 66.15 26.5 65.25 26.35 65.4 26.0 M55.55 24.25 L54.2 24.0 Q53.75 23.85 53.8 23.45 L53.95 22.95 53.95 22.75 54.05 22.2 Q54.8 22.55 54.6 23.2 55.35 23.4 55.45 23.8 L55.55 24.25" fill="#bfa011" fill-rule="evenodd" stroke="none"/>
    <path d="M66.4 26.55 L66.25 26.55 66.15 26.5 66.4 26.55" fill="#fcf5ea" fill-rule="evenodd" stroke="none"/>
    <path d="M68.8 14.05 L68.85 14.5 68.55 15.25 68.55 15.35 68.55 15.4 68.45 15.4 Q67.65 15.15 68.0 14.45 67.15 14.3 67.25 13.75 L67.3 13.7 68.5 13.95 68.7 14.0 68.8 14.05 M63.8 22.3 L64.7 22.2 Q65.0 21.5 65.85 21.6 L65.95 21.65 65.95 21.7 65.9 21.7 65.85 21.75 65.45 22.5 65.45 22.55 65.2 22.75 65.1 22.8 65.05 22.8 65.0 22.9 64.75 22.8 64.65 22.75 64.55 22.75 64.5 22.75 63.55 22.5 Q63.65 22.35 63.8 22.3 M55.35 12.65 L55.7 11.65 Q55.85 11.3 56.3 11.4 L57.7 11.65 Q57.4 12.1 56.75 12.1 L56.35 12.15 Q56.15 12.65 55.35 12.65 M52.75 18.75 Q53.4 19.05 53.15 19.6 53.85 19.8 53.9 20.1 L53.9 20.45 52.55 20.2 Q52.05 20.05 52.25 19.75 L52.45 19.35 52.5 19.2 52.75 18.75" fill="#debc1e" fill-rule="evenodd" stroke="none"/>
    <path d="M68.55 15.4 L68.55 15.35 68.55 15.25 68.85 14.5 68.8 14.05 Q69.4 14.25 69.2 14.6 L68.85 15.4 68.8 15.4 68.55 15.4 M65.95 21.65 L66.25 21.7 66.15 22.0 65.8 22.55 65.8 22.65 65.45 22.85 65.0 22.9 65.05 22.8 65.1 22.8 65.2 22.75 65.45 22.55 65.45 22.5 65.85 21.75 65.9 21.7 65.95 21.7 65.95 21.65 M55.35 12.65 Q56.15 12.65 56.35 12.15 L56.75 12.1 Q57.4 12.1 57.7 11.65 L57.85 11.75 57.05 12.25 56.4 12.25 Q56.35 12.6 55.55 12.8 L55.25 12.8 55.35 12.65 M52.75 18.6 L53.0 18.7 Q53.55 19.15 53.35 19.6 54.2 19.8 54.1 20.4 L54.15 20.5 53.9 20.45 53.9 20.1 Q53.85 19.8 53.15 19.6 53.4 19.05 52.75 18.75 L52.75 18.6" fill="#bd800c" fill-rule="evenodd" stroke="none"/>
    <path d="M68.55 15.4 L68.8 15.4 66.25 21.7 65.95 21.65 67.7 17.2 67.75 17.2 68.35 15.9 68.45 15.6 68.55 15.4" fill="#645e53" fill-rule="evenodd" stroke="none"/>
    <path d="M67.25 13.75 Q67.15 14.3 68.0 14.45 67.65 15.15 68.45 15.4 L68.55 15.4 68.45 15.6 Q66.8 14.75 64.7 14.05 L65.05 13.2 67.25 13.75 M63.9 13.0 L63.65 13.75 Q60.75 12.85 57.05 12.25 L57.85 11.75 63.9 13.0" fill="#d9d2c5" fill-rule="evenodd" stroke="none"/>
    <path d="M68.35 15.9 L67.75 17.2 67.7 17.2 65.95 21.65 65.85 21.6 Q65.0 21.5 64.7 22.2 L63.8 22.3 61.55 21.7 61.45 21.7 62.25 19.85 66.25 20.7 66.45 20.35 66.65 19.65 62.7 18.85 64.45 14.65 Q66.4 15.2 68.35 15.9 M63.4 14.35 L61.55 18.6 53.5 16.9 55.2 12.8 55.25 12.8 Q59.3 13.25 63.4 14.35 M61.15 19.55 L60.4 21.35 57.15 20.45 Q53.8 19.3 52.9 18.35 L53.1 17.85 61.15 19.55" fill="#fcf9f3" fill-rule="evenodd" stroke="none"/>
    <path d="M68.45 15.6 L68.35 15.9 Q66.4 15.2 64.45 14.65 L64.7 14.05 Q66.8 14.75 68.45 15.6 M63.65 13.75 L63.4 14.35 Q59.3 13.25 55.25 12.8 L55.55 12.8 Q56.35 12.6 56.4 12.25 L57.05 12.25 Q60.75 12.85 63.65 13.75" fill="#ece6dd" fill-rule="evenodd" stroke="none"/>
    <path d="M64.45 14.65 L62.7 18.85 62.45 19.5 66.45 20.35 66.25 20.7 62.25 19.85 61.45 21.7 61.35 22.05 60.8 21.95 64.6 13.15 65.05 13.2 64.7 14.05 64.45 14.65 M53.25 17.45 L61.25 19.25 61.15 19.55 53.1 17.85 53.25 17.45" fill="#bd0c1f" fill-rule="evenodd" stroke="none"/>
    <path d="M62.7 18.85 L66.65 19.65 66.45 20.35 62.45 19.5 62.7 18.85 M63.9 13.0 L64.6 13.15 60.8 21.95 60.2 21.8 60.4 21.35 61.15 19.55 61.25 19.25 53.25 17.45 53.5 16.9 61.55 18.6 63.4 14.35 63.65 13.75 63.9 13.0" fill="#ec172e" fill-rule="evenodd" stroke="none"/>
    <path d="M61.45 21.7 L61.55 21.7 63.8 22.3 Q63.65 22.35 63.55 22.5 L61.35 22.05 61.45 21.7 M60.4 21.35 L60.2 21.8 54.15 20.5 54.1 20.4 Q54.2 19.8 53.35 19.6 53.55 19.15 53.0 18.7 L52.75 18.6 52.9 18.35 Q53.8 19.3 57.15 20.45 L60.4 21.35" fill="#e9e2d6" fill-rule="evenodd" stroke="none"/>
    <path d="M65.8 22.65 L65.8 22.55 66.15 22.0 65.95 22.5 65.8 22.65" fill="#c6bdad" fill-rule="evenodd" stroke="none"/>
    <path d="M33.35 25.15 Q33.35 24.05 35.7 23.2 38.05 22.45 41.35 22.45 44.6 22.45 46.95 23.2 49.35 24.05 49.35 25.15 49.35 26.3 46.95 27.05 44.6 27.85 41.35 27.85 38.05 27.85 35.7 27.05 33.35 26.3 33.35 25.15" fill="#e27083" fill-rule="evenodd" stroke="none"/>
    <path d="M39.5 -11.2 L39.45 -11.25 40.65 -11.2 42.5 -10.95 43.0 -10.75 Q42.0 -11.95 43.2 -13.85 43.9 -14.4 43.85 -15.15 L43.85 -15.2 44.25 -14.9 44.85 -14.5 Q45.4 -14.45 46.2 -13.55 L46.7 -12.75 46.7 -12.9 46.75 -12.7 46.85 -12.1 46.6 -11.45 46.45 -11.25 47.2 -11.5 47.05 -11.75 Q46.3 -13.25 48.05 -14.8 48.85 -15.2 49.05 -15.9 L49.05 -15.95 49.35 -15.5 49.85 -15.0 Q50.35 -14.8 50.9 -13.7 51.35 -12.7 51.05 -12.0 L50.75 -11.6 50.7 -11.55 50.2 -11.35 50.25 -11.35 50.8 -11.05 Q51.05 -12.6 53.25 -13.0 54.1 -12.85 54.7 -13.4 L54.7 -12.95 54.9 -12.25 Q55.4 -10.05 54.6 -9.25 54.3 -8.85 53.8 -8.85 L53.1 -8.9 53.6 -7.9 54.05 -8.1 54.2 -8.15 Q54.8 -8.25 55.55 -7.8 L56.8 -6.7 Q56.9 -6.4 57.65 -5.8 57.2 -5.75 56.75 -5.3 L56.5 -4.9 Q54.85 -3.3 53.5 -4.0 L53.15 -3.45 53.45 -3.6 Q55.05 -3.7 55.35 -1.4 L55.35 -1.5 55.45 -1.15 55.4 -0.65 55.4 -0.6 55.4 -0.1 55.4 0.0 55.45 0.3 55.5 0.65 54.5 0.45 54.0 0.55 Q51.65 0.75 51.1 -0.8 50.95 -1.1 50.95 -1.45 L50.6 -1.3 Q51.65 -0.55 50.95 1.2 L50.95 1.15 50.8 1.6 50.3 2.25 50.2 2.55 49.95 3.2 49.15 2.55 48.65 2.4 Q46.55 1.3 46.9 -0.35 L47.15 -1.15 46.75 -1.3 46.75 -1.1 46.7 -0.05 46.15 1.15 46.75 1.55 47.15 1.9 47.45 2.2 47.75 2.4 47.7 2.45 47.65 2.45 47.2 2.85 47.0 3.1 Q45.9 4.3 44.9 3.8 L44.45 3.5 44.3 3.95 45.6 4.25 Q47.45 4.9 47.45 5.9 47.45 6.8 45.6 7.4 L45.5 7.45 Q44.65 9.6 45.0 10.65 46.65 10.8 48.05 11.95 L48.85 12.65 Q49.9 14.0 49.65 15.45 L49.65 15.5 Q49.55 16.25 48.85 17.6 L48.2 18.8 45.8 21.75 44.5 23.05 Q44.75 23.2 44.65 23.95 L43.5 24.9 42.95 25.1 42.75 25.2 39.2 25.0 Q38.4 24.7 38.0 24.05 37.65 23.4 37.8 22.75 L36.9 21.75 35.5 20.2 34.25 18.55 33.15 16.9 32.9 15.7 Q32.8 14.85 32.95 14.5 L33.0 14.2 33.1 13.95 Q33.4 13.05 34.25 12.3 35.5 11.2 37.9 10.5 38.05 8.9 36.8 7.35 35.25 6.8 35.25 5.9 35.25 4.95 37.0 4.25 L40.55 3.7 40.35 3.2 Q40.05 3.6 39.0 3.65 L38.65 3.65 38.4 3.65 38.55 3.2 38.5 2.95 Q38.45 1.85 39.2 1.6 L39.35 1.6 39.3 1.5 39.1 1.55 38.85 1.65 Q37.65 1.85 37.35 0.7 L37.35 0.1 37.15 0.15 37.25 0.55 Q37.45 1.4 36.35 1.95 L36.1 2.05 35.75 2.35 35.7 2.4 35.5 1.95 35.25 1.55 35.2 1.4 Q34.95 0.8 35.05 0.45 L34.25 1.0 33.6 1.0 33.3 0.95 32.85 1.05 32.8 1.05 32.85 0.75 32.85 0.4 32.8 0.15 32.9 0.0 Q33.05 -1.2 33.85 -1.15 L33.9 -1.1 33.8 -1.35 Q33.1 -1.0 32.3 -1.8 L32.15 -2.05 31.7 -2.3 31.65 -2.3 32.1 -2.75 32.75 -3.3 33.5 -3.5 33.7 -3.45 33.75 -3.4 33.8 -3.4 34.05 -3.85 33.7 -3.85 Q33.4 -3.85 33.3 -4.05 32.85 -4.5 33.1 -5.65 L33.2 -6.0 33.2 -6.25 33.25 -6.2 34.0 -6.0 34.25 -5.95 Q35.15 -5.7 35.25 -5.0 L35.5 -5.15 35.55 -5.15 35.3 -5.25 35.15 -5.4 Q34.9 -5.85 35.2 -6.4 L35.75 -7.05 36.0 -7.35 36.15 -7.55 36.15 -7.5 Q36.25 -7.15 36.65 -6.95 37.55 -6.15 37.2 -5.4 L37.1 -5.25 37.5 -5.1 37.4 -5.2 37.35 -5.3 Q37.15 -5.8 37.6 -6.3 L38.3 -6.8 38.65 -7.0 38.85 -7.15 38.85 -7.1 Q38.8 -6.75 39.2 -6.45 L39.5 -5.85 Q40.1 -6.5 41.3 -6.8 L42.2 -6.9 41.6 -7.0 Q39.65 -7.35 39.65 -9.7 39.9 -10.55 39.5 -11.2 M38.65 -4.05 L39.05 -3.2 39.1 -3.45 39.05 -3.55 38.85 -3.85 38.75 -3.95 38.65 -4.05 M43.45 -8.0 L43.8 -8.7 43.5 -8.25 43.45 -8.0 M43.85 -10.05 L43.95 -9.95 44.15 -9.45 44.45 -9.85 43.85 -10.05 M38.65 -0.95 L38.9 -0.75 39.05 -0.6 Q40.0 0.25 40.95 2.15 L41.65 3.65 43.75 3.85 44.2 2.2 Q43.7 2.4 43.2 1.7 L43.1 1.6 43.05 1.55 42.5 1.6 42.45 1.6 42.35 1.65 42.3 1.65 42.3 0.05 Q42.2 -1.0 43.05 -2.2 43.6 -2.95 44.3 -3.2 L43.85 -3.95 43.55 -3.75 43.45 -3.6 42.75 -2.85 Q41.95 -2.25 41.15 -2.25 L41.25 -2.15 41.75 -1.55 41.6 -1.5 41.7 -1.5 41.45 -1.35 41.2 -1.0 Q40.35 -0.05 39.4 -0.75 L39.05 -1.1 38.9 -1.3 38.65 -0.95 M39.15 -2.65 L39.6 -2.8 39.1 -2.9 39.15 -2.65 M43.25 -6.9 L42.55 -6.9 43.2 -6.65 43.25 -6.9 M35.1 0.3 L35.3 0.1 35.15 0.05 35.1 0.3" fill="#e5df84" fill-rule="evenodd" stroke="none"/>
    <path d="M39.5 -11.2 Q39.9 -10.55 39.65 -9.7 39.65 -7.35 41.6 -7.0 L42.2 -6.9 41.3 -6.8 Q40.1 -6.5 39.5 -5.85 L39.2 -6.45 Q38.8 -6.75 38.85 -7.1 L38.85 -7.15 38.65 -7.0 38.3 -6.8 37.6 -6.3 Q37.15 -5.8 37.35 -5.3 L37.4 -5.2 37.5 -5.1 37.1 -5.25 37.2 -5.4 Q37.55 -6.15 36.65 -6.95 36.25 -7.15 36.15 -7.5 L36.15 -7.55 36.0 -7.35 35.75 -7.05 35.2 -6.4 Q34.9 -5.85 35.15 -5.4 L35.3 -5.25 35.55 -5.15 35.5 -5.15 35.25 -5.0 Q35.15 -5.7 34.25 -5.95 L34.0 -6.0 33.25 -6.2 33.2 -6.25 33.2 -6.0 33.1 -5.65 Q32.85 -4.5 33.3 -4.05 33.4 -3.85 33.7 -3.85 L34.05 -3.85 33.8 -3.4 33.75 -3.4 33.7 -3.45 33.5 -3.5 32.75 -3.3 32.1 -2.75 31.65 -2.3 31.7 -2.3 32.15 -2.05 32.3 -1.8 Q33.1 -1.0 33.8 -1.35 L33.9 -1.1 33.85 -1.15 Q33.05 -1.2 32.9 0.0 L32.8 0.15 32.85 0.4 32.85 0.75 32.8 1.05 32.85 1.05 33.3 0.95 33.6 1.0 34.25 1.0 35.05 0.45 Q34.95 0.8 35.2 1.4 L35.25 1.55 35.5 1.95 35.7 2.4 35.75 2.35 36.1 2.05 36.35 1.95 Q37.45 1.4 37.25 0.55 L37.15 0.15 37.35 0.1 37.35 0.7 Q37.65 1.85 38.85 1.65 L39.1 1.55 39.3 1.5 39.35 1.6 39.2 1.6 Q38.45 1.85 38.5 2.95 L38.55 3.2 38.4 3.65 38.65 3.65 39.0 3.65 Q40.05 3.6 40.35 3.2 L40.55 3.7 37.0 4.25 Q35.25 4.95 35.25 5.9 35.25 6.8 36.8 7.35 38.05 8.9 37.9 10.5 35.5 11.2 34.25 12.3 33.4 13.05 33.1 13.95 L33.0 14.2 32.95 14.5 Q32.8 14.85 32.9 15.7 L33.15 16.9 34.25 18.55 35.5 20.2 36.9 21.75 37.8 22.75 Q37.65 23.4 38.0 24.05 38.4 24.7 39.2 25.0 L42.75 25.2 42.95 25.1 43.5 24.9 44.65 23.95 Q44.75 23.2 44.5 23.05 L45.8 21.75 48.2 18.8 48.85 17.6 Q49.55 16.25 49.65 15.5 L49.65 15.45 Q49.9 14.0 48.85 12.65 L48.05 11.95 Q46.65 10.8 45.0 10.65 44.65 9.6 45.5 7.45 L45.6 7.4 Q47.45 6.8 47.45 5.9 47.45 4.9 45.6 4.25 L44.3 3.95 44.45 3.5 44.9 3.8 Q45.9 4.3 47.0 3.1 L47.2 2.85 47.65 2.45 47.7 2.45 47.75 2.4 47.45 2.2 47.15 1.9 46.75 1.55 46.15 1.15 46.7 -0.05 46.75 -1.1 46.75 -1.3 47.15 -1.15 46.9 -0.35 Q46.55 1.3 48.65 2.4 L49.15 2.55 49.95 3.2 50.2 2.55 50.3 2.25 50.8 1.6 50.95 1.15 50.95 1.2 Q51.65 -0.55 50.6 -1.3 L50.95 -1.45 Q50.95 -1.1 51.1 -0.8 51.65 0.75 54.0 0.55 L54.5 0.45 55.5 0.65 55.45 0.3 55.4 0.0 55.4 -0.1 55.4 -0.6 55.4 -0.65 55.45 -1.15 55.35 -1.5 55.35 -1.4 Q55.05 -3.7 53.45 -3.6 L53.15 -3.45 53.5 -4.0 Q54.85 -3.3 56.5 -4.9 L56.75 -5.3 Q57.2 -5.75 57.65 -5.8 56.9 -6.4 56.8 -6.7 L55.55 -7.8 Q54.8 -8.25 54.2 -8.15 L54.05 -8.1 53.6 -7.9 53.1 -8.9 53.8 -8.85 Q54.3 -8.85 54.6 -9.25 55.4 -10.05 54.9 -12.25 L54.7 -12.95 54.7 -13.4 Q54.1 -12.85 53.25 -13.0 51.05 -12.6 50.8 -11.05 L50.25 -11.35 50.2 -11.35 50.7 -11.55 50.75 -11.6 51.05 -12.0 Q51.35 -12.7 50.9 -13.7 50.35 -14.8 49.85 -15.0 L49.35 -15.5 49.05 -15.95 49.05 -15.9 Q48.85 -15.2 48.05 -14.8 46.3 -13.25 47.05 -11.75 L47.2 -11.5 46.45 -11.25 46.6 -11.45 46.85 -12.1 46.75 -12.7 46.7 -12.9 46.7 -12.75 46.2 -13.55 Q45.4 -14.45 44.85 -14.5 L44.25 -14.9 43.85 -15.2 43.85 -15.15 Q43.9 -14.4 43.2 -13.85 42.0 -11.95 43.0 -10.75 L42.5 -10.95 40.65 -11.2 39.45 -11.25 39.5 -11.2 M38.65 -4.05 L39.05 -3.2 39.1 -3.45 39.05 -3.55 38.85 -3.85 38.75 -3.95 38.65 -4.05 M39.15 -2.65 L39.1 -2.9 39.6 -2.8 39.15 -2.65 M38.65 -0.95 L38.9 -1.3 39.05 -1.1 39.4 -0.75 Q40.35 -0.05 41.2 -1.0 L41.45 -1.35 41.7 -1.5 41.6 -1.5 41.75 -1.55 41.25 -2.15 41.15 -2.25 Q41.95 -2.25 42.75 -2.85 L43.45 -3.6 43.55 -3.75 43.85 -3.95 44.3 -3.2 Q43.6 -2.95 43.05 -2.2 42.2 -1.0 42.3 0.05 L42.3 1.65 42.35 1.65 42.45 1.6 42.5 1.6 43.05 1.55 43.1 1.6 43.2 1.7 Q43.7 2.4 44.2 2.2 L43.75 3.85 41.65 3.65 40.95 2.15 Q40.0 0.25 39.05 -0.6 L38.9 -0.75 38.65 -0.95 M43.85 -10.05 L44.45 -9.85 44.15 -9.45 43.95 -9.95 43.85 -10.05 M43.45 -8.0 L43.5 -8.25 43.8 -8.7 43.45 -8.0 M43.25 -6.9 L42.55 -6.9 43.2 -6.65 43.25 -6.9 M35.1 0.3 L35.15 0.05 35.3 0.1 35.1 0.3" fill="none" stroke="#693916" stroke-linecap="round" stroke-linejoin="round" stroke-width="2.0"/>
    <path d="M36.8 7.3 Q35.25 6.75 35.25 5.85 35.25 4.9 37.0 4.2 L41.35 3.6 45.6 4.2 Q47.45 4.85 47.45 5.85 47.45 6.75 45.6 7.35 L45.5 7.4 41.35 8.0 38.2 7.7 37.0 7.35 36.8 7.3 M45.55 4.95 Q44.0 3.8 40.75 4.0 39.25 4.1 38.7 4.55 38.3 4.9 38.55 5.25 L39.15 5.95 37.9 5.5 Q36.55 5.5 36.75 6.05 37.9 6.95 41.35 7.0 L41.6 6.95 Q45.15 7.05 46.45 5.85 46.2 5.15 44.2 6.2 44.5 5.0 45.55 4.95" fill="#eee9cd" fill-rule="evenodd" stroke="none"/>
    <path d="M45.55 4.95 Q44.5 5.0 44.2 6.2 46.2 5.15 46.45 5.85 45.15 7.05 41.6 6.95 L41.35 7.0 Q37.9 6.95 36.75 6.05 36.55 5.5 37.9 5.5 L39.15 5.95 38.55 5.25 Q38.3 4.9 38.7 4.55 39.25 4.1 40.75 4.0 44.0 3.8 45.55 4.95" fill="#c5b06c" fill-rule="evenodd" stroke="none"/>
    <path d="M45.5 7.4 Q44.65 9.55 45.0 10.6 L45.4 11.25 Q45.85 11.75 45.6 12.35 45.4 12.95 44.25 13.5 43.1 14.1 41.35 14.0 L40.35 13.9 38.95 13.5 Q41.2 13.6 42.15 12.4 42.45 11.25 42.1 10.0 41.15 8.65 38.2 7.7 L41.35 8.0 45.5 7.4" fill="#b89f62" fill-rule="evenodd" stroke="none"/>
    <path d="M45.0 10.6 Q46.65 10.75 48.05 11.9 L48.85 12.6 Q49.9 13.95 49.65 15.4 L49.65 15.45 Q49.0 17.0 48.05 17.7 L47.65 17.95 45.2 19.15 45.45 18.25 Q47.3 17.55 48.2 16.7 49.0 15.8 48.9 14.6 48.65 12.95 46.85 12.3 48.6 14.05 47.25 15.35 L45.35 16.25 Q44.75 14.75 40.35 13.9 L41.35 14.0 Q43.1 14.1 44.25 13.5 45.4 12.95 45.6 12.35 45.85 11.75 45.4 11.25 L45.0 10.6" fill="#c9b78a" fill-rule="evenodd" stroke="none"/>
    <path d="M49.65 15.45 Q49.55 16.2 48.85 17.55 L48.2 18.75 Q47.35 20.15 44.5 23.0 L43.95 23.5 42.05 24.05 Q44.65 22.5 45.2 19.15 L47.65 17.95 48.05 17.7 Q49.0 17.0 49.65 15.45" fill="#a8754e" fill-rule="evenodd" stroke="none"/>
    <path d="M45.35 16.25 L47.25 15.35 Q48.6 14.05 46.85 12.3 48.65 12.95 48.9 14.6 49.0 15.8 48.2 16.7 47.3 17.55 45.45 18.25 45.85 17.15 45.35 16.25" fill="#d7cbad" fill-rule="evenodd" stroke="none"/>
    <path d="M32.95 14.45 L33.0 14.15 33.1 13.9 Q33.8 11.65 37.9 10.45 L37.6 11.45 Q36.85 12.55 38.35 13.25 L38.95 13.5 40.35 13.9 Q44.75 14.75 45.35 16.25 40.4 18.25 36.2 15.55 34.65 14.4 36.0 11.9 34.3 12.8 33.75 13.95 33.2 15.2 34.15 16.25 37.65 20.15 45.1 18.35 L45.45 18.25 45.2 19.15 41.3 19.55 Q38.8 19.65 36.75 18.9 L35.45 18.3 34.7 17.85 Q33.1 16.5 32.95 14.45" fill="#d9cba0" fill-rule="evenodd" stroke="none"/>
    <path d="M45.45 18.25 L45.1 18.35 Q37.65 20.15 34.15 16.25 33.2 15.2 33.75 13.95 34.3 12.8 36.0 11.9 34.65 14.4 36.2 15.55 40.4 18.25 45.35 16.25 45.85 17.15 45.45 18.25" fill="#e5dcbe" fill-rule="evenodd" stroke="none"/>
    <path d="M37.8 22.7 L35.5 20.15 Q33.25 17.2 33.15 16.85 L32.9 15.65 Q32.8 14.8 32.95 14.45 33.1 16.5 34.7 17.85 L35.45 18.3 35.4 18.4 Q35.4 19.05 37.1 21.3 37.95 22.6 39.65 23.4 L39.95 23.4 39.95 23.35 38.2 21.45 Q36.7 19.6 36.7 19.05 L36.75 18.9 Q38.8 19.65 41.3 19.55 L45.2 19.15 Q44.65 22.5 42.05 24.05 39.95 24.25 38.05 22.9 L37.8 22.7" fill="#c1a061" fill-rule="evenodd" stroke="none"/>
    <path d="M44.5 23.0 Q44.75 23.15 44.65 23.9 L43.5 24.85 42.95 25.05 42.75 25.15 42.05 24.05 43.95 23.5 44.5 23.0" fill="#8e6240" fill-rule="evenodd" stroke="none"/>
    <path d="M37.9 10.45 Q38.05 8.85 36.8 7.3 L37.0 7.35 38.2 7.7 Q41.15 8.65 42.1 10.0 42.45 11.25 42.15 12.4 41.2 13.6 38.95 13.5 L38.35 13.25 Q36.85 12.55 37.6 11.45 L37.9 10.45 M40.0 10.7 L39.75 9.8 39.55 9.6 39.3 9.35 39.05 9.3 38.85 9.5 39.05 10.4 38.85 11.45 38.6 12.1 Q38.6 12.45 38.9 12.45 L39.7 11.9 40.0 10.7" fill="#cdb476" fill-rule="evenodd" stroke="none"/>
    <path d="M42.75 25.15 L39.2 24.95 Q38.4 24.65 38.0 24.0 37.65 23.35 37.8 22.7 L38.05 22.9 Q39.95 24.25 42.05 24.05 L42.75 25.15" fill="#aa8854" fill-rule="evenodd" stroke="none"/>
    <path d="M40.0 10.7 L39.7 11.9 38.9 12.45 Q38.6 12.45 38.6 12.1 L38.85 11.45 39.05 10.4 38.85 9.5 39.05 9.3 39.3 9.35 39.55 9.6 39.75 9.8 40.0 10.7" fill="#e2d991" fill-rule="evenodd" stroke="none"/>
    <path d="M36.75 18.9 L36.7 19.05 Q36.7 19.6 38.2 21.45 L39.95 23.35 39.95 23.4 39.65 23.4 Q37.95 22.6 37.1 21.3 35.4 19.05 35.4 18.4 L35.45 18.3 36.75 18.9" fill="#dbc17f" fill-rule="evenodd" stroke="none"/>
    <path d="M40.4 17.3 Q40.4 17.85 39.1 17.85 38.3 17.85 37.25 17.1 36.05 16.3 36.05 15.6 36.05 15.35 36.5 15.35 L37.3 15.5 38.2 15.9 38.9 16.05 39.8 16.4 Q40.4 16.8 40.4 17.3" fill="#fcf9e7" fill-rule="evenodd" stroke="none"/>
    <path d="M44.45 -9.9 Q43.65 -10.05 43.1 -10.65 41.95 -11.9 43.2 -13.9 43.9 -14.45 43.85 -15.25 L43.95 -14.75 44.3 -14.2 Q44.8 -14.15 45.5 -13.2 46.35 -12.0 45.7 -11.0 L44.45 -9.9" fill="#ff9517" fill-rule="evenodd" stroke="none"/>
    <path d="M44.95 -10.3 Q44.7 -9.9 43.6 -11.3 42.5 -12.65 43.75 -14.25 L43.85 -15.25 44.25 -14.95 44.85 -14.55 Q45.4 -14.5 46.2 -13.6 47.2 -12.5 46.6 -11.5 L44.95 -10.3" fill="#fff016" fill-rule="evenodd" stroke="none"/>
    <path d="M44.9 -14.1 Q45.5 -13.9 45.5 -13.55 L45.45 -13.25 44.35 -14.0 44.65 -14.15 44.9 -14.1" fill="#fff8b3" fill-rule="evenodd" stroke="none"/>
    <path d="M45.45 -10.95 L44.95 -12.6 45.5 -12.1 Q46.05 -11.6 45.85 -11.25 L45.45 -10.95" fill="#ff8500" fill-rule="evenodd" stroke="none"/>
    <path d="M43.55 -7.25 Q43.45 -6.75 41.6 -7.05 39.65 -7.4 39.65 -9.75 39.9 -10.65 39.45 -11.3 40.1 -10.55 40.4 -10.65 L41.95 -10.45 Q43.3 -9.9 43.35 -8.7 L43.55 -7.25" fill="#ff9517" fill-rule="evenodd" stroke="none"/>
    <path d="M43.1 -7.7 L41.4 -7.8 Q39.75 -8.4 39.9 -10.4 L39.45 -11.3 40.65 -11.25 42.5 -11.0 Q44.05 -10.45 44.1 -9.3 L43.1 -7.7" fill="#fff016" fill-rule="evenodd" stroke="none"/>
    <path d="M40.95 -10.9 L41.75 -10.75 41.85 -10.45 40.55 -10.45 40.75 -10.8 40.95 -10.9" fill="#fff8b3" fill-rule="evenodd" stroke="none"/>
    <path d="M43.35 -8.4 L42.7 -9.0 41.9 -9.6 42.7 -9.4 Q43.55 -9.1 43.55 -8.7 L43.35 -8.4" fill="#ff8500" fill-rule="evenodd" stroke="none"/>
    <path d="M44.25 -4.6 L42.75 -2.9 Q40.95 -1.55 39.35 -3.35 39.05 -4.2 38.3 -4.4 L39.25 -5.65 Q39.85 -6.5 41.3 -6.85 42.9 -7.25 43.7 -6.3 L44.25 -4.6" fill="#ff9517" fill-rule="evenodd" stroke="none"/>
    <path d="M43.95 -4.3 Q44.25 -3.9 42.3 -3.1 40.35 -2.35 39.2 -4.0 L38.3 -4.4 39.25 -5.15 Q39.45 -5.65 40.9 -6.25 L43.35 -6.1 43.95 -4.3" fill="#fff016" fill-rule="evenodd" stroke="none"/>
    <path d="M43.35 -4.8 L41.15 -4.65 42.0 -5.1 43.25 -5.2 43.35 -4.8" fill="#ff8500" fill-rule="evenodd" stroke="none"/>
    <path d="M46.75 -2.45 L46.7 -0.1 Q46.15 2.05 43.85 1.7 L43.35 1.5 42.3 1.6 42.3 0.0 Q42.2 -1.05 43.05 -2.25 44.0 -3.5 45.25 -3.35 L46.75 -2.45" fill="#ff9517" fill-rule="evenodd" stroke="none"/>
    <path d="M46.75 -2.0 Q47.15 -1.75 46.2 0.0 45.25 1.85 43.25 1.3 L43.05 1.3 42.3 1.6 42.55 0.4 Q42.45 -0.15 43.1 -1.5 43.95 -3.15 45.1 -3.0 L46.75 -2.0" fill="#ffe600" fill-rule="evenodd" stroke="none"/>
    <path d="M45.9 -2.0 L45.2 -1.35 44.35 -0.5 44.75 -1.35 Q45.2 -2.25 45.6 -2.25 L45.9 -2.0" fill="#ff8500" fill-rule="evenodd" stroke="none"/>
    <path d="M49.25 -14.85 Q49.7 -14.65 50.1 -13.55 50.55 -12.15 49.7 -11.35 L48.2 -10.7 Q48.15 -10.65 47.75 -10.95 L47.05 -11.8 Q46.3 -13.3 48.05 -14.85 48.9 -15.25 49.05 -16.0 L49.05 -15.45 49.25 -14.85" fill="#ff9517" fill-rule="evenodd" stroke="none"/>
    <path d="M48.75 -10.9 Q48.35 -10.75 47.75 -12.25 47.1 -13.9 48.7 -15.05 L49.05 -16.0 49.35 -15.55 49.85 -15.05 Q50.35 -14.85 50.9 -13.75 51.55 -12.4 50.7 -11.6 L48.75 -10.9" fill="#fff016" fill-rule="evenodd" stroke="none"/>
    <path d="M49.75 -14.6 Q50.25 -14.25 50.2 -13.9 L50.05 -13.6 49.2 -14.65 49.55 -14.7 49.75 -14.6" fill="#fff8b3" fill-rule="evenodd" stroke="none"/>
    <path d="M49.1 -11.5 L49.45 -13.0 49.6 -12.55 Q49.75 -11.9 49.45 -11.65 L49.1 -11.5" fill="#ff8500" fill-rule="evenodd" stroke="none"/>
    <path d="M47.75 -1.75 L49.35 -1.45 Q51.0 -0.6 49.8 2.0 49.65 2.15 49.75 2.65 L49.95 3.15 49.15 2.5 48.65 2.35 Q46.55 1.25 46.9 -0.4 47.2 -1.75 47.75 -1.75" fill="#ff9517" fill-rule="evenodd" stroke="none"/>
    <path d="M48.35 -1.7 L50.4 -1.5 Q52.0 -0.65 50.45 2.05 L50.1 2.65 49.95 3.15 49.5 2.5 49.35 2.35 Q47.45 1.6 47.7 -0.1 47.9 -1.7 48.35 -1.7" fill="#ffe600" fill-rule="evenodd" stroke="none"/>
    <path d="M49.1 -1.35 L49.6 -1.35 Q50.15 -1.0 49.55 0.3 L49.35 -0.65 49.1 -1.35" fill="#ff8500" fill-rule="evenodd" stroke="none"/>
    <path d="M51.1 -2.45 L52.6 -3.1 Q53.8 -3.15 54.45 -1.85 55.0 -0.75 54.8 -0.35 54.7 -0.05 55.5 0.6 L54.5 0.4 54.0 0.5 Q51.65 0.7 51.1 -0.85 50.9 -1.35 50.95 -1.95 L51.1 -2.45" fill="#ff9517" fill-rule="evenodd" stroke="none"/>
    <path d="M55.4 -0.65 Q55.3 -0.35 55.5 0.6 L54.8 0.2 54.6 0.2 Q52.6 0.55 51.9 -1.05 51.2 -2.6 51.65 -2.75 L53.45 -3.65 Q55.3 -3.75 55.4 -0.65" fill="#ffe600" fill-rule="evenodd" stroke="none"/>
    <path d="M52.45 -2.85 L52.85 -3.1 Q53.55 -3.1 53.65 -1.65 L53.05 -2.35 52.45 -2.85" fill="#ff8500" fill-rule="evenodd" stroke="none"/>
    <path d="M55.3 -7.05 Q56.4 -6.6 56.55 -6.15 56.7 -5.85 57.65 -5.85 57.2 -5.8 56.75 -5.35 L56.5 -4.95 Q54.8 -3.3 53.35 -4.15 52.05 -4.95 52.35 -5.35 L53.1 -6.85 Q53.95 -7.6 55.3 -7.05" fill="#ff9517" fill-rule="evenodd" stroke="none"/>
    <path d="M55.55 -7.85 L56.8 -6.75 Q56.9 -6.45 57.65 -5.85 L56.9 -5.65 56.75 -5.55 Q55.45 -4.05 53.9 -4.8 52.35 -5.55 52.6 -5.95 L53.4 -7.8 55.55 -7.85" fill="#fff016" fill-rule="evenodd" stroke="none"/>
    <path d="M53.1 -6.55 L53.3 -7.0 54.25 -6.85 54.8 -6.45 53.85 -6.55 53.1 -6.55" fill="#ff8500" fill-rule="evenodd" stroke="none"/>
    <path d="M51.2 -9.4 Q50.65 -9.55 50.8 -10.95 50.9 -12.6 53.25 -13.05 54.15 -12.9 54.7 -13.5 L54.4 -13.05 Q54.15 -12.6 54.25 -12.45 54.5 -12.0 54.25 -10.85 54.0 -9.45 52.85 -9.2 L51.2 -9.4" fill="#ff9517" fill-rule="evenodd" stroke="none"/>
    <path d="M51.8 -9.3 Q51.3 -9.3 51.6 -11.0 51.9 -12.7 53.9 -12.9 L54.7 -13.5 54.7 -13.0 54.9 -12.3 Q55.6 -9.3 53.8 -8.9 L51.8 -9.3" fill="#fff016" fill-rule="evenodd" stroke="none"/>
    <path d="M54.55 -11.95 Q54.8 -11.35 54.55 -11.1 L54.3 -10.95 54.05 -12.25 Q54.4 -12.35 54.55 -11.95" fill="#fff8b3" fill-rule="evenodd" stroke="none"/>
    <path d="M52.2 -9.9 L52.65 -10.45 Q53.2 -10.95 53.45 -10.85 53.0 -9.85 52.35 -9.65 L52.2 -9.9" fill="#ff8500" fill-rule="evenodd" stroke="none"/>
    <path d="M43.2 -12.15 Q44.05 -11.35 44.55 -11.5 45.25 -11.75 45.05 -12.4 L45.3 -11.65 45.45 -10.55 44.95 -10.3 Q44.55 -10.5 44.1 -10.85 43.25 -11.55 43.2 -12.15" fill="#ffbc00" fill-rule="evenodd" stroke="none"/>
    <path d="M44.95 -12.6 L45.85 -12.35 Q46.75 -12.25 46.7 -12.95 L46.8 -12.35 Q46.9 -11.75 46.6 -11.5 46.0 -10.85 46.0 -11.2 L45.45 -12.2 44.95 -12.6" fill="#ffbc00" fill-rule="evenodd" stroke="none"/>
    <path d="M49.65 -12.6 L50.1 -12.05 Q50.7 -11.65 51.1 -12.3 51.0 -11.5 50.15 -11.5 L49.45 -11.55 49.45 -11.65 49.65 -12.6" fill="#ffbc00" fill-rule="evenodd" stroke="none"/>
    <path d="M42.7 -9.0 L43.5 -8.3 43.35 -7.75 41.1 -7.85 40.55 -8.4 42.4 -8.3 42.7 -9.0" fill="#ffbc00" fill-rule="evenodd" stroke="none"/>
    <path d="M42.9 -9.3 L43.45 -9.45 Q44.0 -9.7 43.7 -10.25 L43.95 -10.0 44.15 -9.5 43.7 -8.75 42.9 -9.3" fill="#ffbc00" fill-rule="evenodd" stroke="none"/>
    <path d="M47.75 -0.55 L48.1 -1.35 49.1 -1.35 49.45 -0.5 Q49.15 -0.85 48.4 -0.75 L47.75 -0.55" fill="#ff8500" fill-rule="evenodd" stroke="none"/>
    <path d="M52.6 -9.8 L53.25 -10.45 53.15 -10.05 Q53.15 -9.65 53.55 -9.55 L54.25 -9.5 Q54.7 -9.55 55.0 -10.3 L54.75 -9.55 Q54.4 -8.9 53.8 -8.9 L53.05 -8.95 52.9 -9.0 52.65 -9.4 52.6 -9.8" fill="#ffbc00" fill-rule="evenodd" stroke="none"/>
    <path d="M53.55 -7.9 L53.8 -8.05 54.2 -8.2 53.95 -7.75 Q53.85 -7.35 54.25 -6.95 L53.65 -7.05 53.55 -7.9" fill="#ffbc00" fill-rule="evenodd" stroke="none"/>
    <path d="M48.05 -14.25 L47.85 -13.7 Q47.7 -13.1 48.05 -12.8 L48.55 -12.4 Q49.05 -12.15 49.45 -12.8 L49.2 -11.75 47.95 -11.75 Q47.7 -12.1 47.6 -12.6 47.4 -13.6 48.05 -14.25" fill="#ffbc00" fill-rule="evenodd" stroke="none"/>
    <path d="M51.7 -11.5 L51.9 -10.95 Q52.25 -10.5 53.1 -10.7 L52.85 -10.55 52.35 -10.05 51.55 -10.75 51.7 -11.5" fill="#ffbc00" fill-rule="evenodd" stroke="none"/>
    <path d="M55.85 -4.7 Q55.0 -4.2 54.35 -4.5 L53.55 -4.9 53.55 -5.0 53.85 -6.45 54.0 -6.5 54.45 -6.5 54.35 -6.45 54.15 -5.85 54.35 -5.4 Q54.7 -4.95 55.25 -5.0 56.0 -4.95 56.5 -5.35 L55.85 -4.7" fill="#ffbc00" fill-rule="evenodd" stroke="none"/>
    <path d="M55.5 0.6 Q55.1 0.2 53.95 0.25 53.25 0.3 52.55 -0.15 51.75 -0.65 52.2 -0.55 53.5 -0.3 54.4 -0.55 55.3 -0.85 55.35 -1.55 L55.45 -1.2 55.3 -0.55 55.4 -0.05 55.5 0.6" fill="#ffbc00" fill-rule="evenodd" stroke="none"/>
    <path d="M47.7 0.3 L49.05 1.15 50.95 1.1 50.8 1.55 50.25 2.25 49.95 3.15 Q49.55 2.4 48.95 2.2 L48.35 1.75 Q47.7 1.15 47.7 0.3" fill="#ffbc00" fill-rule="evenodd" stroke="none"/>
    <path d="M42.9 -1.1 L43.1 0.25 Q43.65 1.5 45.7 0.7 L45.1 1.25 43.25 1.3 42.3 1.6 42.55 0.5 Q42.4 -0.45 42.9 -1.1" fill="#ffbc00" fill-rule="evenodd" stroke="none"/>
    <path d="M56.5 -6.75 Q55.15 -7.05 55.0 -7.45 L55.6 -7.4 Q56.2 -7.3 56.5 -6.75" fill="#fff8b3" fill-rule="evenodd" stroke="none"/>
    <path d="M53.85 -3.2 Q54.45 -3.2 54.65 -2.5 L54.1 -2.35 53.65 -3.0 53.85 -3.2" fill="#fff8b3" fill-rule="evenodd" stroke="none"/>
    <path d="M39.85 -5.35 L40.05 -5.55 40.55 -5.65 40.2 -5.15 39.85 -5.35" fill="#fff8b3" fill-rule="evenodd" stroke="none"/>
    <path d="M38.4 -4.4 L39.65 -4.4 41.3 -4.1 Q43.1 -4.0 43.35 -4.65 L43.55 -4.8 43.95 -4.1 42.35 -3.1 Q40.5 -2.4 39.35 -3.75 L38.4 -4.4" fill="#ffbc00" fill-rule="evenodd" stroke="none"/>
    <path d="M50.75 -1.15 L50.15 -0.95 49.85 -0.7 49.85 -0.8 49.65 -1.35 50.4 -1.55 50.75 -1.15 50.9 -1.1 Q51.1 -0.8 50.75 -1.15" fill="#ff8500" fill-rule="evenodd" stroke="none"/>
    <path d="M51.75 -10.4 Q53.5 -9.05 53.85 -6.9 54.15 -4.75 52.8 -3.0 51.45 -1.3 49.3 -1.05 47.1 -0.8 45.35 -2.2 43.6 -3.55 43.25 -5.7 42.95 -7.85 44.3 -9.55 45.65 -11.25 47.8 -11.5 50.0 -11.75 51.75 -10.4" fill="url(#gradient0)" fill-rule="evenodd" stroke="none"/>
    <path d="M49.85 -2.8 Q48.1 -2.65 46.7 -3.7 45.35 -4.8 45.1 -6.5 44.85 -8.2 45.9 -9.5 47.0 -10.85 48.7 -11.05 50.45 -11.25 51.85 -10.2 53.25 -9.15 53.45 -7.4 53.75 -5.7 52.65 -4.4 51.6 -3.0 49.85 -2.8" fill="#6d3100" fill-rule="evenodd" stroke="none"/>
    <path d="M50.5 -4.5 Q49.45 -4.25 48.45 -4.8 47.45 -5.35 47.1 -6.35 46.75 -7.4 47.3 -8.35 47.75 -9.3 48.85 -9.55 L50.9 -9.35 Q51.9 -8.8 52.25 -7.75 52.6 -6.7 52.1 -5.75 51.6 -4.8 50.5 -4.5" fill="url(#gradient1)" fill-rule="evenodd" stroke="none"/>
    <path d="M50.0 -4.9 L48.25 -5.1 Q47.4 -5.55 47.1 -6.45 46.8 -7.35 47.25 -8.15 47.7 -8.95 48.6 -9.2 L50.4 -9.0 Q51.25 -8.55 51.55 -7.65 51.8 -6.75 51.4 -5.95 50.95 -5.15 50.0 -4.9" fill="#4f4000" fill-rule="evenodd" stroke="none"/>
    <path d="M50.15 -5.65 L49.0 -5.8 Q48.45 -6.1 48.25 -6.65 48.05 -7.25 48.35 -7.8 L49.25 -8.45 50.4 -8.3 51.1 -7.4 Q51.3 -6.85 51.05 -6.35 50.75 -5.8 50.15 -5.65" fill="#5f6804" fill-rule="evenodd" stroke="none"/>
    <path d="M50.1 -6.5 L49.35 -6.6 Q49.05 -6.8 48.9 -7.15 48.75 -7.5 48.95 -7.9 49.15 -8.2 49.55 -8.3 L50.25 -8.2 50.75 -7.65 50.7 -6.95 50.1 -6.5" fill="#6b8400" fill-rule="evenodd" stroke="none"/>
    <path d="M44.85 -8.35 Q45.3 -9.85 46.35 -10.65 47.2 -11.3 48.25 -11.45 50.0 -11.65 51.25 -10.8 L52.2 -9.9 Q52.45 -9.45 51.95 -9.9 51.25 -10.85 49.75 -11.05 L48.35 -10.95 Q46.75 -10.7 45.9 -9.3 45.45 -8.55 45.35 -7.9 45.3 -7.3 45.0 -7.5 44.65 -7.7 44.85 -8.35" fill="#a34a00" fill-rule="evenodd" stroke="none"/>
    <path d="M43.5 -8.4 Q44.25 -9.95 45.35 -10.75 L46.35 -11.3 50.25 -11.4 Q51.15 -11.05 51.65 -10.45 49.1 -12.3 46.85 -10.95 45.75 -10.25 45.15 -9.2 L44.05 -9.1 43.5 -8.4" fill="#823800" fill-rule="evenodd" stroke="none"/>
    <path d="M45.45 -6.35 Q45.45 -5.75 45.15 -5.75 44.8 -5.75 44.8 -6.35 44.8 -7.05 45.15 -7.05 45.45 -7.05 45.45 -6.35" fill="#a34a00" fill-rule="evenodd" stroke="none"/>
    <path d="M49.35 -1.45 Q48.0 -1.25 46.4 -1.95 L45.05 -2.6 45.9 -2.35 47.15 -2.15 49.25 -2.05 Q51.1 -2.1 51.8 -2.6 L52.1 -2.7 51.85 -2.55 Q50.55 -1.65 49.35 -1.45" fill="#2b1400" fill-rule="evenodd" stroke="none"/>
    <path d="M43.1 -1.55 L43.55 -2.2 Q44.05 -2.9 44.65 -3.0 L45.55 -2.25 45.2 -2.05 45.05 -1.9 44.05 -1.95 43.1 -1.55" fill="#ff8500" fill-rule="evenodd" stroke="none"/>
    <path d="M51.75 -1.45 L51.65 -2.2 52.45 -2.9 52.9 -2.45 Q52.35 -2.75 52.0 -2.15 L51.75 -1.45" fill="#ff8500" fill-rule="evenodd" stroke="none"/>
    <path d="M41.3 -6.4 L42.65 -6.5 43.2 -6.25 43.25 -5.9 Q43.6 -5.25 43.25 -5.75 43.1 -6.05 42.2 -6.25 L41.3 -6.4" fill="#ffbc00" fill-rule="evenodd" stroke="none"/>
    <path d="M45.45 -1.55 L45.9 -2.0 46.7 -1.6 46.4 -0.5 46.35 -0.95 46.2 -1.35 45.75 -1.6 45.45 -1.55" fill="#ff8500" fill-rule="evenodd" stroke="none"/>
    <path d="M38.55 -4.45 L39.25 -4.85 Q39.85 -5.45 39.2 -6.5 38.8 -6.8 38.85 -7.2 L38.8 -6.95 38.6 -6.65 38.0 -6.15 Q37.55 -5.5 37.9 -5.0 L38.55 -4.45" fill="#ff9517" fill-rule="evenodd" stroke="none"/>
    <path d="M38.25 -4.65 Q38.4 -4.45 39.0 -5.15 39.55 -5.85 38.9 -6.7 38.8 -6.8 38.85 -7.2 L38.65 -7.05 38.3 -6.85 37.6 -6.35 Q37.1 -5.8 37.4 -5.25 L38.25 -4.65" fill="#fff016" fill-rule="evenodd" stroke="none"/>
    <path d="M38.3 -6.6 L38.0 -6.35 38.05 -6.2 38.6 -6.55 38.45 -6.65 38.3 -6.6" fill="#fff8b3" fill-rule="evenodd" stroke="none"/>
    <path d="M38.0 -4.95 L38.25 -5.85 38.0 -5.6 37.8 -5.15 38.0 -4.95" fill="#ff8500" fill-rule="evenodd" stroke="none"/>
    <path d="M39.0 -3.05 L40.0 -2.95 Q41.0 -3.15 41.05 -4.35 40.9 -4.85 41.15 -5.15 40.8 -4.75 40.65 -4.85 L39.85 -4.7 Q39.15 -4.45 39.1 -3.8 L39.0 -3.05" fill="#ff9517" fill-rule="evenodd" stroke="none"/>
    <path d="M39.25 -3.3 L40.15 -3.35 Q41.0 -3.65 40.9 -4.7 L41.15 -5.15 40.5 -5.15 39.55 -5.0 Q38.75 -4.7 38.7 -4.1 L39.25 -3.3" fill="#fff016" fill-rule="evenodd" stroke="none"/>
    <path d="M40.35 -4.95 L39.95 -4.9 39.9 -4.75 40.55 -4.75 40.45 -4.9 40.35 -4.95" fill="#fff8b3" fill-rule="evenodd" stroke="none"/>
    <path d="M39.1 -3.65 L39.45 -4.0 39.85 -4.3 39.45 -4.2 39.0 -3.8 39.1 -3.65" fill="#ff8500" fill-rule="evenodd" stroke="none"/>
    <path d="M38.65 -1.7 L39.4 -0.8 Q40.35 -0.1 41.2 -1.05 41.35 -1.5 41.75 -1.6 L41.25 -2.2 40.2 -2.85 Q39.35 -3.05 38.95 -2.55 L38.65 -1.7" fill="#ff9517" fill-rule="evenodd" stroke="none"/>
    <path d="M38.8 -1.5 Q38.65 -1.3 39.65 -0.9 40.7 -0.5 41.25 -1.35 L41.75 -1.6 41.25 -2.0 40.4 -2.55 39.1 -2.45 38.8 -1.5" fill="#fff016" fill-rule="evenodd" stroke="none"/>
    <path d="M39.1 -1.8 L40.25 -1.7 39.8 -1.95 39.15 -2.0 39.1 -1.8" fill="#ff8500" fill-rule="evenodd" stroke="none"/>
    <path d="M37.35 -0.55 L37.35 0.65 Q37.65 1.8 38.85 1.6 L39.1 1.5 39.65 1.55 39.65 0.7 Q39.7 0.15 39.25 -0.45 38.75 -1.1 38.15 -1.05 L37.35 -0.55" fill="#ff9517" fill-rule="evenodd" stroke="none"/>
    <path d="M37.35 -0.35 Q37.15 -0.2 37.6 0.7 38.15 1.65 39.15 1.4 L39.25 1.4 Q39.4 1.4 39.65 1.55 L39.55 0.9 39.25 -0.05 Q38.8 -0.95 38.2 -0.85 L37.35 -0.35" fill="#ffe600" fill-rule="evenodd" stroke="none"/>
    <path d="M37.75 -0.35 L38.15 0.0 38.6 0.45 38.4 0.0 37.95 -0.45 37.75 -0.35" fill="#ff8500" fill-rule="evenodd" stroke="none"/>
    <path d="M36.05 -7.0 L35.6 -6.35 Q35.35 -5.6 35.8 -5.2 L36.6 -4.85 36.85 -5.0 37.2 -5.45 Q37.55 -6.2 36.65 -7.0 36.25 -7.2 36.15 -7.6 L36.15 -7.35 36.05 -7.0" fill="#ff9517" fill-rule="evenodd" stroke="none"/>
    <path d="M36.3 -4.95 L36.85 -5.65 Q37.15 -6.5 36.35 -7.1 L36.15 -7.6 36.0 -7.4 35.75 -7.1 35.2 -6.45 Q34.85 -5.75 35.3 -5.3 L36.3 -4.95" fill="#fff016" fill-rule="evenodd" stroke="none"/>
    <path d="M35.8 -6.9 Q35.5 -6.7 35.55 -6.5 L35.65 -6.35 36.05 -6.9 35.9 -6.95 35.8 -6.9" fill="#fff8b3" fill-rule="evenodd" stroke="none"/>
    <path d="M36.1 -5.25 L35.95 -6.05 35.85 -5.8 35.95 -5.35 36.1 -5.25" fill="#ff8500" fill-rule="evenodd" stroke="none"/>
    <path d="M36.85 -0.2 L36.0 -0.05 Q35.15 0.4 35.75 1.75 L35.8 2.1 35.7 2.35 Q35.8 2.15 36.1 2.0 L36.35 1.9 Q37.45 1.35 37.25 0.5 L36.85 -0.2" fill="#ff9517" fill-rule="evenodd" stroke="none"/>
    <path d="M36.5 -0.2 L35.45 -0.05 Q34.6 0.35 35.4 1.75 L35.6 2.1 35.7 2.35 35.9 2.0 36.0 1.95 Q37.0 1.55 36.85 0.65 36.75 -0.2 36.5 -0.2" fill="#ffe600" fill-rule="evenodd" stroke="none"/>
    <path d="M36.1 0.0 L35.85 0.0 Q35.55 0.2 35.9 0.85 L36.0 0.35 36.1 0.0" fill="#ff8500" fill-rule="evenodd" stroke="none"/>
    <path d="M35.1 -0.55 L34.3 -0.9 Q33.7 -0.95 33.35 -0.25 33.05 0.3 33.15 0.55 L32.8 1.0 33.3 0.9 33.6 0.95 Q34.8 1.05 35.1 0.25 L35.15 -0.3 35.1 -0.55" fill="#ff9517" fill-rule="evenodd" stroke="none"/>
    <path d="M32.85 0.35 L32.8 1.0 Q33.0 0.85 33.15 0.8 L33.25 0.8 Q34.3 1.0 34.7 0.15 35.05 -0.65 34.8 -0.7 L33.85 -1.2 Q32.9 -1.25 32.85 0.35" fill="#ffe600" fill-rule="evenodd" stroke="none"/>
    <path d="M34.4 -0.8 L34.15 -0.9 Q33.8 -0.9 33.75 -0.15 L34.1 -0.5 34.4 -0.8" fill="#ff8500" fill-rule="evenodd" stroke="none"/>
    <path d="M32.9 -2.95 Q32.35 -2.7 32.25 -2.5 32.2 -2.35 31.65 -2.35 L32.15 -2.1 32.3 -1.85 Q33.15 -1.0 33.9 -1.45 34.6 -1.85 34.45 -2.1 L34.05 -2.85 32.9 -2.95" fill="#ff9517" fill-rule="evenodd" stroke="none"/>
    <path d="M32.75 -3.35 L32.1 -2.8 31.65 -2.35 32.05 -2.25 32.15 -2.2 Q32.8 -1.4 33.65 -1.8 34.45 -2.15 34.3 -2.4 L33.9 -3.35 Q33.45 -3.75 32.75 -3.35" fill="#fff016" fill-rule="evenodd" stroke="none"/>
    <path d="M34.05 -2.7 L33.95 -2.95 33.45 -2.85 33.15 -2.65 33.65 -2.7 34.05 -2.7" fill="#ff8500" fill-rule="evenodd" stroke="none"/>
    <path d="M35.05 -4.2 Q35.3 -4.25 35.25 -5.0 35.2 -5.85 34.0 -6.05 33.5 -6.0 33.2 -6.3 L33.35 -6.05 33.45 -5.75 Q33.3 -5.55 33.45 -4.95 33.6 -4.2 34.2 -4.1 L35.05 -4.2" fill="#ff9517" fill-rule="evenodd" stroke="none"/>
    <path d="M34.75 -4.15 Q34.95 -4.15 34.8 -5.0 34.65 -5.9 33.65 -6.0 L33.2 -6.3 33.2 -6.05 33.1 -5.7 Q32.75 -4.1 33.7 -3.9 L34.75 -4.15" fill="#fff016" fill-rule="evenodd" stroke="none"/>
    <path d="M33.3 -5.5 Q33.15 -5.2 33.3 -5.05 L33.45 -5.0 33.55 -5.65 33.3 -5.5" fill="#fff8b3" fill-rule="evenodd" stroke="none"/>
    <path d="M34.55 -4.45 L34.25 -4.7 33.85 -4.95 34.4 -4.3 34.55 -4.45" fill="#ff8500" fill-rule="evenodd" stroke="none"/>
    <path d="M39.2 -5.6 Q38.75 -5.2 38.5 -5.25 38.15 -5.4 38.2 -5.75 L38.1 -5.35 38.05 -4.75 38.25 -4.65 38.7 -4.9 39.2 -5.6" fill="#ffbc00" fill-rule="evenodd" stroke="none"/>
    <path d="M38.25 -5.85 L37.8 -5.7 Q37.35 -5.65 37.4 -6.0 L37.3 -5.7 37.4 -5.25 Q37.75 -4.95 37.75 -5.1 L38.05 -5.65 38.25 -5.85" fill="#ffbc00" fill-rule="evenodd" stroke="none"/>
    <path d="M35.85 -5.85 L35.6 -5.55 Q35.3 -5.35 35.1 -5.7 35.15 -5.25 35.55 -5.25 L35.95 -5.3 35.95 -5.35 35.85 -5.85" fill="#ffbc00" fill-rule="evenodd" stroke="none"/>
    <path d="M39.45 -3.95 L39.05 -3.6 39.1 -3.3 40.25 -3.35 40.55 -3.65 39.6 -3.6 39.45 -3.95" fill="#ffbc00" fill-rule="evenodd" stroke="none"/>
    <path d="M39.35 -4.15 L39.05 -4.2 Q38.75 -4.35 38.95 -4.65 L38.8 -4.5 38.7 -4.2 38.95 -3.85 39.35 -4.15" fill="#ffbc00" fill-rule="evenodd" stroke="none"/>
    <path d="M36.8 0.4 L36.65 0.0 36.1 0.0 35.95 0.45 36.5 0.3 36.8 0.4" fill="#ff8500" fill-rule="evenodd" stroke="none"/>
    <path d="M34.3 -4.4 L33.95 -4.75 34.0 -4.55 33.8 -4.25 33.45 -4.2 Q33.2 -4.25 33.05 -4.65 L33.2 -4.25 Q33.35 -3.9 33.7 -3.9 L34.05 -3.95 34.15 -4.0 34.25 -4.2 34.3 -4.4" fill="#ffbc00" fill-rule="evenodd" stroke="none"/>
    <path d="M33.8 -3.4 L33.7 -3.5 33.5 -3.55 33.6 -3.3 33.45 -2.9 33.75 -2.95 33.8 -3.4" fill="#ffbc00" fill-rule="evenodd" stroke="none"/>
    <path d="M36.65 -6.7 L36.8 -6.4 36.65 -5.95 36.4 -5.75 Q36.15 -5.6 35.95 -5.95 L36.05 -5.4 36.7 -5.4 36.9 -5.85 Q37.0 -6.35 36.65 -6.7" fill="#ffbc00" fill-rule="evenodd" stroke="none"/>
    <path d="M34.75 -5.25 L34.65 -5.0 Q34.5 -4.75 34.05 -4.85 L34.15 -4.75 34.45 -4.55 34.85 -4.9 34.75 -5.25" fill="#ffbc00" fill-rule="evenodd" stroke="none"/>
    <path d="M32.6 -1.75 L33.4 -1.6 33.8 -1.85 33.8 -1.9 33.65 -2.65 33.6 -2.65 33.35 -2.65 33.4 -2.65 33.5 -2.35 33.4 -2.1 Q33.2 -1.85 32.95 -1.9 L32.25 -2.05 32.6 -1.75" fill="#ffbc00" fill-rule="evenodd" stroke="none"/>
    <path d="M32.8 1.0 L33.6 0.85 34.35 0.65 34.55 0.4 33.35 0.4 Q32.9 0.25 32.9 -0.1 L32.8 0.1 32.9 0.4 32.85 0.7 32.8 1.0" fill="#ffbc00" fill-rule="evenodd" stroke="none"/>
    <path d="M36.85 0.85 L36.15 1.3 Q35.4 1.65 35.15 1.3 L35.25 1.5 35.5 1.9 35.7 2.35 Q35.9 1.95 36.2 1.85 L36.5 1.65 36.85 0.85" fill="#ffbc00" fill-rule="evenodd" stroke="none"/>
    <path d="M39.35 0.15 L39.25 0.85 Q38.95 1.45 37.9 1.1 L38.2 1.35 39.15 1.4 39.65 1.55 39.55 0.95 39.35 0.15" fill="#ffbc00" fill-rule="evenodd" stroke="none"/>
    <path d="M32.25 -2.8 Q33.0 -2.95 33.05 -3.15 L32.75 -3.15 32.25 -2.8" fill="#fff8b3" fill-rule="evenodd" stroke="none"/>
    <path d="M33.65 -0.95 Q33.35 -0.95 33.25 -0.6 L33.55 -0.5 33.75 -0.85 33.65 -0.95" fill="#fff8b3" fill-rule="evenodd" stroke="none"/>
    <path d="M40.95 -2.05 L40.8 -2.15 40.55 -2.2 40.75 -2.0 40.95 -2.05" fill="#fff8b3" fill-rule="evenodd" stroke="none"/>
    <path d="M41.7 -1.55 L41.05 -1.55 40.15 -1.45 Q39.25 -1.4 39.1 -1.7 L39.0 -1.8 38.8 -1.45 Q39.15 -1.1 39.65 -0.9 40.6 -0.55 41.2 -1.25 L41.7 -1.55" fill="#ffbc00" fill-rule="evenodd" stroke="none"/>
    <path d="M35.25 0.1 L35.55 0.2 35.75 0.35 35.75 0.3 35.85 0.0 35.45 -0.1 35.25 0.1 35.2 0.15 35.25 0.1" fill="#ff8500" fill-rule="evenodd" stroke="none"/>
    <path d="M34.7 -4.65 Q33.75 -3.9 33.6 -2.8 33.45 -1.7 34.15 -0.8 34.85 0.1 36.0 0.2 37.1 0.35 38.0 -0.35 38.95 -1.05 39.1 -2.2 39.25 -3.3 38.55 -4.2 37.85 -5.05 36.75 -5.2 35.6 -5.35 34.7 -4.65" fill="url(#gradient2)" fill-rule="evenodd" stroke="none"/>
    <path d="M35.75 -0.75 Q36.65 -0.7 37.35 -1.25 38.1 -1.8 38.2 -2.65 38.3 -3.55 37.75 -4.25 37.2 -4.95 36.35 -5.05 35.4 -5.15 34.7 -4.6 34.0 -4.05 33.85 -3.15 33.7 -2.25 34.25 -1.55 34.8 -0.85 35.75 -0.75" fill="#6d3100" fill-rule="evenodd" stroke="none"/>
    <path d="M35.4 -1.65 L36.45 -1.8 Q37.0 -2.05 37.15 -2.6 37.35 -3.15 37.05 -3.65 36.8 -4.15 36.25 -4.25 L35.2 -4.15 Q34.65 -3.85 34.45 -3.3 34.3 -2.75 34.55 -2.25 34.85 -1.8 35.4 -1.65" fill="url(#gradient3)" fill-rule="evenodd" stroke="none"/>
    <path d="M35.65 -1.85 L36.55 -1.95 37.15 -2.65 Q37.3 -3.1 37.1 -3.55 L36.4 -4.1 35.45 -4.0 34.85 -3.25 Q34.7 -2.8 34.95 -2.4 35.15 -1.95 35.65 -1.85" fill="#4f4000" fill-rule="evenodd" stroke="none"/>
    <path d="M35.55 -2.25 L36.2 -2.3 36.55 -2.75 36.5 -3.35 36.05 -3.7 35.45 -3.6 Q35.2 -3.45 35.1 -3.15 34.95 -2.85 35.1 -2.6 35.25 -2.3 35.55 -2.25" fill="#5f6804" fill-rule="evenodd" stroke="none"/>
    <path d="M35.6 -2.65 L36.0 -2.7 36.25 -3.0 36.2 -3.4 35.9 -3.6 35.5 -3.55 35.25 -3.25 Q35.2 -3.1 35.3 -2.9 L35.6 -2.65" fill="#6b8400" fill-rule="evenodd" stroke="none"/>
    <path d="M38.3 -3.65 L37.55 -4.85 36.55 -5.25 Q35.65 -5.35 35.0 -4.9 L34.55 -4.45 Q34.4 -4.2 34.65 -4.45 35.0 -4.95 35.8 -5.0 L36.5 -5.0 Q37.35 -4.85 37.8 -4.1 L38.05 -3.4 Q38.1 -3.1 38.25 -3.2 38.45 -3.3 38.3 -3.65" fill="#a34a00" fill-rule="evenodd" stroke="none"/>
    <path d="M39.05 -3.65 L38.05 -4.9 37.55 -5.15 35.5 -5.2 34.8 -4.75 Q36.1 -5.7 37.3 -4.95 L38.2 -4.1 38.75 -4.0 39.05 -3.65" fill="#823800" fill-rule="evenodd" stroke="none"/>
    <path d="M38.0 -2.6 Q38.0 -2.25 38.2 -2.25 L38.35 -2.6 38.2 -2.95 38.0 -2.6" fill="#a34a00" fill-rule="evenodd" stroke="none"/>
    <path d="M36.0 -0.05 L37.5 -0.3 38.2 -0.65 37.75 -0.5 37.15 -0.4 36.05 -0.35 34.75 -0.65 34.6 -0.7 34.7 -0.6 Q35.35 -0.15 36.0 -0.05" fill="#2b1400" fill-rule="evenodd" stroke="none"/>
    <path d="M39.25 -0.1 L39.0 -0.45 38.45 -0.85 37.95 -0.45 38.15 -0.35 38.25 -0.3 38.75 -0.3 39.25 -0.1" fill="#ff8500" fill-rule="evenodd" stroke="none"/>
    <path d="M34.75 -0.05 L34.8 -0.45 34.35 -0.8 34.15 -0.55 Q34.45 -0.75 34.65 -0.4 L34.75 -0.05" fill="#ff8500" fill-rule="evenodd" stroke="none"/>
    <path d="M40.2 -2.6 L39.5 -2.65 39.2 -2.55 39.15 -2.35 Q39.0 -2.0 39.15 -2.25 39.25 -2.45 39.7 -2.55 L40.2 -2.6" fill="#ffbc00" fill-rule="evenodd" stroke="none"/>
    <path d="M38.05 -0.1 L37.75 -0.35 37.35 -0.15 37.5 0.45 37.55 0.2 37.6 0.0 37.85 -0.15 38.05 -0.1" fill="#ff8500" fill-rule="evenodd" stroke="none"/>
    <path d="M36.55 -0.65 L36.9 -1.25 Q36.95 -1.45 37.35 -1.45 39.2 -1.45 40.95 2.1 42.45 5.15 42.35 6.45 L42.35 7.15 41.25 7.05 Q40.95 3.9 39.95 2.45 38.0 -0.65 36.7 -0.65 L36.55 -0.65 M46.35 -3.35 L46.35 -3.75 46.9 -3.4 47.25 -2.85 46.15 -0.7 44.95 1.55 43.65 6.85 43.15 6.85 42.95 6.75 42.95 6.25 44.35 1.6 Q45.3 -1.55 46.35 -3.35" fill="#3c1e00" fill-rule="evenodd" stroke="none"/>
    <path d="M44.1 2.95 L44.6 1.95 Q45.5 1.05 46.95 2.25 L47.4 2.4 47.75 2.35 47.2 2.8 47.0 3.05 Q45.9 4.25 44.9 3.75 44.0 3.3 44.1 2.95" fill="#2b5701" fill-rule="evenodd" stroke="none"/>
    <path d="M44.25 2.55 L44.75 1.25 Q45.6 0.35 47.15 1.85 L47.45 2.15 47.75 2.35 47.25 2.55 47.15 2.6 Q46.3 3.75 45.2 3.25 44.2 2.85 44.25 2.55" fill="#578327" fill-rule="evenodd" stroke="none"/>
    <path d="M44.65 2.1 L44.75 1.8 Q45.05 1.45 45.75 2.15 L45.15 2.1 44.65 2.1" fill="#2b5701" fill-rule="evenodd" stroke="none"/>
    <path d="M44.85 3.15 L44.35 2.8 44.55 2.15 45.2 2.05 Q44.9 2.2 44.8 2.7 L44.85 3.15" fill="#2b5701" fill-rule="evenodd" stroke="none"/>
    <path d="M45.4 3.35 L46.2 2.6 Q46.9 1.75 46.45 1.35 L46.75 1.5 47.15 2.0 47.7 2.4 Q47.15 2.45 46.85 2.85 L46.45 3.2 45.4 3.35" fill="#73b123" fill-rule="evenodd" stroke="none"/>
    <path d="M45.1 1.3 L45.15 1.7 45.2 1.95 45.15 1.95 44.8 2.0 44.85 1.4 45.1 1.3 45.15 1.2 Q45.4 1.1 45.1 1.3" fill="#2b5701" fill-rule="evenodd" stroke="none"/>
    <path d="M39.9 1.6 L40.15 2.3 Q40.2 3.15 38.9 3.3 38.75 3.25 38.6 3.45 L38.4 3.6 38.55 3.15 38.5 2.9 Q38.45 1.8 39.2 1.55 L39.9 1.6" fill="#2b5701" fill-rule="evenodd" stroke="none"/>
    <path d="M40.0 1.85 L40.45 2.7 Q40.45 3.55 39.0 3.6 L38.65 3.6 38.4 3.6 38.6 3.3 38.65 3.2 Q38.5 2.25 39.25 1.95 L40.0 1.85" fill="#578327" fill-rule="evenodd" stroke="none"/>
    <path d="M40.1 2.25 L40.15 2.45 Q40.2 2.75 39.5 2.8 L39.85 2.5 40.1 2.25" fill="#2b5701" fill-rule="evenodd" stroke="none"/>
    <path d="M39.45 1.85 L39.85 1.75 40.1 2.15 39.85 2.5 39.7 2.05 39.45 1.85" fill="#2b5701" fill-rule="evenodd" stroke="none"/>
    <path d="M39.1 2.0 L39.1 2.75 Q39.15 3.5 39.55 3.5 L39.3 3.55 38.9 3.5 38.45 3.55 38.6 2.95 38.7 2.6 39.1 2.0" fill="#73b123" fill-rule="evenodd" stroke="none"/>
    <path d="M40.1 2.9 L39.9 2.7 39.7 2.6 39.95 2.4 40.15 2.7 40.1 2.9 40.1 3.0 40.1 2.9" fill="#2b5701" fill-rule="evenodd" stroke="none"/>
    <path d="M45.15 1.05 L44.6 1.6 Q43.9 2.05 43.1 1.0 L42.85 0.8 42.65 0.8 Q42.85 0.8 43.05 0.6 L43.25 0.45 44.7 0.35 45.15 1.05" fill="#2b5701" fill-rule="evenodd" stroke="none"/>
    <path d="M44.95 1.25 L44.35 2.05 Q43.65 2.5 42.95 1.25 L42.8 0.95 42.65 0.8 43.0 0.75 43.05 0.75 44.45 0.65 44.95 1.25" fill="#578327" fill-rule="evenodd" stroke="none"/>
    <path d="M44.6 1.5 L44.5 1.7 Q44.2 1.8 43.85 1.25 43.9 1.35 44.25 1.45 L44.6 1.5" fill="#2b5701" fill-rule="evenodd" stroke="none"/>
    <path d="M44.65 0.75 L44.9 1.1 44.7 1.5 44.25 1.45 44.6 1.05 44.65 0.75" fill="#2b5701" fill-rule="evenodd" stroke="none"/>
    <path d="M44.35 0.55 L43.65 0.95 Q43.1 1.3 43.3 1.7 L43.1 1.55 42.95 1.1 42.65 0.8 43.3 0.65 Q43.4 0.5 43.6 0.5 L44.35 0.55" fill="#73b123" fill-rule="evenodd" stroke="none"/>
    <path d="M44.1 1.9 L44.15 1.6 44.15 1.45 44.2 1.5 44.5 1.5 44.35 1.9 44.1 1.9 44.1 1.95 Q43.9 2.0 44.1 1.9" fill="#2b5701" fill-rule="evenodd" stroke="none"/>
  </g>
  <defs>
    <linearGradient gradientTransform="matrix(-3.0E-4, 0.0039, 0.0039, 3.0E-4, 48.5, -5.35)" gradientUnits="userSpaceOnUse" id="gradient0" spreadMethod="pad" x1="-819.2" x2="819.2">
      <stop offset="0.0" stop-color="#592e00"/>
      <stop offset="1.0" stop-color="#3b1e00"/>
    </linearGradient>
    <linearGradient gradientTransform="matrix(-2.0E-4, -7.0E-4, -7.0E-4, 2.0E-4, 49.95, -5.85)" gradientUnits="userSpaceOnUse" id="gradient1" spreadMethod="pad" x1="-819.2" x2="819.2">
      <stop offset="0.0" stop-color="#592e00"/>
      <stop offset="1.0" stop-color="#3b1e00"/>
    </linearGradient>
    <linearGradient gradientTransform="matrix(2.0E-4, 0.002, -0.002, 2.0E-4, 36.4, -2.0)" gradientUnits="userSpaceOnUse" id="gradient2" spreadMethod="pad" x1="-819.2" x2="819.2">
      <stop offset="0.0" stop-color="#592e00"/>
      <stop offset="1.0" stop-color="#3b1e00"/>
    </linearGradient>
    <linearGradient gradientTransform="matrix(1.0E-4, -4.0E-4, 4.0E-4, 1.0E-4, 35.7, -2.35)" gradientUnits="userSpaceOnUse" id="gradient3" spreadMethod="pad" x1="-819.2" x2="819.2">
      <stop offset="0.0" stop-color="#592e00"/>
      <stop offset="1.0" stop-color="#3b1e00"/>
    </linearGradient>
  </defs>
</svg>
