<?xml version="1.0" encoding="UTF-8" standalone="no"?>
<svg xmlns:xlink="http://www.w3.org/1999/xlink" height="9.7px" width="6.7px" xmlns="http://www.w3.org/2000/svg">
  <g transform="matrix(1.0, 0.0, 0.0, 1.0, 3.5, 9.95)">
    <path d="M1.3 -9.85 L2.3 -9.85 2.95 -9.35 Q3.15 -9.0 2.95 -8.65 L1.3 -5.65 2.4 -3.8 3.1 -3.3 Q3.3 -2.95 3.1 -2.6 L1.8 -0.25 1.6 -0.25 2.85 -2.55 Q3.05 -2.9 2.85 -3.25 L2.15 -3.75 1.05 -5.6 2.7 -8.6 Q2.9 -8.95 2.7 -9.3 L2.05 -9.8 1.3 -9.85 M-0.15 -0.25 L-1.9 -0.25 -3.25 -2.45 Q-3.45 -2.8 -3.25 -3.15 L-2.65 -3.7 -1.55 -5.6 -3.4 -8.5 Q-3.6 -8.85 -3.4 -9.2 L-2.75 -9.75 -1.75 -9.8 Q-1.25 -9.65 -1.05 -9.3 L-0.3 -8.1 -0.2 -3.0 -0.35 -2.75 -0.5 -2.55 -0.2 -2.0 -0.15 -0.25" fill="#0c100f" fill-rule="evenodd" stroke="none"/>
    <path d="M-0.3 -8.1 L0.35 -9.3 1.05 -9.8 1.3 -9.85 2.05 -9.8 2.7 -9.3 Q2.9 -8.95 2.7 -8.6 L1.05 -5.6 2.15 -3.75 2.85 -3.25 Q3.05 -2.9 2.85 -2.55 L1.6 -0.25 -0.15 -0.25 -0.2 -2.0 0.1 -2.5 -0.05 -2.7 -0.2 -2.95 -0.2 -3.0 -0.3 -8.1" fill="#4f5b56" fill-rule="evenodd" stroke="none"/>
  </g>
</svg>
