<?xml version="1.0" encoding="UTF-8" standalone="no"?>
<svg xmlns:xlink="http://www.w3.org/1999/xlink" height="34.85px" width="27.6px" xmlns="http://www.w3.org/2000/svg">
  <g transform="matrix(1.0, 0.0, 0.0, 1.0, 14.75, 35.1)">
    <path d="M-0.3 -8.1 L-0.2 -3.0 -0.35 -2.75 -0.5 -2.55 -0.2 -2.0 -0.15 -0.25 -1.9 -0.25 -3.25 -2.45 Q-3.45 -2.8 -3.25 -3.15 L-2.65 -3.7 -1.55 -5.6 -3.4 -8.5 Q-3.6 -8.85 -3.4 -9.2 L-2.75 -9.75 -1.75 -9.8 Q-1.25 -9.65 -1.05 -9.3 L-0.3 -8.1 M1.6 -0.25 L2.85 -2.55 Q3.05 -2.9 2.85 -3.25 L2.15 -3.75 1.05 -5.6 2.7 -8.6 Q2.9 -8.95 2.7 -9.3 L2.05 -9.8 1.3 -9.85 2.3 -9.85 2.95 -9.35 Q3.15 -9.0 2.95 -8.65 L1.3 -5.65 2.4 -3.8 3.1 -3.3 Q3.3 -2.95 3.1 -2.6 L1.8 -0.25 1.6 -0.25" fill="#0c100f" fill-rule="evenodd" stroke="none"/>
    <path d="M-0.3 -8.1 L0.35 -9.3 1.05 -9.8 1.3 -9.85 2.05 -9.8 2.7 -9.3 Q2.9 -8.95 2.7 -8.6 L1.05 -5.6 2.15 -3.75 2.85 -3.25 Q3.05 -2.9 2.85 -2.55 L1.6 -0.25 -0.15 -0.25 -0.2 -2.0 0.1 -2.5 -0.05 -2.7 -0.2 -2.95 -0.2 -3.0 -0.3 -8.1" fill="#4f5b56" fill-rule="evenodd" stroke="none"/>
    <path d="M-10.6 -13.5 L-12.05 -13.65 -7.55 -13.5 -11.25 -15.9 -7.65 -15.2 -9.85 -18.25 -6.75 -16.8 -8.05 -19.7 -4.05 -15.5 -4.85 -21.25 0.1 -11.3 -3.75 -17.35 -2.75 -12.85 -6.9 -18.3 -4.4 -13.95 -8.15 -16.8 -5.7 -14.2 -9.15 -14.85 -4.6 -12.75 -10.6 -13.5" fill="#ff6600" fill-rule="evenodd" stroke="none"/>
    <path d="M0.1 -11.3 L-4.85 -21.25 -4.05 -15.5 -8.05 -19.7 -6.75 -16.8 -9.85 -18.25 -7.65 -15.2 -11.25 -15.9 -7.55 -13.5 -12.05 -13.65 -10.6 -13.5 -14.75 -13.8 -10.5 -14.4 -13.3 -17.4 -8.7 -15.85 -13.2 -20.8 -8.2 -18.1 -13.05 -26.5 -5.25 -18.25 -5.8 -25.6 Q-4.15 -20.75 0.1 -11.3" fill="#ff9900" fill-rule="evenodd" stroke="none"/>
    <path d="M-6.35 -15.4 L0.05 -28.35 -1.0 -20.85 4.2 -26.3 2.5 -22.55 6.5 -24.4 3.7 -20.45 8.35 -21.4 3.55 -18.3 9.4 -18.5 3.95 -18.0 -0.25 -17.3 5.65 -20.05 1.15 -19.2 4.35 -22.55 -0.55 -18.85 2.7 -24.5 -2.65 -17.45 -1.4 -23.25 -6.35 -15.4" fill="#ff6600" fill-rule="evenodd" stroke="none"/>
    <path d="M3.95 -18.0 L9.4 -18.5 3.55 -18.3 8.35 -21.4 3.7 -20.45 6.5 -24.4 2.5 -22.55 4.2 -26.3 -1.0 -20.85 0.05 -28.35 -6.35 -15.4 Q-0.85 -27.65 1.25 -33.95 L0.55 -24.4 10.7 -35.1 4.4 -24.25 10.85 -27.75 5.05 -21.3 11.0 -23.35 7.35 -19.45 12.85 -18.65 3.95 -18.0" fill="#ff9900" fill-rule="evenodd" stroke="none"/>
  </g>
</svg>
