<?xml version="1.0" encoding="UTF-8" standalone="no"?>
<svg xmlns:xlink="http://www.w3.org/1999/xlink" height="39.7px" width="39.95px" xmlns="http://www.w3.org/2000/svg">
  <g transform="matrix(1.0, 0.0, 0.0, 1.0, 19.3, 39.95)">
    <path d="M1.3 -9.85 L2.3 -9.85 2.95 -9.35 Q3.15 -9.0 2.95 -8.65 L1.3 -5.65 2.4 -3.8 3.1 -3.3 Q3.3 -2.95 3.1 -2.6 L1.8 -0.25 1.6 -0.25 2.85 -2.55 Q3.05 -2.9 2.85 -3.25 L2.15 -3.75 1.05 -5.6 2.7 -8.6 Q2.9 -8.95 2.7 -9.3 L2.05 -9.8 1.3 -9.85 M-0.15 -0.25 L-1.9 -0.25 -3.25 -2.45 Q-3.45 -2.8 -3.25 -3.15 L-2.65 -3.7 -1.55 -5.6 -3.4 -8.5 Q-3.6 -8.85 -3.4 -9.2 L-2.75 -9.75 -1.75 -9.8 Q-1.25 -9.65 -1.05 -9.3 L-0.3 -8.1 -0.2 -3.0 -0.35 -2.75 -0.5 -2.55 -0.2 -2.0 -0.15 -0.25" fill="#0c100f" fill-rule="evenodd" stroke="none"/>
    <path d="M1.6 -0.25 L-0.15 -0.25 -0.2 -2.0 0.1 -2.5 -0.05 -2.7 -0.2 -2.95 -0.2 -3.0 -0.3 -8.1 0.35 -9.3 1.05 -9.8 1.3 -9.85 2.05 -9.8 2.7 -9.3 Q2.9 -8.95 2.7 -8.6 L1.05 -5.6 2.15 -3.75 2.85 -3.25 Q3.05 -2.9 2.85 -2.55 L1.6 -0.25" fill="#4f5b56" fill-rule="evenodd" stroke="none"/>
    <path d="M2.3 -14.85 L-4.55 -21.1 -1.8 -15.85 -8.85 -21.25 -4.25 -16.6 -9.9 -18.95 -5.95 -16.55 -10.5 -16.2 -4.1 -15.05 -11.85 -14.0 -13.75 -13.7 -8.05 -15.0 -13.5 -16.8 -8.75 -17.15 -12.5 -20.2 -8.15 -19.45 -10.75 -22.6 -4.3 -18.7 -7.25 -25.6 2.3 -14.85" fill="#ff6600" fill-rule="evenodd" stroke="none"/>
    <path d="M2.3 -14.85 L-7.25 -25.6 -4.3 -18.7 -10.75 -22.6 -8.15 -19.45 -12.5 -20.2 -8.75 -17.15 -13.5 -16.8 -8.05 -15.0 -13.75 -13.7 -11.85 -14.0 -17.15 -13.0 -12.05 -15.2 -16.55 -18.0 -10.25 -17.6 -17.55 -22.25 -10.35 -20.55 -19.3 -29.45 -6.7 -21.75 -9.9 -30.75 Q-6.2 -25.25 2.3 -14.85" fill="#ff9900" fill-rule="evenodd" stroke="none"/>
    <path d="M-7.25 -13.2 Q4.1 -29.8 9.1 -38.6 L4.45 -24.55 20.65 -37.4 8.9 -23.05 17.9 -26.3 8.45 -18.45 16.3 -19.65 10.4 -14.95 16.55 -12.0 5.9 -13.85 12.5 -12.9 5.5 -14.45 12.4 -17.6 6.55 -17.6 11.45 -22.65 6.0 -21.1 9.5 -26.25 1.25 -19.65 5.45 -30.6 -7.25 -13.2" fill="#ff9900" fill-rule="evenodd" stroke="none"/>
    <path d="M5.9 -13.85 L0.65 -14.15 8.7 -16.35 3.05 -16.55 8.15 -20.55 0.95 -16.5 7.0 -24.0 -2.1 -15.1 1.7 -23.4 -7.25 -13.2 5.45 -30.6 1.25 -19.65 9.5 -26.25 6.0 -21.1 11.45 -22.65 6.55 -17.6 12.4 -17.6 5.5 -14.45 12.5 -12.9 5.9 -13.85" fill="#ff6600" fill-rule="evenodd" stroke="none"/>
    <path d="M-13.7 -21.05 L-16.75 -22.45 -7.4 -19.55 -12.95 -32.2 -5.25 -24.4 -6.0 -34.75 -0.65 -27.25 0.75 -39.95 4.05 -29.0 10.1 -36.05 6.4 -22.0 6.85 -30.15 3.7 -26.6 0.85 -33.7 -0.25 -24.45 -4.15 -29.65 -4.7 -22.55 -9.8 -27.5 -5.85 -18.25 -13.7 -21.05" fill="#ff9900" fill-rule="evenodd" stroke="none"/>
    <path d="M-13.7 -21.05 L-5.85 -18.25 -9.8 -27.5 -4.7 -22.55 -4.15 -29.65 -0.25 -24.45 0.85 -33.7 3.7 -26.6 6.85 -30.15 6.4 -22.0 5.85 -27.2 3.1 -22.9 1.15 -27.85 0.4 -20.65 -3.1 -27.2 -3.55 -19.75 -6.9 -23.35 -3.85 -16.45 -13.7 -21.05" fill="#ff6600" fill-rule="evenodd" stroke="none"/>
  </g>
</svg>
