<?xml version="1.0" encoding="UTF-8" standalone="no"?>
<svg xmlns:xlink="http://www.w3.org/1999/xlink" height="72.3px" width="75.35px" xmlns="http://www.w3.org/2000/svg">
  <g transform="matrix(1.0, 0.0, 0.0, 1.0, 3.95, 3.05)">
    <path d="M63.25 59.2 Q62.9 59.2 62.9 59.5 L62.3 62.25 62.3 62.55 61.7 65.95 28.7 65.95 28.7 66.25 25.35 66.25 25.35 65.95 6.7 65.95 5.8 63.8 5.8 62.9 5.8 62.55 5.2 59.5 4.9 59.2 4.9 58.6 4.55 58.0 4.9 58.0 Q4.55 57.1 4.55 55.85 4.25 55.55 4.25 54.95 3.95 52.5 3.95 49.75 L3.05 38.15 Q2.75 37.85 2.75 37.55 2.45 34.5 2.45 31.75 L1.5 24.45 Q1.2 23.25 1.2 22.0 L0.6 18.05 0.3 14.7 -0.95 4.3 Q-0.95 2.2 2.15 1.25 L3.65 0.65 4.55 0.65 5.8 0.35 7.0 0.35 7.0 0.05 9.75 0.05 11.0 0.05 13.45 0.05 Q19.25 -0.25 55.9 0.65 L61.7 0.65 61.7 0.95 62.9 0.95 64.45 1.25 65.35 1.6 65.65 1.6 Q68.1 2.5 68.4 4.3 L67.2 14.7 66.6 19.25 66.0 25.35 65.65 28.4 65.35 31.15 Q65.05 34.5 65.05 37.55 L63.85 51.6 Q63.55 53.1 63.55 54.65 63.55 55.55 63.25 55.85 L63.25 57.1 63.25 57.4 63.25 58.0 63.25 59.2" fill="#583939" fill-rule="evenodd" stroke="none"/>
    <path d="M63.25 59.2 Q62.9 59.2 62.9 59.5 L62.3 62.25 62.3 62.55 61.7 65.95 28.7 65.95 28.7 66.25 25.35 66.25 25.35 65.95 6.7 65.95 5.8 63.8 5.8 62.9 5.8 62.55 5.2 59.5 4.9 59.2 4.9 58.6 4.55 58.0 4.9 58.0 Q4.55 57.1 4.55 55.85 4.25 55.55 4.25 54.95 3.95 52.5 3.95 49.75 L3.05 38.15 Q2.75 37.85 2.75 37.55 2.45 34.5 2.45 31.75 L1.5 24.45 Q1.2 23.25 1.2 22.0 L0.6 18.05 0.3 14.7 -0.95 4.3 Q-0.95 2.2 2.15 1.25 L3.65 0.65 4.55 0.65 5.8 0.35 7.0 0.35 7.0 0.05 9.75 0.05 11.0 0.05 13.45 0.05 Q19.25 -0.25 55.9 0.65 L61.7 0.65 61.7 0.95 62.9 0.95 64.45 1.25 65.35 1.6 65.65 1.6 Q68.1 2.5 68.4 4.3 L67.2 14.7 66.6 19.25 66.0 25.35 65.65 28.4 65.35 31.15 Q65.05 34.5 65.05 37.55 L63.85 51.6 Q63.55 53.1 63.55 54.65 63.55 55.55 63.25 55.85 L63.25 57.1 63.25 57.4 63.25 58.0 63.25 59.2 63.25 59.5 62.6 61.95 63.25 59.2 Z" fill="none" stroke="#012001" stroke-linecap="round" stroke-linejoin="round" stroke-width="6.0"/>
    <path d="M66.85 11.95 L65.95 11.65 62.6 11.35 Q29.6 4.95 4.25 11.65 L-0.05 12.85 Q-0.05 13.15 -0.65 13.15 L-1.6 4.3 Q-1.6 2.2 1.5 1.25 L3.0 0.65 3.9 0.65 5.15 0.35 9.1 0.05 10.35 0.05 12.15 0.05 12.8 0.05 Q18.3 -0.25 55.55 0.65 L59.5 0.95 62.25 0.95 63.8 1.25 64.4 1.6 65.0 1.6 Q67.45 2.5 67.75 4.3 L66.85 11.95" fill="#002003" fill-rule="evenodd" stroke="none"/>
    <path d="M-0.65 13.15 Q-0.05 13.15 -0.05 12.85 L4.25 11.65 Q29.6 4.95 62.6 11.35 L65.95 11.65 66.85 11.95 Q66.55 13.15 66.55 14.7 L65.95 18.05 Q64.4 17.45 62.6 17.15 29.6 11.35 4.25 17.75 2.1 18.05 -0.05 18.95 L-0.05 18.05 Q-0.05 16.5 -0.35 14.7 -0.35 13.75 -0.65 13.15" fill="#adc98b" fill-rule="evenodd" stroke="none"/>
    <path d="M-0.05 18.95 Q2.1 18.05 4.25 17.75 8.2 62.9 14.0 65.95 L6.05 65.95 5.15 63.8 5.15 62.9 5.15 62.55 4.55 59.5 4.25 59.2 4.25 58.6 3.9 58.0 4.25 58.0 3.6 55.85 3.6 54.95 Q3.3 52.5 3.3 49.75 2.7 44.25 2.4 38.15 2.1 37.85 2.1 37.55 1.8 34.5 1.8 31.75 L0.85 24.45 Q0.55 23.25 0.55 22.0 L-0.05 18.95 M62.6 17.15 Q64.4 17.45 65.95 18.05 L65.95 19.25 65.35 25.35 65.0 28.4 64.7 31.15 Q64.4 34.5 64.4 37.55 L63.2 51.6 Q62.9 53.1 62.9 54.65 62.9 55.55 62.6 55.85 L62.6 57.1 62.6 57.4 62.6 58.0 62.6 59.2 Q62.25 59.2 62.25 59.5 L61.65 62.25 61.65 62.55 61.05 65.95 51.25 65.95 Q58.9 56.45 62.6 17.15" fill="#537e27" fill-rule="evenodd" stroke="none"/>
    <path d="M4.25 17.75 Q29.6 11.35 62.6 17.15 58.9 56.45 51.25 65.95 L14.0 65.95 Q8.2 62.9 4.25 17.75" fill="#679735" fill-rule="evenodd" stroke="none"/>
  </g>
</svg>
