<?xml version="1.0" encoding="UTF-8" standalone="no"?>
<svg xmlns:xlink="http://www.w3.org/1999/xlink" height="79.15px" width="73.8px" xmlns="http://www.w3.org/2000/svg">
  <g transform="matrix(1.0, 0.0, 0.0, 1.0, 2.0, 7.5)">
    <path d="M16.55 -4.5 Q20.55 0.05 30.6 1.25 44.65 2.5 51.1 -4.5 L51.1 -4.2 68.8 3.4 Q64.2 22.0 66.65 35.1 L66.65 40.0 64.2 65.6 41.0 68.35 27.85 68.35 27.85 68.65 4.65 65.6 1.3 34.5 Q4.05 18.65 1.0 3.4 L5.85 0.35 6.15 0.35 6.15 0.05 12.9 -3.0 14.4 -3.3 16.55 -4.5" fill="#5a8a29" fill-rule="evenodd" stroke="none"/>
    <path d="M16.55 -4.5 Q20.55 0.05 30.6 1.25 44.65 2.5 51.1 -4.5 L51.1 -4.2 68.8 3.4 Q64.2 22.0 66.65 35.1 L66.65 40.0 64.2 65.6 41.0 68.35 27.85 68.35 27.85 68.65 4.65 65.6 1.3 34.5 Q4.05 18.65 1.0 3.4 L5.85 0.35 6.15 0.35 6.15 0.05 12.9 -3.0 14.4 -3.3 16.55 -4.5 Z" fill="none" stroke="#012001" stroke-linecap="round" stroke-linejoin="round" stroke-width="6.0"/>
    <path d="M60.6 -0.9 L63.35 0.3 Q58.75 28.4 66.7 34.15 L66.7 39.05 Q62.45 35.7 60.0 27.15 57.25 17.1 60.6 -0.9 M65.2 55.85 L64.9 59.5 Q49.3 62.55 33.4 62.55 L32.8 61.95 32.5 62.55 Q18.45 62.25 4.4 59.5 L4.4 58.9 4.1 55.85 4.4 55.85 Q34.65 61.6 64.9 55.85 L65.2 55.85 M1.65 36.3 L1.35 33.55 Q3.45 30.8 4.7 28.05 5.6 25.35 6.5 19.25 7.75 12.8 7.15 7.95 L5.9 -0.3 5.9 -0.6 6.2 -0.6 6.2 -0.9 8.35 -1.5 Q11.4 11.9 8.35 25.95 5.6 33.55 1.65 36.3" fill="#e5f0cf" fill-rule="evenodd" stroke="none"/>
    <path d="M63.35 0.3 L68.85 2.45 Q64.25 21.05 66.7 34.15 58.75 28.4 63.35 0.3 M64.9 59.5 L64.25 64.65 41.05 67.4 27.9 67.4 27.9 67.7 4.7 64.65 4.4 59.5 Q18.45 62.25 32.5 62.55 L33.4 62.55 Q49.3 62.55 64.9 59.5 M1.35 33.55 Q4.1 17.7 1.05 2.45 L5.9 -0.6 5.9 -0.3 7.15 7.95 Q7.75 12.8 6.5 19.25 5.6 25.35 4.7 28.05 3.45 30.8 1.35 33.55" fill="#679735" fill-rule="evenodd" stroke="none"/>
    <path d="M8.35 -1.5 L12.65 -3.95 14.45 -4.25 16.6 -5.45 Q20.6 -0.9 30.65 0.3 44.7 1.55 51.15 -5.45 L51.15 -5.15 60.6 -0.9 Q57.25 17.1 60.0 27.15 62.45 35.7 66.7 39.05 L65.2 55.85 64.9 55.85 Q34.65 61.6 4.4 55.85 L4.1 55.85 1.65 36.3 Q5.6 33.55 8.35 25.95 11.4 11.9 8.35 -1.5" fill="#023307" fill-rule="evenodd" stroke="none"/>
    <path d="M33.4 62.55 L32.5 62.55 32.8 61.95 33.4 62.55" fill="#003506" fill-rule="evenodd" stroke="none"/>
    <path d="M4.1 55.85 L4.4 55.85 Q34.65 61.6 64.9 55.85 L65.2 55.85" fill="none" stroke="#006200" stroke-linecap="round" stroke-linejoin="round" stroke-width="0.1"/>
  </g>
</svg>
