<?xml version="1.0" encoding="UTF-8" standalone="no"?>
<svg xmlns:xlink="http://www.w3.org/1999/xlink" height="16.35px" width="15.85px" xmlns="http://www.w3.org/2000/svg">
  <g transform="matrix(1.0, 0.0, 0.0, 1.0, 0.45, 0.7)">
    <path d="M14.75 8.35 Q14.85 9.7 14.35 11.1 13.2 13.4 10.5 14.55 L4.9 14.75 Q3.7 14.3 2.7 13.65 1.75 13.05 0.75 11.4 0.0 9.85 0.15 8.35 L0.05 8.05 0.1 6.15 Q0.45 3.2 2.8 1.45 5.25 -0.5 8.3 -0.15 11.35 0.05 13.3 2.4 15.2 4.6 14.85 7.45 L14.75 8.35 M11.5 10.1 L12.5 8.25 12.2 7.3 10.0 8.2 9.85 8.25 Q10.1 8.9 9.85 9.65 L11.45 10.15 11.5 10.1 12.3 10.4 11.5 10.1 M12.05 7.0 L11.85 6.7 Q11.2 5.6 10.0 5.05 L10.1 5.15 10.1 5.4 9.9 5.45 9.65 5.4 9.6 5.15 9.7 5.0 9.8 4.95 9.65 4.9 9.45 4.85 8.7 6.6 8.65 6.65 8.55 6.9 Q9.3 7.15 9.7 7.9 L12.0 6.95 12.05 7.0 M12.15 10.7 L11.25 10.4 12.15 10.7 M11.25 10.4 L9.8 9.9 9.75 9.9 8.65 10.7 8.85 11.05 9.15 11.55 10.8 10.75 11.25 10.4 M6.15 6.0 L6.45 6.55 6.55 6.75 8.25 6.8 8.4 6.55 9.15 4.8 Q7.4 4.5 5.6 4.85 L4.7 5.05 Q3.45 5.7 2.85 6.85 L2.75 7.15 2.65 7.3 2.4 8.15 2.5 8.7 3.45 10.05 3.7 10.3 5.05 9.75 5.1 9.75 5.0 9.5 Q4.75 8.85 4.9 8.35 L2.65 7.6 2.75 7.3 5.05 8.05 Q5.35 7.25 6.15 6.9 L6.05 6.7 6.0 6.65 5.2 5.1 5.6 4.95 6.15 6.0 M4.05 10.6 Q4.95 11.35 6.1 11.6 L6.3 11.2 6.45 10.9 5.75 10.55 5.5 10.3 5.3 10.05 5.2 10.1 4.9 10.2 4.0 10.6 4.05 10.6 3.0 11.1 4.05 10.6 M8.35 9.1 L8.4 8.85 7.95 9.0 8.35 9.15 8.35 9.1 M8.3 8.45 L8.0 8.1 7.8 8.65 8.3 8.45 M7.45 9.4 L7.35 9.7 7.6 9.65 7.45 9.4 M7.15 9.35 L6.75 9.5 7.0 9.65 7.15 9.35 M7.25 7.95 L7.5 8.5 7.75 7.95 7.25 7.95 M6.4 8.8 L6.45 9.2 6.95 9.0 6.4 8.8 M6.45 8.5 L6.45 8.55 7.15 8.75 6.8 8.15 6.45 8.5 M6.65 11.7 L7.05 11.7 8.65 11.65 8.45 11.25 8.25 10.85 6.75 11.0 6.45 11.65 6.65 11.7 6.1 13.15 6.65 11.7 M7.95 9.3 L8.05 9.5 8.15 9.4 7.95 9.3 M9.3 12.95 L8.9 12.1 9.3 12.95" fill="#70462b" fill-rule="evenodd" stroke="none"/>
    <path d="M14.75 8.35 Q14.85 9.7 14.35 11.1 13.2 13.4 10.5 14.55 L4.9 14.75 Q3.7 14.3 2.7 13.65 1.75 13.05 0.75 11.4 0.0 9.85 0.15 8.35 L0.05 8.05 0.1 6.15 Q0.45 3.2 2.8 1.45 5.25 -0.5 8.3 -0.15 11.35 0.05 13.3 2.4 15.2 4.6 14.85 7.45 L14.75 8.35 M12.05 7.0 L12.0 6.95 9.7 7.9 Q9.3 7.15 8.55 6.9 L8.65 6.65 8.7 6.6 9.45 4.85 9.65 4.9 9.8 4.95 9.7 5.0 9.6 5.15 9.65 5.4 9.9 5.45 10.1 5.4 10.1 5.15 10.0 5.05 Q11.2 5.6 11.85 6.7 L12.05 7.0 M11.5 10.1 L11.45 10.15 9.85 9.65 Q10.1 8.9 9.85 8.25 L10.0 8.2 12.2 7.3 12.5 8.25 11.5 10.1 12.3 10.4 M11.25 10.4 L12.15 10.7 M11.25 10.4 L10.8 10.75 9.15 11.55 8.85 11.05 8.65 10.7 9.75 9.9 9.8 9.9 11.25 10.4 M5.6 4.85 L6.15 5.95 6.15 6.0 6.45 6.55 7.1 6.5 8.1 6.5 8.3 6.5 8.4 6.55 9.15 4.8 Q7.4 4.5 5.6 4.85 L4.7 5.05 Q3.45 5.7 2.85 6.85 L5.05 7.7 Q5.4 7.1 5.9 6.8 L6.0 6.65 5.2 5.1 5.6 4.95 6.15 6.0 M2.75 7.15 L5.05 8.05 Q5.35 7.25 6.15 6.9 L6.05 6.7 5.9 6.8 M5.05 8.05 L2.75 7.3 2.65 7.6 4.9 8.35 Q4.75 8.85 5.0 9.5 L5.1 9.75 5.05 9.75 3.7 10.3 3.45 10.05 2.5 8.7 2.4 8.15 2.65 7.3 2.75 7.15 2.85 6.85 M4.05 10.6 L4.0 10.6 4.9 10.2 5.2 10.1 5.3 10.05 5.5 10.3 5.75 10.55 6.45 10.9 6.3 11.2 6.1 11.6 Q4.95 11.35 4.05 10.6 L3.0 11.1 M4.05 10.6 L4.9 10.2 M5.0 9.5 L5.05 9.75 M11.85 6.7 L9.8 7.6 9.4 7.05 9.3 7.0 9.25 6.95 9.2 6.95 Q8.95 6.75 8.65 6.65 M8.4 6.55 L8.25 6.8 6.55 6.75 6.45 6.55 M8.3 8.45 L7.8 8.65 8.0 8.1 8.3 8.45 M8.35 9.1 L8.35 9.15 7.95 9.0 8.4 8.85 8.35 9.1 M9.2 6.95 L8.7 6.6 M6.0 6.65 L6.05 6.7 M6.45 8.5 L6.8 8.15 7.15 8.75 6.45 8.55 6.45 8.5 M6.4 8.8 L6.95 9.0 6.45 9.2 6.4 8.8 M7.25 7.95 L7.75 7.95 7.5 8.5 7.25 7.95 M7.15 9.35 L7.0 9.65 6.75 9.5 7.15 9.35 M7.45 9.4 L7.6 9.65 7.35 9.7 7.45 9.4 M5.2 10.1 L5.5 10.45 5.7 10.85 6.3 11.2 M6.65 11.7 L6.45 11.65 6.75 11.0 8.25 10.85 8.45 11.25 8.65 11.65 7.05 11.7 6.65 11.7 6.1 13.15 M6.65 11.7 L6.75 11.3 8.45 11.25 M7.95 9.3 L8.15 9.4 8.05 9.5 7.95 9.3 M9.8 9.9 L8.85 11.05 M11.5 10.1 L9.95 9.5 10.0 8.2 M8.9 12.1 L9.3 12.95" fill="none" stroke="#60381b" stroke-linecap="round" stroke-linejoin="round" stroke-width="1.0"/>
    <path d="M5.5 3.95 Q7.45 3.1 9.7 4.2" fill="none" stroke="#000000" stroke-linecap="round" stroke-linejoin="round" stroke-width="1.0"/>
    <path d="M10.8 10.75 Q12.55 9.3 12.6 7.4 L12.65 6.1 Q11.25 5.3 9.85 4.95 6.3 4.05 2.4 5.85 L2.25 6.4 2.3 7.75 2.5 8.7 3.45 10.05 Q4.85 11.65 7.05 11.7 9.15 11.9 10.8 10.75 M14.85 7.45 Q14.6 10.35 12.3 12.4 9.9 14.05 6.9 13.85 3.8 13.55 1.8 11.35 0.9 10.4 0.45 9.3 L0.05 8.05 0.1 6.15 Q0.45 3.2 2.8 1.45 5.25 -0.5 8.3 -0.15 11.35 0.05 13.3 2.4 15.2 4.6 14.85 7.45" fill="#845e45" fill-rule="evenodd" stroke="none"/>
    <path d="M9.85 4.95 L10.1 5.15 10.1 5.4 9.9 5.45 9.65 5.4 9.6 5.15 9.7 5.0 9.85 4.95" fill="#312e2e" fill-rule="evenodd" stroke="none"/>
    <path d="M12.45 10.45 L9.95 9.5 Q10.15 8.65 9.9 7.95 L12.3 6.85 Q12.95 8.5 12.45 10.45 M5.55 3.95 L9.5 4.15 9.5 4.1 Q11.3 4.75 12.25 6.5 L9.8 7.6 9.4 7.05 9.3 7.0 9.25 6.95 9.2 6.95 Q8.8 6.65 8.3 6.5 L8.1 6.5 7.1 6.5 Q6.15 6.5 5.9 6.8 5.4 7.1 5.05 7.7 L2.75 6.8 2.65 7.1 5.05 8.05 Q4.75 8.75 5.05 9.8 L2.8 10.75 2.9 11.1 5.15 10.1 5.5 10.45 5.7 10.85 6.35 11.2 5.55 13.55 5.9 13.7 6.75 11.3 8.5 11.2 9.55 13.55 5.6 13.7 4.15 12.85 3.4 12.2 2.75 11.05 Q1.85 9.05 2.55 7.05 3.4 4.85 5.2 4.05 L5.5 3.95 5.55 3.95 Q5.4 4.05 5.2 4.1 L6.15 5.95 6.15 6.5 5.9 6.8 M9.2 6.95 Q8.85 6.65 8.55 6.5 L9.5 4.15 M8.8 11.05 L9.9 13.4 Q11.65 12.55 12.3 10.75 L9.8 9.85 Q9.55 10.6 8.8 11.05" fill="none" stroke="#60381b" stroke-linecap="round" stroke-linejoin="round" stroke-width="1.5"/>
    <path d="M14.35 11.1 Q13.2 13.4 10.5 14.55 L4.9 14.75 Q3.7 14.3 2.7 13.65 1.75 13.05 0.75 11.4 -0.45 9.0 0.6 6.6 1.65 4.05 4.45 3.0 7.15 1.9 10.05 2.9 12.8 3.8 14.0 6.15 15.3 8.5 14.35 11.1 M14.05 10.95 Q14.95 8.5 13.7 6.3 12.55 4.0 9.9 3.15 7.2 2.2 4.6 3.25 1.95 4.25 0.9 6.65 -0.1 9.0 1.1 11.3 1.95 12.75 2.95 13.45 L5.05 14.5 10.35 14.25 Q12.95 13.2 14.05 10.95" fill="#60381b" fill-rule="evenodd" stroke="none"/>
    <path d="M12.25 10.45 Q12.95 8.55 12.05 7.05 11.25 5.35 9.2 4.75 7.15 3.95 5.25 4.75 3.35 5.55 2.65 7.3 1.9 9.0 2.7 10.7 L3.45 11.7 4.1 12.35 5.65 13.0 9.5 12.85 Q11.4 12.05 12.25 10.45 M14.05 10.95 Q12.95 13.2 10.35 14.25 L5.05 14.5 2.95 13.45 Q1.95 12.75 1.1 11.3 -0.1 9.0 0.9 6.65 1.95 4.25 4.6 3.25 7.2 2.2 9.9 3.15 12.55 4.0 13.7 6.3 14.95 8.5 14.05 10.95" fill="#441f06" fill-rule="evenodd" stroke="none"/>
    <path d="M9.7 7.95 Q10.15 8.75 9.85 9.65 9.45 10.45 8.45 10.75 L6.55 10.95 5.75 10.55 5.5 10.3 5.1 9.8 Q4.65 8.85 5.0 8.1 5.35 7.15 6.35 6.8 7.3 6.45 8.3 6.8 9.3 7.05 9.7 7.95 M9.1 8.25 Q8.85 7.6 8.05 7.4 7.3 7.1 6.65 7.4 6.0 7.65 5.75 8.3 5.5 8.85 5.75 9.5 L6.05 9.85 6.15 10.1 6.8 10.35 8.2 10.3 9.1 9.45 Q9.45 8.75 9.1 8.25" fill="#aeaeae" fill-rule="evenodd" stroke="none"/>
    <path d="M8.3 8.5 L7.8 7.95 7.0 8.0 6.45 8.5 6.45 9.2 6.65 9.35 6.75 9.5 7.05 9.65 7.8 9.55 8.35 9.1 8.3 8.5 M9.1 8.25 Q9.45 8.75 9.1 9.45 L8.2 10.3 6.8 10.35 6.15 10.1 6.05 9.85 5.75 9.5 Q5.5 8.85 5.75 8.3 6.0 7.65 6.65 7.4 7.3 7.1 8.05 7.4 8.85 7.6 9.1 8.25" fill="#cccccc" fill-rule="evenodd" stroke="none"/>
    <path d="M5.2 5.1 L5.6 4.95 9.9 12.95 9.45 13.1 5.2 5.1" fill="#aeaeae" fill-rule="evenodd" stroke="none"/>
    <path d="M12.0 6.95 L12.2 7.3 2.9 11.0 2.75 10.65 12.0 6.95" fill="#aeaeae" fill-rule="evenodd" stroke="none"/>
    <path d="M12.25 10.7 L2.65 7.6 2.75 7.3 12.3 10.45 12.25 10.7" fill="#aeaeae" fill-rule="evenodd" stroke="none"/>
    <path d="M9.15 4.7 L9.45 4.8 5.85 13.05 5.5 13.0 9.15 4.7" fill="#aeaeae" fill-rule="evenodd" stroke="none"/>
  </g>
</svg>
