<?xml version="1.0" encoding="UTF-8" standalone="no"?>
<svg xmlns:xlink="http://www.w3.org/1999/xlink" height="22.7px" width="29.85px" xmlns="http://www.w3.org/2000/svg">
  <g transform="matrix(1.0, 0.0, 0.0, 1.0, -9.95, 0.5)">
    <path d="M35.15 0.1 L35.5 0.1 Q37.0 0.1 38.2 1.7 39.3 3.25 39.3 5.55 L39.3 16.25 Q39.3 18.5 38.2 20.1 37.0 21.7 35.5 21.7 L23.5 21.7 22.25 21.45 20.05 20.9 17.5 20.05 Q15.3 19.1 14.45 18.3 12.3 16.15 11.25 13.3 L10.8 12.15 10.7 11.4 10.45 9.75 10.45 9.65 10.45 9.5 Q10.5 8.4 10.7 7.65 L10.95 6.65 11.5 5.6 Q12.75 4.0 14.3 3.2 15.8 2.35 17.35 1.7 18.95 1.1 20.45 0.65 L21.55 0.65 21.3 1.25 Q22.25 0.1 23.5 0.1 L23.85 0.1 24.7 0.0 34.3 0.0 35.15 0.1" fill="#e83c25" fill-rule="evenodd" stroke="none"/>
    <path d="M35.15 0.1 L35.5 0.1 Q37.0 0.1 38.2 1.7 39.3 3.25 39.3 5.55 L39.3 16.25 Q39.3 18.5 38.2 20.1 37.0 21.7 35.5 21.7 L23.5 21.7 22.25 21.45 20.05 20.9 17.5 20.05 Q15.3 19.1 14.45 18.3 12.3 16.15 11.25 13.3 L10.8 12.15 10.7 11.4 10.45 9.75 10.45 9.65 10.45 9.5 Q10.5 8.4 10.7 7.65 L10.95 6.65 11.5 5.6 Q12.75 4.0 14.3 3.2 15.8 2.35 17.35 1.7 18.95 1.1 20.45 0.65 L21.55 0.65 21.3 1.25 Q22.25 0.1 23.5 0.1 L23.85 0.1 24.7 0.0 34.3 0.0 35.15 0.1 Z" fill="none" stroke="#541f1c" stroke-linecap="round" stroke-linejoin="round" stroke-width="1.0"/>
  </g>
</svg>
