<?xml version="1.0" encoding="UTF-8" standalone="no"?>
<svg xmlns:xlink="http://www.w3.org/1999/xlink" height="394.05px" width="566.9px" xmlns="http://www.w3.org/2000/svg">
  <g transform="matrix(1.0, 0.0, 0.0, 1.0, -21.6, -48.75)">
    <path d="M451.85 75.4 L456.75 72.9 Q524.9 41.4 563.25 51.05 575.2 54.05 582.8 60.8 586.55 64.15 587.95 66.95 L588.5 141.1 531.9 141.1 451.85 75.4" fill="#5cc7e9" fill-rule="evenodd" stroke="none"/>
    <path d="M588.5 142.95 L588.5 145.05 531.45 145.05 529.8 145.05 439.65 352.15 462.55 417.8 460.15 417.2 457.5 416.55 436.5 356.1 435.15 352.95 192.55 352.95 192.0 355.75 170.65 412.4 166.6 412.75 189.15 353.45 87.4 143.3 85.45 143.3 21.65 143.3 21.65 139.5 87.65 139.5 175.9 74.75 179.9 75.75 90.6 142.2 166.8 299.05 192.05 350.65 435.9 350.65 527.65 143.5 446.7 77.1 449.45 76.1 531.2 142.95 588.5 142.95" fill="#39add2" fill-rule="evenodd" stroke="none"/>
    <path d="M439.65 352.15 L529.8 145.05 531.45 145.05 441.95 352.45 439.65 352.15" fill="#89defa" fill-rule="evenodd" stroke="none"/>
    <path d="M588.5 141.1 L588.5 142.95 531.2 142.95 449.45 76.1 451.85 75.4 531.9 141.1 588.5 141.1" fill="#88e0fc" fill-rule="evenodd" stroke="none"/>
    <path d="M588.5 145.05 L587.95 427.2 Q571.05 439.65 556.1 441.8 542.7 443.8 527.8 441.8 511.3 439.55 495.2 432.7 L484.1 426.8 Q471.8 420.55 465.7 418.7 L441.95 352.45 531.45 145.05 588.5 145.05" fill="#60c4e5" fill-rule="evenodd" stroke="none"/>
    <path d="M179.9 75.75 Q213.1 78.1 258.85 62.95 304.6 47.75 360.15 63.4 415.65 79.05 446.7 77.1 L527.65 143.5 435.9 350.65 192.05 350.65 166.8 299.05 90.6 142.2 179.9 75.75" fill="#81dbf7" fill-rule="evenodd" stroke="none"/>
    <path d="M465.7 418.7 L462.55 417.8 439.65 352.15 441.95 352.45 465.7 418.7" fill="#8ee3ff" fill-rule="evenodd" stroke="none"/>
    <path d="M192.0 355.75 L192.55 352.95 435.15 352.95 436.5 356.1 192.0 355.75" fill="#95e5ff" fill-rule="evenodd" stroke="none"/>
    <path d="M21.65 139.5 L21.6 137.3 86.8 137.2 172.2 73.8 175.9 74.75 87.65 139.5 21.65 139.5" fill="#6ed8fa" fill-rule="evenodd" stroke="none"/>
    <path d="M21.6 137.3 L21.65 66.95 Q23.0 64.8 26.3 62.0 32.8 56.35 42.3 53.0 72.65 42.3 121.2 58.6 146.7 67.15 172.2 73.8 L86.8 137.2 21.6 137.3" fill="#4fbee2" fill-rule="evenodd" stroke="none"/>
    <path d="M166.6 412.75 L164.2 413.15 186.7 353.45 85.45 143.3 87.4 143.3 189.15 353.45 166.6 412.75" fill="#9ce6ff" fill-rule="evenodd" stroke="none"/>
    <path d="M164.2 413.15 Q139.75 417.2 116.95 430.55 104.9 437.2 86.95 440.1 51.05 445.9 21.65 427.2 L21.65 143.3 85.45 143.3 186.7 353.45 164.2 413.15" fill="#68ccec" fill-rule="evenodd" stroke="none"/>
    <path d="M457.5 416.55 Q440.15 412.6 426.35 412.4 408.15 412.15 389.75 417.8 372.7 423.05 349.7 428.1 L330.05 432.1 Q312.2 435.95 290.25 434.2 272.1 432.75 257.0 428.25 229.95 420.2 212.1 416.8 191.7 412.9 170.65 412.4 L192.0 355.75 436.5 356.1 457.5 416.55" fill="#70c6e2" fill-rule="evenodd" stroke="none"/>
    <path d="M78.9 124.35 L79.05 124.15 Q79.55 123.65 80.1 123.4 81.1 122.8 82.3 122.8 84.25 122.8 85.6 124.15 86.95 125.5 86.95 127.45 86.95 129.4 85.6 130.75 L85.4 130.95 84.0 131.8 82.3 132.05 Q80.4 132.05 79.05 130.75 77.7 129.4 77.7 127.45 77.7 125.6 78.9 124.35" fill="#1e9ac2" fill-rule="evenodd" stroke="none"/>
    <path d="M80.15 123.3 Q81.05 122.8 82.1 122.8 83.85 122.8 85.05 124.0 85.85 124.8 86.15 125.8 L86.3 126.95 86.15 128.1 Q85.85 129.1 85.05 129.9 L84.9 130.1 80.15 123.3 M83.65 130.85 L82.1 131.1 Q80.4 131.1 79.2 129.9 78.0 128.7 78.0 126.95 78.0 125.3 79.05 124.15 L83.65 130.85" fill="#91dff7" fill-rule="evenodd" stroke="none"/>
    <path d="M79.05 124.15 L79.2 124.0 80.15 123.3 84.9 130.1 83.65 130.85 79.05 124.15" fill="#68c8e7" fill-rule="evenodd" stroke="none"/>
    <path d="M137.7 86.45 Q139.05 87.8 139.05 89.75 139.05 91.7 137.7 93.05 L137.5 93.25 136.1 94.1 134.4 94.35 Q132.5 94.35 131.15 93.05 129.8 91.7 129.8 89.75 129.8 87.9 131.0 86.65 L131.15 86.45 Q131.65 85.95 132.2 85.7 133.2 85.1 134.4 85.1 136.35 85.1 137.7 86.45" fill="#1d98bf" fill-rule="evenodd" stroke="none"/>
    <path d="M132.25 85.6 Q133.15 85.1 134.2 85.1 135.95 85.1 137.15 86.3 137.95 87.1 138.25 88.1 L138.4 89.25 138.25 90.4 Q137.95 91.4 137.15 92.2 L137.0 92.4 132.25 85.6 M135.75 93.15 L134.2 93.4 Q132.5 93.4 131.3 92.2 130.1 91.0 130.1 89.25 130.1 87.6 131.15 86.45 L135.75 93.15" fill="#91dff7" fill-rule="evenodd" stroke="none"/>
    <path d="M137.0 92.4 L135.75 93.15 131.15 86.45 131.3 86.3 132.25 85.6 137.0 92.4" fill="#68c8e7" fill-rule="evenodd" stroke="none"/>
    <path d="M175.9 356.8 Q175.9 358.75 174.55 360.1 L174.35 360.3 172.95 361.15 171.25 361.4 Q169.35 361.4 168.0 360.1 166.65 358.75 166.65 356.8 166.65 354.95 167.85 353.7 L168.0 353.5 169.05 352.75 Q170.05 352.15 171.25 352.15 173.2 352.15 174.55 353.5 175.9 354.85 175.9 356.8" fill="#31a7cd" fill-rule="evenodd" stroke="none"/>
    <path d="M169.1 352.65 Q170.0 352.15 171.05 352.15 172.8 352.15 174.0 353.35 174.8 354.15 175.1 355.15 L175.25 356.3 175.1 357.45 Q174.8 358.45 174.0 359.25 L173.85 359.45 169.1 352.65 M172.6 360.2 L171.05 360.45 Q169.35 360.45 168.15 359.25 166.95 358.05 166.95 356.3 166.95 354.65 168.0 353.5 L172.6 360.2" fill="#91dff7" fill-rule="evenodd" stroke="none"/>
    <path d="M173.85 359.45 L172.6 360.2 168.0 353.5 168.15 353.35 Q168.6 352.9 169.1 352.65 L173.85 359.45" fill="#68c8e7" fill-rule="evenodd" stroke="none"/>
    <path d="M77.7 160.0 Q77.7 158.15 78.9 156.9 L79.05 156.7 Q79.55 156.2 80.1 155.95 81.1 155.35 82.3 155.35 84.25 155.35 85.6 156.7 86.95 158.05 86.95 160.0 86.95 161.95 85.6 163.3 L85.4 163.5 84.0 164.35 82.3 164.6 Q80.4 164.6 79.05 163.3 77.7 161.95 77.7 160.0" fill="#2192b6" fill-rule="evenodd" stroke="none"/>
    <path d="M79.05 156.7 L79.2 156.55 80.15 155.85 84.9 162.65 83.65 163.4 79.05 156.7" fill="#68c8e7" fill-rule="evenodd" stroke="none"/>
    <path d="M83.65 163.4 L82.1 163.65 Q80.4 163.65 79.2 162.45 78.0 161.25 78.0 159.5 78.0 157.85 79.05 156.7 L83.65 163.4 M80.15 155.85 Q81.05 155.35 82.1 155.35 83.85 155.35 85.05 156.55 85.85 157.35 86.15 158.35 L86.3 159.5 86.15 160.65 Q85.85 161.65 85.05 162.45 L84.9 162.65 80.15 155.85" fill="#91dff7" fill-rule="evenodd" stroke="none"/>
    <path d="M206.05 337.9 L204.65 338.75 202.95 339.0 Q201.05 339.0 199.7 337.7 198.35 336.35 198.35 334.4 198.35 332.55 199.55 331.3 L199.7 331.1 200.75 330.35 Q201.75 329.75 202.95 329.75 204.9 329.75 206.25 331.1 207.6 332.45 207.6 334.4 207.6 336.35 206.25 337.7 L206.05 337.9" fill="#2da7cd" fill-rule="evenodd" stroke="none"/>
    <path d="M199.7 331.1 L199.85 330.95 200.8 330.25 205.55 337.05 204.3 337.8 199.7 331.1" fill="#68c8e7" fill-rule="evenodd" stroke="none"/>
    <path d="M204.3 337.8 L202.75 338.05 Q201.05 338.05 199.85 336.85 198.65 335.65 198.65 333.9 198.65 332.25 199.7 331.1 L204.3 337.8 M200.8 330.25 Q201.7 329.75 202.75 329.75 204.5 329.75 205.7 330.95 206.5 331.75 206.8 332.75 L206.95 333.9 206.8 335.05 Q206.5 336.05 205.7 336.85 L205.55 337.05 200.8 330.25" fill="#91dff7" fill-rule="evenodd" stroke="none"/>
    <path d="M199.55 367.25 L199.7 367.05 200.75 366.3 Q201.75 365.7 202.95 365.7 204.9 365.7 206.25 367.05 207.6 368.4 207.6 370.35 207.6 372.3 206.25 373.65 L206.05 373.85 204.65 374.7 202.95 374.95 Q201.05 374.95 199.7 373.65 198.35 372.3 198.35 370.35 198.35 368.5 199.55 367.25" fill="#36a7cb" fill-rule="evenodd" stroke="none"/>
    <path d="M200.8 366.2 Q201.7 365.7 202.75 365.7 204.5 365.7 205.7 366.9 206.5 367.7 206.8 368.7 L206.95 369.85 206.8 371.0 Q206.5 372.0 205.7 372.8 L205.55 373.0 200.8 366.2 M204.3 373.75 L202.75 374.0 Q201.05 374.0 199.85 372.8 198.65 371.6 198.65 369.85 198.65 368.2 199.7 367.05 L204.3 373.75" fill="#91dff7" fill-rule="evenodd" stroke="none"/>
    <path d="M199.7 367.05 L199.85 366.9 200.8 366.2 205.55 373.0 204.3 373.75 199.7 367.05" fill="#68c8e7" fill-rule="evenodd" stroke="none"/>
    <path d="M423.9 331.1 Q424.4 330.6 424.95 330.35 425.95 329.75 427.15 329.75 429.1 329.75 430.45 331.1 431.8 332.45 431.8 334.4 431.8 336.35 430.45 337.7 L430.25 337.9 428.85 338.75 427.15 339.0 Q425.25 339.0 423.9 337.7 422.55 336.35 422.55 334.4 422.55 332.55 423.75 331.3 L423.9 331.1" fill="#34a6cb" fill-rule="evenodd" stroke="none"/>
    <path d="M428.5 337.8 L426.95 338.05 Q425.25 338.05 424.05 336.85 422.85 335.65 422.85 333.9 422.85 332.25 423.9 331.1 L428.5 337.8 M425.0 330.25 Q425.9 329.75 426.95 329.75 428.7 329.75 429.9 330.95 430.7 331.75 431.0 332.75 L431.15 333.9 431.0 335.05 Q430.7 336.05 429.9 336.85 L429.75 337.05 425.0 330.25" fill="#91dff7" fill-rule="evenodd" stroke="none"/>
    <path d="M423.9 331.1 L424.05 330.95 425.0 330.25 429.75 337.05 428.5 337.8 423.9 331.1" fill="#68c8e7" fill-rule="evenodd" stroke="none"/>
    <path d="M430.45 367.1 Q431.8 368.45 431.8 370.4 431.8 372.35 430.45 373.7 L430.25 373.9 428.85 374.75 427.15 375.0 Q425.25 375.0 423.9 373.7 422.55 372.35 422.55 370.4 422.55 368.55 423.75 367.3 L423.9 367.1 Q424.4 366.6 424.95 366.35 425.95 365.75 427.15 365.75 429.1 365.75 430.45 367.1" fill="#2b9fc4" fill-rule="evenodd" stroke="none"/>
    <path d="M425.0 366.25 Q425.9 365.75 426.95 365.75 428.7 365.75 429.9 366.95 430.7 367.75 431.0 368.75 L431.15 369.9 431.0 371.05 Q430.7 372.05 429.9 372.85 L429.75 373.05 425.0 366.25 M428.5 373.8 L426.95 374.05 Q425.25 374.05 424.05 372.85 422.85 371.65 422.85 369.9 422.85 368.25 423.9 367.1 L428.5 373.8" fill="#91dff7" fill-rule="evenodd" stroke="none"/>
    <path d="M429.75 373.05 L428.5 373.8 423.9 367.1 424.05 366.95 425.0 366.25 429.75 373.05" fill="#68c8e7" fill-rule="evenodd" stroke="none"/>
    <path d="M468.85 351.5 Q468.85 353.45 467.5 354.8 L467.3 355.0 465.9 355.85 464.2 356.1 Q462.3 356.1 460.95 354.8 459.6 353.45 459.6 351.5 459.6 349.65 460.8 348.4 L460.95 348.2 462.0 347.45 Q463.0 346.85 464.2 346.85 466.15 346.85 467.5 348.2 468.85 349.55 468.85 351.5" fill="#2799bd" fill-rule="evenodd" stroke="none"/>
    <path d="M462.05 347.35 Q462.95 346.85 464.0 346.85 465.75 346.85 466.95 348.05 467.75 348.85 468.05 349.85 L468.2 351.0 468.05 352.15 Q467.75 353.15 466.95 353.95 L466.8 354.15 462.05 347.35 M465.55 354.9 L464.0 355.15 Q462.3 355.15 461.1 353.95 459.9 352.75 459.9 351.0 459.9 349.35 460.95 348.2 L465.55 354.9" fill="#91dff7" fill-rule="evenodd" stroke="none"/>
    <path d="M466.8 354.15 L465.55 354.9 460.95 348.2 461.1 348.05 462.05 347.35 466.8 354.15" fill="#68c8e7" fill-rule="evenodd" stroke="none"/>
    <path d="M541.7 121.85 Q543.05 123.2 543.05 125.15 543.05 127.1 541.7 128.45 L541.5 128.65 540.1 129.5 538.4 129.75 Q536.5 129.75 535.15 128.45 533.8 127.1 533.8 125.15 533.8 123.3 535.0 122.05 L535.15 121.85 Q535.65 121.35 536.2 121.1 537.2 120.5 538.4 120.5 540.35 120.5 541.7 121.85" fill="#2d9fc4" fill-rule="evenodd" stroke="none"/>
    <path d="M535.15 121.85 L535.3 121.7 536.25 121.0 541.0 127.8 539.75 128.55 535.15 121.85" fill="#68c8e7" fill-rule="evenodd" stroke="none"/>
    <path d="M536.25 121.0 Q537.15 120.5 538.2 120.5 539.95 120.5 541.15 121.7 541.95 122.5 542.25 123.5 L542.4 124.65 542.25 125.8 Q541.95 126.8 541.15 127.6 L541.0 127.8 536.25 121.0 M539.75 128.55 L538.2 128.8 Q536.5 128.8 535.3 127.6 534.1 126.4 534.1 124.65 534.1 123.0 535.15 121.85 L539.75 128.55" fill="#91dff7" fill-rule="evenodd" stroke="none"/>
    <path d="M541.7 160.05 Q543.05 161.4 543.05 163.35 543.05 165.3 541.7 166.65 L541.5 166.85 540.1 167.7 538.4 167.95 Q536.5 167.95 535.15 166.65 533.8 165.3 533.8 163.35 533.8 161.5 535.0 160.25 L535.15 160.05 Q535.65 159.55 536.2 159.3 537.2 158.7 538.4 158.7 540.35 158.7 541.7 160.05" fill="#2ea3c9" fill-rule="evenodd" stroke="none"/>
    <path d="M536.25 159.2 Q537.15 158.7 538.2 158.7 539.95 158.7 541.15 159.9 541.95 160.7 542.25 161.7 L542.4 162.85 542.25 164.0 Q541.95 165.0 541.15 165.8 L541.0 166.0 536.25 159.2 M539.75 166.75 L538.2 167.0 Q536.5 167.0 535.3 165.8 534.1 164.6 534.1 162.85 534.1 161.2 535.15 160.05 L539.75 166.75" fill="#91dff7" fill-rule="evenodd" stroke="none"/>
    <path d="M541.0 166.0 L539.75 166.75 535.15 160.05 535.3 159.9 536.25 159.2 541.0 166.0" fill="#68c8e7" fill-rule="evenodd" stroke="none"/>
    <path d="M510.7 142.45 Q512.05 143.8 512.05 145.75 512.05 147.7 510.7 149.05 L510.5 149.25 509.1 150.1 507.4 150.35 Q505.5 150.35 504.15 149.05 502.8 147.7 502.8 145.75 502.8 143.9 504.0 142.65 L504.15 142.45 Q504.65 141.95 505.2 141.7 506.2 141.1 507.4 141.1 509.35 141.1 510.7 142.45" fill="#249abf" fill-rule="evenodd" stroke="none"/>
    <path d="M508.75 149.15 L507.2 149.4 Q505.5 149.4 504.3 148.2 503.1 147.0 503.1 145.25 503.1 143.6 504.15 142.45 L508.75 149.15 M505.25 141.6 Q506.15 141.1 507.2 141.1 508.95 141.1 510.15 142.3 510.95 143.1 511.25 144.1 L511.4 145.25 511.25 146.4 Q510.95 147.4 510.15 148.2 L510.0 148.4 505.25 141.6" fill="#91dff7" fill-rule="evenodd" stroke="none"/>
    <path d="M504.15 142.45 L504.3 142.3 Q504.75 141.85 505.25 141.6 L510.0 148.4 508.75 149.15 504.15 142.45" fill="#68c8e7" fill-rule="evenodd" stroke="none"/>
    <path d="M115.5 142.45 Q116.85 143.8 116.85 145.75 116.85 147.7 115.5 149.05 L115.3 149.25 113.9 150.1 112.2 150.35 Q110.3 150.35 108.95 149.05 107.6 147.7 107.6 145.75 107.6 143.9 108.8 142.65 L108.95 142.45 110.0 141.7 Q111.0 141.1 112.2 141.1 114.15 141.1 115.5 142.45" fill="#249abf" fill-rule="evenodd" stroke="none"/>
    <path d="M110.05 141.6 Q110.95 141.1 112.0 141.1 113.75 141.1 114.95 142.3 115.75 143.1 116.05 144.1 L116.2 145.25 116.05 146.4 Q115.75 147.4 114.95 148.2 L114.8 148.4 110.05 141.6 M113.55 149.15 L112.0 149.4 Q110.3 149.4 109.1 148.2 107.9 147.0 107.9 145.25 107.9 143.6 108.95 142.45 L113.55 149.15" fill="#91dff7" fill-rule="evenodd" stroke="none"/>
    <path d="M108.95 142.45 L109.1 142.3 110.05 141.6 114.8 148.4 113.55 149.15 108.95 142.45" fill="#68c8e7" fill-rule="evenodd" stroke="none"/>
    <path d="M479.15 81.75 L478.95 81.95 477.55 82.8 475.85 83.05 Q473.95 83.05 472.6 81.75 471.25 80.4 471.25 78.45 471.25 76.6 472.45 75.35 L472.6 75.15 473.65 74.4 Q474.65 73.8 475.85 73.8 477.8 73.8 479.15 75.15 480.5 76.5 480.5 78.45 480.5 80.4 479.15 81.75" fill="#1f90b4" fill-rule="evenodd" stroke="none"/>
    <path d="M478.45 81.1 L477.2 81.85 472.6 75.15 472.75 75.0 473.7 74.3 478.45 81.1" fill="#68c8e7" fill-rule="evenodd" stroke="none"/>
    <path d="M473.7 74.3 Q474.6 73.8 475.65 73.8 477.4 73.8 478.6 75.0 479.4 75.8 479.7 76.8 L479.85 77.95 479.7 79.1 Q479.4 80.1 478.6 80.9 L478.45 81.1 473.7 74.3 M477.2 81.85 L475.65 82.1 Q473.95 82.1 472.75 80.9 471.55 79.7 471.55 77.95 471.55 76.3 472.6 75.15 L477.2 81.85" fill="#91dff7" fill-rule="evenodd" stroke="none"/>
    <path d="M430.85 108.6 L427.85 108.45 442.0 105.45 453.7 111.75 472.7 109.45 473.0 109.5 471.55 109.8 451.5 115.95 450.1 114.9 444.0 119.3 442.1 120.5 447.2 114.35 447.45 114.0 448.15 113.35 442.4 109.1 430.85 108.6" fill="#39add2" fill-rule="evenodd" stroke="none"/>
    <path d="M471.55 109.8 L452.0 117.85 449.9 116.0 444.0 119.3 450.1 114.9 451.5 115.95 471.55 109.8 M447.2 114.35 L441.85 110.8 430.85 108.6 442.4 109.1 448.15 113.35 447.45 114.0 447.2 114.35" fill="#88e0fc" fill-rule="evenodd" stroke="none"/>
    <path d="M226.2 94.2 L208.95 93.5 206.65 106.35 200.55 106.8 203.75 114.95 197.8 122.6 199.1 114.45 196.1 107.5 181.0 108.85 177.15 98.65 169.25 102.6 177.15 94.7 186.05 103.35 201.0 101.15 205.7 89.05 221.75 91.1 233.25 85.1 226.2 94.2" fill="#39add2" fill-rule="evenodd" stroke="none"/>
    <path d="M233.2 85.5 L227.95 95.9 210.45 96.4 208.85 109.4 204.45 109.4 206.5 116.75 197.65 122.85 203.65 115.25 200.5 107.1 206.5 106.6 208.85 93.85 226.4 93.85 233.2 85.5" fill="#9be4fc" fill-rule="evenodd" stroke="none"/>
    <path d="M180.9 109.15 L196.05 107.85 197.65 112.2 180.9 111.15 177.5 102.5 177.75 101.5 180.9 109.15" fill="#9be4fc" fill-rule="evenodd" stroke="none"/>
    <path d="M208.05 87.05 L219.55 87.55 205.95 89.1 208.05 87.05" fill="#9be4fc" fill-rule="evenodd" stroke="none"/>
    <path d="M201.65 120.45 L204.2 130.7 198.1 122.2 201.65 120.45" fill="#39add2" fill-rule="evenodd" stroke="none"/>
    <path d="M36.6 53.55 L50.45 64.1 56.05 60.45 61.1 63.85 60.85 58.75 67.9 59.3 64.5 61.75 64.95 66.25 77.65 74.7 77.9 81.0 85.45 84.15 76.75 82.55 72.0 73.9 59.15 65.85 51.85 67.8 39.35 57.45 28.2 53.0 36.6 53.55" fill="#39add2" fill-rule="evenodd" stroke="none"/>
    <path d="M29.6 56.75 L36.85 55.75 51.25 65.95 56.25 61.8 59.85 64.4 60.25 60.35 69.25 63.2 62.2 62.6 62.4 67.65 57.35 64.3 51.85 67.9 37.55 57.5 29.6 56.75" fill="#9be4fc" fill-rule="evenodd" stroke="none"/>
    <path d="M78.95 78.5 L66.2 70.0 66.2 67.35 79.5 77.7 79.85 83.1 Q79.5 83.15 79.35 83.35 L78.95 78.5" fill="#9be4fc" fill-rule="evenodd" stroke="none"/>
    <path d="M51.35 72.05 L42.1 65.05 53.65 72.5 51.35 72.05" fill="#9be4fc" fill-rule="evenodd" stroke="none"/>
    <path d="M68.6 62.0 L69.45 56.45 71.95 63.45 68.6 62.0" fill="#39add2" fill-rule="evenodd" stroke="none"/>
    <path d="M31.95 287.7 L28.95 287.55 43.1 284.55 54.8 290.85 73.8 288.55 74.1 288.6 72.65 288.9 52.6 295.05 51.2 294.0 45.1 298.4 43.2 299.6 48.3 293.45 48.55 293.1 49.25 292.45 43.5 288.2 31.95 287.7" fill="#39add2" fill-rule="evenodd" stroke="none"/>
    <path d="M72.65 288.9 L53.1 296.95 51.0 295.1 45.1 298.4 51.2 294.0 52.6 295.05 72.65 288.9 M48.3 293.45 L42.95 289.9 31.95 287.7 43.5 288.2 49.25 292.45 48.55 293.1 48.3 293.45" fill="#88e0fc" fill-rule="evenodd" stroke="none"/>
    <path d="M572.7 242.1 L551.4 262.55 556.05 272.8 549.0 280.45 557.55 281.35 554.85 293.0 551.7 286.65 544.0 286.25 526.45 305.3 515.9 304.0 508.65 315.9 513.6 301.7 529.4 296.0 546.25 276.6 544.85 263.9 565.5 245.65 575.9 228.3 572.7 242.1" fill="#39add2" fill-rule="evenodd" stroke="none"/>
    <path d="M573.6 230.5 L573.35 242.95 552.45 264.4 558.1 273.85 552.7 279.25 559.55 280.95 552.35 295.3 555.15 283.6 546.7 282.65 553.65 275.05 Q551.55 269.8 549.1 264.8 L570.3 243.65 573.6 230.5" fill="#9be4fc" fill-rule="evenodd" stroke="none"/>
    <path d="M524.1 307.55 L541.75 288.45 546.15 289.05 525.3 308.7 516.15 307.8 515.9 306.9 524.1 307.55" fill="#9be4fc" fill-rule="evenodd" stroke="none"/>
    <path d="M543.0 261.65 L557.25 248.05 541.7 265.35 543.0 261.65" fill="#9be4fc" fill-rule="evenodd" stroke="none"/>
    <path d="M555.2 290.95 Q559.9 292.2 564.35 293.75 L552.0 296.2 555.2 290.95" fill="#39add2" fill-rule="evenodd" stroke="none"/>
    <path d="M78.9 124.35 L79.05 124.15 Q79.55 123.65 80.1 123.4 81.1 122.8 82.3 122.8 84.25 122.8 85.6 124.15 86.95 125.5 86.95 127.45 86.95 129.4 85.6 130.75 L85.4 130.95 84.0 131.8 82.3 132.05 Q80.4 132.05 79.05 130.75 77.7 129.4 77.7 127.45 77.7 125.6 78.9 124.35" fill="#1e9ac2" fill-rule="evenodd" stroke="none"/>
    <path d="M80.15 123.3 Q81.05 122.8 82.1 122.8 83.85 122.8 85.05 124.0 85.85 124.8 86.15 125.8 L86.3 126.95 86.15 128.1 Q85.85 129.1 85.05 129.9 L84.9 130.1 80.15 123.3 M83.65 130.85 L82.1 131.1 Q80.4 131.1 79.2 129.9 78.0 128.7 78.0 126.95 78.0 125.3 79.05 124.15 L83.65 130.85" fill="#91dff7" fill-rule="evenodd" stroke="none"/>
    <path d="M79.05 124.15 L79.2 124.0 80.15 123.3 84.9 130.1 83.65 130.85 79.05 124.15" fill="#68c8e7" fill-rule="evenodd" stroke="none"/>
    <path d="M137.7 86.45 Q139.05 87.8 139.05 89.75 139.05 91.7 137.7 93.05 L137.5 93.25 136.1 94.1 134.4 94.35 Q132.5 94.35 131.15 93.05 129.8 91.7 129.8 89.75 129.8 87.9 131.0 86.65 L131.15 86.45 Q131.65 85.95 132.2 85.7 133.2 85.1 134.4 85.1 136.35 85.1 137.7 86.45" fill="#1d98bf" fill-rule="evenodd" stroke="none"/>
    <path d="M132.25 85.6 Q133.15 85.1 134.2 85.1 135.95 85.1 137.15 86.3 137.95 87.1 138.25 88.1 L138.4 89.25 138.25 90.4 Q137.95 91.4 137.15 92.2 L137.0 92.4 132.25 85.6 M135.75 93.15 L134.2 93.4 Q132.5 93.4 131.3 92.2 130.1 91.0 130.1 89.25 130.1 87.6 131.15 86.45 L135.75 93.15" fill="#91dff7" fill-rule="evenodd" stroke="none"/>
    <path d="M137.0 92.4 L135.75 93.15 131.15 86.45 131.3 86.3 132.25 85.6 137.0 92.4" fill="#68c8e7" fill-rule="evenodd" stroke="none"/>
    <path d="M175.9 356.8 Q175.9 358.75 174.55 360.1 L174.35 360.3 172.95 361.15 171.25 361.4 Q169.35 361.4 168.0 360.1 166.65 358.75 166.65 356.8 166.65 354.95 167.85 353.7 L168.0 353.5 169.05 352.75 Q170.05 352.15 171.25 352.15 173.2 352.15 174.55 353.5 175.9 354.85 175.9 356.8" fill="#31a7cd" fill-rule="evenodd" stroke="none"/>
    <path d="M169.1 352.65 Q170.0 352.15 171.05 352.15 172.8 352.15 174.0 353.35 174.8 354.15 175.1 355.15 L175.25 356.3 175.1 357.45 Q174.8 358.45 174.0 359.25 L173.85 359.45 169.1 352.65 M172.6 360.2 L171.05 360.45 Q169.35 360.45 168.15 359.25 166.95 358.05 166.95 356.3 166.95 354.65 168.0 353.5 L172.6 360.2" fill="#91dff7" fill-rule="evenodd" stroke="none"/>
    <path d="M173.85 359.45 L172.6 360.2 168.0 353.5 168.15 353.35 Q168.6 352.9 169.1 352.65 L173.85 359.45" fill="#68c8e7" fill-rule="evenodd" stroke="none"/>
    <path d="M77.7 160.0 Q77.7 158.15 78.9 156.9 L79.05 156.7 Q79.55 156.2 80.1 155.95 81.1 155.35 82.3 155.35 84.25 155.35 85.6 156.7 86.95 158.05 86.95 160.0 86.95 161.95 85.6 163.3 L85.4 163.5 84.0 164.35 82.3 164.6 Q80.4 164.6 79.05 163.3 77.7 161.95 77.7 160.0" fill="#2192b6" fill-rule="evenodd" stroke="none"/>
    <path d="M79.05 156.7 L79.2 156.55 80.15 155.85 84.9 162.65 83.65 163.4 79.05 156.7" fill="#68c8e7" fill-rule="evenodd" stroke="none"/>
    <path d="M83.65 163.4 L82.1 163.65 Q80.4 163.65 79.2 162.45 78.0 161.25 78.0 159.5 78.0 157.85 79.05 156.7 L83.65 163.4 M80.15 155.85 Q81.05 155.35 82.1 155.35 83.85 155.35 85.05 156.55 85.85 157.35 86.15 158.35 L86.3 159.5 86.15 160.65 Q85.85 161.65 85.05 162.45 L84.9 162.65 80.15 155.85" fill="#91dff7" fill-rule="evenodd" stroke="none"/>
    <path d="M202.95 339.0 Q201.05 339.0 199.7 337.7 198.35 336.35 198.35 334.4 198.35 332.55 199.55 331.3 L199.7 331.1 200.75 330.35 Q201.75 329.75 202.95 329.75 204.9 329.75 206.25 331.1 207.6 332.45 207.6 334.4 207.6 336.35 206.25 337.7 L206.05 337.9 204.65 338.75 202.95 339.0" fill="#2da7cd" fill-rule="evenodd" stroke="none"/>
    <path d="M200.8 330.25 Q201.7 329.75 202.75 329.75 204.5 329.75 205.7 330.95 206.5 331.75 206.8 332.75 L206.95 333.9 206.8 335.05 Q206.5 336.05 205.7 336.85 L205.55 337.05 200.8 330.25 M204.3 337.8 L202.75 338.05 Q201.05 338.05 199.85 336.85 198.65 335.65 198.65 333.9 198.65 332.25 199.7 331.1 L204.3 337.8" fill="#91dff7" fill-rule="evenodd" stroke="none"/>
    <path d="M205.55 337.05 L204.3 337.8 199.7 331.1 199.85 330.95 200.8 330.25 205.55 337.05" fill="#68c8e7" fill-rule="evenodd" stroke="none"/>
    <path d="M199.55 367.25 L199.7 367.05 200.75 366.3 Q201.75 365.7 202.95 365.7 204.9 365.7 206.25 367.05 207.6 368.4 207.6 370.35 207.6 372.3 206.25 373.65 L206.05 373.85 204.65 374.7 202.95 374.95 Q201.05 374.95 199.7 373.65 198.35 372.3 198.35 370.35 198.35 368.5 199.55 367.25" fill="#36a7cb" fill-rule="evenodd" stroke="none"/>
    <path d="M199.7 367.05 L199.85 366.9 200.8 366.2 205.55 373.0 204.3 373.75 199.7 367.05" fill="#68c8e7" fill-rule="evenodd" stroke="none"/>
    <path d="M204.3 373.75 L202.75 374.0 Q201.05 374.0 199.85 372.8 198.65 371.6 198.65 369.85 198.65 368.2 199.7 367.05 L204.3 373.75 M200.8 366.2 Q201.7 365.7 202.75 365.7 204.5 365.7 205.7 366.9 206.5 367.7 206.8 368.7 L206.95 369.85 206.8 371.0 Q206.5 372.0 205.7 372.8 L205.55 373.0 200.8 366.2" fill="#91dff7" fill-rule="evenodd" stroke="none"/>
    <path d="M422.55 334.4 Q422.55 332.55 423.75 331.3 L423.9 331.1 Q424.4 330.6 424.95 330.35 425.95 329.75 427.15 329.75 429.1 329.75 430.45 331.1 431.8 332.45 431.8 334.4 431.8 336.35 430.45 337.7 L430.25 337.9 428.85 338.75 427.15 339.0 Q425.25 339.0 423.9 337.7 422.55 336.35 422.55 334.4" fill="#34a6cb" fill-rule="evenodd" stroke="none"/>
    <path d="M428.5 337.8 L426.95 338.05 Q425.25 338.05 424.05 336.85 422.85 335.65 422.85 333.9 422.85 332.25 423.9 331.1 L428.5 337.8 M425.0 330.25 Q425.9 329.75 426.95 329.75 428.7 329.75 429.9 330.95 430.7 331.75 431.0 332.75 L431.15 333.9 431.0 335.05 Q430.7 336.05 429.9 336.85 L429.75 337.05 425.0 330.25" fill="#91dff7" fill-rule="evenodd" stroke="none"/>
    <path d="M423.9 331.1 L424.05 330.95 425.0 330.25 429.75 337.05 428.5 337.8 423.9 331.1" fill="#68c8e7" fill-rule="evenodd" stroke="none"/>
    <path d="M430.45 367.1 Q431.8 368.45 431.8 370.4 431.8 372.35 430.45 373.7 L430.25 373.9 428.85 374.75 427.15 375.0 Q425.25 375.0 423.9 373.7 422.55 372.35 422.55 370.4 422.55 368.55 423.75 367.3 L423.9 367.1 Q424.4 366.6 424.95 366.35 425.95 365.75 427.15 365.75 429.1 365.75 430.45 367.1" fill="#2b9fc4" fill-rule="evenodd" stroke="none"/>
    <path d="M425.0 366.25 Q425.9 365.75 426.95 365.75 428.7 365.75 429.9 366.95 430.7 367.75 431.0 368.75 L431.15 369.9 431.0 371.05 Q430.7 372.05 429.9 372.85 L429.75 373.05 425.0 366.25 M428.5 373.8 L426.95 374.05 Q425.25 374.05 424.05 372.85 422.85 371.65 422.85 369.9 422.85 368.25 423.9 367.1 L428.5 373.8" fill="#91dff7" fill-rule="evenodd" stroke="none"/>
    <path d="M429.75 373.05 L428.5 373.8 423.9 367.1 424.05 366.95 425.0 366.25 429.75 373.05" fill="#68c8e7" fill-rule="evenodd" stroke="none"/>
    <path d="M467.3 355.0 L465.9 355.85 464.2 356.1 Q462.3 356.1 460.95 354.8 459.6 353.45 459.6 351.5 459.6 349.65 460.8 348.4 L460.95 348.2 462.0 347.45 Q463.0 346.85 464.2 346.85 466.15 346.85 467.5 348.2 468.85 349.55 468.85 351.5 468.85 353.45 467.5 354.8 L467.3 355.0" fill="#2799bd" fill-rule="evenodd" stroke="none"/>
    <path d="M462.05 347.35 Q462.95 346.85 464.0 346.85 465.75 346.85 466.95 348.05 467.75 348.85 468.05 349.85 L468.2 351.0 468.05 352.15 Q467.75 353.15 466.95 353.95 L466.8 354.15 462.05 347.35 M465.55 354.9 L464.0 355.15 Q462.3 355.15 461.1 353.95 459.9 352.75 459.9 351.0 459.9 349.35 460.95 348.2 L465.55 354.9" fill="#91dff7" fill-rule="evenodd" stroke="none"/>
    <path d="M466.8 354.15 L465.55 354.9 460.95 348.2 461.1 348.05 462.05 347.35 466.8 354.15" fill="#68c8e7" fill-rule="evenodd" stroke="none"/>
    <path d="M541.7 121.85 Q543.05 123.2 543.05 125.15 543.05 127.1 541.7 128.45 L541.5 128.65 540.1 129.5 538.4 129.75 Q536.5 129.75 535.15 128.45 533.8 127.1 533.8 125.15 533.8 123.3 535.0 122.05 L535.15 121.85 Q535.65 121.35 536.2 121.1 537.2 120.5 538.4 120.5 540.35 120.5 541.7 121.85" fill="#2d9fc4" fill-rule="evenodd" stroke="none"/>
    <path d="M535.15 121.85 L535.3 121.7 536.25 121.0 541.0 127.8 539.75 128.55 535.15 121.85" fill="#68c8e7" fill-rule="evenodd" stroke="none"/>
    <path d="M536.25 121.0 Q537.15 120.5 538.2 120.5 539.95 120.5 541.15 121.7 541.95 122.5 542.25 123.5 L542.4 124.65 542.25 125.8 Q541.95 126.8 541.15 127.6 L541.0 127.8 536.25 121.0 M539.75 128.55 L538.2 128.8 Q536.5 128.8 535.3 127.6 534.1 126.4 534.1 124.65 534.1 123.0 535.15 121.85 L539.75 128.55" fill="#91dff7" fill-rule="evenodd" stroke="none"/>
    <path d="M541.7 160.05 Q543.05 161.4 543.05 163.35 543.05 165.3 541.7 166.65 L541.5 166.85 540.1 167.7 538.4 167.95 Q536.5 167.95 535.15 166.65 533.8 165.3 533.8 163.35 533.8 161.5 535.0 160.25 L535.15 160.05 Q535.65 159.55 536.2 159.3 537.2 158.7 538.4 158.7 540.35 158.7 541.7 160.05" fill="#2ea3c9" fill-rule="evenodd" stroke="none"/>
    <path d="M536.25 159.2 Q537.15 158.7 538.2 158.7 539.95 158.7 541.15 159.9 541.95 160.7 542.25 161.7 L542.4 162.85 542.25 164.0 Q541.95 165.0 541.15 165.8 L541.0 166.0 536.25 159.2 M539.75 166.75 L538.2 167.0 Q536.5 167.0 535.3 165.8 534.1 164.6 534.1 162.85 534.1 161.2 535.15 160.05 L539.75 166.75" fill="#91dff7" fill-rule="evenodd" stroke="none"/>
    <path d="M541.0 166.0 L539.75 166.75 535.15 160.05 535.3 159.9 536.25 159.2 541.0 166.0" fill="#68c8e7" fill-rule="evenodd" stroke="none"/>
    <path d="M507.4 141.1 Q509.35 141.1 510.7 142.45 512.05 143.8 512.05 145.75 512.05 147.7 510.7 149.05 L510.5 149.25 509.1 150.1 507.4 150.35 Q505.5 150.35 504.15 149.05 502.8 147.7 502.8 145.75 502.8 143.9 504.0 142.65 L504.15 142.45 Q504.65 141.95 505.2 141.7 506.2 141.1 507.4 141.1" fill="#249abf" fill-rule="evenodd" stroke="none"/>
    <path d="M508.75 149.15 L507.2 149.4 Q505.5 149.4 504.3 148.2 503.1 147.0 503.1 145.25 503.1 143.6 504.15 142.45 L508.75 149.15 M505.25 141.6 Q506.15 141.1 507.2 141.1 508.95 141.1 510.15 142.3 510.95 143.1 511.25 144.1 L511.4 145.25 511.25 146.4 Q510.95 147.4 510.15 148.2 L510.0 148.4 505.25 141.6" fill="#91dff7" fill-rule="evenodd" stroke="none"/>
    <path d="M504.15 142.45 L504.3 142.3 Q504.75 141.85 505.25 141.6 L510.0 148.4 508.75 149.15 504.15 142.45" fill="#68c8e7" fill-rule="evenodd" stroke="none"/>
    <path d="M116.85 145.75 Q116.85 147.7 115.5 149.05 L115.3 149.25 113.9 150.1 112.2 150.35 Q110.3 150.35 108.95 149.05 107.6 147.7 107.6 145.75 107.6 143.9 108.8 142.65 L108.95 142.45 110.0 141.7 Q111.0 141.1 112.2 141.1 114.15 141.1 115.5 142.45 116.85 143.8 116.85 145.75" fill="#249abf" fill-rule="evenodd" stroke="none"/>
    <path d="M108.95 142.45 L109.1 142.3 110.05 141.6 114.8 148.4 113.55 149.15 108.95 142.45" fill="#68c8e7" fill-rule="evenodd" stroke="none"/>
    <path d="M113.55 149.15 L112.0 149.4 Q110.3 149.4 109.1 148.2 107.9 147.0 107.9 145.25 107.9 143.6 108.95 142.45 L113.55 149.15 M110.05 141.6 Q110.95 141.1 112.0 141.1 113.75 141.1 114.95 142.3 115.75 143.1 116.05 144.1 L116.2 145.25 116.05 146.4 Q115.75 147.4 114.95 148.2 L114.8 148.4 110.05 141.6" fill="#91dff7" fill-rule="evenodd" stroke="none"/>
    <path d="M480.5 78.45 Q480.5 80.4 479.15 81.75 L478.95 81.95 477.55 82.8 475.85 83.05 Q473.95 83.05 472.6 81.75 471.25 80.4 471.25 78.45 471.25 76.6 472.45 75.35 L472.6 75.15 473.65 74.4 Q474.65 73.8 475.85 73.8 477.8 73.8 479.15 75.15 480.5 76.5 480.5 78.45" fill="#1f90b4" fill-rule="evenodd" stroke="none"/>
    <path d="M478.45 81.1 L477.2 81.85 472.6 75.15 472.75 75.0 473.7 74.3 478.45 81.1" fill="#68c8e7" fill-rule="evenodd" stroke="none"/>
    <path d="M473.7 74.3 Q474.6 73.8 475.65 73.8 477.4 73.8 478.6 75.0 479.4 75.8 479.7 76.8 L479.85 77.95 479.7 79.1 Q479.4 80.1 478.6 80.9 L478.45 81.1 473.7 74.3 M477.2 81.85 L475.65 82.1 Q473.95 82.1 472.75 80.9 471.55 79.7 471.55 77.95 471.55 76.3 472.6 75.15 L477.2 81.85" fill="#91dff7" fill-rule="evenodd" stroke="none"/>
    <path d="M430.85 108.6 L427.85 108.45 442.0 105.45 453.7 111.75 472.7 109.45 473.0 109.5 471.55 109.8 451.5 115.95 450.1 114.9 444.0 119.3 442.1 120.5 447.2 114.35 447.45 114.0 448.15 113.35 442.4 109.1 430.85 108.6" fill="#39add2" fill-rule="evenodd" stroke="none"/>
    <path d="M471.55 109.8 L452.0 117.85 449.9 116.0 444.0 119.3 450.1 114.9 451.5 115.95 471.55 109.8 M447.2 114.35 L441.85 110.8 430.85 108.6 442.4 109.1 448.15 113.35 447.45 114.0 447.2 114.35" fill="#88e0fc" fill-rule="evenodd" stroke="none"/>
    <path d="M226.2 94.2 L208.95 93.5 206.65 106.35 200.55 106.8 203.75 114.95 197.8 122.6 199.1 114.45 196.1 107.5 181.0 108.85 177.15 98.65 169.25 102.6 177.15 94.7 186.05 103.35 201.0 101.15 205.7 89.05 221.75 91.1 233.25 85.1 226.2 94.2" fill="#39add2" fill-rule="evenodd" stroke="none"/>
    <path d="M233.2 85.5 L227.95 95.9 210.45 96.4 208.85 109.4 204.45 109.4 206.5 116.75 197.65 122.85 203.65 115.25 200.5 107.1 206.5 106.6 208.85 93.85 226.4 93.85 233.2 85.5" fill="#9be4fc" fill-rule="evenodd" stroke="none"/>
    <path d="M180.9 109.15 L196.05 107.85 197.65 112.2 180.9 111.15 177.5 102.5 177.75 101.5 180.9 109.15" fill="#9be4fc" fill-rule="evenodd" stroke="none"/>
    <path d="M208.05 87.05 L219.55 87.55 205.95 89.1 208.05 87.05" fill="#9be4fc" fill-rule="evenodd" stroke="none"/>
    <path d="M201.65 120.45 L204.2 130.7 198.1 122.2 201.65 120.45" fill="#39add2" fill-rule="evenodd" stroke="none"/>
    <path d="M416.4 330.6 L382.45 339.0 381.2 352.3 369.4 355.9 377.7 361.85 368.0 372.15 368.5 363.85 360.9 358.85 331.65 368.05 321.6 360.5 307.15 368.3 320.6 356.75 340.2 360.25 368.9 350.35 375.0 336.5 406.9 330.05 427.9 318.35 416.4 330.6" fill="#39add2" fill-rule="evenodd" stroke="none"/>
    <path d="M428.25 318.55 L420.7 331.1 386.55 340.75 386.8 353.8 378.1 356.1 384.05 361.9 368.2 372.3 378.05 362.0 369.85 356.0 381.5 352.35 Q382.45 345.7 382.9 339.2 L417.15 330.0 428.25 318.55" fill="#9be4fc" fill-rule="evenodd" stroke="none"/>
    <path d="M332.0 367.5 L361.35 358.4 365.5 361.6 332.55 369.4 323.75 363.05 Q324.15 362.45 324.0 361.95 L332.0 367.5" fill="#9be4fc" fill-rule="evenodd" stroke="none"/>
    <path d="M378.1 333.5 L401.0 329.05 374.4 336.35 378.1 333.5" fill="#9be4fc" fill-rule="evenodd" stroke="none"/>
    <path d="M369.65 370.35 Q373.75 374.4 377.3 378.65 L363.25 373.85 369.65 370.35" fill="#39add2" fill-rule="evenodd" stroke="none"/>
    <path d="M36.6 53.55 L50.45 64.1 56.05 60.45 61.1 63.85 60.85 58.75 67.9 59.3 64.5 61.75 64.95 66.25 77.65 74.7 77.9 81.0 85.45 84.15 76.75 82.55 72.0 73.9 59.15 65.85 51.85 67.8 39.35 57.45 28.2 53.0 36.6 53.55" fill="#39add2" fill-rule="evenodd" stroke="none"/>
    <path d="M29.6 56.75 L36.85 55.75 51.25 65.95 56.25 61.8 59.85 64.4 60.25 60.35 69.25 63.2 62.2 62.6 62.4 67.65 57.35 64.3 51.85 67.9 37.55 57.5 29.6 56.75" fill="#9be4fc" fill-rule="evenodd" stroke="none"/>
    <path d="M78.95 78.5 L66.2 70.0 66.2 67.35 79.5 77.7 79.85 83.1 Q79.5 83.15 79.35 83.35 L78.95 78.5" fill="#9be4fc" fill-rule="evenodd" stroke="none"/>
    <path d="M51.35 72.05 L42.1 65.05 53.65 72.5 51.35 72.05" fill="#9be4fc" fill-rule="evenodd" stroke="none"/>
    <path d="M68.6 62.0 L69.45 56.45 71.95 63.45 68.6 62.0" fill="#39add2" fill-rule="evenodd" stroke="none"/>
    <path d="M31.95 287.7 L28.95 287.55 43.1 284.55 54.8 290.85 73.8 288.55 74.1 288.6 72.65 288.9 52.6 295.05 51.2 294.0 45.1 298.4 43.2 299.6 48.3 293.45 48.55 293.1 49.25 292.45 43.5 288.2 31.95 287.7" fill="#39add2" fill-rule="evenodd" stroke="none"/>
    <path d="M72.65 288.9 L53.1 296.95 51.0 295.1 45.1 298.4 51.2 294.0 52.6 295.05 72.65 288.9 M48.3 293.45 L42.95 289.9 31.95 287.7 43.5 288.2 49.25 292.45 48.55 293.1 48.3 293.45" fill="#88e0fc" fill-rule="evenodd" stroke="none"/>
    <path d="M572.7 242.1 L551.4 262.55 556.05 272.8 549.0 280.45 557.55 281.35 554.85 293.0 551.7 286.65 544.0 286.25 526.45 305.3 515.9 304.0 508.65 315.9 513.6 301.7 529.4 296.0 546.25 276.6 544.85 263.9 565.5 245.65 575.9 228.3 572.7 242.1" fill="#39add2" fill-rule="evenodd" stroke="none"/>
    <path d="M573.6 230.5 L573.35 242.95 552.45 264.4 558.1 273.85 552.7 279.25 559.55 280.95 552.35 295.3 555.15 283.6 546.7 282.65 553.65 275.05 Q551.55 269.8 549.1 264.8 L570.3 243.65 573.6 230.5" fill="#9be4fc" fill-rule="evenodd" stroke="none"/>
    <path d="M524.1 307.55 L541.75 288.45 546.15 289.05 525.3 308.7 516.15 307.8 515.9 306.9 524.1 307.55" fill="#9be4fc" fill-rule="evenodd" stroke="none"/>
    <path d="M543.0 261.65 L557.25 248.05 541.7 265.35 543.0 261.65" fill="#9be4fc" fill-rule="evenodd" stroke="none"/>
    <path d="M555.2 290.95 Q559.9 292.2 564.35 293.75 L552.0 296.2 555.2 290.95" fill="#39add2" fill-rule="evenodd" stroke="none"/>
  </g>
</svg>
