<?xml version="1.0" encoding="UTF-8" standalone="no"?>
<svg xmlns:xlink="http://www.w3.org/1999/xlink" height="40.2px" width="39.5px" xmlns="http://www.w3.org/2000/svg">
  <g transform="matrix(1.0, 0.0, 0.0, 1.0, -439.95, -42.25)">
    <path d="M448.4 49.2 L448.45 49.2 450.3 51.05 Q452.0 49.7 453.85 48.95 L454.05 48.85 453.0 46.5 453.95 45.45 Q456.9 44.25 460.45 44.25 L460.45 47.55 Q463.2 47.55 465.55 48.6 L465.7 48.65 467.0 45.45 Q470.0 46.75 472.5 49.2 L472.45 49.25 472.0 51.05 470.75 52.3 Q472.3 54.0 473.1 56.0 L476.25 54.65 Q477.45 57.7 477.45 61.2 L477.45 62.6 474.55 62.6 Q474.55 64.75 474.1 66.6 L474.05 66.9 476.25 67.75 476.25 67.85 476.25 69.45 Q475.4 71.45 474.05 73.25 L473.35 74.1 472.3 75.15 470.25 73.15 470.15 73.25 470.05 73.35 466.6 75.95 467.0 77.05 466.55 78.95 466.6 79.05 Q464.2 80.15 461.45 80.35 L460.65 80.45 459.75 80.45 459.75 77.6 459.6 77.6 Q456.7 77.6 454.05 76.65 L453.95 77.05 452.9 79.1 Q449.8 77.8 447.15 75.3 L447.35 75.1 448.45 73.3 448.8 73.0 447.2 71.0 445.85 68.45 445.85 68.4 445.8 68.4 443.35 69.45 443.2 69.45 Q441.95 66.4 441.95 62.7 L441.95 62.6 442.0 62.6 443.4 61.2 444.85 61.2 444.95 60.2 Q445.2 58.75 445.8 57.25 L445.85 57.0 445.85 56.85 443.2 55.8 443.2 55.75 443.65 54.75 443.95 54.2 Q445.15 52.0 447.05 50.1 L447.1 50.0 447.15 50.0 448.3 49.25 448.4 49.2 M464.1 61.6 L464.05 61.5 463.0 60.0 Q462.25 59.25 461.35 58.9 L459.45 58.5 457.4 58.9 Q456.5 59.25 455.8 60.0 L455.45 60.4 455.4 61.2 455.5 62.6 455.75 63.25 456.2 64.15 456.85 64.85 Q457.6 65.7 458.55 66.05 L460.45 66.4 460.75 66.4 462.45 66.0 464.05 64.85 464.45 64.45 464.45 63.65 Q464.45 62.55 464.1 61.6" fill="#b1c4cb" fill-rule="evenodd" stroke="none"/>
    <path d="M448.4 49.2 L448.45 49.2 450.3 51.05 Q452.0 49.7 453.85 48.95 L454.05 48.85 453.0 46.5 453.95 45.45 Q456.9 44.25 460.45 44.25 L460.45 47.55 Q463.2 47.55 465.55 48.6 L465.7 48.65 467.0 45.45 Q470.0 46.75 472.5 49.2 L472.45 49.25 472.0 51.05 470.75 52.3 Q472.3 54.0 473.1 56.0 L476.25 54.65 Q477.45 57.7 477.45 61.2 L477.45 62.6 474.55 62.6 Q474.55 64.75 474.1 66.6 L474.05 66.9 476.25 67.75 476.25 67.85 476.25 69.45 Q475.4 71.45 474.05 73.25 L473.35 74.1 472.3 75.15 470.25 73.15 470.15 73.25 470.05 73.35 466.6 75.95 467.0 77.05 466.55 78.95 466.6 79.05 Q464.2 80.15 461.45 80.35 L460.65 80.45 459.75 80.45 459.75 77.6 459.6 77.6 Q456.7 77.6 454.05 76.65 L453.95 77.05 452.9 79.1 Q449.8 77.8 447.15 75.3 L447.35 75.1 448.45 73.3 448.8 73.0 447.2 71.0 445.85 68.45 445.85 68.4 445.8 68.4 443.35 69.45 443.2 69.45 Q441.95 66.4 441.95 62.7 L441.95 62.6 442.0 62.6 443.4 61.2 444.85 61.2 444.95 60.2 Q445.2 58.75 445.8 57.25 L445.85 57.0 445.85 56.85 443.2 55.8 443.2 55.75 443.65 54.75 443.95 54.2 Q445.15 52.0 447.05 50.1 L447.1 50.0 447.15 50.0 448.3 49.25 448.4 49.2 M464.1 61.6 Q464.45 62.55 464.45 63.65 L464.45 64.45 464.05 64.85 462.45 66.0 460.75 66.4 460.45 66.4 458.55 66.05 Q457.6 65.7 456.85 64.85 L456.2 64.15 455.75 63.25 455.5 62.6 455.4 61.2 455.45 60.4 455.8 60.0 Q456.5 59.25 457.4 58.9 L459.45 58.5 461.35 58.9 Q462.25 59.25 463.0 60.0 L464.05 61.5 464.1 61.6" fill="none" stroke="#005c8e" stroke-linecap="round" stroke-linejoin="round" stroke-width="4.0"/>
    <path d="M448.3 49.3 L448.4 49.2 448.45 49.2 450.3 51.1 450.85 51.65 451.35 51.2 Q452.65 49.9 454.15 49.15 L454.6 48.95 455.2 48.7 455.2 48.65 453.95 45.45 Q456.9 44.25 460.45 44.25 L460.45 47.65 Q463.2 47.65 465.55 48.6 L465.7 48.65 467.0 45.45 Q470.0 46.75 472.5 49.2 L472.45 49.3 470.1 51.65 470.45 51.95 470.75 52.3 Q472.3 54.0 473.1 56.0 L476.25 54.65 Q477.45 57.7 477.45 61.2 L474.05 61.2 474.05 61.3 474.05 61.5 Q471.0 60.55 467.8 60.9 L466.15 61.1 465.8 59.5 Q465.3 58.4 464.4 57.5 L462.55 56.2 Q461.4 55.75 460.25 55.75 459.0 55.75 457.9 56.2 456.85 56.6 455.95 57.5 L455.9 57.5 Q455.1 58.4 454.65 59.5 L454.25 60.75 454.2 61.7 454.25 62.6 Q450.65 62.6 448.1 59.9 L447.65 59.5 447.05 58.65 447.05 58.6 447.55 56.6 447.85 56.0 444.7 54.75 444.65 54.65 444.7 54.65 445.15 53.7 Q446.05 51.95 447.45 50.3 L448.3 49.3" fill="#bbd4de" fill-rule="evenodd" stroke="none"/>
    <path d="M454.05 48.85 L453.0 46.5 453.95 45.45 455.2 48.65 455.2 48.7 454.05 48.85 M477.45 61.2 L477.45 62.6 474.55 62.6 474.05 61.3 474.05 61.2 477.45 61.2 M472.3 75.25 L470.25 73.15 470.1 70.95 470.1 70.85 472.45 73.25 472.3 75.25 M459.75 80.45 L459.75 77.65 459.6 77.65 460.45 74.95 460.45 78.25 459.75 80.45 M453.95 77.05 L452.9 79.1 Q449.8 77.9 447.15 75.3 L447.35 75.1 448.45 73.3 448.75 73.65 Q451.05 75.85 453.95 77.05 M445.85 68.45 L445.85 68.4 445.8 68.4 443.35 69.5 444.65 67.8 447.85 66.45 445.85 68.45 M445.85 56.9 L443.2 55.8 443.2 55.75 444.7 54.75 447.85 56.0 445.85 56.9" fill="#516870" fill-rule="evenodd" stroke="none"/>
    <path d="M450.3 51.1 Q452.0 49.7 453.85 48.95 L454.05 48.85 455.2 48.7 454.6 48.95 454.15 49.15 Q452.65 49.9 451.35 51.2 L450.85 51.65 450.3 51.1 M472.45 49.3 L472.0 51.1 470.75 52.3 470.45 51.95 470.1 51.65 472.45 49.3 M474.55 62.6 L474.55 62.65 Q474.55 64.75 474.1 66.6 L474.05 66.9 473.15 66.45 473.6 65.1 474.0 63.35 474.05 62.6 474.05 62.45 474.05 61.5 474.05 61.3 474.55 62.6 M476.25 67.8 L476.25 69.45 Q475.4 71.45 474.05 73.25 L473.35 74.1 472.3 75.25 472.45 73.25 472.5 73.25 474.9 70.45 475.6 69.15 476.25 67.8 M470.25 73.15 L470.25 73.2 470.15 73.25 470.05 73.45 466.6 76.0 465.7 73.95 Q468.1 72.9 470.1 70.95 L470.25 73.15 M467.0 77.05 L466.55 78.95 466.6 79.05 Q464.2 80.15 461.45 80.35 L460.65 80.45 459.75 80.45 460.45 78.25 465.35 77.65 465.9 77.5 467.0 77.05 M459.6 77.65 Q456.7 77.65 454.05 76.65 L455.2 73.95 Q457.7 74.95 460.45 74.95 L459.6 77.65 M448.8 73.05 L447.2 71.0 445.85 68.45 447.85 66.45 448.35 67.7 Q449.3 69.45 450.85 70.85 L448.8 73.05 M443.35 69.5 L443.2 69.5 Q441.95 66.4 441.95 62.7 L441.95 62.6 442.0 62.6 443.4 61.2 443.45 62.6 Q443.6 64.4 444.0 66.05 L444.65 67.8 443.35 69.5 M444.85 61.2 L444.95 60.2 Q445.2 58.75 445.8 57.25 L445.85 57.0 445.85 56.9 447.85 56.0 447.55 56.6 447.05 58.6 447.05 58.65 446.85 61.2 444.85 61.2 M443.2 55.75 L443.65 54.75 443.95 54.3 Q445.15 52.1 447.05 50.1 L447.1 50.05 447.15 50.05 448.3 49.3 447.45 50.3 Q446.05 51.95 445.15 53.7 L444.7 54.65 444.65 54.65 444.7 54.75 443.2 55.75" fill="#6f8891" fill-rule="evenodd" stroke="none"/>
    <path d="M474.05 66.9 L476.25 67.75 476.25 67.8 475.6 69.15 474.9 70.45 472.5 73.25 472.45 73.25 470.1 70.85 470.1 70.95 Q468.1 72.9 465.7 73.95 L466.6 76.0 467.0 77.05 465.9 77.5 465.35 77.65 460.45 78.25 460.45 74.95 Q457.7 74.95 455.2 73.95 L454.05 76.65 453.95 77.05 Q451.05 75.85 448.75 73.65 L448.45 73.3 448.8 73.05 450.85 70.85 Q449.3 69.45 448.35 67.7 L447.85 66.45 444.65 67.8 444.0 66.05 Q443.6 64.4 443.45 62.6 L443.4 61.2 444.85 61.2 446.85 61.2 447.05 58.65 447.65 59.5 448.1 59.9 Q450.65 62.6 454.25 62.6 L454.65 64.1 455.2 65.1 455.9 66.05 Q456.85 66.95 457.9 67.4 L460.25 67.8 460.55 67.8 462.6 67.3 464.4 66.05 464.9 65.6 465.8 64.1 Q466.2 63.0 466.2 61.7 L466.15 61.1 467.8 60.9 Q471.0 60.55 474.05 61.5 L474.05 62.45 474.05 62.6 474.0 63.35 473.6 65.1 473.15 66.45 474.05 66.9" fill="#b1c4cb" fill-rule="evenodd" stroke="none"/>
    <path d="M454.25 62.6 L454.2 61.7 454.25 60.75 454.65 59.5 Q455.1 58.4 455.9 57.5 L455.95 57.5 Q456.85 56.6 457.9 56.2 459.0 55.75 460.25 55.75 461.4 55.75 462.55 56.2 L464.4 57.5 Q465.3 58.4 465.8 59.5 L466.15 61.1 466.2 61.7 Q466.2 63.0 465.8 64.1 L464.9 65.6 464.4 66.05 462.6 67.3 460.55 67.8 460.25 67.8 457.9 67.4 Q456.85 66.95 455.9 66.05 L455.2 65.1 454.65 64.1 454.25 62.6 M464.45 64.45 L465.2 63.25 Q465.6 62.35 465.6 61.2 465.6 60.2 465.2 59.35 464.8 58.4 464.05 57.6 463.4 56.85 462.45 56.55 461.55 56.1 460.45 56.1 459.45 56.1 458.55 56.55 457.6 56.85 456.85 57.6 456.05 58.4 455.75 59.35 L455.45 60.4 455.4 61.2 455.5 62.6 455.75 63.25 456.2 64.15 456.85 64.85 Q457.6 65.7 458.55 66.05 L460.45 66.4 460.75 66.4 462.45 66.0 464.05 64.85 464.45 64.45" fill="#d5eef7" fill-rule="evenodd" stroke="none"/>
    <path d="M455.45 60.4 L455.75 59.35 Q456.05 58.4 456.85 57.6 457.6 56.85 458.55 56.55 459.45 56.1 460.45 56.1 461.55 56.1 462.45 56.55 463.4 56.85 464.05 57.6 464.8 58.4 465.2 59.35 465.6 60.2 465.6 61.2 465.6 62.35 465.2 63.25 L464.45 64.45 464.45 63.65 464.1 61.6 464.05 61.5 463.0 60.0 Q462.25 59.3 461.35 58.9 L459.45 58.5 457.4 58.9 Q456.5 59.3 455.8 60.0 L455.45 60.4" fill="#83979f" fill-rule="evenodd" stroke="none"/>
  </g>
</svg>
