<?xml version="1.0" encoding="UTF-8" standalone="no"?>
<svg xmlns:xlink="http://www.w3.org/1999/xlink" height="36.15px" width="35.55px" xmlns="http://www.w3.org/2000/svg">
  <g transform="matrix(1.0, 0.0, 0.0, 1.0, -568.45, -60.85)">
    <path d="M597.55 67.3 L597.15 68.9 596.05 70.0 Q597.4 71.5 598.1 73.3 L600.9 72.1 Q602.0 74.8 602.0 77.9 L602.0 79.15 599.4 79.15 Q599.4 81.05 599.0 82.7 L598.95 82.95 600.9 83.7 600.9 83.8 600.9 85.2 Q600.15 87.0 598.95 88.6 L598.35 89.35 597.4 90.3 595.6 88.5 595.5 88.6 595.4 88.7 592.35 91.0 592.7 91.95 592.3 93.65 592.35 93.75 Q590.2 94.7 587.8 94.9 L587.05 95.0 586.25 95.0 586.25 92.45 586.15 92.45 Q583.55 92.45 581.2 91.6 L581.1 91.95 580.2 93.8 Q577.45 92.65 575.1 90.4 L575.25 90.25 576.25 88.65 576.55 88.35 575.15 86.6 573.95 84.35 573.95 84.3 573.9 84.3 571.7 85.2 571.6 85.2 Q570.45 82.5 570.45 79.25 L570.45 79.15 570.5 79.15 571.75 77.9 573.05 77.9 573.15 77.0 Q573.35 75.7 573.9 74.4 L573.95 74.15 573.95 74.05 571.6 73.1 571.6 73.05 572.0 72.15 572.25 71.7 Q573.3 69.75 575.0 68.05 L575.05 67.95 575.1 67.95 576.1 67.3 576.2 67.25 576.25 67.25 577.9 68.9 Q579.4 67.7 581.05 67.0 L581.2 66.95 580.3 64.85 581.1 63.9 Q583.75 62.85 586.9 62.85 L586.9 65.8 Q589.35 65.8 591.4 66.7 L591.55 66.75 592.7 63.9 Q595.35 65.05 597.6 67.25 L597.55 67.3 M586.0 75.5 Q585.05 75.5 584.2 75.85 583.4 76.15 582.75 76.85 L582.45 77.2 582.4 77.9 582.5 79.15 582.7 79.7 583.1 80.5 583.7 81.15 Q584.35 81.9 585.2 82.2 L586.9 82.5 587.15 82.5 588.65 82.15 Q589.5 81.85 590.1 81.15 L590.45 80.8 590.45 80.05 590.15 78.25 590.1 78.15 589.15 76.85 587.7 75.85 Q586.9 75.5 586.0 75.5" fill="#b1c4cb" fill-rule="evenodd" stroke="none"/>
    <path d="M597.55 67.3 L597.15 68.9 596.05 70.0 Q597.4 71.5 598.1 73.3 L600.9 72.1 Q602.0 74.8 602.0 77.9 L602.0 79.15 599.4 79.15 Q599.4 81.05 599.0 82.7 L598.95 82.95 600.9 83.7 600.9 83.8 600.9 85.2 Q600.15 87.0 598.95 88.6 L598.35 89.35 597.4 90.3 595.6 88.5 595.5 88.6 595.4 88.7 592.35 91.0 592.7 91.95 592.3 93.65 592.35 93.75 Q590.2 94.7 587.8 94.9 L587.05 95.0 586.25 95.0 586.25 92.45 586.15 92.45 Q583.55 92.45 581.2 91.6 L581.1 91.95 580.2 93.8 Q577.45 92.65 575.1 90.4 L575.25 90.25 576.25 88.65 576.55 88.35 575.15 86.6 573.95 84.35 573.95 84.3 573.9 84.3 571.7 85.2 571.6 85.2 Q570.45 82.5 570.45 79.25 L570.45 79.15 570.5 79.15 571.75 77.9 573.05 77.9 573.15 77.0 Q573.35 75.7 573.9 74.4 L573.95 74.15 573.95 74.05 571.6 73.1 571.6 73.05 572.0 72.15 572.25 71.7 Q573.3 69.75 575.0 68.05 L575.05 67.95 575.1 67.95 576.1 67.3 576.2 67.25 576.25 67.25 577.9 68.9 Q579.4 67.7 581.05 67.0 L581.2 66.95 580.3 64.85 581.1 63.9 Q583.75 62.85 586.9 62.85 L586.9 65.8 Q589.35 65.8 591.4 66.7 L591.55 66.75 592.7 63.9 Q595.35 65.05 597.6 67.25 L597.55 67.3 M586.0 75.5 Q586.9 75.5 587.7 75.85 L589.15 76.85 590.1 78.15 590.15 78.25 590.45 80.05 590.45 80.8 590.1 81.15 Q589.5 81.85 588.65 82.15 L587.15 82.5 586.9 82.5 585.2 82.2 Q584.35 81.9 583.7 81.15 L583.1 80.5 582.7 79.7 582.5 79.15 582.4 77.9 582.45 77.2 582.75 76.85 Q583.4 76.15 584.2 75.85 585.05 75.5 586.0 75.5" fill="none" stroke="#005c8e" stroke-linecap="round" stroke-linejoin="round" stroke-width="4.0"/>
    <path d="M597.55 67.35 L597.15 68.95 596.05 70.0 595.75 69.7 595.45 69.4 597.55 67.35 M599.4 79.15 L599.4 79.2 Q599.4 81.05 599.0 82.7 L598.95 82.95 598.15 82.55 598.55 81.35 598.9 79.8 598.95 79.15 598.95 79.0 598.95 78.15 598.95 78.0 599.4 79.15 M600.9 83.75 L600.9 85.2 Q600.15 87.0 598.95 88.6 L598.35 89.35 597.4 90.35 597.55 88.6 597.6 88.6 599.7 86.1 600.35 84.95 600.9 83.75 M595.6 88.5 L595.6 88.55 595.5 88.6 595.4 88.75 592.35 91.05 591.55 89.2 Q593.7 88.3 595.45 86.55 L595.6 88.5 M592.7 91.95 L592.3 93.65 592.35 93.75 Q590.2 94.7 587.8 94.9 L587.05 95.0 586.25 95.0 586.9 93.05 591.25 92.5 591.75 92.35 592.7 91.95 M586.15 92.5 Q583.55 92.5 581.2 91.6 L582.25 89.2 Q584.45 90.1 586.9 90.1 L586.15 92.5 M576.55 88.4 L575.15 86.6 573.95 84.35 575.7 82.55 576.15 83.65 Q577.0 85.2 578.35 86.45 L576.55 88.4 M571.7 85.25 L571.6 85.25 Q570.45 82.5 570.45 79.25 L570.45 79.15 570.5 79.15 571.75 77.9 571.8 79.15 572.3 82.2 572.85 83.75 571.7 85.25 M573.05 77.9 L573.15 77.0 Q573.35 75.7 573.9 74.4 L573.95 74.15 573.95 74.1 575.7 73.3 575.45 73.8 Q575.15 74.65 575.0 75.6 L575.0 75.65 574.8 77.9 573.05 77.9 M571.6 73.05 L572.0 72.15 572.25 71.75 Q573.3 69.8 575.0 68.05 L575.05 68.0 575.1 68.0 576.1 67.35 575.35 68.2 Q574.1 69.7 573.3 71.25 L572.9 72.1 572.85 72.1 572.9 72.15 571.6 73.05 M577.9 68.95 Q579.4 67.7 581.05 67.0 L581.2 66.95 582.25 66.8 581.7 67.0 581.3 67.2 Q579.95 67.85 578.8 69.0 L578.35 69.4 577.9 68.95" fill="#6f8891" fill-rule="evenodd" stroke="none"/>
    <path d="M581.1 63.9 Q583.75 62.85 586.9 62.85 L586.9 65.85 Q589.35 65.85 591.4 66.7 L591.55 66.75 592.7 63.9 Q595.35 65.05 597.6 67.25 L597.55 67.35 595.45 69.4 595.75 69.7 596.05 70.0 Q597.4 71.5 598.1 73.3 L600.9 72.1 Q602.0 74.8 602.0 77.9 L598.95 77.9 598.95 78.0 598.95 78.15 Q596.25 77.3 593.4 77.65 L591.95 77.8 591.65 76.4 590.4 74.6 588.75 73.45 586.7 73.05 584.65 73.45 Q583.7 73.8 582.9 74.6 L582.85 74.6 Q582.15 75.4 581.75 76.4 L581.4 77.5 581.35 78.35 581.4 79.15 Q578.2 79.15 575.95 76.75 L575.55 76.4 575.0 75.65 575.0 75.6 Q575.15 74.65 575.45 73.8 L575.7 73.3 572.9 72.15 572.85 72.1 572.9 72.1 573.3 71.25 Q574.1 69.7 575.35 68.2 L576.1 67.35 576.2 67.25 576.25 67.25 577.9 68.95 578.35 69.4 578.8 69.0 Q579.95 67.85 581.3 67.2 L581.7 67.0 582.25 66.8 582.25 66.75 581.1 63.9" fill="#bbd4de" fill-rule="evenodd" stroke="none"/>
    <path d="M602.0 77.9 L602.0 79.15 599.4 79.15 598.95 78.0 598.95 77.9 602.0 77.9 M597.4 90.35 L595.6 88.5 595.45 86.55 595.45 86.45 597.55 88.6 597.4 90.35 M586.25 95.0 L586.25 92.5 586.15 92.5 586.9 90.1 586.9 93.05 586.25 95.0 M581.1 91.95 L580.2 93.8 Q577.45 92.7 575.1 90.4 L575.25 90.25 576.25 88.65 576.5 88.95 Q578.55 90.9 581.1 91.95 M573.95 84.35 L573.95 84.3 573.9 84.3 571.7 85.25 572.85 83.75 575.7 82.55 573.95 84.35 M573.95 74.1 L571.6 73.1 571.6 73.05 572.9 72.15 575.7 73.3 573.95 74.1 M581.2 66.95 L580.3 64.85 581.1 63.9 582.25 66.75 582.25 66.8 581.2 66.95" fill="#516870" fill-rule="evenodd" stroke="none"/>
    <path d="M590.45 80.8 L591.1 79.7 Q591.45 78.9 591.45 77.9 591.45 77.0 591.1 76.25 590.75 75.4 590.1 74.7 589.5 74.05 588.65 73.75 L586.9 73.35 Q586.0 73.35 585.2 73.75 584.35 74.05 583.7 74.7 583.0 75.4 582.7 76.25 582.5 76.7 582.45 77.2 L582.4 77.9 582.5 79.15 582.7 79.7 583.1 80.5 583.7 81.15 Q584.35 81.9 585.2 82.2 L586.9 82.5 587.15 82.5 588.65 82.15 Q589.5 81.85 590.1 81.15 L590.45 80.8 M581.4 79.15 L581.35 78.35 581.4 77.5 581.75 76.4 Q582.15 75.4 582.85 74.6 L582.9 74.6 Q583.7 73.8 584.65 73.45 L586.7 73.05 588.75 73.45 590.4 74.6 591.65 76.4 591.95 77.8 592.0 78.35 Q592.0 79.5 591.65 80.45 L590.85 81.8 590.4 82.2 588.8 83.3 587.0 83.75 586.7 83.75 584.65 83.4 582.85 82.2 582.25 81.35 581.75 80.45 581.4 79.15" fill="#d5eef7" fill-rule="evenodd" stroke="none"/>
    <path d="M582.45 77.2 Q582.5 76.7 582.7 76.25 583.0 75.4 583.7 74.7 584.35 74.05 585.2 73.75 586.0 73.35 586.9 73.35 L588.65 73.75 Q589.5 74.05 590.1 74.7 590.75 75.4 591.1 76.25 591.45 77.0 591.45 77.9 591.45 78.9 591.1 79.7 L590.45 80.8 590.45 80.05 590.15 78.25 590.1 78.15 589.15 76.85 587.7 75.85 Q586.9 75.5 586.0 75.5 585.05 75.5 584.2 75.85 583.4 76.2 582.75 76.85 L582.45 77.2" fill="#83979f" fill-rule="evenodd" stroke="none"/>
    <path d="M598.95 82.95 L600.9 83.7 600.9 83.75 600.35 84.95 599.7 86.1 597.6 88.6 597.55 88.6 595.45 86.45 595.45 86.55 Q593.7 88.3 591.55 89.2 L592.35 91.05 592.7 91.95 591.75 92.35 591.25 92.5 586.9 93.05 586.9 90.1 Q584.45 90.1 582.25 89.2 L581.2 91.6 581.1 91.95 Q578.55 90.9 576.5 88.95 L576.25 88.65 576.55 88.4 578.35 86.45 Q577.0 85.2 576.15 83.65 L575.7 82.55 572.85 83.75 572.3 82.2 571.8 79.15 571.75 77.9 573.05 77.9 574.8 77.9 575.0 75.65 575.55 76.4 575.95 76.75 Q578.2 79.15 581.4 79.15 L581.75 80.45 582.25 81.35 582.85 82.2 584.65 83.4 586.7 83.75 587.0 83.75 588.8 83.3 590.4 82.2 590.85 81.8 591.65 80.45 Q592.0 79.5 592.0 78.35 L591.95 77.8 593.4 77.65 Q596.25 77.3 598.95 78.15 L598.95 79.0 598.95 79.15 598.9 79.8 598.55 81.35 598.15 82.55 598.95 82.95" fill="#b1c4cb" fill-rule="evenodd" stroke="none"/>
  </g>
</svg>
