<?xml version="1.0" encoding="UTF-8" standalone="no"?>
<svg xmlns:xlink="http://www.w3.org/1999/xlink" height="36.15px" width="35.55px" xmlns="http://www.w3.org/2000/svg">
  <g transform="matrix(1.0, 0.0, 0.0, 1.0, -569.75, -395.15)">
    <path d="M598.85 401.6 L598.45 403.2 597.35 404.3 Q598.7 405.8 599.4 407.6 L602.2 406.4 Q603.3 409.1 603.3 412.2 L603.3 413.45 600.7 413.45 Q600.7 415.35 600.3 417.0 L600.25 417.25 602.2 418.0 602.2 418.1 602.2 419.5 Q601.45 421.3 600.25 422.9 L599.65 423.65 598.7 424.6 596.9 422.8 596.8 422.9 596.7 423.0 593.65 425.3 594.0 426.25 593.6 427.95 593.65 428.05 Q591.5 429.0 589.1 429.2 L588.35 429.3 587.55 429.3 587.55 426.75 587.45 426.75 Q584.85 426.75 582.5 425.9 L582.4 426.25 581.5 428.1 Q578.75 426.95 576.4 424.7 L576.55 424.55 577.55 422.95 577.85 422.65 576.45 420.9 575.25 418.65 575.25 418.6 575.2 418.6 573.0 419.5 572.9 419.5 Q571.75 416.8 571.75 413.55 L571.75 413.45 571.8 413.45 573.05 412.2 574.35 412.2 574.45 411.3 Q574.65 410.0 575.2 408.7 L575.25 408.45 575.25 408.35 572.9 407.4 572.9 407.35 573.3 406.45 573.55 406.0 Q574.6 404.05 576.3 402.35 L576.35 402.25 576.4 402.25 577.4 401.6 577.5 401.55 577.55 401.55 579.2 403.2 Q580.7 402.0 582.35 401.3 L582.5 401.25 581.6 399.15 582.4 398.2 Q585.05 397.15 588.2 397.15 L588.2 400.1 Q590.65 400.1 592.7 401.0 L592.85 401.05 594.0 398.2 Q596.65 399.35 598.9 401.55 L598.85 401.6 M589.0 410.15 L587.3 409.8 585.5 410.15 Q584.7 410.45 584.05 411.15 L583.75 411.5 583.7 412.2 583.8 413.45 584.0 414.0 584.4 414.8 585.0 415.45 Q585.65 416.2 586.5 416.5 L588.2 416.8 588.45 416.8 589.95 416.45 591.4 415.45 591.75 415.1 591.75 414.35 591.45 412.55 591.4 412.45 590.45 411.15 Q589.8 410.45 589.0 410.15" fill="#b1c4cb" fill-rule="evenodd" stroke="none"/>
    <path d="M598.85 401.6 L598.45 403.2 597.35 404.3 Q598.7 405.8 599.4 407.6 L602.2 406.4 Q603.3 409.1 603.3 412.2 L603.3 413.45 600.7 413.45 Q600.7 415.35 600.3 417.0 L600.25 417.25 602.2 418.0 602.2 418.1 602.2 419.5 Q601.45 421.3 600.25 422.9 L599.65 423.65 598.7 424.6 596.9 422.8 596.8 422.9 596.7 423.0 593.65 425.3 594.0 426.25 593.6 427.95 593.65 428.05 Q591.5 429.0 589.1 429.2 L588.35 429.3 587.55 429.3 587.55 426.75 587.45 426.75 Q584.85 426.75 582.5 425.9 L582.4 426.25 581.5 428.1 Q578.75 426.95 576.4 424.7 L576.55 424.55 577.55 422.95 577.85 422.65 576.45 420.9 575.25 418.65 575.25 418.6 575.2 418.6 573.0 419.5 572.9 419.5 Q571.75 416.8 571.75 413.55 L571.75 413.45 571.8 413.45 573.05 412.2 574.35 412.2 574.45 411.3 Q574.65 410.0 575.2 408.7 L575.25 408.45 575.25 408.35 572.9 407.4 572.9 407.35 573.3 406.45 573.55 406.0 Q574.6 404.05 576.3 402.35 L576.35 402.25 576.4 402.25 577.4 401.6 577.5 401.55 577.55 401.55 579.2 403.2 Q580.7 402.0 582.35 401.3 L582.5 401.25 581.6 399.15 582.4 398.2 Q585.05 397.15 588.2 397.15 L588.2 400.1 Q590.65 400.1 592.7 401.0 L592.85 401.05 594.0 398.2 Q596.65 399.35 598.9 401.55 L598.85 401.6 M589.0 410.15 Q589.8 410.45 590.45 411.15 L591.4 412.45 591.45 412.55 591.75 414.35 591.75 415.1 591.4 415.45 589.95 416.45 588.45 416.8 588.2 416.8 586.5 416.5 Q585.65 416.2 585.0 415.45 L584.4 414.8 584.0 414.0 583.8 413.45 583.7 412.2 583.75 411.5 584.05 411.15 Q584.7 410.45 585.5 410.15 L587.3 409.8 589.0 410.15" fill="none" stroke="#005c8e" stroke-linecap="round" stroke-linejoin="round" stroke-width="4.0"/>
    <path d="M582.4 398.2 Q585.05 397.15 588.2 397.15 L588.2 400.15 Q590.65 400.15 592.7 401.0 L592.85 401.05 594.0 398.2 Q596.65 399.35 598.9 401.55 L598.85 401.65 596.75 403.7 597.05 404.0 597.35 404.3 Q598.7 405.8 599.4 407.6 L602.2 406.4 Q603.3 409.1 603.3 412.2 L600.25 412.2 600.25 412.3 600.25 412.45 Q597.55 411.6 594.7 411.95 L593.25 412.1 592.95 410.7 591.7 408.9 590.05 407.75 588.0 407.35 585.95 407.75 Q585.0 408.1 584.2 408.9 L584.15 408.9 Q583.45 409.7 583.05 410.7 L582.7 411.8 582.65 412.65 582.7 413.45 Q579.5 413.45 577.25 411.05 L576.85 410.7 576.3 409.95 576.3 409.9 Q576.45 408.95 576.75 408.1 L577.0 407.6 574.2 406.45 574.15 406.4 574.2 406.4 574.6 405.55 Q575.4 404.0 576.65 402.5 L577.4 401.65 577.5 401.55 577.55 401.55 579.2 403.25 579.65 403.7 580.1 403.3 Q581.25 402.15 582.6 401.5 L583.0 401.3 583.55 401.1 583.55 401.05 582.4 398.2" fill="#bbd4de" fill-rule="evenodd" stroke="none"/>
    <path d="M598.85 401.65 L598.45 403.25 597.35 404.3 597.05 404.0 596.75 403.7 598.85 401.65 M600.7 413.45 L600.7 413.5 Q600.7 415.35 600.3 417.0 L600.25 417.25 599.45 416.85 599.85 415.65 600.2 414.1 600.25 413.45 600.25 413.3 600.25 412.45 600.25 412.3 600.7 413.45 M602.2 418.05 L602.2 419.5 Q601.45 421.3 600.25 422.9 L599.65 423.65 598.7 424.65 598.85 422.9 598.9 422.9 601.0 420.4 601.65 419.25 602.2 418.05 M596.9 422.8 L596.9 422.85 596.8 422.9 596.7 423.05 593.65 425.35 592.85 423.5 Q595.0 422.6 596.75 420.85 L596.9 422.8 M594.0 426.25 L593.6 427.95 593.65 428.05 Q591.5 429.0 589.1 429.2 L588.35 429.3 587.55 429.3 588.2 427.35 592.55 426.8 593.05 426.65 594.0 426.25 M587.45 426.8 Q584.85 426.8 582.5 425.9 L583.55 423.5 Q585.75 424.4 588.2 424.4 L587.45 426.8 M577.85 422.7 L576.45 420.9 575.25 418.65 577.0 416.85 577.45 417.95 Q578.3 419.5 579.65 420.75 L577.85 422.7 M573.0 419.55 L572.9 419.55 Q571.75 416.8 571.75 413.55 L571.75 413.45 571.8 413.45 573.05 412.2 573.1 413.45 573.6 416.5 574.15 418.05 573.0 419.55 M574.35 412.2 L574.45 411.3 Q574.65 410.0 575.2 408.7 L575.25 408.45 575.25 408.4 577.0 407.6 576.75 408.1 Q576.45 408.95 576.3 409.9 L576.3 409.95 576.1 412.2 574.35 412.2 M572.9 407.35 L573.3 406.45 573.55 406.05 Q574.6 404.1 576.3 402.35 L576.35 402.3 576.4 402.3 577.4 401.65 576.65 402.5 Q575.4 404.0 574.6 405.55 L574.2 406.4 574.15 406.4 574.2 406.45 572.9 407.35 M579.2 403.25 Q580.7 402.0 582.35 401.3 L582.5 401.25 583.55 401.1 583.0 401.3 582.6 401.5 Q581.25 402.15 580.1 403.3 L579.65 403.7 579.2 403.25" fill="#6f8891" fill-rule="evenodd" stroke="none"/>
    <path d="M583.75 411.5 Q583.8 411.0 584.0 410.55 584.3 409.7 585.0 409.0 585.65 408.35 586.5 408.05 L588.2 407.65 Q589.15 407.65 589.95 408.05 590.8 408.35 591.4 409.0 592.05 409.7 592.4 410.55 592.75 411.3 592.75 412.2 L592.4 414.0 591.75 415.1 591.75 414.35 591.45 412.55 591.4 412.45 590.45 411.15 Q589.8 410.5 589.0 410.15 L587.3 409.8 585.5 410.15 Q584.7 410.5 584.05 411.15 L583.75 411.5" fill="#83979f" fill-rule="evenodd" stroke="none"/>
    <path d="M582.7 413.45 L582.65 412.65 582.7 411.8 583.05 410.7 Q583.45 409.7 584.15 408.9 L584.2 408.9 Q585.0 408.1 585.95 407.75 L588.0 407.35 590.05 407.75 591.7 408.9 592.95 410.7 593.25 412.1 593.3 412.65 Q593.3 413.8 592.95 414.75 L592.15 416.1 591.7 416.5 590.1 417.6 588.3 418.05 588.0 418.05 585.95 417.7 584.15 416.5 583.55 415.65 583.05 414.75 582.7 413.45 M591.75 415.1 L592.4 414.0 592.75 412.2 Q592.75 411.3 592.4 410.55 592.05 409.7 591.4 409.0 590.8 408.35 589.95 408.05 589.15 407.65 588.2 407.65 L586.5 408.05 Q585.65 408.35 585.0 409.0 584.3 409.7 584.0 410.55 583.8 411.0 583.75 411.5 L583.7 412.2 583.8 413.45 584.0 414.0 584.4 414.8 585.0 415.45 Q585.65 416.2 586.5 416.5 L588.2 416.8 588.45 416.8 589.95 416.45 591.4 415.45 591.75 415.1" fill="#d5eef7" fill-rule="evenodd" stroke="none"/>
    <path d="M600.25 417.25 L602.2 418.0 602.2 418.05 601.65 419.25 601.0 420.4 598.9 422.9 598.85 422.9 596.75 420.75 596.75 420.85 Q595.0 422.6 592.85 423.5 L593.65 425.35 594.0 426.25 593.05 426.65 592.55 426.8 588.2 427.35 588.2 424.4 Q585.75 424.4 583.55 423.5 L582.5 425.9 582.4 426.25 Q579.85 425.2 577.8 423.25 L577.55 422.95 577.85 422.7 579.65 420.75 Q578.3 419.5 577.45 417.95 L577.0 416.85 574.15 418.05 573.6 416.5 573.1 413.45 573.05 412.2 574.35 412.2 576.1 412.2 576.3 409.95 576.85 410.7 577.25 411.05 Q579.5 413.45 582.7 413.45 L583.05 414.75 583.55 415.65 584.15 416.5 585.95 417.7 588.0 418.05 588.3 418.05 590.1 417.6 591.7 416.5 592.15 416.1 592.95 414.75 Q593.3 413.8 593.3 412.65 L593.25 412.1 594.7 411.95 Q597.55 411.6 600.25 412.45 L600.25 413.3 600.25 413.45 600.2 414.1 599.85 415.65 599.45 416.85 600.25 417.25" fill="#b1c4cb" fill-rule="evenodd" stroke="none"/>
    <path d="M603.3 412.2 L603.3 413.45 600.7 413.45 600.25 412.3 600.25 412.2 603.3 412.2 M598.7 424.65 L596.9 422.8 596.75 420.85 596.75 420.75 598.85 422.9 598.7 424.65 M587.55 429.3 L587.55 426.8 587.45 426.8 588.2 424.4 588.2 427.35 587.55 429.3 M582.4 426.25 L581.5 428.1 Q578.75 427.0 576.4 424.7 L576.55 424.55 577.55 422.95 577.8 423.25 Q579.85 425.2 582.4 426.25 M575.25 418.65 L575.25 418.6 575.2 418.6 573.0 419.55 574.15 418.05 577.0 416.85 575.25 418.65 M575.25 408.4 L572.9 407.4 572.9 407.35 574.2 406.45 577.0 407.6 575.25 408.4 M582.5 401.25 L581.6 399.15 582.4 398.2 583.55 401.05 583.55 401.1 582.5 401.25" fill="#516870" fill-rule="evenodd" stroke="none"/>
  </g>
</svg>
