<?xml version="1.0" encoding="UTF-8" standalone="no"?>
<svg xmlns:xlink="http://www.w3.org/1999/xlink" height="36.15px" width="35.55px" xmlns="http://www.w3.org/2000/svg">
  <g transform="matrix(1.0, 0.0, 0.0, 1.0, -3.75, -396.55)">
    <path d="M31.35 405.7 Q32.7 407.2 33.4 409.0 L36.2 407.8 Q37.3 410.5 37.3 413.6 L37.3 414.85 34.7 414.85 Q34.7 416.75 34.3 418.4 L34.25 418.65 36.2 419.4 36.2 419.5 36.2 420.9 Q35.45 422.7 34.25 424.3 L33.65 425.05 32.7 426.0 30.9 424.2 30.8 424.3 30.7 424.4 27.65 426.7 28.0 427.65 27.6 429.35 27.65 429.45 Q25.5 430.4 23.1 430.6 L22.35 430.7 21.55 430.7 21.55 428.15 21.45 428.15 Q18.85 428.15 16.5 427.3 L16.4 427.65 15.5 429.5 Q12.75 428.35 10.4 426.1 L10.55 425.95 11.55 424.35 11.85 424.05 10.45 422.3 9.25 420.05 9.25 420.0 9.2 420.0 7.0 420.9 6.9 420.9 Q5.75 418.2 5.75 414.95 L5.75 414.85 5.8 414.85 7.05 413.6 8.35 413.6 8.45 412.7 Q8.65 411.4 9.2 410.1 L9.25 409.85 9.25 409.75 6.9 408.8 6.9 408.75 7.3 407.85 7.55 407.4 Q8.6 405.45 10.3 403.75 L10.35 403.65 10.4 403.65 11.4 403.0 11.5 402.95 11.55 402.95 13.2 404.6 Q14.7 403.4 16.35 402.7 L16.5 402.65 15.6 400.55 16.4 399.6 Q19.05 398.55 22.2 398.55 L22.2 401.5 Q24.65 401.5 26.7 402.4 L26.85 402.45 28.0 399.6 Q30.65 400.75 32.9 402.95 L32.85 403.0 32.45 404.6 31.35 405.7 M25.45 413.95 L25.4 413.85 24.45 412.55 Q23.8 411.85 23.0 411.55 L21.3 411.2 Q20.35 411.2 19.5 411.55 18.7 411.85 18.05 412.55 L17.75 412.9 17.7 413.6 17.8 414.85 18.0 415.4 18.4 416.2 19.0 416.85 20.5 417.9 22.2 418.2 22.45 418.2 23.95 417.85 25.4 416.85 25.75 416.5 25.75 415.75 25.45 413.95" fill="#b1c4cb" fill-rule="evenodd" stroke="none"/>
    <path d="M31.35 405.7 Q32.7 407.2 33.4 409.0 L36.2 407.8 Q37.3 410.5 37.3 413.6 L37.3 414.85 34.7 414.85 Q34.7 416.75 34.3 418.4 L34.25 418.65 36.2 419.4 36.2 419.5 36.2 420.9 Q35.45 422.7 34.25 424.3 L33.65 425.05 32.7 426.0 30.9 424.2 30.8 424.3 30.7 424.4 27.65 426.7 28.0 427.65 27.6 429.35 27.65 429.45 Q25.5 430.4 23.1 430.6 L22.35 430.7 21.55 430.7 21.55 428.15 21.45 428.15 Q18.85 428.15 16.5 427.3 L16.4 427.65 15.5 429.5 Q12.75 428.35 10.4 426.1 L10.55 425.95 11.55 424.35 11.85 424.05 10.45 422.3 9.25 420.05 9.25 420.0 9.2 420.0 7.0 420.9 6.9 420.9 Q5.75 418.2 5.75 414.95 L5.75 414.85 5.8 414.85 7.05 413.6 8.35 413.6 8.45 412.7 Q8.65 411.4 9.2 410.1 L9.25 409.85 9.25 409.75 6.9 408.8 6.9 408.75 7.3 407.85 7.55 407.4 Q8.6 405.45 10.3 403.75 L10.35 403.65 10.4 403.65 11.4 403.0 11.5 402.95 11.55 402.95 13.2 404.6 Q14.7 403.4 16.35 402.7 L16.5 402.65 15.6 400.55 16.4 399.6 Q19.05 398.55 22.2 398.55 L22.2 401.5 Q24.65 401.5 26.7 402.4 L26.85 402.45 28.0 399.6 Q30.65 400.75 32.9 402.95 L32.85 403.0 32.45 404.6 31.35 405.7 M25.45 413.95 L25.75 415.75 25.75 416.5 25.4 416.85 23.95 417.85 22.45 418.2 22.2 418.2 20.5 417.9 19.0 416.85 18.4 416.2 18.0 415.4 17.8 414.85 17.7 413.6 17.75 412.9 18.05 412.55 Q18.7 411.85 19.5 411.55 20.35 411.2 21.3 411.2 L23.0 411.55 Q23.8 411.85 24.45 412.55 L25.4 413.85 25.45 413.95" fill="none" stroke="#005c8e" stroke-linecap="round" stroke-linejoin="round" stroke-width="4.0"/>
    <path d="M32.85 403.05 L30.75 405.1 31.05 405.4 31.35 405.7 Q32.7 407.2 33.4 409.0 L36.2 407.8 Q37.3 410.5 37.3 413.6 L34.25 413.6 34.25 413.7 34.25 413.85 Q31.55 413.0 28.7 413.35 L27.25 413.5 26.95 412.1 25.7 410.3 Q25.0 409.5 24.05 409.15 L22.0 408.75 19.95 409.15 Q19.0 409.5 18.2 410.3 L18.15 410.3 Q17.45 411.1 17.05 412.1 L16.7 413.2 16.65 414.05 16.7 414.85 Q13.5 414.85 11.25 412.45 L10.85 412.1 10.3 411.35 10.3 411.3 Q10.45 410.35 10.75 409.5 L11.0 409.0 8.2 407.85 8.15 407.8 8.2 407.8 8.6 406.95 Q9.4 405.4 10.65 403.9 L11.4 403.05 11.5 402.95 11.55 402.95 13.2 404.65 13.65 405.1 14.1 404.7 Q15.25 403.55 16.6 402.9 L17.0 402.7 17.55 402.5 17.55 402.45 16.4 399.6 Q19.05 398.55 22.2 398.55 L22.2 401.55 Q24.65 401.55 26.7 402.4 L26.85 402.45 28.0 399.6 Q30.65 400.75 32.9 402.95 L32.85 403.05" fill="#bbd4de" fill-rule="evenodd" stroke="none"/>
    <path d="M31.35 405.7 L31.05 405.4 30.75 405.1 32.85 403.05 32.45 404.65 31.35 405.7 M17.55 402.5 L17.0 402.7 16.6 402.9 Q15.25 403.55 14.1 404.7 L13.65 405.1 13.2 404.65 Q14.7 403.4 16.35 402.7 L16.5 402.65 17.55 402.5 M11.4 403.05 L10.65 403.9 Q9.4 405.4 8.6 406.95 L8.2 407.8 8.15 407.8 8.2 407.85 6.9 408.75 7.3 407.85 7.55 407.45 Q8.6 405.5 10.3 403.75 L10.35 403.7 10.4 403.7 11.4 403.05 M11.0 409.0 L10.75 409.5 Q10.45 410.35 10.3 411.3 L10.3 411.35 10.1 413.6 8.35 413.6 8.45 412.7 Q8.65 411.4 9.2 410.1 L9.25 409.85 9.25 409.8 11.0 409.0 M34.25 413.85 L34.25 413.7 34.7 414.85 34.7 414.9 Q34.7 416.75 34.3 418.4 L34.25 418.65 33.45 418.25 33.85 417.05 34.2 415.5 34.25 414.85 34.25 414.7 34.25 413.85 M36.2 419.45 L36.2 420.9 Q35.45 422.7 34.25 424.3 L33.65 425.05 32.7 426.05 32.85 424.3 32.9 424.3 35.0 421.8 35.65 420.65 36.2 419.45 M30.9 424.2 L30.9 424.25 30.8 424.3 30.7 424.45 27.65 426.75 26.85 424.9 Q29.0 424.0 30.75 422.25 L30.9 424.2 M28.0 427.65 L27.6 429.35 27.65 429.45 Q25.5 430.4 23.1 430.6 L22.35 430.7 21.55 430.7 22.2 428.75 26.55 428.2 27.05 428.05 28.0 427.65 M21.45 428.2 Q18.85 428.2 16.5 427.3 L17.55 424.9 Q19.75 425.8 22.2 425.8 L21.45 428.2 M11.85 424.1 L10.45 422.3 9.25 420.05 11.0 418.25 11.45 419.35 Q12.3 420.9 13.65 422.15 L11.85 424.1 M7.0 420.95 L6.9 420.95 Q5.75 418.2 5.75 414.95 L5.75 414.85 5.8 414.85 7.05 413.6 7.1 414.85 7.6 417.9 8.15 419.45 7.0 420.95" fill="#6f8891" fill-rule="evenodd" stroke="none"/>
    <path d="M10.3 411.35 L10.85 412.1 11.25 412.45 Q13.5 414.85 16.7 414.85 L17.05 416.15 17.55 417.05 18.15 417.9 19.95 419.1 22.0 419.45 22.3 419.45 24.1 419.0 Q25.0 418.65 25.7 417.9 L26.15 417.5 26.95 416.15 Q27.3 415.2 27.3 414.05 L27.25 413.5 28.7 413.35 Q31.55 413.0 34.25 413.85 L34.25 414.7 34.25 414.85 34.2 415.5 33.85 417.05 33.45 418.25 34.25 418.65 36.2 419.4 36.2 419.45 35.65 420.65 35.0 421.8 32.9 424.3 32.85 424.3 30.75 422.15 30.75 422.25 Q29.0 424.0 26.85 424.9 L27.65 426.75 28.0 427.65 27.05 428.05 26.55 428.2 22.2 428.75 22.2 425.8 Q19.75 425.8 17.55 424.9 L16.5 427.3 16.4 427.65 Q13.85 426.6 11.8 424.65 L11.55 424.35 11.85 424.1 13.65 422.15 Q12.3 420.9 11.45 419.35 L11.0 418.25 8.15 419.45 7.6 417.9 7.1 414.85 7.05 413.6 8.35 413.6 10.1 413.6 10.3 411.35" fill="#b1c4cb" fill-rule="evenodd" stroke="none"/>
    <path d="M16.7 414.85 L16.65 414.05 16.7 413.2 17.05 412.1 Q17.45 411.1 18.15 410.3 L18.2 410.3 Q19.0 409.5 19.95 409.15 L22.0 408.75 24.05 409.15 Q25.0 409.5 25.7 410.3 L26.95 412.1 27.25 413.5 27.3 414.05 Q27.3 415.2 26.95 416.15 L26.15 417.5 25.7 417.9 Q25.0 418.65 24.1 419.0 L22.3 419.45 22.0 419.45 19.95 419.1 18.15 417.9 17.55 417.05 17.05 416.15 16.7 414.85 M25.75 416.5 L26.4 415.4 Q26.75 414.6 26.75 413.6 26.75 412.7 26.4 411.95 L25.4 410.4 Q24.8 409.75 23.95 409.45 23.15 409.05 22.2 409.05 L20.5 409.45 Q19.65 409.75 19.0 410.4 18.3 411.1 18.0 411.95 17.8 412.4 17.75 412.9 L17.7 413.6 17.8 414.85 18.0 415.4 18.4 416.2 19.0 416.85 20.5 417.9 22.2 418.2 22.45 418.2 23.95 417.85 25.4 416.85 25.75 416.5" fill="#d5eef7" fill-rule="evenodd" stroke="none"/>
    <path d="M25.75 416.5 L25.75 415.75 25.45 413.95 25.4 413.85 24.45 412.55 Q23.8 411.9 23.0 411.55 L21.3 411.2 Q20.35 411.2 19.5 411.55 18.7 411.9 18.05 412.55 L17.75 412.9 Q17.8 412.4 18.0 411.95 18.3 411.1 19.0 410.4 19.65 409.75 20.5 409.45 L22.2 409.05 Q23.15 409.05 23.95 409.45 24.8 409.75 25.4 410.4 L26.4 411.95 Q26.75 412.7 26.75 413.6 26.75 414.6 26.4 415.4 L25.75 416.5" fill="#83979f" fill-rule="evenodd" stroke="none"/>
    <path d="M16.4 399.6 L17.55 402.45 17.55 402.5 16.5 402.65 15.6 400.55 16.4 399.6 M8.2 407.85 L11.0 409.0 9.25 409.8 6.9 408.8 6.9 408.75 8.2 407.85 M34.25 413.7 L34.25 413.6 37.3 413.6 37.3 414.85 34.7 414.85 34.25 413.7 M32.7 426.05 L30.9 424.2 30.75 422.25 30.75 422.15 32.85 424.3 32.7 426.05 M21.55 430.7 L21.55 428.2 21.45 428.2 22.2 425.8 22.2 428.75 21.55 430.7 M16.4 427.65 L15.5 429.5 Q12.75 428.4 10.4 426.1 L10.55 425.95 11.55 424.35 11.8 424.65 Q13.85 426.6 16.4 427.65 M9.25 420.05 L9.25 420.0 9.2 420.0 7.0 420.95 8.15 419.45 11.0 418.25 9.25 420.05" fill="#516870" fill-rule="evenodd" stroke="none"/>
  </g>
</svg>
