<?xml version="1.0" encoding="UTF-8" standalone="no"?>
<svg xmlns:xlink="http://www.w3.org/1999/xlink" height="36.15px" width="35.55px" xmlns="http://www.w3.org/2000/svg">
  <g transform="matrix(1.0, 0.0, 0.0, 1.0, -8.5, -57.3)">
    <path d="M21.15 60.35 Q23.8 59.3 26.95 59.3 L26.95 62.25 Q29.4 62.25 31.45 63.15 L31.6 63.2 32.75 60.35 Q35.4 61.5 37.65 63.7 L37.6 63.75 37.2 65.35 36.1 66.45 Q37.45 67.95 38.15 69.75 L40.95 68.55 Q42.05 71.25 42.05 74.35 L42.05 75.6 39.45 75.6 Q39.45 77.5 39.05 79.15 L39.0 79.4 40.95 80.15 40.95 80.25 40.95 81.65 Q40.2 83.45 39.0 85.05 L38.4 85.8 37.45 86.75 35.65 84.95 35.55 85.05 35.45 85.15 32.4 87.45 32.75 88.4 32.35 90.1 32.4 90.2 Q30.25 91.15 27.85 91.35 L27.1 91.45 26.3 91.45 26.3 88.9 26.2 88.9 Q23.6 88.9 21.25 88.05 L21.15 88.4 20.25 90.25 Q17.5 89.1 15.15 86.85 L15.3 86.7 16.3 85.1 16.6 84.8 15.2 83.05 14.0 80.8 14.0 80.75 13.95 80.75 11.75 81.65 11.65 81.65 Q10.5 78.95 10.5 75.7 L10.5 75.6 10.55 75.6 11.8 74.35 13.1 74.35 13.2 73.45 Q13.4 72.15 13.95 70.85 L14.0 70.6 14.0 70.5 11.65 69.55 11.65 69.5 12.05 68.6 12.3 68.15 Q13.35 66.2 15.05 64.5 L15.1 64.4 15.15 64.4 16.15 63.75 16.25 63.7 16.3 63.7 17.95 65.35 Q19.45 64.15 21.1 63.45 L21.25 63.4 20.35 61.3 21.15 60.35 M29.2 73.3 L27.75 72.3 Q26.95 71.95 26.05 71.95 25.1 71.95 24.25 72.3 L22.8 73.3 22.5 73.65 22.45 74.35 22.55 75.6 22.75 76.15 23.15 76.95 23.75 77.6 25.25 78.65 26.95 78.95 27.2 78.95 28.7 78.6 30.15 77.6 30.5 77.25 30.5 76.5 30.2 74.7 30.15 74.6 29.2 73.3" fill="#b1c4cb" fill-rule="evenodd" stroke="none"/>
    <path d="M21.15 60.35 Q23.8 59.3 26.95 59.3 L26.95 62.25 Q29.4 62.25 31.45 63.15 L31.6 63.2 32.75 60.35 Q35.4 61.5 37.65 63.7 L37.6 63.75 37.2 65.35 36.1 66.45 Q37.45 67.95 38.15 69.75 L40.95 68.55 Q42.05 71.25 42.05 74.35 L42.05 75.6 39.45 75.6 Q39.45 77.5 39.05 79.15 L39.0 79.4 40.95 80.15 40.95 80.25 40.95 81.65 Q40.2 83.45 39.0 85.05 L38.4 85.8 37.45 86.75 35.65 84.95 35.55 85.05 35.45 85.15 32.4 87.45 32.75 88.4 32.35 90.1 32.4 90.2 Q30.25 91.15 27.85 91.35 L27.1 91.45 26.3 91.45 26.3 88.9 26.2 88.9 Q23.6 88.9 21.25 88.05 L21.15 88.4 20.25 90.25 Q17.5 89.1 15.15 86.85 L15.3 86.7 16.3 85.1 16.6 84.8 15.2 83.05 14.0 80.8 14.0 80.75 13.95 80.75 11.75 81.65 11.65 81.65 Q10.5 78.95 10.5 75.7 L10.5 75.6 10.55 75.6 11.8 74.35 13.1 74.35 13.2 73.45 Q13.4 72.15 13.95 70.85 L14.0 70.6 14.0 70.5 11.65 69.55 11.65 69.5 12.05 68.6 12.3 68.15 Q13.35 66.2 15.05 64.5 L15.1 64.4 15.15 64.4 16.15 63.75 16.25 63.7 16.3 63.7 17.95 65.35 Q19.45 64.15 21.1 63.45 L21.25 63.4 20.35 61.3 21.15 60.35 M29.2 73.3 L30.15 74.6 30.2 74.7 30.5 76.5 30.5 77.25 30.15 77.6 28.7 78.6 27.2 78.95 26.95 78.95 25.25 78.65 23.75 77.6 23.15 76.95 22.75 76.15 22.55 75.6 22.45 74.35 22.5 73.65 22.8 73.3 24.25 72.3 Q25.1 71.95 26.05 71.95 26.95 71.95 27.75 72.3 L29.2 73.3" fill="none" stroke="#005c8e" stroke-linecap="round" stroke-linejoin="round" stroke-width="4.0"/>
    <path d="M42.05 74.35 L42.05 75.6 39.45 75.6 39.0 74.45 39.0 74.35 42.05 74.35 M37.45 86.8 L35.65 84.95 35.5 83.0 35.5 82.9 37.6 85.05 37.45 86.8 M26.3 91.45 L26.3 88.95 26.2 88.95 26.95 86.55 26.95 89.5 26.3 91.45 M21.15 88.4 L20.25 90.25 Q17.5 89.15 15.15 86.85 L15.3 86.7 16.3 85.1 16.55 85.4 Q18.6 87.35 21.15 88.4 M14.0 80.8 L14.0 80.75 13.95 80.75 11.75 81.7 12.9 80.2 15.75 79.0 14.0 80.8 M14.0 70.55 L11.65 69.55 11.65 69.5 12.95 68.6 15.75 69.75 14.0 70.55 M21.25 63.4 L20.35 61.3 21.15 60.35 22.3 63.2 22.3 63.25 21.25 63.4" fill="#516870" fill-rule="evenodd" stroke="none"/>
    <path d="M21.15 60.35 Q23.8 59.3 26.95 59.3 L26.95 62.3 Q29.4 62.3 31.45 63.15 L31.6 63.2 32.75 60.35 Q35.4 61.5 37.65 63.7 L37.6 63.8 35.5 65.85 35.8 66.15 36.1 66.45 Q37.45 67.95 38.15 69.75 L40.95 68.55 Q42.05 71.25 42.05 74.35 L39.0 74.35 39.0 74.45 39.0 74.6 Q36.3 73.75 33.45 74.1 L32.0 74.25 31.7 72.85 30.45 71.05 Q29.75 70.25 28.8 69.9 27.8 69.5 26.75 69.5 L24.7 69.9 Q23.75 70.25 22.95 71.05 L22.9 71.05 Q22.2 71.85 21.8 72.85 L21.45 73.95 21.4 74.8 21.45 75.6 Q18.25 75.6 16.0 73.2 L15.6 72.85 15.05 72.1 15.05 72.05 Q15.2 71.1 15.5 70.25 L15.75 69.75 12.95 68.6 12.9 68.55 12.95 68.55 13.35 67.7 Q14.15 66.15 15.4 64.65 L16.15 63.8 16.25 63.7 16.3 63.7 17.95 65.4 18.4 65.85 18.85 65.45 Q20.0 64.3 21.35 63.65 L21.75 63.45 22.3 63.25 22.3 63.2 21.15 60.35" fill="#bbd4de" fill-rule="evenodd" stroke="none"/>
    <path d="M37.6 63.8 L37.2 65.4 36.1 66.45 35.8 66.15 35.5 65.85 37.6 63.8 M39.45 75.6 L39.45 75.65 Q39.45 77.5 39.05 79.15 L39.0 79.4 38.2 79.0 38.6 77.8 38.95 76.25 39.0 75.6 39.0 75.45 39.0 74.6 39.0 74.45 39.45 75.6 M40.95 80.2 L40.95 81.65 Q40.2 83.45 39.0 85.05 L38.4 85.8 37.45 86.8 37.6 85.05 37.65 85.05 39.75 82.55 40.4 81.4 40.95 80.2 M35.65 84.95 L35.65 85.0 35.55 85.05 35.45 85.2 32.4 87.5 31.6 85.65 Q33.75 84.75 35.5 83.0 L35.65 84.95 M32.75 88.4 L32.35 90.1 32.4 90.2 Q30.25 91.15 27.85 91.35 L27.1 91.45 26.3 91.45 26.95 89.5 31.3 88.95 31.8 88.8 Q32.25 88.55 32.75 88.4 M26.2 88.95 Q23.6 88.95 21.25 88.05 L22.3 85.65 Q24.5 86.55 26.95 86.55 L26.2 88.95 M16.6 84.85 L15.2 83.05 14.0 80.8 15.75 79.0 16.2 80.1 Q17.05 81.65 18.4 82.9 L16.6 84.85 M11.75 81.7 L11.65 81.7 Q10.5 78.95 10.5 75.7 L10.5 75.6 10.55 75.6 11.8 74.35 11.85 75.6 12.35 78.65 12.9 80.2 11.75 81.7 M13.1 74.35 L13.2 73.45 Q13.4 72.15 13.95 70.85 L14.0 70.6 14.0 70.55 15.75 69.75 15.5 70.25 Q15.2 71.1 15.05 72.05 L15.05 72.1 14.85 74.35 13.1 74.35 M11.65 69.5 L12.05 68.6 12.3 68.2 Q13.35 66.25 15.05 64.5 L15.1 64.45 15.15 64.45 16.15 63.8 15.4 64.65 Q14.15 66.15 13.35 67.7 L12.95 68.55 12.9 68.55 12.95 68.6 11.65 69.5 M17.95 65.4 Q19.45 64.15 21.1 63.45 L21.25 63.4 22.3 63.25 21.75 63.45 21.35 63.65 Q20.0 64.3 18.85 65.45 L18.4 65.85 17.95 65.4" fill="#6f8891" fill-rule="evenodd" stroke="none"/>
    <path d="M22.5 73.65 Q22.55 73.15 22.75 72.7 23.05 71.85 23.75 71.15 24.4 70.5 25.25 70.2 L26.95 69.8 28.7 70.2 Q29.55 70.5 30.15 71.15 L31.15 72.7 Q31.5 73.45 31.5 74.35 31.5 75.35 31.15 76.15 L30.5 77.25 30.5 76.5 30.2 74.7 30.15 74.6 29.2 73.3 27.75 72.3 Q26.95 71.95 26.05 71.95 25.1 71.95 24.25 72.3 L22.8 73.3 22.5 73.65" fill="#83979f" fill-rule="evenodd" stroke="none"/>
    <path d="M21.45 75.6 L21.4 74.8 21.45 73.95 21.8 72.85 Q22.2 71.85 22.9 71.05 L22.95 71.05 Q23.75 70.25 24.7 69.9 L26.75 69.5 Q27.8 69.5 28.8 69.9 29.75 70.25 30.45 71.05 L31.7 72.85 32.0 74.25 32.05 74.8 Q32.05 75.95 31.7 76.9 L30.9 78.25 30.45 78.65 28.85 79.75 27.05 80.2 26.75 80.2 24.7 79.85 22.9 78.65 22.3 77.8 21.8 76.9 21.45 75.6 M30.5 77.25 L31.15 76.15 Q31.5 75.35 31.5 74.35 31.5 73.45 31.15 72.7 L30.15 71.15 Q29.55 70.5 28.7 70.2 L26.95 69.8 25.25 70.2 Q24.4 70.5 23.75 71.15 23.05 71.85 22.75 72.7 22.55 73.15 22.5 73.65 L22.45 74.35 22.55 75.6 22.75 76.15 23.15 76.95 23.75 77.6 25.25 78.65 26.95 78.95 27.2 78.95 28.7 78.6 30.15 77.6 30.5 77.25" fill="#d5eef7" fill-rule="evenodd" stroke="none"/>
    <path d="M39.0 79.4 L40.95 80.15 40.95 80.2 40.4 81.4 39.75 82.55 37.65 85.05 37.6 85.05 35.5 82.9 35.5 83.0 Q33.75 84.75 31.6 85.65 L32.4 87.5 32.75 88.4 Q32.25 88.55 31.8 88.8 L31.3 88.95 26.95 89.5 26.95 86.55 Q24.5 86.55 22.3 85.65 L21.25 88.05 21.15 88.4 Q18.6 87.35 16.55 85.4 L16.3 85.1 16.6 84.85 18.4 82.9 Q17.05 81.65 16.2 80.1 L15.75 79.0 12.9 80.2 12.35 78.65 11.85 75.6 11.8 74.35 13.1 74.35 14.85 74.35 15.05 72.1 15.6 72.85 16.0 73.2 Q18.25 75.6 21.45 75.6 L21.8 76.9 22.3 77.8 22.9 78.65 24.7 79.85 26.75 80.2 27.05 80.2 28.85 79.75 30.45 78.65 30.9 78.25 31.7 76.9 Q32.05 75.95 32.05 74.8 L32.0 74.25 33.45 74.1 Q36.3 73.75 39.0 74.6 L39.0 75.45 39.0 75.6 38.95 76.25 38.6 77.8 38.2 79.0 39.0 79.4" fill="#b1c4cb" fill-rule="evenodd" stroke="none"/>
  </g>
</svg>
