<?xml version="1.0" encoding="UTF-8" standalone="no"?>
<svg xmlns:xlink="http://www.w3.org/1999/xlink" height="298.35px" width="648.55px" xmlns="http://www.w3.org/2000/svg">
  <g transform="matrix(1.0, 0.0, 0.0, 1.0, -2.0, -152.2)">
    <path d="M68.95 386.2 L90.65 384.2 90.75 384.75 69.2 386.8 68.95 386.2" fill="#482347" fill-rule="evenodd" stroke="none"/>
    <path d="M68.95 386.2 L90.65 384.2 90.75 384.75 69.2 386.8 68.95 386.2 Z" fill="none" stroke="#171410" stroke-linecap="round" stroke-linejoin="miter" stroke-width="0.2"/>
    <path d="M71.4 391.9 Q85.85 395.45 92.8 401.35 102.1 409.05 114.25 426.9 L111.75 431.15 Q111.2 431.95 110.45 434.3 109.75 436.25 108.9 437.25 107.9 438.3 105.3 439.9 101.5 442.15 99.45 443.55 96.15 446.15 94.1 447.0 L88.35 448.5 Q82.7 449.25 78.55 450.3 L72.65 450.05 66.75 448.7 56.0 449.25 Q48.4 445.75 45.7 446.0 43.05 446.1 39.75 443.8 L36.5 441.5 24.45 434.0 Q22.35 432.6 22.5 430.75 22.6 429.3 23.75 428.5 22.9 423.05 25.65 410.85 28.95 395.75 49.15 390.4 57.05 388.45 71.4 391.9" fill="#936b34" fill-rule="evenodd" stroke="none"/>
    <path d="M35.9 401.55 L30.9 400.9 40.5 397.0 39.2 398.6 37.7 400.7 Q37.0 401.45 35.9 401.55 M42.6 396.1 L42.25 396.15 55.2 390.7 51.65 399.7 47.55 398.25 Q44.25 396.2 42.6 396.1" fill="#688769" fill-rule="evenodd" stroke="none"/>
    <path d="M3.45 387.45 L2.0 357.0 43.95 369.0 65.85 420.3 51.8 425.65 3.45 387.45" fill="#d756d5" fill-rule="evenodd" stroke="none"/>
    <path d="M2.0 357.0 L20.2 372.55 39.1 367.1 22.0 374.45 49.75 415.25 49.3 416.25 22.55 379.9 2.0 357.0" fill="#ffffff" fill-rule="evenodd" stroke="none"/>
    <path d="M2.0 357.0 L39.1 367.1 20.1 373.5 2.0 357.0" fill="#f4daf5" fill-rule="evenodd" stroke="none"/>
    <path d="M91.6 401.55 L104.0 416.5 103.35 421.35 101.5 421.15 Q99.45 421.2 98.25 421.85 97.1 422.65 96.05 424.1 L95.15 425.3 92.1 423.55 95.15 418.7 90.15 404.05 91.6 401.55" fill="#c6a473" fill-rule="evenodd" stroke="none"/>
    <path d="M80.7 415.65 L82.65 425.35 90.05 422.35 92.15 427.25 98.5 433.55 95.65 437.65 92.7 436.15 95.25 444.6 87.2 448.75 83.75 440.35 79.0 437.4 80.7 440.8 Q82.25 444.55 81.75 445.8 80.95 447.95 77.7 449.2 L71.7 444.65 Q67.3 445.75 65.15 445.5 64.0 445.45 61.5 441.85 L59.2 438.2 66.05 437.15 70.2 433.05 67.25 419.2 80.7 415.65" fill="#ad9065" fill-rule="evenodd" stroke="none"/>
    <path d="M27.1 430.15 L33.7 429.8 34.0 433.65 28.35 432.75 27.1 430.15" fill="#e0c48f" fill-rule="evenodd" stroke="none"/>
    <path d="M43.7 424.9 L48.25 426.5 49.6 436.65 Q52.7 434.8 55.7 432.75 L61.8 437.2 62.25 444.6 50.7 445.5 45.75 431.9 36.2 428.55 43.7 424.9" fill="#c6a473" fill-rule="evenodd" stroke="none"/>
    <path d="M76.55 432.9 Q73.65 434.55 72.3 433.05 70.8 431.65 71.05 428.75 71.1 424.45 74.2 424.6 76.15 424.7 81.65 426.15 80.55 430.65 76.55 432.9" fill="#e0c48f" fill-rule="evenodd" stroke="none"/>
    <path d="M70.95 420.9 Q69.75 419.1 73.25 419.3 L71.55 419.2 Q73.3 417.4 75.05 419.05 76.9 420.55 74.55 421.65 72.2 422.7 70.95 420.9" fill="#90b592" fill-rule="evenodd" stroke="none"/>
    <path d="M81.55 432.05 L80.75 432.1 Q81.8 431.9 83.8 430.75 L87.25 430.6 88.75 436.35 Q89.3 439.75 86.1 440.15 83.25 436.75 81.55 432.05" fill="#e0c48f" fill-rule="evenodd" stroke="none"/>
    <path d="M42.3 424.9 L43.0 424.55 Q44.75 424.55 46.0 426.1 47.05 427.65 45.25 428.45 43.3 429.3 42.4 427.65 41.45 426.05 42.3 424.9" fill="#e0c48f" fill-rule="evenodd" stroke="none"/>
    <path d="M93.6 412.65 Q92.75 412.6 91.85 408.25 90.75 404.0 92.15 403.45 L94.4 406.1 Q95.65 407.75 96.85 408.8 99.2 410.9 97.85 412.0 96.7 412.8 93.6 412.65" fill="#90b592" fill-rule="evenodd" stroke="none"/>
    <path d="M107.1 424.25 L110.35 429.55 Q111.15 431.3 110.25 433.3 109.5 435.15 107.85 436.25 106.15 434.75 105.55 430.4 L104.65 424.05 107.1 424.25" fill="#c6a473" fill-rule="evenodd" stroke="none"/>
    <path d="M55.0 434.05 L54.65 434.5 Q58.75 435.1 59.05 437.8 52.75 440.7 51.25 439.25 50.4 438.2 55.0 434.05" fill="#e0c48f" fill-rule="evenodd" stroke="none"/>
    <path d="M17.25 418.2 L21.35 396.8 Q41.75 413.9 43.45 414.15 L41.0 430.9 36.35 431.35 17.25 418.2" fill="#af47aa" fill-rule="evenodd" stroke="none"/>
    <path d="M26.2 410.95 L38.9 410.1 28.25 413.5 26.2 410.95" fill="#bf8dba" fill-rule="evenodd" stroke="none"/>
    <path d="M3.45 387.45 L17.6 375.15 46.65 412.1 42.7 416.6 3.45 387.45" fill="#936bb2" fill-rule="evenodd" stroke="none"/>
    <path d="M28.05 412.45 L18.65 417.9 22.1 401.1 28.05 412.45" fill="#a572b8" fill-rule="evenodd" stroke="none"/>
    <path d="M64.3 430.85 L31.8 359.55 55.25 331.25 86.2 367.65 77.05 420.1 64.3 430.85" fill="#d6aff6" fill-rule="evenodd" stroke="none"/>
    <path d="M31.8 359.55 L52.95 375.1 68.35 423.2 51.8 407.25 31.8 359.55" fill="#c180da" fill-rule="evenodd" stroke="none"/>
    <path d="M33.2 362.8 L32.65 360.4 52.95 375.1 65.35 414.55 63.6 418.55 49.7 378.55 33.2 362.8" fill="#9882c8" fill-rule="evenodd" stroke="none"/>
    <path d="M74.45 397.05 Q73.2 398.15 68.35 400.25 65.15 401.6 64.1 403.65 63.7 404.65 63.85 405.45 L56.35 375.2 69.75 366.7 86.2 367.65 84.25 370.3 Q81.85 373.3 78.95 375.2 76.15 377.1 76.4 382.15 76.3 385.05 76.8 391.2 76.65 395.2 74.45 397.05" fill="#b089e1" fill-rule="evenodd" stroke="none"/>
    <path d="M31.8 359.55 L53.05 371.9 64.9 364.75 55.25 331.25 67.25 364.1 86.2 367.65 69.75 366.7 56.35 375.2 70.5 430.3 52.15 375.55 31.8 359.55" fill="#ffffff" fill-rule="evenodd" stroke="none"/>
    <path d="M11.0 388.25 L45.55 418.7 45.7 420.45 3.45 387.45 18.3 375.35 11.0 388.25" fill="#ca9adb" fill-rule="evenodd" stroke="none"/>
    <path d="M58.35 407.2 L68.3 431.35 65.0 435.1 60.45 434.95 38.25 419.75 38.85 403.5 58.35 407.2" fill="#eb88d8" fill-rule="evenodd" stroke="none"/>
    <path d="M38.25 419.75 L52.35 413.5 63.9 434.8 60.45 434.95 38.25 419.75" fill="#d646d9" fill-rule="evenodd" stroke="none"/>
    <path d="M73.35 389.75 L95.75 376.25 103.65 409.4 88.6 425.9 74.6 424.0 73.35 389.75" fill="#dd96f2" fill-rule="evenodd" stroke="none"/>
    <path d="M92.2 404.85 L92.1 408.9 73.55 391.1 92.2 404.85" fill="#f7f5ff" fill-rule="evenodd" stroke="none"/>
    <path d="M2.0 357.0 L17.6 374.15 3.45 387.45 2.0 357.0" fill="#c6a7d1" fill-rule="evenodd" stroke="none"/>
    <path d="M38.85 403.5 L52.25 410.65 55.45 406.2 58.35 407.2 53.4 412.85 65.0 435.1 63.3 434.85 51.45 413.35 39.3 403.85 38.85 403.5" fill="#ffe5f6" fill-rule="evenodd" stroke="none"/>
    <path d="M18.4 418.25 L26.0 411.7 21.7 401.25 41.2 430.9 40.55 430.95 25.9 414.05 18.4 418.25" fill="#e0c8dd" fill-rule="evenodd" stroke="none"/>
    <path d="M64.9 364.75 L51.7 372.15 31.8 359.55 55.25 331.25 64.9 364.75" fill="#7fbee9" fill-rule="evenodd" stroke="none"/>
    <path d="M55.25 331.25 L86.2 367.65 67.25 364.1 55.25 331.25" fill="#d1dcf0" fill-rule="evenodd" stroke="none"/>
    <path d="M44.1 367.6 L56.7 335.2 45.65 368.85 43.95 369.0 44.1 367.6" fill="#ffffff" fill-rule="evenodd" stroke="none"/>
    <path d="M24.6 414.15 L39.3 431.1 36.35 431.35 17.25 418.2 24.6 414.15" fill="#bda2d8" fill-rule="evenodd" stroke="none"/>
    <path d="M64.9 364.75 L51.7 372.15 48.3 362.45 56.7 335.2 64.9 364.75" fill="#9baae0" fill-rule="evenodd" stroke="none"/>
    <path d="M32.65 360.4 L39.9 353.95 50.05 350.85 48.5 354.15 40.1 355.35 33.8 360.6 32.65 360.4" fill="#ccd2e0" fill-rule="evenodd" stroke="none"/>
    <path d="M69.75 366.7 L86.2 367.65 80.05 371.55 69.75 366.7" fill="#a0a9df" fill-rule="evenodd" stroke="none"/>
    <path d="M51.45 413.35 L52.45 416.15 45.7 420.45 60.45 434.95 39.8 419.6 51.45 413.35" fill="#b0359f" fill-rule="evenodd" stroke="none"/>
    <path d="M82.65 425.35 L77.55 424.15 76.2 394.0 91.65 407.7 82.65 425.35" fill="#e463e2" fill-rule="evenodd" stroke="none"/>
    <path d="M82.65 425.35 L80.85 424.4 90.85 406.45 95.65 377.0 93.35 407.15 82.65 425.35" fill="#f7f5ff" fill-rule="evenodd" stroke="none"/>
    <path d="M92.65 407.35 L93.3 406.2 104.0 409.4 92.65 407.35" fill="#d0accc" fill-rule="evenodd" stroke="none"/>
    <path d="M38.85 411.85 Q39.65 404.25 41.05 405.45 L41.15 418.1 38.25 419.75 Q38.35 415.75 38.85 411.85" fill="#beade5" fill-rule="evenodd" stroke="none"/>
    <path d="M77.0 424.35 L72.95 423.9 73.55 391.1 76.2 394.0 77.0 424.35" fill="#bdb3ff" fill-rule="evenodd" stroke="none"/>
    <path d="M101.6 412.2 L88.6 425.9 83.9 424.8 93.6 412.65 101.6 412.2" fill="#ca73e3" fill-rule="evenodd" stroke="none"/>
    <path d="M93.35 407.15 L104.0 409.4 92.4 409.7 93.35 407.15" fill="#a16692" fill-rule="evenodd" stroke="none"/>
    <path d="M2.0 357.0 L2.9 357.3 18.3 375.35 10.7 380.85 2.0 357.0" fill="#9baae0" fill-rule="evenodd" stroke="none"/>
    <path d="M95.65 377.0 L104.0 409.4 93.35 407.15 95.65 377.0" fill="#cd8be0" fill-rule="evenodd" stroke="none"/>
    <path d="M38.25 419.75 L39.8 419.6 60.45 434.95 58.05 435.0 Q48.25 427.35 38.25 419.75" fill="#eb88d8" fill-rule="evenodd" stroke="none"/>
    <path d="M20.7 401.1 L38.25 414.55" fill="none" stroke="#572656" stroke-linecap="round" stroke-linejoin="miter" stroke-width="0.25"/>
    <path d="M84.2 420.3 Q87.0 421.95 87.95 424.45 88.85 427.0 87.4 429.05 86.0 431.1 83.05 431.4 80.1 431.65 77.3 429.95 74.45 428.45 73.5 425.75 72.55 423.25 74.1 421.2 75.55 419.1 78.5 418.85 81.45 418.55 84.2 420.3" fill="#3cab73" fill-rule="evenodd" stroke="none"/>
    <path d="M85.2 421.4 Q87.3 423.15 87.6 425.3 87.75 427.5 86.05 428.9 84.25 430.15 81.75 429.85 79.05 429.55 76.9 427.65 74.85 425.95 74.5 423.75 74.4 421.6 76.0 420.3 77.75 418.9 80.4 419.25 83.15 419.65 85.2 421.4" fill="#276e49" fill-rule="evenodd" stroke="none"/>
    <path d="M85.65 423.0 Q86.05 424.1 85.4 424.95 84.75 425.85 83.35 426.0 82.1 426.1 80.75 425.4 79.5 424.7 79.1 423.6 78.65 422.45 79.3 421.55 80.15 420.65 81.4 420.55 82.8 420.4 83.95 421.1 85.2 421.85 85.65 423.0" fill="#d7ffc4" fill-rule="evenodd" stroke="none"/>
    <path d="M45.95 435.3 Q46.65 437.2 45.65 438.5 44.6 439.95 42.6 440.15 40.55 440.3 38.5 439.15 36.55 438.1 35.85 436.2 35.25 434.5 36.3 433.0 37.25 431.7 39.45 431.5 41.6 431.3 43.45 432.35 45.35 433.6 45.95 435.3" fill="#82382d" fill-rule="evenodd" stroke="none"/>
    <path d="M44.05 433.1 Q45.45 434.4 45.75 436.0 45.85 437.5 44.7 438.3 43.4 439.25 41.65 438.95 39.9 438.9 38.35 437.65 36.9 436.4 36.75 434.75 36.55 433.25 37.65 432.3 38.95 431.5 40.85 431.75 42.65 431.85 44.05 433.1" fill="#d64f44" fill-rule="evenodd" stroke="none"/>
    <path d="M44.25 434.2 Q45.0 436.2 42.85 436.4 L41.1 436.05 Q40.05 435.4 39.75 434.6 39.55 433.95 40.1 433.25 40.5 432.6 41.45 432.55 43.6 432.35 44.25 434.2" fill="#ffd3cc" fill-rule="evenodd" stroke="none"/>
    <path d="M105.05 429.05 Q106.85 429.65 108.0 431.05 109.0 432.45 108.7 433.85 108.4 435.2 106.9 435.95 105.35 436.5 103.55 436.0 101.75 435.45 100.55 434.05 99.65 432.75 99.9 431.2 100.15 429.85 101.7 429.25 L105.05 429.05" fill="#825a2d" fill-rule="evenodd" stroke="none"/>
    <path d="M102.5 429.2 Q104.0 428.9 105.55 429.6 106.95 430.3 107.6 431.65 108.15 432.8 107.4 433.8 106.8 434.85 105.3 435.15 103.8 435.4 102.4 434.7 100.9 434.0 100.3 432.8 99.65 431.55 100.4 430.5 101.0 429.45 102.5 429.2" fill="#d68b44" fill-rule="evenodd" stroke="none"/>
    <path d="M103.6 429.6 Q105.8 430.25 105.2 431.7 104.8 433.4 102.95 432.55 101.15 432.05 101.4 430.55 101.65 429.1 103.6 429.6" fill="#ffe9e0" fill-rule="evenodd" stroke="none"/>
    <path d="M645.35 250.0 Q648.5 252.55 649.0 253.5 649.75 255.25 649.5 257.45 650.05 262.75 645.6 272.85 644.8 273.7 644.2 273.55 L644.4 273.05 644.15 273.35 643.8 274.4 643.25 274.6 642.7 275.9 633.0 298.15 633.6 298.6 633.4 299.2 631.1 304.6 607.75 308.25 606.8 308.55 606.7 308.85 552.1 275.45 Q551.35 274.7 551.7 274.35 L553.1 268.85 Q553.45 268.6 553.95 268.45 L554.45 268.4 563.95 247.2 562.3 246.3 Q564.75 241.05 568.45 236.5 L569.35 235.3 569.3 235.4 Q570.65 233.55 572.5 231.95 575.1 229.1 577.9 227.15 L579.1 226.45 Q584.4 223.0 589.2 222.55 L592.7 222.35 592.6 222.5 596.75 223.1 599.45 223.85 600.0 224.15 600.0 224.1 602.95 225.4 603.85 225.85 Q607.25 227.5 609.55 229.2 L609.95 229.25 610.35 229.95 610.15 229.9 611.95 231.25 611.6 231.45 Q615.8 232.05 620.05 234.2 L620.55 234.55 620.75 234.65 621.1 234.85 627.0 239.05 628.0 239.95 Q630.2 242.1 631.05 244.5 634.75 244.45 638.65 246.1 L642.7 248.1 644.45 249.25 644.7 249.55 642.9 248.4 644.8 249.75 645.35 250.45 645.35 250.0 645.35 249.8 647.0 250.9 645.35 250.0 M610.15 229.9 L610.05 229.85 609.85 229.95 610.15 229.9 609.85 229.95 610.05 229.85 610.15 229.9 M645.6 270.5 L644.45 272.9 644.4 273.05 644.45 272.9 645.6 270.5 M579.9 250.1 L579.45 250.65 579.6 250.85 579.9 250.1 M647.75 253.45 L647.6 253.35 648.4 254.5 647.75 253.45 M550.9 276.3 L550.9 276.05 Q550.8 275.85 552.1 275.45 551.65 277.35 551.15 276.7 L550.9 276.3" fill="#ffe873" fill-rule="evenodd" stroke="none"/>
    <path d="M644.4 273.05 L644.2 273.55 Q644.8 273.7 645.6 272.85 650.05 262.75 649.5 257.45 649.75 255.25 649.0 253.5 648.5 252.55 645.35 250.0 L644.8 249.75 642.9 248.4 M642.7 248.1 L638.65 246.1 Q634.75 244.45 631.05 244.5 630.2 242.1 628.0 239.95 L627.0 239.05 621.1 234.85 620.75 234.65 620.55 234.55 620.05 234.2 Q615.8 232.05 611.6 231.45 L611.95 231.25 610.15 229.9 609.85 229.95 610.05 229.85 610.15 229.9 610.35 229.95 609.95 229.25 609.55 229.2 Q607.25 227.5 603.85 225.85 L602.95 225.4 600.0 224.1 600.0 224.15 599.45 223.85 596.75 223.1 592.6 222.5 592.7 222.35 589.2 222.55 Q584.4 223.0 579.1 226.45 L577.9 227.15 Q575.1 229.1 572.5 231.95 570.65 233.55 569.3 235.4 L569.35 235.3 568.45 236.5 Q564.75 241.05 562.3 246.3 L563.95 247.2 554.45 268.4 553.95 268.45 Q553.45 268.6 553.1 268.85 L551.7 274.35 M552.1 275.45 L606.7 308.85 606.8 308.55 607.75 308.25 631.1 304.6 633.4 299.2 633.6 298.6 633.0 298.15 642.7 275.9 643.25 274.6 643.8 274.4 644.15 273.35 644.4 273.05 644.45 272.9 645.6 270.5" fill="none" stroke="#3f1818" stroke-linecap="round" stroke-linejoin="round" stroke-width="2.0"/>
    <path d="M628.85 303.85 L606.25 308.0 624.95 265.35 646.85 264.15 628.85 303.85" fill="#5c150c" fill-rule="evenodd" stroke="none"/>
    <path d="M620.4 276.45 L607.25 305.75 553.5 275.55 566.15 245.85 620.4 276.45" fill="#963325" fill-rule="evenodd" stroke="none"/>
    <path d="M611.9 271.6 L620.4 276.45 607.25 305.75 553.5 275.55 556.2 269.15 Q576.1 278.1 586.05 279.45 601.55 281.55 611.9 271.6" fill="#7a291e" fill-rule="evenodd" stroke="none"/>
    <path d="M611.9 271.6 Q601.55 281.55 586.05 279.45 576.1 278.1 556.2 269.15 L566.15 245.85 611.9 271.6" fill="#c73420" fill-rule="evenodd" stroke="none"/>
    <path d="M642.65 274.55 Q643.0 274.45 642.9 274.7 L629.1 304.65 Q628.8 305.15 628.75 304.75 628.55 304.55 628.7 303.9 L641.85 274.6 642.65 274.55" fill="#de9b43" fill-rule="evenodd" stroke="none"/>
    <path d="M637.55 286.3 L634.05 294.15 632.25 295.95 635.35 289.05 637.55 286.3" fill="#edd55f" fill-rule="evenodd" stroke="none"/>
    <path d="M643.6 274.3 L642.9 276.2 Q636.6 290.45 630.45 304.6 629.65 305.3 629.5 304.2 629.45 303.85 630.7 301.05 L642.8 274.65 Q643.1 274.0 643.6 274.3" fill="#a36428" fill-rule="evenodd" stroke="none"/>
    <path d="M633.75 298.95 L632.55 299.25 633.0 298.2 633.75 298.95" fill="#995e25" fill-rule="evenodd" stroke="none"/>
    <path d="M644.1 274.2 L617.95 275.9 Q622.0 268.2 629.2 260.4 631.85 257.3 636.65 255.2 641.75 252.75 645.65 253.65 650.85 254.55 648.0 264.45 646.55 269.45 644.1 274.2" fill="#5c150c" fill-rule="evenodd" stroke="none"/>
    <path d="M644.0 274.65 L618.0 278.55 617.95 274.7 644.35 273.7 644.0 274.65" fill="#b06c2b" fill-rule="evenodd" stroke="none"/>
    <path d="M622.55 275.5 L606.85 309.15 603.15 307.05 618.25 273.35 622.55 275.5" fill="#ffd53f" fill-rule="evenodd" stroke="none"/>
    <path d="M618.25 273.35 L620.75 274.65 Q616.65 281.3 611.6 292.6 L605.2 306.4 Q604.7 306.8 604.25 306.4 603.8 305.95 603.85 305.15 L604.75 303.5 618.25 273.35" fill="#ffad3f" fill-rule="evenodd" stroke="none"/>
    <path d="M610.6 290.5 L613.55 288.2 610.1 295.9 607.55 297.25 610.6 290.5" fill="#ffe873" fill-rule="evenodd" stroke="none"/>
    <path d="M611.3 293.25 Q616.55 281.55 620.75 274.65 L622.55 275.5 608.5 305.45 Q608.2 306.8 607.65 307.1 L606.6 306.9 Q605.95 306.5 605.85 306.1 605.35 305.3 606.95 302.9 L611.3 293.25" fill="#bf752f" fill-rule="evenodd" stroke="none"/>
    <path d="M565.6 244.2 L568.1 245.45 Q564.35 251.65 559.75 261.85 L553.85 274.75 Q553.35 275.5 552.75 275.7 552.0 275.95 551.8 274.95 L565.6 244.2" fill="#ffad3f" fill-rule="evenodd" stroke="none"/>
    <path d="M557.95 261.3 L561.0 259.1 557.55 266.75 554.85 268.2 557.95 261.3" fill="#ffe873" fill-rule="evenodd" stroke="none"/>
    <path d="M568.1 245.45 L569.9 246.45 556.3 275.55 Q555.5 277.4 554.7 277.45 553.65 277.55 553.4 276.75 553.15 275.9 553.7 275.05 L556.05 269.85 Q565.1 250.4 568.1 245.45" fill="#bf752f" fill-rule="evenodd" stroke="none"/>
    <path d="M577.9 253.2 Q580.05 247.7 582.5 244.05 587.15 237.2 595.8 233.8 603.0 232.05 606.9 231.9 612.95 232.0 619.05 235.15 628.8 240.4 630.35 246.2 631.1 249.15 629.95 251.0 L610.8 271.6 580.15 255.35 Q577.5 253.7 577.9 253.2" fill="#963325" fill-rule="evenodd" stroke="none"/>
    <path d="M592.15 247.0 Q585.55 243.25 591.95 238.95 598.25 234.55 607.05 232.0 613.0 231.9 619.05 235.15 624.05 237.8 627.05 240.85 624.2 241.4 611.6 246.05 598.8 250.65 592.15 247.0" fill="#e3351e" fill-rule="evenodd" stroke="none"/>
    <path d="M569.35 245.2 L614.8 270.45 Q616.1 271.15 616.1 271.5 L615.45 272.95 615.2 273.1 Q614.9 273.8 614.0 273.65 L611.65 272.1 566.6 247.3 Q564.55 246.15 564.5 245.6 564.3 244.65 565.6 243.9 566.3 243.45 567.45 244.1 L569.35 245.2" fill="#f0a33b" fill-rule="evenodd" stroke="none"/>
    <path d="M575.35 253.85 Q579.0 246.8 585.15 240.15 597.6 227.05 610.2 230.2 L612.1 231.6 606.4 231.55 Q599.85 232.0 595.85 234.4 587.4 239.45 581.9 247.3 579.2 251.25 578.2 254.15 L575.35 253.85" fill="#b57a2d" fill-rule="evenodd" stroke="none"/>
    <path d="M610.0 229.6 L606.55 228.8 Q596.3 227.85 584.75 240.75 579.0 247.15 575.35 253.85 L562.5 246.55 Q566.1 238.85 572.6 232.2 585.55 218.95 599.65 224.25 606.55 227.0 610.0 229.6" fill="#ffad3f" fill-rule="evenodd" stroke="none"/>
    <path d="M607.65 228.1 Q604.7 227.6 601.4 228.2 L595.05 229.45 Q596.15 229.1 597.55 227.4 L600.2 224.35 Q603.55 225.75 607.65 228.1" fill="#ffe873" fill-rule="evenodd" stroke="none"/>
    <path d="M587.5 237.8 Q580.25 245.05 575.35 253.85 575.4 243.8 578.1 227.5 585.15 222.35 592.85 222.7 587.2 228.45 587.5 237.8" fill="#ffe873" fill-rule="evenodd" stroke="none"/>
    <path d="M562.5 246.55 Q564.95 241.35 569.5 235.6 565.75 244.6 566.2 248.65 L562.5 246.55" fill="#ffe873" fill-rule="evenodd" stroke="none"/>
    <path d="M573.95 253.05 Q581.8 240.9 590.45 234.5 601.1 226.35 610.2 229.5 L610.5 230.2 606.1 229.7 Q595.6 229.4 584.4 241.55 578.75 247.65 575.35 253.85 L573.95 253.05" fill="#fff1a6" fill-rule="evenodd" stroke="none"/>
    <path d="M600.45 250.65 Q602.4 249.25 604.15 249.1 605.95 249.25 606.75 250.7 607.2 251.45 607.65 253.7 607.95 255.55 604.5 257.25 L600.6 258.4 Q598.3 258.9 597.55 259.8 596.65 261.1 594.4 260.2 L591.15 258.5 Q588.85 257.2 588.25 256.7 L587.7 256.2 Q587.6 256.0 588.15 253.8 588.5 252.25 587.9 250.5 L586.9 249.1 Q586.4 248.35 586.6 247.65 586.9 245.6 589.3 243.65 592.1 241.75 594.45 243.7 594.95 244.25 594.65 246.7 594.15 249.9 594.2 250.25 594.15 251.75 595.4 252.45 L597.4 252.6 600.45 250.65" fill="#ffad3f" fill-rule="evenodd" stroke="none"/>
    <path d="M594.3 251.0 L590.45 255.45 Q588.7 253.65 588.2 252.5 L588.25 251.7 594.25 248.3 594.2 250.25 594.3 251.0" fill="#ffcf55" fill-rule="evenodd" stroke="none"/>
    <path d="M588.2 252.5 Q588.65 253.4 590.45 255.45 L590.2 255.5 587.7 255.1 588.15 253.8 588.2 252.5" fill="#bf8130" fill-rule="evenodd" stroke="none"/>
    <path d="M588.85 257.2 L587.7 256.2 Q587.45 255.6 587.7 255.1 L590.2 255.5 588.85 257.2" fill="#bf8130" fill-rule="evenodd" stroke="none"/>
    <path d="M590.2 255.5 L605.85 256.55 604.5 257.25 600.6 258.4 Q598.3 258.9 597.55 259.8 596.65 261.1 594.4 260.2 L591.15 258.5 588.85 257.2 590.2 255.5" fill="#8f6024" fill-rule="evenodd" stroke="none"/>
    <path d="M604.15 249.1 Q606.25 249.4 607.0 251.2 L601.55 254.4 603.55 249.25 604.15 249.1" fill="#ffcf55" fill-rule="evenodd" stroke="none"/>
    <path d="M594.65 246.7 Q594.15 249.9 594.2 250.25 594.15 251.75 595.4 252.45 L597.4 252.6 600.45 250.65 Q602.4 249.25 604.15 249.1 605.95 249.25 606.75 250.7 607.2 251.45 607.65 253.7 607.6 254.9 607.1 255.55 606.2 252.25 605.3 251.1 603.45 248.85 599.7 252.25 598.25 253.7 597.3 253.7 L594.45 252.9 Q592.9 252.5 593.1 248.8 593.2 244.7 592.85 244.35 591.7 242.65 588.3 245.25 587.4 245.9 586.6 247.65 586.9 245.6 589.3 243.65 592.1 241.75 594.45 243.7 594.95 244.25 594.65 246.7" fill="#ffe873" fill-rule="evenodd" stroke="none"/>
    <path d="M637.15 247.1 L641.2 249.1 Q644.0 250.7 645.6 252.1 L647.05 253.75 646.65 253.3 Q644.65 251.7 641.15 252.1 637.55 252.35 632.8 254.3 628.05 256.3 621.95 263.65 615.75 270.95 612.4 277.35 L600.7 270.75 Q604.4 262.5 610.9 255.5 623.6 241.3 637.15 247.1" fill="#ffad3f" fill-rule="evenodd" stroke="none"/>
    <path d="M602.4 270.05 Q605.0 264.2 609.75 258.25 605.95 266.75 605.6 271.85 L602.4 270.05" fill="#ffe873" fill-rule="evenodd" stroke="none"/>
    <path d="M631.2 244.95 Q624.0 250.7 623.45 262.5 618.05 268.95 614.85 275.4 612.75 260.75 616.05 251.35 623.7 244.9 631.2 244.95" fill="#ffe873" fill-rule="evenodd" stroke="none"/>
    <path d="M639.45 246.8 L645.7 250.0 Q642.75 249.85 640.15 251.3 L637.65 251.9 Q638.65 248.2 639.45 246.8" fill="#ffe873" fill-rule="evenodd" stroke="none"/>
    <path d="M647.3 266.35 Q649.6 258.35 647.7 255.5 646.65 253.9 643.3 253.95 639.7 254.1 635.35 256.4 627.85 260.55 622.3 269.4 619.4 273.7 618.15 277.3 L615.4 277.4 618.85 271.35 Q623.15 264.0 628.9 259.3 634.45 254.8 640.1 252.8 645.0 251.25 647.75 253.65 652.6 257.75 645.8 273.15 644.95 274.05 644.35 273.85 L647.3 266.35" fill="#b57a2d" fill-rule="evenodd" stroke="none"/>
    <path d="M641.85 251.15 Q634.4 252.4 625.6 261.4 616.9 270.1 615.4 277.4 L614.1 276.7 Q617.45 270.25 621.95 264.45 629.15 255.25 636.3 252.45 638.7 251.4 641.85 251.15" fill="#fff2b0" fill-rule="evenodd" stroke="none"/>
    <path d="M647.8 252.05 Q648.6 252.45 649.25 253.85 649.9 255.55 649.7 257.75 649.3 255.1 648.0 253.8 647.65 253.45 646.05 252.85 643.35 252.0 640.1 252.8 635.15 254.3 628.9 259.3 623.15 264.0 618.85 271.35 L615.4 277.4 Q616.9 270.1 625.6 261.4 634.4 252.4 641.85 251.15 644.95 250.9 647.8 252.05" fill="#fff2b0" fill-rule="evenodd" stroke="none"/>
    <path d="M599.85 263.6 Q597.45 262.55 588.95 257.65 580.35 252.55 580.55 252.15 L581.1 251.35 Q594.25 258.3 604.3 264.3 L603.65 265.05 599.85 263.6" fill="#ffcf55" fill-rule="evenodd" stroke="none"/>
    <path d="M586.6 252.25 L585.6 253.0 Q583.35 254.95 583.6 257.5 583.6 260.05 582.5 259.6 581.75 259.4 581.15 258.65 580.35 257.9 580.45 257.45 580.45 256.25 580.9 255.05 581.6 252.75 584.0 250.15 584.7 249.35 585.8 249.7 587.1 250.05 587.05 251.2 587.15 251.75 586.6 252.25" fill="#ffad3f" fill-rule="evenodd" stroke="none"/>
    <path d="M600.05 259.6 Q600.7 258.8 602.0 259.2 603.1 259.5 603.25 260.7 603.3 261.25 602.6 261.65 L601.65 262.5 Q599.55 264.65 599.6 267.0 599.6 269.5 598.5 269.0 L597.15 268.1 Q596.45 267.3 596.45 266.85 L597.0 264.5 Q597.75 262.25 600.05 259.6" fill="#ffad3f" fill-rule="evenodd" stroke="none"/>
    <path d="M596.75 266.2 L596.9 266.25 Q596.3 265.1 598.0 262.35 600.1 258.8 601.3 260.4 601.8 261.05 600.85 262.35 L599.45 264.55 598.45 266.8 Q597.55 267.95 596.75 266.2" fill="#ffe873" fill-rule="evenodd" stroke="none"/>
    <path d="M610.55 301.3 L607.65 307.8 Q606.6 309.05 604.7 307.95 L552.9 277.3 551.15 275.15 550.95 274.85 550.9 273.85 552.65 268.9 Q552.9 268.65 553.5 268.45 L555.6 268.7 Q557.45 269.6 558.2 271.5 581.9 284.9 605.4 298.25 L606.2 298.2 608.35 298.75 Q610.05 299.55 610.55 301.3" fill="#b57a2d" fill-rule="evenodd" stroke="none"/>
    <path d="M550.65 274.4 L552.65 268.9 Q552.9 268.65 553.5 268.45 L555.6 268.7 550.65 274.4" fill="#ffe873" fill-rule="evenodd" stroke="none"/>
    <path d="M609.6 301.65 Q610.35 302.1 610.35 302.55 610.2 303.6 609.0 305.6 L607.0 308.15 Q606.1 308.75 604.7 307.95 L602.35 306.5 556.05 279.45 Q552.1 277.25 551.2 275.7 550.25 274.2 551.5 272.55 552.65 270.7 553.85 270.1 555.15 269.4 556.25 271.9 L605.5 299.45 608.35 300.95 609.6 301.65" fill="#ffe873" fill-rule="evenodd" stroke="none"/>
    <path d="M563.45 283.65 L555.5 278.65 557.25 273.95 561.15 275.0 563.45 283.65" fill="#ffad3f" fill-rule="evenodd" stroke="none"/>
    <path d="M584.65 295.8 L585.45 288.75 Q588.6 290.55 591.7 292.15 L593.35 300.9 584.65 295.8" fill="#ffad3f" fill-rule="evenodd" stroke="none"/>
    <path d="M595.85 294.25 L598.45 295.6 601.75 305.95 598.2 303.95 597.25 299.25 Q596.2 294.45 595.85 294.25" fill="#ffad3f" fill-rule="evenodd" stroke="none"/>
    <path d="M607.95 301.8 L554.35 271.45 554.75 270.5 608.35 300.85 607.95 301.8" fill="#fff2b0" fill-rule="evenodd" stroke="none"/>
    <path d="M606.6 308.7 L605.2 307.9 608.35 300.85 609.75 301.65 606.6 308.7" fill="#fff2b0" fill-rule="evenodd" stroke="none"/>
    <path d="M633.65 299.55 L631.25 304.85 606.1 308.7 609.2 301.8 633.65 299.55" fill="#b06c2b" fill-rule="evenodd" stroke="none"/>
    <path d="M617.4 301.0 L620.3 300.85 624.45 305.85 619.3 306.75 Q618.7 303.75 617.4 301.0" fill="#f0aa4d" fill-rule="evenodd" stroke="none"/>
    <path d="M627.75 303.55 Q627.75 301.05 627.4 300.05 L632.0 299.8 629.65 304.95 Q628.0 305.5 627.75 303.55" fill="#f0aa4d" fill-rule="evenodd" stroke="none"/>
    <path d="M633.65 299.55 L631.25 304.85 624.45 305.85 620.3 300.85 627.4 300.05 Q627.75 301.05 627.75 303.55 628.0 305.5 629.65 304.95 L632.0 299.8 633.65 299.55" fill="#b06c2b" fill-rule="evenodd" stroke="none"/>
    <path d="M617.4 301.0 Q618.7 303.75 619.3 306.75 L606.1 308.7 609.2 301.8 617.4 301.0" fill="#b06c2b" fill-rule="evenodd" stroke="none"/>
    <path d="M633.75 298.95 L633.65 299.55 609.2 301.8 609.95 300.1 633.75 298.95" fill="#f0aa4d" fill-rule="evenodd" stroke="none"/>
    <path d="M585.55 267.45 L585.55 271.0 Q585.55 271.6 585.35 271.7 L584.75 272.35 583.15 275.1 583.15 273.8 Q582.85 271.6 582.9 270.8 582.85 270.5 584.05 269.65 L585.55 267.45" fill="#b57a2d" fill-rule="evenodd" stroke="none"/>
    <path d="M592.1 275.2 Q590.95 277.7 587.8 278.4 584.65 278.95 581.6 277.25 578.55 275.5 576.95 272.6 575.45 269.6 576.5 267.2 577.7 264.55 580.9 263.85 584.15 263.05 587.2 264.8 590.25 266.5 591.7 269.65 593.25 272.65 592.1 275.2" fill="#ffb654" fill-rule="evenodd" stroke="none"/>
    <path d="M585.9 262.7 Q588.75 263.15 591.55 265.4 595.4 267.9 596.8 272.55 598.15 276.95 596.35 280.25 592.35 287.8 581.8 281.85 575.55 278.3 573.9 273.35 572.35 268.65 575.15 265.25 578.25 261.7 585.9 262.7" fill="#ffad3f" fill-rule="evenodd" stroke="none"/>
    <path d="M595.45 269.8 Q596.95 272.45 597.15 275.25 597.45 278.25 596.35 280.25 592.35 287.8 581.8 281.85 575.7 278.35 573.9 273.35 572.45 268.9 575.15 265.25 577.1 263.0 581.05 262.45 577.9 263.15 576.15 265.65 574.5 267.75 574.6 270.45 574.8 277.15 583.3 281.0 587.1 282.7 590.75 281.7 595.25 280.65 596.2 276.0 596.7 273.8 596.3 272.25 L595.45 269.8" fill="#ab692a" fill-rule="evenodd" stroke="none"/>
    <path d="M574.85 272.4 Q575.6 276.35 580.95 279.35 584.15 281.15 587.45 281.7 L591.85 281.05 Q593.05 280.55 594.45 279.2 595.25 278.1 595.9 276.35 596.35 275.4 596.1 273.65 596.2 272.5 595.7 271.1 L594.55 268.6 Q595.7 268.6 596.5 272.55 597.0 275.3 596.15 277.15 L595.3 278.65 Q592.65 282.5 587.4 282.5 584.3 282.25 580.6 280.15 575.5 277.3 574.5 272.7 573.95 269.4 575.1 266.9 576.45 263.85 580.4 262.9 L583.9 262.45 584.0 262.6 583.1 262.55 579.45 263.55 Q576.4 264.6 575.2 267.25 574.25 269.4 574.85 272.4" fill="#ffe873" fill-rule="evenodd" stroke="none"/>
    <path d="M593.9 276.85 Q592.6 279.8 589.15 280.3 585.65 281.0 582.2 279.05 578.65 277.05 577.15 274.0 575.4 270.7 576.65 267.95 578.0 265.0 581.55 264.2 585.0 263.2 588.45 265.1 591.9 267.05 593.55 270.5 595.15 274.1 593.9 276.85" fill="#ab692a" fill-rule="evenodd" stroke="none"/>
    <path d="M593.0 276.35 Q591.7 279.3 588.25 279.8 584.9 280.45 581.5 278.5 L578.85 276.65 578.1 275.75 Q574.55 271.25 577.2 266.75 578.8 264.35 582.6 263.65 585.35 263.55 587.65 264.85 590.95 266.7 592.6 270.15 594.25 273.6 593.0 276.35" fill="#ffb654" fill-rule="evenodd" stroke="none"/>
    <path d="M576.0 267.6 Q577.75 263.75 582.6 263.65 578.8 264.35 577.2 266.75 574.55 271.25 578.1 275.75 L578.85 276.65 Q574.05 271.95 576.0 267.6" fill="#ffe9cc" fill-rule="evenodd" stroke="none"/>
    <path d="M586.75 266.5 Q587.15 271.2 586.15 272.85 585.0 274.65 582.6 276.8 582.3 271.8 582.85 270.5 583.15 269.6 584.95 267.95 L586.75 266.5" fill="#5c3817" fill-rule="evenodd" stroke="none"/>
    <path d="M586.8 267.7 Q587.25 271.3 586.15 272.85 L583.1 276.45 583.85 271.15 586.8 267.7" fill="#2e1c0b" fill-rule="evenodd" stroke="none"/>
    <path d="M281.0 161.65 Q281.05 158.1 283.7 155.85 286.2 153.55 289.65 153.7 292.95 153.85 295.35 156.45 297.75 158.95 297.6 162.45 L297.15 164.6 Q296.9 166.95 295.1 168.65 L294.25 169.45 294.05 169.55 292.9 171.3 289.05 182.05 288.95 183.45 Q288.45 185.55 286.75 186.7 285.25 187.5 283.85 187.4 L282.6 187.55 281.3 187.2 264.15 190.45 263.8 188.2 262.95 183.45 262.55 181.85 276.8 179.2 Q277.0 178.35 277.5 177.7 278.2 176.55 279.4 175.75 280.85 174.9 282.25 174.85 L283.0 174.75 284.6 170.2 283.45 167.95 282.95 167.65 Q280.65 164.95 281.0 161.65" fill="#a83636" fill-rule="evenodd" stroke="none"/>
    <path d="M281.0 161.65 Q281.05 158.1 283.7 155.85 286.2 153.55 289.65 153.7 292.95 153.85 295.35 156.45 297.75 158.95 297.6 162.45 L297.15 164.6 Q296.9 166.95 295.1 168.65 L294.25 169.45 294.05 169.55 292.9 171.3 289.05 182.05 288.95 183.45 Q288.45 185.55 286.75 186.7 285.25 187.5 283.85 187.4 L282.6 187.55 281.3 187.2 264.15 190.45 263.8 188.2 262.95 183.45 262.55 181.85 276.8 179.2 Q277.0 178.35 277.5 177.7 278.2 176.55 279.4 175.75 280.85 174.9 282.25 174.85 L283.0 174.75 284.6 170.2 283.45 167.95 282.95 167.65 Q280.65 164.95 281.0 161.65 Z" fill="none" stroke="#2b2e44" stroke-linecap="round" stroke-linejoin="round" stroke-width="3.0"/>
    <path d="M282.3 181.65 L280.85 181.15 286.95 164.55 288.6 165.1 282.3 181.65" fill="#a2a2a2" fill-rule="evenodd" stroke="none"/>
    <path d="M288.6 165.1 L292.3 166.85 286.65 182.95 282.3 181.65 288.6 165.1" fill="#c8c8c8" fill-rule="evenodd" stroke="none"/>
    <path d="M292.3 166.85 L294.45 167.45 288.65 183.7 286.65 182.95 292.3 166.85" fill="#e6e6e6" fill-rule="evenodd" stroke="none"/>
    <path d="M286.95 164.55 L288.6 165.1 292.3 166.85 294.45 167.45" fill="none" stroke="#283757" stroke-linecap="round" stroke-linejoin="round" stroke-opacity="0.49803922" stroke-width="0.1"/>
    <path d="M283.8 179.8 L284.05 184.3 263.75 188.2 262.85 183.5 283.8 179.8" fill="#c8c8c8" fill-rule="evenodd" stroke="none"/>
    <path d="M284.05 184.3 L284.5 186.7 264.15 190.55 263.75 188.2 284.05 184.3" fill="#e6e6e6" fill-rule="evenodd" stroke="none"/>
    <path d="M262.85 183.5 L262.5 181.9 283.55 177.95 283.8 179.8 262.85 183.5" fill="#a2a2a2" fill-rule="evenodd" stroke="none"/>
    <path d="M283.55 177.95 L283.8 179.8 284.05 184.3 284.5 186.7" fill="none" stroke="#283757" stroke-linecap="round" stroke-linejoin="round" stroke-opacity="0.49803922" stroke-width="0.1"/>
    <path d="M276.65 179.85 Q276.95 178.8 277.55 177.95 278.2 176.8 279.4 175.9 280.85 175.05 282.25 175.05 L284.25 175.1 285.25 175.4 Q287.05 176.25 288.2 178.05 289.05 179.35 289.0 180.8 289.25 181.75 288.95 182.85 L288.3 184.1 Q287.7 185.85 286.05 186.8 284.3 187.85 282.6 187.75 L281.2 187.45 280.3 187.1 Q278.45 186.35 277.3 184.75 276.4 182.95 276.45 181.2 276.4 180.65 276.65 179.85" fill="#b7b7b7" fill-rule="evenodd" stroke="none"/>
    <path d="M283.9 186.15 Q281.8 185.7 280.75 183.9 279.6 182.1 280.1 180.05 280.55 178.0 282.35 176.9 284.05 175.75 286.15 176.2 288.2 176.7 289.35 178.5 290.45 180.25 290.0 182.3 289.5 184.35 287.75 185.5 285.95 186.65 283.9 186.15" fill="#dae3e9" fill-rule="evenodd" stroke="none"/>
    <path d="M286.75 184.55 Q286.6 185.25 286.0 185.65 285.35 186.05 284.65 185.9 283.95 185.7 283.6 185.1 283.2 184.5 283.35 183.8 283.5 183.1 284.1 182.7 L285.45 182.5 Q286.15 182.65 286.5 183.25 286.9 183.85 286.75 184.55" fill="#ffffff" fill-rule="evenodd" stroke="none"/>
    <path d="M282.95 167.85 Q280.6 165.25 280.9 161.7 281.05 158.25 283.7 156.1 286.2 153.8 289.6 153.9 293.0 154.05 295.35 156.65 297.8 159.2 297.55 162.6 297.35 166.1 294.75 168.45 L293.1 169.65 Q292.3 170.15 291.3 170.3 L288.7 170.6 Q287.15 170.45 286.1 169.85 285.15 169.5 284.25 168.8 L282.95 167.85" fill="#2b9be6" fill-rule="evenodd" stroke="none"/>
    <path d="M295.75 159.75 Q297.5 161.6 297.45 164.25 297.3 166.8 295.45 168.55 293.55 170.3 291.0 170.25 288.35 170.1 286.6 168.25 284.85 166.35 285.0 163.8 285.05 161.15 286.95 159.4 288.8 157.65 291.45 157.8 294.0 157.85 295.75 159.75" fill="#3ebbeb" fill-rule="evenodd" stroke="none"/>
    <path d="M296.5 161.0 Q297.3 161.85 297.25 162.95 297.2 164.15 296.35 164.9 295.5 165.7 294.35 165.65 293.2 165.6 292.4 164.75 291.65 163.9 291.7 162.8 291.7 161.6 292.55 160.8 293.4 160.05 294.6 160.1 295.75 160.15 296.5 161.0" fill="#ffffff" fill-opacity="0.69411767" fill-rule="evenodd" stroke="none"/>
    <path d="M286.55 170.3 L284.8 170.85 282.9 167.45 282.9 167.2 Q283.8 166.45 284.7 166.2 L285.05 167.45 285.75 168.95 286.55 170.3" fill="#a2a2a2" fill-rule="evenodd" stroke="none"/>
    <path d="M284.7 166.2 Q286.65 165.45 289.05 165.55 292.0 165.8 293.95 167.15 293.95 167.6 293.45 168.05 L292.7 169.1 291.95 169.95 290.95 170.85 288.6 170.6 286.55 170.3 285.75 168.95 285.05 167.45 284.7 166.2" fill="#c8c8c8" fill-rule="evenodd" stroke="none"/>
    <path d="M293.95 167.15 L295.15 168.35 294.1 169.8 292.8 171.6 291.05 170.85 290.95 170.85 291.95 169.95 292.7 169.1 293.45 168.05 Q293.95 167.6 293.95 167.15" fill="#e6e6e6" fill-rule="evenodd" stroke="none"/>
    <path d="M295.7 218.4 L295.9 218.35 296.3 218.85 Q297.2 220.05 297.6 221.55 297.65 223.45 296.7 225.4 L295.8 225.6 294.95 235.5 299.35 236.5 Q301.95 238.1 302.6 241.1 303.2 243.9 302.3 245.8 301.7 247.25 300.0 248.5 290.3 248.05 280.65 244.25 280.55 242.3 280.7 240.75 281.05 237.1 282.85 233.9 L283.55 227.0 283.25 226.65 Q282.25 225.65 282.1 224.2 L282.0 223.9 282.0 223.7 278.0 220.55 286.15 210.85 295.7 218.4" fill="#9c4242" fill-rule="evenodd" stroke="none"/>
    <path d="M295.7 218.4 L295.9 218.35 296.3 218.85 Q297.2 220.05 297.6 221.55 297.65 223.45 296.7 225.4 L295.8 225.6 294.95 235.5 299.35 236.5 Q301.95 238.1 302.6 241.1 303.2 243.9 302.3 245.8 301.7 247.25 300.0 248.5 290.3 248.05 280.65 244.25 280.55 242.3 280.7 240.75 281.05 237.1 282.85 233.9 L283.55 227.0 283.25 226.65 Q282.25 225.65 282.1 224.2 L282.0 223.9 282.0 223.7 278.0 220.55 286.15 210.85 295.7 218.4 Z" fill="none" stroke="#2b2e44" stroke-linecap="round" stroke-linejoin="round" stroke-width="3.0"/>
    <path d="M294.1 221.35 L290.45 226.1 280.25 218.05 284.15 213.45 294.1 221.35" fill="#c8c8c8" fill-rule="evenodd" stroke="none"/>
    <path d="M284.15 213.45 L286.05 211.05 296.05 218.7 294.1 221.35 284.15 213.45 M290.45 226.1 L288.3 228.6 277.9 220.65 280.25 218.05 290.45 226.1" fill="#aaaaaa" fill-rule="evenodd" stroke="none"/>
    <path d="M291.25 241.35 L285.35 240.95 287.45 221.5 293.25 222.25 291.25 241.35" fill="#c8c8c8" fill-rule="evenodd" stroke="none"/>
    <path d="M285.35 240.95 L282.25 240.65 284.2 221.2 287.45 221.5 285.35 240.95 M293.25 222.25 L296.2 222.4 294.4 241.3 291.25 241.35 293.25 222.25" fill="#aaaaaa" fill-rule="evenodd" stroke="none"/>
    <path d="M285.8 227.5 L284.75 227.5 Q283.9 227.45 283.25 226.8 282.4 225.7 282.1 224.35 L282.05 224.0 282.0 223.4 Q281.75 222.15 282.45 220.95 L295.9 218.45 296.4 218.95 Q297.2 220.1 297.6 221.6 297.7 223.6 296.75 225.45 L295.05 225.95 292.65 226.85 287.5 227.55 285.8 227.5" fill="#b7b7b7" fill-rule="evenodd" stroke="none"/>
    <path d="M285.6 223.3 Q287.3 222.2 289.8 221.8 L294.1 221.95 Q295.95 222.5 296.1 223.65 296.2 224.8 294.55 225.85 292.85 227.0 290.35 227.35 L286.05 227.2 Q284.2 226.65 284.1 225.5 283.95 224.35 285.6 223.3" fill="#dae4e9" fill-rule="evenodd" stroke="none"/>
    <path d="M287.7 221.8 Q288.5 221.25 289.75 221.05 L291.9 221.1 Q292.8 221.35 292.9 221.9 293.0 222.55 292.15 223.1 291.3 223.65 290.05 223.8 L287.9 223.75 Q287.0 223.5 286.95 222.9 286.85 222.3 287.7 221.8" fill="#ffffff" fill-rule="evenodd" stroke="none"/>
    <path d="M290.7 241.65 Q287.6 239.9 287.95 237.8 288.65 235.0 295.7 236.75 297.4 237.2 299.0 238.25 301.0 239.5 301.3 240.55 L301.3 240.9 301.35 241.15 Q301.15 242.4 299.3 243.25 L295.35 243.5 Q292.85 242.85 290.7 241.65 M291.35 237.9 Q291.15 239.1 292.65 239.9 L295.5 240.85 Q298.95 241.7 299.25 240.3 299.3 239.7 298.35 238.8 L296.7 237.5 295.85 237.45 295.45 237.2 293.3 236.9 Q291.65 236.95 291.35 237.9" fill="#56d0ff" fill-rule="evenodd" stroke="none"/>
    <path d="M291.35 237.9 Q291.65 236.95 293.3 236.9 L295.45 237.2 295.85 237.45 296.7 237.5 298.35 238.8 Q299.3 239.7 299.25 240.3 298.95 241.7 295.5 240.85 L292.65 239.9 Q291.15 239.1 291.35 237.9" fill="#7edbff" fill-rule="evenodd" stroke="none"/>
    <path d="M290.7 241.65 Q292.85 242.85 295.35 243.5 L299.3 243.25 Q301.15 242.4 301.35 241.15 L301.3 240.9 301.3 240.55 Q301.0 239.5 299.0 238.25 297.4 237.2 295.7 236.75 288.65 235.0 287.95 237.8 287.6 239.9 290.7 241.65 M280.75 240.85 Q281.05 236.8 283.4 233.2 L299.4 236.55 Q302.0 238.2 302.65 241.2 303.2 244.0 302.35 245.85 290.8 246.3 280.75 240.85" fill="#3ebbeb" fill-rule="evenodd" stroke="none"/>
    <path d="M280.75 240.85 Q290.8 246.3 302.35 245.85 301.75 247.45 300.0 248.6 290.3 248.1 280.65 244.3 L280.75 240.85" fill="#1e82a8" fill-rule="evenodd" stroke="none"/>
    <path d="M243.3 251.7 L245.05 249.5 Q247.55 246.65 251.3 245.3 L253.05 243.4 252.8 242.65 Q252.1 240.95 252.4 239.65 252.35 239.4 252.55 239.1 L252.7 238.65 Q253.15 237.45 254.25 236.65 L256.1 237.3 256.3 231.15 269.95 232.65 269.55 242.25 269.75 243.1 270.15 245.1 270.25 245.15 270.1 245.35 270.1 246.2 Q269.25 248.05 267.6 249.2 L266.7 249.05 260.4 255.75 261.4 256.8 Q262.4 259.5 261.15 262.0 260.1 264.6 258.3 265.4 256.9 266.3 255.1 266.1 248.45 260.65 243.45 252.75 L243.3 251.7" fill="#b43838" fill-rule="evenodd" stroke="none"/>
    <path d="M243.45 252.75 L243.1 251.95 243.3 251.7 243.45 252.75" fill="#1e82a8" fill-rule="evenodd" stroke="none"/>
    <path d="M243.3 251.7 L245.05 249.5 Q247.55 246.65 251.3 245.3 L253.05 243.4 252.8 242.65 Q252.1 240.95 252.4 239.65 252.35 239.4 252.55 239.1 L252.7 238.65 Q253.15 237.45 254.25 236.65 L256.1 237.3 256.3 231.15 269.95 232.65 269.55 242.25 269.75 243.1 270.15 245.1 270.25 245.15 270.1 245.35 270.1 246.2 Q269.25 248.05 267.6 249.2 L266.7 249.05 260.4 255.75 261.4 256.8 Q262.4 259.5 261.15 262.0 260.1 264.6 258.3 265.4 256.9 266.3 255.1 266.1 248.45 260.65 243.45 252.75" fill="none" stroke="#2b2e44" stroke-linecap="round" stroke-linejoin="round" stroke-width="3.0"/>
    <path d="M261.3 239.8 L251.0 250.65 247.8 248.75 258.0 237.85 261.3 239.8 M256.95 253.9 L267.25 243.35 270.15 245.05 260.3 255.6 256.95 253.9" fill="#aaaaaa" fill-rule="evenodd" stroke="none"/>
    <path d="M261.3 239.8 L267.25 243.35 256.95 253.9 251.0 250.65 261.3 239.8" fill="#c8c8c8" fill-rule="evenodd" stroke="none"/>
    <path d="M257.95 244.05 L258.3 231.35 267.8 232.25 267.2 244.65 257.95 244.05" fill="#c8c8c8" fill-rule="evenodd" stroke="none"/>
    <path d="M258.3 231.35 L257.95 244.05 255.8 243.8 256.2 230.95 258.3 231.35 M267.2 244.65 L267.8 232.25 269.75 232.5 269.4 244.85 267.2 244.65" fill="#aaaaaa" fill-rule="evenodd" stroke="none"/>
    <path d="M256.55 253.6 Q255.25 252.65 254.6 253.2 253.8 254.05 254.6 255.5 254.9 256.35 256.1 257.85 258.2 260.3 259.2 259.5 259.6 258.95 259.2 257.95 L258.8 255.95 258.25 255.4 258.1 255.05 256.55 253.6 M258.5 254.9 Q259.5 256.05 260.15 257.75 261.0 259.85 260.55 260.85 L260.3 261.15 260.3 261.2 Q259.3 262.15 257.5 261.7 255.55 261.2 254.4 259.75 252.9 257.85 252.0 255.65 250.7 252.6 252.0 251.25 254.1 249.55 258.5 254.9" fill="#56d0ff" fill-rule="evenodd" stroke="none"/>
    <path d="M256.55 253.6 L258.1 255.05 258.25 255.4 258.8 255.95 259.2 257.95 Q259.6 258.95 259.2 259.5 258.2 260.3 256.1 257.85 254.9 256.35 254.6 255.5 253.8 254.05 254.6 253.2 255.25 252.65 256.55 253.6" fill="#7edbff" fill-rule="evenodd" stroke="none"/>
    <path d="M258.5 254.9 Q254.1 249.55 252.0 251.25 250.7 252.6 252.0 255.65 252.9 257.85 254.4 259.75 255.55 261.2 257.5 261.7 259.3 262.15 260.3 261.2 L260.3 261.15 260.55 260.85 Q261.0 259.85 260.15 257.75 259.5 256.05 258.5 254.9 M258.3 265.4 Q249.45 259.15 245.05 249.45 247.5 246.6 251.3 245.3 L261.3 256.85 Q262.4 259.5 261.15 262.0 260.05 264.5 258.3 265.4" fill="#3ebbeb" fill-rule="evenodd" stroke="none"/>
    <path d="M258.3 265.4 Q256.9 266.3 255.1 266.1 248.1 260.4 243.05 252.0 L245.05 249.45 Q249.45 259.15 258.3 265.4" fill="#1e82a8" fill-rule="evenodd" stroke="none"/>
    <path d="M252.55 239.05 L252.7 238.55 Q253.2 237.25 254.25 236.45 L269.6 242.15 269.85 243.05 Q270.35 244.5 270.1 246.2 269.35 248.0 267.65 249.1 L265.6 248.7 262.75 248.05 Q258.75 246.9 256.95 245.6 255.85 245.15 255.05 244.5 L254.1 243.85 Q253.0 243.4 252.8 242.45 252.2 240.85 252.4 239.6 252.4 239.3 252.55 239.05" fill="#b7b7b7" fill-rule="evenodd" stroke="none"/>
    <path d="M256.95 238.85 Q259.2 238.85 262.0 240.0 264.8 241.1 266.5 242.7 268.25 244.3 267.9 245.4 267.55 246.55 265.3 246.6 263.1 246.6 260.3 245.5 257.5 244.35 255.75 242.75 254.0 241.2 254.35 240.05 254.7 238.95 256.95 238.85" fill="#dae4e9" fill-rule="evenodd" stroke="none"/>
    <path d="M261.35 239.4 Q262.5 239.35 263.95 239.95 L266.15 241.25 Q267.05 242.0 266.85 242.55 266.7 243.2 265.55 243.15 264.5 243.2 263.1 242.65 L260.8 241.3 Q260.0 240.55 260.15 239.9 260.3 239.35 261.35 239.4" fill="#ffffff" fill-rule="evenodd" stroke="none"/>
    <path d="M237.2 202.5 L237.5 202.75 240.5 205.25 241.8 206.35 232.05 217.75 232.1 218.6 Q232.05 219.7 231.4 221.45 231.2 222.2 230.6 222.95 L231.85 227.9 234.4 229.05 234.6 229.2 234.5 229.3 Q236.2 229.8 237.0 230.4 L238.45 232.25 Q240.1 234.75 239.55 237.55 238.9 240.5 236.55 242.1 233.9 243.65 231.1 243.05 228.25 242.4 226.65 240.05 225.7 238.55 225.55 236.75 225.35 235.7 225.5 234.7 L225.5 234.6 225.45 234.55 225.45 234.45 223.5 224.4 Q222.95 224.6 221.95 223.5 220.75 222.2 220.2 219.95 219.85 218.8 220.2 217.8 220.3 217.15 220.7 216.2 221.2 215.0 222.4 214.1 L224.0 213.05 225.35 212.75 226.3 212.0 234.05 202.85 235.6 201.05 237.2 202.5" fill="#a12929" fill-rule="evenodd" stroke="none"/>
    <path d="M237.2 202.5 L237.5 202.75 240.5 205.25 241.8 206.35 232.05 217.75 232.1 218.6 Q232.05 219.7 231.4 221.45 231.2 222.2 230.6 222.95 L231.85 227.9 234.4 229.05 234.6 229.2 234.5 229.3 Q236.2 229.8 237.0 230.4 L238.45 232.25 Q240.1 234.75 239.55 237.55 238.9 240.5 236.55 242.1 233.9 243.65 231.1 243.05 228.25 242.4 226.65 240.05 225.7 238.55 225.55 236.75 225.35 235.7 225.5 234.7 L225.5 234.6 225.45 234.55 225.45 234.45 223.5 224.4 Q222.95 224.6 221.95 223.5 220.75 222.2 220.2 219.95 219.85 218.8 220.2 217.8 220.3 217.15 220.7 216.2 221.2 215.0 222.4 214.1 L224.0 213.05 225.35 212.75 226.3 212.0 234.05 202.85 235.6 201.05 237.2 202.5 Z" fill="none" stroke="#2b2e44" stroke-linecap="round" stroke-linejoin="round" stroke-width="3.0"/>
    <path d="M227.95 218.35 L229.45 218.05 233.7 234.75 232.15 235.15 227.95 218.35" fill="#a2a2a2" fill-rule="evenodd" stroke="none"/>
    <path d="M232.15 235.15 L228.1 235.6 223.9 219.7 227.95 218.35 232.15 235.15" fill="#c8c8c8" fill-rule="evenodd" stroke="none"/>
    <path d="M228.1 235.6 L226.15 236.3 221.95 220.15 223.9 219.7 228.1 235.6" fill="#e6e6e6" fill-rule="evenodd" stroke="none"/>
    <path d="M233.7 234.75 L232.15 235.15 228.1 235.6 226.15 236.3" fill="none" stroke="#283757" stroke-linecap="round" stroke-linejoin="round" stroke-opacity="0.49803922" stroke-width="0.1"/>
    <path d="M223.9 218.25 L237.3 202.55 240.75 205.35 226.7 221.35 223.9 218.25" fill="#c8c8c8" fill-rule="evenodd" stroke="none"/>
    <path d="M237.3 202.55 L223.9 218.25 222.25 216.9 235.65 201.05 237.3 202.55" fill="#e6e6e6" fill-rule="evenodd" stroke="none"/>
    <path d="M226.7 221.35 L240.75 205.35 241.85 206.35 227.85 222.55 226.7 221.35" fill="#a2a2a2" fill-rule="evenodd" stroke="none"/>
    <path d="M223.9 218.25 L226.7 221.35 227.85 222.55 M222.25 216.9 L223.9 218.25 Z" fill="none" stroke="#283757" stroke-linecap="round" stroke-linejoin="round" stroke-opacity="0.49803922" stroke-width="0.1"/>
    <path d="M225.55 212.9 L229.6 213.2 Q231.35 214.3 232.35 215.9 L232.95 217.2 Q233.35 218.2 233.3 219.35 233.4 220.75 232.8 222.2 232.0 223.75 230.9 224.6 230.05 225.3 229.0 225.65 L227.9 225.9 Q226.0 226.25 223.85 225.35 222.45 224.7 221.6 223.55 220.9 222.75 220.55 221.6 220.15 220.9 220.2 220.2 219.95 218.25 220.75 216.65 221.6 214.6 223.2 213.65 223.9 213.35 224.55 213.2 L225.55 212.9" fill="#b7b7b7" fill-rule="evenodd" stroke="none"/>
    <path d="M225.05 213.55 L229.15 213.7 Q231.15 214.65 231.95 216.7 232.7 218.8 231.8 220.75 230.9 222.8 228.8 223.55 L224.7 223.4 Q222.7 222.55 221.95 220.45 221.15 218.4 222.05 216.35 223.0 214.35 225.05 213.55" fill="#dae3e9" fill-rule="evenodd" stroke="none"/>
    <path d="M221.65 217.25 Q221.4 216.55 221.7 215.85 222.05 215.15 222.75 214.9 L224.1 214.95 Q224.8 215.25 225.05 215.95 225.35 216.65 225.05 217.35 224.7 218.05 224.0 218.3 L222.65 218.25 Q221.95 217.95 221.65 217.25" fill="#ffffff" fill-rule="evenodd" stroke="none"/>
    <path d="M233.0 229.0 L234.45 229.2 Q236.0 229.55 237.2 230.5 L238.8 232.35 Q240.45 234.8 239.8 237.6 239.15 240.45 236.7 242.15 234.2 243.75 231.45 243.05 228.55 242.55 227.0 240.05 225.65 238.2 225.75 236.15 L226.05 234.6 226.45 233.05 227.4 231.65 228.95 230.15 Q230.2 229.5 231.15 229.3 L233.0 229.0" fill="#2b9be6" fill-rule="evenodd" stroke="none"/>
    <path d="M229.3 240.95 Q227.15 240.55 225.9 238.75 224.7 236.9 225.1 234.75 225.55 232.6 227.35 231.4 229.2 230.15 231.35 230.55 233.5 231.0 234.7 232.85 235.95 234.65 235.5 236.8 235.1 238.95 233.25 240.2 231.45 241.4 229.3 240.95" fill="#3ebbeb" fill-rule="evenodd" stroke="none"/>
    <path d="M229.05 240.1 Q228.1 239.9 227.55 239.1 227.0 238.3 227.2 237.3 227.35 236.35 228.2 235.85 229.05 235.25 230.0 235.45 230.95 235.65 231.5 236.5 232.05 237.25 231.9 238.2 231.7 239.2 230.85 239.75 230.0 240.3 229.05 240.1" fill="#ffffff" fill-opacity="0.69411767" fill-rule="evenodd" stroke="none"/>
    <path d="M230.65 228.85 L231.5 227.7 234.45 229.1 234.65 229.15 233.8 230.9 Q233.65 230.45 233.1 230.1 L231.8 229.35 230.65 228.85" fill="#a2a2a2" fill-rule="evenodd" stroke="none"/>
    <path d="M230.65 228.85 L231.8 229.35 233.1 230.1 Q233.65 230.45 233.8 230.9 233.0 232.25 231.15 233.45 229.0 234.7 227.05 234.7 L226.8 234.2 226.6 232.75 226.45 232.35 226.65 231.0 226.65 230.95 229.05 229.8 230.65 228.85" fill="#c8c8c8" fill-rule="evenodd" stroke="none"/>
    <path d="M227.05 234.7 L225.65 234.55 225.65 233.0 225.35 230.85 226.65 230.95 226.65 231.0 226.45 232.35 226.6 232.75 226.8 234.2 227.05 234.7" fill="#e6e6e6" fill-rule="evenodd" stroke="none"/>
    <path d="M262.45 185.4 L265.15 183.55 270.4 188.8 277.95 196.05 279.6 198.05 279.65 198.0 282.6 200.65 291.95 209.25 293.9 210.55 296.0 212.35 Q288.4 224.4 278.85 229.4 L275.7 230.85 272.85 228.65 273.5 233.7 273.05 234.2 Q259.35 240.3 246.55 239.1 L246.55 224.75 Q240.8 211.05 240.0 208.4 L238.45 204.35 Q238.05 202.8 237.1 201.45 L257.25 188.75 262.45 185.4" fill="#357c9a" fill-rule="evenodd" stroke="none"/>
    <path d="M262.45 185.4 L265.15 183.55 270.4 188.8 277.95 196.05 279.6 198.05 279.65 198.0 282.6 200.65 291.95 209.25 293.9 210.55 296.0 212.35 Q288.4 224.4 278.85 229.4 L275.7 230.85 272.85 228.65 273.5 233.7 273.05 234.2 Q259.35 240.3 246.55 239.1 L246.55 224.75 Q240.8 211.05 240.0 208.4 L238.45 204.35 Q238.05 202.8 237.1 201.45 L257.25 188.75 262.45 185.4 Z" fill="none" stroke="#2b2e44" stroke-linecap="round" stroke-linejoin="round" stroke-width="3.0"/>
    <path d="M240.15 208.4 Q242.3 208.5 247.95 206.3 252.65 204.45 256.05 202.45 261.5 199.3 264.85 195.75 L270.45 188.8 278.05 196.05 284.45 203.55 Q284.65 203.8 282.85 205.25 L284.0 204.7 247.35 226.7 240.15 208.4" fill="#fbffd5" fill-rule="evenodd" stroke="none"/>
    <path d="M270.45 188.8 L264.85 195.75 Q261.5 199.3 256.05 202.45 252.65 204.45 247.95 206.3 242.3 208.5 240.15 208.4 L238.65 204.45 237.25 201.4 265.3 183.65 270.45 188.8" fill="#dece84" fill-rule="evenodd" stroke="none"/>
    <path d="M292.05 209.3 L294.0 210.5 296.15 212.35 Q288.5 224.4 278.95 229.4 278.2 227.1 276.2 225.1 284.6 221.1 292.05 209.3 M273.05 229.15 L273.5 233.7 273.15 234.2 Q259.4 240.3 246.4 239.2 L246.8 234.6 Q260.7 236.8 273.05 229.15 M246.35 224.5 L245.4 221.6 Q249.2 219.2 249.35 209.5 257.6 212.95 261.05 211.75 264.6 210.6 266.8 208.35 268.9 206.05 268.9 199.0 276.7 202.75 280.75 198.45 L283.05 200.95 Q281.25 202.8 278.0 203.35 274.75 203.95 271.6 202.85 272.1 207.6 270.45 210.1 268.85 212.4 266.05 214.3 263.25 216.15 259.0 216.65 255.35 217.15 252.7 216.05 250.8 222.95 246.35 224.5" fill="#88cae6" fill-rule="evenodd" stroke="none"/>
    <path d="M292.05 209.3 Q284.6 221.1 276.2 225.1 274.3 222.4 271.55 220.75 L272.75 227.4 272.9 228.65 273.05 229.15 Q260.7 236.8 246.8 234.6 L246.35 224.5 Q250.8 222.95 252.7 216.05 255.35 217.15 259.0 216.65 263.25 216.15 266.05 214.3 268.85 212.4 270.45 210.1 272.1 207.6 271.6 202.85 274.75 203.95 278.0 203.35 281.25 202.8 283.05 200.95 L292.05 209.3" fill="#1d5b85" fill-rule="evenodd" stroke="none"/>
    <path d="M272.75 227.4 L271.55 220.75 Q274.3 222.4 276.2 225.1 L272.75 227.4" fill="#124364" fill-rule="evenodd" stroke="none"/>
    <path d="M276.2 225.1 Q278.2 227.1 278.95 229.4 L275.8 230.85 272.9 228.65 272.75 227.4 276.2 225.1" fill="#65abc9" fill-rule="evenodd" stroke="none"/>
    <path d="M252.75 221.45 L239.6 200.75 246.35 196.7 259.35 217.2 252.75 221.45" fill="#298ccd" fill-rule="evenodd" stroke="none"/>
    <path d="M252.35 211.1 Q254.6 210.55 256.55 211.75 258.6 212.95 259.25 215.25 259.9 217.6 258.6 219.55 257.6 221.75 255.4 222.35 253.25 222.9 251.2 221.5 249.2 220.45 248.55 218.1 248.0 215.85 249.2 213.7 250.25 211.7 252.35 211.1" fill="#88cae6" fill-rule="evenodd" stroke="none"/>
    <path d="M253.05 213.05 Q254.4 212.65 255.7 213.5 256.9 214.2 257.35 215.75 257.7 217.3 257.05 218.55 256.3 219.95 254.85 220.35 253.6 220.7 252.25 219.75 250.85 219.2 250.45 217.7 250.1 216.1 250.9 214.75 251.7 213.45 253.05 213.05" fill="#ade6ff" fill-rule="evenodd" stroke="none"/>
    <path d="M262.6 185.2 L276.3 202.55 270.7 207.05 257.45 188.7 262.6 185.2" fill="#298ccd" fill-rule="evenodd" stroke="none"/>
    <path d="M277.7 203.6 Q278.35 205.8 277.2 207.9 276.1 209.9 273.95 210.45 271.8 211.05 269.85 209.85 268.05 208.6 267.45 206.35 266.85 204.2 267.85 202.2 269.0 200.25 271.15 199.65 273.25 199.05 275.15 200.3 277.1 201.4 277.7 203.6" fill="#88cae6" fill-rule="evenodd" stroke="none"/>
    <path d="M275.85 204.15 Q276.2 205.75 275.6 206.85 274.9 208.15 273.6 208.55 272.25 208.9 270.95 208.1 269.7 207.45 269.25 205.9 268.85 204.6 269.6 203.2 270.3 201.95 271.65 201.6 273.05 201.3 274.2 202.05 275.4 202.8 275.85 204.15" fill="#ade6ff" fill-rule="evenodd" stroke="none"/>
  </g>
</svg>
