<?xml version="1.0" encoding="UTF-8" standalone="no"?>
<svg xmlns:xlink="http://www.w3.org/1999/xlink" height="38.95px" width="200.2px" xmlns="http://www.w3.org/2000/svg">
  <g transform="matrix(1.0, 0.0, 0.0, 1.0, -254.4, -28.65)">
    <path d="M349.5 59.85 Q349.5 58.0 350.8 56.85 352.3 55.5 354.15 55.5 356.2 55.5 357.55 56.85 359.0 58.2 359.0 59.85 359.0 61.55 357.55 62.85 356.2 64.05 354.15 64.05 352.3 64.05 350.8 62.85 349.5 61.7 349.5 59.85" fill="#ffd675" fill-rule="evenodd" stroke="none"/>
    <path d="M351.75 58.0 Q351.75 56.35 354.15 56.35 356.8 56.35 356.8 58.0 356.8 59.55 354.15 59.55 351.75 59.55 351.75 58.0" fill="#fffefd" fill-rule="evenodd" stroke="none"/>
    <path d="M258.25 39.75 Q258.25 38.55 259.1 37.75 260.1 36.9 261.35 36.9 262.7 36.9 263.55 37.75 264.55 38.65 264.55 39.75 264.55 40.85 263.55 41.75 262.7 42.5 261.35 42.5 260.1 42.5 259.1 41.75 258.25 40.95 258.25 39.75" fill="#ffd675" fill-rule="evenodd" stroke="none"/>
    <path d="M259.75 38.55 Q259.75 37.45 261.35 37.45 263.05 37.45 263.05 38.55 263.05 39.55 261.35 39.55 259.75 39.55 259.75 38.55" fill="#fffefd" fill-rule="evenodd" stroke="none"/>
    <path d="M254.4 64.85 Q254.4 63.65 255.25 62.85 256.25 62.0 257.5 62.0 258.85 62.0 259.7 62.85 260.7 63.75 260.7 64.85 260.7 65.95 259.7 66.85 258.85 67.6 257.5 67.6 256.25 67.6 255.25 66.85 254.4 66.05 254.4 64.85" fill="#ffd675" fill-rule="evenodd" stroke="none"/>
    <path d="M255.9 63.65 Q255.9 62.55 257.5 62.55 259.2 62.55 259.2 63.65 259.2 64.65 257.5 64.65 255.9 64.65 255.9 63.65" fill="#fffefd" fill-rule="evenodd" stroke="none"/>
    <path d="M321.55 40.65 Q321.55 39.45 322.4 38.65 323.4 37.8 324.65 37.8 326.0 37.8 326.85 38.65 327.85 39.55 327.85 40.65 327.85 41.75 326.85 42.65 326.0 43.4 324.65 43.4 323.4 43.4 322.4 42.65 321.55 41.85 321.55 40.65" fill="#ffd675" fill-rule="evenodd" stroke="none"/>
    <path d="M323.05 39.45 Q323.05 38.35 324.65 38.35 326.35 38.35 326.35 39.45 326.35 40.45 324.65 40.45 323.05 40.45 323.05 39.45" fill="#fffefd" fill-rule="evenodd" stroke="none"/>
    <path d="M351.5 31.5 Q351.5 30.3 352.35 29.5 353.35 28.65 354.6 28.65 355.95 28.65 356.8 29.5 357.8 30.4 357.8 31.5 357.8 32.6 356.8 33.5 355.95 34.25 354.6 34.25 353.35 34.25 352.35 33.5 351.5 32.7 351.5 31.5" fill="#ffd675" fill-rule="evenodd" stroke="none"/>
    <path d="M353.0 30.3 Q353.0 29.2 354.6 29.2 356.3 29.2 356.3 30.3 356.3 31.3 354.6 31.3 353.0 31.3 353.0 30.3" fill="#fffefd" fill-rule="evenodd" stroke="none"/>
    <path d="M379.85 41.3 Q379.85 40.1 380.7 39.3 381.7 38.45 382.95 38.45 384.3 38.45 385.15 39.3 386.15 40.2 386.15 41.3 386.15 42.4 385.15 43.3 384.3 44.05 382.95 44.05 381.7 44.05 380.7 43.3 379.85 42.5 379.85 41.3" fill="#ffd675" fill-rule="evenodd" stroke="none"/>
    <path d="M381.35 40.1 Q381.35 39.0 382.95 39.0 384.65 39.0 384.65 40.1 384.65 41.1 382.95 41.1 381.35 41.1 381.35 40.1" fill="#fffefd" fill-rule="evenodd" stroke="none"/>
    <path d="M443.8 38.6 Q443.8 37.4 444.65 36.6 445.65 35.75 446.9 35.75 448.25 35.75 449.1 36.6 450.1 37.5 450.1 38.6 450.1 39.7 449.1 40.6 448.25 41.35 446.9 41.35 445.65 41.35 444.65 40.6 443.8 39.8 443.8 38.6" fill="#ffd675" fill-rule="evenodd" stroke="none"/>
    <path d="M445.3 37.4 Q445.3 36.3 446.9 36.3 448.6 36.3 448.6 37.4 448.6 38.4 446.9 38.4 445.3 38.4 445.3 37.4" fill="#fffefd" fill-rule="evenodd" stroke="none"/>
    <path d="M448.3 63.5 Q448.3 62.3 449.15 61.5 450.15 60.65 451.4 60.65 452.75 60.65 453.6 61.5 454.6 62.4 454.6 63.5 454.6 64.6 453.6 65.5 452.75 66.25 451.4 66.25 450.15 66.25 449.15 65.5 448.3 64.7 448.3 63.5" fill="#ffd675" fill-rule="evenodd" stroke="none"/>
    <path d="M449.8 62.3 Q449.8 61.2 451.4 61.2 453.1 61.2 453.1 62.3 453.1 63.3 451.4 63.3 449.8 63.3 449.8 62.3" fill="#fffefd" fill-rule="evenodd" stroke="none"/>
  </g>
</svg>
