<?xml version="1.0" encoding="UTF-8" standalone="no"?>
<svg xmlns:xlink="http://www.w3.org/1999/xlink" height="127.85px" width="212.6px" xmlns="http://www.w3.org/2000/svg">
  <g transform="matrix(1.0, 0.0, 0.0, 1.0, -42.95, -173.5)">
    <path d="M173.15 181.9 L177.4 184.2 181.75 186.05 183.15 186.65 198.4 193.35 203.2 195.45 Q211.25 199.0 215.45 201.0 L215.6 201.05 Q217.95 202.05 220.35 203.2 221.05 203.45 221.75 203.85 L230.0 208.05 230.4 208.25 233.0 209.75 Q234.15 210.35 235.65 211.6 L238.05 214.1 Q240.15 216.65 240.95 218.35 242.05 220.9 241.8 224.25 241.6 227.25 240.65 229.15 239.7 231.1 237.3 233.45 L235.65 234.5 233.0 235.75 Q229.4 237.1 224.7 237.6 L225.2 235.2 Q226.0 228.95 221.75 225.0 L220.35 223.8 218.85 222.75 218.45 222.55 215.45 221.4 214.35 221.05 Q214.15 220.4 209.85 219.05 L204.15 218.3 201.05 220.1 Q197.5 222.4 194.55 225.05 184.8 233.9 180.8 239.4 164.2 262.25 154.05 284.25 151.85 288.8 149.55 292.05 147.25 295.2 144.7 297.1 141.35 299.65 140.1 299.3 135.75 297.5 131.75 295.25 129.1 293.75 126.6 292.05 L124.2 290.3 115.05 283.0 109.6 278.75 Q82.0 256.65 65.55 229.0 L61.9 222.4 Q56.75 212.8 52.9 202.55 L55.25 202.8 Q76.35 204.6 90.85 200.7 105.4 196.75 121.65 184.7 129.55 178.85 139.1 176.7 L146.6 175.65 Q154.55 175.05 161.05 176.7 165.0 177.7 168.35 179.5 L173.15 181.9" fill="#660099" fill-rule="evenodd" stroke="none"/>
    <path d="M173.15 181.9 L177.4 184.2 181.75 186.05 183.15 186.65 198.4 193.35 203.2 195.45 Q211.25 199.0 215.45 201.0 L215.6 201.05 Q217.95 202.05 220.35 203.2 221.05 203.45 221.75 203.85 L230.0 208.05 230.4 208.25 233.0 209.75 Q234.15 210.35 235.65 211.6 L238.05 214.1 Q240.15 216.65 240.95 218.35 242.05 220.9 241.8 224.25 241.6 227.25 240.65 229.15 239.7 231.1 237.3 233.45 L235.65 234.5 233.0 235.75 Q229.4 237.1 224.7 237.6 L225.2 235.2 Q226.0 228.95 221.75 225.0 L220.35 223.8 218.85 222.75 218.45 222.55 215.45 221.4 214.35 221.05 Q214.15 220.4 209.85 219.05 L204.15 218.3 201.05 220.1 Q197.5 222.4 194.55 225.05 184.8 233.9 180.8 239.4 164.2 262.25 154.05 284.25 151.85 288.8 149.55 292.05 147.25 295.2 144.7 297.1 141.35 299.65 140.1 299.3 135.75 297.5 131.75 295.25 129.1 293.75 126.6 292.05 L124.2 290.3 115.05 283.0 109.6 278.75 Q82.0 256.65 65.55 229.0 L61.9 222.4 Q56.75 212.8 52.9 202.55 L55.25 202.8 Q76.35 204.6 90.85 200.7 105.4 196.75 121.65 184.7 129.55 178.85 139.1 176.7 L146.6 175.65 Q154.55 175.05 161.05 176.7 165.0 177.7 168.35 179.5 L173.15 181.9 Z" fill="none" stroke="#351700" stroke-linecap="round" stroke-linejoin="round" stroke-width="4.0"/>
    <path d="M55.25 202.8 Q76.35 204.6 90.85 200.7 105.4 196.75 121.65 184.7 129.55 178.85 139.1 176.7 L146.6 175.65 Q154.55 175.05 161.05 176.7 165.0 177.7 168.35 179.5 L173.15 181.9 177.4 184.2 170.55 183.05 Q153.3 175.25 136.95 183.25 L136.65 183.45 Q130.65 186.85 124.65 192.0 110.7 203.9 95.3 206.05 85.5 207.4 74.95 206.4 65.85 205.55 55.25 202.8 M84.2 219.4 Q84.1 219.6 83.85 219.6 L83.6 219.45 83.55 219.1 84.1 219.1 84.2 219.4" fill="#800c80" fill-rule="evenodd" stroke="none"/>
    <path d="M177.4 184.2 L181.75 186.05 183.15 186.65 181.45 186.4 172.0 185.8 171.9 185.8 Q166.55 185.9 161.35 187.3 L160.05 187.65 Q156.3 188.7 152.55 190.45 146.3 193.4 140.2 198.3 L140.1 198.4 131.6 205.55 131.5 205.6 Q125.3 210.55 121.1 213.05 L116.85 215.35 111.3 217.9 108.45 219.0 Q92.3 226.0 77.5 228.1 L77.1 228.1 65.55 229.0 61.9 222.4 Q69.55 223.2 76.3 222.6 84.4 222.05 93.85 219.4 104.55 216.45 115.35 210.2 126.5 203.9 135.9 195.3 145.95 186.15 156.85 183.7 163.1 182.3 170.55 183.05 L177.4 184.2" fill="#dba800" fill-rule="evenodd" stroke="none"/>
    <path d="M183.15 186.65 L198.4 193.35 203.2 195.45 Q197.8 193.65 189.3 195.55 L189.55 195.0 Q190.2 194.05 190.2 192.95 190.2 191.85 189.25 191.1 188.25 190.4 186.8 190.4 185.45 190.4 185.1 190.75 185.9 190.35 186.8 191.1 187.5 191.7 187.5 192.15 187.5 193.1 182.75 195.15 178.0 197.15 178.0 199.4 L178.05 200.0 Q177.95 200.05 177.8 200.15 L176.05 199.6 171.3 198.55 171.25 204.4 170.8 204.65 Q170.25 204.25 169.1 203.8 167.3 203.0 166.5 203.0 163.1 203.0 163.1 204.95 L163.1 208.05 Q162.65 210.15 160.55 210.15 158.35 210.15 158.35 208.4 L158.55 207.25 159.4 206.3 160.2 207.1 Q160.6 207.7 161.05 207.7 161.95 207.7 162.1 205.35 160.85 204.4 160.05 204.4 156.65 204.4 156.65 210.55 156.65 211.8 157.4 213.15 158.3 214.9 159.75 214.9 158.5 216.25 157.4 217.7 L156.9 216.3 155.95 214.9 Q155.15 214.0 154.3 213.7 L152.35 213.3 Q150.95 213.3 150.2 213.85 149.3 214.35 148.75 215.65 148.35 216.55 148.85 217.4 149.3 218.35 150.5 218.35 152.2 218.35 152.0 216.05 L153.45 216.25 Q154.85 216.75 154.65 218.05 154.55 218.55 151.45 220.3 148.55 221.9 148.55 225.1 148.55 227.15 150.2 228.85 L150.15 229.1 144.45 229.1 Q145.0 231.45 146.85 235.6 L146.65 236.0 Q145.9 235.4 145.35 235.25 L143.3 235.15 Q142.25 235.15 141.4 235.85 140.4 236.65 140.4 237.85 140.4 238.4 141.25 240.05 L142.1 242.25 Q142.1 245.0 139.55 245.0 L138.35 244.65 Q137.55 244.25 137.65 243.75 138.0 242.45 138.9 242.25 139.65 242.05 140.4 242.65 140.35 241.6 139.85 240.95 139.2 239.9 137.9 240.35 135.25 241.45 135.25 243.55 135.25 245.65 136.5 246.75 137.6 247.8 139.4 247.8 139.85 247.8 141.3 246.95 L138.35 252.7 Q138.05 249.95 137.15 248.8 L135.5 247.25 133.5 246.85 Q131.8 246.85 130.85 247.5 129.85 248.15 129.9 249.25 130.0 251.85 131.45 252.95 131.55 251.1 132.4 250.25 133.0 249.6 133.9 249.65 135.45 249.7 135.3 252.1 135.2 254.0 133.75 255.15 131.95 256.7 131.25 258.25 130.65 259.6 130.85 262.1 L131.1 264.7 129.95 266.15 128.55 265.6 Q126.25 264.4 125.8 264.35 L126.15 270.2 125.95 270.35 125.9 270.25 Q124.8 269.4 123.5 269.0 L121.45 268.75 Q117.6 269.45 117.4 272.45 117.4 273.95 117.2 274.35 116.8 275.15 115.3 275.15 L113.7 274.9 Q112.35 274.5 112.0 273.65 111.45 272.55 112.35 271.95 L114.8 272.0 115.7 272.95 Q116.05 271.5 115.15 270.25 114.15 268.85 112.4 269.1 110.9 269.3 110.1 270.2 108.9 271.45 109.25 273.8 109.55 275.95 110.45 276.55 L112.25 277.6 114.65 277.65 Q112.05 278.5 109.6 278.75 82.0 256.65 65.55 229.0 L77.1 228.1 Q75.35 228.45 74.3 230.0 73.25 231.5 73.4 233.55 73.5 235.15 74.75 236.3 76.2 237.55 78.55 237.85 80.65 238.15 82.0 237.1 83.2 236.15 83.5 234.65 L83.5 233.4 Q83.4 232.9 83.1 233.15 80.85 235.6 79.0 235.25 77.35 234.95 77.45 233.35 77.5 231.9 78.75 230.8 79.95 229.75 81.2 229.75 L83.85 231.35 Q86.4 232.9 88.0 232.6 90.0 232.2 90.8 231.05 91.5 229.85 91.6 227.4 92.85 227.75 94.95 228.9 L98.05 230.05 99.55 227.35 100.7 224.7 102.3 225.35 Q103.45 225.95 104.95 226.0 106.05 226.05 106.95 225.55 108.05 225.05 108.5 224.0 L109.0 222.4 Q109.15 221.4 108.85 220.95 L109.2 220.8 109.9 220.6 111.6 221.0 Q112.65 221.45 112.9 222.3 113.6 224.25 110.45 224.95 111.6 226.45 113.1 226.0 114.95 225.4 115.55 224.3 116.1 223.35 115.95 221.7 L115.5 219.65 Q115.15 219.0 114.4 218.45 113.55 217.85 111.3 217.9 L116.85 215.35 116.75 215.5 116.75 216.65 Q116.65 217.95 118.25 219.2 119.95 220.5 121.9 220.4 123.7 220.35 125.1 219.55 126.45 218.65 126.85 217.15 L126.6 216.05 Q126.2 214.75 125.15 214.2 125.15 216.55 124.1 216.9 122.75 217.4 122.75 215.2 122.75 214.25 123.5 213.5 124.2 212.8 124.65 212.8 125.3 212.8 127.05 213.7 128.7 214.55 129.6 214.55 131.45 214.55 132.6 212.85 133.65 211.4 133.65 209.6 133.65 208.2 132.6 206.9 L131.5 205.6 131.6 205.55 135.2 206.2 139.4 206.3 139.85 202.1 140.1 198.4 140.2 198.3 Q140.75 200.05 141.85 200.85 142.95 201.6 145.0 201.6 146.95 201.6 148.85 199.9 150.9 198.1 150.9 196.15 150.9 194.7 148.85 194.15 148.9 193.45 149.85 193.15 L151.3 192.85 Q152.75 192.55 153.55 194.0 154.3 195.3 154.05 196.65 153.65 197.95 154.95 196.85 156.15 195.85 156.6 194.45 157.2 192.5 155.3 191.1 154.8 190.7 154.05 190.65 L152.55 190.45 Q156.3 188.7 160.05 187.65 L161.35 187.3 159.15 188.5 Q158.35 189.35 158.35 190.75 158.35 193.85 161.8 193.85 163.3 193.85 164.05 193.0 164.8 192.15 164.8 190.1 L164.25 190.85 Q163.6 191.85 162.3 191.75 161.45 191.75 161.45 190.55 161.45 189.8 162.25 189.05 163.0 188.45 163.75 188.45 165.15 188.45 166.55 189.25 167.9 190.1 168.5 190.1 169.65 190.1 171.0 188.05 171.9 186.75 172.0 185.9 L171.9 185.8 172.0 185.8 172.0 185.9 174.6 188.3 177.35 190.1 179.95 188.05 181.45 186.4 183.15 186.65" fill="#851985" fill-rule="evenodd" stroke="none"/>
    <path d="M172.0 185.8 L181.45 186.4 179.95 188.05 177.35 190.1 174.6 188.3 172.0 185.9 172.0 185.8 M171.9 185.8 L172.0 185.9 Q171.9 186.75 171.0 188.05 169.65 190.1 168.5 190.1 167.9 190.1 166.55 189.25 165.15 188.45 163.75 188.45 163.0 188.45 162.25 189.05 161.45 189.8 161.45 190.55 161.45 191.75 162.3 191.75 163.6 191.85 164.25 190.85 L164.8 190.1 Q164.8 192.15 164.05 193.0 163.3 193.85 161.8 193.85 158.35 193.85 158.35 190.75 158.35 189.35 159.15 188.5 L161.35 187.3 Q166.55 185.9 171.9 185.8 M152.55 190.45 L154.05 190.65 Q154.8 190.7 155.3 191.1 157.2 192.5 156.6 194.45 156.15 195.85 154.95 196.85 153.65 197.95 154.05 196.65 154.3 195.3 153.55 194.0 152.75 192.55 151.3 192.85 L149.85 193.15 Q148.9 193.45 148.85 194.15 150.9 194.7 150.9 196.15 150.9 198.1 148.85 199.9 146.95 201.6 145.0 201.6 142.95 201.6 141.85 200.85 140.75 200.05 140.2 198.3 146.3 193.4 152.55 190.45 M140.1 198.4 L139.85 202.1 139.4 206.3 135.2 206.2 131.6 205.55 140.1 198.4 M131.5 205.6 L132.6 206.9 Q133.65 208.2 133.65 209.6 133.65 211.4 132.6 212.85 131.45 214.55 129.6 214.55 128.7 214.55 127.05 213.7 125.3 212.8 124.65 212.8 124.2 212.8 123.5 213.5 122.75 214.25 122.75 215.2 122.75 217.4 124.1 216.9 125.15 216.55 125.15 214.2 126.2 214.75 126.6 216.05 L126.85 217.15 Q126.45 218.65 125.1 219.55 123.7 220.35 121.9 220.4 119.95 220.5 118.25 219.2 116.65 217.95 116.75 216.65 L116.75 215.5 116.85 215.35 121.1 213.05 Q125.3 210.55 131.5 205.6 M111.3 217.9 Q113.55 217.85 114.4 218.45 115.15 219.0 115.5 219.65 L115.95 221.7 Q116.1 223.35 115.55 224.3 114.95 225.4 113.1 226.0 111.6 226.45 110.45 224.95 113.6 224.25 112.9 222.3 112.65 221.45 111.6 221.0 L109.9 220.6 109.2 220.8 108.85 220.95 Q109.15 221.4 109.0 222.4 L108.5 224.0 Q108.05 225.05 106.95 225.55 106.05 226.05 104.95 226.0 103.45 225.95 102.3 225.35 L100.7 224.7 99.55 227.35 98.05 230.05 94.95 228.9 Q92.85 227.75 91.6 227.4 91.5 229.85 90.8 231.05 90.0 232.2 88.0 232.6 86.4 232.9 83.85 231.35 L81.2 229.75 Q79.95 229.75 78.75 230.8 77.5 231.9 77.45 233.35 77.35 234.95 79.0 235.25 80.85 235.6 83.1 233.15 83.4 232.9 83.5 233.4 L83.5 234.65 Q83.2 236.15 82.0 237.1 80.65 238.15 78.55 237.85 76.2 237.55 74.75 236.3 73.5 235.15 73.4 233.55 73.25 231.5 74.3 230.0 75.35 228.45 77.1 228.1 L77.5 228.1 Q92.3 226.0 108.45 219.0 L111.3 217.9 M178.05 200.0 L178.0 199.4 Q178.0 197.15 182.75 195.15 187.5 193.1 187.5 192.15 187.5 191.7 186.8 191.1 185.9 190.35 185.1 190.75 185.45 190.4 186.8 190.4 188.25 190.4 189.25 191.1 190.2 191.85 190.2 192.95 190.2 194.05 189.55 195.0 L189.3 195.55 185.7 196.45 Q181.75 197.95 178.05 200.0 M159.75 214.9 Q158.3 214.9 157.4 213.15 156.65 211.8 156.65 210.55 156.65 204.4 160.05 204.4 160.85 204.4 162.1 205.35 161.95 207.7 161.05 207.7 160.6 207.7 160.2 207.1 L159.4 206.3 158.55 207.25 158.35 208.4 Q158.35 210.15 160.55 210.15 162.65 210.15 163.1 208.05 L163.1 204.95 Q163.1 203.0 166.5 203.0 167.3 203.0 169.1 203.8 170.25 204.25 170.8 204.65 164.95 209.0 159.75 214.9 M171.25 204.4 L171.3 198.55 176.05 199.6 177.8 200.15 Q174.35 202.0 171.25 204.4 M150.2 228.85 Q148.55 227.15 148.55 225.1 148.55 221.9 151.45 220.3 154.55 218.55 154.65 218.05 154.85 216.75 153.45 216.25 L152.0 216.05 Q152.2 218.35 150.5 218.35 149.3 218.35 148.85 217.4 148.35 216.55 148.75 215.65 149.3 214.35 150.2 213.85 150.95 213.3 152.35 213.3 L154.3 213.7 Q155.15 214.0 155.95 214.9 L156.9 216.3 157.4 217.7 Q154.85 220.75 152.55 224.25 L150.2 228.85 M141.3 246.95 Q139.85 247.8 139.4 247.8 137.6 247.8 136.5 246.75 135.25 245.65 135.25 243.55 135.25 241.45 137.9 240.35 139.2 239.9 139.85 240.95 140.35 241.6 140.4 242.65 139.65 242.05 138.9 242.25 138.0 242.45 137.65 243.75 137.55 244.25 138.35 244.65 L139.55 245.0 Q142.1 245.0 142.1 242.25 L141.25 240.05 Q140.4 238.4 140.4 237.85 140.4 236.65 141.4 235.85 142.25 235.15 143.3 235.15 L145.35 235.25 Q145.9 235.4 146.65 236.0 L142.4 244.45 142.6 244.35 142.4 244.5 141.3 246.95 M146.85 235.6 Q145.0 231.45 144.45 229.1 L150.15 229.1 146.85 235.6 M131.1 264.7 L130.85 262.1 Q130.65 259.6 131.25 258.25 131.95 256.7 133.75 255.15 135.2 254.0 135.3 252.1 135.45 249.7 133.9 249.65 133.0 249.6 132.4 250.25 131.55 251.1 131.45 252.95 130.0 251.85 129.9 249.25 129.85 248.15 130.85 247.5 131.8 246.85 133.5 246.85 L135.5 247.25 137.15 248.8 Q138.05 249.95 138.35 252.7 L137.95 253.4 132.15 263.2 131.1 264.7 M114.65 277.65 L112.25 277.6 110.45 276.55 Q109.55 275.95 109.25 273.8 108.9 271.45 110.1 270.2 110.9 269.3 112.4 269.1 114.15 268.85 115.15 270.25 116.05 271.5 115.7 272.95 L114.8 272.0 112.35 271.95 Q111.45 272.55 112.0 273.65 112.35 274.5 113.7 274.9 L115.3 275.15 Q116.8 275.15 117.2 274.35 117.4 273.95 117.4 272.45 117.6 269.45 121.45 268.75 L123.5 269.0 Q124.8 269.4 125.9 270.25 120.7 275.05 115.9 277.05 L114.65 277.65 M126.15 270.2 L125.8 264.35 Q126.25 264.4 128.55 265.6 L129.95 266.15 Q128.25 268.4 126.15 270.2" fill="#43138c" fill-rule="evenodd" stroke="none"/>
    <path d="M203.2 195.45 Q211.25 199.0 215.45 201.0 208.6 199.3 204.8 199.05 196.2 198.45 185.05 203.9 170.4 211.15 158.9 228.3 154.75 234.55 150.9 240.9 L146.45 248.15 Q144.8 250.9 140.75 258.75 137.45 264.95 134.25 269.7 L130.25 274.3 125.15 278.8 Q120.15 282.5 115.05 283.0 L109.6 278.75 Q112.05 278.5 114.65 277.65 L115.9 277.05 Q120.7 275.05 125.9 270.25 L125.95 270.35 126.15 270.2 Q128.25 268.4 129.95 266.15 L131.1 264.7 132.15 263.2 137.95 253.4 138.35 252.7 141.3 246.95 142.4 244.5 142.6 244.35 142.4 244.45 146.65 236.0 146.85 235.6 150.15 229.1 150.2 228.85 152.55 224.25 Q154.85 220.75 157.4 217.7 158.5 216.25 159.75 214.9 164.95 209.0 170.8 204.65 L171.25 204.4 Q174.35 202.0 177.8 200.15 177.95 200.05 178.05 200.0 181.75 197.95 185.7 196.45 L189.3 195.55 Q197.8 193.65 203.2 195.45" fill="url(#gradient0)" fill-rule="evenodd" stroke="none"/>
    <path d="M215.45 201.0 L215.6 201.05 Q217.95 202.05 220.35 203.2 221.05 203.45 221.75 203.85 L230.0 208.05 230.4 208.25 Q223.9 207.0 219.95 208.3 L219.75 208.3 Q206.6 206.25 192.85 212.95 178.85 221.5 167.05 237.75 L167.2 238.0 Q167.45 238.6 166.3 238.8 160.7 246.65 155.1 255.55 143.3 269.7 134.25 269.7 137.45 264.95 140.75 258.75 144.8 250.9 146.45 248.15 L150.9 240.9 Q154.75 234.55 158.9 228.3 170.4 211.15 185.05 203.9 196.2 198.45 204.8 199.05 208.6 199.3 215.45 201.0 M61.9 222.4 Q56.75 212.8 52.9 202.55 L55.25 202.8 Q65.85 205.55 74.95 206.4 85.5 207.4 95.3 206.05 110.7 203.9 124.65 192.0 130.65 186.85 136.65 183.45 L136.95 183.25 Q153.3 175.25 170.55 183.05 163.1 182.3 156.85 183.7 145.95 186.15 135.9 195.3 126.5 203.9 115.35 210.2 104.55 216.45 93.85 219.4 84.4 222.05 76.3 222.6 69.55 223.2 61.9 222.4 M84.2 219.4 L84.1 219.1 83.55 219.1 83.6 219.45 83.85 219.6 Q84.1 219.6 84.2 219.4" fill="#660066" fill-rule="evenodd" stroke="none"/>
    <path d="M131.75 295.25 Q129.1 293.75 126.6 292.05 L124.2 290.3 115.05 283.0 Q120.15 282.5 125.15 278.8 L130.25 274.3 134.25 269.7 Q143.3 269.7 155.1 255.55 160.7 246.65 166.3 238.8 167.45 238.6 167.2 238.0 L167.05 237.75 Q178.85 221.5 192.85 212.95 206.6 206.25 219.75 208.3 205.4 212.5 197.05 218.5 184.0 228.95 171.0 246.45 165.75 253.55 160.0 263.2 L148.9 283.2 Q145.9 288.9 141.85 291.9 137.55 294.95 131.75 295.25" fill="#560056" fill-rule="evenodd" stroke="none"/>
    <path d="M230.4 208.25 L233.0 209.75 Q234.15 210.35 235.65 211.6 L238.05 214.1 Q234.3 212.0 233.45 211.6 232.55 211.2 230.7 210.75 L229.5 210.45 227.5 210.15 221.85 210.3 221.75 210.35 221.25 210.45 220.35 210.65 Q218.25 211.05 216.2 211.8 L215.45 212.05 Q212.35 213.25 209.25 215.2 L206.9 216.5 Q205.3 217.25 204.15 218.3 L201.05 220.1 Q197.5 222.4 194.55 225.05 184.8 233.9 180.8 239.4 164.2 262.25 154.05 284.25 151.85 288.8 149.55 292.05 147.25 295.2 144.7 297.1 141.35 299.65 140.1 299.3 135.75 297.5 131.75 295.25 137.55 294.95 141.85 291.9 145.9 288.9 148.9 283.2 L160.0 263.2 Q165.75 253.55 171.0 246.45 184.0 228.95 197.05 218.5 205.4 212.5 219.75 208.3 L219.95 208.3 Q223.9 207.0 230.4 208.25" fill="#db9000" fill-rule="evenodd" stroke="none"/>
    <path d="M238.05 214.1 Q240.15 216.65 240.95 218.35 242.05 220.9 241.8 224.25 241.6 227.25 240.65 229.15 239.7 231.1 237.3 233.45 L235.65 234.5 233.0 235.75 Q229.4 237.1 224.7 237.6 L225.2 235.2 229.7 234.3 Q233.65 233.25 236.15 230.55 238.75 227.8 239.4 223.7 240.7 215.25 229.5 210.45 L230.7 210.75 Q232.55 211.2 233.45 211.6 234.3 212.0 238.05 214.1" fill="#330033" fill-rule="evenodd" stroke="none"/>
    <path d="M225.2 235.2 Q226.0 228.95 221.75 225.0 L220.35 223.8 218.85 222.75 218.45 222.55 215.45 221.4 214.35 221.05 215.45 220.55 Q218.75 218.85 220.35 215.85 221.4 213.85 221.75 211.3 L221.85 210.3 227.5 210.15 229.5 210.45 Q240.7 215.25 239.4 223.7 238.75 227.8 236.15 230.55 233.65 233.25 229.7 234.3 L225.2 235.2 M209.85 219.05 L204.15 218.3 Q205.3 217.25 206.9 216.5 L209.25 215.2 Q212.35 213.25 215.45 212.05 L216.2 211.8 Q216.35 213.55 215.45 215.05 213.95 217.55 209.85 219.05" fill="#460046" fill-rule="evenodd" stroke="none"/>
    <path d="M214.35 221.05 Q214.15 220.4 209.85 219.05 213.95 217.55 215.45 215.05 216.35 213.55 216.2 211.8 218.25 211.05 220.35 210.65 L221.25 210.45 221.75 210.35 221.85 210.3 221.75 211.3 Q221.4 213.85 220.35 215.85 218.75 218.85 215.45 220.55 L214.35 221.05" fill="#aa8200" fill-rule="evenodd" stroke="none"/>
    <path d="M52.9 202.55 L55.25 202.8" fill="none" stroke="#000000" stroke-linecap="round" stroke-linejoin="round" stroke-width="0.2"/>
    <path d="M148.95 210.85 Q146.55 211.55 141.8 215.0 145.55 210.9 146.1 208.65 146.7 206.4 144.95 202.85 147.65 204.9 152.3 203.1 156.75 201.4 159.8 197.6 154.55 204.45 154.25 205.2 152.75 208.35 155.1 211.85 151.9 210.05 148.95 210.85" fill="#65138c" fill-rule="evenodd" stroke="none"/>
    <path d="M170.2 190.55 Q171.45 192.25 174.45 191.85 177.35 191.5 179.75 189.85 L175.2 193.35 Q173.8 195.1 174.65 197.45 173.15 195.9 171.2 195.9 169.65 195.9 166.35 197.2 169.2 195.4 169.85 194.15 170.55 192.9 170.2 190.55" fill="#65138c" fill-rule="evenodd" stroke="none"/>
    <path d="M173.25 185.25 L172.75 185.65 172.35 185.5 172.6 185.15 173.25 185.25 M169.65 184.5 L168.45 184.2 168.45 183.65 170.9 184.05 174.5 183.55 Q173.25 184.55 171.15 184.7 L169.65 184.5 M165.5 184.9 Q163.75 183.75 161.85 185.45 L163.05 185.6 162.55 186.1 161.85 185.8 161.85 185.45 161.3 185.7 158.65 187.15 157.15 186.95 Q156.4 186.6 155.75 185.5 156.45 186.1 157.8 186.35 159.1 186.55 160.65 185.25 L162.55 183.55 165.05 183.65 165.6 184.45 165.5 184.9 M198.5 196.15 L199.05 196.05 Q199.3 196.9 200.5 197.25 201.25 197.15 201.8 196.75 202.55 196.3 202.9 196.2 204.1 195.7 205.8 197.85 L204.2 197.15 Q203.1 196.85 202.55 197.35 L201.2 197.8 200.2 197.9 Q199.0 197.4 198.45 196.35 L198.5 196.15 M200.7 196.5 L200.25 196.5 Q200.15 196.1 200.3 195.9 L200.7 196.5 M204.05 197.65 L204.3 198.0 203.8 198.0 Q203.65 197.75 203.85 197.5 L204.05 197.65 M140.25 192.85 Q140.65 192.45 141.55 192.7 142.4 193.0 142.45 193.25 L142.75 193.85 Q140.05 193.65 139.65 195.9 139.1 198.75 138.0 199.2 136.15 199.5 135.65 198.8 137.65 198.85 138.5 197.3 L138.9 195.45 139.75 193.45 140.25 192.85 M136.95 196.55 L137.75 196.7 137.35 197.1 136.95 196.55 M140.85 195.6 Q140.85 195.1 141.2 195.15 L141.8 195.25 142.05 195.35 141.65 195.8 Q141.35 196.1 141.05 196.1 140.85 196.55 140.85 195.6 M159.1 184.55 L158.6 184.95 Q158.25 184.8 158.25 184.45 L159.1 184.55 M148.7 191.1 Q148.1 191.85 147.45 191.9 L146.0 191.75 144.8 191.35 144.8 190.9 146.75 190.85 Q148.1 190.95 149.8 188.75 151.5 186.55 153.85 187.85 153.2 189.45 151.65 189.05 150.05 188.65 149.4 189.95 L148.7 191.1 M147.6 188.8 L147.2 189.25 Q146.8 189.05 146.8 188.65 L147.1 188.65 147.6 188.8 M151.15 190.2 Q150.7 190.05 150.7 189.7 L151.55 189.85 151.15 190.2 M160.7 222.45 L158.0 222.85 157.9 222.45 Q161.4 221.2 160.95 219.05 160.6 217.2 163.7 216.8 L163.75 217.2 Q161.4 218.15 161.8 219.7 162.15 221.6 160.7 222.45 M159.5 220.4 Q159.05 220.25 158.9 219.9 L159.15 219.85 159.7 219.85 159.5 220.4 M132.3 202.1 L132.85 202.25 132.45 202.65 Q132.05 202.55 132.05 202.1 L132.3 202.1 M132.0 201.45 Q130.6 202.25 130.55 203.35 130.5 204.05 129.8 204.95 L128.85 206.1 125.65 206.25 125.5 206.0 125.95 205.35 128.55 205.05 Q129.15 204.4 129.4 203.4 L129.8 201.85 Q130.45 200.2 134.15 200.65 133.05 200.8 132.0 201.45 M123.05 209.8 L122.8 210.6 122.35 210.6 Q122.2 210.3 122.2 209.65 L123.05 209.8 M123.35 208.3 Q120.85 208.55 120.75 210.2 120.6 212.1 119.05 212.6 L116.3 212.25 116.3 211.85 Q120.0 211.55 120.1 209.3 120.25 207.5 123.35 207.85 L123.35 208.3 M127.55 204.7 L127.15 204.05 127.95 204.2 127.55 204.7 M118.35 210.25 Q117.95 210.05 117.95 209.65 L118.2 209.65 118.75 209.8 118.35 210.25 M194.4 199.1 Q194.05 198.75 194.25 198.35 L194.55 198.45 195.0 198.95 194.4 199.1 M189.35 200.25 Q187.15 200.05 186.35 198.75 L186.4 198.45 Q187.6 199.35 189.6 199.1 L191.2 198.05 192.4 196.85 Q193.9 195.8 197.0 198.1 L194.6 197.75 Q192.95 197.75 192.4 198.5 L191.1 199.75 Q190.3 200.25 189.35 200.25 M188.9 198.3 Q188.65 197.85 188.8 197.5 L189.55 198.1 188.9 198.3 M182.65 201.85 Q181.05 202.2 180.75 203.15 L179.85 204.7 Q179.1 205.35 178.2 205.6 176.0 206.0 174.9 204.95 L174.9 204.7 Q176.25 205.15 178.2 204.4 L179.5 203.05 180.3 201.55 Q181.45 200.15 185.1 201.6 L182.65 201.85 M182.75 203.2 Q182.4 202.95 182.45 202.5 L182.75 202.55 183.35 202.85 Q183.15 203.2 182.75 203.2 M177.3 203.85 Q176.9 203.4 176.95 203.1 177.5 203.25 177.85 203.5 177.6 203.7 177.3 203.85 M171.45 208.9 L171.1 209.45 Q170.65 209.45 170.55 209.0 L170.8 208.9 171.45 208.9 M168.35 210.9 L168.35 209.3 Q168.55 207.5 172.25 207.0 171.25 207.5 170.35 208.4 169.2 209.5 169.45 210.55 169.55 211.3 169.15 212.35 L168.5 213.65 Q166.8 214.8 165.45 214.65 L164.85 214.4 Q166.85 213.85 167.95 212.8 168.35 211.9 168.35 210.9 M166.35 212.15 L167.15 212.1 166.9 212.65 Q166.45 212.5 166.35 212.15 M163.85 218.75 L163.85 219.6 163.45 219.7 163.0 218.8 163.85 218.75" fill="#fff78c" fill-rule="evenodd" stroke="none"/>
    <path d="M60.1 185.4 L61.15 186.8 61.5 187.8 61.5 188.1 63.0 187.1 Q63.55 187.3 63.8 188.15 L64.45 189.75 65.2 193.35 Q65.2 193.8 62.6 194.35 62.95 194.8 63.15 195.8 L63.2 196.25 63.1 197.25 60.7 197.7 59.15 197.85 54.1 197.8 Q50.35 197.55 48.85 196.7 48.25 197.15 47.5 197.2 46.6 197.3 45.8 196.65 L45.5 196.3 Q44.7 195.55 44.55 194.45 L44.45 193.9 Q44.35 192.45 45.0 191.3 45.55 190.35 46.4 190.1 L46.95 190.0 Q47.85 189.95 48.7 190.6 L49.75 190.2 Q52.4 189.3 54.75 187.85 57.8 186.0 58.65 184.2 L60.1 185.4" fill="#7b6d05" fill-rule="evenodd" stroke="none"/>
    <path d="M60.1 185.4 L61.15 186.8 61.5 187.8 61.5 188.1 63.0 187.1 Q63.55 187.3 63.8 188.15 L64.45 189.75 65.2 193.35 Q65.2 193.8 62.6 194.35 62.95 194.8 63.15 195.8 L63.2 196.25 63.1 197.25 60.7 197.7 59.15 197.85 54.1 197.8 Q50.35 197.55 48.85 196.7 48.25 197.15 47.5 197.2 46.6 197.3 45.8 196.65 L45.5 196.3 Q44.7 195.55 44.55 194.45 L44.45 193.9 Q44.35 192.45 45.0 191.3 45.55 190.35 46.4 190.1 L46.95 190.0 Q47.85 189.95 48.7 190.6 L49.75 190.2 Q52.4 189.3 54.75 187.85 57.8 186.0 58.65 184.2 L60.1 185.4 Z" fill="none" stroke="#351700" stroke-linecap="round" stroke-linejoin="round" stroke-width="3.0"/>
    <path d="M49.75 190.2 Q52.4 189.3 54.75 187.85 57.8 186.0 58.65 184.2 L60.1 185.4 61.15 186.8 Q59.3 188.5 56.5 190.05 L56.05 190.25 Q53.15 191.85 51.25 192.2 L52.35 192.3 55.1 191.7 59.5 190.3 Q61.9 189.55 63.8 188.15 L64.45 189.75 65.2 193.35 Q65.2 193.8 62.6 194.35 62.95 194.8 63.15 195.8 L61.9 196.15 60.0 196.4 Q56.35 196.7 53.45 196.35 49.55 195.9 49.0 194.25 L48.85 193.9 Q48.7 192.3 48.85 191.75 L49.75 190.2 M45.8 196.65 L45.5 196.3 Q44.7 195.55 44.55 194.45 L44.45 193.9 Q44.35 192.45 45.0 191.3 45.55 190.35 46.4 190.1 L46.7 190.65 47.05 192.35 47.05 194.45 46.9 194.85 Q46.6 196.4 45.8 196.65" fill="#ffe427" fill-rule="evenodd" stroke="none"/>
    <path d="M63.15 195.8 L63.2 196.25 63.1 197.25 60.7 197.7 59.15 197.85 54.1 197.8 Q50.35 197.55 48.85 196.7 48.25 197.15 47.5 197.2 46.6 197.3 45.8 196.65 46.6 196.4 46.9 194.85 L47.05 194.45 47.05 192.35 46.7 190.65 46.4 190.1 46.95 190.0 Q47.85 189.95 48.7 190.6 L49.75 190.2 48.85 191.75 Q48.7 192.3 48.85 193.9 L49.0 194.25 Q49.55 195.9 53.45 196.35 56.35 196.7 60.0 196.4 L61.9 196.15 63.15 195.8" fill="#e2ad00" fill-rule="evenodd" stroke="none"/>
    <path d="M61.15 186.8 L61.5 187.8 61.5 188.1 63.0 187.1 Q63.55 187.3 63.8 188.15 61.9 189.55 59.5 190.3 L55.1 191.7 52.35 192.3 51.25 192.2 Q53.15 191.85 56.05 190.25 L56.5 190.05 Q59.3 188.5 61.15 186.8" fill="#ffc300" fill-rule="evenodd" stroke="none"/>
    <path d="M252.15 247.3 L251.35 248.85 251.05 249.25 253.85 249.65 Q254.25 250.35 253.8 251.65 250.0 251.3 246.5 249.85 L240.05 246.9 236.3 244.8 Q235.3 244.1 235.05 243.6 237.65 245.1 242.65 246.3 L243.3 246.4 Q248.15 247.5 252.15 247.3 M245.1 259.9 L244.65 260.4 243.65 261.45 240.3 259.5 238.5 258.15 Q235.75 256.25 232.75 253.0 228.65 248.95 227.7 246.3 226.55 246.25 225.7 245.55 224.6 244.7 224.2 243.15 225.4 243.75 227.3 242.3 L227.85 241.85 230.0 239.35 231.3 237.1 231.55 236.2 232.2 236.75 Q233.4 237.55 233.7 239.15 L235.35 239.8 232.9 240.7 Q232.05 241.15 230.65 243.15 L230.35 243.75 Q229.35 246.25 233.35 250.65 236.35 254.0 241.0 257.3 L243.35 258.95 245.1 259.9" fill="#ffc300" fill-rule="evenodd" stroke="none"/>
    <path d="M235.35 239.8 Q239.2 241.4 243.5 242.1 L251.75 241.85 Q252.2 242.85 252.3 244.65 252.45 246.25 252.15 247.3 248.15 247.5 243.3 246.4 L242.65 246.3 Q237.65 245.1 235.05 243.6 235.3 244.1 236.3 244.8 L240.05 246.9 246.5 249.85 Q250.0 251.3 253.8 251.65 L252.8 254.15 250.1 259.0 Q249.65 259.6 245.95 257.65 245.95 258.45 245.1 259.9 L243.35 258.95 241.0 257.3 Q236.35 254.0 233.35 250.65 229.35 246.25 230.35 243.75 L230.65 243.15 Q232.05 241.15 232.9 240.7 L235.35 239.8 M224.2 243.15 L224.15 242.6 Q224.15 240.85 225.0 239.35 225.2 238.9 225.5 238.6 226.85 236.75 228.75 236.2 230.25 235.75 231.55 236.2 L231.3 237.1 230.0 239.35 227.85 241.85 227.3 242.3 Q225.4 243.75 224.2 243.15" fill="#ffe427" fill-rule="evenodd" stroke="none"/>
    <path d="M235.35 239.8 Q239.2 241.4 243.5 242.1 L251.75 241.85 Q252.2 242.85 252.3 244.65 252.45 246.25 252.15 247.3 L251.35 248.85 251.05 249.25 253.85 249.65 Q254.25 250.35 253.8 251.65 L252.8 254.15 250.1 259.0 Q249.65 259.6 245.95 257.65 245.95 258.45 245.1 259.9 L244.65 260.4 243.65 261.45 240.3 259.5 238.5 258.15 Q235.75 256.25 232.75 253.0 228.65 248.95 227.7 246.3 226.55 246.25 225.7 245.55 224.6 244.7 224.2 243.15 L224.15 242.6 Q224.15 240.85 225.0 239.35 225.2 238.9 225.5 238.6 226.85 236.75 228.75 236.2 230.25 235.75 231.55 236.2 L232.2 236.75 Q233.4 237.55 233.7 239.15 L235.35 239.8 Z" fill="none" stroke="#351700" stroke-linecap="round" stroke-linejoin="round" stroke-width="3.0"/>
    <path d="M252.15 247.3 L251.35 248.85 251.05 249.25 253.85 249.65 Q254.25 250.35 253.8 251.65 250.0 251.3 246.5 249.85 L240.05 246.9 236.3 244.8 Q235.3 244.1 235.05 243.6 237.65 245.1 242.65 246.3 L243.3 246.4 Q248.15 247.5 252.15 247.3 M245.1 259.9 L244.65 260.4 243.65 261.45 240.3 259.5 238.5 258.15 Q235.75 256.25 232.75 253.0 228.65 248.95 227.7 246.3 226.55 246.25 225.7 245.55 224.6 244.7 224.2 243.15 225.4 243.75 227.3 242.3 L227.85 241.85 230.0 239.35 231.3 237.1 231.55 236.2 232.2 236.75 Q233.4 237.55 233.7 239.15 L235.35 239.8 232.9 240.7 Q232.05 241.15 230.65 243.15 L230.35 243.75 Q229.35 246.25 233.35 250.65 236.35 254.0 241.0 257.3 L243.35 258.95 245.1 259.9" fill="#ffc300" fill-rule="evenodd" stroke="none"/>
    <path d="M235.35 239.8 Q239.2 241.4 243.5 242.1 L251.75 241.85 Q252.2 242.85 252.3 244.65 252.45 246.25 252.15 247.3 248.15 247.5 243.3 246.4 L242.65 246.3 Q237.65 245.1 235.05 243.6 235.3 244.1 236.3 244.8 L240.05 246.9 246.5 249.85 Q250.0 251.3 253.8 251.65 L252.8 254.15 250.1 259.0 Q249.65 259.6 245.95 257.65 245.95 258.45 245.1 259.9 L243.35 258.95 241.0 257.3 Q236.35 254.0 233.35 250.65 229.35 246.25 230.35 243.75 L230.65 243.15 Q232.05 241.15 232.9 240.7 L235.35 239.8 M224.2 243.15 L224.15 242.6 Q224.15 240.85 225.0 239.35 225.2 238.9 225.5 238.6 226.85 236.75 228.75 236.2 230.25 235.75 231.55 236.2 L231.3 237.1 230.0 239.35 227.85 241.85 227.3 242.3 Q225.4 243.75 224.2 243.15" fill="#ffe427" fill-rule="evenodd" stroke="none"/>
    <path d="M167.95 242.9 L167.85 242.3 Q167.4 240.85 168.0 239.35 L168.25 238.55 Q169.2 236.65 170.8 235.8 172.2 234.9 173.4 235.25 L174.2 235.5 Q175.35 236.1 176.0 237.5 L177.5 237.75 185.45 238.45 Q190.6 238.35 193.0 236.65 L193.9 239.2 Q194.35 240.55 194.25 241.75 L193.95 243.25 193.7 243.6 196.3 243.4 Q196.85 244.1 196.6 245.4 L196.25 247.8 194.6 252.8 Q194.25 253.4 190.6 252.25 190.7 253.05 190.2 254.4 L189.95 254.95 189.15 256.2 185.75 255.0 183.8 254.05 Q181.0 252.75 177.55 250.4 173.0 247.4 171.8 245.3 170.65 245.4 169.7 244.9 168.5 244.35 167.95 242.9" fill="#8a6c0a" fill-rule="evenodd" stroke="none"/>
    <path d="M167.95 242.9 L167.85 242.3 Q167.4 240.85 168.0 239.35 L168.25 238.55 Q169.2 236.65 170.8 235.8 172.2 234.9 173.4 235.25 L174.2 235.5 Q175.35 236.1 176.0 237.5 L177.5 237.75 185.45 238.45 Q190.6 238.35 193.0 236.65 L193.9 239.2 Q194.35 240.55 194.25 241.75 L193.95 243.25 193.7 243.6 196.3 243.4 Q196.85 244.1 196.6 245.4 L196.25 247.8 194.6 252.8 Q194.25 253.4 190.6 252.25 190.7 253.05 190.2 254.4 L189.95 254.95 189.15 256.2 185.75 255.0 183.8 254.05 Q181.0 252.75 177.55 250.4 173.0 247.4 171.8 245.3 170.65 245.4 169.7 244.9 168.5 244.35 167.95 242.9 Z" fill="none" stroke="#351700" stroke-linecap="round" stroke-linejoin="round" stroke-width="3.0"/>
    <path d="M167.95 242.9 L167.85 242.3 Q167.4 240.85 168.0 239.35 L168.25 238.55 168.95 237.4 Q169.7 236.35 170.8 235.8 172.2 234.9 173.4 235.25 L173.4 236.1 173.1 237.4 172.6 238.5 171.05 241.15 170.65 241.5 Q169.2 243.2 167.95 242.9 M177.5 237.75 L185.45 238.45 Q189.25 238.4 191.55 237.4 L193.0 236.65 193.4 237.4 193.9 239.2 Q194.35 240.55 194.25 241.75 L186.05 242.45 185.4 242.4 Q180.6 242.3 178.0 241.35 L179.3 242.25 183.1 243.5 189.65 244.95 196.6 245.4 196.5 245.9 196.25 247.8 194.6 252.8 Q194.25 253.4 190.6 252.25 190.7 253.05 190.2 254.4 L188.4 253.95 185.9 252.9 Q181.1 250.7 177.7 248.15 L175.2 245.9 Q173.3 243.9 173.65 242.3 L173.8 241.7 Q174.75 239.65 175.35 239.05 175.75 238.65 177.5 237.75" fill="#ffe427" fill-rule="evenodd" stroke="none"/>
    <path d="M173.4 235.25 L174.2 235.5 Q175.3 236.1 175.95 237.4 L176.0 237.5 177.5 237.75 Q175.75 238.65 175.35 239.05 174.75 239.65 173.8 241.7 L173.65 242.3 Q173.3 243.9 175.2 245.9 L177.7 248.15 Q181.1 250.7 185.9 252.9 L188.4 253.95 190.2 254.4 189.95 254.95 189.15 256.2 185.75 255.0 183.8 254.05 Q181.0 252.75 177.55 250.4 173.65 247.85 172.2 245.9 L171.8 245.3 Q170.65 245.4 169.7 244.9 168.5 244.35 167.95 242.9 169.2 243.2 170.65 241.5 L171.05 241.15 172.6 238.5 173.1 237.4 173.4 236.1 173.4 235.25" fill="#e2ad00" fill-rule="evenodd" stroke="none"/>
    <path d="M194.25 241.75 L193.95 243.25 193.7 243.6 196.3 243.4 Q196.85 244.1 196.6 245.4 L189.65 244.95 183.1 243.5 179.3 242.25 178.0 241.35 Q180.6 242.3 185.4 242.4 L186.05 242.45 194.25 241.75" fill="#ffc300" fill-rule="evenodd" stroke="none"/>
  </g>
  <defs>
    <linearGradient gradientTransform="matrix(0.0374, -0.004, 0.0057, 0.0536, 171.6, 231.05)" gradientUnits="userSpaceOnUse" id="gradient0" spreadMethod="pad" x1="-819.2" x2="819.2">
      <stop offset="0.0" stop-color="#935000"/>
      <stop offset="1.0" stop-color="#ffc300"/>
    </linearGradient>
  </defs>
</svg>
