<?xml version="1.0" encoding="UTF-8" standalone="no"?>
<svg xmlns:xlink="http://www.w3.org/1999/xlink" height="66.9px" width="115.65px" xmlns="http://www.w3.org/2000/svg">
  <g transform="matrix(1.0, 0.0, 0.0, 1.0, -39.15, -160.05)">
    <path d="M146.7 205.65 L148.0 206.8 147.95 206.85 Q151.35 208.15 152.45 211.65 153.45 215.15 151.55 218.85 149.65 222.45 145.95 224.1 L138.75 224.3 Q135.35 222.95 134.35 219.5 133.3 216.25 134.8 212.9 L134.7 212.85 134.85 212.45 135.35 210.7 136.1 208.3 133.35 200.0 Q132.7 199.25 132.5 198.1 L132.2 197.1 122.6 179.35 124.25 178.3 128.65 175.6 130.85 174.25 140.0 191.3 140.8 191.7 Q142.0 192.5 142.35 193.9 142.8 195.3 142.35 196.65 L142.3 196.8 144.65 203.9 144.7 203.85 146.55 205.55 146.7 205.65" fill="#a2a2a2" fill-rule="evenodd" stroke="none"/>
    <path d="M146.55 205.55 L144.7 203.85 144.65 203.9 142.3 196.8 142.35 196.65 Q142.8 195.3 142.35 193.9 142.0 192.5 140.8 191.7 L140.0 191.3 130.85 174.25 128.65 175.6 124.25 178.3 122.6 179.35 132.2 197.1 132.5 198.1 Q132.7 199.25 133.35 200.0 L136.1 208.3 135.35 210.7 134.85 212.45 134.7 212.85 134.8 212.9 Q133.3 216.25 134.35 219.5 135.35 222.95 138.75 224.3 L145.95 224.1 Q149.65 222.45 151.55 218.85 153.45 215.15 152.45 211.65 151.35 208.15 147.95 206.85 L148.0 206.8 146.7 205.65" fill="none" stroke="#a90156" stroke-linecap="round" stroke-linejoin="round" stroke-width="4.0"/>
    <path d="M133.8 195.55 L139.65 213.15 137.9 214.1 132.1 196.3 133.8 195.55" fill="#a2a2a2" fill-rule="evenodd" stroke="none"/>
    <path d="M143.95 210.75 L138.6 193.6 140.75 192.55 146.4 209.8 143.95 210.75" fill="#e6e6e6" fill-rule="evenodd" stroke="none"/>
    <path d="M133.8 195.55 L138.6 193.6 143.95 210.75 139.65 213.15 133.8 195.55" fill="#c8c8c8" fill-rule="evenodd" stroke="none"/>
    <path d="M139.65 213.15 L143.95 210.75 M146.4 209.8 L143.95 210.75 M137.9 214.1 L139.65 213.15 Z" fill="none" stroke="#283757" stroke-linecap="round" stroke-linejoin="round" stroke-opacity="0.49803922" stroke-width="0.1"/>
    <path d="M134.7 197.5 L124.15 178.25 128.55 175.6 138.65 194.45 134.7 197.5" fill="#c8c8c8" fill-rule="evenodd" stroke="none"/>
    <path d="M138.65 194.45 L128.55 175.6 130.65 174.25 140.9 193.2 Q139.8 193.85 138.65 194.45" fill="#e6e6e6" fill-rule="evenodd" stroke="none"/>
    <path d="M124.15 178.25 L134.7 197.5 133.0 198.8 122.55 179.25 124.15 178.25" fill="#a2a2a2" fill-rule="evenodd" stroke="none"/>
    <path d="M133.0 198.8 L134.7 197.5 138.65 194.45 Q139.8 193.85 140.9 193.2" fill="none" stroke="#283757" stroke-linecap="round" stroke-linejoin="round" stroke-opacity="0.49803922" stroke-width="0.1"/>
    <path d="M139.05 191.05 L139.75 191.3 140.75 191.75 Q141.8 192.45 142.25 193.9 142.7 195.3 142.2 196.65 L141.8 197.85 140.75 199.35 138.7 200.7 Q137.0 201.4 135.4 201.1 L134.8 200.85 Q133.95 200.55 133.5 200.15 132.7 199.35 132.3 198.15 132.05 197.1 132.15 196.0 L132.7 194.3 133.45 193.3 Q134.35 192.1 135.9 191.35 L139.05 191.05" fill="#b7b7b7" fill-rule="evenodd" stroke="none"/>
    <path d="M141.3 193.65 L138.15 193.7 Q136.45 194.4 135.6 196.0 134.75 197.6 135.2 199.1 135.6 200.7 137.1 201.3 L140.35 201.2 Q142.0 200.6 142.85 199.0 143.7 197.4 143.3 195.8 142.8 194.25 141.3 193.65" fill="#dae3e9" fill-rule="evenodd" stroke="none"/>
    <path d="M140.95 195.7 Q141.25 195.15 141.15 194.6 141.0 194.05 140.45 193.85 L139.4 193.9 Q138.8 194.15 138.5 194.7 138.25 195.2 138.35 195.75 138.5 196.3 139.0 196.5 L140.1 196.45 140.95 195.7" fill="#ffffff" fill-rule="evenodd" stroke="none"/>
    <path d="M143.45 205.25 L143.5 205.25 Q144.1 205.35 144.95 206.1 L145.45 206.55 146.5 207.8 146.9 208.4 Q145.2 210.6 141.9 212.0 139.25 213.15 137.0 213.15 136.9 212.6 136.95 211.75 L137.35 209.85 137.9 208.15 140.55 206.5 143.45 205.25" fill="#c8c8c8" fill-rule="evenodd" stroke="none"/>
    <path d="M146.9 208.4 L146.5 207.8 145.45 206.55 144.95 206.1 Q144.1 205.35 143.5 205.25 L143.45 205.25 144.55 203.85 146.45 205.55 147.9 206.8 146.9 208.4" fill="#e6e6e6" fill-rule="evenodd" stroke="none"/>
    <path d="M137.9 208.15 L137.35 209.85 136.95 211.75 Q136.9 212.6 137.0 213.15 L134.6 212.85 134.75 212.55 135.9 208.25 137.9 208.15" fill="#a2a2a2" fill-rule="evenodd" stroke="none"/>
    <path d="M65.75 169.4 L65.7 169.5 74.8 170.85 74.95 170.75 78.2 170.45 Q79.1 170.55 79.85 170.95 L98.2 167.65 98.8 169.85 100.1 174.55 100.5 176.15 81.95 179.45 81.15 180.0 79.45 180.9 79.2 180.95 79.15 181.0 78.95 181.0 76.85 181.0 Q75.45 180.75 74.4 180.25 L63.7 178.6 63.7 178.65 59.25 180.35 58.9 180.55 58.8 180.35 Q55.35 182.35 51.2 181.85 46.7 181.15 44.05 177.95 41.2 174.65 41.75 170.75 42.35 166.7 45.75 164.4 49.35 162.05 53.8 162.65 58.3 163.2 61.05 166.45 L61.15 166.45 63.15 167.7 65.75 169.4" fill="#951e4d" fill-rule="evenodd" stroke="none"/>
    <path d="M65.75 169.4 L63.15 167.7 61.15 166.45 61.05 166.45 Q58.3 163.2 53.8 162.65 49.35 162.05 45.75 164.4 42.35 166.7 41.75 170.75 41.2 174.65 44.05 177.95 46.7 181.15 51.2 181.85 55.35 182.35 58.8 180.35 L58.9 180.55 59.25 180.35 63.7 178.65 63.7 178.6 74.4 180.25 Q75.45 180.75 76.85 181.0 L78.95 181.0 79.15 181.0 79.2 180.95 79.45 180.9 81.15 180.0 81.95 179.45 100.5 176.15 100.1 174.55 98.8 169.85 98.2 167.65 79.85 170.95 Q79.1 170.55 78.2 170.45 L74.95 170.75 74.8 170.85 65.7 169.5 65.75 169.4 Z" fill="none" stroke="#a90156" stroke-linecap="round" stroke-linejoin="round" stroke-width="5.0"/>
    <path d="M58.4 170.65 L58.7 168.15 80.8 171.5 80.4 173.9 58.4 170.65" fill="#e6e6e6" fill-rule="evenodd" stroke="none"/>
    <path d="M79.75 179.0 L79.6 180.85 56.6 177.2 57.05 175.3 79.75 179.0" fill="#a2a2a2" fill-rule="evenodd" stroke="none"/>
    <path d="M80.4 173.9 L79.75 179.0 57.05 175.3 58.4 170.65 80.4 173.9" fill="#c8c8c8" fill-rule="evenodd" stroke="none"/>
    <path d="M58.4 170.65 L58.7 168.15 M56.6 177.2 L57.05 175.3 58.4 170.65 Z" fill="none" stroke="#283757" stroke-linecap="round" stroke-linejoin="round" stroke-opacity="0.49803922" stroke-width="0.1"/>
    <path d="M100.5 174.35 L101.0 175.95 75.7 180.4 75.4 178.5 100.5 174.35" fill="#a2a2a2" fill-rule="evenodd" stroke="none"/>
    <path d="M74.85 174.0 L74.05 171.8 98.65 167.45 99.25 169.7 74.85 174.0" fill="#e6e6e6" fill-rule="evenodd" stroke="none"/>
    <path d="M75.4 178.5 L74.85 174.0 99.25 169.7 100.5 174.35 75.4 178.5" fill="#c8c8c8" fill-rule="evenodd" stroke="none"/>
    <path d="M75.4 178.5 L74.85 174.0 74.05 171.8 M75.7 180.4 L75.4 178.5 Z" fill="none" stroke="#283757" stroke-linecap="round" stroke-linejoin="round" stroke-opacity="0.49803922" stroke-width="0.1"/>
    <path d="M72.95 172.5 Q73.4 171.65 74.25 171.25 74.8 170.85 75.4 170.6 76.9 169.95 78.7 170.25 80.55 170.5 81.85 171.55 L82.65 172.5 83.2 173.1 Q84.15 174.6 83.9 176.35 83.7 177.95 82.6 179.05 L81.55 179.8 79.9 180.7 77.3 180.8 Q75.65 180.55 74.5 179.85 L73.25 178.65 72.65 178.05 Q71.8 176.5 72.05 174.7 72.2 173.45 72.95 172.5" fill="#b7b7b7" fill-rule="evenodd" stroke="none"/>
    <path d="M79.5 174.4 Q80.75 175.85 80.55 177.6 80.3 179.4 78.75 180.45 77.2 181.55 75.3 181.25 73.25 181.05 72.0 179.6 70.75 178.2 71.0 176.35 71.15 174.65 72.7 173.55 74.25 172.5 76.25 172.7 78.25 173.0 79.5 174.4" fill="#dae3e9" fill-rule="evenodd" stroke="none"/>
    <path d="M76.5 173.1 Q77.05 172.7 77.75 172.8 78.4 172.9 78.85 173.35 79.3 173.85 79.25 174.45 79.15 175.05 78.6 175.45 L77.4 175.7 Q76.75 175.6 76.3 175.1 75.85 174.65 75.9 174.05 76.0 173.45 76.5 173.1" fill="#ffffff" fill-rule="evenodd" stroke="none"/>
    <path d="M62.9 168.35 L63.7 170.5 Q64.0 171.9 63.75 173.6 63.5 175.25 62.75 176.7 L61.2 178.65 59.75 179.85 Q56.15 182.2 51.65 181.7 47.2 181.0 44.45 177.75 41.65 174.4 42.15 170.55 42.75 166.5 46.15 164.25 49.75 161.9 54.3 162.45 58.75 163.05 61.55 166.3 L62.9 168.35" fill="#c7175e" fill-rule="evenodd" stroke="none"/>
    <path d="M47.4 167.45 Q50.05 165.6 53.4 165.95 56.75 166.45 58.85 168.85 61.0 171.25 60.65 174.2 60.3 177.2 57.65 179.05 55.05 180.85 51.65 180.4 48.35 180.0 46.2 177.6 44.1 175.2 44.4 172.15 44.8 169.25 47.4 167.45" fill="#eb3e83" fill-rule="evenodd" stroke="none"/>
    <path d="M49.15 175.3 Q50.35 174.5 51.85 174.65 53.35 174.85 54.3 175.95 55.25 177.0 55.1 178.3 54.95 179.7 53.75 180.5 52.6 181.3 51.1 181.05 49.6 180.9 48.65 179.85 47.7 178.75 47.85 177.4 48.0 176.1 49.15 175.3" fill="#ffffff" fill-opacity="0.49803922" fill-rule="evenodd" stroke="none"/>
    <path d="M60.2 167.45 L61.6 166.25 63.6 167.55 66.15 169.25 Q65.5 169.8 65.0 170.55 L65.0 170.45 63.4 169.05 62.7 168.6 60.95 167.75 60.2 167.45" fill="#e6e6e6" fill-rule="evenodd" stroke="none"/>
    <path d="M60.2 167.45 L60.95 167.75 62.7 168.6 63.4 169.05 65.0 170.45 65.0 170.55 64.55 173.6 63.6 176.5 61.8 177.2 59.7 177.85 58.15 177.95 Q57.25 175.75 57.65 172.95 58.15 169.45 60.2 167.45" fill="#c8c8c8" fill-rule="evenodd" stroke="none"/>
    <path d="M63.6 176.5 Q63.75 177.8 64.2 178.45 L59.65 180.2 59.4 180.35 Q58.55 179.2 58.15 177.95 L59.7 177.85 61.8 177.2 63.6 176.5" fill="#a2a2a2" fill-rule="evenodd" stroke="none"/>
  </g>
</svg>
