<?xml version="1.0" encoding="UTF-8" standalone="no"?>
<svg xmlns:xlink="http://www.w3.org/1999/xlink" height="86.65px" width="107.65px" xmlns="http://www.w3.org/2000/svg">
  <g transform="matrix(1.0, 0.0, 0.0, 1.0, -64.3, -90.8)">
    <path d="M66.7 146.1 L65.75 144.7 65.25 144.05 65.25 144.0 64.3 142.45 Q65.2 132.3 70.0 110.95 L80.1 90.8 84.0 91.65 Q105.85 96.4 124.0 103.35 152.75 114.2 171.95 130.2 L171.2 140.15 Q170.35 149.45 167.8 159.35 L166.65 160.3 167.55 156.2 166.55 160.35 166.35 160.55 164.7 161.85 163.65 162.7 Q168.35 148.9 168.4 132.1 134.05 108.5 82.05 95.7 L72.45 112.4 66.7 146.1" fill="#eebe00" fill-rule="evenodd" stroke="none"/>
    <path d="M66.7 146.1 L72.45 112.4 82.05 95.7 Q134.05 108.5 168.4 132.1 168.35 148.9 163.65 162.7 L163.15 163.0 Q159.55 165.95 155.1 168.45 L152.95 169.6 Q149.9 171.2 146.65 172.4 L140.75 174.4 139.75 174.6 138.1 174.95 137.8 175.05 Q128.15 177.1 117.6 176.1 L111.25 175.2 110.75 175.1 110.7 175.1 105.35 173.9 Q96.45 171.65 89.0 167.35 L85.5 165.3 85.45 165.25 83.3 163.8 79.75 161.0 79.45 160.7 74.1 155.5 72.5 153.7 69.0 149.25 67.4 147.05 67.35 146.95 67.35 146.9 66.7 146.1" fill="#f8deeb" fill-rule="evenodd" stroke="none"/>
    <path d="M163.65 162.7 L163.15 163.0 Q159.55 165.95 155.1 168.45 L152.95 169.6 Q149.9 171.2 146.65 172.4 L140.75 174.4 139.75 174.6 138.1 174.95 137.8 175.05 Q128.15 177.1 117.6 176.1 L111.25 175.2 110.75 175.1 110.7 175.1 105.35 173.9 Q96.45 171.65 89.0 167.35 L85.5 165.3 85.45 165.25 83.3 163.8 79.75 161.0 79.45 160.7 74.1 155.5 72.5 153.7 69.0 149.25 67.4 147.05" fill="none" stroke="#a90156" stroke-linecap="round" stroke-linejoin="round" stroke-width="2.0"/>
    <path d="M125.15 168.25 Q109.65 167.3 95.35 161.8 94.7 166.7 96.8 171.4 L95.2 170.8 Q92.45 165.4 92.9 158.7 112.7 167.35 137.05 166.85 L137.0 166.9 133.95 168.4 Q129.5 168.5 125.15 168.25" fill="#ffffff" fill-rule="evenodd" stroke="none"/>
    <path d="M96.8 171.4 Q94.7 166.7 95.35 161.8 109.65 167.3 125.15 168.25 124.0 173.15 120.8 176.8 L112.2 175.8 111.6 175.7 110.55 175.5 110.35 175.5 99.75 172.6 96.8 171.4" fill="#cccccc" fill-rule="evenodd" stroke="none"/>
    <path d="M137.0 166.9 L137.05 166.85 Q112.7 167.35 92.9 158.7 92.45 165.4 95.2 170.8 L94.65 170.6 94.05 170.3 93.25 169.95 Q90.65 164.5 91.3 156.9 115.6 166.4 139.5 165.55 137.95 171.85 133.25 176.3 L133.25 176.4 130.8 176.65 Q135.2 172.25 137.0 166.9" fill="#7e4562" fill-rule="evenodd" stroke="none"/>
    <path d="M125.15 168.25 Q129.5 168.5 133.95 168.4 L134.1 168.35 Q132.7 172.8 128.85 176.8 L123.9 176.9 123.7 176.85 123.5 176.9 123.3 176.9 120.8 176.8 Q124.0 173.15 125.15 168.25" fill="#aeaeae" fill-rule="evenodd" stroke="none"/>
    <path d="M133.95 168.4 L137.0 166.9 Q135.2 172.25 130.8 176.65 L129.05 176.8 128.85 176.8 Q132.7 172.8 134.1 168.35 L133.95 168.4" fill="#d9d9d9" fill-rule="evenodd" stroke="none"/>
  </g>
</svg>
