<?xml version="1.0" encoding="UTF-8" standalone="no"?>
<svg xmlns:xlink="http://www.w3.org/1999/xlink" height="63.8px" width="56.85px" xmlns="http://www.w3.org/2000/svg">
  <g transform="matrix(1.0, 0.0, 0.0, 1.0, 0.4, -3.3)">
    <path d="M41.35 29.85 L39.35 29.7 Q37.25 34.8 34.15 40.15 L31.25 44.7 Q32.05 46.55 31.05 48.15 L26.7 53.65 26.65 53.65 Q26.25 57.65 23.2 60.65 19.6 64.1 14.65 64.1 9.65 64.1 6.1 60.65 2.6 57.2 2.6 52.35 2.6 47.45 6.1 44.05 9.05 41.15 13.05 40.65 L18.2 35.75 18.25 35.9 Q19.65 34.55 21.65 35.15 L25.7 29.7 30.45 23.1 Q29.35 20.8 29.35 18.1 29.35 13.2 32.85 9.8 36.4 6.3 41.35 6.3 46.35 6.3 49.95 9.8 53.45 13.2 53.45 18.1 53.45 22.95 49.95 26.4 46.35 29.85 41.35 29.85" fill="#ffffff" fill-rule="evenodd" stroke="none"/>
    <path d="M41.35 29.85 L39.35 29.7 Q37.25 34.8 34.15 40.15 L31.25 44.7 Q32.05 46.55 31.05 48.15 L26.7 53.65 26.65 53.65 Q26.25 57.65 23.2 60.65 19.6 64.1 14.65 64.1 9.65 64.1 6.1 60.65 2.6 57.2 2.6 52.35 2.6 47.45 6.1 44.05 9.05 41.15 13.05 40.65 L18.2 35.75 18.25 35.9 Q19.65 34.55 21.65 35.15 L25.7 29.7 30.45 23.1 Q29.35 20.8 29.35 18.1 29.35 13.2 32.85 9.8 36.4 6.3 41.35 6.3 46.35 6.3 49.95 9.8 53.45 13.2 53.45 18.1 53.45 22.95 49.95 26.4 46.35 29.85 41.35 29.85 Z" fill="none" stroke="#a90156" stroke-linecap="round" stroke-linejoin="round" stroke-width="6.0"/>
    <path d="M41.3 24.0 Q39.05 31.95 34.15 40.3 L28.15 49.4 24.7 45.6 18.75 38.8 25.7 29.85 34.8 16.9 Q37.8 18.8 40.75 23.1 L41.3 24.0" fill="#c8c8c8" fill-rule="evenodd" stroke="none"/>
    <path d="M14.65 40.7 Q19.6 40.7 23.2 44.2 26.7 47.6 26.7 52.5 26.7 57.35 23.2 60.75 19.6 64.25 14.65 64.25 9.65 64.25 6.1 60.75 2.6 57.35 2.6 52.5 2.6 47.6 6.1 44.2 9.65 40.7 14.65 40.7" fill="#c7175e" fill-rule="evenodd" stroke="none"/>
    <path d="M13.45 41.4 Q17.25 41.4 19.95 43.9 22.6 46.4 22.6 50.0 22.6 53.6 19.95 56.1 17.25 58.6 13.45 58.6 9.75 58.6 7.1 56.1 4.4 53.6 4.4 50.0 4.4 46.4 7.1 43.9 9.75 41.4 13.45 41.4" fill="#eb3e83" fill-rule="evenodd" stroke="none"/>
    <path d="M18.25 36.05 Q19.7 34.7 21.7 35.3 25.5 41.2 31.25 44.85 32.05 46.7 31.05 48.3 L28.15 51.9 16.1 37.95 18.25 36.05" fill="#c8c8c8" fill-rule="evenodd" stroke="none"/>
    <path d="M31.0 48.3 L26.7 53.8 Q14.95 52.35 13.05 40.8 L18.2 35.9 Q22.0 44.45 31.0 48.3" fill="#c8c8c8" fill-rule="evenodd" stroke="none"/>
    <path d="M49.95 9.95 Q53.45 13.35 53.45 18.25 53.45 23.1 49.95 26.55 46.35 30.0 41.35 30.0 36.4 30.0 32.85 26.55 29.35 23.1 29.35 18.25 29.35 13.35 32.85 9.95 36.4 6.45 41.35 6.45 46.35 6.45 49.95 9.95" fill="url(#gradient0)" fill-rule="evenodd" stroke="none"/>
    <path d="M42.1 26.95 Q37.8 26.95 34.75 24.05 31.65 21.1 31.65 17.0 31.65 12.85 34.75 9.9 37.8 7.0 42.1 7.0 46.5 7.0 49.65 9.9 52.7 12.85 52.7 17.0 52.7 21.1 49.65 24.05 46.5 26.95 42.1 26.95" fill="url(#gradient1)" fill-rule="evenodd" stroke="none"/>
  </g>
  <defs>
    <linearGradient gradientTransform="matrix(-6.0E-4, -0.0143, 0.0147, -6.0E-4, 41.35, 18.25)" gradientUnits="userSpaceOnUse" id="gradient0" spreadMethod="pad" x1="-819.2" x2="819.2">
      <stop offset="0.0" stop-color="#c11359"/>
      <stop offset="1.0" stop-color="#ea2f7a"/>
    </linearGradient>
    <linearGradient gradientTransform="matrix(0.0, -0.0096, -0.0111, 1.0E-4, 75.45, 17.2)" gradientUnits="userSpaceOnUse" id="gradient1" spreadMethod="pad" x1="-819.2" x2="819.2">
      <stop offset="0.0" stop-color="#eb367e"/>
      <stop offset="1.0" stop-color="#ec6098"/>
    </linearGradient>
  </defs>
</svg>
