<?xml version="1.0" encoding="UTF-8" standalone="no"?>
<svg xmlns:xlink="http://www.w3.org/1999/xlink" height="177.85px" width="454.35px" xmlns="http://www.w3.org/2000/svg">
  <g transform="matrix(1.0, 0.0, 0.0, 1.0, -123.35, -262.35)">
    <path d="M144.0 280.45 Q160.75 266.35 184.35 266.35 L516.7 266.35 Q540.3 266.35 556.95 280.45 573.7 294.65 573.7 314.6 L573.7 387.9 Q573.7 407.9 556.95 422.0 540.3 436.2 516.7 436.2 L184.35 436.2 Q160.75 436.2 144.0 422.0 127.35 407.9 127.35 387.9 L127.35 314.6 Q127.35 294.65 144.0 280.45" fill="#cff3e8" fill-rule="evenodd" stroke="none"/>
    <path d="M144.0 280.45 Q127.35 294.65 127.35 314.6 L127.35 387.9 Q127.35 407.9 144.0 422.0 160.75 436.2 184.35 436.2 L516.7 436.2 Q540.3 436.2 556.95 422.0 573.7 407.9 573.7 387.9 L573.7 314.6 Q573.7 294.65 556.95 280.45 540.3 266.35 516.7 266.35 L184.35 266.35 Q160.75 266.35 144.0 280.45 Z" fill="none" stroke="#f5fffc" stroke-linecap="round" stroke-linejoin="round" stroke-width="8.0"/>
  </g>
</svg>
