<?xml version="1.0" encoding="UTF-8" standalone="no"?>
<svg xmlns:xlink="http://www.w3.org/1999/xlink" height="97.3px" width="179.95px" xmlns="http://www.w3.org/2000/svg">
  <g transform="matrix(1.0, 0.0, 0.0, 1.0, -19.65, -391.6)">
    <path d="M131.25 412.5 Q136.7 409.35 143.45 409.65 147.35 410.9 150.25 412.4 155.45 415.25 157.65 418.95 159.85 422.45 158.75 426.15 157.7 429.6 155.45 432.15 L152.5 434.75 149.4 437.15 157.2 434.4 158.65 433.95 Q163.15 432.05 164.45 427.25 L164.6 426.65 Q164.9 424.65 164.7 422.7 180.3 423.6 185.0 438.3 187.85 453.5 181.0 462.9 L180.7 463.25 Q176.45 468.85 171.75 470.7 166.45 472.75 158.8 471.0 156.0 470.35 154.35 469.0 151.85 472.3 145.4 473.65 L144.95 473.8 Q136.95 474.35 133.1 470.3 130.95 468.0 130.1 464.45 130.1 469.75 131.3 472.4 121.05 473.75 115.4 467.65 112.95 465.1 111.35 460.6 109.8 465.1 107.1 467.6 98.6 475.1 93.15 471.5 89.7 468.7 85.8 469.15 L80.45 469.15 Q76.0 468.65 73.8 467.65 71.0 466.3 69.2 463.1 67.5 460.15 68.1 455.45 57.65 464.2 47.35 463.85 L47.05 463.85 46.95 463.85 Q41.5 464.0 38.2 461.75 L38.2 461.8 38.15 461.75 36.55 460.4 Q35.95 459.6 35.6 458.35 35.1 456.65 35.3 455.45 31.85 458.8 27.65 458.1 L27.0 457.9 Q23.65 457.0 22.55 454.55 21.25 451.75 24.25 446.15 27.35 444.25 32.65 444.15 L35.4 444.25 35.45 443.75 Q35.6 430.4 50.15 426.25 L50.2 425.65 Q51.9 425.75 53.8 426.35 L53.9 425.75 Q57.35 415.25 63.7 412.15 68.45 412.25 71.3 413.55 76.0 415.75 76.45 421.15 77.1 417.25 79.25 415.45 L79.25 415.4 81.1 414.15 81.75 413.9 Q83.15 401.05 92.35 395.45 97.45 393.8 102.25 393.8 105.9 393.75 109.55 394.75 124.8 402.2 125.15 417.45 128.15 414.2 131.25 412.5" fill="#ffffff" fill-rule="evenodd" stroke="none"/>
    <path d="M92.35 395.45 Q96.45 392.9 102.3 391.85 L102.85 391.75 109.9 392.0 Q123.2 394.45 131.25 412.5 128.15 414.2 125.15 417.45 124.8 402.2 109.55 394.75 105.9 393.75 102.25 393.8 97.45 393.8 92.35 395.45 M150.25 412.4 L150.75 411.0 Q161.9 413.45 164.2 420.2 L164.7 422.7 164.6 419.95 Q186.3 415.5 197.25 436.35 L197.35 436.7 Q205.9 463.1 182.25 475.5 L182.1 475.8 Q174.45 478.55 166.45 476.0 152.85 487.9 138.9 480.35 L138.75 480.65 Q129.8 494.75 115.8 484.75 L115.55 484.3 Q111.3 480.65 109.5 474.7 97.25 487.0 80.9 483.6 L80.25 483.5 Q64.9 480.3 57.95 470.95 53.25 472.3 46.85 470.95 39.9 469.1 37.0 464.9 22.0 468.4 19.65 456.25 L19.75 456.2 19.65 455.95 Q19.75 449.05 24.25 446.15 21.25 451.75 22.55 454.55 23.65 457.0 27.0 457.9 L27.65 458.1 Q31.85 458.8 35.3 455.45 35.1 456.65 35.6 458.35 35.95 459.6 36.55 460.4 L38.15 461.75 38.2 461.8 38.2 461.75 Q41.5 464.0 46.95 463.85 L47.05 463.85 47.35 463.85 Q57.65 464.2 68.1 455.45 67.5 460.15 69.2 463.1 71.0 466.3 73.8 467.65 76.0 468.65 80.45 469.15 L85.8 469.15 Q89.7 468.7 93.15 471.5 98.6 475.1 107.1 467.6 109.8 465.1 111.35 460.6 112.95 465.1 115.4 467.65 121.05 473.75 131.3 472.4 130.1 469.75 130.1 464.45 130.95 468.0 133.1 470.3 136.95 474.35 144.95 473.8 L145.4 473.65 Q151.85 472.3 154.35 469.0 156.0 470.35 158.8 471.0 166.45 472.75 171.75 470.7 176.45 468.85 180.7 463.25 L181.0 462.9 Q187.85 453.5 185.0 438.3 180.3 423.6 164.7 422.7 164.9 424.65 164.6 426.65 L164.45 427.25 Q163.15 432.05 158.65 433.95 L157.2 434.4 149.4 437.15 152.5 434.75 155.45 432.15 Q157.7 429.6 158.75 426.15 159.85 422.45 157.65 418.95 155.45 415.25 150.25 412.4 M32.65 444.15 Q30.9 433.25 38.95 428.1 L39.2 428.1 Q44.1 424.95 50.2 425.65 L50.15 426.25 Q35.6 430.4 35.45 443.75 L35.4 444.25 32.65 444.15 M63.7 412.15 Q67.35 410.4 72.0 411.05 L72.25 411.25 Q75.95 411.85 79.25 415.45 77.1 417.25 76.45 421.15 76.0 415.75 71.3 413.55 68.45 412.25 63.7 412.15" fill="#dde7e6" fill-rule="evenodd" stroke="none"/>
  </g>
</svg>
