<?xml version="1.0" encoding="UTF-8" standalone="no"?>
<svg xmlns:xlink="http://www.w3.org/1999/xlink" height="33.85px" width="559.6px" xmlns="http://www.w3.org/2000/svg">
  <g transform="matrix(1.0, 0.0, 0.0, 1.0, -79.9, -413.35)">
    <path d="M511.75 444.1 Q511.75 442.8 512.75 441.85 513.85 440.9 515.3 440.9 516.9 440.9 517.85 441.85 519.05 442.85 519.05 444.1 519.05 445.3 517.85 446.35 516.9 447.2 515.3 447.2 513.85 447.2 512.75 446.35 511.75 445.45 511.75 444.1" fill="#a87600" fill-rule="evenodd" stroke="none"/>
    <path d="M515.8 440.6 Q517.15 440.6 518.05 441.55 519.0 442.55 519.0 443.8 519.0 445.05 518.05 446.0 517.15 446.9 515.8 446.9 514.55 446.9 513.55 446.0 512.7 445.15 512.7 443.8 512.7 442.45 513.55 441.55 514.55 440.6 515.8 440.6" fill="#ffd675" fill-rule="evenodd" stroke="none"/>
    <path d="M513.05 443.6 Q513.05 442.35 514.65 442.35 516.4 442.35 516.4 443.6 516.4 444.7 514.65 444.7 513.05 444.7 513.05 443.6" fill="#fffefd" fill-rule="evenodd" stroke="none"/>
    <path d="M545.55 432.0 Q545.55 430.4 546.8 429.25 548.15 428.1 549.85 428.1 551.8 428.1 552.95 429.25 554.4 430.5 554.4 432.0 554.4 433.45 552.95 434.7 551.8 435.75 549.85 435.75 548.15 435.75 546.8 434.7 545.55 433.65 545.55 432.0" fill="#a87600" fill-rule="evenodd" stroke="none"/>
    <path d="M550.35 427.55 Q552.0 427.55 553.0 428.75 554.2 429.95 554.2 431.45 554.2 432.95 553.0 434.1 552.0 435.15 550.35 435.15 548.85 435.15 547.65 434.1 546.6 433.1 546.6 431.45 546.6 429.8 547.65 428.75 548.85 427.55 550.35 427.55" fill="#ffd675" fill-rule="evenodd" stroke="none"/>
    <path d="M547.6 431.2 Q547.6 429.7 549.55 429.7 551.6 429.7 551.6 431.2 551.6 432.55 549.55 432.55 547.6 432.55 547.6 431.2" fill="#fffefd" fill-rule="evenodd" stroke="none"/>
    <path d="M585.55 419.0 Q585.55 417.0 587.15 415.55 588.8 414.15 591.0 414.15 593.4 414.15 594.9 415.55 596.75 417.15 596.75 419.0 596.75 420.85 594.9 422.45 593.4 423.7 591.0 423.7 588.8 423.7 587.15 422.45 585.55 421.05 585.55 419.0" fill="#a87600" fill-rule="evenodd" stroke="none"/>
    <path d="M590.75 414.05 Q592.8 414.05 594.15 415.55 595.65 417.05 595.65 418.95 595.65 420.85 594.15 422.35 592.8 423.65 590.75 423.65 588.85 423.65 587.35 422.35 586.0 421.0 586.0 418.95 586.0 416.85 587.35 415.55 588.85 414.05 590.75 414.05" fill="#ffd675" fill-rule="evenodd" stroke="none"/>
    <path d="M588.3 418.05 Q588.3 416.2 590.75 416.2 593.35 416.2 593.35 418.05 593.35 419.75 590.75 419.75 588.3 419.75 588.3 418.05" fill="#fffefd" fill-rule="evenodd" stroke="none"/>
    <path d="M626.7 420.3 Q627.95 418.25 630.4 417.7 633.0 417.15 635.2 418.35 637.7 419.7 638.3 422.05 639.2 424.65 638.05 426.55 636.9 428.45 634.05 429.05 631.75 429.5 629.25 428.15 627.05 426.95 626.15 424.7 625.4 422.4 626.7 420.3" fill="#a87600" fill-rule="evenodd" stroke="none"/>
    <path d="M636.8 419.3 Q638.9 420.45 639.3 422.75 639.9 425.1 638.75 427.05 637.6 428.95 635.1 429.65 632.95 430.25 630.85 429.1 628.9 428.05 628.2 425.85 627.65 423.75 628.95 421.65 630.25 419.55 632.4 418.95 634.85 418.25 636.8 419.3" fill="#ffd675" fill-rule="evenodd" stroke="none"/>
    <path d="M631.65 421.4 Q632.8 419.45 635.3 420.8 638.0 422.3 636.85 424.25 635.8 425.95 633.1 424.45 630.6 423.1 631.65 421.4" fill="#fffefd" fill-rule="evenodd" stroke="none"/>
    <path d="M207.7 443.65 Q207.7 442.35 206.7 441.4 205.6 440.45 204.15 440.45 202.55 440.45 201.6 441.4 200.4 442.4 200.4 443.65 200.4 444.85 201.6 445.9 202.55 446.75 204.15 446.75 205.6 446.75 206.7 445.9 207.7 445.0 207.7 443.65" fill="#a87600" fill-rule="evenodd" stroke="none"/>
    <path d="M203.65 439.7 Q202.3 439.7 201.45 440.65 200.45 441.65 200.45 442.9 200.45 444.15 201.45 445.1 202.3 446.0 203.65 446.0 204.9 446.0 205.9 445.1 206.75 444.25 206.75 442.9 206.75 441.55 205.9 440.65 204.9 439.7 203.65 439.7" fill="#ffd675" fill-rule="evenodd" stroke="none"/>
    <path d="M206.6 443.6 Q206.6 442.35 205.0 442.35 203.25 442.35 203.25 443.6 203.25 444.7 205.0 444.7 206.6 444.7 206.6 443.6" fill="#fffefd" fill-rule="evenodd" stroke="none"/>
    <path d="M173.75 431.2 Q173.75 429.6 172.5 428.45 171.15 427.3 169.45 427.3 167.5 427.3 166.35 428.45 164.9 429.7 164.9 431.2 164.9 432.65 166.35 433.9 167.5 434.95 169.45 434.95 171.15 434.95 172.5 433.9 173.75 432.85 173.75 431.2" fill="#a87600" fill-rule="evenodd" stroke="none"/>
    <path d="M169.1 426.0 Q167.45 426.0 166.45 427.2 165.25 428.4 165.25 429.9 165.25 431.4 166.45 432.55 167.45 433.6 169.1 433.6 170.6 433.6 171.8 432.55 172.85 431.55 172.85 429.9 172.85 428.25 171.8 427.2 170.6 426.0 169.1 426.0" fill="#ffd675" fill-rule="evenodd" stroke="none"/>
    <path d="M171.65 429.9 Q171.65 428.4 169.7 428.4 167.65 428.4 167.65 429.9 167.65 431.25 169.7 431.25 171.65 431.25 171.65 429.9" fill="#fffefd" fill-rule="evenodd" stroke="none"/>
    <path d="M134.1 418.2 Q134.1 416.2 132.5 414.75 130.85 413.35 128.65 413.35 126.25 413.35 124.75 414.75 122.9 416.35 122.9 418.2 122.9 420.05 124.75 421.65 126.25 422.9 128.65 422.9 130.85 422.9 132.5 421.65 134.1 420.25 134.1 418.2" fill="#a87600" fill-rule="evenodd" stroke="none"/>
    <path d="M128.15 413.55 Q126.1 413.55 124.75 415.05 123.25 416.55 123.25 418.45 123.25 420.35 124.75 421.85 126.1 423.15 128.15 423.15 130.05 423.15 131.55 421.85 132.9 420.5 132.9 418.45 132.9 416.35 131.55 415.05 130.05 413.55 128.15 413.55" fill="#ffd675" fill-rule="evenodd" stroke="none"/>
    <path d="M130.55 416.85 Q130.55 415.0 128.1 415.0 125.5 415.0 125.5 416.85 125.5 418.55 128.1 418.55 130.55 418.55 130.55 416.85" fill="#fffefd" fill-rule="evenodd" stroke="none"/>
    <path d="M92.85 421.3 Q91.6 419.25 89.15 418.7 86.55 418.15 84.35 419.35 81.85 420.7 81.25 423.05 80.35 425.65 81.5 427.55 82.65 429.45 85.5 430.05 87.8 430.5 90.3 429.15 92.5 427.95 93.4 425.7 94.15 423.4 92.85 421.3" fill="#a87600" fill-rule="evenodd" stroke="none"/>
    <path d="M82.6 420.75 Q80.5 421.9 80.1 424.2 79.5 426.55 80.65 428.5 81.8 430.4 84.3 431.1 86.45 431.7 88.55 430.55 90.5 429.5 91.2 427.3 91.75 425.2 90.45 423.1 89.15 421.0 87.0 420.4 84.55 419.7 82.6 420.75" fill="#ffd675" fill-rule="evenodd" stroke="none"/>
    <path d="M87.8 422.65 Q86.65 420.7 84.15 422.05 81.45 423.55 82.6 425.5 83.65 427.2 86.35 425.7 88.85 424.35 87.8 422.65" fill="#fffefd" fill-rule="evenodd" stroke="none"/>
  </g>
</svg>
