<?xml version="1.0" encoding="UTF-8" standalone="no"?>
<svg xmlns:xlink="http://www.w3.org/1999/xlink" height="45.4px" width="100.7px" xmlns="http://www.w3.org/2000/svg">
  <g transform="matrix(1.0, 0.0, 0.0, 1.0, -578.6, -452.95)">
    <path d="M651.65 462.65 L651.95 462.0 Q658.2 463.15 659.45 466.3 L659.75 467.45 659.7 466.2 Q671.8 464.1 677.95 473.85 L678.0 473.95 Q682.8 486.3 669.55 492.05 L669.45 492.2 Q665.2 493.5 660.75 492.3 653.1 497.85 645.3 494.35 L645.25 494.5 Q640.2 501.05 632.4 496.4 L632.25 496.2 Q629.85 494.5 628.85 491.7 622.0 497.45 612.85 495.85 L612.5 495.8 Q603.9 494.3 600.05 489.95 597.4 490.6 593.8 489.95 589.95 489.1 588.3 487.1 579.9 488.8 578.6 483.1 L578.65 483.1 578.6 482.95 Q578.65 479.75 581.15 478.4 579.5 481.0 580.25 482.3 580.85 483.5 582.7 483.9 L583.1 483.95 Q585.45 484.3 587.35 482.75 587.25 483.3 587.5 484.05 587.7 484.65 588.05 485.05 L588.95 485.7 Q590.85 486.7 593.85 486.65 L593.9 486.65 594.1 486.65 Q599.85 486.8 605.7 482.75 605.35 484.9 606.3 486.3 607.3 487.8 608.9 488.45 L612.6 489.1 615.6 489.1 Q617.8 488.95 619.7 490.2 622.75 491.9 627.5 488.4 629.0 487.25 629.9 485.15 630.8 487.25 632.15 488.45 635.35 491.3 641.05 490.65 640.4 489.4 640.4 486.95 640.85 488.6 642.05 489.65 644.2 491.55 648.7 491.3 L648.95 491.25 Q652.55 490.6 653.95 489.05 654.85 489.65 656.45 490.0 660.75 490.8 663.7 489.85 666.3 488.95 668.7 486.4 L668.85 486.2 Q672.7 481.8 671.1 474.75 668.5 467.9 659.75 467.45 L659.7 469.3 659.6 469.6 Q658.85 471.8 656.35 472.7 L655.55 472.9 651.2 474.2 652.9 473.1 654.55 471.85 Q655.85 470.7 656.4 469.05 657.0 467.35 655.8 465.7 654.55 464.0 651.65 462.65 M585.9 477.45 Q584.9 472.4 589.4 470.0 L589.55 470.0 Q592.3 468.5 595.7 468.85 L595.65 469.1 Q587.5 471.05 587.45 477.3 L587.4 477.5 585.9 477.45 M603.25 462.55 Q605.3 461.7 607.9 462.05 L608.05 462.1 Q610.1 462.4 611.95 464.05 610.75 464.9 610.4 466.75 610.1 464.2 607.5 463.2 605.9 462.6 603.25 462.55 M619.25 454.75 Q621.55 453.6 624.85 453.1 L625.15 453.05 629.1 453.15 Q636.5 454.3 641.05 462.7 639.3 463.5 637.6 465.0 637.4 457.9 628.9 454.4 L624.8 453.95 619.25 454.75" fill="#dde7e6" fill-rule="evenodd" stroke="none"/>
    <path d="M581.15 478.4 Q582.9 477.5 585.9 477.45 L587.4 477.5 587.45 477.3 Q587.5 471.05 595.65 469.1 L595.7 468.85 597.7 469.15 597.75 468.9 Q599.7 464.0 603.25 462.55 605.9 462.6 607.5 463.2 610.1 464.2 610.4 466.75 610.75 464.9 611.95 464.05 L613.0 463.5 613.35 463.35 Q614.1 457.35 619.25 454.75 L624.8 453.95 628.9 454.4 Q637.4 457.9 637.6 465.0 639.3 463.5 641.05 462.7 644.05 461.25 647.85 461.4 650.05 461.95 651.65 462.65 654.55 464.0 655.8 465.7 657.0 467.35 656.4 469.05 655.85 470.7 654.55 471.85 L652.9 473.1 651.2 474.2 655.55 472.9 656.35 472.7 Q658.85 471.8 659.6 469.6 L659.7 469.3 659.75 467.45 Q668.5 467.9 671.1 474.75 672.7 481.8 668.85 486.2 L668.7 486.4 Q666.3 488.95 663.7 489.85 660.75 490.8 656.45 490.0 654.85 489.65 653.95 489.05 652.55 490.6 648.95 491.25 L648.7 491.3 Q644.2 491.55 642.05 489.65 640.85 488.6 640.4 486.95 640.4 489.4 641.05 490.65 635.35 491.3 632.15 488.45 630.8 487.25 629.9 485.15 629.0 487.25 627.5 488.4 622.75 491.9 619.7 490.2 617.8 488.95 615.6 489.1 L612.6 489.1 608.9 488.45 Q607.3 487.8 606.3 486.3 605.35 484.9 605.7 482.75 599.85 486.8 594.1 486.65 L593.9 486.65 593.85 486.65 Q590.85 486.7 588.95 485.7 L588.05 485.05 Q587.7 484.65 587.5 484.05 587.25 483.3 587.35 482.75 585.45 484.3 583.1 483.95 L582.7 483.9 Q580.85 483.5 580.25 482.3 579.5 481.0 581.15 478.4" fill="#ffffff" fill-rule="evenodd" stroke="none"/>
  </g>
</svg>
