<?xml version="1.0" encoding="UTF-8" standalone="no"?>
<svg xmlns:xlink="http://www.w3.org/1999/xlink" height="94.05px" width="108.45px" xmlns="http://www.w3.org/2000/svg">
  <g transform="matrix(1.0, 0.0, 0.0, 1.0, 4.2, -21.05)">
    <path d="M82.0 36.6 L82.6 37.2 Q83.5 38.1 83.5 39.65 83.5 41.15 82.6 42.4 81.7 43.3 80.15 43.3 L78.3 43.0 Q78.3 43.9 77.4 44.85 76.5 45.75 74.95 45.75 L72.8 45.45 74.05 53.1 75.55 64.7 76.5 64.4 77.4 67.75 101.25 90.1 93.6 95.6 93.6 95.9 93.3 96.2 92.1 97.1 91.75 96.8 Q86.55 100.15 80.75 103.25 L76.8 95.0 78.3 104.15 68.55 108.1 66.4 108.75 66.4 108.45 Q61.5 109.95 56.9 110.55 L56.0 99.55 56.0 110.9 55.4 110.9 48.65 111.5 42.25 111.5 41.9 112.1 Q40.7 111.5 40.1 111.8 L37.05 111.5 37.05 111.8 34.9 111.5 34.6 111.5 Q34.3 111.2 34.3 111.5 33.65 111.2 33.65 111.5 L32.15 111.2 24.5 109.65 24.5 109.95 Q23.6 109.35 22.65 109.35 21.45 108.75 20.5 108.75 L20.5 108.45 Q19.9 108.1 19.6 108.1 L15.65 106.6 16.85 101.1 14.7 106.3 Q13.8 105.7 12.85 105.7 12.55 105.05 12.25 105.05 L12.25 105.35 Q11.35 104.75 11.05 105.05 L11.35 104.75 11.05 104.75 5.85 102.0 5.85 102.3 Q4.9 101.7 4.6 101.7 L4.9 101.7 4.6 101.4 2.5 99.85 Q2.15 99.85 2.5 100.15 1.25 99.55 0.65 98.95 L0.05 98.65 0.05 98.35 -0.3 98.35 15.0 74.2 15.3 70.8 17.45 71.15 18.05 66.85 Q15.65 65.65 14.1 63.5 L13.5 62.9 Q12.55 63.5 11.65 63.5 L10.1 63.2 9.2 65.0 Q8.0 66.25 6.45 66.25 4.9 66.25 4.0 65.0 2.8 63.8 2.8 62.25 L2.8 61.95 2.5 61.95 Q0.95 61.95 -0.3 60.75 -1.2 59.8 -1.2 58.3 -1.2 56.75 -0.3 55.55 0.95 54.6 2.15 54.6 1.25 53.7 1.25 52.5 1.25 51.25 2.5 50.35 3.7 48.8 5.25 48.8 6.45 48.8 7.65 50.35 8.0 50.65 8.3 50.65 7.65 50.05 7.65 48.8 7.65 47.6 8.9 46.65 9.8 45.45 11.05 45.45 10.75 44.55 10.75 43.9 10.75 42.4 11.65 41.15 12.55 40.25 14.1 40.25 15.65 40.25 16.85 41.15 L17.15 41.45 Q17.75 40.85 18.7 40.55 18.4 40.25 18.4 39.65 18.4 38.1 19.6 37.2 20.5 35.95 21.75 35.95 21.15 35.05 21.15 34.15 21.15 32.6 22.35 31.4 23.25 30.45 24.8 30.45 26.35 30.45 27.25 31.4 L28.15 32.9 28.45 32.6 Q29.4 31.4 30.9 31.4 32.15 31.4 33.35 32.3 L34.6 32.0 Q33.95 31.1 33.95 30.15 33.95 28.65 35.2 27.4 36.4 26.5 37.65 26.5 39.15 26.5 40.4 27.4 41.0 28.0 41.3 28.95 L41.6 28.65 Q42.55 27.4 44.05 27.4 45.3 27.4 45.9 28.0 L45.9 27.7 Q45.9 26.2 47.1 25.25 48.35 24.05 49.85 24.05 51.1 24.05 52.0 25.25 52.95 25.9 53.25 26.8 L53.55 26.5 Q54.45 25.6 56.0 25.6 57.5 25.6 58.45 26.5 59.65 27.4 59.65 28.95 59.65 29.85 59.05 30.75 60.25 29.85 61.2 29.85 60.6 28.95 60.6 27.7 60.6 26.2 61.8 25.25 62.7 24.05 64.25 24.05 65.8 24.05 66.7 25.25 L67.9 26.5 68.2 26.2 Q69.15 25.25 70.65 25.25 71.9 25.25 73.1 26.2 74.35 27.4 74.35 28.95 75.25 28.95 76.15 29.85 76.8 30.75 76.8 31.4 L77.1 31.1 Q78.3 29.85 79.85 29.85 81.35 29.85 82.3 31.1 83.2 32.3 83.2 33.55 83.2 35.05 82.3 36.3 L82.0 36.6" fill="#ff3366" fill-rule="evenodd" stroke="none"/>
    <path d="M82.0 36.6 L82.6 37.2 Q83.5 38.1 83.5 39.65 83.5 41.15 82.6 42.4 81.7 43.3 80.15 43.3 L78.3 43.0 Q78.3 43.9 77.4 44.85 76.5 45.75 74.95 45.75 L72.8 45.45 74.05 53.1 75.55 64.7 76.5 64.4 77.4 67.75 101.25 90.1 93.6 95.6 93.6 95.9 93.3 96.2 92.1 97.1 91.75 96.8 Q86.55 100.15 80.75 103.25 L76.8 95.0 78.3 104.15 68.55 108.1 66.4 108.75 66.4 108.45 Q61.5 109.95 56.9 110.55 L56.0 99.55 56.0 110.9 55.4 110.9 48.65 111.5 42.25 111.5 41.9 112.1 Q40.7 111.5 40.1 111.8 L37.05 111.5 37.05 111.8 34.9 111.5 34.6 111.5 Q34.3 111.2 34.3 111.5 33.65 111.2 33.65 111.5 L32.15 111.2 24.5 109.65 24.5 109.95 Q23.6 109.35 22.65 109.35 21.45 108.75 20.5 108.75 L20.5 108.45 Q19.9 108.1 19.6 108.1 L15.65 106.6 16.85 101.1 14.7 106.3 Q13.8 105.7 12.85 105.7 12.55 105.05 12.25 105.05 L12.25 105.35 Q11.35 104.75 11.05 105.05 L11.35 104.75 11.05 104.75 5.85 102.0 5.85 102.3 Q4.9 101.7 4.6 101.7 L4.9 101.7 4.6 101.4 2.5 99.85 Q2.15 99.85 2.5 100.15 1.25 99.55 0.65 98.95 L0.05 98.65 0.05 98.35 -0.3 98.35 15.0 74.2 15.3 70.8 17.45 71.15 18.05 66.85 Q15.65 65.65 14.1 63.5 L13.5 62.9 Q12.55 63.5 11.65 63.5 L10.1 63.2 9.2 65.0 Q8.0 66.25 6.45 66.25 4.9 66.25 4.0 65.0 2.8 63.8 2.8 62.25 L2.8 61.95 2.5 61.95 Q0.95 61.95 -0.3 60.75 -1.2 59.8 -1.2 58.3 -1.2 56.75 -0.3 55.55 0.95 54.6 2.15 54.6 1.25 53.7 1.25 52.5 1.25 51.25 2.5 50.35 3.7 48.8 5.25 48.8 6.45 48.8 7.65 50.35 8.0 50.65 8.3 50.65 7.65 50.05 7.65 48.8 7.65 47.6 8.9 46.65 9.8 45.45 11.05 45.45 10.75 44.55 10.75 43.9 10.75 42.4 11.65 41.15 12.55 40.25 14.1 40.25 15.65 40.25 16.85 41.15 L17.15 41.45 Q17.75 40.85 18.7 40.55 18.4 40.25 18.4 39.65 18.4 38.1 19.6 37.2 20.5 35.95 21.75 35.95 21.15 35.05 21.15 34.15 21.15 32.6 22.35 31.4 23.25 30.45 24.8 30.45 26.35 30.45 27.25 31.4 L28.15 32.9 28.45 32.6 Q29.4 31.4 30.9 31.4 32.15 31.4 33.35 32.3 L34.6 32.0 Q33.95 31.1 33.95 30.15 33.95 28.65 35.2 27.4 36.4 26.5 37.65 26.5 39.15 26.5 40.4 27.4 41.0 28.0 41.3 28.95 L41.6 28.65 Q42.55 27.4 44.05 27.4 45.3 27.4 45.9 28.0 L45.9 27.7 Q45.9 26.2 47.1 25.25 48.35 24.05 49.85 24.05 51.1 24.05 52.0 25.25 52.95 25.9 53.25 26.8 L53.55 26.5 Q54.45 25.6 56.0 25.6 57.5 25.6 58.45 26.5 59.65 27.4 59.65 28.95 59.65 29.85 59.05 30.75 60.25 29.85 61.2 29.85 60.6 28.95 60.6 27.7 60.6 26.2 61.8 25.25 62.7 24.05 64.25 24.05 65.8 24.05 66.7 25.25 L67.9 26.5 68.2 26.2 Q69.15 25.25 70.65 25.25 71.9 25.25 73.1 26.2 74.35 27.4 74.35 28.95 75.25 28.95 76.15 29.85 76.8 30.75 76.8 31.4 L77.1 31.1 Q78.3 29.85 79.85 29.85 81.35 29.85 82.3 31.1 83.2 32.3 83.2 33.55 83.2 35.05 82.3 36.3 L82.0 36.6 Z" fill="none" stroke="#830645" stroke-linecap="round" stroke-linejoin="round" stroke-width="6.0"/>
    <path d="M21.55 43.6 L22.75 35.35 71.7 35.65 72.6 43.3 Q48.45 54.3 21.55 43.6" fill="#a2a2a2" fill-rule="evenodd" stroke="none"/>
    <path d="M21.55 43.6 Q48.45 54.3 72.6 43.3 L77.8 78.45 74.15 79.4 71.4 80.0 71.1 80.0 62.8 81.55 53.95 82.15 Q43.55 82.45 32.55 81.55 L28.55 80.9 25.8 80.3 24.0 80.0 20.6 79.7 16.35 78.8 21.55 43.6" fill="#c8c8c8" fill-rule="evenodd" stroke="none"/>
    <path d="M88.8 84.9 L82.4 79.7 85.15 84.3 Q83.9 83.35 83.0 82.15 L79.95 78.15 Q77.2 75.1 76.9 74.2 L81.8 78.8 75.65 69.9 82.1 77.25 Q85.45 81.55 88.8 84.9 M81.8 93.75 Q80.55 92.25 79.35 91.95 L81.45 95.6 81.45 96.2 78.4 92.85 77.2 91.3 Q76.6 90.1 76.6 89.5 L75.95 87.95 73.2 82.75 73.2 82.45 Q75.65 87.35 78.1 89.8 L72.6 77.55 Q75.05 81.55 76.25 84.6 L79.7 90.05 79.65 89.8 Q78.7 88.55 79.05 87.95 81.8 93.15 83.9 95.9 L81.8 93.75" fill="#a60c49" fill-rule="evenodd" stroke="none"/>
    <path d="M88.8 84.9 Q85.45 81.55 82.1 77.25 L75.65 69.9 81.8 78.8 76.9 74.2 Q77.2 75.1 79.95 78.15 L83.0 82.15 Q83.9 83.35 85.15 84.3 L82.4 79.7 88.8 84.9 M89.1 93.15 L88.5 91.95 76.9 78.15 75.65 78.45 86.65 93.15 84.55 95.9 78.7 98.35 76.9 94.7 76.6 98.05 71.1 99.55 68.65 92.25 70.15 91.3 68.95 89.8 63.75 77.85 54.85 81.2 53.65 98.95 57.0 98.35 57.95 91.0 58.25 96.8 61.6 96.5 61.3 90.7 62.8 96.5 67.1 93.15 65.25 86.75 67.7 92.55 67.7 92.25 70.45 101.7 Q68.65 101.7 66.8 102.95 L65.55 98.05 65.9 102.95 56.7 104.15 56.1 99.25 56.1 104.45 49.35 105.05 48.45 105.05 41.1 104.45 41.1 102.95 40.8 104.45 37.15 104.45 36.85 99.55 36.85 97.45 36.2 104.15 35.9 104.15 Q35.0 103.55 34.05 103.85 27.35 102.95 22.15 101.4 L22.15 99.55 21.85 101.4 Q21.55 100.8 21.55 101.4 17.25 99.55 13.9 98.35 L14.2 96.2 12.95 97.45 9.3 95.6 12.05 89.5 12.35 88.25 7.75 93.75 6.25 93.15 13.3 80.0 13.6 80.0 13.6 80.9 13.3 80.9 Q12.65 82.15 12.95 82.75 12.95 81.85 13.6 81.55 14.2 78.8 16.95 74.5 L15.4 74.2 0.15 98.05 -0.2 98.05 15.1 73.9 Q15.75 73.6 16.95 74.2 L19.1 74.5 20.9 74.8 22.15 74.8 23.7 74.8 26.45 75.1 30.4 75.4 51.8 74.2 61.0 72.35 Q62.2 71.75 64.65 71.75 66.5 76.65 71.1 84.0 L71.1 83.65 Q70.75 82.15 70.15 78.15 L67.7 71.45 Q68.65 73.3 69.85 74.8 L71.1 77.25 Q70.15 73.3 70.45 71.75 L70.15 69.9 70.45 69.9 Q71.7 69.3 73.2 69.0 73.2 68.7 73.5 69.0 74.75 68.4 76.6 68.1 L94.95 86.4 Q93.1 89.15 90.35 91.0 L86.65 86.1 90.05 92.55 Q89.4 92.55 89.1 93.15 M70.45 69.9 L71.1 71.15 72.0 72.95 72.9 75.4 73.2 75.4 Q72.9 73.9 73.2 72.05 73.2 69.9 73.5 69.3 L70.45 69.9 M64.65 71.75 Q62.5 72.05 61.3 72.65 L63.75 76.65 Q65.25 80.0 66.5 81.55 L66.8 81.55 66.5 80.3 64.65 71.75 M19.1 97.1 L19.4 98.05 Q20.0 97.75 20.9 98.95 21.55 99.55 22.15 99.55 L22.45 99.55 Q23.35 99.25 24.0 100.2 L25.5 101.1 26.45 95.3 26.45 96.8 25.8 100.8 26.45 101.4 29.8 101.1 30.7 98.65 30.7 99.85 Q32.25 98.35 33.15 98.65 32.25 96.2 33.45 87.65 33.15 87.35 33.45 87.35 33.45 86.75 33.75 86.75 L28.85 86.1 25.5 85.5 27.35 78.45 26.75 85.5 30.4 75.7 26.45 75.4 25.2 85.5 Q24.6 85.2 24.6 85.5 L24.6 85.8 Q23.35 87.65 22.15 91.6 L19.1 97.1 M38.35 91.3 Q37.15 96.8 36.85 99.55 37.15 99.85 37.15 100.5 37.75 100.2 40.5 101.4 L40.5 100.8 Q40.2 98.05 40.5 95.6 40.2 94.35 40.5 93.45 L40.5 92.85 40.5 90.4 40.8 93.45 40.8 100.2 40.8 101.1 Q41.1 100.8 43.85 102.0 43.55 101.4 43.85 101.1 L43.55 93.45 44.15 96.2 Q44.15 98.05 44.45 101.4 43.85 101.4 44.15 102.0 L44.8 102.0 Q45.4 101.4 47.85 100.8 47.55 96.2 48.15 95.0 47.55 97.1 48.75 98.35 48.75 97.75 49.65 96.8 50.3 95.6 50.9 95.9 50.3 94.7 49.65 92.55 L49.35 92.25 49.35 91.95 49.05 91.6 Q48.75 89.5 48.75 87.95 48.15 82.75 48.15 80.0 L43.55 80.6 38.95 81.55 38.95 82.75 Q38.35 85.2 38.35 90.1 L38.35 91.0 38.35 91.3 M81.8 93.75 L83.9 95.9 Q81.8 93.15 79.05 87.95 78.7 88.55 79.65 89.8 L79.7 90.05 76.25 84.6 Q75.05 81.55 72.6 77.55 L78.1 89.8 Q75.65 87.35 73.2 82.45 L73.2 82.75 75.95 87.95 76.6 89.5 Q76.6 90.1 77.2 91.3 L78.4 92.85 81.45 96.2 81.45 95.6 79.35 91.95 Q80.55 92.25 81.8 93.75 M16.95 83.05 L16.65 83.05 Q14.8 86.1 14.2 87.65 14.8 84.9 17.85 77.25 16.95 78.15 15.75 80.9 14.2 83.05 14.2 84.9 13.6 86.1 12.65 89.5 L12.65 89.8 12.65 90.4 Q12.05 91.6 12.05 92.5 12.05 91.9 12.65 91.0 12.95 89.8 13.6 89.8 13.3 90.1 13.3 91.0 L12.65 96.2 Q16.35 83.65 16.95 83.05 M22.15 75.1 L17.25 95.3 24.0 75.1 Q22.75 74.8 22.15 75.1 M24.3 93.15 L24.0 94.05 23.05 98.05 Q22.75 98.05 23.05 98.65 L22.45 99.55 Q22.45 96.8 24.3 93.15" fill="url(#gradient0)" fill-rule="evenodd" stroke="none"/>
    <path d="M90.05 92.55 L86.65 86.1 90.35 91.0 90.95 91.95 93.7 95.6 93.4 95.9 92.2 96.8 91.85 96.5 90.05 92.55 M36.2 104.15 L36.85 97.45 36.85 99.55 37.15 104.45 37.15 111.2 37.15 111.5 35.0 111.2 36.2 104.15 M40.8 104.45 L41.1 102.95 41.1 104.45 42.35 111.2 42.0 111.8 Q40.8 111.2 40.2 111.5 L40.8 104.45 M65.9 102.95 L65.55 98.05 66.8 102.95 68.65 107.8 66.5 108.45 66.5 108.15 65.9 102.95" fill="url(#gradient1)" fill-rule="evenodd" stroke="none"/>
    <path d="M90.35 91.0 Q93.1 89.15 94.95 86.4 L76.6 68.1 77.5 67.45 98.0 86.75 Q94.3 89.15 90.95 91.95 L90.35 91.0" fill="url(#gradient2)" fill-rule="evenodd" stroke="none"/>
    <path d="M84.55 95.9 L86.65 93.15 75.65 78.45 76.9 78.15 88.5 91.95 89.1 93.15 84.55 95.9" fill="url(#gradient3)" fill-rule="evenodd" stroke="none"/>
    <path d="M89.1 93.15 Q89.4 92.55 90.05 92.55 L91.85 96.5 80.85 102.95 78.7 98.35 84.55 95.9 89.1 93.15 M13.9 98.35 Q17.25 99.55 21.55 101.4 L19.7 107.8 15.75 106.3 16.95 100.8 14.5 106.0 Q13.9 105.4 12.95 105.4 L12.35 104.75 13.9 98.35 M22.15 101.4 Q27.35 102.95 34.05 103.85 L32.25 110.9 24.6 109.35 24.0 104.45 22.75 108.75 22.15 101.4 M37.15 104.45 L40.8 104.45 40.2 111.5 37.15 111.2 37.15 104.45 M41.1 104.45 L48.45 105.05 49.35 105.05 56.1 104.45 56.1 110.6 55.5 110.6 48.75 111.2 42.35 111.2 41.1 104.45 M56.7 104.15 L65.9 102.95 66.5 108.15 Q61.6 109.65 57.0 110.25 L56.7 104.15 M66.8 102.95 Q68.65 101.7 70.45 101.7 L75.95 99.55 77.8 99.25 78.4 103.85 Q73.5 106.0 68.65 107.8 L66.8 102.95 M98.0 86.75 L101.05 89.8 93.7 95.3 93.7 95.6 90.95 91.95 Q94.3 89.15 98.0 86.75 M2.6 99.55 Q2.6 98.05 4.1 95.6 4.1 94.7 4.4 93.75 L5.0 91.0 5.35 91.0 Q5.0 91.3 4.7 94.05 4.4 94.65 4.4 95.75 4.45 94.7 5.0 94.35 L7.75 96.2 5.0 101.4 4.7 101.1 2.6 99.55 M8.7 96.2 L12.95 98.05 13.6 98.35 11.45 104.45 11.15 104.45 5.95 101.7 8.7 96.2" fill="url(#gradient4)" fill-rule="evenodd" stroke="none"/>
    <path d="M76.6 68.1 Q74.75 68.4 73.5 69.0 73.2 68.7 73.2 69.0 71.7 69.3 70.45 69.9 L70.15 69.9 64.65 71.75 Q62.2 71.75 61.0 72.35 L51.8 74.2 30.4 75.4 26.45 75.1 23.7 74.8 22.15 74.8 20.9 74.8 19.1 74.5 16.95 74.2 Q15.75 73.6 15.1 73.9 L15.4 70.5 Q43.85 74.5 76.6 64.1 L77.5 67.45 76.6 68.1" fill="url(#gradient5)" fill-rule="evenodd" stroke="none"/>
    <path d="M0.15 98.05 L15.4 74.2 16.95 74.5 Q14.2 78.8 13.6 81.55 12.95 81.85 12.95 82.75 12.65 82.15 13.3 80.9 L13.6 80.9 13.6 80.0 13.3 80.0 Q12.05 81.55 9.0 87.05 5.95 91.0 5.0 94.35 4.45 94.7 4.4 95.75 4.4 94.65 4.7 94.05 5.0 91.3 5.35 91.0 L5.0 91.0 4.4 93.75 Q4.1 94.7 4.1 95.6 2.6 98.05 2.6 99.55 2.25 99.55 2.6 99.85 1.35 99.25 0.75 98.65 L0.15 98.35 0.15 98.05" fill="url(#gradient6)" fill-rule="evenodd" stroke="none"/>
    <path d="M25.2 85.5 L26.45 75.4 30.4 75.7 26.75 85.5 27.35 78.45 25.5 85.5 25.2 85.5 M16.95 83.05 Q16.35 83.65 12.65 96.2 L13.3 91.0 Q13.3 90.1 13.6 89.8 12.95 89.8 12.65 91.0 12.05 91.9 12.05 92.5 12.05 91.6 12.65 90.4 L12.65 89.8 12.65 89.5 Q13.6 86.1 14.2 84.9 14.2 83.05 15.75 80.9 16.95 78.15 17.85 77.25 14.8 84.9 14.2 87.65 14.8 86.1 16.65 83.05 L16.95 83.05 M22.15 75.1 Q22.75 74.8 24.0 75.1 L17.25 95.3 22.15 75.1" fill="#de2e75" fill-rule="evenodd" stroke="none"/>
    <path d="M13.3 80.0 L6.25 93.15 7.75 93.75 12.35 88.25 7.75 96.2 5.0 94.35 Q5.95 91.0 9.0 87.05 12.05 81.55 13.3 80.0 M12.05 89.5 L9.3 95.6 12.95 97.45 14.2 96.2 13.6 98.35 12.95 98.05 8.7 96.2 12.05 89.5" fill="url(#gradient7)" fill-rule="evenodd" stroke="none"/>
    <path d="M12.35 88.25 L12.05 89.5 8.7 96.2 5.95 101.7 5.95 102.0 4.7 101.4 5.0 101.4 7.75 96.2 12.35 88.25" fill="#bf2361" fill-rule="evenodd" stroke="none"/>
    <path d="M14.2 96.2 L13.9 98.35 12.35 104.75 12.35 105.05 Q11.45 104.45 11.15 104.75 L11.45 104.45 13.6 98.35 14.2 96.2" fill="#f579aa" fill-rule="evenodd" stroke="none"/>
    <path d="M22.15 99.55 Q21.55 99.55 20.9 98.95 20.0 97.75 19.4 98.05 L19.1 97.1 Q20.6 97.1 22.15 98.95 22.45 96.8 23.05 95.3 23.7 93.15 24.3 91.95 L24.3 93.15 Q22.45 96.8 22.45 99.55 L23.05 98.65 Q23.7 98.35 25.2 100.2 25.2 98.95 25.8 96.5 25.8 95.65 26.05 94.95 L26.1 94.75 Q26.35 94.15 26.75 93.75 L26.75 94.7 26.45 94.7 26.45 95.3 25.5 101.1 24.0 100.2 Q23.35 99.25 22.45 99.55 L22.15 99.55 M33.45 87.65 Q32.25 96.2 33.15 98.65 32.25 98.35 30.7 99.85 L30.7 98.65 29.8 101.1 26.45 101.4 25.8 100.8 26.75 100.5 29.2 100.2 30.4 94.7 30.7 98.65 31.0 98.05 Q31.65 97.75 32.25 98.05 L32.25 96.5 32.25 94.7 Q32.55 89.8 33.45 87.65 M49.35 92.25 L49.65 92.55 Q50.3 94.7 50.9 95.9 50.3 95.6 49.65 96.8 48.75 97.75 48.75 98.35 47.55 97.1 48.15 95.0 47.55 96.2 47.85 100.8 45.4 101.4 44.8 102.0 L44.15 102.0 Q43.85 101.4 44.45 101.4 L45.4 101.4 Q45.4 101.1 47.55 100.2 L47.2 91.6 48.15 95.0 48.75 96.8 Q48.75 96.5 49.05 96.2 49.35 95.6 50.3 95.6 L49.65 93.75 Q49.35 92.85 49.35 92.25 M43.55 93.45 L43.85 101.1 Q43.55 101.4 43.85 102.0 41.1 100.8 40.8 101.1 L40.8 100.2 Q41.7 99.55 43.85 101.1 43.25 99.55 43.55 96.2 43.25 94.35 43.55 92.85 L43.55 93.45 M40.5 100.8 L40.5 101.4 Q37.75 100.2 37.15 100.5 37.15 99.85 36.85 99.55 38.05 99.25 40.5 100.8" fill="#be1c5d" fill-rule="evenodd" stroke="none"/>
    <path d="M38.35 91.3 L38.35 91.0 38.35 90.1 Q38.35 85.2 38.95 82.75 L38.95 81.55 43.55 80.6 48.15 80.0 Q48.15 82.75 48.75 87.95 48.75 89.5 49.05 91.6 L49.35 91.95 49.35 92.25 Q49.35 92.85 49.65 93.75 L48.75 95.3 46.6 88.85 46.9 98.65 45.4 99.55 Q44.45 93.15 42.95 87.95 L42.95 98.65 41.7 97.75 40.5 87.35 39.25 98.05 37.75 97.75 38.35 91.3" fill="url(#gradient8)" fill-rule="evenodd" stroke="none"/>
    <path d="M24.6 85.8 L24.6 85.5 Q24.6 85.2 25.2 85.5 L25.5 85.5 28.85 86.1 33.75 86.75 Q33.45 86.75 33.45 87.35 33.15 87.35 33.45 87.65 32.55 89.8 32.25 94.7 L32.25 96.5 31.0 97.1 30.4 92.55 28.55 99.25 26.75 99.55 Q27.35 94.7 27.35 91.3 L26.1 94.75 26.05 94.95 24.9 98.05 24.0 97.1 24.9 89.8 21.85 96.8 20.6 96.2 24.6 85.8" fill="url(#gradient9)" fill-rule="evenodd" stroke="none"/>
    <path d="M19.1 97.1 L22.15 91.6 Q23.35 87.65 24.6 85.8 L20.6 96.2 21.85 96.8 24.9 89.8 24.0 97.1 24.9 98.05 26.05 94.95 Q25.8 95.65 25.8 96.5 25.2 98.95 25.2 100.2 23.7 98.35 23.05 98.65 22.75 98.05 23.05 98.05 L24.0 94.05 24.3 93.15 24.3 91.95 Q23.7 93.15 23.05 95.3 22.45 96.8 22.15 98.95 20.6 97.1 19.1 97.1 M25.8 100.8 L26.45 96.8 26.45 95.3 26.45 94.7 26.75 94.7 26.75 93.75 Q26.35 94.15 26.1 94.75 L27.35 91.3 Q27.35 94.7 26.75 99.55 L28.55 99.25 30.4 92.55 31.0 97.1 32.25 96.5 32.25 98.05 Q31.65 97.75 31.0 98.05 L30.7 98.65 30.4 94.7 29.2 100.2 26.75 100.5 25.8 100.8" fill="url(#gradient10)" fill-rule="evenodd" stroke="none"/>
    <path d="M36.85 99.55 Q37.15 96.8 38.35 91.3 L37.75 97.75 39.25 98.05 40.5 87.35 41.7 97.75 42.95 98.65 42.95 87.95 Q44.45 93.15 45.4 99.55 L46.9 98.65 46.6 88.85 48.75 95.3 49.65 93.75 50.3 95.6 Q49.35 95.6 49.05 96.2 48.75 96.5 48.75 96.8 L48.15 95.0 47.2 91.6 47.55 100.2 Q45.4 101.1 45.4 101.4 L44.45 101.4 Q44.15 98.05 44.15 96.2 L43.55 93.45 43.55 92.85 Q43.25 94.35 43.55 96.2 43.25 99.55 43.85 101.1 41.7 99.55 40.8 100.2 L40.8 93.45 40.5 90.4 40.5 92.85 40.5 93.45 Q40.2 94.35 40.5 95.6 40.2 98.05 40.5 100.8 38.05 99.25 36.85 99.55" fill="url(#gradient11)" fill-rule="evenodd" stroke="none"/>
    <path d="M70.15 69.9 L70.45 71.75 Q70.15 73.3 71.1 77.25 L69.85 74.8 Q68.65 73.3 67.7 71.45 L70.15 78.15 Q70.75 82.15 71.1 83.65 L71.1 84.0 Q66.5 76.65 64.65 71.75 L70.15 69.9" fill="url(#gradient12)" fill-rule="evenodd" stroke="none"/>
    <path d="M64.65 71.75 L66.5 80.3 66.8 81.55 66.5 81.55 Q65.25 80.0 63.75 76.65 L61.3 72.65 Q62.5 72.05 64.65 71.75" fill="url(#gradient13)" fill-rule="evenodd" stroke="none"/>
    <path d="M70.45 69.9 L73.5 69.3 Q73.2 69.9 73.2 72.05 72.9 73.9 73.2 75.4 L72.9 75.4 72.0 72.95 71.1 71.15 70.45 69.9" fill="url(#gradient14)" fill-rule="evenodd" stroke="none"/>
    <path d="M54.85 81.2 L63.75 77.85 68.95 89.8 67.7 90.1 67.7 90.4 63.75 82.75 65.55 92.55 62.8 94.7 60.7 86.1 60.7 95.0 58.55 94.7 58.25 87.95 56.4 96.2 54.55 96.5 54.85 81.2" fill="url(#gradient15)" fill-rule="evenodd" stroke="none"/>
    <path d="M67.7 92.25 L67.7 92.55 65.25 86.75 67.1 93.15 62.8 96.5 61.3 90.7 61.6 96.5 58.25 96.8 57.95 91.0 57.0 98.35 53.65 98.95 54.85 81.2 54.55 96.5 56.4 96.2 58.25 87.95 58.55 94.7 60.7 95.0 60.7 86.1 62.8 94.7 65.55 92.55 63.75 82.75 67.7 90.4 67.7 90.1 68.95 89.8 70.15 91.3 68.65 92.25 67.7 92.25" fill="url(#gradient16)" fill-rule="evenodd" stroke="none"/>
    <path d="M70.45 101.7 L67.7 92.25 68.65 92.25 71.1 99.55 76.6 98.05 76.9 94.7 77.8 99.25 75.95 99.55 70.45 101.7" fill="url(#gradient17)" fill-rule="evenodd" stroke="none"/>
    <path d="M21.55 101.4 Q21.55 100.8 21.85 101.4 L20.6 108.15 Q20.0 107.8 19.7 107.8 L21.55 101.4" fill="url(#gradient18)" fill-rule="evenodd" stroke="none"/>
    <path d="M21.85 101.4 L22.15 99.55 22.15 101.4 22.75 108.75 24.0 104.45 24.6 109.35 24.6 109.65 Q23.7 109.05 22.75 109.05 21.55 108.45 20.6 108.45 L20.6 108.15 21.85 101.4" fill="url(#gradient19)" fill-rule="evenodd" stroke="none"/>
    <path d="M21.25 66.55 L22.45 66.55 Q24.3 66.85 25.8 65.65 27.05 65.0 27.65 64.7 28.85 63.8 28.25 62.6 L28.85 63.5 Q30.4 62.25 31.0 60.15 L32.25 55.85 31.95 55.85 31.65 56.15 32.25 55.25 32.25 54.95 32.25 54.3 32.25 53.7 32.25 53.1 32.25 52.2 32.25 51.55 32.25 49.45 Q31.65 47.0 31.0 47.0 L29.5 47.6 Q30.1 47.0 30.7 47.0 L30.7 46.7 Q28.85 47.0 28.3 47.6 L29.5 46.05 29.5 45.75 28.85 46.35 28.55 46.7 28.85 45.45 28.85 44.85 Q28.85 43.3 27.05 42.1 24.6 41.15 24.3 40.85 L24.3 42.4 24.0 41.15 Q24.0 40.55 23.05 40.55 20.9 40.55 19.1 41.5 16.05 42.1 16.05 43.3 L15.75 43.0 16.05 44.55 16.05 44.85 15.1 43.6 14.8 43.6 Q14.2 43.95 12.95 46.05 12.35 47.0 12.05 47.9 L12.05 47.3 Q12.05 47.0 12.35 47.0 L12.35 46.35 Q12.95 45.15 14.2 43.6 17.25 39.95 22.15 39.95 26.45 39.95 29.8 43.6 29.8 43.95 30.1 44.25 31.3 45.75 32.25 47.9 32.55 48.5 32.85 50.35 L32.85 51.55 33.15 51.55 33.15 53.4 33.15 53.7 32.85 53.7 33.15 54.65 33.15 55.0 32.85 55.85 32.55 56.75 32.85 56.75 32.25 58.6 32.25 58.9 32.25 59.5 31.95 59.8 29.8 63.5 Q26.45 67.15 22.15 67.15 17.25 67.15 14.2 63.2 12.65 61.65 12.05 59.8 11.15 58.0 10.85 55.55 L10.85 54.0 10.85 53.1 10.85 51.55 10.85 50.95 Q10.85 50.35 11.15 49.75 11.15 49.1 11.45 48.8 11.45 48.5 12.05 47.9 L11.75 48.5 12.05 48.5 Q12.65 49.1 12.65 49.45 11.45 49.75 11.75 54.3 L11.75 56.15 Q11.75 56.75 12.65 57.05 12.35 57.7 12.35 58.3 12.35 60.15 14.2 62.25 15.75 65.0 16.65 65.0 L17.55 64.7 17.55 65.35 20.3 66.55 20.9 66.55 21.25 66.55" fill="#5b2b0c" fill-rule="evenodd" stroke="none"/>
    <path d="M15.1 43.6 L16.05 44.85 16.05 44.55 15.75 43.0 16.05 43.3 Q16.05 42.1 19.1 41.5 20.9 40.55 23.05 40.55 24.0 40.55 24.0 41.15 L24.3 42.4 24.3 40.85 Q24.6 41.15 27.05 42.1 28.85 43.3 28.85 44.85 L28.85 45.45 28.55 46.7 28.85 46.35 29.5 45.75 29.5 46.05 28.3 47.6 Q28.85 47.0 30.7 46.7 L30.7 47.0 Q30.1 47.0 29.5 47.6 L31.0 47.0 Q31.65 47.0 32.25 49.45 L32.25 51.55 32.25 52.2 32.25 53.1 32.25 53.7 32.25 54.3 32.25 54.95 32.25 55.25 31.65 56.15 31.95 55.85 32.25 55.85 31.0 60.15 Q30.4 62.25 28.85 63.5 L28.25 62.6 Q28.85 63.8 27.65 64.7 27.05 65.0 25.8 65.65 24.3 66.85 22.45 66.55 L21.25 66.55 21.55 65.95 Q21.55 65.65 22.15 65.65 L23.35 65.95 24.3 65.65 25.2 65.0 25.2 64.7 24.3 65.0 24.0 65.35 Q23.05 65.35 22.75 65.0 L22.45 65.0 21.55 65.0 Q21.25 65.35 21.25 65.65 L20.9 65.0 20.3 65.65 19.4 65.35 19.1 65.0 Q19.4 66.25 20.3 66.25 L20.6 65.95 Q21.25 65.95 20.9 66.55 L20.3 66.55 17.55 65.35 17.55 64.7 16.65 65.0 Q15.75 65.0 14.2 62.25 12.35 60.15 12.35 58.3 12.35 57.7 12.65 57.05 11.75 56.75 11.75 56.15 L11.75 54.3 Q11.45 49.75 12.65 49.45 12.65 49.1 12.05 48.5 L11.75 48.5 12.05 47.9 Q11.45 48.5 11.45 48.8 11.45 48.2 12.05 47.3 L12.05 47.9 Q12.35 47.0 12.95 46.05 14.2 43.95 14.8 43.6 14.5 43.95 14.5 44.55 L14.2 45.15 13.6 46.7 13.9 47.6 14.5 45.45 15.1 44.25 15.1 43.6 M20.6 47.9 Q19.1 43.6 18.5 43.6 17.55 43.6 15.75 45.45 14.2 47.6 13.6 49.1 13.9 49.1 14.5 49.45 L15.1 49.75 15.4 49.75 15.4 50.05 14.2 50.35 Q13.6 50.35 13.3 50.95 L13.6 50.95 15.1 51.25 Q14.8 51.25 14.8 51.55 14.5 51.55 14.5 51.85 L13.9 51.85 13.3 51.85 Q12.35 55.25 14.2 58.6 L15.1 58.6 Q15.4 58.3 16.05 58.3 L17.5 58.0 17.55 58.0 16.95 58.6 16.35 59.5 15.75 60.15 15.75 60.45 Q15.75 62.25 18.15 63.5 20.0 64.4 22.15 64.4 25.5 64.4 27.35 61.95 28.55 61.05 28.85 60.15 L29.2 59.8 30.1 56.75 Q30.4 53.4 30.1 52.8 L30.1 52.5 27.65 51.55 27.95 51.55 28.85 51.25 Q29.2 50.95 29.5 50.95 30.1 50.05 28.85 47.3 27.95 48.5 26.75 49.1 26.75 48.8 27.05 48.55 L27.05 48.5 27.35 47.9 27.65 47.6 27.95 45.75 27.65 44.85 Q27.05 44.25 25.8 43.6 23.05 42.4 20.6 43.3 L20.6 43.95 20.6 45.25 20.6 47.9 M30.4 50.05 Q30.7 50.35 30.7 51.25 L30.1 51.55 Q30.7 51.55 31.0 52.5 L31.3 54.3 31.0 54.95 31.0 55.25 31.3 55.85 Q31.3 55.25 31.95 55.25 L31.95 53.1 Q31.95 51.55 31.0 51.25 30.7 51.25 30.7 50.05 L30.4 49.75 30.4 50.05 M12.05 52.2 L11.75 53.4 12.65 54.95 12.65 53.4 Q12.35 53.1 12.35 52.8 L12.65 51.85 Q12.65 51.55 12.95 51.25 L12.65 50.65 12.35 52.2 12.05 52.2" fill="#743f1d" fill-rule="evenodd" stroke="none"/>
    <path d="M14.8 43.6 L15.1 43.6 15.1 44.25 14.5 45.45 13.9 47.6 13.6 46.7 14.2 45.15 14.5 44.55 Q14.5 43.95 14.8 43.6 M12.05 52.2 L12.35 52.2 12.65 50.65 12.95 51.25 Q12.65 51.55 12.65 51.85 L12.35 52.8 Q12.35 53.1 12.65 53.4 L12.65 54.95 11.75 53.4 12.05 52.2" fill="#6b3716" fill-rule="evenodd" stroke="none"/>
    <path d="M15.1 49.75 L14.5 49.45 Q13.9 49.1 13.6 49.1 14.2 47.6 15.75 45.45 17.55 43.6 18.5 43.6 19.1 43.6 20.6 47.9 L20.3 48.5 19.7 46.35 Q19.1 44.85 18.8 44.85 18.5 44.85 18.5 45.15 L18.15 45.15 17.85 44.85 16.65 45.45 Q15.75 46.35 15.75 47.0 15.75 47.9 16.35 48.8 L15.75 48.5 15.1 47.9 15.1 48.2 15.4 48.5 14.2 48.5 Q14.2 49.1 14.8 49.45 L15.1 49.75 M20.6 47.9 L20.6 45.25 20.9 46.7 20.6 47.9 M20.6 43.95 L20.6 43.3 Q23.05 42.4 25.8 43.6 27.05 44.25 27.65 44.85 L27.95 45.75 27.65 47.6 27.35 47.9 27.05 48.5 27.05 48.55 26.1 49.45 Q26.1 48.5 26.75 47.9 L27.35 47.0 Q27.05 47.0 26.75 47.6 L27.35 45.75 27.35 45.15 27.05 45.15 27.35 44.85 Q27.05 44.85 26.75 45.15 26.1 45.75 26.1 46.05 L26.1 45.45 25.8 45.45 25.8 44.85 25.2 45.45 Q25.5 44.25 24.3 43.95 L22.15 43.6 21.85 43.6 21.25 44.25 21.25 43.95 20.6 43.95" fill="#8c4e27" fill-rule="evenodd" stroke="none"/>
    <path d="M15.1 49.75 L14.8 49.45 Q14.2 49.1 14.2 48.5 L15.4 48.5 15.1 48.2 15.1 47.9 15.75 48.5 16.35 48.8 Q15.75 47.9 15.75 47.0 15.75 46.35 16.65 45.45 L17.85 44.85 18.15 45.15 18.5 45.15 Q18.5 44.85 18.8 44.85 19.1 44.85 19.7 46.35 L20.3 48.5 20.6 47.9 20.9 46.7 20.6 45.25 20.6 43.95 21.25 43.95 21.25 44.25 21.85 43.6 22.15 43.6 24.3 43.95 Q25.5 44.25 25.2 45.45 L25.8 44.85 25.8 45.45 26.1 45.45 26.1 46.05 Q26.1 45.75 26.75 45.15 27.05 44.85 27.35 44.85 L27.05 45.15 27.35 45.15 27.35 45.75 26.75 47.6 Q27.05 47.0 27.35 47.0 L26.75 47.9 Q26.1 48.5 26.1 49.45 L27.05 48.55 Q26.75 48.8 26.75 49.1 27.95 48.5 28.85 47.3 30.1 50.05 29.5 50.95 29.2 50.95 28.85 51.25 L27.95 51.55 27.65 51.55 30.1 52.5 30.1 52.8 Q30.4 53.4 30.1 56.75 L29.2 59.8 28.85 60.15 26.45 62.6 26.1 61.65 25.8 61.65 Q26.45 62.9 25.2 63.5 L23.05 63.8 22.45 63.5 22.15 62.6 22.15 62.9 22.45 63.8 20.3 63.5 Q19.4 63.5 19.4 62.9 L19.1 63.2 19.1 59.8 18.5 62.9 17.25 61.65 Q16.35 61.35 16.05 60.75 L15.75 60.45 15.75 60.15 16.35 59.5 16.95 58.6 17.55 58.0 17.5 58.0 16.35 58.0 14.8 58.3 Q14.5 58.3 14.5 58.0 14.2 57.7 14.2 57.4 L14.8 56.75 Q14.2 56.75 14.2 56.45 13.9 56.15 13.9 55.55 13.9 55.25 14.5 54.95 15.1 54.65 15.4 54.65 L14.8 54.65 13.9 54.95 14.2 54.3 13.6 54.3 13.6 53.1 Q13.6 52.2 13.9 51.85 L14.5 51.85 Q14.5 51.55 14.8 51.55 14.8 51.25 15.1 51.25 L13.6 50.95 13.3 50.95 Q13.6 50.35 14.2 50.35 L15.4 50.05 15.4 49.75 15.1 49.75 M19.1 49.45 L19.4 49.1 19.4 48.8 19.1 47.6 19.1 47.0 18.5 47.0 18.5 48.5 Q18.5 48.8 18.8 48.8 19.1 48.8 19.1 49.45 M23.7 45.15 L23.35 45.15 Q23.05 45.15 23.05 45.45 L22.75 45.75 22.75 46.05 22.45 47.0 24.0 47.0 24.9 48.5 25.2 47.3 24.9 46.7 Q24.6 46.05 24.3 46.05 L23.35 46.35 23.35 46.05 23.7 45.15 M24.0 57.7 Q24.0 58.3 22.45 58.9 21.85 59.2 21.55 59.8 L21.55 60.75 Q21.55 62.6 23.7 62.6 25.2 62.25 26.75 60.45 26.75 60.15 27.05 59.8 L27.35 58.9 27.35 57.05 Q27.65 55.25 27.05 54.0 L26.45 53.4 25.8 53.4 24.9 51.25 24.3 50.35 22.45 49.75 20.6 50.35 Q19.1 51.85 19.1 53.4 19.1 54.65 19.4 55.25 19.1 55.25 19.1 55.55 18.8 56.15 18.8 56.75 L19.1 56.75 Q18.8 57.05 19.1 57.4 19.4 58.0 20.0 58.0 L20.9 57.7 22.45 58.0 Q23.35 58.3 24.0 57.7 M28.25 53.1 L27.95 53.1 27.65 52.8 27.35 52.5 Q27.35 53.1 28.85 54.65 28.55 54.95 28.55 55.25 L28.85 55.25 Q29.2 55.55 29.2 56.15 L29.5 54.0 28.55 52.8 27.65 51.85 28.25 53.1 M20.3 59.8 Q20.0 59.5 19.7 59.5 L19.7 60.45 Q19.7 60.75 20.3 60.75 L20.6 60.75 Q20.3 60.15 20.3 59.8 M18.15 51.85 L17.85 51.85 17.55 52.2 Q17.25 52.2 16.95 51.85 L16.65 51.85 Q16.35 51.85 16.05 52.5 L15.75 53.1 15.4 53.4 Q15.4 54.3 15.75 55.25 16.35 53.4 18.15 52.2 L18.15 51.85" fill="#a36f3c" fill-rule="evenodd" stroke="none"/>
    <path d="M23.7 45.15 L23.35 46.05 23.35 46.35 24.3 46.05 Q24.6 46.05 24.9 46.7 L25.2 47.3 24.9 48.5 24.0 47.0 22.45 47.0 22.75 46.05 22.75 45.75 23.05 45.45 Q23.05 45.15 23.35 45.15 L23.7 45.15 M19.1 49.45 Q19.1 48.8 18.8 48.8 18.5 48.8 18.5 48.5 L18.5 47.0 19.1 47.0 19.1 47.6 19.4 48.8 19.4 49.1 19.1 49.45 M28.25 53.1 L27.65 51.85 28.55 52.8 29.5 54.0 29.2 56.15 Q29.2 55.55 28.85 55.25 L28.55 55.25 Q28.55 54.95 28.85 54.65 27.35 53.1 27.35 52.5 L27.65 52.8 27.95 53.1 28.25 53.1 M24.3 50.35 Q24.0 51.55 24.3 52.2 L24.9 53.4 Q24.3 53.1 24.3 53.4 L24.0 54.3 24.0 51.85 Q23.05 51.25 22.75 51.25 L24.0 51.25 23.7 50.65 24.3 50.35 M20.3 59.8 Q20.3 60.15 20.6 60.75 L20.3 60.75 Q19.7 60.75 19.7 60.45 L19.7 59.5 Q20.0 59.5 20.3 59.8 M18.15 51.85 L18.15 52.2 Q16.35 53.4 15.75 55.25 15.4 54.3 15.4 53.4 L15.75 53.1 16.05 52.5 Q16.35 51.85 16.65 51.85 L16.95 51.85 Q17.25 52.2 17.55 52.2 L17.85 51.85 18.15 51.85" fill="#9c5c33" fill-rule="evenodd" stroke="none"/>
    <path d="M31.95 59.8 L32.25 59.5 32.25 58.9 Q32.55 58.6 32.85 57.4 L33.15 55.0 33.15 54.65 32.85 53.7 33.15 53.7 Q54.25 54.65 73.5 48.5 L74.15 52.8 Q55.15 58.3 43.25 59.2 L31.95 59.8 M30.4 50.05 L30.4 49.75 30.7 50.05 Q30.7 51.25 31.0 51.25 31.95 51.55 31.95 53.1 L31.95 55.25 Q31.3 55.25 31.3 55.85 L31.0 55.25 31.0 54.95 31.3 54.3 31.0 52.5 Q30.7 51.55 30.1 51.55 L30.7 51.25 Q30.7 50.35 30.4 50.05" fill="#481f04" fill-rule="evenodd" stroke="none"/>
    <path d="M25.8 53.4 L26.45 53.4 27.05 54.0 Q27.65 55.25 27.35 57.05 L27.35 58.9 27.05 59.8 Q26.75 60.15 26.75 60.45 25.2 62.25 23.7 62.6 21.55 62.6 21.55 60.75 L21.55 59.8 Q21.85 59.2 22.45 58.9 24.0 58.3 24.0 57.7 L24.3 57.4 24.9 54.95 Q24.9 53.4 25.8 53.4 M20.9 57.7 L20.0 58.0 Q19.4 58.0 19.1 57.4 18.8 57.05 19.1 56.75 L18.8 56.75 Q18.8 56.15 19.1 55.55 19.1 55.25 19.4 55.25 L19.7 55.25 Q21.25 55.25 21.25 56.75 L20.9 57.4 20.9 57.7" fill="#d7a356" fill-rule="evenodd" stroke="none"/>
    <path d="M24.0 57.7 Q23.35 58.3 22.45 58.0 L20.9 57.7 20.9 57.4 21.25 56.75 Q21.25 55.25 19.7 55.25 L19.4 55.25 Q19.1 54.65 19.1 53.4 19.1 51.85 20.6 50.35 L22.45 49.75 24.3 50.35 24.9 51.25 25.8 53.4 Q24.9 53.4 24.9 54.95 L24.3 57.4 24.0 57.7 M24.3 50.35 L23.7 50.65 24.0 51.25 22.75 51.25 Q23.05 51.25 24.0 51.85 L24.0 54.3 24.3 53.4 Q24.3 53.1 24.9 53.4 L24.3 52.2 Q24.0 51.55 24.3 50.35" fill="#ad753f" fill-rule="evenodd" stroke="none"/>
    <path d="M28.85 60.15 Q28.55 61.05 27.35 61.95 25.5 64.4 22.15 64.4 20.0 64.4 18.15 63.5 15.75 62.25 15.75 60.45 L16.05 60.75 Q16.35 61.35 17.25 61.65 L18.5 62.9 19.1 59.8 19.1 63.2 19.4 62.9 Q19.4 63.5 20.3 63.5 L22.45 63.8 22.15 62.9 22.15 62.6 22.45 63.5 23.05 63.8 25.2 63.5 Q26.45 62.9 25.8 61.65 L26.1 61.65 26.45 62.6 28.85 60.15" fill="#854e2c" fill-rule="evenodd" stroke="none"/>
    <path d="M21.25 66.55 L20.9 66.55 Q21.25 65.95 20.6 65.95 L20.3 66.25 Q19.4 66.25 19.1 65.0 L19.4 65.35 20.3 65.65 20.9 65.0 21.25 65.65 Q21.25 65.35 21.55 65.0 L22.45 65.0 22.75 65.0 Q23.05 65.35 24.0 65.35 L24.3 65.0 25.2 64.7 25.2 65.0 24.3 65.65 23.35 65.95 22.15 65.65 Q21.55 65.65 21.55 65.95 L21.25 66.55" fill="#7b4420" fill-rule="evenodd" stroke="none"/>
    <path d="M17.5 58.0 L16.05 58.3 Q15.4 58.3 15.1 58.6 L14.2 58.6 Q12.35 55.25 13.3 51.85 L13.9 51.85 Q13.6 52.2 13.6 53.1 L13.6 54.3 14.2 54.3 13.9 54.95 14.8 54.65 15.4 54.65 Q15.1 54.65 14.5 54.95 13.9 55.25 13.9 55.55 13.9 56.15 14.2 56.45 14.2 56.75 14.8 56.75 L14.2 57.4 Q14.2 57.7 14.5 58.0 14.5 58.3 14.8 58.3 L16.35 58.0 17.5 58.0" fill="#91552f" fill-rule="evenodd" stroke="none"/>
    <path d="M5.1 56.15 Q3.6 56.15 2.5 55.05 1.45 54.0 1.45 52.5 1.45 51.0 2.5 49.95 3.6 48.85 5.1 48.85 6.6 48.85 7.65 49.95 8.75 51.0 8.75 52.5 8.75 54.0 7.65 55.05 6.6 56.15 5.1 56.15" fill="#ff6dbd" fill-rule="evenodd" stroke="none"/>
    <path d="M11.25 57.65 Q9.75 57.65 8.65 56.55 7.6 55.5 7.6 54.0 7.6 52.5 8.65 51.45 9.75 50.35 11.25 50.35 12.75 50.35 13.8 51.45 14.9 52.5 14.9 54.0 14.9 55.5 13.8 56.55 12.75 57.65 11.25 57.65" fill="#ff6dbd" fill-rule="evenodd" stroke="none"/>
    <path d="M11.85 62.85 Q10.35 62.85 9.25 61.75 8.2 60.7 8.2 59.2 8.2 57.7 9.25 56.65 10.35 55.55 11.85 55.55 13.35 55.55 14.4 56.65 15.5 57.7 15.5 59.2 15.5 60.7 14.4 61.75 13.35 62.85 11.85 62.85" fill="#ff6dbd" fill-rule="evenodd" stroke="none"/>
    <path d="M13.05 54.7 Q13.05 55.6 12.4 56.3 11.8 56.9 10.8 56.9 9.85 56.9 9.2 56.3 8.6 55.6 8.6 54.7 8.6 53.75 9.2 53.1 9.85 52.45 10.8 52.45 11.8 52.45 12.4 53.1 13.05 53.75 13.05 54.7" fill="#ffb8e0" fill-rule="evenodd" stroke="none"/>
    <path d="M6.65 65.9 Q5.15 65.9 4.05 64.8 3.0 63.75 3.0 62.25 3.0 60.75 4.05 59.7 5.15 58.6 6.65 58.6 8.15 58.6 9.2 59.7 10.3 60.75 10.3 62.25 10.3 63.75 9.2 64.8 8.15 65.9 6.65 65.9" fill="#ff6dbd" fill-rule="evenodd" stroke="none"/>
    <path d="M2.05 61.35 Q0.55 61.35 -0.55 60.25 -1.6 59.2 -1.6 57.7 -1.6 56.2 -0.55 55.15 0.55 54.05 2.05 54.05 3.55 54.05 4.6 55.15 5.7 56.2 5.7 57.7 5.7 59.2 4.6 60.25 3.55 61.35 2.05 61.35" fill="#ff6dbd" fill-rule="evenodd" stroke="none"/>
    <path d="M7.55 53.2 Q7.55 54.1 6.9 54.8 6.3 55.4 5.3 55.4 4.35 55.4 3.7 54.8 3.1 54.1 3.1 53.2 3.1 52.25 3.7 51.6 4.35 50.95 5.3 50.95 6.3 50.95 6.9 51.6 7.55 52.25 7.55 53.2" fill="#ffb8e0" fill-rule="evenodd" stroke="none"/>
    <path d="M13.25 59.5 Q13.25 60.4 12.6 61.1 11.95 61.7 11.0 61.7 10.05 61.7 9.4 61.1 8.75 60.4 8.75 59.5 8.75 58.55 9.4 57.9 10.05 57.3 11.0 57.3 11.95 57.3 12.6 57.9 13.25 58.55 13.25 59.5" fill="#ffb8e0" fill-rule="evenodd" stroke="none"/>
    <path d="M8.1 62.05 Q8.1 62.95 7.45 63.65 6.8 64.3 5.85 64.3 4.9 64.3 4.25 63.65 3.6 62.95 3.6 62.05 3.6 61.1 4.25 60.5 4.9 59.85 5.85 59.85 6.8 59.85 7.45 60.5 8.1 61.1 8.1 62.05" fill="#ffb8e0" fill-rule="evenodd" stroke="none"/>
    <path d="M5.1 58.05 Q5.1 58.95 4.45 59.65 3.85 60.25 2.85 60.25 1.9 60.25 1.25 59.65 0.65 58.95 0.65 58.05 0.65 57.1 1.25 56.45 1.9 55.8 2.85 55.8 3.85 55.8 4.45 56.45 5.1 57.1 5.1 58.05" fill="#ffb8e0" fill-rule="evenodd" stroke="none"/>
    <path d="M11.0 57.2 Q11.0 58.85 9.85 60.1 8.65 61.25 6.9 61.25 5.25 61.25 4.05 60.1 2.9 58.85 2.9 57.2 2.9 55.5 4.05 54.35 5.25 53.15 6.9 53.15 8.65 53.15 9.85 54.35 11.0 55.5 11.0 57.2" fill="#fcd2ea" fill-rule="evenodd" stroke="none"/>
    <path d="M10.05 57.6 Q10.05 58.65 9.25 59.5 8.5 60.3 7.35 60.3 6.15 60.3 5.4 59.5 4.6 58.65 4.6 57.6 4.6 56.45 5.4 55.65 6.15 54.9 7.35 54.9 8.5 54.9 9.25 55.65 10.05 56.45 10.05 57.6" fill="#ffb8e0" fill-rule="evenodd" stroke="none"/>
    <path d="M64.45 31.35 Q62.95 31.35 61.85 30.25 60.8 29.2 60.8 27.7 60.8 26.2 61.85 25.15 62.95 24.05 64.45 24.05 65.95 24.05 67.0 25.15 68.1 26.2 68.1 27.7 68.1 29.2 67.0 30.25 65.95 31.35 64.45 31.35" fill="#ff6dbd" fill-rule="evenodd" stroke="none"/>
    <path d="M69.95 32.9 Q68.45 32.9 67.35 31.8 66.3 30.75 66.3 29.25 66.3 27.75 67.35 26.7 68.45 25.6 69.95 25.6 71.45 25.6 72.5 26.7 73.6 27.75 73.6 29.25 73.6 30.75 72.5 31.8 71.45 32.9 69.95 32.9" fill="#ff6dbd" fill-rule="evenodd" stroke="none"/>
    <path d="M70.9 38.1 Q69.4 38.1 68.3 37.0 67.25 35.95 67.25 34.45 67.25 32.95 68.3 31.9 69.4 30.8 70.9 30.8 72.4 30.8 73.45 31.9 74.55 32.95 74.55 34.45 74.55 35.95 73.45 37.0 72.4 38.1 70.9 38.1" fill="#ff6dbd" fill-rule="evenodd" stroke="none"/>
    <path d="M72.4 29.95 Q72.4 30.85 71.75 31.55 71.15 32.15 70.15 32.15 69.2 32.15 68.55 31.55 67.95 30.85 67.95 29.95 67.95 29.0 68.55 28.35 69.2 27.7 70.15 27.7 71.15 27.7 71.75 28.35 72.4 29.0 72.4 29.95" fill="#ffb8e0" fill-rule="evenodd" stroke="none"/>
    <path d="M65.7 41.15 Q64.2 41.15 63.1 40.05 62.05 39.0 62.05 37.5 62.05 36.0 63.1 34.95 64.2 33.85 65.7 33.85 67.2 33.85 68.25 34.95 69.35 36.0 69.35 37.5 69.35 39.0 68.25 40.05 67.2 41.15 65.7 41.15" fill="#ff6dbd" fill-rule="evenodd" stroke="none"/>
    <path d="M61.4 36.55 Q59.9 36.55 58.8 35.45 57.75 34.4 57.75 32.9 57.75 31.4 58.8 30.35 59.9 29.25 61.4 29.25 62.9 29.25 63.95 30.35 65.05 31.4 65.05 32.9 65.05 34.4 63.95 35.45 62.9 36.55 61.4 36.55" fill="#ff6dbd" fill-rule="evenodd" stroke="none"/>
    <path d="M66.9 28.4 Q66.9 29.3 66.25 30.0 65.65 30.6 64.65 30.6 63.7 30.6 63.05 30.0 62.45 29.3 62.45 28.4 62.45 27.45 63.05 26.8 63.7 26.15 64.65 26.15 65.65 26.15 66.25 26.8 66.9 27.45 66.9 28.4" fill="#ffb8e0" fill-rule="evenodd" stroke="none"/>
    <path d="M73.2 34.1 Q73.2 35.0 72.55 35.7 71.9 36.3 70.95 36.3 70.0 36.3 69.35 35.7 68.7 35.0 68.7 34.1 68.7 33.15 69.35 32.5 70.0 31.9 70.95 31.9 71.9 31.9 72.55 32.5 73.2 33.15 73.2 34.1" fill="#ffb8e0" fill-rule="evenodd" stroke="none"/>
    <path d="M68.05 37.3 Q68.05 38.2 67.4 38.9 66.75 39.55 65.8 39.55 64.85 39.55 64.2 38.9 63.55 38.2 63.55 37.3 63.55 36.35 64.2 35.75 64.85 35.1 65.8 35.1 66.75 35.1 67.4 35.75 68.05 36.35 68.05 37.3" fill="#ffb8e0" fill-rule="evenodd" stroke="none"/>
    <path d="M64.15 33.3 Q64.15 34.2 63.5 34.9 62.9 35.5 61.9 35.5 60.95 35.5 60.3 34.9 59.7 34.2 59.7 33.3 59.7 32.35 60.3 31.7 60.95 31.05 61.9 31.05 62.9 31.05 63.5 31.7 64.15 32.35 64.15 33.3" fill="#ffb8e0" fill-rule="evenodd" stroke="none"/>
    <path d="M70.65 32.45 Q70.65 34.1 69.5 35.35 68.3 36.5 66.55 36.5 64.9 36.5 63.7 35.35 62.55 34.1 62.55 32.45 62.55 30.75 63.7 29.6 64.9 28.4 66.55 28.4 68.3 28.4 69.5 29.6 70.65 30.75 70.65 32.45" fill="#fcd2ea" fill-rule="evenodd" stroke="none"/>
    <path d="M69.4 32.55 Q69.4 33.6 68.6 34.45 67.85 35.25 66.7 35.25 65.5 35.25 64.75 34.45 63.95 33.6 63.95 32.55 63.95 31.4 64.75 30.6 65.5 29.85 66.7 29.85 67.85 29.85 68.6 30.6 69.4 31.4 69.4 32.55" fill="#ffb8e0" fill-rule="evenodd" stroke="none"/>
    <path d="M13.7 47.55 Q12.2 47.55 11.1 46.45 10.05 45.4 10.05 43.9 10.05 42.4 11.1 41.35 12.2 40.25 13.7 40.25 15.2 40.25 16.25 41.35 17.35 42.4 17.35 43.9 17.35 45.4 16.25 46.45 15.2 47.55 13.7 47.55" fill="#ff6dbd" fill-rule="evenodd" stroke="none"/>
    <path d="M20.4 48.2 Q18.9 48.2 17.8 47.1 16.75 46.05 16.75 44.55 16.75 43.05 17.8 42.0 18.9 40.9 20.4 40.9 21.9 40.9 22.95 42.0 24.05 43.05 24.05 44.55 24.05 46.05 22.95 47.1 21.9 48.2 20.4 48.2" fill="#ff6dbd" fill-rule="evenodd" stroke="none"/>
    <path d="M20.4 54.3 Q18.9 54.3 17.8 53.2 16.75 52.15 16.75 50.65 16.75 49.15 17.8 48.1 18.9 47.0 20.4 47.0 21.9 47.0 22.95 48.1 24.05 49.15 24.05 50.65 24.05 52.15 22.95 53.2 21.9 54.3 20.4 54.3" fill="#ff6dbd" fill-rule="evenodd" stroke="none"/>
    <path d="M22.55 45.25 Q22.55 46.15 21.9 46.85 21.3 47.45 20.3 47.45 19.35 47.45 18.7 46.85 18.1 46.15 18.1 45.25 18.1 44.3 18.7 43.65 19.35 43.0 20.3 43.0 21.3 43.0 21.9 43.65 22.55 44.3 22.55 45.25" fill="#ffb8e0" fill-rule="evenodd" stroke="none"/>
    <path d="M15.2 56.75 Q13.7 56.75 12.6 55.65 11.55 54.6 11.55 53.1 11.55 51.6 12.6 50.55 13.7 49.45 15.2 49.45 16.7 49.45 17.75 50.55 18.85 51.6 18.85 53.1 18.85 54.6 17.75 55.65 16.7 56.75 15.2 56.75" fill="#ff6dbd" fill-rule="evenodd" stroke="none"/>
    <path d="M11.25 52.75 Q9.75 52.75 8.65 51.65 7.6 50.6 7.6 49.1 7.6 47.6 8.65 46.55 9.75 45.45 11.25 45.45 12.75 45.45 13.8 46.55 14.9 47.6 14.9 49.1 14.9 50.6 13.8 51.65 12.75 52.75 11.25 52.75" fill="#ff6dbd" fill-rule="evenodd" stroke="none"/>
    <path d="M16.4 44.0 Q16.4 44.9 15.75 45.6 15.15 46.2 14.15 46.2 13.2 46.2 12.55 45.6 11.95 44.9 11.95 44.0 11.95 43.05 12.55 42.4 13.2 41.75 14.15 41.75 15.15 41.75 15.75 42.4 16.4 43.05 16.4 44.0" fill="#ffb8e0" fill-rule="evenodd" stroke="none"/>
    <path d="M22.75 50.6 Q22.75 51.5 22.1 52.2 21.45 52.8 20.5 52.8 19.55 52.8 18.9 52.2 18.25 51.5 18.25 50.6 18.25 49.65 18.9 49.0 19.55 48.4 20.5 48.4 21.45 48.4 22.1 49.0 22.75 49.65 22.75 50.6" fill="#ffb8e0" fill-rule="evenodd" stroke="none"/>
    <path d="M17.6 52.55 Q17.6 53.45 16.95 54.15 16.3 54.8 15.35 54.8 14.4 54.8 13.75 54.15 13.1 53.45 13.1 52.55 13.1 51.6 13.75 51.0 14.4 50.35 15.35 50.35 16.3 50.35 16.95 51.0 17.6 51.6 17.6 52.55" fill="#ffb8e0" fill-rule="evenodd" stroke="none"/>
    <path d="M14.25 48.9 Q14.25 49.8 13.6 50.5 13.0 51.1 12.0 51.1 11.05 51.1 10.4 50.5 9.8 49.8 9.8 48.9 9.8 47.95 10.4 47.3 11.05 46.65 12.0 46.65 13.0 46.65 13.6 47.3 14.25 47.95 14.25 48.9" fill="#ffb8e0" fill-rule="evenodd" stroke="none"/>
    <path d="M19.9 48.65 Q19.9 50.3 18.75 51.55 17.55 52.7 15.8 52.7 14.15 52.7 12.95 51.55 11.8 50.3 11.8 48.65 11.8 46.95 12.95 45.8 14.15 44.6 15.8 44.6 17.55 44.6 18.75 45.8 19.9 46.95 19.9 48.65" fill="#fcd2ea" fill-rule="evenodd" stroke="none"/>
    <path d="M18.6 48.45 Q18.6 49.5 17.8 50.35 17.05 51.15 15.9 51.15 14.7 51.15 13.95 50.35 13.15 49.5 13.15 48.45 13.15 47.3 13.95 46.5 14.7 45.75 15.9 45.75 17.05 45.75 17.8 46.5 18.6 47.3 18.6 48.45" fill="#ffb8e0" fill-rule="evenodd" stroke="none"/>
    <path d="M73.0 36.25 Q71.5 36.25 70.4 35.15 69.35 34.1 69.35 32.6 69.35 31.1 70.4 30.05 71.5 28.95 73.0 28.95 74.5 28.95 75.55 30.05 76.65 31.1 76.65 32.6 76.65 34.1 75.55 35.15 74.5 36.25 73.0 36.25" fill="#ff6dbd" fill-rule="evenodd" stroke="none"/>
    <path d="M79.15 37.5 Q77.65 37.5 76.55 36.4 75.5 35.35 75.5 33.85 75.5 32.35 76.55 31.3 77.65 30.2 79.15 30.2 80.65 30.2 81.7 31.3 82.8 32.35 82.8 33.85 82.8 35.35 81.7 36.4 80.65 37.5 79.15 37.5" fill="#ff6dbd" fill-rule="evenodd" stroke="none"/>
    <path d="M79.45 42.7 Q77.95 42.7 76.85 41.6 75.8 40.55 75.8 39.05 75.8 37.55 76.85 36.5 77.95 35.4 79.45 35.4 80.95 35.4 82.0 36.5 83.1 37.55 83.1 39.05 83.1 40.55 82.0 41.6 80.95 42.7 79.45 42.7" fill="#ff6dbd" fill-rule="evenodd" stroke="none"/>
    <path d="M81.85 34.2 Q81.85 35.1 81.2 35.8 80.6 36.4 79.6 36.4 78.65 36.4 78.0 35.8 77.4 35.1 77.4 34.2 77.4 33.25 78.0 32.6 78.65 31.95 79.6 31.95 80.6 31.95 81.2 32.6 81.85 33.25 81.85 34.2" fill="#ffb8e0" fill-rule="evenodd" stroke="none"/>
    <path d="M74.25 46.05 Q72.75 46.05 71.65 44.95 70.6 43.9 70.6 42.4 70.6 40.9 71.65 39.85 72.75 38.75 74.25 38.75 75.75 38.75 76.8 39.85 77.9 40.9 77.9 42.4 77.9 43.9 76.8 44.95 75.75 46.05 74.25 46.05" fill="#ff6dbd" fill-rule="evenodd" stroke="none"/>
    <path d="M69.95 41.15 Q68.45 41.15 67.35 40.05 66.3 39.0 66.3 37.5 66.3 36.0 67.35 34.95 68.45 33.85 69.95 33.85 71.45 33.85 72.5 34.95 73.6 36.0 73.6 37.5 73.6 39.0 72.5 40.05 71.45 41.15 69.95 41.15" fill="#ff6dbd" fill-rule="evenodd" stroke="none"/>
    <path d="M75.45 33.3 Q75.45 34.2 74.8 34.9 74.2 35.5 73.2 35.5 72.25 35.5 71.6 34.9 71.0 34.2 71.0 33.3 71.0 32.35 71.6 31.7 72.25 31.05 73.2 31.05 74.2 31.05 74.8 31.7 75.45 32.35 75.45 33.3" fill="#ffb8e0" fill-rule="evenodd" stroke="none"/>
    <path d="M82.05 39.0 Q82.05 39.9 81.4 40.6 80.75 41.2 79.8 41.2 78.85 41.2 78.2 40.6 77.55 39.9 77.55 39.0 77.55 38.05 78.2 37.4 78.85 36.8 79.8 36.8 80.75 36.8 81.4 37.4 82.05 38.05 82.05 39.0" fill="#ffb8e0" fill-rule="evenodd" stroke="none"/>
    <path d="M76.9 41.55 Q76.9 42.45 76.25 43.15 75.6 43.8 74.65 43.8 73.7 43.8 73.05 43.15 72.4 42.45 72.4 41.55 72.4 40.6 73.05 40.0 73.7 39.35 74.65 39.35 75.6 39.35 76.25 40.0 76.9 40.6 76.9 41.55" fill="#ffb8e0" fill-rule="evenodd" stroke="none"/>
    <path d="M73.6 38.2 Q73.6 39.1 72.95 39.8 72.35 40.4 71.35 40.4 70.4 40.4 69.75 39.8 69.15 39.1 69.15 38.2 69.15 37.25 69.75 36.6 70.4 35.95 71.35 35.95 72.35 35.95 72.95 36.6 73.6 37.25 73.6 38.2" fill="#ffb8e0" fill-rule="evenodd" stroke="none"/>
    <path d="M79.25 37.35 Q79.25 39.0 78.1 40.25 76.9 41.4 75.15 41.4 73.5 41.4 72.3 40.25 71.15 39.0 71.15 37.35 71.15 35.65 72.3 34.5 73.5 33.3 75.15 33.3 76.9 33.3 78.1 34.5 79.25 35.65 79.25 37.35" fill="#fcd2ea" fill-rule="evenodd" stroke="none"/>
    <path d="M77.95 37.75 Q77.95 38.8 77.15 39.65 76.4 40.45 75.25 40.45 74.05 40.45 73.3 39.65 72.5 38.8 72.5 37.75 72.5 36.6 73.3 35.8 74.05 35.05 75.25 35.05 76.4 35.05 77.15 35.8 77.95 36.6 77.95 37.75" fill="#ffb8e0" fill-rule="evenodd" stroke="none"/>
    <path d="M49.45 31.35 Q47.95 31.35 46.85 30.25 45.8 29.2 45.8 27.7 45.8 26.2 46.85 25.15 47.95 24.05 49.45 24.05 50.95 24.05 52.0 25.15 53.1 26.2 53.1 27.7 53.1 29.2 52.0 30.25 50.95 31.35 49.45 31.35" fill="#ff6dbd" fill-rule="evenodd" stroke="none"/>
    <path d="M55.9 32.9 Q54.4 32.9 53.3 31.8 52.25 30.75 52.25 29.25 52.25 27.75 53.3 26.7 54.4 25.6 55.9 25.6 57.4 25.6 58.45 26.7 59.55 27.75 59.55 29.25 59.55 30.75 58.45 31.8 57.4 32.9 55.9 32.9" fill="#ff6dbd" fill-rule="evenodd" stroke="none"/>
    <path d="M56.2 38.1 Q54.7 38.1 53.6 37.0 52.55 35.95 52.55 34.45 52.55 32.95 53.6 31.9 54.7 30.8 56.2 30.8 57.7 30.8 58.75 31.9 59.85 32.95 59.85 34.45 59.85 35.95 58.75 37.0 57.7 38.1 56.2 38.1" fill="#ff6dbd" fill-rule="evenodd" stroke="none"/>
    <path d="M57.7 29.95 Q57.7 30.85 57.05 31.55 56.45 32.15 55.45 32.15 54.5 32.15 53.85 31.55 53.25 30.85 53.25 29.95 53.25 29.0 53.85 28.35 54.5 27.7 55.45 27.7 56.45 27.7 57.05 28.35 57.7 29.0 57.7 29.95" fill="#ffb8e0" fill-rule="evenodd" stroke="none"/>
    <path d="M51.3 41.15 Q49.8 41.15 48.7 40.05 47.65 39.0 47.65 37.5 47.65 36.0 48.7 34.95 49.8 33.85 51.3 33.85 52.8 33.85 53.85 34.95 54.95 36.0 54.95 37.5 54.95 39.0 53.85 40.05 52.8 41.15 51.3 41.15" fill="#ff6dbd" fill-rule="evenodd" stroke="none"/>
    <path d="M46.4 36.55 Q44.9 36.55 43.8 35.45 42.75 34.4 42.75 32.9 42.75 31.4 43.8 30.35 44.9 29.25 46.4 29.25 47.9 29.25 48.95 30.35 50.05 31.4 50.05 32.9 50.05 34.4 48.95 35.45 47.9 36.55 46.4 36.55" fill="#ff6dbd" fill-rule="evenodd" stroke="none"/>
    <path d="M51.9 28.4 Q51.9 29.3 51.25 30.0 50.65 30.6 49.65 30.6 48.7 30.6 48.05 30.0 47.45 29.3 47.45 28.4 47.45 27.45 48.05 26.8 48.7 26.15 49.65 26.15 50.65 26.15 51.25 26.8 51.9 27.45 51.9 28.4" fill="#ffb8e0" fill-rule="evenodd" stroke="none"/>
    <path d="M57.6 34.7 Q57.6 35.6 56.95 36.3 56.3 36.9 55.35 36.9 54.4 36.9 53.75 36.3 53.1 35.6 53.1 34.7 53.1 33.75 53.75 33.1 54.4 32.5 55.35 32.5 56.3 32.5 56.95 33.1 57.6 33.75 57.6 34.7" fill="#ffb8e0" fill-rule="evenodd" stroke="none"/>
    <path d="M52.45 37.3 Q52.45 38.2 51.8 38.9 51.15 39.55 50.2 39.55 49.25 39.55 48.6 38.9 47.95 38.2 47.95 37.3 47.95 36.35 48.6 35.75 49.25 35.1 50.2 35.1 51.15 35.1 51.8 35.75 52.45 36.35 52.45 37.3" fill="#ffb8e0" fill-rule="evenodd" stroke="none"/>
    <path d="M49.45 33.3 Q49.45 34.2 48.8 34.9 48.2 35.5 47.2 35.5 46.25 35.5 45.6 34.9 45.0 34.2 45.0 33.3 45.0 32.35 45.6 31.7 46.25 31.05 47.2 31.05 48.2 31.05 48.8 31.7 49.45 32.35 49.45 33.3" fill="#ffb8e0" fill-rule="evenodd" stroke="none"/>
    <path d="M55.65 32.45 Q55.65 34.1 54.5 35.35 53.3 36.5 51.55 36.5 49.9 36.5 48.7 35.35 47.55 34.1 47.55 32.45 47.55 30.75 48.7 29.6 49.9 28.4 51.55 28.4 53.3 28.4 54.5 29.6 55.65 30.75 55.65 32.45" fill="#fcd2ea" fill-rule="evenodd" stroke="none"/>
    <path d="M53.8 32.85 Q53.8 33.9 53.0 34.75 52.25 35.55 51.1 35.55 49.9 35.55 49.15 34.75 48.35 33.9 48.35 32.85 48.35 31.7 49.15 30.9 49.9 30.15 51.1 30.15 52.25 30.15 53.0 30.9 53.8 31.7 53.8 32.85" fill="#ffb8e0" fill-rule="evenodd" stroke="none"/>
    <path d="M37.55 33.5 Q36.05 33.5 34.95 32.4 33.9 31.35 33.9 29.85 33.9 28.35 34.95 27.3 36.05 26.2 37.55 26.2 39.05 26.2 40.1 27.3 41.2 28.35 41.2 29.85 41.2 31.35 40.1 32.4 39.05 33.5 37.55 33.5" fill="#ff6dbd" fill-rule="evenodd" stroke="none"/>
    <path d="M43.65 34.4 Q42.15 34.4 41.05 33.3 40.0 32.25 40.0 30.75 40.0 29.25 41.05 28.2 42.15 27.1 43.65 27.1 45.15 27.1 46.2 28.2 47.3 29.25 47.3 30.75 47.3 32.25 46.2 33.3 45.15 34.4 43.65 34.4" fill="#ff6dbd" fill-rule="evenodd" stroke="none"/>
    <path d="M44.25 40.85 Q42.75 40.85 41.65 39.75 40.6 38.7 40.6 37.2 40.6 35.7 41.65 34.65 42.75 33.55 44.25 33.55 45.75 33.55 46.8 34.65 47.9 35.7 47.9 37.2 47.9 38.7 46.8 39.75 45.75 40.85 44.25 40.85" fill="#ff6dbd" fill-rule="evenodd" stroke="none"/>
    <path d="M45.8 31.8 Q45.8 32.7 45.15 33.4 44.55 34.0 43.55 34.0 42.6 34.0 41.95 33.4 41.35 32.7 41.35 31.8 41.35 30.85 41.95 30.2 42.6 29.55 43.55 29.55 44.55 29.55 45.15 30.2 45.8 30.85 45.8 31.8" fill="#ffb8e0" fill-rule="evenodd" stroke="none"/>
    <path d="M39.05 43.3 Q37.55 43.3 36.45 42.2 35.4 41.15 35.4 39.65 35.4 38.15 36.45 37.1 37.55 36.0 39.05 36.0 40.55 36.0 41.6 37.1 42.7 38.15 42.7 39.65 42.7 41.15 41.6 42.2 40.55 43.3 39.05 43.3" fill="#ff6dbd" fill-rule="evenodd" stroke="none"/>
    <path d="M34.8 39.3 Q33.3 39.3 32.2 38.2 31.15 37.15 31.15 35.65 31.15 34.15 32.2 33.1 33.3 32.0 34.8 32.0 36.3 32.0 37.35 33.1 38.45 34.15 38.45 35.65 38.45 37.15 37.35 38.2 36.3 39.3 34.8 39.3" fill="#ff6dbd" fill-rule="evenodd" stroke="none"/>
    <path d="M40.25 30.25 Q40.25 31.15 39.6 31.85 39.0 32.45 38.0 32.45 37.05 32.45 36.4 31.85 35.8 31.15 35.8 30.25 35.8 29.3 36.4 28.65 37.05 28.0 38.0 28.0 39.0 28.0 39.6 28.65 40.25 29.3 40.25 30.25" fill="#ffb8e0" fill-rule="evenodd" stroke="none"/>
    <path d="M46.3 37.15 Q46.3 38.05 45.65 38.75 45.0 39.35 44.05 39.35 43.1 39.35 42.45 38.75 41.8 38.05 41.8 37.15 41.8 36.2 42.45 35.55 43.1 34.95 44.05 34.95 45.0 34.95 45.65 35.55 46.3 36.2 46.3 37.15" fill="#ffb8e0" fill-rule="evenodd" stroke="none"/>
    <path d="M41.15 39.4 Q41.15 40.3 40.5 41.0 39.85 41.65 38.9 41.65 37.95 41.65 37.3 41.0 36.65 40.3 36.65 39.4 36.65 38.45 37.3 37.85 37.95 37.2 38.9 37.2 39.85 37.2 40.5 37.85 41.15 38.45 41.15 39.4" fill="#ffb8e0" fill-rule="evenodd" stroke="none"/>
    <path d="M37.5 35.15 Q37.5 36.05 36.85 36.75 36.25 37.35 35.25 37.35 34.3 37.35 33.65 36.75 33.05 36.05 33.05 35.15 33.05 34.2 33.65 33.55 34.3 32.9 35.25 32.9 36.25 32.9 36.85 33.55 37.5 34.2 37.5 35.15" fill="#ffb8e0" fill-rule="evenodd" stroke="none"/>
    <path d="M44.05 34.6 Q44.05 36.25 42.9 37.5 41.7 38.65 39.95 38.65 38.3 38.65 37.1 37.5 35.95 36.25 35.95 34.6 35.95 32.9 37.1 31.75 38.3 30.55 39.95 30.55 41.7 30.55 42.9 31.75 44.05 32.9 44.05 34.6" fill="#fcd2ea" fill-rule="evenodd" stroke="none"/>
    <path d="M42.8 34.7 Q42.8 35.75 42.0 36.6 41.25 37.4 40.1 37.4 38.9 37.4 38.15 36.6 37.35 35.75 37.35 34.7 37.35 33.55 38.15 32.75 38.9 32.0 40.1 32.0 41.25 32.0 42.0 32.75 42.8 33.55 42.8 34.7" fill="#ffb8e0" fill-rule="evenodd" stroke="none"/>
    <path d="M25.0 37.8 Q23.5 37.8 22.4 36.7 21.35 35.65 21.35 34.15 21.35 32.65 22.4 31.6 23.5 30.5 25.0 30.5 26.5 30.5 27.55 31.6 28.65 32.65 28.65 34.15 28.65 35.65 27.55 36.7 26.5 37.8 25.0 37.8" fill="#ff6dbd" fill-rule="evenodd" stroke="none"/>
    <path d="M31.1 39.0 Q29.6 39.0 28.5 37.9 27.45 36.85 27.45 35.35 27.45 33.85 28.5 32.8 29.6 31.7 31.1 31.7 32.6 31.7 33.65 32.8 34.75 33.85 34.75 35.35 34.75 36.85 33.65 37.9 32.6 39.0 31.1 39.0" fill="#ff6dbd" fill-rule="evenodd" stroke="none"/>
    <path d="M31.1 44.5 Q29.6 44.5 28.5 43.4 27.45 42.35 27.45 40.85 27.45 39.35 28.5 38.3 29.6 37.2 31.1 37.2 32.6 37.2 33.65 38.3 34.75 39.35 34.75 40.85 34.75 42.35 33.65 43.4 32.6 44.5 31.1 44.5" fill="#ff6dbd" fill-rule="evenodd" stroke="none"/>
    <path d="M32.6 35.15 Q32.6 36.05 31.95 36.75 31.35 37.35 30.35 37.35 29.4 37.35 28.75 36.75 28.15 36.05 28.15 35.15 28.15 34.2 28.75 33.55 29.4 32.9 30.35 32.9 31.35 32.9 31.95 33.55 32.6 34.2 32.6 35.15" fill="#ffb8e0" fill-rule="evenodd" stroke="none"/>
    <path d="M25.6 47.55 Q24.1 47.55 23.0 46.45 21.95 45.4 21.95 43.9 21.95 42.4 23.0 41.35 24.1 40.25 25.6 40.25 27.1 40.25 28.15 41.35 29.25 42.4 29.25 43.9 29.25 45.4 28.15 46.45 27.1 47.55 25.6 47.55" fill="#ff6dbd" fill-rule="evenodd" stroke="none"/>
    <path d="M21.65 42.7 Q20.15 42.7 19.05 41.6 18.0 40.55 18.0 39.05 18.0 37.55 19.05 36.5 20.15 35.4 21.65 35.4 23.15 35.4 24.2 36.5 25.3 37.55 25.3 39.05 25.3 40.55 24.2 41.6 23.15 42.7 21.65 42.7" fill="#ff6dbd" fill-rule="evenodd" stroke="none"/>
    <path d="M27.4 34.85 Q27.4 35.75 26.75 36.45 26.15 37.05 25.15 37.05 24.2 37.05 23.55 36.45 22.95 35.75 22.95 34.85 22.95 33.9 23.55 33.25 24.2 32.6 25.15 32.6 26.15 32.6 26.75 33.25 27.4 33.9 27.4 34.85" fill="#ffb8e0" fill-rule="evenodd" stroke="none"/>
    <path d="M32.8 40.85 Q32.8 41.75 32.15 42.45 31.5 43.05 30.55 43.05 29.6 43.05 28.95 42.45 28.3 41.75 28.3 40.85 28.3 39.9 28.95 39.25 29.6 38.65 30.55 38.65 31.5 38.65 32.15 39.25 32.8 39.9 32.8 40.85" fill="#ffb8e0" fill-rule="evenodd" stroke="none"/>
    <path d="M27.65 43.1 Q27.65 44.0 27.0 44.7 26.35 45.35 25.4 45.35 24.45 45.35 23.8 44.7 23.15 44.0 23.15 43.1 23.15 42.15 23.8 41.55 24.45 40.9 25.4 40.9 26.35 40.9 27.0 41.55 27.65 42.15 27.65 43.1" fill="#ffb8e0" fill-rule="evenodd" stroke="none"/>
    <path d="M24.35 39.75 Q24.35 40.65 23.7 41.35 23.1 41.95 22.1 41.95 21.15 41.95 20.5 41.35 19.9 40.65 19.9 39.75 19.9 38.8 20.5 38.15 21.15 37.5 22.1 37.5 23.1 37.5 23.7 38.15 24.35 38.8 24.35 39.75" fill="#ffb8e0" fill-rule="evenodd" stroke="none"/>
    <path d="M30.6 38.9 Q30.6 40.55 29.45 41.8 28.25 42.95 26.5 42.95 24.85 42.95 23.65 41.8 22.5 40.55 22.5 38.9 22.5 37.2 23.65 36.05 24.85 34.85 26.5 34.85 28.25 34.85 29.45 36.05 30.6 37.2 30.6 38.9" fill="#fcd2ea" fill-rule="evenodd" stroke="none"/>
    <path d="M29.95 39.3 Q29.95 40.35 29.15 41.2 28.4 42.0 27.25 42.0 26.05 42.0 25.3 41.2 24.5 40.35 24.5 39.3 24.5 38.15 25.3 37.35 26.05 36.6 27.25 36.6 28.4 36.6 29.15 37.35 29.95 38.15 29.95 39.3" fill="#ffb8e0" fill-rule="evenodd" stroke="none"/>
  </g>
  <defs>
    <linearGradient gradientTransform="matrix(0.0581, 3.0E-4, 0.0, 0.0199, 47.2, 94.7)" gradientUnits="userSpaceOnUse" id="gradient0" spreadMethod="pad" x1="-819.2" x2="819.2">
      <stop offset="0.0" stop-color="#ff9cc3"/>
      <stop offset="1.0" stop-color="#e00059"/>
    </linearGradient>
    <linearGradient gradientTransform="matrix(0.9739, 0.0035, 0.0, 0.8671, 120.3, -45.65)" gradientUnits="userSpaceOnUse" id="gradient1" spreadMethod="pad" x1="-819.2" x2="819.2">
      <stop offset="0.0" stop-color="#85083a"/>
      <stop offset="1.0" stop-color="#9c003e"/>
    </linearGradient>
    <linearGradient gradientTransform="matrix(0.0012, -0.0115, 0.0223, 0.002, 89.75, 88.85)" gradientUnits="userSpaceOnUse" id="gradient2" spreadMethod="pad" x1="-819.2" x2="819.2">
      <stop offset="0.0" stop-color="#ff4a92"/>
      <stop offset="0.9764705882352941" stop-color="#ec2475"/>
    </linearGradient>
    <linearGradient gradientTransform="matrix(0.0581, 3.0E-4, 0.0, 0.0199, 47.2, 94.7)" gradientUnits="userSpaceOnUse" id="gradient3" spreadMethod="pad" x1="-819.2" x2="819.2">
      <stop offset="0.0" stop-color="#af064a"/>
      <stop offset="1.0" stop-color="#fa69a3"/>
    </linearGradient>
    <linearGradient gradientTransform="matrix(0.0, 0.0053, -0.0224, -1.0E-4, 56.1, 107.5)" gradientUnits="userSpaceOnUse" id="gradient4" spreadMethod="pad" x1="-819.2" x2="819.2">
      <stop offset="0.0" stop-color="#d93376"/>
      <stop offset="1.0" stop-color="#b60a50"/>
    </linearGradient>
    <linearGradient gradientTransform="matrix(0.0, 0.0053, -0.0224, -1.0E-4, 56.1, 107.5)" gradientUnits="userSpaceOnUse" id="gradient5" spreadMethod="pad" x1="-819.2" x2="819.2">
      <stop offset="0.0" stop-color="#b41c59"/>
      <stop offset="1.0" stop-color="#800336"/>
    </linearGradient>
    <linearGradient gradientTransform="matrix(-0.0144, 0.0073, -0.0112, -0.0172, 5.95, 84.3)" gradientUnits="userSpaceOnUse" id="gradient6" spreadMethod="pad" x1="-819.2" x2="819.2">
      <stop offset="0.0" stop-color="#f05191"/>
      <stop offset="1.0" stop-color="#cd125e"/>
    </linearGradient>
    <linearGradient gradientTransform="matrix(0.0581, 3.0E-4, 0.0, 0.0199, 47.2, 94.7)" gradientUnits="userSpaceOnUse" id="gradient7" spreadMethod="pad" x1="-819.2" x2="819.2">
      <stop offset="0.0" stop-color="#fa659f"/>
      <stop offset="1.0" stop-color="#db206b"/>
    </linearGradient>
    <linearGradient gradientTransform="matrix(3.0E-4, 0.0082, -0.0078, 3.0E-4, 65.25, 93.45)" gradientUnits="userSpaceOnUse" id="gradient8" spreadMethod="pad" x1="-819.2" x2="819.2">
      <stop offset="0.0" stop-color="#ef508f"/>
      <stop offset="1.0" stop-color="#bb054e"/>
    </linearGradient>
    <linearGradient gradientTransform="matrix(0.0019, -0.0063, 0.0078, 0.0019, 29.5, 95.3)" gradientUnits="userSpaceOnUse" id="gradient9" spreadMethod="pad" x1="-819.2" x2="819.2">
      <stop offset="0.0" stop-color="#ff8eba"/>
      <stop offset="0.9921568627450981" stop-color="#f1679e"/>
    </linearGradient>
    <linearGradient gradientTransform="matrix(-0.0022, 0.0088, -0.0078, -0.0017, 50.9, 99.55)" gradientUnits="userSpaceOnUse" id="gradient10" spreadMethod="pad" x1="-819.2" x2="819.2">
      <stop offset="0.0" stop-color="#e73d82"/>
      <stop offset="1.0" stop-color="#ffbfd8"/>
    </linearGradient>
    <linearGradient gradientTransform="matrix(3.0E-4, 0.0124, -0.0078, 3.0E-4, 66.8, 93.15)" gradientUnits="userSpaceOnUse" id="gradient11" spreadMethod="pad" x1="-819.2" x2="819.2">
      <stop offset="0.0" stop-color="#c60c57"/>
      <stop offset="1.0" stop-color="#fc8bb8"/>
    </linearGradient>
    <linearGradient gradientTransform="matrix(0.0581, 3.0E-4, 0.0, 0.0199, 47.55, 95.0)" gradientUnits="userSpaceOnUse" id="gradient12" spreadMethod="pad" x1="-819.2" x2="819.2">
      <stop offset="0.0" stop-color="#a1104a"/>
      <stop offset="1.0" stop-color="#cb1c62"/>
    </linearGradient>
    <linearGradient gradientTransform="matrix(0.0581, 3.0E-4, 0.0, 0.0199, 47.55, 95.0)" gradientUnits="userSpaceOnUse" id="gradient13" spreadMethod="pad" x1="-819.2" x2="819.2">
      <stop offset="0.0" stop-color="#c42565"/>
      <stop offset="1.0" stop-color="#cd1e65"/>
    </linearGradient>
    <linearGradient gradientTransform="matrix(0.0581, 3.0E-4, 0.0, 0.0199, 47.55, 95.0)" gradientUnits="userSpaceOnUse" id="gradient14" spreadMethod="pad" x1="-819.2" x2="819.2">
      <stop offset="0.0" stop-color="#a1104a"/>
      <stop offset="1.0" stop-color="#93013c"/>
    </linearGradient>
    <linearGradient gradientTransform="matrix(0.0033, 0.0108, -0.0061, 0.0034, 61.3, 93.45)" gradientUnits="userSpaceOnUse" id="gradient15" spreadMethod="pad" x1="-819.2" x2="819.2">
      <stop offset="0.0" stop-color="#eb3a80"/>
      <stop offset="1.0" stop-color="#a30947"/>
      <stop offset="1.0" stop-color="#c7175e"/>
    </linearGradient>
    <linearGradient gradientTransform="matrix(5.0E-4, 0.0051, -0.0064, 0.0011, 61.9, 96.5)" gradientUnits="userSpaceOnUse" id="gradient16" spreadMethod="pad" x1="-819.2" x2="819.2">
      <stop offset="0.0" stop-color="#c31f60"/>
      <stop offset="1.0" stop-color="#8a0239"/>
    </linearGradient>
    <linearGradient gradientTransform="matrix(0.0581, 3.0E-4, 0.0, 0.0199, 47.2, 94.7)" gradientUnits="userSpaceOnUse" id="gradient17" spreadMethod="pad" x1="-819.2" x2="819.2">
      <stop offset="0.0" stop-color="#98003d"/>
      <stop offset="1.0" stop-color="#c90754"/>
    </linearGradient>
    <linearGradient gradientTransform="matrix(0.0, 0.0053, -0.0224, -1.0E-4, 56.1, 107.5)" gradientUnits="userSpaceOnUse" id="gradient18" spreadMethod="pad" x1="-819.2" x2="819.2">
      <stop offset="0.0" stop-color="#ec498b"/>
      <stop offset="1.0" stop-color="#db246f"/>
    </linearGradient>
    <linearGradient gradientTransform="matrix(0.9739, 0.0035, 0.0, 0.8671, 120.3, -45.65)" gradientUnits="userSpaceOnUse" id="gradient19" spreadMethod="pad" x1="-819.2" x2="819.2">
      <stop offset="0.0" stop-color="#85083a"/>
      <stop offset="1.0" stop-color="#c92466"/>
    </linearGradient>
  </defs>
</svg>
