<?xml version="1.0" encoding="UTF-8" standalone="no"?>
<svg xmlns:xlink="http://www.w3.org/1999/xlink" height="74.8px" width="93.75px" xmlns="http://www.w3.org/2000/svg">
  <g transform="matrix(1.0, 0.0, 0.0, 1.0, 0.75, -38.45)">
    <path d="M71.65 41.75 L71.95 42.35 Q74.4 56.45 79.9 74.15 L80.85 76.3 Q85.75 83.95 88.5 94.65 L90.0 102.9 Q70.45 109.3 53.0 110.25 L36.2 110.25 Q30.4 109.95 26.1 110.25 12.65 109.65 2.25 105.05 L2.25 103.5 Q2.25 102.0 2.55 100.45 2.25 98.3 3.15 96.8 3.8 91.3 6.2 85.45 L7.15 81.5 8.35 81.8 15.4 41.45 71.65 41.75" fill="#c42967" fill-rule="evenodd" stroke="none"/>
    <path d="M71.65 41.75 L15.4 41.45 8.35 81.8 7.15 81.5 6.2 85.45 Q3.8 91.3 3.15 96.8 2.25 98.3 2.55 100.45 2.25 102.0 2.25 103.5 L2.25 105.05 Q12.65 109.65 26.1 110.25 30.4 109.95 36.2 110.25 L53.0 110.25 Q70.45 109.3 90.0 102.9 L88.5 94.65 Q85.75 83.95 80.85 76.3 L79.9 74.15 Q74.4 56.45 71.95 42.35 L71.65 41.75 Z" fill="none" stroke="#830645" stroke-linecap="round" stroke-linejoin="round" stroke-width="6.0"/>
    <path d="M59.7 68.65 Q59.7 68.95 58.8 68.95 L58.15 68.95 57.85 68.65 57.85 68.05 Q57.85 67.75 58.15 67.75 59.1 67.45 59.4 67.75 L59.7 67.75 59.7 68.65" fill="#ecabcc" fill-rule="evenodd" stroke="none"/>
    <path d="M65.8 43.9 L55.4 46.65 Q51.75 47.85 50.2 48.8 49.0 49.7 48.7 51.25 48.4 52.75 48.7 53.05 49.3 54.3 54.2 54.6 L52.05 55.2 45.65 55.5 Q45.3 55.2 45.0 55.2 L43.2 54.0 43.8 53.35 Q43.5 52.45 43.8 50.0 43.8 49.4 44.4 49.1 45.95 47.25 52.35 46.05 L65.2 42.65 65.8 43.9" fill="#f36ba2" fill-rule="evenodd" stroke="none"/>
    <path d="M54.2 54.6 Q49.3 54.3 48.7 53.05 48.4 52.75 48.7 51.25 49.0 49.7 50.2 48.8 51.75 47.85 55.4 46.65 L65.8 43.9 67.65 47.25 Q68.25 49.1 66.1 50.95 L54.2 54.6 M20.55 43.9 Q25.75 44.8 31.85 46.65 L37.05 48.5 38.9 49.4 Q40.75 51.25 40.45 53.05 39.8 54.9 36.75 54.6 L23.6 51.55 23.3 51.55 23.15 51.5 Q19.35 50.55 19.95 47.85 L20.55 43.9" fill="#d42169" fill-rule="evenodd" stroke="none"/>
    <path d="M65.2 42.65 L52.35 46.05 Q45.95 47.25 44.4 49.1 41.35 45.75 21.45 42.05 L20.1 41.75 67.65 41.75 65.2 42.65" fill="#8c466a" fill-rule="evenodd" stroke="none"/>
    <path d="M66.1 50.95 Q68.25 49.1 67.65 47.25 L65.8 43.9 71.6 42.35 73.15 48.5 69.5 49.7 66.1 50.95 M13.5 49.4 L14.75 42.65 20.55 43.9 19.95 47.85 Q19.35 50.55 23.15 51.5 L17.8 50.3 13.5 49.4" fill="#c20a54" fill-rule="evenodd" stroke="none"/>
    <path d="M65.8 43.9 L65.2 42.65 67.65 41.75 71.3 41.75 71.6 42.35 65.8 43.9 M14.75 42.65 L15.05 41.45 20.05 41.75 20.1 41.75 21.45 42.05 20.55 43.9 14.75 42.65" fill="#e72170" fill-rule="evenodd" stroke="none"/>
    <path d="M44.4 49.1 Q43.8 49.4 43.8 50.0 43.5 52.45 43.8 53.35 L43.2 54.0 Q42.25 55.8 39.5 55.5 L36.75 54.6 Q39.8 54.9 40.45 53.05 40.75 51.25 38.9 49.4 L37.05 48.5 31.85 46.65 Q25.75 44.8 20.55 43.9 L21.45 42.05 Q41.35 45.75 44.4 49.1" fill="#f05191" fill-rule="evenodd" stroke="none"/>
    <path d="M43.2 54.0 L45.0 55.2 Q45.3 55.2 45.65 55.5 L52.05 55.2 54.2 54.6 66.1 50.95 69.5 49.7 Q76.2 64.7 73.15 77.85 61.2 80.9 47.45 81.8 37.35 82.4 26.65 82.4 L23.9 82.4 20.25 82.4 15.35 82.4 Q11.05 81.2 12.6 75.4 L17.8 50.3 23.15 51.5 23.3 51.55 23.6 51.55 36.75 54.6 39.5 55.5 Q42.25 55.8 43.2 54.0" fill="#fabedb" fill-rule="evenodd" stroke="none"/>
    <path d="M17.8 50.3 L12.6 75.4 Q11.05 81.2 15.35 82.4 L8.0 81.8 13.5 49.4 17.8 50.3 M73.15 77.85 Q76.2 64.7 69.5 49.7 L73.15 48.5 79.55 74.15 Q78.05 76.0 73.15 77.85" fill="#e7a5c6" fill-rule="evenodd" stroke="none"/>
    <path d="M10.45 68.35 L11.05 65.0 11.4 65.0 12.6 65.0 Q14.45 65.3 15.05 66.2 15.65 66.85 15.65 67.75 16.9 67.45 18.4 67.75 19.95 67.75 20.85 68.95 21.45 69.6 21.45 70.5 L21.45 71.4 Q20.85 72.65 19.0 73.55 L18.1 73.85 Q19.0 75.1 18.4 76.3 17.8 78.15 15.95 79.05 L13.2 79.65 11.7 79.35 Q9.85 79.05 8.65 77.55 L8.95 76.0 12.9 75.4 Q15.05 74.15 15.65 72.65 16.6 71.4 15.35 69.9 14.45 68.65 12.3 68.35 L10.45 68.35 M9.25 74.15 L10.15 69.6 11.4 69.6 Q12.3 69.9 12.9 70.8 13.5 71.4 13.2 72.35 12.6 73.25 11.4 73.55 10.45 74.15 9.25 74.15" fill="#eb3e83" fill-rule="evenodd" stroke="none"/>
    <path d="M8.95 76.0 L9.25 74.15 Q10.45 74.15 11.4 73.55 12.6 73.25 13.2 72.35 13.5 71.4 12.9 70.8 12.3 69.9 11.4 69.6 L10.15 69.6 10.45 68.35 12.3 68.35 Q14.45 68.65 15.35 69.9 16.6 71.4 15.65 72.65 15.05 74.15 12.9 75.4 L8.95 76.0" fill="#ff85b5" fill-rule="evenodd" stroke="none"/>
    <path d="M8.65 86.1 Q8.0 87.3 7.4 92.2 6.2 98.95 6.8 100.15 6.2 100.75 6.8 101.7 L8.3 102.0 Q9.25 101.7 10.45 99.25 L10.75 99.25 Q10.45 102.6 16.25 104.1 L26.35 104.75 29.4 104.1 32.8 104.45 49.3 103.2 55.4 103.8 66.1 102.0 Q69.8 99.85 70.4 92.8 72.85 97.1 72.85 98.95 72.85 100.15 77.45 99.55 78.35 98.95 79.9 98.6 82.65 97.1 82.0 93.4 L77.45 77.55 Q78.05 76.6 79.9 76.6 86.9 92.2 87.5 95.55 87.2 98.3 86.0 100.45 84.45 102.0 75.3 104.75 66.1 106.9 50.2 107.8 41.05 108.4 35.55 108.1 L39.2 107.8 Q32.15 108.1 23.9 107.8 10.45 106.55 4.35 103.5 2.8 102.3 3.45 101.05 4.05 92.2 6.8 85.8 L8.65 86.1" fill="#e08cb6" fill-rule="evenodd" stroke="none"/>
    <path d="M77.45 77.55 L82.0 93.4 Q82.65 97.1 79.9 98.6 78.35 98.95 77.45 99.55 72.85 100.15 72.85 98.95 72.85 97.1 70.4 92.8 69.8 99.85 66.1 102.0 L55.4 103.8 49.3 103.2 32.8 104.45 29.4 104.1 26.35 104.75 16.25 104.1 Q10.45 102.6 10.75 99.25 L10.45 99.25 Q9.25 101.7 8.3 102.0 L6.8 101.7 Q6.2 100.75 6.8 100.15 6.2 98.95 7.4 92.2 8.0 87.3 8.65 86.1 21.15 88.55 38.0 87.0 57.55 84.55 77.15 77.55 L77.45 77.55" fill="#fabedb" fill-rule="evenodd" stroke="none"/>
    <path d="M8.65 86.1 L6.8 85.8 5.85 85.45 6.8 80.6 6.8 82.1 15.05 82.7 Q16.25 82.4 18.4 82.7 18.7 82.4 20.25 82.7 47.75 82.4 78.95 72.0 L80.5 76.3 Q79.9 76.0 79.9 76.6 78.05 76.6 77.45 77.55 L77.15 77.55 Q57.55 84.55 38.0 87.0 21.15 88.55 8.65 86.1" fill="#9a0742" fill-rule="evenodd" stroke="none"/>
    <path d="M6.8 85.8 Q4.05 92.2 3.45 101.05 2.8 102.3 4.35 103.5 10.45 106.55 23.9 107.8 32.15 108.1 39.2 107.8 L35.55 108.1 Q41.05 108.4 50.2 107.8 66.1 106.9 75.3 104.75 84.45 102.0 86.0 100.45 87.2 98.3 87.5 95.55 86.9 92.2 79.9 76.6 79.9 76.0 80.5 76.3 85.4 83.95 88.15 94.65 L89.65 102.9 Q70.1 109.3 52.65 110.25 L35.85 110.25 Q30.05 109.95 25.75 110.25 12.3 109.65 1.9 105.05 L1.9 103.5 Q1.9 102.0 2.2 100.45 1.9 98.3 2.8 96.8 3.45 91.3 5.85 85.45 L6.8 85.8" fill="#c7175e" fill-rule="evenodd" stroke="none"/>
  </g>
</svg>
