<?xml version="1.0" encoding="UTF-8" standalone="no"?>
<svg xmlns:xlink="http://www.w3.org/1999/xlink" height="74.45px" width="93.8px" xmlns="http://www.w3.org/2000/svg">
  <g transform="matrix(1.0, 0.0, 0.0, 1.0, 0.7, -38.75)">
    <path d="M81.2 76.6 Q86.1 83.95 88.85 94.95 L90.1 102.9 Q70.8 109.6 53.1 110.2 L36.25 110.2 Q30.75 109.9 26.15 110.2 13.0 109.6 2.3 105.35 L2.3 103.5 Q2.3 101.95 2.95 100.45 2.3 98.6 3.25 96.75 3.85 91.25 6.3 85.45 L7.2 82.1 6.3 81.2 8.45 72.3 9.05 69.85 9.05 69.55 14.85 41.75 71.75 42.05 71.75 42.65 79.4 72.3 79.7 72.0 81.2 76.6" fill="#8c3763" fill-rule="evenodd" stroke="none"/>
    <path d="M81.2 76.6 L79.7 72.0 79.4 72.3 71.75 42.65 71.75 42.05 14.85 41.75 9.05 69.55 9.05 69.85 8.45 72.3 6.3 81.2 7.2 82.1 6.3 85.45 Q3.85 91.25 3.25 96.75 2.3 98.6 2.95 100.45 2.3 101.95 2.3 103.5 L2.3 105.35 Q13.0 109.6 26.15 110.2 30.75 109.9 36.25 110.2 L53.1 110.2 Q70.8 109.6 90.1 102.9 L88.85 94.95 Q86.1 83.95 81.2 76.6 Z" fill="none" stroke="#830645" stroke-linecap="round" stroke-linejoin="round" stroke-width="6.0"/>
    <path d="M60.1 67.45 L60.1 67.75 60.4 68.65 59.2 68.65 58.6 68.65 58.3 68.35 57.95 67.75 Q57.95 67.45 58.6 67.1 L60.1 67.45" fill="#ecabcc" fill-rule="evenodd" stroke="none"/>
    <path d="M21.9 42.05 L20.95 43.9 14.85 42.35 15.15 41.45 19.45 41.45 21.9 42.05 M66.25 43.6 L65.3 42.35 68.05 41.75 72.05 41.75 72.05 42.35 66.25 43.6" fill="#e72170" fill-rule="evenodd" stroke="none"/>
    <path d="M20.95 43.9 L20.35 47.25 Q19.75 50.3 24.05 51.55 L18.2 50.0 12.7 75.4 Q11.2 80.9 15.75 82.1 L8.15 81.8 14.85 42.35 20.95 43.9 M73.55 77.5 Q76.65 64.35 69.9 49.4 L66.55 50.6 Q68.65 48.8 67.75 46.95 L66.25 43.6 72.05 42.35 80.3 73.85 Q78.45 76.0 73.55 77.5" fill="#e72a68" fill-rule="evenodd" stroke="none"/>
    <path d="M65.3 42.35 L52.45 45.7 Q46.05 47.25 44.8 48.8 41.75 45.7 21.9 42.05 L19.45 41.45 68.05 41.75 65.3 42.35" fill="#8c466a" fill-rule="evenodd" stroke="none"/>
    <path d="M21.9 42.05 Q41.75 45.7 44.8 48.8 46.05 47.25 52.45 45.7 L65.3 42.35 66.25 43.6 67.75 46.95 Q68.65 48.8 66.55 50.6 L69.9 49.4 Q76.65 64.35 73.55 77.5 61.35 80.25 47.55 81.5 L27.4 82.1 24.35 82.1 20.95 82.1 15.75 82.1 Q11.2 80.9 12.7 75.4 L18.2 50.0 24.05 51.55 Q19.75 50.3 20.35 47.25 L20.95 43.9 21.9 42.05" fill="#f84982" fill-rule="evenodd" stroke="none"/>
    <path d="M81.5 76.3 Q86.4 83.65 89.15 94.65 L90.4 102.6 Q71.1 109.3 53.4 109.9 L36.55 109.9 Q31.05 109.6 26.45 109.9 13.3 109.3 2.6 105.05 L2.6 103.2 Q2.6 101.65 2.95 100.15 2.6 98.3 3.55 96.45 4.15 90.95 6.6 85.15 L7.8 85.45 Q5.05 91.9 4.45 101.05 3.85 101.95 5.05 103.2 11.2 106.25 24.65 107.5 33.2 107.8 39.95 107.5 L36.25 107.8 Q41.75 108.1 50.95 107.8 66.85 106.55 76.0 104.75 85.2 101.65 86.7 100.15 88.25 98.3 88.55 95.25 87.95 91.9 80.6 76.6 80.9 76.0 81.5 76.3" fill="#db947b" fill-rule="evenodd" stroke="none"/>
    <path d="M6.6 85.15 L7.8 80.25 7.5 81.8 16.1 82.4 Q17.0 82.1 19.15 82.4 19.75 82.1 20.95 82.4 48.8 82.1 80.0 71.7 L81.5 76.3 Q80.9 76.0 80.6 76.6 78.75 76.6 78.15 77.2 58.3 84.55 39.0 87.0 21.9 88.2 9.35 86.1 L7.8 85.45 6.6 85.15" fill="#9a0742" fill-rule="evenodd" stroke="none"/>
    <path d="M80.6 76.6 Q87.95 91.9 88.55 95.25 88.25 98.3 86.7 100.15 85.2 101.65 76.0 104.75 66.85 106.55 50.95 107.8 41.75 108.1 36.25 107.8 L39.95 107.5 Q33.2 107.8 24.65 107.5 11.2 106.25 5.05 103.2 3.85 101.95 4.45 101.05 5.05 91.9 7.8 85.45 L9.35 86.1 Q9.05 87.0 8.45 91.9 6.9 98.3 7.5 99.85 7.2 100.75 7.5 101.35 L9.35 101.65 Q9.95 101.35 11.5 98.9 L11.8 98.9 Q11.2 102.3 17.3 103.8 L27.4 104.4 30.45 103.8 33.5 104.4 Q40.55 104.4 50.0 102.9 L56.15 103.5 Q62.85 102.9 66.85 101.65 70.5 99.55 71.1 92.5 73.55 96.8 73.85 98.6 73.85 99.85 78.15 99.2 79.05 98.3 80.9 98.3 83.35 96.8 82.75 93.1 L78.15 77.2 Q78.75 76.6 80.6 76.6" fill="#f0b6a1" fill-rule="evenodd" stroke="none"/>
    <path d="M9.35 86.1 Q21.9 88.2 39.0 87.0 58.3 84.55 78.15 77.2 L82.75 93.1 Q83.35 96.8 80.9 98.3 79.05 98.3 78.15 99.2 73.85 99.85 73.85 98.6 73.55 96.8 71.1 92.5 70.5 99.55 66.85 101.65 62.85 102.9 56.15 103.5 L50.0 102.9 Q40.55 104.4 33.5 104.4 L30.45 103.8 27.4 104.4 17.3 103.8 Q11.2 102.3 11.8 98.9 L11.5 98.9 Q9.95 101.35 9.35 101.65 L7.5 101.35 Q7.2 100.75 7.5 99.85 6.9 98.3 8.45 91.9 9.05 87.0 9.35 86.1" fill="#facebe" fill-rule="evenodd" stroke="none"/>
    <path d="M24.35 88.5 Q25.85 91.25 28.3 88.85 L28.3 81.2 Q26.45 78.45 24.35 80.25 L24.35 88.5 M23.1 89.75 L23.1 78.75 Q26.8 75.7 29.25 79.35 L29.55 90.05 Q25.85 93.4 23.1 89.75" fill="#d9673f" fill-rule="evenodd" stroke="none"/>
    <path d="M24.35 88.5 L24.35 80.25 Q26.45 78.45 28.3 81.2 L28.3 88.85 Q25.85 91.25 24.35 88.5" fill="#f59370" fill-rule="evenodd" stroke="none"/>
    <path d="M63.8 74.15 L65.9 82.1 Q68.05 83.95 69.9 81.8 L68.05 73.85 Q65.6 71.7 63.8 74.15 M62.55 72.95 Q65.3 68.95 68.65 72.0 L71.45 82.4 Q68.35 86.4 65.0 83.65 L62.55 72.95" fill="#d9673f" fill-rule="evenodd" stroke="none"/>
    <path d="M63.8 74.15 Q65.6 71.7 68.05 73.85 L69.9 81.8 Q68.05 83.95 65.9 82.1 L63.8 74.15" fill="#f59370" fill-rule="evenodd" stroke="none"/>
    <path d="M12.7 52.75 L13.3 52.75 15.75 52.45 16.7 50.0 Q16.7 49.1 15.75 47.85 15.15 46.95 14.25 46.65 L14.55 44.8 Q15.45 45.4 16.4 45.7 L17.0 46.95 Q18.2 49.1 17.9 51.85 L16.1 70.2 16.1 70.5 Q15.75 72.95 14.25 74.75 12.7 76.6 10.25 76.3 9.05 76.3 7.8 75.4 L8.45 72.95 9.05 73.85 Q9.65 74.75 10.9 74.75 12.1 75.05 13.0 74.15 14.25 73.55 14.25 72.0 14.25 70.8 13.65 69.85 12.7 68.65 11.5 68.65 10.25 68.65 9.35 69.25 L9.65 66.5 Q10.55 67.1 11.5 67.1 12.7 67.1 13.95 66.5 14.85 65.6 14.85 64.35 15.15 63.15 14.25 62.25 13.3 61.3 12.4 61.0 L10.9 61.0 11.2 59.5 12.4 59.5 Q13.3 59.8 14.55 58.85 15.45 58.25 15.75 57.05 15.75 55.5 14.85 54.6 14.25 53.65 12.7 53.35 L12.7 52.75" fill="#fabedb" fill-rule="evenodd" stroke="none"/>
    <path d="M14.25 46.65 Q15.15 46.95 15.75 47.85 16.7 49.1 16.7 50.0 L15.75 52.45 13.3 52.75 12.7 52.75 14.25 46.65 M12.7 53.35 Q14.25 53.65 14.85 54.6 15.75 55.5 15.75 57.05 15.45 58.25 14.55 58.85 13.3 59.8 12.4 59.5 L11.2 59.5 12.7 53.35 M10.9 61.0 L12.4 61.0 Q13.3 61.3 14.25 62.25 15.15 63.15 14.85 64.35 14.85 65.6 13.95 66.5 12.7 67.1 11.5 67.1 10.55 67.1 9.65 66.5 L10.9 61.0 M9.35 69.25 Q10.25 68.65 11.5 68.65 12.7 68.65 13.65 69.85 14.25 70.8 14.25 72.0 14.25 73.55 13.0 74.15 12.1 75.05 10.9 74.75 9.65 74.75 9.05 73.85 L8.45 72.95 8.75 72.0 9.35 69.55 9.35 69.25" fill="#e94d7c" fill-rule="evenodd" stroke="none"/>
    <path d="M17.6 44.8 Q18.85 44.2 20.05 44.2 21.9 44.5 23.1 45.7 24.05 47.25 24.05 49.1 24.05 50.9 22.5 52.45 L22.2 52.45 22.8 53.35 Q24.05 54.9 23.7 56.75 23.7 58.85 22.2 59.8 L21.3 60.4 Q22.2 60.4 22.5 61.3 24.05 62.85 23.7 64.7 23.4 66.8 21.9 68.05 20.95 68.65 19.75 68.95 20.65 69.55 20.95 70.2 22.5 71.7 22.2 73.85 21.9 75.4 20.35 76.9 18.85 78.15 16.7 77.8 L15.15 77.2 15.15 77.8 Q14.85 80.25 13.3 81.2 11.8 82.4 9.35 82.1 7.8 82.1 6.6 80.9 L7.5 77.2 9.95 78.15 Q12.7 78.45 15.15 76.6 17.3 74.45 17.6 71.7 L19.75 50.9 Q20.05 47.85 18.2 45.7 L17.6 44.8" fill="#ffd7e3" fill-rule="evenodd" stroke="none"/>
    <path d="M7.8 75.4 Q9.05 76.3 10.25 76.3 12.7 76.6 14.25 74.75 15.75 72.95 16.1 70.5 L16.1 70.2 17.9 51.85 Q18.2 49.1 17.0 46.95 L16.4 45.7 Q15.45 45.4 14.55 44.8 L14.85 43.25 17.6 44.8 18.2 45.7 Q20.05 47.85 19.75 50.9 L17.6 71.7 Q17.3 74.45 15.15 76.6 12.7 78.45 9.95 78.15 L7.5 77.2 7.8 75.4" fill="#f84982" fill-rule="evenodd" stroke="none"/>
  </g>
</svg>
