<?xml version="1.0" encoding="UTF-8" standalone="no"?>
<svg xmlns:xlink="http://www.w3.org/1999/xlink" height="82.75px" width="107.25px" xmlns="http://www.w3.org/2000/svg">
  <g transform="matrix(1.0, 0.0, 0.0, 1.0, 2.45, -35.55)">
    <path d="M83.75 71.55 Q89.25 74.95 94.15 79.85 98.1 83.8 101.45 89.3 101.8 89.6 101.8 90.85 101.15 90.85 101.45 91.15 L100.25 91.75 Q99.95 92.05 99.95 92.35 99.0 92.65 99.0 93.0 98.4 93.3 98.4 94.2 97.2 96.95 94.45 98.5 93.8 98.5 93.8 98.8 87.4 97.85 85.25 103.7 L83.75 105.8 81.9 106.1 80.7 106.45 78.25 105.2 Q72.7 104.3 69.35 108.25 68.75 108.55 68.75 109.5 68.15 111.0 66.3 112.85 65.4 112.85 65.4 113.75 L60.8 113.75 58.05 112.85 57.45 111.0 56.2 110.4 Q54.7 109.5 53.75 109.5 L51.95 109.5 Q48.25 110.7 45.8 114.05 L44.0 114.7 Q43.35 114.7 42.75 115.3 L38.45 114.7 Q38.15 114.4 37.85 114.4 L37.85 112.25 Q35.1 107.95 31.45 109.2 27.45 109.5 27.45 111.65 L27.45 112.55 Q24.1 113.75 21.35 112.55 L18.0 108.85 Q15.85 107.65 14.3 108.25 13.1 107.95 12.8 108.55 L12.8 110.1 10.35 110.1 9.4 109.8 Q8.2 109.2 7.9 108.85 7.3 105.5 4.55 104.3 L3.3 103.7 0.55 104.0 Q1.8 97.85 4.85 92.65 7.6 86.55 12.5 81.95 12.8 80.75 14.0 79.85 14.3 79.5 14.95 79.5 14.6 78.3 15.25 78.3 15.25 74.95 15.85 74.95 L15.85 74.65 17.7 67.3 19.2 60.25 22.55 46.5 23.8 42.85 23.8 42.2 24.1 41.9 24.4 40.1 65.4 38.55 65.7 38.55 68.45 43.45 74.55 56.6 77.0 62.4 77.6 63.3 78.55 64.85 79.15 66.7 79.45 66.7 79.75 67.0 80.35 68.2 80.05 68.2 79.15 68.2 79.15 68.5 Q79.15 69.15 80.35 69.75 81.9 70.05 83.75 71.25 L83.75 71.55" fill="#ab8f8f" fill-rule="evenodd" stroke="none"/>
    <path d="M83.75 71.55 Q89.25 74.95 94.15 79.85 98.1 83.8 101.45 89.3 101.8 89.6 101.8 90.85 101.15 90.85 101.45 91.15 L100.25 91.75 Q99.95 92.05 99.95 92.35 99.0 92.65 99.0 93.0 98.4 93.3 98.4 94.2 97.2 96.95 94.45 98.5 93.8 98.5 93.8 98.8 87.4 97.85 85.25 103.7 L83.75 105.8 81.9 106.1 80.7 106.45 78.25 105.2 Q72.7 104.3 69.35 108.25 68.75 108.55 68.75 109.5 68.15 111.0 66.3 112.85 65.4 112.85 65.4 113.75 L60.8 113.75 58.05 112.85 57.45 111.0 56.2 110.4 Q54.7 109.5 53.75 109.5 L51.95 109.5 Q48.25 110.7 45.8 114.05 L44.0 114.7 Q43.35 114.7 42.75 115.3 L38.45 114.7 Q38.15 114.4 37.85 114.4 L37.85 112.25 Q35.1 107.95 31.45 109.2 27.45 109.5 27.45 111.65 L27.45 112.55 Q24.1 113.75 21.35 112.55 L18.0 108.85 Q15.85 107.65 14.3 108.25 13.1 107.95 12.8 108.55 L12.8 110.1 10.35 110.1 9.4 109.8 Q8.2 109.2 7.9 108.85 7.3 105.5 4.55 104.3 L3.3 103.7 0.55 104.0 Q1.8 97.85 4.85 92.65 7.6 86.55 12.5 81.95 12.8 80.75 14.0 79.85 14.3 79.5 14.95 79.5 14.6 78.3 15.25 78.3 15.25 74.95 15.85 74.95 L15.85 74.65 17.7 67.3 19.2 60.25 22.55 46.5 23.8 42.85 23.8 42.2 24.1 41.9 24.4 40.1 65.4 38.55 65.7 38.55 68.45 43.45 74.55 56.6 77.0 62.4 77.6 63.3 78.55 64.85 79.15 66.7 79.45 66.7 79.75 67.0 80.35 68.2 80.05 68.2 79.15 68.2 79.15 68.5 Q79.15 69.15 80.35 69.75 81.9 70.05 83.75 71.25 L83.75 71.55 Z" fill="none" stroke="#830645" stroke-linecap="round" stroke-linejoin="round" stroke-width="6.0"/>
    <path d="M24.15 42.2 L24.45 40.4 65.75 38.85 68.2 44.05 74.6 56.9 72.15 57.5 Q69.7 51.1 65.75 46.2 54.1 52.0 38.85 51.1 L38.5 51.1 37.3 49.85 Q34.55 47.4 32.4 44.95 31.8 43.75 30.9 42.85 L24.15 42.2" fill="#a2a2a2" fill-rule="evenodd" stroke="none"/>
    <path d="M24.15 42.2 L30.9 42.85 Q31.8 43.75 32.4 44.95 34.55 47.4 37.3 49.85 L38.5 51.1 28.15 49.25 27.5 48.95 26.3 47.4 23.85 43.15 23.85 42.5 24.15 42.2 M27.2 44.65 Q26.3 45.3 26.3 46.2 26.3 47.4 27.2 47.7 28.15 48.35 29.35 48.35 30.55 48.35 31.5 47.7 L32.4 45.9 Q32.4 44.95 31.5 44.35 30.55 43.75 29.35 43.75 L27.2 44.65" fill="#9c0a5b" fill-rule="evenodd" stroke="none"/>
    <path d="M29.95 46.2 Q29.95 45.6 29.35 45.3 29.05 44.95 28.45 44.95 27.8 44.95 27.2 45.6 L26.9 46.2 Q26.9 46.8 27.2 47.1 L28.45 47.4 29.35 47.1 Q29.95 46.5 29.95 46.2 M27.2 44.65 L29.35 43.75 Q30.55 43.75 31.5 44.35 32.4 44.95 32.4 45.9 L31.5 47.7 Q30.55 48.35 29.35 48.35 28.15 48.35 27.2 47.7 26.3 47.4 26.3 46.2 26.3 45.3 27.2 44.65 M38.2 55.05 Q37.3 56.0 36.1 56.0 L33.65 55.65 Q32.7 54.75 32.7 53.85 32.7 52.6 33.65 52.0 34.55 51.1 35.75 51.1 37.0 50.8 37.9 51.7 39.15 52.3 39.15 53.2 39.15 54.15 38.2 55.05 M36.1 54.45 L36.7 53.55 36.1 52.6 Q35.75 52.3 34.85 52.3 34.25 52.3 33.95 52.9 33.35 53.2 33.35 53.85 33.35 54.45 33.95 54.75 34.25 55.05 34.85 54.75 L36.1 54.45 M72.15 60.85 Q72.45 62.1 71.85 63.0 71.25 63.95 70.0 63.95 68.8 64.25 67.9 63.6 66.65 62.7 66.35 61.8 66.05 60.55 66.65 59.65 67.25 58.75 68.5 58.75 69.7 58.4 70.95 59.35 71.85 59.95 72.15 60.85 M68.2 60.25 Q67.6 60.25 67.25 60.85 66.95 61.15 67.25 61.8 67.25 62.4 67.9 62.7 L69.1 63.0 Q69.7 63.0 70.0 62.4 70.35 62.1 70.35 61.5 L69.4 60.55 Q69.1 59.95 68.2 60.25 M55.05 59.65 Q55.95 58.75 57.2 58.4 58.1 58.4 59.3 59.05 60.25 59.95 60.55 60.85 60.85 62.1 60.25 63.0 59.3 63.95 58.1 63.95 56.85 64.25 55.65 63.3 54.75 62.7 54.45 61.5 54.1 60.25 55.05 59.65 M55.65 60.55 Q55.35 61.15 55.35 61.8 55.35 62.4 55.95 62.7 L57.2 63.0 Q57.8 63.0 58.4 62.4 L58.7 61.5 Q58.4 60.85 57.8 60.55 57.2 59.95 56.55 60.25 55.95 60.25 55.65 60.55 M42.5 59.05 Q42.5 58.1 43.1 57.2 44.05 56.3 45.25 56.3 46.5 56.0 47.7 56.9 48.6 57.5 48.6 58.75 48.6 59.65 48.0 60.55 47.1 61.5 45.85 61.5 44.65 61.5 43.4 60.85 42.5 60.25 42.5 59.05 M43.7 58.1 Q43.1 58.75 43.4 59.35 43.4 59.95 43.7 60.25 L44.95 60.55 Q45.85 60.55 46.15 59.95 46.5 59.65 46.5 59.05 46.5 58.4 45.85 58.1 45.55 57.5 44.65 57.8 44.05 57.8 43.7 58.1" fill="#ff7ec5" fill-rule="evenodd" stroke="none"/>
    <path d="M29.95 46.2 Q29.95 46.5 29.35 47.1 L28.45 47.4 27.2 47.1 Q26.9 46.8 26.9 46.2 L27.2 45.6 Q27.8 44.95 28.45 44.95 29.05 44.95 29.35 45.3 29.95 45.6 29.95 46.2 M36.1 54.45 L34.85 54.75 Q34.25 55.05 33.95 54.75 33.35 54.45 33.35 53.85 33.35 53.2 33.95 52.9 34.25 52.3 34.85 52.3 35.75 52.3 36.1 52.6 L36.7 53.55 36.1 54.45 M68.2 60.25 Q69.1 59.95 69.4 60.55 L70.35 61.5 Q70.35 62.1 70.0 62.4 69.7 63.0 69.1 63.0 L67.9 62.7 Q67.25 62.4 67.25 61.8 66.95 61.15 67.25 60.85 67.6 60.25 68.2 60.25 M55.65 60.55 Q55.95 60.25 56.55 60.25 57.2 59.95 57.8 60.55 58.4 60.85 58.7 61.5 L58.4 62.4 Q57.8 63.0 57.2 63.0 L55.95 62.7 Q55.35 62.4 55.35 61.8 55.35 61.15 55.65 60.55 M43.7 58.1 Q44.05 57.8 44.65 57.8 45.55 57.5 45.85 58.1 46.5 58.4 46.5 59.05 46.5 59.65 46.15 59.95 45.85 60.55 44.95 60.55 L43.7 60.25 Q43.4 59.95 43.4 59.35 43.1 58.75 43.7 58.1" fill="#ffd9ee" fill-rule="evenodd" stroke="none"/>
    <path d="M27.5 48.95 L27.2 48.95 22.95 47.7 23.85 43.15 26.3 47.4 27.5 48.95" fill="#cb187b" fill-rule="evenodd" stroke="none"/>
    <path d="M27.2 48.95 L27.5 48.95 28.15 49.25 27.8 49.85 27.2 48.95" fill="#a60d62" fill-rule="evenodd" stroke="none"/>
    <path d="M77.35 62.7 L77.65 63.6 Q76.45 64.55 74.9 64.85 L74.6 63.95 77.35 62.7 M79.5 67.3 L79.8 67.6 80.4 68.8 79.8 68.5 75.85 70.05 Q75.55 69.45 75.85 68.8 L75.55 68.8 Q77.65 67.9 79.5 67.3 M24.15 76.75 L15.9 76.15 15.9 74.95 17.75 67.9 17.75 67.6 24.15 68.5 24.15 68.8 Q23.85 72.5 24.15 76.75 M19.25 60.55 L22.95 46.8 23.85 43.15 22.95 47.7 27.2 48.95 27.8 49.85 Q25.7 56.6 24.75 63.95 21.1 62.7 19.25 60.55" fill="#de268c" fill-rule="evenodd" stroke="none"/>
    <path d="M38.5 51.1 L38.85 51.1 Q50.75 59.35 72.15 57.5 L74.6 63.95 Q59.95 66.7 46.8 63.0 33.65 59.05 27.8 49.85 L28.15 49.25 38.5 51.1 M38.2 55.05 Q39.15 54.15 39.15 53.2 39.15 52.3 37.9 51.7 37.0 50.8 35.75 51.1 34.55 51.1 33.65 52.0 32.7 52.6 32.7 53.85 32.7 54.75 33.65 55.65 L36.1 56.0 Q37.3 56.0 38.2 55.05 M72.15 60.85 Q71.85 59.95 70.95 59.35 69.7 58.4 68.5 58.75 67.25 58.75 66.65 59.65 66.05 60.55 66.35 61.8 66.65 62.7 67.9 63.6 68.8 64.25 70.0 63.95 71.25 63.95 71.85 63.0 72.45 62.1 72.15 60.85 M55.05 59.65 Q54.1 60.25 54.45 61.5 54.75 62.7 55.65 63.3 56.85 64.25 58.1 63.95 59.3 63.95 60.25 63.0 60.85 62.1 60.55 60.85 60.25 59.95 59.3 59.05 58.1 58.4 57.2 58.4 55.95 58.75 55.05 59.65 M42.5 59.05 Q42.5 60.25 43.4 60.85 44.65 61.5 45.85 61.5 47.1 61.5 48.0 60.55 48.6 59.65 48.6 58.75 48.6 57.5 47.7 56.9 46.5 56.0 45.25 56.3 44.05 56.3 43.1 57.2 42.5 58.1 42.5 59.05" fill="#d4117e" fill-rule="evenodd" stroke="none"/>
    <path d="M77.65 63.6 L77.95 63.6 79.5 67.0 79.5 67.3 Q77.65 67.9 75.55 68.8 L74.9 64.85 Q76.45 64.55 77.65 63.6 M17.75 67.6 L19.25 60.55 Q21.1 62.7 24.75 63.95 L24.45 65.15 24.15 68.5 17.75 67.6" fill="#e94fa4" fill-rule="evenodd" stroke="none"/>
    <path d="M24.15 68.5 L24.45 65.15 24.75 63.95 Q30.25 65.75 39.75 65.75 31.8 68.8 24.15 68.5 M75.55 68.8 L70.0 69.75 Q63.0 70.35 54.75 67.0 66.65 67.9 74.9 64.85 L75.55 68.8" fill="#fc8bca" fill-rule="evenodd" stroke="none"/>
    <path d="M75.85 70.05 Q64.5 73.7 52.3 75.55 L24.15 76.75 Q23.85 72.5 24.15 68.8 L24.15 68.5 Q31.8 68.8 39.75 65.75 30.25 65.75 24.75 63.95 25.7 56.6 27.8 49.85 33.65 59.05 46.8 63.0 59.95 66.7 74.6 63.95 L74.9 64.85 Q66.65 67.9 54.75 67.0 63.0 70.35 70.0 69.75 L75.55 68.8 75.85 68.8 Q75.55 69.45 75.85 70.05" fill="#ec3a9d" fill-rule="evenodd" stroke="none"/>
    <path d="M72.15 57.5 L74.6 56.9 77.35 62.7 74.6 63.95 72.15 57.5" fill="#c9177b" fill-rule="evenodd" stroke="none"/>
    <path d="M38.85 51.1 Q54.1 52.0 65.75 46.2 69.7 51.1 72.15 57.5 50.75 59.35 38.85 51.1" fill="#c8c8c8" fill-rule="evenodd" stroke="none"/>
    <path d="M72.75 67.3 L78.6 65.15 Q78.3 67.6 79.5 68.8 79.2 69.45 80.4 70.05 81.95 70.65 83.5 71.55 L83.8 71.55 79.2 73.7 Q77.95 74.0 77.05 74.65 L69.4 77.7 Q72.75 75.55 73.1 72.2 73.1 67.9 72.75 67.3 M12.55 82.25 Q13.15 81.05 14.05 80.45 14.05 79.8 15.0 79.8 14.65 78.9 15.3 78.6 15.6 74.65 16.2 75.25 16.5 74.65 17.4 75.25 L22.3 75.55 Q22.0 75.85 22.95 78.9 23.25 81.95 25.4 84.1 L17.75 83.5 12.55 82.25" fill="#f3aeca" fill-rule="evenodd" stroke="none"/>
    <path d="M69.4 77.7 L77.05 74.65 Q77.95 74.0 79.2 73.7 83.5 74.65 86.55 76.75 89.3 78.3 91.1 80.75 85.9 79.5 92.95 85.35 99.4 91.15 92.95 87.45 88.7 84.4 85.9 83.8 82.55 82.55 79.5 82.55 78.9 83.2 79.5 84.4 79.5 86.55 81.65 89.3 84.1 92.65 87.75 96.05 84.4 97.25 84.1 99.4 83.5 101.2 77.65 96.05 72.45 91.75 66.65 88.7 62.7 86.55 58.1 87.45 58.7 89.6 60.85 92.05 64.5 96.65 70.35 101.2 68.2 101.55 66.65 102.45 63.6 103.65 61.15 106.1 L55.95 97.85 Q53.5 94.2 48.0 93.6 48.6 95.7 48.0 99.7 47.1 103.05 46.8 107.95 46.15 107.35 46.5 107.05 44.35 100.6 40.35 96.35 L38.85 101.85 Q36.1 110.7 36.1 105.5 36.1 99.4 33.65 96.05 L32.4 101.2 Q30.25 109.5 30.55 103.65 L30.55 92.05 Q29.35 92.65 28.45 93.9 22.0 98.8 17.75 105.5 L19.85 93.9 Q17.75 95.1 16.2 96.65 13.15 98.15 11.9 100.9 12.85 98.15 14.05 95.7 L13.75 95.1 Q11.9 96.35 10.7 98.15 10.35 98.3 10.25 98.6 10.8 96.15 11.9 93.9 14.05 88.1 17.75 83.5 L25.4 84.1 Q25.7 83.8 26.6 84.1 L29.65 84.4 44.35 83.5 59.0 81.05 Q61.75 79.8 64.8 79.2 66.95 78.3 69.4 77.7 M11.9 85.0 L14.65 84.1 15.0 84.7 Q14.05 85.35 13.75 86.55 7.95 93.3 8.55 97.85 6.4 99.7 5.8 99.7 4.6 99.1 2.15 101.85 6.1 92.35 11.9 85.0 M16.5 91.75 L15.6 94.5 23.85 87.15 18.95 86.85 Q18.05 87.15 18.05 85.65 13.75 90.2 13.45 93.6 L16.5 91.75 M26.3 86.55 L23.55 92.35 Q21.7 94.5 20.5 99.7 24.45 92.35 32.1 90.2 L33.0 86.25 27.8 86.55 Q26.6 86.25 26.3 86.55 M44.95 93.3 Q45.25 93.6 45.85 93.3 46.15 92.65 46.8 92.65 46.8 92.05 47.4 91.15 47.4 90.5 47.7 89.9 47.7 89.3 48.0 89.0 51.05 89.6 53.5 92.05 55.05 93.3 56.85 95.7 L58.4 95.4 Q58.7 95.1 59.6 94.8 59.6 94.5 59.95 94.5 57.5 91.15 56.25 87.75 55.35 85.65 54.45 84.7 48.3 86.25 42.5 86.25 L44.05 92.05 44.65 92.35 44.95 93.3 M57.2 83.2 Q56.55 82.9 56.85 83.5 L57.2 83.8 57.2 84.1 57.5 84.1 59.0 83.5 Q59.0 83.2 59.6 83.2 L62.4 83.8 Q75.85 90.85 72.75 83.2 72.45 79.8 76.15 79.5 80.1 78.9 83.8 77.7 78.9 74.65 73.1 78.0 65.45 81.35 57.5 82.9 56.85 82.9 57.2 83.2 M37.0 91.45 L39.45 92.65 Q42.5 96.35 41.3 93.6 39.75 90.5 39.75 88.7 L40.35 86.55 36.7 86.85 34.25 86.55 35.75 95.7 37.0 91.45" fill="#fa60b6" fill-rule="evenodd" stroke="none"/>
    <path d="M79.2 73.7 L83.8 71.55 Q89.3 75.25 94.2 80.15 98.15 84.1 101.5 89.6 101.5 90.2 101.85 91.15 101.2 91.15 101.5 91.45 100.6 91.45 100.6 92.05 L99.7 92.65 Q99.4 92.95 99.05 93.6 98.75 93.9 98.75 94.5 93.25 89.9 89.9 88.7 86.25 86.25 81.65 85.0 82.25 87.15 84.7 89.0 90.5 92.65 93.85 99.1 87.45 98.15 85.3 104.3 L84.1 106.1 79.8 100.9 Q76.75 97.55 69.4 93.9 77.05 99.4 80.75 106.75 L78.3 105.5 Q75.85 103.35 73.1 103.35 71.85 103.05 71.25 103.65 67.9 105.8 68.5 109.8 68.2 111.6 66.35 113.15 65.75 113.45 65.45 114.05 L60.85 114.05 59.3 109.8 Q57.5 104.6 54.75 100.9 54.75 102.15 55.65 103.65 L57.8 111.6 56.25 110.7 54.45 101.85 Q52.9 97.55 49.55 96.05 L49.85 96.95 Q52.3 102.75 52.0 109.8 48.3 111.0 45.85 114.35 L44.05 115.3 42.8 115.6 Q42.5 114.7 42.8 114.05 41.9 107.95 39.75 103.05 39.15 104.0 39.15 105.5 L38.2 112.55 Q35.15 108.25 31.5 109.5 27.8 109.8 27.2 112.25 27.8 107.65 28.45 105.8 L30.25 92.95 Q27.8 96.35 26.0 100.3 22.95 105.8 21.4 112.85 L20.5 111.95 Q21.7 105.8 24.75 100.3 24.15 100.6 23.85 101.2 20.2 104.6 18.05 109.15 15.9 107.95 14.05 108.55 13.15 108.55 12.85 108.85 L15.6 102.75 Q14.35 103.65 14.05 104.9 11.6 107.35 10.4 110.4 L9.8 110.1 7.95 109.15 Q7.65 106.1 8.85 103.35 8.55 101.85 9.15 100.6 L3.65 104.0 0.6 104.3 Q1.85 98.15 4.9 92.95 7.65 87.15 12.55 82.25 L17.75 83.5 Q14.05 88.1 11.9 93.9 10.8 96.15 10.25 98.6 10.35 98.3 10.7 98.15 11.9 96.35 13.75 95.1 L14.05 95.7 Q12.85 98.15 11.9 100.9 13.15 98.15 16.2 96.65 17.75 95.1 19.85 93.9 L17.75 105.5 Q22.0 98.8 28.45 93.9 29.35 92.65 30.55 92.05 L30.55 103.65 Q30.25 109.5 32.4 101.2 L33.65 96.05 Q36.1 99.4 36.1 105.5 36.1 110.7 38.85 101.85 L40.35 96.35 Q44.35 100.6 46.5 107.05 46.15 107.35 46.8 107.95 47.1 103.05 48.0 99.7 48.6 95.7 48.0 93.6 53.5 94.2 55.95 97.85 L61.15 106.1 Q63.6 103.65 66.65 102.45 68.2 101.55 70.35 101.2 64.5 96.65 60.85 92.05 58.7 89.6 58.1 87.45 62.7 86.55 66.65 88.7 72.45 91.75 77.65 96.05 83.5 101.2 84.1 99.4 84.4 97.25 87.75 96.05 84.1 92.65 81.65 89.3 79.5 86.55 79.5 84.4 78.9 83.2 79.5 82.55 82.55 82.55 85.9 83.8 88.7 84.4 92.95 87.45 99.4 91.15 92.95 85.35 85.9 79.5 91.1 80.75 89.3 78.3 86.55 76.75 83.5 74.65 79.2 73.7 M11.9 85.0 Q6.1 92.35 2.15 101.85 4.6 99.1 5.8 99.7 6.4 99.7 8.55 97.85 7.95 93.3 13.75 86.55 14.05 85.35 15.0 84.7 L14.65 84.1 11.9 85.0" fill="#ec3a9d" fill-rule="evenodd" stroke="none"/>
    <path d="M98.75 94.5 Q97.55 97.25 94.5 98.8 L93.85 99.1 Q90.5 92.65 84.7 89.0 82.25 87.15 81.65 85.0 86.25 86.25 89.9 88.7 93.25 89.9 98.75 94.5 M84.1 106.1 Q82.85 106.1 81.95 106.75 L80.75 106.75 Q77.05 99.4 69.4 93.9 76.75 97.55 79.8 100.9 L84.1 106.1 M60.85 114.05 L58.1 113.15 57.8 111.6 55.65 103.65 Q54.75 102.15 54.75 100.9 57.5 104.6 59.3 109.8 L60.85 114.05 M42.8 115.6 L38.5 115.0 Q38.2 114.7 37.9 114.7 L38.2 112.55 39.15 105.5 Q39.15 104.0 39.75 103.05 41.9 107.95 42.8 114.05 42.5 114.7 42.8 115.6 M27.2 112.25 L27.5 112.55 Q24.15 114.05 21.4 112.85 22.95 105.8 26.0 100.3 27.8 96.35 30.25 92.95 L28.45 105.8 Q27.8 107.65 27.2 112.25 M12.85 108.85 L12.85 110.4 10.4 110.4 Q11.6 107.35 14.05 104.9 14.35 103.65 15.6 102.75 L12.85 108.85" fill="#ff85c8" fill-rule="evenodd" stroke="none"/>
    <path d="M26.3 86.55 Q26.6 86.25 27.8 86.55 L33.0 86.25 32.1 90.2 Q24.45 92.35 20.5 99.7 21.7 94.5 23.55 92.35 L26.3 86.55 M16.5 91.75 L13.45 93.6 Q13.75 90.2 18.05 85.65 18.05 87.15 18.95 86.85 L23.85 87.15 15.6 94.5 16.5 91.75 M37.0 91.45 L35.75 95.7 34.25 86.55 36.7 86.85 40.35 86.55 39.75 88.7 Q39.75 90.5 41.3 93.6 42.5 96.35 39.45 92.65 L37.0 91.45 M57.2 83.2 Q56.85 82.9 57.5 82.9 65.45 81.35 73.1 78.0 78.9 74.65 83.8 77.7 80.1 78.9 76.15 79.5 72.45 79.8 72.75 83.2 75.85 90.85 62.4 83.8 L59.6 83.2 Q59.0 83.2 59.0 83.5 L57.5 84.1 57.2 84.1 57.2 83.8 56.85 83.5 Q56.55 82.9 57.2 83.2 M44.95 93.3 L44.65 92.35 44.05 92.05 42.5 86.25 Q48.3 86.25 54.45 84.7 55.35 85.65 56.25 87.75 57.5 91.15 59.95 94.5 59.6 94.5 59.6 94.8 58.7 95.1 58.4 95.4 L56.85 95.7 Q55.05 93.3 53.5 92.05 51.05 89.6 48.0 89.0 47.7 89.3 47.7 89.9 47.4 90.5 47.4 91.15 46.8 92.05 46.8 92.65 46.15 92.65 45.85 93.3 45.25 93.6 44.95 93.3" fill="#ff7ec5" fill-rule="evenodd" stroke="none"/>
    <path d="M72.75 67.3 Q73.1 67.9 73.1 72.2 72.75 75.55 69.4 77.7 66.95 78.3 64.8 79.2 61.75 79.8 59.0 81.05 L44.35 83.5 29.65 84.4 26.6 84.1 Q25.7 83.8 25.4 84.1 23.25 81.95 22.95 78.9 22.0 75.85 22.3 75.55 L26.3 75.25 Q34.55 74.95 39.75 74.95 L49.85 73.4 56.85 71.85 Q59.0 70.95 61.75 70.65 64.2 69.75 68.8 68.5 69.1 68.2 72.75 67.3" fill="url(#gradient0)" fill-rule="evenodd" stroke="none"/>
    <path d="M78.3 105.5 Q73.1 104.6 69.4 108.55 68.8 108.85 68.5 109.8 67.9 105.8 71.25 103.65 71.85 103.05 73.1 103.35 75.85 103.35 78.3 105.5 M56.25 110.7 Q54.75 110.1 53.5 110.1 L52.0 109.8 Q52.3 102.75 49.85 96.95 L49.55 96.05 Q52.9 97.55 54.45 101.85 L56.25 110.7 M20.5 111.95 L18.05 109.15 Q20.2 104.6 23.85 101.2 24.15 100.6 24.75 100.3 21.7 105.8 20.5 111.95 M7.95 109.15 Q7.35 105.8 4.9 104.6 3.95 104.3 3.65 104.0 L9.15 100.6 Q8.55 101.85 8.85 103.35 7.65 106.1 7.95 109.15" fill="#bd1472" fill-rule="evenodd" stroke="none"/>
  </g>
  <defs>
    <linearGradient gradientTransform="matrix(0.0, 0.0283, -0.0524, 1.0E-4, 46.8, 71.25)" gradientUnits="userSpaceOnUse" id="gradient0" spreadMethod="pad" x1="-819.2" x2="819.2">
      <stop offset="0.0" stop-color="#ff93be"/>
      <stop offset="1.0" stop-color="#fff5fb"/>
    </linearGradient>
  </defs>
</svg>
