<?xml version="1.0" encoding="UTF-8" standalone="no"?>
<svg xmlns:xlink="http://www.w3.org/1999/xlink" height="236.35px" width="214.5px" xmlns="http://www.w3.org/2000/svg">
  <g transform="matrix(1.0, 0.0, 0.0, 1.0, -33.8, -12.4)">
    <path d="M203.7 95.15 L208.35 105.45 Q209.95 109.65 211.0 114.1 L212.8 124.3 213.25 129.3 Q217.6 150.65 223.0 165.7 230.4 167.55 236.25 173.15 244.35 181.55 245.3 192.2 243.4 183.8 236.9 177.35 L236.7 177.15 Q243.15 185.5 243.15 196.15 243.15 200.35 242.15 204.2 244.5 200.05 245.3 193.8 L245.3 195.75 Q245.3 208.0 236.25 216.7 232.25 221.0 227.5 223.35 220.65 227.6 212.2 227.6 L209.1 227.45 208.3 228.9 Q206.9 234.2 202.65 238.35 196.45 244.8 187.75 244.8 179.0 244.8 172.8 238.35 L171.75 237.25 169.15 235.05 167.8 236.4 Q161.6 243.15 152.9 243.15 144.5 243.15 138.5 236.95 133.4 242.3 126.85 244.0 122.8 245.75 118.05 245.75 109.0 245.75 102.15 238.95 98.45 235.1 96.85 229.95 L96.25 229.95 Q88.05 229.95 82.0 224.2 L80.35 222.65 Q74.2 216.45 74.2 207.65 74.2 205.4 74.6 203.3 68.35 199.0 62.65 193.5 36.8 169.0 36.8 133.8 36.8 124.4 38.7 115.75 L37.75 115.1 Q44.9 95.45 46.75 93.2 L50.4 88.55 Q55.55 80.95 62.65 74.15 L64.65 72.35 Q64.5 71.0 64.5 69.65 64.5 62.65 67.55 57.1 L62.45 53.5 Q58.55 52.75 57.2 53.5 54.4 53.85 52.55 52.05 50.1 50.2 49.35 47.65 49.0 44.75 50.35 42.2 52.05 40.0 54.9 39.65 57.35 38.9 59.85 40.75 61.95 42.2 62.7 45.5 63.05 46.55 64.85 49.85 L70.0 53.4 Q71.3 51.8 72.9 50.3 78.35 45.2 85.2 43.35 L85.5 31.0 82.7 27.0 Q80.6 24.85 80.95 21.95 80.95 19.0 83.05 17.2 85.15 15.4 87.6 15.4 90.4 15.75 92.15 17.2 94.25 19.4 94.25 22.3 94.25 25.2 91.8 27.4 91.1 27.75 89.7 31.35 L89.55 42.45 93.75 42.2 Q105.85 42.2 114.25 50.25 L114.65 50.2 125.2 49.65 Q161.6 49.65 187.4 74.15 197.55 83.9 203.7 95.15 Z" fill="none" stroke="#a90156" stroke-linecap="round" stroke-linejoin="round" stroke-width="6.0"/>
  </g>
</svg>
