<?xml version="1.0" encoding="UTF-8" standalone="no"?>
<svg xmlns:xlink="http://www.w3.org/1999/xlink" height="97.4px" width="71.2px" xmlns="http://www.w3.org/2000/svg">
  <g transform="matrix(1.0, 0.0, 0.0, 1.0, -133.85, 89.0)">
    <path d="M144.35 -83.45 L144.35 -83.9 144.35 -83.2 144.3 -83.3 144.35 -83.45" fill="url(#gradient0)" fill-rule="evenodd" stroke="none"/>
    <path d="M142.25 -77.45 L142.25 -77.7 142.25 -77.8 142.3 -77.8 142.35 -77.75 142.25 -77.7 142.35 -77.7 142.4 -77.4 142.25 -77.45" fill="url(#gradient1)" fill-rule="evenodd" stroke="none"/>
    <path d="M144.35 -83.45 L142.8 -77.2 Q137.45 -54.5 136.15 -38.95 134.8 -23.45 139.5 -15.55 144.15 -7.7 152.8 -2.85 161.4 1.95 174.8 4.7 188.2 7.4 200.4 5.75" fill="none" stroke="#a90156" stroke-linecap="round" stroke-linejoin="round" stroke-width="4.0"/>
    <path d="M142.25 -77.7 L142.25 -77.8 142.3 -77.8 142.35 -77.75 142.25 -77.7" fill="url(#gradient2)" fill-rule="evenodd" stroke="none"/>
    <path d="M201.8 5.3 Q188.2 7.4 174.8 4.7 161.4 1.95 152.8 -2.85 144.15 -7.7 139.5 -15.55 134.8 -23.45 136.15 -38.95 137.45 -54.5 142.25 -75.0 L144.1 -81.7 Q151.95 -76.0 161.35 -72.2 170.7 -68.4 196.85 -67.3 205.9 -26.2 201.8 5.3" fill="#f8deeb" fill-rule="evenodd" stroke="none"/>
    <path d="M144.1 -81.7 L145.55 -86.4 145.5 -86.4 Q146.8 -87.0 149.45 -89.0 155.2 -85.5 160.25 -83.45 165.95 -81.15 173.45 -79.65 178.85 -78.6 194.3 -77.95 L198.55 -77.4 201.2 -62.05 Q203.0 -49.85 204.95 -30.6 205.65 -4.55 201.8 5.3 205.9 -26.2 196.85 -67.3 170.7 -68.4 161.35 -72.2 151.95 -76.0 144.1 -81.7" fill="#eebe00" fill-rule="evenodd" stroke="none"/>
  </g>
  <defs>
    <radialGradient cx="0" cy="0" gradientTransform="matrix(0.0013, 0.0, 0.0, 0.0013, 144.35, -83.55)" gradientUnits="userSpaceOnUse" id="gradient0" r="819.2" spreadMethod="pad">
      <stop offset="0.21176470588235294" stop-color="#e5f5ff"/>
      <stop offset="0.6823529411764706" stop-color="#d7e8f1"/>
      <stop offset="0.8156862745098039" stop-color="#c6d8e0"/>
      <stop offset="1.0" stop-color="#a3b8bd"/>
    </radialGradient>
    <radialGradient cx="0" cy="0" gradientTransform="matrix(0.0595, 0.0133, -0.0121, 0.0651, 179.95, -52.45)" gradientUnits="userSpaceOnUse" id="gradient1" r="819.2" spreadMethod="pad">
      <stop offset="0.21176470588235294" stop-color="#e5f5ff"/>
      <stop offset="0.6823529411764706" stop-color="#d7e8f1"/>
      <stop offset="0.8156862745098039" stop-color="#c6d8e0"/>
      <stop offset="1.0" stop-color="#a3b8bd"/>
    </radialGradient>
    <radialGradient cx="0" cy="0" gradientTransform="matrix(0.0595, 0.0133, -0.0121, 0.0651, 179.95, -52.45)" gradientUnits="userSpaceOnUse" id="gradient2" r="819.2" spreadMethod="pad">
      <stop offset="0.0" stop-color="#7da8bd"/>
      <stop offset="1.0" stop-color="#597379"/>
    </radialGradient>
  </defs>
</svg>
