<?xml version="1.0" encoding="UTF-8" standalone="no"?>
<svg xmlns:xlink="http://www.w3.org/1999/xlink" height="97.3px" width="446.35px" xmlns="http://www.w3.org/2000/svg">
  <g transform="matrix(1.0, 0.0, 0.0, 1.0, -116.85, -295.65)">
    <path d="M147.4 329.7 Q149.1 329.8 151.0 330.4 L151.1 329.8 Q154.55 319.3 160.9 316.2 165.65 316.3 168.5 317.6 173.2 319.8 173.65 325.2 174.3 321.3 176.45 319.5 L176.45 319.45 Q177.25 318.7 178.3 318.2 L178.95 317.95 Q180.35 305.1 189.55 299.5 194.65 297.85 199.45 297.85 203.1 297.8 206.75 298.8 222.0 306.25 222.35 321.5 225.35 318.25 228.45 316.55 233.9 313.4 240.65 313.7 244.55 314.95 247.45 316.45 252.65 319.3 254.85 323.0 257.05 326.5 255.95 330.2 254.9 333.65 252.65 336.2 L249.7 338.8 246.6 341.2 254.4 338.45 255.85 338.0 Q260.35 336.1 261.65 331.3 L261.8 330.7 Q262.1 328.7 261.9 326.75 277.5 327.65 282.2 342.35 285.05 357.55 278.2 366.95 L277.9 367.3 Q273.65 372.9 268.95 374.75 263.65 376.8 256.0 375.05 253.2 374.4 251.55 373.05 249.05 376.35 242.6 377.7 L242.15 377.85 Q234.15 378.4 230.3 374.35 228.15 372.05 227.3 368.5 227.3 373.8 228.5 376.45 218.25 377.8 212.6 371.7 210.15 369.15 208.55 364.65 207.0 369.15 204.3 371.65 195.8 379.15 190.35 375.55 186.9 372.75 183.0 373.2 L177.65 373.2 Q173.2 372.7 171.0 371.7 168.2 370.35 166.4 367.15 164.7 364.2 165.3 359.5 154.85 368.25 144.55 367.9 L144.25 367.9 144.15 367.9 Q138.7 368.05 135.4 365.8 L135.4 365.85 135.35 365.8 133.75 364.45 Q133.15 363.65 132.8 362.4 132.3 360.7 132.5 359.5 129.05 362.85 124.85 362.15 L124.2 361.95 Q120.85 361.05 119.75 358.6 118.45 355.8 121.45 350.2 124.55 348.3 129.85 348.2 L132.6 348.3 132.65 347.8 Q132.8 334.45 147.35 330.3 L147.4 329.7" fill="#ffffff" fill-rule="evenodd" stroke="none"/>
    <path d="M160.9 316.2 Q164.55 314.45 169.2 315.1 L169.45 315.3 Q173.15 315.9 176.45 319.5 174.3 321.3 173.65 325.2 173.2 319.8 168.5 317.6 165.65 316.3 160.9 316.2 M189.55 299.5 Q193.65 296.95 199.5 295.9 L200.05 295.8 207.1 296.05 Q220.4 298.5 228.45 316.55 225.35 318.25 222.35 321.5 222.0 306.25 206.75 298.8 203.1 297.8 199.45 297.85 194.65 297.85 189.55 299.5 M247.45 316.45 L247.95 315.05 Q259.1 317.5 261.4 324.25 L261.9 326.75 261.8 324.0 Q283.5 319.55 294.45 340.4 L294.55 340.75 Q303.1 367.15 279.45 379.55 L279.3 379.85 Q271.65 382.6 263.65 380.05 250.05 391.95 236.1 384.4 L235.95 384.7 Q227.0 398.8 213.0 388.8 L212.75 388.35 Q208.5 384.7 206.7 378.75 194.45 391.05 178.1 387.65 L177.45 387.55 Q162.1 384.35 155.15 375.0 150.45 376.35 144.05 375.0 137.1 373.15 134.2 368.95 119.2 372.45 116.85 360.3 L116.95 360.25 116.85 360.0 Q116.95 353.1 121.45 350.2 118.45 355.8 119.75 358.6 120.85 361.05 124.2 361.95 L124.85 362.15 Q129.05 362.85 132.5 359.5 132.3 360.7 132.8 362.4 133.15 363.65 133.75 364.45 L135.35 365.8 135.4 365.85 135.4 365.8 Q138.7 368.05 144.15 367.9 L144.25 367.9 144.55 367.9 Q154.85 368.25 165.3 359.5 164.7 364.2 166.4 367.15 168.2 370.35 171.0 371.7 173.2 372.7 177.65 373.2 L183.0 373.2 Q186.9 372.75 190.35 375.55 195.8 379.15 204.3 371.65 207.0 369.15 208.55 364.65 210.15 369.15 212.6 371.7 218.25 377.8 228.5 376.45 227.3 373.8 227.3 368.5 228.15 372.05 230.3 374.35 234.15 378.4 242.15 377.85 L242.6 377.7 Q249.05 376.35 251.55 373.05 253.2 374.4 256.0 375.05 263.65 376.8 268.95 374.75 273.65 372.9 277.9 367.3 L278.2 366.95 Q285.05 357.55 282.2 342.35 277.5 327.65 261.9 326.75 262.1 328.7 261.8 330.7 L261.65 331.3 Q260.35 336.1 255.85 338.0 L254.4 338.45 246.6 341.2 249.7 338.8 252.65 336.2 Q254.9 333.65 255.95 330.2 257.05 326.5 254.85 323.0 252.65 319.3 247.45 316.45 M129.85 348.2 Q128.1 337.3 136.15 332.15 L136.4 332.15 Q141.3 329.0 147.4 329.7 L147.35 330.3 Q132.8 334.45 132.65 347.8 L132.6 348.3 129.85 348.2" fill="#dde7e6" fill-rule="evenodd" stroke="none"/>
    <path d="M393.65 361.55 L393.0 357.3 393.45 356.7 393.8 356.5 394.05 338.8 392.65 338.7 Q392.75 334.25 394.0 330.0 L394.25 328.9 394.25 328.95 Q394.65 327.25 395.5 325.6 396.45 322.8 397.8 320.6 L398.45 319.75 Q401.1 315.75 404.3 313.95 405.4 313.25 406.7 312.75 L406.7 312.95 Q408.1 312.25 409.75 312.1 L411.9 311.8 412.4 311.85 412.35 311.8 414.8 311.8 415.6 311.9 420.55 312.5 420.85 312.4 421.4 312.8 421.2 312.8 422.85 313.2 422.7 313.45 Q425.8 312.6 429.4 312.8 L429.85 312.9 430.05 312.95 430.35 313.0 435.75 314.15 436.75 314.5 Q438.9 315.3 440.2 316.75 442.8 315.6 446.05 315.55 L449.5 315.75 451.05 316.0 451.35 316.15 449.7 315.9 451.45 316.25 452.05 316.6 451.9 316.3 451.85 316.15 453.2 316.4 451.9 316.3 Q454.9 317.1 455.5 317.65 456.55 318.65 457.05 320.25 459.0 323.8 458.95 332.25 458.65 333.05 458.2 333.1 L458.15 332.7 458.1 333.0 458.15 333.8 457.8 334.15 457.85 335.2 457.75 353.7 458.3 353.85 458.35 354.35 458.35 358.8 443.1 368.35 442.55 368.9 442.55 369.15 394.3 362.2 Q393.5 361.9 393.65 361.55 M458.25 330.6 L458.15 332.55 458.15 332.7 458.15 332.55 458.25 330.6 M454.6 318.0 L454.5 318.0 455.35 318.55 454.6 318.0 M393.6 362.95 L394.3 362.2 Q394.55 363.65 394.0 363.35 L393.7 363.15 393.6 362.95 M421.2 312.8 L421.1 312.85 Q421.0 312.85 421.05 312.95 L421.2 312.8 421.05 312.95 Q421.0 312.85 421.1 312.85 L421.2 312.8 M405.95 336.6 L406.1 336.7 406.1 336.05 Q405.95 336.25 405.95 336.6" fill="#ffe873" fill-rule="evenodd" stroke="none"/>
    <path d="M421.2 312.8 L421.4 312.8 420.85 312.4 420.55 312.5 415.6 311.9 414.8 311.8 412.35 311.8 412.4 311.85 411.9 311.8 409.75 312.1 Q408.1 312.25 406.7 312.95 L406.7 312.75 Q405.4 313.25 404.3 313.95 401.1 315.75 398.45 319.75 L397.8 320.6 Q396.45 322.8 395.5 325.6 394.65 327.25 394.25 328.95 L394.25 328.9 394.0 330.0 Q392.75 334.25 392.65 338.7 L394.05 338.8 393.8 356.5 393.45 356.7 393.0 357.3 393.65 361.55 M394.3 362.2 L442.55 369.15 442.55 368.9 443.1 368.35 458.35 358.8 458.35 354.35 458.3 353.85 457.75 353.7 457.85 335.2 457.8 334.15 458.15 333.8 458.1 333.0 458.15 332.7 458.15 332.55 458.25 330.6 M451.45 316.25 L449.7 315.9 M449.5 315.75 L446.05 315.55 Q442.8 315.6 440.2 316.75 438.9 315.3 436.75 314.5 L435.75 314.15 430.35 313.0 430.05 312.95 429.85 312.9 429.4 312.8 Q425.8 312.6 422.7 313.45 L422.85 313.2 421.2 312.8 421.05 312.95 Q421.0 312.85 421.1 312.85 L421.2 312.8 M451.9 316.3 Q454.9 317.1 455.5 317.65 456.55 318.65 457.05 320.25 459.0 323.8 458.95 332.25 458.65 333.05 458.2 333.1 L458.15 332.7 M451.9 316.3 L451.45 316.25" fill="none" stroke="#3f1818" stroke-linecap="round" stroke-linejoin="round" stroke-width="2.0"/>
    <path d="M456.25 358.75 L441.65 368.5 441.9 333.0 456.9 325.6 456.25 358.75" fill="#5c150c" fill-rule="evenodd" stroke="none"/>
    <path d="M442.05 342.15 L441.7 366.6 395.0 361.7 394.9 337.05 442.05 342.15" fill="#963325" fill-rule="evenodd" stroke="none"/>
    <path d="M434.65 341.3 L442.05 342.15 441.7 366.6 395.0 361.7 394.9 356.4 Q411.6 356.6 418.95 354.55 430.4 351.35 434.65 341.3" fill="#7a291e" fill-rule="evenodd" stroke="none"/>
    <path d="M434.65 341.3 Q430.4 351.35 418.95 354.55 411.6 356.6 394.9 356.4 L394.9 337.05 434.65 341.3" fill="#c73420" fill-rule="evenodd" stroke="none"/>
    <path d="M457.05 334.1 Q457.35 333.95 457.3 334.15 L456.65 359.25 456.45 359.45 456.15 358.85 456.5 334.4 Q456.85 334.1 457.05 334.1" fill="#de9b43" fill-rule="evenodd" stroke="none"/>
    <path d="M457.05 343.9 L456.95 350.45 456.25 352.2 456.35 346.45 457.05 343.9" fill="#edd55f" fill-rule="evenodd" stroke="none"/>
    <path d="M457.65 333.65 Q457.8 333.45 457.75 335.2 L457.6 358.8 456.85 358.85 Q456.7 358.6 456.7 356.25 L457.2 334.15 Q457.25 333.6 457.65 333.65" fill="#a36428" fill-rule="evenodd" stroke="none"/>
    <path d="M458.2 353.9 L457.45 354.5 457.45 353.6 458.2 353.9" fill="#995e25" fill-rule="evenodd" stroke="none"/>
    <path d="M458.0 333.45 L440.2 342.5 Q440.75 335.85 443.45 328.3 444.35 325.3 447.1 322.35 449.9 319.15 452.9 318.6 456.8 317.65 457.75 325.45 458.3 329.4 458.0 333.45" fill="#5c150c" fill-rule="evenodd" stroke="none"/>
    <path d="M458.1 333.8 L441.1 344.3 439.85 341.65 458.0 333.0 458.1 333.8" fill="#b06c2b" fill-rule="evenodd" stroke="none"/>
    <path d="M443.35 340.8 L442.45 369.1 439.25 368.75 439.7 340.6 443.35 340.8" fill="#ffd53f" fill-rule="evenodd" stroke="none"/>
    <path d="M439.7 340.6 L441.8 340.75 Q440.9 346.65 440.75 356.05 L440.45 367.7 Q440.25 368.1 439.8 367.95 L439.15 367.2 439.3 365.75 439.7 340.6" fill="#ffad3f" fill-rule="evenodd" stroke="none"/>
    <path d="M439.45 354.9 L440.8 352.4 440.7 358.85 439.35 360.55 439.45 354.9" fill="#ffe873" fill-rule="evenodd" stroke="none"/>
    <path d="M440.75 356.6 Q440.9 346.85 441.8 340.75 L443.35 340.8 442.5 366.0 Q442.7 367.05 442.35 367.45 L441.55 367.55 Q441.0 367.5 440.8 367.3 440.3 366.85 440.6 364.7 L440.75 356.6" fill="#bf752f" fill-rule="evenodd" stroke="none"/>
    <path d="M394.05 336.05 L396.15 336.15 Q395.4 341.65 395.25 350.15 L395.0 361.05 394.5 361.95 Q394.05 362.35 393.65 361.75 L394.05 336.05" fill="#ffad3f" fill-rule="evenodd" stroke="none"/>
    <path d="M393.8 350.35 L395.3 347.85 395.2 354.25 393.7 356.1 393.8 350.35" fill="#ffe873" fill-rule="evenodd" stroke="none"/>
    <path d="M396.15 336.15 L397.7 336.35 397.0 360.8 Q396.95 362.35 396.35 362.6 L395.25 362.45 Q394.8 362.0 395.0 361.25 L395.05 356.95 Q395.5 340.55 396.15 336.15" fill="#bf752f" fill-rule="evenodd" stroke="none"/>
    <path d="M405.5 338.95 Q405.4 334.35 406.0 331.05 407.2 324.9 412.3 319.9 416.75 316.5 419.4 315.25 423.7 313.5 428.9 313.85 437.3 314.6 440.15 318.2 441.5 320.0 441.3 321.65 L434.1 341.8 407.7 339.7 Q405.4 339.3 405.5 338.95" fill="#963325" fill-rule="evenodd" stroke="none"/>
    <path d="M413.65 330.25 Q407.85 329.6 411.05 324.65 414.15 319.65 419.55 315.25 423.7 313.4 428.9 313.85 433.2 314.2 436.2 315.45 434.35 316.65 426.95 323.75 419.4 330.8 413.65 330.25" fill="#e3351e" fill-rule="evenodd" stroke="none"/>
    <path d="M396.95 335.6 L436.35 339.6 Q437.45 339.7 437.6 340.0 437.8 340.4 437.6 341.2 L437.4 341.35 Q437.4 341.9 436.75 342.1 L434.65 341.75 395.65 337.9 Q393.9 337.75 393.65 337.35 393.25 336.75 393.95 335.85 394.25 335.3 395.25 335.45 L396.95 335.6" fill="#f0a33b" fill-rule="evenodd" stroke="none"/>
    <path d="M403.75 339.9 Q404.2 333.85 406.5 327.35 411.25 314.45 421.05 312.85 L422.8 313.25 418.75 314.9 Q414.3 317.2 412.25 320.05 407.85 326.15 406.4 333.3 405.7 336.85 405.85 339.25 L403.75 339.9" fill="#b57a2d" fill-rule="evenodd" stroke="none"/>
    <path d="M420.7 312.5 L418.05 312.95 Q410.55 315.35 406.4 327.9 404.3 334.05 403.75 339.9 L392.55 338.7 Q392.75 332.15 395.3 325.55 400.4 312.35 411.85 311.85 L420.7 312.5" fill="#ffad3f" fill-rule="evenodd" stroke="none"/>
    <path d="M418.6 312.15 Q416.4 312.65 414.25 314.05 L410.2 316.9 Q410.9 316.25 411.35 314.65 411.95 312.4 412.3 311.75 L418.6 312.15" fill="#ffe873" fill-rule="evenodd" stroke="none"/>
    <path d="M407.45 325.0 Q404.5 332.25 403.75 339.9 400.75 332.8 397.75 320.6 401.15 314.9 406.6 312.85 404.45 318.55 407.45 325.0" fill="#ffe873" fill-rule="evenodd" stroke="none"/>
    <path d="M392.55 338.7 Q392.7 334.25 394.15 328.85 394.25 336.3 395.75 339.05 L392.55 338.7" fill="#ffe873" fill-rule="evenodd" stroke="none"/>
    <path d="M402.55 339.8 Q404.35 328.85 408.5 321.8 413.5 312.9 420.8 312.4 L421.25 312.75 418.05 313.75 Q410.5 316.65 406.35 328.55 404.3 334.5 403.75 339.9 L402.55 339.8" fill="#fff1a6" fill-rule="evenodd" stroke="none"/>
    <path d="M420.3 330.05 Q421.35 328.55 422.45 327.85 423.8 327.45 424.75 328.25 425.35 328.6 426.3 330.1 427.05 331.25 425.15 333.5 L422.8 335.45 Q421.3 336.5 421.1 337.35 420.85 338.55 418.95 338.6 L416.2 338.4 413.65 338.0 413.1 337.85 412.65 336.0 Q412.5 334.75 411.5 333.75 L410.4 333.1 409.7 332.1 Q409.35 330.65 410.5 328.55 411.8 326.4 414.05 327.05 414.6 327.25 415.15 329.05 L415.85 331.7 Q416.3 332.75 417.4 332.85 418.4 332.95 418.85 332.35 L420.3 330.05" fill="#ffad3f" fill-rule="evenodd" stroke="none"/>
    <path d="M416.2 332.15 L414.75 336.45 Q413.0 335.75 412.4 335.1 L412.15 334.5 415.3 330.3 415.85 331.7 416.2 332.15" fill="#ffcf55" fill-rule="evenodd" stroke="none"/>
    <path d="M412.4 335.1 Q412.9 335.55 414.75 336.45 L414.65 336.55 412.75 337.0 412.65 336.0 412.4 335.1" fill="#bf8130" fill-rule="evenodd" stroke="none"/>
    <path d="M414.2 338.15 L413.1 337.85 Q412.75 337.45 412.75 337.0 L414.65 336.55 414.2 338.15" fill="#bf8130" fill-rule="evenodd" stroke="none"/>
    <path d="M414.65 336.55 Q418.7 335.45 425.95 332.6 L425.15 333.5 422.8 335.45 Q421.3 336.5 421.1 337.35 420.85 338.55 418.95 338.6 L416.2 338.4 414.2 338.15 414.65 336.55" fill="#8f6024" fill-rule="evenodd" stroke="none"/>
    <path d="M422.45 327.85 Q424.0 327.45 425.1 328.5 423.3 331.4 422.3 332.4 L422.1 328.15 422.45 327.85" fill="#ffcf55" fill-rule="evenodd" stroke="none"/>
    <path d="M415.15 329.05 L415.85 331.7 Q416.3 332.75 417.4 332.85 418.4 332.95 418.85 332.35 L420.3 330.05 Q421.35 328.55 422.45 327.85 423.8 327.45 424.75 328.25 425.35 328.6 426.3 330.1 426.6 330.85 426.5 331.55 424.9 329.45 423.9 328.9 421.9 327.95 420.3 331.4 419.75 332.9 419.0 333.15 L416.8 333.45 Q415.6 333.65 414.65 331.0 413.5 328.1 413.15 328.0 411.8 327.15 410.2 329.95 409.75 330.7 409.7 332.1 409.35 330.65 410.5 328.55 411.8 326.4 414.05 327.05 414.6 327.25 415.15 329.05" fill="#ffe873" fill-rule="evenodd" stroke="none"/>
    <path d="M445.35 316.65 L448.8 316.75 452.75 317.55 Q453.55 318.0 454.3 318.25 L453.9 318.1 Q452.0 317.55 449.6 318.85 447.2 320.15 444.45 322.95 441.75 325.75 439.6 332.75 437.55 339.7 437.1 345.25 L426.9 344.1 Q427.05 337.25 429.5 330.4 434.1 316.6 445.35 316.65" fill="#ffad3f" fill-rule="evenodd" stroke="none"/>
    <path d="M427.55 343.1 Q427.6 338.2 429.15 332.6 429.05 339.7 430.35 343.4 L427.55 343.1" fill="#ffe873" fill-rule="evenodd" stroke="none"/>
    <path d="M440.15 316.85 Q436.85 323.0 440.05 331.5 438.2 337.6 437.85 343.1 432.05 333.45 431.45 325.9 434.95 319.05 440.15 316.85" fill="#ffe873" fill-rule="evenodd" stroke="none"/>
    <path d="M446.5 315.65 L451.85 316.0 Q449.7 316.8 448.35 318.65 L446.8 319.8 Q446.4 316.85 446.5 315.65" fill="#ffe873" fill-rule="evenodd" stroke="none"/>
    <path d="M457.9 327.0 Q457.1 320.7 454.9 319.25 453.65 318.4 451.35 319.5 448.85 320.7 446.45 323.65 442.55 328.75 441.3 336.6 440.55 340.5 440.75 343.45 L438.85 344.35 439.45 339.05 Q440.25 332.6 442.9 327.55 445.4 322.75 448.8 319.7 451.7 317.1 454.4 317.95 459.0 319.35 458.9 332.2 458.55 333.1 458.1 333.15 L457.9 327.0" fill="#b57a2d" fill-rule="evenodd" stroke="none"/>
    <path d="M449.45 317.95 Q444.65 321.15 441.15 330.05 437.7 338.75 438.85 344.35 L437.75 344.2 Q438.15 338.7 439.55 333.3 441.8 324.65 445.95 320.55 447.35 319.05 449.45 317.95" fill="#fff2b0" fill-rule="evenodd" stroke="none"/>
    <path d="M453.95 316.8 Q454.6 316.85 455.5 317.65 456.45 318.6 457.0 320.25 455.9 318.45 454.6 317.95 L452.9 317.95 Q450.8 318.1 448.8 319.7 445.75 322.2 442.9 327.55 440.25 332.6 439.45 339.05 L438.85 344.35 Q437.7 338.75 441.15 330.05 444.65 321.15 449.45 317.95 451.6 316.9 453.95 316.8" fill="#fff2b0" fill-rule="evenodd" stroke="none"/>
    <path d="M423.85 339.3 L414.45 338.45 406.9 337.15 407.0 336.35 427.15 338.5 426.95 339.2 423.85 339.3" fill="#ffcf55" fill-rule="evenodd" stroke="none"/>
    <path d="M411.1 335.35 L410.65 336.2 Q409.65 338.2 410.6 339.95 411.35 341.75 410.45 341.75 L409.25 341.5 Q408.5 341.2 408.4 340.9 408.05 340.05 407.95 339.05 407.8 337.25 408.7 334.7 408.95 333.95 409.85 333.8 410.85 333.7 411.15 334.5 411.4 334.85 411.1 335.35" fill="#ffad3f" fill-rule="evenodd" stroke="none"/>
    <path d="M422.8 336.45 Q423.0 335.65 424.0 335.6 424.9 335.5 425.35 336.3 425.55 336.65 425.2 337.15 L424.75 338.0 Q423.9 340.15 424.7 341.75 425.4 343.5 424.5 343.5 L423.3 343.25 422.45 342.65 422.15 340.85 Q421.95 339.0 422.8 336.45" fill="#ffad3f" fill-rule="evenodd" stroke="none"/>
    <path d="M422.45 342.1 L422.6 342.1 Q421.8 341.45 422.2 339.05 422.55 335.9 423.9 336.65 424.4 337.0 424.2 338.15 L423.8 340.1 423.8 342.0 Q423.55 343.1 422.45 342.1" fill="#ffe873" fill-rule="evenodd" stroke="none"/>
    <path d="M442.75 362.6 L442.65 368.05 Q442.35 369.2 440.65 369.05 L395.15 363.15 393.25 362.15 393.05 362.05 392.7 361.35 392.45 357.3 392.9 356.8 Q393.45 356.35 394.45 356.3 396.0 356.35 397.1 357.5 L438.2 362.0 Q438.55 361.95 438.75 361.7 L440.45 361.5 Q441.85 361.5 442.75 362.6" fill="#b57a2d" fill-rule="evenodd" stroke="none"/>
    <path d="M392.7 361.75 L392.45 357.3 392.9 356.8 Q393.45 356.35 394.45 356.3 L392.7 361.75" fill="#ffe873" fill-rule="evenodd" stroke="none"/>
    <path d="M442.2 363.1 Q442.85 363.15 442.95 363.55 443.15 364.35 442.95 366.1 L442.35 368.45 Q441.9 369.15 440.65 369.05 L438.55 368.7 398.0 363.7 Q394.6 363.3 393.5 362.55 392.35 361.7 392.75 360.2 392.95 358.6 393.7 357.75 394.35 357.0 395.85 358.35 L438.65 362.85 441.1 362.95 442.2 363.1" fill="#ffe873" fill-rule="evenodd" stroke="none"/>
    <path d="M404.45 364.4 L397.35 363.25 397.2 359.5 400.15 359.0 404.45 364.4" fill="#ffad3f" fill-rule="evenodd" stroke="none"/>
    <path d="M422.95 366.55 L421.35 361.35 426.75 361.85 430.6 367.45 422.95 366.55" fill="#ffad3f" fill-rule="evenodd" stroke="none"/>
    <path d="M430.25 362.0 L432.45 362.15 437.9 368.4 434.8 368.1 432.75 365.05 Q430.6 362.05 430.25 362.0" fill="#ffad3f" fill-rule="evenodd" stroke="none"/>
    <path d="M441.0 363.65 L394.35 358.5 394.35 357.7 441.0 362.85 441.0 363.65" fill="#fff2b0" fill-rule="evenodd" stroke="none"/>
    <path d="M442.1 368.9 L440.9 368.75 441.0 362.85 442.2 363.0 442.1 368.9" fill="#fff2b0" fill-rule="evenodd" stroke="none"/>
    <path d="M458.3 354.35 L458.25 358.8 441.8 369.05 441.9 363.3 458.3 354.35" fill="#b06c2b" fill-rule="evenodd" stroke="none"/>
    <path d="M447.35 360.25 L449.35 359.2 Q450.6 360.05 453.8 361.5 L450.4 363.7 Q449.1 361.75 447.35 360.25" fill="#f0aa4d" fill-rule="evenodd" stroke="none"/>
    <path d="M455.4 358.9 L454.05 356.5 Q455.65 355.85 457.2 355.0 L457.1 359.3 Q456.1 360.2 455.4 358.9" fill="#f0aa4d" fill-rule="evenodd" stroke="none"/>
    <path d="M458.3 354.35 L458.25 358.8 453.8 361.5 Q450.6 360.05 449.35 359.2 L454.05 356.5 455.4 358.9 Q456.1 360.2 457.1 359.3 L457.2 355.0 458.3 354.35" fill="#b06c2b" fill-rule="evenodd" stroke="none"/>
    <path d="M447.35 360.25 Q449.1 361.75 450.4 363.7 L441.8 369.05 441.9 363.3 447.35 360.25" fill="#b06c2b" fill-rule="evenodd" stroke="none"/>
    <path d="M458.2 353.9 L458.3 354.35 441.9 363.3 441.9 361.85 458.2 353.9" fill="#f0aa4d" fill-rule="evenodd" stroke="none"/>
    <path d="M414.95 346.35 L416.0 348.8 Q416.25 349.25 416.1 349.35 L415.9 350.0 415.6 352.4 415.25 351.5 414.1 349.45 Q414.0 349.25 414.6 348.3 L414.95 346.35" fill="#b57a2d" fill-rule="evenodd" stroke="none"/>
    <path d="M421.9 349.8 Q421.9 351.9 419.85 353.3 417.85 354.65 415.2 354.35 412.5 354.05 410.55 352.55 408.55 350.85 408.6 348.85 408.65 346.65 410.65 345.25 412.65 343.65 415.35 343.95 418.0 344.25 419.95 346.0 421.95 347.7 421.9 349.8" fill="#ffb654" fill-rule="evenodd" stroke="none"/>
    <path d="M413.8 342.85 L418.55 343.1 Q422.0 343.7 424.35 346.5 426.7 349.2 426.4 352.05 425.85 358.55 416.7 357.5 411.25 356.9 408.6 354.0 406.1 351.15 407.05 347.95 408.1 344.5 413.8 342.85" fill="#ffad3f" fill-rule="evenodd" stroke="none"/>
    <path d="M422.65 345.0 Q424.45 346.4 425.45 348.25 426.55 350.3 426.4 352.05 425.85 358.55 416.7 357.5 411.35 356.95 408.6 354.0 406.2 351.25 407.05 347.95 407.75 345.75 410.35 344.2 408.3 345.65 407.8 347.9 407.35 349.85 408.2 351.75 410.35 356.35 417.45 356.5 420.65 356.5 422.95 354.75 425.75 352.65 425.05 349.1 424.7 347.45 423.9 346.45 L422.65 345.0" fill="#ab692a" fill-rule="evenodd" stroke="none"/>
    <path d="M409.0 353.0 Q410.7 355.55 415.35 356.05 L420.55 355.75 Q422.6 354.85 423.5 353.95 L424.75 351.85 Q425.0 350.9 424.9 349.45 424.9 348.65 424.25 347.5 L423.2 345.8 421.65 344.45 Q422.4 344.1 424.15 346.55 425.35 348.4 425.3 349.95 L425.2 351.25 Q424.5 354.7 420.8 356.3 L415.35 356.7 Q410.9 356.25 408.85 353.35 407.45 351.2 407.5 349.1 407.55 346.55 409.95 344.7 L412.35 343.25 412.45 343.45 411.8 343.65 409.5 345.4 Q407.75 347.1 407.7 349.3 407.65 351.1 409.0 353.0" fill="#ffe873" fill-rule="evenodd" stroke="none"/>
    <path d="M423.65 350.4 Q423.6 352.85 421.4 354.3 419.1 355.8 416.15 355.45 413.05 355.1 411.1 353.45 408.85 351.65 408.9 349.35 408.95 346.9 411.2 345.3 413.35 343.55 416.35 343.85 419.3 344.2 421.5 346.1 423.7 348.05 423.65 350.4" fill="#ab692a" fill-rule="evenodd" stroke="none"/>
    <path d="M422.85 350.35 Q422.8 352.8 420.6 354.2 418.45 355.6 415.45 355.3 L413.05 354.8 412.25 354.4 Q408.4 352.3 408.9 348.35 409.3 346.2 411.8 344.55 413.65 343.65 415.65 343.9 418.55 344.2 420.7 346.1 422.9 348.0 422.85 350.35" fill="#ffb654" fill-rule="evenodd" stroke="none"/>
    <path d="M408.35 349.3 Q408.4 346.1 411.8 344.55 409.3 346.2 408.9 348.35 408.4 352.3 412.25 354.4 L413.05 354.8 Q408.3 352.95 408.35 349.3" fill="#ffe9cc" fill-rule="evenodd" stroke="none"/>
    <path d="M415.5 345.3 Q417.25 348.45 417.0 349.9 416.8 351.55 415.75 353.75 414.0 350.35 414.0 349.25 413.9 348.55 414.75 346.9 L415.5 345.3" fill="#5c3817" fill-rule="evenodd" stroke="none"/>
    <path d="M415.95 346.1 Q417.4 348.5 417.0 349.9 L415.95 353.35 414.9 349.45 415.95 346.1" fill="#2e1c0b" fill-rule="evenodd" stroke="none"/>
    <path d="M457.35 333.2 Q460.2 332.0 463.8 332.5 L464.0 332.55 Q466.85 333.0 469.45 335.3 467.75 336.45 467.3 339.05 466.85 335.5 463.25 334.1 461.0 333.25 457.35 333.2 M479.6 322.35 Q482.8 320.75 487.4 320.05 L487.8 319.95 493.3 320.1 Q503.6 321.7 509.95 333.4 507.5 334.5 505.15 336.6 504.85 326.7 493.05 321.85 L487.35 321.2 Q483.55 321.2 479.6 322.35 M524.7 333.35 L525.15 332.45 Q533.85 334.05 535.55 338.4 L536.0 340.0 535.9 338.3 Q552.75 335.35 561.35 348.95 L561.4 349.05 Q568.1 366.25 549.65 374.25 L549.5 374.45 Q543.6 376.3 537.4 374.6 526.75 382.35 515.85 377.45 L515.8 377.7 Q508.75 386.8 497.9 380.3 L497.7 380.05 Q494.35 377.7 492.95 373.8 483.45 381.8 470.7 379.55 L470.2 379.5 Q458.25 377.4 452.85 371.35 449.2 372.25 444.15 371.35 438.8 370.15 436.5 367.35 424.8 369.75 423.0 361.8 L423.1 361.8 423.0 361.6 Q423.1 357.15 426.55 355.25 424.25 358.9 425.3 360.7 426.15 362.35 428.7 362.9 L429.25 363.0 Q432.55 363.5 435.2 361.3 435.05 362.1 435.4 363.15 L436.15 364.5 Q436.6 364.95 437.4 365.4 440.05 366.8 444.25 366.75 L444.3 366.75 444.6 366.75 Q452.6 366.95 460.75 361.3 460.25 364.3 461.55 366.25 462.95 368.35 465.2 369.25 466.85 369.9 470.35 370.15 L474.5 370.15 Q477.6 369.95 480.25 371.7 484.45 374.05 491.1 369.2 493.2 367.6 494.45 364.65 495.7 367.6 497.55 369.25 502.0 373.2 509.95 372.3 509.05 370.6 509.05 367.15 509.65 369.45 511.35 370.9 514.35 373.55 520.6 373.2 L520.95 373.15 Q525.95 372.25 527.9 370.1 529.15 370.9 531.4 371.4 537.4 372.5 541.5 371.2 545.1 369.95 548.45 366.4 L548.65 366.1 Q554.0 360.0 551.8 350.2 548.15 340.65 536.0 340.0 536.15 341.25 535.9 342.6 L535.8 343.0 Q534.75 346.05 531.25 347.35 L530.15 347.6 524.1 349.4 Q525.7 348.35 526.45 347.9 L528.75 346.15 Q530.55 344.55 531.3 342.25 532.15 339.9 530.5 337.6 528.75 335.2 524.7 333.35 M433.15 353.95 Q431.8 346.9 438.05 343.55 L438.25 343.55 Q442.1 341.5 446.8 341.95 L446.75 342.3 Q435.4 345.05 435.35 353.75 L435.25 354.0 433.15 353.95" fill="#dde7e6" fill-rule="evenodd" stroke="none"/>
    <path d="M469.45 335.3 Q470.05 334.85 470.9 334.5 L471.4 334.3 Q472.45 325.95 479.6 322.35 483.55 321.2 487.35 321.2 L493.05 321.85 Q504.85 326.7 505.15 336.6 507.5 334.5 509.95 333.4 514.15 331.4 519.4 331.6 522.5 332.35 524.7 333.35 528.75 335.2 530.5 337.6 532.15 339.9 531.3 342.25 530.55 344.55 528.75 346.15 L526.45 347.9 Q525.7 348.35 524.1 349.4 L530.15 347.6 531.25 347.35 Q534.75 346.05 535.8 343.0 L535.9 342.6 Q536.15 341.25 536.0 340.0 548.15 340.65 551.8 350.2 554.0 360.0 548.65 366.1 L548.45 366.4 Q545.1 369.95 541.5 371.2 537.4 372.5 531.4 371.4 529.15 370.9 527.9 370.1 525.95 372.25 520.95 373.15 L520.6 373.2 Q514.35 373.55 511.35 370.9 509.65 369.45 509.05 367.15 509.05 370.6 509.95 372.3 502.0 373.2 497.55 369.25 495.7 367.6 494.45 364.65 493.2 367.6 491.1 369.2 484.45 374.05 480.25 371.7 477.6 369.95 474.5 370.15 L470.35 370.15 Q466.85 369.9 465.2 369.25 462.95 368.35 461.55 366.25 460.25 364.3 460.75 361.3 452.6 366.95 444.6 366.75 L444.3 366.75 444.25 366.75 Q440.05 366.8 437.4 365.4 436.6 364.95 436.15 364.5 L435.4 363.15 Q435.05 362.1 435.2 361.3 432.55 363.5 429.25 363.0 L428.7 362.9 Q426.15 362.35 425.3 360.7 424.25 358.9 426.55 355.25 429.0 354.0 433.15 353.95 L435.25 354.0 435.35 353.75 Q435.4 345.05 446.75 342.3 L446.8 341.95 449.6 342.4 449.65 342.05 Q452.4 335.2 457.35 333.2 461.0 333.25 463.25 334.1 466.85 335.5 467.3 339.05 467.75 336.45 469.45 335.3" fill="#ffffff" fill-rule="evenodd" stroke="none"/>
    <path d="M413.55 353.1 Q416.05 351.85 419.25 352.0 421.1 352.45 422.45 353.05 424.9 354.15 425.95 355.6 426.95 357.0 426.45 358.4 425.95 359.8 424.9 360.75 424.4 361.25 423.5 361.8 L422.05 362.75 425.7 361.65 426.4 361.5 Q428.5 360.75 429.1 358.9 L429.2 358.65 429.25 357.05 Q436.6 357.45 438.8 363.2 440.15 369.15 436.9 372.8 L436.75 373.0 Q434.75 375.15 432.55 375.9 430.1 376.7 426.5 376.0 425.15 375.7 424.4 375.2 423.2 376.5 420.2 377.05 L419.95 377.1 Q416.2 377.3 414.4 375.7 413.35 374.85 413.0 373.45 413.0 375.5 413.55 376.55 408.75 377.1 406.05 374.7 404.95 373.7 404.15 371.95 403.4 373.7 402.15 374.65 398.15 377.6 395.6 376.2 394.0 375.15 392.15 375.25 L389.65 375.25 386.55 374.7 Q385.2 374.15 384.35 372.9 383.55 371.75 383.85 369.95 378.95 373.35 374.1 373.2 L373.95 373.2 373.9 373.2 Q371.35 373.25 369.75 372.4 L369.0 371.85 368.55 371.0 368.4 369.95 Q366.85 371.25 364.85 370.95 L364.5 370.9 Q362.95 370.55 362.45 369.55 361.85 368.45 363.2 366.25 364.7 365.5 367.2 365.45 L368.45 365.5 368.5 365.35 Q368.55 360.1 375.4 358.45 L375.45 358.25 377.1 358.5 377.15 358.3 Q378.8 354.15 381.8 352.95 L385.35 353.5 Q387.55 354.35 387.8 356.5 388.1 354.95 389.1 354.2 L389.95 353.75 390.25 353.65 Q390.9 348.6 395.2 346.4 L399.9 345.75 403.35 346.1 Q410.45 349.05 410.65 355.0 412.05 353.75 413.55 353.1" fill="#ffffff" fill-rule="evenodd" stroke="none"/>
    <path d="M395.2 346.4 Q397.15 345.45 399.95 345.0 L400.2 344.95 403.5 345.05 Q409.7 346.0 413.55 353.1 412.05 353.75 410.65 355.0 410.45 349.05 403.35 346.1 L399.9 345.75 395.2 346.4 M422.45 353.05 L422.7 352.5 Q427.95 353.45 429.0 356.1 L429.25 357.05 429.2 356.0 Q439.35 354.25 444.55 362.45 L444.6 362.55 Q448.6 372.9 437.5 377.75 L437.4 377.85 Q433.85 378.95 430.1 377.95 423.65 382.6 417.1 379.65 L417.05 379.8 Q412.8 385.3 406.25 381.4 L406.15 381.25 Q404.15 379.8 403.3 377.45 397.55 382.3 389.85 380.95 L389.55 380.9 Q382.35 379.65 379.1 375.95 376.85 376.5 373.85 375.95 370.6 375.25 369.2 373.6 362.15 375.0 361.05 370.2 L361.1 370.2 361.05 370.1 Q361.1 367.4 363.2 366.25 361.85 368.45 362.45 369.55 362.95 370.55 364.5 370.9 L364.85 370.95 Q366.85 371.25 368.4 369.95 L368.55 371.0 369.0 371.85 369.75 372.4 Q371.35 373.25 373.9 373.2 L373.95 373.2 374.1 373.2 Q378.95 373.35 383.85 369.95 383.55 371.75 384.35 372.9 385.2 374.15 386.55 374.7 L389.65 375.25 392.15 375.25 Q394.0 375.15 395.6 376.2 398.15 377.6 402.15 374.65 403.4 373.7 404.15 371.95 404.95 373.7 406.05 374.7 408.75 377.1 413.55 376.55 413.0 375.5 413.0 373.45 413.35 374.85 414.4 375.7 416.2 377.3 419.95 377.1 L420.2 377.05 Q423.2 376.5 424.4 375.2 425.15 375.7 426.5 376.0 430.1 376.7 432.55 375.9 434.75 375.15 436.75 373.0 L436.9 372.8 Q440.15 369.15 438.8 363.2 436.6 357.45 429.25 357.05 L429.2 358.65 429.1 358.9 Q428.5 360.75 426.4 361.5 L425.7 361.65 422.05 362.75 423.5 361.8 Q424.4 361.25 424.9 360.75 425.95 359.8 426.45 358.4 426.95 357.0 425.95 355.6 424.9 354.15 422.45 353.05 M367.2 365.45 Q366.35 361.25 370.15 359.2 L370.25 359.2 Q372.6 357.95 375.45 358.25 L375.4 358.45 Q368.55 360.1 368.5 365.35 L368.45 365.5 367.2 365.45 M381.8 352.95 Q383.5 352.25 385.7 352.55 L385.8 352.6 Q387.55 352.85 389.1 354.2 388.1 354.95 387.8 356.5 387.55 354.35 385.35 353.5 L381.8 352.95" fill="#dde7e6" fill-rule="evenodd" stroke="none"/>
  </g>
</svg>
