<?xml version="1.0" encoding="UTF-8" standalone="no"?>
<svg xmlns:xlink="http://www.w3.org/1999/xlink" height="49.0px" width="49.0px" xmlns="http://www.w3.org/2000/svg">
  <g transform="matrix(1.0, 0.0, 0.0, 1.0, 4.25, 3.85)">
    <path d="M14.75 0.15 L25.75 0.15 Q31.95 0.15 36.35 4.55 40.75 8.95 40.75 15.15 L40.75 26.15 Q40.75 32.35 36.35 36.75 31.95 41.15 25.75 41.15 L14.75 41.15 Q8.55 41.15 4.15 36.75 -0.25 32.35 -0.25 26.15 L-0.25 15.15 Q-0.25 8.95 4.15 4.55 8.55 0.15 14.75 0.15" fill="url(#gradient0)" fill-rule="evenodd" stroke="none"/>
    <path d="M14.75 0.15 Q8.55 0.15 4.15 4.55 -0.25 8.95 -0.25 15.15 L-0.25 26.15 Q-0.25 32.35 4.15 36.75 8.55 41.15 14.75 41.15 L25.75 41.15 Q31.95 41.15 36.35 36.75 40.75 32.35 40.75 26.15 L40.75 15.15 Q40.75 8.95 36.35 4.55 31.95 0.15 25.75 0.15 L14.75 0.15 Z" fill="none" stroke="#ffffff" stroke-linecap="round" stroke-linejoin="round" stroke-width="8.0"/>
    <path d="M14.75 0.15 L25.75 0.15 Q31.95 0.15 36.35 4.55 40.75 8.95 40.75 15.15 L40.75 26.15 Q40.75 32.35 36.35 36.75 31.95 41.15 25.75 41.15 L14.75 41.15 Q8.55 41.15 4.15 36.75 -0.25 32.35 -0.25 26.15 L-0.25 15.15 Q-0.25 8.95 4.15 4.55 8.55 0.15 14.75 0.15" fill="url(#gradient1)" fill-rule="evenodd" stroke="none"/>
    <path d="M14.75 0.15 Q8.55 0.15 4.15 4.55 -0.25 8.95 -0.25 15.15 L-0.25 26.15 Q-0.25 32.35 4.15 36.75 8.55 41.15 14.75 41.15 L25.75 41.15 Q31.95 41.15 36.35 36.75 40.75 32.35 40.75 26.15 L40.75 15.15 Q40.75 8.95 36.35 4.55 31.95 0.15 25.75 0.15 L14.75 0.15 Z" fill="none" stroke="#723100" stroke-linecap="round" stroke-linejoin="round" stroke-width="4.0"/>
    <path d="M14.75 0.15 L25.75 0.15 Q31.95 0.15 36.35 4.55 40.75 8.95 40.75 15.15 L40.75 26.15 Q40.75 32.35 36.35 36.75 31.95 41.15 25.75 41.15 L14.75 41.15 Q8.55 41.15 4.15 36.75 -0.25 32.35 -0.25 26.15 L-0.25 15.15 Q-0.25 8.95 4.15 4.55 8.55 0.15 14.75 0.15" fill="url(#gradient2)" fill-rule="evenodd" stroke="none"/>
    <path d="M7.9 2.85 Q9.3 1.5 11.3 1.5 L29.7 1.5 Q31.7 1.5 33.1 2.85 34.5 4.2 34.5 6.05 34.5 7.95 33.1 9.3 31.7 10.65 29.7 10.65 L11.3 10.65 Q9.3 10.65 7.9 9.3 6.55 7.95 6.55 6.05 6.55 4.2 7.9 2.85" fill="url(#gradient3)" fill-rule="evenodd" stroke="none"/>
    <path d="M11.95 24.85 L5.75 24.85 Q3.3 20.2 5.75 15.95 L11.95 15.95 Q10.3 20.55 11.95 24.85 M22.95 7.5 Q28.45 20.9 22.95 32.5 L13.1 26.75 Q10.8 21.15 13.1 14.2 L22.95 7.5" fill="#742102" fill-rule="evenodd" stroke="none"/>
    <path d="M34.45 10.1 L26.3 12.95 25.4 10.35 33.55 7.5 34.45 10.1" fill="#742102" fill-rule="evenodd" stroke="none"/>
    <path d="M27.4 21.1 L27.45 18.4 36.05 18.6 36.0 21.35 27.4 21.1" fill="#742102" fill-rule="evenodd" stroke="none"/>
    <path d="M25.55 30.25 L26.65 27.8 34.45 31.4 33.35 33.85 25.55 30.25" fill="#742102" fill-rule="evenodd" stroke="none"/>
  </g>
  <defs>
    <linearGradient gradientTransform="matrix(0.0139, 0.0254, -0.0219, 0.0119, 20.25, 20.65)" gradientUnits="userSpaceOnUse" id="gradient0" spreadMethod="pad" x1="-819.2" x2="819.2">
      <stop offset="0.0" stop-color="#ffa822"/>
      <stop offset="1.0" stop-color="#ffd182"/>
    </linearGradient>
    <linearGradient gradientTransform="matrix(0.0139, 0.0254, -0.0219, 0.0119, 20.25, 20.65)" gradientUnits="userSpaceOnUse" id="gradient1" spreadMethod="pad" x1="-819.2" x2="819.2">
      <stop offset="0.0" stop-color="#ffa822"/>
      <stop offset="1.0" stop-color="#ffd182"/>
    </linearGradient>
    <linearGradient gradientTransform="matrix(3.0E-4, 0.0189, -0.0249, 4.0E-4, 19.9, 27.05)" gradientUnits="userSpaceOnUse" id="gradient2" spreadMethod="pad" x1="-819.2" x2="819.2">
      <stop offset="0.0" stop-color="#ffa822"/>
      <stop offset="1.0" stop-color="#ffd182"/>
    </linearGradient>
    <linearGradient gradientTransform="matrix(1.0E-4, 0.0067, -0.0089, 0.0, 16.3, 2.55)" gradientUnits="userSpaceOnUse" id="gradient3" spreadMethod="pad" x1="-819.2" x2="819.2">
      <stop offset="0.0" stop-color="#ffffff"/>
      <stop offset="1.0" stop-color="#ffffff" stop-opacity="0.0"/>
    </linearGradient>
  </defs>
</svg>
