<?xml version="1.0" encoding="UTF-8" standalone="no"?>
<svg xmlns:xlink="http://www.w3.org/1999/xlink" height="49.0px" width="49.0px" xmlns="http://www.w3.org/2000/svg">
  <g transform="matrix(1.0, 0.0, 0.0, 1.0, 4.0, 4.0)">
    <path d="M15.0 0.0 L26.0 0.0 Q32.2 0.0 36.6 4.4 41.0 8.8 41.0 15.0 L41.0 26.0 Q41.0 32.2 36.6 36.6 32.2 41.0 26.0 41.0 L15.0 41.0 Q8.8 41.0 4.4 36.6 0.0 32.2 0.0 26.0 L0.0 15.0 Q0.0 8.8 4.4 4.4 8.8 0.0 15.0 0.0" fill="url(#gradient0)" fill-rule="evenodd" stroke="none"/>
    <path d="M15.0 0.0 Q8.8 0.0 4.4 4.4 0.0 8.8 0.0 15.0 L0.0 26.0 Q0.0 32.2 4.4 36.6 8.8 41.0 15.0 41.0 L26.0 41.0 Q32.2 41.0 36.6 36.6 41.0 32.2 41.0 26.0 L41.0 15.0 Q41.0 8.8 36.6 4.4 32.2 0.0 26.0 0.0 L15.0 0.0 Z" fill="none" stroke="#ffffff" stroke-linecap="round" stroke-linejoin="round" stroke-width="8.0"/>
    <path d="M15.0 0.0 L26.0 0.0 Q32.2 0.0 36.6 4.4 41.0 8.8 41.0 15.0 L41.0 26.0 Q41.0 32.2 36.6 36.6 32.2 41.0 26.0 41.0 L15.0 41.0 Q8.8 41.0 4.4 36.6 0.0 32.2 0.0 26.0 L0.0 15.0 Q0.0 8.8 4.4 4.4 8.8 0.0 15.0 0.0" fill="url(#gradient1)" fill-rule="evenodd" stroke="none"/>
    <path d="M15.0 0.0 Q8.8 0.0 4.4 4.4 0.0 8.8 0.0 15.0 L0.0 26.0 Q0.0 32.2 4.4 36.6 8.8 41.0 15.0 41.0 L26.0 41.0 Q32.2 41.0 36.6 36.6 41.0 32.2 41.0 26.0 L41.0 15.0 Q41.0 8.8 36.6 4.4 32.2 0.0 26.0 0.0 L15.0 0.0 Z" fill="none" stroke="#723100" stroke-linecap="round" stroke-linejoin="round" stroke-width="4.0"/>
    <path d="M15.0 0.0 L26.0 0.0 Q32.2 0.0 36.6 4.4 41.0 8.8 41.0 15.0 L41.0 26.0 Q41.0 32.2 36.6 36.6 32.2 41.0 26.0 41.0 L15.0 41.0 Q8.8 41.0 4.4 36.6 0.0 32.2 0.0 26.0 L0.0 15.0 Q0.0 8.8 4.4 4.4 8.8 0.0 15.0 0.0" fill="url(#gradient2)" fill-rule="evenodd" stroke="none"/>
    <path d="M8.15 2.7 Q9.55 1.35 11.55 1.35 L29.95 1.35 Q31.95 1.35 33.35 2.7 34.75 4.05 34.75 5.9 34.75 7.8 33.35 9.15 31.95 10.5 29.95 10.5 L11.55 10.5 Q9.55 10.5 8.15 9.15 6.8 7.8 6.8 5.9 6.8 4.05 8.15 2.7" fill="url(#gradient3)" fill-rule="evenodd" stroke="none"/>
    <path d="M29.75 13.05 L29.75 28.9 29.85 29.75 Q29.85 31.25 28.75 32.35 27.7 33.45 26.2 33.45 24.7 33.45 23.6 32.35 22.5 31.25 22.5 29.75 22.5 28.25 23.6 27.15 24.7 26.05 26.2 26.05 L27.5 26.3 27.5 13.45 14.75 15.55 14.75 31.45 14.7 31.45 Q14.45 32.5 13.65 33.3 12.6 34.4 11.1 34.4 9.6 34.4 8.5 33.3 7.4 32.2 7.4 30.7 7.4 29.2 8.5 28.1 9.6 27.0 11.1 27.0 L12.5 27.3 12.5 15.95 9.6 16.4 8.3 11.8 31.7 7.75 31.85 12.7 29.75 13.05" fill="#742102" fill-rule="evenodd" stroke="none"/>
    <path d="M35.0 37.2 L3.65 10.1 5.6 7.85 36.95 34.9 35.0 37.2" fill="#541600" fill-rule="evenodd" stroke="none"/>
  </g>
  <defs>
    <linearGradient gradientTransform="matrix(0.0139, 0.0254, -0.0219, 0.0119, 20.5, 20.5)" gradientUnits="userSpaceOnUse" id="gradient0" spreadMethod="pad" x1="-819.2" x2="819.2">
      <stop offset="0.0" stop-color="#ffa822"/>
      <stop offset="1.0" stop-color="#ffd182"/>
    </linearGradient>
    <linearGradient gradientTransform="matrix(0.0139, 0.0254, -0.0219, 0.0119, 20.5, 20.5)" gradientUnits="userSpaceOnUse" id="gradient1" spreadMethod="pad" x1="-819.2" x2="819.2">
      <stop offset="0.0" stop-color="#ffa822"/>
      <stop offset="1.0" stop-color="#ffd182"/>
    </linearGradient>
    <linearGradient gradientTransform="matrix(3.0E-4, 0.0189, -0.0249, 4.0E-4, 20.15, 26.9)" gradientUnits="userSpaceOnUse" id="gradient2" spreadMethod="pad" x1="-819.2" x2="819.2">
      <stop offset="0.0" stop-color="#ffa822"/>
      <stop offset="1.0" stop-color="#ffd182"/>
    </linearGradient>
    <linearGradient gradientTransform="matrix(1.0E-4, 0.0067, -0.0089, 0.0, 16.55, 2.4)" gradientUnits="userSpaceOnUse" id="gradient3" spreadMethod="pad" x1="-819.2" x2="819.2">
      <stop offset="0.0" stop-color="#ffffff"/>
      <stop offset="1.0" stop-color="#ffffff" stop-opacity="0.0"/>
    </linearGradient>
  </defs>
</svg>
