<?xml version="1.0" encoding="UTF-8" standalone="no"?>
<svg xmlns:xlink="http://www.w3.org/1999/xlink" height="60.4px" width="57.7px" xmlns="http://www.w3.org/2000/svg">
  <g transform="matrix(1.0, 0.0, 0.0, 1.0, -3.75, 7.1)">
    <path d="M45.35 11.6 Q52.6 18.75 52.6 28.95 52.6 39.0 45.35 46.15 38.25 53.3 28.1 53.3 18.05 53.3 10.9 46.15 3.75 39.0 3.75 28.95 3.75 18.75 10.9 11.6 18.05 4.45 28.1 4.45 38.25 4.45 45.35 11.6" fill="#d3237c" fill-rule="evenodd" stroke="none"/>
    <path d="M42.5 -5.55 Q43.45 -6.8 45.05 -7.05 46.55 -7.3 47.8 -6.3 49.05 -5.35 49.3 -3.85 49.45 -2.3 48.55 -1.1 47.6 0.2 46.15 0.4 L45.1 0.4 39.0 8.75 36.15 6.7 42.2 -1.6 41.9 -2.75 Q41.6 -4.3 42.5 -5.55" fill="#d3237c" fill-rule="evenodd" stroke="none"/>
    <path d="M50.8 3.7 Q51.85 2.8 53.15 2.95 54.45 3.15 55.25 4.15 56.1 5.2 55.95 6.5 55.75 7.7 54.8 8.6 53.75 9.4 52.5 9.3 L51.6 9.05 44.8 14.7 43.0 12.4 49.7 6.8 Q49.55 6.3 49.65 5.8 49.75 4.5 50.8 3.7" fill="#d3237c" fill-rule="evenodd" stroke="none"/>
    <path d="M61.15 15.3 Q61.7 16.55 61.25 17.75 60.7 18.9 59.6 19.55 L57.2 19.6 56.4 19.2 48.45 22.95 47.2 20.2 55.05 16.5 55.35 15.5 Q55.7 14.3 56.95 13.75 L59.4 13.6 Q60.6 14.05 61.15 15.3" fill="#d3237c" fill-rule="evenodd" stroke="none"/>
  </g>
</svg>
