<?xml version="1.0" encoding="UTF-8" standalone="no"?>
<svg xmlns:xlink="http://www.w3.org/1999/xlink" height="5.75px" width="22.55px" xmlns="http://www.w3.org/2000/svg">
  <g transform="matrix(1.0, 0.0, 0.0, 1.0, -4.15, 11.75)">
    <path d="M5.9 -11.0 L7.05 -11.35 7.45 -11.4 8.5 -10.85 8.6 -10.7 8.65 -10.55 8.8 -10.15 8.95 -9.9 9.15 -9.4 Q9.5 -8.45 9.0 -7.55 8.5 -6.7 7.55 -6.45 L5.75 -6.65 Q4.95 -7.1 4.6 -8.1 4.35 -9.0 4.85 -9.85 5.15 -10.5 5.9 -10.95 L5.9 -11.0" fill="#cf72f0" fill-rule="evenodd" stroke="none"/>
    <path d="M5.9 -11.0 L7.05 -11.35 7.45 -11.4 8.5 -10.85 8.6 -10.7 8.65 -10.55 8.8 -10.15 8.95 -9.9 9.15 -9.4 Q9.5 -8.45 9.0 -7.55 8.5 -6.7 7.55 -6.45 L5.75 -6.65 Q4.95 -7.1 4.6 -8.1 4.35 -9.0 4.85 -9.85 5.15 -10.5 5.9 -10.95" fill="none" stroke="#001200" stroke-linecap="round" stroke-linejoin="round" stroke-width="0.75"/>
    <path d="M7.45 -11.4 L8.5 -10.85 8.6 -10.7 8.65 -10.55 8.7 -10.15 8.65 -9.95 8.6 -9.55 8.6 -9.3 8.25 -9.3 7.8 -9.35 7.2 -9.65 6.85 -9.8 6.65 -9.9 6.7 -10.0 6.35 -10.4 6.2 -10.5 6.45 -10.75 6.5 -10.8 6.85 -10.95 Q7.15 -11.15 7.15 -10.95 L7.25 -10.9 7.45 -11.4" fill="#c8c8c8" fill-rule="evenodd" stroke="none"/>
    <path d="M7.8 -9.35 L8.25 -9.3 8.2 -9.15 7.8 -9.35 M8.6 -9.3 L8.6 -9.55 8.65 -9.95 8.7 -10.15 8.65 -10.55 8.95 -9.4 8.6 -9.3" fill="#e6e6e6" fill-rule="evenodd" stroke="none"/>
    <path d="M7.45 -11.4 L7.25 -10.9 7.15 -10.95 Q7.15 -11.15 6.85 -10.95 L6.5 -10.8 6.45 -10.75 6.2 -10.5 5.9 -10.95 5.9 -11.0 7.05 -11.35 7.45 -11.4 M6.35 -10.4 L6.7 -10.0 6.65 -9.9 6.2 -10.15 6.35 -10.4" fill="#a2a2a2" fill-rule="evenodd" stroke="none"/>
    <path d="M9.15 -9.4 Q9.5 -8.45 9.0 -7.55 8.5 -6.7 7.55 -6.45 L5.75 -6.65 Q4.95 -7.1 4.6 -8.1 4.35 -9.0 4.85 -9.85 5.3 -10.7 6.3 -11.0 L6.7 -11.1 7.3 -11.05 8.05 -10.8 8.65 -10.35 8.95 -9.9 9.15 -9.4" fill="#7cdc02" fill-rule="evenodd" stroke="none"/>
    <path d="M5.25 -9.0 Q5.1 -9.7 5.3 -10.3 5.6 -10.95 6.3 -11.1 L7.75 -11.0 Q8.5 -10.65 8.7 -9.95 8.85 -9.2 8.5 -8.6 8.15 -7.95 7.45 -7.75 L6.1 -7.9 Q5.45 -8.3 5.25 -9.0" fill="#a4ff31" fill-rule="evenodd" stroke="none"/>
    <path d="M6.75 -8.8 L6.8 -9.4 6.45 -9.85 5.8 -9.95 5.35 -9.55 Q5.15 -9.3 5.25 -9.0 5.3 -8.65 5.65 -8.5 L6.25 -8.4 6.75 -8.8" fill="#c0ff70" fill-rule="evenodd" stroke="none"/>
    <path d="M24.6 -11.05 L25.9 -10.15 Q26.45 -9.45 26.35 -8.5 26.25 -7.45 25.5 -6.9 24.75 -6.25 23.75 -6.35 22.8 -6.45 22.15 -7.2 21.5 -8.0 21.65 -9.0 L21.8 -9.5 21.85 -9.8 21.95 -10.15 22.0 -10.35 22.1 -10.55 Q22.4 -11.05 23.0 -11.25 L23.4 -11.25 24.55 -11.1 24.6 -11.05" fill="#cf72f0" fill-rule="evenodd" stroke="none"/>
    <path d="M24.55 -11.1 L23.4 -11.25 23.0 -11.25 Q22.4 -11.05 22.1 -10.55 L22.0 -10.35 21.95 -10.15 21.85 -9.8 21.8 -9.5 21.65 -9.0 Q21.5 -8.0 22.15 -7.2 22.8 -6.45 23.75 -6.35 24.75 -6.25 25.5 -6.9 26.25 -7.45 26.35 -8.5 26.45 -9.45 25.9 -10.15 L24.6 -11.05" fill="none" stroke="#001200" stroke-linecap="round" stroke-linejoin="round" stroke-width="0.75"/>
    <path d="M23.0 -11.25 L23.4 -11.25 24.55 -11.1 24.6 -11.05 24.4 -10.55 24.1 -10.8 24.05 -10.8 23.65 -10.9 23.35 -10.85 23.25 -10.75 23.0 -11.25 M24.25 -10.45 L24.5 -10.2 24.05 -9.9 24.0 -10.0 24.25 -10.45" fill="#a2a2a2" fill-rule="evenodd" stroke="none"/>
    <path d="M24.4 -10.55 L24.25 -10.45 24.0 -10.0 24.05 -9.9 23.85 -9.75 Q23.65 -9.6 23.55 -9.6 L23.0 -9.2 22.6 -9.1 22.3 -9.0 22.2 -9.2 22.05 -9.6 22.0 -9.75 21.95 -10.15 22.0 -10.35 22.1 -10.55 Q22.4 -11.05 23.0 -11.25 L23.25 -10.75 23.35 -10.85 23.65 -10.9 24.05 -10.8 24.1 -10.8 24.4 -10.55" fill="#c8c8c8" fill-rule="evenodd" stroke="none"/>
    <path d="M23.0 -9.2 L22.65 -8.9 22.6 -9.1 23.0 -9.2 M22.3 -9.0 L21.85 -9.05 21.95 -10.15 22.0 -9.75 22.05 -9.6 22.2 -9.2 22.3 -9.0" fill="#e6e6e6" fill-rule="evenodd" stroke="none"/>
    <path d="M25.9 -10.15 Q26.45 -9.45 26.35 -8.5 26.25 -7.45 25.5 -6.9 24.75 -6.25 23.75 -6.35 22.8 -6.45 22.15 -7.2 21.5 -8.0 21.65 -9.0 L21.8 -9.5 22.0 -10.0 22.55 -10.55 23.2 -10.95 23.8 -11.1 24.2 -11.0 Q25.25 -10.95 25.9 -10.15" fill="#7cdc02" fill-rule="evenodd" stroke="none"/>
    <path d="M25.6 -9.25 Q25.55 -8.5 25.0 -8.05 24.45 -7.55 23.7 -7.65 22.95 -7.7 22.45 -8.3 22.0 -8.85 22.1 -9.6 22.1 -10.3 22.85 -10.8 L24.25 -11.15 Q24.95 -11.1 25.3 -10.5 25.65 -10.0 25.6 -9.25" fill="#a4ff31" fill-rule="evenodd" stroke="none"/>
    <path d="M24.1 -8.65 Q23.9 -8.9 23.95 -9.2 L24.2 -9.75 24.8 -9.95 25.35 -9.65 25.5 -9.05 25.25 -8.55 Q24.95 -8.3 24.65 -8.35 24.3 -8.35 24.1 -8.65" fill="#c0ff70" fill-rule="evenodd" stroke="none"/>
  </g>
</svg>
