<?xml version="1.0" encoding="UTF-8" standalone="no"?>
<svg xmlns:xlink="http://www.w3.org/1999/xlink" height="5.75px" width="22.55px" xmlns="http://www.w3.org/2000/svg">
  <g transform="matrix(1.0, 0.0, 0.0, 1.0, -4.15, 15.95)">
    <path d="M5.9 -15.2 L7.05 -15.55 7.45 -15.6 8.5 -15.05 8.6 -14.9 8.65 -14.75 8.8 -14.35 8.95 -14.1 9.15 -13.6 Q9.5 -12.65 9.0 -11.75 8.5 -10.9 7.55 -10.65 L5.75 -10.85 Q4.95 -11.3 4.6 -12.3 4.35 -13.2 4.85 -14.05 5.15 -14.7 5.9 -15.15 L5.9 -15.2" fill="#cf72f0" fill-rule="evenodd" stroke="none"/>
    <path d="M5.9 -15.2 L7.05 -15.55 7.45 -15.6 8.5 -15.05 8.6 -14.9 8.65 -14.75 8.8 -14.35 8.95 -14.1 9.15 -13.6 Q9.5 -12.65 9.0 -11.75 8.5 -10.9 7.55 -10.65 L5.75 -10.85 Q4.95 -11.3 4.6 -12.3 4.35 -13.2 4.85 -14.05 5.15 -14.7 5.9 -15.15" fill="none" stroke="#001200" stroke-linecap="round" stroke-linejoin="round" stroke-width="0.75"/>
    <path d="M6.2 -14.7 L5.9 -15.15 5.9 -15.2 7.05 -15.55 7.45 -15.6 7.25 -15.1 7.15 -15.15 Q7.15 -15.35 6.85 -15.15 L6.5 -15.0 6.45 -14.95 6.2 -14.7 M6.65 -14.1 L6.2 -14.35 6.35 -14.6 6.7 -14.2 6.65 -14.1" fill="#a2a2a2" fill-rule="evenodd" stroke="none"/>
    <path d="M6.2 -14.7 L6.45 -14.95 6.5 -15.0 6.85 -15.15 Q7.15 -15.35 7.15 -15.15 L7.25 -15.1 7.45 -15.6 8.5 -15.05 8.6 -14.9 8.65 -14.75 8.7 -14.35 8.65 -14.15 8.6 -13.75 8.6 -13.5 8.25 -13.5 7.8 -13.55 7.2 -13.85 6.85 -14.0 6.65 -14.1 6.7 -14.2 6.35 -14.6 6.2 -14.7" fill="#c8c8c8" fill-rule="evenodd" stroke="none"/>
    <path d="M8.65 -14.75 L8.95 -13.6 8.6 -13.5 8.6 -13.75 8.65 -14.15 8.7 -14.35 8.65 -14.75 M8.25 -13.5 L8.2 -13.35 7.8 -13.55 8.25 -13.5" fill="#e6e6e6" fill-rule="evenodd" stroke="none"/>
    <path d="M8.95 -14.1 L9.15 -13.6 Q9.5 -12.65 9.0 -11.75 8.5 -10.9 7.55 -10.65 L5.75 -10.85 Q4.95 -11.3 4.6 -12.3 4.35 -13.2 4.85 -14.05 5.3 -14.9 6.3 -15.2 L6.7 -15.3 7.3 -15.25 8.05 -15.0 8.65 -14.55 8.95 -14.1" fill="#7cdc02" fill-rule="evenodd" stroke="none"/>
    <path d="M5.25 -13.2 Q5.1 -13.9 5.3 -14.5 5.6 -15.15 6.3 -15.3 L7.75 -15.2 Q8.5 -14.85 8.7 -14.15 8.85 -13.4 8.5 -12.8 8.15 -12.15 7.45 -11.95 L6.1 -12.1 Q5.45 -12.5 5.25 -13.2" fill="#a4ff31" fill-rule="evenodd" stroke="none"/>
    <path d="M6.75 -13.0 L6.8 -13.6 6.45 -14.05 5.8 -14.15 5.35 -13.75 Q5.15 -13.5 5.25 -13.2 5.3 -12.85 5.65 -12.7 L6.25 -12.6 6.75 -13.0" fill="#c0ff70" fill-rule="evenodd" stroke="none"/>
    <path d="M24.6 -15.25 L25.9 -14.35 Q26.45 -13.65 26.35 -12.7 26.25 -11.65 25.5 -11.1 24.75 -10.45 23.75 -10.55 22.8 -10.65 22.15 -11.4 21.5 -12.2 21.65 -13.2 L21.8 -13.7 21.85 -14.0 21.95 -14.35 22.0 -14.55 22.1 -14.75 Q22.4 -15.25 23.0 -15.45 L23.4 -15.45 24.55 -15.3 24.6 -15.25" fill="#cf72f0" fill-rule="evenodd" stroke="none"/>
    <path d="M24.55 -15.3 L23.4 -15.45 23.0 -15.45 Q22.4 -15.25 22.1 -14.75 L22.0 -14.55 21.95 -14.35 21.85 -14.0 21.8 -13.7 21.65 -13.2 Q21.5 -12.2 22.15 -11.4 22.8 -10.65 23.75 -10.55 24.75 -10.45 25.5 -11.1 26.25 -11.65 26.35 -12.7 26.45 -13.65 25.9 -14.35 L24.6 -15.25" fill="none" stroke="#001200" stroke-linecap="round" stroke-linejoin="round" stroke-width="0.75"/>
    <path d="M21.95 -14.35 L22.0 -14.55 22.1 -14.75 Q22.4 -15.25 23.0 -15.45 L23.25 -14.95 23.35 -15.05 23.65 -15.1 24.05 -15.0 24.1 -15.0 24.4 -14.75 24.25 -14.65 24.0 -14.2 24.05 -14.1 23.85 -13.95 Q23.65 -13.8 23.55 -13.8 L23.0 -13.4 22.6 -13.3 22.3 -13.2 22.2 -13.4 22.05 -13.8 22.0 -13.95 21.95 -14.35" fill="#c8c8c8" fill-rule="evenodd" stroke="none"/>
    <path d="M21.95 -14.35 L22.0 -13.95 22.05 -13.8 22.2 -13.4 22.3 -13.2 21.85 -13.25 21.95 -14.35 M22.6 -13.3 L23.0 -13.4 22.65 -13.1 22.6 -13.3" fill="#e6e6e6" fill-rule="evenodd" stroke="none"/>
    <path d="M24.05 -14.1 L24.0 -14.2 24.25 -14.65 24.5 -14.4 24.05 -14.1 M24.4 -14.75 L24.1 -15.0 24.05 -15.0 23.65 -15.1 23.35 -15.05 23.25 -14.95 23.0 -15.45 23.4 -15.45 24.55 -15.3 24.6 -15.25 24.4 -14.75" fill="#a2a2a2" fill-rule="evenodd" stroke="none"/>
    <path d="M22.55 -14.75 L23.2 -15.15 23.8 -15.3 24.2 -15.2 Q25.25 -15.15 25.9 -14.35 26.45 -13.65 26.35 -12.7 26.25 -11.65 25.5 -11.1 24.75 -10.45 23.75 -10.55 22.8 -10.65 22.15 -11.4 21.5 -12.2 21.65 -13.2 L21.8 -13.7 22.0 -14.2 22.55 -14.75" fill="#7cdc02" fill-rule="evenodd" stroke="none"/>
    <path d="M25.6 -13.45 Q25.55 -12.7 25.0 -12.25 24.45 -11.75 23.7 -11.85 22.95 -11.9 22.45 -12.5 22.0 -13.05 22.1 -13.8 22.1 -14.5 22.85 -15.0 L24.25 -15.35 Q24.95 -15.3 25.3 -14.7 25.65 -14.2 25.6 -13.45" fill="#a4ff31" fill-rule="evenodd" stroke="none"/>
    <path d="M24.1 -12.85 Q23.9 -13.1 23.95 -13.4 L24.2 -13.95 24.8 -14.15 25.35 -13.85 25.5 -13.25 25.25 -12.75 Q24.95 -12.5 24.65 -12.55 24.3 -12.55 24.1 -12.85" fill="#c0ff70" fill-rule="evenodd" stroke="none"/>
  </g>
</svg>
