<?xml version="1.0" encoding="UTF-8" standalone="no"?>
<svg xmlns:xlink="http://www.w3.org/1999/xlink" height="5.75px" width="22.55px" xmlns="http://www.w3.org/2000/svg">
  <g transform="matrix(1.0, 0.0, 0.0, 1.0, -4.15, 11.15)">
    <path d="M5.9 -10.4 L7.05 -10.75 7.45 -10.8 8.5 -10.25 8.6 -10.1 8.65 -9.95 8.8 -9.55 8.95 -9.3 9.15 -8.8 Q9.5 -7.85 9.0 -6.95 8.5 -6.1 7.55 -5.85 L5.75 -6.05 Q4.95 -6.5 4.6 -7.5 4.35 -8.4 4.85 -9.25 5.15 -9.9 5.9 -10.35 L5.9 -10.4" fill="#cf72f0" fill-rule="evenodd" stroke="none"/>
    <path d="M5.9 -10.4 L7.05 -10.75 7.45 -10.8 8.5 -10.25 8.6 -10.1 8.65 -9.95 8.8 -9.55 8.95 -9.3 9.15 -8.8 Q9.5 -7.85 9.0 -6.95 8.5 -6.1 7.55 -5.85 L5.75 -6.05 Q4.95 -6.5 4.6 -7.5 4.35 -8.4 4.85 -9.25 5.15 -9.9 5.9 -10.35" fill="none" stroke="#001200" stroke-linecap="round" stroke-linejoin="round" stroke-width="0.75"/>
    <path d="M8.65 -9.95 L8.7 -9.55 8.65 -9.35 8.6 -8.95 8.6 -8.7 8.25 -8.7 7.8 -8.75 7.2 -9.05 6.85 -9.2 6.65 -9.3 6.7 -9.4 6.35 -9.8 6.2 -9.9 6.45 -10.15 6.5 -10.2 6.85 -10.35 Q7.15 -10.55 7.15 -10.35 L7.25 -10.3 7.45 -10.8 8.5 -10.25 8.6 -10.1 8.65 -9.95" fill="#c8c8c8" fill-rule="evenodd" stroke="none"/>
    <path d="M8.6 -8.7 L8.6 -8.95 8.65 -9.35 8.7 -9.55 8.65 -9.95 8.95 -8.8 8.6 -8.7 M7.8 -8.75 L8.25 -8.7 8.2 -8.55 7.8 -8.75" fill="#e6e6e6" fill-rule="evenodd" stroke="none"/>
    <path d="M7.45 -10.8 L7.25 -10.3 7.15 -10.35 Q7.15 -10.55 6.85 -10.35 L6.5 -10.2 6.45 -10.15 6.2 -9.9 5.9 -10.35 5.9 -10.4 7.05 -10.75 7.45 -10.8 M6.35 -9.8 L6.7 -9.4 6.65 -9.3 6.2 -9.55 6.35 -9.8" fill="#a2a2a2" fill-rule="evenodd" stroke="none"/>
    <path d="M8.95 -9.3 L9.15 -8.8 Q9.5 -7.85 9.0 -6.95 8.5 -6.1 7.55 -5.85 L5.75 -6.05 Q4.95 -6.5 4.6 -7.5 4.35 -8.4 4.85 -9.25 5.3 -10.1 6.3 -10.4 L6.7 -10.5 7.3 -10.45 8.05 -10.2 8.65 -9.75 8.95 -9.3" fill="#7cdc02" fill-rule="evenodd" stroke="none"/>
    <path d="M5.25 -8.4 Q5.1 -9.1 5.3 -9.7 5.6 -10.35 6.3 -10.5 L7.75 -10.4 Q8.5 -10.05 8.7 -9.35 8.85 -8.6 8.5 -8.0 8.15 -7.35 7.45 -7.15 L6.1 -7.3 Q5.45 -7.7 5.25 -8.4" fill="#a4ff31" fill-rule="evenodd" stroke="none"/>
    <path d="M6.75 -8.2 L6.8 -8.8 6.45 -9.25 5.8 -9.35 5.35 -8.95 Q5.15 -8.7 5.25 -8.4 5.3 -8.05 5.65 -7.9 L6.25 -7.8 6.75 -8.2" fill="#c0ff70" fill-rule="evenodd" stroke="none"/>
    <path d="M24.6 -10.45 L25.9 -9.55 Q26.45 -8.85 26.35 -7.9 26.25 -6.85 25.5 -6.3 24.75 -5.65 23.75 -5.75 22.8 -5.85 22.15 -6.6 21.5 -7.4 21.65 -8.4 L21.8 -8.9 21.85 -9.2 21.95 -9.55 22.0 -9.75 22.1 -9.95 Q22.4 -10.45 23.0 -10.65 L23.4 -10.65 24.55 -10.5 24.6 -10.45" fill="#cf72f0" fill-rule="evenodd" stroke="none"/>
    <path d="M24.55 -10.5 L23.4 -10.65 23.0 -10.65 Q22.4 -10.45 22.1 -9.95 L22.0 -9.75 21.95 -9.55 21.85 -9.2 21.8 -8.9 21.65 -8.4 Q21.5 -7.4 22.15 -6.6 22.8 -5.85 23.75 -5.75 24.75 -5.65 25.5 -6.3 26.25 -6.85 26.35 -7.9 26.45 -8.85 25.9 -9.55 L24.6 -10.45" fill="none" stroke="#001200" stroke-linecap="round" stroke-linejoin="round" stroke-width="0.75"/>
    <path d="M23.0 -10.65 L23.4 -10.65 24.55 -10.5 24.6 -10.45 24.4 -9.95 24.1 -10.2 24.05 -10.2 23.65 -10.3 23.35 -10.25 23.25 -10.15 23.0 -10.65 M24.25 -9.85 L24.5 -9.6 24.05 -9.3 24.0 -9.4 24.25 -9.85" fill="#a2a2a2" fill-rule="evenodd" stroke="none"/>
    <path d="M24.4 -9.95 L24.25 -9.85 24.0 -9.4 24.05 -9.3 23.85 -9.15 Q23.65 -9.0 23.55 -9.0 L23.0 -8.6 22.6 -8.5 22.3 -8.4 22.2 -8.6 22.05 -9.0 22.0 -9.15 21.95 -9.55 22.0 -9.75 22.1 -9.95 Q22.4 -10.45 23.0 -10.65 L23.25 -10.15 23.35 -10.25 23.65 -10.3 24.05 -10.2 24.1 -10.2 24.4 -9.95" fill="#c8c8c8" fill-rule="evenodd" stroke="none"/>
    <path d="M23.0 -8.6 L22.65 -8.3 22.6 -8.5 23.0 -8.6 M22.3 -8.4 L21.85 -8.45 21.95 -9.55 22.0 -9.15 22.05 -9.0 22.2 -8.6 22.3 -8.4" fill="#e6e6e6" fill-rule="evenodd" stroke="none"/>
    <path d="M25.9 -9.55 Q26.45 -8.85 26.35 -7.9 26.25 -6.85 25.5 -6.3 24.75 -5.65 23.75 -5.75 22.8 -5.85 22.15 -6.6 21.5 -7.4 21.65 -8.4 L21.8 -8.9 22.0 -9.4 22.55 -9.95 23.2 -10.35 23.8 -10.5 24.2 -10.4 Q25.25 -10.35 25.9 -9.55" fill="#7cdc02" fill-rule="evenodd" stroke="none"/>
    <path d="M25.6 -8.65 Q25.55 -7.9 25.0 -7.45 24.45 -6.95 23.7 -7.05 22.95 -7.1 22.45 -7.7 22.0 -8.25 22.1 -9.0 22.1 -9.7 22.85 -10.2 L24.25 -10.55 Q24.95 -10.5 25.3 -9.9 25.65 -9.4 25.6 -8.65" fill="#a4ff31" fill-rule="evenodd" stroke="none"/>
    <path d="M24.1 -8.05 Q23.9 -8.3 23.95 -8.6 L24.2 -9.15 24.8 -9.35 25.35 -9.05 25.5 -8.45 25.25 -7.95 Q24.95 -7.7 24.65 -7.75 24.3 -7.75 24.1 -8.05" fill="#c0ff70" fill-rule="evenodd" stroke="none"/>
  </g>
</svg>
