<?xml version="1.0" encoding="UTF-8" standalone="no"?>
<svg xmlns:xlink="http://www.w3.org/1999/xlink" height="5.75px" width="22.55px" xmlns="http://www.w3.org/2000/svg">
  <g transform="matrix(1.0, 0.0, 0.0, 1.0, -4.15, 9.65)">
    <path d="M5.9 -8.85 L5.9 -8.9 7.05 -9.25 7.45 -9.3 8.5 -8.75 8.6 -8.6 8.65 -8.45 8.8 -8.05 8.95 -7.8 9.15 -7.3 Q9.5 -6.35 9.0 -5.45 8.5 -4.6 7.55 -4.35 L5.75 -4.55 Q4.95 -5.0 4.6 -6.0 4.35 -6.9 4.85 -7.75 5.15 -8.4 5.9 -8.85" fill="#cf72f0" fill-rule="evenodd" stroke="none"/>
    <path d="M5.9 -8.9 L7.05 -9.25 7.45 -9.3 8.5 -8.75 8.6 -8.6 8.65 -8.45 8.8 -8.05 8.95 -7.8 9.15 -7.3 Q9.5 -6.35 9.0 -5.45 8.5 -4.6 7.55 -4.35 L5.75 -4.55 Q4.95 -5.0 4.6 -6.0 4.35 -6.9 4.85 -7.75 5.15 -8.4 5.9 -8.85" fill="none" stroke="#001200" stroke-linecap="round" stroke-linejoin="round" stroke-width="0.75"/>
    <path d="M6.65 -7.8 L6.7 -7.9 6.35 -8.3 6.2 -8.4 6.45 -8.65 6.5 -8.7 6.85 -8.85 Q7.15 -9.05 7.15 -8.85 L7.25 -8.8 7.45 -9.3 8.5 -8.75 8.6 -8.6 8.65 -8.45 8.7 -8.05 8.65 -7.85 8.6 -7.45 8.6 -7.2 8.25 -7.2 7.8 -7.25 7.2 -7.55 6.85 -7.7 6.65 -7.8" fill="#c8c8c8" fill-rule="evenodd" stroke="none"/>
    <path d="M6.35 -8.3 L6.7 -7.9 6.65 -7.8 6.2 -8.05 6.35 -8.3 M7.45 -9.3 L7.25 -8.8 7.15 -8.85 Q7.15 -9.05 6.85 -8.85 L6.5 -8.7 6.45 -8.65 6.2 -8.4 5.9 -8.85 5.9 -8.9 7.05 -9.25 7.45 -9.3" fill="#a2a2a2" fill-rule="evenodd" stroke="none"/>
    <path d="M7.8 -7.25 L8.25 -7.2 8.2 -7.05 7.8 -7.25 M8.6 -7.2 L8.6 -7.45 8.65 -7.85 8.7 -8.05 8.65 -8.45 8.95 -7.3 8.6 -7.2" fill="#e6e6e6" fill-rule="evenodd" stroke="none"/>
    <path d="M7.3 -8.95 L8.05 -8.7 8.65 -8.25 8.95 -7.8 9.15 -7.3 Q9.5 -6.35 9.0 -5.45 8.5 -4.6 7.55 -4.35 L5.75 -4.55 Q4.95 -5.0 4.6 -6.0 4.35 -6.9 4.85 -7.75 5.3 -8.6 6.3 -8.9 L6.7 -9.0 7.3 -8.95" fill="#7cdc02" fill-rule="evenodd" stroke="none"/>
    <path d="M5.25 -6.9 Q5.1 -7.6 5.3 -8.2 5.6 -8.85 6.3 -9.0 L7.75 -8.9 Q8.5 -8.55 8.7 -7.85 8.85 -7.1 8.5 -6.5 8.15 -5.85 7.45 -5.65 L6.1 -5.8 Q5.45 -6.2 5.25 -6.9" fill="#a4ff31" fill-rule="evenodd" stroke="none"/>
    <path d="M6.75 -6.7 L6.8 -7.3 6.45 -7.75 5.8 -7.85 5.35 -7.45 Q5.15 -7.2 5.25 -6.9 5.3 -6.55 5.65 -6.4 L6.25 -6.3 6.75 -6.7" fill="#c0ff70" fill-rule="evenodd" stroke="none"/>
    <path d="M24.6 -8.95 L25.9 -8.05 Q26.45 -7.35 26.35 -6.4 26.25 -5.35 25.5 -4.8 24.75 -4.15 23.75 -4.25 22.8 -4.35 22.15 -5.1 21.5 -5.9 21.65 -6.9 L21.8 -7.4 21.85 -7.7 21.95 -8.05 22.0 -8.25 22.1 -8.45 Q22.4 -8.95 23.0 -9.15 L23.4 -9.15 24.55 -9.0 24.6 -8.95" fill="#cf72f0" fill-rule="evenodd" stroke="none"/>
    <path d="M24.55 -9.0 L23.4 -9.15 23.0 -9.15 Q22.4 -8.95 22.1 -8.45 L22.0 -8.25 21.95 -8.05 21.85 -7.7 21.8 -7.4 21.65 -6.9 Q21.5 -5.9 22.15 -5.1 22.8 -4.35 23.75 -4.25 24.75 -4.15 25.5 -4.8 26.25 -5.35 26.35 -6.4 26.45 -7.35 25.9 -8.05 L24.6 -8.95" fill="none" stroke="#001200" stroke-linecap="round" stroke-linejoin="round" stroke-width="0.75"/>
    <path d="M21.95 -8.05 L22.0 -8.25 22.1 -8.45 Q22.4 -8.95 23.0 -9.15 L23.25 -8.65 23.35 -8.75 23.65 -8.8 24.05 -8.7 24.1 -8.7 24.4 -8.45 24.25 -8.35 24.0 -7.9 24.05 -7.8 23.85 -7.65 Q23.65 -7.5 23.55 -7.5 L23.0 -7.1 22.6 -7.0 22.3 -6.9 22.2 -7.1 22.05 -7.5 22.0 -7.65 21.95 -8.05" fill="#c8c8c8" fill-rule="evenodd" stroke="none"/>
    <path d="M23.0 -7.1 L22.65 -6.8 22.6 -7.0 23.0 -7.1 M22.3 -6.9 L21.85 -6.95 21.95 -8.05 22.0 -7.65 22.05 -7.5 22.2 -7.1 22.3 -6.9" fill="#e6e6e6" fill-rule="evenodd" stroke="none"/>
    <path d="M23.0 -9.15 L23.4 -9.15 24.55 -9.0 24.6 -8.95 24.4 -8.45 24.1 -8.7 24.05 -8.7 23.65 -8.8 23.35 -8.75 23.25 -8.65 23.0 -9.15 M24.25 -8.35 L24.5 -8.1 24.05 -7.8 24.0 -7.9 24.25 -8.35" fill="#a2a2a2" fill-rule="evenodd" stroke="none"/>
    <path d="M25.9 -8.05 Q26.45 -7.35 26.35 -6.4 26.25 -5.35 25.5 -4.8 24.75 -4.15 23.75 -4.25 22.8 -4.35 22.15 -5.1 21.5 -5.9 21.65 -6.9 L21.8 -7.4 22.0 -7.9 22.55 -8.45 23.2 -8.85 23.8 -9.0 24.2 -8.9 Q25.25 -8.85 25.9 -8.05" fill="#7cdc02" fill-rule="evenodd" stroke="none"/>
    <path d="M25.6 -7.15 Q25.55 -6.4 25.0 -5.95 24.45 -5.45 23.7 -5.55 22.95 -5.6 22.45 -6.2 22.0 -6.75 22.1 -7.5 22.1 -8.2 22.85 -8.7 L24.25 -9.05 Q24.95 -9.0 25.3 -8.4 25.65 -7.9 25.6 -7.15" fill="#a4ff31" fill-rule="evenodd" stroke="none"/>
    <path d="M24.1 -6.55 Q23.9 -6.8 23.95 -7.1 L24.2 -7.65 24.8 -7.85 25.35 -7.55 25.5 -6.95 25.25 -6.45 Q24.95 -6.2 24.65 -6.25 24.3 -6.25 24.1 -6.55" fill="#c0ff70" fill-rule="evenodd" stroke="none"/>
  </g>
</svg>
