<?xml version="1.0" encoding="UTF-8" standalone="no"?>
<svg xmlns:xlink="http://www.w3.org/1999/xlink" height="5.75px" width="22.55px" xmlns="http://www.w3.org/2000/svg">
  <g transform="matrix(1.0, 0.0, 0.0, 1.0, -4.15, -3.4)">
    <path d="M5.9 4.2 L5.9 4.15 7.05 3.8 7.45 3.75 8.5 4.3 8.6 4.45 8.65 4.6 8.8 5.0 8.95 5.25 9.15 5.75 Q9.5 6.7 9.0 7.6 8.5 8.45 7.55 8.7 L5.75 8.5 Q4.95 8.05 4.6 7.05 4.35 6.15 4.85 5.3 5.15 4.65 5.9 4.2" fill="#cf72f0" fill-rule="evenodd" stroke="none"/>
    <path d="M5.9 4.15 L7.05 3.8 7.45 3.75 8.5 4.3 8.6 4.45 8.65 4.6 8.8 5.0 8.95 5.25 9.15 5.75 Q9.5 6.7 9.0 7.6 8.5 8.45 7.55 8.7 L5.75 8.5 Q4.95 8.05 4.6 7.05 4.35 6.15 4.85 5.3 5.15 4.65 5.9 4.2" fill="none" stroke="#001200" stroke-linecap="round" stroke-linejoin="round" stroke-width="0.75"/>
    <path d="M7.45 3.75 L7.25 4.25 7.15 4.2 Q7.15 4.0 6.85 4.2 L6.5 4.35 6.45 4.4 6.2 4.65 5.9 4.2 5.9 4.15 7.05 3.8 7.45 3.75 M6.35 4.75 L6.7 5.15 6.65 5.25 6.2 5.0 6.35 4.75" fill="#a2a2a2" fill-rule="evenodd" stroke="none"/>
    <path d="M6.2 4.65 L6.45 4.4 6.5 4.35 6.85 4.2 Q7.15 4.0 7.15 4.2 L7.25 4.25 7.45 3.75 8.5 4.3 8.6 4.45 8.65 4.6 8.7 5.0 8.65 5.2 8.6 5.6 8.6 5.85 8.25 5.85 7.8 5.8 7.2 5.5 6.85 5.35 6.65 5.25 6.7 5.15 6.35 4.75 6.2 4.65" fill="#c8c8c8" fill-rule="evenodd" stroke="none"/>
    <path d="M7.8 5.8 L8.25 5.85 8.2 6.0 7.8 5.8 M8.6 5.85 L8.6 5.6 8.65 5.2 8.7 5.0 8.65 4.6 Q8.9 5.0 8.95 5.75 L8.6 5.85" fill="#e6e6e6" fill-rule="evenodd" stroke="none"/>
    <path d="M9.15 5.75 Q9.5 6.7 9.0 7.6 8.5 8.45 7.55 8.7 L5.75 8.5 Q4.95 8.05 4.6 7.05 4.35 6.15 4.85 5.3 5.3 4.45 6.3 4.15 L6.7 4.05 7.3 4.1 8.05 4.35 8.65 4.8 8.95 5.25 9.15 5.75" fill="#7cdc02" fill-rule="evenodd" stroke="none"/>
    <path d="M5.25 6.15 Q5.1 5.45 5.3 4.85 5.6 4.2 6.3 4.05 L7.75 4.15 Q8.5 4.5 8.7 5.2 8.85 5.95 8.5 6.55 L7.45 7.4 6.1 7.25 Q5.45 6.85 5.25 6.15" fill="#a4ff31" fill-rule="evenodd" stroke="none"/>
    <path d="M6.75 6.35 L6.8 5.75 6.45 5.3 5.8 5.2 5.35 5.6 Q5.15 5.85 5.25 6.15 5.3 6.5 5.65 6.65 L6.25 6.75 6.75 6.35" fill="#c0ff70" fill-rule="evenodd" stroke="none"/>
    <path d="M24.6 4.1 Q25.45 4.4 25.9 5.0 26.45 5.7 26.35 6.65 26.25 7.7 25.5 8.25 24.75 8.9 23.75 8.8 22.8 8.7 22.15 7.95 21.5 7.15 21.65 6.15 L21.8 5.65 21.85 5.35 21.95 5.0 22.0 4.8 22.1 4.6 Q22.4 4.1 23.0 3.9 L23.4 3.9 24.55 4.05 24.6 4.1" fill="#cf72f0" fill-rule="evenodd" stroke="none"/>
    <path d="M24.55 4.05 L23.4 3.9 23.0 3.9 Q22.4 4.1 22.1 4.6 L22.0 4.8 21.95 5.0 21.85 5.35 21.8 5.65 21.65 6.15 Q21.5 7.15 22.15 7.95 22.8 8.7 23.75 8.8 24.75 8.9 25.5 8.25 26.25 7.7 26.35 6.65 26.45 5.7 25.9 5.0 25.45 4.4 24.6 4.1" fill="none" stroke="#001200" stroke-linecap="round" stroke-linejoin="round" stroke-width="0.75"/>
    <path d="M22.3 6.15 L22.2 5.95 22.05 5.55 22.0 5.4 21.95 5.0 22.0 4.8 22.1 4.6 Q22.4 4.1 23.0 3.9 L23.25 4.4 23.35 4.3 23.65 4.25 24.05 4.35 24.1 4.35 24.4 4.6 24.25 4.7 24.0 5.15 24.05 5.25 23.85 5.4 23.55 5.55 23.0 5.95 22.6 6.05 22.3 6.15" fill="#c8c8c8" fill-rule="evenodd" stroke="none"/>
    <path d="M21.95 5.0 L22.0 5.4 22.05 5.55 22.2 5.95 22.3 6.15 21.85 6.1 21.95 5.0 M22.6 6.05 L23.0 5.95 22.65 6.25 22.6 6.05" fill="#e6e6e6" fill-rule="evenodd" stroke="none"/>
    <path d="M24.05 5.25 L24.0 5.15 24.25 4.7 24.5 4.95 24.05 5.25 M24.4 4.6 L24.1 4.35 24.05 4.35 23.65 4.25 23.35 4.3 23.25 4.4 23.0 3.9 23.4 3.9 24.55 4.05 24.6 4.1 24.4 4.6" fill="#a2a2a2" fill-rule="evenodd" stroke="none"/>
    <path d="M22.0 5.15 L22.55 4.6 23.2 4.2 23.8 4.05 24.2 4.15 Q25.25 4.2 25.9 5.0 26.45 5.7 26.35 6.65 26.25 7.7 25.5 8.25 24.75 8.9 23.75 8.8 22.8 8.7 22.15 7.95 21.5 7.15 21.65 6.15 L21.8 5.65 22.0 5.15" fill="#7cdc02" fill-rule="evenodd" stroke="none"/>
    <path d="M25.6 5.9 Q25.55 6.65 25.0 7.1 24.45 7.6 23.7 7.5 22.95 7.45 22.45 6.85 22.0 6.3 22.1 5.55 22.1 4.85 22.85 4.35 23.5 3.95 24.25 4.0 24.95 4.05 25.3 4.65 25.65 5.15 25.6 5.9" fill="#a4ff31" fill-rule="evenodd" stroke="none"/>
    <path d="M24.1 6.5 L23.95 5.95 Q23.95 5.6 24.2 5.4 L24.8 5.2 25.35 5.5 25.5 6.1 25.25 6.6 24.65 6.8 Q24.3 6.8 24.1 6.5" fill="#c0ff70" fill-rule="evenodd" stroke="none"/>
  </g>
</svg>
