<?xml version="1.0" encoding="UTF-8" standalone="no"?>
<svg xmlns:xlink="http://www.w3.org/1999/xlink" height="5.75px" width="22.55px" xmlns="http://www.w3.org/2000/svg">
  <g transform="matrix(1.0, 0.0, 0.0, 1.0, -4.15, 13.4)">
    <path d="M5.9 -12.65 L7.05 -13.0 7.45 -13.05 8.5 -12.5 8.6 -12.35 8.65 -12.2 8.8 -11.8 8.95 -11.55 9.15 -11.05 Q9.5 -10.1 9.0 -9.2 8.5 -8.35 7.55 -8.1 L5.75 -8.3 Q4.95 -8.75 4.6 -9.75 4.35 -10.65 4.85 -11.5 5.15 -12.15 5.9 -12.6 L5.9 -12.65" fill="#cf72f0" fill-rule="evenodd" stroke="none"/>
    <path d="M5.9 -12.65 L7.05 -13.0 7.45 -13.05 8.5 -12.5 8.6 -12.35 8.65 -12.2 8.8 -11.8 8.95 -11.55 9.15 -11.05 Q9.5 -10.1 9.0 -9.2 8.5 -8.35 7.55 -8.1 L5.75 -8.3 Q4.95 -8.75 4.6 -9.75 4.35 -10.65 4.85 -11.5 5.15 -12.15 5.9 -12.6" fill="none" stroke="#001200" stroke-linecap="round" stroke-linejoin="round" stroke-width="0.75"/>
    <path d="M6.2 -12.15 L5.9 -12.6 5.9 -12.65 7.05 -13.0 7.45 -13.05 7.25 -12.55 7.15 -12.6 Q7.15 -12.8 6.85 -12.6 L6.5 -12.45 6.45 -12.4 6.2 -12.15 M6.65 -11.55 L6.2 -11.8 6.35 -12.05 6.7 -11.65 6.65 -11.55" fill="#a2a2a2" fill-rule="evenodd" stroke="none"/>
    <path d="M6.2 -12.15 L6.45 -12.4 6.5 -12.45 6.85 -12.6 Q7.15 -12.8 7.15 -12.6 L7.25 -12.55 7.45 -13.05 8.5 -12.5 8.6 -12.35 8.65 -12.2 8.7 -11.8 8.65 -11.6 8.6 -11.2 8.6 -10.95 8.25 -10.95 7.8 -11.0 7.2 -11.3 6.85 -11.45 6.65 -11.55 6.7 -11.65 6.35 -12.05 6.2 -12.15" fill="#c8c8c8" fill-rule="evenodd" stroke="none"/>
    <path d="M8.65 -12.2 L8.95 -11.05 8.6 -10.95 8.6 -11.2 8.65 -11.6 8.7 -11.8 8.65 -12.2 M8.25 -10.95 L8.2 -10.8 7.8 -11.0 8.25 -10.95" fill="#e6e6e6" fill-rule="evenodd" stroke="none"/>
    <path d="M6.7 -12.75 L7.3 -12.7 8.05 -12.45 8.65 -12.0 8.95 -11.55 9.15 -11.05 Q9.5 -10.1 9.0 -9.2 8.5 -8.35 7.55 -8.1 L5.75 -8.3 Q4.95 -8.75 4.6 -9.75 4.35 -10.65 4.85 -11.5 5.3 -12.35 6.3 -12.65 L6.7 -12.75" fill="#7cdc02" fill-rule="evenodd" stroke="none"/>
    <path d="M5.25 -10.65 Q5.1 -11.35 5.3 -11.95 5.6 -12.6 6.3 -12.75 L7.75 -12.65 Q8.5 -12.3 8.7 -11.6 8.85 -10.85 8.5 -10.25 8.15 -9.6 7.45 -9.4 L6.1 -9.55 Q5.45 -9.95 5.25 -10.65" fill="#a4ff31" fill-rule="evenodd" stroke="none"/>
    <path d="M6.75 -10.45 L6.8 -11.05 6.45 -11.5 5.8 -11.6 5.35 -11.2 Q5.15 -10.95 5.25 -10.65 5.3 -10.3 5.65 -10.15 L6.25 -10.05 6.75 -10.45" fill="#c0ff70" fill-rule="evenodd" stroke="none"/>
    <path d="M24.6 -12.7 L25.9 -11.8 Q26.45 -11.1 26.35 -10.15 26.25 -9.1 25.5 -8.55 24.75 -7.9 23.75 -8.0 22.8 -8.1 22.15 -8.85 21.5 -9.65 21.65 -10.65 L21.8 -11.15 21.85 -11.45 21.95 -11.8 22.0 -12.0 22.1 -12.2 Q22.4 -12.7 23.0 -12.9 L23.4 -12.9 24.55 -12.75 24.6 -12.7" fill="#cf72f0" fill-rule="evenodd" stroke="none"/>
    <path d="M24.55 -12.75 L23.4 -12.9 23.0 -12.9 Q22.4 -12.7 22.1 -12.2 L22.0 -12.0 21.95 -11.8 21.85 -11.45 21.8 -11.15 21.65 -10.65 Q21.5 -9.65 22.15 -8.85 22.8 -8.1 23.75 -8.0 24.75 -7.9 25.5 -8.55 26.25 -9.1 26.35 -10.15 26.45 -11.1 25.9 -11.8 L24.6 -12.7" fill="none" stroke="#001200" stroke-linecap="round" stroke-linejoin="round" stroke-width="0.75"/>
    <path d="M24.4 -12.2 L24.25 -12.1 24.0 -11.65 24.05 -11.55 23.85 -11.4 Q23.65 -11.25 23.55 -11.25 L23.0 -10.85 22.6 -10.75 22.3 -10.65 22.2 -10.85 22.05 -11.25 22.0 -11.4 21.95 -11.8 22.0 -12.0 22.1 -12.2 Q22.4 -12.7 23.0 -12.9 L23.25 -12.4 23.35 -12.5 23.65 -12.55 24.05 -12.45 24.1 -12.45 24.4 -12.2" fill="#c8c8c8" fill-rule="evenodd" stroke="none"/>
    <path d="M23.0 -12.9 L23.4 -12.9 24.55 -12.75 24.6 -12.7 24.4 -12.2 24.1 -12.45 24.05 -12.45 23.65 -12.55 23.35 -12.5 23.25 -12.4 23.0 -12.9 M24.25 -12.1 L24.5 -11.85 24.05 -11.55 24.0 -11.65 24.25 -12.1" fill="#a2a2a2" fill-rule="evenodd" stroke="none"/>
    <path d="M23.0 -10.85 L22.65 -10.55 22.6 -10.75 23.0 -10.85 M22.3 -10.65 L21.85 -10.7 21.95 -11.8 22.0 -11.4 22.05 -11.25 22.2 -10.85 22.3 -10.65" fill="#e6e6e6" fill-rule="evenodd" stroke="none"/>
    <path d="M23.2 -12.6 L23.8 -12.75 24.2 -12.65 Q25.25 -12.6 25.9 -11.8 26.45 -11.1 26.35 -10.15 26.25 -9.1 25.5 -8.55 24.75 -7.9 23.75 -8.0 22.8 -8.1 22.15 -8.85 21.5 -9.65 21.65 -10.65 L21.8 -11.15 22.0 -11.65 22.55 -12.2 23.2 -12.6" fill="#7cdc02" fill-rule="evenodd" stroke="none"/>
    <path d="M25.6 -10.9 Q25.55 -10.15 25.0 -9.7 24.45 -9.2 23.7 -9.3 22.95 -9.35 22.45 -9.95 22.0 -10.5 22.1 -11.25 22.1 -11.95 22.85 -12.45 L24.25 -12.8 Q24.95 -12.75 25.3 -12.15 25.65 -11.65 25.6 -10.9" fill="#a4ff31" fill-rule="evenodd" stroke="none"/>
    <path d="M24.1 -10.3 Q23.9 -10.55 23.95 -10.85 L24.2 -11.4 24.8 -11.6 25.35 -11.3 25.5 -10.7 25.25 -10.2 Q24.95 -9.95 24.65 -10.0 24.3 -10.0 24.1 -10.3" fill="#c0ff70" fill-rule="evenodd" stroke="none"/>
  </g>
</svg>
