<?xml version="1.0" encoding="UTF-8" standalone="no"?>
<svg xmlns:xlink="http://www.w3.org/1999/xlink" height="5.75px" width="22.55px" xmlns="http://www.w3.org/2000/svg">
  <g transform="matrix(1.0, 0.0, 0.0, 1.0, -4.15, 37.7)">
    <path d="M5.9 -36.95 L7.05 -37.3 7.45 -37.35 8.5 -36.8 8.6 -36.65 8.65 -36.5 8.8 -36.1 8.95 -35.85 9.15 -35.35 Q9.5 -34.4 9.0 -33.5 8.5 -32.65 7.55 -32.4 L5.75 -32.6 Q4.95 -33.05 4.6 -34.05 4.35 -34.95 4.85 -35.8 5.15 -36.45 5.9 -36.9 L5.9 -36.95" fill="#cf72f0" fill-rule="evenodd" stroke="none"/>
    <path d="M5.9 -36.95 L7.05 -37.3 7.45 -37.35 8.5 -36.8 8.6 -36.65 8.65 -36.5 8.8 -36.1 8.95 -35.85 9.15 -35.35 Q9.5 -34.4 9.0 -33.5 8.5 -32.65 7.55 -32.4 L5.75 -32.6 Q4.95 -33.05 4.6 -34.05 4.35 -34.95 4.85 -35.8 5.15 -36.45 5.9 -36.9" fill="none" stroke="#001200" stroke-linecap="round" stroke-linejoin="round" stroke-width="0.75"/>
    <path d="M6.2 -36.45 L5.9 -36.9 5.9 -36.95 7.05 -37.3 7.45 -37.35 7.25 -36.85 7.15 -36.9 Q7.15 -37.1 6.85 -36.9 L6.5 -36.75 6.45 -36.7 6.2 -36.45 M6.65 -35.85 L6.2 -36.1 6.35 -36.35 6.7 -35.95 6.65 -35.85" fill="#a2a2a2" fill-rule="evenodd" stroke="none"/>
    <path d="M6.2 -36.45 L6.45 -36.7 6.5 -36.75 6.85 -36.9 Q7.15 -37.1 7.15 -36.9 L7.25 -36.85 7.45 -37.35 8.5 -36.8 8.6 -36.65 8.65 -36.5 8.7 -36.1 8.65 -35.9 8.6 -35.5 8.6 -35.25 8.25 -35.25 7.8 -35.3 7.2 -35.6 6.85 -35.75 6.65 -35.85 6.7 -35.95 6.35 -36.35 6.2 -36.45" fill="#c8c8c8" fill-rule="evenodd" stroke="none"/>
    <path d="M8.65 -36.5 L8.95 -35.35 8.6 -35.25 8.6 -35.5 8.65 -35.9 8.7 -36.1 8.65 -36.5 M8.25 -35.25 L8.2 -35.1 7.8 -35.3 8.25 -35.25" fill="#e6e6e6" fill-rule="evenodd" stroke="none"/>
    <path d="M9.15 -35.35 Q9.5 -34.4 9.0 -33.5 8.5 -32.65 7.55 -32.4 L5.75 -32.6 Q4.95 -33.05 4.6 -34.05 4.35 -34.95 4.85 -35.8 5.3 -36.65 6.3 -36.95 L6.7 -37.05 7.3 -37.0 8.05 -36.75 8.65 -36.3 8.95 -35.85 9.15 -35.35" fill="#7cdc02" fill-rule="evenodd" stroke="none"/>
    <path d="M5.25 -34.95 Q5.1 -35.65 5.3 -36.25 5.6 -36.9 6.3 -37.05 L7.75 -36.95 Q8.5 -36.6 8.7 -35.9 8.85 -35.15 8.5 -34.55 8.15 -33.9 7.45 -33.7 L6.1 -33.85 Q5.45 -34.25 5.25 -34.95" fill="#a4ff31" fill-rule="evenodd" stroke="none"/>
    <path d="M6.75 -34.75 L6.8 -35.35 6.45 -35.8 5.8 -35.9 5.35 -35.5 Q5.15 -35.25 5.25 -34.95 5.3 -34.6 5.65 -34.45 L6.25 -34.35 6.75 -34.75" fill="#c0ff70" fill-rule="evenodd" stroke="none"/>
    <path d="M24.6 -37.0 L25.9 -36.1 Q26.45 -35.4 26.35 -34.45 26.25 -33.4 25.5 -32.85 24.75 -32.2 23.75 -32.3 22.8 -32.4 22.15 -33.15 21.5 -33.95 21.65 -34.95 L21.8 -35.45 21.85 -35.75 21.95 -36.1 22.0 -36.3 22.1 -36.5 Q22.4 -37.0 23.0 -37.2 L23.4 -37.2 24.55 -37.05 24.6 -37.0" fill="#cf72f0" fill-rule="evenodd" stroke="none"/>
    <path d="M24.55 -37.05 L23.4 -37.2 23.0 -37.2 Q22.4 -37.0 22.1 -36.5 L22.0 -36.3 21.95 -36.1 21.85 -35.75 21.8 -35.45 21.65 -34.95 Q21.5 -33.95 22.15 -33.15 22.8 -32.4 23.75 -32.3 24.75 -32.2 25.5 -32.85 26.25 -33.4 26.35 -34.45 26.45 -35.4 25.9 -36.1 L24.6 -37.0" fill="none" stroke="#001200" stroke-linecap="round" stroke-linejoin="round" stroke-width="0.75"/>
    <path d="M23.0 -37.2 L23.4 -37.2 24.55 -37.05 24.6 -37.0 24.4 -36.5 24.1 -36.75 24.05 -36.75 23.65 -36.85 23.35 -36.8 23.25 -36.7 23.0 -37.2 M24.25 -36.4 L24.5 -36.15 24.05 -35.85 24.0 -35.95 24.25 -36.4" fill="#a2a2a2" fill-rule="evenodd" stroke="none"/>
    <path d="M24.4 -36.5 L24.25 -36.4 24.0 -35.95 24.05 -35.85 23.85 -35.7 Q23.65 -35.55 23.55 -35.55 L23.0 -35.15 22.6 -35.05 22.3 -34.95 22.2 -35.15 22.05 -35.55 22.0 -35.7 21.95 -36.1 22.0 -36.3 22.1 -36.5 Q22.4 -37.0 23.0 -37.2 L23.25 -36.7 23.35 -36.8 23.65 -36.85 24.05 -36.75 24.1 -36.75 24.4 -36.5" fill="#c8c8c8" fill-rule="evenodd" stroke="none"/>
    <path d="M23.0 -35.15 L22.65 -34.85 22.6 -35.05 23.0 -35.15 M22.3 -34.95 L21.85 -35.0 21.95 -36.1 22.0 -35.7 22.05 -35.55 22.2 -35.15 22.3 -34.95" fill="#e6e6e6" fill-rule="evenodd" stroke="none"/>
    <path d="M25.9 -36.1 Q26.45 -35.4 26.35 -34.45 26.25 -33.4 25.5 -32.85 24.75 -32.2 23.75 -32.3 22.8 -32.4 22.15 -33.15 21.5 -33.95 21.65 -34.95 L21.8 -35.45 22.0 -35.95 22.55 -36.5 23.2 -36.9 23.8 -37.05 24.2 -36.95 Q25.25 -36.9 25.9 -36.1" fill="#7cdc02" fill-rule="evenodd" stroke="none"/>
    <path d="M25.6 -35.2 Q25.55 -34.45 25.0 -34.0 24.45 -33.5 23.7 -33.6 22.95 -33.65 22.45 -34.25 22.0 -34.8 22.1 -35.55 22.1 -36.25 22.85 -36.75 L24.25 -37.1 Q24.95 -37.05 25.3 -36.45 25.65 -35.95 25.6 -35.2" fill="#a4ff31" fill-rule="evenodd" stroke="none"/>
    <path d="M24.1 -34.6 Q23.9 -34.85 23.95 -35.15 L24.2 -35.7 24.8 -35.9 25.35 -35.6 25.5 -35.0 25.25 -34.5 Q24.95 -34.25 24.65 -34.3 24.3 -34.3 24.1 -34.6" fill="#c0ff70" fill-rule="evenodd" stroke="none"/>
  </g>
</svg>
