<?xml version="1.0" encoding="UTF-8" standalone="no"?>
<svg xmlns:xlink="http://www.w3.org/1999/xlink" height="5.75px" width="22.55px" xmlns="http://www.w3.org/2000/svg">
  <g transform="matrix(1.0, 0.0, 0.0, 1.0, -4.15, 20.0)">
    <path d="M5.9 -19.2 L5.9 -19.25 7.05 -19.6 7.45 -19.65 8.5 -19.1 8.6 -18.95 8.65 -18.8 8.8 -18.4 8.95 -18.15 9.15 -17.65 Q9.5 -16.7 9.0 -15.8 8.5 -14.95 7.55 -14.7 L5.75 -14.9 Q4.95 -15.35 4.6 -16.35 4.35 -17.25 4.85 -18.1 5.15 -18.75 5.9 -19.2" fill="#cf72f0" fill-rule="evenodd" stroke="none"/>
    <path d="M5.9 -19.25 L7.05 -19.6 7.45 -19.65 8.5 -19.1 8.6 -18.95 8.65 -18.8 8.8 -18.4 8.95 -18.15 9.15 -17.65 Q9.5 -16.7 9.0 -15.8 8.5 -14.95 7.55 -14.7 L5.75 -14.9 Q4.95 -15.35 4.6 -16.35 4.35 -17.25 4.85 -18.1 5.15 -18.75 5.9 -19.2" fill="none" stroke="#001200" stroke-linecap="round" stroke-linejoin="round" stroke-width="0.75"/>
    <path d="M6.2 -18.75 L5.9 -19.2 5.9 -19.25 7.05 -19.6 7.45 -19.65 7.25 -19.15 7.15 -19.2 Q7.15 -19.4 6.85 -19.2 L6.5 -19.05 6.45 -19.0 6.2 -18.75 M6.65 -18.15 L6.2 -18.4 6.35 -18.65 6.7 -18.25 6.65 -18.15" fill="#a2a2a2" fill-rule="evenodd" stroke="none"/>
    <path d="M6.2 -18.75 L6.45 -19.0 6.5 -19.05 6.85 -19.2 Q7.15 -19.4 7.15 -19.2 L7.25 -19.15 7.45 -19.65 8.5 -19.1 8.6 -18.95 8.65 -18.8 8.7 -18.4 8.65 -18.2 8.6 -17.8 8.6 -17.55 8.25 -17.55 7.8 -17.6 7.2 -17.9 6.85 -18.05 6.65 -18.15 6.7 -18.25 6.35 -18.65 6.2 -18.75" fill="#c8c8c8" fill-rule="evenodd" stroke="none"/>
    <path d="M8.65 -18.8 L8.95 -17.65 8.6 -17.55 8.6 -17.8 8.65 -18.2 8.7 -18.4 8.65 -18.8 M8.25 -17.55 L8.2 -17.4 7.8 -17.6 8.25 -17.55" fill="#e6e6e6" fill-rule="evenodd" stroke="none"/>
    <path d="M6.7 -19.35 L7.3 -19.3 8.05 -19.05 8.65 -18.6 8.95 -18.15 9.15 -17.65 Q9.5 -16.7 9.0 -15.8 8.5 -14.95 7.55 -14.7 L5.75 -14.9 Q4.95 -15.35 4.6 -16.35 4.35 -17.25 4.85 -18.1 5.3 -18.95 6.3 -19.25 L6.7 -19.35" fill="#7cdc02" fill-rule="evenodd" stroke="none"/>
    <path d="M5.25 -17.25 Q5.1 -17.95 5.3 -18.55 5.6 -19.2 6.3 -19.35 L7.75 -19.25 Q8.5 -18.9 8.7 -18.2 8.85 -17.45 8.5 -16.85 8.15 -16.2 7.45 -16.0 L6.1 -16.15 Q5.45 -16.55 5.25 -17.25" fill="#a4ff31" fill-rule="evenodd" stroke="none"/>
    <path d="M6.75 -17.05 L6.8 -17.65 6.45 -18.1 5.8 -18.2 5.35 -17.8 Q5.15 -17.55 5.25 -17.25 5.3 -16.9 5.65 -16.75 L6.25 -16.65 6.75 -17.05" fill="#c0ff70" fill-rule="evenodd" stroke="none"/>
    <path d="M24.55 -19.35 L24.6 -19.3 25.9 -18.4 Q26.45 -17.7 26.35 -16.75 26.25 -15.7 25.5 -15.15 24.75 -14.5 23.75 -14.6 22.8 -14.7 22.15 -15.45 21.5 -16.25 21.65 -17.25 L21.8 -17.75 21.85 -18.05 21.95 -18.4 22.0 -18.6 22.1 -18.8 Q22.4 -19.3 23.0 -19.5 L23.4 -19.5 24.55 -19.35" fill="#cf72f0" fill-rule="evenodd" stroke="none"/>
    <path d="M24.55 -19.35 L23.4 -19.5 23.0 -19.5 Q22.4 -19.3 22.1 -18.8 L22.0 -18.6 21.95 -18.4 21.85 -18.05 21.8 -17.75 21.65 -17.25 Q21.5 -16.25 22.15 -15.45 22.8 -14.7 23.75 -14.6 24.75 -14.5 25.5 -15.15 26.25 -15.7 26.35 -16.75 26.45 -17.7 25.9 -18.4 L24.6 -19.3" fill="none" stroke="#001200" stroke-linecap="round" stroke-linejoin="round" stroke-width="0.75"/>
    <path d="M21.95 -18.4 L22.0 -18.6 22.1 -18.8 Q22.4 -19.3 23.0 -19.5 L23.25 -19.0 23.35 -19.1 23.65 -19.15 24.05 -19.05 24.1 -19.05 24.4 -18.8 24.25 -18.7 24.0 -18.25 24.05 -18.15 23.85 -18.0 Q23.65 -17.85 23.55 -17.85 L23.0 -17.45 22.6 -17.35 22.3 -17.25 22.2 -17.45 22.05 -17.85 22.0 -18.0 21.95 -18.4" fill="#c8c8c8" fill-rule="evenodd" stroke="none"/>
    <path d="M24.05 -18.15 L24.0 -18.25 24.25 -18.7 24.5 -18.45 24.05 -18.15 M24.4 -18.8 L24.1 -19.05 24.05 -19.05 23.65 -19.15 23.35 -19.1 23.25 -19.0 23.0 -19.5 23.4 -19.5 24.55 -19.35 24.6 -19.3 24.4 -18.8" fill="#a2a2a2" fill-rule="evenodd" stroke="none"/>
    <path d="M21.95 -18.4 L22.0 -18.0 22.05 -17.85 22.2 -17.45 22.3 -17.25 21.85 -17.3 21.95 -18.4 M22.6 -17.35 L23.0 -17.45 22.65 -17.15 22.6 -17.35" fill="#e6e6e6" fill-rule="evenodd" stroke="none"/>
    <path d="M23.2 -19.2 L23.8 -19.35 24.2 -19.25 Q25.25 -19.2 25.9 -18.4 26.45 -17.7 26.35 -16.75 26.25 -15.7 25.5 -15.15 24.75 -14.5 23.75 -14.6 22.8 -14.7 22.15 -15.45 21.5 -16.25 21.65 -17.25 L21.8 -17.75 22.0 -18.25 22.55 -18.8 23.2 -19.2" fill="#7cdc02" fill-rule="evenodd" stroke="none"/>
    <path d="M25.6 -17.5 Q25.55 -16.75 25.0 -16.3 24.45 -15.8 23.7 -15.9 22.95 -15.95 22.45 -16.55 22.0 -17.1 22.1 -17.85 22.1 -18.55 22.85 -19.05 L24.25 -19.4 Q24.95 -19.35 25.3 -18.75 25.65 -18.25 25.6 -17.5" fill="#a4ff31" fill-rule="evenodd" stroke="none"/>
    <path d="M24.1 -16.9 Q23.9 -17.15 23.95 -17.45 L24.2 -18.0 24.8 -18.2 25.35 -17.9 25.5 -17.3 25.25 -16.8 Q24.95 -16.55 24.65 -16.6 24.3 -16.6 24.1 -16.9" fill="#c0ff70" fill-rule="evenodd" stroke="none"/>
  </g>
</svg>
