<?xml version="1.0" encoding="UTF-8" standalone="no"?>
<svg xmlns:xlink="http://www.w3.org/1999/xlink" height="5.75px" width="22.55px" xmlns="http://www.w3.org/2000/svg">
  <g transform="matrix(1.0, 0.0, 0.0, 1.0, -4.15, -3.25)">
    <path d="M5.9 4.05 L5.9 4.0 7.05 3.65 7.45 3.6 8.5 4.15 8.6 4.3 8.65 4.45 8.8 4.85 8.95 5.1 9.15 5.6 Q9.5 6.55 9.0 7.45 8.5 8.3 7.55 8.55 L5.75 8.35 Q4.95 7.9 4.6 6.9 4.35 6.0 4.85 5.15 5.15 4.5 5.9 4.05" fill="#cf72f0" fill-rule="evenodd" stroke="none"/>
    <path d="M5.9 4.0 L7.05 3.65 7.45 3.6 8.5 4.15 8.6 4.3 8.65 4.45 8.8 4.85 8.95 5.1 9.15 5.6 Q9.5 6.55 9.0 7.45 8.5 8.3 7.55 8.55 L5.75 8.35 Q4.95 7.9 4.6 6.9 4.35 6.0 4.85 5.15 5.15 4.5 5.9 4.05" fill="none" stroke="#001200" stroke-linecap="round" stroke-linejoin="round" stroke-width="0.75"/>
    <path d="M7.45 3.6 L7.25 4.1 7.15 4.05 Q7.15 3.85 6.85 4.05 L6.5 4.2 6.45 4.25 6.2 4.5 5.9 4.05 5.9 4.0 7.05 3.65 7.45 3.6 M6.35 4.6 L6.7 5.0 6.65 5.1 6.2 4.85 6.35 4.6" fill="#a2a2a2" fill-rule="evenodd" stroke="none"/>
    <path d="M6.2 4.5 L6.45 4.25 6.5 4.2 6.85 4.05 Q7.15 3.85 7.15 4.05 L7.25 4.1 7.45 3.6 8.5 4.15 8.6 4.3 8.65 4.45 8.7 4.85 8.65 5.05 8.6 5.45 8.6 5.7 8.25 5.7 7.8 5.65 7.2 5.35 6.85 5.2 6.65 5.1 6.7 5.0 6.35 4.6 6.2 4.5" fill="#c8c8c8" fill-rule="evenodd" stroke="none"/>
    <path d="M7.8 5.65 L8.25 5.7 8.2 5.85 7.8 5.65 M8.6 5.7 L8.6 5.45 8.65 5.05 8.7 4.85 8.65 4.45 Q8.9 4.85 8.95 5.6 L8.6 5.7" fill="#e6e6e6" fill-rule="evenodd" stroke="none"/>
    <path d="M9.15 5.6 Q9.5 6.55 9.0 7.45 8.5 8.3 7.55 8.55 L5.75 8.35 Q4.95 7.9 4.6 6.9 4.35 6.0 4.85 5.15 5.3 4.3 6.3 4.0 L6.7 3.9 7.3 3.95 8.05 4.2 8.65 4.65 8.95 5.1 9.15 5.6" fill="#7cdc02" fill-rule="evenodd" stroke="none"/>
    <path d="M5.25 6.0 Q5.1 5.3 5.3 4.7 5.6 4.05 6.3 3.9 L7.75 4.0 Q8.5 4.35 8.7 5.05 8.85 5.8 8.5 6.4 L7.45 7.25 6.1 7.1 Q5.45 6.7 5.25 6.0" fill="#a4ff31" fill-rule="evenodd" stroke="none"/>
    <path d="M6.75 6.2 L6.8 5.6 6.45 5.15 5.8 5.05 5.35 5.45 Q5.15 5.7 5.25 6.0 5.3 6.35 5.65 6.5 L6.25 6.6 6.75 6.2" fill="#c0ff70" fill-rule="evenodd" stroke="none"/>
    <path d="M24.6 3.95 Q25.45 4.25 25.9 4.85 26.45 5.55 26.35 6.5 26.25 7.55 25.5 8.1 24.75 8.75 23.75 8.65 22.8 8.55 22.15 7.8 21.5 7.0 21.65 6.0 L21.8 5.5 21.85 5.2 21.95 4.85 22.0 4.65 22.1 4.45 Q22.4 3.95 23.0 3.75 L23.4 3.75 24.55 3.9 24.6 3.95" fill="#cf72f0" fill-rule="evenodd" stroke="none"/>
    <path d="M24.55 3.9 L23.4 3.75 23.0 3.75 Q22.4 3.95 22.1 4.45 L22.0 4.65 21.95 4.85 21.85 5.2 21.8 5.5 21.65 6.0 Q21.5 7.0 22.15 7.8 22.8 8.55 23.75 8.65 24.75 8.75 25.5 8.1 26.25 7.55 26.35 6.5 26.45 5.55 25.9 4.85 25.45 4.25 24.6 3.95" fill="none" stroke="#001200" stroke-linecap="round" stroke-linejoin="round" stroke-width="0.75"/>
    <path d="M22.3 6.0 L22.2 5.8 22.05 5.4 22.0 5.25 21.95 4.85 22.0 4.65 22.1 4.45 Q22.4 3.95 23.0 3.75 L23.25 4.25 23.35 4.15 23.65 4.1 24.05 4.2 24.1 4.2 24.4 4.45 24.25 4.55 24.0 5.0 24.05 5.1 23.85 5.25 23.55 5.4 23.0 5.8 22.6 5.9 22.3 6.0" fill="#c8c8c8" fill-rule="evenodd" stroke="none"/>
    <path d="M21.95 4.85 L22.0 5.25 22.05 5.4 22.2 5.8 22.3 6.0 21.85 5.95 21.95 4.85 M22.6 5.9 L23.0 5.8 22.65 6.1 22.6 5.9" fill="#e6e6e6" fill-rule="evenodd" stroke="none"/>
    <path d="M24.05 5.1 L24.0 5.0 24.25 4.55 24.5 4.8 24.05 5.1 M24.4 4.45 L24.1 4.2 24.05 4.2 23.65 4.1 23.35 4.15 23.25 4.25 23.0 3.75 23.4 3.75 24.55 3.9 24.6 3.95 24.4 4.45" fill="#a2a2a2" fill-rule="evenodd" stroke="none"/>
    <path d="M22.55 4.45 L23.2 4.05 23.8 3.9 24.2 4.0 Q25.25 4.05 25.9 4.85 26.45 5.55 26.35 6.5 26.25 7.55 25.5 8.1 24.75 8.75 23.75 8.65 22.8 8.55 22.15 7.8 21.5 7.0 21.65 6.0 L21.8 5.5 22.0 5.0 22.55 4.45" fill="#7cdc02" fill-rule="evenodd" stroke="none"/>
    <path d="M25.6 5.75 Q25.55 6.5 25.0 6.95 24.45 7.45 23.7 7.35 22.95 7.3 22.45 6.7 22.0 6.15 22.1 5.4 22.1 4.7 22.85 4.2 23.5 3.8 24.25 3.85 24.95 3.9 25.3 4.5 25.65 5.0 25.6 5.75" fill="#a4ff31" fill-rule="evenodd" stroke="none"/>
    <path d="M24.1 6.35 L23.95 5.8 Q23.95 5.45 24.2 5.25 L24.8 5.05 25.35 5.35 25.5 5.95 25.25 6.45 24.65 6.65 Q24.3 6.65 24.1 6.35" fill="#c0ff70" fill-rule="evenodd" stroke="none"/>
  </g>
</svg>
