<?xml version="1.0" encoding="UTF-8" standalone="no"?>
<svg xmlns:xlink="http://www.w3.org/1999/xlink" height="512.15px" width="715.0px" xmlns="http://www.w3.org/2000/svg">
  <g transform="matrix(1.0, 0.0, 0.0, 1.0, 13.8, 0.0)">
    <path d="M701.2 512.15 L0.0 512.15 0.0 0.0 701.2 0.0 701.2 512.15" fill="url(#gradient0)" fill-rule="evenodd" stroke="none"/>
    <path d="M676.15 0.0 L676.15 512.1 650.15 512.1 650.15 0.0 676.15 0.0" fill="url(#gradient1)" fill-rule="evenodd" stroke="none"/>
    <path d="M623.9 0.0 L623.9 512.1 597.9 512.1 597.9 0.0 623.9 0.0" fill="url(#gradient2)" fill-rule="evenodd" stroke="none"/>
    <path d="M520.1 0.0 L520.1 512.1 494.1 512.1 494.1 0.0 520.1 0.0" fill="url(#gradient3)" fill-rule="evenodd" stroke="none"/>
    <path d="M572.0 0.0 L572.0 512.1 546.0 512.1 546.0 0.0 572.0 0.0" fill="url(#gradient4)" fill-rule="evenodd" stroke="none"/>
    <path d="M468.2 0.0 L468.2 512.1 442.2 512.1 442.2 0.0 468.2 0.0" fill="url(#gradient5)" fill-rule="evenodd" stroke="none"/>
    <path d="M364.4 0.0 L364.4 512.1 338.4 512.1 338.4 0.0 364.4 0.0" fill="url(#gradient6)" fill-rule="evenodd" stroke="none"/>
    <path d="M416.3 0.0 L416.3 512.1 390.3 512.1 390.3 0.0 416.3 0.0" fill="url(#gradient7)" fill-rule="evenodd" stroke="none"/>
    <path d="M312.5 0.0 L312.5 512.1 286.5 512.1 286.5 0.0 312.5 0.0" fill="url(#gradient8)" fill-rule="evenodd" stroke="none"/>
    <path d="M208.7 0.0 L208.7 512.1 182.7 512.1 182.7 0.0 208.7 0.0" fill="url(#gradient9)" fill-rule="evenodd" stroke="none"/>
    <path d="M260.6 0.0 L260.6 512.1 234.6 512.1 234.6 0.0 260.6 0.0" fill="url(#gradient10)" fill-rule="evenodd" stroke="none"/>
    <path d="M156.8 0.0 L156.8 512.1 130.8 512.1 130.8 0.0 156.8 0.0" fill="url(#gradient11)" fill-rule="evenodd" stroke="none"/>
    <path d="M53.0 0.0 L53.0 512.1 27.0 512.1 27.0 0.0 53.0 0.0" fill="url(#gradient12)" fill-rule="evenodd" stroke="none"/>
    <path d="M104.9 0.0 L104.9 512.1 78.9 512.1 78.9 0.0 104.9 0.0" fill="url(#gradient13)" fill-rule="evenodd" stroke="none"/>
    <path d="M701.2 512.15 L0.0 512.15 0.0 0.0 701.2 0.0 701.2 512.15" fill="url(#gradient14)" fill-rule="evenodd" stroke="none"/>
    <path d="M21.25 260.6 L23.25 260.65 Q31.0 261.5 38.25 275.25 38.85 274.1 39.2 274.3 L39.35 274.45 40.05 276.3 40.9 279.55 40.85 280.55 Q44.45 288.45 47.95 299.65 55.3 296.3 55.7 273.3 L55.55 273.35 Q54.15 273.7 53.65 272.25 53.15 269.7 53.55 267.55 53.85 265.75 54.4 265.85 L54.55 266.0 55.7 267.5 55.35 258.6 55.65 254.1 Q56.7 244.5 63.95 249.95 72.8 258.85 73.95 279.5 L73.95 279.65 74.15 288.55 74.05 291.35 Q73.6 332.6 58.15 340.35 L64.15 363.05 67.9 357.6 70.85 352.7 Q69.85 351.9 70.25 350.5 L71.45 347.4 72.6 345.75 72.7 345.6 Q73.2 345.5 73.75 347.25 L74.1 348.65 Q76.1 346.95 77.4 348.2 79.55 349.95 78.75 356.25 L78.45 358.2 78.4 358.55 Q77.85 362.45 76.65 365.9 76.2 368.55 74.3 372.9 72.0 378.25 69.2 382.25 L74.65 401.7 Q75.6 406.1 72.1 411.6 L70.75 413.65 Q67.2 417.85 62.05 419.95 55.3 422.7 45.05 422.75 33.55 422.9 28.35 416.05 25.15 411.3 22.3 398.15 13.3 400.8 7.3 397.85 1.5 395.1 -3.35 386.1 -9.15 374.25 -11.25 360.8 -14.25 340.9 -8.6 318.1 -4.2 308.75 -1.7 320.55 -0.8 324.65 -0.4 331.4 0.95 337.85 2.95 341.75 L3.2 341.2 Q4.2 339.3 4.65 339.55 L4.75 339.6 5.65 341.8 Q6.35 343.4 6.55 345.55 L6.55 346.3 Q9.55 348.65 13.5 347.45 9.3 322.1 8.85 293.4 L8.85 290.8 Q8.25 269.4 15.3 263.15 17.7 260.75 21.25 260.6" fill="#467b03" fill-rule="evenodd" stroke="none"/>
    <path d="M21.25 260.6 L23.25 260.65 Q31.0 261.5 38.25 275.25 38.85 274.1 39.2 274.3 L39.35 274.45 40.05 276.3 40.9 279.55 40.85 280.55 Q44.45 288.45 47.95 299.65 55.3 296.3 55.7 273.3 L55.55 273.35 Q54.15 273.7 53.65 272.25 53.15 269.7 53.55 267.55 53.85 265.75 54.4 265.85 L54.55 266.0 55.7 267.5 55.35 258.6 55.65 254.1 Q56.7 244.5 63.95 249.95 72.8 258.85 73.95 279.5 L73.95 279.65 74.15 288.55 74.05 291.35 Q73.6 332.6 58.15 340.35 L64.15 363.05 67.9 357.6 70.85 352.7 Q69.85 351.9 70.25 350.5 L71.45 347.4 72.6 345.75 72.7 345.6 Q73.2 345.5 73.75 347.25 L74.1 348.65 Q76.1 346.95 77.4 348.2 79.55 349.95 78.75 356.25 L78.45 358.2 78.4 358.55 Q77.85 362.45 76.65 365.9 76.2 368.55 74.3 372.9 72.0 378.25 69.2 382.25 L74.65 401.7 Q75.6 406.1 72.1 411.6 L70.75 413.65 Q67.2 417.85 62.05 419.95 55.3 422.7 45.05 422.75 33.55 422.9 28.35 416.05 25.15 411.3 22.3 398.15 13.3 400.8 7.3 397.85 1.5 395.1 -3.35 386.1 -9.15 374.25 -11.25 360.8 -14.25 340.9 -8.6 318.1 -4.2 308.75 -1.7 320.55 -0.8 324.65 -0.4 331.4 0.95 337.85 2.95 341.75 L3.2 341.2 Q4.2 339.3 4.65 339.55 L4.75 339.6 5.65 341.8 Q6.35 343.4 6.55 345.55 L6.55 346.3 Q9.55 348.65 13.5 347.45 9.3 322.1 8.85 293.4 L8.85 290.8 Q8.25 269.4 15.3 263.15 17.7 260.75 21.25 260.6 Z" fill="none" stroke="#1b4200" stroke-linecap="round" stroke-linejoin="round" stroke-width="3.0"/>
    <path d="M15.25 263.15 Q17.7 260.75 21.25 260.65 L22.45 260.6 23.15 260.6 Q36.2 262.05 47.9 299.6 L51.2 311.65 Q53.85 321.05 56.55 332.6 L58.0 340.1 58.1 340.4 64.1 363.0 Q62.75 364.8 60.75 366.0 57.8 367.75 54.25 368.7 L53.1 368.7 49.55 369.3 47.7 369.65 47.2 369.75 Q45.4 370.55 44.1 371.45 42.1 373.2 41.45 376.75 40.5 381.55 43.3 387.4 45.0 390.85 47.15 392.55 49.35 394.0 52.25 394.55 56.95 395.2 61.1 391.8 63.9 389.25 69.1 382.2 L74.6 401.7 Q75.55 406.15 72.0 411.55 L70.7 413.6 63.6 415.15 Q51.35 414.7 42.75 398.55 28.0 364.4 17.6 322.85 12.45 302.1 12.1 286.8 11.6 272.6 15.25 263.15 M22.65 288.35 Q24.75 299.15 29.4 312.9 34.15 326.65 39.1 336.05 44.25 346.55 47.5 346.8 49.1 346.9 49.75 344.95 50.35 343.9 50.55 341.1 51.15 334.4 46.1 317.4 L40.0 298.85 Q37.45 291.4 32.8 282.7 25.8 269.25 22.65 273.45 20.45 276.45 22.65 288.35" fill="#7eba2f" fill-rule="evenodd" stroke="none"/>
    <path d="M70.7 413.6 Q67.15 417.85 62.05 419.95 55.25 422.7 45.0 422.8 33.55 422.9 28.35 416.05 25.1 411.3 22.25 398.15 21.15 393.75 20.3 388.45 18.85 381.3 17.65 373.15 15.65 361.7 14.55 354.1 L13.4 347.4 Q9.25 322.1 8.75 293.35 L8.85 290.8 8.8 286.25 Q8.95 268.65 15.25 263.15 11.6 272.6 12.1 286.8 12.45 302.1 17.6 322.85 28.0 364.4 42.75 398.55 51.35 414.7 63.6 415.15 L70.7 413.6" fill="#467f09" fill-rule="evenodd" stroke="none"/>
    <path d="M26.1 292.2 Q24.65 282.6 26.5 280.4 29.3 276.95 34.4 287.9 37.8 295.15 39.5 301.25 L43.8 316.1 Q47.35 329.9 46.65 335.3 L45.95 338.45 Q45.2 339.9 43.95 339.7 41.45 339.3 37.5 330.95 34.05 323.2 30.7 312.0 27.35 300.8 26.1 292.2" fill="#a0e05e" fill-rule="evenodd" stroke="none"/>
    <path d="M26.1 292.2 Q27.35 300.8 30.7 312.0 34.05 323.2 37.5 330.95 41.45 339.3 43.95 339.7 45.2 339.9 45.95 338.45 L46.65 335.3 Q47.35 329.9 43.8 316.1 L39.5 301.25 Q37.8 295.15 34.4 287.9 29.3 276.95 26.5 280.4 24.65 282.6 26.1 292.2 M22.65 288.35 Q20.45 276.45 22.65 273.45 25.8 269.25 32.8 282.7 37.45 291.4 40.0 298.85 L46.1 317.4 Q51.15 334.4 50.55 341.1 50.35 343.9 49.75 344.95 49.1 346.9 47.5 346.8 44.25 346.55 39.1 336.05 34.15 326.65 29.4 312.9 24.75 299.15 22.65 288.35" fill="#94d455" fill-rule="evenodd" stroke="none"/>
    <path d="M47.9 299.6 Q57.35 295.35 55.3 258.65 55.35 255.95 55.65 254.05 58.0 250.05 60.2 251.8 64.9 255.75 67.15 268.15 71.05 284.15 64.25 305.75 58.15 316.1 51.2 311.65 L47.9 299.6 M58.4 263.1 Q58.15 267.0 58.4 276.25 58.4 285.9 56.8 289.15 60.95 288.8 62.0 283.7 62.6 281.5 62.9 277.5 63.05 274.65 62.35 269.0 61.6 264.4 60.6 262.15 60.4 261.0 59.8 260.35 L59.1 260.3 58.75 261.65 58.4 263.1" fill="#86c740" fill-rule="evenodd" stroke="none"/>
    <path d="M55.65 254.05 Q56.7 244.45 63.9 249.9 72.7 258.85 73.85 279.45 L73.9 279.65 Q73.75 298.05 70.55 309.05 64.6 330.85 56.55 332.6 53.85 321.05 51.2 311.65 58.15 316.1 64.25 305.75 71.05 284.15 67.15 268.15 64.9 255.75 60.2 251.8 58.0 250.05 55.65 254.05" fill="#559109" fill-rule="evenodd" stroke="none"/>
    <path d="M58.4 263.1 L58.75 261.65 59.1 260.3 59.8 260.35 Q60.4 261.0 60.6 262.15 61.6 264.4 62.35 269.0 63.05 274.65 62.9 277.5 62.6 281.5 62.0 283.7 60.95 288.8 56.8 289.15 58.4 285.9 58.4 276.25 58.15 267.0 58.4 263.1" fill="#98d951" fill-rule="evenodd" stroke="none"/>
    <path d="M73.9 279.65 L74.05 288.55 74.0 291.4 Q73.6 332.55 58.1 340.4 L58.0 340.1 56.55 332.6 Q64.6 330.85 70.55 309.05 73.75 298.05 73.9 279.65" fill="#3c6b00" fill-rule="evenodd" stroke="none"/>
    <path d="M-1.75 320.5 Q-0.85 324.65 -0.45 331.4 3.7 350.5 13.4 347.4 L14.55 354.1 Q12.5 367.4 6.55 366.7 0.95 366.0 -1.7 361.75 -5.0 357.0 -5.7 348.35 -7.25 334.5 -3.4 320.4 -2.55 319.2 -1.75 320.5" fill="#81ad26" fill-rule="evenodd" stroke="none"/>
    <path d="M-11.3 360.75 Q-14.3 340.9 -8.7 318.05 -4.25 308.7 -1.75 320.5 -2.55 319.2 -3.4 320.4 -7.25 334.5 -5.7 348.35 -5.0 357.0 -1.7 361.75 0.95 366.0 6.55 366.7 12.5 367.4 14.55 354.1 15.65 361.7 17.65 373.15 18.85 381.3 20.3 388.45 1.7 400.35 -11.3 360.75" fill="#477005" fill-rule="evenodd" stroke="none"/>
    <path d="M67.85 357.6 Q69.35 355.5 70.95 352.3 75.15 346.0 77.35 348.2 79.5 349.9 78.75 356.25 L78.4 358.2 78.35 358.5 Q77.05 362.85 71.8 372.8 66.4 382.45 58.25 384.2 50.2 385.65 47.9 382.7 45.55 379.75 45.25 377.4 44.75 376.15 45.35 374.1 45.85 372.5 47.2 369.75 L47.7 369.65 49.55 369.3 53.1 368.7 54.25 368.7 Q52.05 370.6 51.9 372.05 51.8 373.85 52.85 374.3 53.35 374.65 55.15 374.8 59.6 375.2 64.65 369.95 69.6 365.0 70.0 360.6 70.1 358.9 69.85 358.1 69.6 357.45 68.65 357.5 L67.85 357.6" fill="#85b424" fill-rule="evenodd" stroke="none"/>
    <path d="M64.1 363.0 Q65.5 361.4 67.85 357.6 L68.65 357.5 Q69.6 357.45 69.85 358.1 70.1 358.9 70.0 360.6 69.6 365.0 64.65 369.95 59.6 375.2 55.15 374.8 53.35 374.65 52.85 374.3 51.8 373.85 51.9 372.05 52.05 370.6 54.25 368.7 57.8 367.75 60.75 366.0 62.75 364.8 64.1 363.0" fill="#b1d943" fill-rule="evenodd" stroke="none"/>
    <path d="M78.35 358.5 Q77.85 362.45 76.6 365.85 76.15 368.5 74.25 372.9 72.0 378.25 69.1 382.2 63.9 389.25 61.1 391.8 56.95 395.2 52.25 394.55 49.35 394.0 47.15 392.55 45.0 390.85 43.3 387.4 40.5 381.55 41.45 376.75 42.1 373.2 44.1 371.45 45.4 370.55 47.2 369.75 45.85 372.5 45.35 374.1 44.75 376.15 45.25 377.4 45.55 379.75 47.9 382.7 50.2 385.65 58.25 384.2 66.4 382.45 71.8 372.8 77.05 362.85 78.35 358.5" fill="#538710" fill-rule="evenodd" stroke="none"/>
    <path d="M22.25 398.15 Q13.25 400.8 7.3 397.85 1.45 395.05 -3.35 386.1 -9.25 374.2 -11.3 360.75 1.7 400.35 20.3 388.45 21.15 393.75 22.25 398.15" fill="#365800" fill-rule="evenodd" stroke="none"/>
    <path d="M12.4 375.6 L11.95 375.75 Q10.8 375.9 10.55 374.65 10.1 373.4 10.15 372.4 L10.3 371.05 10.35 371.05 11.2 371.85 12.55 373.95 Q12.9 375.05 12.4 375.6 M10.45 371.95 L10.75 373.65 Q10.95 374.95 11.25 374.7 L11.5 375.05 11.1 373.9 10.45 371.95" fill="#275b00" fill-rule="evenodd" stroke="none"/>
    <path d="M10.35 371.05 L10.4 370.8 Q10.55 370.5 11.5 371.55 12.5 372.55 13.35 374.1 13.7 375.15 12.7 375.5 L12.4 375.6 Q12.9 375.05 12.55 373.95 L11.2 371.85 10.35 371.05" fill="#1a3f00" fill-rule="evenodd" stroke="none"/>
    <path d="M10.45 371.95 L11.1 373.9 11.5 375.05 11.25 374.7 Q10.95 374.95 10.75 373.65 L10.45 371.95" fill="#3c8009" fill-rule="evenodd" stroke="none"/>
    <path d="M6.55 382.2 Q6.75 382.15 8.2 383.3 9.45 384.4 10.35 385.9 11.55 387.3 10.2 388.45 L9.7 388.95 Q8.85 388.95 8.0 387.35 6.95 385.75 6.65 384.0 6.2 382.1 6.55 382.2 M10.05 386.6 Q10.4 386.5 9.1 385.05 L7.5 383.2 8.95 385.7 9.85 387.0 Q9.8 386.75 10.05 386.6" fill="#275b00" fill-rule="evenodd" stroke="none"/>
    <path d="M9.7 388.95 L9.4 389.15 Q8.15 389.7 7.35 388.45 6.15 386.25 6.0 384.05 5.9 382.15 6.35 382.0 L6.55 382.2 Q6.2 382.1 6.65 384.0 6.95 385.75 8.0 387.35 8.85 388.95 9.7 388.95" fill="#1a3f00" fill-rule="evenodd" stroke="none"/>
    <path d="M10.05 386.6 Q9.8 386.75 9.85 387.0 L8.95 385.7 7.5 383.2 9.1 385.05 Q10.4 386.5 10.05 386.6" fill="#3c8009" fill-rule="evenodd" stroke="none"/>
    <path d="M29.0 333.45 Q26.95 330.95 26.25 330.6 L28.9 334.6 Q29.45 335.75 30.4 336.8 30.25 336.45 30.65 336.1 31.0 335.85 29.0 333.45 M24.7 328.65 Q25.2 328.7 27.45 330.65 29.6 332.3 31.3 334.85 33.15 337.15 31.0 339.15 L30.25 339.8 Q28.7 339.95 27.2 337.4 25.55 334.6 24.9 331.6 24.35 328.55 24.7 328.65" fill="#3d8e01" fill-rule="evenodd" stroke="none"/>
    <path d="M30.25 339.8 L29.5 340.25 Q27.45 341.4 26.1 339.1 24.05 335.45 24.0 332.0 23.6 328.6 24.4 328.5 L24.7 328.65 Q24.35 328.55 24.9 331.6 25.55 334.6 27.2 337.4 28.7 339.95 30.25 339.8" fill="#255800" fill-rule="evenodd" stroke="none"/>
    <path d="M29.0 333.45 Q31.0 335.85 30.65 336.1 30.25 336.45 30.4 336.8 29.45 335.75 28.9 334.6 L26.25 330.6 Q26.95 330.95 29.0 333.45" fill="#69cd1e" fill-rule="evenodd" stroke="none"/>
    <path d="M26.45 378.05 Q26.3 378.05 26.7 379.9 27.2 381.7 28.05 383.35 28.95 384.85 29.9 384.8 L29.4 385.05 Q28.25 385.75 27.3 384.45 26.15 382.15 26.1 380.0 26.0 378.1 26.45 378.0 L26.45 378.05" fill="#1a3f00" fill-rule="evenodd" stroke="none"/>
    <path d="M29.9 384.8 Q28.95 384.85 28.05 383.35 27.2 381.7 26.7 379.9 26.3 378.05 26.45 378.05 26.75 378.1 28.1 379.25 L30.5 381.85 Q31.65 383.2 30.35 384.4 L29.9 384.8 M30.05 382.6 Q30.4 382.45 29.2 380.95 L27.45 379.2 29.1 381.6 29.9 382.8 30.05 382.6" fill="#275b00" fill-rule="evenodd" stroke="none"/>
    <path d="M30.05 382.6 L29.9 382.8 29.1 381.6 27.45 379.2 29.2 380.95 Q30.4 382.45 30.05 382.6" fill="#3c8009" fill-rule="evenodd" stroke="none"/>
    <path d="M17.5 395.95 Q17.25 395.95 16.95 394.7 16.6 393.4 16.7 393.0 L17.5 394.95 17.65 396.0 17.5 395.95" fill="#3c8009" fill-rule="evenodd" stroke="none"/>
    <path d="M-2.75 377.0 Q-2.35 376.55 -2.9 375.4 L-4.1 373.0 -5.05 372.2 -5.05 372.1 Q-4.7 371.75 -3.8 372.85 -2.65 373.8 -2.1 375.45 -1.7 376.4 -2.55 376.8 L-2.75 377.0" fill="#1a3f00" fill-rule="evenodd" stroke="none"/>
    <path d="M-5.05 372.2 L-4.1 373.0 -2.9 375.4 Q-2.35 376.55 -2.75 377.0 L-3.35 377.1 Q-4.4 377.15 -4.85 375.95 L-5.15 373.55 -5.05 372.2 M-4.15 376.0 L-3.9 376.2 -4.15 375.2 -4.85 373.25 -4.7 375.0 Q-4.3 376.2 -4.15 376.0" fill="#275b00" fill-rule="evenodd" stroke="none"/>
    <path d="M-4.15 376.0 Q-4.3 376.2 -4.7 375.0 L-4.85 373.25 -4.15 375.2 -3.9 376.2 -4.15 376.0" fill="#3c8009" fill-rule="evenodd" stroke="none"/>
    <path d="M30.85 397.95 L33.65 399.9 Q35.9 401.8 37.6 404.35 39.2 406.65 37.35 408.75 L36.5 409.3 Q34.85 409.55 33.3 406.8 31.8 404.15 31.05 401.0 30.45 397.95 30.85 397.95 M36.8 406.35 Q36.4 405.75 36.85 405.55 37.35 405.35 35.2 402.85 L32.5 399.85 35.1 403.95 36.8 406.35" fill="#275b00" fill-rule="evenodd" stroke="none"/>
    <path d="M36.5 409.3 L35.8 409.7 Q33.65 410.85 32.3 408.6 30.3 404.7 30.15 401.3 29.85 398.05 30.6 397.8 L30.85 397.95 Q30.45 397.95 31.05 401.0 31.8 404.15 33.3 406.8 34.85 409.55 36.5 409.3" fill="#1a3f00" fill-rule="evenodd" stroke="none"/>
    <path d="M36.8 406.35 L35.1 403.95 32.5 399.85 35.2 402.85 Q37.35 405.35 36.85 405.55 36.4 405.75 36.8 406.35" fill="#3c8009" fill-rule="evenodd" stroke="none"/>
    <path d="M54.75 412.6 Q54.7 412.4 54.4 412.35 53.7 412.55 54.05 409.35 54.35 406.1 54.6 405.35 L54.85 410.2 54.75 412.6" fill="#3c8009" fill-rule="evenodd" stroke="none"/>
    <path d="M60.1 387.4 L59.5 387.35 Q57.6 387.05 57.6 385.1 57.55 383.25 58.1 381.35 L58.65 379.3 58.75 379.3 Q59.0 379.35 59.75 380.95 60.6 382.75 60.8 384.8 60.9 386.9 60.1 387.4" fill="#275b00" fill-rule="evenodd" stroke="none"/>
    <path d="M60.1 387.4 Q60.9 386.9 60.8 384.8 60.6 382.75 59.75 380.95 59.0 379.35 58.75 379.3 L58.8 379.05 Q59.3 378.8 60.35 380.75 61.6 382.65 62.1 385.45 62.15 387.25 60.7 387.3 L60.1 387.4" fill="#1a3f00" fill-rule="evenodd" stroke="none"/>
    <path d="M46.55 315.25 L46.75 315.0 Q47.5 314.6 49.4 317.75 51.55 321.15 52.4 325.95 52.45 328.85 49.95 329.35 L49.0 329.35 Q50.55 328.45 50.05 325.1 49.75 321.55 48.3 318.25 46.9 315.05 46.55 315.25" fill="#2d6d00" fill-rule="evenodd" stroke="none"/>
    <path d="M46.55 315.25 Q46.9 315.05 48.3 318.25 49.75 321.55 50.05 325.1 50.55 328.45 49.0 329.35 L47.75 329.3 Q44.5 329.0 44.55 325.6 44.65 322.2 45.35 318.95 L46.55 315.25 M46.7 326.7 L46.65 323.7 46.35 318.15 Q46.05 319.05 45.75 322.65 45.5 326.3 46.2 326.3 46.55 326.1 46.7 326.7" fill="#5fa32b" fill-rule="evenodd" stroke="none"/>
    <path d="M46.7 326.7 Q46.55 326.1 46.2 326.3 45.5 326.3 45.75 322.65 46.05 319.05 46.35 318.15 L46.65 323.7 46.7 326.7" fill="#92d95d" fill-rule="evenodd" stroke="none"/>
    <path d="M62.8 320.8 L62.2 320.85 Q60.55 320.65 60.55 318.85 60.5 317.0 60.9 315.3 61.35 313.55 61.55 313.3 61.9 313.35 62.55 315.1 63.25 316.6 63.45 318.55 63.75 320.35 62.8 320.8 M61.6 319.4 L61.6 317.85 61.5 315.0 Q61.2 315.35 61.15 317.2 61.0 319.1 61.4 319.15 L61.6 319.4" fill="#275b00" fill-rule="evenodd" stroke="none"/>
    <path d="M61.55 313.3 Q62.1 313.0 63.0 314.7 64.15 316.45 64.7 318.95 64.7 320.55 63.2 320.8 L62.8 320.8 Q63.75 320.35 63.45 318.55 63.25 316.6 62.55 315.1 61.9 313.35 61.55 313.3" fill="#1a3f00" fill-rule="evenodd" stroke="none"/>
    <path d="M61.6 319.4 L61.4 319.15 Q61.0 319.1 61.15 317.2 61.2 315.35 61.5 315.0 L61.6 317.85 61.6 319.4" fill="#3c8009" fill-rule="evenodd" stroke="none"/>
    <path d="M26.1 320.65 L25.7 320.8 Q24.25 321.15 23.85 319.65 23.3 317.1 23.65 315.1 24.05 313.3 24.35 313.25 L24.6 313.4 Q24.35 313.35 24.2 315.05 24.25 317.0 24.55 318.75 25.2 320.45 26.1 320.65" fill="#5ea11f" fill-rule="evenodd" stroke="none"/>
    <path d="M24.6 313.4 L25.9 314.9 Q26.8 316.15 27.5 318.0 28.1 319.65 26.7 320.4 L26.1 320.65 Q25.2 320.45 24.55 318.75 24.25 317.0 24.2 315.05 24.35 313.35 24.6 313.4" fill="#94d455" fill-rule="evenodd" stroke="none"/>
    <path d="M58.1 294.85 L58.4 292.3 58.65 295.45 58.65 297.35 Q58.55 296.9 58.2 297.0 57.9 296.95 58.1 294.85" fill="#cdf5af" fill-rule="evenodd" stroke="none"/>
    <path d="M58.1 294.85 Q57.9 296.95 58.2 297.0 58.55 296.9 58.65 297.35 L58.65 295.45 58.4 292.3 58.1 294.85 M58.5 290.6 L59.5 292.4 Q60.5 294.25 60.6 296.25 60.75 298.25 60.05 298.7 L59.2 298.8 Q57.5 298.55 57.4 296.7 57.35 294.45 57.8 292.75 L58.5 290.6" fill="#78af41" fill-rule="evenodd" stroke="none"/>
    <path d="M60.05 298.7 Q60.75 298.25 60.6 296.25 60.5 294.25 59.5 292.4 L58.5 290.6 58.7 290.5 Q59.1 290.3 60.3 292.05 61.45 294.0 61.95 296.85 61.95 298.5 60.35 298.75 L60.05 298.7" fill="#518322" fill-rule="evenodd" stroke="none"/>
    <path d="M5.1 348.1 L4.55 348.05 Q2.95 348.0 2.9 346.2 3.1 343.35 4.05 341.3 5.05 339.4 5.5 339.65 L5.6 339.7 Q5.5 339.65 4.7 341.5 4.2 343.55 4.1 345.45 4.15 347.55 5.1 348.1" fill="#518322" fill-rule="evenodd" stroke="none"/>
    <path d="M5.6 339.7 L6.5 341.9 Q7.2 343.5 7.4 345.65 7.55 347.4 5.7 347.95 L5.1 348.1 Q4.15 347.55 4.1 345.45 4.2 343.55 4.7 341.5 5.5 339.65 5.6 339.7 M6.2 346.3 L6.55 345.85 Q6.8 346.1 6.4 343.95 L5.9 341.4 6.05 344.55 6.2 346.3" fill="#78af41" fill-rule="evenodd" stroke="none"/>
    <path d="M6.2 346.3 L6.05 344.55 5.9 341.4 6.4 343.95 Q6.8 346.1 6.55 345.85 L6.2 346.3" fill="#cdf5af" fill-rule="evenodd" stroke="none"/>
    <path d="M-2.55 357.95 Q-3.6 357.7 -4.2 355.65 -4.8 353.65 -4.6 351.4 -4.45 349.2 -4.15 349.25 L-2.75 351.2 Q-1.55 352.65 -0.8 354.7 -0.1 356.6 -1.75 357.6 L-2.55 357.95 M-1.8 355.85 L-1.5 355.4 Q-1.2 355.35 -2.1 353.3 L-3.4 350.8 -2.4 354.05 -1.8 355.85" fill="#3d8e01" fill-rule="evenodd" stroke="none"/>
    <path d="M-4.15 349.25 Q-4.45 349.2 -4.6 351.4 -4.8 353.65 -4.2 355.65 -3.6 357.7 -2.55 357.95 L-2.95 358.05 Q-4.7 358.5 -5.25 356.7 -5.8 353.75 -5.3 351.3 -4.95 349.05 -4.4 349.15 L-4.15 349.25" fill="#255800" fill-rule="evenodd" stroke="none"/>
    <path d="M-1.8 355.85 L-2.4 354.05 -3.4 350.8 -2.1 353.3 Q-1.2 355.35 -1.5 355.4 L-1.8 355.85" fill="#69cd1e" fill-rule="evenodd" stroke="none"/>
    <path d="M35.65 354.25 Q35.55 353.9 35.85 353.8 36.35 353.2 39.1 355.8 42.2 358.5 44.15 363.2 45.1 366.1 42.55 367.3 L41.8 367.55 Q43.1 366.15 41.7 362.85 40.45 359.5 38.25 356.6 35.85 353.8 35.65 354.25" fill="#255800" fill-rule="evenodd" stroke="none"/>
    <path d="M41.8 367.55 L40.55 367.9 Q37.2 368.2 36.35 364.95 35.4 361.35 35.4 358.1 35.4 354.55 35.65 354.25 35.85 353.8 38.25 356.6 40.45 359.5 41.7 362.85 43.1 366.15 41.8 367.55 M37.95 365.05 Q38.6 364.9 38.85 365.45 L37.85 362.35 Q37.3 361.05 36.25 357.1 36.1 357.95 36.9 361.7 37.55 365.45 37.95 365.05" fill="#3d8e01" fill-rule="evenodd" stroke="none"/>
    <path d="M37.95 365.05 Q37.55 365.45 36.9 361.7 36.1 357.95 36.25 357.1 37.3 361.05 37.85 362.35 L38.85 365.45 Q38.6 364.9 37.95 365.05" fill="#69cd1e" fill-rule="evenodd" stroke="none"/>
    <path d="M48.1 338.05 Q48.25 337.85 49.5 340.4 50.75 343.15 51.1 346.05 51.3 349.1 50.05 349.75 L49.1 349.85 Q46.45 349.4 46.45 346.65 46.45 343.55 47.05 341.0 47.85 338.25 48.1 338.05 M47.95 340.45 Q47.7 341.05 47.5 344.15 47.2 347.25 47.7 347.1 L48.2 347.55 48.15 344.95 47.95 340.45" fill="#3d8e01" fill-rule="evenodd" stroke="none"/>
    <path d="M47.95 340.45 L48.15 344.95 48.2 347.55 47.7 347.1 Q47.2 347.25 47.5 344.15 47.7 341.05 47.95 340.45" fill="#69cd1e" fill-rule="evenodd" stroke="none"/>
    <path d="M50.05 349.75 Q51.3 349.1 51.1 346.05 50.75 343.15 49.5 340.4 48.25 337.85 48.1 338.05 L48.25 337.85 Q48.9 337.45 50.55 340.1 52.35 342.8 52.9 347.05 52.95 349.45 50.8 349.7 L50.05 349.75" fill="#255800" fill-rule="evenodd" stroke="none"/>
    <path d="M39.75 281.9 L39.2 281.95 Q37.8 281.85 37.65 280.4 37.9 277.75 38.75 276.0 39.65 274.2 40.05 274.4 L40.2 274.55 Q39.95 274.4 39.5 276.15 38.9 277.8 38.9 279.65 38.85 281.5 39.75 281.9" fill="#5ea11f" fill-rule="evenodd" stroke="none"/>
    <path d="M40.2 274.55 L40.9 276.4 41.75 279.65 Q41.95 281.45 40.25 281.85 L39.75 281.9 Q38.85 281.5 38.9 279.65 38.9 277.8 39.5 276.15 39.95 274.4 40.2 274.55 M40.95 280.1 Q41.35 280.2 40.85 278.25 L40.45 275.95 40.55 279.0 40.7 280.5 Q40.7 280.1 40.95 280.1" fill="#94d455" fill-rule="evenodd" stroke="none"/>
    <path d="M40.95 280.1 Q40.7 280.1 40.7 280.5 L40.55 279.0 40.45 275.95 40.85 278.25 Q41.35 280.2 40.95 280.1" fill="#cdf5af" fill-rule="evenodd" stroke="none"/>
    <path d="M56.9 273.2 Q55.9 273.2 55.4 271.4 54.9 269.7 54.95 267.75 55.0 265.9 55.4 266.1 L56.55 267.6 58.3 270.6 Q58.9 272.25 57.4 273.1 L56.9 273.2 M56.85 270.15 L57.3 271.65 57.65 271.25 Q57.95 271.2 57.1 269.35 L56.05 267.45 56.85 270.15" fill="#94d455" fill-rule="evenodd" stroke="none"/>
    <path d="M55.4 266.1 Q55.0 265.9 54.95 267.75 54.9 269.7 55.4 271.4 55.9 273.2 56.9 273.2 L56.4 273.45 Q55.0 273.8 54.5 272.35 54.0 269.8 54.4 267.65 54.7 265.85 55.25 265.95 L55.4 266.1" fill="#5ea11f" fill-rule="evenodd" stroke="none"/>
    <path d="M56.85 270.15 L56.05 267.45 57.1 269.35 Q57.95 271.2 57.65 271.25 L57.3 271.65 56.85 270.15" fill="#cdf5af" fill-rule="evenodd" stroke="none"/>
    <path d="M12.6 292.35 L13.9 293.85 Q14.8 295.15 15.55 296.95 16.0 298.5 14.65 299.3 L14.05 299.5 Q13.1 299.35 12.8 297.6 12.25 295.9 12.15 294.05 12.3 292.15 12.6 292.35 M13.1 293.65 L14.05 296.3 14.65 297.9 Q14.65 297.6 14.9 297.5 15.1 297.55 14.3 295.75 L13.1 293.65" fill="#94d455" fill-rule="evenodd" stroke="none"/>
    <path d="M14.05 299.5 L13.7 299.6 Q12.25 300.05 11.8 298.5 11.25 296.0 11.6 293.95 11.9 292.05 12.4 292.15 L12.6 292.35 Q12.3 292.15 12.15 294.05 12.25 295.9 12.8 297.6 13.1 299.35 14.05 299.5" fill="#5ea11f" fill-rule="evenodd" stroke="none"/>
    <path d="M13.1 293.65 L14.3 295.75 Q15.1 297.55 14.9 297.5 14.65 297.6 14.65 297.9 L14.05 296.3 13.1 293.65" fill="#cdf5af" fill-rule="evenodd" stroke="none"/>
    <path d="M62.7 367.95 Q61.9 367.5 61.8 365.65 61.85 363.9 62.45 362.05 63.15 360.35 63.15 360.7 63.35 360.65 63.95 362.4 64.65 363.95 64.7 365.75 64.95 367.45 63.25 367.75 L62.7 367.95 M63.3 361.95 L63.65 364.9 63.65 366.45 Q63.7 366.05 63.9 366.0 64.3 366.15 63.9 364.25 63.65 362.35 63.3 361.95" fill="#94d455" fill-rule="evenodd" stroke="none"/>
    <path d="M63.15 360.7 Q63.15 360.35 62.45 362.05 61.85 363.9 61.8 365.65 61.9 367.5 62.7 367.95 L62.15 367.95 Q60.95 367.9 60.7 366.35 60.85 363.9 61.65 361.9 62.6 360.1 63.15 360.35 L63.15 360.7" fill="#5ea11f" fill-rule="evenodd" stroke="none"/>
    <path d="M63.3 361.95 Q63.65 362.35 63.9 364.25 64.3 366.15 63.9 366.0 63.7 366.05 63.65 366.45 L63.65 364.9 63.3 361.95" fill="#cdf5af" fill-rule="evenodd" stroke="none"/>
    <path d="M73.45 345.85 L73.55 345.7 Q74.05 345.6 74.6 347.35 75.25 349.35 74.9 351.95 74.65 353.4 73.15 353.3 L72.75 353.15 Q73.75 352.9 73.95 351.1 74.2 349.4 73.85 347.65 L73.45 345.85" fill="#5ea11f" fill-rule="evenodd" stroke="none"/>
    <path d="M72.0 349.4 L72.95 347.1 72.4 350.1 72.05 351.6 Q72.05 351.3 71.65 351.25 71.4 351.2 72.0 349.4" fill="#cdf5af" fill-rule="evenodd" stroke="none"/>
    <path d="M72.75 353.15 L72.2 353.15 Q70.6 352.4 71.1 350.6 L72.3 347.5 Q73.25 345.9 73.45 345.85 L73.85 347.65 Q74.2 349.4 73.95 351.1 73.75 352.9 72.75 353.15 M72.0 349.4 Q71.4 351.2 71.65 351.25 72.05 351.3 72.05 351.6 L72.4 350.1 72.95 347.1 72.0 349.4" fill="#94d455" fill-rule="evenodd" stroke="none"/>
    <path d="M16.0 356.95 Q16.3 356.85 18.05 358.4 19.4 359.35 20.65 361.3 21.95 362.95 20.4 364.35 L19.95 364.7 Q18.9 364.85 17.75 362.9 16.7 361.15 16.2 359.1 15.75 356.9 16.0 356.95 M20.0 362.7 Q19.9 362.2 20.2 362.2 20.55 362.0 19.1 360.3 L17.2 358.25 19.0 361.0 20.0 362.7" fill="#3d8e01" fill-rule="evenodd" stroke="none"/>
    <path d="M19.95 364.7 L19.4 365.05 Q18.0 365.8 16.9 364.2 15.65 361.55 15.4 359.1 15.3 356.8 15.85 356.9 L16.0 356.95 Q15.75 356.9 16.2 359.1 16.7 361.15 17.75 362.9 18.9 364.85 19.95 364.7" fill="#255800" fill-rule="evenodd" stroke="none"/>
    <path d="M20.0 362.7 L19.0 361.0 17.2 358.25 19.1 360.3 Q20.55 362.0 20.2 362.2 19.9 362.2 20.0 362.7" fill="#69cd1e" fill-rule="evenodd" stroke="none"/>
    <path d="M25.0 276.65 L24.65 276.75 Q23.25 277.05 22.9 275.6 22.1 273.15 22.6 271.05 22.95 269.1 23.35 269.15 L23.6 269.35 Q23.45 269.15 23.3 271.0 23.25 272.85 23.55 274.7 24.1 276.5 25.0 276.65" fill="#5ea11f" fill-rule="evenodd" stroke="none"/>
    <path d="M23.6 269.35 L24.75 270.85 26.5 273.95 Q27.1 275.7 25.65 276.5 L25.0 276.65 Q24.1 276.5 23.55 274.7 23.25 272.85 23.3 271.0 23.45 269.15 23.6 269.35 M25.15 273.55 L25.6 274.9 Q25.55 274.55 25.95 274.55 L25.25 272.85 24.1 270.75 25.15 273.55" fill="#94d455" fill-rule="evenodd" stroke="none"/>
    <path d="M25.15 273.55 L24.1 270.75 25.25 272.85 25.95 274.55 Q25.55 274.55 25.6 274.9 L25.15 273.55" fill="#cdf5af" fill-rule="evenodd" stroke="none"/>
    <path d="M199.2 252.6 Q201.85 253.45 203.3 256.1 204.7 258.65 203.75 261.45 203.6 262.3 203.05 263.05 202.25 265.05 200.5 266.0 L199.6 266.45 199.45 266.55 198.1 267.7 192.65 275.65 192.35 276.75 Q191.4 278.4 189.8 279.05 L187.3 278.9 186.2 278.8 185.2 278.3 170.5 277.25 170.65 275.3 170.95 271.3 171.0 269.9 183.25 270.8 Q183.6 270.05 184.15 269.65 184.95 268.9 186.1 268.55 L188.6 268.4 189.25 268.5 191.55 265.05 191.05 263.0 190.8 262.6 Q189.45 259.9 190.45 257.25 191.25 254.4 193.8 253.15 196.35 251.8 199.2 252.6" fill="#a83636" fill-rule="evenodd" stroke="none"/>
    <path d="M199.2 252.6 Q201.85 253.45 203.3 256.1 204.7 258.65 203.75 261.45 203.6 262.3 203.05 263.05 202.25 265.05 200.5 266.0 L199.6 266.45 199.45 266.55 198.1 267.7 192.65 275.65 192.35 276.75 Q191.4 278.4 189.8 279.05 L187.3 278.9 186.2 278.8 185.2 278.3 170.5 277.25 170.65 275.3 170.95 271.3 171.0 269.9 183.25 270.8 Q183.6 270.05 184.15 269.65 184.95 268.9 186.1 268.55 L188.6 268.4 189.25 268.5 191.55 265.05 191.05 263.0 190.8 262.6 Q189.45 259.9 190.45 257.25 191.25 254.4 193.8 253.15 196.35 251.8 199.2 252.6 Z" fill="none" stroke="#2b2e44" stroke-linecap="round" stroke-linejoin="round" stroke-width="3.0"/>
    <path d="M198.5 263.9 L200.15 264.85 192.05 276.9 190.55 275.95 198.5 263.9" fill="#e6e6e6" fill-rule="evenodd" stroke="none"/>
    <path d="M187.25 273.85 L186.15 273.2 194.65 260.9 195.85 261.65 187.25 273.85" fill="#a2a2a2" fill-rule="evenodd" stroke="none"/>
    <path d="M190.55 275.95 L187.25 273.85 195.85 261.65 198.5 263.9 190.55 275.95" fill="#c8c8c8" fill-rule="evenodd" stroke="none"/>
    <path d="M198.5 263.9 L200.15 264.85 M194.65 260.9 L195.85 261.65 198.5 263.9 Z" fill="none" stroke="#283757" stroke-linecap="round" stroke-linejoin="round" stroke-opacity="0.49803922" stroke-width="0.1"/>
    <path d="M170.85 271.35 L170.95 269.9 189.05 271.2 188.85 272.75 170.85 271.35" fill="#a2a2a2" fill-rule="evenodd" stroke="none"/>
    <path d="M188.1 276.45 L187.95 278.55 170.45 277.3 170.6 275.3 188.1 276.45" fill="#e6e6e6" fill-rule="evenodd" stroke="none"/>
    <path d="M188.85 272.75 L188.1 276.45 170.6 275.3 170.85 271.35 188.85 272.75" fill="#c8c8c8" fill-rule="evenodd" stroke="none"/>
    <path d="M189.05 271.2 L188.85 272.75 188.1 276.45 187.95 278.55" fill="none" stroke="#283757" stroke-linecap="round" stroke-linejoin="round" stroke-opacity="0.49803922" stroke-width="0.1"/>
    <path d="M186.1 268.65 L188.55 268.55 Q189.5 268.55 190.3 269.0 L190.95 269.5 Q192.25 270.5 192.9 272.2 193.2 273.45 192.9 274.6 192.95 275.45 192.45 276.3 L191.65 277.25 Q190.8 278.45 189.2 278.9 187.55 279.4 186.15 278.9 L185.05 278.45 184.45 277.95 Q183.05 277.0 182.5 275.4 182.1 273.7 182.5 272.3 L183.0 271.25 Q183.35 270.5 184.1 269.85 L186.1 268.65" fill="#b7b7b7" fill-rule="evenodd" stroke="none"/>
    <path d="M186.7 278.9 Q185.1 278.05 184.6 276.4 184.05 274.65 184.9 273.05 185.7 271.5 187.35 271.0 189.05 270.4 190.65 271.25 192.25 272.05 192.8 273.8 193.35 275.5 192.55 277.05 191.7 278.65 190.05 279.2 188.3 279.7 186.7 278.9" fill="#dae3e9" fill-rule="evenodd" stroke="none"/>
    <path d="M189.15 277.9 L188.3 278.65 187.15 278.55 186.45 277.7 Q186.25 277.05 186.55 276.5 186.8 276.0 187.4 275.85 L188.5 275.9 Q189.05 276.2 189.25 276.8 189.4 277.4 189.15 277.9" fill="#ffffff" fill-rule="evenodd" stroke="none"/>
    <path d="M193.75 253.35 Q196.25 252.0 199.1 252.75 201.8 253.65 203.2 256.25 204.65 258.85 203.7 261.55 202.85 264.4 200.2 265.75 L198.65 266.35 197.0 266.6 194.75 266.2 Q193.5 265.75 192.8 265.1 L191.55 263.85 190.65 262.75 Q189.3 260.15 190.4 257.3 191.2 254.5 193.75 253.35" fill="#2b9be6" fill-rule="evenodd" stroke="none"/>
    <path d="M202.7 260.45 Q203.75 262.35 203.2 264.5 202.5 266.55 200.6 267.55 198.7 268.6 196.65 268.05 194.5 267.35 193.45 265.45 192.4 263.5 193.1 261.5 193.7 259.35 195.6 258.3 197.5 257.3 199.65 257.95 201.65 258.5 202.7 260.45" fill="#3ebbeb" fill-rule="evenodd" stroke="none"/>
    <path d="M202.2 260.1 Q202.65 261.0 202.4 261.95 202.1 262.85 201.25 263.3 L199.5 263.5 Q198.5 263.25 198.05 262.35 197.6 261.5 197.9 260.55 198.15 259.65 199.05 259.15 L200.8 259.0 Q201.75 259.25 202.2 260.1" fill="#ffffff" fill-opacity="0.69411767" fill-rule="evenodd" stroke="none"/>
    <path d="M193.05 265.55 Q192.25 265.35 191.55 265.55 L190.8 262.4 190.8 262.2 192.5 261.8 192.45 262.9 192.75 264.3 193.05 265.55" fill="#a2a2a2" fill-rule="evenodd" stroke="none"/>
    <path d="M199.8 264.55 L200.6 265.8 199.35 266.75 197.95 267.9 196.75 267.0 196.55 266.95 196.6 266.95 197.65 266.4 198.45 265.85 199.3 265.1 199.8 264.55" fill="#e6e6e6" fill-rule="evenodd" stroke="none"/>
    <path d="M192.5 261.8 L196.15 262.2 Q198.55 263.0 199.8 264.55 L199.3 265.1 198.45 265.85 197.65 266.4 196.6 266.95 194.7 266.2 193.05 265.55 192.75 264.3 192.45 262.9 192.5 261.8" fill="#c8c8c8" fill-rule="evenodd" stroke="none"/>
    <path d="M191.25 309.75 Q191.0 311.35 189.7 312.7 L188.95 312.7 186.2 320.6 189.6 322.4 Q191.35 324.2 191.25 326.85 191.15 329.25 189.95 330.65 189.25 331.65 187.5 332.25 179.7 329.95 172.6 324.75 172.9 323.2 173.45 321.9 174.5 319.05 176.6 316.8 L178.65 311.25 178.5 310.95 Q177.85 309.9 178.05 308.65 L178.0 308.35 178.1 308.2 175.45 304.9 184.15 298.55 190.45 306.85 190.6 306.85 190.85 307.3 Q191.25 308.45 191.25 309.75" fill="#9c4242" fill-rule="evenodd" stroke="none"/>
    <path d="M191.25 309.75 Q191.0 311.35 189.7 312.7 L188.95 312.7 186.2 320.6 189.6 322.4 Q191.35 324.2 191.25 326.85 191.15 329.25 189.95 330.65 189.25 331.65 187.5 332.25 179.7 329.95 172.6 324.75 172.9 323.2 173.45 321.9 174.5 319.05 176.6 316.8 L178.65 311.25 178.5 310.95 Q177.85 309.9 178.05 308.65 L178.0 308.35 178.1 308.2 175.45 304.9 184.15 298.55 190.45 306.85 190.6 306.85 190.85 307.3 Q191.25 308.45 191.25 309.75 Z" fill="none" stroke="#2b2e44" stroke-linecap="round" stroke-linejoin="round" stroke-width="3.0"/>
    <path d="M182.0 300.3 L184.1 298.7 190.6 307.15 188.45 308.85 182.0 300.3 M184.5 312.0 L182.15 313.55 175.4 304.9 177.85 303.2 184.5 312.0" fill="#aaaaaa" fill-rule="evenodd" stroke="none"/>
    <path d="M188.45 308.85 L184.5 312.0 177.85 303.2 182.0 300.3 188.45 308.85" fill="#c8c8c8" fill-rule="evenodd" stroke="none"/>
    <path d="M183.0 307.6 L187.55 309.45 181.95 324.6 177.2 323.1 183.0 307.6" fill="#c8c8c8" fill-rule="evenodd" stroke="none"/>
    <path d="M187.55 309.45 L190.0 310.1 184.45 325.3 181.95 324.6 187.55 309.45 M177.2 323.1 L174.7 322.1 180.4 306.75 183.0 307.6 177.2 323.1" fill="#aaaaaa" fill-rule="evenodd" stroke="none"/>
    <path d="M191.25 309.8 Q191.0 311.5 189.7 312.75 L188.25 312.9 186.1 313.05 Q183.15 313.1 181.8 312.55 L180.35 312.1 179.5 311.95 Q178.8 311.7 178.5 311.05 177.95 309.9 178.05 308.75 L178.0 308.5 178.15 307.9 Q178.25 306.95 179.1 306.05 L190.6 306.9 190.9 307.4 191.25 309.8" fill="#b7b7b7" fill-rule="evenodd" stroke="none"/>
    <path d="M180.55 308.9 L184.3 308.55 Q186.4 308.75 187.8 309.6 189.2 310.45 189.05 311.4 188.9 312.35 187.3 312.9 L183.6 313.25 Q181.45 313.05 180.05 312.2 178.7 311.35 178.85 310.4 179.0 309.45 180.55 308.9" fill="#dae4e9" fill-rule="evenodd" stroke="none"/>
    <path d="M181.95 308.1 L183.85 307.95 Q184.9 308.05 185.6 308.5 186.3 308.85 186.2 309.35 186.15 309.85 185.35 310.15 L183.5 310.25 Q182.45 310.2 181.75 309.75 181.05 309.35 181.1 308.85 181.2 308.4 181.95 308.1" fill="#ffffff" fill-rule="evenodd" stroke="none"/>
    <path d="M189.95 330.75 Q189.2 331.85 187.45 332.35 179.7 330.0 172.6 324.8 172.9 323.3 173.45 322.0 180.45 328.6 189.95 330.75" fill="#1e82a8" fill-rule="evenodd" stroke="none"/>
    <path d="M188.85 323.75 Q190.3 325.1 190.25 326.15 L190.2 326.4 190.2 326.6 Q189.75 327.6 188.1 327.9 186.3 328.15 184.75 327.25 182.8 326.25 181.35 324.75 179.15 322.7 179.95 321.05 181.2 318.95 186.55 321.85 187.8 322.5 188.85 323.75 M188.65 325.5 Q188.75 324.95 188.25 324.05 L187.1 322.65 186.5 322.4 Q186.5 322.2 186.2 322.15 185.3 321.7 184.45 321.4 183.1 321.15 182.7 321.85 182.25 322.75 183.3 323.7 L185.5 325.15 Q188.1 326.6 188.65 325.5" fill="#56d0ff" fill-rule="evenodd" stroke="none"/>
    <path d="M189.95 330.75 Q180.45 328.6 173.45 322.0 174.5 318.85 177.15 316.4 L189.6 322.45 Q191.3 324.3 191.25 326.95 191.1 329.35 189.95 330.75 M188.85 323.75 Q187.8 322.5 186.55 321.85 181.2 318.95 179.95 321.05 179.15 322.7 181.35 324.75 182.8 326.25 184.75 327.25 186.3 328.15 188.1 327.9 189.75 327.6 190.2 326.6 L190.2 326.4 190.25 326.15 Q190.3 325.1 188.85 323.75" fill="#3ebbeb" fill-rule="evenodd" stroke="none"/>
    <path d="M188.65 325.5 Q188.1 326.6 185.5 325.15 L183.3 323.7 Q182.25 322.75 182.7 321.85 183.1 321.15 184.45 321.4 185.3 321.7 186.2 322.15 186.5 322.2 186.5 322.4 L187.1 322.65 188.25 324.05 Q188.75 324.95 188.65 325.5" fill="#7edbff" fill-rule="evenodd" stroke="none"/>
    <path d="M140.45 322.95 Q141.4 322.15 142.4 321.5 145.05 319.7 148.35 319.4 L150.25 318.2 150.1 317.55 Q149.95 316.0 150.45 315.0 150.5 314.75 150.7 314.65 L150.95 314.3 Q151.55 313.3 152.55 312.95 L154.0 313.85 155.4 308.85 166.3 313.05 163.95 320.75 164.0 321.6 163.9 323.25 164.0 323.3 163.75 323.35 163.55 324.1 Q162.55 325.5 160.95 326.1 L160.15 325.75 153.65 329.85 154.2 330.9 Q154.5 333.3 152.9 335.15 151.45 337.0 149.85 337.3 L147.05 337.25 Q142.8 331.35 140.4 323.8 L140.45 322.95" fill="#b43838" fill-rule="evenodd" stroke="none"/>
    <path d="M140.4 323.8 L140.3 323.05 140.45 322.95 140.4 323.8" fill="#1e82a8" fill-rule="evenodd" stroke="none"/>
    <path d="M140.45 322.95 Q141.4 322.15 142.4 321.5 145.05 319.7 148.35 319.4 L150.25 318.2 150.1 317.55 Q149.95 316.0 150.45 315.0 150.5 314.75 150.7 314.65 L150.95 314.3 Q151.55 313.3 152.55 312.95 L154.0 313.85 155.4 308.85 166.3 313.05 163.95 320.75 164.0 321.6 163.9 323.25 164.0 323.3 163.75 323.35 163.55 324.1 Q162.55 325.5 160.95 326.1 L160.15 325.75 153.65 329.85 154.2 330.9 Q154.5 333.3 152.9 335.15 151.45 337.0 149.85 337.3 L147.05 337.25 Q142.8 331.35 140.4 323.8" fill="none" stroke="#2b2e44" stroke-linecap="round" stroke-linejoin="round" stroke-width="3.0"/>
    <path d="M151.2 327.7 L147.0 323.75 157.8 317.1 161.8 321.2 151.2 327.7" fill="#c8c8c8" fill-rule="evenodd" stroke="none"/>
    <path d="M147.0 323.75 L144.8 321.45 155.5 314.7 157.8 317.1 147.0 323.75 M161.8 321.2 L163.9 323.2 153.6 329.7 151.2 327.7 161.8 321.2" fill="#aaaaaa" fill-rule="evenodd" stroke="none"/>
    <path d="M157.1 309.45 L164.65 312.25 161.5 322.25 154.1 319.75 157.1 309.45" fill="#c8c8c8" fill-rule="evenodd" stroke="none"/>
    <path d="M154.1 319.75 L152.35 319.2 155.4 308.7 157.1 309.45 154.1 319.75 M164.65 312.25 L166.15 312.9 163.25 322.85 161.5 322.25 164.65 312.25" fill="#aaaaaa" fill-rule="evenodd" stroke="none"/>
    <path d="M142.4 321.45 Q145.05 319.7 148.35 319.4 L154.1 330.95 Q154.5 333.3 152.9 335.15 151.45 336.95 149.85 337.3 143.9 330.35 142.4 321.45 M152.2 328.8 Q149.75 323.45 147.7 324.45 146.4 325.2 146.7 327.95 147.0 330.1 147.85 331.8 148.45 333.3 149.95 334.1 L152.4 334.3 152.45 334.3 152.65 334.1 Q153.25 333.35 153.0 331.45 152.85 329.95 152.2 328.8" fill="#3ebbeb" fill-rule="evenodd" stroke="none"/>
    <path d="M152.2 328.8 Q152.85 329.95 153.0 331.45 153.25 333.35 152.65 334.1 L152.45 334.3 152.4 334.3 149.95 334.1 Q148.45 333.3 147.85 331.8 147.0 330.1 146.7 327.95 146.4 325.2 147.7 324.45 149.75 323.45 152.2 328.8 M152.25 329.75 L152.0 329.15 151.85 328.85 150.9 327.35 Q150.1 326.2 149.3 326.6 148.55 327.1 148.8 328.45 L149.6 330.7 Q150.9 333.05 151.85 332.7 152.25 332.3 152.25 331.45 L152.25 329.75" fill="#56d0ff" fill-rule="evenodd" stroke="none"/>
    <path d="M152.25 329.75 L152.25 331.45 Q152.25 332.3 151.85 332.7 150.9 333.05 149.6 330.7 L148.8 328.45 Q148.55 327.1 149.3 326.6 150.1 326.2 150.9 327.35 L151.85 328.85 152.0 329.15 152.25 329.75" fill="#7edbff" fill-rule="evenodd" stroke="none"/>
    <path d="M142.4 321.45 Q143.9 330.35 149.85 337.3 L147.05 337.25 Q142.6 331.1 140.2 323.1 L142.4 321.45" fill="#1e82a8" fill-rule="evenodd" stroke="none"/>
    <path d="M152.65 312.8 L164.0 320.65 164.05 321.5 Q164.1 322.85 163.55 324.1 162.55 325.45 160.95 325.95 L159.3 325.2 157.15 324.05 Q154.2 322.2 152.9 320.8 152.1 320.3 151.65 319.6 L150.95 318.85 Q150.2 318.2 150.2 317.4 150.0 315.95 150.5 314.95 L150.7 314.6 151.0 314.25 Q151.6 313.2 152.65 312.8" fill="#b7b7b7" fill-rule="evenodd" stroke="none"/>
    <path d="M154.65 317.05 Q156.5 317.55 158.6 319.05 160.65 320.55 161.7 322.2 162.8 323.95 162.25 324.8 161.75 325.65 159.95 325.15 158.1 324.7 156.05 323.2 153.95 321.7 152.9 320.0 151.8 318.35 152.3 317.5 152.85 316.65 154.65 317.05" fill="#dae4e9" fill-rule="evenodd" stroke="none"/>
    <path d="M156.45 316.15 Q157.4 316.4 158.4 317.15 L159.95 318.7 Q160.5 319.55 160.25 319.9 160.0 320.4 159.05 320.15 158.15 319.95 157.15 319.15 156.1 318.45 155.55 317.6 155.05 316.8 155.3 316.35 L156.45 316.15" fill="#ffffff" fill-rule="evenodd" stroke="none"/>
    <path d="M129.05 295.35 Q128.25 294.0 128.25 292.05 128.3 291.1 128.75 290.35 L129.55 289.1 Q130.2 288.25 131.4 287.75 132.65 287.2 132.95 287.2 L134.0 287.25 134.9 286.9 143.35 281.05 145.0 279.9 145.85 281.4 146.1 281.7 147.95 284.4 148.85 285.5 138.45 292.85 138.3 293.5 137.15 295.75 136.2 296.75 136.1 301.0 138.0 302.55 138.1 302.7 138.05 302.75 Q139.35 303.55 139.85 304.25 L140.65 306.05 Q141.45 308.4 140.35 310.6 139.25 312.8 136.9 313.65 134.45 314.3 132.35 313.3 130.15 312.2 129.25 309.85 128.9 308.4 129.1 307.0 129.2 306.1 129.55 305.25 L129.6 305.2 129.55 305.2 129.6 305.1 130.1 296.4 Q129.6 296.45 129.05 295.35" fill="#a12929" fill-rule="evenodd" stroke="none"/>
    <path d="M129.05 295.35 Q128.25 294.0 128.25 292.05 128.3 291.1 128.75 290.35 L129.55 289.1 Q130.2 288.25 131.4 287.75 132.65 287.2 132.95 287.2 L134.0 287.25 134.9 286.9 143.35 281.05 145.0 279.9 145.85 281.4 146.1 281.7 147.95 284.4 148.85 285.5 138.45 292.85 138.3 293.5 137.15 295.75 136.2 296.75 136.1 301.0 138.0 302.55 138.1 302.7 138.05 302.75 Q139.35 303.55 139.85 304.25 L140.65 306.05 Q141.45 308.4 140.35 310.6 139.25 312.8 136.9 313.65 134.45 314.3 132.35 313.3 130.15 312.2 129.25 309.85 128.9 308.4 129.1 307.0 129.2 306.1 129.55 305.25 L129.6 305.2 129.55 305.2 129.6 305.1 130.1 296.4 Q129.6 296.45 129.05 295.35 Z" fill="none" stroke="#2b2e44" stroke-linecap="round" stroke-linejoin="round" stroke-width="3.0"/>
    <path d="M131.5 306.55 L129.65 306.75 129.7 292.65 131.4 292.65 131.5 306.55" fill="#e6e6e6" fill-rule="evenodd" stroke="none"/>
    <path d="M135.0 292.45 L136.25 292.45 136.2 307.05 134.9 307.05 135.0 292.45" fill="#a2a2a2" fill-rule="evenodd" stroke="none"/>
    <path d="M131.4 292.65 L135.0 292.45 134.9 307.05 131.5 306.55 131.4 292.65" fill="#c8c8c8" fill-rule="evenodd" stroke="none"/>
    <path d="M136.2 307.05 L134.9 307.05 131.5 306.55 129.65 306.75" fill="none" stroke="#283757" stroke-linecap="round" stroke-linejoin="round" stroke-opacity="0.49803922" stroke-width="0.1"/>
    <path d="M134.0 295.9 L133.35 294.6 148.2 284.5 148.9 285.5 134.0 295.9" fill="#a2a2a2" fill-rule="evenodd" stroke="none"/>
    <path d="M133.35 294.6 L131.75 291.5 145.95 281.5 148.2 284.5 133.35 294.6" fill="#c8c8c8" fill-rule="evenodd" stroke="none"/>
    <path d="M131.75 291.5 L130.7 290.0 145.05 279.9 145.95 281.5 131.75 291.5" fill="#e6e6e6" fill-rule="evenodd" stroke="none"/>
    <path d="M134.0 295.9 L133.35 294.6 131.75 291.5 130.7 290.0" fill="none" stroke="#283757" stroke-linecap="round" stroke-linejoin="round" stroke-opacity="0.49803922" stroke-width="0.1"/>
    <path d="M128.25 292.2 Q128.45 290.65 129.55 289.45 130.6 287.95 132.2 287.6 L133.3 287.45 134.1 287.4 Q135.95 287.45 137.35 288.45 138.65 289.85 139.1 291.35 L139.3 292.5 139.15 294.45 Q139.0 295.6 138.2 296.55 137.1 297.65 136.05 298.15 L134.25 298.6 133.4 298.6 Q131.75 298.5 130.15 297.25 129.15 296.4 128.7 295.35 128.3 294.5 128.2 293.6 128.1 292.85 128.25 292.2" fill="#b7b7b7" fill-rule="evenodd" stroke="none"/>
    <path d="M133.5 287.4 Q135.35 287.25 136.75 288.4 138.2 289.55 138.4 291.45 138.6 293.3 137.45 294.7 136.3 296.2 134.45 296.35 132.6 296.55 131.1 295.35 129.65 294.25 129.45 292.4 129.25 290.5 130.4 289.05 131.65 287.6 133.5 287.4" fill="#dae3e9" fill-rule="evenodd" stroke="none"/>
    <path d="M130.0 289.6 Q129.9 288.95 130.25 288.5 130.7 288.0 131.3 287.9 131.95 287.85 132.45 288.25 132.95 288.65 133.05 289.3 L132.7 290.4 Q132.3 290.9 131.65 290.95 131.05 291.05 130.5 290.65 130.05 290.2 130.0 289.6" fill="#ffffff" fill-rule="evenodd" stroke="none"/>
    <path d="M131.75 303.2 Q132.45 302.6 133.35 302.3 L135.25 302.1 136.85 302.2 138.0 302.7 Q139.2 303.3 139.95 304.3 L140.9 306.15 Q141.7 308.5 140.55 310.7 139.5 312.95 137.1 313.75 134.75 314.5 132.6 313.3 130.35 312.3 129.6 310.0 128.9 308.15 129.5 306.5 L130.0 305.3 Q130.25 304.6 130.65 304.15 L131.75 303.2" fill="#2b9be6" fill-rule="evenodd" stroke="none"/>
    <path d="M131.45 310.85 Q129.75 310.05 129.1 308.3 128.55 306.55 129.35 304.85 130.15 303.15 131.85 302.55 L135.35 302.75 Q137.0 303.55 137.55 305.3 138.2 307.05 137.4 308.75 136.6 310.45 134.8 311.05 L131.45 310.85" fill="#3ebbeb" fill-rule="evenodd" stroke="none"/>
    <path d="M130.4 311.25 Q129.65 310.9 129.4 310.15 129.1 309.35 129.45 308.6 129.8 307.85 130.6 307.6 L132.15 307.65 Q132.9 308.0 133.15 308.8 133.45 309.55 133.1 310.3 132.75 311.05 131.95 311.35 L130.4 311.25" fill="#ffffff" fill-opacity="0.69411767" fill-rule="evenodd" stroke="none"/>
    <path d="M134.95 301.6 L135.95 300.8 138.05 302.6 138.15 302.7 137.15 303.9 136.75 303.2 135.8 302.25 134.95 301.6" fill="#a2a2a2" fill-rule="evenodd" stroke="none"/>
    <path d="M134.95 301.6 L135.8 302.25 136.75 303.2 137.15 303.9 Q136.1 304.85 134.4 305.5 L130.75 305.6 130.75 305.2 130.85 303.95 130.85 303.55 Q131.0 302.85 131.3 302.5 L131.25 302.4 133.5 302.0 Q134.4 301.6 134.95 301.6" fill="#c8c8c8" fill-rule="evenodd" stroke="none"/>
    <path d="M130.75 305.6 L129.65 305.2 130.0 304.0 130.25 302.1 131.25 302.4 131.3 302.5 Q131.0 302.85 130.85 303.55 L130.85 303.95 130.75 305.2 130.75 305.6" fill="#e6e6e6" fill-rule="evenodd" stroke="none"/>
    <path d="M146.5 283.2 Q146.5 281.8 146.1 280.5 L165.25 274.45 170.15 272.75 172.8 271.8 176.0 277.25 180.6 284.75 181.55 286.75 181.6 286.75 183.4 289.5 189.25 298.5 190.65 300.05 191.9 301.9 Q183.15 310.15 174.25 312.3 L171.35 312.75 169.55 310.35 169.05 314.6 168.5 314.95 Q156.0 317.05 145.85 313.35 L148.85 301.6 Q147.0 289.2 146.95 286.8 L146.5 283.2" fill="#357c9a" fill-rule="evenodd" stroke="none"/>
    <path d="M146.5 283.2 Q146.5 281.8 146.1 280.5 L165.25 274.45 170.15 272.75 172.8 271.8 176.0 277.25 180.6 284.75 181.55 286.75 181.6 286.75 183.4 289.5 189.25 298.5 190.65 300.05 191.9 301.9 Q183.15 310.15 174.25 312.3 L171.35 312.75 169.55 310.35 169.05 314.6 168.5 314.95 Q156.0 317.05 145.85 313.35 L148.85 301.6 Q147.0 289.2 146.95 286.8 L146.5 283.2 Z" fill="none" stroke="#2b2e44" stroke-linecap="round" stroke-linejoin="round" stroke-width="3.0"/>
    <path d="M147.1 286.85 L146.7 283.25 146.2 280.5 172.95 271.9 176.05 277.25 169.95 281.85 Q166.45 283.95 161.3 285.45 L153.9 286.85 Q148.8 287.35 147.1 286.85" fill="#dece84" fill-rule="evenodd" stroke="none"/>
    <path d="M176.05 277.25 L180.75 284.75 184.3 292.25 Q184.5 292.55 182.6 293.3 L183.75 293.15 149.1 303.35 147.1 286.85 Q148.8 287.35 153.9 286.85 L161.3 285.45 Q166.45 283.95 169.95 281.85 L176.05 277.25" fill="#fbffd5" fill-rule="evenodd" stroke="none"/>
    <path d="M169.65 310.8 L169.05 314.6 168.6 315.0 Q156.1 317.05 145.65 313.45 L146.95 309.65 Q157.9 314.5 169.65 310.8 M148.7 301.35 L148.6 298.75 Q152.25 297.6 154.35 289.7 160.35 294.3 163.5 294.05 166.65 293.85 168.95 292.5 171.05 291.1 172.6 285.25 178.15 290.0 182.4 287.3 L183.75 289.85 Q181.9 290.95 179.15 290.75 176.35 290.6 173.95 288.95 173.4 293.0 171.5 294.7 169.75 296.1 167.0 297.1 164.35 298.05 160.75 297.6 157.7 297.15 155.75 295.75 152.7 301.0 148.7 301.35 M189.4 298.6 L190.7 300.05 192.05 301.95 Q183.25 310.15 174.35 312.3 174.15 310.2 173.05 308.15 180.75 306.7 189.4 298.6" fill="#88cae6" fill-rule="evenodd" stroke="none"/>
    <path d="M146.95 309.65 L148.7 301.35 Q152.7 301.0 155.75 295.75 157.7 297.15 160.75 297.6 164.35 298.05 167.0 297.1 169.75 296.1 171.5 294.7 173.4 293.0 173.95 288.95 176.35 290.6 179.15 290.75 181.9 290.95 183.75 289.85 L189.4 298.6 Q180.75 306.7 173.05 308.15 172.0 305.55 170.15 303.65 L169.75 309.3 169.65 310.35 169.65 310.8 Q157.9 314.5 146.95 309.65" fill="#1d5b85" fill-rule="evenodd" stroke="none"/>
    <path d="M169.75 309.3 L170.15 303.65 Q172.0 305.55 173.05 308.15 L169.75 309.3" fill="#124364" fill-rule="evenodd" stroke="none"/>
    <path d="M174.35 312.3 L171.45 312.8 169.65 310.35 169.75 309.3 173.05 308.15 Q174.15 310.2 174.35 312.3" fill="#65abc9" fill-rule="evenodd" stroke="none"/>
    <path d="M154.65 278.6 L160.95 298.15 154.6 300.2 148.25 280.55 154.65 278.6" fill="#298ccd" fill-rule="evenodd" stroke="none"/>
    <path d="M153.35 293.15 Q154.6 291.75 156.5 291.65 158.45 291.7 159.8 293.05 161.25 294.55 161.25 296.5 161.25 298.55 159.75 299.95 158.45 301.45 156.65 301.45 154.75 301.5 153.35 299.9 151.9 298.6 151.9 296.55 151.85 294.6 153.35 293.15" fill="#88cae6" fill-rule="evenodd" stroke="none"/>
    <path d="M154.5 294.4 Q155.5 293.5 156.6 293.4 157.75 293.35 158.75 294.35 159.55 295.2 159.55 296.45 159.5 297.8 158.7 298.75 157.9 299.7 156.6 299.75 155.55 299.75 154.6 298.75 153.55 297.95 153.55 296.6 153.6 295.3 154.5 294.4" fill="#ade6ff" fill-rule="evenodd" stroke="none"/>
    <path d="M165.45 274.4 L170.35 272.6 177.85 289.7 172.4 292.3 165.45 274.4" fill="#298ccd" fill-rule="evenodd" stroke="none"/>
    <path d="M178.9 290.9 Q178.9 292.85 177.5 294.3 176.2 295.65 174.25 295.7 172.45 295.75 171.1 294.35 169.85 292.95 169.8 291.0 169.75 289.1 171.0 287.6 172.4 286.3 174.3 286.25 176.15 286.25 177.4 287.65 178.85 289.0 178.9 290.9" fill="#88cae6" fill-rule="evenodd" stroke="none"/>
    <path d="M174.35 287.95 Q175.55 288.0 176.25 288.9 177.1 289.7 177.2 290.95 177.15 292.35 176.4 293.15 175.5 294.05 174.35 294.05 173.2 294.1 172.3 293.15 171.45 292.4 171.4 291.0 171.35 289.85 172.25 288.8 173.1 288.0 174.35 287.95" fill="#ade6ff" fill-rule="evenodd" stroke="none"/>
  </g>
  <defs>
    <linearGradient gradientTransform="matrix(0.0014, -0.3151, 0.3116, 0.0014, 350.6, 256.1)" gradientUnits="userSpaceOnUse" id="gradient0" spreadMethod="pad" x1="-819.2" x2="819.2">
      <stop offset="0.0" stop-color="#00a3ec"/>
      <stop offset="1.0" stop-color="#4fd2ff"/>
    </linearGradient>
    <linearGradient gradientTransform="matrix(-0.0022, -0.3139, 0.3871, -0.0017, 663.15, 256.1)" gradientUnits="userSpaceOnUse" id="gradient1" spreadMethod="pad" x1="-819.2" x2="819.2">
      <stop offset="0.0" stop-color="#1bb7fc"/>
      <stop offset="1.0" stop-color="#91e2ff"/>
    </linearGradient>
    <linearGradient gradientTransform="matrix(-0.0022, -0.3139, 0.3871, -0.0017, 610.9, 256.1)" gradientUnits="userSpaceOnUse" id="gradient2" spreadMethod="pad" x1="-819.2" x2="819.2">
      <stop offset="0.0" stop-color="#1bb7fc"/>
      <stop offset="1.0" stop-color="#91e2ff"/>
    </linearGradient>
    <linearGradient gradientTransform="matrix(-0.0022, -0.3139, 0.3871, -0.0017, 507.1, 256.1)" gradientUnits="userSpaceOnUse" id="gradient3" spreadMethod="pad" x1="-819.2" x2="819.2">
      <stop offset="0.0" stop-color="#1bb7fc"/>
      <stop offset="1.0" stop-color="#91e2ff"/>
    </linearGradient>
    <linearGradient gradientTransform="matrix(-0.0022, -0.3139, 0.3871, -0.0017, 559.0, 256.1)" gradientUnits="userSpaceOnUse" id="gradient4" spreadMethod="pad" x1="-819.2" x2="819.2">
      <stop offset="0.0" stop-color="#1bb7fc"/>
      <stop offset="1.0" stop-color="#91e2ff"/>
    </linearGradient>
    <linearGradient gradientTransform="matrix(-0.0022, -0.3139, 0.3871, -0.0017, 455.2, 256.1)" gradientUnits="userSpaceOnUse" id="gradient5" spreadMethod="pad" x1="-819.2" x2="819.2">
      <stop offset="0.0" stop-color="#1bb7fc"/>
      <stop offset="1.0" stop-color="#91e2ff"/>
    </linearGradient>
    <linearGradient gradientTransform="matrix(-0.0022, -0.3139, 0.3871, -0.0017, 351.4, 256.1)" gradientUnits="userSpaceOnUse" id="gradient6" spreadMethod="pad" x1="-819.2" x2="819.2">
      <stop offset="0.0" stop-color="#1bb7fc"/>
      <stop offset="1.0" stop-color="#91e2ff"/>
    </linearGradient>
    <linearGradient gradientTransform="matrix(-0.0022, -0.3139, 0.3871, -0.0017, 403.3, 256.1)" gradientUnits="userSpaceOnUse" id="gradient7" spreadMethod="pad" x1="-819.2" x2="819.2">
      <stop offset="0.0" stop-color="#1bb7fc"/>
      <stop offset="1.0" stop-color="#91e2ff"/>
    </linearGradient>
    <linearGradient gradientTransform="matrix(-0.0022, -0.3139, 0.3871, -0.0017, 299.5, 256.1)" gradientUnits="userSpaceOnUse" id="gradient8" spreadMethod="pad" x1="-819.2" x2="819.2">
      <stop offset="0.0" stop-color="#1bb7fc"/>
      <stop offset="1.0" stop-color="#91e2ff"/>
    </linearGradient>
    <linearGradient gradientTransform="matrix(-0.0022, -0.3139, 0.3871, -0.0017, 195.7, 256.1)" gradientUnits="userSpaceOnUse" id="gradient9" spreadMethod="pad" x1="-819.2" x2="819.2">
      <stop offset="0.0" stop-color="#1bb7fc"/>
      <stop offset="1.0" stop-color="#91e2ff"/>
    </linearGradient>
    <linearGradient gradientTransform="matrix(-0.0022, -0.3139, 0.3871, -0.0017, 247.6, 256.1)" gradientUnits="userSpaceOnUse" id="gradient10" spreadMethod="pad" x1="-819.2" x2="819.2">
      <stop offset="0.0" stop-color="#1bb7fc"/>
      <stop offset="1.0" stop-color="#91e2ff"/>
    </linearGradient>
    <linearGradient gradientTransform="matrix(-0.0022, -0.3139, 0.3871, -0.0017, 143.8, 256.1)" gradientUnits="userSpaceOnUse" id="gradient11" spreadMethod="pad" x1="-819.2" x2="819.2">
      <stop offset="0.0" stop-color="#1bb7fc"/>
      <stop offset="1.0" stop-color="#91e2ff"/>
    </linearGradient>
    <linearGradient gradientTransform="matrix(-0.0022, -0.3139, 0.3871, -0.0017, 40.0, 256.1)" gradientUnits="userSpaceOnUse" id="gradient12" spreadMethod="pad" x1="-819.2" x2="819.2">
      <stop offset="0.0" stop-color="#1bb7fc"/>
      <stop offset="1.0" stop-color="#91e2ff"/>
    </linearGradient>
    <linearGradient gradientTransform="matrix(-0.0022, -0.3139, 0.3871, -0.0017, 91.9, 256.1)" gradientUnits="userSpaceOnUse" id="gradient13" spreadMethod="pad" x1="-819.2" x2="819.2">
      <stop offset="0.0" stop-color="#1bb7fc"/>
      <stop offset="1.0" stop-color="#91e2ff"/>
    </linearGradient>
    <radialGradient cx="0" cy="0" gradientTransform="matrix(0.53, 0.0, 0.0, 0.53, 350.6, 256.1)" gradientUnits="userSpaceOnUse" id="gradient14" r="819.2" spreadMethod="pad">
      <stop offset="0.0" stop-color="#00f7ff" stop-opacity="0.0"/>
      <stop offset="1.0" stop-color="#001c3c" stop-opacity="0.8"/>
    </radialGradient>
  </defs>
</svg>
