<?xml version="1.0" encoding="UTF-8" standalone="no"?>
<svg xmlns:xlink="http://www.w3.org/1999/xlink" height="51.6px" width="79.35px" xmlns="http://www.w3.org/2000/svg">
  <g transform="matrix(1.0, 0.0, 0.0, 1.0, -114.5, -231.1)">
    <path d="M116.95 271.35 Q118.7 269.5 121.3 269.4 L122.7 269.55 124.7 266.15 124.2 265.7 Q120.85 262.4 120.8 257.8 120.7 253.15 123.95 249.65 127.2 246.45 131.85 246.3 135.5 246.25 138.15 248.2 139.1 248.65 139.9 249.35 143.2 252.7 143.3 257.4 143.4 262.05 140.2 265.4 L138.5 266.85 Q135.8 268.8 132.25 268.85 L128.95 268.45 126.75 272.25 Q127.75 273.75 127.8 275.6 127.85 278.3 126.05 280.1 124.15 282.15 121.5 282.2 118.9 282.2 117.05 280.35 115.05 278.5 115.0 275.8 114.95 273.15 116.95 271.35" fill="#ffffff" fill-rule="evenodd" stroke="none"/>
    <path d="M116.95 271.35 Q118.7 269.5 121.3 269.4 L122.7 269.55 124.7 266.15 124.2 265.7 Q120.85 262.4 120.8 257.8 120.7 253.15 123.95 249.65 127.2 246.45 131.85 246.3 135.5 246.25 138.15 248.2 139.1 248.65 139.9 249.35 143.2 252.7 143.3 257.4 143.4 262.05 140.2 265.4 L138.5 266.85 Q135.8 268.8 132.25 268.85 L128.95 268.45 126.75 272.25 Q127.75 273.75 127.8 275.6 127.85 278.3 126.05 280.1 124.15 282.15 121.5 282.2 118.9 282.2 117.05 280.35 115.05 278.5 115.0 275.8 114.95 273.15 116.95 271.35 Z" fill="none" stroke="#15577b" stroke-linecap="round" stroke-linejoin="round" stroke-width="1.0"/>
    <path d="M123.75 277.9 L119.4 275.45 129.8 256.75 134.1 259.15 123.75 277.9" fill="#ffffff" fill-rule="evenodd" stroke="none"/>
    <path d="M124.1 265.6 Q120.75 262.4 120.75 257.65 120.65 253.05 123.85 249.6 127.1 246.35 131.8 246.25 136.45 246.25 139.85 249.3 143.15 252.6 143.2 257.3 143.25 261.95 140.15 265.3 136.8 268.7 132.2 268.8 127.5 268.85 124.1 265.6" fill="#ffffff" fill-rule="evenodd" stroke="none"/>
    <path d="M115.1 275.8 Q115.1 273.15 117.0 271.3 118.8 269.35 121.4 269.35 124.05 269.25 126.0 271.1 127.8 272.95 127.9 275.6 127.9 278.2 126.1 280.15 124.3 282.0 121.65 282.1 119.0 282.1 117.1 280.25 115.15 278.4 115.1 275.8" fill="#ffffff" fill-rule="evenodd" stroke="none"/>
    <path d="M131.65 250.3 Q127.95 250.4 125.95 253.15 124.15 255.65 124.4 259.0 124.65 262.2 127.15 264.2 129.45 266.05 132.45 265.9 135.2 265.8 137.2 263.85 138.85 262.1 139.15 259.85 139.65 256.55 137.3 254.45 135.4 252.75 132.5 252.8 130.6 252.85 129.3 254.45 128.05 256.05 128.1 258.45 128.1 259.7 129.25 260.85 130.45 262.0 131.85 261.95 133.6 261.95 134.7 261.0 135.8 260.15 135.8 258.65 135.8 257.85 134.95 257.1 134.1 256.3 133.0 256.35 132.05 256.35 131.55 256.95 131.0 257.6 131.15 258.25" fill="none" stroke="#15577b" stroke-linecap="round" stroke-linejoin="round" stroke-width="1.5"/>
    <path d="M154.85 242.15 Q155.0 238.85 157.25 235.95 160.15 232.3 164.65 231.7 169.3 231.15 173.05 234.05 176.8 236.85 177.25 241.5 L177.3 242.1 181.25 242.7 181.95 241.35 Q183.6 239.25 186.15 239.05 188.85 238.55 190.9 240.25 193.05 241.85 193.25 244.6 193.7 247.1 192.15 249.25 190.4 251.3 187.8 251.55 185.15 251.95 183.0 250.35 181.5 249.1 181.0 247.5 L176.6 246.95 Q176.15 248.45 175.0 249.7 172.75 252.7 169.6 253.6 L167.5 254.05 Q162.9 254.6 159.2 251.75 155.55 248.9 154.95 244.25 154.7 243.25 154.85 242.15" fill="#ffffff" fill-rule="evenodd" stroke="none"/>
    <path d="M154.85 242.15 Q154.7 243.25 154.95 244.25 155.55 248.9 159.2 251.75 162.9 254.6 167.5 254.05 L169.6 253.6 Q172.75 252.7 175.0 249.7 176.15 248.45 176.6 246.95 L181.0 247.5 Q181.5 249.1 183.0 250.35 185.15 251.95 187.8 251.55 190.4 251.3 192.15 249.25 193.7 247.1 193.25 244.6 193.05 241.85 190.9 240.25 188.85 238.55 186.15 239.05 183.6 239.25 181.95 241.35 L181.25 242.7 177.3 242.1 177.25 241.5 Q176.8 236.85 173.05 234.05 169.3 231.15 164.65 231.7 160.15 232.3 157.25 235.95 155.0 238.85 154.85 242.15 Z" fill="none" stroke="#15577b" stroke-linecap="round" stroke-linejoin="round" stroke-width="1.0"/>
    <path d="M166.8 240.75 L188.0 243.7 187.4 248.5 166.2 245.7 166.8 240.75" fill="#ffffff" fill-rule="evenodd" stroke="none"/>
    <path d="M154.65 244.4 Q154.15 239.8 157.05 236.15 159.9 232.4 164.5 231.85 169.05 231.3 172.8 234.15 176.55 237.05 177.1 241.6 177.65 246.25 174.85 249.9 171.95 253.65 167.2 254.15 162.75 254.8 159.0 251.9 155.35 249.0 154.65 244.4" fill="#ffffff" fill-rule="evenodd" stroke="none"/>
    <path d="M181.75 241.6 Q183.35 239.5 186.05 239.1 188.65 238.8 190.75 240.5 192.7 242.05 193.1 244.65 193.4 247.3 191.9 249.35 190.15 251.35 187.55 251.75 185.0 252.05 182.95 250.55 180.9 248.85 180.5 246.25 180.2 243.65 181.75 241.6" fill="#ffffff" fill-rule="evenodd" stroke="none"/>
    <path d="M157.7 245.05 Q156.95 241.4 159.15 238.9 161.15 236.5 164.45 236.0 167.65 235.5 170.15 237.45 172.55 239.3 173.1 242.25 173.65 244.9 172.15 247.3 170.9 249.35 168.75 250.2 165.6 251.4 163.1 249.6 160.95 248.15 160.35 245.35 159.9 243.45 161.2 241.85 162.5 240.2 164.85 239.7 166.05 239.4 167.4 240.3 168.8 241.15 169.1 242.5 169.5 244.25 168.85 245.5 168.25 246.85 166.8 247.15 166.0 247.35 165.1 246.7 164.1 246.05 163.9 245.0 163.7 244.1 164.15 243.4 164.6 242.75 165.35 242.7" fill="none" stroke="#15577b" stroke-linecap="round" stroke-linejoin="round" stroke-width="1.5"/>
  </g>
</svg>
