<?xml version="1.0" encoding="UTF-8" standalone="no"?>
<svg xmlns:xlink="http://www.w3.org/1999/xlink" height="140.55px" width="91.55px" xmlns="http://www.w3.org/2000/svg">
  <g transform="matrix(1.0, 0.0, 0.0, 1.0, -632.45, -352.6)">
    <path d="M684.65 356.15 Q690.85 358.8 693.45 371.9 694.35 371.15 694.7 371.35 L694.7 371.55 694.8 373.1 694.7 375.9 694.3 376.85 Q695.2 383.65 695.35 392.75 701.95 391.85 707.45 374.2 706.5 373.95 706.55 372.9 706.65 370.8 707.5 369.25 708.15 367.9 708.6 367.95 L708.6 368.25 709.0 369.05 710.75 361.95 Q711.25 359.95 712.0 358.4 714.95 351.05 719.45 357.0 724.35 366.0 720.7 382.65 L720.65 382.8 718.85 389.85 718.2 392.05 Q708.4 424.6 694.5 427.35 L694.05 446.7 698.2 443.25 701.6 439.9 Q701.55 439.4 701.95 438.75 L703.65 436.5 704.9 435.4 705.05 435.35 Q705.5 435.4 705.5 436.95 L705.5 437.4 Q707.25 436.75 707.9 437.9 709.25 439.75 707.25 444.65 L706.5 446.1 706.4 446.25 703.35 451.7 699.7 456.75 Q696.85 460.55 693.7 462.9 L693.7 479.75 Q693.4 483.4 689.45 486.95 L687.85 488.15 Q684.1 490.75 679.55 491.3 673.65 491.85 665.45 489.7 656.35 487.25 653.75 480.6 652.15 476.1 652.9 465.1 645.25 465.2 641.2 461.4 637.25 457.85 635.4 449.75 633.35 439.0 634.85 427.95 637.0 411.45 646.55 394.55 652.15 388.25 651.5 398.2 651.2 401.65 650.05 406.95 649.7 413.05 650.55 416.75 L651.1 416.2 Q652.2 414.95 652.5 415.1 L652.5 415.2 Q652.75 415.55 652.85 417.15 652.9 418.65 652.55 420.35 L652.5 420.8 Q654.35 422.9 657.4 422.85 659.9 401.85 666.0 378.85 L666.6 376.9 Q670.95 359.85 677.85 356.5 680.2 355.1 683.25 355.8 L684.65 356.15" fill="#5b9311" fill-rule="evenodd" stroke="none"/>
    <path d="M684.65 356.15 Q690.85 358.8 693.45 371.9 694.35 371.15 694.7 371.35 L694.7 371.55 694.8 373.1 694.7 375.9 694.3 376.85 Q695.2 383.65 695.35 392.75 701.95 391.85 707.45 374.2 706.5 373.95 706.55 372.9 706.65 370.8 707.5 369.25 708.15 367.9 708.6 367.95 L708.6 368.25 709.0 369.05 710.75 361.95 Q711.25 359.95 712.0 358.4 714.95 351.05 719.45 357.0 724.35 366.0 720.7 382.65 L720.65 382.8 718.85 389.85 718.2 392.05 Q708.4 424.6 694.5 427.35 L694.05 446.7 698.2 443.25 701.6 439.9 Q701.55 439.4 701.95 438.75 L703.65 436.5 704.9 435.4 705.05 435.35 Q705.5 435.4 705.5 436.95 L705.5 437.4 Q707.25 436.75 707.9 437.9 709.25 439.75 707.25 444.65 L706.5 446.1 706.4 446.25 703.35 451.7 699.7 456.75 Q696.85 460.55 693.7 462.9 L693.7 479.75 Q693.4 483.4 689.45 486.95 L687.85 488.15 Q684.1 490.75 679.55 491.3 673.65 491.85 665.45 489.7 656.35 487.25 653.75 480.6 652.15 476.1 652.9 465.1 645.25 465.2 641.2 461.4 637.25 457.85 635.4 449.75 633.35 439.0 634.85 427.95 637.0 411.45 646.55 394.55 652.15 388.25 651.5 398.2 651.2 401.65 650.05 406.95 649.7 413.05 650.55 416.75 L651.1 416.2 Q652.2 414.95 652.5 415.1 L652.5 415.2 Q652.75 415.55 652.85 417.15 652.9 418.65 652.55 420.35 L652.5 420.8 Q654.35 422.9 657.4 422.85 659.9 401.85 666.0 378.85 L666.6 376.9 Q670.95 359.85 677.85 356.5 680.2 355.1 683.25 355.8 L684.65 356.15 Z" fill="none" stroke="#305400" stroke-linecap="round" stroke-linejoin="round" stroke-width="3.5"/>
    <path d="M680.05 381.95 Q681.0 374.05 683.0 372.65 686.0 370.7 687.5 380.35 688.6 387.05 688.6 392.1 L688.55 404.9 Q688.25 416.6 686.65 420.75 L685.25 423.0 Q684.4 424.1 683.35 423.7 681.3 422.75 680.3 415.2 679.3 408.3 679.25 398.7 678.95 388.95 680.05 381.95" fill="#a0e05e" fill-rule="evenodd" stroke="none"/>
    <path d="M678.2 378.1 Q679.0 368.3 681.6 366.4 684.95 363.7 687.45 375.9 689.1 384.05 689.45 390.4 L690.15 406.45 Q690.25 420.95 688.4 426.25 L686.85 429.15 Q685.8 430.5 684.6 430.05 682.05 429.15 680.3 419.7 678.5 411.15 677.9 399.1 677.3 387.2 678.2 378.1 M680.05 381.95 Q678.95 388.95 679.25 398.7 679.3 408.3 680.3 415.2 681.3 422.75 683.35 423.7 684.4 424.1 685.25 423.0 L686.65 420.75 Q688.25 416.6 688.55 404.9 L688.6 392.1 Q688.6 387.05 687.5 380.35 686.0 370.7 683.0 372.65 681.0 374.05 680.05 381.95" fill="#94d455" fill-rule="evenodd" stroke="none"/>
    <path d="M677.9 356.5 Q680.3 355.1 683.3 355.8 L684.7 356.15 Q694.7 360.45 695.4 392.75 L695.45 403.05 695.05 420.8 694.55 427.2 694.55 427.35 694.1 446.65 Q692.65 447.7 690.8 448.2 L685.1 448.9 Q684.7 448.8 684.25 448.5 L681.15 448.35 679.6 448.2 679.25 448.2 676.2 448.85 Q674.3 449.8 673.05 452.35 671.1 456.05 672.2 461.15 672.65 464.35 674.1 466.3 675.4 467.85 677.6 469.0 681.1 470.5 685.2 468.65 688.0 467.5 693.75 462.9 L693.75 479.65 Q693.45 483.4 689.5 486.95 L687.9 488.15 681.95 487.85 Q672.35 484.65 669.1 470.0 665.2 439.6 666.4 404.35 667.5 370.45 677.9 356.5 M678.2 378.1 Q677.3 387.2 677.9 399.1 678.5 411.15 680.3 419.7 682.05 429.15 684.6 430.05 685.8 430.5 686.85 429.15 L688.4 426.25 Q690.25 420.95 690.15 406.45 L689.45 390.4 Q689.1 384.05 687.45 375.9 684.95 363.7 681.6 366.4 679.0 368.3 678.2 378.1" fill="#7eba2f" fill-rule="evenodd" stroke="none"/>
    <path d="M657.4 422.85 Q659.95 401.85 666.0 378.85 L666.7 376.85 Q671.0 359.85 677.9 356.5 667.5 370.45 666.4 404.35 665.2 439.6 669.1 470.0 672.35 484.65 681.95 487.85 L687.9 488.15 Q684.1 490.7 679.6 491.3 673.7 491.85 665.55 489.7 656.4 487.25 653.8 480.6 652.2 476.1 652.95 465.1 653.1 461.35 653.7 456.85 654.1 451.0 654.95 444.15 L656.8 428.45 657.4 422.85" fill="#467f09" fill-rule="evenodd" stroke="none"/>
    <path d="M713.9 364.35 L714.1 365.95 Q714.35 367.85 713.9 371.8 713.35 376.25 712.4 378.6 711.35 381.85 710.35 383.4 708.3 387.15 705.05 386.45 707.1 384.2 709.15 376.7 711.0 369.2 712.2 366.2 L712.7 365.15 713.4 364.1 713.9 364.35" fill="#98d951" fill-rule="evenodd" stroke="none"/>
    <path d="M695.4 392.75 Q703.95 391.55 710.75 361.85 711.25 359.9 712.0 358.35 714.9 355.8 716.15 357.7 719.0 361.8 717.85 372.25 717.4 385.8 707.25 401.4 699.9 408.15 695.45 403.05 L695.4 392.75 M713.9 364.35 L713.4 364.1 712.7 365.15 712.2 366.2 Q711.0 369.2 709.15 376.7 707.1 384.2 705.05 386.45 708.3 387.15 710.35 383.4 711.35 381.85 712.4 378.6 713.35 376.25 713.9 371.8 714.35 367.85 714.1 365.95 L713.9 364.35" fill="#86c740" fill-rule="evenodd" stroke="none"/>
    <path d="M712.0 358.35 Q715.0 351.05 719.45 357.0 724.45 366.0 720.75 382.65 L720.65 382.8 Q716.35 397.4 711.45 405.3 701.85 421.3 695.05 420.8 L695.45 403.05 Q699.9 408.15 707.25 401.4 717.4 385.8 717.85 372.25 719.0 361.8 716.15 357.7 714.9 355.8 712.0 358.35" fill="#559109" fill-rule="evenodd" stroke="none"/>
    <path d="M720.65 382.8 L718.9 389.8 718.25 392.05 Q708.4 424.6 694.55 427.35 L694.55 427.2 695.05 420.8 Q701.85 421.3 711.45 405.3 716.35 397.4 720.65 382.8" fill="#3c6b00" fill-rule="evenodd" stroke="none"/>
    <path d="M698.2 443.25 L701.95 439.65 Q706.7 435.7 707.95 437.9 709.25 439.75 707.25 444.65 L706.5 446.1 706.45 446.25 Q704.4 449.55 698.0 456.1 691.5 462.6 684.8 462.0 678.0 461.4 676.8 458.65 675.75 455.85 676.0 453.8 675.9 452.6 676.75 451.3 677.5 450.05 679.25 448.2 L679.6 448.2 681.15 448.35 684.25 448.5 Q684.7 448.8 685.1 448.9 682.85 449.95 682.45 451.0 682.0 452.35 682.6 453.0 683.0 453.55 684.4 454.0 687.8 455.25 692.95 452.35 697.9 449.45 699.3 446.15 L699.7 444.1 Q699.65 443.55 699.05 443.25 L698.2 443.25" fill="#85b424" fill-rule="evenodd" stroke="none"/>
    <path d="M694.1 446.65 Q695.65 445.65 698.2 443.25 L699.05 443.25 Q699.65 443.55 699.7 444.1 L699.3 446.15 Q697.9 449.45 692.95 452.35 687.8 455.25 684.4 454.0 683.0 453.55 682.6 453.0 682.0 452.35 682.45 451.0 682.85 449.95 685.1 448.9 L690.8 448.2 Q692.65 447.7 694.1 446.65" fill="#b1d943" fill-rule="evenodd" stroke="none"/>
    <path d="M634.9 427.95 Q637.0 411.4 646.6 394.5 652.2 388.2 651.5 398.2 651.15 396.75 650.3 397.55 643.95 407.85 642.05 419.25 640.7 426.25 642.2 430.75 643.5 434.75 647.75 436.6 652.2 438.5 656.8 428.45 L654.95 444.15 Q654.1 451.0 653.7 456.85 636.2 462.1 634.9 427.95" fill="#477005" fill-rule="evenodd" stroke="none"/>
    <path d="M651.5 398.2 Q651.25 401.65 650.15 406.95 649.0 423.1 657.4 422.85 L656.8 428.45 Q652.2 438.5 647.75 436.6 643.5 434.75 642.2 430.75 640.7 426.25 642.05 419.25 643.95 407.85 650.3 397.55 651.15 396.75 651.5 398.2" fill="#81ad26" fill-rule="evenodd" stroke="none"/>
    <path d="M706.45 446.25 Q705.0 449.25 703.35 451.7 702.35 453.75 699.75 456.75 696.9 460.4 693.75 462.9 688.0 467.5 685.2 468.65 681.1 470.5 677.6 469.0 675.4 467.85 674.1 466.3 672.65 464.35 672.2 461.15 671.1 456.05 673.05 452.35 674.3 449.8 676.2 448.85 L679.25 448.2 Q677.5 450.05 676.75 451.3 675.9 452.6 676.0 453.8 675.75 455.85 676.8 458.65 678.0 461.4 684.8 462.0 691.5 462.6 698.0 456.1 704.4 449.55 706.45 446.25" fill="#538710" fill-rule="evenodd" stroke="none"/>
    <path d="M652.95 465.1 Q645.25 465.15 641.25 461.4 637.3 457.85 635.4 449.75 633.4 439.0 634.9 427.95 636.2 462.1 653.7 456.85 653.1 461.35 652.95 465.1" fill="#365800" fill-rule="evenodd" stroke="none"/>
    <path d="M649.3 441.85 L649.4 443.55 649.3 444.5 649.3 444.25 Q648.9 444.25 649.0 443.25 L649.3 441.85" fill="#3c8009" fill-rule="evenodd" stroke="none"/>
    <path d="M644.9 455.15 L644.6 455.2 Q643.65 455.5 643.15 454.15 642.75 452.1 643.1 450.45 643.4 448.85 643.75 448.9 L643.9 449.0 Q643.7 448.95 643.6 450.5 643.55 451.9 643.95 453.45 644.3 454.95 644.9 455.15" fill="#1a3f00" fill-rule="evenodd" stroke="none"/>
    <path d="M643.9 449.0 Q644.1 449.05 644.9 450.4 645.65 451.45 646.1 452.95 646.65 454.3 645.3 454.9 L644.9 455.15 Q644.3 454.95 643.95 453.45 643.55 451.9 643.6 450.5 643.7 448.95 643.9 449.0" fill="#275b00" fill-rule="evenodd" stroke="none"/>
    <path d="M672.35 421.25 L671.65 421.4 Q669.9 421.8 669.2 419.8 668.5 416.3 669.2 413.65 669.6 410.9 670.3 410.95 L670.45 411.25 Q670.35 411.05 669.95 413.55 669.75 416.0 670.45 418.65 671.05 420.95 672.35 421.25" fill="#255800" fill-rule="evenodd" stroke="none"/>
    <path d="M670.45 411.25 Q670.8 411.35 672.2 413.2 673.6 415.1 674.3 417.55 675.2 419.85 673.15 420.8 L672.35 421.25 Q671.05 420.95 670.45 418.65 669.75 416.0 669.95 413.55 670.35 411.05 670.45 411.25 M672.45 416.75 Q672.7 417.85 673.25 418.95 673.15 418.5 673.5 418.35 673.95 418.3 672.75 415.9 L671.4 413.1 672.45 416.75" fill="#3d8e01" fill-rule="evenodd" stroke="none"/>
    <path d="M672.45 416.75 L671.4 413.1 672.75 415.9 Q673.95 418.3 673.5 418.35 673.15 418.5 673.25 418.95 672.7 417.85 672.45 416.75" fill="#69cd1e" fill-rule="evenodd" stroke="none"/>
    <path d="M660.65 450.4 L661.65 451.65 663.0 454.15 Q663.55 455.6 662.25 456.3 L661.85 456.45 Q661.05 456.3 660.65 454.9 660.2 453.45 660.5 451.75 L660.65 450.4 M662.5 454.7 Q662.85 454.7 662.05 453.25 L661.05 451.55 661.85 453.75 662.35 454.95 662.5 454.7" fill="#275b00" fill-rule="evenodd" stroke="none"/>
    <path d="M661.85 456.45 L661.4 456.55 Q660.15 456.8 659.9 455.6 659.45 453.5 659.8 451.75 660.15 450.15 660.6 450.45 L660.65 450.4 660.5 451.75 Q660.2 453.45 660.65 454.9 661.05 456.3 661.85 456.45" fill="#1a3f00" fill-rule="evenodd" stroke="none"/>
    <path d="M662.5 454.7 L662.35 454.95 661.85 453.75 661.05 451.55 662.05 453.25 Q662.85 454.7 662.5 454.7" fill="#3c8009" fill-rule="evenodd" stroke="none"/>
    <path d="M649.45 461.4 Q649.4 460.25 649.5 460.0 L649.7 461.8 649.55 462.55 649.45 462.5 Q649.3 462.4 649.45 461.4" fill="#3c8009" fill-rule="evenodd" stroke="none"/>
    <path d="M637.0 438.65 L637.0 438.6 Q637.4 438.3 637.85 439.4 638.5 440.35 638.65 441.9 638.65 442.75 637.9 442.75 638.1 442.5 637.9 441.5 637.9 440.5 637.55 439.55 L637.0 438.65" fill="#1a3f00" fill-rule="evenodd" stroke="none"/>
    <path d="M636.7 440.8 L636.95 439.45 637.0 441.1 636.95 442.0 636.85 441.9 Q636.7 441.9 636.7 440.8" fill="#3c8009" fill-rule="evenodd" stroke="none"/>
    <path d="M637.9 442.75 L637.85 442.8 637.25 442.8 Q636.4 442.7 636.3 441.55 L636.6 439.75 637.0 438.65 637.55 439.55 Q637.9 440.5 637.9 441.5 638.1 442.5 637.9 442.75 M636.7 440.8 Q636.7 441.9 636.85 441.9 L636.95 442.0 637.0 441.1 636.95 439.45 636.7 440.8" fill="#275b00" fill-rule="evenodd" stroke="none"/>
    <path d="M661.4 477.3 Q660.15 477.1 659.5 474.5 658.9 472.15 659.1 469.6 659.3 467.0 659.5 467.05 L661.3 469.35 Q662.6 471.25 663.55 473.65 664.4 475.95 662.35 477.05 L661.4 477.3 M662.6 474.4 Q663.05 474.4 661.85 471.95 L660.4 468.85 661.6 472.8 662.4 474.95 Q662.25 474.5 662.6 474.4" fill="#275b00" fill-rule="evenodd" stroke="none"/>
    <path d="M659.5 467.05 Q659.3 467.0 659.1 469.6 658.9 472.15 659.5 474.5 660.15 477.1 661.4 477.3 L660.8 477.5 Q658.9 477.95 658.25 475.9 657.5 472.4 658.2 469.6 658.7 466.95 659.45 466.95 L659.5 467.05" fill="#1a3f00" fill-rule="evenodd" stroke="none"/>
    <path d="M662.6 474.4 Q662.25 474.5 662.4 474.95 L661.6 472.8 660.4 468.85 661.85 471.95 Q663.05 474.4 662.6 474.4" fill="#3c8009" fill-rule="evenodd" stroke="none"/>
    <path d="M676.7 478.3 L675.8 482.2 675.3 484.15 674.95 483.85 Q674.5 483.85 675.35 481.25 676.3 478.8 676.7 478.3" fill="#3c8009" fill-rule="evenodd" stroke="none"/>
    <path d="M677.45 476.35 L678.15 478.75 Q678.35 481.25 677.9 483.8 677.6 486.3 676.2 486.75 L675.55 486.45 Q673.2 485.5 673.95 483.15 674.6 480.6 675.8 478.7 677.1 476.45 677.45 476.35 M676.7 478.3 Q676.3 478.8 675.35 481.25 674.5 483.85 674.95 483.85 L675.3 484.15 675.8 482.2 676.7 478.3" fill="#275b00" fill-rule="evenodd" stroke="none"/>
    <path d="M676.2 486.75 Q677.6 486.3 677.9 483.8 678.35 481.25 678.15 478.75 L677.45 476.35 677.6 476.1 Q678.25 476.05 679.0 478.65 679.85 481.45 679.4 484.95 678.95 487.1 676.95 486.9 L676.2 486.75" fill="#1a3f00" fill-rule="evenodd" stroke="none"/>
    <path d="M684.55 461.85 L685.4 459.95 684.9 462.3 684.45 463.6 684.25 463.5 Q683.85 463.5 684.55 461.85" fill="#3c8009" fill-rule="evenodd" stroke="none"/>
    <path d="M689.55 417.0 Q691.05 416.65 691.4 413.7 691.9 410.95 691.65 408.0 L690.9 405.3 691.1 405.1 Q691.7 405.0 692.5 407.85 693.5 411.05 693.0 415.05 692.4 417.4 690.3 417.05 L689.55 417.0" fill="#2d6d00" fill-rule="evenodd" stroke="none"/>
    <path d="M689.55 417.0 L688.75 416.65 Q686.15 415.65 686.9 413.0 687.75 410.2 688.9 407.85 L690.85 405.3 690.9 405.3 691.65 408.0 Q691.9 410.95 691.4 413.7 691.05 416.65 689.55 417.0 M688.55 410.9 Q687.5 413.7 688.0 413.9 688.4 413.85 688.4 414.4 L689.1 411.9 690.05 407.4 688.55 410.9" fill="#5fa32b" fill-rule="evenodd" stroke="none"/>
    <path d="M688.55 410.9 L690.05 407.4 689.1 411.9 688.4 414.4 Q688.4 413.85 688.0 413.9 687.5 413.7 688.55 410.9" fill="#92d95d" fill-rule="evenodd" stroke="none"/>
    <path d="M703.0 407.0 L703.0 406.95 Q703.45 406.85 703.85 408.55 704.4 410.0 704.1 412.05 703.8 413.4 702.7 413.25 L702.2 413.15 Q703.1 413.1 703.25 411.55 703.55 410.1 703.25 408.5 L703.0 407.0" fill="#1a3f00" fill-rule="evenodd" stroke="none"/>
    <path d="M702.2 413.15 L701.95 413.15 Q700.5 412.45 700.9 411.15 701.35 409.65 702.05 408.4 L703.0 407.0 703.25 408.5 Q703.55 410.1 703.25 411.55 703.1 413.1 702.2 413.15 M701.65 411.8 L701.95 410.5 702.55 408.2 Q702.25 408.55 701.75 410.0 701.25 411.55 701.5 411.6 L701.65 411.8" fill="#275b00" fill-rule="evenodd" stroke="none"/>
    <path d="M701.65 411.8 L701.5 411.6 Q701.25 411.55 701.75 410.0 702.25 408.55 702.55 408.2 L701.95 410.5 701.65 411.8" fill="#3c8009" fill-rule="evenodd" stroke="none"/>
    <path d="M673.9 398.7 L674.5 400.15 Q675.0 401.45 675.1 403.0 675.3 404.45 673.9 404.8 L673.4 404.85 Q672.75 404.55 672.65 403.0 672.7 401.45 673.2 399.95 673.75 398.65 673.9 398.7 M674.35 401.75 L674.15 400.0 674.25 402.3 674.25 403.7 Q674.3 403.3 674.6 403.35 L674.35 401.75" fill="#94d455" fill-rule="evenodd" stroke="none"/>
    <path d="M673.4 404.85 L673.05 404.8 Q671.85 404.7 671.85 403.45 671.9 401.35 672.65 399.9 673.4 398.5 673.65 398.6 L673.9 398.7 Q673.75 398.65 673.2 399.95 672.7 401.45 672.65 403.0 672.75 404.55 673.4 404.85" fill="#5ea11f" fill-rule="evenodd" stroke="none"/>
    <path d="M674.35 401.75 L674.6 403.35 Q674.3 403.3 674.25 403.7 L674.25 402.3 674.15 400.0 674.35 401.75" fill="#cdf5af" fill-rule="evenodd" stroke="none"/>
    <path d="M705.75 388.35 L705.8 388.2 Q706.35 388.2 706.75 389.8 707.2 391.6 706.95 394.0 706.6 395.25 705.35 395.2 L705.0 395.1 Q705.85 394.9 706.15 393.25 706.4 391.6 706.15 390.0 L705.75 388.35" fill="#518322" fill-rule="evenodd" stroke="none"/>
    <path d="M704.8 392.15 L704.25 393.7 704.15 393.3 Q703.95 393.25 704.5 391.55 L705.35 389.55 Q704.8 391.5 704.8 392.15" fill="#cdf5af" fill-rule="evenodd" stroke="none"/>
    <path d="M705.75 388.35 L706.15 390.0 Q706.4 391.6 706.15 393.25 705.85 394.9 705.0 395.1 L704.45 394.9 Q703.2 394.4 703.45 392.85 703.95 391.15 704.7 389.9 L705.75 388.35 M704.8 392.15 Q704.8 391.5 705.35 389.55 L704.5 391.55 Q703.95 393.25 704.15 393.3 L704.25 393.7 704.8 392.15" fill="#78af41" fill-rule="evenodd" stroke="none"/>
    <path d="M652.7 415.2 L653.0 417.15 652.75 420.35 Q652.4 421.8 651.0 421.8 L650.45 421.8 Q649.8 421.1 650.2 419.45 650.7 417.9 651.6 416.45 L652.7 415.2 M652.0 419.2 L651.6 420.65 Q651.85 420.4 652.15 420.4 652.35 420.65 652.35 418.8 L652.65 416.75 652.0 419.2" fill="#78af41" fill-rule="evenodd" stroke="none"/>
    <path d="M650.45 421.8 L649.9 421.6 Q648.75 421.25 649.15 419.85 649.85 417.6 651.2 416.2 652.35 414.9 652.7 415.1 L652.7 415.2 651.6 416.45 Q650.7 417.9 650.2 419.45 649.8 421.1 650.45 421.8" fill="#518322" fill-rule="evenodd" stroke="none"/>
    <path d="M652.0 419.2 L652.65 416.75 652.35 418.8 Q652.35 420.65 652.15 420.4 651.85 420.4 651.6 420.65 L652.0 419.2" fill="#cdf5af" fill-rule="evenodd" stroke="none"/>
    <path d="M642.15 427.75 L641.8 427.8 Q640.45 427.75 640.25 426.2 640.5 423.75 641.45 422.0 642.15 420.3 642.75 420.4 L642.9 420.65 Q642.75 420.5 642.05 422.15 641.4 423.85 641.4 425.6 641.4 427.35 642.15 427.75" fill="#255800" fill-rule="evenodd" stroke="none"/>
    <path d="M642.9 420.65 L643.55 422.35 Q644.1 423.9 644.3 425.75 644.45 427.35 642.8 427.75 L642.15 427.75 Q641.4 427.35 641.4 425.6 641.4 423.85 642.05 422.15 642.75 420.5 642.9 420.65 M643.25 426.35 Q643.25 426.15 643.55 426.1 643.75 426.1 643.6 424.3 L643.1 422.1 643.15 424.9 643.25 426.35" fill="#3d8e01" fill-rule="evenodd" stroke="none"/>
    <path d="M643.25 426.35 L643.15 424.9 643.1 422.1 643.6 424.3 Q643.75 426.1 643.55 426.1 643.25 426.15 643.25 426.35" fill="#69cd1e" fill-rule="evenodd" stroke="none"/>
    <path d="M673.25 433.55 Q673.15 433.2 673.5 433.15 674.15 432.95 675.55 435.6 677.5 438.5 677.9 442.55 678.2 445.05 675.9 445.4 L675.05 445.45 Q676.55 444.7 676.1 441.7 675.9 438.8 674.7 436.0 673.5 433.15 673.25 433.55" fill="#255800" fill-rule="evenodd" stroke="none"/>
    <path d="M675.05 445.45 L674.15 445.45 Q671.3 445.0 671.45 442.2 671.45 439.15 672.2 436.45 673.0 433.7 673.25 433.55 673.5 433.15 674.7 436.0 675.9 438.8 676.1 441.7 676.55 444.7 675.05 445.45 M673.15 440.5 Q673.0 439.2 673.15 435.95 672.8 436.55 672.6 439.75 672.25 442.8 672.65 442.6 673.2 442.6 673.2 443.2 L673.15 440.5" fill="#3d8e01" fill-rule="evenodd" stroke="none"/>
    <path d="M673.15 440.5 L673.2 443.2 Q673.2 442.6 672.65 442.6 672.25 442.8 672.6 439.75 672.8 436.55 673.15 435.95 673.0 439.2 673.15 440.5" fill="#69cd1e" fill-rule="evenodd" stroke="none"/>
    <path d="M685.6 433.5 L684.9 433.2 Q682.85 432.3 683.45 430.2 684.15 427.75 685.25 425.75 686.6 423.8 686.8 423.75 L687.25 425.9 Q687.75 428.45 687.4 430.85 686.8 433.2 685.6 433.5 M684.6 431.35 L685.2 429.15 686.1 425.5 Q685.65 426.05 684.9 428.45 683.85 430.75 684.4 430.7 684.6 430.85 684.6 431.35" fill="#3d8e01" fill-rule="evenodd" stroke="none"/>
    <path d="M686.8 423.75 L686.9 423.5 Q687.5 423.45 688.3 425.9 688.95 428.55 688.55 431.95 688.0 433.9 686.2 433.6 L685.6 433.5 Q686.8 433.2 687.4 430.85 687.75 428.45 687.25 425.9 L686.8 423.75" fill="#255800" fill-rule="evenodd" stroke="none"/>
    <path d="M684.6 431.35 Q684.6 430.85 684.4 430.7 683.85 430.75 684.9 428.45 685.65 426.05 686.1 425.5 L685.2 429.15 684.6 431.35" fill="#69cd1e" fill-rule="evenodd" stroke="none"/>
    <path d="M694.8 371.55 L695.05 373.1 Q695.1 374.55 694.8 375.9 694.6 377.15 693.1 377.4 L692.8 377.3 Q692.25 376.7 692.6 375.25 693.1 373.85 693.95 372.5 694.7 371.3 694.8 371.55 M694.25 376.15 L694.6 374.6 694.6 372.65 694.05 375.1 693.9 376.3 Q693.95 375.95 694.25 376.15" fill="#94d455" fill-rule="evenodd" stroke="none"/>
    <path d="M692.8 377.3 L692.4 377.15 Q691.3 376.85 691.65 375.6 692.35 373.5 693.2 372.25 694.45 371.1 694.8 371.3 L694.8 371.55 Q694.7 371.3 693.95 372.5 693.1 373.85 692.6 375.25 692.25 376.7 692.8 377.3" fill="#5ea11f" fill-rule="evenodd" stroke="none"/>
    <path d="M694.25 376.15 Q693.95 375.95 693.9 376.3 L694.05 375.1 694.6 372.65 694.6 374.6 694.25 376.15" fill="#cdf5af" fill-rule="evenodd" stroke="none"/>
    <path d="M708.35 374.25 L708.05 374.25 Q706.6 374.2 706.7 372.85 706.9 370.8 707.65 369.25 708.3 367.9 708.75 367.95 L708.75 368.15 Q708.65 367.9 708.05 369.45 707.65 370.9 707.65 372.45 707.55 373.95 708.35 374.25" fill="#5ea11f" fill-rule="evenodd" stroke="none"/>
    <path d="M708.75 368.15 L709.5 369.65 Q709.95 370.9 710.0 372.5 710.1 373.95 708.8 374.25 L708.35 374.25 Q707.55 373.95 707.65 372.45 707.65 370.9 708.05 369.45 708.65 367.9 708.75 368.15 M709.35 372.8 Q709.6 372.8 709.3 371.25 709.2 369.7 708.9 369.45 L709.05 371.55 709.15 372.9 709.35 372.8" fill="#94d455" fill-rule="evenodd" stroke="none"/>
    <path d="M709.35 372.8 L709.15 372.9 709.05 371.55 708.9 369.45 Q709.2 369.7 709.3 371.25 709.6 372.8 709.35 372.8" fill="#cdf5af" fill-rule="evenodd" stroke="none"/>
    <path d="M668.55 385.35 L668.15 385.35 Q666.9 385.4 666.85 384.05 667.1 382.05 667.7 380.5 668.5 379.1 668.95 379.2 L668.95 379.35 Q668.8 379.15 668.25 380.55 667.95 382.1 667.95 383.6 667.85 385.05 668.55 385.35" fill="#5ea11f" fill-rule="evenodd" stroke="none"/>
    <path d="M668.95 379.35 Q669.2 379.4 669.65 380.85 L670.3 383.65 Q670.3 384.95 669.05 385.35 L668.55 385.35 Q667.85 385.05 667.95 383.6 667.95 382.1 668.25 380.55 668.8 379.15 668.95 379.35 M669.2 380.5 L669.2 382.8 669.3 384.2 Q669.4 383.85 669.65 383.85 669.85 383.95 669.65 382.4 L669.2 380.5" fill="#94d455" fill-rule="evenodd" stroke="none"/>
    <path d="M669.2 380.5 L669.65 382.4 Q669.85 383.95 669.65 383.85 669.4 383.85 669.3 384.2 L669.2 382.8 669.2 380.5" fill="#cdf5af" fill-rule="evenodd" stroke="none"/>
    <path d="M691.7 450.55 L691.2 450.5 Q690.15 450.05 690.35 448.85 690.9 446.7 692.25 445.45 693.15 444.25 693.55 444.55 L693.55 444.75 692.6 445.85 Q691.85 447.1 691.4 448.45 691.05 449.95 691.7 450.55" fill="#5ea11f" fill-rule="evenodd" stroke="none"/>
    <path d="M693.55 444.75 L693.9 446.35 Q693.95 447.8 693.65 449.25 693.5 450.65 692.0 450.55 L691.7 450.55 Q691.05 449.95 691.4 448.45 691.85 447.1 692.6 445.85 L693.55 444.75 M693.45 445.9 L693.0 448.35 692.6 449.65 693.0 449.3 Q693.2 449.45 693.5 447.85 L693.45 445.9" fill="#94d455" fill-rule="evenodd" stroke="none"/>
    <path d="M693.45 445.9 L693.5 447.85 Q693.2 449.45 693.0 449.3 L692.6 449.65 693.0 448.35 693.45 445.9" fill="#cdf5af" fill-rule="evenodd" stroke="none"/>
    <path d="M703.0 441.1 L702.5 440.9 Q701.35 440.0 702.1 438.75 L703.8 436.45 705.0 435.4 Q705.3 435.4 705.0 436.9 704.85 438.6 704.2 439.8 703.7 441.1 703.0 441.1 M702.7 439.65 Q702.85 439.0 703.25 438.5 L704.45 436.4 703.2 438.0 Q702.25 439.35 702.5 439.35 L702.7 439.65" fill="#94d455" fill-rule="evenodd" stroke="none"/>
    <path d="M705.0 435.4 L705.3 435.3 Q705.65 435.4 705.65 436.9 705.6 438.7 704.85 440.6 704.25 441.85 703.1 441.15 L703.0 441.1 Q703.7 441.1 704.2 439.8 704.85 438.6 705.0 436.9 705.3 435.4 705.0 435.4" fill="#5ea11f" fill-rule="evenodd" stroke="none"/>
    <path d="M702.7 439.65 L702.5 439.35 Q702.25 439.35 703.2 438.0 L704.45 436.4 703.25 438.5 Q702.85 439.0 702.7 439.65" fill="#cdf5af" fill-rule="evenodd" stroke="none"/>
    <path d="M657.1 431.25 L658.3 432.85 Q659.3 434.0 659.8 435.65 660.4 437.4 658.95 438.05 L658.4 438.25 Q657.4 438.15 657.1 436.4 656.6 434.65 656.7 432.95 656.95 431.15 657.1 431.25 M659.0 436.75 Q658.9 436.3 659.1 436.3 659.55 436.25 658.7 434.65 L657.8 432.65 658.6 435.15 Q658.65 435.95 659.0 436.75" fill="#3d8e01" fill-rule="evenodd" stroke="none"/>
    <path d="M658.4 438.25 L658.05 438.25 Q656.6 438.7 656.15 437.15 655.7 434.75 656.2 432.85 656.55 431.15 657.0 431.15 L657.1 431.25 Q656.95 431.15 656.7 432.95 656.6 434.65 657.1 436.4 657.4 438.15 658.4 438.25" fill="#255800" fill-rule="evenodd" stroke="none"/>
    <path d="M659.0 436.75 Q658.65 435.95 658.6 435.15 L657.8 432.65 658.7 434.65 Q659.55 436.25 659.1 436.3 658.9 436.3 659.0 436.75" fill="#69cd1e" fill-rule="evenodd" stroke="none"/>
    <path d="M682.6 369.55 Q681.8 369.25 681.85 367.75 682.0 366.4 682.45 364.85 682.9 363.35 683.0 363.65 683.25 363.7 683.7 365.0 684.15 366.2 684.4 367.9 684.45 369.25 683.0 369.6 L682.6 369.55 M683.3 367.25 L683.4 368.4 Q683.45 368.1 683.65 368.15 683.85 368.1 683.55 366.7 L683.25 364.75 683.3 367.25" fill="#94d455" fill-rule="evenodd" stroke="none"/>
    <path d="M683.0 363.65 Q682.9 363.35 682.45 364.85 682.0 366.4 681.85 367.75 681.8 369.25 682.6 369.55 L682.15 369.6 Q681.05 369.6 680.95 368.4 681.05 366.15 681.85 364.6 682.6 363.25 682.9 363.3 L683.0 363.65" fill="#5ea11f" fill-rule="evenodd" stroke="none"/>
    <path d="M683.3 367.25 L683.25 364.75 683.55 366.7 Q683.85 368.1 683.65 368.15 683.45 368.1 683.4 368.4 L683.3 367.25" fill="#cdf5af" fill-rule="evenodd" stroke="none"/>
  </g>
</svg>
