<?xml version="1.0" encoding="UTF-8" standalone="no"?>
<svg xmlns:xlink="http://www.w3.org/1999/xlink" height="133.75px" width="169.2px" xmlns="http://www.w3.org/2000/svg">
  <g transform="matrix(1.0, 0.0, 0.0, 1.0, 0.0, 0.0)">
    <path d="M167.9 115.6 L169.2 133.75 Q115.2 36.0 2.5 0.8 27.6 4.5 71.75 25.15 111.1 45.3 150.0 88.4 160.95 102.0 167.9 115.6 M1.6 11.65 Q40.65 29.35 69.55 54.4 93.85 74.5 109.65 102.25 L115.75 121.25 Q80.05 55.75 1.6 11.65" fill="#dbd9d9" fill-rule="evenodd" stroke="none"/>
    <path d="M2.5 0.8 L1.5 0.5 0.0 0.0 Q112.75 16.8 166.05 90.75 L167.9 115.6 Q160.95 102.0 150.0 88.4 111.1 45.3 71.75 25.15 27.6 4.5 2.5 0.8 M1.6 11.65 L0.3 10.9 Q51.95 25.2 100.95 75.2 L109.65 102.25 Q93.85 74.5 69.55 54.4 40.65 29.35 1.6 11.65" fill="#ffffff" fill-rule="evenodd" stroke="none"/>
  </g>
</svg>
