<?xml version="1.0" encoding="UTF-8" standalone="no"?>
<svg xmlns:xlink="http://www.w3.org/1999/xlink" height="152.45px" width="684.05px" xmlns="http://www.w3.org/2000/svg">
  <g transform="matrix(1.0, 0.0, 0.0, 1.0, -14.9, -359.0)">
    <path d="M663.35 500.25 L663.2 500.95 663.25 501.4 Q663.35 503.0 663.1 503.65 L661.95 504.0 661.9 504.0 661.95 504.2 Q661.45 504.6 661.05 504.65 L661.0 504.7 657.55 504.7 657.45 504.55 Q657.4 504.85 657.1 504.7 L656.2 503.85 655.5 503.15 654.9 502.45 655.1 501.0 Q655.35 499.8 655.55 499.45 L655.9 498.4 655.95 497.7 656.05 497.45 656.0 497.4 657.8 496.25 659.75 496.25 661.85 497.1 Q662.45 497.0 662.85 498.05 663.35 499.15 663.35 500.25 M659.55 499.9 L659.4 499.75 659.45 499.85 659.55 499.9 M660.5 500.25 L660.5 500.0 660.35 500.2 660.5 500.25 M657.95 499.0 L657.5 498.9 657.55 498.95 657.95 499.0" fill="#d7ba7c" fill-rule="evenodd" stroke="none"/>
    <path d="M663.35 500.25 Q663.35 499.15 662.85 498.05 662.45 497.0 661.85 497.1 L659.75 496.25 657.8 496.25 656.0 497.4 656.05 497.45 655.95 497.7 655.9 498.4 655.55 499.45 Q655.35 499.8 655.1 501.0 L654.9 502.45 655.5 503.15 656.2 503.85 657.1 504.7 Q657.4 504.85 657.45 504.55 L657.55 504.7 661.0 504.7 661.05 504.65 Q661.45 504.6 661.95 504.2 L661.9 504.0 661.95 504.0 663.1 503.65 Q663.35 503.0 663.25 501.4 L663.2 500.95 663.35 500.25 Z" fill="none" stroke="#6b3e07" stroke-linecap="round" stroke-linejoin="round" stroke-width="2.0"/>
    <path d="M659.25 499.8 Q661.3 500.5 661.2 500.55 L660.15 502.05 661.05 504.45 661.0 504.7 657.55 504.7 659.25 499.8" fill="#a27f46" fill-rule="evenodd" stroke="none"/>
    <path d="M663.1 499.95 L663.25 501.4 Q663.35 503.0 663.1 503.65 L661.95 504.0 Q661.7 503.95 661.65 503.25 L660.85 501.5 Q660.2 500.15 660.7 498.75 661.05 498.5 662.1 499.2 L663.1 499.95" fill="#c6a473" fill-rule="evenodd" stroke="none"/>
    <path d="M657.15 499.2 L659.4 499.75 659.5 500.2 659.25 501.75 Q658.6 503.2 659.05 503.75 L658.3 504.3 657.55 504.7 656.95 503.75 657.15 499.2" fill="#e0c48f" fill-rule="evenodd" stroke="none"/>
    <path d="M660.5 504.45 L660.25 504.25 659.6 503.75 Q659.1 503.45 659.2 502.8 L659.4 502.15 659.75 501.75 660.35 501.15 660.9 501.15 661.05 501.25 661.95 504.2 Q661.05 504.9 660.5 504.45" fill="#84612e" fill-rule="evenodd" stroke="none"/>
    <path d="M662.35 503.45 L661.75 504.1 Q661.35 504.4 661.2 504.1 660.25 502.2 660.35 501.9 L660.95 501.15 661.2 501.4 661.6 501.9 Q661.8 502.4 662.55 502.8 662.75 503.1 662.35 503.45" fill="#e5d3ad" fill-rule="evenodd" stroke="none"/>
    <path d="M655.95 497.7 Q656.0 496.9 656.8 498.1 L657.55 499.45 657.25 501.05 Q657.0 502.75 657.25 503.5 657.75 505.0 657.1 504.7 L656.2 503.85 655.5 503.15 654.9 502.45 655.1 501.0 Q655.35 499.8 655.55 499.45 L655.9 498.4 655.95 497.7" fill="#c6a473" fill-rule="evenodd" stroke="none"/>
    <path d="M662.85 498.05 Q663.35 499.15 663.35 500.25 663.35 500.95 663.0 501.1 662.65 501.35 662.5 501.0 L661.7 500.3 661.05 499.9 Q660.6 499.55 660.65 498.75 660.7 497.85 661.5 497.25 662.3 496.7 662.85 498.05" fill="#d9bc88" fill-rule="evenodd" stroke="none"/>
    <path d="M657.8 496.25 L659.75 496.25 662.35 497.3 661.1 499.25 660.2 500.25 659.95 499.45 657.0 498.8 656.0 497.4 657.8 496.25" fill="#e5d3ad" fill-rule="evenodd" stroke="none"/>
    <path d="M656.65 498.35 L657.55 498.95 659.4 499.2 660.35 499.55 661.65 498.55 660.1 500.5 659.4 499.75 657.55 499.45 656.65 498.35" fill="#f2ede4" fill-rule="evenodd" stroke="none"/>
    <path d="M401.65 367.1 L404.5 363.8 406.3 371.5 420.25 359.0 424.15 373.3 421.75 377.5 414.7 379.0 399.55 377.8 401.65 367.1" fill="#a27f46" fill-rule="evenodd" stroke="none"/>
    <path d="M409.6 370.85 L409.45 370.85 406.9 374.2 407.2 373.75 401.65 367.1 404.05 365.45 404.2 363.35 406.15 360.95 420.25 359.0 416.2 367.7 409.6 370.85" fill="#e5d3ad" fill-rule="evenodd" stroke="none"/>
    <path d="M410.2 371.3 L404.65 367.4 401.65 367.1 404.05 363.35 416.65 367.1 410.2 371.3" fill="#c6a473" fill-rule="evenodd" stroke="none"/>
    <path d="M411.25 377.65 L410.05 372.55 Q416.2 377.35 416.2 377.65 L411.25 377.65" fill="#936b34" fill-rule="evenodd" stroke="none"/>
    <path d="M407.2 373.75 L409.45 370.85 411.55 378.7 407.05 378.25 407.2 373.75" fill="#e0c48f" fill-rule="evenodd" stroke="none"/>
    <path d="M103.95 494.55 L105.0 493.35 105.65 496.1 110.75 491.6 112.15 496.8 111.3 498.3 108.7 498.85 103.2 498.4 103.95 494.55" fill="#a27f46" fill-rule="evenodd" stroke="none"/>
    <path d="M106.85 495.9 L106.8 495.9 105.85 497.1 105.95 496.95 103.95 494.55 104.85 493.95 104.9 493.15 105.6 492.3 110.75 491.6 109.25 494.75 106.85 495.9" fill="#e5d3ad" fill-rule="evenodd" stroke="none"/>
    <path d="M107.05 496.05 L105.05 494.65 103.95 494.55 104.85 493.15 109.4 494.55 107.05 496.05" fill="#c6a473" fill-rule="evenodd" stroke="none"/>
    <path d="M107.45 498.35 L107.0 496.5 109.25 498.35 107.45 498.35" fill="#936b34" fill-rule="evenodd" stroke="none"/>
    <path d="M88.95 501.45 Q91.0 502.15 90.9 502.2 L89.85 503.7 90.75 506.1 90.7 506.35 87.25 506.35 88.95 501.45" fill="#a27f46" fill-rule="evenodd" stroke="none"/>
    <path d="M92.8 501.6 L92.95 503.05 Q93.05 504.65 92.8 505.3 L91.65 505.65 Q91.4 505.6 91.35 504.9 L90.55 503.15 Q89.9 501.8 90.4 500.4 90.75 500.15 91.8 500.85 L92.8 501.6" fill="#c6a473" fill-rule="evenodd" stroke="none"/>
    <path d="M86.85 500.85 L89.1 501.4 89.2 501.85 88.95 503.4 Q88.3 504.85 88.75 505.4 L88.0 505.95 87.25 506.35 86.65 505.4 86.85 500.85" fill="#e0c48f" fill-rule="evenodd" stroke="none"/>
    <path d="M90.2 506.1 L89.95 505.9 89.3 505.4 Q88.8 505.1 88.9 504.45 L89.1 503.8 89.45 503.4 90.05 502.8 90.6 502.8 90.75 502.9 91.65 505.85 Q90.75 506.55 90.2 506.1" fill="#84612e" fill-rule="evenodd" stroke="none"/>
    <path d="M92.05 505.1 L91.45 505.75 Q91.05 506.05 90.9 505.75 89.95 503.85 90.05 503.55 L90.65 502.8 90.9 503.05 91.3 503.55 Q91.5 504.05 92.25 504.45 92.45 504.75 92.05 505.1" fill="#e5d3ad" fill-rule="evenodd" stroke="none"/>
    <path d="M85.65 499.35 Q85.7 498.55 86.5 499.75 L87.25 501.1 86.95 502.7 Q86.7 504.4 86.95 505.15 87.45 506.65 86.8 506.35 86.15 506.05 85.9 505.5 L85.2 504.8 84.6 504.1 84.8 502.65 Q85.05 501.45 85.25 501.1 L85.6 500.05 85.65 499.35" fill="#c6a473" fill-rule="evenodd" stroke="none"/>
    <path d="M92.55 499.7 Q93.05 500.8 93.05 501.9 93.05 502.6 92.7 502.75 92.35 503.0 92.2 502.65 L91.4 501.95 90.75 501.55 Q90.3 501.2 90.35 500.4 90.4 499.5 91.2 498.9 92.0 498.35 92.55 499.7" fill="#d9bc88" fill-rule="evenodd" stroke="none"/>
    <path d="M87.5 497.9 L89.45 497.9 92.05 498.95 90.8 500.9 89.9 501.9 89.65 501.1 86.7 500.45 85.7 499.05 87.5 497.9" fill="#e5d3ad" fill-rule="evenodd" stroke="none"/>
    <path d="M86.35 500.0 L87.25 500.6 89.1 500.85 90.05 501.2 91.35 500.2 89.8 502.15 89.1 501.4 87.25 501.1 86.35 500.0" fill="#f2ede4" fill-rule="evenodd" stroke="none"/>
    <path d="M84.9 456.05 L87.8 455.5 89.55 457.35 89.4 458.5 88.65 460.8 85.3 461.1 85.25 461.1 85.15 461.1 85.15 461.0 84.05 459.65 83.6 458.3 84.9 456.05" fill="#af691c" fill-rule="evenodd" stroke="none"/>
    <path d="M89.4 457.15 L89.3 458.25 88.55 460.5 85.25 460.85 84.05 459.4 83.65 458.0 89.4 457.15" fill="#f77fa4" fill-rule="evenodd" stroke="none"/>
    <path d="M83.65 458.0 L84.9 455.85 87.75 455.35 89.4 457.15 88.5 459.85 85.1 460.2 83.65 458.0" fill="#ffaec3" fill-rule="evenodd" stroke="none"/>
    <path d="M89.4 457.15 L83.65 458.0 84.9 455.85 87.75 455.35 89.4 457.15" fill="#ffccd9" fill-rule="evenodd" stroke="none"/>
    <path d="M85.45 456.45 L87.35 456.05 88.35 457.2 87.65 458.65 85.65 458.85 84.8 457.6 85.45 456.45" fill="#ffe6eb" fill-rule="evenodd" stroke="none"/>
    <path d="M85.7 458.75 L85.45 460.05 88.5 459.85 85.05 460.3 85.7 458.75" fill="#ffffff" fill-rule="evenodd" stroke="none"/>
    <path d="M85.1 460.2 L85.3 460.2 85.3 460.85 85.15 460.75 85.1 460.2" fill="#ffffff" fill-rule="evenodd" stroke="none"/>
    <path d="M83.75 458.15 L84.95 457.55 84.05 458.2 85.1 460.2 83.75 458.15" fill="#ffffff" fill-rule="evenodd" stroke="none"/>
    <path d="M87.25 456.05 L87.75 455.35 87.45 456.2 87.25 456.05" fill="#ffffff" fill-rule="evenodd" stroke="none"/>
    <path d="M88.3 457.3 L89.4 457.15 88.2 457.5 88.3 457.3" fill="#ffffff" fill-rule="evenodd" stroke="none"/>
    <path d="M87.8 458.45 L88.5 459.85 87.5 458.6 87.8 458.45" fill="#ffffff" fill-rule="evenodd" stroke="none"/>
    <path d="M88.5 459.85 L88.55 460.5 88.3 459.85 88.5 459.85" fill="#ffffff" fill-rule="evenodd" stroke="none"/>
    <path d="M87.45 456.2 L88.4 457.3 87.7 458.6 85.65 458.85 84.8 457.6 85.8 458.6 87.5 458.4 88.05 457.3 87.45 456.2" fill="#ffffff" fill-rule="evenodd" stroke="none"/>
    <path d="M85.45 456.45 L84.95 457.85 84.8 457.6 85.45 456.45" fill="#ffffff" fill-rule="evenodd" stroke="none"/>
    <path d="M180.05 486.5 L176.75 488.15 180.05 484.85 183.75 488.45 190.0 487.55 191.95 482.5 198.65 483.35 203.45 480.85 200.5 484.65 193.3 484.35 192.35 489.7 189.8 489.9 191.15 493.3 188.65 496.5 189.2 493.1 187.95 490.2 181.65 490.75 180.05 486.5" fill="#af691c" fill-rule="evenodd" stroke="none"/>
    <path d="M203.15 481.05 L200.95 485.4 193.65 485.6 193.0 491.05 191.15 491.05 192.0 494.1 188.3 496.65 190.8 493.45 189.5 490.05 192.0 489.85 193.0 484.55 200.3 484.55 203.15 481.05" fill="#ffffff" fill-rule="evenodd" stroke="none"/>
    <path d="M181.35 490.9 L187.65 490.4 188.3 492.2 181.35 491.75 179.9 488.15 180.0 487.75 181.35 490.9" fill="#ffffff" fill-rule="evenodd" stroke="none"/>
    <path d="M197.45 482.65 L202.25 482.85 196.6 483.5 197.45 482.65" fill="#ffffff" fill-rule="evenodd" stroke="none"/>
    <path d="M188.6 495.6 L190.25 495.7 189.05 499.95 188.6 495.6" fill="#af691c" fill-rule="evenodd" stroke="none"/>
    <path d="M182.5 475.1 L184.05 477.35" fill="none" stroke="#624729" stroke-linecap="round" stroke-linejoin="round" stroke-width="0.05"/>
    <path d="M182.85 475.3 L191.75 473.6 196.95 479.3 196.6 482.8 194.3 489.75 184.15 490.8 183.9 490.8 183.7 490.65 183.55 490.45 180.35 486.3 178.95 482.15 182.85 475.3" fill="#af691c" fill-rule="evenodd" stroke="none"/>
    <path d="M196.6 478.7 L196.3 482.05 193.95 488.9 183.95 489.95 180.3 485.55 179.05 481.4 196.6 478.7" fill="#d271ab" fill-rule="evenodd" stroke="none"/>
    <path d="M179.05 481.35 L182.85 474.7 191.55 473.15 196.6 478.65 193.85 486.85 183.45 487.95 179.05 481.35" fill="#f0a5d2" fill-rule="evenodd" stroke="none"/>
    <path d="M179.05 481.35 L182.85 474.7 191.55 473.15 196.6 478.65 179.05 481.35" fill="#ffc4e7" fill-rule="evenodd" stroke="none"/>
    <path d="M184.6 476.65 L190.4 475.4 193.4 478.85 191.3 483.25 185.2 483.95 182.55 480.1 184.6 476.65" fill="#fce3f2" fill-rule="evenodd" stroke="none"/>
    <path d="M185.3 483.5 L184.5 487.5 193.85 486.95 183.35 488.3 185.3 483.5" fill="#ffffff" fill-rule="evenodd" stroke="none"/>
    <path d="M183.45 487.95 L184.15 487.95 184.15 489.9 183.55 489.65 183.45 487.95" fill="#ffffff" fill-rule="evenodd" stroke="none"/>
    <path d="M179.4 481.8 L183.0 479.9 180.35 481.9 183.45 487.95 179.4 481.8" fill="#ffffff" fill-rule="evenodd" stroke="none"/>
    <path d="M190.05 475.4 L191.55 473.15 190.6 475.75 190.05 475.4" fill="#ffffff" fill-rule="evenodd" stroke="none"/>
    <path d="M193.25 479.1 L196.6 478.65 192.9 479.75 193.25 479.1" fill="#ffffff" fill-rule="evenodd" stroke="none"/>
    <path d="M191.75 482.6 L193.85 486.85 190.85 483.05 191.75 482.6" fill="#ffffff" fill-rule="evenodd" stroke="none"/>
    <path d="M193.85 486.85 L193.95 488.85 193.15 486.95 193.85 486.85" fill="#ffffff" fill-rule="evenodd" stroke="none"/>
    <path d="M190.6 475.75 L193.5 479.1 191.4 483.15 185.2 483.95 182.55 480.1 185.65 483.15 190.85 482.45 192.45 479.1 190.6 475.75" fill="#ffffff" fill-rule="evenodd" stroke="none"/>
    <path d="M184.6 476.65 L183.0 480.8 182.55 480.1 184.6 476.65" fill="#ffffff" fill-rule="evenodd" stroke="none"/>
    <path d="M183.75 477.2 L182.2 475.0 184.25 476.75 183.75 477.2" fill="#ffffff" fill-rule="evenodd" stroke="none"/>
    <path d="M32.65 467.65 L23.8 468.9 23.15 467.9 20.4 468.65 23.35 467.45 23.8 468.05 32.65 467.65" fill="#ffffff" fill-rule="evenodd" stroke="none"/>
    <path d="M20.4 468.65 L19.45 468.95 22.35 466.8 22.7 466.65 20.8 464.25 14.9 462.5 21.0 462.75 25.15 466.55 33.2 467.6 33.3 467.65 32.65 467.65 23.8 468.05 23.35 467.45 20.4 468.65" fill="#a05b10" fill-rule="evenodd" stroke="none"/>
    <path d="M29.0 464.75 L28.1 466.9 28.1 467.0 28.0 467.1 27.9 467.15 23.35 467.95 21.4 465.2 20.85 463.7 22.4 460.6 26.45 460.25 29.05 462.75 29.0 464.75" fill="#af691c" fill-rule="evenodd" stroke="none"/>
    <path d="M20.9 463.45 L28.9 462.55 28.85 464.5 27.9 466.8 23.35 467.6 21.5 464.9 20.9 463.45" fill="#18a4c4" fill-rule="evenodd" stroke="none"/>
    <path d="M28.9 462.55 L27.9 465.95 23.15 466.7 20.9 463.45 22.4 460.45 26.4 460.1 28.9 462.55" fill="#57c0dd" fill-rule="evenodd" stroke="none"/>
    <path d="M20.9 463.45 L22.4 460.45 26.4 460.1 28.9 462.55 20.9 463.45" fill="#8cd9ea" fill-rule="evenodd" stroke="none"/>
    <path d="M25.9 461.15 L27.2 462.45 26.55 464.35 23.8 464.8 22.4 463.2 23.25 461.3 25.9 461.15" fill="#caf1ff" fill-rule="evenodd" stroke="none"/>
    <path d="M26.45 464.2 L27.9 466.1 23.15 466.75 27.35 465.9 26.45 464.2" fill="#ffffff" fill-rule="evenodd" stroke="none"/>
    <path d="M28.85 462.75 L27.9 465.95 28.4 462.9 27.0 462.35 28.85 462.75" fill="#ffffff" fill-rule="evenodd" stroke="none"/>
    <path d="M25.9 461.15 L26.4 460.1 28.2 461.85 26.5 460.45 25.9 461.15" fill="#ffffff" fill-rule="evenodd" stroke="none"/>
    <path d="M23.35 461.3 L23.15 461.4 22.4 460.45 23.35 461.3" fill="#ffffff" fill-rule="evenodd" stroke="none"/>
    <path d="M22.4 463.25 L22.7 463.5 20.9 463.45 22.4 463.25" fill="#ffffff" fill-rule="evenodd" stroke="none"/>
    <path d="M23.6 464.6 L24.0 464.7 23.15 466.7 23.6 464.6" fill="#ffffff" fill-rule="evenodd" stroke="none"/>
    <path d="M23.15 466.7 L23.5 466.65 23.35 467.6 23.15 466.7" fill="#ffffff" fill-rule="evenodd" stroke="none"/>
    <path d="M26.55 464.35 L23.8 464.8 22.35 463.25 23.15 461.4 22.75 463.15 23.9 464.45 26.3 464.1 27.2 462.45 26.55 464.35" fill="#ffffff" fill-rule="evenodd" stroke="none"/>
    <path d="M25.9 461.15 L27.2 462.45 27.1 462.75 25.9 461.15" fill="#ffffff" fill-rule="evenodd" stroke="none"/>
    <path d="M47.05 478.2 L49.75 476.8 48.1 478.95 44.05 478.75 43.5 481.8 42.05 481.9 42.8 483.8 41.45 485.6 41.7 483.7 41.05 482.05 37.5 482.35 36.55 480.0 34.7 480.9 36.55 479.05 38.65 481.1 42.2 480.55 43.3 477.75 47.05 478.2" fill="#af691c" fill-rule="evenodd" stroke="none"/>
    <path d="M49.85 476.85 L48.65 479.3 44.55 479.45 44.15 482.5 43.1 482.5 43.6 484.2 41.5 485.65 42.95 483.85 42.2 481.95 43.6 481.8 44.15 478.85 48.25 478.85 49.85 476.85" fill="#ffffff" fill-rule="evenodd" stroke="none"/>
    <path d="M37.6 482.4 L41.15 482.1 41.5 483.15 37.6 482.9 36.8 480.85 36.85 480.65 37.6 482.4" fill="#ffffff" fill-rule="evenodd" stroke="none"/>
    <path d="M46.7 477.75 L49.4 477.9 46.2 478.25 46.7 477.75" fill="#ffffff" fill-rule="evenodd" stroke="none"/>
    <path d="M41.75 485.25 L42.65 485.3 42.0 487.7 41.75 485.25" fill="#af691c" fill-rule="evenodd" stroke="none"/>
    <path d="M45.65 471.3 L48.45 475.9 47.7 478.25 45.05 482.7 38.0 481.95 38.0 482.0 37.95 481.95 37.8 481.95 37.75 481.85 37.6 481.75 37.65 481.55 36.0 478.35 35.7 475.35 39.35 471.2 45.65 471.3" fill="#af691c" fill-rule="evenodd" stroke="none"/>
    <path d="M48.35 475.6 L47.65 477.9 45.1 482.2 38.05 481.45 36.3 478.0 35.95 475.0 48.35 475.6" fill="#aebc2a" fill-rule="evenodd" stroke="none"/>
    <path d="M35.95 475.0 L39.5 471.0 45.7 471.15 48.35 475.6 45.3 480.8 38.0 480.1 35.95 475.0" fill="#cddd31" fill-rule="evenodd" stroke="none"/>
    <path d="M48.35 475.6 L35.95 475.0 39.5 471.0 45.7 471.15 48.35 475.6" fill="#efff92" fill-rule="evenodd" stroke="none"/>
    <path d="M40.45 472.6 L44.55 472.55 46.1 475.3 44.0 477.95 39.85 477.6 38.55 474.65 40.45 472.6" fill="#dcf451" fill-rule="evenodd" stroke="none"/>
    <path d="M39.9 477.3 L38.75 479.95 45.3 480.85 37.85 480.4 39.9 477.3" fill="#ffffff" fill-rule="evenodd" stroke="none"/>
    <path d="M36.1 475.3 L38.9 474.5 36.75 475.55 38.0 480.1 36.1 475.3" fill="#ffffff" fill-rule="evenodd" stroke="none"/>
    <path d="M40.45 472.6 L39.4 471.55 36.95 473.95 39.5 471.0 40.45 472.6" fill="#ffffff" fill-rule="evenodd" stroke="none"/>
    <path d="M44.35 472.5 L45.7 471.15 44.65 472.75 44.35 472.5" fill="#ffffff" fill-rule="evenodd" stroke="none"/>
    <path d="M44.45 477.6 L45.3 480.8 43.8 477.75 44.45 477.6" fill="#ffffff" fill-rule="evenodd" stroke="none"/>
    <path d="M44.65 472.75 L46.15 475.45 44.15 477.95 39.85 477.6 38.55 474.65 40.2 477.15 43.85 477.4 45.5 475.3 44.65 472.75" fill="#ffffff" fill-rule="evenodd" stroke="none"/>
    <path d="M673.0 467.4 L672.5 467.05 672.5 467.75 672.8 467.5 673.0 467.4 M671.15 458.5 L678.65 457.75 689.4 462.1 695.05 468.95 695.05 469.05 695.4 469.4 695.15 469.7 Q695.85 475.2 695.55 483.6 695.25 489.35 694.65 491.95 695.3 492.45 695.85 493.65 697.2 496.35 697.2 498.9 L696.9 500.4 697.05 501.7 Q697.3 505.5 696.6 507.0 694.2 507.85 693.4 507.7 L693.25 507.7 693.15 507.7 Q692.0 508.55 691.55 508.25 L691.05 509.05 Q677.45 510.4 669.65 508.9 664.3 508.0 660.55 505.35 L657.85 502.75 658.05 500.9 656.75 501.45 656.7 501.6 650.55 501.6 650.4 501.4 Q650.3 501.8 649.8 501.6 648.65 501.1 648.25 500.1 L647.0 498.9 Q645.9 498.05 645.9 497.65 645.9 496.85 646.25 495.05 646.65 492.95 647.05 492.4 647.45 491.9 647.65 490.5 L647.75 489.25 Q647.75 488.95 647.9 488.8 L647.85 488.75 650.95 486.7 654.45 486.7 658.2 488.25 Q658.95 488.15 659.55 489.15 L661.6 473.2 661.65 473.2 671.15 458.5 M655.75 493.75 L655.75 493.35 655.5 493.65 655.75 493.75 M653.8 492.9 L653.9 493.1 654.05 493.15 653.8 492.9 M650.55 491.5 L651.5 491.65 650.4 491.4 650.55 491.5" fill="#d29d38" fill-rule="evenodd" stroke="none"/>
    <path d="M671.15 458.5 L661.65 473.2 661.6 473.2 659.55 489.15 Q658.95 488.15 658.2 488.25 L654.45 486.7 650.95 486.7 647.85 488.75 647.9 488.8 Q647.75 488.95 647.75 489.25 L647.65 490.5 Q647.45 491.9 647.05 492.4 646.65 492.95 646.25 495.05 645.9 496.85 645.9 497.65 645.9 498.05 647.0 498.9 L648.25 500.1 Q648.65 501.1 649.8 501.6 650.3 501.8 650.4 501.4 L650.55 501.6 656.7 501.6 656.75 501.45 658.05 500.9 657.85 502.75 660.55 505.35 Q664.3 508.0 669.65 508.9 677.45 510.4 691.05 509.05 L691.55 508.25 Q692.0 508.55 693.15 507.7 L693.25 507.7 693.4 507.7 Q694.2 507.85 696.6 507.0 697.3 505.5 697.05 501.7 L696.9 500.4 697.2 498.9 Q697.2 496.35 695.85 493.65 695.3 492.45 694.65 491.95 695.25 489.35 695.55 483.6 695.85 475.2 695.15 469.7 L695.4 469.4 695.05 469.05 695.05 468.95 689.4 462.1 678.65 457.75 671.15 458.5 Z" fill="none" stroke="#834f0f" stroke-linecap="round" stroke-linejoin="round" stroke-width="3.5"/>
    <path d="M653.65 492.85 L657.1 494.15 655.2 496.8 656.85 501.05 656.8 501.45 650.65 501.45 653.65 492.85" fill="#a27f46" fill-rule="evenodd" stroke="none"/>
    <path d="M660.4 493.1 L660.65 495.65 Q660.9 498.5 660.4 499.65 658.95 500.4 658.45 500.2 657.95 500.15 657.85 498.9 L656.45 495.85 Q655.35 493.4 656.2 491.0 656.85 490.5 658.7 491.75 L660.4 493.1" fill="#c6a473" fill-rule="evenodd" stroke="none"/>
    <path d="M650.0 491.75 L653.9 492.75 654.15 493.5 Q654.3 494.6 653.65 496.25 652.55 498.8 653.3 499.8 L651.95 500.8 650.65 501.45 649.55 499.8 650.0 491.75" fill="#e0c48f" fill-rule="evenodd" stroke="none"/>
    <path d="M655.85 501.05 L655.45 500.65 654.3 499.8 Q653.4 499.3 653.55 498.15 L653.9 497.0 654.55 496.25 655.6 495.25 Q656.05 495.1 656.55 495.25 L656.85 495.4 658.45 500.55 Q656.85 501.8 655.85 501.05" fill="#84612e" fill-rule="evenodd" stroke="none"/>
    <path d="M659.1 499.3 L658.1 500.4 Q657.35 500.95 657.1 500.4 655.45 497.05 655.6 496.55 L656.6 495.25 657.1 495.65 657.75 496.55 Q658.2 497.4 659.45 498.15 659.85 498.65 659.1 499.3" fill="#e5d3ad" fill-rule="evenodd" stroke="none"/>
    <path d="M647.85 489.1 Q647.9 487.7 649.3 489.85 L650.65 492.25 650.15 495.1 Q649.75 498.05 650.15 499.4 651.0 501.95 649.9 501.45 648.75 500.95 648.3 499.95 L647.1 498.75 Q646.0 497.9 646.0 497.5 646.0 496.75 646.35 494.9 646.75 492.85 647.15 492.25 647.6 491.75 647.75 490.35 L647.85 489.1" fill="#c6a473" fill-rule="evenodd" stroke="none"/>
    <path d="M660.0 489.8 Q660.85 491.7 660.85 493.6 660.85 494.85 660.25 495.15 659.7 495.6 659.35 494.9 L657.95 493.75 656.85 493.0 Q656.05 492.45 656.1 491.0 656.2 489.45 657.6 488.35 659.0 487.35 660.0 489.8" fill="#d9bc88" fill-rule="evenodd" stroke="none"/>
    <path d="M651.05 486.55 L654.55 486.55 659.1 488.45 656.95 491.85 655.35 493.65 654.85 492.2 649.75 491.1 647.9 488.6 651.05 486.55" fill="#e5d3ad" fill-rule="evenodd" stroke="none"/>
    <path d="M649.05 490.25 L650.65 491.35 653.9 491.75 655.6 492.45 657.85 490.6 655.1 494.1 653.9 492.75 650.65 492.25 649.05 490.25" fill="#f2ede4" fill-rule="evenodd" stroke="none"/>
    <path d="M692.5 467.45 L694.15 474.8 Q695.5 483.3 694.75 489.45 692.05 509.05 691.15 508.75 677.55 510.1 669.8 508.6 664.4 507.7 660.65 505.0 L657.95 502.45 661.7 472.85 692.5 467.45" fill="#936b34" fill-rule="evenodd" stroke="none"/>
    <path d="M672.2 463.95 L672.2 469.6 671.5 473.95 Q670.55 478.9 669.5 482.2 668.3 485.45 666.4 484.15 665.2 483.25 664.3 481.45 L661.35 473.25 670.9 458.6 672.2 463.95" fill="#c6a473" fill-rule="evenodd" stroke="none"/>
    <path d="M671.3 458.2 L678.75 457.45 689.5 461.75 695.5 469.1 687.15 478.95 Q685.65 480.6 685.05 478.95 L681.15 470.0 677.85 469.25 671.3 464.15 671.3 458.2" fill="#e5d3ad" fill-rule="evenodd" stroke="none"/>
    <path d="M676.65 471.2 L680.85 470.75 679.65 477.2 668.75 484.95 672.0 508.15 667.55 483.45 674.55 474.8 676.65 471.2" fill="#c6a473" fill-rule="evenodd" stroke="none"/>
    <path d="M671.85 468.5 Q672.3 467.6 672.9 467.15 L673.35 466.85 678.15 470.75 676.65 477.8 670.55 483.6 671.7 489.75 668.6 491.1 667.4 485.1 671.85 468.5" fill="#e0c48f" fill-rule="evenodd" stroke="none"/>
    <path d="M685.65 476.6 L682.65 475.4 Q682.5 472.85 683.85 473.45 684.9 473.75 686.25 475.55 L690.7 472.1 Q695.2 468.5 695.2 468.65 695.95 474.35 695.65 483.3 695.2 492.75 693.85 493.65 L684.6 502.3 Q677.1 509.65 677.7 508.45 678.0 508.0 676.95 496.05 L684.15 489.15 685.65 476.6" fill="#ad9065" fill-rule="evenodd" stroke="none"/>
    <path d="M671.3 461.0 L671.3 464.15 677.85 469.25 680.85 469.4 Q681.15 469.4 682.65 472.7 683.4 473.45 685.2 474.5 686.7 475.55 686.85 477.05 684.15 476.15 682.05 473.9 681.3 470.75 680.85 470.75 L678.0 470.75 670.85 465.35 671.3 461.0" fill="#fdfcfb" fill-rule="evenodd" stroke="none"/>
    <path d="M682.05 473.9 L686.85 476.9 684.45 488.25 678.15 484.35 682.05 473.9" fill="#c6a473" fill-rule="evenodd" stroke="none"/>
    <path d="M696.7 497.8 L697.15 501.4 Q697.45 505.15 696.7 506.65 L693.55 507.4 Q692.8 507.25 692.65 505.6 L690.55 501.55 Q688.95 498.4 690.1 495.15 691.15 494.55 694.0 496.05 L696.7 497.8" fill="#c6a473" fill-rule="evenodd" stroke="none"/>
    <path d="M690.5 501.2 L691.25 501.65 692.3 502.95 694.8 504.95 Q695.1 505.4 694.2 506.6 L692.85 507.8 Q691.45 508.8 691.1 508.05 688.65 503.3 688.85 502.95 L690.5 501.2" fill="#e5d3ad" fill-rule="evenodd" stroke="none"/>
    <path d="M691.15 497.8 Q689.8 497.05 689.95 495.15 690.1 493.05 692.35 491.55 694.45 490.2 695.95 493.35 697.3 496.05 697.3 498.55 697.3 500.2 696.4 500.65 695.5 501.1 694.9 500.35 694.6 499.75 692.8 498.7 L691.15 497.8" fill="#d9bc88" fill-rule="evenodd" stroke="none"/>
    <path d="M492.45 464.55 L491.85 464.9 491.3 464.75 491.1 464.15 Q491.1 463.75 491.5 463.6 L492.35 463.65 492.45 463.7 492.5 464.15 492.45 464.55" fill="#c4ba9b" fill-rule="evenodd" stroke="none"/>
  </g>
</svg>
