<?xml version="1.0" encoding="UTF-8" standalone="no"?>
<svg xmlns:xlink="http://www.w3.org/1999/xlink" height="59.6px" width="49.9px" xmlns="http://www.w3.org/2000/svg">
  <g transform="matrix(1.0, 0.0, 0.0, 1.0, 7.5, 3.3)">
    <path d="M37.25 10.4 L34.65 16.15 Q40.4 22.55 40.4 31.3 40.4 40.8 33.6 47.5 26.95 54.3 17.45 54.3 7.95 54.3 1.15 47.5 -5.5 40.8 -5.5 31.3 -5.5 21.8 1.15 15.1 7.95 8.35 17.45 8.35 L19.8 8.45 21.85 3.95 21.95 3.25 Q22.5 2.2 25.05 2.5 27.05 2.65 29.4 3.55 32.45 0.25 36.55 -1.3 L38.65 2.75 Q35.5 3.85 33.5 5.6 34.8 6.4 35.75 7.3 37.65 9.05 37.15 10.2 L37.0 10.4 37.25 10.4" fill="url(#gradient0)" fill-rule="evenodd" stroke="none"/>
    <path d="M37.25 10.4 L34.65 16.15 Q40.4 22.55 40.4 31.3 40.4 40.8 33.6 47.5 26.95 54.3 17.45 54.3 7.95 54.3 1.15 47.5 -5.5 40.8 -5.5 31.3 -5.5 21.8 1.15 15.1 7.95 8.35 17.45 8.35 L19.8 8.45 21.85 3.95 21.95 3.25 Q22.5 2.2 25.05 2.5 27.05 2.65 29.4 3.55 32.45 0.25 36.55 -1.3 L38.65 2.75 Q35.5 3.85 33.5 5.6 34.8 6.4 35.75 7.3 37.65 9.05 37.15 10.2 L37.0 10.4 37.25 10.4 Z" fill="none" stroke="#463022" stroke-linecap="round" stroke-linejoin="round" stroke-width="4.0"/>
    <path d="M17.45 8.35 Q26.95 8.35 33.6 15.1 40.4 21.8 40.4 31.3 40.4 40.8 33.6 47.5 26.95 54.3 17.45 54.3 7.95 54.3 1.15 47.5 -5.5 40.8 -5.5 31.3 -5.5 21.8 1.15 15.1 7.95 8.35 17.45 8.35" fill="url(#gradient1)" fill-rule="evenodd" stroke="none"/>
    <path d="M18.9 47.4 Q11.05 47.4 5.35 41.8 -0.2 36.2 -0.2 28.3 -0.2 20.4 5.35 14.75 11.05 9.15 18.9 9.15 26.85 9.15 32.4 14.75 37.95 20.4 37.95 28.3 37.95 36.2 32.4 41.8 26.85 47.4 18.9 47.4" fill="url(#gradient2)" fill-rule="evenodd" stroke="none"/>
    <path d="M6.9 17.5 Q9.1 12.25 14.85 10.25 20.7 8.3 26.7 10.85 32.65 13.3 35.4 18.75 38.05 24.2 35.85 29.5 33.7 34.7 27.95 36.7 22.15 38.65 16.15 36.2 10.15 33.65 7.4 28.2 4.75 22.7 6.9 17.5" fill="url(#gradient3)" fill-rule="evenodd" stroke="none"/>
    <path d="M37.25 10.4 L32.9 20.0 Q29.25 22.4 23.9 20.3 18.3 18.0 17.7 13.2 L22.0 3.6 Q27.65 10.6 37.25 10.4" fill="url(#gradient4)" fill-rule="evenodd" stroke="none"/>
    <path d="M28.35 9.35 Q25.25 7.95 23.3 6.2 21.45 4.4 21.95 3.25 22.5 2.2 25.05 2.5 27.65 2.7 30.8 4.1 33.85 5.5 35.75 7.3 37.65 9.05 37.15 10.2 36.6 11.25 34.05 11.05 31.5 10.75 28.35 9.35" fill="url(#gradient5)" fill-rule="evenodd" stroke="none"/>
    <path d="M29.05 7.75 Q27.05 6.85 25.85 5.8 24.6 4.75 24.85 4.2 25.05 3.65 26.7 3.85 28.3 4.1 30.3 5.0 32.3 5.9 33.55 6.95 34.75 8.0 34.5 8.55 34.3 9.1 32.65 8.9 31.05 8.6 29.05 7.75" fill="url(#gradient6)" fill-rule="evenodd" stroke="none"/>
    <path d="M27.4 7.15 L26.9 6.8 Q30.6 0.95 36.55 -1.3 L38.0 1.65 Q32.05 2.85 27.4 7.15" fill="url(#gradient7)" fill-rule="evenodd" stroke="none"/>
    <path d="M38.0 1.65 L38.65 2.75 Q33.05 4.7 31.05 8.8 29.0 8.2 27.4 7.15 32.05 2.85 38.0 1.65" fill="url(#gradient8)" fill-rule="evenodd" stroke="none"/>
  </g>
  <defs>
    <linearGradient gradientTransform="matrix(-0.0071, 0.0031, -0.004, -0.0078, 33.7, 4.45)" gradientUnits="userSpaceOnUse" id="gradient0" spreadMethod="pad" x1="-819.2" x2="819.2">
      <stop offset="0.0" stop-color="#f3b77f"/>
      <stop offset="1.0" stop-color="#d4863a"/>
    </linearGradient>
    <linearGradient gradientTransform="matrix(0.0049, -0.0276, 0.0276, 0.0049, 17.4, 31.3)" gradientUnits="userSpaceOnUse" id="gradient1" spreadMethod="pad" x1="-819.2" x2="819.2">
      <stop offset="0.0" stop-color="#272727"/>
      <stop offset="1.0" stop-color="#696969"/>
    </linearGradient>
    <linearGradient gradientTransform="matrix(0.0041, -0.0229, 0.023, 0.0041, 18.85, 28.3)" gradientUnits="userSpaceOnUse" id="gradient2" spreadMethod="pad" x1="-819.2" x2="819.2">
      <stop offset="0.0" stop-color="#3c3c3c"/>
      <stop offset="1.0" stop-color="#858585"/>
    </linearGradient>
    <linearGradient gradientTransform="matrix(0.008, -0.0206, 0.0181, 0.0061, 22.1, 17.75)" gradientUnits="userSpaceOnUse" id="gradient3" spreadMethod="pad" x1="-819.2" x2="819.2">
      <stop offset="0.0" stop-color="#5b5b5b"/>
      <stop offset="1.0" stop-color="#a6a6a6"/>
    </linearGradient>
    <linearGradient gradientTransform="matrix(-0.0118, -0.0012, 6.0E-4, -0.0063, 25.65, 12.4)" gradientUnits="userSpaceOnUse" id="gradient4" spreadMethod="pad" x1="-819.2" x2="819.2">
      <stop offset="0.0" stop-color="#2c2c2c"/>
      <stop offset="1.0" stop-color="#5f5f5f"/>
    </linearGradient>
    <linearGradient gradientTransform="matrix(0.0057, -0.0047, 0.0023, 0.0027, 28.5, 6.15)" gradientUnits="userSpaceOnUse" id="gradient5" spreadMethod="pad" x1="-819.2" x2="819.2">
      <stop offset="0.0" stop-color="#5d5d5d"/>
      <stop offset="1.0" stop-color="#8a8a8a"/>
    </linearGradient>
    <linearGradient gradientTransform="matrix(0.0033, -0.0023, 0.0015, 0.0016, 29.0, 6.05)" gradientUnits="userSpaceOnUse" id="gradient6" spreadMethod="pad" x1="-819.2" x2="819.2">
      <stop offset="0.0" stop-color="#1e1e1e"/>
      <stop offset="1.0" stop-color="#3a3a3a"/>
    </linearGradient>
    <linearGradient gradientTransform="matrix(-0.0071, 0.0031, -0.004, -0.0078, 33.7, 4.45)" gradientUnits="userSpaceOnUse" id="gradient7" spreadMethod="pad" x1="-819.2" x2="819.2">
      <stop offset="0.0" stop-color="#f3b77f"/>
      <stop offset="1.0" stop-color="#d4863a"/>
    </linearGradient>
    <linearGradient gradientTransform="matrix(-0.0071, 0.0031, -0.004, -0.0078, 33.7, 4.45)" gradientUnits="userSpaceOnUse" id="gradient8" spreadMethod="pad" x1="-819.2" x2="819.2">
      <stop offset="0.0" stop-color="#d79c64"/>
      <stop offset="1.0" stop-color="#c4772d"/>
    </linearGradient>
  </defs>
</svg>
