<?xml version="1.0" encoding="UTF-8" standalone="no"?>
<svg xmlns:xlink="http://www.w3.org/1999/xlink" height="62.95px" width="230.0px" xmlns="http://www.w3.org/2000/svg">
  <g transform="matrix(1.0, 0.0, 0.0, 1.0, 5.0, 5.0)">
    <path d="M40.5 11.15 L40.7 11.15 38.25 16.6 Q43.7 22.7 43.7 31.05 43.7 40.1 37.25 46.5 30.9 52.95 21.85 52.95 12.8 52.95 6.35 46.5 0.0 40.1 0.0 31.05 0.0 22.0 6.35 15.6 12.8 9.2 21.85 9.2 L24.1 9.3 26.05 5.0 26.15 4.35 Q26.65 3.35 29.1 3.6 31.0 3.75 33.25 4.6 36.15 1.5 40.05 0.0 L42.05 3.85 Q39.05 4.9 37.15 6.55 L39.3 8.2 Q41.1 9.85 40.6 10.95 L40.5 11.15" fill="url(#gradient0)" fill-rule="evenodd" stroke="none"/>
    <path d="M40.5 11.15 L40.7 11.15 38.25 16.6 Q43.7 22.7 43.7 31.05 43.7 40.1 37.25 46.5 30.9 52.95 21.85 52.95 12.8 52.95 6.35 46.5 0.0 40.1 0.0 31.05 0.0 22.0 6.35 15.6 12.8 9.2 21.85 9.2 L24.1 9.3 26.05 5.0 26.15 4.35 Q26.65 3.35 29.1 3.6 31.0 3.75 33.25 4.6 36.15 1.5 40.05 0.0 L42.05 3.85 Q39.05 4.9 37.15 6.55 L39.3 8.2 Q41.1 9.85 40.6 10.95 L40.5 11.15 Z" fill="none" stroke="#ffffff" stroke-linecap="round" stroke-linejoin="round" stroke-width="10.0"/>
    <path d="M199.3 7.65 Q207.9 7.65 213.95 13.75 220.0 19.8 220.0 28.35 220.0 36.95 213.95 43.0 207.9 49.05 199.3 49.05 L40.0 49.05 Q31.4 49.05 25.35 43.0 19.3 36.95 19.3 28.35 19.3 19.8 25.35 13.75 31.4 7.65 40.0 7.65 L199.3 7.65" fill="url(#gradient1)" fill-rule="evenodd" stroke="none"/>
    <path d="M199.3 7.65 L40.0 7.65 Q31.4 7.65 25.35 13.75 19.3 19.8 19.3 28.35 19.3 36.95 25.35 43.0 31.4 49.05 40.0 49.05 L199.3 49.05 Q207.9 49.05 213.95 43.0 220.0 36.95 220.0 28.35 220.0 19.8 213.95 13.75 207.9 7.65 199.3 7.65 Z" fill="none" stroke="#ffffff" stroke-linecap="round" stroke-linejoin="round" stroke-width="10.0"/>
    <path d="M199.3 7.65 Q207.9 7.65 213.95 13.75 220.0 19.8 220.0 28.35 220.0 36.95 213.95 43.0 207.9 49.05 199.3 49.05 L40.0 49.05 Q31.4 49.05 25.35 43.0 19.3 36.95 19.3 28.35 19.3 19.8 25.35 13.75 31.4 7.65 40.0 7.65 L199.3 7.65" fill="url(#gradient2)" fill-rule="evenodd" stroke="none"/>
    <path d="M199.3 7.65 L40.0 7.65 Q31.4 7.65 25.35 13.75 19.3 19.8 19.3 28.35 19.3 36.95 25.35 43.0 31.4 49.05 40.0 49.05 L199.3 49.05 Q207.9 49.05 213.95 43.0 220.0 36.95 220.0 28.35 220.0 19.8 213.95 13.75 207.9 7.65 199.3 7.65 Z" fill="none" stroke="#b14d00" stroke-linecap="round" stroke-linejoin="round" stroke-width="4.0"/>
    <path d="M220.0 28.35 Q220.0 36.95 213.95 43.0 207.9 49.05 199.3 49.05 L40.0 49.05 Q31.4 49.05 25.35 43.0 19.3 36.95 19.3 28.35 19.3 19.8 25.35 13.75 31.4 7.65 40.0 7.65 L199.3 7.65 Q207.9 7.65 213.95 13.75 220.0 19.8 220.0 28.35" fill="url(#gradient3)" fill-rule="evenodd" stroke="none"/>
    <path d="M220.0 28.35 Q220.0 36.95 213.95 43.0 207.9 49.05 199.3 49.05 L40.0 49.05 Q31.4 49.05 25.35 43.0 19.3 36.95 19.3 28.35 19.3 19.8 25.35 13.75 31.4 7.65 40.0 7.65 L199.3 7.65 Q207.9 7.65 213.95 13.75 220.0 19.8 220.0 28.35" fill="url(#gradient4)" fill-rule="evenodd" stroke="none"/>
    <path d="M209.25 14.75 L209.25 14.85 Q209.25 17.3 207.5 19.05 205.75 20.8 203.3 20.8 L37.7 20.8 Q35.25 20.8 33.5 19.05 31.75 17.3 31.75 14.85 L31.75 14.75 Q31.75 12.3 33.5 10.55 35.25 8.8 37.7 8.8 L203.3 8.8 Q205.75 8.8 207.5 10.55 209.25 12.3 209.25 14.75" fill="url(#gradient5)" fill-rule="evenodd" stroke="none"/>
  </g>
  <defs>
    <linearGradient gradientTransform="matrix(-0.0068, 0.003, -0.0038, -0.0074, 37.35, 5.5)" gradientUnits="userSpaceOnUse" id="gradient0" spreadMethod="pad" x1="-819.2" x2="819.2">
      <stop offset="0.0" stop-color="#f3b77f"/>
      <stop offset="1.0" stop-color="#d4863a"/>
    </linearGradient>
    <linearGradient gradientTransform="matrix(2.0E-4, -0.0246, 0.0253, 2.0E-4, 119.75, 28.35)" gradientUnits="userSpaceOnUse" id="gradient1" spreadMethod="pad" x1="-819.2" x2="819.2">
      <stop offset="0.0" stop-color="#ffc85f"/>
      <stop offset="1.0" stop-color="#ff9900"/>
    </linearGradient>
    <linearGradient gradientTransform="matrix(2.0E-4, -0.0246, 0.0253, 2.0E-4, 119.75, 28.35)" gradientUnits="userSpaceOnUse" id="gradient2" spreadMethod="pad" x1="-819.2" x2="819.2">
      <stop offset="0.0" stop-color="#ffc85f"/>
      <stop offset="1.0" stop-color="#ff9900"/>
    </linearGradient>
    <linearGradient gradientTransform="matrix(0.0, 0.0259, -0.0253, 0.0, 119.3, 29.2)" gradientUnits="userSpaceOnUse" id="gradient3" spreadMethod="pad" x1="-819.2" x2="819.2">
      <stop offset="0.0" stop-color="#ffa110"/>
      <stop offset="1.0" stop-color="#ffd995"/>
    </linearGradient>
    <linearGradient gradientTransform="matrix(0.0, 0.0259, -0.0253, 0.0, 119.3, 29.2)" gradientUnits="userSpaceOnUse" id="gradient4" spreadMethod="pad" x1="-819.2" x2="819.2">
      <stop offset="0.00392156862745098" stop-color="#ec4727"/>
      <stop offset="1.0" stop-color="#f7a72d"/>
    </linearGradient>
    <linearGradient gradientTransform="matrix(0.0, 0.0083, -0.0114, 0.0, 104.3, 12.85)" gradientUnits="userSpaceOnUse" id="gradient5" spreadMethod="pad" x1="-819.2" x2="819.2">
      <stop offset="0.0" stop-color="#ffffff"/>
      <stop offset="1.0" stop-color="#ffffff" stop-opacity="0.0"/>
    </linearGradient>
  </defs>
</svg>
