<?xml version="1.0" encoding="UTF-8" standalone="no"?>
<svg xmlns:xlink="http://www.w3.org/1999/xlink" height="62.7px" width="233.25px" xmlns="http://www.w3.org/2000/svg">
  <g transform="matrix(1.0, 0.0, 0.0, 1.0, 5.0, 5.0)">
    <path d="M45.4 17.15 L50.0 15.2 Q51.8 19.6 51.8 24.75 L51.7 24.75 51.8 26.8 47.55 26.8 47.55 26.85 Q47.55 29.85 46.9 32.55 L46.8 32.95 50.0 34.25 49.95 34.4 49.95 36.65 Q48.75 39.6 46.8 42.2 L45.8 43.5 44.25 45.1 41.3 42.1 41.2 42.15 41.15 42.2 40.95 42.45 Q38.55 44.75 35.95 46.2 L36.55 47.75 36.5 47.8 35.9 50.55 35.95 50.75 Q32.45 52.25 28.5 52.6 L27.35 52.7 26.0 52.7 25.95 52.7 25.95 48.6 25.85 48.6 25.8 48.6 Q21.55 48.6 17.75 47.15 L17.5 47.8 16.05 50.8 Q11.5 48.95 7.7 45.2 L7.65 45.15 7.9 44.95 9.5 42.35 10.0 41.9 Q8.7 40.55 7.8 39.0 6.55 37.1 5.85 35.3 L5.8 35.25 5.75 35.15 2.05 36.75 1.95 36.75 Q0.0 32.2 0.0 26.9 L0.0 26.8 0.1 26.8 2.15 24.75 4.3 24.75 Q4.3 24.0 4.45 23.25 4.8 21.1 5.65 19.0 L5.8 18.55 5.85 18.45 5.8 18.45 1.9 16.85 1.95 16.75 2.6 15.35 3.0 14.6 Q4.75 11.4 7.5 8.55 L7.6 8.45 7.65 8.45 9.3 7.35 9.45 7.2 9.5 7.2 12.2 9.95 Q14.65 7.95 17.4 6.85 L17.7 6.75 16.25 3.3 17.5 1.75 Q21.9 0.0 27.0 0.0 L27.0 4.9 Q31.0 4.9 34.4 6.35 L34.6 6.4 36.5 1.75 Q40.9 3.6 44.55 7.2 L44.55 7.25 44.5 7.35 43.85 9.95 42.0 11.75 Q44.2 14.25 45.4 17.15 M28.35 21.35 Q27.0 20.8 25.5 20.8 23.95 20.8 22.6 21.35 21.3 21.9 20.25 23.0 L20.2 23.0 19.7 23.55 19.6 24.75 19.85 26.8 20.15 27.65 20.85 28.95 21.7 30.05 Q22.85 31.2 24.15 31.7 25.5 32.25 27.0 32.25 L27.45 32.25 29.95 31.65 Q31.2 31.15 32.25 30.05 L32.85 29.5 32.9 28.25 Q32.9 26.7 32.4 25.35 L32.3 25.1 Q31.75 23.95 30.75 23.0 29.6 21.9 28.35 21.35" fill="#b1c4cb" fill-rule="evenodd" stroke="none"/>
    <path d="M45.4 17.15 L50.0 15.2 Q51.8 19.6 51.8 24.75 L51.7 24.75 51.8 26.8 47.55 26.8 47.55 26.85 Q47.55 29.85 46.9 32.55 L46.8 32.95 50.0 34.25 49.95 34.4 49.95 36.65 Q48.75 39.6 46.8 42.2 L45.8 43.5 44.25 45.1 41.3 42.1 41.2 42.15 41.15 42.2 40.95 42.45 Q38.55 44.75 35.95 46.2 L36.55 47.75 36.5 47.8 35.9 50.55 35.95 50.75 Q32.45 52.25 28.5 52.6 L27.35 52.7 26.0 52.7 25.95 52.7 25.95 48.6 25.85 48.6 25.8 48.6 Q21.55 48.6 17.75 47.15 L17.5 47.8 16.05 50.8 Q11.5 48.95 7.7 45.2 L7.65 45.15 7.9 44.95 9.5 42.35 10.0 41.9 Q8.7 40.55 7.8 39.0 6.55 37.1 5.85 35.3 L5.8 35.25 5.75 35.15 2.05 36.75 1.95 36.75 Q0.0 32.2 0.0 26.9 L0.0 26.8 0.1 26.8 2.15 24.75 4.3 24.75 Q4.3 24.0 4.45 23.25 4.8 21.1 5.65 19.0 L5.8 18.55 5.85 18.45 5.8 18.45 1.9 16.85 1.95 16.75 2.6 15.35 3.0 14.6 Q4.75 11.4 7.5 8.55 L7.6 8.45 7.65 8.45 9.3 7.35 9.45 7.2 9.5 7.2 12.2 9.95 Q14.65 7.95 17.4 6.85 L17.7 6.75 16.25 3.3 17.5 1.75 Q21.9 0.0 27.0 0.0 L27.0 4.9 Q31.0 4.9 34.4 6.35 L34.6 6.4 36.5 1.75 Q40.9 3.6 44.55 7.2 L44.55 7.25 44.5 7.35 43.85 9.95 42.0 11.75 Q44.2 14.25 45.4 17.15 M28.35 21.35 Q29.6 21.9 30.75 23.0 31.75 23.95 32.3 25.1 L32.4 25.35 Q32.9 26.7 32.9 28.25 L32.85 29.5 32.25 30.05 Q31.2 31.15 29.95 31.65 L27.45 32.25 27.0 32.25 Q25.5 32.25 24.15 31.7 22.85 31.2 21.7 30.05 L20.85 28.95 20.15 27.65 19.85 26.8 19.6 24.75 19.7 23.55 20.2 23.0 20.25 23.0 Q21.3 21.9 22.6 21.35 23.95 20.8 25.5 20.8 27.0 20.8 28.35 21.35" fill="none" stroke="#ffffff" stroke-linecap="round" stroke-linejoin="round" stroke-width="10.0"/>
    <path d="M202.55 6.95 Q211.15 6.95 217.2 13.05 223.25 19.1 223.25 27.65 223.25 36.25 217.2 42.3 211.15 48.35 202.55 48.35 L43.25 48.35 Q34.65 48.35 28.6 42.3 22.55 36.25 22.55 27.65 22.55 19.1 28.6 13.05 34.65 6.95 43.25 6.95 L202.55 6.95" fill="url(#gradient0)" fill-rule="evenodd" stroke="none"/>
    <path d="M202.55 6.95 L43.25 6.95 Q34.65 6.95 28.6 13.05 22.55 19.1 22.55 27.65 22.55 36.25 28.6 42.3 34.65 48.35 43.25 48.35 L202.55 48.35 Q211.15 48.35 217.2 42.3 223.25 36.25 223.25 27.65 223.25 19.1 217.2 13.05 211.15 6.95 202.55 6.95 Z" fill="none" stroke="#ffffff" stroke-linecap="round" stroke-linejoin="round" stroke-width="10.0"/>
    <path d="M202.55 6.95 Q211.15 6.95 217.2 13.05 223.25 19.1 223.25 27.65 223.25 36.25 217.2 42.3 211.15 48.35 202.55 48.35 L43.25 48.35 Q34.65 48.35 28.6 42.3 22.55 36.25 22.55 27.65 22.55 19.1 28.6 13.05 34.65 6.95 43.25 6.95 L202.55 6.95" fill="url(#gradient1)" fill-rule="evenodd" stroke="none"/>
    <path d="M202.55 6.95 L43.25 6.95 Q34.65 6.95 28.6 13.05 22.55 19.1 22.55 27.65 22.55 36.25 28.6 42.3 34.65 48.35 43.25 48.35 L202.55 48.35 Q211.15 48.35 217.2 42.3 223.25 36.25 223.25 27.65 223.25 19.1 217.2 13.05 211.15 6.95 202.55 6.95 Z" fill="none" stroke="#b14d00" stroke-linecap="round" stroke-linejoin="round" stroke-width="4.0"/>
    <path d="M202.55 6.95 Q211.15 6.95 217.2 13.05 223.25 19.1 223.25 27.65 223.25 36.25 217.2 42.3 211.15 48.35 202.55 48.35 L43.25 48.35 Q34.65 48.35 28.6 42.3 22.55 36.25 22.55 27.65 22.55 19.1 28.6 13.05 34.65 6.95 43.25 6.95 L202.55 6.95" fill="url(#gradient2)" fill-rule="evenodd" stroke="none"/>
    <path d="M223.15 27.65 Q223.15 36.25 217.1 42.3 211.05 48.35 202.45 48.35 L43.15 48.35 Q34.55 48.35 28.5 42.3 22.45 36.25 22.45 27.65 22.45 19.1 28.5 13.05 34.55 6.95 43.15 6.95 L202.45 6.95 Q211.05 6.95 217.1 13.05 223.15 19.1 223.15 27.65" fill="url(#gradient3)" fill-rule="evenodd" stroke="none"/>
    <path d="M212.5 14.05 L212.5 14.15 Q212.5 16.6 210.75 18.35 209.0 20.1 206.55 20.1 L40.95 20.1 Q38.5 20.1 36.75 18.35 35.0 16.6 35.0 14.15 L35.0 14.05 Q35.0 11.6 36.75 9.85 38.5 8.1 40.95 8.1 L206.55 8.1 Q209.0 8.1 210.75 9.85 212.5 11.6 212.5 14.05" fill="url(#gradient4)" fill-rule="evenodd" stroke="none"/>
  </g>
  <defs>
    <linearGradient gradientTransform="matrix(2.0E-4, -0.0246, 0.0253, 2.0E-4, 123.0, 27.65)" gradientUnits="userSpaceOnUse" id="gradient0" spreadMethod="pad" x1="-819.2" x2="819.2">
      <stop offset="0.0" stop-color="#ffc85f"/>
      <stop offset="1.0" stop-color="#ff9900"/>
    </linearGradient>
    <linearGradient gradientTransform="matrix(2.0E-4, -0.0246, 0.0253, 2.0E-4, 123.0, 27.65)" gradientUnits="userSpaceOnUse" id="gradient1" spreadMethod="pad" x1="-819.2" x2="819.2">
      <stop offset="0.0" stop-color="#ffc85f"/>
      <stop offset="1.0" stop-color="#ff9900"/>
    </linearGradient>
    <linearGradient gradientTransform="matrix(0.0, 0.0259, -0.0253, 0.0, 122.55, 28.5)" gradientUnits="userSpaceOnUse" id="gradient2" spreadMethod="pad" x1="-819.2" x2="819.2">
      <stop offset="0.0" stop-color="#ffa110"/>
      <stop offset="1.0" stop-color="#ffd995"/>
    </linearGradient>
    <linearGradient gradientTransform="matrix(3.0E-4, 0.03, -0.0253, 2.0E-4, 122.8, 27.65)" gradientUnits="userSpaceOnUse" id="gradient3" spreadMethod="pad" x1="-819.2" x2="819.2">
      <stop offset="0.00392156862745098" stop-color="#ec4727"/>
      <stop offset="1.0" stop-color="#f7a72d"/>
    </linearGradient>
    <linearGradient gradientTransform="matrix(0.0, 0.0083, -0.0114, 0.0, 107.55, 12.15)" gradientUnits="userSpaceOnUse" id="gradient4" spreadMethod="pad" x1="-819.2" x2="819.2">
      <stop offset="0.0" stop-color="#ffffff"/>
      <stop offset="1.0" stop-color="#ffffff" stop-opacity="0.0"/>
    </linearGradient>
  </defs>
</svg>
