<?xml version="1.0" encoding="UTF-8" standalone="no"?>
<svg xmlns:xlink="http://www.w3.org/1999/xlink" height="56.7px" width="55.8px" xmlns="http://www.w3.org/2000/svg">
  <g transform="matrix(1.0, 0.0, 0.0, 1.0, 2.0, 2.0)">
    <path d="M45.4 17.15 L50.0 15.2 Q51.8 19.6 51.8 24.75 L51.7 24.75 51.8 26.8 47.55 26.8 47.55 26.85 Q47.55 29.85 46.9 32.55 L46.8 32.95 50.0 34.25 49.95 34.4 49.95 36.65 Q48.75 39.6 46.8 42.2 L45.8 43.5 44.25 45.1 41.3 42.1 41.2 42.15 41.15 42.2 40.95 42.45 Q38.55 44.75 35.95 46.2 L36.55 47.75 36.5 47.8 35.9 50.55 35.95 50.75 Q32.45 52.25 28.5 52.6 L27.35 52.7 26.0 52.7 25.95 52.7 25.95 48.6 25.85 48.6 25.8 48.6 Q21.55 48.6 17.75 47.15 L17.5 47.8 16.05 50.8 Q11.5 48.95 7.7 45.2 L7.65 45.15 7.9 44.95 9.5 42.35 10.0 41.9 Q8.7 40.55 7.8 39.0 6.55 37.1 5.85 35.3 L5.8 35.25 5.75 35.15 2.05 36.75 1.95 36.75 Q0.0 32.2 0.0 26.9 L0.0 26.8 0.1 26.8 2.15 24.75 4.3 24.75 Q4.3 24.0 4.45 23.25 4.8 21.1 5.65 19.0 L5.8 18.55 5.85 18.45 5.8 18.45 1.9 16.85 1.95 16.75 2.6 15.35 3.0 14.6 Q4.75 11.4 7.5 8.55 L7.6 8.45 7.65 8.45 9.3 7.35 9.45 7.2 9.5 7.2 12.2 9.95 Q14.65 7.95 17.4 6.85 L17.7 6.75 16.25 3.3 17.5 1.75 Q21.9 0.0 27.0 0.0 L27.0 4.9 Q31.0 4.9 34.4 6.35 L34.6 6.4 36.5 1.75 Q40.9 3.6 44.55 7.2 L44.55 7.25 44.5 7.35 43.85 9.95 42.0 11.75 Q44.2 14.25 45.4 17.15 M28.35 21.35 Q27.0 20.8 25.5 20.8 23.95 20.8 22.6 21.35 21.3 21.9 20.25 23.0 L20.2 23.0 19.7 23.55 19.6 24.75 19.85 26.8 20.15 27.65 20.85 28.95 21.7 30.05 Q22.85 31.2 24.15 31.7 25.5 32.25 27.0 32.25 L27.45 32.25 29.95 31.65 Q31.2 31.15 32.25 30.05 L32.85 29.5 32.9 28.25 Q32.9 26.7 32.4 25.35 L32.3 25.1 Q31.75 23.95 30.75 23.0 29.6 21.9 28.35 21.35" fill="#b1c4cb" fill-rule="evenodd" stroke="none"/>
    <path d="M45.4 17.15 L50.0 15.2 Q51.8 19.6 51.8 24.75 L51.7 24.75 51.8 26.8 47.55 26.8 47.55 26.85 Q47.55 29.85 46.9 32.55 L46.8 32.95 50.0 34.25 49.95 34.4 49.95 36.65 Q48.75 39.6 46.8 42.2 L45.8 43.5 44.25 45.1 41.3 42.1 41.2 42.15 41.15 42.2 40.95 42.45 Q38.55 44.75 35.95 46.2 L36.55 47.75 36.5 47.8 35.9 50.55 35.95 50.75 Q32.45 52.25 28.5 52.6 L27.35 52.7 26.0 52.7 25.95 52.7 25.95 48.6 25.85 48.6 25.8 48.6 Q21.55 48.6 17.75 47.15 L17.5 47.8 16.05 50.8 Q11.5 48.95 7.7 45.2 L7.65 45.15 7.9 44.95 9.5 42.35 10.0 41.9 Q8.7 40.55 7.8 39.0 6.55 37.1 5.85 35.3 L5.8 35.25 5.75 35.15 2.05 36.75 1.95 36.75 Q0.0 32.2 0.0 26.9 L0.0 26.8 0.1 26.8 2.15 24.75 4.3 24.75 Q4.3 24.0 4.45 23.25 4.8 21.1 5.65 19.0 L5.8 18.55 5.85 18.45 5.8 18.45 1.9 16.85 1.95 16.75 2.6 15.35 3.0 14.6 Q4.75 11.4 7.5 8.55 L7.6 8.45 7.65 8.45 9.3 7.35 9.45 7.2 9.5 7.2 12.2 9.95 Q14.65 7.95 17.4 6.85 L17.7 6.75 16.25 3.3 17.5 1.75 Q21.9 0.0 27.0 0.0 L27.0 4.9 Q31.0 4.9 34.4 6.35 L34.6 6.4 36.5 1.75 Q40.9 3.6 44.55 7.2 L44.55 7.25 44.5 7.35 43.85 9.95 42.0 11.75 Q44.2 14.25 45.4 17.15 M28.35 21.35 Q29.6 21.9 30.75 23.0 31.75 23.95 32.3 25.1 L32.4 25.35 Q32.9 26.7 32.9 28.25 L32.85 29.5 32.25 30.05 Q31.2 31.15 29.95 31.65 L27.45 32.25 27.0 32.25 Q25.5 32.25 24.15 31.7 22.85 31.2 21.7 30.05 L20.85 28.95 20.15 27.65 19.85 26.8 19.6 24.75 19.7 23.55 20.2 23.0 20.25 23.0 Q21.3 21.9 22.6 21.35 23.95 20.8 25.5 20.8 27.0 20.8 28.35 21.35" fill="none" stroke="#463022" stroke-linecap="round" stroke-linejoin="round" stroke-width="4.0"/>
    <path d="M44.5 7.35 L41.05 10.75 41.55 11.25 42.0 11.75 Q44.2 14.25 45.4 17.15 L50.0 15.2 Q51.8 19.6 51.8 24.75 L51.7 24.75 46.8 24.75 46.8 24.85 46.8 25.1 Q42.35 23.75 37.65 24.3 L35.35 24.5 Q35.25 23.25 34.8 22.2 34.1 20.6 32.8 19.3 31.6 18.0 30.05 17.4 28.45 16.7 26.65 16.7 24.9 16.7 23.3 17.4 21.75 18.0 20.45 19.3 L20.4 19.3 Q19.2 20.6 18.6 22.2 18.25 23.05 18.05 24.05 L17.95 25.45 18.05 26.75 Q12.7 26.75 9.05 22.85 L8.45 22.2 7.55 21.0 7.55 20.9 Q7.8 19.4 8.3 18.0 L8.6 17.15 4.0 15.25 4.05 15.15 4.7 13.85 Q6.0 11.2 8.05 8.8 L9.3 7.35 9.45 7.2 9.5 7.2 12.2 9.95 13.0 10.75 13.7 10.1 Q15.6 8.25 17.85 7.15 L18.5 6.85 19.4 6.45 19.4 6.4 17.5 1.75 Q21.9 0.0 27.0 0.0 L27.0 4.9 Q31.0 4.9 34.4 6.35 L34.6 6.4 36.5 1.75 Q40.9 3.6 44.55 7.2 L44.55 7.25 44.5 7.35" fill="#bbd4de" fill-rule="evenodd" stroke="none"/>
    <path d="M42.0 11.75 L41.55 11.25 41.05 10.75 44.5 7.35 43.85 9.95 42.0 11.75 M19.4 6.45 L18.5 6.85 17.85 7.15 Q15.6 8.25 13.7 10.1 L13.0 10.75 12.2 9.95 Q14.65 7.95 17.4 6.85 L17.7 6.75 19.4 6.45 M9.3 7.35 L8.05 8.8 Q6.0 11.2 4.7 13.85 L4.05 15.15 1.95 16.75 2.6 15.35 3.0 14.6 Q4.75 11.4 7.5 8.55 L7.6 8.45 7.65 8.45 9.3 7.35 M8.6 17.15 L8.3 18.0 Q7.8 19.4 7.55 20.9 L7.55 21.0 Q7.15 22.8 7.15 24.75 L4.3 24.75 Q4.3 24.0 4.45 23.25 4.8 21.1 5.65 19.0 L5.8 18.55 5.85 18.45 5.8 18.45 8.6 17.15 M46.8 25.1 L46.8 24.85 47.55 26.8 47.55 26.85 Q47.55 29.85 46.9 32.55 L46.8 32.95 45.45 32.35 46.15 30.35 46.65 27.85 46.8 26.8 46.8 26.5 46.8 25.1 M49.95 34.4 L49.95 36.65 Q48.75 39.6 46.8 42.2 L45.8 43.5 44.25 45.1 44.45 42.2 44.55 42.3 48.0 38.15 49.05 36.3 49.95 34.3 49.95 34.4 M41.2 42.15 L41.15 42.2 40.95 42.45 Q38.55 44.75 35.95 46.2 L34.65 43.2 Q38.2 41.7 41.05 38.85 L41.2 42.15 M36.5 47.8 L35.9 50.55 35.95 50.75 Q32.45 52.25 28.5 52.6 L27.35 52.7 26.0 52.7 27.0 49.55 Q30.75 49.55 34.15 48.65 L34.95 48.4 36.5 47.8 M25.85 48.6 L25.8 48.6 Q21.55 48.6 17.75 47.15 L19.4 43.2 Q22.95 44.65 27.0 44.65 L27.0 44.7 25.85 48.6 M10.0 41.9 Q8.7 40.55 7.8 39.0 6.55 37.1 5.85 35.3 L8.6 32.35 9.4 34.1 Q10.75 36.65 12.95 38.8 L10.0 41.9 M2.05 36.75 L1.95 36.75 Q0.0 32.2 0.0 26.9 L0.0 26.8 0.1 26.8 2.15 24.75 2.25 26.8 Q2.45 29.35 3.1 31.75 L4.0 34.35 2.05 36.75" fill="#6f8891" fill-rule="evenodd" stroke="none"/>
    <path d="M17.5 1.75 L19.4 6.4 19.4 6.45 17.7 6.75 16.25 3.3 17.5 1.75 M4.05 15.15 L4.0 15.25 8.6 17.15 5.8 18.45 1.9 16.85 1.95 16.75 4.05 15.15 M46.8 24.85 L46.8 24.75 51.7 24.75 51.8 26.8 47.55 26.8 46.8 24.85 M44.25 45.1 L41.3 42.1 41.2 42.15 41.05 38.85 41.05 38.8 44.45 42.2 44.25 45.1 M26.0 52.7 L25.95 52.7 25.95 48.6 25.85 48.6 27.0 44.7 27.0 49.55 26.0 52.7 M17.5 47.8 L16.05 50.8 Q11.5 48.95 7.7 45.2 L7.65 45.15 7.9 44.95 9.5 42.35 9.95 42.8 Q13.35 46.0 17.5 47.75 L17.5 47.8 M5.85 35.3 L5.8 35.25 5.75 35.15 2.05 36.75 4.0 34.35 8.6 32.35 5.85 35.3" fill="#516870" fill-rule="evenodd" stroke="none"/>
    <path d="M7.55 21.0 L8.45 22.2 9.05 22.85 Q12.7 26.75 18.05 26.75 L18.6 28.9 19.4 30.4 20.4 31.7 Q21.75 33.05 23.3 33.65 24.9 34.3 26.65 34.3 L27.15 34.3 30.1 33.6 Q31.6 33.0 32.8 31.7 L33.5 31.05 34.8 28.9 Q35.4 27.35 35.4 25.45 L35.35 24.5 37.65 24.3 Q42.35 23.75 46.8 25.1 L46.8 26.5 46.8 26.8 46.65 27.85 46.15 30.35 45.45 32.35 46.8 32.95 50.0 34.25 49.95 34.4 49.95 34.3 49.05 36.3 48.0 38.15 44.55 42.3 44.45 42.2 41.05 38.8 41.05 38.85 Q38.2 41.7 34.65 43.2 L35.95 46.2 36.55 47.75 36.5 47.8 34.95 48.4 34.15 48.65 Q30.75 49.55 27.0 49.55 L27.0 44.7 27.0 44.65 Q22.95 44.65 19.4 43.2 L17.75 47.15 17.5 47.8 17.5 47.75 Q13.35 46.0 9.95 42.8 L9.5 42.35 10.0 41.9 12.95 38.8 Q10.75 36.65 9.4 34.1 L8.6 32.35 4.0 34.35 3.1 31.75 Q2.45 29.35 2.25 26.8 L2.15 24.75 4.3 24.75 7.15 24.75 Q7.15 22.8 7.55 21.0" fill="#b1c4cb" fill-rule="evenodd" stroke="none"/>
    <path d="M18.05 26.75 L17.95 25.45 18.05 24.05 Q18.25 23.05 18.6 22.2 19.2 20.6 20.4 19.3 L20.45 19.3 Q21.75 18.0 23.3 17.4 24.9 16.7 26.65 16.7 28.45 16.7 30.05 17.4 31.6 18.0 32.8 19.3 34.1 20.6 34.8 22.2 35.25 23.25 35.35 24.5 L35.4 25.45 Q35.4 27.35 34.8 28.9 L33.5 31.05 32.8 31.7 Q31.6 33.0 30.1 33.6 L27.15 34.3 26.65 34.3 Q24.9 34.3 23.3 33.65 21.75 33.05 20.4 31.7 L19.4 30.4 18.6 28.9 18.05 26.75 M32.85 29.5 L33.95 27.65 Q34.45 26.35 34.45 24.75 L34.45 24.65 Q34.45 23.15 33.95 21.95 33.35 20.6 32.25 19.5 31.2 18.4 29.9 17.9 28.55 17.3 27.0 17.3 25.5 17.3 24.15 17.9 22.85 18.4 21.75 19.5 L21.7 19.5 Q20.65 20.6 20.15 21.95 19.85 22.7 19.7 23.55 L19.6 24.75 19.85 26.8 20.15 27.65 20.85 28.95 21.7 30.05 Q22.85 31.2 24.15 31.7 25.5 32.25 27.0 32.25 L27.45 32.25 29.95 31.65 Q31.2 31.15 32.25 30.05 L32.85 29.5" fill="#d5eef7" fill-rule="evenodd" stroke="none"/>
    <path d="M19.7 23.55 Q19.85 22.7 20.15 21.95 20.65 20.6 21.7 19.5 L21.75 19.5 Q22.85 18.4 24.15 17.9 25.5 17.3 27.0 17.3 28.55 17.3 29.9 17.9 31.2 18.4 32.25 19.5 33.35 20.6 33.95 21.95 34.45 23.15 34.45 24.65 L34.45 24.75 Q34.45 26.35 33.95 27.65 L32.85 29.5 32.9 28.25 Q32.9 26.7 32.4 25.35 L32.3 25.1 Q31.75 23.95 30.75 23.0 29.6 21.9 28.35 21.35 27.0 20.8 25.5 20.8 23.95 20.8 22.6 21.35 21.3 21.9 20.25 23.0 L20.2 23.0 19.7 23.55" fill="#83979f" fill-rule="evenodd" stroke="none"/>
  </g>
</svg>
