<?xml version="1.0" encoding="UTF-8" standalone="no"?>
<svg xmlns:xlink="http://www.w3.org/1999/xlink" height="59.35px" width="58.4px" xmlns="http://www.w3.org/2000/svg">
  <g transform="matrix(1.0, 0.0, 0.0, 1.0, 7.6, 3.3)">
    <path d="M41.1 6.4 L40.45 9.15 38.5 11.05 Q40.8 13.65 42.05 16.7 L46.9 14.65 Q48.8 19.3 48.8 24.7 L48.7 24.7 48.8 26.85 44.35 26.85 44.35 26.9 Q44.35 30.05 43.65 32.9 L43.55 33.3 46.9 34.65 46.85 34.8 46.85 37.2 Q45.6 40.3 43.55 43.0 L42.5 44.35 40.85 46.05 37.75 42.9 37.65 42.95 37.6 43.0 37.4 43.25 Q34.9 45.7 32.15 47.2 L32.8 48.85 32.7 48.9 32.1 51.8 32.15 52.0 Q28.45 53.55 24.3 53.95 L23.1 54.05 21.7 54.05 21.65 54.05 21.65 49.75 21.55 49.75 21.5 49.75 Q17.05 49.75 13.05 48.2 L11.25 52.05 Q6.45 50.1 2.5 46.15 L2.45 46.1 2.7 45.9 4.35 43.15 4.9 42.7 Q3.55 41.3 2.6 39.65 1.3 37.65 0.55 35.75 L0.5 35.7 0.45 35.6 -3.45 37.3 -3.55 37.3 Q-5.6 32.5 -5.6 26.95 L-5.6 26.85 -5.5 26.85 -3.35 24.7 -1.1 24.7 -0.95 23.1 Q-0.55 20.85 0.35 18.65 L0.5 18.2 0.55 18.05 0.5 18.05 -3.6 16.4 -3.55 16.3 -2.85 14.8 -2.45 14.05 Q-0.6 10.65 2.25 7.7 L2.4 7.55 2.45 7.55 4.15 6.4 4.3 6.25 4.35 6.25 7.2 9.15 Q9.8 7.05 12.65 5.9 L13.0 5.8 11.45 2.15 12.75 0.55 Q17.4 -1.3 22.75 -1.3 L22.75 3.85 Q26.95 3.85 30.5 5.35 L30.75 5.4 32.7 0.55 Q37.35 2.5 41.2 6.25 L41.2 6.3 41.1 6.4 M24.15 21.1 Q22.75 20.55 21.15 20.55 19.55 20.55 18.15 21.1 16.75 21.7 15.65 22.85 L15.6 22.85 15.1 23.45 15.0 24.7 Q15.0 25.85 15.25 26.85 L15.55 27.75 16.3 29.1 17.2 30.25 Q18.4 31.45 19.75 32.0 L22.75 32.55 23.2 32.55 25.85 31.95 Q27.15 31.4 28.25 30.25 L28.9 29.65 28.95 28.35 Q28.95 26.75 28.4 25.3 L28.3 25.05 Q27.75 23.85 26.7 22.85 25.5 21.7 24.15 21.1" fill="#b1c4cb" fill-rule="evenodd" stroke="none"/>
    <path d="M41.1 6.4 L40.45 9.15 38.5 11.05 Q40.8 13.65 42.05 16.7 L46.9 14.65 Q48.8 19.3 48.8 24.7 L48.7 24.7 48.8 26.85 44.35 26.85 44.35 26.9 Q44.35 30.05 43.65 32.9 L43.55 33.3 46.9 34.65 46.85 34.8 46.85 37.2 Q45.6 40.3 43.55 43.0 L42.5 44.35 40.85 46.05 37.75 42.9 37.65 42.95 37.6 43.0 37.4 43.25 Q34.9 45.7 32.15 47.2 L32.8 48.85 32.7 48.9 32.1 51.8 32.15 52.0 Q28.45 53.55 24.3 53.95 L23.1 54.05 21.7 54.05 21.65 54.05 21.65 49.75 21.55 49.75 21.5 49.75 Q17.05 49.75 13.05 48.2 L11.25 52.05 Q6.45 50.1 2.5 46.15 L2.45 46.1 2.7 45.9 4.35 43.15 4.9 42.7 Q3.55 41.3 2.6 39.65 1.3 37.65 0.55 35.75 L0.5 35.7 0.45 35.6 -3.45 37.3 -3.55 37.3 Q-5.6 32.5 -5.6 26.95 L-5.6 26.85 -5.5 26.85 -3.35 24.7 -1.1 24.7 -0.95 23.1 Q-0.55 20.85 0.35 18.65 L0.5 18.2 0.55 18.05 0.5 18.05 -3.6 16.4 -3.55 16.3 -2.85 14.8 -2.45 14.05 Q-0.6 10.65 2.25 7.7 L2.4 7.55 2.45 7.55 4.15 6.4 4.3 6.25 4.35 6.25 7.2 9.15 Q9.8 7.05 12.65 5.9 L13.0 5.8 11.45 2.15 12.75 0.55 Q17.4 -1.3 22.75 -1.3 L22.75 3.85 Q26.95 3.85 30.5 5.35 L30.75 5.4 32.7 0.55 Q37.35 2.5 41.2 6.25 L41.2 6.3 41.1 6.4 M24.15 21.1 Q25.5 21.7 26.7 22.85 27.75 23.85 28.3 25.05 L28.4 25.3 Q28.95 26.75 28.95 28.35 L28.9 29.65 28.25 30.25 Q27.15 31.4 25.85 31.95 L23.2 32.55 22.75 32.55 19.75 32.0 Q18.4 31.45 17.2 30.25 L16.3 29.1 15.55 27.75 15.25 26.85 Q15.0 25.85 15.0 24.7 L15.1 23.45 15.6 22.85 15.65 22.85 Q16.75 21.7 18.15 21.1 19.55 20.55 21.15 20.55 22.75 20.55 24.15 21.1" fill="none" stroke="#463022" stroke-linecap="round" stroke-linejoin="round" stroke-width="4.0"/>
    <path d="M43.55 24.8 L43.55 24.7 48.7 24.7 48.8 26.85 44.35 26.85 43.55 24.8 M12.75 0.55 L14.75 5.4 14.75 5.45 13.0 5.8 11.45 2.15 12.75 0.55 M-1.35 14.6 L-1.4 14.7 3.45 16.7 0.5 18.05 -3.6 16.4 -3.55 16.3 -1.35 14.6 M40.85 46.05 L37.75 42.9 37.65 42.95 37.5 39.5 37.5 39.45 41.05 43.0 40.85 46.05 M21.7 54.05 L21.65 54.05 21.65 49.75 21.55 49.75 22.75 45.65 22.75 50.75 21.7 54.05 M12.75 48.9 L11.25 52.05 Q6.45 50.1 2.5 46.15 L2.45 46.1 2.7 45.9 4.35 43.15 4.85 43.65 Q8.4 47.0 12.75 48.85 L12.75 48.9 M0.55 35.75 L0.5 35.7 0.45 35.6 -3.45 37.3 -1.4 34.75 3.45 32.65 0.55 35.75" fill="#516870" fill-rule="evenodd" stroke="none"/>
    <path d="M48.7 24.7 L43.55 24.7 43.55 24.8 43.55 25.05 Q38.85 23.65 33.95 24.2 L31.5 24.4 Q31.4 23.1 30.95 22.0 30.2 20.35 28.85 18.95 27.6 17.6 25.95 16.95 24.25 16.25 22.4 16.25 20.55 16.25 18.85 16.95 17.25 17.6 15.85 18.95 L15.8 18.95 Q14.55 20.35 13.95 22.0 L13.35 23.95 13.25 25.4 13.35 26.8 Q7.75 26.8 3.9 22.7 L3.25 22.0 2.35 20.75 2.35 20.65 Q2.6 19.05 3.1 17.6 L3.45 16.7 -1.4 14.7 -1.35 14.6 -0.65 13.25 Q0.7 10.45 2.85 7.95 L4.15 6.4 4.3 6.25 4.35 6.25 7.2 9.15 8.05 10.0 8.8 9.3 Q10.8 7.35 13.15 6.2 L13.8 5.9 Q14.25 5.65 14.75 5.45 L14.75 5.4 12.75 0.55 Q17.4 -1.3 22.75 -1.3 L22.75 3.85 Q26.95 3.85 30.5 5.35 L30.75 5.4 32.7 0.55 Q37.35 2.5 41.2 6.25 L41.2 6.3 41.1 6.4 37.5 10.0 38.05 10.5 38.5 11.05 Q40.8 13.65 42.05 16.7 L46.9 14.65 Q48.8 19.3 48.8 24.7 L48.7 24.7" fill="#bbd4de" fill-rule="evenodd" stroke="none"/>
    <path d="M43.55 24.8 L44.35 26.85 44.35 26.9 Q44.35 30.05 43.65 32.9 L43.55 33.3 42.1 32.65 42.85 30.55 43.4 27.95 43.55 26.85 43.55 26.5 43.55 25.05 43.55 24.8 M38.5 11.05 L38.05 10.5 37.5 10.0 41.1 6.4 40.45 9.15 38.5 11.05 M14.75 5.45 Q14.25 5.65 13.8 5.9 L13.15 6.2 Q10.8 7.35 8.8 9.3 L8.05 10.0 7.2 9.15 Q9.8 7.05 12.65 5.9 L13.0 5.8 14.75 5.45 M4.15 6.4 L2.85 7.95 Q0.7 10.45 -0.65 13.25 L-1.35 14.6 -3.55 16.3 -2.85 14.8 -2.45 14.05 Q-0.6 10.65 2.25 7.7 L2.4 7.55 2.45 7.55 4.15 6.4 M3.45 16.7 L3.1 17.6 Q2.6 19.05 2.35 20.65 L2.35 20.75 Q1.9 22.65 1.9 24.7 L-1.1 24.7 -0.95 23.1 Q-0.55 20.85 0.35 18.65 L0.5 18.2 0.55 18.05 0.5 18.05 3.45 16.7 M46.85 34.8 L46.85 37.2 Q45.6 40.3 43.55 43.0 L42.5 44.35 40.85 46.05 41.05 43.0 41.2 43.1 44.8 38.75 45.9 36.8 46.85 34.7 46.85 34.8 M37.65 42.95 L37.6 43.0 37.4 43.25 Q34.9 45.7 32.15 47.2 L30.8 44.05 Q34.5 42.5 37.5 39.5 L37.65 42.95 M32.7 48.9 L32.1 51.8 32.15 52.0 Q28.45 53.55 24.3 53.95 L23.1 54.05 21.7 54.05 22.75 50.75 Q26.7 50.75 30.25 49.8 30.7 49.6 31.1 49.5 L32.7 48.9 M21.55 49.75 L21.5 49.75 Q17.05 49.75 13.05 48.2 L14.75 44.05 Q18.5 45.6 22.75 45.6 L22.75 45.65 21.55 49.75 M4.9 42.7 Q3.55 41.3 2.6 39.65 1.3 37.65 0.55 35.75 L3.45 32.65 4.25 34.5 Q5.7 37.2 8.0 39.45 L4.9 42.7 M-3.45 37.3 L-3.55 37.3 Q-5.6 32.5 -5.6 26.95 L-5.6 26.85 -5.5 26.85 -3.35 24.7 -3.25 26.85 Q-3.05 29.5 -2.35 32.05 L-1.4 34.75 -3.45 37.3" fill="#6f8891" fill-rule="evenodd" stroke="none"/>
    <path d="M2.35 20.75 L3.25 22.0 3.9 22.7 Q7.75 26.8 13.35 26.8 13.5 28.0 13.95 29.05 L14.75 30.6 15.8 32.0 Q17.25 33.4 18.85 34.05 20.55 34.7 22.4 34.7 L22.9 34.7 Q24.55 34.55 26.0 34.0 27.6 33.35 28.85 32.0 L29.55 31.3 30.95 29.05 Q31.55 27.4 31.55 25.4 L31.5 24.4 33.95 24.2 Q38.85 23.65 43.55 25.05 L43.55 26.5 43.55 26.85 43.4 27.95 42.85 30.55 42.1 32.65 43.55 33.3 46.9 34.65 46.85 34.8 46.85 34.7 45.9 36.8 44.8 38.75 41.2 43.1 41.05 43.0 37.5 39.45 37.5 39.5 Q34.5 42.5 30.8 44.05 L32.15 47.2 32.8 48.85 32.7 48.9 31.1 49.5 Q30.7 49.6 30.25 49.8 26.7 50.75 22.75 50.75 L22.75 45.65 22.75 45.6 Q18.5 45.6 14.75 44.05 L13.05 48.2 12.75 48.9 12.75 48.85 Q8.4 47.0 4.85 43.65 L4.35 43.15 4.9 42.7 8.0 39.45 Q5.7 37.2 4.25 34.5 L3.45 32.65 -1.4 34.75 -2.35 32.05 Q-3.05 29.5 -3.25 26.85 L-3.35 24.7 -1.1 24.7 1.9 24.7 Q1.9 22.65 2.35 20.75" fill="#b1c4cb" fill-rule="evenodd" stroke="none"/>
    <path d="M15.1 23.45 Q15.25 22.55 15.55 21.75 16.1 20.35 17.2 19.15 L17.25 19.15 Q18.4 18.0 19.75 17.5 21.15 16.85 22.75 16.85 24.4 16.85 25.8 17.5 27.15 18.0 28.25 19.15 29.4 20.35 30.05 21.75 30.55 23.0 30.55 24.6 L30.55 24.7 Q30.55 26.35 30.05 27.75 L28.9 29.65 28.95 28.35 Q28.95 26.75 28.4 25.3 L28.3 25.05 Q27.75 23.85 26.7 22.85 25.5 21.7 24.15 21.1 22.75 20.55 21.15 20.55 19.55 20.55 18.15 21.1 16.75 21.7 15.65 22.85 L15.6 22.85 15.1 23.45" fill="#83979f" fill-rule="evenodd" stroke="none"/>
    <path d="M13.35 26.8 L13.25 25.4 13.35 23.95 13.95 22.0 Q14.55 20.35 15.8 18.95 L15.85 18.95 Q17.25 17.6 18.85 16.95 20.55 16.25 22.4 16.25 24.25 16.25 25.95 16.95 27.6 17.6 28.85 18.95 30.2 20.35 30.95 22.0 31.4 23.1 31.5 24.4 L31.55 25.4 Q31.55 27.4 30.95 29.05 L29.55 31.3 28.85 32.0 Q27.6 33.35 26.0 34.0 24.55 34.55 22.9 34.7 L22.4 34.7 Q20.55 34.7 18.85 34.05 17.25 33.4 15.8 32.0 L14.75 30.6 13.95 29.05 Q13.5 28.0 13.35 26.8 M28.9 29.65 L30.05 27.75 Q30.55 26.35 30.55 24.7 L30.55 24.6 Q30.55 23.0 30.05 21.75 29.4 20.35 28.25 19.15 27.15 18.0 25.8 17.5 24.4 16.85 22.75 16.85 21.15 16.85 19.75 17.5 18.4 18.0 17.25 19.15 L17.2 19.15 Q16.1 20.35 15.55 21.75 15.25 22.55 15.1 23.45 L15.0 24.7 Q15.0 25.85 15.25 26.85 L15.55 27.75 16.3 29.1 17.2 30.25 Q18.4 31.45 19.75 32.0 L22.75 32.55 23.2 32.55 25.85 31.95 Q27.15 31.4 28.25 30.25 L28.9 29.65" fill="#d5eef7" fill-rule="evenodd" stroke="none"/>
  </g>
</svg>
