<?xml version="1.0" encoding="UTF-8" standalone="no"?>
<svg xmlns:xlink="http://www.w3.org/1999/xlink" height="68.75px" width="454.2px" xmlns="http://www.w3.org/2000/svg">
  <g transform="matrix(1.0, 0.0, 0.0, 1.0, -36.9, -383.05)">
    <path d="M48.6 451.15 L46.65 451.8 52.8 447.3 53.55 446.9 49.5 441.85 36.9 438.05 49.95 438.6 58.75 446.7 75.9 449.0 76.1 449.1 74.75 449.05 55.9 449.9 54.95 448.65 48.6 451.15" fill="#a05b10" fill-rule="evenodd" stroke="none"/>
    <path d="M74.75 449.05 L55.9 451.7 54.45 449.6 48.6 451.15 54.95 448.65 55.9 449.9 74.75 449.05" fill="#ffffff" fill-rule="evenodd" stroke="none"/>
    <path d="M83.6 421.75 L82.3 424.8 82.3 424.9 82.2 425.05 82.2 425.1 82.1 425.15 82.05 425.15 75.7 426.25 73.0 422.35 72.15 420.3 74.3 415.95 80.05 415.45 83.65 418.95 83.6 421.75" fill="#af691c" fill-rule="evenodd" stroke="none"/>
    <path d="M72.25 420.0 L83.5 418.75 83.4 421.45 82.05 424.7 75.7 425.85 73.1 422.05 72.25 420.0" fill="#18a4c4" fill-rule="evenodd" stroke="none"/>
    <path d="M83.5 418.75 L82.05 423.5 75.4 424.55 72.25 420.0 74.35 415.8 79.95 415.3 83.5 418.75" fill="#57c0dd" fill-rule="evenodd" stroke="none"/>
    <path d="M72.25 420.0 L74.35 415.8 79.95 415.3 83.5 418.75 72.25 420.0" fill="#8cd9ea" fill-rule="evenodd" stroke="none"/>
    <path d="M79.25 416.75 L81.1 418.55 80.15 421.3 76.35 421.9 74.3 419.65 75.55 417.0 79.25 416.75" fill="#caf1ff" fill-rule="evenodd" stroke="none"/>
    <path d="M80.05 421.05 L82.1 423.7 75.4 424.6 81.3 423.4 80.05 421.05" fill="#ffffff" fill-rule="evenodd" stroke="none"/>
    <path d="M83.35 419.0 L82.05 423.5 82.8 419.25 80.8 418.45 83.35 419.0" fill="#ffffff" fill-rule="evenodd" stroke="none"/>
    <path d="M79.25 416.75 L79.95 415.3 82.5 417.8 80.1 415.8 79.25 416.75" fill="#ffffff" fill-rule="evenodd" stroke="none"/>
    <path d="M75.7 417.0 L75.4 417.15 74.35 415.8 75.7 417.0" fill="#ffffff" fill-rule="evenodd" stroke="none"/>
    <path d="M74.35 419.75 L74.8 420.1 72.25 420.0 74.35 419.75" fill="#ffffff" fill-rule="evenodd" stroke="none"/>
    <path d="M76.0 421.6 L76.6 421.75 75.4 424.55 76.0 421.6" fill="#ffffff" fill-rule="evenodd" stroke="none"/>
    <path d="M75.4 424.55 L75.9 424.5 75.7 425.85 75.4 424.55" fill="#ffffff" fill-rule="evenodd" stroke="none"/>
    <path d="M80.15 421.3 L76.3 421.9 74.25 419.75 75.4 417.15 74.85 419.6 76.45 421.4 79.85 420.9 81.1 418.55 80.15 421.3" fill="#ffffff" fill-rule="evenodd" stroke="none"/>
    <path d="M79.25 416.75 L81.1 418.55 80.95 419.0 79.25 416.75" fill="#ffffff" fill-rule="evenodd" stroke="none"/>
    <path d="M479.55 392.65 L478.75 393.0 481.1 390.75 481.4 390.55 479.35 388.65 473.75 387.75 479.35 387.2 483.6 390.1 491.1 390.1 490.5 390.15 482.55 391.65 482.1 391.2 479.55 392.65" fill="#a05b10" fill-rule="evenodd" stroke="none"/>
    <path d="M490.5 390.15 L482.7 392.45 481.95 391.65 479.55 392.65 482.1 391.2 482.55 391.65 490.5 390.15" fill="#ffffff" fill-rule="evenodd" stroke="none"/>
    <path d="M481.3 384.0 L485.4 383.25 487.8 385.9 487.65 387.5 486.55 390.7 481.9 391.15 481.8 391.15 481.7 391.1 481.65 391.0 480.15 389.1 479.5 387.15 481.3 384.0" fill="#af691c" fill-rule="evenodd" stroke="none"/>
    <path d="M487.65 385.55 L487.5 387.1 486.4 390.3 481.8 390.75 480.15 388.75 479.55 386.8 487.65 385.55" fill="#f77fa4" fill-rule="evenodd" stroke="none"/>
    <path d="M479.55 386.8 L481.3 383.75 485.3 383.05 487.65 385.55 486.35 389.35 481.55 389.85 479.55 386.8" fill="#ffaec3" fill-rule="evenodd" stroke="none"/>
    <path d="M487.65 385.55 L479.55 386.8 481.3 383.75 485.3 383.05 487.65 385.55" fill="#ffccd9" fill-rule="evenodd" stroke="none"/>
    <path d="M482.1 384.65 L484.75 384.05 486.15 385.65 485.2 387.7 482.35 388.0 481.15 386.25 482.1 384.65" fill="#ffe6eb" fill-rule="evenodd" stroke="none"/>
    <path d="M482.45 387.8 L482.05 389.65 486.35 389.4 481.5 390.0 482.45 387.8" fill="#ffffff" fill-rule="evenodd" stroke="none"/>
    <path d="M481.55 389.85 L481.9 389.85 481.9 390.75 481.65 390.65 481.55 389.85" fill="#ffffff" fill-rule="evenodd" stroke="none"/>
    <path d="M479.7 387.0 L481.35 386.15 480.15 387.05 481.55 389.85 479.7 387.0" fill="#ffffff" fill-rule="evenodd" stroke="none"/>
    <path d="M484.6 384.05 L485.3 383.05 484.85 384.25 484.6 384.05" fill="#ffffff" fill-rule="evenodd" stroke="none"/>
    <path d="M486.1 385.8 L487.65 385.55 485.95 386.1 486.1 385.8" fill="#ffffff" fill-rule="evenodd" stroke="none"/>
    <path d="M485.4 387.4 L486.35 389.35 485.0 387.6 485.4 387.4" fill="#ffffff" fill-rule="evenodd" stroke="none"/>
    <path d="M486.35 389.35 L486.4 390.3 486.05 389.4 486.35 389.35" fill="#ffffff" fill-rule="evenodd" stroke="none"/>
    <path d="M484.85 384.25 L486.2 385.8 485.25 387.65 482.35 388.0 481.15 386.25 482.6 387.65 485.0 387.35 485.7 385.8 484.85 384.25" fill="#ffffff" fill-rule="evenodd" stroke="none"/>
    <path d="M482.1 384.65 L481.35 386.55 481.15 386.25 482.1 384.65" fill="#ffffff" fill-rule="evenodd" stroke="none"/>
    <path d="M52.55 436.15 L54.25 438.15" fill="none" stroke="#624729" stroke-linecap="round" stroke-linejoin="round" stroke-width="0.05"/>
    <path d="M52.85 436.45 L62.45 436.2 68.1 441.4 67.7 444.1 65.2 449.3 54.2 448.9 53.95 448.85 53.7 448.7 53.6 448.5 50.1 444.85 48.6 441.4 52.85 436.45" fill="#af691c" fill-rule="evenodd" stroke="none"/>
    <path d="M67.65 440.6 L67.3 443.2 64.75 448.35 53.9 447.95 49.95 444.0 48.65 440.6 67.65 440.6" fill="#d271ab" fill-rule="evenodd" stroke="none"/>
    <path d="M48.7 440.75 L52.85 436.0 62.2 435.8 67.7 440.8 64.7 446.9 53.45 446.55 48.7 440.75" fill="#f0a5d2" fill-rule="evenodd" stroke="none"/>
    <path d="M48.7 440.75 L52.85 436.0 62.2 435.8 67.7 440.8 48.7 440.75" fill="#ffc4e7" fill-rule="evenodd" stroke="none"/>
    <path d="M54.7 437.75 L60.95 437.45 64.2 440.55 61.95 443.8 55.35 443.55 52.45 440.25 54.7 437.75" fill="#fce3f2" fill-rule="evenodd" stroke="none"/>
    <path d="M55.45 443.2 L54.6 446.3 64.7 447.0 53.35 446.85 55.45 443.2" fill="#ffffff" fill-rule="evenodd" stroke="none"/>
    <path d="M53.45 446.55 L54.2 446.65 54.2 448.15 53.6 447.9 53.45 446.55" fill="#ffffff" fill-rule="evenodd" stroke="none"/>
    <path d="M49.1 441.2 L52.95 440.1 50.1 441.35 53.45 446.55 49.1 441.2" fill="#ffffff" fill-rule="evenodd" stroke="none"/>
    <path d="M60.6 437.4 L62.2 435.8 61.2 437.75 60.6 437.4" fill="#ffffff" fill-rule="evenodd" stroke="none"/>
    <path d="M64.1 440.75 L67.7 440.8 63.7 441.25 64.1 440.75" fill="#ffffff" fill-rule="evenodd" stroke="none"/>
    <path d="M62.45 443.3 L64.7 446.9 61.45 443.55 62.45 443.3" fill="#ffffff" fill-rule="evenodd" stroke="none"/>
    <path d="M64.7 446.9 L64.85 448.5 63.95 446.9 64.7 446.9" fill="#ffffff" fill-rule="evenodd" stroke="none"/>
    <path d="M61.2 437.75 L64.35 440.75 62.1 443.7 55.35 443.55 52.45 440.25 55.85 443.0 61.45 443.1 63.2 440.65 61.2 437.75" fill="#ffffff" fill-rule="evenodd" stroke="none"/>
    <path d="M54.7 437.75 L52.95 440.85 52.45 440.25 54.7 437.75" fill="#ffffff" fill-rule="evenodd" stroke="none"/>
    <path d="M52.35 436.15 L54.5 437.75 54.0 438.05 52.35 436.15" fill="#ffffff" fill-rule="evenodd" stroke="none"/>
  </g>
</svg>
