<?xml version="1.0" encoding="UTF-8" standalone="no"?>
<svg xmlns:xlink="http://www.w3.org/1999/xlink" height="65.65px" width="241.6px" xmlns="http://www.w3.org/2000/svg">
  <g transform="matrix(1.0, 0.0, 0.0, 1.0, 10.5, 6.3)">
    <path d="M43.15 29.85 L32.2 38.75 33.45 33.65 29.25 46.95 29.2 46.95 25.1 54.35 12.4 46.35 -4.35 46.55 -4.3 46.45 -0.7 30.1 -5.5 15.65 -1.2 9.45 -1.2 9.4 -1.15 9.35 14.2 7.9 26.7 -1.3 32.95 12.85 45.5 21.85 43.15 29.85" fill="#ffd925" fill-rule="evenodd" stroke="none"/>
    <path d="M43.15 29.85 L32.2 38.75 33.45 33.65 29.25 46.95 29.2 46.95 25.1 54.35 12.4 46.35 -4.35 46.55 -4.3 46.45 -0.7 30.1 -5.5 15.65 -1.2 9.45 -1.2 9.4 -1.15 9.35 14.2 7.9 26.7 -1.3 32.95 12.85 45.5 21.85 43.15 29.85 Z" fill="none" stroke="#ffffff" stroke-linecap="round" stroke-linejoin="round" stroke-width="10.0"/>
    <path d="M204.4 9.55 Q213.4 9.55 219.75 15.9 226.1 22.25 226.1 31.25 226.1 40.3 219.75 46.65 213.4 53.0 204.4 53.0 L37.1 53.0 Q28.1 53.0 21.75 46.65 15.4 40.3 15.4 31.25 15.4 22.25 21.75 15.9 28.1 9.55 37.1 9.55 L204.4 9.55" fill="url(#gradient0)" fill-rule="evenodd" stroke="none"/>
    <path d="M204.4 9.55 L37.1 9.55 Q28.1 9.55 21.75 15.9 15.4 22.25 15.4 31.25 15.4 40.3 21.75 46.65 28.1 53.0 37.1 53.0 L204.4 53.0 Q213.4 53.0 219.75 46.65 226.1 40.3 226.1 31.25 226.1 22.25 219.75 15.9 213.4 9.55 204.4 9.55 Z" fill="none" stroke="#ffffff" stroke-linecap="round" stroke-linejoin="round" stroke-width="10.0"/>
    <path d="M204.4 9.55 Q213.4 9.55 219.75 15.9 226.1 22.25 226.1 31.25 226.1 40.3 219.75 46.65 213.4 53.0 204.4 53.0 L37.1 53.0 Q28.1 53.0 21.75 46.65 15.4 40.3 15.4 31.25 15.4 22.25 21.75 15.9 28.1 9.55 37.1 9.55 L204.4 9.55" fill="url(#gradient1)" fill-rule="evenodd" stroke="none"/>
    <path d="M204.4 9.55 L37.1 9.55 Q28.1 9.55 21.75 15.9 15.4 22.25 15.4 31.25 15.4 40.3 21.75 46.65 28.1 53.0 37.1 53.0 L204.4 53.0 Q213.4 53.0 219.75 46.65 226.1 40.3 226.1 31.25 226.1 22.25 219.75 15.9 213.4 9.55 204.4 9.55 Z" fill="none" stroke="#b14d00" stroke-linecap="round" stroke-linejoin="round" stroke-width="4.0"/>
    <path d="M204.4 9.55 Q213.4 9.55 219.75 15.9 226.1 22.25 226.1 31.25 226.1 40.3 219.75 46.65 213.4 53.0 204.4 53.0 L37.1 53.0 Q28.1 53.0 21.75 46.65 15.4 40.3 15.4 31.25 15.4 22.25 21.75 15.9 28.1 9.55 37.1 9.55 L204.4 9.55" fill="url(#gradient2)" fill-rule="evenodd" stroke="none"/>
    <path d="M226.15 31.25 Q226.15 40.3 219.75 46.65 213.4 53.0 204.4 53.0 L37.15 53.0 Q28.1 53.0 21.75 46.65 15.4 40.3 15.4 31.25 15.4 22.25 21.75 15.9 28.1 9.5 37.15 9.5 L204.4 9.5 Q213.4 9.5 219.75 15.9 226.15 22.25 226.15 31.25" fill="url(#gradient3)" fill-rule="evenodd" stroke="none"/>
    <path d="M214.85 17.0 L214.85 17.1 Q214.85 19.65 213.0 21.5 211.2 23.35 208.6 23.35 L34.75 23.35 Q32.15 23.35 30.3 21.5 28.5 19.65 28.5 17.1 L28.5 17.0 Q28.5 14.4 30.3 12.55 32.15 10.75 34.75 10.75 L208.6 10.75 Q211.2 10.75 213.0 12.55 214.85 14.4 214.85 17.0" fill="url(#gradient4)" fill-rule="evenodd" stroke="none"/>
  </g>
  <defs>
    <linearGradient gradientTransform="matrix(2.0E-4, -0.0258, 0.0265, 2.0E-4, 120.85, 31.2)" gradientUnits="userSpaceOnUse" id="gradient0" spreadMethod="pad" x1="-819.2" x2="819.2">
      <stop offset="0.0" stop-color="#ffc85f"/>
      <stop offset="1.0" stop-color="#ff9900"/>
    </linearGradient>
    <linearGradient gradientTransform="matrix(2.0E-4, -0.0258, 0.0265, 2.0E-4, 120.85, 31.2)" gradientUnits="userSpaceOnUse" id="gradient1" spreadMethod="pad" x1="-819.2" x2="819.2">
      <stop offset="0.0" stop-color="#ffc85f"/>
      <stop offset="1.0" stop-color="#ff9900"/>
    </linearGradient>
    <linearGradient gradientTransform="matrix(0.0, 0.0272, -0.0265, 0.0, 120.4, 32.1)" gradientUnits="userSpaceOnUse" id="gradient2" spreadMethod="pad" x1="-819.2" x2="819.2">
      <stop offset="0.0" stop-color="#ffa110"/>
      <stop offset="1.0" stop-color="#ffd995"/>
    </linearGradient>
    <linearGradient gradientTransform="matrix(0.0, 0.0272, -0.0265, 0.0, 120.4, 32.15)" gradientUnits="userSpaceOnUse" id="gradient3" spreadMethod="pad" x1="-819.2" x2="819.2">
      <stop offset="0.00392156862745098" stop-color="#ec4727"/>
      <stop offset="1.0" stop-color="#f7a72d"/>
    </linearGradient>
    <linearGradient gradientTransform="matrix(0.0, 0.0087, -0.012, 0.0, 104.65, 15.0)" gradientUnits="userSpaceOnUse" id="gradient4" spreadMethod="pad" x1="-819.2" x2="819.2">
      <stop offset="0.0" stop-color="#ffffff"/>
      <stop offset="1.0" stop-color="#ffffff" stop-opacity="0.0"/>
    </linearGradient>
  </defs>
</svg>
