<?xml version="1.0" encoding="UTF-8" standalone="no"?>
<svg xmlns:xlink="http://www.w3.org/1999/xlink" height="63.0px" width="230.6px" xmlns="http://www.w3.org/2000/svg">
  <g transform="matrix(1.0, 0.0, 0.0, 1.0, 5.0, 5.0)">
    <path d="M46.35 29.65 L35.9 38.15 37.1 33.3 33.1 45.95 33.05 45.95 29.15 53.0 17.05 45.4 1.1 45.55 1.15 45.5 4.55 29.9 0.0 16.15 4.1 10.25 4.1 10.2 4.15 10.15 18.75 8.75 30.65 0.0 36.6 13.5 48.55 22.05 46.35 29.65" fill="#ffd925" fill-rule="evenodd" stroke="none"/>
    <path d="M46.35 29.65 L35.9 38.15 37.1 33.3 33.1 45.95 33.05 45.95 29.15 53.0 17.05 45.4 1.1 45.55 1.15 45.5 4.55 29.9 0.0 16.15 4.1 10.25 4.1 10.2 4.15 10.15 18.75 8.75 30.65 0.0 36.6 13.5 48.55 22.05 46.35 29.65 Z" fill="none" stroke="#ffffff" stroke-linecap="round" stroke-linejoin="round" stroke-width="10.0"/>
    <path d="M199.9 10.3 Q208.5 10.3 214.55 16.4 220.6 22.45 220.6 31.0 220.6 39.6 214.55 45.65 208.5 51.7 199.9 51.7 L40.6 51.7 Q32.0 51.7 25.95 45.65 19.9 39.6 19.9 31.0 19.9 22.45 25.95 16.4 32.0 10.3 40.6 10.3 L199.9 10.3" fill="url(#gradient0)" fill-rule="evenodd" stroke="none"/>
    <path d="M199.9 10.3 L40.6 10.3 Q32.0 10.3 25.95 16.4 19.9 22.45 19.9 31.0 19.9 39.6 25.95 45.65 32.0 51.7 40.6 51.7 L199.9 51.7 Q208.5 51.7 214.55 45.65 220.6 39.6 220.6 31.0 220.6 22.45 214.55 16.4 208.5 10.3 199.9 10.3 Z" fill="none" stroke="#ffffff" stroke-linecap="round" stroke-linejoin="round" stroke-width="10.0"/>
    <path d="M199.9 10.3 Q208.5 10.3 214.55 16.4 220.6 22.45 220.6 31.0 220.6 39.6 214.55 45.65 208.5 51.7 199.9 51.7 L40.6 51.7 Q32.0 51.7 25.95 45.65 19.9 39.6 19.9 31.0 19.9 22.45 25.95 16.4 32.0 10.3 40.6 10.3 L199.9 10.3" fill="url(#gradient1)" fill-rule="evenodd" stroke="none"/>
    <path d="M199.9 10.3 L40.6 10.3 Q32.0 10.3 25.95 16.4 19.9 22.45 19.9 31.0 19.9 39.6 25.95 45.65 32.0 51.7 40.6 51.7 L199.9 51.7 Q208.5 51.7 214.55 45.65 220.6 39.6 220.6 31.0 220.6 22.45 214.55 16.4 208.5 10.3 199.9 10.3 Z" fill="none" stroke="#b14d00" stroke-linecap="round" stroke-linejoin="round" stroke-width="4.0"/>
    <path d="M199.9 10.3 Q208.5 10.3 214.55 16.4 220.6 22.45 220.6 31.0 220.6 39.6 214.55 45.65 208.5 51.7 199.9 51.7 L40.6 51.7 Q32.0 51.7 25.95 45.65 19.9 39.6 19.9 31.0 19.9 22.45 25.95 16.4 32.0 10.3 40.6 10.3 L199.9 10.3" fill="url(#gradient2)" fill-rule="evenodd" stroke="none"/>
    <path d="M220.6 31.0 Q220.6 39.6 214.55 45.65 208.5 51.7 199.9 51.7 L40.6 51.7 Q32.0 51.7 25.95 45.65 19.9 39.6 19.9 31.0 19.9 22.45 25.95 16.4 32.0 10.3 40.6 10.3 L199.9 10.3 Q208.5 10.3 214.55 16.4 220.6 22.45 220.6 31.0" fill="url(#gradient3)" fill-rule="evenodd" stroke="none"/>
    <path d="M209.85 17.4 L209.85 17.5 Q209.85 19.95 208.1 21.7 206.35 23.45 203.9 23.45 L38.3 23.45 Q35.85 23.45 34.1 21.7 32.35 19.95 32.35 17.5 L32.35 17.4 Q32.35 14.95 34.1 13.2 35.85 11.45 38.3 11.45 L203.9 11.45 Q206.35 11.45 208.1 13.2 209.85 14.95 209.85 17.4" fill="url(#gradient4)" fill-rule="evenodd" stroke="none"/>
  </g>
  <defs>
    <linearGradient gradientTransform="matrix(2.0E-4, -0.0246, 0.0253, 2.0E-4, 120.35, 31.0)" gradientUnits="userSpaceOnUse" id="gradient0" spreadMethod="pad" x1="-819.2" x2="819.2">
      <stop offset="0.0" stop-color="#ffc85f"/>
      <stop offset="1.0" stop-color="#ff9900"/>
    </linearGradient>
    <linearGradient gradientTransform="matrix(2.0E-4, -0.0246, 0.0253, 2.0E-4, 120.35, 31.0)" gradientUnits="userSpaceOnUse" id="gradient1" spreadMethod="pad" x1="-819.2" x2="819.2">
      <stop offset="0.0" stop-color="#ffc85f"/>
      <stop offset="1.0" stop-color="#ff9900"/>
    </linearGradient>
    <linearGradient gradientTransform="matrix(0.0, 0.0259, -0.0253, 0.0, 119.9, 31.85)" gradientUnits="userSpaceOnUse" id="gradient2" spreadMethod="pad" x1="-819.2" x2="819.2">
      <stop offset="0.0" stop-color="#ffa110"/>
      <stop offset="1.0" stop-color="#ffd995"/>
    </linearGradient>
    <linearGradient gradientTransform="matrix(0.0, 0.0259, -0.0253, 0.0, 119.9, 31.85)" gradientUnits="userSpaceOnUse" id="gradient3" spreadMethod="pad" x1="-819.2" x2="819.2">
      <stop offset="0.00392156862745098" stop-color="#ec4727"/>
      <stop offset="1.0" stop-color="#f7a72d"/>
    </linearGradient>
    <linearGradient gradientTransform="matrix(0.0, 0.0083, -0.0114, 0.0, 104.9, 15.5)" gradientUnits="userSpaceOnUse" id="gradient4" spreadMethod="pad" x1="-819.2" x2="819.2">
      <stop offset="0.0" stop-color="#ffffff"/>
      <stop offset="1.0" stop-color="#ffffff" stop-opacity="0.0"/>
    </linearGradient>
  </defs>
</svg>
