<?xml version="1.0" encoding="UTF-8" standalone="no"?>
<svg xmlns:xlink="http://www.w3.org/1999/xlink" height="30.0px" width="30.0px" xmlns="http://www.w3.org/2000/svg">
  <g transform="matrix(1.0, 0.0, 0.0, 1.0, 0.0, 0.0)">
    <path d="M22.7 0.0 Q24.9 1.15 26.85 3.1 28.8 5.05 30.0 7.35 L30.0 22.6 Q28.8 24.85 26.85 26.8 24.9 28.8 22.6 30.0 L7.4 30.0 Q5.1 28.8 3.1 26.8 1.15 24.85 0.0 22.65 L0.0 7.3 Q1.15 5.05 3.1 3.1 5.05 1.15 7.3 0.0 L22.7 0.0" fill="#ffffff" fill-rule="evenodd" stroke="none"/>
    <path d="M25.95 0.0 L28.05 1.85 30.0 4.15 30.0 7.35 Q28.8 5.05 26.85 3.1 24.9 1.15 22.7 0.0 L25.95 0.0 M30.0 22.6 L30.0 25.85 28.05 28.05 25.85 30.0 22.6 30.0 Q24.9 28.8 26.85 26.8 28.8 24.85 30.0 22.6 M7.4 30.0 L4.15 30.0 1.9 28.05 0.0 25.9 0.0 25.5 0.1 25.3 0.0 25.1 0.1 24.95 0.0 24.85 0.0 23.35 0.0 22.65 Q1.15 24.85 3.1 26.8 5.1 28.8 7.4 30.0 M0.0 7.3 L0.0 4.05 1.9 1.85 4.05 0.0 7.3 0.0 Q5.05 1.15 3.1 3.1 1.15 5.05 0.0 7.3" fill="#ffff5d" fill-rule="evenodd" stroke="none"/>
    <path d="M28.35 0.0 L29.15 0.8 30.0 1.7 30.0 4.15 28.05 1.85 25.95 0.0 28.35 0.0 M30.0 25.85 L30.0 28.3 29.15 29.15 28.3 30.0 25.85 30.0 28.05 28.05 30.0 25.85 M4.15 30.0 L1.75 30.0 0.85 29.15 0.0 28.3 0.0 25.9 1.9 28.05 4.15 30.0 M0.0 4.05 L0.0 1.7 0.85 0.8 1.75 0.0 4.05 0.0 1.9 1.85 0.0 4.05" fill="#ffcc00" fill-rule="evenodd" stroke="none"/>
    <path d="M30.0 1.7 L29.15 0.8 28.35 0.0 30.0 0.0 30.0 1.7 M30.0 28.3 L30.0 30.0 28.3 30.0 29.15 29.15 30.0 28.3 M1.75 30.0 L0.0 30.0 0.0 28.3 0.85 29.15 1.75 30.0 M0.0 1.7 L0.0 0.0 1.75 0.0 0.85 0.8 0.0 1.7" fill="#ff6600" fill-rule="evenodd" stroke="none"/>
  </g>
</svg>
