<?xml version="1.0" encoding="UTF-8" standalone="no"?>
<svg xmlns:xlink="http://www.w3.org/1999/xlink" height="71.6px" width="71.6px" xmlns="http://www.w3.org/2000/svg">
  <g transform="matrix(1.0, 0.0, 0.0, 1.0, 20.8, 20.8)">
    <path d="M34.75 -4.8 Q43.0 3.45 43.0 15.0 43.0 26.75 34.75 34.7 26.65 43.0 15.0 43.0 3.45 43.0 -4.8 34.7 -12.95 26.75 -12.95 15.0 -12.95 3.45 -4.8 -4.8 3.45 -12.9 15.0 -12.9 26.65 -12.9 34.75 -4.8 M31.25 -1.4 Q24.55 -8.2 14.8 -8.2 5.2 -8.2 -1.75 -1.4 -8.5 5.3 -8.5 15.0 -8.5 24.65 -1.75 31.5 5.2 38.25 14.8 38.25 24.55 38.25 31.25 31.5 37.95 24.65 37.95 15.0 37.95 5.3 31.25 -1.4" fill="#ffbd00" fill-rule="evenodd" stroke="none"/>
    <path d="M31.25 -1.4 Q37.95 5.3 37.95 15.0 37.95 24.65 31.25 31.5 24.55 38.25 14.8 38.25 5.2 38.25 -1.75 31.5 -8.5 24.65 -8.5 15.0 -8.5 5.3 -1.75 -1.4 5.2 -8.2 14.8 -8.2 24.55 -8.2 31.25 -1.4 M34.1 15.1 Q34.1 7.0 28.3 1.35 22.75 -4.15 14.75 -4.15 6.7 -4.15 1.0 1.35 -4.65 7.0 -4.65 15.1 -4.65 23.25 1.0 28.75 6.7 34.4 14.75 34.4 22.75 34.4 28.3 28.75 34.1 23.25 34.1 15.1" fill="#fff300" fill-rule="evenodd" stroke="none"/>
    <path d="M37.35 -7.55 Q46.75 1.8 46.75 15.0 46.75 28.2 37.35 37.35 28.15 46.85 14.9 46.85 1.7 46.85 -7.65 37.35 -17.0 28.2 -17.0 15.0 -17.0 1.8 -7.65 -7.55 1.7 -16.6 14.9 -16.6 28.15 -16.6 37.35 -7.55 M34.75 -4.8 Q26.65 -12.9 15.0 -12.9 3.45 -12.9 -4.8 -4.8 -12.95 3.45 -12.95 15.0 -12.95 26.75 -4.8 34.7 3.45 43.0 15.0 43.0 26.65 43.0 34.75 34.7 43.0 26.75 43.0 15.0 43.0 3.45 34.75 -4.8" fill="#ff751a" fill-rule="evenodd" stroke="none"/>
    <path d="M40.2 -10.45 Q50.8 0.05 50.8 15.0 50.8 29.85 40.2 40.2 29.95 50.8 14.9 50.8 -0.05 50.8 -10.55 40.2 -20.8 29.85 -20.8 15.0 -20.8 0.05 -10.55 -10.45 -0.05 -20.8 14.9 -20.8 29.95 -20.8 40.2 -10.45 M37.35 -7.55 Q28.15 -16.6 14.9 -16.6 1.7 -16.6 -7.65 -7.55 -17.0 1.8 -17.0 15.0 -17.0 28.2 -7.65 37.35 1.7 46.85 14.9 46.85 28.15 46.85 37.35 37.35 46.75 28.2 46.75 15.0 46.75 1.8 37.35 -7.55" fill="#b72626" fill-rule="evenodd" stroke="none"/>
    <path d="M30.2 15.1 Q30.2 8.65 25.65 4.1 21.1 -0.3 14.75 -0.3 8.3 -0.3 3.75 4.1 -0.75 8.65 -0.75 15.1 -0.75 21.6 3.75 26.0 8.3 30.5 14.75 30.5 21.1 30.5 25.65 26.0 30.2 21.6 30.2 15.1 M34.1 15.1 Q34.1 23.25 28.3 28.75 22.75 34.4 14.75 34.4 6.7 34.4 1.0 28.75 -4.65 23.25 -4.65 15.1 -4.65 7.0 1.0 1.35 6.7 -4.15 14.75 -4.15 22.75 -4.15 28.3 1.35 34.1 7.0 34.1 15.1" fill="#ffffff" fill-rule="evenodd" stroke="none"/>
  </g>
</svg>
