<?xml version="1.0" encoding="UTF-8" standalone="no"?>
<svg xmlns:xlink="http://www.w3.org/1999/xlink" height="14.3px" width="3.1px" xmlns="http://www.w3.org/2000/svg">
  <g transform="matrix(1.0, 0.0, 0.0, 1.0, 0.15, 0.0)">
    <path d="M0.0 2.8 L2.3 0.4 2.4 11.25 0.2 14.1 0.05 10.7 0.25 9.3 0.25 6.85 0.0 6.25 0.0 2.8" fill="#95e2ef" fill-rule="evenodd" stroke="none"/>
    <path d="M2.05 2.55 L2.1 4.9 0.3 9.65 0.15 7.8 2.05 2.55" fill="#ffffff" fill-rule="evenodd" stroke="none"/>
    <path d="M2.1 0.0 L2.1 1.1 0.1 6.8 0.05 5.65 2.1 0.0" fill="#ffffff" fill-rule="evenodd" stroke="none"/>
    <path d="M2.05 6.05 L2.05 7.05 0.15 12.75 0.05 11.9 2.05 6.05" fill="#ffffff" fill-rule="evenodd" stroke="none"/>
    <path d="M2.7 10.35 L2.25 11.4 0.85 14.1 0.5 14.1 Q0.25 14.0 0.5 13.7 L1.0 12.95 2.15 11.05 1.85 0.4 2.2 0.4 2.45 0.55 2.5 1.0 2.7 10.35" fill="#65d5ef" fill-rule="evenodd" stroke="none"/>
    <path d="M0.25 13.75 L1.95 10.2 2.55 10.55 0.85 14.0 0.4 14.05 Q0.0 14.05 0.25 13.75" fill="#16a0b7" fill-rule="evenodd" stroke="none"/>
    <path d="M0.0 2.85 L1.95 0.35 2.45 0.45 2.5 1.25 1.9 1.05 2.1 10.25 1.95 10.2 1.7 1.2 0.1 3.2 0.0 2.85" fill="#defcff" fill-rule="evenodd" stroke="none"/>
    <path d="M1.85 0.4 L0.1 2.7 0.1 14.05 0.9 14.0 2.7 10.5 2.4 0.5 1.85 0.4 Z" fill="none" stroke="#098693" stroke-linecap="round" stroke-linejoin="round" stroke-width="0.5"/>
  </g>
</svg>
