<?xml version="1.0" encoding="UTF-8" standalone="no"?>
<svg xmlns:xlink="http://www.w3.org/1999/xlink" height="457.6px" width="687.7px" xmlns="http://www.w3.org/2000/svg">
  <g transform="matrix(1.0, 0.0, 0.0, 1.0, -3.5, -42.05)">
    <path d="M483.8 467.55 Q493.45 465.15 507.1 465.15 520.7 465.15 530.35 467.55 540.0 470.0 540.0 473.45 540.0 476.9 530.35 479.3 520.7 481.75 507.1 481.75 493.45 481.75 483.8 479.3 474.15 476.9 474.15 473.45 474.15 470.0 483.8 467.55" fill="url(#gradient0)" fill-rule="evenodd" stroke="none"/>
    <path d="M493.0 457.0 Q493.85 457.45 493.0 459.7 492.1 462.05 491.85 465.2 L491.85 465.65 494.9 465.0 496.15 464.75 496.45 464.7 497.3 463.05 Q498.6 460.75 500.4 458.65 501.0 455.4 502.45 453.45 503.4 452.1 504.45 451.05 506.6 448.85 507.65 448.25 L508.45 447.55 509.15 447.25 509.25 447.35 509.1 448.25 507.85 450.8 507.7 451.1 Q507.25 451.85 506.75 453.35 L505.75 456.3 505.6 456.9 505.1 458.95 504.45 463.05 Q510.2 461.9 512.75 461.85 L515.1 461.75 Q516.0 458.45 517.3 455.7 518.3 453.6 519.55 451.8 520.75 449.85 521.9 448.9 523.4 447.4 524.0 448.7 524.9 450.35 523.4 454.2 521.7 457.45 520.4 462.15 L521.2 462.3 527.4 463.55 528.1 463.65 528.85 464.1 Q529.6 464.6 530.35 465.75 531.2 466.95 531.4 468.7 L531.5 470.05 531.4 472.4 531.2 473.9 Q530.75 476.7 529.85 476.75 L529.6 476.75 528.0 477.05 527.85 476.9 Q527.2 476.85 526.5 476.4 L524.3 475.35 524.1 475.2 522.2 474.5 520.9 474.15 519.1 473.5 518.45 477.5 Q518.15 479.95 518.15 481.9 518.15 484.9 518.95 487.4 L519.1 488.45 518.95 489.35 Q518.75 490.35 517.9 490.5 L517.7 490.25 517.55 490.2 517.55 490.1 Q515.95 488.7 515.2 486.65 L514.6 485.3 514.15 483.85 Q513.15 480.6 512.9 476.7 512.6 473.75 512.85 472.0 L512.7 472.0 509.15 471.7 506.3 471.5 506.35 472.3 506.9 477.15 508.7 482.9 508.85 483.4 509.75 485.15 512.0 488.0 513.15 489.35 513.3 489.9 Q513.3 490.75 512.7 490.4 L512.3 490.35 510.95 489.9 509.4 489.15 509.1 488.85 Q506.6 487.1 504.25 483.25 500.7 477.6 500.7 474.2 500.7 472.7 500.95 471.55 L499.35 471.55 498.65 477.35 Q498.45 481.45 499.25 484.55 499.8 487.4 498.45 488.15 497.6 488.4 496.45 487.05 L495.1 484.45 Q494.65 483.4 494.35 482.2 L494.05 481.8 492.7 479.7 491.85 478.35 Q490.3 475.55 490.0 473.15 L489.85 471.95 488.25 472.0 483.95 472.1 Q480.95 472.0 480.5 471.35 479.95 470.8 482.15 469.3 484.15 467.95 488.4 466.5 L488.45 466.5 489.3 466.3 489.3 464.75 489.3 463.35 489.4 461.5 Q489.45 460.25 490.45 458.2 491.35 456.25 492.95 457.05 L493.0 457.0 M493.85 474.2 L494.0 473.35 494.05 472.9 494.2 471.8 493.0 471.8 493.85 474.2" fill="#eebe59" fill-rule="evenodd" stroke="none"/>
    <path d="M492.95 457.05 Q491.35 456.25 490.45 458.2 489.45 460.25 489.4 461.5 L489.3 463.35 489.3 464.75 489.3 466.3 488.45 466.5 488.4 466.5 Q484.15 467.95 482.15 469.3 479.95 470.8 480.5 471.35 480.95 472.0 483.95 472.1 L488.25 472.0 489.85 471.95 490.0 473.15 Q490.3 475.55 491.85 478.35 L492.7 479.7 494.05 481.8 494.35 482.2 Q494.65 483.4 495.1 484.45 L496.45 487.05 Q497.6 488.4 498.45 488.15 499.8 487.4 499.25 484.55 498.45 481.45 498.65 477.35 L499.35 471.55 500.95 471.55 Q500.7 472.7 500.7 474.2 500.7 477.6 504.25 483.25 506.6 487.1 509.1 488.85 L509.4 489.15 510.95 489.9 512.3 490.35 512.7 490.4 Q513.3 490.75 513.3 489.9 L513.15 489.35 512.0 488.0 509.75 485.15 508.85 483.4 508.7 482.9 506.9 477.15 506.35 472.3 506.3 471.5 509.15 471.7 512.7 472.0 512.85 472.0 Q512.6 473.75 512.9 476.7 513.15 480.6 514.15 483.85 L514.6 485.3 515.2 486.65 Q515.95 488.7 517.55 490.1 L517.55 490.2 517.7 490.25 517.9 490.5 Q518.75 490.35 518.95 489.35 L519.1 488.45 518.95 487.4 Q518.15 484.9 518.15 481.9 518.15 479.95 518.45 477.5 L519.1 473.5 520.9 474.15 522.2 474.5 524.1 475.2 524.3 475.35 526.5 476.4 Q527.2 476.85 527.85 476.9 L528.0 477.05 529.6 476.75 529.85 476.75 Q530.75 476.7 531.2 473.9 L531.4 472.4 531.5 470.05 531.4 468.7 Q531.2 466.95 530.35 465.75 529.6 464.6 528.85 464.1 L528.1 463.65 527.4 463.55 521.2 462.3 520.4 462.15 Q521.7 457.45 523.4 454.2 524.9 450.35 524.0 448.7 523.4 447.4 521.9 448.9 520.75 449.85 519.55 451.8 518.3 453.6 517.3 455.7 516.0 458.45 515.1 461.75 L512.75 461.85 Q510.2 461.9 504.45 463.05 L505.1 458.95 505.6 456.9 505.75 456.3 506.75 453.35 Q507.25 451.85 507.7 451.1 L507.85 450.8 509.1 448.25 509.25 447.35 509.15 447.25 508.45 447.55 507.65 448.25 Q506.6 448.85 504.45 451.05 503.4 452.1 502.45 453.45 501.0 455.4 500.4 458.65 498.6 460.75 497.3 463.05 L496.45 464.7 496.15 464.75 494.9 465.0 491.85 465.65 491.85 465.2 Q492.1 462.05 493.0 459.7 493.85 457.45 493.0 457.0" fill="none" stroke="#3f352b" stroke-linecap="round" stroke-linejoin="round" stroke-width="2.0"/>
    <path d="M493.0 457.0 L492.95 457.05 Z" fill="none" stroke="#512a0c" stroke-linecap="round" stroke-linejoin="round" stroke-width="2.0"/>
    <path d="M505.9 468.55 L506.35 468.85 508.3 469.3 509.15 469.5 512.15 469.9 512.6 469.9 512.9 469.8 513.15 468.7 Q513.15 466.15 510.15 465.9 L509.75 465.9 509.1 465.9 Q506.3 466.15 505.9 467.7 L505.85 468.4 505.6 467.35 Q505.6 466.5 506.05 465.6 L506.65 464.55 Q508.85 462.65 511.55 463.7 514.15 464.85 514.75 466.2 L515.4 467.95 515.2 469.5 514.8 470.3 Q514.45 471.1 511.55 471.1 509.55 471.1 506.95 470.05 L506.2 469.05 505.9 468.55 M522.2 474.5 L521.75 474.15 520.25 472.4 519.85 471.85 519.55 470.8 Q519.25 470.05 519.4 467.95 519.5 465.85 521.4 465.0 523.2 464.15 523.8 464.3 L524.3 464.4 Q525.35 464.6 525.6 465.45 L525.15 466.05 Q524.4 467.85 524.4 469.8 524.4 472.9 525.75 475.35 L526.5 476.4 524.3 475.35 524.1 475.2 522.2 474.5" fill="#c9b37f" fill-rule="evenodd" stroke="none"/>
    <path d="M505.85 468.4 L505.9 467.7 Q506.3 466.15 509.1 465.9 L509.75 465.9 510.15 465.9 Q513.15 466.15 513.15 468.7 L512.9 469.8 512.6 469.9 512.15 469.9 509.15 469.5 508.3 469.3 506.35 468.85 505.9 468.55 505.85 468.4" fill="#e9e1c3" fill-rule="evenodd" stroke="none"/>
    <path d="M505.9 468.55 L506.2 469.05 506.95 470.05 Q509.55 471.1 511.55 471.1 514.45 471.1 514.8 470.3 L515.2 469.5 515.4 467.95 514.75 466.2 Q514.15 464.85 511.55 463.7 508.85 462.65 506.65 464.55 L506.05 465.6 Q505.6 466.5 505.6 467.35 L505.85 468.4 505.9 468.55 M525.6 465.45 Q525.35 464.6 524.3 464.4 L523.8 464.3 Q523.2 464.15 521.4 465.0 519.5 465.85 519.4 467.95 519.25 470.05 519.55 470.8 L519.85 471.85 520.25 472.4 521.75 474.15 522.2 474.5 520.9 474.15 516.7 472.9 512.7 472.0 509.15 471.7 502.8 471.5 490.75 471.95 488.25 472.0 483.95 472.1 Q480.95 472.0 480.5 471.35 479.95 470.8 482.15 469.3 484.15 467.95 488.4 466.5 L488.45 466.5 494.9 465.0 496.15 464.75 Q508.7 462.0 512.75 461.85 L521.2 462.3 527.4 463.55 528.1 463.65 Q526.5 463.85 525.6 465.45 M487.95 467.95 L487.8 467.7 485.55 468.6 Q483.55 469.2 482.6 470.3 481.4 471.5 484.45 471.5 L487.5 471.25 487.55 471.2 Q488.1 470.0 488.1 468.85 L487.95 467.95" fill="#726045" fill-rule="evenodd" stroke="none"/>
    <path d="M525.6 465.45 Q526.5 463.85 528.1 463.65 L528.85 464.1 Q529.6 464.6 530.35 465.75 531.2 466.95 531.4 468.7 L529.9 468.85 531.5 470.05 531.4 472.4 531.2 473.9 530.3 473.05 Q529.6 472.3 529.15 472.55 528.6 472.9 528.75 473.15 L529.7 474.75 Q530.35 476.15 529.6 476.75 L528.0 477.05 527.85 476.9 Q527.2 476.85 526.5 476.4 L525.75 475.35 Q524.4 472.9 524.4 469.8 524.4 467.85 525.15 466.05 L525.6 465.45" fill="#f5f2e5" fill-rule="evenodd" stroke="none"/>
    <path d="M487.95 467.95 L488.1 468.85 Q488.1 470.0 487.55 471.2 L487.5 471.25 484.45 471.5 Q481.4 471.5 482.6 470.3 483.55 469.2 485.55 468.6 L487.8 467.7 487.95 467.95" fill="#a3986f" fill-rule="evenodd" stroke="none"/>
    <path d="M531.4 468.7 L531.5 470.05 529.9 468.85 531.4 468.7 M531.2 473.9 Q530.75 476.7 529.85 476.75 L529.6 476.75 Q530.35 476.15 529.7 474.75 L528.75 473.15 Q528.6 472.9 529.15 472.55 529.6 472.3 530.3 473.05 L531.2 473.9" fill="#b8ae89" fill-rule="evenodd" stroke="none"/>
    <path d="M514.6 485.3 L515.35 485.5 515.4 485.5 Q516.1 485.5 516.4 484.25 L516.4 484.15 516.3 482.1 516.25 478.8 516.25 475.8 Q516.15 474.9 516.4 473.2 516.55 471.55 516.3 470.95 516.1 470.35 515.55 469.9 L514.65 469.2 513.9 468.9 513.45 468.9 513.55 468.6 514.3 468.15 514.95 468.1 Q516.75 468.1 517.2 470.6 L517.4 472.45 517.3 474.75 517.2 475.4 517.15 476.3 517.05 481.0 517.15 482.1 Q517.2 483.85 517.4 485.05 L517.6 486.65 517.7 486.9 517.75 487.1 518.15 488.75 Q518.15 489.9 517.7 490.25 L517.55 490.2 517.55 490.1 Q515.95 488.7 515.2 486.65 L514.6 485.3" fill="#d7cda7" fill-rule="evenodd" stroke="none"/>
    <path d="M513.45 468.9 L513.9 468.9 514.65 469.2 515.55 469.9 Q516.1 470.35 516.3 470.95 516.55 471.55 516.4 473.2 516.15 474.9 516.25 475.8 L516.25 478.8 516.3 482.1 516.4 484.15 516.4 484.25 Q516.1 485.5 515.4 485.5 L515.35 485.5 514.6 485.3 514.15 483.85 Q513.15 480.6 512.9 476.7 512.55 472.75 513.0 471.05 L513.45 468.9" fill="#fffbee" fill-rule="evenodd" stroke="none"/>
    <path d="M517.7 490.25 Q518.15 489.9 518.15 488.75 L517.75 487.1 517.7 486.9 517.6 486.65 517.4 485.05 Q517.2 483.85 517.15 482.1 L517.05 481.0 517.15 476.3 517.2 475.4 517.3 474.75 517.4 472.45 517.2 470.6 Q516.75 468.1 514.95 468.1 L514.3 468.15 513.55 468.6 513.55 468.45 Q514.6 467.65 515.65 467.65 516.75 467.65 517.6 468.55 L518.15 469.35 518.35 470.2 518.9 472.9 518.95 473.3 519.1 473.3 518.45 477.5 Q518.15 479.95 518.15 481.9 518.15 484.9 518.95 487.4 L519.1 488.45 518.95 489.35 Q518.75 490.35 517.9 490.5 L517.7 490.25" fill="#b8ae89" fill-rule="evenodd" stroke="none"/>
    <path d="M521.9 448.9 Q522.65 449.85 522.45 451.65 L519.95 461.45 519.85 461.85 519.7 461.85 Q518.8 464.4 517.85 465.65 L517.75 465.75 517.55 465.85 517.45 465.9 517.45 466.0 516.55 466.65 516.15 466.8 515.4 466.75 Q514.95 466.3 514.5 465.05 L514.45 464.7 514.65 463.35 515.25 464.0 516.4 464.15 Q517.55 464.0 518.05 463.35 518.9 461.0 518.95 459.1 518.9 457.45 518.15 456.6 L517.3 455.7 Q518.3 453.6 519.55 451.8 520.75 449.85 521.9 448.9" fill="#d7cda7" fill-rule="evenodd" stroke="none"/>
    <path d="M514.65 463.35 Q515.7 459.05 517.3 455.7 L518.15 456.6 Q518.9 457.45 518.95 459.1 518.9 461.0 518.05 463.35 517.55 464.0 516.4 464.15 L515.25 464.0 514.65 463.35" fill="#f7f0d5" fill-rule="evenodd" stroke="none"/>
    <path d="M521.9 448.9 Q523.4 447.4 524.0 448.7 524.9 450.35 523.4 454.2 521.55 457.75 520.15 463.1 L519.95 463.85 518.75 465.45 516.55 466.65 517.45 466.0 517.45 465.9 517.55 465.85 517.7 465.85 517.75 465.75 517.85 465.65 Q518.8 464.4 519.7 461.85 L519.85 461.85 519.95 461.45 522.45 451.65 Q522.65 449.85 521.9 448.9" fill="#b8ae89" fill-rule="evenodd" stroke="none"/>
    <path d="M517.75 465.75 L517.7 465.85 517.55 465.85 517.75 465.75" fill="#e9e1c3" fill-rule="evenodd" stroke="none"/>
    <path d="M492.95 457.05 L493.0 457.0 Q493.85 457.45 493.0 459.7 492.1 462.05 491.85 465.2 L491.85 467.35 491.8 468.3 Q491.8 469.3 492.15 471.95 L492.55 475.35 Q492.55 477.35 492.0 478.1 490.8 475.55 490.5 473.2 L489.9 469.2 Q489.7 468.3 489.75 467.05 L489.85 465.0 489.75 463.55 489.85 461.7 489.9 461.2 490.8 462.0 Q491.7 462.2 492.1 460.7 492.4 459.65 491.4 459.5 L490.6 459.4 490.45 459.35 490.8 458.6 491.05 458.75 491.5 458.8 491.65 458.6 491.1 458.0 491.4 457.5 Q492.0 456.9 492.95 457.05" fill="#d7cda7" fill-rule="evenodd" stroke="none"/>
    <path d="M492.95 457.05 Q492.0 456.9 491.4 457.5 L491.1 458.0 491.65 458.6 491.5 458.8 491.05 458.75 490.8 458.6 490.45 459.35 490.6 459.4 491.4 459.5 Q492.4 459.65 492.1 460.7 491.7 462.2 490.8 462.0 L489.9 461.2 489.85 461.7 489.75 463.55 489.85 465.0 489.75 467.05 Q489.7 468.3 489.9 469.2 L490.5 473.2 Q490.8 475.55 492.0 478.1 L491.85 478.35 Q490.3 475.55 490.0 473.15 L489.55 469.15 Q489.3 468.25 489.3 466.95 L489.3 464.75 489.3 463.35 489.4 461.5 Q489.45 460.25 490.45 458.2 491.35 456.25 492.95 457.05" fill="#e9e1c3" fill-rule="evenodd" stroke="none"/>
    <path d="M492.0 478.1 Q492.55 477.35 492.55 475.35 L492.15 471.95 Q491.8 469.3 491.8 468.3 L491.85 467.35 Q491.95 469.35 492.8 471.25 L492.95 471.7 494.5 476.45 Q494.9 478.6 495.55 480.6 L496.25 484.0 Q495.35 483.8 494.05 481.8 L492.7 479.7 491.85 478.35 492.0 478.1" fill="#b8ae89" fill-rule="evenodd" stroke="none"/>
    <path d="M493.0 457.0 L492.95 457.05" fill="none" stroke="#512a0c" stroke-linecap="round" stroke-linejoin="round" stroke-width="0.05"/>
    <path d="M496.3 464.9 L497.3 463.05 Q499.05 459.95 501.75 457.15 L501.9 456.85 502.45 456.45 502.65 456.4 Q503.55 455.95 503.7 456.4 504.0 456.75 503.65 458.0 L502.15 462.65 Q500.6 465.85 499.95 469.35 L499.5 470.8 Q498.9 473.9 498.65 477.35 498.45 481.45 499.25 484.55 499.8 487.4 498.45 488.15 497.6 488.4 496.45 487.05 497.45 486.95 497.85 485.65 L498.0 482.5 497.85 480.3 498.3 470.3 Q498.3 469.05 497.9 467.85 L497.9 467.8 Q497.6 466.45 497.15 466.05 L496.3 464.9" fill="#a18f6d" fill-rule="evenodd" stroke="none"/>
    <path d="M496.45 487.05 L495.1 484.45 Q494.5 483.05 494.05 481.3 L494.2 481.2 Q495.95 481.0 496.25 479.7 497.0 475.5 497.45 473.8 L498.05 470.5 498.2 469.75 497.9 467.85 Q498.3 469.05 498.3 470.3 L497.85 480.3 498.0 482.5 497.85 485.65 Q497.45 486.95 496.45 487.05 M495.85 466.05 L496.3 464.9 497.15 466.05 496.55 465.9 495.85 466.05" fill="#d7cda7" fill-rule="evenodd" stroke="none"/>
    <path d="M494.05 481.3 Q493.25 477.65 494.0 473.35 L494.05 472.9 Q494.45 469.3 495.85 466.05 L496.55 465.9 497.15 466.05 Q497.6 466.45 497.9 467.8 L497.9 467.85 498.2 469.75 498.05 470.5 497.45 473.8 Q497.0 475.5 496.25 479.7 495.95 481.0 494.2 481.2 L494.05 481.3" fill="#ece4c7" fill-rule="evenodd" stroke="none"/>
    <path d="M507.65 448.25 L508.45 447.55 509.15 447.25 509.25 447.35 509.1 448.25 507.85 450.8 507.7 451.1 Q507.25 451.85 506.75 453.35 L505.75 456.3 505.6 456.9 505.1 458.95 504.25 464.1 503.8 465.2 Q503.55 465.9 502.95 466.2 L501.7 466.5 501.45 466.5 502.65 465.3 Q503.2 464.55 503.4 463.35 L503.8 460.6 504.25 458.2 505.0 455.05 505.6 452.25 505.15 451.4 Q504.75 451.05 504.45 451.05 506.6 448.85 507.65 448.25" fill="#b8ae89" fill-rule="evenodd" stroke="none"/>
    <path d="M500.25 463.35 L500.1 463.25 500.1 463.05 500.1 462.8 Q500.15 461.5 500.7 458.5 501.45 454.75 502.15 454.75 502.6 454.75 502.9 455.55 503.25 456.4 503.25 457.5 L502.75 460.7 502.05 463.2 501.25 463.95 Q500.6 463.95 500.25 463.5 L500.25 463.35" fill="#f7f2dc" fill-rule="evenodd" stroke="none"/>
    <path d="M501.45 466.5 L501.3 466.5 Q500.3 466.35 499.7 465.45 L499.55 465.3 499.5 465.15 500.25 459.2 Q500.95 455.55 502.45 453.45 503.4 452.1 504.45 451.05 504.75 451.05 505.15 451.4 L505.6 452.25 505.0 455.05 504.25 458.2 503.8 460.6 503.4 463.35 Q503.2 464.55 502.65 465.3 L501.45 466.5 M500.25 463.5 Q500.6 463.95 501.25 463.95 L502.05 463.2 502.75 460.7 503.25 457.5 Q503.25 456.4 502.9 455.55 502.6 454.75 502.15 454.75 501.45 454.75 500.7 458.5 500.15 461.5 500.1 462.8 L500.1 463.05 500.1 463.25 500.25 463.35 500.25 463.5 M509.4 489.15 Q509.3 487.1 508.15 484.3 L507.95 483.7 507.05 481.45 506.0 479.2 Q505.55 477.9 504.9 474.2 L504.85 473.5 Q504.15 469.75 502.15 469.75 L502.05 469.75 501.3 470.3 501.6 469.6 Q502.3 468.45 503.55 468.45 L503.8 468.45 Q506.0 468.7 506.35 472.3 L506.9 477.15 508.7 482.9 508.85 483.4 509.75 485.15 512.0 488.0 513.15 489.35 513.3 489.9 Q513.3 490.75 512.7 490.4 L512.3 490.35 510.95 489.9 509.4 489.15" fill="#d7cda7" fill-rule="evenodd" stroke="none"/>
    <path d="M501.3 470.3 L502.05 469.75 502.15 469.75 Q504.15 469.75 504.85 473.5 L504.9 474.2 Q505.55 477.9 506.0 479.2 L507.05 481.45 507.95 483.7 508.15 484.3 Q509.3 487.1 509.4 489.15 L509.1 488.85 Q506.6 487.1 504.25 483.25 500.7 477.6 500.7 474.2 500.7 471.7 501.3 470.3" fill="#f5f0dc" fill-rule="evenodd" stroke="none"/>
    <path d="M500.25 463.35 L500.25 463.5" fill="none" stroke="#41350f" stroke-linecap="round" stroke-linejoin="round" stroke-width="0.05"/>
    <path d="M504.45 451.05 Q506.6 448.85 507.65 448.25" fill="none" stroke="#5d5045" stroke-linecap="round" stroke-linejoin="round" stroke-width="0.05"/>
    <path d="M506.65 485.15 L506.3 484.5 Q506.0 484.45 505.3 484.85 505.1 484.55 505.2 484.2 L505.65 483.6 Q506.15 483.15 506.75 483.45 507.35 483.8 507.1 484.5 L506.65 485.15" fill="#d7cca5" fill-rule="evenodd" stroke="none"/>
    <path d="M506.7 486.35 Q507.1 485.8 507.45 485.95 L507.95 486.6 507.0 486.55 506.7 486.35" fill="#cbbf97" fill-rule="evenodd" stroke="none"/>
    <path d="M506.1 480.9 L506.0 480.6 505.6 480.8 505.5 480.45 505.7 480.25 506.2 480.2 506.3 480.65 506.1 480.9" fill="#b0a787" fill-rule="evenodd" stroke="none"/>
    <path d="M504.65 482.65 Q504.8 482.4 504.95 482.5 L505.2 482.75 504.8 482.7 504.65 482.65" fill="#bdb390" fill-rule="evenodd" stroke="none"/>
    <path d="M641.85 61.95 Q646.4 61.65 649.75 63.2 653.45 64.9 654.45 68.35 655.2 71.0 653.4 74.0 652.6 75.5 650.0 78.3 653.1 76.6 655.25 74.55 L655.3 74.55 655.35 74.5 655.4 74.45 656.1 73.65 657.45 71.85 Q658.1 70.9 658.4 69.65 660.7 69.8 662.65 71.0 L664.2 72.25 Q665.05 73.05 665.35 74.1 666.9 79.65 655.0 85.85 648.4 89.15 641.4 91.3 L639.0 91.45 Q634.1 91.9 630.2 91.65 617.8 91.15 616.2 85.55 615.5 82.95 616.8 81.25 L620.0 78.1 Q617.3 78.9 615.3 81.7 614.35 83.0 613.95 84.1 608.85 84.65 604.4 82.4 606.0 84.2 608.35 85.15 610.55 86.0 613.55 86.25 L613.65 86.7 610.25 88.6 Q608.05 89.8 606.4 90.2 599.6 91.95 594.2 90.25 587.8 88.25 586.05 81.95 585.3 79.4 585.55 76.35 585.8 73.25 587.0 71.85 587.6 72.6 588.5 73.25 L590.7 74.75 Q590.45 74.3 589.75 71.85 588.15 66.1 590.0 61.95 592.15 57.3 598.4 55.7 L600.0 55.4 603.2 55.1 604.95 55.8 Q603.45 56.45 602.0 57.7 599.1 60.25 599.75 62.65 599.9 63.25 600.4 63.85 L601.3 64.85 Q600.2 62.35 601.85 60.15 603.5 57.95 606.5 57.1 605.85 56.45 605.5 55.55 L605.05 54.45 Q604.45 50.15 608.2 46.5 611.25 43.7 615.45 42.6 619.75 41.5 623.9 42.55 628.6 43.75 630.1 47.35 L630.25 47.7 628.85 47.9 626.95 48.8 627.75 48.65 630.55 48.8 Q632.35 49.1 633.7 50.1 635.05 51.05 635.4 52.4 636.05 54.65 634.75 56.6 633.55 58.5 630.7 59.65 L628.6 60.15 626.15 60.4 625.9 60.45 627.5 61.1 629.85 61.75 Q632.8 62.3 637.45 60.6 L638.25 61.65 638.55 62.85 640.35 62.35 641.85 61.95" fill="#ffffff" fill-rule="evenodd" stroke="none"/>
    <path d="M655.4 74.45 L655.35 74.5 655.3 74.55 655.25 74.55 Q653.1 76.6 650.0 78.3 652.6 75.5 653.4 74.0 655.2 71.0 654.45 68.35 653.45 64.9 649.75 63.2 646.4 61.65 641.85 61.95 648.7 60.3 651.8 60.75 656.2 61.45 658.0 65.85 658.45 67.0 658.45 68.8 663.3 69.15 665.7 70.7 669.25 73.0 669.35 75.8 669.5 80.5 659.6 85.6 652.5 89.25 644.95 91.15 638.15 92.95 632.1 93.45 L627.35 93.55 Q616.45 93.45 614.75 89.05 613.35 90.05 612.3 90.8 L609.65 92.4 Q607.95 93.3 607.0 93.5 L602.5 94.5 593.0 94.15 Q586.9 93.15 583.55 87.9 581.3 84.35 581.95 79.35 582.65 74.05 586.65 71.4 585.75 70.3 585.45 69.0 583.85 63.55 587.4 59.7 590.25 56.55 595.65 55.15 L601.4 54.8 603.2 55.1 600.0 55.4 598.4 55.7 Q592.15 57.3 590.0 61.95 588.15 66.1 589.75 71.85 590.45 74.3 590.7 74.75 L588.5 73.25 Q587.6 72.6 587.0 71.85 585.8 73.25 585.55 76.35 585.3 79.4 586.05 81.95 587.8 88.25 594.2 90.25 599.6 91.95 606.4 90.2 608.05 89.8 610.25 88.6 L613.65 86.7 613.55 86.25 Q610.55 86.0 608.35 85.15 606.0 84.2 604.4 82.4 608.85 84.65 613.95 84.1 614.35 83.0 615.3 81.7 617.3 78.9 620.0 78.1 L616.8 81.25 Q615.5 82.95 616.2 85.55 617.8 91.15 630.2 91.65 634.1 91.9 639.0 91.45 L641.4 91.3 Q648.4 89.15 655.0 85.85 666.9 79.65 665.35 74.1 665.05 73.05 664.2 72.25 L662.65 71.0 Q660.7 69.8 658.4 69.65 658.1 70.9 657.45 71.85 L656.1 73.65 655.6 74.2 655.4 74.45" fill="#c0d0ce" fill-rule="evenodd" stroke="none"/>
    <path d="M641.85 61.95 L640.35 62.35 638.55 62.85 638.25 61.65 637.45 60.6 Q632.8 62.3 629.85 61.75 L627.5 61.1 625.9 60.45 626.15 60.4 628.6 60.15 630.7 59.65 Q633.55 58.5 634.75 56.6 636.05 54.65 635.4 52.4 635.05 51.05 633.7 50.1 632.35 49.1 630.55 48.8 L627.75 48.65 626.95 48.8 628.85 47.9 630.25 47.7 Q632.8 47.5 635.65 49.05 638.55 50.6 639.05 52.7 639.65 55.25 638.65 57.55 639.55 57.85 640.6 59.05 641.45 60.25 641.85 61.95 M605.5 55.55 Q605.85 56.45 606.5 57.1 603.5 57.95 601.85 60.15 600.2 62.35 601.3 64.85 L600.4 63.85 Q599.9 63.25 599.75 62.65 599.1 60.25 602.0 57.7 603.45 56.45 604.95 55.8 605.2 55.7 605.5 55.55" fill="#dde7e6" fill-rule="evenodd" stroke="none"/>
    <path d="M119.0 138.45 Q132.1 135.25 138.1 136.15 146.5 137.45 150.0 145.95 150.9 148.15 150.8 151.6 160.15 152.3 164.8 155.25 171.6 159.7 171.85 165.0 172.1 174.1 153.05 183.85 139.4 190.95 124.9 194.6 111.85 198.0 100.2 198.95 95.65 199.25 91.1 199.15 70.1 198.95 66.85 190.5 L62.15 193.9 57.05 196.95 Q53.8 198.75 51.9 199.1 L43.25 201.0 Q36.45 202.5 24.95 200.35 13.3 198.4 6.85 188.35 2.5 181.5 3.8 171.9 5.1 161.7 12.75 156.55 11.1 154.5 10.45 151.95 7.45 141.5 14.2 134.1 19.7 128.05 30.1 125.4 35.15 124.15 41.15 124.75 L44.6 125.3 38.45 125.9 35.45 126.45 Q23.4 129.5 19.25 138.45 15.65 146.4 18.75 157.45 20.15 162.2 20.65 163.05 L16.4 160.2 13.5 157.5 Q11.2 160.2 10.7 166.1 10.15 171.95 11.6 176.95 15.0 189.0 27.3 192.8 37.75 196.05 50.8 192.75 53.9 191.95 58.2 189.65 L64.7 186.05 64.55 185.15 Q58.75 184.65 54.5 183.0 50.05 181.2 46.9 177.75 55.5 182.05 65.25 181.0 66.05 178.9 67.85 176.45 71.75 171.0 76.95 169.5 72.2 173.6 70.75 175.55 68.3 178.8 69.65 183.8 72.7 194.55 96.5 195.55 104.05 196.0 113.5 195.2 L118.05 194.85 Q131.55 190.7 144.25 184.35 167.15 172.45 164.1 161.85 163.55 159.75 161.85 158.25 L158.9 155.85 Q155.2 153.55 150.75 153.25 150.15 155.65 148.95 157.45 148.15 158.8 146.35 161.0 L145.35 162.0 145.2 162.2 144.95 162.4 144.9 162.55 Q144.85 162.55 144.75 162.65 L144.7 162.65 Q140.55 166.6 134.55 169.85 139.65 164.45 141.15 161.65 144.6 155.85 143.15 150.75 141.2 144.1 134.15 140.85 127.65 137.85 119.0 138.45" fill="#c0d0ce" fill-rule="evenodd" stroke="none"/>
    <path d="M44.6 125.3 Q46.55 125.8 48.0 126.6 45.1 127.85 42.3 130.3 36.75 135.15 38.05 139.8 38.35 140.9 39.25 142.15 L41.0 144.0 Q38.9 139.15 42.0 135.0 45.2 130.75 50.95 129.05 49.75 127.9 49.0 126.1 48.35 125.0 48.15 124.0 47.05 115.7 54.2 108.8 60.15 103.35 68.15 101.25 76.45 99.1 84.4 101.1 93.5 103.45 96.4 110.35 L96.6 111.0 93.9 111.45 Q92.35 111.9 90.3 113.1 L91.85 112.8 97.15 113.1 Q100.7 113.75 103.3 115.65 105.85 117.5 106.55 120.1 107.8 124.35 105.35 128.15 102.95 131.8 97.45 134.05 L93.4 135.0 88.8 135.4 88.3 135.55 91.3 136.8 Q93.7 137.65 95.85 138.1 101.6 139.1 110.45 135.85 L112.05 137.85 Q112.6 138.8 112.6 140.2 L116.0 139.15 119.0 138.45 Q127.65 137.85 134.15 140.85 141.2 144.1 143.15 150.75 144.6 155.85 141.15 161.65 139.65 164.45 134.55 169.85 140.55 166.6 144.7 162.65 L144.75 162.65 Q144.85 162.55 144.9 162.55 L144.95 162.4 145.2 162.2 146.35 161.0 Q148.15 158.8 148.95 157.45 150.15 155.65 150.75 153.25 155.2 153.55 158.9 155.85 L161.85 158.25 Q163.55 159.75 164.1 161.85 167.15 172.45 144.25 184.35 131.55 190.7 118.05 194.85 L113.5 195.2 Q104.05 196.0 96.5 195.55 72.7 194.55 69.65 183.8 68.3 178.8 70.75 175.55 72.2 173.6 76.95 169.5 71.75 171.0 67.85 176.45 66.05 178.9 65.25 181.0 55.5 182.05 46.9 177.75 50.05 181.2 54.5 183.0 58.75 184.65 64.55 185.15 L64.7 186.05 58.2 189.65 Q53.9 191.95 50.8 192.75 37.75 196.05 27.3 192.8 15.0 189.0 11.6 176.95 10.15 171.95 10.7 166.1 11.2 160.2 13.5 157.5 L16.4 160.2 20.65 163.05 Q20.15 162.2 18.75 157.45 15.65 146.4 19.25 138.45 23.4 129.5 35.45 126.45 L38.45 125.9 44.6 125.3" fill="#ffffff" fill-rule="evenodd" stroke="none"/>
    <path d="M48.0 126.6 L49.0 126.1 Q49.75 127.9 50.95 129.05 45.2 130.75 42.0 135.0 38.9 139.15 41.0 144.0 L39.25 142.15 Q38.35 140.9 38.05 139.8 36.75 135.15 42.3 130.3 45.1 127.85 48.0 126.6 M96.6 111.0 Q101.5 110.65 107.0 113.6 112.55 116.65 113.55 120.6 114.7 125.55 112.75 129.95 114.5 130.5 116.5 132.9 118.2 135.2 119.0 138.45 L116.0 139.15 112.6 140.2 Q112.6 138.8 112.05 137.85 L110.45 135.85 Q101.6 139.1 95.85 138.1 93.7 137.65 91.3 136.8 L88.3 135.55 88.8 135.4 93.4 135.0 97.45 134.05 Q102.95 131.8 105.35 128.15 107.8 124.35 106.55 120.1 105.85 117.5 103.3 115.65 100.7 113.75 97.15 113.1 L91.85 112.8 90.3 113.1 Q92.35 111.9 93.9 111.45 L96.6 111.0" fill="#dde7e6" fill-rule="evenodd" stroke="none"/>
    <path d="M72.85 364.7 L88.9 378.35 93.35 401.05 Q97.65 425.1 97.3 432.0 98.95 433.0 100.7 435.4 104.95 441.2 106.0 447.1 L107.45 455.8 Q108.6 463.8 107.9 466.05 L95.85 473.25 Q64.8 481.95 46.15 481.6 33.25 481.75 23.4 477.0 L16.1 472.2 12.65 401.8 28.95 363.8 45.95 359.0 72.85 364.7" fill="#bd9542" fill-rule="evenodd" stroke="none"/>
    <path d="M72.85 364.7 L88.9 378.35 93.35 401.05 Q97.65 425.1 97.3 432.0 98.95 433.0 100.7 435.4 104.95 441.2 106.0 447.1 L107.45 455.8 Q108.6 463.8 107.9 466.05 L95.85 473.25 Q64.8 481.95 46.15 481.6 33.25 481.75 23.4 477.0 L16.1 472.2 12.65 401.8 28.95 363.8 45.95 359.0 72.85 364.7 Z" fill="none" stroke="#84612e" stroke-linecap="round" stroke-linejoin="round" stroke-width="4.0"/>
    <path d="M82.05 376.7 L88.9 393.05 Q95.5 412.35 96.35 426.9 98.05 473.55 95.9 473.2 64.8 481.95 46.05 481.65 33.2 481.8 23.4 477.0 19.75 474.8 16.05 472.2 14.55 437.0 12.65 401.85 L82.05 376.7" fill="#936b34" fill-rule="evenodd" stroke="none"/>
    <path d="M28.95 363.8 L34.25 375.8 36.55 389.0 36.6 399.4 Q36.55 411.25 35.45 419.3 34.0 427.45 28.95 425.15 25.8 423.55 22.95 419.75 L14.25 400.85 28.95 363.8" fill="#c6a473" fill-rule="evenodd" stroke="none"/>
    <path d="M28.95 363.8 Q37.45 361.6 45.95 359.0 L72.8 364.7 89.7 379.3 74.3 405.7 Q71.45 410.15 69.45 406.55 L56.7 387.3 48.75 386.85 31.4 377.7 28.95 363.8" fill="#e5d3ad" fill-rule="evenodd" stroke="none"/>
    <path d="M46.75 391.85 L56.3 389.15 56.15 404.6 33.95 427.1 51.1 479.7 30.6 424.15 43.35 401.05 46.75 391.85" fill="#c6a473" fill-rule="evenodd" stroke="none"/>
    <path d="M34.5 387.55 Q35.2 385.3 36.4 384.05 L37.35 383.15 50.05 390.25 49.45 407.15 Q43.7 415.4 37.6 423.3 L42.85 437.05 36.1 441.45 30.9 428.0 34.5 387.55" fill="#e0c48f" fill-rule="evenodd" stroke="none"/>
    <path d="M62.4 399.15 Q61.0 393.3 64.35 394.2 66.95 394.4 70.8 398.0 71.3 398.7 80.35 388.75 89.4 378.8 89.65 379.25 92.7 394.4 98.7 431.6 L80.9 456.85 Q63.25 481.4 64.5 478.05 64.95 476.9 57.65 449.5 L71.55 430.5 69.9 400.75 62.4 399.15" fill="#ad9065" fill-rule="evenodd" stroke="none"/>
    <path d="M30.1 370.4 L31.4 377.7 48.75 386.85 55.8 385.95 62.3 393.45 72.95 394.8 86.7 381.7 73.25 400.9 60.45 395.95 56.35 389.15 50.0 390.8 30.8 380.7 30.1 370.4" fill="#fdfcfb" fill-rule="evenodd" stroke="none"/>
    <path d="M60.35 395.95 L72.75 400.95 71.85 428.35 55.65 421.9 60.35 395.95" fill="#c6a473" fill-rule="evenodd" stroke="none"/>
    <path d="M104.25 445.6 L106.8 453.75 Q109.0 462.3 107.85 466.1 102.7 469.2 100.9 469.15 99.05 469.1 98.05 465.3 L91.55 456.8 Q86.4 450.15 87.85 442.0 90.05 440.2 97.25 442.5 101.1 444.0 104.25 445.6" fill="#c6a473" fill-rule="evenodd" stroke="none"/>
    <path d="M91.95 454.95 L93.85 455.7 Q95.8 456.75 96.8 458.35 97.7 459.3 103.55 461.85 105.3 463.7 102.85 465.9 L99.6 470.1 Q97.45 472.2 96.15 470.7 88.6 460.55 88.8 459.75 L91.95 454.95" fill="#e5d3ad" fill-rule="evenodd" stroke="none"/>
    <path d="M91.4 447.85 Q87.95 446.7 87.5 442.05 87.0 437.15 91.6 432.75 95.95 428.8 100.65 435.45 104.9 441.15 105.95 447.05 106.65 450.9 104.7 452.35 L101.15 452.25 Q100.2 450.95 95.55 449.25 L91.4 447.85" fill="#d9bc88" fill-rule="evenodd" stroke="none"/>
    <path d="M35.9 498.45 L34.0 499.65 39.35 493.15 40.05 492.5 34.3 488.25 19.75 487.6 33.9 484.6 45.6 490.9 64.6 488.6 64.9 488.65 63.45 488.95 43.4 495.1 42.0 494.05 35.9 498.45" fill="#a05b10" fill-rule="evenodd" stroke="none"/>
    <path d="M63.45 488.95 L43.9 497.0 41.8 495.15 35.9 498.45 42.0 494.05 43.4 495.1 63.45 488.95" fill="#ffffff" fill-rule="evenodd" stroke="none"/>
    <path d="M45.3 469.45 Q54.65 470.9 54.3 471.15 L50.8 478.4 56.65 487.95 Q56.9 488.3 56.6 489.0 L41.7 491.6 45.3 469.45" fill="#a27f46" fill-rule="evenodd" stroke="none"/>
    <path d="M61.9 467.15 L63.6 473.25 Q65.4 479.95 64.7 483.05 61.35 485.45 60.1 485.3 58.85 485.3 58.1 482.3 L53.4 475.45 Q49.75 470.1 50.75 463.9 52.15 462.4 57.1 464.65 59.6 465.65 61.9 467.15" fill="#c6a473" fill-rule="evenodd" stroke="none"/>
    <path d="M36.0 468.35 L45.85 469.15 46.75 470.85 Q47.65 473.35 46.75 477.7 45.2 484.35 47.45 486.5 L44.65 489.45 41.7 491.6 38.4 488.1 36.0 468.35" fill="#e0c48f" fill-rule="evenodd" stroke="none"/>
    <path d="M54.2 488.4 L53.0 487.55 Q52.25 486.65 49.85 486.05 47.45 485.2 47.35 482.35 L47.65 479.4 48.95 477.3 Q50.2 475.15 51.1 474.4 52.1 473.8 53.35 474.0 L54.25 474.25 60.25 486.1 Q56.95 489.75 54.2 488.4" fill="#84612e" fill-rule="evenodd" stroke="none"/>
    <path d="M61.3 482.75 L59.35 485.85 Q57.8 487.55 56.95 486.25 51.5 478.9 51.7 477.65 L53.55 473.95 54.95 474.75 Q56.3 475.6 56.95 476.7 58.3 478.55 61.6 479.8 62.85 480.85 61.3 482.75" fill="#e5d3ad" fill-rule="evenodd" stroke="none"/>
    <path d="M29.6 462.85 Q29.2 459.4 33.55 464.05 L37.8 469.25 37.8 476.35 Q38.05 483.75 39.65 486.8 42.75 492.7 39.9 491.95 36.85 491.25 35.45 489.0 34.9 488.3 31.9 486.5 28.95 484.95 28.75 483.95 28.45 482.15 28.45 477.55 28.6 472.4 29.35 470.75 30.15 469.4 29.9 465.9 L29.6 462.85" fill="#c6a473" fill-rule="evenodd" stroke="none"/>
    <path d="M59.5 459.25 Q62.3 463.5 63.1 468.15 63.65 471.15 62.4 472.2 61.15 473.45 60.0 472.0 59.05 471.15 56.15 469.8 L53.2 468.45 Q50.95 467.35 50.55 463.95 50.1 460.1 53.0 456.85 56.0 453.85 59.5 459.25" fill="#d9bc88" fill-rule="evenodd" stroke="none"/>
    <path d="M36.35 455.25 L44.8 453.75 56.65 456.4 52.9 465.55 49.85 470.7 48.0 467.25 35.1 466.85 29.6 461.6 36.35 455.25" fill="#e5d3ad" fill-rule="evenodd" stroke="none"/>
    <path d="M51.4 471.25 L46.1 469.5 37.8 469.25 33.1 465.15 37.4 467.05 45.45 466.7 49.9 467.55 56.15 458.2 51.4 471.25" fill="#f2ede4" fill-rule="evenodd" stroke="none"/>
    <path d="M675.75 359.8 Q679.6 366.9 676.75 380.0 L676.7 380.15 675.3 385.7 674.75 387.45 Q667.05 413.1 656.1 415.25 L655.75 430.5 659.0 427.8 661.7 425.15 Q661.65 424.75 661.95 424.25 662.55 423.25 663.3 422.5 664.15 421.6 664.3 421.6 L664.4 421.55 Q664.75 421.6 664.75 422.85 L664.75 423.2 Q666.15 422.65 666.65 423.6 667.7 425.05 666.15 428.9 L665.55 430.05 665.45 430.15 Q664.35 432.55 663.05 434.45 662.2 436.1 660.2 438.45 657.95 441.45 655.45 443.3 L655.45 456.55 Q655.2 459.45 652.1 462.25 L650.85 463.2 Q647.9 465.25 644.3 465.7 639.65 466.1 633.2 464.4 626.0 462.5 623.95 457.25 622.7 453.7 623.3 445.0 617.25 445.1 614.05 442.1 610.95 439.3 609.5 432.9 607.9 424.45 609.05 415.75 610.75 402.75 618.3 389.4 622.7 384.45 622.2 392.3 L621.05 399.2 Q620.75 404.0 621.45 406.9 L621.85 406.45 Q622.75 405.5 623.0 405.6 L623.0 405.7 623.25 407.2 623.0 409.75 623.0 410.1 Q624.45 411.75 626.85 411.7 628.8 395.15 633.6 377.0 L634.1 375.5 Q637.5 362.05 642.95 359.4 644.8 358.3 647.2 358.85 L648.3 359.15 Q653.2 361.2 655.25 371.55 655.95 370.95 656.25 371.1 L656.25 371.25 656.3 372.5 656.25 374.7 655.95 375.45 Q656.65 380.8 656.75 388.0 661.95 387.25 666.3 373.35 665.55 373.15 665.6 372.35 665.65 370.7 666.35 369.45 666.85 368.4 667.2 368.45 L667.2 368.65 667.5 369.3 668.9 363.7 669.9 360.9 Q672.2 355.1 675.75 359.8" fill="#5b9311" fill-rule="evenodd" stroke="none"/>
    <path d="M675.75 359.8 Q679.6 366.9 676.75 380.0 L676.7 380.15 675.3 385.7 674.75 387.45 Q667.05 413.1 656.1 415.25 L655.75 430.5 659.0 427.8 661.7 425.15 Q661.65 424.75 661.95 424.25 662.55 423.25 663.3 422.5 664.15 421.6 664.3 421.6 L664.4 421.55 Q664.75 421.6 664.75 422.85 L664.75 423.2 Q666.15 422.65 666.65 423.6 667.7 425.05 666.15 428.9 L665.55 430.05 665.45 430.15 Q664.35 432.55 663.05 434.45 662.2 436.1 660.2 438.45 657.95 441.45 655.45 443.3 L655.45 456.55 Q655.2 459.45 652.1 462.25 L650.85 463.2 Q647.9 465.25 644.3 465.7 639.65 466.1 633.2 464.4 626.0 462.5 623.95 457.25 622.7 453.7 623.3 445.0 617.25 445.1 614.05 442.1 610.95 439.3 609.5 432.9 607.9 424.45 609.05 415.75 610.75 402.75 618.3 389.4 622.7 384.45 622.2 392.3 L621.05 399.2 Q620.75 404.0 621.45 406.9 L621.85 406.45 Q622.75 405.5 623.0 405.6 L623.0 405.7 623.25 407.2 623.0 409.75 623.0 410.1 Q624.45 411.75 626.85 411.7 628.8 395.15 633.6 377.0 L634.1 375.5 Q637.5 362.05 642.95 359.4 644.8 358.3 647.2 358.85 L648.3 359.15 Q653.2 361.2 655.25 371.55 655.95 370.95 656.25 371.1 L656.25 371.25 656.3 372.5 656.25 374.7 655.95 375.45 Q656.65 380.8 656.75 388.0 661.95 387.25 666.3 373.35 665.55 373.15 665.6 372.35 665.65 370.7 666.35 369.45 666.85 368.4 667.2 368.45 L667.2 368.65 667.5 369.3 668.9 363.7 669.9 360.9 Q672.2 355.1 675.75 359.8 Z" fill="none" stroke="#305400" stroke-linecap="round" stroke-linejoin="round" stroke-width="3.5"/>
    <path d="M669.9 360.85 Q672.25 355.1 675.75 359.8 679.7 366.9 676.8 380.0 L676.7 380.15 Q673.3 391.65 669.45 397.9 661.9 410.5 656.5 410.1 L656.85 396.1 Q660.35 400.1 666.15 394.8 674.15 382.5 674.5 371.8 675.4 363.6 673.15 360.35 672.15 358.85 669.9 360.85" fill="#559109" fill-rule="evenodd" stroke="none"/>
    <path d="M670.45 366.2 L671.0 365.4 671.4 365.6 671.55 366.85 Q671.75 368.35 671.4 371.45 670.95 375.0 670.2 376.85 L668.6 380.6 Q666.95 383.55 664.4 383.0 666.0 381.25 667.65 375.35 669.1 369.4 670.05 367.05 L670.45 366.2" fill="#98d951" fill-rule="evenodd" stroke="none"/>
    <path d="M656.8 388.0 Q663.55 387.05 668.9 363.6 L669.9 360.85 Q672.15 358.85 673.15 360.35 675.4 363.6 674.5 371.8 674.15 382.5 666.15 394.8 660.35 400.1 656.85 396.1 L656.8 388.0 M670.45 366.2 L670.05 367.05 Q669.1 369.4 667.65 375.35 666.0 381.25 664.4 383.0 666.95 383.55 668.6 380.6 L670.2 376.85 Q670.95 375.0 671.4 371.45 671.75 368.35 671.55 366.85 L671.4 365.6 671.0 365.4 670.45 366.2" fill="#86c740" fill-rule="evenodd" stroke="none"/>
    <path d="M650.55 374.7 Q651.85 381.1 652.1 386.15 L652.65 398.8 Q652.75 410.2 651.3 414.4 L650.05 416.7 Q649.25 417.75 648.3 417.4 646.25 416.7 644.9 409.25 643.45 402.5 643.0 393.0 642.55 383.6 643.25 376.45 643.85 368.7 645.9 367.2 648.55 365.1 650.55 374.7 M650.55 378.2 Q649.4 370.6 647.0 372.15 645.45 373.25 644.7 379.45 643.85 385.0 644.05 392.65 644.1 400.25 644.9 405.7 645.7 411.65 647.3 412.4 648.1 412.7 648.8 411.85 L649.9 410.05 Q651.15 406.8 651.4 397.55 L651.45 387.45 Q651.45 383.5 650.55 378.2" fill="#94d455" fill-rule="evenodd" stroke="none"/>
    <path d="M656.15 415.25 L655.75 430.5 Q654.65 431.3 653.15 431.7 L648.7 432.25 648.0 431.95 645.55 431.8 644.35 431.7 644.05 431.7 641.65 432.2 Q640.15 432.95 639.2 434.95 637.65 437.9 638.5 441.9 638.85 444.45 640.0 445.95 641.05 447.2 642.75 448.1 645.5 449.3 648.75 447.8 650.95 446.9 655.5 443.3 L655.5 456.5 Q655.25 459.45 652.15 462.25 L650.9 463.2 646.2 462.95 Q638.6 460.45 636.05 448.9 633.0 424.9 633.95 397.15 634.8 370.4 643.0 359.4 644.9 358.3 647.25 358.85 L648.35 359.15 Q656.25 362.5 656.8 388.0 L656.85 396.1 656.5 410.1 Q656.25 412.5 656.15 415.15 L656.15 415.25 M650.55 374.7 Q648.55 365.1 645.9 367.2 643.85 368.7 643.25 376.45 642.55 383.6 643.0 393.0 643.45 402.5 644.9 409.25 646.25 416.7 648.3 417.4 649.25 417.75 650.05 416.7 L651.3 414.4 Q652.75 410.2 652.65 398.8 L652.1 386.15 Q651.85 381.1 650.55 374.7" fill="#7eba2f" fill-rule="evenodd" stroke="none"/>
    <path d="M650.55 378.2 Q651.45 383.5 651.45 387.45 L651.4 397.55 Q651.15 406.8 649.9 410.05 L648.8 411.85 Q648.1 412.7 647.3 412.4 645.7 411.65 644.9 405.7 644.1 400.25 644.05 392.65 643.85 385.0 644.7 379.45 645.45 373.25 647.0 372.15 649.4 370.6 650.55 378.2" fill="#a0e05e" fill-rule="evenodd" stroke="none"/>
    <path d="M676.7 380.15 L675.3 385.65 674.8 387.45 Q667.05 413.1 656.15 415.25 L656.15 415.15 Q656.25 412.5 656.5 410.1 661.9 410.5 669.45 397.9 673.3 391.65 676.7 380.15" fill="#3c6b00" fill-rule="evenodd" stroke="none"/>
    <path d="M655.75 430.5 L659.0 427.8 659.65 427.8 Q660.15 428.05 660.2 428.45 L659.85 430.1 Q658.75 432.7 654.85 434.95 650.8 437.25 648.1 436.25 647.0 435.9 646.7 435.5 646.25 434.95 646.6 433.9 646.9 433.1 648.7 432.25 L653.15 431.7 Q654.65 431.3 655.75 430.5" fill="#b1d943" fill-rule="evenodd" stroke="none"/>
    <path d="M659.0 427.8 L661.95 424.95 Q665.7 421.85 666.7 423.6 667.7 425.05 666.15 428.9 L665.55 430.05 665.5 430.15 Q663.9 432.75 658.85 437.95 653.7 443.05 648.45 442.6 643.1 442.1 642.15 439.95 641.3 437.75 641.5 436.1 641.4 435.15 642.1 434.15 642.7 433.15 644.05 431.7 L644.35 431.7 645.55 431.8 648.0 431.95 648.7 432.25 Q646.9 433.1 646.6 433.9 646.25 434.95 646.7 435.5 647.0 435.9 648.1 436.25 650.8 437.25 654.85 434.95 658.75 432.7 659.85 430.1 L660.2 428.45 Q660.15 428.05 659.65 427.8 L659.0 427.8" fill="#85b424" fill-rule="evenodd" stroke="none"/>
    <path d="M665.5 430.15 L663.05 434.45 Q662.3 436.1 660.25 438.45 658.0 441.3 655.5 443.3 650.95 446.9 648.75 447.8 645.5 449.3 642.75 448.1 641.05 447.2 640.0 445.95 638.85 444.45 638.5 441.9 637.65 437.9 639.2 434.95 640.15 432.95 641.65 432.2 L644.05 431.7 Q642.7 433.15 642.1 434.15 641.4 435.15 641.5 436.1 641.3 437.75 642.15 439.95 643.1 442.1 648.45 442.6 653.7 443.05 658.85 437.95 663.9 432.75 665.5 430.15" fill="#538710" fill-rule="evenodd" stroke="none"/>
    <path d="M609.1 415.75 Q610.75 402.7 618.3 389.35 622.75 384.4 622.2 392.3 621.9 391.15 621.25 391.75 616.25 399.9 614.75 408.9 613.65 414.4 614.85 417.95 615.9 421.1 619.25 422.55 622.75 424.05 626.35 416.15 L624.9 428.5 Q624.25 433.9 623.9 438.5 610.1 442.65 609.1 415.75" fill="#477005" fill-rule="evenodd" stroke="none"/>
    <path d="M622.2 392.3 Q622.0 395.0 621.1 399.2 620.2 411.9 626.85 411.7 L626.35 416.15 Q622.75 424.05 619.25 422.55 615.9 421.1 614.85 417.95 613.65 414.4 614.75 408.9 616.25 399.9 621.25 391.75 621.9 391.15 622.2 392.3" fill="#81ad26" fill-rule="evenodd" stroke="none"/>
    <path d="M650.9 463.2 Q647.9 465.2 644.35 465.7 639.7 466.1 633.25 464.4 626.05 462.5 624.0 457.25 622.75 453.7 623.35 445.0 623.45 442.05 623.9 438.5 624.25 433.9 624.9 428.5 L626.35 416.15 626.85 411.7 Q628.85 395.15 633.6 377.0 L634.15 375.45 Q637.55 362.05 643.0 359.4 634.8 370.4 633.95 397.15 633.0 424.9 636.05 448.9 638.6 460.45 646.2 462.95 L650.9 463.2" fill="#467f09" fill-rule="evenodd" stroke="none"/>
    <path d="M623.35 445.0 Q617.25 445.05 614.1 442.1 611.0 439.3 609.5 432.9 607.9 424.45 609.1 415.75 610.1 442.65 623.9 438.5 623.45 442.05 623.35 445.0" fill="#365800" fill-rule="evenodd" stroke="none"/>
    <path d="M620.2 427.8 L620.45 426.7 620.55 428.05 620.45 428.8 620.45 428.6 Q620.15 428.6 620.2 427.8" fill="#3c8009" fill-rule="evenodd" stroke="none"/>
    <path d="M617.0 437.2 L616.75 437.2 Q616.0 437.45 615.6 436.4 615.3 434.75 615.55 433.45 615.8 432.2 616.1 432.25 L616.2 432.35 Q616.05 432.3 615.95 433.5 615.9 434.6 616.25 435.85 616.5 437.0 617.0 437.2" fill="#1a3f00" fill-rule="evenodd" stroke="none"/>
    <path d="M616.2 432.35 L617.0 433.45 617.95 435.45 Q618.35 436.5 617.3 437.0 L617.0 437.2 Q616.5 437.0 616.25 435.85 615.9 434.6 615.95 433.5 616.05 432.3 616.2 432.35" fill="#275b00" fill-rule="evenodd" stroke="none"/>
    <path d="M637.15 402.55 L638.5 404.1 Q639.6 405.6 640.15 407.55 640.85 409.35 639.25 410.1 L638.6 410.45 Q637.6 410.2 637.15 408.4 636.55 406.3 636.75 404.4 L637.15 402.55 M637.9 404.05 L638.7 406.9 639.35 408.65 Q639.25 408.3 639.55 408.15 639.9 408.15 638.95 406.25 L637.9 404.05" fill="#3d8e01" fill-rule="evenodd" stroke="none"/>
    <path d="M637.9 404.05 L638.95 406.25 Q639.9 408.15 639.55 408.15 639.25 408.3 639.35 408.65 L638.7 406.9 637.9 404.05" fill="#69cd1e" fill-rule="evenodd" stroke="none"/>
    <path d="M637.15 402.55 L636.75 404.4 Q636.55 406.3 637.15 408.4 637.6 410.2 638.6 410.45 L638.05 410.55 Q636.7 410.9 636.15 409.3 635.6 406.55 636.15 404.45 636.45 402.3 637.0 402.35 L637.15 402.55" fill="#255800" fill-rule="evenodd" stroke="none"/>
    <path d="M629.4 433.45 L630.2 434.4 631.25 436.4 Q631.7 437.55 630.65 438.1 L630.35 438.2 Q629.7 438.1 629.4 437.0 629.05 435.85 629.3 434.5 629.3 433.5 629.4 433.45 M630.75 437.0 L630.85 436.8 Q631.15 436.8 630.5 435.7 630.0 434.5 629.7 434.35 L630.35 436.1 630.75 437.0" fill="#275b00" fill-rule="evenodd" stroke="none"/>
    <path d="M630.35 438.2 L630.0 438.3 Q629.0 438.5 628.8 437.55 628.45 435.9 628.75 434.5 629.0 433.25 629.35 433.45 L629.4 433.45 Q629.3 433.5 629.3 434.5 629.05 435.85 629.4 437.0 629.7 438.1 630.35 438.2" fill="#1a3f00" fill-rule="evenodd" stroke="none"/>
    <path d="M630.75 437.0 L630.35 436.1 629.7 434.35 Q630.0 434.5 630.5 435.7 631.15 436.8 630.85 436.8 L630.75 437.0" fill="#3c8009" fill-rule="evenodd" stroke="none"/>
    <path d="M620.75 442.4 L620.65 443.0 620.55 442.95 620.55 442.1 620.6 441.0 Q620.6 441.85 620.75 442.4" fill="#3c8009" fill-rule="evenodd" stroke="none"/>
    <path d="M611.45 427.4 L611.45 427.45 610.95 427.45 Q610.3 427.35 610.2 426.45 L610.45 425.05 610.75 424.15 611.2 424.9 611.45 426.4 611.45 427.4 M610.75 426.1 L610.7 424.8 610.5 425.85 Q610.5 426.75 610.65 426.75 L610.7 426.8 610.75 426.1" fill="#275b00" fill-rule="evenodd" stroke="none"/>
    <path d="M610.75 424.15 Q611.05 423.9 611.45 424.75 611.95 425.5 612.05 426.75 612.05 427.4 611.45 427.4 L611.45 426.4 611.2 424.9 610.75 424.15" fill="#1a3f00" fill-rule="evenodd" stroke="none"/>
    <path d="M610.75 426.1 L610.7 426.8 610.65 426.75 Q610.5 426.75 610.5 425.85 L610.7 424.8 610.75 426.1" fill="#3c8009" fill-rule="evenodd" stroke="none"/>
    <path d="M629.2 448.0 L630.15 451.1 630.8 452.8 Q630.65 452.45 630.95 452.35 631.3 452.35 630.35 450.4 L629.2 448.0 M628.5 446.55 L629.9 448.35 Q630.95 449.85 631.7 451.75 632.35 453.6 630.75 454.45 L630.0 454.65 Q629.0 454.5 628.5 452.45 628.0 450.6 628.2 448.55 628.35 446.5 628.5 446.55" fill="#275b00" fill-rule="evenodd" stroke="none"/>
    <path d="M629.2 448.0 L630.35 450.4 Q631.3 452.35 630.95 452.35 630.65 452.45 630.8 452.8 L630.15 451.1 629.2 448.0" fill="#3c8009" fill-rule="evenodd" stroke="none"/>
    <path d="M630.0 454.65 L629.5 454.8 Q628.0 455.15 627.5 453.55 626.9 450.8 627.45 448.55 627.85 446.5 628.45 446.5 L628.5 446.55 Q628.35 446.5 628.2 448.55 628.0 450.6 628.5 452.45 629.0 454.5 630.0 454.65" fill="#1a3f00" fill-rule="evenodd" stroke="none"/>
    <path d="M641.65 462.1 Q642.75 461.75 643.0 459.75 643.35 457.75 643.2 455.8 L642.65 453.9 642.75 453.7 Q643.3 453.65 643.85 455.7 644.55 457.9 644.2 460.65 643.85 462.35 642.25 462.2 L641.65 462.1" fill="#1a3f00" fill-rule="evenodd" stroke="none"/>
    <path d="M641.0 457.75 Q641.75 455.8 642.05 455.45 L641.35 458.5 640.95 460.05 Q640.95 459.85 640.65 459.8 640.3 459.8 641.0 457.75" fill="#3c8009" fill-rule="evenodd" stroke="none"/>
    <path d="M641.65 462.1 L641.15 461.85 Q639.3 461.1 639.9 459.25 640.4 457.25 641.35 455.75 642.35 453.95 642.65 453.9 L643.2 455.8 Q643.35 457.75 643.0 459.75 642.75 461.75 641.65 462.1 M641.0 457.75 Q640.3 459.8 640.65 459.8 640.95 459.85 640.95 460.05 L641.35 458.5 642.05 455.45 Q641.75 455.8 641.0 457.75" fill="#275b00" fill-rule="evenodd" stroke="none"/>
    <path d="M648.5 442.8 L648.15 443.85 Q648.15 443.75 648.0 443.75 647.7 443.75 648.25 442.45 648.7 441.15 648.9 440.95 L648.5 442.8" fill="#3c8009" fill-rule="evenodd" stroke="none"/>
    <path d="M653.25 397.9 L653.4 397.7 Q653.9 397.65 654.5 399.9 655.3 402.4 654.9 405.55 654.45 407.4 652.8 407.15 L652.2 407.1 Q653.35 406.85 653.65 404.5 654.05 402.35 653.85 400.0 L653.25 397.9" fill="#2d6d00" fill-rule="evenodd" stroke="none"/>
    <path d="M653.25 397.9 L653.85 400.0 Q654.05 402.35 653.65 404.5 653.35 406.85 652.2 407.1 L651.55 406.85 Q649.5 406.05 650.1 403.95 650.75 401.75 651.65 399.9 652.95 398.0 653.2 397.9 L653.25 397.9 M651.3 405.05 L651.85 403.1 652.6 399.55 651.4 402.3 Q650.55 404.5 650.95 404.65 651.3 404.6 651.3 405.05" fill="#5fa32b" fill-rule="evenodd" stroke="none"/>
    <path d="M651.3 405.05 Q651.3 404.6 650.95 404.65 650.55 404.5 651.4 402.3 L652.6 399.55 651.85 403.1 651.3 405.05" fill="#92d95d" fill-rule="evenodd" stroke="none"/>
    <path d="M662.15 404.05 L661.95 404.05 Q660.8 403.5 661.15 402.5 L662.05 400.3 662.8 399.2 663.0 400.4 Q663.2 401.65 663.0 402.8 662.85 404.05 662.15 404.05 M662.45 400.15 L661.8 401.6 Q661.4 402.8 661.6 402.85 L661.7 403.0 661.95 402.0 662.45 400.15" fill="#275b00" fill-rule="evenodd" stroke="none"/>
    <path d="M662.45 400.15 L661.95 402.0 661.7 403.0 661.6 402.85 Q661.4 402.8 661.8 401.6 L662.45 400.15" fill="#3c8009" fill-rule="evenodd" stroke="none"/>
    <path d="M662.8 399.2 Q663.15 399.1 663.45 400.45 663.9 401.6 663.65 403.2 663.4 404.25 662.55 404.15 L662.15 404.05 Q662.85 404.05 663.0 402.8 663.2 401.65 663.0 400.4 L662.8 399.2" fill="#1a3f00" fill-rule="evenodd" stroke="none"/>
    <path d="M639.85 392.65 L640.3 393.8 640.8 396.05 Q640.95 397.2 639.85 397.5 L639.45 397.5 Q638.95 397.3 638.85 396.05 638.9 394.85 639.3 393.65 L639.85 392.65 M640.2 395.1 L640.05 393.7 640.1 395.5 640.1 396.6 Q640.15 396.3 640.4 396.35 L640.2 395.1" fill="#94d455" fill-rule="evenodd" stroke="none"/>
    <path d="M640.2 395.1 L640.4 396.35 Q640.15 396.3 640.1 396.6 L640.1 395.5 640.05 393.7 640.2 395.1" fill="#cdf5af" fill-rule="evenodd" stroke="none"/>
    <path d="M639.45 397.5 L639.2 397.5 Q638.25 397.4 638.25 396.4 638.25 394.75 638.85 393.6 639.45 392.5 639.65 392.6 L639.85 392.65 639.3 393.65 Q638.9 394.85 638.85 396.05 638.95 397.3 639.45 397.5" fill="#5ea11f" fill-rule="evenodd" stroke="none"/>
    <path d="M664.95 384.5 L665.25 385.8 Q665.45 387.1 665.25 388.4 665.05 389.7 664.35 389.85 L663.95 389.7 Q662.95 389.3 663.15 388.05 L664.15 385.75 664.95 384.5 M664.2 387.5 L664.65 385.45 663.95 387.05 Q663.55 388.4 663.7 388.4 L663.75 388.75 664.2 387.5" fill="#78af41" fill-rule="evenodd" stroke="none"/>
    <path d="M664.95 384.5 L665.0 384.4 Q665.45 384.4 665.75 385.65 666.1 387.1 665.9 388.95 665.65 389.95 664.65 389.9 L664.35 389.85 Q665.05 389.7 665.25 388.4 665.45 387.1 665.25 385.8 L664.95 384.5" fill="#518322" fill-rule="evenodd" stroke="none"/>
    <path d="M664.2 387.5 L663.75 388.75 663.7 388.4 Q663.55 388.4 663.95 387.05 L664.65 385.45 664.2 387.5" fill="#cdf5af" fill-rule="evenodd" stroke="none"/>
    <path d="M623.15 405.7 L623.35 407.2 Q623.45 408.4 623.15 409.75 622.9 410.9 621.8 410.9 L621.35 410.9 Q620.85 410.35 621.15 409.05 621.55 407.8 622.25 406.65 L623.15 405.7 M622.7 409.8 L622.85 408.5 623.1 406.9 622.6 408.85 622.25 410.0 622.7 409.8" fill="#78af41" fill-rule="evenodd" stroke="none"/>
    <path d="M621.35 410.9 L620.95 410.75 Q620.0 410.45 620.35 409.35 620.9 407.6 621.95 406.45 622.85 405.45 623.15 405.6 L623.15 405.7 622.25 406.65 Q621.55 407.8 621.15 409.05 620.85 410.35 621.35 410.9" fill="#518322" fill-rule="evenodd" stroke="none"/>
    <path d="M622.7 409.8 L622.25 410.0 622.6 408.85 623.1 406.9 622.85 408.5 622.7 409.8" fill="#cdf5af" fill-rule="evenodd" stroke="none"/>
    <path d="M615.4 410.0 L615.9 411.3 616.5 414.0 Q616.65 415.25 615.35 415.6 L614.8 415.6 Q614.2 415.25 614.2 413.9 614.2 412.5 614.75 411.15 615.3 409.85 615.4 410.0 M615.9 414.3 Q616.1 414.3 615.95 412.85 L615.55 411.1 615.6 413.35 615.7 414.45 615.9 414.3" fill="#3d8e01" fill-rule="evenodd" stroke="none"/>
    <path d="M614.8 415.6 L614.55 415.6 Q613.5 415.6 613.3 414.35 613.5 412.4 614.25 411.05 614.8 409.7 615.3 409.8 L615.4 410.0 Q615.3 409.85 614.75 411.15 614.2 412.5 614.2 413.9 614.2 415.25 614.8 415.6" fill="#255800" fill-rule="evenodd" stroke="none"/>
    <path d="M615.9 414.3 L615.7 414.45 615.6 413.35 615.55 411.1 615.95 412.85 Q616.1 414.3 615.9 414.3" fill="#69cd1e" fill-rule="evenodd" stroke="none"/>
    <path d="M639.35 420.15 Q639.25 419.85 639.55 419.85 640.05 419.7 641.15 421.75 642.7 424.05 643.0 427.25 643.25 429.2 641.4 429.5 L640.75 429.55 Q641.95 428.95 641.6 426.6 641.4 424.3 640.5 422.1 639.55 419.85 639.35 420.15" fill="#255800" fill-rule="evenodd" stroke="none"/>
    <path d="M639.25 422.05 L639.25 425.65 639.3 427.75 Q639.3 427.3 638.85 427.3 638.55 427.45 638.8 425.05 639.0 422.5 639.25 422.05" fill="#69cd1e" fill-rule="evenodd" stroke="none"/>
    <path d="M640.75 429.55 L640.05 429.55 Q637.8 429.2 637.9 426.95 637.9 424.55 638.5 422.45 639.15 420.25 639.35 420.15 639.55 419.85 640.5 422.1 641.4 424.3 641.6 426.6 641.95 428.95 640.75 429.55 M639.25 422.05 Q639.0 422.5 638.8 425.05 638.55 427.45 638.85 427.3 639.3 427.3 639.3 427.75 L639.25 425.65 639.25 422.05" fill="#3d8e01" fill-rule="evenodd" stroke="none"/>
    <path d="M650.0 412.4 Q650.0 412.25 650.1 412.25 650.55 412.2 651.2 414.1 651.7 416.2 651.4 418.9 650.95 420.45 649.55 420.2 L649.05 420.1 Q650.0 419.85 650.5 418.0 650.75 416.15 650.35 414.1 L650.0 412.4" fill="#255800" fill-rule="evenodd" stroke="none"/>
    <path d="M649.05 420.1 L648.5 419.85 Q646.9 419.15 647.4 417.5 647.95 415.6 648.8 414.0 L650.0 412.4 650.35 414.1 Q650.75 416.15 650.5 418.0 650.0 419.85 649.05 420.1 M648.3 418.4 L648.75 416.7 649.45 413.8 Q649.1 414.25 648.5 416.15 647.7 417.95 648.1 417.9 648.3 418.0 648.3 418.4" fill="#3d8e01" fill-rule="evenodd" stroke="none"/>
    <path d="M648.3 418.4 Q648.3 418.0 648.1 417.9 647.7 417.95 648.5 416.15 649.1 414.25 649.45 413.8 L648.75 416.7 648.3 418.4" fill="#69cd1e" fill-rule="evenodd" stroke="none"/>
    <path d="M656.15 372.15 L655.75 374.05 655.6 375.0 Q655.65 374.75 655.9 374.9 L656.15 373.65 656.15 372.15 M656.3 371.25 L656.5 372.5 656.3 374.7 Q656.15 375.7 655.0 375.9 L654.75 375.8 Q654.3 375.35 654.6 374.2 L655.65 372.0 656.3 371.25" fill="#94d455" fill-rule="evenodd" stroke="none"/>
    <path d="M656.15 372.15 L656.15 373.65 655.9 374.9 Q655.65 374.75 655.6 375.0 L655.75 374.05 656.15 372.15" fill="#cdf5af" fill-rule="evenodd" stroke="none"/>
    <path d="M656.3 371.25 L655.65 372.0 654.6 374.2 Q654.3 375.35 654.75 375.8 L654.45 375.7 Q653.55 375.45 653.85 374.45 654.4 372.8 655.05 371.8 656.05 370.9 656.3 371.05 L656.3 371.25" fill="#5ea11f" fill-rule="evenodd" stroke="none"/>
    <path d="M667.0 373.4 Q666.4 373.15 666.45 372.0 666.45 370.75 666.75 369.6 667.25 368.4 667.3 368.6 L667.9 369.75 668.3 372.0 Q668.4 373.15 667.35 373.4 L667.0 373.4 M667.75 371.05 Q667.7 369.8 667.45 369.6 L667.55 371.25 667.65 372.35 Q667.7 372.25 667.8 372.25 L667.75 371.05" fill="#94d455" fill-rule="evenodd" stroke="none"/>
    <path d="M667.3 368.6 Q667.25 368.4 666.75 369.6 666.45 370.75 666.45 372.0 666.4 373.15 667.0 373.4 L666.75 373.4 Q665.65 373.35 665.7 372.3 665.85 370.7 666.45 369.45 666.95 368.4 667.3 368.45 L667.3 368.6" fill="#5ea11f" fill-rule="evenodd" stroke="none"/>
    <path d="M667.75 371.05 L667.8 372.25 Q667.7 372.25 667.65 372.35 L667.55 371.25 667.45 369.6 Q667.7 369.8 667.75 371.05" fill="#cdf5af" fill-rule="evenodd" stroke="none"/>
    <path d="M635.65 382.15 L635.3 382.15 Q634.35 382.2 634.3 381.1 634.5 379.55 634.95 378.35 635.6 377.2 635.95 377.3 L635.95 377.4 635.4 378.35 635.15 380.75 Q635.1 381.9 635.65 382.15" fill="#5ea11f" fill-rule="evenodd" stroke="none"/>
    <path d="M635.95 377.4 L636.5 378.6 637.0 380.8 Q637.0 381.85 636.0 382.15 L635.65 382.15 Q635.1 381.9 635.15 380.75 L635.4 378.35 635.95 377.4 M636.15 378.35 L636.15 380.15 636.2 381.25 Q636.3 380.95 636.5 380.95 L636.5 379.8 636.15 378.35" fill="#94d455" fill-rule="evenodd" stroke="none"/>
    <path d="M636.15 378.35 L636.5 379.8 636.5 380.95 Q636.3 380.95 636.2 381.25 L636.15 380.15 636.15 378.35" fill="#cdf5af" fill-rule="evenodd" stroke="none"/>
    <path d="M655.35 429.0 Q655.3 428.9 654.6 429.85 L653.65 431.9 Q653.35 433.1 653.9 433.55 L653.5 433.5 Q652.65 433.15 652.8 432.2 653.25 430.5 654.3 429.55 655.0 428.6 655.35 428.8 L655.35 429.0" fill="#5ea11f" fill-rule="evenodd" stroke="none"/>
    <path d="M653.9 433.55 Q653.35 433.1 653.65 431.9 L654.6 429.85 Q655.3 428.9 655.35 429.0 L655.6 430.25 655.4 432.55 Q655.3 433.65 654.1 433.55 L653.9 433.55 M654.9 432.55 L655.3 431.4 655.25 429.9 654.9 431.8 654.6 432.85 654.9 432.55" fill="#94d455" fill-rule="evenodd" stroke="none"/>
    <path d="M654.9 432.55 L654.6 432.85 654.9 431.8 655.25 429.9 655.3 431.4 654.9 432.55" fill="#cdf5af" fill-rule="evenodd" stroke="none"/>
    <path d="M662.8 426.1 L662.4 425.95 Q661.5 425.25 662.1 424.25 L663.4 422.45 664.35 421.6 Q664.6 421.6 664.35 422.8 664.25 424.15 663.75 425.1 663.35 426.1 662.8 426.1 M663.0 424.05 L663.95 422.4 Q663.6 422.65 662.95 423.65 662.2 424.7 662.4 424.7 L662.55 424.95 Q662.65 424.45 663.0 424.05" fill="#94d455" fill-rule="evenodd" stroke="none"/>
    <path d="M664.35 421.6 L664.6 421.55 Q664.9 421.6 664.9 422.8 664.85 424.2 664.25 425.7 663.75 426.7 662.85 426.15 L662.8 426.1 Q663.35 426.1 663.75 425.1 664.25 424.15 664.35 422.8 664.6 421.6 664.35 421.6" fill="#5ea11f" fill-rule="evenodd" stroke="none"/>
    <path d="M663.0 424.05 Q662.65 424.45 662.55 424.95 L662.4 424.7 Q662.2 424.7 662.95 423.65 663.6 422.65 663.95 422.4 L663.0 424.05" fill="#cdf5af" fill-rule="evenodd" stroke="none"/>
    <path d="M627.65 423.85 Q626.85 423.8 626.6 422.4 626.2 421.0 626.3 419.7 626.5 418.25 626.6 418.35 L627.55 419.6 Q628.35 420.5 628.75 421.8 629.2 423.2 628.05 423.7 L627.65 423.85 M628.2 422.3 Q628.55 422.3 627.85 421.0 L627.15 419.45 627.8 421.4 Q627.8 422.05 628.1 422.65 628.0 422.3 628.2 422.3" fill="#3d8e01" fill-rule="evenodd" stroke="none"/>
    <path d="M626.6 418.35 Q626.5 418.25 626.3 419.7 626.2 421.0 626.6 422.4 626.85 423.8 627.65 423.85 L627.35 423.85 Q626.2 424.2 625.85 423.0 625.5 421.1 625.9 419.6 626.15 418.25 626.5 418.25 L626.6 418.35" fill="#255800" fill-rule="evenodd" stroke="none"/>
    <path d="M628.2 422.3 Q628.0 422.3 628.1 422.65 627.8 422.05 627.8 421.4 L627.15 419.45 627.85 421.0 Q628.55 422.3 628.2 422.3" fill="#69cd1e" fill-rule="evenodd" stroke="none"/>
    <path d="M646.7 369.7 L646.35 369.75 Q645.5 369.75 645.4 368.8 645.5 367.0 646.1 365.8 646.7 364.75 646.95 364.75 L647.0 365.05 Q646.95 364.8 646.6 366.0 L646.1 368.25 Q646.1 369.45 646.7 369.7" fill="#5ea11f" fill-rule="evenodd" stroke="none"/>
    <path d="M647.0 365.05 L647.55 366.1 648.1 368.4 Q648.15 369.45 647.0 369.75 L646.7 369.7 Q646.1 369.45 646.1 368.25 L646.6 366.0 Q646.95 364.8 647.0 365.05 M647.45 367.45 L647.2 365.9 647.25 367.9 647.35 368.8 Q647.4 368.55 647.55 368.6 647.7 368.55 647.45 367.45" fill="#94d455" fill-rule="evenodd" stroke="none"/>
    <path d="M647.45 367.45 Q647.7 368.55 647.55 368.6 647.4 368.55 647.35 368.8 L647.25 367.9 647.2 365.9 647.45 367.45" fill="#cdf5af" fill-rule="evenodd" stroke="none"/>
    <path d="M662.85 441.75 L663.05 441.65 662.5 441.25 662.5 442.05 662.85 441.75 M687.1 443.35 L687.15 443.35 687.15 443.45 687.5 443.85 687.25 444.15 Q688.0 450.15 687.65 459.35 687.35 465.6 686.7 468.45 687.4 469.0 688.0 470.3 689.45 473.25 689.45 476.0 L689.15 477.65 689.3 479.1 Q689.6 483.2 688.8 484.85 686.2 485.8 685.35 485.65 L685.15 485.6 685.05 485.65 Q683.8 486.55 683.3 486.2 L682.75 487.1 Q667.9 488.6 659.4 486.95 653.55 485.95 649.45 483.05 L646.5 480.25 646.75 478.2 645.35 478.8 645.25 478.95 638.55 478.95 638.4 478.75 Q638.3 479.2 637.75 478.95 636.5 478.45 636.05 477.35 L634.7 476.0 Q633.5 475.1 633.5 474.65 633.5 473.8 633.85 471.8 634.3 469.55 634.75 468.95 635.2 468.4 635.4 466.85 L635.5 465.5 Q635.5 465.15 635.65 465.0 L635.6 464.95 639.0 462.7 642.8 462.7 646.9 464.4 Q647.7 464.3 648.4 465.4 L650.6 447.95 650.65 447.95 661.05 431.95 669.2 431.1 680.95 435.85 687.1 443.35 M643.95 470.3 L644.25 470.4 644.25 469.95 643.95 470.3 M642.2 469.7 L642.4 469.75 642.1 469.45 642.2 469.7 M639.6 468.1 L638.4 467.85 638.55 467.95 639.6 468.1" fill="#d29d38" fill-rule="evenodd" stroke="none"/>
    <path d="M687.1 443.35 L680.95 435.85 669.2 431.1 661.05 431.95 650.65 447.95 650.6 447.95 648.4 465.4 Q647.7 464.3 646.9 464.4 L642.8 462.7 639.0 462.7 635.6 464.95 635.65 465.0 Q635.5 465.15 635.5 465.5 L635.4 466.85 Q635.2 468.4 634.75 468.95 634.3 469.55 633.85 471.8 633.5 473.8 633.5 474.65 633.5 475.1 634.7 476.0 L636.05 477.35 Q636.5 478.45 637.75 478.95 638.3 479.2 638.4 478.75 L638.55 478.95 645.25 478.95 645.35 478.8 646.75 478.2 646.5 480.25 649.45 483.05 Q653.55 485.95 659.4 486.95 667.9 488.6 682.75 487.1 L683.3 486.2 Q683.8 486.55 685.05 485.65 L685.15 485.6 685.35 485.65 Q686.2 485.8 688.8 484.85 689.6 483.2 689.3 479.1 L689.15 477.65 689.45 476.0 Q689.45 473.25 688.0 470.3 687.4 469.0 686.7 468.45 687.35 465.6 687.65 459.35 688.0 450.15 687.25 444.15 L687.5 443.85 687.15 443.45 687.15 443.35 687.1 443.35 Z" fill="none" stroke="#834f0f" stroke-linecap="round" stroke-linejoin="round" stroke-width="3.5"/>
    <path d="M641.8 469.55 Q645.8 470.9 645.6 471.0 L643.55 473.9 645.35 478.5 645.25 478.95 638.55 478.95 641.8 469.55" fill="#a27f46" fill-rule="evenodd" stroke="none"/>
    <path d="M649.25 469.85 L649.5 472.65 Q649.8 475.7 649.25 477.0 647.6 477.8 647.05 477.6 646.5 477.5 646.45 476.15 L644.9 472.8 Q643.7 470.2 644.65 467.55 645.35 467.05 647.35 468.4 L649.25 469.85" fill="#c6a473" fill-rule="evenodd" stroke="none"/>
    <path d="M637.85 468.4 L642.1 469.45 642.35 470.3 Q642.55 471.45 641.8 473.25 640.65 476.05 641.45 477.15 L640.0 478.25 638.55 478.95 637.4 477.15 637.85 468.4" fill="#e0c48f" fill-rule="evenodd" stroke="none"/>
    <path d="M644.25 478.5 L643.8 478.05 Q643.55 477.6 642.55 477.15 641.55 476.6 641.75 475.35 L642.1 474.1 642.8 473.25 Q643.55 472.45 644.0 472.2 644.45 472.0 645.0 472.2 L645.35 472.35 647.05 477.95 Q645.35 479.35 644.25 478.5" fill="#84612e" fill-rule="evenodd" stroke="none"/>
    <path d="M647.8 476.6 L646.7 477.8 Q645.9 478.45 645.6 477.8 643.8 474.2 644.0 473.65 L645.1 472.2 645.6 472.65 646.35 473.65 Q646.8 474.55 648.15 475.35 648.6 475.9 647.8 476.6" fill="#e5d3ad" fill-rule="evenodd" stroke="none"/>
    <path d="M635.5 465.5 Q635.6 463.95 637.1 466.3 L638.55 468.95 638.0 472.0 Q637.55 475.25 638.0 476.7 638.95 479.5 637.75 478.95 636.5 478.45 636.05 477.35 L634.7 476.0 Q633.5 475.1 633.5 474.65 633.5 473.8 633.85 471.8 634.3 469.55 634.75 468.95 635.2 468.4 635.4 466.85 L635.5 465.5" fill="#c6a473" fill-rule="evenodd" stroke="none"/>
    <path d="M648.8 466.2 Q649.7 468.3 649.7 470.4 649.7 471.75 649.05 472.1 648.4 472.55 648.05 471.8 L646.5 470.55 645.35 469.75 Q644.45 469.1 644.55 467.55 644.65 465.85 646.15 464.7 647.7 463.6 648.8 466.2" fill="#d9bc88" fill-rule="evenodd" stroke="none"/>
    <path d="M639.0 462.7 L642.8 462.7 647.8 464.75 645.45 468.5 643.7 470.45 643.2 468.85 637.55 467.65 635.6 464.95 639.0 462.7" fill="#e5d3ad" fill-rule="evenodd" stroke="none"/>
    <path d="M636.85 466.75 L638.55 467.95 642.1 468.4 644.0 469.1 646.45 467.1 643.45 470.9 642.1 469.45 638.55 468.95 636.85 466.75" fill="#f2ede4" fill-rule="evenodd" stroke="none"/>
    <path d="M684.2 442.05 L686.0 450.05 Q687.5 459.35 686.65 466.05 683.75 487.45 682.75 487.1 667.9 488.6 659.4 486.95 653.55 485.95 649.45 483.05 L646.5 480.25 650.6 447.95 684.2 442.05" fill="#936b34" fill-rule="evenodd" stroke="none"/>
    <path d="M662.5 437.8 L662.5 444.0 661.7 448.75 Q660.7 454.15 659.55 457.75 658.25 461.3 656.15 459.85 654.85 458.85 653.85 456.9 L650.65 447.95 661.05 431.95 662.5 437.8" fill="#c6a473" fill-rule="evenodd" stroke="none"/>
    <path d="M661.05 438.45 L661.05 431.95 669.2 431.1 680.95 435.85 687.5 443.85 678.35 454.65 Q676.7 456.4 676.05 454.65 L671.8 444.85 668.2 444.0 661.05 438.45" fill="#e5d3ad" fill-rule="evenodd" stroke="none"/>
    <path d="M666.9 446.15 L671.5 445.65 670.2 452.65 658.25 461.15 661.85 486.45 656.95 459.5 664.65 450.05 666.9 446.15" fill="#c6a473" fill-rule="evenodd" stroke="none"/>
    <path d="M661.7 443.2 Q662.2 442.2 662.85 441.75 L663.35 441.4 668.55 445.65 666.9 453.3 660.2 459.7 661.55 466.4 658.1 467.85 656.8 461.3 661.7 443.2" fill="#e0c48f" fill-rule="evenodd" stroke="none"/>
    <path d="M676.7 452.0 L673.45 450.7 Q673.3 447.95 674.75 448.6 675.9 448.9 677.35 450.85 677.55 451.2 682.25 447.1 L687.15 443.35 Q688.0 449.55 687.65 459.35 687.15 469.65 685.7 470.6 L675.55 480.1 Q667.4 488.1 668.05 486.8 668.4 486.3 667.25 473.25 L675.1 465.75 676.7 452.0" fill="#ad9065" fill-rule="evenodd" stroke="none"/>
    <path d="M661.05 435.05 L661.05 438.45 668.2 444.0 671.5 444.2 Q671.8 444.2 673.45 447.75 674.25 448.6 676.2 449.75 677.85 450.85 678.0 452.5 675.1 451.5 672.8 449.05 672.0 445.65 671.5 445.65 L668.4 445.65 660.55 439.75 661.05 435.05" fill="#fdfcfb" fill-rule="evenodd" stroke="none"/>
    <path d="M672.8 449.05 L678.0 452.35 675.4 464.75 668.55 460.5 672.8 449.05" fill="#c6a473" fill-rule="evenodd" stroke="none"/>
    <path d="M688.8 475.2 L689.3 479.1 Q689.6 483.2 688.8 484.85 686.2 485.8 685.35 485.65 684.55 485.5 684.4 483.7 L682.1 479.3 Q680.3 475.85 681.6 472.25 682.75 471.6 685.85 473.25 L688.8 475.2" fill="#c6a473" fill-rule="evenodd" stroke="none"/>
    <path d="M682.45 478.45 L683.25 478.95 Q684.05 479.6 684.4 480.4 684.7 480.9 687.15 482.55 687.5 483.05 686.5 484.35 L685.05 485.65 Q683.5 486.75 683.1 485.95 680.45 480.75 680.65 480.4 L682.45 478.45" fill="#e5d3ad" fill-rule="evenodd" stroke="none"/>
    <path d="M682.75 475.2 Q681.3 474.4 681.45 472.25 681.6 469.95 684.05 468.35 686.35 466.85 688.0 470.3 689.45 473.25 689.45 476.0 689.45 477.8 688.45 478.3 687.5 478.8 686.85 477.95 686.5 477.3 684.55 476.15 L682.75 475.2" fill="#d9bc88" fill-rule="evenodd" stroke="none"/>
    <path d="M142.6 280.6 L148.4 284.05 156.65 288.85 158.55 290.25 158.6 290.2 161.75 291.9 171.9 297.5 173.9 298.2 176.15 299.3 Q172.0 311.65 164.65 318.2 L162.2 320.1 159.2 318.75 160.9 323.05 160.6 323.65 Q149.8 331.95 138.25 333.7 L135.15 321.05 Q127.05 310.15 125.75 308.0 L123.55 304.8 Q122.85 303.5 121.75 302.5 L136.75 286.9 140.6 282.85 142.6 280.6" fill="#357c9a" fill-rule="evenodd" stroke="none"/>
    <path d="M142.6 280.6 L148.4 284.05 156.65 288.85 158.55 290.25 158.6 290.2 161.75 291.9 171.9 297.5 173.9 298.2 176.15 299.3 Q172.0 311.65 164.65 318.2 L162.2 320.1 159.2 318.75 160.9 323.05 160.6 323.65 Q149.8 331.95 138.25 333.7 L135.15 321.05 Q127.05 310.15 125.75 308.0 L123.55 304.8 Q122.85 303.5 121.75 302.5 L136.75 286.9 140.6 282.85 142.6 280.6 Z" fill="none" stroke="#2b2e44" stroke-linecap="round" stroke-linejoin="round" stroke-width="3.0"/>
    <path d="M125.9 308.05 L123.65 304.8 121.85 302.4 142.8 280.65 148.45 284.05 145.0 291.5 Q142.8 295.3 138.65 299.3 136.15 301.8 132.35 304.5 127.85 307.6 125.9 308.05" fill="#dece84" fill-rule="evenodd" stroke="none"/>
    <path d="M148.45 284.05 Q154.65 287.55 156.7 288.8 L164.0 294.05 Q164.25 294.2 162.95 295.9 L163.85 295.15 136.3 322.6 125.9 308.05 Q127.85 307.6 132.35 304.5 136.15 301.8 138.65 299.3 142.8 295.3 145.0 291.5 L148.45 284.05" fill="#fbffd5" fill-rule="evenodd" stroke="none"/>
    <path d="M134.9 320.85 L133.45 318.55 Q136.25 315.6 134.25 306.9 142.3 308.25 145.1 306.45 148.0 304.55 149.45 302.1 150.85 299.7 149.3 293.45 157.0 295.05 159.7 290.35 L162.25 292.05 Q161.05 294.05 158.25 295.3 155.55 296.55 152.45 296.25 154.0 300.3 153.1 302.9 152.1 305.25 150.1 307.55 148.0 309.8 144.4 311.15 141.25 312.4 138.65 312.0 138.5 318.55 134.9 320.85 M172.0 297.5 L174.0 298.15 Q174.7 298.35 176.25 299.3 172.15 311.65 164.8 318.1 163.6 316.25 161.4 314.9 167.95 309.55 172.0 297.5 M159.55 319.15 L160.9 323.05 160.7 323.65 Q149.9 332.0 138.1 333.9 L137.5 329.7 Q150.25 328.65 159.55 319.15" fill="#88cae6" fill-rule="evenodd" stroke="none"/>
    <path d="M162.25 292.05 L172.0 297.5 Q167.95 309.55 161.4 314.9 159.15 312.9 156.4 312.1 L158.85 317.75 159.25 318.75 159.55 319.15 Q150.25 328.65 137.5 329.7 L134.9 320.85 Q138.5 318.55 138.65 312.0 141.25 312.4 144.4 311.15 148.0 309.8 150.1 307.55 152.1 305.25 153.1 302.9 154.0 300.3 152.45 296.25 155.55 296.55 158.25 295.3 161.05 294.05 162.25 292.05" fill="#1d5b85" fill-rule="evenodd" stroke="none"/>
    <path d="M164.8 318.1 L162.25 320.1 159.25 318.75 158.85 317.75 161.4 314.9 Q163.6 316.25 164.8 318.1" fill="#65abc9" fill-rule="evenodd" stroke="none"/>
    <path d="M158.85 317.75 L156.4 312.1 Q159.15 312.9 161.4 314.9 L158.85 317.75" fill="#124364" fill-rule="evenodd" stroke="none"/>
    <path d="M139.85 316.8 L123.8 301.35 128.8 296.3 144.85 311.6 139.85 316.8" fill="#298ccd" fill-rule="evenodd" stroke="none"/>
    <path d="M135.5 314.75 Q134.45 312.85 135.05 310.75 135.55 308.75 137.3 307.75 139.2 306.75 141.15 307.35 143.2 308.0 144.25 309.85 145.4 311.8 144.65 313.85 144.25 316.0 142.45 317.05 L138.5 317.2 Q136.5 316.65 135.5 314.75" fill="#88cae6" fill-rule="evenodd" stroke="none"/>
    <path d="M136.75 311.3 Q137.25 309.95 138.3 309.3 L140.8 309.1 Q142.0 309.5 142.75 310.7 143.35 312.05 143.05 313.3 142.65 314.7 141.5 315.35 L139.05 315.4 Q137.7 315.15 137.05 313.95 136.4 312.65 136.75 311.3" fill="#ade6ff" fill-rule="evenodd" stroke="none"/>
    <path d="M156.55 294.95 L152.65 300.1 136.9 286.8 140.7 282.6 156.55 294.95" fill="#298ccd" fill-rule="evenodd" stroke="none"/>
    <path d="M155.05 293.2 Q157.1 293.75 158.1 295.6 159.1 297.4 158.5 299.5 158.0 301.45 156.25 302.5 154.5 303.45 152.55 302.8 150.65 302.1 149.6 300.25 148.55 298.5 149.0 296.5 149.65 294.5 151.4 293.5 153.15 292.55 155.05 293.2" fill="#88cae6" fill-rule="evenodd" stroke="none"/>
    <path d="M152.3 295.15 L154.65 295.0 Q155.85 295.35 156.55 296.5 157.2 297.8 156.9 298.95 156.6 300.25 155.5 300.85 L153.05 301.0 Q151.85 300.7 151.1 299.45 150.45 298.4 150.75 296.95 151.15 295.7 152.3 295.15" fill="#ade6ff" fill-rule="evenodd" stroke="none"/>
  </g>
  <defs>
    <radialGradient cx="0" cy="0" gradientTransform="matrix(2.0E-4, -0.0113, 0.0478, 2.0E-4, 507.1, 473.45)" gradientUnits="userSpaceOnUse" id="gradient0" r="819.2" spreadMethod="pad">
      <stop offset="0.19607843137254902" stop-color="#875b26" stop-opacity="0.6784314"/>
      <stop offset="0.615686274509804" stop-color="#744c25" stop-opacity="0.29803923"/>
      <stop offset="0.8470588235294118" stop-color="#ad9065" stop-opacity="0.0"/>
    </radialGradient>
  </defs>
</svg>
