<?xml version="1.0" encoding="UTF-8" standalone="no"?>
<svg xmlns:xlink="http://www.w3.org/1999/xlink" height="58.5px" width="76.35px" xmlns="http://www.w3.org/2000/svg">
  <g transform="matrix(1.0, 0.0, 0.0, 1.0, -555.3, -429.3)">
    <path d="M620.45 484.45 Q609.25 487.8 593.5 487.8 577.65 487.8 566.45 484.45 555.3 481.1 555.3 476.4 555.3 471.7 566.45 468.35 577.65 465.05 593.5 465.05 609.25 465.05 620.45 468.35 631.65 471.7 631.65 476.4 631.65 481.1 620.45 484.45" fill="url(#gradient0)" fill-rule="evenodd" stroke="none"/>
    <path d="M619.2 434.15 Q623.2 437.05 626.25 442.3 631.5 449.6 630.15 454.65 629.45 455.8 629.0 457.2 L627.4 461.15 Q626.25 463.6 626.4 465.95 626.6 468.2 625.95 471.6 625.25 475.1 620.45 476.25 615.45 477.4 608.15 476.35 L595.3 475.85 Q589.5 476.65 583.95 478.4 578.25 480.15 574.95 480.15 571.65 480.25 568.65 478.6 L568.2 480.9 Q567.9 482.95 566.5 481.4 L566.15 481.2 Q559.7 473.8 564.1 463.7 563.9 462.35 564.8 460.6 565.25 459.35 566.05 457.95 L566.3 457.75 Q566.3 457.6 566.4 457.6 566.85 457.0 566.4 455.75 L566.4 454.65 565.5 451.65 Q565.35 451.05 565.6 450.95 L566.4 451.15 568.45 452.05 569.0 451.95 Q569.7 452.3 569.95 451.55 L569.8 450.4 569.7 449.4 Q568.9 443.1 570.5 437.35 571.2 435.5 572.1 436.65 L572.1 436.75 572.2 436.75 574.6 442.5 577.45 448.15 Q578.8 447.65 579.15 446.7 579.5 445.8 580.65 446.1 582.8 446.5 585.2 443.3 L585.3 443.2 585.2 443.1 585.2 443.0 Q583.95 438.2 584.6 434.8 L584.6 434.7 Q585.05 432.4 586.1 435.0 L586.1 435.1 586.1 435.3 Q587.0 437.75 589.15 440.45 L589.4 440.75 589.3 440.55 Q593.7 432.8 600.65 430.95 L601.45 430.85 601.8 430.75 602.05 430.75 Q608.75 429.55 614.1 431.4 616.7 432.4 619.2 434.15 M587.55 455.05 L587.45 455.05 587.45 455.25 587.55 455.05 M584.6 450.3 L584.5 450.05 584.5 450.3 584.6 450.3" fill="#330000" fill-rule="evenodd" stroke="none"/>
    <path d="M619.2 434.15 Q623.2 437.05 626.25 442.3 631.5 449.6 630.15 454.65 629.45 455.8 629.0 457.2 L627.4 461.15 Q626.25 463.6 626.4 465.95 626.6 468.2 625.95 471.6 625.25 475.1 620.45 476.25 615.45 477.4 608.15 476.35 L595.3 475.85 Q589.5 476.65 583.95 478.4 578.25 480.15 574.95 480.15 571.65 480.25 568.65 478.6 L568.2 480.9 Q567.9 482.95 566.5 481.4 L566.15 481.2 Q559.7 473.8 564.1 463.7 563.9 462.35 564.8 460.6 565.25 459.35 566.05 457.95 L566.3 457.75 Q566.3 457.6 566.4 457.6 566.85 457.0 566.4 455.75 L566.4 454.65 565.5 451.65 Q565.35 451.05 565.6 450.95 L566.4 451.15 568.45 452.05 569.0 451.95 Q569.7 452.3 569.95 451.55 L569.8 450.4 569.7 449.4 Q568.9 443.1 570.5 437.35 571.2 435.5 572.1 436.65 L572.1 436.75 572.2 436.75 574.6 442.5 577.45 448.15 Q578.8 447.65 579.15 446.7 579.5 445.8 580.65 446.1 582.8 446.5 585.2 443.3 L585.3 443.2 585.2 443.1 585.2 443.0 Q583.95 438.2 584.6 434.8 L584.6 434.7 Q585.05 432.4 586.1 435.0 L586.1 435.1 586.1 435.3 Q587.0 437.75 589.15 440.45 L589.4 440.75 589.3 440.55 Q593.7 432.8 600.65 430.95 L601.45 430.85 601.8 430.75 602.05 430.75 Q608.75 429.55 614.1 431.4 616.7 432.4 619.2 434.15 Z" fill="none" stroke="#333333" stroke-linecap="round" stroke-linejoin="round" stroke-width="2.0"/>
    <path d="M589.4 443.1 Q590.1 443.1 590.65 442.5 L591.45 441.7 592.1 440.35 592.7 439.1 593.05 437.85 Q593.25 437.05 593.95 436.85 596.8 434.6 599.65 434.25 600.8 434.15 601.8 433.35 L603.6 432.1 Q604.85 431.4 605.9 431.2 L608.15 431.1 Q611.0 431.2 613.5 432.6 616.35 434.05 617.6 436.55 L618.2 437.75 618.75 439.2 619.55 440.25 620.45 440.75 622.65 442.1 Q623.45 442.8 623.65 443.45 624.0 443.95 624.35 445.4 624.7 446.9 624.45 448.35 624.35 449.7 624.1 449.7 L623.45 448.25 622.65 446.8 622.5 446.5 622.85 446.0 622.75 445.15 Q622.65 443.45 621.5 442.3 L620.9 441.7 619.35 441.25 617.6 440.95 616.15 440.55 614.8 439.9 613.3 439.5 Q610.45 439.3 606.7 441.65 L604.2 443.2 602.05 443.65 600.3 443.4 Q599.5 443.1 598.4 443.4 597.25 443.55 596.2 445.05 595.1 446.6 595.2 446.8 L595.1 446.9 595.1 446.95 594.95 447.15 594.95 447.85 594.95 447.95 594.85 448.35 Q594.85 448.75 595.2 449.1 L595.2 449.4 596.35 451.35 Q597.25 452.6 598.15 452.9 598.75 452.9 599.4 453.4 L600.2 454.35 600.65 455.55 Q601.1 456.1 601.8 456.1 L602.6 455.8 Q603.15 455.45 604.1 455.55 L608.5 457.2 Q612.6 459.05 614.3 459.05 L615.7 458.75 616.6 457.6 Q617.15 457.0 618.2 456.9 L619.45 456.5 Q618.65 457.0 617.95 458.15 617.3 459.7 616.7 460.2 615.8 461.35 615.0 461.35 L612.75 461.45 611.7 461.25 610.8 461.15 609.45 461.15 607.95 461.35 605.8 460.9 602.6 460.4 600.0 460.8 597.95 461.55 597.45 461.35 596.1 460.7 Q595.3 460.1 594.85 460.0 593.95 460.0 591.65 461.0 589.75 461.85 588.95 461.85 L587.45 461.55 Q586.65 461.1 586.55 460.4 586.55 459.8 588.05 459.35 589.75 458.75 589.75 458.55 589.6 458.15 588.5 457.95 L587.0 457.6 586.3 456.3 586.0 454.95 585.5 455.35 585.4 456.0 584.75 457.1 Q583.0 457.75 582.7 457.95 L581.3 458.25 Q579.35 458.25 578.7 459.7 578.45 460.2 578.45 461.1 L578.45 461.25 Q578.25 461.95 578.35 462.15 L578.35 462.35 578.25 462.75 578.1 463.3 578.35 463.8 579.7 463.3 581.1 463.0 Q581.9 463.1 582.9 463.7 L585.05 464.4 Q585.65 464.4 586.9 463.7 L587.45 463.6 586.45 464.4 584.85 465.45 582.1 464.65 Q580.4 464.0 579.25 464.0 L578.1 464.1 577.35 464.3 Q576.65 464.3 576.3 463.5 L576.3 462.9 576.4 461.55 Q576.3 460.3 575.6 459.05 574.8 457.6 573.8 457.6 L572.45 457.6 571.2 457.5 570.15 457.0 Q569.8 456.7 569.15 456.6 568.2 456.6 566.4 458.55 L565.05 460.4 Q565.5 459.25 566.3 457.85 L566.5 457.6 566.5 457.4 566.95 457.2 567.65 456.8 568.35 456.1 568.65 455.65 569.15 453.7 Q569.6 452.8 570.5 452.6 571.2 453.6 572.45 453.5 575.05 453.0 577.2 451.65 L577.9 451.15 578.7 450.85 579.95 449.7 580.65 448.55 Q580.95 447.55 581.55 447.45 582.9 447.35 584.15 445.9 585.4 444.25 586.3 443.95 L586.65 443.85 Q588.25 443.75 589.4 443.1 M613.75 438.4 L614.55 438.3 614.8 437.65 Q614.65 436.65 611.95 434.9 609.3 433.25 607.7 433.25 604.4 433.15 603.3 435.4 L602.8 436.95 Q602.6 437.65 602.15 437.65 L601.25 437.15 600.1 436.95 Q599.3 436.95 598.6 437.45 598.15 437.95 597.6 439.2 L596.7 440.65 596.0 441.65 596.1 442.0 596.55 442.0 597.6 441.7 598.85 441.15 599.85 440.35 Q600.45 439.95 601.1 439.95 601.9 439.95 602.6 440.75 603.15 441.35 603.85 441.35 605.0 441.35 605.8 440.85 L606.8 439.5 608.05 438.3 Q608.85 437.75 610.1 437.75 L611.6 438.05 613.75 438.4 M617.75 464.4 L617.85 464.3 617.95 464.4 617.75 464.4 M598.95 454.35 L598.6 454.35 Q598.15 456.4 597.15 457.1 596.2 457.75 594.65 458.35 L592.1 459.15 589.5 460.0 589.05 460.1 588.6 460.2 588.5 460.2 Q588.05 460.4 588.05 460.7 L588.5 460.8 Q589.75 460.9 592.45 460.0 595.2 459.05 596.2 459.05 L598.15 459.5 600.55 459.9 602.25 459.6 604.1 459.4 Q604.55 459.4 606.8 460.1 L609.3 460.7 610.8 460.6 Q611.7 460.4 611.95 459.9 611.35 459.6 607.85 458.65 604.2 457.65 602.7 457.6 L601.7 457.75 600.65 457.75 Q599.3 457.75 599.2 456.4 L599.2 455.05 598.95 454.35 M587.7 455.05 Q587.55 455.55 587.7 456.0 587.9 457.4 589.4 457.4 591.2 457.5 593.15 455.9 595.2 454.25 595.1 452.4 594.95 451.15 594.3 450.0 593.7 448.8 592.7 449.0 591.35 449.3 589.5 451.65 L588.8 452.5 Q588.25 453.2 588.05 453.8 L587.9 453.9 587.8 454.25 587.55 454.85 587.7 455.05 M588.35 447.35 L588.35 447.25 Q588.25 446.95 587.9 446.95 587.45 446.95 586.65 448.15 L585.75 449.1 585.65 449.2 584.95 449.5 584.75 449.9 Q584.6 450.0 584.6 450.2 L584.75 450.65 585.5 451.55 Q586.2 452.25 586.75 452.25 587.7 452.25 588.25 451.15 588.8 450.3 588.6 449.4 L588.35 447.95 588.35 447.75 588.35 447.35 M584.4 451.35 L583.95 450.95 583.25 450.95 581.75 451.45 580.75 451.95 580.65 452.05 580.3 452.15 580.05 452.9 580.05 453.4 580.5 454.35 Q580.95 455.25 582.55 455.75 584.4 456.1 584.75 454.45 L584.4 452.4 584.4 452.25 584.4 452.15 584.4 451.75 584.4 451.35 M578.35 454.35 L578.35 454.05 Q578.1 453.6 577.55 453.7 L575.6 454.65 575.4 454.85 575.15 455.15 Q574.95 455.65 575.3 456.3 L575.6 456.8 Q577.0 458.05 578.0 456.8 578.35 456.0 578.25 454.85 L578.25 454.75 578.35 454.35" fill="#fff6d6" fill-rule="evenodd" stroke="none"/>
    <path d="M622.5 446.5 L622.65 446.8 623.45 448.25 624.1 449.7 Q624.35 449.7 624.45 448.35 624.7 446.9 624.35 445.4 624.0 443.95 623.65 443.45 623.45 442.8 622.65 442.1 L620.45 440.75 619.55 440.25 618.75 439.2 618.2 437.75 617.6 436.55 Q616.35 434.05 613.5 432.6 611.0 431.2 608.15 431.1 L605.9 431.2 Q604.85 431.4 603.6 432.1 L601.8 433.35 Q600.8 434.15 599.65 434.25 596.8 434.6 593.95 436.85 593.25 437.05 593.05 437.85 L592.7 439.1 592.1 440.35 591.45 441.7 590.65 442.5 Q590.1 443.1 589.4 443.1 L590.1 442.3 Q590.3 441.7 589.6 440.65 L589.4 440.35 Q593.95 432.6 600.9 430.85 L601.7 430.75 602.05 430.65 602.25 430.65 Q608.95 429.45 614.3 431.3 616.95 432.3 619.45 434.05 622.75 437.55 625.25 441.15 L627.55 445.15 Q629.35 448.8 629.45 450.4 629.6 452.05 628.45 452.5 L627.65 452.8 Q627.2 453.0 627.2 453.3 627.2 453.7 627.55 453.9 L628.45 454.0 628.55 454.25 628.65 454.65 Q628.8 455.75 627.75 456.0 626.05 456.5 625.6 456.7 624.8 457.5 624.45 458.35 623.9 459.35 624.1 460.7 624.35 462.45 621.4 463.0 L616.15 463.4 612.95 462.85 Q611.7 462.25 609.1 462.15 L606.0 462.25 602.95 463.0 601.45 463.4 600.1 463.8 Q599.5 464.3 599.3 465.05 L598.75 465.55 597.95 465.55 596.9 465.15 596.0 464.75 Q595.45 464.65 594.65 465.65 L593.25 466.5 Q592.7 466.45 592.1 466.05 591.1 465.05 590.4 464.95 589.6 464.75 588.95 464.95 588.15 465.05 587.45 465.95 586.65 466.7 586.0 466.7 585.2 466.7 583.25 465.95 581.55 465.05 581.1 465.05 579.7 465.05 578.7 465.95 578.0 466.7 577.55 466.7 577.0 466.7 576.3 466.05 L575.95 465.25 576.05 463.5 576.3 462.9 576.3 463.5 Q576.65 464.3 577.35 464.3 L578.1 464.1 579.25 464.0 Q580.4 464.0 582.1 464.65 L584.85 465.45 586.45 464.4 587.45 463.6 588.15 463.4 589.15 463.2 591.0 463.8 592.8 464.4 592.9 464.4 593.5 464.1 Q593.85 463.8 594.3 463.6 L595.3 463.5 596.45 463.6 598.4 463.8 Q600.1 463.7 600.0 462.85 600.0 462.15 599.3 461.85 L597.95 461.55 600.0 460.8 602.6 460.4 605.8 460.9 607.95 461.35 609.45 461.15 610.8 461.15 611.7 461.25 612.75 461.45 615.0 461.35 Q615.8 461.35 616.7 460.2 617.3 459.7 617.95 458.15 618.65 457.0 619.45 456.5 L619.8 456.4 Q621.6 456.0 622.65 454.65 623.9 453.3 623.75 451.25 623.55 449.4 622.75 447.35 L622.3 446.5 621.85 445.5 621.7 445.2 622.05 445.6 622.5 446.5" fill="#e7dcc1" fill-rule="evenodd" stroke="none"/>
    <path d="M613.75 438.4 L611.6 438.05 610.1 437.75 Q608.85 437.75 608.05 438.3 L606.8 439.5 605.8 440.85 Q605.0 441.35 603.85 441.35 603.15 441.35 602.6 440.75 601.9 439.95 601.1 439.95 600.45 439.95 599.85 440.35 L598.85 441.15 597.6 441.7 596.55 442.0 596.1 442.0 596.0 441.65 596.7 440.65 597.6 439.2 Q598.15 437.95 598.6 437.45 599.3 436.95 600.1 436.95 L601.25 437.15 602.15 437.65 Q602.6 437.65 602.8 436.95 L603.3 435.4 Q604.4 433.15 607.7 433.25 609.3 433.25 611.95 434.9 614.65 436.65 614.8 437.65 L614.55 438.3 613.75 438.4" fill="#fffbe9" fill-rule="evenodd" stroke="none"/>
    <path d="M598.05 451.85 L597.95 451.45 597.6 450.5 596.8 449.7 596.55 448.75 Q596.55 448.05 596.8 447.75 L597.6 447.35 Q598.05 447.75 598.75 447.65 L600.0 447.55 600.9 447.35 601.7 447.45 603.05 447.75 Q604.1 447.85 605.0 447.15 606.0 446.5 607.15 444.85 608.4 443.4 609.75 442.7 611.5 441.8 614.1 441.9 L616.7 442.6 619.2 443.4 Q620.45 443.55 621.25 444.55 L621.6 445.2 621.6 445.3 621.7 445.4 621.85 445.7 621.95 446.8 622.05 447.05 Q622.3 450.1 621.95 450.85 L621.05 452.05 619.55 454.0 Q618.55 455.15 615.8 455.75 L616.25 455.35 Q617.3 454.15 617.15 453.2 617.05 451.85 616.05 451.45 L615.0 451.05 Q614.3 450.75 614.0 450.2 L612.15 448.9 Q610.55 447.65 609.9 447.65 608.85 447.65 607.85 448.35 L606.15 449.8 Q604.3 451.35 602.35 451.75 601.7 452.4 601.9 452.8 L602.15 453.2 601.8 453.2 599.5 452.6 Q598.85 452.4 598.05 451.85" fill="#190d0d" fill-rule="evenodd" stroke="none"/>
    <path d="M595.2 449.1 Q594.85 448.75 594.85 448.35 L594.95 447.95 594.95 447.85 595.1 447.15 595.1 446.95 595.1 446.9 595.2 446.8 Q595.1 446.6 596.2 445.05 597.25 443.55 598.4 443.4 599.5 443.1 600.3 443.4 L602.05 443.65 604.2 443.2 606.7 441.65 Q610.45 439.3 613.3 439.5 L614.8 439.9 616.15 440.55 617.6 440.95 619.35 441.25 620.9 441.7 621.5 442.3 Q622.65 443.45 622.75 445.15 L622.85 446.0 622.5 446.5 622.05 445.6 621.7 445.2 621.7 445.4 621.6 445.3 621.6 445.2 621.25 444.55 Q620.45 443.55 619.2 443.4 L616.7 442.6 614.1 441.9 Q611.5 441.8 609.75 442.7 608.4 443.4 607.15 444.85 606.0 446.5 605.0 447.15 604.1 447.85 603.05 447.75 L601.7 447.45 600.9 447.35 600.0 447.55 598.75 447.65 Q598.05 447.75 597.6 447.35 L596.8 447.75 Q596.55 448.05 596.55 448.75 L596.8 449.7 597.6 450.5 597.95 451.45 598.05 451.85 597.45 451.45 597.15 450.75 596.9 450.55 596.1 449.9 595.3 449.3 595.2 449.1" fill="#bfb09c" fill-rule="evenodd" stroke="none"/>
    <path d="M619.45 456.5 L618.2 456.9 Q617.15 457.0 616.6 457.6 L615.7 458.75 614.3 459.05 Q612.6 459.05 608.5 457.2 L604.1 455.55 Q603.15 455.45 602.6 455.8 L601.8 456.1 Q601.1 456.1 600.65 455.55 L600.2 454.35 599.4 453.4 Q598.75 452.9 598.15 452.9 597.25 452.6 596.35 451.35 L595.2 449.4 595.2 449.1 595.3 449.3 596.1 449.9 596.9 450.55 597.15 450.75 597.45 451.45 598.05 451.85 Q598.85 452.4 599.5 452.6 L601.8 453.2 602.15 453.2 602.35 453.2 603.95 454.0 Q605.35 454.85 605.8 454.95 L608.05 455.65 610.45 456.1 614.0 456.0 615.35 455.8 615.8 455.75 Q618.55 455.15 619.55 454.0 L621.05 452.05 621.95 450.85 Q622.3 450.1 622.05 447.05 L621.95 446.8 621.85 445.7 621.7 445.4 621.7 445.2 621.85 445.5 622.3 446.5 622.75 447.35 Q623.55 449.4 623.75 451.25 623.9 453.3 622.65 454.65 621.6 456.0 619.8 456.4 L619.45 456.5" fill="#e2d1b9" fill-rule="evenodd" stroke="none"/>
    <path d="M599.3 465.05 Q599.5 464.3 600.1 463.8 L601.45 463.4 602.95 463.0 606.0 462.25 609.1 462.15 Q611.7 462.25 612.95 462.85 L616.15 463.4 621.4 463.0 Q624.35 462.45 624.1 460.7 623.9 459.35 624.45 458.35 624.8 457.5 625.6 456.7 626.05 456.5 627.75 456.0 628.8 455.75 628.65 454.65 L628.55 454.25 628.45 454.0 627.55 453.9 Q627.2 453.7 627.2 453.3 627.2 453.0 627.65 452.8 L628.45 452.5 Q629.6 452.05 629.45 450.4 629.35 448.8 627.55 445.15 L625.25 441.15 Q622.75 437.55 619.45 434.05 623.45 436.95 626.5 442.2 631.75 449.5 630.25 454.55 629.7 455.65 629.25 457.1 628.8 457.4 628.45 458.25 L627.65 459.9 626.95 461.15 625.95 462.15 624.45 463.3 621.6 464.3 617.95 464.4 617.85 464.3 617.75 464.4 617.6 464.4 616.6 464.4 Q614.1 464.3 612.25 463.6 L611.15 463.1 610.2 462.85 608.65 462.85 605.2 463.3 603.85 463.6 603.15 463.8 602.8 463.9 602.25 464.0 601.55 463.8 Q600.2 463.7 599.75 464.6 L599.3 465.05" fill="#aaa597" fill-rule="evenodd" stroke="none"/>
    <path d="M569.8 449.5 L569.8 449.3 Q569.15 443.0 570.7 437.25 571.3 435.4 572.3 436.55 L572.3 436.65 572.45 436.85 572.45 437.05 572.55 437.15 572.55 437.35 572.65 437.55 572.65 437.75 572.9 439.1 573.25 441.35 Q573.35 442.7 573.9 444.45 L574.8 447.35 Q575.3 448.25 574.95 449.2 574.7 450.1 573.35 450.65 572.2 451.25 571.65 451.05 L570.5 450.4 569.8 449.5 M585.5 443.2 L585.4 443.0 585.2 442.9 Q584.15 438.1 584.75 434.8 L584.85 434.7 Q585.3 432.2 586.3 434.9 L586.3 435.1 586.3 435.9 586.75 437.85 587.35 439.6 Q587.7 440.55 587.55 441.45 587.55 442.3 587.1 442.7 L586.2 443.3 585.5 443.2 M584.75 449.9 L584.95 449.5 585.65 449.2 585.75 449.1 586.65 448.15 Q587.45 446.95 587.9 446.95 588.25 446.95 588.35 447.25 L588.35 447.35 588.25 447.35 Q587.8 447.35 586.75 449.0 585.85 450.5 585.2 450.5 584.95 450.5 584.85 450.3 L584.85 450.2 584.75 449.9 M590.65 469.45 L590.4 468.95 590.4 468.85 590.1 467.7 590.1 467.1 Q590.2 466.7 590.65 466.8 591.35 466.8 592.35 468.45 L592.35 468.65 592.6 469.55 Q593.15 472.25 592.35 471.3 L590.75 469.55 590.65 469.45 M588.25 469.65 L588.25 468.25 Q588.25 467.1 588.95 467.9 L589.6 468.75 Q590.65 470.7 590.85 472.05 591.1 474.0 589.75 473.35 589.15 473.05 588.25 470.8 L588.25 469.65 M596.7 469.55 L596.45 468.85 595.9 467.2 Q595.75 466.7 596.1 466.45 596.45 466.05 596.8 466.05 597.25 466.05 597.7 466.5 L598.15 467.1 598.25 468.65 598.25 468.75 Q599.05 472.55 597.8 471.2 L596.8 469.75 596.7 469.55 M593.25 468.65 L593.15 467.8 Q593.15 466.25 594.15 467.2 L595.3 468.55 595.55 469.35 595.65 470.1 595.65 471.2 594.85 471.7 Q594.5 471.7 593.85 470.9 L593.5 470.4 593.4 470.5 593.25 468.65 M600.45 467.2 Q600.3 466.45 600.55 466.05 600.8 465.45 601.55 465.55 602.35 465.55 602.8 466.35 L603.05 466.9 603.3 467.5 603.3 468.0 603.85 470.6 Q603.95 472.75 602.5 470.2 L601.35 468.55 600.45 467.2 M603.75 467.7 L603.5 466.5 Q603.3 464.6 604.2 465.85 L605.0 467.8 Q605.55 469.15 605.55 470.5 605.1 471.5 604.1 469.45 L603.75 467.7 M605.65 467.4 L605.35 466.7 605.35 465.85 Q605.65 465.15 606.0 465.15 606.35 465.15 606.6 465.45 L606.9 465.75 607.05 465.95 607.6 469.75 607.6 469.85 Q607.7 471.0 606.8 469.35 606.15 468.65 605.65 467.4 M607.6 465.55 L607.6 465.05 Q607.7 463.9 608.4 465.15 L608.75 466.05 609.45 468.25 Q609.3 469.05 608.85 469.05 608.5 469.05 607.95 468.55 L607.95 468.65 607.85 468.45 607.7 467.7 Q607.5 466.7 607.6 465.55 M609.55 466.25 L609.3 465.85 609.3 465.65 609.55 465.25 Q609.75 464.95 610.2 465.05 610.55 465.05 610.9 465.45 L610.9 465.55 610.8 468.25 Q610.55 469.05 610.1 467.9 L609.55 466.25 M598.75 468.65 Q598.6 467.9 598.75 467.1 598.75 466.35 599.05 466.7 L600.1 468.1 600.9 469.25 Q602.15 471.7 600.8 471.95 599.5 472.35 599.2 471.4 L598.75 468.65 M584.4 451.35 L584.05 451.35 583.25 451.45 582.55 451.95 581.75 452.9 580.95 453.4 580.65 453.3 580.4 452.8 580.4 452.25 580.65 452.05 580.75 451.95 581.75 451.45 583.25 450.95 583.95 450.95 584.4 451.35 M575.4 454.85 L575.6 454.65 577.55 453.7 Q578.1 453.6 578.35 454.05 L578.35 454.35 578.0 454.55 Q577.8 454.45 577.45 454.75 L576.85 455.55 576.2 456.0 575.6 455.9 575.3 455.65 575.4 455.25 575.4 454.85 M568.65 451.85 L568.2 452.5 567.75 453.2 567.65 453.3 Q566.4 453.2 565.85 450.85 566.05 450.65 566.65 451.05 L568.65 451.85 M575.4 471.0 L575.4 470.8 575.4 469.75 Q575.5 468.45 575.85 467.4 L575.85 467.3 576.05 467.1 576.1 467.05 576.15 467.0 576.2 467.0 576.2 466.9 Q576.65 466.25 577.1 467.4 L577.9 468.85 578.6 470.1 Q580.3 472.55 580.05 473.9 L579.6 474.8 Q578.7 475.45 577.35 475.2 576.4 475.1 575.95 474.3 575.6 473.7 575.5 472.65 L575.4 471.0 M565.35 461.75 L566.05 461.35 Q566.85 460.9 567.3 461.0 567.75 461.0 568.2 461.35 568.65 461.75 569.45 461.75 L570.15 461.75 570.7 461.55 Q571.5 461.55 572.0 462.15 L572.3 463.4 Q572.3 464.6 571.3 466.05 L569.15 468.65 Q567.65 470.4 567.1 471.7 566.05 473.6 566.15 475.35 L566.4 476.85 566.65 478.3 Q566.85 480.7 566.4 481.1 559.9 473.7 564.45 463.5 L565.35 461.75 M578.45 468.45 L578.45 468.35 578.7 468.0 Q578.9 467.3 579.6 466.7 L580.3 466.05 Q581.1 465.75 581.55 466.05 582.9 466.15 583.45 469.65 L583.45 469.95 584.15 471.6 584.25 472.05 585.05 474.1 585.2 474.5 585.5 475.2 585.65 475.85 Q585.75 477.1 584.6 475.95 L582.8 474.6 Q580.3 472.35 578.9 470.2 L578.45 468.45" fill="#ffffff" fill-rule="evenodd" stroke="none"/>
    <path d="M572.65 437.55 L573.9 440.25 Q574.0 441.15 574.6 442.3 L575.6 444.65 576.65 446.95 577.35 449.6 Q577.45 450.5 576.65 451.25 L575.3 452.15 573.55 452.5 571.65 452.8 570.7 452.5 570.25 452.15 570.15 451.95 570.05 451.35 570.05 450.3 569.8 449.5 570.5 450.4 571.65 451.05 Q572.2 451.25 573.35 450.65 574.7 450.1 574.95 449.2 575.3 448.25 574.8 447.35 L573.9 444.45 Q573.35 442.7 573.25 441.35 L572.9 439.1 572.65 437.75 572.65 437.55 M584.75 449.9 L584.85 450.2 584.85 450.3 Q584.95 450.5 585.2 450.5 585.85 450.5 586.75 449.0 587.8 447.35 588.25 447.35 L588.35 447.35 588.35 447.75 588.35 448.65 588.35 449.2 Q588.5 450.3 588.05 450.95 587.7 451.65 586.55 451.65 586.0 451.55 585.2 451.05 L584.75 450.65 584.6 450.2 Q584.6 450.0 584.75 449.9 M580.65 452.05 L580.4 452.25 580.4 452.8 580.65 453.3 580.95 453.4 581.75 452.9 582.55 451.95 583.25 451.45 584.05 451.35 584.4 451.35 584.4 451.75 584.4 452.15 584.4 452.25 584.4 452.4 584.25 453.9 Q583.95 454.95 582.55 454.85 581.55 454.85 580.75 454.15 L580.05 453.4 580.05 452.9 580.3 452.15 580.65 452.05 M575.4 454.85 L575.4 455.25 575.3 455.65 575.6 455.9 576.2 456.0 576.85 455.55 577.45 454.75 Q577.8 454.45 578.0 454.55 L578.35 454.35 578.25 454.75 578.25 454.85 577.8 456.2 Q577.45 457.0 576.65 457.0 L576.05 456.9 575.6 456.5 575.3 456.3 Q574.95 455.65 575.15 455.15 L575.4 454.85 M584.5 468.85 Q584.6 468.35 584.95 468.45 585.4 468.45 585.75 469.95 L586.1 472.05 586.0 473.6 585.2 474.5 585.05 474.1 584.25 472.05 584.15 471.6 584.25 469.95 Q584.25 469.25 584.5 468.85" fill="#e7e2da" fill-rule="evenodd" stroke="none"/>
    <path d="M577.9 451.15 L577.2 451.65 Q575.05 453.0 572.45 453.5 571.2 453.6 570.5 452.6 L570.25 452.15 570.7 452.5 571.65 452.8 573.55 452.5 575.3 452.15 576.65 451.25 Q577.45 450.5 577.35 449.6 L576.65 446.95 575.6 444.65 574.6 442.3 Q574.0 441.15 573.9 440.25 L574.8 442.3 577.65 448.05 578.0 448.65 Q579.15 449.7 577.9 451.15" fill="#989188" fill-rule="evenodd" stroke="none"/>
    <path d="M585.4 443.2 L585.5 443.2 586.2 443.3 587.1 442.7 Q587.55 442.3 587.55 441.45 587.7 440.55 587.35 439.6 L586.75 437.85 586.3 435.9 586.3 435.1 587.0 436.75 Q587.0 437.05 587.35 437.45 L587.55 438.5 588.5 440.15 589.3 442.0 Q589.3 442.9 588.25 443.4 L586.3 443.75 585.5 443.45 585.4 443.2 M592.35 468.45 Q591.35 466.8 590.65 466.8 590.2 466.7 590.1 467.1 L590.1 467.7 590.4 468.85 590.4 468.95 590.65 469.45 590.2 468.75 Q588.95 467.4 589.15 466.8 589.5 465.35 591.2 466.25 591.9 466.5 592.35 468.45 M598.15 467.1 L597.7 466.5 Q597.25 466.05 596.8 466.05 596.45 466.05 596.1 466.45 595.75 466.7 595.9 467.2 L596.45 468.85 596.7 469.55 595.2 467.4 Q594.5 466.35 595.3 465.55 596.1 464.6 597.7 465.95 L598.15 467.1 M595.3 468.55 L595.9 469.55 Q596.35 470.6 596.35 471.75 596.35 472.85 594.95 472.45 593.95 472.55 593.4 470.5 L593.5 470.4 593.85 470.9 Q594.5 471.7 594.85 471.7 L595.65 471.2 595.65 470.1 595.55 469.35 595.3 468.55 M600.45 467.2 L600.1 466.8 Q599.4 465.35 600.45 464.6 L600.9 464.3 601.45 464.3 Q602.05 464.3 602.6 465.05 L603.05 466.8 603.05 466.9 602.8 466.35 Q602.35 465.55 601.55 465.55 600.8 465.45 600.55 466.05 600.3 466.45 600.45 467.2 M605.35 466.7 L605.1 466.15 605.0 466.05 Q604.55 464.6 605.2 464.3 606.8 463.8 606.9 465.15 L606.9 465.75 606.6 465.45 Q606.35 465.15 606.0 465.15 605.65 465.15 605.35 465.85 L605.35 466.7 M609.3 465.65 Q609.1 464.5 609.55 464.5 610.8 464.2 610.9 465.45 610.55 465.05 610.2 465.05 609.75 464.95 609.55 465.25 L609.3 465.65 M607.95 468.65 L607.95 468.55 Q608.5 469.05 608.85 469.05 609.3 469.05 609.45 468.25 L609.55 468.75 Q609.9 469.45 609.45 469.95 609.2 470.3 608.5 469.55 L607.95 468.65" fill="#ece5dd" fill-rule="evenodd" stroke="none"/>
    <path d="M589.4 443.1 Q588.25 443.75 586.65 443.85 L586.3 443.95 Q585.85 443.95 585.5 443.45 L586.3 443.75 588.25 443.4 Q589.3 442.9 589.3 442.0 L588.5 440.15 587.55 438.5 587.35 437.45 Q588.15 438.9 589.4 440.35 L589.6 440.65 Q590.3 441.7 590.1 442.3 L589.4 443.1" fill="#aa9e90" fill-rule="evenodd" stroke="none"/>
    <path d="M586.3 443.95 Q585.4 444.25 584.15 445.9 582.9 447.35 581.55 447.45 580.95 447.55 580.65 448.55 L579.95 449.7 578.7 450.85 577.9 451.15 Q579.15 449.7 578.0 448.65 L577.65 448.05 Q579.15 447.55 579.35 446.6 579.7 445.6 580.85 445.9 583.0 446.4 585.4 443.2 L585.5 443.45 Q585.85 443.95 586.3 443.95" fill="#cdc0a0" fill-rule="evenodd" stroke="none"/>
    <path d="M602.15 453.2 L601.9 452.8 Q601.7 452.4 602.35 451.75 604.3 451.35 606.15 449.8 L607.85 448.35 Q608.85 447.65 609.9 447.65 610.55 447.65 612.15 448.9 L614.0 450.2 Q614.3 450.75 615.0 451.05 L616.05 451.45 Q617.05 451.85 617.15 453.2 617.3 454.15 616.25 455.35 L615.8 455.75 615.35 455.8 614.0 456.0 610.45 456.1 608.05 455.65 605.8 454.95 Q605.35 454.85 603.95 454.0 L602.35 453.2 602.15 453.2" fill="#484342" fill-rule="evenodd" stroke="none"/>
    <path d="M578.25 462.75 L578.35 462.35 578.35 462.55 578.25 462.75 M585.5 455.35 L586.0 454.95 586.3 456.3 587.0 457.6 588.5 457.95 Q589.6 458.15 589.75 458.55 589.75 458.75 588.05 459.35 586.55 459.8 586.55 460.4 586.65 461.1 587.45 461.55 L588.95 461.85 Q589.75 461.85 591.65 461.0 593.95 460.0 594.85 460.0 595.3 460.1 596.1 460.7 L597.45 461.35 597.95 461.55 599.3 461.85 Q600.0 462.15 600.0 462.85 600.1 463.7 598.4 463.8 L596.45 463.6 595.3 463.5 594.3 463.6 Q593.85 463.8 593.5 464.1 L592.9 464.4 591.35 463.6 Q589.6 462.65 588.95 462.65 L587.25 463.0 585.65 463.2 583.7 462.75 581.65 462.45 580.4 462.45 580.05 462.55 Q579.15 462.35 579.5 461.55 579.25 461.0 580.3 459.9 581.2 458.95 582.8 458.55 L584.05 457.95 Q584.85 457.5 585.05 457.1 L585.5 455.75 585.5 455.35 M598.95 454.35 L599.2 455.05 599.2 456.4 Q599.3 457.75 600.65 457.75 L601.7 457.75 602.7 457.6 Q604.2 457.65 607.85 458.65 611.35 459.6 611.95 459.9 611.7 460.4 610.8 460.6 L609.3 460.7 606.8 460.1 Q604.55 459.4 604.1 459.4 L602.25 459.6 600.55 459.9 598.15 459.5 596.2 459.05 Q595.2 459.05 592.45 460.0 589.75 460.9 588.5 460.8 L588.05 460.7 Q588.05 460.4 588.5 460.2 L588.6 460.2 589.05 460.1 589.5 460.0 592.1 459.15 594.65 458.35 Q596.2 457.75 597.15 457.1 598.15 456.4 598.6 454.35 L598.95 454.35" fill="#fff9e3" fill-rule="evenodd" stroke="none"/>
    <path d="M594.95 447.85 L594.95 447.15 595.1 446.95 595.1 447.15 594.95 447.85" fill="#bdad97" fill-rule="evenodd" stroke="none"/>
    <path d="M588.8 452.5 L589.5 451.65 Q591.35 449.3 592.7 449.0 593.7 448.8 594.3 450.0 594.95 451.15 595.1 452.4 595.2 454.25 593.15 455.9 591.2 457.5 589.4 457.4 587.9 457.4 587.7 456.0 587.55 455.55 587.7 455.05 587.7 455.55 588.15 456.0 588.6 456.5 589.4 456.6 590.65 456.6 592.0 455.55 593.5 454.15 593.4 452.7 L593.25 451.55 Q592.8 450.75 592.0 450.75 591.2 450.55 590.55 451.15 L588.8 452.5" fill="#565656" fill-rule="evenodd" stroke="none"/>
    <path d="M588.35 447.75 L588.35 447.95 588.6 449.4 Q588.8 450.3 588.25 451.15 587.7 452.25 586.75 452.25 586.2 452.25 585.5 451.55 L584.75 450.65 585.2 451.05 Q586.0 451.55 586.55 451.65 587.7 451.65 588.05 450.95 588.5 450.3 588.35 449.2 L588.35 448.65 588.35 447.75" fill="#aaa49b" fill-rule="evenodd" stroke="none"/>
    <path d="M587.9 453.9 L588.05 453.8 Q588.25 453.2 588.8 452.5 L590.55 451.15 Q591.2 450.55 592.0 450.75 592.8 450.75 593.25 451.55 L593.4 452.7 Q593.5 454.15 592.0 455.55 590.65 456.6 589.4 456.6 588.6 456.5 588.15 456.0 587.7 455.55 587.7 455.05 L587.9 453.9" fill="#231815" fill-rule="evenodd" stroke="none"/>
    <path d="M587.45 463.6 L586.9 463.7 Q585.65 464.4 585.05 464.4 L582.9 463.7 Q581.9 463.1 581.1 463.0 L579.7 463.3 578.35 463.8 578.1 463.3 578.25 462.75 578.35 462.55 578.35 462.35 578.35 462.15 Q578.25 461.95 578.45 461.25 L578.45 461.1 Q578.45 460.2 578.7 459.7 579.35 458.25 581.3 458.25 L582.7 457.95 Q583.0 457.75 584.75 457.1 L585.4 456.0 585.5 455.35 585.5 455.75 585.05 457.1 Q584.85 457.5 584.05 457.95 L582.8 458.55 Q581.2 458.95 580.3 459.9 579.25 461.0 579.5 461.55 579.15 462.35 580.05 462.55 L580.4 462.45 581.65 462.45 583.7 462.75 585.65 463.2 587.25 463.0 588.95 462.65 Q589.6 462.65 591.35 463.6 L592.9 464.4 592.8 464.4 591.0 463.8 589.15 463.2 588.15 463.4 587.45 463.6" fill="#ded5b7" fill-rule="evenodd" stroke="none"/>
    <path d="M575.95 465.25 L576.3 466.05 Q577.0 466.7 577.55 466.7 578.0 466.7 578.7 465.95 579.7 465.05 581.1 465.05 581.55 465.05 583.25 465.95 585.2 466.7 586.0 466.7 586.65 466.7 587.45 465.95 588.15 465.05 588.95 464.95 589.6 464.75 590.4 464.95 591.1 465.05 592.1 466.05 L591.8 465.85 Q591.0 465.15 589.95 465.05 588.35 465.05 587.55 466.35 L587.0 467.1 Q586.55 467.5 585.85 467.5 L583.95 466.5 Q582.2 465.65 581.4 465.55 580.85 465.55 580.3 466.05 L579.6 466.7 Q578.9 467.3 578.7 468.0 L578.45 468.35 578.45 468.45 577.9 468.85 577.1 467.4 Q576.65 466.25 576.2 466.9 L575.95 466.35 575.85 465.55 575.95 465.25 M590.65 469.45 L590.75 469.55 592.35 471.3 Q593.15 472.25 592.6 469.55 L593.05 468.85 593.25 468.65 593.4 470.5 Q593.95 472.55 594.95 472.45 596.35 472.85 596.35 471.75 596.35 470.6 595.9 469.55 596.35 469.85 596.55 469.85 L596.8 469.75 597.8 471.2 Q599.05 472.55 598.25 468.75 L598.25 468.65 598.75 468.65 599.2 471.4 Q599.5 472.35 600.8 471.95 602.15 471.7 600.9 469.25 L601.35 468.55 602.5 470.2 Q603.95 472.75 603.85 470.6 L603.3 468.0 603.3 467.5 603.5 467.6 603.75 467.7 604.1 469.45 Q605.1 471.5 605.55 470.5 605.55 469.15 605.0 467.8 L605.65 467.4 Q606.15 468.65 606.8 469.35 607.7 471.0 607.6 469.85 L607.6 469.75 607.05 465.95 606.9 465.75 607.6 465.55 Q607.5 466.7 607.7 467.7 L607.85 468.45 607.95 468.65 608.5 469.55 Q609.2 470.3 609.45 469.95 609.9 469.45 609.55 468.75 L609.45 468.25 608.75 466.05 609.3 466.25 609.55 466.25 610.1 467.9 Q610.55 469.05 610.8 468.25 L610.9 465.55 611.15 465.55 Q611.5 465.55 612.05 465.85 L612.95 466.45 614.0 466.6 Q614.45 466.8 614.45 467.4 614.55 468.0 614.1 468.55 L613.5 469.05 612.95 468.85 612.4 468.75 Q611.7 468.75 610.7 469.95 L609.65 470.7 609.55 470.7 608.05 470.8 607.7 471.1 606.7 471.7 605.2 471.4 604.3 471.0 604.2 471.95 Q604.1 472.35 603.5 472.35 L602.8 472.05 602.15 471.85 Q601.9 471.75 601.25 472.15 L600.3 472.65 599.05 472.25 597.8 471.95 597.15 472.55 Q596.7 473.25 595.65 473.15 L594.4 472.85 593.15 472.35 Q592.7 472.35 592.6 472.65 L591.9 473.6 Q591.45 474.5 590.55 474.4 L589.3 474.4 588.6 474.0 587.55 473.7 Q586.75 473.8 586.65 474.6 L586.45 475.45 585.85 475.85 585.65 475.85 585.5 475.2 585.2 474.5 586.0 473.6 586.1 472.05 585.75 469.95 Q585.4 468.45 584.95 468.45 L585.3 468.25 Q585.75 468.25 586.3 468.95 587.0 469.75 587.55 469.75 L588.25 469.65 588.25 470.8 Q589.15 473.05 589.75 473.35 591.1 474.0 590.85 472.05 590.65 470.7 589.6 468.75 589.75 468.65 589.85 468.65 L590.2 468.75 590.65 469.45 M574.35 471.7 L574.5 471.7 574.95 471.5 575.4 471.0 575.5 472.65 Q575.6 473.7 575.95 474.3 575.15 474.2 574.8 473.8 L573.35 472.45 Q573.55 472.25 573.8 472.15 L574.0 471.95 574.05 471.95 574.35 471.7 M583.45 469.65 Q584.05 469.55 584.4 468.85 L584.5 468.85 Q584.25 469.25 584.25 469.95 L584.15 471.6 583.45 469.95 583.45 469.65 M574.05 471.95 L574.25 471.95 574.25 471.85 574.05 471.95" fill="#776c5f" fill-rule="evenodd" stroke="none"/>
    <path d="M599.3 465.05 L599.75 464.6 Q600.2 463.7 601.55 463.8 L602.25 464.0 602.8 463.9 603.15 463.8 603.85 463.6 605.2 463.3 608.65 462.85 610.2 462.85 611.15 463.1 612.25 463.6 Q614.1 464.3 616.6 464.4 L617.6 464.4 617.75 464.4 Q616.95 465.95 616.25 468.0 615.45 469.35 614.3 469.35 L613.5 469.25 612.6 469.05 Q612.15 469.05 611.35 470.0 610.7 471.1 609.65 470.7 L610.7 469.95 Q611.7 468.75 612.4 468.75 L612.95 468.85 613.5 469.05 614.1 468.55 Q614.55 468.0 614.45 467.4 614.45 466.8 614.0 466.6 L612.95 466.45 612.05 465.85 Q611.5 465.55 611.15 465.55 L610.9 465.55 610.9 465.45 Q610.8 464.2 609.55 464.5 609.1 464.5 609.3 465.65 L609.3 465.85 609.55 466.25 609.3 466.25 608.75 466.05 608.4 465.15 Q607.7 463.9 607.6 465.05 L607.6 465.55 606.9 465.75 606.9 465.15 Q606.8 463.8 605.2 464.3 604.55 464.6 605.0 466.05 L605.1 466.15 605.35 466.7 605.65 467.4 605.0 467.8 604.2 465.85 Q603.3 464.6 603.5 466.5 L603.75 467.7 603.5 467.6 603.3 467.5 603.05 466.9 603.05 466.8 602.6 465.05 Q602.05 464.3 601.45 464.3 L600.9 464.3 600.45 464.6 Q599.4 465.35 600.1 466.8 L600.45 467.2 601.35 468.55 600.9 469.25 600.1 468.1 599.05 466.7 Q598.75 466.35 598.75 467.1 598.6 467.9 598.75 468.65 L598.25 468.65 598.15 467.1 597.7 465.95 Q596.1 464.6 595.3 465.55 594.5 466.35 595.2 467.4 L596.7 469.55 596.8 469.75 596.55 469.85 Q596.35 469.85 595.9 469.55 L595.3 468.55 594.15 467.2 Q593.15 466.25 593.15 467.8 L593.25 468.65 593.05 468.85 592.6 469.55 592.35 468.65 592.35 468.45 Q591.9 466.5 591.2 466.25 589.5 465.35 589.15 466.8 588.95 467.4 590.2 468.75 L589.85 468.65 Q589.75 468.65 589.6 468.75 L588.95 467.9 Q588.25 467.1 588.25 468.25 L588.25 469.65 587.55 469.75 Q587.0 469.75 586.3 468.95 585.75 468.25 585.3 468.25 L584.95 468.45 Q584.6 468.35 584.5 468.85 L584.4 468.85 Q584.05 469.55 583.45 469.65 582.9 466.15 581.55 466.05 581.1 465.75 580.3 466.05 580.85 465.55 581.4 465.55 582.2 465.65 583.95 466.5 L585.85 467.5 Q586.55 467.5 587.0 467.1 L587.55 466.35 Q588.35 465.05 589.95 465.05 591.0 465.15 591.8 465.85 L592.1 466.05 Q592.7 466.45 593.25 466.5 L594.65 465.65 Q595.45 464.65 596.0 464.75 L596.9 465.15 597.95 465.55 598.75 465.55 599.3 465.05 M577.9 468.85 L578.45 468.45 578.9 470.2 Q580.3 472.35 582.8 474.6 L582.7 474.6 581.4 474.3 580.05 473.9 Q580.3 472.55 578.6 470.1 L577.9 468.85" fill="#463b2f" fill-rule="evenodd" stroke="none"/>
    <path d="M580.05 453.4 L580.75 454.15 Q581.55 454.85 582.55 454.85 583.95 454.95 584.25 453.9 L584.4 452.4 584.75 454.45 Q584.4 456.1 582.55 455.75 580.95 455.25 580.5 454.35 L580.05 453.4" fill="#9c978e" fill-rule="evenodd" stroke="none"/>
    <path d="M578.25 454.85 Q578.35 456.0 578.0 456.8 577.0 458.05 575.6 456.8 L575.3 456.3 575.6 456.5 576.05 456.9 576.65 457.0 Q577.45 457.0 577.8 456.2 L578.25 454.85" fill="#a19b92" fill-rule="evenodd" stroke="none"/>
    <path d="M570.5 452.6 Q569.6 452.8 569.15 453.7 L568.65 455.65 568.35 456.1 567.65 456.8 566.95 457.2 566.5 457.4 Q567.1 456.8 566.65 455.75 L566.5 454.55 567.1 453.9 567.65 453.3 567.75 453.2 568.2 452.5 568.65 451.85 569.15 451.95 Q569.7 452.15 569.95 451.65 L570.05 451.35 570.15 451.95 570.25 452.15 570.5 452.6" fill="#d2c5a6" fill-rule="evenodd" stroke="none"/>
    <path d="M565.85 450.85 Q566.4 453.2 567.65 453.3 L567.1 453.9 566.5 454.55 565.7 451.55 Q565.6 450.85 565.85 450.85 M565.35 461.75 L566.85 459.7 Q567.75 458.75 568.45 459.25 L569.45 459.7 570.05 459.9 571.2 459.6 Q572.1 459.4 572.75 460.1 573.45 460.7 574.0 461.85 574.7 462.85 574.95 464.1 L575.05 466.45 Q574.7 467.6 574.7 468.1 574.6 468.45 574.8 469.05 L574.7 470.3 Q574.8 471.1 574.5 471.5 L574.35 471.7 574.05 471.95 574.0 471.95 573.8 472.15 Q573.55 472.25 573.35 472.45 L572.45 473.25 Q570.25 475.1 569.7 476.35 L568.9 478.5 568.45 480.7 Q568.1 482.85 566.65 481.3 L566.4 481.1 Q566.85 480.7 566.65 478.3 L566.4 476.85 566.15 475.35 Q566.05 473.6 567.1 471.7 567.65 470.4 569.15 468.65 L571.3 466.05 Q572.3 464.6 572.3 463.4 L572.0 462.15 Q571.5 461.55 570.7 461.55 L570.15 461.75 569.45 461.75 Q568.65 461.75 568.2 461.35 567.75 461.0 567.3 461.0 566.85 460.9 566.05 461.35 L565.35 461.75 M574.05 471.95 L574.25 471.85 574.25 471.95 574.05 471.95" fill="#ded5c9" fill-rule="evenodd" stroke="none"/>
    <path d="M565.05 460.4 L566.4 458.55 Q568.2 456.6 569.15 456.6 569.8 456.7 570.15 457.0 L571.2 457.5 572.45 457.6 573.8 457.6 Q574.8 457.6 575.6 459.05 576.3 460.3 576.4 461.55 L576.3 462.9 576.05 463.5 575.95 465.25 575.85 465.55 575.95 466.35 576.2 466.9 576.2 467.0 576.15 467.0 576.1 467.05 575.85 467.3 575.85 467.4 Q575.5 468.45 575.4 469.75 L575.4 470.8 575.4 471.0 574.95 471.5 574.5 471.7 574.35 471.7 574.5 471.5 Q574.8 471.1 574.7 470.3 L574.8 469.05 Q574.6 468.45 574.7 468.1 574.7 467.6 575.05 466.45 L574.95 464.1 Q574.7 462.85 574.0 461.85 573.45 460.7 572.75 460.1 572.1 459.4 571.2 459.6 L570.05 459.9 569.45 459.7 568.45 459.25 Q567.75 458.75 566.85 459.7 L565.35 461.75 564.45 463.5 Q564.1 462.25 565.05 460.4" fill="#aa9c89" fill-rule="evenodd" stroke="none"/>
    <path d="M617.95 464.4 L621.6 464.3 624.45 463.3 624.0 464.85 623.45 469.25 Q623.1 471.5 622.2 473.05 621.05 475.3 619.0 475.2 617.4 475.2 615.45 473.6 L614.1 472.65 Q613.3 472.15 612.5 472.05 612.15 472.05 610.8 472.95 609.55 473.6 608.65 473.6 L607.5 473.25 606.25 472.95 Q605.35 472.95 603.5 473.8 601.7 474.7 600.65 474.8 L598.75 474.5 597.45 474.3 596.9 474.0 595.65 473.8 Q594.95 473.7 593.5 474.3 L591.1 475.3 589.05 475.95 586.9 476.55 581.75 478.0 575.95 478.8 Q574.0 478.7 572.55 476.95 571.05 475.1 572.45 473.25 L573.35 472.45 574.8 473.8 Q575.15 474.2 575.95 474.3 576.4 475.1 577.35 475.2 578.7 475.45 579.6 474.8 L580.05 473.9 581.4 474.3 582.7 474.6 582.8 474.6 584.6 475.95 Q585.75 477.1 585.65 475.85 L585.85 475.85 586.45 475.45 586.65 474.6 Q586.75 473.8 587.55 473.7 L588.6 474.0 589.3 474.4 590.55 474.4 Q591.45 474.5 591.9 473.6 L592.6 472.65 Q592.7 472.35 593.15 472.35 L594.4 472.85 595.65 473.15 Q596.7 473.25 597.15 472.55 L597.8 471.95 599.05 472.25 600.3 472.65 601.25 472.15 Q601.9 471.75 602.15 471.85 L602.8 472.05 603.5 472.35 Q604.1 472.35 604.2 471.95 L604.3 471.0 605.2 471.4 606.7 471.7 607.7 471.1 608.05 470.8 609.55 470.7 609.65 470.7 Q610.7 471.1 611.35 470.0 612.15 469.05 612.6 469.05 L613.5 469.25 614.3 469.35 Q615.45 469.35 616.25 468.0 616.95 465.95 617.75 464.4 L617.95 464.4 M579.95 475.3 L578.0 475.75 576.05 475.1 575.75 475.1 Q575.5 474.9 575.05 474.8 L574.5 474.8 574.0 475.1 574.8 475.95 575.95 476.55 576.85 477.4 Q577.35 477.8 577.9 477.8 578.7 477.8 580.05 477.05 581.55 476.15 581.55 475.35 L581.4 475.0 Q581.2 474.8 580.85 474.8 L579.95 475.3" fill="#d0ba9c" fill-rule="evenodd" stroke="none"/>
    <path d="M579.95 475.3 L580.85 474.8 Q581.2 474.8 581.4 475.0 L581.55 475.35 Q581.55 476.15 580.05 477.05 578.7 477.8 577.9 477.8 577.35 477.8 576.85 477.4 L575.95 476.55 574.8 475.95 574.0 475.1 574.5 474.8 575.05 474.8 Q575.5 474.9 575.75 475.1 L576.05 475.1 578.0 475.75 579.95 475.3" fill="#e0d8b5" fill-rule="evenodd" stroke="none"/>
    <path d="M624.45 463.3 L625.95 462.15 626.95 461.15 627.65 459.9 628.45 458.25 Q628.8 457.4 629.25 457.1 L627.55 461.1 Q626.5 463.5 626.6 465.85 626.85 468.1 626.05 471.4 625.35 474.9 620.45 476.05 615.55 477.3 608.5 476.15 L595.45 475.65 Q589.5 476.45 584.15 478.3 578.45 480.05 575.15 480.05 571.75 480.05 568.9 478.5 L569.7 476.35 Q570.25 475.1 572.45 473.25 571.05 475.1 572.55 476.95 574.0 478.7 575.95 478.8 L581.75 478.0 586.9 476.55 589.05 475.95 591.1 475.3 593.5 474.3 Q594.95 473.7 595.65 473.8 L596.9 474.0 597.45 474.3 598.75 474.5 600.65 474.8 Q601.7 474.7 603.5 473.8 605.35 472.95 606.25 472.95 L607.5 473.25 608.65 473.6 Q609.55 473.6 610.8 472.95 612.15 472.05 612.5 472.05 613.3 472.15 614.1 472.65 L615.45 473.6 Q617.4 475.2 619.0 475.2 621.05 475.3 622.2 473.05 623.1 471.5 623.45 469.25 L624.0 464.85 624.45 463.3" fill="#988975" fill-rule="evenodd" stroke="none"/>
  </g>
  <defs>
    <radialGradient cx="0" cy="0" gradientTransform="matrix(2.0E-4, -0.0155, 0.0554, 3.0E-4, 593.5, 476.4)" gradientUnits="userSpaceOnUse" id="gradient0" r="819.2" spreadMethod="pad">
      <stop offset="0.19607843137254902" stop-color="#936b34" stop-opacity="0.6784314"/>
      <stop offset="0.7058823529411765" stop-color="#936b34" stop-opacity="0.29803923"/>
      <stop offset="0.8470588235294118" stop-color="#ad9065" stop-opacity="0.0"/>
    </radialGradient>
  </defs>
</svg>
