<?xml version="1.0" encoding="UTF-8" standalone="no"?>
<svg xmlns:xlink="http://www.w3.org/1999/xlink" height="41.75px" width="41.7px" xmlns="http://www.w3.org/2000/svg">
  <g transform="matrix(1.0, 0.0, 0.0, 1.0, 0.0, 0.0)">
    <path d="M32.75 3.05 L32.65 3.05 32.1 3.1 30.15 3.6 Q29.25 4.0 28.5 4.75 L21.95 11.35 21.6 11.6 20.85 12.4 13.25 4.8 Q11.45 3.0 9.0 3.0 L6.75 3.45 Q5.7 3.9 4.85 4.8 L4.8 4.85 Q3.9 5.7 3.45 6.75 L3.0 9.05 Q3.0 11.45 4.8 13.25 L12.4 20.85 4.75 28.45 4.8 28.45 Q3.9 29.35 3.45 30.45 L3.0 32.7 Q3.0 35.15 4.8 36.95 6.55 38.7 9.0 38.7 L10.0 38.65 11.7 38.1 13.25 37.0 13.25 36.95 20.85 29.3 28.5 36.95 Q30.25 38.7 32.65 38.75 L32.75 38.75 32.8 38.75 33.95 38.65 Q35.65 38.25 36.95 37.0 L37.0 36.95 38.1 35.45 38.65 33.75 38.7 32.7 Q38.7 30.25 36.9 28.45 L29.35 20.9 36.7 13.55 Q36.85 13.15 37.25 13.0 L37.95 12.05 38.4 11.05 38.7 9.05 Q38.7 6.55 36.95 4.8 35.2 3.05 32.85 3.05 L32.75 3.05 M32.65 0.05 L32.75 0.05 Q36.35 0.0 39.05 2.7 41.7 5.35 41.7 9.05 41.7 12.65 39.2 15.35 L39.0 15.5 33.6 20.95 39.0 26.35 Q41.7 29.05 41.7 32.7 41.7 36.35 39.2 39.05 L39.15 39.05 39.05 39.15 39.05 39.2 Q36.4 41.7 32.85 41.75 L32.75 41.75 32.65 41.75 Q28.9 41.7 26.35 39.0 L20.85 33.5 15.8 38.6 15.35 39.15 15.35 39.2 Q12.65 41.7 9.0 41.7 5.35 41.7 2.7 39.05 0.0 36.35 0.0 32.7 0.0 29.05 2.65 26.35 L8.2 20.85 2.7 15.35 Q0.0 12.65 0.0 9.05 0.0 5.35 2.7 2.7 5.35 0.0 9.0 0.0 12.65 0.0 15.35 2.7 L20.85 8.2 26.35 2.65 Q29.05 0.0 32.65 0.05" fill="#000000" fill-opacity="0.49803922" fill-rule="evenodd" stroke="none"/>
    <path d="M37.2 9.05 Q37.2 10.85 35.9 12.2 L27.2 20.85 35.85 29.5 Q37.2 30.85 37.2 32.7 37.2 34.55 35.9 35.9 34.55 37.2 32.7 37.25 30.85 37.2 29.5 35.85 L20.85 27.2 12.2 35.9 Q10.85 37.2 9.0 37.2 7.15 37.2 5.85 35.9 4.5 34.55 4.5 32.7 4.5 30.85 5.8 29.5 L14.5 20.85 5.85 12.2 Q4.5 10.85 4.5 9.05 4.5 7.15 5.85 5.85 7.15 4.5 9.0 4.5 10.85 4.5 12.2 5.85 L20.85 14.5 29.5 5.8 Q30.85 4.5 32.7 4.55 34.55 4.5 35.9 5.85 37.2 7.15 37.2 9.05" fill="#ff0000" fill-rule="evenodd" stroke="none"/>
  </g>
</svg>
