<?xml version="1.0" encoding="UTF-8" standalone="no"?>
<svg xmlns:xlink="http://www.w3.org/1999/xlink" height="55.2px" width="58.2px" xmlns="http://www.w3.org/2000/svg">
  <g transform="matrix(1.0, 0.0, 0.0, 1.0, -3.95, -3.75)">
    <path d="M61.75 7.35 Q59.7 22.3 57.9 46.45 L57.35 51.35 Q56.1 57.3 56.1 58.55 L10.75 58.55 Q10.3 57.3 9.2 52.7 L9.2 52.4 8.95 52.15 9.2 52.15 Q8.5 49.1 8.5 45.2 7.4 29.25 4.35 7.65 4.6 6.1 5.9 5.55 L5.6 5.05 Q5.9 4.75 6.65 4.75 L7.4 4.75 8.75 4.5 8.95 4.5 10.75 4.25 13.35 4.25 Q14.1 4.05 14.9 4.25 L16.15 4.25 57.1 4.75 58.15 4.75 58.15 5.05 58.4 5.05 Q58.7 5.05 58.9 5.3 L59.4 5.3 60.45 5.55 60.95 5.55 60.95 6.1 61.75 7.35" fill="#124f19" fill-rule="evenodd" stroke="none"/>
    <path d="M61.75 7.35 Q59.7 22.3 57.9 46.45 L57.35 51.35 Q56.1 57.3 56.1 58.55 L10.75 58.55 Q10.3 57.3 9.2 52.7 L9.2 52.4 8.95 52.15 9.2 52.15 Q8.5 49.1 8.5 45.2 7.4 29.25 4.35 7.65 4.6 6.1 5.9 5.55 L5.6 5.05 Q5.9 4.75 6.65 4.75 L7.4 4.75 8.75 4.5 8.95 4.5 10.75 4.25 13.35 4.25 Q14.1 4.05 14.9 4.25 L16.15 4.25 57.1 4.75 58.15 4.75 58.15 5.05 58.4 5.05 Q58.7 5.05 58.9 5.3 L59.4 5.3 60.45 5.55 60.95 5.55 60.95 6.1 61.75 7.35 Z" fill="none" stroke="#012001" stroke-linecap="round" stroke-linejoin="round" stroke-width="0.8"/>
    <path d="M58.15 5.05 L56.55 4.75 57.1 4.75 57.9 4.75 58.15 5.05 M42.15 13.55 Q33.9 17.7 25.7 13.55 24.95 11.95 23.9 10.75 20.3 7.15 14.35 4.75 L13.9 4.75 Q12.1 4.5 10.75 4.75 L10.5 4.75 8.75 4.5 8.95 4.5 10.75 4.25 13.35 4.25 Q14.35 4.05 16.15 4.25 L51.95 4.75 Q46.3 9.15 44.3 11.25 42.7 12.75 42.15 13.55" fill="#091c00" fill-rule="evenodd" stroke="none"/>
    <path d="M56.55 4.75 L58.15 5.05 58.4 5.05 Q58.7 5.05 58.9 5.3 L59.4 5.3 Q61.2 6.1 61.75 7.35 59.7 22.3 57.9 46.45 L57.35 51.35 52.7 52.95 52.7 53.15 52.5 53.45 50.15 53.95 Q55.8 35.65 56.1 4.75 L56.55 4.75 M10.75 4.75 Q11.3 38.75 16.7 53.7 L16.7 54.15 14.6 53.7 14.35 53.7 9.2 52.15 Q8.5 49.1 8.5 45.2 7.4 29.25 4.35 7.65 4.6 5.85 6.9 4.75 L8.75 4.5 10.5 4.75 10.75 4.75" fill="#153c00" fill-rule="evenodd" stroke="none"/>
    <path d="M56.1 4.75 Q55.8 35.65 50.15 53.95 L46.0 54.95 Q41.15 56.55 35.75 57.05 L33.9 57.05 32.15 57.05 25.5 56.3 20.0 55.25 16.7 54.15 16.7 53.7 Q11.3 38.75 10.75 4.75 12.1 4.5 13.9 4.75 L14.35 4.75 Q20.3 7.15 23.9 10.75 24.95 11.95 25.7 13.55 28.0 17.15 29.3 23.3 31.6 32.05 33.15 34.15 34.95 36.45 36.55 30.55 37.75 24.35 38.8 21.3 39.9 18.15 41.15 15.85 L42.15 13.55 Q42.7 12.75 44.3 11.25 46.3 9.15 51.95 4.75 L56.1 4.75" fill="#194303" fill-rule="evenodd" stroke="none"/>
    <path d="M42.15 13.55 L41.15 15.85 Q39.9 18.15 38.8 21.3 37.75 24.35 36.55 30.55 34.95 36.45 33.15 34.15 31.6 32.05 29.3 23.3 28.0 17.15 25.7 13.55 33.9 17.7 42.15 13.55" fill="#0e2c00" fill-rule="evenodd" stroke="none"/>
    <path d="M50.15 53.95 L52.5 53.45 51.2 58.55 15.7 58.55 15.15 57.85 Q14.35 56.3 14.35 53.7 L14.6 53.7 16.7 54.15 20.0 55.25 25.5 56.3 32.15 57.05 33.9 57.05 35.75 57.05 Q41.15 56.55 46.0 54.95 L50.15 53.95" fill="#e5e1e1" fill-rule="evenodd" stroke="none"/>
    <path d="M52.5 53.45 L52.7 53.15 52.7 52.95 57.35 51.35 Q56.1 57.3 56.1 58.55 L51.2 58.55 52.5 53.45 M14.35 53.7 Q14.35 56.3 15.15 57.85 L15.7 58.55 10.5 58.55 9.2 52.7 9.2 52.4 8.95 52.15 9.2 52.15 14.35 53.7" fill="#ada9a9" fill-rule="evenodd" stroke="none"/>
    <path d="M57.9 5.05 L60.45 5.55 51.7 19.7 45.0 16.65 Q42.7 15.55 41.35 18.15 39.1 29.75 36.0 35.15 L36.0 35.45 33.9 36.15 31.9 35.15 Q28.55 28.7 25.95 18.95 L25.7 18.45 Q24.4 14.85 22.35 15.55 L15.4 19.2 6.65 4.75 8.75 4.75 Q16.4 15.35 25.7 13.55 28.0 17.15 29.3 23.3 31.6 32.05 33.15 34.15 34.95 36.45 36.55 30.55 37.75 24.35 38.8 21.3 39.9 18.15 41.15 15.85 L42.15 13.55 Q52.5 15.35 57.9 5.05" fill="#b6bbb2" fill-rule="evenodd" stroke="none"/>
    <path d="M42.15 13.55 Q42.7 12.75 44.3 11.25 46.3 9.15 51.95 4.75 L57.9 5.05 Q52.5 15.35 42.15 13.55 M8.75 4.75 L10.5 4.75 Q12.1 4.5 13.9 4.75 L14.35 4.75 Q20.3 7.15 23.9 10.75 24.95 11.95 25.7 13.55 16.4 15.35 8.75 4.75" fill="#818a7a" fill-rule="evenodd" stroke="none"/>
    <path d="M60.45 5.55 L60.95 5.55 53.75 26.45 43.5 17.9 42.7 20.75 40.9 25.65 38.05 32.85 Q37.5 34.15 36.0 35.15 39.1 29.75 41.35 18.15 42.7 15.55 45.0 16.65 L51.7 19.7 60.45 5.55 M31.9 35.15 L31.6 34.9 Q30.1 33.65 27.25 26.45 24.7 18.95 23.35 17.15 L14.35 25.9 5.6 5.05 Q5.9 4.75 6.65 4.75 L15.4 19.2 22.35 15.55 Q24.4 14.85 25.7 18.45 L25.95 18.95 Q28.55 28.7 31.9 35.15" fill="#e5e1e1" fill-rule="evenodd" stroke="none"/>
    <path d="M18.2 54.95 L14.35 53.95 14.1 49.1 Q23.1 48.8 25.5 40.3 L42.15 40.3 Q44.3 48.3 52.5 48.8 L52.2 53.7 48.85 54.7 48.85 51.1 Q41.35 48.3 39.6 42.85 L27.5 42.85 Q25.5 50.1 17.95 51.1 L18.2 54.95" fill="#ced2ca" fill-rule="evenodd" stroke="none"/>
    <path d="M18.2 54.95 L17.95 51.1 Q25.5 50.1 27.5 42.85 L39.6 42.85 Q41.35 48.3 48.85 51.1 L48.85 54.7 43.5 56.05 35.2 57.3 33.4 57.3 31.6 57.3 Q24.95 57.05 18.2 54.95" fill="#b6bbb2" fill-rule="evenodd" stroke="none"/>
  </g>
</svg>
