<?xml version="1.0" encoding="UTF-8" standalone="no"?>
<svg xmlns:xlink="http://www.w3.org/1999/xlink" height="53.2px" width="55.0px" xmlns="http://www.w3.org/2000/svg">
  <g transform="matrix(1.0, 0.0, 0.0, 1.0, -5.55, -5.35)">
    <path d="M55.8 54.4 L55.8 53.0 55.3 55.0 55.3 55.45 54.6 58.15 11.8 58.15 11.55 56.2 11.3 55.7 11.3 55.45 10.6 53.0 10.6 52.55 10.6 52.3 10.6 51.85 Q10.35 51.1 10.35 50.35 L10.1 49.35 9.6 45.5 9.15 36.5 8.9 35.75 8.4 31.4 Q8.4 28.5 7.9 25.55 L7.65 23.85 7.2 20.7 6.95 18.05 5.95 10.0 Q5.95 8.35 8.4 7.6 9.15 7.1 10.35 7.1 L11.55 6.85 14.25 6.6 16.15 6.6 25.4 6.6 Q33.65 4.7 40.0 7.1 L55.8 7.35 56.75 7.6 57.75 7.6 58.0 7.6 58.0 7.85 Q59.7 8.6 60.15 10.0 59.45 13.65 59.2 18.05 L58.7 21.45 58.2 26.3 58.0 28.7 57.75 30.9 57.25 35.75 Q56.75 41.15 56.5 46.7 L56.3 49.15 56.3 50.35 Q56.05 50.6 56.05 51.1 L56.05 51.35 56.05 51.85 55.8 54.4 M55.8 52.9 L56.05 51.85 55.8 52.55 55.8 52.9 55.8 53.0 55.8 52.9" fill="#07200a" fill-rule="evenodd" stroke="none"/>
    <path d="M55.8 54.4 L55.8 53.0 55.3 55.0 55.3 55.45 54.6 58.15 11.8 58.15 11.55 56.2 11.3 55.7 11.3 55.45 10.6 53.0 10.6 52.55 10.6 52.3 10.6 51.85 Q10.35 51.1 10.35 50.35 L10.1 49.35 9.6 45.5 9.15 36.5 8.9 35.75 8.4 31.4 Q8.4 28.5 7.9 25.55 L7.65 23.85 7.2 20.7 6.95 18.05 5.95 10.0 Q5.95 8.35 8.4 7.6 9.15 7.1 10.35 7.1 L11.55 6.85 14.25 6.6 16.15 6.6 25.4 6.6 Q33.65 4.7 40.0 7.1 L55.8 7.35 56.75 7.6 57.75 7.6 58.0 7.6 58.0 7.85 Q59.7 8.6 60.15 10.0 59.45 13.65 59.2 18.05 L58.7 21.45 58.2 26.3 58.0 28.7 57.75 30.9 57.25 35.75 Q56.75 41.15 56.5 46.7 L56.3 49.15 56.3 50.35 Q56.05 50.6 56.05 51.1 L56.05 51.35 56.05 51.85 55.8 54.4 55.8 54.75 M55.8 52.9 L55.8 52.55 56.05 51.85 55.8 52.9 55.8 53.0" fill="none" stroke="#012001" stroke-linecap="round" stroke-linejoin="round" stroke-width="0.8"/>
    <path d="M48.25 7.1 L55.8 7.35 56.75 7.6 57.75 7.6 58.0 7.6 58.0 7.85 Q59.7 8.6 60.15 10.0 59.45 13.65 59.2 18.05 L58.7 21.45 Q58.0 19.75 56.5 18.05 55.3 16.55 53.1 14.9 50.45 12.7 46.8 10.5 L48.0 7.6 48.25 7.1 M7.2 20.7 L6.95 18.05 5.95 10.0 Q5.95 8.35 8.4 7.6 9.15 7.1 10.35 7.1 L11.3 6.85 14.25 6.6 16.4 6.6 17.65 10.25 17.9 10.5 14.95 12.45 Q11.05 15.15 8.9 18.05 7.9 19.25 7.2 20.7" fill="#011e04" fill-rule="evenodd" stroke="none"/>
    <path d="M19.8 6.6 L25.4 6.6 Q33.4 4.7 40.0 7.1 L45.1 7.1 44.35 9.05 Q43.85 10.75 43.15 11.75 42.7 13.15 41.95 14.15 40.0 17.3 36.6 18.55 34.65 19.25 32.7 19.25 L29.3 18.75 Q24.95 17.3 22.5 13.4 L21.8 12.0 Q21.05 10.75 20.55 9.05 L19.8 6.6" fill="#989898" fill-rule="evenodd" stroke="none"/>
    <path d="M16.4 6.6 L16.4 6.35 19.8 6.35 19.8 6.6 20.55 9.05 Q21.05 10.75 21.8 12.0 L22.5 13.4 Q24.95 17.3 29.3 18.75 L32.7 19.25 Q34.65 19.25 36.6 18.55 40.0 17.3 41.95 14.15 42.7 13.15 43.15 11.75 43.85 10.75 44.35 9.05 L45.1 7.1 45.35 6.35 48.5 6.35 48.25 7.1 48.0 7.6 46.8 10.5 Q46.3 12.2 45.6 13.15 L45.35 13.4 Q43.4 17.55 40.25 19.75 36.15 22.15 30.75 21.45 23.45 20.7 19.35 13.4 L17.9 10.5 17.65 10.25 16.4 6.6" fill="#cdd8c7" fill-rule="evenodd" stroke="none"/>
    <path d="M19.35 13.4 Q23.45 20.7 30.75 21.45 36.15 22.15 40.25 19.75 43.4 17.55 45.35 13.4 L45.6 13.15 Q49.95 15.35 52.65 18.05 53.35 38.65 47.75 54.0 L44.1 55.0 Q33.65 56.45 23.7 55.0 L18.85 54.25 Q12.75 37.5 15.2 16.35 17.15 14.65 19.35 13.4" fill="#012a05" fill-rule="evenodd" stroke="none"/>
    <path d="M58.7 21.45 L58.0 26.3 Q56.75 21.95 52.65 18.05 49.95 15.35 45.6 13.15 46.3 12.2 46.8 10.5 50.45 12.7 53.1 14.9 55.3 16.55 56.5 18.05 58.0 19.75 58.7 21.45 M46.55 58.15 L20.05 58.15 18.6 54.25 18.85 54.25 23.7 55.0 Q33.65 56.45 44.1 55.0 L47.75 54.0 48.25 54.0 46.55 58.15 M7.9 25.55 L7.65 23.85 7.2 20.7 Q7.9 19.25 8.9 18.05 11.05 15.15 14.95 12.45 L17.9 10.5 19.35 13.4 Q17.15 14.65 15.2 16.35 L13.25 18.05 Q9.85 21.45 7.9 25.55" fill="#e5f0cf" fill-rule="evenodd" stroke="none"/>
    <path d="M58.0 26.3 L58.0 28.7 57.75 30.9 57.25 35.75 Q56.75 41.15 56.5 46.7 L56.3 49.15 56.05 50.35 56.05 51.1 56.05 51.35 56.05 51.85 55.8 52.8 55.8 51.85 Q52.15 53.25 48.25 54.0 L47.75 54.0 Q53.35 38.65 52.65 18.05 56.75 21.95 58.0 26.3 M10.6 51.85 Q10.35 51.1 10.35 50.35 L10.1 49.35 9.6 45.5 9.15 36.5 8.9 35.75 8.4 31.4 Q8.4 28.5 7.9 25.55 9.85 21.45 13.25 18.05 L15.2 16.35 Q12.75 37.5 18.85 54.25 L18.6 54.25 Q15.2 53.5 10.6 51.85" fill="#002003" fill-rule="evenodd" stroke="none"/>
    <path d="M55.8 52.8 L55.8 53.0 55.3 55.0 55.3 55.45 54.6 58.15 46.55 58.15 48.25 54.0 Q52.15 53.25 55.8 51.85 L55.8 52.8 M20.05 58.15 L11.8 58.15 Q11.8 57.4 11.3 56.2 L11.3 55.7 11.3 55.45 Q10.85 54.5 10.6 53.0 L10.6 52.55 10.6 52.3 10.6 51.85 Q15.2 53.5 18.6 54.25 L20.05 58.15" fill="#d4e0bd" fill-rule="evenodd" stroke="none"/>
    <path d="M47.05 17.3 L48.25 17.3 Q49.5 17.55 50.2 18.05 51.15 18.55 51.9 19.25 53.85 21.2 53.85 23.85 53.85 26.3 51.9 28.25 49.95 30.2 47.05 30.2 44.1 30.2 41.95 28.25 40.0 26.3 40.0 23.85 40.0 21.2 41.95 19.25 L43.65 18.05 Q44.6 17.55 45.85 17.3 L47.05 17.3 M44.1 20.2 L43.85 20.0 43.4 19.75 43.4 19.5 Q42.7 20.0 41.95 20.95 40.7 22.4 40.7 23.85 40.7 24.85 41.7 26.05 42.2 27.25 42.9 27.75 L43.65 26.8 42.7 25.3 Q42.45 24.6 42.45 23.65 42.45 22.65 42.9 21.45 L44.1 20.45 44.1 20.2 M44.35 23.15 Q44.35 22.65 45.1 22.15 45.35 21.45 45.85 21.45 L46.55 21.95 47.05 22.4 46.8 22.9 46.55 23.4 46.1 23.15 Q45.85 22.9 45.6 22.9 45.35 22.9 45.35 23.4 L45.35 24.6 Q44.6 24.6 44.35 24.1 L44.35 23.15 M48.5 24.6 L48.75 24.6 49.0 24.85 49.25 25.3 49.25 25.8 49.0 26.05 48.5 25.8 48.25 24.85 Q48.25 24.6 48.5 24.6 M44.35 21.45 Q43.4 22.4 43.4 23.85 43.4 25.3 44.35 26.05 45.35 27.25 47.05 27.25 L48.75 27.05 49.7 26.05 Q50.7 25.3 50.7 23.85 50.7 22.4 49.7 21.45 48.75 20.2 47.05 20.2 45.35 20.2 44.35 21.45 M50.95 20.0 L50.2 20.7 Q51.15 21.7 51.4 22.4 51.9 22.9 51.9 24.1 51.9 24.85 51.4 25.8 L50.45 26.55 50.95 27.05 51.15 28.0 Q51.9 27.5 52.4 26.3 53.35 25.3 53.1 23.85 52.9 22.4 52.4 21.45 51.9 20.45 50.95 20.0" fill="#e5f0cf" fill-rule="evenodd" stroke="none"/>
    <path d="M44.35 23.15 L44.35 24.1 Q44.6 24.6 45.35 24.6 L45.35 23.4 Q45.35 22.9 45.6 22.9 45.85 22.9 46.1 23.15 L46.55 23.4 46.8 22.9 47.05 22.4 46.55 21.95 45.85 21.45 Q45.35 21.45 45.1 22.15 44.35 22.65 44.35 23.15 M44.1 20.2 L44.1 20.45 42.9 21.45 Q42.45 22.65 42.45 23.65 42.45 24.6 42.7 25.3 L43.65 26.8 42.9 27.75 Q42.2 27.25 41.7 26.05 40.7 24.85 40.7 23.85 40.7 22.4 41.95 20.95 42.7 20.0 43.4 19.5 L43.4 19.75 43.85 20.0 44.1 20.2 M44.35 21.45 Q45.35 20.2 47.05 20.2 48.75 20.2 49.7 21.45 50.7 22.4 50.7 23.85 50.7 25.3 49.7 26.05 L48.75 27.05 47.05 27.25 Q45.35 27.25 44.35 26.05 43.4 25.3 43.4 23.85 43.4 22.4 44.35 21.45 M48.5 24.6 Q48.25 24.6 48.25 24.85 L48.5 25.8 49.0 26.05 49.25 25.8 49.25 25.3 49.0 24.85 48.75 24.6 48.5 24.6 M50.95 20.0 Q51.9 20.45 52.4 21.45 52.9 22.4 53.1 23.85 53.35 25.3 52.4 26.3 51.9 27.5 51.15 28.0 L50.95 27.05 50.45 26.55 51.4 25.8 Q51.9 24.85 51.9 24.1 51.9 22.9 51.4 22.4 51.15 21.7 50.2 20.7 L50.95 20.0" fill="#7da541" fill-rule="evenodd" stroke="none"/>
    <path d="M46.8 33.85 L46.55 34.1 46.55 33.85 Q46.8 33.6 46.8 33.85 M51.15 34.1 L50.45 36.0 50.45 36.25 Q51.4 35.75 51.4 36.75 L51.9 37.75 51.4 38.45 Q51.15 38.65 51.15 39.4 L50.2 39.15 49.95 38.45 Q49.95 37.5 50.45 36.5 L49.75 36.25 49.5 36.25 47.75 36.5 47.75 36.25 Q46.8 37.5 46.55 38.65 M50.45 36.25 L50.45 36.5 51.4 36.75 M49.75 36.25 L50.45 36.25 M47.75 36.25 Q48.25 36.0 49.5 36.25 M15.45 29.2 Q14.25 39.4 14.5 40.4 13.75 39.4 14.25 33.85 14.7 30.9 15.45 29.2 L16.4 27.25 Q16.4 26.55 16.9 26.05 17.9 26.3 18.6 28.0 L18.85 29.45 Q18.85 30.9 17.4 33.1 L15.45 36.0 16.9 35.05 18.85 33.85 Q20.05 33.6 20.05 34.1 L20.3 35.05 Q20.3 36.0 19.1 37.5 L19.8 37.5 20.3 37.5 20.3 36.0 Q20.8 35.3 21.05 35.3 L23.45 34.8 Q23.7 35.3 23.45 35.75 24.2 35.3 24.45 35.3 24.45 35.05 24.95 34.8 25.4 35.3 25.65 36.5 L25.65 37.0 Q25.65 36.5 26.1 36.0 26.85 34.55 27.35 34.55 27.85 35.3 27.85 37.5 L29.05 36.25 29.75 35.3 30.25 35.3 Q30.25 35.75 31.25 37.25 32.7 36.25 32.95 31.4 33.15 25.8 33.65 24.85 L34.15 24.85 Q34.9 27.25 34.9 33.85 35.15 33.6 35.15 33.85 35.65 33.85 35.4 34.1 L37.3 33.85 Q38.3 33.1 38.8 33.35 39.75 33.35 40.25 33.85 41.45 34.55 41.45 35.3 41.7 35.75 40.45 36.5 39.05 37.5 38.55 38.0 L37.05 37.75 Q36.8 37.5 36.6 36.0 M19.1 37.5 L18.35 38.45 15.2 41.4 14.95 41.6 Q16.9 38.2 19.1 37.5 M20.3 37.5 Q21.05 37.0 23.45 36.5 L23.45 35.75 M25.65 38.2 L25.65 37.0 M20.3 37.5 L20.8 37.5 Q21.05 38.2 22.0 38.65 22.95 38.65 23.7 37.25 L23.45 36.5" fill="none" stroke="#e5f0cf" stroke-linecap="round" stroke-linejoin="round" stroke-width="1.0"/>
  </g>
</svg>
