<?xml version="1.0" encoding="UTF-8" standalone="no"?>
<svg xmlns:xlink="http://www.w3.org/1999/xlink" height="59.3px" width="53.45px" xmlns="http://www.w3.org/2000/svg">
  <g transform="matrix(1.0, 0.0, 0.0, 1.0, -9.05, -10.2)">
    <path d="M62.0 37.6 L61.35 39.95 59.8 43.05 54.5 52.05 54.8 55.1 54.3 57.7 55.65 69.1 15.8 69.1 17.35 61.45 17.35 61.25 18.2 57.7 18.0 57.7 17.1 55.3 17.1 52.45 Q17.1 51.15 15.8 49.6 L11.85 43.45 11.45 42.85 Q9.9 40.2 9.45 37.3 L11.25 34.7 11.85 33.85 Q11.85 33.35 12.75 32.55 L14.05 28.4 16.5 12.4 21.25 11.55 Q39.0 9.5 54.5 11.9 55.4 21.8 56.3 25.55 L56.75 27.5 59.15 33.15 Q60.05 34.95 61.35 35.8 62.4 36.45 62.0 37.6" fill="#a86400" fill-rule="evenodd" stroke="none"/>
    <path d="M62.0 37.6 L61.35 39.95 59.8 43.05 54.5 52.05 54.8 55.1 54.3 57.7 55.65 69.1 15.8 69.1 17.35 61.45 17.35 61.25 18.2 57.7 18.0 57.7 17.1 55.3 17.1 52.45 Q17.1 51.15 15.8 49.6 L11.85 43.45 11.45 42.85 Q9.9 40.2 9.45 37.3 L11.25 34.7 11.85 33.85 Q11.85 33.35 12.75 32.55 L14.05 28.4 16.5 12.4 21.25 11.55 Q39.0 9.5 54.5 11.9 55.4 21.8 56.3 25.55 L56.75 27.5 59.15 33.15 Q60.05 34.95 61.35 35.8 62.4 36.45 62.0 37.6 Z" fill="none" stroke="#411d14" stroke-linecap="round" stroke-linejoin="round" stroke-width="0.8"/>
    <path d="M56.25 25.4 L56.7 27.4 59.1 33.05 Q59.95 34.85 61.25 35.7 62.35 36.35 61.95 37.5 45.05 39.0 35.05 32.0 L31.95 29.6 Q44.25 31.35 56.25 25.4" fill="#c4c4c4" fill-rule="evenodd" stroke="none"/>
    <path d="M60.85 41.15 L59.95 42.75 59.1 42.75 Q58.4 43.15 57.55 44.65 L56.5 45.8 55.15 43.6 53.85 41.65 Q52.75 41.65 51.2 43.15 L49.5 44.65 Q49.2 44.65 47.5 42.25 L45.75 40.1 Q45.05 40.1 44.25 40.75 L42.9 42.05 39.8 38.55 Q38.5 38.55 37.65 39.4 L36.05 41.65 35.7 38.55 Q35.05 36.35 33.7 36.35 32.8 36.35 32.15 37.2 L30.8 38.55 Q30.4 38.15 29.95 36.35 L29.55 33.55 Q29.3 32.85 27.75 32.0 26.5 30.9 26.25 30.2 L26.25 30.0 25.85 28.5 26.5 28.7 Q26.7 29.35 28.0 30.2 29.55 31.35 29.55 32.25 L30.2 34.85 Q30.6 36.35 31.1 37.0 L32.4 35.7 Q33.0 35.1 33.9 35.1 35.25 35.1 35.85 36.8 36.05 39.2 36.35 39.85 L37.85 37.9 Q38.75 37.2 40.0 37.2 42.45 39.4 43.1 40.55 L44.25 39.4 Q45.05 38.55 45.95 38.55 L47.7 40.75 49.7 42.95 51.4 41.65 Q52.95 40.1 54.05 40.1 L55.35 41.85 Q56.5 43.6 56.7 44.5 L57.8 42.95 Q58.7 41.65 59.3 41.45 59.55 41.15 60.85 41.15 M14.85 23.85 L16.45 12.25 19.9 11.65 20.6 11.45 20.35 12.05 20.1 12.5 19.7 13.15 19.25 14.25 Q18.55 14.85 18.55 16.45 18.55 18.2 20.1 19.3 21.9 20.65 21.9 21.25 21.4 22.55 21.4 23.05 21.4 23.85 22.55 24.75 24.25 26.1 24.25 26.5 24.95 27.15 25.15 28.3 19.9 26.7 14.85 23.85" fill="#c47500" fill-rule="evenodd" stroke="none"/>
    <path d="M61.95 37.5 L61.25 39.85 60.85 41.15 Q59.55 41.15 59.3 41.45 58.7 41.65 57.8 42.95 L56.7 44.5 Q56.5 43.6 55.35 41.85 L54.05 40.1 Q52.95 40.1 51.4 41.65 L49.7 42.95 47.7 40.75 45.95 38.55 Q45.05 38.55 44.25 39.4 L43.1 40.55 Q42.45 39.4 40.0 37.2 38.75 37.2 37.85 37.9 L36.35 39.85 Q36.05 39.2 35.85 36.8 35.25 35.1 33.9 35.1 33.0 35.1 32.4 35.7 L31.1 37.0 Q30.6 36.35 30.2 34.85 L29.55 32.25 Q29.55 31.35 28.0 30.2 26.7 29.35 26.5 28.7 L31.95 29.6 35.05 32.0 Q45.05 39.0 61.95 37.5" fill="#fab634" fill-rule="evenodd" stroke="none"/>
    <path d="M59.95 42.75 L59.75 42.95 54.45 51.95 40.5 51.95 31.75 51.65 17.05 51.65 17.05 52.25 Q17.0 50.95 15.75 49.5 L11.8 43.35 11.4 42.75 Q9.85 40.1 9.4 37.2 L11.2 34.6 Q11.6 34.4 11.8 33.75 11.8 33.25 12.2 33.05 13.75 30.2 14.45 26.1 L14.85 23.85 Q19.9 26.7 25.15 28.3 L25.85 28.5 26.25 30.0 26.25 30.2 Q26.5 30.9 27.75 32.0 29.3 32.85 29.55 33.55 L29.95 36.35 Q30.4 38.15 30.8 38.55 L32.15 37.2 Q32.8 36.35 33.7 36.35 35.05 36.35 35.7 38.55 L36.05 41.65 37.65 39.4 Q38.5 38.55 39.8 38.55 L42.9 42.05 44.25 40.75 Q45.05 40.1 45.75 40.1 L47.5 42.25 Q49.2 44.65 49.5 44.65 L51.2 43.15 Q52.75 41.65 53.85 41.65 L55.15 43.6 56.5 45.8 57.55 44.65 Q58.4 43.15 59.1 42.75 L59.95 42.75 M54.95 62.4 L55.6 68.95 42.65 69.2 Q47.5 64.6 54.95 62.4 M29.8 68.75 L15.75 68.95 17.3 61.35 Q24.95 63.95 29.8 68.75" fill="#f99706" fill-rule="evenodd" stroke="none"/>
    <path d="M21.2 11.45 Q38.95 9.4 54.45 11.8 55.35 21.7 56.25 25.4 44.25 31.35 31.95 29.6 26.5 23.85 23.45 17.3 L21.2 11.45" fill="#a2a2a2" fill-rule="evenodd" stroke="none"/>
    <path d="M20.6 11.45 L21.2 11.45 23.45 17.3 Q26.5 23.85 31.95 29.6 L26.5 28.7 25.85 28.5 25.6 27.8 Q25.35 26.1 24.95 25.4 L23.2 23.65 Q22.1 23.05 22.1 21.95 L22.3 20.15 Q22.3 19.5 20.75 18.4 19.25 17.1 19.25 15.55 L19.25 14.25 19.7 13.15 20.1 12.5 20.35 12.05 20.6 11.45" fill="#e78f0c" fill-rule="evenodd" stroke="none"/>
    <path d="M25.85 28.5 L25.15 28.3 Q24.95 27.15 24.25 26.5 24.25 26.1 22.55 24.75 21.4 23.85 21.4 23.05 21.4 22.55 21.9 21.25 21.9 20.65 20.1 19.3 18.55 18.2 18.55 16.45 18.55 14.85 19.25 14.25 L19.25 15.55 Q19.25 17.1 20.75 18.4 22.3 19.5 22.3 20.15 L22.1 21.95 Q22.1 23.05 23.2 23.65 L24.95 25.4 Q25.35 26.1 25.6 27.8 L25.85 28.5" fill="#a36100" fill-rule="evenodd" stroke="none"/>
    <path d="M37.85 57.6 L31.75 57.6 31.75 51.65 40.5 51.95 40.3 57.4 37.85 57.6 M38.75 53.85 L33.45 53.85 33.7 55.6 38.5 55.4 38.75 53.85" fill="#fdd69b" fill-rule="evenodd" stroke="none"/>
    <path d="M38.75 53.85 L38.5 55.4 33.7 55.6 33.45 53.85 38.75 53.85" fill="#e38902" fill-rule="evenodd" stroke="none"/>
    <path d="M54.45 51.95 L54.75 55.0 54.25 57.6 42.9 57.6 40.3 57.4 40.5 51.95 54.45 51.95 M54.75 60.2 L54.95 62.4 Q47.5 64.6 42.65 69.2 L39.6 69.2 Q44.65 63.5 54.45 60.2 L54.75 60.2 M32.4 68.95 L30.4 68.95 29.8 68.75 Q24.95 63.95 17.3 61.35 L17.3 61.1 17.5 60.0 Q27.55 63.05 32.4 68.75 L32.4 68.95 M18.15 57.6 L17.95 57.6 17.05 55.2 17.05 52.25 17.05 51.65 31.75 51.65 31.75 57.6 18.15 57.6" fill="#010103" fill-rule="evenodd" stroke="none"/>
    <path d="M54.25 57.6 L54.75 60.2 54.45 60.2 Q44.65 63.5 39.6 69.2 L32.4 68.95 32.4 68.75 Q27.55 63.05 17.5 60.0 L18.15 57.6 31.75 57.6 37.85 57.6 42.9 57.6 54.25 57.6" fill="#7b4a00" fill-rule="evenodd" stroke="none"/>
    <path d="M44.45 38.8 Q45.95 38.8 47.5 40.55 49.5 42.05 50.8 42.05 51.4 42.05 52.55 41.15 53.85 40.3 54.95 40.3 57.3 40.3 57.3 42.45 57.3 44.5 55.6 46.7 54.05 48.6 52.55 48.6 51.65 48.6 50.8 47.3 49.7 45.8 48.6 45.8 L46.85 46.4 Q46.6 46.4 46.4 46.7 L45.75 46.7 Q44.25 46.7 43.1 46.0 41.85 45.8 41.15 44.65 L40.7 43.15 40.7 41.85 40.9 40.95 40.9 40.55 Q41.35 39.65 43.1 39.4 43.95 38.8 44.45 38.8 M21.2 19.75 L23.45 17.55 Q27.55 26.7 34.75 32.0 L35.05 32.25 35.25 33.55 Q35.25 35.5 34.55 36.8 33.7 38.8 31.1 38.8 L26.5 38.35 Q25.15 37.5 25.15 34.4 L25.35 32.25 Q26.05 31.35 26.05 30.65 26.05 29.15 23.2 26.95 20.1 24.75 20.1 22.35 20.1 21.0 21.2 19.75 M15.95 29.15 L15.75 30.2 14.45 30.65 14.6 32.85 14.0 34.15 Q13.55 35.1 12.7 35.1 12.2 35.1 11.8 34.6 L11.8 34.15 11.8 33.95 12.0 33.25 Q13.75 30.2 14.45 26.1 14.85 26.95 15.55 27.8 15.95 28.3 15.95 29.15 M18.35 38.35 Q19.25 38.55 19.9 39.4 L21.2 42.25 23.2 43.6 Q24.25 44.5 24.25 45.8 24.25 47.3 22.3 48.6 20.1 49.95 19.0 49.95 17.95 49.95 17.3 48.85 L16.85 48.4 16.65 46.9 Q16.65 45.8 17.05 44.9 L17.05 43.6 Q16.85 42.75 15.95 41.85 L15.55 41.15 Q14.85 40.75 14.85 39.85 14.85 37.5 17.3 37.7 18.15 37.9 18.35 38.35 M32.8 43.6 Q33.7 43.6 34.75 44.9 35.85 46.2 36.75 46.2 L40.0 46.0 Q40.9 46.4 40.9 48.4 40.9 50.35 40.0 51.05 L37.4 51.95 28.7 51.95 Q28.9 50.35 30.4 47.3 31.75 43.6 32.8 43.6" fill="#020300" fill-rule="evenodd" stroke="none"/>
    <path d="M36.05 47.3 Q39.8 47.3 42.2 49.3 45.05 51.25 45.05 54.1 45.05 57.15 42.2 59.15 39.8 61.1 36.05 61.1 32.65 61.1 29.8 59.15 27.35 57.15 27.35 54.1 27.35 51.25 29.8 49.3 32.65 47.3 36.05 47.3 M36.05 49.5 Q33.7 49.5 31.75 50.8 29.95 52.15 29.95 54.1 29.95 56.1 31.75 57.6 33.7 59.15 36.05 59.15 38.75 59.15 40.5 57.6 42.2 56.1 42.2 54.1 42.2 52.15 40.5 50.8 38.75 49.5 36.05 49.5" fill="#fff275" fill-rule="evenodd" stroke="none"/>
    <path d="M36.05 49.5 Q38.75 49.5 40.5 50.8 42.2 52.15 42.2 54.1 42.2 56.1 40.5 57.6 38.75 59.15 36.05 59.15 33.7 59.15 31.75 57.6 29.95 56.1 29.95 54.1 29.95 52.15 31.75 50.8 33.7 49.5 36.05 49.5" fill="#ba7824" fill-rule="evenodd" stroke="none"/>
    <path d="M36.05 47.3 Q39.8 47.3 42.2 49.3 45.05 51.25 45.05 54.1 45.05 57.15 42.2 59.15 39.8 61.1 36.05 61.1 32.65 61.1 29.8 59.15 27.35 57.15 27.35 54.1 27.35 51.25 29.8 49.3 32.65 47.3 36.05 47.3" fill="none" stroke="#663300" stroke-linecap="round" stroke-linejoin="round" stroke-width="1.0"/>
    <path d="M36.05 49.5 Q38.75 49.5 40.5 50.8 42.2 52.15 42.2 54.1 42.2 56.1 40.5 57.6 38.75 59.15 36.05 59.15 33.7 59.15 31.75 57.6 29.95 56.1 29.95 54.1 29.95 52.15 31.75 50.8 33.7 49.5 36.05 49.5" fill="none" stroke="#5f3000" stroke-linecap="round" stroke-linejoin="round" stroke-width="1.5"/>
    <path d="M30.6 29.6 L31.5 31.1 Q31.75 31.75 33.0 32.25 L34.75 33.75 Q35.45 34.4 35.85 34.4 L36.95 34.6 37.85 35.5 Q37.85 35.7 38.5 35.7 L39.15 35.5 40.0 35.5 Q41.15 35.5 42.0 36.6 42.9 37.9 43.1 37.9 L43.55 37.7 44.25 37.5 Q44.65 37.5 45.05 37.9 L46.15 38.15 47.3 38.8 47.9 39.4 48.8 38.8 49.9 38.55 Q50.55 38.55 51.0 39.2 L51.65 39.85 52.95 39.4 54.45 39.0 55.6 39.65 56.5 40.55 57.55 39.4 Q59.1 38.15 59.75 38.15 L60.85 38.55 61.75 37.5 62.15 37.5 Q61.5 39.4 61.5 40.1 L60.85 41.15 59.55 41.45 Q58.7 41.65 57.8 42.95 56.9 44.5 56.5 43.15 56.5 43.6 55.6 42.25 54.25 40.55 53.65 40.55 52.95 40.55 51.85 41.15 L51.0 41.85 Q50.35 42.25 49.7 42.05 49.2 42.05 48.8 41.65 L47.9 40.75 46.85 39.85 Q45.75 38.8 44.65 39.4 L43.1 40.95 Q42.65 39.4 40.0 37.2 38.75 37.2 37.85 38.15 L36.35 40.1 Q36.05 39.4 35.85 37.0 35.25 35.1 33.9 35.1 33.25 35.1 32.65 35.7 L31.3 37.0 Q30.6 36.6 30.2 34.85 L29.55 32.25 Q29.55 31.35 28.2 30.45 26.85 29.35 26.5 28.7 L30.6 29.6" fill="#fab634" fill-rule="evenodd" stroke="none"/>
    <path d="M61.75 37.5 L60.85 38.55 59.75 38.15 Q59.1 38.15 57.55 39.4 L56.5 40.55 55.6 39.65 54.45 39.0 52.95 39.4 51.65 39.85 51.0 39.2 Q50.55 38.55 49.9 38.55 L48.8 38.8 47.9 39.4 47.3 38.8 46.15 38.15 45.05 37.9 Q44.65 37.5 44.25 37.5 L43.55 37.7 43.1 37.9 Q42.9 37.9 42.0 36.6 41.15 35.5 40.0 35.5 L39.15 35.5 38.5 35.7 Q37.85 35.7 37.85 35.5 L36.95 34.6 35.85 34.4 Q35.45 34.4 34.75 33.75 L33.0 32.25 Q31.75 31.75 31.5 31.1 L30.6 29.6 31.75 29.8 31.95 29.8 35.05 32.0 35.25 32.25 Q45.05 39.0 61.75 37.5" fill="#fad579" fill-rule="evenodd" stroke="none"/>
    <path d="M26.5 28.7 Q26.85 29.35 28.2 30.45 29.55 31.35 29.55 32.25 L30.2 34.85 Q30.6 36.6 31.3 37.0 L32.65 35.7 Q33.25 35.1 33.9 35.1 35.25 35.1 35.85 37.0 36.05 39.4 36.35 40.1 L37.85 38.15 Q38.75 37.2 40.0 37.2 42.65 39.4 43.1 40.95 L44.65 39.4 Q45.75 38.8 46.85 39.85 L47.9 40.75 48.8 41.65 Q49.2 42.05 49.7 42.05 50.35 42.25 51.0 41.85 L51.85 41.15 Q52.95 40.55 53.65 40.55 54.25 40.55 55.6 42.25 56.5 43.6 56.5 43.15 56.9 44.5 57.8 42.95 58.7 41.65 59.55 41.45 L60.85 41.15 59.95 42.75 59.3 42.95 57.55 44.65 Q56.9 45.8 55.8 44.65 56.05 44.65 55.35 43.6 54.05 41.65 53.85 41.65 52.75 41.65 51.2 42.95 49.2 44.05 49.0 43.6 L47.7 42.45 46.15 40.55 Q45.55 39.85 44.45 40.75 L42.9 42.25 Q42.45 40.95 39.8 38.8 38.5 38.8 37.85 39.4 L36.05 41.65 35.7 38.55 Q35.05 36.6 33.7 36.6 33.0 36.6 32.4 37.5 L31.1 38.55 Q30.4 38.15 29.95 36.35 L29.55 33.75 Q29.3 33.05 28.0 32.0 26.7 31.1 26.5 30.2 L26.25 30.2 26.05 28.5 Q26.25 28.7 26.5 28.7" fill="#c47500" fill-rule="evenodd" stroke="none"/>
    <path d="M30.6 29.6 L26.5 28.7 Q26.25 28.7 26.05 28.5 L25.85 27.8 25.15 25.65 23.2 23.85 Q22.3 23.05 22.3 21.95 L22.55 20.4 Q22.55 19.75 21.0 18.4 19.25 17.3 19.25 15.55 L19.25 14.25 Q19.5 13.6 19.9 13.35 L20.1 12.75 Q20.1 12.5 20.35 12.5 20.35 12.25 20.6 12.25 20.6 11.8 20.75 11.65 L21.2 11.45 22.55 14.85 Q22.3 15.15 22.3 15.55 22.3 16.7 23.45 17.55 L23.8 18.4 23.8 18.45 23.85 18.55 23.8 19.75 Q23.8 20.8 24.5 21.95 L26.05 23.05 26.85 25.2 Q27.35 26.5 28.2 26.95 30.2 27.8 31.75 29.8 L30.6 29.6" fill="#e78f0c" fill-rule="evenodd" stroke="none"/>
    <path d="M31.95 29.8 L31.75 29.8 Q30.2 27.8 28.2 26.95 27.35 26.5 26.85 25.2 L26.05 23.05 24.5 21.95 Q23.8 20.8 23.8 19.75 L23.85 18.55 25.85 21.95 Q28.45 26.1 31.95 29.8 M22.55 14.85 L23.45 17.55 Q22.3 16.7 22.3 15.55 22.3 15.15 22.55 14.85" fill="#f7aa36" fill-rule="evenodd" stroke="none"/>
    <path d="M26.05 28.5 Q25.6 28.5 25.35 28.3 L24.5 26.5 22.55 24.75 Q21.6 23.85 21.6 23.05 21.6 22.55 22.1 21.25 22.1 20.65 20.35 19.5 18.8 18.2 18.8 16.7 18.8 14.85 19.25 14.25 L19.25 15.55 Q19.25 17.3 21.0 18.4 22.55 19.75 22.55 20.4 L22.3 21.95 Q22.3 23.05 23.2 23.85 L25.15 25.65 25.85 27.8 26.05 28.5" fill="#a36100" fill-rule="evenodd" stroke="none"/>
    <path d="M61.75 37.5 Q45.05 39.0 35.25 32.25 L35.05 32.0 31.95 29.8 M60.85 41.15 L59.95 42.75 59.3 42.95 57.55 44.65 Q56.9 45.8 55.8 44.65 56.05 44.65 55.35 43.6 54.05 41.65 53.85 41.65 52.75 41.65 51.2 42.95 49.2 44.05 49.0 43.6 L47.7 42.45 46.15 40.55 Q45.55 39.85 44.45 40.75 L42.9 42.25 Q42.45 40.95 39.8 38.8 38.5 38.8 37.85 39.4 L36.05 41.65 35.7 38.55 Q35.05 36.6 33.7 36.6 33.0 36.6 32.4 37.5 L31.1 38.55 Q30.4 38.15 29.95 36.35 L29.55 33.75 Q29.3 33.05 28.0 32.0 26.7 31.1 26.5 30.2 L26.25 30.2 26.05 28.5 Q25.6 28.5 25.35 28.3 L24.5 26.5 22.55 24.75 Q21.6 23.85 21.6 23.05 21.6 22.55 22.1 21.25 22.1 20.65 20.35 19.5 18.8 18.2 18.8 16.7 18.8 14.85 19.25 14.25 19.5 13.6 19.9 13.35 L20.1 12.75 Q20.1 12.5 20.35 12.5 20.35 12.25 20.6 12.25 20.6 11.8 20.75 11.65 L21.2 11.45 22.55 14.85 23.45 17.55 23.8 18.4 23.8 18.45 23.85 18.55 25.85 21.95 Q28.45 26.1 31.95 29.8" fill="none" stroke="#411d14" stroke-linecap="round" stroke-linejoin="round" stroke-width="0.5"/>
  </g>
</svg>
