<?xml version="1.0" encoding="UTF-8" standalone="no"?>
<svg xmlns:xlink="http://www.w3.org/1999/xlink" height="62.2px" width="55.8px" xmlns="http://www.w3.org/2000/svg">
  <g transform="matrix(1.0, 0.0, 0.0, 1.0, -8.95, -9.15)">
    <path d="M46.45 9.85 Q51.5 10.05 56.55 11.2 57.45 21.0 58.35 25.2 L58.8 27.2 60.0 29.55 61.3 32.95 62.7 35.5 Q62.95 35.5 63.4 35.95 L63.85 36.2 Q64.5 36.8 64.3 37.5 L63.65 40.5 Q63.4 40.7 62.25 43.7 L56.55 52.6 56.75 53.55 56.75 54.5 56.75 56.05 56.75 57.45 56.3 58.8 57.65 70.95 38.25 70.95 37.05 65.45 35.25 70.95 31.35 70.75 30.65 70.5 16.05 70.95 17.6 62.7 17.6 62.45 18.55 58.8 18.25 58.8 17.35 56.3 17.6 53.55 Q17.6 52.4 16.9 51.7 L16.05 50.35 Q13.45 46.7 11.85 43.7 L11.45 43.25 Q9.85 40.5 9.35 37.3 L10.05 36.4 10.05 36.2 10.95 35.5 11.15 35.25 11.15 35.0 11.85 33.9 Q12.15 33.2 12.35 33.2 L14.15 28.85 14.35 27.9 15.05 23.35 15.75 19.2 16.65 11.4 21.95 10.55 40.05 9.6 46.45 9.85" fill="#795d1f" fill-rule="evenodd" stroke="none"/>
    <path d="M46.45 9.85 L40.05 9.6 21.95 10.55 16.65 11.4 15.75 19.2 15.05 23.35 14.35 27.9 14.15 28.85 12.35 33.2 Q12.15 33.2 11.85 33.9 L11.15 35.0 11.15 35.25 10.95 35.5 10.05 36.2 10.05 36.4 9.35 37.3 Q9.85 40.5 11.45 43.25 L11.85 43.7 Q13.45 46.7 16.05 50.35 L16.9 51.7 Q17.6 52.4 17.6 53.55 L17.35 56.3 18.25 58.8 18.55 58.8 17.6 62.45 17.6 62.7 16.05 70.95 30.65 70.5 31.35 70.75 35.25 70.95 37.05 65.45 38.25 70.95 57.65 70.95 56.3 58.8 56.75 57.45 56.75 56.05 56.75 54.5 56.75 53.55 56.55 52.6 62.25 43.7 Q63.4 40.7 63.65 40.5 L64.3 37.5 Q64.5 36.8 63.85 36.2 L63.4 35.95 Q62.95 35.5 62.7 35.5 L61.3 32.95 60.0 29.55 58.8 27.2 58.35 25.2 Q57.45 21.0 56.55 11.2 51.5 10.05 46.45 9.85 Z" fill="none" stroke="#2c190b" stroke-linecap="round" stroke-linejoin="round" stroke-width="0.8"/>
    <path d="M46.2 23.1 Q46.2 22.9 46.45 22.9 L53.3 22.2 Q54.7 22.2 55.6 21.5 56.1 20.8 56.1 20.15 L54.25 17.15 57.0 16.45 Q57.0 17.6 57.25 18.3 L57.25 17.6 58.35 25.2 58.8 27.2 60.0 29.55 Q58.8 38.45 57.25 43.5 55.85 46.9 52.85 51.5 L51.05 51.5 50.1 51.5 50.6 51.3 Q50.6 50.8 49.9 50.35 L49.0 50.1 Q48.5 49.4 48.5 48.5 L48.3 47.1 Q48.05 47.1 47.15 48.1 46.45 49.2 46.0 49.2 45.75 49.2 45.3 47.4 44.85 45.75 44.4 45.75 44.15 45.75 44.15 47.1 L43.7 48.95 41.85 51.7 37.75 51.7 37.75 53.55 37.75 54.5 36.15 54.5 36.15 53.55 36.15 51.7 25.15 51.7 22.65 51.7 20.55 51.7 18.25 47.8 19.45 46.9 20.85 45.3 Q20.85 44.9 19.45 43.5 18.75 42.55 17.6 41.7 16.9 40.7 17.15 39.6 L16.9 38.2 15.75 38.2 Q15.55 38.2 14.85 38.7 13.95 33.9 14.15 28.85 L14.35 27.9 14.35 27.0 15.35 30.6 16.45 30.4 16.9 30.2 Q17.15 30.2 17.6 31.8 18.05 33.6 19.65 33.6 20.85 33.6 21.55 32.95 22.45 32.05 22.45 30.6 22.45 28.4 20.85 27.4 19.65 26.55 19.65 25.2 L19.85 22.65 20.35 21.5 Q22.65 22.65 24.95 23.1 27.65 24.2 30.85 24.5 L30.2 25.6 31.85 25.2 34.35 25.4 34.1 26.3 Q34.1 26.55 34.55 26.55 L35.45 26.3 34.55 29.3 Q33.4 32.95 33.4 34.1 L36.35 38.2 Q39.25 41.35 39.6 42.55 39.35 41.55 40.5 39.4 41.85 37.3 42.8 36.6 41.85 35.95 39.35 34.6 38.25 33.9 38.25 32.5 38.25 30.2 40.05 29.55 43.5 27.7 45.1 26.3 44.85 25.2 44.4 24.7 43.95 24.2 46.2 23.1 M16.05 17.6 L19.0 18.5 15.75 19.2 15.75 18.3 16.05 17.8 16.05 17.6 M51.7 70.95 L38.25 70.95 37.05 65.45 35.25 70.95 31.35 70.75 30.65 70.5 23.35 70.75 22.85 68.65 Q22.45 67.1 22.45 65.25 L22.65 65.45 23.55 67.5 Q24.75 69.8 25.45 69.8 L29.75 68.65 Q32.05 67.1 33.15 66.6 L33.4 66.6 Q33.4 67.1 33.85 67.3 33.85 67.5 34.1 67.5 L35.7 67.95 35.7 67.5 35.45 66.6 35.05 65.45 Q35.05 64.75 35.45 64.1 L35.9 63.15 32.7 61.1 32.5 61.1 31.15 64.3 30.65 64.95 29.95 65.65 Q29.05 66.85 27.65 66.85 L25.45 66.6 Q25.15 66.15 25.15 65.65 24.45 64.55 24.45 61.55 L24.45 59.05 24.25 58.8 25.65 58.8 47.6 58.8 50.1 58.8 52.4 58.8 52.85 60.2 Q50.8 60.9 49.2 62.25 48.05 62.95 47.85 63.6 L47.6 63.6 46.9 63.15 46.7 62.7 Q46.0 61.75 46.0 61.1 L46.2 60.2 45.3 59.95 43.95 60.2 43.25 60.4 Q43.7 60.9 43.95 63.15 L44.65 65.45 43.95 65.45 Q43.25 65.65 43.25 66.4 43.25 67.1 42.3 67.5 L40.95 67.75 40.25 67.5 39.6 67.3 Q41.2 69.8 42.3 69.8 43.5 69.8 45.1 68.65 L45.5 68.2 47.15 66.85 Q48.3 66.85 49.4 67.95 L51.05 69.6 51.7 67.5 52.6 65.65 51.7 70.95 M51.5 36.2 Q53.55 34.8 54.9 32.3 56.55 29.55 56.55 27.7 L56.3 27.2 55.6 27.0 Q54.4 27.0 52.6 28.1 L51.05 28.6 Q50.8 29.1 50.8 30.6 50.6 32.5 50.1 33.4 L49.4 35.0 49.0 36.2 Q48.05 37.3 48.05 38.0 48.05 38.9 50.35 40.7 L52.4 42.55 Q52.85 43.7 52.6 45.3 L52.4 48.1 52.4 50.35 54.25 46.2 55.1 43.5 Q55.1 42.8 53.55 39.8 52.2 36.6 51.5 36.2 M43.7 51.7 L44.85 51.3 Q45.5 51.3 46.2 51.7 L43.7 51.7 M29.95 40.5 Q27.95 40.0 27.25 38.7 26.3 37.1 24.75 36.8 L24.05 36.6 23.35 37.3 Q22.85 38.0 22.85 39.4 22.85 41.2 25.15 41.4 27.45 41.7 27.45 43.25 27.45 45.1 25.15 46.0 23.35 47.1 23.35 48.3 23.35 49.9 25.15 50.35 26.3 51.0 28.35 51.0 32.25 51.0 33.65 48.95 L33.85 48.1 34.75 46.0 Q35.25 45.1 36.6 45.1 L39.35 45.75 40.25 45.75 40.25 45.3 Q40.25 43.9 36.35 42.35 32.7 40.7 31.55 40.5 L29.95 40.5 M22.2 58.8 L22.85 58.8 23.75 58.8 22.85 60.2 22.2 60.9 22.2 58.8" fill="#503d13" fill-rule="evenodd" stroke="none"/>
    <path d="M46.2 23.1 L41.45 24.2 35.9 24.7 30.85 24.5 Q27.65 24.2 24.95 23.1 22.65 22.65 20.35 21.5 19.25 19.9 19.0 18.5 L16.05 17.6 16.45 13.75 Q20.1 15.55 24.75 16.45 29.95 17.6 35.45 17.8 40.95 18.1 47.6 16.0 54.25 14.2 56.75 13.05 56.75 14.85 57.0 16.45 L54.25 17.15 Q49.65 17.6 46.45 22.9 46.2 22.9 46.2 23.1" fill="#c4c4c4" fill-rule="evenodd" stroke="none"/>
    <path d="M46.45 22.9 Q49.65 17.6 54.25 17.15 L56.1 20.15 Q56.1 20.8 55.6 21.5 54.7 22.2 53.3 22.2 L46.45 22.9" fill="#624e22" fill-rule="evenodd" stroke="none"/>
    <path d="M56.75 13.05 Q54.25 14.2 47.6 16.0 40.95 18.1 35.45 17.8 29.95 17.6 24.75 16.45 20.1 15.55 16.45 13.75 L16.65 11.4 21.95 10.55 40.05 9.6 46.45 9.85 Q51.5 10.05 56.55 11.2 L56.75 13.05" fill="#a2a2a2" fill-rule="evenodd" stroke="none"/>
    <path d="M49.4 35.0 L50.1 33.4 Q50.6 32.5 50.8 30.6 50.8 29.1 51.05 28.6 L52.6 28.1 Q54.4 27.0 55.6 27.0 L56.3 27.2 56.55 27.7 Q56.55 29.55 54.9 32.3 53.55 34.8 51.5 36.2 50.35 36.2 49.4 35.0" fill="#5d491c" fill-rule="evenodd" stroke="none"/>
    <path d="M49.4 35.0 Q50.35 36.2 51.5 36.2 52.2 36.6 53.55 39.8 55.1 42.8 55.1 43.5 L54.25 46.2 52.4 50.35 52.4 48.1 52.6 45.3 Q52.85 43.7 52.4 42.55 L50.35 40.7 Q48.05 38.9 48.05 38.0 48.05 37.3 49.0 36.2 L49.4 35.0" fill="#7e652e" fill-rule="evenodd" stroke="none"/>
    <path d="M41.85 51.7 L43.7 48.95 44.15 47.1 Q44.15 45.75 44.4 45.75 44.85 45.75 45.3 47.4 45.75 49.2 46.0 49.2 46.45 49.2 47.15 48.1 48.05 47.1 48.3 47.1 L48.5 48.5 Q48.5 49.4 49.0 50.1 L49.9 50.35 Q50.6 50.8 50.6 51.3 L50.1 51.5 48.05 51.7 46.2 51.7 Q45.5 51.3 44.85 51.3 L43.7 51.7 41.85 51.7" fill="#624b18" fill-rule="evenodd" stroke="none"/>
    <path d="M60.0 29.55 L61.3 32.95 62.7 35.5 Q62.95 35.5 63.4 35.95 L63.85 36.2 Q64.5 36.8 64.3 37.5 L63.65 40.5 Q63.4 40.7 62.0 43.7 L57.0 51.5 52.85 51.5 Q55.85 46.9 57.25 43.5 58.8 38.45 60.0 29.55 M16.9 51.7 L16.05 50.35 Q13.45 46.7 11.85 43.7 L11.45 43.25 Q9.85 40.5 9.35 37.3 L11.15 35.25 11.15 35.0 12.15 33.2 14.15 28.85 Q13.95 33.9 14.85 38.7 14.35 38.7 13.95 39.15 13.25 39.4 12.35 41.4 13.25 43.9 14.85 44.2 15.75 44.2 16.45 46.0 17.35 48.1 17.6 48.1 L18.25 47.8 20.55 51.7 16.9 51.7" fill="#41310d" fill-rule="evenodd" stroke="none"/>
    <path d="M19.0 18.5 Q19.25 19.9 20.35 21.5 L19.85 22.65 19.65 25.2 Q19.65 26.55 20.85 27.4 22.45 28.4 22.45 30.6 22.45 32.05 21.55 32.95 20.85 33.6 19.65 33.6 18.05 33.6 17.6 31.8 17.15 30.2 16.9 30.2 L16.45 30.4 15.35 30.6 14.35 27.0 14.65 25.85 15.05 23.35 15.75 19.2 19.0 18.5" fill="#7b622c" fill-rule="evenodd" stroke="none"/>
    <path d="M14.85 38.7 Q15.55 38.2 15.75 38.2 L16.9 38.2 17.15 39.6 Q16.9 40.7 17.6 41.7 18.75 42.55 19.45 43.5 20.85 44.9 20.85 45.3 L19.45 46.9 18.25 47.8 Q16.65 44.6 15.75 41.9 L14.85 38.7" fill="#624c1b" fill-rule="evenodd" stroke="none"/>
    <path d="M14.85 38.7 L15.75 41.9 Q16.65 44.6 18.25 47.8 L17.6 48.1 Q17.35 48.1 16.45 46.0 15.75 44.2 14.85 44.2 13.25 43.9 12.35 41.4 13.25 39.4 13.95 39.15 14.35 38.7 14.85 38.7" fill="#544015" fill-rule="evenodd" stroke="none"/>
    <path d="M33.65 48.95 Q32.25 51.0 28.35 51.0 26.3 51.0 25.15 50.35 23.35 49.9 23.35 48.3 23.35 47.1 25.15 46.0 27.45 45.1 27.45 43.25 27.45 41.7 25.15 41.4 22.85 41.2 22.85 39.4 22.85 38.0 23.35 37.3 L24.05 36.6 24.75 36.8 Q26.3 37.1 27.25 38.7 27.95 40.0 29.95 40.5 29.75 43.9 31.15 45.75 32.05 47.4 33.65 48.95" fill="#856b2f" fill-rule="evenodd" stroke="none"/>
    <path d="M33.65 48.95 Q32.05 47.4 31.15 45.75 29.75 43.9 29.95 40.5 L31.55 40.5 Q32.7 40.7 36.35 42.35 40.25 43.9 40.25 45.3 L40.25 45.75 39.35 45.75 36.6 45.1 Q35.25 45.1 34.75 46.0 L33.85 48.1 33.65 48.95" fill="#69521e" fill-rule="evenodd" stroke="none"/>
    <path d="M57.0 51.5 L56.55 52.6 56.75 53.55 50.8 53.55 51.05 51.5 52.85 51.5 57.0 51.5 M17.6 53.55 Q17.6 52.4 16.9 51.7 L20.55 51.7 22.65 51.7 22.65 53.55 17.6 53.55 M25.15 51.7 L36.15 51.7 36.15 53.55 25.15 53.55 25.15 51.7 M37.75 53.55 L37.75 51.7 41.85 51.7 43.7 51.7 46.2 51.7 48.05 51.7 48.05 53.55 37.75 53.55" fill="#686d4c" fill-rule="evenodd" stroke="none"/>
    <path d="M56.75 53.55 L56.75 54.5 56.75 56.05 56.75 57.45 50.35 57.45 50.8 53.55 56.75 53.55 M17.6 57.45 L17.35 56.3 17.6 53.55 22.65 53.55 22.85 57.45 17.6 57.45 M36.15 53.55 L36.15 54.5 37.75 54.5 37.75 53.55 48.05 53.55 47.6 57.45 25.65 57.45 25.15 53.55 36.15 53.55" fill="#242716" fill-rule="evenodd" stroke="none"/>
    <path d="M32.7 61.1 L35.9 63.15 35.45 64.1 Q35.05 64.75 35.05 65.45 L35.45 66.6 35.7 67.5 35.7 67.95 34.1 67.5 Q33.85 67.5 33.85 67.3 L33.85 67.1 33.85 65.25 Q33.85 64.75 33.15 64.3 32.25 63.6 32.25 62.45 L32.5 61.75 32.7 61.1" fill="#7e642c" fill-rule="evenodd" stroke="none"/>
    <path d="M29.95 65.65 L30.65 64.95 31.15 64.3 32.5 61.1 32.7 61.1 32.5 61.75 32.25 62.45 Q32.25 63.6 33.15 64.3 33.85 64.75 33.85 65.25 L33.85 67.1 33.85 67.3 Q33.4 67.1 33.4 66.6 L33.15 66.6 Q32.05 67.1 29.75 68.65 L25.45 69.8 Q24.75 69.8 23.55 67.5 L22.65 65.45 22.45 65.25 Q21.95 64.75 21.05 64.55 L21.95 61.1 22.2 60.9 22.85 60.2 23.75 58.8 24.25 58.8 24.45 59.05 24.45 61.55 Q24.45 64.55 25.15 65.65 L24.95 66.15 24.25 67.3 Q24.25 67.75 25.45 68.65 L26.75 69.1 Q28.35 69.1 29.25 67.5 L29.95 65.65" fill="#664f1d" fill-rule="evenodd" stroke="none"/>
    <path d="M50.1 51.5 L51.05 51.5 50.8 53.55 48.05 53.55 48.05 51.7 50.1 51.5 M22.65 51.7 L25.15 51.7 25.15 53.55 22.65 53.55 22.65 51.7 M22.85 58.8 L22.85 57.45 25.65 57.45 25.65 58.8 24.25 58.8 23.75 58.8 22.85 58.8 M50.1 58.8 L47.6 58.8 47.6 57.45 50.35 57.45 50.1 58.8" fill="#bbb367" fill-rule="evenodd" stroke="none"/>
    <path d="M22.65 53.55 L25.15 53.55 25.65 57.45 22.85 57.45 22.65 53.55 M50.35 57.45 L47.6 57.45 48.05 53.55 50.8 53.55 50.35 57.45" fill="#9a8735" fill-rule="evenodd" stroke="none"/>
    <path d="M56.3 58.8 L57.65 70.95 55.6 70.95 55.85 67.1 Q56.55 65.25 56.55 64.1 L55.6 63.15 54.4 58.8 56.3 58.8 M54.05 70.95 L51.7 70.95 52.6 65.65 52.85 65.45 Q53.3 65.45 54.05 66.15 L54.05 66.4 54.25 68.65 54.05 70.95 M23.35 70.75 L20.35 70.75 21.05 65.25 21.05 64.55 Q21.95 64.75 22.45 65.25 22.45 67.1 22.85 68.65 L23.35 70.75 M18.25 70.95 L16.05 70.95 17.6 62.7 17.6 62.45 18.55 58.8 20.85 58.8 Q19.65 62.45 18.75 66.15 18.25 68.65 18.25 70.95 M22.2 60.9 L21.95 61.1 Q21.95 59.95 22.2 58.8 L22.2 60.9 M52.85 60.2 L52.4 58.8 53.3 58.8 53.55 59.95 52.85 60.2" fill="#41310f" fill-rule="evenodd" stroke="none"/>
    <path d="M55.6 70.95 L54.05 70.95 54.25 68.65 54.05 66.4 54.05 66.15 53.55 62.95 53.55 59.95 53.3 58.8 54.4 58.8 55.6 63.15 55.85 67.1 55.6 70.95 M20.35 70.75 L18.25 70.95 Q18.25 68.65 18.75 66.15 19.65 62.45 20.85 58.8 L22.2 58.8 Q21.95 59.95 21.95 61.1 L21.05 64.55 21.05 65.25 20.35 70.75" fill="#e2bc46" fill-rule="evenodd" stroke="none"/>
    <path d="M56.75 57.45 L56.3 58.8 54.4 58.8 53.3 58.8 52.4 58.8 50.1 58.8 50.35 57.45 56.75 57.45 M18.55 58.8 L18.25 58.8 17.6 57.45 22.85 57.45 22.85 58.8 22.2 58.8 20.85 58.8 18.55 58.8 M25.65 58.8 L25.65 57.45 47.6 57.45 47.6 58.8 25.65 58.8" fill="#6f7748" fill-rule="evenodd" stroke="none"/>
    <path d="M25.15 65.65 Q25.15 66.15 25.45 66.6 L27.65 66.85 Q29.05 66.85 29.95 65.65 L29.25 67.5 Q28.35 69.1 26.75 69.1 L25.45 68.65 Q24.25 67.75 24.25 67.3 L24.95 66.15 25.15 65.65" fill="#856b32" fill-rule="evenodd" stroke="none"/>
    <path d="M45.1 68.65 Q43.5 69.8 42.3 69.8 41.2 69.8 39.6 67.3 L40.25 67.5 40.95 67.75 42.3 67.5 Q43.25 67.1 43.25 66.4 43.25 65.65 43.95 65.45 L44.65 65.45 44.85 65.65 45.1 65.45 Q45.75 65.9 45.75 66.6 L45.3 67.75 45.1 68.65" fill="#9c7e39" fill-rule="evenodd" stroke="none"/>
    <path d="M47.85 63.6 Q48.05 62.95 49.2 62.25 50.8 60.9 52.85 60.2 L53.55 59.95 53.55 62.95 54.05 66.15 Q53.3 65.45 52.85 65.45 L52.6 65.65 52.6 65.45 52.4 64.55 51.5 64.3 Q51.05 64.3 50.1 64.95 49.2 64.95 48.3 64.3 L47.85 63.6" fill="#69521f" fill-rule="evenodd" stroke="none"/>
    <path d="M45.1 68.65 L45.3 67.75 45.75 66.6 Q45.75 65.9 45.1 65.45 L44.85 65.65 44.65 65.45 43.95 63.15 Q43.7 60.9 43.25 60.4 L43.95 60.2 45.3 59.95 46.2 60.2 46.0 61.1 Q46.0 61.75 46.7 62.7 L46.9 63.15 47.6 63.6 47.85 63.6 48.3 64.3 Q49.2 64.95 50.1 64.95 51.05 64.3 51.5 64.3 L52.4 64.55 52.6 65.45 52.6 65.65 51.7 67.5 51.05 69.6 49.4 67.95 Q48.3 66.85 47.15 66.85 L45.5 68.2 45.1 68.65" fill="#796028" fill-rule="evenodd" stroke="none"/>
    <path d="M55.6 63.15 L56.55 64.1 Q56.55 65.25 55.85 67.1 L55.6 63.15" fill="#66501e" fill-rule="evenodd" stroke="none"/>
    <path d="M51.9 17.6 L54.25 22.4 43.7 31.1 36.15 23.1 51.9 17.6 M20.85 18.75 L36.15 23.1 28.35 32.75 18.55 23.35 20.85 18.75 M57.25 36.4 Q57.65 40.7 54.25 41.9 L46.9 41.9 Q43.25 41.4 43.0 36.2 L57.25 36.4 M63.4 36.2 Q60.0 44.9 55.4 51.5 L54.05 51.7 Q59.3 44.2 62.25 35.5 L63.2 35.95 63.4 36.2 M10.95 35.25 Q14.15 43.0 20.1 51.7 L19.0 51.7 Q14.35 46.2 10.05 36.2 L10.95 35.25 M18.05 41.9 Q14.35 41.4 14.35 36.2 L28.35 36.4 Q28.65 40.7 25.45 41.9 L18.55 41.9 18.05 41.9" fill="#e2bc46" fill-rule="evenodd" stroke="none"/>
    <path d="M36.15 23.1 L43.7 31.1 54.25 22.4 51.9 17.6 52.85 17.4 56.1 22.65 43.0 34.3 36.35 25.4 36.35 52.15 35.45 52.85 35.45 52.4 33.85 52.4 Q34.1 44.6 33.85 38.45 33.65 32.3 34.55 31.35 35.45 30.2 35.25 28.6 L35.45 25.4 29.25 35.0 16.45 24.0 19.45 18.5 20.85 18.75 18.55 23.35 28.35 32.75 36.15 23.1" fill="#ffe9a8" fill-rule="evenodd" stroke="none"/>
    <path d="M21.05 41.4 Q20.35 41.4 19.65 41.0 L19.45 39.8 19.65 38.45 Q20.35 38.0 21.05 38.0 21.95 38.0 22.45 38.45 22.85 39.15 22.85 39.8 22.85 40.5 22.45 41.0 21.95 41.4 21.05 41.4" fill="#3c2c07" fill-rule="evenodd" stroke="none"/>
    <path d="M52.4 39.8 Q52.4 40.5 51.7 41.0 51.2 41.4 50.6 41.4 L49.2 41.0 Q48.7 40.5 48.7 39.8 48.7 39.15 49.2 38.45 49.9 38.0 50.6 38.0 51.2 38.0 51.7 38.45 52.4 39.15 52.4 39.8" fill="#3c2c07" fill-rule="evenodd" stroke="none"/>
    <path d="M40.25 51.0 Q41.35 51.0 42.15 51.8 42.95 52.65 42.95 53.75 L42.95 56.1 Q42.95 57.2 42.15 57.95 41.35 58.75 40.25 58.75 L32.1 58.75 Q31.0 58.75 30.15 57.95 29.4 57.2 29.4 56.1 L29.4 53.75 Q29.4 52.65 30.15 51.8 31.0 51.0 32.1 51.0 L40.25 51.0 M40.5 54.2 Q40.5 53.45 40.0 52.9 39.5 52.4 38.8 52.4 L33.6 52.4 Q32.85 52.4 32.35 52.9 31.85 53.45 31.85 54.2 L31.85 55.6 Q31.85 56.35 32.35 56.8 32.85 57.35 33.6 57.35 L38.8 57.35 Q39.5 57.35 40.0 56.8 40.5 56.35 40.5 55.6 L40.5 54.2" fill="#d7b652" fill-rule="evenodd" stroke="none"/>
    <path d="M40.25 51.0 L32.1 51.0 Q31.0 51.0 30.15 51.8 29.4 52.65 29.4 53.75 L29.4 56.1 Q29.4 57.2 30.15 57.95 31.0 58.75 32.1 58.75 L40.25 58.75 Q41.35 58.75 42.15 57.95 42.95 57.2 42.95 56.1 L42.95 53.75 Q42.95 52.65 42.15 51.8 41.35 51.0 40.25 51.0 M43.65 51.0 Q44.7 52.05 44.7 53.45 L44.7 56.35 Q44.7 57.75 43.65 58.75 42.7 59.75 41.3 59.75 L31.1 59.75 Q29.7 59.75 28.65 58.75 27.7 57.75 27.7 56.35 L27.7 53.45 Q27.7 52.05 28.65 51.0 29.7 50.05 31.1 50.05 L41.3 50.05 Q42.7 50.05 43.65 51.0" fill="#8e5a1a" fill-rule="evenodd" stroke="none"/>
    <path d="M40.5 54.2 L40.5 55.6 Q40.5 56.35 40.0 56.8 39.5 57.35 38.8 57.35 L33.6 57.35 Q32.85 57.35 32.35 56.8 31.85 56.35 31.85 55.6 L31.85 54.2 Q31.85 53.45 32.35 52.9 32.85 52.4 33.6 52.4 L38.8 52.4 Q39.5 52.4 40.0 52.9 40.5 53.45 40.5 54.2" fill="#663d0a" fill-rule="evenodd" stroke="none"/>
  </g>
</svg>
