<?xml version="1.0" encoding="UTF-8" standalone="no"?>
<svg xmlns:xlink="http://www.w3.org/1999/xlink" height="62.15px" width="56.75px" xmlns="http://www.w3.org/2000/svg">
  <g transform="matrix(1.0, 0.0, 0.0, 1.0, -7.35, -8.25)">
    <path d="M55.75 10.5 Q55.75 12.15 56.2 14.75 L57.1 21.05 57.8 23.2 Q58.05 24.8 58.75 27.15 59.7 30.65 60.15 30.9 62.05 34.4 63.7 35.55 L63.4 37.7 61.1 43.05 55.45 54.05 55.95 55.7 55.75 57.6 57.1 70.0 38.15 70.0 37.95 64.2 35.35 64.2 33.95 69.8 14.55 70.0 16.85 57.8 15.7 56.2 16.15 54.05 15.45 52.9 14.05 50.1 10.3 42.15 Q7.95 38.85 7.75 37.7 L10.1 34.4 11.45 30.9 11.95 29.25 Q13.1 25.05 13.6 21.55 L13.6 21.05 14.75 10.5 14.75 9.6 34.4 8.9 36.05 8.9 37.95 8.9 55.45 8.65 55.75 10.5" fill="#5d4c23" fill-rule="evenodd" stroke="none"/>
    <path d="M55.75 10.5 Q55.75 12.15 56.2 14.75 L57.1 21.05 57.8 23.2 Q58.05 24.8 58.75 27.15 59.7 30.65 60.15 30.9 62.05 34.4 63.7 35.55 L63.4 37.7 61.1 43.05 55.45 54.05 55.95 55.7 55.75 57.6 57.1 70.0 38.15 70.0 37.95 64.2 35.35 64.2 33.95 69.8 14.55 70.0 16.85 57.8 15.7 56.2 16.15 54.05 15.45 52.9 14.05 50.1 10.3 42.15 Q7.95 38.85 7.75 37.7 L10.1 34.4 11.45 30.9 11.95 29.25 Q13.1 25.05 13.6 21.55 L13.6 21.05 14.75 10.5 14.75 9.6 34.4 8.9 36.05 8.9 37.95 8.9 55.45 8.65 55.75 10.5 Z" fill="none" stroke="#2a1b10" stroke-linecap="round" stroke-linejoin="round" stroke-width="0.8"/>
    <path d="M37.95 8.9 L55.45 8.4 56.2 14.5 57.1 20.85 57.8 22.9 58.75 26.9 Q59.7 30.45 60.15 30.65 L59.5 37.7 Q59.0 40.25 58.55 41.0 L57.35 43.3 Q56.45 44.95 53.4 45.2 54.1 47.75 53.6 49.4 L53.4 51.75 Q50.35 51.05 48.2 48.9 44.7 46.35 43.1 40.25 L37.95 8.9 M11.45 30.45 L11.95 28.8 13.6 21.25 13.6 20.85 Q14.3 17.3 14.75 9.35 L34.4 8.9 29.25 41.0 29.05 42.55 27.8 44.75 Q26.45 47.55 24.35 49.15 22.45 50.85 20.15 51.5 19.2 51.95 18.25 52.2 L18.05 51.3 Q17.35 49.4 17.35 47.55 L17.55 45.35 17.75 44.95 15.7 43.8 Q13.6 42.55 12.9 39.8 L11.65 34.4 11.45 30.45" fill="#463a1d" fill-rule="evenodd" stroke="none"/>
    <path d="M56.45 51.75 L55.45 53.65 54.3 53.65 53.4 53.65 Q50.8 53.35 48.7 52.4 L47.75 51.95 Q46.35 51.05 45.2 49.6 43.75 48.25 42.85 46.1 L42.15 44.45 Q41.15 42.15 40.25 39.05 L36.05 9.6 31.1 42.85 30.9 43.8 29.75 46.1 27.2 49.85 24.1 52.2 22.45 52.9 19.0 53.65 16.15 53.85 15.45 52.7 18.25 52.2 Q19.2 51.95 20.15 51.5 22.45 50.85 24.35 49.15 26.45 47.55 27.8 44.75 L29.05 42.55 29.25 41.0 34.4 8.9 36.05 8.9 37.95 8.9 43.1 40.25 Q44.7 46.35 48.2 48.9 50.35 51.05 53.4 51.75 L53.85 51.75 54.1 51.95 56.45 51.75" fill="#7e6322" fill-rule="evenodd" stroke="none"/>
    <path d="M42.85 46.1 L40.7 47.55 Q39.8 48.25 38.85 48.5 L45.2 49.6 Q46.35 51.05 47.75 51.95 41.65 51.5 37.0 49.6 34.2 50.85 31.85 51.3 L24.1 52.2 27.2 49.85 Q30.9 49.85 33.95 48.5 31.85 47.75 29.75 46.1 L30.9 43.8 Q33.5 46.6 36.8 47.3 40.25 45.65 42.15 44.45 L42.85 46.1" fill="#331c0b" fill-rule="evenodd" stroke="none"/>
    <path d="M45.2 49.6 L38.85 48.5 Q39.8 48.25 40.7 47.55 L42.85 46.1 Q43.75 48.25 45.2 49.6 M42.15 44.45 Q40.25 45.65 36.8 47.3 33.5 46.6 30.9 43.8 L31.1 42.85 36.05 9.6 40.25 39.05 Q41.15 42.15 42.15 44.45 M29.75 46.1 Q31.85 47.75 33.95 48.5 30.9 49.85 27.2 49.85 L29.75 46.1 M24.1 52.2 L31.85 51.3 Q34.2 50.85 37.0 49.6 41.65 51.5 47.75 51.95 L48.7 52.4 Q48.7 53.35 48.2 54.05 47.75 54.8 45.9 55.7 L45.7 55.7 42.4 56.2 Q35.8 56.85 28.55 56.4 L25.3 55.7 23.45 55.5 23.45 55.2 Q22.7 54.3 22.45 53.15 L22.45 52.9 24.1 52.2" fill="#f99706" fill-rule="evenodd" stroke="none"/>
    <path d="M60.15 30.65 Q62.05 33.95 63.4 35.55 63.7 35.55 63.2 37.5 62.5 40.0 61.1 42.85 L56.45 51.75 54.1 51.95 53.85 51.75 53.4 51.75 53.6 49.4 Q54.1 47.75 53.4 45.2 56.45 44.95 57.35 43.3 L58.55 41.0 Q59.0 40.25 59.5 37.7 L60.15 30.65 M15.45 52.7 L14.05 49.85 Q11.95 44.95 10.3 42.15 7.95 38.85 7.75 37.7 L9.8 34.4 Q10.55 33.25 11.45 30.45 L11.65 34.4 12.9 39.8 Q13.6 42.55 15.7 43.8 L17.75 44.95 17.55 45.35 17.35 47.55 Q17.35 49.4 18.05 51.3 L18.25 52.2 15.45 52.7" fill="#332910" fill-rule="evenodd" stroke="none"/>
    <path d="M22.45 52.9 L22.45 53.15 Q22.7 54.3 23.45 55.2 L23.45 55.5 20.15 54.8 16.15 53.85 19.0 53.65 22.45 52.9 M45.9 55.7 Q47.75 54.8 48.2 54.05 48.7 53.35 48.7 52.4 50.8 53.35 53.4 53.65 L54.3 53.65 Q50.1 55.0 45.9 55.7" fill="#b46f09" fill-rule="evenodd" stroke="none"/>
    <path d="M55.45 53.65 L55.95 55.5 55.75 57.35 53.4 58.3 Q49.45 59.65 45.9 60.4 46.35 58.3 45.7 55.95 L45.7 55.7 45.9 55.7 Q50.1 55.0 54.3 53.65 L55.45 53.65 M16.85 57.8 L16.85 57.6 15.7 55.95 16.15 53.85 20.15 54.8 23.45 55.5 25.3 55.7 25.0 56.65 Q24.55 58.7 25.0 60.4 L18.5 58.5 16.85 57.8 M28.55 56.4 Q35.8 56.85 42.4 56.2 43.1 58.7 42.4 61.1 35.6 62.0 28.55 61.1 28.1 59.65 28.55 56.4" fill="#060702" fill-rule="evenodd" stroke="none"/>
    <path d="M25.3 55.7 L28.55 56.4 Q28.1 59.65 28.55 61.1 L25.0 60.4 Q24.55 58.7 25.0 56.65 L25.3 55.7 M42.4 56.2 L45.7 55.7 45.7 55.95 Q46.35 58.3 45.9 60.4 L42.4 61.1 Q43.1 58.7 42.4 56.2" fill="#46483c" fill-rule="evenodd" stroke="none"/>
    <path d="M48.7 69.8 L48.5 69.8 38.15 70.0 37.95 63.9 35.35 63.9 33.7 69.55 22.2 69.8 Q17.55 68.1 18.5 58.5 L25.0 60.4 28.55 61.1 Q35.6 62.0 42.4 61.1 L45.9 60.4 Q49.45 59.65 53.4 58.3 54.5 69.55 48.7 69.8" fill="#853a0f" fill-rule="evenodd" stroke="none"/>
    <path d="M55.75 57.35 L57.1 69.8 48.7 69.8 Q54.5 69.55 53.4 58.3 L55.75 57.35 M22.2 69.8 L14.55 69.8 16.85 57.8 18.5 58.5 Q17.55 68.1 22.2 69.8" fill="#48230f" fill-rule="evenodd" stroke="none"/>
    <path d="M48.7 69.8 L48.5 69.8" fill="none" stroke="#2c190b" stroke-linecap="round" stroke-linejoin="round" stroke-width="0.5"/>
    <path d="M52.95 32.75 L54.5 36.25 58.15 37.6 55.25 40.25 55.1 44.1 51.75 42.15 48.0 43.2 48.8 39.4 46.65 36.15 50.5 35.75 52.95 32.75" fill="#bfab1c" fill-rule="evenodd" stroke="none"/>
    <path d="M55.75 16.2 L57.1 21.75 Q57.6 22.5 57.8 23.6 L55.75 28.1 52.65 32.35 50.1 34.4 47.05 37.2 44.95 39.05 43.55 41.0 41.9 43.8 30.0 35.55 Q26.7 32.75 24.55 30.15 22.45 27.85 21.5 25.3 L21.3 14.75 54.5 10.75 Q55.0 11.95 55.75 16.2" fill="#ad0707" fill-rule="evenodd" stroke="none"/>
    <path d="M46.35 22.2 L48.5 19.65 49.85 17.55 50.8 15.45 Q51.05 14.95 51.75 16.2 52.45 17.3 52.45 18.95 52.45 20.6 51.75 22.0 50.8 23.4 48.7 25.05 45.7 27.35 41.15 28.3 39.8 28.6 37.0 28.3 33.95 28.6 35.35 27.85 L39.3 26.4 44.25 24.35 46.35 22.2" fill="#a61010" fill-rule="evenodd" stroke="none"/>
    <path d="M46.35 22.2 L44.25 24.35 39.3 26.4 35.35 27.85 Q33.95 28.6 37.0 28.3 39.8 28.6 41.15 28.3 45.7 27.35 48.7 25.05 50.8 23.4 51.75 22.0 52.45 20.6 52.45 18.95 52.45 17.3 51.75 16.2 51.05 14.95 50.8 15.45 L49.85 17.55 48.5 19.65 46.35 22.2 M57.35 20.85 L57.8 22.9 54.8 27.65 Q53.15 29.7 50.55 31.85 L47.55 33.95 43.35 36.55 Q41.45 37.7 40.5 38.4 L38.85 40.25 36.3 43.3 Q33.3 40.0 29.05 37.9 24.1 35.55 21.75 33.25 18.5 30.45 16.65 26.9 14.55 23.6 13.85 20.85 14.3 17.3 14.75 9.35 L55.45 8.4 56.45 14.5 57.35 20.85 M17.35 18.95 Q16.4 19.9 16.4 20.85 16.4 21.55 17.05 22.5 L18.5 24.35 Q19.2 24.55 21.5 27.15 23.9 29.7 25.95 30.9 28.1 32.1 30.2 32.75 33.3 33.95 35.6 33.95 L37.95 33.7 39.8 33.25 Q39.1 32.75 33.7 30.9 30.0 29.25 28.1 27.15 L23.65 22.7 Q21.5 18.05 19.2 18.05 18.05 18.05 17.35 18.95" fill="#850101" fill-rule="evenodd" stroke="none"/>
    <path d="M17.35 18.95 Q18.05 18.05 19.2 18.05 21.5 18.05 23.65 22.7 L28.1 27.15 Q30.0 29.25 33.7 30.9 39.1 32.75 39.8 33.25 L37.95 33.7 35.6 33.95 Q33.3 33.95 30.2 32.75 28.1 32.1 25.95 30.9 23.9 29.7 21.5 27.15 19.2 24.55 18.5 24.35 L17.05 22.5 Q16.4 21.55 16.4 20.85 16.4 19.9 17.35 18.95" fill="#6b0000" fill-rule="evenodd" stroke="none"/>
    <path d="M20.15 48.0 L21.3 46.6 26.7 47.55 29.25 49.85 29.25 65.1 27.2 65.1 26.7 55.7 26.25 55.2 25.95 54.8 25.5 54.3 24.1 52.4 21.05 52.9 Q20.35 52.7 20.15 51.75 L21.5 51.5 22.7 51.5 24.55 51.3 25.75 51.05 26.9 51.05 Q28.55 49.85 27.2 48.9 L25.75 48.9 24.55 48.65 22.7 48.5 21.5 48.25 20.15 48.0" fill="#242e3f" fill-rule="evenodd" stroke="none"/>
    <path d="M26.7 47.55 L30.9 48.0 30.9 65.1 29.25 65.1 29.25 49.85 26.7 47.55 M20.15 51.75 Q19.0 50.1 20.15 48.0 L21.5 48.25 21.5 51.5 20.15 51.75 M22.7 48.5 L24.55 48.65 24.55 51.3 22.7 51.5 22.7 48.5 M25.75 48.9 L27.2 48.9 Q28.55 49.85 26.9 51.05 L25.75 51.05 25.75 48.9" fill="#94969a" fill-rule="evenodd" stroke="none"/>
    <path d="M21.5 48.25 L22.7 48.5 22.7 51.5 21.5 51.5 21.5 48.25 M24.55 48.65 L25.75 48.9 25.75 51.05 24.55 51.3 24.55 48.65" fill="#4b5058" fill-rule="evenodd" stroke="none"/>
    <path d="M22.2 53.85 Q22.2 53.35 22.7 54.05 24.55 55.7 25.5 54.3 L25.95 54.8 Q24.8 55.95 23.65 55.5 22.7 55.0 22.2 53.85" fill="#1e242e" fill-rule="evenodd" stroke="none"/>
    <path d="M26.25 55.2 Q25.5 56.2 24.55 56.2 23.15 56.2 22.45 55.0 L22.2 53.85 Q22.7 55.0 23.65 55.5 24.8 55.95 25.95 54.8 L26.25 55.2" fill="#505358" fill-rule="evenodd" stroke="none"/>
  </g>
</svg>
