<?xml version="1.0" encoding="UTF-8" standalone="no"?>
<svg xmlns:xlink="http://www.w3.org/1999/xlink" height="30.0px" width="30.0px" xmlns="http://www.w3.org/2000/svg">
  <g transform="matrix(1.0, 0.0, 0.0, 1.0, -0.05, 0.0)">
    <path d="M8.5 10.15 L8.55 10.15 10.05 10.45 Q12.1 11.2 12.95 14.35 L13.0 14.55 13.0 14.6 16.8 14.6 Q16.15 10.35 13.6 8.55 12.4 7.75 11.2 7.4 L8.8 7.0 8.75 7.0 6.35 7.35 5.65 7.45 Q5.2 7.55 4.7 8.0 0.95 10.05 0.35 14.0 L0.3 14.15 0.3 14.3 0.25 14.45 0.25 14.5 4.2 14.5 Q4.5 12.5 5.9 11.25 L5.95 11.2 6.0 11.15 6.9 10.6 7.35 10.4 7.85 10.25 8.5 10.15 M0.05 30.0 L0.05 0.0 30.05 0.0 30.05 30.0 0.05 30.0" fill="#ffe58e" fill-rule="evenodd" stroke="none"/>
    <path d="M7.35 10.4 L6.9 10.6 6.0 11.15 5.95 11.2 5.9 11.25 Q4.5 12.5 4.2 14.5 L0.25 14.5 0.25 14.45 0.3 14.3 0.3 14.15 0.35 14.0 Q0.95 10.05 4.7 8.0 5.2 7.55 5.65 7.45 L6.35 7.35 8.75 7.0 8.8 7.0 11.2 7.4 Q12.4 7.75 13.6 8.55 16.15 10.35 16.8 14.6 L13.0 14.6 13.0 14.55 12.95 14.35 Q12.1 11.2 10.05 10.45 L8.55 10.15 8.5 10.15 8.45 10.15 7.8 10.25 7.35 10.4" fill="#ffe88e" fill-rule="evenodd" stroke="none"/>
  </g>
</svg>
