<?xml version="1.0" encoding="UTF-8" standalone="no"?>
<svg xmlns:xlink="http://www.w3.org/1999/xlink" height="63.55px" width="58.55px" xmlns="http://www.w3.org/2000/svg">
  <g transform="matrix(1.0, 0.0, 0.0, 1.0, -6.45, -7.05)">
    <path d="M55.7 7.45 Q57.15 19.95 58.3 24.45 59.5 29.0 64.6 34.8 L62.85 39.85 Q62.65 40.8 61.5 42.95 L59.75 46.5 Q58.3 49.9 55.7 53.95 L56.2 55.6 55.9 57.55 57.35 70.0 55.45 70.0 53.75 70.0 40.15 70.2 38.0 70.2 37.75 64.25 35.55 64.25 33.95 70.0 31.25 70.0 17.4 70.0 15.4 70.0 14.05 70.0 16.15 57.55 15.25 56.1 15.4 53.95 13.3 50.1 11.4 45.3 Q9.7 42.65 9.5 41.95 L8.05 38.6 Q7.05 36.95 6.85 35.5 L9.95 32.1 Q12.1 29.75 12.8 23.5 L14.05 8.5 16.9 8.5 17.4 8.5 20.0 8.5 20.7 8.5 50.4 7.45 50.65 7.45 51.15 7.45 51.65 7.45 54.05 7.45 55.7 7.45" fill="#986b6b" fill-rule="evenodd" stroke="none"/>
    <path d="M55.7 7.45 Q57.15 19.95 58.3 24.45 59.5 29.0 64.6 34.8 L62.85 39.85 Q62.65 40.8 61.5 42.95 L59.75 46.5 Q58.3 49.9 55.7 53.95 L56.2 55.6 55.9 57.55 57.35 70.0 55.45 70.0 53.75 70.0 40.15 70.2 38.0 70.2 37.75 64.25 35.55 64.25 33.95 70.0 31.25 70.0 17.4 70.0 15.4 70.0 14.05 70.0 16.15 57.55 15.25 56.1 15.4 53.95 13.3 50.1 11.4 45.3 Q9.7 42.65 9.5 41.95 L8.05 38.6 Q7.05 36.95 6.85 35.5 L9.95 32.1 Q12.1 29.75 12.8 23.5 L14.05 8.5 16.9 8.5 17.4 8.5 20.0 8.5 20.7 8.5 50.4 7.45 50.65 7.45 51.15 7.45 51.65 7.45 54.05 7.45 55.7 7.45 Z" fill="none" stroke="#2a1b10" stroke-linecap="round" stroke-linejoin="round" stroke-width="0.8"/>
    <path d="M50.4 7.45 L50.65 7.45 51.15 7.45 51.65 7.45 54.05 7.45 55.7 7.45 Q57.15 19.95 58.3 24.45 59.5 29.0 64.3 34.8 L63.35 38.15 62.65 37.2 Q61.7 36.65 61.0 35.7 59.75 34.55 58.8 33.1 54.05 26.4 52.8 15.4 L51.65 20.4 Q47.8 30.95 36.75 31.45 29.1 31.65 24.35 27.85 20.25 24.75 18.1 19.2 17.6 17.8 17.4 16.35 16.45 26.15 13.3 32.4 L11.15 35.5 Q10.65 36.45 9.5 37.2 9.5 37.9 8.05 38.6 7.05 36.95 6.85 35.5 L9.7 32.1 Q12.1 29.75 12.8 23.5 L14.05 8.5 16.9 8.5 17.4 8.5 20.0 8.5 Q20.0 10.35 20.5 12.3 21.0 17.8 23.1 20.9 25.5 24.95 29.35 26.4 37.05 29.0 42.75 25.65 45.85 23.5 47.8 19.2 48.75 16.55 49.45 12.0 L50.4 7.45 M55.7 53.95 L56.2 55.6 55.9 57.55 53.75 57.55 51.85 57.55 40.85 57.55 41.1 53.95 51.4 53.95 52.55 53.95 53.75 53.95 55.7 53.95 M40.15 70.2 L38.0 70.2 37.75 64.25 35.55 64.25 33.95 70.0 31.25 70.0 33.65 63.5 Q31.75 63.05 30.3 61.6 36.75 63.05 42.0 61.6 41.1 63.05 38.7 63.8 L40.15 70.2 M16.15 57.55 L15.25 56.1 15.4 53.95 17.9 53.95 19.75 53.95 20.0 53.95 31.25 53.95 31.5 57.55 19.75 57.55 17.4 57.55 16.15 57.55" fill="#773c00" fill-rule="evenodd" stroke="none"/>
    <path d="M50.4 7.45 L49.45 12.0 Q36.3 27.85 20.5 12.3 20.0 10.35 20.0 8.5 L20.7 8.5 50.4 7.45" fill="#a6a0a0" fill-rule="evenodd" stroke="none"/>
    <path d="M8.05 38.6 Q9.5 37.9 9.5 37.2 L10.45 38.85 8.75 40.5 8.05 38.6 M11.15 35.5 L13.3 32.4 Q16.45 26.15 17.4 16.35 17.6 17.8 18.1 19.2 20.25 24.75 24.35 27.85 29.1 31.65 36.75 31.45 47.8 30.95 51.65 20.4 L52.8 15.4 Q54.05 26.4 58.8 33.1 59.75 34.55 61.0 35.7 L60.45 37.9 Q56.9 34.05 54.75 29.3 52.55 24.75 52.55 20.9 51.4 24.45 48.25 27.85 45.65 30.75 42.5 31.9 39.85 32.85 36.75 32.85 L30.75 32.4 Q26.95 31.9 23.6 29.0 20.0 25.9 17.6 21.15 16.9 31.65 11.6 36.45 L11.15 35.5 M62.65 37.2 L63.35 38.15 62.85 39.85 62.85 40.05 61.7 39.35 Q62.1 38.15 62.65 37.2" fill="#fcc87a" fill-rule="evenodd" stroke="none"/>
    <path d="M49.45 12.0 Q48.75 16.55 47.8 19.2 45.85 23.5 42.75 25.65 37.05 29.0 29.35 26.4 25.5 24.95 23.1 20.9 21.0 17.8 20.5 12.3 36.3 27.85 49.45 12.0" fill="#c4c4c4" fill-rule="evenodd" stroke="none"/>
    <path d="M62.85 40.05 L61.5 42.95 59.75 46.5 Q58.3 49.9 55.7 53.95 L53.75 53.95 Q58.3 48.45 61.7 39.35 L62.85 40.05 M55.9 57.55 L57.35 70.0 55.45 70.0 53.75 57.55 55.9 57.55 M53.75 70.0 L40.15 70.2 38.7 63.8 Q41.1 63.05 42.0 61.6 36.75 63.05 30.3 61.6 31.75 63.05 33.65 63.5 L31.25 70.0 17.4 70.0 19.75 57.55 31.5 57.55 40.85 57.55 51.85 57.55 53.75 70.0 M15.4 70.0 L14.05 70.0 16.15 57.55 17.4 57.55 15.4 70.0 M15.4 53.95 L13.3 50.1 11.4 45.3 Q9.7 42.65 9.5 41.95 L8.75 40.5 10.45 38.85 Q13.3 46.8 17.9 53.95 L15.4 53.95 M11.6 36.45 Q16.9 31.65 17.6 21.15 20.0 25.9 23.6 29.0 26.95 31.9 30.75 32.4 L36.75 32.85 Q39.85 32.85 42.5 31.9 45.65 30.75 48.25 27.85 51.4 24.45 52.55 20.9 52.55 24.75 54.75 29.3 56.9 34.05 60.45 37.9 57.85 44.8 53.55 51.25 L51.4 53.95 41.1 53.95 31.25 53.95 20.0 53.95 19.75 53.45 Q16.15 47.95 11.6 36.45" fill="#f99706" fill-rule="evenodd" stroke="none"/>
    <path d="M9.5 37.2 Q10.65 36.45 11.15 35.5 L11.6 36.45 Q16.15 47.95 19.75 53.45 L20.0 53.95 19.75 53.95 17.9 53.95 Q13.3 46.8 10.45 38.85 L9.5 37.2 M61.0 35.7 Q61.7 36.65 62.65 37.2 62.1 38.15 61.7 39.35 58.3 48.45 53.75 53.95 L52.55 53.95 51.4 53.95 53.55 51.25 Q57.85 44.8 60.45 37.9 L61.0 35.7 M55.45 70.0 L53.75 70.0 51.85 57.55 53.75 57.55 55.45 70.0 M17.4 70.0 L15.4 70.0 17.4 57.55 19.75 57.55 17.4 70.0" fill="#7c4b03" fill-rule="evenodd" stroke="none"/>
    <path d="M32.45 56.35 L39.4 56.35 39.65 55.1 32.45 55.1 32.45 56.35 M31.5 57.55 L31.25 53.95 41.1 53.95 40.85 57.55 31.5 57.55" fill="#fdd69b" fill-rule="evenodd" stroke="none"/>
    <path d="M32.45 56.35 L32.45 55.1 39.65 55.1 39.4 56.35 32.45 56.35" fill="#e38902" fill-rule="evenodd" stroke="none"/>
    <path d="M42.75 33.85 Q45.85 33.55 47.3 36.65 47.8 38.15 47.3 39.35 47.1 41.0 45.85 42.2 46.6 42.65 47.3 44.35 47.55 45.05 47.3 46.05 L47.3 46.25 Q47.3 48.45 45.85 49.4 L45.35 49.4 Q43.25 50.85 41.3 49.4 L41.3 50.6 38.7 50.6 38.7 45.75 41.3 45.75 41.3 47.45 Q43.7 49.15 45.1 46.25 45.65 43.15 42.5 43.4 L42.5 40.5 44.2 40.5 Q45.35 39.35 44.2 37.4 L43.7 36.95 Q42.25 35.7 40.85 37.4 L40.85 38.85 38.0 38.85 38.0 33.85 40.35 33.85 40.35 35.25 Q41.3 34.05 42.75 33.85 M25.25 39.85 L25.25 34.8 33.95 34.8 33.95 37.4 29.6 48.15 31.75 48.15 31.75 50.85 24.85 50.85 24.85 48.15 27.2 48.15 30.3 37.9 27.65 37.9 27.65 39.85 25.25 39.85" fill="#773c00" fill-rule="evenodd" stroke="none"/>
  </g>
</svg>
