<?xml version="1.0" encoding="UTF-8" standalone="no"?>
<svg xmlns:xlink="http://www.w3.org/1999/xlink" height="71.55px" width="71.05px" xmlns="http://www.w3.org/2000/svg">
  <g transform="matrix(1.0, 0.0, 0.0, 1.0, -0.2, -3.5)">
    <path d="M55.9 4.5 Q70.25 4.5 70.25 18.85 L70.25 59.7 Q70.25 74.05 55.9 74.05 L15.55 74.05 Q1.2 74.05 1.2 59.7 L1.2 18.85 Q1.2 4.5 15.55 4.5 L55.9 4.5" fill="#cff3e8" fill-rule="evenodd" stroke="none"/>
    <path d="M54.4 9.5 Q55.75 21.15 56.85 25.4 57.95 29.65 62.7 35.05 L61.1 39.75 59.8 42.65 Q58.65 44.85 58.2 46.0 56.85 49.15 54.4 52.95 L54.85 54.5 54.6 56.3 55.95 67.95 54.15 67.95 52.6 67.95 39.85 68.15 37.85 68.15 37.6 62.6 35.55 62.6 34.05 67.95 31.55 67.95 18.6 67.95 16.75 67.95 15.45 67.95 17.45 56.3 16.6 54.95 16.75 52.95 14.75 49.35 13.0 44.85 11.2 41.75 Q11.2 41.3 9.85 38.6 8.95 37.05 8.75 35.7 L11.65 32.55 Q13.65 30.35 14.3 24.5 L15.45 10.45 18.15 10.45 18.6 10.45 21.05 10.45 21.7 10.45 49.45 9.5 49.7 9.5 50.15 9.5 50.6 9.5 52.85 9.5 54.4 9.5" fill="#986b6b" fill-rule="evenodd" stroke="none"/>
    <path d="M54.4 9.5 Q55.75 21.15 56.85 25.4 57.95 29.65 62.7 35.05 L61.1 39.75 59.8 42.65 Q58.65 44.85 58.2 46.0 56.85 49.15 54.4 52.95 L54.85 54.5 54.6 56.3 55.95 67.95 54.15 67.95 52.6 67.95 39.85 68.15 37.85 68.15 37.6 62.6 35.55 62.6 34.05 67.95 31.55 67.95 18.6 67.95 16.75 67.95 15.45 67.95 17.45 56.3 16.6 54.95 16.75 52.95 14.75 49.35 13.0 44.85 11.2 41.75 Q11.2 41.3 9.85 38.6 8.95 37.05 8.75 35.7 L11.65 32.55 Q13.65 30.35 14.3 24.5 L15.45 10.45 18.15 10.45 18.6 10.45 21.05 10.45 21.7 10.45 49.45 9.5 49.7 9.5 50.15 9.5 50.6 9.5 52.85 9.5 54.4 9.5 Z" fill="none" stroke="#2a1b10" stroke-linecap="round" stroke-linejoin="round" stroke-width="0.8"/>
    <path d="M59.35 35.9 L57.3 33.45 Q52.85 27.2 51.7 16.9 51.25 19.6 50.6 21.6 47.0 31.45 36.7 31.9 29.55 32.1 25.1 28.55 21.25 25.65 19.25 20.45 L18.6 17.8 Q17.7 26.95 14.75 32.8 L12.75 35.7 Q12.3 36.6 11.2 37.3 11.2 37.95 9.85 38.6 8.95 37.05 8.75 35.7 L11.4 32.55 Q13.65 30.35 14.3 24.5 L15.45 10.45 18.15 10.45 18.6 10.45 21.05 10.45 Q21.05 12.2 21.5 14.0 21.95 19.15 23.95 22.05 26.15 25.85 29.75 27.2 36.95 29.65 42.3 26.5 45.2 24.5 47.0 20.45 47.9 18.0 48.55 13.75 L49.45 9.5 49.7 9.5 50.15 9.5 50.6 9.5 52.85 9.5 54.4 9.5 Q55.75 21.15 56.85 25.4 57.95 29.65 62.45 35.05 L61.55 38.2 60.9 37.3 Q60.0 36.8 59.35 35.9 M54.4 52.95 L54.85 54.5 54.6 56.3 52.6 56.3 50.8 56.3 40.5 56.3 40.75 52.95 50.4 52.95 51.45 52.95 52.6 52.95 54.4 52.95 M39.85 68.15 L37.85 68.15 37.6 62.6 35.55 62.6 34.05 67.95 31.55 67.95 33.8 61.9 Q32.0 61.45 30.65 60.1 36.7 61.45 41.6 60.1 40.75 61.45 38.5 62.15 L39.85 68.15 M17.45 56.3 L16.6 54.95 16.75 52.95 19.05 52.95 20.8 52.95 21.05 52.95 31.55 52.95 31.8 56.3 20.8 56.3 18.6 56.3 17.45 56.3" fill="#773c00" fill-rule="evenodd" stroke="none"/>
    <path d="M12.75 35.7 L14.75 32.8 Q17.7 26.95 18.6 17.8 L19.25 20.45 Q21.25 25.65 25.1 28.55 29.55 32.1 36.7 31.9 47.0 31.45 50.6 21.6 51.25 19.6 51.7 16.9 52.85 27.2 57.3 33.45 L59.35 35.9 58.85 37.95 Q55.5 34.35 53.5 29.9 51.45 25.65 51.45 22.05 50.4 25.4 47.45 28.55 45.0 31.25 42.05 32.35 39.6 33.25 36.7 33.25 L31.1 32.8 Q27.55 32.35 24.4 29.65 21.05 26.75 18.8 22.3 18.15 32.1 13.2 36.6 L12.75 35.7 M60.9 37.3 L61.55 38.2 61.1 39.75 61.1 39.95 60.0 39.3 60.9 37.3 M9.85 38.6 Q11.2 37.95 11.2 37.3 L12.1 38.85 10.5 40.4 9.85 38.6" fill="#fcc87a" fill-rule="evenodd" stroke="none"/>
    <path d="M48.55 13.75 Q47.9 18.0 47.0 20.45 45.2 24.5 42.3 26.5 36.95 29.65 29.75 27.2 26.15 25.85 23.95 22.05 21.95 19.15 21.5 14.0 36.25 28.55 48.55 13.75" fill="#c4c4c4" fill-rule="evenodd" stroke="none"/>
    <path d="M49.45 9.5 L48.55 13.75 Q36.25 28.55 21.5 14.0 21.05 12.2 21.05 10.45 L21.7 10.45 49.45 9.5" fill="#a6a0a0" fill-rule="evenodd" stroke="none"/>
    <path d="M13.2 36.6 Q18.15 32.1 18.8 22.3 21.05 26.75 24.4 29.65 27.55 32.35 31.1 32.8 L36.7 33.25 Q39.6 33.25 42.05 32.35 45.0 31.25 47.45 28.55 50.4 25.4 51.45 22.05 51.45 25.65 53.5 29.9 55.5 34.35 58.85 37.95 56.4 44.4 52.4 50.45 L50.4 52.95 40.75 52.95 31.55 52.95 21.05 52.95 20.8 52.5 Q17.45 47.35 13.2 36.6 M61.1 39.95 L59.8 42.65 Q58.65 44.85 58.2 46.0 56.85 49.15 54.4 52.95 L52.6 52.95 Q56.85 47.8 60.0 39.3 L61.1 39.95 M54.6 56.3 L55.95 67.95 54.15 67.95 52.6 56.3 54.6 56.3 M52.6 67.95 L39.85 68.15 38.5 62.15 Q40.75 61.45 41.6 60.1 36.7 61.45 30.65 60.1 32.0 61.45 33.8 61.9 L31.55 67.95 18.6 67.95 20.8 56.3 31.8 56.3 40.5 56.3 50.8 56.3 52.6 67.95 M16.75 67.95 L15.45 67.95 17.45 56.3 18.6 56.3 16.75 67.95 M16.75 52.95 L14.75 49.35 13.0 44.85 11.2 41.75 10.5 40.4 12.1 38.85 Q14.75 46.25 19.05 52.95 L16.75 52.95" fill="#f99706" fill-rule="evenodd" stroke="none"/>
    <path d="M59.35 35.9 Q60.0 36.8 60.9 37.3 L60.0 39.3 Q56.85 47.8 52.6 52.95 L51.45 52.95 50.4 52.95 52.4 50.45 Q56.4 44.4 58.85 37.95 L59.35 35.9 M11.2 37.3 Q12.3 36.6 12.75 35.7 L13.2 36.6 Q17.45 47.35 20.8 52.5 L21.05 52.95 20.8 52.95 19.05 52.95 Q14.75 46.25 12.1 38.85 L11.2 37.3 M54.15 67.95 L52.6 67.95 50.8 56.3 52.6 56.3 54.15 67.95 M18.6 67.95 L16.75 67.95 18.6 56.3 20.8 56.3 18.6 67.95" fill="#7c4b03" fill-rule="evenodd" stroke="none"/>
    <path d="M32.65 55.2 L39.15 55.2 39.4 54.05 32.65 54.05 32.65 55.2 M31.8 56.3 L31.55 52.95 40.75 52.95 40.5 56.3 31.8 56.3" fill="#fdd69b" fill-rule="evenodd" stroke="none"/>
    <path d="M32.65 55.2 L32.65 54.05 39.4 54.05 39.15 55.2 32.65 55.2" fill="#e38902" fill-rule="evenodd" stroke="none"/>
    <path d="M42.3 34.15 Q45.2 33.9 46.55 36.8 47.0 38.2 46.55 39.3 46.35 40.85 45.2 41.95 45.9 42.4 46.55 44.0 46.8 44.65 46.55 45.55 L46.55 45.75 Q46.55 47.8 45.2 48.7 L44.75 48.7 Q42.75 50.05 40.95 48.7 L40.95 49.8 38.5 49.8 38.5 45.3 40.95 45.3 40.95 46.9 Q43.2 48.45 44.5 45.75 45.0 42.85 42.05 43.1 L42.05 40.4 43.65 40.4 Q44.75 39.3 43.65 37.5 L43.2 37.05 Q41.85 35.9 40.5 37.5 L40.5 38.85 37.85 38.85 37.85 34.15 40.05 34.15 40.05 35.45 Q40.95 34.35 42.3 34.15 M28.2 39.75 L25.95 39.75 25.95 35.05 34.05 35.05 34.05 37.5 30.0 47.55 32.0 47.55 32.0 50.05 25.55 50.05 25.55 47.55 27.75 47.55 30.65 37.95 28.2 37.95 28.2 39.75" fill="#773c00" fill-rule="evenodd" stroke="none"/>
    <path d="M55.9 4.5 Q70.25 4.5 70.25 18.85 L70.25 59.7 Q70.25 74.05 55.9 74.05 L15.55 74.05 Q1.2 74.05 1.2 59.7 L1.2 18.85 Q1.2 4.5 15.55 4.5 L55.9 4.5" fill="#000000" fill-opacity="0.29803923" fill-rule="evenodd" stroke="none"/>
    <path d="M55.9 4.5 L15.55 4.5 Q1.2 4.5 1.2 18.85 L1.2 59.7 Q1.2 74.05 15.55 74.05 L55.9 74.05 Q70.25 74.05 70.25 59.7 L70.25 18.85 Q70.25 4.5 55.9 4.5 Z" fill="none" stroke="#666666" stroke-linecap="round" stroke-linejoin="round" stroke-opacity="0.9019608" stroke-width="2.0"/>
  </g>
</svg>
