<?xml version="1.0" encoding="UTF-8" standalone="no"?>
<svg xmlns:xlink="http://www.w3.org/1999/xlink" height="72.55px" width="71.8px" xmlns="http://www.w3.org/2000/svg">
  <g transform="matrix(1.0, 0.0, 0.0, 1.0, 0.55, -2.5)">
    <path d="M54.15 2.5 Q68.5 2.5 68.5 16.85 L68.5 57.7 Q68.5 72.05 54.15 72.05 L13.8 72.05 Q-0.55 72.05 -0.55 57.7 L-0.55 16.85 Q-0.55 2.5 13.8 2.5 L54.15 2.5" fill="#cff3e8" fill-rule="evenodd" stroke="none"/>
    <path d="M54.7 14.8 L55.8 19.9 56.25 22.6 56.25 23.0 56.95 25.45 Q58.25 30.05 59.6 31.2 61.55 32.7 61.55 33.4 L61.55 34.5 60.2 38.7 Q58.9 42.7 58.0 44.45 L53.85 51.3 54.45 52.85 54.05 54.6 55.6 66.3 37.7 66.3 37.25 60.55 35.05 60.55 33.7 66.1 15.35 66.3 17.8 54.6 17.55 54.6 16.7 53.25 16.7 53.1 16.9 51.3 14.9 47.5 Q12.95 42.9 11.35 40.25 L8.95 36.05 10.95 32.7 Q12.7 30.3 14.05 23.2 14.7 19.5 15.15 14.8 L15.8 14.8 16.25 9.75 52.95 9.75 54.25 14.8 54.7 14.8" fill="#636b35" fill-rule="evenodd" stroke="none"/>
    <path d="M54.7 14.8 L55.8 19.9 56.25 22.6 56.25 23.0 56.95 25.45 Q58.25 30.05 59.6 31.2 61.55 32.7 61.55 33.4 L61.55 34.5 60.2 38.7 Q58.9 42.7 58.0 44.45 L53.85 51.3 54.45 52.85 54.05 54.6 55.6 66.3 37.7 66.3 37.25 60.55 35.05 60.55 33.7 66.1 15.35 66.3 17.8 54.6 17.55 54.6 16.7 53.25 16.7 53.1 16.9 51.3 14.9 47.5 Q12.95 42.9 11.35 40.25 L8.95 36.05 10.95 32.7 Q12.7 30.3 14.05 23.2 14.7 19.5 15.15 14.8 L15.8 14.8 16.25 9.75 52.95 9.75 54.25 14.8 54.7 14.8 Z" fill="none" stroke="#2a1b10" stroke-linecap="round" stroke-linejoin="round" stroke-width="0.8"/>
    <path d="M56.35 23.15 L56.25 24.55 53.3 35.75 36.6 41.5 18.55 35.7 14.55 24.8 14.8 22.75 Q20.2 25.05 23.15 25.8 28.2 27.05 37.0 27.05 42.85 27.05 50.55 24.9 L56.35 23.15" fill="#e2e2e2" fill-rule="evenodd" stroke="none"/>
    <path d="M14.8 22.75 L16.35 10.2 19.5 10.2 Q24.15 22.5 34.3 23.35 44.45 24.15 48.65 10.2 L53.1 10.2 56.35 23.0 56.35 23.15 50.55 24.9 Q42.85 27.05 37.0 27.05 28.2 27.05 23.15 25.8 20.2 25.05 14.8 22.75" fill="#adadad" fill-rule="evenodd" stroke="none"/>
    <path d="M19.5 10.2 L48.65 10.2 Q44.45 24.15 34.3 23.35 24.15 22.5 19.5 10.2" fill="#938f8f" fill-rule="evenodd" stroke="none"/>
    <path d="M44.35 24.8 L48.05 14.8 54.7 14.8 Q55.8 21.25 56.95 25.45 L51.6 26.55 48.05 26.3 44.35 24.8 M59.6 31.2 Q61.55 32.7 61.55 33.4 L61.55 34.5 60.05 38.7 Q58.9 42.7 58.0 44.45 L53.85 51.3 54.45 52.85 54.25 54.15 Q53.85 54.6 53.1 54.6 L52.05 54.6 50.5 54.6 51.4 47.5 53.6 46.2 52.7 44.45 53.85 42.25 56.95 41.55 58.7 38.0 59.6 31.2 M14.05 23.2 Q14.7 19.5 15.15 14.8 L21.75 14.8 26.45 27.2 26.45 27.45 22.9 27.2 Q19.55 27.0 17.15 25.45 L14.05 23.2" fill="#444532" fill-rule="evenodd" stroke="none"/>
    <path d="M56.95 25.45 Q58.0 30.05 59.6 31.2 L58.7 38.0 56.95 41.55 53.85 42.25 52.7 44.45 53.6 46.2 51.4 47.5 50.5 54.6 35.5 54.6 35.5 43.35 34.35 43.35 34.35 54.6 21.1 54.6 21.1 47.5 18.0 46.0 16.9 43.55 17.15 42.25 13.4 37.4 10.95 32.7 Q12.7 30.3 14.05 23.2 L17.15 25.45 Q19.55 27.0 22.9 27.2 L26.45 27.45 28.2 28.3 Q38.35 32.7 44.35 24.8 L48.05 26.3 51.6 26.55 56.95 25.45 M54.25 54.15 L54.05 54.6 53.1 54.6 Q53.85 54.6 54.25 54.15" fill="#51553c" fill-rule="evenodd" stroke="none"/>
    <path d="M17.8 54.6 L17.55 54.6 16.7 53.25 16.7 53.1 16.9 51.75 16.9 51.3 14.9 47.5 Q12.95 42.9 11.35 40.25 L8.95 36.05 10.95 32.7 13.4 37.4 17.15 42.25 16.9 43.55 18.0 46.0 21.1 47.5 21.1 54.6 20.65 54.6 18.9 54.6 17.8 54.6" fill="#3f422d" fill-rule="evenodd" stroke="none"/>
    <path d="M36.35 26.1 L35.9 26.1 35.9 25.9 36.15 25.9 36.35 26.1" fill="#986314" fill-rule="evenodd" stroke="none"/>
    <path d="M34.35 54.6 L34.35 43.35 35.5 43.35 35.5 54.6 34.35 54.6" fill="#9d4a16" fill-rule="evenodd" stroke="none"/>
    <path d="M54.05 54.6 L55.6 66.3 53.85 66.3 52.05 54.6 53.1 54.6 54.05 54.6 M52.05 66.3 L37.7 66.3 37.25 60.55 35.05 60.55 33.7 66.1 18.7 66.3 20.65 54.6 21.1 54.6 34.35 54.6 35.5 54.6 50.5 54.6 52.05 66.3 M16.9 66.3 L15.35 66.3 17.8 54.6 18.9 54.6 16.9 66.3" fill="#f99706" fill-rule="evenodd" stroke="none"/>
    <path d="M53.85 66.3 L52.05 66.3 50.5 54.6 52.05 54.6 53.85 66.3 M18.7 66.3 L16.9 66.3 18.9 54.6 20.65 54.6 18.7 66.3" fill="#7c4b03" fill-rule="evenodd" stroke="none"/>
    <path d="M37.45 22.6 L37.7 23.65 Q37.7 25.0 36.55 25.45 37.0 25.45 37.25 25.9 37.7 26.3 37.25 26.55 L37.0 27.0 36.8 27.0 36.55 27.2 34.6 27.45 Q33.05 27.45 33.05 26.3 33.05 25.45 33.95 25.45 32.6 25.25 32.6 23.45 L32.8 22.8 32.8 22.6 37.45 22.6" fill="#c68119" fill-rule="evenodd" stroke="none"/>
    <path d="M32.8 22.6 L32.8 22.8 32.6 23.45 Q32.6 25.25 33.95 25.45 33.05 25.45 33.05 26.3 33.05 27.45 34.6 27.45 L36.55 27.2 36.8 27.0 37.0 27.0 37.25 26.55 Q37.7 26.3 37.25 25.9 37.0 25.45 36.55 25.45 37.7 25.0 37.7 23.65 L37.45 22.6 37.9 22.6 37.7 27.2 37.25 27.65 36.35 27.85 35.9 27.85 Q35.05 28.1 33.95 27.85 L33.7 27.85 33.25 27.85 32.4 27.45 31.95 27.2 31.75 22.6 32.8 22.6" fill="#986314" fill-rule="evenodd" stroke="none"/>
    <path d="M31.95 27.2 L32.4 27.45 31.75 30.75 Q31.3 32.95 31.3 34.5 31.3 35.6 31.75 36.5 31.95 37.4 32.8 38.9 L34.15 41.35 Q34.8 42.45 35.5 41.35 L36.8 39.35 37.25 38.0 38.35 35.35 Q38.6 34.95 38.35 33.4 L37.9 29.65 37.25 27.65 37.7 27.2 39.9 34.75 34.8 45.3 30.4 35.15 31.95 27.2 M33.7 27.85 L33.95 27.85 Q35.05 28.1 35.9 27.85 L36.35 29.65 Q36.35 30.95 35.9 32.05 35.7 33.4 34.8 34.05 L34.8 33.85 34.8 32.05 34.6 30.05 Q34.15 30.75 33.95 31.65 L34.15 32.25 33.95 31.85 Q33.7 31.2 33.7 30.3 L33.7 28.75 33.7 27.85" fill="#e5a547" fill-rule="evenodd" stroke="none"/>
    <path d="M32.4 27.45 L33.25 27.85 33.7 27.85 33.7 28.75 33.7 30.3 Q33.7 31.2 33.95 31.85 L34.15 32.25 33.95 31.65 Q34.15 30.75 34.6 30.05 L34.8 32.05 34.8 33.85 34.8 34.05 Q35.7 33.4 35.9 32.05 36.35 30.95 36.35 29.65 L35.9 27.85 36.35 27.85 37.25 27.65 37.9 29.65 38.35 33.4 Q38.6 34.95 38.35 35.35 L37.25 38.0 36.8 39.35 35.5 41.35 Q34.8 42.45 34.15 41.35 L32.8 38.9 Q31.95 37.4 31.75 36.5 31.3 35.6 31.3 34.5 31.3 32.95 31.75 30.75 L32.4 27.45" fill="#febe5f" fill-rule="evenodd" stroke="none"/>
    <path d="M33.7 43.35 L34.8 44.9 21.1 36.95 24.85 32.95 20.25 32.95 16.25 14.8 18.0 14.8 21.3 30.75 27.05 31.85 23.95 35.8 33.7 43.35 M19.1 14.8 L21.55 15.05 33.25 41.55 24.85 35.6 27.75 31.4 22.2 30.05 19.1 14.8" fill="#9d4a16" fill-rule="evenodd" stroke="none"/>
    <path d="M18.0 14.8 L19.1 14.8 22.2 30.05 27.75 31.4 24.85 35.6 33.25 41.55 33.7 43.35 23.95 35.8 27.05 31.85 21.3 30.75 18.0 14.8" fill="#ffe3bb" fill-rule="evenodd" stroke="none"/>
    <path d="M51.85 15.05 L52.95 15.05 49.65 32.95 44.8 32.95 48.75 36.95 35.05 44.9 35.9 43.35 45.85 35.8 42.55 31.85 48.5 30.75 51.85 15.05 M36.35 41.55 L47.85 15.05 50.5 15.05 47.45 30.05 41.85 31.4 44.8 35.6 36.35 41.55" fill="#9d4a16" fill-rule="evenodd" stroke="none"/>
    <path d="M35.9 43.35 L36.35 41.55 44.8 35.6 41.85 31.4 47.45 30.05 50.5 15.05 51.85 15.05 48.5 30.75 42.55 31.85 45.85 35.8 35.9 43.35" fill="#ffe3bb" fill-rule="evenodd" stroke="none"/>
    <path d="M42.1 46.9 L41.85 46.45 53.85 46.45 53.85 46.9 42.1 46.9 M16.9 46.9 L16.9 46.45 28.65 46.45 28.65 46.9 16.9 46.9" fill="#febe5f" fill-rule="evenodd" stroke="none"/>
    <path d="M53.85 46.9 L53.85 48.65 42.1 48.65 42.1 46.9 53.85 46.9 M28.65 46.9 L28.65 48.65 16.9 48.65 16.9 46.9 28.65 46.9 M23.95 49.75 L24.2 50.6 23.95 51.3 23.35 51.75 Q22.65 51.75 22.2 51.3 L22.2 50.6 22.2 49.75 23.35 49.55 23.95 49.75 M48.95 51.3 L48.3 51.75 Q47.85 51.75 47.45 51.3 47.2 51.05 47.2 50.6 47.2 50.15 47.45 49.75 L48.3 49.55 48.95 49.75 Q49.4 50.15 49.4 50.6 49.4 51.05 48.95 51.3" fill="#9d4a16" fill-rule="evenodd" stroke="none"/>
    <path d="M55.9 4.5 Q70.25 4.5 70.25 18.85 L70.25 59.7 Q70.25 74.05 55.9 74.05 L15.55 74.05 Q1.2 74.05 1.2 59.7 L1.2 18.85 Q1.2 4.5 15.55 4.5 L55.9 4.5" fill="#000000" fill-opacity="0.29803923" fill-rule="evenodd" stroke="none"/>
    <path d="M55.9 4.5 L15.55 4.5 Q1.2 4.5 1.2 18.85 L1.2 59.7 Q1.2 74.05 15.55 74.05 L55.9 74.05 Q70.25 74.05 70.25 59.7 L70.25 18.85 Q70.25 4.5 55.9 4.5 Z" fill="none" stroke="#666666" stroke-linecap="round" stroke-linejoin="round" stroke-opacity="0.9019608" stroke-width="2.0"/>
  </g>
</svg>
