<?xml version="1.0" encoding="UTF-8" standalone="no"?>
<svg xmlns:xlink="http://www.w3.org/1999/xlink" height="58.15px" width="63.3px" xmlns="http://www.w3.org/2000/svg">
  <g transform="matrix(1.0, 0.0, 0.0, 1.0, -6.1, -8.35)">
    <path d="M57.75 22.85 L56.35 25.15 Q56.35 28.45 56.8 30.75 56.8 31.7 57.05 32.2 L57.55 35.25 58.5 39.0 59.4 41.3 59.6 42.25 60.55 44.1 61.3 45.55 62.45 47.65 Q62.9 48.6 63.6 49.25 L63.85 49.5 64.3 50.45 65.05 51.15 65.05 51.4 66.65 53.25 67.35 53.95 68.3 55.15 68.55 55.35 68.8 55.35 69.0 55.55 Q67.85 57.45 66.4 58.6 65.05 59.8 62.65 61.2 L62.0 61.65 60.35 62.35 Q57.75 63.3 53.55 64.0 53.8 64.5 51.9 64.95 L41.35 66.1 39.3 66.1 35.75 66.1 33.85 66.1 32.0 66.1 Q26.4 65.65 20.75 64.0 L19.6 63.8 15.6 61.9 14.45 61.45 11.85 60.05 Q8.35 58.2 6.5 55.55 L6.75 55.35 7.4 54.9 Q7.65 54.2 8.1 53.95 8.6 53.7 8.6 53.25 L9.55 52.3 10.7 50.9 10.9 50.45 11.15 50.45 11.15 50.2 12.35 48.6 12.8 47.85 13.55 46.7 14.45 44.35 15.15 42.7 15.6 41.3 15.85 40.95 15.85 41.3 Q15.85 41.05 16.1 40.85 L16.8 38.25 17.5 35.25 17.95 31.7 17.95 31.0 18.4 25.15 Q16.55 22.6 15.4 20.0 L17.95 17.4 22.4 13.9 25.2 12.05 Q31.05 8.55 38.55 8.75 45.35 9.0 48.9 11.8 L53.8 15.1 56.35 17.4 59.6 20.0 58.7 21.9 57.75 22.85" fill="#9364bf" fill-rule="evenodd" stroke="none"/>
    <path d="M57.75 22.85 L56.35 25.15 Q56.35 28.45 56.8 30.75 56.8 31.7 57.05 32.2 L57.55 35.25 58.5 39.0 59.4 41.3 59.6 42.25 60.55 44.1 61.3 45.55 62.45 47.65 Q62.9 48.6 63.6 49.25 L63.85 49.5 64.3 50.45 65.05 51.15 65.05 51.4 66.65 53.25 67.35 53.95 68.3 55.15 68.55 55.35 68.8 55.35 69.0 55.55 Q67.85 57.45 66.4 58.6 65.05 59.8 62.65 61.2 L62.0 61.65 60.35 62.35 Q57.75 63.3 53.55 64.0 53.8 64.5 51.9 64.95 L41.35 66.1 39.3 66.1 35.75 66.1 33.85 66.1 32.0 66.1 Q26.4 65.65 20.75 64.0 L19.6 63.8 15.6 61.9 14.45 61.45 11.85 60.05 Q8.35 58.2 6.5 55.55 L6.75 55.35 7.4 54.9 Q7.65 54.2 8.1 53.95 8.6 53.7 8.6 53.25 L9.55 52.3 10.7 50.9 10.9 50.45 11.15 50.45 11.15 50.2 12.35 48.6 12.8 47.85 13.55 46.7 14.45 44.35 15.15 42.7 15.6 41.3 15.85 40.95 15.85 41.3 Q15.85 41.05 16.1 40.85 L16.8 38.25 17.5 35.25 17.95 31.7 17.95 31.0 18.4 25.15 Q16.55 22.6 15.4 20.0 L17.95 17.4 22.4 13.9 25.2 12.05 Q31.05 8.55 38.55 8.75 45.35 9.0 48.9 11.8 L53.8 15.1 56.35 17.4 59.6 20.0 58.7 21.9 57.75 22.85 Z" fill="none" stroke="#451066" stroke-linecap="round" stroke-linejoin="round" stroke-width="0.8"/>
    <path d="M59.15 19.55 L56.1 23.95 51.9 29.6 Q46.25 36.15 37.6 41.3 29.7 39.4 22.2 28.65 20.3 26.3 18.4 23.25 L16.1 19.55 17.95 17.4 Q38.35 35.7 56.35 17.4 L59.15 19.55" fill="#995ad7" fill-rule="evenodd" stroke="none"/>
    <path d="M51.9 29.6 L56.1 23.95 59.15 19.55 59.6 20.0 58.7 21.9 57.75 23.05 56.35 25.15 56.1 25.85 52.15 31.0 Q51.9 30.55 51.9 29.6 M16.1 19.55 L18.4 23.25 Q20.3 26.3 22.2 28.65 L21.7 30.05 18.4 25.15 Q16.55 22.6 15.4 20.0 L16.1 19.55" fill="#ad82d4" fill-rule="evenodd" stroke="none"/>
    <path d="M17.95 17.4 L22.4 13.9 25.2 12.05 Q31.05 8.55 38.55 8.75 45.35 9.0 48.9 11.8 L53.8 15.1 56.35 17.4 Q37.4 26.55 17.95 17.4" fill="#cbcbcb" fill-rule="evenodd" stroke="none"/>
    <path d="M22.2 28.65 Q29.7 39.4 37.6 41.3 46.25 36.15 51.9 29.6 51.9 30.55 52.15 31.0 46.5 38.05 37.6 43.4 29.7 41.3 21.7 30.05 L22.2 28.65 M20.75 35.0 Q28.25 44.85 36.65 47.65 L35.3 47.4 33.65 47.4 Q29.2 46.9 25.0 45.55 22.9 45.05 21.95 44.35 L20.3 43.65 20.3 42.0 Q20.3 38.25 20.75 35.0 M38.55 47.65 Q46.75 44.1 53.3 35.95 54.0 40.85 54.95 44.85 L54.25 45.05 51.45 46.2 46.75 47.15 41.35 47.65 38.55 47.65" fill="#cfa6f5" fill-rule="evenodd" stroke="none"/>
    <path d="M52.15 31.0 L53.3 35.95 Q46.75 44.1 38.55 47.65 L37.6 48.1 Q37.4 47.85 36.65 47.65 28.25 44.85 20.75 35.0 21.0 32.4 21.7 30.05 29.7 41.3 37.6 43.4 46.5 38.05 52.15 31.0 M62.45 47.65 Q62.9 48.6 63.6 49.25 L63.85 49.5 64.3 50.45 65.05 51.15 65.05 51.4 66.65 53.25 67.35 53.95 68.3 55.15 68.55 55.35 68.8 55.35 69.0 55.55 Q67.85 57.45 66.4 58.6 65.05 59.8 62.65 61.2 57.75 57.0 54.95 50.65 58.5 49.5 62.45 47.65 M53.55 64.0 Q53.8 64.5 51.9 64.95 L41.35 66.1 Q39.95 59.8 39.7 53.5 L40.2 53.5 42.1 53.5 48.65 52.55 Q50.75 60.5 53.55 64.0 M32.0 66.1 Q26.4 65.65 20.75 64.0 23.55 58.2 24.25 51.6 L33.2 53.25 32.0 66.1 M11.85 60.25 Q8.35 58.2 6.5 55.55 L6.75 55.35 7.4 54.9 Q7.65 54.2 8.1 53.95 8.6 53.7 8.6 53.25 L9.55 52.3 10.7 50.9 10.9 50.45 11.15 50.45 11.15 50.2 12.35 48.6 12.8 47.85 13.55 46.7 Q16.35 48.35 19.15 49.5 16.1 57.0 11.85 60.25" fill="#823cc3" fill-rule="evenodd" stroke="none"/>
    <path d="M52.15 31.0 L56.1 25.85 56.35 25.15 Q56.35 28.45 56.8 30.75 L53.3 35.95 52.15 31.0 M21.7 30.05 Q21.0 32.4 20.75 35.0 L17.95 31.0 18.4 25.15 21.7 30.05" fill="#6927a6" fill-rule="evenodd" stroke="none"/>
    <path d="M53.3 35.95 L56.8 30.75 Q56.8 31.7 57.05 32.2 L57.55 35.25 58.5 39.0 59.4 41.3 59.6 42.25 54.95 44.85 Q54.0 40.85 53.3 35.95 M16.1 40.85 L16.8 38.25 17.5 35.25 17.95 31.7 17.95 31.0 20.75 35.0 Q20.3 38.25 20.3 42.0 L20.3 43.65 19.6 43.15 Q18.4 42.7 16.1 40.85" fill="#b285db" fill-rule="evenodd" stroke="none"/>
    <path d="M47.95 48.6 L50.5 47.85 51.9 47.4 Q52.15 49.25 53.05 50.9 L53.05 51.15 52.4 51.6 50.5 51.85 Q49.55 52.05 48.65 52.55 L47.95 48.6 M21.95 46.2 L22.2 46.2 23.8 46.9 Q24.05 47.15 24.75 47.4 L24.5 51.15 23.55 50.65 21.95 50.2 21.7 49.95 20.75 49.75 21.95 46.2 M35.05 49.5 L36.25 49.5 38.35 49.5 38.55 53.5 38.1 53.5 36.0 53.5 34.8 53.25 34.6 53.25 35.05 49.5" fill="#aaa9aa" fill-rule="evenodd" stroke="none"/>
    <path d="M36.65 47.65 Q37.4 47.85 37.6 48.1 L38.55 47.65 41.35 47.65 46.75 47.15 51.45 46.2 54.25 45.05 54.95 44.85 54.95 46.2 53.05 46.9 51.9 47.4 50.5 47.85 47.95 48.6 39.7 49.5 39.3 49.5 38.35 49.5 36.25 49.5 35.05 49.5 33.65 49.25 Q28.95 48.8 24.75 47.4 24.05 47.15 23.8 46.9 L22.2 46.2 21.95 46.2 Q21.0 45.95 20.5 45.55 L20.3 43.65 21.95 44.35 Q22.9 45.05 25.0 45.55 29.2 46.9 33.65 47.4 L35.3 47.4 36.65 47.65" fill="#a37bc9" fill-rule="evenodd" stroke="none"/>
    <path d="M62.65 61.2 L62.0 61.65 60.35 62.35 Q55.65 57.7 53.05 51.4 L53.05 51.15 53.05 50.9 Q52.15 49.25 51.9 47.4 L53.05 46.9 54.5 50.45 54.95 50.65 Q57.75 57.0 62.65 61.2 M41.35 66.1 L39.3 66.1 38.55 53.7 39.5 53.5 39.7 53.5 Q39.95 59.8 41.35 66.1 M33.85 66.1 L32.0 66.1 33.2 53.25 34.6 53.5 33.85 66.1 M14.45 61.45 L11.85 60.25 Q16.1 57.0 19.15 49.5 L20.75 50.2 Q18.4 57.25 14.45 61.45" fill="#4d197e" fill-rule="evenodd" stroke="none"/>
    <path d="M60.55 44.1 L61.3 45.55 62.45 47.65 Q58.5 49.5 54.95 50.65 L54.5 50.45 53.05 46.9 54.95 46.2 60.55 44.1 M13.55 46.7 L14.45 44.35 15.15 42.7 Q17.7 44.35 20.5 45.55 L19.35 48.8 19.15 49.5 Q16.35 48.35 13.55 46.7 M47.95 48.6 L48.65 52.55 42.1 53.5 40.2 53.5 39.7 53.5 39.7 49.5 47.95 48.6 M24.75 47.4 Q28.95 48.8 33.65 49.25 L33.2 53.25 24.25 51.6 24.5 51.15 24.75 47.4" fill="#6627a1" fill-rule="evenodd" stroke="none"/>
    <path d="M59.6 42.25 L60.55 44.1 54.95 46.2 54.95 44.85 59.6 42.25 M15.15 42.7 L15.6 41.3 15.85 40.95 15.85 41.3 Q15.85 41.05 16.1 40.85 18.4 42.7 19.6 43.15 L20.3 43.65 20.5 45.55 Q17.7 44.35 15.15 42.7" fill="#7847a6" fill-rule="evenodd" stroke="none"/>
    <path d="M20.5 45.55 Q21.0 45.95 21.95 46.2 L20.75 49.75 20.75 50.2 19.15 49.5 19.35 48.8 20.5 45.55 M33.65 49.25 L35.05 49.5 34.6 53.25 34.6 53.5 33.2 53.25 33.65 49.25 M38.35 49.5 L39.3 49.5 39.7 49.5 39.7 53.5 39.5 53.5 38.55 53.7 38.55 53.5 38.35 49.5" fill="#3b0f64" fill-rule="evenodd" stroke="none"/>
    <path d="M60.35 62.35 Q57.75 63.3 53.55 64.0 50.75 60.5 48.65 52.55 49.55 52.05 50.5 51.85 L52.4 51.6 53.05 51.15 53.05 51.4 Q55.65 57.7 60.35 62.35 M39.3 66.1 L35.75 66.1 33.85 66.1 34.6 53.5 34.6 53.25 34.8 53.25 36.0 53.5 38.1 53.5 38.55 53.5 38.55 53.7 39.3 66.1 M20.75 64.0 L19.6 63.8 15.6 61.9 14.45 61.45 Q18.4 57.25 20.75 50.2 L20.75 49.75 21.7 49.95 21.95 50.2 23.55 50.65 24.5 51.15 24.25 51.6 Q23.55 58.2 20.75 64.0" fill="#e5e1e1" fill-rule="evenodd" stroke="none"/>
    <path d="M56.35 17.4 Q38.35 35.7 17.95 17.4 37.4 26.55 56.35 17.4" fill="#e9e5e5" fill-rule="evenodd" stroke="none"/>
    <path d="M40.2 27.0 L40.45 29.15 Q40.65 30.75 40.9 30.75 L43.25 28.45 43.0 27.5 43.0 27.0 Q43.0 26.3 43.25 26.1 L44.2 25.85 Q44.65 25.85 45.15 26.3 L45.6 27.25 Q45.6 27.95 45.15 28.2 L44.2 28.65 43.95 29.4 43.45 30.3 43.0 31.95 42.1 34.05 41.85 34.05 40.2 34.05 38.8 34.05 Q38.55 33.8 36.45 34.05 L34.1 34.05 31.8 34.05 29.7 28.65 Q28.5 28.45 28.5 28.2 28.0 27.95 28.0 27.25 28.0 25.65 29.7 25.65 L29.9 25.65 30.85 26.1 30.85 26.3 Q31.3 26.55 31.3 27.25 L30.85 27.7 30.85 28.2 32.0 29.6 33.4 30.75 Q34.1 28.45 34.1 27.0 L35.55 27.25 36.25 28.2 Q36.45 29.15 37.15 30.75 L37.4 30.75 38.35 28.2 38.55 27.25 40.2 27.0 M43.45 37.8 L39.5 37.8 Q36.9 37.55 34.1 37.8 31.55 38.05 30.6 37.8 L30.35 37.3 Q30.35 35.95 31.55 35.25 32.5 34.75 35.05 34.75 L38.35 34.75 Q39.05 35.0 39.5 34.75 L41.85 35.25 Q43.95 35.45 43.45 37.8" fill="#5c1a7e" fill-rule="evenodd" stroke="none"/>
    <path d="M34.1 27.0 L34.1 26.3 33.2 26.1 Q32.95 25.85 32.95 25.15 32.95 24.7 33.4 23.95 L34.6 23.75 36.0 23.95 Q36.45 24.45 36.45 25.15 L36.0 25.85 35.3 26.3 35.55 27.25 34.1 27.0 M38.55 27.25 L38.55 26.3 38.55 25.85 38.35 25.15 Q38.35 24.7 38.8 24.2 39.3 23.95 39.7 23.95 40.45 23.95 40.65 24.45 41.35 24.9 41.35 25.4 41.35 25.85 40.65 26.3 L40.2 26.8 40.2 27.0 38.55 27.25" fill="#3d0e56" fill-rule="evenodd" stroke="none"/>
  </g>
</svg>
