<?xml version="1.0" encoding="UTF-8" standalone="no"?>
<svg xmlns:xlink="http://www.w3.org/1999/xlink" height="69.55px" width="69.05px" xmlns="http://www.w3.org/2000/svg">
  <g transform="matrix(1.0, 0.0, 0.0, 1.0, -7.2, -3.1)">
    <path d="M61.9 3.1 Q76.25 3.1 76.25 17.45 L76.25 58.3 Q76.25 72.65 61.9 72.65 L21.55 72.65 Q7.2 72.65 7.2 58.3 L7.2 17.45 Q7.2 3.1 21.55 3.1 L61.9 3.1" fill="#cff3e8" fill-rule="evenodd" stroke="none"/>
    <path d="M60.85 22.3 L60.0 23.4 58.75 25.3 58.75 26.55 60.45 36.55 60.65 37.2 Q61.95 37.6 63.85 39.3 L64.25 39.3 Q65.35 39.3 68.35 42.7 71.5 46.55 71.5 48.45 L71.5 49.55 70.85 50.8 71.1 51.65 Q71.1 52.3 70.0 53.35 L69.8 53.55 Q68.95 54.85 67.7 55.85 L64.25 58.05 63.85 58.4 63.0 58.85 62.35 59.05 Q60.2 59.95 57.45 60.55 L56.2 60.8 Q56.2 61.2 54.7 61.4 L52.8 61.6 49.8 62.05 47.7 62.25 Q46.85 62.9 45.35 62.7 L43.0 62.45 40.25 62.45 40.05 62.45 38.55 62.45 38.15 62.45 36.65 62.45 34.1 62.25 30.7 61.6 29.4 61.4 26.45 60.55 25.35 60.35 24.1 59.7 21.75 58.85 Q21.15 58.4 20.7 58.4 L18.4 57.15 17.1 56.3 Q15.6 55.45 14.55 54.2 L13.9 53.55 13.45 53.1 Q13.45 52.9 13.7 52.9 13.05 51.85 13.05 51.0 13.05 49.9 13.45 48.65 L13.9 47.8 Q13.05 46.35 13.05 44.85 L13.05 43.6 Q13.45 41.4 17.5 37.85 21.35 34.45 22.4 34.45 L23.05 34.65 Q23.9 31.9 23.9 26.95 L24.1 25.05 Q22.6 22.95 21.55 20.6 L23.9 18.25 26.45 16.35 27.9 15.3 Q29.0 14.25 30.3 13.6 L30.9 13.15 Q36.0 10.2 42.35 10.6 48.1 10.6 51.95 13.15 L52.15 13.15 56.2 16.35 56.4 16.35 58.55 18.25 58.75 18.25 61.5 20.8 Q61.3 21.9 60.85 22.3" fill="#8150af" fill-rule="evenodd" stroke="none"/>
    <path d="M60.85 22.3 L60.0 23.4 58.75 25.3 58.75 26.55 60.45 36.55 60.65 37.2 Q61.95 37.6 63.85 39.3 L64.25 39.3 Q65.35 39.3 68.35 42.7 71.5 46.55 71.5 48.45 L71.5 49.55 70.85 50.8 71.1 51.65 Q71.1 52.3 70.0 53.35 L69.8 53.55 Q68.95 54.85 67.7 55.85 L64.25 58.05 63.85 58.4 63.0 58.85 62.35 59.05 Q60.2 59.95 57.45 60.55 L56.2 60.8 Q56.2 61.2 54.7 61.4 L52.8 61.6 49.8 62.05 47.7 62.25 Q46.85 62.9 45.35 62.7 L43.0 62.45 40.25 62.45 40.05 62.45 38.55 62.45 38.15 62.45 36.65 62.45 34.1 62.25 30.7 61.6 29.4 61.4 26.45 60.55 25.35 60.35 24.1 59.7 21.75 58.85 Q21.15 58.4 20.7 58.4 L18.4 57.15 17.1 56.3 Q15.6 55.45 14.55 54.2 L13.9 53.55 13.45 53.1 Q13.45 52.9 13.7 52.9 13.05 51.85 13.05 51.0 13.05 49.9 13.45 48.65 L13.9 47.8 Q13.05 46.35 13.05 44.85 L13.05 43.6 Q13.45 41.4 17.5 37.85 21.35 34.45 22.4 34.45 L23.05 34.65 Q23.9 31.9 23.9 26.95 L24.1 25.05 Q22.6 22.95 21.55 20.6 L23.9 18.25 26.45 16.35 27.9 15.3 Q29.0 14.25 30.3 13.6 L30.9 13.15 Q36.0 10.2 42.35 10.6 48.1 10.6 51.95 13.15 L52.15 13.15 56.2 16.35 56.4 16.35 58.55 18.25 58.75 18.25 61.5 20.8 Q61.3 21.9 60.85 22.3 Z" fill="none" stroke="#4c0e62" stroke-linecap="round" stroke-linejoin="round" stroke-width="0.8"/>
    <path d="M52.15 13.15 L56.2 16.15 56.4 16.35 58.55 18.05 58.75 18.25 61.5 20.6 60.85 22.3 60.0 23.15 58.75 25.3 58.55 28.25 59.2 30.4 59.4 31.65 59.8 34.45 60.45 37.85 61.1 38.65 61.1 39.1 61.1 39.3 60.85 39.3 Q59.8 39.95 58.1 41.2 L57.25 41.65 55.55 42.7 Q53.65 43.6 51.3 43.8 48.1 43.95 42.6 41.85 L41.75 42.3 41.35 42.3 41.35 42.5 Q40.9 42.5 39.8 42.95 L37.7 43.6 34.75 43.95 30.9 43.35 28.15 42.5 26.0 41.65 Q24.95 41.2 23.9 40.4 L22.2 39.1 22.2 38.65 Q22.4 37.85 22.85 37.2 L22.85 36.75 23.25 34.45 23.9 31.25 23.9 30.6 23.9 28.7 24.1 25.3 Q22.6 22.95 21.55 20.6 L23.9 18.25 26.45 16.35 27.9 15.05 Q29.0 14.25 30.3 13.4 L30.9 13.15 31.1 13.15 Q34.75 19.1 42.15 19.1 48.75 19.1 52.15 13.15 M13.9 53.5 L13.45 52.9 13.7 52.9 13.9 53.5" fill="#9364bf" fill-rule="evenodd" stroke="none"/>
    <path d="M31.1 13.15 Q36.0 10.2 42.35 10.4 48.1 10.6 51.95 13.15 L52.15 13.15 Q48.75 19.1 42.15 19.1 34.75 19.1 31.1 13.15" fill="#cbcbcb" fill-rule="evenodd" stroke="none"/>
    <path d="M61.1 39.3 Q61.5 38.9 61.75 38.9 64.5 38.9 68.1 44.4 71.1 49.3 71.1 51.45 71.1 52.05 70.0 53.35 L69.8 53.55 68.55 54.85 Q68.35 55.45 67.7 55.65 66.4 56.75 64.25 58.05 L63.85 57.6 62.6 57.4 61.95 57.6 62.75 57.8 63.0 58.4 63.0 58.65 62.35 59.05 57.45 60.55 Q57.45 59.7 56.0 59.7 55.15 59.7 51.95 61.2 L49.8 62.05 47.7 62.25 47.5 61.85 47.7 61.4 47.9 60.8 47.7 60.55 45.35 56.5 Q44.1 54.6 44.1 52.9 L43.85 52.5 43.85 51.65 Q43.65 50.8 43.25 50.8 42.8 50.8 42.6 51.85 42.35 52.5 42.35 53.55 L42.15 55.05 41.35 56.3 Q40.05 58.85 40.25 62.25 L40.05 62.45 38.55 62.45 38.55 62.05 Q39.6 61.6 39.8 61.6 L39.8 60.8 39.0 60.15 38.15 60.15 Q37.05 60.15 35.6 61.2 L34.1 62.25 30.7 61.6 29.4 61.4 29.0 61.4 Q27.1 60.35 26.25 58.85 L25.35 58.85 25.35 59.05 25.15 59.05 25.15 58.65 Q25.6 58.4 26.45 56.5 L27.3 54.6 27.3 54.4 Q24.95 56.5 24.1 59.5 23.05 59.3 21.55 58.4 L20.9 58.05 Q21.55 57.6 21.75 56.5 21.55 54.6 21.75 53.95 L22.4 51.85 23.25 50.15 Q20.9 51.45 19.0 55.45 L19.2 56.5 Q19.2 56.75 18.75 56.75 L17.75 56.5 17.1 56.3 14.55 54.2 13.9 53.55 13.9 53.5 13.7 52.9 Q13.05 51.65 13.05 50.8 13.05 49.7 13.45 48.45 14.35 46.55 16.45 43.35 19.85 38.65 21.75 38.65 L21.95 38.65 22.2 39.1 23.9 40.4 Q24.95 41.2 26.0 41.65 24.35 41.65 23.05 42.7 22.2 43.35 20.5 45.5 20.05 46.1 19.65 47.4 L19.0 49.1 18.75 51.0 18.75 53.05 Q18.85 50.25 20.5 48.45 21.95 45.9 24.95 44.4 L25.15 44.4 Q23.45 48.0 22.4 48.9 L22.4 49.1 Q23.7 48.65 24.75 47.6 L26.9 45.9 Q28.55 45.05 29.4 44.4 30.45 43.95 30.9 43.35 L34.75 43.95 37.7 43.6 Q36.0 45.9 36.0 51.85 36.0 54.6 36.65 56.1 36.0 48.9 39.4 45.25 L39.0 48.9 40.9 45.5 41.35 42.5 41.35 42.3 41.75 42.3 42.6 41.85 Q48.1 43.95 51.3 43.8 53.65 43.6 55.55 42.7 L55.35 43.15 Q55.35 44.4 56.2 45.7 56.2 46.55 57.25 47.4 58.95 49.7 60.2 50.55 L59.2 46.75 59.4 46.75 Q62.6 50.55 62.35 52.9 62.75 52.7 63.0 51.65 L63.0 50.15 Q63.0 47.4 61.5 44.6 60.2 41.85 58.1 41.2 59.8 39.95 60.85 39.3 L61.1 39.3" fill="#803ebd" fill-rule="evenodd" stroke="none"/>
    <path d="M41.35 42.5 L40.9 45.5 39.0 48.9 39.4 45.25 Q36.0 48.9 36.65 56.1 36.0 54.6 36.0 51.85 36.0 45.9 37.7 43.6 L39.8 42.95 Q40.9 42.5 41.35 42.5 M30.9 43.35 Q30.45 43.95 29.4 44.4 28.55 45.05 26.9 45.9 L24.75 47.6 Q23.7 48.65 22.4 49.1 L22.4 48.9 Q23.45 48.0 25.15 44.4 L24.95 44.4 Q21.95 45.9 20.5 48.45 18.85 50.25 18.75 53.05 L18.75 51.0 19.0 49.1 19.65 47.4 Q20.05 46.1 20.5 45.5 22.2 43.35 23.05 42.7 24.35 41.65 26.0 41.65 L28.15 42.5 30.9 43.35" fill="#6626a1" fill-rule="evenodd" stroke="none"/>
    <path d="M58.1 41.2 Q60.2 41.85 61.5 44.6 63.0 47.4 63.0 50.15 L63.0 51.65 Q62.75 52.7 62.35 52.9 62.6 50.55 59.4 46.75 L59.2 46.75 60.2 50.55 Q58.95 49.7 57.25 47.4 56.2 46.55 56.2 45.7 55.35 44.4 55.35 43.15 L55.55 42.7 57.25 41.65 58.1 41.2" fill="#4b177b" fill-rule="evenodd" stroke="none"/>
    <path d="M57.45 60.55 L56.2 60.55 Q56.2 61.0 54.7 61.4 L52.8 61.6 49.8 62.05 51.95 61.2 Q55.15 59.7 56.0 59.7 57.45 59.7 57.45 60.55 M38.55 62.45 L38.15 62.45 36.65 62.45 34.1 62.25 35.6 61.2 Q37.05 60.15 38.15 60.15 L39.0 60.15 39.8 60.8 39.8 61.6 Q39.6 61.6 38.55 62.05 L38.55 62.45" fill="#6a319f" fill-rule="evenodd" stroke="none"/>
    <path d="M24.1 59.5 Q24.95 56.5 27.3 54.4 L27.3 54.6 26.45 56.5 Q25.6 58.4 25.15 58.65 L25.15 59.05 25.35 59.05 25.15 59.5 24.75 59.5 24.1 59.5" fill="#532280" fill-rule="evenodd" stroke="none"/>
    <path d="M19.0 55.45 Q20.9 51.45 23.25 50.15 L22.4 51.85 21.75 53.95 Q21.55 54.6 21.75 56.5 21.55 57.6 20.9 58.05 L20.7 57.8 Q20.05 57.6 20.3 56.95 L20.05 56.1 19.4 55.45 19.0 55.45" fill="#8e4fc9" fill-rule="evenodd" stroke="none"/>
    <path d="M64.25 58.05 L63.65 58.4 63.0 58.65 63.0 58.4 62.75 57.8 61.95 57.6 62.6 57.4 63.85 57.6 64.25 58.05 M29.0 61.4 L26.45 60.55 25.35 60.35 24.1 59.7 21.75 58.65 20.7 58.25 18.4 56.95 17.75 56.5 18.75 56.75 Q19.2 56.75 19.2 56.5 L19.0 55.45 19.4 55.45 20.05 56.1 20.3 56.95 Q20.05 57.6 20.7 57.8 L20.9 58.05 21.55 58.4 Q23.05 59.3 24.1 59.5 L24.75 59.5 25.15 59.5 25.35 59.05 25.35 58.85 26.25 58.85 Q27.1 60.35 29.0 61.4" fill="#521f80" fill-rule="evenodd" stroke="none"/>
    <path d="M47.7 62.25 L45.35 62.45 43.0 62.45 40.25 62.45 40.05 62.45 40.25 62.25 41.75 61.6 Q44.1 60.35 46.2 60.35 L47.7 60.55 47.9 60.8 47.7 61.4 47.5 61.85 47.7 62.25" fill="#59258a" fill-rule="evenodd" stroke="none"/>
    <path d="M40.25 62.25 Q40.05 58.85 41.35 56.3 L42.15 55.05 42.35 53.55 Q42.35 52.5 42.6 51.85 42.8 50.8 43.25 50.8 43.65 50.8 43.85 51.65 L43.85 52.5 44.1 52.9 Q44.1 54.6 45.35 56.5 L47.7 60.55 46.2 60.35 Q44.1 60.35 41.75 61.6 L40.25 62.25" fill="#8f4ecb" fill-rule="evenodd" stroke="none"/>
    <path d="M69.8 53.55 L68.55 54.85 M14.55 54.2 L13.9 53.55 13.9 53.5 M13.7 52.9 L13.9 53.5" fill="none" stroke="#4c0e62" stroke-linecap="round" stroke-linejoin="round" stroke-width="0.2"/>
    <path d="M50.7 26.35 Q49.2 26.15 49.4 25.95 48.95 21.9 49.6 18.5 50.25 15.3 52.15 13.15 52.6 13.15 52.8 13.6 49.8 19.75 50.7 26.35 M57.7 17.2 L58.55 18.05 Q56.4 20.8 56.0 26.55 L54.9 26.55 Q55.35 21.9 57.7 17.2 M28.8 25.05 L27.5 25.3 Q27.7 25.05 27.5 24.0 L26.45 21.25 Q25.6 19.1 24.35 17.85 L24.95 17.2 Q27.9 20.2 28.8 25.05 M30.05 13.6 L30.45 13.4 30.9 13.15 Q32.4 14.45 33.45 18.25 34.5 22.3 34.1 25.3 L34.1 25.7 Q33.65 25.3 33.25 25.3 L33.05 25.3 Q33.25 19.1 30.05 13.6" fill="#e3c6ff" fill-rule="evenodd" stroke="none"/>
    <path d="M52.8 13.6 L56.2 16.15 56.4 16.15 57.7 17.2 Q55.35 21.9 54.9 26.55 L50.9 26.35 50.7 26.35 Q49.8 19.75 52.8 13.6 M24.95 17.2 Q25.8 16.8 26.45 16.15 L27.9 15.05 30.05 13.6 Q33.25 19.1 33.05 25.3 32.2 24.65 31.75 24.65 L29.65 24.85 28.8 25.05 Q27.9 20.2 24.95 17.2" fill="#8d2e98" fill-rule="evenodd" stroke="none"/>
    <path d="M41.75 43.15 L40.05 47.4 Q39.0 50.8 38.8 52.5 38.15 56.3 37.5 57.4 36.4 59.3 33.45 58.65 26.9 57.6 20.3 53.75 13.25 49.55 13.05 44.6 L13.05 43.6 Q13.45 41.4 17.5 37.85 21.35 34.2 22.4 34.45 L23.9 34.85 Q26.25 35.7 32.4 38.9 38.8 42.05 41.35 42.95 L41.55 42.95 41.75 43.15" fill="#bf88f3" fill-opacity="0.4" fill-rule="evenodd" stroke="none"/>
    <path d="M43.45 44.4 L42.6 40.15 42.8 39.95 50.9 39.3 Q56.2 39.3 57.25 38.25 58.55 37.2 59.4 36.75 60.0 36.35 64.05 39.3 68.35 42.3 68.1 43.6 68.1 45.05 67.9 45.5 67.25 49.9 60.45 52.9 54.25 55.65 48.1 55.65 45.35 55.65 44.75 53.75 44.1 52.7 44.1 49.3 44.1 47.6 43.45 44.4" fill="#d9b5fa" fill-opacity="0.4" fill-rule="evenodd" stroke="none"/>
    <path d="M68.35 42.7 Q71.5 46.55 71.5 48.45 L71.5 49.3 Q70.65 53.55 63.85 56.3 57.7 58.85 51.3 58.85 48.95 58.85 48.1 57.15 47.7 56.1 47.7 52.7 L46.85 48.25 46.0 44.2 46.2 43.95 54.7 41.65 Q60.65 39.75 63.0 39.3 L64.25 39.1 Q65.35 39.1 68.35 42.7" fill="#a567de" fill-opacity="0.4" fill-rule="evenodd" stroke="none"/>
    <path d="M55.55 43.35 L57.25 42.5 58.1 41.85 Q60.2 42.5 61.5 45.5 63.0 48.0 63.0 50.8 L63.0 52.5 Q62.75 53.55 62.35 53.55 62.6 51.2 59.4 47.4 L59.2 47.4 60.2 51.45 Q58.95 50.55 57.25 48.25 56.2 46.95 56.2 46.55 55.35 45.05 55.35 43.8 L55.55 43.35" fill="#6a319f" fill-rule="evenodd" stroke="none"/>
    <path d="M40.9 46.1 L39.0 49.55 39.4 45.9 Q36.0 49.55 36.65 56.75 36.0 55.45 36.0 52.5 36.0 46.55 37.7 44.4 38.8 44.2 39.8 43.6 40.9 43.35 41.35 42.95 L40.9 46.1 M24.95 45.25 Q21.95 46.55 20.5 49.1 18.85 51.35 18.75 53.85 L18.75 51.45 19.0 49.7 19.65 48.0 Q20.05 46.55 20.5 46.35 L23.05 43.35 Q24.35 42.5 26.0 42.3 L28.15 43.35 30.9 44.2 29.4 45.25 26.9 46.55 Q26.0 46.95 24.75 48.45 23.7 49.3 22.4 49.7 L22.4 49.55 Q23.45 48.45 25.15 45.25 L24.95 45.25" fill="#6626a1" fill-rule="evenodd" stroke="none"/>
    <path d="M42.15 44.4 Q41.35 47.6 41.35 49.3 41.35 52.7 40.9 53.75 40.05 55.65 37.5 55.65 31.3 55.65 24.95 52.9 18.4 49.9 17.75 45.5 17.5 45.05 17.5 44.4 17.5 42.5 20.9 38.45 23.9 34.85 24.95 34.85 L26.0 34.85 Q28.35 35.25 34.1 37.4 L42.8 39.95 43.0 40.15 42.15 44.4" fill="#e3c4ff" fill-opacity="0.4" fill-rule="evenodd" stroke="none"/>
    <path d="M55.8 22.3 L56.2 22.3 58.95 23.55 58.55 26.15 Q57.9 25.3 57.25 25.3 L57.05 24.0 Q56.4 22.75 55.8 22.3 M44.5 44.4 Q43.25 43.6 42.15 42.3 40.45 43.95 39.2 44.4 L39.2 43.35 40.05 41.0 40.7 40.4 40.7 33.35 Q40.7 31.25 39.6 29.5 L39.4 28.25 39.0 25.7 Q40.25 27.2 41.1 28.7 42.35 30.8 43.0 30.4 L44.95 27.2 45.15 26.8 45.15 29.3 45.15 29.95 Q44.1 31.45 44.1 33.35 L44.1 40.4 44.3 40.8 44.3 41.0 Q44.5 41.4 44.5 43.6 L44.5 44.4 M23.9 26.95 L24.1 24.0 26.45 22.55 26.65 22.55 26.0 24.0 25.8 25.3 Q24.75 25.95 23.9 26.95" fill="#b789e2" fill-rule="evenodd" stroke="none"/>
    <path d="M26.65 22.55 Q28.55 21.45 30.05 21.45 34.75 21.45 37.5 24.2 L39.0 25.7 39.4 28.25 39.6 29.5 Q39.2 29.3 39.2 28.9 38.15 27.6 35.35 25.5 30.7 21.65 26.0 25.05 L26.0 25.3 25.8 25.3 26.0 24.0 26.65 22.55 M45.15 26.8 L45.15 26.75 Q46.65 24.2 48.3 23.15 50.25 22.3 52.35 21.9 53.65 21.65 55.35 22.3 L55.8 22.3 Q56.4 22.75 57.05 24.0 L57.25 25.3 Q52.8 23.55 49.6 25.3 46.65 27.2 45.15 29.95 L45.15 29.3 45.15 26.8" fill="#e0c5fa" fill-rule="evenodd" stroke="none"/>
    <path d="M58.55 26.15 L60.45 36.35 56.4 39.3 55.55 39.95 Q56.2 39.3 56.2 38.65 L56.4 38.0 56.2 35.7 Q55.8 34.65 53.45 34.2 L55.15 33.8 56.2 33.35 Q57.25 32.3 57.7 30.6 57.9 29.5 57.45 27.2 L57.25 25.3 Q57.9 25.3 58.55 26.15 M22.6 35.9 Q23.9 33.15 23.9 26.95 24.75 25.95 25.8 25.3 L26.0 25.3 25.8 26.35 25.8 26.55 25.35 27.85 25.35 28.25 Q25.35 30.8 26.9 32.3 27.9 33.55 30.3 34.45 L29.85 34.45 Q27.5 35.9 27.5 37.85 L27.7 38.65 27.7 39.1 27.5 39.1 Q24.95 37.85 22.85 35.7 L22.6 35.9" fill="#6f1579" fill-rule="evenodd" stroke="none"/>
    <path d="M57.25 25.3 L57.45 27.2 Q57.9 29.5 57.7 30.6 57.25 32.3 56.2 33.35 L55.15 33.8 53.45 34.2 Q55.8 34.65 56.2 35.7 L56.4 38.0 56.2 38.65 Q56.2 39.3 55.55 39.95 48.3 44.4 44.3 41.0 L44.3 40.8 44.1 40.4 44.1 33.35 Q44.1 31.45 45.15 29.95 46.65 27.2 49.6 25.3 52.8 23.55 57.25 25.3 M39.6 29.5 Q40.7 31.25 40.7 33.35 L40.7 40.4 40.05 41.0 32.2 41.2 Q30.05 40.4 27.7 39.1 L27.7 38.65 27.5 37.85 Q27.5 35.9 29.85 34.45 L30.3 34.45 Q27.9 33.55 26.9 32.3 25.35 30.8 25.35 28.25 L25.35 27.85 25.8 26.55 25.8 26.35 26.0 25.3 26.0 25.05 Q30.7 21.65 35.35 25.5 38.15 27.6 39.2 28.9 39.2 29.3 39.6 29.5" fill="#7c1c87" fill-rule="evenodd" stroke="none"/>
    <path d="M56.0 43.15 Q55.15 43.35 54.05 43.95 51.1 45.5 47.5 45.25 L44.5 44.4 44.5 43.6 Q44.5 41.4 44.3 41.0 48.3 44.4 55.55 39.95 L56.4 39.3 56.0 43.15 M39.2 44.4 L39.0 44.4 34.95 44.85 30.05 43.8 Q29.4 43.35 29.0 43.35 L27.9 42.95 Q26.9 40.6 27.5 39.1 L27.7 39.1 Q30.05 40.4 32.2 41.2 L40.05 41.0 39.2 43.35 39.2 44.4" fill="#e2c7fc" fill-rule="evenodd" stroke="none"/>
    <path d="M60.45 36.35 L61.3 38.45 61.5 39.3 Q60.65 40.4 56.0 43.15 L56.4 39.3 60.45 36.35" fill="#d0aef0" fill-rule="evenodd" stroke="none"/>
    <path d="M27.9 42.95 Q24.35 41.2 21.75 38.9 L21.95 37.2 22.6 36.1 22.6 35.9 22.85 35.7 Q24.95 37.85 27.5 39.1 26.9 40.6 27.9 42.95" fill="#cba6ee" fill-rule="evenodd" stroke="none"/>
    <path d="M39.05 33.95 Q38.6 34.4 37.95 34.4 37.25 34.4 36.8 33.95 36.35 33.5 36.35 32.8 36.35 32.15 36.8 31.7 37.25 31.25 37.95 31.25 38.6 31.25 39.05 31.7 39.5 32.15 39.5 32.8 L39.05 33.95" fill="#4c0e62" fill-rule="evenodd" stroke="none"/>
    <path d="M39.05 38.6 Q38.6 39.05 37.95 39.05 37.25 39.05 36.8 38.6 36.35 38.15 36.35 37.45 36.35 36.8 36.8 36.35 37.25 35.9 37.95 35.9 38.6 35.9 39.05 36.35 39.5 36.8 39.5 37.45 L39.05 38.6" fill="#4c0e62" fill-rule="evenodd" stroke="none"/>
    <path d="M47.35 33.95 Q46.9 34.4 46.25 34.4 45.55 34.4 45.1 33.95 44.65 33.5 44.65 32.8 44.65 32.15 45.1 31.7 45.55 31.25 46.25 31.25 46.9 31.25 47.35 31.7 47.8 32.15 47.8 32.8 L47.35 33.95" fill="#4c0e62" fill-rule="evenodd" stroke="none"/>
    <path d="M47.35 38.6 Q46.9 39.05 46.25 39.05 45.55 39.05 45.1 38.6 44.65 38.15 44.65 37.45 44.65 36.8 45.1 36.35 45.55 35.9 46.25 35.9 46.9 35.9 47.35 36.35 47.8 36.8 47.8 37.45 L47.35 38.6" fill="#4c0e62" fill-rule="evenodd" stroke="none"/>
    <path d="M42.15 37.0 L37.9 39.75 37.9 38.65 41.55 36.35 37.9 34.0 37.9 32.95 42.15 35.45 46.85 33.15 46.85 34.45 43.25 36.35 46.85 38.45 46.4 39.5 42.15 37.0 41.55 36.35 42.15 37.0 M42.15 35.45 L43.25 36.35 42.15 35.45" fill="#4c0e62" fill-rule="evenodd" stroke="none"/>
    <path d="M42.15 37.0 L37.9 39.75 37.9 38.65 41.55 36.35 37.9 34.0 37.9 32.95 42.15 35.45 46.85 33.15 46.85 34.45 43.25 36.35 46.85 38.45 46.4 39.5 42.15 37.0 41.55 36.35 M43.25 36.35 L42.15 35.45" fill="none" stroke="#4c0e62" stroke-linecap="round" stroke-linejoin="round" stroke-width="0.2"/>
  </g>
</svg>
