<?xml version="1.0" encoding="UTF-8" standalone="no"?>
<svg xmlns:xlink="http://www.w3.org/1999/xlink" height="71.55px" width="71.05px" xmlns="http://www.w3.org/2000/svg">
  <g transform="matrix(1.0, 0.0, 0.0, 1.0, -5.95, -2.35)">
    <path d="M61.65 3.35 Q76.0 3.35 76.0 17.7 L76.0 58.55 Q76.0 72.9 61.65 72.9 L21.3 72.9 Q6.95 72.9 6.95 58.55 L6.95 17.7 Q6.95 3.35 21.3 3.35 L61.65 3.35" fill="#cff3e8" fill-rule="evenodd" stroke="none"/>
    <path d="M61.65 3.35 L21.3 3.35 Q6.95 3.35 6.95 17.7 L6.95 58.55 Q6.95 72.9 21.3 72.9 L61.65 72.9 Q76.0 72.9 76.0 58.55 L76.0 17.7 Q76.0 3.35 61.65 3.35 Z" fill="none" stroke="#999999" stroke-linecap="round" stroke-linejoin="round" stroke-opacity="0.9019608" stroke-width="2.0"/>
  </g>
</svg>
