<?xml version="1.0" encoding="UTF-8" standalone="no"?>
<svg xmlns:xlink="http://www.w3.org/1999/xlink" height="69.55px" width="69.05px" xmlns="http://www.w3.org/2000/svg">
  <g transform="matrix(1.0, 0.0, 0.0, 1.0, 1.4, -3.3)">
    <path d="M53.3 3.3 Q67.65 3.3 67.65 17.65 L67.65 58.5 Q67.65 72.85 53.3 72.85 L12.95 72.85 Q-1.4 72.85 -1.4 58.5 L-1.4 17.65 Q-1.4 3.3 12.95 3.3 L53.3 3.3" fill="#cff3e8" fill-rule="evenodd" stroke="none"/>
    <path d="M48.85 16.1 L48.85 16.3 49.7 17.15 49.9 17.15 50.55 17.75 54.15 20.5 53.25 22.2 52.4 23.05 52.2 23.45 51.2 25.15 51.4 28.1 Q51.55 29.95 51.8 30.85 51.8 31.7 52.2 33.15 L52.2 33.75 52.65 34.85 Q53.7 38.2 54.15 41.15 L56.2 51.45 Q56.85 54.0 56.85 56.1 56.45 57.95 55.8 58.2 L54.75 58.6 53.25 59.25 48.6 60.1 Q48.85 60.5 46.95 60.9 L46.3 60.9 45.3 61.15 37.25 62.0 35.35 62.0 32.2 62.0 30.55 62.0 28.85 62.0 19.8 60.5 18.75 60.1 18.1 60.1 17.7 59.9 15.6 59.05 13.9 58.2 12.85 57.8 12.0 57.35 10.7 56.95 Q10.35 56.7 10.35 55.25 10.35 53.75 11.55 48.75 L13.3 42.2 13.9 39.45 13.9 39.25 14.1 39.25 14.75 37.15 14.75 36.7 15.15 35.85 14.75 35.85 15.15 35.65 15.35 34.4 15.6 34.2 15.6 34.0 15.8 32.05 15.8 31.9 15.35 30.85 Q15.15 30.2 15.6 29.55 L15.8 29.55 16.0 29.35 16.2 27.65 Q16.2 26.4 16.45 25.15 L15.35 23.45 Q14.3 22.2 13.65 20.5 L16.0 18.2 16.45 17.95 16.85 17.75 16.85 17.55 18.55 16.1 18.75 16.3 18.75 16.1 19.8 15.25 20.0 15.0 22.5 13.35 Q27.8 10.2 34.75 10.4 41.05 10.6 44.2 13.15 L48.6 16.1 48.85 16.1" fill="#733ca6" fill-rule="evenodd" stroke="none"/>
    <path d="M48.85 16.1 L48.85 16.3 49.7 17.15 49.9 17.15 50.55 17.75 54.15 20.5 53.25 22.2 52.4 23.05 52.2 23.45 51.2 25.15 51.4 28.1 Q51.55 29.95 51.8 30.85 51.8 31.7 52.2 33.15 L52.2 33.75 52.65 34.85 Q53.7 38.2 54.15 41.15 L56.2 51.45 Q56.85 54.0 56.85 56.1 56.45 57.95 55.8 58.2 L54.75 58.6 53.25 59.25 48.6 60.1 Q48.85 60.5 46.95 60.9 L46.3 60.9 45.3 61.15 37.25 62.0 35.35 62.0 32.2 62.0 30.55 62.0 28.85 62.0 19.8 60.5 18.75 60.1 18.1 60.1 17.7 59.9 15.6 59.05 13.9 58.2 12.85 57.8 12.0 57.35 10.7 56.95 Q10.35 56.7 10.35 55.25 10.35 53.75 11.55 48.75 L13.3 42.2 13.9 39.45 13.9 39.25 14.1 39.25 14.75 37.15 14.75 36.7 15.15 35.85 14.75 35.85 15.15 35.65 15.35 34.4 15.6 34.2 15.6 34.0 15.8 32.05 15.8 31.9 15.35 30.85 Q15.15 30.2 15.6 29.55 L15.8 29.55 16.0 29.35 16.2 27.65 Q16.2 26.4 16.45 25.15 L15.35 23.45 Q14.3 22.2 13.65 20.5 L16.0 18.2 16.45 17.95 16.85 17.75 16.85 17.55 18.55 16.1 18.75 16.3 18.75 16.1 19.8 15.25 20.0 15.0 22.5 13.35 Q27.8 10.2 34.75 10.4 41.05 10.6 44.2 13.15 L48.6 16.1 48.85 16.1 Z" fill="none" stroke="#4c0e62" stroke-linecap="round" stroke-linejoin="round" stroke-width="0.8"/>
    <path d="M49.7 17.15 L50.55 17.75 54.15 20.5 53.25 22.2 52.4 23.05 52.2 23.45 51.2 25.15 51.4 28.1 Q51.55 29.95 51.8 30.85 L52.0 33.15 Q52.4 36.1 52.4 38.8 L52.4 39.25 Q52.85 45.8 52.4 50.4 52.2 54.85 51.55 57.8 L46.75 58.8 46.1 59.05 46.75 57.55 Q48.25 52.9 48.25 49.95 L48.25 49.15 48.0 47.0 47.8 45.15 47.6 43.25 47.4 42.2 Q46.75 39.25 46.3 39.05 45.9 39.05 47.8 37.15 49.9 35.45 50.1 32.7 50.75 29.95 49.9 28.1 48.85 26.4 48.85 25.8 48.85 24.95 49.7 23.65 L49.7 23.45 Q50.1 22.2 50.1 20.3 L49.9 17.95 49.7 17.15 M15.15 35.85 L14.75 35.85 15.15 35.65 15.35 34.4 15.6 34.2 15.6 34.0 15.8 32.05 15.8 31.05 15.8 30.4 16.0 29.95 16.2 27.65 Q16.2 26.4 16.45 25.15 L15.35 23.45 Q14.3 22.2 13.65 20.5 L16.0 18.2 16.45 17.95 16.2 19.9 Q16.2 21.75 17.05 23.45 L17.25 23.85 18.1 26.15 17.7 28.75 Q17.05 30.85 17.05 31.45 17.05 34.4 19.4 36.1 21.9 37.75 21.7 39.45 21.7 41.15 20.65 45.15 19.15 50.6 19.4 54.0 19.4 57.35 19.55 58.6 L17.7 58.2 Q16.0 53.75 15.8 47.25 L15.6 43.85 Q15.35 40.9 15.6 37.75 L15.6 36.7 15.6 36.3 15.15 35.85 M17.9 16.95 Q18.3 16.3 18.75 16.1 L19.8 15.25 20.0 15.0 Q21.05 14.2 22.3 13.55 26.1 20.1 32.65 20.5 40.85 21.35 45.9 14.2 L48.6 16.1 48.85 16.1 48.85 16.3 Q46.5 18.2 42.95 19.9 36.45 23.05 32.4 23.05 29.05 23.05 24.2 20.5 L17.9 16.95" fill="#8e41d7" fill-rule="evenodd" stroke="none"/>
    <path d="M16.45 17.95 L16.85 17.75 Q17.25 17.15 17.9 16.95 L24.2 20.5 Q29.05 23.05 32.4 23.05 36.45 23.05 42.95 19.9 46.5 18.2 48.85 16.3 L49.7 17.15 49.9 17.95 50.1 20.3 Q50.1 22.2 49.7 23.45 L49.7 23.65 Q48.85 24.95 48.85 25.8 48.85 26.4 49.9 28.1 50.75 29.95 50.1 32.7 49.9 35.45 47.8 37.15 45.9 39.05 46.3 39.05 46.75 39.25 47.4 42.2 L47.6 43.25 47.8 45.15 48.0 47.0 48.25 49.15 48.25 49.95 Q48.25 52.9 46.75 57.55 L46.1 59.05 Q32.2 61.35 19.55 58.6 19.4 57.35 19.4 54.0 19.15 50.6 20.65 45.15 21.7 41.15 21.7 39.45 21.9 37.75 19.4 36.1 17.05 34.4 17.05 31.45 17.05 30.85 17.7 28.75 L18.1 26.15 17.25 23.85 17.05 23.45 Q16.2 21.75 16.2 19.9 L16.45 17.95" fill="#9a4de2" fill-rule="evenodd" stroke="none"/>
    <path d="M22.3 13.55 L22.5 13.35 Q27.8 10.2 34.75 10.4 41.05 10.6 44.2 13.15 45.05 13.55 45.9 14.2 40.85 21.35 32.65 20.5 26.1 20.1 22.3 13.55" fill="#681bb1" fill-rule="evenodd" stroke="none"/>
    <path d="M52.0 33.15 L52.65 34.85 Q53.7 38.2 54.15 41.15 L56.2 51.45 Q56.85 54.0 56.85 56.1 55.35 48.95 54.15 47.0 54.5 54.2 53.25 59.25 L48.6 60.1 Q48.85 60.5 46.95 60.9 L46.3 60.9 45.3 61.15 37.25 62.0 35.35 62.0 32.2 62.0 30.55 62.0 28.85 62.0 19.8 60.5 18.75 60.1 18.1 60.1 17.7 59.9 15.6 59.05 Q14.75 57.55 13.9 46.4 12.2 51.9 12.0 57.35 L10.7 56.95 Q10.35 56.7 10.35 55.25 10.35 53.75 11.35 48.75 L13.5 44.1 13.9 39.45 13.9 39.25 14.1 39.25 14.75 37.15 14.75 36.7 15.15 35.85 15.6 36.3 15.6 36.7 15.6 37.75 Q15.35 40.9 15.6 43.85 L15.8 47.25 Q16.0 53.75 17.7 58.2 L19.55 58.6 Q32.2 61.35 46.1 59.05 L46.75 58.8 51.55 57.8 Q52.2 54.85 52.4 50.4 52.85 45.8 52.4 39.25 L52.4 38.8 Q52.4 36.1 52.0 33.15" fill="#e6b4ff" fill-rule="evenodd" stroke="none"/>
    <path d="M11.35 48.75 L13.3 42.2 13.9 39.45 13.5 44.1 11.35 48.75" fill="#9364bf" fill-rule="evenodd" stroke="none"/>
    <path d="M56.85 56.1 Q56.45 57.95 55.8 58.2 L54.75 58.6 53.25 59.25 Q54.5 54.2 54.15 47.0 55.35 48.95 56.85 56.1 M15.6 59.05 L13.9 58.2 12.85 57.8 12.0 57.35 Q12.2 51.9 13.9 46.4 14.75 57.55 15.6 59.05" fill="#532280" fill-rule="evenodd" stroke="none"/>
    <path d="M31.35 22.2 L32.2 22.2 Q42.1 21.15 47.8 15.65 L49.9 17.15 44.85 21.15 Q42.55 22.4 39.8 23.05 L33.25 24.3 Q30.1 24.5 28.2 25.8 25.9 27.05 24.45 29.55 L22.3 33.35 Q19.15 37.15 16.2 37.95 16.0 37.95 14.95 38.4 L15.15 37.15 15.35 36.95 15.35 36.7 15.6 35.9 15.6 36.1 Q15.8 35.65 18.3 34.4 20.85 33.15 22.7 27.9 24.85 24.5 27.6 23.05 29.25 22.2 31.35 22.2" fill="#e4b2fc" fill-rule="evenodd" stroke="none"/>
    <path d="M27.6 23.05 Q20.85 21.15 16.85 17.55 L18.55 16.1 Q22.95 20.1 31.35 22.2 29.25 22.2 27.6 23.05" fill="#d29eec" fill-rule="evenodd" stroke="none"/>
    <path d="M32.35 29.8 L32.35 29.85 Q32.1 30.4 31.45 30.5 L29.95 30.4 20.85 26.8 19.55 25.85 Q19.2 25.3 19.45 24.7 19.6 24.15 20.3 23.95 L21.85 24.1 30.95 27.7 32.15 28.6 Q32.6 29.25 32.35 29.8" fill="#4c0e62" fill-rule="evenodd" stroke="none"/>
    <path d="M30.6 29.9 L29.35 29.75 21.4 26.6 20.25 25.85 Q19.95 25.5 20.05 25.15 L20.85 24.6 22.15 24.9 30.1 28.1 31.2 28.7 31.45 29.55 Q31.25 29.9 30.6 29.9" fill="#662d83" fill-rule="evenodd" stroke="none"/>
    <path d="M25.45 24.5 Q26.55 24.7 27.15 25.35 27.8 26.15 27.8 27.25 27.6 28.3 26.75 29.1 25.9 29.75 24.85 29.55 23.8 29.55 23.15 28.75 22.5 27.9 22.5 26.8 22.7 25.8 23.6 25.15 24.45 24.3 25.45 24.5" fill="#65018a" fill-rule="evenodd" stroke="none"/>
    <path d="M26.3 26.15 L26.75 27.25 Q26.75 27.9 26.1 28.3 25.65 28.95 24.85 28.75 24.2 28.75 23.8 28.1 23.35 27.65 23.6 27.05 23.6 26.15 24.0 26.0 24.65 25.35 25.25 25.35 L26.3 26.15" fill="#921dbd" fill-rule="evenodd" stroke="none"/>
    <path d="M25.2 38.85 L25.15 38.9 Q24.75 39.3 24.05 39.15 23.3 39.1 22.7 38.5 L15.65 31.8 Q15.0 31.15 14.8 30.35 14.7 29.75 15.05 29.3 L15.1 29.25 Q15.55 28.8 16.2 28.85 17.0 29.05 17.6 29.65 L24.65 36.4 Q25.3 37.0 25.45 37.65 25.55 38.45 25.2 38.85" fill="#4c0e62" fill-rule="evenodd" stroke="none"/>
    <path d="M23.4 38.9 Q22.85 38.8 22.3 38.35 L16.15 32.4 Q15.6 31.9 15.4 31.3 15.25 30.8 15.45 30.5 L16.4 30.4 17.5 31.15 23.65 37.05 24.4 38.1 Q24.55 38.6 24.3 38.9 24.0 39.2 23.4 38.9" fill="#662d83" fill-rule="evenodd" stroke="none"/>
    <path d="M22.7 35.25 L21.05 36.5 Q20.0 36.95 18.95 36.1 18.1 35.65 17.9 34.65 17.7 33.55 18.1 32.7 18.55 31.9 19.55 31.45 20.65 31.05 21.5 31.7 22.5 32.05 22.7 33.15 22.95 34.2 22.7 35.25" fill="#65018a" fill-rule="evenodd" stroke="none"/>
    <path d="M21.9 34.85 L20.85 35.65 Q20.0 35.65 19.55 35.25 18.75 35.0 18.75 34.4 18.55 33.75 18.75 33.15 19.15 32.7 19.8 32.3 20.65 32.05 21.05 32.5 21.7 32.9 21.9 33.55 L21.9 34.85" fill="#921dbd" fill-rule="evenodd" stroke="none"/>
    <path d="M47.15 40.9 L47.4 41.15 Q48.85 41.15 49.25 39.9 49.45 39.65 49.45 37.15 49.45 36.1 50.1 35.0 L50.95 34.2 51.2 34.2 51.2 34.4 Q50.75 35.25 50.75 36.5 L50.1 39.9 Q49.7 42.2 48.0 43.45 L47.8 43.85 47.4 42.0 47.15 40.9" fill="#9b55de" fill-rule="evenodd" stroke="none"/>
    <path d="M47.15 40.9 L47.4 42.0 47.8 43.85 46.75 44.1 47.8 45.15 47.8 45.55 48.0 47.9 47.8 48.1 Q47.15 48.75 46.75 48.75 45.65 48.75 44.85 47.45 44.2 46.2 44.0 46.2 43.35 46.2 42.7 46.8 41.9 47.25 41.9 47.9 41.9 48.75 43.35 49.55 44.65 50.4 44.65 51.9 L44.2 52.5 43.6 52.9 Q41.9 52.9 41.05 50.2 40.2 47.0 39.8 47.0 38.75 47.0 38.95 48.5 L39.15 50.2 Q39.15 51.45 38.75 52.1 L37.7 53.55 38.95 54.2 41.05 54.85 Q42.35 54.85 42.95 54.2 L43.8 54.2 43.8 55.0 Q43.8 56.1 43.35 56.1 L42.35 56.1 40.0 55.65 37.9 55.25 35.8 56.7 Q35.6 56.7 35.35 56.95 L36.65 57.35 39.8 56.95 40.0 57.15 38.95 57.35 39.6 57.55 40.85 58.2 40.65 58.4 Q39.4 58.2 38.55 57.55 L37.05 57.95 Q36.0 57.95 35.6 57.55 35.15 57.15 34.75 57.15 33.05 57.95 30.35 57.95 28.85 57.95 27.4 57.35 L26.6 57.15 Q28.85 57.15 31.8 56.1 35.6 54.65 35.6 52.5 35.6 51.9 34.75 51.25 33.7 51.05 33.7 49.75 L33.9 49.15 34.5 48.95 Q35.15 48.95 35.8 49.35 L37.05 50.6 37.25 49.15 Q37.25 48.1 35.15 46.2 L34.3 45.35 Q33.05 44.1 33.05 43.25 33.05 42.85 33.9 42.2 34.3 42.0 35.15 42.2 36.0 42.2 36.45 43.85 36.85 45.15 37.9 45.35 L38.55 45.35 39.15 45.35 39.8 44.95 39.8 42.6 40.85 42.2 41.7 42.4 42.7 42.2 43.15 40.5 43.6 40.5 43.8 41.15 43.6 42.0 42.7 42.85 41.9 43.05 41.9 44.5 43.6 44.5 44.85 43.25 45.05 41.55 Q45.05 40.5 44.85 40.1 44.2 39.25 42.95 38.8 42.7 38.2 43.15 37.75 L43.8 37.35 Q45.05 37.35 45.9 39.25 46.75 40.7 47.15 40.9 M44.85 34.2 L44.85 34.65 Q44.2 34.65 44.2 34.2 L44.85 34.2 M46.95 36.5 L47.4 36.5 47.15 36.7 46.95 36.5 M42.55 38.2 L42.1 38.2 Q41.9 38.2 41.9 37.75 42.1 37.6 42.55 37.75 L42.55 38.2 M31.55 46.8 Q32.65 46.8 32.65 47.45 L32.2 48.1 31.55 48.3 Q30.55 48.3 30.55 47.65 30.55 46.8 31.55 46.8 M33.9 53.15 Q33.5 53.55 32.85 53.55 L32.2 53.15 32.2 52.5 Q32.2 51.7 33.05 51.7 34.1 51.45 34.1 52.5 L33.9 53.15 M29.45 55.0 L29.9 54.85 30.1 55.0 29.9 55.45 29.7 55.45 29.45 55.0 M24.85 54.4 Q25.9 54.65 25.9 55.0 25.9 56.1 24.85 56.1 L24.0 56.1 24.0 55.25 Q24.0 54.4 24.85 54.4 M46.3 52.1 L46.1 52.3 45.9 52.1 46.3 52.1 M45.9 54.85 L45.05 55.0 45.05 54.4 Q45.3 54.2 45.9 54.4 L45.9 54.85" fill="#b275ec" fill-rule="evenodd" stroke="none"/>
    <path d="M48.0 33.15 L48.0 32.9 48.0 32.5 48.25 32.5 48.45 33.15 48.0 33.15" fill="#be8fec" fill-rule="evenodd" stroke="none"/>
    <path d="M40.1 48.3 L40.3 50.65 39.85 52.55 38.9 54.95 37.65 54.95 37.4 54.85 37.2 54.45 Q37.2 54.05 38.1 53.15 38.95 52.25 38.95 51.6 L38.7 50.65 38.45 49.45 Q38.45 48.65 38.85 48.1 39.3 47.3 40.1 48.3" fill="#a261de" fill-rule="evenodd" stroke="none"/>
    <path d="M39.05 56.4 L35.25 57.95 34.25 57.85 34.2 57.5 Q34.2 56.6 36.05 56.2 L38.75 56.05 39.05 56.4" fill="#a261de" fill-rule="evenodd" stroke="none"/>
    <path d="M45.8 48.9 L45.35 49.0 Q45.2 49.0 44.4 48.4 L43.25 47.75 Q42.45 47.75 42.25 48.3 L42.05 49.1 Q41.45 48.65 41.45 48.1 41.45 46.65 42.85 46.65 44.3 46.7 45.75 48.75 L45.8 48.9" fill="#a261de" fill-rule="evenodd" stroke="none"/>
    <path d="M43.05 33.75 L43.05 33.5 45.0 33.2 45.95 33.0 46.45 32.75 45.65 33.5 44.75 33.5 43.05 33.75" fill="#be8fec" fill-rule="evenodd" stroke="none"/>
    <path d="M48.0 46.2 L48.0 47.9 47.8 48.1 Q47.15 48.75 46.75 48.75 L45.65 48.3 Q46.95 47.0 48.0 46.2 M43.6 49.75 L44.45 50.6 41.7 51.25 41.5 51.05 43.6 49.75" fill="#a261de" fill-rule="evenodd" stroke="none"/>
    <path d="M45.65 48.3 L46.75 48.75 Q47.15 48.75 47.8 48.1 L48.0 47.9 48.0 46.2 50.1 43.65 Q51.8 40.3 52.2 37.75 L52.2 33.75 52.85 44.95 Q52.85 45.8 51.2 47.45 49.9 48.95 44.45 50.6 L43.6 49.75 45.65 48.3 M20.0 42.6 L21.25 43.45 21.5 43.65 Q25.25 45.8 28.85 46.0 25.45 47.0 22.5 46.6 L20.85 46.4 19.15 46.2 17.7 45.35 15.8 44.1 Q15.6 41.35 15.8 38.2 17.05 40.7 20.0 42.6 M41.5 51.05 L41.7 51.25 Q41.25 51.25 41.1 51.45 L41.5 51.05" fill="#783ab1" fill-rule="evenodd" stroke="none"/>
    <path d="M40.95 37.6 Q41.15 36.75 41.95 36.3 L43.6 36.1 Q44.45 36.35 44.9 37.1 45.4 37.85 45.15 38.7 44.95 39.55 44.2 40.0 L42.5 40.2 Q41.65 39.95 41.15 39.2 40.7 38.45 40.95 37.6" fill="#cc9cfa" fill-rule="evenodd" stroke="none"/>
    <path d="M44.3 38.7 Q45.2 38.95 45.65 39.65 46.1 40.45 45.85 41.3 45.65 42.15 44.9 42.6 L43.25 42.8 Q42.4 42.6 41.9 41.8 41.45 41.05 41.65 40.2 41.9 39.35 42.7 38.9 43.5 38.45 44.3 38.7" fill="#cc9cfa" fill-rule="evenodd" stroke="none"/>
    <path d="M39.3 42.2 Q39.5 41.35 40.3 40.9 41.05 40.45 41.95 40.7 42.8 40.95 43.25 41.7 43.75 42.45 43.5 43.3 43.3 44.15 42.55 44.6 L40.85 44.8 Q40.0 44.55 39.5 43.8 39.05 43.05 39.3 42.2" fill="#cc9cfa" fill-rule="evenodd" stroke="none"/>
    <path d="M35.95 39.7 Q36.15 38.85 36.95 38.4 L38.6 38.2 Q39.45 38.45 39.9 39.2 40.4 39.95 40.15 40.8 39.95 41.65 39.2 42.1 L37.5 42.3 Q36.65 42.05 36.15 41.3 35.7 40.55 35.95 39.7" fill="#cc9cfa" fill-rule="evenodd" stroke="none"/>
    <path d="M37.95 37.6 Q38.15 36.75 38.95 36.3 L40.6 36.1 Q41.45 36.35 41.9 37.1 42.4 37.85 42.15 38.7 41.95 39.55 41.2 40.0 L39.5 40.2 Q38.65 39.95 38.15 39.2 37.7 38.45 37.95 37.6" fill="#cc9cfa" fill-rule="evenodd" stroke="none"/>
    <path d="M42.45 42.35 L40.6 42.6 Q39.65 42.35 39.15 41.45 38.6 40.6 38.85 39.65 39.1 38.7 40.0 38.2 40.85 37.7 41.8 37.95 42.75 38.2 43.3 39.05 43.8 39.95 43.55 40.9 43.3 41.85 42.45 42.35" fill="#e6b4ff" fill-rule="evenodd" stroke="none"/>
    <path d="M42.75 42.15 L41.8 42.25 41.1 41.7 Q40.85 41.25 40.9 40.8 L41.5 40.05 42.4 39.95 Q42.95 40.05 43.2 40.5 43.45 40.95 43.3 41.4 L42.75 42.15" fill="#9a4de2" fill-rule="evenodd" stroke="none"/>
    <path d="M30.55 48.5 L31.05 47.85 31.9 47.75 32.55 48.25 32.7 49.05 32.15 49.7 31.35 49.8 30.7 49.3 Q30.45 48.95 30.55 48.5" fill="#cc9cfa" fill-rule="evenodd" stroke="none"/>
    <path d="M31.3 48.65 L32.0 49.1 32.1 49.95 31.55 50.55 30.75 50.7 30.1 50.2 Q29.85 49.8 29.95 49.35 L30.5 48.75 31.3 48.65" fill="#cc9cfa" fill-rule="evenodd" stroke="none"/>
    <path d="M28.85 50.5 L29.35 49.85 30.2 49.75 30.85 50.25 31.0 51.05 30.45 51.7 29.65 51.8 29.0 51.3 Q28.75 50.95 28.85 50.5" fill="#cc9cfa" fill-rule="evenodd" stroke="none"/>
    <path d="M27.6 49.65 Q27.75 49.25 28.1 49.0 L28.95 48.9 29.6 49.4 29.75 50.2 29.2 50.85 28.4 50.95 27.75 50.45 Q27.5 50.1 27.6 49.65" fill="#cc9cfa" fill-rule="evenodd" stroke="none"/>
    <path d="M28.85 48.5 L29.35 47.85 30.2 47.75 30.85 48.25 31.0 49.05 30.45 49.7 29.65 49.8 29.0 49.3 Q28.75 48.95 28.85 48.5" fill="#cc9cfa" fill-rule="evenodd" stroke="none"/>
    <path d="M31.05 50.15 L30.1 50.25 29.35 49.75 Q29.1 49.3 29.25 48.8 29.4 48.35 29.8 48.1 L30.75 47.95 31.45 48.55 Q31.75 48.95 31.6 49.4 L31.05 50.15" fill="#e6b4ff" fill-rule="evenodd" stroke="none"/>
    <path d="M30.6 49.75 L30.15 49.8 Q29.9 49.75 29.8 49.55 L29.7 49.1 30.0 48.7 30.45 48.65 30.85 48.95 30.9 49.4 30.6 49.75" fill="#9a4de2" fill-rule="evenodd" stroke="none"/>
  </g>
</svg>
