<?xml version="1.0" encoding="UTF-8" standalone="no"?>
<svg xmlns:xlink="http://www.w3.org/1999/xlink" height="69.55px" width="69.05px" xmlns="http://www.w3.org/2000/svg">
  <g transform="matrix(1.0, 0.0, 0.0, 1.0, 0.0, -4.25)">
    <path d="M54.7 4.25 Q69.05 4.25 69.05 18.6 L69.05 59.45 Q69.05 73.8 54.7 73.8 L14.35 73.8 Q0.0 73.8 0.0 59.45 L0.0 18.6 Q0.0 4.25 14.35 4.25 L54.7 4.25" fill="#cff3e8" fill-rule="evenodd" stroke="none"/>
    <path d="M50.6 16.8 L51.5 17.45 51.5 17.65 52.35 18.05 56.05 21.35 55.35 22.85 Q55.2 22.85 55.2 23.1 L54.55 23.9 54.1 24.35 53.0 25.9 53.2 27.6 Q53.2 28.5 53.45 29.15 L53.45 30.45 53.45 31.1 53.45 31.95 54.1 34.8 54.3 35.2 54.55 36.3 55.35 39.75 56.05 42.15 56.25 43.25 56.7 43.65 57.55 45.4 58.0 46.9 58.4 47.55 59.5 51.9 59.7 55.15 Q59.7 56.65 59.3 57.75 58.6 58.2 58.85 58.85 L58.6 59.45 Q58.4 60.55 58.0 60.8 L57.35 63.4 54.55 64.25 Q47.6 66.2 40.4 66.4 L37.8 66.2 36.75 64.7 35.45 62.3 34.55 59.45 33.95 62.3 32.6 64.9 31.3 66.65 26.1 66.4 19.4 64.9 16.8 64.05 15.95 63.6 Q13.75 62.7 12.05 61.65 L10.95 61.0 10.3 59.45 10.3 57.75 10.3 57.3 10.3 56.05 9.65 55.15 Q9.2 54.5 9.2 53.45 L9.2 51.0 Q9.45 49.3 10.1 47.55 L10.7 46.25 11.8 44.35 12.05 44.1 Q12.9 42.55 13.15 42.8 L13.3 42.8 13.55 42.15 14.0 41.3 14.0 41.05 Q14.4 40.2 14.4 39.3 L14.65 38.65 14.85 38.5 14.85 38.25 15.05 37.4 14.85 37.4 Q15.05 37.15 15.3 37.15 L15.5 35.85 15.5 35.45 15.5 35.2 15.95 33.7 15.95 33.45 15.95 32.8 15.95 32.2 16.15 31.75 16.15 31.1 16.15 30.45 16.35 28.7 16.35 28.3 16.35 25.9 15.95 25.45 15.5 24.35 13.55 21.1 16.35 18.5 16.8 18.05 19.0 16.35 20.05 15.7 20.25 15.5 Q20.5 15.25 20.7 15.25 L22.85 13.75 Q28.7 10.3 35.65 10.5 41.95 10.7 45.85 13.3 L48.25 15.05 Q49.3 16.15 50.4 16.35 L50.4 16.55 50.6 16.8" fill="#a553af" fill-rule="evenodd" stroke="none"/>
    <path d="M50.6 16.8 L51.5 17.45 51.5 17.65 52.35 18.05 56.05 21.35 55.35 22.85 Q55.2 22.85 55.2 23.1 L54.55 23.9 54.1 24.35 53.0 25.9 53.2 27.6 Q53.2 28.5 53.45 29.15 L53.45 30.45 53.45 31.1 53.45 31.95 54.1 34.8 54.3 35.2 54.55 36.3 55.35 39.75 56.05 42.15 56.25 43.25 56.7 43.65 57.55 45.4 58.0 46.9 58.4 47.55 59.5 51.9 59.7 55.15 Q59.7 56.65 59.3 57.75 58.6 58.2 58.85 58.85 L58.6 59.45 Q58.4 60.55 58.0 60.8 L57.35 63.4 54.55 64.25 Q47.6 66.2 40.4 66.4 L37.8 66.2 36.75 64.7 35.45 62.3 34.55 59.45 33.95 62.3 32.6 64.9 31.3 66.65 26.1 66.4 19.4 64.9 16.8 64.05 15.95 63.6 Q13.75 62.7 12.05 61.65 L10.95 61.0 10.3 59.45 10.3 57.75 10.3 57.3 10.3 56.05 9.65 55.15 Q9.2 54.5 9.2 53.45 L9.2 51.0 Q9.45 49.3 10.1 47.55 L10.7 46.25 11.8 44.35 12.05 44.1 Q12.9 42.55 13.15 42.8 L13.3 42.8 13.55 42.15 14.0 41.3 14.0 41.05 Q14.4 40.2 14.4 39.3 L14.65 38.65 14.85 38.5 14.85 38.25 15.05 37.4 14.85 37.4 Q15.05 37.15 15.3 37.15 L15.5 35.85 15.5 35.45 15.5 35.2 15.95 33.7 15.95 33.45 15.95 32.8 15.95 32.2 16.15 31.75 16.15 31.1 16.15 30.45 16.35 28.7 16.35 28.3 16.35 25.9 15.95 25.45 15.5 24.35 13.55 21.1 16.35 18.5 16.8 18.05 19.0 16.35 20.05 15.7 20.25 15.5 Q20.5 15.25 20.7 15.25 L22.85 13.75 Q28.7 10.3 35.65 10.5 41.95 10.7 45.85 13.3 L48.25 15.05 Q49.3 16.15 50.4 16.35 L50.4 16.55 50.6 16.8 Z" fill="none" stroke="#40184f" stroke-linecap="round" stroke-linejoin="round" stroke-width="0.8"/>
    <path d="M45.95 13.15 Q44.6 18.55 44.8 23.35 35.05 29.6 25.1 23.95 25.1 19.2 22.9 13.6 27.7 21.35 33.55 21.35 41.8 22.5 45.95 13.15 M46.75 22.9 Q46.75 19.2 48.3 14.85 49.35 15.95 50.45 16.2 L50.45 16.35 50.7 16.6 51.55 17.25 51.55 17.5 52.4 17.9 56.1 21.15 55.4 22.65 Q54.8 23.15 54.6 23.75 L54.15 24.2 Q53.45 24.85 53.05 25.7 L53.3 27.45 Q49.35 26.8 46.75 22.9 M16.4 28.1 L16.4 25.7 16.0 25.25 Q15.55 24.6 15.55 24.2 L13.6 20.9 16.4 18.3 16.85 17.9 18.6 16.35 18.8 16.35 Q18.95 16.3 19.05 16.2 L20.1 15.5 20.35 15.3 20.75 15.05 Q22.7 19.0 22.7 23.35 L22.45 23.35 Q20.1 27.2 16.4 28.1" fill="#f6e0ff" fill-rule="evenodd" stroke="none"/>
    <path d="M45.95 13.15 L48.3 14.85 Q46.75 19.2 46.75 22.9 L44.8 23.35 Q44.6 18.55 45.95 13.15 M20.75 15.05 Q21.85 14.25 22.9 13.6 25.1 19.2 25.1 23.95 L22.7 23.35 Q22.7 19.0 20.75 15.05 M16.0 43.75 L16.2 43.75 Q22.1 45.45 27.9 46.1 L29.85 46.5 30.75 46.5 30.95 46.5 31.8 46.75 32.7 46.75 35.05 46.95 37.05 46.95 38.1 46.95 38.35 46.95 40.7 46.75 40.95 46.75 42.85 46.5 Q48.5 46.1 53.95 44.35 L55.65 46.75 56.75 48.05 57.65 50.2 Q58.05 51.9 58.05 53.85 L58.05 55.0 Q57.8 55.6 57.65 56.7 L57.65 56.25 57.65 55.85 57.4 55.2 57.4 55.0 56.75 53.45 56.55 53.45 56.75 55.0 56.75 56.25 56.75 57.35 56.3 57.8 56.3 58.0 56.1 58.0 55.65 58.85 55.25 59.1 55.05 59.1 54.35 59.3 53.95 59.3 53.45 59.3 52.8 59.5 52.4 57.1 Q51.55 59.3 49.6 59.95 L49.6 59.75 Q50.25 59.1 50.25 58.0 L49.6 56.1 Q49.35 55.2 48.5 53.85 L47.0 51.9 47.65 54.35 47.85 56.1 48.05 58.2 47.65 59.95 Q47.4 60.8 45.3 61.25 L44.6 61.25 44.4 61.45 40.95 61.7 40.45 61.7 39.2 61.9 39.0 61.9 38.1 60.4 Q37.05 59.1 36.4 56.7 39.0 56.25 40.3 55.0 L40.7 53.85 36.8 55.0 Q34.65 55.2 32.2 55.0 L28.4 53.85 29.45 55.0 Q30.95 56.1 33.35 57.1 L31.6 61.25 30.95 61.9 27.5 61.45 25.95 61.25 24.9 60.8 24.2 60.6 23.45 60.6 23.4 60.6 23.35 60.6 23.35 60.55 Q22.2 59.75 21.45 57.8 20.55 56.25 20.55 55.0 L20.55 53.25 Q20.1 54.1 20.1 54.5 L20.1 55.0 Q19.85 55.4 19.85 56.25 19.85 57.35 20.55 59.5 L18.4 57.35 18.6 58.45 18.8 59.3 16.85 58.45 16.45 58.45 16.4 58.45 16.4 58.2 16.2 58.2 16.0 58.0 15.35 57.8 Q14.7 57.8 14.45 55.4 L14.45 57.1 Q13.6 56.1 13.4 55.0 12.75 53.25 12.95 51.75 L12.75 51.75 12.55 52.6 12.3 53.65 12.3 53.85 12.1 53.25 11.85 51.25 Q11.85 50.2 12.1 49.35 L12.3 48.05 Q12.95 46.3 13.6 45.6 L15.15 44.15 16.0 43.75 M12.3 54.05 Q12.35 54.6 12.55 55.0 L12.55 55.2 Q12.35 54.8 12.3 54.05" fill="#b749c4" fill-rule="evenodd" stroke="none"/>
    <path d="M44.8 23.35 L46.75 22.9 Q49.35 26.8 53.3 27.45 L53.3 28.95 53.45 30.25 50.7 29.6 Q48.5 28.3 46.35 25.5 36.15 32.85 23.55 25.7 21.2 28.1 18.8 29.4 L16.2 30.25 16.4 28.55 16.4 28.1 Q20.1 27.2 22.45 23.35 L22.7 23.35 25.1 23.95 Q35.05 29.6 44.8 23.35" fill="#7c1c87" fill-rule="evenodd" stroke="none"/>
    <path d="M56.75 43.5 L57.65 45.2 58.05 46.75 58.45 47.4 59.6 51.75 59.75 55.0 Q59.75 56.45 59.35 57.55 L57.65 58.2 56.3 58.7 Q55.9 58.7 55.65 58.85 L56.1 58.0 56.3 58.0 56.3 57.8 56.75 57.35 56.75 56.25 56.75 55.0 56.55 53.45 56.75 53.45 57.4 55.0 57.4 55.2 57.65 55.85 57.65 56.25 57.65 56.7 Q57.8 55.6 58.05 55.0 L58.05 53.85 Q58.05 51.9 57.65 50.2 L56.75 48.05 55.65 46.75 53.95 44.35 56.75 43.5 M35.5 62.15 L34.65 59.3 34.0 62.15 30.95 61.9 31.6 61.25 33.35 57.1 Q30.95 56.1 29.45 55.0 L28.4 53.85 32.2 55.0 Q34.65 55.2 36.8 55.0 L40.7 53.85 40.3 55.0 Q39.0 56.25 36.4 56.7 37.05 59.1 38.1 60.4 L39.0 61.9 35.5 62.15 M10.35 55.85 L9.75 55.0 Q9.25 54.35 9.25 53.25 L9.25 50.85 Q9.5 49.1 10.15 47.4 L10.8 46.1 11.85 44.15 12.1 43.9 Q12.95 42.4 13.2 42.6 L16.0 43.75 15.15 44.15 13.6 45.6 Q12.95 46.3 12.3 48.05 L12.1 49.35 Q11.85 50.2 11.85 51.25 L12.1 53.25 12.3 53.85 12.3 53.65 12.55 52.6 12.75 51.75 12.95 51.75 Q12.75 53.25 13.4 55.0 13.6 56.1 14.45 57.1 L14.45 55.4 Q14.7 57.8 15.35 57.8 L16.0 58.0 16.2 58.2 16.0 58.2 15.15 57.8 13.4 57.1 12.1 56.45 10.35 55.85 M50.7 29.6 L51.55 30.9 51.75 32.45 Q52.2 34.4 52.2 36.75 L52.0 37.45 51.55 38.7 Q51.35 39.55 49.8 40.45 48.5 41.3 46.75 41.75 35.05 43.9 23.55 41.5 L22.9 41.5 22.45 41.5 Q20.55 40.9 19.25 39.4 L17.75 37.2 17.75 36.1 Q17.75 33.1 18.15 30.9 L18.8 29.4 Q21.2 28.1 23.55 25.7 36.15 32.85 46.35 25.5 48.5 28.3 50.7 29.6 M18.8 59.3 L18.6 58.45 18.4 57.35 20.55 59.5 Q19.85 57.35 19.85 56.25 19.85 55.4 20.1 55.0 L20.1 54.5 Q20.1 54.1 20.55 53.25 L20.55 55.0 Q20.55 56.25 21.45 57.8 22.2 59.75 23.35 60.55 L22.9 60.4 22.45 60.4 22.3 60.4 19.45 59.3 18.8 59.3 M45.3 61.25 Q47.4 60.8 47.65 59.95 L48.05 58.2 47.85 56.1 47.65 54.35 47.0 51.9 48.5 53.85 Q49.35 55.2 49.6 56.1 L50.25 58.0 Q50.25 59.1 49.6 59.75 L49.6 59.95 Q51.55 59.3 52.4 57.1 L52.8 59.5 51.35 59.95 51.1 59.95 51.1 60.15 50.45 60.15 50.25 60.4 45.3 61.25 M12.3 54.05 Q12.35 54.8 12.55 55.2 L12.55 55.0 Q12.35 54.6 12.3 54.05 M14.45 57.1 L14.45 57.35 14.7 57.35 14.45 57.1" fill="#a434b1" fill-rule="evenodd" stroke="none"/>
    <path d="M53.45 30.25 L53.45 30.9 53.45 31.8 54.15 34.6 54.35 35.0 54.6 36.1 55.4 39.55 51.75 40.65 51.55 40.65 46.75 41.75 Q48.5 41.3 49.8 40.45 51.35 39.55 51.55 38.7 L52.0 37.45 52.2 36.75 Q52.2 34.4 51.75 32.45 L51.55 30.9 50.7 29.6 53.45 30.25 M14.45 39.15 L14.7 38.5 14.9 38.3 14.9 38.1 15.15 37.2 14.9 37.2 15.35 36.95 15.55 35.65 15.55 35.25 15.55 35.0 15.8 33.5 15.8 33.25 16.0 32.6 Q15.8 32.45 16.0 32.0 L16.2 31.55 16.2 30.9 16.2 30.25 18.8 29.4 18.15 30.9 Q17.75 33.1 17.75 36.1 L17.75 37.2 19.25 39.4 Q20.55 40.9 22.45 41.5 L18.15 40.2 17.95 40.2 16.0 39.8 14.45 39.15" fill="#912b9c" fill-rule="evenodd" stroke="none"/>
    <path d="M22.45 41.5 L22.9 41.5 23.55 41.5 Q35.05 43.9 46.75 41.75 L51.55 40.65 51.75 40.65 53.05 42.6 Q53.7 43.5 53.95 44.35 48.5 46.1 42.85 46.5 L40.95 46.75 40.7 46.75 38.35 46.95 38.1 46.95 37.05 46.95 35.05 46.95 32.7 46.75 31.8 46.75 30.95 46.5 30.75 46.5 29.85 46.5 27.9 46.1 Q22.1 45.45 16.2 43.75 L16.0 43.75 17.1 42.15 Q17.75 41.5 17.95 40.2 L18.15 40.2 22.45 41.5" fill="#f5d6eb" fill-rule="evenodd" stroke="none"/>
    <path d="M55.4 39.55 L55.9 41.95 56.3 43.05 56.75 43.5 53.95 44.35 Q53.7 43.5 53.05 42.6 L51.75 40.65 55.4 39.55 M13.2 42.6 L13.6 41.95 14.05 41.1 14.05 40.9 Q14.45 40.0 14.45 39.15 L16.0 39.8 17.95 40.2 Q17.75 41.5 17.1 42.15 L16.0 43.75 13.2 42.6" fill="#d9abca" fill-rule="evenodd" stroke="none"/>
    <path d="M22.9 13.6 Q28.75 10.1 35.7 10.3 42.0 10.55 45.95 13.15 41.8 22.5 33.55 21.35 27.7 21.35 22.9 13.6" fill="#d1b1de" fill-rule="evenodd" stroke="none"/>
    <path d="M27.9 66.45 L26.15 66.2 Q20.95 65.6 16.85 63.85 L16.4 63.2 16.2 61.9 16.4 62.15 17.75 62.5 18.4 62.5 18.8 62.75 20.1 63.2 Q24.7 64.5 29.2 64.75 L28.55 65.8 27.9 66.45 M16.45 58.45 L16.85 58.45 18.8 59.3 19.45 59.3 22.3 60.4 22.45 60.4 22.9 60.4 23.35 60.55 23.35 60.6 23.4 60.6 23.45 60.6 24.2 60.6 24.9 60.8 24.9 61.45 24.7 61.9 24.7 62.15 Q20.55 61.25 16.4 59.75 L16.85 58.7 16.45 58.45 M25.95 61.25 L27.5 61.45 30.95 61.9 Q30.95 62.5 30.5 62.75 L25.35 62.35 25.5 62.15 Q25.75 61.45 25.95 61.25" fill="#fcceee" fill-rule="evenodd" stroke="none"/>
    <path d="M24.9 60.8 L25.95 61.25 Q25.75 61.45 25.5 62.15 L25.35 62.35 24.7 62.15 24.7 61.9 24.9 61.45 24.9 60.8 M13.4 57.1 L13.2 57.35 13.2 57.8 Q12.95 58.0 13.2 58.45 L12.1 57.8 11.85 57.1 12.1 56.45 13.4 57.1" fill="#d488bd" fill-rule="evenodd" stroke="none"/>
    <path d="M58.7 59.3 Q58.45 60.4 58.05 60.6 L57.8 60.8 Q57.65 60.8 57.65 61.05 L56.75 61.25 Q55.9 61.45 55.25 62.15 L54.8 62.15 55.05 61.9 Q55.4 61.25 55.4 60.4 56.55 59.95 57.65 59.75 L58.7 59.3 M36.8 64.5 L35.95 63.2 39.4 62.75 39.85 64.5 38.5 64.75 36.8 64.5 M33.55 63.0 L32.7 64.75 31.35 64.75 29.65 64.75 29.2 64.75 30.5 62.75 33.55 63.0 M10.35 59.3 L10.35 57.55 10.35 57.1 12.1 57.8 Q12.3 58.45 13.2 59.3 L13.2 59.75 Q13.4 59.5 13.2 59.1 L13.2 58.45 16.0 59.5 16.4 59.75 16.4 59.95 16.2 61.45 16.4 62.15 16.2 61.9 16.0 61.9 15.55 61.7 13.6 60.8 12.75 60.4 12.1 60.15 11.85 60.15 10.55 59.3 10.35 59.3" fill="#c97fb2" fill-rule="evenodd" stroke="none"/>
    <path d="M34.0 62.15 L33.55 63.0 30.5 62.75 Q30.95 62.5 30.95 61.9 L34.0 62.15 M32.7 64.75 L31.35 66.45 27.9 66.45 28.55 65.8 29.2 64.75 29.65 64.75 31.35 64.75 32.7 64.75 M16.85 63.85 L16.0 63.4 Q13.8 62.5 12.1 61.45 L11.0 60.8 10.35 59.3 10.55 59.3 11.85 60.15 12.1 60.15 12.75 60.4 13.6 60.8 15.55 61.7 16.0 61.9 16.2 61.9 16.4 63.2 16.85 63.85 M10.35 57.1 L10.35 55.85 12.1 56.45 11.85 57.1 12.1 57.8 10.35 57.1 M16.2 58.2 L16.4 58.2 16.4 58.45 16.45 58.45 16.85 58.7 16.4 59.75 16.0 59.5 13.2 58.45 Q12.95 58.0 13.2 57.8 L13.2 57.35 13.4 57.1 15.15 57.8 16.0 58.2 16.2 58.2" fill="#eeb1db" fill-rule="evenodd" stroke="none"/>
    <path d="M24.7 62.15 L24.05 62.5 25.35 62.35 30.5 62.75 29.2 64.75 Q24.7 64.5 20.1 63.2 L18.8 62.75 18.4 62.5 17.75 62.5 16.4 62.15 16.2 61.45 16.4 59.95 16.4 59.75 Q20.55 61.25 24.7 62.15 M39.85 64.5 L39.4 62.75 50.9 61.45 50.9 61.9 Q51.1 61.45 51.35 61.45 L55.4 60.4 Q55.4 61.25 55.05 61.9 L54.8 62.15 48.75 63.65 48.05 63.65 46.75 63.85 39.85 64.5" fill="#ec9ed4" fill-rule="evenodd" stroke="none"/>
    <path d="M24.7 62.15 L25.35 62.35 24.05 62.5 24.7 62.15 M51.35 61.45 Q51.1 61.45 50.9 61.9 L50.9 61.45 51.35 61.45 M12.1 57.8 L13.2 58.45 13.2 59.1 Q13.4 59.5 13.2 59.75 L13.2 59.3 Q12.3 58.45 12.1 57.8" fill="#bf72a7" fill-rule="evenodd" stroke="none"/>
    <path d="M54.6 64.1 Q47.65 66.0 40.45 66.2 L39.85 64.5 46.75 63.85 48.05 63.65 48.75 63.65 54.8 62.15 55.25 62.15 54.6 64.1 M39.0 61.9 L39.2 61.9 40.45 61.7 40.95 61.7 44.4 61.45 44.6 61.25 45.3 61.25 50.25 60.4 50.45 60.6 50.9 61.45 39.4 62.75 39.0 61.9 M52.8 59.5 L53.45 59.3 53.95 59.3 54.35 59.3 55.05 59.1 Q55.4 59.5 55.4 60.4 L51.35 61.45 51.55 60.6 51.35 59.95 52.8 59.5" fill="#ffdbf4" fill-rule="evenodd" stroke="none"/>
    <path d="M59.35 57.55 Q58.7 58.0 58.9 58.7 L58.7 59.3 57.65 59.75 Q56.55 59.95 55.4 60.4 55.4 59.5 55.05 59.1 L55.25 59.1 55.65 58.85 55.9 58.85 Q56.3 59.1 56.3 58.7 L57.65 58.2 59.35 57.55 M58.05 60.6 L57.4 63.2 54.6 64.1 55.25 62.15 Q55.9 61.45 56.75 61.25 L57.65 61.05 Q57.65 60.8 57.8 60.8 L58.05 60.6 M40.45 66.2 L37.85 66.0 36.8 64.5 38.5 64.75 39.85 64.5 40.45 66.2 M35.95 63.2 L35.5 62.15 39.0 61.9 39.4 62.75 35.95 63.2" fill="#d798c3" fill-rule="evenodd" stroke="none"/>
    <path d="M14.45 57.1 L14.7 57.35 14.45 57.35 14.45 57.1" fill="#e27ec4" fill-rule="evenodd" stroke="none"/>
    <path d="M51.35 61.45 L50.9 61.45 50.45 60.6 50.25 60.4 50.45 60.15 51.1 60.15 51.1 59.95 51.35 59.95 51.55 60.6 51.35 61.45" fill="#d28dbc" fill-rule="evenodd" stroke="none"/>
    <path d="M56.3 58.7 Q56.3 59.1 55.9 58.85 L55.65 58.85 Q55.9 58.7 56.3 58.7" fill="#ee99d5" fill-rule="evenodd" stroke="none"/>
    <path d="M42.85 30.65 Q45.85 30.65 45.85 33.05 45.85 35.2 40.25 38.05 35.65 40.0 35.45 41.7 35.0 39.75 31.95 37.8 28.3 35.65 28.3 33.05 28.3 31.95 28.7 31.55 29.6 30.85 30.9 30.85 32.2 30.85 33.7 31.95 L36.3 33.9 39.15 32.2 Q41.3 30.65 42.85 30.65" fill="#d4bf23" fill-rule="evenodd" stroke="none"/>
    <path d="M32.6 33.9 Q34.35 33.45 34.8 35.0 35.0 35.85 32.2 38.25 30.05 40.2 30.25 41.05 29.8 40.2 27.65 39.55 25.45 38.9 25.05 37.4 24.85 36.95 25.05 36.5 25.25 36.05 25.9 35.85 26.75 35.65 27.85 35.85 L29.6 36.7 30.9 35.2 32.6 33.9" fill="#e5d488" fill-rule="evenodd" stroke="none"/>
    <path d="M38.05 44.35 L38.9 44.35 Q40.4 44.95 41.95 46.05 L42.85 46.7 Q44.1 47.55 44.1 48.65 44.1 49.95 42.85 50.8 41.75 51.7 40.25 51.7 39.55 51.7 38.45 50.4 L38.05 49.3 38.25 47.35 38.9 48.2 Q39.15 49.3 40.0 49.3 41.3 48.65 41.3 48.2 41.3 47.35 40.85 46.9 L40.65 46.7 Q40.25 46.25 38.25 45.85 L38.05 44.35 M31.15 47.75 L30.45 50.4 Q29.8 52.1 28.1 52.1 27.45 52.1 26.75 51.45 26.1 50.6 26.1 49.3 26.1 48.0 27.85 46.25 L28.1 46.25 Q29.6 45.15 30.9 44.55 L31.75 43.9 31.3 44.75 Q30.9 45.4 30.9 46.05 L29.8 46.7 29.15 47.15 Q28.1 47.75 28.1 48.65 L28.3 49.5 Q29.35 49.5 30.05 48.2 L30.7 46.7 30.9 46.1 30.9 46.25 30.9 46.7 Q30.9 47.35 31.15 47.75" fill="#e5bbd7" fill-rule="evenodd" stroke="none"/>
    <path d="M34.75 43.25 L34.8 43.25 Q35.2 43.25 36.1 44.35 37.0 45.4 37.0 46.05 L37.0 47.15 37.0 47.35 Q36.55 47.75 35.9 47.75 35.2 47.75 35.0 47.35 L35.0 47.15 34.55 46.9 33.05 46.9 Q32.6 46.7 32.6 45.85 32.6 44.95 32.85 44.75 32.85 44.1 33.7 43.9 L33.7 44.1 33.95 43.65 Q34.35 43.25 34.75 43.25" fill="#f5d6eb" fill-rule="evenodd" stroke="none"/>
    <path d="M38.05 44.35 L38.25 45.85 38.25 47.15 38.25 47.35 38.05 49.3 37.8 49.3 Q37.0 49.95 35.0 49.95 32.85 49.95 31.95 49.3 31.3 48.85 31.15 47.75 30.9 47.35 30.9 46.7 L30.9 46.25 30.9 46.1 30.9 46.05 Q30.9 45.4 31.3 44.75 L31.75 43.9 Q31.75 43.65 31.95 43.65 L32.2 43.45 34.55 43.25 34.75 43.25 Q34.35 43.25 33.95 43.65 L33.7 44.1 33.7 43.9 Q32.85 44.1 32.85 44.75 32.6 44.95 32.6 45.85 32.6 46.7 33.05 46.9 L34.55 46.9 35.0 47.15 35.0 47.35 Q35.2 47.75 35.9 47.75 36.55 47.75 37.0 47.35 L37.0 47.15 37.0 46.05 Q37.0 45.4 36.1 44.35 35.2 43.25 34.8 43.25 37.0 43.25 37.8 44.1 L38.05 44.35" fill="#d9abca" fill-rule="evenodd" stroke="none"/>
  </g>
</svg>
