<?xml version="1.0" encoding="UTF-8" standalone="no"?>
<svg xmlns:xlink="http://www.w3.org/1999/xlink" height="54.9px" width="62.6px" xmlns="http://www.w3.org/2000/svg">
  <g transform="matrix(1.0, 0.0, 0.0, 1.0, -7.8, -6.8)">
    <path d="M51.5 7.45 Q52.0 7.95 52.25 9.55 L54.8 9.55 60.65 12.35 56.2 19.15 56.7 21.7 Q56.7 22.2 57.15 22.4 L57.85 26.15 57.85 26.4 60.9 31.8 61.1 31.55 62.3 31.3 Q63.7 31.3 64.15 32.0 L64.4 33.45 64.15 33.9 Q63.45 35.55 62.3 35.3 L62.3 35.75 62.05 36.25 64.4 39.5 64.4 39.3 65.8 39.05 Q67.7 39.05 67.9 39.5 68.85 40.25 68.65 41.85 68.4 44.0 66.5 43.5 L66.75 44.2 66.75 44.65 Q66.5 45.85 66.05 46.3 L64.65 46.55 65.1 47.05 65.35 46.8 Q66.05 46.3 66.75 46.3 68.65 46.3 69.1 47.05 70.0 47.95 70.0 49.85 70.0 52.4 67.9 51.7 L67.9 52.4 67.9 53.1 Q67.9 54.75 67.7 54.75 67.2 55.2 64.85 55.45 63.9 55.45 63.45 56.65 63.45 57.75 61.85 57.75 L60.15 57.3 59.05 56.85 58.8 56.85 58.8 57.05 Q58.8 58.0 57.35 59.2 56.0 60.1 54.55 60.1 52.95 60.1 51.3 59.2 51.05 59.2 49.45 58.25 49.2 59.2 47.75 60.1 46.15 61.3 44.5 61.3 43.35 61.3 42.15 60.35 L40.3 59.2 38.9 60.1 Q37.45 60.8 36.8 60.8 35.35 60.8 34.4 60.1 33.5 59.9 32.35 58.7 L31.15 59.9 28.8 60.35 Q27.6 60.35 26.25 59.2 L24.8 58.0 24.6 58.0 24.8 57.75 Q23.9 58.5 22.95 58.5 L19.9 58.0 Q18.5 56.85 18.25 55.2 16.65 56.15 15.2 56.15 13.6 56.15 12.65 54.75 11.7 53.6 11.7 52.15 11.7 51.7 11.95 51.45 L12.2 51.0 12.2 50.75 Q11.45 51.2 10.8 51.2 9.6 51.2 8.9 50.3 8.2 49.35 8.2 48.2 8.2 46.8 9.15 45.85 10.1 44.65 11.7 44.65 12.65 44.65 13.35 45.35 L13.35 45.85 14.55 44.4 14.55 44.0 14.55 43.3 14.55 42.8 13.35 43.3 Q12.2 43.3 11.45 42.35 10.8 41.4 10.8 40.7 10.3 39.3 11.05 38.35 11.95 37.65 13.35 37.65 14.55 37.65 15.0 38.1 L15.45 38.6 17.35 35.55 17.1 35.3 16.65 35.55 Q15.2 35.55 14.3 34.4 L13.85 33.7 13.6 32.5 Q13.6 31.8 14.1 31.3 L14.1 31.1 Q14.55 30.15 15.45 30.15 L17.1 30.15 17.35 30.65 17.6 30.15 17.85 30.15 19.7 25.95 19.7 22.65 20.85 21.05 21.1 18.65 16.65 12.35 22.0 9.05 25.3 9.3 25.75 7.45 28.8 7.45 28.8 9.3 48.7 9.3 48.7 7.2 51.5 7.45 M16.95 34.4 L17.3 34.6 17.1 34.4 16.95 34.4" fill="#bf6b6b" fill-rule="evenodd" stroke="none"/>
    <path d="M51.5 7.45 Q52.0 7.95 52.25 9.55 L54.8 9.55 60.65 12.35 56.2 19.15 56.7 21.7 Q56.7 22.2 57.15 22.4 L57.85 26.15 57.85 26.4 60.9 31.8 61.1 31.55 62.3 31.3 Q63.7 31.3 64.15 32.0 L64.4 33.45 64.15 33.9 Q63.45 35.55 62.3 35.3 L62.3 35.75 62.05 36.25 64.4 39.5 64.4 39.3 65.8 39.05 Q67.7 39.05 67.9 39.5 68.85 40.25 68.65 41.85 68.4 44.0 66.5 43.5 L66.75 44.2 66.75 44.65 Q66.5 45.85 66.05 46.3 L64.65 46.55 65.1 47.05 65.35 46.8 Q66.05 46.3 66.75 46.3 68.65 46.3 69.1 47.05 70.0 47.95 70.0 49.85 70.0 52.4 67.9 51.7 L67.9 52.4 67.9 53.1 Q67.9 54.75 67.7 54.75 67.2 55.2 64.85 55.45 63.9 55.45 63.45 56.65 63.45 57.75 61.85 57.75 L60.15 57.3 59.05 56.85 58.8 56.85 58.8 57.05 Q58.8 58.0 57.35 59.2 56.0 60.1 54.55 60.1 52.95 60.1 51.3 59.2 51.05 59.2 49.45 58.25 49.2 59.2 47.75 60.1 46.15 61.3 44.5 61.3 43.35 61.3 42.15 60.35 L40.3 59.2 38.9 60.1 Q37.45 60.8 36.8 60.8 35.35 60.8 34.4 60.1 33.5 59.9 32.35 58.7 L31.15 59.9 28.8 60.35 Q27.6 60.35 26.25 59.2 L24.8 58.0 24.6 58.0 24.8 57.75 Q23.9 58.5 22.95 58.5 L19.9 58.0 Q18.5 56.85 18.25 55.2 16.65 56.15 15.2 56.15 13.6 56.15 12.65 54.75 11.7 53.6 11.7 52.15 11.7 51.7 11.95 51.45 L12.2 51.0 12.2 50.75 Q11.45 51.2 10.8 51.2 9.6 51.2 8.9 50.3 8.2 49.35 8.2 48.2 8.2 46.8 9.15 45.85 10.1 44.65 11.7 44.65 12.65 44.65 13.35 45.35 L13.35 45.85 14.55 44.4 14.55 44.0 14.55 43.3 14.55 42.8 13.35 43.3 Q12.2 43.3 11.45 42.35 10.8 41.4 10.8 40.7 10.3 39.3 11.05 38.35 11.95 37.65 13.35 37.65 14.55 37.65 15.0 38.1 L15.45 38.6 17.35 35.55 17.1 35.3 16.65 35.55 Q15.2 35.55 14.3 34.4 L13.85 33.7 13.6 32.5 Q13.6 31.8 14.1 31.3 L14.1 31.1 Q14.55 30.15 15.45 30.15 L17.1 30.15 17.35 30.65 17.6 30.15 17.85 30.15 19.7 25.95 19.7 22.65 20.85 21.05 21.1 18.65 16.65 12.35 22.0 9.05 25.3 9.3 25.75 7.45 28.8 7.45 28.8 9.3 48.7 9.3 48.7 7.2 51.5 7.45 Z" fill="none" stroke="#4c0e62" stroke-linecap="round" stroke-linejoin="round" stroke-width="0.8"/>
    <path d="M19.2 32.95 L20.65 33.45 26.5 34.8 Q28.35 35.55 33.25 35.75 L39.6 36.0 51.05 34.6 58.1 33.2 59.95 45.6 Q39.1 50.3 17.85 45.35 L19.2 32.95" fill="#dae3e9" fill-rule="evenodd" stroke="none"/>
    <path d="M53.4 9.55 L54.8 9.55 60.65 12.35 56.2 19.15 58.1 33.2 51.05 34.6 39.6 36.0 33.25 35.75 Q28.35 35.55 26.5 34.8 L20.65 33.45 19.2 32.95 21.1 18.65 16.65 12.35 22.0 9.05 23.45 9.05 Q26.7 16.1 36.55 16.1 52.25 16.8 53.4 9.55" fill="#c8c8c8" fill-rule="evenodd" stroke="none"/>
    <path d="M53.4 9.55 Q52.25 16.8 36.55 16.1 26.7 16.1 23.45 9.05 L53.4 9.55" fill="#a2a2a2" fill-rule="evenodd" stroke="none"/>
    <path d="M50.55 46.3 L50.8 49.1 50.55 49.1 48.25 42.8 48.5 42.8 53.4 41.6 Q53.6 42.8 54.55 44.9 54.8 47.05 55.5 50.05 L54.35 47.05 Q53.2 44.65 52.25 44.2 L52.25 46.1 51.5 44.9 50.55 44.2 50.55 44.8 50.55 46.3 M41.9 42.8 L41.7 43.5 41.9 43.5 41.7 44.65 41.0 48.2 40.75 46.3 40.05 44.65 39.35 47.95 38.4 52.4 37.7 43.75 37.7 43.05 41.9 42.8 M24.35 41.85 L29.3 42.8 29.5 43.05 28.35 46.55 Q28.35 45.35 27.85 44.65 27.6 46.3 27.2 46.55 L26.95 43.3 Q25.75 44.65 25.3 46.1 24.6 47.25 23.9 50.5 L23.9 48.4 Q23.9 47.7 24.15 47.05 L24.35 41.85 M22.95 41.4 Q21.3 41.85 20.15 42.55 18.95 43.3 17.1 45.6 15.2 47.45 15.2 47.95 L14.55 49.1 Q14.3 49.6 14.3 50.05 L14.1 49.85 Q12.9 49.1 11.95 47.95 L13.35 45.85 17.6 40.25 19.2 40.7 22.95 41.4 M63.2 51.95 L59.95 45.35 Q58.1 42.35 55.5 41.15 L57.35 40.7 59.95 40.25 65.1 47.05 66.75 49.1 63.45 51.7 Q63.2 51.7 63.2 51.95" fill="#7b299a" fill-rule="evenodd" stroke="none"/>
    <path d="M48.5 42.8 L48.25 42.8 50.55 49.1 50.8 49.1 50.55 46.3 50.8 46.3 50.55 44.8 50.55 44.2 51.5 44.9 52.25 46.1 52.25 44.2 Q53.2 44.65 54.35 47.05 L55.5 50.05 Q54.8 47.05 54.55 44.9 53.6 42.8 53.4 41.6 L55.5 41.15 Q58.1 42.35 59.95 45.35 L63.2 51.95 Q59.95 53.8 55.75 55.2 48.95 57.55 40.55 57.75 32.1 58.0 24.6 55.7 18.5 53.6 14.3 50.05 14.3 49.6 14.55 49.1 L15.2 47.95 Q15.2 47.45 17.1 45.6 18.95 43.3 20.15 42.55 21.3 41.85 22.95 41.4 L24.35 41.85 29.5 42.55 37.7 43.05 37.7 43.75 38.4 52.4 39.35 47.95 40.05 44.65 40.75 46.3 41.0 48.2 41.7 44.65 41.9 43.5 41.7 43.5 41.9 42.8 48.25 42.35 48.5 42.8 M24.35 41.85 L24.15 47.05 Q23.9 47.7 23.9 48.4 L23.9 50.5 Q24.6 47.25 25.3 46.1 25.75 44.65 26.95 43.3 L27.2 46.55 Q27.6 46.3 27.85 44.65 28.35 45.35 28.35 46.55 L29.5 43.05 29.3 42.8 24.35 41.85 M58.3 48.65 L57.6 49.35 57.15 50.3 56.2 51.7 53.4 51.0 51.5 52.4 Q49.9 51.7 48.7 50.05 47.75 48.9 46.15 48.9 43.8 49.1 43.35 51.2 42.15 53.35 40.05 54.0 37.7 54.75 35.35 51.2 L32.55 52.4 28.1 50.3 25.55 52.4 Q24.35 52.4 23.45 51.45 22.5 50.75 22.5 49.35 22.95 47.05 22.0 45.6 L17.35 49.1 Q17.1 50.3 17.85 51.0 18.95 51.7 20.65 52.4 23.9 53.6 27.6 54.25 32.1 56.85 36.3 54.95 L37.7 54.75 40.05 55.9 Q42.4 57.05 46.4 55.45 49.65 55.9 52.95 54.25 57.35 54.25 60.4 51.45 L60.4 51.0 Q60.15 49.1 58.3 48.65" fill="#9f43cb" fill-rule="evenodd" stroke="none"/>
    <path d="M48.25 42.35 L41.9 42.8 37.7 43.05 29.5 42.55 24.35 41.85 22.95 41.4 19.2 40.7 17.6 40.25 18.75 38.1 18.95 37.85 Q38.9 42.8 58.8 37.65 L59.95 40.25 57.35 40.7 55.5 41.15 53.4 41.6 48.25 42.35" fill="#fc889b" fill-rule="evenodd" stroke="none"/>
    <path d="M58.3 48.65 Q60.15 49.1 60.4 51.0 L60.4 51.45 Q57.35 54.25 52.95 54.25 49.65 55.9 46.4 55.45 42.4 57.05 40.05 55.9 L37.7 54.75 36.3 54.95 Q32.1 56.85 27.6 54.25 23.9 53.6 20.65 52.4 18.95 51.7 17.85 51.0 17.1 50.3 17.35 49.1 L22.0 45.6 Q22.95 47.05 22.5 49.35 22.5 50.75 23.45 51.45 24.35 52.4 25.55 52.4 L28.1 50.3 32.55 52.4 35.35 51.2 Q37.7 54.75 40.05 54.0 42.15 53.35 43.35 51.2 43.8 49.1 46.15 48.9 47.75 48.9 48.7 50.05 49.9 51.7 51.5 52.4 L53.4 51.0 56.2 51.7 57.15 50.3 57.6 49.35 58.3 48.65" fill="#c26de9" fill-rule="evenodd" stroke="none"/>
    <path d="M14.3 50.05 Q18.5 53.6 24.6 55.7 32.1 58.0 40.55 57.75 48.95 57.55 55.75 55.2 59.95 53.8 63.2 51.95 63.2 51.7 63.45 51.7 L66.75 49.1 65.1 47.05 65.35 46.8 Q65.8 46.3 66.75 46.3 68.4 46.3 69.1 47.05 70.0 47.95 70.0 49.85 70.0 52.4 67.9 51.7 L67.9 52.4 67.9 53.1 Q67.9 54.75 67.7 54.75 67.2 55.2 64.85 55.45 63.9 55.45 63.45 56.65 63.2 57.75 61.85 57.75 L60.15 57.3 59.05 56.85 58.8 56.85 58.8 57.05 Q58.8 58.0 57.35 59.2 56.0 60.1 54.55 60.1 52.95 60.1 51.3 59.2 51.05 59.2 49.45 58.25 49.2 59.2 47.75 60.1 46.15 61.3 44.5 61.3 43.35 61.3 42.15 60.35 L40.3 59.2 38.9 60.1 Q37.45 60.8 36.8 60.8 35.35 60.8 34.4 60.1 33.5 59.9 32.35 58.7 L30.9 59.9 28.8 60.35 Q27.6 60.35 26.0 59.2 L24.8 58.0 24.6 58.0 24.8 57.75 Q23.9 58.5 22.75 58.5 L19.9 58.0 Q18.5 56.85 18.25 55.2 16.65 56.15 15.2 56.15 13.6 56.15 12.4 54.75 11.45 53.6 11.45 52.15 11.45 51.7 11.95 51.45 L12.2 51.0 12.2 50.75 Q11.45 51.2 10.8 51.2 9.4 51.2 8.9 50.3 8.2 49.35 8.2 48.2 8.2 46.8 8.9 45.85 10.1 44.65 11.7 44.65 12.65 44.65 13.35 45.35 L13.35 45.85 11.95 47.95 Q12.9 49.1 14.1 49.85 L14.3 50.05" fill="#ffe0fc" fill-rule="evenodd" stroke="none"/>
    <path d="M55.75 34.4 L59.95 32.95 59.95 33.2 64.4 39.5 Q64.4 41.6 62.05 43.5 L59.5 38.1 Q57.85 35.3 55.75 34.4 M18.75 32.75 Q21.1 33.9 23.9 34.6 L23.65 34.6 Q22.25 34.8 21.3 35.55 20.15 36.25 18.75 38.1 L17.1 40.25 17.1 40.45 16.65 41.4 16.65 42.1 16.65 42.35 16.4 42.1 14.3 40.45 15.45 38.6 18.5 33.45 18.75 32.75 M48.5 35.55 L49.45 35.3 49.65 35.3 53.4 34.6 54.1 37.65 55.25 44.65 54.1 40.9 Q52.95 38.1 52.25 37.85 L52.25 40.25 51.5 38.8 Q51.05 37.85 50.55 37.85 L50.55 38.35 50.55 39.05 50.55 43.5 48.25 35.75 48.5 35.55 M42.15 36.0 Q42.4 35.75 42.85 35.75 42.4 36.7 42.4 37.65 41.7 41.4 41.2 42.55 L41.2 40.25 40.75 37.85 Q40.3 38.6 40.05 42.35 L38.9 47.7 37.95 36.7 38.15 36.5 38.4 36.5 40.05 36.25 41.2 36.0 Q41.45 35.75 42.15 36.0 M26.7 35.55 L27.85 35.55 28.8 35.75 30.9 35.75 29.3 40.7 Q29.3 39.05 28.8 38.6 28.8 40.25 28.1 40.7 L27.85 38.35 27.85 36.95 Q26.95 38.1 26.25 40.25 25.75 41.6 25.3 45.35 L25.05 43.05 Q25.05 40.7 25.3 39.05 L25.3 35.05 Q26.7 35.3 26.7 35.55" fill="#7b299a" fill-rule="evenodd" stroke="none"/>
    <path d="M55.75 34.4 L55.5 34.15 55.5 34.4 55.25 34.4 53.4 34.6 49.65 35.3 49.45 35.3 48.5 35.55 48.5 35.3 42.85 35.75 42.4 35.75 38.4 35.75 30.25 35.55 25.3 34.6 24.35 34.6 23.9 34.6 Q21.1 33.9 18.75 32.75 L19.2 31.3 19.45 31.3 Q39.6 35.75 58.8 31.1 L59.95 32.95 55.75 34.4" fill="#ffa1b0" fill-rule="evenodd" stroke="none"/>
    <path d="M53.4 34.6 L55.25 34.4 55.5 34.4 55.5 34.15 55.75 34.4 Q57.85 35.3 59.5 38.1 L62.05 43.5 Q59.05 45.35 55.05 46.55 48.7 48.4 41.2 48.65 33.25 48.65 26.7 47.05 20.85 44.9 16.65 42.1 L16.65 41.4 17.1 40.45 17.1 40.25 18.75 38.1 Q20.15 36.25 21.3 35.55 22.25 34.8 23.65 34.6 L23.9 34.6 24.35 34.6 25.3 34.6 30.25 35.55 38.4 35.75 38.4 36.5 38.15 36.5 37.95 36.7 38.9 47.7 40.05 42.35 Q40.3 38.6 40.75 37.85 L41.2 40.25 41.2 42.55 Q41.7 41.4 42.4 37.65 42.4 36.7 42.85 35.75 L48.5 35.3 48.5 35.55 48.25 35.75 50.55 43.5 50.55 39.05 50.55 38.35 50.55 37.85 Q51.05 37.85 51.5 38.8 L52.25 40.25 52.25 37.85 Q52.95 38.1 54.1 40.9 L55.25 44.65 54.1 37.65 53.4 34.6 M42.4 35.75 L42.85 35.75 Q42.4 35.75 42.15 36.0 42.15 35.75 42.4 35.75 M59.25 42.55 L58.3 40.25 Q57.15 38.6 56.7 38.6 55.75 38.6 55.75 39.05 55.75 40.0 56.2 41.4 L56.9 43.5 57.35 43.75 58.55 43.5 Q59.25 43.05 59.25 42.55 M47.05 42.1 L46.6 41.85 Q45.2 41.85 44.5 43.05 44.0 44.0 44.0 46.3 L44.95 46.3 46.6 46.1 48.0 45.6 49.65 45.6 Q50.55 45.35 50.55 44.65 48.5 41.4 47.75 41.4 47.55 42.1 47.05 42.1 M26.7 35.55 Q26.7 35.3 25.3 35.05 L25.3 39.05 Q25.05 40.7 25.05 43.05 L25.3 45.35 Q25.75 41.6 26.25 40.25 26.95 38.1 27.85 36.95 L27.85 38.35 28.1 40.7 Q28.8 40.25 28.8 38.6 29.3 39.05 29.3 40.7 L30.9 35.75 28.8 35.75 27.85 35.55 26.7 35.55 M28.8 44.65 L29.5 45.15 Q30.25 46.3 31.6 46.55 L33.25 47.05 35.6 47.25 36.8 47.05 Q37.95 46.55 37.95 45.85 L37.7 44.65 37.05 42.8 36.8 41.4 36.8 39.75 35.35 39.75 34.4 39.3 Q33.05 39.3 32.35 40.45 31.4 41.4 31.15 42.55 30.9 42.35 30.9 41.6 L30.7 41.15 Q30.0 43.5 29.5 44.0 L28.8 43.75 28.55 44.4 28.8 44.65 M23.2 41.4 L23.2 39.5 Q23.2 38.6 22.25 38.6 21.8 38.6 21.1 40.25 20.85 40.25 20.85 40.7 20.4 41.85 20.4 42.55 20.4 43.05 21.8 43.75 22.95 44.65 23.45 44.65 L24.15 44.4 23.2 41.4" fill="#9f43cb" fill-rule="evenodd" stroke="none"/>
    <path d="M47.05 42.1 Q47.55 42.1 47.75 41.4 48.5 41.4 50.55 44.65 50.55 45.35 49.65 45.6 L48.0 45.6 46.6 46.1 44.95 46.3 44.0 46.3 Q44.0 44.0 44.5 43.05 45.2 41.85 46.6 41.85 L47.05 42.1 M59.25 42.55 Q59.25 43.05 58.55 43.5 L57.35 43.75 56.9 43.5 56.2 41.4 Q55.75 40.0 55.75 39.05 55.75 38.6 56.7 38.6 57.15 38.6 58.3 40.25 L59.25 42.55 M23.2 41.4 L24.15 44.4 23.45 44.65 Q22.95 44.65 21.8 43.75 20.4 43.05 20.4 42.55 20.4 41.85 20.85 40.7 20.85 40.25 21.1 40.25 21.8 38.6 22.25 38.6 23.2 38.6 23.2 39.5 L23.2 41.4 M28.8 44.65 L28.55 44.4 28.8 43.75 29.5 44.0 Q30.0 43.5 30.7 41.15 L30.9 41.6 Q30.9 42.35 31.15 42.55 31.4 41.4 32.35 40.45 33.05 39.3 34.4 39.3 L35.35 39.75 36.8 39.75 36.8 41.4 37.05 42.8 37.7 44.65 37.95 45.85 Q37.95 46.55 36.8 47.05 L35.6 47.25 33.25 47.05 31.6 46.55 Q30.25 46.3 29.5 45.15 L28.8 44.65" fill="#c26de9" fill-rule="evenodd" stroke="none"/>
    <path d="M64.4 39.5 L64.4 39.3 65.8 39.05 Q67.7 39.05 67.9 39.5 68.65 40.25 68.65 41.85 68.15 44.0 66.3 43.5 L66.75 44.2 66.5 44.65 66.05 46.3 63.45 46.8 Q62.55 46.8 62.05 47.7 61.6 48.65 60.15 48.65 L59.05 48.2 57.85 47.95 Q57.6 47.95 57.6 48.2 57.6 49.1 56.2 49.6 55.05 50.3 53.85 50.3 L51.05 50.05 49.2 49.1 Q48.95 50.05 47.75 50.75 46.15 51.45 44.75 51.45 43.6 51.45 42.85 50.75 L41.2 49.6 39.85 50.5 Q38.4 51.2 37.7 51.2 36.55 51.2 35.6 50.5 34.9 50.3 33.75 49.35 L32.55 50.3 30.7 50.75 Q29.75 50.75 28.35 50.05 L27.2 49.1 26.95 48.9 26.95 48.65 Q26.25 49.35 25.3 49.35 23.65 49.35 22.5 48.65 21.1 47.95 20.85 46.55 19.2 47.25 18.05 47.25 16.65 47.25 15.45 46.1 14.55 45.15 14.55 44.0 L14.55 43.3 14.55 42.8 13.35 43.3 Q12.2 43.3 11.45 42.35 10.8 41.4 10.8 40.7 10.3 39.3 11.05 38.35 11.7 37.65 13.35 37.65 14.55 37.65 15.0 38.1 L15.45 38.6 14.3 40.45 16.4 42.1 16.65 42.35 16.65 42.1 Q20.85 44.9 26.7 47.05 33.25 48.65 41.2 48.65 48.7 48.4 55.05 46.55 59.05 45.35 62.05 43.5 64.4 41.6 64.4 39.5" fill="#ffc6fe" fill-rule="evenodd" stroke="none"/>
    <path d="M54.1 27.1 L55.25 26.9 57.85 26.4 60.9 31.8 61.6 33.45 58.8 35.3 58.55 35.3 56.9 30.65 Q55.75 28.05 54.1 27.1 M17.35 30.65 L17.6 30.15 17.85 30.15 19.7 25.95 21.3 26.4 24.8 26.9 Q23.45 27.1 22.5 28.05 21.8 28.5 20.4 30.15 19.2 31.8 19.2 32.5 L18.95 33.2 18.95 33.7 18.75 33.7 Q17.6 32.95 16.65 32.5 L17.35 30.65 M26.25 27.85 L28.8 28.25 30.7 28.75 31.6 28.75 30.45 32.0 Q30.45 30.65 30.0 30.4 30.0 31.55 29.3 32.0 L28.8 29.2 Q27.6 29.95 27.2 31.55 26.7 32.5 26.0 35.3 L25.75 33.7 25.55 27.6 26.25 27.85 M38.4 28.5 L42.65 28.5 44.5 28.5 44.25 29.2 42.85 32.5 42.4 30.85 41.7 29.45 Q41.2 29.95 41.0 32.25 L39.1 35.75 38.9 32.75 Q38.4 29.7 38.4 28.5 M47.55 28.25 L52.0 27.85 Q52.25 27.6 52.95 27.6 53.6 29.0 54.55 32.95 54.3 32.0 53.4 31.1 53.2 30.4 52.7 30.15 52.0 29.2 51.5 29.2 L51.3 30.4 50.8 29.7 50.55 29.45 50.15 29.2 49.65 29.2 49.9 32.25 49.45 32.25 47.3 28.25 47.55 28.25" fill="#7b299a" fill-rule="evenodd" stroke="none"/>
    <path d="M24.8 26.9 L26.25 27.35 26.25 27.85 25.55 27.6 25.75 33.7 26.0 35.3 Q26.7 32.5 27.2 31.55 27.6 29.95 28.8 29.2 L29.3 32.0 Q30.0 31.55 30.0 30.4 30.45 30.65 30.45 32.0 L31.6 28.75 30.7 28.75 30.9 28.05 38.4 28.5 Q38.4 29.7 38.9 32.75 L39.1 35.75 41.0 32.25 Q41.2 29.95 41.7 29.45 L42.4 30.85 42.85 32.5 44.25 29.2 44.5 28.5 42.65 28.5 47.3 28.05 47.55 28.25 47.3 28.25 49.45 32.25 49.9 32.25 49.65 29.2 50.15 29.2 50.55 29.45 50.8 29.7 51.3 30.4 51.5 29.2 Q52.0 29.2 52.7 30.15 53.2 30.4 53.4 31.1 54.3 32.0 54.55 32.95 53.6 29.0 52.95 27.6 52.25 27.6 52.0 27.85 L51.75 27.6 54.1 27.1 Q55.75 28.05 56.9 30.65 L58.55 35.3 Q55.75 36.7 52.25 37.45 46.85 39.05 41.0 39.05 34.2 39.05 28.35 37.65 22.95 36.25 18.95 33.7 L18.95 33.2 19.2 32.5 Q19.2 31.8 20.4 30.15 21.8 28.5 22.5 28.05 23.45 27.1 24.8 26.9 M53.6 33.7 Q51.75 32.95 51.5 32.95 51.05 32.95 50.35 33.7 L48.95 34.15 47.75 33.7 46.85 33.2 Q44.95 33.2 44.25 33.7 43.6 34.15 43.35 35.05 L43.35 36.25 Q43.35 36.7 44.0 36.95 L45.2 36.95 50.55 36.5 Q55.5 35.75 55.5 34.6 55.5 33.9 54.8 33.9 L53.6 33.7 M22.0 33.7 L22.25 33.7 24.8 35.3 25.05 34.6 Q24.15 34.6 23.9 32.75 L23.45 30.4 Q23.45 30.85 22.75 31.3 22.25 31.8 21.8 31.55 21.55 32.0 21.55 32.5 21.55 33.2 22.0 33.7 M34.4 31.55 L31.85 33.7 Q30.9 33.9 30.25 34.6 L30.0 35.55 29.75 35.75 Q30.0 36.95 32.55 36.95 L36.1 37.2 37.25 36.95 Q38.15 36.95 38.15 36.5 L36.8 33.45 34.4 31.55" fill="#9f43cb" fill-rule="evenodd" stroke="none"/>
    <path d="M53.6 33.7 L54.8 33.9 Q55.5 33.9 55.5 34.6 55.5 35.75 50.55 36.5 L45.2 36.95 44.0 36.95 Q43.35 36.7 43.35 36.25 L43.35 35.05 Q43.6 34.15 44.25 33.7 44.95 33.2 46.85 33.2 L47.75 33.7 48.95 34.15 50.35 33.7 Q51.05 32.95 51.5 32.95 51.75 32.95 53.6 33.7 M34.4 31.55 L36.8 33.45 38.15 36.5 Q38.15 36.95 37.25 36.95 L36.1 37.2 32.55 36.95 Q30.0 36.95 29.75 35.75 L30.0 35.55 30.25 34.6 Q30.9 33.9 31.85 33.7 L34.4 31.55 M22.0 33.7 Q21.55 33.2 21.55 32.5 21.55 32.0 21.8 31.55 22.25 31.8 22.75 31.3 23.45 30.85 23.45 30.4 L23.9 32.75 Q24.15 34.6 25.05 34.6 L24.8 35.3 22.25 33.7 22.0 33.7" fill="#c26de9" fill-rule="evenodd" stroke="none"/>
    <path d="M60.9 31.8 L61.1 31.55 62.3 31.3 Q63.45 31.3 64.15 32.0 L64.4 33.45 64.15 33.9 Q63.45 35.55 62.3 35.3 L62.3 35.75 61.85 36.95 Q61.1 37.85 60.4 37.85 L59.25 37.85 58.8 38.35 58.55 38.8 Q58.3 38.8 58.1 39.05 57.6 39.5 56.7 39.5 56.0 39.5 55.25 39.05 L54.55 38.8 53.4 39.75 51.05 40.45 48.95 40.25 Q48.7 40.0 47.55 39.5 47.05 40.25 46.15 40.45 L43.8 41.4 Q42.85 41.15 42.15 40.7 41.2 40.25 40.75 39.75 40.05 40.25 39.35 40.45 L37.7 40.9 36.1 40.45 34.65 39.75 34.2 40.25 Q33.05 40.9 31.4 40.9 30.7 40.9 29.75 40.25 28.8 39.5 28.8 39.05 L28.55 39.05 27.45 39.5 24.8 39.05 Q23.45 38.6 23.2 37.2 22.0 38.1 20.85 38.1 19.7 38.1 18.5 36.95 17.35 36.25 17.1 35.3 L16.65 35.55 Q15.0 35.55 14.3 34.4 L13.85 33.7 13.6 32.5 Q13.6 31.8 14.1 31.3 L14.1 31.1 Q14.55 30.15 15.45 30.15 L17.1 30.15 17.35 30.65 16.65 32.5 Q17.6 32.95 18.75 33.7 L18.95 33.7 Q22.95 36.25 28.35 37.65 34.2 39.05 41.0 39.05 46.85 39.05 52.25 37.45 55.75 36.7 58.55 35.3 L58.8 35.3 61.6 33.45 60.9 31.8 M17.3 34.6 L17.1 34.4 16.95 34.4 17.3 34.6" fill="#f7b8ff" fill-rule="evenodd" stroke="none"/>
    <path d="M56.9 24.3 L57.85 26.4 Q53.4 28.5 46.4 29.2 39.1 30.15 34.4 29.45 L24.35 28.05 Q19.2 26.9 19.7 25.95 L20.15 23.85 20.15 23.6 Q39.1 29.0 56.9 24.3" fill="#c26de9" fill-rule="evenodd" stroke="none"/>
    <path d="M22.75 17.3 Q23.45 16.6 24.35 12.6 25.3 8.65 25.75 7.45 L28.8 7.45 Q28.35 10.0 28.55 13.55 L28.8 18.0 Q37.05 20.55 47.75 18.0 L48.5 12.6 Q48.95 9.05 48.7 7.2 L51.5 7.45 Q52.0 8.65 52.95 12.8 L54.35 18.0 53.4 18.25 52.0 18.65 Q50.55 19.15 50.15 19.4 49.2 19.85 45.9 22.2 44.5 22.9 44.0 23.35 L43.8 23.6 Q41.2 25.7 38.65 25.95 34.2 25.45 32.35 23.35 30.45 21.05 29.3 20.8 L27.6 19.85 Q25.55 18.45 22.75 17.3" fill="#7b299a" fill-rule="evenodd" stroke="none"/>
    <path d="M22.75 17.3 Q25.55 18.45 27.6 19.85 L29.3 20.8 Q30.45 21.05 32.35 23.35 34.2 25.45 38.65 25.95 41.2 25.7 43.8 23.6 L44.0 23.35 Q44.5 22.9 45.9 22.2 49.2 19.85 50.15 19.4 50.55 19.15 52.0 18.65 L53.4 18.25 54.35 18.0 Q55.5 20.8 57.15 22.4 L57.85 26.15 Q47.55 29.2 38.15 26.4 30.0 29.2 19.7 25.95 L19.7 22.65 Q21.1 20.8 22.75 17.3" fill="#af48e0" fill-rule="evenodd" stroke="none"/>
  </g>
</svg>
