<?xml version="1.0" encoding="UTF-8" standalone="no"?>
<svg xmlns:xlink="http://www.w3.org/1999/xlink" height="71.55px" width="71.05px" xmlns="http://www.w3.org/2000/svg">
  <g transform="matrix(1.0, 0.0, 0.0, 1.0, -3.95, 2.15)">
    <path d="M59.65 -1.15 Q74.0 -1.15 74.0 13.2 L74.0 54.05 Q74.0 68.4 59.65 68.4 L19.3 68.4 Q4.95 68.4 4.95 54.05 L4.95 13.2 Q4.95 -1.15 19.3 -1.15 L59.65 -1.15" fill="#cff3e8" fill-rule="evenodd" stroke="none"/>
    <path d="M50.45 8.55 Q50.9 9.0 51.1 10.5 L53.55 10.5 59.1 13.15 54.9 19.6 55.35 22.05 Q55.35 22.5 55.75 22.75 L56.45 26.3 56.45 26.5 59.3 31.6 59.55 31.4 60.65 31.15 Q61.95 31.15 62.4 31.85 L62.65 33.2 62.4 33.65 Q61.75 35.2 60.65 34.95 L60.65 35.4 60.45 35.85 62.65 38.95 62.65 38.75 64.0 38.5 Q65.75 38.5 66.0 38.95 66.9 39.65 66.65 41.15 66.45 43.2 64.65 42.75 L64.85 43.4 64.85 43.85 64.2 45.4 62.85 45.65 63.3 46.1 63.55 45.85 Q64.2 45.4 64.85 45.4 66.65 45.4 67.1 46.1 67.95 46.95 67.95 48.75 67.95 51.2 66.0 50.5 L66.0 51.2 66.0 51.85 Q66.0 53.4 65.75 53.4 L63.1 54.05 Q62.2 54.05 61.75 55.2 61.75 56.3 60.2 56.3 L58.65 55.85 57.55 55.4 57.35 55.4 57.35 55.6 Q57.35 56.5 56.0 57.65 54.65 58.5 53.3 58.5 51.8 58.5 50.2 57.65 L48.45 56.75 Q48.2 57.65 46.85 58.5 45.35 59.6 43.75 59.6 42.65 59.6 41.55 58.7 L39.8 57.65 38.45 58.5 36.45 59.15 Q35.1 59.15 34.2 58.5 33.35 58.3 32.2 57.2 L31.1 58.3 28.9 58.7 Q27.75 58.7 26.45 57.65 L25.1 56.5 24.85 56.5 25.1 56.3 Q24.25 56.95 23.35 56.95 L20.45 56.5 Q19.1 55.4 18.85 53.85 17.35 54.75 16.0 54.75 14.45 54.75 13.55 53.4 12.65 52.3 12.65 50.95 L12.85 50.3 13.1 49.85 13.1 49.6 11.8 50.05 Q10.65 50.05 10.0 49.2 9.3 48.3 9.3 47.15 9.3 45.85 10.2 44.95 11.1 43.85 12.65 43.85 13.55 43.85 14.2 44.5 L14.2 44.95 15.35 43.6 15.35 43.2 15.35 42.5 15.35 42.05 14.2 42.5 Q13.1 42.5 12.4 41.6 11.8 40.7 11.8 40.1 11.35 38.75 12.0 37.85 12.85 37.15 14.2 37.15 15.35 37.15 15.75 37.6 L16.2 38.05 18.0 35.2 17.8 34.95 17.35 35.2 Q16.0 35.2 15.1 34.1 L14.65 33.4 14.45 32.3 Q14.45 31.6 14.9 31.15 L14.9 31.0 Q15.35 30.1 16.2 30.1 L17.8 30.1 18.0 30.55 18.25 30.1 18.45 30.1 20.2 26.05 20.2 22.95 21.35 21.4 21.55 19.15 17.35 13.15 22.45 10.05 25.55 10.3 26.0 8.55 28.9 8.55 28.9 10.3 47.75 10.3 47.75 8.3 50.45 8.55 M18.0 34.3 L17.8 34.1 17.65 34.1 18.0 34.3" fill="#bf6b6b" fill-rule="evenodd" stroke="none"/>
    <path d="M50.45 8.55 Q50.9 9.0 51.1 10.5 L53.55 10.5 59.1 13.15 54.9 19.6 55.35 22.05 Q55.35 22.5 55.75 22.75 L56.45 26.3 56.45 26.5 59.3 31.6 59.55 31.4 60.65 31.15 Q61.95 31.15 62.4 31.85 L62.65 33.2 62.4 33.65 Q61.75 35.2 60.65 34.95 L60.65 35.4 60.45 35.85 62.65 38.95 62.65 38.75 64.0 38.5 Q65.75 38.5 66.0 38.95 66.9 39.65 66.65 41.15 66.45 43.2 64.65 42.75 L64.85 43.4 64.85 43.85 64.2 45.4 62.85 45.65 63.3 46.1 63.55 45.85 Q64.2 45.4 64.85 45.4 66.65 45.4 67.1 46.1 67.95 46.95 67.95 48.75 67.95 51.2 66.0 50.5 L66.0 51.2 66.0 51.85 Q66.0 53.4 65.75 53.4 L63.1 54.05 Q62.2 54.05 61.75 55.2 61.75 56.3 60.2 56.3 L58.65 55.85 57.55 55.4 57.35 55.4 57.35 55.6 Q57.35 56.5 56.0 57.65 54.65 58.5 53.3 58.5 51.8 58.5 50.2 57.65 L48.45 56.75 Q48.2 57.65 46.85 58.5 45.35 59.6 43.75 59.6 42.65 59.6 41.55 58.7 L39.8 57.65 38.45 58.5 36.45 59.15 Q35.1 59.15 34.2 58.5 33.35 58.3 32.2 57.2 L31.1 58.3 28.9 58.7 Q27.75 58.7 26.45 57.65 L25.1 56.5 24.85 56.5 25.1 56.3 Q24.25 56.95 23.35 56.95 L20.45 56.5 Q19.1 55.4 18.85 53.85 17.35 54.75 16.0 54.75 14.45 54.75 13.55 53.4 12.65 52.3 12.65 50.95 L12.85 50.3 13.1 49.85 13.1 49.6 11.8 50.05 Q10.65 50.05 10.0 49.2 9.3 48.3 9.3 47.15 9.3 45.85 10.2 44.95 11.1 43.85 12.65 43.85 13.55 43.85 14.2 44.5 L14.2 44.95 15.35 43.6 15.35 43.2 15.35 42.5 15.35 42.05 14.2 42.5 Q13.1 42.5 12.4 41.6 11.8 40.7 11.8 40.1 11.35 38.75 12.0 37.85 12.85 37.15 14.2 37.15 15.35 37.15 15.75 37.6 L16.2 38.05 18.0 35.2 17.8 34.95 17.35 35.2 Q16.0 35.2 15.1 34.1 L14.65 33.4 14.45 32.3 Q14.45 31.6 14.9 31.15 L14.9 31.0 Q15.35 30.1 16.2 30.1 L17.8 30.1 18.0 30.55 18.25 30.1 18.45 30.1 20.2 26.05 20.2 22.95 21.35 21.4 21.55 19.15 17.35 13.15 22.45 10.05 25.55 10.3 26.0 8.55 28.9 8.55 28.9 10.3 47.75 10.3 47.75 8.3 50.45 8.55 Z" fill="none" stroke="#4c0e62" stroke-linecap="round" stroke-linejoin="round" stroke-width="0.8"/>
    <path d="M19.75 32.75 L21.1 33.2 26.65 34.5 33.1 35.4 39.1 35.65 50.0 34.3 56.65 32.95 58.45 44.75 Q38.65 49.2 18.45 44.5 L19.75 32.75" fill="#dae3e9" fill-rule="evenodd" stroke="none"/>
    <path d="M52.25 10.5 L53.55 10.5 59.1 13.15 54.9 19.6 56.65 32.95 50.0 34.3 39.1 35.65 33.1 35.4 26.65 34.5 21.1 33.2 19.75 32.75 21.55 19.15 17.35 13.15 22.45 10.05 23.8 10.05 Q26.9 16.75 36.25 16.75 51.1 17.4 52.25 10.5" fill="#c8c8c8" fill-rule="evenodd" stroke="none"/>
    <path d="M52.25 10.5 Q51.1 17.4 36.25 16.75 26.9 16.75 23.8 10.05 L52.25 10.5" fill="#a2a2a2" fill-rule="evenodd" stroke="none"/>
    <path d="M47.3 41.6 L47.55 42.05 47.3 42.05 49.55 48.05 49.75 48.05 49.55 45.4 49.75 45.4 49.55 43.95 49.55 43.4 50.45 44.05 51.1 45.2 51.1 43.4 Q52.0 43.85 53.1 46.1 L54.2 48.95 53.3 44.05 Q52.4 42.05 52.25 40.95 L54.2 40.5 Q56.65 41.6 58.45 44.5 L61.55 50.75 Q58.45 52.5 54.45 53.85 48.0 56.05 40.0 56.3 32.0 56.5 24.85 54.3 19.1 52.3 15.1 48.95 L15.35 48.05 16.0 46.95 Q16.0 46.5 17.8 44.75 19.55 42.5 20.65 41.85 21.75 41.15 23.35 40.7 L24.65 41.15 29.55 41.85 37.3 42.3 37.3 42.95 38.0 51.2 38.9 46.95 39.55 43.85 40.2 45.4 40.4 47.15 41.1 43.85 41.3 42.75 41.1 42.75 41.3 42.05 47.3 41.6 M24.65 41.15 L24.45 46.1 24.25 47.4 24.25 49.4 Q24.85 46.25 25.55 45.2 26.0 43.85 27.1 42.5 L27.35 45.65 Q27.75 45.4 28.0 43.85 28.45 44.5 28.45 45.65 L29.55 42.3 29.35 42.05 24.65 41.15 M47.75 48.95 Q46.85 47.85 45.35 47.85 43.1 48.05 42.65 50.05 41.55 52.1 39.55 52.7 37.3 53.4 35.1 50.05 33.8 50.5 32.45 51.2 L28.2 49.2 25.75 51.2 Q24.65 51.2 23.8 50.3 22.9 49.6 22.9 48.3 23.35 46.1 22.45 44.75 L18.0 48.05 Q17.8 49.2 18.45 49.85 L21.1 51.2 Q24.25 52.3 27.75 52.95 32.0 55.4 36.0 53.6 L37.3 53.4 39.55 54.5 Q41.75 55.6 45.55 54.05 48.65 54.5 51.8 52.95 56.0 52.95 58.85 50.3 L58.85 49.85 Q58.65 48.05 56.9 47.6 L56.2 48.3 55.75 49.2 54.9 50.5 52.25 49.85 Q51.1 50.5 50.45 51.2 48.9 50.5 47.75 48.95" fill="#9f43cb" fill-rule="evenodd" stroke="none"/>
    <path d="M47.55 42.05 L52.25 40.95 Q52.4 42.05 53.3 44.05 L54.2 48.95 53.1 46.1 Q52.0 43.85 51.1 43.4 L51.1 45.2 50.45 44.05 49.55 43.4 49.55 43.95 49.55 45.4 49.75 48.05 49.55 48.05 47.3 42.05 47.55 42.05 M41.3 42.05 L41.1 42.75 41.3 42.75 41.1 43.85 40.4 47.15 40.2 45.4 39.55 43.85 38.9 46.95 38.0 51.2 37.3 42.95 37.3 42.3 41.3 42.05 M24.65 41.15 L29.35 42.05 29.55 42.3 28.45 45.65 Q28.45 44.5 28.0 43.85 27.75 45.4 27.35 45.65 L27.1 42.5 Q26.0 43.85 25.55 45.2 24.85 46.25 24.25 49.4 L24.25 47.4 24.45 46.1 24.65 41.15 M23.35 40.7 Q21.75 41.15 20.65 41.85 19.55 42.5 17.8 44.75 16.0 46.5 16.0 46.95 L15.35 48.05 15.1 48.95 14.9 48.75 Q13.75 48.05 12.85 46.95 L14.2 44.95 18.25 39.65 19.75 40.1 23.35 40.7 M61.55 50.75 L58.45 44.5 Q56.65 41.6 54.2 40.5 L56.0 40.1 58.45 39.65 63.3 46.1 64.85 48.05 61.75 50.5 Q61.55 50.5 61.55 50.75" fill="#7b299a" fill-rule="evenodd" stroke="none"/>
    <path d="M47.75 48.95 Q48.9 50.5 50.45 51.2 51.1 50.5 52.25 49.85 L54.9 50.5 55.75 49.2 56.2 48.3 56.9 47.6 Q58.65 48.05 58.85 49.85 L58.85 50.3 Q56.0 52.95 51.8 52.95 48.65 54.5 45.55 54.05 41.75 55.6 39.55 54.5 L37.3 53.4 36.0 53.6 Q32.0 55.4 27.75 52.95 24.25 52.3 21.1 51.2 L18.45 49.85 Q17.8 49.2 18.0 48.05 L22.45 44.75 Q23.35 46.1 22.9 48.3 22.9 49.6 23.8 50.3 24.65 51.2 25.75 51.2 L28.2 49.2 32.45 51.2 Q33.8 50.5 35.1 50.05 37.3 53.4 39.55 52.7 41.55 52.1 42.65 50.05 43.1 48.05 45.35 47.85 46.85 47.85 47.75 48.95" fill="#c26de9" fill-rule="evenodd" stroke="none"/>
    <path d="M52.25 40.95 L47.3 41.6 41.3 42.05 37.3 42.3 29.55 41.85 24.65 41.15 23.35 40.7 19.75 40.1 18.25 39.65 19.3 37.6 19.55 37.4 Q38.45 42.05 57.35 37.15 L58.45 39.65 56.0 40.1 54.2 40.5 52.25 40.95" fill="#fc889b" fill-rule="evenodd" stroke="none"/>
    <path d="M15.1 48.95 Q19.1 52.3 24.85 54.3 32.0 56.5 40.0 56.3 48.0 56.05 54.45 53.85 58.45 52.5 61.55 50.75 61.55 50.5 61.75 50.5 L64.85 48.05 63.3 46.1 63.55 45.85 Q64.0 45.4 64.85 45.4 66.45 45.4 67.1 46.1 67.95 46.95 67.95 48.75 67.95 51.2 66.0 50.5 L66.0 51.2 66.0 51.85 Q66.0 53.4 65.75 53.4 L63.1 54.05 Q62.2 54.05 61.75 55.2 61.55 56.3 60.2 56.3 L58.65 55.85 57.55 55.4 57.35 55.4 57.35 55.6 Q57.35 56.5 56.0 57.65 54.65 58.5 53.3 58.5 51.8 58.5 50.2 57.65 L48.45 56.75 Q48.2 57.65 46.85 58.5 45.35 59.6 43.75 59.6 42.65 59.6 41.55 58.7 L39.8 57.65 38.45 58.5 36.45 59.15 Q35.1 59.15 34.2 58.5 33.35 58.3 32.2 57.2 L30.85 58.3 28.9 58.7 Q27.75 58.7 26.2 57.65 L25.1 56.5 24.85 56.5 25.1 56.3 Q24.25 56.95 23.1 56.95 L20.45 56.5 Q19.1 55.4 18.85 53.85 17.35 54.75 16.0 54.75 14.45 54.75 13.3 53.4 12.4 52.3 12.4 50.95 12.4 50.5 12.85 50.3 L13.1 49.85 13.1 49.6 11.8 50.05 Q10.45 50.05 10.0 49.2 9.3 48.3 9.3 47.15 9.3 45.85 10.0 44.95 11.1 43.85 12.65 43.85 13.55 43.85 14.2 44.5 L14.2 44.95 12.85 46.95 Q13.75 48.05 14.9 48.75 L15.1 48.95" fill="#ffe0fc" fill-rule="evenodd" stroke="none"/>
    <path d="M54.45 34.1 L58.45 32.75 58.45 32.95 62.65 38.95 Q62.65 40.95 60.45 42.75 L58.0 37.6 Q56.45 34.95 54.45 34.1 M19.3 32.5 Q21.55 33.65 24.25 34.3 L24.0 34.3 Q22.65 34.5 21.75 35.2 20.65 35.85 19.3 37.6 L17.8 39.65 17.8 39.85 17.35 40.7 17.35 41.4 17.35 41.6 17.1 41.4 15.1 39.85 16.2 38.05 19.1 33.2 19.3 32.5 M47.55 35.2 L48.45 34.95 48.65 34.95 52.25 34.3 52.85 37.15 54.0 43.85 52.85 40.25 Q51.8 37.6 51.1 37.4 L51.1 39.65 50.45 38.3 Q50.0 37.4 49.55 37.4 L49.55 37.85 49.55 38.5 49.55 42.75 47.3 35.4 47.55 35.2 M41.55 35.65 Q41.75 35.4 42.2 35.4 41.75 36.3 41.75 37.15 41.1 40.7 40.65 41.85 L40.65 39.65 40.2 37.4 Q39.8 38.05 39.55 41.6 L38.45 46.7 Q38.0 39.4 37.55 36.3 L37.75 36.05 38.0 36.05 39.55 35.85 40.65 35.65 Q40.85 35.4 41.55 35.65 M26.9 35.2 L28.0 35.2 28.9 35.4 30.85 35.4 29.35 40.1 Q29.35 38.5 28.9 38.05 28.9 39.65 28.2 40.1 L28.0 37.85 28.0 36.5 Q27.1 37.6 26.45 39.65 26.0 40.95 25.55 44.5 L25.3 42.3 Q25.3 40.1 25.55 38.5 L25.55 34.75 Q26.9 34.95 26.9 35.2" fill="#7b299a" fill-rule="evenodd" stroke="none"/>
    <path d="M54.45 34.1 L54.2 33.85 54.2 34.1 54.0 34.1 52.25 34.3 48.65 34.95 48.45 34.95 47.55 35.2 47.55 34.95 42.2 35.4 41.75 35.4 38.0 35.4 30.25 35.2 25.55 34.3 24.65 34.3 24.25 34.3 Q21.55 33.65 19.3 32.5 L19.75 31.15 20.0 31.15 Q39.1 35.4 57.35 31.0 L58.45 32.75 54.45 34.1" fill="#ffa1b0" fill-rule="evenodd" stroke="none"/>
    <path d="M52.25 34.3 L54.0 34.1 54.2 34.1 54.2 33.85 54.45 34.1 Q56.45 34.95 58.0 37.6 L60.45 42.75 Q57.55 44.5 53.75 45.65 47.75 47.4 40.65 47.6 33.1 47.6 26.9 46.1 21.35 44.05 17.35 41.4 L17.35 40.7 17.8 39.85 17.8 39.65 19.3 37.6 Q20.65 35.85 21.75 35.2 22.65 34.5 24.0 34.3 L24.25 34.3 24.65 34.3 25.55 34.3 30.25 35.2 38.0 35.4 38.0 36.05 37.75 36.05 37.55 36.3 Q38.0 39.4 38.45 46.7 L39.55 41.6 Q39.8 38.05 40.2 37.4 L40.65 39.65 40.65 41.85 Q41.1 40.7 41.75 37.15 41.75 36.3 42.2 35.4 L47.55 34.95 47.55 35.2 47.3 35.4 49.55 42.75 49.55 38.5 49.55 37.85 49.55 37.4 Q50.0 37.4 50.45 38.3 L51.1 39.65 51.1 37.4 Q51.8 37.6 52.85 40.25 L54.0 43.85 52.85 37.15 52.25 34.3 M41.75 35.4 L42.2 35.4 Q41.75 35.4 41.55 35.65 41.55 35.4 41.75 35.4 M46.2 41.4 L45.8 41.15 Q44.45 41.15 43.75 42.3 43.3 43.2 43.3 45.4 L44.2 45.4 45.8 45.2 47.1 44.75 48.65 44.75 Q49.55 44.5 49.55 43.85 47.55 40.7 46.85 40.7 46.65 41.4 46.2 41.4 M57.8 41.85 L56.9 39.65 Q55.75 38.05 55.35 38.05 54.45 38.05 54.45 38.5 54.45 39.4 54.9 40.7 L55.55 42.75 Q55.75 42.95 56.0 42.95 L57.1 42.75 Q57.8 42.3 57.8 41.85 M26.9 35.2 Q26.9 34.95 25.55 34.75 L25.55 38.5 Q25.3 40.1 25.3 42.3 L25.55 44.5 Q26.0 40.95 26.45 39.65 27.1 37.6 28.0 36.5 L28.0 37.85 28.2 40.1 Q28.9 39.65 28.9 38.05 29.35 38.5 29.35 40.1 L30.85 35.4 28.9 35.4 28.0 35.2 26.9 35.2 M23.55 40.7 L23.55 38.95 Q23.55 38.05 22.65 38.05 22.2 38.05 21.55 39.65 21.35 39.65 21.35 40.1 20.9 41.15 20.9 41.85 20.9 42.3 22.2 42.95 23.35 43.85 23.8 43.85 L24.45 43.6 23.55 40.7 M29.55 43.2 L28.9 42.95 28.65 43.6 28.9 43.85 29.55 44.3 Q30.25 45.4 31.55 45.65 L33.1 46.1 35.35 46.25 36.45 46.1 Q37.55 45.65 37.55 44.95 L37.3 43.85 36.65 42.05 36.45 40.7 36.45 39.2 35.1 39.2 34.2 38.75 Q32.9 38.75 32.2 39.85 31.3 40.7 31.1 41.85 30.85 41.6 30.85 40.95 L30.7 40.5 Q30.0 42.75 29.55 43.2" fill="#9f43cb" fill-rule="evenodd" stroke="none"/>
    <path d="M46.2 41.4 Q46.65 41.4 46.85 40.7 47.55 40.7 49.55 43.85 49.55 44.5 48.65 44.75 L47.1 44.75 45.8 45.2 44.2 45.4 43.3 45.4 Q43.3 43.2 43.75 42.3 44.45 41.15 45.8 41.15 L46.2 41.4 M57.8 41.85 Q57.8 42.3 57.1 42.75 L56.0 42.95 Q55.75 42.95 55.55 42.75 L54.9 40.7 Q54.45 39.4 54.45 38.5 54.45 38.05 55.35 38.05 55.75 38.05 56.9 39.65 L57.8 41.85 M29.55 43.2 Q30.0 42.75 30.7 40.5 L30.85 40.95 Q30.85 41.6 31.1 41.85 31.3 40.7 32.2 39.85 32.9 38.75 34.2 38.75 L35.1 39.2 36.45 39.2 36.45 40.7 36.65 42.05 37.3 43.85 37.55 44.95 Q37.55 45.65 36.45 46.1 L35.35 46.25 33.1 46.1 31.55 45.65 Q30.25 45.4 29.55 44.3 L28.9 43.85 28.65 43.6 28.9 42.95 29.55 43.2 M23.55 40.7 L24.45 43.6 23.8 43.85 Q23.35 43.85 22.2 42.95 20.9 42.3 20.9 41.85 20.9 41.15 21.35 40.1 21.35 39.65 21.55 39.65 22.2 38.05 22.65 38.05 23.55 38.05 23.55 38.95 L23.55 40.7" fill="#c26de9" fill-rule="evenodd" stroke="none"/>
    <path d="M62.65 38.95 L62.65 38.75 64.0 38.5 Q65.75 38.5 66.0 38.95 66.65 39.65 66.65 41.15 66.2 43.2 64.45 42.75 L64.85 43.4 64.65 43.85 64.2 45.4 61.75 45.85 Q60.9 45.85 60.45 46.7 60.0 47.6 58.65 47.6 L57.55 47.15 56.45 46.95 Q56.2 46.95 56.2 47.15 56.2 48.05 54.9 48.5 53.75 49.2 52.65 49.2 L50.0 48.95 48.2 48.05 Q48.0 48.95 46.85 49.6 45.35 50.3 44.0 50.3 42.9 50.3 42.2 49.6 L40.65 48.5 39.35 49.4 37.3 50.05 Q36.25 50.05 35.35 49.4 L33.55 48.3 32.45 49.2 30.7 49.6 Q29.8 49.6 28.45 48.95 L27.35 48.05 27.1 47.85 27.1 47.6 Q26.45 48.3 25.55 48.3 24.0 48.3 22.9 47.6 21.55 46.95 21.35 45.65 19.75 46.25 18.65 46.25 17.35 46.25 16.2 45.2 15.35 44.3 15.35 43.2 L15.35 42.5 15.35 42.05 14.2 42.5 Q13.1 42.5 12.4 41.6 11.8 40.7 11.8 40.1 11.35 38.75 12.0 37.85 12.65 37.15 14.2 37.15 15.35 37.15 15.75 37.6 L16.2 38.05 15.1 39.85 17.1 41.4 17.35 41.6 17.35 41.4 Q21.35 44.05 26.9 46.1 33.1 47.6 40.65 47.6 47.75 47.4 53.75 45.65 57.55 44.5 60.45 42.75 62.65 40.95 62.65 38.95" fill="#ffc6fe" fill-rule="evenodd" stroke="none"/>
    <path d="M52.85 27.2 Q54.45 28.05 55.55 30.55 L57.1 34.95 Q54.45 36.3 51.1 36.95 46.0 38.5 40.4 38.5 34.0 38.5 28.45 37.15 23.35 35.85 19.55 33.4 L19.55 32.95 19.75 32.3 Q19.75 31.6 20.9 30.1 L22.9 28.05 Q23.8 27.2 25.1 26.95 L26.45 27.4 26.45 27.85 25.75 27.65 26.0 33.4 26.2 34.95 Q26.9 32.3 27.35 31.4 27.75 29.85 28.9 29.2 L29.35 31.85 Q30.0 31.4 30.0 30.3 30.45 30.55 30.45 31.85 L31.55 28.75 30.7 28.75 30.85 28.05 38.0 28.5 Q38.0 29.65 38.45 32.5 L38.65 35.4 40.4 32.05 Q40.65 29.85 41.1 29.4 L41.75 30.75 42.2 32.3 43.55 29.2 43.75 28.5 42.0 28.5 46.4 28.05 46.65 28.3 46.4 28.3 48.45 32.05 48.9 32.05 48.65 29.2 49.1 29.2 49.55 29.4 49.75 29.65 50.2 30.3 50.45 29.2 Q50.9 29.2 51.55 30.1 52.0 30.3 52.25 31.0 53.05 31.8 53.3 32.7 L51.8 27.65 50.9 27.85 50.65 27.65 52.85 27.2 M54.2 34.3 Q54.2 33.65 53.55 33.65 L52.4 33.4 50.45 32.75 49.3 33.4 48.0 33.85 46.85 33.4 46.0 32.95 Q44.2 32.95 43.55 33.4 42.9 33.85 42.65 34.75 L42.65 35.85 Q42.65 36.3 43.3 36.5 L44.45 36.5 49.55 36.05 Q54.2 35.4 54.2 34.3 M34.2 31.4 L31.75 33.4 Q30.85 33.65 30.25 34.3 L30.0 35.2 29.8 35.4 Q30.0 36.5 32.45 36.5 L35.8 36.75 36.9 36.5 Q37.75 36.5 37.75 36.05 L36.45 33.2 34.2 31.4 M22.0 32.3 Q22.0 32.95 22.45 33.4 L22.65 33.4 25.1 34.95 25.3 34.3 Q24.45 34.3 24.25 32.5 L23.8 30.3 23.1 31.15 Q22.65 31.6 22.2 31.4 L22.0 32.3" fill="#9f43cb" fill-rule="evenodd" stroke="none"/>
    <path d="M57.1 34.95 L55.55 30.55 Q54.45 28.05 52.85 27.2 L54.0 26.95 56.45 26.5 59.3 31.6 60.0 33.2 57.35 34.95 57.1 34.95 M50.9 27.85 L51.8 27.65 53.3 32.7 Q53.05 31.8 52.25 31.0 52.0 30.3 51.55 30.1 50.9 29.2 50.45 29.2 L50.2 30.3 49.75 29.65 49.55 29.4 49.1 29.2 48.65 29.2 48.9 32.05 48.45 32.05 46.4 28.3 46.65 28.3 50.9 27.85 M42.0 28.5 L43.75 28.5 43.55 29.2 42.2 32.3 41.75 30.75 41.1 29.4 Q40.65 29.85 40.4 32.05 L38.65 35.4 38.45 32.5 Q38.0 29.65 38.0 28.5 L42.0 28.5 M30.7 28.75 L31.55 28.75 30.45 31.85 Q30.45 30.55 30.0 30.3 30.0 31.4 29.35 31.85 L28.9 29.2 Q27.75 29.85 27.35 31.4 26.9 32.3 26.2 34.95 L26.0 33.4 25.75 27.65 26.45 27.85 28.9 28.3 30.7 28.75 M25.1 26.95 Q23.8 27.2 22.9 28.05 L20.9 30.1 Q19.75 31.6 19.75 32.3 L19.55 32.95 19.55 33.4 19.3 33.4 17.35 32.3 18.0 30.55 18.25 30.1 18.45 30.1 20.2 26.05 21.75 26.5 25.1 26.95" fill="#7b299a" fill-rule="evenodd" stroke="none"/>
    <path d="M54.2 34.3 Q54.2 35.4 49.55 36.05 L44.45 36.5 43.3 36.5 Q42.65 36.3 42.65 35.85 L42.65 34.75 Q42.9 33.85 43.55 33.4 44.2 32.95 46.0 32.95 L46.85 33.4 48.0 33.85 49.3 33.4 50.45 32.75 52.4 33.4 53.55 33.65 Q54.2 33.65 54.2 34.3 M34.2 31.4 L36.45 33.2 37.75 36.05 Q37.75 36.5 36.9 36.5 L35.8 36.75 32.45 36.5 Q30.0 36.5 29.8 35.4 L30.0 35.2 30.25 34.3 Q30.85 33.65 31.75 33.4 L34.2 31.4 M22.0 32.3 L22.2 31.4 Q22.65 31.6 23.1 31.15 L23.8 30.3 24.25 32.5 Q24.45 34.3 25.3 34.3 L25.1 34.95 22.65 33.4 22.45 33.4 Q22.0 32.95 22.0 32.3" fill="#c26de9" fill-rule="evenodd" stroke="none"/>
    <path d="M19.55 33.4 Q23.35 35.85 28.45 37.15 34.0 38.5 40.4 38.5 46.0 38.5 51.1 36.95 54.45 36.3 57.1 34.95 L57.35 34.95 60.0 33.2 59.3 31.6 59.55 31.4 60.65 31.15 Q61.75 31.15 62.4 31.85 L62.65 33.2 62.4 33.65 Q61.75 35.2 60.65 34.95 L60.65 35.4 60.2 36.5 Q59.55 37.4 58.85 37.4 L57.8 37.4 57.35 37.85 Q57.1 38.05 57.1 38.3 56.9 38.3 56.65 38.5 56.2 38.95 55.35 38.95 54.65 38.95 54.0 38.5 L53.3 38.3 52.25 39.2 50.0 39.85 48.0 39.65 46.65 38.95 Q46.2 39.65 45.35 39.85 L43.1 40.7 Q42.2 40.5 41.55 40.1 L40.2 39.2 38.9 39.85 Q38.0 40.25 37.3 40.25 36.45 40.25 35.8 39.85 L34.45 39.2 34.0 39.65 Q32.9 40.25 31.3 40.25 30.7 40.25 29.8 39.65 28.9 38.95 28.9 38.5 L28.65 38.5 Q28.0 38.95 27.55 38.95 L25.1 38.5 Q23.8 38.05 23.55 36.75 22.45 37.6 21.35 37.6 20.2 37.6 19.1 36.5 18.0 35.85 17.8 34.95 L17.35 35.2 Q15.75 35.2 15.1 34.1 L14.65 33.4 14.45 32.3 Q14.45 31.6 14.9 31.15 L14.9 31.0 Q15.35 30.1 16.2 30.1 L17.8 30.1 18.0 30.55 17.35 32.3 19.3 33.4 19.55 33.4 M17.8 34.1 L17.65 34.1 18.0 34.3 17.8 34.1" fill="#f7b8ff" fill-rule="evenodd" stroke="none"/>
    <path d="M56.45 26.5 Q52.25 28.5 45.55 29.2 38.65 30.1 34.2 29.4 L24.65 28.05 Q19.75 26.95 20.2 26.05 L20.65 24.1 20.65 23.85 Q38.65 28.95 55.55 24.55 L56.45 26.5" fill="#c26de9" fill-rule="evenodd" stroke="none"/>
    <path d="M23.1 17.85 Q23.8 17.2 24.65 13.4 25.55 9.65 26.0 8.55 L28.9 8.55 Q28.45 10.95 28.65 14.3 L28.9 18.55 Q36.65 20.95 46.85 18.55 L47.55 13.4 Q48.0 10.05 47.75 8.3 L50.45 8.55 51.8 13.6 53.1 18.55 52.25 18.75 50.9 19.15 Q49.55 19.6 49.1 19.85 48.2 20.3 45.1 22.5 L43.3 23.65 43.1 23.85 Q40.65 25.85 38.2 26.05 34.0 25.6 32.2 23.65 30.45 21.4 29.35 21.2 L27.75 20.3 Q25.75 18.95 23.1 17.85" fill="#7b299a" fill-rule="evenodd" stroke="none"/>
    <path d="M23.1 17.85 Q25.75 18.95 27.75 20.3 L29.35 21.2 Q30.45 21.4 32.2 23.65 34.0 25.6 38.2 26.05 40.65 25.85 43.1 23.85 L43.3 23.65 45.1 22.5 Q48.2 20.3 49.1 19.85 49.55 19.6 50.9 19.15 L52.25 18.75 53.1 18.55 Q54.2 21.2 55.75 22.75 L56.45 26.3 Q46.65 29.2 37.75 26.5 30.0 29.2 20.2 26.05 L20.2 22.95 Q21.55 21.2 23.1 17.85" fill="#af48e0" fill-rule="evenodd" stroke="none"/>
    <path d="M59.65 -1.15 Q74.0 -1.15 74.0 13.2 L74.0 54.05 Q74.0 68.4 59.65 68.4 L19.3 68.4 Q4.95 68.4 4.95 54.05 L4.95 13.2 Q4.95 -1.15 19.3 -1.15 L59.65 -1.15" fill="#000000" fill-opacity="0.2509804" fill-rule="evenodd" stroke="none"/>
    <path d="M59.65 -1.15 L19.3 -1.15 Q4.95 -1.15 4.95 13.2 L4.95 54.05 Q4.95 68.4 19.3 68.4 L59.65 68.4 Q74.0 68.4 74.0 54.05 L74.0 13.2 Q74.0 -1.15 59.65 -1.15 Z" fill="none" stroke="#666666" stroke-linecap="round" stroke-linejoin="round" stroke-opacity="0.9019608" stroke-width="2.0"/>
  </g>
</svg>
