<?xml version="1.0" encoding="UTF-8" standalone="no"?>
<svg xmlns:xlink="http://www.w3.org/1999/xlink" height="69.55px" width="69.05px" xmlns="http://www.w3.org/2000/svg">
  <g transform="matrix(1.0, 0.0, 0.0, 1.0, 2.9, 2.0)">
    <path d="M51.8 -2.0 Q66.15 -2.0 66.15 12.35 L66.15 53.2 Q66.15 67.55 51.8 67.55 L11.45 67.55 Q-2.9 67.55 -2.9 53.2 L-2.9 12.35 Q-2.9 -2.0 11.45 -2.0 L51.8 -2.0" fill="#cff3e8" fill-rule="evenodd" stroke="none"/>
    <path d="M51.55 36.55 L51.8 39.0 52.0 39.9 Q54.2 44.1 55.35 49.7 L56.0 53.9 Q45.55 59.0 33.75 57.05 L32.4 51.25 31.3 57.05 Q19.1 59.0 8.4 53.9 8.4 52.15 9.05 50.35 L9.5 47.45 Q10.4 44.35 12.4 40.15 L13.3 35.9 15.5 18.55 12.15 13.65 16.65 8.75 48.45 8.95 53.6 14.3 49.8 19.0 51.35 34.75 51.55 34.75 51.55 36.55" fill="#923ebd" fill-rule="evenodd" stroke="none"/>
    <path d="M51.55 36.55 L51.8 39.0 52.0 39.9 Q54.2 44.1 55.35 49.7 L56.0 53.9 Q45.55 59.0 33.75 57.05 L32.4 51.25 31.3 57.05 Q19.1 59.0 8.4 53.9 8.4 52.15 9.05 50.35 L9.5 47.45 Q10.4 44.35 12.4 40.15 L13.3 35.9 15.5 18.55 12.15 13.65 16.65 8.75 48.45 8.95 53.6 14.3 49.8 19.0 51.35 34.75 51.55 34.75 51.55 36.55 Z" fill="none" stroke="#4c0e62" stroke-linecap="round" stroke-linejoin="round" stroke-width="0.8"/>
    <path d="M45.55 39.0 L32.4 40.15 21.95 39.45 20.6 39.25 18.65 39.0 18.2 39.0 Q15.5 33.9 19.3 8.75 L46.2 8.95 Q48.2 32.35 45.55 39.0" fill="#933abf" fill-rule="evenodd" stroke="none"/>
    <path d="M46.2 8.95 L48.45 8.95 53.6 14.3 49.8 19.0 51.35 35.0 51.35 37.9 47.35 38.8 45.55 39.0 Q48.2 32.35 46.2 8.95 M18.2 39.0 L16.4 38.55 12.85 38.1 15.5 18.55 12.15 13.65 16.65 8.75 19.3 8.75 Q15.5 33.9 18.2 39.0" fill="#74299a" fill-rule="evenodd" stroke="none"/>
    <path d="M46.45 36.55 Q49.1 35.9 51.55 34.75 L51.55 36.55 47.35 37.9 Q47.1 37.0 46.45 36.55 M51.8 39.0 L52.0 39.9 Q51.8 39.9 51.55 40.15 L50.45 40.35 50.25 40.6 50.0 40.6 Q49.1 40.75 48.2 41.2 L48.2 40.15 Q49.55 39.45 51.35 39.0 L51.8 39.0 M12.4 40.15 L12.4 39.0 12.6 39.0 Q13.95 39.25 15.3 39.9 15.05 40.35 15.05 41.0 L13.05 40.35 12.4 40.15 M13.05 36.55 L13.5 35.0 17.05 36.55 16.4 37.45 13.05 36.55" fill="#d9c5ec" fill-rule="evenodd" stroke="none"/>
    <path d="M47.35 37.9 L48.2 40.15 46.9 40.15 Q31.3 44.1 15.95 40.15 L15.3 39.9 Q15.5 38.55 16.4 37.45 31.75 41.45 47.35 37.9" fill="#e0c5fa" fill-rule="evenodd" stroke="none"/>
    <path d="M47.35 37.9 L51.55 36.55 51.8 39.0 51.35 39.0 Q49.55 39.45 48.2 40.15 L47.35 37.9 M12.4 39.0 L13.05 36.55 16.4 37.45 Q15.5 38.55 15.3 39.9 13.95 39.25 12.6 39.0 L12.4 39.0" fill="#bb9dd7" fill-rule="evenodd" stroke="none"/>
    <path d="M46.45 36.55 Q47.1 37.0 47.35 37.9 31.75 41.45 16.4 37.45 L17.05 36.55 22.85 37.9 Q30.4 38.35 35.5 38.1 41.55 37.9 46.45 36.55 M15.3 39.9 L15.95 40.15 Q31.3 44.1 46.9 40.15 L48.2 40.15 48.2 41.2 Q40.9 43.25 32.4 43.25 L20.15 42.35 17.05 41.45 15.05 41.0 Q15.05 40.35 15.3 39.9" fill="#f6eeff" fill-rule="evenodd" stroke="none"/>
    <path d="M48.2 41.2 Q49.1 40.75 50.0 40.6 51.55 43.9 52.25 47.45 52.7 50.8 51.8 51.7 L51.1 51.7 Q49.35 52.4 49.35 51.45 L48.0 47.9 Q48.0 52.15 46.2 52.85 44.4 53.9 41.35 53.7 38.0 53.7 36.4 53.0 34.65 52.6 34.65 50.8 L34.65 48.6 Q34.65 47.7 36.65 47.25 L29.95 47.25 28.65 47.45 28.2 47.45 Q29.5 47.9 29.95 48.6 30.4 49.05 30.2 50.8 29.95 52.85 28.45 53.25 27.05 53.9 25.1 53.9 L18.85 53.45 Q15.3 52.6 15.3 49.7 L15.05 49.7 Q14.15 51.7 13.3 51.25 L12.15 50.55 12.15 49.7 13.3 45.0 Q13.7 42.35 14.6 41.2 L15.05 41.0 17.05 41.45 20.15 42.35 32.4 43.25 Q40.9 43.25 48.2 41.2 M42.2 45.9 L40.9 46.35 Q39.55 46.6 38.65 47.25 L38.2 47.7 38.0 48.35 37.75 48.8 37.55 49.5 Q36.85 50.55 36.85 51.25 36.85 51.95 37.75 52.15 L39.3 52.15 Q40.9 52.15 42.0 50.35 43.1 48.6 43.1 46.8 L43.1 46.15 Q42.9 45.9 42.2 45.9 M19.75 49.25 L19.75 49.5 Q19.75 51.45 21.05 51.7 L23.75 52.4 25.3 52.6 26.15 51.95 Q26.85 51.45 26.85 50.55 26.85 49.5 26.15 48.6 25.1 48.15 24.65 47.45 L23.05 46.35 Q22.4 45.7 21.3 45.7 20.4 45.7 19.95 46.6 19.75 46.8 19.75 47.45 L19.75 48.8 19.75 49.25" fill="#b784e4" fill-rule="evenodd" stroke="none"/>
    <path d="M33.1 53.9 L32.4 51.25 32.0 53.45 Q30.4 56.6 23.95 55.9 14.85 55.25 10.4 52.6 9.5 51.95 9.75 51.0 10.8 44.55 13.05 40.35 L15.05 41.0 14.6 41.2 Q13.7 42.35 13.3 45.0 L12.15 49.7 12.15 50.55 13.3 51.25 Q14.15 51.7 15.05 49.7 L15.3 49.7 Q15.3 52.6 18.85 53.45 L25.1 53.9 Q27.05 53.9 28.45 53.25 29.95 52.85 30.2 50.8 30.4 49.05 29.95 48.6 29.5 47.9 28.2 47.45 L28.65 47.45 29.95 47.25 36.65 47.25 Q34.65 47.7 34.65 48.6 L34.65 50.8 Q34.65 52.6 36.4 53.0 38.0 53.7 41.35 53.7 44.4 53.9 46.2 52.85 48.0 52.15 48.0 47.9 L49.35 51.45 Q49.35 52.4 51.1 51.7 L51.8 51.7 Q52.7 50.8 52.25 47.45 51.55 43.9 50.0 40.6 L50.25 40.6 50.45 40.35 51.55 40.15 Q54.9 48.6 55.1 49.9 55.1 51.7 54.65 52.6 54.2 53.45 50.45 54.8 46.45 55.9 38.85 56.35 34.0 56.8 33.1 53.9" fill="#a46ad9" fill-rule="evenodd" stroke="none"/>
    <path d="M42.2 45.9 Q42.9 45.9 43.1 46.15 L43.1 46.8 Q43.1 48.6 42.0 50.35 40.9 52.15 39.3 52.15 L37.75 52.15 Q36.85 51.95 36.85 51.25 36.85 50.55 37.55 49.5 L37.75 48.8 38.0 48.35 38.2 47.7 38.65 47.25 Q39.55 46.6 40.9 46.35 L42.2 45.9 M19.75 49.25 L19.75 48.8 19.75 47.45 Q19.75 46.8 19.95 46.6 20.4 45.7 21.3 45.7 22.4 45.7 23.05 46.35 L24.65 47.45 Q25.1 48.15 26.15 48.6 26.85 49.5 26.85 50.55 26.85 51.45 26.15 51.95 L25.3 52.6 23.75 52.4 21.05 51.7 Q19.75 51.45 19.75 49.5 L19.75 49.25" fill="#d0aef0" fill-rule="evenodd" stroke="none"/>
    <path d="M52.0 39.9 Q54.0 44.1 55.35 49.7 L56.0 53.9 Q45.55 59.0 33.55 57.05 L33.1 53.9 Q34.0 56.8 38.85 56.35 46.45 55.9 50.45 54.8 54.2 53.45 54.65 52.6 55.1 51.7 55.1 49.9 54.9 48.6 51.55 40.15 51.8 39.9 52.0 39.9 M32.0 53.45 L31.1 57.05 Q19.1 59.0 8.4 53.9 8.4 52.15 9.05 50.35 L9.5 47.45 Q10.4 44.35 12.4 40.15 L13.05 40.35 Q10.8 44.55 9.75 51.0 9.5 51.95 10.4 52.6 14.85 55.25 23.95 55.9 30.4 56.6 32.0 53.45" fill="#803ebd" fill-rule="evenodd" stroke="none"/>
    <path d="M22.0 42.15 Q19.5 43.45 18.35 41.2 L19.55 35.05 Q21.85 33.6 23.0 36.0 L22.0 42.15 M46.85 36.3 Q45.45 35.0 44.6 36.55 L45.9 41.0 Q47.2 42.15 48.2 40.65 L46.85 36.3 M19.2 40.65 Q19.8 42.25 21.4 41.35 L22.15 36.85 Q21.5 35.05 20.05 36.05 L19.2 40.65 M45.45 42.15 L43.7 36.15 Q44.6 33.85 47.15 34.95 L49.0 40.95 Q47.7 43.55 45.45 42.15" fill="#5d1185" fill-rule="evenodd" stroke="none"/>
    <path d="M19.2 40.65 L20.05 36.05 Q21.5 35.05 22.15 36.85 L21.4 41.35 Q19.8 42.25 19.2 40.65 M46.85 36.3 L48.2 40.65 Q47.2 42.15 45.9 41.0 L44.6 36.55 Q45.45 35.0 46.85 36.3" fill="#803ebd" fill-rule="evenodd" stroke="none"/>
    <path d="M34.25 13.1 Q34.25 14.4 35.2 15.3 36.15 16.2 37.4 16.2 38.7 16.2 39.7 15.3 40.6 14.4 40.6 13.1 40.6 11.75 39.7 10.8 38.7 9.9 37.4 9.9 36.15 9.9 35.2 10.8 34.25 11.75 34.25 13.1" fill="#fad7ff" fill-rule="evenodd" stroke="none"/>
    <path d="M39.9 17.85 Q39.9 16.5 38.95 15.55 38.0 14.6 36.6 14.6 35.25 14.6 34.3 15.55 33.35 16.5 33.35 17.85 33.35 19.25 34.3 20.2 35.25 21.15 36.6 21.15 38.0 21.15 38.95 20.2 39.9 19.25 39.9 17.85" fill="#fad7ff" fill-rule="evenodd" stroke="none"/>
    <path d="M39.9 23.2 Q39.9 21.75 38.9 20.75 37.85 19.75 36.4 19.75 35.0 19.75 34.0 20.75 32.95 21.75 32.95 23.2 32.95 24.65 34.0 25.6 35.0 26.65 36.4 26.65 37.85 26.65 38.9 25.6 39.9 24.65 39.9 23.2" fill="#fad7ff" fill-rule="evenodd" stroke="none"/>
    <path d="M40.15 30.6 Q40.2 29.2 39.2 28.2 38.25 27.2 36.85 27.2 35.45 27.15 34.4 28.05 33.4 29.05 33.35 30.45 33.35 31.85 34.3 32.85 35.25 33.85 36.65 33.9 38.05 33.9 39.1 33.0 40.15 32.0 40.15 30.6" fill="#fad7ff" fill-rule="evenodd" stroke="none"/>
    <path d="M35.7 33.95 Q35.7 32.45 34.65 31.4 33.6 30.4 32.1 30.4 30.65 30.4 29.6 31.4 28.6 32.45 28.6 33.95 28.6 35.4 29.6 36.4 30.65 37.45 32.1 37.45 33.6 37.45 34.65 36.4 35.7 35.4 35.7 33.95" fill="#fad7ff" fill-rule="evenodd" stroke="none"/>
    <path d="M29.75 12.1 Q29.75 13.5 28.8 14.45 27.75 15.4 26.4 15.4 25.0 15.4 24.0 14.45 23.0 13.5 23.0 12.1 23.0 10.7 24.0 9.65 25.0 8.7 26.4 8.7 27.75 8.7 28.8 9.65 29.75 10.7 29.75 12.1" fill="#fad7ff" fill-rule="evenodd" stroke="none"/>
    <path d="M23.85 18.65 Q23.85 17.2 24.85 16.15 25.9 15.15 27.35 15.15 28.8 15.15 29.8 16.15 30.85 17.2 30.85 18.65 30.85 20.1 29.8 21.1 28.8 22.1 27.35 22.1 25.9 22.1 24.85 21.1 23.85 20.1 23.85 18.65" fill="#fad7ff" fill-rule="evenodd" stroke="none"/>
    <path d="M28.25 20.1 Q29.65 20.1 30.65 21.1 31.7 22.15 31.7 23.55 31.7 25.0 30.65 26.0 29.65 27.0 28.25 27.0 26.8 27.0 25.75 26.0 24.8 25.0 24.8 23.55 24.8 22.15 25.75 21.1 26.8 20.1 28.25 20.1" fill="#fad7ff" fill-rule="evenodd" stroke="none"/>
    <path d="M23.55 30.8 Q23.55 29.4 24.55 28.4 25.55 27.45 26.95 27.45 28.35 27.45 29.3 28.4 30.3 29.4 30.3 30.8 30.3 32.2 29.3 33.15 28.35 34.15 26.95 34.15 25.55 34.15 24.55 33.15 23.55 32.2 23.55 30.8" fill="#fad7ff" fill-rule="evenodd" stroke="none"/>
    <path d="M33.5 8.8 L33.55 8.8 Q35.55 8.8 36.95 10.35 38.3 11.9 38.3 14.05 L38.3 28.9 Q38.3 31.0 36.95 32.5 35.55 34.05 33.55 34.05 L33.5 34.05 Q31.5 34.05 30.05 32.5 28.6 31.0 28.6 28.9 L28.6 14.05 Q28.6 11.9 30.05 10.35 31.5 8.8 33.5 8.8 M36.15 11.35 Q35.1 10.0 33.55 10.0 32.0 10.0 30.9 11.35 29.8 12.75 29.8 14.7 L29.8 28.1 Q29.8 30.0 30.9 31.4 32.0 32.75 33.55 32.75 35.1 32.75 36.15 31.4 37.2 30.0 37.2 28.1 L37.2 27.95 37.2 14.7 Q37.2 12.75 36.15 11.35" fill="#74299a" fill-rule="evenodd" stroke="none"/>
    <path d="M36.15 11.35 Q37.2 12.75 37.2 14.7 L37.2 27.95 37.2 28.1 Q37.2 30.0 36.15 31.4 35.1 32.75 33.55 32.75 32.0 32.75 30.9 31.4 29.8 30.0 29.8 28.1 L29.8 14.7 Q29.8 12.75 30.9 11.35 32.0 10.0 33.55 10.0 35.1 10.0 36.15 11.35" fill="#e6befa" fill-rule="evenodd" stroke="none"/>
    <path d="M34.3 17.65 Q34.95 18.3 34.95 19.25 34.95 20.15 34.3 20.75 33.65 21.4 32.75 21.4 31.85 21.4 31.2 20.75 30.55 20.15 30.55 19.25 30.55 18.3 31.2 17.65 31.85 17.05 32.75 17.05 33.65 17.05 34.3 17.65" fill="#ca6be4" fill-rule="evenodd" stroke="none"/>
    <path d="M34.3 22.8 Q34.95 23.45 34.95 24.4 34.95 25.3 34.3 25.9 33.65 26.55 32.75 26.55 31.85 26.55 31.2 25.9 30.55 25.3 30.55 24.4 30.55 23.45 31.2 22.8 31.85 22.2 32.75 22.2 33.65 22.2 34.3 22.8" fill="#ca6be4" fill-rule="evenodd" stroke="none"/>
    <path d="M35.0 12.05 Q35.6 12.65 35.6 13.55 35.6 14.45 35.0 15.1 34.3 15.75 33.45 15.75 32.5 15.75 31.85 15.1 31.25 14.45 31.25 13.55 31.25 12.65 31.85 12.05 32.5 11.4 33.45 11.4 34.3 11.4 35.0 12.05" fill="#ca6be4" fill-rule="evenodd" stroke="none"/>
    <path d="M34.3 27.95 Q34.95 28.6 34.95 29.55 34.95 30.45 34.3 31.05 33.65 31.7 32.75 31.7 31.85 31.7 31.2 31.05 30.55 30.45 30.55 29.55 30.55 28.6 31.2 27.95 31.85 27.35 32.75 27.35 33.65 27.35 34.3 27.95" fill="#ca6be4" fill-rule="evenodd" stroke="none"/>
  </g>
</svg>
