<?xml version="1.0" encoding="UTF-8" standalone="no"?>
<svg xmlns:xlink="http://www.w3.org/1999/xlink" height="59.45px" width="56.45px" xmlns="http://www.w3.org/2000/svg">
  <g transform="matrix(1.0, 0.0, 0.0, 1.0, -5.65, -7.5)">
    <path d="M56.1 9.85 L56.35 17.9 56.55 30.3 57.05 42.2 58.75 49.45 Q59.2 52.85 60.0 56.0 L60.95 59.9 61.7 62.3 Q45.65 67.7 34.95 66.2 L34.95 63.8 34.75 59.9 31.1 59.9 31.1 63.8 30.85 65.75 Q20.4 68.4 6.05 61.85 L6.6 59.4 6.8 57.25 8.45 47.3 Q9.0 44.15 9.7 40.95 L10.2 7.95 56.1 7.95 56.1 9.85" fill="#272121" fill-rule="evenodd" stroke="none"/>
    <path d="M56.1 9.85 L56.1 7.95 10.2 7.95 9.7 40.95 Q9.0 44.15 8.45 47.3 L6.8 57.25 6.6 59.4 6.05 61.85 Q20.4 68.4 30.85 65.75 L31.1 63.8 31.1 59.9 34.75 59.9 34.95 63.8 34.95 66.2 Q45.65 67.7 61.7 62.3 L60.95 59.9 60.0 56.0 Q59.2 52.85 58.75 49.45 L57.05 42.2 56.55 30.3 56.35 17.9 56.1 9.85 Z" fill="none" stroke="#000000" stroke-linecap="round" stroke-linejoin="round" stroke-width="0.8"/>
    <path d="M39.1 7.95 L56.1 7.95 56.1 9.85 56.35 17.9 56.55 30.3 Q55.1 25.9 52.9 22.5 51.7 20.3 50.5 18.85 50.5 18.4 50.0 18.15 48.55 16.15 46.6 14.25 L44.45 12.05 41.75 9.85 39.1 7.95 M60.95 59.9 L61.7 62.3 56.8 63.8 Q46.1 66.7 38.1 66.45 L37.9 64.05 Q40.6 64.3 43.25 64.05 L44.9 63.8 Q50.5 63.3 55.85 61.85 56.35 61.85 56.55 61.65 L60.95 59.9 M31.1 63.8 L30.85 65.75 27.65 66.45 Q20.4 67.15 11.4 64.05 L6.05 61.85 6.6 59.4 Q8.75 60.6 11.2 61.65 L13.15 62.3 15.8 63.05 Q21.85 64.5 27.95 64.05 L31.1 63.8 M9.7 30.3 L10.2 7.95 28.4 7.95 25.2 9.85 20.15 14.0 20.15 14.25 Q18.2 15.7 17.25 17.2 L14.1 22.0 13.15 23.95 Q11.4 26.6 9.7 30.3" fill="#181212" fill-rule="evenodd" stroke="none"/>
    <path d="M39.1 7.95 L41.75 9.85 44.45 12.05 46.6 14.25 44.9 16.15 43.25 17.65 39.8 19.85 38.1 20.3 Q35.45 21.3 33.25 21.3 31.35 21.3 28.65 20.3 27.45 19.85 26.45 19.1 25.45 18.85 24.55 18.4 L24.05 18.15 Q22.35 16.95 20.65 14.75 L20.15 14.25 20.15 14.0 25.2 9.85 28.4 7.95 39.1 7.95" fill="#a6a6a6" fill-rule="evenodd" stroke="none"/>
    <path d="M46.6 14.25 Q48.55 16.15 50.0 18.15 50.5 18.4 50.5 18.85 51.7 20.3 52.9 22.5 L53.9 26.4 54.15 32.45 54.15 38.3 Q52.45 36.35 52.45 35.6 52.45 34.9 52.9 33.4 53.9 32.2 53.9 31.75 53.9 29.55 50.25 28.8 L47.15 28.1 44.9 28.8 Q42.45 29.8 41.75 30.3 41.5 30.75 41.75 32.7 41.75 34.2 40.3 35.6 38.35 37.05 38.35 38.3 38.35 39.25 39.55 40.0 40.3 40.95 41.3 40.95 42.2 40.95 43.25 40.25 L45.15 40.0 Q46.35 40.0 48.3 42.65 50.5 45.3 52.65 45.3 L54.15 45.05 Q54.4 47.5 56.1 52.85 L56.35 56.7 Q55.35 58.2 55.35 59.65 55.35 61.65 55.6 61.85 L55.85 61.85 Q50.5 63.3 44.9 63.8 L45.15 62.3 Q45.15 61.15 44.2 60.6 L41.3 59.65 Q40.6 59.4 39.1 57.25 L38.6 57.25 40.8 54.85 Q35.2 56.25 29.9 56.0 L30.6 54.85 Q30.6 52.85 31.1 51.65 31.1 50.95 32.05 49.2 32.8 47.75 32.8 46.8 32.8 45.8 32.05 44.4 31.1 42.9 29.9 42.9 28.9 42.9 28.15 43.6 27.45 44.4 26.95 44.4 26.25 44.4 25.0 42.9 L24.05 42.2 23.8 42.4 Q22.8 43.15 22.8 44.4 L23.6 45.8 24.05 47.3 25.75 48.25 26.95 49.2 Q27.2 49.7 26.95 52.85 L27.45 54.85 27.65 55.5 24.55 55.1 28.65 58.4 27.95 64.05 Q21.85 64.5 15.8 63.05 L17.25 62.55 18.2 62.8 19.45 63.05 Q23.8 63.05 23.8 60.85 23.8 59.2 22.55 58.4 L19.7 58.4 Q18.2 58.4 17.25 56.25 L16.75 55.1 Q16.0 56.0 15.3 58.9 14.75 61.65 13.15 61.85 L13.15 62.3 11.2 61.65 11.2 60.6 11.4 59.65 12.1 58.9 Q13.35 57.95 13.35 57.0 13.35 56.25 12.1 54.05 L11.9 53.85 12.35 52.1 Q13.35 46.8 13.35 45.55 12.9 41.7 12.6 36.85 12.9 36.85 12.9 37.05 14.35 38.75 14.35 41.45 L13.85 44.4 13.6 46.55 Q13.6 48.0 15.55 48.0 17.5 48.0 18.9 45.8 20.4 43.4 20.4 40.95 20.4 40.0 19.45 38.3 18.45 36.6 18.45 36.1 18.45 34.9 20.9 32.95 23.3 30.75 23.3 28.8 23.3 28.35 22.35 28.35 21.85 28.35 19.45 29.8 16.75 31.95 15.55 31.95 14.75 31.95 12.9 31.0 L12.6 31.0 12.6 29.05 13.15 23.95 14.1 22.0 17.25 17.2 Q18.2 15.7 20.15 14.25 L20.65 14.75 Q22.35 16.95 24.05 18.15 L22.8 18.15 21.85 18.15 Q21.85 17.2 21.3 16.95 20.65 16.95 19.45 17.4 18.2 17.65 17.75 18.4 L16.75 20.55 16.5 21.55 16.25 22.25 16.25 23.0 17.25 23.25 21.85 23.75 Q22.8 23.75 24.75 21.55 26.0 20.3 26.45 19.1 27.45 19.85 28.65 20.3 31.35 21.3 33.25 21.3 35.45 21.3 38.1 20.3 L39.8 19.85 Q40.8 20.05 41.05 20.55 41.3 22.5 41.5 22.5 L43.25 22.7 45.65 22.25 Q46.6 21.55 46.6 20.3 L43.25 17.65 44.9 16.15 46.6 14.25 M41.3 24.95 Q40.6 24.2 39.35 24.2 38.6 24.2 36.7 24.95 34.75 25.65 33.25 25.65 32.55 25.65 31.35 24.95 29.9 24.2 29.6 24.2 28.65 24.2 27.65 25.2 26.95 26.15 26.95 26.85 L26.45 29.8 Q26.95 31.95 28.65 34.2 31.1 37.3 33.0 37.3 34.25 37.3 35.65 35.1 37.4 32.7 37.4 30.75 37.4 29.3 40.05 28.55 42.45 28.1 42.45 26.6 42.45 25.4 41.3 24.95 M41.5 45.8 Q39.35 48.0 39.35 49.2 39.35 50.7 42.2 51.4 44.9 52.65 45.9 54.05 L46.1 57.75 Q46.6 59.4 48.55 59.4 51.5 59.4 51.5 55.75 51.5 54.55 50.75 52.85 50.0 51.4 49.55 51.2 48.3 50.4 48.3 49.2 L48.55 47.3 Q48.55 45.8 47.15 44.65 45.9 43.4 44.9 43.4 43.7 43.4 41.5 45.8 M22.1 50.95 Q22.1 49.7 20.9 49.2 20.4 48.95 18.65 49.95 L18.2 49.95 Q18.2 50.95 19.15 51.65 20.15 52.65 21.1 52.65 22.1 52.65 22.1 50.95" fill="#ffffff" fill-rule="evenodd" stroke="none"/>
    <path d="M60.0 56.0 L60.95 59.9 56.55 61.65 Q56.35 61.85 55.85 61.85 L55.6 61.85 Q55.35 61.65 55.35 59.65 55.35 58.2 56.35 56.7 57.6 55.5 58.75 55.5 59.2 55.5 60.0 56.0 M6.8 57.25 L8.45 47.3 8.75 47.3 Q9.95 46.55 10.2 46.55 11.4 46.55 11.4 48.0 L11.2 50.7 Q11.2 51.85 11.9 53.85 L12.1 54.05 Q13.35 56.25 13.35 57.0 13.35 57.95 12.1 58.9 L11.4 59.65 10.65 59.65 Q9.0 59.65 7.3 58.2 6.8 57.75 6.8 57.25 M43.25 17.65 L46.6 20.3 Q46.6 21.55 45.65 22.25 L43.25 22.7 41.5 22.5 Q41.3 22.5 41.05 20.55 40.8 20.05 39.8 19.85 L43.25 17.65 M26.45 19.1 Q26.0 20.3 24.75 21.55 22.8 23.75 21.85 23.75 L17.25 23.25 16.25 23.0 16.25 22.25 16.5 21.55 16.75 20.55 17.75 18.4 Q18.2 17.65 19.45 17.4 20.65 16.95 21.3 16.95 21.85 17.2 21.85 18.15 L22.8 18.15 24.05 18.15 24.55 18.4 Q25.45 18.85 26.45 19.1 M12.6 31.0 L12.9 31.0 Q14.75 31.95 15.55 31.95 16.75 31.95 19.45 29.8 21.85 28.35 22.35 28.35 23.3 28.35 23.3 28.8 23.3 30.75 20.9 32.95 18.45 34.9 18.45 36.1 18.45 36.6 19.45 38.3 20.4 40.0 20.4 40.95 20.4 43.4 18.9 45.8 17.5 48.0 15.55 48.0 13.6 48.0 13.6 46.55 L13.85 44.4 14.35 41.45 Q14.35 38.75 12.9 37.05 12.9 36.85 12.6 36.85 11.65 35.35 11.65 33.95 L11.65 32.95 11.9 32.95 12.35 31.55 12.35 31.25 Q12.35 31.0 12.6 31.0 M13.15 62.3 L13.15 61.85 Q14.75 61.65 15.3 58.9 16.0 56.0 16.75 55.1 L17.25 56.25 Q18.2 58.4 19.7 58.4 L22.55 58.4 Q23.8 59.2 23.8 60.85 23.8 63.05 19.45 63.05 L18.2 62.8 17.25 62.55 15.8 63.05 13.15 62.3 M27.65 55.5 L27.45 54.85 26.95 52.85 Q27.2 49.7 26.95 49.2 L25.75 48.25 24.05 47.3 23.6 45.8 22.8 44.4 Q22.8 43.15 23.8 42.4 L24.05 42.2 25.0 42.9 Q26.25 44.4 26.95 44.4 27.45 44.4 28.15 43.6 28.9 42.9 29.9 42.9 31.1 42.9 32.05 44.4 32.8 45.8 32.8 46.8 32.8 47.75 32.05 49.2 31.1 50.95 31.1 51.65 30.6 52.85 30.6 54.85 L29.9 56.0 28.65 56.0 Q28.15 56.0 27.65 55.5 M38.6 57.25 L39.1 57.25 Q40.6 59.4 41.3 59.65 L44.2 60.6 Q45.15 61.15 45.15 62.3 L44.9 63.8 43.25 64.05 Q40.6 64.3 37.9 64.05 L36.9 58.4 38.6 57.25 M54.15 45.05 L52.65 45.3 Q50.5 45.3 48.3 42.65 46.35 40.0 45.15 40.0 L43.25 40.25 Q42.2 40.95 41.3 40.95 40.3 40.95 39.55 40.0 38.35 39.25 38.35 38.3 38.35 37.05 40.3 35.6 41.75 34.2 41.75 32.7 41.5 30.75 41.75 30.3 42.45 29.8 44.9 28.8 L47.15 28.1 50.25 28.8 Q53.9 29.55 53.9 31.75 53.9 32.2 52.9 33.4 52.45 34.9 52.45 35.6 52.45 36.35 54.15 38.3 55.85 40.25 55.85 42.2 55.85 43.4 54.9 44.65 54.4 44.65 54.15 45.05 M41.5 45.8 Q43.7 43.4 44.9 43.4 45.9 43.4 47.15 44.65 48.55 45.8 48.55 47.3 L48.3 49.2 Q48.3 50.4 49.55 51.2 50.0 51.4 50.75 52.85 51.5 54.55 51.5 55.75 51.5 59.4 48.55 59.4 46.6 59.4 46.1 57.75 L45.9 54.05 Q44.9 52.65 42.2 51.4 39.35 50.7 39.35 49.2 39.35 48.0 41.5 45.8 M41.3 24.95 Q42.45 25.4 42.45 26.6 42.45 28.1 40.05 28.55 37.4 29.3 37.4 30.75 37.4 32.7 35.65 35.1 34.25 37.3 33.0 37.3 31.1 37.3 28.65 34.2 26.95 31.95 26.45 29.8 L26.95 26.85 Q26.95 26.15 27.65 25.2 28.65 24.2 29.6 24.2 29.9 24.2 31.35 24.95 32.55 25.65 33.25 25.65 34.75 25.65 36.7 24.95 38.6 24.2 39.35 24.2 40.6 24.2 41.3 24.95 M22.1 50.95 Q22.1 52.65 21.1 52.65 20.15 52.65 19.15 51.65 18.2 50.95 18.2 49.95 L18.65 49.95 Q20.4 48.95 20.9 49.2 22.1 49.7 22.1 50.95" fill="#1e1e1e" fill-rule="evenodd" stroke="none"/>
    <path d="M52.9 22.5 Q55.1 25.9 56.55 30.3 56.55 33.7 57.05 42.2 L58.75 49.45 Q59.2 52.85 60.0 56.0 59.2 55.5 58.75 55.5 57.6 55.5 56.35 56.7 L56.1 52.85 Q54.4 47.5 54.15 45.05 54.4 44.65 54.9 44.65 55.85 43.4 55.85 42.2 55.85 40.25 54.15 38.3 L54.15 32.45 53.9 26.4 52.9 22.5 M33.75 59.9 L31.1 59.9 31.1 63.8 27.95 64.05 28.65 58.4 24.55 55.1 27.65 55.5 Q28.15 56.0 28.65 56.0 L29.9 56.0 Q35.2 56.25 40.8 54.85 L38.6 57.25 Q37.65 55.75 36.9 55.75 36.7 55.75 35.45 56.7 L33.75 58.4 33.75 59.9 M6.6 59.4 L6.8 57.25 Q6.8 57.75 7.3 58.2 9.0 59.65 10.65 59.65 L11.4 59.65 11.2 60.6 11.2 61.65 Q8.75 60.6 6.6 59.4 M8.45 47.3 Q9.0 44.15 9.7 40.95 L9.7 30.3 Q11.4 26.6 13.15 23.95 L12.6 29.05 12.6 31.0 Q12.35 31.0 12.35 31.25 L12.35 31.55 11.9 32.95 11.65 32.95 11.65 33.95 Q11.65 35.35 12.6 36.85 12.9 41.7 13.35 45.55 13.35 46.8 12.35 52.1 L11.9 53.85 Q11.2 51.85 11.2 50.7 L11.4 48.0 Q11.4 46.55 10.2 46.55 9.95 46.55 8.75 47.3 L8.45 47.3" fill="#989696" fill-rule="evenodd" stroke="none"/>
    <path d="M34.95 63.8 L34.75 59.9 33.75 59.9 33.75 58.4 35.45 56.7 Q36.7 55.75 36.9 55.75 37.65 55.75 38.6 57.25 L36.9 58.4 37.9 64.05 34.95 63.8" fill="#0b0b0b" fill-rule="evenodd" stroke="none"/>
    <path d="M38.1 66.45 L34.95 66.2 34.95 63.8 37.9 64.05 38.1 66.45" fill="#000000" fill-rule="evenodd" stroke="none"/>
    <path d="M32.8 21.3 L34.5 21.3 34.0 60.1 32.05 60.1 32.8 21.3" fill="#181212" fill-rule="evenodd" stroke="none"/>
    <path d="M48.1 7.5 L51.7 7.5 51.25 9.0 48.3 15.8 Q45.9 20.4 42.0 22.85 37.4 26.0 31.1 25.0 20.65 24.05 15.8 12.15 L13.85 7.5 18.0 7.5 Q19.45 12.65 22.35 16.05 25.2 19.45 28.4 20.4 L33.0 21.4 37.15 20.6 Q40.05 20.15 43.0 17.0 45.9 13.6 48.1 7.5" fill="#181212" fill-rule="evenodd" stroke="none"/>
  </g>
</svg>
