<?xml version="1.0" encoding="UTF-8" standalone="no"?>
<svg xmlns:xlink="http://www.w3.org/1999/xlink" height="71.55px" width="71.05px" xmlns="http://www.w3.org/2000/svg">
  <g transform="matrix(1.0, 0.0, 0.0, 1.0, 2.2, -0.35)">
    <path d="M53.5 1.35 Q67.85 1.35 67.85 15.7 L67.85 56.55 Q67.85 70.9 53.5 70.9 L13.15 70.9 Q-1.2 70.9 -1.2 56.55 L-1.2 15.7 Q-1.2 1.35 13.15 1.35 L53.5 1.35" fill="#cff3e8" fill-rule="evenodd" stroke="none"/>
    <path d="M55.25 41.55 Q55.95 45.2 56.8 48.35 57.3 51.55 57.95 54.45 L58.9 58.1 59.55 60.35 Q44.6 65.35 34.65 63.95 L34.65 61.7 34.45 58.1 31.05 58.1 31.05 61.7 30.85 63.5 Q21.1 66.0 7.75 59.9 L8.2 57.65 8.45 55.6 10.0 46.35 11.15 40.45 11.6 9.7 54.35 9.7 54.35 11.5 54.55 19.0 54.8 30.5 55.25 41.55" fill="#272121" fill-rule="evenodd" stroke="none"/>
    <path d="M55.25 41.55 L54.8 30.5 54.55 19.0 54.35 11.5 54.35 9.7 11.6 9.7 11.15 40.45 10.0 46.35 8.45 55.6 8.2 57.65 7.75 59.9 Q21.1 66.0 30.85 63.5 L31.05 61.7 31.05 58.1 34.45 58.1 34.65 61.7 34.65 63.95 Q44.6 65.35 59.55 60.35 L58.9 58.1 57.95 54.45 Q57.3 51.55 56.8 48.35 55.95 45.2 55.25 41.55 Z" fill="none" stroke="#000000" stroke-linecap="round" stroke-linejoin="round" stroke-width="0.8"/>
    <path d="M38.8 9.6 L54.65 9.6 54.65 11.35 54.9 18.85 55.05 30.4 Q53.75 26.25 51.7 23.1 50.55 21.05 49.45 19.7 49.45 19.3 48.95 19.05 47.65 17.2 45.8 15.45 L43.8 13.4 41.3 11.35 Q40.2 10.45 38.8 9.6 M59.15 57.95 L59.85 60.2 55.3 61.55 Q45.35 64.3 37.9 64.05 L37.7 61.8 Q40.2 62.05 42.65 61.8 L44.2 61.55 Q49.45 61.1 54.4 59.75 L55.05 59.55 59.15 57.95 M31.35 61.55 L31.15 63.4 28.15 64.05 Q21.4 64.7 13.0 61.8 L8.05 59.75 8.5 57.45 Q10.5 58.6 12.8 59.55 13.65 59.75 14.6 60.2 L17.1 60.9 Q22.75 62.25 28.4 61.8 L31.35 61.55 M11.4 30.4 L11.9 9.6 28.85 9.6 25.9 11.35 21.15 15.2 21.15 15.45 Q19.35 16.8 18.45 18.15 L15.55 22.65 14.6 24.45 Q13.0 26.95 11.4 30.4" fill="#181212" fill-rule="evenodd" stroke="none"/>
    <path d="M58.25 54.3 L59.15 57.95 55.05 59.55 54.4 59.75 54.15 59.75 Q53.95 59.55 53.95 57.7 53.95 56.35 54.9 55.0 56.05 53.85 57.1 53.85 57.55 53.85 58.25 54.3 M8.7 55.45 L10.3 46.2 10.5 46.2 Q11.65 45.5 11.9 45.5 13.0 45.5 13.0 46.9 L12.8 49.35 Q12.8 50.45 13.5 52.3 L13.65 52.5 Q14.8 54.55 14.8 55.25 14.8 56.15 13.65 57.05 L13.0 57.7 12.35 57.7 Q10.75 57.7 9.2 56.35 8.7 55.95 8.7 55.45 M42.65 18.6 L45.8 21.05 Q45.8 22.2 44.9 22.9 L42.65 23.3 41.05 23.1 Q40.85 23.1 40.6 21.3 40.4 20.85 39.45 20.65 L42.65 18.6 M27.0 19.95 Q26.6 21.05 25.45 22.2 23.65 24.25 22.75 24.25 L18.45 23.8 17.55 23.55 17.55 22.9 17.75 22.2 18.0 21.3 18.9 19.3 Q19.35 18.6 20.5 18.35 L22.25 17.95 Q22.75 18.15 22.75 19.05 L23.65 19.05 24.8 19.05 25.25 19.3 27.0 19.95 M14.15 31.05 L14.4 31.05 Q16.15 31.9 16.85 31.9 18.0 31.9 20.5 29.9 22.75 28.55 23.2 28.55 24.1 28.55 24.1 29.0 24.1 30.8 21.85 32.85 19.6 34.65 19.6 35.75 19.6 36.25 20.5 37.8 21.4 39.4 21.4 40.3 21.4 42.6 20.0 44.85 18.7 46.9 16.85 46.9 15.05 46.9 15.05 45.5 L15.3 43.5 15.75 40.75 Q15.75 38.25 14.4 36.65 14.4 36.5 14.15 36.5 13.25 35.1 13.25 33.75 L13.25 32.85 13.5 32.85 Q13.65 31.9 13.9 31.5 L13.9 31.3 Q13.9 31.05 14.15 31.05 M14.6 60.2 L14.6 59.75 Q16.15 59.55 16.6 57.05 17.3 54.3 18.0 53.45 L18.45 54.55 Q19.35 56.55 20.75 56.55 L23.4 56.55 Q24.55 57.3 24.55 58.85 24.55 60.9 20.5 60.9 L19.35 60.65 18.45 60.45 17.1 60.9 14.6 60.2 M28.15 53.85 Q28.0 53.65 28.0 53.2 L27.5 51.35 Q27.75 48.45 27.5 48.0 27.0 47.3 26.35 47.1 25.45 46.9 24.8 46.2 L24.35 44.85 23.65 43.5 Q23.65 42.35 24.55 41.65 L24.8 41.45 25.7 42.1 Q26.85 43.5 27.5 43.5 28.0 43.5 28.6 42.8 29.3 42.1 30.2 42.1 31.35 42.1 32.2 43.5 32.95 44.85 32.95 45.75 32.95 46.65 32.2 48.0 31.35 49.6 31.35 50.25 30.9 51.35 30.9 53.2 L30.2 54.3 29.05 54.3 Q28.6 54.3 28.15 53.85 M38.35 55.45 L38.8 55.45 Q40.2 57.45 40.85 57.7 L43.6 58.6 Q44.45 59.1 44.45 60.2 L44.2 61.55 42.65 61.8 Q40.2 62.05 37.7 61.8 L36.75 56.55 38.35 55.45 M52.85 44.1 L51.45 44.35 Q49.45 44.35 47.4 41.85 45.6 39.4 44.45 39.4 L42.65 39.65 Q41.7 40.3 40.85 40.3 39.95 40.3 39.25 39.4 38.1 38.7 38.1 37.8 38.1 36.65 39.95 35.35 41.3 34.0 41.3 32.6 41.05 30.8 41.3 30.4 41.95 29.9 44.2 29.0 L46.3 28.3 49.2 29.0 Q52.6 29.65 52.6 31.7 L51.7 33.3 Q51.25 34.65 51.25 35.35 51.25 36.0 52.85 37.8 54.4 39.65 54.4 41.45 54.4 42.6 53.55 43.75 53.05 43.75 52.85 44.1 M47.65 46.2 L47.4 48.0 Q47.4 49.1 48.55 49.85 L49.7 51.35 Q50.35 53.0 50.35 54.1 50.35 57.45 47.65 57.45 45.8 57.45 45.35 55.95 L45.15 52.5 Q44.2 51.15 41.7 50.05 39.05 49.35 39.05 48.0 39.05 46.9 41.05 44.85 43.1 42.6 44.2 42.6 45.15 42.6 46.3 43.75 47.65 44.85 47.65 46.2 M40.85 25.4 Q41.95 25.8 41.95 26.95 41.95 28.3 39.7 28.75 37.25 29.4 37.25 30.8 37.25 32.6 35.6 34.85 34.25 36.9 33.15 36.9 31.35 36.9 29.05 34.0 27.5 31.9 27.0 29.9 L27.5 27.2 Q27.5 26.5 28.15 25.6 29.05 24.7 30.0 24.7 L31.6 25.4 Q32.7 26.05 33.35 26.05 34.75 26.05 36.55 25.4 38.35 24.7 39.05 24.7 40.2 24.7 40.85 25.4 M19.35 48.7 L19.75 48.7 Q21.4 47.75 21.85 48.0 22.95 48.45 22.95 49.6 22.95 51.15 22.05 51.15 21.15 51.15 20.25 50.25 19.35 49.6 19.35 48.7" fill="#1e1e1e" fill-rule="evenodd" stroke="none"/>
    <path d="M45.8 15.45 Q47.65 17.2 48.95 19.05 49.45 19.3 49.45 19.7 50.55 21.05 51.7 23.1 51.9 24.7 52.6 26.75 L52.85 32.4 52.85 37.8 Q51.25 36.0 51.25 35.35 51.25 34.65 51.7 33.3 L52.6 31.7 Q52.6 29.65 49.2 29.0 L46.3 28.3 44.2 29.0 Q41.95 29.9 41.3 30.4 41.05 30.8 41.3 32.6 41.3 34.0 39.95 35.35 38.1 36.65 38.1 37.8 38.1 38.7 39.25 39.4 39.95 40.3 40.85 40.3 41.7 40.3 42.65 39.65 L44.45 39.4 Q45.6 39.4 47.4 41.85 49.45 44.35 51.45 44.35 L52.85 44.1 Q53.05 46.4 54.65 51.35 L54.9 55.0 Q53.95 56.35 53.95 57.7 53.95 59.55 54.15 59.75 L54.4 59.75 Q49.45 61.1 44.2 61.55 L44.45 60.2 Q44.45 59.1 43.6 58.6 L40.85 57.7 Q40.2 57.45 38.8 55.45 L38.35 55.45 40.4 53.2 Q35.2 54.55 30.2 54.3 L30.9 53.2 Q30.9 51.35 31.35 50.25 31.35 49.6 32.2 48.0 32.95 46.65 32.95 45.75 32.95 44.85 32.2 43.5 31.35 42.1 30.2 42.1 29.3 42.1 28.6 42.8 28.0 43.5 27.5 43.5 26.85 43.5 25.7 42.1 L24.8 41.45 24.55 41.65 Q23.65 42.35 23.65 43.5 L24.35 44.85 24.8 46.2 Q25.45 46.9 26.35 47.1 27.0 47.3 27.5 48.0 27.75 48.45 27.5 51.35 L28.0 53.2 Q28.0 53.65 28.15 53.85 L25.25 53.45 29.05 56.55 28.4 61.8 Q22.75 62.25 17.1 60.9 L18.45 60.45 19.35 60.65 20.5 60.9 Q24.55 60.9 24.55 58.85 24.55 57.3 23.4 56.55 L20.75 56.55 Q19.35 56.55 18.45 54.55 L18.0 53.45 Q17.3 54.3 16.6 57.05 16.15 59.55 14.6 59.75 L14.6 60.2 Q13.65 59.75 12.8 59.55 L12.8 58.6 13.0 57.7 13.65 57.05 Q14.8 56.15 14.8 55.25 14.8 54.55 13.65 52.5 L13.5 52.3 13.9 50.7 14.8 44.6 Q14.4 41.0 14.15 36.5 14.4 36.5 14.4 36.65 15.75 38.25 15.75 40.75 L15.3 43.5 15.05 45.5 Q15.05 46.9 16.85 46.9 18.7 46.9 20.0 44.85 21.4 42.6 21.4 40.3 21.4 39.4 20.5 37.8 19.6 36.25 19.6 35.75 19.6 34.65 21.85 32.85 24.1 30.8 24.1 29.0 24.1 28.55 23.2 28.55 22.75 28.55 20.5 29.9 18.0 31.9 16.85 31.9 16.15 31.9 14.4 31.05 L14.15 31.05 14.15 29.25 14.6 24.45 15.55 22.65 18.45 18.15 Q19.35 16.8 21.15 15.45 L21.65 15.85 Q23.2 17.95 24.8 19.05 L23.65 19.05 22.75 19.05 Q22.75 18.15 22.25 17.95 L20.5 18.35 Q19.35 18.6 18.9 19.3 L18.0 21.3 17.75 22.2 17.55 22.9 17.55 23.55 18.45 23.8 22.75 24.25 Q23.65 24.25 25.45 22.2 26.6 21.05 27.0 19.95 L29.05 21.05 Q31.6 22.0 33.35 22.0 35.4 22.0 37.9 21.05 L39.45 20.65 Q40.4 20.85 40.6 21.3 40.85 23.1 41.05 23.1 L42.65 23.3 44.9 22.9 Q45.8 22.2 45.8 21.05 L42.65 18.6 44.2 17.2 45.8 15.45 M40.85 25.4 Q40.2 24.7 39.05 24.7 38.35 24.7 36.55 25.4 34.75 26.05 33.35 26.05 32.7 26.05 31.6 25.4 L30.0 24.7 Q29.05 24.7 28.15 25.6 27.5 26.5 27.5 27.2 L27.0 29.9 Q27.5 31.9 29.05 34.0 31.35 36.9 33.15 36.9 34.25 36.9 35.6 34.85 37.25 32.6 37.25 30.8 37.25 29.4 39.7 28.75 41.95 28.3 41.95 26.95 41.95 25.8 40.85 25.4 M47.65 46.2 Q47.65 44.85 46.3 43.75 45.15 42.6 44.2 42.6 43.1 42.6 41.05 44.85 39.05 46.9 39.05 48.0 39.05 49.35 41.7 50.05 44.2 51.15 45.15 52.5 L45.35 55.95 Q45.8 57.45 47.65 57.45 50.35 57.45 50.35 54.1 50.35 53.0 49.7 51.35 L48.55 49.85 Q47.4 49.1 47.4 48.0 L47.65 46.2 M19.35 48.7 Q19.35 49.6 20.25 50.25 21.15 51.15 22.05 51.15 22.95 51.15 22.95 49.6 22.95 48.45 21.85 48.0 21.4 47.75 19.75 48.7 L19.35 48.7" fill="#ffffff" fill-rule="evenodd" stroke="none"/>
    <path d="M38.8 9.6 Q40.2 10.45 41.3 11.35 L43.8 13.4 45.8 15.45 44.2 17.2 42.65 18.6 39.45 20.65 37.9 21.05 Q35.4 22.0 33.35 22.0 31.6 22.0 29.05 21.05 L27.0 19.95 25.25 19.3 24.8 19.05 Q23.2 17.95 21.65 15.85 L21.15 15.45 21.15 15.2 25.9 11.35 28.85 9.6 38.8 9.6" fill="#a6a6a6" fill-rule="evenodd" stroke="none"/>
    <path d="M51.7 23.1 Q53.75 26.25 55.05 30.4 55.05 33.5 55.55 41.45 56.2 45.05 57.1 48.2 57.55 51.35 58.25 54.3 57.55 53.85 57.1 53.85 56.05 53.85 54.9 55.0 L54.65 51.35 Q53.05 46.4 52.85 44.1 53.05 43.75 53.55 43.75 54.4 42.6 54.4 41.45 54.4 39.65 52.85 37.8 L52.85 32.4 52.6 26.75 Q51.9 24.7 51.7 23.1 M33.85 57.95 L31.35 57.95 31.35 61.55 28.4 61.8 29.05 56.55 25.25 53.45 28.15 53.85 Q28.6 54.3 29.05 54.3 L30.2 54.3 Q35.2 54.55 40.4 53.2 L38.35 55.45 Q37.45 54.1 36.75 54.1 36.55 54.1 35.4 55.0 34.25 55.95 33.85 56.55 L33.85 57.95 M8.5 57.45 L8.7 55.45 Q8.7 55.95 9.2 56.35 10.75 57.7 12.35 57.7 L13.0 57.7 12.8 58.6 12.8 59.55 Q10.5 58.6 8.5 57.45 M10.3 46.2 L11.4 40.3 11.4 30.4 Q13.0 26.95 14.6 24.45 L14.15 29.25 14.15 31.05 Q13.9 31.05 13.9 31.3 L13.9 31.5 Q13.65 31.9 13.5 32.85 L13.25 32.85 13.25 33.75 Q13.25 35.1 14.15 36.5 14.4 41.0 14.8 44.6 L13.9 50.7 13.5 52.3 Q12.8 50.45 12.8 49.35 L13.0 46.9 Q13.0 45.5 11.9 45.5 11.65 45.5 10.5 46.2 L10.3 46.2" fill="#989696" fill-rule="evenodd" stroke="none"/>
    <path d="M34.95 61.55 L34.75 57.95 33.85 57.95 33.85 56.55 Q34.25 55.95 35.4 55.0 36.55 54.1 36.75 54.1 37.45 54.1 38.35 55.45 L36.75 56.55 37.7 61.8 34.95 61.55" fill="#0b0b0b" fill-rule="evenodd" stroke="none"/>
    <path d="M37.9 64.05 L34.95 63.8 34.95 61.55 37.7 61.8 37.9 64.05" fill="#000000" fill-rule="evenodd" stroke="none"/>
    <path d="M32.65 22.25 L34.25 22.25 33.75 58.4 31.95 58.4 32.65 22.25" fill="#181212" fill-rule="evenodd" stroke="none"/>
    <path d="M50.25 9.5 L49.85 10.9 47.1 17.25 Q44.85 21.5 41.2 23.8 36.95 26.75 31.05 25.8 21.35 24.9 16.8 13.85 L15.0 9.5 18.85 9.5 Q20.2 14.3 22.9 17.45 25.6 20.6 28.55 21.5 L32.85 22.4 36.7 21.75 Q39.4 21.25 42.15 18.35 44.85 15.15 46.9 9.5 L50.25 9.5" fill="#181212" fill-rule="evenodd" stroke="none"/>
    <path d="M53.5 1.35 Q67.85 1.35 67.85 15.7 L67.85 56.55 Q67.85 70.9 53.5 70.9 L13.15 70.9 Q-1.2 70.9 -1.2 56.55 L-1.2 15.7 Q-1.2 1.35 13.15 1.35 L53.5 1.35" fill="#000000" fill-opacity="0.29803923" fill-rule="evenodd" stroke="none"/>
    <path d="M53.5 1.35 L13.15 1.35 Q-1.2 1.35 -1.2 15.7 L-1.2 56.55 Q-1.2 70.9 13.15 70.9 L53.5 70.9 Q67.85 70.9 67.85 56.55 L67.85 15.7 Q67.85 1.35 53.5 1.35 Z" fill="none" stroke="#666666" stroke-linecap="round" stroke-linejoin="round" stroke-opacity="0.9019608" stroke-width="2.0"/>
  </g>
</svg>
