<?xml version="1.0" encoding="UTF-8" standalone="no"?>
<svg xmlns:xlink="http://www.w3.org/1999/xlink" height="60.95px" width="53.8px" xmlns="http://www.w3.org/2000/svg">
  <g transform="matrix(1.0, 0.0, 0.0, 1.0, -7.25, -6.8)">
    <path d="M55.25 13.2 Q55.25 16.65 55.55 20.85 L55.75 29.45 56.0 32.7 56.2 39.9 56.45 44.1 57.15 46.9 Q57.35 48.95 57.8 51.0 L59.25 57.3 59.45 57.55 60.15 61.0 60.65 63.15 54.35 65.0 Q45.05 67.55 37.9 67.3 L35.25 67.1 35.25 64.75 35.25 61.0 31.6 61.0 31.35 64.55 31.15 66.65 27.6 67.3 Q20.85 67.75 12.75 65.0 10.2 64.05 7.65 62.95 L7.85 60.6 8.3 58.45 8.3 57.55 9.95 48.95 10.2 47.35 10.85 42.95 11.6 11.1 55.25 11.1 55.25 13.2" fill="#8c8383" fill-rule="evenodd" stroke="none"/>
    <path d="M55.25 13.2 L55.25 11.1 11.6 11.1 10.85 42.95 10.2 47.35 9.95 48.95 8.3 57.55 8.3 58.45 7.85 60.6 7.65 62.95 Q10.2 64.05 12.75 65.0 20.85 67.75 27.6 67.3 L31.15 66.65 31.35 64.55 31.6 61.0 35.25 61.0 35.25 64.75 35.25 67.1 37.9 67.3 Q45.05 67.55 54.35 65.0 L60.65 63.15 60.15 61.0 59.45 57.55 59.25 57.3 57.8 51.0 Q57.35 48.95 57.15 46.9 L56.45 44.1 56.2 39.9 56.0 32.7 55.75 29.45 55.55 20.85 Q55.25 16.65 55.25 13.2 Z" fill="none" stroke="#000000" stroke-linecap="round" stroke-linejoin="round" stroke-width="0.8"/>
    <path d="M54.25 11.25 L55.2 11.25 55.2 13.1 55.45 20.85 55.9 29.45 55.9 32.65 56.1 40.15 Q48.7 41.75 40.8 42.2 L45.0 40.15 Q47.35 38.55 48.95 36.4 51.0 34.1 51.7 31.8 54.05 22.7 54.25 11.25 M11.05 40.15 L11.8 11.25 12.7 11.25 Q12.0 25.05 15.25 34.1 15.9 36.15 18.7 38.25 20.6 39.6 23.15 40.6 L27.85 42.4 Q19.6 41.75 11.05 40.15" fill="#a2a2a2" fill-rule="evenodd" stroke="none"/>
    <path d="M54.25 11.25 Q54.05 22.7 51.7 31.8 51.0 34.1 48.95 36.4 47.35 38.55 45.0 40.15 L40.8 42.2 Q34.55 42.95 27.85 42.4 L23.15 40.6 Q20.6 39.6 18.7 38.25 15.9 36.15 15.25 34.1 12.0 25.05 12.7 11.25 L54.25 11.25" fill="#c8c8c8" fill-rule="evenodd" stroke="none"/>
    <path d="M40.8 42.2 Q48.7 41.75 56.1 40.15 56.1 41.75 56.4 44.05 L57.05 46.9 53.6 47.8 Q35.2 52.0 13.85 48.05 L10.15 47.35 10.8 42.95 11.05 40.15 Q19.6 41.75 27.85 42.4 34.55 42.95 40.8 42.2" fill="#000000" fill-rule="evenodd" stroke="none"/>
    <path d="M57.05 46.9 L57.75 51.1 59.2 57.1 59.45 57.55 Q59.6 59.4 60.15 61.0 60.5 62.2 60.5 63.35 L54.25 64.95 Q56.1 59.4 53.6 47.8 L57.05 46.9 M12.7 64.95 L7.6 62.9 Q7.6 61.5 7.85 60.6 L8.25 58.4 8.55 57.55 Q8.95 53.35 9.85 48.95 9.85 48.25 10.15 47.35 L13.85 48.05 Q11.55 58.2 12.7 64.95" fill="#1e1818" fill-rule="evenodd" stroke="none"/>
    <path d="M37.85 67.1 L35.2 67.1 35.2 64.7 35.2 61.0 31.75 61.0 31.3 64.55 31.3 66.65 27.55 67.1 28.7 60.6 Q27.1 59.65 25.25 57.55 33.85 59.4 40.8 57.1 39.4 59.65 36.85 61.0 L37.85 67.1" fill="#191414" fill-rule="evenodd" stroke="none"/>
    <path d="M54.25 64.95 Q45.25 67.55 37.85 67.1 L36.85 61.0 Q39.4 59.65 40.8 57.1 33.85 59.4 25.25 57.55 27.1 59.65 28.7 60.6 L27.55 67.1 Q20.8 67.75 12.7 64.95 11.55 58.2 13.85 48.05 35.2 52.0 53.6 47.8 56.1 59.4 54.25 64.95" fill="#272121" fill-rule="evenodd" stroke="none"/>
    <path d="M22.25 12.9 L22.25 44.8 16.15 44.8 16.15 12.9 22.25 12.9" fill="#000000" fill-rule="evenodd" stroke="none"/>
    <path d="M52.35 11.45 L52.35 43.8 46.1 43.8 46.1 11.45 52.35 11.45" fill="#000000" fill-rule="evenodd" stroke="none"/>
    <path d="M33.45 26.3 L32.5 25.75 Q24.95 19.1 21.4 11.15 26.95 15.5 34.45 15.5 38.75 15.5 42.65 13.1 L45.85 10.7 Q43.7 15.05 41.25 18.6 38.0 23.25 34.35 26.0 L33.55 26.4 33.45 26.3" fill="#ccc7c1" fill-rule="evenodd" stroke="none"/>
    <path d="M18.85 7.75 L19.0 8.85 19.05 9.1 Q19.4 11.55 20.65 14.35 22.2 18.05 24.3 20.75 L28.0 25.05 30.05 27.05 Q30.65 27.55 30.65 27.2 30.65 26.9 31.05 27.2 L29.75 28.3 Q28.2 29.7 25.5 33.6 25.15 34.15 24.55 33.85 L23.5 33.05 Q15.85 21.75 16.1 11.0 L16.1 10.9 18.85 7.75 M48.05 7.85 L51.7 11.2 Q52.85 11.85 51.85 15.95 48.9 25.95 42.25 33.75 41.15 34.65 39.95 32.9 37.55 29.0 35.95 27.75 40.35 24.8 43.3 18.9 L47.05 11.4 48.0 8.6 48.0 8.55 48.05 7.85" fill="#eeedec" fill-rule="evenodd" stroke="none"/>
    <path d="M18.85 7.75 L19.7 6.8 Q20.4 9.05 21.4 11.15 24.95 19.1 32.5 25.75 L33.45 26.3 33.45 26.4 Q32.3 26.4 31.05 27.2 30.65 26.9 30.65 27.2 30.65 27.55 30.05 27.05 L28.0 25.05 24.3 20.75 Q22.2 18.05 20.65 14.35 19.4 11.55 19.05 9.1 L19.0 8.85 18.85 7.75 M47.4 7.25 L48.05 7.85 48.0 8.55 48.0 8.6 47.05 11.4 43.3 18.9 Q40.35 24.8 35.95 27.75 34.55 26.65 33.55 26.4 L34.35 26.0 Q38.0 23.25 41.25 18.6 43.7 15.05 45.85 10.7 L47.4 7.25" fill="#ffffff" fill-rule="evenodd" stroke="none"/>
    <path d="M21.4 11.15 Q20.4 9.05 19.7 6.8 L47.35 7.2 47.4 7.25 45.85 10.7 42.65 13.1 Q38.75 15.5 34.45 15.5 26.95 15.5 21.4 11.15" fill="#a6a29e" fill-rule="evenodd" stroke="none"/>
    <path d="M35.85 27.85 L37.75 27.4 39.25 26.75 40.1 26.35 41.05 25.8 Q41.7 25.35 42.0 25.2 L42.85 24.95 Q43.65 24.95 44.1 25.65 L44.85 27.3 Q45.15 27.95 45.25 29.0 L45.4 30.15 45.3 30.8 44.6 33.55 Q43.7 36.3 41.5 34.8 L36.0 30.45 Q35.5 29.4 35.75 28.2 L35.85 27.85" fill="#14131b" fill-rule="evenodd" stroke="none"/>
    <path d="M21.95 29.65 Q22.05 28.05 22.65 26.85 23.55 25.1 25.2 25.1 25.7 25.1 28.4 26.55 31.1 28.05 32.55 28.05 L32.6 28.05 32.65 28.2 Q32.95 29.7 32.55 30.5 L25.55 35.15 Q24.7 35.85 23.9 35.0 22.2 32.1 21.95 29.65" fill="#0b0f10" fill-rule="evenodd" stroke="none"/>
    <path d="M32.6 28.05 L32.4 27.4 Q33.9 26.15 36.0 27.15 L35.85 27.85 35.75 28.2 35.2 28.45 33.95 28.65 Q33.15 28.65 32.65 28.2 L32.6 28.05" fill="#2b2b23" fill-rule="evenodd" stroke="none"/>
    <path d="M32.55 30.5 Q32.95 29.7 32.65 28.2 33.15 28.65 33.95 28.65 L35.2 28.45 35.75 28.2 Q35.5 29.4 36.0 30.45 34.15 31.3 32.55 30.5" fill="#0b0a08" fill-rule="evenodd" stroke="none"/>
    <path d="M32.6 28.05 L32.55 28.05 Q31.1 28.05 28.4 26.55 25.7 25.1 25.2 25.1 23.55 25.1 22.65 26.85 22.05 28.05 21.95 29.65 21.7 27.85 22.55 25.8 23.45 23.75 24.5 23.75 25.35 23.7 28.95 25.55 30.8 26.5 32.4 27.4 L32.6 28.05 M45.4 30.15 L45.25 29.0 Q45.15 27.95 44.85 27.3 L44.1 25.65 Q43.65 24.95 42.85 24.95 L42.0 25.2 Q41.7 25.35 41.05 25.8 L40.1 26.35 39.25 26.75 37.75 27.4 35.85 27.85 36.0 27.15 42.7 23.55 Q44.7 22.4 45.2 25.55 45.65 27.85 45.4 30.15" fill="#4d4d4a" fill-rule="evenodd" stroke="none"/>
    <path d="M33.0 35.4 L34.15 35.15 34.8 35.4 35.25 36.1 Q35.25 36.8 34.8 37.2 L34.15 37.45 33.0 37.2 Q32.7 36.8 32.7 36.1 32.7 35.8 33.0 35.4" fill="#000000" fill-rule="evenodd" stroke="none"/>
    <path d="M33.0 35.4 L34.15 35.15 34.8 35.4 35.25 36.1 Q35.25 36.8 34.8 37.2 L34.15 37.45 33.0 37.2 Q32.7 36.8 32.7 36.1 32.7 35.8 33.0 35.4 Z" fill="none" stroke="#4d4d4a" stroke-linecap="round" stroke-linejoin="round" stroke-width="0.5"/>
    <path d="M33.0 40.45 Q33.2 40.0 33.9 40.0 34.15 40.0 34.65 40.45 35.05 40.7 35.05 41.2 35.05 41.65 34.65 42.1 L33.9 42.55 Q33.2 42.55 33.0 42.1 32.5 41.65 32.5 41.2 32.5 40.7 33.0 40.45" fill="#000000" fill-rule="evenodd" stroke="none"/>
    <path d="M33.0 40.45 Q33.2 40.0 33.9 40.0 34.15 40.0 34.65 40.45 35.05 40.7 35.05 41.2 35.05 41.65 34.65 42.1 L33.9 42.55 Q33.2 42.55 33.0 42.1 32.5 41.65 32.5 41.2 32.5 40.7 33.0 40.45 Z" fill="none" stroke="#4d4d4a" stroke-linecap="round" stroke-linejoin="round" stroke-width="0.5"/>
  </g>
</svg>
