<?xml version="1.0" encoding="UTF-8" standalone="no"?>
<svg xmlns:xlink="http://www.w3.org/1999/xlink" height="71.55px" width="71.05px" xmlns="http://www.w3.org/2000/svg">
  <g transform="matrix(1.0, 0.0, 0.0, 1.0, 2.2, 1.15)">
    <path d="M53.5 -0.15 Q67.85 -0.15 67.85 14.2 L67.85 55.05 Q67.85 69.4 53.5 69.4 L13.15 69.4 Q-1.2 69.4 -1.2 55.05 L-1.2 14.2 Q-1.2 -0.15 13.15 -0.15 L53.5 -0.15" fill="#cff3e8" fill-rule="evenodd" stroke="none"/>
    <path d="M53.9 7.65 L53.9 9.4 54.15 17.0 54.35 25.25 54.35 28.35 54.35 29.05 54.35 29.65 54.85 34.8 54.6 34.8 55.5 39.25 55.5 42.35 55.75 43.05 55.75 43.3 56.2 45.25 56.4 45.95 Q56.8 49.05 57.5 51.75 L57.7 52.2 Q57.95 53.95 58.6 55.55 58.6 56.65 59.05 57.5 55.95 58.65 53.05 59.3 43.95 61.75 37.25 61.3 L34.6 61.3 34.6 59.1 34.6 55.55 31.0 55.55 31.0 58.85 30.8 60.85 27.45 61.3 Q20.95 62.0 13.2 59.3 L8.05 57.3 8.95 52.2 9.85 45.5 10.7 41.3 11.6 30.1 11.85 30.1 12.05 7.65 53.9 7.65" fill="#2a2323" fill-rule="evenodd" stroke="none"/>
    <path d="M53.9 7.65 L12.05 7.65 11.85 30.1 11.6 30.1 10.7 41.3 9.85 45.5 8.95 52.2 8.05 57.3 13.2 59.3 Q20.95 62.0 27.45 61.3 L30.8 60.85 31.0 58.85 31.0 55.55 34.6 55.55 34.6 59.1 34.6 61.3 37.25 61.3 Q43.95 61.75 53.05 59.3 55.95 58.65 59.05 57.5 58.6 56.65 58.6 55.55 57.95 53.95 57.7 52.2 L57.5 51.75 Q56.8 49.05 56.4 45.95 L56.2 45.25 55.75 43.3 55.75 43.05 55.5 42.35 55.5 39.25 54.6 34.8 54.85 34.8 54.35 29.65 54.35 29.05 54.35 28.35 54.35 25.25 54.15 17.0 53.9 9.4 53.9 7.65 Z" fill="none" stroke="#000000" stroke-linecap="round" stroke-linejoin="round" stroke-width="0.8500000000000001"/>
    <path d="M53.1 7.65 L53.95 7.65 53.95 9.45 54.2 17.0 54.4 25.25 54.4 28.4 Q54.4 30.6 54.85 35.3 L55.1 39.05 55.5 41.95 52.2 42.85 Q34.6 46.85 14.1 43.1 L10.75 42.4 Q11.0 40.2 11.4 38.2 L12.15 7.65 13.25 7.65 Q13.25 16.1 14.1 21.25 14.35 24.35 15.25 26.35 L16.8 30.1 Q17.9 32.4 18.8 33.25 20.6 34.8 22.85 35.95 L27.5 37.5 31.05 38.2 34.4 38.4 Q35.95 38.8 40.15 37.5 L43.75 35.3 Q45.95 33.95 47.95 31.95 50.0 29.7 50.45 27.5 52.65 19.05 53.1 8.5 L53.1 7.65" fill="#a2a2a2" fill-rule="evenodd" stroke="none"/>
    <path d="M53.1 7.65 L53.1 8.5 Q52.65 19.05 50.45 27.5 50.0 29.7 47.95 31.95 45.95 33.95 43.75 35.3 L40.15 37.5 Q35.95 38.8 34.4 38.4 L31.05 38.2 27.5 37.5 22.85 35.95 Q20.6 34.8 18.8 33.25 17.9 32.4 16.8 30.1 L15.25 26.35 Q14.35 24.35 14.1 21.25 13.25 16.1 13.25 7.65 L17.45 7.65 Q24.8 13.7 33.25 14.75 40.85 13.7 48.6 7.65 L53.1 7.65" fill="#c8c8c8" fill-rule="evenodd" stroke="none"/>
    <path d="M10.75 42.4 L14.1 43.1 Q12.3 50.9 13.0 57.55 10.35 56.45 9.2 54.2 L9.85 45.3 10.35 44.0 10.75 42.4 M52.2 42.85 L55.5 41.95 56.25 45.3 56.45 45.55 56.45 45.95 Q56.65 50.65 57.3 54.4 56.45 56.45 53.3 57.55 54.4 51.95 52.2 42.85" fill="#1e1818" fill-rule="evenodd" stroke="none"/>
    <path d="M48.6 7.65 Q40.85 13.7 33.25 14.75 24.8 13.7 17.45 7.65 L48.6 7.65" fill="#a6a29e" fill-rule="evenodd" stroke="none"/>
    <path d="M34.6 59.1 L34.6 55.55 31.05 55.55 31.05 58.85 Q29.05 59.8 27.7 60.0 L28.4 55.1 Q26.8 54.2 25.05 52.2 33.25 54.0 39.95 51.75 38.6 54.0 36.35 55.3 L36.85 59.8 34.6 59.1" fill="#191414" fill-rule="evenodd" stroke="none"/>
    <path d="M14.1 43.1 Q34.6 46.85 52.2 42.85 54.4 51.95 53.3 57.55 45.05 60.65 36.85 59.8 L36.35 55.3 Q38.6 54.0 39.95 51.75 33.25 54.0 25.05 52.2 26.8 54.2 28.4 55.1 L27.7 60.0 Q22.15 60.65 15.0 58.45 L13.0 57.55 Q12.3 50.9 14.1 43.1" fill="#272121" fill-rule="evenodd" stroke="none"/>
    <path d="M56.45 45.95 Q56.85 49.1 57.55 51.75 L57.8 52.2 Q57.95 54.0 58.65 55.55 58.65 56.65 59.1 57.55 L53.1 59.35 53.3 57.55 Q56.45 56.45 57.3 54.4 56.65 50.65 56.45 45.95 M37.05 61.3 L34.6 61.3 34.6 59.1 36.85 59.8 37.05 61.3 M31.05 58.85 L30.8 60.9 27.5 61.3 27.7 60.0 Q29.05 59.8 31.05 58.85 M13.25 59.35 Q10.75 58.45 8.1 57.1 L8.55 55.1 8.75 53.1 Q8.75 52.85 9.0 52.85 L9.0 52.2 9.85 45.3 9.2 54.2 Q10.35 56.45 13.0 57.55 L13.25 59.35" fill="#c9880c" fill-rule="evenodd" stroke="none"/>
    <path d="M53.1 59.35 Q43.95 61.8 37.05 61.3 L36.85 59.8 Q45.05 60.65 53.3 57.55 L53.1 59.35 M27.5 61.3 Q21.0 62.0 13.25 59.35 L13.0 57.55 15.0 58.45 Q22.15 60.65 27.7 60.0 L27.5 61.3" fill="#e7b81d" fill-rule="evenodd" stroke="none"/>
    <path d="M56.25 45.3 L56.45 45.55" fill="none" stroke="#fac560" stroke-linecap="round" stroke-linejoin="round" stroke-width="0.2"/>
    <path d="M30.55 14.75 L36.55 14.75 Q36.35 14.75 36.8 15.9 36.8 16.8 35.2 17.0 36.1 17.0 36.35 17.4 36.8 17.85 36.35 17.85 L35.9 18.3 35.65 18.55 35.2 18.55 32.75 18.75 32.55 18.75 Q31.0 18.55 31.0 17.85 31.0 17.0 32.0 17.0 30.55 17.0 30.35 15.9 L30.35 15.45 30.55 14.75" fill="#5b5b5b" fill-rule="evenodd" stroke="none"/>
    <path d="M29.65 18.55 L29.45 14.75 30.55 14.75 30.35 15.45 30.35 15.9 Q30.55 17.0 32.0 17.0 31.0 17.0 31.0 17.85 31.0 18.55 32.55 18.75 L32.75 18.75 35.2 18.55 35.65 18.55 35.9 18.3 36.35 17.85 Q36.8 17.85 36.35 17.4 36.1 17.0 35.2 17.0 36.8 16.8 36.8 15.9 36.35 14.75 36.55 14.75 L37.25 14.75 36.8 18.55 37.0 18.55 36.35 19.0 35.2 19.0 34.8 19.2 34.6 19.0 34.35 19.0 Q33.2 19.2 32.1 19.0 L32.1 19.2 31.9 19.2 31.25 19.0 30.1 18.75 29.65 18.55" fill="#383838" fill-rule="evenodd" stroke="none"/>
    <path d="M37.0 18.55 L37.45 19.7 27.65 25.45 27.45 25.45 28.1 23.0 34.35 19.0 34.6 19.0 34.8 19.2 35.2 19.0 36.35 19.0 37.0 18.55 M37.7 20.75 L38.55 22.35 29.0 27.9 28.35 26.55 37.7 20.75 M39.25 23.9 L39.45 25.0 38.55 26.35 31.0 30.8 30.1 29.25 39.25 23.9 M37.0 28.8 L35.2 31.7 32.55 33.25 31.9 32.15 37.0 28.8 M29.0 21.0 L29.65 18.55 30.1 18.75 31.25 19.0 31.9 19.2 29.0 21.0" fill="#000000" fill-rule="evenodd" stroke="none"/>
    <path d="M37.45 19.7 L37.7 20.75 28.35 26.55 27.65 25.45 37.45 19.7 M38.55 22.35 L39.25 23.9 30.1 29.25 29.0 27.9 38.55 22.35 M38.55 26.35 L37.0 28.8 31.9 32.15 31.0 30.8 38.55 26.35 M35.2 31.7 L33.2 34.35 32.55 33.25 35.2 31.7 M28.1 23.0 L29.0 21.0 31.9 19.2 32.1 19.2 32.1 19.0 Q33.2 19.2 34.35 19.0 L28.1 23.0" fill="#a2a2a2" fill-rule="evenodd" stroke="none"/>
    <path d="M50.6 13.45 L52.6 9.2 52.6 25.9 55.05 25.25 55.05 28.8 52.6 28.8 52.6 35.9 54.85 35.7 54.85 37.7 52.6 38.15 52.6 39.5 50.6 39.5 50.6 38.15 44.8 38.8 44.8 40.6 42.6 40.6 42.6 39.05 35.2 39.95 35.2 38.6 42.6 37.25 42.6 31.7 37.25 33.25 38.55 30.55 42.6 29.25 42.6 25.25 44.8 21.65 44.8 28.6 50.6 26.55 50.6 13.45 M44.8 37.05 L50.6 36.15 50.6 29.65 44.8 31.0 44.8 37.05 M16.3 12.3 L16.3 26.15 21.65 27.9 21.65 19.9 24.1 25.0 24.1 28.8 26.75 29.65 29.45 32.8 24.1 31.25 24.1 37.05 31.0 38.15 31.0 39.25 24.1 38.6 24.1 40.4 21.65 40.4 21.65 38.15 16.3 37.7 16.3 40.15 14.05 39.5 14.05 37.5 11.4 37.05 11.4 34.8 14.05 35.25 14.05 28.35 11.6 27.45 11.6 24.35 14.05 25.45 14.05 9.4 16.3 12.3 M16.3 29.05 L16.3 35.7 21.65 36.6 21.65 30.55 16.3 29.05" fill="#1e1818" fill-rule="evenodd" stroke="none"/>
    <path d="M54.15 7.65 L36.55 36.35 36.55 41.3 30.35 41.3 30.35 35.9 12.05 7.65 17.4 7.65 33.9 32.15 49.05 7.65 54.15 7.65" fill="#000000" fill-rule="evenodd" stroke="none"/>
    <path d="M10.7 39.7 L10.7 38.4 Q19.2 40.15 27.2 40.6 L30.35 40.85 35.2 40.85 40.35 40.6 Q47.9 40.15 55.5 38.15 L55.5 39.7 Q47.9 42.15 37.25 42.8 23.65 43.75 10.7 39.7" fill="#ffe698" fill-rule="evenodd" stroke="none"/>
    <path d="M55.5 39.7 L55.5 42.35 56.2 45.25 52.85 45.95 Q34.6 50.2 13.4 46.15 L9.85 45.5 Q10.1 43.3 10.7 41.3 L10.7 39.7 Q23.65 43.75 37.25 42.8 47.9 42.15 55.5 39.7" fill="#e0b116" fill-rule="evenodd" stroke="none"/>
    <path d="M32.75 33.9 L33.65 33.7 34.35 33.9 Q34.8 34.15 34.8 34.8 L34.35 35.7 Q34.1 35.9 33.65 35.9 L32.75 35.7 Q32.3 35.25 32.3 34.8 32.3 34.15 32.75 33.9" fill="#ffffff" fill-rule="evenodd" stroke="none"/>
    <path d="M32.75 33.9 L33.65 33.7 34.35 33.9 Q34.8 34.15 34.8 34.8 L34.35 35.7 Q34.1 35.9 33.65 35.9 L32.75 35.7 Q32.3 35.25 32.3 34.8 32.3 34.15 32.75 33.9 Z" fill="none" stroke="#c2c2c0" stroke-linecap="round" stroke-linejoin="round" stroke-width="0.5"/>
    <path d="M32.75 37.7 Q33.2 37.25 33.65 37.25 L34.35 37.7 34.8 38.6 34.35 39.25 33.65 39.7 Q33.2 39.7 32.75 39.25 32.3 39.05 32.3 38.6 32.3 38.15 32.75 37.7" fill="#ffffff" fill-rule="evenodd" stroke="none"/>
    <path d="M32.75 37.7 Q33.2 37.25 33.65 37.25 L34.35 37.7 34.8 38.6 34.35 39.25 33.65 39.7 Q33.2 39.7 32.75 39.25 32.3 39.05 32.3 38.6 32.3 38.15 32.75 37.7 Z" fill="none" stroke="#c2c2c0" stroke-linecap="round" stroke-linejoin="round" stroke-width="0.5"/>
    <path d="M53.5 -0.15 Q67.85 -0.15 67.85 14.2 L67.85 55.05 Q67.85 69.4 53.5 69.4 L13.15 69.4 Q-1.2 69.4 -1.2 55.05 L-1.2 14.2 Q-1.2 -0.15 13.15 -0.15 L53.5 -0.15" fill="#000000" fill-opacity="0.29803923" fill-rule="evenodd" stroke="none"/>
    <path d="M53.5 -0.15 L13.15 -0.15 Q-1.2 -0.15 -1.2 14.2 L-1.2 55.05 Q-1.2 69.4 13.15 69.4 L53.5 69.4 Q67.85 69.4 67.85 55.05 L67.85 14.2 Q67.85 -0.15 53.5 -0.15 Z" fill="none" stroke="#666666" stroke-linecap="round" stroke-linejoin="round" stroke-opacity="0.9019608" stroke-width="2.0"/>
  </g>
</svg>
