<?xml version="1.0" encoding="UTF-8" standalone="no"?>
<svg xmlns:xlink="http://www.w3.org/1999/xlink" height="52.9px" width="53.8px" xmlns="http://www.w3.org/2000/svg">
  <g transform="matrix(1.0, 0.0, 0.0, 1.0, -7.45, -7.7)">
    <path d="M60.65 11.4 L60.85 12.7 Q60.65 13.85 59.75 14.9 L58.65 14.9 56.4 14.3 Q56.0 14.9 55.55 16.05 L55.55 16.5 55.55 17.15 55.55 18.0 55.75 22.65 55.75 24.4 56.0 26.45 58.0 26.6 56.0 28.65 56.2 30.6 56.2 31.3 56.2 33.5 56.4 34.35 56.4 34.8 56.4 36.8 56.4 37.45 57.3 37.25 57.55 39.2 57.55 41.0 57.75 42.3 58.0 43.65 58.2 44.3 Q58.0 44.3 57.55 44.55 L57.75 44.75 59.1 50.5 59.1 50.9 59.95 54.45 60.4 56.45 57.55 57.3 55.55 58.0 55.1 58.0 54.45 58.2 Q45.6 60.4 38.7 59.95 L36.3 59.95 36.3 58.0 36.3 54.45 32.75 54.45 32.5 57.75 32.3 59.8 30.1 59.95 29.0 59.95 Q23.25 60.65 16.15 58.65 L15.5 58.2 14.85 58.0 Q14.15 58.0 13.25 57.55 L10.0 56.0 10.15 53.8 10.4 52.95 9.55 53.15 11.5 43.85 Q11.5 43.2 11.75 42.75 L12.4 39.65 12.4 37.25 13.25 37.45 13.25 37.0 13.25 28.4 13.25 27.95 Q10.85 21.55 10.15 14.45 L8.85 14.9 8.2 13.85 7.95 12.05 Q7.75 11.85 7.95 11.4 L8.2 10.5 13.5 9.4 13.5 8.1 55.35 8.1 55.35 8.75 58.65 8.75 58.2 10.05 60.4 10.5 60.65 11.4 M13.5 16.05 L13.5 13.85 13.25 14.05 13.5 16.05 M13.5 20.45 Q12.2 17.8 11.75 14.3 L11.3 14.3 Q12.4 21.35 13.5 25.55 L13.5 20.45" fill="#6d6060" fill-rule="evenodd" stroke="none"/>
    <path d="M60.65 11.4 L60.85 12.7 Q60.65 13.85 59.75 14.9 L58.65 14.9 56.4 14.3 Q56.0 14.9 55.55 16.05 L55.55 16.5 55.55 17.15 55.55 18.0 55.75 22.65 55.75 24.4 56.0 26.45 58.0 26.6 56.0 28.65 56.2 30.6 56.2 31.3 56.2 33.5 56.4 34.35 56.4 34.8 56.4 36.8 56.4 37.45 57.3 37.25 57.55 39.2 57.55 41.0 57.75 42.3 58.0 43.65 58.2 44.3 Q58.0 44.3 57.55 44.55 L57.75 44.75 59.1 50.5 59.1 50.9 59.95 54.45 60.4 56.45 57.55 57.3 55.55 58.0 55.1 58.0 54.45 58.2 Q45.6 60.4 38.7 59.95 L36.3 59.95 36.3 58.0 36.3 54.45 32.75 54.45 32.5 57.75 32.3 59.8 30.1 59.95 29.0 59.95 Q23.25 60.65 16.15 58.65 L15.5 58.2 14.85 58.0 Q14.15 58.0 13.25 57.55 L10.0 56.0 10.15 53.8 10.4 52.95 9.55 53.15 11.5 43.85 Q11.5 43.2 11.75 42.75 L12.4 39.65 12.4 37.25 13.25 37.45 13.25 37.0 13.25 28.4 13.25 27.95 Q10.85 21.55 10.15 14.45 L8.85 14.9 8.2 13.85 7.95 12.05 Q7.75 11.85 7.95 11.4 L8.2 10.5 13.5 9.4 13.5 8.1 55.35 8.1 55.35 8.75 58.65 8.75 58.2 10.05 60.4 10.5 60.65 11.4 Z" fill="none" stroke="#000000" stroke-linecap="round" stroke-linejoin="round" stroke-width="0.8"/>
    <path d="M54.2 8.6 L55.35 8.6 55.35 9.05 55.35 11.05 55.35 11.25 55.55 16.1 55.55 16.8 55.55 18.1 54.45 18.55 47.35 20.95 Q43.8 22.05 35.4 25.6 32.75 25.6 14.4 16.8 L13.5 16.8 13.5 8.6 15.5 8.6 Q20.15 13.25 32.5 15.65 44.25 15.9 54.2 8.6" fill="#8c8383" fill-rule="evenodd" stroke="none"/>
    <path d="M13.5 16.8 L14.4 16.8 Q32.75 25.6 35.4 25.6 43.8 22.05 47.35 20.95 L54.45 18.55 55.55 18.1 55.75 22.95 55.75 24.5 56.0 27.6 56.2 30.7 56.2 30.9 56.2 31.55 56.2 33.75 56.4 34.65 56.4 34.9 56.4 36.85 56.4 38.45 56.65 39.95 57.1 41.1 54.9 41.7 53.1 42.15 52.45 42.15 Q50.0 43.05 46.7 43.95 40.05 45.7 38.95 47.65 31.85 49.45 31.45 47.9 31.2 46.35 30.1 45.25 29.2 44.15 26.35 43.05 L21.05 41.5 19.05 41.1 18.6 41.1 16.15 40.85 12.4 40.85 12.65 40.2 13.25 37.3 13.5 16.8" fill="#2a2929" fill-rule="evenodd" stroke="none"/>
    <path d="M57.55 57.85 L55.55 58.05 Q55.55 49.9 52.45 42.15 L53.1 42.15 54.9 41.7 Q57.3 50.15 57.55 57.85 M15.5 58.5 L14.85 58.3 13.25 57.85 Q13.25 52.8 16.15 40.85 L18.6 41.1 Q15.5 52.55 15.5 58.5" fill="#c48019" fill-rule="evenodd" stroke="none"/>
    <path d="M57.1 41.1 L57.1 41.95 57.75 45.25 59.1 50.6 59.1 50.75 59.1 51.45 59.95 54.75 60.65 56.75 Q58.85 57.15 57.55 57.85 57.3 50.15 54.9 41.7 L57.1 41.1 M38.7 60.5 L36.3 60.25 36.3 58.05 36.05 54.75 32.75 54.75 32.5 57.85 32.3 59.8 30.1 60.25 30.75 55.65 Q29.2 55.65 27.65 52.1 34.3 53.85 40.75 52.1 39.6 54.95 37.8 55.65 L38.7 60.5 M13.25 57.85 L10.0 56.3 10.15 54.1 10.4 52.35 10.6 51.45 Q10.6 51.0 10.85 50.6 11.3 47.05 12.2 43.05 L12.4 42.15 12.4 41.5 12.4 40.85 16.15 40.85 Q13.25 52.8 13.25 57.85" fill="#333030" fill-rule="evenodd" stroke="none"/>
    <path d="M55.55 58.05 Q55.35 58.05 55.1 58.3 L54.45 58.5 Q45.6 60.95 38.7 60.5 L37.8 55.65 Q39.6 54.95 40.75 52.1 34.3 53.85 27.65 52.1 29.2 55.65 30.75 55.65 L30.1 60.25 Q29.4 60.25 29.0 60.5 23.25 60.95 16.15 58.95 L15.5 58.5 Q15.5 52.55 18.6 41.1 L19.05 41.1 21.05 41.5 26.35 43.05 Q29.2 44.15 30.1 45.25 31.2 46.35 31.45 47.9 31.85 49.45 38.95 47.65 40.05 45.7 46.7 43.95 50.0 43.05 52.45 42.15 55.55 49.9 55.55 58.05" fill="#585151" fill-rule="evenodd" stroke="none"/>
    <path d="M54.2 8.6 Q44.25 15.9 32.5 15.65 20.15 13.25 15.5 8.6 L54.2 8.6" fill="#6b6262" fill-rule="evenodd" stroke="none"/>
    <path d="M40.5 39.75 L40.5 42.15 40.5 47.5 31.85 49.45 Q29.85 49.45 29.2 47.5 L29.4 42.15 29.4 39.75 Q29.85 38.0 32.5 37.3 L40.5 39.75 M33.2 39.95 Q31.65 39.95 31.65 41.5 L31.65 45.9 Q31.85 47.25 33.4 46.8 L38.5 45.7 38.5 41.95 33.2 39.95" fill="#ffe2aa" fill-rule="evenodd" stroke="none"/>
    <path d="M40.5 42.15 Q49.35 41.95 57.55 39.5 L57.55 41.1 57.75 42.6 58.2 43.95 58.2 44.6 Q49.15 46.8 40.5 47.5 L40.5 42.15 M29.4 42.15 L29.2 47.5 Q20.35 47.05 11.3 44.8 L11.5 44.15 11.75 43.05 12.4 39.95 12.4 39.5 Q21.05 41.95 29.4 42.15" fill="#e9a31b" fill-rule="evenodd" stroke="none"/>
    <path d="M40.5 42.15 L40.5 39.75 Q48.9 39.05 57.3 37.3 L57.55 39.5 Q49.35 41.95 40.5 42.15 M29.4 39.75 L29.4 42.15 Q21.05 41.95 12.4 39.5 L12.4 37.55 Q20.8 39.3 29.4 39.75" fill="#fac560" fill-rule="evenodd" stroke="none"/>
    <path d="M41.15 27.15 Q41.6 27.35 41.6 28.25 L41.15 29.4 40.5 29.55 40.05 29.55 38.95 29.4 Q38.5 28.7 38.5 28.25 38.5 27.35 38.95 27.15 39.6 26.7 40.05 26.7 L40.5 26.7 41.15 27.15" fill="#f7b638" fill-rule="evenodd" stroke="none"/>
    <path d="M41.15 27.15 Q41.6 27.35 41.6 28.25 L41.15 29.4 40.5 29.55 40.05 29.55 38.95 29.4 Q38.5 28.7 38.5 28.25 38.5 27.35 38.95 27.15 39.6 26.7 40.05 26.7 L40.5 26.7 41.15 27.15 Z" fill="none" stroke="#fac560" stroke-linecap="round" stroke-linejoin="round" stroke-width="0.5"/>
    <path d="M41.6 33.75 Q41.6 34.45 41.15 34.65 L40.5 35.1 40.05 35.1 Q39.6 35.1 38.95 34.65 38.5 34.45 38.5 33.75 38.5 33.1 38.95 32.65 L40.05 32.25 40.5 32.25 41.15 32.65 Q41.6 33.1 41.6 33.75" fill="#f7b638" fill-rule="evenodd" stroke="none"/>
    <path d="M41.6 33.75 Q41.6 34.45 41.15 34.65 L40.5 35.1 40.05 35.1 Q39.6 35.1 38.95 34.65 38.5 34.45 38.5 33.75 38.5 33.1 38.95 32.65 L40.05 32.25 40.5 32.25 41.15 32.65 Q41.6 33.1 41.6 33.75 Z" fill="none" stroke="#fac560" stroke-linecap="round" stroke-linejoin="round" stroke-width="0.5"/>
    <path d="M32.3 33.75 Q32.3 34.45 31.65 34.65 L31.0 35.1 30.55 35.35 29.4 34.65 Q29.0 34.45 29.0 33.75 29.0 32.9 29.4 32.65 L30.55 32.0 Q30.75 32.0 31.0 32.25 L31.65 32.65 Q32.3 32.9 32.3 33.75" fill="#f7b638" fill-rule="evenodd" stroke="none"/>
    <path d="M32.3 33.75 Q32.3 34.45 31.65 34.65 L31.0 35.1 30.55 35.35 29.4 34.65 Q29.0 34.45 29.0 33.75 29.0 32.9 29.4 32.65 L30.55 32.0 Q30.75 32.0 31.0 32.25 L31.65 32.65 Q32.3 32.9 32.3 33.75 Z" fill="none" stroke="#fac560" stroke-linecap="round" stroke-linejoin="round" stroke-width="0.5"/>
    <path d="M31.0 29.55 L30.55 29.55 29.4 29.4 29.2 28.25 Q29.2 27.35 29.4 27.15 30.1 26.7 30.55 26.7 L31.0 26.7 Q31.2 26.7 31.65 27.15 32.05 27.35 32.05 28.25 L31.65 29.4 31.0 29.55" fill="#f7b638" fill-rule="evenodd" stroke="none"/>
    <path d="M31.0 29.55 L30.55 29.55 29.4 29.4 29.2 28.25 Q29.2 27.35 29.4 27.15 30.1 26.7 30.55 26.7 L31.0 26.7 Q31.2 26.7 31.65 27.15 32.05 27.35 32.05 28.25 L31.65 29.4 31.0 29.55 Z" fill="none" stroke="#fac560" stroke-linecap="round" stroke-linejoin="round" stroke-width="0.5"/>
    <path d="M52.25 10.8 L54.9 9.7 55.35 9.7 60.4 10.6 60.85 11.7 60.85 12.8 Q60.65 13.9 59.75 15.0 L58.65 15.0 56.2 14.55 56.0 14.55 55.35 14.3 52.25 13.45 52.25 10.8 M10.15 14.55 L8.85 15.0 8.2 13.9 7.95 12.35 Q7.75 11.9 7.95 11.7 L8.2 10.6 13.7 9.5 16.6 10.8 16.6 13.0 13.7 14.15 13.5 14.15 13.1 14.3 11.75 14.55 11.05 14.55 10.15 14.55" fill="#e98c1b" fill-rule="evenodd" stroke="none"/>
    <path d="M55.35 14.3 L55.35 15.9 55.55 17.25 52.0 18.55 52.25 13.45 55.35 14.3 M16.6 13.0 L16.6 19.0 14.15 18.1 13.5 16.55 13.5 14.15 13.7 14.15 16.6 13.0" fill="#2a2929" fill-rule="evenodd" stroke="none"/>
    <path d="M52.0 18.55 L36.3 24.5 36.3 39.05 34.3 39.05 34.3 24.7 28.75 22.95 28.1 22.75 26.1 22.05 25.25 21.85 16.6 19.0 16.6 13.0 29.0 17.85 Q31.2 19.0 32.3 20.3 33.65 21.65 34.1 23.4 L34.3 24.7 35.15 24.95 36.3 24.5 36.3 23.4 Q36.75 20.95 39.4 19.2 42.5 17.0 52.25 13.45 L52.0 18.55" fill="#f7b638" fill-rule="evenodd" stroke="none"/>
    <path d="M16.6 10.8 L30.1 15.45 Q31.45 15.9 32.3 16.8 34.3 18.3 35.15 21.65 35.4 19.65 36.95 17.85 38.25 15.9 39.6 15.65 L50.2 11.7 52.25 10.8 52.25 13.45 Q42.5 17.0 39.4 19.2 36.75 20.95 36.3 23.4 L36.3 24.5 35.15 24.95 34.3 24.7 34.1 23.4 Q33.65 21.65 32.3 20.3 31.2 19.0 29.0 17.85 L16.6 13.0 16.6 10.8" fill="#fadc7e" fill-rule="evenodd" stroke="none"/>
    <path d="M28.75 22.95 Q28.1 28.05 25.9 31.35 23.7 34.9 20.15 34.9 15.5 34.9 13.25 28.25 10.85 21.85 10.15 14.55 L11.05 14.55 Q12.65 23.8 14.4 28.05 16.6 33.75 20.15 33.75 22.15 33.75 23.9 32.0 L25.9 28.5 Q27.2 26.3 28.1 22.75 L28.75 22.95 M25.25 21.85 L26.1 22.05 Q25.45 24.25 23.9 25.6 22.35 26.7 20.8 26.7 17.95 26.9 15.5 23.4 12.4 19.85 11.75 14.55 L13.1 14.3 13.5 16.55 14.15 18.1 Q14.6 19.45 15.5 20.75 16.6 22.95 17.7 23.8 19.05 25.15 20.8 25.15 23.25 25.15 25.25 21.85" fill="#d27300" fill-rule="evenodd" stroke="none"/>
    <path d="M10.15 51.4 L11.1 46.35 Q25.4 42.55 36.6 31.45 47.8 19.55 51.55 9.15 L56.7 9.15 Q48.5 29.1 33.2 40.1 25.9 45.35 21.0 47.7 16.6 49.85 10.15 51.4" fill="#c41919" fill-rule="evenodd" stroke="none"/>
    <path d="M56.7 9.15 L58.95 9.15 Q44.15 45.35 9.75 53.5 L10.15 51.4 Q16.6 49.85 21.0 47.7 25.9 45.35 33.2 40.1 48.5 29.1 56.7 9.15 M11.1 46.35 L11.65 44.2 Q35.6 38.5 49.4 9.15 L51.55 9.15 Q47.8 19.55 36.6 31.45 25.4 42.55 11.1 46.35" fill="#6b0000" fill-rule="evenodd" stroke="none"/>
    <path d="M53.35 30.9 L54.35 36.55 48.95 33.9 43.55 36.55 44.6 30.9 40.2 26.85 46.25 26.0 49.1 21.05 51.65 26.0 57.7 26.85 53.35 30.9" fill="url(#gradient0)" fill-rule="evenodd" stroke="none"/>
    <path d="M56.95 27.35 L53.2 30.85 54.1 35.75 49.45 33.45 44.75 35.75 45.65 30.85 41.9 27.35 47.1 26.65 49.45 22.15 51.75 26.65 56.95 27.35" fill="#ffe758" fill-rule="evenodd" stroke="none"/>
    <path d="M45.75 30.55 L41.95 27.1 49.15 29.25 45.75 30.55" fill="#f2a500" fill-rule="evenodd" stroke="none"/>
    <path d="M57.05 27.1 L53.3 30.55 50.4 29.25 57.05 27.1" fill="#f2a500" fill-rule="evenodd" stroke="none"/>
    <path d="M49.8 33.25 L44.85 35.45 49.5 29.5 54.2 35.45 49.8 33.25" fill="#d27300" fill-rule="evenodd" stroke="none"/>
    <path d="M49.1 22.2 L51.45 26.65 49.1 29.0 49.1 22.2" fill="#f2a500" fill-rule="evenodd" stroke="none"/>
  </g>
  <defs>
    <radialGradient cx="0" cy="0" gradientTransform="matrix(0.0151, 0.0, 0.0, -0.0142, 49.25, 26.1)" gradientUnits="userSpaceOnUse" id="gradient0" r="819.2" spreadMethod="pad">
      <stop offset="0.0" stop-color="#de8500"/>
      <stop offset="1.0" stop-color="#833900"/>
    </radialGradient>
  </defs>
</svg>
