<?xml version="1.0" encoding="UTF-8" standalone="no"?>
<svg xmlns:xlink="http://www.w3.org/1999/xlink" height="56.95px" width="57.85px" xmlns="http://www.w3.org/2000/svg">
  <g transform="matrix(1.0, 0.0, 0.0, 1.0, -5.4, -5.65)">
    <path d="M62.65 9.65 L62.85 11.0 Q62.65 12.25 61.7 13.4 L60.5 13.4 58.1 12.75 Q57.65 13.4 57.15 14.65 L57.15 15.1 57.15 15.8 57.15 16.75 57.4 21.75 57.4 23.6 57.65 25.85 59.8 26.0 57.65 28.2 57.85 30.3 57.85 31.05 57.85 33.4 58.1 34.35 58.1 34.8 58.1 37.0 58.1 37.65 59.05 37.45 59.3 39.55 59.3 41.5 Q59.3 42.2 59.55 42.9 L59.8 44.35 60.0 45.05 59.3 45.3 59.55 45.55 61.0 51.75 61.0 52.15 61.9 56.0 62.4 58.15 59.3 59.05 57.15 59.8 56.7 59.8 56.0 60.0 Q46.45 62.4 39.0 61.9 L36.45 61.9 36.45 59.8 36.45 56.0 32.6 56.0 32.35 59.55 32.15 61.75 29.75 61.9 28.6 61.9 Q22.4 62.65 14.75 60.5 L14.05 60.0 13.35 59.8 11.6 59.3 8.1 57.65 8.3 55.3 Q8.3 54.8 8.55 54.35 L7.65 54.6 9.75 44.55 Q9.75 43.85 10.0 43.4 10.2 41.75 10.7 40.05 L10.7 37.45 11.6 37.65 11.6 37.2 11.6 27.95 11.6 27.45 Q9.05 20.55 8.3 12.9 L6.9 13.4 6.2 12.25 Q5.9 11.3 5.9 10.35 5.7 10.1 5.9 9.65 L6.2 8.65 11.9 7.45 11.9 6.05 56.95 6.05 56.95 6.75 60.5 6.75 Q60.5 7.45 60.0 8.15 L62.4 8.65 62.65 9.65 M11.6 12.5 Q11.6 13.4 11.9 14.65 L11.9 12.25 11.6 12.5 M10.0 12.75 L9.5 12.75 Q10.7 20.35 11.9 24.85 L11.9 19.35 Q10.5 16.5 10.0 12.75" fill="#6d6060" fill-rule="evenodd" stroke="none"/>
    <path d="M62.65 9.65 L62.85 11.0 Q62.65 12.25 61.7 13.4 L60.5 13.4 58.1 12.75 Q57.65 13.4 57.15 14.65 L57.15 15.1 57.15 15.8 57.15 16.75 57.4 21.75 57.4 23.6 57.65 25.85 59.8 26.0 57.65 28.2 57.85 30.3 57.85 31.05 57.85 33.4 58.1 34.35 58.1 34.8 58.1 37.0 58.1 37.65 59.05 37.45 59.3 39.55 59.3 41.5 Q59.3 42.2 59.55 42.9 L59.8 44.35 60.0 45.05 59.3 45.3 59.55 45.55 61.0 51.75 61.0 52.15 61.9 56.0 62.4 58.15 59.3 59.05 57.15 59.8 56.7 59.8 56.0 60.0 Q46.45 62.4 39.0 61.9 L36.45 61.9 36.45 59.8 36.45 56.0 32.6 56.0 32.35 59.55 32.15 61.75 29.75 61.9 28.6 61.9 Q22.4 62.65 14.75 60.5 L14.05 60.0 13.35 59.8 11.6 59.3 8.1 57.65 8.3 55.3 Q8.3 54.8 8.55 54.35 L7.65 54.6 9.75 44.55 Q9.75 43.85 10.0 43.4 10.2 41.75 10.7 40.05 L10.7 37.45 11.6 37.65 11.6 37.2 11.6 27.95 11.6 27.45 Q9.05 20.55 8.3 12.9 L6.9 13.4 6.2 12.25 Q5.9 11.3 5.9 10.35 5.7 10.1 5.9 9.65 L6.2 8.65 11.9 7.45 11.9 6.05 56.95 6.05 56.95 6.75 60.5 6.75 Q60.5 7.45 60.0 8.15 L62.4 8.65 62.65 9.65 Z" fill="none" stroke="#000000" stroke-linecap="round" stroke-linejoin="round" stroke-width="0.8"/>
    <path d="M55.7 6.6 L56.95 6.6 56.95 7.1 56.95 9.25 56.95 9.45 57.15 14.7 57.15 15.45 57.15 16.85 56.0 17.3 48.35 19.9 Q44.5 21.1 35.45 24.9 32.6 24.9 12.85 15.45 L11.9 15.45 11.9 6.6 14.05 6.6 Q19.05 11.6 32.35 14.2 45.0 14.45 55.7 6.6" fill="#8c8383" fill-rule="evenodd" stroke="none"/>
    <path d="M11.9 15.45 L12.85 15.45 Q32.6 24.9 35.45 24.9 44.5 21.1 48.35 19.9 L56.0 17.3 57.15 16.85 57.4 22.05 57.4 23.75 57.65 27.05 57.85 30.4 57.85 30.6 57.85 31.3 57.85 33.7 58.1 34.65 58.1 34.95 58.1 37.05 58.1 38.75 58.35 40.35 58.85 41.6 56.45 42.25 54.55 42.75 53.85 42.75 47.65 44.65 Q40.45 46.55 39.3 48.65 31.65 50.6 31.2 48.95 30.95 47.25 29.75 46.05 28.8 44.9 25.7 43.7 L20.0 42.05 17.85 41.6 17.4 41.6 14.75 41.35 10.7 41.35 10.95 40.65 11.6 37.5 11.9 15.45" fill="#2a2929" fill-rule="evenodd" stroke="none"/>
    <path d="M59.3 59.65 L57.15 59.85 Q57.15 51.1 53.85 42.75 L54.55 42.75 56.45 42.25 Q59.05 51.35 59.3 59.65 M14.05 60.35 L13.35 60.15 11.6 59.65 Q11.6 54.2 14.75 41.35 L17.4 41.6 Q14.05 53.95 14.05 60.35" fill="#c48019" fill-rule="evenodd" stroke="none"/>
    <path d="M58.85 41.6 L58.85 42.5 59.55 46.05 61.0 51.85 61.0 52.0 61.0 52.75 61.9 56.3 62.65 58.45 Q60.7 58.9 59.3 59.65 59.05 51.35 56.45 42.25 L58.85 41.6 M39.0 62.5 L36.45 62.25 36.45 59.85 36.15 56.3 32.6 56.3 32.35 59.65 32.15 61.75 29.75 62.25 30.45 57.25 Q28.8 57.25 27.1 53.45 34.3 55.35 41.25 53.45 40.0 56.5 38.05 57.25 L39.0 62.5 M11.6 59.65 L8.1 57.95 8.3 55.6 8.55 53.7 8.75 52.75 Q8.75 52.25 9.05 51.85 9.5 48.0 10.5 43.7 L10.7 42.75 10.7 42.05 10.7 41.35 14.75 41.35 Q11.6 54.2 11.6 59.65" fill="#333030" fill-rule="evenodd" stroke="none"/>
    <path d="M57.15 59.85 Q56.95 59.85 56.7 60.15 L56.0 60.35 Q46.45 63.0 39.0 62.5 L38.05 57.25 Q40.0 56.5 41.25 53.45 34.3 55.35 27.1 53.45 28.8 57.25 30.45 57.25 L29.75 62.25 28.6 62.5 Q22.4 63.0 14.75 60.85 L14.05 60.35 Q14.05 53.95 17.4 41.6 L17.85 41.6 20.0 42.05 25.7 43.7 Q28.8 44.9 29.75 46.05 30.95 47.25 31.2 48.95 31.65 50.6 39.3 48.65 40.45 46.55 47.65 44.65 L53.85 42.75 Q57.15 51.1 57.15 59.85" fill="#585151" fill-rule="evenodd" stroke="none"/>
    <path d="M55.7 6.6 Q45.0 14.45 32.35 14.2 19.05 11.6 14.05 6.6 L55.7 6.6" fill="#6b6262" fill-rule="evenodd" stroke="none"/>
    <path d="M40.95 40.15 L40.95 42.75 40.95 48.5 31.65 50.6 Q29.5 50.6 28.8 48.5 L29.0 42.75 29.0 40.15 Q29.5 38.25 32.35 37.5 L40.95 40.15 M31.45 46.75 Q31.65 48.25 33.3 47.75 L38.8 46.55 38.8 42.5 33.1 40.35 Q31.45 40.35 31.45 42.05 L31.45 46.75" fill="#ffe2aa" fill-rule="evenodd" stroke="none"/>
    <path d="M40.95 42.75 Q50.5 42.5 59.3 39.9 L59.3 41.6 59.55 43.2 60.0 44.65 60.0 45.35 Q50.25 47.75 40.95 48.5 L40.95 42.75 M29.0 42.75 L28.8 48.5 Q19.25 48.0 9.5 45.6 L9.75 44.9 10.0 43.7 10.7 40.35 10.7 39.9 Q20.0 42.5 29.0 42.75" fill="#e9a31b" fill-rule="evenodd" stroke="none"/>
    <path d="M40.95 42.75 L40.95 40.15 Q50.0 39.4 59.05 37.5 L59.3 39.9 Q50.5 42.5 40.95 42.75 M29.0 40.15 L29.0 42.75 Q20.0 42.5 10.7 39.9 L10.7 37.8 Q19.75 39.65 29.0 40.15" fill="#fac560" fill-rule="evenodd" stroke="none"/>
    <path d="M42.15 27.75 L41.65 29.0 40.95 29.15 40.45 29.15 39.3 29.0 Q38.8 28.25 38.8 27.75 38.8 26.8 39.3 26.6 40.0 26.1 40.45 26.1 L40.95 26.1 41.65 26.6 Q42.15 26.8 42.15 27.75" fill="#f7b638" fill-rule="evenodd" stroke="none"/>
    <path d="M42.15 27.75 L41.65 29.0 40.95 29.15 40.45 29.15 39.3 29.0 Q38.8 28.25 38.8 27.75 38.8 26.8 39.3 26.6 40.0 26.1 40.45 26.1 L40.95 26.1 41.65 26.6 Q42.15 26.8 42.15 27.75 Z" fill="none" stroke="#fac560" stroke-linecap="round" stroke-linejoin="round" stroke-width="0.5"/>
    <path d="M41.65 34.65 L40.95 35.15 40.45 35.15 Q40.0 35.15 39.3 34.65 38.8 34.45 38.8 33.7 38.8 33.0 39.3 32.5 L40.45 32.1 40.95 32.1 41.65 32.5 Q42.15 33.0 42.15 33.7 42.15 34.45 41.65 34.65" fill="#f7b638" fill-rule="evenodd" stroke="none"/>
    <path d="M41.65 34.65 L40.95 35.15 40.45 35.15 Q40.0 35.15 39.3 34.65 38.8 34.45 38.8 33.7 38.8 33.0 39.3 32.5 L40.45 32.1 40.95 32.1 41.65 32.5 Q42.15 33.0 42.15 33.7 42.15 34.45 41.65 34.65 Z" fill="none" stroke="#fac560" stroke-linecap="round" stroke-linejoin="round" stroke-width="0.5"/>
    <path d="M31.45 32.5 Q32.15 32.8 32.15 33.7 32.15 34.45 31.45 34.65 L30.75 35.15 30.25 35.4 Q29.75 35.4 29.0 34.65 28.6 34.45 28.6 33.7 28.6 32.8 29.0 32.5 29.75 31.8 30.25 31.8 30.45 31.8 30.75 32.1 30.95 32.1 31.45 32.5" fill="#f7b638" fill-rule="evenodd" stroke="none"/>
    <path d="M31.45 32.5 Q32.15 32.8 32.15 33.7 32.15 34.45 31.45 34.65 L30.75 35.15 30.25 35.4 Q29.75 35.4 29.0 34.65 28.6 34.45 28.6 33.7 28.6 32.8 29.0 32.5 29.75 31.8 30.25 31.8 30.45 31.8 30.75 32.1 30.95 32.1 31.45 32.5 Z" fill="none" stroke="#fac560" stroke-linecap="round" stroke-linejoin="round" stroke-width="0.5"/>
    <path d="M31.45 29.0 L30.75 29.15 30.25 29.15 29.0 29.0 28.8 27.75 Q28.8 26.8 29.0 26.6 29.75 26.1 30.25 26.1 L30.75 26.1 31.45 26.6 Q31.85 26.8 31.85 27.75 L31.45 29.0" fill="#f7b638" fill-rule="evenodd" stroke="none"/>
    <path d="M31.45 29.0 L30.75 29.15 30.25 29.15 29.0 29.0 28.8 27.75 Q28.8 26.8 29.0 26.6 29.75 26.1 30.25 26.1 L30.75 26.1 31.45 26.6 Q31.85 26.8 31.85 27.75 L31.45 29.0 Z" fill="none" stroke="#fac560" stroke-linecap="round" stroke-linejoin="round" stroke-width="0.5"/>
    <path d="M53.6 9.0 L56.45 7.8 56.95 7.8 62.4 8.75 62.85 9.95 62.85 11.15 Q62.65 12.3 61.7 13.5 L60.5 13.5 57.85 13.0 57.65 13.0 56.95 12.75 53.6 11.85 53.6 9.0 M8.3 13.0 L6.9 13.5 6.2 12.3 Q5.9 11.35 5.9 10.65 5.7 10.15 5.9 9.95 L6.2 8.75 12.1 7.6 15.2 9.0 15.2 11.35 12.1 12.6 11.9 12.6 11.45 12.75 10.0 13.0 9.25 13.0 8.3 13.0" fill="#e98c1b" fill-rule="evenodd" stroke="none"/>
    <path d="M15.2 9.0 L29.75 14.0 Q31.2 14.45 32.15 15.45 34.3 17.05 35.2 20.65 35.45 18.5 37.15 16.55 38.55 14.45 40.0 14.2 L51.4 9.95 53.6 9.0 53.6 11.85 Q43.1 15.65 39.75 18.0 36.9 19.9 36.45 22.55 L36.45 23.75 35.2 24.2 34.3 23.95 34.05 22.55 Q33.6 20.65 32.15 19.2 30.95 17.8 28.6 16.55 L15.2 11.35 15.2 9.0" fill="#fadc7e" fill-rule="evenodd" stroke="none"/>
    <path d="M56.95 12.75 L56.95 14.45 Q56.95 15.65 57.15 15.9 L53.35 17.3 53.6 11.85 56.95 12.75 M15.2 11.35 L15.2 17.8 12.6 16.85 11.9 15.15 11.9 12.6 12.1 12.6 15.2 11.35" fill="#2a2929" fill-rule="evenodd" stroke="none"/>
    <path d="M53.35 17.3 L36.45 23.75 36.45 39.4 34.3 39.4 34.3 23.95 28.3 22.05 27.6 21.85 25.45 21.1 24.55 20.9 15.2 17.8 15.2 11.35 28.6 16.55 Q30.95 17.8 32.15 19.2 33.6 20.65 34.05 22.55 L34.3 23.95 35.2 24.2 36.45 23.75 36.45 22.55 Q36.9 19.9 39.75 18.0 43.1 15.65 53.6 11.85 L53.35 17.3" fill="#f7b638" fill-rule="evenodd" stroke="none"/>
    <path d="M28.3 22.05 Q27.6 27.55 25.25 31.1 22.85 34.95 19.05 34.95 14.05 34.95 11.6 27.75 9.05 20.9 8.3 13.0 L9.25 13.0 Q10.95 23.0 12.85 27.55 15.2 33.7 19.05 33.7 21.2 33.7 23.1 31.8 L25.25 28.05 Q26.65 25.65 27.6 21.85 L28.3 22.05 M24.55 20.9 L25.45 21.1 Q24.75 23.45 23.1 24.9 21.4 26.1 19.75 26.1 16.7 26.3 14.05 22.55 10.7 18.7 10.0 13.0 L11.45 12.75 11.9 15.15 12.6 16.85 Q13.05 18.3 14.05 19.7 15.2 22.05 16.4 23.0 17.85 24.45 19.75 24.45 22.4 24.45 24.55 20.9" fill="#d27300" fill-rule="evenodd" stroke="none"/>
    <path d="M52.85 7.3 L58.4 7.3 Q49.55 28.75 33.1 40.6 25.25 46.25 19.95 48.8 15.2 51.1 8.25 52.8 L9.3 47.3 Q24.7 43.25 36.8 31.3 48.85 18.45 52.85 7.3" fill="#c41919" fill-rule="evenodd" stroke="none"/>
    <path d="M9.3 47.3 L9.9 45.0 Q35.7 38.85 50.55 7.3 L52.85 7.3 Q48.85 18.45 36.8 31.3 24.7 43.25 9.3 47.3 M58.4 7.3 L60.85 7.3 Q44.9 46.25 7.85 55.05 L8.25 52.8 Q15.2 51.1 19.95 48.8 25.25 46.25 33.1 40.6 49.55 28.75 58.4 7.3" fill="#6b0000" fill-rule="evenodd" stroke="none"/>
    <path d="M54.75 30.75 L55.85 36.85 50.05 33.95 44.2 36.85 45.35 30.75 40.6 26.4 47.15 25.5 50.2 20.15 52.95 25.5 59.45 26.4 54.75 30.75" fill="url(#gradient0)" fill-rule="evenodd" stroke="none"/>
    <path d="M58.7 26.55 L54.65 30.3 55.6 35.55 50.6 33.05 45.55 35.55 46.55 30.3 42.5 26.55 48.1 25.75 50.6 20.95 53.1 25.75 58.7 26.55" fill="#ffe758" fill-rule="evenodd" stroke="none"/>
    <path d="M46.65 30.25 L42.6 26.5 50.35 28.8 46.65 30.25" fill="#f2a500" fill-rule="evenodd" stroke="none"/>
    <path d="M58.85 26.5 L54.8 30.25 51.7 28.8 58.85 26.5" fill="#f2a500" fill-rule="evenodd" stroke="none"/>
    <path d="M51.0 33.1 L45.7 35.5 50.75 29.1 55.75 35.5 51.0 33.1" fill="#d27300" fill-rule="evenodd" stroke="none"/>
    <path d="M50.1 21.2 L52.6 26.0 50.1 28.5 50.1 21.2" fill="#f2a500" fill-rule="evenodd" stroke="none"/>
  </g>
  <defs>
    <radialGradient cx="0" cy="0" gradientTransform="matrix(0.0162, 0.0, 0.0, -0.0153, 50.35, 25.6)" gradientUnits="userSpaceOnUse" id="gradient0" r="819.2" spreadMethod="pad">
      <stop offset="0.0" stop-color="#de8500"/>
      <stop offset="1.0" stop-color="#833900"/>
    </radialGradient>
  </defs>
</svg>
