<?xml version="1.0" encoding="UTF-8" standalone="no"?>
<svg xmlns:xlink="http://www.w3.org/1999/xlink" height="69.55px" width="69.05px" xmlns="http://www.w3.org/2000/svg">
  <g transform="matrix(1.0, 0.0, 0.0, 1.0, -1.15, -0.55)">
    <path d="M55.85 0.55 Q70.2 0.55 70.2 14.9 L70.2 55.75 Q70.2 70.1 55.85 70.1 L15.5 70.1 Q1.15 70.1 1.15 55.75 L1.15 14.9 Q1.15 0.55 15.5 0.55 L55.85 0.55" fill="#cff3e8" fill-rule="evenodd" stroke="none"/>
    <path d="M46.4 11.45 L47.05 11.25 56.05 11.45 62.7 16.4 56.5 27.1 56.5 27.35 56.5 30.35 56.7 33.1 56.7 33.35 56.7 34.0 56.9 35.9 56.9 36.75 56.9 37.35 56.9 38.0 56.9 38.65 56.9 39.1 56.9 40.6 57.3 42.3 Q57.3 42.75 57.55 42.75 L57.55 43.35 57.75 43.8 58.2 47.0 59.5 52.6 59.5 52.8 59.7 53.0 60.1 56.0 60.3 56.45 60.95 58.35 Q59.5 59.0 57.95 59.25 56.9 59.45 56.25 59.9 L55.6 60.1 54.95 60.1 53.25 60.55 Q45.95 62.0 40.4 62.0 L39.95 62.0 37.4 61.8 37.4 60.1 37.4 57.95 37.4 56.25 36.55 56.25 36.55 56.45 34.6 56.45 34.6 56.25 33.95 56.25 33.95 57.95 33.75 60.1 33.75 61.35 31.4 62.0 30.95 62.0 30.55 62.0 Q25.4 62.45 18.95 60.75 L18.15 60.3 17.25 60.1 16.6 60.1 15.35 59.45 11.9 57.95 12.15 56.0 12.55 53.9 12.55 53.65 12.75 52.6 Q13.2 48.75 14.05 45.3 L14.25 44.25 14.25 43.8 14.5 42.95 14.5 42.55 15.15 39.55 15.35 27.55 8.9 18.1 15.35 10.2 46.4 11.45" fill="#2c2323" fill-rule="evenodd" stroke="none"/>
    <path d="M46.4 11.45 L15.35 10.2 8.9 18.1 15.35 27.55 15.15 39.55 14.5 42.55 14.5 42.95 14.25 43.8 14.25 44.25 14.05 45.3 Q13.2 48.75 12.75 52.6 L12.55 53.65 12.55 53.9 12.15 56.0 11.9 57.95 15.35 59.45 16.6 60.1 17.25 60.1 18.15 60.3 18.95 60.75 Q25.4 62.45 30.55 62.0 L30.95 62.0 31.4 62.0 33.75 61.35 33.75 60.1 33.95 57.95 33.95 56.25 34.6 56.25 34.6 56.45 36.55 56.45 36.55 56.25 37.4 56.25 37.4 57.95 37.4 60.1 37.4 61.8 39.95 62.0 40.4 62.0 Q45.95 62.0 53.25 60.55 L54.95 60.1 55.6 60.1 56.25 59.9 Q56.9 59.45 57.95 59.25 59.5 59.0 60.95 58.35 L60.3 56.45 60.1 56.0 59.7 53.0 59.5 52.8 59.5 52.6 58.2 47.0 57.75 43.8 57.55 43.35 57.55 42.75 Q57.3 42.75 57.3 42.3 L56.9 40.6 56.9 39.1 56.9 38.65 56.9 38.0 56.9 37.35 56.9 36.75 56.9 35.9 56.7 34.0 56.7 33.35 56.7 33.1 56.5 30.35 56.5 27.35 56.5 27.1 62.7 16.4 56.05 11.45 47.05 11.25 46.4 11.45 Z" fill="none" stroke="#100f0f" stroke-linecap="round" stroke-linejoin="round" stroke-width="0.8"/>
    <path d="M61.2 15.55 L62.5 16.65 56.5 27.1 55.85 24.35 56.05 24.1 61.2 15.55 M15.35 27.55 L8.7 18.35 9.95 16.8 15.75 25.0 15.35 27.55 M11.25 15.35 L12.55 13.65 16.85 19.0 16.2 22.2 11.25 15.35 M21.15 10.65 L21.35 10.65 25.4 10.85 Q27.55 20.9 34.6 22.65 L37.6 23.05 Q44.5 22.65 47.9 11.45 L50.7 11.45 51.3 11.45 50.9 13.2 Q49.85 18.35 46.6 21.75 43.2 25.4 38.9 26.05 L35.7 26.25 32.5 25.4 Q27.95 24.35 24.95 20.25 22.4 16.8 21.35 11.45 L21.15 10.65 M26.05 10.85 L27.3 10.85 Q27.95 15.35 30.15 18.35 32.5 21.35 35.7 21.75 39.3 22.0 41.9 19.4 44.25 17.05 46.4 11.45 L47.05 11.45 Q44.9 17.25 42.3 20.05 39.75 22.4 36.15 22.4 32.5 22.0 30.15 19.2 27.55 16.2 26.05 10.85 M57.95 13.2 L59.9 14.45 55.2 21.75 54.75 18.75 57.95 13.2 M19.4 56.0 Q25.4 57.55 31.85 57.95 L31.4 60.1 Q24.75 60.1 18.95 58.35 L19.4 56.0 M39.75 57.95 Q47.25 57.75 53.05 56.0 L53.25 59.0 Q47.25 60.55 39.95 60.55 L39.75 57.95" fill="#ffbb1b" fill-rule="evenodd" stroke="none"/>
    <path d="M56.5 27.1 L56.5 27.35 56.5 30.35 56.7 33.35 56.7 33.55 56.7 34.0 56.9 36.1 56.9 37.0 56.9 37.35 56.9 38.25 56.9 38.9 56.9 39.3 56.9 40.8 57.3 42.3 Q57.3 42.75 57.55 42.95 L57.55 43.35 57.55 44.0 58.2 47.25 59.5 52.6 59.5 52.8 59.7 53.25 Q56.7 54.95 53.05 56.0 L52.4 50.65 51.75 44.65 52.2 39.75 52.4 38.25 52.6 32.45 Q52.6 29.05 52.85 28.4 L52.2 22.65 Q51.95 18.55 51.55 16.65 51.3 14.45 50.9 13.2 L51.3 11.45 53.05 11.45 54.75 18.75 55.2 21.75 55.85 24.35 56.5 27.1 M60.1 56.0 L60.3 56.45 60.95 58.35 57.95 59.45 56.05 59.9 Q56.05 60.1 55.6 60.1 L54.95 60.1 53.25 60.55 53.25 59.0 Q56.9 57.95 60.1 56.0 M40.2 62.0 L39.75 62.0 37.4 62.0 37.4 60.3 39.95 60.55 40.2 62.0 M37.4 57.95 L37.4 56.45 33.95 56.45 33.95 57.95 31.85 57.95 32.5 55.8 29.5 52.35 Q35.7 53.9 42.1 52.35 41.05 54.95 39.55 56.0 L39.75 57.95 37.4 57.95 M33.55 60.1 L33.55 61.6 31.4 62.0 30.95 62.0 31.4 60.1 33.55 60.1 M18.95 60.95 Q18.35 60.75 18.15 60.55 L17.25 60.3 16.6 60.1 15.35 59.65 11.9 58.15 12.15 56.0 Q15.35 57.55 18.95 58.35 L18.95 59.25 18.95 60.95 M12.55 53.9 L12.75 52.6 Q13.2 48.95 14.05 45.3 L14.25 44.25 14.25 43.8 14.5 42.95 14.5 42.75 15.15 39.75 15.35 27.55 15.75 25.0 16.2 22.2 16.85 19.0 18.35 10.65 21.15 10.65 21.35 11.45 20.25 20.25 19.85 32.45 Q19.85 35.7 20.25 38.25 L20.7 39.75 21.55 43.15 20.25 50.25 Q19.6 53.65 19.4 56.0 L12.55 53.9" fill="#1c1717" fill-rule="evenodd" stroke="none"/>
    <path d="M53.25 60.55 Q45.95 62.25 40.2 62.0 L39.95 60.55 Q47.25 60.55 53.25 59.0 L53.25 60.55 M30.95 62.0 L30.3 62.0 Q25.4 62.45 18.95 60.95 L18.95 59.25 18.95 58.35 Q24.75 60.1 31.4 60.1 L30.95 62.0 M9.95 16.8 L11.25 15.35 16.2 22.2 15.75 25.0 9.95 16.8 M12.55 13.65 L15.35 10.4 18.35 10.65 16.85 19.0 12.55 13.65 M53.05 11.45 L56.05 11.7 57.95 13.2 54.75 18.75 53.05 11.45 M59.9 14.45 L61.2 15.55 56.05 24.1 55.85 24.35 55.2 21.75 59.9 14.45 M50.9 13.2 Q51.3 14.45 51.55 16.65 51.95 18.55 52.2 22.65 L52.85 28.4 Q52.6 29.05 52.6 32.45 L52.4 38.25 52.2 39.75 51.75 44.65 52.4 50.65 53.05 56.0 Q47.25 57.75 39.75 57.95 L39.55 56.0 Q41.05 54.95 42.1 52.35 35.7 53.9 29.5 52.35 L32.5 55.8 31.85 57.95 Q25.4 57.55 19.4 56.0 19.6 53.65 20.25 50.25 L21.55 43.15 20.7 39.75 20.25 38.25 Q19.85 35.7 19.85 32.45 L20.25 20.25 21.35 11.45 Q22.4 16.8 24.95 20.25 27.95 24.35 32.5 25.4 L35.7 26.25 38.9 26.05 Q43.2 25.4 46.6 21.75 49.85 18.35 50.9 13.2" fill="#333030" fill-rule="evenodd" stroke="none"/>
    <path d="M25.4 10.85 L26.05 10.85 Q27.55 16.2 30.15 19.2 32.5 22.0 36.15 22.4 39.75 22.4 42.3 20.05 44.9 17.25 47.05 11.45 L47.9 11.45 Q44.5 22.65 37.6 23.05 L34.6 22.65 Q27.55 20.9 25.4 10.85 M27.3 10.85 L46.4 11.45 Q44.25 17.05 41.9 19.4 39.3 22.0 35.7 21.75 32.5 21.35 30.15 18.35 27.95 15.35 27.3 10.85" fill="#4d4242" fill-rule="evenodd" stroke="none"/>
    <path d="M59.7 53.25 L60.1 56.0 Q56.9 57.95 53.25 59.0 L53.05 56.0 Q56.7 54.95 59.7 53.25 M37.4 60.3 L37.4 57.95 39.75 57.95 39.95 60.55 37.4 60.3 M33.95 57.95 L33.55 60.1 31.4 60.1 31.85 57.95 33.95 57.95 M12.15 56.0 L12.55 54.1 12.55 53.9 19.4 56.0 18.95 58.35 Q15.35 57.55 12.15 56.0" fill="#b48006" fill-rule="evenodd" stroke="none"/>
  </g>
</svg>
