<?xml version="1.0" encoding="UTF-8" standalone="no"?>
<svg xmlns:xlink="http://www.w3.org/1999/xlink" height="71.55px" width="71.05px" xmlns="http://www.w3.org/2000/svg">
  <g transform="matrix(1.0, 0.0, 0.0, 1.0, -0.15, 0.45)">
    <path d="M55.85 0.55 Q70.2 0.55 70.2 14.9 L70.2 55.75 Q70.2 70.1 55.85 70.1 L15.5 70.1 Q1.15 70.1 1.15 55.75 L1.15 14.9 Q1.15 0.55 15.5 0.55 L55.85 0.55" fill="#000000" fill-opacity="0.29803923" fill-rule="evenodd" stroke="none"/>
    <path d="M55.85 0.55 L15.5 0.55 Q1.15 0.55 1.15 14.9 L1.15 55.75 Q1.15 70.1 15.5 70.1 L55.85 70.1 Q70.2 70.1 70.2 55.75 L70.2 14.9 Q70.2 0.55 55.85 0.55 Z" fill="none" stroke="#666666" stroke-linecap="round" stroke-linejoin="round" stroke-opacity="0.9019608" stroke-width="2.0"/>
  </g>
</svg>
