<?xml version="1.0" encoding="UTF-8" standalone="no"?>
<svg xmlns:xlink="http://www.w3.org/1999/xlink" height="54.1px" width="51.55px" xmlns="http://www.w3.org/2000/svg">
  <g transform="matrix(1.0, 0.0, 0.0, 1.0, -4.35, -2.6)">
    <path d="M51.9 3.0 L54.2 5.05 52.4 7.85 55.5 53.0 Q53.7 54.0 51.6 54.5 43.9 57.05 33.85 55.05 L32.05 54.5 32.05 49.1 Q30.5 49.9 28.95 49.1 L28.95 54.5 26.9 55.05 Q17.65 57.85 9.15 54.5 6.85 53.45 4.75 52.2 L5.25 48.6 5.25 46.75 8.9 10.2 Q7.1 7.6 5.8 5.05 L8.6 3.0 51.9 3.0" fill="#b4b4c4" fill-rule="evenodd" stroke="none"/>
    <path d="M51.9 3.0 L8.6 3.0 5.8 5.05 Q7.1 7.6 8.9 10.2 L5.25 46.75 5.25 48.6 4.75 52.2 Q6.85 53.45 9.15 54.5 17.65 57.85 26.9 55.05 L28.95 54.5 28.95 49.1 Q30.5 49.9 32.05 49.1 L32.05 54.5 33.85 55.05 Q43.9 57.05 51.6 54.5 53.7 54.0 55.5 53.0 L52.4 7.85 54.2 5.05 51.9 3.0 Z" fill="none" stroke="#202235" stroke-linecap="round" stroke-linejoin="round" stroke-width="0.8"/>
    <path d="M10.45 26.15 L10.45 20.25 Q10.2 17.45 10.7 14.35 10.95 12.5 12.5 12.0 14.05 11.5 16.6 12.8 19.45 14.1 21.25 14.6 23.8 15.6 26.65 16.4 L26.9 16.4 27.45 16.65 27.45 16.4 34.4 16.65 34.1 16.9 34.65 16.65 Q40.8 15.1 45.45 12.25 50.3 11.2 50.85 17.45 L50.85 26.45 43.1 29.0 35.15 30.3 Q31.05 30.8 25.6 30.3 16.35 29.25 10.45 26.15" fill="#fffeff" fill-rule="evenodd" stroke="none"/>
    <path d="M50.85 26.45 L50.85 17.45 Q50.3 11.2 45.45 12.25 40.8 15.1 34.65 16.65 L34.1 16.9 34.4 16.65 27.45 16.4 27.45 16.65 26.9 16.4 26.65 16.4 Q23.8 15.6 21.25 14.6 19.45 14.1 16.6 12.8 14.05 11.5 12.5 12.0 10.95 12.5 10.7 14.35 10.2 17.45 10.45 20.25 L10.45 26.15 7.85 24.65 9.65 3.25 52.15 3.25 53.7 25.4 51.6 26.15 Q51.35 26.15 50.85 26.45" fill="#e5e5e7" fill-rule="evenodd" stroke="none"/>
    <path d="M50.85 26.45 Q51.35 26.15 51.6 26.15 L53.7 25.4 53.9 27.2 51.1 28.25 50.85 26.45 M7.85 24.65 L10.45 26.15 9.9 28.5 7.35 27.2 7.85 24.65" fill="#252f69" fill-rule="evenodd" stroke="none"/>
    <path d="M10.45 26.15 Q16.35 29.25 25.6 30.3 31.05 30.8 35.15 30.3 L43.1 29.0 50.85 26.45 51.1 28.25 Q30.5 37.0 9.9 28.5 L10.45 26.15" fill="#585f8c" fill-rule="evenodd" stroke="none"/>
    <path d="M51.1 28.25 L53.9 27.2 54.2 31.35 51.1 32.85 Q51.35 30.55 51.1 28.25 M7.1 31.1 L7.35 27.2 9.9 28.5 9.65 32.1 7.1 31.1" fill="#1c234d" fill-rule="evenodd" stroke="none"/>
    <path d="M54.2 31.35 L54.2 33.4 50.6 34.95 51.1 32.85 54.2 31.35 M9.65 33.9 Q8.35 33.4 6.85 32.35 L7.1 31.1 9.65 32.1 9.65 33.9" fill="#151b3c" fill-rule="evenodd" stroke="none"/>
    <path d="M9.9 28.5 Q30.5 37.0 51.1 28.25 51.35 30.55 51.1 32.85 30.5 41.1 9.65 32.1 L9.9 28.5" fill="#2a3260" fill-rule="evenodd" stroke="none"/>
    <path d="M50.6 34.95 Q43.35 37.75 34.1 38.05 18.9 38.55 9.65 33.9 L9.65 32.1 Q30.5 41.1 51.1 32.85 L50.6 34.95" fill="#21284d" fill-rule="evenodd" stroke="none"/>
    <path d="M8.9 3.25 L9.9 3.25 Q16.1 14.35 28.2 19.2 L27.7 19.2 27.45 19.2 Q14.05 14.6 8.9 3.25 M10.7 3.25 L21.0 3.0 Q21.25 4.8 21.8 6.35 L22.8 9.15 24.6 13.3 26.65 16.4 28.95 19.45 28.75 19.45 28.45 19.2 Q17.4 14.35 10.7 3.25 M39.3 3.0 L50.3 3.0 Q42.35 13.3 32.55 19.2 L32.35 19.2 32.05 19.45 32.55 18.7 34.1 16.4 35.95 13.3 37.45 9.15 Q38.0 8.15 38.25 6.35 L39.3 3.0 M51.35 3.0 L52.15 3.0 Q43.65 14.8 33.35 19.2 L32.8 19.2 Q43.1 13.8 51.35 3.0 M35.4 6.35 L35.15 9.15 25.1 9.15 Q24.6 7.85 24.6 6.35 L35.4 6.35 M27.7 16.4 L26.4 13.3 34.1 13.3 32.8 16.4 27.7 16.4" fill="#fffeff" fill-rule="evenodd" stroke="none"/>
    <path d="M52.15 3.0 L54.45 5.3 Q53.2 7.4 51.6 9.15 43.9 19.45 34.4 22.55 L34.4 21.55 Q34.65 20.25 34.1 19.75 33.6 19.2 33.35 19.2 43.65 14.8 52.15 3.0 M26.4 22.55 Q15.05 18.45 9.15 10.5 7.35 7.85 6.05 5.3 L8.9 3.25 Q14.05 14.6 27.45 19.2 26.4 19.75 26.4 21.05 L26.4 22.55 M9.9 3.25 L10.7 3.25 Q17.4 14.35 28.45 19.2 L28.2 19.2 Q16.1 14.35 9.9 3.25 M24.1 3.0 L35.7 3.0 35.4 6.35 24.6 6.35 Q24.1 4.8 24.1 3.0 M50.3 3.0 L51.35 3.0 Q43.1 13.8 32.8 19.2 L32.55 19.2 Q42.35 13.3 50.3 3.0 M28.95 19.45 L28.45 18.7 27.7 16.4 32.8 16.4 32.05 19.2 32.05 19.45 31.55 19.45 28.95 19.45 M34.1 13.3 L26.4 13.3 Q25.6 11.2 25.1 9.15 L35.15 9.15 34.1 13.3" fill="#2a3260" fill-rule="evenodd" stroke="none"/>
    <path d="M21.0 3.0 L24.1 3.0 Q24.1 4.8 24.6 6.35 L21.8 6.35 Q21.25 4.8 21.0 3.0 M35.7 3.0 L39.3 3.0 38.25 6.35 35.4 6.35 35.7 3.0 M35.15 9.15 L37.45 9.15 35.95 13.3 34.1 13.3 35.15 9.15 M22.8 9.15 L25.1 9.15 Q25.6 11.2 26.4 13.3 L24.6 13.3 22.8 9.15 M26.65 16.4 L27.7 16.4 28.45 18.7 28.95 19.45 26.65 16.4 M32.8 16.4 L34.1 16.4 32.55 18.7 32.05 19.45 32.05 19.2 32.8 16.4" fill="#151d4a" fill-rule="evenodd" stroke="none"/>
    <path d="M35.4 6.35 L38.25 6.35 Q38.0 8.15 37.45 9.15 L35.15 9.15 35.4 6.35 M21.8 6.35 L24.6 6.35 Q24.6 7.85 25.1 9.15 L22.8 9.15 21.8 6.35 M27.7 16.4 L26.65 16.4 24.6 13.3 26.4 13.3 27.7 16.4 M32.8 16.4 L34.1 13.3 35.95 13.3 34.1 16.4 32.8 16.4" fill="#c7c6ce" fill-rule="evenodd" stroke="none"/>
    <path d="M34.4 22.55 L34.1 23.1 33.6 23.6 32.8 24.15 29.75 24.4 27.15 23.85 26.9 23.35 26.4 22.55 26.4 21.05 Q26.4 19.75 27.45 19.2 L27.7 19.2 28.2 19.2 28.45 19.2 28.75 19.45 28.95 19.45 31.55 19.45 32.05 19.45 32.35 19.2 32.55 19.2 32.8 19.2 33.35 19.2 Q33.6 19.2 34.1 19.75 34.65 20.25 34.4 21.55 L34.4 22.55" fill="#232a54" fill-rule="evenodd" stroke="none"/>
    <path d="M34.1 23.1 Q34.1 23.85 33.6 24.4 L27.45 24.4 26.65 23.35 26.4 22.05 Q28.2 21.3 30.75 21.3 L34.4 21.8 34.1 23.1 M25.85 23.35 L26.4 23.6 26.65 24.15 26.9 24.65 26.4 27.2 Q25.6 29.8 25.6 30.8 L25.6 31.1 Q25.85 29.8 26.65 28.25 27.45 26.15 28.2 26.15 L28.95 26.15 30.0 26.45 30.25 26.25 30.25 26.95 30.25 27.2 29.45 30.55 Q28.45 32.6 25.6 35.45 L23.8 37.75 Q23.8 37.0 24.1 35.95 24.6 34.15 23.8 32.85 23.05 31.35 23.05 29.8 23.05 28.25 23.8 26.15 24.85 23.85 25.85 23.35 M30.5 28.5 L30.75 28.0 Q31.3 27.45 31.55 27.45 L32.55 30.55 Q33.35 32.1 34.4 33.4 L33.35 30.55 Q33.05 29.5 33.05 28.25 L33.05 27.2 33.85 26.95 Q33.85 26.7 34.1 26.7 L34.9 27.2 35.7 28.25 Q36.15 28.75 36.7 32.6 L36.15 33.9 36.15 35.45 36.4 37.5 Q35.7 36.2 34.65 35.2 31.8 32.35 30.75 30.3 L30.5 28.5" fill="#e5e5e7" fill-rule="evenodd" stroke="none"/>
    <path d="M26.65 23.35 L27.45 24.4 33.6 24.4 Q34.1 23.85 34.1 23.1 35.7 23.6 36.7 25.65 37.45 27.45 36.7 31.6 L36.7 32.6 Q36.15 28.75 35.7 28.25 L34.9 27.2 34.1 26.7 Q33.85 26.7 33.85 26.95 L33.05 27.2 33.05 28.25 Q33.05 29.5 33.35 30.55 L34.4 33.4 Q33.35 32.1 32.55 30.55 L31.55 27.45 Q31.3 27.45 30.75 28.0 L30.5 28.5 Q30.25 28.0 30.25 27.2 L30.25 26.95 30.25 26.25 30.0 26.45 28.95 26.15 28.2 26.15 Q27.45 26.15 26.65 28.25 25.85 29.8 25.6 31.1 L25.6 30.8 Q25.6 29.8 26.4 27.2 L26.9 24.65 26.65 24.15 26.4 23.6 25.85 23.35 26.65 23.35 M34.4 21.8 L30.75 21.3 Q28.2 21.3 26.4 22.05 26.4 20.8 27.45 19.2 L33.6 19.2 Q34.4 20.5 34.4 21.8" fill="#c8c8c8" fill-rule="evenodd" stroke="none"/>
    <path d="M50.6 34.95 L54.2 33.4 55.5 47.8 52.15 49.1 Q52.65 43.15 50.6 34.95 M55.5 49.65 L55.5 51.4 51.9 53.0 52.4 50.65 55.5 49.65 M32.35 53.25 L32.35 51.15 34.4 51.7 34.1 53.75 32.35 53.25 M32.35 49.4 Q30.75 50.4 29.2 49.4 L26.9 49.9 25.85 46.5 Q30.5 48.6 35.95 46.5 35.15 48.6 34.9 50.1 L32.35 49.4 M29.2 51.4 L29.2 53.0 Q28.2 53.25 27.15 53.75 L27.15 51.95 29.2 51.4 M5.25 50.65 L5.55 48.85 Q7.35 50.1 9.15 50.65 L9.15 53.0 5.25 50.65 M5.55 47.3 L6.85 32.35 Q8.35 33.4 9.65 33.9 8.9 41.65 9.15 48.6 L5.55 47.3" fill="#d3d1d4" fill-rule="evenodd" stroke="none"/>
    <path d="M55.5 47.8 L55.5 49.65 52.4 50.65 52.15 49.1 55.5 47.8 M55.5 51.4 L55.75 53.45 51.9 55.05 51.9 53.0 55.5 51.4 M34.1 55.3 L32.35 55.05 32.35 53.25 34.1 53.75 34.1 55.3 M32.35 51.15 L32.35 49.4 34.9 50.1 34.4 51.7 32.35 51.15 M29.2 49.4 L29.2 51.4 27.15 51.95 26.9 49.9 29.2 49.4 M29.2 53.0 L29.2 54.75 27.15 55.3 27.15 53.75 Q28.2 53.25 29.2 53.0 M9.4 54.75 Q7.1 54.0 5.0 52.75 L5.25 50.65 9.15 53.0 9.4 54.75 M5.55 48.85 L5.55 47.3 9.15 48.6 9.15 50.65 Q7.35 50.1 5.55 48.85" fill="#1e254d" fill-rule="evenodd" stroke="none"/>
    <path d="M9.65 33.9 Q18.9 38.55 34.1 38.05 43.35 37.75 50.6 34.95 52.65 43.15 52.15 49.1 43.9 51.95 34.9 50.1 35.15 48.6 35.95 46.5 30.5 48.6 25.85 46.5 L26.9 49.9 Q17.65 51.95 9.15 48.6 8.9 41.65 9.65 33.9 M34.1 53.75 L34.4 51.7 Q41.85 53.25 48.55 51.7 L52.4 50.65 51.9 53.0 Q43.35 56.35 34.1 53.75 M27.15 51.95 L27.15 53.75 Q17.9 56.6 9.15 53.0 L9.15 50.65 Q17.15 54.0 27.15 51.95" fill="#fffeff" fill-rule="evenodd" stroke="none"/>
    <path d="M51.9 55.05 Q44.15 57.35 34.1 55.3 L34.1 53.75 Q43.35 56.35 51.9 53.0 L51.9 55.05 M27.15 55.3 Q17.9 58.1 9.4 54.75 L9.15 53.0 Q17.9 56.6 27.15 53.75 L27.15 55.3 M9.15 48.6 Q17.65 51.95 26.9 49.9 L27.15 51.95 Q17.15 54.0 9.15 50.65 L9.15 48.6 M34.9 50.1 Q43.9 51.95 52.15 49.1 L52.4 50.65 48.55 51.7 Q41.85 53.25 34.4 51.7 L34.9 50.1" fill="#2a3260" fill-rule="evenodd" stroke="none"/>
  </g>
</svg>
