<?xml version="1.0" encoding="UTF-8" standalone="no"?>
<svg xmlns:xlink="http://www.w3.org/1999/xlink" height="56.6px" width="53.95px" xmlns="http://www.w3.org/2000/svg">
  <g transform="matrix(1.0, 0.0, 0.0, 1.0, -3.35, -1.55)">
    <path d="M55.55 4.1 L53.65 7.0 56.9 54.3 Q55.0 55.35 52.8 55.85 44.75 58.5 34.25 56.45 33.4 56.1 32.35 55.85 L32.35 50.2 Q30.75 51.05 29.1 50.2 L29.1 55.85 26.95 56.45 Q17.3 59.35 8.4 55.85 L3.75 53.45 4.3 49.7 4.3 47.75 8.1 9.5 4.85 4.1 7.8 1.95 53.15 1.95 55.55 4.1" fill="#b4b4c4" fill-rule="evenodd" stroke="none"/>
    <path d="M55.55 4.1 L53.15 1.95 7.8 1.95 4.85 4.1 8.1 9.5 4.3 47.75 4.3 49.7 3.75 53.45 8.4 55.85 Q17.3 59.35 26.95 56.45 L29.1 55.85 29.1 50.2 Q30.75 51.05 32.35 50.2 L32.35 55.85 Q33.4 56.1 34.25 56.45 44.75 58.5 52.8 55.85 55.0 55.35 56.9 54.3 L53.65 7.0 55.55 4.1 Z" fill="none" stroke="#202235" stroke-linecap="round" stroke-linejoin="round" stroke-width="0.8"/>
    <path d="M9.75 26.2 L9.75 20.0 Q9.5 17.05 10.0 13.8 10.25 11.9 11.9 11.35 13.5 10.85 16.2 12.2 19.15 13.55 21.05 14.1 23.7 15.15 26.7 15.95 L26.95 15.95 27.55 16.25 27.55 15.95 34.8 16.25 34.5 16.5 35.05 16.25 Q41.5 14.6 46.4 11.6 51.45 10.55 52.05 17.05 L52.05 26.5 43.9 29.15 35.6 30.5 Q31.3 31.05 25.6 30.5 15.9 29.4 9.75 26.2" fill="#fffeff" fill-rule="evenodd" stroke="none"/>
    <path d="M52.05 26.5 L52.05 17.05 Q51.45 10.55 46.4 11.6 41.5 14.6 35.05 16.25 L34.5 16.5 34.8 16.25 27.55 15.95 27.55 16.25 26.95 15.95 26.7 15.95 Q23.7 15.15 21.05 14.1 19.15 13.55 16.2 12.2 13.5 10.85 11.9 11.35 10.25 11.9 10.0 13.8 9.5 17.05 9.75 20.0 L9.75 26.2 7.0 24.6 8.9 2.2 53.4 2.2 55.0 25.4 52.8 26.2 52.05 26.5" fill="#e5e5e7" fill-rule="evenodd" stroke="none"/>
    <path d="M52.05 26.5 L52.8 26.2 55.0 25.4 55.25 27.3 52.3 28.35 52.05 26.5 M7.0 24.6 L9.75 26.2 9.15 28.65 6.5 27.3 7.0 24.6" fill="#252f69" fill-rule="evenodd" stroke="none"/>
    <path d="M9.75 26.2 Q15.9 29.4 25.6 30.5 31.3 31.05 35.6 30.5 L43.9 29.15 52.05 26.5 52.3 28.35 Q30.75 37.55 9.15 28.65 L9.75 26.2" fill="#585f8c" fill-rule="evenodd" stroke="none"/>
    <path d="M52.3 28.35 L55.25 27.3 55.55 31.6 52.3 33.2 Q52.55 30.8 52.3 28.35 M6.25 31.35 L6.5 27.3 9.15 28.65 Q8.9 30.5 8.9 32.4 L6.25 31.35" fill="#1c234d" fill-rule="evenodd" stroke="none"/>
    <path d="M55.55 31.6 L55.55 33.75 51.75 35.4 52.3 33.2 55.55 31.6 M8.9 34.3 Q7.55 33.75 5.95 32.65 L6.25 31.35 8.9 32.4 8.9 34.3" fill="#151b3c" fill-rule="evenodd" stroke="none"/>
    <path d="M51.75 35.4 Q44.2 38.3 34.5 38.65 18.6 39.15 8.9 34.3 L8.9 32.4 Q30.75 41.85 52.3 33.2 L51.75 35.4" fill="#21284d" fill-rule="evenodd" stroke="none"/>
    <path d="M9.15 28.65 Q30.75 37.55 52.3 28.35 52.55 30.8 52.3 33.2 30.75 41.85 8.9 32.4 8.9 30.5 9.15 28.65" fill="#2a3260" fill-rule="evenodd" stroke="none"/>
    <path d="M8.1 2.2 L9.15 2.2 Q15.65 13.8 28.3 18.9 L27.8 18.9 27.55 18.9 Q13.5 14.1 8.1 2.2 M10.0 2.2 L20.8 1.95 Q21.05 3.85 21.6 5.45 L22.65 8.4 Q23.45 10.55 24.55 12.7 L26.7 15.95 29.1 19.15 28.9 19.15 28.6 18.9 Q17.0 13.8 10.0 2.2 M39.95 1.95 L51.45 1.95 Q43.15 12.7 32.9 18.9 L32.65 18.9 32.35 19.15 32.9 18.4 34.5 15.95 36.45 12.7 38.0 8.4 Q38.6 7.35 38.85 5.45 L39.95 1.95 M52.55 1.95 L53.4 1.95 Q44.5 14.3 33.7 18.9 L33.15 18.9 Q43.9 13.25 52.55 1.95 M35.85 5.45 L35.6 8.4 25.1 8.4 Q24.55 7.0 24.55 5.45 L35.85 5.45 M27.8 15.95 Q26.95 14.3 26.45 12.7 L34.5 12.7 33.15 15.95 27.8 15.95" fill="#fffeff" fill-rule="evenodd" stroke="none"/>
    <path d="M53.4 1.95 L55.8 4.35 Q54.5 6.55 52.8 8.4 44.75 19.15 34.8 22.4 L34.8 21.35 Q35.05 20.0 34.5 19.5 L33.7 18.9 Q44.5 14.3 53.4 1.95 M26.45 22.4 Q14.55 18.1 8.4 9.8 6.5 7.0 5.15 4.35 L8.1 2.2 Q13.5 14.1 27.55 18.9 26.45 19.5 26.45 20.85 L26.45 22.4 M9.15 2.2 L10.0 2.2 Q17.0 13.8 28.6 18.9 L28.3 18.9 Q15.65 13.8 9.15 2.2 M24.05 1.95 L36.15 1.95 35.85 5.45 24.55 5.45 Q24.05 3.85 24.05 1.95 M51.45 1.95 L52.55 1.95 Q43.9 13.25 33.15 18.9 L32.9 18.9 Q43.15 12.7 51.45 1.95 M29.1 19.15 L28.6 18.4 27.8 15.95 33.15 15.95 32.35 18.9 32.35 19.15 31.85 19.15 29.1 19.15 M34.5 12.7 L26.45 12.7 Q25.6 10.55 25.1 8.4 L35.6 8.4 34.5 12.7" fill="#2a3260" fill-rule="evenodd" stroke="none"/>
    <path d="M20.8 1.95 L24.05 1.95 Q24.05 3.85 24.55 5.45 L21.6 5.45 Q21.05 3.85 20.8 1.95 M36.15 1.95 L39.95 1.95 38.85 5.45 35.85 5.45 36.15 1.95 M35.6 8.4 L38.0 8.4 36.45 12.7 34.5 12.7 35.6 8.4 M22.65 8.4 L25.1 8.4 Q25.6 10.55 26.45 12.7 L24.55 12.7 Q23.45 10.55 22.65 8.4 M26.7 15.95 L27.8 15.95 28.6 18.4 29.1 19.15 26.7 15.95 M33.15 15.95 L34.5 15.95 32.9 18.4 32.35 19.15 32.35 18.9 33.15 15.95" fill="#151d4a" fill-rule="evenodd" stroke="none"/>
    <path d="M35.85 5.45 L38.85 5.45 Q38.6 7.35 38.0 8.4 L35.6 8.4 35.85 5.45 M21.6 5.45 L24.55 5.45 Q24.55 7.0 25.1 8.4 L22.65 8.4 21.6 5.45 M27.8 15.95 L26.7 15.95 24.55 12.7 26.45 12.7 Q26.95 14.3 27.8 15.95 M33.15 15.95 L34.5 12.7 36.45 12.7 34.5 15.95 33.15 15.95" fill="#c7c6ce" fill-rule="evenodd" stroke="none"/>
    <path d="M34.8 22.4 L34.5 23.0 34.0 23.5 33.15 24.1 29.95 24.35 27.2 23.75 26.95 23.25 26.45 22.4 26.45 20.85 Q26.45 19.5 27.55 18.9 L27.8 18.9 28.3 18.9 28.6 18.9 28.9 19.15 29.1 19.15 31.85 19.15 32.35 19.15 32.65 18.9 32.9 18.9 33.15 18.9 33.7 18.9 34.5 19.5 Q35.05 20.0 34.8 21.35 L34.8 22.4" fill="#232a54" fill-rule="evenodd" stroke="none"/>
    <path d="M34.5 23.0 Q34.5 23.75 34.0 24.35 L27.55 24.35 26.7 23.25 26.45 21.9 Q28.3 21.1 31.0 21.1 L34.8 21.6 34.5 23.0 M25.85 23.25 L26.45 23.5 26.7 24.1 26.95 24.6 26.45 27.3 Q25.6 30.0 25.6 31.05 L25.6 31.35 Q25.85 30.0 26.7 28.35 27.55 26.2 28.3 26.2 L29.1 26.2 30.2 26.5 30.45 26.3 30.45 27.0 30.45 27.3 29.65 30.8 Q28.6 32.95 25.6 35.9 L23.7 38.3 Q23.7 37.55 24.05 36.45 24.55 34.55 23.7 33.2 22.95 31.6 22.95 30.0 22.95 28.35 23.7 26.2 24.8 23.75 25.85 23.25 M30.75 28.65 L31.0 28.1 Q31.55 27.55 31.85 27.55 L32.9 30.8 Q33.7 32.4 34.8 33.75 L33.7 30.8 Q33.4 29.7 33.4 28.35 L33.4 27.3 Q34.0 27.0 34.25 27.0 34.25 26.75 34.5 26.75 L35.35 27.3 36.15 28.35 Q36.65 28.9 37.2 32.95 L36.65 34.3 36.65 35.9 36.9 38.05 Q36.15 36.7 35.05 35.65 32.1 32.65 31.0 30.5 L30.75 28.65" fill="#e5e5e7" fill-rule="evenodd" stroke="none"/>
    <path d="M26.7 23.25 L27.55 24.35 34.0 24.35 Q34.5 23.75 34.5 23.0 36.15 23.5 37.2 25.65 38.0 27.55 37.2 31.9 L37.2 32.95 Q36.65 28.9 36.15 28.35 L35.35 27.3 34.5 26.75 Q34.25 26.75 34.25 27.0 34.0 27.0 33.4 27.3 L33.4 28.35 Q33.4 29.7 33.7 30.8 L34.8 33.75 Q33.7 32.4 32.9 30.8 L31.85 27.55 Q31.55 27.55 31.0 28.1 L30.75 28.65 Q30.45 28.1 30.45 27.3 L30.45 27.0 30.45 26.3 30.2 26.5 29.1 26.2 28.3 26.2 Q27.55 26.2 26.7 28.35 25.85 30.0 25.6 31.35 L25.6 31.05 Q25.6 30.0 26.45 27.3 L26.95 24.6 26.7 24.1 26.45 23.5 25.85 23.25 26.7 23.25 M34.8 21.6 L31.0 21.1 Q28.3 21.1 26.45 21.9 26.45 20.6 27.55 18.9 L34.0 18.9 Q34.8 20.25 34.8 21.6" fill="#c8c8c8" fill-rule="evenodd" stroke="none"/>
    <path d="M51.75 35.4 L55.55 33.75 56.9 48.85 53.4 50.2 Q53.9 43.95 51.75 35.4 M56.9 50.8 L56.9 52.6 53.15 54.3 53.65 51.8 56.9 50.8 M32.65 54.55 L32.65 52.35 34.8 52.9 34.5 55.05 Q33.7 54.75 32.65 54.55 M32.65 50.5 Q31.0 51.55 29.35 50.5 L26.95 51.05 25.85 47.5 Q30.75 49.7 36.45 47.5 35.6 49.7 35.35 51.25 L32.65 50.5 M29.35 52.6 L29.35 54.3 Q28.3 54.55 27.2 55.05 L27.2 53.2 29.35 52.6 M4.3 51.8 L4.6 49.95 Q6.5 51.25 8.4 51.8 L8.4 54.3 4.3 51.8 M4.6 48.3 L5.95 32.65 Q7.55 33.75 8.9 34.3 8.1 42.4 8.4 49.7 L4.6 48.3" fill="#d3d1d4" fill-rule="evenodd" stroke="none"/>
    <path d="M8.9 34.3 Q18.6 39.15 34.5 38.65 44.2 38.3 51.75 35.4 53.9 43.95 53.4 50.2 44.75 53.2 35.35 51.25 35.6 49.7 36.45 47.5 30.75 49.7 25.85 47.5 L26.95 51.05 Q17.3 53.2 8.4 49.7 8.1 42.4 8.9 34.3 M34.5 55.05 L34.8 52.9 Q42.6 54.55 49.65 52.9 L53.65 51.8 53.15 54.3 Q44.2 57.8 34.5 55.05 M27.2 53.2 L27.2 55.05 Q17.55 58.05 8.4 54.3 L8.4 51.8 Q16.75 55.35 27.2 53.2" fill="#fffeff" fill-rule="evenodd" stroke="none"/>
    <path d="M56.9 48.85 L56.9 50.8 53.65 51.8 53.4 50.2 56.9 48.85 M56.9 52.6 L57.15 54.75 53.15 56.45 53.15 54.3 56.9 52.6 M34.5 56.7 L32.65 56.45 32.65 54.55 Q33.7 54.75 34.5 55.05 L34.5 56.7 M32.65 52.35 L32.65 50.5 35.35 51.25 34.8 52.9 32.65 52.35 M29.35 50.5 L29.35 52.6 27.2 53.2 26.95 51.05 29.35 50.5 M29.35 54.3 L29.35 56.1 27.2 56.7 27.2 55.05 Q28.3 54.55 29.35 54.3 M8.65 56.1 Q6.25 55.35 4.05 54.0 L4.3 51.8 8.4 54.3 8.65 56.1 M4.6 49.95 L4.6 48.3 8.4 49.7 8.4 51.8 Q6.5 51.25 4.6 49.95" fill="#1e254d" fill-rule="evenodd" stroke="none"/>
    <path d="M53.15 56.45 Q45.0 58.85 34.5 56.7 L34.5 55.05 Q44.2 57.8 53.15 54.3 L53.15 56.45 M27.2 56.7 Q17.55 59.6 8.65 56.1 L8.4 54.3 Q17.55 58.05 27.2 55.05 L27.2 56.7 M34.8 52.9 L35.35 51.25 Q44.75 53.2 53.4 50.2 L53.65 51.8 49.65 52.9 Q42.6 54.55 34.8 52.9 M26.95 51.05 L27.2 53.2 Q16.75 55.35 8.4 51.8 L8.4 49.7 Q17.3 53.2 26.95 51.05" fill="#2a3260" fill-rule="evenodd" stroke="none"/>
  </g>
</svg>
