<?xml version="1.0" encoding="UTF-8" standalone="no"?>
<svg xmlns:xlink="http://www.w3.org/1999/xlink" height="69.55px" width="69.05px" xmlns="http://www.w3.org/2000/svg">
  <g transform="matrix(1.0, 0.0, 0.0, 1.0, 11.35, 10.1)">
    <path d="M43.35 -10.1 Q57.7 -10.1 57.7 4.25 L57.7 45.1 Q57.7 59.45 43.35 59.45 L3.0 59.45 Q-11.35 59.45 -11.35 45.1 L-11.35 4.25 Q-11.35 -10.1 3.0 -10.1 L43.35 -10.1" fill="#cff3e8" fill-rule="evenodd" stroke="none"/>
    <path d="M41.85 12.2 Q41.85 9.7 40.1 7.95 38.35 6.2 36.0 6.2 L35.9 6.2 35.8 6.2 35.25 6.25 33.3 6.75 Q32.4 7.15 31.65 7.9 L25.1 14.5 Q24.9 14.65 24.75 14.75 L24.0 15.55 16.4 7.95 Q14.6 6.15 12.15 6.15 L9.9 6.6 Q8.85 7.05 8.0 7.95 L7.95 8.0 Q7.05 8.85 6.6 9.9 L6.15 12.2 Q6.15 14.6 7.95 16.4 L15.55 24.0 7.9 31.6 7.95 31.6 Q7.05 32.5 6.6 33.6 L6.15 35.85 Q6.15 38.3 7.95 40.1 9.7 41.85 12.15 41.85 L13.15 41.8 14.85 41.25 16.4 40.15 16.4 40.1 24.0 32.45 31.65 40.1 Q33.4 41.85 35.8 41.9 L35.9 41.9 35.95 41.9 37.1 41.8 Q38.8 41.4 40.1 40.15 L40.15 40.1 41.25 38.6 41.8 36.9 41.85 35.85 Q41.85 33.4 40.05 31.6 L32.5 24.05 39.85 16.7 Q40.0 16.3 40.4 16.15 L41.1 15.2 41.55 14.2 41.85 12.2 M42.35 18.5 L42.15 18.65 36.75 24.1 42.15 29.5 Q44.85 32.2 44.85 35.85 44.85 39.5 42.35 42.2 L42.3 42.2 42.2 42.3 42.2 42.35 Q39.55 44.85 36.0 44.9 L35.9 44.9 35.8 44.9 Q32.05 44.85 29.5 42.15 L24.0 36.65 18.95 41.75 18.5 42.3 18.5 42.35 Q15.8 44.85 12.15 44.85 8.5 44.85 5.85 42.2 3.15 39.5 3.15 35.85 3.15 32.2 5.8 29.5 L11.35 24.0 5.85 18.5 Q3.15 15.8 3.15 12.2 3.15 8.5 5.85 5.85 8.5 3.15 12.15 3.15 15.8 3.15 18.5 5.85 L24.0 11.35 29.5 5.8 Q32.2 3.15 35.8 3.2 L35.9 3.2 Q39.5 3.15 42.2 5.85 44.85 8.5 44.85 12.2 44.85 15.8 42.35 18.5" fill="#000000" fill-opacity="0.49803922" fill-rule="evenodd" stroke="none"/>
    <path d="M35.85 7.7 Q37.7 7.65 39.05 9.0 40.35 10.3 40.35 12.2 40.35 14.0 39.05 15.35 L30.35 24.0 39.0 32.65 Q40.35 34.0 40.35 35.85 40.35 37.7 39.05 39.05 37.7 40.35 35.85 40.4 34.0 40.35 32.65 39.0 L24.0 30.35 15.35 39.05 Q14.0 40.35 12.15 40.35 10.3 40.35 9.0 39.05 7.65 37.7 7.65 35.85 7.65 34.0 8.95 32.65 L17.65 24.0 9.0 15.35 Q7.65 14.0 7.65 12.2 7.65 10.3 9.0 9.0 10.3 7.65 12.15 7.65 14.0 7.65 15.35 9.0 L24.0 17.65 32.65 8.95 Q34.0 7.65 35.85 7.7" fill="#ff0000" fill-rule="evenodd" stroke="none"/>
  </g>
</svg>
