<?xml version="1.0" encoding="UTF-8" standalone="no"?>
<svg xmlns:xlink="http://www.w3.org/1999/xlink" height="44.65px" width="44.6px" xmlns="http://www.w3.org/2000/svg">
  <g transform="matrix(1.0, 0.0, 0.0, 1.0, -5.7, -0.7)">
    <path d="M40.85 3.95 L40.7 3.95 40.6 3.95 40.0 4.0 37.95 4.55 Q37.0 5.0 36.15 5.8 L29.15 12.85 28.8 13.1 28.0 13.95 19.85 5.85 Q17.95 3.9 15.3 3.9 L12.9 4.4 Q11.8 4.85 10.9 5.85 L10.85 5.9 Q9.85 6.8 9.4 7.9 L8.9 10.4 Q8.9 12.95 10.85 14.85 L18.95 23.0 10.8 31.1 10.85 31.1 Q9.85 32.1 9.4 33.25 L8.9 35.65 Q8.9 38.3 10.85 40.2 12.7 42.1 15.3 42.1 L16.4 42.05 18.2 41.45 19.85 40.25 19.85 40.2 28.0 32.05 36.15 40.2 Q38.05 42.1 40.6 42.15 L40.7 42.15 42.0 42.05 Q43.8 41.6 45.2 40.25 L45.25 40.2 46.45 38.6 47.05 36.8 47.1 35.65 Q47.1 33.05 45.15 31.1 L37.1 23.05 44.95 15.2 Q45.1 14.75 45.55 14.6 L46.3 13.6 46.75 12.5 47.1 10.4 Q47.1 7.7 45.2 5.85 43.35 3.95 40.85 3.95 M40.6 0.75 L40.7 0.75 Q44.55 0.7 47.45 3.6 50.3 6.4 50.3 10.4 50.3 14.25 47.6 17.1 L47.4 17.25 41.65 23.1 47.4 28.9 Q50.3 31.75 50.3 35.65 50.3 39.55 47.6 42.45 L47.55 42.45 47.45 42.55 47.45 42.6 Q44.6 45.3 40.85 45.35 L40.7 45.35 40.6 45.35 Q36.6 45.3 33.85 42.4 L28.0 36.5 22.6 42.0 22.1 42.55 22.1 42.6 Q19.2 45.3 15.3 45.3 11.4 45.3 8.6 42.45 5.7 39.55 5.7 35.65 5.7 31.75 8.55 28.9 L14.45 23.0 8.6 17.1 Q5.7 14.25 5.7 10.4 5.7 6.4 8.6 3.6 11.4 0.7 15.3 0.7 19.2 0.7 22.1 3.6 L28.0 9.45 33.85 3.55 Q36.75 0.7 40.6 0.75" fill="#000000" fill-opacity="0.49803922" fill-rule="evenodd" stroke="none"/>
    <path d="M44.1 6.95 Q45.5 8.35 45.5 10.4 45.5 12.3 44.1 13.75 L34.8 23.0 44.05 32.25 Q45.5 33.7 45.5 35.65 45.5 37.65 44.1 39.1 42.65 40.5 40.65 40.55 38.7 40.5 37.25 39.05 L28.0 29.8 18.75 39.1 Q17.3 40.5 15.3 40.5 13.35 40.5 11.95 39.1 10.5 37.65 10.5 35.65 10.5 33.7 11.9 32.25 L21.2 23.0 11.95 13.75 Q10.5 12.3 10.5 10.4 10.5 8.35 11.95 6.95 13.35 5.5 15.3 5.5 17.3 5.5 18.75 6.95 L28.0 16.2 37.25 6.9 Q38.7 5.5 40.65 5.55 42.65 5.5 44.1 6.95" fill="#ff0000" fill-rule="evenodd" stroke="none"/>
  </g>
</svg>
