<?xml version="1.0" encoding="UTF-8" standalone="no"?>
<svg xmlns:xlink="http://www.w3.org/1999/xlink" height="60.5px" width="55.25px" xmlns="http://www.w3.org/2000/svg">
  <g transform="matrix(1.0, 0.0, 0.0, 1.0, -3.95, -6.25)">
    <path d="M55.7 9.5 L57.25 40.75 57.25 44.05 57.0 44.05 57.5 54.45 57.8 56.25 Q58.8 56.55 58.8 56.25 L58.8 58.55 58.8 63.0 58.8 63.75 54.7 64.75 52.85 65.05 49.5 65.85 Q44.3 66.3 38.6 65.85 L38.1 65.85 33.65 65.05 33.15 63.0 32.6 59.9 32.35 58.0 32.1 60.4 31.65 63.0 31.35 65.3 Q30.3 66.05 27.2 66.3 L26.65 66.3 Q19.65 66.6 10.1 65.05 L8.0 64.5 Q5.7 64.25 4.35 63.2 L4.35 63.0 4.9 58.3 5.15 56.25 6.2 56.25 Q6.2 55.2 6.45 54.45 6.65 51.05 6.95 49.5 L7.45 44.05 7.45 43.05 7.75 42.3 8.0 40.95 10.3 8.4 Q10.3 7.9 11.1 7.65 L10.85 7.65 11.4 7.4 14.75 6.65 16.3 6.65 Q20.75 9.2 29.75 10.0 38.85 11.0 49.7 7.65 L50.0 7.65 50.25 7.2 52.35 7.65 54.4 8.15 54.7 8.4 Q55.45 8.95 55.7 9.5" fill="#30949c" fill-rule="evenodd" stroke="none"/>
    <path d="M55.7 9.5 L57.25 40.75 57.25 44.05 57.0 44.05 57.5 54.45 57.8 56.25 Q58.8 56.55 58.8 56.25 L58.8 58.55 58.8 63.0 58.8 63.75 54.7 64.75 52.85 65.05 49.5 65.85 Q44.3 66.3 38.6 65.85 L38.1 65.85 33.65 65.05 33.15 63.0 32.6 59.9 32.35 58.0 32.1 60.4 31.65 63.0 31.35 65.3 Q30.3 66.05 27.2 66.3 L26.65 66.3 Q19.65 66.6 10.1 65.05 L8.0 64.5 Q5.7 64.25 4.35 63.2 L4.35 63.0 4.9 58.3 5.15 56.25 6.2 56.25 Q6.2 55.2 6.45 54.45 6.65 51.05 6.95 49.5 L7.45 44.05 7.45 43.05 7.75 42.3 8.0 40.95 10.3 8.4 Q10.3 7.9 11.1 7.65 L10.85 7.65 11.4 7.4 14.75 6.65 16.3 6.65 Q20.75 9.2 29.75 10.0 38.85 11.0 49.7 7.65 L50.0 7.65 50.25 7.2 52.35 7.65 54.4 8.15 54.7 8.4 Q55.45 8.95 55.7 9.5 Z" fill="none" stroke="#022356" stroke-linecap="round" stroke-linejoin="round" stroke-width="0.8"/>
    <path d="M53.0 41.35 L56.65 40.35 57.45 54.55 57.7 56.35 52.8 57.6 52.55 57.6 Q53.3 56.6 53.55 54.55 54.35 50.1 53.0 41.35 M58.75 58.65 L58.75 63.3 58.75 63.8 54.6 64.85 52.8 65.4 53.0 63.3 Q53.3 61.5 53.0 60.0 L58.75 58.65 M38.0 65.9 Q33.35 65.65 33.6 65.15 L33.1 63.3 32.55 60.2 35.9 60.2 36.45 63.8 Q37.0 64.85 38.0 65.9 M32.0 60.7 L31.55 63.3 31.3 65.4 Q30.25 66.15 27.15 66.4 L28.15 63.8 28.65 60.95 32.0 60.7 M10.0 65.15 L7.95 64.85 Q5.6 64.35 4.3 63.3 L4.85 58.4 10.0 59.75 Q9.25 61.5 9.5 63.3 9.5 64.05 10.0 65.15 M6.15 56.6 L6.35 54.55 Q6.6 51.2 6.9 49.85 L7.95 41.1 11.3 41.9 Q10.0 50.65 10.5 54.55 10.8 57.3 12.3 57.85 L10.8 57.6 6.15 56.6 M35.65 58.4 L32.3 58.15 28.65 58.4 27.9 55.05 32.3 55.55 36.45 55.3 Q35.9 56.85 35.65 58.4" fill="#126bb2" fill-rule="evenodd" stroke="none"/>
    <path d="M52.55 57.6 L52.8 57.6 53.0 60.0 Q44.5 61.25 35.9 60.2 35.65 59.45 35.65 58.4 L44.25 58.65 51.2 57.85 52.3 57.6 52.55 57.6 M28.65 43.9 L31.55 43.9 32.3 43.9 32.3 54.55 32.3 54.75 30.8 54.55 Q30.0 54.3 29.45 53.75 28.65 53.0 28.65 50.65 L28.65 43.9 M28.65 58.4 L28.65 60.95 Q19.1 61.5 10.0 59.75 10.25 58.65 10.8 57.6 L12.3 57.85 12.35 57.85 12.85 57.85 28.65 58.4" fill="#59b9ff" fill-rule="evenodd" stroke="none"/>
    <path d="M53.0 41.35 Q54.35 50.1 53.55 54.55 53.3 56.6 52.55 57.6 L52.3 57.6 51.2 57.85 44.25 58.65 35.65 58.4 Q35.9 56.85 36.45 55.3 L32.3 55.55 27.9 55.05 28.65 58.4 12.85 57.85 12.35 57.85 12.3 57.85 Q10.8 57.3 10.5 54.55 10.0 50.65 11.3 41.9 20.15 43.9 28.65 43.9 L28.65 50.65 Q28.65 53.0 29.45 53.75 30.0 54.3 30.8 54.55 L32.3 54.75 32.3 54.55 32.3 43.9 Q44.0 44.45 53.0 41.35 M52.8 65.4 L49.4 65.9 Q44.25 66.4 38.55 65.9 L38.0 65.9 Q37.0 64.85 36.45 63.8 L35.9 60.2 Q44.5 61.25 53.0 60.0 53.3 61.5 53.0 63.3 L52.8 65.4 M27.15 66.4 L26.6 66.4 Q19.6 66.7 10.0 65.15 9.5 64.05 9.5 63.3 9.25 61.5 10.0 59.75 19.1 61.5 28.65 60.95 L28.15 63.8 27.15 66.4" fill="#39a0f1" fill-rule="evenodd" stroke="none"/>
    <path d="M52.8 57.6 L57.7 56.35 58.75 56.4 58.75 58.65 53.0 60.0 52.8 57.6 M32.55 60.2 L32.3 58.15 32.0 60.7 28.65 60.95 28.65 58.4 32.3 58.15 35.65 58.4 Q35.65 59.45 35.9 60.2 L32.55 60.2 M4.85 58.4 L5.1 56.6 6.15 56.6 10.8 57.6 Q10.25 58.65 10.0 59.75 L4.85 58.4" fill="#2c90dd" fill-rule="evenodd" stroke="none"/>
    <path d="M52.8 42.4 Q53.55 39.8 53.85 34.95 L54.1 27.4 53.85 17.8 Q53.3 10.8 52.55 7.7 55.1 8.5 55.65 9.6 L57.2 40.8 Q54.85 41.9 52.8 42.4 M33.9 33.85 L33.9 35.4 33.9 42.9 33.6 44.2 Q31.9 44.2 31.25 43.65 31.8 43.05 31.8 42.15 L31.8 33.6 33.9 33.85 M14.4 43.15 L7.95 41.6 10.25 8.5 Q10.25 7.7 12.85 7.25 10.5 26.1 11.3 32.6 L12.05 40.05 Q12.35 41.35 14.4 43.15" fill="#8bd3fa" fill-rule="evenodd" stroke="none"/>
    <path d="M52.55 7.7 Q53.3 10.8 53.85 17.8 L54.1 27.4 53.85 34.95 Q53.55 39.8 52.8 42.4 43.35 45.2 33.95 44.25 L33.6 44.2 33.9 42.9 33.9 35.4 33.9 33.85 33.9 31.75 Q41.65 26.65 47.1 17.6 L52.3 7.7 52.55 7.7 M14.4 43.15 Q12.35 41.35 12.05 40.05 L11.3 32.6 Q10.5 26.1 12.85 7.25 L14.7 6.75 Q19.35 18.6 26.35 25.3 L30.8 29.75 Q32.0 31.3 31.8 33.6 L31.8 42.15 Q31.8 43.05 31.25 43.65 29.85 45.1 25.05 44.7 L14.4 43.15" fill="#a5e7ff" fill-rule="evenodd" stroke="none"/>
    <path d="M50.15 7.3 Q52.05 7.3 54.4 8.4 50.8 15.95 45.6 23.15 39.85 31.2 36.5 34.0 L32.35 37.4 Q22.75 29.9 16.85 20.35 13.2 14.15 10.55 7.7 13.95 6.5 15.75 6.65 17.35 11.25 20.45 16.95 23.85 22.9 27.2 27.35 30.85 32.0 32.85 31.2 35.2 30.65 39.85 23.7 45.05 16.7 50.15 7.3" fill="#126bb2" fill-rule="evenodd" stroke="none"/>
    <path d="M50.15 7.3 Q45.05 16.7 39.85 23.7 35.2 30.65 32.85 31.2 30.85 32.0 27.2 27.35 23.85 22.9 20.45 16.95 17.35 11.25 15.75 6.65 19.95 9.0 30.0 10.05 40.0 11.15 50.15 7.3" fill="#4eb0e5" fill-rule="evenodd" stroke="none"/>
    <path d="M52.0 44.45 L53.55 43.9 57.2 42.9 57.2 44.2 Q56.2 45.0 49.4 46.55 40.6 47.8 32.55 46.25 L23.5 47.0 Q16.5 47.0 7.4 44.7 L7.4 43.45 11.6 44.2 14.15 44.7 19.1 45.8 28.45 46.25 31.3 46.0 32.0 45.8 32.3 45.8 Q37.25 46.25 42.1 46.0 47.35 45.8 52.0 44.45" fill="#126bb2" fill-rule="evenodd" stroke="none"/>
    <path d="M31.45 15.85 L33.0 15.85 35.65 15.95 37.05 17.25 Q38.05 18.5 38.05 19.6 38.05 20.65 36.9 21.4 L36.6 21.6 32.95 21.7 32.55 21.7 Q31.1 21.3 30.55 20.8 29.95 20.25 29.95 19.25 29.95 16.4 31.45 15.85 M37.25 24.6 Q38.2 26.6 39.0 33.15 39.15 34.55 38.6 36.45 35.7 42.1 33.25 42.8 31.7 42.95 30.9 41.7 L30.65 41.35 29.05 38.25 Q27.7 35.55 27.75 33.3 27.8 31.0 28.5 27.15 29.25 23.2 30.55 23.0 31.75 22.8 32.15 24.35 L32.55 27.0 Q33.35 25.3 33.9 24.45 L34.45 23.45 Q34.9 22.95 35.45 22.95 36.15 22.9 36.45 23.2 L37.25 24.6 M35.85 29.7 L35.85 29.95 35.95 30.8 Q35.95 31.4 36.3 31.4 L36.9 30.85 37.1 30.2 Q37.1 29.0 36.3 29.0 35.95 29.0 35.85 29.7 M37.0 34.5 Q36.75 32.85 36.2 32.75 35.55 32.6 34.65 35.45 33.7 38.3 32.95 39.15 32.15 39.9 32.3 40.5 32.5 41.15 33.35 41.25 34.2 41.3 35.7 38.75 37.2 36.2 37.0 34.5" fill="#eceae7" fill-rule="evenodd" stroke="none"/>
    <path d="M28.45 21.4 Q27.2 21.15 26.65 20.55 26.15 20.05 26.8 18.65 27.45 17.2 28.15 16.55 28.7 15.95 31.45 15.85 29.95 16.4 29.95 19.25 29.95 20.25 30.55 20.8 31.1 21.3 32.55 21.7 L28.6 21.45 28.45 21.4" fill="#d4cdc3" fill-rule="evenodd" stroke="none"/>
    <path d="M37.65 21.5 L39.0 27.65 39.15 28.85 Q39.4 30.65 39.25 29.25 40.2 34.5 39.95 35.15 L38.2 38.25 36.15 41.25 Q34.25 43.3 32.7 43.25 L31.55 42.85 Q30.6 42.35 29.65 41.05 L27.65 38.6 Q25.65 35.85 25.55 34.25 25.45 32.65 26.9 26.9 L28.45 21.4 28.6 21.45 32.55 21.7 32.95 21.7 36.6 21.6 37.55 21.5 37.65 21.5 M37.25 24.6 L36.45 23.2 Q36.15 22.9 35.45 22.95 34.9 22.95 34.45 23.45 L33.9 24.45 Q33.35 25.3 32.55 27.0 L32.15 24.35 Q31.75 22.8 30.55 23.0 29.25 23.2 28.5 27.15 27.8 31.0 27.75 33.3 27.7 35.55 29.05 38.25 L30.65 41.35 30.9 41.7 Q31.7 42.95 33.25 42.8 35.7 42.1 38.6 36.45 39.15 34.55 39.0 33.15 38.2 26.6 37.25 24.6" fill="#c9c0b3" fill-rule="evenodd" stroke="none"/>
    <path d="M35.85 29.7 Q35.95 29.0 36.3 29.0 37.1 29.0 37.1 30.2 L36.9 30.85 36.3 31.4 Q35.95 31.4 35.95 30.8 L35.85 29.95 35.85 29.7 M37.0 34.5 Q37.2 36.2 35.7 38.75 34.2 41.3 33.35 41.25 32.5 41.15 32.3 40.5 32.15 39.9 32.95 39.15 33.7 38.3 34.65 35.45 35.55 32.6 36.2 32.75 36.75 32.85 37.0 34.5" fill="#fffcf7" fill-rule="evenodd" stroke="none"/>
    <path d="M35.65 15.95 L37.9 16.4 Q38.6 16.85 39.2 18.5 39.75 20.05 39.3 20.65 38.85 21.4 37.65 21.5 L37.55 21.5 36.6 21.6 36.9 21.4 Q38.05 20.65 38.05 19.6 38.05 18.5 37.05 17.25 L35.65 15.95" fill="#f7f7f5" fill-rule="evenodd" stroke="none"/>
    <path d="M52.65 35.25 L43.05 37.3" fill="none" stroke="#4eb0e5" stroke-linecap="butt" stroke-linejoin="miter" stroke-miterlimit="3.0" stroke-width="1.0"/>
    <path d="M13.0 35.25 L22.6 37.55" fill="none" stroke="#4eb0e5" stroke-linecap="butt" stroke-linejoin="round" stroke-width="1.0"/>
  </g>
</svg>
