<?xml version="1.0" encoding="UTF-8" standalone="no"?>
<svg xmlns:xlink="http://www.w3.org/1999/xlink" height="69.55px" width="69.05px" xmlns="http://www.w3.org/2000/svg">
  <g transform="matrix(1.0, 0.0, 0.0, 1.0, 7.35, 12.1)">
    <path d="M47.35 -12.1 Q61.7 -12.1 61.7 2.25 L61.7 43.1 Q61.7 57.45 47.35 57.45 L7.0 57.45 Q-7.35 57.45 -7.35 43.1 L-7.35 2.25 Q-7.35 -12.1 7.0 -12.1 L47.35 -12.1" fill="#cff3e8" fill-rule="evenodd" stroke="none"/>
    <path d="M44.1 7.95 Q42.35 6.2 40.0 6.2 L39.9 6.2 39.8 6.2 39.25 6.25 37.3 6.75 Q36.4 7.15 35.65 7.9 L29.1 14.5 28.75 14.75 28.0 15.55 20.4 7.95 Q18.6 6.15 16.15 6.15 L13.9 6.6 Q12.85 7.05 12.0 7.95 L11.95 8.0 Q11.05 8.85 10.6 9.9 L10.15 12.2 Q10.15 14.6 11.95 16.4 L19.55 24.0 11.9 31.6 11.95 31.6 Q11.05 32.5 10.6 33.6 L10.15 35.85 Q10.15 38.3 11.95 40.1 13.7 41.85 16.15 41.85 L17.15 41.8 18.85 41.25 20.4 40.15 20.4 40.1 28.0 32.45 35.65 40.1 Q37.4 41.85 39.8 41.9 L39.9 41.9 39.95 41.9 41.1 41.8 Q42.8 41.4 44.1 40.15 L44.15 40.1 45.25 38.6 45.8 36.9 45.85 35.85 Q45.85 33.4 44.05 31.6 L36.5 24.05 43.85 16.7 Q44.0 16.3 44.4 16.15 L45.1 15.2 45.55 14.2 45.85 12.2 Q45.85 9.7 44.1 7.95 M46.2 5.85 Q48.85 8.5 48.85 12.2 48.85 15.8 46.35 18.5 L46.15 18.65 40.75 24.1 46.15 29.5 Q48.85 32.2 48.85 35.85 48.85 39.5 46.35 42.2 L46.3 42.2 46.2 42.3 46.2 42.35 Q43.55 44.85 40.0 44.9 L39.9 44.9 39.8 44.9 Q36.05 44.85 33.5 42.15 L28.0 36.65 22.95 41.75 22.5 42.3 22.5 42.35 Q19.8 44.85 16.15 44.85 12.5 44.85 9.85 42.2 7.15 39.5 7.15 35.85 7.15 32.2 9.8 29.5 L15.35 24.0 9.85 18.5 Q7.15 15.8 7.15 12.2 7.15 8.5 9.85 5.85 12.5 3.15 16.15 3.15 19.8 3.15 22.5 5.85 L28.0 11.35 33.5 5.8 Q36.2 3.15 39.8 3.2 L39.9 3.2 Q43.5 3.15 46.2 5.85" fill="#000000" fill-opacity="0.49803922" fill-rule="evenodd" stroke="none"/>
    <path d="M43.05 9.0 Q44.35 10.3 44.35 12.2 44.35 14.0 43.05 15.35 L34.35 24.0 43.0 32.65 Q44.35 34.0 44.35 35.85 44.35 37.7 43.05 39.05 41.7 40.35 39.85 40.4 38.0 40.35 36.65 39.0 L28.0 30.35 19.35 39.05 Q18.0 40.35 16.15 40.35 14.3 40.35 13.0 39.05 11.65 37.7 11.65 35.85 11.65 34.0 12.95 32.65 L21.65 24.0 13.0 15.35 Q11.65 14.0 11.65 12.2 11.65 10.3 13.0 9.0 14.3 7.65 16.15 7.65 18.0 7.65 19.35 9.0 L28.0 17.65 36.65 8.95 Q38.0 7.65 39.85 7.7 41.7 7.65 43.05 9.0" fill="#ff0000" fill-rule="evenodd" stroke="none"/>
  </g>
</svg>
