<?xml version="1.0" encoding="UTF-8" standalone="no"?>
<svg xmlns:xlink="http://www.w3.org/1999/xlink" height="54.05px" width="60.55px" xmlns="http://www.w3.org/2000/svg">
  <g transform="matrix(1.0, 0.0, 0.0, 1.0, -9.6, -8.6)">
    <path d="M57.4 9.7 L59.9 10.85 62.8 13.1 69.75 20.05 60.1 28.35 61.45 59.05 61.2 59.3 56.95 60.85 56.75 61.05 55.8 61.3 50.65 61.75 45.95 61.5 42.8 60.85 42.55 60.85 40.8 60.2 40.8 55.25 37.85 55.25 37.85 60.4 36.5 60.85 35.6 61.05 33.1 61.95 28.4 62.2 Q25.5 62.2 22.35 60.85 L22.15 60.85 19.45 59.5 16.95 57.75 19.9 28.1 10.0 19.8 13.35 16.25 15.6 14.0 16.75 12.65 Q19.45 10.4 21.65 9.7 L24.35 9.5 Q29.55 8.85 34.25 10.4 L45.95 10.4 Q50.2 8.15 55.35 9.5 L57.4 9.7" fill="#082b5f" fill-rule="evenodd" stroke="none"/>
    <path d="M57.4 9.7 L55.35 9.5 Q50.2 8.15 45.95 10.4 L34.25 10.4 Q29.55 8.85 24.35 9.5 L21.65 9.7 Q19.45 10.4 16.75 12.65 L15.6 14.0 13.35 16.25 10.0 19.8 19.9 28.1 16.95 57.75 19.45 59.5 22.15 60.85 22.35 60.85 Q25.5 62.2 28.4 62.2 L33.1 61.95 35.6 61.05 36.5 60.85 37.85 60.4 37.85 55.25 40.8 55.25 40.8 60.2 42.55 60.85 42.8 60.85 45.95 61.5 50.65 61.75 55.8 61.3 56.75 61.05 56.95 60.85 61.2 59.3 61.45 59.05 60.1 28.35 69.75 20.05 62.8 13.1 59.9 10.85 57.4 9.7 Z" fill="none" stroke="#202235" stroke-linecap="round" stroke-linejoin="round" stroke-width="0.8"/>
    <path d="M58.3 26.1 L55.85 21.85 Q52.95 17.15 51.4 15.55 49.8 12.4 53.4 10.4 55.15 9.25 57.45 9.95 59.7 10.65 62.85 13.3 L69.8 20.3 62.85 26.35 Q61.45 24.5 60.15 23.65 58.55 22.5 58.55 23.65 58.3 24.75 58.55 24.95 L58.3 26.1 M15.65 24.95 L10.05 20.05 16.75 12.85 Q19.45 10.4 21.7 9.95 L26.0 10.15 Q28.2 11.95 28.45 14.45 L28.2 14.45 26.2 17.15 Q24.4 19.8 23.5 21.6 L22.4 23.65 22.15 22.5 Q21.7 21.85 20.35 22.3 19.0 22.75 17.85 23.4 L15.65 24.95" fill="#062e6d" fill-rule="evenodd" stroke="none"/>
    <path d="M58.3 26.1 L58.55 24.95 Q58.3 24.75 58.55 23.65 58.55 22.5 60.15 23.65 61.45 24.5 62.85 26.35 L59.7 29.0 58.3 26.1 M15.65 24.95 L17.85 23.4 Q19.0 22.75 20.35 22.3 21.7 21.85 22.15 22.5 L22.4 23.65 21.25 26.35 Q20.55 27.45 20.15 28.55 L15.65 24.95" fill="#022356" fill-rule="evenodd" stroke="none"/>
    <path d="M57.2 10.4 Q54.55 14.9 51.55 17.6 L50.7 16.45 48.9 14.2 Q51.4 12.65 53.4 9.25 55.15 9.5 57.2 10.4 M22.15 10.65 L22.15 10.4 26.2 9.5 Q27.55 11.75 30.9 14.45 L30.45 14.9 Q29.6 15.55 28.0 17.6 24.15 14.2 22.15 10.65" fill="#094e23" fill-rule="evenodd" stroke="none"/>
    <path d="M57.2 10.4 L59.0 11.1 60.15 23.4 Q57.85 23.85 57.85 25.85 L57.85 26.1 54.7 21.6 51.55 17.6 Q54.55 14.9 57.2 10.4 M20.8 22.05 L22.15 10.65 Q24.15 14.2 28.0 17.6 L25.3 21.15 22.6 24.95 Q22.15 23.65 20.8 22.05" fill="#062e6d" fill-rule="evenodd" stroke="none"/>
    <path d="M57.85 26.1 L57.85 25.85 Q57.85 23.85 60.15 23.4 L60.15 30.35 58.1 26.55 58.1 26.35 57.85 26.1 M19.9 29.25 L20.8 22.05 Q22.15 23.65 22.6 24.95 L19.9 29.25 M26.2 9.5 Q30.45 9.25 34.3 10.65 L45.95 10.65 Q49.35 8.85 53.4 9.25 51.4 12.65 48.9 14.2 L45.95 15.55 Q42.8 16.7 39.65 16.7 37.0 16.7 34.3 15.75 L30.9 14.45 Q27.55 11.75 26.2 9.5" fill="#022356" fill-rule="evenodd" stroke="none"/>
    <path d="M54.7 21.6 L57.85 26.1 58.1 26.35 58.1 26.55 Q57.45 41.8 58.75 54.6 58.75 59.3 56.75 61.3 L55.85 61.5 54.7 21.6 M50.7 62.2 L45.95 61.75 45.95 32.85 45.95 15.55 48.9 14.2 50.7 16.45 50.7 29.9 50.7 30.15 50.7 31.7 50.7 33.5 Q50.45 32.85 50.45 31.95 L50.45 31.7 50.7 31.7 50.45 31.7 50.45 31.95 Q50.45 32.85 50.7 33.5 L50.7 62.2 M35.65 61.5 L33.15 62.2 33.85 35.5 34.3 15.75 Q37.0 16.7 39.65 16.7 L39.65 31.95 39.65 32.15 39.45 53.45 Q36.75 53.7 34.5 52.55 36.75 57.3 35.65 61.5 M28.45 62.65 Q25.55 62.4 22.15 61.05 L25.3 21.15 28.0 17.6 Q29.6 15.55 30.45 14.9 L30.0 24.3 Q29.6 24.95 29.15 26.1 L28.9 28.35 28.7 29.45 28.7 31.0 28.7 31.7 28.9 31.95 28.9 32.4 28.7 33.5 28.7 33.95 28.7 36.0 Q28.9 36.45 29.6 36.6 L28.45 62.65 M50.7 30.15 L50.45 31.7 49.35 31.7 Q48.65 31.45 47.8 32.15 46.85 32.85 46.2 32.85 L45.95 32.85 46.2 32.85 Q46.85 32.85 47.8 32.15 48.65 31.45 49.35 31.7 L50.45 31.7 50.7 30.15 M29.6 36.2 L29.6 36.6 Q28.2 38.65 26.85 38.65 L26.45 38.65 26.2 38.45 26.2 36.0 27.1 29.9 Q27.55 28.55 28.9 28.35 27.55 28.55 27.1 29.9 L26.2 36.0 26.2 38.45 26.45 38.65 26.85 38.65 Q28.2 38.65 29.6 36.6 28.9 36.45 28.7 36.0 L28.7 33.95 28.7 33.5 28.9 32.4 28.9 31.95 29.6 32.4 29.8 31.95 29.6 36.2 M33.85 35.5 L34.05 35.5 35.4 33.95 36.3 32.4 36.3 33.7 Q36.5 34.4 37.45 34.4 38.55 34.4 38.8 33.7 L39.45 31.7 39.65 31.95 39.45 31.7 38.8 33.7 Q38.55 34.4 37.45 34.4 36.5 34.4 36.3 33.7 L36.3 32.4 35.4 33.95 34.05 35.5 33.85 35.5" fill="#e2dbd1" fill-rule="evenodd" stroke="none"/>
    <path d="M51.55 17.6 L54.7 21.6 55.85 61.5 50.7 62.2 50.7 33.5 50.7 31.7 51.4 31.7 Q52.0 31.25 52.0 29.7 L51.55 28.8 51.15 27.65 50.9 27.65 50.7 29.9 50.9 27.65 51.15 27.65 51.55 28.8 52.0 29.7 Q52.0 31.25 51.4 31.7 L50.7 31.7 50.7 30.15 50.7 29.9 50.7 16.45 51.55 17.6 M45.95 61.75 L42.6 61.05 Q41.5 57.05 43.7 52.3 41.5 53.25 39.45 53.45 L39.65 32.15 Q40.1 33.3 41.25 33.3 41.95 33.3 42.8 31.95 L43.95 30.35 44.65 31.95 Q44.85 32.85 45.95 32.85 44.85 32.85 44.65 31.95 L43.95 30.35 42.8 31.95 Q41.95 33.3 41.25 33.3 40.1 33.3 39.65 32.15 L39.65 31.95 39.65 16.7 Q42.8 16.7 45.95 15.55 L45.95 32.85 45.95 61.75 M33.15 62.2 L28.45 62.65 29.6 36.6 29.6 36.2 29.8 36.0 31.8 30.35 31.8 28.35 31.6 28.1 30.9 28.1 Q30.45 28.1 30.0 28.55 L29.15 30.35 28.9 31.95 29.15 30.35 30.0 28.55 Q30.45 28.1 30.9 28.1 L31.6 28.1 31.8 28.35 31.8 30.35 29.8 36.0 29.6 36.2 29.8 31.95 29.6 32.4 28.9 31.95 28.7 31.7 28.7 31.0 28.7 29.45 28.9 28.35 29.15 26.1 Q29.6 24.95 30.0 24.3 L30.45 14.9 30.9 14.45 34.3 15.75 33.85 35.5 33.15 62.2 M22.15 61.05 Q20.8 60.65 19.45 59.75 19.0 57.75 19.25 54.6 L22.85 27.25 22.6 24.95 25.3 21.15 22.15 61.05 M53.4 33.95 L52.95 33.95 Q52.7 34.15 52.95 34.6 L52.5 34.6 52.25 34.6 Q52.25 35.5 52.7 36.2 L52.95 36.0 53.4 36.0 53.4 35.3 53.4 34.4 53.4 33.95 53.4 32.4 52.95 31.95 Q52.5 32.4 52.25 33.3 L52.25 34.15 52.25 34.6 51.15 34.4 50.7 33.5 51.15 34.4 52.25 34.6 52.25 34.15 52.25 33.3 Q52.5 32.4 52.95 31.95 L53.4 32.4 53.4 33.95 53.4 34.4 53.4 35.3 53.4 36.0 52.95 36.0 52.7 36.2 Q52.25 35.5 52.25 34.6 L52.5 34.6 52.95 34.6 Q52.7 34.15 52.95 33.95 L53.4 33.95 M53.4 35.3 L52.95 34.6 53.15 34.6 53.4 34.4 53.15 34.6 52.95 34.6 53.4 35.3 M33.85 35.5 L32.5 35.5 Q33.6 34.15 33.85 32.85 L33.85 31.0 Q33.4 31.45 32.75 32.6 32.3 33.7 32.3 34.6 L32.3 35.05 32.5 35.5 32.3 35.5 Q30.9 36.6 30.0 36.6 L29.6 36.6 30.0 36.6 Q30.9 36.6 32.3 35.5 L32.5 35.5 32.3 35.05 32.3 34.6 Q32.3 33.7 32.75 32.6 33.4 31.45 33.85 31.0 L33.85 32.85 Q33.6 34.15 32.5 35.5 L33.85 35.5" fill="#eceae7" fill-rule="evenodd" stroke="none"/>
    <path d="M60.15 30.35 L61.45 59.5 61.25 59.5 Q59.0 60.65 56.75 61.3 58.75 59.3 58.75 54.6 57.45 41.8 58.1 26.55 L60.15 30.35 M39.45 55.45 L37.9 55.45 37.9 60.65 35.65 61.5 Q36.75 57.3 34.5 52.55 36.75 53.7 39.45 53.45 L39.45 55.45 M19.45 59.75 L17.0 58.15 19.9 29.25 22.6 24.95 22.85 27.25 19.25 54.6 Q19.0 57.75 19.45 59.75" fill="#aaa091" fill-rule="evenodd" stroke="none"/>
    <path d="M42.6 61.05 L40.8 60.65 40.8 55.45 39.45 55.45 39.45 53.45 Q41.5 53.25 43.7 52.3 41.5 57.05 42.6 61.05" fill="#d4cdc3" fill-rule="evenodd" stroke="none"/>
    <path d="M50.7 29.9 L50.9 27.65 51.15 27.65 51.55 28.8 52.0 29.7 Q52.0 31.25 51.4 31.7 L50.7 31.7 50.45 31.7 50.45 31.95 Q50.45 32.85 50.7 33.5 L51.15 34.4 52.25 34.6 52.25 34.15 52.25 33.3 Q52.5 32.4 52.95 31.95 L53.4 32.4 53.4 33.95 53.4 34.4 53.4 35.3 53.4 36.0 52.95 36.0 52.7 36.2 Q52.25 35.5 52.25 34.6 L52.5 34.6 52.95 34.6 Q52.7 34.15 52.95 33.95 L53.4 33.95 M50.7 29.9 L50.7 30.15 M53.4 34.4 L53.15 34.6 52.95 34.6 53.4 35.3 M39.65 32.15 Q40.1 33.3 41.25 33.3 41.95 33.3 42.8 31.95 L43.95 30.35 44.65 31.95 Q44.85 32.85 45.95 32.85 L46.2 32.85 Q46.85 32.85 47.8 32.15 48.65 31.45 49.35 31.7 L50.45 31.7 50.7 30.15 M39.65 31.95 L39.65 32.15 M28.9 31.95 L29.15 30.35 30.0 28.55 Q30.45 28.1 30.9 28.1 L31.6 28.1 31.8 28.35 31.8 30.35 29.8 36.0 29.6 36.2 29.6 36.6 30.0 36.6 Q30.9 36.6 32.3 35.5 L32.5 35.5 32.3 35.05 32.3 34.6 Q32.3 33.7 32.75 32.6 33.4 31.45 33.85 31.0 L33.85 32.85 Q33.6 34.15 32.5 35.5 L33.85 35.5 M39.65 31.95 L39.45 31.7 38.8 33.7 Q38.55 34.4 37.45 34.4 36.5 34.4 36.3 33.7 L36.3 32.4 35.4 33.95 34.05 35.5 33.85 35.5 M29.6 36.6 Q28.2 38.65 26.85 38.65 L26.45 38.65 26.2 38.45 26.2 36.0 27.1 29.9 Q27.55 28.55 28.9 28.35 M28.9 31.95 L28.9 32.4 28.7 33.5 28.7 33.95 28.7 36.0 Q28.9 36.45 29.6 36.6" fill="none" stroke="#001b45" stroke-linecap="round" stroke-linejoin="round" stroke-width="2.0"/>
    <path d="M41.5 28.8 Q40.8 29.7 39.65 29.7 38.55 29.7 37.9 28.8 37.2 28.1 37.2 27.0 37.2 25.85 37.9 25.2 38.55 24.5 39.65 24.5 40.8 24.5 41.5 25.2 42.15 25.85 42.15 27.0 42.15 28.1 41.5 28.8" fill="#062e6d" fill-rule="evenodd" stroke="none"/>
    <path d="M42.15 37.75 Q42.15 38.9 41.5 39.55 40.6 40.2 39.65 40.2 38.55 40.2 37.65 39.55 37.0 38.9 37.0 37.75 37.0 36.6 37.65 36.0 38.55 35.3 39.65 35.3 40.6 35.3 41.5 36.0 42.15 36.6 42.15 37.75" fill="#062e6d" fill-rule="evenodd" stroke="none"/>
    <path d="M42.15 47.2 Q42.15 48.1 41.5 48.95 40.6 49.65 39.65 49.65 38.55 49.65 37.65 48.95 37.0 48.1 37.0 47.2 37.0 46.05 37.65 45.4 38.55 44.5 39.65 44.5 40.6 44.5 41.5 45.4 42.15 46.05 42.15 47.2" fill="#062e6d" fill-rule="evenodd" stroke="none"/>
    <path d="M44.4 21.15 L39.0 21.6 34.05 20.75 Q31.35 20.05 28.0 17.6 L30.7 14.2 Q35.65 16.7 39.65 16.7 43.7 16.9 48.9 14.2 L51.8 17.6 Q47.3 20.5 44.4 21.15" fill="#094e23" fill-rule="evenodd" stroke="none"/>
  </g>
</svg>
