<?xml version="1.0" encoding="UTF-8" standalone="no"?>
<svg xmlns:xlink="http://www.w3.org/1999/xlink" height="56.85px" width="63.65px" xmlns="http://www.w3.org/2000/svg">
  <g transform="matrix(1.0, 0.0, 0.0, 1.0, -8.1, -7.25)">
    <path d="M56.2 8.15 L58.35 8.35 61.0 9.55 64.05 11.95 71.35 19.25 61.2 28.0 62.65 60.3 62.35 60.55 57.9 62.2 57.7 62.4 56.7 62.7 51.25 63.15 46.3 62.9 43.0 62.2 42.75 62.2 Q41.6 62.0 40.9 61.5 L40.9 56.3 37.8 56.3 37.8 61.75 36.35 62.2 35.4 62.4 32.8 63.35 27.85 63.6 Q24.8 63.6 21.5 62.2 L21.25 62.2 18.4 60.8 15.8 58.95 18.9 27.75 8.5 19.0 12.0 15.25 14.35 12.9 15.6 11.45 Q18.4 9.1 20.75 8.35 L23.6 8.15 Q29.05 7.45 34.0 9.1 L46.3 9.1 Q50.8 6.75 56.2 8.15" fill="#082b5f" fill-rule="evenodd" stroke="none"/>
    <path d="M56.2 8.15 Q50.8 6.75 46.3 9.1 L34.0 9.1 Q29.05 7.45 23.6 8.15 L20.75 8.35 Q18.4 9.1 15.6 11.45 L14.35 12.9 12.0 15.25 8.5 19.0 18.9 27.75 15.8 58.95 18.4 60.8 21.25 62.2 21.5 62.2 Q24.8 63.6 27.85 63.6 L32.8 63.35 35.4 62.4 36.35 62.2 37.8 61.75 37.8 56.3 40.9 56.3 40.9 61.5 Q41.6 62.0 42.75 62.2 L43.0 62.2 46.3 62.9 51.25 63.15 56.7 62.7 57.7 62.4 57.9 62.2 62.35 60.55 62.65 60.3 61.2 28.0 71.35 19.25 64.05 11.95 61.0 9.55 58.35 8.35 56.2 8.15 Z" fill="none" stroke="#202235" stroke-linecap="round" stroke-linejoin="round" stroke-width="0.8"/>
    <path d="M59.3 25.6 L56.75 21.15 Q53.7 16.2 52.05 14.5 50.35 11.2 54.15 9.1 56.0 7.9 58.4 8.6 60.8 9.35 64.1 12.15 L71.4 19.5 64.1 25.9 Q62.65 23.95 61.25 23.05 59.6 21.85 59.6 23.05 59.3 24.2 59.6 24.4 59.3 25.15 59.3 25.6 M14.4 24.4 L8.55 19.25 15.6 11.7 Q18.4 9.1 20.8 8.6 L25.3 8.85 Q27.65 10.75 27.9 13.35 L27.65 13.35 25.55 16.2 Q23.65 19.0 22.7 20.9 L21.55 23.05 21.25 21.85 Q20.8 21.15 19.35 21.6 17.95 22.1 16.75 22.8 L14.4 24.4" fill="#062e6d" fill-rule="evenodd" stroke="none"/>
    <path d="M59.3 25.6 Q59.3 25.15 59.6 24.4 59.3 24.2 59.6 23.05 59.6 21.85 61.25 23.05 62.65 23.95 64.1 25.9 L60.8 28.7 59.3 25.6 M14.4 24.4 L16.75 22.8 Q17.95 22.1 19.35 21.6 20.8 21.15 21.25 21.85 L21.55 23.05 20.3 25.9 19.15 28.2 14.4 24.4" fill="#022356" fill-rule="evenodd" stroke="none"/>
    <path d="M58.15 9.1 Q55.35 13.85 52.2 16.7 L51.3 15.45 49.4 13.1 Q52.05 11.45 54.15 7.9 56.0 8.15 58.15 9.1 M21.25 9.35 L21.25 9.1 Q23.35 8.35 25.55 8.15 26.95 10.5 30.5 13.35 L30.0 13.85 Q29.1 14.5 27.4 16.7 23.35 13.1 21.25 9.35" fill="#094e23" fill-rule="evenodd" stroke="none"/>
    <path d="M58.15 9.1 Q59.1 9.35 60.05 9.85 L61.25 22.8 Q58.85 23.25 58.85 25.35 L58.85 25.6 55.55 20.9 52.2 16.7 Q55.35 13.85 58.15 9.1 M19.85 21.35 L21.25 9.35 Q23.35 13.1 27.4 16.7 L24.6 20.4 Q22.9 22.55 21.75 24.4 21.25 23.05 19.85 21.35" fill="#062e6d" fill-rule="evenodd" stroke="none"/>
    <path d="M58.85 25.6 L58.85 25.35 Q58.85 23.25 61.25 22.8 L61.25 30.1 59.1 26.1 59.1 25.9 58.85 25.6 M18.9 28.95 L19.85 21.35 Q21.25 23.05 21.75 24.4 L18.9 28.95 M25.55 8.15 Q30.0 7.9 34.05 9.35 L46.3 9.35 Q49.9 7.45 54.15 7.9 52.05 11.45 49.4 13.1 47.75 14.05 46.3 14.5 43.0 15.75 39.7 15.75 36.9 15.75 34.05 14.75 L30.5 13.35 Q26.95 10.5 25.55 8.15" fill="#022356" fill-rule="evenodd" stroke="none"/>
    <path d="M55.55 20.9 L58.85 25.6 59.1 25.9 59.1 26.1 Q58.4 42.15 59.8 55.6 59.8 60.55 57.7 62.7 L56.75 62.9 55.55 20.9 M51.3 63.6 L46.3 63.15 46.3 32.75 46.6 32.75 Q47.25 32.75 48.25 32.0 49.15 31.25 49.9 31.5 L51.05 31.5 51.3 29.9 51.3 31.5 51.3 33.4 Q51.05 32.75 51.05 31.8 L51.05 31.5 51.3 31.5 51.05 31.5 51.05 31.8 Q51.05 32.75 51.3 33.4 L51.3 63.6 M35.5 62.9 L32.85 63.6 33.6 35.5 34.05 14.75 Q36.9 15.75 39.7 15.75 L39.7 31.8 39.7 32.0 39.5 54.4 Q36.65 54.7 34.25 53.45 36.65 58.45 35.5 62.9 M27.9 64.1 Q24.85 63.85 21.25 62.4 L24.6 20.4 27.4 16.7 Q29.1 14.5 30.0 13.85 L29.55 23.75 28.65 25.6 Q28.35 26.85 28.35 28.0 L28.15 29.15 28.15 30.8 28.15 31.5 28.35 31.8 28.35 32.25 28.15 33.4 28.15 33.9 28.15 36.05 29.1 36.7 27.9 64.1 M46.3 14.5 Q47.75 14.05 49.4 13.1 L51.3 15.45 51.3 29.6 51.3 29.9 51.05 31.5 49.9 31.5 Q49.15 31.25 48.25 32.0 47.25 32.75 46.6 32.75 L46.3 32.75 46.3 14.5 M29.1 36.25 L29.1 36.7 28.15 36.05 28.15 33.9 28.15 33.4 28.35 32.25 28.35 31.8 29.1 32.25 29.3 31.8 29.1 36.25 M33.6 35.5 L33.8 35.5 35.2 33.9 Q35.9 32.45 36.15 32.25 L36.15 33.6 Q36.35 34.35 37.35 34.35 38.55 34.35 38.8 33.6 L39.5 31.5 39.7 31.8 39.5 31.5 38.8 33.6 Q38.55 34.35 37.35 34.35 36.35 34.35 36.15 33.6 L36.15 32.25 Q35.9 32.45 35.2 33.9 L33.8 35.5 33.6 35.5 M28.35 28.0 Q26.95 28.2 26.5 29.6 L25.55 36.05 25.55 38.6 25.8 38.85 26.2 38.85 Q27.65 38.85 29.1 36.7 27.65 38.85 26.2 38.85 L25.8 38.85 25.55 38.6 25.55 36.05 26.5 29.6 Q26.95 28.2 28.35 28.0" fill="#e2dbd1" fill-rule="evenodd" stroke="none"/>
    <path d="M52.2 16.7 L55.55 20.9 56.75 62.9 51.3 63.6 51.3 33.4 51.3 31.5 52.05 31.5 Q52.7 31.05 52.7 29.4 L52.2 28.45 Q51.8 27.75 51.8 27.25 L51.55 27.25 51.3 29.6 51.55 27.25 51.8 27.25 Q51.8 27.75 52.2 28.45 L52.7 29.4 Q52.7 31.05 52.05 31.5 L51.3 31.5 51.3 29.9 51.3 29.6 51.3 15.45 52.2 16.7 M46.3 63.15 L42.8 62.4 Q41.65 58.2 43.95 53.2 41.65 54.2 39.5 54.4 L39.7 32.0 Q40.15 33.2 41.35 33.2 42.1 33.2 43.0 31.8 L44.2 30.1 44.95 31.8 Q45.15 32.75 46.3 32.75 45.15 32.75 44.95 31.8 L44.2 30.1 43.0 31.8 Q42.1 33.2 41.35 33.2 40.15 33.2 39.7 32.0 L39.7 31.8 39.7 15.75 Q43.0 15.75 46.3 14.5 L46.3 32.75 46.3 63.15 M32.85 63.6 L27.9 64.1 29.1 36.7 29.1 36.25 29.3 36.05 31.4 30.1 31.4 28.0 31.2 27.75 30.5 27.75 Q30.0 27.75 29.55 28.2 L28.65 30.1 Q28.35 31.05 28.35 31.8 28.35 31.05 28.65 30.1 L29.55 28.2 Q30.0 27.75 30.5 27.75 L31.2 27.75 31.4 28.0 31.4 30.1 29.3 36.05 29.1 36.25 29.3 31.8 29.1 32.25 28.35 31.8 28.15 31.5 28.15 30.8 28.15 29.15 28.35 28.0 Q28.35 26.85 28.65 25.6 L29.55 23.75 30.0 13.85 30.5 13.35 34.05 14.75 33.6 35.5 32.85 63.6 M21.25 62.4 Q19.85 62.0 18.4 61.05 17.95 58.95 18.2 55.6 L22.0 26.85 21.75 24.4 Q22.9 22.55 24.6 20.4 L21.25 62.4 M54.15 33.9 L53.7 33.9 Q53.4 34.1 53.7 34.55 L53.2 34.55 52.95 34.55 Q52.95 35.5 53.4 36.25 L53.7 36.05 54.15 36.05 54.15 35.3 54.15 34.35 54.15 33.9 54.15 32.25 53.7 31.8 Q53.2 32.25 52.95 33.2 L52.95 34.1 52.95 34.55 51.8 34.35 51.3 33.4 51.8 34.35 52.95 34.55 52.95 34.1 52.95 33.2 Q53.2 32.25 53.7 31.8 L54.15 32.25 54.15 33.9 54.15 34.35 54.15 35.3 54.15 36.05 53.7 36.05 53.4 36.25 Q52.95 35.5 52.95 34.55 L53.2 34.55 53.7 34.55 Q53.4 34.1 53.7 33.9 L54.15 33.9 M54.15 35.3 L53.7 34.55 53.9 34.55 54.15 34.35 53.9 34.55 53.7 34.55 54.15 35.3 M33.6 35.5 L32.15 35.5 Q33.3 34.1 33.6 32.75 L33.6 30.8 Q33.1 31.25 32.4 32.45 31.95 33.6 31.95 34.55 L31.95 35.05 32.15 35.5 31.95 35.5 Q30.5 36.7 29.55 36.7 L29.1 36.7 29.55 36.7 Q30.5 36.7 31.95 35.5 L32.15 35.5 31.95 35.05 31.95 34.55 Q31.95 33.6 32.4 32.45 33.1 31.25 33.6 30.8 L33.6 32.75 Q33.3 34.1 32.15 35.5 L33.6 35.5" fill="#eceae7" fill-rule="evenodd" stroke="none"/>
    <path d="M61.25 30.1 L62.65 60.8 62.4 60.8 57.7 62.7 Q59.8 60.55 59.8 55.6 58.4 42.15 59.1 26.1 L61.25 30.1 M39.5 56.5 L37.85 56.5 37.85 62.0 35.5 62.9 Q36.65 58.45 34.25 53.45 36.65 54.7 39.5 54.4 L39.5 56.5 M18.4 61.05 L15.85 59.35 18.9 28.95 21.75 24.4 22.0 26.85 18.2 55.6 Q17.95 58.95 18.4 61.05" fill="#aaa091" fill-rule="evenodd" stroke="none"/>
    <path d="M42.8 62.4 L40.9 62.0 40.9 56.5 39.5 56.5 39.5 54.4 Q41.65 54.2 43.95 53.2 41.65 58.2 42.8 62.4" fill="#d4cdc3" fill-rule="evenodd" stroke="none"/>
    <path d="M51.3 29.6 L51.55 27.25 51.8 27.25 Q51.8 27.75 52.2 28.45 L52.7 29.4 Q52.7 31.05 52.05 31.5 L51.3 31.5 51.05 31.5 51.05 31.8 Q51.05 32.75 51.3 33.4 L51.8 34.35 52.95 34.55 52.95 34.1 52.95 33.2 Q53.2 32.25 53.7 31.8 L54.15 32.25 54.15 33.9 54.15 34.35 54.15 35.3 54.15 36.05 53.7 36.05 53.4 36.25 Q52.95 35.5 52.95 34.55 L53.2 34.55 53.7 34.55 Q53.4 34.1 53.7 33.9 L54.15 33.9 M51.3 29.6 L51.3 29.9 M54.15 34.35 L53.9 34.55 53.7 34.55 54.15 35.3 M46.3 32.75 L46.6 32.75 Q47.25 32.75 48.25 32.0 49.15 31.25 49.9 31.5 L51.05 31.5 51.3 29.9 M39.7 32.0 Q40.15 33.2 41.35 33.2 42.1 33.2 43.0 31.8 L44.2 30.1 44.95 31.8 Q45.15 32.75 46.3 32.75 M39.7 31.8 L39.7 32.0 M28.35 31.8 Q28.35 31.05 28.65 30.1 L29.55 28.2 Q30.0 27.75 30.5 27.75 L31.2 27.75 31.4 28.0 31.4 30.1 29.3 36.05 29.1 36.25 29.1 36.7 29.55 36.7 Q30.5 36.7 31.95 35.5 L32.15 35.5 31.95 35.05 31.95 34.55 Q31.95 33.6 32.4 32.45 33.1 31.25 33.6 30.8 L33.6 32.75 Q33.3 34.1 32.15 35.5 L33.6 35.5 M39.7 31.8 L39.5 31.5 38.8 33.6 Q38.55 34.35 37.35 34.35 36.35 34.35 36.15 33.6 L36.15 32.25 Q35.9 32.45 35.2 33.9 L33.8 35.5 33.6 35.5 M29.1 36.7 Q27.65 38.85 26.2 38.85 L25.8 38.85 25.55 38.6 25.55 36.05 26.5 29.6 Q26.95 28.2 28.35 28.0 M28.35 31.8 L28.35 32.25 28.15 33.4 28.15 33.9 28.15 36.05 29.1 36.7" fill="none" stroke="#001b45" stroke-linecap="round" stroke-linejoin="round" stroke-width="2.0"/>
    <path d="M42.3 26.55 Q42.3 27.75 41.65 28.45 40.9 29.4 39.7 29.4 38.55 29.4 37.85 28.45 37.1 27.75 37.1 26.55 37.1 25.35 37.85 24.7 38.55 23.95 39.7 23.95 40.9 23.95 41.65 24.7 42.3 25.35 42.3 26.55" fill="#062e6d" fill-rule="evenodd" stroke="none"/>
    <path d="M41.65 39.8 Q40.7 40.45 39.7 40.45 38.55 40.45 37.6 39.8 36.9 39.1 36.9 37.9 36.9 36.7 37.6 36.05 38.55 35.3 39.7 35.3 40.7 35.3 41.65 36.05 42.3 36.7 42.3 37.9 42.3 39.1 41.65 39.8" fill="#062e6d" fill-rule="evenodd" stroke="none"/>
    <path d="M42.3 47.85 Q42.3 48.8 41.65 49.7 40.7 50.4 39.7 50.4 38.55 50.4 37.6 49.7 36.9 48.8 36.9 47.85 36.9 46.6 37.6 45.95 38.55 45.0 39.7 45.0 40.7 45.0 41.65 45.95 42.3 46.6 42.3 47.85" fill="#062e6d" fill-rule="evenodd" stroke="none"/>
    <path d="M52.5 16.7 Q47.75 19.75 44.7 20.4 L39.0 20.9 33.8 20.0 Q30.95 19.25 27.4 16.7 L30.25 13.1 Q35.5 15.75 39.7 15.75 43.95 15.95 49.4 13.1 L52.5 16.7" fill="#094e23" fill-rule="evenodd" stroke="none"/>
  </g>
</svg>
