<?xml version="1.0" encoding="UTF-8" standalone="no"?>
<svg xmlns:xlink="http://www.w3.org/1999/xlink" height="69.55px" width="69.05px" xmlns="http://www.w3.org/2000/svg">
  <g transform="matrix(1.0, 0.0, 0.0, 1.0, 7.35, 12.1)">
    <path d="M47.35 -12.1 Q61.7 -12.1 61.7 2.25 L61.7 43.1 Q61.7 57.45 47.35 57.45 L7.0 57.45 Q-7.35 57.45 -7.35 43.1 L-7.35 2.25 Q-7.35 -12.1 7.0 -12.1 L47.35 -12.1" fill="#cff3e8" fill-rule="evenodd" stroke="none"/>
    <path d="M44.1 6.95 Q42.35 5.2 40.0 5.2 L39.9 5.2 39.8 5.2 39.25 5.25 37.3 5.75 Q36.4 6.15 35.65 6.9 L29.1 13.5 28.75 13.75 28.0 14.55 20.4 6.95 Q18.6 5.15 16.15 5.15 L13.9 5.6 Q12.85 6.05 12.0 6.95 L11.95 7.0 Q11.05 7.85 10.6 8.9 L10.15 11.2 Q10.15 13.6 11.95 15.4 L19.55 23.0 11.9 30.6 11.95 30.6 Q11.05 31.5 10.6 32.6 L10.15 34.85 Q10.15 37.3 11.95 39.1 13.7 40.85 16.15 40.85 L17.15 40.8 18.85 40.25 20.4 39.15 20.4 39.1 28.0 31.45 35.65 39.1 Q37.4 40.85 39.8 40.9 L39.9 40.9 39.95 40.9 41.1 40.8 Q42.8 40.4 44.1 39.15 L44.15 39.1 45.25 37.6 45.8 35.9 45.85 34.85 Q45.85 32.4 44.05 30.6 L36.5 23.05 43.85 15.7 Q44.0 15.3 44.4 15.15 L45.1 14.2 45.55 13.2 45.85 11.2 Q45.85 8.7 44.1 6.95 M46.2 4.85 Q48.85 7.5 48.85 11.2 48.85 14.8 46.35 17.5 L46.15 17.65 40.75 23.1 46.15 28.5 Q48.85 31.2 48.85 34.85 48.85 38.5 46.35 41.2 L46.3 41.2 46.2 41.3 46.2 41.35 Q43.55 43.85 40.0 43.9 L39.9 43.9 39.8 43.9 Q36.05 43.85 33.5 41.15 L28.0 35.65 22.95 40.75 22.5 41.3 22.5 41.35 Q19.8 43.85 16.15 43.85 12.5 43.85 9.85 41.2 7.15 38.5 7.15 34.85 7.15 31.2 9.8 28.5 L15.35 23.0 9.85 17.5 Q7.15 14.8 7.15 11.2 7.15 7.5 9.85 4.85 12.5 2.15 16.15 2.15 19.8 2.15 22.5 4.85 L28.0 10.35 33.5 4.8 Q36.2 2.15 39.8 2.2 L39.9 2.2 Q43.5 2.15 46.2 4.85" fill="#000000" fill-opacity="0.49803922" fill-rule="evenodd" stroke="none"/>
    <path d="M43.05 8.0 Q44.35 9.3 44.35 11.2 44.35 13.0 43.05 14.35 L34.35 23.0 43.0 31.65 Q44.35 33.0 44.35 34.85 44.35 36.7 43.05 38.05 41.7 39.35 39.85 39.4 38.0 39.35 36.65 38.0 L28.0 29.35 19.35 38.05 Q18.0 39.35 16.15 39.35 14.3 39.35 13.0 38.05 11.65 36.7 11.65 34.85 11.65 33.0 12.95 31.65 L21.65 23.0 13.0 14.35 Q11.65 13.0 11.65 11.2 11.65 9.3 13.0 8.0 14.3 6.65 16.15 6.65 18.0 6.65 19.35 8.0 L28.0 16.65 36.65 7.95 Q38.0 6.65 39.85 6.7 41.7 6.65 43.05 8.0" fill="#ff0000" fill-rule="evenodd" stroke="none"/>
  </g>
</svg>
