<?xml version="1.0" encoding="UTF-8" standalone="no"?>
<svg xmlns:xlink="http://www.w3.org/1999/xlink" height="59.15px" width="53.15px" xmlns="http://www.w3.org/2000/svg">
  <g transform="matrix(1.0, 0.0, 0.0, 1.0, -2.75, -1.6)">
    <path d="M4.75 39.1 L7.95 2.0 51.5 2.0 55.5 57.4 51.5 58.75 Q46.7 60.3 42.25 60.3 L40.9 60.3 Q37.2 60.3 33.7 59.25 L31.6 58.5 31.6 52.9 Q29.75 51.9 27.6 52.9 L27.6 58.75 Q26.3 59.0 24.95 59.55 L24.65 59.55 Q15.4 61.7 6.85 57.95 L6.85 57.7 3.4 56.1 3.15 55.85 4.5 39.1 4.75 39.1" fill="#560000" fill-rule="evenodd" stroke="none"/>
    <path d="M4.75 39.1 L4.5 39.1 3.15 55.85 3.4 56.1 6.85 57.7 6.85 57.95 Q15.4 61.7 24.65 59.55 L24.95 59.55 Q26.3 59.0 27.6 58.75 L27.6 52.9 Q29.75 51.9 31.6 52.9 L31.6 58.5 33.7 59.25 Q37.2 60.3 40.9 60.3 L42.25 60.3 Q46.7 60.3 51.5 58.75 L55.5 57.4 51.5 2.0 7.95 2.0 4.75 39.1 Z" fill="none" stroke="#202235" stroke-linecap="round" stroke-linejoin="round" stroke-width="0.8"/>
    <path d="M52.3 11.6 L49.7 12.3 48.05 2.0 51.5 2.0 52.3 11.6 M9.55 11.85 L9.0 11.6 7.15 11.05 7.95 2.0 11.1 2.0 9.55 11.85" fill="#042772" fill-rule="evenodd" stroke="none"/>
    <path d="M49.7 12.3 L52.3 11.6 53.6 33.05 51.8 33.3 Q51.0 22.15 49.7 12.3 M7.15 11.05 L9.0 11.6 9.55 11.85 Q8.5 20.0 7.15 33.55 L5.3 33.05 7.15 11.05" fill="#083593" fill-rule="evenodd" stroke="none"/>
    <path d="M48.05 2.0 L49.7 12.3 Q28.1 16.85 9.55 11.85 L11.1 2.0 48.05 2.0" fill="#09348e" fill-rule="evenodd" stroke="none"/>
    <path d="M6.85 39.65 Q6.6 40.75 6.6 41.75 5.05 53.7 6.85 57.7 L3.4 56.1 3.15 55.85 4.5 39.1 6.6 39.4 6.85 39.65 M24.65 59.55 Q25.7 54.75 23.6 48.9 28.9 50.8 34.5 49.15 32.9 53.7 33.7 59.25 L31.6 58.5 31.6 52.9 Q29.75 51.9 27.6 52.9 L27.6 58.75 Q26.3 59.0 24.95 59.55 L24.65 59.55 M51.5 58.75 Q52.85 54.0 52.3 42.85 L52.05 39.65 54.15 39.1 55.5 57.4 51.5 58.75" fill="#700000" fill-rule="evenodd" stroke="none"/>
    <path d="M42.5 40.5 L46.7 40.2 48.6 39.9 49.1 39.9 52.05 39.65 52.3 42.85 Q52.85 54.0 51.5 58.75 46.7 60.3 42.25 60.3 L40.9 60.3 Q37.2 60.3 33.7 59.25 32.9 53.7 34.5 49.15 28.9 50.8 23.6 48.9 25.7 54.75 24.65 59.55 15.4 61.7 6.85 57.95 L6.85 57.7 Q5.05 53.7 6.6 41.75 6.6 40.75 6.85 39.65 L11.1 40.2 13.5 40.5 17.5 40.75 26.05 41.0 42.25 40.5 42.5 40.5" fill="#990000" fill-rule="evenodd" stroke="none"/>
    <path d="M49.7 12.3 Q51.0 22.15 51.8 33.3 L31.6 34.35 7.15 33.55 Q8.5 20.0 9.55 11.85 28.1 16.85 49.7 12.3" fill="#1447b2" fill-rule="evenodd" stroke="none"/>
    <path d="M42.5 40.5 L42.25 40.5" fill="none" stroke="#e73535" stroke-linecap="round" stroke-linejoin="round" stroke-width="0.2"/>
    <path d="M52.3 32.8 L53.9 32.8 54.4 40.75 52.3 41.0 Q52.85 38.35 52.3 32.8 M6.85 40.75 L4.75 40.5 5.55 32.8 7.4 33.05 Q6.6 37.3 6.85 40.75" fill="#d7c64b" fill-rule="evenodd" stroke="none"/>
    <path d="M48.85 41.25 L46.95 41.45 46.7 33.55 48.35 33.3 48.85 41.25 M13.8 41.75 L11.4 41.45 12.2 33.55 13.8 33.55 Q13.0 38.6 13.8 41.75" fill="#7b0101" fill-rule="evenodd" stroke="none"/>
    <path d="M46.95 41.45 L42.75 41.75 42.75 33.55 46.7 33.55 46.95 41.45 M17.5 42.05 L13.8 41.75 Q13.0 38.6 13.8 33.55 L18.0 33.85 17.5 42.05" fill="#b60d0d" fill-rule="evenodd" stroke="none"/>
    <path d="M52.3 41.0 L49.45 41.25 Q49.1 41.25 48.85 41.45 L48.85 41.25 48.35 33.3 52.3 32.8 Q52.85 38.35 52.3 41.0 M42.75 41.75 L42.5 41.75 26.3 42.55 17.75 42.3 17.5 42.3 17.5 42.05 18.0 33.85 Q30.0 34.6 42.75 33.55 L42.75 41.75 M11.4 41.45 L7.15 41.0 6.85 40.75 Q6.6 37.3 7.4 33.05 L12.2 33.55 11.4 41.45" fill="#f2f567" fill-rule="evenodd" stroke="none"/>
    <path d="M29.55 38.35 Q29.55 37.5 28.95 36.9 28.3 36.3 27.45 36.3 26.55 36.3 25.95 36.9 25.35 37.5 25.35 38.35 25.35 39.2 25.95 39.8 26.55 40.45 27.45 40.45 28.3 40.45 28.95 39.8 29.55 39.2 29.55 38.35 M24.2 39.7 Q24.2 37.5 25.75 35.95 27.25 34.35 29.55 34.35 31.8 34.35 33.35 35.95 34.95 37.5 34.95 39.7 34.95 41.9 33.35 43.5 31.8 45.05 29.55 45.05 27.25 45.05 25.75 43.5 24.2 41.9 24.2 39.7 M28.35 41.05 Q27.9 41.05 27.6 41.35 27.25 41.65 27.25 42.1 27.25 42.5 27.6 42.85 L28.35 43.1 29.05 42.85 29.4 42.1 Q29.4 41.65 29.05 41.35 28.8 41.05 28.35 41.05" fill="#d7c64b" fill-rule="evenodd" stroke="none"/>
    <path d="M29.55 38.35 Q29.55 39.2 28.95 39.8 28.3 40.45 27.45 40.45 26.55 40.45 25.95 39.8 25.35 39.2 25.35 38.35 25.35 37.5 25.95 36.9 26.55 36.3 27.45 36.3 28.3 36.3 28.95 36.9 29.55 37.5 29.55 38.35 M28.35 41.05 Q28.8 41.05 29.05 41.35 29.4 41.65 29.4 42.1 L29.05 42.85 28.35 43.1 27.6 42.85 Q27.25 42.5 27.25 42.1 27.25 41.65 27.6 41.35 27.9 41.05 28.35 41.05" fill="#f5f7d3" fill-rule="evenodd" stroke="none"/>
    <path d="M22.5 39.7 Q22.5 36.8 24.55 34.75 26.6 32.75 29.55 32.75 32.45 32.75 34.5 34.75 36.55 36.8 36.55 39.7 36.55 42.65 34.5 44.6 32.45 46.7 29.55 46.7 26.6 46.7 24.55 44.6 22.5 42.65 22.5 39.7 M24.2 39.7 Q24.2 41.9 25.75 43.5 27.25 45.05 29.55 45.05 31.8 45.05 33.35 43.5 34.95 41.9 34.95 39.7 34.95 37.5 33.35 35.95 31.8 34.35 29.55 34.35 27.25 34.35 25.75 35.95 24.2 37.5 24.2 39.7" fill="#b8a832" fill-rule="evenodd" stroke="none"/>
    <path d="M29.5 16.85 L30.55 16.85 31.35 15.3 Q31.6 14.7 32.6 15.05 L34.0 15.3 Q35.3 14.45 36.9 13.95 L37.7 15.05 Q36.35 15.3 35.55 15.8 36.35 16.05 36.65 16.55 37.45 17.15 37.2 17.4 L36.1 19.55 Q38.5 21.65 38.5 24.25 38.5 27.45 35.8 29.85 33.2 31.95 29.5 31.95 26.05 31.95 23.35 29.85 20.95 27.45 20.95 24.25 20.95 21.35 23.35 19.0 26.05 16.85 29.5 16.85" fill="#f8fa8e" fill-rule="evenodd" stroke="none"/>
    <path d="M29.5 16.85 L30.55 16.85 31.35 15.3 Q31.6 14.7 32.6 15.05 L34.0 15.3 Q35.3 14.45 36.9 13.95 L37.7 15.05 Q36.35 15.3 35.55 15.8 36.35 16.05 36.65 16.55 37.45 17.15 37.2 17.4 L36.1 19.55 Q38.5 21.65 38.5 24.25 38.5 27.45 35.8 29.85 33.2 31.95 29.5 31.95 26.05 31.95 23.35 29.85 20.95 27.45 20.95 24.25 20.95 21.35 23.35 19.0 26.05 16.85 29.5 16.85 Z" fill="none" stroke="#d92525" stroke-linecap="round" stroke-linejoin="round" stroke-width="0.2"/>
    <path d="M28.65 22.75 Q30.0 22.75 30.8 22.15 31.35 21.9 31.35 21.35 L31.35 21.1 30.55 20.6 Q29.75 20.0 28.4 20.0 L28.65 22.75 M23.35 19.0 L30.55 19.0 34.75 19.55 Q35.55 20.0 35.8 20.6 L36.1 21.35 Q36.1 22.4 35.1 23.2 L33.7 23.75 34.0 23.75 34.5 24.0 36.1 24.55 Q37.2 25.35 37.2 26.9 37.2 28.55 35.8 29.35 L35.55 29.85 Q33.7 30.9 29.5 31.15 L24.2 31.15 26.3 30.65 24.4 19.3 23.35 19.0 M30.8 25.6 L30.0 25.6 29.15 25.6 28.4 25.85 28.1 29.05 30.25 27.45 Q31.05 26.9 31.05 26.15 L30.8 25.6" fill="#d92525" fill-rule="evenodd" stroke="none"/>
  </g>
</svg>
