<?xml version="1.0" encoding="UTF-8" standalone="no"?>
<svg xmlns:xlink="http://www.w3.org/1999/xlink" height="71.55px" width="71.05px" xmlns="http://www.w3.org/2000/svg">
  <g transform="matrix(1.0, 0.0, 0.0, 1.0, 6.7, 6.15)">
    <path d="M49.0 -5.15 Q63.35 -5.15 63.35 9.2 L63.35 50.05 Q63.35 64.4 49.0 64.4 L8.65 64.4 Q-5.7 64.4 -5.7 50.05 L-5.7 9.2 Q-5.7 -5.15 8.65 -5.15 L49.0 -5.15" fill="#cff3e8" fill-rule="evenodd" stroke="none"/>
    <path d="M5.6 38.7 L5.85 38.7 8.9 3.25 50.5 3.25 54.3 56.15 50.5 57.45 Q45.9 58.95 41.65 58.95 L40.35 58.95 Q36.8 58.95 33.5 57.95 L31.45 57.2 31.45 51.85 Q29.7 50.9 27.65 51.85 L27.65 57.45 Q26.4 57.7 25.1 58.2 L24.85 58.2 Q16.0 60.25 7.85 56.7 L7.85 56.45 4.55 54.9 4.3 54.7 5.6 38.7" fill="#560000" fill-rule="evenodd" stroke="none"/>
    <path d="M5.6 38.7 L4.3 54.7 4.55 54.9 7.85 56.45 7.85 56.7 Q16.0 60.25 24.85 58.2 L25.1 58.2 Q26.4 57.7 27.65 57.45 L27.65 51.85 Q29.7 50.9 31.45 51.85 L31.45 57.2 33.5 57.95 Q36.8 58.95 40.35 58.95 L41.65 58.95 Q45.9 58.95 50.5 57.45 L54.3 56.15 50.5 3.25 8.9 3.25 5.85 38.7 5.6 38.7 Z" fill="none" stroke="#202235" stroke-linecap="round" stroke-linejoin="round" stroke-width="0.8"/>
    <path d="M51.25 12.4 L48.75 13.1 47.2 3.25 50.5 3.25 51.25 12.4 M11.9 3.25 L10.4 12.65 Q10.15 12.4 9.9 12.4 L8.1 11.9 8.9 3.25 11.9 3.25" fill="#042772" fill-rule="evenodd" stroke="none"/>
    <path d="M48.75 13.1 L51.25 12.4 52.5 32.9 50.75 33.15 Q50.0 22.5 48.75 13.1 M8.1 11.9 L9.9 12.4 Q10.15 12.4 10.4 12.65 9.4 20.45 8.1 33.4 L6.35 32.9 8.1 11.9" fill="#083593" fill-rule="evenodd" stroke="none"/>
    <path d="M47.2 3.25 L48.75 13.1 Q28.15 17.45 10.4 12.65 L11.9 3.25 47.2 3.25" fill="#09348e" fill-rule="evenodd" stroke="none"/>
    <path d="M7.85 39.2 L7.6 41.2 Q6.1 52.65 7.85 56.45 L4.55 54.9 4.3 54.7 5.6 38.7 7.6 38.95 7.85 39.2 M24.85 58.2 Q25.85 53.65 23.85 48.05 28.9 49.85 34.25 48.3 32.7 52.65 33.5 57.95 L31.45 57.2 31.45 51.85 Q29.7 50.9 27.65 51.85 L27.65 57.45 Q26.4 57.7 25.1 58.2 L24.85 58.2 M50.5 57.45 Q51.75 52.9 51.25 42.25 L51.0 39.2 53.0 38.7 54.3 56.15 50.5 57.45" fill="#700000" fill-rule="evenodd" stroke="none"/>
    <path d="M41.9 40.0 L45.9 39.75 47.7 39.45 48.2 39.45 51.0 39.2 51.25 42.25 Q51.75 52.9 50.5 57.45 45.9 58.95 41.65 58.95 L40.35 58.95 Q36.8 58.95 33.5 57.95 32.7 52.65 34.25 48.3 28.9 49.85 23.85 48.05 25.85 53.65 24.85 58.2 16.0 60.25 7.85 56.7 L7.85 56.45 Q6.1 52.65 7.6 41.2 L7.85 39.2 11.9 39.75 14.2 40.0 18.0 40.25 26.15 40.5 41.65 40.0 41.9 40.0" fill="#990000" fill-rule="evenodd" stroke="none"/>
    <path d="M48.75 13.1 Q50.0 22.5 50.75 33.15 L31.45 34.15 8.1 33.4 Q9.4 20.45 10.4 12.65 28.15 17.45 48.75 13.1" fill="#1447b2" fill-rule="evenodd" stroke="none"/>
    <path d="M41.9 40.0 L41.65 40.0" fill="none" stroke="#e73535" stroke-linecap="round" stroke-linejoin="round" stroke-width="0.2"/>
    <path d="M51.25 32.65 L52.75 32.65 53.25 40.25 51.25 40.5 Q51.75 37.95 51.25 32.65 M7.85 40.25 L5.85 40.0 6.6 32.65 8.35 32.9 Q7.6 36.95 7.85 40.25" fill="#d7c64b" fill-rule="evenodd" stroke="none"/>
    <path d="M47.95 40.75 L46.15 40.95 45.9 33.4 47.45 33.15 47.95 40.75 M14.45 41.2 L12.2 40.95 12.95 33.4 14.45 33.4 Q13.7 38.2 14.45 41.2" fill="#7b0101" fill-rule="evenodd" stroke="none"/>
    <path d="M46.15 40.95 L42.1 41.2 42.1 33.4 45.9 33.4 46.15 40.95 M18.0 41.5 L14.45 41.2 Q13.7 38.2 14.45 33.4 L18.5 33.65 18.0 41.5" fill="#b60d0d" fill-rule="evenodd" stroke="none"/>
    <path d="M51.25 40.5 L48.5 40.75 47.95 40.95 47.95 40.75 47.45 33.15 51.25 32.65 Q51.75 37.95 51.25 40.5 M42.1 41.2 L41.9 41.2 26.4 42.0 18.25 41.75 18.0 41.75 18.0 41.5 18.5 33.65 Q29.95 34.4 42.1 33.4 L42.1 41.2 M12.2 40.95 L8.1 40.5 7.85 40.25 Q7.6 36.95 8.35 32.9 L12.95 33.4 12.2 40.95" fill="#f2f567" fill-rule="evenodd" stroke="none"/>
    <path d="M29.15 36.8 Q28.5 36.2 27.7 36.2 26.85 36.2 26.3 36.8 25.7 37.35 25.7 38.15 25.7 39.0 26.3 39.55 26.85 40.2 27.7 40.2 28.5 40.2 29.15 39.55 29.7 39.0 29.7 38.15 29.7 37.35 29.15 36.8 M24.6 39.45 Q24.6 37.35 26.1 35.85 27.55 34.35 29.7 34.35 31.85 34.35 33.35 35.85 34.85 37.35 34.85 39.45 34.85 41.55 33.35 43.05 31.85 44.55 29.7 44.55 27.55 44.55 26.1 43.05 24.6 41.55 24.6 39.45 M29.25 41.0 Q29.0 40.75 28.55 40.75 L27.85 41.0 Q27.55 41.3 27.55 41.75 27.55 42.15 27.85 42.45 L28.55 42.7 29.25 42.45 29.55 41.75 29.25 41.0" fill="#d7c64b" fill-rule="evenodd" stroke="none"/>
    <path d="M29.15 36.8 Q29.7 37.35 29.7 38.15 29.7 39.0 29.15 39.55 28.5 40.2 27.7 40.2 26.85 40.2 26.3 39.55 25.7 39.0 25.7 38.15 25.7 37.35 26.3 36.8 26.85 36.2 27.7 36.2 28.5 36.2 29.15 36.8 M29.25 41.0 L29.55 41.75 29.25 42.45 28.55 42.7 27.85 42.45 Q27.55 42.15 27.55 41.75 27.55 41.3 27.85 41.0 L28.55 40.75 Q29.0 40.75 29.25 41.0" fill="#f5f7d3" fill-rule="evenodd" stroke="none"/>
    <path d="M24.6 39.45 Q24.6 41.55 26.1 43.05 27.55 44.55 29.7 44.55 31.85 44.55 33.35 43.05 34.85 41.55 34.85 39.45 34.85 37.35 33.35 35.85 31.85 34.35 29.7 34.35 27.55 34.35 26.1 35.85 24.6 37.35 24.6 39.45 M22.95 39.45 Q22.95 36.65 24.95 34.7 26.9 32.8 29.7 32.8 32.45 32.8 34.45 34.7 36.4 36.65 36.4 39.45 36.4 42.25 34.45 44.15 32.45 46.1 29.7 46.1 26.9 46.1 24.95 44.15 22.95 42.25 22.95 39.45" fill="#b8a832" fill-rule="evenodd" stroke="none"/>
    <path d="M23.6 19.5 Q26.15 17.45 29.45 17.45 L30.45 17.45 31.25 15.95 Q31.45 15.4 32.45 15.7 L33.75 15.95 Q35.0 15.15 36.55 14.65 L37.3 15.7 Q36.0 15.95 35.25 16.45 36.0 16.65 36.3 17.15 37.05 17.7 36.8 17.95 L35.75 20.0 Q38.05 22.0 38.05 24.5 38.05 27.55 35.5 29.85 33.0 31.85 29.45 31.85 26.15 31.85 23.6 29.85 21.3 27.55 21.3 24.5 21.3 21.75 23.6 19.5" fill="#f8fa8e" fill-rule="evenodd" stroke="none"/>
    <path d="M23.6 19.5 Q26.15 17.45 29.45 17.45 L30.45 17.45 31.25 15.95 Q31.45 15.4 32.45 15.7 L33.75 15.95 Q35.0 15.15 36.55 14.65 L37.3 15.7 Q36.0 15.95 35.25 16.45 36.0 16.65 36.3 17.15 37.05 17.7 36.8 17.95 L35.75 20.0 Q38.05 22.0 38.05 24.5 38.05 27.55 35.5 29.85 33.0 31.85 29.45 31.85 26.15 31.85 23.6 29.85 21.3 27.55 21.3 24.5 21.3 21.75 23.6 19.5 Z" fill="none" stroke="#d92525" stroke-linecap="round" stroke-linejoin="round" stroke-width="0.2"/>
    <path d="M28.65 23.05 Q29.95 23.05 30.7 22.5 31.25 22.25 31.25 21.75 L31.25 21.5 30.45 21.0 Q29.7 20.45 28.4 20.45 L28.65 23.05 M23.6 19.5 L30.45 19.5 34.5 20.0 35.5 21.0 35.75 21.75 Q35.75 22.75 34.8 23.5 L33.5 24.0 33.75 24.0 34.25 24.25 35.75 24.8 Q36.8 25.55 36.8 27.05 36.8 28.6 35.5 29.35 L35.25 29.85 Q33.5 30.85 29.45 31.1 L24.4 31.1 26.4 30.6 24.6 19.75 23.6 19.5 M30.7 25.8 L29.95 25.8 29.15 25.8 28.4 26.05 28.15 29.1 30.2 27.55 Q30.95 27.05 30.95 26.3 L30.7 25.8" fill="#d92525" fill-rule="evenodd" stroke="none"/>
    <path d="M49.0 -5.15 Q63.35 -5.15 63.35 9.2 L63.35 50.05 Q63.35 64.4 49.0 64.4 L8.65 64.4 Q-5.7 64.4 -5.7 50.05 L-5.7 9.2 Q-5.7 -5.15 8.65 -5.15 L49.0 -5.15" fill="#000000" fill-opacity="0.29803923" fill-rule="evenodd" stroke="none"/>
    <path d="M49.0 -5.15 L8.65 -5.15 Q-5.7 -5.15 -5.7 9.2 L-5.7 50.05 Q-5.7 64.4 8.65 64.4 L49.0 64.4 Q63.35 64.4 63.35 50.05 L63.35 9.2 Q63.35 -5.15 49.0 -5.15 Z" fill="none" stroke="#666666" stroke-linecap="round" stroke-linejoin="round" stroke-opacity="0.9019608" stroke-width="2.0"/>
  </g>
</svg>
