<?xml version="1.0" encoding="UTF-8" standalone="no"?>
<svg xmlns:xlink="http://www.w3.org/1999/xlink" height="58.75px" width="51.85px" xmlns="http://www.w3.org/2000/svg">
  <g transform="matrix(1.0, 0.0, 0.0, 1.0, -7.2, -6.55)">
    <path d="M55.75 10.1 L57.2 41.2 56.95 41.4 57.65 53.85 57.65 55.3 58.65 55.4 58.65 57.45 58.65 61.85 58.65 62.6 Q56.25 63.1 55.0 63.55 L53.35 63.85 51.35 64.05 49.95 64.25 Q45.3 64.75 40.0 64.5 L39.2 64.25 35.1 63.85 34.85 61.85 34.35 58.95 34.1 57.0 33.65 59.45 33.35 61.85 33.15 63.85 Q32.15 64.5 29.05 64.75 L28.8 64.75 Q21.95 65.05 13.0 63.55 L11.25 63.3 Q8.85 62.85 7.6 62.1 L7.6 61.85 8.35 57.25 8.6 55.55 9.6 55.55 9.6 53.85 10.0 49.25 11.0 41.95 10.8 41.95 13.45 11.55 13.2 9.15 Q13.2 7.9 19.8 7.4 L32.15 6.95 33.15 6.95 34.1 6.95 51.35 8.15 Q55.55 8.85 55.75 10.1 M35.8 44.05 L34.85 43.9 35.1 44.05 35.8 44.05" fill="#3b77b8" fill-rule="evenodd" stroke="none"/>
    <path d="M55.75 10.1 Q55.55 8.85 51.35 8.15 L34.1 6.95 33.15 6.95 32.15 6.95 19.8 7.4 Q13.2 7.9 13.2 9.15 L13.45 11.55 10.8 41.95 11.0 41.95 10.0 49.25 9.6 53.85 9.6 55.55 8.6 55.55 8.35 57.25 7.6 61.85 7.6 62.1 Q8.85 62.85 11.25 63.3 L13.0 63.55 Q21.95 65.05 28.8 64.75 L29.05 64.75 Q32.15 64.5 33.15 63.85 L33.35 61.85 33.65 59.45 34.1 57.0 34.35 58.95 34.85 61.85 35.1 63.85 39.2 64.25 40.0 64.5 Q45.3 64.75 49.95 64.25 L51.35 64.05 53.35 63.85 55.0 63.55 Q56.25 63.1 58.65 62.6 L58.65 61.85 58.65 57.45 58.65 55.4 57.65 55.3 57.65 53.85 56.95 41.4 57.2 41.2 55.75 10.1 Z" fill="none" stroke="#283757" stroke-linecap="round" stroke-linejoin="round" stroke-width="0.8"/>
    <path d="M53.6 41.65 Q54.55 41.2 57.0 40.75 L57.7 54.1 57.7 55.8 53.15 57.0 53.6 58.95 58.7 57.95 58.7 62.1 58.7 62.85 55.05 63.85 53.35 64.05 53.6 62.1 Q53.8 60.65 53.6 58.95 L37.55 59.45 Q37.55 61.6 38.05 62.6 38.25 63.55 39.25 64.75 L35.15 64.05 34.9 62.1 34.4 59.2 37.55 59.45 37.3 57.45 34.15 57.45 30.75 57.75 30.5 59.9 33.65 59.65 33.4 62.1 33.15 64.25 Q32.25 65.05 29.05 65.25 L30.0 62.6 Q30.5 61.1 30.5 59.9 L13.0 58.95 Q12.5 60.4 12.8 62.1 L13.0 63.85 11.3 63.55 Q8.85 63.1 7.65 62.3 L7.65 62.1 8.4 57.75 Q10.6 58.2 13.0 58.95 13.45 57.75 14.0 57.0 L9.6 55.8 9.6 54.1 10.05 49.45 11.05 41.4 14.45 41.95 Q13.0 50.2 13.45 54.1 14.0 56.75 15.15 57.0 15.7 57.0 15.95 57.25 L30.75 57.75 30.0 54.3 Q31.7 55.0 34.15 55.0 L37.8 54.55 Q37.3 56.25 37.3 57.45 L45.35 57.75 51.9 57.25 52.85 57.0 Q53.6 55.8 54.05 54.1 54.8 49.95 53.6 41.65" fill="#2774b4" fill-rule="evenodd" stroke="none"/>
    <path d="M35.15 44.35 L45.1 43.65 Q49.2 43.15 53.6 41.65 54.8 49.95 54.05 54.1 53.6 55.8 52.85 57.0 L51.9 57.25 45.35 57.75 37.3 57.45 Q37.3 56.25 37.8 54.55 L34.15 55.0 Q31.7 55.0 30.0 54.3 L30.75 57.75 15.95 57.25 Q15.7 57.0 15.15 57.0 14.0 56.75 13.45 54.1 13.0 50.2 14.45 41.95 22.45 44.05 30.75 44.05 L30.75 50.2 Q30.75 52.6 31.5 53.35 31.7 53.85 32.7 54.1 33.4 54.3 34.15 54.1 L35.15 54.1 35.15 44.35 M53.35 64.05 L49.95 64.5 Q45.35 65.25 39.95 64.75 L39.25 64.75 Q38.25 63.55 38.05 62.6 37.55 61.6 37.55 59.45 L53.6 58.95 Q53.8 60.65 53.6 62.1 L53.35 64.05 M29.05 65.25 L28.85 65.25 Q22.0 65.5 13.0 63.85 L12.8 62.1 Q12.5 60.4 13.0 58.95 L30.5 59.9 Q30.5 61.1 30.0 62.6 L29.05 65.25" fill="#3f96f5" fill-rule="evenodd" stroke="none"/>
    <path d="M30.75 44.05 L35.15 44.35 35.15 54.1 34.15 54.1 Q33.4 54.3 32.7 54.1 31.7 53.85 31.5 53.35 30.75 52.6 30.75 50.2 L30.75 44.05" fill="#307fc2" fill-rule="evenodd" stroke="none"/>
    <path d="M57.7 55.8 Q58.7 56.0 58.7 55.8 L58.7 57.95 53.6 58.95 53.15 57.0 57.7 55.8 M34.4 59.2 L34.15 57.45 33.65 59.65 30.5 59.9 30.75 57.75 34.15 57.45 37.3 57.45 37.55 59.45 34.4 59.2 M8.4 57.75 L8.65 55.8 9.6 55.8 14.0 57.0 Q13.45 57.75 13.0 58.95 10.6 58.2 8.4 57.75" fill="#165d98" fill-rule="evenodd" stroke="none"/>
    <path d="M55.8 10.35 L55.8 11.8 53.35 14.0 Q46.1 19.8 38.55 20.75 L38.25 20.55 38.05 20.55 Q37.8 20.55 37.8 20.75 L37.8 21.0 Q26.85 22.5 15.95 13.75 L15.15 13.25 14.95 13.0 13.45 11.55 13.25 9.35 Q13.25 9.15 14.0 8.6 19.1 14.0 26.1 16.9 33.9 20.1 42.45 16.9 50.15 14.2 55.8 10.35" fill="#5798de" fill-rule="evenodd" stroke="none"/>
    <path d="M55.8 10.35 Q50.15 14.2 42.45 16.9 33.9 20.1 26.1 16.9 19.1 14.0 14.0 8.6 L19.8 7.6 24.95 7.2 32.25 7.2 33.15 7.2 34.15 7.2 44.35 7.6 Q55.3 8.4 55.8 10.35" fill="#4a86c6" fill-rule="evenodd" stroke="none"/>
    <path d="M13.45 11.55 L14.95 13.0 15.15 13.25 15.95 13.75 Q13.7 34.35 14.45 40.25 L13.45 40.0 11.05 39.5 13.45 11.55 M37.8 21.0 L37.8 20.75 Q37.8 20.55 38.05 20.55 L38.25 20.55 38.55 20.75 38.25 21.25 37.8 21.0 M53.35 14.0 L55.8 11.8 57.25 39.25 53.6 40.0 Q55.05 30.5 53.35 14.0" fill="#73aae5" fill-rule="evenodd" stroke="none"/>
    <path d="M57.25 39.25 L57.25 41.65 53.8 42.65 Q46.1 44.35 36.35 44.35 L33.9 44.35 30.5 44.35 14.45 42.9 13.7 42.9 10.8 42.2 11.05 39.5 13.45 40.0 14.45 40.25 Q33.65 43.4 53.6 40.0 L57.25 39.25" fill="#b0d3fa" fill-rule="evenodd" stroke="none"/>
    <path d="M15.95 13.75 Q26.85 22.5 37.8 21.0 L38.25 21.25 38.55 20.75 Q46.1 19.8 53.35 14.0 55.05 30.5 53.6 40.0 33.65 43.4 14.45 40.25 13.7 34.35 15.95 13.75" fill="#92c5fc" fill-rule="evenodd" stroke="none"/>
    <path d="M17.1 40.25 L14.95 40.25 21.55 25.85 45.85 26.4 51.4 40.25 49.75 40.25 43.6 28.05 23.95 27.4 17.1 40.25" fill="#b0d3fa" fill-rule="evenodd" stroke="none"/>
    <path d="M17.1 40.25 L23.95 27.4 43.6 28.05 49.75 40.25 32.95 41.4 17.1 40.25" fill="#6ca7e7" fill-rule="evenodd" stroke="none"/>
    <path d="M40.85 32.4 Q40.9 33.2 39.5 34.1 L36.95 35.5 38.3 37.65 Q39.45 40.0 38.65 40.65 37.85 41.3 35.9 39.6 L34.1 37.65 32.45 39.6 Q30.65 41.35 29.65 40.85 28.75 40.35 29.8 37.9 L31.05 35.6 28.8 34.55 Q26.55 33.35 26.7 32.45 26.85 31.6 29.5 31.8 L32.15 32.2 32.45 30.2 Q32.95 28.15 33.75 28.15 34.6 28.1 35.25 30.1 L35.7 32.1 38.4 31.65 Q40.8 31.55 40.85 32.4" fill="#d8de67" fill-rule="evenodd" stroke="none"/>
  </g>
</svg>
