<?xml version="1.0" encoding="UTF-8" standalone="no"?>
<svg xmlns:xlink="http://www.w3.org/1999/xlink" height="62.6px" width="55.0px" xmlns="http://www.w3.org/2000/svg">
  <g transform="matrix(1.0, 0.0, 0.0, 1.0, 2.0, 1.75)">
    <path d="M12.5 58.75 L11.3 58.4 11.35 58.3 11.25 58.3 8.3 57.3 8.95 54.4 7.8 57.05 6.75 56.65 6.25 56.45 6.2 56.55 5.7 56.35 5.75 56.25 5.65 56.2 2.35 54.65 2.3 54.75 1.6 54.3 1.65 54.25 1.55 54.2 0.05 53.4 0.0 53.45 -1.1 52.85 -1.5 52.6 -1.45 52.55 -1.6 52.45 7.85 39.6 8.0 37.75 8.1 37.8 8.4 35.8 7.8 35.25 Q6.75 34.25 6.2 33.05 5.2 31.15 5.2 28.85 5.2 27.6 5.55 26.4 L5.55 26.35 Q5.85 25.25 6.5 24.3 7.0 23.4 7.8 22.6 8.9 21.5 10.25 20.85 L10.8 17.0 11.45 11.75 39.25 12.05 39.9 16.95 40.45 21.05 42.75 22.75 Q42.9 22.8 43.05 23.0 L44.65 25.3 Q45.5 27.0 45.5 29.0 45.5 31.1 44.65 32.85 43.95 34.25 42.75 35.4 L42.35 35.8 42.75 39.5 42.7 39.55 42.7 39.6 52.6 51.3 49.1 53.65 49.05 53.7 49.15 53.75 48.95 53.9 48.3 54.25 48.25 54.1 Q45.65 55.65 42.8 56.75 L41.3 52.95 41.75 57.25 41.7 57.25 36.75 58.85 36.8 58.95 35.75 59.2 35.75 59.1 35.7 59.05 30.9 59.9 30.85 54.55 30.45 60.0 30.35 60.0 30.2 60.0 26.7 60.25 23.2 60.25 23.2 60.45 22.1 60.3 22.15 60.2 22.05 60.2 20.6 60.05 20.6 60.2 19.25 60.05 19.3 60.0 19.25 59.95 13.6 58.9 13.6 59.0 12.5 58.75 12.6 58.6 12.5 58.6 12.5 58.75" fill="#723710" fill-rule="evenodd" stroke="none"/>
    <path d="M12.5 58.75 L13.6 59.0 13.6 58.9 19.25 59.95 19.3 60.0 19.25 60.05 20.6 60.2 20.6 60.05 22.05 60.2 22.15 60.2 22.1 60.3 23.2 60.45 23.2 60.25 26.7 60.25 30.2 60.0 30.35 60.0 30.45 60.0 30.85 54.55 30.9 59.9 35.7 59.05 35.75 59.1 35.75 59.2 36.8 58.95 36.75 58.85 41.7 57.25 41.75 57.25 41.3 52.95 42.8 56.75 Q45.65 55.65 48.25 54.1 L48.3 54.25 48.95 53.9 49.15 53.75 49.05 53.7 49.1 53.65 52.6 51.3 42.7 39.6 42.7 39.55 42.75 39.5 42.35 35.8 42.75 35.4 Q43.95 34.25 44.65 32.85 45.5 31.1 45.5 29.0 45.5 27.0 44.65 25.3 L43.05 23.0 Q42.9 22.8 42.75 22.75 L40.45 21.05 39.9 16.95 39.25 12.05 11.45 11.75 10.8 17.0 10.25 20.85 Q8.9 21.5 7.8 22.6 7.0 23.4 6.5 24.3 5.85 25.25 5.55 26.35 L5.55 26.4 Q5.2 27.6 5.2 28.85 5.2 31.15 6.2 33.05 6.75 34.25 7.8 35.25 L8.4 35.8 8.1 37.8 8.0 37.75 7.85 39.6 -1.6 52.45 -1.45 52.55 -1.5 52.6 -1.1 52.85 0.0 53.45 0.05 53.4 1.55 54.2 1.65 54.25 1.6 54.3 2.3 54.75 2.35 54.65 5.65 56.2 5.75 56.25 5.7 56.35 6.2 56.55 6.25 56.45 6.75 56.65 7.8 57.05 8.95 54.4 8.3 57.3 11.25 58.3 11.35 58.3 11.3 58.4 12.5 58.75 Z" fill="none" stroke="#830645" stroke-linecap="round" stroke-linejoin="round" stroke-width="0.8"/>
    <path d="M39.9 16.95 L42.75 39.5 40.65 40.0 39.1 40.45 39.0 40.45 34.2 41.25 29.25 41.65 17.1 41.2 14.75 40.85 13.1 40.65 12.15 40.45 10.35 40.15 7.9 39.55 10.8 17.0 Q26.0 23.85 39.9 16.95" fill="#c8c8c8" fill-rule="evenodd" stroke="none"/>
    <path d="M39.9 16.95 Q26.0 23.85 10.8 17.0 L11.45 11.75 39.25 12.05 39.9 16.95" fill="#a2a2a2" fill-rule="evenodd" stroke="none"/>
    <path d="M44.1 30.5 Q44.0 32.35 43.3 33.9 42.6 35.3 41.45 36.4 38.85 39.05 35.2 39.0 31.4 39.0 28.9 36.4 27.9 35.4 27.25 34.2 26.25 32.35 26.25 30.1 L24.45 30.1 24.45 30.4 Q24.4 32.25 23.65 33.8 23.0 35.25 21.8 36.35 19.25 38.95 15.5 38.95 11.8 38.9 9.2 36.35 8.2 35.3 7.55 34.1 6.6 32.25 6.6 30.0 6.6 28.7 6.95 27.5 L6.95 27.45 7.55 26.45 7.6 26.05 7.85 25.4 9.2 23.7 Q11.8 21.15 15.5 21.15 19.25 21.15 21.8 23.75 L22.0 24.05 Q23.05 25.1 23.65 26.3 L24.1 27.65 26.6 27.6 26.6 27.55 27.2 26.6 27.3 26.1 27.55 25.45 28.9 23.8 Q31.4 21.2 35.2 21.2 38.85 21.25 41.45 23.85 L41.7 24.1 Q42.7 25.2 43.3 26.4 L44.0 28.75 44.1 30.15 44.1 30.5" fill="#a2a2a2" fill-rule="evenodd" stroke="none"/>
    <path d="M40.95 25.25 L41.0 25.2 41.0 25.15 41.4 23.95 41.0 23.35 Q40.55 22.95 39.5 22.55 L35.2 22.35 35.2 23.45 35.35 25.35 Q34.25 22.5 33.65 22.5 33.05 22.5 31.65 23.85 30.2 25.25 29.8 26.2 L30.5 26.35 30.95 26.55 31.15 26.55 31.15 26.65 30.3 26.9 29.65 27.4 29.75 27.4 29.75 27.45 30.95 27.6 30.7 27.7 Q30.55 27.7 30.3 27.85 L29.5 27.9 Q28.8 30.1 30.35 32.5 L30.95 32.55 Q31.25 32.25 31.95 32.15 L32.9 32.0 32.5 32.55 32.1 32.9 31.8 33.15 31.55 33.4 31.4 33.55 Q31.7 34.7 33.4 35.5 34.9 36.15 36.5 36.15 39.2 36.15 40.9 34.7 L42.2 33.25 42.25 33.15 43.05 31.2 43.05 31.05 Q43.25 28.95 43.05 28.6 L43.05 28.5 Q42.6 28.15 41.2 27.8 L41.25 27.7 41.9 27.6 42.55 27.45 Q43.05 26.65 41.9 25.1 L40.35 26.15 40.9 25.35 40.95 25.25 M30.95 22.6 L31.1 22.55 31.9 23.3 31.9 23.25 31.55 22.05 31.95 22.45 Q31.9 21.6 34.1 21.1 L37.4 20.75 38.2 20.9 38.5 21.85 38.45 20.85 40.45 21.6 Q42.2 22.4 42.2 23.3 L42.05 23.85 41.7 24.55 42.2 24.3 42.55 24.1 42.55 24.15 41.6 25.15 43.3 24.55 43.3 24.6 42.55 25.25 42.6 25.25 43.75 24.7 Q44.25 24.75 44.65 26.3 L44.85 28.3 44.75 28.85 44.8 29.6 44.6 30.25 44.2 30.65 44.4 30.6 44.7 30.6 43.85 33.4 Q43.2 34.85 41.95 35.4 L41.6 35.05 Q41.9 35.7 41.05 36.3 L39.7 37.0 Q38.45 37.75 36.85 37.7 L35.15 37.4 33.0 36.9 32.8 36.25 32.25 36.4 Q31.5 36.4 30.2 34.8 28.85 33.2 28.85 32.05 L29.1 31.35 Q28.4 31.2 28.4 30.8 L28.25 29.6 Q28.25 26.45 29.05 26.35 L29.0 26.35 28.6 25.95 28.35 25.7 28.4 25.45 29.35 24.2 Q30.35 22.9 30.85 22.7 L30.55 23.25 30.35 23.45 29.8 24.4 29.9 25.2 30.6 23.85 31.1 23.0 30.95 22.6 M5.55 26.35 Q5.85 25.3 6.45 24.45 L6.2 24.95 6.15 25.35 7.0 24.15 Q8.0 22.8 8.55 22.55 L8.25 23.1 8.0 23.35 7.45 24.4 7.6 25.2 Q7.8 24.65 8.35 23.8 L8.75 22.95 8.65 22.5 8.75 22.5 9.55 23.25 9.55 23.05 9.25 21.95 9.6 22.35 Q9.55 21.4 11.8 21.0 L15.15 20.55 Q15.7 20.55 15.9 20.8 L16.25 21.75 16.15 20.8 18.1 21.55 Q19.85 22.35 19.85 23.25 L19.75 23.8 19.4 24.45 19.85 24.2 20.25 24.05 19.3 25.05 21.05 24.45 21.05 24.5 20.3 25.2 21.4 24.65 Q21.95 24.65 22.25 26.25 L22.5 28.15 22.45 28.75 22.5 29.55 22.25 30.1 21.95 30.55 22.05 30.5 22.4 30.5 21.45 33.35 Q20.9 34.75 19.65 35.3 L19.3 34.95 Q19.6 35.6 18.75 36.2 L17.35 36.9 Q16.15 37.65 14.6 37.65 L12.85 37.4 10.65 36.8 10.45 36.15 Q10.35 36.35 10.0 36.35 9.2 36.35 7.85 34.75 6.55 33.1 6.55 32.0 L6.75 31.3 Q6.1 31.15 6.1 30.65 L5.95 29.55 Q5.95 26.4 6.75 26.3 6.6 26.05 6.25 25.85 L6.05 25.6 6.15 25.35 5.55 26.35 M27.95 26.4 Q28.15 25.4 28.7 24.65 L28.55 25.05 28.4 25.45 27.95 26.4 M43.85 27.55 L43.9 27.6 Q43.6 27.5 43.6 26.7 L43.1 26.6 43.1 26.65 43.45 27.5 43.05 27.8 Q43.35 27.7 43.65 28.5 L44.0 29.55 43.9 30.0 43.8 30.3 43.9 30.5 44.4 30.1 44.4 28.7 Q44.4 27.8 43.85 27.55 M18.7 23.3 Q18.2 22.85 17.15 22.5 15.2 21.7 12.95 22.2 L12.95 23.35 13.0 25.25 Q11.95 22.4 11.35 22.4 10.8 22.4 9.35 23.8 7.85 25.2 7.55 26.1 L8.2 26.3 8.65 26.4 8.85 26.4 8.85 26.55 7.95 26.85 7.35 27.25 7.45 27.3 7.45 27.4 8.65 27.5 8.4 27.6 7.95 27.75 7.15 27.85 Q6.5 30.05 8.0 32.35 L8.65 32.35 9.6 32.05 10.55 31.95 10.25 32.4 9.75 32.8 9.45 33.05 9.25 33.25 9.05 33.45 Q9.45 34.6 11.15 35.4 12.65 36.1 14.2 36.1 16.9 36.1 18.6 34.6 L19.85 33.15 19.95 33.1 Q20.55 32.2 20.65 31.15 L20.7 30.95 20.75 28.5 20.65 28.4 18.85 27.7 18.95 27.65 19.6 27.5 20.3 27.4 Q20.7 26.6 19.6 25.05 L17.95 26.05 18.6 25.25 18.7 25.05 19.05 23.85 18.7 23.3 M12.3 36.8 L11.9 36.6 Q12.2 37.15 12.8 37.15 L13.3 37.15 13.5 37.4 13.55 37.4 13.9 37.0 14.35 36.95 15.25 37.1 16.25 36.9 16.8 36.3 16.8 36.25 16.2 36.55 15.55 36.8 14.95 36.6 14.6 36.6 14.4 36.5 13.95 36.6 13.55 36.9 13.4 36.5 12.75 36.95 12.3 36.8 M6.6 27.1 Q6.65 27.7 6.35 28.05 L6.25 28.15 6.0 28.75 6.6 29.8 6.6 28.75 6.4 28.5 6.7 27.95 6.95 27.5 6.6 27.1 M34.65 36.9 L34.15 36.65 Q34.55 37.25 35.1 37.25 L35.55 37.2 35.75 37.4 35.85 37.4 36.25 37.1 36.65 37.05 37.55 37.15 38.5 37.0 39.05 36.4 39.05 36.35 38.45 36.6 37.9 36.9 37.25 36.75 36.85 36.6 36.7 36.6 Q36.55 36.6 36.3 36.75 35.9 36.9 35.85 36.95 L35.7 36.6 35.05 37.05 34.65 36.9 M28.9 27.15 L28.7 28.15 28.6 28.3 28.3 28.8 28.9 29.85 28.9 28.8 28.75 28.6 28.95 28.05 29.2 27.6 28.9 27.15 M20.8 26.45 L20.8 26.6 21.15 27.45 20.7 27.7 Q21.05 27.65 21.4 28.4 L21.65 29.5 21.55 29.85 21.45 30.2 21.6 30.4 22.15 30.0 22.15 28.55 Q22.1 27.7 21.5 27.45 L21.55 27.5 Q21.35 27.4 21.35 26.65 21.0 26.4 20.8 26.45" fill="#743f1d" fill-rule="evenodd" stroke="none"/>
    <path d="M30.95 26.55 L30.5 26.35 29.8 26.2 Q30.2 25.25 31.65 23.85 33.05 22.5 33.65 22.5 34.25 22.5 35.35 25.35 L35.2 23.45 35.2 22.35 39.5 22.55 Q40.55 22.95 41.0 23.35 L41.4 23.95 41.0 25.15 41.0 25.2 40.95 25.25 39.85 26.3 40.25 25.45 40.8 24.7 40.75 24.7 40.35 25.2 40.75 23.9 40.65 23.7 40.5 23.6 Q40.7 23.4 41.0 23.35 L40.9 23.35 40.2 23.6 39.8 24.15 39.8 23.8 39.75 23.8 39.55 24.15 39.35 24.6 39.4 23.3 39.05 23.8 Q39.35 23.05 38.35 22.75 L36.65 22.5 36.35 22.75 36.0 23.05 35.9 22.9 35.55 22.9 35.55 23.25 35.65 24.5 35.2 25.8 34.65 24.4 Q34.2 23.3 33.9 23.3 L33.7 23.45 33.6 23.6 33.3 23.3 32.3 23.8 Q31.45 24.4 31.45 24.7 31.45 25.35 32.0 26.0 L31.55 25.7 31.15 25.45 31.15 25.5 31.25 25.85 30.35 25.9 Q30.45 26.2 30.7 26.3 L30.95 26.55 M18.7 23.3 L18.6 23.3 Q18.2 23.3 17.9 23.6 L17.55 24.1 17.55 23.7 17.4 23.7 17.2 24.1 17.05 24.5 17.1 23.2 16.8 23.7 Q17.05 23.0 16.05 22.65 L14.35 22.45 14.1 22.65 13.7 23.0 13.6 22.8 13.3 22.8 13.3 23.1 13.35 24.4 12.9 25.75 12.4 24.3 Q11.9 23.25 11.65 23.25 L11.4 23.35 11.3 23.55 11.1 23.2 Q10.75 23.3 10.0 23.7 9.2 24.25 9.2 24.65 9.2 25.2 9.7 25.9 L9.25 25.5 8.8 25.35 8.8 25.45 8.9 25.75 8.05 25.85 8.4 26.25 8.65 26.4 8.2 26.3 7.55 26.1 Q7.85 25.2 9.35 23.8 10.8 22.4 11.35 22.4 11.95 22.4 13.0 25.25 L12.95 23.35 12.95 22.2 Q15.2 21.7 17.15 22.5 18.2 22.85 18.7 23.3 L19.05 23.85 18.7 25.05 17.6 26.25 Q17.6 25.85 17.95 25.4 L18.5 24.65 18.45 24.65 18.0 25.15 18.45 23.85 18.4 23.6 18.15 23.5 18.7 23.3" fill="#8c4e27" fill-rule="evenodd" stroke="none"/>
    <path d="M40.95 25.25 L40.9 25.35 40.35 26.15 41.9 25.1 Q43.05 26.65 42.55 27.45 L41.9 27.6 41.25 27.7 41.2 27.8 Q42.6 28.15 43.05 28.5 L43.05 28.6 Q43.25 28.95 43.05 31.05 L43.05 31.2 42.25 33.15 42.2 33.25 40.05 34.9 39.85 34.4 39.8 34.4 Q40.05 35.1 39.1 35.45 L37.4 35.7 36.8 35.55 36.55 35.05 36.55 35.15 36.75 35.8 35.2 35.6 Q34.35 35.4 34.6 34.6 L34.55 34.6 34.45 35.05 34.2 35.35 34.25 33.1 34.2 33.1 Q33.65 34.8 33.75 35.1 L32.75 34.5 31.9 33.75 31.7 33.65 31.55 33.4 31.8 33.15 32.1 32.9 32.5 32.55 32.9 32.0 32.1 31.95 30.85 32.1 30.5 31.95 Q30.35 31.75 30.35 31.55 L30.75 31.3 30.2 30.95 30.05 30.4 Q30.05 30.2 30.6 30.0 L31.25 29.8 30.85 29.8 29.9 29.85 29.9 29.8 30.3 29.55 29.8 29.65 29.7 28.75 Q29.7 28.25 30.0 28.1 L30.7 27.7 30.95 27.6 29.75 27.45 29.75 27.4 29.65 27.4 30.3 26.9 31.15 26.65 31.15 26.55 30.95 26.55 30.7 26.3 Q30.45 26.2 30.35 25.9 L31.25 25.85 31.15 25.5 31.15 25.45 31.55 25.7 32.0 26.0 Q31.45 25.35 31.45 24.7 31.45 24.4 32.3 23.8 L33.3 23.3 33.6 23.6 33.7 23.45 33.9 23.3 Q34.2 23.3 34.65 24.4 L35.2 25.8 35.65 24.5 35.55 23.25 35.55 22.9 35.9 22.9 36.0 23.05 36.35 22.75 36.65 22.5 38.35 22.75 Q39.35 23.05 39.05 23.8 L39.4 23.3 39.35 24.6 39.55 24.15 39.75 23.8 39.8 23.8 39.8 24.15 40.2 23.6 40.9 23.35 41.0 23.35 Q40.7 23.4 40.5 23.6 L40.65 23.7 40.75 23.9 40.35 25.2 40.75 24.7 40.8 24.7 40.25 25.45 39.85 26.3 40.95 25.25 M41.7 28.5 L41.65 28.5 41.0 28.05 41.45 28.65 41.4 28.65 41.1 28.5 40.8 28.45 40.85 28.45 41.95 29.75 Q41.75 29.8 41.7 30.1 L42.2 30.3 42.45 30.65 42.5 29.4 Q42.45 28.8 41.8 28.55 L41.7 28.5 M38.25 31.85 Q37.9 32.25 37.0 32.55 36.4 32.75 36.25 33.15 L36.05 33.85 Q36.15 34.95 37.85 34.9 39.15 34.8 40.2 33.6 L40.55 33.15 40.75 32.55 40.9 31.35 Q41.0 30.3 40.6 29.5 L40.15 29.1 39.8 28.95 39.7 28.95 39.65 28.95 39.55 28.95 38.75 27.5 38.35 27.15 38.35 27.1 37.05 26.55 Q36.25 26.7 35.55 27.1 34.35 27.9 34.35 29.0 L34.35 29.15 34.55 30.2 34.25 30.4 34.0 31.0 34.05 31.2 34.25 31.7 Q34.6 32.0 34.95 32.0 L35.75 31.75 36.8 32.0 38.25 31.85 M37.4 23.8 L37.3 24.05 37.2 24.2 37.0 24.8 38.05 24.9 38.75 25.6 38.85 25.7 39.05 25.05 38.85 24.55 38.45 24.2 37.6 24.4 37.55 24.25 37.85 23.6 37.65 23.6 37.4 23.8 M8.65 26.4 L8.4 26.25 8.05 25.85 8.9 25.75 8.8 25.45 8.8 25.35 9.25 25.5 9.7 25.9 Q9.2 25.2 9.2 24.65 9.2 24.25 10.0 23.7 10.75 23.3 11.1 23.2 L11.3 23.55 11.4 23.35 11.65 23.25 Q11.9 23.25 12.4 24.3 L12.9 25.75 13.35 24.4 13.3 23.1 13.3 22.8 13.6 22.8 13.7 23.0 14.1 22.65 14.35 22.45 16.05 22.65 Q17.05 23.0 16.8 23.7 L17.1 23.2 17.05 24.5 17.2 24.1 17.4 23.7 17.55 23.7 17.55 24.1 17.9 23.6 Q18.2 23.3 18.6 23.3 L18.7 23.3 18.15 23.5 18.4 23.6 18.45 23.85 18.0 25.15 18.45 24.65 18.5 24.65 17.95 25.4 Q17.6 25.85 17.6 26.25 L18.7 25.05 18.6 25.25 17.95 26.05 19.6 25.05 Q20.7 26.6 20.3 27.4 L19.6 27.5 18.95 27.65 18.85 27.7 20.65 28.4 20.75 28.5 20.7 30.95 20.65 31.15 Q20.55 32.2 19.95 33.1 L19.85 33.15 Q19.25 33.85 17.75 34.8 L17.6 34.3 17.5 34.3 Q17.8 34.95 16.8 35.35 L15.15 35.55 14.55 35.45 14.3 34.95 14.3 35.05 14.45 35.7 12.9 35.55 Q12.1 35.35 12.25 34.55 L12.2 34.55 12.15 34.95 11.9 35.25 11.95 33.0 11.9 33.05 Q11.35 34.75 11.45 34.95 L10.4 34.45 9.55 33.65 9.45 33.55 9.25 33.25 9.45 33.05 9.75 32.8 10.25 32.4 10.55 31.95 10.55 31.9 9.75 31.85 8.55 32.0 8.2 31.85 8.0 31.45 8.45 31.2 Q8.1 31.2 7.85 30.9 L7.75 30.35 8.35 29.85 8.9 29.7 8.6 29.7 7.6 29.8 7.6 29.75 Q7.85 29.5 8.1 29.5 L7.95 29.5 7.5 29.55 7.4 28.7 Q7.4 28.15 7.65 28.0 L8.4 27.6 8.65 27.5 7.45 27.4 7.45 27.3 7.35 27.25 7.95 26.85 8.85 26.55 8.85 26.4 8.65 26.4 M11.45 24.65 L11.45 25.6 Q11.4 25.9 11.7 26.0 12.0 26.05 12.0 26.2 L12.15 26.1 12.15 26.0 12.0 25.05 11.8 24.7 11.45 24.65 M14.65 24.7 Q15.2 24.5 15.7 24.7 L16.45 25.45 16.5 25.5 16.8 24.95 16.5 24.4 16.15 24.1 15.3 24.3 15.25 24.15 15.5 23.5 15.4 23.45 15.15 23.65 15.0 23.9 14.85 24.15 14.65 24.7 M16.0 31.55 L16.0 31.7 14.65 32.5 Q14.1 32.65 13.9 33.1 13.75 33.4 13.75 33.75 13.8 34.9 15.5 34.75 16.85 34.7 17.9 33.5 L18.2 33.1 18.45 32.5 18.65 31.3 Q18.7 30.2 18.25 29.4 L17.85 29.0 Q17.85 28.95 17.5 28.85 L17.2 28.85 Q17.05 28.0 16.45 27.4 15.7 26.65 14.7 26.4 13.9 26.6 13.3 27.05 12.1 27.8 12.05 28.95 L12.05 29.0 12.2 30.1 11.9 30.35 11.7 30.95 11.7 31.1 11.95 31.55 Q12.25 31.95 12.7 31.95 13.25 31.95 13.5 31.65 L14.5 31.95 Q15.35 31.95 16.0 31.55 M19.2 28.55 L19.05 28.55 18.8 28.45 18.5 28.35 18.55 28.35 19.65 29.7 19.4 30.0 19.85 30.2 20.15 30.6 20.2 29.3 Q20.15 28.75 19.5 28.5 L19.45 28.5 19.4 28.45 19.35 28.45 18.7 27.95 19.2 28.55 M11.05 27.9 L10.45 28.1 10.15 28.0 9.8 27.9 9.5 28.25 9.45 28.55 8.85 29.0 Q8.85 29.4 9.15 29.85 9.75 28.85 11.1 28.05 L11.1 28.0 11.05 27.9 M13.15 33.65 L12.7 33.1 12.5 32.85 12.5 33.6 Q12.5 33.75 12.8 33.75 L13.15 33.65 M34.3 25.15 L34.1 24.8 33.75 24.7 33.75 25.75 Q33.7 26.0 34.0 26.05 L34.3 26.3 34.5 26.2 34.5 26.05 34.3 25.15 M31.4 30.05 Q32.1 29.0 33.4 28.15 L33.4 28.05 33.3 28.0 32.8 28.15 32.45 28.1 32.2 28.0 31.8 28.4 31.7 28.7 31.15 29.1 31.4 30.05 M35.1 33.8 L35.5 33.75 35.05 33.15 34.85 32.95 34.85 33.65 35.1 33.8" fill="#a36f3c" fill-rule="evenodd" stroke="none"/>
    <path d="M30.85 22.7 Q30.35 22.9 29.35 24.2 L28.4 25.45 28.35 25.7 28.6 25.95 29.0 26.35 29.05 26.35 Q28.25 26.45 28.25 29.6 L28.4 30.8 Q28.4 31.2 29.1 31.35 L28.85 32.05 Q28.85 33.2 30.2 34.8 31.5 36.4 32.25 36.4 L32.8 36.25 33.0 36.9 35.15 37.4 36.85 37.7 Q38.45 37.75 39.7 37.0 L41.05 36.3 Q41.9 35.7 41.6 35.05 L41.95 35.4 Q43.2 34.85 43.85 33.4 L44.7 30.6 44.4 30.6 44.2 30.65 44.6 30.25 44.8 29.6 44.75 28.85 44.85 28.3 44.65 26.3 Q44.25 24.75 43.75 24.7 L42.6 25.25 42.55 25.25 43.3 24.6 43.3 24.55 41.6 25.15 42.55 24.15 42.55 24.1 42.2 24.3 41.7 24.55 42.05 23.85 42.2 23.3 Q42.2 22.4 40.45 21.6 L38.45 20.85 38.5 21.85 38.2 20.9 37.4 20.75 34.1 21.1 Q31.9 21.6 31.95 22.45 L31.55 22.05 31.9 23.25 31.9 23.3 31.1 22.55 30.95 22.6 30.9 22.5 30.85 22.7 M28.7 24.65 L28.8 24.45 28.8 24.4 30.1 22.7 Q32.75 20.1 36.5 20.1 40.15 20.15 42.75 22.75 42.9 22.8 43.05 23.0 L44.65 25.3 Q45.5 27.0 45.5 29.0 45.5 31.1 44.65 32.85 43.95 34.25 42.75 35.4 40.15 38.0 36.5 38.0 32.75 38.0 30.1 35.35 29.1 34.35 28.5 33.1 27.65 31.4 27.55 29.35 L27.5 28.95 27.65 27.65 27.9 26.45 27.95 26.4 28.4 25.45 28.55 25.05 28.7 24.65 M23.1 29.3 Q23.05 31.15 22.25 32.75 21.6 34.2 20.45 35.3 17.85 37.9 14.2 37.9 10.4 37.9 7.8 35.25 6.75 34.25 6.2 33.05 5.2 31.15 5.2 28.85 5.2 27.6 5.55 26.4 L5.55 26.35 6.15 25.35 6.05 25.6 6.25 25.85 Q6.6 26.05 6.75 26.3 5.95 26.4 5.95 29.55 L6.1 30.65 Q6.1 31.15 6.75 31.3 L6.55 32.0 Q6.55 33.1 7.85 34.75 9.2 36.35 10.0 36.35 10.35 36.35 10.45 36.15 L10.65 36.8 12.85 37.4 14.6 37.65 Q16.15 37.65 17.35 36.9 L18.75 36.2 Q19.6 35.6 19.3 34.95 L19.65 35.3 Q20.9 34.75 21.45 33.35 L22.4 30.5 22.05 30.5 21.95 30.55 22.25 30.1 22.5 29.55 22.45 28.75 22.5 28.15 22.25 26.25 Q21.95 24.65 21.4 24.65 L20.3 25.2 21.05 24.5 21.05 24.45 19.3 25.05 20.25 24.05 19.85 24.2 19.4 24.45 19.75 23.8 19.85 23.25 Q19.85 22.35 18.1 21.55 L16.15 20.8 16.25 21.75 15.9 20.8 Q15.7 20.55 15.15 20.55 L11.8 21.0 Q9.55 21.4 9.6 22.35 L9.25 21.95 9.55 23.05 9.55 23.25 8.75 22.5 8.65 22.5 8.65 22.4 8.55 22.55 Q8.0 22.8 7.0 24.15 L6.15 25.35 6.2 24.95 6.45 24.45 6.5 24.3 Q7.0 23.4 7.8 22.6 10.4 20.05 14.2 20.05 17.85 20.05 20.45 22.65 L20.65 22.9 Q21.65 23.9 22.25 25.2 22.85 26.3 23.05 27.6 L23.1 28.95 23.1 29.3" fill="#5b2b0c" fill-rule="evenodd" stroke="none"/>
    <path d="M30.95 22.6 L31.1 23.0 30.6 23.85 29.9 25.2 29.8 24.4 30.35 23.45 30.55 23.25 30.85 22.7 30.9 22.5 30.95 22.6 M43.85 27.55 Q44.4 27.8 44.4 28.7 L44.4 30.1 43.9 30.5 43.8 30.3 43.9 30.0 44.0 29.55 43.65 28.5 Q43.35 27.7 43.05 27.8 L43.45 27.5 43.1 26.65 43.1 26.6 43.6 26.7 Q43.6 27.5 43.9 27.6 L43.85 27.55 M8.65 22.5 L8.75 22.95 8.35 23.8 Q7.8 24.65 7.6 25.2 L7.45 24.4 8.0 23.35 8.25 23.1 8.55 22.55 8.65 22.4 8.65 22.5 M6.6 27.1 L6.95 27.5 6.7 27.95 6.4 28.5 6.6 28.75 6.6 29.8 6.0 28.75 6.25 28.15 6.35 28.05 Q6.65 27.7 6.6 27.1 M28.9 27.15 L29.2 27.6 28.95 28.05 28.75 28.6 28.9 28.8 28.9 29.85 28.3 28.8 28.6 28.3 28.7 28.15 28.9 27.15 M20.8 26.45 Q21.0 26.4 21.35 26.65 21.35 27.4 21.55 27.5 L21.5 27.45 Q22.1 27.7 22.15 28.55 L22.15 30.0 21.6 30.4 21.45 30.2 21.55 29.85 21.65 29.5 21.4 28.4 Q21.05 27.65 20.7 27.7 L21.15 27.45 20.8 26.6 20.8 26.45" fill="#6b3716" fill-rule="evenodd" stroke="none"/>
    <path d="M41.7 28.5 L41.8 28.55 Q42.45 28.8 42.5 29.4 L42.45 30.65 42.2 30.3 41.7 30.1 Q41.75 29.8 41.95 29.75 L40.85 28.45 40.8 28.45 41.1 28.5 41.4 28.65 41.45 28.65 41.0 28.05 41.65 28.5 41.7 28.5 M38.35 27.1 L38.35 27.15 Q38.1 27.7 38.4 28.15 L38.95 28.85 38.85 28.85 Q38.5 28.75 38.45 29.1 L38.2 29.55 37.95 27.9 37.25 27.5 37.95 27.55 37.95 27.5 37.9 27.2 38.35 27.1 M37.4 23.8 L37.65 23.6 37.85 23.6 37.55 24.25 37.6 24.4 38.45 24.2 38.85 24.55 39.05 25.05 38.85 25.7 38.75 25.6 38.05 24.9 37.0 24.8 37.2 24.2 37.3 24.05 37.4 23.8 M14.65 24.7 L14.85 24.15 15.0 23.9 15.15 23.65 15.4 23.45 15.5 23.5 15.25 24.15 15.3 24.3 16.15 24.1 16.5 24.4 16.8 24.95 16.5 25.5 16.45 25.45 15.7 24.7 Q15.2 24.5 14.65 24.7 M11.45 24.65 L11.8 24.7 12.0 25.05 12.15 26.0 12.15 26.1 12.0 26.2 Q12.0 26.05 11.7 26.0 11.4 25.9 11.45 25.6 L11.45 24.65 M15.65 27.4 L15.55 27.1 16.0 27.05 Q15.8 27.6 16.1 28.05 L16.55 28.75 16.5 28.75 Q16.25 28.7 16.15 28.95 L15.95 29.45 15.65 27.8 14.9 27.4 15.65 27.45 15.65 27.4 M19.2 28.55 L18.7 27.95 19.35 28.45 19.4 28.45 19.45 28.5 19.5 28.5 Q20.15 28.75 20.2 29.3 L20.15 30.6 19.85 30.2 19.4 30.0 19.65 29.7 18.55 28.35 18.5 28.35 18.8 28.45 19.05 28.55 19.2 28.55 M11.05 27.9 L11.1 28.0 11.1 28.05 Q9.75 28.85 9.15 29.85 8.85 29.4 8.85 29.0 L9.45 28.55 9.5 28.25 9.8 27.9 10.15 28.0 10.45 28.1 11.05 27.9 M13.15 33.65 L12.8 33.75 Q12.5 33.75 12.5 33.6 L12.5 32.85 12.7 33.1 13.15 33.65 M34.3 25.15 L34.5 26.05 34.5 26.2 34.3 26.3 34.0 26.05 Q33.7 26.0 33.75 25.75 L33.75 24.7 34.1 24.8 34.3 25.15 M31.4 30.05 L31.15 29.1 31.7 28.7 31.8 28.4 32.2 28.0 32.45 28.1 32.8 28.15 33.3 28.0 33.4 28.05 33.4 28.15 Q32.1 29.0 31.4 30.05 M35.1 33.8 L34.85 33.65 34.85 32.95 35.05 33.15 35.5 33.75 35.1 33.8" fill="#9c5c33" fill-rule="evenodd" stroke="none"/>
    <path d="M39.55 28.95 L39.65 28.95 39.7 28.95 39.8 28.95 40.15 29.1 40.6 29.5 Q41.0 30.3 40.9 31.35 L40.75 32.55 40.55 33.15 40.2 33.6 Q39.15 34.8 37.85 34.9 36.15 34.95 36.05 33.85 L36.25 33.15 Q36.4 32.75 37.0 32.55 37.9 32.25 38.25 31.85 L38.3 31.8 38.3 31.75 38.4 31.55 38.8 29.85 Q38.95 29.1 39.55 28.95 M35.75 31.75 L34.95 32.0 Q34.6 32.0 34.25 31.7 L34.05 31.2 34.0 31.0 34.25 30.4 34.55 30.2 34.6 30.15 34.85 30.1 Q36.0 30.1 36.0 31.1 L35.8 31.7 35.75 31.75 M17.2 28.85 L17.5 28.85 Q17.85 28.95 17.85 29.0 L18.25 29.4 Q18.7 30.2 18.65 31.3 L18.45 32.5 18.2 33.1 17.9 33.5 Q16.85 34.7 15.5 34.75 13.8 34.9 13.75 33.75 13.75 33.4 13.9 33.1 14.1 32.65 14.65 32.5 L16.0 31.7 16.0 31.55 16.1 31.45 16.5 29.8 Q16.65 28.95 17.2 28.85 M13.5 31.65 Q13.25 31.95 12.7 31.95 12.25 31.95 11.95 31.55 L11.7 31.1 11.7 30.95 11.9 30.35 12.2 30.1 12.25 30.1 12.55 30.0 Q13.7 30.0 13.7 31.0 L13.55 31.55 13.5 31.65" fill="#d7a356" fill-rule="evenodd" stroke="none"/>
    <path d="M42.2 33.25 L40.9 34.7 Q39.2 36.15 36.5 36.15 34.9 36.15 33.4 35.5 31.7 34.7 31.4 33.55 L31.55 33.4 31.7 33.65 31.9 33.75 32.75 34.5 33.75 35.1 Q33.65 34.8 34.2 33.1 L34.25 33.1 34.2 35.35 34.45 35.05 34.55 34.6 34.6 34.6 Q34.35 35.4 35.2 35.6 L36.75 35.8 36.55 35.15 36.55 35.05 36.8 35.55 37.4 35.7 39.1 35.45 Q40.05 35.1 39.8 34.4 L39.85 34.4 40.05 34.9 42.2 33.25 M9.25 33.25 L9.45 33.55 9.55 33.65 10.4 34.45 11.45 34.95 Q11.35 34.75 11.9 33.05 L11.95 33.0 11.9 35.25 12.15 34.95 12.2 34.55 12.25 34.55 Q12.1 35.35 12.9 35.55 L14.45 35.7 14.3 35.05 14.3 34.95 14.55 35.45 15.15 35.55 16.8 35.35 Q17.8 34.95 17.5 34.3 L17.6 34.3 17.75 34.8 Q19.25 33.85 19.85 33.15 L18.6 34.6 Q16.9 36.1 14.2 36.1 12.65 36.1 11.15 35.4 9.45 34.6 9.05 33.45 L9.25 33.25" fill="#854e2c" fill-rule="evenodd" stroke="none"/>
    <path d="M38.25 31.85 L36.8 32.0 35.75 31.75 35.8 31.7 36.0 31.1 Q36.0 30.1 34.85 30.1 L34.6 30.15 34.55 30.2 34.35 29.15 34.35 29.0 Q34.35 27.9 35.55 27.1 36.25 26.7 37.05 26.55 L38.35 27.1 37.9 27.2 37.95 27.5 37.95 27.55 37.25 27.5 37.95 27.9 38.2 29.55 38.45 29.1 Q38.5 28.75 38.85 28.85 L38.95 28.85 38.4 28.15 Q38.1 27.7 38.35 27.15 L38.75 27.5 39.55 28.95 Q38.95 29.1 38.8 29.85 L38.4 31.55 38.3 31.75 38.3 31.8 38.25 31.85 M15.65 27.4 L15.65 27.45 14.9 27.4 15.65 27.8 15.95 29.45 16.15 28.95 Q16.25 28.7 16.5 28.75 L16.55 28.75 16.1 28.05 Q15.8 27.6 16.0 27.05 L15.55 27.1 15.65 27.4 M16.0 31.55 Q15.35 31.95 14.5 31.95 L13.5 31.65 13.55 31.55 13.7 31.0 Q13.7 30.0 12.55 30.0 L12.25 30.1 12.2 30.1 12.05 29.0 12.05 28.95 Q12.1 27.8 13.3 27.05 13.9 26.6 14.7 26.4 15.7 26.65 16.45 27.4 17.05 28.0 17.2 28.85 16.65 28.95 16.5 29.8 L16.1 31.45 16.0 31.55" fill="#ad753f" fill-rule="evenodd" stroke="none"/>
    <path d="M32.9 32.0 L31.95 32.15 Q31.25 32.25 30.95 32.55 L30.35 32.5 Q28.8 30.1 29.5 27.9 L30.3 27.85 Q30.55 27.7 30.7 27.7 L30.0 28.1 Q29.7 28.25 29.7 28.75 L29.8 29.65 30.3 29.55 29.9 29.8 29.9 29.85 30.85 29.8 31.25 29.8 30.6 30.0 Q30.05 30.2 30.05 30.4 L30.2 30.95 30.75 31.3 30.35 31.55 Q30.35 31.75 30.5 31.95 L30.85 32.1 32.1 31.95 32.9 32.0 M8.4 27.6 L7.65 28.0 Q7.4 28.15 7.4 28.7 L7.5 29.55 7.95 29.5 8.1 29.5 Q7.85 29.5 7.6 29.75 L7.6 29.8 8.6 29.7 8.9 29.7 8.35 29.85 7.75 30.35 7.85 30.9 Q8.1 31.2 8.45 31.2 L8.0 31.45 8.2 31.85 8.55 32.0 9.75 31.85 10.55 31.9 10.55 31.95 9.6 32.05 8.65 32.35 8.0 32.35 Q6.5 30.05 7.15 27.85 L7.95 27.75 8.4 27.6" fill="#91552f" fill-rule="evenodd" stroke="none"/>
    <path d="M12.3 36.8 L12.75 36.95 13.4 36.5 13.55 36.9 13.95 36.6 14.4 36.5 14.6 36.6 14.95 36.6 15.55 36.8 16.2 36.55 16.8 36.25 16.8 36.3 16.25 36.9 15.25 37.1 14.35 36.95 13.9 37.0 13.55 37.4 13.5 37.4 13.3 37.15 12.8 37.15 Q12.2 37.15 11.9 36.6 L12.3 36.8 M34.65 36.9 L35.05 37.05 35.7 36.6 35.85 36.95 Q35.9 36.9 36.3 36.75 36.55 36.6 36.7 36.6 L36.85 36.6 37.25 36.75 37.9 36.9 38.45 36.6 39.05 36.35 39.05 36.4 38.5 37.0 37.55 37.15 36.65 37.05 36.25 37.1 35.85 37.4 35.75 37.4 35.55 37.2 35.1 37.25 Q34.55 37.25 34.15 36.65 L34.65 36.9" fill="#7b4420" fill-rule="evenodd" stroke="none"/>
    <path d="M27.55 29.35 L23.1 29.3 23.1 28.95 23.05 27.6 27.65 27.65 27.5 28.95 27.55 29.35" fill="#481f04" fill-rule="evenodd" stroke="none"/>
    <path d="M7.85 39.6 L8.0 37.75 Q25.0 41.5 42.4 37.75 L42.7 39.6 42.15 39.7 40.7 40.1 40.6 40.1 39.05 40.45 38.95 40.45 35.95 41.05 34.15 41.25 29.2 41.7 17.05 41.25 14.7 40.95 13.0 40.7 12.05 40.5 11.4 40.4 10.25 40.15 8.9 39.85 7.85 39.6" fill="url(#gradient0)" fill-rule="evenodd" stroke="none"/>
    <path d="M41.8 40.7 L41.8 40.65 44.45 44.65 47.4 48.6 44.65 45.9 44.6 45.8 44.6 45.85 44.65 45.9 45.6 48.2 44.85 47.15 43.4 44.95 42.2 42.9 44.2 45.35 41.8 40.7 M39.95 46.9 Q41.1 49.45 42.05 50.65 L39.95 44.4 39.95 44.25 41.45 48.05 43.05 51.3 42.75 50.55 42.6 49.9 44.6 53.55 44.6 53.7 43.6 52.6 42.65 51.65 43.3 53.45 43.3 53.75 42.15 52.05 41.65 51.3 41.3 50.4 41.05 49.75 39.95 46.95 39.95 46.9 M42.65 51.65 L42.6 51.55 42.6 51.6 42.65 51.65 M42.05 50.65 L42.1 50.8 42.1 50.75 42.05 50.65" fill="#a60c49" fill-rule="evenodd" stroke="none"/>
    <path d="M42.05 54.8 L41.3 52.95 40.9 54.55 38.3 55.1 35.85 46.55 37.9 56.05 36.25 56.45 35.75 54.3 35.75 56.5 30.9 57.05 30.85 54.55 30.65 57.1 27.15 57.2 26.6 57.3 22.85 56.9 22.75 56.2 22.7 56.9 20.55 56.6 20.55 53.2 20.05 56.55 19.8 56.55 19.05 56.45 18.95 56.4 12.1 54.8 12.0 53.95 11.9 54.75 11.8 54.75 7.1 53.1 7.45 51.8 6.6 52.45 4.45 51.45 5.9 48.1 6.15 47.55 3.4 50.45 2.5 50.05 6.65 43.1 6.75 42.9 6.75 42.85 6.9 42.65 6.75 43.35 6.7 43.4 6.5 44.4 6.75 43.75 Q7.25 42.4 8.85 39.95 L7.85 39.7 -1.45 52.55 -1.6 52.45 7.85 39.6 8.9 39.85 10.25 40.15 11.4 40.4 12.05 40.5 13.0 40.7 14.7 40.95 17.05 41.25 29.2 41.7 34.15 41.25 35.95 41.05 38.95 40.45 39.05 40.45 40.6 40.1 40.7 40.1 42.15 39.7 50.05 49.65 Q49.2 50.85 47.75 51.5 L46.35 49.05 47.45 52.25 47.05 52.45 46.9 51.85 41.85 44.85 41.45 45.05 45.9 52.4 44.8 53.65 42.05 54.8 M41.8 40.7 L44.2 45.35 42.2 42.9 43.4 44.95 44.85 47.15 45.6 48.2 44.65 45.9 44.6 45.85 44.6 45.8 44.65 45.9 47.4 48.6 44.45 44.65 41.8 40.65 41.8 40.7 M8.95 44.75 L8.85 44.75 Q7.75 46.5 7.4 47.2 L9.45 41.6 8.3 43.65 7.2 45.7 6.4 48.25 6.35 48.4 6.2 49.2 6.0 49.95 6.4 49.05 6.85 48.3 6.75 48.95 6.3 51.7 8.95 44.75 M12.1 40.65 L9.2 51.6 13.1 40.8 12.1 40.65 M14.75 41.05 L13.75 48.0 15.35 42.8 14.95 46.65 17.05 41.4 14.75 41.05 M40.2 43.3 L40.35 43.3 40.45 41.7 40.65 40.25 39.1 40.6 39.35 41.05 39.8 42.05 40.2 43.3 M39.0 40.6 L36.0 41.2 Q36.9 43.8 38.9 47.55 L38.9 47.45 38.5 44.7 Q38.15 42.45 37.6 41.05 L38.5 42.9 39.1 44.2 39.0 41.4 39.0 40.6 M39.95 46.9 L39.95 46.95 41.05 49.75 41.3 50.4 41.65 51.3 42.15 52.05 43.3 53.75 43.3 53.45 42.65 51.65 43.6 52.6 44.6 53.7 44.6 53.55 42.6 49.9 42.75 50.55 43.05 51.3 41.45 48.05 39.95 44.25 39.95 44.4 42.05 50.65 Q41.1 49.45 39.95 46.9 M36.55 46.1 L36.7 46.1 36.7 45.55 Q36.55 43.4 36.0 41.2 L34.2 41.4 35.45 43.6 36.55 46.1 M12.7 53.9 L12.65 53.9 12.65 54.0 12.7 53.9 M42.05 50.65 L42.1 50.75 42.1 50.8 42.05 50.65 M42.65 51.65 L42.6 51.6 42.6 51.55 42.65 51.65" fill="url(#gradient1)" fill-rule="evenodd" stroke="none"/>
    <path d="M42.7 39.6 L51.4 49.75 48.0 51.9 47.75 51.5 Q49.2 50.85 50.05 49.65 L42.15 39.7 42.7 39.6" fill="url(#gradient2)" fill-rule="evenodd" stroke="none"/>
    <path d="M44.8 53.65 L45.9 52.4 41.45 45.05 41.85 44.85 46.9 51.85 47.05 52.45 44.8 53.65" fill="url(#gradient3)" fill-rule="evenodd" stroke="none"/>
    <path d="M0.05 53.4 L0.0 53.45 -1.1 52.85 -1.5 52.6 -1.45 52.55 7.85 39.7 8.85 39.95 Q7.25 42.4 6.75 43.75 L6.5 44.4 6.7 43.4 6.75 43.35 6.9 42.65 6.75 42.85 6.75 42.9 6.65 43.1 4.05 46.65 Q2.45 48.9 1.6 50.55 L1.2 51.45 1.45 50.5 1.75 48.8 1.65 48.8 1.2 50.35 0.9 51.25 Q0.25 52.65 0.05 53.4" fill="url(#gradient4)" fill-rule="evenodd" stroke="none"/>
    <path d="M51.4 49.75 L52.6 51.3 49.1 53.65 49.05 53.7 48.0 51.9 51.4 49.75 M48.25 54.1 Q45.65 55.65 42.8 56.75 L42.05 54.8 44.8 53.65 47.05 52.45 47.45 52.25 48.25 54.1 M41.5 55.0 L41.75 57.25 41.7 57.25 36.75 58.85 36.25 56.45 37.9 56.05 40.7 55.25 41.5 55.0 M35.75 59.1 L35.7 59.05 30.9 59.9 30.9 57.05 35.75 56.5 35.75 59.1 M30.65 57.1 L30.45 60.0 30.35 60.0 30.2 60.0 26.7 60.25 23.2 60.25 22.85 56.9 26.6 57.3 27.15 57.2 30.65 57.1 M22.15 60.2 L22.05 60.2 20.6 60.05 20.55 56.6 22.7 56.9 22.15 60.2 M19.3 60.0 L19.25 59.95 18.95 59.95 18.55 59.9 19.05 56.45 19.8 56.55 20.05 56.55 19.3 60.0 M17.75 59.75 L13.6 58.9 13.3 56.55 12.6 58.6 12.5 58.6 12.1 54.8 18.95 56.4 17.75 59.75 M10.65 58.15 L8.3 57.3 8.95 54.4 7.8 57.05 6.75 56.65 6.25 56.45 7.1 53.1 11.8 54.75 10.65 58.15 M5.75 56.25 L5.65 56.2 2.35 54.65 3.85 51.7 6.75 52.95 6.95 53.05 5.75 56.25 M1.65 54.25 L1.55 54.2 0.05 53.4 Q0.25 52.65 0.9 51.25 L1.2 50.35 1.65 48.8 1.75 48.8 1.45 50.5 1.2 51.45 1.6 50.55 3.5 51.55 1.65 54.25" fill="url(#gradient5)" fill-rule="evenodd" stroke="none"/>
    <path d="M8.95 44.75 L6.3 51.7 6.75 48.95 6.85 48.3 6.4 49.05 6.0 49.95 6.2 49.2 6.35 48.4 6.4 48.25 7.2 45.7 8.3 43.65 9.45 41.6 7.4 47.2 Q7.75 46.5 8.85 44.75 L8.95 44.75 M14.75 41.05 L17.05 41.4 14.95 46.65 15.35 42.8 13.75 48.0 14.75 41.05 M12.1 40.65 L13.1 40.8 9.2 51.6 12.1 40.65" fill="#de2e75" fill-rule="evenodd" stroke="none"/>
    <path d="M2.35 54.65 L2.3 54.75 1.6 54.3 1.65 54.25 3.5 51.55 6.15 47.55 5.9 48.1 3.85 51.7 2.35 54.65" fill="#bf2361" fill-rule="evenodd" stroke="none"/>
    <path d="M6.65 43.1 L2.5 50.05 3.4 50.45 6.15 47.55 3.5 51.55 1.6 50.55 Q2.45 48.9 4.05 46.65 L6.65 43.1 M5.9 48.1 L4.45 51.45 6.6 52.45 7.45 51.8 6.95 53.05 6.75 52.95 3.85 51.7 5.9 48.1" fill="url(#gradient6)" fill-rule="evenodd" stroke="none"/>
    <path d="M40.2 43.3 L39.8 42.05 39.35 41.05 39.1 40.6 40.65 40.25 40.45 41.7 40.35 43.3 40.2 43.3" fill="url(#gradient7)" fill-rule="evenodd" stroke="none"/>
    <path d="M39.0 40.6 L39.0 41.4 39.1 44.2 38.5 42.9 37.6 41.05 Q38.15 42.45 38.5 44.7 L38.9 47.45 38.9 47.55 Q36.9 43.8 36.0 41.2 L39.0 40.6" fill="url(#gradient8)" fill-rule="evenodd" stroke="none"/>
    <path d="M36.55 46.1 L35.45 43.6 34.2 41.4 36.0 41.2 Q36.55 43.4 36.7 45.55 L36.7 46.1 36.55 46.1" fill="url(#gradient9)" fill-rule="evenodd" stroke="none"/>
    <path d="M49.05 53.7 L49.15 53.75 48.95 53.9 48.3 54.25 48.25 54.1 47.45 52.25 46.35 49.05 47.75 51.5 48.0 51.9 49.05 53.7 M36.75 58.85 L36.8 58.95 35.75 59.2 35.75 59.1 35.75 56.5 35.75 54.3 36.25 56.45 36.75 58.85 M23.2 60.25 L23.2 60.45 22.1 60.3 22.15 60.2 22.7 56.9 22.75 56.2 22.85 56.9 23.2 60.25 M20.6 60.05 L20.6 60.2 19.25 60.05 19.3 60.0 20.05 56.55 20.55 53.2 20.55 56.6 20.6 60.05" fill="url(#gradient10)" fill-rule="evenodd" stroke="none"/>
    <path d="M12.7 53.9 L12.65 54.0 12.65 53.9 12.7 53.9" fill="url(#gradient11)" fill-rule="evenodd" stroke="none"/>
    <path d="M11.35 58.3 L11.25 58.3 10.65 58.15 11.8 54.75 11.9 54.75 11.35 58.3" fill="url(#gradient12)" fill-rule="evenodd" stroke="none"/>
    <path d="M13.6 58.9 L13.6 59.0 12.5 58.75 11.3 58.4 11.35 58.3 11.9 54.75 12.0 53.95 12.1 54.8 12.5 58.6 12.5 58.75 12.6 58.6 13.3 56.55 13.6 58.9" fill="url(#gradient13)" fill-rule="evenodd" stroke="none"/>
    <path d="M18.55 59.9 L17.75 59.75 18.95 56.4 19.05 56.45 18.55 59.9" fill="url(#gradient14)" fill-rule="evenodd" stroke="none"/>
    <path d="M6.25 56.45 L6.2 56.55 5.7 56.35 5.75 56.25 6.95 53.05 7.45 51.8 7.1 53.1 6.25 56.45" fill="#f579aa" fill-rule="evenodd" stroke="none"/>
    <path d="M41.3 52.95 L41.5 55.0 40.7 55.25 37.9 56.05 35.85 46.55 38.3 55.1 40.9 54.55 41.3 52.95" fill="url(#gradient15)" fill-rule="evenodd" stroke="none"/>
    <path d="M21.95 45.6 L22.0 45.2 22.0 44.9 24.45 44.75 27.15 44.55 27.3 48.75 27.45 50.55 27.5 50.75 27.5 50.85 27.5 50.9 27.65 51.7 27.0 52.4 26.1 49.15 26.0 54.1 25.0 54.55 Q24.9 51.3 24.05 48.6 L23.8 54.05 23.25 53.45 22.75 48.1 21.95 53.75 21.1 53.35 21.95 45.6" fill="url(#gradient16)" fill-rule="evenodd" stroke="none"/>
    <path d="M27.65 51.7 L27.5 50.9 27.55 51.0 28.15 52.8 27.4 53.25 26.95 54.0 Q26.6 53.45 26.65 52.35 L26.55 55.15 24.85 55.65 24.55 55.65 24.65 55.4 24.65 55.45 25.05 55.4 26.4 54.85 26.25 50.6 26.65 52.3 26.65 52.35 26.9 53.45 27.2 53.0 Q27.5 52.7 27.8 52.6 L27.65 51.7 M24.4 51.4 L24.45 55.2 24.35 55.7 22.75 55.1 22.75 54.85 22.8 54.7 Q23.25 54.55 24.2 55.2 L24.1 52.85 24.3 50.55 24.35 50.8 24.4 51.2 24.4 51.4 M22.65 51.25 L22.7 52.2 22.6 55.4 Q21.25 54.7 20.7 54.85 L20.55 54.35 Q21.4 54.25 22.4 54.95 L22.45 52.4 22.65 51.25" fill="#be1c5d" fill-rule="evenodd" stroke="none"/>
    <path d="M21.95 45.6 L21.1 53.35 21.95 53.75 22.75 48.1 23.25 53.45 23.8 54.05 24.05 48.6 Q24.9 51.3 25.0 54.55 L26.0 54.1 26.1 49.15 27.0 52.4 27.65 51.7 27.8 52.6 Q27.5 52.7 27.2 53.0 L26.9 53.45 26.65 52.35 26.65 52.3 26.25 50.6 26.4 54.85 25.05 55.4 24.65 55.45 24.65 55.4 24.6 52.9 24.4 51.4 24.4 51.2 24.35 50.8 24.3 50.55 24.1 52.85 24.2 55.2 Q23.25 54.55 22.8 54.7 L22.85 51.25 22.75 49.85 22.65 50.95 22.65 51.25 22.45 52.4 22.4 54.95 Q21.4 54.25 20.55 54.35 L21.35 49.9 21.95 45.6" fill="url(#gradient17)" fill-rule="evenodd" stroke="none"/>
    <path d="M37.7 50.2 L38.15 51.25 36.8 51.55 35.9 48.8 36.55 51.9 34.25 53.45 33.8 50.5 33.8 53.45 31.95 53.55 32.0 50.5 31.4 54.25 29.5 54.3 30.65 45.6 30.7 45.6 30.1 53.2 31.1 53.05 32.2 49.15 32.2 52.5 33.3 52.65 33.6 48.15 34.35 52.5 35.9 51.5 35.35 46.55 36.9 50.55 37.7 50.2" fill="url(#gradient18)" fill-rule="evenodd" stroke="none"/>
    <path d="M30.7 45.6 L35.3 44.1 37.7 50.2 36.9 50.55 35.35 46.55 35.9 51.5 34.35 52.5 33.6 48.15 33.3 52.65 32.2 52.5 32.2 49.15 31.1 53.05 30.1 53.2 30.7 45.6" fill="url(#gradient19)" fill-rule="evenodd" stroke="none"/>
    <path d="M13.6 46.6 L13.65 46.4 16.1 46.95 18.85 47.5 18.75 47.8 18.7 48.0 18.05 51.8 18.0 52.65 17.25 52.95 16.9 50.5 15.95 53.85 14.85 53.95 Q15.4 51.65 15.05 49.65 L13.7 53.2 13.3 52.65 13.75 48.85 11.9 52.5 11.2 52.05 13.6 46.6" fill="url(#gradient20)" fill-rule="evenodd" stroke="none"/>
    <path d="M18.7 48.0 Q18.25 52.65 18.45 53.75 17.9 53.65 16.95 54.2 L16.95 53.7 16.5 54.9 14.6 54.9 14.35 54.55 14.75 54.55 16.25 54.55 16.9 51.55 16.95 53.7 17.3 53.45 18.0 53.3 18.0 52.65 18.05 51.8 18.7 48.0 M14.8 51.25 L14.1 54.75 13.3 54.2 Q12.9 53.85 12.45 53.8 L12.7 53.4 Q13.15 53.5 13.9 54.2 13.95 53.65 14.35 52.45 L14.85 51.0 14.8 51.25 M13.4 50.5 L12.2 53.9 11.4 53.45 Q11.0 53.0 10.55 53.05 L10.55 53.1 10.45 52.6 Q11.35 52.8 12.15 53.45 L12.7 51.75 13.45 50.05 13.4 50.5" fill="#be1c5d" fill-rule="evenodd" stroke="none"/>
    <path d="M14.35 54.55 L14.75 52.65 14.8 51.25 14.85 51.0 14.35 52.45 Q13.95 53.65 13.9 54.2 13.15 53.5 12.7 53.4 L12.65 53.4 12.7 53.2 13.3 51.0 13.4 50.5 13.45 50.05 12.7 51.75 12.15 53.45 Q11.35 52.8 10.45 52.6 L10.4 52.6 12.1 49.7 13.6 46.6 11.2 52.05 11.9 52.5 13.75 48.85 13.3 52.65 13.7 53.2 15.05 49.65 Q15.4 51.65 14.85 53.95 L15.95 53.85 16.9 50.5 17.25 52.95 18.0 52.65 18.0 53.3 17.3 53.45 16.95 53.7 16.9 51.55 16.25 54.55 14.75 54.55 14.35 54.55" fill="url(#gradient21)" fill-rule="evenodd" stroke="none"/>
    <path d="M15.7 7.75 Q14.65 7.75 13.9 7.0 13.15 6.25 13.15 5.2 13.15 4.15 13.9 3.4 14.65 2.65 15.7 2.65 16.75 2.65 17.5 3.4 18.25 4.15 18.25 5.2 18.25 6.25 17.5 7.0 16.75 7.75 15.7 7.75" fill="#ff6dbd" fill-rule="evenodd" stroke="none"/>
    <path d="M19.95 8.65 Q18.9 8.65 18.15 7.9 17.4 7.15 17.4 6.1 17.4 5.05 18.15 4.3 18.9 3.55 19.95 3.55 21.0 3.55 21.75 4.3 22.5 5.05 22.5 6.1 22.5 7.15 21.75 7.9 21.0 8.65 19.95 8.65" fill="#ff6dbd" fill-rule="evenodd" stroke="none"/>
    <path d="M20.2 12.8 Q19.15 12.8 18.4 12.05 17.65 11.3 17.65 10.25 17.65 9.2 18.4 8.45 19.15 7.7 20.2 7.7 21.25 7.7 22.0 8.45 22.75 9.2 22.75 10.25 22.75 11.3 22.0 12.05 21.25 12.8 20.2 12.8" fill="#ff6dbd" fill-rule="evenodd" stroke="none"/>
    <path d="M21.35 6.5 L20.9 7.6 19.75 8.05 Q19.1 8.05 18.65 7.6 18.2 7.1 18.2 6.5 18.2 5.8 18.65 5.35 19.1 4.9 19.75 4.9 20.45 4.9 20.9 5.35 21.35 5.8 21.35 6.5" fill="#ffb8e0" fill-rule="evenodd" stroke="none"/>
    <path d="M16.55 14.8 Q15.5 14.8 14.75 14.05 14.0 13.3 14.0 12.25 14.0 11.2 14.75 10.45 15.5 9.7 16.55 9.7 17.6 9.7 18.35 10.45 19.1 11.2 19.1 12.25 19.1 13.3 18.35 14.05 17.6 14.8 16.55 14.8" fill="#ff6dbd" fill-rule="evenodd" stroke="none"/>
    <path d="M13.6 11.8 Q12.55 11.8 11.8 11.05 11.05 10.3 11.05 9.25 11.05 8.2 11.8 7.45 12.55 6.7 13.6 6.7 14.65 6.7 15.4 7.45 16.15 8.2 16.15 9.25 16.15 10.3 15.4 11.05 14.65 11.8 13.6 11.8" fill="#ff6dbd" fill-rule="evenodd" stroke="none"/>
    <path d="M17.3 5.6 L16.85 6.7 Q16.4 7.15 15.7 7.15 L14.6 6.7 Q14.15 6.2 14.15 5.6 14.15 4.9 14.6 4.45 15.05 4.0 15.7 4.0 16.4 4.0 16.85 4.45 17.3 4.9 17.3 5.6" fill="#ffb8e0" fill-rule="evenodd" stroke="none"/>
    <path d="M21.8 10.15 L21.35 11.25 Q20.9 11.7 20.2 11.7 L19.1 11.25 Q18.65 10.75 18.65 10.15 18.65 9.45 19.1 9.0 19.55 8.55 20.2 8.55 20.9 8.55 21.35 9.0 21.8 9.45 21.8 10.15" fill="#ffb8e0" fill-rule="evenodd" stroke="none"/>
    <path d="M18.15 11.7 Q18.15 12.35 17.75 12.85 17.3 13.25 16.6 13.25 15.95 13.25 15.5 12.85 15.05 12.35 15.05 11.7 15.05 11.05 15.5 10.6 15.95 10.15 16.6 10.15 17.3 10.15 17.75 10.6 18.15 11.05 18.15 11.7" fill="#ffb8e0" fill-rule="evenodd" stroke="none"/>
    <path d="M15.8 9.2 L15.35 10.3 Q14.9 10.75 14.2 10.75 13.55 10.75 13.1 10.3 12.65 9.8 12.65 9.2 12.65 8.5 13.1 8.05 13.55 7.6 14.2 7.6 14.9 7.6 15.35 8.05 15.8 8.5 15.8 9.2" fill="#ffb8e0" fill-rule="evenodd" stroke="none"/>
    <path d="M19.95 8.7 Q19.95 9.9 19.15 10.75 18.35 11.55 17.1 11.55 15.95 11.55 15.1 10.75 14.3 9.9 14.3 8.7 14.3 7.5 15.1 6.7 15.95 5.85 17.1 5.85 18.35 5.85 19.15 6.7 19.95 7.5 19.95 8.7" fill="#fcd2ea" fill-rule="evenodd" stroke="none"/>
    <path d="M19.05 8.75 Q19.05 9.5 18.5 10.1 17.95 10.65 17.15 10.65 16.3 10.65 15.8 10.1 15.25 9.5 15.25 8.75 15.25 7.95 15.8 7.4 16.3 6.85 17.15 6.85 17.95 6.85 18.5 7.4 19.05 7.95 19.05 8.75" fill="#ffb8e0" fill-rule="evenodd" stroke="none"/>
    <path d="M13.6 15.6 Q12.55 15.6 11.8 14.85 11.05 14.1 11.05 13.05 11.05 12.0 11.8 11.25 12.55 10.5 13.6 10.5 14.65 10.5 15.4 11.25 16.15 12.0 16.15 13.05 16.15 14.1 15.4 14.85 14.65 15.6 13.6 15.6" fill="#ff6dbd" fill-rule="evenodd" stroke="none"/>
    <path d="M18.1 16.4 Q17.05 16.4 16.3 15.65 15.55 14.9 15.55 13.85 15.55 12.8 16.3 12.05 17.05 11.3 18.1 11.3 19.15 11.3 19.9 12.05 20.65 12.8 20.65 13.85 20.65 14.9 19.9 15.65 19.15 16.4 18.1 16.4" fill="#ff6dbd" fill-rule="evenodd" stroke="none"/>
    <path d="M18.5 20.7 Q17.45 20.7 16.7 19.95 15.95 19.2 15.95 18.15 15.95 17.1 16.7 16.35 17.45 15.6 18.5 15.6 19.55 15.6 20.3 16.35 21.05 17.1 21.05 18.15 21.05 19.2 20.3 19.95 19.55 20.7 18.5 20.7" fill="#ff6dbd" fill-rule="evenodd" stroke="none"/>
    <path d="M19.85 14.35 Q19.85 14.95 19.4 15.45 18.95 15.9 18.25 15.9 17.6 15.9 17.15 15.45 16.7 14.95 16.7 14.35 16.7 13.65 17.15 13.2 17.6 12.75 18.25 12.75 18.95 12.75 19.4 13.2 19.85 13.65 19.85 14.35" fill="#ffb8e0" fill-rule="evenodd" stroke="none"/>
    <path d="M14.8 22.4 Q13.75 22.4 13.0 21.65 12.25 20.9 12.25 19.85 12.25 18.8 13.0 18.05 13.75 17.3 14.8 17.3 15.85 17.3 16.6 18.05 17.35 18.8 17.35 19.85 17.35 20.9 16.6 21.65 15.85 22.4 14.8 22.4" fill="#ff6dbd" fill-rule="evenodd" stroke="none"/>
    <path d="M11.9 19.65 Q10.85 19.65 10.1 18.9 9.35 18.15 9.35 17.1 9.35 16.05 10.1 15.3 10.85 14.55 11.9 14.55 12.95 14.55 13.7 15.3 14.45 16.05 14.45 17.1 14.45 18.15 13.7 18.9 12.95 19.65 11.9 19.65" fill="#ff6dbd" fill-rule="evenodd" stroke="none"/>
    <path d="M15.55 13.4 L15.1 14.5 Q14.65 14.95 13.95 14.95 13.3 14.95 12.85 14.5 12.4 14.0 12.4 13.4 12.4 12.7 12.85 12.25 13.3 11.8 13.95 11.8 14.65 11.8 15.1 12.25 15.55 12.7 15.55 13.4" fill="#ffb8e0" fill-rule="evenodd" stroke="none"/>
    <path d="M20.1 17.8 L19.65 18.9 Q19.2 19.35 18.5 19.35 17.85 19.35 17.4 18.9 16.95 18.4 16.95 17.8 16.95 17.1 17.4 16.65 17.85 16.2 18.5 16.2 19.2 16.2 19.65 16.65 20.1 17.1 20.1 17.8" fill="#ffb8e0" fill-rule="evenodd" stroke="none"/>
    <path d="M16.45 19.5 Q16.45 20.15 16.05 20.65 15.6 21.05 14.9 21.05 14.25 21.05 13.8 20.65 13.35 20.15 13.35 19.5 13.35 18.85 13.8 18.4 14.25 17.95 14.9 17.95 15.6 17.95 16.05 18.4 16.45 18.85 16.45 19.5" fill="#ffb8e0" fill-rule="evenodd" stroke="none"/>
    <path d="M14.05 17.05 L13.6 18.15 Q13.15 18.6 12.45 18.6 11.8 18.6 11.35 18.15 10.9 17.65 10.9 17.05 10.9 16.35 11.35 15.9 11.8 15.45 12.45 15.45 13.15 15.45 13.6 15.9 14.05 16.35 14.05 17.05" fill="#ffb8e0" fill-rule="evenodd" stroke="none"/>
    <path d="M18.25 16.45 Q18.25 17.65 17.45 18.5 16.65 19.3 15.4 19.3 14.25 19.3 13.4 18.5 12.6 17.65 12.6 16.45 12.6 15.25 13.4 14.45 14.25 13.6 15.4 13.6 16.65 13.6 17.45 14.45 18.25 15.25 18.25 16.45" fill="#fcd2ea" fill-rule="evenodd" stroke="none"/>
    <path d="M17.35 16.65 Q17.35 17.4 16.8 18.0 16.25 18.55 15.45 18.55 14.6 18.55 14.1 18.0 13.55 17.4 13.55 16.65 13.55 15.85 14.1 15.3 14.6 14.75 15.45 14.75 16.25 14.75 16.8 15.3 17.35 15.85 17.35 16.65" fill="#ffb8e0" fill-rule="evenodd" stroke="none"/>
    <path d="M16.85 24.8 Q15.8 24.8 15.05 24.05 14.3 23.3 14.3 22.25 14.3 21.2 15.05 20.45 15.8 19.7 16.85 19.7 17.9 19.7 18.65 20.45 19.4 21.2 19.4 22.25 19.4 23.3 18.65 24.05 17.9 24.8 16.85 24.8" fill="#ff6dbd" fill-rule="evenodd" stroke="none"/>
    <path d="M21.45 25.65 Q20.4 25.65 19.65 24.9 18.9 24.15 18.9 23.1 18.9 22.05 19.65 21.3 20.4 20.55 21.45 20.55 22.5 20.55 23.25 21.3 24.0 22.05 24.0 23.1 24.0 24.15 23.25 24.9 22.5 25.65 21.45 25.65" fill="#ff6dbd" fill-rule="evenodd" stroke="none"/>
    <path d="M21.55 29.8 Q20.5 29.8 19.75 29.05 19.0 28.3 19.0 27.25 19.0 26.2 19.75 25.45 20.5 24.7 21.55 24.7 22.6 24.7 23.35 25.45 24.1 26.2 24.1 27.25 24.1 28.3 23.35 29.05 22.6 29.8 21.55 29.8" fill="#ff6dbd" fill-rule="evenodd" stroke="none"/>
    <path d="M22.8 23.5 L22.35 24.6 Q21.9 25.05 21.2 25.05 L20.1 24.6 Q19.65 24.1 19.65 23.5 19.65 22.8 20.1 22.35 20.55 21.9 21.2 21.9 21.9 21.9 22.35 22.35 22.8 22.8 22.8 23.5" fill="#ffb8e0" fill-rule="evenodd" stroke="none"/>
    <path d="M17.8 31.7 Q16.75 31.7 16.0 30.95 15.25 30.2 15.25 29.15 15.25 28.1 16.0 27.35 16.75 26.6 17.8 26.6 18.85 26.6 19.6 27.35 20.35 28.1 20.35 29.15 20.35 30.2 19.6 30.95 18.85 31.7 17.8 31.7" fill="#ff6dbd" fill-rule="evenodd" stroke="none"/>
    <path d="M15.0 28.75 Q13.95 28.75 13.2 28.0 12.45 27.25 12.45 26.2 12.45 25.15 13.2 24.4 13.95 23.65 15.0 23.65 16.05 23.65 16.8 24.4 17.55 25.15 17.55 26.2 17.55 27.25 16.8 28.0 16.05 28.75 15.0 28.75" fill="#ff6dbd" fill-rule="evenodd" stroke="none"/>
    <path d="M18.75 22.7 L18.3 23.8 Q17.85 24.25 17.15 24.25 16.5 24.25 16.05 23.8 15.6 23.3 15.6 22.7 15.6 22.0 16.05 21.55 16.5 21.1 17.15 21.1 17.85 21.1 18.3 21.55 18.75 22.0 18.75 22.7" fill="#ffb8e0" fill-rule="evenodd" stroke="none"/>
    <path d="M23.0 27.25 L22.55 28.35 Q22.1 28.8 21.4 28.8 20.75 28.8 20.3 28.35 19.85 27.85 19.85 27.25 19.85 26.55 20.3 26.1 20.75 25.65 21.4 25.65 22.1 25.65 22.55 26.1 23.0 26.55 23.0 27.25" fill="#ffb8e0" fill-rule="evenodd" stroke="none"/>
    <path d="M19.35 28.8 Q19.35 29.45 18.95 29.95 18.5 30.35 17.8 30.35 17.15 30.35 16.7 29.95 16.25 29.45 16.25 28.8 16.25 28.15 16.7 27.7 17.15 27.25 17.8 27.25 18.5 27.25 18.95 27.7 19.35 28.15 19.35 28.8" fill="#ffb8e0" fill-rule="evenodd" stroke="none"/>
    <path d="M17.05 26.2 L16.6 27.3 Q16.15 27.75 15.45 27.75 14.8 27.75 14.35 27.3 13.9 26.8 13.9 26.2 13.9 25.5 14.35 25.05 14.8 24.6 15.45 24.6 16.15 24.6 16.6 25.05 17.05 25.5 17.05 26.2" fill="#ffb8e0" fill-rule="evenodd" stroke="none"/>
    <path d="M21.25 25.75 Q21.25 26.95 20.45 27.8 19.65 28.6 18.4 28.6 17.25 28.6 16.4 27.8 15.6 26.95 15.6 25.75 15.6 24.55 16.4 23.75 17.25 22.9 18.4 22.9 19.65 22.9 20.45 23.75 21.25 24.55 21.25 25.75" fill="#fcd2ea" fill-rule="evenodd" stroke="none"/>
    <path d="M20.4 26.0 Q20.4 26.75 19.85 27.35 19.3 27.9 18.5 27.9 17.65 27.9 17.15 27.35 16.6 26.75 16.6 26.0 16.6 25.2 17.15 24.65 17.65 24.1 18.5 24.1 19.3 24.1 19.85 24.65 20.4 25.2 20.4 26.0" fill="#ffb8e0" fill-rule="evenodd" stroke="none"/>
    <path d="M23.5 31.7 Q22.45 31.7 21.7 30.95 20.95 30.2 20.95 29.15 20.95 28.1 21.7 27.35 22.45 26.6 23.5 26.6 24.55 26.6 25.3 27.35 26.05 28.1 26.05 29.15 26.05 30.2 25.3 30.95 24.55 31.7 23.5 31.7" fill="#ff6dbd" fill-rule="evenodd" stroke="none"/>
    <path d="M27.9 32.45 Q26.85 32.45 26.1 31.7 25.35 30.95 25.35 29.9 25.35 28.85 26.1 28.1 26.85 27.35 27.9 27.35 28.95 27.35 29.7 28.1 30.45 28.85 30.45 29.9 30.45 30.95 29.7 31.7 28.95 32.45 27.9 32.45" fill="#ff6dbd" fill-rule="evenodd" stroke="none"/>
    <path d="M28.15 36.55 Q27.1 36.55 26.35 35.8 25.6 35.05 25.6 34.0 25.6 32.95 26.35 32.2 27.1 31.45 28.15 31.45 29.2 31.45 29.95 32.2 30.7 32.95 30.7 34.0 30.7 35.05 29.95 35.8 29.2 36.55 28.15 36.55" fill="#ff6dbd" fill-rule="evenodd" stroke="none"/>
    <path d="M29.5 30.25 L29.05 31.35 Q28.6 31.8 27.9 31.8 27.25 31.8 26.8 31.35 26.35 30.85 26.35 30.25 26.35 29.55 26.8 29.1 27.25 28.65 27.9 28.65 28.6 28.65 29.05 29.1 29.5 29.55 29.5 30.25" fill="#ffb8e0" fill-rule="evenodd" stroke="none"/>
    <path d="M24.35 38.5 Q23.3 38.5 22.55 37.75 21.8 37.0 21.8 35.95 21.8 34.9 22.55 34.15 23.3 33.4 24.35 33.4 25.4 33.4 26.15 34.15 26.9 34.9 26.9 35.95 26.9 37.0 26.15 37.75 25.4 38.5 24.35 38.5" fill="#ff6dbd" fill-rule="evenodd" stroke="none"/>
    <path d="M21.6 35.65 Q20.55 35.65 19.8 34.9 19.05 34.15 19.05 33.1 19.05 32.05 19.8 31.3 20.55 30.55 21.6 30.55 22.65 30.55 23.4 31.3 24.15 32.05 24.15 33.1 24.15 34.15 23.4 34.9 22.65 35.65 21.6 35.65" fill="#ff6dbd" fill-rule="evenodd" stroke="none"/>
    <path d="M25.3 29.55 L24.85 30.65 Q24.4 31.1 23.7 31.1 23.05 31.1 22.6 30.65 22.15 30.15 22.15 29.55 22.15 28.85 22.6 28.4 23.05 27.95 23.7 27.95 24.4 27.95 24.85 28.4 25.3 28.85 25.3 29.55" fill="#ffb8e0" fill-rule="evenodd" stroke="none"/>
    <path d="M29.6 34.0 L29.15 35.1 Q28.7 35.55 28.0 35.55 27.35 35.55 26.9 35.1 26.45 34.6 26.45 34.0 26.45 33.3 26.9 32.85 27.35 32.4 28.0 32.4 28.7 32.4 29.15 32.85 29.6 33.3 29.6 34.0" fill="#ffb8e0" fill-rule="evenodd" stroke="none"/>
    <path d="M25.95 35.6 Q25.95 36.25 25.55 36.75 25.1 37.15 24.4 37.15 23.75 37.15 23.3 36.75 22.85 36.25 22.85 35.6 22.85 34.95 23.3 34.5 23.75 34.05 24.4 34.05 25.1 34.05 25.55 34.5 25.95 34.95 25.95 35.6" fill="#ffb8e0" fill-rule="evenodd" stroke="none"/>
    <path d="M23.7 33.15 L23.25 34.25 Q22.8 34.7 22.1 34.7 21.45 34.7 21.0 34.25 20.55 33.75 20.55 33.15 20.55 32.45 21.0 32.0 21.45 31.55 22.1 31.55 22.8 31.55 23.25 32.0 23.7 32.45 23.7 33.15" fill="#ffb8e0" fill-rule="evenodd" stroke="none"/>
    <path d="M27.8 32.45 Q27.8 33.65 27.0 34.5 26.2 35.3 24.95 35.3 23.8 35.3 22.95 34.5 22.15 33.65 22.15 32.45 22.15 31.25 22.95 30.45 23.8 29.6 24.95 29.6 26.2 29.6 27.0 30.45 27.8 31.25 27.8 32.45" fill="#fcd2ea" fill-rule="evenodd" stroke="none"/>
    <path d="M27.1 32.45 Q27.1 33.2 26.55 33.8 26.0 34.35 25.2 34.35 24.35 34.35 23.85 33.8 23.3 33.2 23.3 32.45 23.3 31.65 23.85 31.1 24.35 30.55 25.2 30.55 26.0 30.55 26.55 31.1 27.1 31.65 27.1 32.45" fill="#ffb8e0" fill-rule="evenodd" stroke="none"/>
    <path d="M31.35 25.85 Q30.3 25.85 29.55 25.1 28.8 24.35 28.8 23.3 28.8 22.25 29.55 21.5 30.3 20.75 31.35 20.75 32.4 20.75 33.15 21.5 33.9 22.25 33.9 23.3 33.9 24.35 33.15 25.1 32.4 25.85 31.35 25.85" fill="#ff6dbd" fill-rule="evenodd" stroke="none"/>
    <path d="M35.8 27.0 Q34.75 27.0 34.0 26.25 33.25 25.5 33.25 24.45 33.25 23.4 34.0 22.65 34.75 21.9 35.8 21.9 36.85 21.9 37.6 22.65 38.35 23.4 38.35 24.45 38.35 25.5 37.6 26.25 36.85 27.0 35.8 27.0" fill="#ff6dbd" fill-rule="evenodd" stroke="none"/>
    <path d="M36.0 30.9 Q34.95 30.9 34.2 30.15 33.45 29.4 33.45 28.35 33.45 27.3 34.2 26.55 34.95 25.8 36.0 25.8 37.05 25.8 37.8 26.55 38.55 27.3 38.55 28.35 38.55 29.4 37.8 30.15 37.05 30.9 36.0 30.9" fill="#ff6dbd" fill-rule="evenodd" stroke="none"/>
    <path d="M37.2 24.55 L36.75 25.65 Q36.3 26.1 35.6 26.1 34.95 26.1 34.5 25.65 34.05 25.15 34.05 24.55 34.05 23.85 34.5 23.4 34.95 22.95 35.6 22.95 36.3 22.95 36.75 23.4 37.2 23.85 37.2 24.55" fill="#ffb8e0" fill-rule="evenodd" stroke="none"/>
    <path d="M32.2 32.55 Q31.15 32.55 30.4 31.8 29.65 31.05 29.65 30.0 29.65 28.95 30.4 28.2 31.15 27.45 32.2 27.45 33.25 27.45 34.0 28.2 34.75 28.95 34.75 30.0 34.75 31.05 34.0 31.8 33.25 32.55 32.2 32.55" fill="#ff6dbd" fill-rule="evenodd" stroke="none"/>
    <path d="M29.35 29.8 Q28.3 29.8 27.55 29.05 26.8 28.3 26.8 27.25 26.8 26.2 27.55 25.45 28.3 24.7 29.35 24.7 30.4 24.7 31.15 25.45 31.9 26.2 31.9 27.25 31.9 28.3 31.15 29.05 30.4 29.8 29.35 29.8" fill="#ff6dbd" fill-rule="evenodd" stroke="none"/>
    <path d="M33.15 23.75 L32.7 24.85 Q32.25 25.3 31.55 25.3 30.9 25.3 30.45 24.85 30.0 24.35 30.0 23.75 30.0 23.05 30.45 22.6 30.9 22.15 31.55 22.15 32.25 22.15 32.7 22.6 33.15 23.05 33.15 23.75" fill="#ffb8e0" fill-rule="evenodd" stroke="none"/>
    <path d="M37.4 28.1 L36.95 29.2 Q36.5 29.65 35.8 29.65 35.15 29.65 34.7 29.2 34.25 28.7 34.25 28.1 34.25 27.4 34.7 26.95 35.15 26.5 35.8 26.5 36.5 26.5 36.95 26.95 L37.4 28.1" fill="#ffb8e0" fill-rule="evenodd" stroke="none"/>
    <path d="M33.75 29.85 Q33.75 30.5 33.35 31.0 32.9 31.4 32.2 31.4 31.55 31.4 31.1 31.0 30.65 30.5 30.65 29.85 30.65 29.2 31.1 28.75 31.55 28.3 32.2 28.3 32.9 28.3 33.35 28.75 33.75 29.2 33.75 29.85" fill="#ffb8e0" fill-rule="evenodd" stroke="none"/>
    <path d="M31.65 27.2 L31.2 28.3 30.05 28.75 Q29.4 28.75 28.95 28.3 28.5 27.8 28.5 27.2 28.5 26.5 28.95 26.05 29.4 25.6 30.05 25.6 30.75 25.6 31.2 26.05 31.65 26.5 31.65 27.2" fill="#ffb8e0" fill-rule="evenodd" stroke="none"/>
    <path d="M35.8 26.7 Q35.8 27.9 35.0 28.75 34.2 29.55 32.95 29.55 31.8 29.55 30.95 28.75 30.15 27.9 30.15 26.7 30.15 25.5 30.95 24.7 31.8 23.85 32.95 23.85 34.2 23.85 35.0 24.7 35.8 25.5 35.8 26.7" fill="#fcd2ea" fill-rule="evenodd" stroke="none"/>
    <path d="M34.9 26.85 Q34.9 27.6 34.35 28.2 33.8 28.75 33.0 28.75 32.15 28.75 31.65 28.2 31.1 27.6 31.1 26.85 31.1 26.05 31.65 25.5 32.15 24.95 33.0 24.95 33.8 24.95 34.35 25.5 34.9 26.05 34.9 26.85" fill="#ffb8e0" fill-rule="evenodd" stroke="none"/>
    <path d="M34.1 16.4 Q33.05 16.4 32.3 15.65 31.55 14.9 31.55 13.85 31.55 12.8 32.3 12.05 33.05 11.3 34.1 11.3 35.15 11.3 35.9 12.05 36.65 12.8 36.65 13.85 36.65 14.9 35.9 15.65 35.15 16.4 34.1 16.4" fill="#ff6dbd" fill-rule="evenodd" stroke="none"/>
    <path d="M38.5 17.25 Q37.45 17.25 36.7 16.5 35.95 15.75 35.95 14.7 35.95 13.65 36.7 12.9 37.45 12.15 38.5 12.15 39.55 12.15 40.3 12.9 41.05 13.65 41.05 14.7 41.05 15.75 40.3 16.5 39.55 17.25 38.5 17.25" fill="#ff6dbd" fill-rule="evenodd" stroke="none"/>
    <path d="M38.5 21.55 Q37.45 21.55 36.7 20.8 35.95 20.05 35.95 19.0 35.95 17.95 36.7 17.2 37.45 16.45 38.5 16.45 39.55 16.45 40.3 17.2 41.05 17.95 41.05 19.0 41.05 20.05 40.3 20.8 39.55 21.55 38.5 21.55" fill="#ff6dbd" fill-rule="evenodd" stroke="none"/>
    <path d="M39.9 15.1 L39.45 16.2 Q39.0 16.65 38.3 16.65 37.65 16.65 37.2 16.2 36.75 15.7 36.75 15.1 36.75 14.4 37.2 13.95 37.65 13.5 38.3 13.5 39.0 13.5 39.45 13.95 39.9 14.4 39.9 15.1" fill="#ffb8e0" fill-rule="evenodd" stroke="none"/>
    <path d="M35.0 23.3 Q33.95 23.3 33.2 22.55 32.45 21.8 32.45 20.75 32.45 19.7 33.2 18.95 33.95 18.2 35.0 18.2 36.05 18.2 36.8 18.95 37.55 19.7 37.55 20.75 37.55 21.8 36.8 22.55 36.05 23.3 35.0 23.3" fill="#ff6dbd" fill-rule="evenodd" stroke="none"/>
    <path d="M32.05 20.25 Q31.0 20.25 30.25 19.5 29.5 18.75 29.5 17.7 29.5 16.65 30.25 15.9 31.0 15.15 32.05 15.15 33.1 15.15 33.85 15.9 34.6 16.65 34.6 17.7 34.6 18.75 33.85 19.5 33.1 20.25 32.05 20.25" fill="#ff6dbd" fill-rule="evenodd" stroke="none"/>
    <path d="M35.65 14.35 L35.2 15.45 Q34.75 15.9 34.05 15.9 33.4 15.9 32.95 15.45 32.5 14.95 32.5 14.35 32.5 13.65 32.95 13.2 33.4 12.75 34.05 12.75 34.75 12.75 35.2 13.2 35.65 13.65 35.65 14.35" fill="#ffb8e0" fill-rule="evenodd" stroke="none"/>
    <path d="M39.95 18.6 L39.5 19.7 Q39.05 20.15 38.35 20.15 37.7 20.15 37.25 19.7 36.8 19.2 36.8 18.6 36.8 17.9 37.25 17.45 37.7 17.0 38.35 17.0 39.05 17.0 39.5 17.45 39.95 17.9 39.95 18.6" fill="#ffb8e0" fill-rule="evenodd" stroke="none"/>
    <path d="M36.3 20.4 Q36.3 21.05 35.9 21.55 L34.75 21.95 Q34.1 21.95 33.65 21.55 33.2 21.05 33.2 20.4 33.2 19.75 33.65 19.3 34.1 18.85 34.75 18.85 35.45 18.85 35.9 19.3 36.3 19.75 36.3 20.4" fill="#ffb8e0" fill-rule="evenodd" stroke="none"/>
    <path d="M34.25 17.75 L33.8 18.85 Q33.35 19.3 32.65 19.3 32.0 19.3 31.55 18.85 31.1 18.35 31.1 17.75 31.1 17.05 31.55 16.6 32.0 16.15 32.65 16.15 33.35 16.15 33.8 16.6 34.25 17.05 34.25 17.75" fill="#ffb8e0" fill-rule="evenodd" stroke="none"/>
    <path d="M38.4 17.25 Q38.4 18.45 37.6 19.3 36.8 20.1 35.55 20.1 34.4 20.1 33.55 19.3 32.75 18.45 32.75 17.25 32.75 16.05 33.55 15.25 34.4 14.4 35.55 14.4 36.8 14.4 37.6 15.25 38.4 16.05 38.4 17.25" fill="#fcd2ea" fill-rule="evenodd" stroke="none"/>
    <path d="M37.55 17.3 Q37.55 18.05 37.0 18.65 36.45 19.2 35.65 19.2 34.8 19.2 34.3 18.65 33.75 18.05 33.75 17.3 33.75 16.5 34.3 15.95 34.8 15.4 35.65 15.4 36.45 15.4 37.0 15.95 37.55 16.5 37.55 17.3" fill="#ffb8e0" fill-rule="evenodd" stroke="none"/>
    <path d="M32.0 7.2 Q30.95 7.2 30.2 6.45 29.45 5.7 29.45 4.65 29.45 3.6 30.2 2.85 30.95 2.1 32.0 2.1 33.05 2.1 33.8 2.85 34.55 3.6 34.55 4.65 34.55 5.7 33.8 6.45 33.05 7.2 32.0 7.2" fill="#ff6dbd" fill-rule="evenodd" stroke="none"/>
    <path d="M36.4 7.95 Q35.35 7.95 34.6 7.2 33.85 6.45 33.85 5.4 33.85 4.35 34.6 3.6 35.35 2.85 36.4 2.85 37.45 2.85 38.2 3.6 38.95 4.35 38.95 5.4 38.95 6.45 38.2 7.2 37.45 7.95 36.4 7.95" fill="#ff6dbd" fill-rule="evenodd" stroke="none"/>
    <path d="M36.6 12.1 Q35.55 12.1 34.8 11.35 34.05 10.6 34.05 9.55 34.05 8.5 34.8 7.75 35.55 7.0 36.6 7.0 37.65 7.0 38.4 7.75 39.15 8.5 39.15 9.55 39.15 10.6 38.4 11.35 37.65 12.1 36.6 12.1" fill="#ff6dbd" fill-rule="evenodd" stroke="none"/>
    <path d="M37.95 5.8 L37.5 6.9 Q37.05 7.35 36.35 7.35 35.7 7.35 35.25 6.9 34.8 6.4 34.8 5.8 34.8 5.1 35.25 4.65 35.7 4.2 36.35 4.2 37.05 4.2 37.5 4.65 37.95 5.1 37.95 5.8" fill="#ffb8e0" fill-rule="evenodd" stroke="none"/>
    <path d="M33.05 14.05 Q32.0 14.05 31.25 13.3 30.5 12.55 30.5 11.5 30.5 10.45 31.25 9.7 32.0 8.95 33.05 8.95 34.1 8.95 34.85 9.7 35.6 10.45 35.6 11.5 35.6 12.55 34.85 13.3 34.1 14.05 33.05 14.05" fill="#ff6dbd" fill-rule="evenodd" stroke="none"/>
    <path d="M30.2 10.95 Q29.15 10.95 28.4 10.2 27.65 9.45 27.65 8.4 27.65 7.35 28.4 6.6 29.15 5.85 30.2 5.85 31.25 5.85 32.0 6.6 32.75 7.35 32.75 8.4 32.75 9.45 32.0 10.2 31.25 10.95 30.2 10.95" fill="#ff6dbd" fill-rule="evenodd" stroke="none"/>
    <path d="M33.75 5.0 L33.3 6.1 32.15 6.55 31.05 6.1 Q30.6 5.6 30.6 5.0 30.6 4.3 31.05 3.85 31.5 3.4 32.15 3.4 32.85 3.4 33.3 3.85 33.75 4.3 33.75 5.0" fill="#ffb8e0" fill-rule="evenodd" stroke="none"/>
    <path d="M38.1 9.6 L37.65 10.7 Q37.2 11.15 36.5 11.15 35.85 11.15 35.4 10.7 34.95 10.2 34.95 9.6 34.95 8.9 35.4 8.45 35.85 8.0 36.5 8.0 37.2 8.0 37.65 8.45 38.1 8.9 38.1 9.6" fill="#ffb8e0" fill-rule="evenodd" stroke="none"/>
    <path d="M34.45 11.15 Q34.45 11.8 34.05 12.3 33.6 12.7 32.9 12.7 32.25 12.7 31.8 12.3 31.35 11.8 31.35 11.15 31.35 10.5 31.8 10.05 32.25 9.6 32.9 9.6 33.6 9.6 34.05 10.05 34.45 10.5 34.45 11.15" fill="#ffb8e0" fill-rule="evenodd" stroke="none"/>
    <path d="M32.25 8.4 L31.8 9.5 Q31.35 9.95 30.65 9.95 30.0 9.95 29.55 9.5 29.1 9.0 29.1 8.4 29.1 7.7 29.55 7.25 30.0 6.8 30.65 6.8 31.35 6.8 31.8 7.25 32.25 7.7 32.25 8.4" fill="#ffb8e0" fill-rule="evenodd" stroke="none"/>
    <path d="M36.25 8.0 Q36.25 9.2 35.45 10.05 34.65 10.85 33.4 10.85 32.25 10.85 31.4 10.05 30.6 9.2 30.6 8.0 30.6 6.8 31.4 6.0 32.25 5.15 33.4 5.15 34.65 5.15 35.45 6.0 36.25 6.8 36.25 8.0" fill="#fcd2ea" fill-rule="evenodd" stroke="none"/>
    <path d="M35.3 8.2 Q35.3 8.95 34.75 9.55 34.2 10.1 33.4 10.1 32.55 10.1 32.05 9.55 31.5 8.95 31.5 8.2 31.5 7.4 32.05 6.85 32.55 6.3 33.4 6.3 34.2 6.3 34.75 6.85 35.3 7.4 35.3 8.2" fill="#ffb8e0" fill-rule="evenodd" stroke="none"/>
    <path d="M23.6 3.35 Q22.55 3.35 21.8 2.6 21.05 1.85 21.05 0.8 21.05 -0.25 21.8 -1.0 22.55 -1.75 23.6 -1.75 24.65 -1.75 25.4 -1.0 26.15 -0.25 26.15 0.8 26.15 1.85 25.4 2.6 24.65 3.35 23.6 3.35" fill="#ff6dbd" fill-rule="evenodd" stroke="none"/>
    <path d="M28.15 3.95 Q27.1 3.95 26.35 3.2 25.6 2.45 25.6 1.4 25.6 0.35 26.35 -0.4 27.1 -1.15 28.15 -1.15 29.2 -1.15 29.95 -0.4 30.7 0.35 30.7 1.4 30.7 2.45 29.95 3.2 29.2 3.95 28.15 3.95" fill="#ff6dbd" fill-rule="evenodd" stroke="none"/>
    <path d="M28.4 8.05 Q27.35 8.05 26.6 7.3 25.85 6.55 25.85 5.5 25.85 4.45 26.6 3.7 27.35 2.95 28.4 2.95 29.45 2.95 30.2 3.7 30.95 4.45 30.95 5.5 30.95 6.55 30.2 7.3 29.45 8.05 28.4 8.05" fill="#ff6dbd" fill-rule="evenodd" stroke="none"/>
    <path d="M29.7 2.15 L29.25 3.25 Q28.8 3.7 28.1 3.7 27.45 3.7 27.0 3.25 26.55 2.75 26.55 2.15 26.55 1.45 27.0 1.0 27.45 0.55 28.1 0.55 28.8 0.55 29.25 1.0 29.7 1.45 29.7 2.15" fill="#ffb8e0" fill-rule="evenodd" stroke="none"/>
    <path d="M24.6 10.1 Q23.55 10.1 22.8 9.35 22.05 8.6 22.05 7.55 22.05 6.5 22.8 5.75 23.55 5.0 24.6 5.0 25.65 5.0 26.4 5.75 27.15 6.5 27.15 7.55 27.15 8.6 26.4 9.35 25.65 10.1 24.6 10.1" fill="#ff6dbd" fill-rule="evenodd" stroke="none"/>
    <path d="M21.8 7.1 Q20.75 7.1 20.0 6.35 19.25 5.6 19.25 4.55 19.25 3.5 20.0 2.75 20.75 2.0 21.8 2.0 22.85 2.0 23.6 2.75 24.35 3.5 24.35 4.55 24.35 5.6 23.6 6.35 22.85 7.1 21.8 7.1" fill="#ff6dbd" fill-rule="evenodd" stroke="none"/>
    <path d="M25.5 1.0 L25.05 2.1 Q24.6 2.55 23.9 2.55 23.25 2.55 22.8 2.1 22.35 1.6 22.35 1.0 22.35 0.3 22.8 -0.15 23.25 -0.6 23.9 -0.6 24.6 -0.6 25.05 -0.15 25.5 0.3 25.5 1.0" fill="#ffb8e0" fill-rule="evenodd" stroke="none"/>
    <path d="M29.8 5.4 L29.35 6.5 28.2 6.95 Q27.55 6.95 27.1 6.5 26.65 6.0 26.65 5.4 26.65 4.7 27.1 4.25 27.55 3.8 28.2 3.8 28.9 3.8 29.35 4.25 29.8 4.7 29.8 5.4" fill="#ffb8e0" fill-rule="evenodd" stroke="none"/>
    <path d="M26.15 6.95 Q26.15 7.6 25.75 8.1 25.3 8.5 24.6 8.5 23.95 8.5 23.5 8.1 23.05 7.6 23.05 6.95 23.05 6.3 23.5 5.85 23.95 5.4 24.6 5.4 25.3 5.4 25.75 5.85 26.15 6.3 26.15 6.95" fill="#ffb8e0" fill-rule="evenodd" stroke="none"/>
    <path d="M23.9 4.65 Q23.9 5.25 23.45 5.75 23.0 6.2 22.3 6.2 21.65 6.2 21.2 5.75 20.75 5.25 20.75 4.65 20.75 3.95 21.2 3.5 21.65 3.05 22.3 3.05 23.0 3.05 23.45 3.5 23.9 3.95 23.9 4.65" fill="#ffb8e0" fill-rule="evenodd" stroke="none"/>
    <path d="M28.15 3.95 Q28.15 5.15 27.35 6.0 26.55 6.8 25.3 6.8 24.15 6.8 23.3 6.0 22.5 5.15 22.5 3.95 22.5 2.75 23.3 1.95 24.15 1.1 25.3 1.1 26.55 1.1 27.35 1.95 28.15 2.75 28.15 3.95" fill="#fcd2ea" fill-rule="evenodd" stroke="none"/>
    <path d="M27.3 4.15 Q27.3 4.9 26.75 5.5 26.2 6.05 25.4 6.05 24.55 6.05 24.05 5.5 23.5 4.9 23.5 4.15 23.5 3.35 24.05 2.8 24.55 2.25 25.4 2.25 26.2 2.25 26.75 2.8 27.3 3.35 27.3 4.15" fill="#ffb8e0" fill-rule="evenodd" stroke="none"/>
  </g>
  <defs>
    <linearGradient gradientTransform="matrix(0.0, 0.0034, -0.0127, 0.0, 30.5, 58.05)" gradientUnits="userSpaceOnUse" id="gradient0" spreadMethod="pad" x1="-819.2" x2="819.2">
      <stop offset="0.0" stop-color="#b41c59"/>
      <stop offset="1.0" stop-color="#800336"/>
    </linearGradient>
    <linearGradient gradientTransform="matrix(0.0331, 1.0E-4, 0.0, 0.0127, 25.5, 49.9)" gradientUnits="userSpaceOnUse" id="gradient1" spreadMethod="pad" x1="-819.2" x2="819.2">
      <stop offset="0.0" stop-color="#ff9cc3"/>
      <stop offset="1.0" stop-color="#e00059"/>
    </linearGradient>
    <linearGradient gradientTransform="matrix(7.0E-4, -0.0073, 0.0127, 0.0013, 49.55, 46.1)" gradientUnits="userSpaceOnUse" id="gradient2" spreadMethod="pad" x1="-819.2" x2="819.2">
      <stop offset="0.0" stop-color="#ff4a92"/>
      <stop offset="0.9764705882352941" stop-color="#ec2475"/>
    </linearGradient>
    <linearGradient gradientTransform="matrix(0.0331, 1.0E-4, 0.0, 0.0127, 25.5, 49.9)" gradientUnits="userSpaceOnUse" id="gradient3" spreadMethod="pad" x1="-819.2" x2="819.2">
      <stop offset="0.0" stop-color="#af064a"/>
      <stop offset="1.0" stop-color="#fa69a3"/>
    </linearGradient>
    <linearGradient gradientTransform="matrix(-0.0082, 0.0047, -0.0064, -0.011, 2.0, 43.15)" gradientUnits="userSpaceOnUse" id="gradient4" spreadMethod="pad" x1="-819.2" x2="819.2">
      <stop offset="0.0" stop-color="#f05191"/>
      <stop offset="1.0" stop-color="#cd125e"/>
    </linearGradient>
    <linearGradient gradientTransform="matrix(0.0, 0.0034, -0.0127, 0.0, 30.5, 58.05)" gradientUnits="userSpaceOnUse" id="gradient5" spreadMethod="pad" x1="-819.2" x2="819.2">
      <stop offset="0.0" stop-color="#d93376"/>
      <stop offset="1.0" stop-color="#b60a50"/>
    </linearGradient>
    <linearGradient gradientTransform="matrix(0.0331, 1.0E-4, 0.0, 0.0127, 25.5, 49.9)" gradientUnits="userSpaceOnUse" id="gradient6" spreadMethod="pad" x1="-819.2" x2="819.2">
      <stop offset="0.0" stop-color="#fa659f"/>
      <stop offset="1.0" stop-color="#db206b"/>
    </linearGradient>
    <linearGradient gradientTransform="matrix(0.0331, 1.0E-4, 0.0, 0.0127, 25.6, 50.05)" gradientUnits="userSpaceOnUse" id="gradient7" spreadMethod="pad" x1="-819.2" x2="819.2">
      <stop offset="0.0" stop-color="#a1104a"/>
      <stop offset="1.0" stop-color="#93013c"/>
    </linearGradient>
    <linearGradient gradientTransform="matrix(0.0331, 1.0E-4, 0.0, 0.0127, 25.6, 50.05)" gradientUnits="userSpaceOnUse" id="gradient8" spreadMethod="pad" x1="-819.2" x2="819.2">
      <stop offset="0.0" stop-color="#a1104a"/>
      <stop offset="1.0" stop-color="#cb1c62"/>
    </linearGradient>
    <linearGradient gradientTransform="matrix(0.0331, 1.0E-4, 0.0, 0.0127, 25.6, 50.05)" gradientUnits="userSpaceOnUse" id="gradient9" spreadMethod="pad" x1="-819.2" x2="819.2">
      <stop offset="0.0" stop-color="#c42565"/>
      <stop offset="1.0" stop-color="#cd1e65"/>
    </linearGradient>
    <linearGradient gradientTransform="matrix(0.5541, 0.0023, 0.0, 0.5537, 67.05, -39.85)" gradientUnits="userSpaceOnUse" id="gradient10" spreadMethod="pad" x1="-819.2" x2="819.2">
      <stop offset="0.0" stop-color="#85083a"/>
      <stop offset="1.0" stop-color="#9c003e"/>
    </linearGradient>
    <linearGradient gradientTransform="matrix(0.0331, 1.0E-4, 0.0, 0.0127, 25.6, 50.05)" gradientUnits="userSpaceOnUse" id="gradient11" spreadMethod="pad" x1="-819.2" x2="819.2">
      <stop offset="0.0" stop-color="#eb3e83"/>
      <stop offset="1.0" stop-color="#c7175e"/>
    </linearGradient>
    <linearGradient gradientTransform="matrix(0.0, 0.0034, -0.0127, 0.0, 30.5, 58.05)" gradientUnits="userSpaceOnUse" id="gradient12" spreadMethod="pad" x1="-819.2" x2="819.2">
      <stop offset="0.0" stop-color="#ec498b"/>
      <stop offset="1.0" stop-color="#db246f"/>
    </linearGradient>
    <linearGradient gradientTransform="matrix(0.5541, 0.0023, 0.0, 0.5537, 67.05, -39.85)" gradientUnits="userSpaceOnUse" id="gradient13" spreadMethod="pad" x1="-819.2" x2="819.2">
      <stop offset="0.0" stop-color="#85083a"/>
      <stop offset="1.0" stop-color="#c92466"/>
    </linearGradient>
    <linearGradient gradientTransform="matrix(0.0, 0.0034, -0.0127, 0.0, 30.5, 58.05)" gradientUnits="userSpaceOnUse" id="gradient14" spreadMethod="pad" x1="-819.2" x2="819.2">
      <stop offset="0.0" stop-color="#e94688"/>
      <stop offset="1.0" stop-color="#d71d69"/>
    </linearGradient>
    <linearGradient gradientTransform="matrix(0.0331, 1.0E-4, 0.0, 0.0127, 25.5, 49.9)" gradientUnits="userSpaceOnUse" id="gradient15" spreadMethod="pad" x1="-819.2" x2="819.2">
      <stop offset="0.0" stop-color="#98003d"/>
      <stop offset="1.0" stop-color="#c90754"/>
    </linearGradient>
    <linearGradient gradientTransform="matrix(1.0E-4, 0.0052, -0.0044, 2.0E-4, 35.7, 49.05)" gradientUnits="userSpaceOnUse" id="gradient16" spreadMethod="pad" x1="-819.2" x2="819.2">
      <stop offset="0.0" stop-color="#ef508f"/>
      <stop offset="1.0" stop-color="#bb054e"/>
    </linearGradient>
    <linearGradient gradientTransform="matrix(2.0E-4, 0.008, -0.0044, 2.0E-4, 36.5, 48.8)" gradientUnits="userSpaceOnUse" id="gradient17" spreadMethod="pad" x1="-819.2" x2="819.2">
      <stop offset="0.0" stop-color="#c60c57"/>
      <stop offset="1.0" stop-color="#fc8bb8"/>
    </linearGradient>
    <linearGradient gradientTransform="matrix(3.0E-4, 0.0033, -0.0037, 7.0E-4, 33.85, 51.15)" gradientUnits="userSpaceOnUse" id="gradient18" spreadMethod="pad" x1="-819.2" x2="819.2">
      <stop offset="0.0" stop-color="#c31f60"/>
      <stop offset="1.0" stop-color="#8a0239"/>
    </linearGradient>
    <linearGradient gradientTransform="matrix(0.0019, 0.007, -0.0034, 0.0021, 33.45, 49.15)" gradientUnits="userSpaceOnUse" id="gradient19" spreadMethod="pad" x1="-819.2" x2="819.2">
      <stop offset="0.0" stop-color="#eb3a80"/>
      <stop offset="1.0" stop-color="#a30947"/>
      <stop offset="1.0" stop-color="#c7175e"/>
    </linearGradient>
    <linearGradient gradientTransform="matrix(0.0011, -0.004, 0.0044, 0.0012, 15.3, 50.3)" gradientUnits="userSpaceOnUse" id="gradient20" spreadMethod="pad" x1="-819.2" x2="819.2">
      <stop offset="0.0" stop-color="#ff8eba"/>
      <stop offset="0.9921568627450981" stop-color="#f1679e"/>
    </linearGradient>
    <linearGradient gradientTransform="matrix(-0.0013, 0.0056, -0.0045, -0.0011, 27.45, 53.05)" gradientUnits="userSpaceOnUse" id="gradient21" spreadMethod="pad" x1="-819.2" x2="819.2">
      <stop offset="0.0" stop-color="#e73d82"/>
      <stop offset="1.0" stop-color="#ffbfd8"/>
    </linearGradient>
  </defs>
</svg>
