<?xml version="1.0" encoding="UTF-8" standalone="no"?>
<svg xmlns:xlink="http://www.w3.org/1999/xlink" height="54.0px" width="52.95px" xmlns="http://www.w3.org/2000/svg">
  <g transform="matrix(1.0, 0.0, 0.0, 1.0, 2.75, 0.75)">
    <path d="M40.9 -0.2 L44.45 31.2 44.35 31.2 45.05 33.5 Q47.5 38.0 48.95 44.05 L49.8 48.6 Q38.4 54.2 25.4 52.2 L23.95 45.9 22.55 52.3 Q9.35 54.4 -2.35 48.65 L-1.8 44.8 -1.2 41.95 Q-0.2 38.2 1.65 33.65 L2.5 30.55 6.15 -0.35 40.9 -0.2" fill="#e01c6a" fill-rule="evenodd" stroke="none"/>
    <path d="M40.9 -0.2 L44.45 31.2 44.35 31.2 45.05 33.5 Q47.5 38.0 48.95 44.05 L49.8 48.6 Q38.4 54.2 25.4 52.2 L23.95 45.9 22.55 52.3 Q9.35 54.4 -2.35 48.65 L-1.8 44.8 -1.2 41.95 Q-0.2 38.2 1.65 33.65 L2.5 30.55 6.15 -0.35 40.9 -0.2 Z" fill="none" stroke="#830645" stroke-linecap="round" stroke-linejoin="round" stroke-width="0.8"/>
    <path d="M1.65 33.65 L2.6 30.2 2.5 31.2 8.8 32.5 10.7 32.8 12.2 33.0 Q29.25 35.2 44.25 30.95 L45.05 33.5 44.75 33.6 43.65 34.0 43.55 34.0 Q34.5 37.0 23.6 37.2 13.1 37.25 3.8 34.45 L2.5 34.0 1.65 33.65" fill="#9a0742" fill-rule="evenodd" stroke="none"/>
    <path d="M45.05 33.5 Q47.5 38.0 48.95 44.05 L49.8 48.6 Q38.4 54.2 25.4 52.2 L24.6 48.9 Q25.6 51.8 30.8 51.4 39.3 51.0 43.5 49.7 47.7 48.3 48.2 47.35 48.7 46.3 48.65 44.5 48.5 42.75 44.75 33.6 L45.05 33.5 M23.4 48.25 L22.55 52.3 Q9.35 54.4 -2.35 48.65 L-1.8 44.8 -1.2 41.95 Q-0.2 38.2 1.65 33.65 L2.5 34.0 Q0.3 38.65 -0.85 45.65 -1.05 46.7 -0.05 47.35 4.9 50.25 14.5 51.1 21.9 51.75 23.4 48.25" fill="#c7175e" fill-rule="evenodd" stroke="none"/>
    <path d="M24.6 48.9 L23.95 45.9 23.4 48.25 Q21.9 51.75 14.5 51.1 4.9 50.25 -0.05 47.35 -1.05 46.7 -0.85 45.65 0.3 38.65 2.5 34.0 L3.8 34.45 2.8 39.05 Q1.7 44.1 1.7 44.7 1.7 45.75 1.95 46.0 2.2 46.45 3.0 46.45 4.05 46.45 4.9 44.3 L5.1 44.3 Q5.0 47.25 9.1 48.25 L16.1 48.9 Q18.0 48.9 19.6 48.15 21.1 47.4 21.3 45.5 21.5 43.4 21.1 42.95 20.75 42.4 19.0 41.55 L19.65 41.65 21.15 41.45 28.45 41.45 Q26.2 42.15 26.15 42.85 L26.15 45.55 Q26.2 47.35 28.2 48.0 L33.7 48.55 Q37.15 48.6 39.1 47.75 40.95 46.85 40.85 42.3 L42.3 46.05 Q42.55 47.1 44.25 46.55 L45.5 46.1 Q46.7 45.35 46.2 43.2 L43.65 34.0 44.75 33.6 Q48.5 42.75 48.65 44.5 48.7 46.3 48.2 47.35 47.7 48.3 43.5 49.7 39.3 51.0 30.8 51.4 25.6 51.8 24.6 48.9" fill="#e08cb6" fill-rule="evenodd" stroke="none"/>
    <path d="M3.8 34.45 Q13.1 37.25 23.6 37.2 34.5 37.0 43.55 34.0 L43.65 34.0 46.2 43.2 Q46.7 45.35 45.5 46.1 L44.25 46.55 Q42.55 47.1 42.3 46.05 L40.85 42.3 Q40.95 46.85 39.1 47.75 37.15 48.6 33.7 48.55 L28.2 48.0 Q26.2 47.35 26.15 45.55 L26.15 42.85 Q26.2 42.15 28.45 41.45 L21.15 41.45 19.65 41.65 19.0 41.55 Q20.75 42.4 21.1 42.95 21.5 43.4 21.3 45.5 21.1 47.4 19.6 48.15 18.0 48.9 16.1 48.9 L9.1 48.25 Q5.0 47.25 5.1 44.3 L4.9 44.3 Q4.05 46.45 3.0 46.45 2.2 46.45 1.95 46.0 1.7 45.75 1.7 44.7 1.7 44.1 2.8 39.05 L3.8 34.45 M9.9 43.3 L9.9 43.55 9.9 43.95 Q10.1 46.15 11.5 46.5 L14.25 47.0 16.1 47.3 Q16.6 47.25 17.3 46.6 17.8 46.0 17.8 45.1 17.8 43.8 17.05 43.1 L15.3 41.8 13.7 40.45 Q12.9 39.9 11.65 39.9 10.75 39.9 10.25 40.6 9.95 40.95 9.9 41.7 L9.9 43.3 M29.65 43.3 L29.45 43.8 Q28.85 45.05 28.85 45.8 28.85 46.65 29.7 46.85 L31.35 46.9 Q33.25 46.9 34.5 44.95 35.65 43.15 35.6 41.05 35.6 40.35 35.4 40.15 L34.5 40.0 33.0 40.35 Q31.6 40.8 30.65 41.55 L29.95 42.15 Q30.2 41.95 30.1 42.2 L30.0 42.6 29.65 43.3" fill="#fabedb" fill-rule="evenodd" stroke="none"/>
    <path d="M34.1 20.1 L34.15 20.15 34.2 20.5 34.25 20.9 33.65 21.0 33.25 20.95 33.0 20.8 32.95 20.5 Q32.95 20.15 33.3 20.05 L34.1 20.1" fill="#ecabcc" fill-rule="evenodd" stroke="none"/>
    <path d="M29.65 43.3 L30.0 42.6 30.1 42.2 Q30.2 41.95 29.95 42.15 L30.65 41.55 Q31.6 40.8 33.0 40.35 L34.5 40.0 35.4 40.15 Q35.6 40.35 35.6 41.05 35.65 43.15 34.5 44.95 33.25 46.9 31.35 46.9 L29.7 46.85 Q28.85 46.65 28.85 45.8 28.85 45.05 29.45 43.8 L29.65 43.3 M9.9 43.3 L9.9 41.7 Q9.95 40.95 10.25 40.6 10.75 39.9 11.65 39.9 12.9 39.9 13.7 40.45 L15.3 41.8 17.05 43.1 Q17.8 43.8 17.8 45.1 17.8 46.0 17.3 46.6 16.6 47.25 16.1 47.3 L14.25 47.0 11.5 46.5 Q10.1 46.15 9.9 43.95 L9.9 43.55 9.9 43.3" fill="#ffd4e9" fill-rule="evenodd" stroke="none"/>
    <path d="M38.4 -0.2 L40.9 -0.2 40.95 0.3 36.9 1.55 36.6 0.4 38.4 -0.2 M6.05 0.35 L6.15 -0.35 8.5 -0.3 9.85 0.0 9.35 1.55 6.05 0.35" fill="#e72170" fill-rule="evenodd" stroke="none"/>
    <path d="M8.5 -0.3 L38.4 -0.2 36.6 0.4 28.0 3.55 Q24.0 4.7 23.0 6.15 21.3 3.3 9.85 0.0 L8.5 -0.3" fill="#8c466a" fill-rule="evenodd" stroke="none"/>
    <path d="M41.6 6.2 L44.15 29.05 40.8 30.0 Q42.6 21.05 39.0 7.25 L41.6 6.2 M6.15 32.15 L2.4 31.45 5.35 6.1 7.7 6.95 4.8 26.8 Q4.0 31.15 6.15 32.15" fill="#e7a5c6" fill-rule="evenodd" stroke="none"/>
    <path d="M44.15 29.05 L44.45 31.2 39.9 32.2 40.8 30.0 44.15 29.05" fill="#a30042" fill-rule="evenodd" stroke="none"/>
    <path d="M40.95 0.3 L41.6 6.2 39.0 7.25 36.65 8.2 Q38.35 6.45 37.8 4.7 L36.9 1.55 40.95 0.3 M5.35 6.1 L6.05 0.35 9.35 1.55 8.95 4.8 Q8.6 7.2 10.95 8.2 L7.7 6.95 5.35 6.1" fill="#c20a54" fill-rule="evenodd" stroke="none"/>
    <path d="M23.0 6.15 Q24.0 4.7 28.0 3.55 L36.6 0.4 36.9 1.55 29.9 4.15 Q27.7 5.1 26.7 6.05 25.8 6.85 25.65 7.9 25.35 9.35 25.6 9.95 25.85 10.9 28.8 11.3 L27.5 11.85 Q25.05 12.5 23.6 11.85 L23.15 11.6 Q22.6 11.1 22.2 10.4 L22.45 10.0 22.6 7.15 Q22.6 6.65 23.0 6.15" fill="#f36ba2" fill-rule="evenodd" stroke="none"/>
    <path d="M12.2 33.1 L10.7 32.8 8.8 32.6 6.15 32.15 Q4.0 31.15 4.8 26.8 L7.7 6.95 10.95 8.2 18.3 11.05 19.9 11.75 Q19.7 11.75 19.6 11.85 L16.75 12.95 15.5 13.65 Q11.6 16.45 11.1 20.25 10.55 24.4 10.3 28.0 10.0 31.55 12.2 33.1 M36.65 8.2 L39.0 7.25 Q42.6 21.05 40.8 30.0 29.5 32.35 15.05 31.45 12.35 31.1 12.55 26.75 12.85 22.4 13.95 18.4 15.0 15.85 18.35 14.4 L18.55 14.3 Q21.45 13.45 23.6 11.85 25.05 12.5 27.5 11.85 L28.8 11.3 36.65 8.2" fill="#fabedb" fill-rule="evenodd" stroke="none"/>
    <path d="M36.9 1.55 L37.8 4.7 Q38.35 6.45 36.65 8.2 L28.8 11.3 Q25.85 10.9 25.6 9.95 25.35 9.35 25.65 7.9 25.8 6.85 26.7 6.05 27.7 5.1 29.9 4.15 L36.9 1.55 M18.3 11.05 L10.95 8.2 Q8.6 7.2 8.95 4.8 L9.35 1.55 15.7 4.1 18.75 5.6 19.8 6.65 Q20.8 7.9 20.5 9.7 20.05 11.35 18.3 11.05" fill="#d42169" fill-rule="evenodd" stroke="none"/>
    <path d="M9.85 0.0 Q21.3 3.3 23.0 6.15 22.6 6.65 22.6 7.15 L22.45 10.0 22.2 10.4 Q21.45 12.0 19.9 11.75 L18.3 11.05 Q20.05 11.35 20.5 9.7 20.8 7.9 19.8 6.65 L18.75 5.6 15.7 4.1 9.35 1.55 9.85 0.0" fill="#f05191" fill-rule="evenodd" stroke="none"/>
    <path d="M39.9 32.2 Q32.0 33.8 23.65 33.8 L12.2 33.1 Q10.0 31.55 10.3 28.0 10.55 24.4 11.1 20.25 11.6 16.45 15.5 13.65 L16.75 12.95 19.6 11.85 Q19.7 11.75 19.9 11.75 21.45 12.0 22.2 10.4 22.6 11.1 23.15 11.6 L23.6 11.85 Q21.45 13.45 18.55 14.3 L18.35 14.4 Q15.0 15.85 13.95 18.4 12.85 22.4 12.55 26.75 12.35 31.1 15.05 31.45 29.5 32.35 40.8 30.0 L39.9 32.2" fill="#c7175e" fill-rule="evenodd" stroke="none"/>
    <path d="M18.55 17.85 Q18.45 18.4 17.85 18.65 L16.55 18.85 8.0 17.8 Q7.25 17.7 6.7 17.25 6.3 16.85 6.35 16.35 L6.35 16.3 Q6.45 15.8 6.95 15.45 L8.3 15.3 16.9 16.35 Q17.65 16.45 18.1 16.85 18.6 17.3 18.55 17.85" fill="#ad074a" fill-rule="evenodd" stroke="none"/>
    <path d="M18.05 17.75 L18.05 17.8 17.5 18.3 16.35 18.35 8.85 17.3 7.8 16.9 7.45 16.3 Q7.5 15.95 8.0 15.75 8.6 15.6 9.25 15.75 L16.7 16.75 17.75 17.15 Q18.2 17.4 18.05 17.75" fill="#ec6199" fill-rule="evenodd" stroke="none"/>
    <path d="M10.7 15.15 Q11.45 14.2 12.65 14.05 13.95 13.9 14.9 14.65 15.9 15.3 16.1 16.6 16.25 17.75 15.6 18.8 14.85 19.8 13.5 19.95 12.35 20.05 11.3 19.3 10.25 18.6 10.1 17.4 9.85 16.15 10.7 15.15" fill="#ad0b4c" fill-rule="evenodd" stroke="none"/>
    <path d="M11.5 15.9 Q12.0 15.25 12.8 15.15 13.6 15.05 14.2 15.55 14.85 16.0 15.0 16.75 15.1 17.5 14.65 18.25 14.15 18.8 13.35 18.9 12.55 19.05 11.95 18.55 11.3 18.1 11.2 17.35 11.1 16.55 11.5 15.9" fill="#e52371" fill-rule="evenodd" stroke="none"/>
    <path d="M5.35 24.55 L6.7 24.35 15.25 25.45 Q16.0 25.55 16.45 25.95 17.0 26.35 16.9 26.9 16.85 27.45 16.25 27.75 L14.95 27.95 6.4 26.85 Q5.6 26.75 5.15 26.35 4.7 25.95 4.75 25.4 4.85 24.85 5.35 24.55" fill="#ad074a" fill-rule="evenodd" stroke="none"/>
    <path d="M14.8 25.7 Q15.5 25.8 15.9 26.05 16.35 26.3 16.3 26.65 L16.3 26.7 15.75 27.15 14.6 27.25 6.95 26.3 5.75 25.9 Q5.35 25.65 5.45 25.3 5.45 24.95 5.95 24.8 L7.15 24.75 14.8 25.7" fill="#ec6199" fill-rule="evenodd" stroke="none"/>
    <path d="M12.85 23.9 Q13.85 24.65 14.05 25.9 14.2 27.15 13.5 28.1 12.75 29.05 11.5 29.25 10.25 29.4 9.25 28.65 8.2 27.95 8.05 26.7 7.85 25.5 8.6 24.4 9.4 23.4 10.65 23.25 11.85 23.15 12.85 23.9" fill="#af094c" fill-rule="evenodd" stroke="none"/>
    <path d="M13.1 26.15 Q13.15 26.95 12.65 27.65 12.15 28.3 11.3 28.4 10.45 28.55 9.8 28.05 9.05 27.5 9.0 26.7 8.8 25.85 9.3 25.15 9.85 24.45 10.7 24.35 11.5 24.2 12.2 24.75 12.9 25.3 13.1 26.15" fill="#e52371" fill-rule="evenodd" stroke="none"/>
    <path d="M34.65 21.25 Q34.1 20.35 34.4 19.3 34.7 18.25 35.65 17.7 36.6 17.2 37.6 17.45 38.65 17.75 39.2 18.65 39.8 19.6 39.5 20.65 39.25 21.7 38.3 22.2 37.35 22.75 36.3 22.5 35.25 22.2 34.65 21.25" fill="#eb3e83" fill-rule="evenodd" stroke="none"/>
    <path d="M38.55 21.45 Q39.6 21.75 40.2 22.65 40.75 23.6 40.5 24.65 40.2 25.65 39.25 26.2 L37.25 26.45 Q36.2 26.2 35.65 25.25 35.1 24.35 35.3 23.25 35.6 22.2 36.55 21.7 37.55 21.15 38.55 21.45" fill="#eb3e83" fill-rule="evenodd" stroke="none"/>
    <path d="M31.85 27.3 Q31.3 26.4 31.6 25.35 31.9 24.3 32.85 23.75 33.8 23.25 34.8 23.5 35.85 23.8 36.4 24.7 37.0 25.65 36.7 26.7 36.45 27.75 35.5 28.25 34.55 28.8 33.5 28.55 32.45 28.25 31.85 27.3" fill="#eb3e83" fill-rule="evenodd" stroke="none"/>
    <path d="M28.6 24.95 Q28.05 24.05 28.35 23.0 28.65 21.95 29.6 21.4 30.55 20.9 31.55 21.15 32.6 21.45 33.15 22.35 33.75 23.3 33.45 24.35 33.2 25.4 32.25 25.9 31.3 26.45 30.25 26.2 29.2 25.9 28.6 24.95" fill="#eb3e83" fill-rule="evenodd" stroke="none"/>
    <path d="M29.95 21.25 Q29.4 20.35 29.7 19.3 30.0 18.25 30.95 17.7 L32.9 17.45 Q33.95 17.75 34.5 18.65 35.1 19.6 34.8 20.65 34.55 21.7 33.6 22.2 32.65 22.75 31.6 22.5 30.55 22.2 29.95 21.25" fill="#eb3e83" fill-rule="evenodd" stroke="none"/>
    <path d="M35.85 25.2 L33.55 25.45 Q32.4 25.2 31.75 24.1 31.1 23.1 31.4 21.9 31.75 20.8 32.85 20.2 33.9 19.55 35.0 19.85 36.2 20.2 36.85 21.2 37.5 22.3 37.15 23.4 36.9 24.55 35.85 25.2" fill="#ff85b5" fill-rule="evenodd" stroke="none"/>
    <path d="M35.35 24.2 L34.05 24.4 Q33.4 24.25 33.0 23.6 32.65 23.05 32.8 22.35 33.0 21.7 33.6 21.35 34.2 21.0 34.85 21.15 35.55 21.35 35.9 21.9 36.3 22.55 36.1 23.2 L35.35 24.2" fill="#eb3e83" fill-rule="evenodd" stroke="none"/>
    <path d="M27.35 26.45 Q26.9 26.0 26.9 25.45 26.9 24.85 27.3 24.45 27.75 24.05 28.35 24.05 28.9 24.0 29.35 24.45 29.75 24.85 29.8 25.45 L29.35 26.4 Q28.95 26.8 28.35 26.85 27.75 26.85 27.35 26.45" fill="#eb3e83" fill-rule="evenodd" stroke="none"/>
    <path d="M28.2 28.55 Q27.75 28.1 27.75 27.55 27.75 26.95 28.15 26.55 28.6 26.15 29.2 26.15 29.75 26.1 30.2 26.55 30.6 26.95 30.65 27.55 L30.2 28.5 Q29.8 28.9 29.2 28.95 28.6 28.95 28.2 28.55" fill="#eb3e83" fill-rule="evenodd" stroke="none"/>
    <path d="M26.45 30.1 Q26.0 29.65 26.0 29.1 26.0 28.5 26.4 28.1 26.85 27.7 27.45 27.7 28.0 27.65 28.45 28.1 28.85 28.5 28.9 29.1 28.9 29.65 28.45 30.05 28.05 30.45 27.45 30.5 26.85 30.5 26.45 30.1" fill="#eb3e83" fill-rule="evenodd" stroke="none"/>
    <path d="M24.8 29.4 Q24.35 28.95 24.35 28.4 24.35 27.8 24.75 27.4 25.2 27.0 25.8 27.0 26.35 26.95 26.8 27.4 27.2 27.8 27.25 28.4 L26.8 29.35 Q26.4 29.75 25.8 29.8 25.2 29.8 24.8 29.4" fill="#eb3e83" fill-rule="evenodd" stroke="none"/>
    <path d="M24.8 27.1 Q24.35 26.65 24.35 26.1 24.35 25.5 24.75 25.1 25.2 24.7 25.8 24.7 26.35 24.65 26.8 25.1 27.2 25.5 27.25 26.1 L26.8 27.05 Q26.4 27.45 25.8 27.5 25.2 27.5 24.8 27.1" fill="#eb3e83" fill-rule="evenodd" stroke="none"/>
    <path d="M28.35 28.5 Q27.9 28.95 27.2 29.0 26.6 29.0 26.1 28.5 25.6 28.05 25.6 27.45 25.6 26.75 26.05 26.3 26.55 25.8 27.2 25.85 27.85 25.85 28.35 26.3 28.85 26.8 28.8 27.4 28.85 28.0 28.35 28.5" fill="#ff85b5" fill-rule="evenodd" stroke="none"/>
    <path d="M27.95 28.15 L27.25 28.45 Q26.85 28.45 26.55 28.2 26.25 27.9 26.25 27.5 26.25 27.1 26.55 26.8 26.85 26.55 27.25 26.55 27.65 26.55 27.95 26.85 L28.25 27.5 27.95 28.15" fill="#eb3e83" fill-rule="evenodd" stroke="none"/>
  </g>
</svg>
