<?xml version="1.0" encoding="UTF-8" standalone="no"?>
<svg xmlns:xlink="http://www.w3.org/1999/xlink" height="54.2px" width="53.0px" xmlns="http://www.w3.org/2000/svg">
  <g transform="matrix(1.0, 0.0, 0.0, 1.0, 3.6, 2.05)">
    <path d="M5.9 -1.65 L40.7 -1.5 43.8 26.9 43.9 26.85 44.45 32.35 Q46.85 36.8 48.2 42.85 L49.0 47.45 Q37.55 53.05 24.55 51.05 L23.15 44.8 21.7 51.2 Q8.45 53.25 -3.2 47.45 L-2.6 43.65 -1.95 40.8 Q-0.9 36.95 1.05 32.5 L2.1 28.05 5.9 -1.65" fill="#e92d6b" fill-rule="evenodd" stroke="none"/>
    <path d="M5.9 -1.65 L2.1 28.05 1.05 32.5 Q-0.9 36.95 -1.95 40.8 L-2.6 43.65 -3.2 47.45 Q8.45 53.25 21.7 51.2 L23.15 44.8 24.55 51.05 Q37.55 53.05 49.0 47.45 L48.2 42.85 Q46.85 36.8 44.45 32.35 L43.9 26.85 43.8 26.9 40.7 -1.5 5.9 -1.65 Z" fill="none" stroke="#830645" stroke-linecap="round" stroke-linejoin="round" stroke-width="0.8"/>
    <path d="M8.65 -1.65 Q4.45 25.7 7.55 31.25 L5.55 30.95 1.8 30.3 5.9 -1.65 8.65 -1.65 M37.5 31.35 Q40.6 24.15 38.25 -1.5 L40.7 -1.5 43.8 27.05 43.8 30.0 39.3 31.0 37.5 31.35" fill="#e72a68" fill-rule="evenodd" stroke="none"/>
    <path d="M8.65 -1.65 L38.25 -1.5 Q40.6 24.15 37.5 31.35 L23.05 32.6 11.65 31.9 10.1 31.65 8.25 31.35 7.55 31.25 Q4.45 25.7 8.65 -1.65" fill="#f84982" fill-rule="evenodd" stroke="none"/>
    <path d="M1.05 32.5 L2.3 27.1 Q7.65 29.6 12.65 30.0 21.15 30.7 26.6 30.35 36.25 29.9 43.9 26.85 L44.45 32.35 44.15 32.4 43.05 32.75 42.9 32.8 Q33.85 35.85 23.0 36.0 L9.8 34.9 6.35 34.15 3.2 33.3 1.9 32.8 1.05 32.5" fill="#9a0742" fill-rule="evenodd" stroke="none"/>
    <path d="M1.05 32.5 L1.9 32.8 Q-0.45 37.55 -1.6 44.4 -1.85 45.55 -0.85 46.2 4.05 49.1 13.7 49.95 21.15 50.6 22.6 47.1 L21.7 51.2 Q8.45 53.25 -3.2 47.45 L-2.6 43.65 -1.95 40.8 Q-0.9 36.95 1.05 32.5 M44.15 32.4 L44.45 32.35 Q46.85 36.8 48.2 42.85 L49.0 47.45 Q37.55 53.05 24.55 51.05 L23.8 47.65 Q24.8 50.65 30.0 50.25 38.5 49.85 42.7 48.55 46.9 47.15 47.45 46.15 47.95 45.05 47.9 43.4 47.75 41.6 44.15 32.4" fill="#db947b" fill-rule="evenodd" stroke="none"/>
    <path d="M1.9 32.8 L3.2 33.3 2.1 37.8 Q0.95 42.95 0.95 43.5 0.95 44.55 1.2 44.85 1.5 45.3 2.25 45.3 3.25 45.3 4.15 43.2 L4.3 43.2 Q4.25 46.1 8.3 47.1 L15.3 47.75 Q17.2 47.75 18.8 47.0 20.4 46.25 20.55 44.3 20.75 42.3 20.4 41.75 20.0 41.2 18.3 40.4 L18.95 40.45 20.45 40.2 27.75 40.2 Q25.5 40.9 25.45 41.65 L25.4 44.3 Q25.45 46.2 27.35 46.8 L32.9 47.4 Q36.35 47.45 38.3 46.6 40.15 45.7 40.1 41.05 41.4 43.95 41.55 44.9 41.8 45.9 43.5 45.4 L44.8 44.95 Q45.95 44.2 45.55 41.95 L43.05 32.75 44.15 32.4 Q47.75 41.6 47.9 43.4 47.95 45.05 47.45 46.15 46.9 47.15 42.7 48.55 38.5 49.85 30.0 50.25 24.8 50.65 23.8 47.65 L23.15 44.8 22.6 47.1 Q21.15 50.6 13.7 49.95 4.05 49.1 -0.85 46.2 -1.85 45.55 -1.6 44.4 -0.45 37.55 1.9 32.8" fill="#f0b6a1" fill-rule="evenodd" stroke="none"/>
    <path d="M3.2 33.3 L6.35 34.15 9.8 34.9 23.0 36.0 Q33.85 35.85 42.9 32.8 L43.05 32.75 45.55 41.95 Q45.95 44.2 44.8 44.95 L43.5 45.4 Q41.8 45.9 41.55 44.9 41.4 43.95 40.1 41.05 40.15 45.7 38.3 46.6 36.35 47.45 32.9 47.4 L27.35 46.8 Q25.45 46.2 25.4 44.3 L25.45 41.65 Q25.5 40.9 27.75 40.2 L20.45 40.2 18.95 40.45 18.3 40.4 Q20.0 41.2 20.4 41.75 20.75 42.3 20.55 44.3 20.4 46.25 18.8 47.0 17.2 47.75 15.3 47.75 L8.3 47.1 Q4.25 46.1 4.3 43.2 L4.15 43.2 Q3.25 45.3 2.25 45.3 1.5 45.3 1.2 44.85 0.95 44.55 0.95 43.5 0.95 42.95 2.1 37.8 L3.2 33.3 M9.15 42.15 L9.15 42.45 9.15 42.75 Q9.35 44.95 10.75 45.3 L13.5 45.85 15.35 46.15 16.45 45.5 Q17.1 44.85 17.1 43.95 17.1 42.65 16.3 41.9 15.15 41.25 14.6 40.65 L13.0 39.25 Q12.2 38.75 10.95 38.75 10.05 38.75 9.6 39.4 9.25 39.8 9.2 40.55 L9.15 42.15 M29.3 40.9 Q29.5 40.8 29.4 40.95 L29.3 41.5 28.95 42.15 28.65 42.65 Q28.1 43.95 28.1 44.65 28.1 45.5 29.0 45.7 L30.65 45.75 Q32.55 45.75 33.75 43.8 34.95 41.95 34.95 39.9 L34.7 39.0 33.8 38.85 32.25 39.2 Q30.85 39.6 29.95 40.3 L29.3 40.9" fill="#facebe" fill-rule="evenodd" stroke="none"/>
    <path d="M29.3 40.9 L29.95 40.3 Q30.85 39.6 32.25 39.2 L33.8 38.85 34.7 39.0 34.95 39.9 Q34.95 41.95 33.75 43.8 32.55 45.75 30.65 45.75 L29.0 45.7 Q28.1 45.5 28.1 44.65 28.1 43.95 28.65 42.65 L28.95 42.15 29.3 41.5 29.4 40.95 Q29.5 40.8 29.3 40.9 M9.15 42.15 L9.2 40.55 Q9.25 39.8 9.6 39.4 10.05 38.75 10.95 38.75 12.2 38.75 13.0 39.25 L14.6 40.65 Q15.15 41.25 16.3 41.9 17.1 42.65 17.1 43.95 17.1 44.85 16.45 45.5 L15.35 46.15 13.5 45.85 10.75 45.3 Q9.35 44.95 9.15 42.75 L9.15 42.45 9.15 42.15" fill="#fae2da" fill-rule="evenodd" stroke="none"/>
    <path d="M34.8 29.55 L36.25 34.35 Q37.65 35.65 38.75 33.95 L37.25 29.25 Q35.7 27.8 34.8 29.55 M33.85 29.1 Q34.8 26.55 37.6 27.75 L39.65 34.3 Q38.2 37.2 35.75 35.65 L33.85 29.1 M11.2 28.9 L10.1 35.65 Q7.35 37.05 6.1 34.6 L7.4 27.85 Q9.95 26.25 11.2 28.9 M10.3 29.8 Q9.55 27.9 7.95 29.0 L7.0 33.95 Q7.7 35.75 9.45 34.75 L10.3 29.8" fill="#d9673f" fill-rule="evenodd" stroke="none"/>
    <path d="M34.8 29.55 Q35.7 27.8 37.25 29.25 L38.75 33.95 Q37.65 35.65 36.25 34.35 L34.8 29.55 M10.3 29.8 L9.45 34.75 Q7.7 35.75 7.0 33.95 L7.95 29.0 Q9.55 27.9 10.3 29.8" fill="#f59370" fill-rule="evenodd" stroke="none"/>
    <path d="M24.65 3.3 Q24.65 4.75 25.65 5.75 26.7 6.7 28.05 6.7 29.5 6.7 30.55 5.75 31.55 4.75 31.55 3.3 31.55 1.85 30.55 0.85 29.5 -0.15 28.05 -0.15 26.7 -0.15 25.65 0.85 24.65 1.85 24.65 3.3" fill="#ffd7e3" fill-rule="evenodd" stroke="none"/>
    <path d="M31.4 9.15 Q31.4 7.65 30.35 6.6 29.3 5.6 27.8 5.6 26.35 5.6 25.3 6.6 24.2 7.65 24.2 9.15 24.2 10.65 25.3 11.65 26.35 12.7 27.8 12.7 29.3 12.7 30.35 11.65 31.4 10.65 31.4 9.15" fill="#ffd7e3" fill-rule="evenodd" stroke="none"/>
    <path d="M31.75 15.35 Q31.75 13.8 30.6 12.7 29.5 11.6 27.95 11.6 26.4 11.6 25.25 12.7 24.15 13.8 24.15 15.35 24.15 16.95 25.25 18.0 26.4 19.1 27.95 19.1 29.5 19.1 30.6 18.0 31.75 16.95 31.75 15.35" fill="#ffd7e3" fill-rule="evenodd" stroke="none"/>
    <path d="M31.5 22.2 Q31.55 20.65 30.5 19.5 29.45 18.45 27.9 18.4 26.35 18.35 25.25 19.4 24.15 20.45 24.1 22.0 24.05 23.55 25.1 24.65 26.15 25.7 27.7 25.75 29.25 25.8 30.35 24.75 31.45 23.75 31.5 22.2" fill="#ffd7e3" fill-rule="evenodd" stroke="none"/>
    <path d="M26.35 26.2 Q26.35 24.6 25.2 23.45 24.1 22.35 22.45 22.35 20.85 22.35 19.75 23.45 18.6 24.6 18.6 26.2 18.6 27.8 19.75 28.9 20.85 30.05 22.45 30.05 24.1 30.05 25.2 28.9 26.35 27.8 26.35 26.2" fill="#ffd7e3" fill-rule="evenodd" stroke="none"/>
    <path d="M20.7 3.25 Q20.7 4.8 19.6 5.85 18.5 6.9 17.0 6.9 15.45 6.9 14.35 5.85 13.3 4.8 13.3 3.25 13.3 1.7 14.35 0.6 15.45 -0.45 17.0 -0.45 18.5 -0.45 19.6 0.6 20.7 1.7 20.7 3.25" fill="#ffd7e3" fill-rule="evenodd" stroke="none"/>
    <path d="M13.45 9.0 Q13.45 7.4 14.6 6.3 15.7 5.2 17.3 5.2 18.9 5.2 20.0 6.3 21.15 7.4 21.15 9.0 21.15 10.55 20.0 11.65 18.9 12.8 17.3 12.8 15.7 12.8 14.6 11.65 13.45 10.55 13.45 9.0" fill="#ffd7e3" fill-rule="evenodd" stroke="none"/>
    <path d="M13.4 15.35 Q13.4 13.8 14.5 12.7 15.6 11.6 17.2 11.6 18.75 11.6 19.85 12.7 20.95 13.8 20.95 15.35 20.95 16.9 19.85 18.0 18.75 19.1 17.2 19.1 15.6 19.1 14.5 18.0 13.4 16.9 13.4 15.35" fill="#ffd7e3" fill-rule="evenodd" stroke="none"/>
    <path d="M13.4 22.0 Q13.4 20.5 14.5 19.4 15.6 18.35 17.1 18.35 18.65 18.35 19.7 19.4 20.8 20.5 20.8 22.0 20.8 23.55 19.7 24.6 18.65 25.7 17.1 25.7 15.6 25.7 14.5 24.6 13.4 23.55 13.4 22.0" fill="#ffd7e3" fill-rule="evenodd" stroke="none"/>
    <path d="M18.8 5.75 Q18.8 3.65 20.0 2.15 21.2 0.7 22.9 0.7 24.55 0.7 25.75 2.15 26.9 3.65 26.9 5.75 L26.9 20.25 26.9 20.45 Q26.9 22.45 25.75 24.0 24.55 25.5 22.9 25.5 21.2 25.5 20.0 24.0 18.8 22.45 18.8 20.45 L18.8 5.75" fill="#fabedb" fill-rule="evenodd" stroke="none"/>
    <path d="M18.8 5.75 L18.8 20.45 Q18.8 22.45 20.0 24.0 21.2 25.5 22.9 25.5 24.55 25.5 25.75 24.0 26.9 22.45 26.9 20.45 L26.9 20.25 26.9 5.75 Q26.9 3.65 25.75 2.15 24.55 0.7 22.9 0.7 21.2 0.7 20.0 2.15 18.8 3.65 18.8 5.75 M17.55 5.1 Q17.55 2.75 19.1 1.1 20.65 -0.6 22.85 -0.6 L22.9 -0.6 Q25.05 -0.6 26.6 1.1 28.1 2.75 28.1 5.1 L28.1 21.3 Q28.1 23.55 26.6 25.2 25.05 26.85 22.9 26.85 L22.85 26.85 Q20.65 26.85 19.1 25.2 17.55 23.55 17.55 21.3 L17.55 5.1" fill="#f84982" fill-rule="evenodd" stroke="none"/>
    <path d="M24.45 8.45 Q25.15 9.2 25.15 10.2 25.15 11.2 24.45 11.85 23.75 12.55 22.75 12.55 21.75 12.55 21.05 11.85 20.35 11.2 20.35 10.2 20.35 9.2 21.05 8.45 21.75 7.8 22.75 7.8 23.75 7.8 24.45 8.45" fill="#e94d7c" fill-rule="evenodd" stroke="none"/>
    <path d="M24.45 14.05 Q25.15 14.8 25.15 15.8 25.15 16.8 24.45 17.45 23.75 18.15 22.75 18.15 21.75 18.15 21.05 17.45 20.35 16.8 20.35 15.8 20.35 14.8 21.05 14.05 21.75 13.4 22.75 13.4 23.75 13.4 24.45 14.05" fill="#e94d7c" fill-rule="evenodd" stroke="none"/>
    <path d="M24.45 2.8 Q25.15 3.55 25.15 4.55 25.15 5.55 24.45 6.2 23.75 6.9 22.75 6.9 21.75 6.9 21.05 6.2 20.35 5.55 20.35 4.55 20.35 3.55 21.05 2.8 21.75 2.15 22.75 2.15 23.75 2.15 24.45 2.8" fill="#e94d7c" fill-rule="evenodd" stroke="none"/>
    <path d="M24.45 19.8 Q25.15 20.55 25.15 21.55 25.15 22.55 24.45 23.2 23.75 23.9 22.75 23.9 21.75 23.9 21.05 23.2 20.35 22.55 20.35 21.55 20.35 20.55 21.05 19.8 21.75 19.15 22.75 19.15 23.75 19.15 24.45 19.8" fill="#e94d7c" fill-rule="evenodd" stroke="none"/>
  </g>
</svg>
