<?xml version="1.0" encoding="UTF-8" standalone="no"?>
<svg xmlns:xlink="http://www.w3.org/1999/xlink" height="46.9px" width="54.8px" xmlns="http://www.w3.org/2000/svg">
  <g transform="matrix(1.0, 0.0, 0.0, 1.0, 0.4, 0.4)">
    <path d="M42.8 13.85 L43.45 15.65 46.1 20.5 46.25 20.3 47.35 20.1 Q48.55 19.95 48.9 20.55 L49.1 21.75 49.0 22.2 Q48.45 23.6 47.25 23.45 L47.25 23.7 47.25 23.85 47.2 24.3 49.1 27.15 49.25 26.95 50.55 26.65 Q51.95 26.65 52.45 27.2 52.95 27.75 52.85 29.25 52.6 31.15 50.95 30.8 L51.1 31.25 51.05 31.7 Q50.95 32.8 50.6 33.1 L49.55 33.3 49.8 33.6 49.95 33.45 Q50.6 33.1 51.3 33.1 52.8 33.1 53.35 33.7 54.0 34.4 54.0 36.1 54.0 38.3 52.15 37.9 L52.45 38.4 52.45 39.0 Q52.45 40.3 52.1 40.6 L49.6 41.0 Q48.8 41.05 48.5 42.1 48.2 43.15 46.9 43.15 L45.65 42.75 44.45 42.2 44.3 42.4 Q44.2 42.45 44.2 42.65 44.2 43.45 43.0 44.25 41.9 45.05 40.7 45.05 L37.85 44.55 36.1 43.65 Q35.95 44.55 34.6 45.35 33.15 46.1 31.85 46.1 30.75 46.1 29.9 45.5 L28.25 44.25 26.8 45.2 Q25.65 45.75 24.9 45.75 L22.85 45.3 21.05 43.85 19.95 44.9 Q18.95 45.45 17.95 45.45 17.0 45.45 15.7 44.5 L14.65 43.5 14.5 43.25 14.55 43.05 Q13.75 43.8 12.85 43.8 11.3 43.8 10.3 43.15 9.05 42.45 8.8 40.9 7.3 41.7 6.15 41.7 4.8 41.7 3.85 40.5 3.0 39.4 3.0 38.15 L3.25 37.6 3.4 37.2 3.4 37.0 2.25 37.35 Q1.15 37.35 0.55 36.5 0.0 35.75 0.0 34.8 0.0 33.4 0.8 32.55 1.6 31.7 3.05 31.7 3.95 31.7 4.4 32.2 L4.7 32.7 5.55 31.45 5.5 31.0 5.55 30.5 5.7 30.2 5.7 30.05 4.7 30.35 Q3.6 30.35 2.95 29.6 2.3 28.95 2.2 28.15 1.95 26.9 2.6 26.15 3.2 25.45 4.65 25.45 L5.95 25.85 6.3 26.3 7.9 23.65 7.85 23.55 7.4 23.6 Q6.05 23.6 5.35 22.6 L5.0 21.95 4.8 21.0 Q4.8 20.45 5.1 20.0 L5.1 19.85 5.2 19.7 Q5.65 19.1 6.45 19.05 L7.35 19.1 7.8 19.15 8.05 19.4 8.15 19.1 8.3 18.95 8.3 18.85 10.0 15.3 10.6 13.6 Q10.5 13.45 10.65 13.4 L10.75 13.45 12.1 0.7 15.25 0.75 15.45 0.1 18.05 0.3 18.0 0.75 35.45 0.9 35.4 0.0 38.0 0.2 38.25 0.9 40.95 0.9 42.65 13.9 42.8 13.85 M7.9 22.6 L7.75 22.65 8.05 22.75 7.9 22.6" fill="#e7a08e" fill-rule="evenodd" stroke="none"/>
    <path d="M42.8 13.85 L42.65 13.9 40.95 0.9 38.25 0.9 38.0 0.2 35.4 0.0 35.45 0.9 18.0 0.75 18.05 0.3 15.45 0.1 15.25 0.75 12.1 0.7 10.75 13.45 10.65 13.4 Q10.5 13.45 10.6 13.6 L10.0 15.3 8.3 18.85 8.3 18.95 8.15 19.1 8.05 19.4 7.8 19.15 7.35 19.1 6.45 19.05 Q5.65 19.1 5.2 19.7 L5.1 19.85 5.1 20.0 Q4.8 20.45 4.8 21.0 L5.0 21.95 5.35 22.6 Q6.05 23.6 7.4 23.6 L7.85 23.55 7.9 23.65 6.3 26.3 5.95 25.85 4.65 25.45 Q3.2 25.45 2.6 26.15 1.95 26.9 2.2 28.15 2.3 28.95 2.95 29.6 3.6 30.35 4.7 30.35 L5.7 30.05 5.7 30.2 5.55 30.5 5.5 31.0 5.55 31.45 4.7 32.7 4.4 32.2 Q3.95 31.7 3.05 31.7 1.6 31.7 0.8 32.55 0.0 33.4 0.0 34.8 0.0 35.75 0.55 36.5 1.15 37.35 2.25 37.35 L3.4 37.0 3.4 37.2 3.25 37.6 3.0 38.15 Q3.0 39.4 3.85 40.5 4.8 41.7 6.15 41.7 7.3 41.7 8.8 40.9 9.05 42.45 10.3 43.15 11.3 43.8 12.85 43.8 13.75 43.8 14.55 43.05 L14.5 43.25 14.65 43.5 15.7 44.5 Q17.0 45.45 17.95 45.45 18.95 45.45 19.95 44.9 L21.05 43.85 22.85 45.3 24.9 45.75 Q25.65 45.75 26.8 45.2 L28.25 44.25 29.9 45.5 Q30.75 46.1 31.85 46.1 33.15 46.1 34.6 45.35 35.95 44.55 36.1 43.65 L37.85 44.55 40.7 45.05 Q41.9 45.05 43.0 44.25 44.2 43.45 44.2 42.65 44.2 42.45 44.3 42.4 L44.45 42.2 45.65 42.75 46.9 43.15 Q48.2 43.15 48.5 42.1 48.8 41.05 49.6 41.0 L52.1 40.6 Q52.45 40.3 52.45 39.0 L52.45 38.4 52.15 37.9 Q54.0 38.3 54.0 36.1 54.0 34.4 53.35 33.7 52.8 33.1 51.3 33.1 50.6 33.1 49.95 33.45 L49.8 33.6 49.55 33.3 50.6 33.1 Q50.95 32.8 51.05 31.7 L51.1 31.25 50.95 30.8 Q52.6 31.15 52.85 29.25 52.95 27.75 52.45 27.2 51.95 26.65 50.55 26.65 L49.25 26.95 49.1 27.15 47.2 24.3 47.25 23.85 47.25 23.7 47.25 23.45 Q48.45 23.6 49.0 22.2 L49.1 21.75 48.9 20.55 Q48.55 19.95 47.35 20.1 L46.25 20.3 46.1 20.5 43.45 15.65 42.8 13.85 Z" fill="none" stroke="#830645" stroke-linecap="round" stroke-linejoin="round" stroke-width="0.8"/>
    <path d="M41.6 6.25 L38.95 7.35 Q36.95 8.3 32.8 8.8 L25.35 9.2 Q20.7 9.2 16.0 7.5 L11.75 5.55 12.1 0.7 40.95 0.9 41.6 6.25" fill="#a2a2a2" fill-rule="evenodd" stroke="none"/>
    <path d="M9.75 21.4 L10.85 21.75 16.05 23.15 22.05 24.0 27.55 24.25 Q30.45 24.25 37.65 22.85 L43.7 21.55 45.2 32.45 Q27.25 36.5 8.4 32.35 L9.75 21.4" fill="#dae3e9" fill-rule="evenodd" stroke="none"/>
    <path d="M41.6 6.25 L43.7 21.55 37.65 22.85 Q30.45 24.25 27.55 24.25 L22.05 24.0 16.05 23.15 10.85 21.75 9.75 21.4 11.75 5.55 16.0 7.5 Q20.7 9.2 25.35 9.2 L32.8 8.8 Q36.95 8.3 38.95 7.35 L41.6 6.25" fill="#c8c8c8" fill-rule="evenodd" stroke="none"/>
    <path d="M43.4 18.8 L43.6 20.15 Q34.55 23.35 26.35 20.45 19.0 23.35 9.9 19.9 L10.0 18.45 Q19.0 21.9 26.35 19.05 34.45 21.95 43.4 18.8" fill="#ffffff" fill-rule="evenodd" stroke="none"/>
    <path d="M40.4 10.6 Q41.6 13.3 42.8 15.05 L43.4 18.8 Q34.45 21.95 26.35 19.05 19.0 21.9 10.0 18.45 L10.1 15.25 Q11.3 13.5 12.8 10.0 L17.05 12.45 18.45 13.3 20.25 14.6 21.05 15.75 Q22.85 18.2 26.65 18.7 L26.65 18.65 Q28.95 18.2 31.2 16.1 L31.25 16.05 31.3 16.0 33.0 14.75 36.65 12.05 38.35 11.4 39.55 10.85 40.4 10.6" fill="#f7516d" fill-rule="evenodd" stroke="none"/>
    <path d="M12.8 10.0 L14.1 5.3 Q15.0 1.3 15.45 0.1 L18.05 0.3 Q17.75 2.6 17.9 6.15 18.05 10.0 18.65 11.6 L19.8 13.95 20.25 14.6 18.45 13.3 17.05 12.45 12.8 10.0 M31.3 16.0 Q33.5 13.55 34.55 10.65 35.0 9.1 35.35 5.45 L35.4 0.0 38.0 0.2 39.25 5.65 Q39.95 9.55 40.4 10.6 L39.55 10.85 38.35 11.4 36.65 12.05 33.0 14.75 31.3 16.0" fill="#de3753" fill-rule="evenodd" stroke="none"/>
    <path d="M49.8 33.6 L49.95 33.45 Q50.6 33.1 51.3 33.1 52.8 33.1 53.35 33.7 54.0 34.4 54.0 36.1 54.0 38.3 52.15 37.9 L52.45 38.4 52.45 39.0 Q52.45 40.3 52.1 40.6 L49.6 41.0 Q48.8 41.05 48.5 42.1 48.2 43.15 46.9 43.15 L45.65 42.75 44.45 42.2 44.3 42.4 Q44.2 42.45 44.2 42.65 44.2 43.45 43.0 44.25 41.9 45.05 40.7 45.05 L37.85 44.55 36.1 43.65 Q35.95 44.55 34.6 45.35 33.15 46.1 31.85 46.1 30.75 46.1 29.9 45.5 L28.25 44.25 26.8 45.2 Q25.65 45.75 24.9 45.75 L22.85 45.3 21.05 43.85 19.95 44.9 Q18.95 45.45 17.95 45.45 17.0 45.45 15.7 44.5 L14.65 43.5 14.5 43.25 14.55 43.05 Q13.75 43.8 12.85 43.8 11.3 43.8 10.3 43.15 9.05 42.45 8.8 40.9 7.3 41.7 6.15 41.7 4.8 41.7 3.85 40.5 3.0 39.4 3.0 38.15 L3.25 37.6 3.4 37.2 3.4 37.0 2.25 37.35 Q1.15 37.35 0.55 36.5 0.0 35.75 0.0 34.8 0.0 33.4 0.8 32.55 1.6 31.7 3.05 31.7 3.95 31.7 4.4 32.2 L4.7 32.7 3.3 34.65 5.15 36.2 5.25 36.35 Q8.95 39.45 14.5 41.2 20.8 43.15 28.35 43.05 35.55 42.9 41.7 40.9 45.4 39.65 48.05 37.95 L48.25 37.85 51.15 35.4 49.8 33.6 M8.15 27.75 L9.15 25.85 9.3 25.7 Q27.05 30.1 44.25 25.55 L45.4 27.65 43.0 28.25 41.6 28.6 39.5 29.0 35.05 29.65 29.6 30.1 25.95 30.2 18.6 29.75 14.2 29.1 12.9 28.85 9.65 28.15 8.15 27.75" fill="#fc889b" fill-rule="evenodd" stroke="none"/>
    <path d="M48.05 37.95 Q45.4 39.65 41.7 40.9 35.55 42.9 28.35 43.05 20.8 43.15 14.5 41.2 8.95 39.45 5.25 36.35 L5.55 35.6 5.55 35.55 6.2 34.65 Q6.2 34.25 7.8 32.4 9.55 30.45 10.5 29.85 11.6 29.2 12.9 28.85 L14.2 29.1 18.6 29.75 25.95 30.2 26.05 30.85 25.95 30.85 26.4 38.55 27.35 34.65 27.95 31.75 28.4 33.1 28.65 34.75 29.4 31.65 29.6 30.7 29.4 30.75 29.4 30.65 29.6 30.1 35.05 29.65 35.3 30.0 35.05 30.0 37.15 35.5 37.25 35.5 37.2 33.1 37.25 33.1 37.2 31.2 37.95 31.9 38.5 32.95 38.5 31.2 Q39.35 31.55 40.3 33.55 41.15 35.15 41.5 36.65 L40.45 32.05 39.5 29.0 41.6 28.6 Q43.75 29.55 45.35 32.3 46.5 34.25 48.05 37.95 M43.3 35.75 L42.9 36.5 42.1 37.8 39.45 37.25 37.95 38.35 Q36.45 37.8 35.4 36.45 34.6 35.4 33.25 35.25 31.25 35.45 30.6 37.35 29.9 39.25 27.9 39.85 25.75 40.45 23.8 37.4 L21.45 38.35 17.5 36.5 15.3 38.4 Q14.2 38.45 13.35 37.7 12.55 36.95 12.65 35.75 12.95 33.65 12.15 32.5 L8.0 35.7 Q7.8 36.75 8.55 37.2 9.6 37.95 10.85 38.4 13.75 39.55 16.9 40.0 20.85 42.45 24.65 40.7 L25.7 40.35 28.0 41.6 Q30.1 42.65 33.45 41.05 36.3 41.35 39.1 40.1 43.05 40.1 45.8 37.55 L45.8 37.2 Q45.7 35.45 43.9 35.05 L43.3 35.75 M18.45 30.15 L14.2 29.15 13.85 33.7 13.75 35.0 13.75 36.85 Q14.45 34.05 14.9 32.95 15.5 31.55 16.45 30.5 L16.6 33.3 Q17.1 33.05 17.4 31.85 17.7 32.25 17.7 33.3 L18.6 30.2 18.45 30.15" fill="#f34260" fill-rule="evenodd" stroke="none"/>
    <path d="M43.3 35.75 L43.9 35.05 Q45.7 35.45 45.8 37.2 L45.8 37.55 Q43.05 40.1 39.1 40.1 36.3 41.35 33.45 41.05 30.1 42.65 28.0 41.6 L25.7 40.35 24.65 40.7 Q20.85 42.45 16.9 40.0 13.75 39.55 10.85 38.4 9.6 37.95 8.55 37.2 7.8 36.75 8.0 35.7 L12.15 32.5 Q12.95 33.65 12.65 35.75 12.55 36.95 13.35 37.7 14.2 38.45 15.3 38.4 L17.5 36.5 21.45 38.35 23.8 37.4 Q25.75 40.45 27.9 39.85 29.9 39.25 30.6 37.35 31.25 35.45 33.25 35.25 34.6 35.4 35.4 36.45 36.45 37.8 37.95 38.35 L39.45 37.25 42.1 37.8 42.9 36.5 43.3 35.75" fill="#fa607a" fill-rule="evenodd" stroke="none"/>
    <path d="M49.8 33.6 L51.15 35.4 48.25 37.85 48.05 37.95 Q46.5 34.25 45.35 32.3 43.75 29.55 41.6 28.6 L43.0 28.25 45.4 27.65 49.8 33.6 M5.25 36.35 L5.15 36.2 3.3 34.65 4.7 32.7 8.15 27.75 9.65 28.15 12.9 28.85 Q11.6 29.2 10.5 29.85 9.55 30.45 7.8 32.4 6.2 34.25 6.2 34.65 L5.55 35.55 5.55 35.6 5.25 36.35" fill="#d02643" fill-rule="evenodd" stroke="none"/>
    <path d="M39.5 29.0 L40.45 32.05 41.5 36.65 Q41.15 35.15 40.3 33.55 39.35 31.55 38.5 31.2 L38.5 32.95 37.95 31.9 37.2 31.2 37.15 31.2 37.2 33.1 37.25 35.5 37.15 35.5 35.05 30.0 35.3 30.0 39.5 29.0 M29.4 30.75 L29.6 30.7 29.4 31.65 28.65 34.75 28.4 33.1 27.95 31.75 27.35 34.65 26.4 38.55 25.95 30.85 26.05 30.85 27.95 30.8 28.0 30.8 29.4 30.75 M18.45 30.15 L18.6 30.2 17.7 33.3 Q17.7 32.25 17.4 31.85 17.1 33.05 16.6 33.3 L16.45 30.5 Q15.5 31.55 14.9 32.95 14.45 34.05 13.75 36.85 L13.75 35.0 13.85 33.7 14.2 29.15 18.45 30.15" fill="#e03b57" fill-rule="evenodd" stroke="none"/>
    <path d="M27.95 30.8 L27.95 30.75 28.0 30.8 27.95 30.8" fill="#f7516d" fill-rule="evenodd" stroke="none"/>
    <path d="M45.2 21.35 L45.35 21.65 49.1 27.15 Q49.2 29.1 47.1 30.65 L44.9 25.9 Q43.55 23.4 41.55 22.5 L45.2 21.35 M6.3 26.3 L9.25 21.35 Q11.15 22.35 13.75 22.8 L13.65 22.85 Q12.4 23.15 11.5 23.7 10.6 24.25 9.25 26.05 7.9 27.65 7.95 27.95 L7.95 28.0 7.45 28.75 7.4 28.8 7.3 29.5 7.15 29.4 5.3 28.0 6.3 26.3 M26.45 24.45 L28.05 24.3 28.8 24.2 29.75 24.05 29.9 24.05 30.3 24.0 30.0 25.45 29.05 29.75 29.05 29.7 28.9 27.65 28.4 25.7 Q28.1 26.3 27.9 29.55 L26.95 34.3 26.1 24.6 26.35 24.45 26.45 24.45 M39.55 22.85 L40.2 25.5 41.2 31.75 40.2 28.4 Q39.25 25.9 38.45 25.65 L38.45 27.75 37.95 26.55 37.2 25.65 37.2 26.15 37.2 26.6 37.2 30.75 37.1 30.75 35.05 23.75 35.35 23.7 36.2 23.55 Q37.5 23.7 39.55 22.85 M16.35 23.6 L17.2 23.7 18.15 23.85 19.85 23.95 Q19.0 25.9 18.55 28.15 18.55 26.85 18.2 26.4 18.0 27.75 17.5 28.15 L17.45 26.2 17.2 24.8 Q16.4 26.0 15.9 27.75 15.45 29.1 15.0 32.35 L14.85 30.2 14.9 26.7 15.0 23.2 16.35 23.6" fill="#de3753" fill-rule="evenodd" stroke="none"/>
    <path d="M45.2 21.35 L41.55 22.5 41.3 22.55 39.55 22.85 35.25 23.6 35.2 23.55 29.95 23.9 29.95 23.95 26.4 24.0 26.4 23.95 19.35 23.6 19.35 23.65 15.0 23.05 15.0 23.0 14.05 22.85 14.0 22.85 13.75 22.8 Q11.15 22.35 9.25 21.35 L9.7 20.0 9.9 19.85 Q27.45 23.95 44.3 19.65 L45.2 21.35 M47.1 30.65 Q49.2 29.1 49.1 27.15 L49.25 26.95 50.55 26.65 Q51.95 26.65 52.45 27.2 52.95 27.75 52.85 29.25 52.6 31.15 50.95 30.8 L51.1 31.25 51.05 31.7 Q50.95 32.8 50.6 33.1 L48.35 33.45 Q47.6 33.45 47.2 34.35 46.85 35.15 45.7 35.15 L44.6 34.85 43.55 34.45 43.4 34.6 43.25 34.8 Q43.15 35.4 42.1 36.05 41.1 36.7 40.05 36.7 L37.45 36.35 35.9 35.65 Q35.75 36.3 34.55 36.95 L32.05 37.6 Q31.1 37.6 30.35 37.1 L28.85 36.05 27.6 36.85 25.85 37.25 24.05 36.9 22.35 35.75 21.45 36.55 Q20.55 37.0 19.7 37.05 18.8 37.05 17.65 36.3 L16.65 35.4 16.45 35.3 16.5 35.1 Q15.75 35.75 14.95 35.75 13.6 35.75 12.65 35.2 11.45 34.65 11.0 33.3 9.7 33.95 8.75 34.0 7.5 33.95 6.55 33.0 5.6 32.05 5.5 31.0 L5.55 30.5 5.7 30.2 5.7 30.05 4.7 30.35 Q3.6 30.35 2.95 29.6 2.3 28.95 2.2 28.15 1.95 26.9 2.6 26.15 3.2 25.45 4.65 25.45 L5.95 25.85 6.3 26.3 5.3 28.0 7.15 29.4 7.3 29.5 Q11.05 32.05 16.35 33.55 22.1 35.1 28.95 35.05 35.4 34.95 41.1 33.25 44.55 32.2 47.2 30.8 L47.1 30.65" fill="#ffa1b0" fill-rule="evenodd" stroke="none"/>
    <path d="M41.55 22.5 Q43.55 23.4 44.9 25.9 L47.1 30.65 47.2 30.8 Q44.55 32.2 41.1 33.25 35.4 34.95 28.95 35.05 22.1 35.1 16.35 33.55 11.05 32.05 7.3 29.5 L7.4 28.8 7.45 28.75 7.95 28.0 7.95 27.95 Q7.9 27.65 9.25 26.05 10.6 24.25 11.5 23.7 12.4 23.15 13.65 22.85 L13.75 22.8 14.0 22.85 14.05 22.85 15.0 23.0 15.0 23.05 19.35 23.65 19.35 23.6 26.4 23.95 26.4 24.0 26.45 24.45 26.35 24.45 26.1 24.6 26.95 34.3 27.9 29.55 Q28.1 26.3 28.4 25.7 L28.9 27.65 29.05 29.7 29.05 29.75 30.0 25.45 30.3 24.0 29.9 24.05 29.95 23.95 29.95 23.9 35.2 23.55 35.25 23.6 35.35 23.7 35.05 23.75 37.1 30.75 37.2 30.75 37.2 26.6 37.2 26.15 37.2 25.65 37.95 26.55 38.45 27.75 38.45 25.65 Q39.25 25.9 40.2 28.4 L41.2 31.75 40.2 25.5 39.55 22.85 41.3 22.55 41.55 22.5 M44.8 29.85 Q44.8 29.35 43.85 27.8 42.8 26.25 42.4 26.25 41.7 26.25 41.7 26.85 41.7 27.6 42.05 28.7 L42.65 30.65 Q42.8 30.85 43.05 30.85 L44.1 30.6 44.8 29.85 M16.35 23.6 L15.0 23.2 14.9 26.7 14.85 30.2 15.0 32.35 Q15.45 29.1 15.9 27.75 16.4 26.0 17.2 24.8 L17.45 26.2 17.5 28.15 Q18.0 27.75 18.2 26.4 18.55 26.85 18.55 28.15 19.0 25.9 19.85 23.95 L18.15 23.85 17.2 23.7 16.35 23.6 M33.55 29.2 Q32.35 29.2 31.85 30.2 31.45 31.0 31.3 33.15 L31.35 33.15 32.2 33.15 33.6 33.0 34.95 32.5 36.25 32.4 Q37.15 32.2 37.15 31.7 35.35 28.95 34.8 28.95 34.35 29.5 34.05 29.5 L33.55 29.2 M13.15 28.75 Q13.05 28.35 13.1 27.2 13.05 26.25 12.5 26.25 11.95 26.25 11.25 27.65 L11.05 28.15 Q10.75 29.1 10.75 29.75 10.75 30.25 11.9 30.95 L13.5 31.55 13.95 31.45 13.15 28.75 M20.2 29.9 L20.0 29.85 19.85 29.1 19.65 28.6 18.75 31.1 17.95 30.95 17.85 31.35 Q17.85 31.65 18.2 31.85 18.5 32.1 18.7 32.05 L18.75 32.05 18.75 32.15 Q19.4 33.15 20.55 33.25 L22.0 33.55 24.0 33.9 25.2 33.6 Q26.1 33.3 26.1 32.8 L25.8 31.65 25.35 30.05 25.2 28.65 24.9 27.35 23.8 27.3 22.85 27.1 Q21.75 27.1 21.0 28.0 20.4 28.8 20.2 29.9" fill="#f7516d" fill-rule="evenodd" stroke="none"/>
    <path d="M44.8 29.85 L44.1 30.6 43.05 30.85 Q42.8 30.85 42.65 30.65 L42.05 28.7 Q41.7 27.6 41.7 26.85 41.7 26.25 42.4 26.25 42.8 26.25 43.85 27.8 44.8 29.35 44.8 29.85 M20.2 29.9 Q20.4 28.8 21.0 28.0 21.75 27.1 22.85 27.1 L23.8 27.3 24.9 27.35 25.2 28.65 25.35 30.05 25.8 31.65 26.1 32.8 Q26.1 33.3 25.2 33.6 L24.0 33.9 22.0 33.55 20.55 33.25 Q19.4 33.15 18.75 32.15 L18.75 32.05 18.7 32.05 Q18.5 32.1 18.2 31.85 17.85 31.65 17.85 31.35 L17.95 30.95 18.75 31.1 19.65 28.6 19.85 29.1 20.0 29.85 20.2 29.9 M13.15 28.75 L13.95 31.45 13.5 31.55 11.9 30.95 Q10.75 30.25 10.75 29.75 10.75 29.1 11.05 28.15 L11.25 27.65 Q11.95 26.25 12.5 26.25 13.05 26.25 13.1 27.2 13.05 28.35 13.15 28.75 M33.55 29.2 L34.05 29.5 Q34.35 29.5 34.8 28.95 35.35 28.95 37.15 31.7 37.15 32.2 36.25 32.4 L34.95 32.5 33.6 33.0 32.2 33.15 31.35 33.15 31.3 33.15 Q31.45 31.0 31.85 30.2 32.35 29.2 33.55 29.2" fill="#ff7990" fill-rule="evenodd" stroke="none"/>
    <path d="M40.1 16.35 L41.3 16.1 43.45 15.65 46.1 20.5 46.85 21.75 44.25 23.5 44.05 23.5 42.65 19.45 Q41.75 17.15 40.1 16.35 M8.05 19.4 L8.15 19.1 8.3 18.95 8.3 18.85 10.0 15.3 11.5 15.65 14.6 16.25 Q13.45 16.45 12.65 17.2 11.85 17.6 10.7 19.15 9.65 20.5 9.75 20.9 L9.4 21.55 9.4 21.6 Q9.3 21.8 9.35 22.15 L9.15 22.05 7.35 20.9 8.05 19.4 M15.85 16.8 L18.0 17.3 18.05 17.3 19.7 17.7 20.45 17.8 19.6 20.55 19.25 19.25 18.6 20.55 18.1 18.05 Q17.1 18.8 16.65 20.25 16.2 21.0 15.7 23.45 L15.5 21.85 Q15.2 18.35 15.35 16.65 L15.85 16.8 M26.4 17.55 L30.15 17.5 31.8 17.55 31.5 18.3 30.4 20.95 30.1 19.55 29.4 18.4 Q28.95 18.75 28.65 20.8 L27.2 23.95 26.85 21.3 26.4 17.55 M34.4 17.3 L38.25 16.85 39.25 16.65 Q39.9 18.0 40.75 21.5 L39.75 19.75 38.95 18.8 Q38.35 18.3 37.95 18.2 L37.85 19.25 37.3 18.6 37.15 18.45 36.7 18.25 36.4 18.15 36.45 20.85 36.2 20.85 34.3 17.3 34.4 17.3" fill="#de3753" fill-rule="evenodd" stroke="none"/>
    <path d="M46.1 20.5 L46.25 20.3 47.35 20.1 Q48.55 19.95 48.9 20.55 L49.1 21.75 49.0 22.2 Q48.45 23.6 47.25 23.45 L47.25 23.7 47.25 23.85 46.9 24.85 Q46.5 25.6 45.8 25.6 L44.8 25.6 44.3 26.15 44.0 26.45 43.8 26.65 Q43.25 27.15 42.5 27.15 L41.25 26.8 40.5 26.5 40.5 26.55 Q40.35 27.0 39.45 27.45 L37.6 28.0 35.65 27.65 34.4 27.2 33.15 28.1 31.2 28.65 Q30.3 28.6 29.75 28.2 L28.45 27.4 27.4 28.05 26.0 28.4 24.5 28.1 23.25 27.35 22.7 27.8 Q21.8 28.35 20.35 28.35 19.7 28.35 18.8 27.75 L17.95 26.9 17.9 26.8 17.9 26.65 Q17.3 27.15 16.7 27.2 L14.55 26.75 Q13.45 26.25 13.1 25.25 12.0 25.85 11.15 25.9 10.0 25.8 9.0 25.0 8.1 24.3 7.85 23.55 L7.4 23.6 Q6.05 23.6 5.35 22.6 L5.0 21.95 4.8 21.0 Q4.8 20.45 5.1 20.0 L5.1 19.85 5.2 19.7 Q5.65 19.1 6.45 19.05 L7.35 19.1 7.8 19.15 8.05 19.4 7.35 20.9 9.15 22.05 9.35 22.15 Q12.9 24.3 17.7 25.45 22.8 26.75 28.6 26.75 33.95 26.65 38.7 25.4 L44.05 23.55 44.05 23.5 44.25 23.5 46.85 21.75 46.1 20.5 M7.9 22.6 L7.75 22.65 8.05 22.75 7.9 22.6" fill="#ffb4c0" fill-rule="evenodd" stroke="none"/>
    <path d="M14.6 16.25 L15.85 16.5 15.85 16.8 15.35 16.65 Q15.2 18.35 15.5 21.85 L15.7 23.45 Q16.2 21.0 16.65 20.25 17.1 18.8 18.1 18.05 L18.6 20.55 19.25 19.25 19.6 20.55 20.45 17.8 19.7 17.7 19.9 17.15 26.4 17.55 26.85 21.3 27.2 23.95 28.65 20.8 Q28.95 18.75 29.4 18.4 L30.1 19.55 30.4 20.95 31.5 18.3 31.8 17.55 30.15 17.5 34.3 17.2 34.4 17.3 34.3 17.3 36.2 20.85 36.45 20.85 36.4 18.15 36.7 18.25 37.15 18.45 37.3 18.6 37.85 19.25 37.95 18.2 Q38.35 18.3 38.95 18.8 L39.75 19.75 40.75 21.5 Q39.9 18.0 39.25 16.65 L38.25 16.85 38.15 16.65 40.1 16.35 Q41.75 17.15 42.65 19.45 L44.05 23.5 44.05 23.55 38.7 25.4 Q33.95 26.65 28.6 26.75 22.8 26.75 17.7 25.45 12.9 24.3 9.35 22.15 9.3 21.8 9.4 21.6 L9.4 21.55 9.75 20.9 Q9.65 20.5 10.7 19.15 11.85 17.6 12.65 17.2 13.45 16.45 14.6 16.25 M22.85 20.25 L20.65 21.9 Q19.95 22.3 19.45 22.85 L18.95 23.7 18.85 23.9 Q19.25 24.8 21.45 25.05 L24.55 25.1 25.45 25.05 Q26.3 24.85 26.3 24.45 25.35 22.1 24.9 21.75 24.1 21.0 22.85 20.25 M41.4 22.85 Q41.4 22.3 40.9 22.2 L39.8 22.1 37.95 21.35 Q37.7 21.35 36.9 21.9 36.1 22.45 35.7 22.45 35.5 22.45 34.7 22.05 L34.0 21.65 Q32.25 21.65 31.55 22.1 31.0 22.5 30.8 23.3 30.65 23.75 30.65 24.35 L31.3 24.75 32.4 24.95 37.15 24.4 Q41.4 23.75 41.4 22.85 M13.8 21.35 Q13.65 19.55 13.4 19.3 L12.75 20.0 Q12.2 20.4 11.85 20.25 L11.65 21.05 12.05 22.0 12.2 22.15 Q13.75 23.15 14.6 23.4 L14.7 23.05 Q13.95 22.85 13.8 21.35" fill="#f7516d" fill-rule="evenodd" stroke="none"/>
    <path d="M41.4 22.85 Q41.4 23.75 37.15 24.4 L32.4 24.95 31.3 24.75 30.65 24.35 Q30.65 23.75 30.8 23.3 31.0 22.5 31.55 22.1 32.25 21.65 34.0 21.65 L34.7 22.05 Q35.5 22.45 35.7 22.45 36.1 22.45 36.9 21.9 37.7 21.35 37.95 21.35 L39.8 22.1 40.9 22.2 Q41.4 22.3 41.4 22.85 M22.85 20.25 Q24.1 21.0 24.9 21.75 25.35 22.1 26.3 24.45 26.3 24.85 25.45 25.05 L24.55 25.1 21.45 25.05 Q19.25 24.8 18.85 23.9 L18.95 23.7 19.45 22.85 Q19.95 22.3 20.65 21.9 L22.85 20.25 M13.8 21.35 Q13.95 22.85 14.7 23.05 L14.6 23.4 Q13.75 23.15 12.2 22.15 L12.05 22.0 11.65 21.05 11.85 20.25 Q12.2 20.4 12.75 20.0 L13.4 19.3 Q13.65 19.55 13.8 21.35" fill="#fc7d92" fill-rule="evenodd" stroke="none"/>
    <path d="M42.8 13.85 L43.45 15.65 Q39.65 17.45 33.4 18.15 27.1 18.85 22.9 18.4 L14.2 16.95 Q9.75 15.95 10.0 15.3 L10.6 13.6 Q10.5 13.45 10.65 13.4 27.15 18.0 42.8 13.85" fill="#ffb4c0" fill-rule="evenodd" stroke="none"/>
    <path d="M26.45 12.85 Q26.8 11.6 27.95 10.9 29.15 10.25 30.5 10.55 31.8 10.95 32.5 12.1 33.2 13.25 32.85 14.5 32.5 15.85 31.3 16.5 30.15 17.2 28.8 16.8 27.5 16.5 26.8 15.35 26.1 14.2 26.45 12.85" fill="#ffdfd4" fill-rule="evenodd" stroke="none"/>
    <path d="M31.95 15.55 Q33.3 15.9 34.0 17.05 34.65 18.25 34.4 19.55 34.0 20.8 32.8 21.5 31.6 22.15 30.3 21.85 29.0 21.5 28.3 20.3 27.6 19.2 27.9 17.85 28.25 16.55 29.45 15.9 30.7 15.2 31.95 15.55" fill="#ffdfd4" fill-rule="evenodd" stroke="none"/>
    <path d="M23.5 20.6 Q23.85 19.35 25.0 18.65 26.2 18.0 27.55 18.3 28.85 18.7 29.55 19.85 30.25 21.0 29.9 22.25 29.55 23.6 28.35 24.25 27.2 24.95 25.85 24.55 24.55 24.25 23.85 23.1 23.15 21.95 23.5 20.6" fill="#ffdfd4" fill-rule="evenodd" stroke="none"/>
    <path d="M18.9 17.35 Q19.25 16.1 20.4 15.4 21.6 14.75 22.95 15.05 24.25 15.45 24.95 16.6 25.65 17.75 25.3 19.0 24.95 20.35 23.75 21.0 22.6 21.7 21.25 21.3 19.95 21.0 19.25 19.85 18.55 18.7 18.9 17.35" fill="#ffdfd4" fill-rule="evenodd" stroke="none"/>
    <path d="M21.0 12.65 Q21.35 11.4 22.5 10.7 23.7 10.05 25.05 10.35 26.35 10.75 27.05 11.9 27.75 13.05 27.4 14.3 27.05 15.65 25.85 16.3 24.7 17.0 23.35 16.6 22.05 16.3 21.35 15.15 20.65 14.0 21.0 12.65" fill="#ffdfd4" fill-rule="evenodd" stroke="none"/>
    <path d="M28.25 20.0 Q26.95 20.75 25.4 20.35 23.95 20.0 23.15 18.65 22.4 17.35 22.75 15.9 23.2 14.45 24.5 13.7 25.85 12.95 27.3 13.35 28.75 13.7 29.5 15.0 30.3 16.35 29.95 17.8 29.6 19.25 28.25 20.0" fill="#ffffff" fill-rule="evenodd" stroke="none"/>
    <path d="M27.3 18.4 L25.9 18.6 Q25.15 18.35 24.75 17.7 24.35 17.05 24.55 16.35 24.75 15.6 25.4 15.25 L26.85 15.05 Q27.55 15.25 27.95 15.9 28.35 16.55 28.2 17.3 27.95 18.0 27.3 18.4" fill="#ffb59c" fill-rule="evenodd" stroke="none"/>
  </g>
</svg>
