<?xml version="1.0" encoding="UTF-8" standalone="no"?>
<svg xmlns:xlink="http://www.w3.org/1999/xlink" height="53.8px" width="58.05px" xmlns="http://www.w3.org/2000/svg">
  <g transform="matrix(1.0, 0.0, 0.0, 1.0, 2.55, 2.4)">
    <path d="M39.75 -1.8 L39.75 -1.7 42.2 -1.7 42.9 3.4 45.45 21.2 45.5 21.35 46.4 22.7 48.0 25.05 49.15 26.7 49.45 27.05 49.9 27.55 51.55 29.75 Q51.9 30.25 51.15 30.75 L50.1 31.75 Q50.0 31.75 49.95 31.85 L51.75 34.15 53.4 35.95 54.0 36.65 54.25 36.9 55.0 38.2 Q55.5 39.1 53.95 40.3 52.4 41.45 51.55 41.7 51.4 41.2 50.45 40.25 49.95 40.6 49.6 40.9 L49.0 41.2 49.45 42.9 Q49.65 43.85 45.55 45.8 41.5 47.7 41.15 47.3 L40.35 45.65 39.4 46.15 38.55 46.35 38.55 47.7 Q38.65 48.6 34.45 49.75 30.2 50.9 29.15 50.4 L28.95 48.8 28.9 48.75 26.95 48.9 25.3 48.8 24.95 51.0 Q18.6 50.2 14.95 48.85 L15.45 46.8 13.75 46.2 13.15 45.9 Q12.65 47.0 12.4 48.05 12.25 48.05 12.25 48.2 10.8 48.2 8.05 46.95 5.3 45.45 3.75 44.0 L4.65 42.0 2.25 40.5 1.0 41.75 Q0.0 41.7 -1.2 40.5 -2.4 39.3 -2.1 38.45 -1.75 37.6 -1.1 37.15 L0.4 35.5 1.95 33.6 3.1 32.15 3.1 32.05 2.35 31.65 1.7 31.05 Q1.35 30.6 1.6 30.25 L2.6 28.5 4.0 26.55 4.2 26.35 5.55 24.5 7.15 22.15 7.9 21.0 10.35 3.45 11.05 -2.0 34.4 -1.75 34.4 -1.8 39.75 -1.8 M38.55 46.35 L38.45 45.95 38.4 46.15 38.55 46.35 M50.45 40.25 L50.25 39.95 50.35 40.2 50.45 40.25" fill="#d23d7d" fill-rule="evenodd" stroke="none"/>
    <path d="M39.75 -1.8 L39.75 -1.7 42.2 -1.7 42.9 3.4 45.45 21.2 45.5 21.35 46.4 22.7 48.0 25.05 49.15 26.7 49.45 27.05 49.9 27.55 51.55 29.75 Q51.9 30.25 51.15 30.75 L50.1 31.75 Q50.0 31.75 49.95 31.85 L51.75 34.15 53.4 35.95 54.0 36.65 54.25 36.9 55.0 38.2 Q55.5 39.1 53.95 40.3 52.4 41.45 51.55 41.7 51.4 41.2 50.45 40.25 49.95 40.6 49.6 40.9 L49.0 41.2 49.45 42.9 Q49.65 43.85 45.55 45.8 41.5 47.7 41.15 47.3 L40.35 45.65 39.4 46.15 38.55 46.35 38.55 47.7 Q38.65 48.6 34.45 49.75 30.2 50.9 29.15 50.4 L28.95 48.8 28.9 48.75 26.95 48.9 25.3 48.8 24.95 51.0 Q18.6 50.2 14.95 48.85 L15.45 46.8 13.75 46.2 13.15 45.9 Q12.65 47.0 12.4 48.05 12.25 48.05 12.25 48.2 10.8 48.2 8.05 46.95 5.3 45.45 3.75 44.0 L4.65 42.0 2.25 40.5 1.0 41.75 Q0.0 41.7 -1.2 40.5 -2.4 39.3 -2.1 38.45 -1.75 37.6 -1.1 37.15 L0.4 35.5 1.95 33.6 3.1 32.15 3.1 32.05 2.35 31.65 1.7 31.05 Q1.35 30.6 1.6 30.25 L2.6 28.5 4.0 26.55 4.2 26.35 5.55 24.5 7.15 22.15 7.9 21.0 10.35 3.45 11.05 -2.0 34.4 -1.75 34.4 -1.8 39.75 -1.8 M50.45 40.25 L50.35 40.2 50.25 39.95 50.45 40.25 M38.55 46.35 L38.4 46.15 38.45 45.95 38.55 46.35" fill="none" stroke="#830645" stroke-linecap="round" stroke-linejoin="round" stroke-width="0.8"/>
    <path d="M51.75 34.15 L53.4 35.95 54.0 36.65 54.25 36.9 55.0 38.2 Q55.5 39.1 53.95 40.3 52.4 41.45 51.55 41.7 51.4 41.2 50.45 40.25 L50.25 39.95 50.3 40.1 48.0 37.25 47.4 37.75 47.95 38.65 48.8 40.55 49.0 41.2 49.45 42.9 Q49.65 43.85 45.55 45.8 41.5 47.7 41.15 47.3 L40.35 45.65 40.3 45.25 40.15 44.8 38.85 41.85 38.5 42.1 37.65 42.3 36.95 38.45 36.85 38.05 37.0 38.4 38.85 41.85 40.25 41.35 41.95 40.6 47.4 37.75 46.05 35.25 48.0 37.25 48.8 36.7 50.15 35.65 51.75 34.15 M38.55 46.35 L38.55 47.7 Q38.65 48.6 34.45 49.75 30.2 50.9 29.15 50.4 L28.95 48.8 28.9 48.75 28.95 48.3 28.8 46.65 28.45 43.9 25.85 44.1 25.3 48.8 24.95 51.0 Q18.6 50.2 14.95 48.85 L15.45 46.8 15.5 46.75 15.6 46.4 15.6 46.25 16.45 42.65 15.55 42.4 14.7 42.1 Q15.2 40.3 15.6 39.65 L16.15 38.45 17.05 35.95 Q17.05 35.75 17.15 35.95 L16.7 39.55 16.45 42.65 Q19.7 43.75 23.15 44.0 L24.95 44.1 25.55 44.1 25.85 44.1 26.8 37.75 27.45 39.95 28.45 43.9 28.75 43.85 Q33.4 43.55 37.65 42.3 L37.75 42.6 Q38.4 44.45 38.5 45.85 L38.45 45.95 38.4 46.15 38.55 46.35 M13.15 45.9 Q12.65 47.0 12.4 48.05 12.25 48.05 12.25 48.2 10.8 48.2 8.05 46.95 5.3 45.45 3.75 44.0 L4.65 42.0 5.5 40.65 5.65 40.2 Q6.1 39.05 6.7 37.85 L5.55 36.9 Q4.3 38.05 3.7 38.95 L2.25 40.5 1.0 41.75 Q0.0 41.7 -1.2 40.5 -2.4 39.3 -2.1 38.45 -1.75 37.6 -1.1 37.15 L0.4 35.5 1.95 33.6 3.4 35.1 5.4 36.85 5.55 36.9 7.6 34.3 8.4 33.35 7.9 34.5 6.7 37.85 10.4 40.15 13.3 41.55 Q13.95 41.75 14.7 42.1 L14.6 42.2 13.35 45.4 13.15 45.9" fill="#f56e9b" fill-rule="evenodd" stroke="none"/>
    <path d="M1.95 33.6 L3.8 31.25 5.2 29.35 7.05 30.2 Q9.1 30.95 13.15 31.7 L22.2 32.6 31.45 32.65 39.8 31.8 44.9 30.85 48.35 29.7 49.9 31.8 51.75 34.15 50.15 35.65 48.8 36.7 48.0 37.25 46.05 35.25 47.4 37.75 41.95 40.6 40.25 41.35 38.85 41.85 37.0 38.4 36.85 38.05 36.95 38.45 37.65 42.3 Q33.4 43.55 28.75 43.85 L28.45 43.9 27.45 39.95 26.8 37.75 25.85 44.1 25.55 44.1 24.95 44.1 23.15 44.0 Q19.7 43.75 16.45 42.65 L16.7 39.55 17.15 35.95 Q17.05 35.75 17.05 35.95 L16.15 38.45 15.6 39.65 Q15.2 40.3 14.7 42.1 13.95 41.75 13.3 41.55 L10.4 40.15 6.7 37.85 7.9 34.5 8.4 33.35 7.6 34.3 5.55 36.9 5.4 36.85 3.4 35.1 1.95 33.6" fill="#fab7cd" fill-rule="evenodd" stroke="none"/>
    <path d="M50.45 40.25 Q49.95 40.6 49.6 40.9 L49.0 41.2 48.8 40.55 47.95 38.65 47.4 37.75 48.0 37.25 50.3 40.1 50.35 40.2 50.45 40.25 M40.35 45.65 L39.4 46.15 38.55 46.35 38.45 45.95 38.5 45.85 Q38.4 44.45 37.75 42.6 L37.65 42.3 38.5 42.1 38.85 41.85 40.15 44.8 40.3 45.25 40.35 45.65 M28.9 48.75 L26.95 48.9 25.3 48.8 25.85 44.1 28.45 43.9 28.8 46.65 28.95 48.3 28.9 48.75 M15.45 46.8 L13.75 46.2 13.15 45.9 13.35 45.4 14.6 42.2 14.7 42.1 15.55 42.4 16.45 42.65 15.6 46.25 15.6 46.4 15.5 46.75 15.45 46.8 M4.65 42.0 L2.25 40.5 3.7 38.95 Q4.3 38.05 5.55 36.9 L6.7 37.85 Q6.1 39.05 5.65 40.2 L5.5 40.65 4.65 42.0" fill="#cb3676" fill-rule="evenodd" stroke="none"/>
    <path d="M10.35 3.45 L11.05 -2.0 42.2 -1.7 42.9 3.4 Q27.3 10.55 10.35 3.45" fill="#a2a2a2" fill-rule="evenodd" stroke="none"/>
    <path d="M42.9 3.4 L45.45 21.2 45.55 22.3 45.45 22.1 Q27.15 26.4 7.85 21.95 L7.85 21.2 10.35 3.45 Q27.3 10.55 42.9 3.4" fill="#c8c8c8" fill-rule="evenodd" stroke="none"/>
    <path d="M4.0 26.55 L4.2 26.35 5.55 24.5 7.15 22.15 8.35 20.3 9.9 21.1 Q11.6 21.85 15.1 22.6 L22.8 23.55 30.7 23.65 37.85 22.7 42.1 21.8 45.0 20.6 46.4 22.7 48.0 25.05 49.15 26.7 45.35 28.9 43.05 26.1 44.25 28.6 44.6 29.25 40.8 30.9 36.75 32.15 35.45 29.3 35.25 28.95 35.35 29.35 35.8 32.35 27.85 33.3 27.25 30.85 26.75 28.6 26.15 33.25 17.95 32.2 18.25 29.65 18.5 26.85 Q18.4 26.6 18.4 26.85 L17.6 29.35 17.2 30.55 16.7 31.85 11.3 30.0 9.35 29.25 9.6 28.7 10.65 25.4 11.05 24.3 10.4 25.2 Q9.25 26.6 8.55 27.75 L7.95 28.55 4.0 26.55" fill="#fab7cd" fill-rule="evenodd" stroke="none"/>
    <path d="M4.0 26.55 L7.95 28.55 8.55 27.75 Q9.25 26.6 10.4 25.2 L11.05 24.3 10.65 25.4 9.6 28.7 9.35 29.25 11.3 30.0 16.7 31.85 17.2 30.55 17.6 29.35 18.4 26.85 Q18.4 26.6 18.5 26.85 L18.25 29.65 17.95 32.2 26.15 33.25 26.75 28.6 27.25 30.85 27.85 33.3 35.8 32.35 35.35 29.35 35.25 28.95 35.45 29.3 36.75 32.15 40.8 30.9 44.6 29.25 44.25 28.6 43.05 26.1 45.35 28.9 49.15 26.7 49.45 27.05 49.9 27.55 51.55 29.75 Q51.9 30.25 51.15 30.75 L50.1 31.75 48.95 32.65 Q48.35 33.1 48.2 32.85 L47.7 32.2 47.3 31.4 47.25 31.35 47.15 31.3 45.35 28.9 44.6 29.25 44.7 29.6 45.45 31.5 45.6 32.05 45.6 32.2 45.75 33.25 45.75 33.55 Q45.7 34.0 42.2 36.05 L40.0 37.25 38.75 37.95 38.7 37.75 38.3 36.45 38.25 36.3 38.25 36.2 38.1 35.7 38.0 35.4 36.95 32.7 36.75 32.15 35.8 32.35 36.05 33.15 36.3 34.25 36.65 35.65 36.75 36.7 36.75 36.45 36.8 36.7 37.05 38.2 37.05 38.25 36.95 38.65 36.8 38.65 36.2 38.85 36.0 38.95 35.35 39.05 28.55 40.0 28.55 39.7 28.55 39.55 28.55 38.65 28.55 38.45 28.5 38.15 28.35 37.05 28.1 34.8 27.85 33.3 26.15 33.25 25.7 38.05 25.7 38.2 25.65 38.9 25.55 39.5 25.55 39.95 25.25 39.95 25.1 39.95 17.5 38.9 16.85 38.7 17.0 38.2 17.05 37.85 17.05 37.8 17.2 37.3 17.2 37.15 17.25 36.9 17.9 33.6 17.95 32.2 16.7 31.85 16.7 32.05 Q16.25 33.0 16.1 33.8 15.8 34.55 15.65 35.25 L15.25 36.3 15.25 36.4 15.1 36.9 14.9 37.6 14.6 38.15 14.6 38.05 14.35 38.0 Q12.55 37.5 10.85 36.7 L8.9 35.95 8.7 35.9 7.75 35.35 7.0 34.5 7.05 34.45 7.55 33.6 Q7.65 33.1 7.85 32.95 L8.15 32.5 8.55 31.55 8.65 31.05 9.35 29.25 7.95 28.55 6.95 29.95 5.9 31.35 5.6 31.8 5.2 32.5 4.55 32.95 3.85 32.6 3.1 32.05 2.35 31.65 1.7 31.05 Q1.35 30.6 1.6 30.25 L2.6 28.5 4.0 26.55" fill="#f56e9b" fill-rule="evenodd" stroke="none"/>
    <path d="M47.25 31.35 L45.7 32.15 45.6 32.2 45.6 32.05 45.45 31.5 44.7 29.6 44.6 29.25 45.35 28.9 47.15 31.3 47.25 31.35 M38.25 36.3 Q37.75 36.4 37.4 36.65 L37.35 36.7 Q36.85 36.9 36.8 36.7 L36.75 36.45 36.75 36.7 36.65 35.65 36.3 34.25 36.05 33.15 35.8 32.35 36.75 32.15 36.95 32.7 38.0 35.4 38.1 35.7 38.25 36.2 38.25 36.3 M28.5 38.15 L28.45 38.15 27.45 38.15 27.3 38.15 25.75 38.05 25.7 38.05 26.15 33.25 27.85 33.3 28.1 34.8 28.35 37.05 28.5 38.15 M17.25 36.9 L16.95 36.9 16.85 36.85 16.6 36.7 16.35 36.65 15.25 36.4 15.25 36.3 15.65 35.25 Q15.8 34.55 16.1 33.8 16.25 33.0 16.7 32.05 L16.7 31.85 17.95 32.2 17.9 33.6 17.25 36.9 M8.15 32.5 L7.8 32.35 7.65 32.35 7.5 32.25 6.9 31.95 5.9 31.35 6.95 29.95 7.95 28.55 9.35 29.25 8.65 31.05 8.55 31.55 8.15 32.5" fill="#cb3676" fill-rule="evenodd" stroke="none"/>
    <path d="M19.1 -1.9 L19.1 25.35 13.75 25.35 13.75 -1.9 19.1 -1.9" fill="#f56e9b" fill-rule="evenodd" stroke="none"/>
    <path d="M16.25 20.0 Q18.0 20.0 19.15 21.2 20.4 22.4 20.4 24.0 20.4 25.75 19.15 26.9 18.0 28.1 16.25 28.1 14.55 28.1 13.3 26.9 12.15 25.75 12.15 24.0 12.15 22.4 13.3 21.2 14.55 20.0 16.25 20.0" fill="#ffe9f0" fill-rule="evenodd" stroke="none"/>
    <path d="M14.4 25.85 Q13.6 25.15 13.6 24.0 13.6 23.0 14.4 22.25 15.2 21.45 16.3 21.45 17.3 21.45 18.2 22.25 18.95 23.0 18.95 24.0 18.95 25.15 18.2 25.85 17.3 26.65 16.3 26.65 15.2 26.65 14.4 25.85" fill="#f56e9b" fill-rule="evenodd" stroke="none"/>
    <path d="M39.75 -1.8 L39.75 25.4 34.4 25.4 34.4 -1.8 39.75 -1.8" fill="#f56e9b" fill-rule="evenodd" stroke="none"/>
    <path d="M32.85 24.0 Q32.85 22.4 34.1 21.2 35.35 20.0 37.05 20.0 38.85 20.0 40.0 21.2 41.3 22.4 41.3 24.0 41.3 25.75 40.0 26.9 38.85 28.1 37.05 28.1 35.35 28.1 34.1 26.9 32.85 25.75 32.85 24.0" fill="#ffe9f0" fill-rule="evenodd" stroke="none"/>
    <path d="M35.2 25.85 Q34.4 25.15 34.4 24.0 34.4 23.0 35.2 22.25 36.05 21.45 37.05 21.45 38.15 21.45 39.0 22.25 39.75 23.0 39.75 24.0 39.75 25.15 39.0 25.85 38.15 26.65 37.05 26.65 36.05 26.65 35.2 25.85" fill="#f56e9b" fill-rule="evenodd" stroke="none"/>
    <path d="M18.1 17.2 Q17.35 17.9 16.45 17.9 15.55 17.9 14.9 17.2 14.2 16.6 14.2 15.65 14.2 14.75 14.9 14.1 15.55 13.45 16.45 13.45 17.35 13.45 18.1 14.1 18.75 14.75 18.75 15.65 18.75 16.6 18.1 17.2" fill="#faa9c4" fill-rule="evenodd" stroke="none"/>
    <path d="M18.1 10.2 Q17.35 10.95 16.45 10.95 15.55 10.95 14.9 10.2 14.2 9.65 14.2 8.65 14.2 7.8 14.9 7.15 15.55 6.5 16.45 6.5 17.35 6.5 18.1 7.15 18.75 7.8 18.75 8.65 18.75 9.65 18.1 10.2" fill="#faa9c4" fill-rule="evenodd" stroke="none"/>
    <path d="M18.75 1.95 Q18.75 2.9 18.1 3.5 17.35 4.2 16.45 4.2 15.55 4.2 14.9 3.5 14.2 2.9 14.2 1.95 14.2 1.1 14.9 0.45 15.55 -0.15 16.45 -0.15 17.35 -0.15 18.1 0.45 18.75 1.1 18.75 1.95" fill="#faa9c4" fill-rule="evenodd" stroke="none"/>
    <path d="M39.3 15.6 Q39.3 16.55 38.65 17.2 37.9 17.9 37.05 17.9 36.15 17.9 35.45 17.2 34.75 16.55 34.75 15.6 34.75 14.7 35.45 14.05 36.15 13.4 37.05 13.4 37.9 13.4 38.65 14.05 39.3 14.7 39.3 15.6" fill="#faa9c4" fill-rule="evenodd" stroke="none"/>
    <path d="M39.3 8.65 Q39.3 9.65 38.65 10.2 37.9 10.95 37.05 10.95 36.15 10.95 35.45 10.2 34.75 9.65 34.75 8.65 34.75 7.8 35.45 7.15 36.15 6.5 37.05 6.5 37.9 6.5 38.65 7.15 39.3 7.8 39.3 8.65" fill="#faa9c4" fill-rule="evenodd" stroke="none"/>
    <path d="M35.45 3.5 Q34.75 2.9 34.75 1.95 34.75 1.1 35.45 0.45 36.15 -0.15 37.05 -0.15 37.9 -0.15 38.65 0.45 39.3 1.1 39.3 1.95 39.3 2.9 38.65 3.5 37.9 4.2 37.05 4.2 36.15 4.2 35.45 3.5" fill="#faa9c4" fill-rule="evenodd" stroke="none"/>
    <path d="M22.35 7.05 L24.35 6.85 Q24.4 6.5 23.0 5.75 21.55 4.9 19.1 4.4 L14.6 3.95 12.4 4.2 Q12.35 4.4 13.95 5.0 15.55 5.8 17.95 6.25 L22.35 7.05 M25.05 6.55 Q25.45 8.85 23.7 10.75 21.7 12.95 19.15 14.05 16.45 15.35 13.45 14.85 L12.4 10.55 Q11.2 7.5 11.7 4.4 11.7 3.6 12.4 3.5 L19.0 3.85 Q22.45 4.65 25.05 6.55" fill="#d01e62" fill-rule="evenodd" stroke="none"/>
    <path d="M22.35 7.05 L17.95 6.25 Q15.55 5.8 13.95 5.0 12.35 4.4 12.4 4.2 L14.6 3.95 19.1 4.4 Q21.55 4.9 23.0 5.75 24.4 6.5 24.35 6.85 L22.35 7.05" fill="#a80040" fill-rule="evenodd" stroke="none"/>
    <path d="M18.15 7.6 L20.95 7.95 23.8 8.1 24.75 7.85 24.35 8.6 24.4 8.6 24.25 8.75 22.85 9.7 20.45 10.9 Q19.15 11.5 18.2 11.5 L15.95 11.05 Q14.65 10.6 14.0 9.7 L15.3 9.55 16.1 8.9 16.15 8.75 16.25 8.3 16.3 8.2 17.0 7.7 18.15 7.6" fill="#e53c7d" fill-rule="evenodd" stroke="none"/>
    <path d="M40.75 14.65 Q37.8 15.2 35.05 13.95 32.4 12.7 30.45 10.55 28.85 8.75 29.15 6.35 31.75 4.4 35.1 3.6 L41.75 3.25 Q42.35 3.5 42.45 4.2 43.05 7.35 41.75 10.5 40.95 12.5 40.75 14.65 M35.1 4.2 Q32.55 4.7 31.15 5.5 29.75 6.25 29.8 6.75 L31.85 6.85 36.15 6.15 40.3 4.9 Q41.85 4.2 41.75 4.0 L39.55 3.7 35.1 4.2" fill="#d01e62" fill-rule="evenodd" stroke="none"/>
    <path d="M35.1 4.2 L39.55 3.7 41.75 4.0 Q41.85 4.2 40.3 4.9 L36.15 6.15 31.85 6.85 29.8 6.75 Q29.75 6.25 31.15 5.5 32.55 4.7 35.1 4.2" fill="#a80040" fill-rule="evenodd" stroke="none"/>
    <path d="M34.95 8.25 Q36.25 8.5 37.6 9.15 L38.25 9.45 39.35 9.5 37.75 11.15 Q36.8 11.9 35.25 12.05 33.7 12.25 32.5 11.6 L30.35 9.95 29.1 8.55 28.95 8.4 29.0 8.4 28.6 7.65 29.4 7.95 32.0 8.0 34.95 8.25" fill="#e53c7d" fill-rule="evenodd" stroke="none"/>
    <path d="M23.3 8.3 Q23.3 6.75 24.3 5.15 L30.1 5.15 Q30.8 6.5 30.8 7.95 L27.4 7.35 Q24.9 7.35 23.3 8.3" fill="#e53c7d" fill-rule="evenodd" stroke="none"/>
    <path d="M30.8 7.95 Q30.8 9.45 30.1 10.75 L24.3 10.75 Q23.3 9.65 23.3 8.3 24.9 7.35 27.4 7.35 L30.8 7.95" fill="#b40e4e" fill-rule="evenodd" stroke="none"/>
  </g>
</svg>
