<?xml version="1.0" encoding="UTF-8" standalone="no"?>
<svg xmlns:xlink="http://www.w3.org/1999/xlink" height="71.55px" width="71.05px" xmlns="http://www.w3.org/2000/svg">
  <g transform="matrix(1.0, 0.0, 0.0, 1.0, 8.35, 13.1)">
    <path d="M47.35 -12.1 Q61.7 -12.1 61.7 2.25 L61.7 43.1 Q61.7 57.45 47.35 57.45 L7.0 57.45 Q-7.35 57.45 -7.35 43.1 L-7.35 2.25 Q-7.35 -12.1 7.0 -12.1 L47.35 -12.1" fill="#cff3e8" fill-rule="evenodd" stroke="none"/>
    <path d="M15.65 36.3 L15.65 36.2 15.75 36.4 15.65 36.3" fill="url(#gradient0)" fill-rule="evenodd" stroke="none"/>
    <path d="M15.65 36.3 L15.75 36.4" fill="none" stroke="#660000" stroke-linecap="round" stroke-linejoin="round" stroke-width="0.05"/>
    <path d="M41.4 14.65 L41.8 18.4 41.95 18.9 42.2 20.75 42.25 20.95 42.35 20.9 Q42.35 22.25 42.7 22.9 L43.1 23.5 44.65 24.55 44.7 24.6 Q47.3 26.9 49.45 29.65 51.4 32.15 52.8 35.0 L53.0 35.8 52.85 35.95 52.45 36.2 52.15 36.55 51.85 36.95 51.7 37.35 Q51.25 38.95 49.85 39.4 L49.5 39.5 Q46.55 38.8 45.45 41.7 L44.9 42.65 43.8 42.95 43.2 43.0 42.1 42.1 Q39.6 41.5 37.75 43.35 L37.35 43.9 Q37.0 45.15 36.15 45.75 L35.55 46.2 33.3 46.05 31.85 45.2 31.7 44.35 31.05 43.75 Q30.35 43.4 29.65 43.2 L28.85 43.0 Q26.85 43.6 25.35 45.25 25.0 45.65 24.35 45.7 L23.65 45.9 21.35 45.3 21.05 45.05 21.3 43.7 Q19.85 41.1 17.7 41.45 15.55 41.7 15.2 42.95 L15.2 43.25 Q13.45 44.1 11.9 42.95 L10.05 40.5 Q9.0 39.75 7.8 39.85 L7.1 40.05 7.0 40.9 5.45 40.75 5.1 40.5 4.15 39.8 Q4.05 37.85 2.55 36.8 L1.8 36.45 0.05 36.35 Q1.4 33.0 3.45 30.0 5.5 26.9 8.3 24.5 L9.4 23.55 9.85 23.25 10.0 22.6 Q10.35 21.3 10.6 20.9 L11.0 17.55 11.05 17.4 11.0 17.4 11.5 13.8 11.55 13.8 12.65 5.45 12.6 5.45 13.0 1.8 13.05 1.45 13.2 0.0 39.45 0.35 39.45 0.45 39.55 0.45 40.15 4.9 41.4 14.65" fill="#ee90b6" fill-rule="evenodd" stroke="none"/>
    <path d="M41.4 14.65 L40.15 4.9 39.55 0.45 39.45 0.45 39.45 0.35 13.2 0.0 13.05 1.45 13.0 1.8 12.6 5.45 12.65 5.45 11.55 13.8 11.5 13.8 11.0 17.4 11.05 17.4 11.0 17.55 10.6 20.9 Q10.35 21.3 10.0 22.6 L9.85 23.25 9.4 23.55 8.3 24.5 Q5.5 26.9 3.45 30.0 1.4 33.0 0.05 36.35 L1.8 36.45 2.55 36.8 Q4.05 37.85 4.15 39.8 L5.1 40.5 5.45 40.75 7.0 40.9 7.1 40.05 7.8 39.85 Q9.0 39.75 10.05 40.5 L11.9 42.95 Q13.45 44.1 15.2 43.25 L15.2 42.95 Q15.55 41.7 17.7 41.45 19.85 41.1 21.3 43.7 L21.05 45.05 21.35 45.3 23.65 45.9 24.35 45.7 Q25.0 45.65 25.35 45.25 26.85 43.6 28.85 43.0 L29.65 43.2 Q30.35 43.4 31.05 43.75 L31.7 44.35 31.85 45.2 33.3 46.05 35.55 46.2 36.15 45.75 Q37.0 45.15 37.35 43.9 L37.75 43.35 Q39.6 41.5 42.1 42.1 L43.2 43.0 43.8 42.95 44.9 42.65 45.45 41.7 Q46.55 38.8 49.5 39.5 L49.85 39.4 Q51.25 38.95 51.7 37.35 L51.85 36.95 52.15 36.55 52.45 36.2 52.85 35.95 53.0 35.8 52.8 35.0 Q51.4 32.15 49.45 29.65 47.3 26.9 44.7 24.6 L44.65 24.55 43.1 23.5 42.7 22.9 Q42.35 22.25 42.35 20.9 L42.25 20.95 42.2 20.75 41.95 18.9 41.8 18.4 41.4 14.65 Z" fill="none" stroke="#830645" stroke-linecap="round" stroke-linejoin="round" stroke-width="0.8"/>
    <path d="M41.75 18.45 L40.0 18.8 39.8 14.9 41.3 14.65 41.75 18.45" fill="#c9177b" fill-rule="evenodd" stroke="none"/>
    <path d="M41.75 18.45 L41.85 19.1 42.15 20.95 42.15 21.2 42.3 21.95 42.15 21.75 39.65 22.35 39.75 21.75 39.95 19.65 40.0 18.8 41.75 18.45 M14.15 22.35 L10.5 21.65 10.5 20.95 10.95 17.6 11.4 13.95 12.6 5.0 13.0 1.9 Q14.05 4.9 15.5 7.45 14.4 11.8 14.1 16.0 L14.05 18.5 14.15 22.35" fill="#de268c" fill-rule="evenodd" stroke="none"/>
    <path d="M40.0 18.8 L39.95 19.65 39.75 21.75 39.65 22.35 Q27.0 24.75 14.15 22.35 L14.05 18.5 14.1 16.0 Q14.4 11.8 15.5 7.45 18.5 13.65 25.1 16.7 31.7 19.65 40.0 18.8" fill="#ec3a9d" fill-rule="evenodd" stroke="none"/>
    <path d="M39.8 14.9 L40.0 18.8 Q31.7 19.65 25.1 16.7 18.5 13.65 15.5 7.45 L16.65 1.8 17.15 1.9 Q22.0 14.85 39.8 14.9" fill="#d4117e" fill-rule="evenodd" stroke="none"/>
    <path d="M35.3 0.45 L39.45 0.5 40.05 4.95 41.3 14.65 39.8 14.9 Q39.2 7.0 35.3 0.45" fill="#a2a2a2" fill-rule="evenodd" stroke="none"/>
    <path d="M13.1 1.25 L13.2 0.15 16.8 0.25 35.3 0.45 Q39.2 7.0 39.8 14.9 22.0 14.85 17.15 1.9 L16.65 1.8 13.1 1.25" fill="#c8c8c8" fill-rule="evenodd" stroke="none"/>
    <path d="M13.0 1.9 L13.05 1.6 13.1 1.25 16.65 1.8 15.5 7.45 Q14.05 4.9 13.0 1.9" fill="#a60d62" fill-rule="evenodd" stroke="none"/>
    <path d="M13.0 1.9 L13.05 1.6" fill="none" stroke="#830645" stroke-linecap="round" stroke-linejoin="round" stroke-width="0.5"/>
    <path d="M13.05 1.5 L13.2 0.05 39.4 0.4 40.0 5.45 Q31.0 10.4 21.25 8.7 18.95 5.8 17.1 2.25 L13.05 1.5" fill="#a2a2a2" fill-rule="evenodd" stroke="none"/>
    <path d="M13.05 1.5 L17.1 2.25 Q18.95 5.8 21.25 8.7 18.1 7.85 15.25 6.7 13.7 4.5 13.0 1.8 L13.05 1.5" fill="#9c0a5b" fill-rule="evenodd" stroke="none"/>
    <path d="M15.25 6.7 L12.6 5.5 13.0 1.8 Q13.7 4.5 15.25 6.7" fill="#cb187b" fill-rule="evenodd" stroke="none"/>
    <path d="M21.0 11.4 Q20.5 11.85 19.8 11.85 19.15 11.85 18.6 11.4 18.15 10.9 18.15 10.25 18.15 9.55 18.6 9.05 19.15 8.55 19.8 8.55 20.5 8.55 21.0 9.05 21.5 9.55 21.5 10.25 21.5 10.9 21.0 11.4" fill="#ff7ec5" fill-rule="evenodd" stroke="none"/>
    <path d="M24.8 12.4 Q25.45 12.4 26.0 12.9 26.45 13.45 26.45 14.1 L26.0 15.25 Q25.45 15.75 24.8 15.75 24.15 15.75 23.6 15.25 23.1 14.8 23.1 14.1 23.1 13.45 23.6 12.9 24.15 12.4 24.8 12.4" fill="#ff7ec5" fill-rule="evenodd" stroke="none"/>
    <path d="M32.2 15.1 Q32.65 15.65 32.65 16.3 32.65 17.0 32.2 17.45 31.7 17.95 31.0 17.95 30.35 17.95 29.8 17.45 29.3 17.0 29.3 16.3 29.3 15.65 29.8 15.1 30.35 14.6 31.0 14.6 31.7 14.6 32.2 15.1" fill="#ff7ec5" fill-rule="evenodd" stroke="none"/>
    <path d="M36.3 15.85 Q36.85 15.35 37.5 15.35 38.15 15.35 38.7 15.85 39.2 16.35 39.2 17.05 39.2 17.75 38.7 18.2 L37.5 18.7 Q36.85 18.7 36.3 18.2 35.8 17.75 35.8 17.05 35.8 16.35 36.3 15.85" fill="#ff7ec5" fill-rule="evenodd" stroke="none"/>
    <path d="M18.4 10.2 Q18.4 9.85 18.7 9.6 18.95 9.35 19.25 9.35 19.65 9.35 19.9 9.6 L20.15 10.2 19.9 10.85 19.25 11.1 18.7 10.85 Q18.4 10.6 18.4 10.2" fill="#ffd9ee" fill-rule="evenodd" stroke="none"/>
    <path d="M23.8 13.65 L24.35 13.4 Q24.75 13.4 25.0 13.65 L25.25 14.25 25.0 14.9 24.35 15.1 23.8 14.9 Q23.5 14.65 23.5 14.25 23.5 13.9 23.8 13.65" fill="#ffd9ee" fill-rule="evenodd" stroke="none"/>
    <path d="M31.3 15.8 L31.5 16.4 31.3 17.05 30.65 17.25 30.05 17.05 Q29.8 16.8 29.8 16.4 29.8 16.05 30.05 15.8 L30.65 15.55 31.3 15.8" fill="#ffd9ee" fill-rule="evenodd" stroke="none"/>
    <path d="M36.5 17.8 L36.25 17.15 Q36.25 16.8 36.5 16.55 L37.1 16.3 Q37.5 16.3 37.75 16.55 L37.95 17.15 37.75 17.8 37.1 18.0 36.5 17.8" fill="#ffd9ee" fill-rule="evenodd" stroke="none"/>
    <path d="M15.0 3.55 Q15.55 3.05 16.2 3.05 16.85 3.05 17.4 3.55 17.85 4.05 17.85 4.7 17.85 5.45 17.4 5.85 16.85 6.35 16.2 6.35 15.55 6.35 15.0 5.85 14.5 5.45 14.5 4.7 14.5 4.05 15.0 3.55" fill="#ff7ec5" fill-rule="evenodd" stroke="none"/>
    <path d="M15.05 4.15 L15.65 3.9 Q16.05 3.9 16.3 4.15 L16.5 4.75 16.3 5.4 15.65 5.6 15.05 5.4 Q14.8 5.15 14.8 4.75 14.8 4.4 15.05 4.15" fill="#ffd9ee" fill-rule="evenodd" stroke="none"/>
    <path d="M39.95 19.45 L41.85 18.95 42.15 20.8 42.15 21.05 39.75 21.6 39.95 19.45 M14.1 15.8 L14.05 18.35 Q12.45 18.0 10.95 17.45 L11.4 13.8 Q12.45 14.95 14.1 15.8" fill="#e94fa4" fill-rule="evenodd" stroke="none"/>
    <path d="M39.95 19.45 L39.75 21.6 36.65 21.75 Q32.95 21.65 29.0 19.45 35.15 20.55 39.95 19.45 M14.05 18.35 L14.1 15.8 Q16.85 17.25 21.45 17.8 17.6 18.9 14.05 18.35" fill="#fc8bca" fill-rule="evenodd" stroke="none"/>
    <path d="M39.75 21.6 L42.35 21.0 Q42.3 22.35 42.65 23.0 L43.1 23.6 44.6 24.7 44.65 24.75 42.7 25.4 41.6 25.7 37.95 26.7 Q39.75 26.0 39.75 24.15 L39.75 21.6 M8.25 24.6 L9.35 23.65 9.8 23.3 9.95 22.7 Q10.5 20.75 10.75 20.85 L11.45 21.1 14.05 21.65 14.25 23.65 Q14.3 25.35 15.2 26.65 L11.15 25.6 8.25 24.6" fill="#f3aeca" fill-rule="evenodd" stroke="none"/>
    <path d="M44.65 24.75 Q47.3 27.0 49.4 29.7 51.35 32.2 52.8 35.1 L52.95 35.85 52.8 36.05 52.4 36.25 52.1 36.6 51.85 37.0 51.65 37.45 Q49.25 34.95 47.55 33.75 45.85 32.55 43.8 31.45 44.05 32.75 45.15 33.65 48.0 36.15 49.45 39.6 46.55 38.9 45.4 41.85 L44.85 42.75 42.75 39.75 Q41.55 37.9 37.85 35.2 41.55 38.9 43.2 43.1 L42.05 42.2 Q40.9 41.1 39.45 40.75 L38.65 40.8 Q37.0 41.9 37.3 44.0 37.0 45.2 36.1 45.85 L35.55 46.25 33.3 46.1 32.6 43.55 Q31.8 40.6 30.25 38.05 L30.7 39.75 31.65 44.4 31.0 43.85 30.1 38.6 Q29.65 36.4 27.75 35.0 L27.95 35.65 Q29.15 39.3 28.8 43.1 26.8 43.65 25.3 45.3 24.95 45.7 24.35 45.8 L23.65 46.0 23.6 45.0 Q23.45 41.6 22.25 38.45 L22.05 39.75 21.25 43.8 Q19.8 41.25 17.65 41.55 15.5 41.85 15.2 43.0 L16.05 39.25 Q17.05 35.6 17.65 31.85 L15.0 35.9 Q13.05 39.15 11.85 43.0 L11.3 42.35 Q12.4 39.0 14.3 35.8 L13.65 36.25 Q11.4 38.1 10.05 40.6 8.95 39.85 7.75 40.0 L7.05 40.15 8.9 36.7 8.05 37.6 5.4 40.9 5.05 40.6 4.1 39.9 Q4.3 38.05 4.9 36.4 L5.3 34.75 1.75 36.55 0.0 36.4 Q1.35 33.1 3.4 30.05 5.45 26.95 8.25 24.6 L11.15 25.6 Q8.95 28.05 7.3 31.0 L5.5 34.55 6.35 33.5 Q7.3 32.65 8.4 31.85 L8.4 32.2 6.95 35.3 Q7.9 33.85 9.5 33.0 L11.95 31.7 10.05 38.45 Q12.95 35.05 16.6 32.35 L17.8 31.4 17.4 38.2 Q17.1 41.55 18.45 36.8 L19.4 33.9 Q20.6 36.35 20.35 39.6 20.15 42.75 21.9 37.65 L22.9 34.7 Q24.95 37.6 25.85 41.2 L26.0 41.65 Q26.4 39.1 26.9 37.1 27.3 35.1 27.1 33.65 29.9 34.55 31.0 36.55 L33.6 41.5 Q34.8 40.4 36.4 39.85 37.25 39.5 38.15 39.25 35.45 36.6 33.55 33.65 32.75 32.4 32.3 30.95 34.65 30.95 36.5 32.35 39.4 34.5 41.8 37.05 44.65 40.2 44.9 39.15 45.1 38.1 46.55 37.5 44.9 35.8 43.7 33.55 42.9 32.2 42.7 30.8 L42.7 29.85 Q44.3 30.35 45.65 31.05 L48.95 33.3 Q52.0 35.9 48.95 32.4 45.85 28.9 48.15 29.8 47.35 28.6 46.0 27.5 44.7 26.4 42.7 25.4 L44.65 24.75 M7.85 26.0 Q4.2 29.95 1.15 35.1 2.95 33.75 3.45 34.0 3.95 34.2 5.2 33.2 5.35 30.65 8.8 27.0 L9.6 26.15 9.35 25.8 7.85 26.0" fill="#ec3a9d" fill-rule="evenodd" stroke="none"/>
    <path d="M37.95 26.7 L41.6 25.7 42.7 25.4 Q44.7 26.4 46.0 27.5 47.35 28.6 48.15 29.8 45.85 28.9 48.95 32.4 52.0 35.9 48.95 33.3 L45.65 31.05 Q44.3 30.35 42.7 29.85 L42.7 30.8 Q42.9 32.2 43.7 33.55 44.9 35.8 46.55 37.5 45.1 38.1 44.9 39.15 44.65 40.2 41.8 37.05 39.4 34.5 36.5 32.35 34.65 30.95 32.3 30.95 32.75 32.4 33.55 33.65 35.45 36.6 38.15 39.25 37.25 39.5 36.4 39.85 34.8 40.4 33.6 41.5 L31.0 36.55 Q29.9 34.55 27.1 33.65 27.3 35.1 26.9 37.1 26.4 39.1 26.0 41.65 L25.85 41.2 Q24.95 37.6 22.9 34.7 L21.9 37.65 Q20.15 42.75 20.35 39.6 20.6 36.35 19.4 33.9 L18.45 36.8 Q17.1 41.55 17.4 38.2 L17.8 31.4 16.6 32.35 Q12.95 35.05 10.05 38.45 L11.95 31.7 9.5 33.0 Q7.9 33.85 6.95 35.3 L8.4 32.2 8.4 31.85 Q7.3 32.65 6.35 33.5 L5.5 34.55 7.3 31.0 Q8.95 28.05 11.15 25.6 L15.2 26.65 16.05 26.8 17.55 27.1 25.35 27.95 32.9 27.6 35.75 27.1 37.95 26.7 M41.2 28.05 L44.75 27.8 Q42.5 26.0 39.6 27.1 36.0 28.4 32.05 28.55 L31.85 28.6 31.75 28.75 31.8 28.9 31.95 29.1 32.05 29.2 32.15 29.2 32.8 28.9 33.0 28.85 34.5 29.3 Q41.05 34.35 39.5 29.85 39.55 28.2 41.2 28.05 M15.8 28.05 L13.9 31.15 Q13.0 32.55 11.9 35.1 14.65 31.4 18.7 30.6 L19.4 28.5 16.65 28.25 15.8 28.05 M11.2 26.9 Q8.75 29.3 8.25 30.95 L10.0 30.3 9.35 31.7 14.45 28.2 Q12.5 27.45 11.85 27.65 11.15 27.85 11.2 26.9 M7.85 26.0 L9.35 25.8 9.6 26.15 8.8 27.0 Q5.35 30.65 5.2 33.2 3.95 34.2 3.45 34.0 2.95 33.75 1.15 35.1 4.2 29.95 7.85 26.0 M22.75 30.35 L23.25 29.1 21.25 29.05 19.95 28.75 20.55 33.9 21.3 31.65 22.55 32.55 Q24.2 34.85 23.45 33.1 22.7 31.4 22.75 30.35 M32.95 35.1 L33.15 34.95 Q31.95 33.15 31.35 31.1 L30.45 29.2 Q27.4 29.75 24.35 29.15 L25.0 32.5 25.25 32.75 25.5 33.25 26.0 33.3 26.4 33.1 26.75 32.35 26.95 31.65 27.05 31.1 Q28.75 31.85 29.85 33.1 L31.45 35.5 32.35 35.4 32.95 35.1" fill="#fa60b6" fill-rule="evenodd" stroke="none"/>
    <path d="M41.2 28.05 Q39.55 28.2 39.5 29.85 41.05 34.35 34.5 29.3 L33.0 28.85 32.8 28.9 32.15 29.2 32.05 29.2 31.95 29.1 31.8 28.9 31.75 28.75 31.85 28.6 32.05 28.55 Q36.0 28.4 39.6 27.1 42.5 26.0 44.75 27.8 L41.2 28.05 M15.8 28.05 L16.65 28.25 19.4 28.5 18.7 30.6 Q14.65 31.4 11.9 35.1 13.0 32.55 13.9 31.15 L15.8 28.05 M11.2 26.9 Q11.15 27.85 11.85 27.65 12.5 27.45 14.45 28.2 L9.35 31.7 10.0 30.3 8.25 30.95 Q8.75 29.3 11.2 26.9 M32.95 35.1 L32.35 35.4 31.45 35.5 29.85 33.1 Q28.75 31.85 27.05 31.1 L26.95 31.65 26.75 32.35 26.4 33.1 26.0 33.3 25.5 33.25 25.25 32.75 25.0 32.5 24.35 29.15 Q27.4 29.75 30.45 29.2 L31.35 31.1 Q31.95 33.15 33.15 34.95 L32.95 35.1 M22.75 30.35 Q22.7 31.4 23.45 33.1 24.2 34.85 22.55 32.55 L21.3 31.65 20.55 33.9 19.95 28.75 21.25 29.05 23.25 29.1 22.75 30.35" fill="#ff7ec5" fill-rule="evenodd" stroke="none"/>
    <path d="M51.65 37.45 Q51.2 39.0 49.8 39.5 L49.45 39.6 Q48.0 36.15 45.15 33.65 44.05 32.75 43.8 31.45 45.85 32.55 47.55 33.75 49.25 34.95 51.65 37.45 M44.85 42.75 L43.8 43.0 43.2 43.1 Q41.55 38.9 37.85 35.2 41.55 37.9 42.75 39.75 L44.85 42.75 M33.3 46.1 L31.8 45.3 31.65 44.4 30.7 39.75 30.25 38.05 Q31.8 40.6 32.6 43.55 L33.3 46.1 M23.65 46.0 Q22.4 45.95 21.3 45.35 L21.0 45.15 21.25 43.8 22.05 39.75 22.25 38.45 Q23.45 41.6 23.6 45.0 L23.65 46.0 M15.2 43.0 L15.2 43.3 Q13.45 44.2 11.85 43.0 13.05 39.15 15.0 35.9 L17.65 31.85 Q17.05 35.6 16.05 39.25 L15.2 43.0 M7.05 40.15 L6.95 41.0 5.4 40.9 8.05 37.6 8.9 36.7 7.05 40.15" fill="#ff85c8" fill-rule="evenodd" stroke="none"/>
    <path d="M14.05 21.65 L16.3 21.95 23.3 22.8 28.5 22.9 32.05 22.7 34.4 22.45 37.8 22.0 39.75 21.6 39.75 24.15 Q39.75 26.0 37.95 26.7 L35.75 27.1 32.9 27.6 25.35 27.95 17.55 27.1 16.05 26.8 15.2 26.65 Q14.3 25.35 14.25 23.65 L14.05 21.65" fill="url(#gradient1)" fill-rule="evenodd" stroke="none"/>
    <path d="M42.05 42.2 Q39.55 41.6 37.75 43.45 L37.3 44.0 Q37.0 41.9 38.65 40.8 L39.45 40.75 Q40.9 41.1 42.05 42.2 M31.0 43.85 L29.6 43.3 28.8 43.1 Q29.15 39.3 27.95 35.65 L27.75 35.0 Q29.65 36.4 30.1 38.6 L31.0 43.85 M11.3 42.35 L10.05 40.6 Q11.4 38.1 13.65 36.25 L14.3 35.8 Q12.4 39.0 11.3 42.35 M4.1 39.9 Q4.0 37.9 2.55 36.9 L1.75 36.55 5.3 34.75 4.9 36.4 Q4.3 38.05 4.1 39.9" fill="#bd1472" fill-rule="evenodd" stroke="none"/>
    <path d="M47.35 -12.1 Q61.7 -12.1 61.7 2.25 L61.7 43.1 Q61.7 57.45 47.35 57.45 L7.0 57.45 Q-7.35 57.45 -7.35 43.1 L-7.35 2.25 Q-7.35 -12.1 7.0 -12.1 L47.35 -12.1" fill="#000000" fill-opacity="0.2509804" fill-rule="evenodd" stroke="none"/>
    <path d="M47.35 -12.1 L7.0 -12.1 Q-7.35 -12.1 -7.35 2.25 L-7.35 43.1 Q-7.35 57.45 7.0 57.45 L47.35 57.45 Q61.7 57.45 61.7 43.1 L61.7 2.25 Q61.7 -12.1 47.35 -12.1 Z" fill="none" stroke="#666666" stroke-linecap="round" stroke-linejoin="round" stroke-opacity="0.9019608" stroke-width="2.0"/>
  </g>
  <defs>
    <linearGradient gradientTransform="matrix(-0.0012, -0.0291, 0.0323, -0.0013, 19.7, 16.85)" gradientUnits="userSpaceOnUse" id="gradient0" spreadMethod="pad" x1="-819.2" x2="819.2">
      <stop offset="0.0" stop-color="#930f44"/>
      <stop offset="1.0" stop-color="#a3104b"/>
    </linearGradient>
    <linearGradient gradientTransform="matrix(0.0, 0.0175, -0.0325, 0.0, 27.25, 19.0)" gradientUnits="userSpaceOnUse" id="gradient1" spreadMethod="pad" x1="-819.2" x2="819.2">
      <stop offset="0.0" stop-color="#ff93be"/>
      <stop offset="1.0" stop-color="#fff5fb"/>
    </linearGradient>
  </defs>
</svg>
