<?xml version="1.0" encoding="UTF-8" standalone="no"?>
<svg xmlns:xlink="http://www.w3.org/1999/xlink" height="46.45px" width="46.5px" xmlns="http://www.w3.org/2000/svg">
  <g transform="matrix(1.0, 0.0, 0.0, 1.0, 0.0, 0.0)">
    <path d="M45.65 15.9 L46.15 17.85 Q46.6 20.4 46.5 22.9 L46.45 22.95 41.9 22.9 42.0 23.0 Q41.9 26.85 40.55 30.15 L44.7 31.9 44.15 33.4 43.8 34.1 Q42.05 36.95 39.55 39.45 L36.4 36.3 Q33.7 39.0 30.3 40.4 L31.8 44.1 31.95 44.65 30.5 45.2 Q27.25 46.35 23.75 46.45 L23.15 46.35 23.05 41.75 17.65 41.15 15.95 40.45 14.15 44.85 11.9 43.8 Q9.9 42.7 8.0 41.15 L6.65 39.85 10.05 36.45 7.8 33.8 7.75 33.75 6.3 31.35 6.0 30.5 1.75 32.35 1.65 32.35 1.7 32.3 1.15 30.95 Q0.4 28.45 0.15 25.35 L0.05 23.7 Q-0.05 23.6 0.1 23.45 L0.15 23.4 4.7 23.4 Q4.7 22.95 4.85 22.45 4.85 19.95 5.65 17.8 L5.8 17.15 6.2 16.3 6.15 16.25 1.8 14.45 Q3.65 10.35 7.05 6.95 L10.25 10.2 Q12.95 7.5 16.15 6.1 L16.4 6.0 14.55 1.7 Q18.8 0.0 23.55 0.0 L23.6 0.15 23.55 4.55 24.2 4.65 24.85 4.65 Q27.95 4.75 30.65 5.85 L32.45 1.55 Q36.55 3.15 39.95 6.55 L36.55 9.95 36.65 10.05 36.8 10.2 37.7 11.15 37.85 11.3 38.5 12.0 39.8 14.1 40.65 15.75 41.95 15.4 44.95 14.05 45.65 15.9 M20.7 16.85 Q19.45 17.15 18.35 18.25 17.35 19.25 16.95 20.6 16.35 21.85 16.4 23.2 16.35 24.75 16.9 26.05 L17.65 27.25 18.35 28.1 19.8 29.35 Q20.25 29.45 20.6 29.7 L21.9 30.15 23.3 30.1 Q24.75 30.25 26.05 29.65 L28.2 28.1 28.5 27.8 29.75 25.85 Q30.35 24.5 30.25 23.1 L30.35 22.35 29.8 20.5 Q29.4 19.25 28.35 18.15 27.35 17.15 26.1 16.85 24.85 16.25 23.35 16.2 22.05 16.15 20.7 16.85" fill="#e7fff8" fill-rule="evenodd" stroke="none"/>
  </g>
</svg>
