<?xml version="1.0" encoding="UTF-8" standalone="no"?>
<svg xmlns:xlink="http://www.w3.org/1999/xlink" height="186.2px" width="68.35px" xmlns="http://www.w3.org/2000/svg">
  <g transform="matrix(1.0, 0.0, 0.0, 1.0, 3.85, -27.0)">
    <path d="M57.0 27.05 Q64.45 28.3 64.5 35.55 L64.5 204.55 Q64.45 211.8 57.0 213.1 L56.7 213.2 29.9 213.2 29.9 27.0 56.7 27.0 57.0 27.05" fill="url(#gradient0)" fill-rule="evenodd" stroke="none"/>
    <path d="M3.95 27.0 L26.35 27.0 26.35 213.2 3.95 213.2 Q-3.8 211.95 -3.85 204.55 L-3.85 35.55 Q-3.8 28.15 3.95 27.0" fill="url(#gradient1)" fill-rule="evenodd" stroke="none"/>
    <path d="M57.6 27.55 Q62.1 29.15 62.1 35.5 L62.1 97.15 62.0 97.15 62.0 204.6 Q62.0 211.0 57.5 212.6 L54.0 213.15 10.75 213.15 7.2 212.6 Q2.75 210.95 2.75 204.6 L2.75 48.3 2.8 48.3 2.8 35.5 Q2.8 29.2 7.25 27.55 L10.8 27.0 54.1 27.0 Q56.1 27.0 57.6 27.55" fill="url(#gradient2)" fill-rule="evenodd" stroke="none"/>
    <path d="M64.5 33.25 L64.5 41.75 4.2 41.75 4.2 33.25 64.5 33.25" fill="url(#gradient3)" fill-rule="evenodd" stroke="none"/>
    <path d="M64.45 35.55 L64.45 39.55 4.2 39.55 4.2 35.55 64.45 35.55" fill="url(#gradient4)" fill-rule="evenodd" stroke="none"/>
    <path d="M64.5 207.25 L4.2 207.25 4.2 198.75 64.5 198.75 64.5 207.25" fill="url(#gradient5)" fill-rule="evenodd" stroke="none"/>
    <path d="M64.45 204.95 L4.2 204.95 4.2 200.95 64.45 200.95 64.45 204.95" fill="url(#gradient6)" fill-rule="evenodd" stroke="none"/>
  </g>
  <defs>
    <linearGradient gradientTransform="matrix(0.0396, 0.0, 0.0, 0.1136, 32.1, 120.1)" gradientUnits="userSpaceOnUse" id="gradient0" spreadMethod="pad" x1="-819.2" x2="819.2">
      <stop offset="0.8156862745098039" stop-color="#6f6f6f"/>
      <stop offset="1.0" stop-color="#c8c8c8"/>
    </linearGradient>
    <linearGradient gradientTransform="matrix(0.0396, 0.0, 0.0, 0.1136, 28.55, 120.1)" gradientUnits="userSpaceOnUse" id="gradient1" spreadMethod="pad" x1="-819.2" x2="819.2">
      <stop offset="0.0" stop-color="#737373"/>
      <stop offset="0.12549019607843137" stop-color="#595959"/>
    </linearGradient>
    <linearGradient gradientTransform="matrix(0.0362, 0.0, 0.0, 0.1136, 32.4, 120.05)" gradientUnits="userSpaceOnUse" id="gradient2" spreadMethod="pad" x1="-819.2" x2="819.2">
      <stop offset="0.01568627450980392" stop-color="#e6e6e6"/>
      <stop offset="0.0392156862745098" stop-color="#b7b7b7"/>
      <stop offset="1.0" stop-color="#8c8c8c"/>
    </linearGradient>
    <linearGradient gradientTransform="matrix(0.0, -0.0052, 0.0368, 0.0, 34.35, 37.5)" gradientUnits="userSpaceOnUse" id="gradient3" spreadMethod="pad" x1="-819.2" x2="819.2">
      <stop offset="0.0" stop-color="#595959"/>
      <stop offset="0.1803921568627451" stop-color="#8c8c8c"/>
      <stop offset="0.788235294117647" stop-color="#8c8c8c"/>
      <stop offset="1.0" stop-color="#595959"/>
    </linearGradient>
    <linearGradient gradientTransform="matrix(-0.0119, -0.0663, 0.0255, -0.0654, 34.35, 37.55)" gradientUnits="userSpaceOnUse" id="gradient4" spreadMethod="pad" x1="-819.2" x2="819.2">
      <stop offset="0.0" stop-color="#888888"/>
      <stop offset="0.3843137254901961" stop-color="#f2f2f2"/>
      <stop offset="1.0" stop-color="#888888"/>
    </linearGradient>
    <linearGradient gradientTransform="matrix(0.0, 0.0052, 0.0368, 0.0, 34.35, 203.0)" gradientUnits="userSpaceOnUse" id="gradient5" spreadMethod="pad" x1="-819.2" x2="819.2">
      <stop offset="0.0" stop-color="#595959"/>
      <stop offset="0.1803921568627451" stop-color="#8c8c8c"/>
      <stop offset="0.788235294117647" stop-color="#8c8c8c"/>
      <stop offset="1.0" stop-color="#595959"/>
    </linearGradient>
    <linearGradient gradientTransform="matrix(-0.0119, 0.0663, 0.0255, 0.0654, 34.35, 202.95)" gradientUnits="userSpaceOnUse" id="gradient6" spreadMethod="pad" x1="-819.2" x2="819.2">
      <stop offset="0.0" stop-color="#888888"/>
      <stop offset="0.3843137254901961" stop-color="#f2f2f2"/>
      <stop offset="1.0" stop-color="#888888"/>
    </linearGradient>
  </defs>
</svg>
