<?xml version="1.0" encoding="UTF-8" standalone="no"?>
<svg xmlns:xlink="http://www.w3.org/1999/xlink" height="43.35px" width="44.4px" xmlns="http://www.w3.org/2000/svg">
  <g transform="matrix(1.0, 0.0, 0.0, 1.0, 0.5, 0.0)">
    <path d="M27.8 0.8 Q32.95 2.25 37.0 6.3 43.4 12.65 43.4 21.65 43.4 30.65 37.0 37.0 30.7 43.35 21.7 43.35 12.7 43.35 6.3 37.0 0.0 30.65 0.0 21.65 0.0 12.65 6.3 6.3 9.65 3.0 13.7 1.4 L14.85 1.0 17.55 0.35 21.7 0.0 25.9 0.35 27.35 0.65 27.8 0.8 M35.8 7.55 Q29.95 1.65 21.7 1.65 13.4 1.65 7.55 7.55 1.7 13.4 1.7 21.65 1.7 29.95 7.55 35.8 13.4 41.65 21.7 41.65 29.95 41.65 35.8 35.8 41.7 29.95 41.7 21.65 41.7 13.4 35.8 7.55" fill="#2d7226" fill-rule="evenodd" stroke="none"/>
    <path d="M35.8 7.55 Q41.7 13.4 41.7 21.65 41.7 29.95 35.8 35.8 29.95 41.65 21.7 41.65 13.4 41.65 7.55 35.8 1.7 29.95 1.7 21.65 1.7 13.4 7.55 7.55 13.4 1.65 21.7 1.65 29.95 1.65 35.8 7.55" fill="url(#gradient0)" fill-rule="evenodd" stroke="none"/>
    <path d="M9.25 3.8 L34.05 3.8 M6.85 5.8 L36.5 5.8 M12.75 1.8 L30.55 1.8 M4.95 7.8 L38.4 7.8 M3.65 33.8 L39.7 33.8 M13.45 41.8 L29.95 41.8 M9.7 39.8 L33.65 39.8 M7.15 37.8 L36.2 37.8 M5.2 35.8 L38.15 35.8 M3.45 9.8 L39.95 9.8 M1.5 29.8 L41.9 29.8 M2.45 31.8 L40.95 31.8 M0.35 25.8 L43.05 25.8 M0.85 27.8 L42.6 27.8 M0.1 23.8 L43.3 23.8 M0.3 17.8 L43.1 17.8 M0.0 21.8 L43.4 21.8 M0.1 19.8 L43.35 19.8 M1.4 13.8 L42.0 13.8 M0.75 15.8 L42.65 15.8 M2.3 11.8 L41.1 11.8" fill="none" stroke="url(#gradient1)" stroke-linecap="butt" stroke-linejoin="round" stroke-width="1.0"/>
  </g>
  <defs>
    <radialGradient cx="0" cy="0" gradientTransform="matrix(0.0248, 0.0, 0.0, 0.0248, 21.7, 21.65)" gradientUnits="userSpaceOnUse" id="gradient0" r="819.2" spreadMethod="pad">
      <stop offset="0.0" stop-color="#33cc00"/>
      <stop offset="0.7568627450980392" stop-color="#2f7928"/>
      <stop offset="1.0" stop-color="#203f1f"/>
    </radialGradient>
    <linearGradient gradientTransform="matrix(3.0E-4, -0.0255, 6.0E-4, 0.0, 37.65, 21.95)" gradientUnits="userSpaceOnUse" id="gradient1" spreadMethod="pad" x1="-819.2" x2="819.2">
      <stop offset="0.0" stop-color="#60e387" stop-opacity="0.49803922"/>
      <stop offset="1.0" stop-color="#0f6829" stop-opacity="0.49803922"/>
    </linearGradient>
  </defs>
</svg>
