<?xml version="1.0" encoding="UTF-8" standalone="no"?>
<svg xmlns:xlink="http://www.w3.org/1999/xlink" height="5.25px" width="5.15px" xmlns="http://www.w3.org/2000/svg">
  <g transform="matrix(1.0, 0.0, 0.0, 1.0, 0.0, 0.0)">
    <path d="M4.5 0.8 L4.7 1.05 4.7 1.5 4.4 1.85 Q3.1 5.05 1.05 5.25 L0.0 5.15 0.0 3.95 Q1.3 4.85 2.45 3.3 L4.5 0.8" fill="#fcadbf" fill-rule="evenodd" stroke="none"/>
    <path d="M3.25 0.3 Q3.6 0.0 4.05 0.0 4.5 0.0 4.8 0.3 5.15 0.65 5.15 1.15 5.15 1.65 4.8 1.95 L4.05 2.3 Q3.6 2.3 3.25 1.95 2.95 1.65 2.95 1.15 2.95 0.65 3.25 0.3" fill="#fd0202" fill-rule="evenodd" stroke="none"/>
  </g>
</svg>
