<?xml version="1.0" encoding="UTF-8" standalone="no"?>
<svg xmlns:xlink="http://www.w3.org/1999/xlink" height="33.1px" width="23.85px" xmlns="http://www.w3.org/2000/svg">
  <g transform="matrix(1.0, 0.0, 0.0, 1.0, -3.1, 0.0)">
    <path d="M23.25 33.1 L20.9 33.1 20.9 0.0 23.25 0.0 23.25 33.1 M9.0 33.1 L6.75 33.1 6.75 0.0 9.0 0.0 9.0 33.1" fill="#ffcc00" fill-rule="evenodd" stroke="none"/>
    <path d="M20.9 33.1 L18.75 33.1 18.75 0.0 20.9 0.0 20.9 33.1 M11.75 33.1 L9.0 33.1 9.0 0.0 11.75 0.0 11.75 33.1" fill="#ffff5d" fill-rule="evenodd" stroke="none"/>
    <path d="M24.95 0.0 L24.95 33.1 23.25 33.1 23.25 0.0 24.95 0.0 M6.75 33.1 L5.1 33.1 5.1 0.0 6.75 0.0 6.75 33.1" fill="#ff6600" fill-rule="evenodd" stroke="none"/>
    <path d="M24.95 0.0 L26.95 0.0 26.95 33.1 24.95 33.1 24.95 0.0 M5.1 33.1 L3.1 33.1 3.1 0.0 5.1 0.0 5.1 33.1" fill="#ff6600" fill-opacity="0.49803922" fill-rule="evenodd" stroke="none"/>
    <path d="M18.75 33.1 L11.75 33.1 11.75 0.0 18.75 0.0 18.75 33.1" fill="url(#gradient0)" fill-rule="evenodd" stroke="none"/>
  </g>
  <defs>
    <radialGradient cx="0" cy="0" gradientTransform="matrix(0.025, 0.0, 0.0, 0.1613, 15.0, 16.35)" gradientUnits="userSpaceOnUse" id="gradient0" r="819.2" spreadMethod="pad">
      <stop offset="0.0" stop-color="#ffffff"/>
      <stop offset="0.4117647058823529" stop-color="#ffffff"/>
      <stop offset="0.5254901960784314" stop-color="#ffff00"/>
      <stop offset="0.6" stop-color="#ffcc00"/>
      <stop offset="0.6784313725490196" stop-color="#ff9900"/>
      <stop offset="1.0" stop-color="#ff0000" stop-opacity="0.0"/>
    </radialGradient>
  </defs>
</svg>
