<?xml version="1.0" encoding="UTF-8" standalone="no"?>
<svg xmlns:xlink="http://www.w3.org/1999/xlink" height="34.75px" width="36.85px" xmlns="http://www.w3.org/2000/svg">
  <g transform="matrix(1.0, 0.0, 0.0, 1.0, 3.4, 1.65)">
    <path d="M0.55 -1.65 L3.0 -1.65 3.0 33.1 0.55 33.1 0.55 -1.65 M26.85 -1.65 L29.4 -1.65 29.4 33.1 26.85 33.1 26.85 -1.65" fill="#ffcc00" fill-rule="evenodd" stroke="none"/>
    <path d="M3.0 -1.65 L6.0 -1.65 6.0 33.1 3.0 33.1 3.0 -1.65 M24.5 -1.65 L26.85 -1.65 26.85 33.1 24.5 33.1 24.5 -1.65" fill="#ffff5d" fill-rule="evenodd" stroke="none"/>
    <path d="M-1.25 -1.65 L0.55 -1.65 0.55 33.1 -1.25 33.1 -1.25 -1.65 M29.4 -1.65 L31.25 -1.65 31.25 33.1 29.4 33.1 29.4 -1.65" fill="#ff6600" fill-rule="evenodd" stroke="none"/>
    <path d="M-1.25 33.1 L-3.4 33.1 -3.4 -1.65 -1.25 -1.65 -1.25 33.1 M31.25 -1.65 L33.45 -1.65 33.45 33.1 31.25 33.1 31.25 -1.65" fill="#ff6600" fill-opacity="0.49803922" fill-rule="evenodd" stroke="none"/>
    <path d="M6.0 -1.65 L24.5 -1.65 24.5 33.1 6.0 33.1 6.0 -1.65" fill="url(#gradient0)" fill-rule="evenodd" stroke="none"/>
  </g>
  <defs>
    <radialGradient cx="0" cy="0" gradientTransform="matrix(0.0273, 0.0, 0.0, 0.1613, 15.0, 16.35)" gradientUnits="userSpaceOnUse" id="gradient0" r="819.2" spreadMethod="pad">
      <stop offset="0.0" stop-color="#ffffff"/>
      <stop offset="0.4117647058823529" stop-color="#ffffff"/>
      <stop offset="0.5254901960784314" stop-color="#ffff00"/>
      <stop offset="0.6" stop-color="#ffcc00"/>
      <stop offset="0.6784313725490196" stop-color="#ff9900"/>
      <stop offset="1.0" stop-color="#ff0000" stop-opacity="0.0"/>
    </radialGradient>
  </defs>
</svg>
