<?xml version="1.0" encoding="UTF-8" standalone="no"?>
<svg xmlns:xlink="http://www.w3.org/1999/xlink" height="34.75px" width="17.35px" xmlns="http://www.w3.org/2000/svg">
  <g transform="matrix(1.0, 0.0, 0.0, 1.0, -6.35, 1.65)">
    <path d="M21.0 -1.65 L22.25 -1.65 22.25 33.1 21.0 33.1 21.0 -1.65 M9.0 33.1 L7.8 33.1 7.8 -1.65 9.0 -1.65 9.0 33.1" fill="#ff6600" fill-rule="evenodd" stroke="none"/>
    <path d="M22.25 -1.65 L23.7 -1.65 23.7 33.1 22.25 33.1 22.25 -1.65 M7.8 33.1 L6.35 33.1 6.35 -1.65 7.8 -1.65 7.8 33.1" fill="#ff6600" fill-opacity="0.49803922" fill-rule="evenodd" stroke="none"/>
    <path d="M19.3 -1.65 L21.0 -1.65 21.0 33.1 19.3 33.1 19.3 -1.65 M10.65 33.1 L9.0 33.1 9.0 -1.65 10.65 -1.65 10.65 33.1" fill="#ffcc00" fill-rule="evenodd" stroke="none"/>
    <path d="M17.75 -1.65 L19.3 -1.65 19.3 33.1 17.75 33.1 17.75 -1.65 M12.65 33.1 L10.65 33.1 10.65 -1.65 12.65 -1.65 12.65 33.1" fill="#ffff5d" fill-rule="evenodd" stroke="none"/>
    <path d="M17.75 33.1 L12.65 33.1 12.65 -1.65 17.75 -1.65 17.75 33.1" fill="url(#gradient0)" fill-rule="evenodd" stroke="none"/>
  </g>
  <defs>
    <radialGradient cx="0" cy="0" gradientTransform="matrix(0.0182, 0.0, 0.0, 0.1613, 15.0, 16.3)" gradientUnits="userSpaceOnUse" id="gradient0" r="819.2" spreadMethod="pad">
      <stop offset="0.0" stop-color="#ffffff"/>
      <stop offset="0.4117647058823529" stop-color="#ffffff"/>
      <stop offset="0.5254901960784314" stop-color="#ffff00"/>
      <stop offset="0.6" stop-color="#ffcc00"/>
      <stop offset="0.6784313725490196" stop-color="#ff9900"/>
      <stop offset="1.0" stop-color="#ff0000" stop-opacity="0.0"/>
    </radialGradient>
  </defs>
</svg>
