<?xml version="1.0" encoding="UTF-8" standalone="no"?>
<svg xmlns:xlink="http://www.w3.org/1999/xlink" height="10.5px" width="18.9px" xmlns="http://www.w3.org/2000/svg">
  <g transform="matrix(1.0, 0.0, 0.0, 1.0, 9.7, 3.85)">
    <path d="M-2.1 -2.85 L-2.4 -3.55 Q-4.6 -3.95 -6.8 -3.55 -8.1 -3.2 -8.85 -2.75 L-9.6 -1.9 -9.6 -1.7 -9.5 -1.5 -9.45 -1.4 -9.15 -1.1 Q-8.65 -0.55 -7.05 -0.15 -5.35 0.25 -2.4 -0.1 L-2.25 -0.45 -2.05 -1.1 Q-1.9 -1.7 -2.0 -2.3 L-2.1 -2.85" fill="#000000" fill-rule="evenodd" stroke="none"/>
    <path d="M-2.1 -2.85 L-2.4 -3.55 Q-4.6 -3.95 -6.8 -3.55 -8.1 -3.2 -8.85 -2.75 L-9.6 -1.9 -9.6 -1.7 -9.5 -1.5 -9.45 -1.4 -9.15 -1.1 Q-8.65 -0.55 -7.05 -0.15 -5.35 0.25 -2.4 -0.1 L-2.25 -0.45 -2.05 -1.1 Q-1.9 -1.7 -2.0 -2.3 L-2.1 -2.85 Z" fill="none" stroke="#773c00" stroke-linecap="round" stroke-linejoin="round" stroke-width="0.2"/>
    <path d="M-9.65 -1.7 L-9.5 -1.45 Q-6.05 -0.35 -2.1 -1.05 -1.9 -1.7 -2.0 -2.25 -6.0 -2.9 -9.65 -1.7" fill="#bd8839" fill-rule="evenodd" stroke="none"/>
    <path d="M-9.65 -1.85 L-9.65 -1.7 Q-6.0 -2.9 -2.0 -2.25 L-2.15 -2.8 Q-6.35 -3.55 -9.65 -1.85" fill="#dbb935" fill-rule="evenodd" stroke="none"/>
    <path d="M-2.15 -2.8 L-2.45 -3.55 Q-4.6 -3.9 -6.8 -3.55 L-8.85 -2.7 -9.65 -1.9 -9.65 -1.85 Q-6.35 -3.55 -2.15 -2.8" fill="#fade9e" fill-rule="evenodd" stroke="none"/>
    <path d="M-9.5 -1.45 L-9.45 -1.4 Q-5.9 0.5 -2.25 -0.4 L-2.1 -1.05 Q-6.05 -0.35 -9.5 -1.45" fill="#c8a048" fill-rule="evenodd" stroke="none"/>
    <path d="M-9.45 -1.4 L-9.15 -1.05 Q-8.7 -0.55 -7.05 -0.1 -5.4 0.3 -2.45 -0.05 L-2.25 -0.4 Q-5.9 0.5 -9.45 -1.4" fill="#bf7a15" fill-rule="evenodd" stroke="none"/>
    <path d="M-1.7 -3.4 L-1.7 -3.05 4.05 -3.05 4.05 -3.4 -1.7 -3.4" fill="#f73100" fill-rule="evenodd" stroke="none"/>
    <path d="M-1.55 -2.3 L-1.55 -1.95 7.6 -1.95 7.6 -2.3 -1.55 -2.3" fill="#ffb300" fill-rule="evenodd" stroke="none"/>
    <path d="M-1.55 -0.65 L-1.55 -0.3 1.9 -0.3 1.9 -0.65 -1.55 -0.65" fill="#ffb366" fill-rule="evenodd" stroke="none"/>
    <path d="M-0.7 -1.55 L-0.7 -1.2 5.05 -1.2 5.05 -1.55 -0.7 -1.55" fill="#ff8b6f" fill-rule="evenodd" stroke="none"/>
    <path d="M-0.5 3.65 L-0.8 2.95 Q-3.0 2.55 -5.2 2.95 -6.5 3.3 -7.25 3.75 L-8.0 4.6 -8.0 4.8 -7.9 5.0 -7.85 5.1 -7.55 5.4 Q-7.05 5.95 -5.45 6.35 -3.75 6.75 -0.8 6.4 L-0.65 6.05 -0.45 5.4 -0.4 4.2 -0.5 3.65" fill="#000000" fill-rule="evenodd" stroke="none"/>
    <path d="M-0.5 3.65 L-0.8 2.95 Q-3.0 2.55 -5.2 2.95 -6.5 3.3 -7.25 3.75 L-8.0 4.6 -8.0 4.8 -7.9 5.0 -7.85 5.1 -7.55 5.4 Q-7.05 5.95 -5.45 6.35 -3.75 6.75 -0.8 6.4 L-0.65 6.05 -0.45 5.4 -0.4 4.2 -0.5 3.65 Z" fill="none" stroke="#773c00" stroke-linecap="round" stroke-linejoin="round" stroke-width="0.2"/>
    <path d="M-8.05 4.8 L-7.9 5.05 -0.5 5.45 Q-0.3 4.8 -0.4 4.25 -4.4 3.6 -8.05 4.8" fill="#bd8839" fill-rule="evenodd" stroke="none"/>
    <path d="M-8.05 4.65 L-8.05 4.8 Q-4.4 3.6 -0.4 4.25 L-0.55 3.7 Q-4.75 2.95 -8.05 4.65" fill="#dbb935" fill-rule="evenodd" stroke="none"/>
    <path d="M-0.55 3.7 L-0.85 2.95 Q-3.0 2.6 -5.2 2.95 -6.55 3.35 -7.25 3.8 L-8.05 4.6 -8.05 4.65 Q-4.75 2.95 -0.55 3.7" fill="#fade9e" fill-rule="evenodd" stroke="none"/>
    <path d="M-7.9 5.05 L-7.85 5.1 Q-4.3 7.0 -0.65 6.1 L-0.5 5.45 -7.9 5.05" fill="#c8a048" fill-rule="evenodd" stroke="none"/>
    <path d="M-7.85 5.1 L-7.55 5.45 Q-7.1 5.95 -5.45 6.4 -3.8 6.8 -0.85 6.45 L-0.65 6.1 Q-4.3 7.0 -7.85 5.1" fill="#bf7a15" fill-rule="evenodd" stroke="none"/>
    <path d="M-0.1 3.35 L-0.1 3.7 5.65 3.7 5.65 3.35 -0.1 3.35" fill="#f73100" fill-rule="evenodd" stroke="none"/>
    <path d="M0.05 4.2 L0.05 4.55 9.2 4.55 9.2 4.2 0.05 4.2" fill="#ffb300" fill-rule="evenodd" stroke="none"/>
    <path d="M0.05 5.85 L0.05 6.2 3.5 6.2 3.5 5.85 0.05 5.85" fill="#ffb366" fill-rule="evenodd" stroke="none"/>
    <path d="M0.95 4.95 L0.95 5.3 6.7 5.3 6.7 4.95 0.95 4.95" fill="#ff8b6f" fill-rule="evenodd" stroke="none"/>
  </g>
</svg>
