<?xml version="1.0" encoding="UTF-8" standalone="no"?>
<svg xmlns:xlink="http://www.w3.org/1999/xlink" height="240.25px" width="549.0px" xmlns="http://www.w3.org/2000/svg">
  <g transform="matrix(1.0, 0.0, 0.0, 1.0, -77.85, -149.9)">
    <path d="M488.25 374.8 L488.25 354.35 Q488.25 344.35 498.25 344.35 L616.85 344.35 Q626.85 344.35 626.85 354.35 L626.85 374.8 Q626.85 384.8 616.85 384.8 L498.25 384.8 Q488.25 384.8 488.25 374.8 M333.25 374.8 L333.25 354.35 Q333.25 344.35 343.25 344.35 L462.85 344.35 Q472.85 344.35 472.85 354.35 L472.85 374.8 Q472.85 384.8 462.85 384.8 L343.25 384.8 Q333.25 384.8 333.25 374.8 M333.25 171.95 Q333.25 157.7 343.25 157.7 L462.85 157.7 Q472.85 157.7 472.85 171.95 L472.85 319.85 Q472.85 334.0 462.85 334.0 L343.25 334.0 Q333.25 334.0 333.25 319.85 L333.25 171.95 M488.25 171.85 Q488.25 157.7 498.25 157.7 L616.85 157.7 Q626.85 157.7 626.85 171.85 L626.85 319.75 Q626.85 333.9 616.85 333.9 L498.25 333.9 Q488.25 333.9 488.25 319.75 L488.25 171.85" fill="#ffe7de" fill-rule="evenodd" stroke="none"/>
    <path d="M340.9 360.45 Q340.9 355.45 345.9 355.45 L458.05 355.45 Q463.05 355.45 463.05 360.45 L463.05 370.45 Q463.05 375.45 458.05 375.45 L345.9 375.45 Q340.9 375.45 340.9 370.45 L340.9 360.45 M340.9 305.4 Q340.9 300.4 345.9 300.4 L458.05 300.4 Q463.05 300.4 463.05 305.4 L463.05 315.4 Q463.05 320.4 458.05 320.4 L345.9 320.4 Q340.9 320.4 340.9 315.4 L340.9 305.4 M463.05 269.2 Q463.05 274.2 458.05 274.2 L345.9 274.2 Q340.9 274.2 340.9 269.2 L340.9 259.2 Q340.9 254.2 345.9 254.2 L458.05 254.2 Q463.05 254.2 463.05 259.2 L463.05 269.2 M463.05 226.2 Q463.05 231.2 458.05 231.2 L345.9 231.2 Q340.9 231.2 340.9 226.2 L340.9 216.2 Q340.9 211.2 345.9 211.2 L458.05 211.2 Q463.05 211.2 463.05 216.2 L463.05 226.2 M340.9 182.2 L340.9 172.2 Q340.9 167.2 345.9 167.2 L458.05 167.2 Q463.05 167.2 463.05 172.2 L463.05 182.2 Q463.05 187.2 458.05 187.2 L345.9 187.2 Q340.9 187.2 340.9 182.2" fill="#ffffff" fill-rule="evenodd" stroke="none"/>
    <path d="M495.35 360.85 Q495.35 355.85 500.35 355.85 L612.5 355.85 Q617.5 355.85 617.5 360.85 L617.5 370.85 Q617.5 375.85 612.5 375.85 L500.35 375.85 Q495.35 375.85 495.35 370.85 L495.35 360.85 M495.35 305.75 Q495.35 300.75 500.35 300.75 L612.5 300.75 Q617.5 300.75 617.5 305.75 L617.5 315.75 Q617.5 320.75 612.5 320.75 L500.35 320.75 Q495.35 320.75 495.35 315.75 L495.35 305.75 M617.5 269.75 Q617.5 274.75 612.5 274.75 L500.35 274.75 Q495.35 274.75 495.35 269.75 L495.35 259.75 Q495.35 254.75 500.35 254.75 L612.5 254.75 Q617.5 254.75 617.5 259.75 L617.5 269.75 M617.5 226.75 Q617.5 231.75 612.5 231.75 L500.35 231.75 Q495.35 231.75 495.35 226.75 L495.35 216.75 Q495.35 211.75 500.35 211.75 L612.5 211.75 Q617.5 211.75 617.5 216.75 L617.5 226.75 M495.35 182.75 L495.35 172.75 Q495.35 167.75 500.35 167.75 L612.5 167.75 Q617.5 167.75 617.5 172.75 L617.5 182.75 Q617.5 187.75 612.5 187.75 L500.35 187.75 Q495.35 187.75 495.35 182.75" fill="#ffffff" fill-rule="evenodd" stroke="none"/>
    <path d="M84.4 156.45 Q91.0 149.9 100.25 149.9 109.5 149.9 116.05 156.45 122.6 163.05 122.6 172.3 122.6 181.55 116.05 188.1 109.5 194.65 100.25 194.65 91.0 194.65 84.4 188.1 77.85 181.55 77.85 172.3 77.85 163.05 84.4 156.45" fill="#e7fff8" fill-rule="evenodd" stroke="none"/>
    <path d="M84.4 202.45 Q91.0 195.9 100.25 195.9 109.5 195.9 116.05 202.45 122.6 209.05 122.6 218.3 122.6 227.55 116.05 234.1 109.5 240.65 100.25 240.65 91.0 240.65 84.4 234.1 77.85 227.55 77.85 218.3 77.85 209.05 84.4 202.45" fill="#e7fff8" fill-rule="evenodd" stroke="none"/>
    <path d="M84.4 250.45 Q91.0 243.9 100.25 243.9 109.5 243.9 116.05 250.45 122.6 257.05 122.6 266.3 122.6 275.55 116.05 282.1 109.5 288.65 100.25 288.65 91.0 288.65 84.4 282.1 77.85 275.55 77.85 266.3 77.85 257.05 84.4 250.45" fill="#e7fff8" fill-rule="evenodd" stroke="none"/>
    <path d="M84.4 301.2 Q91.0 294.65 100.25 294.65 109.5 294.65 116.05 301.2 122.6 307.8 122.6 317.05 122.6 326.3 116.05 332.85 109.5 339.4 100.25 339.4 91.0 339.4 84.4 332.85 77.85 326.3 77.85 317.05 77.85 307.8 84.4 301.2" fill="#e7fff8" fill-rule="evenodd" stroke="none"/>
    <path d="M84.4 383.6 Q77.85 377.05 77.85 367.8 77.85 358.55 84.4 351.95 91.0 345.4 100.25 345.4 109.5 345.4 116.05 351.95 122.6 358.55 122.6 367.8 122.6 377.05 116.05 383.6 109.5 390.15 100.25 390.15 91.0 390.15 84.4 383.6" fill="#e7fff8" fill-rule="evenodd" stroke="none"/>
    <path d="M107.55 172.6 Q107.55 166.5 111.85 162.15 116.2 157.85 122.3 157.85 L292.3 157.85 Q298.4 157.85 302.7 162.15 307.05 166.5 307.05 172.6 307.05 178.7 302.7 183.0 298.4 187.35 292.3 187.35 L122.3 187.35 Q116.2 187.35 111.85 183.0 107.55 178.7 107.55 172.6" fill="#e7fff8" fill-rule="evenodd" stroke="none"/>
    <path d="M107.55 221.3 Q107.55 215.2 111.85 210.85 116.2 206.55 122.3 206.55 L292.3 206.55 Q298.4 206.55 302.7 210.85 307.05 215.2 307.05 221.3 307.05 227.4 302.7 231.7 298.4 236.05 292.3 236.05 L122.3 236.05 Q116.2 236.05 111.85 231.7 107.55 227.4 107.55 221.3" fill="#e7fff8" fill-rule="evenodd" stroke="none"/>
    <path d="M107.55 270.4 Q107.55 264.3 111.85 259.95 116.2 255.65 122.3 255.65 L292.3 255.65 Q298.4 255.65 302.7 259.95 307.05 264.3 307.05 270.4 307.05 276.5 302.7 280.8 298.4 285.15 292.3 285.15 L122.3 285.15 Q116.2 285.15 111.85 280.8 107.55 276.5 107.55 270.4" fill="#e7fff8" fill-rule="evenodd" stroke="none"/>
    <path d="M107.55 318.9 Q107.55 312.8 111.85 308.45 116.2 304.15 122.3 304.15 L292.3 304.15 Q298.4 304.15 302.7 308.45 307.05 312.8 307.05 318.9 307.05 325.0 302.7 329.3 298.4 333.65 292.3 333.65 L122.3 333.65 Q116.2 333.65 111.85 329.3 107.55 325.0 107.55 318.9" fill="#e7fff8" fill-rule="evenodd" stroke="none"/>
    <path d="M107.55 367.75 Q107.55 361.65 111.85 357.3 116.2 353.0 122.3 353.0 L292.3 353.0 Q298.4 353.0 302.7 357.3 307.05 361.65 307.05 367.75 307.05 373.85 302.7 378.15 298.4 382.5 292.3 382.5 L122.3 382.5 Q116.2 382.5 111.85 378.15 107.55 373.85 107.55 367.75" fill="#e7fff8" fill-rule="evenodd" stroke="none"/>
  </g>
</svg>
