<?xml version="1.0" encoding="UTF-8" standalone="no"?>
<svg xmlns:xlink="http://www.w3.org/1999/xlink" height="327.8px" width="480.6px" xmlns="http://www.w3.org/2000/svg">
  <g transform="matrix(1.0, 0.0, 0.0, 1.0, -12.15, 2.75)">
    <path d="M287.85 281.05 Q284.5 277.7 284.5 272.95 284.5 268.2 287.85 264.8 291.25 261.45 296.0 261.45 L458.0 261.45 Q462.75 261.45 466.1 264.8 469.5 268.2 469.5 272.95 469.5 277.7 466.1 281.05 462.75 284.45 458.0 284.45 L296.0 284.45 Q291.25 284.45 287.85 281.05" fill="#e7fff8" fill-rule="evenodd" stroke="none"/>
    <path d="M287.85 311.05 Q284.5 307.7 284.5 302.95 284.5 298.2 287.85 294.8 291.25 291.45 296.0 291.45 L458.0 291.45 Q462.75 291.45 466.1 294.8 469.5 298.2 469.5 302.95 469.5 307.7 466.1 311.05 462.75 314.45 458.0 314.45 L296.0 314.45 Q291.25 314.45 287.85 311.05" fill="#e7fff8" fill-rule="evenodd" stroke="none"/>
    <path d="M282.45 260.1 Q287.7 254.85 295.1 254.85 302.5 254.85 307.75 260.1 313.0 265.35 313.0 272.75 313.0 280.2 307.75 285.4 302.5 290.65 295.1 290.65 287.7 290.65 282.45 285.4 277.2 280.2 277.2 272.75 277.2 265.35 282.45 260.1" fill="#e7fdff" fill-rule="evenodd" stroke="none"/>
    <path d="M282.45 288.75 Q287.7 283.5 295.1 283.5 302.5 283.5 307.75 288.75 313.0 294.0 313.0 301.4 313.0 308.85 307.75 314.05 302.5 319.3 295.1 319.3 287.7 319.3 282.45 314.05 277.2 308.85 277.2 301.4 277.2 294.0 282.45 288.75" fill="#e7fdff" fill-rule="evenodd" stroke="none"/>
    <path d="M43.05 314.55 Q39.7 311.2 39.7 306.45 39.7 301.7 43.05 298.3 46.45 294.95 51.2 294.95 L213.2 294.95 Q217.95 294.95 221.3 298.3 224.7 301.7 224.7 306.45 224.7 311.2 221.3 314.55 217.95 317.95 213.2 317.95 L51.2 317.95 Q46.45 317.95 43.05 314.55" fill="#e7fff8" fill-rule="evenodd" stroke="none"/>
    <path d="M171.6 248.7 Q168.25 245.35 168.25 240.6 168.25 235.85 171.6 232.45 175.0 229.1 179.75 229.1 L341.75 229.1 Q346.5 229.1 349.85 232.45 353.25 235.85 353.25 240.6 353.25 245.35 349.85 248.7 346.5 252.1 341.75 252.1 L179.75 252.1 Q175.0 252.1 171.6 248.7" fill="#ffe7de" fill-rule="evenodd" stroke="none"/>
    <path d="M54.9 286.2 Q62.3 286.2 67.5 291.45 72.75 296.75 72.75 304.15 72.75 311.55 67.5 316.75 62.3 322.05 54.9 322.05 47.45 322.05 42.2 316.75 37.0 311.55 37.0 304.15 37.0 296.75 42.2 291.45 47.45 286.2 54.9 286.2" fill="#e7fdff" fill-rule="evenodd" stroke="none"/>
    <path d="M43.05 280.55 Q39.7 277.2 39.7 272.45 39.7 267.7 43.05 264.3 46.45 260.95 51.2 260.95 L213.2 260.95 Q217.95 260.95 221.3 264.3 224.7 267.7 224.7 272.45 224.7 277.2 221.3 280.55 217.95 283.95 213.2 283.95 L51.2 283.95 Q46.45 283.95 43.05 280.55" fill="#e7fff8" fill-rule="evenodd" stroke="none"/>
    <path d="M491.25 323.55 L13.65 323.55 13.65 229.1 491.25 229.1 491.25 323.55 Z" fill="none" stroke="#b8fcff" stroke-linecap="round" stroke-linejoin="round" stroke-width="3.0"/>
    <path d="M43.05 44.55 Q39.7 41.2 39.7 36.45 39.7 31.7 43.05 28.3 46.45 24.95 51.2 24.95 L213.2 24.95 Q217.95 24.95 221.3 28.3 224.7 31.7 224.7 36.45 224.7 41.2 221.3 44.55 217.95 47.95 213.2 47.95 L51.2 47.95 Q46.45 47.95 43.05 44.55" fill="#e7fff8" fill-rule="evenodd" stroke="none"/>
    <path d="M43.55 16.85 Q40.2 13.5 40.2 8.75 40.2 4.0 43.55 0.6 46.95 -2.75 51.7 -2.75 L213.7 -2.75 Q218.45 -2.75 221.8 0.6 225.2 4.0 225.2 8.75 225.2 13.5 221.8 16.85 218.45 20.25 213.7 20.25 L51.7 20.25 Q46.95 20.25 43.55 16.85" fill="#ffe7de" fill-rule="evenodd" stroke="none"/>
    <path d="M43.55 72.25 Q40.2 68.9 40.2 64.15 40.2 59.4 43.55 56.0 46.95 52.65 51.7 52.65 L213.7 52.65 Q218.45 52.65 221.8 56.0 225.2 59.4 225.2 64.15 225.2 68.9 221.8 72.25 218.45 75.65 213.7 75.65 L51.7 75.65 Q46.95 75.65 43.55 72.25" fill="#e7fff8" fill-rule="evenodd" stroke="none"/>
    <path d="M43.55 99.95 Q40.2 96.6 40.2 91.85 40.2 87.1 43.55 83.7 46.95 80.35 51.7 80.35 L213.7 80.35 Q218.45 80.35 221.8 83.7 225.2 87.1 225.2 91.85 225.2 96.6 221.8 99.95 218.45 103.35 213.7 103.35 L51.7 103.35 Q46.95 103.35 43.55 99.95" fill="#e7fff8" fill-rule="evenodd" stroke="none"/>
    <path d="M43.55 127.65 Q40.2 124.3 40.2 119.55 40.2 114.8 43.55 111.4 46.95 108.05 51.7 108.05 L213.7 108.05 Q218.45 108.05 221.8 111.4 225.2 114.8 225.2 119.55 225.2 124.3 221.8 127.65 218.45 131.05 213.7 131.05 L51.7 131.05 Q46.95 131.05 43.55 127.65" fill="#e7fff8" fill-rule="evenodd" stroke="none"/>
    <path d="M43.55 155.35 Q40.2 152.0 40.2 147.25 40.2 142.5 43.55 139.1 46.95 135.75 51.7 135.75 L213.7 135.75 Q218.45 135.75 221.8 139.1 225.2 142.5 225.2 147.25 225.2 152.0 221.8 155.35 218.45 158.75 213.7 158.75 L51.7 158.75 Q46.95 158.75 43.55 155.35" fill="#e7fff8" fill-rule="evenodd" stroke="none"/>
    <path d="M43.55 183.05 Q40.2 179.7 40.2 174.95 40.2 170.2 43.55 166.8 46.95 163.45 51.7 163.45 L213.7 163.45 Q218.45 163.45 221.8 166.8 225.2 170.2 225.2 174.95 225.2 179.7 221.8 183.05 218.45 186.45 213.7 186.45 L51.7 186.45 Q46.95 186.45 43.55 183.05" fill="#e7fff8" fill-rule="evenodd" stroke="none"/>
    <path d="M43.55 211.05 Q40.2 207.7 40.2 202.95 40.2 198.2 43.55 194.8 46.95 191.45 51.7 191.45 L213.7 191.45 Q218.45 191.45 221.8 194.8 225.2 198.2 225.2 202.95 225.2 207.7 221.8 211.05 218.45 214.45 213.7 214.45 L51.7 214.45 Q46.95 214.45 43.55 211.05" fill="#e7fff8" fill-rule="evenodd" stroke="none"/>
    <path d="M56.0 18.55 Q63.4 18.55 68.65 23.8 73.9 29.05 73.9 36.45 73.9 43.9 68.65 49.1 63.4 54.35 56.0 54.35 48.6 54.35 43.35 49.1 38.1 43.9 38.1 36.45 38.1 29.05 43.35 23.8 48.6 18.55 56.0 18.55" fill="#e7fdff" fill-rule="evenodd" stroke="none"/>
    <path d="M56.0 48.25 Q63.4 48.25 68.65 53.5 73.9 58.75 73.9 66.15 73.9 73.6 68.65 78.8 63.4 84.05 56.0 84.05 48.6 84.05 43.35 78.8 38.1 73.6 38.1 66.15 38.1 58.75 43.35 53.5 48.6 48.25 56.0 48.25" fill="#e7fdff" fill-rule="evenodd" stroke="none"/>
    <path d="M56.0 75.85 Q63.4 75.85 68.65 81.1 73.9 86.35 73.9 93.75 73.9 101.2 68.65 106.4 63.4 111.65 56.0 111.65 48.6 111.65 43.35 106.4 38.1 101.2 38.1 93.75 38.1 86.35 43.35 81.1 48.6 75.85 56.0 75.85" fill="#e7fdff" fill-rule="evenodd" stroke="none"/>
    <path d="M56.0 100.2 Q63.4 100.2 68.65 105.45 73.9 110.7 73.9 118.1 73.9 125.55 68.65 130.75 63.4 136.0 56.0 136.0 48.6 136.0 43.35 130.75 38.1 125.55 38.1 118.1 38.1 110.7 43.35 105.45 48.6 100.2 56.0 100.2" fill="#e7fdff" fill-rule="evenodd" stroke="none"/>
    <path d="M56.0 129.65 Q63.4 129.65 68.65 134.9 73.9 140.15 73.9 147.55 73.9 155.0 68.65 160.2 63.4 165.45 56.0 165.45 48.6 165.45 43.35 160.2 38.1 155.0 38.1 147.55 38.1 140.15 43.35 134.9 48.6 129.65 56.0 129.65" fill="#e7fdff" fill-rule="evenodd" stroke="none"/>
    <path d="M43.35 165.5 Q48.6 160.25 56.0 160.25 63.4 160.25 68.65 165.5 73.9 170.75 73.9 178.15 73.9 185.6 68.65 190.8 63.4 196.05 56.0 196.05 48.6 196.05 43.35 190.8 38.1 185.6 38.1 178.15 38.1 170.75 43.35 165.5" fill="#e7fdff" fill-rule="evenodd" stroke="none"/>
    <path d="M55.95 220.7 Q48.55 220.7 43.3 215.4 38.05 210.15 38.05 202.8 38.05 195.4 43.3 190.1 48.55 184.85 55.95 184.85 63.35 184.85 68.6 190.1 73.85 195.4 73.85 202.8 73.85 210.15 68.6 215.4 63.35 220.7 55.95 220.7" fill="#e7fdff" fill-rule="evenodd" stroke="none"/>
    <path d="M61.2 25.6 L61.35 23.2 61.2 22.5 60.95 21.95 60.75 21.65 61.3 22.1 61.0 21.5 61.6 22.1 61.55 21.55 62.0 22.2 62.0 21.65 62.35 22.3 62.3 22.05 62.35 22.05 62.3 21.75 62.55 22.3 62.55 22.0 62.8 22.4 63.2 22.3 62.9 22.65 62.7 23.1 62.65 23.6 Q62.7 25.0 61.35 25.45 63.45 27.0 63.85 28.05 64.2 29.1 63.75 29.85 L62.9 31.0 Q64.65 33.4 64.65 36.45 64.65 40.35 61.85 43.1 59.1 45.9 55.2 45.9 51.25 45.9 48.5 43.1 45.75 40.35 45.75 36.45 45.75 32.5 48.5 29.75 51.25 27.0 55.2 27.0 L57.35 27.25 58.25 26.05 Q58.7 25.55 59.5 25.45 L61.2 25.6" fill="#231916" fill-rule="evenodd" stroke="none"/>
    <path d="M61.2 25.6 L59.5 25.45 Q58.7 25.55 58.25 26.05 L57.35 27.25 55.2 27.0 Q51.25 27.0 48.5 29.75 45.75 32.5 45.75 36.45 45.75 40.35 48.5 43.1 51.25 45.9 55.2 45.9 59.1 45.9 61.85 43.1 64.65 40.35 64.65 36.45 64.65 33.4 62.9 31.0 L63.75 29.85 Q64.2 29.1 63.85 28.05 63.45 27.0 61.35 25.45" fill="none" stroke="#231916" stroke-linecap="butt" stroke-linejoin="miter" stroke-width="2.0"/>
    <path d="M55.2 27.0 Q59.15 27.0 61.9 29.75 64.65 32.5 64.65 36.4 64.65 40.35 61.9 43.1 59.15 45.85 55.2 45.85 51.3 45.85 48.55 43.1 45.8 40.35 45.8 36.4 45.8 32.5 48.55 29.75 51.3 27.0 55.2 27.0" fill="#747575" fill-rule="evenodd" stroke="none"/>
    <path d="M60.2 31.3 Q60.2 33.0 58.7 34.25 57.2 35.45 55.1 35.45 53.0 35.45 51.5 34.25 50.05 33.0 50.05 31.3 50.05 29.6 51.5 28.4 53.0 27.2 55.1 27.2 57.2 27.2 58.7 28.4 60.2 29.6 60.2 31.3" fill="url(#gradient0)" fill-rule="evenodd" stroke="none"/>
    <path d="M47.2 31.65 Q48.45 29.5 50.6 28.25 49.55 29.5 48.95 31.0 48.35 32.6 48.35 34.3 48.35 38.25 51.15 41.0 53.9 43.75 57.8 43.75 60.35 43.75 62.55 42.45 61.2 44.05 59.4 44.95 57.45 45.85 55.35 45.85 51.4 45.85 48.65 43.1 45.9 40.3 45.9 36.4 45.9 33.85 47.2 31.65" fill="#494645" fill-rule="evenodd" stroke="none"/>
    <path d="M63.65 30.05 L62.0 32.25 Q61.4 32.9 60.3 32.85 59.15 32.8 58.1 32.1 56.95 31.35 56.5 30.25 56.05 29.15 56.55 28.35 L56.65 28.25 58.3 26.05 63.65 30.05" fill="#666565" fill-rule="evenodd" stroke="none"/>
    <path d="M58.1 26.3 L59.85 27.75 57.1 31.25 Q56.25 30.25 56.3 29.2 L56.55 28.35 58.1 26.3" fill="#898989" fill-rule="evenodd" stroke="none"/>
    <path d="M63.75 29.85 Q63.25 30.65 62.05 30.7 60.85 30.7 59.7 29.95 58.55 29.2 58.1 28.1 57.65 27.0 58.2 26.2 58.7 25.4 59.9 25.4 61.1 25.35 62.25 26.1 63.4 26.85 63.85 27.95 64.3 29.05 63.75 29.85" fill="#aaabab" fill-rule="evenodd" stroke="none"/>
    <path d="M63.1 29.3 Q62.7 29.9 61.8 29.95 60.9 29.95 60.0 29.35 59.1 28.8 58.75 27.95 58.4 27.1 58.8 26.45 59.2 25.85 60.15 25.85 61.05 25.8 61.95 26.4 62.85 27.0 63.2 27.85 63.5 28.7 63.1 29.3" fill="#c9c9ca" fill-rule="evenodd" stroke="none"/>
    <path d="M62.5 29.45 Q62.25 29.9 61.5 29.85 60.7 29.85 59.95 29.35 L58.85 28.15 Q58.55 27.5 58.8 27.05 59.1 26.6 59.85 26.6 60.65 26.65 61.4 27.15 L62.5 28.35 Q62.8 29.0 62.5 29.45" fill="#2d2d2d" fill-rule="evenodd" stroke="none"/>
    <path d="M61.5 28.15 L61.25 28.45 60.7 28.45 60.25 28.2 60.15 27.85 60.4 27.5 60.95 27.5 61.4 27.75 61.5 28.15" fill="#231916" fill-rule="evenodd" stroke="none"/>
    <path d="M61.35 22.9 L62.7 23.3 Q62.75 25.55 62.15 27.1 L61.5 28.2 60.15 27.85 Q61.25 26.45 61.4 24.5 L61.35 22.9" fill="#231916" fill-rule="evenodd" stroke="none"/>
    <path d="M61.3 22.85 L62.7 23.1 62.7 23.6 61.7 23.55 61.4 23.3 61.3 22.85" fill="#a00f16" fill-rule="evenodd" stroke="none"/>
    <path d="M61.3 22.65 Q61.6 22.45 62.75 22.95 L62.7 23.4 61.85 23.3 61.4 23.1 61.3 22.65" fill="#e60013" fill-rule="evenodd" stroke="none"/>
    <path d="M61.25 22.5 L61.0 21.9 60.8 21.65 61.35 22.1 61.05 21.45 61.6 22.1 61.55 21.55 62.05 22.2 62.05 21.65 62.4 22.25 62.35 21.75 62.6 22.3 62.6 21.95 62.8 22.4 63.2 22.3 62.8 22.8 62.45 22.75 62.45 22.55 62.25 22.7 62.05 22.4 61.8 22.65 61.6 22.5 61.6 22.7 61.25 22.5" fill="#fcc700" fill-rule="evenodd" stroke="none"/>
    <path d="M61.3 22.85 L61.2 22.15 61.65 22.35 61.6 21.95 61.9 22.35 62.1 22.15 62.4 22.5 62.35 22.05 62.65 22.65 63.0 22.45 62.7 23.1 61.9 23.0 61.3 22.85" fill="#eb6101" fill-rule="evenodd" stroke="none"/>
    <path d="M64.8 91.4 L72.25 88.05 66.8 92.95 64.8 91.4" fill="#2b1f3f" fill-rule="evenodd" stroke="none"/>
    <path d="M60.75 85.1 L68.4 82.25 62.4 87.4 60.75 85.1" fill="#2b1f3f" fill-rule="evenodd" stroke="none"/>
    <path d="M60.9 89.3 L69.75 86.0 62.55 91.6 60.9 89.3" fill="#2b1f3f" fill-rule="evenodd" stroke="none"/>
    <path d="M64.45 94.55 L72.4 91.5 66.1 96.85 64.45 94.55" fill="#2b1f3f" fill-rule="evenodd" stroke="none"/>
    <path d="M64.05 97.85 L72.25 94.65 65.7 100.15 64.05 97.85" fill="#2b1f3f" fill-rule="evenodd" stroke="none"/>
    <path d="M60.1 82.25 Q63.6 84.45 63.45 89.55 62.8 92.7 60.3 94.5 L60.45 94.7 60.65 95.0 60.95 95.5 61.15 95.4 Q64.75 93.0 67.6 89.8 L67.6 90.0 Q68.65 92.9 66.7 95.3 64.75 97.6 62.2 98.3 L62.3 98.75 Q65.0 98.85 67.8 97.75 L67.8 97.85 Q68.1 100.55 64.1 101.4 L61.95 101.6 61.25 102.0 57.85 102.7 56.15 102.6 54.4 102.8 Q53.4 103.0 52.6 103.4 52.05 103.6 51.6 103.95 L51.3 104.1 46.2 104.35 Q46.0 103.95 46.1 103.55 L46.1 103.5 Q46.1 103.3 46.25 103.2 L46.15 103.1 Q44.6 100.15 45.1 98.25 45.3 97.35 46.05 96.85 L46.7 96.45 47.75 96.1 48.3 96.05 48.35 96.05 48.7 96.0 49.75 96.05 50.3 96.05 51.5 96.15 52.0 96.15 52.45 96.15 51.2 92.6 50.15 93.05 48.25 88.7 56.6 85.0 58.55 89.3 58.05 89.6 58.7 91.05 Q60.25 87.25 60.1 82.9 L60.1 82.25" fill="#090909" fill-rule="evenodd" stroke="none"/>
    <path d="M60.1 82.25 Q63.6 84.45 63.45 89.55 62.8 92.7 60.3 94.5 L60.45 94.7 60.65 95.0 60.95 95.5 61.15 95.4 Q64.75 93.0 67.6 89.8 L67.6 90.0 Q68.65 92.9 66.7 95.3 64.75 97.6 62.2 98.3 L62.3 98.75 Q65.0 98.85 67.8 97.75 L67.8 97.85 Q68.1 100.55 64.1 101.4 L61.95 101.6 61.25 102.0 57.85 102.7 56.15 102.6 54.4 102.8 Q53.4 103.0 52.6 103.4 52.05 103.6 51.6 103.95 L51.3 104.1 46.2 104.35 Q46.0 103.95 46.1 103.55 L46.1 103.5 Q46.1 103.3 46.25 103.2 L46.15 103.1 Q44.6 100.15 45.1 98.25 45.3 97.35 46.05 96.85 L46.7 96.45 47.75 96.1 48.3 96.05 48.35 96.05 48.7 96.0 49.75 96.05 50.3 96.05 51.5 96.15 52.0 96.15 52.45 96.15 51.2 92.6 50.15 93.05 48.25 88.7 56.6 85.0 58.55 89.3 58.05 89.6 58.7 91.05 Q60.25 87.25 60.1 82.9 L60.1 82.25 Z" fill="none" stroke="#2b1f3f" stroke-linecap="round" stroke-linejoin="round" stroke-width="3.0"/>
    <path d="M51.55 92.4 L49.45 89.4 50.2 88.75 55.65 86.3 57.35 89.0 52.35 91.9 52.75 91.7 52.4 91.9 51.55 92.4 M53.35 98.6 L54.25 98.55 Q55.15 98.15 54.95 97.4 L54.9 97.05 52.75 91.7 57.1 89.95 59.6 95.0 59.65 95.05 57.5 96.4 56.75 97.65 56.5 98.6 56.5 99.9 56.85 100.4 54.8 101.0 53.55 100.95 Q52.55 99.95 53.35 98.6 M57.1 100.0 L56.85 99.6 57.1 98.7 57.1 100.0" fill="#aad5ff" fill-rule="evenodd" stroke="none"/>
    <path d="M50.2 88.75 L49.45 89.4 51.55 92.4 51.1 92.6 51.1 92.55 50.05 92.95 48.2 88.65 51.95 87.0 50.2 88.75" fill="#ffffff" fill-rule="evenodd" stroke="none"/>
    <path d="M51.55 92.4 L52.4 91.9 52.6 92.5 51.35 93.15 51.1 92.6 51.55 92.4 M46.6 96.35 L47.7 96.0 48.15 98.0 Q46.35 98.05 46.6 96.35 M48.25 96.0 L48.65 95.95 49.65 95.95 50.5 98.15 48.8 98.05 48.25 96.0 M50.2 96.0 L51.45 96.05 53.3 98.2 52.6 98.3 51.15 98.2 50.2 96.0 M51.95 96.05 L52.35 96.05 52.0 95.05 53.6 95.0 53.6 95.05 54.25 96.7 Q54.6 97.6 53.7 98.05 L53.55 98.1 51.95 96.05 M51.8 94.5 L51.55 93.7 52.85 93.15 53.35 94.4 51.8 94.5" fill="#aaffe6" fill-rule="evenodd" stroke="none"/>
    <path d="M52.4 91.9 L52.75 91.7 54.9 97.05 54.95 97.4 Q55.15 98.15 54.25 98.55 L53.35 98.6 51.75 98.55 50.05 98.55 49.0 98.55 48.95 98.5 48.85 98.55 46.95 98.55 46.85 98.45 Q45.95 97.85 46.0 96.7 L46.6 96.35 Q46.35 98.05 48.15 98.0 L48.25 98.0 48.8 98.05 50.5 98.15 51.15 98.2 52.6 98.3 53.3 98.2 53.55 98.1 53.7 98.05 Q54.6 97.6 54.25 96.7 L53.6 95.05 53.6 95.0 53.35 94.4 52.85 93.15 52.6 92.5 52.4 91.9" fill="#027bf4" fill-rule="evenodd" stroke="none"/>
    <path d="M46.0 96.7 Q45.95 97.85 46.85 98.45 L46.95 98.55 48.85 98.55 Q47.45 100.2 48.05 101.3 L45.55 101.8 Q44.65 99.7 45.05 98.2 45.25 97.3 46.0 96.7" fill="#eef7ff" fill-rule="evenodd" stroke="none"/>
    <path d="M47.7 96.0 L48.2 96.0 48.25 96.0 48.8 98.05 48.25 98.0 48.15 98.0 47.7 96.0 M49.65 95.95 L50.2 96.0 51.15 98.2 50.5 98.15 49.65 95.95 M51.45 96.05 L51.95 96.05 53.55 98.1 53.3 98.2 51.45 96.05 M52.0 95.05 L51.8 94.5 53.35 94.4 53.6 95.0 52.0 95.05 M51.55 93.7 L51.35 93.15 52.6 92.5 52.85 93.15 51.55 93.7" fill="#016546" fill-rule="evenodd" stroke="none"/>
    <path d="M48.05 101.3 Q47.45 100.2 48.85 98.55 L48.95 98.5 49.0 98.55 50.05 98.55 Q49.0 99.95 49.55 101.05 L48.05 101.3 M51.75 98.55 L53.35 98.6 Q52.55 99.95 53.55 100.95 L51.6 100.9 Q50.9 99.95 51.75 98.55" fill="#92c9fe" fill-rule="evenodd" stroke="none"/>
    <path d="M52.75 91.7 L52.35 91.9 57.35 89.0 55.65 86.3 50.2 88.75 51.95 87.0 56.5 84.9 58.4 89.25 57.95 89.5 60.15 94.3 60.35 94.6 59.65 95.05 59.6 95.0 57.1 89.95 52.75 91.7" fill="#67b3fe" fill-rule="evenodd" stroke="none"/>
    <path d="M59.65 95.05 L60.35 94.6 60.65 94.95 59.9 95.4 59.65 95.05" fill="#bacc6f" fill-rule="evenodd" stroke="none"/>
    <path d="M59.65 95.05 L59.9 95.4 58.05 96.45 57.35 97.75 57.1 98.7 56.85 99.6 57.1 100.0 57.25 100.2 56.85 100.4 56.5 99.9 56.5 98.6 56.75 97.65 57.5 96.4 59.65 95.05" fill="#ccda94" fill-rule="evenodd" stroke="none"/>
    <path d="M60.65 94.95 Q62.4 97.9 62.35 99.65 L62.4 99.85 61.7 100.35 61.45 98.75 Q61.0 97.1 59.9 95.4 L60.65 94.95" fill="#6fe2ff" fill-rule="evenodd" stroke="none"/>
    <path d="M57.25 100.2 L57.1 100.0 57.1 98.7 57.35 97.75 58.05 96.45 59.9 95.4 Q61.0 97.1 61.45 98.75 L57.25 100.2" fill="#aaeeff" fill-rule="evenodd" stroke="none"/>
    <path d="M50.05 98.55 L51.75 98.55 Q50.9 99.95 51.6 100.9 L50.4 100.85 49.55 101.05 Q49.0 99.95 50.05 98.55" fill="#c4e1ff" fill-rule="evenodd" stroke="none"/>
    <path d="M62.4 99.85 L62.6 100.05 61.7 100.7 61.55 100.95 Q60.8 101.8 58.55 102.05 L58.0 102.1 56.0 102.15 55.95 102.2 52.85 102.6 52.35 102.85 50.9 103.3 Q47.45 104.3 46.1 103.4 L46.05 103.4 46.15 103.1 46.1 103.05 50.75 102.95 52.1 102.6 52.85 102.3 56.0 101.85 57.85 101.85 58.35 101.75 Q61.15 101.45 61.7 100.35 L62.4 99.85" fill="#61a5d1" fill-rule="evenodd" stroke="none"/>
    <path d="M62.6 100.05 Q63.05 100.8 62.3 101.1 L61.15 101.9 57.8 102.6 56.1 102.55 54.3 102.75 52.55 103.3 Q52.0 103.55 51.55 103.9 L51.2 104.0 46.15 104.25 Q45.9 103.85 46.05 103.5 L46.05 103.4 46.1 103.4 Q47.45 104.3 50.9 103.3 L52.35 102.85 52.85 102.6 55.95 102.2 56.0 102.15 58.0 102.1 58.55 102.05 Q60.8 101.8 61.55 100.95 L61.7 100.7 62.6 100.05" fill="#dfe8ec" fill-rule="evenodd" stroke="none"/>
    <path d="M45.55 101.8 L48.05 101.3 49.55 101.05 50.4 100.85 51.6 100.9 53.55 100.95 54.8 101.0 56.85 100.4 57.25 100.2 61.45 98.75 61.7 100.35 Q61.15 101.45 58.35 101.75 L57.85 101.85 56.0 101.85 52.85 102.3 52.1 102.6 50.75 102.95 46.1 103.05 46.15 103.0 45.55 101.8" fill="#0273e3" fill-rule="evenodd" stroke="none"/>
    <path d="M60.1 82.3 Q63.6 84.45 63.45 89.55 62.7 93.3 59.4 95.1 60.0 95.25 60.5 95.7 L60.55 95.75 60.6 95.75 60.9 95.55 Q60.95 95.45 61.1 95.45 64.75 93.05 67.5 89.85 L67.6 90.0 Q68.65 92.95 66.65 95.35 64.7 97.75 61.9 98.45 L61.95 98.6 61.9 98.75 62.05 98.75 62.2 98.8 Q64.95 98.9 67.75 97.75 L67.8 97.85 Q68.05 100.65 64.1 101.45 L60.7 101.2 Q59.9 102.05 58.65 102.15 L57.4 102.1 57.2 102.05 55.95 101.45 Q54.8 100.45 54.6 98.95 54.45 97.5 55.4 96.3 L56.15 95.5 Q60.35 89.95 60.05 82.9 L60.1 82.3" fill="#ffffff" fill-rule="evenodd" stroke="none"/>
    <path d="M59.75 100.95 Q58.85 101.65 57.65 101.5 56.5 101.3 55.8 100.3 55.1 99.4 55.25 98.2 55.45 97.05 56.45 96.3 57.35 95.65 58.5 95.85 59.7 96.0 60.4 96.95 61.1 97.9 60.9 99.05 60.75 100.25 59.75 100.95" fill="#dbafe0" fill-rule="evenodd" stroke="none"/>
    <path d="M59.5 100.5 Q58.75 101.05 57.85 100.9 56.95 100.75 56.4 100.0 55.9 99.3 56.0 98.35 56.15 97.45 56.85 96.95 57.6 96.4 58.5 96.55 59.4 96.7 59.95 97.45 60.5 98.15 60.35 99.05 60.25 100.0 59.5 100.5" fill="#ffffff" fill-rule="evenodd" stroke="none"/>
    <path d="M58.9 99.5 L58.05 99.75 57.3 99.25 Q57.05 98.9 57.1 98.45 57.2 97.95 57.55 97.7 57.95 97.4 58.4 97.5 58.85 97.55 59.15 97.95 59.4 98.3 59.3 98.8 L58.9 99.5" fill="#d6a3dc" fill-rule="evenodd" stroke="none"/>
    <path d="M65.85 79.55 L61.9 83.85 60.25 81.55 65.85 79.55" fill="#2b1f3f" fill-rule="evenodd" stroke="none"/>
    <path d="M49.45 111.2 Q53.15 111.05 55.8 114.05 58.05 110.55 62.5 111.7 65.0 112.35 65.75 115.05 66.55 117.8 64.9 120.2 L55.25 129.25 48.85 123.3 46.2 120.4 Q44.25 117.55 45.25 114.5 46.25 111.3 49.45 111.2" fill="url(#gradient1)" fill-rule="evenodd" stroke="none"/>
    <path d="M49.45 111.2 Q53.15 111.05 55.8 114.05 58.05 110.55 62.5 111.7 65.0 112.35 65.75 115.05 66.55 117.8 64.9 120.2 L55.25 129.25 48.85 123.3 46.2 120.4 Q44.25 117.55 45.25 114.5 46.25 111.3 49.45 111.2 Z" fill="none" stroke="#880000" stroke-linecap="round" stroke-linejoin="round" stroke-width="3.0"/>
    <path d="M49.45 111.2 Q53.15 111.05 55.8 114.05 58.05 110.55 62.5 111.7 65.0 112.35 65.75 115.05 66.55 117.8 64.9 120.2 L55.25 129.25 48.85 123.3 46.2 120.4 Q44.25 117.55 45.25 114.5 46.25 111.3 49.45 111.2" fill="url(#gradient2)" fill-rule="evenodd" stroke="none"/>
    <path d="M52.4 115.65 Q51.5 116.3 50.15 116.3 48.75 116.3 47.75 115.65 46.85 115.05 46.85 114.05 46.85 113.05 47.75 112.35 48.75 111.75 50.15 111.75 51.5 111.75 52.4 112.35 53.4 113.05 53.4 114.05 53.4 115.05 52.4 115.65" fill="url(#gradient3)" fill-rule="evenodd" stroke="none"/>
    <path d="M60.6 120.2 Q64.85 116.45 64.1 114.05 63.6 112.35 62.95 111.9 65.05 112.6 65.75 115.1 66.5 117.8 64.9 120.2 L55.15 129.25 54.55 128.7 Q53.25 124.1 60.6 120.2" fill="url(#gradient4)" fill-rule="evenodd" stroke="none"/>
    <path d="M67.9 127.55 L55.85 127.55 55.85 123.5 67.9 123.5 67.9 127.55" fill="#ff0909" fill-rule="evenodd" stroke="none"/>
    <path d="M59.9 131.55 L59.9 119.5 63.95 119.5 63.95 131.55 59.9 131.55" fill="#ff0909" fill-rule="evenodd" stroke="none"/>
    <path d="M58.7 135.55 L58.75 135.5 58.7 135.6 Q61.2 139.05 65.7 140.65 L61.55 153.85 Q59.3 158.75 52.45 160.3 L50.7 160.3 49.3 159.3 Q44.6 154.0 45.55 148.7 L49.9 135.55 Q54.5 136.9 58.5 135.55 L58.55 135.45 58.7 135.55 M51.1 159.05 L51.15 159.0 51.1 159.0 51.1 159.05" fill="#000000" fill-rule="evenodd" stroke="none"/>
    <path d="M58.7 135.55 L58.55 135.45 58.5 135.55 Q54.5 136.9 49.9 135.55 L45.55 148.7 Q44.6 154.0 49.3 159.3 L50.7 160.3 52.45 160.3 Q59.3 158.75 61.55 153.85 L65.7 140.65 Q61.2 139.05 58.7 135.6 L58.75 135.5 58.7 135.55 Z" fill="none" stroke="#5e3700" stroke-linecap="round" stroke-linejoin="round" stroke-width="3.0"/>
    <path d="M58.65 135.45 L58.75 135.4 58.7 135.55 Q61.25 138.95 65.75 140.6 L61.6 153.75 Q59.25 158.65 52.4 160.25 L50.7 160.25 49.25 159.25 Q44.55 153.95 45.55 148.6 L49.9 135.5 Q54.5 136.8 58.55 135.5 L58.6 135.35 58.65 135.45 M58.2 136.55 L58.15 136.7 Q55.3 137.3 52.2 136.7 L51.8 136.65 Q51.55 137.55 50.3 137.35 L46.5 148.75 Q45.6 153.85 50.35 158.95 L50.95 159.4 51.7 159.4 Q58.5 158.0 60.75 153.35 L64.25 142.2 64.3 141.85 Q63.25 141.35 63.55 140.45 L63.15 140.2 Q60.15 138.8 58.2 136.55" fill="#fff8bb" fill-rule="evenodd" stroke="none"/>
    <path d="M58.2 136.55 Q60.15 138.8 63.15 140.2 L63.55 140.45 Q63.25 141.35 64.3 141.85 L64.25 142.2 60.75 153.35 Q58.5 158.0 51.7 159.4 L50.95 159.4 50.35 158.95 Q45.6 153.85 46.5 148.75 L50.3 137.35 Q51.55 137.55 51.8 136.65 L52.2 136.7 Q55.3 137.3 58.15 136.7 L58.2 136.55 M57.7 138.15 L52.5 137.85 Q52.1 138.75 51.15 138.8 L48.0 148.2 Q46.95 152.3 49.3 155.7 L51.3 158.15 54.4 157.35 Q58.45 155.8 59.8 152.0 L62.8 142.55 Q62.1 141.95 62.2 140.95 59.1 139.5 57.7 138.05 L57.7 138.15 M63.05 140.7 L62.95 140.65 62.85 140.6 63.05 140.7 M52.05 137.15 L52.0 137.15 52.2 137.15 52.05 137.15" fill="#ce9717" fill-rule="evenodd" stroke="none"/>
    <path d="M57.7 138.15 L57.7 138.05 Q59.1 139.5 62.2 140.95 62.1 141.95 62.8 142.55 L59.8 152.0 Q58.45 155.8 54.4 157.35 L51.3 158.15 49.3 155.7 Q46.95 152.3 48.0 148.2 L51.15 138.8 Q52.1 138.75 52.5 137.85 L57.7 138.15" fill="#ffe16f" fill-rule="evenodd" stroke="none"/>
    <path d="M52.05 137.15 L52.2 137.15 52.0 137.15 52.05 137.15 M63.05 140.7 L62.85 140.6 62.95 140.65 63.05 140.7" fill="#a58d8d" fill-rule="evenodd" stroke="none"/>
    <path d="M62.35 141.0 Q62.2 142.0 62.95 142.65 L59.95 152.05 Q58.6 155.85 54.55 157.4 L51.45 158.2 50.4 157.05 53.5 156.25 Q57.55 154.7 58.9 150.85 L61.9 141.4 Q61.45 141.05 61.35 140.5 L62.35 141.0" fill="#ecbd02" fill-rule="evenodd" stroke="none"/>
    <path d="M51.2 138.8 Q52.1 138.8 52.55 137.9 L57.7 138.2 57.75 138.1 Q59.2 139.55 62.25 141.0 62.15 142.0 62.85 142.55 L62.85 142.6 Q60.1 141.35 58.8 140.0 L58.75 140.1 53.6 139.75 Q53.15 140.65 52.2 140.7 L49.15 150.05 Q48.3 153.1 49.4 155.8 L49.35 155.75 Q47.0 152.35 48.1 148.2 L51.2 138.8" fill="#ffffff" fill-rule="evenodd" stroke="none"/>
    <path d="M63.1 146.0 L62.15 148.9 47.85 144.3 48.8 141.4 63.1 146.0" fill="#ce9717" fill-rule="evenodd" stroke="none"/>
    <path d="M62.7 146.4 L62.1 148.3 48.5 143.9 49.1 142.0 62.7 146.4" fill="#ff9c09" fill-rule="evenodd" stroke="none"/>
    <path d="M59.2 138.75 L52.95 158.15 51.05 159.4 50.1 157.25 56.35 137.85 58.35 136.7 59.2 138.75" fill="#ce9717" fill-rule="evenodd" stroke="none"/>
    <path d="M58.55 139.05 L52.6 157.6 51.2 158.7 50.7 157.0 56.65 138.45 58.05 137.5 58.55 139.05" fill="#ff9c09" fill-rule="evenodd" stroke="none"/>
    <path d="M53.6 151.4 Q55.0 146.85 52.05 144.0 55.6 144.25 57.05 140.9 56.4 144.85 59.2 146.1 55.2 146.8 53.6 151.4" fill="#ffffff" fill-rule="evenodd" stroke="none"/>
    <path d="M54.6 148.3 Q55.3 146.05 53.85 144.7 55.55 144.85 56.25 143.15 55.95 145.05 57.35 145.7 55.35 146.05 54.6 148.3" fill="#ffd944" fill-rule="evenodd" stroke="none"/>
    <path d="M63.55 61.35 L61.3 74.8 Q60.4 77.05 58.05 76.6 50.4 73.7 46.05 68.9 44.4 66.7 46.6 65.0 L57.1 57.45 58.7 55.0 59.65 55.55 59.9 55.15 60.75 53.15 65.8 56.4 64.4 58.0 64.15 58.4 65.05 59.0 63.55 61.35" fill="#000000" fill-rule="evenodd" stroke="none"/>
    <path d="M63.55 61.35 L61.3 74.8 Q60.4 77.05 58.05 76.6 50.4 73.7 46.05 68.9 44.4 66.7 46.6 65.0 L57.1 57.45 58.7 55.0 59.65 55.55 59.9 55.15 60.75 53.15 65.8 56.4 64.4 58.0 64.15 58.4 65.05 59.0 63.55 61.35 Z" fill="none" stroke="#750231" stroke-linecap="round" stroke-linejoin="round" stroke-width="3.0"/>
    <path d="M58.05 76.6 Q50.4 73.7 46.05 68.9 44.4 66.7 46.6 65.0 L57.1 57.45 58.7 55.0 65.05 59.0 63.55 61.35 61.3 74.8 Q60.4 77.05 58.05 76.6" fill="#fe56bb" fill-rule="evenodd" stroke="none"/>
    <path d="M61.35 59.85 L58.15 57.8 59.85 55.1 60.7 53.05 63.65 55.1 62.75 56.45 60.45 55.3 62.35 57.0 61.35 59.85" fill="#ba5e01" fill-rule="evenodd" stroke="none"/>
    <path d="M63.65 55.1 L65.8 56.3 64.3 57.95 62.6 60.65 61.35 59.85 62.35 57.0 60.45 55.3 62.75 56.45 63.65 55.1" fill="#874301" fill-rule="evenodd" stroke="none"/>
    <path d="M59.2 56.15 L63.6 58.95 62.7 60.75 60.2 73.0 Q59.55 74.8 57.7 74.4 51.4 72.0 47.9 68.15 46.5 66.4 48.25 65.05 L58.1 57.9 59.2 56.15" fill="#fffff7" fill-opacity="0.7921569" fill-rule="evenodd" stroke="none"/>
    <path d="M47.95 68.15 Q46.55 66.35 48.25 65.05 L50.5 63.55 62.1 63.75 60.25 72.95 Q59.6 74.8 57.7 74.4 51.45 72.0 47.95 68.15" fill="url(#gradient5)" fill-rule="evenodd" stroke="none"/>
    <path d="M60.6 64.95 L56.45 65.45 52.3 64.95 Q50.6 64.5 50.6 63.8 50.6 63.05 52.3 62.55 L56.45 62.1 60.6 62.55 Q62.35 63.05 62.35 63.8 62.35 64.5 60.6 64.95" fill="url(#gradient6)" fill-rule="evenodd" stroke="none"/>
    <path d="M63.65 58.95 L62.7 60.75 60.25 72.95 Q59.6 74.8 57.7 74.4 51.45 72.0 47.95 68.15 L47.55 67.7 Q49.95 70.05 53.9 72.0 57.85 73.95 58.25 72.0 L62.75 58.4 63.65 58.95" fill="#ffffff" fill-rule="evenodd" stroke="none"/>
    <path d="M59.5 56.4 L58.45 58.05 48.6 65.15 Q46.9 66.5 48.25 68.3 50.75 70.95 54.5 73.0 50.45 70.9 47.85 68.1 46.45 66.35 48.2 65.05 L58.0 57.85 59.1 56.15 59.5 56.4" fill="#fffff7" fill-rule="evenodd" stroke="none"/>
    <path d="M60.75 67.5 L59.25 69.2 58.0 58.1 59.3 56.4 60.75 67.5" fill="#ffffff" fill-rule="evenodd" stroke="none"/>
    <path d="M53.75 61.25 L57.35 73.4 54.85 72.95 52.55 62.0 53.75 61.25" fill="#ffffff" fill-opacity="0.49803922" fill-rule="evenodd" stroke="none"/>
    <path d="M51.75 62.8 L54.1 72.35 52.8 71.7 51.05 63.35 51.75 62.8" fill="#ffffff" fill-rule="evenodd" stroke="none"/>
    <path d="M57.1 63.5 L57.75 67.05 51.0 68.5 55.2 65.85 54.95 62.25 61.55 61.25 57.1 63.5" fill="#ff3333" fill-rule="evenodd" stroke="none"/>
  </g>
  <defs>
    <linearGradient gradientTransform="matrix(0.0, 0.005, 0.005, 0.0, 55.1, 31.3)" gradientUnits="userSpaceOnUse" id="gradient0" spreadMethod="pad" x1="-819.2" x2="819.2">
      <stop offset="0.0" stop-color="#ffffff"/>
      <stop offset="1.0" stop-color="#747575"/>
    </linearGradient>
    <linearGradient gradientTransform="matrix(0.0091, 0.0031, -0.0035, 0.0104, 55.4, 119.65)" gradientUnits="userSpaceOnUse" id="gradient1" spreadMethod="pad" x1="-819.2" x2="819.2">
      <stop offset="0.0" stop-color="#fb0d0d"/>
      <stop offset="1.0" stop-color="#fedcab"/>
    </linearGradient>
    <linearGradient gradientTransform="matrix(0.0011, 0.0076, -0.0108, 0.0016, 54.85, 118.95)" gradientUnits="userSpaceOnUse" id="gradient2" spreadMethod="pad" x1="-819.2" x2="819.2">
      <stop offset="0.0" stop-color="#fb0d0d"/>
      <stop offset="1.0" stop-color="#fedcab"/>
    </linearGradient>
    <linearGradient gradientTransform="matrix(1.0E-4, 0.0029, -0.0028, 1.0E-4, 50.15, 114.05)" gradientUnits="userSpaceOnUse" id="gradient3" spreadMethod="pad" x1="-819.2" x2="819.2">
      <stop offset="0.0" stop-color="#ffffff"/>
      <stop offset="1.0" stop-color="#ffffff" stop-opacity="0.0"/>
    </linearGradient>
    <linearGradient gradientTransform="matrix(-0.0038, -0.0023, 0.0057, -0.0093, 60.55, 119.9)" gradientUnits="userSpaceOnUse" id="gradient4" spreadMethod="pad" x1="-819.2" x2="819.2">
      <stop offset="0.0" stop-color="#ffffff"/>
      <stop offset="1.0" stop-color="#ffffff" stop-opacity="0.0"/>
    </linearGradient>
    <linearGradient gradientTransform="matrix(0.0038, 0.0074, -0.0045, 0.0023, 55.1, 67.95)" gradientUnits="userSpaceOnUse" id="gradient5" spreadMethod="pad" x1="-819.2" x2="819.2">
      <stop offset="0.0" stop-color="#fe4e83"/>
      <stop offset="1.0" stop-color="#ffe991"/>
    </linearGradient>
    <linearGradient gradientTransform="matrix(0.0, 0.0026, -0.0012, 0.0, 56.4, 63.8)" gradientUnits="userSpaceOnUse" id="gradient6" spreadMethod="pad" x1="-819.2" x2="819.2">
      <stop offset="0.0" stop-color="#ff5599"/>
      <stop offset="1.0" stop-color="#ffffff"/>
    </linearGradient>
  </defs>
</svg>
