<?xml version="1.0" encoding="UTF-8" standalone="no"?>
<svg xmlns:xlink="http://www.w3.org/1999/xlink" height="37.45px" width="35.8px" xmlns="http://www.w3.org/2000/svg">
  <g transform="matrix(1.0, 0.0, 0.0, 1.0, -3.45, -2.1)">
    <path d="M27.7 20.5 L39.25 20.5 26.85 21.75 35.0 23.55 27.25 23.4 38.55 28.05 26.8 24.75 33.25 29.35 25.4 25.65 35.05 34.1 24.65 26.2 29.3 33.4 23.85 26.9 26.65 34.7 22.9 27.0 24.85 39.55 21.6 26.8 20.35 36.9 20.5 26.85 17.75 35.2 19.4 27.25 13.0 37.25 18.1 27.15 11.15 32.85 17.45 26.25 7.15 32.2 16.6 25.2 7.95 27.45 15.8 24.6 3.45 25.3 15.55 23.25 7.1 22.45 15.8 22.2 3.55 19.35 15.9 20.8 8.2 16.8 16.35 19.55 5.8 11.95 16.75 18.5 11.6 11.9 17.5 17.6 12.55 8.95 18.5 16.85 14.15 5.6 19.6 16.1 17.8 2.1 20.8 15.9 21.35 6.55 22.2 16.25 25.85 4.65 23.45 16.75 29.6 4.4 24.85 16.35 31.6 9.15 25.7 17.05 31.9 12.45 26.95 17.9 36.65 13.2 27.35 19.15 34.75 18.0 27.7 20.5" fill="#ffd222" fill-rule="evenodd" stroke="none"/>
  </g>
</svg>
