<?xml version="1.0" encoding="UTF-8" standalone="no"?>
<svg xmlns:xlink="http://www.w3.org/1999/xlink" height="14.15px" width="27.6px" xmlns="http://www.w3.org/2000/svg">
  <g transform="matrix(1.0, 0.0, 0.0, 1.0, 1.05, 2.95)">
    <path d="M2.3 -2.45 L4.95 -1.95 5.55 -1.0 Q7.35 -0.4 9.6 0.05 L11.2 0.4 Q11.8 0.95 12.55 0.55 L12.75 0.6 13.2 0.75 18.95 1.5 21.9 1.7 22.0 1.65 21.95 1.65 22.7 1.05 22.95 1.15 22.9 1.15 25.3 1.85 25.4 1.85 25.6 2.05 25.65 2.05 25.75 2.2 25.95 2.9 Q26.15 3.45 25.95 5.55 25.9 7.8 25.15 9.05 L24.2 10.4 24.15 10.4 24.0 10.45 21.45 10.7 Q21.2 10.75 21.05 10.5 L20.95 10.05 20.95 10.0 17.85 9.5 12.25 8.85 11.2 8.75 9.9 8.65 8.35 8.6 3.65 8.45 2.9 9.0 2.8 9.05 2.75 9.05 2.7 9.1 0.5 8.45 0.15 8.3 -0.4 7.4 -0.5 5.15 Q-0.5 3.8 0.6 0.25 1.55 -2.5 2.2 -2.45 L2.3 -2.45" fill="#000000" fill-rule="evenodd" stroke="none"/>
    <path d="M2.3 -2.45 L2.2 -2.45 Q1.55 -2.5 0.6 0.25 -0.5 3.8 -0.5 5.15 L-0.4 7.4 0.15 8.3 0.5 8.45 2.7 9.1 2.75 9.05 2.8 9.05 2.9 9.0 3.65 8.45 8.35 8.6 9.9 8.65 11.2 8.75 12.25 8.85 17.85 9.5 20.95 10.0 20.95 10.05 21.05 10.5 Q21.2 10.75 21.45 10.7 L24.0 10.45 24.15 10.4 24.2 10.4 25.15 9.05 Q25.9 7.8 25.95 5.55 26.15 3.45 25.95 2.9 L25.75 2.2 25.65 2.05 25.6 2.05 25.4 1.85 25.3 1.85 22.9 1.15 22.95 1.15 22.7 1.05 21.95 1.65 22.0 1.65 21.9 1.7 18.95 1.5 13.2 0.75 12.75 0.6 12.55 0.55 Q11.8 0.95 11.2 0.4 L9.6 0.05 Q7.35 -0.4 5.55 -1.0 L4.95 -1.95 2.3 -2.45 Z" fill="none" stroke="#000000" stroke-linecap="round" stroke-linejoin="round" stroke-opacity="0.49803922" stroke-width="1.0"/>
    <path d="M0.55 8.4 L0.15 8.3 -0.4 7.3 -0.5 5.15 Q-0.5 3.8 0.65 0.2 1.55 -2.55 2.2 -2.5 L2.15 -2.3 2.55 -1.7 2.75 -0.5 3.0 0.65 3.05 1.3 3.0 2.05 2.7 3.5 2.4 5.3 2.15 6.0 1.6 6.75 1.15 7.5 -0.05 7.85 Q-0.05 8.3 0.55 8.35 L0.65 8.35 0.55 8.4 M3.05 2.7 L2.65 4.65 2.9 3.7 3.05 2.7 M23.2 2.75 L24.7 2.9 24.6 3.25 24.35 3.2 23.85 3.1 23.1 3.15 22.25 3.1 21.65 3.1 Q21.35 3.25 21.3 3.6 L21.3 3.8 21.35 4.05 21.5 4.35 21.15 4.35 Q20.7 3.95 20.65 3.55 20.7 3.15 21.3 2.6 L22.3 2.6 23.2 2.75 M22.65 7.55 L23.7 7.8 23.5 8.15 23.15 8.1 20.85 7.6 20.45 7.85 20.3 8.0 20.2 8.25 20.2 8.5 20.15 8.45 Q19.6 7.55 20.8 7.15 L21.95 7.35 22.65 7.55 M5.7 3.35 L7.2 3.45 7.25 3.9 6.8 3.85 5.9 3.65 4.65 3.5 Q4.4 3.45 4.25 4.25 L4.2 4.7 3.7 4.5 4.0 3.05 5.7 3.35 M7.65 0.65 L7.35 0.65 7.15 0.6 6.45 0.5 5.5 0.35 4.7 0.3 4.55 0.85 4.6 1.2 4.7 1.6 4.1 1.5 4.15 -0.15 5.7 0.1 7.45 0.35 7.65 0.65 M0.3 5.95 L0.55 6.6 0.95 6.55 1.15 6.15 Q2.75 3.35 2.15 -0.25 1.5 -0.65 1.0 1.3 0.35 3.65 0.25 4.45 L0.3 5.95 M5.85 6.75 L5.05 6.55 4.0 6.35 3.75 6.4 3.6 6.8 3.5 6.9 3.35 7.2 3.3 7.2 2.8 7.05 Q3.2 6.8 3.35 5.95 L4.95 6.2 6.35 6.5 6.5 6.8 6.3 6.8 5.85 6.75" fill="#86bda0" fill-rule="evenodd" stroke="none"/>
    <path d="M2.2 -2.5 L2.35 -2.5 2.55 -2.3 3.0 -1.8 3.05 -1.0 2.9 -1.8 Q2.6 -2.4 2.5 -1.8 L2.55 -1.7 2.15 -2.3 2.2 -2.5 M3.05 1.3 L3.1 1.3 3.15 1.05 3.0 -0.5 3.05 -1.0 3.25 0.6 3.2 2.05 3.05 2.7 2.9 3.7 2.65 4.65 2.3 6.0 2.25 6.0 2.2 6.3 2.05 6.55 1.9 6.8 1.5 7.6 0.65 8.35 0.55 8.35 Q-0.05 8.3 -0.05 7.85 L1.15 7.5 1.6 6.75 2.15 6.0 2.4 5.3 2.7 3.5 3.0 2.05 3.05 1.3" fill="#d3e7db" fill-rule="evenodd" stroke="none"/>
    <path d="M2.35 -2.5 L4.95 -2.0 5.6 -1.0 5.7 0.1 4.15 -0.15 4.1 1.5 4.7 1.6 5.75 1.75 5.7 3.35 4.0 3.05 3.7 4.5 4.2 4.7 5.4 4.9 4.95 6.2 3.35 5.95 Q3.2 6.8 2.8 7.05 L3.3 7.2 3.35 7.2 4.35 7.45 3.7 8.4 2.95 8.95 2.8 9.05 2.8 9.0 2.75 9.1 0.55 8.45 0.55 8.4 0.65 8.35 1.5 7.6 1.9 6.8 2.05 6.55 2.2 6.3 2.25 6.0 2.3 6.0 2.65 4.65 3.05 2.7 3.2 2.05 3.25 0.6 3.05 -1.0 3.0 -1.8 2.55 -2.3 2.35 -2.5 M22.95 1.15 L25.25 1.75 25.3 1.75 25.4 1.8 25.6 2.05 25.65 2.05 25.7 2.2 25.95 2.9 Q26.15 3.35 26.0 5.6 25.85 7.75 25.15 9.0 L24.25 10.35 24.2 10.35 24.0 10.45 23.7 10.5 21.45 10.7 21.75 10.1 22.2 9.05 23.0 9.3 23.5 8.15 23.7 7.8 22.65 7.55 23.1 5.2 23.25 4.4 24.45 4.45 24.6 3.25 24.7 2.9 23.2 2.75 23.1 1.8 22.95 1.15" fill="#57a17b" fill-rule="evenodd" stroke="none"/>
    <path d="M2.55 -1.7 L2.5 -1.8 Q2.6 -2.4 2.9 -1.8 L3.05 -1.0 3.0 -0.5 3.15 1.05 3.1 1.3 3.05 1.3 3.0 0.65 2.75 -0.5 2.55 -1.7" fill="#e9f3ec" fill-rule="evenodd" stroke="none"/>
    <path d="M22.0 1.7 L21.95 1.65 22.7 1.0 22.95 1.1 22.95 1.15 23.1 1.8 23.2 2.75 22.3 2.6 22.0 1.7 M21.45 10.7 Q21.15 10.75 21.05 10.45 L20.95 10.05 20.95 9.95 21.5 8.85 22.2 9.05 21.75 10.1 21.45 10.7 M23.25 4.4 L23.1 5.2 22.65 7.55 21.95 7.35 22.1 6.6 22.2 6.0 22.35 4.4 23.25 4.4" fill="#386951" fill-rule="evenodd" stroke="none"/>
    <path d="M5.6 -1.0 L9.6 0.0 11.2 0.35 11.45 2.45 7.3 1.75 Q7.8 1.3 7.65 0.65 L7.45 0.35 5.7 0.1 5.6 -1.0 M19.0 1.45 L21.9 1.7 22.0 1.7 22.3 2.6 21.3 2.6 Q20.7 3.15 20.65 3.55 L19.2 3.35 19.0 1.45" fill="#3d764e" fill-rule="evenodd" stroke="none"/>
    <path d="M20.65 3.55 Q20.7 3.95 21.15 4.35 L21.5 4.35 22.35 4.4 22.2 6.0 22.1 6.6 21.5 6.75 20.0 6.9 18.85 6.9 Q19.3 5.25 19.2 3.35 L20.65 3.55 M11.45 2.45 Q11.5 4.4 11.0 6.1 L8.65 5.65 6.75 5.2 Q7.3 4.65 7.25 3.9 L7.2 3.45 5.7 3.35 5.75 1.75 7.2 1.95 7.3 1.75 11.45 2.45" fill="#326244" fill-rule="evenodd" stroke="none"/>
    <path d="M24.6 3.25 L24.45 4.45 23.25 4.4 22.35 4.4 21.5 4.35 21.35 4.05 21.3 3.8 23.3 4.0 23.75 3.95 24.1 3.8 24.3 3.4 24.35 3.2 24.6 3.25 M23.5 8.15 L23.0 9.3 22.2 9.05 21.5 8.85 20.2 8.5 20.2 8.25 20.3 8.0 Q21.8 8.65 22.45 8.75 L22.95 8.5 23.15 8.1 23.5 8.15 M7.3 1.75 L7.2 1.95 5.75 1.75 4.7 1.6 4.6 1.2 5.8 1.3 6.85 1.35 7.15 1.0 7.15 0.6 7.35 0.65 7.65 0.65 Q7.8 1.3 7.3 1.75 M7.25 3.9 Q7.3 4.65 6.75 5.2 L6.8 5.25 5.4 4.9 4.2 4.7 4.25 4.25 5.05 4.45 6.35 4.55 6.65 4.2 6.8 3.85 7.25 3.9 M3.5 6.9 L4.4 7.1 5.3 7.35 5.65 7.05 5.85 6.75 6.3 6.8 6.5 6.8 Q6.5 7.4 5.7 7.7 L4.35 7.45 3.35 7.2 3.5 6.9" fill="#498360" fill-rule="evenodd" stroke="none"/>
    <path d="M21.3 3.8 L21.3 3.6 Q21.35 3.25 21.65 3.1 L22.25 3.1 23.1 3.15 23.85 3.1 24.35 3.2 24.3 3.4 24.1 3.8 23.75 3.95 23.3 4.0 21.3 3.8 M23.15 8.1 L22.95 8.5 22.45 8.75 Q21.8 8.65 20.3 8.0 L20.45 7.85 20.85 7.6 23.15 8.1 M7.15 0.6 L7.15 1.0 6.85 1.35 5.8 1.3 4.6 1.2 4.55 0.85 4.7 0.3 5.5 0.35 6.45 0.5 7.15 0.6 M6.8 3.85 L6.65 4.2 6.35 4.55 5.05 4.45 4.25 4.25 Q4.4 3.45 4.65 3.5 L5.9 3.65 6.8 3.85 M3.5 6.9 L3.6 6.8 3.75 6.4 4.0 6.35 5.05 6.55 5.85 6.75 5.65 7.05 5.3 7.35 4.4 7.1 3.5 6.9" fill="#61a77c" fill-rule="evenodd" stroke="none"/>
    <path d="M20.95 9.95 L17.9 9.5 18.85 6.9 20.0 6.9 21.5 6.75 22.1 6.6 21.95 7.35 20.8 7.15 Q19.6 7.55 20.15 8.45 L20.2 8.5 21.5 8.85 20.95 9.95 M9.9 8.6 L8.3 8.55 3.7 8.4 4.35 7.45 5.7 7.7 Q6.5 7.4 6.5 6.8 L6.35 6.5 4.95 6.2 5.4 4.9 6.8 5.25 6.75 5.2 8.65 5.65 11.0 6.1 Q10.65 7.45 9.9 8.6" fill="#203e28" fill-rule="evenodd" stroke="none"/>
    <path d="M12.5 0.55 L12.75 0.6 13.25 0.7 19.0 1.45 19.2 3.35 17.1 3.0 12.75 2.55 12.5 0.55" fill="#61715b" fill-rule="evenodd" stroke="none"/>
    <path d="M12.75 2.55 L17.1 3.0 19.2 3.35 Q19.3 5.25 18.85 6.9 L17.85 6.9 15.55 6.8 13.4 6.55 12.35 6.35 Q12.85 4.6 12.75 2.55" fill="#435141" fill-rule="evenodd" stroke="none"/>
    <path d="M11.2 0.35 Q11.8 0.95 12.5 0.55 L12.75 2.55 12.1 2.5 11.45 2.45 11.2 0.35" fill="#424a3e" fill-rule="evenodd" stroke="none"/>
    <path d="M11.0 6.1 Q11.5 4.4 11.45 2.45 L12.1 2.5 12.75 2.55 Q12.85 4.6 12.35 6.35 L11.85 6.3 11.0 6.1" fill="#31382e" fill-rule="evenodd" stroke="none"/>
    <path d="M17.9 9.5 L12.25 8.8 11.25 8.75 12.35 6.35 13.4 6.55 15.55 6.8 17.85 6.9 18.85 6.9 17.9 9.5" fill="#2d332b" fill-rule="evenodd" stroke="none"/>
    <path d="M11.25 8.75 Q10.75 8.15 9.9 8.6 10.65 7.45 11.0 6.1 L11.85 6.3 12.35 6.35 11.25 8.75" fill="#21251f" fill-rule="evenodd" stroke="none"/>
    <path d="M0.3 5.95 L0.25 4.45 Q0.35 3.65 1.0 1.3 1.5 -0.65 2.15 -0.25 2.75 3.35 1.15 6.15 L0.95 6.55 0.55 6.6 0.3 5.95" fill="#1b3225" fill-rule="evenodd" stroke="none"/>
  </g>
</svg>
