<?xml version="1.0" encoding="UTF-8" standalone="no"?>
<svg xmlns:xlink="http://www.w3.org/1999/xlink" height="15.7px" width="7.85px" xmlns="http://www.w3.org/2000/svg">
  <g transform="matrix(1.0, 0.0, 0.0, 1.0, 0.0, 0.1)">
    <path d="M3.7 15.1 Q1.6 15.1 1.5 14.25 L1.5 13.0 1.55 13.0 Q1.6 12.7 2.2 12.4 L3.7 12.15 5.25 12.4 5.9 13.0 5.9 14.25 5.85 14.25 Q5.75 15.1 3.7 15.1" fill="#6cb340" fill-rule="evenodd" stroke="none"/>
    <path d="M3.7 15.1 Q1.6 15.1 1.5 14.25 L1.5 13.0 1.55 13.0 Q1.6 12.7 2.2 12.4 L3.7 12.15 5.25 12.4 5.9 13.0 5.9 14.25 5.85 14.25 Q5.75 15.1 3.7 15.1 Z" fill="none" stroke="#2c4320" stroke-linecap="round" stroke-linejoin="round" stroke-width="1.0"/>
    <path d="M5.9 14.45 L1.5 14.45 1.5 13.2 5.9 13.2 5.9 14.45" fill="#538a31" fill-rule="evenodd" stroke="none"/>
    <path d="M5.85 14.35 Q5.85 15.3 3.7 15.3 1.5 15.3 1.5 14.35 1.5 14.05 2.15 13.7 L3.7 13.45 5.25 13.7 Q5.85 14.05 5.85 14.35" fill="#538a31" fill-rule="evenodd" stroke="none"/>
    <path d="M5.9 13.3 Q5.9 14.25 3.7 14.25 L2.2 13.95 Q1.5 13.7 1.5 13.3 1.5 12.95 2.2 12.6 L3.7 12.35 5.25 12.6 5.9 13.3" fill="#6cb340" fill-rule="evenodd" stroke="none"/>
    <path d="M4.7 0.75 Q3.55 0.15 2.0 1.35 0.4 2.65 0.75 4.2 L1.15 4.75 1.95 4.0 Q2.9 3.25 4.6 3.15 6.35 3.05 7.25 3.7 8.1 4.3 7.7 5.45 7.15 6.9 4.6 6.7 2.7 6.4 1.35 5.65 0.85 6.5 0.75 7.3 0.75 8.1 1.15 8.7 1.7 7.95 2.9 7.55 L4.85 7.45 Q6.15 7.7 6.6 8.6 7.15 9.65 6.1 10.4 5.15 11.1 3.7 11.0 2.2 10.95 1.25 10.0 1.05 10.7 1.75 11.55 2.4 12.4 3.1 12.55 L3.95 12.8 Q4.1 12.9 3.85 13.3 L3.7 13.35 Q2.3 13.05 1.15 11.7 0.4 10.75 0.65 9.6 L0.75 9.4 Q0.05 8.45 0.05 7.3 0.2 6.2 0.75 5.35 L0.05 4.3 Q-0.3 2.2 1.6 0.85 3.45 -0.6 5.0 0.15 L5.15 0.55 Q5.0 0.85 4.7 0.75 M1.75 5.15 Q2.95 5.8 4.65 6.0 6.75 6.15 7.1 5.2 7.3 4.65 6.8 4.25 6.1 3.7 4.6 3.8 3.15 3.9 2.35 4.5 L1.75 5.15 M6.0 8.9 Q5.65 8.3 4.65 8.1 L3.1 8.2 Q2.0 8.6 1.55 9.35 L1.75 9.55 Q2.55 10.25 3.85 10.35 5.0 10.35 5.65 9.85 6.2 9.45 6.0 8.9" fill="#2b662a" fill-rule="evenodd" stroke="none"/>
  </g>
</svg>
