<?xml version="1.0" encoding="UTF-8" standalone="no"?>
<svg xmlns:xlink="http://www.w3.org/1999/xlink" height="27.85px" width="29.1px" xmlns="http://www.w3.org/2000/svg">
  <g transform="matrix(1.0, 0.0, 0.0, 1.0, 0.5, -0.65)">
    <path d="M22.7 9.45 L26.0 10.1 26.9 10.45 Q27.25 10.55 27.2 10.8 L23.05 15.1 Q26.25 17.0 28.1 18.4 L22.9 21.0 24.55 25.05 20.15 24.75 19.35 24.85 20.95 28.0 15.15 27.7 14.85 27.65 14.5 27.7 9.8 27.7 6.5 27.0 4.7 26.05 4.05 25.1 Q3.6 23.75 3.3 21.7 L3.3 21.5 2.95 21.4 Q1.95 20.9 0.95 19.45 -0.15 17.85 0.0 16.75 -0.1 16.1 0.5 16.25 L2.25 16.9 Q3.8 17.5 4.85 18.3 L5.0 18.15 Q7.05 16.75 7.5 15.5 L7.8 14.05 Q8.25 12.1 9.25 10.7 L9.55 10.35 Q9.8 10.15 10.1 10.0 L10.55 9.8 10.7 9.75 14.35 1.15 16.25 5.1 16.2 5.05 Q15.8 4.45 16.05 5.0 L16.4 5.35 16.7 5.75 Q16.85 5.65 17.1 5.5 17.2 5.35 17.45 5.3 L22.5 1.7 22.25 9.0 Q22.25 9.35 22.7 9.45 Z" fill="none" stroke="#583b18" stroke-linecap="round" stroke-linejoin="round" stroke-width="1.0"/>
    <path d="M21.25 3.25 Q20.75 3.25 20.75 3.8 20.75 4.35 21.25 4.35 21.8 4.35 21.8 3.8 21.8 3.25 21.25 3.25 M22.95 9.5 L26.0 10.1 26.9 10.45 Q27.25 10.55 27.2 10.8 L23.05 15.1 Q26.25 17.0 28.1 18.4 L22.9 21.0 24.55 25.05 20.15 24.75 19.35 24.85 20.95 28.0 15.15 27.7 14.85 27.65 14.6 27.6 15.15 27.2 Q17.9 25.05 18.95 21.3 20.05 17.55 18.8 14.65 L17.25 11.7 17.45 9.15 Q17.4 7.05 16.8 5.9 L17.1 5.5 Q17.2 5.35 17.45 5.3 L22.35 1.8 21.7 9.3 22.95 9.5 M10.7 9.75 L14.35 1.0 14.35 0.9 14.65 1.75 14.7 1.95 15.75 4.95 15.4 5.25 14.0 7.35 12.75 9.6 12.1 9.5 10.7 9.75 M25.4 11.55 Q25.95 11.55 25.95 11.0 25.95 10.45 25.4 10.45 24.9 10.45 24.9 11.0 24.9 11.55 25.4 11.55 M26.05 17.65 Q25.55 17.65 25.55 18.2 25.55 18.75 26.05 18.75 26.6 18.75 26.6 18.2 26.6 17.65 26.05 17.65 M22.55 23.85 Q22.55 24.35 23.0 24.35 23.45 24.35 23.45 23.85 23.45 23.4 23.0 23.4 22.55 23.4 22.55 23.85 M14.3 2.35 Q13.8 2.35 13.8 2.9 13.8 3.45 14.3 3.45 14.85 3.45 14.85 2.9 14.85 2.35 14.3 2.35 M19.95 27.3 Q19.95 26.95 19.6 26.95 19.25 26.95 19.25 27.3 19.25 27.65 19.6 27.65 L19.95 27.3" fill="url(#gradient0)" fill-rule="evenodd" stroke="none"/>
    <path d="M21.25 3.25 Q21.8 3.25 21.8 3.8 21.8 4.35 21.25 4.35 20.75 4.35 20.75 3.8 20.75 3.25 21.25 3.25 M25.4 11.55 Q24.9 11.55 24.9 11.0 24.9 10.45 25.4 10.45 25.95 10.45 25.95 11.0 25.95 11.55 25.4 11.55 M14.3 2.35 Q14.85 2.35 14.85 2.9 14.85 3.45 14.3 3.45 13.8 3.45 13.8 2.9 13.8 2.35 14.3 2.35" fill="#fff5db" fill-rule="evenodd" stroke="none"/>
    <path d="M22.35 1.8 L22.5 1.7 22.25 9.0 Q22.25 9.35 22.7 9.45 L22.95 9.5 21.7 9.3 22.35 1.8 M15.3 3.15 L16.25 5.1 16.2 5.05 16.15 5.0 16.15 4.95 15.95 4.75 16.0 4.8 16.05 5.0 15.75 4.95 14.7 1.95 15.3 3.15 M16.8 5.9 L16.7 5.75 17.1 5.5 16.8 5.9" fill="#ffdc85" fill-rule="evenodd" stroke="none"/>
    <path d="M26.05 17.65 Q26.6 17.65 26.6 18.2 26.6 18.75 26.05 18.75 25.55 18.75 25.55 18.2 25.55 17.65 26.05 17.65" fill="#f3da9a" fill-rule="evenodd" stroke="none"/>
    <path d="M22.55 23.85 Q22.55 23.4 23.0 23.4 23.45 23.4 23.45 23.85 23.45 24.35 23.0 24.35 22.55 24.35 22.55 23.85" fill="#eccb75" fill-rule="evenodd" stroke="none"/>
    <path d="M11.5 27.8 L9.8 27.7 6.5 27.0 4.7 26.05 4.05 25.1 Q3.6 23.75 3.3 21.7 L3.3 21.5 2.95 21.4 Q1.95 20.9 0.95 19.45 -0.15 17.85 0.0 16.75 -0.1 16.1 0.5 16.25 L2.25 16.9 Q3.8 17.5 4.85 18.3 L5.0 18.15 Q7.05 16.75 7.5 15.5 L7.8 14.05 Q8.25 12.1 9.25 10.7 L9.55 10.35 Q9.8 10.15 10.1 10.0 L10.55 10.0 12.5 10.2 12.0 11.6 Q11.75 12.6 13.9 13.25 16.1 13.95 16.75 12.95 17.8 14.3 18.1 15.45 18.45 16.95 18.15 19.15 17.85 21.3 15.6 24.35 13.9 26.6 11.7 27.7 L11.5 27.8 M14.65 1.75 L15.3 3.15 14.7 1.95 14.65 1.75 M9.8 13.65 L9.0 13.9 Q8.55 14.1 8.35 14.6 L8.4 14.85 Q9.35 14.3 11.2 14.1 L13.65 14.1 13.15 13.8 11.1 13.6 10.05 13.6 9.8 13.65 M5.75 23.6 L5.7 23.45 5.8 24.0 6.3 23.9 6.65 23.45 Q6.8 23.2 6.55 23.1 6.25 23.0 5.75 23.6 M8.55 16.0 L7.0 17.7 Q6.6 19.6 8.65 19.75 L10.7 19.6 Q13.2 18.7 13.25 17.2 L12.8 15.95 Q10.45 14.6 8.55 16.0 M9.4 25.7 L13.55 24.65 13.5 24.5 12.65 24.5 9.4 25.7 6.55 26.05 4.7 26.05 6.55 26.05 9.4 25.7 12.65 24.5 13.5 24.5 13.55 24.65 9.4 25.7" fill="#ffb600" fill-rule="evenodd" stroke="none"/>
    <path d="M14.85 27.65 L14.5 27.7 11.5 27.8 11.7 27.7 Q13.9 26.6 15.6 24.35 17.85 21.3 18.15 19.15 18.45 16.95 18.1 15.45 17.8 14.3 16.75 12.95 L16.75 12.9 17.25 11.7 18.8 14.65 Q20.05 17.55 18.95 21.3 17.9 25.05 15.15 27.2 L14.6 27.6 14.85 27.65 M10.1 10.0 L10.55 9.8 10.7 9.75 12.1 9.5 12.75 9.6 12.5 10.2 10.55 10.0 10.1 10.0" fill="#c48930" fill-rule="evenodd" stroke="none"/>
    <path d="M9.8 13.65 L10.05 13.6 11.1 13.6 13.15 13.8 13.65 14.1 11.2 14.1 Q9.35 14.3 8.4 14.85 L8.35 14.6 Q8.55 14.1 9.0 13.9 L9.8 13.65" fill="#ffe680" fill-rule="evenodd" stroke="none"/>
    <path d="M9.5 16.4 Q8.55 16.6 7.95 17.2 7.35 17.7 7.55 18.35 7.6 19.05 8.45 19.3 L10.15 19.35 Q11.1 19.15 11.7 18.65 12.25 18.05 12.15 17.4 12.05 16.75 11.2 16.45 L9.5 16.4 M8.55 16.0 Q10.45 14.6 12.8 15.95 L13.25 17.2 Q13.2 18.7 10.7 19.6 L8.65 19.75 Q6.6 19.6 7.0 17.7 L8.55 16.0 M5.75 23.6 Q6.25 23.0 6.55 23.1 6.8 23.2 6.65 23.45 L6.3 23.9 5.8 24.0 5.7 23.45 5.75 23.6" fill="#b45a13" fill-rule="evenodd" stroke="none"/>
    <path d="M9.75 17.65 Q8.95 17.35 8.65 18.05 8.35 18.75 9.15 19.05 9.9 19.35 10.2 18.65 10.5 17.95 9.75 17.65 M9.5 16.4 L11.2 16.45 Q12.05 16.75 12.15 17.4 12.25 18.05 11.7 18.65 11.1 19.15 10.15 19.35 L8.45 19.3 Q7.6 19.05 7.55 18.35 7.35 17.7 7.95 17.2 8.55 16.6 9.5 16.4" fill="#ffffff" fill-rule="evenodd" stroke="none"/>
    <path d="M9.75 17.65 Q10.5 17.95 10.2 18.65 9.9 19.35 9.15 19.05 8.35 18.75 8.65 18.05 8.95 17.35 9.75 17.65" fill="#723c3c" fill-rule="evenodd" stroke="none"/>
    <path d="M19.95 27.3 L19.6 27.65 Q19.25 27.65 19.25 27.3 19.25 26.95 19.6 26.95 19.95 26.95 19.95 27.3" fill="#c4a861" fill-rule="evenodd" stroke="none"/>
    <path d="M28.1 18.4 L22.9 21.0 24.55 25.05 20.15 24.75 M4.7 26.05 L6.55 26.05 9.4 25.7 12.65 24.5 13.5 24.5 13.55 24.65 9.4 25.7" fill="none" stroke="#c8922f" stroke-linecap="round" stroke-linejoin="round" stroke-width="0.05"/>
    <path d="M16.4 5.35 L16.7 5.75 16.8 5.9 Q17.4 7.05 17.45 9.15 L17.25 11.7 16.75 12.9 16.75 12.95 Q16.1 13.95 13.9 13.25 11.75 12.6 12.0 11.6 L12.5 10.2 12.75 9.6 14.0 7.35 15.4 5.25 15.75 4.95 16.05 5.0 16.4 5.35 M15.85 5.5 L15.25 6.6 15.8 6.95 16.45 7.25 Q16.45 7.65 15.7 7.7 L14.85 7.75 14.4 9.15 15.15 9.3 Q15.85 9.4 15.7 9.85 15.55 10.4 14.75 10.45 L13.95 10.55 Q13.35 12.7 13.85 12.85 L14.9 13.05 16.35 12.8 17.05 10.05 Q17.3 7.8 16.7 6.3 L16.5 5.75 16.4 5.75 16.15 5.4 15.85 5.5" fill="#ece9c7" fill-rule="evenodd" stroke="none"/>
    <path d="M15.85 5.5 L16.15 5.4 16.4 5.75 16.5 5.75 16.7 6.3 Q17.3 7.8 17.05 10.05 L16.35 12.8 14.9 13.05 13.85 12.85 Q13.35 12.7 13.95 10.55 L14.75 10.45 Q15.55 10.4 15.7 9.85 15.85 9.4 15.15 9.3 L14.4 9.15 14.85 7.75 15.7 7.7 Q16.45 7.65 16.45 7.25 L15.8 6.95 15.25 6.6 15.85 5.5" fill="#ffffff" fill-rule="evenodd" stroke="none"/>
    <path d="M1.1 16.95 L0.25 16.65 0.05 16.7 0.05 17.0 0.0 17.05 0.1 17.45 Q0.45 18.55 1.5 19.75 L3.1 21.05 4.0 20.6 4.55 20.05 Q4.75 19.7 3.5 18.7 L3.0 19.0 2.2 19.05 Q1.9 18.9 2.25 18.55 L2.65 18.1 1.8 17.5 1.3 17.8 0.65 17.9 0.95 17.45 1.1 16.95 M0.1 16.25 L0.45 16.3 2.15 16.9 3.8 17.65 4.2 17.9 5.1 18.5 Q5.65 19.0 4.7 20.3 3.65 21.65 2.9 21.3 L2.9 21.25 Q2.45 21.1 2.1 20.8 L0.9 19.4 Q0.0 18.2 -0.1 17.25 L-0.15 17.15 -0.1 16.75 -0.05 16.4 0.1 16.25" fill="#ece9c7" fill-rule="evenodd" stroke="none"/>
    <path d="M1.1 16.95 L0.95 17.45 0.65 17.9 1.3 17.8 1.8 17.5 2.65 18.1 2.25 18.55 Q1.9 18.9 2.2 19.05 L3.0 19.0 3.5 18.7 Q4.75 19.7 4.55 20.05 L4.0 20.6 3.1 21.05 1.5 19.75 Q0.45 18.55 0.1 17.45 L0.0 17.05 0.05 17.0 0.05 16.7 0.25 16.65 1.1 16.95" fill="#ffffff" fill-rule="evenodd" stroke="none"/>
  </g>
  <defs>
    <linearGradient gradientTransform="matrix(-1.0E-4, -0.0166, 0.0104, 0.0, 19.85, 13.65)" gradientUnits="userSpaceOnUse" id="gradient0" spreadMethod="pad" x1="-819.2" x2="819.2">
      <stop offset="0.0" stop-color="#643022"/>
      <stop offset="1.0" stop-color="#fab632"/>
    </linearGradient>
  </defs>
</svg>
