<?xml version="1.0" encoding="UTF-8" standalone="no"?>
<svg xmlns:xlink="http://www.w3.org/1999/xlink" height="19.55px" width="25.65px" xmlns="http://www.w3.org/2000/svg">
  <g transform="matrix(1.0, 0.0, 0.0, 1.0, -280.3, -261.9)">
    <path d="M280.8 270.5 L281.0 268.95 281.2 268.1 281.7 267.2 Q282.75 265.8 284.05 265.15 285.35 264.4 286.7 263.85 L289.35 262.95 290.25 262.95 290.05 263.45 Q290.85 262.5 291.95 262.5 L292.25 262.5 292.95 262.4 301.15 262.4 301.9 262.5 302.2 262.5 Q303.45 262.5 304.5 263.85 305.45 265.2 305.45 267.15 L305.45 276.3 Q305.45 278.2 304.5 279.6 303.45 280.95 302.2 280.95 L291.95 280.95 290.85 280.75 289.0 280.25 286.8 279.55 Q284.95 278.75 284.2 278.05 282.35 276.2 281.45 273.75 L281.1 272.8 281.0 272.15 280.8 270.75 280.8 270.65 280.8 270.5" fill="#e83c25" fill-rule="evenodd" stroke="none"/>
    <path d="M280.8 270.5 L281.0 268.95 281.2 268.1 281.7 267.2 Q282.75 265.8 284.05 265.15 285.35 264.4 286.7 263.85 L289.35 262.95 290.25 262.95 290.05 263.45 Q290.85 262.5 291.95 262.5 L292.25 262.5 292.95 262.4 301.15 262.4 301.9 262.5 302.2 262.5 Q303.45 262.5 304.5 263.85 305.45 265.2 305.45 267.15 L305.45 276.3 Q305.45 278.2 304.5 279.6 303.45 280.95 302.2 280.95 L291.95 280.95 290.85 280.75 289.0 280.25 286.8 279.55 Q284.95 278.75 284.2 278.05 282.35 276.2 281.45 273.75 L281.1 272.8 281.0 272.15 280.8 270.75 280.8 270.65 280.8 270.5 Z" fill="none" stroke="#541f1c" stroke-linecap="round" stroke-linejoin="round" stroke-width="1.0"/>
  </g>
</svg>
