<?xml version="1.0" encoding="UTF-8" standalone="no"?>
<svg xmlns:xlink="http://www.w3.org/1999/xlink" height="67.2px" width="58.5px" xmlns="http://www.w3.org/2000/svg">
  <g transform="matrix(1.0, 0.0, 0.0, 1.0, -2.2, 9.8)">
    <path d="M55.5 -1.8 L55.15 -2.05 49.95 -5.6 48.05 -6.8 32.7 16.6 31.55 17.55 Q30.5 18.7 30.05 19.9 L22.0 28.75 22.0 28.7 16.6 30.05 16.2 30.15 16.25 30.3 Q11.7 30.8 8.5 34.15 5.05 37.75 5.2 42.7 5.45 47.75 9.0 51.15 12.6 54.6 17.55 54.4 22.55 54.25 26.0 50.7 29.45 47.0 29.2 42.05 L29.4 42.05 30.1 39.55 31.05 36.1 31.0 36.1 37.8 28.55 38.0 28.5 Q39.8 28.1 41.1 26.65 42.6 25.15 42.85 23.3 L42.9 22.15 55.5 2.9 57.7 -0.45 55.5 -1.8 Z" fill="none" stroke="#4c0e62" stroke-linecap="round" stroke-linejoin="round" stroke-width="6.0"/>
    <path d="M39.7 22.0 L41.9 23.95 25.25 42.2 23.0 39.95 39.7 22.0" fill="#e6e6e6" fill-rule="evenodd" stroke="none"/>
    <path d="M18.2 36.45 L35.15 17.5 39.7 22.0 23.0 39.95 18.2 36.45" fill="#c8c8c8" fill-rule="evenodd" stroke="none"/>
    <path d="M16.3 34.9 L33.5 15.95 35.15 17.5 18.2 36.45 16.3 34.9" fill="#a2a2a2" fill-rule="evenodd" stroke="none"/>
    <path d="M16.3 34.9 L18.2 36.45 M25.25 42.2 L23.0 39.95 18.2 36.45" fill="none" stroke="#283757" stroke-linecap="round" stroke-linejoin="round" stroke-opacity="0.49803922" stroke-width="0.1"/>
    <path d="M49.9 -5.65 L33.4 19.95 31.2 18.75 48.0 -6.85 49.9 -5.65" fill="#a2a2a2" fill-rule="evenodd" stroke="none"/>
    <path d="M55.1 -2.1 L38.75 22.6 33.4 19.95 49.9 -5.65 55.1 -2.1" fill="#c8c8c8" fill-rule="evenodd" stroke="none"/>
    <path d="M55.1 -2.1 L57.65 -0.5 41.25 24.45 38.75 22.6 55.1 -2.1" fill="#e6e6e6" fill-rule="evenodd" stroke="none"/>
    <path d="M38.75 22.6 L41.25 24.45 M33.4 19.95 L38.75 22.6 M31.2 18.75 L33.4 19.95" fill="none" stroke="#283757" stroke-linecap="round" stroke-linejoin="round" stroke-opacity="0.49803922" stroke-width="0.1"/>
    <path d="M42.8 21.85 L42.8 23.25 Q42.55 25.1 41.1 26.6 39.75 28.05 37.95 28.45 L36.45 28.7 34.3 28.3 Q32.9 27.95 31.75 26.9 30.15 25.35 29.75 23.25 L29.65 22.3 Q29.6 21.15 29.9 20.2 30.35 18.75 31.5 17.5 32.6 16.45 33.85 15.85 L36.1 15.45 37.6 15.6 Q39.35 15.95 40.85 17.25 42.45 18.75 42.75 20.8 L42.8 21.85" fill="#b7b7b7" fill-rule="evenodd" stroke="none"/>
    <path d="M41.45 22.9 Q41.4 20.7 39.85 19.15 38.2 17.6 36.0 17.65 33.8 17.7 32.35 19.25 30.75 20.8 30.8 23.0 30.8 25.2 32.45 26.8 33.95 28.35 36.15 28.3 38.35 28.25 39.95 26.7 41.45 25.1 41.45 22.9" fill="#dae3e9" fill-rule="evenodd" stroke="none"/>
    <path d="M38.7 26.0 Q39.45 26.0 39.95 25.5 40.45 24.9 40.45 24.15 40.45 23.4 39.95 22.9 39.4 22.35 38.65 22.35 37.9 22.35 37.35 22.9 36.8 23.45 36.8 24.2 36.8 24.95 37.35 25.5 37.95 26.0 38.7 26.0" fill="#ffffff" fill-rule="evenodd" stroke="none"/>
    <path d="M16.85 30.3 L19.1 30.45 Q20.65 30.7 22.1 31.4 23.9 32.15 25.45 33.65 26.85 34.95 27.8 36.6 L28.8 39.15 29.15 42.0 Q29.4 47.0 25.95 50.7 22.5 54.25 17.5 54.4 12.55 54.6 8.95 51.15 5.4 47.75 5.15 42.7 5.0 37.75 8.45 34.15 11.85 30.55 16.85 30.3" fill="#b149d7" fill-rule="evenodd" stroke="none"/>
    <path d="M16.6 51.25 Q20.35 51.2 23.0 48.6 25.5 45.85 25.45 42.1 25.4 38.4 22.8 35.85 20.1 33.15 16.35 33.2 12.6 33.25 10.0 36.0 7.35 38.65 7.4 42.35 7.45 46.1 10.2 48.75 12.85 51.3 16.6 51.25" fill="#cf72f0" fill-rule="evenodd" stroke="none"/>
    <path d="M12.35 42.45 Q14.0 42.4 15.2 41.2 16.4 40.0 16.35 38.35 16.35 36.65 15.15 35.5 13.9 34.3 12.25 34.35 10.55 34.35 9.45 35.6 8.25 36.75 8.25 38.45 8.3 40.1 9.5 41.3 10.65 42.45 12.35 42.45" fill="#ffffff" fill-opacity="0.49803922" fill-rule="evenodd" stroke="none"/>
    <path d="M23.0 30.9 L20.8 31.4 18.5 32.25 Q17.55 32.75 16.9 33.2 16.35 31.75 16.15 30.1 L16.55 30.0 21.95 28.65 Q22.05 29.6 23.0 30.9" fill="#a2a2a2" fill-rule="evenodd" stroke="none"/>
    <path d="M16.9 33.2 Q17.55 32.75 18.5 32.25 L20.8 31.4 23.0 30.9 Q24.35 31.45 26.1 32.95 L28.9 35.6 28.95 35.7 Q29.1 36.55 28.7 38.05 L28.4 38.85 27.6 41.0 27.1 41.85 Q23.75 41.3 20.6 38.3 18.05 35.9 16.9 33.2" fill="#c8c8c8" fill-rule="evenodd" stroke="none"/>
    <path d="M27.1 41.85 L27.6 41.0 28.4 38.85 28.7 38.05 Q29.1 36.55 28.95 35.7 L28.9 35.6 31.05 36.05 30.05 39.5 29.35 42.0 27.1 41.85" fill="#e6e6e6" fill-rule="evenodd" stroke="none"/>
  </g>
</svg>
