<?xml version="1.0" encoding="UTF-8" standalone="no"?>
<svg xmlns:xlink="http://www.w3.org/1999/xlink" height="93.1px" width="100.8px" xmlns="http://www.w3.org/2000/svg">
  <g transform="matrix(1.0, 0.0, 0.0, 1.0, 6.1, 3.15)">
    <path d="M83.65 61.2 L84.0 61.9 Q84.0 62.6 84.7 62.95 85.05 63.65 85.75 64.35 86.8 66.05 88.2 67.45 L89.25 68.15 90.65 70.25 Q91.0 70.25 91.35 70.6 L91.7 70.6 91.7 70.95 Q89.95 73.7 87.85 75.8 L82.3 79.65 Q81.6 79.65 81.25 80.0 L78.45 81.35 Q74.6 82.75 68.35 83.8 68.7 84.5 65.9 85.2 L49.85 86.95 46.75 86.95 41.15 86.95 38.35 86.95 35.6 86.95 Q27.2 86.25 18.5 83.45 L16.75 83.1 Q13.65 82.05 10.85 80.7 9.8 80.35 9.1 79.65 7.0 78.95 5.25 77.55 -0.3 74.75 -3.1 70.95 L-2.75 70.6 -2.05 69.9 -0.65 68.15 Q-0.3 68.15 0.05 67.45 0.75 66.4 1.45 66.05 2.15 64.7 3.2 64.0 L3.55 62.95 3.9 62.95 3.9 62.6 5.6 60.15 6.3 59.1 Q7.0 58.4 7.35 57.35 8.05 55.65 9.1 53.9 9.45 52.85 10.15 51.45 L10.85 49.35 Q10.85 49.0 11.2 48.65 L12.6 44.5 13.3 40.0 14.35 34.4 14.35 33.7 Q14.7 30.6 14.7 24.65 12.25 20.85 10.5 17.0 L14.35 12.85 20.95 7.95 25.15 4.85 Q34.2 -0.75 45.35 -0.05 55.8 0.3 61.35 4.5 L68.7 9.7 72.85 12.85 77.4 17.0 76.35 19.45 74.6 21.2 72.85 24.65 Q72.85 29.9 73.2 33.35 73.2 34.4 73.55 35.45 L74.6 40.0 Q74.6 42.05 75.65 45.9 76.35 46.6 77.05 49.35 L77.4 50.75 78.8 53.2 80.2 55.65 Q80.9 57.35 81.95 58.75 82.65 60.15 83.65 61.2" fill="#9364bf" fill-rule="evenodd" stroke="none"/>
    <path d="M83.65 61.2 L84.0 61.9 Q84.0 62.6 84.7 62.95 85.05 63.65 85.75 64.35 86.8 66.05 88.2 67.45 L89.25 68.15 90.65 70.25 Q91.0 70.25 91.35 70.6 L91.7 70.6 91.7 70.95 Q89.95 73.7 87.85 75.8 L82.3 79.65 Q81.6 79.65 81.25 80.0 L78.45 81.35 Q74.6 82.75 68.35 83.8 68.7 84.5 65.9 85.2 L49.85 86.95 46.75 86.95 41.15 86.95 38.35 86.95 35.6 86.95 Q27.2 86.25 18.5 83.45 L16.75 83.1 Q13.65 82.05 10.85 80.7 9.8 80.35 9.1 79.65 7.0 78.95 5.25 77.55 -0.3 74.75 -3.1 70.95 L-2.75 70.6 -2.05 69.9 -0.65 68.15 Q-0.3 68.15 0.05 67.45 0.75 66.4 1.45 66.05 2.15 64.7 3.2 64.0 L3.55 62.95 3.9 62.95 3.9 62.6 5.6 60.15 6.3 59.1 Q7.0 58.4 7.35 57.35 8.05 55.65 9.1 53.9 9.45 52.85 10.15 51.45 L10.85 49.35 Q10.85 49.0 11.2 48.65 L12.6 44.5 13.3 40.0 14.35 34.4 14.35 33.7 Q14.7 30.6 14.7 24.65 12.25 20.85 10.5 17.0 L14.35 12.85 20.95 7.95 25.15 4.85 Q34.2 -0.75 45.35 -0.05 55.8 0.3 61.35 4.5 L68.7 9.7 72.85 12.85 77.4 17.0 76.35 19.45 74.6 21.2 72.85 24.65 Q72.85 29.9 73.2 33.35 73.2 34.4 73.55 35.45 L74.6 40.0 Q74.6 42.05 75.65 45.9 76.35 46.6 77.05 49.35 L77.4 50.75 78.8 53.2 80.2 55.65 Q80.9 57.35 81.95 58.75 82.65 60.15 83.65 61.2 Z" fill="none" stroke="#451066" stroke-linecap="round" stroke-linejoin="round" stroke-width="6.0"/>
    <path d="M82.3 59.15 Q83.0 60.55 84.0 61.6 L84.35 62.3 Q84.35 63.0 85.05 63.35 85.4 64.05 86.1 64.75 87.15 66.45 88.55 67.85 L89.6 68.55 91.0 70.65 Q91.35 70.65 91.7 71.0 L92.05 71.0 92.05 71.35 Q90.3 74.1 88.2 76.2 L82.65 80.05 Q74.95 73.4 70.8 64.05 76.35 61.95 82.3 59.15 M68.7 84.2 Q69.05 84.9 66.25 85.6 L50.2 87.35 Q48.15 77.95 47.45 68.2 L48.5 68.2 51.25 68.2 61.35 66.8 Q64.15 78.65 68.7 84.2 M35.95 87.35 Q27.55 86.65 18.85 84.2 23.05 75.15 24.45 65.1 L37.7 67.85 35.95 87.35 M5.6 78.3 Q0.05 75.15 -2.75 71.35 L-2.4 71.0 -1.7 70.3 -0.3 68.55 Q0.05 68.55 0.4 67.85 1.1 66.8 1.8 66.45 2.5 65.1 3.55 64.4 L3.9 63.35 4.25 63.35 4.25 63.0 5.95 60.55 6.65 59.5 Q7.35 58.8 7.7 57.75 11.9 60.2 16.4 61.95 11.55 73.4 5.6 78.3 M66.6 34.1 L68.35 41.4 Q58.25 53.6 45.7 59.15 L44.65 59.85 43.25 59.15 Q30.0 55.0 18.85 40.05 19.2 36.2 20.25 32.7 32.1 49.75 44.65 52.9 58.25 44.55 66.6 34.1" fill="#823cc3" fill-rule="evenodd" stroke="none"/>
    <path d="M82.65 80.05 Q81.95 80.05 81.25 80.4 80.55 81.1 78.8 81.75 71.8 74.45 68.0 64.75 L67.65 64.75 67.65 64.4 65.9 59.15 Q66.95 58.45 68.0 58.1 L70.1 63.35 70.8 64.05 Q74.95 73.4 82.65 80.05 M50.2 87.35 L47.1 87.35 45.7 68.55 47.1 68.2 47.45 68.2 Q48.15 77.95 50.2 87.35 M38.7 87.35 L35.95 87.35 37.7 67.85 39.75 68.2 38.7 87.35 M9.45 80.05 Q7.35 79.35 5.6 78.3 11.55 73.4 16.4 61.95 17.45 62.65 18.85 63.0 15.4 73.75 9.45 80.05" fill="#4d197e" fill-rule="evenodd" stroke="none"/>
    <path d="M15.05 25.05 Q12.6 21.25 10.85 17.4 L11.55 16.35 15.4 22.3 20.95 30.65 20.25 32.7 15.05 25.05 M77.05 16.7 L77.75 17.4 76.7 19.85 74.95 21.95 73.2 25.05 72.5 26.1 Q69.75 30.3 66.6 34.1 L65.9 32.05 72.5 23.7 77.05 16.7" fill="#ad82d4" fill-rule="evenodd" stroke="none"/>
    <path d="M11.55 16.35 L14.7 13.25 Q45.35 41.05 73.2 13.25 L77.05 16.7 72.5 23.7 65.9 32.05 Q57.55 42.1 44.65 49.75 32.45 46.65 20.95 30.65 L15.4 22.3 11.55 16.35" fill="#995ad7" fill-rule="evenodd" stroke="none"/>
    <path d="M14.7 13.25 L21.3 8.35 25.5 5.25 Q34.55 -0.35 45.7 0.35 56.15 0.7 61.7 4.9 L69.05 10.1 73.2 13.25 Q43.95 27.5 14.7 13.25" fill="#cbcbcb" fill-rule="evenodd" stroke="none"/>
    <path d="M14.7 34.1 Q15.05 31.0 15.05 25.05 L20.25 32.7 Q19.2 36.2 18.85 40.05 L14.7 34.1 M73.2 25.05 Q73.2 30.3 73.55 33.75 71.15 37.95 68.35 41.4 L66.6 34.1 Q69.75 30.3 72.5 26.1 L73.2 25.05" fill="#6927a6" fill-rule="evenodd" stroke="none"/>
    <path d="M11.55 49.05 L12.95 44.9 13.65 40.4 Q14.35 37.6 14.7 34.8 L14.7 34.1 18.85 40.05 Q18.15 44.9 18.15 50.8 L18.15 53.25 16.75 52.55 Q15.05 51.85 11.55 49.05 M73.55 33.75 Q73.55 34.8 73.9 35.85 L74.95 40.4 Q74.95 42.45 76.0 46.3 76.7 47.0 77.4 49.75 L77.75 51.15 70.8 55.0 Q69.4 49.05 68.35 41.4 71.15 37.95 73.55 33.75" fill="#b285db" fill-rule="evenodd" stroke="none"/>
    <path d="M65.9 32.05 L66.6 34.1 Q58.25 44.55 44.65 52.9 32.1 49.75 20.25 32.7 L20.95 30.65 Q32.45 46.65 44.65 49.75 57.55 42.1 65.9 32.05 M18.85 40.05 Q30.0 55.0 43.25 59.15 L40.8 59.15 38.35 59.15 Q31.75 58.1 25.15 56.05 22.35 55.35 20.6 54.3 L18.15 53.25 18.15 50.8 Q18.15 44.9 18.85 40.05 M45.7 59.15 Q58.25 53.6 68.35 41.4 69.4 49.05 70.8 55.0 L69.75 55.35 Q67.65 56.05 65.55 57.05 L58.25 58.45 50.2 59.15 45.7 59.15" fill="#cfa6f5" fill-rule="evenodd" stroke="none"/>
    <path d="M43.25 59.15 L44.65 59.85 45.7 59.15 50.2 59.15 58.25 58.45 65.55 57.05 Q67.65 56.05 69.75 55.35 L70.8 55.0 70.8 57.4 Q69.4 57.4 68.0 58.1 66.95 58.45 65.9 59.15 L63.8 59.5 60.0 60.9 Q53.7 62.3 47.45 62.3 L47.1 62.3 45.35 62.3 42.2 61.95 40.45 61.95 38.35 61.6 Q31.4 61.25 24.8 58.8 L23.4 58.1 Q22.35 57.4 20.95 57.4 20.6 57.4 20.6 57.05 19.2 56.75 18.5 56.05 18.15 54.3 18.15 53.25 L20.6 54.3 Q22.35 55.35 25.15 56.05 31.75 58.1 38.35 59.15 L40.8 59.15 43.25 59.15" fill="#a37bc9" fill-rule="evenodd" stroke="none"/>
    <path d="M20.6 57.05 Q20.6 57.4 20.95 57.4 22.35 57.4 23.4 58.1 L24.8 58.8 24.45 64.75 23.05 64.05 20.6 63.0 20.25 63.0 Q19.55 62.65 18.85 62.65 19.55 59.85 20.6 57.05 M40.45 61.95 L42.2 61.95 45.35 62.3 45.7 68.2 45.0 68.2 41.85 68.2 Q41.15 67.85 40.1 67.85 L39.75 67.85 40.45 61.95 M60.0 60.9 L63.8 59.5 65.9 59.15 67.65 64.4 67.65 64.75 66.95 65.1 63.8 65.75 Q62.4 66.1 61.35 66.8 L60.0 60.9" fill="#aaa9aa" fill-rule="evenodd" stroke="none"/>
    <path d="M78.8 81.75 Q74.95 83.15 68.7 84.2 64.15 78.65 61.35 66.8 62.4 66.1 63.8 65.75 L66.95 65.1 67.65 64.75 68.0 64.75 Q71.8 74.45 78.8 81.75 M47.1 87.35 L41.5 87.35 38.7 87.35 39.75 68.2 39.75 67.85 40.1 67.85 Q41.15 67.85 41.85 68.2 L45.0 68.2 45.7 68.2 45.7 68.55 47.1 87.35 M18.85 84.2 L17.1 83.5 Q14.0 82.45 11.2 81.1 10.15 80.75 9.45 80.05 15.4 73.75 18.85 63.0 L18.85 62.65 Q19.55 62.65 20.25 63.0 L20.6 63.0 23.05 64.05 24.45 64.75 24.45 65.1 Q23.05 75.15 18.85 84.2" fill="#e5e1e1" fill-rule="evenodd" stroke="none"/>
    <path d="M7.7 57.75 Q8.4 56.05 9.45 54.3 L10.5 51.85 Q14.35 54.3 18.5 56.05 17.45 58.8 16.75 61.25 16.4 61.6 16.4 61.95 11.9 60.2 7.7 57.75 M79.15 53.6 L80.55 56.05 Q81.25 57.75 82.3 59.15 76.35 61.95 70.8 64.05 L70.1 63.35 68.0 58.1 Q69.4 57.4 70.8 57.4 L79.15 53.6 M24.8 58.8 Q31.4 61.25 38.35 61.6 L37.7 67.85 24.45 65.1 24.45 64.75 24.8 58.8 M47.45 62.3 Q53.7 62.3 60.0 60.9 L61.35 66.8 51.25 68.2 48.5 68.2 47.45 68.2 47.45 62.3" fill="#6627a1" fill-rule="evenodd" stroke="none"/>
    <path d="M38.35 61.6 L40.45 61.95 39.75 67.85 39.75 68.2 37.7 67.85 38.35 61.6 M45.35 62.3 L47.1 62.3 47.45 62.3 47.45 68.2 47.1 68.2 45.7 68.55 45.7 68.2 45.35 62.3 M18.5 56.05 Q19.2 56.75 20.6 57.05 19.55 59.85 18.85 62.65 L18.85 63.0 Q17.45 62.65 16.4 61.95 16.4 61.6 16.75 61.25 17.45 58.8 18.5 56.05" fill="#3b0f64" fill-rule="evenodd" stroke="none"/>
    <path d="M10.5 51.85 L11.2 49.75 Q11.2 49.4 11.55 49.05 15.05 51.85 16.75 52.55 L18.15 53.25 Q18.15 54.3 18.5 56.05 14.35 54.3 10.5 51.85 M77.75 51.15 L79.15 53.6 70.8 57.4 70.8 55.0 77.75 51.15" fill="#7847a6" fill-rule="evenodd" stroke="none"/>
    <path d="M14.7 13.25 Q43.95 27.5 73.2 13.25 45.35 41.05 14.7 13.25" fill="#e9e5e5" fill-rule="evenodd" stroke="none"/>
    <path d="M46.05 28.55 L46.05 27.15 45.7 26.1 Q45.35 25.4 45.35 25.05 45.35 24.35 46.4 23.7 L47.8 23.7 Q48.85 23.7 49.2 24.05 50.2 24.7 50.2 25.4 50.2 26.1 49.2 26.8 L48.5 27.5 48.5 27.85 46.05 28.55 M39.4 27.85 L39.4 26.8 37.7 26.45 Q37.35 26.1 37.35 25.4 37.35 24.35 38.05 23.7 38.7 23.0 39.75 23.0 41.15 23.0 41.85 23.7 42.9 24.05 42.9 25.05 42.9 25.75 41.85 26.1 L41.15 26.8 41.15 28.55 39.4 27.85" fill="#3d0e56" fill-rule="evenodd" stroke="none"/>
    <path d="M48.5 27.85 Q48.5 29.25 48.85 31.0 48.85 33.4 49.5 33.75 L53.0 29.95 Q53.0 29.25 52.65 28.9 L52.65 27.85 Q52.65 27.15 53.0 26.45 53.7 26.1 54.4 26.1 55.1 26.1 55.8 27.15 56.5 27.85 56.5 28.55 56.5 29.25 56.15 29.6 L54.4 30.65 54.05 31.35 53.35 33.05 52.65 35.5 Q51.6 37.6 51.25 38.65 L50.55 38.65 48.5 38.65 46.4 38.65 Q45.7 38.3 42.9 38.65 L35.6 38.65 32.1 30.65 30.35 29.6 Q30.0 29.25 30.0 28.55 30.0 25.75 32.45 25.75 L32.8 25.75 Q33.5 26.1 33.85 26.45 L34.2 26.8 Q34.9 27.5 34.9 28.2 L34.2 29.25 33.85 29.6 Q33.85 30.3 35.95 31.7 L38.05 33.4 39.4 27.85 41.15 28.55 42.2 29.6 Q42.9 31.0 43.6 33.4 L43.95 33.4 Q45.0 32.35 45.35 29.6 L46.05 28.55 48.5 27.85 M47.1 39.7 L50.9 40.4 Q54.05 40.7 53.35 44.2 L47.1 44.2 39.4 44.2 Q35.25 44.55 33.85 44.2 33.5 44.2 33.5 43.85 33.5 41.4 35.25 40.4 36.65 39.7 40.45 39.7 L45.35 39.7 Q46.75 40.05 47.1 39.7" fill="#5c1a7e" fill-rule="evenodd" stroke="none"/>
  </g>
</svg>
