<?xml version="1.0" encoding="UTF-8" standalone="no"?>
<svg xmlns:xlink="http://www.w3.org/1999/xlink" height="75.35px" width="73.9px" xmlns="http://www.w3.org/2000/svg">
  <g transform="matrix(1.0, 0.0, 0.0, 1.0, -146.75, -390.35)">
    <path d="M216.65 416.85 L217.45 419.55 211.95 421.05 212.0 421.1 Q213.05 425.0 213.2 428.8 L213.2 429.4 217.85 429.85 217.8 430.1 218.65 433.1 Q218.1 437.35 216.55 441.5 L215.7 443.5 214.2 446.15 209.3 443.3 209.2 443.5 208.95 443.85 Q206.7 447.7 203.8 450.6 L205.15 452.3 205.1 452.45 205.3 456.25 205.45 456.45 Q201.45 459.7 196.45 461.65 L194.9 462.2 193.15 462.7 193.1 462.7 191.65 457.3 191.5 457.35 191.45 457.35 Q185.9 458.9 180.35 458.4 L180.35 459.3 179.5 463.7 Q172.9 462.95 166.6 459.45 L166.55 459.4 166.75 459.05 167.9 455.1 168.4 454.3 164.45 451.35 Q162.2 449.3 160.55 447.15 L160.5 447.1 160.4 447.1 156.2 450.4 156.05 450.45 Q151.85 445.3 149.95 438.35 L149.9 438.2 150.05 438.15 151.95 434.7 154.75 433.95 154.45 431.95 Q154.1 429.1 154.5 426.0 L154.5 425.35 154.5 425.2 154.45 425.2 148.75 424.5 148.85 424.35 Q148.9 423.3 149.2 422.3 L149.4 421.2 Q150.5 416.4 153.15 411.7 L153.25 411.5 153.3 411.5 155.0 409.45 155.15 409.25 155.25 409.25 159.8 411.8 Q162.25 408.3 165.4 405.9 L165.8 405.6 162.6 401.65 163.7 399.2 Q168.8 395.35 175.45 393.5 L177.2 399.85 Q182.45 398.4 187.4 399.1 L187.7 399.1 188.45 392.35 Q194.9 393.2 201.0 396.6 L200.95 396.75 201.05 400.4 199.3 403.4 Q203.1 405.85 205.65 409.3 L211.0 405.05 Q214.85 410.2 216.7 416.85 L216.65 416.85 M175.75 431.05 L176.55 432.1 177.9 433.5 Q178.6 434.15 179.45 434.6 181.3 435.75 183.25 435.95 L187.05 435.55 187.65 435.4 Q189.3 434.85 190.7 433.75 192.25 432.65 193.15 430.85 L193.75 429.9 193.35 428.2 Q192.8 426.25 191.65 424.6 L191.4 424.35 Q190.3 423.05 188.65 422.15 186.8 421.15 184.9 420.9 L181.0 421.15 Q179.0 421.7 177.45 422.95 175.9 424.15 174.95 425.95 174.6 426.4 174.5 426.9 L174.75 428.45 175.75 431.05" fill="#b1c4cb" fill-rule="evenodd" stroke="none"/>
    <path d="M216.65 416.85 L217.45 419.55 211.95 421.05 212.0 421.1 Q213.05 425.0 213.2 428.8 L213.2 429.4 217.85 429.85 217.8 430.1 218.65 433.1 Q218.1 437.35 216.55 441.5 L215.7 443.5 214.2 446.15 209.3 443.3 209.2 443.5 208.95 443.85 Q206.7 447.7 203.8 450.6 L205.15 452.3 205.1 452.45 205.3 456.25 205.45 456.45 Q201.45 459.7 196.45 461.65 L194.9 462.2 193.15 462.7 193.1 462.7 191.65 457.3 191.5 457.35 191.45 457.35 Q185.9 458.9 180.35 458.4 L180.35 459.3 179.5 463.7 Q172.9 462.95 166.6 459.45 L166.55 459.4 166.75 459.05 167.9 455.1 168.4 454.3 164.45 451.35 Q162.2 449.3 160.55 447.15 L160.5 447.1 160.4 447.1 156.2 450.4 156.05 450.45 Q151.85 445.3 149.95 438.35 L149.9 438.2 150.05 438.15 151.95 434.7 154.75 433.95 154.45 431.95 Q154.1 429.1 154.5 426.0 L154.5 425.35 154.5 425.2 154.45 425.2 148.75 424.5 148.85 424.35 Q148.9 423.3 149.2 422.3 L149.4 421.2 Q150.5 416.4 153.15 411.7 L153.25 411.5 153.3 411.5 155.0 409.45 155.15 409.25 155.25 409.25 159.8 411.8 Q162.25 408.3 165.4 405.9 L165.8 405.6 162.6 401.65 163.7 399.2 Q168.8 395.35 175.45 393.5 L177.2 399.85 Q182.45 398.4 187.4 399.1 L187.7 399.1 188.45 392.35 Q194.9 393.2 201.0 396.6 L200.95 396.75 201.05 400.4 199.3 403.4 Q203.1 405.85 205.65 409.3 L211.0 405.05 Q214.85 410.2 216.7 416.85 L216.65 416.85 M175.75 431.05 L174.75 428.45 174.5 426.9 Q174.6 426.4 174.95 425.95 175.9 424.15 177.45 422.95 179.0 421.7 181.0 421.15 L184.9 420.9 Q186.8 421.15 188.65 422.15 190.3 423.05 191.4 424.35 L191.65 424.6 Q192.8 426.25 193.35 428.2 L193.75 429.9 193.15 430.85 Q192.25 432.65 190.7 433.75 189.3 434.85 187.65 435.4 L187.05 435.55 183.25 435.95 Q181.3 435.75 179.45 434.6 178.6 434.15 177.9 433.5 L176.55 432.1 175.75 431.05" fill="none" stroke="#005c8e" stroke-linecap="round" stroke-linejoin="round" stroke-width="4.0"/>
    <path d="M216.7 416.95 L210.25 418.75 210.3 418.85 210.4 419.25 Q204.1 419.0 198.2 421.4 L195.2 422.55 Q194.6 420.9 193.65 419.75 192.2 417.9 190.0 416.65 188.0 415.4 185.75 415.15 L181.1 415.55 Q178.75 416.2 176.9 417.6 175.1 418.95 173.9 421.1 L173.85 421.1 Q172.8 423.25 172.6 425.6 172.35 426.85 172.5 428.2 L172.85 430.05 173.45 431.7 Q166.5 433.6 160.3 429.85 L159.3 429.25 157.7 428.0 157.65 427.85 Q157.4 425.8 157.55 423.8 L157.7 422.6 151.0 421.75 150.95 421.75 151.05 421.65 151.4 419.65 Q152.15 415.8 153.95 411.85 L155.05 409.55 155.2 409.35 155.3 409.35 159.8 411.9 161.1 412.6 161.85 411.55 Q163.6 408.4 166.1 406.2 L166.9 405.6 167.9 404.75 167.9 404.65 163.75 399.25 Q168.85 395.4 175.5 393.55 L177.25 399.95 Q182.5 398.5 187.4 399.2 L187.75 399.15 188.5 392.4 Q194.95 393.3 201.05 396.7 L201.0 396.85 197.7 402.5 198.55 402.95 199.3 403.45 Q203.1 405.95 205.65 409.35 L211.0 405.15 Q214.9 410.25 216.75 416.95 L216.7 416.95" fill="#bbd4de" fill-rule="evenodd" stroke="none"/>
    <path d="M210.3 418.85 L210.25 418.75 216.7 416.95 217.5 419.6 212.0 421.1 210.3 418.85 M163.75 399.25 L167.9 404.65 167.9 404.75 165.8 405.7 162.6 401.75 163.75 399.25 M151.0 421.75 L157.7 422.6 154.5 425.3 148.8 424.6 148.85 424.45 151.0 421.75 M213.5 442.4 L214.25 446.25 209.3 443.35 209.3 443.5 207.85 439.2 207.8 439.1 213.5 442.4 M193.2 462.75 L193.15 462.75 191.65 457.4 191.5 457.45 191.6 451.9 193.35 458.25 193.2 462.75 M180.35 459.3 L180.35 459.35 179.55 463.75 Q172.95 463.05 166.65 459.5 L166.55 459.5 166.8 459.1 167.95 455.15 168.65 455.55 Q174.25 458.55 180.35 459.3 M160.6 447.25 L160.55 447.2 160.4 447.15 156.25 450.5 157.85 446.65 163.2 442.4 160.6 447.25" fill="#516870" fill-rule="evenodd" stroke="none"/>
    <path d="M199.3 403.45 L198.55 402.95 197.7 402.5 201.0 396.85 201.05 400.5 199.3 403.45 M167.9 404.75 L166.9 405.6 166.1 406.2 Q163.6 408.4 161.85 411.55 L161.1 412.6 159.8 411.9 Q162.3 408.4 165.45 406.0 L165.8 405.7 167.9 404.75 M155.05 409.55 L153.95 411.85 Q152.15 415.8 151.4 419.65 L151.05 421.65 150.95 421.75 151.0 421.75 148.85 424.45 Q148.95 423.4 149.2 422.4 149.25 421.8 149.45 421.3 150.55 416.5 153.15 411.8 L153.3 411.6 153.35 411.6 155.05 409.55 M157.7 422.6 L157.55 423.8 Q157.4 425.8 157.65 427.85 L157.7 428.0 Q157.85 430.45 158.55 433.0 L154.8 434.05 Q154.55 433.1 154.45 432.0 154.15 429.15 154.55 426.05 L154.5 425.45 154.55 425.3 154.5 425.3 157.7 422.6 M210.4 419.25 L210.3 418.85 212.0 421.1 212.0 421.2 Q213.1 425.1 213.2 428.9 L213.2 429.45 211.25 429.1 211.45 426.25 211.2 422.8 211.0 421.4 210.9 421.05 210.4 419.25 M213.5 442.4 L213.7 442.45 Q215.5 439.2 216.65 435.8 L217.35 432.95 217.8 430.05 217.85 430.15 217.85 430.2 218.65 433.15 Q218.1 437.45 216.55 441.55 L215.7 443.6 214.25 446.25 213.5 442.4 M209.3 443.5 L209.2 443.55 209.0 443.95 Q206.7 447.75 203.85 450.7 L201.1 447.2 Q205.2 443.95 207.85 439.2 L209.3 443.5 M205.1 452.5 L205.3 456.35 205.45 456.55 Q201.45 459.75 196.45 461.7 L194.95 462.25 193.2 462.75 193.35 458.25 Q198.25 456.9 202.45 454.5 L203.35 453.85 205.1 452.5 M191.5 457.45 L191.45 457.45 Q185.9 459.0 180.4 458.45 L181.15 452.7 Q186.35 453.35 191.6 451.85 L191.6 451.9 191.5 457.45 M168.45 454.35 Q166.3 453.1 164.5 451.4 162.2 449.4 160.6 447.25 L163.2 442.4 164.85 444.45 Q167.5 447.3 171.15 449.25 L168.45 454.35 M156.25 450.5 L156.1 450.55 Q151.9 445.35 150.0 438.4 L149.95 438.25 150.1 438.2 152.0 434.8 152.85 437.45 Q154.05 440.7 155.75 443.6 L157.85 446.65 156.25 450.5" fill="#6f8891" fill-rule="evenodd" stroke="none"/>
    <path d="M157.7 428.0 L159.3 429.25 160.3 429.85 Q166.5 433.6 173.45 431.7 L175.0 434.3 176.55 435.95 178.3 437.35 Q180.55 438.6 182.75 438.85 L187.45 438.45 188.1 438.25 Q190.05 437.55 191.7 436.3 193.45 435.0 194.45 432.9 L195.2 431.75 Q195.9 430.05 196.05 428.45 196.3 426.25 195.6 423.75 L195.2 422.55 198.2 421.4 Q204.1 419.0 210.4 419.25 L210.9 421.05 211.0 421.4 211.2 422.8 211.45 426.25 211.25 429.1 213.2 429.45 217.85 429.9 217.85 430.15 217.8 430.05 217.35 432.95 216.65 435.8 Q215.5 439.2 213.7 442.45 L213.5 442.4 207.8 439.1 207.85 439.2 Q205.2 443.95 201.1 447.2 L203.85 450.7 205.2 452.4 205.1 452.5 203.35 453.85 202.45 454.5 Q198.25 456.9 193.35 458.25 L191.6 451.9 191.6 451.85 Q186.35 453.35 181.15 452.7 L180.4 458.45 180.35 459.3 Q174.25 458.55 168.65 455.55 L167.95 455.15 168.45 454.35 171.15 449.25 Q167.5 447.3 164.85 444.45 L163.2 442.4 157.85 446.65 155.75 443.6 Q154.05 440.7 152.85 437.45 L152.0 434.8 154.8 434.05 158.55 433.0 Q157.85 430.45 157.7 428.0" fill="#b1c4cb" fill-rule="evenodd" stroke="none"/>
    <path d="M174.55 426.95 Q174.35 425.8 174.5 424.7 174.65 422.75 175.65 420.9 176.7 419.05 178.3 417.95 179.75 416.65 181.7 416.1 L185.75 415.9 Q187.65 416.05 189.35 417.15 191.2 418.2 192.5 419.7 193.6 421.15 194.15 423.1 L194.15 423.2 Q194.75 425.3 194.55 427.15 194.4 428.55 193.75 429.95 L193.35 428.3 Q192.8 426.35 191.65 424.65 L191.45 424.45 Q190.3 423.1 188.7 422.25 186.85 421.25 184.95 420.95 L181.0 421.25 Q179.0 421.8 177.5 423.0 175.95 424.25 175.0 426.05 174.6 426.45 174.55 426.95" fill="#83979f" fill-rule="evenodd" stroke="none"/>
    <path d="M173.45 431.7 L172.85 430.05 172.5 428.2 Q172.35 426.85 172.6 425.6 172.8 423.25 173.85 421.1 L173.9 421.1 Q175.1 418.95 176.9 417.6 178.75 416.2 181.1 415.55 L185.75 415.15 Q188.0 415.4 190.0 416.65 192.2 417.9 193.65 419.75 194.6 420.9 195.2 422.55 L195.6 423.75 Q196.3 426.25 196.05 428.45 195.9 430.05 195.2 431.75 L194.45 432.9 Q193.45 435.0 191.7 436.3 190.05 437.55 188.1 438.25 L187.45 438.45 182.75 438.85 Q180.55 438.6 178.3 437.35 L176.55 435.95 175.0 434.3 173.45 431.7 M193.75 429.95 Q194.4 428.55 194.55 427.15 194.75 425.3 194.15 423.2 L194.15 423.1 Q193.6 421.15 192.5 419.7 191.2 418.2 189.35 417.15 187.65 416.05 185.75 415.9 L181.7 416.1 Q179.75 416.65 178.3 417.95 176.7 419.05 175.65 420.9 174.65 422.75 174.5 424.7 174.35 425.8 174.55 426.95 L174.8 428.55 175.8 431.1 176.55 432.15 177.9 433.6 179.45 434.7 Q181.35 435.8 183.25 436.0 L187.1 435.6 187.7 435.45 Q189.35 434.95 190.75 433.85 192.25 432.75 193.15 430.95 L193.75 429.95" fill="#d5eef7" fill-rule="evenodd" stroke="none"/>
  </g>
</svg>
