<?xml version="1.0" encoding="UTF-8" standalone="no"?>
<svg xmlns:xlink="http://www.w3.org/1999/xlink" height="414.05px" width="403.8px" xmlns="http://www.w3.org/2000/svg">
  <g transform="matrix(1.0, 0.0, 0.0, 1.0, -168.1, -52.55)">
    <path d="M500.65 65.3 L534.25 86.9 500.65 124.45 201.65 123.5 171.1 87.75 201.65 64.35 Q351.9 46.25 500.65 65.3" fill="#007eaf" fill-rule="evenodd" stroke="none"/>
    <path d="M500.65 65.3 L534.25 86.9 500.65 124.45 201.65 123.5 171.1 87.75 201.65 64.35 Q351.9 46.25 500.65 65.3 Z" fill="none" stroke="#006298" stroke-linecap="round" stroke-linejoin="round" stroke-width="6.0"/>
    <path d="M464.7 67.35 L465.8 67.35 465.95 67.75 470.55 81.0 481.85 73.95 482.75 73.4 482.75 74.9 470.95 82.15 471.3 83.15 474.2 91.7 470.35 102.8 469.8 104.2 478.95 112.15 478.35 113.0 469.35 105.4 464.05 120.5 462.85 120.5 473.15 91.55 464.7 67.35" fill="#cdf2ff" fill-rule="evenodd" stroke="none"/>
    <path d="M465.95 67.75 L472.8 68.45 481.85 73.95 470.55 81.0 465.95 67.75 M484.35 75.5 L503.9 87.45 472.8 120.5 464.05 120.5 469.35 105.4 478.35 113.0 478.95 112.15 479.8 110.9 470.35 102.8 474.2 91.7 471.3 83.15 484.35 75.5 M461.65 120.5 L236.7 120.5 234.9 115.65 235.1 115.65 463.35 115.8 461.65 120.5 M234.5 120.5 L228.75 120.5 220.25 111.05 228.45 104.4 234.5 120.5 M219.8 110.6 L200.5 89.0 220.05 74.75 227.85 80.35 223.75 91.7 227.9 103.05 219.3 109.95 219.75 110.45 219.8 110.6 M221.05 74.0 L228.75 68.4 232.15 68.05 228.2 79.15 221.05 74.0 M234.3 67.85 L235.4 67.85 235.4 67.75 Q347.35 56.45 461.25 67.3 L461.25 67.35 461.8 67.35 463.4 67.5 463.55 68.1 463.5 68.25 234.05 68.55 233.95 68.55 234.3 67.85 M464.6 70.75 L471.7 91.7 464.05 113.3 234.1 113.4 225.85 91.05 233.15 70.75 464.6 70.75" fill="#9be4fc" fill-rule="evenodd" stroke="none"/>
    <path d="M462.85 120.5 L461.65 120.5 463.35 115.8 463.6 114.55 234.75 114.75 235.1 115.65 234.9 115.65 236.7 120.5 235.45 120.5 224.75 91.4 233.0 67.85 234.3 67.85 233.95 68.55 234.05 68.55 233.5 69.6 463.8 69.25 463.5 68.25 463.55 68.1 463.4 67.5 463.35 67.35 464.7 67.35 473.15 91.55 462.85 120.5 M464.6 70.75 L233.15 70.75 225.85 91.05 234.1 113.4 464.05 113.3 471.7 91.7 464.6 70.75" fill="#56bee0" fill-rule="evenodd" stroke="none"/>
    <path d="M463.5 68.25 L463.8 69.25 233.5 69.6 234.05 68.55 463.5 68.25" fill="#b1ebff" fill-rule="evenodd" stroke="none"/>
    <path d="M482.75 74.9 L482.75 75.15 484.95 75.15 484.35 75.5 471.3 83.15 470.95 82.15 482.75 74.9 M470.35 102.8 L479.8 110.9 478.95 112.15 469.8 104.2 470.35 102.8" fill="#4fb1d2" fill-rule="evenodd" stroke="none"/>
    <path d="M235.1 115.65 L234.75 114.75 463.6 114.55 463.35 115.8 235.1 115.65" fill="#bfefff" fill-rule="evenodd" stroke="none"/>
    <path d="M235.45 120.5 L234.5 120.5 228.45 104.4 228.2 103.75 219.75 110.45 219.3 109.95 227.9 103.05 223.75 91.7 227.85 80.35 228.0 79.8 220.9 74.7 220.9 73.9 221.05 74.0 228.2 79.15 232.15 68.05 232.3 67.85 233.0 67.85 224.75 91.4 235.45 120.5" fill="#bce8f7" fill-rule="evenodd" stroke="none"/>
    <path d="M220.25 111.05 L220.1 111.15 219.8 110.6 219.75 110.45 228.2 103.75 228.45 104.4 220.25 111.05 M220.05 74.75 L220.0 74.7 220.9 74.7 228.0 79.8 227.85 80.35 220.05 74.75" fill="#54b6d7" fill-rule="evenodd" stroke="none"/>
    <path d="M226.85 72.45 Q227.5 72.45 227.95 73.1 228.4 73.65 228.4 74.55 228.4 75.5 227.95 76.1 L227.9 76.2 Q227.65 76.4 227.35 76.55 L226.85 76.65 Q226.25 76.65 225.8 76.1 225.3 75.5 225.3 74.55 225.3 73.7 225.75 73.2 L225.8 73.1 226.15 72.75 Q226.45 72.45 226.85 72.45" fill="#1e9ac2" fill-rule="evenodd" stroke="none"/>
    <path d="M225.55 73.0 L225.55 72.9 225.95 72.65 227.5 75.75 227.1 76.1 225.55 73.0" fill="#68c8e7" fill-rule="evenodd" stroke="none"/>
    <path d="M225.95 72.65 Q226.25 72.35 226.6 72.35 227.15 72.35 227.5 72.9 L227.95 73.75 228.0 74.25 227.95 74.8 227.5 75.6 227.5 75.75 225.95 72.65 M227.1 76.1 L226.6 76.15 Q226.0 76.15 225.55 75.6 225.25 75.05 225.25 74.25 225.25 73.5 225.55 73.0 L227.1 76.1" fill="#aaebff" fill-rule="evenodd" stroke="none"/>
    <path d="M226.35 108.55 Q226.75 108.25 227.15 108.25 227.75 108.25 228.2 108.9 228.65 109.45 228.65 110.35 228.65 111.25 228.2 111.85 L228.1 111.95 227.65 112.3 227.15 112.4 Q226.55 112.4 226.0 111.85 225.55 111.25 225.55 110.35 225.55 109.5 225.95 109.0 L226.0 108.9 226.35 108.55" fill="#1e9ac2" fill-rule="evenodd" stroke="none"/>
    <path d="M227.35 111.85 L226.85 111.9 Q226.3 111.9 225.85 111.35 225.5 110.85 225.5 110.05 225.5 109.3 225.85 108.8 L227.35 111.85 M226.2 108.45 Q226.55 108.15 226.85 108.15 227.35 108.15 227.75 108.7 L228.2 109.55 228.3 110.05 228.2 110.6 227.75 111.35 227.75 111.5 226.2 108.45" fill="#aaebff" fill-rule="evenodd" stroke="none"/>
    <path d="M225.85 108.8 L225.85 108.7 226.2 108.45 227.75 111.5 227.35 111.85 225.85 108.8" fill="#68c8e7" fill-rule="evenodd" stroke="none"/>
    <path d="M232.2 91.2 Q232.6 91.75 232.6 92.7 232.6 93.6 232.2 94.2 L232.15 94.3 231.7 94.65 231.15 94.75 Q230.55 94.75 230.1 94.2 229.65 93.6 229.65 92.7 229.65 91.8 230.0 91.3 L230.1 91.2 230.35 90.85 Q230.7 90.55 231.15 90.55 231.75 90.55 232.2 91.2" fill="#1e9ac2" fill-rule="evenodd" stroke="none"/>
    <path d="M229.9 91.1 L229.9 91.0 230.25 90.75 231.75 93.85 231.45 94.2 229.9 91.1" fill="#68c8e7" fill-rule="evenodd" stroke="none"/>
    <path d="M230.25 90.75 L230.8 90.45 Q231.45 90.45 231.85 91.0 L232.15 91.9 232.2 92.4 232.15 92.95 231.85 93.7 231.75 93.85 230.25 90.75 M231.45 94.2 L230.8 94.25 Q230.3 94.25 229.9 93.7 229.5 93.2 229.5 92.4 229.5 91.6 229.9 91.1 L231.45 94.2" fill="#aaebff" fill-rule="evenodd" stroke="none"/>
    <path d="M467.4 90.15 Q468.0 90.15 468.45 90.8 468.9 91.4 468.9 92.3 468.9 93.2 468.45 93.8 L468.35 93.9 467.9 94.25 467.4 94.35 Q466.75 94.35 466.25 93.8 465.8 93.2 465.8 92.3 465.8 91.45 466.2 90.9 L466.25 90.8 466.65 90.45 Q467.0 90.15 467.4 90.15" fill="#1e9ac2" fill-rule="evenodd" stroke="none"/>
    <path d="M466.1 90.7 L466.15 90.6 466.5 90.35 468.0 93.45 467.6 93.8 466.1 90.7" fill="#68c8e7" fill-rule="evenodd" stroke="none"/>
    <path d="M466.5 90.35 Q466.75 90.05 467.1 90.05 467.65 90.05 468.0 90.6 L468.45 91.5 468.5 92.0 468.45 92.55 468.0 93.3 468.0 93.45 466.5 90.35 M467.6 93.8 L467.1 93.85 Q466.55 93.85 466.15 93.3 465.75 92.8 465.75 92.0 465.75 91.25 466.1 90.7 L467.6 93.8" fill="#aaebff" fill-rule="evenodd" stroke="none"/>
    <path d="M471.9 73.8 Q472.5 73.8 472.95 74.45 473.4 75.0 473.4 75.95 473.4 76.85 472.95 77.45 L472.9 77.55 472.45 77.9 471.9 78.0 Q471.35 78.0 470.85 77.45 470.4 76.85 470.4 75.95 470.4 75.05 470.75 74.55 L470.85 74.45 471.1 74.1 Q471.55 73.8 471.9 73.8" fill="#1e9ac2" fill-rule="evenodd" stroke="none"/>
    <path d="M471.0 74.0 Q471.35 73.7 471.6 73.7 472.2 73.7 472.6 74.25 L472.9 75.1 473.05 75.6 472.9 76.2 472.6 76.95 472.5 77.1 471.0 74.0 M472.2 77.45 L471.6 77.5 Q471.05 77.5 470.65 76.95 470.25 76.45 470.25 75.6 470.25 74.85 470.65 74.35 L472.2 77.45" fill="#aaebff" fill-rule="evenodd" stroke="none"/>
    <path d="M472.5 77.1 L472.2 77.45 470.65 74.35 470.65 74.25 471.0 74.0 472.5 77.1" fill="#68c8e7" fill-rule="evenodd" stroke="none"/>
    <path d="M470.0 110.15 Q470.3 109.85 470.7 109.85 471.35 109.85 471.8 110.5 472.25 111.05 472.25 111.95 472.25 112.85 471.8 113.45 L471.65 113.55 471.2 113.9 470.7 114.0 Q470.1 114.0 469.6 113.45 469.15 112.85 469.15 111.95 469.15 111.1 469.6 110.6 L469.6 110.5 470.0 110.15" fill="#1e9ac2" fill-rule="evenodd" stroke="none"/>
    <path d="M471.35 113.1 L470.95 113.45 469.4 110.4 469.45 110.3 469.75 110.05 471.35 113.1" fill="#68c8e7" fill-rule="evenodd" stroke="none"/>
    <path d="M469.75 110.05 Q470.1 109.75 470.45 109.75 471.0 109.75 471.4 110.3 L471.75 111.15 471.8 111.65 471.75 112.2 471.4 112.95 471.35 113.1 469.75 110.05 M470.95 113.45 L470.45 113.5 Q469.95 113.5 469.45 112.95 469.1 112.45 469.1 111.65 469.1 110.9 469.4 110.4 L470.95 113.45" fill="#aaebff" fill-rule="evenodd" stroke="none"/>
    <path d="M568.7 420.45 L563.2 421.95 563.25 422.0 Q564.3 425.9 564.45 429.7 L564.45 430.3 569.1 430.75 569.05 431.0 569.9 434.0 Q569.35 438.25 567.8 442.4 L566.95 444.4 565.45 447.05 560.55 444.2 560.45 444.4 560.2 444.75 Q557.95 448.6 555.05 451.5 L556.4 453.2 556.35 453.35 556.55 457.15 556.7 457.35 Q552.7 460.6 547.7 462.55 L546.15 463.1 544.4 463.6 544.35 463.6 542.9 458.2 542.75 458.25 542.7 458.25 Q537.15 459.8 531.6 459.3 L531.6 460.2 530.75 464.6 Q524.15 463.85 517.85 460.35 L517.8 460.3 518.0 459.95 519.15 456.0 519.65 455.2 Q517.55 453.9 515.7 452.25 L511.8 448.05 511.75 448.0 511.65 448.0 507.45 451.3 507.3 451.35 Q503.1 446.2 501.2 439.25 L501.15 439.1 501.3 439.05 503.2 435.6 506.0 434.85 505.7 432.85 Q505.35 430.0 505.75 426.9 L505.75 426.25 505.75 426.1 505.7 426.1 500.0 425.4 500.1 425.25 Q500.15 424.2 500.45 423.2 L500.65 422.1 Q501.75 417.3 504.4 412.6 L504.5 412.4 504.55 412.4 506.25 410.35 506.4 410.15 506.5 410.15 511.05 412.7 Q513.5 409.2 516.65 406.8 L517.05 406.5 513.85 402.55 514.95 400.1 Q520.05 396.25 526.7 394.4 L528.45 400.75 Q533.7 399.3 538.65 400.0 L538.95 400.0 539.7 393.25 Q546.15 394.1 552.25 397.5 L552.2 397.65 552.3 401.3 550.55 404.3 Q554.35 406.75 556.9 410.2 L562.25 405.95 Q566.1 411.1 567.95 417.75 L567.9 417.75 568.7 420.45 M542.65 425.25 Q541.55 423.95 539.9 423.05 538.05 422.05 536.15 421.8 L532.25 422.05 Q530.25 422.6 528.7 423.85 527.15 425.05 526.2 426.85 L525.75 427.8 526.0 429.35 527.0 431.95 527.8 433.0 529.15 434.4 Q529.85 435.05 530.7 435.5 532.55 436.65 534.5 436.85 L538.3 436.45 538.9 436.3 Q540.55 435.75 541.95 434.65 543.5 433.55 544.4 431.75 L545.0 430.8 544.6 429.1 Q544.05 427.15 542.9 425.5 L542.65 425.25" fill="#b1c4cb" fill-rule="evenodd" stroke="none"/>
    <path d="M568.7 420.45 L563.2 421.95 563.25 422.0 Q564.3 425.9 564.45 429.7 L564.45 430.3 569.1 430.75 569.05 431.0 569.9 434.0 Q569.35 438.25 567.8 442.4 L566.95 444.4 565.45 447.05 560.55 444.2 560.45 444.4 560.2 444.75 Q557.95 448.6 555.05 451.5 L556.4 453.2 556.35 453.35 556.55 457.15 556.7 457.35 Q552.7 460.6 547.7 462.55 L546.15 463.1 544.4 463.6 544.35 463.6 542.9 458.2 542.75 458.25 542.7 458.25 Q537.15 459.8 531.6 459.3 L531.6 460.2 530.75 464.6 Q524.15 463.85 517.85 460.35 L517.8 460.3 518.0 459.95 519.15 456.0 519.65 455.2 Q517.55 453.9 515.7 452.25 L511.8 448.05 511.75 448.0 511.65 448.0 507.45 451.3 507.3 451.35 Q503.1 446.2 501.2 439.25 L501.15 439.1 501.3 439.05 503.2 435.6 506.0 434.85 505.7 432.85 Q505.35 430.0 505.75 426.9 L505.75 426.25 505.75 426.1 505.7 426.1 500.0 425.4 500.1 425.25 Q500.15 424.2 500.45 423.2 L500.65 422.1 Q501.75 417.3 504.4 412.6 L504.5 412.4 504.55 412.4 506.25 410.35 506.4 410.15 506.5 410.15 511.05 412.7 Q513.5 409.2 516.65 406.8 L517.05 406.5 513.85 402.55 514.95 400.1 Q520.05 396.25 526.7 394.4 L528.45 400.75 Q533.7 399.3 538.65 400.0 L538.95 400.0 539.7 393.25 Q546.15 394.1 552.25 397.5 L552.2 397.65 552.3 401.3 550.55 404.3 Q554.35 406.75 556.9 410.2 L562.25 405.95 Q566.1 411.1 567.95 417.75 L567.9 417.75 568.7 420.45 M542.65 425.25 L542.9 425.5 Q544.05 427.15 544.6 429.1 L545.0 430.8 544.4 431.75 Q543.5 433.55 541.95 434.65 540.55 435.75 538.9 436.3 L538.3 436.45 534.5 436.85 Q532.55 436.65 530.7 435.5 529.85 435.05 529.15 434.4 L527.8 433.0 527.0 431.95 526.0 429.35 525.75 427.8 526.2 426.85 Q527.15 425.05 528.7 423.85 530.25 422.6 532.25 422.05 L536.15 421.8 Q538.05 422.05 539.9 423.05 541.55 423.95 542.65 425.25" fill="none" stroke="#005c8e" stroke-linecap="round" stroke-linejoin="round" stroke-width="4.0"/>
    <path d="M550.55 404.35 Q554.35 406.85 556.9 410.25 L562.25 406.05 Q566.15 411.15 568.0 417.85 L567.95 417.85 561.5 419.65 561.55 419.75 561.65 420.15 Q555.35 419.9 549.45 422.3 L546.45 423.45 Q545.85 421.8 544.9 420.65 543.45 418.8 541.25 417.55 539.25 416.3 537.0 416.05 L532.35 416.45 Q530.0 417.1 528.15 418.5 526.35 419.85 525.15 422.0 L525.1 422.0 Q524.05 424.15 523.85 426.5 523.6 427.75 523.75 429.1 L524.1 430.95 524.7 432.6 Q517.75 434.5 511.55 430.75 L510.55 430.15 508.95 428.9 508.9 428.75 Q508.65 426.7 508.8 424.7 L508.95 423.5 502.25 422.65 502.2 422.65 502.3 422.55 502.65 420.55 Q503.4 416.7 505.2 412.75 L506.3 410.45 506.45 410.25 506.55 410.25 511.05 412.8 512.35 413.5 513.1 412.45 Q514.85 409.3 517.35 407.1 L518.15 406.5 Q518.55 406.05 519.15 405.65 L519.15 405.55 515.0 400.15 Q520.1 396.3 526.75 394.45 L528.5 400.85 Q533.75 399.4 538.65 400.1 L539.0 400.05 539.75 393.3 Q546.2 394.2 552.3 397.6 L552.25 397.75 548.95 403.4 549.8 403.85 550.55 404.35" fill="#bbd4de" fill-rule="evenodd" stroke="none"/>
    <path d="M567.95 417.85 L568.75 420.5 563.25 422.0 561.55 419.75 561.5 419.65 567.95 417.85 M565.5 447.15 L560.55 444.25 560.55 444.4 559.1 440.1 559.05 440.0 564.75 443.3 565.5 447.15 M544.45 463.65 L544.4 463.65 542.9 458.3 542.75 458.35 542.85 452.8 544.6 459.15 544.45 463.65 M531.6 460.2 L531.6 460.25 530.8 464.65 Q524.2 463.95 517.9 460.4 L517.8 460.4 518.05 460.0 519.2 456.05 519.9 456.45 Q525.5 459.45 531.6 460.2 M511.85 448.15 L511.8 448.1 511.65 448.05 507.5 451.4 509.1 447.55 514.45 443.3 511.85 448.15 M505.75 426.2 L500.05 425.5 500.1 425.35 502.25 422.65 508.95 423.5 505.75 426.2 M517.05 406.6 L513.85 402.65 515.0 400.15 519.15 405.55 519.15 405.65 517.05 406.6" fill="#516870" fill-rule="evenodd" stroke="none"/>
    <path d="M564.45 430.35 L569.1 430.8 569.1 431.05 569.05 430.95 568.6 433.85 567.9 436.7 Q566.75 440.1 564.95 443.35 L564.75 443.3 559.05 440.0 559.1 440.1 Q556.45 444.85 552.35 448.1 L555.1 451.6 556.45 453.3 556.35 453.4 554.6 454.75 553.7 455.4 Q549.5 457.8 544.6 459.15 L542.85 452.8 542.85 452.75 Q537.6 454.25 532.4 453.6 L531.65 459.35 531.6 460.2 Q525.5 459.45 519.9 456.45 L519.2 456.05 519.7 455.25 522.4 450.15 Q518.75 448.2 516.1 445.35 L514.45 443.3 509.1 447.55 507.0 444.5 Q505.3 441.6 504.1 438.35 L503.25 435.7 506.05 434.95 509.8 433.9 Q509.1 431.35 508.95 428.9 L510.55 430.15 511.55 430.75 Q517.75 434.5 524.7 432.6 L526.25 435.2 527.8 436.85 529.55 438.25 Q531.8 439.5 534.0 439.75 L538.7 439.35 539.35 439.15 Q541.3 438.45 542.95 437.2 544.7 435.9 545.7 433.8 L546.45 432.65 Q547.15 430.95 547.3 429.35 547.55 427.15 546.85 424.65 L546.45 423.45 549.45 422.3 Q555.35 419.9 561.65 420.15 L562.15 421.95 562.25 422.3 562.45 423.7 562.7 427.15 562.5 430.0 564.45 430.35" fill="#b1c4cb" fill-rule="evenodd" stroke="none"/>
    <path d="M563.25 422.0 L563.25 422.1 Q564.35 426.0 564.45 429.8 L564.45 430.35 562.5 430.0 562.7 427.15 562.45 423.7 562.25 422.3 562.15 421.95 561.65 420.15 561.55 419.75 563.25 422.0 M569.1 431.05 L569.1 431.1 569.9 434.05 Q569.35 438.35 567.8 442.45 L566.95 444.5 565.5 447.15 564.75 443.3 564.95 443.35 Q566.75 440.1 567.9 436.7 L568.6 433.85 569.05 430.95 569.1 431.05 M560.55 444.4 L560.45 444.45 560.25 444.85 Q557.95 448.65 555.1 451.6 L552.35 448.1 Q556.45 444.85 559.1 440.1 L560.55 444.4 M556.35 453.4 L556.55 457.25 556.7 457.45 Q552.7 460.65 547.7 462.6 L546.2 463.15 544.45 463.65 544.6 459.15 Q549.5 457.8 553.7 455.4 L554.6 454.75 556.35 453.4 M542.75 458.35 L542.7 458.35 Q537.15 459.9 531.65 459.35 L532.4 453.6 Q537.6 454.25 542.85 452.75 L542.85 452.8 542.75 458.35 M519.7 455.25 Q517.55 454.0 515.75 452.3 513.45 450.3 511.85 448.15 L514.45 443.3 516.1 445.35 Q518.75 448.2 522.4 450.15 L519.7 455.25 M507.5 451.4 L507.35 451.45 Q503.15 446.25 501.25 439.3 L501.2 439.15 501.35 439.1 503.25 435.7 504.1 438.35 Q505.3 441.6 507.0 444.5 L509.1 447.55 507.5 451.4 M506.05 434.95 L505.7 432.9 Q505.4 430.05 505.8 426.95 L505.75 426.35 505.8 426.2 505.75 426.2 508.95 423.5 508.8 424.7 Q508.65 426.7 508.9 428.75 L508.95 428.9 Q509.1 431.35 509.8 433.9 L506.05 434.95 M500.1 425.35 Q500.2 424.3 500.45 423.3 500.5 422.7 500.7 422.2 501.8 417.4 504.4 412.7 L504.55 412.5 504.6 412.5 506.3 410.45 505.2 412.75 Q503.4 416.7 502.65 420.55 L502.3 422.55 502.2 422.65 502.25 422.65 500.1 425.35 M511.05 412.8 Q513.55 409.3 516.7 406.9 L517.05 406.6 519.15 405.65 Q518.55 406.05 518.15 406.5 L517.35 407.1 Q514.85 409.3 513.1 412.45 L512.35 413.5 511.05 412.8 M552.25 397.75 L552.3 401.4 550.55 404.35 549.8 403.85 548.95 403.4 552.25 397.75" fill="#6f8891" fill-rule="evenodd" stroke="none"/>
    <path d="M525.8 427.85 Q525.6 426.7 525.75 425.6 525.9 423.65 526.9 421.8 527.95 419.95 529.55 418.85 531.0 417.55 532.95 417.0 L537.0 416.8 Q538.9 416.95 540.6 418.05 542.45 419.1 543.75 420.6 544.85 422.05 545.4 424.0 L545.4 424.1 Q546.0 426.2 545.8 428.05 545.65 429.45 545.0 430.85 L544.6 429.2 Q544.05 427.25 542.9 425.55 L542.7 425.35 Q541.55 424.0 539.95 423.15 538.1 422.15 536.2 421.85 L532.25 422.15 Q530.25 422.7 528.75 423.9 527.2 425.15 526.25 426.95 525.85 427.35 525.8 427.85" fill="#83979f" fill-rule="evenodd" stroke="none"/>
    <path d="M545.0 430.85 Q545.65 429.45 545.8 428.05 546.0 426.2 545.4 424.1 L545.4 424.0 Q544.85 422.05 543.75 420.6 542.45 419.1 540.6 418.05 538.9 416.95 537.0 416.8 L532.95 417.0 Q531.0 417.55 529.55 418.85 527.95 419.95 526.9 421.8 525.9 423.65 525.75 425.6 525.6 426.7 525.8 427.85 L526.05 429.45 527.05 432.0 527.8 433.05 529.15 434.5 530.7 435.6 Q532.6 436.7 534.5 436.9 L538.35 436.5 538.95 436.35 Q540.6 435.85 542.0 434.75 543.5 433.65 544.4 431.85 L545.0 430.85 M524.7 432.6 L524.1 430.95 523.75 429.1 Q523.6 427.75 523.85 426.5 524.05 424.15 525.1 422.0 L525.15 422.0 Q526.35 419.85 528.15 418.5 530.0 417.1 532.35 416.45 L537.0 416.05 Q539.25 416.3 541.25 417.55 543.45 418.8 544.9 420.65 545.85 421.8 546.45 423.45 L546.85 424.65 Q547.55 427.15 547.3 429.35 547.15 430.95 546.45 432.65 L545.7 433.8 Q544.7 435.9 542.95 437.2 541.3 438.45 539.35 439.15 L538.7 439.35 534.0 439.75 Q531.8 439.5 529.55 438.25 L527.8 436.85 526.25 435.2 524.7 432.6" fill="#d5eef7" fill-rule="evenodd" stroke="none"/>
  </g>
</svg>
