<?xml version="1.0" encoding="UTF-8" standalone="no"?>
<svg xmlns:xlink="http://www.w3.org/1999/xlink" height="484.15px" width="687.7px" xmlns="http://www.w3.org/2000/svg">
  <g transform="matrix(1.0, 0.0, 0.0, 1.0, -3.55, -17.05)">
    <path d="M434.85 477.25 Q444.5 474.85 458.15 474.85 471.75 474.85 481.4 477.25 491.05 479.7 491.05 483.15 491.05 486.6 481.4 489.0 471.75 491.45 458.15 491.45 444.5 491.45 434.85 489.0 425.2 486.6 425.2 483.15 425.2 479.7 434.85 477.25" fill="url(#gradient0)" fill-rule="evenodd" stroke="none"/>
    <path d="M444.0 466.75 L444.05 466.7 Q444.9 467.15 444.05 469.4 443.15 471.75 442.9 474.9 L442.9 475.35 445.95 474.7 447.2 474.45 447.5 474.4 448.35 472.75 Q449.65 470.45 451.45 468.35 452.05 465.1 453.5 463.15 454.45 461.8 455.5 460.75 457.65 458.55 458.7 457.95 L459.5 457.25 460.2 456.95 460.3 457.05 460.15 457.95 458.9 460.5 458.75 460.8 Q458.3 461.55 457.8 463.05 L456.8 466.0 456.65 466.6 456.15 468.65 455.5 472.75 Q461.25 471.6 463.8 471.55 L466.15 471.45 Q467.05 468.15 468.35 465.4 469.35 463.3 470.6 461.5 471.8 459.55 472.95 458.6 474.45 457.1 475.05 458.4 475.95 460.05 474.45 463.9 472.75 467.15 471.45 471.85 L472.25 472.0 478.45 473.25 479.15 473.35 479.9 473.8 Q480.65 474.3 481.4 475.45 482.25 476.65 482.45 478.4 L482.55 479.75 482.45 482.1 482.25 483.6 Q481.8 486.4 480.9 486.45 L480.65 486.45 479.05 486.75 478.9 486.6 Q478.25 486.55 477.55 486.1 L475.35 485.05 475.15 484.9 473.25 484.2 471.95 483.85 470.15 483.2 469.5 487.2 Q469.2 489.65 469.2 491.6 469.2 494.6 470.0 497.1 L470.15 498.15 470.0 499.05 Q469.8 500.05 468.95 500.2 L468.75 499.95 468.6 499.9 468.6 499.8 Q467.0 498.4 466.25 496.35 L465.65 495.0 465.2 493.55 Q464.2 490.3 463.95 486.4 463.65 483.45 463.9 481.7 L463.75 481.7 460.2 481.4 457.35 481.2 457.4 482.0 457.95 486.85 459.75 492.6 459.9 493.1 460.8 494.85 463.05 497.7 464.2 499.05 464.35 499.6 Q464.35 500.45 463.75 500.1 L463.35 500.05 462.0 499.6 460.45 498.85 460.15 498.55 Q457.65 496.8 455.3 492.95 451.75 487.3 451.75 483.9 451.75 482.4 452.0 481.25 L450.4 481.25 449.7 487.05 Q449.5 491.15 450.3 494.25 450.85 497.1 449.5 497.85 448.65 498.1 447.5 496.75 L446.15 494.15 445.4 491.9 445.1 491.5 443.75 489.4 442.9 488.05 Q441.35 485.25 441.05 482.85 L440.9 481.65 439.3 481.7 435.0 481.8 Q432.0 481.7 431.55 481.05 431.0 480.5 433.2 479.0 435.2 477.65 439.45 476.2 L439.5 476.2 440.35 476.0 440.35 474.45 440.35 473.05 440.45 471.2 Q440.5 469.95 441.5 467.9 442.4 465.95 444.0 466.75 M444.05 481.5 L444.9 483.9 445.05 483.05 445.1 482.6 445.25 481.5 444.05 481.5" fill="#eebe59" fill-rule="evenodd" stroke="none"/>
    <path d="M444.05 466.7 L444.0 466.75" fill="none" stroke="#512a0c" stroke-linecap="round" stroke-linejoin="round" stroke-width="2.0"/>
    <path d="M444.0 466.75 Q442.4 465.95 441.5 467.9 440.5 469.95 440.45 471.2 L440.35 473.05 440.35 474.45 440.35 476.0 439.5 476.2 439.45 476.2 Q435.2 477.65 433.2 479.0 431.0 480.5 431.55 481.05 432.0 481.7 435.0 481.8 L439.3 481.7 440.9 481.65 441.05 482.85 Q441.35 485.25 442.9 488.05 L443.75 489.4 445.1 491.5 445.4 491.9 446.15 494.15 447.5 496.75 Q448.65 498.1 449.5 497.85 450.85 497.1 450.3 494.25 449.5 491.15 449.7 487.05 L450.4 481.25 452.0 481.25 Q451.75 482.4 451.75 483.9 451.75 487.3 455.3 492.95 457.65 496.8 460.15 498.55 L460.45 498.85 462.0 499.6 463.35 500.05 463.75 500.1 Q464.35 500.45 464.35 499.6 L464.2 499.05 463.05 497.7 460.8 494.85 459.9 493.1 459.75 492.6 457.95 486.85 457.4 482.0 457.35 481.2 460.2 481.4 463.75 481.7 463.9 481.7 Q463.65 483.45 463.95 486.4 464.2 490.3 465.2 493.55 L465.65 495.0 466.25 496.35 Q467.0 498.4 468.6 499.8 L468.6 499.9 468.75 499.95 468.95 500.2 Q469.8 500.05 470.0 499.05 L470.15 498.15 470.0 497.1 Q469.2 494.6 469.2 491.6 469.2 489.65 469.5 487.2 L470.15 483.2 471.95 483.85 473.25 484.2 475.15 484.9 475.35 485.05 477.55 486.1 Q478.25 486.55 478.9 486.6 L479.05 486.75 480.65 486.45 480.9 486.45 Q481.8 486.4 482.25 483.6 L482.45 482.1 482.55 479.75 482.45 478.4 Q482.25 476.65 481.4 475.45 480.65 474.3 479.9 473.8 L479.15 473.35 478.45 473.25 472.25 472.0 471.45 471.85 Q472.75 467.15 474.45 463.9 475.95 460.05 475.05 458.4 474.45 457.1 472.95 458.6 471.8 459.55 470.6 461.5 469.35 463.3 468.35 465.4 467.05 468.15 466.15 471.45 L463.8 471.55 Q461.25 471.6 455.5 472.75 L456.15 468.65 456.65 466.6 456.8 466.0 457.8 463.05 Q458.3 461.55 458.75 460.8 L458.9 460.5 460.15 457.95 460.3 457.05 460.2 456.95 459.5 457.25 458.7 457.95 Q457.65 458.55 455.5 460.75 454.45 461.8 453.5 463.15 452.05 465.1 451.45 468.35 449.65 470.45 448.35 472.75 L447.5 474.4 447.2 474.45 445.95 474.7 442.9 475.35 442.9 474.9 Q443.15 471.75 444.05 469.4 444.9 467.15 444.05 466.7 Z" fill="none" stroke="#3f352b" stroke-linecap="round" stroke-linejoin="round" stroke-width="2.0"/>
    <path d="M436.6 478.3 Q434.6 478.9 433.65 480.0 432.45 481.2 435.5 481.2 L438.55 480.95 438.6 480.9 Q439.15 479.7 439.15 478.55 L439.0 477.65 438.85 477.4 436.6 478.3 M473.25 484.2 L471.95 483.85 Q470.25 483.2 467.75 482.6 L463.75 481.7 460.2 481.4 453.85 481.2 441.8 481.65 439.3 481.7 435.0 481.8 Q432.0 481.7 431.55 481.05 431.0 480.5 433.2 479.0 435.2 477.65 439.45 476.2 L439.5 476.2 445.95 474.7 447.2 474.45 Q459.75 471.7 463.8 471.55 L472.25 472.0 478.45 473.25 479.15 473.35 Q477.55 473.55 476.65 475.15 476.4 474.3 475.35 474.1 L474.85 474.0 Q474.25 473.85 472.45 474.7 470.55 475.55 470.45 477.65 470.3 479.75 470.6 480.5 L470.9 481.55 471.3 482.1 472.8 483.85 473.25 484.2 M456.95 478.25 L457.25 478.75 458.0 479.75 Q460.6 480.8 462.6 480.8 465.5 480.8 465.85 480.0 L466.25 479.2 466.45 477.65 465.8 475.9 Q465.2 474.55 462.6 473.4 459.9 472.35 457.7 474.25 L457.1 475.3 Q456.65 476.2 456.65 477.05 L456.9 478.1 456.95 478.25" fill="#726045" fill-rule="evenodd" stroke="none"/>
    <path d="M436.6 478.3 L438.85 477.4 439.0 477.65 439.15 478.55 Q439.15 479.7 438.6 480.9 L438.55 480.95 435.5 481.2 Q432.45 481.2 433.65 480.0 434.6 478.9 436.6 478.3" fill="#a3986f" fill-rule="evenodd" stroke="none"/>
    <path d="M477.55 486.1 L475.35 485.05 475.15 484.9 473.25 484.2 472.8 483.85 471.3 482.1 470.9 481.55 470.6 480.5 Q470.3 479.75 470.45 477.65 470.55 475.55 472.45 474.7 474.25 473.85 474.85 474.0 L475.35 474.1 Q476.4 474.3 476.65 475.15 L476.2 475.75 Q475.45 477.55 475.45 479.5 475.45 482.6 476.8 485.05 L477.55 486.1 M456.95 478.25 L457.4 478.55 459.35 479.0 460.2 479.2 463.2 479.6 463.65 479.6 463.95 479.5 464.2 478.4 Q464.2 475.85 461.2 475.6 L460.8 475.6 460.15 475.6 Q457.35 475.85 456.95 477.4 L456.9 478.1 456.65 477.05 Q456.65 476.2 457.1 475.3 L457.7 474.25 Q459.9 472.35 462.6 473.4 465.2 474.55 465.8 475.9 L466.45 477.65 466.25 479.2 465.85 480.0 Q465.5 480.8 462.6 480.8 460.6 480.8 458.0 479.75 L457.25 478.75 456.95 478.25" fill="#c9b37f" fill-rule="evenodd" stroke="none"/>
    <path d="M456.9 478.1 L456.95 477.4 Q457.35 475.85 460.15 475.6 L460.8 475.6 461.2 475.6 Q464.2 475.85 464.2 478.4 L463.95 479.5 463.65 479.6 463.2 479.6 460.2 479.2 459.35 479.0 457.4 478.55 456.95 478.25 456.9 478.1" fill="#e9e1c3" fill-rule="evenodd" stroke="none"/>
    <path d="M479.15 473.35 L479.9 473.8 Q480.65 474.3 481.4 475.45 482.25 476.65 482.45 478.4 L480.95 478.55 482.55 479.75 482.45 482.1 482.25 483.6 481.35 482.75 Q480.65 482.0 480.2 482.25 479.65 482.6 479.8 482.85 L480.75 484.45 Q481.4 485.85 480.65 486.45 L479.05 486.75 478.9 486.6 Q478.25 486.55 477.55 486.1 L476.8 485.05 Q475.45 482.6 475.45 479.5 475.45 477.55 476.2 475.75 L476.65 475.15 Q477.55 473.55 479.15 473.35" fill="#f5f2e5" fill-rule="evenodd" stroke="none"/>
    <path d="M482.45 478.4 L482.55 479.75 480.95 478.55 482.45 478.4 M482.25 483.6 Q481.8 486.4 480.9 486.45 L480.65 486.45 Q481.4 485.85 480.75 484.45 L479.8 482.85 Q479.65 482.6 480.2 482.25 480.65 482.0 481.35 482.75 L482.25 483.6" fill="#b8ae89" fill-rule="evenodd" stroke="none"/>
    <path d="M464.6 478.3 L464.6 478.15 Q465.65 477.35 466.7 477.35 467.8 477.35 468.65 478.25 L469.2 479.05 469.4 479.9 469.95 482.6 470.0 483.0 470.15 483.0 469.5 487.2 Q469.2 489.65 469.2 491.6 469.2 494.6 470.0 497.1 L470.15 498.15 470.0 499.05 Q469.8 500.05 468.95 500.2 L468.75 499.95 Q469.2 499.6 469.2 498.45 L468.8 496.8 468.75 496.6 468.65 496.35 468.45 494.75 Q468.25 493.55 468.2 491.8 L468.1 490.7 468.2 486.0 468.25 485.1 468.35 484.45 468.45 482.15 468.25 480.3 Q467.8 477.8 466.0 477.8 L465.35 477.85 464.6 478.3" fill="#b8ae89" fill-rule="evenodd" stroke="none"/>
    <path d="M465.65 495.0 L465.2 493.55 Q464.2 490.3 463.95 486.4 463.6 482.45 464.05 480.75 L464.5 478.6 464.95 478.6 465.7 478.9 466.6 479.6 Q467.15 480.05 467.35 480.65 467.6 481.25 467.45 482.9 467.2 484.6 467.3 485.5 L467.3 488.5 467.35 491.8 467.45 493.85 467.45 493.95 Q467.15 495.2 466.45 495.2 L466.4 495.2 465.65 495.0" fill="#fffbee" fill-rule="evenodd" stroke="none"/>
    <path d="M468.75 499.95 L468.6 499.9 468.6 499.8 Q467.0 498.4 466.25 496.35 L465.65 495.0 466.4 495.2 466.45 495.2 Q467.15 495.2 467.45 493.95 L467.45 493.85 467.35 491.8 467.3 488.5 467.3 485.5 Q467.2 484.6 467.45 482.9 467.6 481.25 467.35 480.65 467.15 480.05 466.6 479.6 L465.7 478.9 464.95 478.6 464.5 478.6 464.6 478.3 465.35 477.85 466.0 477.8 Q467.8 477.8 468.25 480.3 L468.45 482.15 468.35 484.45 468.25 485.1 468.2 486.0 468.1 490.7 468.2 491.8 Q468.25 493.55 468.45 494.75 L468.65 496.35 468.75 496.6 468.8 496.8 469.2 498.45 Q469.2 499.6 468.75 499.95" fill="#d7cda7" fill-rule="evenodd" stroke="none"/>
    <path d="M472.95 458.6 Q474.45 457.1 475.05 458.4 475.95 460.05 474.45 463.9 472.6 467.45 471.2 472.8 L471.0 473.55 469.8 475.15 Q468.75 476.05 467.6 476.35 L468.5 475.7 468.5 475.6 468.6 475.55 468.75 475.55 468.8 475.45 468.9 475.35 Q469.85 474.1 470.75 471.55 L470.9 471.55 471.0 471.15 473.5 461.35 Q473.7 459.55 472.95 458.6" fill="#b8ae89" fill-rule="evenodd" stroke="none"/>
    <path d="M472.95 458.6 Q473.7 459.55 473.5 461.35 L471.0 471.15 470.9 471.55 470.75 471.55 Q469.85 474.1 468.9 475.35 L468.8 475.45 468.6 475.55 468.5 475.6 468.5 475.7 467.6 476.35 467.2 476.5 466.45 476.45 465.55 474.75 465.5 474.4 465.7 473.05 466.3 473.7 467.45 473.85 Q468.6 473.7 469.1 473.05 469.95 470.7 470.0 468.8 469.95 467.15 469.2 466.3 L468.35 465.4 Q469.35 463.3 470.6 461.5 471.8 459.55 472.95 458.6" fill="#d7cda7" fill-rule="evenodd" stroke="none"/>
    <path d="M465.7 473.05 Q466.75 468.75 468.35 465.4 L469.2 466.3 Q469.95 467.15 470.0 468.8 469.95 470.7 469.1 473.05 468.6 473.7 467.45 473.85 L466.3 473.7 465.7 473.05" fill="#f7f0d5" fill-rule="evenodd" stroke="none"/>
    <path d="M468.8 475.45 L468.75 475.55 468.6 475.55 468.8 475.45" fill="#e9e1c3" fill-rule="evenodd" stroke="none"/>
    <path d="M444.0 466.75 L444.05 466.7 Q444.9 467.15 444.05 469.4 443.15 471.75 442.9 474.9 L442.9 477.05 442.85 478.0 Q442.85 479.0 443.2 481.65 L443.6 485.05 Q443.6 487.05 443.05 487.8 441.85 485.25 441.55 482.9 L440.95 478.9 Q440.75 478.0 440.8 476.75 L440.9 474.7 440.8 473.25 440.9 471.4 440.95 470.9 441.85 471.7 Q442.75 471.9 443.15 470.4 443.45 469.35 442.45 469.2 L441.65 469.1 441.5 469.05 441.85 468.3 442.1 468.45 442.55 468.5 442.7 468.3 Q442.75 468.0 442.15 467.7 L442.45 467.2 Q443.05 466.6 444.0 466.75" fill="#d7cda7" fill-rule="evenodd" stroke="none"/>
    <path d="M442.9 488.05 Q441.35 485.25 441.05 482.85 L440.6 478.85 Q440.35 477.95 440.35 476.65 L440.35 474.45 440.35 473.05 440.45 471.2 Q440.5 469.95 441.5 467.9 442.4 465.95 444.0 466.75 443.05 466.6 442.45 467.2 L442.15 467.7 Q442.75 468.0 442.7 468.3 L442.55 468.5 442.1 468.45 441.85 468.3 441.5 469.05 441.65 469.1 442.45 469.2 Q443.45 469.35 443.15 470.4 442.75 471.9 441.85 471.7 L440.95 470.9 440.9 471.4 440.8 473.25 440.9 474.7 440.8 476.75 Q440.75 478.0 440.95 478.9 L441.55 482.9 Q441.85 485.25 443.05 487.8 L442.9 488.05" fill="#e9e1c3" fill-rule="evenodd" stroke="none"/>
    <path d="M442.9 477.05 Q443.0 479.05 443.85 480.95 L444.0 481.4 445.55 486.15 Q445.95 488.3 446.6 490.3 L447.3 493.7 Q446.4 493.5 445.1 491.5 L443.75 489.4 442.9 488.05 443.05 487.8 Q443.6 487.05 443.6 485.05 L443.2 481.65 Q442.85 479.0 442.85 478.0 L442.9 477.05" fill="#b8ae89" fill-rule="evenodd" stroke="none"/>
    <path d="M444.0 466.75 L444.05 466.7" fill="none" stroke="#512a0c" stroke-linecap="round" stroke-linejoin="round" stroke-width="0.05"/>
    <path d="M446.9 475.75 L447.35 474.6 448.2 475.75 447.6 475.6 446.9 475.75 M447.5 496.75 L446.15 494.15 Q445.55 492.75 445.1 491.0 L445.25 490.9 Q447.0 490.7 447.3 489.4 448.05 485.2 448.5 483.5 L449.1 480.2 449.25 479.45 448.95 477.55 Q449.35 478.75 449.35 480.0 L448.9 490.0 449.05 492.2 448.9 495.35 Q448.5 496.65 447.5 496.75" fill="#d7cda7" fill-rule="evenodd" stroke="none"/>
    <path d="M445.1 491.0 Q444.3 487.35 445.05 483.05 L445.1 482.6 Q445.5 479.0 446.9 475.75 L447.6 475.6 448.2 475.75 Q448.65 476.15 448.95 477.5 L448.95 477.55 449.25 479.45 449.1 480.2 448.5 483.5 Q448.05 485.2 447.3 489.4 447.0 490.7 445.25 490.9 L445.1 491.0" fill="#ece4c7" fill-rule="evenodd" stroke="none"/>
    <path d="M447.35 474.6 L448.35 472.75 Q450.1 469.65 452.8 466.85 L452.95 466.55 453.5 466.15 453.7 466.1 Q454.6 465.65 454.75 466.1 455.05 466.45 454.7 467.7 L453.2 472.35 Q451.65 475.55 451.0 479.05 L450.55 480.5 Q449.95 483.6 449.7 487.05 449.5 491.15 450.3 494.25 450.85 497.1 449.5 497.85 448.65 498.1 447.5 496.75 448.5 496.65 448.9 495.35 L449.05 492.2 448.9 490.0 449.35 480.0 Q449.35 478.75 448.95 477.55 L448.95 477.5 Q448.65 476.15 448.2 475.75 L447.35 474.6" fill="#a18f6d" fill-rule="evenodd" stroke="none"/>
    <path d="M458.7 457.95 L459.5 457.25 460.2 456.95 460.3 457.05 460.15 457.95 458.9 460.5 458.75 460.8 Q458.3 461.55 457.8 463.05 L456.8 466.0 456.65 466.6 456.15 468.65 455.3 473.8 454.85 474.9 Q454.6 475.6 454.0 475.9 L452.75 476.2 452.5 476.2 453.7 475.0 Q454.25 474.25 454.45 473.05 L454.85 470.3 455.3 467.9 456.05 464.75 456.65 461.95 456.2 461.1 Q455.8 460.75 455.5 460.75 457.65 458.55 458.7 457.95" fill="#b8ae89" fill-rule="evenodd" stroke="none"/>
    <path d="M451.3 473.05 L451.15 472.95 451.15 472.75 451.15 472.5 Q451.2 471.2 451.75 468.2 452.5 464.45 453.2 464.45 453.65 464.45 453.95 465.25 454.3 466.1 454.3 467.2 L453.8 470.4 453.1 472.9 Q452.65 473.65 452.3 473.65 451.65 473.65 451.3 473.2 L451.3 473.05" fill="#f7f2dc" fill-rule="evenodd" stroke="none"/>
    <path d="M452.5 476.2 L452.35 476.2 Q451.35 476.05 450.75 475.15 L450.6 475.0 450.55 474.85 451.3 468.9 Q452.0 465.25 453.5 463.15 454.45 461.8 455.5 460.75 455.8 460.75 456.2 461.1 L456.65 461.95 456.05 464.75 455.3 467.9 454.85 470.3 454.45 473.05 Q454.25 474.25 453.7 475.0 L452.5 476.2 M451.3 473.2 Q451.65 473.65 452.3 473.65 452.65 473.65 453.1 472.9 L453.8 470.4 454.3 467.2 Q454.3 466.1 453.95 465.25 453.65 464.45 453.2 464.45 452.5 464.45 451.75 468.2 451.2 471.2 451.15 472.5 L451.15 472.75 451.15 472.95 451.3 473.05 451.3 473.2 M460.45 498.85 Q460.35 496.8 459.2 494.0 L459.0 493.4 458.1 491.15 457.05 488.9 Q456.6 487.6 455.95 483.9 L455.9 483.2 Q455.2 479.45 453.2 479.45 L453.1 479.45 452.35 480.0 452.65 479.3 Q453.35 478.15 454.6 478.15 L454.85 478.15 Q457.05 478.4 457.4 482.0 L457.95 486.85 459.75 492.6 459.9 493.1 460.8 494.85 463.05 497.7 464.2 499.05 464.35 499.6 Q464.35 500.45 463.75 500.1 L463.35 500.05 462.0 499.6 460.45 498.85" fill="#d7cda7" fill-rule="evenodd" stroke="none"/>
    <path d="M452.35 480.0 L453.1 479.45 453.2 479.45 Q455.2 479.45 455.9 483.2 L455.95 483.9 Q456.6 487.6 457.05 488.9 L458.1 491.15 459.0 493.4 459.2 494.0 Q460.35 496.8 460.45 498.85 L460.15 498.55 Q457.65 496.8 455.3 492.95 451.75 487.3 451.75 483.9 451.75 481.4 452.35 480.0" fill="#f5f0dc" fill-rule="evenodd" stroke="none"/>
    <path d="M455.5 460.75 Q457.65 458.55 458.7 457.95" fill="none" stroke="#5d5045" stroke-linecap="round" stroke-linejoin="round" stroke-width="0.05"/>
    <path d="M451.3 473.05 L451.3 473.2" fill="none" stroke="#41350f" stroke-linecap="round" stroke-linejoin="round" stroke-width="0.05"/>
    <path d="M457.7 494.85 L457.35 494.2 Q457.05 494.15 456.35 494.55 456.15 494.25 456.25 493.9 456.35 493.5 456.7 493.3 457.2 492.85 457.8 493.15 458.4 493.5 458.15 494.2 L457.7 494.85" fill="#d7cca5" fill-rule="evenodd" stroke="none"/>
    <path d="M457.75 496.05 Q458.15 495.5 458.5 495.65 458.8 495.7 459.0 496.3 L458.05 496.25 457.75 496.05" fill="#cbbf97" fill-rule="evenodd" stroke="none"/>
    <path d="M457.15 490.6 L457.05 490.3 456.65 490.5 456.55 490.15 456.75 489.95 457.25 489.9 457.35 490.35 457.15 490.6" fill="#b0a787" fill-rule="evenodd" stroke="none"/>
    <path d="M455.7 492.35 Q455.85 492.1 456.0 492.2 L456.25 492.45 455.85 492.4 455.7 492.35" fill="#bdb390" fill-rule="evenodd" stroke="none"/>
    <path d="M190.4 451.25 Q182.95 443.8 182.95 433.2 L182.95 433.15 Q182.95 422.55 190.4 415.05 197.9 407.6 208.5 407.6 L503.65 407.6 Q514.25 407.6 521.7 415.05 529.2 422.55 529.2 433.15 L529.2 433.2 Q529.2 443.8 521.7 451.25 514.25 458.75 503.65 458.75 L208.5 458.75 Q197.9 458.75 190.4 451.25" fill="#81dbf7" fill-rule="evenodd" stroke="none"/>
    <path d="M190.4 451.25 Q197.9 458.75 208.5 458.75 L503.65 458.75 Q514.25 458.75 521.7 451.25 529.2 443.8 529.2 433.2 L529.2 433.15 Q529.2 422.55 521.7 415.05 514.25 407.6 503.65 407.6 L208.5 407.6 Q197.9 407.6 190.4 415.05 182.95 422.55 182.95 433.15 L182.95 433.2 Q182.95 443.8 190.4 451.25 Z" fill="none" stroke="#c9f0fc" stroke-linecap="round" stroke-linejoin="round" stroke-width="4.0"/>
    <path d="M646.3 22.7 Q648.85 22.5 651.7 24.05 654.6 25.6 655.1 27.7 655.7 30.25 654.7 32.55 655.6 32.85 656.65 34.05 657.5 35.25 657.9 36.95 L656.4 37.35 654.6 37.85 654.3 36.65 653.5 35.6 Q648.85 37.3 645.9 36.75 L643.55 36.1 641.95 35.45 642.2 35.4 644.65 35.15 646.75 34.65 Q649.6 33.5 650.8 31.6 652.1 29.65 651.45 27.4 651.1 26.05 649.75 25.1 648.4 24.1 646.6 23.8 L643.8 23.65 643.0 23.8 Q644.05 23.15 644.9 22.9 L646.3 22.7 M621.0 30.8 L621.55 30.55 Q621.9 31.45 622.55 32.1 619.55 32.95 617.9 35.15 616.25 37.35 617.35 39.85 L616.45 38.85 Q615.95 38.25 615.8 37.65 615.15 35.25 618.05 32.7 619.5 31.45 621.0 30.8" fill="#dde7e6" fill-rule="evenodd" stroke="none"/>
    <path d="M619.25 30.1 L621.0 30.8 Q619.5 31.45 618.05 32.7 615.15 35.25 615.8 37.65 615.95 38.25 616.45 38.85 L617.35 39.85 Q616.25 37.35 617.9 35.15 619.55 32.95 622.55 32.1 621.9 31.45 621.55 30.55 L621.1 29.45 Q620.5 25.15 624.25 21.5 627.3 18.7 631.5 17.6 635.8 16.5 639.95 17.55 644.65 18.75 646.15 22.35 L646.3 22.7 644.9 22.9 Q644.05 23.15 643.0 23.8 L643.8 23.65 646.6 23.8 Q648.4 24.1 649.75 25.1 651.1 26.05 651.45 27.4 652.1 29.65 650.8 31.6 649.6 33.5 646.75 34.65 L644.65 35.15 642.2 35.4 641.95 35.45 643.55 36.1 645.9 36.75 Q648.85 37.3 653.5 35.6 L654.3 36.65 654.6 37.85 656.4 37.35 657.9 36.95 Q662.45 36.65 665.8 38.2 669.5 39.9 670.5 43.35 671.25 46.0 669.45 49.0 668.65 50.5 666.05 53.3 669.15 51.6 671.3 49.55 L671.35 49.55 671.4 49.5 671.45 49.45 672.15 48.65 673.5 46.85 Q674.15 45.9 674.45 44.65 676.75 44.8 678.7 46.0 L680.25 47.25 Q681.1 48.05 681.4 49.1 682.95 54.65 671.05 60.85 664.45 64.15 657.45 66.3 L655.05 66.45 Q650.15 66.9 646.25 66.65 633.85 66.15 632.25 60.55 631.55 57.95 632.85 56.25 L636.05 53.1 Q633.35 53.9 631.35 56.7 630.4 58.0 630.0 59.1 624.9 59.65 620.45 57.4 622.05 59.2 624.4 60.15 626.6 61.0 629.6 61.25 L629.7 61.7 626.3 63.6 Q624.1 64.8 622.45 65.2 615.65 66.95 610.25 65.25 603.85 63.25 602.1 56.95 601.35 54.4 601.6 51.35 601.85 48.25 603.05 46.85 L604.55 48.25 606.75 49.75 Q606.5 49.3 605.8 46.85 604.2 41.1 606.05 36.95 608.2 32.3 614.45 30.7 L616.05 30.4 619.25 30.1" fill="#ffffff" fill-rule="evenodd" stroke="none"/>
    <path d="M657.9 36.95 Q664.75 35.3 667.85 35.75 672.25 36.45 674.05 40.85 674.5 42.0 674.5 43.8 679.35 44.15 681.75 45.7 685.3 48.0 685.4 50.8 685.55 55.5 675.65 60.6 668.55 64.25 661.0 66.15 654.2 67.95 648.15 68.45 L643.4 68.55 Q632.5 68.45 630.8 64.05 L628.35 65.8 625.7 67.4 623.05 68.5 618.55 69.5 609.05 69.15 Q602.95 68.15 599.6 62.9 597.35 59.35 598.0 54.35 598.7 49.05 602.7 46.4 601.8 45.3 601.5 44.0 599.9 38.55 603.45 34.7 606.3 31.55 611.7 30.15 L617.45 29.8 619.25 30.1 616.05 30.4 614.45 30.7 Q608.2 32.3 606.05 36.95 604.2 41.1 605.8 46.85 606.5 49.3 606.75 49.75 L604.55 48.25 603.05 46.85 Q601.85 48.25 601.6 51.35 601.35 54.4 602.1 56.95 603.85 63.25 610.25 65.25 615.65 66.95 622.45 65.2 624.1 64.8 626.3 63.6 L629.7 61.7 629.6 61.25 Q626.6 61.0 624.4 60.15 622.05 59.2 620.45 57.4 624.9 59.65 630.0 59.1 630.4 58.0 631.35 56.7 633.35 53.9 636.05 53.1 L632.85 56.25 Q631.55 57.95 632.25 60.55 633.85 66.15 646.25 66.65 650.15 66.9 655.05 66.45 L657.45 66.3 Q664.45 64.15 671.05 60.85 682.95 54.65 681.4 49.1 681.1 48.05 680.25 47.25 L678.7 46.0 Q676.75 44.8 674.45 44.65 674.15 45.9 673.5 46.85 L672.15 48.65 671.65 49.2 671.45 49.45 671.4 49.5 671.35 49.55 671.3 49.55 Q669.15 51.6 666.05 53.3 668.65 50.5 669.45 49.0 671.25 46.0 670.5 43.35 669.5 39.9 665.8 38.2 662.45 36.65 657.9 36.95" fill="#c0d0ce" fill-rule="evenodd" stroke="none"/>
    <path d="M119.05 137.45 Q132.15 134.25 138.15 135.15 146.55 136.45 150.05 144.95 150.95 147.15 150.85 150.6 160.2 151.3 164.85 154.25 171.65 158.7 171.9 164.0 172.15 173.1 153.1 182.85 139.45 189.95 124.95 193.6 111.9 197.0 100.25 197.95 95.7 198.25 91.15 198.15 70.15 197.95 66.9 189.5 L62.2 192.9 57.1 195.95 Q53.85 197.75 51.95 198.1 L43.3 200.0 Q36.5 201.5 25.0 199.35 13.35 197.4 6.9 187.35 2.55 180.5 3.85 170.9 5.15 160.7 12.8 155.55 11.15 153.5 10.5 150.95 7.5 140.5 14.25 133.1 19.75 127.05 30.15 124.4 35.2 123.15 41.2 123.75 L44.65 124.3 38.5 124.9 35.5 125.45 Q23.45 128.5 19.3 137.45 15.7 145.4 18.8 156.45 20.2 161.2 20.7 162.05 L16.45 159.2 13.55 156.5 Q11.25 159.2 10.75 165.1 10.2 170.95 11.65 175.95 15.05 188.0 27.35 191.8 37.8 195.05 50.85 191.75 53.95 190.95 58.25 188.65 59.6 188.05 64.75 185.05 L64.6 184.15 Q58.8 183.65 54.55 182.0 50.1 180.2 46.95 176.75 55.55 181.05 65.3 180.0 66.1 177.9 67.9 175.45 71.8 170.0 77.0 168.5 72.25 172.6 70.8 174.55 68.35 177.8 69.7 182.8 72.75 193.55 96.55 194.55 104.1 195.0 113.55 194.2 L118.1 193.85 Q131.6 189.7 144.3 183.35 167.2 171.45 164.15 160.85 163.6 158.75 161.9 157.25 L158.95 154.85 Q155.25 152.55 150.8 152.25 150.2 154.65 149.0 156.45 L146.4 160.0 145.4 161.0 145.25 161.2 145.0 161.4 144.95 161.55 Q144.9 161.55 144.8 161.65 L144.75 161.65 Q140.6 165.6 134.6 168.85 139.7 163.45 141.2 160.65 144.65 154.85 143.2 149.75 141.25 143.1 134.2 139.85 127.7 136.85 119.05 137.45" fill="#c0d0ce" fill-rule="evenodd" stroke="none"/>
    <path d="M44.65 124.3 Q46.6 124.8 48.05 125.6 45.15 126.85 42.35 129.3 36.8 134.15 38.1 138.8 38.4 139.9 39.3 141.15 L41.05 143.0 Q38.95 138.15 42.05 134.0 45.25 129.75 51.0 128.05 49.8 126.9 49.05 125.1 48.4 124.0 48.2 123.0 47.1 114.7 54.25 107.8 60.2 102.35 68.2 100.25 76.5 98.1 84.45 100.1 93.55 102.45 96.45 109.35 L96.65 110.0 93.95 110.45 Q92.4 110.9 90.35 112.1 L91.9 111.8 97.2 112.1 Q100.75 112.75 103.35 114.65 105.9 116.5 106.6 119.1 107.85 123.35 105.4 127.15 103.0 130.8 97.5 133.05 L93.45 134.0 88.85 134.4 88.35 134.55 91.35 135.8 Q93.75 136.65 95.9 137.1 101.65 138.1 110.5 134.85 L112.1 136.85 Q112.65 137.8 112.65 139.2 113.95 138.7 116.05 138.15 L119.05 137.45 Q127.7 136.85 134.2 139.85 141.25 143.1 143.2 149.75 144.65 154.85 141.2 160.65 139.7 163.45 134.6 168.85 140.6 165.6 144.75 161.65 L144.8 161.65 Q144.9 161.55 144.95 161.55 L145.0 161.4 145.25 161.2 146.4 160.0 149.0 156.45 Q150.2 154.65 150.8 152.25 155.25 152.55 158.95 154.85 L161.9 157.25 Q163.6 158.75 164.15 160.85 167.2 171.45 144.3 183.35 131.6 189.7 118.1 193.85 L113.55 194.2 Q104.1 195.0 96.55 194.55 72.75 193.55 69.7 182.8 68.35 177.8 70.8 174.55 72.25 172.6 77.0 168.5 71.8 170.0 67.9 175.45 66.1 177.9 65.3 180.0 55.55 181.05 46.95 176.75 50.1 180.2 54.55 182.0 58.8 183.65 64.6 184.15 L64.75 185.05 Q59.6 188.05 58.25 188.65 53.95 190.95 50.85 191.75 37.8 195.05 27.35 191.8 15.05 188.0 11.65 175.95 10.2 170.95 10.75 165.1 11.25 159.2 13.55 156.5 L16.45 159.2 20.7 162.05 Q20.2 161.2 18.8 156.45 15.7 145.4 19.3 137.45 23.45 128.5 35.5 125.45 L38.5 124.9 44.65 124.3" fill="#ffffff" fill-rule="evenodd" stroke="none"/>
    <path d="M48.05 125.6 Q48.55 125.45 49.05 125.1 49.8 126.9 51.0 128.05 45.25 129.75 42.05 134.0 38.95 138.15 41.05 143.0 L39.3 141.15 Q38.4 139.9 38.1 138.8 36.8 134.15 42.35 129.3 45.15 126.85 48.05 125.6 M96.65 110.0 Q101.55 109.65 107.05 112.6 112.6 115.65 113.6 119.6 114.75 124.55 112.8 128.95 114.55 129.5 116.55 131.9 118.25 134.2 119.05 137.45 L116.05 138.15 Q113.95 138.7 112.65 139.2 112.65 137.8 112.1 136.85 L110.5 134.85 Q101.65 138.1 95.9 137.1 93.75 136.65 91.35 135.8 L88.35 134.55 88.85 134.4 93.45 134.0 97.5 133.05 Q103.0 130.8 105.4 127.15 107.85 123.35 106.6 119.1 105.9 116.5 103.35 114.65 100.75 112.75 97.2 112.1 L91.9 111.8 90.35 112.1 Q92.4 110.9 93.95 110.45 L96.65 110.0" fill="#dde7e6" fill-rule="evenodd" stroke="none"/>
    <path d="M72.9 363.7 L88.95 377.35 93.4 400.05 Q97.7 424.1 97.35 431.0 99.0 432.0 100.75 434.4 105.0 440.2 106.05 446.1 L107.5 454.8 Q108.65 462.8 107.95 465.05 96.3 472.3 95.9 472.25 64.85 480.95 46.2 480.6 33.3 480.75 23.45 476.0 L16.15 471.2 12.7 400.8 29.0 362.8 46.0 358.0 72.9 363.7" fill="#bd9542" fill-rule="evenodd" stroke="none"/>
    <path d="M72.9 363.7 L88.95 377.35 93.4 400.05 Q97.7 424.1 97.35 431.0 99.0 432.0 100.75 434.4 105.0 440.2 106.05 446.1 L107.5 454.8 Q108.65 462.8 107.95 465.05 96.3 472.3 95.9 472.25 64.85 480.95 46.2 480.6 33.3 480.75 23.45 476.0 L16.15 471.2 12.7 400.8 29.0 362.8 46.0 358.0 72.9 363.7 Z" fill="none" stroke="#84612e" stroke-linecap="round" stroke-linejoin="round" stroke-width="4.0"/>
    <path d="M82.1 375.7 L88.95 392.05 Q95.55 411.35 96.4 425.9 98.1 472.55 95.95 472.2 64.85 480.95 46.1 480.65 33.25 480.8 23.45 476.0 L16.1 471.2 Q14.6 436.0 12.7 400.85 L82.1 375.7" fill="#936b34" fill-rule="evenodd" stroke="none"/>
    <path d="M29.0 362.8 L34.3 374.8 36.6 388.0 36.65 398.4 Q36.6 410.25 35.5 418.3 34.05 426.45 29.0 424.15 25.85 422.55 23.0 418.75 L14.3 399.85 29.0 362.8" fill="#c6a473" fill-rule="evenodd" stroke="none"/>
    <path d="M29.0 362.8 Q37.5 360.6 46.0 358.0 L72.85 363.7 89.75 378.3 74.35 404.7 Q71.5 409.15 69.5 405.55 L56.75 386.3 48.8 385.85 31.45 376.7 29.0 362.8" fill="#e5d3ad" fill-rule="evenodd" stroke="none"/>
    <path d="M46.8 390.85 L56.35 388.15 56.2 403.6 34.0 426.1 51.15 478.7 30.65 423.15 43.4 400.05 46.8 390.85" fill="#c6a473" fill-rule="evenodd" stroke="none"/>
    <path d="M34.55 386.55 Q35.25 384.3 36.45 383.05 L37.4 382.15 50.1 389.25 49.5 406.15 Q43.75 414.4 37.65 422.3 L42.9 436.05 Q39.75 438.4 36.15 440.45 L30.95 427.0 34.55 386.55" fill="#e0c48f" fill-rule="evenodd" stroke="none"/>
    <path d="M62.45 398.15 Q61.05 392.3 64.4 393.2 67.0 393.4 70.85 397.0 71.35 397.7 80.4 387.75 89.45 377.8 89.7 378.25 92.75 393.4 98.75 430.6 L80.95 455.85 Q63.3 480.4 64.55 477.05 65.0 475.9 57.7 448.5 L71.6 429.5 69.95 399.75 62.45 398.15" fill="#ad9065" fill-rule="evenodd" stroke="none"/>
    <path d="M30.15 369.4 L31.45 376.7 48.8 385.85 55.85 384.95 62.35 392.45 73.0 393.8 86.75 380.7 73.3 399.9 60.5 394.95 56.4 388.15 50.05 389.8 30.85 379.7 30.15 369.4" fill="#fdfcfb" fill-rule="evenodd" stroke="none"/>
    <path d="M60.4 394.95 L72.8 399.95 71.9 427.35 55.7 420.9 60.4 394.95" fill="#c6a473" fill-rule="evenodd" stroke="none"/>
    <path d="M104.3 444.6 Q105.75 448.65 106.85 452.75 109.05 461.3 107.9 465.1 102.75 468.2 100.95 468.15 99.1 468.1 98.1 464.3 L91.6 455.8 Q86.45 449.15 87.9 441.0 90.1 439.2 97.3 441.5 101.15 443.0 104.3 444.6" fill="#c6a473" fill-rule="evenodd" stroke="none"/>
    <path d="M92.0 453.95 L93.9 454.7 Q95.85 455.75 96.85 457.35 97.75 458.3 103.6 460.85 105.35 462.7 102.9 464.9 L99.65 469.1 Q97.5 471.2 96.2 469.7 88.65 459.55 88.85 458.75 L92.0 453.95" fill="#e5d3ad" fill-rule="evenodd" stroke="none"/>
    <path d="M91.45 446.85 Q88.0 445.7 87.55 441.05 87.05 436.15 91.65 431.75 96.0 427.8 100.7 434.45 104.95 440.15 106.0 446.05 106.7 449.9 104.75 451.35 L101.2 451.25 Q100.25 449.95 95.6 448.25 93.7 447.5 91.45 446.85" fill="#d9bc88" fill-rule="evenodd" stroke="none"/>
    <path d="M35.95 497.45 L34.05 498.65 39.4 492.15 40.1 491.5 34.35 487.25 19.8 486.6 33.95 483.6 45.65 489.9 64.65 487.6 64.95 487.65 63.5 487.95 43.45 494.1 42.05 493.05 35.95 497.45" fill="#a05b10" fill-rule="evenodd" stroke="none"/>
    <path d="M63.5 487.95 L43.95 496.0 41.85 494.15 35.95 497.45 42.05 493.05 43.45 494.1 63.5 487.95" fill="#ffffff" fill-rule="evenodd" stroke="none"/>
    <path d="M45.35 468.45 Q54.7 469.9 54.35 470.15 L50.85 477.4 56.7 486.95 Q56.95 487.3 56.65 488.0 L41.75 490.6 45.35 468.45" fill="#a27f46" fill-rule="evenodd" stroke="none"/>
    <path d="M61.95 466.15 L63.65 472.25 Q65.45 478.95 64.75 482.05 61.4 484.45 60.15 484.3 58.9 484.3 58.15 481.3 L53.45 474.45 Q49.8 469.1 50.8 462.9 52.2 461.4 57.15 463.65 59.65 464.65 61.95 466.15" fill="#c6a473" fill-rule="evenodd" stroke="none"/>
    <path d="M36.05 467.35 L45.9 468.15 46.8 469.85 Q47.7 472.35 46.8 476.7 45.25 483.35 47.5 485.5 L44.7 488.45 41.75 490.6 38.45 487.1 36.05 467.35" fill="#e0c48f" fill-rule="evenodd" stroke="none"/>
    <path d="M54.25 487.4 L53.05 486.55 Q52.3 485.65 49.9 485.05 47.5 484.2 47.4 481.35 L47.7 478.4 49.0 476.3 Q50.25 474.15 51.15 473.4 52.15 472.8 53.4 473.0 L54.3 473.25 60.3 485.1 Q57.0 488.75 54.25 487.4" fill="#84612e" fill-rule="evenodd" stroke="none"/>
    <path d="M61.35 481.75 L59.4 484.85 Q57.85 486.55 57.0 485.25 51.55 477.9 51.75 476.65 L53.6 472.95 55.0 473.75 Q56.35 474.6 57.0 475.7 58.35 477.55 61.65 478.8 62.9 479.85 61.35 481.75" fill="#e5d3ad" fill-rule="evenodd" stroke="none"/>
    <path d="M29.65 461.85 Q29.25 458.4 33.6 463.05 L37.85 468.25 37.85 475.35 Q38.1 482.75 39.7 485.8 42.8 491.7 39.95 490.95 36.9 490.25 35.5 488.0 34.95 487.3 31.95 485.5 29.0 483.95 28.8 482.95 28.5 481.15 28.5 476.55 28.65 471.4 29.4 469.75 30.2 468.4 29.95 464.9 L29.65 461.85" fill="#c6a473" fill-rule="evenodd" stroke="none"/>
    <path d="M59.55 458.25 Q62.35 462.5 63.15 467.15 63.7 470.15 62.45 471.2 61.2 472.45 60.05 471.0 59.1 470.15 56.2 468.8 L53.25 467.45 Q51.0 466.35 50.6 462.95 50.15 459.1 53.05 455.85 56.05 452.85 59.55 458.25" fill="#d9bc88" fill-rule="evenodd" stroke="none"/>
    <path d="M36.4 454.25 L44.85 452.75 56.7 455.4 52.95 464.55 49.9 469.7 48.05 466.25 35.15 465.85 29.65 460.6 36.4 454.25" fill="#e5d3ad" fill-rule="evenodd" stroke="none"/>
    <path d="M51.45 470.25 L46.15 468.5 37.85 468.25 33.15 464.15 37.45 466.05 45.5 465.7 49.95 466.55 56.2 457.2 51.45 470.25" fill="#f2ede4" fill-rule="evenodd" stroke="none"/>
    <path d="M667.35 361.2 Q669.65 355.4 673.2 360.1 677.05 367.2 674.2 380.3 L674.15 380.45 672.75 386.0 672.2 387.75 Q664.5 413.4 653.55 415.55 L653.2 430.8 656.45 428.1 659.15 425.45 Q659.1 425.05 659.4 424.55 660.0 423.55 660.75 422.8 L661.75 421.9 661.85 421.85 Q662.2 421.9 662.2 423.15 L662.2 423.5 Q663.6 422.95 664.1 423.9 665.15 425.35 663.6 429.2 L663.0 430.35 662.9 430.45 Q661.8 432.85 660.5 434.75 659.65 436.4 657.65 438.75 655.4 441.75 652.9 443.6 L652.9 456.85 Q652.65 459.75 649.55 462.55 L648.3 463.5 Q645.35 465.55 641.75 466.0 637.1 466.4 630.65 464.7 623.45 462.8 621.4 457.55 620.15 454.0 620.75 445.3 614.7 445.4 611.5 442.4 608.4 439.6 606.95 433.2 605.35 424.75 606.5 416.05 608.2 403.05 615.75 389.7 620.15 384.75 619.65 392.6 L618.5 399.5 Q618.2 404.3 618.9 407.2 L619.3 406.75 Q620.2 405.8 620.45 405.9 L620.45 406.0 620.7 407.5 620.45 410.05 620.45 410.4 Q621.9 412.05 624.3 412.0 626.25 395.45 631.05 377.3 L631.55 375.8 Q634.95 362.35 640.4 359.7 642.25 358.6 644.65 359.15 L645.75 359.45 Q650.65 361.5 652.7 371.85 653.4 371.25 653.7 371.4 L653.7 371.55 653.75 372.8 653.7 375.0 653.4 375.75 Q654.1 381.1 654.2 388.3 659.4 387.55 663.75 373.65 663.0 373.45 663.05 372.65 663.1 371.0 663.8 369.75 664.3 368.7 664.65 368.75 L664.65 368.95 664.95 369.6 666.35 364.0 Q666.75 362.4 667.35 361.2" fill="#5b9311" fill-rule="evenodd" stroke="none"/>
    <path d="M667.35 361.2 Q669.65 355.4 673.2 360.1 677.05 367.2 674.2 380.3 L674.15 380.45 672.75 386.0 672.2 387.75 Q664.5 413.4 653.55 415.55 L653.2 430.8 656.45 428.1 659.15 425.45 Q659.1 425.05 659.4 424.55 660.0 423.55 660.75 422.8 L661.75 421.9 661.85 421.85 Q662.2 421.9 662.2 423.15 L662.2 423.5 Q663.6 422.95 664.1 423.9 665.15 425.35 663.6 429.2 L663.0 430.35 662.9 430.45 Q661.8 432.85 660.5 434.75 659.65 436.4 657.65 438.75 655.4 441.75 652.9 443.6 L652.9 456.85 Q652.65 459.75 649.55 462.55 L648.3 463.5 Q645.35 465.55 641.75 466.0 637.1 466.4 630.65 464.7 623.45 462.8 621.4 457.55 620.15 454.0 620.75 445.3 614.7 445.4 611.5 442.4 608.4 439.6 606.95 433.2 605.35 424.75 606.5 416.05 608.2 403.05 615.75 389.7 620.15 384.75 619.65 392.6 L618.5 399.5 Q618.2 404.3 618.9 407.2 L619.3 406.75 Q620.2 405.8 620.45 405.9 L620.45 406.0 620.7 407.5 620.45 410.05 620.45 410.4 Q621.9 412.05 624.3 412.0 626.25 395.45 631.05 377.3 L631.55 375.8 Q634.95 362.35 640.4 359.7 642.25 358.6 644.65 359.15 L645.75 359.45 Q650.65 361.5 652.7 371.85 653.4 371.25 653.7 371.4 L653.7 371.55 653.75 372.8 653.7 375.0 653.4 375.75 Q654.1 381.1 654.2 388.3 659.4 387.55 663.75 373.65 663.0 373.45 663.05 372.65 663.1 371.0 663.8 369.75 664.3 368.7 664.65 368.75 L664.65 368.95 664.95 369.6 666.35 364.0 Q666.75 362.4 667.35 361.2 Z" fill="none" stroke="#305400" stroke-linecap="round" stroke-linejoin="round" stroke-width="3.5"/>
    <path d="M668.85 365.9 L669.0 367.15 Q669.2 368.65 668.85 371.75 668.4 375.3 667.65 377.15 666.8 379.7 666.05 380.9 664.4 383.85 661.85 383.3 663.45 381.55 665.1 375.65 666.55 369.7 667.5 367.35 L667.9 366.5 668.45 365.7 668.85 365.9" fill="#98d951" fill-rule="evenodd" stroke="none"/>
    <path d="M668.85 365.9 L668.45 365.7 667.9 366.5 667.5 367.35 Q666.55 369.7 665.1 375.65 663.45 381.55 661.85 383.3 664.4 383.85 666.05 380.9 666.8 379.7 667.65 377.15 668.4 375.3 668.85 371.75 669.2 368.65 669.0 367.15 L668.85 365.9 M654.25 388.3 Q661.0 387.35 666.35 363.9 L667.35 361.15 Q669.6 359.15 670.6 360.65 672.85 363.9 671.95 372.1 671.6 382.8 663.6 395.1 657.8 400.4 654.3 396.4 L654.25 388.3" fill="#86c740" fill-rule="evenodd" stroke="none"/>
    <path d="M648.0 375.0 Q649.3 381.4 649.55 386.45 L650.1 399.1 Q650.2 410.5 648.75 414.7 L647.5 417.0 Q646.7 418.05 645.75 417.7 643.7 417.0 642.35 409.55 640.9 402.8 640.45 393.3 640.0 383.9 640.7 376.75 641.3 369.0 643.35 367.5 646.0 365.4 648.0 375.0 M648.0 378.5 Q646.85 370.9 644.45 372.45 642.9 373.55 642.15 379.75 641.3 385.3 641.5 392.95 641.55 400.55 642.35 406.0 643.15 411.95 644.75 412.7 645.55 413.0 646.25 412.15 L647.35 410.35 Q648.6 407.1 648.85 397.85 L648.9 387.75 Q648.9 383.8 648.0 378.5" fill="#94d455" fill-rule="evenodd" stroke="none"/>
    <path d="M654.25 388.3 L654.3 396.4 653.95 410.4 Q653.7 412.8 653.6 415.45 L653.6 415.55 653.2 430.8 Q652.1 431.6 650.6 432.0 L646.15 432.55 645.45 432.25 643.0 432.1 641.8 432.0 641.5 432.0 639.1 432.5 Q637.6 433.25 636.65 435.25 635.1 438.2 635.95 442.2 636.3 444.75 637.45 446.25 638.5 447.5 640.2 448.4 642.95 449.6 646.2 448.1 648.4 447.2 652.95 443.6 L652.95 456.8 Q652.7 459.75 649.6 462.55 L648.35 463.5 643.65 463.25 Q636.05 460.75 633.5 449.2 630.45 425.2 631.4 397.45 632.25 370.7 640.45 359.7 642.35 358.6 644.7 359.15 L645.8 359.45 Q653.7 362.8 654.25 388.3 M648.0 375.0 Q646.0 365.4 643.35 367.5 641.3 369.0 640.7 376.75 640.0 383.9 640.45 393.3 640.9 402.8 642.35 409.55 643.7 417.0 645.75 417.7 646.7 418.05 647.5 417.0 L648.75 414.7 Q650.2 410.5 650.1 399.1 L649.55 386.45 Q649.3 381.4 648.0 375.0" fill="#7eba2f" fill-rule="evenodd" stroke="none"/>
    <path d="M648.0 378.5 Q648.9 383.8 648.9 387.75 L648.85 397.85 Q648.6 407.1 647.35 410.35 L646.25 412.15 Q645.55 413.0 644.75 412.7 643.15 411.95 642.35 406.0 641.55 400.55 641.5 392.95 641.3 385.3 642.15 379.75 642.9 373.55 644.45 372.45 646.85 370.9 648.0 378.5" fill="#a0e05e" fill-rule="evenodd" stroke="none"/>
    <path d="M674.15 380.45 L672.75 385.95 672.25 387.75 Q664.5 413.4 653.6 415.55 L653.6 415.45 Q653.7 412.8 653.95 410.4 659.35 410.8 666.9 398.2 670.75 391.95 674.15 380.45" fill="#3c6b00" fill-rule="evenodd" stroke="none"/>
    <path d="M654.3 396.4 Q657.8 400.4 663.6 395.1 671.6 382.8 671.95 372.1 672.85 363.9 670.6 360.65 669.6 359.15 667.35 361.15 669.7 355.4 673.2 360.1 677.15 367.2 674.25 380.3 L674.15 380.45 Q670.75 391.95 666.9 398.2 659.35 410.8 653.95 410.4 L654.3 396.4" fill="#559109" fill-rule="evenodd" stroke="none"/>
    <path d="M656.45 428.1 L659.4 425.25 Q663.15 422.15 664.15 423.9 665.15 425.35 663.6 429.2 L663.0 430.35 662.95 430.45 Q661.35 433.05 656.3 438.25 651.15 443.35 645.9 442.9 640.55 442.4 639.6 440.25 638.75 438.05 638.95 436.4 638.85 435.45 639.55 434.45 640.15 433.45 641.5 432.0 L641.8 432.0 643.0 432.1 645.45 432.25 646.15 432.55 Q644.35 433.4 644.05 434.2 643.7 435.25 644.15 435.8 644.45 436.2 645.55 436.55 648.25 437.55 652.3 435.25 656.2 433.0 657.3 430.4 L657.65 428.75 657.1 428.1 656.45 428.1" fill="#85b424" fill-rule="evenodd" stroke="none"/>
    <path d="M653.2 430.8 L656.45 428.1 657.1 428.1 657.65 428.75 657.3 430.4 Q656.2 433.0 652.3 435.25 648.25 437.55 645.55 436.55 644.45 436.2 644.15 435.8 643.7 435.25 644.05 434.2 644.35 433.4 646.15 432.55 L650.6 432.0 Q652.1 431.6 653.2 430.8" fill="#b1d943" fill-rule="evenodd" stroke="none"/>
    <path d="M662.95 430.45 L660.5 434.75 Q659.75 436.4 657.7 438.75 655.45 441.6 652.95 443.6 648.4 447.2 646.2 448.1 642.95 449.6 640.2 448.4 638.5 447.5 637.45 446.25 636.3 444.75 635.95 442.2 635.1 438.2 636.65 435.25 637.6 433.25 639.1 432.5 L641.5 432.0 Q640.15 433.45 639.55 434.45 638.85 435.45 638.95 436.4 638.75 438.05 639.6 440.25 640.55 442.4 645.9 442.9 651.15 443.35 656.3 438.25 661.35 433.05 662.95 430.45" fill="#538710" fill-rule="evenodd" stroke="none"/>
    <path d="M606.55 416.05 Q608.2 403.0 615.75 389.65 620.2 384.7 619.65 392.6 619.35 391.45 618.7 392.05 613.7 400.2 612.2 409.2 611.1 414.7 612.3 418.25 613.35 421.4 616.7 422.85 620.2 424.35 623.8 416.45 L622.35 428.8 Q621.7 434.2 621.35 438.8 607.55 442.95 606.55 416.05" fill="#477005" fill-rule="evenodd" stroke="none"/>
    <path d="M619.65 392.6 Q619.45 395.3 618.55 399.5 617.65 412.2 624.3 412.0 L623.8 416.45 Q620.2 424.35 616.7 422.85 613.35 421.4 612.3 418.25 611.1 414.7 612.2 409.2 613.7 400.2 618.7 392.05 619.35 391.45 619.65 392.6" fill="#81ad26" fill-rule="evenodd" stroke="none"/>
    <path d="M648.35 463.5 Q645.35 465.5 641.8 466.0 637.15 466.4 630.7 464.7 623.5 462.8 621.45 457.55 620.2 454.0 620.8 445.3 620.9 442.35 621.35 438.8 621.7 434.2 622.35 428.8 L623.8 416.45 624.3 412.0 Q626.3 395.45 631.05 377.3 L631.6 375.75 Q635.0 362.35 640.45 359.7 632.25 370.7 631.4 397.45 630.45 425.2 633.5 449.2 636.05 460.75 643.65 463.25 L648.35 463.5" fill="#467f09" fill-rule="evenodd" stroke="none"/>
    <path d="M620.8 445.3 Q614.7 445.35 611.55 442.4 608.45 439.6 606.95 433.2 605.35 424.75 606.55 416.05 607.55 442.95 621.35 438.8 620.9 442.35 620.8 445.3" fill="#365800" fill-rule="evenodd" stroke="none"/>
    <path d="M617.9 429.1 L617.9 428.9 Q617.6 428.9 617.65 428.1 L617.9 427.0 618.0 428.35 617.9 429.1" fill="#3c8009" fill-rule="evenodd" stroke="none"/>
    <path d="M614.45 437.5 L614.2 437.5 Q613.45 437.75 613.05 436.7 612.75 435.05 613.0 433.75 613.25 432.5 613.55 432.55 L613.65 432.65 Q613.5 432.6 613.4 433.8 613.35 434.9 613.7 436.15 613.95 437.3 614.45 437.5" fill="#1a3f00" fill-rule="evenodd" stroke="none"/>
    <path d="M613.65 432.65 L614.45 433.75 615.4 435.75 Q615.8 436.8 614.75 437.3 L614.45 437.5 Q613.95 437.3 613.7 436.15 613.35 434.9 613.4 433.8 613.5 432.6 613.65 432.65" fill="#275b00" fill-rule="evenodd" stroke="none"/>
    <path d="M634.6 402.85 L635.95 404.4 Q637.05 405.9 637.6 407.85 638.3 409.65 636.7 410.4 L636.05 410.75 Q635.05 410.5 634.6 408.7 634.0 406.6 634.2 404.7 L634.6 402.85 M636.4 406.55 L635.35 404.35 636.15 407.2 636.8 408.95 Q636.7 408.6 637.0 408.45 637.35 408.45 636.4 406.55" fill="#3d8e01" fill-rule="evenodd" stroke="none"/>
    <path d="M636.05 410.75 L635.5 410.85 Q634.15 411.2 633.6 409.6 633.05 406.85 633.6 404.75 633.9 402.6 634.45 402.65 L634.6 402.85 634.2 404.7 Q634.0 406.6 634.6 408.7 635.05 410.5 636.05 410.75" fill="#255800" fill-rule="evenodd" stroke="none"/>
    <path d="M636.4 406.55 Q637.35 408.45 637.0 408.45 636.7 408.6 636.8 408.95 L636.15 407.2 635.35 404.35 636.4 406.55" fill="#69cd1e" fill-rule="evenodd" stroke="none"/>
    <path d="M627.8 438.5 Q627.15 438.4 626.85 437.3 626.5 436.15 626.75 434.8 L626.85 433.75 627.65 434.7 628.7 436.7 Q629.15 437.85 628.1 438.4 L627.8 438.5 M628.3 437.1 Q628.6 437.1 627.95 436.0 627.45 434.8 627.15 434.65 L627.8 436.4 628.2 437.3 628.3 437.1" fill="#275b00" fill-rule="evenodd" stroke="none"/>
    <path d="M626.85 433.75 L626.75 434.8 Q626.5 436.15 626.85 437.3 627.15 438.4 627.8 438.5 L627.45 438.6 Q626.45 438.8 626.25 437.85 625.9 436.2 626.2 434.8 626.45 433.55 626.8 433.75 L626.85 433.75" fill="#1a3f00" fill-rule="evenodd" stroke="none"/>
    <path d="M628.3 437.1 L628.2 437.3 627.8 436.4 627.15 434.65 Q627.45 434.8 627.95 436.0 628.6 437.1 628.3 437.1" fill="#3c8009" fill-rule="evenodd" stroke="none"/>
    <path d="M618.0 443.25 L618.0 442.4 618.05 441.3 Q618.05 442.15 618.2 442.7 L618.1 443.3 Q618.1 443.2 618.0 443.25" fill="#3c8009" fill-rule="evenodd" stroke="none"/>
    <path d="M608.9 427.7 L608.9 427.75 608.4 427.75 Q607.75 427.65 607.65 426.75 L607.9 425.35 608.2 424.45 608.65 425.2 608.9 426.7 608.9 427.7 M607.95 426.15 Q607.95 427.05 608.1 427.05 L608.15 427.1 608.2 426.4 608.15 425.1 607.95 426.15" fill="#275b00" fill-rule="evenodd" stroke="none"/>
    <path d="M607.95 426.15 L608.15 425.1 608.2 426.4 608.15 427.1 608.1 427.05 Q607.95 427.05 607.95 426.15" fill="#3c8009" fill-rule="evenodd" stroke="none"/>
    <path d="M608.2 424.45 Q608.5 424.2 608.9 425.05 609.4 425.8 609.5 427.05 609.5 427.7 608.9 427.7 L608.9 426.7 608.65 425.2 608.2 424.45" fill="#1a3f00" fill-rule="evenodd" stroke="none"/>
    <path d="M628.25 453.1 Q628.1 452.75 628.4 452.65 628.75 452.65 627.8 450.7 L626.65 448.3 627.6 451.4 628.25 453.1 M625.95 446.85 L627.35 448.65 629.15 452.05 Q629.8 453.9 628.2 454.75 L627.45 454.95 Q626.45 454.8 625.95 452.75 625.45 450.9 625.65 448.85 625.8 446.8 625.95 446.85" fill="#275b00" fill-rule="evenodd" stroke="none"/>
    <path d="M628.25 453.1 L627.6 451.4 626.65 448.3 627.8 450.7 Q628.75 452.65 628.4 452.65 628.1 452.75 628.25 453.1" fill="#3c8009" fill-rule="evenodd" stroke="none"/>
    <path d="M627.45 454.95 L626.95 455.1 Q625.45 455.45 624.95 453.85 624.35 451.1 624.9 448.85 625.3 446.8 625.9 446.8 L625.95 446.85 Q625.8 446.8 625.65 448.85 625.45 450.9 625.95 452.75 626.45 454.8 627.45 454.95" fill="#1a3f00" fill-rule="evenodd" stroke="none"/>
    <path d="M640.1 454.2 L640.65 456.1 Q640.8 458.05 640.45 460.05 640.2 462.05 639.1 462.4 L638.6 462.15 Q636.75 461.4 637.35 459.55 637.85 457.55 638.8 456.05 639.8 454.25 640.1 454.2 M638.8 458.8 L639.5 455.75 Q639.2 456.1 638.45 458.05 637.75 460.1 638.1 460.1 L638.4 460.35 638.8 458.8" fill="#275b00" fill-rule="evenodd" stroke="none"/>
    <path d="M640.1 454.2 L640.2 454.0 Q640.75 453.95 641.3 456.0 642.0 458.2 641.65 460.95 641.3 462.65 639.7 462.5 L639.1 462.4 Q640.2 462.05 640.45 460.05 640.8 458.05 640.65 456.1 L640.1 454.2" fill="#1a3f00" fill-rule="evenodd" stroke="none"/>
    <path d="M638.8 458.8 L638.4 460.35 638.1 460.1 Q637.75 460.1 638.45 458.05 639.2 456.1 639.5 455.75 L638.8 458.8" fill="#3c8009" fill-rule="evenodd" stroke="none"/>
    <path d="M645.45 444.05 Q645.15 444.05 645.7 442.75 646.15 441.45 646.35 441.25 L645.95 443.1 645.6 444.15 645.45 444.05" fill="#3c8009" fill-rule="evenodd" stroke="none"/>
    <path d="M649.65 407.4 L649.0 407.15 Q646.95 406.35 647.55 404.25 648.2 402.05 649.1 400.2 L650.65 398.2 650.7 398.2 651.3 400.3 Q651.5 402.65 651.1 404.8 650.8 407.15 649.65 407.4 M648.75 405.35 L649.3 403.4 650.05 399.85 648.85 402.6 Q648.0 404.8 648.4 404.95 648.75 404.9 648.75 405.35" fill="#5fa32b" fill-rule="evenodd" stroke="none"/>
    <path d="M649.65 407.4 Q650.8 407.15 651.1 404.8 651.5 402.65 651.3 400.3 L650.7 398.2 650.85 398.0 Q651.35 397.95 651.95 400.2 652.75 402.7 652.35 405.85 651.9 407.7 650.25 407.45 L649.65 407.4" fill="#2d6d00" fill-rule="evenodd" stroke="none"/>
    <path d="M648.75 405.35 Q648.75 404.9 648.4 404.95 648.0 404.8 648.85 402.6 L650.05 399.85 649.3 403.4 648.75 405.35" fill="#92d95d" fill-rule="evenodd" stroke="none"/>
    <path d="M659.6 404.35 L659.4 404.35 Q658.25 403.8 658.6 402.8 L659.5 400.6 Q660.0 399.7 660.25 399.5 L660.45 400.7 Q660.65 401.95 660.45 403.1 660.3 404.35 659.6 404.35 M659.25 401.9 Q658.85 403.1 659.05 403.15 L659.15 403.3 659.4 402.3 659.9 400.45 659.25 401.9" fill="#275b00" fill-rule="evenodd" stroke="none"/>
    <path d="M659.25 401.9 L659.9 400.45 659.4 402.3 659.15 403.3 659.05 403.15 Q658.85 403.1 659.25 401.9" fill="#3c8009" fill-rule="evenodd" stroke="none"/>
    <path d="M660.25 399.5 Q660.6 399.4 660.9 400.75 661.35 401.9 661.1 403.5 660.85 404.55 660.0 404.45 L659.6 404.35 Q660.3 404.35 660.45 403.1 660.65 401.95 660.45 400.7 L660.25 399.5" fill="#1a3f00" fill-rule="evenodd" stroke="none"/>
    <path d="M637.3 392.95 L636.75 393.95 Q636.35 395.15 636.3 396.35 636.4 397.6 636.9 397.8 L636.65 397.8 Q635.7 397.7 635.7 396.7 635.7 395.05 636.3 393.9 636.9 392.8 637.1 392.9 L637.3 392.95" fill="#5ea11f" fill-rule="evenodd" stroke="none"/>
    <path d="M637.65 395.4 L637.5 394.0 637.55 395.8 637.55 396.9 Q637.6 396.6 637.85 396.65 L637.65 395.4 M637.3 392.95 L637.75 394.1 638.25 396.35 Q638.4 397.5 637.3 397.8 L636.9 397.8 Q636.4 397.6 636.3 396.35 636.35 395.15 636.75 393.95 L637.3 392.95" fill="#94d455" fill-rule="evenodd" stroke="none"/>
    <path d="M637.65 395.4 L637.85 396.65 Q637.6 396.6 637.55 396.9 L637.55 395.8 637.5 394.0 637.65 395.4" fill="#cdf5af" fill-rule="evenodd" stroke="none"/>
    <path d="M662.4 384.8 L662.45 384.7 Q662.9 384.7 663.2 385.95 663.55 387.4 663.35 389.25 663.1 390.25 662.1 390.2 L661.8 390.15 Q662.5 390.0 662.7 388.7 662.9 387.4 662.7 386.1 L662.4 384.8" fill="#518322" fill-rule="evenodd" stroke="none"/>
    <path d="M662.4 384.8 L662.7 386.1 Q662.9 387.4 662.7 388.7 662.5 390.0 661.8 390.15 L661.4 390.0 Q660.4 389.6 660.6 388.35 661.0 387.0 661.6 386.05 L662.4 384.8 M661.15 388.7 L661.2 389.05 661.65 387.8 662.1 385.75 661.4 387.35 Q661.0 388.7 661.15 388.7" fill="#78af41" fill-rule="evenodd" stroke="none"/>
    <path d="M661.15 388.7 Q661.0 388.7 661.4 387.35 L662.1 385.75 661.65 387.8 661.2 389.05 661.15 388.7" fill="#cdf5af" fill-rule="evenodd" stroke="none"/>
    <path d="M620.6 406.0 L620.8 407.5 Q620.9 408.7 620.6 410.05 620.35 411.2 619.25 411.2 L618.8 411.2 Q618.3 410.65 618.6 409.35 619.0 408.1 619.7 406.95 L620.6 406.0 M620.05 409.15 L619.7 410.3 620.15 410.1 620.3 408.8 620.55 407.2 620.05 409.15" fill="#78af41" fill-rule="evenodd" stroke="none"/>
    <path d="M618.8 411.2 L618.4 411.05 Q617.45 410.75 617.8 409.65 618.35 407.9 619.4 406.75 620.3 405.75 620.6 405.9 L620.6 406.0 619.7 406.95 Q619.0 408.1 618.6 409.35 618.3 410.65 618.8 411.2" fill="#518322" fill-rule="evenodd" stroke="none"/>
    <path d="M620.05 409.15 L620.55 407.2 620.3 408.8 620.15 410.1 619.7 410.3 620.05 409.15" fill="#cdf5af" fill-rule="evenodd" stroke="none"/>
    <path d="M613.4 413.15 L613.0 411.4 613.05 413.65 613.15 414.75 613.35 414.6 Q613.55 414.6 613.4 413.15 M612.85 410.3 L613.35 411.6 613.95 414.3 Q614.1 415.55 612.8 415.9 L612.25 415.9 Q611.65 415.55 611.65 414.2 611.65 412.8 612.2 411.45 612.75 410.15 612.85 410.3" fill="#3d8e01" fill-rule="evenodd" stroke="none"/>
    <path d="M613.4 413.15 Q613.55 414.6 613.35 414.6 L613.15 414.75 613.05 413.65 613.0 411.4 613.4 413.15" fill="#69cd1e" fill-rule="evenodd" stroke="none"/>
    <path d="M612.25 415.9 L612.0 415.9 Q610.95 415.9 610.75 414.65 610.95 412.7 611.7 411.35 612.25 410.0 612.75 410.1 L612.85 410.3 Q612.75 410.15 612.2 411.45 611.65 412.8 611.65 414.2 611.65 415.55 612.25 415.9" fill="#255800" fill-rule="evenodd" stroke="none"/>
    <path d="M636.8 420.45 Q636.7 420.15 637.0 420.15 637.5 420.0 638.6 422.05 640.15 424.35 640.45 427.55 640.7 429.5 638.85 429.8 L638.2 429.85 Q639.4 429.25 639.05 426.9 638.85 424.6 637.95 422.4 637.0 420.15 636.8 420.45" fill="#255800" fill-rule="evenodd" stroke="none"/>
    <path d="M636.8 420.45 Q637.0 420.15 637.95 422.4 638.85 424.6 639.05 426.9 639.4 429.25 638.2 429.85 L637.5 429.85 Q635.25 429.5 635.35 427.25 635.35 424.85 635.95 422.75 636.6 420.55 636.8 420.45 M636.75 428.05 L636.7 425.95 636.7 422.35 Q636.45 422.8 636.25 425.35 636.0 427.75 636.3 427.6 636.75 427.6 636.75 428.05" fill="#3d8e01" fill-rule="evenodd" stroke="none"/>
    <path d="M636.75 428.05 Q636.75 427.6 636.3 427.6 636.0 427.75 636.25 425.35 636.45 422.8 636.7 422.35 L636.7 425.95 636.75 428.05" fill="#69cd1e" fill-rule="evenodd" stroke="none"/>
    <path d="M647.45 412.7 L647.55 412.55 Q648.0 412.5 648.65 414.4 649.15 416.5 648.85 419.2 648.4 420.75 647.0 420.5 L646.5 420.4 Q647.45 420.15 647.95 418.3 648.2 416.45 647.8 414.4 L647.45 412.7" fill="#255800" fill-rule="evenodd" stroke="none"/>
    <path d="M647.45 412.7 L647.8 414.4 Q648.2 416.45 647.95 418.3 647.45 420.15 646.5 420.4 L645.95 420.15 Q644.35 419.45 644.85 417.8 645.4 415.9 646.25 414.3 L647.45 412.7 M646.2 417.0 L646.9 414.1 Q646.55 414.55 645.95 416.45 645.15 418.25 645.55 418.2 L645.75 418.7 646.2 417.0" fill="#3d8e01" fill-rule="evenodd" stroke="none"/>
    <path d="M646.2 417.0 L645.75 418.7 645.55 418.2 Q645.15 418.25 645.95 416.45 646.55 414.55 646.9 414.1 L646.2 417.0" fill="#69cd1e" fill-rule="evenodd" stroke="none"/>
    <path d="M652.2 376.1 L651.9 376.0 Q651.0 375.75 651.3 374.75 651.85 373.1 652.5 372.1 653.5 371.2 653.75 371.35 L653.75 371.55 653.1 372.3 652.05 374.5 Q651.75 375.65 652.2 376.1" fill="#5ea11f" fill-rule="evenodd" stroke="none"/>
    <path d="M653.75 371.55 L653.95 372.8 653.75 375.0 Q653.6 376.0 652.45 376.2 L652.2 376.1 Q651.75 375.65 652.05 374.5 L653.1 372.3 653.75 371.55 M653.6 373.95 L653.6 372.45 653.2 374.35 653.05 375.3 Q653.1 375.05 653.35 375.2 L653.6 373.95" fill="#94d455" fill-rule="evenodd" stroke="none"/>
    <path d="M653.6 373.95 L653.35 375.2 Q653.1 375.05 653.05 375.3 L653.2 374.35 653.6 372.45 653.6 373.95" fill="#cdf5af" fill-rule="evenodd" stroke="none"/>
    <path d="M664.45 373.7 Q663.85 373.45 663.9 372.3 663.9 371.05 664.2 369.9 664.7 368.7 664.75 368.9 L665.35 370.05 665.75 372.3 Q665.85 373.45 664.8 373.7 L664.45 373.7 M665.25 372.55 L665.2 371.35 Q665.15 370.1 664.9 369.9 L665.0 371.55 665.1 372.65 665.25 372.55" fill="#94d455" fill-rule="evenodd" stroke="none"/>
    <path d="M664.75 368.9 Q664.7 368.7 664.2 369.9 663.9 371.05 663.9 372.3 663.85 373.45 664.45 373.7 L664.2 373.7 Q663.1 373.65 663.15 372.6 663.3 371.0 663.9 369.75 664.4 368.7 664.75 368.75 L664.75 368.9" fill="#5ea11f" fill-rule="evenodd" stroke="none"/>
    <path d="M665.25 372.55 L665.1 372.65 665.0 371.55 664.9 369.9 Q665.15 370.1 665.2 371.35 L665.25 372.55" fill="#cdf5af" fill-rule="evenodd" stroke="none"/>
    <path d="M633.1 382.45 L632.75 382.45 Q631.8 382.5 631.75 381.4 631.95 379.85 632.4 378.65 633.05 377.5 633.4 377.6 L633.4 377.7 Q633.3 377.55 632.85 378.65 L632.6 381.05 Q632.55 382.2 633.1 382.45" fill="#5ea11f" fill-rule="evenodd" stroke="none"/>
    <path d="M633.4 377.7 L633.95 378.9 634.45 381.1 Q634.45 382.15 633.45 382.45 L633.1 382.45 Q632.55 382.2 632.6 381.05 L632.85 378.65 Q633.3 377.55 633.4 377.7 M633.6 378.65 L633.6 380.45 633.65 381.55 Q633.75 381.25 633.95 381.25 L633.95 380.1 633.6 378.65" fill="#94d455" fill-rule="evenodd" stroke="none"/>
    <path d="M633.6 378.65 L633.95 380.1 633.95 381.25 Q633.75 381.25 633.65 381.55 L633.6 380.45 633.6 378.65" fill="#cdf5af" fill-rule="evenodd" stroke="none"/>
    <path d="M651.35 433.85 L650.95 433.8 Q650.1 433.45 650.25 432.5 650.7 430.8 651.75 429.85 652.45 428.9 652.8 429.1 L652.8 429.3 Q652.75 429.2 652.05 430.15 L651.1 432.2 Q650.8 433.4 651.35 433.85" fill="#5ea11f" fill-rule="evenodd" stroke="none"/>
    <path d="M652.8 429.3 L653.05 430.55 652.85 432.85 Q652.75 433.95 651.55 433.85 L651.35 433.85 Q650.8 433.4 651.1 432.2 L652.05 430.15 Q652.75 429.2 652.8 429.3 M652.35 432.85 L652.75 431.7 652.7 430.2 652.35 432.1 652.05 433.15 652.35 432.85" fill="#94d455" fill-rule="evenodd" stroke="none"/>
    <path d="M652.35 432.85 L652.05 433.15 652.35 432.1 652.7 430.2 652.75 431.7 652.35 432.85" fill="#cdf5af" fill-rule="evenodd" stroke="none"/>
    <path d="M661.8 421.9 L662.05 421.85 Q662.35 421.9 662.35 423.1 662.3 424.5 661.7 426.0 661.2 427.0 660.3 426.45 L660.25 426.4 Q660.8 426.4 661.2 425.4 661.7 424.45 661.8 423.1 662.05 421.9 661.8 421.9" fill="#5ea11f" fill-rule="evenodd" stroke="none"/>
    <path d="M660.25 426.4 L659.85 426.25 Q658.95 425.55 659.55 424.55 L660.85 422.75 Q661.7 421.9 661.8 421.9 662.05 421.9 661.8 423.1 661.7 424.45 661.2 425.4 660.8 426.4 660.25 426.4 M660.45 424.35 L661.4 422.7 660.4 423.95 Q659.65 425.0 659.85 425.0 L660.0 425.25 660.45 424.35" fill="#94d455" fill-rule="evenodd" stroke="none"/>
    <path d="M660.45 424.35 L660.0 425.25 659.85 425.0 Q659.65 425.0 660.4 423.95 L661.4 422.7 660.45 424.35" fill="#cdf5af" fill-rule="evenodd" stroke="none"/>
    <path d="M625.1 424.15 L624.8 424.15 Q623.65 424.5 623.3 423.3 622.95 421.4 623.35 419.9 623.6 418.55 623.95 418.55 L624.05 418.65 Q623.95 418.55 623.75 420.0 623.65 421.3 624.05 422.7 624.3 424.1 625.1 424.15" fill="#255800" fill-rule="evenodd" stroke="none"/>
    <path d="M624.05 418.65 L625.0 419.9 Q625.8 420.8 626.2 422.1 626.65 423.5 625.5 424.0 L625.1 424.15 Q624.3 424.1 624.05 422.7 623.65 421.3 623.75 420.0 623.95 418.55 624.05 418.65 M625.55 422.95 Q625.45 422.6 625.65 422.6 626.0 422.6 625.3 421.3 L624.6 419.75 625.25 421.7 Q625.25 422.35 625.55 422.95" fill="#3d8e01" fill-rule="evenodd" stroke="none"/>
    <path d="M625.55 422.95 Q625.25 422.35 625.25 421.7 L624.6 419.75 625.3 421.3 Q626.0 422.6 625.65 422.6 625.45 422.6 625.55 422.95" fill="#69cd1e" fill-rule="evenodd" stroke="none"/>
    <path d="M644.9 367.75 L644.65 366.2 644.7 368.2 644.8 369.1 Q644.85 368.85 645.0 368.9 645.15 368.85 644.9 367.75 M644.45 365.35 L645.0 366.4 645.55 368.7 Q645.6 369.75 644.45 370.05 L644.15 370.0 Q643.55 369.75 643.55 368.55 L644.05 366.3 Q644.4 365.1 644.45 365.35" fill="#94d455" fill-rule="evenodd" stroke="none"/>
    <path d="M644.15 370.0 L643.8 370.05 Q642.95 370.05 642.85 369.1 642.95 367.3 643.55 366.1 L644.4 365.05 644.45 365.35 Q644.4 365.1 644.05 366.3 L643.55 368.55 Q643.55 369.75 644.15 370.0" fill="#5ea11f" fill-rule="evenodd" stroke="none"/>
    <path d="M644.9 367.75 Q645.15 368.85 645.0 368.9 644.85 368.85 644.8 369.1 L644.7 368.2 644.65 366.2 644.9 367.75" fill="#cdf5af" fill-rule="evenodd" stroke="none"/>
    <path d="M669.25 435.3 L681.0 440.05 687.15 447.55 687.2 447.55 687.2 447.65 687.55 448.05 687.3 448.35 Q688.05 454.35 687.7 463.55 687.4 469.8 686.75 472.65 687.45 473.2 688.05 474.5 689.5 477.45 689.5 480.2 L689.2 481.85 689.35 483.3 Q689.65 487.4 688.85 489.05 L685.4 489.85 685.2 489.8 685.1 489.85 Q683.85 490.75 683.35 490.4 L682.8 491.3 Q667.95 492.8 659.45 491.15 653.6 490.15 649.5 487.25 L646.55 484.45 646.8 482.4 Q646.05 482.95 645.4 483.0 L645.3 483.15 638.6 483.15 638.45 482.95 Q638.35 483.4 637.8 483.15 636.55 482.65 636.1 481.55 L634.75 480.2 Q633.55 479.3 633.55 478.85 633.55 478.0 633.9 476.0 634.35 473.75 634.8 473.15 635.25 472.6 635.45 471.05 L635.55 469.7 Q635.55 469.35 635.7 469.2 L635.65 469.15 639.05 466.9 642.85 466.9 646.95 468.6 Q647.75 468.5 648.45 469.6 L650.65 452.15 650.7 452.15 661.1 436.15 669.25 435.3 M642.25 473.9 L642.45 473.95 642.15 473.65 642.25 473.9 M638.6 472.15 L639.65 472.3 638.45 472.05 638.6 472.15 M644.3 474.6 L644.3 474.15 644.0 474.5 644.3 474.6 M662.55 446.25 L662.9 445.95 663.1 445.85 662.55 445.45 662.55 446.25" fill="#d29d38" fill-rule="evenodd" stroke="none"/>
    <path d="M669.25 435.3 L661.1 436.15 650.7 452.15 650.65 452.15 648.45 469.6 Q647.75 468.5 646.95 468.6 L642.85 466.9 639.05 466.9 635.65 469.15 635.7 469.2 Q635.55 469.35 635.55 469.7 L635.45 471.05 Q635.25 472.6 634.8 473.15 634.35 473.75 633.9 476.0 633.55 478.0 633.55 478.85 633.55 479.3 634.75 480.2 L636.1 481.55 Q636.55 482.65 637.8 483.15 638.35 483.4 638.45 482.95 L638.6 483.15 645.3 483.15 645.4 483.0 Q646.05 482.95 646.8 482.4 L646.55 484.45 649.5 487.25 Q653.6 490.15 659.45 491.15 667.95 492.8 682.8 491.3 L683.35 490.4 Q683.85 490.75 685.1 489.85 L685.2 489.8 685.4 489.85 688.85 489.05 Q689.65 487.4 689.35 483.3 L689.2 481.85 689.5 480.2 Q689.5 477.45 688.05 474.5 687.45 473.2 686.75 472.65 687.4 469.8 687.7 463.55 688.05 454.35 687.3 448.35 L687.55 448.05 687.2 447.65 687.2 447.55 687.15 447.55 681.0 440.05 669.25 435.3 Z" fill="none" stroke="#834f0f" stroke-linecap="round" stroke-linejoin="round" stroke-width="3.5"/>
    <path d="M641.85 473.75 Q645.85 475.1 645.65 475.2 L643.6 478.1 645.4 482.7 645.3 483.15 638.6 483.15 641.85 473.75" fill="#a27f46" fill-rule="evenodd" stroke="none"/>
    <path d="M649.3 474.05 L649.55 476.85 Q649.85 479.9 649.3 481.2 647.65 482.0 647.1 481.8 646.55 481.7 646.5 480.35 L644.95 477.0 Q643.75 474.4 644.7 471.75 645.4 471.25 647.4 472.6 L649.3 474.05" fill="#c6a473" fill-rule="evenodd" stroke="none"/>
    <path d="M637.9 472.6 L642.15 473.65 642.4 474.5 Q642.6 475.65 641.85 477.45 640.7 480.25 641.5 481.35 L640.05 482.45 638.6 483.15 637.45 481.35 637.9 472.6" fill="#e0c48f" fill-rule="evenodd" stroke="none"/>
    <path d="M644.3 482.7 L643.85 482.25 642.6 481.35 Q641.6 480.8 641.8 479.55 L642.15 478.3 642.85 477.45 Q643.6 476.65 644.05 476.4 644.5 476.2 645.05 476.4 L645.4 476.55 647.1 482.15 Q645.4 483.55 644.3 482.7" fill="#84612e" fill-rule="evenodd" stroke="none"/>
    <path d="M647.85 480.8 L646.75 482.0 Q645.95 482.65 645.65 482.0 643.85 478.4 644.05 477.85 L645.15 476.4 645.65 476.85 646.4 477.85 Q646.85 478.75 648.2 479.55 648.65 480.1 647.85 480.8" fill="#e5d3ad" fill-rule="evenodd" stroke="none"/>
    <path d="M635.55 469.7 Q635.65 468.15 637.15 470.5 L638.6 473.15 638.05 476.2 Q637.6 479.45 638.05 480.9 639.0 483.7 637.8 483.15 636.55 482.65 636.1 481.55 L634.75 480.2 Q633.55 479.3 633.55 478.85 633.55 478.0 633.9 476.0 634.35 473.75 634.8 473.15 635.25 472.6 635.45 471.05 L635.55 469.7" fill="#c6a473" fill-rule="evenodd" stroke="none"/>
    <path d="M648.85 470.4 Q649.75 472.5 649.75 474.6 649.75 475.95 649.1 476.3 648.45 476.75 648.1 476.0 L646.55 474.75 645.4 473.95 Q644.5 473.3 644.6 471.75 644.7 470.05 646.2 468.9 647.75 467.8 648.85 470.4" fill="#d9bc88" fill-rule="evenodd" stroke="none"/>
    <path d="M639.05 466.9 L642.85 466.9 647.85 468.95 645.5 472.7 643.75 474.65 643.25 473.05 637.6 471.85 635.65 469.15 639.05 466.9" fill="#e5d3ad" fill-rule="evenodd" stroke="none"/>
    <path d="M636.9 470.95 L638.6 472.15 642.15 472.6 644.05 473.3 646.5 471.3 643.5 475.1 642.15 473.65 638.6 473.15 636.9 470.95" fill="#f2ede4" fill-rule="evenodd" stroke="none"/>
    <path d="M684.25 446.25 L686.05 454.25 Q687.55 463.55 686.7 470.25 683.8 491.65 682.8 491.3 667.95 492.8 659.45 491.15 653.6 490.15 649.5 487.25 L646.55 484.45 650.65 452.15 684.25 446.25" fill="#936b34" fill-rule="evenodd" stroke="none"/>
    <path d="M662.55 442.0 L662.55 448.2 661.75 452.95 Q660.75 458.35 659.6 461.95 658.3 465.5 656.2 464.05 654.9 463.05 653.9 461.1 L650.7 452.15 661.1 436.15 662.55 442.0" fill="#c6a473" fill-rule="evenodd" stroke="none"/>
    <path d="M661.1 442.65 L661.1 436.15 669.25 435.3 681.0 440.05 687.55 448.05 678.4 458.85 Q676.75 460.6 676.1 458.85 L671.85 449.05 668.25 448.2 661.1 442.65" fill="#e5d3ad" fill-rule="evenodd" stroke="none"/>
    <path d="M666.95 450.35 L671.55 449.85 670.25 456.85 658.3 465.35 661.9 490.65 657.0 463.7 664.7 454.25 666.95 450.35" fill="#c6a473" fill-rule="evenodd" stroke="none"/>
    <path d="M661.75 447.4 Q662.25 446.4 662.9 445.95 L663.4 445.6 668.6 449.85 666.95 457.5 660.25 463.9 661.6 470.6 658.15 472.05 656.85 465.5 661.75 447.4" fill="#e0c48f" fill-rule="evenodd" stroke="none"/>
    <path d="M676.75 456.2 L673.5 454.9 Q673.35 452.15 674.8 452.8 675.95 453.1 677.4 455.05 677.6 455.4 682.3 451.3 687.2 447.4 687.2 447.55 688.05 453.75 687.7 463.55 687.2 473.85 685.75 474.8 L675.6 484.3 Q667.45 492.3 668.1 491.0 668.45 490.5 667.3 477.45 L675.15 469.95 676.75 456.2" fill="#ad9065" fill-rule="evenodd" stroke="none"/>
    <path d="M661.1 439.25 L661.1 442.65 668.25 448.2 671.55 448.4 Q671.85 448.4 673.5 451.95 L676.25 453.95 Q677.9 455.05 678.05 456.7 675.15 455.7 672.85 453.25 672.05 449.85 671.55 449.85 L668.45 449.85 660.6 443.95 661.1 439.25" fill="#fdfcfb" fill-rule="evenodd" stroke="none"/>
    <path d="M672.85 453.25 L678.05 456.55 675.45 468.95 668.6 464.7 672.85 453.25" fill="#c6a473" fill-rule="evenodd" stroke="none"/>
    <path d="M688.85 479.4 L689.35 483.3 Q689.65 487.4 688.85 489.05 L685.4 489.85 Q684.6 489.7 684.45 487.9 L682.15 483.5 Q680.35 480.05 681.65 476.45 682.8 475.8 685.9 477.45 L688.85 479.4" fill="#c6a473" fill-rule="evenodd" stroke="none"/>
    <path d="M682.5 482.65 L683.3 483.15 Q684.1 483.8 684.45 484.6 L687.2 486.75 Q687.55 487.25 686.55 488.55 L685.1 489.85 Q683.55 490.95 683.15 490.15 680.5 484.95 680.7 484.6 L682.5 482.65" fill="#e5d3ad" fill-rule="evenodd" stroke="none"/>
    <path d="M682.8 479.4 Q681.35 478.6 681.5 476.45 681.65 474.15 684.1 472.55 686.4 471.05 688.05 474.5 689.5 477.45 689.5 480.2 689.5 482.0 688.5 482.5 687.55 483.0 686.9 482.15 686.55 481.5 684.6 480.35 L682.8 479.4" fill="#d9bc88" fill-rule="evenodd" stroke="none"/>
    <path d="M407.55 122.2 L539.9 122.2 Q557.1 122.2 569.25 134.3 581.4 146.45 581.4 163.65 L581.4 260.85 516.8 260.85 456.7 151.95 407.55 122.2" fill="#67cae9" fill-rule="evenodd" stroke="none"/>
    <path d="M456.7 151.95 L516.8 260.85 581.4 260.85 581.4 261.8 515.8 261.8 516.85 263.45 503.55 362.25 502.3 362.25 515.8 261.8 455.8 153.25 353.65 296.5 223.4 264.55 146.65 358.2 145.3 357.55 Q183.5 310.75 221.8 264.55 L223.4 264.55 165.5 122.2 167.65 122.2 225.3 263.8 352.65 294.65 454.2 153.35 402.7 122.2 404.6 122.2 455.8 153.25 456.7 151.95 M374.2 362.25 L372.2 362.25 352.45 297.95 353.65 296.5 374.2 362.25" fill="#98e6ff" fill-rule="evenodd" stroke="none"/>
    <path d="M407.55 122.2 L456.7 151.95 455.8 153.25 404.6 122.2 407.55 122.2 M581.4 261.8 L581.4 263.45 516.85 263.45 515.8 261.8 581.4 261.8 M502.3 362.25 L500.8 362.25 514.15 262.25 455.4 156.5 355.5 296.65 376.1 362.25 374.2 362.25 353.65 296.5 352.45 297.95 223.8 266.25 148.3 358.95 147.55 358.7 146.75 358.25 146.65 358.2 223.4 264.55 353.65 296.5 455.8 153.25 515.8 261.8 502.3 362.25 M163.5 122.25 L164.75 122.2 165.5 122.2 223.4 264.55 221.8 264.55 163.5 122.25" fill="#3db3d9" fill-rule="evenodd" stroke="none"/>
    <path d="M167.65 122.2 L402.7 122.2 454.2 153.35 352.65 294.65 225.3 263.8 167.65 122.2" fill="#81d4ee" fill-rule="evenodd" stroke="none"/>
    <path d="M372.2 362.25 L164.75 362.25 Q156.9 362.25 148.3 358.95 L223.8 266.25 352.45 297.95 372.2 362.25" fill="#71d3f3" fill-rule="evenodd" stroke="none"/>
    <path d="M500.8 362.25 L376.1 362.25 355.5 296.65 455.4 156.5 514.15 262.25 500.8 362.25" fill="#68ccec" fill-rule="evenodd" stroke="none"/>
    <path d="M581.4 263.45 L581.4 320.8 Q581.4 338.0 569.25 350.15 557.1 362.25 539.9 362.25 L503.55 362.25 516.85 263.45 581.4 263.45" fill="#70c6e2" fill-rule="evenodd" stroke="none"/>
    <path d="M145.3 357.55 L142.7 356.0 Q138.85 353.55 135.45 350.15 123.3 338.0 123.3 320.8 L123.3 163.65 Q123.3 146.45 135.45 134.3 147.1 122.65 163.5 122.25 L221.8 264.55 Q183.5 310.75 145.3 357.55" fill="#60c4e5" fill-rule="evenodd" stroke="none"/>
    <path d="M581.4 260.85 L581.4 163.65 Q581.4 146.45 569.25 134.3 557.1 122.2 539.9 122.2 L407.55 122.2 M581.4 260.85 L581.4 261.8 M581.4 263.45 L581.4 320.8 Q581.4 338.0 569.25 350.15 557.1 362.25 539.9 362.25 L503.55 362.25 502.3 362.25 M500.8 362.25 L376.1 362.25 M374.2 362.25 L372.2 362.25 164.75 362.25 Q156.9 362.25 148.3 358.95 M146.65 358.2 L145.3 357.55 142.7 356.0 Q138.85 353.55 135.45 350.15 123.3 338.0 123.3 320.8 L123.3 163.65 Q123.3 146.45 135.45 134.3 147.1 122.65 163.5 122.25 L164.75 122.2 165.5 122.2 M167.65 122.2 L402.7 122.2" fill="none" stroke="#e5feff" stroke-linecap="round" stroke-linejoin="round" stroke-width="7.0"/>
    <path d="M541.4 135.9 Q541.4 134.15 542.6 132.95 L542.75 132.75 Q543.25 132.3 543.8 132.05 544.8 131.5 546.0 131.5 547.95 131.5 549.3 132.75 550.65 134.05 550.65 135.9 550.65 137.75 549.3 139.0 L549.1 139.2 547.7 140.0 546.0 140.25 Q544.1 140.25 542.75 139.0 541.4 137.75 541.4 135.9" fill="#1e9ac2" fill-rule="evenodd" stroke="none"/>
    <path d="M547.35 139.1 L545.8 139.35 Q544.1 139.35 542.9 138.2 541.7 137.05 541.7 135.4 541.7 133.85 542.75 132.75 L547.35 139.1 M543.85 131.95 Q544.75 131.5 545.8 131.5 547.55 131.5 548.75 132.6 549.55 133.4 549.85 134.3 L550.0 135.4 549.85 136.5 Q549.55 137.45 548.75 138.2 L548.6 138.4 543.85 131.95" fill="#91dff7" fill-rule="evenodd" stroke="none"/>
    <path d="M542.75 132.75 L542.9 132.6 Q543.35 132.2 543.85 131.95 L548.6 138.4 547.35 139.1 542.75 132.75" fill="#68c8e7" fill-rule="evenodd" stroke="none"/>
    <path d="M566.75 151.1 Q568.1 152.35 568.1 154.2 568.1 156.05 566.75 157.35 L566.55 157.5 565.15 158.3 563.45 158.55 Q561.55 158.55 560.2 157.35 558.85 156.05 558.85 154.2 558.85 152.45 560.05 151.3 L560.2 151.1 Q560.7 150.6 561.25 150.4 562.25 149.8 563.45 149.8 565.4 149.8 566.75 151.1" fill="#1e9ac2" fill-rule="evenodd" stroke="none"/>
    <path d="M561.3 150.3 Q562.2 149.8 563.25 149.8 565.0 149.8 566.2 150.95 567.0 151.7 567.3 152.65 L567.45 153.75 567.3 154.85 566.2 156.55 566.05 156.7 561.3 150.3 M564.8 157.45 L563.25 157.65 Q561.55 157.65 560.35 156.55 559.15 155.4 559.15 153.75 559.15 152.2 560.2 151.1 L564.8 157.45" fill="#91dff7" fill-rule="evenodd" stroke="none"/>
    <path d="M566.05 156.7 L564.8 157.45 560.2 151.1 560.35 150.95 561.3 150.3 566.05 156.7" fill="#68c8e7" fill-rule="evenodd" stroke="none"/>
    <path d="M539.9 345.5 Q540.9 344.95 542.1 344.95 544.05 344.95 545.4 346.2 546.75 347.5 546.75 349.35 546.75 351.2 545.4 352.45 L545.2 352.65 543.8 353.45 542.1 353.7 Q540.2 353.7 538.85 352.45 537.5 351.2 537.5 349.35 537.5 347.6 538.7 346.4 L538.85 346.2 Q539.35 345.75 539.9 345.5" fill="#1e9ac2" fill-rule="evenodd" stroke="none"/>
    <path d="M544.7 351.85 L543.45 352.55 538.85 346.2 Q538.95 346.1 539.0 346.1 L539.95 345.4 544.7 351.85" fill="#68c8e7" fill-rule="evenodd" stroke="none"/>
    <path d="M539.95 345.4 Q540.85 344.95 541.9 344.95 543.65 344.95 544.85 346.1 545.65 346.85 545.95 347.8 L546.1 348.85 545.95 349.95 Q545.65 350.9 544.85 351.65 L544.7 351.85 539.95 345.4 M543.45 352.55 L541.9 352.8 Q540.2 352.8 539.0 351.65 537.8 350.5 537.8 348.85 537.8 347.3 538.85 346.2 L543.45 352.55" fill="#91dff7" fill-rule="evenodd" stroke="none"/>
    <path d="M560.2 332.75 L561.25 332.05 Q562.25 331.5 563.45 331.5 565.4 331.5 566.75 332.75 568.1 334.05 568.1 335.85 568.1 337.7 566.75 339.0 L566.55 339.2 565.15 340.0 563.45 340.2 Q561.55 340.2 560.2 339.0 558.85 337.7 558.85 335.85 558.85 334.1 560.05 332.95 L560.2 332.75" fill="#1e9ac2" fill-rule="evenodd" stroke="none"/>
    <path d="M561.3 331.95 Q562.2 331.5 563.25 331.5 565.0 331.5 566.2 332.6 567.0 333.35 567.3 334.3 L567.45 335.4 567.3 336.5 Q567.0 337.45 566.2 338.2 L566.05 338.4 561.3 331.95 M564.8 339.1 L563.25 339.3 Q561.55 339.3 560.35 338.2 559.15 337.05 559.15 335.4 559.15 333.85 560.2 332.75 L564.8 339.1" fill="#91dff7" fill-rule="evenodd" stroke="none"/>
    <path d="M560.2 332.75 L560.35 332.6 561.3 331.95 566.05 338.4 564.8 339.1 560.2 332.75" fill="#68c8e7" fill-rule="evenodd" stroke="none"/>
    <path d="M140.05 331.5 Q142.0 331.5 143.35 332.75 144.7 334.05 144.7 335.85 144.7 337.7 143.35 339.0 L143.15 339.2 141.75 340.0 140.05 340.2 Q138.15 340.2 136.8 339.0 135.45 337.7 135.45 335.85 135.45 334.1 136.65 332.95 L136.8 332.75 Q137.3 332.3 137.85 332.05 138.85 331.5 140.05 331.5" fill="#1e9ac2" fill-rule="evenodd" stroke="none"/>
    <path d="M137.9 331.95 L139.85 331.5 Q141.6 331.5 142.8 332.6 143.6 333.35 143.9 334.3 L144.05 335.4 143.9 336.5 Q143.6 337.45 142.8 338.2 L142.65 338.4 137.9 331.95 M141.4 339.1 L139.85 339.3 Q138.15 339.3 136.95 338.2 135.75 337.05 135.75 335.4 135.75 333.85 136.8 332.75 L141.4 339.1" fill="#91dff7" fill-rule="evenodd" stroke="none"/>
    <path d="M142.65 338.4 L141.4 339.1 136.8 332.75 136.95 332.6 Q137.4 332.2 137.9 331.95 L142.65 338.4" fill="#68c8e7" fill-rule="evenodd" stroke="none"/>
    <path d="M159.6 348.25 L159.75 348.05 160.8 347.35 Q161.8 346.8 163.0 346.8 164.95 346.8 166.3 348.05 167.65 349.35 167.65 351.2 167.65 353.0 166.3 354.3 L166.1 354.5 164.7 355.3 163.0 355.55 Q161.1 355.55 159.75 354.3 158.4 353.0 158.4 351.2 158.4 349.45 159.6 348.25" fill="#1e9ac2" fill-rule="evenodd" stroke="none"/>
    <path d="M159.75 348.05 L159.9 347.9 Q160.35 347.5 160.85 347.25 L165.6 353.7 164.35 354.4 159.75 348.05" fill="#68c8e7" fill-rule="evenodd" stroke="none"/>
    <path d="M164.35 354.4 L162.8 354.65 Q161.1 354.65 159.9 353.5 158.7 352.35 158.7 350.7 158.7 349.15 159.75 348.05 L164.35 354.4 M160.85 347.25 L162.8 346.8 Q164.55 346.8 165.75 347.9 166.55 348.65 166.85 349.6 L167.0 350.7 166.85 351.8 Q166.55 352.75 165.75 353.5 L165.6 353.7 160.85 347.25" fill="#91dff7" fill-rule="evenodd" stroke="none"/>
    <path d="M151.1 139.65 Q152.45 140.95 152.45 142.8 152.45 144.6 151.1 145.9 L150.9 146.1 149.5 146.9 147.8 147.15 Q145.9 147.15 144.55 145.9 143.2 144.6 143.2 142.8 143.2 141.05 144.4 139.85 L144.55 139.65 145.6 138.95 Q146.6 138.4 147.8 138.4 149.75 138.4 151.1 139.65" fill="#1e9ac2" fill-rule="evenodd" stroke="none"/>
    <path d="M145.65 138.85 Q146.55 138.4 147.6 138.4 149.35 138.4 150.55 139.5 151.35 140.3 151.65 141.2 L151.8 142.3 151.65 143.4 Q151.35 144.35 150.55 145.1 L150.4 145.3 145.65 138.85 M149.15 146.0 L147.6 146.25 Q145.9 146.25 144.7 145.1 143.5 143.95 143.5 142.3 143.5 140.75 144.55 139.65 L149.15 146.0" fill="#91dff7" fill-rule="evenodd" stroke="none"/>
    <path d="M150.4 145.3 L149.15 146.0 144.55 139.65 144.7 139.5 145.65 138.85 150.4 145.3" fill="#68c8e7" fill-rule="evenodd" stroke="none"/>
    <path d="M176.8 131.1 L176.95 130.9 178.0 130.2 Q179.0 129.65 180.2 129.65 182.15 129.65 183.5 130.9 184.85 132.2 184.85 134.05 184.85 135.9 183.5 137.15 L183.3 137.35 181.9 138.15 180.2 138.4 Q178.3 138.4 176.95 137.15 175.6 135.9 175.6 134.05 175.6 132.3 176.8 131.1" fill="#1e9ac2" fill-rule="evenodd" stroke="none"/>
    <path d="M178.05 130.1 Q178.95 129.65 180.0 129.65 181.75 129.65 182.95 130.8 183.75 131.55 184.05 132.5 L184.2 133.55 184.05 134.65 Q183.75 135.6 182.95 136.35 L182.8 136.55 178.05 130.1 M181.55 137.25 L180.0 137.5 Q178.3 137.5 177.1 136.35 175.9 135.2 175.9 133.55 175.9 132.0 176.95 130.9 L181.55 137.25" fill="#91dff7" fill-rule="evenodd" stroke="none"/>
    <path d="M182.8 136.55 L181.55 137.25 176.95 130.9 177.1 130.8 Q177.55 130.35 178.05 130.1 L182.8 136.55" fill="#68c8e7" fill-rule="evenodd" stroke="none"/>
    <path d="M235.95 257.65 L235.75 257.8 234.35 258.65 232.65 258.85 Q230.75 258.85 229.4 257.65 228.05 256.35 228.05 254.5 228.05 252.75 229.25 251.6 L229.4 251.4 Q229.9 250.9 230.45 250.7 231.45 250.1 232.65 250.1 234.6 250.1 235.95 251.4 237.3 252.65 237.3 254.5 237.3 256.35 235.95 257.65" fill="#1e9ac2" fill-rule="evenodd" stroke="none"/>
    <path d="M235.25 257.0 L234.0 257.75 229.4 251.4 229.55 251.25 Q230.0 250.85 230.5 250.6 L235.25 257.0" fill="#68c8e7" fill-rule="evenodd" stroke="none"/>
    <path d="M230.5 250.6 Q231.4 250.1 232.45 250.1 234.2 250.1 235.4 251.25 236.2 252.0 236.5 252.95 L236.65 254.05 236.5 255.15 235.4 256.85 235.25 257.0 230.5 250.6 M234.0 257.75 L232.45 257.95 Q230.75 257.95 229.55 256.85 228.35 255.7 228.35 254.05 228.35 252.5 229.4 251.4 L234.0 257.75" fill="#91dff7" fill-rule="evenodd" stroke="none"/>
    <path d="M232.65 278.35 Q232.65 280.2 231.3 281.5 L231.1 281.7 229.7 282.5 228.0 282.7 Q226.1 282.7 224.75 281.5 223.4 280.2 223.4 278.35 223.4 276.65 224.6 275.45 L224.75 275.25 Q225.25 274.8 225.8 274.55 226.8 274.0 228.0 274.0 229.95 274.0 231.3 275.25 232.65 276.55 232.65 278.35" fill="#1e9ac2" fill-rule="evenodd" stroke="none"/>
    <path d="M225.85 274.45 Q226.75 274.0 227.8 274.0 229.55 274.0 230.75 275.1 231.55 275.85 231.85 276.8 L232.0 277.9 231.85 279.0 Q231.55 279.95 230.75 280.7 L230.6 280.9 225.85 274.45 M229.35 281.6 L227.8 281.8 Q226.1 281.8 224.9 280.7 223.7 279.55 223.7 277.9 223.7 276.35 224.75 275.25 L229.35 281.6" fill="#91dff7" fill-rule="evenodd" stroke="none"/>
    <path d="M230.6 280.9 L229.35 281.6 224.75 275.25 224.9 275.1 Q225.35 274.7 225.85 274.45 L230.6 280.9" fill="#68c8e7" fill-rule="evenodd" stroke="none"/>
    <path d="M210.6 258.75 Q211.95 260.05 211.95 261.9 211.95 263.75 210.6 265.0 L210.4 265.2 209.0 266.0 207.3 266.25 Q205.4 266.25 204.05 265.0 202.7 263.75 202.7 261.9 202.7 260.15 203.9 258.95 L204.05 258.75 Q204.55 258.3 205.1 258.05 206.1 257.5 207.3 257.5 209.25 257.5 210.6 258.75" fill="#1e9ac2" fill-rule="evenodd" stroke="none"/>
    <path d="M209.9 264.4 L208.65 265.1 204.05 258.75 Q204.15 258.65 204.2 258.65 L205.15 257.95 209.9 264.4" fill="#68c8e7" fill-rule="evenodd" stroke="none"/>
    <path d="M205.15 257.95 Q206.05 257.5 207.1 257.5 208.85 257.5 210.05 258.65 210.85 259.4 211.15 260.35 L211.3 261.4 211.15 262.5 Q210.85 263.45 210.05 264.2 L209.9 264.4 205.15 257.95 M208.65 265.1 L207.1 265.35 Q205.4 265.35 204.2 264.2 203.0 263.05 203.0 261.4 203.0 259.85 204.05 258.75 L208.65 265.1" fill="#91dff7" fill-rule="evenodd" stroke="none"/>
    <path d="M437.8 159.45 L437.6 159.65 436.2 160.45 434.5 160.7 Q432.6 160.7 431.25 159.45 429.9 158.2 429.9 156.35 429.9 154.6 431.1 153.4 L431.25 153.2 432.3 152.5 Q433.3 151.95 434.5 151.95 436.45 151.95 437.8 153.2 439.15 154.5 439.15 156.35 439.15 158.2 437.8 159.45" fill="#1e9ac2" fill-rule="evenodd" stroke="none"/>
    <path d="M437.1 158.85 L435.85 159.55 431.25 153.2 431.4 153.1 432.35 152.4 437.1 158.85" fill="#68c8e7" fill-rule="evenodd" stroke="none"/>
    <path d="M432.35 152.4 Q433.25 151.95 434.3 151.95 436.05 151.95 437.25 153.1 438.05 153.85 438.35 154.8 L438.5 155.85 438.35 156.95 Q438.05 157.9 437.25 158.65 L437.1 158.85 432.35 152.4 M435.85 159.55 L434.3 159.8 Q432.6 159.8 431.4 158.65 430.2 157.5 430.2 155.85 430.2 154.3 431.25 153.2 L435.85 159.55" fill="#91dff7" fill-rule="evenodd" stroke="none"/>
    <path d="M457.85 170.3 Q459.2 171.6 459.2 173.45 459.2 175.3 457.85 176.55 L457.65 176.75 456.25 177.55 454.55 177.8 Q452.65 177.8 451.3 176.55 449.95 175.3 449.95 173.45 449.95 171.7 451.15 170.5 L451.3 170.3 452.35 169.6 Q453.35 169.05 454.55 169.05 456.5 169.05 457.85 170.3" fill="#1e9ac2" fill-rule="evenodd" stroke="none"/>
    <path d="M452.4 169.5 Q453.3 169.05 454.35 169.05 456.1 169.05 457.3 170.2 458.1 170.95 458.4 171.9 L458.55 172.95 458.4 174.05 Q458.1 175.0 457.3 175.75 L457.15 175.95 452.4 169.5 M455.9 176.65 L454.35 176.9 Q452.65 176.9 451.45 175.75 450.25 174.6 450.25 172.95 450.25 171.4 451.3 170.3 L455.9 176.65" fill="#91dff7" fill-rule="evenodd" stroke="none"/>
    <path d="M457.15 175.95 L455.9 176.65 451.3 170.3 451.45 170.2 452.4 169.5 457.15 175.95" fill="#68c8e7" fill-rule="evenodd" stroke="none"/>
    <path d="M521.25 268.85 L522.3 268.1 Q523.3 267.55 524.5 267.55 526.45 267.55 527.8 268.85 529.15 270.1 529.15 271.95 529.15 273.8 527.8 275.05 L527.6 275.25 526.2 276.05 524.5 276.3 Q522.6 276.3 521.25 275.05 519.9 273.8 519.9 271.95 519.9 270.2 521.1 269.0 L521.25 268.85" fill="#1e9ac2" fill-rule="evenodd" stroke="none"/>
    <path d="M521.25 268.85 L521.4 268.7 522.35 268.05 527.1 274.45 525.85 275.15 521.25 268.85" fill="#68c8e7" fill-rule="evenodd" stroke="none"/>
    <path d="M525.85 275.15 L524.3 275.4 Q522.6 275.4 521.4 274.25 520.2 273.15 520.2 271.5 520.2 269.9 521.25 268.85 L525.85 275.15 M522.35 268.05 Q523.25 267.55 524.3 267.55 526.05 267.55 527.25 268.7 528.05 269.45 528.35 270.4 L528.5 271.5 528.35 272.55 Q528.05 273.5 527.25 274.25 L527.1 274.45 522.35 268.05" fill="#91dff7" fill-rule="evenodd" stroke="none"/>
    <path d="M518.75 243.1 Q520.7 243.1 522.05 244.35 523.4 245.65 523.4 247.5 523.4 249.3 522.05 250.6 L521.85 250.8 520.45 251.6 518.75 251.8 Q516.85 251.8 515.5 250.6 514.15 249.3 514.15 247.5 514.15 245.75 515.35 244.55 L515.5 244.35 516.55 243.65 Q517.55 243.1 518.75 243.1" fill="#1e9ac2" fill-rule="evenodd" stroke="none"/>
    <path d="M521.35 250.0 L520.1 250.7 515.5 244.35 515.65 244.2 516.6 243.55 521.35 250.0" fill="#68c8e7" fill-rule="evenodd" stroke="none"/>
    <path d="M516.6 243.55 Q517.5 243.1 518.55 243.1 520.3 243.1 521.5 244.2 522.3 244.95 522.6 245.9 L522.75 247.0 522.6 248.1 Q522.3 249.05 521.5 249.8 L521.35 250.0 516.6 243.55 M520.1 250.7 L518.55 250.9 Q516.85 250.9 515.65 249.8 514.45 248.65 514.45 247.0 514.45 245.45 515.5 244.35 L520.1 250.7" fill="#91dff7" fill-rule="evenodd" stroke="none"/>
    <path d="M508.55 266.2 Q508.55 268.05 507.2 269.3 L507.0 269.5 505.6 270.3 503.9 270.55 Q502.0 270.55 500.65 269.3 499.3 268.05 499.3 266.2 499.3 264.45 500.5 263.25 L500.65 263.05 501.7 262.35 Q502.7 261.8 503.9 261.8 505.85 261.8 507.2 263.05 508.55 264.35 508.55 266.2" fill="#1e9ac2" fill-rule="evenodd" stroke="none"/>
    <path d="M501.75 262.25 Q502.65 261.8 503.7 261.8 505.45 261.8 506.65 262.95 507.45 263.7 507.75 264.65 L507.9 265.7 507.75 266.8 Q507.45 267.75 506.65 268.5 L506.5 268.7 501.75 262.25 M505.25 269.4 L503.7 269.65 Q502.0 269.65 500.8 268.5 499.6 267.35 499.6 265.7 499.6 264.15 500.65 263.05 L505.25 269.4" fill="#91dff7" fill-rule="evenodd" stroke="none"/>
    <path d="M506.5 268.7 L505.25 269.4 500.65 263.05 500.8 262.95 501.75 262.25 506.5 268.7" fill="#68c8e7" fill-rule="evenodd" stroke="none"/>
    <path d="M348.7 307.8 Q348.7 309.65 347.35 310.95 L347.15 311.1 Q346.5 311.6 345.75 311.9 L344.05 312.15 Q342.15 312.15 340.8 310.95 339.45 309.65 339.45 307.8 339.45 306.05 340.65 304.9 L340.8 304.7 Q341.3 304.2 341.85 304.0 342.85 303.4 344.05 303.4 346.0 303.4 347.35 304.7 348.7 305.95 348.7 307.8" fill="#1e9ac2" fill-rule="evenodd" stroke="none"/>
    <path d="M341.9 303.9 Q342.8 303.4 343.85 303.4 345.6 303.4 346.8 304.55 347.6 305.3 347.9 306.25 L348.05 307.35 347.9 308.4 Q347.6 309.35 346.8 310.1 L346.65 310.3 341.9 303.9 M345.4 311.0 L343.85 311.25 Q342.15 311.25 340.95 310.1 339.75 309.0 339.75 307.35 339.75 305.8 340.8 304.7 L345.4 311.0" fill="#91dff7" fill-rule="evenodd" stroke="none"/>
    <path d="M346.65 310.3 Q346.05 310.75 345.4 311.0 L340.8 304.7 340.95 304.55 Q341.4 304.1 341.9 303.9 L346.65 310.3" fill="#68c8e7" fill-rule="evenodd" stroke="none"/>
    <path d="M366.3 295.9 Q366.8 295.45 367.35 295.2 368.35 294.65 369.55 294.65 371.5 294.65 372.85 295.9 374.2 297.2 374.2 299.0 374.2 300.85 372.85 302.15 L372.65 302.35 371.25 303.15 369.55 303.35 Q367.65 303.35 366.3 302.15 364.95 300.85 364.95 299.0 364.95 297.25 366.15 296.1 L366.3 295.9" fill="#1e9ac2" fill-rule="evenodd" stroke="none"/>
    <path d="M372.15 301.5 L370.9 302.25 366.3 295.9 366.45 295.75 367.4 295.1 372.15 301.5" fill="#68c8e7" fill-rule="evenodd" stroke="none"/>
    <path d="M367.4 295.1 Q368.3 294.65 369.35 294.65 371.1 294.65 372.3 295.75 373.1 296.5 373.4 297.45 L373.55 298.55 373.4 299.65 Q373.1 300.6 372.3 301.35 L372.15 301.5 367.4 295.1 M370.9 302.25 L369.35 302.45 Q367.65 302.45 366.45 301.35 365.25 300.2 365.25 298.55 365.25 297.0 366.3 295.9 L370.9 302.25" fill="#91dff7" fill-rule="evenodd" stroke="none"/>
    <path d="M344.55 277.55 L345.6 276.85 Q346.6 276.3 347.8 276.3 349.75 276.3 351.1 277.55 352.45 278.85 352.45 280.7 352.45 282.55 351.1 283.8 L350.9 284.0 349.5 284.8 347.8 285.05 Q345.9 285.05 344.55 283.8 343.2 282.55 343.2 280.7 343.2 278.95 344.4 277.75 L344.55 277.55" fill="#1e9ac2" fill-rule="evenodd" stroke="none"/>
    <path d="M344.55 277.55 L344.7 277.45 Q345.15 277.0 345.65 276.75 L350.4 283.2 349.15 283.9 344.55 277.55" fill="#68c8e7" fill-rule="evenodd" stroke="none"/>
    <path d="M345.65 276.75 L347.6 276.3 Q349.35 276.3 350.55 277.45 351.35 278.2 351.65 279.15 L351.8 280.2 351.65 281.3 Q351.35 282.25 350.55 283.0 L350.4 283.2 345.65 276.75 M349.15 283.9 L347.6 284.15 Q345.9 284.15 344.7 283.0 343.5 281.85 343.5 280.2 343.5 278.65 344.55 277.55 L349.15 283.9" fill="#91dff7" fill-rule="evenodd" stroke="none"/>
    <path d="M396.25 134.9 L394.85 135.7 393.15 135.95 Q391.25 135.95 389.9 134.7 388.55 133.45 388.55 131.6 388.55 129.85 389.75 128.65 L389.9 128.45 Q390.4 128.0 390.95 127.75 391.95 127.2 393.15 127.2 395.1 127.2 396.45 128.45 397.8 129.75 397.8 131.6 397.8 133.45 396.45 134.7 L396.25 134.9" fill="#1e9ac2" fill-rule="evenodd" stroke="none"/>
    <path d="M391.0 127.65 Q391.9 127.2 392.95 127.2 394.7 127.2 395.9 128.3 396.7 129.1 397.0 130.0 L397.15 131.1 397.0 132.2 Q396.7 133.15 395.9 133.9 L395.75 134.1 391.0 127.65 M394.5 134.8 L392.95 135.05 Q391.25 135.05 390.05 133.9 388.85 132.75 388.85 131.1 388.85 129.55 389.9 128.45 L394.5 134.8" fill="#91dff7" fill-rule="evenodd" stroke="none"/>
    <path d="M395.75 134.1 L394.5 134.8 389.9 128.45 390.05 128.3 391.0 127.65 395.75 134.1" fill="#68c8e7" fill-rule="evenodd" stroke="none"/>
  </g>
  <defs>
    <radialGradient cx="0" cy="0" gradientTransform="matrix(2.0E-4, -0.0113, 0.0478, 2.0E-4, 458.15, 483.15)" gradientUnits="userSpaceOnUse" id="gradient0" r="819.2" spreadMethod="pad">
      <stop offset="0.19607843137254902" stop-color="#875b26" stop-opacity="0.6784314"/>
      <stop offset="0.615686274509804" stop-color="#744c25" stop-opacity="0.29803923"/>
      <stop offset="0.8470588235294118" stop-color="#ad9065" stop-opacity="0.0"/>
    </radialGradient>
  </defs>
</svg>
