<?xml version="1.0" encoding="UTF-8" standalone="no"?>
<svg xmlns:xlink="http://www.w3.org/1999/xlink" height="37.65px" width="35.0px" xmlns="http://www.w3.org/2000/svg">
  <g transform="matrix(1.0, 0.0, 0.0, 1.0, 2.5, 2.5)">
    <path d="M30.0 17.45 Q30.0 23.75 25.65 28.2 21.25 32.65 15.0 32.65 8.8 32.65 4.4 28.2 0.0 23.75 0.0 17.45 0.0 12.7 2.5 9.0 2.15 8.05 2.45 6.75 2.7 5.9 3.25 5.15 L3.35 5.0 3.65 4.6 3.4 3.65 3.25 3.2 3.15 1.95 3.15 1.7 3.25 0.55 3.25 0.4 3.35 0.0 3.4 0.45 Q3.6 0.95 4.05 1.1 L4.5 0.75 4.6 0.7 5.0 1.1 5.55 0.55 5.75 0.65 Q5.8 1.1 6.1 1.1 L6.25 1.0 6.35 0.9 6.7 1.2 6.8 1.35 6.8 1.55 6.8 1.7 6.75 1.95 6.75 2.1 6.75 2.4 6.8 2.45 7.35 2.3 8.15 2.2 9.8 2.45 Q10.2 2.6 10.6 2.9 L12.05 2.55 14.55 2.25 14.7 2.25 14.85 2.25 15.0 2.25 Q21.25 2.25 25.65 6.7 30.0 11.15 30.0 17.45" fill="#330000" fill-rule="evenodd" stroke="none"/>
    <path d="M30.0 17.45 Q30.0 23.75 25.65 28.2 21.25 32.65 15.0 32.65 8.8 32.65 4.4 28.2 0.0 23.75 0.0 17.45 0.0 12.7 2.5 9.0 2.15 8.05 2.45 6.75 2.7 5.9 3.25 5.15 L3.35 5.0 3.65 4.6 3.4 3.65 3.25 3.2 3.15 1.95 3.15 1.7 3.25 0.55 3.25 0.4 3.35 0.0 3.4 0.45 Q3.6 0.95 4.05 1.1 L4.5 0.75 4.6 0.7 5.0 1.1 5.55 0.55 5.75 0.65 Q5.8 1.1 6.1 1.1 L6.25 1.0 6.35 0.9 6.7 1.2 6.8 1.35 6.8 1.55 6.8 1.7 6.75 1.95 6.75 2.1 6.75 2.4 6.8 2.45 7.35 2.3 8.15 2.2 9.8 2.45 Q10.2 2.6 10.6 2.9 L12.05 2.55 14.55 2.25 14.7 2.25 14.85 2.25 15.0 2.25 Q21.25 2.25 25.65 6.7 30.0 11.15 30.0 17.45 Z" fill="none" stroke="#3dc4f0" stroke-linecap="round" stroke-linejoin="round" stroke-width="5.0"/>
    <path d="M25.65 6.7 Q30.0 11.15 30.0 17.45 30.0 23.75 25.65 28.2 21.25 32.65 15.0 32.65 8.8 32.65 4.4 28.2 0.0 23.75 0.0 17.45 0.0 12.7 2.5 9.0 2.15 8.05 2.45 6.75 2.7 5.9 3.25 5.15 L3.35 5.0 3.65 4.6 3.4 3.65 3.25 3.2 3.15 1.95 3.15 1.7 3.25 0.55 3.25 0.4 3.35 0.0 3.4 0.45 Q3.6 0.95 4.05 1.1 L4.5 0.75 4.6 0.7 5.0 1.1 5.55 0.55 5.75 0.65 Q5.8 1.1 6.1 1.1 L6.25 1.0 6.35 0.9 6.7 1.2 6.8 1.35 6.8 1.55 6.8 1.7 6.75 1.95 6.75 2.1 6.75 2.4 6.8 2.45 7.35 2.3 8.15 2.2 9.8 2.45 Q10.2 2.6 10.6 2.9 L12.05 2.55 14.55 2.25 14.7 2.25 14.85 2.25 15.0 2.25 Q21.25 2.25 25.65 6.7" fill="#209ec6" fill-rule="evenodd" stroke="none"/>
  </g>
</svg>
