<?xml version="1.0" encoding="UTF-8" standalone="no"?>
<svg xmlns:xlink="http://www.w3.org/1999/xlink" height="87.75px" width="99.75px" xmlns="http://www.w3.org/2000/svg">
  <g transform="matrix(1.0, 0.0, 0.0, 1.0, 5.95, -4.35)">
    <path d="M82.1 47.7 Q81.4 50.15 79.3 49.8 L79.3 50.5 Q79.3 51.2 78.95 51.2 L82.45 56.4 Q82.45 56.05 82.8 56.05 83.5 55.4 84.85 55.4 L85.2 55.4 Q87.35 55.45 88.0 56.4 89.05 57.1 88.7 59.9 88.7 63.05 85.55 62.35 L85.9 63.4 85.9 64.4 Q85.55 66.15 85.2 66.5 L83.15 66.85 83.5 67.55 83.85 67.2 85.2 66.65 86.25 66.5 Q88.7 66.5 89.75 67.9 90.8 68.95 90.8 71.75 90.8 75.55 87.65 74.85 L88.0 75.55 88.0 76.95 Q88.0 79.4 87.3 79.4 87.05 79.9 85.2 80.2 L83.15 80.4 Q81.75 80.4 81.4 82.15 81.05 83.9 78.6 83.9 L76.15 83.2 Q74.75 82.85 74.05 82.5 L73.7 82.85 73.7 83.2 Q73.7 84.6 72.0 86.0 69.9 87.4 67.8 87.4 65.0 87.4 62.55 86.35 L59.8 84.95 Q59.45 86.35 57.0 87.75 54.9 89.1 52.45 89.1 50.35 89.1 49.0 88.1 47.6 87.05 45.85 86.0 45.5 87.05 43.75 87.4 41.65 88.75 40.25 88.75 38.2 88.75 36.8 87.75 L33.65 85.3 31.9 87.05 Q30.15 88.1 28.4 88.1 26.7 88.1 24.6 86.35 22.85 84.6 22.5 84.6 22.15 84.6 22.15 84.25 L22.5 83.9 Q21.1 84.95 19.35 84.95 16.55 84.95 15.2 84.25 12.75 82.85 12.4 80.1 9.95 81.45 7.85 81.45 5.4 81.45 4.05 79.4 2.3 77.65 2.3 75.55 2.3 74.85 2.65 74.15 L3.0 73.8 3.0 73.45 0.9 73.8 Q-0.85 73.8 -1.9 72.4 -2.95 71.4 -2.95 69.65 -2.95 67.2 -1.2 65.8 -0.15 64.4 2.3 64.4 4.05 64.4 4.75 65.1 L5.1 65.8 6.8 63.75 Q6.45 63.4 6.45 63.05 6.45 62.7 6.8 62.0 L6.8 61.3 5.1 62.0 Q3.35 62.0 2.3 60.6 0.9 59.2 0.9 58.15 0.55 56.05 1.6 54.7 2.65 53.3 5.1 53.3 6.45 53.3 7.5 54.0 L8.2 55.05 11.0 50.15 Q10.65 50.15 10.65 49.8 10.3 50.15 9.95 50.15 7.85 50.15 6.1 48.4 6.1 47.7 5.75 47.4 5.4 46.35 5.4 45.65 5.4 44.6 6.1 43.9 L6.1 43.55 Q6.8 42.15 8.2 42.15 L10.65 42.15 Q10.65 42.5 11.0 42.85 L11.35 42.15 11.7 41.8 14.5 35.9 14.5 30.7 Q15.55 29.65 16.25 28.25 L16.55 24.75 9.95 15.0 17.95 10.15 23.2 10.5 Q23.55 8.4 23.9 7.7 L28.4 7.7 28.4 10.5 58.75 10.5 58.75 7.35 62.9 7.7 Q63.6 8.4 63.95 10.85 L68.15 10.85 76.85 15.0 70.25 25.45 70.6 29.3 Q70.95 30.0 71.65 30.7 L72.35 36.25 77.2 44.6 77.55 44.25 Q78.25 43.9 79.65 43.9 81.4 43.9 82.1 44.95 82.45 45.3 82.45 47.05 82.1 47.4 82.1 47.7 M10.65 48.4 L10.4 48.4 10.95 48.7 10.65 48.4" fill="#bf6b6b" fill-rule="evenodd" stroke="none"/>
    <path d="M82.1 47.7 Q81.4 50.15 79.3 49.8 L79.3 50.5 Q79.3 51.2 78.95 51.2 L82.45 56.4 Q82.45 56.05 82.8 56.05 83.5 55.4 84.85 55.4 L85.2 55.4 Q87.35 55.45 88.0 56.4 89.05 57.1 88.7 59.9 88.7 63.05 85.55 62.35 L85.9 63.4 85.9 64.4 Q85.55 66.15 85.2 66.5 L83.15 66.85 83.5 67.55 83.85 67.2 85.2 66.65 86.25 66.5 Q88.7 66.5 89.75 67.9 90.8 68.95 90.8 71.75 90.8 75.55 87.65 74.85 L88.0 75.55 88.0 76.95 Q88.0 79.4 87.3 79.4 87.05 79.9 85.2 80.2 L83.15 80.4 Q81.75 80.4 81.4 82.15 81.05 83.9 78.6 83.9 L76.15 83.2 Q74.75 82.85 74.05 82.5 L73.7 82.85 73.7 83.2 Q73.7 84.6 72.0 86.0 69.9 87.4 67.8 87.4 65.0 87.4 62.55 86.35 L59.8 84.95 Q59.45 86.35 57.0 87.75 54.9 89.1 52.45 89.1 50.35 89.1 49.0 88.1 47.6 87.05 45.85 86.0 45.5 87.05 43.75 87.4 41.65 88.75 40.25 88.75 38.2 88.75 36.8 87.75 L33.65 85.3 31.9 87.05 Q30.15 88.1 28.4 88.1 26.7 88.1 24.6 86.35 22.85 84.6 22.5 84.6 22.15 84.6 22.15 84.25 L22.5 83.9 Q21.1 84.95 19.35 84.95 16.55 84.95 15.2 84.25 12.75 82.85 12.4 80.1 9.95 81.45 7.85 81.45 5.4 81.45 4.05 79.4 2.3 77.65 2.3 75.55 2.3 74.85 2.65 74.15 L3.0 73.8 3.0 73.45 0.9 73.8 Q-0.85 73.8 -1.9 72.4 -2.95 71.4 -2.95 69.65 -2.95 67.2 -1.2 65.8 -0.15 64.4 2.3 64.4 4.05 64.4 4.75 65.1 L5.1 65.8 6.8 63.75 Q6.45 63.4 6.45 63.05 6.45 62.7 6.8 62.0 L6.8 61.3 5.1 62.0 Q3.35 62.0 2.3 60.6 0.9 59.2 0.9 58.15 0.55 56.05 1.6 54.7 2.65 53.3 5.1 53.3 6.45 53.3 7.5 54.0 L8.2 55.05 11.0 50.15 Q10.65 50.15 10.65 49.8 10.3 50.15 9.95 50.15 7.85 50.15 6.1 48.4 6.1 47.7 5.75 47.4 5.4 46.35 5.4 45.65 5.4 44.6 6.1 43.9 L6.1 43.55 Q6.8 42.15 8.2 42.15 L10.65 42.15 Q10.65 42.5 11.0 42.85 L11.35 42.15 11.7 41.8 14.5 35.9 14.5 30.7 Q15.55 29.65 16.25 28.25 L16.55 24.75 9.95 15.0 17.95 10.15 23.2 10.5 Q23.55 8.4 23.9 7.7 L28.4 7.7 28.4 10.5 58.75 10.5 58.75 7.35 62.9 7.7 Q63.6 8.4 63.95 10.85 L68.15 10.85 76.85 15.0 70.25 25.45 70.6 29.3 Q70.95 30.0 71.65 30.7 L72.35 36.25 77.2 44.6 77.55 44.25 Q78.25 43.9 79.65 43.9 81.4 43.9 82.1 44.95 82.45 45.3 82.45 47.05 82.1 47.4 82.1 47.7 Z" fill="none" stroke="#4c0e62" stroke-linecap="round" stroke-linejoin="round" stroke-width="6.0"/>
    <path d="M66.45 10.85 L68.55 10.85 77.25 15.0 70.65 25.45 73.4 46.7 62.95 48.75 Q50.1 51.2 45.2 51.2 L35.8 50.85 Q28.15 50.15 25.35 49.45 L16.3 47.05 14.2 46.35 16.95 24.75 10.35 15.0 18.35 10.15 20.8 10.15 Q25.7 20.95 40.3 20.95 64.35 22.0 66.45 10.85" fill="#c8c8c8" fill-rule="evenodd" stroke="none"/>
    <path d="M14.2 46.35 L16.3 47.05 25.35 49.45 Q28.15 50.15 35.8 50.85 L45.2 51.2 Q50.1 51.2 62.95 48.75 L73.4 46.7 76.2 65.45 Q44.5 72.4 12.1 65.1 L14.2 46.35" fill="#dae3e9" fill-rule="evenodd" stroke="none"/>
    <path d="M66.45 10.85 Q64.35 22.0 40.3 20.95 25.7 20.95 20.8 10.15 L66.45 10.85" fill="#a2a2a2" fill-rule="evenodd" stroke="none"/>
    <path d="M81.1 75.2 Q81.1 74.85 81.45 74.85 84.25 72.75 86.3 70.7 L83.9 67.55 84.25 67.2 Q85.25 66.5 86.65 66.5 89.1 66.5 90.15 67.9 91.2 68.95 91.2 71.75 91.2 75.55 88.05 74.85 L88.4 75.55 88.4 76.95 Q88.4 79.4 87.7 79.4 87.35 80.1 83.55 80.4 82.15 80.4 81.8 82.15 81.1 83.9 79.0 83.9 L76.55 83.2 74.45 82.5 74.1 82.85 74.1 83.2 Q74.1 84.6 72.4 86.0 70.3 87.4 68.2 87.4 65.4 87.4 62.95 86.35 L60.2 84.95 Q59.85 86.35 57.4 87.75 55.3 89.1 52.85 89.1 50.75 89.1 49.4 88.1 L46.25 86.0 Q45.9 87.05 44.15 87.4 42.05 88.75 40.65 88.75 38.6 88.75 37.2 87.75 L34.05 85.3 Q33.35 86.35 31.95 87.05 30.55 88.1 28.8 88.1 27.1 88.1 24.65 86.35 23.25 84.6 22.9 84.6 22.55 84.6 22.55 84.25 L22.9 83.9 Q21.5 84.95 19.75 84.95 L15.25 84.25 Q13.15 82.85 12.8 80.1 10.35 81.45 8.25 81.45 5.8 81.45 4.1 79.4 2.7 77.65 2.7 75.55 2.7 74.85 3.05 74.15 L3.4 73.8 3.4 73.45 1.3 73.8 Q-0.8 73.8 -1.5 72.4 -2.55 71.4 -2.55 69.65 -2.55 67.2 -1.15 65.8 0.25 64.4 2.7 64.4 4.45 64.4 5.15 65.1 L5.5 65.8 3.05 69.3 6.5 71.75 6.5 72.1 Q13.15 77.65 22.55 80.75 33.7 84.25 46.6 83.9 59.15 83.55 69.95 80.1 76.2 78.0 81.1 75.2" fill="#ffe0fc" fill-rule="evenodd" stroke="none"/>
    <path d="M83.9 67.55 L86.3 70.7 Q84.25 72.75 81.45 74.85 81.1 74.85 81.1 75.2 77.95 68.25 76.2 65.1 73.4 60.6 69.6 58.85 L72.4 58.15 76.2 57.1 83.9 67.55 M6.5 72.1 L6.5 71.75 3.05 69.3 5.5 65.8 11.75 57.1 Q12.8 57.8 14.2 58.15 L19.75 59.2 Q17.65 59.9 15.95 60.95 14.2 62.0 11.05 65.45 8.25 68.25 8.25 69.3 L6.85 70.7 6.85 71.05 Q6.5 71.75 6.5 72.1 M29.5 61.3 Q29.5 61.65 29.85 61.65 L28.15 66.85 Q28.15 65.1 27.45 64.4 27.1 66.5 26.4 66.85 26.4 63.75 26.05 62.0 24.3 64.05 23.6 66.15 22.55 68.25 21.5 73.1 L21.5 70.0 21.5 67.9 22.2 59.9 29.5 61.3 M42.4 61.65 L48.7 61.3 Q48.7 62.0 48.35 62.35 L48.7 62.35 48.35 64.05 Q48.0 68.25 47.3 69.65 L46.95 66.5 45.9 64.4 44.85 69.3 Q44.15 73.45 43.45 75.9 L42.4 62.7 42.4 61.65 M61.9 66.5 Q62.25 68.25 62.25 70.7 L61.9 70.7 58.45 61.3 58.8 61.3 66.1 59.55 67.85 64.4 Q68.55 67.9 69.6 72.1 L67.5 67.55 Q65.75 64.05 64.35 63.4 L64.35 66.15 63.3 64.4 Q62.95 63.75 61.9 63.4 L61.9 64.25 61.9 66.5" fill="#7b299a" fill-rule="evenodd" stroke="none"/>
    <path d="M76.2 57.1 L72.4 58.15 69.6 58.85 66.1 59.55 58.45 60.6 48.7 61.3 42.4 61.65 29.85 60.6 22.2 59.9 19.75 59.2 14.2 58.15 Q12.8 57.8 11.75 57.1 L13.5 54.0 13.85 53.65 Q44.15 61.3 74.1 53.3 L76.2 57.1" fill="#fc889b" fill-rule="evenodd" stroke="none"/>
    <path d="M81.1 75.2 Q76.2 78.0 69.95 80.1 59.15 83.55 46.6 83.9 33.7 84.25 22.55 80.75 13.15 77.65 6.5 72.1 6.5 71.75 6.85 71.05 L6.85 70.7 8.25 69.3 Q8.25 68.25 11.05 65.45 14.2 62.0 15.95 60.95 17.65 59.9 19.75 59.2 L22.2 59.9 29.85 60.6 42.4 61.65 42.4 62.7 43.45 75.9 Q44.15 73.45 44.85 69.3 L45.9 64.4 46.95 66.5 47.3 69.65 Q48.0 68.25 48.35 64.05 L48.7 62.35 48.35 62.35 Q48.7 62.0 48.7 61.3 L58.45 60.6 Q58.45 60.95 58.8 61.3 L58.45 61.3 61.9 70.7 62.25 70.7 Q62.25 68.25 61.9 66.5 L62.25 66.5 Q61.9 64.95 61.9 64.25 L61.9 63.4 Q62.95 63.75 63.3 64.4 L64.35 66.15 64.35 63.4 Q65.75 64.05 67.5 67.55 L69.6 72.1 Q68.55 67.9 67.85 64.4 L66.1 59.55 69.6 58.85 Q73.4 60.6 76.2 65.1 77.95 68.25 81.1 75.2 M29.5 61.3 L22.2 59.9 21.5 67.9 21.5 70.0 21.5 73.1 Q22.55 68.25 23.6 66.15 24.3 64.05 26.05 62.0 26.4 63.75 26.4 66.85 27.1 66.5 27.45 64.4 28.15 65.1 28.15 66.85 L29.85 61.65 Q29.5 61.65 29.5 61.3 M11.4 71.05 Q11.05 72.75 12.1 73.8 14.2 74.85 16.3 75.55 21.5 77.65 27.1 78.7 33.7 82.85 40.3 79.75 L42.4 79.4 45.9 81.1 Q49.75 83.2 55.3 80.4 60.55 81.1 65.4 78.7 72.4 78.7 76.9 74.15 L76.9 73.8 Q76.55 70.7 73.75 70.0 73.1 70.35 72.4 71.4 L72.05 72.4 70.65 74.85 66.1 73.8 63.3 75.55 Q60.9 74.85 59.15 72.1 57.4 70.35 55.3 70.35 51.8 70.7 50.75 73.8 49.4 77.3 45.9 78.35 42.4 79.4 38.6 73.8 36.85 74.85 34.75 75.55 L27.8 72.4 23.95 75.55 Q22.2 75.9 20.8 74.5 19.4 73.45 19.4 71.4 19.75 67.55 18.35 65.45 L11.4 71.05" fill="#9f43cb" fill-rule="evenodd" stroke="none"/>
    <path d="M11.4 71.05 L18.35 65.45 Q19.75 67.55 19.4 71.4 19.4 73.45 20.8 74.5 22.2 75.9 23.95 75.55 L27.8 72.4 34.75 75.55 Q36.85 74.85 38.6 73.8 42.4 79.4 45.9 78.35 49.4 77.3 50.75 73.8 51.8 70.7 55.3 70.35 57.4 70.35 59.15 72.1 60.9 74.85 63.3 75.55 L66.1 73.8 70.65 74.85 72.05 72.4 72.4 71.4 Q73.1 70.35 73.75 70.0 76.55 70.7 76.9 73.8 L76.9 74.15 Q72.4 78.7 65.4 78.7 60.55 81.1 55.3 80.4 49.75 83.2 45.9 81.1 L42.4 79.4 40.3 79.75 Q33.7 82.85 27.1 78.7 21.5 77.65 16.3 75.55 14.2 74.85 12.1 73.8 11.05 72.75 11.4 71.05" fill="#c26de9" fill-rule="evenodd" stroke="none"/>
    <path d="M82.85 56.4 Q82.85 56.05 83.2 56.05 83.9 55.4 85.25 55.4 87.7 55.4 88.4 56.4 89.1 57.1 89.1 59.9 88.75 63.05 85.6 62.35 L86.3 63.4 85.95 64.4 85.6 66.5 81.45 67.2 Q80.05 67.2 79.35 68.6 78.65 70.0 76.55 70.0 L74.8 69.65 Q73.4 69.3 73.1 68.95 L72.75 69.3 Q72.4 69.3 72.4 69.65 72.4 70.7 70.65 71.75 68.55 72.75 66.8 72.75 L62.6 72.1 Q62.25 71.75 59.85 71.05 59.5 72.1 57.4 73.45 55.3 74.15 53.2 74.15 51.45 74.15 50.1 73.45 48.7 72.1 47.65 71.75 46.95 72.1 45.55 73.1 L42.4 73.8 Q40.3 73.8 39.3 73.1 L36.5 71.4 34.75 72.4 Q33.0 73.45 31.6 73.45 30.2 73.45 28.15 72.1 L26.4 70.7 Q26.05 70.7 26.05 70.35 L26.05 70.0 Q25.0 71.4 23.6 71.4 21.15 71.4 19.4 70.0 17.3 69.3 16.65 66.85 14.2 68.25 12.45 68.25 10.35 68.25 8.6 66.15 7.2 64.75 6.85 63.05 L6.85 62.0 7.2 61.65 7.2 61.3 5.5 62.0 Q3.75 62.0 2.7 60.6 1.3 59.2 1.3 58.15 0.95 56.05 2.0 54.7 2.7 53.3 5.5 53.3 6.85 53.3 7.9 54.0 L8.6 55.05 6.5 57.8 Q8.25 58.85 10.0 60.25 L10.35 60.6 10.35 60.25 Q16.65 64.4 25.7 67.55 35.8 70.0 47.65 70.0 59.15 70.0 68.55 66.85 74.8 65.1 79.35 62.35 82.85 59.55 82.85 56.4" fill="#ffc6fe" fill-rule="evenodd" stroke="none"/>
    <path d="M82.85 56.4 Q82.85 59.55 79.35 62.35 77.25 57.1 75.5 54.0 73.1 49.8 69.95 48.4 L76.2 46.35 76.2 46.7 82.85 56.4 M10.35 60.25 L10.35 60.6 10.0 60.25 Q8.25 58.85 6.5 57.8 L8.6 55.05 13.15 47.05 13.5 46.0 Q16.95 47.7 21.5 48.75 L21.15 48.75 17.65 50.15 Q15.95 51.2 13.5 54.35 11.05 57.1 11.05 57.45 L11.05 57.8 10.35 58.85 10.35 59.2 10.35 60.25 M58.8 50.15 L60.2 49.8 60.55 49.8 66.1 48.75 Q66.8 50.5 67.15 53.3 68.15 57.35 68.85 64.05 68.45 61.15 67.15 58.5 65.4 54.0 64.35 53.65 L64.35 57.1 63.3 55.05 Q62.95 53.65 61.9 53.65 L61.9 54.7 61.9 55.4 61.9 62.35 58.45 50.5 58.8 50.15 M27.45 52.25 Q26.05 54.35 25.0 57.1 24.3 59.55 23.6 65.1 L23.25 61.65 Q23.25 58.15 23.6 55.4 L23.6 49.45 Q25.35 49.8 25.7 50.15 L27.45 50.15 29.15 50.5 31.95 50.85 Q30.55 54.0 29.5 58.15 29.5 55.7 29.15 55.05 28.8 57.1 27.8 58.15 L27.45 54.7 27.45 52.25 M43.45 51.55 L45.9 51.2 47.65 51.2 Q48.0 50.85 49.05 51.2 49.4 50.85 49.4 51.2 49.75 50.85 50.1 50.85 49.75 51.9 49.75 53.3 L48.0 60.6 47.65 57.1 46.95 53.65 Q46.25 55.05 45.9 60.6 L44.15 68.6 Q43.45 56.75 42.75 51.9 L43.1 51.55 43.45 51.55" fill="#7b299a" fill-rule="evenodd" stroke="none"/>
    <path d="M13.5 46.0 L14.2 43.9 14.55 43.9 Q45.2 50.85 74.1 43.55 L76.2 46.35 69.95 48.4 69.6 48.05 69.25 48.4 68.9 48.4 66.1 48.75 60.55 49.8 60.2 49.8 58.8 50.15 58.8 49.8 49.75 50.5 49.75 50.85 43.45 50.85 30.9 50.15 23.6 49.1 21.85 48.75 21.5 48.75 Q16.95 47.7 13.5 46.0" fill="#ffa1b0" fill-rule="evenodd" stroke="none"/>
    <path d="M79.35 62.35 Q74.8 65.1 68.55 66.85 59.15 70.0 47.65 70.0 35.8 70.0 25.7 67.55 16.65 64.4 10.35 60.25 L10.35 59.2 10.35 58.85 11.05 57.8 11.05 57.45 Q11.05 57.1 13.5 54.35 15.95 51.2 17.65 50.15 L21.15 48.75 21.5 48.75 21.85 48.75 23.6 49.1 30.9 50.15 43.45 50.85 43.45 51.55 43.1 51.55 42.75 51.9 Q43.45 56.75 44.15 68.6 L45.9 60.6 Q46.25 55.05 46.95 53.65 L47.65 57.1 48.0 60.6 49.75 53.3 Q49.75 51.9 50.1 50.85 49.75 50.85 49.4 51.2 49.4 50.85 49.75 50.85 L49.75 50.5 58.8 49.8 58.8 50.15 58.45 50.5 61.9 62.35 61.9 55.4 61.9 54.7 61.9 53.65 Q62.95 53.65 63.3 55.05 L64.35 57.1 64.35 53.65 Q65.4 54.0 67.15 58.5 68.45 61.15 68.85 64.05 68.15 57.35 67.15 53.3 66.8 50.5 66.1 48.75 L68.9 48.4 69.25 48.4 69.6 48.05 69.95 48.4 Q73.1 49.8 75.5 54.0 77.25 57.1 79.35 62.35 M34.05 57.8 Q33.0 59.2 32.65 60.95 L32.3 60.95 Q31.95 60.6 31.95 59.55 L31.6 58.85 Q30.55 62.35 29.85 63.05 L28.8 62.7 28.45 63.75 29.15 64.4 Q29.5 64.75 29.85 64.75 30.9 66.5 33.0 66.85 L35.8 67.55 38.95 68.25 Q39.95 68.25 41.0 67.55 42.75 66.85 42.75 66.15 L42.4 64.05 41.35 61.3 41.0 58.85 Q41.0 57.1 40.65 56.75 L38.6 56.75 37.2 56.05 Q35.1 56.05 34.05 57.8 M27.45 52.25 L27.45 54.7 27.8 58.15 Q28.8 57.1 29.15 55.05 29.5 55.7 29.5 58.15 30.55 54.0 31.95 50.85 L29.15 50.5 27.45 50.15 25.7 50.15 Q25.35 49.8 23.6 49.45 L23.6 55.4 Q23.25 58.15 23.25 61.65 L23.6 65.1 Q24.3 59.55 25.0 57.1 26.05 54.35 27.45 52.25 M55.65 59.9 Q53.55 59.9 52.85 61.65 51.8 63.05 51.8 66.5 L53.55 66.5 55.65 66.15 58.1 65.45 60.55 65.45 Q61.9 65.1 61.9 64.4 58.8 59.2 57.75 59.2 57.4 60.25 56.7 60.25 L55.65 59.9 M73.75 57.45 Q72.05 55.05 71.0 55.05 69.95 55.05 69.95 55.7 69.95 56.75 70.65 58.85 71.35 61.65 71.7 62.35 72.05 62.7 72.4 62.7 L74.1 62.35 Q75.15 61.65 75.15 60.95 75.15 60.25 73.75 57.45 M20.8 64.05 L21.5 63.75 Q20.45 60.6 20.1 58.85 L20.1 56.4 Q20.1 55.05 19.05 55.05 18.0 55.05 16.95 57.1 16.65 57.45 16.65 58.15 15.95 59.9 15.95 60.6 15.95 61.65 18.0 62.7 19.75 64.05 20.8 64.05" fill="#9f43cb" fill-rule="evenodd" stroke="none"/>
    <path d="M34.05 57.8 Q35.1 56.05 37.2 56.05 L38.6 56.75 40.65 56.75 Q41.0 57.1 41.0 58.85 L41.35 61.3 42.4 64.05 42.75 66.15 Q42.75 66.85 41.0 67.55 39.95 68.25 38.95 68.25 L35.8 67.55 33.0 66.85 Q30.9 66.5 29.85 64.75 29.5 64.75 29.15 64.4 L28.45 63.75 28.8 62.7 29.85 63.05 Q30.55 62.35 31.6 58.85 L31.95 59.55 Q31.95 60.6 32.3 60.95 L32.65 60.95 Q33.0 59.2 34.05 57.8 M20.8 64.05 Q19.75 64.05 18.0 62.7 15.95 61.65 15.95 60.6 15.95 59.9 16.65 58.15 16.65 57.45 16.95 57.1 18.0 55.05 19.05 55.05 20.1 55.05 20.1 56.4 L20.1 58.85 Q20.45 60.6 21.5 63.75 L20.8 64.05 M73.75 57.45 Q75.15 60.25 75.15 60.95 75.15 61.65 74.1 62.35 L72.4 62.7 Q72.05 62.7 71.7 62.35 71.35 61.65 70.65 58.85 69.95 56.75 69.95 55.7 69.95 55.05 71.0 55.05 72.05 55.05 73.75 57.45 M55.65 59.9 L56.7 60.25 Q57.4 60.25 57.75 59.2 58.8 59.2 61.9 64.4 61.9 65.1 60.55 65.45 L58.1 65.45 55.65 66.15 53.55 66.5 51.8 66.5 Q51.8 63.05 52.85 61.65 53.55 59.9 55.65 59.9" fill="#c26de9" fill-rule="evenodd" stroke="none"/>
    <path d="M77.6 44.6 Q77.6 44.25 77.95 44.25 78.65 43.9 80.05 43.9 81.8 43.9 82.5 44.95 82.85 45.3 82.85 47.05 82.5 47.4 82.5 47.7 81.8 50.15 79.7 49.8 L79.7 50.5 Q79.7 51.2 79.0 52.25 77.95 53.65 76.9 53.65 L75.15 53.65 74.1 54.7 74.1 55.05 Q73.75 55.05 73.4 55.4 72.4 56.4 71.35 56.4 70.3 56.4 68.9 55.7 68.2 55.05 67.85 55.05 67.5 56.05 66.1 56.75 L62.95 57.8 59.15 57.1 Q59.15 56.75 57.4 56.4 L55.3 57.8 Q53.2 58.85 51.8 58.85 50.1 58.85 49.05 58.15 47.65 57.1 46.95 56.75 45.9 57.1 44.85 57.8 43.45 58.5 42.4 58.5 41.0 58.5 39.95 57.8 38.95 57.45 37.9 56.75 37.55 56.75 36.85 57.45 35.1 58.5 33.0 58.5 31.6 58.5 30.2 57.1 28.8 56.4 28.8 55.7 L28.45 55.7 28.45 55.4 Q27.45 56.4 26.75 56.4 24.3 56.4 22.9 55.4 20.8 55.05 20.1 52.95 18.35 54.0 16.65 54.0 14.9 54.0 13.15 52.6 11.4 51.2 11.05 49.8 10.7 50.15 10.35 50.15 7.9 50.15 6.5 48.4 6.5 47.7 6.15 47.4 5.8 46.35 5.8 45.65 5.8 44.6 6.5 43.9 L6.5 43.55 Q7.2 42.15 8.6 42.15 L11.05 42.15 Q11.05 42.5 11.4 42.85 L10.35 45.65 13.5 47.4 13.85 47.4 Q19.75 51.2 28.15 53.3 36.85 55.4 47.3 55.4 56.35 55.4 64.7 53.3 69.95 51.9 74.1 49.8 L78.65 47.05 77.6 44.6 M11.35 48.7 L11.05 48.4 10.75 48.4 Q11.05 48.4 11.35 48.7" fill="#f7b8ff" fill-rule="evenodd" stroke="none"/>
    <path d="M11.4 42.85 L11.75 42.15 12.1 41.8 14.9 35.9 17.65 36.25 Q19.75 36.95 22.9 37.3 20.8 37.65 19.4 39.05 18.0 39.7 15.95 42.15 14.2 44.6 14.2 45.65 L13.85 46.7 13.85 47.4 13.5 47.4 10.35 45.65 11.4 42.85 M25.0 38.35 Q27.1 38.7 28.8 39.35 L31.6 40.05 33.0 40.05 31.25 44.95 Q31.25 42.85 30.9 42.5 30.55 44.25 29.5 44.95 L28.8 40.4 Q27.1 41.8 26.4 44.25 25.35 45.65 24.65 49.8 L24.3 47.4 Q23.6 41.1 23.95 38.0 24.65 38.0 25.0 38.35 M43.45 39.7 L49.75 39.7 52.5 39.7 Q52.15 40.05 52.15 40.75 L50.1 45.65 Q49.75 44.6 49.75 43.2 L48.35 41.1 Q47.65 41.8 47.3 45.3 L44.5 50.85 Q44.15 48.05 44.15 46.0 43.45 41.45 43.45 39.7 M57.4 39.35 L64.0 38.35 Q64.7 38.0 65.4 38.0 66.8 40.05 68.2 46.35 L66.45 43.55 65.05 41.8 Q64.0 40.75 63.3 40.75 L62.95 42.5 62.25 41.45 61.9 41.1 61.25 40.75 60.55 40.75 Q60.55 42.15 60.9 45.3 L60.2 45.3 57.05 39.35 57.4 39.35 M67.15 37.65 L68.9 36.95 72.75 36.25 77.6 44.6 78.65 47.05 74.1 49.8 71.7 42.85 Q69.95 39.05 67.15 37.65" fill="#7b299a" fill-rule="evenodd" stroke="none"/>
    <path d="M22.9 37.3 Q23.6 37.65 25.0 38.0 L25.0 38.35 Q24.65 38.0 23.95 38.0 23.6 41.1 24.3 47.4 L24.65 49.8 Q25.35 45.65 26.4 44.25 27.1 41.8 28.8 40.4 L29.5 44.95 Q30.55 44.25 30.9 42.5 31.25 42.85 31.25 44.95 L33.0 40.05 31.6 40.05 31.95 39.05 43.45 39.7 Q43.45 41.45 44.15 46.0 44.15 48.05 44.5 50.85 L47.3 45.3 Q47.65 41.8 48.35 41.1 L49.75 43.2 Q49.75 44.6 50.1 45.65 L52.15 40.75 Q52.15 40.05 52.5 39.7 L49.75 39.7 57.05 39.05 Q57.4 39.05 57.4 39.35 L57.05 39.35 60.2 45.3 60.9 45.3 Q60.55 42.15 60.55 40.75 L61.25 40.75 61.9 41.1 62.25 41.45 62.95 42.5 63.3 40.75 Q64.0 40.75 65.05 41.8 L66.45 43.55 68.2 46.35 Q66.8 40.05 65.4 38.0 64.7 38.0 64.0 38.35 L63.65 38.0 67.15 37.65 Q69.95 39.05 71.7 42.85 L74.1 49.8 Q69.95 51.9 64.7 53.3 56.35 55.4 47.3 55.4 36.85 55.4 28.15 53.3 19.75 51.2 13.85 47.4 L13.85 46.7 14.2 45.65 Q14.2 44.6 15.95 42.15 18.0 39.7 19.4 39.05 20.8 37.65 22.9 37.3 M59.5 48.05 L57.75 47.4 56.35 46.7 Q53.55 46.7 52.15 47.4 51.45 48.05 51.1 49.45 50.75 50.5 50.75 51.2 51.1 51.9 51.8 52.25 L53.55 52.6 61.9 51.55 Q69.25 50.5 69.25 48.75 69.25 47.7 68.55 47.7 L66.8 47.4 63.3 46.35 Q62.95 46.35 61.6 47.4 L59.5 48.05 M19.75 43.9 Q18.7 44.6 18.0 44.25 L18.0 45.65 Q18.0 46.7 18.35 47.4 L18.7 47.4 Q21.5 49.45 22.9 49.8 L23.25 49.1 Q21.5 48.75 21.5 46.0 21.15 43.2 20.8 42.5 L19.75 43.9 M33.35 47.4 Q31.95 47.7 30.9 48.75 L30.55 50.15 30.2 50.5 Q30.9 52.25 34.75 52.6 L39.95 52.95 41.7 52.6 Q43.1 52.25 43.1 51.55 41.35 47.4 40.65 47.05 39.3 45.65 37.2 44.25 L33.35 47.4" fill="#9f43cb" fill-rule="evenodd" stroke="none"/>
    <path d="M59.5 48.05 L61.6 47.4 Q62.95 46.35 63.3 46.35 L66.8 47.4 68.55 47.7 Q69.25 47.7 69.25 48.75 69.25 50.5 61.9 51.55 L53.55 52.6 51.8 52.25 Q51.1 51.9 50.75 51.2 50.75 50.5 51.1 49.45 51.45 48.05 52.15 47.4 53.55 46.7 56.35 46.7 L57.75 47.4 59.5 48.05 M19.75 43.9 L20.8 42.5 Q21.15 43.2 21.5 46.0 21.5 48.75 23.25 49.1 L22.9 49.8 Q21.5 49.45 18.7 47.4 L18.35 47.4 Q18.0 46.7 18.0 45.65 L18.0 44.25 Q18.7 44.6 19.75 43.9 M33.35 47.4 L37.2 44.25 Q39.3 45.65 40.65 47.05 41.35 47.4 43.1 51.55 43.1 52.25 41.7 52.6 L39.95 52.95 34.75 52.6 Q30.9 52.25 30.2 50.5 L30.55 50.15 30.9 48.75 Q31.95 47.7 33.35 47.4" fill="#c26de9" fill-rule="evenodd" stroke="none"/>
    <path d="M72.75 36.25 Q66.45 39.7 55.3 40.75 44.5 41.8 37.2 41.1 L22.2 38.7 Q14.2 36.95 14.9 35.9 L15.95 32.4 Q44.5 40.05 71.7 33.1 L72.75 36.25" fill="#c26de9" fill-rule="evenodd" stroke="none"/>
    <path d="M67.5 23.35 L66.1 24.05 Q64.7 24.4 64.0 24.75 61.9 25.1 61.25 25.8 59.85 26.5 54.95 30.0 L51.8 31.7 51.8 32.05 Q47.65 35.2 43.8 35.9 36.85 34.85 34.4 31.7 31.25 28.25 29.5 27.9 28.15 26.85 27.1 26.5 23.6 24.4 19.75 22.7 20.45 21.3 21.85 15.7 23.6 9.45 24.3 7.7 L28.8 7.7 Q28.15 11.55 28.45 16.75 L29.15 23.35 Q41.35 27.55 57.4 23.35 58.45 19.55 58.8 15.7 L59.15 7.35 63.3 7.7 Q64.0 9.45 65.4 15.7 66.8 22.0 67.5 23.35" fill="#7b299a" fill-rule="evenodd" stroke="none"/>
    <path d="M19.75 22.7 Q23.6 24.4 27.1 26.5 28.15 26.85 29.5 27.9 31.25 28.25 34.4 31.7 36.85 34.85 43.8 35.9 47.65 35.2 51.8 32.05 L51.8 31.7 54.95 30.0 Q59.85 26.5 61.25 25.8 61.9 25.1 64.0 24.75 64.7 24.4 66.1 24.05 L67.5 23.35 Q69.6 27.9 72.05 30.7 L72.75 36.25 Q57.4 40.75 43.1 36.25 30.55 40.75 14.9 35.9 L14.9 30.7 Q16.95 27.9 19.75 22.7" fill="#af48e0" fill-rule="evenodd" stroke="none"/>
  </g>
</svg>
