<?xml version="1.0" encoding="UTF-8" standalone="no"?>
<svg xmlns:xlink="http://www.w3.org/1999/xlink" height="84.1px" width="82.0px" xmlns="http://www.w3.org/2000/svg">
  <g transform="matrix(1.0, 0.0, 0.0, 1.0, -3.95, -2.75)">
    <path d="M82.95 77.8 Q66.2 85.8 47.4 83.0 L45.3 73.6 43.55 83.0 Q24.05 86.15 6.95 77.8 6.95 75.0 7.65 72.2 8.0 70.15 8.7 67.7 10.1 62.45 13.25 55.5 L14.65 49.25 18.1 21.4 12.9 13.75 20.2 5.75 71.1 6.1 79.1 14.45 73.2 21.75 75.25 47.5 75.6 47.5 75.95 49.95 76.3 53.8 76.65 55.15 Q80.15 62.15 81.9 70.8 82.95 73.95 82.95 77.8" fill="#923ebd" fill-rule="evenodd" stroke="none"/>
    <path d="M82.95 77.8 Q66.2 85.8 47.4 83.0 L45.3 73.6 43.55 83.0 Q24.05 86.15 6.95 77.8 6.95 75.0 7.65 72.2 8.0 70.15 8.7 67.7 10.1 62.45 13.25 55.5 L14.65 49.25 18.1 21.4 12.9 13.75 20.2 5.75 71.1 6.1 79.1 14.45 73.2 21.75 75.25 47.5 75.6 47.5 75.95 49.95 76.3 53.8 76.65 55.15 Q80.15 62.15 81.9 70.8 82.95 73.95 82.95 77.8 Z" fill="none" stroke="#4c0e62" stroke-linecap="round" stroke-linejoin="round" stroke-width="6.0"/>
    <path d="M67.45 5.7 L70.95 5.7 78.95 14.05 73.05 21.35 75.1 47.45 75.1 51.65 Q72.0 52.7 68.85 53.05 L66.05 53.7 Q70.6 42.95 67.45 5.7 M22.5 53.4 L19.35 53.05 13.8 52.0 17.95 21.0 12.75 13.35 20.05 5.35 24.25 5.35 Q17.95 45.4 22.5 53.4" fill="#74299a" fill-rule="evenodd" stroke="none"/>
    <path d="M66.05 53.7 Q55.95 55.45 45.15 55.45 L28.45 54.4 26.35 54.05 23.2 53.7 Q22.85 53.4 22.5 53.4 17.95 45.4 24.25 5.35 L67.45 5.7 Q70.6 42.95 66.05 53.7" fill="#933abf" fill-rule="evenodd" stroke="none"/>
    <path d="M76.5 54.75 Q79.65 61.75 81.75 70.4 82.45 73.55 82.8 77.4 66.05 85.4 47.25 82.6 L46.2 77.4 Q47.6 81.9 55.25 81.2 67.8 80.85 73.7 78.75 80.0 76.7 80.7 75.3 81.4 73.55 81.4 71.1 81.05 68.7 75.8 55.1 76.15 54.75 76.5 54.75 M44.45 76.7 L43.05 82.6 Q23.9 85.75 6.8 77.4 6.8 74.6 7.5 71.8 7.85 69.75 8.55 67.3 9.95 62.05 13.1 55.1 L14.15 55.8 Q10.65 62.4 8.9 72.85 8.55 74.25 9.95 75.3 16.95 79.45 31.55 80.85 42.0 81.55 44.45 76.7" fill="#803ebd" fill-rule="evenodd" stroke="none"/>
    <path d="M17.3 56.85 L20.75 57.55 Q22.85 58.25 25.65 58.6 34.7 60.35 45.15 60.35 58.4 60.35 70.25 56.85 L73.4 56.15 Q75.8 61.4 76.85 66.95 77.55 72.5 76.15 73.55 75.8 73.55 75.1 73.9 72.35 74.95 72.0 73.55 71.65 71.8 69.9 68.0 69.9 74.6 67.45 75.65 64.3 77.4 59.45 77.05 54.2 77.05 51.4 76.0 48.65 75.3 48.65 72.5 L48.65 68.7 Q48.65 67.65 51.75 66.6 L41.3 66.6 Q39.6 66.6 39.25 66.95 L38.2 66.95 Q40.6 68.0 41.3 68.7 41.65 69.75 41.3 72.5 41.3 75.65 38.9 76.35 36.45 77.4 33.65 77.4 L23.55 76.7 Q17.6 75.3 17.6 70.75 L17.3 70.75 Q15.9 73.9 14.5 73.2 13.1 71.8 12.75 71.8 L12.75 70.4 14.5 63.1 Q15.2 58.6 16.95 57.2 16.95 56.85 17.3 56.85 M27.05 73.9 Q29.1 74.25 31.2 74.95 L34.0 75.3 35.4 74.25 Q36.1 73.55 36.1 71.8 36.1 70.1 35.05 69.05 L32.6 67.3 30.15 65.2 Q29.1 64.15 27.4 64.15 26.0 64.15 25.3 65.55 L24.6 66.95 Q24.95 68.0 24.6 69.4 L24.6 70.1 Q24.95 73.55 27.05 73.9 M60.85 64.5 L58.4 65.2 54.9 66.6 54.2 67.65 Q54.55 67.3 54.55 67.65 54.2 68.0 54.2 68.35 L53.5 69.4 53.15 70.1 Q52.45 71.8 52.45 73.2 52.45 74.25 53.85 74.6 L56.3 74.6 Q58.75 74.6 60.5 71.8 62.25 69.05 62.25 66.25 L62.25 64.85 Q61.9 64.5 60.85 64.5" fill="#b784e4" fill-rule="evenodd" stroke="none"/>
    <path d="M20.75 49.55 Q25.3 51.3 29.8 51.65 L50.4 52.35 Q59.8 51.65 67.8 49.55 L68.85 51.65 Q44.1 57.55 19.35 51.3 L20.75 49.55 M70.25 56.85 Q58.4 60.35 45.15 60.35 34.7 60.35 25.65 58.6 22.85 58.25 20.75 57.55 L17.3 56.85 Q17.3 55.8 17.6 54.75 18.3 54.75 19.0 55.1 43.4 61.75 68.15 55.45 L70.25 55.1 Q70.6 56.15 70.25 56.85" fill="#f6eeff" fill-rule="evenodd" stroke="none"/>
    <path d="M27.05 73.9 Q24.95 73.55 24.6 70.1 L24.6 69.4 Q24.95 68.0 24.6 66.95 L25.3 65.55 Q26.0 64.15 27.4 64.15 29.1 64.15 30.15 65.2 L32.6 67.3 35.05 69.05 Q36.1 70.1 36.1 71.8 36.1 73.55 35.4 74.25 L34.0 75.3 31.2 74.95 Q29.1 74.25 27.05 73.9 M60.85 64.5 Q61.9 64.5 62.25 64.85 L62.25 66.25 Q62.25 69.05 60.5 71.8 58.75 74.6 56.3 74.6 L53.85 74.6 Q52.45 74.25 52.45 73.2 52.45 71.8 53.15 70.1 L53.5 69.4 54.2 68.35 Q54.2 68.0 54.55 67.65 54.55 67.3 54.2 67.65 L54.9 66.6 58.4 65.2 60.85 64.5" fill="#d0aef0" fill-rule="evenodd" stroke="none"/>
    <path d="M46.2 77.4 L45.15 73.2 44.45 76.7 Q42.0 81.55 31.55 80.85 16.95 79.45 9.95 75.3 8.55 74.25 8.9 72.85 10.65 62.4 14.15 55.8 L17.3 56.85 Q16.95 56.85 16.95 57.2 15.2 58.6 14.5 63.1 L12.75 70.4 12.75 71.8 Q13.1 71.8 14.5 73.2 15.9 73.9 17.3 70.75 L17.6 70.75 Q17.6 75.3 23.55 76.7 L33.65 77.4 Q36.45 77.4 38.9 76.35 41.3 75.65 41.3 72.5 41.65 69.75 41.3 68.7 40.6 68.0 38.2 66.95 L39.25 66.95 Q39.6 66.6 41.3 66.6 L51.75 66.6 Q48.65 67.65 48.65 68.7 L48.65 72.5 Q48.65 75.3 51.4 76.0 54.2 77.05 59.45 77.05 64.3 77.4 67.45 75.65 69.9 74.6 69.9 68.0 71.65 71.8 72.0 73.55 72.35 74.95 75.1 73.9 75.8 73.55 76.15 73.55 77.55 72.5 76.85 66.95 75.8 61.4 73.4 56.15 73.4 55.8 73.7 55.8 L75.8 55.1 Q81.05 68.7 81.4 71.1 81.4 73.55 80.7 75.3 80.0 76.7 73.7 78.75 67.8 80.85 55.25 81.2 47.6 81.9 46.2 77.4" fill="#a46ad9" fill-rule="evenodd" stroke="none"/>
    <path d="M70.25 55.1 L68.15 55.45 Q43.4 61.75 19.0 55.1 18.3 54.75 17.6 54.75 18.3 53.05 19.35 51.3 44.1 57.55 68.85 51.65 69.9 53.4 70.25 55.1" fill="#e0c5fa" fill-rule="evenodd" stroke="none"/>
    <path d="M13.45 53.4 L14.15 49.55 Q16.95 50.25 19.35 51.3 18.3 53.05 17.6 54.75 15.55 54.05 13.45 53.7 L13.45 53.4 M75.8 49.55 L76.15 53.4 Q75.45 53.4 75.1 53.7 L70.25 55.1 Q69.9 53.4 68.85 51.65 72.35 50.95 75.8 49.55" fill="#bb9dd7" fill-rule="evenodd" stroke="none"/>
    <path d="M13.1 55.1 L13.45 53.4 13.45 53.7 Q15.55 54.05 17.6 54.75 17.3 55.8 17.3 56.85 L14.15 55.8 13.1 55.1 M14.15 49.55 L14.85 47.45 Q17.6 48.85 20.75 49.55 L19.35 51.3 Q16.95 50.25 14.15 49.55 M67.8 49.55 Q71.65 48.5 75.45 47.1 L75.8 49.55 Q72.35 50.95 68.85 51.65 L67.8 49.55 M76.15 53.4 L76.5 54.75 Q76.15 54.75 75.8 55.1 L73.7 55.8 Q73.4 55.8 73.4 56.15 L70.25 56.85 Q70.6 56.15 70.25 55.1 L75.1 53.7 Q75.45 53.4 76.15 53.4" fill="#d9c5ec" fill-rule="evenodd" stroke="none"/>
    <path d="M22.2 49.0 Q25.85 46.7 27.75 50.55 L26.1 60.4 Q22.1 62.45 20.3 58.9 L22.2 49.0 M65.8 51.05 Q63.55 48.95 62.25 51.45 L64.35 58.55 Q66.35 60.4 67.95 57.95 L65.8 51.05 M26.35 51.9 Q25.3 49.1 23.0 50.7 L21.6 57.95 Q22.6 60.55 25.15 59.1 L26.35 51.9 M63.6 60.4 L60.8 50.85 Q62.25 47.15 66.3 48.9 L69.25 58.45 Q67.15 62.65 63.6 60.4" fill="#5d1185" fill-rule="evenodd" stroke="none"/>
    <path d="M26.35 51.9 L25.15 59.1 Q22.6 60.55 21.6 57.95 L23.0 50.7 Q25.3 49.1 26.35 51.9 M65.8 51.05 L67.95 57.95 Q66.35 60.4 64.35 58.55 L62.25 51.45 Q63.55 48.95 65.8 51.05" fill="#803ebd" fill-rule="evenodd" stroke="none"/>
    <path d="M47.2 12.6 Q47.2 14.7 48.65 16.15 50.2 17.55 52.2 17.55 54.3 17.55 55.85 16.15 57.3 14.7 57.3 12.6 57.3 10.5 55.85 8.95 54.3 7.55 52.2 7.55 50.2 7.55 48.65 8.95 47.2 10.5 47.2 12.6" fill="#fad7ff" fill-rule="evenodd" stroke="none"/>
    <path d="M56.2 21.5 Q56.2 19.35 54.65 17.8 53.15 16.3 50.95 16.3 48.75 16.3 47.25 17.8 45.7 19.35 45.7 21.5 45.7 23.7 47.25 25.2 48.75 26.7 50.95 26.7 53.15 26.7 54.65 25.2 56.2 23.7 56.2 21.5" fill="#fad7ff" fill-rule="evenodd" stroke="none"/>
    <path d="M57.35 29.85 Q57.35 27.55 55.7 25.9 54.1 24.35 51.8 24.35 49.5 24.35 47.9 25.9 46.25 27.55 46.25 29.85 46.25 32.1 47.9 33.7 49.5 35.3 51.8 35.3 54.1 35.3 55.7 33.7 57.35 32.1 57.35 29.85" fill="#fad7ff" fill-rule="evenodd" stroke="none"/>
    <path d="M56.8 40.55 Q56.85 38.3 55.3 36.7 53.75 35.15 51.5 35.05 49.25 35.0 47.65 36.5 46.0 38.05 45.95 40.3 45.9 42.55 47.45 44.1 48.95 45.75 51.2 45.8 53.45 45.9 55.1 44.3 56.75 42.8 56.8 40.55" fill="#fad7ff" fill-rule="evenodd" stroke="none"/>
    <path d="M49.4 46.45 Q49.4 44.1 47.7 42.45 46.05 40.8 43.7 40.8 41.35 40.8 39.7 42.45 38.05 44.1 38.05 46.45 38.05 48.8 39.7 50.4 41.35 52.05 43.7 52.05 46.05 52.05 47.7 50.4 49.4 48.8 49.4 46.45" fill="#fad7ff" fill-rule="evenodd" stroke="none"/>
    <path d="M41.2 12.95 Q41.2 15.2 39.65 16.75 38.0 18.3 35.8 18.3 33.55 18.3 31.95 16.75 30.4 15.2 30.4 12.95 30.4 10.7 31.95 9.1 33.55 7.55 35.8 7.55 38.0 7.55 39.65 9.1 41.2 10.7 41.2 12.95" fill="#fad7ff" fill-rule="evenodd" stroke="none"/>
    <path d="M30.6 20.5 Q30.6 18.2 32.25 16.55 33.9 14.95 36.2 14.95 38.5 14.95 40.15 16.55 41.8 18.2 41.8 20.5 41.8 22.85 40.15 24.45 38.5 26.1 36.2 26.1 33.9 26.1 32.25 24.45 30.6 22.85 30.6 20.5" fill="#fad7ff" fill-rule="evenodd" stroke="none"/>
    <path d="M36.1 25.25 Q38.35 25.25 39.95 26.85 41.6 28.5 41.6 30.7 41.6 33.05 39.95 34.6 38.35 36.2 36.1 36.2 33.8 36.2 32.15 34.6 30.55 33.05 30.55 30.7 30.55 28.5 32.15 26.85 33.8 25.25 36.1 25.25" fill="#fad7ff" fill-rule="evenodd" stroke="none"/>
    <path d="M30.0 40.65 Q30.0 38.45 31.6 36.85 33.2 35.3 35.4 35.3 37.7 35.3 39.25 36.85 40.85 38.45 40.85 40.65 40.85 42.9 39.25 44.45 37.7 46.05 35.4 46.05 33.2 46.05 31.6 44.45 30.0 42.9 30.0 40.65" fill="#fad7ff" fill-rule="evenodd" stroke="none"/>
    <path d="M44.5 7.25 L44.55 7.25 Q47.75 7.25 49.95 9.7 52.15 12.15 52.15 15.6 L52.15 39.2 Q52.15 42.6 49.95 45.0 47.75 47.45 44.55 47.45 L44.5 47.45 Q41.3 47.45 39.0 45.0 36.7 42.6 36.7 39.2 L36.7 15.6 Q36.7 12.15 39.0 9.7 41.3 7.25 44.5 7.25 M48.75 11.25 Q47.0 9.1 44.55 9.1 42.1 9.1 40.35 11.25 38.55 13.5 38.55 16.6 L38.55 38.0 Q38.55 41.05 40.35 43.25 42.1 45.4 44.55 45.4 47.0 45.4 48.75 43.25 50.4 41.05 50.4 38.0 L50.4 37.7 50.4 16.6 Q50.4 13.5 48.75 11.25" fill="#74299a" fill-rule="evenodd" stroke="none"/>
    <path d="M48.75 11.25 Q50.4 13.5 50.4 16.6 L50.4 37.7 50.4 38.0 Q50.4 41.05 48.75 43.25 47.0 45.4 44.55 45.4 42.1 45.4 40.35 43.25 38.55 41.05 38.55 38.0 L38.55 16.6 Q38.55 13.5 40.35 11.25 42.1 9.1 44.55 9.1 47.0 9.1 48.75 11.25" fill="#e6befa" fill-rule="evenodd" stroke="none"/>
    <path d="M46.1 20.5 Q47.1 21.55 47.1 23.0 47.1 24.45 46.1 25.5 45.05 26.5 43.65 26.5 42.15 26.5 41.1 25.5 40.1 24.45 40.1 23.0 40.1 21.55 41.1 20.5 42.15 19.5 43.65 19.5 45.05 19.5 46.1 20.5" fill="#ca6be4" fill-rule="evenodd" stroke="none"/>
    <path d="M46.1 28.2 Q47.1 29.25 47.1 30.7 47.1 32.15 46.1 33.2 45.05 34.2 43.65 34.2 42.15 34.2 41.1 33.2 40.1 32.15 40.1 30.7 40.1 29.25 41.1 28.2 42.15 27.2 43.65 27.2 45.05 27.2 46.1 28.2" fill="#ca6be4" fill-rule="evenodd" stroke="none"/>
    <path d="M46.85 12.35 Q47.9 13.35 47.9 14.8 47.9 16.25 46.85 17.25 45.8 18.25 44.4 18.25 42.9 18.25 41.9 17.25 40.9 16.25 40.9 14.8 40.9 13.35 41.9 12.35 42.9 11.35 44.4 11.35 45.8 11.35 46.85 12.35" fill="#ca6be4" fill-rule="evenodd" stroke="none"/>
    <path d="M46.1 37.3 Q47.1 38.35 47.1 39.8 47.1 41.25 46.1 42.3 45.05 43.3 43.65 43.3 42.15 43.3 41.1 42.3 40.1 41.25 40.1 39.8 40.1 38.35 41.1 37.3 42.15 36.3 43.65 36.3 45.05 36.3 46.1 37.3" fill="#ca6be4" fill-rule="evenodd" stroke="none"/>
  </g>
</svg>
