<?xml version="1.0" encoding="UTF-8" standalone="no"?>
<svg xmlns:xlink="http://www.w3.org/1999/xlink" height="83.8px" width="346.5px" xmlns="http://www.w3.org/2000/svg">
  <g transform="matrix(1.0, 0.0, 0.0, 1.0, -179.0, -224.4)">
    <path d="M213.35 266.35 L206.55 264.55 206.95 275.65 214.25 278.1 213.35 266.35 M198.05 230.15 L197.4 230.9 197.35 233.7 Q203.95 233.75 210.8 235.9 L202.1 246.75 202.1 249.05 205.95 248.75 Q206.85 249.55 206.9 250.45 206.85 251.45 206.15 252.4 L202.2 252.55 202.25 254.85 207.4 254.75 Q208.4 255.35 208.25 256.55 208.25 257.45 207.55 258.45 L206.4 258.4 206.4 260.05 215.5 263.35 217.25 264.65 217.95 266.55 218.4 279.35 230.0 283.35 Q231.6 286.9 231.1 294.2 L230.0 301.7 Q228.95 304.7 226.5 303.45 L225.45 299.95 207.35 292.95 207.7 296.35 Q207.0 296.65 206.45 297.05 L204.75 297.65 207.1 304.1 206.05 305.2 Q204.25 306.85 202.35 307.55 196.75 309.8 190.1 304.45 L192.0 297.65 Q190.75 297.45 190.0 296.95 L189.75 292.3 185.8 294.9 185.4 301.45 179.0 304.85 179.35 293.45 181.9 290.5 182.5 274.5 183.3 274.25 Q184.75 273.9 186.3 274.65 L186.2 279.25 189.1 275.85 188.65 259.05 187.65 259.0 Q186.8 258.15 186.65 257.1 186.9 256.25 187.7 255.4 L191.65 255.25 191.65 253.0 188.85 253.05 Q188.05 252.15 187.95 251.25 187.9 250.25 188.6 249.25 L191.45 249.25 191.5 246.85 191.2 247.0 181.8 237.1 Q187.65 234.2 194.4 233.55 L194.2 231.1 193.05 230.5 Q192.05 229.45 192.05 228.05 191.9 226.7 192.9 225.45 194.1 224.45 195.3 224.4 196.75 224.35 197.8 225.3 198.85 226.4 198.9 227.75 199.0 229.1 198.05 230.15" fill="#35b6e0" fill-rule="evenodd" stroke="none"/>
    <path d="M474.5 283.35 L486.1 279.35 486.55 266.55 487.25 264.65 489.0 263.35 498.1 260.05 498.1 258.4 496.95 258.45 Q496.25 257.45 496.25 256.55 496.1 255.35 497.1 254.75 L502.25 254.85 502.3 252.55 498.35 252.4 Q497.65 251.45 497.6 250.45 497.65 249.55 498.55 248.75 L502.4 249.05 502.4 246.75 493.7 235.9 Q500.55 233.75 507.15 233.7 L507.1 230.9 506.45 230.15 Q505.5 229.1 505.6 227.75 505.65 226.4 506.7 225.3 507.75 224.35 509.2 224.4 510.4 224.45 511.6 225.45 512.6 226.7 512.45 228.05 512.45 229.45 511.45 230.5 L510.3 231.1 510.1 233.55 Q516.85 234.2 522.7 237.1 L513.3 247.0 513.0 246.85 513.05 249.25 515.9 249.25 Q516.6 250.25 516.55 251.25 516.45 252.15 515.65 253.05 L512.85 253.0 512.85 255.25 516.8 255.4 Q517.6 256.25 517.85 257.1 517.7 258.15 516.85 259.0 L515.85 259.05 515.4 275.85 518.3 279.25 518.2 274.65 Q519.75 273.9 521.2 274.25 L522.0 274.5 522.6 290.5 525.15 293.45 525.5 304.85 519.1 301.45 518.7 294.9 514.75 292.3 514.5 296.95 512.5 297.65 514.4 304.45 Q507.75 309.8 502.15 307.55 500.25 306.85 498.45 305.2 L497.4 304.1 499.75 297.65 498.05 297.05 Q497.5 296.65 496.8 296.35 L497.15 292.95 479.05 299.95 478.0 303.45 Q475.55 304.7 474.5 301.7 473.7 297.65 473.4 294.2 472.9 286.9 474.5 283.35 M491.15 266.35 L490.25 278.1 497.55 275.65 497.95 264.55 491.15 266.35" fill="#35b6e0" fill-rule="evenodd" stroke="none"/>
  </g>
</svg>
