<?xml version="1.0" encoding="UTF-8" standalone="no"?>
<svg xmlns:xlink="http://www.w3.org/1999/xlink" height="6.3px" width="10.5px" xmlns="http://www.w3.org/2000/svg">
  <g transform="matrix(1.0, 0.0, 0.0, 1.0, -17.6, -45.85)">
    <path d="M17.95 49.05 L17.95 48.95 Q17.95 47.85 18.6 47.0 19.3 46.2 20.25 46.2 21.2 46.2 21.85 47.0 22.55 47.85 22.55 48.95 L22.55 49.45 Q22.4 50.3 21.85 50.9 21.2 51.7 20.25 51.7 19.3 51.7 18.6 50.9 18.1 50.25 18.0 49.4 L17.95 49.05" fill="#001000" fill-rule="evenodd" stroke="none"/>
    <path d="M17.95 49.05 L17.95 48.95 Q17.95 47.85 18.6 47.0 19.3 46.2 20.25 46.2 21.2 46.2 21.85 47.0 22.55 47.85 22.55 48.95 L22.55 49.45 Q22.4 50.3 21.85 50.9 21.2 51.7 20.25 51.7 19.3 51.7 18.6 50.9 18.1 50.25 18.0 49.4 L17.95 49.05 Z" fill="none" stroke="#001000" stroke-linecap="round" stroke-linejoin="round" stroke-width="0.75"/>
    <path d="M17.95 49.05 L17.95 48.95 Q17.95 47.85 18.6 47.0 19.3 46.2 20.25 46.2 21.2 46.2 21.85 47.0 22.55 47.85 22.55 48.95 L22.55 49.45 Q21.85 46.45 20.05 46.55 18.35 46.6 17.95 49.05" fill="#289504" fill-rule="evenodd" stroke="none"/>
    <path d="M22.55 49.45 Q22.4 50.3 21.85 50.9 21.2 51.7 20.25 51.7 19.3 51.7 18.6 50.9 18.1 50.25 18.0 49.4 L17.95 49.05 Q18.35 46.6 20.05 46.55 21.85 46.45 22.55 49.45" fill="#54bb03" fill-rule="evenodd" stroke="none"/>
    <path d="M27.75 49.05 L27.75 49.55 27.05 51.0 Q26.4 51.8 25.45 51.8 24.5 51.8 23.8 51.0 23.3 50.35 23.2 49.5 L23.15 49.15 23.15 49.05 Q23.15 47.95 23.8 47.1 24.5 46.3 25.45 46.3 26.4 46.3 27.05 47.1 27.75 47.95 27.75 49.05" fill="#001000" fill-rule="evenodd" stroke="none"/>
    <path d="M27.75 49.05 L27.75 49.55 27.05 51.0 Q26.4 51.8 25.45 51.8 24.5 51.8 23.8 51.0 23.3 50.35 23.2 49.5 L23.15 49.15 23.15 49.05 Q23.15 47.95 23.8 47.1 24.5 46.3 25.45 46.3 26.4 46.3 27.05 47.1 27.75 47.95 27.75 49.05 Z" fill="none" stroke="#001000" stroke-linecap="round" stroke-linejoin="round" stroke-width="0.75"/>
    <path d="M23.15 49.15 L23.15 49.05 Q23.15 47.95 23.8 47.1 24.5 46.3 25.45 46.3 26.4 46.3 27.05 47.1 27.75 47.95 27.75 49.05 L27.75 49.55 Q27.05 46.55 25.25 46.65 23.55 46.7 23.15 49.15" fill="#289504" fill-rule="evenodd" stroke="none"/>
    <path d="M27.75 49.55 L27.05 51.0 Q26.4 51.8 25.45 51.8 24.5 51.8 23.8 51.0 23.3 50.35 23.2 49.5 L23.15 49.15 Q23.55 46.7 25.25 46.65 27.05 46.55 27.75 49.55" fill="#54bb03" fill-rule="evenodd" stroke="none"/>
  </g>
</svg>
