<?xml version="1.0" encoding="UTF-8" standalone="no"?>
<svg xmlns:xlink="http://www.w3.org/1999/xlink" height="6.4px" width="22.75px" xmlns="http://www.w3.org/2000/svg">
  <g transform="matrix(1.0, 0.0, 0.0, 1.0, -3.5, 10.75)">
    <path d="M5.4 -9.95 L6.65 -10.35 7.1 -10.4 Q7.8 -10.35 8.25 -9.8 L8.35 -9.65 8.45 -9.45 8.6 -9.05 8.75 -8.75 9.0 -8.2 Q9.35 -7.15 8.8 -6.15 8.25 -5.2 7.2 -4.9 6.15 -4.6 5.2 -5.15 4.3 -5.65 3.95 -6.75 3.65 -7.75 4.2 -8.7 4.55 -9.4 5.35 -9.9 L5.4 -9.95" fill="#cf72f0" fill-rule="evenodd" stroke="none"/>
    <path d="M5.4 -9.95 L6.65 -10.35 7.1 -10.4 Q7.8 -10.35 8.25 -9.8 L8.35 -9.65 8.45 -9.45 8.6 -9.05 8.75 -8.75 9.0 -8.2 Q9.35 -7.15 8.8 -6.15 8.25 -5.2 7.2 -4.9 6.15 -4.6 5.2 -5.15 4.3 -5.65 3.95 -6.75 3.65 -7.75 4.2 -8.7 4.55 -9.4 5.35 -9.9" fill="none" stroke="#000000" stroke-linecap="round" stroke-linejoin="round" stroke-width="0.75"/>
    <path d="M7.1 -10.4 Q7.8 -10.35 8.25 -9.8 L8.35 -9.65 8.45 -9.45 8.5 -9.0 8.45 -8.8 8.4 -8.35 8.35 -8.1 8.0 -8.1 7.5 -8.15 6.8 -8.45 Q6.65 -8.5 6.45 -8.65 L6.2 -8.75 6.25 -8.85 5.85 -9.3 5.7 -9.4 6.0 -9.7 6.05 -9.75 6.45 -9.9 Q6.75 -10.15 6.75 -9.9 L6.9 -9.85 7.1 -10.4" fill="#c8c8c8" fill-rule="evenodd" stroke="none"/>
    <path d="M7.1 -10.4 L6.9 -9.85 6.75 -9.9 Q6.75 -10.15 6.45 -9.9 L6.05 -9.75 6.0 -9.7 5.7 -9.4 5.35 -9.9 5.4 -9.95 6.65 -10.35 7.1 -10.4 M5.85 -9.3 L6.25 -8.85 6.2 -8.75 5.7 -9.0 5.85 -9.3" fill="#a2a2a2" fill-rule="evenodd" stroke="none"/>
    <path d="M7.5 -8.15 L8.0 -8.1 7.95 -7.9 7.5 -8.15 M8.35 -8.1 L8.4 -8.35 8.45 -8.8 8.5 -9.0 8.45 -9.45 8.75 -8.2 8.35 -8.1" fill="#e6e6e6" fill-rule="evenodd" stroke="none"/>
    <path d="M7.75 -9.75 L8.45 -9.25 8.75 -8.75 9.0 -8.2 Q9.35 -7.15 8.8 -6.15 8.25 -5.2 7.2 -4.9 6.15 -4.6 5.2 -5.15 4.3 -5.65 3.95 -6.75 3.65 -7.75 4.2 -8.7 4.7 -9.65 5.8 -9.95 L6.25 -10.1 6.95 -10.05 7.75 -9.75" fill="#393730" fill-rule="evenodd" stroke="none"/>
    <path d="M8.25 -7.3 Q7.85 -6.6 7.05 -6.35 6.25 -6.15 5.55 -6.55 4.85 -6.95 4.65 -7.75 4.45 -8.55 4.7 -9.2 5.0 -9.9 5.8 -10.1 L7.4 -9.95 Q8.25 -9.6 8.45 -8.8 8.65 -8.0 8.25 -7.3" fill="#525458" fill-rule="evenodd" stroke="none"/>
    <path d="M6.25 -7.45 L6.35 -8.1 5.9 -8.65 5.25 -8.75 4.7 -8.35 Q4.55 -8.0 4.65 -7.65 4.7 -7.3 5.05 -7.15 L5.7 -7.05 6.25 -7.45" fill="#8a8a8a" fill-rule="evenodd" stroke="none"/>
    <path d="M24.4 -9.8 L25.55 -8.6 Q26.1 -7.65 25.8 -6.65 25.45 -5.55 24.55 -5.05 23.6 -4.5 22.55 -4.8 21.5 -5.1 20.95 -6.05 20.4 -7.05 20.75 -8.1 L21.0 -8.65 21.15 -8.95 21.3 -9.35 21.4 -9.55 21.5 -9.7 Q21.95 -10.25 22.65 -10.3 L23.1 -10.25 24.35 -9.85 24.4 -9.8" fill="#cf72f0" fill-rule="evenodd" stroke="none"/>
    <path d="M24.35 -9.85 L23.1 -10.25 22.65 -10.3 Q21.95 -10.25 21.5 -9.7 L21.4 -9.55 21.3 -9.35 21.15 -8.95 21.0 -8.65 20.75 -8.1 Q20.4 -7.05 20.95 -6.05 21.5 -5.1 22.55 -4.8 23.6 -4.5 24.55 -5.05 25.45 -5.55 25.8 -6.65 26.1 -7.65 25.55 -8.6 L24.4 -9.8" fill="none" stroke="#000000" stroke-linecap="round" stroke-linejoin="round" stroke-width="0.75"/>
    <path d="M22.65 -10.3 L23.1 -10.25 24.35 -9.85 24.4 -9.8 24.05 -9.3 23.75 -9.6 23.7 -9.65 23.3 -9.8 Q23.0 -10.05 23.0 -9.8 L22.85 -9.75 22.65 -10.3 M23.9 -9.2 L24.05 -8.9 23.55 -8.65 23.5 -8.75 23.9 -9.2" fill="#a2a2a2" fill-rule="evenodd" stroke="none"/>
    <path d="M24.05 -9.3 L23.9 -9.2 23.5 -8.75 23.55 -8.65 23.3 -8.55 22.95 -8.35 22.25 -8.05 21.75 -8.0 21.4 -8.0 21.35 -8.25 21.3 -8.7 21.25 -8.9 21.3 -9.35 21.4 -9.55 21.5 -9.7 Q21.95 -10.25 22.65 -10.3 L22.85 -9.75 23.0 -9.8 Q23.0 -10.05 23.3 -9.8 L23.7 -9.65 23.75 -9.6 24.05 -9.3" fill="#c8c8c8" fill-rule="evenodd" stroke="none"/>
    <path d="M22.25 -8.05 L21.8 -7.8 21.75 -8.0 22.25 -8.05 M21.4 -8.0 L21.0 -8.1 21.3 -9.35 21.25 -8.9 21.3 -8.7 21.35 -8.25 21.4 -8.0" fill="#e6e6e6" fill-rule="evenodd" stroke="none"/>
    <path d="M25.55 -8.6 Q26.1 -7.65 25.8 -6.65 25.45 -5.55 24.55 -5.05 23.6 -4.5 22.55 -4.8 21.5 -5.1 20.95 -6.05 20.4 -7.05 20.75 -8.1 L21.0 -8.65 21.3 -9.15 22.0 -9.65 22.8 -9.95 23.5 -10.0 23.95 -9.85 Q25.05 -9.55 25.55 -8.6" fill="#393730" fill-rule="evenodd" stroke="none"/>
    <path d="M21.5 -7.2 Q21.9 -6.5 22.7 -6.25 L24.2 -6.45 Q24.9 -6.85 25.1 -7.65 25.3 -8.45 25.05 -9.1 24.75 -9.8 23.95 -10.0 L22.35 -9.85 Q21.5 -9.5 21.3 -8.7 21.1 -7.9 21.5 -7.2" fill="#525458" fill-rule="evenodd" stroke="none"/>
    <path d="M23.5 -7.35 L23.4 -8.0 23.85 -8.55 24.5 -8.65 25.05 -8.25 25.1 -7.55 24.7 -7.05 24.05 -6.95 23.5 -7.35" fill="#8a8a8a" fill-rule="evenodd" stroke="none"/>
  </g>
</svg>
