<?xml version="1.0" encoding="UTF-8" standalone="no"?>
<svg xmlns:xlink="http://www.w3.org/1999/xlink" height="6.4px" width="22.75px" xmlns="http://www.w3.org/2000/svg">
  <g transform="matrix(1.0, 0.0, 0.0, 1.0, -3.5, 15.0)">
    <path d="M5.35 -14.15 L5.4 -14.2 6.65 -14.6 7.1 -14.65 Q7.8 -14.6 8.25 -14.05 L8.35 -13.9 8.45 -13.7 8.6 -13.3 8.75 -13.0 9.0 -12.45 Q9.35 -11.4 8.8 -10.4 8.25 -9.45 7.2 -9.15 6.15 -8.85 5.2 -9.4 4.3 -9.9 3.95 -11.0 3.65 -12.0 4.2 -12.95 4.55 -13.65 5.35 -14.15" fill="#cf72f0" fill-rule="evenodd" stroke="none"/>
    <path d="M5.4 -14.2 L6.65 -14.6 7.1 -14.65 Q7.8 -14.6 8.25 -14.05 L8.35 -13.9 8.45 -13.7 8.6 -13.3 8.75 -13.0 9.0 -12.45 Q9.35 -11.4 8.8 -10.4 8.25 -9.45 7.2 -9.15 6.15 -8.85 5.2 -9.4 4.3 -9.9 3.95 -11.0 3.65 -12.0 4.2 -12.95 4.55 -13.65 5.35 -14.15" fill="none" stroke="#000000" stroke-linecap="round" stroke-linejoin="round" stroke-width="0.75"/>
    <path d="M7.1 -14.65 L6.9 -14.1 6.75 -14.15 Q6.75 -14.4 6.45 -14.15 L6.05 -14.0 6.0 -13.95 5.7 -13.65 5.35 -14.15 5.4 -14.2 6.65 -14.6 7.1 -14.65 M5.85 -13.55 L6.25 -13.1 6.2 -13.0 5.7 -13.25 5.85 -13.55" fill="#a2a2a2" fill-rule="evenodd" stroke="none"/>
    <path d="M5.7 -13.65 L6.0 -13.95 6.05 -14.0 6.45 -14.15 Q6.75 -14.4 6.75 -14.15 L6.9 -14.1 7.1 -14.65 Q7.8 -14.6 8.25 -14.05 L8.35 -13.9 8.45 -13.7 8.5 -13.25 8.45 -13.05 8.4 -12.6 8.35 -12.35 8.0 -12.35 7.5 -12.4 6.8 -12.7 Q6.65 -12.75 6.45 -12.9 L6.2 -13.0 6.25 -13.1 5.85 -13.55 5.7 -13.65" fill="#c8c8c8" fill-rule="evenodd" stroke="none"/>
    <path d="M7.5 -12.4 L8.0 -12.35 7.95 -12.15 7.5 -12.4 M8.35 -12.35 L8.4 -12.6 8.45 -13.05 8.5 -13.25 8.45 -13.7 8.75 -12.45 8.35 -12.35" fill="#e6e6e6" fill-rule="evenodd" stroke="none"/>
    <path d="M6.95 -14.3 L7.75 -14.0 8.45 -13.5 8.75 -13.0 9.0 -12.45 Q9.35 -11.4 8.8 -10.4 8.25 -9.45 7.2 -9.15 6.15 -8.85 5.2 -9.4 4.3 -9.9 3.95 -11.0 3.65 -12.0 4.2 -12.95 4.7 -13.9 5.8 -14.2 L6.25 -14.35 6.95 -14.3" fill="#393730" fill-rule="evenodd" stroke="none"/>
    <path d="M8.25 -11.55 Q7.85 -10.85 7.05 -10.6 6.25 -10.4 5.55 -10.8 4.85 -11.2 4.65 -12.0 4.45 -12.8 4.7 -13.45 5.0 -14.15 5.8 -14.35 L7.4 -14.2 Q8.25 -13.85 8.45 -13.05 8.65 -12.25 8.25 -11.55" fill="#525458" fill-rule="evenodd" stroke="none"/>
    <path d="M6.25 -11.7 L6.35 -12.35 5.9 -12.9 5.25 -13.0 4.7 -12.6 Q4.55 -12.25 4.65 -11.9 4.7 -11.55 5.05 -11.4 L5.7 -11.3 6.25 -11.7" fill="#8a8a8a" fill-rule="evenodd" stroke="none"/>
    <path d="M24.35 -14.1 L24.4 -14.05 25.55 -12.85 Q26.1 -11.9 25.8 -10.9 25.45 -9.8 24.55 -9.3 23.6 -8.75 22.55 -9.05 21.5 -9.35 20.95 -10.3 20.4 -11.3 20.75 -12.35 L21.0 -12.9 21.15 -13.2 21.3 -13.6 21.4 -13.8 21.5 -13.95 Q21.95 -14.5 22.65 -14.55 L23.1 -14.5 24.35 -14.1" fill="#cf72f0" fill-rule="evenodd" stroke="none"/>
    <path d="M24.35 -14.1 L23.1 -14.5 22.65 -14.55 Q21.95 -14.5 21.5 -13.95 L21.4 -13.8 21.3 -13.6 21.15 -13.2 21.0 -12.9 20.75 -12.35 Q20.4 -11.3 20.95 -10.3 21.5 -9.35 22.55 -9.05 23.6 -8.75 24.55 -9.3 25.45 -9.8 25.8 -10.9 26.1 -11.9 25.55 -12.85 L24.4 -14.05" fill="none" stroke="#000000" stroke-linecap="round" stroke-linejoin="round" stroke-width="0.75"/>
    <path d="M22.25 -12.3 L21.8 -12.05 21.75 -12.25 22.25 -12.3 M21.4 -12.25 L21.0 -12.35 21.3 -13.6 21.25 -13.15 21.3 -12.95 21.35 -12.5 21.4 -12.25" fill="#e6e6e6" fill-rule="evenodd" stroke="none"/>
    <path d="M21.3 -13.6 L21.4 -13.8 21.5 -13.95 Q21.95 -14.5 22.65 -14.55 L22.85 -14.0 23.0 -14.05 Q23.0 -14.3 23.3 -14.05 L23.7 -13.9 23.75 -13.85 24.05 -13.55 23.9 -13.45 23.5 -13.0 23.55 -12.9 23.3 -12.8 22.95 -12.6 22.25 -12.3 21.75 -12.25 21.4 -12.25 21.35 -12.5 21.3 -12.95 21.25 -13.15 21.3 -13.6" fill="#c8c8c8" fill-rule="evenodd" stroke="none"/>
    <path d="M22.65 -14.55 L23.1 -14.5 24.35 -14.1 24.4 -14.05 24.05 -13.55 23.75 -13.85 23.7 -13.9 23.3 -14.05 Q23.0 -14.3 23.0 -14.05 L22.85 -14.0 22.65 -14.55 M23.9 -13.45 L24.05 -13.15 23.55 -12.9 23.5 -13.0 23.9 -13.45" fill="#a2a2a2" fill-rule="evenodd" stroke="none"/>
    <path d="M21.3 -13.4 L22.0 -13.9 22.8 -14.2 23.5 -14.25 23.95 -14.1 Q25.05 -13.8 25.55 -12.85 26.1 -11.9 25.8 -10.9 25.45 -9.8 24.55 -9.3 23.6 -8.75 22.55 -9.05 21.5 -9.35 20.95 -10.3 20.4 -11.3 20.75 -12.35 L21.0 -12.9 21.3 -13.4" fill="#393730" fill-rule="evenodd" stroke="none"/>
    <path d="M21.5 -11.45 Q21.9 -10.75 22.7 -10.5 L24.2 -10.7 Q24.9 -11.1 25.1 -11.9 25.3 -12.7 25.05 -13.35 24.75 -14.05 23.95 -14.25 L22.35 -14.1 Q21.5 -13.75 21.3 -12.95 21.1 -12.15 21.5 -11.45" fill="#525458" fill-rule="evenodd" stroke="none"/>
    <path d="M23.5 -11.6 L23.4 -12.25 23.85 -12.8 24.5 -12.9 25.05 -12.5 25.1 -11.8 24.7 -11.3 24.05 -11.2 23.5 -11.6" fill="#8a8a8a" fill-rule="evenodd" stroke="none"/>
  </g>
</svg>
