<?xml version="1.0" encoding="UTF-8" standalone="no"?>
<svg xmlns:xlink="http://www.w3.org/1999/xlink" height="6.4px" width="22.75px" xmlns="http://www.w3.org/2000/svg">
  <g transform="matrix(1.0, 0.0, 0.0, 1.0, -3.5, 10.7)">
    <path d="M5.4 -9.9 L6.65 -10.3 7.1 -10.35 Q7.8 -10.3 8.25 -9.75 L8.35 -9.6 8.45 -9.4 8.6 -9.0 8.75 -8.7 9.0 -8.15 Q9.35 -7.1 8.8 -6.1 8.25 -5.15 7.2 -4.85 6.15 -4.55 5.2 -5.1 4.3 -5.6 3.95 -6.7 3.65 -7.7 4.2 -8.65 4.55 -9.35 5.35 -9.85 L5.4 -9.9" fill="#cf72f0" fill-rule="evenodd" stroke="none"/>
    <path d="M5.4 -9.9 L6.65 -10.3 7.1 -10.35 Q7.8 -10.3 8.25 -9.75 L8.35 -9.6 8.45 -9.4 8.6 -9.0 8.75 -8.7 9.0 -8.15 Q9.35 -7.1 8.8 -6.1 8.25 -5.15 7.2 -4.85 6.15 -4.55 5.2 -5.1 4.3 -5.6 3.95 -6.7 3.65 -7.7 4.2 -8.65 4.55 -9.35 5.35 -9.85" fill="none" stroke="#000000" stroke-linecap="round" stroke-linejoin="round" stroke-width="0.75"/>
    <path d="M7.1 -10.35 Q7.8 -10.3 8.25 -9.75 L8.35 -9.6 8.45 -9.4 8.5 -8.95 8.45 -8.75 8.4 -8.3 8.35 -8.05 8.0 -8.05 7.5 -8.1 6.8 -8.4 Q6.65 -8.45 6.45 -8.6 L6.2 -8.7 6.25 -8.8 5.85 -9.25 5.7 -9.35 6.0 -9.65 6.05 -9.7 6.45 -9.85 Q6.75 -10.1 6.75 -9.85 L6.9 -9.8 7.1 -10.35" fill="#c8c8c8" fill-rule="evenodd" stroke="none"/>
    <path d="M7.1 -10.35 L6.9 -9.8 6.75 -9.85 Q6.75 -10.1 6.45 -9.85 L6.05 -9.7 6.0 -9.65 5.7 -9.35 5.35 -9.85 5.4 -9.9 6.65 -10.3 7.1 -10.35 M5.85 -9.25 L6.25 -8.8 6.2 -8.7 5.7 -8.95 5.85 -9.25" fill="#a2a2a2" fill-rule="evenodd" stroke="none"/>
    <path d="M7.5 -8.1 L8.0 -8.05 7.95 -7.85 7.5 -8.1 M8.35 -8.05 L8.4 -8.3 8.45 -8.75 8.5 -8.95 8.45 -9.4 8.75 -8.15 8.35 -8.05" fill="#e6e6e6" fill-rule="evenodd" stroke="none"/>
    <path d="M7.75 -9.7 L8.45 -9.2 8.75 -8.7 9.0 -8.15 Q9.35 -7.1 8.8 -6.1 8.25 -5.15 7.2 -4.85 6.15 -4.55 5.2 -5.1 4.3 -5.6 3.95 -6.7 3.65 -7.7 4.2 -8.65 4.7 -9.6 5.8 -9.9 L6.25 -10.05 6.95 -10.0 7.75 -9.7" fill="#393730" fill-rule="evenodd" stroke="none"/>
    <path d="M8.25 -7.25 Q7.85 -6.55 7.05 -6.3 6.25 -6.1 5.55 -6.5 4.85 -6.9 4.65 -7.7 4.45 -8.5 4.7 -9.15 5.0 -9.85 5.8 -10.05 L7.4 -9.9 Q8.25 -9.55 8.45 -8.75 8.65 -7.95 8.25 -7.25" fill="#525458" fill-rule="evenodd" stroke="none"/>
    <path d="M6.25 -7.4 L6.35 -8.05 5.9 -8.6 5.25 -8.7 4.7 -8.3 Q4.55 -7.95 4.65 -7.6 4.7 -7.25 5.05 -7.1 L5.7 -7.0 6.25 -7.4" fill="#8a8a8a" fill-rule="evenodd" stroke="none"/>
    <path d="M24.4 -9.75 L25.55 -8.55 Q26.1 -7.6 25.8 -6.6 25.45 -5.5 24.55 -5.0 23.6 -4.45 22.55 -4.75 21.5 -5.05 20.95 -6.0 20.4 -7.0 20.75 -8.05 L21.0 -8.6 21.15 -8.9 21.3 -9.3 21.4 -9.5 21.5 -9.65 Q21.95 -10.2 22.65 -10.25 L23.1 -10.2 24.35 -9.8 24.4 -9.75" fill="#cf72f0" fill-rule="evenodd" stroke="none"/>
    <path d="M24.35 -9.8 L23.1 -10.2 22.65 -10.25 Q21.95 -10.2 21.5 -9.65 L21.4 -9.5 21.3 -9.3 21.15 -8.9 21.0 -8.6 20.75 -8.05 Q20.4 -7.0 20.95 -6.0 21.5 -5.05 22.55 -4.75 23.6 -4.45 24.55 -5.0 25.45 -5.5 25.8 -6.6 26.1 -7.6 25.55 -8.55 L24.4 -9.75" fill="none" stroke="#000000" stroke-linecap="round" stroke-linejoin="round" stroke-width="0.75"/>
    <path d="M22.65 -10.25 L23.1 -10.2 24.35 -9.8 24.4 -9.75 24.05 -9.25 23.75 -9.55 23.7 -9.6 23.3 -9.75 Q23.0 -10.0 23.0 -9.75 L22.85 -9.7 22.65 -10.25 M23.9 -9.15 L24.05 -8.85 23.55 -8.6 23.5 -8.7 23.9 -9.15" fill="#a2a2a2" fill-rule="evenodd" stroke="none"/>
    <path d="M24.05 -9.25 L23.9 -9.15 23.5 -8.7 23.55 -8.6 23.3 -8.5 22.95 -8.3 22.25 -8.0 21.75 -7.95 21.4 -7.95 21.35 -8.2 21.3 -8.65 21.25 -8.85 21.3 -9.3 21.4 -9.5 21.5 -9.65 Q21.95 -10.2 22.65 -10.25 L22.85 -9.7 23.0 -9.75 Q23.0 -10.0 23.3 -9.75 L23.7 -9.6 23.75 -9.55 24.05 -9.25" fill="#c8c8c8" fill-rule="evenodd" stroke="none"/>
    <path d="M22.25 -8.0 L21.8 -7.75 21.75 -7.95 22.25 -8.0 M21.4 -7.95 L21.0 -8.05 21.3 -9.3 21.25 -8.85 21.3 -8.65 21.35 -8.2 21.4 -7.95" fill="#e6e6e6" fill-rule="evenodd" stroke="none"/>
    <path d="M25.55 -8.55 Q26.1 -7.6 25.8 -6.6 25.45 -5.5 24.55 -5.0 23.6 -4.45 22.55 -4.75 21.5 -5.05 20.95 -6.0 20.4 -7.0 20.75 -8.05 L21.0 -8.6 21.3 -9.1 22.0 -9.6 22.8 -9.9 23.5 -9.95 23.95 -9.8 Q25.05 -9.5 25.55 -8.55" fill="#393730" fill-rule="evenodd" stroke="none"/>
    <path d="M21.5 -7.15 Q21.9 -6.45 22.7 -6.2 L24.2 -6.4 Q24.9 -6.8 25.1 -7.6 25.3 -8.4 25.05 -9.05 24.75 -9.75 23.95 -9.95 L22.35 -9.8 Q21.5 -9.45 21.3 -8.65 21.1 -7.85 21.5 -7.15" fill="#525458" fill-rule="evenodd" stroke="none"/>
    <path d="M23.5 -7.3 L23.4 -7.95 23.85 -8.5 24.5 -8.6 25.05 -8.2 25.1 -7.5 24.7 -7.0 24.05 -6.9 23.5 -7.3" fill="#8a8a8a" fill-rule="evenodd" stroke="none"/>
  </g>
</svg>
