<?xml version="1.0" encoding="UTF-8" standalone="no"?>
<svg xmlns:xlink="http://www.w3.org/1999/xlink" height="6.4px" width="22.75px" xmlns="http://www.w3.org/2000/svg">
  <g transform="matrix(1.0, 0.0, 0.0, 1.0, -3.5, -3.95)">
    <path d="M5.35 4.8 L5.4 4.75 Q6.1 4.4 6.65 4.35 L7.1 4.3 Q7.8 4.35 8.25 4.9 L8.35 5.05 8.45 5.25 8.6 5.65 8.75 5.95 9.0 6.5 Q9.35 7.55 8.8 8.55 8.25 9.5 7.2 9.8 L5.2 9.55 Q4.3 9.05 3.95 7.95 3.65 6.95 4.2 6.0 4.55 5.3 5.35 4.8" fill="#cf72f0" fill-rule="evenodd" stroke="none"/>
    <path d="M5.4 4.75 Q6.1 4.4 6.65 4.35 L7.1 4.3 Q7.8 4.35 8.25 4.9 L8.35 5.05 8.45 5.25 8.6 5.65 8.75 5.95 9.0 6.5 Q9.35 7.55 8.8 8.55 8.25 9.5 7.2 9.8 L5.2 9.55 Q4.3 9.05 3.95 7.95 3.65 6.95 4.2 6.0 4.55 5.3 5.35 4.8" fill="none" stroke="#000000" stroke-linecap="round" stroke-linejoin="round" stroke-width="0.75"/>
    <path d="M5.7 5.3 L5.35 4.8 5.4 4.75 Q6.1 4.4 6.65 4.35 L7.1 4.3 6.9 4.85 6.75 4.8 Q6.75 4.55 6.45 4.8 L6.05 4.95 6.0 5.0 5.7 5.3 M6.2 5.95 L5.7 5.7 5.85 5.4 6.25 5.85 6.2 5.95" fill="#a2a2a2" fill-rule="evenodd" stroke="none"/>
    <path d="M5.7 5.3 L6.0 5.0 6.05 4.95 6.45 4.8 Q6.75 4.55 6.75 4.8 L6.9 4.85 7.1 4.3 Q7.8 4.35 8.25 4.9 L8.35 5.05 8.45 5.25 8.5 5.7 8.45 5.9 8.4 6.35 8.35 6.6 8.0 6.6 7.5 6.55 6.8 6.25 6.45 6.05 6.2 5.95 6.25 5.85 5.85 5.4 5.7 5.3" fill="#c8c8c8" fill-rule="evenodd" stroke="none"/>
    <path d="M8.45 5.25 L8.75 6.5 8.35 6.6 8.4 6.35 8.45 5.9 8.5 5.7 8.45 5.25 M8.0 6.6 L7.95 6.8 7.5 6.55 8.0 6.6" fill="#e6e6e6" fill-rule="evenodd" stroke="none"/>
    <path d="M6.25 4.6 L6.95 4.65 7.75 4.95 8.45 5.45 8.75 5.95 9.0 6.5 Q9.35 7.55 8.8 8.55 8.25 9.5 7.2 9.8 L5.2 9.55 Q4.3 9.05 3.95 7.95 3.65 6.95 4.2 6.0 4.7 5.05 5.8 4.75 L6.25 4.6" fill="#393730" fill-rule="evenodd" stroke="none"/>
    <path d="M8.25 7.4 L7.05 8.35 Q6.25 8.55 5.55 8.15 4.85 7.75 4.65 6.95 4.45 6.15 4.7 5.5 5.0 4.8 5.8 4.6 L7.4 4.75 Q8.25 5.1 8.45 5.9 8.65 6.7 8.25 7.4" fill="#525458" fill-rule="evenodd" stroke="none"/>
    <path d="M6.25 7.25 L6.35 6.6 5.9 6.05 5.25 5.95 4.7 6.35 Q4.55 6.7 4.65 7.05 4.7 7.4 5.05 7.55 L5.7 7.65 6.25 7.25" fill="#8a8a8a" fill-rule="evenodd" stroke="none"/>
    <path d="M24.35 4.85 L24.4 4.9 25.55 6.1 Q26.1 7.05 25.8 8.05 25.45 9.15 24.55 9.65 L22.55 9.9 Q21.5 9.6 20.95 8.65 20.4 7.65 20.75 6.6 L21.0 6.05 21.15 5.75 21.3 5.35 21.4 5.15 21.5 5.0 Q21.95 4.45 22.65 4.4 L23.1 4.45 24.35 4.85" fill="#cf72f0" fill-rule="evenodd" stroke="none"/>
    <path d="M24.35 4.85 L23.1 4.45 22.65 4.4 Q21.95 4.45 21.5 5.0 L21.4 5.15 21.3 5.35 21.15 5.75 21.0 6.05 20.75 6.6 Q20.4 7.65 20.95 8.65 21.5 9.6 22.55 9.9 L24.55 9.65 Q25.45 9.15 25.8 8.05 26.1 7.05 25.55 6.1 L24.4 4.9" fill="none" stroke="#000000" stroke-linecap="round" stroke-linejoin="round" stroke-width="0.75"/>
    <path d="M21.4 6.7 L21.35 6.45 21.3 6.0 21.25 5.8 21.3 5.35 21.4 5.15 21.5 5.0 Q21.95 4.45 22.65 4.4 L22.85 4.95 23.0 4.9 Q23.0 4.65 23.3 4.9 L23.7 5.05 23.75 5.1 24.05 5.4 23.9 5.5 23.5 5.95 23.55 6.05 23.3 6.15 22.95 6.35 22.25 6.65 21.75 6.7 21.4 6.7" fill="#c8c8c8" fill-rule="evenodd" stroke="none"/>
    <path d="M21.3 5.35 L21.25 5.8 21.3 6.0 21.35 6.45 21.4 6.7 21.0 6.6 21.3 5.35 M21.75 6.7 L22.25 6.65 21.8 6.9 21.75 6.7" fill="#e6e6e6" fill-rule="evenodd" stroke="none"/>
    <path d="M23.55 6.05 L23.5 5.95 23.9 5.5 24.05 5.8 23.55 6.05 M24.05 5.4 L23.75 5.1 23.7 5.05 23.3 4.9 Q23.0 4.65 23.0 4.9 L22.85 4.95 22.65 4.4 23.1 4.45 24.35 4.85 24.4 4.9 24.05 5.4" fill="#a2a2a2" fill-rule="evenodd" stroke="none"/>
    <path d="M22.8 4.75 L23.5 4.7 23.95 4.85 Q25.05 5.15 25.55 6.1 26.1 7.05 25.8 8.05 25.45 9.15 24.55 9.65 L22.55 9.9 Q21.5 9.6 20.95 8.65 20.4 7.65 20.75 6.6 L21.0 6.05 21.3 5.55 22.0 5.05 22.8 4.75" fill="#393730" fill-rule="evenodd" stroke="none"/>
    <path d="M21.5 7.5 L22.7 8.45 24.2 8.25 Q24.9 7.85 25.1 7.05 25.3 6.25 25.05 5.6 24.75 4.9 23.95 4.7 L22.35 4.85 Q21.5 5.2 21.3 6.0 21.1 6.8 21.5 7.5" fill="#525458" fill-rule="evenodd" stroke="none"/>
    <path d="M23.5 7.35 L23.4 6.7 23.85 6.15 24.5 6.05 25.05 6.45 25.1 7.15 24.7 7.65 24.05 7.75 23.5 7.35" fill="#8a8a8a" fill-rule="evenodd" stroke="none"/>
  </g>
</svg>
