<?xml version="1.0" encoding="UTF-8" standalone="no"?>
<svg xmlns:xlink="http://www.w3.org/1999/xlink" height="6.4px" width="22.75px" xmlns="http://www.w3.org/2000/svg">
  <g transform="matrix(1.0, 0.0, 0.0, 1.0, -3.5, 12.55)">
    <path d="M5.4 -11.75 L6.65 -12.15 7.1 -12.2 Q7.8 -12.15 8.25 -11.6 L8.35 -11.45 8.45 -11.25 8.6 -10.85 8.75 -10.55 9.0 -10.0 Q9.35 -8.95 8.8 -7.95 8.25 -7.0 7.2 -6.7 6.15 -6.4 5.2 -6.95 4.3 -7.45 3.95 -8.55 3.65 -9.55 4.2 -10.5 4.55 -11.2 5.35 -11.7 L5.4 -11.75" fill="#cf72f0" fill-rule="evenodd" stroke="none"/>
    <path d="M5.4 -11.75 L6.65 -12.15 7.1 -12.2 Q7.8 -12.15 8.25 -11.6 L8.35 -11.45 8.45 -11.25 8.6 -10.85 8.75 -10.55 9.0 -10.0 Q9.35 -8.95 8.8 -7.95 8.25 -7.0 7.2 -6.7 6.15 -6.4 5.2 -6.95 4.3 -7.45 3.95 -8.55 3.65 -9.55 4.2 -10.5 4.55 -11.2 5.35 -11.7" fill="none" stroke="#000000" stroke-linecap="round" stroke-linejoin="round" stroke-width="0.75"/>
    <path d="M7.1 -12.2 Q7.8 -12.15 8.25 -11.6 L8.35 -11.45 8.45 -11.25 8.5 -10.8 8.45 -10.6 8.4 -10.15 8.35 -9.9 8.0 -9.9 7.5 -9.95 6.8 -10.25 Q6.65 -10.3 6.45 -10.45 L6.2 -10.55 6.25 -10.65 5.85 -11.1 5.7 -11.2 6.0 -11.5 6.05 -11.55 6.45 -11.7 Q6.75 -11.95 6.75 -11.7 L6.9 -11.65 7.1 -12.2" fill="#c8c8c8" fill-rule="evenodd" stroke="none"/>
    <path d="M7.5 -9.95 L8.0 -9.9 7.95 -9.7 7.5 -9.95 M8.35 -9.9 L8.4 -10.15 8.45 -10.6 8.5 -10.8 8.45 -11.25 8.75 -10.0 8.35 -9.9" fill="#e6e6e6" fill-rule="evenodd" stroke="none"/>
    <path d="M7.1 -12.2 L6.9 -11.65 6.75 -11.7 Q6.75 -11.95 6.45 -11.7 L6.05 -11.55 6.0 -11.5 5.7 -11.2 5.35 -11.7 5.4 -11.75 6.65 -12.15 7.1 -12.2 M5.85 -11.1 L6.25 -10.65 6.2 -10.55 5.7 -10.8 5.85 -11.1" fill="#a2a2a2" fill-rule="evenodd" stroke="none"/>
    <path d="M9.0 -10.0 Q9.35 -8.95 8.8 -7.95 8.25 -7.0 7.2 -6.7 6.15 -6.4 5.2 -6.95 4.3 -7.45 3.95 -8.55 3.65 -9.55 4.2 -10.5 4.7 -11.45 5.8 -11.75 L6.25 -11.9 6.95 -11.85 7.75 -11.55 8.45 -11.05 8.75 -10.55 9.0 -10.0" fill="#393730" fill-rule="evenodd" stroke="none"/>
    <path d="M8.25 -9.1 Q7.85 -8.4 7.05 -8.15 6.25 -7.95 5.55 -8.35 4.85 -8.75 4.65 -9.55 4.45 -10.35 4.7 -11.0 5.0 -11.7 5.8 -11.9 L7.4 -11.75 Q8.25 -11.4 8.45 -10.6 8.65 -9.8 8.25 -9.1" fill="#525458" fill-rule="evenodd" stroke="none"/>
    <path d="M6.25 -9.25 L6.35 -9.9 5.9 -10.45 5.25 -10.55 4.7 -10.15 Q4.55 -9.8 4.65 -9.45 4.7 -9.1 5.05 -8.95 L5.7 -8.85 6.25 -9.25" fill="#8a8a8a" fill-rule="evenodd" stroke="none"/>
    <path d="M24.4 -11.6 L25.55 -10.4 Q26.1 -9.45 25.8 -8.45 25.45 -7.35 24.55 -6.85 23.6 -6.3 22.55 -6.6 21.5 -6.9 20.95 -7.85 20.4 -8.85 20.75 -9.9 L21.0 -10.45 21.15 -10.75 21.3 -11.15 21.4 -11.35 21.5 -11.5 Q21.95 -12.05 22.65 -12.1 L23.1 -12.05 24.35 -11.65 24.4 -11.6" fill="#cf72f0" fill-rule="evenodd" stroke="none"/>
    <path d="M24.35 -11.65 L23.1 -12.05 22.65 -12.1 Q21.95 -12.05 21.5 -11.5 L21.4 -11.35 21.3 -11.15 21.15 -10.75 21.0 -10.45 20.75 -9.9 Q20.4 -8.85 20.95 -7.85 21.5 -6.9 22.55 -6.6 23.6 -6.3 24.55 -6.85 25.45 -7.35 25.8 -8.45 26.1 -9.45 25.55 -10.4 L24.4 -11.6" fill="none" stroke="#000000" stroke-linecap="round" stroke-linejoin="round" stroke-width="0.75"/>
    <path d="M22.65 -12.1 L23.1 -12.05 24.35 -11.65 24.4 -11.6 24.05 -11.1 23.75 -11.4 23.7 -11.45 23.3 -11.6 Q23.0 -11.85 23.0 -11.6 L22.85 -11.55 22.65 -12.1 M23.9 -11.0 L24.05 -10.7 23.55 -10.45 23.5 -10.55 23.9 -11.0" fill="#a2a2a2" fill-rule="evenodd" stroke="none"/>
    <path d="M24.05 -11.1 L23.9 -11.0 23.5 -10.55 23.55 -10.45 23.3 -10.35 22.95 -10.15 22.25 -9.85 21.75 -9.8 21.4 -9.8 21.35 -10.05 21.3 -10.5 21.25 -10.7 21.3 -11.15 21.4 -11.35 21.5 -11.5 Q21.95 -12.05 22.65 -12.1 L22.85 -11.55 23.0 -11.6 Q23.0 -11.85 23.3 -11.6 L23.7 -11.45 23.75 -11.4 24.05 -11.1" fill="#c8c8c8" fill-rule="evenodd" stroke="none"/>
    <path d="M22.25 -9.85 L21.8 -9.6 21.75 -9.8 22.25 -9.85 M21.4 -9.8 L21.0 -9.9 21.3 -11.15 21.25 -10.7 21.3 -10.5 21.35 -10.05 21.4 -9.8" fill="#e6e6e6" fill-rule="evenodd" stroke="none"/>
    <path d="M25.55 -10.4 Q26.1 -9.45 25.8 -8.45 25.45 -7.35 24.55 -6.85 23.6 -6.3 22.55 -6.6 21.5 -6.9 20.95 -7.85 20.4 -8.85 20.75 -9.9 L21.0 -10.45 21.3 -10.95 22.0 -11.45 22.8 -11.75 23.5 -11.8 23.95 -11.65 Q25.05 -11.35 25.55 -10.4" fill="#393730" fill-rule="evenodd" stroke="none"/>
    <path d="M21.5 -9.0 Q21.9 -8.3 22.7 -8.05 L24.2 -8.25 Q24.9 -8.65 25.1 -9.45 25.3 -10.25 25.05 -10.9 24.75 -11.6 23.95 -11.8 L22.35 -11.65 Q21.5 -11.3 21.3 -10.5 21.1 -9.7 21.5 -9.0" fill="#525458" fill-rule="evenodd" stroke="none"/>
    <path d="M23.5 -9.15 L23.4 -9.8 23.85 -10.35 24.5 -10.45 25.05 -10.05 25.1 -9.35 24.7 -8.85 24.05 -8.75 23.5 -9.15" fill="#8a8a8a" fill-rule="evenodd" stroke="none"/>
  </g>
</svg>
