<?xml version="1.0" encoding="UTF-8" standalone="no"?>
<svg xmlns:xlink="http://www.w3.org/1999/xlink" height="6.4px" width="22.75px" xmlns="http://www.w3.org/2000/svg">
  <g transform="matrix(1.0, 0.0, 0.0, 1.0, -3.5, 36.65)">
    <path d="M5.4 -35.85 L6.65 -36.25 7.1 -36.3 Q7.8 -36.25 8.25 -35.7 L8.35 -35.55 8.45 -35.35 8.6 -34.95 8.75 -34.65 9.0 -34.1 Q9.35 -33.05 8.8 -32.05 8.25 -31.1 7.2 -30.8 6.15 -30.5 5.2 -31.05 4.3 -31.55 3.95 -32.65 3.65 -33.65 4.2 -34.6 4.55 -35.3 5.35 -35.8 L5.4 -35.85" fill="#cf72f0" fill-rule="evenodd" stroke="none"/>
    <path d="M5.4 -35.85 L6.65 -36.25 7.1 -36.3 Q7.8 -36.25 8.25 -35.7 L8.35 -35.55 8.45 -35.35 8.6 -34.95 8.75 -34.65 9.0 -34.1 Q9.35 -33.05 8.8 -32.05 8.25 -31.1 7.2 -30.8 6.15 -30.5 5.2 -31.05 4.3 -31.55 3.95 -32.65 3.65 -33.65 4.2 -34.6 4.55 -35.3 5.35 -35.8" fill="none" stroke="#000000" stroke-linecap="round" stroke-linejoin="round" stroke-width="0.75"/>
    <path d="M8.35 -34.0 L8.4 -34.25 8.45 -34.7 8.5 -34.9 8.45 -35.35 8.75 -34.1 8.35 -34.0 M7.5 -34.05 L8.0 -34.0 7.95 -33.8 7.5 -34.05" fill="#e6e6e6" fill-rule="evenodd" stroke="none"/>
    <path d="M8.45 -35.35 L8.5 -34.9 8.45 -34.7 8.4 -34.25 8.35 -34.0 8.0 -34.0 7.5 -34.05 6.8 -34.35 Q6.65 -34.4 6.45 -34.55 L6.2 -34.65 6.25 -34.75 5.85 -35.2 5.7 -35.3 6.0 -35.6 6.05 -35.65 6.45 -35.8 Q6.75 -36.05 6.75 -35.8 L6.9 -35.75 7.1 -36.3 Q7.8 -36.25 8.25 -35.7 L8.35 -35.55 8.45 -35.35" fill="#c8c8c8" fill-rule="evenodd" stroke="none"/>
    <path d="M7.1 -36.3 L6.9 -35.75 6.75 -35.8 Q6.75 -36.05 6.45 -35.8 L6.05 -35.65 6.0 -35.6 5.7 -35.3 5.35 -35.8 5.4 -35.85 6.65 -36.25 7.1 -36.3 M5.85 -35.2 L6.25 -34.75 6.2 -34.65 5.7 -34.9 5.85 -35.2" fill="#a2a2a2" fill-rule="evenodd" stroke="none"/>
    <path d="M6.95 -35.95 L7.75 -35.65 8.45 -35.15 8.75 -34.65 9.0 -34.1 Q9.35 -33.05 8.8 -32.05 8.25 -31.1 7.2 -30.8 6.15 -30.5 5.2 -31.05 4.3 -31.55 3.95 -32.65 3.65 -33.65 4.2 -34.6 4.7 -35.55 5.8 -35.85 L6.25 -36.0 6.95 -35.95" fill="#393730" fill-rule="evenodd" stroke="none"/>
    <path d="M8.25 -33.2 Q7.85 -32.5 7.05 -32.25 6.25 -32.05 5.55 -32.45 4.85 -32.85 4.65 -33.65 4.45 -34.45 4.7 -35.1 5.0 -35.8 5.8 -36.0 L7.4 -35.85 Q8.25 -35.5 8.45 -34.7 8.65 -33.9 8.25 -33.2" fill="#525458" fill-rule="evenodd" stroke="none"/>
    <path d="M6.25 -33.35 L6.35 -34.0 5.9 -34.55 5.25 -34.65 4.7 -34.25 Q4.55 -33.9 4.65 -33.55 4.7 -33.2 5.05 -33.05 L5.7 -32.95 6.25 -33.35" fill="#8a8a8a" fill-rule="evenodd" stroke="none"/>
    <path d="M24.4 -35.7 L25.55 -34.5 Q26.1 -33.55 25.8 -32.55 25.45 -31.45 24.55 -30.95 23.6 -30.4 22.55 -30.7 21.5 -31.0 20.95 -31.95 20.4 -32.95 20.75 -34.0 L21.0 -34.55 21.15 -34.85 21.3 -35.25 21.4 -35.45 21.5 -35.6 Q21.95 -36.15 22.65 -36.2 L23.1 -36.15 24.35 -35.75 24.4 -35.7" fill="#cf72f0" fill-rule="evenodd" stroke="none"/>
    <path d="M24.35 -35.75 L23.1 -36.15 22.65 -36.2 Q21.95 -36.15 21.5 -35.6 L21.4 -35.45 21.3 -35.25 21.15 -34.85 21.0 -34.55 20.75 -34.0 Q20.4 -32.95 20.95 -31.95 21.5 -31.0 22.55 -30.7 23.6 -30.4 24.55 -30.95 25.45 -31.45 25.8 -32.55 26.1 -33.55 25.55 -34.5 L24.4 -35.7" fill="none" stroke="#000000" stroke-linecap="round" stroke-linejoin="round" stroke-width="0.75"/>
    <path d="M22.65 -36.2 L23.1 -36.15 24.35 -35.75 24.4 -35.7 24.05 -35.2 23.75 -35.5 23.7 -35.55 23.3 -35.7 Q23.0 -35.95 23.0 -35.7 L22.85 -35.65 22.65 -36.2 M23.9 -35.1 L24.05 -34.8 23.55 -34.55 23.5 -34.65 23.9 -35.1" fill="#a2a2a2" fill-rule="evenodd" stroke="none"/>
    <path d="M24.05 -35.2 L23.9 -35.1 23.5 -34.65 23.55 -34.55 23.3 -34.45 22.95 -34.25 22.25 -33.95 21.75 -33.9 21.4 -33.9 21.35 -34.15 21.3 -34.6 21.25 -34.8 21.3 -35.25 21.4 -35.45 21.5 -35.6 Q21.95 -36.15 22.65 -36.2 L22.85 -35.65 23.0 -35.7 Q23.0 -35.95 23.3 -35.7 L23.7 -35.55 23.75 -35.5 24.05 -35.2" fill="#c8c8c8" fill-rule="evenodd" stroke="none"/>
    <path d="M22.25 -33.95 L21.8 -33.7 21.75 -33.9 22.25 -33.95 M21.4 -33.9 L21.0 -34.0 21.3 -35.25 21.25 -34.8 21.3 -34.6 21.35 -34.15 21.4 -33.9" fill="#e6e6e6" fill-rule="evenodd" stroke="none"/>
    <path d="M25.55 -34.5 Q26.1 -33.55 25.8 -32.55 25.45 -31.45 24.55 -30.95 23.6 -30.4 22.55 -30.7 21.5 -31.0 20.95 -31.95 20.4 -32.95 20.75 -34.0 L21.0 -34.55 21.3 -35.05 22.0 -35.55 22.8 -35.85 23.5 -35.9 23.95 -35.75 Q25.05 -35.45 25.55 -34.5" fill="#393730" fill-rule="evenodd" stroke="none"/>
    <path d="M21.5 -33.1 Q21.9 -32.4 22.7 -32.15 L24.2 -32.35 Q24.9 -32.75 25.1 -33.55 25.3 -34.35 25.05 -35.0 24.75 -35.7 23.95 -35.9 L22.35 -35.75 Q21.5 -35.4 21.3 -34.6 21.1 -33.8 21.5 -33.1" fill="#525458" fill-rule="evenodd" stroke="none"/>
    <path d="M23.5 -33.25 L23.4 -33.9 23.85 -34.45 24.5 -34.55 25.05 -34.15 25.1 -33.45 24.7 -32.95 24.05 -32.85 23.5 -33.25" fill="#8a8a8a" fill-rule="evenodd" stroke="none"/>
  </g>
</svg>
