<?xml version="1.0" encoding="UTF-8" standalone="no"?>
<svg xmlns:xlink="http://www.w3.org/1999/xlink" height="6.4px" width="22.75px" xmlns="http://www.w3.org/2000/svg">
  <g transform="matrix(1.0, 0.0, 0.0, 1.0, -3.5, 19.45)">
    <path d="M5.35 -18.6 L5.4 -18.65 6.65 -19.05 7.1 -19.1 Q7.8 -19.05 8.25 -18.5 L8.35 -18.35 8.45 -18.15 8.6 -17.75 8.75 -17.45 9.0 -16.9 Q9.35 -15.85 8.8 -14.85 8.25 -13.9 7.2 -13.6 6.15 -13.3 5.2 -13.85 4.3 -14.35 3.95 -15.45 3.65 -16.45 4.2 -17.4 4.55 -18.1 5.35 -18.6" fill="#cf72f0" fill-rule="evenodd" stroke="none"/>
    <path d="M5.4 -18.65 L6.65 -19.05 7.1 -19.1 Q7.8 -19.05 8.25 -18.5 L8.35 -18.35 8.45 -18.15 8.6 -17.75 8.75 -17.45 9.0 -16.9 Q9.35 -15.85 8.8 -14.85 8.25 -13.9 7.2 -13.6 6.15 -13.3 5.2 -13.85 4.3 -14.35 3.95 -15.45 3.65 -16.45 4.2 -17.4 4.55 -18.1 5.35 -18.6" fill="none" stroke="#000000" stroke-linecap="round" stroke-linejoin="round" stroke-width="0.75"/>
    <path d="M5.7 -18.1 L5.35 -18.6 5.4 -18.65 6.65 -19.05 7.1 -19.1 6.9 -18.55 6.75 -18.6 Q6.75 -18.85 6.45 -18.6 L6.05 -18.45 6.0 -18.4 5.7 -18.1 M6.2 -17.45 L5.7 -17.7 5.85 -18.0 6.25 -17.55 6.2 -17.45" fill="#a2a2a2" fill-rule="evenodd" stroke="none"/>
    <path d="M5.7 -18.1 L6.0 -18.4 6.05 -18.45 6.45 -18.6 Q6.75 -18.85 6.75 -18.6 L6.9 -18.55 7.1 -19.1 Q7.8 -19.05 8.25 -18.5 L8.35 -18.35 8.45 -18.15 8.5 -17.7 8.45 -17.5 8.4 -17.05 8.35 -16.8 8.0 -16.8 7.5 -16.85 6.8 -17.15 Q6.65 -17.2 6.45 -17.35 L6.2 -17.45 6.25 -17.55 5.85 -18.0 5.7 -18.1" fill="#c8c8c8" fill-rule="evenodd" stroke="none"/>
    <path d="M8.45 -18.15 L8.75 -16.9 8.35 -16.8 8.4 -17.05 8.45 -17.5 8.5 -17.7 8.45 -18.15 M8.0 -16.8 L7.95 -16.6 7.5 -16.85 8.0 -16.8" fill="#e6e6e6" fill-rule="evenodd" stroke="none"/>
    <path d="M6.25 -18.8 L6.95 -18.75 7.75 -18.45 8.45 -17.95 8.75 -17.45 9.0 -16.9 Q9.35 -15.85 8.8 -14.85 8.25 -13.9 7.2 -13.6 6.15 -13.3 5.2 -13.85 4.3 -14.35 3.95 -15.45 3.65 -16.45 4.2 -17.4 4.7 -18.35 5.8 -18.65 L6.25 -18.8" fill="#393730" fill-rule="evenodd" stroke="none"/>
    <path d="M8.25 -16.0 Q7.85 -15.3 7.05 -15.05 6.25 -14.85 5.55 -15.25 4.85 -15.65 4.65 -16.45 4.45 -17.25 4.7 -17.9 5.0 -18.6 5.8 -18.8 L7.4 -18.65 Q8.25 -18.3 8.45 -17.5 8.65 -16.7 8.25 -16.0" fill="#525458" fill-rule="evenodd" stroke="none"/>
    <path d="M6.25 -16.15 L6.35 -16.8 5.9 -17.35 5.25 -17.45 4.7 -17.05 Q4.55 -16.7 4.65 -16.35 4.7 -16.0 5.05 -15.85 L5.7 -15.75 6.25 -16.15" fill="#8a8a8a" fill-rule="evenodd" stroke="none"/>
    <path d="M24.4 -18.5 L25.55 -17.3 Q26.1 -16.35 25.8 -15.35 25.45 -14.25 24.55 -13.75 23.6 -13.2 22.55 -13.5 21.5 -13.8 20.95 -14.75 20.4 -15.75 20.75 -16.8 L21.0 -17.35 21.15 -17.65 21.3 -18.05 21.4 -18.25 21.5 -18.4 Q21.95 -18.95 22.65 -19.0 L23.1 -18.95 24.35 -18.55 24.4 -18.5" fill="#cf72f0" fill-rule="evenodd" stroke="none"/>
    <path d="M24.35 -18.55 L23.1 -18.95 22.65 -19.0 Q21.95 -18.95 21.5 -18.4 L21.4 -18.25 21.3 -18.05 21.15 -17.65 21.0 -17.35 20.75 -16.8 Q20.4 -15.75 20.95 -14.75 21.5 -13.8 22.55 -13.5 23.6 -13.2 24.55 -13.75 25.45 -14.25 25.8 -15.35 26.1 -16.35 25.55 -17.3 L24.4 -18.5" fill="none" stroke="#000000" stroke-linecap="round" stroke-linejoin="round" stroke-width="0.75"/>
    <path d="M22.65 -19.0 L23.1 -18.95 24.35 -18.55 24.4 -18.5 24.05 -18.0 23.75 -18.3 23.7 -18.35 23.3 -18.5 Q23.0 -18.75 23.0 -18.5 L22.85 -18.45 22.65 -19.0 M23.9 -17.9 L24.05 -17.6 23.55 -17.35 23.5 -17.45 23.9 -17.9" fill="#a2a2a2" fill-rule="evenodd" stroke="none"/>
    <path d="M22.65 -19.0 L22.85 -18.45 23.0 -18.5 Q23.0 -18.75 23.3 -18.5 L23.7 -18.35 23.75 -18.3 24.05 -18.0 23.9 -17.9 23.5 -17.45 23.55 -17.35 23.3 -17.25 22.95 -17.05 22.25 -16.75 21.75 -16.7 21.4 -16.7 21.35 -16.95 21.3 -17.4 21.25 -17.6 21.3 -18.05 21.4 -18.25 21.5 -18.4 Q21.95 -18.95 22.65 -19.0" fill="#c8c8c8" fill-rule="evenodd" stroke="none"/>
    <path d="M22.25 -16.75 L21.8 -16.5 21.75 -16.7 22.25 -16.75 M21.4 -16.7 L21.0 -16.8 21.3 -18.05 21.25 -17.6 21.3 -17.4 21.35 -16.95 21.4 -16.7" fill="#e6e6e6" fill-rule="evenodd" stroke="none"/>
    <path d="M22.8 -18.65 L23.5 -18.7 23.95 -18.55 Q25.05 -18.25 25.55 -17.3 26.1 -16.35 25.8 -15.35 25.45 -14.25 24.55 -13.75 23.6 -13.2 22.55 -13.5 21.5 -13.8 20.95 -14.75 20.4 -15.75 20.75 -16.8 L21.0 -17.35 21.3 -17.85 22.0 -18.35 22.8 -18.65" fill="#393730" fill-rule="evenodd" stroke="none"/>
    <path d="M21.5 -15.9 Q21.9 -15.2 22.7 -14.95 L24.2 -15.15 Q24.9 -15.55 25.1 -16.35 25.3 -17.15 25.05 -17.8 24.75 -18.5 23.95 -18.7 L22.35 -18.55 Q21.5 -18.2 21.3 -17.4 21.1 -16.6 21.5 -15.9" fill="#525458" fill-rule="evenodd" stroke="none"/>
    <path d="M23.5 -16.05 L23.4 -16.7 23.85 -17.25 24.5 -17.35 25.05 -16.95 25.1 -16.25 24.7 -15.75 24.05 -15.65 23.5 -16.05" fill="#8a8a8a" fill-rule="evenodd" stroke="none"/>
  </g>
</svg>
