<?xml version="1.0" encoding="UTF-8" standalone="no"?>
<svg xmlns:xlink="http://www.w3.org/1999/xlink" height="6.4px" width="22.75px" xmlns="http://www.w3.org/2000/svg">
  <g transform="matrix(1.0, 0.0, 0.0, 1.0, -3.5, 11.15)">
    <path d="M5.4 -10.35 L6.65 -10.75 7.1 -10.8 Q7.8 -10.75 8.25 -10.2 L8.35 -10.05 8.45 -9.85 8.6 -9.45 8.75 -9.15 9.0 -8.6 Q9.35 -7.55 8.8 -6.55 8.25 -5.6 7.2 -5.3 6.15 -5.0 5.2 -5.55 4.3 -6.05 3.95 -7.15 3.65 -8.15 4.2 -9.1 4.55 -9.8 5.35 -10.3 L5.4 -10.35" fill="#cf72f0" fill-rule="evenodd" stroke="none"/>
    <path d="M5.4 -10.35 L6.65 -10.75 7.1 -10.8 Q7.8 -10.75 8.25 -10.2 L8.35 -10.05 8.45 -9.85 8.6 -9.45 8.75 -9.15 9.0 -8.6 Q9.35 -7.55 8.8 -6.55 8.25 -5.6 7.2 -5.3 6.15 -5.0 5.2 -5.55 4.3 -6.05 3.95 -7.15 3.65 -8.15 4.2 -9.1 4.55 -9.8 5.35 -10.3" fill="none" stroke="#000000" stroke-linecap="round" stroke-linejoin="round" stroke-width="0.75"/>
    <path d="M8.45 -9.85 L8.5 -9.4 8.45 -9.2 8.4 -8.75 8.35 -8.5 8.0 -8.5 7.5 -8.55 6.8 -8.85 Q6.65 -8.9 6.45 -9.05 L6.2 -9.15 6.25 -9.25 5.85 -9.7 5.7 -9.8 6.0 -10.1 6.05 -10.15 6.45 -10.3 Q6.75 -10.55 6.75 -10.3 L6.9 -10.25 7.1 -10.8 Q7.8 -10.75 8.25 -10.2 L8.35 -10.05 8.45 -9.85" fill="#c8c8c8" fill-rule="evenodd" stroke="none"/>
    <path d="M8.35 -8.5 L8.4 -8.75 8.45 -9.2 8.5 -9.4 8.45 -9.85 8.75 -8.6 8.35 -8.5 M7.5 -8.55 L8.0 -8.5 7.95 -8.3 7.5 -8.55" fill="#e6e6e6" fill-rule="evenodd" stroke="none"/>
    <path d="M7.1 -10.8 L6.9 -10.25 6.75 -10.3 Q6.75 -10.55 6.45 -10.3 L6.05 -10.15 6.0 -10.1 5.7 -9.8 5.35 -10.3 5.4 -10.35 6.65 -10.75 7.1 -10.8 M5.85 -9.7 L6.25 -9.25 6.2 -9.15 5.7 -9.4 5.85 -9.7" fill="#a2a2a2" fill-rule="evenodd" stroke="none"/>
    <path d="M7.75 -10.15 L8.45 -9.65 8.75 -9.15 9.0 -8.6 Q9.35 -7.55 8.8 -6.55 8.25 -5.6 7.2 -5.3 6.15 -5.0 5.2 -5.55 4.3 -6.05 3.95 -7.15 3.65 -8.15 4.2 -9.1 4.7 -10.05 5.8 -10.35 L6.25 -10.5 6.95 -10.45 7.75 -10.15" fill="#393730" fill-rule="evenodd" stroke="none"/>
    <path d="M8.25 -7.7 Q7.85 -7.0 7.05 -6.75 6.25 -6.55 5.55 -6.95 4.85 -7.35 4.65 -8.15 4.45 -8.95 4.7 -9.6 5.0 -10.3 5.8 -10.5 L7.4 -10.35 Q8.25 -10.0 8.45 -9.2 8.65 -8.4 8.25 -7.7" fill="#525458" fill-rule="evenodd" stroke="none"/>
    <path d="M6.25 -7.85 L6.35 -8.5 5.9 -9.05 5.25 -9.15 4.7 -8.75 Q4.55 -8.4 4.65 -8.05 4.7 -7.7 5.05 -7.55 L5.7 -7.45 6.25 -7.85" fill="#8a8a8a" fill-rule="evenodd" stroke="none"/>
    <path d="M24.4 -10.2 L25.55 -9.0 Q26.1 -8.05 25.8 -7.05 25.45 -5.95 24.55 -5.45 23.6 -4.9 22.55 -5.2 21.5 -5.5 20.95 -6.45 20.4 -7.45 20.75 -8.5 L21.0 -9.05 21.15 -9.35 21.3 -9.75 21.4 -9.95 21.5 -10.1 Q21.95 -10.65 22.65 -10.7 L23.1 -10.65 24.35 -10.25 24.4 -10.2" fill="#cf72f0" fill-rule="evenodd" stroke="none"/>
    <path d="M24.35 -10.25 L23.1 -10.65 22.65 -10.7 Q21.95 -10.65 21.5 -10.1 L21.4 -9.95 21.3 -9.75 21.15 -9.35 21.0 -9.05 20.75 -8.5 Q20.4 -7.45 20.95 -6.45 21.5 -5.5 22.55 -5.2 23.6 -4.9 24.55 -5.45 25.45 -5.95 25.8 -7.05 26.1 -8.05 25.55 -9.0 L24.4 -10.2" fill="none" stroke="#000000" stroke-linecap="round" stroke-linejoin="round" stroke-width="0.75"/>
    <path d="M24.05 -9.7 L23.75 -10.0 23.7 -10.05 23.3 -10.2 Q23.0 -10.45 23.0 -10.2 L22.85 -10.15 22.65 -10.7 23.1 -10.65 24.35 -10.25 24.4 -10.2 24.05 -9.7 M23.55 -9.05 L23.5 -9.15 23.9 -9.6 24.05 -9.3 23.55 -9.05" fill="#a2a2a2" fill-rule="evenodd" stroke="none"/>
    <path d="M22.65 -10.7 L22.85 -10.15 23.0 -10.2 Q23.0 -10.45 23.3 -10.2 L23.7 -10.05 23.75 -10.0 24.05 -9.7 23.9 -9.6 23.5 -9.15 23.55 -9.05 23.3 -8.95 22.95 -8.75 22.25 -8.45 21.75 -8.4 21.4 -8.4 21.35 -8.65 21.3 -9.1 21.25 -9.3 21.3 -9.75 21.4 -9.95 21.5 -10.1 Q21.95 -10.65 22.65 -10.7" fill="#c8c8c8" fill-rule="evenodd" stroke="none"/>
    <path d="M21.3 -9.75 L21.25 -9.3 21.3 -9.1 21.35 -8.65 21.4 -8.4 21.0 -8.5 21.3 -9.75 M21.75 -8.4 L22.25 -8.45 21.8 -8.2 21.75 -8.4" fill="#e6e6e6" fill-rule="evenodd" stroke="none"/>
    <path d="M25.55 -9.0 Q26.1 -8.05 25.8 -7.05 25.45 -5.95 24.55 -5.45 23.6 -4.9 22.55 -5.2 21.5 -5.5 20.95 -6.45 20.4 -7.45 20.75 -8.5 L21.0 -9.05 21.3 -9.55 22.0 -10.05 22.8 -10.35 23.5 -10.4 23.95 -10.25 Q25.05 -9.95 25.55 -9.0" fill="#393730" fill-rule="evenodd" stroke="none"/>
    <path d="M21.5 -7.6 Q21.9 -6.9 22.7 -6.65 L24.2 -6.85 Q24.9 -7.25 25.1 -8.05 25.3 -8.85 25.05 -9.5 24.75 -10.2 23.95 -10.4 L22.35 -10.25 Q21.5 -9.9 21.3 -9.1 21.1 -8.3 21.5 -7.6" fill="#525458" fill-rule="evenodd" stroke="none"/>
    <path d="M23.5 -7.75 L23.4 -8.4 23.85 -8.95 24.5 -9.05 25.05 -8.65 25.1 -7.95 24.7 -7.45 24.05 -7.35 23.5 -7.75" fill="#8a8a8a" fill-rule="evenodd" stroke="none"/>
  </g>
</svg>
