<?xml version="1.0" encoding="UTF-8" standalone="no"?>
<svg xmlns:xlink="http://www.w3.org/1999/xlink" height="35.1px" width="35.1px" xmlns="http://www.w3.org/2000/svg">
  <g transform="matrix(1.0, 0.0, 0.0, 1.0, 4.05, 3.0)">
    <path d="M1.1 27.0 Q-4.05 21.85 -4.05 14.55 -4.05 7.3 1.1 2.15 6.2 -3.0 13.5 -3.0 20.8 -3.0 25.9 2.15 31.05 7.3 31.05 14.55 31.05 21.85 25.9 27.0 20.8 32.1 13.5 32.1 6.2 32.1 1.1 27.0" fill="#7c1c87" fill-rule="evenodd" stroke="none"/>
    <path d="M4.2 23.85 Q0.3 20.0 0.3 14.55 0.3 9.1 4.2 5.25 8.05 1.35 13.5 1.35 18.95 1.35 22.8 5.25 26.65 9.1 26.65 14.55 26.65 20.0 22.8 23.85 18.95 27.7 13.5 27.7 8.05 27.7 4.2 23.85" fill="#310441" fill-rule="evenodd" stroke="none"/>
    <path d="M26.5 11.75 Q24.5 13.8 21.65 13.8 18.8 13.8 16.75 11.75 14.75 9.75 14.75 6.9 14.75 4.05 16.75 2.0 18.8 0.0 21.65 0.0 24.5 0.0 26.5 2.0 28.55 4.05 28.55 6.9 28.55 9.75 26.5 11.75" fill="#ffffff" fill-opacity="0.8" fill-rule="evenodd" stroke="none"/>
    <path d="M7.15 27.4 Q5.75 27.4 4.75 26.4 3.75 25.4 3.75 24.0 3.75 22.55 4.75 21.55 5.75 20.55 7.15 20.55 8.6 20.55 9.6 21.55 10.6 22.55 10.6 24.0 10.6 25.4 9.6 26.4 8.6 27.4 7.15 27.4" fill="#ffffff" fill-opacity="0.8" fill-rule="evenodd" stroke="none"/>
  </g>
</svg>
