<?xml version="1.0" encoding="UTF-8" standalone="no"?>
<svg xmlns:xlink="http://www.w3.org/1999/xlink" height="51.6px" width="161.0px" xmlns="http://www.w3.org/2000/svg">
  <g transform="matrix(1.0, 0.0, 0.0, 1.0, 1.5, 4.0)">
    <path d="M16.5 0.0 L16.55 0.25 Q22.35 4.3 30.35 4.45 L30.85 27.55 Q30.55 29.85 29.7 32.0 L27.45 36.0 20.9 41.95 19.65 42.75 17.0 43.6 16.9 43.6 14.15 42.8 Q3.95 36.95 2.6 27.95 L2.5 4.85 2.6 4.85 2.6 4.8 5.3 4.6 12.5 2.5 14.4 1.5 16.2 0.25 16.2 0.0 16.4 0.1 16.5 0.0" fill="#fef081" fill-rule="evenodd" stroke="none"/>
    <path d="M16.5 0.0 L16.4 0.1 16.2 0.0 16.2 0.25 14.4 1.5 12.5 2.5 5.3 4.6 2.6 4.8 2.6 4.85 2.5 4.85 2.6 27.95 Q3.95 36.95 14.15 42.8 L16.9 43.6 17.0 43.6 19.65 42.75 20.9 41.95 27.45 36.0 29.7 32.0 Q30.55 29.85 30.85 27.55 L30.35 4.45 Q22.35 4.3 16.55 0.25 L16.5 0.0 Z" fill="none" stroke="#ffffff" stroke-linecap="round" stroke-linejoin="round" stroke-width="8.0"/>
    <path d="M152.45 38.65 Q146.6 44.5 138.35 44.5 L30.7 44.5 Q22.45 44.5 16.6 38.65 10.75 32.8 10.75 24.55 10.75 16.3 16.55 10.45 L16.6 10.45 Q22.45 4.6 30.7 4.6 L138.35 4.6 Q146.6 4.6 152.45 10.45 158.3 16.3 158.3 24.55 158.3 32.8 152.45 38.65" fill="#ffffff" fill-rule="evenodd" stroke="none"/>
    <path d="M150.6 12.25 Q155.75 17.4 155.75 24.55 155.75 31.7 150.65 36.8 L150.6 36.85 Q145.5 41.95 138.35 41.95 L30.7 41.95 Q23.5 41.95 18.4 36.8 13.3 31.7 13.3 24.55 13.3 17.4 18.4 12.25 23.5 7.15 30.7 7.15 L138.35 7.15 Q145.5 7.15 150.6 12.25" fill="#663311" fill-rule="evenodd" stroke="none"/>
    <path d="M138.3 8.45 Q144.95 8.45 149.7 13.15 154.45 17.9 154.45 24.55 154.45 31.2 149.7 35.9 144.95 40.65 138.3 40.65 L30.65 40.65 Q24.0 40.65 19.25 35.9 14.55 31.2 14.55 24.55 14.55 17.9 19.25 13.15 24.0 8.45 30.65 8.45 L138.3 8.45" fill="url(#gradient0)" fill-rule="evenodd" stroke="none"/>
    <path d="M138.3 8.45 Q144.95 8.45 149.65 13.15 154.4 17.9 154.4 24.55 L154.4 24.95 14.55 24.95 14.55 24.55 Q14.55 17.9 19.25 13.15 24.0 8.45 30.65 8.45 L138.3 8.45" fill="url(#gradient1)" fill-rule="evenodd" stroke="none"/>
    <path d="M140.05 9.05 Q146.05 9.05 150.3 13.6 154.5 18.15 154.5 24.6 154.5 31.05 150.3 35.6 146.05 40.1 140.05 40.1 L28.7 40.1 Q22.7 40.1 18.45 35.6 14.25 31.05 14.25 24.6 14.25 18.15 18.45 13.6 22.7 9.05 28.7 9.05 L140.05 9.05" fill="url(#gradient2)" fill-rule="evenodd" stroke="none"/>
    <path d="M140.05 9.05 L28.7 9.05 Q22.7 9.05 18.45 13.6 14.25 18.15 14.25 24.6 14.25 31.05 18.45 35.6 22.7 40.1 28.7 40.1 L140.05 40.1 Q146.05 40.1 150.3 35.6 154.5 31.05 154.5 24.6 154.5 18.15 150.3 13.6 146.05 9.05 140.05 9.05 Z" fill="none" stroke="#ffffff" stroke-linecap="round" stroke-linejoin="round" stroke-width="10.0"/>
    <path d="M140.05 9.05 Q146.05 9.05 150.3 13.6 154.5 18.15 154.5 24.6 154.5 31.05 150.3 35.6 146.05 40.1 140.05 40.1 L28.7 40.1 Q22.7 40.1 18.45 35.6 14.25 31.05 14.25 24.6 14.25 18.15 18.45 13.6 22.7 9.05 28.7 9.05 L140.05 9.05" fill="url(#gradient3)" fill-rule="evenodd" stroke="none"/>
    <path d="M140.05 9.05 L28.7 9.05 Q22.7 9.05 18.45 13.6 14.25 18.15 14.25 24.6 14.25 31.05 18.45 35.6 22.7 40.1 28.7 40.1 L140.05 40.1 Q146.05 40.1 150.3 35.6 154.5 31.05 154.5 24.6 154.5 18.15 150.3 13.6 146.05 9.05 140.05 9.05 Z" fill="none" stroke="#b14d00" stroke-linecap="round" stroke-linejoin="round" stroke-width="4.0"/>
    <path d="M140.05 9.05 Q146.05 9.05 150.3 13.6 154.5 18.15 154.5 24.6 154.5 31.05 150.3 35.6 146.05 40.1 140.05 40.1 L28.7 40.1 Q22.7 40.1 18.45 35.6 14.25 31.05 14.25 24.6 14.25 18.15 18.45 13.6 22.7 9.05 28.7 9.05 L140.05 9.05" fill="url(#gradient4)" fill-rule="evenodd" stroke="none"/>
    <path d="M154.75 24.55 Q154.75 31.0 150.5 35.55 146.3 40.1 140.25 40.1 L28.95 40.1 Q22.9 40.1 18.65 35.55 14.45 31.0 14.45 24.55 14.45 18.15 18.65 13.6 22.9 9.05 28.95 9.05 L140.25 9.05 Q146.3 9.05 150.5 13.6 154.75 18.15 154.75 24.55" fill="url(#gradient5)" fill-rule="evenodd" stroke="none"/>
    <path d="M148.2 14.7 L148.2 14.75 Q148.2 16.6 147.0 17.9 145.75 19.25 144.05 19.25 L28.25 19.25 Q26.55 19.25 25.3 17.9 24.1 16.6 24.1 14.75 L24.1 14.7 Q24.1 12.85 25.3 11.55 26.55 10.25 28.25 10.25 L144.05 10.25 Q145.75 10.25 147.0 11.55 148.2 12.85 148.2 14.7" fill="url(#gradient6)" fill-rule="evenodd" stroke="none"/>
    <path d="M16.5 0.0 L16.5 0.25 Q22.3 4.35 30.25 4.5 L30.75 27.6 Q29.7 36.55 19.65 42.7 L16.9 43.6 14.15 42.75 Q3.95 36.9 2.6 27.95 L2.5 4.85 Q10.5 4.5 16.2 0.25 L16.2 0.0 16.35 0.15 16.5 0.0 M16.9 41.3 L16.85 41.3 16.85 41.35 16.9 41.3" fill="#000000" fill-rule="evenodd" stroke="none"/>
    <path d="M16.5 0.0 L16.35 0.15 16.2 0.0 16.2 0.25 Q10.5 4.5 2.5 4.85 L2.6 27.95 Q3.95 36.9 14.15 42.75 L16.9 43.6 19.65 42.7 Q29.7 36.55 30.75 27.6 L30.25 4.5 Q22.3 4.35 16.5 0.25 L16.5 0.0 Z" fill="none" stroke="#5e3700" stroke-linecap="round" stroke-linejoin="round" stroke-width="3.0"/>
    <path d="M24.95 6.9 Q25.3 8.6 26.75 9.15 L27.05 25.65 Q27.0 32.45 21.35 37.05 L16.9 39.95 12.35 37.2 Q6.8 33.05 6.35 25.9 L6.25 9.4 Q7.75 8.85 7.95 7.15 13.25 6.4 16.3 4.95 L16.3 4.75 Q19.35 6.35 24.95 6.9" fill="#ffe16f" fill-rule="evenodd" stroke="none"/>
    <path d="M24.95 6.9 Q19.35 6.35 16.3 4.75 L16.3 4.95 Q13.25 6.4 7.95 7.15 7.75 8.85 6.25 9.4 L6.35 25.9 Q6.8 33.05 12.35 37.2 L16.9 39.95 21.35 37.05 Q27.0 32.45 27.05 25.65 L26.75 9.15 Q25.3 8.6 24.95 6.9 M26.0 6.05 L25.8 6.05 26.15 6.1 26.0 6.05 M28.85 7.8 L29.3 27.3 Q28.2 35.95 18.1 41.75 L16.95 42.2 15.7 41.8 Q5.55 36.25 4.25 27.65 L4.15 8.15 4.2 7.5 Q6.2 7.2 6.15 5.6 L6.85 5.5 Q12.1 4.8 16.25 2.35 L16.25 2.1 Q20.55 4.65 26.05 5.25 L26.75 5.35 Q26.75 6.95 28.75 7.15 L28.85 7.8 M6.9 6.3 L6.8 6.35 7.1 6.3 6.9 6.3 M16.9 41.35 L16.95 41.35 17.2 41.3 16.9 41.35 16.95 41.3 16.9 41.3 16.9 41.35 M17.85 41.05 L18.05 40.95 17.55 41.15 17.85 41.05" fill="#ce9717" fill-rule="evenodd" stroke="none"/>
    <path d="M26.0 6.05 L26.15 6.1 25.8 6.05 26.0 6.05 M6.9 6.3 L7.1 6.3 6.8 6.35 6.9 6.3 M16.9 41.35 L17.2 41.3 16.95 41.35 16.9 41.35 M17.85 41.05 L17.55 41.15 18.05 40.95 17.85 41.05" fill="#a58d8d" fill-rule="evenodd" stroke="none"/>
    <path d="M28.85 7.8 L28.75 7.15 Q26.75 6.95 26.75 5.35 L26.05 5.25 Q20.55 4.65 16.25 2.1 L16.25 2.35 Q12.1 4.8 6.85 5.5 L6.15 5.6 Q6.2 7.2 4.2 7.5 L4.15 8.15 4.25 27.65 Q5.55 36.25 15.7 41.8 L16.95 42.2 18.1 41.75 Q28.2 35.95 29.3 27.3 L28.85 7.8 M16.25 0.25 L16.2 0.0 16.45 0.15 16.5 0.0 16.55 0.25 Q22.35 4.3 30.35 4.45 L30.8 27.55 Q29.75 36.55 19.7 42.7 L17.0 43.6 14.2 42.75 Q3.95 36.9 2.7 27.9 L2.6 4.8 Q10.55 4.45 16.25 0.25" fill="#fff8bb" fill-rule="evenodd" stroke="none"/>
    <path d="M23.2 6.7 L25.05 6.95 Q25.35 8.6 26.8 9.1 L27.15 25.6 Q27.05 32.4 21.45 37.1 L16.95 39.95 14.7 38.6 19.1 35.75 Q24.75 31.1 24.85 24.3 L24.5 7.8 Q23.65 7.45 23.2 6.7" fill="#ecbd02" fill-rule="evenodd" stroke="none"/>
    <path d="M26.8 9.3 Q21.75 8.7 18.95 7.2 L19.0 7.4 Q15.95 8.85 10.65 9.65 10.45 11.3 8.95 11.9 L9.05 28.4 Q9.35 33.65 12.5 37.25 L12.4 37.25 Q6.85 33.15 6.4 25.95 L6.3 9.45 Q7.8 8.85 8.0 7.2 13.3 6.45 16.35 4.95 L16.35 4.8 Q19.35 6.35 25.0 7.0 25.35 8.65 26.8 9.15 L26.8 9.3" fill="#ffffff" fill-rule="evenodd" stroke="none"/>
    <path d="M29.05 14.45 L29.15 19.5 4.1 19.8 4.0 14.75 29.05 14.45" fill="#ce9717" fill-rule="evenodd" stroke="none"/>
    <path d="M28.55 15.25 L28.6 18.55 4.75 18.85 4.7 15.55 28.55 15.25" fill="#ff9c09" fill-rule="evenodd" stroke="none"/>
    <path d="M19.05 5.05 L19.5 39.1 17.05 42.05 14.45 39.15 14.0 5.1 16.55 2.2 19.05 5.05" fill="#ce9717" fill-rule="evenodd" stroke="none"/>
    <path d="M18.15 5.9 L18.6 38.35 17.05 40.85 15.3 38.4 14.85 5.95 16.6 3.6 18.15 5.9" fill="#ff9c09" fill-rule="evenodd" stroke="none"/>
    <path d="M16.8 28.0 Q16.6 20.05 10.4 17.2 16.1 15.65 16.65 9.55 17.7 16.1 22.85 16.65 16.85 19.85 16.8 28.0" fill="#ffffff" fill-rule="evenodd" stroke="none"/>
    <path d="M16.7 22.55 Q16.6 18.6 13.55 17.25 16.35 16.45 16.65 13.45 17.15 16.7 19.7 16.95 16.7 18.55 16.7 22.55" fill="#ffd944" fill-rule="evenodd" stroke="none"/>
  </g>
  <defs>
    <linearGradient gradientTransform="matrix(1.0E-4, 0.0197, -0.0197, 1.0E-4, 84.45, 24.55)" gradientUnits="userSpaceOnUse" id="gradient0" spreadMethod="pad" x1="-819.2" x2="819.2">
      <stop offset="0.0" stop-color="#fd3e64"/>
      <stop offset="0.7137254901960784" stop-color="#ffbb55"/>
      <stop offset="0.9333333333333333" stop-color="#fed9a3"/>
    </linearGradient>
    <linearGradient gradientTransform="matrix(1.0E-4, 0.0151, -0.0197, 1.0E-4, 83.45, 16.0)" gradientUnits="userSpaceOnUse" id="gradient1" spreadMethod="pad" x1="-819.2" x2="819.2">
      <stop offset="0.0" stop-color="#ffffff"/>
      <stop offset="1.0" stop-color="#ffffff" stop-opacity="0.0"/>
    </linearGradient>
    <linearGradient gradientTransform="matrix(2.0E-4, -0.0184, 0.0177, 2.0E-4, 84.45, 24.55)" gradientUnits="userSpaceOnUse" id="gradient2" spreadMethod="pad" x1="-819.2" x2="819.2">
      <stop offset="0.0" stop-color="#ffc85f"/>
      <stop offset="1.0" stop-color="#ff9900"/>
    </linearGradient>
    <linearGradient gradientTransform="matrix(2.0E-4, -0.0184, 0.0177, 2.0E-4, 84.45, 24.55)" gradientUnits="userSpaceOnUse" id="gradient3" spreadMethod="pad" x1="-819.2" x2="819.2">
      <stop offset="0.0" stop-color="#ffc85f"/>
      <stop offset="1.0" stop-color="#ff9900"/>
    </linearGradient>
    <linearGradient gradientTransform="matrix(0.0, 0.0194, -0.0177, 0.0, 84.15, 25.2)" gradientUnits="userSpaceOnUse" id="gradient4" spreadMethod="pad" x1="-819.2" x2="819.2">
      <stop offset="0.0" stop-color="#ffa110"/>
      <stop offset="1.0" stop-color="#ffd995"/>
    </linearGradient>
    <linearGradient gradientTransform="matrix(-2.0E-4, 0.0217, -0.019, -2.0E-4, 84.65, 24.6)" gradientUnits="userSpaceOnUse" id="gradient5" spreadMethod="pad" x1="-819.2" x2="819.2">
      <stop offset="0.00392156862745098" stop-color="#ec4727"/>
      <stop offset="1.0" stop-color="#f7a72d"/>
    </linearGradient>
    <linearGradient gradientTransform="matrix(0.0, 0.0062, -0.008, 0.0, 74.85, 13.25)" gradientUnits="userSpaceOnUse" id="gradient6" spreadMethod="pad" x1="-819.2" x2="819.2">
      <stop offset="0.0" stop-color="#ffffff"/>
      <stop offset="1.0" stop-color="#ffffff" stop-opacity="0.0"/>
    </linearGradient>
  </defs>
</svg>
