<?xml version="1.0" encoding="UTF-8" standalone="no"?>
<svg xmlns:xlink="http://www.w3.org/1999/xlink" height="50.95px" width="162.2px" xmlns="http://www.w3.org/2000/svg">
  <g transform="matrix(1.0, 0.0, 0.0, 1.0, 3.95, 3.7)">
    <path d="M152.4 10.45 Q158.25 16.3 158.25 24.55 158.25 32.8 152.4 38.65 146.55 44.5 138.35 44.5 L30.7 44.5 Q22.45 44.5 16.6 38.65 10.75 32.8 10.75 24.55 10.75 16.3 16.55 10.45 L16.6 10.45 Q22.45 4.6 30.7 4.6 L138.35 4.6 Q146.55 4.6 152.4 10.45" fill="#ffffff" fill-rule="evenodd" stroke="none"/>
    <path d="M150.6 12.25 Q155.75 17.4 155.75 24.55 155.75 31.7 150.65 36.8 L150.6 36.85 Q145.5 41.95 138.35 41.95 L30.7 41.95 Q23.5 41.95 18.4 36.8 13.3 31.7 13.3 24.55 13.3 17.4 18.4 12.25 23.5 7.15 30.7 7.15 L138.35 7.15 Q145.5 7.15 150.6 12.25" fill="#663311" fill-rule="evenodd" stroke="none"/>
    <path d="M138.35 8.45 Q145.0 8.45 149.7 13.15 154.45 17.9 154.45 24.55 154.45 31.2 149.7 35.9 145.0 40.65 138.35 40.65 L30.65 40.65 Q24.0 40.65 19.25 35.9 14.55 31.2 14.55 24.55 14.55 17.9 19.25 13.15 24.0 8.45 30.65 8.45 L138.35 8.45" fill="url(#gradient0)" fill-rule="evenodd" stroke="none"/>
    <path d="M138.3 8.45 Q144.95 8.45 149.65 13.15 154.4 17.9 154.4 24.55 L154.4 24.95 14.55 24.95 14.55 24.55 Q14.55 17.9 19.25 13.15 24.0 8.45 30.65 8.45 L138.3 8.45" fill="url(#gradient1)" fill-rule="evenodd" stroke="none"/>
    <path d="M13.05 0.3 L13.15 0.55 Q19.5 3.6 27.45 2.45 L31.65 25.2 Q31.75 27.5 31.25 29.8 L29.7 34.05 24.2 41.0 23.1 42.0 20.6 43.25 20.5 43.25 17.65 42.95 Q6.65 38.8 3.9 30.15 L0.05 7.35 0.15 7.35 0.15 7.3 2.75 6.65 9.55 3.45 11.2 2.15 12.8 0.6 12.75 0.35 13.0 0.45 13.05 0.3" fill="#fef081" fill-rule="evenodd" stroke="none"/>
    <path d="M13.05 0.3 L13.0 0.45 12.75 0.35 12.8 0.6 11.2 2.15 9.55 3.45 2.75 6.65 0.15 7.3 0.15 7.35 0.05 7.35 3.9 30.15 Q6.65 38.8 17.65 42.95 L20.5 43.25 20.6 43.25 23.1 42.0 24.2 41.0 29.7 34.05 31.25 29.8 Q31.75 27.5 31.65 25.2 L27.45 2.45 Q19.5 3.6 13.15 0.55 L13.05 0.3 Z" fill="none" stroke="#ffffff" stroke-linecap="round" stroke-linejoin="round" stroke-width="8.0"/>
    <path d="M13.0 0.3 L13.05 0.55 Q19.4 3.65 27.3 2.55 L31.55 25.25 Q31.95 34.25 23.0 41.9 21.75 42.6 20.45 43.25 L17.6 42.9 Q6.55 38.75 3.85 30.15 L0.0 7.35 Q7.8 5.75 12.75 0.6 L12.7 0.35 12.85 0.5 13.0 0.3 M20.0 41.05 L20.05 41.0 20.0 41.0 20.0 41.05" fill="#000000" fill-rule="evenodd" stroke="none"/>
    <path d="M13.0 0.3 L12.85 0.5 12.7 0.35 12.75 0.6 Q7.8 5.75 0.0 7.35 L3.85 30.15 Q6.55 38.75 17.6 42.9 L20.45 43.25 Q21.75 42.6 23.0 41.9 31.95 34.25 31.55 25.25 L27.3 2.55 Q19.4 3.65 13.05 0.55 L13.0 0.3 Z" fill="none" stroke="#5e3700" stroke-linecap="round" stroke-linejoin="round" stroke-width="3.0"/>
    <path d="M26.45 6.0 L26.3 5.45 Q24.3 5.5 24.0 3.9 L23.35 3.95 Q17.8 4.25 13.15 2.4 L13.2 2.65 Q9.5 5.8 4.4 7.3 L3.75 7.5 Q4.1 9.1 2.15 9.7 L2.2 10.3 5.4 29.6 Q8.1 37.85 19.05 41.7 L20.3 41.8 21.4 41.25 Q30.4 33.9 30.05 25.25 L26.45 6.0 M13.0 0.4 L13.1 0.3 13.15 0.55 Q19.5 3.6 27.4 2.45 L31.6 25.15 Q32.0 34.2 23.1 41.9 L20.55 43.2 17.65 42.85 Q6.65 38.7 3.95 30.05 L0.05 7.3 Q7.85 5.65 12.85 0.6 L12.8 0.35 13.0 0.4" fill="#fff8bb" fill-rule="evenodd" stroke="none"/>
    <path d="M26.45 6.0 L30.05 25.25 Q30.4 33.9 21.4 41.25 L20.3 41.8 19.05 41.7 Q8.1 37.85 5.4 29.6 L2.2 10.3 2.15 9.7 Q4.1 9.1 3.75 7.5 L4.4 7.3 Q9.5 5.8 13.2 2.65 L13.15 2.4 Q17.8 4.25 23.35 3.95 L24.0 3.9 Q24.3 5.5 26.3 5.45 L26.45 6.0 M22.55 5.8 Q16.85 6.05 13.65 5.05 L13.65 5.2 Q10.9 7.1 5.8 8.75 5.85 10.45 4.45 11.25 L7.25 27.5 Q8.85 34.5 15.0 37.65 L19.85 39.6 23.85 36.1 Q28.65 30.6 27.6 23.9 L24.6 7.7 Q23.15 7.4 22.55 5.8 M23.45 4.75 L23.25 4.8 23.55 4.8 23.45 4.75 M4.65 8.1 L4.5 8.15 4.8 8.05 4.65 8.1 M20.1 40.95 L20.1 41.0 20.15 40.95 20.1 40.95 M21.2 40.45 L20.75 40.75 21.0 40.6 21.2 40.45" fill="#ce9717" fill-rule="evenodd" stroke="none"/>
    <path d="M22.55 5.8 Q23.15 7.4 24.6 7.7 L27.6 23.9 Q28.65 30.6 23.85 36.1 L19.85 39.6 15.0 37.65 Q8.85 34.5 7.25 27.5 L4.45 11.25 Q5.85 10.45 5.8 8.75 10.9 7.1 13.65 5.2 L13.65 5.05 Q16.85 6.05 22.55 5.8" fill="#ffe16f" fill-rule="evenodd" stroke="none"/>
    <path d="M23.45 4.75 L23.55 4.8 23.25 4.8 23.45 4.75 M4.65 8.1 L4.8 8.05 4.5 8.15 4.65 8.1 M21.2 40.45 L21.0 40.6 20.75 40.75 21.2 40.45" fill="#a58d8d" fill-rule="evenodd" stroke="none"/>
    <path d="M20.7 5.9 L22.6 5.8 Q23.2 7.4 24.7 7.7 L27.65 23.95 Q28.7 30.65 23.9 36.15 L19.95 39.7 17.5 38.75 21.4 35.2 Q26.15 29.7 25.2 23.0 L22.2 6.75 Q21.3 6.55 20.7 5.9" fill="#ecbd02" fill-rule="evenodd" stroke="none"/>
    <path d="M24.7 7.85 Q19.65 8.05 16.65 7.1 L16.7 7.3 Q13.95 9.2 8.85 10.8 8.9 12.45 7.5 13.3 L10.25 29.55 Q11.45 34.65 15.1 37.7 L15.05 37.75 Q8.9 34.55 7.3 27.55 L4.5 11.3 Q5.9 10.5 5.8 8.8 10.95 7.2 13.7 5.3 L13.7 5.1 Q16.9 6.15 22.55 5.8 23.15 7.4 24.65 7.7 L24.7 7.85" fill="#ffffff" fill-rule="evenodd" stroke="none"/>
    <path d="M27.75 12.5 L28.6 17.5 3.95 21.85 3.1 16.85 27.75 12.5" fill="#ce9717" fill-rule="evenodd" stroke="none"/>
    <path d="M27.4 13.45 L28.0 16.7 4.5 20.85 3.9 17.6 27.4 13.45" fill="#ff9c09" fill-rule="evenodd" stroke="none"/>
    <path d="M16.35 4.9 L22.3 38.4 20.35 41.75 17.3 39.3 11.35 5.8 13.45 2.55 16.35 4.9" fill="#ce9717" fill-rule="evenodd" stroke="none"/>
    <path d="M15.6 5.9 L21.25 37.85 20.1 40.55 17.95 38.4 12.3 6.45 13.65 3.9 15.6 5.9" fill="#ff9c09" fill-rule="evenodd" stroke="none"/>
    <path d="M17.85 27.9 Q16.35 20.05 9.8 18.25 15.2 15.85 14.75 9.75 16.85 15.95 22.0 15.65 16.55 19.85 17.85 27.9" fill="#ffffff" fill-rule="evenodd" stroke="none"/>
    <path d="M16.85 22.5 Q16.15 18.65 12.9 17.75 15.55 16.55 15.35 13.55 16.35 16.65 18.9 16.5 16.25 18.5 16.85 22.5" fill="#ffd944" fill-rule="evenodd" stroke="none"/>
  </g>
  <defs>
    <linearGradient gradientTransform="matrix(1.0E-4, 0.0197, -0.0197, 1.0E-4, 84.5, 24.55)" gradientUnits="userSpaceOnUse" id="gradient0" spreadMethod="pad" x1="-819.2" x2="819.2">
      <stop offset="0.0" stop-color="#ff3c9d"/>
      <stop offset="0.7137254901960784" stop-color="#ff8855"/>
      <stop offset="0.9333333333333333" stop-color="#fdb5a4"/>
    </linearGradient>
    <linearGradient gradientTransform="matrix(1.0E-4, 0.0151, -0.0197, 1.0E-4, 83.45, 16.0)" gradientUnits="userSpaceOnUse" id="gradient1" spreadMethod="pad" x1="-819.2" x2="819.2">
      <stop offset="0.0" stop-color="#ffffff"/>
      <stop offset="1.0" stop-color="#ffffff" stop-opacity="0.0"/>
    </linearGradient>
  </defs>
</svg>
