<?xml version="1.0" encoding="UTF-8" standalone="no"?>
<svg xmlns:xlink="http://www.w3.org/1999/xlink" height="6.6px" width="24.25px" xmlns="http://www.w3.org/2000/svg">
  <g transform="matrix(1.0, 0.0, 0.0, 1.0, -3.15, 11.05)">
    <path d="M25.55 -9.9 L25.5 -9.85 25.65 -9.75 26.7 -8.7 Q27.25 -7.75 26.95 -6.75 26.6 -5.65 25.7 -5.15 24.75 -4.6 23.7 -4.9 22.65 -5.2 22.1 -6.15 21.55 -7.15 21.9 -8.2 L22.15 -8.75 22.3 -9.05 22.45 -9.45 22.55 -9.65 22.65 -9.8 Q23.1 -10.35 23.8 -10.4 L24.25 -10.35 25.5 -9.95 25.55 -9.9" fill="#cf72f0" fill-rule="evenodd" stroke="none"/>
    <path d="M25.55 -9.9 L25.5 -9.95 24.25 -10.35 23.8 -10.4 Q23.1 -10.35 22.65 -9.8 L22.55 -9.65 22.45 -9.45 22.3 -9.05 22.15 -8.75 21.9 -8.2 Q21.55 -7.15 22.1 -6.15 22.65 -5.2 23.7 -4.9 24.75 -4.6 25.7 -5.15 26.6 -5.65 26.95 -6.75 27.25 -7.75 26.7 -8.7 L25.65 -9.75 25.5 -9.85 25.55 -9.9 Z" fill="none" stroke="#4c0e62" stroke-linecap="round" stroke-linejoin="round" stroke-width="0.75"/>
    <path d="M23.8 -10.4 L24.25 -10.35 25.5 -9.95 25.55 -9.9 25.2 -9.4 24.9 -9.7 24.85 -9.75 24.45 -9.9 Q24.15 -10.15 24.15 -9.9 L24.0 -9.85 23.8 -10.4 M25.05 -9.3 L25.2 -9.0 24.7 -8.75 24.65 -8.85 25.05 -9.3" fill="#a2a2a2" fill-rule="evenodd" stroke="none"/>
    <path d="M25.2 -9.4 L25.05 -9.3 24.65 -8.85 24.7 -8.75 24.45 -8.65 24.1 -8.45 23.4 -8.15 22.9 -8.1 22.55 -8.1 22.5 -8.35 22.45 -8.8 22.4 -9.0 22.45 -9.45 22.55 -9.65 22.65 -9.8 Q23.1 -10.35 23.8 -10.4 L24.0 -9.85 24.15 -9.9 Q24.15 -10.15 24.45 -9.9 L24.85 -9.75 24.9 -9.7 25.2 -9.4" fill="#c8c8c8" fill-rule="evenodd" stroke="none"/>
    <path d="M23.4 -8.15 L22.95 -7.9 22.9 -8.1 23.4 -8.15 M22.55 -8.1 L22.15 -8.2 22.45 -9.45 22.4 -9.0 22.45 -8.8 22.5 -8.35 22.55 -8.1" fill="#e6e6e6" fill-rule="evenodd" stroke="none"/>
    <path d="M26.7 -8.7 Q27.25 -7.75 26.95 -6.75 26.6 -5.65 25.7 -5.15 24.75 -4.6 23.7 -4.9 22.65 -5.2 22.1 -6.15 21.55 -7.15 21.9 -8.2 L22.15 -8.75 22.45 -9.25 23.15 -9.75 23.95 -10.05 24.65 -10.1 25.1 -9.95 Q26.2 -9.65 26.7 -8.7" fill="#b149d7" fill-rule="evenodd" stroke="none"/>
    <path d="M22.65 -7.3 Q22.25 -8.0 22.45 -8.8 22.65 -9.6 23.35 -10.0 L24.85 -10.15 Q25.65 -9.95 26.05 -9.25 26.45 -8.55 26.25 -7.75 26.05 -6.95 25.35 -6.55 L23.85 -6.35 Q23.05 -6.6 22.65 -7.3" fill="#cf72f0" fill-rule="evenodd" stroke="none"/>
    <path d="M24.65 -7.45 L24.55 -8.1 25.0 -8.65 25.65 -8.75 Q26.0 -8.65 26.2 -8.35 L26.25 -7.65 25.85 -7.15 25.2 -7.05 Q24.85 -7.15 24.65 -7.45" fill="#ffffff" fill-opacity="0.49803922" fill-rule="evenodd" stroke="none"/>
    <path d="M5.05 -10.25 L6.3 -10.65 6.75 -10.7 Q7.45 -10.65 7.9 -10.1 L8.0 -9.95 8.1 -9.75 8.25 -9.35 8.4 -9.05 8.65 -8.5 Q9.0 -7.45 8.45 -6.45 7.9 -5.5 6.85 -5.2 5.8 -4.9 4.85 -5.45 3.95 -5.95 3.6 -7.05 3.3 -8.05 3.85 -9.0 L5.0 -10.2 5.05 -10.25" fill="#cf72f0" fill-rule="evenodd" stroke="none"/>
    <path d="M5.05 -10.25 L6.3 -10.65 6.75 -10.7 Q7.45 -10.65 7.9 -10.1 L8.0 -9.95 8.1 -9.75 8.25 -9.35 8.4 -9.05 8.65 -8.5 Q9.0 -7.45 8.45 -6.45 7.9 -5.5 6.85 -5.2 5.8 -4.9 4.85 -5.45 3.95 -5.95 3.6 -7.05 3.3 -8.05 3.85 -9.0 L5.0 -10.2" fill="none" stroke="#4c0e62" stroke-linecap="round" stroke-linejoin="round" stroke-width="0.75"/>
    <path d="M8.1 -9.75 L8.15 -9.3 8.1 -9.1 8.05 -8.65 8.0 -8.4 7.65 -8.4 7.15 -8.45 6.45 -8.75 6.1 -8.95 5.85 -9.05 5.9 -9.15 5.5 -9.6 5.35 -9.7 5.65 -10.0 5.7 -10.05 6.1 -10.2 Q6.4 -10.45 6.4 -10.2 L6.55 -10.15 6.75 -10.7 Q7.45 -10.65 7.9 -10.1 L8.0 -9.95 8.1 -9.75" fill="#c8c8c8" fill-rule="evenodd" stroke="none"/>
    <path d="M8.0 -8.4 L8.05 -8.65 8.1 -9.1 8.15 -9.3 8.1 -9.75 8.4 -8.5 8.0 -8.4 M7.15 -8.45 L7.65 -8.4 7.6 -8.2 7.15 -8.45" fill="#e6e6e6" fill-rule="evenodd" stroke="none"/>
    <path d="M6.75 -10.7 L6.55 -10.15 6.4 -10.2 Q6.4 -10.45 6.1 -10.2 L5.7 -10.05 5.65 -10.0 5.35 -9.7 5.0 -10.2 5.05 -10.25 6.3 -10.65 6.75 -10.7 M5.5 -9.6 L5.9 -9.15 5.85 -9.05 5.35 -9.3 5.5 -9.6" fill="#a2a2a2" fill-rule="evenodd" stroke="none"/>
    <path d="M8.4 -9.05 L8.65 -8.5 Q9.0 -7.45 8.45 -6.45 7.9 -5.5 6.85 -5.2 5.8 -4.9 4.85 -5.45 3.95 -5.95 3.6 -7.05 3.3 -8.05 3.85 -9.0 4.35 -9.95 5.45 -10.25 L5.9 -10.4 6.6 -10.35 7.4 -10.05 8.1 -9.55 8.4 -9.05" fill="#b149d7" fill-rule="evenodd" stroke="none"/>
    <path d="M7.9 -7.6 Q8.3 -8.3 8.1 -9.1 7.9 -9.9 7.05 -10.25 L5.45 -10.4 Q4.65 -10.2 4.35 -9.5 4.1 -8.85 4.3 -8.05 4.5 -7.25 5.2 -6.85 L6.7 -6.65 Q7.5 -6.9 7.9 -7.6" fill="#cf72f0" fill-rule="evenodd" stroke="none"/>
    <path d="M5.9 -7.75 L6.0 -8.4 5.55 -8.95 4.9 -9.05 Q4.55 -8.95 4.35 -8.65 L4.3 -7.95 Q4.35 -7.6 4.7 -7.45 L5.35 -7.35 5.9 -7.75" fill="#ffffff" fill-opacity="0.49803922" fill-rule="evenodd" stroke="none"/>
  </g>
</svg>
