<?xml version="1.0" encoding="UTF-8" standalone="no"?>
<svg xmlns:xlink="http://www.w3.org/1999/xlink" height="6.6px" width="24.25px" xmlns="http://www.w3.org/2000/svg">
  <g transform="matrix(1.0, 0.0, 0.0, 1.0, -3.15, 15.55)">
    <path d="M23.8 -14.9 L24.25 -14.85 25.5 -14.45 25.55 -14.4 25.5 -14.35 25.65 -14.25 26.7 -13.2 Q27.25 -12.25 26.95 -11.25 26.6 -10.15 25.7 -9.65 24.75 -9.1 23.7 -9.4 22.65 -9.7 22.1 -10.65 21.55 -11.65 21.9 -12.7 L22.15 -13.25 22.3 -13.55 22.45 -13.95 22.55 -14.15 22.65 -14.3 Q23.1 -14.85 23.8 -14.9" fill="#cf72f0" fill-rule="evenodd" stroke="none"/>
    <path d="M23.8 -14.9 Q23.1 -14.85 22.65 -14.3 L22.55 -14.15 22.45 -13.95 22.3 -13.55 22.15 -13.25 21.9 -12.7 Q21.55 -11.65 22.1 -10.65 22.65 -9.7 23.7 -9.4 24.75 -9.1 25.7 -9.65 26.6 -10.15 26.95 -11.25 27.25 -12.25 26.7 -13.2 L25.65 -14.25 25.5 -14.35 25.55 -14.4 25.5 -14.45 24.25 -14.85 23.8 -14.9 Z" fill="none" stroke="#4c0e62" stroke-linecap="round" stroke-linejoin="round" stroke-width="0.75"/>
    <path d="M22.45 -13.95 L22.4 -13.5 22.45 -13.3 22.5 -12.85 22.55 -12.6 22.15 -12.7 22.45 -13.95 M22.9 -12.6 L23.4 -12.65 22.95 -12.4 22.9 -12.6" fill="#e6e6e6" fill-rule="evenodd" stroke="none"/>
    <path d="M22.55 -12.6 L22.5 -12.85 22.45 -13.3 22.4 -13.5 22.45 -13.95 22.55 -14.15 22.65 -14.3 Q23.1 -14.85 23.8 -14.9 L24.0 -14.35 24.15 -14.4 Q24.15 -14.65 24.45 -14.4 L24.85 -14.25 24.9 -14.2 25.2 -13.9 25.05 -13.8 24.65 -13.35 24.7 -13.25 24.45 -13.15 24.1 -12.95 23.4 -12.65 22.9 -12.6 22.55 -12.6" fill="#c8c8c8" fill-rule="evenodd" stroke="none"/>
    <path d="M24.7 -13.25 L24.65 -13.35 25.05 -13.8 25.2 -13.5 24.7 -13.25 M25.2 -13.9 L24.9 -14.2 24.85 -14.25 24.45 -14.4 Q24.15 -14.65 24.15 -14.4 L24.0 -14.35 23.8 -14.9 24.25 -14.85 25.5 -14.45 25.55 -14.4 25.2 -13.9" fill="#a2a2a2" fill-rule="evenodd" stroke="none"/>
    <path d="M24.65 -14.6 L25.1 -14.45 Q26.2 -14.15 26.7 -13.2 27.25 -12.25 26.95 -11.25 26.6 -10.15 25.7 -9.65 24.75 -9.1 23.7 -9.4 22.65 -9.7 22.1 -10.65 21.55 -11.65 21.9 -12.7 L22.15 -13.25 22.45 -13.75 23.15 -14.25 23.95 -14.55 24.65 -14.6" fill="#b149d7" fill-rule="evenodd" stroke="none"/>
    <path d="M22.65 -11.8 Q22.25 -12.5 22.45 -13.3 22.65 -14.1 23.35 -14.5 L24.85 -14.65 Q25.65 -14.45 26.05 -13.75 26.45 -13.05 26.25 -12.25 26.05 -11.45 25.35 -11.05 L23.85 -10.85 Q23.05 -11.1 22.65 -11.8" fill="#cf72f0" fill-rule="evenodd" stroke="none"/>
    <path d="M24.65 -11.95 L24.55 -12.6 25.0 -13.15 25.65 -13.25 Q26.0 -13.15 26.2 -12.85 L26.25 -12.15 25.85 -11.65 25.2 -11.55 Q24.85 -11.65 24.65 -11.95" fill="#ffffff" fill-opacity="0.49803922" fill-rule="evenodd" stroke="none"/>
    <path d="M5.05 -14.75 L6.3 -15.15 6.75 -15.2 Q7.45 -15.15 7.9 -14.6 L8.0 -14.45 8.1 -14.25 8.25 -13.85 8.4 -13.55 8.65 -13.0 Q9.0 -11.95 8.45 -10.95 7.9 -10.0 6.85 -9.7 5.8 -9.4 4.85 -9.95 3.95 -10.45 3.6 -11.55 3.3 -12.55 3.85 -13.5 L5.0 -14.7 5.05 -14.75" fill="#cf72f0" fill-rule="evenodd" stroke="none"/>
    <path d="M5.05 -14.75 L6.3 -15.15 6.75 -15.2 Q7.45 -15.15 7.9 -14.6 L8.0 -14.45 8.1 -14.25 8.25 -13.85 8.4 -13.55 8.65 -13.0 Q9.0 -11.95 8.45 -10.95 7.9 -10.0 6.85 -9.7 5.8 -9.4 4.85 -9.95 3.95 -10.45 3.6 -11.55 3.3 -12.55 3.85 -13.5 L5.0 -14.7" fill="none" stroke="#4c0e62" stroke-linecap="round" stroke-linejoin="round" stroke-width="0.75"/>
    <path d="M5.35 -14.2 L5.0 -14.7 5.05 -14.75 6.3 -15.15 6.75 -15.2 6.55 -14.65 6.4 -14.7 Q6.4 -14.95 6.1 -14.7 L5.7 -14.55 5.65 -14.5 5.35 -14.2 M5.85 -13.55 L5.35 -13.8 5.5 -14.1 5.9 -13.65 5.85 -13.55" fill="#a2a2a2" fill-rule="evenodd" stroke="none"/>
    <path d="M5.35 -14.2 L5.65 -14.5 5.7 -14.55 6.1 -14.7 Q6.4 -14.95 6.4 -14.7 L6.55 -14.65 6.75 -15.2 Q7.45 -15.15 7.9 -14.6 L8.0 -14.45 8.1 -14.25 8.15 -13.8 8.1 -13.6 8.05 -13.15 8.0 -12.9 7.65 -12.9 7.15 -12.95 6.45 -13.25 6.1 -13.45 5.85 -13.55 5.9 -13.65 5.5 -14.1 5.35 -14.2" fill="#c8c8c8" fill-rule="evenodd" stroke="none"/>
    <path d="M8.1 -14.25 L8.4 -13.0 8.0 -12.9 8.05 -13.15 8.1 -13.6 8.15 -13.8 8.1 -14.25 M7.65 -12.9 L7.6 -12.7 7.15 -12.95 7.65 -12.9" fill="#e6e6e6" fill-rule="evenodd" stroke="none"/>
    <path d="M5.9 -14.9 L6.6 -14.85 7.4 -14.55 8.1 -14.05 8.4 -13.55 8.65 -13.0 Q9.0 -11.95 8.45 -10.95 7.9 -10.0 6.85 -9.7 5.8 -9.4 4.85 -9.95 3.95 -10.45 3.6 -11.55 3.3 -12.55 3.85 -13.5 4.35 -14.45 5.45 -14.75 L5.9 -14.9" fill="#b149d7" fill-rule="evenodd" stroke="none"/>
    <path d="M7.9 -12.1 Q8.3 -12.8 8.1 -13.6 7.9 -14.4 7.05 -14.75 L5.45 -14.9 Q4.65 -14.7 4.35 -14.0 4.1 -13.35 4.3 -12.55 4.5 -11.75 5.2 -11.35 L6.7 -11.15 Q7.5 -11.4 7.9 -12.1" fill="#cf72f0" fill-rule="evenodd" stroke="none"/>
    <path d="M5.9 -12.25 L6.0 -12.9 5.55 -13.45 4.9 -13.55 Q4.55 -13.45 4.35 -13.15 L4.3 -12.45 Q4.35 -12.1 4.7 -11.95 L5.35 -11.85 5.9 -12.25" fill="#ffffff" fill-opacity="0.49803922" fill-rule="evenodd" stroke="none"/>
  </g>
</svg>
