<?xml version="1.0" encoding="UTF-8" standalone="no"?>
<svg xmlns:xlink="http://www.w3.org/1999/xlink" height="6.6px" width="24.25px" xmlns="http://www.w3.org/2000/svg">
  <g transform="matrix(1.0, 0.0, 0.0, 1.0, -3.15, 10.9)">
    <path d="M25.55 -9.75 L25.5 -9.7 25.65 -9.6 26.7 -8.55 Q27.25 -7.6 26.95 -6.6 26.6 -5.5 25.7 -5.0 24.75 -4.45 23.7 -4.75 22.65 -5.05 22.1 -6.0 21.55 -7.0 21.9 -8.05 L22.15 -8.6 22.3 -8.9 22.45 -9.3 22.55 -9.5 22.65 -9.65 Q23.1 -10.2 23.8 -10.25 L24.25 -10.2 25.5 -9.8 25.55 -9.75" fill="#cf72f0" fill-rule="evenodd" stroke="none"/>
    <path d="M25.55 -9.75 L25.5 -9.8 24.25 -10.2 23.8 -10.25 Q23.1 -10.2 22.65 -9.65 L22.55 -9.5 22.45 -9.3 22.3 -8.9 22.15 -8.6 21.9 -8.05 Q21.55 -7.0 22.1 -6.0 22.65 -5.05 23.7 -4.75 24.75 -4.45 25.7 -5.0 26.6 -5.5 26.95 -6.6 27.25 -7.6 26.7 -8.55 L25.65 -9.6 25.5 -9.7 25.55 -9.75 Z" fill="none" stroke="#4c0e62" stroke-linecap="round" stroke-linejoin="round" stroke-width="0.75"/>
    <path d="M23.8 -10.25 L24.25 -10.2 25.5 -9.8 25.55 -9.75 25.2 -9.25 24.9 -9.55 24.85 -9.6 24.45 -9.75 Q24.15 -10.0 24.15 -9.75 L24.0 -9.7 23.8 -10.25 M25.05 -9.15 L25.2 -8.85 24.7 -8.6 24.65 -8.7 25.05 -9.15" fill="#a2a2a2" fill-rule="evenodd" stroke="none"/>
    <path d="M25.2 -9.25 L25.05 -9.15 24.65 -8.7 24.7 -8.6 24.45 -8.5 24.1 -8.3 23.4 -8.0 22.9 -7.95 22.55 -7.95 22.5 -8.2 22.45 -8.65 22.4 -8.85 22.45 -9.3 22.55 -9.5 22.65 -9.65 Q23.1 -10.2 23.8 -10.25 L24.0 -9.7 24.15 -9.75 Q24.15 -10.0 24.45 -9.75 L24.85 -9.6 24.9 -9.55 25.2 -9.25" fill="#c8c8c8" fill-rule="evenodd" stroke="none"/>
    <path d="M23.4 -8.0 L22.95 -7.75 22.9 -7.95 23.4 -8.0 M22.55 -7.95 L22.15 -8.05 22.45 -9.3 22.4 -8.85 22.45 -8.65 22.5 -8.2 22.55 -7.95" fill="#e6e6e6" fill-rule="evenodd" stroke="none"/>
    <path d="M26.7 -8.55 Q27.25 -7.6 26.95 -6.6 26.6 -5.5 25.7 -5.0 24.75 -4.45 23.7 -4.75 22.65 -5.05 22.1 -6.0 21.55 -7.0 21.9 -8.05 L22.15 -8.6 22.45 -9.1 23.15 -9.6 23.95 -9.9 24.65 -9.95 25.1 -9.8 Q26.2 -9.5 26.7 -8.55" fill="#b149d7" fill-rule="evenodd" stroke="none"/>
    <path d="M22.65 -7.15 Q22.25 -7.85 22.45 -8.65 22.65 -9.45 23.35 -9.85 L24.85 -10.0 Q25.65 -9.8 26.05 -9.1 26.45 -8.4 26.25 -7.6 26.05 -6.8 25.35 -6.4 L23.85 -6.2 Q23.05 -6.45 22.65 -7.15" fill="#cf72f0" fill-rule="evenodd" stroke="none"/>
    <path d="M24.65 -7.3 L24.55 -7.95 25.0 -8.5 25.65 -8.6 Q26.0 -8.5 26.2 -8.2 L26.25 -7.5 25.85 -7.0 25.2 -6.9 Q24.85 -7.0 24.65 -7.3" fill="#ffffff" fill-opacity="0.49803922" fill-rule="evenodd" stroke="none"/>
    <path d="M5.05 -10.1 L6.3 -10.5 6.75 -10.55 Q7.45 -10.5 7.9 -9.95 L8.0 -9.8 8.1 -9.6 8.25 -9.2 8.4 -8.9 8.65 -8.35 Q9.0 -7.3 8.45 -6.3 7.9 -5.35 6.85 -5.05 5.8 -4.75 4.85 -5.3 3.95 -5.8 3.6 -6.9 3.3 -7.9 3.85 -8.85 L5.0 -10.05 5.05 -10.1" fill="#cf72f0" fill-rule="evenodd" stroke="none"/>
    <path d="M5.05 -10.1 L6.3 -10.5 6.75 -10.55 Q7.45 -10.5 7.9 -9.95 L8.0 -9.8 8.1 -9.6 8.25 -9.2 8.4 -8.9 8.65 -8.35 Q9.0 -7.3 8.45 -6.3 7.9 -5.35 6.85 -5.05 5.8 -4.75 4.85 -5.3 3.95 -5.8 3.6 -6.9 3.3 -7.9 3.85 -8.85 L5.0 -10.05" fill="none" stroke="#4c0e62" stroke-linecap="round" stroke-linejoin="round" stroke-width="0.75"/>
    <path d="M6.75 -10.55 Q7.45 -10.5 7.9 -9.95 L8.0 -9.8 8.1 -9.6 8.15 -9.15 8.1 -8.95 8.05 -8.5 8.0 -8.25 7.65 -8.25 7.15 -8.3 6.45 -8.6 6.1 -8.8 5.85 -8.9 5.9 -9.0 5.5 -9.45 5.35 -9.55 5.65 -9.85 5.7 -9.9 6.1 -10.05 Q6.4 -10.3 6.4 -10.05 L6.55 -10.0 6.75 -10.55" fill="#c8c8c8" fill-rule="evenodd" stroke="none"/>
    <path d="M6.75 -10.55 L6.55 -10.0 6.4 -10.05 Q6.4 -10.3 6.1 -10.05 L5.7 -9.9 5.65 -9.85 5.35 -9.55 5.0 -10.05 5.05 -10.1 6.3 -10.5 6.75 -10.55 M5.5 -9.45 L5.9 -9.0 5.85 -8.9 5.35 -9.15 5.5 -9.45" fill="#a2a2a2" fill-rule="evenodd" stroke="none"/>
    <path d="M7.15 -8.3 L7.65 -8.25 7.6 -8.05 7.15 -8.3 M8.0 -8.25 L8.05 -8.5 8.1 -8.95 8.15 -9.15 8.1 -9.6 8.4 -8.35 8.0 -8.25" fill="#e6e6e6" fill-rule="evenodd" stroke="none"/>
    <path d="M7.4 -9.9 L8.1 -9.4 8.4 -8.9 8.65 -8.35 Q9.0 -7.3 8.45 -6.3 7.9 -5.35 6.85 -5.05 5.8 -4.75 4.85 -5.3 3.95 -5.8 3.6 -6.9 3.3 -7.9 3.85 -8.85 4.35 -9.8 5.45 -10.1 L5.9 -10.25 6.6 -10.2 7.4 -9.9" fill="#b149d7" fill-rule="evenodd" stroke="none"/>
    <path d="M7.9 -7.45 Q8.3 -8.15 8.1 -8.95 7.9 -9.75 7.05 -10.1 L5.45 -10.25 Q4.65 -10.05 4.35 -9.35 4.1 -8.7 4.3 -7.9 4.5 -7.1 5.2 -6.7 L6.7 -6.5 Q7.5 -6.75 7.9 -7.45" fill="#cf72f0" fill-rule="evenodd" stroke="none"/>
    <path d="M5.9 -7.6 L6.0 -8.25 5.55 -8.8 4.9 -8.9 Q4.55 -8.8 4.35 -8.5 L4.3 -7.8 Q4.35 -7.45 4.7 -7.3 L5.35 -7.2 5.9 -7.6" fill="#ffffff" fill-opacity="0.49803922" fill-rule="evenodd" stroke="none"/>
  </g>
</svg>
