<?xml version="1.0" encoding="UTF-8" standalone="no"?>
<svg xmlns:xlink="http://www.w3.org/1999/xlink" height="6.6px" width="24.25px" xmlns="http://www.w3.org/2000/svg">
  <g transform="matrix(1.0, 0.0, 0.0, 1.0, -3.15, 9.4)">
    <path d="M25.65 -8.1 L26.7 -7.05 Q27.25 -6.1 26.95 -5.1 26.6 -4.0 25.7 -3.5 24.75 -2.95 23.7 -3.25 22.65 -3.55 22.1 -4.5 21.55 -5.5 21.9 -6.55 L22.15 -7.1 22.3 -7.4 22.45 -7.8 22.55 -8.0 22.65 -8.15 Q23.1 -8.7 23.8 -8.75 L24.25 -8.7 25.5 -8.3 25.55 -8.25 25.5 -8.2 25.65 -8.1" fill="#cf72f0" fill-rule="evenodd" stroke="none"/>
    <path d="M25.65 -8.1 L25.5 -8.2 25.55 -8.25 25.5 -8.3 24.25 -8.7 23.8 -8.75 Q23.1 -8.7 22.65 -8.15 L22.55 -8.0 22.45 -7.8 22.3 -7.4 22.15 -7.1 21.9 -6.55 Q21.55 -5.5 22.1 -4.5 22.65 -3.55 23.7 -3.25 24.75 -2.95 25.7 -3.5 26.6 -4.0 26.95 -5.1 27.25 -6.1 26.7 -7.05 L25.65 -8.1 Z" fill="none" stroke="#4c0e62" stroke-linecap="round" stroke-linejoin="round" stroke-width="0.75"/>
    <path d="M23.8 -8.75 L24.25 -8.7 25.5 -8.3 25.55 -8.25 25.2 -7.75 24.9 -8.05 24.85 -8.1 24.45 -8.25 Q24.15 -8.5 24.15 -8.25 L24.0 -8.2 23.8 -8.75 M25.05 -7.65 L25.2 -7.35 24.7 -7.1 24.65 -7.2 25.05 -7.65" fill="#a2a2a2" fill-rule="evenodd" stroke="none"/>
    <path d="M25.2 -7.75 L25.05 -7.65 24.65 -7.2 24.7 -7.1 24.45 -7.0 24.1 -6.8 23.4 -6.5 22.9 -6.45 22.55 -6.45 22.5 -6.7 22.45 -7.15 22.4 -7.35 22.45 -7.8 22.55 -8.0 22.65 -8.15 Q23.1 -8.7 23.8 -8.75 L24.0 -8.2 24.15 -8.25 Q24.15 -8.5 24.45 -8.25 L24.85 -8.1 24.9 -8.05 25.2 -7.75" fill="#c8c8c8" fill-rule="evenodd" stroke="none"/>
    <path d="M23.4 -6.5 L22.95 -6.25 22.9 -6.45 23.4 -6.5 M22.55 -6.45 L22.15 -6.55 22.45 -7.8 22.4 -7.35 22.45 -7.15 22.5 -6.7 22.55 -6.45" fill="#e6e6e6" fill-rule="evenodd" stroke="none"/>
    <path d="M21.9 -6.55 L22.15 -7.1 22.45 -7.6 23.15 -8.1 23.95 -8.4 24.65 -8.45 25.1 -8.3 Q26.2 -8.0 26.7 -7.05 27.25 -6.1 26.95 -5.1 26.6 -4.0 25.7 -3.5 24.75 -2.95 23.7 -3.25 22.65 -3.55 22.1 -4.5 21.55 -5.5 21.9 -6.55" fill="#b149d7" fill-rule="evenodd" stroke="none"/>
    <path d="M22.65 -5.65 Q22.25 -6.35 22.45 -7.15 22.65 -7.95 23.35 -8.35 L24.85 -8.5 Q25.65 -8.3 26.05 -7.6 26.45 -6.9 26.25 -6.1 26.05 -5.3 25.35 -4.9 L23.85 -4.7 Q23.05 -4.95 22.65 -5.65" fill="#cf72f0" fill-rule="evenodd" stroke="none"/>
    <path d="M24.65 -5.8 L24.55 -6.45 25.0 -7.0 25.65 -7.1 Q26.0 -7.0 26.2 -6.7 L26.25 -6.0 25.85 -5.5 25.2 -5.4 Q24.85 -5.5 24.65 -5.8" fill="#ffffff" fill-opacity="0.49803922" fill-rule="evenodd" stroke="none"/>
    <path d="M5.05 -8.6 L6.3 -9.0 6.75 -9.05 Q7.45 -9.0 7.9 -8.45 L8.0 -8.3 8.1 -8.1 8.25 -7.7 8.4 -7.4 8.65 -6.85 Q9.0 -5.8 8.45 -4.8 7.9 -3.85 6.85 -3.55 5.8 -3.25 4.85 -3.8 3.95 -4.3 3.6 -5.4 3.3 -6.4 3.85 -7.35 L5.0 -8.55 5.05 -8.6" fill="#cf72f0" fill-rule="evenodd" stroke="none"/>
    <path d="M5.05 -8.6 L6.3 -9.0 6.75 -9.05 Q7.45 -9.0 7.9 -8.45 L8.0 -8.3 8.1 -8.1 8.25 -7.7 8.4 -7.4 8.65 -6.85 Q9.0 -5.8 8.45 -4.8 7.9 -3.85 6.85 -3.55 5.8 -3.25 4.85 -3.8 3.95 -4.3 3.6 -5.4 3.3 -6.4 3.85 -7.35 L5.0 -8.55" fill="none" stroke="#4c0e62" stroke-linecap="round" stroke-linejoin="round" stroke-width="0.75"/>
    <path d="M6.75 -9.05 L6.55 -8.5 6.4 -8.55 Q6.4 -8.8 6.1 -8.55 L5.7 -8.4 5.65 -8.35 5.35 -8.05 5.0 -8.55 5.05 -8.6 6.3 -9.0 6.75 -9.05 M5.5 -7.95 L5.9 -7.5 5.85 -7.4 5.35 -7.65 5.5 -7.95" fill="#a2a2a2" fill-rule="evenodd" stroke="none"/>
    <path d="M5.35 -8.05 L5.65 -8.35 5.7 -8.4 6.1 -8.55 Q6.4 -8.8 6.4 -8.55 L6.55 -8.5 6.75 -9.05 Q7.45 -9.0 7.9 -8.45 L8.0 -8.3 8.1 -8.1 8.15 -7.65 8.1 -7.45 8.05 -7.0 8.0 -6.75 7.65 -6.75 7.15 -6.8 6.45 -7.1 6.1 -7.3 5.85 -7.4 5.9 -7.5 5.5 -7.95 5.35 -8.05" fill="#c8c8c8" fill-rule="evenodd" stroke="none"/>
    <path d="M7.15 -6.8 L7.65 -6.75 7.6 -6.55 7.15 -6.8 M8.0 -6.75 L8.05 -7.0 8.1 -7.45 8.15 -7.65 8.1 -8.1 8.4 -6.85 8.0 -6.75" fill="#e6e6e6" fill-rule="evenodd" stroke="none"/>
    <path d="M6.6 -8.7 L7.4 -8.4 8.1 -7.9 8.4 -7.4 8.65 -6.85 Q9.0 -5.8 8.45 -4.8 7.9 -3.85 6.85 -3.55 5.8 -3.25 4.85 -3.8 3.95 -4.3 3.6 -5.4 3.3 -6.4 3.85 -7.35 4.35 -8.3 5.45 -8.6 L5.9 -8.75 6.6 -8.7" fill="#b149d7" fill-rule="evenodd" stroke="none"/>
    <path d="M7.9 -5.95 Q8.3 -6.65 8.1 -7.45 7.9 -8.25 7.05 -8.6 L5.45 -8.75 Q4.65 -8.55 4.35 -7.85 4.1 -7.2 4.3 -6.4 4.5 -5.6 5.2 -5.2 L6.7 -5.0 Q7.5 -5.25 7.9 -5.95" fill="#cf72f0" fill-rule="evenodd" stroke="none"/>
    <path d="M5.9 -6.1 L6.0 -6.75 5.55 -7.3 4.9 -7.4 Q4.55 -7.3 4.35 -7.0 L4.3 -6.3 Q4.35 -5.95 4.7 -5.8 L5.35 -5.7 5.9 -6.1" fill="#ffffff" fill-opacity="0.49803922" fill-rule="evenodd" stroke="none"/>
  </g>
</svg>
