<?xml version="1.0" encoding="UTF-8" standalone="no"?>
<svg xmlns:xlink="http://www.w3.org/1999/xlink" height="6.6px" width="24.25px" xmlns="http://www.w3.org/2000/svg">
  <g transform="matrix(1.0, 0.0, 0.0, 1.0, -3.15, -3.8)">
    <path d="M25.65 5.1 Q26.35 5.45 26.7 6.15 27.25 7.1 26.95 8.1 26.6 9.2 25.7 9.7 L23.7 9.95 Q22.65 9.65 22.1 8.7 21.55 7.7 21.9 6.65 21.95 6.4 22.15 6.1 L22.3 5.8 22.45 5.4 22.55 5.2 22.65 5.05 Q23.1 4.5 23.8 4.45 L24.25 4.5 Q24.8 4.55 25.5 4.9 L25.55 4.95 25.5 5.0 25.65 5.1" fill="#cf72f0" fill-rule="evenodd" stroke="none"/>
    <path d="M25.65 5.1 L25.5 5.0 25.55 4.95 25.5 4.9 Q24.8 4.55 24.25 4.5 L23.8 4.45 Q23.1 4.5 22.65 5.05 L22.55 5.2 22.45 5.4 22.3 5.8 22.15 6.1 Q21.95 6.4 21.9 6.65 21.55 7.7 22.1 8.7 22.65 9.65 23.7 9.95 L25.7 9.7 Q26.6 9.2 26.95 8.1 27.25 7.1 26.7 6.15 26.35 5.45 25.65 5.1 Z" fill="none" stroke="#4c0e62" stroke-linecap="round" stroke-linejoin="round" stroke-width="0.75"/>
    <path d="M23.8 4.45 L24.25 4.5 Q24.8 4.55 25.5 4.9 L25.55 4.95 25.2 5.45 24.9 5.15 24.85 5.1 24.45 4.95 Q24.15 4.7 24.15 4.95 L24.0 5.0 23.8 4.45 M25.05 5.55 L25.2 5.85 24.7 6.1 24.65 6.0 25.05 5.55" fill="#a2a2a2" fill-rule="evenodd" stroke="none"/>
    <path d="M25.2 5.45 L25.05 5.55 24.65 6.0 24.7 6.1 24.45 6.2 24.1 6.4 23.4 6.7 22.9 6.75 22.55 6.75 22.5 6.5 22.45 6.05 22.4 5.85 22.45 5.4 22.55 5.2 22.65 5.05 Q23.1 4.5 23.8 4.45 L24.0 5.0 24.15 4.95 Q24.15 4.7 24.45 4.95 L24.85 5.1 24.9 5.15 25.2 5.45" fill="#c8c8c8" fill-rule="evenodd" stroke="none"/>
    <path d="M23.4 6.7 L22.95 6.95 22.9 6.75 23.4 6.7 M22.55 6.75 L22.15 6.65 Q22.2 5.85 22.45 5.4 L22.4 5.85 22.45 6.05 22.5 6.5 22.55 6.75" fill="#e6e6e6" fill-rule="evenodd" stroke="none"/>
    <path d="M23.95 4.8 L24.65 4.75 25.1 4.9 Q26.2 5.2 26.7 6.15 27.25 7.1 26.95 8.1 26.6 9.2 25.7 9.7 L23.7 9.95 Q22.65 9.65 22.1 8.7 21.55 7.7 21.9 6.65 21.95 6.4 22.15 6.1 L22.45 5.6 23.15 5.1 23.95 4.8" fill="#b149d7" fill-rule="evenodd" stroke="none"/>
    <path d="M22.65 7.55 Q22.25 6.85 22.45 6.05 22.65 5.25 23.35 4.85 L24.85 4.7 Q25.65 4.9 26.05 5.6 26.45 6.3 26.25 7.1 26.05 7.9 25.35 8.3 L23.85 8.5 Q23.05 8.25 22.65 7.55" fill="#cf72f0" fill-rule="evenodd" stroke="none"/>
    <path d="M24.65 7.4 L24.55 6.75 25.0 6.2 25.65 6.1 Q26.0 6.2 26.2 6.5 L26.25 7.2 25.85 7.7 25.2 7.8 Q24.85 7.7 24.65 7.4" fill="#ffffff" fill-opacity="0.49803922" fill-rule="evenodd" stroke="none"/>
    <path d="M5.05 4.6 L6.3 4.2 6.75 4.15 Q7.45 4.2 7.9 4.75 L8.0 4.9 8.1 5.1 8.25 5.5 8.4 5.8 8.65 6.35 Q9.0 7.4 8.45 8.4 7.9 9.35 6.85 9.65 L4.85 9.4 Q3.95 8.9 3.6 7.8 3.3 6.8 3.85 5.85 L5.0 4.65 5.05 4.6" fill="#cf72f0" fill-rule="evenodd" stroke="none"/>
    <path d="M5.05 4.6 L6.3 4.2 6.75 4.15 Q7.45 4.2 7.9 4.75 L8.0 4.9 8.1 5.1 8.25 5.5 8.4 5.8 8.65 6.35 Q9.0 7.4 8.45 8.4 7.9 9.35 6.85 9.65 L4.85 9.4 Q3.95 8.9 3.6 7.8 3.3 6.8 3.85 5.85 L5.0 4.65" fill="none" stroke="#4c0e62" stroke-linecap="round" stroke-linejoin="round" stroke-width="0.75"/>
    <path d="M6.75 4.15 L6.55 4.7 6.4 4.65 Q6.4 4.4 6.1 4.65 L5.7 4.8 5.65 4.85 5.35 5.15 5.0 4.65 5.05 4.6 6.3 4.2 6.75 4.15 M5.5 5.25 L5.9 5.7 5.85 5.8 5.35 5.55 5.5 5.25" fill="#a2a2a2" fill-rule="evenodd" stroke="none"/>
    <path d="M5.35 5.15 L5.65 4.85 5.7 4.8 6.1 4.65 Q6.4 4.4 6.4 4.65 L6.55 4.7 6.75 4.15 Q7.45 4.2 7.9 4.75 L8.0 4.9 8.1 5.1 8.15 5.55 8.1 5.75 8.05 6.2 8.0 6.45 7.65 6.45 7.15 6.4 6.45 6.1 6.1 5.9 5.85 5.8 5.9 5.7 5.5 5.25 5.35 5.15" fill="#c8c8c8" fill-rule="evenodd" stroke="none"/>
    <path d="M7.15 6.4 L7.65 6.45 7.6 6.65 7.15 6.4 M8.0 6.45 L8.05 6.2 8.1 5.75 8.15 5.55 8.1 5.1 8.4 6.35 8.0 6.45" fill="#e6e6e6" fill-rule="evenodd" stroke="none"/>
    <path d="M5.9 4.45 L6.6 4.5 7.4 4.8 8.1 5.3 8.4 5.8 8.65 6.35 Q9.0 7.4 8.45 8.4 7.9 9.35 6.85 9.65 L4.85 9.4 Q3.95 8.9 3.6 7.8 3.3 6.8 3.85 5.85 4.35 4.9 5.45 4.6 L5.9 4.45" fill="#b149d7" fill-rule="evenodd" stroke="none"/>
    <path d="M7.9 7.25 Q8.3 6.55 8.1 5.75 7.9 4.95 7.05 4.6 L5.45 4.45 Q4.65 4.65 4.35 5.35 4.1 6.0 4.3 6.8 4.5 7.6 5.2 8.0 L6.7 8.2 Q7.5 7.95 7.9 7.25" fill="#cf72f0" fill-rule="evenodd" stroke="none"/>
    <path d="M5.9 7.1 L6.0 6.45 5.55 5.9 4.9 5.8 Q4.55 5.9 4.35 6.2 L4.3 6.9 Q4.35 7.25 4.7 7.4 L5.35 7.5 5.9 7.1" fill="#ffffff" fill-opacity="0.49803922" fill-rule="evenodd" stroke="none"/>
  </g>
</svg>
