<?xml version="1.0" encoding="UTF-8" standalone="no"?>
<svg xmlns:xlink="http://www.w3.org/1999/xlink" height="6.6px" width="24.25px" xmlns="http://www.w3.org/2000/svg">
  <g transform="matrix(1.0, 0.0, 0.0, 1.0, -3.15, 13.0)">
    <path d="M25.5 -11.8 L25.65 -11.7 26.7 -10.65 Q27.25 -9.7 26.95 -8.7 26.6 -7.6 25.7 -7.1 24.75 -6.55 23.7 -6.85 22.65 -7.15 22.1 -8.1 21.55 -9.1 21.9 -10.15 L22.15 -10.7 22.3 -11.0 22.45 -11.4 22.55 -11.6 22.65 -11.75 Q23.1 -12.3 23.8 -12.35 L24.25 -12.3 25.5 -11.9 25.55 -11.85 25.5 -11.8" fill="#cf72f0" fill-rule="evenodd" stroke="none"/>
    <path d="M25.5 -11.8 L25.55 -11.85 25.5 -11.9 24.25 -12.3 23.8 -12.35 Q23.1 -12.3 22.65 -11.75 L22.55 -11.6 22.45 -11.4 22.3 -11.0 22.15 -10.7 21.9 -10.15 Q21.55 -9.1 22.1 -8.1 22.65 -7.15 23.7 -6.85 24.75 -6.55 25.7 -7.1 26.6 -7.6 26.95 -8.7 27.25 -9.7 26.7 -10.65 L25.65 -11.7 25.5 -11.8 Z" fill="none" stroke="#4c0e62" stroke-linecap="round" stroke-linejoin="round" stroke-width="0.75"/>
    <path d="M23.8 -12.35 L24.25 -12.3 25.5 -11.9 25.55 -11.85 25.2 -11.35 24.9 -11.65 24.85 -11.7 24.45 -11.85 Q24.15 -12.1 24.15 -11.85 L24.0 -11.8 23.8 -12.35 M25.05 -11.25 L25.2 -10.95 24.7 -10.7 24.65 -10.8 25.05 -11.25" fill="#a2a2a2" fill-rule="evenodd" stroke="none"/>
    <path d="M25.2 -11.35 L25.05 -11.25 24.65 -10.8 24.7 -10.7 24.45 -10.6 24.1 -10.4 23.4 -10.1 22.9 -10.05 22.55 -10.05 22.5 -10.3 22.45 -10.75 22.4 -10.95 22.45 -11.4 22.55 -11.6 22.65 -11.75 Q23.1 -12.3 23.8 -12.35 L24.0 -11.8 24.15 -11.85 Q24.15 -12.1 24.45 -11.85 L24.85 -11.7 24.9 -11.65 25.2 -11.35" fill="#c8c8c8" fill-rule="evenodd" stroke="none"/>
    <path d="M23.4 -10.1 L22.95 -9.85 22.9 -10.05 23.4 -10.1 M22.55 -10.05 L22.15 -10.15 22.45 -11.4 22.4 -10.95 22.45 -10.75 22.5 -10.3 22.55 -10.05" fill="#e6e6e6" fill-rule="evenodd" stroke="none"/>
    <path d="M26.7 -10.65 Q27.25 -9.7 26.95 -8.7 26.6 -7.6 25.7 -7.1 24.75 -6.55 23.7 -6.85 22.65 -7.15 22.1 -8.1 21.55 -9.1 21.9 -10.15 L22.15 -10.7 22.45 -11.2 23.15 -11.7 23.95 -12.0 24.65 -12.05 25.1 -11.9 Q26.2 -11.6 26.7 -10.65" fill="#b149d7" fill-rule="evenodd" stroke="none"/>
    <path d="M22.65 -9.25 Q22.25 -9.95 22.45 -10.75 22.65 -11.55 23.35 -11.95 L24.85 -12.1 Q25.65 -11.9 26.05 -11.2 26.45 -10.5 26.25 -9.7 26.05 -8.9 25.35 -8.5 L23.85 -8.3 Q23.05 -8.55 22.65 -9.25" fill="#cf72f0" fill-rule="evenodd" stroke="none"/>
    <path d="M24.65 -9.4 L24.55 -10.05 25.0 -10.6 25.65 -10.7 Q26.0 -10.6 26.2 -10.3 L26.25 -9.6 25.85 -9.1 25.2 -9.0 Q24.85 -9.1 24.65 -9.4" fill="#ffffff" fill-opacity="0.49803922" fill-rule="evenodd" stroke="none"/>
    <path d="M5.05 -12.2 L6.3 -12.6 6.75 -12.65 Q7.45 -12.6 7.9 -12.05 L8.0 -11.9 8.1 -11.7 8.25 -11.3 8.4 -11.0 8.65 -10.45 Q9.0 -9.4 8.45 -8.4 7.9 -7.45 6.85 -7.15 5.8 -6.85 4.85 -7.4 3.95 -7.9 3.6 -9.0 3.3 -10.0 3.85 -10.95 L5.0 -12.15 5.05 -12.2" fill="#cf72f0" fill-rule="evenodd" stroke="none"/>
    <path d="M5.05 -12.2 L6.3 -12.6 6.75 -12.65 Q7.45 -12.6 7.9 -12.05 L8.0 -11.9 8.1 -11.7 8.25 -11.3 8.4 -11.0 8.65 -10.45 Q9.0 -9.4 8.45 -8.4 7.9 -7.45 6.85 -7.15 5.8 -6.85 4.85 -7.4 3.95 -7.9 3.6 -9.0 3.3 -10.0 3.85 -10.95 L5.0 -12.15" fill="none" stroke="#4c0e62" stroke-linecap="round" stroke-linejoin="round" stroke-width="0.75"/>
    <path d="M5.35 -11.65 L5.0 -12.15 5.05 -12.2 6.3 -12.6 6.75 -12.65 6.55 -12.1 6.4 -12.15 Q6.4 -12.4 6.1 -12.15 L5.7 -12.0 5.65 -11.95 5.35 -11.65 M5.85 -11.0 L5.35 -11.25 5.5 -11.55 5.9 -11.1 5.85 -11.0" fill="#a2a2a2" fill-rule="evenodd" stroke="none"/>
    <path d="M5.35 -11.65 L5.65 -11.95 5.7 -12.0 6.1 -12.15 Q6.4 -12.4 6.4 -12.15 L6.55 -12.1 6.75 -12.65 Q7.45 -12.6 7.9 -12.05 L8.0 -11.9 8.1 -11.7 8.15 -11.25 8.1 -11.05 8.05 -10.6 8.0 -10.35 7.65 -10.35 7.15 -10.4 6.45 -10.7 6.1 -10.9 5.85 -11.0 5.9 -11.1 5.5 -11.55 5.35 -11.65" fill="#c8c8c8" fill-rule="evenodd" stroke="none"/>
    <path d="M8.1 -11.7 L8.4 -10.45 8.0 -10.35 8.05 -10.6 8.1 -11.05 8.15 -11.25 8.1 -11.7 M7.65 -10.35 L7.6 -10.15 7.15 -10.4 7.65 -10.35" fill="#e6e6e6" fill-rule="evenodd" stroke="none"/>
    <path d="M8.65 -10.45 Q9.0 -9.4 8.45 -8.4 7.9 -7.45 6.85 -7.15 5.8 -6.85 4.85 -7.4 3.95 -7.9 3.6 -9.0 3.3 -10.0 3.85 -10.95 4.35 -11.9 5.45 -12.2 L5.9 -12.35 6.6 -12.3 7.4 -12.0 8.1 -11.5 8.4 -11.0 8.65 -10.45" fill="#b149d7" fill-rule="evenodd" stroke="none"/>
    <path d="M7.9 -9.55 Q8.3 -10.25 8.1 -11.05 7.9 -11.85 7.05 -12.2 L5.45 -12.35 Q4.65 -12.15 4.35 -11.45 4.1 -10.8 4.3 -10.0 4.5 -9.2 5.2 -8.8 L6.7 -8.6 Q7.5 -8.85 7.9 -9.55" fill="#cf72f0" fill-rule="evenodd" stroke="none"/>
    <path d="M5.9 -9.7 L6.0 -10.35 5.55 -10.9 4.9 -11.0 Q4.55 -10.9 4.35 -10.6 L4.3 -9.9 Q4.35 -9.55 4.7 -9.4 L5.35 -9.3 5.9 -9.7" fill="#ffffff" fill-opacity="0.49803922" fill-rule="evenodd" stroke="none"/>
  </g>
</svg>
