<?xml version="1.0" encoding="UTF-8" standalone="no"?>
<svg xmlns:xlink="http://www.w3.org/1999/xlink" height="6.6px" width="24.25px" xmlns="http://www.w3.org/2000/svg">
  <g transform="matrix(1.0, 0.0, 0.0, 1.0, -3.15, 37.3)">
    <path d="M25.5 -36.2 L25.55 -36.15 25.5 -36.1 25.65 -36.0 26.7 -34.95 Q27.25 -34.0 26.95 -33.0 26.6 -31.9 25.7 -31.4 24.75 -30.85 23.7 -31.15 22.65 -31.45 22.1 -32.4 21.55 -33.4 21.9 -34.45 L22.15 -35.0 22.3 -35.3 22.45 -35.7 22.55 -35.9 22.65 -36.05 Q23.1 -36.6 23.8 -36.65 L24.25 -36.6 25.5 -36.2" fill="#cf72f0" fill-rule="evenodd" stroke="none"/>
    <path d="M25.5 -36.2 L24.25 -36.6 23.8 -36.65 Q23.1 -36.6 22.65 -36.05 L22.55 -35.9 22.45 -35.7 22.3 -35.3 22.15 -35.0 21.9 -34.45 Q21.55 -33.4 22.1 -32.4 22.65 -31.45 23.7 -31.15 24.75 -30.85 25.7 -31.4 26.6 -31.9 26.95 -33.0 27.25 -34.0 26.7 -34.95 L25.65 -36.0 25.5 -36.1 25.55 -36.15 25.5 -36.2 Z" fill="none" stroke="#4c0e62" stroke-linecap="round" stroke-linejoin="round" stroke-width="0.75"/>
    <path d="M23.8 -36.65 L24.25 -36.6 25.5 -36.2 25.55 -36.15 25.2 -35.65 24.9 -35.95 24.85 -36.0 24.45 -36.15 Q24.15 -36.4 24.15 -36.15 L24.0 -36.1 23.8 -36.65 M25.05 -35.55 L25.2 -35.25 24.7 -35.0 24.65 -35.1 25.05 -35.55" fill="#a2a2a2" fill-rule="evenodd" stroke="none"/>
    <path d="M25.2 -35.65 L25.05 -35.55 24.65 -35.1 24.7 -35.0 24.45 -34.9 24.1 -34.7 23.4 -34.4 22.9 -34.35 22.55 -34.35 22.5 -34.6 22.45 -35.05 22.4 -35.25 22.45 -35.7 22.55 -35.9 22.65 -36.05 Q23.1 -36.6 23.8 -36.65 L24.0 -36.1 24.15 -36.15 Q24.15 -36.4 24.45 -36.15 L24.85 -36.0 24.9 -35.95 25.2 -35.65" fill="#c8c8c8" fill-rule="evenodd" stroke="none"/>
    <path d="M23.4 -34.4 L22.95 -34.15 22.9 -34.35 23.4 -34.4 M22.55 -34.35 L22.15 -34.45 22.45 -35.7 22.4 -35.25 22.45 -35.05 22.5 -34.6 22.55 -34.35" fill="#e6e6e6" fill-rule="evenodd" stroke="none"/>
    <path d="M26.7 -34.95 Q27.25 -34.0 26.95 -33.0 26.6 -31.9 25.7 -31.4 24.75 -30.85 23.7 -31.15 22.65 -31.45 22.1 -32.4 21.55 -33.4 21.9 -34.45 L22.15 -35.0 22.45 -35.5 23.15 -36.0 23.95 -36.3 24.65 -36.35 25.1 -36.2 Q26.2 -35.9 26.7 -34.95" fill="#b149d7" fill-rule="evenodd" stroke="none"/>
    <path d="M22.65 -33.55 Q22.25 -34.25 22.45 -35.05 22.65 -35.85 23.35 -36.25 L24.85 -36.4 Q25.65 -36.2 26.05 -35.5 26.45 -34.8 26.25 -34.0 26.05 -33.2 25.35 -32.8 L23.85 -32.6 Q23.05 -32.85 22.65 -33.55" fill="#cf72f0" fill-rule="evenodd" stroke="none"/>
    <path d="M24.65 -33.7 L24.55 -34.35 25.0 -34.9 25.65 -35.0 Q26.0 -34.9 26.2 -34.6 L26.25 -33.9 25.85 -33.4 25.2 -33.3 Q24.85 -33.4 24.65 -33.7" fill="#ffffff" fill-opacity="0.49803922" fill-rule="evenodd" stroke="none"/>
    <path d="M5.05 -36.5 L6.3 -36.9 6.75 -36.95 Q7.45 -36.9 7.9 -36.35 L8.0 -36.2 8.1 -36.0 8.25 -35.6 8.4 -35.3 8.65 -34.75 Q9.0 -33.7 8.45 -32.7 7.9 -31.75 6.85 -31.45 5.8 -31.15 4.85 -31.7 3.95 -32.2 3.6 -33.3 3.3 -34.3 3.85 -35.25 L5.0 -36.45 5.05 -36.5" fill="#cf72f0" fill-rule="evenodd" stroke="none"/>
    <path d="M5.05 -36.5 L6.3 -36.9 6.75 -36.95 Q7.45 -36.9 7.9 -36.35 L8.0 -36.2 8.1 -36.0 8.25 -35.6 8.4 -35.3 8.65 -34.75 Q9.0 -33.7 8.45 -32.7 7.9 -31.75 6.85 -31.45 5.8 -31.15 4.85 -31.7 3.95 -32.2 3.6 -33.3 3.3 -34.3 3.85 -35.25 L5.0 -36.45" fill="none" stroke="#4c0e62" stroke-linecap="round" stroke-linejoin="round" stroke-width="0.75"/>
    <path d="M6.75 -36.95 Q7.45 -36.9 7.9 -36.35 L8.0 -36.2 8.1 -36.0 8.15 -35.55 8.1 -35.35 8.05 -34.9 8.0 -34.65 7.65 -34.65 7.15 -34.7 6.45 -35.0 6.1 -35.2 5.85 -35.3 5.9 -35.4 5.5 -35.85 5.35 -35.95 5.65 -36.25 5.7 -36.3 6.1 -36.45 Q6.4 -36.7 6.4 -36.45 L6.55 -36.4 6.75 -36.95" fill="#c8c8c8" fill-rule="evenodd" stroke="none"/>
    <path d="M7.15 -34.7 L7.65 -34.65 7.6 -34.45 7.15 -34.7 M8.0 -34.65 L8.05 -34.9 8.1 -35.35 8.15 -35.55 8.1 -36.0 8.4 -34.75 8.0 -34.65" fill="#e6e6e6" fill-rule="evenodd" stroke="none"/>
    <path d="M6.75 -36.95 L6.55 -36.4 6.4 -36.45 Q6.4 -36.7 6.1 -36.45 L5.7 -36.3 5.65 -36.25 5.35 -35.95 5.0 -36.45 5.05 -36.5 6.3 -36.9 6.75 -36.95 M5.5 -35.85 L5.9 -35.4 5.85 -35.3 5.35 -35.55 5.5 -35.85" fill="#a2a2a2" fill-rule="evenodd" stroke="none"/>
    <path d="M8.65 -34.75 Q9.0 -33.7 8.45 -32.7 7.9 -31.75 6.85 -31.45 5.8 -31.15 4.85 -31.7 3.95 -32.2 3.6 -33.3 3.3 -34.3 3.85 -35.25 4.35 -36.2 5.45 -36.5 L5.9 -36.65 6.6 -36.6 7.4 -36.3 8.1 -35.8 8.4 -35.3 8.65 -34.75" fill="#b149d7" fill-rule="evenodd" stroke="none"/>
    <path d="M7.9 -33.85 Q8.3 -34.55 8.1 -35.35 7.9 -36.15 7.05 -36.5 L5.45 -36.65 Q4.65 -36.45 4.35 -35.75 4.1 -35.1 4.3 -34.3 4.5 -33.5 5.2 -33.1 L6.7 -32.9 Q7.5 -33.15 7.9 -33.85" fill="#cf72f0" fill-rule="evenodd" stroke="none"/>
    <path d="M5.9 -34.0 L6.0 -34.65 5.55 -35.2 4.9 -35.3 Q4.55 -35.2 4.35 -34.9 L4.3 -34.2 Q4.35 -33.85 4.7 -33.7 L5.35 -33.6 5.9 -34.0" fill="#ffffff" fill-opacity="0.49803922" fill-rule="evenodd" stroke="none"/>
  </g>
</svg>
