<?xml version="1.0" encoding="UTF-8" standalone="no"?>
<svg xmlns:xlink="http://www.w3.org/1999/xlink" height="6.6px" width="24.25px" xmlns="http://www.w3.org/2000/svg">
  <g transform="matrix(1.0, 0.0, 0.0, 1.0, -3.15, 19.9)">
    <path d="M25.5 -18.8 L25.55 -18.75 25.5 -18.7 25.65 -18.6 26.7 -17.55 Q27.25 -16.6 26.95 -15.6 26.6 -14.5 25.7 -14.0 24.75 -13.45 23.7 -13.75 22.65 -14.05 22.1 -15.0 21.55 -16.0 21.9 -17.05 L22.15 -17.6 22.3 -17.9 22.45 -18.3 22.55 -18.5 22.65 -18.65 Q23.1 -19.2 23.8 -19.25 L24.25 -19.2 25.5 -18.8" fill="#cf72f0" fill-rule="evenodd" stroke="none"/>
    <path d="M25.5 -18.8 L24.25 -19.2 23.8 -19.25 Q23.1 -19.2 22.65 -18.65 L22.55 -18.5 22.45 -18.3 22.3 -17.9 22.15 -17.6 21.9 -17.05 Q21.55 -16.0 22.1 -15.0 22.65 -14.05 23.7 -13.75 24.75 -13.45 25.7 -14.0 26.6 -14.5 26.95 -15.6 27.25 -16.6 26.7 -17.55 L25.65 -18.6 25.5 -18.7 25.55 -18.75 25.5 -18.8 Z" fill="none" stroke="#4c0e62" stroke-linecap="round" stroke-linejoin="round" stroke-width="0.75"/>
    <path d="M23.8 -19.25 L24.25 -19.2 25.5 -18.8 25.55 -18.75 25.2 -18.25 24.9 -18.55 24.85 -18.6 24.45 -18.75 Q24.15 -19.0 24.15 -18.75 L24.0 -18.7 23.8 -19.25 M25.05 -18.15 L25.2 -17.85 24.7 -17.6 24.65 -17.7 25.05 -18.15" fill="#a2a2a2" fill-rule="evenodd" stroke="none"/>
    <path d="M25.2 -18.25 L25.05 -18.15 24.65 -17.7 24.7 -17.6 24.45 -17.5 24.1 -17.3 23.4 -17.0 22.9 -16.95 22.55 -16.95 22.5 -17.2 22.45 -17.65 22.4 -17.85 22.45 -18.3 22.55 -18.5 22.65 -18.65 Q23.1 -19.2 23.8 -19.25 L24.0 -18.7 24.15 -18.75 Q24.15 -19.0 24.45 -18.75 L24.85 -18.6 24.9 -18.55 25.2 -18.25" fill="#c8c8c8" fill-rule="evenodd" stroke="none"/>
    <path d="M23.4 -17.0 L22.95 -16.75 22.9 -16.95 23.4 -17.0 M22.55 -16.95 L22.15 -17.05 22.45 -18.3 22.4 -17.85 22.45 -17.65 22.5 -17.2 22.55 -16.95" fill="#e6e6e6" fill-rule="evenodd" stroke="none"/>
    <path d="M23.15 -18.6 L23.95 -18.9 24.65 -18.95 25.1 -18.8 Q26.2 -18.5 26.7 -17.55 27.25 -16.6 26.95 -15.6 26.6 -14.5 25.7 -14.0 24.75 -13.45 23.7 -13.75 22.65 -14.05 22.1 -15.0 21.55 -16.0 21.9 -17.05 L22.15 -17.6 22.45 -18.1 23.15 -18.6" fill="#b149d7" fill-rule="evenodd" stroke="none"/>
    <path d="M22.65 -16.15 Q22.25 -16.85 22.45 -17.65 22.65 -18.45 23.35 -18.85 L24.85 -19.0 Q25.65 -18.8 26.05 -18.1 26.45 -17.4 26.25 -16.6 26.05 -15.8 25.35 -15.4 L23.85 -15.2 Q23.05 -15.45 22.65 -16.15" fill="#cf72f0" fill-rule="evenodd" stroke="none"/>
    <path d="M24.65 -16.3 L24.55 -16.95 25.0 -17.5 25.65 -17.6 Q26.0 -17.5 26.2 -17.2 L26.25 -16.5 25.85 -16.0 25.2 -15.9 Q24.85 -16.0 24.65 -16.3" fill="#ffffff" fill-opacity="0.49803922" fill-rule="evenodd" stroke="none"/>
    <path d="M5.05 -19.1 L6.3 -19.5 6.75 -19.55 Q7.45 -19.5 7.9 -18.95 L8.0 -18.8 8.1 -18.6 8.25 -18.2 8.4 -17.9 8.65 -17.35 Q9.0 -16.3 8.45 -15.3 7.9 -14.35 6.85 -14.05 5.8 -13.75 4.85 -14.3 3.95 -14.8 3.6 -15.9 3.3 -16.9 3.85 -17.85 L5.0 -19.05 5.05 -19.1" fill="#cf72f0" fill-rule="evenodd" stroke="none"/>
    <path d="M5.05 -19.1 L6.3 -19.5 6.75 -19.55 Q7.45 -19.5 7.9 -18.95 L8.0 -18.8 8.1 -18.6 8.25 -18.2 8.4 -17.9 8.65 -17.35 Q9.0 -16.3 8.45 -15.3 7.9 -14.35 6.85 -14.05 5.8 -13.75 4.85 -14.3 3.95 -14.8 3.6 -15.9 3.3 -16.9 3.85 -17.85 L5.0 -19.05" fill="none" stroke="#4c0e62" stroke-linecap="round" stroke-linejoin="round" stroke-width="0.75"/>
    <path d="M6.75 -19.55 L6.55 -19.0 6.4 -19.05 Q6.4 -19.3 6.1 -19.05 L5.7 -18.9 5.65 -18.85 5.35 -18.55 5.0 -19.05 5.05 -19.1 6.3 -19.5 6.75 -19.55 M5.5 -18.45 L5.9 -18.0 5.85 -17.9 5.35 -18.15 5.5 -18.45" fill="#a2a2a2" fill-rule="evenodd" stroke="none"/>
    <path d="M5.35 -18.55 L5.65 -18.85 5.7 -18.9 6.1 -19.05 Q6.4 -19.3 6.4 -19.05 L6.55 -19.0 6.75 -19.55 Q7.45 -19.5 7.9 -18.95 L8.0 -18.8 8.1 -18.6 8.15 -18.15 8.1 -17.95 8.05 -17.5 8.0 -17.25 7.65 -17.25 7.15 -17.3 6.45 -17.6 6.1 -17.8 5.85 -17.9 5.9 -18.0 5.5 -18.45 5.35 -18.55" fill="#c8c8c8" fill-rule="evenodd" stroke="none"/>
    <path d="M7.15 -17.3 L7.65 -17.25 7.6 -17.05 7.15 -17.3 M8.0 -17.25 L8.05 -17.5 8.1 -17.95 8.15 -18.15 8.1 -18.6 8.4 -17.35 8.0 -17.25" fill="#e6e6e6" fill-rule="evenodd" stroke="none"/>
    <path d="M5.9 -19.25 L6.6 -19.2 7.4 -18.9 8.1 -18.4 8.4 -17.9 8.65 -17.35 Q9.0 -16.3 8.45 -15.3 7.9 -14.35 6.85 -14.05 5.8 -13.75 4.85 -14.3 3.95 -14.8 3.6 -15.9 3.3 -16.9 3.85 -17.85 4.35 -18.8 5.45 -19.1 L5.9 -19.25" fill="#b149d7" fill-rule="evenodd" stroke="none"/>
    <path d="M7.9 -16.45 Q8.3 -17.15 8.1 -17.95 7.9 -18.75 7.05 -19.1 L5.45 -19.25 Q4.65 -19.05 4.35 -18.35 4.1 -17.7 4.3 -16.9 4.5 -16.1 5.2 -15.7 L6.7 -15.5 Q7.5 -15.75 7.9 -16.45" fill="#cf72f0" fill-rule="evenodd" stroke="none"/>
    <path d="M5.9 -16.6 L6.0 -17.25 5.55 -17.8 4.9 -17.9 Q4.55 -17.8 4.35 -17.5 L4.3 -16.8 Q4.35 -16.45 4.7 -16.3 L5.35 -16.2 5.9 -16.6" fill="#ffffff" fill-opacity="0.49803922" fill-rule="evenodd" stroke="none"/>
  </g>
</svg>
