<?xml version="1.0" encoding="UTF-8" standalone="no"?>
<svg xmlns:xlink="http://www.w3.org/1999/xlink" height="6.6px" width="24.25px" xmlns="http://www.w3.org/2000/svg">
  <g transform="matrix(1.0, 0.0, 0.0, 1.0, -3.15, 11.65)">
    <path d="M25.5 -10.55 L25.55 -10.5 25.5 -10.45 25.65 -10.35 26.7 -9.3 Q27.25 -8.35 26.95 -7.35 26.6 -6.25 25.7 -5.75 24.75 -5.2 23.7 -5.5 22.65 -5.8 22.1 -6.75 21.55 -7.75 21.9 -8.8 L22.15 -9.35 22.3 -9.65 22.45 -10.05 22.55 -10.25 22.65 -10.4 Q23.1 -10.95 23.8 -11.0 L24.25 -10.95 25.5 -10.55" fill="#cf72f0" fill-rule="evenodd" stroke="none"/>
    <path d="M25.5 -10.55 L24.25 -10.95 23.8 -11.0 Q23.1 -10.95 22.65 -10.4 L22.55 -10.25 22.45 -10.05 22.3 -9.65 22.15 -9.35 21.9 -8.8 Q21.55 -7.75 22.1 -6.75 22.65 -5.8 23.7 -5.5 24.75 -5.2 25.7 -5.75 26.6 -6.25 26.95 -7.35 27.25 -8.35 26.7 -9.3 L25.65 -10.35 25.5 -10.45 25.55 -10.5 25.5 -10.55 Z" fill="none" stroke="#4c0e62" stroke-linecap="round" stroke-linejoin="round" stroke-width="0.75"/>
    <path d="M23.8 -11.0 L24.25 -10.95 25.5 -10.55 25.55 -10.5 25.2 -10.0 24.9 -10.3 24.85 -10.35 24.45 -10.5 Q24.15 -10.75 24.15 -10.5 L24.0 -10.45 23.8 -11.0 M25.05 -9.9 L25.2 -9.6 24.7 -9.35 24.65 -9.45 25.05 -9.9" fill="#a2a2a2" fill-rule="evenodd" stroke="none"/>
    <path d="M25.2 -10.0 L25.05 -9.9 24.65 -9.45 24.7 -9.35 24.45 -9.25 24.1 -9.05 23.4 -8.75 22.9 -8.7 22.55 -8.7 22.5 -8.95 22.45 -9.4 22.4 -9.6 22.45 -10.05 22.55 -10.25 22.65 -10.4 Q23.1 -10.95 23.8 -11.0 L24.0 -10.45 24.15 -10.5 Q24.15 -10.75 24.45 -10.5 L24.85 -10.35 24.9 -10.3 25.2 -10.0" fill="#c8c8c8" fill-rule="evenodd" stroke="none"/>
    <path d="M23.4 -8.75 L22.95 -8.5 22.9 -8.7 23.4 -8.75 M22.55 -8.7 L22.15 -8.8 22.45 -10.05 22.4 -9.6 22.45 -9.4 22.5 -8.95 22.55 -8.7" fill="#e6e6e6" fill-rule="evenodd" stroke="none"/>
    <path d="M26.7 -9.3 Q27.25 -8.35 26.95 -7.35 26.6 -6.25 25.7 -5.75 24.75 -5.2 23.7 -5.5 22.65 -5.8 22.1 -6.75 21.55 -7.75 21.9 -8.8 L22.15 -9.35 22.45 -9.85 23.15 -10.35 23.95 -10.65 24.65 -10.7 25.1 -10.55 Q26.2 -10.25 26.7 -9.3" fill="#b149d7" fill-rule="evenodd" stroke="none"/>
    <path d="M22.65 -7.9 Q22.25 -8.6 22.45 -9.4 22.65 -10.2 23.35 -10.6 L24.85 -10.75 Q25.65 -10.55 26.05 -9.85 26.45 -9.15 26.25 -8.35 26.05 -7.55 25.35 -7.15 L23.85 -6.95 Q23.05 -7.2 22.65 -7.9" fill="#cf72f0" fill-rule="evenodd" stroke="none"/>
    <path d="M24.65 -8.05 L24.55 -8.7 25.0 -9.25 25.65 -9.35 Q26.0 -9.25 26.2 -8.95 L26.25 -8.25 25.85 -7.75 25.2 -7.65 Q24.85 -7.75 24.65 -8.05" fill="#ffffff" fill-opacity="0.49803922" fill-rule="evenodd" stroke="none"/>
    <path d="M5.05 -10.85 L6.3 -11.25 6.75 -11.3 Q7.45 -11.25 7.9 -10.7 L8.0 -10.55 8.1 -10.35 8.25 -9.95 8.4 -9.65 8.65 -9.1 Q9.0 -8.05 8.45 -7.05 7.9 -6.1 6.85 -5.8 5.8 -5.5 4.85 -6.05 3.95 -6.55 3.6 -7.65 3.3 -8.65 3.85 -9.6 L5.0 -10.8 5.05 -10.85" fill="#cf72f0" fill-rule="evenodd" stroke="none"/>
    <path d="M5.05 -10.85 L6.3 -11.25 6.75 -11.3 Q7.45 -11.25 7.9 -10.7 L8.0 -10.55 8.1 -10.35 8.25 -9.95 8.4 -9.65 8.65 -9.1 Q9.0 -8.05 8.45 -7.05 7.9 -6.1 6.85 -5.8 5.8 -5.5 4.85 -6.05 3.95 -6.55 3.6 -7.65 3.3 -8.65 3.85 -9.6 L5.0 -10.8" fill="none" stroke="#4c0e62" stroke-linecap="round" stroke-linejoin="round" stroke-width="0.75"/>
    <path d="M8.1 -10.35 L8.15 -9.9 8.1 -9.7 8.05 -9.25 8.0 -9.0 7.65 -9.0 7.15 -9.05 6.45 -9.35 6.1 -9.55 5.85 -9.65 5.9 -9.75 5.5 -10.2 5.35 -10.3 5.65 -10.6 5.7 -10.65 6.1 -10.8 Q6.4 -11.05 6.4 -10.8 L6.55 -10.75 6.75 -11.3 Q7.45 -11.25 7.9 -10.7 L8.0 -10.55 8.1 -10.35" fill="#c8c8c8" fill-rule="evenodd" stroke="none"/>
    <path d="M8.0 -9.0 L8.05 -9.25 8.1 -9.7 8.15 -9.9 8.1 -10.35 8.4 -9.1 8.0 -9.0 M7.15 -9.05 L7.65 -9.0 7.6 -8.8 7.15 -9.05" fill="#e6e6e6" fill-rule="evenodd" stroke="none"/>
    <path d="M6.75 -11.3 L6.55 -10.75 6.4 -10.8 Q6.4 -11.05 6.1 -10.8 L5.7 -10.65 5.65 -10.6 5.35 -10.3 5.0 -10.8 5.05 -10.85 6.3 -11.25 6.75 -11.3 M5.5 -10.2 L5.9 -9.75 5.85 -9.65 5.35 -9.9 5.5 -10.2" fill="#a2a2a2" fill-rule="evenodd" stroke="none"/>
    <path d="M8.4 -9.65 L8.65 -9.1 Q9.0 -8.05 8.45 -7.05 7.9 -6.1 6.85 -5.8 5.8 -5.5 4.85 -6.05 3.95 -6.55 3.6 -7.65 3.3 -8.65 3.85 -9.6 4.35 -10.55 5.45 -10.85 L5.9 -11.0 6.6 -10.95 7.4 -10.65 8.1 -10.15 8.4 -9.65" fill="#b149d7" fill-rule="evenodd" stroke="none"/>
    <path d="M7.9 -8.2 Q8.3 -8.9 8.1 -9.7 7.9 -10.5 7.05 -10.85 L5.45 -11.0 Q4.65 -10.8 4.35 -10.1 4.1 -9.45 4.3 -8.65 4.5 -7.85 5.2 -7.45 L6.7 -7.25 Q7.5 -7.5 7.9 -8.2" fill="#cf72f0" fill-rule="evenodd" stroke="none"/>
    <path d="M5.9 -8.35 L6.0 -9.0 5.55 -9.55 4.9 -9.65 Q4.55 -9.55 4.35 -9.25 L4.3 -8.55 Q4.35 -8.2 4.7 -8.05 L5.35 -7.95 5.9 -8.35" fill="#ffffff" fill-opacity="0.49803922" fill-rule="evenodd" stroke="none"/>
  </g>
</svg>
