<?xml version="1.0" encoding="UTF-8" standalone="no"?>
<svg xmlns:xlink="http://www.w3.org/1999/xlink" height="27.3px" width="13.65px" xmlns="http://www.w3.org/2000/svg">
  <g transform="matrix(1.0, 0.0, 0.0, 1.0, -1.4, -3.45)">
    <path d="M14.0 10.0 Q13.6 14.4 13.65 16.0 L14.1 19.7 Q14.35 22.35 14.1 22.85 13.85 24.0 12.4 24.9 11.0 25.75 8.9 25.85 6.9 25.9 5.5 25.2 4.15 24.45 3.75 23.3 L3.65 22.95 Q3.5 22.6 3.5 20.85 L3.3 17.25 2.65 11.75 Q2.3 8.75 2.6 8.2 L14.0 6.1 Q14.25 6.7 14.0 10.0" fill="#ceb27a" fill-rule="evenodd" stroke="none"/>
    <path d="M11.5 8.9 L8.2 9.7 8.2 25.85 10.75 25.5 11.85 25.1 11.25 17.65 11.5 8.9" fill="#aa8052" fill-rule="evenodd" stroke="none"/>
    <path d="M8.3 9.2 L4.75 9.0 5.55 25.35 7.8 25.8 9.05 25.85 8.4 18.45 8.3 9.2" fill="#9e6720" fill-rule="evenodd" stroke="none"/>
    <path d="M5.2 9.35 L1.95 7.6 3.25 17.3 Q3.15 18.15 3.2 20.2 L3.25 22.2 Q3.9 23.95 4.4 24.6 4.65 24.9 6.0 25.65 L5.2 9.35" fill="#7f4f08" fill-rule="evenodd" stroke="none"/>
    <path d="M7.4 12.7 Q5.8 12.75 3.85 11.3 L2.25 9.75 Q2.1 11.1 2.3 12.7 2.9 13.9 4.65 14.65 6.4 15.35 8.5 15.25 10.55 15.1 12.1 14.35 13.65 13.6 14.3 12.35 L14.5 10.95 14.3 10.05 Q14.45 11.75 12.15 12.3 L7.4 12.7" fill="#7f4f08" fill-rule="evenodd" stroke="none"/>
    <path d="M14.05 20.45 Q14.15 22.0 12.1 22.4 L7.7 22.7 Q6.05 22.8 4.35 21.35 L3.05 19.95 Q3.0 20.5 3.45 22.8 4.9 25.35 8.75 25.2 12.85 24.9 14.15 22.55 L14.25 21.25 14.05 20.45" fill="#7f4f08" fill-rule="evenodd" stroke="none"/>
    <path d="M14.45 10.45 L14.25 9.55 12.9 10.8 Q11.25 12.15 9.5 12.25 6.75 12.45 5.85 12.2 4.1 11.8 2.2 9.6 2.05 11.55 2.2 12.15 2.85 13.4 4.55 14.1 6.3 14.85 8.4 14.75 10.4 14.6 12.05 13.8 13.55 13.05 14.25 11.85 L14.45 10.45" fill="#bcbcbc" fill-rule="evenodd" stroke="none"/>
    <path d="M12.0 4.8 Q10.2 4.05 7.75 4.2 5.25 4.35 3.6 5.15 1.8 6.05 1.9 7.15 1.95 8.2 3.8 8.95 5.6 9.6 8.1 9.5 10.6 9.4 12.3 8.5 13.95 7.65 13.9 6.55 13.8 5.45 12.0 4.8" fill="#ba9552" fill-rule="evenodd" stroke="none"/>
    <path d="M12.7 14.4 Q13.75 18.9 13.4 20.9 13.0 22.8 11.85 23.55 12.4 22.1 12.7 19.55 12.9 17.05 12.7 14.4" fill="#ffffff" fill-rule="evenodd" stroke="none"/>
    <path d="M14.15 22.15 L14.45 20.8 Q14.5 19.7 14.1 18.9 L14.15 19.45 14.1 20.0 Q12.75 22.35 8.95 22.5 7.1 22.6 5.3 21.65 3.65 20.7 3.0 19.45 3.1 21.8 3.35 22.4 3.95 23.55 5.45 24.15 6.95 24.85 8.95 24.7 12.8 24.55 14.15 22.15" fill="#bcbcbc" fill-rule="evenodd" stroke="none"/>
    <path d="M14.1 20.0 L14.3 19.0 14.25 18.55 Q14.2 19.75 12.7 20.7 10.95 21.8 8.8 21.9 6.9 22.0 5.15 21.15 3.7 20.5 3.0 19.45 L3.1 20.05 Q3.7 21.25 5.35 21.95 L8.95 22.5 Q12.75 22.35 14.1 20.0" fill="#e2e2e2" fill-rule="evenodd" stroke="none"/>
    <path d="M2.2 9.65 Q2.15 10.3 2.25 10.2 2.8 11.3 4.7 11.9 L8.4 12.45 Q10.35 12.3 11.95 11.55 13.7 10.75 14.2 9.65 14.4 9.4 14.2 8.95 L14.05 8.55 13.9 8.45 Q13.95 9.65 12.2 10.7 10.45 11.75 8.2 11.8 6.3 11.95 4.5 11.25 2.9 10.55 2.2 9.65" fill="#e2e2e2" fill-rule="evenodd" stroke="none"/>
    <path d="M14.25 9.55 Q13.85 10.9 11.7 11.75 L11.75 13.95 Q12.85 13.5 13.95 12.2 14.8 11.25 14.25 9.55" fill="#ffffff" fill-rule="evenodd" stroke="none"/>
    <path d="M14.3 19.75 Q13.85 21.15 12.25 21.8 L12.25 24.0 13.15 23.45 14.0 22.45 Q14.5 21.85 14.45 20.75 14.3 20.25 14.3 19.75" fill="#ffffff" fill-rule="evenodd" stroke="none"/>
    <path d="M12.75 5.05 Q14.0 6.1 13.4 7.3 12.95 8.05 11.1 8.85 L9.3 9.45 11.7 8.95 Q13.6 8.3 14.05 7.25 14.35 6.45 13.6 5.65 L12.75 5.05" fill="#ffe8c0" fill-rule="evenodd" stroke="none"/>
    <path d="M2.2 10.1 Q2.9 11.4 4.65 11.95 L6.25 12.3 6.5 14.6 Q4.45 14.4 3.3 13.4 L2.35 12.15 Q2.15 11.65 2.2 10.1" fill="#6d6d6d" fill-rule="evenodd" stroke="none"/>
    <path d="M2.45 10.55 L2.25 9.75 2.3 12.35 2.75 13.0 3.35 13.55 3.95 13.8 3.8 11.55 2.45 10.55" fill="#474747" fill-rule="evenodd" stroke="none"/>
    <path d="M12.75 21.8 L12.75 22.5 13.4 22.8 14.05 22.4 13.95 21.65 13.3 21.4 12.75 21.8" fill="#000000" fill-rule="evenodd" stroke="none"/>
    <path d="M3.0 19.65 L3.3 22.2 Q4.25 24.3 7.3 24.65 L7.15 22.5 5.5 22.1 Q3.7 21.3 3.0 19.65" fill="#6d6d6d" fill-rule="evenodd" stroke="none"/>
    <path d="M4.4 23.7 L4.85 23.9 4.6 21.6 3.95 21.1 3.35 20.45 3.0 19.65 3.4 22.6 4.4 23.7" fill="#474747" fill-rule="evenodd" stroke="none"/>
    <path d="M8.25 23.85 L8.55 24.5 9.3 24.6 9.8 23.9 9.45 23.2 8.7 23.15 8.25 23.85" fill="#000000" fill-rule="evenodd" stroke="none"/>
    <path d="M5.9 24.35 L5.7 22.1 5.15 21.95 5.35 24.15 5.9 24.35" fill="#474747" fill-rule="evenodd" stroke="none"/>
    <path d="M11.45 14.1 L11.3 11.85 10.65 12.05 10.75 14.35 11.45 14.1" fill="#ffffff" fill-rule="evenodd" stroke="none"/>
    <path d="M11.95 24.05 L11.85 21.9 11.25 22.2 11.35 24.3 Q11.6 24.15 11.95 24.05" fill="#ffffff" fill-rule="evenodd" stroke="none"/>
    <path d="M10.3 14.45 L10.15 12.2 9.6 12.35 9.8 14.55 10.3 14.45" fill="#ffffff" fill-rule="evenodd" stroke="none"/>
    <path d="M10.85 24.45 L10.7 22.3 10.2 22.4 10.35 24.55 10.85 24.45" fill="#ffffff" fill-rule="evenodd" stroke="none"/>
    <path d="M7.4 14.8 L6.95 14.75 6.8 12.4 7.3 12.4 7.4 14.8" fill="#6d6d6d" fill-rule="evenodd" stroke="none"/>
    <path d="M8.25 24.7 L8.0 22.6 7.55 22.5 7.7 24.65 8.25 24.7" fill="#6d6d6d" fill-rule="evenodd" stroke="none"/>
    <path d="M4.9 14.25 L4.7 11.8 4.2 11.55 4.4 14.1 4.9 14.25" fill="#474747" fill-rule="evenodd" stroke="none"/>
    <path d="M12.85 11.3 L12.9 12.05 13.55 12.3 14.1 11.95 14.05 11.25 13.45 10.95 12.85 11.3" fill="#000000" fill-rule="evenodd" stroke="none"/>
    <path d="M7.8 13.75 L8.1 14.4 8.85 14.45 9.35 13.8 9.05 13.1 8.2 13.1 7.8 13.75" fill="#000000" fill-rule="evenodd" stroke="none"/>
    <path d="M5.7 7.5 Q6.5 8.2 8.3 7.95 9.85 7.7 10.85 7.05 11.85 6.4 11.0 5.55 10.5 5.0 9.35 4.8 8.15 4.65 7.4 5.15 L7.0 5.7 Q6.9 6.0 7.15 6.25 7.45 6.6 7.95 6.6 L8.6 6.4 8.75 6.05" fill="none" stroke="#603200" stroke-linecap="round" stroke-linejoin="round" stroke-width="0.05"/>
    <path d="M10.6 17.95 L10.65 28.8 6.2 28.85 6.15 18.0 10.6 17.95" fill="#9e6720" fill-rule="evenodd" stroke="none"/>
    <path d="M10.15 29.6 Q9.5 30.15 8.6 30.15 7.65 30.15 7.0 29.65 6.3 29.15 6.3 28.45 6.3 27.75 7.0 27.25 7.65 26.75 8.6 26.75 9.5 26.75 10.15 27.2 10.85 27.7 10.85 28.4 10.85 29.1 10.15 29.6" fill="#9e6720" fill-rule="evenodd" stroke="none"/>
    <path d="M10.1 19.6 Q9.45 20.15 8.55 20.15 7.6 20.15 6.95 19.65 6.25 19.15 6.25 18.45 6.25 17.75 6.95 17.25 7.6 16.75 8.55 16.75 9.45 16.75 10.1 17.2 10.8 17.7 10.8 18.4 10.8 19.1 10.1 19.6" fill="#9e6720" fill-rule="evenodd" stroke="none"/>
    <path d="M9.05 16.8 L8.45 16.4 Q9.25 16.4 9.95 17.0 L10.6 17.65 10.6 17.8 10.65 18.2 10.65 18.65 10.65 27.8 10.75 28.25 Q10.7 28.95 10.05 29.5 9.35 29.9 8.45 29.9 L7.2 29.7 7.55 29.7 9.2 29.25 Q9.8 28.75 9.85 28.05 L9.75 27.6 9.75 18.4 9.75 17.95 9.7 17.6 9.7 17.4 9.05 16.8" fill="#724416" fill-rule="evenodd" stroke="none"/>
    <path d="M7.55 17.45 L7.05 18.2 6.9 18.2 6.95 29.05 7.15 29.05 7.5 29.75 6.85 29.5 Q6.4 29.15 6.4 28.6 L6.2 28.6 6.15 17.75 6.3 17.75 6.75 17.0 Q7.5 16.5 8.35 16.45 9.25 16.45 10.0 17.0 L10.1 17.05 9.2 16.9 Q8.3 16.95 7.55 17.45" fill="#aa8052" fill-rule="evenodd" stroke="none"/>
    <path d="M9.9 29.7 Q9.25 30.3 8.35 30.3 7.4 30.3 6.75 29.75 6.05 29.25 6.05 28.5 6.05 27.8 6.75 27.25 7.4 26.7 8.35 26.7 9.25 26.7 9.9 27.2 10.6 27.75 10.6 28.45 10.6 29.2 9.9 29.7" fill="#95591e" fill-rule="evenodd" stroke="none"/>
    <path d="M3.45 11.6 L3.55 12.45 3.15 12.9 2.7 12.55 2.6 11.75 3.0 11.3 3.45 11.6" fill="#000000" fill-rule="evenodd" stroke="none"/>
    <path d="M4.35 21.7 L4.45 22.55 4.05 23.0 3.6 22.65 3.5 21.85 3.9 21.4 4.35 21.7" fill="#000000" fill-rule="evenodd" stroke="none"/>
    <path d="M13.85 6.0 Q14.4 6.85 14.15 7.65 L14.0 9.0 14.3 10.0 14.35 11.05 14.2 12.4 13.55 13.2 13.55 14.9 13.55 15.0 13.7 16.7 13.75 17.1 13.8 17.55 13.95 19.3 Q14.8 20.25 14.45 21.6 L13.9 22.85 Q13.7 24.1 12.3 24.9 L11.7 25.15 10.8 25.55 10.8 28.25 10.75 28.45 10.75 28.6 10.75 28.7 10.1 29.7 9.6 30.0 8.4 30.25 Q7.5 30.25 6.75 29.75 6.15 29.25 6.15 28.6 L6.05 28.6 6.0 25.7 Q4.25 24.9 3.7 24.05 3.4 23.6 3.25 22.35 2.5 21.45 2.75 20.3 L3.15 19.3 3.15 17.75 3.1 17.3 2.95 14.4 2.8 13.55 2.35 12.9 2.05 12.15 Q1.9 11.7 2.05 10.2 2.25 9.2 1.95 7.85 L1.9 7.55 Q1.8 6.2 3.55 5.05 5.3 4.2 7.85 3.95 10.35 3.85 12.2 4.7 L13.85 6.0 Z" fill="none" stroke="#453129" stroke-linecap="round" stroke-linejoin="round" stroke-width="1.0"/>
  </g>
</svg>
