<?xml version="1.0" encoding="UTF-8" standalone="no"?>
<svg xmlns:xlink="http://www.w3.org/1999/xlink" height="20.7px" width="13.3px" xmlns="http://www.w3.org/2000/svg">
  <g transform="matrix(1.0, 0.0, 0.0, 1.0, -1.5, -14.25)">
    <path d="M13.8 15.05 L13.8 15.1 13.85 18.7 Q13.45 23.2 13.5 24.85 L13.8 26.8 13.95 28.6 14.05 29.9 14.15 31.8 14.15 32.75 Q13.4 34.25 9.4 34.45 5.75 34.6 4.1 33.8 L3.85 33.0 3.8 32.75 Q3.65 31.8 3.65 30.65 L3.65 30.55 3.5 27.55 3.5 26.8 3.4 26.15 2.8 20.5 2.35 16.45 2.2 15.3 3.8 14.95 7.85 14.75 Q10.3 14.7 12.1 14.8 L13.8 15.05" fill="#ceb27a" fill-rule="evenodd" stroke="none"/>
    <path d="M11.45 16.6 L11.2 26.5 11.75 33.3 11.7 33.35 11.8 34.25 8.15 34.4 8.15 15.3 11.55 15.1 11.4 16.6 11.45 16.6" fill="#aa8052" fill-rule="evenodd" stroke="none"/>
    <path d="M8.45 15.1 L8.45 27.4 8.9 33.7 8.95 34.4 5.65 34.25 5.25 27.95 5.3 27.95 5.25 27.2 4.45 15.1 Q6.45 14.7 8.45 15.1" fill="#9e6720" fill-rule="evenodd" stroke="none"/>
    <path d="M2.1 15.15 Q4.05 14.65 5.9 15.1 L5.9 25.6 5.9 26.35 6.0 33.45 6.0 34.2 Q4.45 34.05 4.1 33.7 L3.35 31.85 Q3.25 31.5 3.3 30.4 L3.3 29.55 3.25 27.95 3.3 26.5 3.3 26.35 3.35 26.35 3.35 26.15 3.3 25.6 2.1 15.15" fill="#7f4f08" fill-rule="evenodd" stroke="none"/>
    <path d="M12.95 32.1 Q13.2 30.55 13.15 25.6 13.9 30.9 13.4 32.7 13.1 33.6 11.9 34.05 12.7 33.5 12.95 32.1" fill="#ffffff" fill-rule="evenodd" stroke="none"/>
    <path d="M12.15 14.85 L7.9 14.75 3.7 14.95 2.1 15.2 3.95 15.45 8.25 15.55 12.4 15.4 14.0 15.1 12.15 14.85" fill="#ba9552" fill-rule="evenodd" stroke="none"/>
    <path d="M12.5 14.9 Q13.7 15.0 13.15 15.2 L10.85 15.45 9.1 15.55 11.45 15.4 13.75 15.2 Q14.05 15.05 13.35 14.95 L12.5 14.9" fill="#ffe8c0" fill-rule="evenodd" stroke="none"/>
    <path d="M5.9 15.25 L8.4 15.3 10.95 15.2 Q11.95 15.1 11.1 14.95 L9.45 14.85 7.6 14.9 7.15 15.0 7.3 15.05 8.05 15.1 8.7 15.1 8.85 15.0" fill="none" stroke="#603200" stroke-linecap="round" stroke-linejoin="round" stroke-width="0.05"/>
    <path d="M6.3 21.8 L7.0 21.8 7.4 21.8 7.9 21.8 9.85 21.75 10.45 21.65 11.05 21.6 11.75 21.5 12.3 21.4 13.7 21.1 14.25 19.75 Q14.3 20.7 13.7 21.5 L12.3 21.8 11.75 21.9 11.05 22.0 10.45 22.05 9.85 22.1 7.9 22.2 7.4 22.2 7.0 22.2 6.3 22.2 5.0 22.15 4.45 22.1 3.85 22.0 2.6 21.75 Q1.95 20.7 2.0 19.75 2.05 20.5 2.6 21.35 L3.85 21.6 4.45 21.7 5.0 21.75 6.3 21.8" fill="#7f4f08" fill-rule="evenodd" stroke="none"/>
    <path d="M7.0 17.9 L7.4 17.9 9.85 17.85 10.45 17.85 11.05 17.8 11.75 17.75 12.3 17.7 13.85 17.55 Q14.3 18.55 14.25 19.35 L13.85 17.95 12.3 18.1 11.75 18.15 11.05 18.2 10.45 18.25 9.85 18.25 7.4 18.3 7.0 18.3 6.3 18.3 5.05 18.25 4.45 18.25 3.7 18.25 2.35 18.2 2.0 19.35 Q1.95 18.55 2.35 17.8 L3.7 17.85 4.45 17.9 5.05 17.9 6.3 17.9 7.0 17.9" fill="#e2e2e2" fill-rule="evenodd" stroke="none"/>
    <path d="M6.3 18.3 L7.0 18.3 7.0 21.85 6.3 21.85 6.3 18.3 M7.4 18.3 L9.85 18.25 9.85 21.75 7.95 21.85 7.4 21.85 7.4 18.3 M10.45 18.25 L11.1 18.2 11.1 21.65 10.45 21.7 10.45 18.25 M11.75 18.15 L12.35 18.15 12.35 21.45 11.75 21.55 11.75 18.15" fill="#bcbcbc" fill-rule="evenodd" stroke="none"/>
    <path d="M7.0 18.3 L7.4 18.3 7.4 21.85 7.0 21.85 7.0 18.3 M6.3 21.85 L5.0 21.8 5.05 18.3 6.3 18.3 6.3 21.85 M4.5 21.75 L3.85 21.65 3.7 18.25 4.5 18.3 4.5 21.75" fill="#6d6d6d" fill-rule="evenodd" stroke="none"/>
    <path d="M5.0 21.8 L4.5 21.75 4.5 18.3 5.05 18.3 5.0 21.8 M3.85 21.65 L2.6 21.35 Q1.55 19.75 2.35 18.2 L3.7 18.25 3.85 21.65" fill="#474747" fill-rule="evenodd" stroke="none"/>
    <path d="M9.85 18.25 L10.45 18.25 10.45 21.7 9.85 21.75 9.85 18.25 M11.1 18.2 L11.75 18.15 11.75 21.55 11.1 21.65 11.1 18.2 M12.35 18.15 L13.85 18.0 Q14.75 19.8 13.75 21.15 L12.35 21.45 12.35 18.15" fill="#ffffff" fill-rule="evenodd" stroke="none"/>
    <path d="M8.15 19.3 L9.15 19.25 9.6 20.1 9.1 20.85 8.1 20.85 7.6 20.1 8.15 19.3" fill="#000000" fill-rule="evenodd" stroke="none"/>
    <path d="M2.95 19.1 L3.3 19.85 3.05 20.45 2.5 20.3 2.2 19.5 2.4 18.95 2.95 19.1" fill="#000000" fill-rule="evenodd" stroke="none"/>
    <path d="M14.0 19.5 L13.7 20.35 13.0 20.5 12.75 19.8 13.05 18.95 13.7 18.8 14.0 19.5" fill="#000000" fill-rule="evenodd" stroke="none"/>
    <path d="M12.45 33.3 L11.9 33.4 11.3 33.5 10.7 33.55 10.15 33.55 8.4 33.65 7.9 33.65 7.5 33.65 6.8 33.65 5.65 33.6 5.15 33.55 4.55 33.5 Q4.05 33.4 3.6 33.0 L4.55 33.1 5.15 33.2 5.65 33.25 6.8 33.3 7.5 33.3 7.9 33.3 8.4 33.3 10.15 33.25 10.7 33.15 11.3 33.1 11.9 33.1 12.45 33.0 13.5 32.8 12.45 33.3" fill="#7f4f08" fill-rule="evenodd" stroke="none"/>
    <path d="M7.5 29.85 L7.9 29.85 10.15 29.75 10.7 29.75 11.3 29.75 11.9 29.7 12.45 29.65 13.85 29.55 Q14.3 30.4 14.25 31.15 L13.85 29.9 12.45 30.0 11.9 30.05 11.3 30.1 10.7 30.1 10.15 30.1 7.9 30.2 7.5 30.2 6.85 30.2 5.65 30.15 5.15 30.15 4.4 30.1 3.15 30.1 2.85 31.15 Q2.8 30.4 3.15 29.75 L4.4 29.75 5.15 29.8 5.65 29.8 6.85 29.85 7.5 29.85" fill="#e2e2e2" fill-rule="evenodd" stroke="none"/>
    <path d="M10.15 30.1 L10.7 30.1 10.7 33.15 10.15 33.25 10.15 30.1 M11.3 30.1 L11.9 30.05 11.9 33.05 11.3 33.15 11.3 30.1 M12.45 30.0 L13.85 29.9 Q14.7 31.5 13.75 32.7 L12.45 32.95 12.45 30.0" fill="#ffffff" fill-rule="evenodd" stroke="none"/>
    <path d="M10.7 30.1 L11.3 30.1 11.3 33.15 10.7 33.15 10.7 30.1 M11.9 30.05 L12.45 30.0 12.45 32.95 11.9 33.05 11.9 30.05 M10.15 33.25 L8.35 33.3 7.9 33.3 7.9 30.2 10.15 30.1 10.15 33.25 M7.5 33.3 L6.85 33.3 6.85 30.2 7.5 30.2 7.5 33.3" fill="#bcbcbc" fill-rule="evenodd" stroke="none"/>
    <path d="M7.9 33.3 L7.5 33.3 7.5 30.2 7.9 30.2 7.9 33.3 M6.85 33.3 L5.65 33.3 5.65 30.15 6.85 30.2 6.85 33.3 M5.15 33.2 L4.55 33.15 4.4 30.1 5.15 30.15 5.15 33.2" fill="#6d6d6d" fill-rule="evenodd" stroke="none"/>
    <path d="M5.65 33.3 L5.15 33.2 5.15 30.15 5.65 30.15 5.65 33.3 M4.55 33.15 L3.4 32.9 Q2.4 31.45 3.15 30.1 L4.4 30.1 4.55 33.15" fill="#474747" fill-rule="evenodd" stroke="none"/>
    <path d="M8.5 31.2 L9.45 31.15 9.95 31.9 9.4 32.6 8.45 32.65 8.1 31.9 8.5 31.2" fill="#000000" fill-rule="evenodd" stroke="none"/>
    <path d="M3.7 30.95 L4.05 31.6 3.85 32.1 3.35 31.95 3.05 31.3 3.25 30.85 3.7 30.95" fill="#000000" fill-rule="evenodd" stroke="none"/>
    <path d="M14.0 31.35 L13.75 32.15 13.1 32.25 12.8 31.65 13.1 30.9 13.7 30.75 14.0 31.35" fill="#000000" fill-rule="evenodd" stroke="none"/>
    <path d="M8.3 23.6 Q9.05 23.55 9.65 24.1 L10.25 25.05 10.3 25.3 10.25 25.45 10.25 25.5 Q10.25 26.2 9.65 26.85 9.1 27.4 8.3 27.45 7.55 27.45 7.0 26.9 6.4 26.35 6.4 25.55 6.4 24.7 6.95 24.25 7.55 23.6 8.3 23.6" fill="#9e6720" fill-rule="evenodd" stroke="none"/>
    <path d="M10.5 28.3 L6.3 28.35 6.45 25.4 10.3 25.4 10.5 28.3" fill="#9e6720" fill-rule="evenodd" stroke="none"/>
    <path d="M9.65 24.1 L10.2 25.0 10.25 25.15 10.65 27.5 Q9.5 29.1 8.8 29.3 9.35 29.1 9.75 26.8 9.8 25.9 9.45 25.15 8.8 23.6 6.95 24.25 7.55 23.6 8.3 23.6 9.05 23.55 9.65 24.1" fill="#724416" fill-rule="evenodd" stroke="none"/>
    <path d="M8.0 24.0 Q6.8 24.55 7.0 26.9 7.35 29.5 7.55 29.5 7.2 29.5 6.75 29.05 6.1 28.35 6.05 27.4 L6.4 25.75 6.4 25.55 Q6.4 24.7 6.95 24.25 7.55 23.6 8.3 23.6 9.05 23.55 9.65 24.1 L8.0 24.0" fill="#aa8052" fill-rule="evenodd" stroke="none"/>
    <path d="M10.0 29.2 Q9.3 29.9 8.3 29.95 7.4 29.95 6.7 29.3 6.0 28.6 6.0 27.6 6.0 26.65 6.65 26.0 7.4 25.25 8.3 25.25 9.25 25.15 9.95 25.9 10.7 26.65 10.7 27.55 10.7 28.45 10.0 29.2" fill="#95591e" fill-rule="evenodd" stroke="none"/>
    <path d="M5.95 14.8 L3.7 14.9 2.05 15.2 2.1 15.25 2.45 17.8 2.35 17.8 Q2.0 18.55 2.0 19.3 L2.0 19.75 Q1.95 20.55 2.45 21.4 L2.6 21.7 2.9 21.8 3.3 25.6 3.35 26.15 3.35 26.35 3.3 26.35 3.3 26.5 3.25 27.95 3.3 29.55 3.3 29.75 3.2 29.75 Q2.85 30.4 2.9 31.15 2.8 32.0 3.4 32.95 L3.8 33.0 3.8 33.05 3.6 33.0 3.85 33.2 3.95 33.45 4.1 33.8 Q5.75 34.6 9.4 34.45 L10.95 34.3 11.8 34.25 11.8 34.15 Q13.65 33.7 14.15 32.75 L14.15 32.1 14.3 31.15 14.05 29.9 13.95 28.6 13.8 26.8 13.5 24.85 13.65 21.55 13.75 21.5 Q14.3 20.7 14.3 19.75 L14.3 19.3 13.85 17.6 13.85 17.55 13.75 15.1 12.1 14.8 12.05 14.8 Q10.3 14.7 7.85 14.75 L5.95 14.8 Z" fill="none" stroke="#453129" stroke-linecap="round" stroke-linejoin="round" stroke-width="1.0"/>
  </g>
</svg>
