<?xml version="1.0" encoding="UTF-8" standalone="no"?>
<svg xmlns:xlink="http://www.w3.org/1999/xlink" height="20.7px" width="13.3px" xmlns="http://www.w3.org/2000/svg">
  <g transform="matrix(1.0, 0.0, 0.0, 1.0, -1.75, -18.25)">
    <path d="M3.45 19.2 L5.3 19.05 8.15 18.85 11.7 18.95 13.45 19.2 13.7 19.25 13.75 19.5 13.75 22.9 Q13.35 27.25 13.4 28.85 L13.7 30.75 13.85 32.45 13.95 33.75 14.0 35.6 13.9 37.65 9.45 38.2 Q5.85 38.35 4.25 37.5 L4.05 36.75 4.0 36.5 Q3.85 35.6 3.85 34.45 L3.85 34.4 3.7 31.5 3.7 30.75 3.6 30.1 3.05 24.65 2.6 20.7 2.45 19.6 2.5 19.55 2.5 19.4 3.45 19.2" fill="#ceb27a" fill-rule="evenodd" stroke="none"/>
    <path d="M11.45 18.85 L11.35 20.85 11.4 20.8 11.2 30.45 11.7 37.05 11.65 37.1 11.75 37.9 8.05 38.05 8.2 18.8 11.45 18.85" fill="#aa8052" fill-rule="evenodd" stroke="none"/>
    <path d="M8.5 18.75 L8.5 31.3 8.95 37.4 8.9 37.4 9.05 37.95 Q7.0 38.2 5.8 37.95 L5.4 31.85 5.45 31.85 5.4 31.1 4.65 18.95 8.5 18.75" fill="#9e6720" fill-rule="evenodd" stroke="none"/>
    <path d="M2.3 19.25 L6.05 18.9 6.05 29.6 6.05 30.35 6.1 36.6 6.1 37.2 6.1 37.95 4.35 37.9 4.25 37.85 3.85 37.8 Q3.4 36.1 3.5 34.65 L3.5 33.4 3.45 31.85 3.5 30.45 3.5 30.35 3.55 30.35 3.55 30.1 3.5 29.6 2.3 19.25" fill="#7f4f08" fill-rule="evenodd" stroke="none"/>
    <path d="M12.95 35.5 Q13.2 34.0 13.15 29.2 13.9 34.3 13.4 36.05 13.1 37.0 11.9 37.4 12.7 36.85 12.95 35.5" fill="#ffffff" fill-rule="evenodd" stroke="none"/>
    <path d="M8.5 38.5 L6.1 38.4 5.3 38.25 3.75 37.8 Q3.7 37.55 5.15 37.4 L8.7 37.25 12.3 37.35 13.95 37.7 12.55 38.15 8.95 38.45 8.5 38.5" fill="#7f4f08" fill-rule="evenodd" stroke="none"/>
    <path d="M4.65 25.55 L5.2 25.55 6.4 25.5 7.1 25.5 7.5 25.5 9.85 25.6 10.45 25.6 11.05 25.65 11.7 25.65 12.25 25.7 13.75 25.85 13.45 26.3 12.25 26.05 11.7 26.05 11.05 26.0 10.45 25.95 9.85 25.95 7.5 25.9 7.1 25.9 6.4 25.9 5.2 25.9 4.65 25.9 3.9 25.95 3.15 26.05 2.65 25.65 3.9 25.6 4.65 25.55" fill="#7f4f08" fill-rule="evenodd" stroke="none"/>
    <path d="M7.1 21.75 L7.5 21.75 8.0 21.75 9.85 21.8 10.45 21.9 11.05 21.9 11.7 22.0 12.25 22.1 13.65 22.4 Q14.2 23.15 14.15 24.1 14.1 23.35 13.65 22.8 L12.25 22.5 11.7 22.4 11.05 22.3 10.45 22.25 9.85 22.15 8.0 22.1 7.5 22.1 7.1 22.1 6.4 22.1 5.15 22.15 4.65 22.2 4.05 22.3 2.85 22.55 Q2.3 23.35 2.25 24.1 2.2 23.15 2.85 22.15 L4.05 21.9 4.65 21.85 5.15 21.75 6.4 21.75 7.1 21.75" fill="#e2e2e2" fill-rule="evenodd" stroke="none"/>
    <path d="M5.15 22.1 L6.4 22.1 6.4 25.5 5.2 25.55 5.15 22.1 M7.1 22.1 L7.5 22.1 7.5 25.5 7.1 25.5 7.1 22.1 M4.65 25.55 L3.9 25.55 4.05 22.25 4.65 22.2 4.65 25.55" fill="#6d6d6d" fill-rule="evenodd" stroke="none"/>
    <path d="M4.65 22.2 L5.15 22.1 5.2 25.55 4.65 25.55 4.65 22.2 M3.9 25.55 L2.6 25.6 Q1.85 24.1 2.85 22.55 L4.05 22.25 3.9 25.55" fill="#474747" fill-rule="evenodd" stroke="none"/>
    <path d="M6.4 22.1 L7.1 22.1 7.1 25.5 6.4 25.5 6.4 22.1 M7.5 22.1 L8.0 22.1 9.85 22.15 9.85 25.55 7.5 25.5 7.5 22.1 M10.45 22.25 L11.05 22.25 11.05 25.6 10.45 25.55 10.45 22.25 M11.7 22.35 L12.25 22.5 12.25 25.7 11.7 25.65 11.7 22.35" fill="#bcbcbc" fill-rule="evenodd" stroke="none"/>
    <path d="M9.85 22.15 L10.45 22.25 10.45 25.55 9.85 25.55 9.85 22.15 M11.05 22.25 L11.7 22.35 11.7 25.65 11.05 25.6 11.05 22.25 M12.25 22.5 L13.65 22.75 Q14.65 24.05 13.75 25.85 L12.25 25.7 12.25 22.5" fill="#ffffff" fill-rule="evenodd" stroke="none"/>
    <path d="M8.15 24.45 L7.7 23.75 8.15 23.0 9.1 23.0 9.6 23.75 9.1 24.55 8.15 24.45" fill="#000000" fill-rule="evenodd" stroke="none"/>
    <path d="M3.2 24.7 L2.65 24.85 2.45 24.35 2.75 23.6 3.3 23.4 3.55 24.0 3.2 24.7" fill="#000000" fill-rule="evenodd" stroke="none"/>
    <path d="M13.9 24.35 L13.6 24.95 13.0 24.85 12.65 24.0 12.95 23.35 13.65 23.5 13.9 24.35" fill="#000000" fill-rule="evenodd" stroke="none"/>
    <path d="M3.5 36.5 L3.1 36.1 4.4 36.1 5.15 36.05 5.65 36.05 6.85 36.0 7.55 36.0 7.9 36.0 10.25 36.1 10.8 36.1 11.45 36.1 12.05 36.15 12.6 36.2 14.1 36.35 Q13.95 36.55 13.95 36.7 L12.6 36.55 12.05 36.5 11.45 36.45 10.8 36.45 10.25 36.45 7.9 36.35 7.55 36.35 6.85 36.35 5.65 36.4 5.15 36.4 4.4 36.45 3.5 36.5" fill="#7f4f08" fill-rule="evenodd" stroke="none"/>
    <path d="M10.3 32.7 L8.45 32.65 8.0 32.65 7.6 32.65 6.9 32.65 5.7 32.7 5.15 32.75 4.55 32.85 3.4 33.1 Q2.85 33.9 2.8 34.6 2.75 33.7 3.5 32.6 L4.55 32.45 5.15 32.4 5.7 32.3 6.9 32.3 7.6 32.3 8.0 32.3 8.45 32.3 10.3 32.35 10.85 32.45 11.45 32.45 12.15 32.6 12.65 32.65 13.85 32.95 Q14.55 33.7 14.55 34.6 14.45 33.9 14.0 33.35 L12.65 33.05 12.15 32.95 11.45 32.85 10.85 32.8 10.3 32.7" fill="#e2e2e2" fill-rule="evenodd" stroke="none"/>
    <path d="M11.45 32.85 L11.45 36.1 10.8 36.1 10.8 32.8 11.45 32.85 M12.05 36.15 L12.05 32.95 12.6 33.05 12.6 36.2 12.05 36.15 M10.25 36.1 L7.9 36.0 7.9 32.65 8.4 32.65 10.25 32.7 10.25 36.1 M7.55 36.0 L6.85 36.0 6.85 32.65 7.55 32.65 7.55 36.0" fill="#bcbcbc" fill-rule="evenodd" stroke="none"/>
    <path d="M11.45 32.85 L12.05 32.95 12.05 36.15 11.45 36.1 11.45 32.85 M12.6 33.05 L13.95 33.35 Q14.95 34.6 14.1 36.35 L12.6 36.2 12.6 33.05 M10.8 32.8 L10.8 36.1 10.25 36.1 10.25 32.7 10.8 32.8" fill="#ffffff" fill-rule="evenodd" stroke="none"/>
    <path d="M5.65 36.05 L5.15 36.05 5.15 32.75 5.65 32.7 5.65 36.05 M4.4 36.1 L3.1 36.1 Q2.35 34.65 3.35 33.1 L4.5 32.85 4.4 36.1" fill="#474747" fill-rule="evenodd" stroke="none"/>
    <path d="M7.9 36.0 L7.55 36.0 7.55 32.65 7.9 32.65 7.9 36.0 M6.85 36.0 L5.65 36.05 5.65 32.7 6.85 32.65 6.85 36.0 M5.15 36.05 L4.4 36.1 4.5 32.85 5.15 32.75 5.15 36.05" fill="#6d6d6d" fill-rule="evenodd" stroke="none"/>
    <path d="M8.6 35.0 L8.15 34.3 8.55 33.6 9.5 33.55 10.05 34.3 9.55 35.05 8.6 35.0" fill="#000000" fill-rule="evenodd" stroke="none"/>
    <path d="M3.8 35.25 L3.25 35.35 3.05 34.85 3.4 34.15 3.9 34.0 4.15 34.55 3.8 35.25" fill="#000000" fill-rule="evenodd" stroke="none"/>
    <path d="M14.25 34.85 L13.95 35.45 13.3 35.3 13.05 34.5 13.35 33.85 13.95 34.0 14.25 34.85" fill="#000000" fill-rule="evenodd" stroke="none"/>
    <path d="M6.5 30.4 Q6.5 30.05 7.05 29.75 L8.35 29.4 9.65 29.7 Q10.2 30.0 10.2 30.35 L9.7 31.0 Q9.1 31.35 8.4 31.35 L7.1 31.05 Q6.5 30.75 6.5 30.4" fill="#9e6720" fill-rule="evenodd" stroke="none"/>
    <path d="M6.55 30.6 L6.1 28.7 7.1 29.25 7.1 29.45 7.2 30.45 Q7.45 31.5 9.7 31.15 9.15 31.55 8.4 31.55 L7.1 31.2 6.55 30.6" fill="#724416" fill-rule="evenodd" stroke="none"/>
    <path d="M10.25 30.45 L10.2 30.45 9.7 31.15 Q9.15 31.55 8.4 31.55 L7.1 31.2 Q9.25 31.65 9.6 30.5 L9.7 29.5 9.7 29.45 10.65 29.05 10.25 30.45" fill="#aa8052" fill-rule="evenodd" stroke="none"/>
    <path d="M10.05 29.9 Q9.35 30.45 8.4 30.55 7.6 30.55 6.9 29.95 6.2 29.3 6.2 28.45 6.2 27.6 6.85 27.05 7.55 26.4 8.4 26.4 9.3 26.3 10.0 26.95 10.7 27.6 10.7 28.45 10.7 29.2 10.05 29.9" fill="#ba9552" fill-rule="evenodd" stroke="none"/>
    <path d="M2.3 19.25 L4.65 18.95 8.5 18.75 8.5 18.85 11.45 18.85 11.45 18.95 11.7 18.95 13.45 19.2 13.7 19.25 13.75 19.5 13.75 22.55 Q14.2 23.25 14.15 24.1 14.25 24.9 13.75 25.85 L13.5 26.25 13.4 28.85 13.7 30.75 13.85 32.45 13.9 33.0 Q14.55 33.7 14.55 34.6 14.6 35.4 14.15 36.35 L14.0 36.7 14.0 36.75 13.9 37.65 13.95 37.7 12.55 38.15 8.95 38.45 5.3 38.25 3.75 37.8 3.85 37.75 3.55 36.55 3.2 36.2 3.15 36.2 Q2.35 34.7 3.4 33.15 2.85 33.9 2.8 34.6 2.75 33.7 3.5 32.65 L3.45 31.85 3.5 30.45 3.5 30.35 3.55 30.35 3.55 30.1 3.5 29.6 3.1 26.0 2.65 25.65 2.6 25.65 Q1.85 24.25 2.75 22.8 L2.75 22.75 Q2.3 23.45 2.25 24.1 2.2 23.25 2.7 22.45 L2.3 19.25 M3.4 33.15 L3.5 33.15 3.5 33.1 3.4 33.15" fill="none" stroke="#453129" stroke-linecap="round" stroke-linejoin="round" stroke-width="1.0"/>
  </g>
</svg>
