<?xml version="1.0" encoding="UTF-8" standalone="no"?>
<svg xmlns:xlink="http://www.w3.org/1999/xlink" height="36.75px" width="18.5px" xmlns="http://www.w3.org/2000/svg">
  <g transform="matrix(1.0, 0.0, 0.0, 1.0, 1.1, 9.75)">
    <path d="M16.85 -2.35 Q15.75 3.3 15.75 4.4 L16.4 9.55 Q16.7 13.25 16.4 13.95 16.0 15.55 14.05 16.75 12.05 17.95 9.15 18.1 6.35 18.2 4.4 17.2 2.55 16.2 1.95 14.55 L1.85 14.1 Q1.65 13.55 1.65 11.15 L1.35 6.15 0.45 -1.5 0.25 -3.75 16.25 -3.75 Q15.95 -0.7 16.85 -2.35" fill="#ceb27a" fill-rule="evenodd" stroke="none"/>
    <path d="M12.8 -5.5 Q11.6 -4.8 8.2 -4.3 L8.25 18.1 11.8 17.65 13.3 17.15 12.5 6.7 12.8 -5.5" fill="#aa8052" fill-rule="evenodd" stroke="none"/>
    <path d="M8.35 -5.0 L8.5 7.85 9.4 18.1 7.7 18.05 4.6 17.4 3.4 -5.25 8.35 -5.0" fill="#9e6720" fill-rule="evenodd" stroke="none"/>
    <path d="M0.1 -3.0 L4.0 -3.0 5.1 17.85 Q3.2 16.8 2.85 16.4 2.15 15.55 1.2 13.0 1.1 12.45 1.15 10.15 1.05 7.4 1.2 6.2 0.75 2.85 -0.6 -0.4 0.35 -0.9 0.1 -3.0" fill="#7f4f08" fill-rule="evenodd" stroke="none"/>
    <path d="M14.15 15.65 Q15.55 14.25 15.55 9.15 L15.2 2.4 Q17.4 13.5 14.15 15.65" fill="#ffffff" fill-rule="evenodd" stroke="none"/>
    <path d="M13.75 -7.55 Q11.2 -9.45 7.7 -9.15 4.15 -8.8 1.75 -6.5 -0.7 -4.15 -0.6 -1.25 -0.5 1.7 2.1 3.7 4.7 5.6 8.2 5.3 11.75 4.9 14.1 2.45 16.5 0.2 16.4 -2.8 16.25 -5.7 13.75 -7.55" fill="#ba9552" fill-rule="evenodd" stroke="none"/>
    <path d="M9.95 5.05 Q11.6 4.85 13.35 3.6 16.05 1.9 16.65 -0.95 17.05 -3.15 16.05 -5.2 L14.85 -6.8 Q16.6 -4.1 15.8 -0.85 15.2 1.3 12.55 3.4 11.2 4.45 9.95 5.05" fill="#ffe8c0" fill-rule="evenodd" stroke="none"/>
    <path d="M4.8 -0.2 Q5.9 1.7 8.5 1.0 10.65 0.35 12.05 -1.4 13.45 -3.2 12.3 -5.55 11.55 -7.05 9.95 -7.45 8.25 -7.9 7.2 -6.6 6.7 -5.95 6.65 -5.1 6.55 -4.25 6.85 -3.65 7.35 -2.7 7.95 -2.7 8.5 -2.65 8.9 -3.15 L9.1 -4.15" fill="none" stroke="#603200" stroke-linecap="round" stroke-linejoin="round" stroke-width="0.05"/>
    <path d="M12.5 9.55 L13.0 9.3 Q14.75 8.45 15.85 6.85 L16.1 6.65 Q14.75 9.0 13.0 9.85 L12.5 10.05 11.5 10.45 10.9 10.6 10.35 10.7 8.45 10.85 7.0 10.8 6.4 10.75 5.85 10.7 3.75 10.05 3.1 9.75 2.45 9.35 Q1.75 8.85 1.3 7.8 L2.45 8.85 3.1 9.2 3.75 9.55 5.85 10.15 6.4 10.25 7.0 10.3 8.45 10.35 10.35 10.15 10.9 10.05 11.5 9.9 12.5 9.55" fill="#7f4f08" fill-rule="evenodd" stroke="none"/>
    <path d="M15.75 3.7 L15.9 4.05 15.8 4.2 15.75 4.2 Q14.7 5.8 13.2 6.7 L12.65 6.95 11.7 7.35 11.05 7.55 10.4 7.7 8.55 7.85 6.95 7.85 6.3 7.75 5.65 7.65 Q4.55 7.45 3.6 6.95 L2.95 6.6 2.2 6.05 1.0 5.05 1.0 4.95 Q1.65 5.1 2.2 5.5 L2.95 6.05 3.6 6.4 Q4.55 6.9 5.65 7.1 L6.3 7.25 6.95 7.35 8.55 7.35 10.4 7.15 11.05 7.0 11.7 6.8 12.65 6.4 13.2 6.15 Q14.7 5.25 15.75 3.7" fill="#e2e2e2" fill-rule="evenodd" stroke="none"/>
    <path d="M13.2 6.6 Q14.7 5.65 15.75 4.1 L15.9 4.1 Q16.85 5.05 16.05 6.55 14.9 8.35 13.0 9.3 L13.2 6.6 M12.5 9.55 L11.5 9.9 11.7 7.25 12.65 6.85 12.5 9.55 M10.9 10.05 L10.35 10.15 10.4 7.6 11.05 7.45 10.9 10.05" fill="#ffffff" fill-rule="evenodd" stroke="none"/>
    <path d="M13.2 6.6 L13.0 9.3 12.5 9.55 12.65 6.85 13.2 6.6 M11.5 9.9 L10.9 10.05 11.05 7.45 11.7 7.25 11.5 9.9 M10.35 10.15 L8.45 10.35 7.0 10.3 6.95 7.75 8.55 7.75 10.4 7.6 10.35 10.15 M6.4 10.25 L5.85 10.15 5.65 7.55 6.3 7.65 6.4 10.25" fill="#bcbcbc" fill-rule="evenodd" stroke="none"/>
    <path d="M3.75 9.55 L3.1 9.2 2.95 6.5 3.6 6.85 3.75 9.55 M2.45 8.85 Q1.65 8.25 1.0 7.5 0.55 6.9 0.55 6.05 0.55 5.2 0.95 4.8 L2.2 5.95 2.45 8.85" fill="#474747" fill-rule="evenodd" stroke="none"/>
    <path d="M7.0 10.3 L6.4 10.25 6.3 7.65 6.95 7.75 7.0 10.3 M5.85 10.15 L3.75 9.55 3.6 6.85 Q4.55 7.35 5.65 7.55 L5.85 10.15 M3.1 9.2 L2.45 8.85 2.2 5.95 2.95 6.5 3.1 9.2" fill="#6d6d6d" fill-rule="evenodd" stroke="none"/>
    <path d="M8.25 8.45 L9.3 8.5 9.8 9.2 9.2 9.8 8.15 9.8 7.7 9.1 8.25 8.45" fill="#000000" fill-rule="evenodd" stroke="none"/>
    <path d="M2.0 6.6 L1.95 7.25 1.35 7.5 0.85 7.1 0.8 6.45 Q1.15 6.3 1.45 6.1 L2.0 6.6" fill="#000000" fill-rule="evenodd" stroke="none"/>
    <path d="M14.5 6.45 L15.3 6.7 15.4 7.35 14.7 7.8 14.0 7.6 13.95 6.9 14.5 6.45" fill="#000000" fill-rule="evenodd" stroke="none"/>
    <path d="M6.2 17.8 L4.15 17.2 3.1 16.4 Q1.85 15.5 1.4 14.9 L2.4 15.7 2.9 16.0 3.55 16.4 4.15 16.7 Q5.95 17.7 9.85 17.35 15.0 17.0 16.65 13.3 15.45 16.55 11.9 17.5 L7.4 17.9 6.8 17.85 6.2 17.8" fill="#7f4f08" fill-rule="evenodd" stroke="none"/>
    <path d="M16.45 11.6 Q16.85 11.7 16.4 11.75 14.95 13.25 13.55 14.05 L13.0 14.3 12.05 14.6 11.4 14.85 10.75 15.0 8.95 15.15 7.35 15.15 6.7 15.05 6.05 14.95 4.0 14.3 3.35 13.95 2.6 13.45 1.6 12.6 1.2 12.2 Q2.2 12.6 2.6 12.9 L3.35 13.45 4.0 13.75 6.05 14.4 6.7 14.5 7.35 14.6 8.95 14.6 10.75 14.45 11.4 14.35 12.05 14.15 13.0 13.75 13.55 13.5 16.45 11.6" fill="#e2e2e2" fill-rule="evenodd" stroke="none"/>
    <path d="M6.7 14.95 L7.35 15.05 7.4 17.4 6.8 17.35 6.7 14.95 M6.2 17.3 L4.15 16.7 4.0 14.2 6.05 14.85 6.2 17.3 M3.55 16.4 L2.9 16.0 2.6 13.35 3.35 13.8 3.55 16.4" fill="#6d6d6d" fill-rule="evenodd" stroke="none"/>
    <path d="M6.05 14.85 L6.7 14.95 6.8 17.35 6.2 17.3 6.05 14.85 M7.35 15.05 L8.95 15.05 10.75 14.9 10.7 17.3 8.85 17.45 7.4 17.4 7.35 15.05 M11.4 14.75 L12.05 14.5 11.9 17.05 11.3 17.2 11.4 14.75 M13.0 14.2 L13.55 13.95 13.4 16.5 12.85 16.7 13.0 14.2" fill="#bcbcbc" fill-rule="evenodd" stroke="none"/>
    <path d="M4.15 16.7 L3.55 16.4 3.35 13.8 4.0 14.2 4.15 16.7 M2.9 16.0 L1.45 14.8 Q0.95 14.25 0.95 13.45 0.95 12.65 1.4 12.25 L2.6 13.35 2.9 16.0" fill="#474747" fill-rule="evenodd" stroke="none"/>
    <path d="M10.75 14.9 L11.4 14.75 11.3 17.2 10.7 17.3 10.75 14.9 M12.05 14.5 L13.0 14.2 12.85 16.7 11.9 17.05 12.05 14.5 M13.55 13.95 L16.5 11.6 Q17.35 12.7 16.3 14.15 15.2 15.6 13.4 16.5 L13.55 13.95" fill="#ffffff" fill-rule="evenodd" stroke="none"/>
    <path d="M8.65 15.6 L9.7 15.7 10.2 16.3 9.6 16.9 8.55 16.9 8.1 16.25 8.65 15.6" fill="#000000" fill-rule="evenodd" stroke="none"/>
    <path d="M2.45 13.9 L2.35 14.55 1.8 14.75 1.3 14.4 1.25 13.75 1.9 13.45 2.45 13.9" fill="#000000" fill-rule="evenodd" stroke="none"/>
    <path d="M14.9 13.85 L15.7 14.05 15.75 14.65 15.1 15.1 14.35 14.85 14.25 14.25 14.9 13.85" fill="#000000" fill-rule="evenodd" stroke="none"/>
    <path d="M6.35 12.05 L6.35 12.0 Q7.35 11.3 8.55 11.3 9.85 11.25 10.8 11.95 L11.0 12.1 11.6 24.9 5.5 24.9 6.35 12.05" fill="#9e6720" fill-rule="evenodd" stroke="none"/>
    <path d="M10.65 11.6 L11.15 12.1 11.35 12.7 11.6 24.8 10.4 24.8 10.35 13.6 10.4 12.95 10.3 12.5 10.3 12.2 9.4 11.35 Q9.05 11.0 8.5 10.85 9.65 10.85 10.65 11.6" fill="#724416" fill-rule="evenodd" stroke="none"/>
    <path d="M10.65 11.7 L10.75 11.8 9.55 11.5 Q8.3 11.6 7.3 12.35 L6.8 12.95 6.5 24.7 5.4 24.7 5.8 12.15 6.15 11.7 Q7.15 11.0 8.4 10.85 9.65 10.9 10.65 11.7" fill="#aa8052" fill-rule="evenodd" stroke="none"/>
    <path d="M11.6 24.75 Q11.6 25.45 10.65 26.0 9.7 26.5 8.4 26.5 L6.2 26.05 Q5.25 25.5 5.25 24.75 5.25 24.05 6.15 23.5 7.1 23.0 8.35 23.0 9.65 23.0 10.6 23.45 11.6 24.0 11.6 24.75" fill="#95591e" fill-rule="evenodd" stroke="none"/>
    <path d="M1.75 -6.5 Q-0.65 -4.2 -0.6 -1.25 L-0.5 -0.45 -0.6 -0.4 -0.45 0.05 0.05 1.4 1.0 4.85 0.95 4.8 Q0.55 5.2 0.55 6.05 0.55 6.9 1.0 7.5 L1.15 7.65 1.15 10.15 1.15 12.55 0.95 13.45 Q0.95 14.25 1.45 14.8 L2.35 15.6 2.35 15.65 1.4 14.9 2.5 15.95 2.85 16.4 Q3.2 16.8 5.1 17.85 L5.1 17.55 5.6 17.75 5.4 24.2 Q5.25 24.5 5.25 24.75 5.25 25.5 6.2 26.05 L8.4 26.5 Q9.7 26.5 10.65 26.0 11.6 25.45 11.6 24.75 L11.6 24.5 11.45 17.8 13.35 17.15 14.05 16.75 Q15.95 15.6 16.4 14.05 17.3 12.7 16.55 11.7 L16.4 9.55 16.1 6.7 16.1 6.65 16.05 6.55 Q16.8 5.05 15.9 4.1 L15.9 4.05 15.8 3.8 16.45 -0.15 16.65 -0.9 16.8 -1.9 16.85 -2.35 16.8 -2.2 Q16.8 -3.8 16.05 -5.25 L14.9 -6.8 15.45 -5.85 13.7 -7.55 Q11.2 -9.45 7.7 -9.2 4.15 -8.8 1.75 -6.5 Z" fill="none" stroke="#453129" stroke-linecap="round" stroke-linejoin="round" stroke-width="1.0"/>
  </g>
</svg>
