<?xml version="1.0" encoding="UTF-8" standalone="no"?>
<svg xmlns:xlink="http://www.w3.org/1999/xlink" height="30.95px" width="18.65px" xmlns="http://www.w3.org/2000/svg">
  <g transform="matrix(1.0, 0.0, 0.0, 1.0, 0.65, 5.45)">
    <path d="M3.65 -3.45 Q5.6 -4.65 8.4 -4.7 11.25 -4.75 13.4 -3.65 15.45 -2.6 15.95 -0.95 16.3 -0.25 16.2 3.45 L15.95 8.7 16.75 13.0 Q17.45 17.2 17.15 18.5 L-0.05 18.5 0.65 13.3 1.3 7.85 1.25 2.85 Q1.1 0.4 1.3 -0.15 L1.35 -0.65 Q1.85 -2.3 3.65 -3.45" fill="#ceb27a" fill-rule="evenodd" stroke="none"/>
    <path d="M13.6 18.8 Q12.3 18.25 8.95 18.0 L7.5 -4.65 11.05 -4.45 12.6 -4.05 12.5 6.5 13.6 18.8" fill="#aa8052" fill-rule="evenodd" stroke="none"/>
    <path d="M9.1 18.65 L8.45 5.65 8.65 -4.7 6.95 -4.55 Q4.95 -4.2 3.85 -3.7 L4.15 19.25 9.1 18.65" fill="#9e6720" fill-rule="evenodd" stroke="none"/>
    <path d="M4.3 -4.15 L4.6 16.9 -0.05 17.9 0.4 15.0 1.2 7.8 Q0.9 6.6 0.85 3.8 L0.7 1.0 Q1.45 -1.6 2.1 -2.55 L4.3 -4.15" fill="#7f4f08" fill-rule="evenodd" stroke="none"/>
    <path d="M13.1 11.25 Q14.5 9.8 14.5 4.65 L14.2 -2.15 Q16.4 9.05 13.1 11.25" fill="#ffffff" fill-rule="evenodd" stroke="none"/>
    <path d="M6.3 -3.2 L5.7 -3.15 Q4.5 -2.9 3.6 -2.45 L2.95 -2.15 2.3 -1.7 1.15 -0.65 Q1.6 -1.7 2.3 -2.25 L2.95 -2.65 3.6 -3.0 Q4.45 -3.45 5.65 -3.7 L6.25 -3.75 6.85 -3.8 8.3 -3.9 10.2 -3.75 10.8 -3.7 11.4 -3.55 12.4 -3.15 12.95 -3.0 Q14.7 -2.15 16.15 0.2 L15.9 0.0 Q14.7 -1.6 12.95 -2.45 L12.4 -2.6 11.45 -3.0 10.85 -3.15 10.25 -3.2 8.35 -3.4 6.9 -3.25 6.3 -3.2" fill="#e2e2e2" fill-rule="evenodd" stroke="none"/>
    <path d="M3.5 0.15 L5.6 -0.6 6.25 -0.7 6.9 -0.85 8.5 -0.9 10.35 -0.7 11.0 -0.6 11.65 -0.4 12.65 0.0 13.15 0.2 Q14.7 1.1 15.85 2.65 L15.9 2.65 16.0 2.8 15.85 3.2 Q14.75 1.65 13.15 0.75 L12.65 0.5 11.65 0.15 11.0 -0.05 10.35 -0.2 8.5 -0.35 6.9 -0.3 6.25 -0.2 5.6 -0.05 Q4.45 0.2 3.5 0.7 L2.85 1.1 Q2.4 1.4 2.1 1.65 1.6 2.1 0.95 2.2 L0.95 2.15 2.05 1.1 2.85 0.6 3.5 0.15" fill="#7f4f08" fill-rule="evenodd" stroke="none"/>
    <path d="M2.05 1.2 L0.85 2.35 Q0.4 2.0 0.4 1.15 0.4 0.25 0.8 -0.4 L2.3 -1.75 2.05 1.2 M2.95 -2.15 L3.6 -2.5 3.45 0.2 2.8 0.6 2.95 -2.15" fill="#474747" fill-rule="evenodd" stroke="none"/>
    <path d="M2.3 -1.75 L2.95 -2.15 2.8 0.6 2.05 1.2 2.3 -1.75 M3.6 -2.5 Q4.45 -2.9 5.65 -3.2 L5.55 -0.55 3.45 0.2 3.6 -2.5 M6.25 -3.25 L6.85 -3.3 6.85 -0.75 6.2 -0.65 6.25 -3.25" fill="#6d6d6d" fill-rule="evenodd" stroke="none"/>
    <path d="M5.65 -3.2 L6.25 -3.25 6.2 -0.65 5.55 -0.55 5.65 -3.2 M6.85 -3.3 L8.3 -3.4 10.2 -3.3 10.3 -0.7 8.45 -0.8 6.85 -0.75 6.85 -3.3 M10.8 -3.2 L11.4 -3.0 11.65 -0.3 10.95 -0.5 10.8 -3.2 M12.4 -2.7 Q12.7 -2.6 12.95 -2.45 L13.15 0.3 12.6 0.0 12.4 -2.7" fill="#bcbcbc" fill-rule="evenodd" stroke="none"/>
    <path d="M10.2 -3.3 L10.8 -3.2 10.95 -0.5 10.3 -0.7 10.2 -3.3 M11.4 -3.0 L12.4 -2.7 12.6 0.0 11.65 -0.3 11.4 -3.0 M12.95 -2.45 Q14.85 -1.55 16.1 0.3 16.95 1.75 16.0 2.75 L15.8 2.75 Q14.7 1.15 13.15 0.3 L12.95 -2.45" fill="#ffffff" fill-rule="evenodd" stroke="none"/>
    <path d="M8.15 -1.45 L7.6 -2.1 8.05 -2.8 9.1 -2.8 9.7 -2.25 9.2 -1.5 8.15 -1.45" fill="#000000" fill-rule="evenodd" stroke="none"/>
    <path d="M1.2 -0.35 L1.8 -0.15 1.9 0.55 1.3 1.0 0.75 0.75 0.7 0.05 1.2 -0.35" fill="#000000" fill-rule="evenodd" stroke="none"/>
    <path d="M13.9 -0.05 L13.95 -0.75 14.65 -0.95 15.35 -0.5 15.35 0.1 14.5 0.4 13.9 -0.05" fill="#000000" fill-rule="evenodd" stroke="none"/>
    <path d="M14.3 14.2 Q16.9 15.8 17.05 18.15 17.1 20.65 14.75 22.6 12.3 24.6 8.7 24.95 5.2 25.2 2.55 23.6 -0.05 21.9 -0.15 19.45 -0.2 17.1 2.2 15.15 4.65 13.25 8.25 12.9 11.75 12.7 14.3 14.2" fill="#7f4f08" fill-rule="evenodd" stroke="none"/>
    <path d="M5.25 20.4 Q6.45 21.9 9.0 21.4 11.25 20.85 12.65 19.4 14.05 17.9 12.85 15.95 12.1 14.7 10.5 14.3 8.8 13.95 7.75 15.05 7.2 15.6 7.15 16.3 7.05 17.0 7.35 17.5 7.85 18.3 8.5 18.35 L9.4 17.95 9.65 17.15" fill="none" stroke="#603200" stroke-linecap="round" stroke-linejoin="round" stroke-width="0.05"/>
    <path d="M11.8 7.6 Q15.65 8.7 17.05 13.15 15.1 8.1 9.7 7.85 5.55 7.7 3.8 9.1 L3.1 9.65 2.45 10.15 1.9 10.6 0.9 11.8 Q1.35 10.95 2.65 9.65 L3.75 8.5 Q4.6 7.8 5.85 7.55 L6.4 7.5 Q6.75 7.35 7.05 7.35 L11.8 7.6" fill="#e2e2e2" fill-rule="evenodd" stroke="none"/>
    <path d="M13.75 12.25 Q15.25 13.3 16.9 15.3 17.35 15.3 16.95 15.4 L13.75 13.0 13.2 12.65 12.15 12.25 11.5 11.9 10.8 11.8 8.9 11.75 7.25 11.8 6.5 12.0 5.85 12.15 Q4.7 12.45 3.7 13.15 L3.05 13.7 2.3 14.35 0.85 15.45 1.3 14.95 2.25 13.7 3.05 13.0 3.7 12.4 Q4.6 11.8 5.8 11.45 L6.45 11.3 Q6.85 11.1 7.1 11.05 L8.8 11.0 10.75 11.15 11.45 11.25 12.15 11.55 13.2 11.9 13.75 12.25" fill="#7f4f08" fill-rule="evenodd" stroke="none"/>
    <path d="M12.95 8.65 L13.45 8.9 13.75 12.4 13.2 12.1 12.95 8.65 M11.2 8.15 L11.8 8.25 12.15 11.7 11.45 11.4 11.2 8.15 M10.55 8.0 L10.75 11.25 8.85 11.2 7.15 11.25 7.05 8.0 8.6 7.85 10.55 8.0 M5.85 8.25 L6.4 8.1 6.45 11.45 5.8 11.6 5.85 8.25" fill="#bcbcbc" fill-rule="evenodd" stroke="none"/>
    <path d="M12.95 8.65 L13.2 12.1 12.15 11.7 11.8 8.25 12.95 8.65 M13.75 12.4 L13.45 8.9 Q15.45 10.0 16.6 12.0 17.8 13.85 17.0 15.4 L13.75 12.4 M10.55 8.0 L11.2 8.15 11.45 11.4 10.75 11.25 10.55 8.0" fill="#ffffff" fill-rule="evenodd" stroke="none"/>
    <path d="M3.1 9.65 L3.8 9.1 3.7 12.6 3.05 13.15 3.1 9.65 M2.25 13.8 Q1.65 14.5 1.3 15.35 0.6 14.9 0.5 13.8 0.5 12.7 1.0 11.95 1.6 10.95 2.45 10.15 L2.25 13.8" fill="#474747" fill-rule="evenodd" stroke="none"/>
    <path d="M3.1 9.65 L3.05 13.15 2.25 13.8 2.45 10.15 3.1 9.65 M3.7 12.6 L3.8 9.1 Q4.65 8.55 5.85 8.25 L5.8 11.6 Q4.7 11.9 3.7 12.6 M6.4 8.1 L7.05 8.0 7.15 11.25 6.45 11.45 6.4 8.1" fill="#6d6d6d" fill-rule="evenodd" stroke="none"/>
    <path d="M8.45 10.25 L7.9 9.45 8.3 8.5 9.4 8.45 10.1 9.2 9.6 10.1 8.45 10.25" fill="#000000" fill-rule="evenodd" stroke="none"/>
    <path d="M2.0 13.0 L1.45 13.6 0.8 13.3 0.8 12.4 1.35 11.9 1.95 12.15 2.0 13.0" fill="#000000" fill-rule="evenodd" stroke="none"/>
    <path d="M15.25 12.35 L14.55 11.85 14.65 10.95 15.4 10.65 16.1 11.2 16.1 12.0 15.25 12.35" fill="#000000" fill-rule="evenodd" stroke="none"/>
    <path d="M12.6 -4.05 L12.6 -4.0 Q15.45 -2.7 15.95 -1.1 L16.6 0.25 Q16.75 1.35 16.25 2.45 L15.95 8.1 16.45 10.95 17.3 12.25 Q17.8 13.75 17.05 15.3 L17.1 15.35 17.3 17.45 Q17.55 18.55 17.3 19.75 16.65 22.1 14.0 23.5 12.45 24.35 11.05 24.6 L10.55 24.65 8.7 24.95 Q5.2 25.2 2.55 23.6 -0.05 21.9 -0.15 19.45 L-0.05 18.4 0.0 17.9 -0.05 17.9 0.35 15.0 Q-0.3 14.1 -0.05 12.9 0.1 11.9 0.8 11.25 L1.2 7.8 Q0.9 6.6 0.85 3.8 L0.75 2.25 Q0.5 1.9 0.5 0.95 0.45 -0.25 1.15 -1.0 L2.1 -2.55 Q2.3 -2.8 3.25 -3.5 L4.3 -4.15 Q7.35 -5.3 10.3 -4.75 11.75 -4.55 12.6 -4.05 Z" fill="none" stroke="#453129" stroke-linecap="round" stroke-linejoin="round" stroke-width="1.0"/>
  </g>
</svg>
