<?xml version="1.0" encoding="UTF-8" standalone="no"?>
<svg xmlns:xlink="http://www.w3.org/1999/xlink" height="36.35px" width="19.8px" xmlns="http://www.w3.org/2000/svg">
  <g transform="matrix(1.0, 0.0, 0.0, 1.0, 1.65, -3.35)">
    <path d="M11.35 6.2 L11.45 22.3 4.8 22.35 4.7 6.25 11.35 6.2" fill="#9e6720" fill-rule="evenodd" stroke="none"/>
    <path d="M10.65 23.4 Q9.65 24.2 8.3 24.25 6.95 24.25 5.9 23.45 4.9 22.7 4.9 21.7 4.9 20.7 5.9 19.95 6.95 19.15 8.3 19.15 9.65 19.1 10.65 19.9 11.65 20.65 11.65 21.65 11.65 22.65 10.65 23.4" fill="#9e6720" fill-rule="evenodd" stroke="none"/>
    <path d="M10.6 8.55 Q9.6 9.35 8.25 9.4 6.9 9.4 5.85 8.6 4.85 7.85 4.85 6.85 4.85 5.85 5.85 5.1 6.9 4.3 8.25 4.3 9.6 4.25 10.6 5.05 11.6 5.8 11.6 6.8 11.6 7.8 10.6 8.55" fill="#9e6720" fill-rule="evenodd" stroke="none"/>
    <path d="M11.3 5.9 L11.4 6.4 11.4 7.1 11.4 20.65 11.5 21.3 Q11.5 22.4 10.55 23.2 9.45 23.8 8.15 23.8 7.2 23.95 6.25 23.5 L6.8 23.5 Q8.15 23.55 9.25 22.85 10.2 22.1 10.2 21.05 L10.1 20.4 10.1 6.8 10.1 6.15 9.95 5.6 9.95 5.35 9.05 4.35 8.15 3.85 Q9.35 3.85 10.35 4.7 L11.3 5.6 11.3 5.9" fill="#724416" fill-rule="evenodd" stroke="none"/>
    <path d="M10.4 4.75 L10.55 4.85 9.2 4.6 Q7.85 4.7 6.8 5.45 6.25 6.0 6.1 6.5 L5.8 6.5 5.9 22.65 6.2 22.65 6.7 23.7 5.8 23.25 Q5.1 22.75 5.05 21.95 L4.75 21.95 4.65 5.8 4.95 5.8 Q5.05 5.3 5.6 4.75 6.65 4.0 8.0 3.9 9.35 3.95 10.4 4.75" fill="#aa8052" fill-rule="evenodd" stroke="none"/>
    <path d="M10.35 23.7 Q9.4 24.5 8.05 24.55 6.7 24.55 5.6 23.75 4.6 22.9 4.6 21.85 4.6 20.75 5.6 19.95 6.65 19.15 8.0 19.15 9.35 19.1 10.35 19.9 11.35 20.7 11.35 21.8 11.35 22.85 10.35 23.7" fill="#95591e" fill-rule="evenodd" stroke="none"/>
    <path d="M16.8 15.7 Q16.2 22.25 16.25 24.65 L16.95 30.1 Q17.3 34.05 16.95 34.8 16.55 36.5 14.45 37.8 12.35 39.05 9.25 39.25 6.25 39.35 4.15 38.3 2.2 37.2 1.6 35.5 L1.5 34.95 Q1.25 34.4 1.25 31.8 L0.9 26.5 0.0 18.35 Q-0.5 13.9 -0.1 13.05 L16.8 9.95 Q17.2 10.8 16.8 15.7" fill="#ceb27a" fill-rule="evenodd" stroke="none"/>
    <path d="M13.2 14.1 Q11.9 14.8 8.3 15.3 L8.35 39.2 12.1 38.7 13.75 38.2 12.85 27.1 13.2 14.1" fill="#aa8052" fill-rule="evenodd" stroke="none"/>
    <path d="M8.45 14.6 L3.2 14.35 4.4 38.5 7.75 39.2 9.6 39.3 8.6 28.35 8.45 14.6" fill="#9e6720" fill-rule="evenodd" stroke="none"/>
    <path d="M3.65 14.8 L-1.15 12.15 Q0.25 20.6 0.8 26.6 0.65 27.85 0.75 30.85 0.7 33.15 0.8 33.8 1.8 36.45 2.55 37.4 2.9 37.85 4.9 38.95 L3.65 14.8" fill="#7f4f08" fill-rule="evenodd" stroke="none"/>
    <path d="M17.35 16.9 Q17.55 19.45 14.1 20.3 L7.15 20.85 Q4.75 20.95 1.85 18.75 L-0.5 16.5 Q-0.75 18.45 -0.5 20.8 0.45 22.65 3.0 23.7 5.65 24.75 8.75 24.6 11.8 24.45 14.15 23.3 16.35 22.15 17.4 20.3 17.65 19.75 17.7 18.3 L17.35 16.9" fill="#7f4f08" fill-rule="evenodd" stroke="none"/>
    <path d="M17.0 31.25 Q17.15 33.55 14.1 34.15 L7.5 34.6 Q5.1 34.7 2.65 32.6 L0.7 30.5 Q0.55 31.3 1.3 34.7 3.3 38.45 9.15 38.25 15.2 37.8 17.2 34.35 L17.35 32.35 17.0 31.25" fill="#7f4f08" fill-rule="evenodd" stroke="none"/>
    <path d="M14.0 22.5 Q16.25 21.3 17.25 19.6 17.55 19.05 17.5 17.6 L17.3 16.15 15.35 18.05 Q12.85 20.0 10.25 20.2 6.15 20.5 4.75 20.15 2.2 19.5 -0.65 16.2 L-0.6 20.05 Q0.35 21.85 2.9 22.9 5.5 24.05 8.6 23.85 11.65 23.7 14.0 22.5" fill="#bcbcbc" fill-rule="evenodd" stroke="none"/>
    <path d="M14.1 7.55 Q11.4 5.95 7.65 6.2 3.95 6.55 1.35 8.35 -1.25 10.25 -1.15 12.6 -1.05 15.0 1.7 16.65 4.5 18.2 8.25 17.9 12.0 17.6 14.55 15.7 17.05 13.85 16.95 11.4 16.8 9.0 14.1 7.55" fill="#ba9552" fill-rule="evenodd" stroke="none"/>
    <path d="M14.9 22.3 Q16.45 28.95 15.95 31.9 15.35 34.75 13.6 35.8 14.45 33.65 14.85 29.95 15.2 26.2 14.9 22.3" fill="#ffffff" fill-rule="evenodd" stroke="none"/>
    <path d="M17.05 34.9 Q15.15 38.5 9.3 38.7 6.4 38.85 4.1 37.85 1.9 36.85 1.1 35.05 0.55 33.95 0.6 32.25 0.6 30.75 0.8 30.85 1.65 32.7 4.05 34.1 6.65 35.65 9.4 35.45 14.75 35.25 16.85 31.55 L16.95 30.25 17.15 31.05 17.35 33.35 17.05 34.9" fill="#bcbcbc" fill-rule="evenodd" stroke="none"/>
    <path d="M17.0 31.65 Q15.0 35.25 9.4 35.45 6.55 35.65 4.0 34.55 1.6 33.5 0.7 31.8 L0.6 30.9 Q1.6 32.35 3.75 33.45 6.25 34.65 9.15 34.6 12.4 34.35 14.9 32.7 L16.9 30.85 Q17.2 31.3 17.0 31.65" fill="#e2e2e2" fill-rule="evenodd" stroke="none"/>
    <path d="M-0.6 16.25 Q-0.65 17.25 -0.5 17.1 0.25 18.75 3.1 19.7 5.65 20.6 8.65 20.45 11.45 20.3 13.9 19.15 16.35 17.95 17.25 16.35 L17.2 15.25 17.0 14.65 Q16.75 14.3 16.75 14.55 16.8 16.35 14.2 17.9 11.65 19.4 8.35 19.55 5.45 19.7 2.8 18.6 0.45 17.7 -0.6 16.25" fill="#e2e2e2" fill-rule="evenodd" stroke="none"/>
    <path d="M17.3 16.15 Q16.65 18.25 13.45 19.45 L13.55 22.75 Q15.2 22.05 16.85 20.15 18.05 18.7 17.3 16.15" fill="#ffffff" fill-rule="evenodd" stroke="none"/>
    <path d="M16.85 35.3 L15.6 36.85 14.25 37.55 14.2 34.35 Q16.6 33.4 17.25 31.4 L17.3 32.45 16.85 35.3" fill="#ffffff" fill-rule="evenodd" stroke="none"/>
    <path d="M15.4 8.05 Q17.2 10.25 16.4 12.9 15.7 14.65 12.85 16.35 11.45 17.25 10.15 17.75 11.9 17.5 13.8 16.55 16.65 15.15 17.25 12.85 17.7 11.05 16.65 9.35 L15.4 8.05" fill="#ffe8c0" fill-rule="evenodd" stroke="none"/>
    <path d="M-0.45 20.05 Q-0.8 19.3 -0.7 17.0 0.35 18.95 2.95 19.75 L5.3 20.25 5.7 23.7 Q2.6 23.35 0.9 21.95 -0.1 21.0 -0.45 20.05" fill="#6d6d6d" fill-rule="evenodd" stroke="none"/>
    <path d="M-0.15 17.65 L-0.5 16.5 -0.5 20.4 0.2 21.3 1.05 22.05 2.0 22.5 1.8 19.05 -0.15 17.65" fill="#474747" fill-rule="evenodd" stroke="none"/>
    <path d="M15.0 34.8 L14.9 35.7 15.75 35.95 16.65 35.35 16.65 34.4 15.85 34.15 15.0 34.8" fill="#000000" fill-rule="evenodd" stroke="none"/>
    <path d="M0.6 31.15 Q0.8 34.25 1.05 34.95 2.5 38.05 7.0 38.55 L6.7 35.35 4.25 34.75 Q1.65 33.55 0.6 31.15" fill="#6d6d6d" fill-rule="evenodd" stroke="none"/>
    <path d="M1.15 35.65 Q0.6 34.2 0.55 32.5 L0.6 31.05 1.0 32.35 1.95 33.4 2.95 34.1 3.25 37.5 2.55 37.15 1.15 35.65" fill="#474747" fill-rule="evenodd" stroke="none"/>
    <path d="M8.65 37.3 L9.2 38.25 10.35 38.25 10.95 37.2 10.35 36.2 9.2 36.25 8.65 37.3" fill="#000000" fill-rule="evenodd" stroke="none"/>
    <path d="M4.85 38.15 L4.55 34.85 3.8 34.5 4.05 37.8 4.85 38.15" fill="#474747" fill-rule="evenodd" stroke="none"/>
    <path d="M1.95 33.95 L1.25 34.3 1.2 35.05 1.9 35.5 2.6 35.15 2.55 34.4 1.95 33.95" fill="#000000" fill-rule="evenodd" stroke="none"/>
    <path d="M13.15 22.95 L12.95 19.6 Q12.4 19.75 11.95 19.95 L12.15 23.3 13.15 22.95" fill="#ffffff" fill-rule="evenodd" stroke="none"/>
    <path d="M13.95 37.7 L13.75 34.5 12.8 34.9 12.95 38.05 13.95 37.7" fill="#ffffff" fill-rule="evenodd" stroke="none"/>
    <path d="M11.4 23.4 L11.15 20.1 10.4 20.3 10.6 23.65 11.4 23.4" fill="#ffffff" fill-rule="evenodd" stroke="none"/>
    <path d="M12.2 38.3 L12.05 35.1 11.25 35.25 11.5 38.4 12.2 38.3" fill="#ffffff" fill-rule="evenodd" stroke="none"/>
    <path d="M7.0 24.0 L6.35 23.95 6.1 20.45 6.85 20.45 7.0 24.0" fill="#6d6d6d" fill-rule="evenodd" stroke="none"/>
    <path d="M8.35 38.7 L8.05 35.5 7.3 35.45 7.55 38.65 8.35 38.7" fill="#6d6d6d" fill-rule="evenodd" stroke="none"/>
    <path d="M3.4 23.15 L3.15 19.55 2.35 19.15 2.65 22.95 3.4 23.15" fill="#474747" fill-rule="evenodd" stroke="none"/>
    <path d="M15.2 18.8 L15.25 19.9 16.15 20.3 17.05 19.65 16.95 18.7 16.0 18.25 15.2 18.8" fill="#000000" fill-rule="evenodd" stroke="none"/>
    <path d="M7.7 22.35 L8.2 23.35 9.35 23.35 9.95 22.45 9.5 21.45 8.35 21.45 7.7 22.35" fill="#000000" fill-rule="evenodd" stroke="none"/>
    <path d="M1.1 20.25 L1.15 21.25 2.0 21.7 2.85 21.15 2.8 20.15 1.95 19.75 1.1 20.25" fill="#000000" fill-rule="evenodd" stroke="none"/>
    <path d="M11.65 6.55 Q12.95 6.85 14.1 7.5 L15.3 8.15 Q15.85 8.3 16.55 9.25 L16.6 9.35 Q17.7 11.05 17.25 12.85 L16.95 13.65 17.25 16.25 17.65 18.3 Q17.6 19.8 17.35 20.35 L16.35 21.75 16.25 24.6 16.95 30.1 17.0 30.35 17.15 31.05 17.25 31.5 17.25 31.4 17.3 31.75 17.35 33.35 17.05 34.9 16.85 35.3 16.75 35.5 Q16.1 36.75 14.45 37.8 L13.7 38.2 Q11.95 39.05 9.55 39.2 L9.35 39.2 9.25 39.2 8.25 39.2 5.75 38.9 4.9 38.65 4.9 38.95 Q2.9 37.85 2.5 37.4 L2.05 36.7 1.15 35.6 Q0.8 34.65 0.6 32.8 L0.55 31.15 0.6 31.3 0.6 30.95 0.6 30.9 0.6 30.5 0.75 30.65 Q0.6 27.75 0.8 26.55 L0.35 22.05 -0.6 20.85 -0.65 20.1 -0.65 20.05 -0.7 17.95 -0.65 16.3 -0.45 16.55 -0.85 14.0 -1.15 12.2 -1.15 12.1 Q-0.9 10.05 1.35 8.3 2.85 7.3 4.7 6.8 5.1 5.25 5.6 4.7 6.65 4.0 8.0 3.85 L8.1 3.85 Q9.3 3.85 10.4 4.65 L11.3 5.65 11.3 5.75 11.65 6.55 Z" fill="none" stroke="#453129" stroke-linecap="round" stroke-linejoin="round" stroke-width="1.0"/>
  </g>
</svg>
