<?xml version="1.0" encoding="UTF-8" standalone="no"?>
<svg xmlns:xlink="http://www.w3.org/1999/xlink" height="12.7px" width="36.95px" xmlns="http://www.w3.org/2000/svg">
  <g transform="matrix(1.0, 0.0, 0.0, 1.0, 8.85, -22.8)">
    <path d="M22.35 33.85 L25.85 33.5 22.1 33.65 25.2 31.65 22.2 32.25 24.0 29.7 21.4 30.9 22.5 28.5 19.15 32.0 19.85 27.15 15.7 35.5 Q19.25 27.6 20.6 23.55 L20.15 29.7 26.7 22.8 22.65 29.8 26.8 27.55 23.05 31.7 26.9 30.4 24.55 32.9 28.1 33.4 22.35 33.85" fill="#ff9900" fill-rule="evenodd" stroke="none"/>
    <path d="M22.35 33.85 L19.65 34.3 23.45 32.5 20.55 33.05 22.6 30.9 19.45 33.3 21.55 29.65 18.1 34.2 18.9 30.45 15.7 35.5 19.85 27.15 19.15 32.0 22.5 28.5 21.4 30.9 24.0 29.7 22.2 32.25 25.2 31.65 22.1 33.65 25.85 33.5 22.35 33.85" fill="#ff6600" fill-rule="evenodd" stroke="none"/>
    <path d="M-3.8 34.05 L-6.9 33.75 -3.55 33.85 -6.3 32.1 -3.65 32.65 -5.25 30.4 -2.95 31.45 -3.9 29.3 -0.95 32.4 -1.6 28.15 2.1 35.5 Q-1.05 28.5 -2.25 24.95 L-1.85 30.4 -7.65 24.3 -4.05 30.45 -7.7 28.5 -4.4 32.15 -7.8 31.0 -5.75 33.2 -8.85 33.65 -3.8 34.05" fill="#ff9900" fill-rule="evenodd" stroke="none"/>
    <path d="M2.1 35.5 L-1.6 28.15 -0.95 32.4 -3.9 29.3 -2.95 31.45 -5.25 30.4 -3.65 32.65 -6.3 32.1 -3.55 33.85 -6.9 33.75 -3.8 34.05 -1.4 34.45 -4.75 32.85 -2.2 33.35 -4.0 31.45 -1.25 33.55 -3.1 30.35 -0.05 34.35 -0.75 31.05 2.1 35.5" fill="#ff6600" fill-rule="evenodd" stroke="none"/>
  </g>
</svg>
