<?xml version="1.0" encoding="UTF-8" standalone="no"?>
<svg xmlns:xlink="http://www.w3.org/1999/xlink" height="11.55px" width="11.55px" xmlns="http://www.w3.org/2000/svg">
  <g transform="matrix(1.0, 0.0, 0.0, 1.0, 0.0, 0.0)">
    <path d="M1.7 1.7 Q3.4 0.0 5.8 0.0 8.2 0.0 9.85 1.7 11.55 3.4 11.55 5.8 11.55 8.2 9.85 9.85 8.2 11.55 5.8 11.55 3.4 11.55 1.7 9.85 0.0 8.2 0.0 5.8 0.0 3.4 1.7 1.7" fill="#2c5926" fill-rule="evenodd" stroke="none"/>
    <path d="M5.8 0.3 Q8.05 0.3 9.6 1.9 11.2 3.5 11.2 5.8 11.2 8.05 9.6 9.65 8.05 11.25 5.8 11.25 3.55 11.25 1.95 9.65 0.35 8.05 0.35 5.8 0.35 3.5 1.95 1.9 3.55 0.3 5.8 0.3" fill="#b1dbac" fill-rule="evenodd" stroke="none"/>
    <path d="M10.75 5.85 Q10.75 7.8 9.3 9.2 7.9 10.6 5.85 10.6 3.8 10.6 2.35 9.2 0.95 7.8 0.95 5.85 0.95 3.85 2.35 2.45 3.8 1.1 5.85 1.1 7.9 1.1 9.3 2.45 10.75 3.85 10.75 5.85" fill="#4fa045" fill-rule="evenodd" stroke="none"/>
    <path d="M2.85 8.7 Q1.6 7.55 1.6 5.85 1.6 4.15 2.85 2.9 4.1 1.75 5.85 1.75 7.6 1.75 8.8 2.9 10.05 4.15 10.05 5.85 10.05 7.55 8.8 8.7 7.6 9.95 5.85 9.95 4.1 9.95 2.85 8.7" fill="#fef189" fill-rule="evenodd" stroke="none"/>
    <path d="M3.95 2.1 L6.0 5.75 9.5 3.75 9.7 4.05 6.15 6.05 8.0 9.35 7.7 9.55 5.85 6.2 2.3 8.15 2.15 7.9 5.7 5.95 3.7 2.3 3.95 2.1" fill="#4d4400" fill-rule="evenodd" stroke="none"/>
    <path d="M5.85 3.85 Q6.7 3.85 7.3 4.5 7.9 5.15 7.9 6.0 7.9 6.85 7.3 7.45 6.7 8.05 5.85 8.05 4.95 8.05 4.35 7.45 3.75 6.85 3.75 6.0 3.75 5.15 4.35 4.5 4.95 3.85 5.85 3.85" fill="#aa6600" fill-rule="evenodd" stroke="none"/>
    <path d="M7.1 4.3 Q7.65 4.8 7.65 5.55 7.65 6.3 7.1 6.8 6.6 7.3 5.85 7.3 5.1 7.3 4.55 6.8 4.0 6.3 4.0 5.55 4.0 4.8 4.55 4.3 5.1 3.75 5.85 3.75 6.6 3.75 7.1 4.3" fill="#ff5209" fill-rule="evenodd" stroke="none"/>
    <path d="M5.85 3.95 Q6.35 3.95 6.7 4.3 L7.0 5.1 6.7 5.9 Q6.35 6.25 5.85 6.25 5.4 6.25 5.05 5.9 4.75 5.6 4.75 5.1 4.75 4.6 5.05 4.3 5.4 3.95 5.85 3.95" fill="#ff8b6f" fill-rule="evenodd" stroke="none"/>
    <path d="M5.75 5.15 L5.4 4.9 Q5.25 4.65 5.35 4.4 L5.75 4.05 6.25 3.95 6.65 4.2 6.65 4.65 6.3 5.05 5.75 5.15" fill="#ffe6d5" fill-rule="evenodd" stroke="none"/>
  </g>
</svg>
