<?xml version="1.0" encoding="UTF-8" standalone="no"?>
<svg xmlns:xlink="http://www.w3.org/1999/xlink" height="17.2px" width="14.35px" xmlns="http://www.w3.org/2000/svg">
  <g transform="matrix(1.0, 0.0, 0.0, 1.0, 0.1, 3.75)">
    <path d="M6.15 -2.0 L6.2 -2.0 6.45 -2.1 6.5 -2.15 7.1 -2.45 7.15 -2.5 7.2 -2.55 7.55 -2.7 7.65 -2.85 7.65 -2.9 Q8.25 -3.75 9.3 -3.75 L10.35 -3.55 10.45 -3.5 Q11.9 -2.9 13.05 -1.25 14.2 0.45 14.25 2.15 14.25 3.35 13.5 4.0 L13.45 4.05 13.4 4.05 12.6 4.55 12.45 4.7 11.15 5.75 11.1 5.75 10.95 5.8 10.85 5.9 10.8 5.95 10.75 5.95 12.9 9.45 13.55 10.5 13.85 11.4 Q13.85 12.35 13.0 12.95 L13.0 12.9 12.65 13.15 11.7 13.45 11.65 13.45 Q10.75 13.45 10.25 12.7 L9.95 12.3 7.4 8.05 7.3 8.1 7.25 8.2 7.2 8.2 7.15 8.25 7.05 8.3 6.35 8.8 5.6 9.15 5.6 9.2 5.55 9.2 5.15 9.3 5.1 9.3 5.0 9.35 4.9 9.4 4.85 9.4 4.0 9.5 2.95 9.25 2.65 9.15 2.55 9.05 2.15 8.8 1.95 8.65 1.25 7.95 1.2 7.9 0.75 7.35 0.75 7.3 0.2 6.15 0.0 5.55 0.0 5.45 -0.1 4.55 Q-0.1 3.55 0.35 3.0 L0.45 2.9 0.4 2.95 0.85 2.45 1.25 2.0 1.35 1.9 Q1.75 1.55 2.2 1.35 L2.25 1.3 2.3 1.3 2.75 0.95 2.9 0.9 3.05 0.85 3.15 0.85 3.2 0.85 4.55 -0.05 4.7 -0.15 5.1 -0.5 5.25 -1.0 5.3 -1.05 6.05 -1.85 6.05 -1.9 6.15 -2.0 M9.3 -2.2 L8.95 -2.05 8.7 -1.7 8.7 -1.65 8.45 -1.45 8.05 -1.25 7.3 -0.85 7.2 -0.8 7.0 -0.65 6.65 -0.35 6.55 0.0 6.3 0.5 5.0 1.55 5.0 1.6 4.7 1.7 4.45 1.9 4.4 1.95 4.35 2.0 3.15 2.7 2.65 2.85 2.35 3.05 2.3 3.1 2.25 3.15 2.05 3.4 2.0 3.45 1.75 3.7 1.65 3.85 1.6 3.85 1.55 3.9 Q1.4 4.15 1.4 4.55 L1.5 5.25 1.6 5.65 2.1 6.6 2.15 6.65 2.35 6.9 2.4 6.95 2.95 7.45 3.25 7.7 3.3 7.75 3.35 7.8 3.4 7.8 3.95 8.0 4.5 7.9 4.6 7.85 4.8 7.8 4.9 7.8 4.95 7.8 5.1 7.75 6.0 7.2 6.2 6.9 7.05 6.2 7.0 6.25 Q7.25 6.0 7.6 6.05 L8.15 6.4 11.2 11.45 11.45 11.75 11.5 11.85 11.7 11.9 11.8 11.9 12.2 11.65 12.3 11.45 12.25 11.25 11.6 10.25 11.6 10.2 8.95 5.9 Q8.7 5.65 8.85 5.3 L9.15 4.8 9.5 4.65 9.95 4.5 10.15 4.5 10.25 4.45 10.4 4.4 11.1 3.85 11.4 3.45 12.55 2.8 12.75 2.15 Q12.75 1.0 11.8 -0.4 10.8 -1.75 9.75 -2.15 L9.65 -2.15 9.7 -2.15 9.3 -2.2" fill="#453129" fill-rule="evenodd" stroke="none"/>
    <path d="M9.2 4.8 L12.9 10.8 13.0 11.55 12.6 12.2 12.2 12.45 11.45 12.6 10.85 12.15 7.25 6.35 7.05 5.75 7.3 5.1 7.85 4.55 8.55 4.4 9.2 4.8" fill="#9e6720" fill-rule="evenodd" stroke="none"/>
    <path d="M7.05 5.8 Q7.05 5.2 7.75 4.7 L7.55 5.2 Q7.35 5.85 7.7 6.4 L10.9 11.35 10.85 11.75 Q10.8 12.15 11.15 12.35 L10.6 11.8 7.25 6.35 7.05 5.8" fill="#aa8052" fill-rule="evenodd" stroke="none"/>
    <path d="M9.05 4.7 Q12.95 10.6 12.9 11.2 12.8 10.6 12.25 10.45 L8.4 4.4 8.65 4.45 9.05 4.7" fill="#7f4f08" fill-rule="evenodd" stroke="none"/>
    <path d="M4.95 0.5 L2.05 3.6 Q1.6 4.25 1.7 5.4 L1.95 6.45 Q1.0 4.45 1.65 3.4 2.35 2.3 4.95 0.5" fill="#ffffff" fill-rule="evenodd" stroke="none"/>
    <path d="M7.25 -1.5 L9.15 -3.0 12.5 3.3 Q12.3 3.65 10.7 4.65 L7.8 6.45 6.0 7.75 4.9 8.45 4.75 8.55 3.15 8.45 Q2.25 8.0 1.5 7.0 0.8 6.0 0.65 4.95 0.5 3.95 0.95 3.35 L2.5 2.15 4.45 0.95 7.25 -1.5" fill="#ceb27a" fill-rule="evenodd" stroke="none"/>
    <path d="M8.7 -0.75 Q8.8 -0.1 9.55 1.15 L1.75 7.3 0.95 6.0 0.7 5.3 4.55 2.75 8.7 -0.75" fill="#aa8052" fill-rule="evenodd" stroke="none"/>
    <path d="M9.75 0.95 L11.2 2.6 3.05 8.45 1.95 7.5 1.45 6.95 5.25 4.45 9.75 0.95" fill="#9e6720" fill-rule="evenodd" stroke="none"/>
    <path d="M10.85 2.45 L12.95 3.35 7.8 6.45 6.45 7.6 5.4 8.35 3.8 8.65 Q3.55 8.65 2.75 8.25 L10.85 2.45" fill="#7f4f08" fill-rule="evenodd" stroke="none"/>
    <path d="M7.05 -1.65 Q6.2 -1.05 6.8 0.25 L8.45 2.7 Q9.0 3.5 10.45 3.85 L11.85 4.05 10.4 5.2 Q9.55 5.35 8.55 4.8 L6.8 3.15 Q6.05 2.1 5.85 1.05 5.6 0.0 5.95 -0.8 L6.55 -1.4 7.05 -1.65" fill="#7f4f08" fill-rule="evenodd" stroke="none"/>
    <path d="M2.15 2.45 Q1.35 3.0 1.95 4.15 L3.5 6.4 Q4.1 7.2 5.4 7.5 L6.6 7.55 5.05 8.45 Q3.3 8.75 1.9 6.8 0.45 4.75 1.1 3.2 L1.7 2.65 2.15 2.45" fill="#7f4f08" fill-rule="evenodd" stroke="none"/>
    <path d="M6.1 0.9 Q5.9 -0.15 6.25 -0.9 L6.8 -1.55 7.35 -1.8 7.25 -0.7 Q7.25 0.6 7.85 1.55 L9.25 3.3 Q10.15 3.95 11.95 4.05 L10.7 5.0 Q9.85 5.2 8.85 4.6 7.8 4.05 7.05 3.0 6.35 1.95 6.1 0.9" fill="#bcbcbc" fill-rule="evenodd" stroke="none"/>
    <path d="M10.4 -2.65 Q11.5 -2.1 12.4 -0.8 13.3 0.45 13.45 1.7 13.65 2.95 13.0 3.4 L11.2 3.3 Q10.05 2.75 9.15 1.45 8.25 0.2 8.1 -1.05 7.95 -2.25 8.65 -2.75 L10.4 -2.65" fill="#ba9552" fill-rule="evenodd" stroke="none"/>
    <path d="M1.25 3.05 L1.85 2.4 Q2.35 1.95 2.85 1.85 L2.6 2.05 2.35 2.25 Q1.7 3.8 3.1 5.7 3.75 6.65 4.9 7.15 L6.85 7.4 5.3 8.4 Q4.5 8.5 3.65 8.05 L2.05 6.55 Q0.65 4.6 1.25 3.05" fill="#bcbcbc" fill-rule="evenodd" stroke="none"/>
    <path d="M2.35 2.25 L2.75 1.8 2.95 1.65 Q2.45 2.1 2.55 3.25 2.65 4.45 3.45 5.55 4.15 6.5 5.2 7.05 L6.85 7.4 6.5 7.6 4.75 7.25 3.1 5.7 Q1.7 3.8 2.35 2.25" fill="#e2e2e2" fill-rule="evenodd" stroke="none"/>
    <path d="M11.9 4.05 L11.65 4.25 Q10.9 4.4 9.85 3.75 8.9 3.1 8.2 2.1 7.5 1.15 7.25 0.05 7.0 -1.05 7.3 -1.75 7.35 -1.95 7.65 -2.0 L7.9 -2.1 8.0 -2.05 Q7.4 -1.6 7.55 -0.35 7.75 0.85 8.55 1.95 9.25 2.95 10.25 3.55 11.2 4.05 11.9 4.05" fill="#e2e2e2" fill-rule="evenodd" stroke="none"/>
    <path d="M7.35 -1.8 Q6.8 -1.1 7.25 0.25 L6.15 1.1 Q5.95 0.4 6.15 -0.65 6.3 -1.45 7.35 -1.8" fill="#ffffff" fill-rule="evenodd" stroke="none"/>
    <path d="M2.4 2.1 Q1.9 2.8 2.2 3.85 L1.15 4.7 1.05 4.05 1.2 3.25 1.85 2.4 2.4 2.1" fill="#ffffff" fill-rule="evenodd" stroke="none"/>
    <path d="M10.0 -2.95 Q8.95 -3.05 8.5 -2.25 8.2 -1.65 8.45 -0.35 L8.8 0.8 8.2 -0.6 Q7.8 -1.85 8.25 -2.55 8.65 -3.05 9.35 -3.05 L10.0 -2.95" fill="#ffe8c0" fill-rule="evenodd" stroke="none"/>
    <path d="M11.7 4.25 L10.65 4.95 9.7 5.0 Q8.75 4.8 7.85 3.9 L9.1 3.1 9.85 3.75 Q10.8 4.4 11.7 4.25" fill="#6d6d6d" fill-rule="evenodd" stroke="none"/>
    <path d="M11.35 4.25 L11.85 4.05 10.55 5.05 10.1 5.05 9.6 5.0 9.2 4.8 10.4 4.0 11.35 4.25" fill="#474747" fill-rule="evenodd" stroke="none"/>
    <path d="M2.0 3.6 L1.65 3.85 1.25 3.65 1.2 3.25 1.6 3.0 1.95 3.15 2.0 3.6" fill="#000000" fill-rule="evenodd" stroke="none"/>
    <path d="M6.75 7.5 L5.4 8.35 Q4.05 8.65 2.7 7.3 L3.8 6.55 4.65 7.2 Q5.7 7.75 6.75 7.5" fill="#6d6d6d" fill-rule="evenodd" stroke="none"/>
    <path d="M4.3 8.4 L4.0 8.25 5.2 7.45 5.65 7.6 6.25 7.65 6.75 7.5 5.15 8.45 4.3 8.4" fill="#474747" fill-rule="evenodd" stroke="none"/>
    <path d="M2.75 6.55 L2.3 6.7 1.95 6.3 2.1 5.85 2.6 5.75 2.9 6.1 2.75 6.55" fill="#000000" fill-rule="evenodd" stroke="none"/>
    <path d="M4.9 8.0 L4.6 8.25 4.25 8.05 4.25 7.65 4.55 7.45 4.9 7.65 4.9 8.0" fill="#3d3d3d" fill-rule="evenodd" stroke="none"/>
    <path d="M3.4 7.9 L4.55 7.15 4.85 7.3 3.7 8.1 3.4 7.9" fill="#474747" fill-rule="evenodd" stroke="none"/>
    <path d="M5.05 8.1 L4.7 8.4 4.35 8.2 4.3 7.75 4.6 7.5 5.0 7.7 5.05 8.1" fill="#000000" fill-rule="evenodd" stroke="none"/>
    <path d="M6.2 1.3 L7.35 0.5 7.5 0.9 6.35 1.7 6.2 1.3" fill="#ffffff" fill-rule="evenodd" stroke="none"/>
    <path d="M1.2 4.85 L2.25 4.05 2.4 4.5 1.35 5.25 1.2 4.85" fill="#ffffff" fill-rule="evenodd" stroke="none"/>
    <path d="M6.5 1.95 L7.6 1.2 7.75 1.5 6.6 2.3 6.5 1.95" fill="#ffffff" fill-rule="evenodd" stroke="none"/>
    <path d="M1.45 5.55 L2.5 4.8 2.65 5.05 1.6 5.8 1.45 5.55" fill="#ffffff" fill-rule="evenodd" stroke="none"/>
    <path d="M7.45 3.5 L8.65 2.65 8.8 2.9 7.65 3.75 7.45 3.5" fill="#6d6d6d" fill-rule="evenodd" stroke="none"/>
    <path d="M2.3 6.9 L3.4 6.2 3.65 6.4 2.5 7.15 2.3 6.9" fill="#6d6d6d" fill-rule="evenodd" stroke="none"/>
    <path d="M8.65 4.5 Q9.25 4.1 9.9 3.65 L10.2 3.8 8.9 4.7 8.65 4.5" fill="#474747" fill-rule="evenodd" stroke="none"/>
    <path d="M7.0 -0.45 L6.65 -0.2 6.3 -0.4 6.25 -0.85 6.6 -1.05 7.0 -0.85 7.0 -0.45" fill="#000000" fill-rule="evenodd" stroke="none"/>
    <path d="M7.8 2.9 L7.35 3.0 7.05 2.65 7.2 2.2 7.6 2.1 7.95 2.45 7.8 2.9" fill="#000000" fill-rule="evenodd" stroke="none"/>
    <path d="M10.2 4.5 L9.85 4.75 9.5 4.6 9.45 4.15 9.75 3.9 10.15 4.1 10.2 4.5" fill="#000000" fill-rule="evenodd" stroke="none"/>
    <path d="M11.25 1.7 Q10.55 1.65 10.0 0.65 9.55 -0.2 9.55 -1.0 9.55 -1.8 10.35 -1.8 L11.4 -1.3 Q12.0 -0.8 12.0 -0.2 L11.8 0.25 11.45 0.4 Q11.1 0.4 10.95 0.2 L10.75 -0.2 10.95 -0.45" fill="none" stroke="#603200" stroke-linecap="round" stroke-linejoin="round" stroke-width="0.05"/>
  </g>
</svg>
