<?xml version="1.0" encoding="UTF-8" standalone="no"?>
<svg xmlns:xlink="http://www.w3.org/1999/xlink" height="15.6px" width="12.9px" xmlns="http://www.w3.org/2000/svg">
  <g transform="matrix(1.0, 0.0, 0.0, 1.0, -3.85, -0.35)">
    <path d="M11.05 2.15 L11.1 2.15 11.8 2.1 12.35 2.6 12.5 3.05 12.6 3.4 Q14.0 4.25 15.05 5.75 16.25 7.5 16.25 9.4 16.2 11.2 14.85 12.4 L14.65 12.5 Q15.0 13.45 14.35 13.9 L12.35 14.95 10.65 15.45 10.15 15.35 Q9.65 15.35 9.35 14.9 L9.2 14.9 8.15 14.55 Q7.7 14.3 7.4 13.7 L7.35 13.65 Q6.65 13.35 6.35 12.5 L5.95 11.45 5.7 11.45 Q5.45 11.45 5.35 11.1 5.2 10.8 5.65 10.65 L4.7 8.0 Q4.4 7.15 4.7 6.4 L4.8 6.3 4.35 5.1 Q4.3 4.45 4.8 4.1 L5.0 3.8 5.2 3.75 4.75 2.6 5.6 2.25 5.25 1.15 6.15 0.85 6.45 1.7 7.25 1.4 7.35 1.7 7.95 1.5 7.95 1.55 8.15 1.45 8.45 2.25 9.3 1.95 9.8 3.35 10.55 3.35 10.6 3.35 Q10.4 3.0 10.5 2.65 10.65 2.3 11.05 2.15 M11.95 4.25 L11.7 4.35 13.1 8.15 13.2 8.15 13.45 8.55 13.4 8.95 14.4 11.7 14.85 11.0 Q15.65 9.6 15.15 7.75 14.6 5.9 12.55 4.4 L12.25 4.1 12.0 4.25 11.95 4.25" fill="#fcadbf" fill-rule="evenodd" stroke="none"/>
    <path d="M11.05 2.15 L11.1 2.15 11.8 2.1 12.35 2.6 12.5 3.05 12.6 3.4 Q14.0 4.25 15.05 5.75 16.25 7.5 16.25 9.4 16.2 11.2 14.85 12.4 L14.65 12.5 Q15.0 13.45 14.35 13.9 L12.35 14.95 10.65 15.45 10.15 15.35 Q9.65 15.35 9.35 14.9 L9.2 14.9 8.15 14.55 Q7.7 14.3 7.4 13.7 L7.35 13.65 Q6.65 13.35 6.35 12.5 L5.95 11.45 5.7 11.45 Q5.45 11.45 5.35 11.1 5.2 10.8 5.65 10.65 L4.7 8.0 Q4.4 7.15 4.7 6.4 L4.8 6.3 4.35 5.1 Q4.3 4.45 4.8 4.1 L5.0 3.8 5.2 3.75 4.75 2.6 5.6 2.25 5.25 1.15 6.15 0.85 6.45 1.7 7.25 1.4 7.35 1.7 7.95 1.5 7.95 1.55 8.15 1.45 8.45 2.25 9.3 1.95 9.8 3.35 10.55 3.35 10.6 3.35 Q10.4 3.0 10.5 2.65 10.65 2.3 11.05 2.15 M11.95 4.25 L11.7 4.35 13.1 8.15 13.2 8.15 13.45 8.55 13.4 8.95 14.4 11.7 14.85 11.0 Q15.65 9.6 15.15 7.75 14.6 5.9 12.55 4.4 L12.25 4.1 12.0 4.25 11.95 4.25" fill="none" stroke="#351e1a" stroke-linecap="round" stroke-linejoin="round" stroke-width="1.0"/>
    <path d="M5.0 4.05 Q4.3 4.6 4.35 5.3 L7.6 13.85 Q8.05 14.8 9.1 14.85 11.05 14.5 12.2 13.5 13.05 13.0 12.55 11.75 L9.4 3.4 Q9.05 2.95 8.5 2.9 L7.75 2.95 7.25 1.55 6.45 1.85 6.15 1.05 5.2 1.35 5.5 2.15 4.65 2.5 5.15 3.95 Q5.05 3.95 5.0 4.05" fill="#980101" fill-rule="evenodd" stroke="none"/>
    <path d="M7.8 2.85 L8.45 2.85 Q9.1 2.85 9.5 3.3 L12.5 11.65 Q13.05 12.95 12.25 13.4 11.25 14.25 9.65 14.65 L10.55 14.0 Q11.35 13.55 10.8 12.3 L7.75 3.95 Q7.4 3.45 6.75 3.45 L6.05 3.5 5.2 1.25 6.15 0.9 6.45 1.75 7.25 1.45 7.8 2.85" fill="#750202" fill-rule="evenodd" stroke="none"/>
    <path d="M5.05 3.85 L5.65 3.65 5.4 3.9 Q4.95 4.25 5.0 4.85 L8.05 13.25 Q8.35 14.6 9.3 14.4 L10.95 14.15 8.65 14.65 Q7.75 14.8 7.35 13.5 L4.35 5.1 Q4.35 4.5 4.8 4.1 L5.05 3.85" fill="#760101" fill-rule="evenodd" stroke="none"/>
    <path d="M8.4 6.55 Q8.15 5.75 7.4 5.4 L5.9 5.35 5.85 5.35 Q5.05 5.65 4.7 6.4 4.35 7.15 4.6 7.95 L6.3 12.5 Q6.55 13.3 7.3 13.6 L8.85 13.65 8.9 13.65 Q9.7 13.35 10.0 12.6 10.35 11.9 10.1 11.1 L8.4 6.55" fill="#ee0000" fill-rule="evenodd" stroke="none"/>
    <path d="M7.05 2.75 L6.8 1.95 7.75 1.65 8.0 2.45 8.8 2.15 9.35 3.55 10.05 3.5 Q10.65 3.5 10.95 4.0 L14.1 12.4 Q14.65 13.6 13.8 14.1 12.6 15.1 10.65 15.45 9.6 15.35 9.15 14.45 L5.95 5.95 Q5.85 5.25 6.55 4.65 L6.75 4.5 6.2 3.05 7.05 2.75" fill="#ee0000" fill-rule="evenodd" stroke="none"/>
    <path d="M7.3 2.7 L7.05 1.9 7.95 1.55 8.75 3.75 8.15 4.2 Q7.75 4.55 7.75 5.25 L10.75 13.55 Q11.15 14.85 12.1 14.7 L13.15 14.6 Q11.7 15.35 10.35 15.35 9.45 15.5 9.0 14.15 L6.05 5.85 Q6.0 5.2 6.45 4.8 L7.05 4.35 6.5 2.95 7.3 2.7" fill="#3c0d0d" fill-rule="evenodd" stroke="none"/>
    <path d="M6.65 2.85 L7.5 2.55 7.25 1.75 8.2 1.45 8.45 2.25 9.25 1.95 9.8 3.35 10.5 3.3 Q11.1 3.3 11.4 3.8 L14.55 12.2 Q15.1 13.4 14.25 13.9 13.05 14.9 11.1 15.25 10.05 15.15 9.6 14.25 L6.4 5.75 Q6.3 5.05 7.0 4.45 L7.2 4.3 6.65 2.85" fill="#ee0000" fill-rule="evenodd" stroke="none"/>
    <path d="M14.0 12.3 Q14.5 13.55 13.7 14.0 12.9 14.7 11.75 15.1 L13.05 14.25 Q13.9 13.75 13.4 12.55 L10.3 4.15 Q9.95 3.7 9.35 3.7 L9.05 3.65 9.65 3.4 9.95 3.5 Q10.55 3.5 10.95 3.9 L14.0 12.3" fill="#760101" fill-rule="evenodd" stroke="none"/>
    <path d="M6.95 4.55 L7.45 4.4 7.3 5.1 Q7.2 5.6 7.6 7.05 L10.0 13.7 Q10.4 14.95 11.1 14.9 L12.3 14.85 10.55 15.1 Q9.95 15.1 9.5 13.9 L6.55 5.65 Q6.45 5.05 6.8 4.75 L6.95 4.55" fill="#f36464" fill-rule="evenodd" stroke="none"/>
    <path d="M8.35 3.55 L7.6 3.85 7.15 2.55 7.9 2.25 8.35 3.55" fill="#ff9f9f" fill-rule="evenodd" stroke="none"/>
    <path d="M7.55 10.6 Q7.5 10.4 8.0 10.05 8.5 9.7 9.3 9.4 L12.05 8.4 13.1 8.1 13.35 8.5 13.25 9.0 12.4 9.45 9.65 10.45 8.25 10.8 Q7.65 10.8 7.55 10.6" fill="#110000" fill-rule="evenodd" stroke="none"/>
    <path d="M11.9 3.05 Q13.75 3.95 15.05 5.75 16.3 7.55 16.25 9.45 16.2 11.25 14.9 12.45 13.9 13.25 12.8 13.5 10.75 13.7 9.1 12.65 L6.85 11.05 6.85 10.95 6.75 10.6 Q6.7 10.1 9.15 11.95 10.5 12.85 12.2 12.7 14.1 12.55 14.9 11.05 15.75 9.6 15.15 7.75 14.65 5.9 12.6 4.45 10.55 2.9 11.9 3.05" fill="#fcadbf" fill-rule="evenodd" stroke="none"/>
    <path d="M5.3 11.15 Q5.2 10.8 5.6 10.6 L6.8 10.2 9.15 9.85 10.25 9.7 10.65 10.1 10.1 10.55 8.95 10.9 6.65 11.35 5.7 11.45 Q5.4 11.45 5.3 11.15" fill="#110000" fill-rule="evenodd" stroke="none"/>
    <path d="M11.95 4.25 L12.0 4.25 12.5 3.75 12.5 3.05 12.3 2.6 11.8 2.05 11.1 2.1 11.05 2.1 10.55 2.6 10.6 3.3 10.8 3.75 11.25 4.3 11.95 4.25" fill="#fd0202" fill-rule="evenodd" stroke="none"/>
  </g>
</svg>
