<?xml version="1.0" encoding="UTF-8" standalone="no"?>
<svg xmlns:xlink="http://www.w3.org/1999/xlink" height="9.75px" width="11.8px" xmlns="http://www.w3.org/2000/svg">
  <g transform="matrix(1.0, 0.0, 0.0, 1.0, -5.05, -2.65)">
    <path d="M15.25 4.0 L15.35 4.15 Q16.35 5.5 16.45 6.9 16.75 7.95 15.7 9.2 14.6 10.6 12.5 11.4 10.45 12.25 8.65 12.0 7.1 11.8 6.55 10.9 5.4 9.55 5.4 7.9 L5.45 7.9 Q5.4 6.95 6.25 5.85 7.35 4.45 9.4 3.6 11.5 2.8 13.25 3.05 14.6 3.25 15.2 3.95 L15.25 4.0" fill="#2c5926" fill-rule="evenodd" stroke="none"/>
    <path d="M15.25 4.0 L15.35 4.15 Q16.35 5.5 16.45 6.9 16.75 7.95 15.7 9.2 14.6 10.6 12.5 11.4 10.45 12.25 8.65 12.0 7.1 11.8 6.55 10.9 5.4 9.55 5.4 7.9 L5.45 7.9 Q5.4 6.95 6.25 5.85 7.35 4.45 9.4 3.6 11.5 2.8 13.25 3.05 14.6 3.25 15.2 3.95 L15.25 4.0 Z" fill="none" stroke="#2c5926" stroke-linecap="round" stroke-linejoin="round" stroke-width="0.75"/>
    <path d="M7.15 7.9 Q8.3 6.55 10.4 5.7 12.45 4.9 14.2 5.1 16.0 5.35 16.45 6.5 16.9 7.7 15.8 9.05 14.65 10.45 12.6 11.25 10.5 12.1 8.75 11.85 6.95 11.65 6.5 10.45 6.05 9.3 7.15 7.9" fill="#2c5926" fill-rule="evenodd" stroke="none"/>
    <path d="M15.2 3.8 Q16.7 5.7 16.4 7.6 L7.0 11.3 Q5.35 9.75 5.4 7.85 L15.2 3.8" fill="#2c5926" fill-rule="evenodd" stroke="none"/>
    <path d="M6.25 5.75 Q7.35 4.35 9.4 3.5 11.45 2.7 13.3 2.95 15.05 3.2 15.55 4.4 16.05 5.6 14.9 7.05 13.75 8.5 11.7 9.3 9.65 10.15 7.85 9.85 6.1 9.6 5.6 8.4 5.1 7.2 6.25 5.75" fill="#b1dbac" fill-rule="evenodd" stroke="none"/>
    <path d="M7.05 5.65 Q8.05 4.5 9.75 3.8 11.45 3.15 12.9 3.3 14.35 3.55 14.75 4.5 15.15 5.45 14.2 6.55 13.25 7.75 11.55 8.4 9.85 9.1 8.35 8.9 6.9 8.7 6.5 7.75 6.1 6.8 7.05 5.65" fill="#4d4400" fill-rule="evenodd" stroke="none"/>
    <path d="M6.6 5.7 Q7.65 4.4 9.55 3.65 11.45 2.9 13.1 3.1 14.75 3.3 15.2 4.4 15.65 5.5 14.6 6.8 13.55 8.15 11.65 8.9 9.75 9.65 8.1 9.4 6.45 9.15 6.0 8.05 5.55 6.95 6.6 5.7" fill="#4fa045" fill-rule="evenodd" stroke="none"/>
    <path d="M7.2 5.7 Q8.15 4.6 9.8 3.95 11.5 3.25 12.9 3.45 14.35 3.6 14.75 4.55 15.1 5.45 14.15 6.65 13.25 7.75 11.6 8.4 9.95 9.05 8.5 8.9 7.1 8.7 6.75 7.75 6.35 6.85 7.2 5.7" fill="#fef189" fill-rule="evenodd" stroke="none"/>
    <path d="M9.75 3.65 L11.55 8.2 11.35 8.3 9.55 3.75 9.75 3.65" fill="#4d4400" fill-rule="evenodd" stroke="none"/>
    <path d="M6.45 7.45 L14.55 4.2 14.65 4.4 6.55 7.65 6.45 7.45" fill="#4d4400" fill-rule="evenodd" stroke="none"/>
    <path d="M9.3 7.05 Q8.65 6.95 8.5 6.55 8.35 6.15 8.75 5.65 9.2 5.15 9.95 4.8 L11.4 4.6 Q12.1 4.65 12.25 5.05 12.4 5.45 11.95 6.0 L10.75 6.8 9.3 7.05" fill="#aa6600" fill-rule="evenodd" stroke="none"/>
    <path d="M9.45 6.7 Q8.8 6.6 8.6 6.1 8.4 5.65 8.8 5.1 9.15 4.55 9.85 4.25 L11.2 4.15 Q11.8 4.3 12.0 4.75 12.2 5.25 11.85 5.75 L10.75 6.55 9.45 6.7" fill="#ff5209" fill-rule="evenodd" stroke="none"/>
    <path d="M9.75 5.95 L9.2 5.45 Q9.1 5.15 9.3 4.8 9.55 4.45 10.0 4.25 L10.85 4.15 11.4 4.6 Q11.55 4.95 11.3 5.3 L10.65 5.8 9.75 5.95" fill="#ff8b6f" fill-rule="evenodd" stroke="none"/>
    <path d="M10.05 5.15 Q9.8 5.15 9.7 4.95 L9.8 4.55 10.1 4.25 10.55 4.25 10.8 4.5 10.8 4.85 10.45 5.15 10.05 5.15" fill="#ffe6d5" fill-rule="evenodd" stroke="none"/>
  </g>
</svg>
