<?xml version="1.0" encoding="UTF-8" standalone="no"?>
<svg xmlns:xlink="http://www.w3.org/1999/xlink" height="14.1px" width="12.7px" xmlns="http://www.w3.org/2000/svg">
  <g transform="matrix(1.0, 0.0, 0.0, 1.0, -2.6, 0.6)">
    <path d="M10.4 0.65 L10.45 0.65 11.55 0.85 13.3 1.9 14.15 2.75 13.45 3.85 12.8 4.05 13.65 5.7 Q14.15 7.4 13.35 9.0 L13.75 9.05 14.25 9.2 14.75 9.75 14.65 10.45 14.1 10.95 13.3 10.85 Q13.1 10.75 13.0 10.45 L12.55 10.1 10.5 11.3 8.4 11.45 8.25 11.9 8.1 12.45 7.6 12.95 6.8 12.85 6.35 12.3 Q6.25 11.9 6.5 11.55 L6.55 11.5 7.05 10.95 Q5.45 9.95 4.9 8.2 4.6 7.2 4.7 6.35 L4.15 6.55 3.1 6.0 3.25 4.8 4.15 3.0 5.05 2.25 5.1 2.3 5.05 2.0 Q4.85 1.3 5.5 1.05 L9.25 -0.05 Q9.9 -0.2 10.1 0.5 L10.2 1.0 10.4 0.65 M8.9 0.8 L6.3 1.55 Q5.8 1.65 6.0 2.15 L6.3 3.35 Q7.1 2.8 7.95 2.55 L9.9 2.4 9.5 1.1 Q9.35 0.6 8.9 0.8" fill="#000000" fill-rule="evenodd" stroke="none"/>
    <path d="M10.4 0.65 L10.45 0.65 11.55 0.85 13.3 1.9 14.15 2.75 13.45 3.85 12.8 4.05 13.65 5.7 Q14.15 7.4 13.35 9.0 L13.75 9.05 14.25 9.2 14.75 9.75 14.65 10.45 14.1 10.95 13.3 10.85 Q13.1 10.75 13.0 10.45 L12.55 10.1 10.5 11.3 8.4 11.45 8.25 11.9 8.1 12.45 7.6 12.95 6.8 12.85 6.35 12.3 Q6.25 11.9 6.5 11.55 L6.55 11.5 7.05 10.95 Q5.45 9.95 4.9 8.2 4.6 7.2 4.7 6.35 L4.15 6.55 3.1 6.0 3.25 4.8 4.15 3.0 5.05 2.25 5.1 2.3 5.05 2.0 Q4.85 1.3 5.5 1.05 L9.25 -0.05 Q9.9 -0.2 10.1 0.5 L10.2 1.0 10.4 0.65 M8.9 0.8 L6.3 1.55 Q5.8 1.65 6.0 2.15 L6.3 3.35 Q7.1 2.8 7.95 2.55 L9.9 2.4 9.5 1.1 Q9.35 0.6 8.9 0.8" fill="none" stroke="#7e0127" stroke-linecap="round" stroke-linejoin="round" stroke-width="1.0"/>
    <path d="M11.45 9.2 L12.1 8.65 14.15 9.15 13.15 10.6 11.45 9.2" fill="#fd0b6c" fill-rule="evenodd" stroke="none"/>
    <path d="M14.55 10.55 L14.0 11.0 13.25 10.9 12.85 10.35 Q12.7 9.95 12.9 9.6 L13.45 9.15 14.2 9.25 14.7 9.8 14.55 10.55" fill="#fd0b6c" fill-rule="evenodd" stroke="none"/>
    <path d="M14.35 10.1 L14.0 10.35 13.6 10.3 13.3 9.95 13.4 9.5 13.7 9.25 14.15 9.3 14.45 9.65 14.35 10.1" fill="#fe5699" fill-rule="evenodd" stroke="none"/>
    <path d="M14.3 9.9 L14.05 10.1 13.75 10.1 13.55 9.8 Q13.5 9.65 13.6 9.55 13.7 9.4 13.85 9.35 L14.15 9.35 14.3 9.6 14.3 9.9" fill="#ffcce1" fill-rule="evenodd" stroke="none"/>
    <path d="M8.7 10.2 L7.85 10.0 6.4 11.55 Q7.2 11.85 8.05 12.25 L8.7 10.2" fill="#fd0b6c" fill-rule="evenodd" stroke="none"/>
    <path d="M6.85 12.85 L7.6 12.9 8.15 12.5 8.25 11.75 7.8 11.2 7.05 11.05 Q6.65 11.2 6.5 11.55 6.25 11.9 6.4 12.3 L6.85 12.85" fill="#fd0b6c" fill-rule="evenodd" stroke="none"/>
    <path d="M6.75 12.45 L7.2 12.45 7.5 12.2 7.6 11.75 7.3 11.4 6.9 11.35 6.55 11.65 6.45 12.1 6.75 12.45" fill="#fe5699" fill-rule="evenodd" stroke="none"/>
    <path d="M6.65 12.3 L6.9 12.3 7.2 12.1 7.2 11.8 7.05 11.55 6.7 11.55 6.5 11.75 Q6.4 11.85 6.45 12.0 L6.65 12.3" fill="#ffcce1" fill-rule="evenodd" stroke="none"/>
    <path d="M5.7 3.7 L5.45 3.8 4.9 1.95 Q4.7 1.25 5.4 1.05 L9.1 -0.05 Q9.8 -0.25 10.0 0.45 L10.55 2.3 10.3 2.4 9.85 0.9 Q9.65 0.2 9.0 0.35 L5.65 1.35 Q5.05 1.5 5.25 2.2 L5.7 3.7" fill="#fc61ae" fill-rule="evenodd" stroke="none"/>
    <path d="M5.7 3.7 L5.25 2.2 Q5.05 1.5 5.65 1.35 L9.0 0.35 Q9.65 0.2 9.85 0.9 L10.3 2.4 9.85 2.5 9.45 1.1 Q9.3 0.6 8.85 0.75 L6.2 1.5 Q5.75 1.65 5.9 2.15 L6.3 3.55 5.7 3.7" fill="#fa3096" fill-rule="evenodd" stroke="none"/>
    <path d="M4.85 8.25 Q4.3 6.45 5.2 4.75 6.1 3.1 7.9 2.55 9.75 2.05 11.4 2.95 13.05 3.9 13.6 5.7 14.15 7.5 13.2 9.15 12.35 10.85 10.5 11.35 8.7 11.9 7.0 10.95 5.4 10.05 4.85 8.25" fill="#ff5e9e" fill-rule="evenodd" stroke="none"/>
    <path d="M5.5 8.45 Q5.0 6.85 5.85 5.45 6.6 3.95 8.15 3.5 9.75 3.05 11.2 3.85 12.65 4.65 13.15 6.25 13.6 7.8 12.75 9.2 12.0 10.7 10.4 11.15 8.85 11.6 7.4 10.8 5.95 10.0 5.5 8.45" fill="#ffa2ab" fill-rule="evenodd" stroke="none"/>
    <path d="M6.75 4.1 L5.7 6.2 4.55 6.65 3.45 6.1 3.6 4.9 4.5 3.05 5.4 2.4 5.4 2.35 6.45 2.95 6.75 4.1" fill="#ca0267" fill-rule="evenodd" stroke="none"/>
    <path d="M6.2 8.5 Q5.8 7.2 6.5 6.0 7.15 4.85 8.45 4.45 9.75 4.05 10.95 4.7 12.15 5.35 12.55 6.65 12.9 7.95 12.25 9.2 11.6 10.35 10.3 10.75 L7.8 10.5 Q6.55 9.8 6.2 8.5" fill="#ffe0b3" fill-rule="evenodd" stroke="none"/>
    <path d="M13.85 3.05 L13.25 4.1 12.0 4.35 9.95 3.15 9.55 2.05 10.2 1.0 11.3 1.1 13.1 2.15 13.85 3.05" fill="#ca0267" fill-rule="evenodd" stroke="none"/>
    <path d="M12.7 2.55 L13.45 2.5 13.05 1.95 11.55 1.1 10.95 1.05 11.3 1.75 12.7 2.55 M14.05 2.75 L12.85 3.0 10.8 1.8 10.4 0.65 11.5 0.85 13.3 1.85 14.05 2.75" fill="#fe4ea6" fill-rule="evenodd" stroke="none"/>
    <path d="M12.85 3.0 L14.05 2.75 13.45 3.8 12.25 4.05 12.85 3.0" fill="#fd3599" fill-rule="evenodd" stroke="none"/>
    <path d="M12.7 2.55 L11.3 1.75 10.95 1.05 11.55 1.1 13.05 1.95 13.45 2.5 12.7 2.55" fill="#e30273" fill-rule="evenodd" stroke="none"/>
    <path d="M10.8 1.8 L12.85 3.0 12.25 4.05 10.2 2.85 10.8 1.8" fill="#fe78bb" fill-rule="evenodd" stroke="none"/>
    <path d="M10.4 0.65 L10.8 1.8 10.2 2.85 9.8 1.7 10.4 0.65" fill="#ffa2d0" fill-rule="evenodd" stroke="none"/>
    <path d="M5.0 2.35 L6.1 2.9 6.35 4.1 5.25 3.5 5.0 2.35" fill="#ffa2d0" fill-rule="evenodd" stroke="none"/>
    <path d="M5.25 3.5 L6.35 4.1 5.3 6.2 4.2 5.6 5.25 3.5" fill="#fe78bb" fill-rule="evenodd" stroke="none"/>
    <path d="M5.0 2.35 L5.25 3.5 4.2 5.6 3.05 6.1 3.2 4.9 4.15 3.05 5.0 2.35 M4.1 5.2 L4.85 3.75 4.7 3.0 4.3 3.35 3.4 4.9 3.4 5.55 4.1 5.2" fill="#fe4ea6" fill-rule="evenodd" stroke="none"/>
    <path d="M5.3 6.2 L4.15 6.65 3.05 6.1 4.2 5.6 5.3 6.2" fill="#fd3599" fill-rule="evenodd" stroke="none"/>
    <path d="M4.1 5.2 L3.4 5.55 3.4 4.9 4.3 3.35 4.7 3.0 4.85 3.75 4.1 5.2" fill="#e30273" fill-rule="evenodd" stroke="none"/>
    <path d="M8.6 4.45 L8.7 4.55 8.8 4.9 8.8 5.0 8.7 5.1 8.6 5.05 8.5 5.0 8.4 4.65 8.4 4.5 8.5 4.45 8.6 4.45" fill="#b10113" fill-rule="evenodd" stroke="none"/>
    <path d="M6.95 6.2 Q6.85 5.75 7.3 5.35 7.8 4.85 8.6 4.65 L10.05 4.55 Q10.7 4.65 10.8 5.1 10.9 5.5 10.45 5.95 10.0 6.4 9.2 6.65 L7.7 6.75 6.95 6.2" fill="url(#gradient0)" fill-rule="evenodd" stroke="none"/>
    <path d="M10.35 10.1 L10.45 10.2 10.55 10.55 10.55 10.65 10.45 10.75 10.35 10.7 10.25 10.65 10.15 10.3 10.15 10.15 10.25 10.1 10.35 10.1" fill="#7e010e" fill-rule="evenodd" stroke="none"/>
    <path d="M6.95 8.4 L6.9 8.4 6.5 8.5 6.35 8.55 6.3 8.45 6.3 8.35 6.4 8.25 6.8 8.15 6.9 8.2 6.95 8.25 6.95 8.4" fill="#8f0110" fill-rule="evenodd" stroke="none"/>
    <path d="M12.5 7.0 L12.45 7.0 12.05 7.1 11.9 7.15 11.85 7.05 11.85 6.95 11.95 6.85 12.35 6.75 12.45 6.8 12.5 6.85 12.5 7.0" fill="#b10113" fill-rule="evenodd" stroke="none"/>
    <path d="M12.5 8.4 L12.45 8.4 12.15 8.3 12.05 8.25 12.05 8.2 12.1 8.15 12.2 8.1 12.5 8.2 12.55 8.3 12.55 8.35 12.5 8.4" fill="#b10113" fill-rule="evenodd" stroke="none"/>
    <path d="M11.7 9.75 L11.65 9.75 11.4 9.55 11.35 9.45 11.4 9.4 11.45 9.4 11.5 9.4 11.75 9.6 11.8 9.7 11.75 9.75 11.7 9.75" fill="#b10113" fill-rule="evenodd" stroke="none"/>
    <path d="M7.3 10.0 L7.35 9.95 7.55 9.7 7.6 9.65 7.6 9.55 7.5 9.55 7.4 9.6 7.2 9.85 7.2 9.9 7.25 10.0 7.3 10.0" fill="#b10113" fill-rule="evenodd" stroke="none"/>
    <path d="M8.8 10.65 L8.9 10.35 8.9 10.2 8.85 10.2 8.75 10.2 8.75 10.3 8.65 10.6 8.65 10.65 8.7 10.7 8.8 10.65" fill="#b10113" fill-rule="evenodd" stroke="none"/>
    <path d="M6.35 6.6 L6.4 6.6 6.7 6.7 6.8 6.75 6.8 6.85 6.75 6.85 6.65 6.9 6.35 6.8 6.3 6.7 6.3 6.65 6.35 6.6" fill="#b10113" fill-rule="evenodd" stroke="none"/>
    <path d="M7.15 5.2 L7.2 5.2 7.45 5.4 7.5 5.5 7.45 5.55 7.4 5.55 7.35 5.55 7.1 5.35 7.05 5.25 7.1 5.2 7.15 5.2" fill="#b10113" fill-rule="evenodd" stroke="none"/>
    <path d="M11.55 5.3 L11.5 5.35 11.3 5.6 11.25 5.65 11.25 5.75 11.35 5.75 11.45 5.7 11.65 5.45 11.65 5.4 11.6 5.3 11.55 5.3" fill="#b10113" fill-rule="evenodd" stroke="none"/>
    <path d="M10.1 4.6 L10.0 4.9 10.0 5.05 10.1 5.05 10.15 5.05 10.15 4.95 10.25 4.65 10.25 4.6 10.2 4.55 10.1 4.6" fill="#b10113" fill-rule="evenodd" stroke="none"/>
    <path d="M9.0 5.65 L9.05 5.65 9.5 7.3 9.55 7.4 9.45 7.4 9.35 7.45 9.3 7.4 8.85 5.75 8.8 5.7 8.9 5.6 9.0 5.65" fill="#7e010e" fill-rule="evenodd" stroke="none"/>
    <path d="M9.15 6.4 L8.5 5.95 8.8 5.05 9.45 5.7 9.15 6.4" fill="#7e010e" fill-rule="evenodd" stroke="none"/>
    <path d="M11.0 7.2 L10.95 7.2 9.65 7.6 9.6 7.6 9.55 7.5 9.55 7.4 9.6 7.4 10.9 7.0 10.95 7.0 10.95 7.1 11.0 7.2" fill="#7e010e" fill-rule="evenodd" stroke="none"/>
    <path d="M10.6 7.25 L10.85 6.85 11.4 7.0 11.0 7.4 10.6 7.25" fill="#7e010e" fill-rule="evenodd" stroke="none"/>
    <path d="M10.0 7.8 L9.7 8.05 9.25 8.0 9.0 7.7 9.05 7.3 Q9.15 7.1 9.4 7.05 L9.8 7.1 10.05 7.4 10.0 7.8" fill="#b10113" fill-rule="evenodd" stroke="none"/>
  </g>
  <defs>
    <linearGradient gradientTransform="matrix(-4.0E-4, -0.0013, 0.0023, -7.0E-4, 8.85, 5.65)" gradientUnits="userSpaceOnUse" id="gradient0" spreadMethod="pad" x1="-819.2" x2="819.2">
      <stop offset="0.1803921568627451" stop-color="#ffffff" stop-opacity="0.0"/>
      <stop offset="0.9450980392156862" stop-color="#ffffff" stop-opacity="0.6117647"/>
    </linearGradient>
  </defs>
</svg>
