<?xml version="1.0" encoding="UTF-8" standalone="no"?>
<svg xmlns:xlink="http://www.w3.org/1999/xlink" height="15.3px" width="12.5px" xmlns="http://www.w3.org/2000/svg">
  <g transform="matrix(1.0, 0.0, 0.0, 1.0, -2.65, 1.5)">
    <path d="M13.2 -0.9 L14.0 -0.9 14.55 -0.4 Q14.75 0.0 14.6 0.4 L14.0 0.95 13.9 1.05 13.25 2.6 13.95 2.85 9.9 13.3 3.15 10.65 3.6 9.5 3.5 9.45 7.1 0.25 7.15 0.3 7.15 0.2 12.25 2.15 12.85 0.7 12.65 0.45 Q12.45 0.05 12.65 -0.35 L13.2 -0.9" fill="#6d1b4d" fill-rule="evenodd" stroke="none"/>
    <path d="M13.2 -0.9 L14.0 -0.9 14.55 -0.4 Q14.75 0.0 14.6 0.4 L14.0 0.95 13.9 1.05 13.25 2.6 13.95 2.85 9.9 13.3 3.15 10.65 3.6 9.5 3.5 9.45 7.1 0.25 7.15 0.3 7.15 0.2 12.25 2.15 12.85 0.7 12.65 0.45 Q12.45 0.05 12.65 -0.35 L13.2 -0.9 Z" fill="none" stroke="#912265" stroke-linecap="round" stroke-linejoin="round" stroke-width="1.0"/>
    <path d="M14.35 0.05 L12.75 4.1 11.65 3.7 13.25 -0.35 14.35 0.05" fill="#c02e86" fill-rule="evenodd" stroke="none"/>
    <path d="M14.1 -0.05 L12.5 4.0 12.1 3.85 13.7 -0.2 14.1 -0.05" fill="#da61aa" fill-rule="evenodd" stroke="none"/>
    <path d="M13.5 4.1 L9.95 13.3 3.2 10.65 6.75 1.45 13.5 4.1" fill="#d3459b" fill-rule="evenodd" stroke="none"/>
    <path d="M14.0 2.85 L10.45 12.05 3.7 9.4 7.25 0.2 14.0 2.85" fill="#f88fd9" fill-rule="evenodd" stroke="none"/>
    <path d="M13.95 2.85 L10.4 12.05 9.9 11.85 13.25 3.2 7.0 0.75 7.2 0.2 13.95 2.85" fill="#f251c2" fill-rule="evenodd" stroke="none"/>
    <path d="M10.3 12.05 L3.55 9.4 7.15 0.25 7.6 0.45 4.2 9.15 10.5 11.6 10.3 12.05" fill="#fab8e7" fill-rule="evenodd" stroke="none"/>
    <path d="M9.7 7.4 L8.4 7.35 Q7.7 7.1 7.35 6.5 7.0 5.95 7.2 5.45 7.4 5.0 8.0 4.75 L9.4 4.9 Q10.05 5.2 10.35 5.65 10.75 6.3 10.55 6.75 10.35 7.25 9.7 7.4" fill="#c02e86" fill-rule="evenodd" stroke="none"/>
    <path d="M9.6 7.05 L8.55 6.95 7.75 6.35 Q7.45 5.95 7.6 5.6 7.75 5.25 8.25 5.15 L9.2 5.25 Q9.75 5.45 10.1 5.85 10.4 6.25 10.25 6.6 10.1 6.95 9.6 7.05" fill="#fa1f62" fill-rule="evenodd" stroke="none"/>
    <path d="M9.75 6.55 L8.7 6.45 7.9 5.85 Q7.6 5.45 7.75 5.1 7.9 4.75 8.4 4.65 L9.35 4.75 10.25 5.35 10.4 6.1 9.75 6.55" fill="#fb487e" fill-rule="evenodd" stroke="none"/>
    <path d="M9.4 5.8 L8.85 5.75 8.4 5.45 8.35 5.0 8.65 4.8 9.2 4.85 9.65 5.15 9.75 5.55 9.4 5.8" fill="#fd9bb9" fill-rule="evenodd" stroke="none"/>
    <path d="M8.55 10.3 Q7.95 10.6 7.25 10.3 6.55 10.05 6.2 9.4 5.9 8.85 6.05 8.4 6.25 7.9 6.9 7.65 L8.2 7.75 9.25 8.55 Q9.6 9.25 9.4 9.75 L8.55 10.3" fill="#c02e86" fill-rule="evenodd" stroke="none"/>
    <path d="M8.55 9.8 L7.55 9.65 6.65 9.05 Q6.35 8.65 6.5 8.25 6.65 7.9 7.15 7.8 L8.2 7.95 9.05 8.55 9.2 9.3 Q9.05 9.7 8.55 9.8" fill="#78dc12" fill-rule="evenodd" stroke="none"/>
    <path d="M8.75 9.3 L7.75 9.15 6.85 8.55 Q6.55 8.15 6.7 7.75 6.85 7.4 7.35 7.3 L8.4 7.45 9.25 8.05 9.4 8.8 8.75 9.3" fill="#a2f251" fill-rule="evenodd" stroke="none"/>
    <path d="M8.55 8.6 L8.0 8.5 7.5 8.2 Q7.35 8.0 7.45 7.8 L7.75 7.5 8.35 7.55 8.8 7.9 8.95 8.35 8.55 8.6" fill="#d1f8a9" fill-rule="evenodd" stroke="none"/>
    <path d="M12.95 3.5 L12.1 5.65 7.0 3.65 7.85 1.5 12.95 3.5" fill="#c02e86" fill-rule="evenodd" stroke="none"/>
    <path d="M14.0 1.0 L13.25 1.0 12.7 0.45 Q12.55 0.05 12.7 -0.3 12.85 -0.7 13.25 -0.9 L14.0 -0.9 14.55 -0.35 Q14.75 0.05 14.6 0.45 L14.0 1.0" fill="#da61aa" fill-rule="evenodd" stroke="none"/>
  </g>
</svg>
