<?xml version="1.0" encoding="UTF-8" standalone="no"?>
<svg xmlns:xlink="http://www.w3.org/1999/xlink" height="17.2px" width="14.35px" xmlns="http://www.w3.org/2000/svg">
  <g transform="matrix(1.0, 0.0, 0.0, 1.0, 0.15, 3.6)">
    <path d="M6.1 -1.85 L6.15 -1.85 6.4 -1.95 6.45 -2.0 7.05 -2.3 7.1 -2.35 7.15 -2.4 7.5 -2.55 7.6 -2.7 7.6 -2.75 Q8.2 -3.6 9.25 -3.6 L10.3 -3.4 10.4 -3.35 Q11.85 -2.75 13.0 -1.1 14.15 0.6 14.2 2.3 14.2 3.5 13.45 4.15 L13.4 4.2 13.35 4.2 12.55 4.7 12.4 4.85 11.1 5.9 11.05 5.9 10.9 5.95 10.8 6.05 10.75 6.1 10.7 6.1 12.85 9.6 13.5 10.65 13.8 11.55 Q13.8 12.5 12.95 13.1 L12.95 13.05 12.6 13.3 11.65 13.6 11.6 13.6 Q10.7 13.6 10.2 12.85 L9.9 12.45 7.35 8.2 7.25 8.25 7.2 8.35 7.15 8.35 7.1 8.4 7.0 8.45 6.3 8.95 5.55 9.3 5.55 9.35 5.5 9.35 5.1 9.45 5.05 9.45 4.95 9.5 4.85 9.55 4.8 9.55 3.95 9.65 2.9 9.4 2.6 9.3 2.5 9.2 2.1 8.95 1.9 8.8 1.2 8.1 1.15 8.05 0.7 7.5 0.7 7.45 0.15 6.3 -0.05 5.7 -0.05 5.6 -0.15 4.7 Q-0.15 3.7 0.3 3.15 L0.4 3.05 0.35 3.1 0.8 2.6 1.2 2.15 1.3 2.05 2.15 1.5 2.2 1.45 2.25 1.45 2.7 1.1 2.85 1.05 3.0 1.0 3.1 1.0 3.15 1.0 4.5 0.1 4.65 0.0 5.05 -0.35 5.2 -0.85 5.25 -0.9 6.0 -1.7 6.0 -1.75 6.1 -1.85 M9.25 -2.05 L8.9 -1.9 8.65 -1.55 8.65 -1.5 8.4 -1.3 8.0 -1.1 7.25 -0.7 7.15 -0.65 6.95 -0.5 6.6 -0.2 6.5 0.15 6.25 0.65 4.95 1.7 4.95 1.75 4.65 1.85 4.4 2.05 4.35 2.1 4.3 2.15 3.1 2.85 2.6 3.0 2.3 3.2 2.25 3.25 2.2 3.3 2.0 3.55 1.95 3.6 1.7 3.85 1.6 4.0 1.55 4.0 1.5 4.05 Q1.35 4.3 1.35 4.7 L1.45 5.4 1.55 5.8 2.05 6.75 2.1 6.8 2.3 7.05 2.35 7.1 2.9 7.6 3.2 7.85 3.25 7.9 3.3 7.95 3.35 7.95 3.9 8.15 4.45 8.05 4.55 8.0 4.75 7.95 4.85 7.95 4.9 7.95 5.05 7.9 5.95 7.35 6.15 7.05 7.0 6.35 6.95 6.4 Q7.2 6.15 7.55 6.2 7.9 6.25 8.1 6.55 L11.15 11.6 11.4 11.9 11.45 12.0 11.65 12.05 11.75 12.05 12.15 11.8 12.25 11.6 12.2 11.4 11.55 10.4 11.55 10.35 8.9 6.05 Q8.65 5.8 8.8 5.45 L9.1 4.95 9.45 4.8 Q9.65 4.65 9.9 4.65 L10.1 4.65 10.2 4.6 10.35 4.55 11.05 4.0 11.35 3.6 12.5 2.95 12.7 2.3 Q12.7 1.15 11.75 -0.25 10.75 -1.6 9.7 -2.0 L9.6 -2.0 9.65 -2.0 9.25 -2.05" fill="#453129" fill-rule="evenodd" stroke="none"/>
    <path d="M9.15 4.95 L12.85 10.95 12.95 11.7 12.55 12.35 12.15 12.6 11.4 12.75 10.8 12.3 7.2 6.5 7.0 5.9 7.25 5.25 7.8 4.7 8.5 4.55 Q8.9 4.6 9.15 4.95" fill="#9e6720" fill-rule="evenodd" stroke="none"/>
    <path d="M7.5 5.35 Q7.3 6.0 7.65 6.55 L10.85 11.5 10.8 11.9 Q10.75 12.3 11.1 12.5 L10.55 11.95 7.2 6.5 7.0 5.95 Q7.0 5.35 7.7 4.85 L7.5 5.35" fill="#aa8052" fill-rule="evenodd" stroke="none"/>
    <path d="M9.0 4.85 Q12.9 10.75 12.85 11.35 12.75 10.75 12.2 10.6 L8.35 4.55 8.6 4.6 9.0 4.85" fill="#7f4f08" fill-rule="evenodd" stroke="none"/>
    <path d="M4.9 0.65 L2.0 3.75 Q1.55 4.4 1.65 5.55 L1.9 6.6 Q0.95 4.6 1.6 3.55 2.3 2.45 4.9 0.65" fill="#ffffff" fill-rule="evenodd" stroke="none"/>
    <path d="M7.2 -1.35 L9.1 -2.85 12.45 3.45 10.65 4.8 7.75 6.6 5.95 7.9 4.85 8.6 4.7 8.7 3.1 8.6 Q2.2 8.15 1.45 7.15 0.75 6.15 0.6 5.1 0.45 4.1 0.9 3.5 L2.45 2.3 4.4 1.1 7.2 -1.35" fill="#ceb27a" fill-rule="evenodd" stroke="none"/>
    <path d="M8.65 -0.6 Q8.75 0.05 9.5 1.3 L1.7 7.45 0.9 6.15 0.65 5.45 Q2.6 4.2 4.5 2.9 L8.65 -0.6" fill="#aa8052" fill-rule="evenodd" stroke="none"/>
    <path d="M9.7 1.1 L11.15 2.75 3.0 8.6 1.9 7.65 1.4 7.1 5.2 4.6 9.7 1.1" fill="#9e6720" fill-rule="evenodd" stroke="none"/>
    <path d="M10.8 2.6 L12.9 3.5 7.75 6.6 6.4 7.75 5.35 8.5 3.75 8.8 Q3.5 8.8 2.7 8.4 L10.8 2.6" fill="#7f4f08" fill-rule="evenodd" stroke="none"/>
    <path d="M8.4 2.85 Q8.95 3.65 10.4 4.0 L11.8 4.2 10.35 5.35 Q9.5 5.5 8.5 4.95 L6.75 3.3 Q6.0 2.25 5.8 1.2 5.55 0.15 5.9 -0.65 L6.5 -1.25 7.0 -1.5 Q6.15 -0.9 6.75 0.4 L8.4 2.85" fill="#7f4f08" fill-rule="evenodd" stroke="none"/>
    <path d="M2.1 2.6 Q1.3 3.15 1.9 4.3 L3.45 6.55 Q4.05 7.35 5.35 7.65 L6.55 7.7 5.0 8.6 Q3.25 8.9 1.85 6.95 0.4 4.9 1.05 3.35 L1.65 2.8 2.1 2.6" fill="#7f4f08" fill-rule="evenodd" stroke="none"/>
    <path d="M7.2 -0.55 Q7.2 0.75 7.8 1.7 L9.2 3.45 Q10.1 4.1 11.9 4.2 L10.65 5.15 Q9.8 5.35 8.8 4.75 7.75 4.2 7.0 3.15 6.3 2.1 6.05 1.05 5.85 0.0 6.2 -0.75 L6.75 -1.4 7.3 -1.65 7.2 -0.55" fill="#bcbcbc" fill-rule="evenodd" stroke="none"/>
    <path d="M10.35 -2.5 Q11.45 -1.95 12.35 -0.65 13.25 0.6 13.4 1.85 13.6 3.1 12.95 3.55 L11.15 3.45 Q10.0 2.9 9.1 1.6 8.2 0.35 8.05 -0.9 7.9 -2.1 8.6 -2.6 L10.35 -2.5" fill="#ba9552" fill-rule="evenodd" stroke="none"/>
    <path d="M1.2 3.2 L1.8 2.55 2.8 2.0 2.55 2.2 2.3 2.4 Q1.65 3.95 3.05 5.85 3.7 6.8 4.85 7.3 L6.8 7.55 5.25 8.55 Q4.45 8.65 3.6 8.2 2.7 7.7 2.0 6.7 0.6 4.75 1.2 3.2" fill="#bcbcbc" fill-rule="evenodd" stroke="none"/>
    <path d="M2.3 2.4 L2.7 1.95 2.9 1.8 Q2.4 2.25 2.5 3.4 2.6 4.6 3.4 5.7 4.1 6.65 5.15 7.2 L6.8 7.55 6.45 7.75 Q5.7 7.9 4.7 7.4 L3.05 5.85 Q1.65 3.95 2.3 2.4" fill="#e2e2e2" fill-rule="evenodd" stroke="none"/>
    <path d="M11.85 4.2 L11.6 4.4 Q10.85 4.55 9.8 3.9 8.85 3.25 8.15 2.25 7.45 1.3 7.2 0.2 6.95 -0.9 7.25 -1.6 L7.6 -1.85 7.85 -1.95 7.95 -1.9 Q7.35 -1.45 7.5 -0.2 7.7 1.0 8.5 2.1 9.2 3.1 10.2 3.7 L11.85 4.2" fill="#e2e2e2" fill-rule="evenodd" stroke="none"/>
    <path d="M7.3 -1.65 Q6.75 -0.95 7.2 0.4 L6.1 1.25 Q5.9 0.55 6.1 -0.5 6.25 -1.3 7.3 -1.65" fill="#ffffff" fill-rule="evenodd" stroke="none"/>
    <path d="M2.35 2.25 Q1.85 2.95 2.15 4.0 L1.1 4.85 1.0 4.2 1.15 3.4 Q1.25 2.95 1.8 2.55 L2.35 2.25" fill="#ffffff" fill-rule="evenodd" stroke="none"/>
    <path d="M9.95 -2.8 Q8.9 -2.9 8.45 -2.1 8.15 -1.5 8.4 -0.2 L8.75 0.95 8.15 -0.45 Q7.75 -1.7 8.2 -2.4 8.6 -2.9 9.3 -2.9 L9.95 -2.8" fill="#ffe8c0" fill-rule="evenodd" stroke="none"/>
    <path d="M11.65 4.4 L10.6 5.1 9.65 5.15 Q8.7 4.95 7.8 4.05 L9.05 3.25 9.8 3.9 Q10.75 4.55 11.65 4.4" fill="#6d6d6d" fill-rule="evenodd" stroke="none"/>
    <path d="M11.3 4.4 L11.8 4.2 10.5 5.2 10.05 5.2 9.55 5.15 9.15 4.95 10.35 4.15 11.3 4.4" fill="#474747" fill-rule="evenodd" stroke="none"/>
    <path d="M1.95 3.75 L1.6 4.0 1.2 3.8 1.15 3.4 1.55 3.15 1.9 3.3 1.95 3.75" fill="#000000" fill-rule="evenodd" stroke="none"/>
    <path d="M6.7 7.65 L5.35 8.5 Q4.0 8.8 2.65 7.45 L3.75 6.7 4.6 7.35 Q5.65 7.9 6.7 7.65" fill="#6d6d6d" fill-rule="evenodd" stroke="none"/>
    <path d="M4.25 8.55 L3.95 8.4 5.15 7.6 5.6 7.75 6.2 7.8 6.7 7.65 5.1 8.6 4.25 8.55" fill="#474747" fill-rule="evenodd" stroke="none"/>
    <path d="M2.7 6.7 L2.25 6.85 1.9 6.45 2.05 6.0 2.55 5.9 2.85 6.25 2.7 6.7" fill="#000000" fill-rule="evenodd" stroke="none"/>
    <path d="M4.85 8.15 L4.55 8.4 4.2 8.2 4.2 7.8 4.5 7.6 4.85 7.8 4.85 8.15" fill="#3d3d3d" fill-rule="evenodd" stroke="none"/>
    <path d="M3.35 8.05 L4.5 7.3 4.8 7.45 3.65 8.25 3.35 8.05" fill="#474747" fill-rule="evenodd" stroke="none"/>
    <path d="M5.0 8.25 L4.65 8.55 4.3 8.35 4.25 7.9 4.55 7.65 4.95 7.85 5.0 8.25" fill="#000000" fill-rule="evenodd" stroke="none"/>
    <path d="M6.15 1.45 L7.3 0.65 7.45 1.05 6.3 1.85 6.15 1.45" fill="#ffffff" fill-rule="evenodd" stroke="none"/>
    <path d="M1.15 5.0 L2.2 4.2 2.35 4.65 1.3 5.4 1.15 5.0" fill="#ffffff" fill-rule="evenodd" stroke="none"/>
    <path d="M6.45 2.1 L7.55 1.35 7.7 1.65 6.55 2.45 6.45 2.1" fill="#ffffff" fill-rule="evenodd" stroke="none"/>
    <path d="M1.4 5.7 L2.45 4.95 2.6 5.2 1.55 5.95 1.4 5.7" fill="#ffffff" fill-rule="evenodd" stroke="none"/>
    <path d="M7.4 3.65 L8.6 2.8 8.75 3.05 7.6 3.9 7.4 3.65" fill="#6d6d6d" fill-rule="evenodd" stroke="none"/>
    <path d="M2.25 7.05 L3.35 6.35 3.6 6.55 2.45 7.3 2.25 7.05" fill="#6d6d6d" fill-rule="evenodd" stroke="none"/>
    <path d="M8.6 4.65 L9.85 3.8 10.15 3.95 8.85 4.85 8.6 4.65" fill="#474747" fill-rule="evenodd" stroke="none"/>
    <path d="M6.95 -0.3 L6.6 -0.05 6.25 -0.25 6.2 -0.7 6.55 -0.9 6.95 -0.7 6.95 -0.3" fill="#000000" fill-rule="evenodd" stroke="none"/>
    <path d="M7.75 3.05 L7.3 3.15 7.0 2.8 7.15 2.35 7.55 2.25 7.9 2.6 7.75 3.05" fill="#000000" fill-rule="evenodd" stroke="none"/>
    <path d="M10.15 4.65 L9.8 4.9 9.45 4.75 9.4 4.3 9.7 4.05 10.1 4.25 10.15 4.65" fill="#000000" fill-rule="evenodd" stroke="none"/>
    <path d="M11.2 1.85 Q10.5 1.8 9.95 0.8 9.5 -0.05 9.5 -0.85 9.5 -1.65 10.3 -1.65 10.85 -1.65 11.35 -1.15 11.95 -0.65 11.95 -0.05 L11.75 0.4 11.4 0.55 10.9 0.35 10.7 -0.05 10.9 -0.3" fill="none" stroke="#603200" stroke-linecap="round" stroke-linejoin="round" stroke-width="0.05"/>
  </g>
</svg>
