<?xml version="1.0" encoding="UTF-8" standalone="no"?>
<svg xmlns:xlink="http://www.w3.org/1999/xlink" height="211.3px" width="402.35px" xmlns="http://www.w3.org/2000/svg">
  <g transform="matrix(1.0, 0.0, 0.0, 1.0, -47.1, -170.1)">
    <path d="M116.6 171.25 L118.75 171.4 Q119.9 171.85 120.35 173.0 120.75 174.15 120.25 175.25 119.75 176.3 118.6 176.75 L118.15 176.9 116.6 180.6 116.75 180.6 116.95 180.7 117.0 180.7 117.05 180.75 117.1 180.75 120.75 182.05 121.5 182.3 125.25 180.0 Q125.15 179.4 125.3 178.75 125.6 177.55 126.6 177.0 127.65 176.35 128.8 176.65 130.0 177.0 130.6 178.05 131.25 179.05 130.9 180.25 130.65 181.45 129.55 182.0 128.55 182.65 127.4 182.35 L126.95 182.2 Q125.8 182.95 124.6 183.65 L125.75 184.35 Q127.2 185.35 127.8 186.55 128.2 187.15 128.25 187.9 L128.25 189.6 132.45 191.1 126.1 199.1 Q129.5 203.35 131.25 208.25 L132.45 210.85 Q135.75 218.55 135.8 224.1 L135.75 232.35 Q137.6 232.65 138.15 234.15 L138.25 235.6 138.25 236.1 147.95 235.05 147.4 243.65 147.0 245.15 144.45 250.05 Q139.1 257.85 130.95 258.5 L129.9 247.35 129.45 247.5 128.25 247.7 126.35 246.55 126.1 245.65 125.55 245.7 117.6 245.85 116.45 246.55 113.55 248.15 113.15 248.4 113.1 248.45 112.65 248.6 112.4 248.7 112.3 248.75 112.1 248.85 111.55 249.05 110.1 249.6 115.85 255.75 116.4 256.1 116.95 256.6 117.05 256.8 120.75 259.6 122.85 259.8 123.0 259.8 123.0 259.85 124.0 259.9 124.35 259.95 Q125.35 260.15 126.15 260.8 127.7 261.9 127.95 263.8 128.25 265.7 127.1 267.2 126.0 268.75 124.1 269.0 122.2 269.3 120.7 268.15 119.1 267.0 118.9 265.15 L118.8 265.15 117.75 263.0 117.8 263.0 114.75 260.6 114.7 260.6 113.6 260.25 113.35 260.1 113.1 259.9 113.0 259.85 112.7 259.4 112.5 259.0 112.4 258.55 109.95 255.85 109.95 256.5 110.6 260.35 111.65 264.0 Q112.55 266.45 114.1 268.65 L114.3 268.95 114.95 269.8 116.0 271.05 116.9 272.05 117.25 272.3 117.35 272.4 117.3 272.75 116.55 273.85 115.15 274.7 114.65 273.85 114.1 274.15 113.65 274.5 113.6 275.1 Q113.55 275.35 110.95 276.25 L110.85 276.3 110.8 276.35 110.75 277.5 Q111.3 278.1 111.4 278.95 111.25 279.7 110.55 280.35 L110.5 283.75 111.1 283.8 111.15 283.95 Q111.6 286.3 111.25 288.6 L110.85 290.7 Q106.1 291.65 101.8 290.55 101.2 289.7 101.2 288.6 101.0 287.3 101.6 285.75 102.0 284.65 102.85 284.0 L103.2 283.7 102.85 283.55 102.95 279.6 Q102.45 279.1 102.45 278.55 L102.45 278.5 101.2 278.8 Q101.05 278.4 101.05 277.85 L100.1 277.95 99.25 278.05 98.85 278.05 98.8 278.0 Q98.4 278.75 97.7 278.75 L94.8 278.4 94.85 278.55 94.35 279.6 94.5 283.55 94.1 283.7 94.5 284.0 Q95.3 284.65 95.75 285.75 96.3 287.3 96.15 288.6 96.1 289.7 95.45 290.55 91.2 291.65 86.45 290.7 L86.05 288.6 Q85.7 286.3 86.2 283.95 L86.2 283.8 86.8 283.75 86.7 280.35 Q86.05 279.7 85.9 278.95 85.95 278.1 86.55 277.5 L86.6 277.5 86.55 276.5 86.35 276.4 84.9 275.65 84.7 275.5 85.3 274.75 83.3 274.2 Q83.0 274.4 83.0 274.55 L81.45 273.6 80.5 272.35 80.6 272.3 81.45 271.45 82.25 270.5 83.25 269.25 83.95 268.15 84.15 267.85 85.95 264.0 86.95 260.25 87.45 255.35 87.45 255.25 85.45 257.4 85.35 257.85 84.5 259.0 Q83.9 259.45 83.2 259.5 L83.1 259.5 80.1 261.9 79.1 264.0 79.0 264.0 79.0 264.3 77.45 266.9 77.4 266.95 77.35 267.0 77.25 267.1 Q75.7 268.15 73.8 267.9 71.9 267.75 70.8 266.15 69.6 264.65 69.95 262.75 70.15 260.85 71.65 259.75 72.85 258.9 74.15 258.8 L74.35 258.8 74.85 258.8 74.85 258.7 74.85 258.65 75.0 258.65 77.1 258.55 80.8 255.65 80.85 255.55 80.9 255.5 81.45 254.9 82.05 254.6 86.8 249.45 86.55 249.4 85.65 249.05 Q81.1 247.45 77.05 244.6 L70.75 244.4 Q70.5 245.45 69.9 246.0 L68.3 246.5 66.75 246.1 66.15 255.1 64.25 254.95 Q53.75 253.75 50.1 246.1 47.8 241.35 48.15 234.0 L58.1 234.85 Q57.9 233.4 58.4 232.45 59.0 231.3 60.55 231.1 L60.55 230.5 60.5 225.4 Q60.8 217.2 62.95 211.35 66.1 202.4 73.3 195.45 82.1 187.15 92.5 186.3 L93.25 186.2 93.25 177.55 97.2 178.95 98.25 177.6 Q98.7 177.05 99.45 176.7 99.9 176.45 100.5 176.3 102.65 175.75 105.65 176.8 L106.9 177.25 112.4 179.15 113.95 179.65 115.5 176.1 114.85 175.05 Q114.45 173.9 114.9 172.85 115.35 171.7 116.6 171.25" fill="#758f98" fill-rule="evenodd" stroke="none"/>
    <path d="M116.6 171.25 L118.75 171.4 Q119.9 171.85 120.35 173.0 120.75 174.15 120.25 175.25 119.75 176.3 118.6 176.75 L118.15 176.9 116.6 180.6 116.75 180.6 116.95 180.7 117.0 180.7 117.05 180.75 117.1 180.75 120.75 182.05 121.5 182.3 125.25 180.0 Q125.15 179.4 125.3 178.75 125.6 177.55 126.6 177.0 127.65 176.35 128.8 176.65 130.0 177.0 130.6 178.05 131.25 179.05 130.9 180.25 130.65 181.45 129.55 182.0 128.55 182.65 127.4 182.35 L126.95 182.2 Q125.8 182.95 124.6 183.65 L125.75 184.35 Q127.2 185.35 127.8 186.55 128.2 187.15 128.25 187.9 L128.25 189.6 132.45 191.1 126.1 199.1 Q129.5 203.35 131.25 208.25 L132.45 210.85 Q135.75 218.55 135.8 224.1 L135.75 232.35 Q137.6 232.65 138.15 234.15 L138.25 235.6 138.25 236.1 147.95 235.05 147.4 243.65 147.0 245.15 144.45 250.05 Q139.1 257.85 130.95 258.5 L129.9 247.35 129.45 247.5 128.25 247.7 126.35 246.55 126.1 245.65 125.55 245.7 117.6 245.85 116.45 246.55 113.55 248.15 113.15 248.4 113.1 248.45 112.65 248.6 112.4 248.7 112.3 248.75 112.1 248.85 111.55 249.05 110.1 249.6 115.85 255.75 116.4 256.1 116.95 256.6 117.05 256.8 120.75 259.6 122.85 259.8 123.0 259.8 123.0 259.85 124.0 259.9 124.35 259.95 Q125.35 260.15 126.15 260.8 127.7 261.9 127.95 263.8 128.25 265.7 127.1 267.2 126.0 268.75 124.1 269.0 122.2 269.3 120.7 268.15 119.1 267.0 118.9 265.15 L118.8 265.15 117.75 263.0 117.8 263.0 114.75 260.6 114.7 260.6 113.6 260.25 113.35 260.1 113.1 259.9 113.0 259.85 112.7 259.4 112.5 259.0 112.4 258.55 109.95 255.85 109.95 256.5 110.6 260.35 111.65 264.0 Q112.55 266.45 114.1 268.65 L114.3 268.95 114.95 269.8 116.0 271.05 116.9 272.05 117.25 272.3 117.35 272.4 117.3 272.75 116.55 273.85 115.15 274.7 114.65 273.85 114.1 274.15 113.65 274.5 113.6 275.1 Q113.55 275.35 110.95 276.25 L110.85 276.3 110.8 276.35 110.75 277.5 Q111.3 278.1 111.4 278.95 111.25 279.7 110.55 280.35 L110.5 283.75 111.1 283.8 111.15 283.95 Q111.6 286.3 111.25 288.6 L110.85 290.7 Q106.1 291.65 101.8 290.55 101.2 289.7 101.2 288.6 101.0 287.3 101.6 285.75 102.0 284.65 102.85 284.0 L103.2 283.7 102.85 283.55 102.95 279.6 Q102.45 279.1 102.45 278.55 L102.45 278.5 101.2 278.8 Q101.05 278.4 101.05 277.85 L100.1 277.95 99.25 278.05 98.85 278.05 98.8 278.0 Q98.4 278.75 97.7 278.75 L94.8 278.4 94.85 278.55 94.35 279.6 94.5 283.55 94.1 283.7 94.5 284.0 Q95.3 284.65 95.75 285.75 96.3 287.3 96.15 288.6 96.1 289.7 95.45 290.55 91.2 291.65 86.45 290.7 L86.05 288.6 Q85.7 286.3 86.2 283.95 L86.2 283.8 86.8 283.75 86.7 280.35 Q86.05 279.7 85.9 278.95 85.95 278.1 86.55 277.5 L86.6 277.5 86.55 276.5 86.35 276.4 84.9 275.65 84.7 275.5 85.3 274.75 83.3 274.2 Q83.0 274.4 83.0 274.55 L81.45 273.6 80.5 272.35 80.6 272.3 81.45 271.45 82.25 270.5 83.25 269.25 83.95 268.15 84.15 267.85 85.95 264.0 86.95 260.25 87.45 255.35 87.45 255.25 85.45 257.4 85.35 257.85 84.5 259.0 Q83.9 259.45 83.2 259.5 L83.1 259.5 80.1 261.9 79.1 264.0 79.0 264.0 79.0 264.3 77.45 266.9 77.4 266.95 77.35 267.0 77.25 267.1 Q75.7 268.15 73.8 267.9 71.9 267.75 70.8 266.15 69.6 264.65 69.95 262.75 70.15 260.85 71.65 259.75 72.85 258.9 74.15 258.8 L74.35 258.8 74.85 258.8 74.85 258.7 74.85 258.65 75.0 258.65 77.1 258.55 80.8 255.65 80.85 255.55 80.9 255.5 81.45 254.9 82.05 254.6 86.8 249.45 86.55 249.4 85.65 249.05 Q81.1 247.45 77.05 244.6 L70.75 244.4 Q70.5 245.45 69.9 246.0 L68.3 246.5 66.75 246.1 66.15 255.1 64.25 254.95 Q53.75 253.75 50.1 246.1 47.8 241.35 48.15 234.0 L58.1 234.85 Q57.9 233.4 58.4 232.45 59.0 231.3 60.55 231.1 L60.55 230.5 60.5 225.4 Q60.8 217.2 62.95 211.35 66.1 202.4 73.3 195.45 82.1 187.15 92.5 186.3 L93.25 186.2 93.25 177.55 97.2 178.95 98.25 177.6 Q98.7 177.05 99.45 176.7 99.9 176.45 100.5 176.3 102.65 175.75 105.65 176.8 L106.9 177.25 112.4 179.15 113.95 179.65 115.5 176.1 114.85 175.05 Q114.45 173.9 114.9 172.85 115.35 171.7 116.6 171.25 Z" fill="none" stroke="#8ba2aa" stroke-linecap="round" stroke-linejoin="round" stroke-width="2.0"/>
    <path d="M68.1 242.5 L79.2 229.05 82.3 231.6 71.25 245.1 68.1 242.5" fill="#ffffff" fill-rule="evenodd" stroke="none"/>
    <path d="M86.2 237.4 Q83.05 239.65 79.35 239.05 75.55 238.45 73.3 235.25 71.1 232.2 71.8 228.45 72.4 224.65 75.5 222.45 78.6 220.3 82.35 220.95 86.1 221.55 88.4 224.6 90.5 227.65 89.85 231.45 89.2 235.15 86.2 237.4" fill="#ffffff" fill-rule="evenodd" stroke="none"/>
    <path d="M72.8 247.25 Q71.05 248.5 68.95 248.15 66.8 247.75 65.55 246.05 64.25 244.25 64.6 242.15 64.95 240.0 66.8 238.8 68.55 237.5 70.6 237.9 72.75 238.2 74.05 240.0 75.2 241.75 74.9 243.9 74.5 246.0 72.8 247.25" fill="#ffffff" fill-rule="evenodd" stroke="none"/>
    <path d="M126.95 242.5 L123.85 245.15 112.7 231.6 115.85 229.05 126.95 242.5" fill="#ffffff" fill-rule="evenodd" stroke="none"/>
    <path d="M123.25 228.45 Q124.0 232.2 121.75 235.25 119.5 238.45 115.7 239.05 112.0 239.65 108.8 237.4 105.85 235.15 105.15 231.45 104.55 227.7 106.65 224.6 108.95 221.55 112.7 220.95 116.5 220.3 119.6 222.45 122.65 224.65 123.25 228.45" fill="#ffffff" fill-rule="evenodd" stroke="none"/>
    <path d="M124.4 237.9 Q126.5 237.5 128.25 238.8 130.1 240.0 130.45 242.15 130.8 244.25 129.55 246.05 128.25 247.75 126.1 248.15 124.05 248.5 122.25 247.25 120.55 246.0 120.15 243.9 119.85 241.75 121.05 240.0 122.35 238.2 124.4 237.9" fill="#ffffff" fill-rule="evenodd" stroke="none"/>
    <path d="M449.45 361.6 L449.45 376.4 Q449.45 381.4 444.45 381.4 L327.2 381.4 Q322.2 381.4 322.2 376.4 L322.2 361.6 Q322.2 356.6 327.2 356.6 L444.45 356.6 Q449.45 356.6 449.45 361.6" fill="#ffffff" fill-rule="evenodd" stroke="none"/>
  </g>
</svg>
