<?xml version="1.0" encoding="UTF-8" standalone="no"?>
<svg xmlns:xlink="http://www.w3.org/1999/xlink" height="15.9px" width="20.55px" xmlns="http://www.w3.org/2000/svg">
  <g transform="matrix(1.0, 0.0, 0.0, 1.0, -3.2, -16.5)">
    <path d="M21.4 18.4 L21.5 18.9 21.4 18.9 21.4 18.4 21.35 18.3 21.3 18.3 21.25 18.1 21.05 17.9 20.95 18.05 20.9 18.15 20.8 18.5 20.65 18.5 20.6 18.45 20.6 18.4 20.55 18.4 20.5 18.15 20.45 18.2 20.35 17.9 20.35 17.85 20.3 17.75 20.3 17.65 20.25 17.95 20.15 17.95 20.15 17.6 19.85 18.1 19.8 18.0 19.75 18.2 19.7 17.75 19.65 17.7 19.7 18.0 19.6 18.0 19.6 17.5 19.5 17.05 19.6 17.05 19.6 16.95 19.7 17.6 19.7 17.75 19.8 18.0 19.85 17.55 19.9 17.15 19.95 16.9 20.15 16.9 20.3 17.15 20.35 17.2 20.35 17.05 20.55 17.4 20.55 17.3 Q20.65 17.05 20.95 17.05 L21.1 17.15 21.1 17.05 21.15 17.15 21.2 17.25 21.35 17.15 21.4 16.7 21.7 17.15 21.8 17.45 21.95 17.55 21.95 17.45 22.0 17.45 22.0 17.4 22.05 16.95 22.3 17.6 22.35 17.7 22.55 17.75 22.55 17.7 22.6 17.25 22.6 17.45 22.75 17.35 22.8 17.15 22.85 17.3 22.9 17.6 23.0 17.25 23.1 17.4 23.3 16.95 23.35 17.5 23.4 18.0 23.2 17.6 23.1 17.4 23.0 17.55 22.9 17.65 22.85 18.0 22.7 18.0 22.6 18.1 22.55 18.0 22.5 18.0 22.45 18.2 22.4 18.0 21.95 17.85 21.85 18.0 21.55 17.9 21.5 17.9 21.5 17.95 21.5 18.1 21.45 18.0 21.4 18.3 21.35 18.3 21.3 18.2 21.25 18.1 21.2 17.85 21.05 17.9 20.95 17.85 20.9 18.15 20.65 18.5 M22.9 17.6 L22.9 17.65 22.7 18.0 22.55 18.0 22.5 17.95 22.5 18.0 22.4 18.0 22.35 17.75 22.3 17.7 22.1 17.65 22.0 17.55 21.95 17.8 21.95 17.85 21.85 17.85 21.85 17.8 21.7 17.7 21.5 17.55 21.5 17.9 21.4 17.85 21.45 18.0 21.5 17.95 M22.3 17.7 L22.05 17.35 22.0 17.45 22.0 17.55 21.95 17.55 21.95 17.8 21.85 17.8 21.8 17.45 21.4 17.15 21.4 17.2 21.5 17.25 21.5 17.55 21.45 17.55 21.35 17.5 21.35 17.6 21.4 17.85 21.35 17.85 21.3 18.0 21.2 17.85 21.2 17.8 21.1 17.4 20.95 17.8 20.95 17.85 20.8 17.85 20.8 18.0 20.75 17.95 20.7 17.95 20.7 17.85 20.55 18.1 20.6 18.4 M22.55 17.75 L22.6 17.75 22.9 17.65 M22.3 17.7 L22.35 17.7 22.35 17.75 22.5 17.95 22.55 17.75 M17.6 17.15 L17.5 17.95 17.55 18.0 17.6 18.1 17.95 17.8 18.25 17.35 18.25 18.1 18.3 18.0 18.7 17.55 18.7 17.65 18.5 17.95 18.25 18.3 18.25 18.1 17.95 18.6 17.45 18.15 17.2 17.65 M11.25 18.65 L11.2 18.8 11.1 18.75 11.0 18.7 10.85 18.65 10.8 18.6 10.8 18.55 10.75 18.65 10.55 18.8 10.7 18.0 10.7 17.95 10.6 17.45 10.7 17.6 10.7 17.7 10.8 17.65 10.85 17.7 11.0 17.65 11.25 17.9 11.3 18.25 11.25 18.55 11.25 18.65 11.85 17.55 11.85 18.3 12.25 18.05 12.55 17.75 12.15 16.9 12.25 16.9 12.9 17.55 12.8 17.15 12.9 17.15 13.3 17.55 13.3 17.35 13.55 17.75 13.55 17.65 13.85 17.65 13.9 17.75 13.95 17.15 14.05 17.25 14.15 18.05 14.35 18.3 14.45 18.45 14.45 18.4 14.45 17.95 14.45 17.85 14.45 17.65 14.5 17.95 14.5 18.0 14.65 18.15 14.75 17.75 14.65 18.2 14.7 18.25 14.9 18.45 15.45 17.35 15.15 18.15 15.0 18.5 15.05 18.6 15.45 18.1 16.15 17.15 15.75 18.35 15.65 18.7 16.05 18.1 15.85 18.6 15.9 18.55 16.1 18.3 16.15 18.25 16.25 17.85 16.35 17.85 16.4 18.05 16.5 16.8 16.5 16.9 16.7 17.2 16.8 17.75 16.75 18.3 16.7 18.8 16.6 18.8 16.6 17.65 16.5 18.3 16.4 18.3 16.35 19.35 16.25 19.45 15.9 19.1 15.75 19.0 15.35 19.55 15.35 19.45 15.5 19.05 15.45 19.05 15.45 18.95 15.2 19.25 15.25 18.85 15.25 18.8 15.1 18.7 15.1 18.65 15.0 18.75 14.8 19.05 14.55 19.55 Q14.3 19.9 14.1 19.9 L13.6 19.45 13.45 19.45 12.6 18.1 12.6 17.8 12.55 17.75 M16.6 17.45 L16.6 17.65 16.7 17.2 16.6 17.45 M21.35 17.15 L21.4 17.15 M21.1 17.15 L21.1 17.3 21.1 17.35 21.15 17.3 21.15 17.15 21.1 17.15 M21.2 17.8 L21.2 17.4 21.1 17.35 21.1 17.4 20.85 17.7 20.7 17.85 20.55 17.45 20.55 17.4 20.45 17.7 20.55 18.1 20.5 18.15 20.45 18.05 20.45 18.2 20.4 17.9 20.35 17.9 20.4 17.85 20.35 17.4 20.35 17.8 20.35 17.85 M21.35 17.5 L21.3 17.45 21.35 17.6 21.35 17.85 21.2 17.85 M21.3 17.45 L21.2 17.25 21.15 17.3 21.2 17.4 21.3 17.45 M21.35 17.5 L21.35 17.15 M20.35 17.3 L20.45 17.65 20.45 17.45 20.35 17.3 20.35 17.25 20.3 17.5 20.3 17.65 M20.35 17.4 L20.35 17.3 M20.35 17.25 L20.35 17.2 20.15 17.6 19.9 17.15 M20.4 17.85 L20.45 17.7 20.45 17.65 M20.4 17.9 L20.4 17.85 M20.3 17.75 L20.35 17.8 M20.4 17.9 L20.45 18.05 20.45 17.7 M21.4 17.2 L21.45 17.55 M19.6 17.5 L19.6 17.05 19.65 17.7 19.6 17.5 M21.4 21.3 L21.5 21.45 21.5 21.65 21.55 21.95 21.55 21.85 21.85 21.35 21.85 21.3 22.05 20.85 22.45 21.3 22.55 21.75 22.5 21.85 22.45 22.4 22.35 23.05 22.35 23.15 Q21.6 23.3 21.45 22.5 L21.4 21.3 M17.05 21.25 L17.0 21.65 16.9 21.65 16.8 20.85 17.1 20.95 17.1 20.85 17.1 20.8 17.15 20.95 17.4 20.95 17.4 21.55 17.3 21.55 17.15 20.95 17.1 20.95 17.05 21.25 M16.6 25.75 L16.65 26.05 16.7 26.05 16.7 25.95 16.7 25.75 16.6 25.75 M21.85 21.35 L21.95 21.35 22.05 22.8 22.15 21.95 22.15 21.9 22.1 21.75 22.1 21.55 22.1 21.45 22.05 21.25 22.15 21.25 22.15 21.7 22.15 21.75 22.35 22.1 22.35 22.2 22.5 21.85 M22.15 21.9 L22.15 21.85 22.15 21.75 M22.1 21.55 L22.15 21.7 22.1 21.45 M22.15 21.95 L22.25 23.05 22.35 23.05 22.35 22.2 22.15 21.95 M3.55 17.15 L3.45 17.5 3.45 17.15 3.55 17.15 3.95 17.25 4.05 17.65 4.3 17.15 4.8 16.5 4.85 17.05 4.9 16.95 4.9 17.1 4.9 17.7 5.05 17.45 5.15 17.25 5.45 16.8 5.55 16.8 5.35 17.3 5.35 17.65 5.4 17.6 5.55 17.55 5.6 17.3 5.8 17.25 5.85 17.15 6.0 17.25 6.05 17.25 6.1 17.4 6.4 17.05 6.5 17.05 6.5 17.15 6.55 17.4 6.7 17.55 6.6 17.55 6.35 18.2 6.3 18.3 6.2 18.3 5.8 18.4 5.2 18.15 5.0 18.0 4.6 18.15 4.6 18.3 4.5 18.35 4.25 18.4 4.2 18.4 4.1 18.45 4.0 18.5 3.95 18.35 3.95 18.3 3.8 18.15 3.75 17.75 Q3.75 17.65 4.0 17.65 L4.05 17.65 3.75 17.45 3.55 17.15 M6.0 17.25 L5.95 17.25 5.9 17.3 5.9 17.45 6.05 17.25 M5.8 17.5 L5.65 17.65 5.75 17.75 5.75 17.65 5.85 17.75 5.9 17.45 5.8 17.5 M5.8 17.25 L5.95 17.25 M6.1 17.4 Q5.95 17.6 5.95 17.85 L6.05 17.75 6.1 17.7 6.15 17.5 6.1 17.4 M5.35 17.25 L5.05 17.45 4.9 17.85 4.9 17.7 4.85 17.85 4.95 17.9 5.3 17.4 5.35 17.3 5.35 17.25 M5.65 17.65 L5.6 17.65 5.55 17.65 5.7 17.85 5.75 17.9 5.75 17.75 M5.35 17.65 L5.3 17.7 5.25 17.75 5.2 17.75 5.2 17.8 5.15 17.85 5.35 17.8 5.4 17.75 5.45 17.75 5.45 17.7 5.45 17.65 5.55 17.65 5.55 17.55 M5.55 17.65 L5.45 17.7 M5.65 17.65 L5.65 17.6 5.6 17.65 M5.35 17.8 L5.1 17.95 5.15 18.0 5.5 18.15 5.45 18.1 5.45 17.75 M5.5 18.15 L5.55 18.15 5.75 18.2 5.75 18.1 5.75 17.95 5.75 17.9 M6.3 17.6 L6.3 17.55 6.3 17.6 6.25 17.85 6.45 17.45 6.5 17.3 6.35 17.5 6.3 17.55 M5.85 17.75 L5.95 17.85 6.3 17.6 M5.55 18.15 L5.7 18.25 5.85 18.3 5.85 18.25 5.8 18.2 5.75 18.1 M5.85 18.3 L5.95 18.3 5.95 18.25 5.85 18.25 5.75 17.95 M5.95 18.25 L5.95 17.95 5.95 17.85 5.85 17.95 5.85 17.75 M5.95 17.95 L6.05 17.95 6.05 18.25 6.2 18.3 6.35 18.2 6.5 17.3 6.5 17.2 6.5 17.15 6.35 17.5 M5.95 18.3 L6.05 18.3 6.05 18.25 5.95 18.25 M5.65 17.6 L5.8 17.25 M5.65 17.6 L5.9 17.3 M4.85 17.15 L4.9 17.1 4.85 17.05 4.85 17.15 4.8 17.85 4.85 17.85 4.9 17.95 4.95 17.9 5.0 17.95 Q5.1 17.85 5.15 17.85 M4.75 17.2 L4.7 17.35 4.75 17.3 4.75 17.2 M4.85 17.15 L4.75 17.3 4.6 17.7 4.5 18.0 4.55 18.05 4.6 18.1 4.6 18.15 4.4 18.2 4.5 18.0 3.95 18.0 3.95 18.2 4.2 18.2 4.2 18.4 3.95 18.3 3.95 18.2 M4.0 17.65 L4.0 17.75 4.05 17.65 M4.5 17.8 L4.7 17.35 4.5 17.75 4.5 17.8 M5.0 18.0 L4.9 17.95 4.8 18.0 4.8 17.95 4.8 17.85 M4.85 17.85 L4.8 17.95 4.9 17.95 5.0 17.95 5.1 17.95 5.0 18.0 M6.25 20.6 L6.3 20.5 6.3 20.3 6.25 20.3 6.25 20.6 6.25 20.8 6.3 20.5 M6.25 20.8 L6.25 20.95 6.2 20.75 6.15 20.75 6.05 20.85 6.05 20.75 5.9 20.7 5.85 20.7 5.85 20.5 6.05 20.5 6.05 20.7 5.9 20.7 M6.25 20.6 L6.2 20.7 6.15 20.7 6.2 20.75 6.25 20.8 M6.15 20.7 L6.15 20.55 6.05 20.75 6.15 20.75 6.15 20.7 M3.2 24.2 L3.2 25.0 3.25 25.65 3.35 26.2 3.55 26.05 3.5 26.0 3.35 25.65 3.95 25.65 3.95 25.35 3.85 25.25 3.75 24.8 3.75 24.75 3.65 24.5 3.45 23.75 3.2 24.2 M3.7 24.55 L3.65 24.3 3.65 24.2 3.7 24.55 3.75 24.6 3.65 23.95 3.55 23.75 3.45 23.75 3.75 23.55 3.8 24.05 3.85 24.1 3.85 23.75 3.95 23.75 4.0 23.75 4.05 23.8 4.1 23.95 4.1 24.2 4.15 24.25 4.3 24.7 4.25 24.9 4.2 25.0 4.1 25.0 4.1 25.25 4.1 25.85 4.05 25.6 3.9 25.75 3.55 26.05 3.75 26.3 M3.75 24.6 L3.75 24.75 3.8 24.85 3.75 24.6 3.85 24.95 3.85 24.55 3.85 24.35 3.85 24.3 3.65 23.95 M3.95 23.75 L3.95 23.85 3.95 23.9 4.0 24.0 4.1 24.2 4.1 24.5 4.05 24.45 4.1 24.85 4.1 25.0 3.95 25.0 3.95 25.15 4.05 25.6 4.1 25.25 M4.0 24.0 L4.0 24.1 4.05 24.45 4.0 24.4 4.0 24.6 4.0 24.65 4.1 24.85 M3.85 24.35 L3.95 24.45 3.95 24.3 3.9 24.2 3.85 24.3 3.85 24.1 3.9 24.2 3.95 23.75 M4.0 24.1 L4.0 24.25 4.0 24.3 4.0 24.4 3.95 24.3 3.95 23.9 4.0 24.25 M3.8 24.85 L3.8 24.9 3.85 25.0 3.85 24.95 3.9 25.05 3.95 25.15 3.9 25.1 3.9 25.05 3.85 25.0 3.85 25.15 3.95 25.15 3.95 25.35 M3.85 25.15 L3.85 25.25 M4.0 24.6 L3.95 24.9 3.95 25.0 4.0 24.65 M3.85 24.55 L3.95 24.9 3.95 24.45 4.0 24.6 M3.85 25.15 L3.8 24.9 M12.9 17.65 L12.8 17.55 12.6 17.55 12.6 17.8 13.35 19.1 13.6 19.45 13.65 19.45 13.7 19.25 13.65 19.25 13.45 18.85 12.9 18.1 13.0 18.2 13.15 18.25 12.9 17.65 12.9 17.55 13.15 17.8 13.25 17.95 13.3 18.0 13.4 18.15 13.3 17.55 13.55 17.9 13.55 17.75 13.7 18.25 13.75 18.3 13.9 18.35 13.9 18.0 13.9 17.75 14.15 18.05 14.15 18.1 14.15 18.4 14.45 18.45 14.5 18.45 14.5 18.4 14.5 18.3 14.45 18.4 M13.25 17.95 L12.9 17.65 M13.4 18.15 L13.55 18.25 13.6 18.3 13.55 18.2 13.55 18.0 13.55 17.9 M13.45 18.25 L13.5 18.25 13.4 18.15 13.45 18.25 13.5 18.45 13.7 19.2 13.7 19.15 13.75 18.95 13.65 18.55 13.6 18.45 13.5 18.25 13.55 18.25 M13.7 18.3 L13.75 18.55 13.75 18.3 13.7 18.3 13.55 18.0 M13.7 18.3 L13.6 18.3 13.6 18.4 13.65 18.45 13.75 18.55 13.75 18.6 13.85 18.8 13.85 19.2 14.05 19.0 13.9 18.35 14.15 18.4 14.15 18.85 14.05 19.0 14.15 19.05 14.15 19.15 14.45 18.55 14.45 18.5 14.45 18.45 M13.45 18.25 L13.15 18.25 13.45 18.85 13.7 19.2 13.75 19.25 13.75 19.15 13.75 18.95 13.75 18.75 13.65 18.55 13.65 18.45 M13.75 18.75 L13.75 18.6 M13.8 19.25 L13.75 19.25 13.7 19.25 13.75 19.35 13.8 19.25 13.8 19.2 13.75 19.25 M13.8 19.25 L13.85 19.25 13.85 19.2 13.8 19.2 13.75 18.75 M13.7 19.25 L13.7 19.2 M13.6 18.3 L13.6 18.4 M16.4 18.3 L16.4 18.2 16.4 18.05 M16.15 18.25 L16.15 18.2 16.25 18.2 16.25 18.9 16.15 19.0 16.15 18.6 15.9 19.1 M14.5 18.3 L14.5 18.0 14.45 17.95 M14.5 17.95 L14.45 17.85 M14.65 18.15 L14.65 18.2 14.65 18.25 14.65 18.2 14.65 18.15 M14.65 18.25 L14.7 18.25 14.7 18.4 14.7 18.5 14.85 18.55 14.9 18.45 15.0 18.5 14.95 18.6 15.05 18.65 15.05 18.6 15.1 18.65 15.3 18.4 15.25 18.75 15.35 18.8 15.5 18.85 15.65 18.75 15.65 18.7 M14.65 18.2 L14.6 18.2 14.6 18.25 14.65 18.2 M15.1 18.65 L15.05 18.65 14.8 19.05 14.8 19.0 14.95 18.6 14.85 18.55 14.75 18.8 14.65 19.0 14.45 19.55 14.45 19.45 14.45 19.15 14.3 19.3 13.95 19.75 13.95 19.65 14.3 19.3 14.4 19.05 14.5 18.6 14.45 18.55 M14.7 18.5 L14.65 18.65 14.6 18.8 14.65 18.9 14.75 18.8 M14.65 18.25 L14.6 18.4 14.6 18.5 14.7 18.5 M14.65 18.9 L14.65 19.0 M14.6 18.65 L14.55 18.65 14.6 18.8 14.6 18.65 M14.5 18.55 L14.5 18.6 14.55 18.65 14.6 18.5 14.55 18.45 14.5 18.55 14.5 18.45 14.45 18.5 14.5 18.6 M14.55 18.45 L14.5 18.45 M14.45 19.15 L14.55 18.65 M14.45 19.15 L14.65 18.9 M15.5 18.85 L15.45 18.9 15.45 18.95 15.5 18.85 15.55 18.85 15.6 18.85 15.65 18.75 M15.45 18.9 L15.4 18.9 15.25 18.8 15.25 18.75 15.1 18.65 M15.35 18.8 L15.45 18.9 M15.55 18.85 L15.55 18.9 15.6 18.85 15.85 18.6 15.7 18.95 15.75 19.0 15.9 18.7 16.1 18.3 M15.7 18.95 L15.65 19.05 15.5 19.05 15.55 18.9 15.7 18.95 M14.6 18.25 L14.55 18.45 M14.5 18.4 L14.6 18.25 M7.1 17.95 L7.1 17.55 7.0 17.6 7.0 17.65 7.05 17.8 7.1 17.95 7.2 17.95 7.1 17.55 M10.7 17.95 L10.7 17.7 M11.0 18.7 L11.0 18.2 10.9 18.2 10.8 18.55 10.7 18.0 M10.7 17.95 L10.85 17.7 M9.65 17.25 L9.75 17.4 9.75 17.65 9.75 17.85 9.85 17.85 9.85 18.1 9.6 18.1 9.55 18.2 9.65 18.3 10.0 18.0 10.0 17.9 9.85 17.4 Q9.7 16.9 9.3 17.05 L9.25 17.35 9.2 17.45 9.2 17.5 9.25 17.65 9.35 17.85 9.35 18.0 9.5 18.2 9.6 18.1 9.55 18.1 9.55 17.25 9.65 17.25 M9.2 17.45 L9.1 17.45 9.2 17.75 9.2 17.65 9.2 17.5 M9.05 17.7 L8.9 17.45 8.9 17.55 9.05 17.7 9.2 17.9 9.25 18.0 9.2 17.75 9.35 18.0 9.35 18.15 9.4 18.25 9.5 18.2 9.55 18.2 9.45 18.3 9.4 18.25 9.35 18.3 9.35 18.4 9.3 18.4 9.1 17.85 9.05 17.7 M9.35 18.15 L9.25 18.0 9.35 18.3 9.35 18.15 M10.0 17.9 L10.05 18.0 10.05 17.8 10.0 17.9 M9.65 17.85 L9.6 18.1 9.7 17.95 9.75 17.85 9.65 17.85 M11.0 18.7 L11.05 18.7 11.25 18.65 M10.35 21.25 L10.35 21.45 10.4 21.35 10.35 21.15 10.35 21.25 10.25 21.55 10.35 21.45 10.35 21.65 10.4 21.65 10.45 21.5 10.4 21.35 10.55 21.15 10.55 21.25 10.45 21.5 10.5 21.55 10.6 21.25 10.7 21.35 10.75 21.65 10.8 21.55 10.85 21.6 10.9 21.6 10.35 21.05 10.35 21.15 M10.9 21.6 L11.0 21.6 11.1 21.55 11.2 21.45 11.3 21.45 11.35 21.65 11.65 21.35 11.65 22.5 11.55 22.7 11.45 22.7 11.45 22.4 11.35 22.2 11.3 22.2 11.05 22.9 10.9 23.75 10.8 23.7 10.7 23.65 10.55 23.35 10.25 23.15 9.85 23.25 9.45 23.35 9.45 23.25 9.8 22.45 9.65 22.0 9.65 21.95 9.85 22.35 10.25 21.55 10.05 22.75 10.05 22.8 10.55 23.25 10.55 22.8 10.5 22.8 10.45 23.0 10.4 22.35 10.35 21.9 10.15 22.25 10.3 21.85 10.4 21.65 10.45 21.65 10.5 21.55 10.55 21.65 10.7 21.65 10.75 21.65 10.85 21.6 11.0 21.85 11.05 21.75 11.1 21.55 11.2 21.55 11.3 21.75 11.35 21.65 11.35 21.85 11.35 22.15 11.35 22.2 M9.85 22.35 L9.8 22.45 9.95 22.65 9.9 22.35 9.85 22.35 M10.05 22.75 L9.95 22.65 9.95 22.8 10.05 22.9 10.05 22.8 M11.0 21.6 L11.0 21.75 10.95 21.65 10.9 21.65 10.9 21.6 M10.75 21.65 L10.8 22.0 11.0 21.85 11.1 22.15 11.1 22.1 11.3 21.75 11.35 22.15 M10.8 22.0 L10.7 22.0 10.65 21.9 10.55 22.2 10.55 22.7 10.6 22.55 10.8 22.1 10.8 22.0 11.05 22.2 11.1 22.15 11.1 22.2 11.1 22.35 11.1 22.45 11.0 22.85 10.7 23.25 10.55 23.25 10.85 22.55 10.8 22.15 10.8 22.1 M10.45 21.65 L10.55 21.65 10.65 21.9 10.7 21.65 M10.5 22.8 L10.5 22.75 10.45 21.95 10.35 21.85 10.35 21.9 M10.35 21.85 L10.4 21.75 10.45 21.65 M10.55 22.7 L10.5 22.75 10.55 22.8 10.55 22.7 M10.85 22.55 L10.9 22.8 11.0 22.8 11.05 22.5 11.1 22.35 11.05 22.2 10.85 22.55 M13.45 24.5 L13.45 24.8 13.55 24.55 13.55 24.5 13.45 24.5 13.55 24.2 13.6 24.25 13.55 24.0 13.6 24.2 13.6 24.25 13.65 24.3 13.7 24.1 13.85 23.55 14.45 23.85 14.5 23.85 14.5 24.0 14.6 24.4 14.5 24.9 14.5 25.05 14.45 25.15 14.25 25.65 14.2 25.6 14.15 25.75 14.05 25.75 13.95 25.25 13.85 25.35 13.75 25.35 13.65 24.8 13.6 25.0 13.55 25.05 13.45 25.4 13.45 25.2 13.45 25.05 13.45 24.8 M13.55 24.2 L13.55 24.5 M13.55 24.55 L13.6 24.45 13.6 24.25 M13.65 24.4 L13.8 24.85 13.95 25.2 13.95 25.0 13.9 24.9 13.75 24.4 13.65 24.4 13.65 24.35 13.6 24.45 13.6 24.55 13.65 24.45 13.65 24.4 M13.65 24.35 L13.65 24.3 13.6 24.25 M13.6 24.55 L13.6 24.65 13.65 24.8 13.65 24.7 13.65 24.45 M13.55 24.55 L13.55 24.7 13.6 24.55 M13.6 25.0 L13.55 24.7 13.55 24.85 13.55 24.9 13.45 25.2 M13.45 25.05 L13.55 24.9 13.55 24.7 M14.25 24.0 L14.35 24.2 14.35 25.25 14.25 25.3 14.15 25.45 14.15 24.85 14.1 24.95 14.05 25.35 14.0 25.2 14.0 25.25 14.2 25.6 14.45 25.15 14.5 24.9 14.5 24.0 14.45 23.85 14.25 23.9 14.2 23.9 14.25 23.95 14.25 24.0 14.2 24.6 14.15 24.85 14.25 23.95 M14.2 23.9 L14.15 23.75 14.15 23.9 14.2 23.9 M14.05 23.95 L14.0 24.5 13.95 25.0 14.0 25.2 14.1 24.95 14.15 23.9 14.05 23.95 M14.0 25.25 L13.95 25.2 13.95 25.25 14.0 25.25 M16.3 26.75 L16.25 27.0 16.25 27.1 16.35 27.0 16.4 27.1 16.4 26.85 16.4 26.8 16.4 26.7 16.3 26.75 M16.2 28.4 L16.25 28.5 16.2 28.55 16.15 28.65 16.2 28.4 16.25 28.2 16.35 27.25 16.25 27.1 16.1 27.55 15.85 28.05 15.85 27.55 16.05 26.75 16.15 26.05 16.65 26.05 16.7 26.15 16.7 26.05 M16.4 27.1 L16.35 27.25 16.4 27.35 16.4 27.15 16.4 27.1 M16.7 25.95 L16.95 26.35 17.1 27.05 17.05 27.45 16.9 27.85 16.9 27.95 16.7 26.85 16.7 26.4 16.7 26.3 16.7 26.2 16.6 26.55 16.6 27.1 16.65 27.3 16.7 28.05 16.6 28.05 16.6 27.55 16.4 27.35 16.25 28.2 M11.95 32.05 L11.95 32.25 11.85 32.3 11.85 32.35 11.45 32.4 11.0 32.4 10.55 32.4 10.15 32.35 10.15 32.25 10.4 32.2 9.95 32.15 10.35 31.95 10.05 31.95 10.35 31.9 10.05 31.85 10.45 31.55 10.8 31.35 11.55 31.35 11.15 31.6 11.2 31.6 11.55 31.45 11.75 31.45 11.35 31.6 11.25 31.6 11.55 31.8 11.95 32.05 M9.45 27.1 L9.35 26.8 9.35 27.0 9.45 27.1 9.35 27.1 9.35 27.0 M10.35 31.9 L10.8 31.75 10.7 31.75 10.55 31.75 Q10.7 31.7 10.8 31.6 L11.1 31.55 11.15 31.6 10.85 31.7 10.8 31.75 10.9 31.7 11.0 31.7 11.2 31.6 11.25 31.6 11.0 31.7 M10.35 31.95 L10.7 31.8 10.8 31.75 M10.4 32.2 L10.9 32.05 11.2 31.95 11.45 31.85 11.35 31.85 10.35 31.95 M11.2 31.95 L11.4 32.2 11.4 32.25 11.85 32.25 11.85 32.3 11.6 32.35 11.4 32.25 10.4 32.2 M23.75 26.5 L23.5 26.3 M16.7 26.15 L16.7 26.2 M16.7 26.15 L16.6 26.3 16.6 26.55 16.5 26.7 16.6 27.1 16.6 27.5 16.7 27.65 16.6 27.55 16.6 27.5 16.5 27.3 16.4 27.15 M16.5 26.7 L16.4 26.8 M16.5 26.7 L16.4 26.7" fill="none" stroke="#000000" stroke-linecap="round" stroke-linejoin="round" stroke-opacity="0.90588236" stroke-width="0.05"/>
  </g>
</svg>
