<?xml version="1.0" encoding="UTF-8" standalone="no"?>
<svg xmlns:xlink="http://www.w3.org/1999/xlink" height="16.5px" width="23.5px" xmlns="http://www.w3.org/2000/svg">
  <g transform="matrix(1.0, 0.0, 0.0, 1.0, -3.05, -10.0)">
    <path d="M7.85 13.25 L7.75 13.7 7.75 13.8 7.45 13.6 7.45 13.9 7.35 13.65 7.35 13.7 7.3 13.7 7.3 13.45 7.35 13.65 7.35 13.45 7.3 13.35 7.1 13.7 6.95 13.65 6.8 13.6 6.8 13.65 6.9 13.65 6.9 13.8 6.95 13.95 7.1 13.95 7.4 14.0 7.7 14.0 8.3 13.75 9.1 13.35 9.4 13.75 9.6 14.05 9.65 13.95 9.7 13.65 10.15 13.75 10.35 13.6 10.95 14.25 11.1 14.45 11.05 14.05 11.1 14.2 11.1 14.3 11.2 14.25 11.25 14.3 11.4 14.25 11.65 14.55 11.7 14.7 11.9 14.35 Q12.15 13.85 12.35 13.7 L12.55 14.3 12.7 14.65 13.0 14.35 12.55 13.5 12.65 13.5 13.3 14.15 13.2 13.75 13.3 13.75 13.55 14.0 13.7 13.95 13.75 13.95 14.05 13.8 14.15 13.7 14.45 13.6 14.8 13.8 15.0 14.2 15.05 14.2 15.1 14.3 15.2 14.2 15.45 13.7 15.6 13.9 15.75 14.15 15.85 13.95 15.8 14.2 15.85 14.3 16.15 13.75 16.5 13.15 16.9 13.55 16.9 13.5 17.0 13.6 17.1 13.7 17.5 13.8 17.95 13.65 18.2 13.45 18.55 13.05 18.95 13.45 19.9 13.65 20.0 13.65 20.0 13.6 20.1 14.2 20.1 14.4 20.2 14.6 20.25 14.2 20.3 13.75 20.35 13.5 20.55 13.5 20.7 13.75 20.75 13.85 20.75 13.65 20.95 14.05 20.95 13.9 Q21.05 13.65 21.35 13.65 L21.5 13.75 21.5 13.65 21.55 13.8 21.6 13.9 21.8 13.8 21.8 13.7 21.8 13.3 22.1 13.75 22.2 14.1 22.35 14.2 22.35 14.05 22.4 14.05 22.4 14.0 22.45 13.6 22.7 14.2 22.75 14.35 22.95 14.35 22.95 14.3 23.05 13.8 23.05 14.05 23.15 13.95 23.2 13.75 23.3 13.9 23.3 14.2 23.4 13.85 23.5 14.0 23.6 13.8 23.05 13.45 M16.9 13.55 L16.95 13.6 17.0 13.6 17.1 13.8 17.1 13.7 M22.25 12.75 L22.0 12.8 21.95 12.8 21.55 12.9 21.9 12.8 21.95 12.8 M23.6 13.8 L23.7 13.6 23.75 13.9 24.25 14.1 24.9 14.2 25.5 14.25 Q26.1 14.25 26.15 14.0 L26.15 13.45 26.3 13.3 26.55 12.9 M23.6 13.8 L23.75 13.9 23.75 14.1 23.8 14.65 23.65 14.25 23.5 14.0 23.45 14.15 23.3 14.25 23.3 14.3 23.25 14.65 23.1 14.65 23.05 14.7 22.95 14.65 22.9 14.65 22.85 14.8 22.8 14.6 22.35 14.45 22.25 14.65 21.95 14.55 21.9 14.5 21.9 14.55 21.9 14.7 21.85 14.6 21.8 14.9 21.75 14.9 21.8 15.0 21.9 15.5 21.8 15.5 21.8 15.0 M22.95 14.35 L23.0 14.35 23.3 14.3 23.1 14.65 22.95 14.65 22.9 14.55 22.9 14.65 22.8 14.6 22.75 14.35 22.7 14.3 22.5 14.25 22.4 14.2 22.35 14.45 22.25 14.4 22.25 14.45 22.35 14.45 22.35 14.2 22.4 14.2 22.4 14.05 22.45 13.95 22.7 14.3 M23.3 14.25 L23.3 14.2 M22.75 14.35 L22.9 14.55 22.95 14.35 M22.2 14.1 L22.25 14.4 22.1 14.3 21.9 14.2 21.9 14.5 21.85 14.5 21.85 14.6 21.9 14.55 M21.9 13.9 L21.9 13.85 21.9 13.9 22.2 14.1 M21.8 13.85 L21.9 13.85 21.8 13.8 21.8 13.85 21.85 14.2 21.9 14.2 21.9 13.9 M21.7 14.05 L21.6 13.9 21.55 13.95 21.6 14.0 21.7 14.05 21.75 14.1 21.8 13.8 M21.55 13.8 L21.5 13.75 21.5 13.9 21.5 13.95 21.55 13.95 21.55 13.8 M21.85 14.2 L21.75 14.1 21.75 14.2 21.85 14.5 21.75 14.45 21.7 14.65 21.6 14.45 21.7 14.75 21.7 14.8 21.75 14.9 21.7 14.9 21.7 14.8 M21.7 14.05 L21.75 14.2 21.75 14.45 21.65 14.45 21.6 14.45 21.5 14.0 21.4 14.4 21.35 14.5 21.45 14.5 21.6 14.45 21.6 14.0 M20.95 14.05 L21.1 14.5 21.25 14.3 21.5 14.0 21.5 13.95 M20.75 13.85 L20.75 13.9 20.85 14.05 20.85 14.25 20.85 14.3 20.95 14.05 M20.85 14.25 L20.75 13.9 20.75 14.0 20.8 14.5 20.85 14.35 20.85 14.3 M20.75 13.9 L20.7 14.15 20.7 14.25 20.7 14.35 20.75 14.45 20.75 14.0 M20.75 13.85 L20.55 14.2 20.55 14.55 20.65 14.55 20.7 14.25 M20.2 14.6 L20.25 14.7 20.55 14.2 20.3 13.75 M20.75 14.55 L20.8 14.5 20.75 14.45 20.75 14.55 20.85 14.8 20.8 14.55 20.8 14.5 M20.85 14.8 L20.85 14.65 20.8 14.55 M21.2 14.65 L21.15 14.55 21.1 14.55 21.1 14.5 20.95 14.7 21.0 15.05 21.05 15.1 21.3 14.75 21.35 14.5 21.2 14.45 21.2 14.65 M21.3 14.75 L21.35 14.65 21.45 14.5 21.7 14.75 M20.95 14.7 L20.9 14.8 20.95 15.0 21.0 15.05 M21.05 15.1 L21.2 15.1 21.3 14.75 M20.85 14.35 L20.95 14.7 M20.85 14.65 L20.85 14.35 M20.85 14.8 L20.9 14.8 20.85 14.65 M20.05 14.35 L20.0 13.65 20.0 14.1 20.05 14.35 20.1 14.4 20.15 14.8 20.2 14.6 M19.1 14.15 L18.7 14.65 18.65 14.7 18.65 14.9 18.9 14.6 19.1 14.25 19.1 14.15 M20.05 14.35 L20.1 14.65 20.0 14.65 20.0 14.1 19.9 13.65 M17.6 14.25 L17.85 14.75 18.35 15.2 18.65 14.7 18.65 13.95 18.35 14.4 18.0 14.7 17.95 14.6 17.9 14.55 17.95 13.65 M17.1 13.8 L17.2 14.35 17.15 14.9 17.1 15.4 17.0 15.4 17.0 14.25 16.9 14.9 16.85 14.9 16.8 14.85 16.75 15.95 16.65 16.05 16.35 15.75 16.15 15.6 15.8 16.15 15.8 16.05 15.9 15.7 15.85 15.7 15.85 15.55 15.6 15.9 15.65 15.45 15.5 15.3 15.5 15.25 15.4 15.35 15.2 15.7 14.95 16.15 14.5 16.55 14.0 16.05 13.9 16.05 13.0 14.7 13.0 14.6 13.0 14.4 13.0 14.35 M17.0 14.25 L17.0 14.05 17.1 13.8 17.0 14.25 M16.8 14.85 L16.8 14.7 16.75 14.45 16.65 14.45 16.5 14.9 16.55 14.8 16.65 14.8 16.65 15.5 16.55 15.6 16.55 15.2 16.35 15.75 M16.5 14.9 L16.5 14.95 16.3 15.35 16.15 15.6 16.1 15.6 16.05 15.7 15.9 15.7 16.0 15.5 15.95 15.5 15.9 15.5 15.85 15.55 15.85 15.5 15.65 15.45 15.65 15.35 15.5 15.3 M16.8 14.85 L16.85 14.7 16.9 13.55 M21.4 21.9 L21.4 21.3 21.5 21.45 21.5 21.65 21.55 21.9 21.55 21.85 21.85 21.35 21.85 21.3 22.05 20.85 22.45 21.3 22.55 21.75 22.5 21.85 22.5 21.9 22.45 22.4 22.35 23.05 22.35 23.15 Q21.6 23.3 21.45 22.5 L21.4 21.9 M17.05 21.25 L17.0 21.65 16.9 21.65 16.8 20.85 17.1 20.95 17.1 20.85 17.1 20.8 17.15 20.95 17.4 20.95 17.4 21.55 17.3 21.55 17.15 20.95 17.1 20.95 17.05 21.25 M16.65 26.0 L16.65 26.05 16.7 26.05 16.7 25.95 16.7 25.75 16.6 25.75 16.65 26.0 M21.85 21.35 L21.95 21.35 22.0 21.9 22.05 22.8 22.15 21.95 22.15 21.9 22.1 21.75 22.1 21.55 22.1 21.45 22.05 21.25 22.15 21.25 22.15 21.7 22.15 21.75 22.25 21.9 22.35 22.1 22.35 22.2 22.5 21.9 M22.15 21.9 L22.15 21.85 22.15 21.75 M22.1 21.55 L22.15 21.7 22.1 21.45 M22.15 21.95 L22.25 23.05 22.35 23.05 22.35 22.2 22.15 21.95 M21.5 14.0 L21.55 13.95 M4.9 10.0 L4.9 10.4 5.0 11.15 5.05 11.15 5.25 10.4 5.35 10.75 5.45 11.15 5.7 10.75 5.85 10.3 5.85 10.85 6.1 10.75 6.25 10.65 6.3 10.5 6.3 10.6 6.15 10.95 6.25 10.7 6.25 10.65 6.3 10.6 M3.05 13.45 L3.2 13.25 3.2 13.05 4.05 13.75 4.35 13.85 4.4 13.85 4.65 13.45 4.95 12.9 M4.4 13.85 L4.45 14.25 4.7 13.75 5.2 13.1 5.3 13.65 5.3 13.7 5.3 14.35 5.5 14.05 5.55 13.9 5.85 13.4 5.95 13.4 5.8 13.95 5.75 14.25 5.8 14.2 5.95 14.15 6.0 13.9 6.2 13.85 6.25 13.75 6.4 13.85 6.45 13.85 6.45 13.9 6.5 14.0 6.55 14.0 6.8 13.7 6.8 13.65 M6.3 14.05 L6.45 13.9 6.4 13.85 6.35 13.85 6.35 13.95 6.3 14.0 6.3 14.05 6.25 14.35 6.35 14.45 6.55 14.0 6.55 14.1 6.55 14.3 6.45 14.35 6.35 14.45 6.35 14.5 6.7 14.2 6.75 14.1 6.85 13.9 6.8 13.9 6.8 13.7 M5.8 13.95 L5.75 13.85 5.5 14.05 5.3 14.45 5.3 14.35 5.25 14.5 5.35 14.5 5.75 14.0 5.8 13.95 M5.75 14.25 L5.7 14.35 5.65 14.35 5.6 14.4 5.6 14.45 5.85 14.35 5.85 14.25 5.95 14.25 5.95 14.15 M5.85 14.35 L5.95 14.25 6.0 14.25 6.05 14.2 6.2 13.85 6.35 13.85 M5.85 14.35 L5.85 14.7 5.95 14.8 6.15 14.8 6.15 14.7 6.15 14.55 6.1 14.5 5.95 14.3 5.85 14.35 Q5.65 14.5 5.5 14.6 L5.55 14.65 5.95 14.8 6.1 14.85 6.25 14.9 6.25 14.85 6.2 14.85 6.15 14.7 M5.95 14.25 L5.95 14.3 6.0 14.25 6.05 14.25 6.05 14.2 6.3 14.0 M6.15 14.55 L6.15 14.35 6.05 14.3 6.05 14.25 6.2 14.15 6.3 14.05 M6.15 14.55 L6.25 14.85 6.35 14.85 6.35 14.55 6.35 14.5 6.25 14.55 6.25 14.35 6.15 14.25 6.15 14.35 M5.15 13.95 L5.0 14.3 4.9 14.65 4.95 14.7 5.0 14.7 5.0 14.8 5.4 14.65 5.3 14.55 5.2 14.65 5.2 14.55 5.2 14.45 5.25 13.8 5.15 13.95 5.15 13.9 5.1 13.95 5.15 13.95 M5.3 13.65 L5.25 13.8 5.3 13.7 M6.95 13.95 L6.95 14.0 7.1 14.15 7.0 14.15 Q7.1 14.55 6.75 14.8 L6.7 14.9 6.6 14.9 6.2 15.0 5.6 14.8 5.4 14.65 5.5 14.6 5.4 14.55 5.3 14.55 5.25 14.5 5.2 14.55 5.3 14.55 5.35 14.5 5.4 14.55 5.6 14.4 M5.25 14.5 L5.2 14.45 M4.4 13.85 L4.3 14.0 4.05 13.75 3.95 13.75 4.15 14.05 4.45 14.25 Q4.15 14.25 4.15 14.35 L4.2 14.75 4.35 14.95 4.35 14.8 4.35 14.65 4.9 14.65 4.8 14.8 5.0 14.8 5.0 14.9 4.9 14.95 4.7 15.0 4.6 15.0 4.55 15.05 4.45 15.1 4.35 14.95 4.6 15.0 4.6 14.8 4.35 14.8 M3.85 13.75 L3.85 14.1 3.95 13.75 3.85 13.75 M5.1 13.95 L4.9 14.45 4.9 14.35 5.1 13.95 M6.25 20.6 L6.3 20.5 6.3 20.3 6.25 20.3 6.25 20.6 6.25 20.8 6.3 20.5 M6.25 20.8 L6.25 20.95 6.2 20.75 6.15 20.75 6.05 20.85 6.05 20.75 5.9 20.7 5.85 20.7 5.85 20.5 6.05 20.5 6.05 20.7 5.9 20.7 M6.25 20.6 L6.2 20.7 6.15 20.7 6.2 20.75 6.25 20.8 M6.15 20.7 L6.15 20.55 6.05 20.75 6.15 20.75 6.15 20.7 M15.75 14.15 L15.8 14.2 15.55 14.8 15.4 15.15 15.5 15.25 15.55 15.2 15.85 14.7 16.55 13.75 16.15 14.95 16.05 15.3 16.45 14.7 16.25 15.25 16.3 15.2 16.5 14.95 M15.35 15.2 L15.4 15.15 15.3 15.05 15.25 15.2 15.35 15.2 15.45 15.25 15.5 15.25 M15.55 15.2 L15.7 15.0 15.65 15.35 15.8 15.4 15.95 15.45 16.05 15.3 16.0 15.45 16.25 15.25 16.1 15.6 16.0 15.5 16.0 15.45 15.95 15.5 15.95 15.45 15.9 15.5 15.85 15.5 15.8 15.4 M15.3 15.05 L15.1 14.85 15.1 15.0 15.1 15.15 15.25 15.15 15.25 15.2 15.15 15.4 15.05 15.6 14.85 16.15 14.85 16.05 14.85 15.8 14.8 15.8 14.7 15.9 14.35 16.35 14.35 16.25 14.7 15.9 14.8 15.7 14.9 15.2 14.85 15.15 14.55 15.8 14.55 15.7 14.5 15.6 14.25 15.8 14.25 15.9 14.2 15.9 14.15 15.95 14.1 15.85 14.05 16.05 14.0 16.05 13.75 15.7 13.1 14.5 13.05 14.5 13.0 14.6 M15.3 15.05 L15.75 14.15 M14.0 14.35 L14.15 14.9 14.35 14.95 14.3 14.65 14.35 14.35 14.25 14.25 14.0 14.25 14.0 14.35 13.7 13.95 13.7 14.15 13.95 14.55 14.0 14.6 14.0 14.35 M14.35 14.35 L14.35 13.75 14.45 13.85 14.55 14.65 14.75 14.95 14.85 15.05 14.85 15.0 14.85 14.55 14.85 14.5 14.9 14.45 14.9 14.25 14.95 14.65 15.05 14.75 15.15 14.4 15.2 14.2 M14.55 14.65 L14.55 14.7 14.55 15.0 14.85 15.05 14.9 15.1 14.9 15.0 14.9 14.95 14.85 15.0 M13.7 14.15 L13.85 14.75 13.95 14.9 14.0 14.9 14.0 14.8 14.0 14.6 14.1 14.9 14.15 14.9 14.15 15.2 14.25 15.4 14.25 15.8 14.2 15.8 14.2 15.9 14.15 15.9 14.15 15.85 14.1 15.85 14.1 15.8 13.85 15.45 14.05 15.9 14.1 15.85 M14.15 15.2 L14.1 14.9 14.0 14.9 14.05 15.0 14.15 15.2 14.15 15.4 14.2 15.8 14.15 15.85 14.1 15.8 13.9 15.05 13.85 14.9 13.55 14.85 13.85 15.45 13.3 14.7 13.4 14.8 13.55 14.85 13.3 14.25 13.25 14.2 13.1 14.5 13.0 14.4 13.0 14.15 13.2 14.15 13.25 14.2 13.3 14.2 13.3 14.15 13.45 14.0 13.55 14.0 13.7 14.15 M14.05 15.0 L13.95 14.9 13.9 14.9 14.0 15.05 14.05 15.15 14.05 15.0 M14.35 14.95 L14.55 15.0 14.55 15.45 14.5 15.6 Q14.35 15.4 14.35 14.95 M14.9 14.45 L14.9 14.55 14.9 14.6 14.95 14.65 14.95 14.9 14.9 14.95 14.9 14.6 14.85 14.55 M15.05 14.75 L15.05 14.8 15.15 14.4 M14.85 15.15 L14.9 15.15 14.85 15.05 14.85 15.15 M14.9 15.2 L14.95 15.3 14.95 15.25 14.95 15.2 14.95 15.15 14.9 15.2 14.9 15.15 14.9 15.1 14.95 15.1 14.9 15.0 15.05 14.75 M15.05 14.85 L15.05 14.8 14.95 15.1 15.0 15.1 15.0 15.0 15.05 14.85 15.1 14.85 15.05 14.8 M14.95 15.25 L15.0 15.25 15.05 15.4 15.1 15.25 15.1 15.15 15.0 15.1 14.95 15.2 M14.95 15.15 L14.95 15.1 M14.55 14.65 L14.35 14.35 M15.15 15.4 L15.05 15.5 15.05 15.6 M14.95 15.3 L14.85 15.75 15.05 15.5 14.95 15.3 M14.85 15.8 L14.85 15.75 M14.15 15.4 L14.15 15.6 14.15 15.85 M14.15 15.6 L14.1 15.8 M15.35 15.2 L15.2 15.6 15.2 15.7 15.45 15.25 M14.15 15.4 L14.05 15.15 14.15 15.6 M13.3 14.25 L13.3 14.2 M13.8 14.7 L13.85 14.8 13.85 14.75 13.8 14.7 13.7 14.65 13.7 14.6 13.65 14.55 13.6 14.55 13.3 14.25 M13.3 14.15 L13.55 14.45 13.6 14.55 M13.9 14.9 L13.85 14.9 13.85 14.8 13.9 14.9 M11.4 14.8 L11.35 14.8 11.35 14.9 11.4 14.9 11.4 14.8 M11.7 14.7 L11.7 14.85 11.65 15.15 11.65 15.25 12.25 14.15 12.25 14.9 12.65 14.7 12.7 14.65 M11.4 14.9 L11.4 15.3 11.45 15.3 11.65 15.25 11.6 15.4 11.5 15.35 11.4 15.3 11.25 15.25 11.2 15.2 11.2 15.15 11.15 15.25 10.95 15.4 11.1 14.65 11.1 14.5 11.1 14.45 11.1 14.3 M10.15 14.0 L10.05 13.85 10.0 13.9 9.95 13.95 9.95 14.7 10.0 14.7 10.05 14.45 10.15 14.45 10.15 14.25 10.15 14.0 M10.15 14.45 L10.25 14.45 10.25 14.7 10.0 14.7 10.0 14.75 9.95 14.8 10.05 14.9 10.4 14.6 10.4 14.5 10.3 14.0 10.15 13.75 10.05 13.85 9.95 13.85 9.95 13.95 9.65 14.2 9.6 14.05 9.6 14.15 9.65 14.25 9.75 14.45 9.75 14.65 9.95 14.8 9.85 14.9 9.75 14.9 9.75 15.0 9.7 15.0 9.55 14.5 9.45 14.3 9.3 14.15 9.3 14.05 9.45 14.3 9.6 14.5 9.65 14.55 9.6 14.35 9.5 14.05 9.6 14.05 M10.45 14.65 L10.45 14.4 10.4 14.5 10.45 14.65 M11.1 14.65 L11.2 15.15 11.3 14.8 11.35 14.8 11.15 14.5 11.1 14.5 M11.15 14.5 L11.25 14.3 M9.6 14.35 L9.6 14.25 9.6 14.15 M10.15 14.45 L10.1 14.6 10.0 14.7 M9.65 14.55 L9.65 14.65 9.75 14.8 9.75 14.65 9.6 14.35 M9.85 14.9 L9.75 14.8 9.75 14.9 9.65 14.65 M7.5 14.55 L7.45 14.4 7.4 14.25 7.4 14.2 7.5 14.15 7.5 14.55 7.6 14.55 7.7 14.0 M6.9 13.9 L6.9 13.8 6.85 13.9 6.9 13.9 6.9 13.95 6.95 13.95 M6.35 14.55 L6.45 14.55 6.45 14.85 6.6 14.9 6.75 14.8 6.9 13.95 6.85 14.05 6.65 14.45 6.7 14.2 6.85 14.05 M6.45 14.85 L6.35 14.85 6.35 14.9 6.45 14.9 6.45 14.85 M10.35 21.25 L10.35 21.45 10.4 21.35 10.35 21.15 10.35 21.25 10.25 21.55 10.35 21.45 10.35 21.65 10.4 21.65 10.45 21.5 10.4 21.35 10.55 21.15 10.55 21.25 10.45 21.5 10.5 21.55 10.6 21.25 10.7 21.35 10.75 21.65 10.8 21.55 10.85 21.6 10.9 21.6 10.35 21.05 10.35 21.15 M10.9 21.6 L11.0 21.6 11.1 21.55 11.2 21.45 11.3 21.45 11.35 21.65 11.65 21.35 11.65 22.5 11.55 22.7 11.45 22.7 11.45 22.4 11.35 22.2 11.3 22.2 11.05 22.9 10.9 23.75 10.8 23.7 10.7 23.65 10.55 23.35 10.25 23.15 9.85 23.25 9.45 23.35 9.45 23.25 9.8 22.45 9.65 22.0 9.65 21.95 9.85 22.35 10.05 21.9 10.25 21.55 10.2 21.9 10.15 22.25 10.3 21.9 10.3 21.85 10.4 21.65 10.45 21.65 10.5 21.55 10.55 21.65 10.7 21.65 10.75 21.65 10.85 21.6 11.0 21.85 11.05 21.75 11.1 21.55 11.2 21.55 11.3 21.75 11.35 21.65 11.35 21.85 11.35 21.9 11.35 22.2 M9.85 22.35 L9.8 22.45 9.95 22.65 9.9 22.35 9.85 22.35 M10.05 22.8 L10.05 22.75 9.95 22.65 9.95 22.8 10.05 22.9 10.05 22.8 10.55 23.25 10.55 22.8 10.5 22.8 10.45 23.0 10.4 22.35 10.35 21.9 10.3 21.9 M10.9 21.6 L10.9 21.65 10.95 21.65 11.0 21.75 11.0 21.6 M10.8 22.1 L10.8 22.15 10.85 22.55 11.05 22.2 10.8 22.0 10.8 22.1 10.6 22.55 10.55 22.7 10.55 22.8 10.5 22.75 10.5 22.8 M11.0 21.85 L11.05 21.9 11.1 22.15 11.1 22.1 11.2 21.9 11.3 21.75 11.35 21.9 M10.75 21.65 L10.75 21.9 10.8 22.0 10.9 21.9 11.0 21.85 M10.45 21.65 L10.55 21.65 10.65 21.9 10.7 21.65 M10.5 22.75 L10.45 21.95 10.35 21.85 10.35 21.9 M10.65 21.9 L10.7 22.0 10.8 22.0 M10.35 21.85 L10.4 21.75 10.45 21.65 M10.55 22.7 L10.5 22.75 M10.65 21.9 L10.55 22.2 10.55 22.7 M11.1 22.35 L11.05 22.5 11.0 22.8 10.9 22.8 10.85 22.55 10.55 23.25 10.7 23.25 11.0 22.85 11.1 22.45 11.1 22.35 11.05 22.2 11.1 22.15 11.1 22.2 11.1 22.35 M10.15 22.25 L10.05 22.75 M13.55 24.2 L13.55 24.5 13.55 24.55 13.6 24.45 13.6 24.25 13.55 24.2 13.45 24.5 13.55 24.5 M13.6 24.2 L13.55 24.0 13.6 24.25 13.6 24.2 M13.65 24.4 L13.65 24.35 13.6 24.45 13.6 24.55 13.65 24.45 13.65 24.4 13.75 24.4 13.9 24.9 13.95 25.0 14.0 24.5 14.05 23.95 14.15 23.9 14.15 23.75 14.2 23.9 14.25 23.9 14.45 23.85 13.85 23.55 13.7 24.1 13.65 24.3 13.65 24.35 M13.6 24.25 L13.65 24.3 13.6 24.25 M13.6 24.55 L13.6 24.65 13.65 24.8 13.65 24.7 13.65 24.45 M13.55 24.55 L13.45 24.8 13.45 25.05 13.55 24.9 13.55 24.7 13.55 24.55 M13.55 24.7 L13.6 24.55 M13.55 24.85 L13.55 24.9 13.45 25.2 13.45 25.4 13.55 25.05 13.6 25.0 13.55 24.7 13.55 24.85 M13.45 25.2 L13.45 25.05 M14.45 23.85 L14.5 23.85 14.5 24.0 14.6 24.4 14.5 24.9 14.5 25.05 14.45 25.15 14.25 25.65 14.2 25.6 14.15 25.75 14.05 25.75 13.95 25.25 13.85 25.35 13.75 25.35 13.65 24.8 13.6 25.0 M13.65 24.4 L13.8 24.85 13.95 25.2 13.95 25.0 14.0 25.2 14.1 24.95 14.15 23.9 14.2 23.9 14.25 23.95 14.25 24.0 14.35 24.2 14.35 25.25 14.25 25.3 14.15 25.45 14.15 24.85 14.1 24.95 14.05 25.35 14.0 25.2 14.0 25.25 14.2 25.6 14.45 25.15 14.5 24.9 14.5 24.0 14.45 23.85 M13.45 24.8 L13.45 24.5 M14.25 24.0 L14.2 24.6 14.15 24.85 14.25 23.95 M13.95 25.2 L14.0 25.25 13.95 25.25 13.95 25.2 M10.9 17.1 L11.7 17.65 M6.25 14.9 L6.35 14.9 M23.75 26.5 L23.5 26.3" fill="none" stroke="#000000" stroke-linecap="round" stroke-linejoin="round" stroke-opacity="0.90588236" stroke-width="0.05"/>
  </g>
</svg>
