<?xml version="1.0" encoding="UTF-8" standalone="no"?>
<svg xmlns:xlink="http://www.w3.org/1999/xlink" height="12.85px" width="43.25px" xmlns="http://www.w3.org/2000/svg">
  <g transform="matrix(1.0, 0.0, 0.0, 1.0, 5.2, -14.85)">
    <path d="M38.05 26.0 L37.25 25.7 M24.65 16.35 L24.9 16.4 25.2 16.45 25.2 16.15 M21.0 24.1 L20.9 25.15 21.15 24.9 21.15 24.1 21.0 24.1 M20.1 25.6 L20.3 25.55 20.2 25.45 20.4 25.5 20.65 25.4 20.5 25.2 20.45 25.1 20.15 24.65 20.1 24.65 20.1 25.6 M20.45 25.1 L20.15 24.6 20.15 24.65 20.1 24.5 20.15 24.6 20.2 24.5 20.5 24.5 20.65 25.05 20.7 25.4 20.75 25.35 20.75 25.15 20.9 25.15 21.15 25.15 21.3 25.15 21.3 25.75 21.4 25.85 21.3 25.85 21.3 26.0 21.1 25.85 20.95 25.85 21.0 25.95 20.9 25.85 20.75 25.85 20.5 25.65 20.3 25.55 20.4 25.5 M20.45 25.1 L20.6 25.3 20.7 25.4 20.75 25.45 20.75 25.35 20.85 25.3 20.9 25.15 20.95 25.5 21.0 25.5 21.15 25.15 M20.7 25.4 L20.65 25.4 20.75 25.6 20.7 25.4 M20.75 25.6 L20.9 25.85 20.95 25.85 20.95 25.7 20.85 25.6 20.75 25.6 M20.85 25.6 L20.95 25.55 20.95 25.5 20.75 25.45 20.85 25.6 M21.0 25.5 L20.95 25.55 20.95 25.7 21.1 25.85 21.3 25.85 21.3 25.75 21.1 25.6 21.0 25.5 M27.45 21.95 L27.55 22.35 27.85 22.3 28.05 22.15 28.0 21.85 28.1 22.05 28.1 22.25 28.1 22.35 28.1 22.6 28.1 22.75 28.0 22.7 28.0 22.9 27.35 22.35 27.35 22.6 27.2 22.6 27.1 22.6 27.05 22.75 27.05 22.6 26.9 22.6 26.85 22.5 26.8 22.5 26.8 22.05 26.8 21.95 26.9 22.1 26.9 22.15 26.9 22.25 27.05 22.25 27.05 22.2 27.05 21.85 27.15 21.9 27.2 21.7 27.2 22.0 27.3 22.15 27.35 22.1 27.35 22.05 27.45 21.95 M27.3 22.15 L27.35 22.15 27.35 22.1 M27.35 22.05 L27.4 22.1 27.45 22.25 27.55 22.35 27.6 22.4 28.0 22.6 28.1 22.35 28.05 22.25 28.05 22.15 28.1 22.05 M26.9 22.25 L26.85 22.2 26.9 22.15 26.85 22.05 26.8 21.95 M27.05 22.25 L27.2 22.2 27.2 22.0 27.15 21.9 27.05 22.2 M27.05 22.25 L27.05 22.6 27.1 22.6 27.2 22.5 27.2 22.2 27.3 22.15 M27.05 22.25 L26.9 22.6 26.85 22.35 26.8 22.05 M27.2 22.6 L27.2 22.5 27.25 22.45 27.25 22.4 27.35 22.15 27.4 22.25 27.45 22.25 27.45 22.35 27.55 22.35 M27.6 22.4 L27.7 22.5 28.0 22.7 28.0 22.6 28.1 22.6 M27.35 22.35 L27.25 22.45 27.2 22.6 M27.35 22.15 L27.35 22.35 M28.5 25.7 L28.4 25.6 27.7 25.6 27.65 25.85 27.6 26.25 27.65 26.75 27.7 27.2 28.15 26.55 28.1 26.5 28.0 26.35 28.2 26.4 28.4 25.85 28.5 25.7 Q28.7 25.5 29.15 25.4 L29.9 25.3 29.95 25.3 30.15 25.3 Q31.15 25.3 32.0 25.85 L32.05 25.9 32.15 25.45 Q32.85 25.5 33.25 26.2 L33.35 26.05 33.35 26.0 33.35 25.3 33.55 25.5 33.6 25.85 33.4 26.25 33.35 26.25 33.35 26.35 32.5 27.15 30.85 27.6 Q30.3 27.6 29.8 27.1 L29.5 26.8 29.45 26.8 29.45 27.0 29.35 27.05 29.2 27.05 28.9 26.8 28.8 26.65 28.75 26.65 28.6 26.65 28.3 26.65 28.15 26.55 28.2 26.4 28.6 26.5 28.8 26.65 28.95 26.55 29.0 26.5 28.8 26.15 28.5 25.7 M29.0 26.5 L29.15 26.3 29.25 26.0 Q29.5 25.35 29.9 25.3 M29.95 25.3 L31.25 25.9 31.9 26.2 32.05 25.9 32.45 26.2 32.7 26.5 33.15 26.35 33.2 26.35 33.25 26.2 33.3 26.3 33.35 26.25 33.35 26.05 M32.6 22.5 L32.55 22.5 32.55 22.6 32.65 22.7 32.65 22.55 32.6 22.5 32.4 22.35 32.55 22.6 32.65 22.75 32.65 22.7 32.8 22.85 33.1 23.0 M33.2 22.65 L34.0 22.5 33.9 22.6 33.2 22.65 33.0 22.65 32.65 22.55 M33.35 26.0 L33.5 26.0 33.4 26.25 M-1.55 15.05 L-1.5 15.35 -1.5 15.6 -1.3 15.7 -1.2 15.55 -1.2 15.8 -0.7 16.0 0.0 16.6 -0.1 16.7 -0.4 16.75 Q-1.05 16.75 -1.2 15.8 L-1.3 15.7 -1.6 16.0 -1.6 16.05 -1.65 16.85 -1.4 16.95 -0.95 17.15 -0.95 17.2 -0.8 17.25 -1.15 17.4 -1.6 17.4 -1.7 17.4 -1.75 17.8 -2.75 17.35 -3.25 17.05 -4.0 16.75 -4.0 16.6 -3.25 17.05 -3.05 17.15 -1.7 17.4 -1.65 16.85 -2.0 16.75 -2.15 16.75 -2.45 17.0 -2.65 17.15 -2.65 16.95 -2.8 17.0 -2.7 16.4 -2.7 16.35 -2.9 17.15 -3.05 17.0 -3.05 15.25 -2.9 15.25 -2.8 15.45 -2.8 15.4 -2.55 15.1 -2.25 14.85 -2.15 15.1 -2.15 15.05 -2.1 15.1 -2.1 15.15 -1.8 15.55 -1.6 15.55 -1.5 15.6 -1.55 15.7 -1.6 16.0 -1.65 15.85 -1.8 16.15 -1.6 16.0 -1.6 15.65 -1.65 15.85 -1.8 15.55 -1.9 15.55 -1.75 15.9 -1.85 15.9 -2.0 15.55 -2.5 15.95 -1.95 16.2 -1.8 16.15 -1.85 16.2 -2.4 16.45 -2.55 16.45 -2.6 16.55 -2.65 16.95 -2.4 16.85 -2.15 16.75 M-2.1 15.1 L-2.15 15.1 -2.15 15.15 -2.1 15.15 -1.95 15.45 -1.9 15.55 -2.0 15.55 -2.05 15.45 -2.1 15.15 M-2.8 15.45 L-2.8 16.35 -2.7 16.35 -2.65 15.9 -2.55 15.9 -2.8 15.45 M-2.7 16.4 L-2.55 16.1 -2.55 16.05 -2.55 15.9 -2.5 15.95 -2.55 16.05 M-2.55 16.1 L-2.55 16.45 -2.65 16.4 -2.7 16.4 M-1.6 15.55 L-1.6 15.65 M0.75 21.7 L0.25 21.85 0.5 22.35 0.55 22.05 0.6 22.45 0.65 22.5 1.1 22.65 1.05 22.55 0.9 22.3 0.8 22.25 0.8 22.1 0.9 22.3 0.95 22.3 1.05 22.5 1.05 22.55 1.1 22.6 1.45 22.1 1.35 21.7 1.2 21.55 0.75 21.7 M0.6 22.45 L0.5 22.35 0.5 22.5 0.45 22.85 M1.1 22.65 L1.1 22.6 M2.7 22.2 L2.75 21.95 2.8 21.45 3.25 21.1 3.2 20.9 3.35 20.9 3.25 21.1 M2.35 22.3 L2.05 22.15 1.95 22.1 1.8 22.45 M2.0 21.85 L1.75 21.95 1.95 22.1 2.0 21.85 M1.75 21.95 L1.55 22.0 1.45 22.1 M14.2 22.1 L14.2 21.45 14.6 21.75 15.0 21.95 15.15 21.95 15.1 21.85 15.05 21.75 14.75 21.55 15.15 21.55 15.1 21.85 M-1.6 27.2 L-1.75 27.3 -1.75 27.2 -1.8 26.9 -1.6 27.2 -0.95 27.15 -0.95 27.2 -0.9 27.25 -0.25 27.45 M-1.75 27.2 L-1.6 27.2 M-0.95 27.2 L-1.3 27.3 -2.05 27.45 M33.35 26.35 L33.3 26.3 33.2 26.35 33.15 26.4 32.95 26.8 32.7 26.5 32.6 26.5 31.9 26.2 31.3 26.8 Q31.0 26.8 30.8 26.5 L30.25 25.85 29.9 26.7 29.5 26.8 29.45 26.7 29.45 26.8 29.3 26.8 29.35 27.05 M29.45 26.1 L29.35 26.1 29.45 26.35 29.45 26.1 M29.35 26.1 L29.3 26.1 29.3 26.15 29.3 26.5 29.45 26.7 29.45 26.35 M29.3 26.15 L29.2 26.25 29.3 26.5 29.3 26.8 29.25 26.8 29.05 26.75 28.8 26.65 M29.2 26.25 L29.15 26.3 29.05 26.75 29.0 26.5 M29.3 26.15 L29.25 26.15 29.2 26.25 M29.35 26.1 L29.3 26.05 29.3 26.1 M28.6 26.5 L28.7 26.55 28.75 26.65 M-4.8 27.7 L-5.05 27.7 -5.2 26.35 -5.2 25.85 -5.2 25.65 -4.8 25.15 M-4.65 24.7 L-4.95 24.5 -4.95 24.25 -4.45 24.4 M-4.8 26.2 L-5.2 25.85" fill="none" stroke="#000000" stroke-linecap="round" stroke-linejoin="round" stroke-opacity="0.90588236" stroke-width="0.05"/>
  </g>
</svg>
