<?xml version="1.0" encoding="UTF-8" standalone="no"?>
<svg xmlns:xlink="http://www.w3.org/1999/xlink" height="5.1px" width="22.25px" xmlns="http://www.w3.org/2000/svg">
  <g transform="matrix(1.0, 0.0, 0.0, 1.0, -3.2, -24.35)">
    <path d="M15.25 27.2 L14.9 26.9 14.9 27.6 14.75 27.5 14.6 27.45 14.5 27.2 14.05 27.05 13.4 26.85 13.0 26.65 12.2 26.9 11.8 27.05 11.8 27.2 11.7 27.2 11.65 27.3 12.35 27.45 16.85 27.7 16.9 27.7 16.6 26.9 16.45 26.25 Q16.1 26.3 15.85 26.6 L15.65 26.9 15.55 26.9 Q15.4 26.65 15.4 26.1 L15.05 26.35 15.05 26.45 14.9 26.0 14.6 25.3 Q14.2 25.4 13.8 26.1 L13.35 25.7 13.0 25.15 12.55 25.6 12.45 26.1 12.35 26.1 12.4 25.65 12.45 25.05 12.15 25.65 12.15 25.75 12.05 26.25 11.25 25.95 10.25 25.7 Q9.95 25.7 9.85 26.3 L9.75 26.8 10.9 27.05 11.25 27.15 11.8 27.05 M12.45 25.05 L12.5 24.85 12.35 24.65 Q12.1 24.35 11.8 24.35 11.25 24.35 11.25 24.95 11.25 25.2 11.4 25.45 L11.65 25.7 12.15 25.75 M13.65 24.75 L13.35 24.95 13.1 25.05 12.95 24.85 12.6 24.65 12.5 24.85 12.6 25.05 12.45 25.05 M15.0 27.9 L14.6 27.9 14.3 28.35 14.1 28.8 14.35 29.0 14.4 29.0 15.05 28.95 15.2 28.6 15.75 28.25 15.8 28.3 15.8 28.0 Q15.8 28.3 15.25 28.1 L15.1 27.95 15.0 27.9 14.75 27.85 14.6 27.9 13.25 27.95 12.9 28.1 12.65 28.1 12.5 28.1 11.8 27.9 11.5 27.85 11.5 28.0 11.4 28.1 11.1 28.1 10.75 28.0 10.6 28.05 10.1 28.1 10.1 28.15 10.55 28.5 11.05 28.6 11.5 28.65 11.5 28.1 11.85 28.65 11.9 28.65 12.35 28.8 12.65 28.65 13.05 28.45 13.2 28.4 13.5 28.65 13.85 28.85 14.05 28.8 14.1 28.8 14.05 28.9 13.85 28.85 13.65 29.0 13.6 29.05 14.35 29.0 M15.45 27.65 L15.4 27.6 15.25 27.6 15.45 27.65 M18.15 27.8 L17.8 28.1 17.75 28.0 17.15 28.1 16.95 28.6 16.6 28.65 Q16.35 28.65 16.05 28.45 L15.8 28.3 15.8 28.65 15.05 28.95 14.9 29.2 14.4 29.0 M15.0 27.9 L16.2 27.85 16.55 27.8 16.85 27.7 M11.65 27.3 L11.55 27.3 11.2 27.15 11.0 27.2 11.0 27.3 11.05 27.3 11.1 27.45 11.25 27.45 11.45 27.45 11.5 27.45 11.65 27.5 12.1 27.8 12.2 27.85 12.75 27.95 12.85 27.7 13.65 27.7 13.25 27.95 13.0 28.0 12.75 27.95 12.65 28.1 12.2 27.85 11.95 27.8 11.4 27.65 11.5 27.7 11.5 27.85 11.1 27.75 11.0 27.85 11.0 27.9 11.0 28.0 10.85 28.0 10.75 28.0 10.7 28.0 10.2 28.0 10.05 28.0 10.05 28.1 10.1 28.1 M11.5 27.45 L11.5 27.6 11.4 27.6 11.4 27.65 11.25 27.65 11.15 27.7 11.1 27.7 11.1 27.75 10.9 27.7 10.85 27.75 10.85 27.8 10.8 27.85 11.0 27.85 M11.95 29.05 L12.3 29.05 12.1 28.9 12.05 28.9 11.75 29.05 11.95 29.05 M12.35 28.8 L12.5 28.9 12.7 29.05 Q12.95 28.95 13.05 28.45 M12.3 29.05 L12.5 29.05 12.7 29.05 12.75 29.05 13.25 29.05 13.6 29.05 13.2 29.2 12.75 29.05 M12.35 28.8 L12.1 28.9 11.85 28.65 11.2 28.75 10.95 28.75 11.0 28.8 11.75 29.05 11.3 29.25 10.65 29.45 9.55 29.0 9.25 28.75 8.8 28.25 7.9 27.7 7.9 27.55 7.9 27.4 7.75 27.3 7.75 27.2 7.9 27.3 7.9 27.05 8.05 27.05 8.05 27.2 8.15 27.05 8.3 27.2 8.3 27.6 8.55 27.4 8.4 27.1 8.3 27.05 8.3 26.9 8.4 27.1 8.65 27.3 8.9 27.05 Q9.25 26.8 9.7 26.8 L9.75 26.8 9.65 26.9 9.7 27.45 9.8 27.6 9.75 27.6 9.7 27.65 9.6 27.75 9.7 27.8 9.8 27.8 10.05 27.8 10.05 27.75 10.2 27.5 10.55 27.45 11.0 27.3 11.05 27.45 11.1 27.45 11.1 27.6 11.25 27.6 11.25 27.45 M10.55 27.45 L10.7 27.5 11.05 27.45 11.1 27.6 11.25 27.65 11.25 27.6 11.3 27.6 11.45 27.45 M11.55 27.3 L11.25 27.15 11.2 27.15 11.0 27.1 10.9 27.05 M9.7 27.45 L8.95 27.3 8.95 27.55 9.0 27.6 9.25 27.6 9.45 27.65 9.5 27.65 9.75 27.6 M10.05 27.8 L9.9 27.85 9.9 27.9 10.05 27.95 10.05 27.8 10.4 27.75 10.2 27.6 10.2 27.5 M9.6 27.75 L9.55 27.7 9.5 27.7 9.5 27.85 9.6 27.75 M9.7 27.65 L9.55 27.7 9.45 27.65 9.15 27.7 9.0 27.6 8.95 27.6 8.75 27.9 8.8 28.0 8.85 28.0 8.95 28.1 9.05 27.85 9.45 27.85 9.5 27.85 9.8 27.8 9.9 27.9 9.9 28.0 10.05 28.0 10.05 27.95 10.2 28.0 10.5 27.85 10.4 27.75 10.5 27.75 10.55 27.75 10.55 27.6 10.85 27.6 10.7 27.5 M10.05 28.1 L9.9 28.0 9.45 27.85 M8.95 28.1 L9.2 28.45 9.15 28.25 9.15 28.15 9.1 28.1 9.1 28.0 9.15 28.15 9.45 28.6 10.0 28.75 10.15 28.65 10.55 28.5 10.95 28.75 10.45 28.8 10.0 28.75 9.8 28.8 Q9.55 28.8 9.45 28.6 L9.25 28.5 9.25 28.75 M8.95 28.1 L8.95 28.25 8.8 28.0 8.7 28.0 8.8 28.25 9.1 28.45 9.25 28.5 9.2 28.45 M11.1 27.6 L10.85 27.6 10.85 27.7 10.9 27.7 11.1 27.65 11.1 27.6 M11.25 27.65 L11.1 27.65 11.1 27.7 M11.25 27.65 L11.4 27.6 11.3 27.6 11.25 27.65 M10.85 27.7 L10.85 27.75 10.65 27.75 10.6 27.8 10.55 27.8 10.55 27.85 10.8 27.85 10.7 28.0 10.5 27.85 10.55 27.8 10.55 27.75 10.65 27.75 10.7 27.7 10.75 27.7 10.85 27.6 M11.0 27.9 L10.85 28.0 M10.85 27.7 L10.75 27.7 10.65 27.75 M8.95 27.55 L8.65 27.3 8.55 27.4 8.7 27.55 8.95 27.6 8.95 27.55 M7.9 27.55 L7.95 27.35 7.9 27.3 7.9 27.4 M7.95 27.35 L8.05 27.45 8.05 27.2 8.0 27.25 7.95 27.35 M8.05 27.45 L8.2 27.55 8.45 27.75 8.75 27.9 8.7 28.0 8.45 27.75 8.05 27.7 8.05 27.45 M4.7 27.6 L4.35 27.75 4.15 27.85 4.15 27.6 3.75 27.9 3.2 28.4 3.2 28.45 3.6 28.8 3.8 28.7 3.9 28.4 4.05 28.65 4.4 28.65 4.9 28.55 5.5 28.0 M25.45 28.1 L25.2 28.1 24.5 28.0 24.75 28.3 24.9 28.8 25.25 28.65 25.45 28.1 25.1 27.45 25.05 26.65 24.0 26.85 23.2 26.9 23.1 27.0 23.15 27.05 23.05 27.05 23.05 27.1 23.05 27.3 22.95 27.2 22.65 27.3 22.25 27.1 22.15 27.0 21.9 27.15 21.75 27.35 21.7 27.45 21.7 27.7 21.8 27.55 22.1 27.45 22.35 27.5 22.35 27.6 22.35 28.1 23.05 28.1 23.4 27.9 23.85 27.85 24.5 28.0 23.85 28.65 23.05 28.9 22.5 28.85 22.15 28.3 22.35 29.2 21.8 28.45 21.55 28.05 21.3 27.85 21.3 27.7 21.55 28.05 22.15 28.3 22.35 28.35 23.45 28.4 M23.2 26.9 L23.05 26.9 23.05 26.95 23.1 27.0 23.05 27.05 22.65 27.0 22.95 27.2 23.0 27.15 23.05 27.1 M21.7 27.45 L21.55 28.0 21.55 26.9 21.45 26.85 21.25 26.8 21.0 26.8 21.0 27.35 20.9 27.85 20.9 27.25 20.85 27.15 20.65 27.6 20.65 27.3 20.8 27.0 20.85 26.9 20.9 26.8 Q20.95 26.35 21.35 26.35 21.8 26.35 22.4 26.8 L22.55 26.9 22.9 26.9 23.05 26.9 M23.05 27.05 L23.05 26.95 M21.25 26.8 L21.55 26.8 21.85 26.8 22.15 27.0 22.45 26.95 21.7 26.65 21.0 26.65 21.0 26.8 20.9 27.1 20.85 27.15 20.85 26.9 21.0 26.8 M22.45 26.95 L22.5 26.95 22.65 27.0 22.55 26.9 22.45 26.95 M21.55 26.9 L21.55 26.8 M16.9 26.9 L16.9 27.7" fill="none" stroke="#000000" stroke-linecap="round" stroke-linejoin="round" stroke-opacity="0.90588236" stroke-width="0.05"/>
  </g>
</svg>
