<?xml version="1.0" encoding="UTF-8" standalone="no"?>
<svg xmlns:xlink="http://www.w3.org/1999/xlink" height="20.75px" width="41.1px" xmlns="http://www.w3.org/2000/svg">
  <g transform="matrix(1.0, 0.0, 0.0, 1.0, 6.55, -6.7)">
    <path d="M27.6 13.2 L27.65 13.3 27.75 13.3 27.8 13.3 27.8 12.85 27.85 12.95 27.95 12.75 27.95 13.0 28.1 13.2 28.1 13.15 28.1 12.95 28.15 13.1 28.2 13.0 28.35 13.4 28.7 13.4 28.9 13.2 28.85 12.85 28.95 13.1 29.0 12.85 29.0 13.3 29.0 13.4 29.0 13.55 29.0 13.7 29.0 13.85 28.85 13.8 28.85 14.0 28.1 13.4 28.1 13.7 27.95 13.7 27.85 13.7 27.8 13.85 27.8 13.7 27.65 13.7 27.65 13.65 27.55 13.6 27.5 13.55 27.5 13.1 27.5 13.0 27.65 13.15 27.6 13.2 27.55 13.1 27.5 13.0 M27.65 13.3 L27.55 13.3 27.6 13.2 M27.5 13.1 L27.55 13.4 27.65 13.65 M28.1 13.2 L28.15 13.3 28.2 13.3 28.15 13.15 28.15 13.1 28.1 13.15 M27.85 12.95 L27.8 13.3 27.95 13.3 27.95 13.0 27.85 12.95 M27.8 13.3 L27.8 13.7 27.85 13.7 27.95 13.6 27.95 13.3 28.1 13.2 28.1 13.4 28.0 13.5 27.95 13.7 27.95 13.6 28.0 13.5 28.0 13.45 28.1 13.2 M28.85 13.8 L28.5 13.6 28.4 13.5 28.35 13.4 28.2 13.4 28.2 13.3 28.35 13.4 M28.9 13.2 L28.9 13.3 28.95 13.4 28.95 13.35 28.95 13.1 28.9 13.2 M29.0 13.3 L28.95 13.35 29.0 13.4 M29.0 13.55 L28.95 13.4 28.85 13.7 29.0 13.7 M25.05 6.9 L25.35 6.95 25.65 7.05 25.7 6.7 M26.45 18.8 L26.5 19.2 26.5 18.9 26.45 18.8 26.4 18.75 26.5 19.3 26.5 19.2 M19.95 15.9 L19.9 15.75 20.0 15.9 20.05 15.75 20.35 15.75 20.5 16.35 20.6 16.7 20.65 16.65 20.65 16.5 20.85 16.5 20.85 16.45 20.95 15.3 21.1 15.3 21.1 16.2 20.85 16.5 21.1 16.5 21.25 16.5 21.25 17.1 21.4 17.2 21.25 17.2 21.25 17.35 21.05 17.2 20.9 17.2 20.95 17.3 20.85 17.2 20.65 17.2 20.35 17.0 20.15 16.85 19.9 16.9 19.9 15.9 19.95 15.9 20.0 15.9 20.3 16.4 20.5 16.6 20.6 16.7 20.6 16.75 20.75 16.9 20.85 16.9 20.85 16.8 20.65 16.75 20.65 16.65 20.75 16.6 20.85 16.5 20.85 16.8 20.95 16.85 21.1 16.5 M20.3 16.4 L20.35 16.5 20.55 16.75 20.6 16.7 M20.3 16.4 L19.95 15.9 M20.85 16.9 L20.9 16.9 20.95 16.85 21.1 16.95 21.25 17.1 21.25 17.2 21.05 17.2 20.9 17.05 20.9 17.2 20.85 17.2 20.55 16.75 20.25 16.85 20.15 16.85 20.05 16.75 20.25 16.85 M20.6 16.75 L20.65 16.9 20.75 16.9 20.9 17.05 20.85 16.9 M24.65 24.75 L24.75 25.4 24.8 25.45 25.4 25.9 25.7 26.1 25.85 25.85 25.8 26.15 26.1 26.3 26.1 25.85 26.55 26.3 26.9 26.1 Q27.2 26.1 27.5 26.4 L28.1 27.05 27.85 27.0 27.65 27.1 27.25 27.2 Q27.05 27.2 26.8 26.85 L26.25 26.55 26.2 26.55 26.05 26.65 26.0 26.9 26.0 26.7 25.35 27.05 24.8 26.55 24.8 26.5 24.75 26.5 24.8 26.9 24.8 27.0 24.7 26.5 24.65 26.5 24.6 26.1 24.5 25.85 24.5 25.7 24.55 25.8 24.5 25.3 24.75 25.45 24.75 25.4 24.65 25.15 24.65 24.75 M24.6 25.95 L24.6 25.9 24.6 25.85 24.55 25.85 24.6 25.95 24.65 26.15 24.65 25.95 24.6 25.9 M24.55 25.85 L24.55 25.8 24.6 25.85 M24.55 25.85 L24.55 25.8 M24.8 25.45 L24.75 25.45 24.8 26.2 24.95 26.4 25.45 26.9 25.8 26.15 25.7 26.1 25.45 26.5 24.95 25.75 24.8 25.45 M28.85 13.7 L28.85 13.8 M30.4 19.95 L30.45 20.4 Q30.6 21.1 31.2 21.5 31.55 21.75 31.95 21.8 L32.0 21.15 32.0 20.85 31.65 20.75 30.95 20.2 31.4 20.15 31.05 20.0 31.65 20.0 Q32.25 20.05 32.4 20.9 L32.0 20.85 31.75 20.4 31.6 20.25 31.4 20.15 M30.45 20.4 L30.4 20.65 Q30.35 21.15 30.0 21.3 L30.6 22.1 31.3 22.35 Q31.8 22.35 31.95 21.8 L32.25 21.85 32.45 21.85 32.4 21.65 32.5 21.3 32.65 21.15 33.35 21.15 32.9 21.8 32.45 21.85 32.6 22.4 32.65 22.5 32.95 22.9 32.95 23.05 32.65 22.5 32.5 22.4 32.0 22.25 31.9 22.5 31.9 22.9 32.95 23.3 33.0 23.3 33.35 22.1 33.6 22.1 33.75 22.5 33.9 23.05 33.9 23.85 Q33.75 23.55 33.0 23.3 L32.9 23.75 32.9 23.85 Q32.7 24.65 32.25 24.65 31.95 24.65 31.75 24.1 31.5 23.5 31.6 22.9 L31.6 23.05 32.05 23.7 32.25 24.5 32.6 24.1 32.9 23.85 M27.65 13.7 L27.75 13.3 M26.5 19.3 L26.65 19.3 26.5 18.9 M28.85 13.7 L28.4 13.5 M13.25 13.15 L13.25 12.4 13.7 12.8 14.2 13.0 14.35 13.0 14.25 12.9 14.2 12.8 13.85 12.55 14.35 12.55 14.25 12.9 M-1.55 13.65 L-1.75 13.35 -1.85 13.3 -1.85 13.15 -1.75 13.35 -1.7 13.4 -1.55 13.55 -1.55 13.65 -1.55 13.7 -1.3 13.25 -1.25 13.0 -1.25 12.7 -1.4 12.55 -1.95 12.7 -2.5 12.85 -2.2 13.45 -2.15 13.1 -2.1 13.55 -2.05 13.6 -1.55 13.85 -1.55 13.7 -1.25 14.15 -0.8 13.6 -0.55 13.15 -0.8 13.0 -1.05 13.05 -1.3 13.25 M-1.55 13.85 L-1.55 14.45 -2.05 13.75 -2.1 13.55 -2.2 13.45 -2.2 13.6 -2.25 13.95 M1.0 11.85 L0.85 11.85 0.9 12.05 1.0 11.85 M0.9 12.05 L0.9 12.1 0.4 12.4 0.35 13.0 0.25 13.4 -0.45 13.2 -0.55 13.15 -0.5 12.85 -0.8 13.0 M1.6 19.4 L1.75 19.3 1.9 19.3 2.0 19.3 2.3 19.3 2.4 19.4 2.65 19.5 2.95 20.1 2.9 20.35 2.8 20.35 2.1 19.8 1.95 19.55 1.9 19.55 1.6 19.55 1.6 19.4 M1.9 19.3 L1.9 19.4 2.4 19.4 2.4 19.55 1.95 19.55 1.9 19.4 1.9 19.55 M-1.5 27.2 L-2.0 27.15 -2.25 27.2 -2.6 27.2 -2.5 27.3 -2.25 27.45 -2.4 27.45 -2.5 27.3 -2.8 27.2 -4.15 27.2 -4.15 27.45 -5.05 27.45 -5.05 27.2 -5.15 27.05 -5.2 27.05 -5.2 26.0 -5.2 25.85 -5.2 25.3 -4.95 25.25 -4.55 25.15 -3.65 25.25 -2.55 25.3 -2.65 26.2 -2.65 26.65 -2.2 26.5 -1.75 26.25 -1.75 26.5 -1.8 26.65 -2.25 27.15 -2.2 27.15 -2.0 27.15 M-3.05 25.3 L-3.0 25.45 -2.75 25.45 -2.8 25.3 -3.05 25.3 -3.45 25.3 -4.15 25.45 -3.0 25.45 -2.9 26.9 -2.8 26.9 -2.65 26.15 -2.65 26.1 -2.75 25.45 -2.65 25.45 -2.65 26.1 M7.65 23.55 L7.95 23.85 8.15 23.85 8.1 23.7 8.05 23.55 7.65 23.55 7.55 23.5 7.1 23.15 7.1 23.45 7.35 23.85 7.5 23.85 7.5 23.55 7.65 23.55 M8.15 24.25 L8.2 24.15 8.3 24.1 8.0 24.05 7.65 23.95 7.4 23.9 7.3 23.85 7.35 24.1 7.35 24.5 7.75 24.4 8.15 24.25 M8.05 23.95 L7.95 23.85 7.55 23.85 7.65 23.95 8.05 23.95 M7.1 23.7 L7.1 23.8 7.3 23.85 7.25 23.7 7.1 23.7 M7.55 23.85 L7.5 23.85 M7.1 24.2 L7.1 24.35 7.15 24.4 7.1 24.2 7.05 24.1 6.95 23.7 7.1 23.8 7.1 24.2 M7.15 24.4 L7.25 24.5 7.35 24.5 M-2.25 27.15 L-2.25 27.2 M-2.65 26.15 L-2.65 26.2 -2.7 26.4 -2.65 27.1 -2.25 27.15 M-3.4 26.2 L-4.15 25.45 -4.15 25.6 -3.75 26.1 -3.4 26.5 -3.4 26.2 M-3.4 26.5 L-3.3 26.65 -3.45 26.65 -3.4 26.5 M-2.8 27.2 L-2.8 27.05 -2.65 27.1 -2.6 27.2 -2.8 27.2 M-3.2 26.9 L-3.05 26.9 -3.85 26.4 -4.15 26.2 -4.15 26.8 -3.65 26.8 -3.2 26.9 M33.55 26.8 L33.2 26.9 33.95 26.9 34.0 26.8 33.95 26.8 33.55 26.8 M33.2 26.9 L32.95 26.9 M32.95 27.2 L33.45 27.1 34.15 26.9 33.95 26.9 M34.15 26.9 L34.55 26.9 34.0 26.8 M27.85 27.0 L27.15 26.65 26.55 26.3 26.4 26.4 26.25 26.55 26.05 26.5 26.05 26.65 26.0 26.7 26.0 26.5 26.05 26.5 26.1 26.3 26.4 26.4 M24.7 26.5 L24.7 26.45 24.6 26.1 24.6 25.95 M24.75 26.5 L24.7 26.5 M24.8 26.5 L24.8 26.45 24.7 26.25 24.75 26.5 M24.8 26.45 L24.8 26.2 24.65 25.95 M24.65 26.15 L24.7 26.25 M-4.0 18.45 L-4.25 18.05 Q-4.5 17.8 -4.8 17.8 L-5.45 18.2 -5.6 18.75 -4.65 18.75 -4.25 18.9 -4.25 19.3 -4.45 19.45 -4.8 19.55 -5.25 19.45 Q-5.45 19.65 -5.6 19.65 L-6.25 19.95 Q-6.55 20.15 -6.55 20.5 -6.55 21.0 -6.0 21.4 -5.5 21.85 -5.0 21.85 -4.6 21.85 -4.55 21.45 L-4.5 21.15 -4.55 21.15 -5.2 21.45 -5.5 21.35 -5.6 21.15 -5.6 20.35 -5.6 20.1 -5.2 20.2 -4.95 20.1 -4.35 20.1 -4.15 20.1 -4.05 20.15 -4.0 20.4 Q-4.0 20.85 -4.5 21.15 L-4.5 21.0 Q-4.5 20.7 -4.65 20.55 L-4.85 20.4 -5.6 20.35 -5.2 20.2 -4.85 20.4 -4.8 20.4 -4.65 20.55 -4.5 20.6 -4.35 20.1 M-5.6 18.8 L-5.75 18.9 -5.75 19.15 -5.55 19.2 -5.6 18.9 -5.6 18.8 -5.6 18.75 M-5.25 19.45 L-5.1 19.3 -5.15 19.3 -5.5 19.2 -5.55 19.2 -5.25 19.45 M-5.05 19.25 L-5.1 19.3 -4.75 19.2 -4.5 19.15 -4.5 19.0 Q-4.8 18.9 -5.05 19.25 M-5.2 25.85 L-4.95 25.85 -4.75 26.05 -4.55 25.85 -4.4 25.7 -4.15 26.15 -4.15 25.7 -4.35 25.45 -4.4 25.3 -3.45 25.3 M-4.15 25.45 L-4.25 25.45 -4.35 25.45 M-4.15 25.7 L-4.15 25.6 M-4.15 26.2 L-4.15 26.15 -4.25 26.8 -4.55 26.35 -4.75 26.05 -4.8 26.1 -5.05 26.1 -5.2 26.0 M-5.05 27.2 L-4.15 27.2 -4.15 26.8 -4.65 26.95 -5.05 27.2" fill="none" stroke="#000000" stroke-linecap="round" stroke-linejoin="round" stroke-opacity="0.90588236" stroke-width="0.05"/>
  </g>
</svg>
