<?xml version="1.0" encoding="UTF-8" standalone="no"?>
<svg xmlns:xlink="http://www.w3.org/1999/xlink" height="24.65px" width="32.8px" xmlns="http://www.w3.org/2000/svg">
  <g transform="matrix(1.0, 0.0, 0.0, 1.0, 3.6, 0.35)">
    <path d="M-0.45 0.55 L-0.45 0.85 Q0.0 0.85 0.35 1.3 L0.65 1.7 0.7 1.7 0.7 1.75 0.85 2.0 1.0 1.8 0.7 1.3 Q-0.05 0.15 -0.75 0.1 M-0.45 0.85 L-0.45 0.95 -0.4 1.1 -0.35 1.05 -0.4 1.25 -0.25 1.65 0.0 1.95 0.05 1.85 0.05 2.0 0.3 2.1 0.6 2.1 0.6 2.05 0.6 1.7 0.65 1.7 0.7 1.75 0.6 2.05 M-0.45 0.95 L-0.45 1.15 -0.4 1.1 -0.4 1.25 -0.4 1.45 -0.45 1.6 -0.45 1.15 M0.65 0.05 L1.05 0.55 Q1.25 0.8 1.6 0.85 M4.5 2.75 Q4.25 2.75 4.0 2.55 L3.65 1.8 Q4.0 2.5 4.5 2.75 L4.55 2.75 4.6 2.75 5.05 2.6 Q5.3 2.45 5.45 2.45 L5.65 2.55 5.75 2.35 6.05 2.55 6.3 2.75 6.6 2.55 6.8 2.25 7.2 2.5 7.3 2.75 7.45 2.7 7.65 2.65 7.75 3.0 7.85 3.4 7.95 3.4 8.05 3.05 8.15 2.55 8.5 2.9 8.7 3.3 Q9.25 3.15 9.45 2.45 L9.6 2.75 9.85 3.05 10.25 2.65 10.4 2.35 9.25 2.35 6.95 2.05 6.55 1.95 6.0 1.8 5.95 1.8 3.85 1.3 4.0 1.3 5.95 1.8 5.15 1.4 4.9 1.4 Q4.15 1.4 3.5 0.85 2.6 0.1 1.7 -0.2 L1.6 -0.35 5.15 1.4 5.45 1.3 6.3 1.0 M13.3 1.15 L13.3 1.55 14.8 1.55 15.3 1.35 14.55 1.15 13.3 1.15 M16.6 1.05 L15.3 1.35 17.15 1.85 19.0 2.35 18.45 2.35 17.8 2.2 17.1 2.1 16.15 2.3 16.05 2.35 16.1 2.4 16.25 2.55 15.9 3.15 15.75 3.35 15.75 3.4 16.0 3.25 16.35 2.95 16.35 4.0 16.35 4.1 17.3 3.4 17.95 2.95 17.85 2.95 17.05 2.9 16.7 2.45 18.85 2.4 21.1 2.0 20.4 2.6 21.1 2.9 21.7 3.25 22.65 2.95 Q23.0 2.65 23.3 2.65 L23.75 3.15 24.45 2.35 24.85 1.65 24.1 2.15 22.9 2.55 22.25 2.4 22.0 2.3 21.7 1.95 22.1 1.95 22.1 1.8 19.85 1.4 17.45 1.0 16.6 1.05 M22.5 1.8 L22.75 1.9 22.95 2.0 23.4 2.1 23.9 2.2 24.1 2.05 24.8 1.35 24.95 1.45 25.0 1.35 25.1 1.35 25.0 1.5 25.15 1.6 25.5 2.0 25.85 1.6 26.0 1.8 26.15 2.1 26.9 1.5 27.4 0.95 27.5 1.7 27.5 2.3 27.9 1.6 27.95 1.65 28.0 1.7 28.25 1.5 28.55 1.25 28.95 1.6 29.1 2.05 29.1 2.3 29.2 2.55 28.9 2.75 28.35 2.85 27.85 2.65 27.4 2.45 26.9 3.0 25.6 3.25 25.4 3.25 25.2 2.75 25.3 2.4 Q25.4 2.2 25.6 2.2 L26.25 2.35 26.9 2.45 27.35 2.45 27.4 2.45 27.5 2.3 27.5 2.35 27.4 2.45 M28.9 2.75 L28.85 2.75 29.1 2.35 29.1 2.3 M26.9 2.45 L27.0 2.45 27.35 2.45 M28.1 6.0 L28.1 5.75 28.15 5.7 28.1 5.45 28.0 5.45 27.95 5.55 27.95 5.65 27.9 5.8 27.9 5.55 27.95 5.55 M24.95 1.45 L25.0 1.5 24.85 1.65 24.95 1.45 M23.9 2.2 L23.3 2.45 22.35 2.4 22.0 2.3 M23.6 7.15 L23.5 7.35 23.5 7.3 23.45 7.4 23.3 7.8 23.3 7.7 23.45 7.4 23.45 7.35 23.5 6.95 23.5 7.3 23.6 7.15 23.75 6.85 24.15 7.55 24.25 7.55 24.3 7.15 24.35 6.65 24.45 6.75 Q24.45 6.4 23.8 6.25 L23.0 6.1 22.95 6.25 22.9 6.5 Q22.9 6.85 23.2 7.25 L23.2 7.35 23.1 7.35 23.2 7.7 Q22.6 7.5 22.55 6.85 L22.6 6.85 22.85 7.15 23.1 7.35 22.95 6.95 22.8 6.6 22.55 6.6 22.55 6.1 22.6 6.1 22.8 6.6 M20.4 2.6 L20.3 2.55 19.2 2.75 18.75 2.85 18.8 3.05 20.0 2.75 20.4 2.6 M18.75 2.85 L17.95 2.95 18.65 2.55 18.75 2.85 M18.8 6.3 L18.9 6.75 M25.9 19.0 L25.5 19.75 25.5 19.05 25.8 18.3 M22.65 19.55 L23.0 19.55 23.4 19.65 23.0 20.4 M17.3 15.85 L17.75 16.2 17.95 16.7 M20.45 20.1 L20.4 20.35 M17.25 20.85 L17.2 21.25 17.0 21.8 17.0 21.45 16.5 21.05 16.5 20.95 16.8 20.3 16.85 20.45 16.9 20.5 16.9 20.6 17.0 20.8 17.0 20.9 17.0 20.95 17.1 21.45 17.1 21.35 17.25 20.85 17.25 20.8 17.3 20.4 17.4 20.3 17.25 20.8 M17.0 21.45 L17.0 20.95 16.95 20.8 16.95 20.75 16.9 20.6 16.9 20.5 16.85 20.5 16.85 20.45 M16.95 20.75 L17.0 20.9 M20.45 23.25 L20.45 23.55 20.35 23.85 M6.0 1.8 L7.9 1.8 9.9 1.6 11.5 1.4 Q11.95 1.4 13.3 1.95 L13.95 2.2 13.95 2.1 14.05 1.9 14.15 2.0 14.3 2.3 15.05 2.5 15.2 1.8 15.2 1.9 15.3 2.5 15.55 2.45 15.55 2.35 15.7 2.35 Q15.75 2.25 15.9 2.25 L16.05 2.35 15.55 2.45 15.65 2.95 15.75 3.35 15.55 3.5 15.55 3.6 15.75 3.4 15.55 4.3 Q15.3 5.15 14.75 5.15 L14.4 4.75 14.25 4.75 14.05 4.5 13.95 3.95 14.0 3.55 13.85 3.7 13.85 3.5 13.75 3.3 13.6 3.3 13.45 3.25 13.35 2.9 13.3 2.55 Q13.0 2.6 12.7 2.8 L12.25 3.25 12.25 3.05 12.35 2.1 12.05 2.4 11.75 2.85 11.55 2.4 11.45 2.0 11.2 2.45 10.7 2.95 10.65 2.85 10.6 2.85 10.5 2.35 10.4 2.35 10.45 2.25 10.5 2.35 10.6 2.3 Q11.15 2.2 11.15 1.55 L8.25 1.95 8.2 1.95 6.85 1.95 6.55 1.95 M15.3 2.5 L15.05 2.5 15.0 3.25 14.65 2.95 14.8 3.55 14.8 4.15 15.25 3.65 15.3 2.65 15.3 2.5 M14.65 2.95 L14.5 2.8 14.15 2.25 14.05 2.2 14.0 3.25 14.0 3.45 14.1 3.3 14.35 2.85 14.45 2.85 14.5 4.2 14.8 4.15 14.8 4.25 14.4 4.75 14.25 4.4 14.0 3.45 14.0 3.55 M14.0 3.25 L13.95 2.4 13.95 2.2 14.05 2.2 14.05 2.1 14.15 2.1 14.15 2.25 14.3 2.3 14.55 2.7 14.65 2.95 M6.6 3.4 Q6.4 3.5 6.25 3.9 L7.0 3.8 6.6 3.4 M9.85 6.45 L9.95 6.5 9.85 6.3 9.85 6.45 M7.3 9.6 L7.45 10.4 7.55 10.3 7.6 9.9 7.65 9.6 7.75 9.6 7.75 10.1 7.55 10.3 M9.55 14.25 L9.6 14.6 9.75 14.95 9.85 15.0 9.95 15.05 Q9.85 14.7 10.1 14.25 L9.85 13.45 9.95 13.55 10.15 13.75 Q10.15 13.35 10.4 13.15 L11.0 12.95 11.2 12.65 11.45 13.0 11.45 13.05 11.55 13.05 11.55 13.2 11.65 13.4 11.7 13.4 11.75 13.15 11.75 13.05 11.7 13.4 M11.3 13.5 L11.45 13.2 11.3 13.35 11.25 13.65 11.3 13.5 M11.0 12.95 L11.15 12.95 11.4 13.0 11.45 13.0 M15.2 8.0 L15.3 8.1 15.35 8.1 15.35 8.55 15.3 8.55 15.2 8.0 15.0 7.8 15.1 7.7 15.2 8.0 M11.25 13.65 Q11.05 13.95 11.1 14.2 L11.2 14.2 11.55 13.6 11.55 13.2 11.45 13.05 11.45 13.2 M11.65 13.4 L11.7 13.5 11.95 13.95 12.0 13.8 Q12.2 13.15 12.6 13.15 L12.8 13.15 12.9 13.25 12.7 13.85 12.15 14.3 11.95 13.95 11.65 15.05 10.65 14.4 10.3 13.95 10.15 14.15 10.2 14.35 10.25 14.6 10.35 14.9 10.35 14.95 10.25 14.6 M11.55 13.6 L11.65 13.45 11.65 13.4 M5.05 2.6 L5.05 2.95 5.35 3.05 5.55 2.7 5.65 2.55 5.75 2.65 5.75 2.7 5.8 2.75 6.05 3.25 5.75 2.7 M5.75 2.65 L5.45 3.05 5.0 3.5 5.05 2.95 4.9 2.9 4.75 3.1 4.1 3.3 3.75 3.25 Q3.45 3.1 3.45 2.8 L3.5 2.65 2.9 2.7 2.9 2.75 2.8 2.75 2.7 2.95 2.65 2.85 2.6 2.85 2.5 2.7 2.5 3.15 2.2 2.7 2.2 2.65 2.05 2.95 1.75 3.15 1.4 2.95 1.25 2.2 0.95 2.55 0.7 2.85 0.6 2.75 0.6 2.1 0.5 2.4 0.05 3.15 0.05 2.0 0.0 1.95 -0.15 2.25 -0.5 2.65 M5.5 4.3 L5.4 4.45 5.15 4.6 5.15 4.65 5.0 4.75 4.25 5.15 Q3.85 5.15 3.7 4.9 L3.45 4.35 3.4 4.3 3.15 4.05 2.15 3.4 2.55 3.4 3.9 3.65 Q5.0 4.0 5.15 4.5 L5.45 4.35 5.5 4.3 5.55 4.1 5.65 4.1 5.5 4.3 5.65 4.2 5.85 4.0 6.25 3.9 M5.05 2.6 L4.9 2.9 4.55 2.75 M2.8 2.75 L2.7 2.7 2.6 2.65 2.5 1.7 2.5 2.7 2.4 2.55 2.3 2.4 2.25 2.45 2.2 2.55 2.2 2.65 2.15 2.55 2.05 2.55 2.0 2.3 1.95 2.1 1.85 2.45 1.75 2.45 1.75 2.55 1.3 2.25 1.3 2.2 1.25 2.2 M2.8 2.75 L2.9 2.7 2.95 2.45 3.0 2.15 2.75 1.5 2.5 1.3 2.5 1.7 M2.1 2.45 L2.05 2.45 2.05 2.35 2.1 2.45 2.1 2.5 2.15 2.55 2.2 2.55 2.2 2.35 2.3 2.4 2.3 2.2 2.25 1.95 2.2 1.8 2.15 1.75 2.05 1.7 2.05 1.75 2.05 1.85 2.05 1.9 2.2 2.25 2.15 2.25 2.05 1.9 M2.05 1.75 L2.0 1.8 2.05 1.85 M1.4 2.0 L1.45 2.05 1.4 2.0 1.35 1.9 1.35 1.8 1.4 1.8 1.35 1.6 1.85 1.6 2.0 1.8 1.9 2.1 1.75 2.45 1.6 2.4 1.45 2.35 1.3 2.25 M1.9 2.1 L1.4 1.8 1.4 2.0 M1.45 2.35 L1.45 2.2 1.3 2.2 1.2 2.1 1.1 1.9 1.1 2.35 0.85 2.0 0.75 2.05 0.6 2.1 M1.45 2.2 L1.45 2.1 1.45 2.05 M3.45 4.35 L4.2 4.75 4.8 4.65 4.55 4.5 3.65 3.9 3.75 3.9 4.35 4.35 4.55 4.5 4.9 4.6 5.15 4.5 5.15 4.6 5.45 4.35 M5.15 4.6 L5.1 4.65 5.15 4.65 M4.8 4.65 L4.9 4.65 5.1 4.65 4.9 4.6 4.8 4.65 M4.2 7.45 L4.6 7.55 4.6 8.3 4.55 8.3 4.55 8.35 4.7 8.65 4.35 9.0 3.85 9.35 3.8 9.15 3.75 8.85 3.55 8.4 3.45 8.4 3.4 8.05 3.35 7.6 3.5 8.15 3.55 8.4 3.95 8.4 4.1 8.1 4.1 8.0 4.1 7.75 4.0 7.6 3.75 8.1 3.8 7.8 3.85 7.7 3.8 7.55 3.65 7.55 3.65 7.25 3.8 7.55 3.85 7.55 3.85 7.25 4.2 7.45 M1.1 1.9 L1.0 1.8 1.1 1.5 1.1 1.9 M-0.35 8.8 L-0.35 8.95 -0.45 8.95 -0.35 8.8 -0.25 8.5 -0.25 8.95 -0.05 9.25 -0.25 9.25 -0.25 8.95 M4.0 7.6 L4.0 7.55 3.85 7.55 3.95 7.6 4.0 7.6 M3.85 7.7 L3.85 7.55 M4.1 8.1 L4.1 8.4 4.5 8.4 4.55 8.35 4.05 7.6 4.0 7.55 M4.1 8.4 L3.95 8.4 3.8 8.6 3.75 8.85 3.95 8.85 4.05 8.45 4.1 8.4 M2.5 14.7 L2.7 15.25 M-3.6 19.4 L-3.55 19.7 -3.5 20.65 -3.05 20.1 -3.05 20.25 -3.1 20.65 -2.75 20.1 -3.15 19.9 -3.3 19.7 -3.15 19.55 -2.95 19.8 -2.75 20.1 -2.95 19.65 -3.15 19.4 -3.15 19.3 -2.45 20.0 -1.95 20.5 -2.55 20.8 -2.65 20.85 -2.35 21.45 -2.45 21.55 -2.7 21.6 Q-3.0 21.6 -3.1 21.3 L-3.2 21.15 -3.25 21.35 -3.3 22.35 -3.45 21.15 -3.6 21.3 -3.6 20.9 -3.55 19.7 M-3.5 20.65 L-3.45 21.15 -3.3 20.9 -3.2 20.75 -3.1 20.65 -3.15 20.85 -3.1 20.75 -3.05 20.65 -2.65 20.85 -2.95 20.9 -3.15 20.9 -3.2 21.15 -3.3 20.9 -3.15 20.9 -3.15 20.85 M-3.5 20.65 L-3.55 20.7 -3.6 20.9 M10.3 13.95 L10.15 13.75 10.15 14.15 10.1 14.25 10.25 14.6 M10.3 13.95 L10.4 13.75 11.0 12.95 M11.3 20.95 L11.4 21.65 10.95 21.0 10.8 20.8 10.25 20.7 9.9 20.6 10.05 20.55 10.2 20.35 M9.75 19.9 L9.8 19.95 9.85 19.95 9.75 19.9 M14.5 21.45 L14.45 20.8 M16.25 20.1 L16.3 20.5 M13.0 21.35 L12.9 21.65 12.6 21.45 12.6 21.6 12.6 21.9 12.5 22.1 11.85 20.95 M12.6 21.45 L12.45 21.25 M11.95 23.55 L12.35 23.55 Q12.25 23.25 11.75 23.05 L11.85 23.55 11.95 23.55 11.95 24.1 12.1 24.15 12.35 23.85 12.35 23.55 12.6 24.1 12.5 24.0 12.45 23.9 12.35 23.85 12.35 24.1 12.15 24.2 12.05 24.15 11.95 24.3 11.95 24.1 12.05 24.15 12.1 24.15 M11.55 13.6 L11.55 14.0 11.65 13.45 M2.5 1.3 L2.3 1.15 2.05 1.7" fill="none" stroke="#000000" stroke-linecap="round" stroke-linejoin="round" stroke-opacity="0.90588236" stroke-width="0.05"/>
  </g>
</svg>
