<?xml version="1.0" encoding="UTF-8" standalone="no"?>
<svg xmlns:xlink="http://www.w3.org/1999/xlink" height="6.7px" width="30.5px" xmlns="http://www.w3.org/2000/svg">
  <g transform="matrix(1.0, 0.0, 0.0, 1.0, 0.9, -22.9)">
    <path d="M6.8 28.8 L7.95 28.85 8.85 28.9 8.85 28.25 8.75 27.9 8.7 28.0 8.2 27.55 7.95 27.35 7.9 27.55 7.9 27.4 7.75 27.3 7.75 27.2 7.95 27.35 8.0 27.25 8.15 27.05 8.3 27.2 8.3 27.6 8.55 27.4 8.4 27.1 8.3 27.05 8.3 26.9 8.4 27.1 8.65 27.3 8.9 27.05 Q9.25 26.8 9.7 26.8 L9.75 26.8 9.85 26.3 Q9.95 25.7 10.25 25.7 L11.25 25.95 12.05 26.25 12.15 25.75 11.65 25.7 11.4 25.45 Q11.25 25.2 11.25 24.95 11.25 24.35 11.8 24.35 12.1 24.35 12.35 24.65 L12.5 24.85 12.6 24.65 12.95 24.85 13.1 25.05 13.35 24.95 13.4 24.95 12.9 24.45 12.7 24.1 12.85 23.9 13.1 23.85 13.4 24.1 13.65 24.5 13.55 24.1 13.55 24.0 12.9 23.45 12.0 22.9 11.35 23.0 11.0 23.3 10.5 23.65 10.55 23.65 10.55 23.75 10.2 24.1 Q10.2 24.45 9.65 24.85 L8.6 25.45 9.45 25.5 9.5 25.3 9.65 25.45 9.65 25.6 9.45 25.5 8.8 26.15 7.5 26.65 7.1 26.75 6.55 26.8 6.45 27.2 5.45 27.45 4.95 27.35 4.55 27.2 4.4 27.2 4.5 27.4 4.55 27.6 4.7 27.6 5.2 27.65 5.6 28.0 6.45 28.0 6.95 28.5 M10.2 24.1 L10.15 24.1 9.65 24.25 9.65 24.1 10.15 24.1 M10.9 24.05 L10.85 24.25 10.85 24.1 10.9 24.05 10.95 24.0 11.0 23.85 11.05 23.85 11.5 23.45 11.5 23.55 11.1 24.1 11.05 23.85 10.95 24.0 M13.55 23.95 L13.55 24.0 13.6 24.0 13.55 23.95 M13.9 24.15 L13.8 24.05 13.6 24.0 13.9 24.15 14.05 24.25 13.95 24.25 13.9 24.15 M12.5 24.85 L12.6 25.05 12.45 25.05 12.4 25.65 12.35 26.1 12.45 26.1 12.55 25.6 13.0 25.15 13.35 25.7 13.8 26.1 Q14.2 25.4 14.6 25.3 L14.9 26.0 15.05 26.45 15.05 26.35 15.4 26.1 Q15.4 26.65 15.55 26.9 L15.65 26.9 15.85 26.6 Q16.1 26.3 16.45 26.25 L16.6 26.9 16.9 27.7 16.9 26.9 M12.15 25.75 L12.15 25.65 12.45 25.05 12.5 24.85 M13.65 24.75 L13.4 24.95 M9.75 26.8 L10.9 27.05 11.25 27.15 11.8 27.05 12.2 26.9 13.0 26.65 13.4 26.85 14.05 27.05 14.5 27.2 14.6 27.45 14.75 27.5 14.9 27.6 14.9 26.9 15.25 27.2 M14.75 29.1 L14.8 29.05 14.85 29.0 14.25 29.05 14.75 29.1 15.3 29.1 15.5 29.15 15.45 29.05 14.85 29.0 15.4 28.65 15.45 29.05 15.8 29.05 15.75 29.15 16.45 29.2 Q16.95 29.2 17.25 28.9 L17.95 28.4 17.8 28.3 17.8 28.25 17.55 28.2 17.2 28.1 16.6 28.5 16.55 28.4 16.45 28.4 16.4 28.2 16.35 28.0 15.65 28.65 15.6 28.45 15.35 28.4 13.9 28.8 13.3 28.95 13.45 29.1 14.2 29.05 14.25 29.05 M15.45 27.65 L15.4 27.6 15.25 27.6 15.45 27.65 M16.9 27.7 L16.85 27.7 16.55 27.8 16.2 27.85 14.6 27.9 13.25 27.95 13.0 28.1 13.3 28.95 12.5 29.15 12.65 29.15 13.45 29.1 13.75 29.2 14.2 29.05 M11.25 27.15 L11.55 27.3 11.65 27.3 11.7 27.2 11.8 27.2 11.8 27.05 M11.5 27.45 L11.5 27.6 11.4 27.6 11.4 27.65 11.95 27.8 12.2 27.85 12.1 27.8 11.65 27.5 11.5 27.45 11.45 27.45 11.3 27.6 11.4 27.6 11.25 27.65 11.4 27.65 11.5 27.7 11.5 27.85 11.8 27.9 12.5 28.1 12.65 28.1 12.2 27.85 12.75 27.95 12.85 27.7 13.65 27.7 13.25 27.95 13.0 28.0 13.0 28.1 Q12.95 28.75 12.5 29.15 L12.45 29.15 11.65 29.45 11.55 29.45 12.2 29.6 13.4 29.35 13.75 29.2 14.2 29.2 14.75 29.1 M16.85 27.7 L12.35 27.45 11.65 27.3 M11.5 27.85 L11.5 28.0 11.4 28.1 11.1 28.1 10.75 28.0 10.6 28.05 10.3 28.1 10.95 28.85 11.0 28.85 11.05 28.6 11.1 28.4 11.15 28.7 11.8 28.4 M13.0 28.0 L12.75 27.95 12.65 28.1 12.9 28.1 13.0 28.1 M11.55 29.45 L10.5 29.25 10.45 29.35 10.25 29.45 10.1 29.35 10.05 29.3 9.65 29.0 9.25 29.35 9.15 29.2 9.1 29.2 8.85 28.25 9.1 28.35 8.8 27.9 8.75 27.9 8.75 27.8 8.7 27.7 8.7 27.65 8.75 27.8 8.8 27.9 8.95 27.6 8.7 27.55 8.55 27.4 8.65 27.3 8.95 27.55 8.95 27.3 9.7 27.45 9.65 26.9 9.75 26.8 M12.45 29.15 L12.1 29.2 11.05 28.9 11.0 28.85 11.0 28.9 10.7 29.0 10.35 29.2 10.5 29.25 10.65 29.2 11.3 29.4 11.55 29.45 M15.75 29.15 L15.55 29.45 15.5 29.15 15.75 29.15 M10.2 27.5 L10.2 27.6 10.4 27.75 10.5 27.75 10.55 27.75 10.55 27.6 10.85 27.6 10.7 27.5 10.55 27.45 10.2 27.5 10.05 27.75 10.05 27.8 10.4 27.75 10.5 27.85 10.55 27.8 10.55 27.75 10.65 27.75 10.7 27.7 10.75 27.7 10.85 27.6 11.1 27.6 11.05 27.45 10.7 27.5 M10.9 27.05 L11.0 27.1 11.2 27.15 11.25 27.15 M11.55 27.3 L11.2 27.15 11.0 27.2 11.0 27.3 11.05 27.3 11.1 27.45 11.25 27.45 11.45 27.45 M11.05 27.45 L11.0 27.3 10.55 27.45 M11.1 27.6 L11.1 27.45 11.05 27.45 M10.05 27.8 L10.05 27.95 10.2 28.0 10.2 27.85 10.25 27.95 10.5 27.85 10.7 28.0 10.8 27.85 10.55 27.85 10.55 27.8 10.6 27.8 10.65 27.75 10.75 27.7 10.85 27.7 10.85 27.6 M10.05 27.8 L9.8 27.8 9.9 27.9 9.9 27.85 10.05 27.8 M9.9 27.9 L10.05 27.95 10.05 28.0 10.2 28.0 10.25 27.95 10.25 28.0 10.7 28.0 10.75 28.0 10.85 28.0 11.0 27.9 11.0 27.85 10.8 27.85 10.85 27.8 10.85 27.75 10.65 27.75 M8.95 27.55 L9.0 27.6 9.25 27.6 9.45 27.65 9.5 27.65 9.75 27.6 9.8 27.6 9.7 27.45 M9.5 27.85 L9.8 27.8 9.7 27.8 9.6 27.75 9.5 27.85 9.5 27.7 9.55 27.7 9.45 27.65 9.15 27.7 9.0 27.6 8.95 27.6 8.95 27.55 M9.6 27.75 L9.7 27.65 9.55 27.7 9.6 27.75 M9.7 27.65 L9.75 27.6 M10.7 29.0 L10.4 28.75 10.25 28.1 10.05 28.1 10.05 28.0 9.9 28.0 9.9 27.9 M10.05 29.3 L9.75 28.95 9.65 28.8 9.65 29.0 9.35 28.65 9.1 28.35 9.65 28.8 10.35 29.2 10.1 29.35 M11.3 27.6 L11.25 27.6 11.25 27.65 11.3 27.6 M11.25 27.65 L11.15 27.7 11.1 27.7 11.1 27.75 11.5 27.85 M11.1 27.6 L11.1 27.65 11.25 27.65 11.1 27.6 11.25 27.6 11.25 27.45 M11.1 27.65 L11.1 27.7 M10.85 27.75 L10.85 27.7 10.9 27.7 11.1 27.65 M11.0 27.85 L11.1 27.75 10.9 27.7 10.85 27.75 M10.85 28.0 L11.0 28.0 11.0 27.9 M10.25 28.1 L10.3 28.1 10.25 28.0 10.2 28.0 10.25 28.1 M12.45 29.15 Q11.4 29.15 11.15 28.7 L11.0 28.85 M10.7 29.0 L10.95 28.85 M6.45 28.0 L6.45 28.1 6.3 28.1 6.3 28.65 5.9 29.2 5.5 28.7 5.2 28.25 4.25 29.0 3.5 29.45 3.2 28.75 3.05 28.75 2.6 29.25 Q2.25 29.65 1.9 29.6 L1.9 28.8 0.45 29.05 -0.2 28.75 -0.5 28.15 -0.55 28.0 -0.9 28.1 -0.6 27.7 -0.25 27.45 0.0 27.45 0.45 27.15 0.65 26.55 1.15 26.5 1.2 26.35 1.85 26.5 2.1 26.55 2.55 27.0 2.65 27.05 3.15 26.95 3.5 26.8 4.45 27.6 4.55 27.6 4.55 27.65 4.7 27.6 4.7 28.0 5.6 28.0 5.75 28.1 6.3 28.1 6.45 28.0 M4.45 27.6 L4.5 27.7 4.55 27.65 4.55 27.7 4.5 27.7 4.35 27.75 4.15 27.85 4.15 27.7 4.1 27.7 3.9 27.8 3.75 27.9 3.7 27.9 3.75 27.95 4.7 28.0 M4.15 27.7 L4.15 27.6 3.9 27.8 3.55 27.85 2.8 27.6 2.15 27.3 1.35 27.5 1.1 27.6 1.75 27.75 1.8 27.75 2.05 27.7 2.6 27.9 2.8 27.9 2.8 27.85 2.85 27.9 2.9 27.9 3.2 27.9 3.5 27.9 3.7 27.9 3.35 28.25 3.4 28.25 3.5 28.4 3.1 28.2 3.15 28.35 3.45 28.75 3.6 28.8 3.5 28.8 3.45 28.75 3.2 28.75 3.2 28.65 3.1 28.65 3.05 28.75 2.75 28.7 2.05 28.7 1.9 28.8 1.9 28.65 2.05 28.7 2.65 28.1 2.2 28.25 1.35 28.05 1.2 28.0 1.15 28.0 1.05 28.0 -0.4 28.0 -0.5 28.15 M4.15 27.7 L4.45 27.6 M2.55 27.0 L2.05 26.7 1.85 26.5 1.4 26.5 1.15 26.5 1.15 26.75 1.55 26.65 1.95 26.85 2.55 27.05 2.55 27.0 M1.1 27.6 L1.05 27.8 1.55 27.85 1.6 27.8 1.75 27.75 M1.8 27.75 L2.2 27.85 2.6 27.9 2.75 27.95 2.8 27.9 2.85 27.9 2.95 27.95 3.2 27.9 M2.65 28.1 L2.7 28.05 2.2 27.85 1.55 27.85 1.2 28.0 M2.75 28.05 L2.85 28.0 2.75 27.95 2.7 28.05 2.75 28.05 3.1 28.2 3.05 28.15 2.85 28.0 2.95 27.95 3.05 28.15 3.35 28.25 M2.65 28.1 L2.75 28.05 M0.3 27.5 L1.1 27.6 1.15 26.75 0.75 26.95 0.45 27.15 0.4 27.3 0.3 27.5 0.0 27.45 -0.25 27.7 -0.2 27.7 -0.15 27.7 0.0 27.65 0.3 27.5 M-0.2 27.7 L-0.45 27.9 -0.4 27.9 -0.4 27.95 -0.3 27.9 0.4 27.85 1.05 27.95 0.95 27.8 -0.15 27.7 M-0.55 27.85 L-0.55 28.0 -0.45 27.9 -0.55 27.85 M-0.4 28.0 L-0.55 28.0 -0.4 27.95 -0.4 28.0 M1.05 27.8 L1.05 27.95 1.15 28.0 M1.05 27.8 L0.95 27.8 0.8 27.7 1.1 27.6 M1.05 27.95 L1.05 28.0 M29.2 27.1 L29.3 27.15 29.35 27.15 29.3 27.05 29.2 27.1 28.95 27.05 Q28.75 27.05 28.6 27.2 L28.5 27.25 28.7 27.35 28.8 27.4 28.75 27.3 28.65 27.2 29.05 27.2 29.2 27.1 M29.35 27.15 L29.4 27.25 29.6 27.3 29.35 27.15 M28.8 27.4 L28.95 27.45 28.8 27.45 28.8 27.4 M27.6 28.65 L27.7 28.0 28.4 28.0 Q28.4 28.4 28.55 28.4 L28.55 28.65 27.6 28.65 27.35 28.65 26.8 28.65 26.8 28.4 26.5 28.4 26.5 28.8 25.65 29.0 24.85 29.2 24.6 29.1 24.5 29.35 23.6 28.4 24.2 28.9 24.6 29.1 24.6 29.05 24.5 29.05 23.7 28.25 23.3 28.0 23.05 28.1 22.35 28.1 22.35 27.6 22.35 27.5 22.1 27.45 21.8 27.55 21.7 27.7 21.7 27.45 21.55 28.0 21.55 26.9 21.45 26.85 21.25 26.8 21.1 26.8 21.0 26.8 21.0 26.9 21.0 27.35 20.9 27.85 20.9 27.25 20.85 27.15 20.65 27.6 20.65 27.3 20.8 27.0 20.85 26.9 20.1 26.9 20.7 26.65 Q21.05 26.35 21.3 26.35 L21.35 26.35 22.1 26.6 22.15 26.65 22.55 26.65 22.65 26.65 22.85 26.65 24.15 26.8 24.55 26.75 25.2 26.3 26.0 26.1 26.45 26.15 26.9 26.25 27.15 26.75 27.25 26.9 27.55 27.05 27.7 27.15 28.25 27.3 28.5 27.25 M26.6 27.45 L26.65 27.45 26.95 27.55 26.9 27.5 26.8 27.3 26.6 27.45 25.7 27.3 26.0 27.7 26.05 27.7 26.6 27.45 M27.25 26.9 L27.6 27.2 27.7 27.15 M27.25 26.9 L26.7 26.8 26.15 26.9 25.6 27.05 26.5 27.05 27.6 27.2 M27.35 28.65 L26.9 28.4 26.8 28.4 M27.05 27.6 L26.95 27.55 27.05 27.7 27.05 27.6 M26.65 27.45 Q26.4 27.6 26.3 27.65 L26.1 27.7 26.35 27.7 26.65 27.6 26.65 27.45 M24.55 26.75 L25.05 26.65 25.05 27.0 25.55 27.05 25.6 27.05 M23.6 27.3 L23.3 27.45 Q23.1 27.5 23.05 27.6 L23.3 28.0 23.4 27.9 23.85 27.85 24.3 27.95 24.9 27.85 25.25 27.85 25.1 27.45 25.05 27.0 24.35 26.85 24.15 26.8 24.0 26.85 23.2 26.9 23.1 27.0 23.15 27.05 23.05 27.05 23.05 27.1 23.05 27.3 22.95 27.2 22.65 27.3 22.25 27.1 22.15 27.0 21.9 27.15 21.75 27.35 21.7 27.45 M24.3 27.95 L24.5 28.0 24.85 28.05 24.9 27.85 M24.85 28.05 L25.2 28.1 25.45 28.1 25.25 27.85 25.95 27.75 26.0 27.7 25.9 27.7 25.4 27.7 Q25.2 27.55 25.3 27.05 L25.55 27.05 M24.6 29.05 L24.65 28.5 24.6 28.45 24.8 28.4 24.85 28.05 M26.5 28.4 L25.95 28.6 25.55 28.8 25.2 28.6 24.85 28.4 24.8 28.4 24.8 29.05 24.6 29.05 M26.05 27.7 L26.1 27.7 M25.25 27.85 L25.45 28.0 25.75 28.25 26.05 28.1 26.25 27.85 26.4 27.9 26.5 28.0 26.5 28.4 M23.05 27.05 L22.65 27.0 22.95 27.2 23.0 27.15 23.05 27.1 M23.05 27.05 L23.1 27.0 23.05 26.95 23.05 27.05 M23.2 26.9 L23.05 26.9 23.05 26.95 M22.55 26.65 L22.5 26.8 22.2 26.7 22.4 26.8 22.55 26.9 22.9 26.9 23.05 26.9 M22.15 26.65 L22.2 26.7 M22.1 26.6 L21.9 26.55 21.35 26.35 Q20.95 26.4 20.9 26.8 L20.85 26.9 20.9 26.85 21.0 26.8 21.0 26.65 21.7 26.65 21.75 26.65 22.15 26.65 M22.15 27.0 L21.85 26.8 21.55 26.8 21.55 26.9 M22.65 27.0 L22.5 26.95 22.45 26.95 22.15 27.0 M21.7 26.65 L22.45 26.95 22.55 26.9 22.65 27.0 M20.9 27.15 L20.9 26.95 20.85 26.95 20.85 27.15 20.9 27.15 20.9 27.1 21.0 26.9 20.9 26.9 20.9 26.95 M20.85 27.15 L20.8 27.05 20.85 26.95 20.85 26.9 20.9 26.9 20.9 26.85 M17.65 27.85 L17.8 28.1 18.15 27.8 M21.0 26.8 L21.7 26.65 M21.55 26.8 L21.25 26.8" fill="none" stroke="#000000" stroke-linecap="round" stroke-linejoin="round" stroke-opacity="0.90588236" stroke-width="0.05"/>
  </g>
</svg>
