<?xml version="1.0" encoding="UTF-8" standalone="no"?>
<svg xmlns:xlink="http://www.w3.org/1999/xlink" height="32.35px" width="35.1px" xmlns="http://www.w3.org/2000/svg">
  <g transform="matrix(1.0, 0.0, 0.0, 1.0, 2.85, 4.0)">
    <path d="M9.35 -1.55 L9.35 -1.85 9.3 -2.15 9.15 -2.1 9.05 -2.05 9.0 -2.05 8.8 -1.85 8.85 -1.7 8.7 -1.75 8.65 -1.6 8.35 -1.3 6.75 -1.8 Q5.6 -2.3 5.5 -2.5 L5.65 -2.5 7.05 -2.15 8.7 -1.75 8.8 -1.85 8.45 -2.4 7.9 -2.65 7.2 -2.9 6.35 -3.2 5.4 -3.1 4.15 -3.05 4.15 -2.75 4.3 -2.75 5.6 -2.75 6.15 -3.05 6.45 -2.95 6.65 -2.9 6.3 -2.75 5.6 -2.75 5.2 -2.35 Q4.5 -1.7 3.8 -1.7 L2.4 -2.0 Q1.65 -2.45 0.05 -2.9 L0.85 -2.85 1.2 -2.85 1.3 -2.95 1.7 -2.9 1.2 -2.85 1.15 -2.75 2.35 -2.65 4.15 -2.75 Q2.2 -3.6 0.65 -3.6 L-0.4 -3.35 Q-0.8 -3.3 -1.95 -4.0 L-1.95 -3.85 -1.2 -3.2 Q-1.0 -3.0 -0.7 -2.95 L-0.65 -2.95 -0.05 -3.2 0.25 -3.2 0.0 -3.0 -0.4 -2.9 -0.7 -2.95 -1.25 -2.75 Q-1.85 -2.75 -2.15 -3.05 L-2.85 -4.0 M9.35 -2.4 L9.3 -2.15 9.4 -2.15 9.45 -2.45 9.35 -2.4 M17.5 -2.15 L17.5 -1.85 17.5 -1.6 17.6 -1.35 18.0 -1.75 18.15 -2.3 18.2 -1.35 18.65 -1.9 18.65 -1.8 18.45 -1.4 18.25 -1.15 18.2 -1.35 17.4 -0.65 17.35 -0.6 17.5 -0.6 Q18.1 -0.6 18.95 -1.85 L19.15 -2.15 18.45 -2.45 17.45 -2.75 16.95 -2.5 Q16.7 -2.25 16.45 -2.25 L15.95 -2.35 15.5 -2.5 15.1 -2.3 14.6 -2.1 14.0 -2.3 13.1 -2.5 11.95 -2.45 10.35 -2.35 9.4 -2.15 9.35 -2.1 9.35 -1.85 M10.75 -1.8 L10.4 -1.75 10.15 -1.65 10.25 -1.65 10.85 -1.8 10.75 -1.8 M9.6 -1.6 L9.85 -1.7 M11.2 -1.05 L12.05 -0.85 11.75 -1.3 11.1 -1.25 11.2 -1.05 M10.85 -1.8 L12.3 -2.2 13.25 -2.3 Q14.25 -2.3 14.7 -1.8 L15.0 -1.75 15.05 -1.85 15.1 -1.95 15.1 -2.0 15.2 -2.25 15.1 -1.95 15.1 -1.9 15.15 -2.0 15.2 -2.1 15.2 -2.0 15.1 -1.45 15.05 -1.2 15.1 -1.15 15.15 -1.3 15.3 -1.7 15.3 -1.65 Q15.35 -1.35 15.55 -1.15 L15.55 -1.45 16.05 -1.45 16.5 -1.15 16.5 -1.05 16.35 -1.0 16.9 -0.8 Q17.15 -0.65 17.35 -0.6 L16.1 -0.4 15.75 -0.45 15.55 -0.75 15.55 -1.1 15.1 -1.15 15.0 -0.95 15.0 -1.15 15.0 -1.2 14.45 -1.25 12.7 -1.45 12.6 -1.45 11.95 -1.35 11.75 -1.3 11.45 -1.6 10.85 -1.8 M15.1 -1.9 L15.05 -1.85 15.05 -1.75 15.05 -1.7 15.1 -1.55 15.15 -2.0 M12.3 -2.2 L12.25 -2.0 12.25 -1.55 12.4 -2.2 12.5 -2.2 12.5 -1.85 12.6 -1.45 M15.55 -1.1 L15.65 -1.1 15.6 -1.15 15.55 -1.15 15.55 -1.1 M16.35 -1.0 L16.05 -0.95 15.65 -1.1 15.95 -1.05 16.35 -1.0 M15.05 -1.7 L15.0 -1.55 15.0 -1.2 15.05 -1.2 15.0 -1.15 M15.05 -1.7 L15.0 -1.7 14.9 -1.5 15.0 -1.2 M15.0 -1.75 L15.0 -1.7 15.05 -1.75 M15.1 -1.45 L15.1 -1.55 M14.9 -1.5 L14.7 -1.25 14.7 -1.35 14.85 -1.55 14.7 -1.8 M14.9 -1.5 L14.85 -1.55 15.0 -1.75 M20.0 -2.0 L20.55 -1.95 21.25 -1.85 21.65 -2.1 22.7 -2.65 22.05 -2.65 20.9 -2.2 20.5 -2.45 19.2 -2.2 20.0 -2.0 19.4 -2.1 19.15 -2.15 19.85 -3.35 20.4 -2.6 20.5 -2.45 21.75 -2.75 22.7 -2.75 22.7 -2.65 22.75 -2.6 22.8 -2.55 22.3 -1.95 23.0 -2.15 22.95 -2.5 22.9 -2.45 22.9 -2.4 22.85 -2.35 22.8 -2.2 22.8 -2.3 22.85 -2.35 M21.25 -1.85 L21.0 -1.7 21.35 -1.55 21.85 -1.75 22.3 -1.95 21.5 -1.85 21.25 -1.85 M26.9 -1.7 L27.4 -2.2 27.55 -2.3 27.1 -2.15 26.1 -1.85 25.7 -1.8 25.7 -1.7 Q25.7 -1.45 25.5 -1.35 L25.15 -1.25 24.7 -1.3 24.4 -1.4 23.45 -0.95 Q23.0 -0.95 21.5 -1.5 L21.35 -1.55 20.9 -1.55 20.8 -1.55 21.0 -1.7 20.0 -2.0 M24.5 -1.95 L24.95 -1.9 25.4 -1.95 25.55 -2.1 25.25 -2.3 24.15 -2.45 24.05 -2.45 24.5 -1.95 M24.15 -2.45 L24.75 -2.65 25.75 -2.9 25.9 -3.2 26.55 -3.55 26.6 -3.4 26.65 -3.15 26.6 -3.1 28.95 -3.45 29.65 -3.2 Q29.9 -2.9 30.4 -2.9 L31.3 -3.15 32.1 -3.6 32.25 -3.6 31.45 -2.5 Q30.95 -2.1 29.25 -1.85 M26.6 -3.1 L26.55 -3.0 26.55 -2.95 26.5 -2.95 26.5 -2.9 26.35 -2.65 26.15 -2.25 26.1 -1.85 M26.5 -2.9 L26.45 -2.9 26.25 -2.55 26.25 -2.5 26.2 -2.4 26.15 -2.25 M26.55 -3.0 L26.5 -2.95 M26.55 -3.0 L26.55 -3.05 26.45 -2.9 M26.25 -2.5 L25.8 -2.15 25.6 -2.05 25.7 -1.8 24.85 -1.65 24.6 -1.5 24.4 -1.4 24.25 -1.55 24.85 -1.65 25.4 -1.95 25.6 -2.05 25.55 -2.1 25.75 -2.4 25.75 -2.9 26.6 -3.1 M23.35 -2.25 L23.25 -2.05 23.3 -1.8 23.35 -2.05 23.4 -2.25 23.35 -2.25 23.4 -2.3 23.4 -2.25 24.05 -2.45 M22.9 -2.45 L22.9 -2.55 22.95 -2.5 M23.35 -2.25 L23.0 -2.15 23.0 -1.8 23.1 -1.7 23.25 -2.05 M29.2 -2.55 L29.0 -2.9 29.0 -3.35 28.55 -2.6 28.1 -1.8 28.1 -1.9 28.2 -2.55 28.3 -2.8 27.9 -2.45 27.9 -1.45 28.1 -1.45 28.8 -1.95 29.3 -2.65 29.2 -2.6 29.2 -2.55 M27.9 -2.65 L27.55 -2.3 27.9 -2.45 27.9 -2.65 M28.3 -2.8 L28.45 -3.15 M24.15 2.45 L24.5 2.7 24.65 2.85 24.7 2.95 24.9 3.15 M24.5 2.7 L24.55 2.75 24.65 2.85 M24.55 2.75 L24.55 3.35 24.55 3.6 M24.5 2.7 L24.55 3.35 M24.05 5.9 L24.1 6.2 24.25 6.6 24.9 5.8 24.7 6.25 24.55 6.5 24.6 6.35 24.65 6.3 24.55 6.5 M19.2 2.45 L19.35 3.25 19.55 3.2 19.85 2.95 19.75 2.35 19.2 1.6 19.2 2.45 M19.55 3.2 L19.85 3.15 19.85 2.95 20.25 2.75 20.05 3.35 19.6 3.9 19.55 3.9 19.45 4.4 19.05 4.95 19.0 4.9 18.8 5.55 18.8 5.6 18.7 5.2 18.65 4.65 18.65 4.55 19.0 4.9 19.1 3.8 18.8 4.4 18.8 4.3 18.85 2.7 18.8 2.55 18.8 2.65 18.8 2.9 18.65 3.7 18.25 4.95 18.25 4.85 18.15 5.45 18.0 5.5 17.95 5.6 17.65 4.1 17.5 3.65 17.5 3.7 17.1 4.75 17.1 4.65 17.2 3.65 17.3 2.75 17.5 3.65 17.75 2.35 17.95 2.4 18.3 2.45 18.6 2.1 18.45 2.0 18.15 2.2 18.15 2.0 18.45 2.0 18.7 1.75 19.0 1.5 18.65 2.05 18.6 2.1 18.75 2.35 18.8 2.1 18.8 2.55 18.75 2.35 18.5 3.5 18.25 4.85 18.25 3.9 18.25 3.4 M19.1 3.8 L19.1 3.75 19.3 3.3 19.35 3.25 19.4 3.35 19.55 3.2 M19.55 3.9 L19.5 3.9 19.45 3.65 19.4 3.35 19.35 3.4 19.1 3.8 M19.55 3.9 L19.45 3.65 M20.65 11.25 L20.55 11.7 20.25 11.65 20.05 11.7 20.05 11.8 20.0 12.0 19.85 12.1 19.8 11.85 19.75 11.55 19.85 11.2 19.95 11.4 20.35 11.05 20.35 11.55 20.65 11.25 M20.05 11.8 L19.95 11.4 M18.35 24.2 L18.45 24.7 M25.45 20.2 L25.75 20.25 M26.1 21.05 L25.15 21.15 24.9 21.15 Q24.75 21.1 24.75 20.85 M23.4 20.2 L23.15 20.35 M23.65 20.7 L23.3 21.1 M22.55 25.6 Q22.1 25.3 22.05 24.8 M27.8 19.45 L28.05 19.15 28.45 19.55 28.65 19.95 28.65 20.2 28.75 20.5 28.45 20.7 28.4 20.7 28.05 20.8 M28.65 20.2 L28.6 20.3 28.35 20.7 28.4 20.7 M27.5 23.45 L27.45 23.55 27.4 23.75 27.4 23.45 27.5 23.45 27.5 23.35 27.6 23.35 27.65 23.65 27.7 23.5 27.7 23.65 27.65 23.65 27.6 23.95 M11.0 2.65 L11.05 2.9 11.1 3.2 11.1 3.5 11.05 3.45 11.0 3.4 11.0 3.7 10.9 3.8 10.9 3.05 10.9 2.65 11.0 2.65 M11.0 3.4 L11.0 3.05 10.9 3.05 M7.2 3.55 L7.35 3.6 7.35 3.8 7.3 4.1 7.3 4.3 7.25 4.3 7.3 4.75 7.2 4.75 7.2 4.3 7.2 3.55 7.1 3.4 6.9 3.8 6.4 3.25 6.3 3.35 6.3 3.65 6.3 4.1 6.4 3.5 6.4 3.4 6.65 4.15 6.8 4.55 6.8 4.85 6.8 4.75 6.8 4.55 M7.25 4.3 L7.2 4.3 M7.25 4.3 L7.2 3.55 M7.45 9.7 L7.4 10.3 7.3 10.95 7.3 10.85 7.25 10.4 7.1 11.05 7.1 9.8 7.2 10.15 7.25 10.4 7.2 10.3 7.2 10.15 M11.75 8.75 L12.05 10.1 12.15 10.1 12.15 9.15 12.35 9.6 12.6 9.55 M6.1 3.8 L6.05 4.4 6.15 4.4 6.15 3.75 6.1 3.8 M6.15 3.75 L6.15 2.95 6.25 3.05 6.3 3.35 6.15 3.75 M6.25 4.4 L6.3 4.1 6.2 4.4 6.25 4.4 M6.15 4.4 L6.2 4.4 6.15 4.55 6.15 4.4 M-0.65 3.3 L-0.75 3.8 -0.75 3.7 -0.7 3.35 -0.65 3.3 -0.65 3.25 -0.65 3.1 -0.65 2.95 -0.65 2.45 -0.6 2.95 -0.35 3.1 -0.05 3.3 0.0 3.3 0.05 2.95 0.05 3.3 0.05 3.4 0.0 3.35 -0.2 3.9 0.05 3.9 0.2 3.0 0.1 2.65 0.2 2.65 0.2 3.0 M0.0 3.35 L-0.05 3.3 -0.15 3.3 -0.2 3.4 -0.25 3.5 -0.25 3.9 -0.2 3.9 -0.25 4.0 -0.25 3.9 -0.6 3.15 -0.6 2.95 -0.65 2.95 M0.0 3.35 L0.0 3.3 0.05 3.3 M3.2 9.7 L2.9 9.7 Q2.9 10.0 3.45 10.5 L3.35 10.0 M4.9 21.15 L4.5 21.45 4.55 20.9 4.45 20.85 4.3 21.05 3.65 21.25 3.25 21.15 2.95 20.75 3.05 20.45 M4.45 20.85 L4.55 20.65 4.1 20.7 4.05 20.7 4.45 20.85 M4.55 20.65 L4.55 20.85 4.55 20.9 M2.7 22.0 L2.95 22.25 3.0 22.35 Q3.35 22.7 3.75 22.7 L4.35 22.6 4.1 22.4 3.15 21.85 3.25 21.85 3.85 22.3 4.1 22.4 4.45 22.55 4.65 22.45 Q4.5 21.9 3.4 21.6 L2.6 21.45 M4.4 22.6 L4.6 22.6 4.45 22.55 4.35 22.6 4.4 22.6 M4.65 22.45 L4.95 22.25 5.0 22.2 5.0 22.25 4.9 22.4 4.7 22.55 4.7 22.6 4.65 22.6 4.55 22.7 3.8 23.05 3.2 22.85 3.0 22.35 2.95 22.3 2.95 22.25 M4.95 22.25 L5.0 22.25 M4.6 22.6 L4.7 22.55 4.65 22.45 M4.6 22.6 L4.65 22.6 4.7 22.55 4.95 22.25 M2.9 25.55 L3.05 26.1 3.1 26.3 3.5 26.3 3.65 26.05 3.65 25.95 3.6 25.7 3.55 25.55 3.25 26.05 3.3 25.75 3.35 25.6 3.3 25.45 3.15 25.45 3.15 25.2 3.3 25.45 3.35 25.45 3.35 25.2 3.7 25.35 4.15 25.45 4.15 26.2 4.1 26.25 4.05 26.25 4.2 26.55 3.85 26.95 3.35 27.25 3.3 27.1 3.25 26.8 3.1 26.3 2.95 26.3 2.95 25.95 2.9 25.55 M3.65 26.05 L3.6 26.3 4.05 26.3 4.05 26.25 3.6 25.5 3.55 25.45 3.55 25.55 3.45 25.5 3.35 25.45 3.35 25.6 M3.55 25.45 L3.35 25.45 M4.05 20.7 L3.15 19.75 Q3.2 20.2 3.55 20.45 L4.05 20.7 M11.65 15.25 L11.55 15.25 11.75 15.15 11.65 15.25 M9.75 20.55 L9.35 21.0 9.15 20.65 9.0 20.4 Q8.75 21.1 8.2 21.25 L8.0 20.85 M9.35 24.3 L9.4 24.35 9.4 24.4 9.45 24.4 9.35 24.2 9.35 24.3 9.4 24.4 M14.05 21.35 L14.05 22.1 M14.05 20.65 L13.85 20.3 13.75 20.0 M14.3 23.05 L13.9 22.65 13.75 22.7 13.55 22.45 13.45 21.9 13.5 21.75 13.75 22.3 13.9 22.65 14.15 22.55 M14.75 25.95 L14.8 26.05 14.9 26.05 14.9 26.5 14.8 26.5 14.75 25.95 14.7 25.95 14.55 25.75 14.6 25.65 14.7 25.9 14.7 25.95 M6.8 27.55 L7.0 28.35 7.1 28.2 7.1 27.85 7.15 27.55 7.25 27.55 7.25 28.05 7.1 28.2 M3.6 26.3 L3.6 26.4 3.45 26.8 3.25 26.8 3.35 26.55 3.5 26.3 3.6 26.3" fill="none" stroke="#000000" stroke-linecap="round" stroke-linejoin="round" stroke-opacity="0.90588236" stroke-width="0.05"/>
  </g>
</svg>
