<?xml version="1.0" encoding="UTF-8" standalone="no"?>
<svg xmlns:xlink="http://www.w3.org/1999/xlink" height="12.8px" width="39.25px" xmlns="http://www.w3.org/2000/svg">
  <g transform="matrix(1.0, 0.0, 0.0, 1.0, 5.35, -14.5)">
    <path d="M24.5 15.8 L24.5 16.05 24.45 16.2 24.45 16.25 24.35 16.55 24.35 16.45 24.3 16.1 24.25 16.1 24.1 16.05 24.1 15.9 24.3 16.1 24.5 16.05 M17.95 18.2 L17.9 18.25 17.95 18.25 17.95 18.2 17.9 18.15 17.85 18.2 17.9 18.25 17.8 18.35 17.85 18.2 17.65 18.05 17.65 18.9 17.95 18.25 18.2 18.75 18.2 18.35 18.15 18.2 18.1 18.15 18.1 18.05 18.15 18.2 18.2 18.2 18.2 17.95 17.95 18.2 M17.65 18.05 L17.9 18.15 18.1 17.95 17.35 17.85 17.3 17.85 16.75 18.6 16.75 18.35 16.6 18.35 16.4 18.15 16.2 17.8 16.85 17.8 16.9 17.65 16.9 17.8 17.15 17.8 17.35 17.85 Q17.7 17.2 18.1 17.15 L18.1 17.95 18.2 17.95 M16.85 17.8 L16.8 18.05 16.75 18.35 16.9 18.35 16.9 17.8 16.85 17.8 M31.9 18.2 L33.1 18.2 32.8 18.4 32.9 18.7 32.9 18.75 32.95 19.15 32.85 19.5 32.7 19.95 Q33.35 19.9 33.5 19.0 L33.6 19.0 33.6 19.55 33.75 19.6 33.75 19.8 33.85 19.45 33.9 19.0 Q33.9 18.25 33.3 18.05 L31.9 17.8 31.9 18.2 M32.8 18.35 L32.65 18.35 32.65 18.45 32.8 18.4 32.8 18.35 M32.65 18.6 L32.65 18.45 32.25 18.75 32.9 18.75 32.65 18.6 M32.0 19.0 L32.0 19.5 32.15 19.65 32.6 19.95 32.7 19.95 M31.45 24.75 L31.45 24.8 31.5 24.85 31.6 24.9 31.75 24.9 31.9 25.05 31.75 25.05 31.6 24.9 31.4 24.9 31.35 24.9 31.35 25.6 31.6 25.6 31.95 24.9 32.0 24.8 31.7 24.55 31.55 24.7 31.45 24.75 31.6 24.5 31.7 24.55 32.0 24.25 32.0 24.1 32.0 24.8 32.15 25.0 32.4 25.6 32.7 25.3 32.75 25.15 32.8 25.05 33.35 25.15 33.35 25.45 33.1 25.35 32.75 25.15 M31.4 24.8 L31.35 24.9 31.45 24.8 31.4 24.8 M31.1 24.9 L30.95 25.05 30.95 25.15 31.35 24.9 31.1 24.9 M32.0 20.35 L32.0 19.5 M5.1 15.05 L4.85 15.05 5.65 15.15 5.75 15.15 5.1 15.05 M4.35 15.0 L4.7 15.0 4.35 14.9 4.3 15.0 4.35 15.0 M4.35 14.9 L4.3 14.85 4.0 14.85 3.7 14.85 3.6 15.0 4.3 15.0 M4.7 15.0 L4.7 14.95 4.45 14.85 4.3 14.85 M4.85 15.05 L4.85 15.55 5.75 15.25 5.75 15.4 Q4.3 17.0 3.85 17.0 L3.6 16.95 3.6 16.35 Q3.35 16.35 3.2 16.05 L3.1 15.5 2.65 15.4 2.8 15.25 3.1 15.3 Q3.1 14.95 3.5 14.85 L3.7 14.85 3.95 14.6 Q4.2 14.4 4.55 14.6 L4.6 14.7 4.7 14.95 4.8 15.0 4.85 15.05 4.75 15.0 4.7 15.0 4.25 15.6 4.35 15.65 4.45 15.65 4.55 15.65 4.7 15.65 4.75 15.65 4.85 15.55 4.8 15.6 5.0 15.6 5.75 15.4 M4.35 15.65 L4.3 15.65 4.1 15.65 3.6 15.9 3.6 16.35 4.45 15.8 4.7 15.65 M3.6 16.35 L4.6 16.05 4.8 15.6 4.75 15.65 M4.25 15.6 L4.2 15.6 4.1 15.65 3.6 15.6 3.6 15.9 M4.25 15.6 L3.95 15.4 3.6 15.2 3.6 15.45 3.7 15.45 4.2 15.6 M3.6 15.0 L3.6 15.2 3.35 15.0 3.6 15.0 M3.6 15.6 L3.5 15.6 3.1 15.5 3.1 15.4 3.1 15.3 3.6 15.45 3.6 15.6 M-3.3 22.9 L-3.35 23.05 -3.2 23.15 -3.45 23.75 -3.45 23.85 -3.2 23.85 -3.05 23.75 -3.05 23.15 -3.15 22.95 -3.2 22.9 -3.3 22.9 M-4.25 21.55 L-4.3 22.1 -4.2 22.1 -3.6 22.15 -3.2 22.5 -3.3 22.6 -3.05 22.6 -3.0 22.9 -2.9 23.3 -3.05 23.75 -3.05 24.25 -3.2 24.35 -3.5 23.95 -3.6 23.95 -3.85 24.2 -4.4 24.45 -4.3 24.75 -4.15 24.9 -4.25 24.9 -4.3 24.8 -4.5 24.65 -4.3 24.75 -4.3 24.8 -4.15 24.9 M-3.3 22.6 L-3.4 22.8 -3.55 22.95 -3.35 23.05 -3.45 23.75 -3.5 23.85 -3.45 23.85 -3.45 23.95 -3.5 23.95 -3.55 23.85 -3.6 23.95 -4.1 23.7 -4.4 23.3 -4.5 23.15 -4.5 23.45 -4.45 24.15 -4.4 24.45 -4.6 24.5 -5.0 24.5 -5.35 24.1 -5.15 23.2 -5.0 22.65 -5.2 22.6 -4.95 22.3 -4.95 21.95 -4.8 22.2 -4.75 22.15 -4.3 22.1 -4.35 22.25 -4.4 22.75 -4.35 22.8 -4.1 22.8 -4.15 22.5 -4.0 22.85 -3.95 22.85 -3.85 22.6 -3.3 22.6 M-3.5 23.85 L-3.55 23.85 -3.75 23.4 -3.85 23.15 -4.0 23.15 -4.35 22.8 M-0.95 26.5 L-1.3 26.4 -1.5 26.25 -1.5 26.35 -1.6 26.1 -1.85 26.0 -1.7 26.0 -2.0 25.85 -1.85 25.85 -1.7 26.0 -0.95 26.1 -0.95 26.25 -1.3 26.15 -1.7 26.0 -1.6 26.1 M-3.55 22.95 L-3.75 23.15 -3.85 23.15 -4.0 22.9 -4.0 23.05 -4.0 23.15 M28.8 26.1 L28.55 26.55 28.55 26.6 28.25 27.2 28.4 27.3 28.25 27.3 28.25 27.2 28.15 27.1 28.1 27.2 27.55 26.8 27.5 26.7 27.45 26.7 27.45 26.8 27.05 26.65 27.05 26.25 27.3 26.5 27.35 26.4 27.6 26.25 27.6 26.65 27.5 26.65 27.5 26.7 27.8 26.85 28.15 27.1 28.2 26.9 28.25 26.35 28.25 26.25 28.4 26.3 28.4 26.5 28.55 26.6 M27.3 26.5 L27.5 26.7 M27.45 26.7 L27.2 26.65 27.3 26.5 M-4.95 22.3 L-5.0 22.65 -4.4 22.75 -4.8 22.2 -4.95 22.3 M-4.0 22.9 L-4.0 22.85 -4.1 22.8 -4.0 23.05 M-4.4 22.75 L-4.4 23.05 -4.4 23.15 -4.4 23.3 -3.9 23.7 -3.55 23.85 M-4.5 23.15 L-4.4 23.05 M-3.55 22.95 L-3.95 22.85" fill="none" stroke="#000000" stroke-linecap="round" stroke-linejoin="round" stroke-opacity="0.90588236" stroke-width="0.05"/>
  </g>
</svg>
