<?xml version="1.0" encoding="UTF-8" standalone="no"?>
<svg xmlns:xlink="http://www.w3.org/1999/xlink" height="36.1px" width="34.2px" xmlns="http://www.w3.org/2000/svg">
  <g transform="matrix(1.0, 0.0, 0.0, 1.0, 2.35, 8.05)">
    <path d="M-0.5 -6.5 L0.2 -6.2 Q0.55 -6.8 0.85 -6.8 L1.45 -6.2 1.45 -6.3 1.55 -6.3 1.45 -6.2 1.55 -5.95 Q1.95 -5.15 2.3 -5.15 L3.15 -5.7 3.6 -6.05 3.55 -6.1 3.65 -6.1 3.7 -6.05 4.4 -6.3 4.5 -6.05 5.4 -6.05 5.85 -5.9 6.85 -6.05 7.0 -6.1 7.2 -6.1 7.2 -6.05 7.4 -6.1 9.0 -6.25 9.15 -6.45 8.05 -6.35 6.85 -6.3 8.35 -6.45 5.45 -6.6 4.4 -6.65 4.4 -6.55 3.7 -6.7 3.45 -6.7 2.7 -6.4 1.9 -5.9 1.9 -6.05 2.2 -6.4 2.35 -6.65 1.9 -6.7 2.05 -6.8 2.45 -6.8 2.35 -6.65 M0.2 -6.2 L0.2 -6.15 0.55 -6.0 0.7 -6.25 0.8 -6.4 0.8 -6.3 0.7 -6.25 0.6 -5.95 Q0.9 -5.8 1.1 -5.8 L1.3 -6.0 1.4 -6.1 1.4 -6.15 1.45 -6.2 M3.6 -6.05 L4.6 -5.15 4.6 -5.45 3.7 -6.05 3.6 -6.05 M3.7 -6.7 L1.85 -7.1 1.0 -7.3 0.75 -6.95 0.35 -6.85 -1.0 -7.15 -1.1 -7.2 -1.8 -7.1 -2.2 -7.1 M-2.35 -7.55 L-1.1 -7.2 -0.7 -7.25 0.35 -7.4 1.0 -7.3 1.3 -7.65 4.4 -6.7 4.4 -6.65 3.7 -6.7 M4.5 -6.05 L4.55 -5.75 5.0 -5.75 5.85 -5.9 6.25 -5.85 6.35 -5.8 6.6 -5.9 6.6 -5.8 6.65 -5.8 6.85 -6.05 7.2 -6.05 7.25 -5.75 8.5 -5.8 9.0 -6.25 9.7 -6.3 9.9 -6.5 10.15 -6.85 10.1 -6.55 10.3 -6.6 10.7 -6.4 10.75 -6.4 12.4 -6.7 Q13.6 -7.0 13.85 -7.5 L14.4 -6.75 14.5 -6.7 14.7 -6.8 14.75 -6.7 15.05 -6.7 16.7 -7.35 18.4 -8.05 19.25 -7.5 Q20.2 -6.95 20.65 -6.95 20.9 -6.95 20.85 -7.05 L20.8 -7.25 20.95 -6.95 20.95 -6.55 19.75 -6.55 18.8 -6.9 17.85 -7.1 17.7 -7.1 19.2 -6.35 19.2 -6.6 19.4 -6.25 19.8 -6.05 20.0 -6.1 20.25 -6.05 20.35 -6.0 20.35 -5.8 20.7 -5.65 20.9 -5.75 21.35 -6.2 22.05 -6.8 23.1 -6.5 23.3 -6.4 24.0 -6.15 Q24.15 -6.15 24.3 -6.4 L24.55 -6.95 25.1 -6.8 25.6 -6.45 25.75 -6.8 26.5 -6.9 M4.5 -6.05 L4.3 -6.05 4.25 -5.9 4.2 -5.75 4.55 -5.75 4.6 -5.45 5.1 -5.2 5.45 -5.1 5.75 -5.35 6.35 -5.8 6.6 -5.8 6.65 -5.75 6.65 -5.8 7.15 -5.75 7.25 -5.75 7.35 -4.95 7.45 -5.15 Q7.75 -5.55 8.05 -5.55 L8.55 -5.35 8.65 -5.25 9.3 -5.8 9.7 -6.3 9.85 -6.3 10.1 -6.55 10.1 -6.3 10.15 -6.35 10.75 -6.4 10.9 -6.1 11.0 -5.5 10.9 -4.9 11.0 -5.0 12.4 -6.7 12.15 -4.95 Q12.4 -4.95 13.35 -5.85 L13.4 -5.9 13.4 -6.0 13.45 -5.95 14.5 -6.7 14.75 -6.7 14.75 -6.45 14.8 -6.05 14.75 -5.5 14.65 -4.9 15.95 -6.2 16.15 -6.2 16.25 -5.35 16.25 -5.1 16.4 -4.95 17.65 -4.95 17.6 -5.35 17.55 -5.55 17.3 -6.2 17.4 -6.1 17.6 -5.8 17.65 -6.0 17.65 -6.1 18.05 -5.65 18.05 -4.8 17.95 -4.8 17.95 -4.6 19.15 -5.9 19.15 -6.05 19.2 -6.35 19.4 -6.25 19.55 -5.95 19.8 -6.05 20.35 -5.8 20.35 -5.55 20.05 -5.0 20.35 -5.1 20.4 -5.15 20.5 -5.4 20.7 -5.65 20.75 -5.6 20.9 -5.75 21.3 -5.8 21.35 -5.8 21.5 -5.8 21.85 -5.75 22.3 -6.15 22.6 -6.6 22.7 -6.1 22.7 -5.75 22.85 -5.9 23.3 -6.4 M4.6 -5.15 L4.6 -4.85 4.65 -4.8 4.85 -4.8 5.0 -4.8 4.7 -5.05 4.6 -5.15 M0.2 -6.2 L-0.25 -5.35 -0.65 -5.65 M0.55 -6.0 L0.6 -5.95 0.5 -5.75 0.5 -5.15 1.1 -5.65 1.4 -6.1 M-1.05 -5.25 L-1.05 -4.7 -1.0 -4.65 -0.95 -4.6 0.1 -5.45 0.55 -6.0 M-1.55 -1.6 L-1.8 -1.7 Q-1.15 -1.6 -1.3 -1.15 L-1.65 -1.15 -1.7 -1.05 -1.75 -1.15 -1.9 -1.15 -2.0 -1.15 -2.0 -1.35 -2.0 -1.45 -1.9 -1.25 -1.75 -1.15 -1.65 -1.15 -1.45 -1.3 -1.4 -1.45 -1.55 -1.6 M-1.9 -1.25 L-1.95 -1.3 -1.9 -1.15 -1.9 -1.25 M-1.95 -1.3 L-2.0 -1.35 M5.75 -4.2 L5.95 -4.45 6.15 -4.8 Q5.85 -4.9 5.45 -5.1 L5.0 -4.8 5.75 -4.2 M1.45 -0.2 L1.4 -0.05 1.25 0.2 1.35 0.45 1.35 0.55 1.45 -0.2 M5.75 1.15 L5.95 0.9 6.05 0.75 6.65 0.75 6.65 0.4 6.45 -0.05 6.15 0.2 5.65 0.2 5.85 -0.45 6.2 -0.5 7.0 -0.25 7.3 0.05 7.3 0.0 7.35 0.0 7.5 0.35 7.75 1.05 7.65 1.0 7.65 0.95 7.55 0.8 7.55 0.85 7.5 1.25 7.1 1.5 7.05 1.45 7.0 1.5 6.9 1.5 7.0 1.25 6.85 0.8 6.6 1.05 6.65 0.75 6.8 0.75 6.65 0.4 6.7 -0.1 6.55 -0.1 6.45 -0.05 6.4 -0.2 6.5 -0.1 6.55 -0.1 6.7 -0.2 6.7 -0.1 M6.15 -4.8 L6.7 -4.5 6.7 -5.05 6.65 -5.75 6.6 -5.65 6.25 -4.95 6.15 -4.8 M13.4 -5.9 L13.45 -5.95 14.2 -5.05 14.55 -4.9 14.65 -4.9 15.7 -4.7 15.75 -5.45 16.25 -5.1 16.3 -4.95 16.4 -4.95 16.8 -4.55 17.8 -4.0 18.5 -5.0 19.1 -5.65 19.15 -5.9 19.4 -6.2 19.4 -5.9 19.55 -5.95 19.6 -5.65 19.4 -4.8 19.4 -5.9 19.1 -5.65 18.9 -5.25 18.2 -4.25 17.9 -3.9 18.0 -3.85 19.3 -4.7 20.05 -5.0 19.5 -4.35 19.45 -4.3 20.05 -4.8 20.3 -5.0 20.35 -5.1 M14.2 -5.05 L14.3 -4.95 15.35 -4.1 15.7 -4.7 16.15 -4.7 16.35 -4.7 16.3 -4.75 16.05 -4.85 16.15 -4.95 16.3 -4.95 16.3 -4.75 16.8 -4.55 16.9 -4.4 17.7 -3.8 17.8 -4.0 17.9 -3.9 17.7 -3.8 17.65 -3.75 18.0 -3.85 19.1 -3.25 19.7 -3.65 20.1 -4.55 20.3 -5.0 20.4 -5.15 20.65 -5.35 21.3 -5.8 M14.2 -5.05 Q13.6 -5.35 13.4 -5.9 M9.5 -5.85 L9.0 -4.8 8.65 -5.25 8.1 -4.7 7.45 -4.25 Q7.65 -3.65 8.1 -3.65 L9.55 -4.4 9.75 -4.55 9.75 -5.05 10.1 -6.3 9.85 -6.3 9.5 -5.85 M10.9 -6.0 Q10.65 -5.3 9.75 -4.55 L9.75 -4.2 9.8 -4.1 10.0 -4.1 10.8 -4.8 10.8 -4.9 10.9 -6.0 10.9 -6.1 M10.8 -4.45 L10.9 -4.9 10.8 -4.8 10.8 -4.45 M7.45 -4.25 L7.35 -4.75 7.35 -4.95 7.1 -4.3 7.15 -4.25 7.3 -4.2 7.45 -4.25 M7.3 0.05 L7.3 0.45 7.5 0.75 7.55 0.8 7.5 0.4 7.5 0.35 7.3 0.05 M6.85 0.8 L6.9 0.75 6.8 0.75 6.85 0.8 M7.0 1.25 L7.0 0.75 6.9 0.75 7.1 0.55 7.3 0.55 7.3 1.25 7.05 1.45 7.0 1.25 M11.45 -2.0 L11.55 -1.65 11.75 -1.9 11.85 -2.15 11.85 -1.65 12.25 -1.8 M13.6 1.5 L13.55 1.5 13.2 0.9 12.5 0.45 12.7 0.3 12.8 0.1 13.1 0.45 13.2 0.6 13.3 0.55 13.45 0.6 13.65 0.8 13.75 0.9 13.85 1.05 13.95 0.55 14.0 1.0 14.05 1.25 14.15 1.6 14.05 1.5 14.05 1.25 13.85 1.05 13.75 1.45 13.7 1.35 13.65 1.35 13.65 1.5 13.6 1.5 13.55 1.7 13.3 1.45 12.9 1.05 12.6 1.45 12.5 1.45 12.5 1.2 12.4 0.95 M13.65 0.8 L13.65 1.05 13.65 1.2 13.65 1.35 M22.7 -5.75 L22.45 -5.55 22.3 -5.35 22.35 -5.3 22.35 -5.35 22.65 -5.7 22.7 -5.75 M22.35 -5.15 L22.35 -5.3 21.6 -4.3 22.2 -4.9 22.35 -5.15 M21.85 -5.75 L22.05 -5.65 22.3 -5.35 21.55 -4.8 21.55 -5.6 21.0 -5.35 20.4 -5.15 M21.55 -5.6 L21.55 -5.75 21.5 -5.8 M21.85 -5.75 L21.55 -5.6 M21.6 -4.3 L22.2 -3.55 22.6 -3.2 22.75 -3.8 23.0 -4.1 Q23.45 -4.55 23.6 -5.7 L23.1 -5.05 22.6 -4.4 22.6 -5.45 22.65 -5.7 M24.3 -6.4 L24.4 -5.35 24.4 -5.05 24.35 -3.7 24.8 -4.0 25.1 -4.8 25.35 -5.85 25.3 -6.3 25.4 -6.3 25.35 -5.85 25.45 -5.5 25.6 -4.95 25.75 -5.55 25.95 -6.2 26.05 -6.3 26.05 -5.15 26.4 -5.7 26.8 -6.6 M17.65 -4.95 L17.65 -4.9 17.95 -4.8 17.85 -5.3 17.6 -5.8 17.6 -5.75 17.6 -5.45 17.6 -5.35 M21.5 -4.1 L21.55 -4.25 21.5 -4.2 21.5 -4.1 M21.35 -4.45 L21.55 -4.25 21.6 -4.3 21.4 -4.5 21.35 -4.45 20.9 -4.7 20.9 -3.65 21.35 -4.45 M19.45 -4.3 L19.4 -4.25 18.8 -3.75 18.7 -3.65 18.65 -3.65 18.8 -3.75 M17.3 -3.4 L17.35 -3.3 17.35 -3.45 17.3 -3.4 17.3 -3.65 17.3 -3.75 17.4 -3.75 17.35 -3.6 17.35 -3.5 17.35 -3.45 M17.3 -3.65 L17.35 -3.6 M17.35 -3.3 L17.4 -3.25 17.35 -3.25 17.3 -3.0 17.3 -3.25 17.25 -3.25 17.2 -3.15 17.2 -3.25 17.25 -3.25 17.3 -3.35 17.3 -3.4 M17.35 -3.25 L17.3 -3.25 17.3 -3.35 M17.35 -3.25 L17.35 -3.3 M26.1 -4.7 L26.05 -5.15 25.5 -4.5 24.8 -4.0 24.35 -3.35 24.35 -3.7 23.9 -3.45 23.4 -2.5 23.5 -2.45 24.25 -2.4 Q24.9 -2.4 25.6 -3.75 L26.1 -4.7 26.9 -5.9 Q26.9 -5.8 27.1 -5.8 L26.65 -4.75 26.15 -3.9 26.15 -4.0 26.1 -4.7 M23.4 -2.5 L23.0 -1.9 22.7 -2.6 22.6 -3.05 22.35 -3.35 21.55 -4.25 M22.6 -3.05 L22.6 -3.1 22.6 -3.2 23.0 -3.15 23.9 -3.45 24.15 -4.2 24.4 -5.35 M23.4 -2.5 Q23.05 -2.65 22.6 -3.05 M31.15 -6.3 L30.9 -5.9 30.5 -5.9 30.1 -5.95 29.4 -5.9 29.25 -5.9 28.85 -5.75 28.3 -6.0 28.25 -6.1 27.9 -6.3 27.9 -6.45 28.25 -6.1 28.7 -5.95 29.25 -5.9 29.65 -6.0 30.05 -5.95 30.1 -5.95 31.15 -6.3 31.3 -6.4 Q31.85 -6.9 31.85 -7.9 L30.75 -7.9 28.75 -7.5 27.95 -7.4 28.8 -7.3 30.75 -6.95 30.65 -6.9 30.6 -6.85 28.85 -6.95 Q28.0 -6.9 27.45 -6.1 M27.6 0.3 L27.75 -0.15 27.9 -0.5 27.95 -0.3 28.0 0.0 28.05 -0.15 28.15 -0.4 28.15 -1.15 27.5 -0.6 M27.95 -7.4 L26.45 -7.5 M24.15 1.8 L24.1 2.45 24.15 2.35 24.45 3.1 24.5 3.25 24.95 3.8 25.3 3.9 25.2 3.9 24.95 3.8 24.45 3.9 24.25 4.1 24.55 4.75 24.45 4.65 24.2 4.15 23.95 4.3 23.95 4.4 23.85 4.4 23.55 4.05 23.15 3.75 23.1 3.8 23.0 3.8 23.0 3.75 22.9 3.7 22.9 3.05 23.0 3.75 23.15 3.75 23.5 3.15 23.5 3.05 23.5 2.85 23.5 2.6 23.2 2.95 23.15 2.85 23.1 2.85 23.05 2.3 22.9 2.65 22.8 2.65 22.8 2.1 22.9 1.75 23.0 1.35 23.05 2.3 23.2 1.75 23.4 0.95 23.45 1.55 23.5 2.5 23.5 2.6 23.9 1.8 23.95 0.45 Q24.6 0.85 24.7 1.35 L24.8 2.35 24.75 2.45 24.55 2.45 24.35 2.25 Q24.15 2.0 24.25 1.8 L24.15 1.8 M24.05 2.45 L24.0 2.8 23.95 3.15 24.05 3.05 24.1 2.45 24.05 2.45 M24.5 3.25 L24.5 3.4 24.45 3.7 24.05 3.3 24.05 3.7 24.05 3.8 24.25 4.1 24.2 4.15 24.05 3.8 M23.45 1.55 L23.45 1.75 23.5 2.5 M23.5 2.6 L23.55 2.85 23.6 2.75 23.65 2.8 23.75 2.45 23.75 2.55 23.8 3.05 24.0 3.55 24.05 3.7 23.95 3.6 23.8 3.35 23.85 4.4 23.95 4.3 24.0 3.9 24.05 3.7 M23.5 3.05 L23.6 2.95 23.55 2.85 23.5 2.85 M23.8 3.05 L23.8 3.35 23.6 2.95 23.65 2.8 23.8 3.05 M18.8 1.8 L18.65 2.1 18.55 2.55 18.75 2.35 18.9 2.2 19.0 2.1 19.05 2.3 19.05 2.25 19.1 2.1 19.1 2.55 19.05 2.3 19.05 2.35 19.1 2.55 M20.3 11.05 L20.15 10.85 20.3 10.95 20.3 11.05 20.45 11.15 20.35 11.15 20.3 11.05 M16.5 18.15 L16.85 18.2 17.9 17.95 17.65 17.8 17.1 17.6 16.8 17.65 16.7 17.65 17.1 17.6 17.3 17.55 17.3 17.45 16.8 17.15 M17.85 23.35 L18.0 23.05 M18.45 23.0 L18.55 23.3 M20.8 21.95 L21.0 21.35 20.6 21.55 Q20.45 21.6 20.35 21.75 M19.0 21.75 L19.05 22.0 19.0 21.85 19.0 21.75 M24.9 21.05 L25.25 21.3 25.5 21.55 25.7 21.75 M25.3 21.8 L25.3 21.35 25.25 21.3 25.3 21.8 25.3 22.2 M25.3 21.35 L25.5 21.55 M24.8 24.5 L24.85 24.8 24.95 25.1 M26.95 15.15 L27.3 15.05 27.35 15.2 27.4 15.45 27.3 15.6 27.3 15.65 27.25 15.65 27.3 15.55 27.3 15.6 27.25 15.65 M27.4 16.6 L27.85 16.45 28.1 16.5 27.65 16.9 M16.4 7.15 L16.4 6.6 M8.15 8.95 L8.25 8.55 8.4 8.2 8.55 8.45 8.7 8.85 8.6 8.85 8.55 8.6 8.55 8.5 8.4 8.55 8.5 8.4 8.55 8.5 8.55 8.45 M3.55 5.05 L3.45 4.35 3.4 4.65 3.4 4.45 3.45 4.2 3.45 4.35 3.55 3.9 M-0.1 15.65 L-0.1 15.95 -0.2 16.4 M0.45 21.7 L0.75 21.9 0.8 21.6 0.8 21.9 0.95 21.6 0.9 21.25 1.0 21.25 0.95 21.6 M0.75 21.9 L0.8 21.9 M0.1 21.05 L0.15 21.5 M12.5 27.35 L12.8 27.85 12.9 28.0 12.9 28.05 12.8 27.85 M13.65 1.05 L13.6 1.5" fill="none" stroke="#000000" stroke-linecap="round" stroke-linejoin="round" stroke-opacity="0.90588236" stroke-width="0.05"/>
  </g>
</svg>
