<?xml version="1.0" encoding="UTF-8" standalone="no"?>
<svg xmlns:xlink="http://www.w3.org/1999/xlink" height="5.5px" width="30.5px" xmlns="http://www.w3.org/2000/svg">
  <g transform="matrix(1.0, 0.0, 0.0, 1.0, 0.9, -22.9)">
    <path d="M16.9 26.9 L16.9 27.7 16.85 27.7 16.55 27.8 16.2 27.85 14.6 27.9 13.25 27.95 12.9 28.1 12.65 28.1 12.5 28.1 11.8 27.9 11.5 27.85 11.5 28.0 11.4 28.1 11.1 28.1 10.75 28.0 10.6 28.05 10.05 28.1 10.05 28.0 9.9 28.0 9.9 27.9 9.8 27.8 9.5 27.85 9.5 27.7 9.55 27.7 9.45 27.65 9.15 27.7 9.0 27.6 8.95 27.6 8.7 28.0 8.2 27.55 7.95 27.35 7.9 27.55 7.9 27.4 7.75 27.3 7.75 27.2 7.95 27.35 8.0 27.25 8.15 27.05 8.3 27.2 8.3 27.6 8.55 27.4 8.4 27.1 8.3 27.05 8.3 26.9 8.4 27.1 8.65 27.3 8.9 27.05 Q9.25 26.8 9.7 26.8 L9.75 26.8 9.85 26.3 Q9.95 25.7 10.25 25.7 L11.25 25.95 12.05 26.25 12.15 25.75 11.65 25.7 11.4 25.45 Q11.25 25.2 11.25 24.95 11.25 24.35 11.8 24.35 12.1 24.35 12.35 24.65 L12.5 24.85 12.6 24.65 12.95 24.85 13.1 25.05 13.35 24.95 13.4 24.95 12.9 24.45 12.7 24.1 12.85 23.9 13.1 23.85 13.4 24.1 13.65 24.5 13.55 24.1 13.55 24.0 12.9 23.45 12.0 22.9 11.35 23.0 11.0 23.3 10.5 23.65 10.55 23.65 10.55 23.75 10.2 24.1 Q10.2 24.45 9.65 24.85 L8.6 25.45 9.45 25.5 9.5 25.3 9.65 25.45 9.65 25.6 9.45 25.5 8.8 26.15 7.5 26.65 7.1 26.75 6.55 26.8 6.45 27.2 5.45 27.45 4.95 27.35 4.55 27.2 4.4 27.2 4.5 27.4 4.55 27.6 4.7 27.6 5.2 27.65 5.6 28.0 6.45 28.0 6.45 28.1 5.75 28.1 5.6 28.0 4.7 28.0 3.75 27.95 3.7 27.9 3.35 28.25 3.4 28.25 3.5 28.4 2.75 28.05 2.2 28.25 1.35 28.05 1.2 28.0 1.15 28.0 1.05 28.0 -0.55 28.0 -0.9 28.1 -0.6 27.7 -0.25 27.45 0.0 27.45 0.45 27.15 0.65 26.55 1.15 26.5 1.2 26.35 1.85 26.5 2.1 26.55 2.55 27.0 2.65 27.05 3.15 26.95 3.5 26.8 4.45 27.6 4.55 27.6 4.55 27.65 4.7 27.6 4.7 28.0 M10.2 24.1 L10.15 24.1 9.65 24.25 9.65 24.1 10.15 24.1 M10.9 24.05 L10.85 24.25 10.85 24.1 10.9 24.05 10.95 24.0 11.0 23.85 11.05 23.85 11.5 23.45 11.5 23.55 11.1 24.1 11.05 23.85 10.95 24.0 M13.55 23.95 L13.55 24.0 13.6 24.0 13.55 23.95 M13.9 24.15 L13.8 24.05 13.6 24.0 13.9 24.15 14.05 24.25 13.95 24.25 13.9 24.15 M12.5 24.85 L12.6 25.05 12.45 25.05 12.4 25.65 12.35 26.1 12.45 26.1 12.55 25.6 13.0 25.15 13.35 25.7 13.8 26.1 Q14.2 25.4 14.6 25.3 L14.9 26.0 15.05 26.45 15.05 26.35 15.4 26.1 Q15.4 26.65 15.55 26.9 L15.65 26.9 15.85 26.6 Q16.1 26.3 16.45 26.25 L16.6 26.9 16.9 27.7 M12.15 25.75 L12.15 25.65 12.45 25.05 12.5 24.85 M13.65 24.75 L13.4 24.95 M9.75 26.8 L10.9 27.05 11.25 27.15 11.8 27.05 12.2 26.9 13.0 26.65 13.4 26.85 14.05 27.05 14.5 27.2 14.6 27.45 14.75 27.5 14.9 27.6 14.9 26.9 15.25 27.2 M15.45 27.65 L15.4 27.6 15.25 27.6 15.45 27.65 M11.25 27.15 L11.55 27.3 11.65 27.3 11.7 27.2 11.8 27.2 11.8 27.05 M11.5 27.45 L11.5 27.6 11.4 27.6 11.4 27.65 11.95 27.8 12.2 27.85 12.1 27.8 11.65 27.5 11.5 27.45 11.45 27.45 11.3 27.6 11.4 27.6 11.25 27.65 11.4 27.65 11.5 27.7 11.5 27.85 11.1 27.75 11.0 27.85 11.0 27.9 11.0 28.0 10.85 28.0 10.75 28.0 10.7 28.0 10.2 28.0 10.05 28.0 10.05 27.95 9.9 27.9 9.9 27.85 10.05 27.8 9.8 27.8 9.7 27.8 9.6 27.75 9.5 27.85 M16.85 27.7 L12.35 27.45 11.65 27.3 M12.65 28.1 L12.2 27.85 12.75 27.95 12.85 27.7 13.65 27.7 13.25 27.95 13.0 28.0 12.75 27.95 12.65 28.1 M10.2 27.5 L10.2 27.6 10.4 27.75 10.5 27.75 10.55 27.75 10.55 27.6 10.85 27.6 10.7 27.5 10.55 27.45 10.2 27.5 10.05 27.75 10.05 27.8 10.4 27.75 10.5 27.85 10.55 27.8 10.55 27.75 10.65 27.75 10.7 27.7 10.75 27.7 10.85 27.6 11.1 27.6 11.05 27.45 10.7 27.5 M10.9 27.05 L11.0 27.1 11.2 27.15 11.25 27.15 M11.55 27.3 L11.2 27.15 11.0 27.2 11.0 27.3 11.05 27.3 11.1 27.45 11.25 27.45 11.45 27.45 M11.05 27.45 L11.0 27.3 10.55 27.45 M11.1 27.6 L11.1 27.45 11.05 27.45 M8.95 27.55 L9.0 27.6 9.25 27.6 9.45 27.65 9.5 27.65 9.75 27.6 9.8 27.6 9.7 27.45 8.95 27.3 8.95 27.55 8.65 27.3 8.55 27.4 8.7 27.55 8.95 27.6 8.95 27.55 M9.7 27.45 L9.65 26.9 9.75 26.8 M10.05 27.8 L10.05 27.95 10.2 28.0 10.5 27.85 10.7 28.0 10.8 27.85 10.55 27.85 10.55 27.8 10.6 27.8 10.65 27.75 10.75 27.7 10.85 27.7 10.85 27.6 M9.7 27.65 L9.55 27.7 9.6 27.75 9.7 27.65 9.75 27.6 M11.1 27.6 L11.25 27.6 11.25 27.45 M11.1 27.7 L11.1 27.65 10.9 27.7 11.1 27.75 11.1 27.7 11.15 27.7 11.25 27.65 11.1 27.65 11.1 27.6 11.25 27.65 11.25 27.6 11.3 27.6 11.25 27.65 M10.85 27.7 L10.85 27.75 10.9 27.7 10.85 27.7 M10.85 27.75 L10.85 27.8 10.8 27.85 11.0 27.85 M10.85 28.0 L11.0 27.9 M10.65 27.75 L10.85 27.75 M4.45 27.6 L4.5 27.7 4.55 27.65 4.55 27.7 4.5 27.7 4.35 27.75 4.15 27.85 4.15 27.7 4.1 27.7 3.9 27.8 3.75 27.9 3.7 27.9 3.5 27.9 3.2 27.9 2.85 28.0 3.35 28.25 M2.55 27.0 L2.55 27.05 1.95 26.85 1.55 26.65 1.15 26.75 1.1 27.6 1.35 27.5 2.15 27.3 2.8 27.6 3.55 27.85 3.9 27.8 4.15 27.6 4.15 27.7 4.45 27.6 M1.85 26.5 L2.05 26.7 2.55 27.0 M1.15 26.5 L1.4 26.5 1.85 26.5 M1.1 27.6 L1.75 27.75 1.8 27.75 2.05 27.7 2.6 27.9 2.9 27.9 3.2 27.9 M1.8 27.75 L2.2 27.85 2.6 27.9 2.75 27.95 2.85 28.0 2.75 28.05 2.2 27.85 1.55 27.85 1.2 28.0 M1.1 27.6 L1.05 27.8 1.55 27.85 1.6 27.8 1.75 27.75 M0.45 27.15 L0.75 26.95 1.15 26.75 1.15 26.5 M0.0 27.45 L0.3 27.5 0.4 27.3 0.45 27.15 M-0.55 28.0 L-0.3 27.9 0.4 27.85 1.05 27.95 0.95 27.8 -0.15 27.7 -0.2 27.7 -0.55 28.0 M-0.2 27.7 L-0.25 27.7 0.0 27.45 M1.05 27.8 L1.05 27.95 1.15 28.0 M1.1 27.6 L0.8 27.7 0.95 27.8 1.05 27.8 M1.05 27.95 L1.05 28.0 M-0.15 27.7 L0.0 27.65 0.3 27.5 1.1 27.6 M27.7 27.15 L27.6 27.2 26.5 27.05 25.6 27.05 25.55 27.05 25.3 27.05 Q25.2 27.55 25.4 27.7 L25.9 27.7 26.0 27.7 25.7 27.3 26.6 27.45 26.8 27.3 26.9 27.5 26.95 27.55 27.05 27.6 27.05 27.7 26.95 27.55 26.65 27.45 26.65 27.6 26.35 27.7 26.1 27.7 26.05 27.7 26.0 27.7 25.95 27.75 25.25 27.85 25.45 28.1 25.2 28.1 24.5 28.0 24.3 27.95 23.85 27.85 23.4 27.9 23.05 28.1 22.35 28.1 22.35 27.6 22.35 27.5 22.1 27.45 21.8 27.55 21.7 27.7 21.7 27.45 21.55 28.0 21.55 26.9 21.45 26.85 21.25 26.8 21.1 26.8 21.0 26.8 21.0 26.9 21.0 27.35 20.9 27.85 20.9 27.25 20.85 27.15 20.65 27.6 20.65 27.3 20.8 27.0 20.85 26.9 20.1 26.9 20.7 26.65 Q21.05 26.35 21.3 26.35 L21.35 26.35 22.1 26.6 22.15 26.65 22.55 26.65 22.65 26.65 22.85 26.65 24.15 26.8 24.55 26.75 25.2 26.3 26.0 26.1 26.45 26.15 26.9 26.25 27.15 26.75 27.25 26.9 27.55 27.05 27.7 27.15 28.25 27.3 28.5 27.25 28.6 27.2 Q28.75 27.05 28.95 27.05 L29.2 27.1 29.3 27.05 29.35 27.15 29.6 27.3 29.4 27.25 29.35 27.15 29.3 27.15 29.2 27.1 29.05 27.2 28.65 27.2 28.75 27.3 28.8 27.4 28.95 27.45 28.8 27.45 28.8 27.4 28.7 27.35 28.5 27.25 M26.6 27.45 L26.65 27.45 Q26.4 27.6 26.3 27.65 L26.1 27.7 M27.6 27.2 L27.25 26.9 26.7 26.8 26.15 26.9 25.6 27.05 M25.55 27.05 L25.05 27.0 25.1 27.45 25.25 27.85 24.3 27.95 M24.15 26.8 L24.35 26.85 25.05 27.0 25.05 26.65 24.55 26.75 M23.1 27.0 L23.05 27.05 23.15 27.05 23.1 27.0 23.2 26.9 23.05 26.9 23.05 26.95 23.1 27.0 M23.05 26.9 L22.9 26.9 22.55 26.9 22.65 27.0 23.05 27.05 23.05 26.95 M22.65 27.0 L22.95 27.2 23.0 27.15 23.05 27.1 23.05 27.05 M22.95 27.2 L23.05 27.3 23.05 27.1 M23.2 26.9 L24.0 26.85 24.15 26.8 M22.55 26.65 L22.5 26.8 22.2 26.7 22.4 26.8 22.55 26.9 22.45 26.95 22.5 26.95 22.65 27.0 M22.15 26.65 L22.2 26.7 M22.1 26.6 L21.9 26.55 21.35 26.35 Q20.95 26.4 20.9 26.8 L20.85 26.9 20.9 26.85 21.0 26.8 21.0 26.65 21.7 26.65 21.75 26.65 22.15 26.65 M21.7 27.45 L21.75 27.35 21.9 27.15 22.15 27.0 21.85 26.8 21.55 26.8 21.55 26.9 M22.15 27.0 L22.45 26.95 21.7 26.65 21.0 26.8 M22.95 27.2 L22.65 27.3 22.25 27.1 22.15 27.0 M20.85 27.15 L20.8 27.05 20.85 26.95 20.85 26.9 20.9 26.9 20.9 26.85 M20.85 27.15 L20.9 27.15 20.9 26.95 20.85 26.95 20.85 27.15 M21.0 26.9 L20.9 27.1 20.9 27.15 M20.9 26.9 L21.0 26.9 M20.9 26.95 L20.9 26.9 M17.65 27.85 L17.8 28.1 18.15 27.8 M21.55 26.8 L21.25 26.8 M26.05 27.7 L26.6 27.45" fill="none" stroke="#000000" stroke-linecap="round" stroke-linejoin="round" stroke-opacity="0.90588236" stroke-width="0.05"/>
  </g>
</svg>
