<?xml version="1.0" encoding="UTF-8" standalone="no"?>
<svg xmlns:xlink="http://www.w3.org/1999/xlink" height="15.0px" width="29.1px" xmlns="http://www.w3.org/2000/svg">
  <g transform="matrix(1.0, 0.0, 0.0, 1.0, -1.1, 11.95)">
    <path d="M5.3 -10.45 Q5.0 -10.25 4.7 -10.2 L4.7 -10.3 5.2 -10.45 5.3 -10.45 5.35 -10.5 5.9 -11.0 6.05 -11.05 5.7 -10.55 5.45 -10.2 4.8 -9.1 4.8 -8.95 5.9 -10.1 Q7.1 -11.25 7.75 -11.25 L7.75 -10.85 9.7 -11.05 10.05 -11.1 10.1 -11.1 11.9 -11.25 11.15 -10.7 10.3 -10.3 10.25 -10.45 10.2 -10.45 10.15 -10.85 10.1 -11.1 9.7 -11.05 8.8 -10.45 8.5 -10.15 8.8 -10.1 10.55 -10.05 11.3 -9.7 Q11.75 -9.4 12.1 -9.4 L12.7 -9.55 12.1 -9.9 11.25 -10.3 11.25 -10.45 12.5 -9.95 12.35 -10.15 Q12.05 -10.6 11.9 -11.0 L12.55 -10.85 Q12.85 -10.6 13.1 -10.6 L14.4 -10.6 Q15.1 -10.55 15.25 -10.05 L15.1 -9.95 15.0 -9.9 Q14.75 -9.95 14.45 -10.2 L14.0 -10.45 Q13.65 -10.45 13.15 -9.9 L12.95 -9.75 13.25 -9.65 Q14.45 -9.1 15.6 -9.1 L16.9 -9.25 18.5 -9.4 18.6 -9.4 18.35 -9.75 18.25 -10.15 17.15 -10.1 16.8 -10.1 17.0 -9.65 16.35 -9.65 15.55 -10.05 15.65 -10.05 16.8 -10.1 16.75 -10.15 16.2 -10.45 16.2 -10.7 18.25 -10.2 18.2 -10.4 18.3 -10.85 18.5 -11.25 18.85 -10.8 18.95 -10.45 20.3 -10.65 20.6 -10.75 21.1 -10.85 21.35 -10.8 22.1 -10.85 22.45 -10.85 22.65 -10.7 22.5 -10.65 22.5 -10.6 22.25 -10.4 22.5 -10.3 22.9 -10.45 23.25 -10.6 23.55 -10.55 24.05 -10.3 24.3 -10.2 24.65 -10.45 24.85 -10.65 M4.5 -11.45 L4.45 -11.45 3.95 -11.3 4.5 -11.45 6.05 -11.95 M1.4 -11.45 L2.0 -11.65 2.1 -11.05 2.15 -11.05 2.25 -11.25 2.25 -11.1 2.55 -11.1 2.55 -10.7 2.95 -11.1 3.0 -10.65 3.1 -10.2 3.15 -10.15 3.2 -10.05 3.4 -10.55 3.6 -11.0 3.95 -10.6 4.3 -10.05 M5.7 -10.55 L5.35 -10.5 M2.55 -10.7 L2.25 -10.45 2.25 -9.8 2.4 -9.8 2.55 -10.05 2.55 -10.7 M2.1 -11.05 L2.1 -10.95 2.15 -11.05 2.25 -11.1 2.25 -10.45 2.15 -10.3 2.1 -10.95 1.95 -10.4 Q1.75 -9.8 1.4 -9.8 L1.15 -9.9 M1.1 -10.75 L1.35 -10.8 1.65 -10.9 2.1 -11.05 M1.6 -10.45 L1.35 -10.8 M4.7 -6.3 L4.95 -6.05 5.0 -6.45 5.1 -6.8 5.1 -5.35 M5.35 -5.65 L5.5 -5.9 5.35 -5.9 5.5 -6.55 5.6 -6.15 5.75 -6.15 5.8 -6.1 5.9 -5.9 5.9 -5.2 5.65 -6.05 5.6 -6.15 5.5 -6.15 5.5 -5.9 M5.5 -6.55 L5.5 -6.15 M12.7 -9.55 L13.0 -9.25 13.0 -9.4 12.8 -9.6 12.7 -9.55 M12.95 -9.75 L12.5 -9.95 12.8 -9.6 12.95 -9.75 M7.75 -10.85 L7.75 -10.35 8.5 -10.15 8.05 -9.8 7.75 -9.85 7.75 -10.35 7.1 -10.7 7.75 -10.85 M25.2 -11.2 L24.95 -11.35 24.4 -11.55 24.4 -11.7 25.2 -11.2 25.3 -11.15 25.35 -11.15 25.8 -10.85 26.8 -10.3 27.75 -10.45 27.9 -10.6 28.1 -10.75 Q27.65 -10.75 27.3 -11.0 L26.55 -11.45 26.55 -11.55 27.5 -11.0 Q27.85 -10.8 28.15 -10.75 L28.6 -11.0 28.6 -10.95 28.65 -10.9 28.75 -10.95 29.2 -11.15 29.5 -11.05 29.55 -10.9 29.95 -11.3 29.95 -10.9 30.1 -11.45 30.2 -11.45 Q30.25 -10.7 29.95 -10.3 L29.95 -9.95 29.65 -9.55 29.25 -9.15 29.15 -9.15 29.55 -10.0 29.15 -9.95 28.0 -10.35 27.75 -10.45 27.3 -10.1 26.8 -10.3 M25.35 -11.15 L25.5 -11.0 25.5 -9.55 Q24.95 -9.6 24.4 -10.0 L24.05 -10.3 23.9 -10.4 23.55 -10.55 M21.35 -10.8 L21.85 -10.6 Q22.1 -10.45 22.25 -10.4 L22.15 -10.3 21.7 -9.9 Q21.15 -9.4 20.7 -9.4 L18.65 -10.05 18.3 -10.15 18.25 -10.15 18.25 -10.2 18.3 -10.15 19.0 -10.2 18.95 -10.35 18.75 -10.45 18.95 -10.45 18.95 -10.35 19.95 -9.85 Q20.7 -9.45 20.9 -9.5 L20.55 -10.2 20.2 -10.6 20.3 -10.65 20.35 -10.65 21.35 -10.8 M19.3 -5.35 L19.4 -6.05 19.7 -6.05 20.1 -5.65 20.1 -5.75 20.0 -5.9 19.9 -6.1 19.8 -6.3 20.0 -5.9 20.05 -5.85 20.1 -5.75 M20.5 -5.9 L20.35 -6.15 20.5 -6.15 20.5 -5.9 20.5 -5.35 20.1 -5.75 M29.55 -10.0 L29.9 -10.25 29.95 -10.3 29.95 -10.9 29.65 -10.25 29.55 -10.0 M28.65 -10.9 Q28.4 -10.75 28.35 -10.75 L28.5 -10.75 28.75 -10.9 28.65 -10.9 M28.15 -10.75 L28.25 -10.75 28.35 -10.75 M28.15 -10.75 L28.1 -10.75 M21.15 2.35 L21.15 3.05 21.2 3.05 21.3 3.0 21.3 3.05 21.2 3.05" fill="none" stroke="#000000" stroke-linecap="round" stroke-linejoin="round" stroke-opacity="0.90588236" stroke-width="0.05"/>
  </g>
</svg>
