<?xml version="1.0" encoding="UTF-8" standalone="no"?>
<svg xmlns:xlink="http://www.w3.org/1999/xlink" height="8.6px" width="42.0px" xmlns="http://www.w3.org/2000/svg">
  <g transform="matrix(1.0, 0.0, 0.0, 1.0, 1.7, -16.05)">
    <path d="M38.05 22.9 Q38.05 23.6 38.3 23.95 L38.75 24.25 39.25 23.95 39.5 23.3 39.65 23.2 39.9 23.85 40.15 23.45 40.3 22.9 Q40.3 22.45 39.5 21.95 L39.1 21.7 39.1 21.85 39.05 21.85 38.9 22.25 38.7 22.9 38.7 23.05 38.9 22.8 39.15 22.6 39.65 22.35 39.55 22.75 38.9 22.8 M39.05 21.85 L39.1 21.7 38.3 21.4 38.3 22.35 39.05 21.85 M26.5 16.2 L26.55 16.3 26.8 16.35 26.4 16.05 26.5 16.2 M18.85 18.9 L18.85 19.05 18.75 19.15 18.75 18.75 18.9 18.9 19.0 18.75 19.15 19.05 19.15 19.15 18.9 18.9 18.85 18.9 M22.7 21.25 L23.15 21.4 M26.4 23.3 L26.0 23.5 25.85 23.55 26.4 23.55 26.8 23.7 26.8 24.1 26.65 24.15 26.8 24.65 26.1 24.3 25.45 23.85 25.6 23.7 25.6 23.55 25.85 23.55 25.6 23.7 25.65 23.8 25.7 23.85 Q26.1 23.65 26.4 23.85 L26.5 23.95 26.65 24.15 26.5 24.15 26.1 24.25 26.5 24.0 26.5 23.95 M31.2 21.4 L31.2 20.65 30.45 21.4 30.2 21.35 30.15 21.3 30.2 20.7 30.15 20.75 29.65 19.9 29.6 19.7 29.45 19.7 29.6 19.5 29.6 19.2 29.75 18.6 30.05 18.2 30.15 18.2 30.15 18.05 Q30.75 18.05 30.9 18.4 L30.9 18.65 31.1 18.8 31.75 19.75 31.85 19.55 32.0 19.55 31.95 20.05 31.85 20.5 Q32.65 20.55 33.0 19.95 L33.5 18.75 32.95 18.55 32.35 18.45 31.95 18.55 31.45 18.75 M26.8 16.35 L26.85 16.35 27.15 16.3 27.3 16.2 26.95 16.25 26.8 16.35 M29.6 19.7 L30.5 19.7 30.4 19.55 30.2 19.3 29.85 19.3 Q29.75 19.35 29.6 19.5 L29.6 19.7 M30.2 19.3 L30.55 19.3 30.55 19.35 30.65 19.4 30.5 19.7 30.8 19.7 30.75 19.95 30.65 19.95 30.5 19.7 30.35 20.2 30.2 20.7 30.7 20.15 30.95 19.2 30.95 19.15 30.65 18.45 30.15 18.2 30.15 19.15 30.2 19.3 M30.9 18.65 L30.75 18.5 30.95 18.9 30.9 18.65 M30.65 18.45 L30.65 18.35 30.75 18.5 30.65 18.45 M30.95 18.9 L30.95 19.15 31.2 20.65 31.55 20.05 31.05 19.15 30.95 18.9 M31.6 20.1 L31.75 20.25 31.75 19.75 31.55 20.05 31.6 20.1 M3.2 19.8 L3.5 20.25 3.75 19.7 3.85 19.15 3.1 19.3 3.2 19.8 M3.1 18.75 L4.15 18.75 Q4.2 18.4 4.4 18.2 4.25 17.95 3.8 17.95 L3.35 17.95 Q2.95 18.0 2.95 18.4 L2.95 18.65 3.1 18.75 M4.4 18.2 L4.5 18.1 4.4 17.95 4.4 18.2 4.55 18.75 4.55 18.95 5.2 18.6 4.65 18.35 4.5 18.1 4.6 18.05 5.2 17.95 5.2 18.6 5.2 18.9 4.7 20.0 5.05 20.05 5.15 19.95 5.6 19.55 5.75 19.55 5.2 20.1 5.0 20.4 4.85 20.45 4.6 20.6 4.55 20.65 4.5 20.5 4.4 20.25 4.35 19.95 3.75 19.95 3.75 19.7 3.8 19.6 3.9 19.1 3.85 19.15 3.85 19.0 3.9 19.1 4.05 19.1 4.15 19.05 4.15 18.75 4.4 18.75 4.4 18.2 M4.4 18.75 L4.4 19.0 4.55 18.95 4.55 19.15 4.4 19.4 4.4 20.0 4.7 20.0 4.55 20.5 5.05 20.05 5.2 20.1 4.85 20.45 M4.15 19.05 L4.15 19.55 4.3 19.55 4.3 19.15 4.35 19.2 4.4 19.0 4.15 19.05 M4.35 19.2 L4.4 19.3 4.4 19.4 4.3 19.55 4.3 19.75 4.35 19.95 4.4 20.0 4.4 20.25 M0.3 20.35 L-0.15 20.2 -0.35 20.1 -0.3 20.25 -0.1 20.8 -0.2 21.2 -0.25 21.4 -0.95 21.4 -1.05 21.4 -1.45 21.3 -1.6 20.7 -1.55 20.5 -1.7 20.5 -1.7 20.2 -1.7 19.8 -1.3 19.15 -1.3 19.3 -1.35 19.4 -1.55 20.0 -1.7 20.2 -1.35 19.4 M-1.3 19.8 L-1.55 20.5 -1.3 20.5 -1.3 19.95 -0.95 19.95 -0.8 20.15 -0.8 20.35 -0.95 20.5 -1.3 20.5 -1.3 21.0 -0.95 21.4 Q-0.65 21.35 -0.55 20.9 L-0.5 20.1 -0.35 20.1 -0.5 19.4 Q-0.95 19.3 -1.3 19.8 M3.2 24.25 L3.1 23.55 3.4 23.7 3.5 23.85 3.65 23.55 3.75 23.15 Q4.15 23.45 4.65 23.55 5.3 23.65 5.6 23.85 L5.0 24.25 Q4.7 24.25 4.35 23.95 L4.15 23.8 4.15 23.9 3.85 23.95 3.45 23.85 3.1 23.55 M4.15 23.55 L3.85 23.55 4.15 23.8 4.15 23.55 M12.3 20.1 L12.05 20.05 12.05 20.25 11.8 19.95 11.7 20.25 11.65 20.5 11.65 20.35 11.65 19.95 11.45 20.15 11.4 20.2 11.25 20.5 11.1 20.5 11.4 20.2 11.4 20.15 11.45 20.15 11.55 19.85 11.5 19.8 11.25 19.7 10.9 19.3 10.85 18.95 10.9 18.5 11.0 18.05 11.1 17.95 11.65 19.05 11.75 19.45 11.8 19.4 11.8 19.5 12.05 19.8 12.05 19.4 M11.5 19.8 L11.5 19.7 11.6 19.8 11.65 19.7 11.6 19.6 11.5 19.15 11.5 19.0 11.7 19.35 11.75 19.45 11.75 19.5 11.8 19.5 11.8 19.8 12.05 19.8 12.05 20.05 11.8 19.95 11.75 19.9 11.75 19.95 11.8 19.95 11.8 19.8 11.75 19.9 11.65 19.7 11.75 19.45 M11.6 19.8 L11.55 19.85 11.6 19.85 11.6 19.8 M11.6 19.85 L11.6 19.9 11.7 19.9 11.65 19.85 11.6 19.85 M11.75 19.9 L11.7 19.9 11.65 19.95 11.6 19.9" fill="none" stroke="#000000" stroke-linecap="round" stroke-linejoin="round" stroke-opacity="0.90588236" stroke-width="0.05"/>
  </g>
</svg>
