<?xml version="1.0" encoding="UTF-8" standalone="no"?>
<svg xmlns:xlink="http://www.w3.org/1999/xlink" height="17.0px" width="29.85px" xmlns="http://www.w3.org/2000/svg">
  <g transform="matrix(1.0, 0.0, 0.0, 1.0, -1.05, 16.0)">
    <path d="M23.8 -13.8 L23.9 -14.15 23.8 -14.45 23.75 -14.45 23.7 -14.45 23.45 -14.6 23.35 -14.4 23.3 -14.2 22.95 -14.3 22.6 -14.35 22.35 -14.2 21.95 -14.05 21.6 -14.35 20.95 -14.6 20.6 -14.45 20.35 -14.35 20.0 -13.9 19.7 -13.65 18.1 -14.15 17.8 -14.3 17.75 -14.25 17.65 -14.2 17.7 -14.05 17.65 -13.8 17.55 -13.65 16.95 -14.05 16.2 -13.8 15.9 -14.2 15.55 -14.75 14.7 -14.55 14.6 -14.5 14.75 -14.35 14.75 -13.65 13.8 -13.95 13.45 -14.05 13.25 -13.8 12.3 -12.85 12.15 -13.6 11.7 -13.65 11.65 -13.65 11.25 -13.6 11.0 -13.5 11.0 -13.65 10.75 -13.65 10.75 -13.85 10.3 -14.0 9.7 -14.2 9.4 -14.05 9.0 -14.45 8.95 -14.45 8.95 -14.5 8.9 -14.6 8.85 -14.6 8.85 -14.65 8.5 -14.95 8.3 -14.6 8.25 -14.45 8.2 -14.05 8.0 -14.05 7.5 -13.85 7.1 -14.0 6.7 -14.25 6.1 -14.7 5.7 -14.8 5.1 -14.75 4.55 -14.55 3.85 -13.8 3.35 -13.45 Q2.5 -13.45 1.8 -14.0 1.35 -14.4 1.2 -14.95 L1.1 -15.2 1.05 -15.2 1.05 -15.35 1.1 -15.2 1.3 -15.0 1.45 -15.05 1.4 -15.2 1.3 -15.5 2.5 -15.5 3.5 -15.2 4.15 -15.05 4.1 -15.25 4.0 -15.6 4.8 -15.6 5.45 -15.5 6.15 -15.2 5.6 -15.0 4.95 -14.95 4.15 -15.05 4.15 -14.95 3.5 -14.7 3.1 -14.6 2.5 -14.55 Q2.1 -14.55 1.55 -14.85 L1.5 -14.9 1.2 -14.95 1.3 -14.95 1.3 -15.0 1.5 -14.9 2.15 -14.8 3.1 -14.6 M8.95 -14.5 L9.0 -14.45 9.6 -14.65 9.3 -14.65 8.85 -14.75 8.85 -14.65 8.9 -14.6 M10.1 -14.45 L10.4 -14.7 10.15 -14.75 9.6 -14.65 9.5 -14.2 9.7 -14.2 10.1 -14.45 M10.4 -14.7 L10.75 -15.0 10.75 -14.6 11.1 -14.2 11.5 -14.45 11.8 -14.6 11.55 -14.15 11.15 -13.75 11.0 -13.65 11.7 -13.65 M10.75 -13.85 L10.75 -14.6 10.65 -14.65 10.4 -14.7 M6.8 -15.05 L7.05 -14.8 7.4 -14.45 7.7 -14.3 7.95 -14.05 8.0 -14.05 8.15 -14.25 8.3 -14.6 8.35 -14.85 7.95 -14.6 7.25 -14.6 7.25 -14.85 7.75 -14.95 8.25 -15.0 8.5 -14.95 8.6 -15.05 9.4 -15.65 10.15 -15.6 11.7 -15.15 Q12.5 -14.65 13.0 -14.65 L13.7 -14.8 Q14.15 -15.0 14.15 -15.4 L13.85 -15.7 13.45 -16.0 14.75 -15.75 17.35 -15.5 19.75 -15.7 21.3 -15.9 Q22.25 -15.9 23.1 -15.4 L23.25 -15.3 23.95 -14.75 24.15 -14.7 24.15 -14.75 24.25 -14.8 24.3 -15.0 24.5 -15.2 24.8 -15.25 24.95 -15.25 Q24.85 -15.15 24.75 -15.15 L24.5 -15.2 M11.15 -13.75 L11.0 -13.8 10.75 -13.85 M14.3 -14.6 L13.7 -14.35 13.8 -14.35 14.6 -14.5 14.3 -14.6 M12.7 -14.45 L13.45 -14.05 13.7 -14.35 13.15 -14.4 12.6 -14.6 12.7 -14.45 M13.6 -9.3 L13.75 -9.05 13.95 -8.85 13.95 -9.35 13.9 -9.3 13.85 -9.1 13.85 -9.5 13.95 -9.5 13.95 -9.35 M7.9 -7.9 L7.8 -7.9 7.7 -7.8 7.65 -7.65 7.65 -7.5 7.9 -7.5 7.85 -7.75 7.9 -7.9 M15.6 -0.35 L16.25 0.25 16.7 0.75 16.45 0.6 16.45 0.85 16.35 0.9 16.3 1.0 15.75 0.6 15.75 0.55 Q15.5 0.3 15.2 0.2 L14.7 -0.05 Q14.4 -0.3 14.4 -0.6 L14.55 -1.15 14.8 -1.4 Q15.4 -1.4 15.35 -1.1 15.35 -0.6 15.6 -0.35 M16.45 0.6 L16.05 0.55 15.75 0.55 M23.95 -14.75 L24.25 -14.4 24.65 -13.85 24.95 -13.05 25.15 -12.15 25.55 -11.85 Q26.3 -11.85 26.55 -12.5 L26.7 -13.2 26.45 -13.9 26.25 -14.45 26.15 -14.35 26.05 -14.25 26.15 -13.3 Q26.2 -12.5 25.75 -12.35 L25.7 -12.5 25.6 -12.5 25.55 -13.1 25.5 -13.65 Q25.5 -14.35 25.75 -14.85 L26.3 -15.35 Q26.3 -15.2 26.45 -15.2 L26.25 -15.0 26.15 -14.65 26.25 -14.45 26.3 -14.55 26.4 -14.35 26.45 -14.15 27.45 -14.95 Q28.05 -15.5 28.65 -15.5 L29.0 -15.35 Q29.15 -15.2 29.35 -15.2 L29.9 -15.4 30.4 -15.6 30.85 -15.55 30.9 -15.05 M23.25 -15.3 L22.95 -15.25 19.6 -15.25 19.6 -15.0 19.85 -15.0 M19.4 -14.45 L20.2 -14.35 20.35 -14.35 19.5 -14.45 19.4 -14.45 18.5 -14.6 18.35 -14.75 19.2 -14.55 19.4 -14.45 M17.4 -14.45 L17.8 -14.3 17.95 -14.35 17.35 -14.7 16.85 -14.75 17.0 -14.75 17.4 -14.45 16.35 -14.6 16.95 -14.2 17.4 -14.2 17.65 -14.2 17.55 -14.3 17.4 -14.45 M24.4 -14.85 L24.25 -14.8 24.3 -14.65 24.45 -14.6 24.55 -14.65 24.55 -14.75 Q24.55 -14.95 24.4 -14.85 M24.55 -14.65 L24.6 -14.65 24.8 -14.85 24.8 -14.75 24.55 -14.6 24.55 -14.55 24.45 -14.6 24.3 -14.6 24.15 -14.6 24.15 -14.7 24.3 -14.65 24.3 -14.6 M24.8 -14.75 L24.6 -14.65 24.55 -14.6 24.55 -14.65 M24.45 -14.6 L24.55 -14.6 M23.75 -14.45 L23.6 -14.75 23.6 -14.85 23.95 -14.75" fill="none" stroke="#000000" stroke-linecap="round" stroke-linejoin="round" stroke-opacity="0.90588236" stroke-width="0.05"/>
  </g>
</svg>
