<?xml version="1.0" encoding="UTF-8" standalone="no"?>
<svg xmlns:xlink="http://www.w3.org/1999/xlink" height="1.75px" width="2.45px" xmlns="http://www.w3.org/2000/svg">
  <g transform="matrix(1.0, 0.0, 0.0, 1.0, -14.0, 16.15)">
    <path d="M14.5 -15.7 L14.65 -16.15 16.45 -15.9 15.65 -15.25 Q15.1 -14.8 15.1 -14.55 L14.95 -14.55 15.05 -14.8 Q14.85 -14.9 14.8 -14.95 L14.8 -15.2 14.8 -15.35 14.4 -15.35 14.5 -15.7 14.0 -16.15 14.0 -16.0 14.55 -14.4 M15.05 -14.8 L15.1 -15.6 14.95 -15.6 14.85 -15.5 14.95 -15.5 14.95 -15.35 14.8 -15.35 14.8 -15.5 14.85 -15.5 14.55 -15.65 14.5 -15.7 Z" fill="none" stroke="#000000" stroke-linecap="round" stroke-linejoin="round" stroke-opacity="0.90588236" stroke-width="0.05"/>
  </g>
</svg>
