<?xml version="1.0" encoding="UTF-8" standalone="no"?>
<svg xmlns:xlink="http://www.w3.org/1999/xlink" height="47.95px" width="35.05px" xmlns="http://www.w3.org/2000/svg">
  <g transform="matrix(1.0, 0.0, 0.0, 1.0, 2.7, 18.9)">
    <path d="M10.75 19.95 L10.75 19.05 9.55 19.05 10.1 16.1 9.85 15.75 9.95 15.2 8.35 12.5 8.25 12.25 7.2 12.25 6.1 13.5 6.05 13.75 6.45 13.55 6.8 13.8 7.8 13.8 7.8 13.85 7.3 14.85 7.4 15.1 7.3 15.2 Q8.0 15.7 8.15 16.6 8.35 17.55 7.75 18.3 7.25 19.05 6.3 19.25 5.35 19.4 4.6 18.85 3.85 18.3 3.7 17.35 L3.65 17.15 3.25 17.2 3.15 16.9 2.25 16.65 2.85 15.95 2.8 15.75 2.9 15.2 3.4 14.95 3.25 14.15 3.1 13.6 3.2 12.8 Q2.9 11.85 3.35 10.65 3.6 9.95 4.0 9.5 L4.0 9.3 Q3.7 7.8 4.7 6.6 5.5 5.6 6.7 5.25 L6.55 5.1 5.95 4.65 5.3 4.05 5.25 4.0 4.35 3.1 3.85 2.5 3.45 2.0 2.5 1.75 Q1.05 1.55 -0.25 0.35 -2.2 -1.35 -2.6 -4.15 -3.05 -6.9 -1.7 -9.15 L-1.0 -10.05 -0.8 -10.3 -0.05 -10.95 1.45 -11.6 1.45 -12.5 0.45 -17.75 6.6 -18.8 13.0 -18.9 15.55 -18.85 17.8 -18.75 24.0 -18.25 29.05 -17.7 29.05 -17.65 29.15 -17.6 29.0 -17.55 27.75 -12.2 27.8 -11.8 Q28.8 -11.65 29.6 -11.15 L29.7 -13.45 29.35 -14.15 Q29.1 -14.45 29.1 -14.85 29.1 -15.3 29.45 -15.6 L30.15 -15.85 Q30.6 -15.85 30.9 -15.5 L31.15 -14.8 Q31.15 -14.35 30.8 -14.1 L30.4 -13.45 30.25 -10.6 31.35 -9.25 Q32.65 -7.05 32.25 -4.3 31.85 -1.5 29.9 0.25 28.3 1.7 26.4 1.65 L26.35 1.75 25.5 2.85 25.35 3.05 24.35 4.05 24.25 4.2 24.15 4.25 23.4 4.85 23.05 5.1 22.75 5.35 Q23.5 5.65 24.1 6.25 25.2 7.4 25.1 8.85 L25.1 9.1 25.85 10.15 Q26.4 11.3 26.2 12.25 L26.45 13.05 26.3 13.6 26.25 14.4 26.75 14.6 26.95 15.15 26.9 15.4 27.55 16.0 26.7 16.35 26.65 16.65 26.2 16.65 26.2 16.85 Q26.15 17.8 25.45 18.4 24.75 19.05 23.8 19.0 22.85 18.95 22.25 18.25 21.6 17.5 21.65 16.6 21.75 15.7 22.4 15.1 L22.3 15.0 22.4 14.7 21.75 13.8 21.8 13.75 22.75 13.65 22.75 13.6 23.1 13.35 23.5 13.5 23.4 13.3 Q22.7 12.9 22.2 12.1 L21.0 12.2 19.45 15.2 19.85 19.05 18.9 19.1 18.9 19.95 18.9 20.35 19.15 20.8 18.85 21.2 18.85 22.25 18.95 22.25 19.05 23.75 18.95 24.4 Q17.15 24.7 15.55 24.35 L15.3 23.8 Q15.2 23.4 15.4 22.9 15.65 22.45 16.05 22.25 L16.0 22.2 16.0 21.0 15.8 20.7 15.8 20.65 16.0 20.3 16.0 19.65 16.0 19.1 15.25 19.1 15.15 17.65 14.6 17.65 14.2 19.05 13.6 19.05 13.6 19.65 13.6 20.5 13.8 20.85 13.8 20.9 13.6 21.2 13.6 22.4 13.55 22.45 14.15 23.1 14.25 24.0 14.0 24.55 Q12.4 24.85 10.65 24.55 L10.5 23.9 Q10.4 23.15 10.65 22.4 L10.7 22.4 10.75 21.35 10.45 20.95 Q10.5 20.65 10.7 20.5 L10.75 20.5 10.75 19.95" fill="#000000" fill-rule="evenodd" stroke="none"/>
    <path d="M18.9 19.95 Q20.75 20.3 22.25 21.0 25.35 22.35 25.35 24.3 25.35 26.3 22.25 27.65 19.2 29.05 14.8 29.05 10.45 29.05 7.35 27.65 4.25 26.3 4.25 24.3 4.25 22.35 7.35 21.0 8.9 20.3 10.75 19.95 L10.75 20.5 10.7 20.5 Q10.5 20.65 10.45 20.95 L10.75 21.35 10.7 22.4 10.65 22.4 Q10.4 23.15 10.5 23.9 L10.65 24.55 Q12.4 24.85 14.0 24.55 L14.25 24.0 14.15 23.1 13.55 22.45 13.6 22.4 13.6 21.2 13.8 20.9 13.8 20.85 13.6 20.5 13.6 19.65 14.8 19.6 16.0 19.65 16.0 20.3 15.8 20.65 15.8 20.7 16.0 21.0 16.0 22.2 16.05 22.25 Q15.65 22.45 15.4 22.9 15.2 23.4 15.3 23.8 L15.55 24.35 Q17.15 24.7 18.95 24.4 L19.05 23.75 18.95 22.25 18.85 22.25 18.85 21.2 19.15 20.8 18.9 20.35 18.9 19.95" fill="url(#gradient0)" fill-rule="evenodd" stroke="none"/>
    <path d="M18.75 -4.7 Q19.9 -5.85 21.55 -5.85 23.2 -5.85 24.35 -4.7 25.5 -3.5 25.5 -1.9 25.5 -0.25 24.35 0.9 23.2 2.05 21.55 2.05 19.9 2.05 18.75 0.9 17.6 -0.25 17.6 -1.9 17.6 -3.5 18.75 -4.7" fill="#ffffff" fill-rule="evenodd" stroke="none"/>
    <path d="M5.25 -4.85 Q6.4 -6.05 8.05 -6.05 9.7 -6.05 10.85 -4.85 12.0 -3.7 12.0 -2.05 12.0 -0.45 10.85 0.7 9.7 1.9 8.05 1.9 6.4 1.9 5.25 0.7 4.1 -0.45 4.1 -2.05 4.1 -3.7 5.25 -4.85" fill="#ffffff" fill-rule="evenodd" stroke="none"/>
    <path d="M7.15 3.6 Q7.15 4.5 6.55 5.1 5.9 5.7 5.05 5.7 4.15 5.7 3.55 5.1 2.95 4.5 2.95 3.6 2.95 2.75 3.55 2.1 4.15 1.5 5.05 1.5 5.9 1.5 6.55 2.1 L7.1 2.95 7.15 3.6" fill="#ffffff" fill-rule="evenodd" stroke="none"/>
    <path d="M4.9 2.05 L6.9 -0.55 8.5 0.7 6.5 3.3 4.9 2.05" fill="#ffffff" fill-rule="evenodd" stroke="none"/>
    <path d="M26.4 5.2 Q25.75 5.8 24.9 5.75 24.0 5.7 23.45 5.05 L23.45 5.0 Q22.85 4.35 22.9 3.5 22.95 2.6 23.6 2.05 24.0 1.7 24.5 1.55 L25.15 1.5 Q26.0 1.55 26.55 2.2 27.15 2.85 27.1 3.75 27.05 4.6 26.4 5.2" fill="#ffffff" fill-rule="evenodd" stroke="none"/>
    <path d="M23.45 3.7 L20.95 1.55 22.3 0.0 24.8 2.15 23.45 3.7" fill="#ffffff" fill-rule="evenodd" stroke="none"/>
    <path d="M8.8 -3.45 Q7.25 -1.9 5.0 -1.9 2.8 -1.9 1.25 -3.45 -0.3 -5.0 -0.3 -7.25 -0.3 -9.45 1.25 -11.0 2.8 -12.55 5.0 -12.55 7.25 -12.55 8.8 -11.0 10.35 -9.45 10.35 -7.2 10.35 -5.0 8.8 -3.45" fill="#000000" fill-rule="evenodd" stroke="none"/>
    <path d="M20.3 -11.0 Q21.85 -12.55 24.05 -12.55 26.3 -12.55 27.85 -11.0 29.4 -9.45 29.4 -7.2 29.4 -5.0 27.85 -3.45 26.3 -1.9 24.05 -1.9 21.85 -1.9 20.3 -3.45 18.75 -5.0 18.75 -7.25 18.75 -9.45 20.3 -11.0" fill="#000000" fill-rule="evenodd" stroke="none"/>
  </g>
  <defs>
    <radialGradient cx="0" cy="0" gradientTransform="matrix(3.0E-4, -0.0062, 0.0128, 4.0E-4, 14.8, 24.3)" gradientUnits="userSpaceOnUse" id="gradient0" r="819.2" spreadMethod="pad">
      <stop offset="0.0" stop-color="#000000" stop-opacity="0.6"/>
      <stop offset="1.0" stop-color="#000000" stop-opacity="0.0"/>
    </radialGradient>
  </defs>
</svg>
