<?xml version="1.0" encoding="UTF-8" standalone="no"?>
<svg xmlns:xlink="http://www.w3.org/1999/xlink" height="388.65px" width="473.35px" xmlns="http://www.w3.org/2000/svg">
  <g transform="matrix(1.0, 0.0, 0.0, 1.0, 14.5, -46.45)">
    <path d="M328.4 143.8 L327.45 145.6 275.3 103.1 278.3 103.1 328.4 143.8 M31.9 103.1 L90.9 298.05 223.45 341.7 327.45 145.6 388.55 294.2 455.35 294.2 455.35 296.45 389.5 296.45 388.55 294.2 374.75 431.6 373.35 431.6 386.8 294.8 327.05 150.05 225.3 341.95 246.35 431.6 244.35 431.6 223.45 341.7 222.2 343.65 91.25 300.25 14.45 427.1 Q14.95 427.55 13.7 426.8 L12.85 426.2 12.75 426.15 90.9 298.05 89.25 298.05 29.9 103.2 31.2 103.1 31.9 103.1" fill="#3db3d9" fill-rule="evenodd" stroke="none"/>
    <path d="M275.3 103.1 L327.45 145.6 328.4 143.8 389.45 292.85 455.35 292.85 455.35 294.2 388.55 294.2 327.45 145.6 223.45 341.7 90.9 298.05 31.9 103.1 34.1 103.1 92.85 296.95 222.45 339.1 325.75 145.8 273.35 103.1 275.3 103.1 M388.55 294.2 L389.5 296.45 376.0 431.6 374.75 431.6 388.55 294.2 M244.35 431.6 L242.3 431.6 222.2 343.65 223.45 341.7 244.35 431.6 M12.75 426.15 L11.35 425.3 Q50.3 361.2 89.25 298.05 L90.9 298.05 12.75 426.15" fill="#98e6ff" fill-rule="evenodd" stroke="none"/>
    <path d="M328.4 143.8 L278.3 103.1 413.05 103.1 Q430.55 103.1 442.9 119.7 455.35 136.3 455.35 159.8 L455.35 292.85 389.45 292.85 328.4 143.8" fill="#67cae9" fill-rule="evenodd" stroke="none"/>
    <path d="M389.5 296.45 L455.35 296.45 455.35 374.9 Q455.35 398.4 442.9 415.1 430.55 431.6 413.05 431.6 L376.0 431.6 389.5 296.45" fill="#70c6e2" fill-rule="evenodd" stroke="none"/>
    <path d="M373.35 431.6 L246.35 431.6 225.3 341.95 327.05 150.05 386.8 294.8 373.35 431.6" fill="#68ccec" fill-rule="evenodd" stroke="none"/>
    <path d="M11.35 425.3 L8.7 423.1 Q4.8 419.8 1.35 415.1 -11.0 398.4 -11.0 374.9 L-11.0 159.8 Q-11.0 136.3 1.35 119.7 13.25 103.75 29.9 103.2 L89.25 298.05 Q50.3 361.2 11.35 425.3" fill="#60c4e5" fill-rule="evenodd" stroke="none"/>
    <path d="M273.35 103.1 L325.75 145.8 222.45 339.1 92.85 296.95 34.1 103.1 273.35 103.1" fill="#81d4ee" fill-rule="evenodd" stroke="none"/>
    <path d="M242.3 431.6 L31.2 431.6 Q23.2 431.6 14.45 427.1 L91.25 300.25 222.2 343.65 242.3 431.6" fill="#71d3f3" fill-rule="evenodd" stroke="none"/>
    <path d="M455.35 294.2 L455.35 292.85 455.35 159.8 Q455.35 136.3 442.9 119.7 430.55 103.1 413.05 103.1 L278.3 103.1 M455.35 296.45 L455.35 374.9 Q455.35 398.4 442.9 415.1 430.55 431.6 413.05 431.6 L376.0 431.6 374.75 431.6 M373.35 431.6 L246.35 431.6 M244.35 431.6 L242.3 431.6 31.2 431.6 Q23.2 431.6 14.45 427.1 M12.75 426.15 L11.35 425.3 8.7 423.1 Q4.8 419.8 1.35 415.1 -11.0 398.4 -11.0 374.9 L-11.0 159.8 Q-11.0 136.3 1.35 119.7 13.25 103.75 29.9 103.2 L31.2 103.1 31.9 103.1 M273.35 103.1 L34.1 103.1" fill="none" stroke="#e5feff" stroke-linecap="round" stroke-linejoin="round" stroke-width="7.0"/>
    <path d="M419.35 122.8 Q421.35 122.8 422.8 124.3 424.1 125.75 424.1 128.05 424.1 130.25 422.8 131.65 L422.55 131.95 421.15 132.85 419.35 133.2 Q417.5 133.2 416.05 131.65 414.7 130.25 414.7 128.05 414.7 125.95 415.95 124.5 L416.05 124.3 417.2 123.4 Q418.2 122.8 419.35 122.8" fill="#1e9ac2" fill-rule="evenodd" stroke="none"/>
    <path d="M417.25 123.3 Q418.2 122.8 419.2 122.8 421.0 122.8 422.25 124.0 423.05 125.05 423.35 126.1 L423.45 127.4 423.35 128.7 Q423.05 129.8 422.25 130.8 L422.1 130.95 417.25 123.3 M420.8 131.75 L419.2 132.1 Q417.5 132.1 416.3 130.8 415.05 129.35 415.05 127.4 415.05 125.55 416.05 124.3 L420.8 131.75" fill="#91dff7" fill-rule="evenodd" stroke="none"/>
    <path d="M422.1 130.95 L420.8 131.75 416.05 124.3 416.3 124.0 417.25 123.3 422.1 130.95" fill="#68c8e7" fill-rule="evenodd" stroke="none"/>
    <path d="M433.85 145.0 L434.9 144.15 Q435.95 143.5 437.15 143.5 439.2 143.5 440.55 145.0 441.9 146.45 441.9 148.7 441.9 150.85 440.55 152.4 L440.35 152.6 438.9 153.55 437.15 153.85 Q435.25 153.85 433.85 152.4 432.5 150.85 432.5 148.7 432.5 146.6 433.75 145.25 L433.85 145.0" fill="#1e9ac2" fill-rule="evenodd" stroke="none"/>
    <path d="M439.8 151.65 L438.55 152.5 433.85 145.0 434.0 144.75 Q434.45 144.3 434.95 144.05 L439.8 151.65" fill="#68c8e7" fill-rule="evenodd" stroke="none"/>
    <path d="M434.95 144.05 Q435.9 143.5 437.0 143.5 438.75 143.5 440.0 144.75 440.75 145.75 441.1 146.85 L441.2 148.15 441.1 149.45 Q440.75 150.5 440.0 151.45 L439.8 151.65 434.95 144.05 M438.55 152.5 L437.0 152.8 Q435.25 152.8 434.0 151.45 432.8 150.1 432.8 148.15 432.8 146.35 433.85 145.0 L438.55 152.5" fill="#91dff7" fill-rule="evenodd" stroke="none"/>
    <path d="M418.8 369.4 Q420.1 370.9 420.1 373.05 420.1 375.3 418.8 376.75 L418.65 377.05 417.2 377.95 415.5 378.25 Q413.55 378.25 412.15 376.75 410.75 375.3 410.75 373.05 410.75 371.05 411.9 369.55 L412.15 369.4 Q412.6 368.85 413.2 368.55 414.2 367.85 415.5 367.85 417.4 367.85 418.8 369.4" fill="#1e9ac2" fill-rule="evenodd" stroke="none"/>
    <path d="M412.15 369.4 L412.35 369.25 Q412.75 368.7 413.25 368.4 L418.1 376.05 416.85 376.9 412.15 369.4" fill="#68c8e7" fill-rule="evenodd" stroke="none"/>
    <path d="M413.25 368.4 Q414.2 367.85 415.2 367.85 417.05 367.85 418.2 369.25 419.1 370.1 419.35 371.25 L419.55 372.45 419.35 373.8 Q419.1 374.95 418.2 375.85 L418.1 376.05 413.25 368.4 M416.85 376.9 L415.2 377.2 Q413.55 377.2 412.35 375.85 411.0 374.5 411.0 372.45 411.0 370.7 412.15 369.4 L416.85 376.9" fill="#91dff7" fill-rule="evenodd" stroke="none"/>
    <path d="M434.9 390.7 Q435.95 389.9 437.15 389.9 439.2 389.9 440.55 391.6 441.9 393.4 441.9 395.85 441.9 398.35 440.55 400.15 L440.35 400.45 438.9 401.6 437.15 401.8 Q435.25 401.8 433.85 400.15 432.5 398.35 432.5 395.85 432.5 393.5 433.75 391.9 L433.85 391.6 434.9 390.7" fill="#1e9ac2" fill-rule="evenodd" stroke="none"/>
    <path d="M439.8 399.4 L438.55 400.3 433.85 391.6 434.0 391.4 434.95 390.5 439.8 399.4" fill="#68c8e7" fill-rule="evenodd" stroke="none"/>
    <path d="M434.95 390.5 Q435.9 389.9 437.0 389.9 438.75 389.9 440.0 391.4 440.75 392.45 441.1 393.7 L441.2 395.25 441.1 396.75 Q440.75 398.05 440.0 399.05 L439.8 399.4 434.95 390.5 M438.55 400.3 L437.0 400.6 Q435.25 400.6 434.0 399.05 432.8 397.5 432.8 395.25 432.8 393.1 433.85 391.6 L438.55 400.3" fill="#91dff7" fill-rule="evenodd" stroke="none"/>
    <path d="M9.6 337.2 Q11.0 338.75 11.0 340.8 11.0 343.05 9.6 344.6 L9.4 344.8 7.95 345.8 6.2 346.0 Q4.25 346.0 3.0 344.6 1.55 343.05 1.55 340.8 1.55 338.8 2.75 337.35 L3.0 337.2 Q3.35 336.65 3.95 336.35 5.0 335.7 6.2 335.7 8.2 335.7 9.6 337.2" fill="#1e9ac2" fill-rule="evenodd" stroke="none"/>
    <path d="M4.0 336.2 Q4.95 335.7 6.05 335.7 7.85 335.7 9.0 336.95 9.85 337.9 10.1 339.0 L10.3 340.25 10.1 341.65 Q9.85 342.75 9.0 343.65 L8.8 343.85 4.0 336.2 M7.55 344.7 L6.05 344.95 Q4.25 344.95 3.05 343.65 1.9 342.3 1.9 340.25 1.9 338.5 3.0 337.2 L7.55 344.7" fill="#91dff7" fill-rule="evenodd" stroke="none"/>
    <path d="M8.8 343.85 L7.55 344.7 3.0 337.2 3.05 336.95 4.0 336.2 8.8 343.85" fill="#68c8e7" fill-rule="evenodd" stroke="none"/>
    <path d="M16.05 393.05 Q14.65 391.5 14.65 389.35 14.65 387.25 15.9 385.85 L16.05 385.65 Q16.5 385.05 17.1 384.75 18.1 384.1 19.3 384.1 21.35 384.1 22.7 385.65 24.1 387.15 24.1 389.35 24.1 391.5 22.7 393.05 L22.55 393.25 21.05 394.25 19.3 394.55 Q17.4 394.55 16.05 393.05" fill="#1e9ac2" fill-rule="evenodd" stroke="none"/>
    <path d="M20.8 393.1 L19.15 393.5 Q17.4 393.5 16.2 392.1 14.95 390.75 14.95 388.75 14.95 386.9 16.05 385.65 L20.8 393.1 M17.15 384.65 Q18.05 384.1 19.15 384.1 20.95 384.1 22.15 385.4 22.95 386.35 23.25 387.45 L23.4 388.75 23.25 390.1 Q22.95 391.2 22.15 392.1 L22.0 392.35 17.15 384.65" fill="#91dff7" fill-rule="evenodd" stroke="none"/>
    <path d="M16.05 385.65 L16.2 385.4 17.15 384.65 22.0 392.35 20.8 393.1 16.05 385.65" fill="#68c8e7" fill-rule="evenodd" stroke="none"/>
    <path d="M16.85 136.65 Q15.45 135.05 15.45 133.0 15.45 130.9 16.7 129.45 L16.85 129.25 17.9 128.35 Q18.9 127.75 20.2 127.75 22.05 127.75 23.45 129.25 24.9 130.8 24.9 133.0 24.9 135.05 23.45 136.65 L23.3 136.85 21.9 137.85 20.2 138.15 Q18.2 138.15 16.85 136.65" fill="#1e9ac2" fill-rule="evenodd" stroke="none"/>
    <path d="M21.45 136.75 L19.95 137.1 Q18.2 137.1 17.0 135.7 15.7 134.35 15.7 132.4 15.7 130.5 16.85 129.25 L21.45 136.75 M17.9 128.25 Q18.85 127.75 19.95 127.75 21.75 127.75 22.95 129.0 23.75 130.0 24.05 131.05 L24.25 132.4 24.05 133.7 Q23.75 134.8 22.95 135.7 L22.75 135.95 17.9 128.25" fill="#91dff7" fill-rule="evenodd" stroke="none"/>
    <path d="M16.85 129.25 L17.0 129.0 17.9 128.25 22.75 135.95 21.45 136.75 16.85 129.25" fill="#68c8e7" fill-rule="evenodd" stroke="none"/>
    <path d="M62.3 122.55 Q62.3 124.75 61.0 126.25 L60.7 126.5 59.35 127.45 57.55 127.75 Q55.6 127.75 54.25 126.25 52.85 124.75 52.85 122.55 52.85 120.5 54.15 119.0 L54.25 118.85 55.4 118.0 Q56.35 117.35 57.55 117.35 59.6 117.35 61.0 118.85 62.3 120.4 62.3 122.55" fill="#1e9ac2" fill-rule="evenodd" stroke="none"/>
    <path d="M55.4 117.85 Q56.3 117.35 57.35 117.35 59.15 117.35 60.4 118.75 61.15 119.55 61.5 120.7 L61.65 121.9 61.5 123.3 Q61.15 124.4 60.4 125.3 L60.25 125.5 55.4 117.85 M58.95 126.4 L57.35 126.65 Q55.6 126.65 54.4 125.3 53.2 123.95 53.2 121.9 53.2 120.1 54.25 118.85 L58.95 126.4" fill="#91dff7" fill-rule="evenodd" stroke="none"/>
    <path d="M60.25 125.5 L58.95 126.4 54.25 118.85 54.4 118.75 55.4 117.85 60.25 125.5" fill="#68c8e7" fill-rule="evenodd" stroke="none"/>
    <path d="M97.2 280.4 Q97.65 279.85 98.2 279.6 99.25 278.9 100.45 278.9 102.45 278.9 103.8 280.4 105.15 281.9 105.15 284.05 105.15 286.35 103.8 287.9 L103.65 288.05 102.2 289.05 100.45 289.3 Q98.5 289.3 97.2 287.9 95.75 286.35 95.75 284.05 95.75 282.1 96.95 280.7 L97.2 280.4" fill="#1e9ac2" fill-rule="evenodd" stroke="none"/>
    <path d="M101.8 288.0 L100.25 288.2 Q98.5 288.2 97.35 286.9 96.1 285.55 96.1 283.65 96.1 281.7 97.2 280.4 L101.8 288.0 M98.3 279.5 Q99.2 278.9 100.25 278.9 102.05 278.9 103.3 280.25 104.1 281.1 104.4 282.25 L104.55 283.65 104.4 284.95 Q104.1 286.0 103.3 286.9 L103.1 287.1 98.3 279.5" fill="#91dff7" fill-rule="evenodd" stroke="none"/>
    <path d="M97.2 280.4 L97.35 280.25 98.3 279.5 103.1 287.1 101.8 288.0 97.2 280.4" fill="#68c8e7" fill-rule="evenodd" stroke="none"/>
    <path d="M92.45 313.15 Q93.0 312.6 93.5 312.3 94.5 311.6 95.75 311.6 97.7 311.6 99.1 313.15 100.45 314.65 100.45 316.75 100.45 318.95 99.1 320.5 L98.85 320.8 97.45 321.7 95.75 321.95 Q93.85 321.95 92.45 320.5 91.05 318.95 91.05 316.75 91.05 314.8 92.3 313.3 L92.45 313.15" fill="#1e9ac2" fill-rule="evenodd" stroke="none"/>
    <path d="M93.5 312.15 Q94.45 311.6 95.55 311.6 97.35 311.6 98.5 312.95 99.3 313.8 99.65 314.95 L99.75 316.2 99.65 317.55 Q99.3 318.7 98.5 319.55 L98.4 319.8 93.5 312.15 M97.15 320.65 L95.55 320.9 Q93.85 320.9 92.6 319.55 91.35 318.25 91.35 316.2 91.35 314.4 92.45 313.15 L97.15 320.65" fill="#91dff7" fill-rule="evenodd" stroke="none"/>
    <path d="M98.4 319.8 L97.15 320.65 92.45 313.15 92.6 312.95 93.5 312.15 98.4 319.8" fill="#68c8e7" fill-rule="evenodd" stroke="none"/>
    <path d="M78.0 290.25 Q79.4 291.85 79.4 294.0 79.4 296.2 78.0 297.65 L77.8 297.95 76.4 298.8 74.7 299.2 Q72.7 299.2 71.35 297.65 70.0 296.2 70.0 294.0 70.0 291.9 71.2 290.45 L71.35 290.25 Q71.9 289.7 72.5 289.45 73.45 288.75 74.7 288.75 76.65 288.75 78.0 290.25" fill="#1e9ac2" fill-rule="evenodd" stroke="none"/>
    <path d="M71.35 290.25 L71.5 290.2 72.5 289.3 77.35 296.95 76.05 297.85 71.35 290.25" fill="#68c8e7" fill-rule="evenodd" stroke="none"/>
    <path d="M72.5 289.3 Q73.4 288.75 74.45 288.75 76.2 288.75 77.45 290.2 78.3 291.0 78.6 292.15 L78.7 293.35 78.6 294.7 Q78.3 295.85 77.45 296.75 L77.35 296.95 72.5 289.3 M76.05 297.85 L74.45 298.1 Q72.7 298.1 71.5 296.75 70.3 295.35 70.3 293.35 70.3 291.55 71.35 290.25 L76.05 297.85" fill="#91dff7" fill-rule="evenodd" stroke="none"/>
    <path d="M305.9 144.95 Q307.9 144.95 309.25 146.45 310.65 147.95 310.65 150.15 310.65 152.35 309.25 153.85 L309.1 154.05 307.65 155.05 305.9 155.35 Q303.95 155.35 302.6 153.85 301.2 152.35 301.2 150.15 301.2 148.05 302.5 146.65 L302.6 146.45 Q303.15 145.85 303.7 145.55 304.75 144.95 305.9 144.95" fill="#1e9ac2" fill-rule="evenodd" stroke="none"/>
    <path d="M308.55 153.15 L307.3 153.9 302.6 146.45 302.75 146.25 303.8 145.4 308.55 153.15" fill="#68c8e7" fill-rule="evenodd" stroke="none"/>
    <path d="M303.8 145.4 Q304.65 144.95 305.7 144.95 307.5 144.95 308.75 146.25 309.55 147.2 309.85 148.3 L310.0 149.55 309.85 150.85 Q309.55 151.95 308.75 152.9 L308.55 153.15 303.8 145.4 M307.3 153.9 Q306.55 154.3 305.7 154.3 303.95 154.3 302.75 152.9 301.55 151.55 301.55 149.55 301.55 147.75 302.6 146.45 L307.3 153.9" fill="#91dff7" fill-rule="evenodd" stroke="none"/>
    <path d="M329.7 184.95 L329.5 185.2 Q328.85 185.75 328.0 186.1 L326.3 186.5 Q324.45 186.5 323.05 184.95 321.6 183.5 321.6 181.25 321.6 179.2 322.85 177.8 L323.05 177.5 324.05 176.7 Q325.1 176.05 326.3 176.05 328.3 176.05 329.7 177.5 331.1 179.05 331.1 181.25 331.1 183.5 329.7 184.95" fill="#1e9ac2" fill-rule="evenodd" stroke="none"/>
    <path d="M324.1 176.55 Q325.05 176.05 326.2 176.05 327.95 176.05 329.1 177.45 329.9 178.3 330.25 179.45 L330.4 180.7 330.25 181.95 329.1 184.0 328.95 184.3 324.1 176.55 M327.7 185.1 L326.2 185.4 Q324.45 185.4 323.15 184.0 322.0 182.65 322.0 180.7 322.0 178.85 323.05 177.5 L327.7 185.1" fill="#91dff7" fill-rule="evenodd" stroke="none"/>
    <path d="M328.95 184.3 L327.7 185.1 323.05 177.5 323.15 177.45 324.1 176.55 328.95 184.3" fill="#68c8e7" fill-rule="evenodd" stroke="none"/>
    <path d="M409.15 289.35 L407.75 290.3 406.05 290.55 Q404.1 290.55 402.7 289.1 401.3 287.6 401.3 285.4 401.3 283.3 402.55 281.85 L402.7 281.7 Q403.25 281.1 403.85 280.9 404.8 280.2 406.05 280.2 408.0 280.2 409.4 281.7 410.75 283.25 410.75 285.4 410.75 287.6 409.4 289.1 L409.15 289.35" fill="#1e9ac2" fill-rule="evenodd" stroke="none"/>
    <path d="M403.85 280.8 Q404.75 280.2 405.85 280.2 407.6 280.2 408.85 281.55 409.65 282.4 410.0 283.55 L410.15 284.85 410.0 286.15 Q409.65 287.25 408.85 288.15 L408.7 288.35 403.85 280.8 M407.45 289.25 L405.85 289.5 Q404.1 289.5 402.85 288.15 401.6 286.8 401.6 284.85 401.6 282.95 402.7 281.7 L407.45 289.25" fill="#91dff7" fill-rule="evenodd" stroke="none"/>
    <path d="M408.7 288.35 L407.45 289.25 402.7 281.7 402.85 281.55 403.85 280.8 408.7 288.35" fill="#68c8e7" fill-rule="evenodd" stroke="none"/>
    <path d="M393.3 260.2 Q393.8 259.65 394.4 259.35 395.35 258.7 396.65 258.7 398.6 258.7 399.95 260.2 401.3 261.7 401.3 263.85 401.3 266.05 399.95 267.6 399.8 267.7 399.8 267.85 L398.35 268.8 396.65 269.0 Q394.65 269.0 393.3 267.6 391.9 266.05 391.9 263.85 391.9 261.85 393.1 260.35 L393.3 260.2" fill="#1e9ac2" fill-rule="evenodd" stroke="none"/>
    <path d="M393.3 260.2 L393.5 260.0 394.45 259.2 399.25 266.85 398.0 267.7 393.3 260.2" fill="#68c8e7" fill-rule="evenodd" stroke="none"/>
    <path d="M398.0 267.7 L396.35 267.95 Q394.65 267.95 393.5 266.6 392.2 265.3 392.2 263.25 392.2 261.45 393.3 260.2 L398.0 267.7 M394.45 259.2 Q395.25 258.7 396.35 258.7 398.15 258.7 399.35 260.0 400.25 260.85 400.5 262.0 L400.7 263.25 400.5 264.65 Q400.25 265.8 399.35 266.6 L399.25 266.85 394.45 259.2" fill="#91dff7" fill-rule="evenodd" stroke="none"/>
    <path d="M374.9 307.35 Q374.7 307.45 374.65 307.5 L373.2 308.55 371.55 308.85 Q369.65 308.85 368.2 307.35 366.85 305.85 366.85 303.65 366.85 301.55 368.1 300.15 L368.2 299.95 369.25 299.05 Q370.35 298.4 371.55 298.4 373.55 298.4 374.9 299.95 376.25 301.45 376.25 303.65 376.25 305.85 374.9 307.35" fill="#1e9ac2" fill-rule="evenodd" stroke="none"/>
    <path d="M369.3 298.95 Q370.3 298.4 371.3 298.4 373.1 298.4 374.35 299.75 375.15 300.7 375.45 301.8 L375.6 303.05 375.45 304.4 Q375.15 305.5 374.35 306.35 L374.1 306.65 369.3 298.95 M372.9 307.45 L371.3 307.8 Q369.65 307.8 368.3 306.35 367.1 305.05 367.1 303.05 367.1 301.2 368.2 299.95 L372.9 307.45" fill="#91dff7" fill-rule="evenodd" stroke="none"/>
    <path d="M374.1 306.65 L372.9 307.45 368.2 299.95 368.3 299.75 369.3 298.95 374.1 306.65" fill="#68c8e7" fill-rule="evenodd" stroke="none"/>
    <path d="M217.2 353.55 Q218.65 355.0 218.65 357.2 218.65 359.4 217.2 360.9 L217.0 361.15 Q216.4 361.75 215.6 362.05 L213.85 362.4 Q211.95 362.4 210.6 360.9 209.2 359.4 209.2 357.2 209.2 355.15 210.4 353.75 L210.6 353.55 Q211.0 352.95 211.6 352.65 212.65 351.95 213.85 351.95 215.8 351.95 217.2 353.55" fill="#1e9ac2" fill-rule="evenodd" stroke="none"/>
    <path d="M211.65 352.55 Q212.6 351.95 213.7 351.95 215.45 351.95 216.6 353.35 217.5 354.25 217.75 355.35 L217.95 356.65 217.75 357.95 Q217.5 359.05 216.6 359.95 L216.45 360.2 211.65 352.55 M215.25 361.0 L213.7 361.35 Q211.95 361.35 210.7 359.95 209.5 358.65 209.5 356.65 209.5 354.8 210.6 353.55 L215.25 361.0" fill="#91dff7" fill-rule="evenodd" stroke="none"/>
    <path d="M216.45 360.2 L215.25 361.0 210.6 353.55 210.7 353.35 211.65 352.55 216.45 360.2" fill="#68c8e7" fill-rule="evenodd" stroke="none"/>
    <path d="M239.85 338.35 Q241.8 338.35 243.2 339.75 244.55 341.35 244.55 343.5 244.55 345.7 243.2 347.25 L242.95 347.5 241.55 348.4 239.85 348.7 Q237.85 348.7 236.5 347.25 235.15 345.7 235.15 343.5 235.15 341.4 236.35 340.1 L236.5 339.75 237.6 339.0 Q238.6 338.35 239.85 338.35" fill="#1e9ac2" fill-rule="evenodd" stroke="none"/>
    <path d="M242.45 346.5 L241.15 347.35 236.5 339.75 236.65 339.65 Q237.1 339.1 237.65 338.9 L242.45 346.5" fill="#68c8e7" fill-rule="evenodd" stroke="none"/>
    <path d="M237.65 338.9 Q238.5 338.35 239.6 338.35 241.4 338.35 242.6 339.65 243.4 340.5 243.75 341.65 L243.9 343.0 243.75 344.3 242.6 346.25 242.45 346.5 237.65 338.9 M241.15 347.35 L239.6 347.6 Q237.85 347.6 236.65 346.25 235.4 344.95 235.4 343.0 235.4 341.1 236.5 339.75 L241.15 347.35" fill="#91dff7" fill-rule="evenodd" stroke="none"/>
    <path d="M215.45 318.25 Q216.4 317.6 217.7 317.6 219.65 317.6 221.05 319.1 222.4 320.65 222.4 322.85 222.4 325.05 221.05 326.5 L220.8 326.75 219.4 327.65 Q218.65 328.05 217.7 328.05 215.75 328.05 214.4 326.5 212.95 325.05 212.95 322.85 212.95 320.75 214.15 319.35 L214.4 319.1 Q214.9 318.6 215.45 318.25" fill="#1e9ac2" fill-rule="evenodd" stroke="none"/>
    <path d="M214.4 319.1 L214.55 318.95 215.55 318.15 220.35 325.85 219.05 326.6 214.4 319.1" fill="#68c8e7" fill-rule="evenodd" stroke="none"/>
    <path d="M215.55 318.15 Q216.4 317.6 217.5 317.6 219.25 317.6 220.45 318.95 221.3 319.9 221.6 321.0 L221.8 322.25 221.6 323.55 Q221.3 324.7 220.45 325.5 L220.35 325.85 215.55 318.15 M219.05 326.6 L217.5 326.95 Q215.75 326.95 214.55 325.5 213.3 324.2 213.3 322.25 213.3 320.4 214.4 319.1 L219.05 326.6" fill="#91dff7" fill-rule="evenodd" stroke="none"/>
    <path d="M268.6 114.25 Q268.6 116.45 267.2 117.95 L267.0 118.2 265.6 119.1 263.85 119.4 Q261.85 119.4 260.55 117.95 259.1 116.45 259.1 114.25 259.1 112.2 260.35 110.8 L260.55 110.45 Q261.0 109.95 261.6 109.65 262.55 109.05 263.85 109.05 265.8 109.05 267.2 110.45 268.6 112.05 268.6 114.25" fill="#1e9ac2" fill-rule="evenodd" stroke="none"/>
    <path d="M261.7 109.6 Q262.55 109.05 263.65 109.05 265.4 109.05 266.6 110.3 267.45 111.25 267.8 112.35 L267.95 113.65 267.8 115.0 Q267.45 116.1 266.6 116.95 L266.45 117.2 261.7 109.6 M265.25 118.05 L263.65 118.3 Q261.85 118.3 260.65 116.95 259.45 115.65 259.45 113.65 259.45 111.8 260.55 110.45 L265.25 118.05" fill="#91dff7" fill-rule="evenodd" stroke="none"/>
    <path d="M266.45 117.2 L265.25 118.05 260.55 110.45 260.65 110.3 Q261.2 109.8 261.7 109.6 L266.45 117.2" fill="#68c8e7" fill-rule="evenodd" stroke="none"/>
    <path d="M81.85 83.2 L82.6 85.95 Q82.1 89.85 80.7 93.65 L79.9 95.5 78.5 97.95 74.0 95.3 73.9 95.5 73.7 95.85 Q71.6 99.35 68.95 102.05 L70.2 103.6 70.15 103.75 70.35 107.25 70.45 107.4 Q66.8 110.4 62.2 112.2 L60.75 112.7 59.15 113.15 59.1 113.15 57.75 108.2 57.65 108.25 57.6 108.25 Q52.5 109.65 47.35 109.2 L47.35 110.05 46.6 114.1 Q40.5 113.4 34.7 110.2 L34.7 110.15 34.85 109.8 35.9 106.2 36.4 105.45 32.75 102.75 Q30.65 100.85 29.15 98.85 L29.1 98.8 29.0 98.8 25.15 101.85 25.0 101.9 Q21.15 97.15 19.4 90.75 L19.35 90.65 19.5 90.6 21.25 87.4 23.8 86.7 Q23.6 85.85 23.55 84.9 23.2 82.25 23.6 79.4 L23.6 78.8 23.6 78.65 23.55 78.65 18.3 78.0 18.4 77.9 18.7 76.0 18.9 75.0 Q19.9 70.55 22.35 66.25 L22.45 66.05 22.5 66.05 24.05 64.2 24.2 64.0 24.3 64.0 28.45 66.35 Q30.7 63.1 33.6 60.9 L34.0 60.65 31.05 57.0 32.05 54.75 Q36.75 51.2 42.85 49.5 L44.45 55.35 Q49.3 54.0 53.85 54.65 L54.15 54.65 54.8 48.45 Q60.75 49.25 66.35 52.35 L66.3 52.5 66.4 55.85 64.8 58.6 Q68.3 60.85 70.65 64.05 L75.55 60.15 Q79.1 64.85 80.8 71.0 L80.75 71.0 81.5 73.45 76.45 74.85 76.5 74.9 Q77.45 78.5 77.6 82.0 L77.6 82.55 81.85 82.95 81.85 83.2 M55.0 75.85 Q53.3 74.95 51.55 74.7 L47.95 74.95 Q46.15 75.45 44.7 76.6 43.3 77.7 42.4 79.35 L42.0 80.25 42.2 81.65 43.15 84.05 43.9 85.0 45.1 86.3 46.55 87.3 Q48.25 88.35 50.05 88.55 L53.55 88.2 54.1 88.05 Q55.6 87.55 56.9 86.55 58.3 85.5 59.15 83.85 L59.7 83.0 59.35 81.45 Q58.85 79.65 57.75 78.1 L57.55 77.9 Q56.55 76.7 55.0 75.85" fill="#b1c4cb" fill-rule="evenodd" stroke="none"/>
    <path d="M81.85 83.2 L82.6 85.95 Q82.1 89.85 80.7 93.65 L79.9 95.5 78.5 97.95 74.0 95.3 73.9 95.5 73.7 95.85 Q71.6 99.35 68.95 102.05 L70.2 103.6 70.15 103.75 70.35 107.25 70.45 107.4 Q66.8 110.4 62.2 112.2 L60.75 112.7 59.15 113.15 59.1 113.15 57.75 108.2 57.65 108.25 57.6 108.25 Q52.5 109.65 47.35 109.2 L47.35 110.05 46.6 114.1 Q40.5 113.4 34.7 110.2 L34.7 110.15 34.85 109.8 35.9 106.2 36.4 105.45 32.75 102.75 Q30.65 100.85 29.15 98.85 L29.1 98.8 29.0 98.8 25.15 101.85 25.0 101.9 Q21.15 97.15 19.4 90.75 L19.35 90.65 19.5 90.6 21.25 87.4 23.8 86.7 Q23.6 85.85 23.55 84.9 23.2 82.25 23.6 79.4 L23.6 78.8 23.6 78.65 23.55 78.65 18.3 78.0 18.4 77.9 18.7 76.0 18.9 75.0 Q19.9 70.55 22.35 66.25 L22.45 66.05 22.5 66.05 24.05 64.2 24.2 64.0 24.3 64.0 28.45 66.35 Q30.7 63.1 33.6 60.9 L34.0 60.65 31.05 57.0 32.05 54.75 Q36.75 51.2 42.85 49.5 L44.45 55.35 Q49.3 54.0 53.85 54.65 L54.15 54.65 54.8 48.45 Q60.75 49.25 66.35 52.35 L66.3 52.5 66.4 55.85 64.8 58.6 Q68.3 60.85 70.65 64.05 L75.55 60.15 Q79.1 64.85 80.8 71.0 L80.75 71.0 81.5 73.45 76.45 74.85 76.5 74.9 Q77.45 78.5 77.6 82.0 L77.6 82.55 81.85 82.95 81.85 83.2 M55.0 75.85 Q56.55 76.7 57.55 77.9 L57.75 78.1 Q58.85 79.65 59.35 81.45 L59.7 83.0 59.15 83.85 Q58.3 85.5 56.9 86.55 55.6 87.55 54.1 88.05 L53.55 88.2 50.05 88.55 Q48.25 88.35 46.55 87.3 L45.1 86.3 43.9 85.0 43.15 84.05 42.2 81.65 42.0 80.25 42.4 79.35 Q43.3 77.7 44.7 76.6 46.15 75.45 47.95 74.95 L51.55 74.7 Q53.3 74.95 55.0 75.85" fill="none" stroke="#005c8e" stroke-linecap="round" stroke-linejoin="round" stroke-width="4.0"/>
    <path d="M77.85 94.5 L78.05 94.55 Q79.7 91.55 80.75 88.4 L81.4 85.8 81.85 83.15 81.85 83.25 82.6 86.0 Q82.1 89.95 80.7 93.7 L79.9 95.6 78.55 98.05 77.85 94.5 M77.6 82.6 L75.8 82.25 76.0 79.65 75.75 76.45 75.55 75.15 75.5 74.85 75.0 73.2 74.95 72.85 76.5 74.9 76.5 75.0 Q77.5 78.6 77.6 82.05 L77.6 82.6 M26.55 81.25 Q26.65 83.5 27.3 85.85 L23.85 86.8 23.55 84.9 Q23.25 82.3 23.65 79.45 L23.6 78.9 23.65 78.75 23.6 78.75 26.55 76.3 26.4 77.4 Q26.25 79.2 26.5 81.1 L26.55 81.25 M21.3 87.5 L22.05 89.95 Q23.2 92.95 24.75 95.6 L26.65 98.4 25.2 101.95 25.05 102.0 Q21.2 97.2 19.45 90.8 L19.4 90.65 19.55 90.65 21.3 87.5 M31.6 94.5 L33.1 96.4 Q35.55 99.0 38.9 100.8 L36.4 105.5 Q34.45 104.35 32.8 102.75 30.65 100.95 29.2 98.95 L31.6 94.5 M47.4 109.25 L48.1 103.95 Q52.9 104.55 57.7 103.2 L57.7 103.25 57.65 108.35 57.6 108.35 Q52.5 109.75 47.4 109.25 M59.35 109.05 Q63.85 107.85 67.7 105.6 L68.55 105.05 70.15 103.8 70.35 107.35 70.45 107.5 Q66.8 110.45 62.2 112.25 L60.8 112.75 59.2 113.2 59.35 109.05 M69.0 102.15 L66.45 98.9 Q70.25 95.9 72.65 91.55 L74.0 95.5 73.9 95.55 73.75 95.9 Q71.6 99.4 69.0 102.15 M35.9 59.85 Q35.35 60.2 35.0 60.65 L34.25 61.2 Q31.95 63.2 30.35 66.1 L29.65 67.1 28.45 66.45 Q30.75 63.2 33.65 61.0 33.85 60.8 34.0 60.75 L35.9 59.85 M24.1 64.25 L23.1 66.4 Q21.45 70.0 20.75 73.55 20.5 74.55 20.4 75.4 L20.3 75.5 20.35 75.5 18.4 78.0 18.7 76.1 Q18.75 75.55 18.95 75.1 19.95 70.65 22.35 66.35 L22.5 66.15 22.55 66.15 24.1 64.25 M66.35 52.6 L66.4 55.95 64.8 58.65 64.1 58.2 63.35 57.8 66.35 52.6" fill="#6f8891" fill-rule="evenodd" stroke="none"/>
    <path d="M81.85 83.15 L81.4 85.8 80.75 88.4 Q79.7 91.55 78.05 94.55 L77.85 94.5 72.65 91.45 72.65 91.55 Q70.25 95.9 66.45 98.9 L69.0 102.15 70.25 103.7 70.15 103.8 68.55 105.05 67.7 105.6 Q63.85 107.85 59.35 109.05 L57.7 103.25 57.7 103.2 Q52.9 104.55 48.1 103.95 L47.4 109.25 47.35 110.05 Q41.75 109.35 36.6 106.6 L35.95 106.2 36.4 105.5 38.9 100.8 Q35.55 99.0 33.1 96.4 L31.6 94.5 26.65 98.4 24.75 95.6 Q23.2 92.95 22.05 89.95 L21.3 87.5 23.85 86.8 27.3 85.85 Q26.65 83.5 26.55 81.25 L28.0 82.4 28.95 82.95 Q34.65 86.4 41.0 84.65 L42.45 87.05 43.9 88.55 45.5 89.85 Q47.55 91.0 49.6 91.25 L53.9 90.85 54.5 90.65 Q56.3 90.05 57.8 88.9 59.4 87.7 60.35 85.75 L61.05 84.7 Q61.7 83.15 61.8 81.65 62.05 79.65 61.4 77.35 L61.05 76.25 63.8 75.15 Q69.2 72.95 75.0 73.2 L75.5 74.85 75.55 75.15 75.75 76.45 76.0 79.65 75.8 82.25 77.6 82.6 81.85 83.0 81.85 83.15" fill="#b1c4cb" fill-rule="evenodd" stroke="none"/>
    <path d="M26.65 98.4 L31.6 94.5 29.2 98.95 29.15 98.9 29.0 98.85 25.2 101.95 26.65 98.4 M35.95 106.2 L36.6 106.6 Q41.75 109.35 47.35 110.05 L47.35 110.1 46.65 114.15 Q40.55 113.5 34.75 110.2 L34.7 110.2 34.9 109.85 35.95 106.2 M57.7 103.25 L59.35 109.05 59.2 113.2 59.15 113.2 57.75 108.3 57.65 108.35 57.7 103.25 M72.65 91.55 L72.65 91.45 77.85 94.5 78.55 98.05 74.0 95.35 74.0 95.5 72.65 91.55 M20.35 75.5 L26.55 76.3 23.6 78.75 18.35 78.1 18.4 78.0 20.35 75.5 M32.1 54.8 L35.9 59.75 35.9 59.85 34.0 60.75 31.05 57.1 32.1 54.8 M80.8 71.1 L81.55 73.5 76.5 74.9 74.95 72.85 74.9 72.75 80.8 71.1" fill="#516870" fill-rule="evenodd" stroke="none"/>
    <path d="M75.0 73.2 Q69.2 72.95 63.8 75.15 L61.05 76.25 Q60.5 74.7 59.6 73.65 58.25 71.95 56.25 70.8 54.4 69.65 52.35 69.4 L48.05 69.8 Q45.9 70.4 44.2 71.7 42.55 72.9 41.45 74.9 L41.4 74.9 Q40.45 76.85 40.25 79.05 40.0 80.2 40.15 81.45 L40.45 83.15 41.0 84.65 Q34.65 86.4 28.95 82.95 L28.0 82.4 26.55 81.25 26.5 81.1 Q26.25 79.2 26.4 77.4 L26.55 76.3 20.35 75.5 20.3 75.5 20.4 75.4 Q20.5 74.55 20.75 73.55 21.45 70.0 23.1 66.4 L24.1 64.25 24.25 64.1 24.35 64.1 28.45 66.45 29.65 67.1 30.35 66.1 Q31.95 63.2 34.25 61.2 L35.0 60.65 Q35.35 60.2 35.9 59.85 L35.9 59.75 32.1 54.8 Q36.8 51.25 42.9 49.55 L44.5 55.45 Q49.35 54.1 53.85 54.75 L54.2 54.7 54.85 48.5 Q60.8 49.3 66.4 52.45 L66.35 52.6 63.35 57.8 64.1 58.2 64.8 58.65 Q68.3 60.95 70.65 64.1 L75.55 60.2 Q79.15 64.9 80.85 71.1 L80.8 71.1 74.9 72.75 74.95 72.85 75.0 73.2" fill="#bbd4de" fill-rule="evenodd" stroke="none"/>
    <path d="M61.05 76.25 L61.4 77.35 Q62.05 79.65 61.8 81.65 61.7 83.15 61.05 84.7 L60.35 85.75 Q59.4 87.7 57.8 88.9 56.3 90.05 54.5 90.65 L53.9 90.85 49.6 91.25 Q47.55 91.0 45.5 89.85 L43.9 88.55 42.45 87.05 41.0 84.65 40.45 83.15 40.15 81.45 Q40.0 80.2 40.25 79.05 40.45 76.85 41.4 74.9 L41.45 74.9 Q42.55 72.9 44.2 71.7 45.9 70.4 48.05 69.8 L52.35 69.4 Q54.4 69.65 56.25 70.8 58.25 71.95 59.6 73.65 60.5 74.7 61.05 76.25 M59.7 83.05 L60.45 80.45 Q60.6 78.75 60.05 76.85 L60.05 76.75 Q59.55 74.95 58.55 73.6 57.35 72.25 55.65 71.25 54.1 70.25 52.35 70.1 L48.6 70.3 Q46.8 70.8 45.5 72.0 44.0 73.0 43.05 74.7 42.15 76.4 42.0 78.2 41.85 79.2 42.05 80.3 L42.25 81.75 Q42.65 83.1 43.2 84.1 L43.9 85.05 45.1 86.4 Q45.8 87.0 46.55 87.4 48.3 88.4 50.05 88.6 L53.6 88.25 54.15 88.1 Q55.65 87.65 56.95 86.65 58.3 85.6 59.15 83.95 L59.7 83.05" fill="#d5eef7" fill-rule="evenodd" stroke="none"/>
    <path d="M42.05 80.3 Q41.85 79.2 42.0 78.2 42.15 76.4 43.05 74.7 44.0 73.0 45.5 72.0 46.8 70.8 48.6 70.3 L52.35 70.1 Q54.1 70.25 55.65 71.25 57.35 72.25 58.55 73.6 59.55 74.95 60.05 76.75 L60.05 76.85 Q60.6 78.75 60.45 80.45 L59.7 83.05 59.35 81.5 Q58.85 79.75 57.75 78.15 L57.6 78.0 Q56.55 76.75 55.05 75.95 53.35 75.05 51.6 74.75 L47.95 75.05 Q46.15 75.55 44.75 76.65 43.3 77.8 42.45 79.45 42.1 79.8 42.05 80.3" fill="#83979f" fill-rule="evenodd" stroke="none"/>
  </g>
</svg>
