<?xml version="1.0" encoding="UTF-8" standalone="no"?>
<svg xmlns:xlink="http://www.w3.org/1999/xlink" height="80.45px" width="340.1px" xmlns="http://www.w3.org/2000/svg">
  <g transform="matrix(1.0, 0.0, 0.0, 1.0, -52.45, -27.85)">
    <path d="M358.6 41.4 L389.55 64.7 358.6 105.3 83.55 104.25 55.45 65.65 83.55 40.35 Q221.8 20.8 358.6 41.4" fill="#007eaf" fill-rule="evenodd" stroke="none"/>
    <path d="M358.6 41.4 L389.55 64.7 358.6 105.3 83.55 104.25 55.45 65.65 83.55 40.35 Q221.8 20.8 358.6 41.4 Z" fill="none" stroke="#006298" stroke-linecap="round" stroke-linejoin="round" stroke-width="6.0"/>
    <path d="M324.45 44.6 L324.7 45.65 112.85 46.0 113.35 44.9 324.45 44.6" fill="#b1ebff" fill-rule="evenodd" stroke="none"/>
    <path d="M323.85 101.0 L322.75 101.0 324.3 95.9 324.5 94.6 114.0 94.8 114.3 95.8 114.1 95.8 115.75 101.0 114.6 101.0 104.8 69.55 112.35 44.1 113.55 44.1 113.25 44.9 113.35 44.9 112.85 46.0 324.7 45.65 324.45 44.6 324.5 44.4 324.35 43.75 324.3 43.6 325.55 43.6 333.3 69.75 323.85 101.0 M331.95 69.9 L325.45 47.25 112.5 47.25 105.8 69.2 113.4 93.35 324.95 93.25 331.95 69.9" fill="#56bee0" fill-rule="evenodd" stroke="none"/>
    <path d="M326.7 44.05 L333.0 44.75 341.3 50.75 330.9 58.35 326.7 44.05 M343.6 52.4 L361.6 65.35 333.0 101.0 324.95 101.0 329.8 84.7 338.1 92.95 338.65 92.0 339.45 90.65 330.75 81.9 334.25 69.9 331.6 60.7 343.6 52.4 M322.75 101.0 L115.75 101.0 114.1 95.8 114.3 95.8 324.3 95.9 322.75 101.0 M113.75 101.0 L108.45 101.0 100.65 90.8 108.2 83.65 113.75 101.0 M100.25 90.3 L82.45 67.0 100.45 51.55 107.65 57.65 103.85 69.9 107.7 82.15 99.75 89.6 100.2 90.15 100.25 90.3 M101.4 50.8 L108.45 44.7 111.6 44.35 107.95 56.35 101.4 50.8 M113.55 44.1 L114.6 44.1 114.6 44.05 Q217.55 31.85 322.35 43.5 L322.35 43.6 322.85 43.6 324.35 43.75 324.5 44.4 324.45 44.6 113.35 44.9 113.25 44.9 113.55 44.1 M331.95 69.9 L324.95 93.25 113.4 93.35 105.8 69.2 112.5 47.25 325.45 47.25 331.95 69.9" fill="#9be4fc" fill-rule="evenodd" stroke="none"/>
    <path d="M325.55 43.6 L326.55 43.6 326.7 44.05 330.9 58.35 341.3 50.75 342.15 50.15 342.15 51.75 331.3 59.6 331.6 60.7 334.25 69.9 330.75 81.9 330.25 83.4 338.65 92.0 338.1 92.95 329.8 84.7 324.95 101.0 323.85 101.0 333.3 69.75 325.55 43.6" fill="#cdf2ff" fill-rule="evenodd" stroke="none"/>
    <path d="M342.15 51.75 L342.15 52.05 344.15 52.05 343.6 52.4 331.6 60.7 331.3 59.6 342.15 51.75 M330.75 81.9 L339.45 90.65 338.65 92.0 330.25 83.4 330.75 81.9" fill="#4fb1d2" fill-rule="evenodd" stroke="none"/>
    <path d="M114.3 95.8 L114.0 94.8 324.5 94.6 324.3 95.9 114.3 95.8" fill="#bfefff" fill-rule="evenodd" stroke="none"/>
    <path d="M114.6 101.0 L113.75 101.0 108.2 83.65 107.95 82.9 100.2 90.15 99.75 89.6 107.7 82.15 103.85 69.9 107.65 57.65 107.75 57.05 101.25 51.55 101.25 50.65 101.4 50.8 107.95 56.35 111.6 44.35 111.75 44.1 112.35 44.1 104.8 69.55 114.6 101.0" fill="#bce8f7" fill-rule="evenodd" stroke="none"/>
    <path d="M100.65 90.8 L100.5 90.9 100.25 90.3 100.2 90.15 107.95 82.9 108.2 83.65 100.65 90.8 M100.45 51.55 L101.25 51.55 107.75 57.05 107.65 57.65 100.45 51.55" fill="#54b6d7" fill-rule="evenodd" stroke="none"/>
    <path d="M106.7 49.1 Q107.3 49.1 107.7 49.85 108.15 50.4 108.15 51.4 108.15 52.4 107.7 53.05 L107.7 53.15 107.15 53.55 106.7 53.65 Q106.15 53.65 105.75 53.05 105.3 52.4 105.3 51.4 105.3 50.45 105.7 49.9 L105.75 49.85 106.05 49.4 Q106.35 49.1 106.7 49.1" fill="#1e9ac2" fill-rule="evenodd" stroke="none"/>
    <path d="M105.9 49.3 Q106.15 49.0 106.5 49.0 107.0 49.0 107.3 49.6 L107.7 50.5 107.75 51.05 107.7 51.65 107.3 52.5 107.3 52.7 105.9 49.3 M106.95 53.05 L106.5 53.1 Q105.95 53.1 105.5 52.5 105.25 51.9 105.25 51.05 105.25 50.25 105.5 49.7 L106.95 53.05" fill="#aaebff" fill-rule="evenodd" stroke="none"/>
    <path d="M107.3 52.7 L106.95 53.05 105.5 49.7 105.5 49.6 105.9 49.3 107.3 52.7" fill="#68c8e7" fill-rule="evenodd" stroke="none"/>
    <path d="M107.0 92.3 Q106.45 92.3 105.95 91.7 105.5 91.05 105.5 90.05 105.5 89.1 105.9 88.6 L105.95 88.45 106.25 88.1 Q106.6 87.8 107.0 87.8 107.55 87.8 107.95 88.45 108.35 89.05 108.35 90.05 108.35 91.05 107.95 91.7 L107.85 91.8 107.45 92.15 107.0 92.3" fill="#1e9ac2" fill-rule="evenodd" stroke="none"/>
    <path d="M106.1 88.0 Q106.45 87.7 106.7 87.7 107.15 87.7 107.55 88.3 L107.95 89.2 108.05 89.7 107.95 90.3 107.55 91.15 107.55 91.25 106.1 88.0 M107.15 91.7 L106.7 91.75 Q106.2 91.75 105.8 91.15 105.45 90.6 105.45 89.7 105.45 88.95 105.8 88.35 L107.15 91.7" fill="#aaebff" fill-rule="evenodd" stroke="none"/>
    <path d="M107.55 91.25 L107.15 91.7 105.8 88.35 105.8 88.3 106.1 88.0 107.55 91.25" fill="#68c8e7" fill-rule="evenodd" stroke="none"/>
    <path d="M110.65 73.2 Q110.1 73.2 109.7 72.6 109.3 71.95 109.3 71.0 109.3 70.0 109.6 69.45 L109.7 69.4 109.95 68.95 Q110.25 68.65 110.65 68.65 111.2 68.65 111.65 69.4 112.0 69.95 112.0 71.0 112.0 71.95 111.65 72.6 L111.6 72.75 111.15 73.1 110.65 73.2" fill="#1e9ac2" fill-rule="evenodd" stroke="none"/>
    <path d="M110.95 72.6 L110.35 72.65 Q109.9 72.65 109.5 72.05 109.15 71.55 109.15 70.65 109.15 69.8 109.5 69.25 L110.95 72.6 M109.85 68.85 Q110.1 68.55 110.35 68.55 110.95 68.55 111.3 69.15 L111.6 70.1 111.65 70.65 111.6 71.25 111.3 72.05 111.2 72.25 109.85 68.85" fill="#aaebff" fill-rule="evenodd" stroke="none"/>
    <path d="M109.5 69.25 L109.5 69.15 109.85 68.85 111.2 72.25 110.95 72.6 109.5 69.25" fill="#68c8e7" fill-rule="evenodd" stroke="none"/>
    <path d="M326.95 68.9 L327.35 68.55 Q327.65 68.25 328.0 68.25 328.55 68.25 329.0 68.9 329.4 69.55 329.4 70.55 329.4 71.55 329.0 72.2 L328.9 72.25 328.5 72.65 328.0 72.8 Q327.4 72.8 326.95 72.2 326.55 71.55 326.55 70.55 326.55 69.65 326.9 69.05 L326.95 68.9" fill="#1e9ac2" fill-rule="evenodd" stroke="none"/>
    <path d="M328.55 71.8 L328.2 72.2 326.8 68.8 326.85 68.75 327.2 68.45 328.55 71.8" fill="#68c8e7" fill-rule="evenodd" stroke="none"/>
    <path d="M327.2 68.45 L327.75 68.15 Q328.25 68.15 328.55 68.75 L329.0 69.7 329.05 70.2 329.0 70.8 328.55 71.65 328.55 71.8 327.2 68.45 M328.2 72.2 L327.75 72.25 Q327.25 72.25 326.85 71.65 326.5 71.1 326.5 70.2 326.5 69.4 326.8 68.8 L328.2 72.2" fill="#aaebff" fill-rule="evenodd" stroke="none"/>
    <path d="M333.1 51.25 Q333.55 51.85 333.55 52.9 333.55 53.85 333.1 54.5 L333.1 54.6 332.65 55.0 332.15 55.1 Q331.65 55.1 331.2 54.5 330.8 53.85 330.8 52.9 330.8 51.9 331.1 51.4 L331.2 51.25 331.4 50.9 Q331.85 50.55 332.15 50.55 332.7 50.55 333.1 51.25" fill="#1e9ac2" fill-rule="evenodd" stroke="none"/>
    <path d="M331.35 50.8 L331.9 50.45 Q332.45 50.45 332.8 51.05 L333.1 52.0 333.2 52.5 333.1 53.15 332.8 53.95 332.7 54.15 331.35 50.8 M332.45 54.5 L331.9 54.55 Q331.4 54.55 331.0 53.95 330.65 53.4 330.65 52.5 330.65 51.7 331.0 51.15 L332.45 54.5" fill="#aaebff" fill-rule="evenodd" stroke="none"/>
    <path d="M332.7 54.15 L332.45 54.5 331.0 51.15 331.0 51.05 Q331.2 50.9 331.35 50.8 L332.7 54.15" fill="#68c8e7" fill-rule="evenodd" stroke="none"/>
    <path d="M332.5 91.8 Q332.5 92.75 332.05 93.4 L331.95 93.55 331.5 93.9 331.05 94.0 Q330.5 94.0 330.05 93.4 329.65 92.75 329.65 91.8 329.65 90.85 330.05 90.3 L330.05 90.2 330.4 89.85 Q330.7 89.5 331.05 89.5 331.65 89.5 332.05 90.2 332.5 90.8 332.5 91.8" fill="#1e9ac2" fill-rule="evenodd" stroke="none"/>
    <path d="M331.3 93.4 L330.8 93.45 Q330.35 93.45 329.9 92.85 329.6 92.35 329.6 91.45 329.6 90.65 329.85 90.1 L331.3 93.4 M330.2 89.7 Q330.5 89.4 330.8 89.4 331.35 89.4 331.7 90.0 L332.0 90.9 332.05 91.45 332.0 92.05 331.7 92.85 331.65 93.0 330.2 89.7" fill="#aaebff" fill-rule="evenodd" stroke="none"/>
    <path d="M329.85 90.1 L329.9 90.0 330.2 89.7 331.65 93.0 331.3 93.4 329.85 90.1" fill="#68c8e7" fill-rule="evenodd" stroke="none"/>
  </g>
</svg>
