<?xml version="1.0" encoding="UTF-8" standalone="no"?>
<svg xmlns:xlink="http://www.w3.org/1999/xlink" height="35.6px" width="35.0px" xmlns="http://www.w3.org/2000/svg">
  <g transform="matrix(1.0, 0.0, 0.0, 1.0, -355.85, -63.8)">
    <path d="M360.7 73.3 L362.7 74.4 Q363.8 72.85 365.2 71.75 L365.35 71.7 363.95 69.95 364.45 68.8 Q366.7 67.1 369.65 66.3 L370.45 69.1 374.95 68.8 375.1 68.8 375.45 65.8 Q378.3 66.15 380.95 67.65 L381.0 69.35 380.25 70.65 Q381.95 71.75 383.05 73.3 L385.45 71.4 Q387.15 73.7 387.95 76.65 L387.9 76.65 388.3 77.85 385.85 78.5 385.85 78.55 Q386.35 80.3 386.4 81.95 L386.4 82.2 388.45 82.4 388.4 82.55 388.85 83.85 Q388.55 85.75 387.85 87.6 L387.5 88.45 386.85 89.6 384.65 88.35 384.65 88.45 384.5 88.6 Q383.5 90.3 382.2 91.6 L382.8 92.4 382.9 94.1 382.95 94.2 Q381.2 95.65 379.0 96.5 L378.3 96.75 377.5 97.0 377.45 97.0 376.8 94.6 376.75 94.6 371.8 95.05 371.8 95.45 371.45 97.4 Q368.55 97.05 365.75 95.55 L365.75 95.5 366.35 93.6 366.5 93.25 364.75 91.9 363.05 90.1 363.0 90.1 361.15 91.5 361.05 91.55 Q359.2 89.25 358.4 86.15 L358.35 86.1 358.4 86.05 359.25 84.55 360.5 84.25 360.35 83.35 Q360.2 82.05 360.35 80.7 L360.35 80.4 360.35 80.3 357.85 80.05 357.85 79.95 358.0 79.1 358.1 78.6 Q358.6 76.45 359.75 74.35 L359.8 74.25 359.85 74.25 360.6 73.4 360.7 73.3 M376.8 80.1 L376.75 79.95 Q376.25 79.4 375.5 79.0 374.7 78.55 373.85 78.45 L372.15 78.55 Q371.2 78.8 370.55 79.35 369.9 79.85 369.4 80.7 L369.25 81.1 369.35 81.8 Q369.5 82.45 369.8 82.95 L370.15 83.4 370.75 84.0 371.45 84.5 Q372.25 85.0 373.1 85.1 L374.8 84.9 375.1 84.9 376.4 84.15 377.5 82.85 377.8 82.45 377.6 81.65 376.8 80.1" fill="#b1c4cb" fill-rule="evenodd" stroke="none"/>
    <path d="M360.7 73.3 L362.7 74.4 Q363.8 72.85 365.2 71.75 L365.35 71.7 363.95 69.95 364.45 68.8 Q366.7 67.1 369.65 66.3 L370.45 69.1 374.95 68.8 375.1 68.8 375.45 65.8 Q378.3 66.15 380.95 67.65 L381.0 69.35 380.25 70.65 Q381.95 71.75 383.05 73.3 L385.45 71.4 Q387.15 73.7 387.95 76.65 L387.9 76.65 388.3 77.85 385.85 78.5 385.85 78.55 Q386.35 80.3 386.4 81.95 L386.4 82.2 388.45 82.4 388.4 82.55 388.85 83.85 Q388.55 85.75 387.85 87.6 L387.5 88.45 386.85 89.6 384.65 88.35 384.65 88.45 384.5 88.6 Q383.5 90.3 382.2 91.6 L382.8 92.4 382.9 94.1 382.95 94.2 Q381.2 95.65 379.0 96.5 L378.3 96.75 377.5 97.0 377.45 97.0 376.8 94.6 376.75 94.6 371.8 95.05 371.8 95.45 371.45 97.4 Q368.55 97.05 365.75 95.55 L365.75 95.5 366.35 93.6 366.5 93.25 364.75 91.9 363.05 90.1 363.0 90.1 361.15 91.5 361.05 91.55 Q359.2 89.25 358.4 86.15 L358.35 86.1 358.4 86.05 359.25 84.55 360.5 84.25 360.35 83.35 Q360.2 82.05 360.35 80.7 L360.35 80.4 360.35 80.3 357.85 80.05 357.85 79.95 358.0 79.1 358.1 78.6 Q358.6 76.45 359.75 74.35 L359.8 74.25 359.85 74.25 360.6 73.4 360.7 73.3 M376.8 80.1 L377.6 81.65 377.8 82.45 377.5 82.85 376.4 84.15 375.1 84.9 374.8 84.9 373.1 85.1 Q372.25 85.0 371.45 84.5 L370.75 84.0 370.15 83.4 369.8 82.95 Q369.5 82.45 369.35 81.8 L369.25 81.1 369.4 80.7 Q369.9 79.85 370.55 79.35 371.2 78.8 372.15 78.55 L373.85 78.45 Q374.7 78.55 375.5 79.0 376.25 79.4 376.75 79.95 L376.8 80.1" fill="none" stroke="#005c8e" stroke-linecap="round" stroke-linejoin="round" stroke-width="4.0"/>
    <path d="M360.65 73.4 L360.7 73.35 362.7 74.45 363.3 74.75 363.6 74.3 Q364.4 72.9 365.5 71.9 L365.9 71.7 366.35 71.25 366.35 71.2 364.5 68.8 Q366.75 67.1 369.7 66.3 L370.5 69.15 374.95 68.8 375.1 68.8 375.45 65.8 Q378.3 66.2 381.0 67.7 L380.95 67.75 379.55 70.3 379.9 70.5 380.25 70.7 Q381.95 71.8 383.05 73.35 L385.45 71.45 Q387.15 73.7 387.95 76.7 L385.1 77.45 385.1 77.5 385.15 77.7 Q382.35 77.6 379.75 78.65 L378.45 79.15 377.75 77.95 Q377.1 77.1 376.1 76.55 375.2 76.0 374.25 75.9 L372.2 76.05 Q371.1 76.35 370.3 76.95 369.5 77.55 368.95 78.55 368.5 79.5 368.4 80.5 368.25 81.05 368.35 81.65 L368.5 82.5 368.75 83.2 Q365.7 84.05 362.95 82.4 L362.5 82.1 361.8 81.55 361.8 81.5 361.75 79.75 361.8 79.15 358.85 78.8 358.8 78.8 358.85 78.75 359.0 77.9 Q359.35 76.2 360.15 74.45 L360.65 73.4" fill="#bbd4de" fill-rule="evenodd" stroke="none"/>
    <path d="M360.65 73.4 L360.15 74.45 Q359.35 76.2 359.0 77.9 L358.85 78.75 358.8 78.8 358.85 78.8 357.85 80.0 358.0 79.1 358.15 78.6 Q358.6 76.5 359.75 74.4 L359.85 74.3 360.65 73.4 M361.8 79.15 L361.75 79.75 361.8 81.5 361.8 81.55 362.15 83.8 360.5 84.3 360.35 83.35 Q360.2 82.1 360.4 80.75 L360.35 80.45 360.4 80.35 360.35 80.35 361.8 79.15 M385.15 77.7 L385.1 77.5 385.85 78.55 385.85 78.6 Q386.35 80.3 386.4 82.0 L386.4 82.2 385.5 82.05 385.6 80.85 385.5 79.25 385.45 78.65 385.4 78.5 385.15 77.7 M380.25 70.7 L379.9 70.5 379.55 70.3 380.95 67.75 381.0 69.4 380.25 70.7 M366.35 71.25 L365.9 71.7 365.5 71.9 Q364.4 72.9 363.6 74.3 L363.3 74.75 362.7 74.45 Q363.85 72.9 365.25 71.8 L365.35 71.7 366.35 71.25 M361.15 91.55 L361.1 91.6 Q359.2 89.3 358.4 86.2 L358.4 86.1 359.25 84.6 359.6 85.8 360.9 88.5 361.85 89.85 361.15 91.55 M364.2 87.95 L364.95 88.9 367.75 91.0 366.55 93.25 364.8 91.95 363.05 90.1 364.2 87.95 M371.85 95.1 L372.2 92.5 376.8 92.15 376.8 92.2 376.8 94.65 376.75 94.65 371.85 95.1 M377.6 95.0 Q379.75 94.4 381.6 93.35 L382.0 93.05 382.8 92.45 382.9 94.15 382.95 94.25 Q381.2 95.65 379.0 96.5 L378.3 96.75 377.5 97.0 377.6 95.0 M382.25 91.65 L381.0 90.1 Q382.85 88.65 384.0 86.55 L384.65 88.45 384.55 88.65 382.25 91.65 M386.55 87.95 L386.6 88.0 387.9 85.05 388.25 83.75 388.4 82.5 388.45 82.55 388.45 82.6 388.85 83.85 Q388.55 85.8 387.85 87.6 L387.5 88.5 386.85 89.65 386.55 87.95" fill="#6f8891" fill-rule="evenodd" stroke="none"/>
    <path d="M358.85 78.8 L361.8 79.15 360.35 80.35 357.85 80.1 357.85 80.0 358.85 78.8 M385.1 77.5 L385.1 77.45 387.95 76.7 388.3 77.85 385.85 78.55 385.1 77.5 M364.5 68.8 L366.35 71.2 366.35 71.25 365.35 71.7 363.95 69.95 364.5 68.8 M363.05 90.1 L363.0 90.1 361.15 91.55 361.85 89.85 364.2 87.95 363.05 90.1 M366.35 93.6 L366.65 93.8 Q369.15 95.15 371.8 95.45 L371.8 95.5 371.5 97.45 Q368.55 97.1 365.75 95.55 L365.85 95.35 366.35 93.6 M376.8 92.2 L377.6 95.0 377.5 97.0 376.8 94.65 376.8 92.2 M384.0 86.55 L384.0 86.5 386.55 87.95 386.85 89.65 384.65 88.35 384.65 88.45 384.0 86.55" fill="#516870" fill-rule="evenodd" stroke="none"/>
    <path d="M361.8 81.55 L362.5 82.1 362.95 82.4 Q365.7 84.05 368.75 83.2 L369.45 84.35 370.15 85.1 370.95 85.75 Q371.9 86.3 372.9 86.4 L375.0 86.2 375.25 86.1 376.85 85.25 Q377.65 84.7 378.05 83.75 L378.45 83.25 378.8 81.8 378.55 79.7 378.45 79.15 379.75 78.65 Q382.35 77.6 385.15 77.7 L385.4 78.5 385.45 78.65 385.5 79.25 385.6 80.85 385.5 82.05 386.4 82.2 388.45 82.45 388.45 82.55 388.4 82.5 388.25 83.75 387.9 85.05 386.6 88.0 386.55 87.95 384.0 86.5 384.0 86.55 Q382.85 88.65 381.0 90.1 L382.25 91.65 382.85 92.4 382.8 92.45 382.0 93.05 381.6 93.35 Q379.75 94.4 377.6 95.0 L376.8 92.2 376.8 92.15 372.2 92.5 371.85 95.1 371.8 95.45 Q369.15 95.15 366.65 93.8 L366.35 93.6 366.55 93.25 367.75 91.0 364.95 88.9 364.2 87.95 361.85 89.85 360.9 88.5 359.6 85.8 359.25 84.6 360.5 84.3 362.15 83.8 361.8 81.55" fill="#b1c4cb" fill-rule="evenodd" stroke="none"/>
    <path d="M368.75 83.2 L368.5 82.5 368.35 81.65 Q368.25 81.05 368.4 80.5 368.5 79.5 368.95 78.55 369.5 77.55 370.3 76.95 371.1 76.35 372.2 76.05 L374.25 75.9 Q375.2 76.0 376.1 76.55 377.1 77.1 377.75 77.95 L378.45 79.15 378.55 79.7 378.8 81.8 378.45 83.25 378.05 83.75 Q377.65 84.7 376.85 85.25 L375.25 86.1 375.0 86.2 372.9 86.4 Q371.9 86.3 370.95 85.75 L370.15 85.1 369.45 84.35 368.75 83.2 M377.8 82.45 L378.1 81.2 Q378.2 80.35 377.95 79.45 L377.95 79.4 377.25 77.9 375.8 76.8 Q375.1 76.3 374.25 76.25 L372.45 76.3 Q371.6 76.55 370.95 77.15 370.2 77.6 369.75 78.45 369.35 79.25 369.25 80.15 L369.3 81.1 369.35 81.85 369.85 82.95 370.15 83.4 370.75 84.05 371.45 84.55 Q372.25 85.05 373.1 85.15 L374.85 84.95 375.1 84.9 376.45 84.2 377.5 82.9 377.8 82.45" fill="#d5eef7" fill-rule="evenodd" stroke="none"/>
    <path d="M377.8 82.45 L377.6 81.7 376.8 80.1 376.75 80.0 375.55 79.05 Q374.7 78.6 373.9 78.5 L372.15 78.6 Q371.2 78.85 370.55 79.35 369.9 79.9 369.45 80.75 L369.3 81.1 369.25 80.15 Q369.35 79.25 369.75 78.45 370.2 77.6 370.95 77.15 371.6 76.55 372.45 76.3 L374.25 76.25 Q375.1 76.3 375.8 76.8 L377.25 77.9 377.95 79.4 377.95 79.45 Q378.2 80.35 378.1 81.2 L377.8 82.45" fill="#83979f" fill-rule="evenodd" stroke="none"/>
  </g>
</svg>
