<?xml version="1.0" encoding="UTF-8" standalone="no"?>
<svg xmlns:xlink="http://www.w3.org/1999/xlink" height="18.85px" width="10.5px" xmlns="http://www.w3.org/2000/svg">
  <g transform="matrix(1.0, 0.0, 0.0, 1.0, 3.7, 10.95)">
    <path d="M5.8 0.3 L6.5 0.6 Q6.9 2.8 6.5 5.0 L5.7 7.05 4.85 7.8 4.65 7.8 4.45 7.7 4.35 7.65 4.05 7.35 Q3.5 6.85 3.1 5.25 2.7 3.55 3.05 0.6 L3.4 0.45 4.05 0.25 5.25 0.2 5.8 0.3" fill="#000000" fill-rule="evenodd" stroke="none"/>
    <path d="M5.8 0.3 L6.5 0.6 Q6.9 2.8 6.5 5.0 L5.7 7.05 4.85 7.8 4.65 7.8 4.45 7.7 4.35 7.65 4.05 7.35 Q3.5 6.85 3.1 5.25 2.7 3.55 3.05 0.6 L3.4 0.45 4.05 0.25 5.25 0.2 5.8 0.3 Z" fill="none" stroke="#773c00" stroke-linecap="round" stroke-linejoin="round" stroke-width="0.2"/>
    <path d="M4.65 7.85 L4.4 7.7 Q3.3 4.25 4.0 0.3 L5.2 0.2 Q5.85 4.2 4.65 7.85" fill="#bd8839" fill-rule="evenodd" stroke="none"/>
    <path d="M4.8 7.85 L4.65 7.85 Q5.85 4.2 5.2 0.2 L5.75 0.35 Q6.5 4.55 4.8 7.85" fill="#dbb935" fill-rule="evenodd" stroke="none"/>
    <path d="M5.75 0.35 L6.5 0.65 Q6.85 2.8 6.5 5.0 L5.65 7.05 4.85 7.85 4.8 7.85 Q6.5 4.55 5.75 0.35" fill="#fade9e" fill-rule="evenodd" stroke="none"/>
    <path d="M4.4 7.7 L4.35 7.65 Q2.45 4.1 3.35 0.45 L4.0 0.3 Q3.3 4.25 4.4 7.7" fill="#c8a048" fill-rule="evenodd" stroke="none"/>
    <path d="M4.35 7.65 L4.0 7.35 Q3.5 6.9 3.05 5.25 2.65 3.6 3.0 0.65 L3.35 0.45 Q2.45 4.1 4.35 7.65" fill="#bf7a15" fill-rule="evenodd" stroke="none"/>
    <path d="M6.35 -0.1 L6.0 -0.1 6.0 -5.85 6.35 -5.85 6.35 -0.1" fill="#f73100" fill-rule="evenodd" stroke="none"/>
    <path d="M5.2 -0.25 L4.85 -0.25 4.85 -9.4 5.2 -9.4 5.2 -0.25" fill="#ffb300" fill-rule="evenodd" stroke="none"/>
    <path d="M3.6 -0.25 L3.25 -0.25 3.25 -3.7 3.6 -3.7 3.6 -0.25" fill="#ffb366" fill-rule="evenodd" stroke="none"/>
    <path d="M4.5 -1.15 L4.15 -1.15 4.15 -6.9 4.5 -6.9 4.5 -1.15" fill="#ff8b6f" fill-rule="evenodd" stroke="none"/>
    <path d="M-0.7 -1.25 L0.0 -0.95 Q0.4 1.25 0.0 3.45 -0.35 4.75 -0.8 5.5 L-1.65 6.25 -1.85 6.25 -2.05 6.15 -2.15 6.1 -2.45 5.8 Q-3.0 5.3 -3.4 3.7 -3.8 2.0 -3.45 -0.95 -3.3 -1.0 -3.1 -1.1 L-2.45 -1.3 -1.25 -1.35 -0.7 -1.25" fill="#000000" fill-rule="evenodd" stroke="none"/>
    <path d="M-0.7 -1.25 L0.0 -0.95 Q0.4 1.25 0.0 3.45 -0.35 4.75 -0.8 5.5 L-1.65 6.25 -1.85 6.25 -2.05 6.15 -2.15 6.1 -2.45 5.8 Q-3.0 5.3 -3.4 3.7 -3.8 2.0 -3.45 -0.95 -3.3 -1.0 -3.1 -1.1 L-2.45 -1.3 -1.25 -1.35 -0.7 -1.25 Z" fill="none" stroke="#773c00" stroke-linecap="round" stroke-linejoin="round" stroke-width="0.2"/>
    <path d="M-1.85 6.25 L-2.1 6.1 Q-3.2 2.65 -2.5 -1.3 L-1.3 -1.4 Q-0.65 2.6 -1.85 6.25" fill="#bd8839" fill-rule="evenodd" stroke="none"/>
    <path d="M-1.7 6.25 L-1.85 6.25 Q-0.65 2.6 -1.3 -1.4 L-0.75 -1.25 Q0.0 2.95 -1.7 6.25" fill="#dbb935" fill-rule="evenodd" stroke="none"/>
    <path d="M-0.75 -1.25 L0.0 -0.95 Q0.35 1.2 0.0 3.4 L-0.85 5.45 -1.65 6.25 -1.7 6.25 Q0.0 2.95 -0.75 -1.25" fill="#fade9e" fill-rule="evenodd" stroke="none"/>
    <path d="M-2.1 6.1 L-2.15 6.05 Q-4.05 2.5 -3.15 -1.15 L-2.5 -1.3 Q-3.2 2.65 -2.1 6.1" fill="#c8a048" fill-rule="evenodd" stroke="none"/>
    <path d="M-2.15 6.05 L-2.5 5.75 Q-3.0 5.3 -3.45 3.65 -3.85 2.0 -3.5 -0.95 L-3.15 -1.15 Q-4.05 2.5 -2.15 6.05" fill="#bf7a15" fill-rule="evenodd" stroke="none"/>
    <path d="M-0.4 -1.7 L-0.75 -1.7 -0.75 -7.45 -0.4 -7.45 -0.4 -1.7" fill="#f73100" fill-rule="evenodd" stroke="none"/>
    <path d="M-1.3 -1.8 L-1.65 -1.8 -1.65 -10.95 -1.3 -10.95 -1.3 -1.8" fill="#ffb300" fill-rule="evenodd" stroke="none"/>
    <path d="M-2.9 -1.8 L-3.25 -1.8 -3.25 -5.25 -2.9 -5.25 -2.9 -1.8" fill="#ffb366" fill-rule="evenodd" stroke="none"/>
    <path d="M-2.0 -2.7 L-2.35 -2.7 -2.35 -8.45 -2.0 -8.45 -2.0 -2.7" fill="#ff8b6f" fill-rule="evenodd" stroke="none"/>
  </g>
</svg>
