<?xml version="1.0" encoding="UTF-8" standalone="no"?>
<svg xmlns:xlink="http://www.w3.org/1999/xlink" height="174.3px" width="132.1px" xmlns="http://www.w3.org/2000/svg">
  <g transform="matrix(1.0, 0.0, 0.0, 1.0, 2.0, 2.0)">
    <path d="M24.05 -0.05 L103.25 -0.05 Q113.35 -0.05 120.5 7.1 127.65 14.25 127.65 24.35 L127.65 145.35 Q127.65 155.5 120.5 162.6 113.35 169.8 103.25 169.9 L24.05 170.25 Q13.9 170.3 6.7 163.15 -0.45 156.05 -0.45 145.9 L-0.45 24.45 Q-0.45 14.3 6.7 7.1 13.9 -0.05 24.05 -0.05" fill="#cff3e8" fill-rule="evenodd" stroke="none"/>
    <path d="M103.7 0.0 L24.5 0.0 Q14.35 0.0 7.15 7.15 0.0 14.35 0.0 24.5 L0.0 145.95 Q0.0 156.1 7.15 163.2 14.35 170.35 24.5 170.3 L103.7 169.95 Q113.8 169.85 120.95 162.65 128.1 155.55 128.1 145.4 L128.1 24.4 Q128.1 14.3 120.95 7.15 113.8 0.0 103.7 0.0 Z" fill="none" stroke="#a3e9d4" stroke-linecap="round" stroke-linejoin="round" stroke-width="4.0"/>
  </g>
</svg>
