<?xml version="1.0" encoding="UTF-8" standalone="no"?>
<svg xmlns:xlink="http://www.w3.org/1999/xlink" height="20.9px" width="27.9px" xmlns="http://www.w3.org/2000/svg">
  <g transform="matrix(1.0, 0.0, 0.0, 1.0, -0.95, -5.75)">
    <path d="M5.45 14.2 Q9.3 11.9 14.85 11.7 20.4 11.55 24.35 13.65 28.35 15.7 28.45 18.75 28.55 21.9 24.65 24.25 20.85 26.5 15.3 26.65 9.75 26.85 5.75 24.8 1.75 22.7 1.65 19.55 1.55 16.5 5.45 14.2" fill="#2c5926" fill-rule="evenodd" stroke="none"/>
    <path d="M28.0 11.4 Q29.9 17.05 27.65 21.3 L2.4 21.9 Q-0.05 16.85 1.6 12.45 L28.0 11.4" fill="#2c5926" fill-rule="evenodd" stroke="none"/>
    <path d="M5.3 8.25 Q9.15 5.9 14.7 5.75 20.25 5.55 24.2 7.7 28.25 9.9 28.35 13.1 28.45 16.3 24.55 18.65 20.7 21.05 15.15 21.25 9.6 21.4 5.65 19.2 1.65 17.1 1.55 13.9 1.45 10.7 5.3 8.25" fill="#b1dbac" fill-rule="evenodd" stroke="none"/>
    <path d="M7.1 8.8 Q10.35 6.9 14.9 6.75 19.5 6.6 22.8 8.3 26.1 10.05 26.15 12.6 26.25 15.15 23.05 17.1 19.85 19.0 15.25 19.15 10.7 19.3 7.35 17.6 4.1 15.85 4.0 13.3 3.95 10.75 7.1 8.8" fill="#4d4400" fill-rule="evenodd" stroke="none"/>
    <path d="M6.05 8.4 Q9.65 6.25 14.75 6.1 19.9 5.95 23.55 7.9 27.3 9.85 27.4 12.75 27.45 15.7 23.9 17.95 20.35 20.1 15.2 20.25 10.1 20.4 6.4 18.45 2.75 16.45 2.7 13.5 2.6 10.6 6.05 8.4" fill="#4fa045" fill-rule="evenodd" stroke="none"/>
    <path d="M7.35 8.9 Q10.5 7.05 14.95 6.9 19.4 6.75 22.6 8.4 25.8 10.05 25.95 12.6 25.95 15.05 22.9 16.95 19.8 18.85 15.35 18.95 10.9 19.1 7.6 17.45 4.45 15.75 4.4 13.3 4.3 10.75 7.35 8.9" fill="#fef189" fill-rule="evenodd" stroke="none"/>
    <path d="M15.1 6.75 L15.5 19.05 15.0 19.05 14.6 6.75 15.1 6.75" fill="#4d4400" fill-rule="evenodd" stroke="none"/>
    <path d="M4.2 12.45 L26.0 11.8 26.0 12.35 4.2 13.0 4.2 12.45" fill="#4d4400" fill-rule="evenodd" stroke="none"/>
    <path d="M11.45 14.05 Q9.9 13.35 9.9 12.2 9.85 11.1 11.3 10.3 12.8 9.45 14.9 9.4 17.0 9.35 18.45 10.1 20.0 10.8 20.05 11.9 20.05 13.05 18.6 13.85 17.15 14.7 15.05 14.75 12.95 14.8 11.45 14.05" fill="#aa6600" fill-rule="evenodd" stroke="none"/>
    <path d="M11.7 13.3 Q10.3 12.45 10.25 11.15 10.25 9.9 11.55 8.95 12.9 8.0 14.8 7.95 16.7 7.9 18.05 8.75 19.5 9.6 19.5 10.85 19.55 12.15 18.2 13.1 16.85 14.05 14.95 14.1 13.05 14.15 11.7 13.3" fill="#fea681" fill-rule="evenodd" stroke="none"/>
    <path d="M13.2 11.65 Q12.3 11.05 12.25 10.2 12.25 9.3 13.1 8.7 13.95 8.0 15.15 7.95 16.4 7.95 17.25 8.55 18.2 9.1 18.2 10.0 18.25 10.85 17.35 11.5 16.55 12.2 15.3 12.2 14.1 12.25 13.2 11.65" fill="#febbab" fill-rule="evenodd" stroke="none"/>
    <path d="M14.6 10.15 Q14.2 9.85 14.2 9.35 14.2 8.85 14.6 8.55 14.95 8.2 15.55 8.2 16.15 8.15 16.6 8.5 17.05 8.8 17.05 9.3 17.05 9.8 16.6 10.1 L15.65 10.5 Q15.05 10.5 14.6 10.15" fill="#ffe6d5" fill-rule="evenodd" stroke="none"/>
  </g>
</svg>
