<?xml version="1.0" encoding="UTF-8" standalone="no"?>
<svg xmlns:xlink="http://www.w3.org/1999/xlink" height="10.7px" width="22.05px" xmlns="http://www.w3.org/2000/svg">
  <g transform="matrix(1.0, 0.0, 0.0, 1.0, 3.0, 3.0)">
    <path d="M16.05 1.9 L16.05 1.55 Q14.05 0.55 11.45 0.15 8.9 -0.2 8.9 0.4 L10.55 0.4 9.4 0.7 Q8.9 0.9 8.9 0.4 L6.15 0.4 10.25 1.2 Q13.55 2.1 13.55 2.95 13.55 3.8 13.2 3.65 L7.95 4.2 3.25 4.7 Q2.5 4.7 1.4 4.05 0.35 3.35 0.0 2.6 L0.35 2.25 1.95 1.9 3.4 1.55 6.7 2.25 11.05 2.95" fill="none" stroke="#3ebbeb" stroke-linecap="round" stroke-linejoin="round" stroke-width="6.0"/>
  </g>
</svg>
