<?xml version="1.0" encoding="UTF-8" standalone="no"?>
<svg xmlns:xlink="http://www.w3.org/1999/xlink" height="13.5px" width="14.45px" xmlns="http://www.w3.org/2000/svg">
  <g transform="matrix(1.0, 0.0, 0.0, 1.0, -0.75, -1.5)">
    <path d="M1.2 5.55 L1.25 5.55 1.35 5.35 1.35 5.25 1.5 4.65 1.5 4.55 1.65 4.2 1.6 4.05 Q1.35 3.15 2.05 2.45 L2.85 1.85 2.85 1.9 2.95 1.9 Q4.2 1.3 6.0 1.55 L6.05 1.6 Q7.85 1.9 9.0 2.9 9.8 3.65 9.75 4.55 L9.7 4.65 9.5 5.5 9.5 5.7 9.35 7.2 9.35 7.25 9.3 7.35 9.3 7.5 9.25 7.5 9.25 7.55 12.9 8.35 13.95 8.6 14.7 9.0 Q15.3 9.6 15.2 10.5 L15.15 10.85 14.75 11.7 14.7 11.7 Q14.15 12.3 13.3 12.1 L12.9 12.05 8.55 11.1 8.5 11.15 8.5 11.25 8.5 11.3 8.5 11.35 8.5 11.45 8.35 12.2 8.1 12.95 8.15 13.05 7.95 13.35 7.9 13.35 7.85 13.45 7.8 13.55 7.35 14.2 6.55 14.7 6.3 14.85 6.15 14.9 5.7 14.95 5.5 14.95 4.6 15.0 4.55 15.0 3.9 14.95 2.8 14.55 2.25 14.3 2.2 14.3 1.55 13.75 Q0.9 13.15 0.85 12.5 L0.85 12.4 0.8 12.4 0.8 11.85 0.75 11.25 0.75 11.15 0.95 10.25 0.9 10.2 0.95 10.15 1.0 9.6 1.05 9.55 1.1 9.4 1.2 9.35 1.2 9.3 1.45 7.85 1.5 7.75 1.55 7.2 1.3 6.8 1.25 6.75 1.3 6.7 1.25 5.75 1.2 5.7 1.2 5.55 M2.9 3.7 L3.0 4.1 3.0 4.15 3.0 4.45 2.9 4.8 2.7 5.55 2.65 5.65 2.6 5.9 2.6 6.3 2.75 6.55 2.9 7.0 2.8 8.55 2.85 8.6 2.7 8.8 2.7 9.15 2.65 9.25 2.4 10.5 2.2 10.9 2.15 11.2 2.1 11.25 2.1 11.3 2.1 11.35 2.15 11.65 2.15 11.7 2.15 12.0 2.2 12.15 2.15 12.2 2.2 12.25 2.5 12.75 3.0 13.15 3.3 13.35 4.3 13.6 4.35 13.65 4.65 13.6 5.35 13.6 5.7 13.55 5.75 13.55 5.8 13.55 5.85 13.5 6.35 13.25 6.6 12.85 6.65 12.85 6.65 12.8 6.75 12.6 6.75 12.55 6.8 12.5 6.9 12.35 7.1 11.45 7.05 11.15 7.05 11.1 7.1 10.15 Q7.1 9.85 7.4 9.7 7.6 9.45 7.9 9.6 L13.15 10.7 13.45 10.75 13.5 10.8 13.55 10.75 13.75 10.7 13.75 10.6 13.9 10.2 13.8 10.05 13.65 9.9 12.6 9.7 8.1 8.7 7.65 8.4 Q7.45 8.2 7.55 7.95 L7.55 7.9 7.6 7.55 7.85 7.25 7.95 7.1 7.95 6.95 8.0 6.8 8.1 6.0 8.05 5.55 8.4 4.4 8.05 3.9 Q7.3 3.15 5.8 2.9 L3.35 3.15 3.3 3.2 3.05 3.45 Q2.85 3.6 2.9 3.7" fill="#453129" fill-rule="evenodd" stroke="none"/>
    <path d="M7.55 7.95 L13.75 9.3 Q14.15 9.4 14.35 9.7 L14.45 10.4 14.4 10.8 14.0 11.35 13.4 11.5 7.3 10.2 6.85 9.95 6.55 9.4 6.55 8.65 Q6.6 8.35 6.9 8.1 L7.55 7.95" fill="#9e6720" fill-rule="evenodd" stroke="none"/>
    <path d="M6.6 8.8 L6.75 9.25 7.65 9.95 12.85 10.95 13.05 11.25 Q13.35 11.55 13.65 11.45 L12.95 11.45 7.3 10.2 6.85 9.95 Q6.45 9.6 6.6 8.8" fill="#aa8052" fill-rule="evenodd" stroke="none"/>
    <path d="M7.4 7.95 Q13.65 9.15 14.05 9.5 13.6 9.25 13.1 9.5 L6.8 8.2 6.95 8.1 7.4 7.95" fill="#7f4f08" fill-rule="evenodd" stroke="none"/>
    <path d="M2.1 8.0 Q2.1 10.7 2.25 11.85 2.45 12.55 3.25 13.2 L4.1 13.7 Q2.25 13.05 1.95 12.0 1.65 10.85 2.1 8.0" fill="#ffffff" fill-rule="evenodd" stroke="none"/>
    <path d="M2.25 5.3 Q2.25 3.45 2.45 3.15 L8.65 4.9 8.4 6.85 7.8 9.9 7.45 11.85 7.25 13.0 7.2 13.2 6.1 14.15 4.2 14.35 Q3.1 14.15 2.3 13.6 1.55 13.1 1.5 12.4 1.4 12.1 1.65 10.65 L2.05 8.65 2.25 5.3" fill="#ceb27a" fill-rule="evenodd" stroke="none"/>
    <path d="M3.65 4.8 L5.45 5.45 4.55 14.35 3.2 14.05 2.6 13.8 3.3 9.65 3.65 4.8" fill="#aa8052" fill-rule="evenodd" stroke="none"/>
    <path d="M5.4 5.15 L7.35 5.25 6.05 14.25 4.75 14.35 4.1 14.35 4.85 10.3 5.4 5.15" fill="#9e6720" fill-rule="evenodd" stroke="none"/>
    <path d="M7.15 5.4 L9.0 4.55 7.75 9.9 7.65 11.5 7.45 12.65 6.7 13.9 5.75 14.4 7.15 5.4" fill="#7f4f08" fill-rule="evenodd" stroke="none"/>
    <path d="M5.7 7.15 Q6.6 7.25 7.75 6.55 L8.75 5.8 8.55 7.4 Q8.15 8.05 7.15 8.35 L5.0 8.45 Q3.85 8.35 3.0 7.75 2.2 7.25 1.9 6.55 L1.9 5.8 2.0 5.25 Q1.85 6.25 3.1 6.7 L5.7 7.15" fill="#7f4f08" fill-rule="evenodd" stroke="none"/>
    <path d="M1.6 11.1 Q1.5 11.95 2.6 12.25 L5.05 12.65 Q5.9 12.75 6.9 12.1 L7.7 11.4 7.35 12.95 Q6.45 14.25 4.25 14.0 2.05 13.55 1.4 12.2 L1.45 11.45 1.6 11.1" fill="#7f4f08" fill-rule="evenodd" stroke="none"/>
    <path d="M6.6 6.95 Q7.6 6.85 8.75 5.7 L8.65 7.1 Q8.2 7.75 7.25 8.05 L5.05 8.2 Q3.9 8.05 3.05 7.5 2.3 6.95 2.0 6.3 1.9 6.1 1.95 5.55 L2.1 5.0 2.75 5.75 Q3.6 6.6 4.6 6.75 L6.6 6.95" fill="#bcbcbc" fill-rule="evenodd" stroke="none"/>
    <path d="M3.45 2.4 L5.9 2.25 Q7.3 2.5 8.2 3.1 9.1 3.8 9.0 4.55 8.85 5.3 7.8 5.65 L5.35 5.85 Q3.95 5.55 3.05 4.9 2.15 4.25 2.25 3.5 2.4 2.8 3.45 2.4" fill="#ba9552" fill-rule="evenodd" stroke="none"/>
    <path d="M1.5 12.0 L1.4 11.25 Q1.4 10.6 1.7 10.2 L1.6 10.55 1.6 10.8 Q2.2 12.2 4.3 12.5 L6.35 12.15 7.75 11.1 7.45 12.7 Q7.0 13.35 6.15 13.6 L4.2 13.7 Q2.1 13.4 1.5 12.0" fill="#bcbcbc" fill-rule="evenodd" stroke="none"/>
    <path d="M1.6 10.8 L1.55 10.25 1.6 10.05 Q1.55 10.7 2.4 11.3 3.25 12.0 4.45 12.2 L6.5 11.95 Q7.35 11.65 7.75 11.1 L7.7 11.45 6.35 12.4 4.3 12.5 Q2.2 12.2 1.6 10.8" fill="#e2e2e2" fill-rule="evenodd" stroke="none"/>
    <path d="M8.75 5.7 L8.75 6.0 Q8.35 6.6 7.25 6.85 L5.15 6.95 3.2 6.25 Q2.35 5.75 2.1 5.1 L2.2 4.7 2.25 4.5 2.35 4.4 Q2.25 5.1 3.2 5.75 4.1 6.45 5.3 6.6 L7.4 6.45 Q8.35 6.2 8.75 5.7" fill="#e2e2e2" fill-rule="evenodd" stroke="none"/>
    <path d="M2.1 5.0 Q2.25 5.8 3.4 6.4 L3.25 7.6 2.1 6.5 Q1.7 5.9 2.1 5.0" fill="#ffffff" fill-rule="evenodd" stroke="none"/>
    <path d="M1.55 10.65 Q1.65 11.45 2.55 11.9 L2.45 13.15 1.95 12.8 1.55 12.2 Q1.3 11.8 1.4 11.2 L1.55 10.65" fill="#ffffff" fill-rule="evenodd" stroke="none"/>
    <path d="M3.05 2.55 Q2.3 3.2 2.55 4.0 2.7 4.55 3.75 5.15 L4.7 5.7 3.4 5.2 Q2.4 4.7 2.2 3.95 2.1 3.4 2.55 2.95 L3.05 2.55" fill="#ffe8c0" fill-rule="evenodd" stroke="none"/>
    <path d="M8.75 5.95 L8.55 7.1 8.0 7.75 Q7.3 8.2 6.1 8.25 L6.4 6.95 7.3 6.85 Q8.3 6.65 8.75 5.95" fill="#6d6d6d" fill-rule="evenodd" stroke="none"/>
    <path d="M8.55 6.2 L8.75 5.8 8.6 7.25 8.3 7.55 7.95 7.85 7.55 7.95 7.75 6.65 8.55 6.2" fill="#474747" fill-rule="evenodd" stroke="none"/>
    <path d="M2.3 11.85 L2.2 12.3 1.8 12.4 1.55 12.2 1.6 11.75 1.95 11.65 2.3 11.85" fill="#000000" fill-rule="evenodd" stroke="none"/>
    <path d="M7.75 11.2 L7.45 12.6 Q6.8 13.75 5.1 13.75 L5.3 12.55 6.25 12.4 Q7.3 12.05 7.75 11.2" fill="#6d6d6d" fill-rule="evenodd" stroke="none"/>
    <path d="M6.8 13.4 L6.55 13.45 6.8 12.25 7.2 12.0 7.55 11.65 7.75 11.2 7.4 12.85 6.8 13.4" fill="#474747" fill-rule="evenodd" stroke="none"/>
    <path d="M4.65 13.25 L4.5 13.6 4.0 13.6 3.8 13.2 4.0 12.85 4.45 12.85 4.65 13.25" fill="#000000" fill-rule="evenodd" stroke="none"/>
    <path d="M6.95 12.75 L6.9 13.1 6.55 13.2 6.3 12.95 6.35 12.6 6.7 12.55 6.95 12.75" fill="#3d3d3d" fill-rule="evenodd" stroke="none"/>
    <path d="M5.95 13.65 L6.2 12.45 6.45 12.35 6.25 13.6 5.95 13.65" fill="#474747" fill-rule="evenodd" stroke="none"/>
    <path d="M7.1 12.75 L7.1 13.1 6.75 13.25 6.4 13.0 6.45 12.6 6.8 12.5 7.1 12.75" fill="#000000" fill-rule="evenodd" stroke="none"/>
    <path d="M3.35 7.7 L3.6 6.45 3.95 6.6 3.75 7.85 3.35 7.7" fill="#ffffff" fill-rule="evenodd" stroke="none"/>
    <path d="M2.6 13.2 L2.75 12.0 3.1 12.15 2.9 13.35 2.6 13.2" fill="#ffffff" fill-rule="evenodd" stroke="none"/>
    <path d="M4.0 7.95 L4.2 6.7 4.5 6.8 4.3 8.05 4.0 7.95" fill="#ffffff" fill-rule="evenodd" stroke="none"/>
    <path d="M3.2 13.45 L3.35 12.3 3.65 12.4 3.45 13.55 3.2 13.45" fill="#ffffff" fill-rule="evenodd" stroke="none"/>
    <path d="M5.6 8.3 L5.8 7.0 6.1 7.05 5.9 8.3 5.6 8.3" fill="#6d6d6d" fill-rule="evenodd" stroke="none"/>
    <path d="M4.6 13.75 L4.85 12.6 5.1 12.55 4.9 13.8 4.6 13.75" fill="#6d6d6d" fill-rule="evenodd" stroke="none"/>
    <path d="M7.0 8.15 L7.25 6.8 7.55 6.7 7.3 8.1 7.0 8.15" fill="#474747" fill-rule="evenodd" stroke="none"/>
    <path d="M2.8 6.05 L2.7 6.5 2.35 6.6 2.05 6.35 2.1 6.0 2.45 5.85 2.8 6.05" fill="#000000" fill-rule="evenodd" stroke="none"/>
    <path d="M5.4 7.65 L5.25 8.05 4.8 8.0 4.6 7.65 4.8 7.25 5.25 7.3 5.4 7.65" fill="#000000" fill-rule="evenodd" stroke="none"/>
    <path d="M7.95 7.15 L7.95 7.5 7.6 7.65 7.3 7.4 7.35 7.0 7.7 6.9 7.95 7.15" fill="#000000" fill-rule="evenodd" stroke="none"/>
    <path d="M6.8 4.6 L5.3 4.75 Q4.5 4.5 4.0 4.05 3.5 3.55 4.0 3.0 4.35 2.65 4.95 2.6 5.65 2.55 6.0 2.9 L6.2 3.3 6.15 3.65 5.65 3.85 5.25 3.75 5.2 3.45" fill="none" stroke="#603200" stroke-linecap="round" stroke-linejoin="round" stroke-width="0.05"/>
  </g>
</svg>
