<?xml version="1.0" encoding="UTF-8" standalone="no"?>
<svg xmlns:xlink="http://www.w3.org/1999/xlink" height="18.0px" width="17.85px" xmlns="http://www.w3.org/2000/svg">
  <g transform="matrix(1.0, 0.0, 0.0, 1.0, 1.0, 0.85)">
    <path d="M15.85 8.15 Q15.85 11.5 13.55 13.85 12.4 15.0 11.0 15.6 L7.9 16.15 7.85 16.15 7.75 16.15 Q5.9 16.1 4.4 15.4 3.3 14.8 2.3 13.85 0.0 11.5 0.0 8.15 0.0 4.85 2.3 2.5 4.1 0.65 6.5 0.25 L6.85 0.2 7.85 0.15 7.9 0.15 8.45 0.2 Q11.4 0.35 13.55 2.5 15.85 4.85 15.85 8.15" fill="#000000" fill-rule="evenodd" stroke="none"/>
    <path d="M15.85 8.15 Q15.85 11.5 13.55 13.85 12.4 15.0 11.0 15.6 L7.9 16.15 7.85 16.15 7.75 16.15 Q5.9 16.1 4.4 15.4 3.3 14.8 2.3 13.85 0.0 11.5 0.0 8.15 0.0 4.85 2.3 2.5 4.1 0.65 6.5 0.25 L6.85 0.2 7.85 0.15 7.9 0.15 8.45 0.2 Q11.4 0.35 13.55 2.5 15.85 4.85 15.85 8.15 Z" fill="none" stroke="#000000" stroke-linecap="round" stroke-linejoin="round" stroke-width="2.0"/>
    <path d="M2.4 2.35 Q4.7 0.0 8.0 0.0 11.25 0.0 13.6 2.35 15.9 4.7 15.9 8.0 15.9 11.35 13.6 13.7 11.25 16.0 8.0 16.0 4.7 16.0 2.4 13.7 0.05 11.35 0.05 8.0 0.05 4.7 2.4 2.35" fill="url(#gradient0)" fill-rule="evenodd" stroke="none"/>
    <path d="M11.4 6.3 Q9.95 7.4 7.85 7.4 5.75 7.4 4.3 6.3 2.8 5.2 2.8 3.7 2.8 2.2 4.3 1.1 5.75 0.05 7.85 0.05 9.95 0.05 11.4 1.1 12.9 2.2 12.9 3.7 12.9 5.2 11.4 6.3" fill="url(#gradient1)" fill-rule="evenodd" stroke="none"/>
    <path d="M12.05 15.0 Q10.4 16.1 8.05 16.1 5.7 16.1 4.0 15.0 2.35 13.85 2.35 12.3 2.35 10.75 4.0 9.65 5.7 8.5 8.05 8.5 10.4 8.5 12.05 9.65 13.7 10.75 13.7 12.3 13.7 13.85 12.05 15.0" fill="url(#gradient2)" fill-rule="evenodd" stroke="none"/>
    <path d="M8.8 2.4 L7.8 2.65 6.8 2.4 Q6.4 2.2 6.4 1.85 6.4 1.55 6.8 1.35 L7.8 1.1 8.8 1.35 9.25 1.85 8.8 2.4" fill="#e6e6e6" fill-rule="evenodd" stroke="none"/>
    <path d="M8.75 1.85 L7.85 2.05 6.95 1.85 Q6.6 1.65 6.6 1.35 6.6 1.05 6.95 0.85 L7.85 0.65 8.75 0.85 9.1 1.35 8.75 1.85" fill="url(#gradient3)" fill-rule="evenodd" stroke="none"/>
    <path d="M8.6 2.25 L7.8 2.45 6.95 2.25 6.65 1.8 6.95 1.4 7.8 1.2 8.6 1.4 8.95 1.8 8.6 2.25" fill="url(#gradient4)" fill-rule="evenodd" stroke="none"/>
    <path d="M6.65 4.6 L5.65 4.85 4.65 4.6 4.25 4.05 Q4.25 3.75 4.65 3.55 L5.65 3.3 6.65 3.55 7.1 4.05 6.65 4.6" fill="#e6e6e6" fill-rule="evenodd" stroke="none"/>
    <path d="M6.65 4.25 L5.75 4.45 4.85 4.25 Q4.5 4.05 4.5 3.75 4.5 3.45 4.85 3.25 L5.75 3.05 6.65 3.25 7.0 3.75 6.65 4.25" fill="url(#gradient5)" fill-rule="evenodd" stroke="none"/>
    <path d="M6.15 4.5 L5.35 4.7 4.5 4.5 4.2 4.05 Q4.2 3.8 4.5 3.65 L5.35 3.45 6.15 3.65 6.5 4.05 6.15 4.5" fill="url(#gradient6)" fill-rule="evenodd" stroke="none"/>
    <path d="M11.05 4.6 L10.05 4.85 9.05 4.6 8.65 4.05 Q8.65 3.75 9.05 3.55 L10.05 3.3 11.05 3.55 11.5 4.05 11.05 4.6" fill="#e6e6e6" fill-rule="evenodd" stroke="none"/>
    <path d="M11.0 4.25 L10.1 4.45 9.2 4.25 Q8.85 4.05 8.85 3.75 8.85 3.45 9.2 3.25 L10.1 3.05 11.0 3.25 Q11.35 3.45 11.35 3.75 L11.0 4.25" fill="url(#gradient7)" fill-rule="evenodd" stroke="none"/>
    <path d="M10.75 4.5 L9.95 4.7 9.1 4.5 8.8 4.05 Q8.8 3.8 9.1 3.65 L9.95 3.45 10.75 3.65 11.1 4.05 10.75 4.5" fill="url(#gradient8)" fill-rule="evenodd" stroke="none"/>
  </g>
  <defs>
    <radialGradient cx="0" cy="0" gradientTransform="matrix(0.0099, 0.0, 0.0, 0.0099, 8.0, 6.45)" gradientUnits="userSpaceOnUse" id="gradient0" r="819.2" spreadMethod="pad">
      <stop offset="0.12549019607843137" stop-color="#645f57"/>
      <stop offset="0.25098039215686274" stop-color="#68615b"/>
      <stop offset="0.4117647058823529" stop-color="#5a5450"/>
      <stop offset="0.7529411764705882" stop-color="#1e1d18"/>
      <stop offset="0.9254901960784314" stop-color="#070704"/>
      <stop offset="1.0" stop-color="#0e0d0c"/>
    </radialGradient>
    <linearGradient gradientTransform="matrix(1.0E-4, 0.0043, -0.0045, 1.0E-4, 8.05, 3.05)" gradientUnits="userSpaceOnUse" id="gradient1" spreadMethod="pad" x1="-819.2" x2="819.2">
      <stop offset="0.0" stop-color="#ffffff" stop-opacity="0.69411767"/>
      <stop offset="1.0" stop-color="#ffffff" stop-opacity="0.0"/>
    </linearGradient>
    <linearGradient gradientTransform="matrix(1.0E-4, -0.0055, 0.005, 0.0, 8.2, 14.65)" gradientUnits="userSpaceOnUse" id="gradient2" spreadMethod="pad" x1="-819.2" x2="819.2">
      <stop offset="0.0" stop-color="#ffffff" stop-opacity="0.69411767"/>
      <stop offset="1.0" stop-color="#ffffff" stop-opacity="0.0"/>
    </linearGradient>
    <linearGradient gradientTransform="matrix(4.0E-4, -0.001, 8.0E-4, 3.0E-4, 8.15, 0.95)" gradientUnits="userSpaceOnUse" id="gradient3" spreadMethod="pad" x1="-819.2" x2="819.2">
      <stop offset="0.0" stop-color="#9a938f"/>
      <stop offset="1.0" stop-color="#000000"/>
    </linearGradient>
    <linearGradient gradientTransform="matrix(0.0, 7.0E-4, -8.0E-4, 0.0, 7.8, 1.8)" gradientUnits="userSpaceOnUse" id="gradient4" spreadMethod="pad" x1="-819.2" x2="819.2">
      <stop offset="0.0" stop-color="#363230"/>
      <stop offset="1.0" stop-color="#000000"/>
    </linearGradient>
    <linearGradient gradientTransform="matrix(4.0E-4, -0.001, 8.0E-4, 3.0E-4, 6.05, 3.35)" gradientUnits="userSpaceOnUse" id="gradient5" spreadMethod="pad" x1="-819.2" x2="819.2">
      <stop offset="0.0" stop-color="#9a938f"/>
      <stop offset="1.0" stop-color="#000000"/>
    </linearGradient>
    <linearGradient gradientTransform="matrix(0.0, 7.0E-4, -8.0E-4, 0.0, 5.35, 4.05)" gradientUnits="userSpaceOnUse" id="gradient6" spreadMethod="pad" x1="-819.2" x2="819.2">
      <stop offset="0.0" stop-color="#363230"/>
      <stop offset="1.0" stop-color="#000000"/>
    </linearGradient>
    <linearGradient gradientTransform="matrix(4.0E-4, -0.001, 8.0E-4, 3.0E-4, 10.4, 3.35)" gradientUnits="userSpaceOnUse" id="gradient7" spreadMethod="pad" x1="-819.2" x2="819.2">
      <stop offset="0.0" stop-color="#9a938f"/>
      <stop offset="1.0" stop-color="#000000"/>
    </linearGradient>
    <linearGradient gradientTransform="matrix(0.0, 7.0E-4, -8.0E-4, 0.0, 9.95, 4.05)" gradientUnits="userSpaceOnUse" id="gradient8" spreadMethod="pad" x1="-819.2" x2="819.2">
      <stop offset="0.0" stop-color="#363230"/>
      <stop offset="1.0" stop-color="#000000"/>
    </linearGradient>
  </defs>
</svg>
