<?xml version="1.0" encoding="UTF-8" standalone="no"?>
<svg xmlns:xlink="http://www.w3.org/1999/xlink" height="4.2px" width="7.3px" xmlns="http://www.w3.org/2000/svg">
  <g transform="matrix(1.0, 0.0, 0.0, 1.0, 0.0, 0.0)">
    <path d="M4.6 1.75 L3.6 2.0 2.6 1.75 Q2.2 1.55 2.2 1.2 2.2 0.9 2.6 0.7 L3.6 0.45 4.6 0.7 Q5.05 0.9 5.05 1.2 L4.6 1.75" fill="#e6e6e6" fill-rule="evenodd" stroke="none"/>
    <path d="M4.55 1.2 L3.65 1.4 2.75 1.2 Q2.4 1.0 2.4 0.7 2.4 0.4 2.75 0.2 L3.65 0.0 4.55 0.2 Q4.9 0.4 4.9 0.7 L4.55 1.2" fill="url(#gradient0)" fill-rule="evenodd" stroke="none"/>
    <path d="M4.4 1.6 L3.6 1.8 2.75 1.6 2.45 1.15 2.75 0.75 3.6 0.55 4.4 0.75 4.75 1.15 4.4 1.6" fill="url(#gradient1)" fill-rule="evenodd" stroke="none"/>
    <path d="M2.45 3.95 L1.45 4.2 0.45 3.95 0.05 3.4 0.45 2.9 1.45 2.65 2.45 2.9 Q2.9 3.1 2.9 3.4 L2.45 3.95" fill="#e6e6e6" fill-rule="evenodd" stroke="none"/>
    <path d="M2.45 3.6 L1.55 3.8 0.65 3.6 Q0.3 3.4 0.3 3.1 0.3 2.8 0.65 2.6 L1.55 2.4 2.45 2.6 2.8 3.1 2.45 3.6" fill="url(#gradient2)" fill-rule="evenodd" stroke="none"/>
    <path d="M1.95 3.85 L1.15 4.05 0.3 3.85 0.0 3.4 Q0.0 3.15 0.3 3.0 L1.15 2.8 1.95 3.0 2.3 3.4 1.95 3.85" fill="url(#gradient3)" fill-rule="evenodd" stroke="none"/>
    <path d="M6.85 3.95 L5.85 4.2 4.85 3.95 4.45 3.4 Q4.45 3.1 4.85 2.9 L5.85 2.65 6.85 2.9 7.3 3.4 6.85 3.95" fill="#e6e6e6" fill-rule="evenodd" stroke="none"/>
    <path d="M6.8 3.6 L5.9 3.8 5.0 3.6 Q4.65 3.4 4.65 3.1 4.65 2.8 5.0 2.6 L5.9 2.4 6.8 2.6 7.15 3.1 6.8 3.6" fill="url(#gradient4)" fill-rule="evenodd" stroke="none"/>
    <path d="M6.55 3.85 L5.75 4.05 4.9 3.85 4.6 3.4 Q4.6 3.15 4.9 3.0 L5.75 2.8 6.55 3.0 6.9 3.4 6.55 3.85" fill="url(#gradient5)" fill-rule="evenodd" stroke="none"/>
  </g>
  <defs>
    <linearGradient gradientTransform="matrix(4.0E-4, -0.001, 8.0E-4, 3.0E-4, 3.95, 0.3)" gradientUnits="userSpaceOnUse" id="gradient0" spreadMethod="pad" x1="-819.2" x2="819.2">
      <stop offset="0.0" stop-color="#9a938f"/>
      <stop offset="1.0" stop-color="#000000"/>
    </linearGradient>
    <linearGradient gradientTransform="matrix(0.0, 7.0E-4, -8.0E-4, 0.0, 3.6, 1.15)" gradientUnits="userSpaceOnUse" id="gradient1" spreadMethod="pad" x1="-819.2" x2="819.2">
      <stop offset="0.0" stop-color="#363230"/>
      <stop offset="1.0" stop-color="#000000"/>
    </linearGradient>
    <linearGradient gradientTransform="matrix(4.0E-4, -0.001, 8.0E-4, 3.0E-4, 1.85, 2.7)" gradientUnits="userSpaceOnUse" id="gradient2" spreadMethod="pad" x1="-819.2" x2="819.2">
      <stop offset="0.0" stop-color="#9a938f"/>
      <stop offset="1.0" stop-color="#000000"/>
    </linearGradient>
    <linearGradient gradientTransform="matrix(0.0, 7.0E-4, -8.0E-4, 0.0, 1.15, 3.4)" gradientUnits="userSpaceOnUse" id="gradient3" spreadMethod="pad" x1="-819.2" x2="819.2">
      <stop offset="0.0" stop-color="#363230"/>
      <stop offset="1.0" stop-color="#000000"/>
    </linearGradient>
    <linearGradient gradientTransform="matrix(4.0E-4, -0.001, 8.0E-4, 3.0E-4, 6.2, 2.7)" gradientUnits="userSpaceOnUse" id="gradient4" spreadMethod="pad" x1="-819.2" x2="819.2">
      <stop offset="0.0" stop-color="#9a938f"/>
      <stop offset="1.0" stop-color="#000000"/>
    </linearGradient>
    <linearGradient gradientTransform="matrix(0.0, 7.0E-4, -8.0E-4, 0.0, 5.75, 3.4)" gradientUnits="userSpaceOnUse" id="gradient5" spreadMethod="pad" x1="-819.2" x2="819.2">
      <stop offset="0.0" stop-color="#363230"/>
      <stop offset="1.0" stop-color="#000000"/>
    </linearGradient>
  </defs>
</svg>
