<?xml version="1.0" encoding="UTF-8" standalone="no"?>
<svg xmlns:xlink="http://www.w3.org/1999/xlink" height="87.6px" width="80.2px" xmlns="http://www.w3.org/2000/svg">
  <g transform="matrix(1.0, 0.0, 0.0, 1.0, 0.45, 4.55)">
    <path d="M18.8 -1.55 Q24.75 1.95 37.15 3.05 49.55 4.45 64.35 -0.15 L64.75 -0.15 65.1 -0.85 67.9 -0.15 70.7 0.55 71.1 0.9 72.5 2.3 74.6 45.05 74.6 49.65 74.25 49.65 75.0 63.75 75.35 66.25 Q76.75 66.6 76.75 66.25 L76.75 69.4 76.75 75.4 76.75 76.5 71.1 77.9 68.65 78.25 64.0 79.3 Q56.95 80.0 49.15 79.3 L48.5 79.3 Q42.1 78.55 42.45 78.25 L41.75 75.4 41.05 71.2 40.7 68.7 40.3 71.85 39.65 75.4 39.3 78.55 Q37.9 79.65 33.6 80.0 L32.95 80.0 Q23.35 80.35 10.3 78.25 L7.5 77.55 Q4.3 77.15 2.55 75.75 L2.55 75.4 3.2 69.05 3.6 66.25 5.0 66.25 Q5.0 64.8 5.35 63.75 5.7 59.15 6.1 57.05 L6.75 49.65 6.75 48.2 7.1 47.2 7.5 45.4 10.65 0.9 Q10.65 0.2 11.7 -0.15 L11.35 -0.15 12.05 -0.5 16.65 -1.55 18.8 -1.55" fill="#30949c" fill-rule="evenodd" stroke="none"/>
    <path d="M18.8 -1.55 Q24.75 1.95 37.15 3.05 49.55 4.45 64.35 -0.15 L64.75 -0.15 65.1 -0.85 67.9 -0.15 70.7 0.55 71.1 0.9 72.5 2.3 74.6 45.05 74.6 49.65 74.25 49.65 75.0 63.75 75.35 66.25 Q76.75 66.6 76.75 66.25 L76.75 69.4 76.75 75.4 76.75 76.5 71.1 77.9 68.65 78.25 64.0 79.3 Q56.95 80.0 49.15 79.3 L48.5 79.3 Q42.1 78.55 42.45 78.25 L41.75 75.4 41.05 71.2 40.7 68.7 40.3 71.85 39.65 75.4 39.3 78.55 Q37.9 79.65 33.6 80.0 L32.95 80.0 Q23.35 80.35 10.3 78.25 L7.5 77.55 Q4.3 77.15 2.55 75.75 L2.55 75.4 3.2 69.05 3.6 66.25 5.0 66.25 Q5.0 64.8 5.35 63.75 5.7 59.15 6.1 57.05 L6.75 49.65 6.75 48.2 7.1 47.2 7.5 45.4 10.65 0.9 Q10.65 0.2 11.7 -0.15 L11.35 -0.15 12.05 -0.5 16.65 -1.55 18.8 -1.55 Z" fill="none" stroke="#022356" stroke-linecap="round" stroke-linejoin="round" stroke-width="6.0"/>
    <path d="M69.0 46.3 L73.95 44.9 75.05 64.3 75.4 66.8 68.65 68.55 68.35 68.55 Q69.35 67.15 69.75 64.3 70.8 58.3 69.0 46.3 M76.8 69.95 L76.8 76.3 76.8 77.0 71.15 78.45 68.65 79.15 69.0 76.3 Q69.35 73.8 69.0 71.75 L76.8 69.95 M48.5 79.85 Q42.15 79.5 42.5 78.75 L41.8 76.3 41.1 72.05 45.7 72.05 46.4 77.0 Q47.1 78.45 48.5 79.85 M40.4 72.8 L39.7 76.3 39.35 79.15 Q37.95 80.2 33.65 80.55 L35.1 77.0 35.8 73.15 40.4 72.8 M10.35 78.75 L7.5 78.45 Q4.3 77.75 2.55 76.3 L3.3 69.6 10.35 71.4 Q9.25 73.8 9.65 76.3 9.65 77.35 10.35 78.75 M5.05 67.15 Q5.05 65.7 5.4 64.3 5.8 59.7 6.1 57.95 L7.5 45.95 12.15 47.0 Q10.35 59.0 11.05 64.3 11.4 68.1 13.55 68.9 L11.4 68.55 5.05 67.15 M35.8 69.6 Q35.45 67.45 34.7 65.0 L40.75 65.7 46.4 65.4 Q45.7 67.45 45.35 69.6 L40.75 69.25 35.8 69.6" fill="#126bb2" fill-rule="evenodd" stroke="none"/>
    <path d="M68.65 79.15 L64.05 79.85 Q57.0 80.55 49.25 79.85 L48.5 79.85 Q47.1 78.45 46.4 77.0 L45.7 72.05 Q57.35 73.5 69.0 71.75 69.35 73.8 69.0 76.3 L68.65 79.15 M33.65 80.55 L32.95 80.55 Q23.4 80.9 10.35 78.75 9.65 77.35 9.65 76.3 9.25 73.8 10.35 71.4 22.75 73.8 35.8 73.15 L35.1 77.0 33.65 80.55 M12.15 47.0 Q24.15 49.85 35.8 49.85 L35.8 59.0 Q35.8 62.2 36.85 63.25 37.6 63.95 38.6 64.3 L40.75 64.65 40.75 64.3 40.75 49.85 Q56.65 50.55 69.0 46.3 70.8 58.3 69.75 64.3 69.35 67.15 68.35 68.55 L67.95 68.55 66.55 68.9 57.0 69.95 45.35 69.6 Q45.7 67.45 46.4 65.4 L40.75 65.7 34.7 65.0 Q35.45 67.45 35.8 69.6 L14.25 68.9 13.55 68.9 Q11.4 68.1 11.05 64.3 10.35 59.0 12.15 47.0" fill="#39a0f1" fill-rule="evenodd" stroke="none"/>
    <path d="M75.4 66.8 L76.8 66.85 76.8 69.95 69.0 71.75 68.65 68.55 75.4 66.8 M41.1 72.05 L40.75 69.25 40.4 72.8 35.8 73.15 35.8 69.6 40.75 69.25 45.35 69.6 Q45.35 71.0 45.7 72.05 L41.1 72.05 M3.3 69.6 L3.65 67.15 5.05 67.15 11.4 68.55 Q10.7 69.95 10.35 71.4 L3.3 69.6" fill="#2c90dd" fill-rule="evenodd" stroke="none"/>
    <path d="M35.8 49.85 L39.7 49.85 40.75 49.85 40.75 64.3 40.75 64.65 38.6 64.3 Q37.6 63.95 36.85 63.25 35.8 62.2 35.8 59.0 L35.8 49.85 M68.35 68.55 L68.65 68.55 69.0 71.75 Q57.35 73.5 45.7 72.05 45.35 71.0 45.35 69.6 L57.0 69.95 66.55 68.9 67.95 68.55 68.35 68.55 M35.8 69.6 L35.8 73.15 Q22.75 73.8 10.35 71.4 10.7 69.95 11.4 68.55 L13.55 68.9 14.25 68.9 35.8 69.6" fill="#59b9ff" fill-rule="evenodd" stroke="none"/>
    <path d="M16.7 -1.0 Q23.05 15.2 32.65 24.45 L38.6 30.4 Q40.4 32.55 40.0 35.7 L40.0 47.4 Q40.0 51.6 30.85 50.85 L16.35 48.8 Q13.55 46.3 13.15 44.5 12.8 42.75 12.15 34.3 11.05 25.45 14.25 -0.3 L16.7 -1.0 M68.65 47.7 Q55.6 51.6 42.5 50.2 42.9 49.45 42.9 48.4 L42.9 38.15 42.9 33.25 Q53.45 26.2 60.9 13.8 L67.95 0.4 68.35 0.4 Q69.35 4.65 70.1 14.15 L70.4 27.25 70.1 37.5 Q69.75 44.2 68.65 47.7" fill="#a5e7ff" fill-rule="evenodd" stroke="none"/>
    <path d="M16.7 -1.0 L19.9 -1.0 Q22.4 5.7 26.25 12.05 32.25 22.3 41.45 30.05 42.9 29.7 46.75 26.5 50.3 23.35 55.95 15.2 61.25 7.45 65.15 -0.3 L67.95 0.4 60.9 13.8 Q53.45 26.2 42.9 33.25 L42.9 38.15 42.9 48.4 Q42.9 49.45 42.5 50.2 55.6 51.6 68.65 47.7 L74.7 45.6 74.7 48.4 69.75 49.85 67.6 50.55 Q61.25 52.3 54.2 52.65 47.45 53.0 40.75 52.3 L40.4 52.3 39.35 52.65 35.45 53.0 22.75 52.3 16.0 50.85 12.5 50.2 6.8 49.15 7.5 46.65 16.35 48.8 30.85 50.85 Q40.0 51.6 40.0 47.4 L40.0 35.7 Q40.4 32.55 38.6 30.4 L32.65 24.45 Q23.05 15.2 16.7 -1.0" fill="#126bb2" fill-rule="evenodd" stroke="none"/>
    <path d="M16.35 48.8 L7.5 46.65 10.7 1.45 Q10.7 0.4 14.25 -0.3 11.05 25.45 12.15 34.3 12.8 42.75 13.15 44.5 13.55 46.3 16.35 48.8 M74.7 45.6 L68.65 47.7 Q69.75 44.2 70.1 37.5 L70.4 27.25 70.1 14.15 Q69.35 4.65 68.35 0.4 71.85 1.45 72.55 2.9 L74.7 45.6" fill="#8bd3fa" fill-rule="evenodd" stroke="none"/>
    <path d="M64.05 -0.65 L70.4 0.4 Q65.45 10.65 58.45 20.5 50.65 31.45 46.05 35.35 41.45 39.6 40.4 39.95 27.3 29.7 19.2 16.6 14.25 8.2 10.7 -0.65 L17.75 -2.05 Q19.9 4.3 24.15 12.05 28.75 20.15 33.3 26.2 38.25 32.55 41.1 31.45 44.3 30.8 50.65 21.25 57.7 11.7 64.05 -0.65" fill="#126bb2" fill-rule="evenodd" stroke="none"/>
    <path d="M17.75 -2.05 Q23.8 1.1 36.5 2.5 49.25 4.3 64.05 -0.65 57.7 11.7 50.65 21.25 44.3 30.8 41.1 31.45 38.25 32.55 33.3 26.2 28.75 20.15 24.15 12.05 19.9 4.3 17.75 -2.05" fill="#4eb0e5" fill-rule="evenodd" stroke="none"/>
    <path d="M35.45 53.0 L39.35 52.65 40.4 52.3 40.75 52.3 Q47.45 53.0 54.2 52.65 61.25 52.3 67.6 50.55 L69.75 49.85 74.7 48.4 74.7 50.2 Q73.3 51.25 64.05 53.35 52.05 55.15 41.1 53.0 38.25 54.1 28.75 54.1 19.2 54.1 6.8 50.85 L6.8 49.15 12.5 50.2 16.0 50.85 22.75 52.3 35.45 53.0" fill="#126bb2" fill-rule="evenodd" stroke="none"/>
    <path d="M39.45 11.3 L41.6 11.25 45.2 11.4 Q46.15 11.9 47.1 13.15 48.45 14.9 48.45 16.35 48.45 17.8 46.9 18.85 L46.5 19.1 41.5 19.25 40.95 19.25 Q38.95 18.7 38.2 18.0 37.4 17.25 37.4 15.9 37.4 12.0 39.45 11.3 M47.35 23.2 Q48.65 25.95 49.75 34.9 50.0 36.8 49.2 39.35 45.25 47.1 41.9 48.05 39.8 48.25 38.7 46.6 L38.4 46.1 36.2 41.85 Q34.35 38.15 34.45 35.05 34.5 31.95 35.5 26.65 36.5 21.3 38.2 21.0 39.9 20.7 40.4 22.85 L40.95 26.45 42.8 23.0 43.6 21.65 Q44.2 20.95 44.95 20.9 45.85 20.85 46.3 21.3 L47.35 23.2 M45.45 30.15 L45.45 30.5 45.6 31.65 Q45.6 32.5 46.1 32.5 46.6 32.5 46.9 31.75 L47.15 30.85 Q47.15 29.2 46.05 29.2 45.6 29.2 45.45 30.15 M47.0 36.75 Q46.7 34.45 45.9 34.3 45.05 34.1 43.85 38.05 42.55 41.95 41.5 43.05 40.4 44.1 40.65 44.9 40.9 45.85 42.1 45.95 43.25 46.0 45.25 42.55 47.3 39.0 47.0 36.75" fill="#eceae7" fill-rule="evenodd" stroke="none"/>
    <path d="M35.4 18.85 Q33.7 18.5 32.95 17.65 32.25 16.95 33.15 15.05 34.05 13.1 35.0 12.15 35.75 11.4 39.45 11.3 37.4 12.0 37.4 15.9 37.4 17.25 38.2 18.0 38.95 18.7 40.95 19.25 L35.6 18.9 35.4 18.85" fill="#d4cdc3" fill-rule="evenodd" stroke="none"/>
    <path d="M47.95 19.0 L49.75 27.4 50.0 29.05 Q50.35 31.45 50.15 29.55 51.45 36.7 51.05 37.65 L48.7 41.85 45.85 45.95 Q43.3 48.75 41.15 48.65 40.35 48.6 39.6 48.15 38.3 47.45 37.0 45.65 L34.3 42.35 Q31.55 38.55 31.4 36.4 31.25 34.2 33.3 26.3 L35.4 18.85 35.6 18.9 40.95 19.25 41.5 19.25 46.5 19.1 47.75 19.0 47.95 19.0 M47.35 23.2 L46.3 21.3 Q45.85 20.85 44.95 20.9 44.2 20.95 43.6 21.65 L42.8 23.0 40.95 26.45 40.4 22.85 Q39.9 20.7 38.2 21.0 36.5 21.3 35.5 26.65 34.5 31.95 34.45 35.05 34.35 38.15 36.2 41.85 L38.4 46.1 38.7 46.6 Q39.8 48.25 41.9 48.05 45.25 47.1 49.2 39.35 50.0 36.8 49.75 34.9 48.65 25.95 47.35 23.2" fill="#c9c0b3" fill-rule="evenodd" stroke="none"/>
    <path d="M45.45 30.15 Q45.6 29.2 46.05 29.2 47.15 29.2 47.15 30.85 L46.9 31.75 Q46.6 32.5 46.1 32.5 45.6 32.5 45.6 31.65 L45.45 30.5 45.45 30.15 M47.0 36.75 Q47.3 39.0 45.25 42.55 43.25 46.0 42.1 45.95 40.9 45.85 40.65 44.9 40.4 44.1 41.5 43.05 42.55 41.95 43.85 38.05 45.05 34.1 45.9 34.3 46.7 34.45 47.0 36.75" fill="#fffcf7" fill-rule="evenodd" stroke="none"/>
    <path d="M45.2 11.4 L48.25 12.0 Q49.2 12.6 50.05 14.9 50.8 16.95 50.2 17.8 49.55 18.8 47.95 19.0 L47.75 19.0 46.5 19.1 46.9 18.85 Q48.45 17.8 48.45 16.35 48.45 14.9 47.1 13.15 46.15 11.9 45.2 11.4" fill="#f7f7f5" fill-rule="evenodd" stroke="none"/>
    <path d="M68.25 37.35 L55.15 40.15" fill="none" stroke="#4eb0e5" stroke-linecap="butt" stroke-linejoin="miter" stroke-miterlimit="3.0" stroke-width="1.0"/>
    <path d="M14.15 37.35 L27.25 40.5" fill="none" stroke="#4eb0e5" stroke-linecap="butt" stroke-linejoin="round" stroke-width="1.0"/>
  </g>
</svg>
