<?xml version="1.0" encoding="UTF-8" standalone="no"?>
<svg xmlns:xlink="http://www.w3.org/1999/xlink" height="8.2px" width="29.0px" xmlns="http://www.w3.org/2000/svg">
  <g transform="matrix(1.0, 0.0, 0.0, 1.0, -1.35, -12.05)">
    <path d="M29.95 19.0 L29.85 18.9 29.95 19.1 30.05 19.1 29.95 19.0 M29.95 19.2 L29.85 19.2 29.75 19.5 29.8 19.5 29.95 19.6 30.0 19.55 30.05 19.45 29.85 19.3 29.95 19.2 29.95 19.1 29.6 19.3 29.65 19.3 29.6 19.4 29.75 19.5 29.65 19.8 29.75 19.8 29.95 19.6 30.15 19.65 30.2 19.55 30.05 19.45 30.15 19.25 30.15 19.2 29.95 19.2 M30.05 19.1 L30.25 19.1 30.2 19.2 30.35 19.2 30.25 19.55 30.25 19.6 30.25 19.7 30.15 19.65 30.15 19.7 30.05 19.75 29.95 19.85 29.45 20.05 29.2 20.15 29.25 20.0 29.2 20.05 29.1 20.05 29.05 20.05 28.9 20.25 28.7 20.25 28.7 20.05 28.3 20.05 28.6 19.75 28.5 19.8 28.5 19.7 28.55 19.65 28.5 19.3 28.7 19.45 28.75 19.4 28.7 19.3 28.9 19.25 29.0 19.15 29.0 19.0 29.1 19.0 29.1 18.8 29.25 19.0 29.25 19.1 29.3 19.1 29.3 19.05 29.3 18.55 29.85 18.9 29.65 18.9 29.5 19.0 29.5 19.05 29.55 19.3 29.6 19.3 29.55 19.35 29.55 19.4 29.6 19.4 M30.15 19.25 L30.2 19.2 30.15 19.2 30.05 19.1 M29.25 19.1 L29.2 19.1 29.05 19.2 29.0 19.3 29.05 19.3 29.1 19.4 29.2 19.4 29.3 19.35 29.3 19.3 29.3 19.2 29.3 19.1 M29.3 19.3 L29.4 19.25 29.3 19.2 M29.3 19.35 L29.35 19.3 29.3 19.3 M29.4 19.25 L29.45 19.1 29.35 19.05 29.3 19.05 29.35 18.9 29.45 18.9 29.5 19.0 29.35 19.05 M29.45 19.3 L29.5 19.35 29.55 19.3 29.45 19.3 29.4 19.25 M29.45 19.3 L29.35 19.3 29.45 19.35 29.45 19.4 29.45 19.45 29.5 19.35 29.55 19.35 29.55 19.3 M29.55 19.45 L29.5 19.45 29.5 19.5 29.55 19.5 29.55 19.45 29.55 19.4 M29.45 19.55 L29.45 19.6 29.5 19.5 29.45 19.5 29.45 19.55 29.35 19.8 29.4 19.8 29.45 19.65 29.45 19.6 M29.45 19.5 L29.45 19.45 29.4 19.55 29.3 19.8 29.25 19.85 29.35 19.8 29.35 19.85 29.3 19.85 29.3 19.9 29.3 19.95 29.25 20.0 29.35 20.05 29.45 20.05 29.7 19.95 30.05 19.75 M29.5 19.45 L29.45 19.45 29.55 19.35 M29.45 19.4 L29.35 19.4 29.4 19.5 29.45 19.45 M29.3 19.35 L29.3 19.4 29.35 19.4 29.3 19.45 29.3 19.5 29.4 19.5 29.4 19.55 29.2 19.85 29.25 19.85 29.3 19.85 29.35 19.8 M29.15 19.45 L29.05 19.45 29.05 19.5 29.0 19.5 29.0 19.55 29.2 19.5 29.15 19.45 29.1 19.4 29.05 19.45 M29.3 19.45 L29.2 19.5 29.3 19.5 M29.3 19.45 L29.3 19.4 29.2 19.4 29.15 19.45 M29.25 19.85 L29.2 19.9 29.2 19.95 29.25 20.0 29.3 19.9 M29.2 19.85 L29.15 19.9 29.2 19.9 M29.15 19.9 L29.15 19.95 29.1 20.0 29.2 19.95 29.15 19.9 29.1 19.85 28.85 19.65 29.0 19.95 29.15 19.95 M29.55 19.5 L29.4 19.8 M30.25 19.55 L30.2 19.55 30.25 19.6 30.15 19.65 M30.15 19.25 L30.25 19.55 M29.0 19.15 L29.0 19.2 29.05 19.2 29.1 19.05 29.0 19.15 M28.9 19.25 L28.8 19.35 28.75 19.4 28.85 19.6 28.9 19.55 29.0 19.3 29.0 19.2 28.9 19.25 M29.1 19.05 L29.1 19.0 M29.0 19.5 L28.95 19.55 29.0 19.55 29.1 19.85 29.2 19.85 M28.95 19.55 L28.9 19.55 28.9 19.6 28.85 19.6 28.85 19.65 28.7 19.8 28.7 19.9 28.9 19.95 29.0 19.95 M28.85 19.6 L28.8 19.65 28.65 19.7 28.6 19.75 28.7 19.9 28.7 20.05 29.05 20.05 29.1 20.0 29.1 20.05 29.25 20.0 M28.7 19.45 L28.75 19.5 28.85 19.6 M28.55 19.65 L28.7 19.45 M28.55 19.65 L28.6 19.75 M2.1 12.25 L2.15 12.15 2.2 12.05 2.4 12.3 2.5 12.25 2.6 12.25 2.6 12.3 2.7 12.45 2.7 12.6 2.75 12.85 2.75 13.0 2.75 13.05 2.7 13.1 2.6 13.15 2.6 13.4 2.4 13.4 2.3 13.65 2.7 13.4 2.85 13.3 2.85 13.4 Q2.85 13.65 2.75 13.4 L2.55 13.6 2.2 13.75 2.15 13.7 1.8 13.75 1.55 13.65 1.35 13.35 1.4 13.2 1.35 13.2 1.45 12.6 1.4 12.45 1.35 12.45 1.35 12.35 1.4 12.45 1.65 12.2 2.0 12.05 2.1 12.25 2.15 12.3 2.15 12.15 M2.15 12.35 L2.35 12.6 2.4 12.6 2.4 12.45 2.2 12.35 2.15 12.35 2.1 12.25 2.1 12.35 2.15 12.35 2.15 12.3 M2.4 12.45 L2.45 12.3 2.4 12.3 2.35 12.3 2.2 12.35 M2.5 12.25 L2.45 12.3 2.5 12.4 2.6 12.35 2.7 12.6 2.65 12.65 2.7 12.7 2.65 12.8 2.6 12.85 2.75 13.0 2.6 13.05 2.6 13.15 2.5 13.2 2.45 13.1 2.25 13.25 2.4 13.4 M2.6 12.7 L2.6 12.65 2.55 12.65 2.55 12.7 2.6 12.7 M2.6 12.65 L2.6 12.6 2.5 12.6 2.55 12.65 2.45 12.65 2.55 12.7 2.6 12.8 2.6 12.85 2.6 12.9 2.6 13.05 2.45 13.1 2.45 13.0 2.4 12.85 2.35 12.85 2.1 12.9 1.85 12.85 1.75 12.7 1.75 12.6 1.6 12.75 1.75 12.85 1.9 12.95 1.9 12.9 2.25 13.25 2.2 13.4 2.1 13.35 2.1 13.5 2.05 13.5 2.15 13.7 2.3 13.65 M2.65 12.65 L2.6 12.65 M2.45 12.65 L2.4 12.65 2.4 12.85 2.5 12.8 2.55 12.9 2.6 12.9 M2.5 12.6 L2.5 12.5 2.4 12.6 2.45 12.65 M2.5 12.4 L2.5 12.45 2.65 12.65 M2.5 12.4 L2.4 12.45 M2.35 12.6 L2.3 12.6 2.25 12.55 2.15 12.35 M2.4 12.6 L2.4 12.65 M2.4 12.85 L2.05 12.6 1.85 12.4 1.75 12.6 1.75 12.5 1.85 12.4 1.55 12.35 1.55 12.65 1.6 12.75 1.75 13.0 1.8 13.05 1.9 12.95 2.1 13.35 1.8 13.05 1.65 13.15 1.8 13.3 2.0 13.4 2.0 13.45 2.05 13.45 2.05 13.5 M1.45 12.6 L1.45 12.5 1.55 12.65 1.55 12.7 1.6 12.75 1.6 12.8 1.55 12.9 1.55 13.2 1.65 13.15 M1.4 13.2 L1.55 12.9 1.55 12.7 1.45 12.6 M1.4 13.2 L1.7 13.25 1.8 13.3 1.9 13.4 2.0 13.4 M1.9 13.4 L1.7 13.25 M2.4 12.85 L2.55 12.9" fill="none" stroke="#000000" stroke-linecap="round" stroke-linejoin="round" stroke-opacity="0.94509804" stroke-width="0.05"/>
  </g>
</svg>
