<?xml version="1.0" encoding="UTF-8" standalone="no"?>
<svg xmlns:xlink="http://www.w3.org/1999/xlink" height="12.0px" width="30.05px" xmlns="http://www.w3.org/2000/svg">
  <g transform="matrix(1.0, 0.0, 0.0, 1.0, -1.45, -19.4)">
    <path d="M2.7 19.65 L2.75 19.8 2.75 19.95 2.85 20.2 2.85 20.35 2.85 20.4 2.75 20.45 2.7 20.5 2.7 20.75 2.5 20.75 2.4 21.0 2.8 20.75 2.95 20.65 2.95 20.75 Q2.95 21.0 2.85 20.75 L2.65 20.95 2.3 21.1 2.25 21.05 1.9 21.1 1.65 21.0 1.45 20.7 1.5 20.55 1.45 20.55 1.55 19.95 1.5 19.75 1.45 19.8 1.45 19.7 1.5 19.75 1.75 19.55 2.1 19.4 2.2 19.6 2.25 19.5 2.3 19.4 2.5 19.6 2.6 19.6 2.7 19.6 2.7 19.65 M2.5 19.6 L2.55 19.65 2.6 19.6 M2.55 20.0 L2.5 19.95 2.5 20.2 2.6 20.15 2.65 20.25 2.7 20.25 2.7 20.15 2.65 20.05 2.55 20.0 2.6 20.0 2.6 19.95 2.6 19.85 2.5 19.95 2.5 19.8 2.3 19.7 2.25 19.7 2.45 19.95 2.5 19.95 M2.6 19.95 L2.7 19.95 2.7 20.0 2.75 19.95 2.6 19.75 2.5 19.8 2.55 19.65 2.6 19.75 2.7 19.7 2.75 19.95 2.75 20.1 2.7 20.15 2.85 20.35 2.7 20.4 2.7 20.5 2.6 20.55 2.55 20.45 2.35 20.6 2.5 20.75 M2.7 20.0 L2.6 20.0 2.65 20.05 2.7 20.05 2.7 20.0 M2.55 20.45 L2.55 20.35 2.5 20.2 2.45 20.2 2.2 20.25 1.95 20.2 1.85 20.05 1.85 19.95 1.7 20.1 1.75 20.1 1.8 20.15 1.85 20.15 2.0 20.25 2.05 20.3 2.35 20.6 2.3 20.75 2.2 20.7 2.2 20.8 2.1 20.75 2.15 20.8 2.25 21.05 2.4 21.0 M2.7 20.4 L2.55 20.45 M2.7 20.25 L2.7 20.4 M1.55 19.95 L1.65 20.05 1.65 20.0 1.55 19.85 1.55 19.95 M1.65 20.05 L1.7 20.1 1.65 20.0 1.65 19.7 1.95 19.75 2.15 19.9 2.5 20.2 2.65 20.25 M1.85 19.95 L1.85 19.8 1.95 19.75 1.85 19.95 M2.25 19.65 L2.2 19.6 2.2 19.7 2.25 19.7 2.25 19.65 2.25 19.5 M2.25 19.7 L2.45 19.65 2.5 19.6 M2.45 19.95 L2.4 19.95 2.35 19.9 2.25 19.7 M1.8 20.15 L1.85 20.35 1.9 20.4 2.0 20.25 M2.0 20.75 L2.1 20.75 1.9 20.6 2.0 20.75 1.8 20.6 1.65 20.55 1.5 20.55 Q1.5 20.4 1.65 20.2 L1.65 20.05 M2.05 20.3 L2.2 20.7 1.9 20.4 1.75 20.5 1.9 20.6 1.8 20.6 M1.75 20.5 L1.65 20.55 1.65 20.2 1.7 20.1 M30.6 30.0 L30.7 30.05 30.9 30.35 30.85 30.55 31.2 30.55 30.9 31.0 30.95 30.95 31.5 30.75 31.5 30.85 31.2 31.0 30.8 31.1 30.9 31.0 30.6 31.1 30.45 31.1 30.25 31.25 29.85 31.4 29.75 31.4 29.9 31.0 29.8 30.9 29.75 30.9 29.75 31.05 29.55 31.05 29.45 31.05 29.35 31.05 29.35 30.8 29.2 30.65 29.2 30.15 29.35 30.35 29.35 30.25 29.35 30.15 29.3 30.15 29.3 30.05 29.35 30.15 29.4 30.15 29.45 30.15 29.55 30.05 29.65 30.05 29.65 30.1 29.75 30.05 29.85 30.05 29.9 30.0 29.95 30.0 30.1 29.95 30.15 29.95 30.5 29.9 30.6 30.0 30.6 30.2 30.55 30.45 30.65 30.6 30.7 30.55 30.85 30.55 30.8 30.75 30.8 30.85 30.75 30.85 30.6 31.1 M30.45 30.05 L30.3 30.05 30.3 30.15 30.35 30.15 30.45 30.35 30.45 30.4 30.5 30.15 30.45 30.15 30.45 30.05 M30.4 30.45 L30.5 30.45 30.45 30.4 30.4 30.45 30.25 30.4 29.85 30.55 29.85 30.65 30.0 30.65 30.1 30.55 30.35 30.45 30.4 30.45 30.5 30.5 30.5 30.45 30.55 30.45 30.5 30.5 30.5 30.55 30.55 30.55 30.6 30.6 30.65 30.6 30.7 30.7 30.65 30.85 30.75 30.85 30.8 30.75 M30.6 30.6 L30.6 30.8 30.6 30.85 30.65 30.85 30.6 30.9 30.45 31.1 30.3 31.05 30.2 31.1 30.4 31.1 30.45 31.1 M30.5 30.55 L30.45 30.7 30.6 30.6 M30.6 30.85 L30.3 30.9 30.25 30.95 30.15 30.95 30.3 30.9 30.35 30.75 30.45 30.7 30.15 30.8 29.95 30.95 30.3 31.05 30.45 31.05 30.6 30.9 30.6 30.85 M29.75 30.1 L29.7 30.2 29.85 30.1 30.0 30.05 29.9 30.05 29.85 30.05 29.75 30.1 29.65 30.15 29.6 30.2 29.7 30.2 29.65 30.4 29.85 30.2 29.85 30.15 30.25 30.05 30.3 30.05 30.25 30.0 30.05 30.05 30.0 30.05 M30.05 30.05 L30.05 30.0 29.9 30.05 29.9 30.0 M30.05 30.0 L29.95 30.0 M29.85 30.2 L29.85 30.3 30.1 30.25 30.35 30.35 30.3 30.15 30.25 30.05 30.05 30.15 29.85 30.15 M30.15 29.95 L30.25 30.0 30.35 30.0 30.6 30.0 M30.05 30.0 L30.1 29.95 M30.15 29.95 L30.05 30.0 M29.65 30.1 L29.55 30.15 29.65 30.15 29.65 30.1 M29.4 30.15 L29.4 30.25 29.55 30.15 29.45 30.15 M29.65 30.55 L29.7 30.6 29.7 30.55 29.65 30.55 29.65 30.45 29.65 30.4 29.6 30.55 29.65 30.55 M29.5 30.45 L29.45 30.45 29.4 30.5 29.55 30.7 29.55 30.55 29.5 30.45 29.5 30.4 29.45 30.45 29.35 30.35 29.4 30.45 29.45 30.45 M29.55 30.55 L29.6 30.55 29.5 30.45 29.65 30.4 29.75 30.4 29.85 30.3 29.85 30.35 29.95 30.35 30.25 30.4 30.35 30.35 30.45 30.4 M29.7 30.55 L29.85 30.55 29.85 30.35 29.75 30.4 29.7 30.5 29.7 30.55 M29.5 30.4 L29.45 30.25 29.4 30.25 29.35 30.25 M29.6 30.2 L29.5 30.4 M29.6 30.2 L29.45 30.25 M29.2 30.65 L29.25 30.65 29.3 30.65 29.35 30.55 29.35 30.45 29.4 30.45 29.4 30.5 29.35 30.55 29.35 30.7 29.55 30.75 29.55 30.7 29.65 30.75 29.65 30.65 29.6 30.55 M29.35 30.8 L29.35 30.7 29.25 30.65 M29.6 30.8 L29.7 30.8 29.7 30.75 29.65 30.75 29.6 30.8 29.55 30.75 29.6 30.85 29.6 30.8 M29.65 30.65 L29.7 30.6 29.7 30.75 29.75 30.75 29.95 30.7 30.0 30.65 30.15 30.6 30.35 30.45 M29.7 30.75 L29.65 30.65 M29.35 30.8 L29.55 30.9 29.6 30.85 29.6 30.95 29.75 30.9 29.75 30.85 29.7 30.8 M29.7 30.75 L29.75 30.85 29.85 30.85 29.95 30.85 29.95 30.7 30.15 30.65 30.4 30.45 M29.85 30.85 L29.85 30.9 29.95 30.9 29.95 30.85 30.5 30.5 M29.85 30.85 L29.8 30.9 29.75 30.85 M30.2 31.1 L30.1 31.1 30.0 31.05 29.95 31.05 29.9 31.0 29.95 30.95 29.95 30.9 M29.95 30.95 L29.95 31.05 M29.6 30.95 L29.55 31.05 M29.6 30.95 L29.55 30.9 29.45 31.05" fill="none" stroke="#000000" stroke-linecap="round" stroke-linejoin="round" stroke-opacity="0.94509804" stroke-width="0.05"/>
  </g>
</svg>
