<?xml version="1.0" encoding="UTF-8" standalone="no"?>
<svg xmlns:xlink="http://www.w3.org/1999/xlink" height="1.7px" width="1.5px" xmlns="http://www.w3.org/2000/svg">
  <g transform="matrix(1.0, 0.0, 0.0, 1.0, -1.65, -32.0)">
    <path d="M2.8 32.45 L2.8 32.5 2.85 32.55 2.85 32.6 2.95 32.55 2.8 32.35 2.7 32.4 2.7 32.55 2.75 32.45 2.8 32.45 M2.75 32.2 L2.7 32.2 2.75 32.25 2.75 32.2 2.85 32.2 2.9 32.25 2.95 32.4 2.95 32.5 3.05 32.8 3.05 32.95 3.0 33.0 2.95 33.05 2.85 33.1 2.85 33.35 2.7 33.35 2.6 33.6 3.0 33.35 3.15 33.25 3.15 33.35 Q3.15 33.55 3.05 33.35 L2.85 33.55 2.5 33.7 2.45 33.65 2.1 33.7 1.85 33.6 1.65 33.3 1.7 33.15 1.65 33.15 1.75 32.55 1.65 32.35 1.95 32.15 Q2.05 32.05 2.3 32.0 L2.4 32.15 2.45 32.1 2.5 32.0 2.7 32.2 2.65 32.25 2.45 32.3 2.7 32.4 2.75 32.25 2.8 32.35 2.85 32.3 2.95 32.5 2.95 32.55 2.95 32.65 2.9 32.7 2.9 32.75 3.05 32.95 2.85 33.0 2.85 33.1 2.75 33.15 2.75 33.05 2.55 33.2 2.7 33.35 M2.9 32.75 L2.85 32.75 2.85 32.65 2.75 32.6 2.7 32.55 2.7 32.8 2.75 32.75 2.85 32.85 2.9 32.75 M2.85 32.6 L2.8 32.6 2.85 32.65 2.85 32.6 M2.65 32.5 L2.45 32.3 2.55 32.5 2.6 32.55 2.7 32.55 2.65 32.5 M2.8 32.6 L2.75 32.6 M2.8 32.5 L2.8 32.6 M2.75 33.05 L2.75 32.9 2.7 32.8 2.65 32.8 2.4 32.85 2.15 32.8 2.0 32.65 2.0 32.5 1.9 32.7 2.05 32.75 2.2 32.85 2.3 32.95 2.55 33.2 2.5 33.35 2.4 33.3 2.4 33.4 2.3 33.35 2.35 33.4 2.45 33.65 2.6 33.6 M2.75 33.05 L2.85 33.0 2.85 32.85 2.7 32.8 2.35 32.5 2.15 32.35 2.0 32.5 2.05 32.4 2.15 32.35 1.85 32.3 1.85 32.6 1.9 32.7 1.85 32.65 1.85 32.8 1.9 32.7 2.05 32.95 2.1 33.0 2.2 32.85 M2.45 32.25 L2.4 32.15 2.4 32.2 2.45 32.25 2.45 32.1 M2.4 32.2 L2.4 32.3 2.45 32.3 2.45 32.25 M1.85 32.8 L1.85 33.15 1.95 33.1 2.1 33.0 2.4 33.3 2.3 32.95 M1.85 33.15 L2.0 33.2 2.1 33.2 1.95 33.1 M1.85 33.15 L1.7 33.15 1.85 32.8 M1.85 32.6 L1.75 32.45 1.75 32.55 1.85 32.65 1.85 32.6 M2.3 33.35 L2.2 33.35 2.0 33.2 M2.1 33.2 L2.3 33.35 M2.1 33.2 L2.2 33.35" fill="none" stroke="#000000" stroke-linecap="round" stroke-linejoin="round" stroke-opacity="0.94509804" stroke-width="0.05"/>
  </g>
</svg>
