<?xml version="1.0" encoding="UTF-8" standalone="no"?>
<svg xmlns:xlink="http://www.w3.org/1999/xlink" height="91.5px" width="76.25px" xmlns="http://www.w3.org/2000/svg">
  <g transform="matrix(1.0, 0.0, 0.0, 1.0, -0.85, -2.4)">
    <path d="M68.05 25.8 Q70.75 30.15 70.4 33.15 70.4 35.15 68.75 36.2 L70.05 55.9 70.75 59.2 Q72.7 71.9 71.4 81.6 L74.1 81.6 74.1 88.9 Q61.7 91.95 49.0 90.3 L40.3 88.6 40.3 81.6 38.65 72.55 36.95 81.25 37.6 81.25 37.6 88.6 28.6 89.95 Q15.55 91.3 3.85 88.6 L3.85 81.25 6.55 81.25 Q5.15 71.6 7.2 58.9 L7.55 58.55 7.55 57.9 Q7.55 57.2 7.85 56.2 L9.2 36.2 Q8.2 34.5 8.2 32.85 8.2 30.45 10.55 27.15 8.85 16.8 13.55 7.4 L21.2 7.4 Q23.25 6.1 24.9 5.75 26.6 5.1 28.25 5.75 29.95 6.1 30.9 7.4 39.65 13.15 50.0 7.4 52.7 4.75 55.7 5.75 57.7 6.1 59.7 8.1 L66.05 8.1 Q70.4 15.1 68.05 25.8" fill="#00375b" fill-rule="evenodd" stroke="none"/>
    <path d="M68.05 25.8 Q70.75 30.15 70.4 33.15 70.4 35.15 68.75 36.2 L70.05 55.9 70.75 59.2 Q72.7 71.9 71.4 81.6 L74.1 81.6 74.1 88.9 Q61.7 91.95 49.0 90.3 L40.3 88.6 40.3 81.6 38.65 72.55 36.95 81.25 37.6 81.25 37.6 88.6 28.6 89.95 Q15.55 91.3 3.85 88.6 L3.85 81.25 6.55 81.25 Q5.15 71.6 7.2 58.9 L7.55 58.55 7.55 57.9 Q7.55 57.2 7.85 56.2 L9.2 36.2 Q8.2 34.5 8.2 32.85 8.2 30.45 10.55 27.15 8.85 16.8 13.55 7.4 L21.2 7.4 Q23.25 6.1 24.9 5.75 26.6 5.1 28.25 5.75 29.95 6.1 30.9 7.4 39.65 13.15 50.0 7.4 52.7 4.75 55.7 5.75 57.7 6.1 59.7 8.1 L66.05 8.1 Q70.4 15.1 68.05 25.8 Z" fill="none" stroke="#202235" stroke-linecap="round" stroke-linejoin="round" stroke-width="6.0"/>
    <path d="M38.3 69.55 Q36.6 69.2 35.6 67.9 34.6 67.2 34.6 65.25 L34.6 56.15 38.3 56.15 38.3 69.55" fill="#8a817b" fill-rule="evenodd" stroke="none"/>
    <path d="M39.6 56.15 L39.6 69.9 38.3 69.55 38.3 56.15 39.6 56.15" fill="#9c928b" fill-rule="evenodd" stroke="none"/>
    <path d="M30.9 81.6 L33.25 70.2 Q31.95 70.2 29.95 68.85 L27.55 67.55 30.25 67.2 Q31.6 67.2 33.25 66.2 31.6 66.2 30.55 65.55 L27.25 64.55 Q28.6 64.55 30.25 63.55 31.95 62.85 32.6 61.55 L32.6 61.2 18.55 60.2 7.2 58.85 7.5 58.85 7.5 57.85 Q7.85 57.2 7.85 56.15 L34.6 56.15 34.6 65.25 Q34.6 67.2 35.6 67.9 36.6 69.2 38.3 69.55 L39.6 69.9 39.6 56.15 70.05 56.15 70.7 59.15 Q65.05 58.85 57.7 59.5 L42.95 60.2 Q42.95 62.85 42.65 63.85 43.95 63.55 45.3 62.85 44.65 65.55 43.3 66.2 L43.6 66.2 46.3 65.55 Q48.3 64.55 49.0 64.55 48.65 64.55 46.6 66.55 L43.6 68.85 Q44.3 69.9 45.65 73.9 L47.3 82.25 40.25 81.6 38.6 72.55 36.95 81.6 30.9 81.6" fill="#776e69" fill-rule="evenodd" stroke="none"/>
    <path d="M7.2 58.85 L18.55 60.2 32.6 61.2 32.6 61.55 Q31.95 62.85 30.25 63.55 28.6 64.55 27.25 64.55 L30.55 65.55 Q31.6 66.2 33.25 66.2 31.6 67.2 30.25 67.2 L27.55 67.55 29.95 68.85 Q31.95 70.2 33.25 70.2 L30.9 81.6 Q18.2 83.25 6.5 81.6 5.15 71.55 7.2 59.15 L7.2 58.85 M47.3 82.25 L45.65 73.9 Q44.3 69.9 43.6 68.85 L46.6 66.55 Q48.65 64.55 49.0 64.55 48.3 64.55 46.3 65.55 L43.6 66.2 43.3 66.2 Q44.65 65.55 45.3 62.85 43.95 63.55 42.65 63.85 42.95 62.85 42.95 60.2 L57.7 59.5 Q65.05 58.85 70.7 59.15 72.7 71.9 71.4 81.6 59.0 83.25 47.3 82.25" fill="#b8b1ab" fill-rule="evenodd" stroke="none"/>
    <path d="M6.5 81.6 Q18.2 83.25 30.9 81.6 30.25 86.6 28.6 90.25 15.55 91.6 3.85 88.9 L3.85 81.6 6.5 81.6 M49.0 90.25 L47.3 82.25 Q59.0 83.25 71.4 81.6 L74.05 81.6 74.05 88.9 Q61.7 92.25 49.0 90.25" fill="#2275ab" fill-rule="evenodd" stroke="none"/>
    <path d="M30.9 81.6 L36.95 81.6 37.6 81.6 37.6 88.9 28.6 90.25 Q30.25 86.6 30.9 81.6 M40.25 81.6 L47.3 82.25 49.0 90.25 40.25 88.55 40.25 81.6" fill="#064f7e" fill-rule="evenodd" stroke="none"/>
    <path d="M70.4 33.45 Q68.7 33.8 63.35 29.15 57.0 21.45 54.65 11.1 54.35 5.75 55.7 5.75 57.7 6.1 59.65 7.75 59.0 18.8 68.05 25.8 70.7 30.45 70.4 33.45 M24.9 5.4 Q27.25 7.4 25.25 14.75 L22.25 20.75 Q16.9 29.45 8.15 33.1 8.15 30.45 10.55 27.45 20.85 18.1 21.2 7.4 L24.9 5.4" fill="#eed09f" fill-rule="evenodd" stroke="none"/>
    <path d="M55.7 5.75 Q54.35 5.75 54.65 11.1 57.0 21.45 63.35 29.15 68.7 33.8 70.4 33.45 70.4 35.15 68.7 36.45 59.0 31.45 53.65 19.45 L52.35 16.1 51.65 14.1 Q50.65 11.1 49.95 7.75 L49.95 7.4 Q52.65 4.4 55.7 5.75 M40.95 32.5 Q42.95 32.8 43.95 34.15 45.3 35.85 45.0 38.5 44.65 40.8 42.65 41.85 41.95 42.5 40.6 42.8 L36.95 42.8 38.6 43.5 39.3 44.15 Q41.95 44.5 43.6 42.8 45.65 41.5 46.0 39.45 46.6 37.5 46.0 35.85 46.0 34.8 45.0 33.8 43.6 31.8 41.65 31.45 39.3 31.15 37.95 31.8 36.6 32.5 35.6 33.8 35.95 33.45 36.6 33.45 38.3 32.15 39.95 32.5 L40.95 32.5 M45.3 32.5 Q47.3 35.15 47.3 37.8 47.3 40.5 45.65 42.2 L45.3 42.8 Q42.95 44.85 39.95 44.85 36.95 44.85 34.95 42.8 32.95 40.8 32.95 37.8 32.95 34.8 34.95 32.5 35.3 32.15 35.6 32.15 L36.95 31.15 39.3 30.45 39.95 30.45 Q42.65 30.45 44.3 31.8 L45.3 32.5 M27.9 17.75 Q24.9 24.8 18.55 30.45 14.5 33.8 9.2 36.15 8.15 34.8 8.15 33.1 16.9 29.45 22.25 20.75 L25.25 14.75 Q27.25 7.4 24.9 5.4 26.6 5.1 28.25 5.75 29.95 6.1 30.9 7.4 L30.9 8.1 Q30.25 11.4 29.25 14.45 L27.9 17.75" fill="#e5ac4f" fill-rule="evenodd" stroke="none"/>
    <path d="M68.05 25.8 Q59.0 18.8 59.65 7.75 L66.0 7.75 Q70.4 15.1 68.05 25.8 M51.65 14.1 L52.35 16.1 Q50.3 26.45 46.0 30.45 43.95 28.8 40.25 28.8 37.6 28.8 35.6 30.1 31.6 25.15 29.25 14.45 34.25 18.45 42.3 17.75 46.95 17.1 51.65 14.1 M53.65 19.45 Q59.0 31.45 68.7 36.45 L70.05 56.5 Q40.6 59.85 15.55 57.2 15.9 54.85 15.9 50.85 15.9 46.15 16.55 41.15 16.9 34.8 18.55 30.45 24.9 24.8 27.9 17.75 30.25 27.1 33.9 31.15 L32.95 31.8 32.25 32.8 Q29.95 35.5 29.95 39.15 29.95 43.5 32.95 46.5 35.95 49.5 40.25 49.5 L41.65 49.5 Q45.0 49.15 47.65 46.5 50.65 43.5 50.65 39.15 50.65 35.5 47.65 31.8 52.0 26.45 53.65 19.45 M21.2 7.4 Q20.85 18.1 10.55 27.45 8.85 16.45 13.55 7.4 L21.2 7.4" fill="#2275ab" fill-rule="evenodd" stroke="none"/>
    <path d="M49.95 7.4 L49.95 7.75 Q50.65 11.1 51.65 14.1 46.95 17.1 42.3 17.75 34.25 18.45 29.25 14.45 30.25 11.4 30.9 8.1 L30.9 7.4 Q39.6 13.1 49.95 7.4" fill="#054a77" fill-rule="evenodd" stroke="none"/>
    <path d="M52.35 16.1 L53.65 19.45 Q52.0 26.45 47.65 31.8 L46.0 30.45 Q50.3 26.45 52.35 16.1 M29.25 14.45 Q31.6 25.15 35.6 30.1 34.6 30.45 33.9 31.15 30.25 27.1 27.9 17.75 L29.25 14.45" fill="#020403" fill-rule="evenodd" stroke="none"/>
    <path d="M40.95 32.5 L39.95 32.5 Q38.3 32.15 36.6 33.45 35.95 33.45 35.6 33.8 36.6 32.5 37.95 31.8 39.3 31.15 41.65 31.45 43.6 31.8 45.0 33.8 46.0 34.8 46.0 35.85 46.6 37.5 46.0 39.45 45.65 41.5 43.6 42.8 41.95 44.5 39.3 44.15 L38.6 43.5 36.95 42.8 40.6 42.8 Q41.95 42.5 42.65 41.85 44.65 40.8 45.0 38.5 45.3 35.85 43.95 34.15 42.95 32.8 40.95 32.5" fill="#f7c87a" fill-rule="evenodd" stroke="none"/>
    <path d="M35.6 30.1 Q37.6 28.8 40.25 28.8 43.95 28.8 46.0 30.45 L47.65 31.8 Q50.65 35.5 50.65 39.15 50.65 43.5 47.65 46.5 45.0 49.15 41.65 49.5 L40.25 49.5 Q35.95 49.5 32.95 46.5 29.95 43.5 29.95 39.15 29.95 35.5 32.25 32.8 L32.95 31.8 33.9 31.15 Q34.6 30.45 35.6 30.1 M45.3 32.5 L44.3 31.8 Q42.65 30.45 39.95 30.45 L39.3 30.45 36.95 31.15 35.6 32.15 Q35.3 32.15 34.95 32.5 32.95 34.8 32.95 37.8 32.95 40.8 34.95 42.8 36.95 44.85 39.95 44.85 42.95 44.85 45.3 42.8 L45.65 42.2 Q47.3 40.5 47.3 37.8 47.3 35.15 45.3 32.5" fill="#af2e29" fill-rule="evenodd" stroke="none"/>
    <path d="M18.55 30.45 Q16.9 34.8 16.55 41.15 15.9 46.15 15.9 50.85 15.9 54.85 15.55 57.2 L7.85 56.5 9.2 36.15 Q14.5 33.8 18.55 30.45" fill="#064f7e" fill-rule="evenodd" stroke="none"/>
    <path d="M36.95 35.15 Q38.3 35.15 38.95 35.85 39.6 36.45 39.6 37.5 39.6 38.5 38.95 39.45 38.3 40.15 36.95 40.15 35.95 40.15 35.3 39.45 34.25 38.5 34.25 37.5 34.25 36.45 35.3 35.85 35.95 35.15 36.95 35.15" fill="#f7c87a" fill-rule="evenodd" stroke="none"/>
    <path d="M37.95 41.5 Q37.25 41.5 36.95 41.15 36.6 40.5 36.6 39.8 36.6 39.45 36.95 38.85 37.25 38.5 37.95 38.5 L39.3 38.85 39.6 39.8 39.3 41.15 37.95 41.5" fill="#ffe4b8" fill-rule="evenodd" stroke="none"/>
  </g>
</svg>
