<?xml version="1.0" encoding="UTF-8" standalone="no"?>
<svg xmlns:xlink="http://www.w3.org/1999/xlink" height="1.45px" width="5.95px" xmlns="http://www.w3.org/2000/svg">
  <g transform="matrix(1.0, 0.0, 0.0, 1.0, -11.9, -25.95)">
    <path d="M17.8 26.9 L17.65 26.9 17.85 26.95 17.8 26.9 M17.65 26.5 L17.25 26.2 17.25 26.9 17.15 26.8 17.0 26.75 16.9 26.5 16.45 26.35 15.8 26.15 15.4 25.95 14.55 26.2 14.2 26.35 14.2 26.5 14.1 26.5 14.05 26.6 13.65 26.45 13.35 26.5 13.4 26.6 13.45 26.6 13.5 26.75 13.65 26.75 13.85 26.75 13.9 26.75 14.05 26.8 14.5 27.1 15.05 27.4 15.15 27.25 15.25 27.0 16.05 27.0 15.65 27.25 15.3 27.4 15.05 27.4 14.9 27.4 14.2 27.2 13.9 27.15 13.9 27.3 13.8 27.4 13.5 27.4 13.15 27.3 13.0 27.35 12.45 27.4 12.45 27.3 12.3 27.3 12.3 27.15 12.45 27.1 11.9 27.15 11.9 27.0 12.1 26.95 11.9 27.15 M13.5 26.9 L13.5 26.75 13.45 26.75 13.5 26.9 13.65 26.9 13.65 26.75 M13.5 26.9 L13.5 26.95 13.65 26.95 13.65 26.9 13.7 26.9 13.85 26.75 M13.5 27.0 L13.5 27.05 13.9 27.15 13.9 27.0 13.8 26.95 13.8 26.9 13.65 26.95 13.55 27.0 13.5 27.0 13.5 26.95 13.3 27.0 13.5 27.05 13.4 27.15 13.35 27.2 13.35 27.3 13.25 27.3 13.15 27.3 13.1 27.3 12.45 27.3 12.45 27.1 12.45 27.05 12.6 26.8 12.95 26.75 13.4 26.6 13.45 26.75 13.1 26.8 13.25 26.9 13.5 26.9 M13.7 26.9 L13.8 26.9 13.9 26.9 13.9 26.75 M12.6 26.8 L12.6 26.9 12.75 27.05 12.8 27.05 12.9 27.05 12.95 27.05 12.95 26.9 13.25 26.9 13.25 27.0 13.3 27.0 13.25 27.05 13.2 27.1 13.2 27.15 13.35 27.15 13.4 27.15 M13.25 27.0 L13.1 27.0 12.95 27.05 13.25 27.05 13.25 27.0 M13.1 26.8 L12.95 26.75 M13.2 27.15 L13.1 27.3 12.8 27.05 12.45 27.1 12.75 27.05 M12.95 27.05 L12.95 27.15 13.2 27.15 M13.25 27.3 L13.35 27.2 13.35 27.15 M14.2 26.35 L13.65 26.45" fill="none" stroke="#000000" stroke-linecap="round" stroke-linejoin="round" stroke-opacity="0.94509804" stroke-width="0.05"/>
  </g>
</svg>
