<?xml version="1.0" encoding="UTF-8" standalone="no"?>
<svg xmlns:xlink="http://www.w3.org/1999/xlink" height="8.15px" width="38.0px" xmlns="http://www.w3.org/2000/svg">
  <g transform="matrix(1.0, 0.0, 0.0, 1.0, 2.25, -19.1)">
    <path d="M26.35 20.6 L26.65 20.65 26.9 20.7 26.95 20.4 M0.2 20.0 L0.1 20.25 0.15 20.25 0.4 19.95 0.2 19.85 0.2 20.0 M0.1 20.25 L0.1 20.3 0.1 21.1 0.3 21.2 0.8 21.4 0.8 21.45 0.9 21.55 0.6 21.65 0.1 21.65 0.05 21.65 0.0 22.05 -1.0 21.6 -1.55 21.35 -2.25 21.0 -2.25 20.85 -1.55 21.35 -1.3 21.4 0.05 21.65 0.1 21.1 -0.25 21.0 -0.45 21.0 -0.75 21.25 -0.9 21.4 -0.9 21.25 -1.05 21.25 -0.95 20.65 -0.95 20.6 -1.2 21.4 -1.35 21.25 -1.35 19.5 -1.2 19.5 -1.05 19.7 -1.05 19.65 -0.85 19.35 -0.55 19.1 -0.4 19.35 -0.4 19.4 -0.1 19.8 0.1 19.8 0.2 19.85 0.25 19.6 0.2 19.3 M-0.1 19.8 L0.05 20.1 0.1 19.95 0.1 19.8 M0.4 19.95 L0.55 20.05 0.5 19.8 0.4 19.95 M1.75 20.85 L1.0 20.3 0.55 20.05 Q0.7 21.0 1.35 21.0 L1.6 21.0 1.75 20.85 M0.1 19.95 L0.1 20.25 0.05 20.1 -0.1 20.4 0.1 20.25 M15.95 26.35 L15.95 25.7 16.35 26.0 16.75 26.25 16.85 26.25 16.8 26.1 16.8 26.05 16.45 25.8 16.85 25.8 16.8 26.1 M3.15 26.35 Q2.9 26.55 2.8 26.85 L2.8 26.9 2.35 26.75 2.35 26.7 2.25 26.65 2.0 26.1 2.45 25.95 2.95 25.8 3.05 25.95 3.15 26.35 3.25 26.25 3.5 26.2 3.75 26.1 3.7 26.35 3.75 26.4 4.4 26.6 4.45 26.2 4.55 25.7 5.0 25.4 5.0 25.35 4.95 25.15 5.1 25.15 5.0 25.4 M3.5 26.8 L3.7 26.35 3.5 26.2 M2.8 26.85 L2.8 26.8 2.65 26.55 2.55 26.5 2.55 26.35 2.65 26.55 2.8 26.75 2.8 26.8 M2.35 26.7 L2.25 26.3 2.25 26.65 M34.8 27.25 L34.55 27.1 34.4 27.0 34.3 26.9 34.3 26.85 34.15 26.6 34.3 26.75 34.35 26.8 34.4 26.85 34.75 26.9 34.95 26.9 35.75 26.75 35.6 26.9 34.95 26.9 M34.3 26.85 L34.25 26.75 34.3 26.75 M34.4 27.0 L34.3 26.85 M34.4 26.85 L34.4 27.0 M28.9 26.25 L28.9 25.95 28.85 26.2 28.9 26.25 29.05 26.4 29.05 26.35 29.05 26.15 29.1 26.3 29.15 26.25 29.3 26.6 29.6 26.55 29.75 26.4 29.7 26.1 29.8 26.35 29.85 26.15 29.85 26.5 29.85 26.55 29.85 26.8 29.85 26.9 29.85 27.0 29.75 26.95 29.7 27.15 29.05 26.6 29.05 26.9 28.95 26.9 28.9 26.9 28.8 27.0 28.8 26.9 28.65 26.9 28.65 26.85 28.6 26.75 28.5 26.75 28.5 26.25 28.6 26.3 28.6 26.35 28.65 26.35 28.65 26.4 28.65 26.5 28.8 26.5 28.8 26.45 28.8 26.1 28.85 26.2 28.8 26.45 M29.05 26.6 L29.05 26.4 29.0 26.65 29.05 26.6 M29.05 26.35 L29.1 26.3 29.1 26.35 29.15 26.5 29.25 26.6 29.3 26.6 29.35 26.65 29.75 26.85 29.8 26.6 29.8 26.5 29.75 26.4 29.8 26.35 29.85 26.5 M28.8 26.5 L28.9 26.45 28.9 26.25 M28.9 26.45 L29.05 26.4 29.15 26.5 29.15 26.6 29.25 26.6 29.35 26.65 29.45 26.75 29.75 26.95 29.75 26.85 29.85 26.9 M28.65 26.4 L28.6 26.5 28.65 26.5 M28.65 26.4 L28.6 26.35 28.5 26.25 28.6 26.6 28.65 26.85 M28.95 26.9 L28.95 26.7 28.9 26.75 28.9 26.9 28.85 26.9 28.8 27.0 M28.9 26.75 L28.85 26.9 28.8 26.9 28.8 26.5 28.65 26.9 M28.9 26.45 L28.9 26.75 M28.95 26.7 L29.0 26.65 M29.8 26.6 L29.85 26.55 M29.85 26.8 L29.8 26.6 M-0.4 19.4 L-0.2 19.7 -0.15 19.8 -0.1 19.8 M-0.4 19.4 L-0.3 19.7 -0.3 19.8 -0.15 19.8 0.0 20.2 -0.15 20.2 -0.3 19.8 -0.75 20.25 Q-0.6 20.45 -0.2 20.45 L-0.1 20.4 -0.1 20.45 -0.7 20.7 -0.85 20.7 -0.85 20.8 -0.9 21.25 -0.7 21.15 -0.45 21.0 M-0.95 20.65 L-0.85 20.35 -0.8 20.3 -0.8 20.2 -0.9 20.2 -0.95 20.6 -1.05 20.6 -1.05 19.7 -0.8 20.15 -0.75 20.25 -0.8 20.3 -0.85 20.7 -0.95 20.65" fill="none" stroke="#000000" stroke-linecap="round" stroke-linejoin="round" stroke-opacity="0.94509804" stroke-width="0.05"/>
  </g>
</svg>
