<?xml version="1.0" encoding="UTF-8" standalone="no"?>
<svg xmlns:xlink="http://www.w3.org/1999/xlink" height="12.4px" width="26.6px" xmlns="http://www.w3.org/2000/svg">
  <g transform="matrix(1.0, 0.0, 0.0, 1.0, -2.05, -11.3)">
    <path d="M28.6 11.4 L28.4 11.7 28.35 11.75 28.4 11.85 Q28.5 12.25 28.2 12.95 L27.5 14.0 27.45 13.8 27.0 14.15 26.7 14.05 26.6 14.0 26.25 14.1 26.2 14.0 26.15 14.0 26.05 14.25 Q25.95 14.55 25.65 14.55 L25.45 14.55 25.3 14.35 25.05 14.75 24.95 14.75 24.95 14.55 24.85 14.65 24.65 15.05 24.3 14.6 24.0 14.15 24.0 14.25 23.9 14.25 23.9 13.8 24.05 13.95 24.05 13.8 24.15 13.3 24.35 13.95 24.5 13.6 24.75 13.4 24.9 13.45 24.95 13.5 24.95 13.75 25.3 13.5 25.75 13.5 26.05 13.5 26.15 13.8 26.15 13.95 26.35 13.9 26.6 14.0 26.85 13.75 27.1 13.2 27.2 13.2 27.2 13.65 27.3 13.4 27.4 13.4 27.45 13.8 27.8 13.05 28.1 12.25 28.3 11.95 28.25 11.95 28.35 11.75 28.25 11.6 28.4 11.45 28.6 11.4 28.65 11.3 28.65 11.4 28.6 11.4 M28.3 11.95 L28.35 11.9 28.4 11.85 M27.15 13.85 L27.1 14.0 27.0 14.0 27.15 13.85 27.15 13.8 27.2 13.75 27.2 13.65 M26.15 14.0 L26.15 13.95 26.05 14.2 26.05 14.25 M24.95 14.55 L24.95 13.75 24.85 13.8 24.35 13.95 24.25 14.0 24.05 13.95 24.0 14.15 M22.85 14.1 L22.75 14.5 22.65 14.85 22.65 14.45 22.75 14.1 22.5 14.25 22.45 14.45 22.35 14.35 22.3 14.45 22.25 14.65 22.15 14.65 22.0 14.2 21.9 13.9 21.9 14.6 21.4 13.8 21.35 13.8 21.25 13.8 21.3 13.85 21.45 14.1 21.7 14.55 21.4 14.05 21.3 13.85 21.2 13.8 21.15 13.85 21.05 13.9 21.0 14.25 20.95 14.55 20.75 14.55 20.45 14.25 20.2 14.1 20.05 14.0 20.05 14.1 20.0 14.0 19.95 14.0 19.95 13.9 20.05 14.0 20.05 13.8 20.45 14.25 20.7 13.9 20.95 13.7 21.2 13.8 21.25 13.8 21.2 13.6 21.4 13.8 21.65 13.95 21.8 14.15 21.85 14.0 21.9 13.8 21.9 13.9 22.15 14.15 22.35 14.35 22.5 14.25 22.5 14.15 22.55 13.9 22.7 13.95 22.85 14.0 22.85 14.1 M25.3 14.35 L25.2 14.25 24.95 14.55 M21.3 18.35 L21.2 19.1 21.1 19.8 21.1 20.0 21.4 19.5 21.45 19.45 21.4 19.15 21.45 18.65 21.5 18.4 21.5 18.35 21.3 18.35 M21.5 18.05 L21.6 18.0 21.5 18.4 21.6 18.45 21.7 18.15 21.75 18.15 21.65 17.95 21.5 17.7 21.1 18.25 20.85 19.05 20.85 19.15 21.15 18.55 21.5 18.05 M21.75 18.15 L21.8 18.15 21.85 18.3 21.9 18.5 22.05 18.25 22.15 18.4 22.25 18.45 22.35 19.15 22.55 18.55 22.55 18.35 22.65 17.85 Q22.7 17.55 22.9 17.4 L22.85 17.0 22.4 17.6 Q22.25 17.9 22.35 18.25 L22.25 18.25 22.2 17.9 22.15 17.4 21.8 18.05 21.75 18.15 21.75 18.2 21.8 18.25 21.75 18.7 21.9 18.5 21.9 18.55 21.75 18.8 21.7 18.9 21.6 19.4 21.6 19.15 21.6 18.9 21.55 18.9 21.45 19.45 21.6 19.7 22.3 19.15 22.35 19.15 22.35 19.2 22.5 18.7 22.55 18.6 22.55 18.55 M21.6 18.45 L21.6 18.5 21.6 18.75 21.6 18.85 21.75 18.2 M22.55 18.6 L22.55 19.05 22.9 18.7 22.95 18.25 22.9 17.7 22.9 17.4 M21.6 18.75 L21.55 18.9 21.5 19.05 21.6 18.5 M21.75 18.8 L21.7 18.85 21.7 18.9 21.6 19.15 M21.75 18.8 L21.75 18.7 21.6 18.85 21.6 18.9 M25.3 14.35 L25.75 13.5 M4.2 15.65 L4.15 15.35 4.2 15.5 4.2 15.65 4.35 15.9 4.8 16.55 5.15 16.8 5.45 17.0 Q5.85 17.0 5.9 16.45 L5.9 16.35 5.6 16.0 5.55 16.1 5.4 16.85 5.35 16.35 5.3 16.35 5.3 16.25 5.25 16.2 5.2 16.25 5.3 16.45 5.2 16.35 5.15 16.25 5.1 16.25 4.65 16.05 4.35 15.2 4.4 15.2 4.9 15.75 5.05 16.0 5.0 15.8 4.8 15.15 4.9 15.15 5.4 15.75 5.55 15.95 5.6 15.9 5.75 15.6 5.85 15.6 5.85 15.4 5.75 15.4 5.55 15.3 5.45 15.3 5.0 15.05 4.6 15.05 4.6 14.6 4.5 14.55 4.5 14.75 4.45 14.6 4.35 14.85 4.2 14.7 4.15 14.85 4.1 14.55 3.8 14.2 3.1 13.6 3.0 13.55 3.0 13.6 2.55 13.4 2.15 13.2 2.15 13.35 2.05 12.85 2.25 13.1 2.3 13.1 2.4 12.25 2.45 13.1 3.0 13.55 3.0 13.3 3.65 13.9 3.65 13.4 3.95 13.85 4.15 14.15 4.15 13.5 4.25 13.5 4.5 14.0 4.6 14.15 4.6 14.2 4.65 14.25 4.6 14.1 4.65 14.1 4.6 13.6 5.05 13.9 5.65 14.0 5.75 13.5 5.85 13.5 6.1 13.95 6.15 14.15 6.2 14.25 6.25 14.35 6.3 14.45 6.35 14.45 6.35 14.2 6.35 13.8 6.4 13.85 6.45 13.7 6.45 13.95 6.45 14.05 6.5 14.35 6.5 14.4 6.55 14.45 6.65 14.2 6.9 13.6 7.05 13.8 7.1 13.8 7.1 13.7 7.4 13.95 7.4 13.8 7.65 14.0 8.2 14.45 8.25 14.35 8.3 14.55 8.4 14.6 8.8 14.95 8.8 14.85 8.55 14.5 8.5 14.15 8.95 14.75 9.15 14.85 9.3 14.95 9.2 14.35 9.05 14.3 8.4 13.9 8.5 13.9 9.3 13.9 9.6 13.95 9.85 13.95 10.2 13.8 10.05 13.6 12.8 13.5 Q13.7 13.5 14.45 13.9 15.2 14.25 15.1 14.65 L15.2 14.65 15.2 14.6 15.4 14.15 15.4 14.25 15.25 14.55 15.2 14.65 15.1 14.95 15.05 14.95 15.0 15.05 14.9 14.75 14.75 14.75 14.8 14.8 14.9 14.85 14.8 14.85 14.9 15.1 14.9 15.2 15.1 15.4 15.25 14.95 15.4 14.55 15.4 14.75 15.2 15.6 14.9 15.4 14.9 15.55 14.9 15.85 14.8 16.1 14.15 14.95 M7.65 14.0 L7.55 14.0 7.5 14.1 7.55 14.15 7.6 14.15 7.6 14.1 7.65 14.0 M7.6 14.1 L7.65 14.1 7.65 14.55 7.55 14.55 7.55 14.45 7.3 14.7 7.15 14.8 7.15 14.85 7.35 14.85 7.5 14.65 7.45 14.85 7.5 14.85 7.65 14.7 7.85 14.35 7.85 14.85 7.9 14.85 8.0 14.85 8.2 14.45 8.3 14.55 8.35 14.75 8.05 14.85 8.5 15.15 8.95 15.4 9.25 15.3 8.8 14.95 M8.05 14.85 L8.0 14.85 8.0 14.9 7.95 14.9 7.85 14.95 7.8 14.95 7.45 15.05 7.4 15.1 7.05 15.4 6.9 15.6 6.95 15.45 6.95 15.4 6.8 15.2 6.75 15.2 6.45 15.2 6.35 15.2 6.35 15.25 5.95 15.65 6.0 15.65 6.05 15.7 6.05 16.2 6.0 16.25 5.95 16.35 5.9 16.35 5.85 15.7 5.85 15.6 5.6 16.0 5.55 15.95 5.35 16.2 5.35 16.35 5.4 16.35 5.45 16.2 5.55 16.1 M7.5 14.85 L7.65 14.9 7.85 14.85 M7.65 14.9 L7.85 14.95 M7.95 14.9 L7.9 14.85 M9.25 15.3 L9.3 15.3 8.95 14.75 8.7 14.65 8.8 14.85 M9.85 13.95 L9.9 13.95 10.25 13.9 10.2 13.85 10.2 13.8 10.35 13.8 10.55 13.7 10.95 13.8 10.35 13.8 10.35 13.85 10.75 13.9 11.3 13.9 11.3 13.7 12.25 13.8 12.65 13.95 12.9 14.05 12.9 13.9 13.4 14.25 13.45 14.35 13.5 14.4 14.05 14.55 14.3 14.65 14.05 14.4 13.75 14.25 13.85 14.25 14.05 14.4 14.3 14.55 14.55 14.65 14.7 14.75 14.55 14.35 M9.85 14.3 L10.05 14.25 10.0 14.25 9.85 14.25 9.85 14.3 9.8 14.35 10.25 14.3 10.3 14.25 10.05 14.25 M9.75 14.65 L9.75 14.6 9.7 14.55 9.7 14.6 9.75 14.65 9.85 14.9 9.9 14.8 9.75 14.6 9.8 14.35 9.75 14.35 9.65 14.35 9.7 14.55 9.5 14.35 9.45 14.35 9.25 14.35 9.2 14.35 9.2 14.1 9.5 14.35 9.55 14.35 9.65 14.35 9.8 14.3 9.85 14.3 M9.6 13.95 L10.0 14.25 10.3 14.15 10.25 13.9 10.55 13.9 10.35 13.85 10.2 13.8 M14.05 14.55 L13.85 14.55 13.75 14.95 13.7 15.6 13.25 14.95 12.55 14.65 12.2 14.55 12.15 14.55 11.75 14.45 11.2 14.35 10.55 14.6 10.35 14.7 10.2 14.8 10.15 14.9 9.75 15.3 9.75 15.2 9.85 15.05 9.55 15.2 9.35 15.4 9.35 15.5 9.3 15.35 9.25 15.3 M9.3 15.3 L9.3 15.35 9.35 15.4 9.35 15.3 9.3 15.3 M9.35 15.3 L9.55 15.2 9.65 15.0 9.5 15.05 9.3 14.95 9.35 15.3 M9.85 14.9 L9.85 15.0 9.95 14.85 9.9 14.8 10.0 14.65 10.25 14.3 10.35 14.25 10.3 14.25 10.3 14.2 10.3 14.15 10.35 14.1 10.35 14.15 10.65 14.2 11.1 14.15 11.6 14.35 11.75 14.45 M9.85 15.05 L9.95 15.05 9.95 14.95 9.85 15.0 9.85 15.05 M10.25 14.3 L10.05 14.7 9.95 14.85 9.95 14.95 10.2 14.8 Q10.4 14.5 10.55 14.6 M9.75 14.65 L9.7 14.85 9.65 15.0 9.85 14.9 M9.6 13.95 L8.7 14.0 9.05 14.3 M7.05 13.8 L7.1 13.85 7.15 13.9 7.1 13.8 7.25 14.0 7.45 14.15 7.4 13.95 7.5 14.1 7.5 14.15 7.55 14.15 7.45 14.3 7.55 14.45 7.6 14.15 M7.05 13.8 L7.0 13.8 7.1 13.85 7.15 14.0 7.15 13.9 7.2 13.95 7.25 14.0 7.3 14.15 7.15 14.05 7.35 14.45 7.4 14.4 7.4 14.35 7.45 14.25 7.45 14.15 7.5 14.15 7.45 14.25 7.45 14.3 7.4 14.4 M6.55 14.45 L6.7 14.45 6.85 14.4 6.9 14.15 6.95 14.15 7.0 13.85 7.0 13.8 M6.15 14.15 L6.0 14.0 6.05 14.1 6.1 14.15 6.1 14.2 6.15 14.25 6.2 14.35 6.25 14.35 6.25 14.4 6.25 14.45 6.3 14.45 6.35 14.5 6.35 14.45 6.45 14.45 6.35 14.2 M6.0 14.0 L5.95 13.9 5.95 14.0 6.0 14.0 M5.8 14.45 L5.6 14.75 5.65 14.85 5.65 14.95 5.55 14.8 5.45 14.85 5.25 14.6 5.15 14.5 4.95 14.35 5.1 14.65 5.0 14.65 4.75 14.45 4.7 14.35 4.7 14.45 4.8 14.7 5.15 15.0 5.2 15.05 5.85 15.05 5.95 14.95 5.9 15.05 6.35 15.05 6.35 14.9 6.35 14.85 6.2 14.7 6.15 14.65 5.85 14.4 5.8 14.45 M6.2 14.7 L6.35 14.8 6.35 14.75 6.35 14.7 6.25 14.45 6.15 14.45 6.15 14.65 M6.25 14.4 L6.2 14.35 M6.05 14.1 L5.85 14.4 5.55 14.1 5.4 14.1 5.6 14.75 5.55 14.8 5.25 14.6 5.15 14.4 4.7 14.0 4.7 14.1 4.95 14.35 4.65 14.25 4.7 14.35 4.65 14.3 4.7 14.45 M5.2 15.05 L5.55 15.3 5.65 15.25 5.85 15.05 5.9 15.05 5.85 15.15 5.85 15.4 6.05 15.3 6.35 15.2 6.5 15.05 6.35 15.05 M7.15 14.0 L7.15 14.05 7.0 13.85 7.1 14.55 7.15 14.55 7.2 14.65 7.25 14.6 7.3 14.5 7.35 14.45 M7.0 14.15 L6.95 14.15 6.85 14.4 6.75 14.55 6.6 14.85 6.65 15.0 7.1 14.85 7.15 14.8 7.1 14.55 7.0 14.15 M6.45 14.05 L6.45 14.45 6.45 14.65 6.35 14.5 6.35 14.7 M6.65 15.0 L6.6 15.05 6.55 15.05 6.6 15.1 6.65 15.05 6.65 15.0 6.55 14.95 6.5 15.0 6.55 15.05 6.5 15.05 6.5 15.0 6.4 14.95 6.35 14.9 6.4 14.85 6.35 14.8 6.35 14.85 M6.8 15.2 L6.9 15.1 6.7 15.05 6.65 15.05 6.75 15.2 6.6 15.1 6.35 15.2 5.9 15.55 5.85 15.6 5.95 15.65 5.85 15.7 6.05 15.7 M6.9 15.1 L6.95 15.05 6.9 14.95 6.7 15.05 M6.55 14.45 L6.4 14.8 6.45 14.8 6.5 14.95 6.55 14.95 6.6 14.85 M6.4 14.85 L6.4 14.8 6.35 14.75 M6.5 14.95 L6.4 14.85 M6.8 15.2 L6.95 15.2 6.95 15.1 6.9 15.1 M6.95 15.1 L6.95 15.05 7.1 14.85 7.15 14.85 7.2 15.05 7.25 15.0 7.35 14.85 7.45 14.85 7.45 14.9 7.5 14.85 M7.45 14.9 L7.25 15.0 7.2 15.1 7.25 15.1 7.3 15.05 7.45 14.95 7.45 14.9 M7.25 15.1 L7.45 15.05 7.45 14.95 7.65 14.9 M7.15 15.2 L7.0 15.2 7.0 15.3 7.0 15.4 7.15 15.3 7.15 15.2 7.2 15.15 7.1 15.15 7.05 15.15 6.95 15.1 M7.1 14.85 L7.1 15.15 7.2 15.1 7.2 15.15 7.25 15.1 M7.15 15.3 L7.05 15.4 7.0 15.4 6.95 15.4 7.0 15.3 6.95 15.2 7.0 15.2 M7.2 15.15 L7.2 15.2 7.15 15.2 M7.15 14.8 L7.25 14.6 M6.45 13.95 L6.4 13.85 6.35 14.2 M5.3 16.25 L5.3 16.1 5.35 16.2 5.3 16.25 M5.2 16.25 L5.15 16.25 5.05 16.0 5.2 16.25 M8.95 16.9 L8.95 17.05 9.1 16.85 9.05 16.75 9.0 16.8 8.95 16.9 M9.1 16.75 L9.2 16.75 9.3 16.65 9.3 16.75 9.95 16.85 Q10.25 17.0 10.25 17.5 L10.25 17.6 10.25 17.7 10.25 17.85 10.25 17.9 10.2 17.9 10.2 18.0 10.15 18.35 10.05 18.35 10.05 18.1 10.0 18.15 10.0 18.2 9.95 18.55 9.85 18.5 9.8 18.5 9.65 18.75 9.55 18.65 9.55 18.45 9.5 18.45 9.2 18.25 8.9 18.0 8.4 17.2 8.45 17.0 8.4 16.85 8.5 16.9 8.6 17.0 8.8 16.95 9.0 16.8 9.0 16.55 9.05 16.75 9.1 16.75 M9.1 16.85 L9.35 17.3 9.3 16.75 9.2 16.75 9.1 16.8 9.1 16.85 M10.0 16.95 L9.95 16.85 9.9 16.95 10.0 16.95 10.05 16.95 10.1 17.1 10.15 17.1 10.2 17.35 10.25 17.6 10.2 17.75 10.25 17.85 10.2 17.9 10.15 17.9 10.05 18.05 10.05 18.1 M9.75 16.95 L9.35 17.3 9.35 17.55 9.4 17.55 9.7 17.2 9.9 16.95 9.75 16.95 M8.8 17.3 L8.9 17.05 8.8 17.2 8.8 17.3 M8.4 17.2 L9.15 18.15 9.15 18.1 9.1 17.7 9.15 17.55 8.95 17.45 8.5 17.3 8.4 17.2 M9.4 17.55 L9.7 17.25 9.7 17.2 9.95 17.1 10.0 17.05 10.0 16.95 M10.15 17.9 L10.1 17.45 10.1 17.35 10.0 17.05 10.05 17.0 10.1 17.1 10.1 17.35 M9.4 17.55 L9.35 17.6 9.35 17.55 9.3 17.6 9.55 17.9 9.9 17.45 9.95 17.1 M8.95 17.05 L8.9 17.05 M9.3 17.6 L9.2 17.6 9.15 17.55 9.2 17.5 9.3 17.6 M9.15 18.15 L9.2 18.2 9.2 18.25 M10.05 18.05 L10.05 17.85 10.0 18.15 9.9 18.3 9.8 18.5 9.75 18.45 9.75 18.4 9.55 18.45 9.55 17.9 9.6 18.0 9.75 18.4 9.9 18.3 10.05 17.75 10.05 17.85 M4.65 14.2 L4.7 14.1 4.65 14.1 4.65 14.2 4.65 14.25 4.65 14.3 M4.6 14.15 L4.5 14.15 4.5 14.5 4.55 14.4 4.6 14.3 4.6 14.25 4.6 14.2 M4.6 14.3 L4.65 14.25 4.6 14.25 M4.5 14.55 L4.45 14.55 4.45 14.6 4.5 14.55 4.5 14.5 M4.6 14.3 L4.6 14.6 4.8 14.7 4.85 14.75 5.0 15.05 5.2 15.05 M4.1 14.55 L4.1 14.5 4.05 14.15 4.45 14.55 4.3 14.55 4.2 14.7 4.1 14.55 M8.5 20.55 L8.5 21.05 8.3 20.75 Q8.15 21.2 8.35 21.6 L8.6 20.95 8.6 20.65 8.5 20.55 M7.95 21.15 L7.95 20.55 8.15 20.55 8.3 20.75 M19.55 14.8 L19.6 14.35 19.7 14.25 19.55 14.8 19.55 14.85 19.5 15.2 19.3 15.75 19.3 15.8 19.0 16.1 18.35 15.2 18.05 14.6 17.95 14.85 17.5 14.85 17.35 14.75 17.3 14.85 17.2 14.8 17.2 14.85 17.2 15.05 17.1 15.2 17.05 15.15 17.0 15.15 17.0 15.1 16.9 15.4 16.8 15.4 16.65 14.6 16.55 14.4 16.25 13.8 16.35 13.8 16.65 14.25 16.8 14.45 17.0 14.75 17.0 14.45 17.2 14.75 17.2 14.65 17.3 14.7 17.4 14.4 17.7 13.9 17.6 13.8 18.05 14.1 18.45 14.45 18.45 14.0 18.55 14.0 18.65 14.85 18.8 15.0 18.8 14.9 19.1 14.25 19.1 14.3 19.15 14.4 19.2 14.5 19.2 14.55 19.3 14.75 19.3 14.85 19.3 14.9 19.4 15.4 19.4 15.3 19.55 14.85 M18.45 14.55 L18.45 14.7 18.6 14.8 18.45 14.45 18.45 14.55 18.25 14.45 18.4 14.65 18.45 14.7 18.5 14.85 18.65 15.2 18.65 14.9 18.6 14.8 18.65 14.85 18.65 14.9 18.75 15.2 18.8 15.0 19.3 15.4 19.3 14.9 M18.15 14.4 L17.95 14.2 Q17.9 14.35 18.0 14.5 L18.1 14.45 18.15 14.4 18.25 14.45 18.1 14.45 18.05 14.6 18.0 14.5 M18.65 15.2 L18.7 15.35 18.75 15.2 19.0 15.8 19.3 15.8 M19.1 14.3 L19.15 14.45 19.15 14.4 M19.15 14.45 L19.2 14.5 M19.2 14.55 L19.25 14.7 19.25 14.75 19.3 14.85 M16.65 14.25 L16.65 14.6 17.0 15.1 17.0 14.75 17.2 14.85 M17.2 14.75 L17.2 14.8 17.3 14.7 17.35 14.75 17.5 14.4 17.7 13.9 17.95 14.2 M18.45 14.7 L18.65 15.6 18.65 15.5 18.7 15.35 M19.3 15.75 L19.3 15.4 M13.1 14.3 L13.2 14.25 13.05 14.2 13.1 14.3 13.15 14.4 13.5 14.95 13.6 14.95 13.45 14.35 13.2 14.25 M12.95 14.1 L12.95 14.05 12.9 14.05 12.7 14.0 12.75 14.15 12.8 14.15 12.95 14.2 12.95 14.1 13.0 14.1 12.95 14.05 M13.05 14.2 L12.95 14.2 12.95 14.25 13.0 14.35 13.1 14.3 M12.75 14.15 L12.1 13.9 12.05 13.9 11.95 13.9 11.3 13.9 Q11.35 14.3 12.2 14.55 L12.35 14.55 12.55 14.25 12.85 14.35 12.9 14.35 12.8 14.15 M13.0 14.35 L13.1 14.65 13.1 14.75 12.9 14.35 13.0 14.35 M13.05 14.2 L12.95 14.1 M14.9 15.4 L14.75 15.25 14.55 14.85 14.45 14.75 14.3 14.65 14.5 14.7 14.55 14.65 M14.55 14.85 L14.5 14.7 14.7 14.75 14.75 14.75 14.75 14.8 14.8 14.8 14.8 14.85 14.75 14.8 14.7 14.85 14.7 14.75 M14.9 15.4 L14.9 15.2 14.55 14.85 M10.55 13.9 L10.75 13.9 M11.2 14.35 L10.85 14.25 10.65 14.2 10.5 14.2 10.35 14.25 10.35 14.2 10.3 14.2 M10.3 14.15 L10.35 14.15 10.35 14.2 10.3 14.15 M12.6 14.0 L12.7 14.0 12.65 13.95 12.1 13.9 12.6 14.0 M10.15 17.9 L10.2 17.75 10.1 17.45 M14.25 17.5 L14.6 17.5 14.6 17.8 14.75 17.85 14.8 18.0 14.9 18.05 14.65 17.5 14.05 17.0 14.15 17.5 14.25 17.5 14.25 18.05 14.4 18.1 14.6 17.8 14.6 18.05 14.45 18.15 14.35 18.15 14.25 18.25 14.25 18.05 14.35 18.15 14.4 18.1 M12.6 21.9 L12.7 22.05 12.7 22.1 12.9 22.3 12.95 22.4 13.1 22.85 13.15 22.5 13.2 22.3 13.2 22.6 13.1 22.95 13.1 23.05 13.05 23.45 12.9 23.7 Q12.5 23.7 12.4 23.35 L12.35 22.7 12.4 22.2 12.45 21.7 12.55 21.8 12.55 21.7 12.6 21.9 12.55 21.8 12.65 22.1 12.7 22.05 M12.7 22.1 L12.8 22.35 12.9 22.55 12.95 22.4 M13.1 22.85 L12.9 22.55 12.9 22.6 12.8 22.95 12.8 23.55 13.1 22.95 13.1 22.85 M17.1 20.7 L17.1 20.65 17.05 20.55 16.9 20.35 16.9 20.85 17.1 20.85 17.1 20.7 17.15 20.95 17.15 21.15 17.2 20.95 17.3 20.95 17.3 21.5 17.2 21.5 17.15 21.15 17.0 21.9 16.9 21.9 16.9 21.8 16.65 22.2 16.6 21.75 16.55 21.3 16.55 20.95 Q16.55 20.85 16.7 20.85 L16.9 20.85 16.9 21.8 17.05 21.45 17.1 20.85" fill="none" stroke="#000000" stroke-linecap="round" stroke-linejoin="round" stroke-opacity="0.94509804" stroke-width="0.05"/>
  </g>
</svg>
