<?xml version="1.0" encoding="UTF-8" standalone="no"?>
<svg xmlns:xlink="http://www.w3.org/1999/xlink" height="21.0px" width="41.1px" xmlns="http://www.w3.org/2000/svg">
  <g transform="matrix(1.0, 0.0, 0.0, 1.0, 4.8, -10.15)">
    <path d="M27.6 10.35 L27.9 10.4 28.2 10.5 28.25 10.15 M29.95 17.25 L30.1 17.7 30.4 17.65 30.6 17.45 30.55 17.1 30.65 17.4 30.7 17.15 30.7 17.55 30.7 17.6 30.7 17.85 30.7 17.95 30.7 18.1 30.55 18.05 30.55 18.25 29.8 17.7 29.8 17.95 29.7 17.95 29.65 18.05 29.65 17.95 29.55 17.95 29.5 18.1 29.5 17.95 29.35 17.95 29.3 17.85 29.2 17.85 29.2 17.3 29.2 17.25 29.3 17.35 29.35 17.4 29.35 17.45 29.35 17.55 29.5 17.55 29.5 17.1 29.6 17.2 29.65 17.0 29.65 17.3 29.8 17.45 29.8 17.4 29.8 17.2 29.85 17.35 29.95 17.25 M29.8 17.45 L29.9 17.55 29.95 17.6 29.9 17.4 29.85 17.35 29.8 17.4 M30.55 18.05 L30.25 17.85 30.15 17.75 30.05 17.7 29.95 17.7 29.95 17.6 30.05 17.7 30.1 17.7 30.15 17.75 30.6 17.95 30.65 17.65 30.65 17.55 30.6 17.45 30.65 17.4 30.7 17.55 M29.8 17.45 L29.75 17.7 29.7 17.75 29.8 17.7 29.8 17.45 29.65 17.55 29.65 17.85 29.7 17.75 29.7 17.95 29.65 17.95 29.65 17.85 29.55 17.95 29.5 17.95 29.5 17.55 29.35 17.95 29.3 17.65 29.2 17.3 M29.6 17.2 L29.5 17.55 29.65 17.55 29.65 17.3 29.6 17.2 M29.35 17.45 L29.3 17.55 29.35 17.55 M29.3 17.35 L29.35 17.45 M23.0 21.6 L23.0 21.45 22.8 21.45 23.0 21.6 M23.0 20.9 L22.65 21.1 22.8 21.2 23.0 21.35 23.0 20.9 23.0 20.75 22.6 20.75 22.6 21.05 22.65 21.1 22.6 21.15 22.6 21.3 22.8 21.45 22.65 21.45 22.65 21.6 22.7 21.6 22.7 21.75 22.65 21.6 22.55 21.45 22.4 21.45 22.1 21.25 21.9 21.15 21.65 21.15 21.65 20.15 21.7 20.15 21.65 20.0 21.75 20.15 21.8 20.0 22.1 20.0 22.25 20.6 22.35 20.95 22.4 20.9 22.4 20.75 22.6 20.75 22.6 20.7 22.7 19.6 22.85 19.6 22.85 20.45 22.6 20.75 22.5 20.85 22.4 20.9 22.4 21.05 22.6 21.05 22.6 21.15 22.5 21.15 22.6 21.3 22.65 21.45 22.55 21.45 22.25 21.0 21.95 21.1 21.9 21.15 21.85 21.05 21.95 21.1 M23.15 21.45 L23.0 21.35 23.0 21.45 23.15 21.45 M21.75 20.15 L22.05 20.65 22.25 20.85 22.35 20.95 22.35 21.0 22.5 21.15 22.4 21.15 22.35 21.0 M21.75 20.15 L21.7 20.15 22.05 20.65 22.1 20.75 22.25 21.0 22.35 20.95 M28.25 23.45 L28.25 23.15 28.15 23.05 28.25 23.45 28.25 23.55 28.4 23.55 28.25 23.15 M28.15 23.05 L28.1 23.0 28.25 23.55 M30.7 17.6 L30.65 17.65 30.7 17.85 M30.6 17.95 L30.7 17.95 M30.6 17.95 L30.55 18.05 M32.15 24.2 L32.15 24.65 Q32.3 25.35 32.9 25.75 33.3 26.0 33.65 26.05 L33.75 25.4 33.7 25.1 33.4 25.05 32.65 24.45 33.15 24.45 32.75 24.25 33.4 24.25 Q34.0 24.3 34.15 25.15 L33.7 25.1 33.45 24.65 33.3 24.5 33.15 24.45 M-0.55 18.2 L-0.45 17.85 -0.45 17.7 -0.75 17.1 -0.2 16.95 0.3 16.85 0.45 16.95 0.45 17.25 0.25 17.35 -0.1 17.5 0.0 17.6 0.05 17.7 0.15 17.85 0.15 17.9 0.2 17.95 Q0.3 17.5 0.7 17.3 L0.95 17.25 1.25 17.1 1.15 17.4 1.25 17.45 2.0 17.7 2.05 17.25 2.15 16.7 2.65 16.35 2.65 16.3 2.6 16.1 2.75 16.1 2.65 16.3 M0.2 17.95 L0.45 18.4 0.95 17.85 1.15 17.4 0.95 17.25 M0.0 17.6 L0.0 17.65 0.05 17.7 0.15 17.9 0.15 18.1 0.2 17.95 M3.75 23.55 L4.0 23.55 4.1 23.65 4.4 23.75 4.65 24.35 4.6 24.6 4.55 24.6 3.8 24.05 3.7 23.8 3.6 23.8 3.35 23.8 3.35 23.7 3.45 23.55 3.6 23.55 3.75 23.55 M3.7 23.8 L3.65 23.65 3.6 23.7 3.6 23.8 M3.65 23.65 L3.6 23.55 M4.1 23.65 L4.15 23.7 4.15 23.8 3.7 23.8 M4.1 23.65 L3.65 23.65 M0.15 18.1 L-0.3 17.85 -0.35 17.8 -0.3 18.0 0.15 18.7 0.15 18.1 M15.0 17.4 L15.0 16.7 15.45 17.05 15.9 17.25 16.05 17.25 16.0 17.15 15.95 17.05 15.6 16.85 16.05 16.85 16.0 17.15 M9.75 27.8 L9.85 27.95 9.9 28.1 9.65 28.1 9.75 28.25 9.35 28.2 9.35 28.25 9.75 28.3 10.05 28.35 9.9 28.4 9.9 28.5 9.5 28.65 9.1 28.75 8.95 28.75 8.9 28.65 8.8 28.6 8.8 28.5 8.75 28.35 8.7 27.95 8.8 28.05 8.8 27.95 8.95 27.95 9.0 28.1 9.15 28.15 9.35 28.2 9.3 28.1 9.2 28.1 9.1 28.1 8.8 27.7 8.8 27.4 9.3 27.75 9.4 27.8 9.75 27.8 M9.3 28.1 L9.65 28.1 9.4 27.8 9.2 27.8 9.2 28.1 M9.1 28.75 L9.05 28.35 9.0 28.1 8.8 28.05 8.8 28.5 8.9 28.65 M35.5 26.75 L35.35 26.35 35.1 26.35 34.7 27.55 35.6 28.1 35.6 27.3 35.5 26.75 M34.2 25.55 L34.15 25.9 34.15 26.1 34.6 26.05 35.1 25.4 34.4 25.4 34.2 25.55 M34.6 28.1 Q34.4 28.9 34.0 28.9 33.7 28.9 33.45 28.35 33.2 27.75 33.35 27.15 L33.35 27.3 33.75 27.95 34.0 28.75 34.35 28.35 34.6 28.1 34.65 28.0 34.7 27.55 33.6 27.15 33.65 26.75 33.75 26.5 34.25 26.7 34.4 26.75 34.35 26.65 34.15 26.1 34.0 26.1 33.65 26.05 Q33.5 26.6 33.0 26.6 L32.3 26.35 31.7 25.55 Q32.1 25.4 32.15 24.9 L32.15 24.65 M34.4 26.75 L34.65 27.3 34.65 27.15 34.4 26.75 M36.3 31.15 L35.85 31.15 M-0.1 17.5 L-0.15 17.4 -0.15 17.55 0.0 17.6 M-0.45 17.7 L-0.45 17.35 -0.35 17.8 -0.45 17.7 M-2.25 22.75 L-2.55 22.35 Q-2.8 22.05 -3.05 22.05 -3.55 22.05 -3.75 22.45 L-3.85 23.0 -2.95 23.0 -2.55 23.15 -2.55 23.55 -2.75 23.7 -3.05 23.8 -3.55 23.7 -3.9 23.95 Q-4.3 24.0 -4.5 24.2 -4.8 24.4 -4.8 24.75 -4.8 25.25 -4.3 25.7 L-3.25 26.1 Q-2.9 26.1 -2.8 25.7 L-2.8 25.4 Q-3.2 25.7 -3.45 25.7 L-3.75 25.6 -3.9 25.4 -3.9 24.6 -3.9 24.35 -3.45 24.45 -3.2 24.35 -2.6 24.35 -2.4 24.35 -2.35 24.45 -2.25 24.65 Q-2.25 25.1 -2.8 25.4 L-2.8 25.3 -2.9 24.8 -3.15 24.65 -3.85 24.6 -3.9 24.6 M-3.55 23.7 L-3.8 23.45 -4.0 23.4 -4.0 23.15 -3.9 23.05 -3.9 23.0 -3.85 23.0 -3.9 23.15 -3.8 23.45 -3.4 23.55 -3.35 23.55 -3.35 23.5 Q-3.1 23.2 -2.8 23.25 L-2.8 23.4 -3.0 23.45 -3.35 23.55 -3.55 23.7 M-2.9 24.8 L-3.1 24.65 -3.15 24.65 -3.45 24.45 -3.85 24.6 M-2.9 24.8 L-2.8 24.9 -2.6 24.35" fill="none" stroke="#000000" stroke-linecap="round" stroke-linejoin="round" stroke-opacity="0.94509804" stroke-width="0.05"/>
  </g>
</svg>
