<?xml version="1.0" encoding="UTF-8" standalone="no"?>
<svg xmlns:xlink="http://www.w3.org/1999/xlink" height="25.55px" width="33.2px" xmlns="http://www.w3.org/2000/svg">
  <g transform="matrix(1.0, 0.0, 0.0, 1.0, 1.85, -3.0)">
    <path d="M23.8 5.0 L24.15 5.2 24.5 5.3 25.45 5.4 26.25 4.95 26.95 4.25 27.1 4.35 27.15 4.25 27.25 4.25 27.15 4.4 27.3 4.55 27.6 4.9 28.0 4.55 28.15 4.7 28.3 5.0 29.05 4.45 29.55 3.85 29.6 4.65 29.6 5.25 30.0 4.55 30.05 4.55 30.1 4.65 30.4 4.45 30.65 4.15 31.05 4.55 31.25 4.95 31.25 5.25 31.35 5.5 31.3 5.6 31.05 5.7 30.5 5.8 Q30.25 5.8 30.0 5.6 L29.55 5.4 29.0 5.9 27.75 6.15 27.5 6.15 Q27.35 6.1 27.35 5.7 L27.45 5.3 27.7 5.1 28.4 5.25 29.05 5.4 29.5 5.35 29.55 5.35 29.6 5.25 29.6 5.3 29.55 5.35 29.55 5.4 29.5 5.35 29.15 5.4 29.05 5.4 M31.25 5.25 L31.25 5.3 30.95 5.7 31.05 5.7 31.05 5.65 31.3 5.6 M24.15 5.2 L24.35 5.3 25.05 5.5 26.25 5.1 26.95 4.6 27.1 4.35 27.15 4.4 26.95 4.6 M5.05 5.6 L5.0 5.7 4.95 5.7 4.85 5.85 4.8 5.8 4.75 5.8 4.65 5.65 4.65 6.05 4.35 5.6 4.3 5.55 4.15 5.85 3.85 6.05 3.55 5.85 3.4 5.1 3.1 5.5 2.8 5.8 2.7 5.7 2.7 5.05 2.65 5.3 2.15 6.05 2.15 4.9 2.1 4.9 1.95 5.15 1.5 5.7 1.5 5.0 1.65 4.7 1.5 4.4 1.4 4.55 0.9 5.1 0.65 4.65 0.65 4.15 0.3 4.85 -0.15 5.4 Q-0.45 5.1 -0.4 4.5 L-0.4 3.9 -0.5 4.05 -0.5 3.6 -0.4 3.6 -0.4 3.9 -0.2 3.7 0.25 3.6 0.35 4.05 0.55 3.65 0.75 3.4 0.9 3.75 1.1 4.05 1.3 3.9 1.1 3.2 1.2 3.2 1.35 3.75 1.4 3.9 1.45 3.85 1.4 3.0 Q2.1 3.05 2.85 4.2 L3.15 4.7 3.2 4.5 3.2 4.8 3.35 5.05 3.4 5.1 3.6 5.1 3.55 5.0 3.55 4.9 3.5 4.8 3.5 4.75 3.5 4.55 4.0 4.55 4.15 4.7 4.15 4.65 4.45 4.05 4.65 4.2 4.9 4.4 5.1 5.05 5.05 5.4 5.05 5.6 5.65 5.55 5.6 5.7 5.9 6.15 6.25 6.25 6.9 6.05 7.05 5.85 6.65 5.7 6.15 5.45 Q5.8 5.2 5.8 4.75 6.15 5.45 6.65 5.65 L6.65 5.7 6.75 5.7 7.15 5.55 7.2 5.55 Q7.45 5.4 7.6 5.4 L7.8 5.5 7.9 5.3 8.15 5.5 8.45 5.7 8.75 5.5 8.9 5.2 9.35 5.45 9.4 5.7 9.55 5.65 9.8 5.6 9.9 5.95 9.95 6.35 10.05 6.35 10.2 5.95 10.25 5.5 10.6 5.85 10.85 6.25 Q11.4 6.05 11.6 5.4 L11.75 5.65 12.0 5.95 12.35 5.55 12.55 5.2 12.75 5.8 12.8 5.8 12.85 5.85 13.35 5.35 13.6 4.9 13.7 5.35 13.9 5.8 14.15 5.35 14.45 5.0 14.35 5.95 14.35 6.15 14.85 5.75 Q15.15 5.5 15.4 5.5 L15.5 5.85 15.6 6.15 15.75 6.2 15.9 6.25 15.95 6.45 16.0 6.65 16.1 6.45 16.1 6.2 16.1 5.35 16.1 5.05 16.2 4.8 16.25 4.9 16.7 5.65 16.8 5.9 17.15 6.15 17.3 4.75 17.3 4.8 17.4 5.6 17.4 6.55 16.95 7.05 16.9 7.15 16.5 7.65 16.9 8.05 Q17.4 8.05 17.7 7.2 L17.9 6.35 17.7 6.55 17.7 6.45 17.9 6.25 17.8 5.85 17.7 5.3 17.8 5.25 18.05 5.2 18.2 5.3 18.35 5.5 18.05 6.05 17.9 6.25 17.9 6.35 18.15 6.15 18.45 5.85 18.45 6.9 18.45 7.0 19.45 6.3 20.1 5.85 20.0 5.85 19.2 5.85 18.85 5.4 21.0 5.3 23.25 4.9 22.55 5.5 23.25 5.8 23.85 6.15 24.75 5.85 Q25.15 5.6 25.45 5.6 L25.9 6.05 26.55 5.25 26.95 4.6 M22.4 5.5 L21.35 5.7 20.9 5.75 20.95 5.95 22.15 5.65 22.55 5.5 22.4 5.5 M20.75 5.5 L20.1 5.85 20.9 5.75 20.75 5.5 M20.55 10.55 L20.65 11.0 M25.35 11.4 L25.2 11.6 25.2 11.55 25.15 11.65 25.05 12.05 25.05 11.95 25.15 11.65 25.15 11.6 25.2 11.3 25.2 11.55 25.35 11.4 25.5 11.1 25.85 11.8 25.95 11.8 26.0 11.4 26.05 10.9 26.05 10.85 26.15 11.0 Q26.2 10.65 25.5 10.5 L24.75 10.35 24.7 10.5 24.65 10.8 24.95 11.5 24.95 11.6 24.85 11.6 24.95 11.95 Q24.35 11.75 24.25 11.1 L24.35 11.1 24.6 11.4 24.85 11.6 24.7 11.2 24.5 10.85 24.25 10.85 24.25 10.35 24.35 10.35 24.5 10.85 M30.25 8.65 L30.3 8.5 30.3 8.65 30.25 8.65 30.2 8.35 30.1 8.35 30.1 8.45 30.05 8.55 30.0 8.75 30.0 8.45 30.1 8.45 M22.25 24.6 L22.25 24.3 22.2 24.3 22.25 24.6 M24.45 24.0 L24.75 23.8 25.1 23.8 24.75 24.65 24.9 24.85 M27.65 23.25 L27.25 24.0 27.2 23.3 27.55 22.55 M16.2 5.0 L16.1 6.2 16.15 6.4 16.25 6.25 16.45 5.8 16.55 5.8 16.65 7.1 16.95 7.05 16.95 6.5 16.8 5.9 16.6 5.7 Q16.25 5.35 16.25 5.0 L16.2 5.0 M11.6 10.7 L11.7 10.75 11.6 10.55 11.6 10.7 M16.1 6.85 L16.15 7.4 16.35 7.7 16.5 7.65 16.35 7.3 16.15 6.4 16.1 6.45 16.1 6.85 M16.9 12.25 L16.75 12.05 16.8 11.95 16.9 12.25 16.95 12.3 17.0 12.35 17.1 12.35 17.1 12.85 17.0 12.85 16.95 12.3 M7.2 5.55 L7.15 5.85 7.5 5.95 7.7 5.65 7.8 5.5 7.9 5.6 7.95 5.65 7.95 5.7 8.15 6.15 M7.2 5.55 L7.05 5.85 7.15 5.85 7.1 6.45 7.6 6.0 7.9 5.6 M1.45 3.85 L1.65 3.75 1.7 3.75 1.7 3.5 M1.75 4.15 L1.75 3.95 1.7 4.05 1.75 4.15 1.9 4.6 2.1 4.9 2.15 4.75 2.15 4.9 2.45 5.0 2.7 5.0 2.7 4.95 2.7 4.65 2.8 4.65 2.5 4.2 Q2.15 3.8 1.7 3.75 L1.7 4.05 1.7 4.4 1.75 4.15 M1.3 3.9 L1.4 3.9 1.5 4.25 1.5 4.15 1.45 3.85 M1.7 4.4 L1.7 4.5 1.7 4.75 1.65 4.7 1.7 4.5 M1.7 4.05 L1.5 4.4 1.3 3.9 M3.4 5.1 L3.45 5.15 3.6 5.25 3.6 5.1 M3.45 5.15 L3.9 5.5 3.9 5.4 3.75 5.3 3.6 5.25 M3.2 4.8 L3.15 4.7 3.0 4.95 3.2 5.3 3.2 4.8 M2.7 5.0 L2.85 5.0 3.0 4.95 2.8 4.65 2.7 4.95 M2.7 5.0 L2.7 5.05 M4.15 4.8 L4.2 4.85 4.35 5.2 4.25 5.2 4.15 4.8 4.15 4.7 4.1 4.75 4.0 5.0 3.9 5.4 4.0 5.4 4.05 5.0 4.1 5.2 4.15 5.5 4.3 5.5 4.25 5.4 4.15 5.4 4.15 5.3 4.25 5.4 M4.3 5.5 L4.35 5.5 4.35 5.3 4.4 5.35 4.45 5.1 4.4 4.85 4.35 4.75 4.25 4.7 4.15 4.65 M4.3 5.5 L4.3 5.55 4.35 5.5 4.4 5.35 4.55 5.5 4.65 5.65 4.65 5.25 4.65 4.2 M4.65 5.25 L4.75 5.6 4.85 5.65 4.95 5.7 5.05 5.6 M3.5 4.75 L4.0 5.0 M4.25 6.35 Q4.85 6.6 5.25 7.0 L5.55 7.25 5.6 7.25 Q5.95 7.7 6.35 7.7 L6.95 7.55 6.7 7.4 5.8 6.8 5.9 6.8 6.5 7.25 6.7 7.4 7.05 7.5 7.3 7.4 Q7.15 6.9 6.0 6.6 L4.7 6.35 4.25 6.35 M7.7 7.0 L7.55 7.25 7.65 7.2 7.8 7.0 7.7 7.0 M8.35 6.8 L8.75 6.35 9.1 6.75 8.35 6.8 8.0 6.9 7.8 7.1 7.65 7.2 7.5 7.4 7.3 7.55 7.3 7.6 7.25 7.6 7.15 7.65 Q6.65 8.05 6.4 8.05 L5.85 7.8 5.55 7.25 M7.05 7.5 L6.95 7.55 7.0 7.6 7.2 7.55 7.05 7.5 M7.25 7.6 L7.3 7.55 7.2 7.55 7.25 7.6 M7.3 7.55 L7.55 7.25 7.3 7.4 7.3 7.55 M5.1 11.85 L5.25 12.4 5.3 12.65 5.7 12.65 5.85 12.35 5.85 12.25 5.8 12.0 5.75 11.85 5.45 12.35 5.55 12.05 5.55 11.95 5.5 11.8 5.4 11.8 5.4 11.5 5.5 11.8 5.55 11.8 5.55 11.5 5.9 11.7 6.35 11.8 6.35 12.55 6.3 12.55 6.25 12.6 6.45 12.9 6.05 13.25 5.55 13.6 5.55 13.4 5.45 13.1 5.3 12.65 5.2 12.65 5.15 12.3 5.1 11.85 M5.75 11.85 L5.65 11.85 5.55 11.8 5.55 11.95 M5.85 12.35 L5.8 12.65 6.25 12.65 6.25 12.6 5.8 11.85 5.75 11.8 5.75 11.85 M5.75 11.8 L5.55 11.8 M9.0 13.9 L9.2 14.65 9.3 14.55 9.3 14.2 9.35 13.9 9.45 13.9 9.45 14.35 9.3 14.55 M5.8 12.65 L5.7 12.65 5.55 12.9 5.45 13.1 5.65 13.1 5.8 12.7 5.8 12.65 M1.45 13.2 L1.65 13.5 1.45 13.5 1.45 13.2 1.45 12.75 1.4 13.05 1.4 13.1 1.35 13.2 1.3 13.2 1.4 13.1 M4.25 18.95 Q4.25 19.3 4.4 19.5 M11.3 18.5 L11.35 18.85 11.5 19.2 11.6 19.25 11.7 19.3 Q11.6 19.0 11.85 18.5 L11.6 17.7 11.7 17.8 11.85 18.0 Q11.85 17.6 12.15 17.4 12.35 17.25 12.7 17.25 L12.9 16.95 13.2 17.3 13.3 17.3 13.3 17.5 13.4 17.65 13.5 17.3 13.5 17.4 13.4 17.65 13.45 17.75 13.7 18.2 13.75 18.05 Q13.95 17.4 14.35 17.4 L14.55 17.45 14.6 17.5 14.4 18.1 13.85 18.55 13.7 18.2 13.4 19.3 12.4 18.65 12.0 18.2 11.9 18.4 11.9 18.6 11.95 18.85 12.05 19.15 12.05 19.2 11.95 18.85 11.85 18.5 11.9 18.4 11.85 18.05 11.85 18.0 12.0 18.2 12.15 18.0 12.7 17.25 12.85 17.2 13.15 17.25 13.2 17.3 13.3 17.5 13.3 17.85 13.4 17.65 13.3 18.25 13.3 17.85 12.9 18.45 12.8 18.45 12.95 17.95 13.05 17.6 13.2 17.3 13.0 17.75 12.95 17.95 M19.0 20.1 L19.5 20.45 19.7 20.95 M18.6 24.7 L18.75 25.05 18.75 25.15 18.75 25.2 18.85 25.7 18.85 25.6 18.95 25.15 19.0 24.65 19.1 24.55 19.0 25.1 18.95 25.15 18.95 25.5 18.75 26.05 18.75 26.1 18.7 26.1 18.75 26.05 18.75 25.7 18.2 25.3 18.25 25.2 18.55 24.55 18.55 24.6 18.6 24.7 18.6 24.75 18.6 24.85 18.65 25.0 18.7 25.05 18.7 25.1 18.75 25.15 M18.75 25.7 L18.75 25.2 18.7 25.1 M16.25 25.7 L16.1 25.05 M14.65 25.9 L14.4 25.75 14.35 25.7 14.35 25.85 14.35 26.15 14.25 26.4 13.6 25.25 M13.2 25.25 L13.1 25.9 12.7 25.25 12.5 25.1 Q12.3 24.95 11.95 24.95 L11.65 24.85 11.8 24.85 11.95 24.6 M13.65 27.8 L13.7 27.75 13.7 27.8 14.05 27.8 14.05 28.1 14.2 28.15 14.25 28.25 14.35 28.35 14.1 27.8 13.5 27.3 13.6 27.8 13.65 27.8 13.7 27.8 13.7 28.35 13.8 28.4 14.05 28.1 14.05 28.35 13.85 28.45 13.8 28.45 13.7 28.55 13.7 28.35 13.8 28.45 13.8 28.4 M22.15 27.5 Q22.0 27.65 22.15 27.8 L22.05 28.1 M18.0 24.35 L18.05 24.8 M18.6 24.75 L18.55 24.6 M-1.85 23.7 L-1.85 24.55 -1.8 24.9 -1.3 24.35 -1.3 24.5 -1.4 24.9 -1.05 24.35 -1.45 24.15 -1.6 23.95 -1.45 23.8 -1.2 24.05 -1.25 23.95 -1.45 23.7 -1.45 23.55 -0.75 24.25 -0.25 24.75 -0.85 25.05 -0.95 25.1 -0.65 25.7 -0.75 25.8 -0.95 25.85 -1.4 25.55 -1.45 25.4 -1.5 25.65 -1.6 26.6 -1.75 25.4 -1.85 25.55 -1.85 25.15 -1.85 24.55 M-1.2 24.05 L-1.05 24.35 M-0.95 25.1 L-1.3 24.9 -1.4 25.05 -1.4 25.1 -1.45 25.15 -1.2 25.15 -0.95 25.1 M-1.4 24.9 L-1.4 25.05 M-1.8 24.9 L-1.75 25.4 -1.55 25.2 -1.6 25.15 -1.55 25.15 -1.45 25.0 -1.4 24.9 M-1.8 24.9 L-1.8 24.95 -1.85 25.15 M-1.55 25.2 L-1.55 25.15 -1.45 25.15 -1.45 25.4 -1.55 25.2" fill="none" stroke="#000000" stroke-linecap="round" stroke-linejoin="round" stroke-opacity="0.94509804" stroke-width="0.05"/>
  </g>
</svg>
