<?xml version="1.0" encoding="UTF-8" standalone="no"?>
<svg xmlns:xlink="http://www.w3.org/1999/xlink" height="89.25px" width="99.3px" xmlns="http://www.w3.org/2000/svg">
  <g transform="matrix(1.0, 0.0, 0.0, 1.0, 9.4, 5.7)">
    <path d="M16.05 -1.95 Q24.15 -2.95 31.5 -0.5 L49.75 -0.5 Q56.4 -4.0 64.5 -1.95 L67.65 -1.6 71.5 0.2 76.1 3.65 86.9 14.55 71.85 27.5 74.0 75.5 73.6 75.85 66.95 78.35 66.6 78.65 Q65.9 78.65 65.15 79.0 60.3 80.05 57.1 79.7 L49.75 79.35 44.85 78.35 44.45 78.35 41.7 77.3 41.7 69.5 37.1 69.5 37.1 77.6 35.0 78.35 33.65 78.65 29.75 80.05 22.45 80.45 Q17.8 80.45 12.9 78.35 L12.55 78.35 Q10.45 77.3 8.35 76.2 L4.5 73.45 9.05 27.1 -6.4 14.15 -1.1 8.55 2.35 5.1 4.1 2.95 Q8.35 -0.5 11.9 -1.6 L16.05 -1.95" fill="#082b5f" fill-rule="evenodd" stroke="none"/>
    <path d="M16.05 -1.95 L11.9 -1.6 Q8.35 -0.5 4.1 2.95 L2.35 5.1 -1.1 8.55 -6.4 14.15 9.05 27.1 4.5 73.45 8.35 76.2 Q10.45 77.3 12.55 78.35 L12.9 78.35 Q17.8 80.45 22.45 80.45 L29.75 80.05 33.65 78.65 35.0 78.35 37.1 77.6 37.1 69.5 41.7 69.5 41.7 77.3 44.45 78.35 44.85 78.35 49.75 79.35 57.1 79.7 Q60.3 80.05 65.15 79.0 65.9 78.65 66.6 78.65 L66.95 78.35 73.6 75.85 74.0 75.5 71.85 27.5 86.9 14.55 76.1 3.65 71.5 0.2 67.65 -1.6 64.5 -1.95 Q56.4 -4.0 49.75 -0.5 L31.5 -0.5 Q24.15 -2.95 16.05 -1.95 Z" fill="none" stroke="#202235" stroke-linecap="round" stroke-linejoin="round" stroke-width="6.0"/>
    <path d="M2.4 21.8 L-6.4 14.1 4.15 2.9 Q8.4 -0.95 11.85 -1.65 L18.55 -1.3 Q22.1 1.5 22.35 5.35 L22.1 5.35 Q20.3 7.4 18.85 9.55 16.05 13.7 14.7 16.55 L12.9 19.7 12.55 17.95 Q11.85 16.9 9.75 17.55 7.65 18.3 5.85 19.35 L2.4 21.8 M69.05 23.55 Q67.65 20.75 65.2 16.9 60.65 9.55 58.2 7.1 55.75 2.2 61.35 -0.95 64.15 -2.7 67.65 -1.65 71.15 -0.65 76.1 3.6 L86.95 14.4 76.1 23.9 Q73.95 21.1 71.85 19.7 69.4 17.95 69.4 19.7 69.05 21.45 69.4 21.8 69.05 22.85 69.05 23.55" fill="#062e6d" fill-rule="evenodd" stroke="none"/>
    <path d="M2.4 21.8 L5.85 19.35 Q7.65 18.3 9.75 17.55 11.85 16.9 12.55 17.95 L12.9 19.7 Q12.2 22.15 11.15 23.9 10.1 25.6 9.4 27.4 L2.4 21.8 M69.05 23.55 Q69.05 22.85 69.4 21.8 69.05 21.45 69.4 19.7 69.4 17.95 71.85 19.7 73.95 21.1 76.1 23.9 L71.15 28.1 69.05 23.55" fill="#022356" fill-rule="evenodd" stroke="none"/>
    <path d="M18.85 -2.4 Q21.0 1.1 26.25 5.35 L25.5 6.0 Q24.15 7.1 21.7 10.25 15.7 4.95 12.55 -0.65 L12.55 -0.95 Q15.7 -2.05 18.85 -2.4 M54.25 4.95 Q58.2 2.5 61.35 -2.7 64.15 -2.4 67.3 -0.95 63.1 6.0 58.5 10.25 L57.15 8.5 54.25 4.95" fill="#094e23" fill-rule="evenodd" stroke="none"/>
    <path d="M18.85 -2.4 Q25.5 -2.7 31.5 -0.65 L49.75 -0.65 Q55.05 -3.4 61.35 -2.7 58.2 2.5 54.25 4.95 51.9 6.35 49.75 7.1 44.85 8.85 39.9 8.85 35.65 8.85 31.5 7.4 L26.25 5.35 Q21.0 1.1 18.85 -2.4 M71.85 19.35 L71.85 30.2 68.7 24.25 68.7 23.9 68.35 23.55 68.35 23.25 Q68.35 20.1 71.85 19.35 M9.05 28.45 L10.45 17.25 Q12.55 19.7 13.25 21.8 L9.05 28.45" fill="#022356" fill-rule="evenodd" stroke="none"/>
    <path d="M31.5 7.4 Q35.65 8.85 39.9 8.85 L39.9 32.7 39.9 33.0 39.6 66.3 Q35.4 66.7 31.85 64.9 35.4 72.2 33.6 78.9 31.85 79.6 29.75 80.0 L30.8 38.25 31.5 7.4 M49.75 7.1 Q51.9 6.35 54.25 4.95 L57.15 8.5 57.15 29.55 57.15 29.85 57.15 32.3 57.15 35.1 Q56.75 34.05 56.75 32.7 L56.75 32.3 57.15 32.3 56.75 32.3 56.75 32.7 Q56.75 34.05 57.15 35.1 L57.15 80.0 Q51.5 80.0 49.75 79.25 L49.75 34.05 50.1 34.05 Q51.1 34.05 52.55 33.0 54.0 31.95 55.05 32.3 L56.75 32.3 57.15 29.85 56.75 32.3 55.05 32.3 Q54.0 31.95 52.55 33.0 51.1 34.05 50.1 34.05 L49.75 34.05 49.75 7.1 M66.6 78.55 Q65.9 78.55 65.2 78.9 L63.45 16.55 Q65.9 19.7 68.35 23.55 L68.7 23.9 68.7 24.25 Q67.65 48.1 69.7 68.05 69.7 75.4 66.6 78.55 M22.35 80.65 Q17.85 80.3 12.55 78.2 L17.45 15.85 Q19.95 12.3 21.7 10.25 24.15 7.1 25.5 6.0 L24.85 20.75 23.45 23.55 Q23.1 25.3 23.1 27.05 22.75 27.75 22.75 28.8 L22.75 31.3 22.75 32.3 23.1 32.7 23.1 33.35 Q22.75 34.05 22.75 35.1 L22.75 35.85 22.75 38.95 Q23.1 39.65 24.15 40.05 L22.35 80.65 M24.15 39.3 L24.15 40.05 Q22.1 43.15 19.95 43.15 L19.2 43.15 18.85 42.85 18.85 38.95 20.3 29.55 Q21.0 27.4 23.1 27.05 21.0 27.4 20.3 29.55 L18.85 38.95 18.85 42.85 19.2 43.15 19.95 43.15 Q22.1 43.15 24.15 40.05 23.1 39.65 22.75 38.95 L22.75 35.85 22.75 35.1 Q22.75 34.05 23.1 33.35 L23.1 32.7 24.15 33.35 Q24.15 33.0 24.45 32.7 L24.15 39.3 M30.8 38.25 L31.15 38.25 Q31.85 37.9 33.3 35.85 34.3 33.7 34.65 33.35 L34.65 35.45 Q35.0 36.5 36.45 36.5 38.15 36.5 38.55 35.45 L39.6 32.3 Q39.9 32.3 39.9 32.7 39.9 32.3 39.6 32.3 L38.55 35.45 Q38.15 36.5 36.45 36.5 35.0 36.5 34.65 35.45 L34.65 33.35 Q34.3 33.7 33.3 35.85 31.85 37.9 31.15 38.25 L30.8 38.25" fill="#e2dbd1" fill-rule="evenodd" stroke="none"/>
    <path d="M67.3 -0.95 Q68.7 -0.65 70.1 0.05 L71.85 19.35 Q68.35 20.1 68.35 23.25 L68.35 23.55 Q65.9 19.7 63.45 16.55 L58.5 10.25 Q63.1 6.0 67.3 -0.95 M10.45 17.25 L12.55 -0.65 Q15.7 4.95 21.7 10.25 19.95 12.3 17.45 15.85 15.0 19.0 13.25 21.8 12.55 19.7 10.45 17.25" fill="#062e6d" fill-rule="evenodd" stroke="none"/>
    <path d="M26.25 5.35 L31.5 7.4 30.8 38.25 28.7 38.25 Q30.45 36.15 30.8 34.05 L30.8 31.3 Q30.15 31.95 29.05 33.7 28.35 35.45 28.35 36.9 L28.35 37.6 28.7 38.25 28.35 38.25 Q26.25 40.05 24.85 40.05 L24.15 40.05 24.85 40.05 Q26.25 40.05 28.35 38.25 L28.7 38.25 28.35 37.6 28.35 36.9 Q28.35 35.45 29.05 33.7 30.15 31.95 30.8 31.3 L30.8 34.05 Q30.45 36.15 28.7 38.25 L30.8 38.25 29.75 80.0 22.35 80.65 24.15 40.05 24.15 39.3 24.45 38.95 Q25.5 36.9 27.65 30.2 L27.65 27.05 27.3 26.65 26.25 26.65 Q25.5 26.65 24.85 27.4 L23.45 30.2 Q23.1 31.6 23.1 32.7 23.1 31.6 23.45 30.2 L24.85 27.4 Q25.5 26.65 26.25 26.65 L27.3 26.65 27.65 27.05 27.65 30.2 Q25.5 36.9 24.45 38.95 L24.15 39.3 24.45 32.7 Q24.15 33.0 24.15 33.35 L23.1 32.7 22.75 32.3 22.75 31.3 22.75 28.8 Q22.75 27.75 23.1 27.05 23.1 25.3 23.45 23.55 L24.85 20.75 25.5 6.0 26.25 5.35 M39.9 8.85 Q44.85 8.85 49.75 7.1 L49.75 34.05 Q48.0 34.05 47.65 32.7 L46.6 30.2 Q45.9 31.6 44.85 32.7 43.45 34.75 42.4 34.75 40.7 34.75 39.9 33.0 40.7 34.75 42.4 34.75 43.45 34.75 44.85 32.7 45.9 31.6 46.6 30.2 L47.65 32.7 Q48.0 34.05 49.75 34.05 L49.75 79.25 44.5 78.2 Q42.75 71.95 46.2 64.55 42.75 65.9 39.6 66.3 L39.9 33.0 39.9 32.7 39.9 8.85 M65.2 78.9 Q60.3 80.0 57.15 80.0 L57.15 35.1 57.15 32.3 57.15 29.85 57.15 29.55 57.5 26.0 57.8 26.0 Q57.8 26.65 58.5 27.75 L59.25 29.15 Q59.25 31.6 58.2 32.3 L57.15 32.3 58.2 32.3 Q59.25 31.6 59.25 29.15 L58.5 27.75 Q57.8 26.65 57.8 26.0 L57.5 26.0 57.15 29.55 57.15 8.5 58.5 10.25 63.45 16.55 65.2 78.9 M12.55 78.2 Q10.45 77.5 8.4 76.15 7.65 73.0 8.0 68.05 L13.65 25.3 Q13.65 23.25 13.25 21.8 15.0 19.0 17.45 15.85 L12.55 78.2 M61.35 35.85 L60.65 35.85 Q60.3 36.15 60.65 36.9 L59.95 36.9 59.55 36.9 Q59.55 38.25 60.3 39.3 L60.65 38.95 61.35 38.95 61.35 37.9 61.35 36.5 61.35 35.85 61.35 33.35 60.65 32.7 Q59.95 33.35 59.55 34.75 L59.55 36.15 59.55 36.9 Q58.2 36.9 57.8 36.5 L57.15 35.1 57.8 36.5 Q58.2 36.9 59.55 36.9 L59.55 36.15 59.55 34.75 Q59.95 33.35 60.65 32.7 L61.35 33.35 61.35 35.85 61.35 36.5 61.35 37.9 61.35 38.95 60.65 38.95 60.3 39.3 Q59.55 38.25 59.55 36.9 L59.95 36.9 60.65 36.9 Q60.3 36.15 60.65 35.85 L61.35 35.85 M61.35 37.9 L60.65 36.9 60.95 36.9 61.35 36.5 60.95 36.9 60.65 36.9 61.35 37.9" fill="#eceae7" fill-rule="evenodd" stroke="none"/>
    <path d="M71.85 30.2 L73.95 75.75 73.65 75.75 Q70.1 77.5 66.6 78.55 69.7 75.4 69.7 68.05 67.65 48.1 68.7 24.25 L71.85 30.2 M39.6 69.45 L37.15 69.45 37.15 77.5 33.6 78.9 Q35.4 72.2 31.85 64.9 35.4 66.7 39.6 66.3 L39.6 69.45 M8.4 76.15 L4.5 73.65 9.05 28.45 13.25 21.8 Q13.65 23.25 13.65 25.3 L8.0 68.05 Q7.65 73.0 8.4 76.15" fill="#aaa091" fill-rule="evenodd" stroke="none"/>
    <path d="M44.5 78.2 L41.7 77.5 41.7 69.45 39.6 69.45 39.6 66.3 Q42.75 65.9 46.2 64.55 42.75 71.95 44.5 78.2" fill="#d4cdc3" fill-rule="evenodd" stroke="none"/>
    <path d="M57.15 32.3 L58.2 32.3 Q59.25 31.6 59.25 29.15 L58.5 27.75 Q57.8 26.65 57.8 26.0 L57.5 26.0 57.15 29.55 57.15 29.85 M57.15 35.1 L57.8 36.5 Q58.2 36.9 59.55 36.9 L59.55 36.15 59.55 34.75 Q59.95 33.35 60.65 32.7 L61.35 33.35 61.35 35.85 61.35 36.5 61.35 37.9 61.35 38.95 60.65 38.95 60.3 39.3 Q59.55 38.25 59.55 36.9 L59.95 36.9 60.65 36.9 Q60.3 36.15 60.65 35.85 L61.35 35.85 M49.75 34.05 L50.1 34.05 Q51.1 34.05 52.55 33.0 54.0 31.95 55.05 32.3 L56.75 32.3 57.15 29.85 M57.15 32.3 L56.75 32.3 56.75 32.7 Q56.75 34.05 57.15 35.1 M39.9 33.0 Q40.7 34.75 42.4 34.75 43.45 34.75 44.85 32.7 45.9 31.6 46.6 30.2 L47.65 32.7 Q48.0 34.05 49.75 34.05 M61.35 36.5 L60.95 36.9 60.65 36.9 61.35 37.9 M23.1 32.7 Q23.1 31.6 23.45 30.2 L24.85 27.4 Q25.5 26.65 26.25 26.65 L27.3 26.65 27.65 27.05 27.65 30.2 Q25.5 36.9 24.45 38.95 L24.15 39.3 24.15 40.05 24.85 40.05 Q26.25 40.05 28.35 38.25 L28.7 38.25 28.35 37.6 28.35 36.9 Q28.35 35.45 29.05 33.7 30.15 31.95 30.8 31.3 L30.8 34.05 Q30.45 36.15 28.7 38.25 L30.8 38.25 M24.15 40.05 Q22.1 43.15 19.95 43.15 L19.2 43.15 18.85 42.85 18.85 38.95 20.3 29.55 Q21.0 27.4 23.1 27.05 M39.9 33.0 L39.9 32.7 Q39.9 32.3 39.6 32.3 L38.55 35.45 Q38.15 36.5 36.45 36.5 35.0 36.5 34.65 35.45 L34.65 33.35 Q34.3 33.7 33.3 35.85 31.85 37.9 31.15 38.25 L30.8 38.25 M23.1 32.7 L23.1 33.35 Q22.75 34.05 22.75 35.1 L22.75 35.85 22.75 38.95 Q23.1 39.65 24.15 40.05" fill="none" stroke="#001b45" stroke-linecap="round" stroke-linejoin="round" stroke-width="2.0"/>
    <path d="M42.75 27.75 Q41.7 29.15 39.9 29.15 38.15 29.15 37.15 27.75 36.05 26.65 36.05 24.95 36.05 23.25 37.15 22.15 38.15 21.1 39.9 21.1 41.7 21.1 42.75 22.15 43.8 23.25 43.8 24.95 43.8 26.65 42.75 27.75" fill="#062e6d" fill-rule="evenodd" stroke="none"/>
    <path d="M42.75 44.55 Q41.35 45.65 39.9 45.65 38.15 45.65 36.75 44.55 35.65 43.5 35.65 41.75 35.65 40.05 36.75 38.95 38.15 37.9 39.9 37.9 41.35 37.9 42.75 38.95 43.8 40.05 43.8 41.75 43.8 43.5 42.75 44.55" fill="#062e6d" fill-rule="evenodd" stroke="none"/>
    <path d="M35.65 56.5 Q35.65 54.7 36.75 53.7 38.15 52.3 39.9 52.3 41.35 52.3 42.75 53.7 43.8 54.7 43.8 56.5 43.8 57.85 42.75 59.3 41.35 60.35 39.9 60.35 38.15 60.35 36.75 59.3 35.65 57.85 35.65 56.5" fill="#062e6d" fill-rule="evenodd" stroke="none"/>
    <path d="M47.3 15.85 Q42.75 16.9 38.9 16.55 L31.15 15.2 Q26.95 14.1 21.7 10.25 L25.9 4.95 Q33.6 8.85 39.9 8.85 46.2 9.15 54.25 4.95 L58.9 10.25 Q51.9 14.8 47.3 15.85" fill="#094e23" fill-rule="evenodd" stroke="none"/>
  </g>
</svg>
