<?xml version="1.0" encoding="UTF-8" standalone="no"?>
<svg xmlns:xlink="http://www.w3.org/1999/xlink" height="28.9px" width="31.95px" xmlns="http://www.w3.org/2000/svg">
  <g transform="matrix(1.0, 0.0, 0.0, 1.0, 0.8, 0.7)">
    <path d="M28.15 -0.7 L27.75 -0.4 Q27.5 -0.1 27.6 0.4 L27.4 0.65 27.45 0.75 27.65 0.65 28.1 0.2 28.3 -0.1 28.4 -0.3 28.4 -0.2 28.35 -0.15 28.2 0.1 28.0 0.55 28.05 0.35 28.1 0.2 M28.3 -0.1 L28.35 -0.15 M30.3 -0.35 L30.15 0.0 30.05 0.25 29.95 0.85 29.95 0.95 30.4 0.15 30.9 -0.55 30.85 -0.15 31.05 0.2 31.1 0.15 31.15 0.1 30.65 0.85 29.95 1.35 29.75 1.35 29.75 0.3 29.4 0.5 29.25 0.6 28.75 1.05 M2.65 1.35 L3.05 1.0 3.3 0.5 3.4 0.5 3.15 1.25 3.5 1.05 4.0 1.05 4.35 0.5 4.25 0.85 4.15 1.25 4.55 1.1 4.85 0.85 4.95 0.85 4.35 1.35 4.0 1.7 3.9 1.7 3.95 1.4 4.0 1.05 3.75 1.35 2.85 2.1 3.15 1.3 3.15 1.25 3.05 1.3 2.65 1.35 2.7 0.85 2.75 0.5 2.45 1.35 2.35 1.55 2.35 1.75 2.3 1.6 2.1 1.7 1.5 1.3 1.2 0.65 1.2 1.45 1.1 1.35 0.9 0.6 0.95 0.15 1.0 -0.2 1.1 -0.1 1.2 0.2 1.2 0.25 1.3 0.55 1.5 1.15 1.65 0.75 1.8 0.5 2.05 0.95 2.1 1.05 2.1 1.0 2.0 0.75 2.0 0.65 2.1 1.0 M27.45 0.75 L27.55 0.95 28.05 0.9 28.25 0.7 28.3 0.8 28.95 0.65 29.4 0.5 29.75 0.1 29.75 0.3 30.15 0.0 M28.05 0.9 L28.3 0.8 M27.55 0.95 L27.55 1.05 27.35 1.45 27.0 1.55 26.6 1.5 26.3 1.4 25.3 1.8 23.35 1.25 23.2 1.2 22.75 1.25 22.65 1.25 Q22.7 1.2 22.85 1.1 L21.05 0.6 22.35 0.3 22.25 0.15 21.7 -0.55 20.8 0.95 Q19.95 2.2 19.35 2.2 L19.2 2.2 17.95 2.4 17.6 2.3 17.4 2.0 17.4 1.7 16.95 1.6 16.85 1.8 16.85 1.65 16.85 1.6 16.55 1.55 16.3 1.5 14.55 1.35 14.45 1.35 13.8 1.45 13.6 1.45 13.9 1.9 13.05 1.7 12.95 1.55 13.6 1.45 13.3 1.2 12.7 0.95 12.1 1.15 12.0 1.15 12.25 1.0 12.6 0.95 12.7 0.95 14.15 0.6 15.1 0.5 Q16.1 0.5 16.55 1.0 L16.85 1.05 16.9 0.95 16.95 0.95 16.95 0.8 17.05 0.5 17.05 0.65 17.05 0.75 16.95 1.3 16.95 1.35 16.9 1.6 16.95 1.6 17.0 1.5 17.15 1.05 17.15 1.15 17.4 1.6 17.4 1.35 17.9 1.35 18.35 1.65 18.35 1.7 18.2 1.75 18.75 2.0 19.2 2.2 19.25 2.15 20.05 1.45 20.0 0.5 19.85 1.0 19.45 1.45 19.35 1.2 19.35 0.9 19.35 0.65 M27.45 0.75 L27.25 0.8 26.75 1.15 27.55 0.95 M27.25 0.8 L26.8 0.85 26.35 0.85 25.9 0.3 27.1 0.45 27.4 0.65 27.25 0.8 M26.3 1.4 L26.45 1.25 26.75 1.15 26.1 1.25 26.2 1.35 26.3 1.4 M25.1 0.75 L25.25 0.5 25.2 0.75 25.15 1.0 25.1 0.75 24.95 1.05 24.85 0.95 24.8 0.3 24.75 0.35 24.75 0.4 24.75 0.45 24.65 0.6 24.65 0.5 24.75 0.4 M24.8 0.3 L24.75 0.2 24.75 0.35 M24.6 0.0 L23.6 0.0 22.35 0.3 22.75 0.6 23.9 0.1 24.6 0.1 24.6 0.0 M24.6 0.1 Q24.35 0.15 23.55 0.65 L22.85 1.1 23.2 1.2 23.7 1.05 Q24.55 0.7 24.65 0.2 L24.6 0.15 24.6 0.1 M20.5 0.85 L20.05 1.45 20.1 1.65 20.3 1.35 20.5 0.95 20.5 0.85 M20.85 8.05 L20.85 8.0 21.0 7.55 21.1 7.5 20.95 6.75 20.95 5.9 21.45 6.65 21.55 7.2 21.95 7.0 21.75 7.6 21.3 8.15 21.2 8.65 20.8 9.2 20.7 9.15 20.55 9.8 20.55 9.9 20.4 9.45 20.35 8.9 20.35 8.85 20.7 9.15 20.85 8.05 20.55 8.65 20.55 8.55 20.55 6.95 20.55 7.15 20.35 7.95 19.95 9.2 19.95 9.1 19.85 9.7 19.75 9.75 19.7 9.9 19.35 8.4 19.25 7.9 19.25 7.95 18.8 9.0 18.8 8.9 18.95 7.9 19.0 7.0 19.25 7.9 19.5 6.65 19.7 6.7 20.0 6.75 20.3 6.35 20.15 6.25 19.85 6.45 19.85 6.25 20.15 6.25 20.45 6.0 20.75 5.75 20.35 6.3 20.3 6.35 20.5 6.65 20.55 6.35 20.55 6.8 20.55 6.95 M21.55 7.2 L21.6 7.4 21.25 7.45 21.1 7.65 21.15 7.9 21.3 8.15 21.2 8.15 21.15 7.9 M20.55 6.8 L20.5 6.65 20.25 7.75 19.95 9.1 20.0 8.2 20.0 7.7 19.95 7.5 19.95 7.4 20.0 7.7 M20.85 8.05 L21.05 7.7 21.1 7.65 21.1 7.5 21.25 7.45 21.55 7.2 M26.2 6.8 L26.2 6.95 26.25 6.95 26.2 6.8 M26.65 7.4 L26.45 7.2 26.25 7.0 26.25 7.25 26.25 7.85 M26.45 7.2 L26.25 6.95 26.25 7.0 M26.25 7.25 L26.2 6.95 25.85 6.75 M25.8 10.15 L25.85 10.45 25.95 10.85 26.65 10.05 26.45 10.55 26.25 10.75 26.3 10.6 26.35 10.55 26.25 10.75 M21.8 15.4 L21.55 15.45 21.5 15.8 21.55 16.1 21.6 16.35 21.7 16.25 21.8 16.0 Q21.85 15.9 22.0 15.9 L22.25 16.0 22.35 15.5 22.05 15.8 22.05 15.3 22.0 15.4 21.8 15.4 M24.9 24.6 L25.15 24.45 M27.2 24.45 L27.5 24.5 M30.35 24.55 L30.05 24.95 30.15 24.95 30.45 24.75 30.35 24.5 30.35 24.55 M29.5 23.7 L29.8 23.4 30.2 23.8 30.35 24.25 30.35 24.5 M18.2 1.75 L17.8 1.7 17.5 1.7 17.9 1.8 18.2 1.75 M17.05 0.75 L17.0 0.75 17.0 0.85 17.0 0.9 16.95 1.25 16.95 1.3 M16.9 0.95 L16.9 1.0 16.9 1.1 16.95 1.25 M16.9 1.0 L16.85 1.05 16.9 1.1 16.85 1.25 16.85 1.6 16.9 1.6 M17.0 0.9 L16.95 0.95 M16.75 1.3 L16.85 1.05 16.7 1.25 16.75 1.3 16.85 1.6 M16.55 1.55 L16.55 1.45 16.7 1.25 16.55 1.0 M17.4 1.6 L17.45 1.65 17.5 1.7 17.4 1.7 17.4 1.6 M16.75 1.3 L16.55 1.55 M14.45 1.35 L14.35 0.9 14.4 0.6 14.3 0.6 14.1 1.25 14.1 0.75 14.15 0.6 M6.45 0.5 L6.5 0.9 6.55 1.35 6.85 1.35 6.95 0.8 6.95 1.35 7.0 1.35 7.05 1.45 7.25 1.25 7.4 0.95 7.4 0.8 7.2 1.25 7.2 0.6 7.3 0.45 7.3 0.4 7.4 0.5 7.4 0.8 7.6 0.3 7.65 0.75 7.9 1.35 8.25 0.85 8.55 0.4 8.45 0.65 8.45 1.15 8.75 0.85 8.95 0.65 8.7 1.05 8.45 1.55 8.35 1.7 8.9 1.0 9.4 0.4 8.95 1.9 8.95 2.0 9.65 1.25 10.05 0.55 9.85 1.3 9.7 1.75 10.25 0.6 10.25 0.95 10.05 1.6 9.6 2.2 9.7 1.75 9.1 2.3 9.5 2.6 10.25 2.0 10.85 0.75 10.95 0.65 10.75 1.2 10.55 1.8 10.55 1.9 10.85 1.25 11.2 0.4 11.3 0.3 11.2 0.65 11.2 1.25 11.45 1.2 11.7 1.05 M12.7 7.3 L12.65 7.3 12.65 8.05 12.7 7.95 12.7 7.7 12.7 7.3 M12.7 7.7 L12.75 7.7 12.8 7.8 12.8 7.45 12.75 7.15 12.7 6.9 12.65 6.9 12.65 7.3 M7.75 1.5 L7.7 1.35 7.7 1.45 7.75 1.5 8.35 2.15 8.6 2.35 8.7 2.15 8.85 1.7 8.95 2.0 9.05 2.25 9.1 2.3 8.85 2.4 8.6 2.35 8.35 2.7 8.0 1.95 7.75 1.5 M2.1 1.05 L2.15 1.15 2.25 1.4 2.3 1.6 2.35 1.55 2.35 1.1 2.25 0.6 M2.25 1.4 L2.2 1.3 2.15 1.15 2.15 1.45 2.25 1.45 2.25 1.4 M1.2 0.25 L1.2 0.65 M1.55 7.65 L1.45 7.8 1.45 8.15 1.55 8.15 1.7 7.65 1.7 7.6 1.55 7.6 1.55 7.65 M1.7 7.65 L1.75 7.7 1.75 7.6 1.7 7.6 1.4 7.35 1.1 7.2 1.1 7.4 Q1.2 8.0 1.45 8.15 L1.45 8.25 1.55 8.15 1.75 8.15 1.95 7.25 1.85 6.9 1.95 6.9 1.95 7.25 M1.7 7.6 L1.75 7.3 1.75 7.6 M1.05 7.65 L1.0 8.05 1.0 7.95 1.05 7.65 1.05 7.4 1.1 7.2 M7.85 7.2 L7.85 8.0 8.05 7.6 7.95 7.3 7.85 7.2 M9.0 8.55 L9.0 9.0 8.9 9.0 8.9 8.55 8.9 7.8 9.0 8.55 9.05 8.35 9.1 8.05 9.05 7.85 8.8 7.7 8.6 8.05 8.15 7.5 8.05 7.6 8.05 7.95 8.05 8.35 8.15 7.8 8.15 7.7 8.4 8.4 8.5 8.8 8.5 9.1 8.5 9.0 8.5 8.8 M7.85 8.0 L7.85 8.1 7.85 8.65 7.95 8.65 8.0 8.35 8.05 8.35 7.95 8.65 M7.85 8.1 L7.75 8.65 7.85 8.65 7.85 8.85 7.95 8.65 M8.9 8.55 L9.0 8.55 M8.8 15.3 L8.95 14.65 8.95 14.55 8.9 14.4 8.8 14.1 8.8 15.3 M9.2 14.0 L9.15 14.55 9.0 15.2 9.0 15.15 8.95 14.65 8.9 14.4 M4.9 14.0 L4.6 14.0 5.2 14.75 5.1 14.25 M13.5 13.05 L13.75 14.35 13.85 14.35 13.85 13.4 14.05 13.9 14.35 13.8 M13.5 19.45 L13.4 19.5 13.3 19.5 13.55 19.4 13.5 19.45 M15.8 24.9 L15.6 24.55 15.4 24.3 M16.0 27.35 L15.65 26.9 15.5 26.95 15.3 26.7 15.35 26.1 15.5 26.55 15.65 26.9 M15.75 25.6 L15.75 26.4 M11.5 24.85 L11.1 25.25 10.85 24.9 10.7 24.65 Q10.5 25.35 9.95 25.5 L9.75 25.1 M6.3 24.9 L5.85 24.95 5.8 24.95 6.15 25.1 6.3 24.9 6.3 25.1 6.3 25.15 6.5 25.2 6.2 25.7 6.3 25.15 6.15 25.1 6.0 25.3 5.35 25.5 5.0 25.4 4.7 25.0 4.75 24.7 M5.75 24.95 L5.25 24.75 Q4.95 24.45 4.9 24.0 5.25 24.7 5.75 24.95 L5.8 24.95 M4.5 26.1 L4.65 26.5 4.7 26.55 Q5.05 26.95 5.45 26.95 L6.05 26.85 5.8 26.65 Q5.05 26.4 4.9 26.1 L5.0 26.1 5.6 26.55 5.8 26.65 6.15 26.8 6.4 26.7 Q6.25 26.15 5.15 25.85 L4.35 25.7 M4.65 26.5 L4.95 27.1 Q5.1 27.35 5.5 27.35 L6.25 26.95 6.35 26.85 6.15 26.85 6.05 26.85 6.15 26.8 6.35 26.85 6.4 26.8 6.4 26.7 6.7 26.5 6.75 26.5 6.65 26.65 6.4 26.8 6.4 26.85 6.35 26.85 M6.4 26.8 L6.7 26.5 M29.3 28.2 L29.35 27.9 29.4 27.9 29.3 27.6 29.25 27.6 29.2 27.7 29.2 27.8 29.15 28.0 29.15 27.7 29.2 27.7 M30.15 24.95 L29.8 25.05 M27.8 25.3 L26.85 25.4 26.65 25.4 26.45 25.15 M25.4 24.95 L25.0 25.35 M-0.6 0.3 L-0.6 0.4 -0.55 0.3 -0.6 0.3 -0.6 0.1 -0.7 0.05 -0.8 0.0 -0.8 0.65 -0.6 0.3" fill="none" stroke="#000000" stroke-linecap="round" stroke-linejoin="round" stroke-opacity="0.94509804" stroke-width="0.05"/>
  </g>
</svg>
