<?xml version="1.0" encoding="UTF-8" standalone="no"?>
<svg xmlns:xlink="http://www.w3.org/1999/xlink" height="10.4px" width="39.2px" xmlns="http://www.w3.org/2000/svg">
  <g transform="matrix(1.0, 0.0, 0.0, 1.0, 3.6, -18.75)">
    <path d="M26.25 20.05 L26.2 20.3 26.25 20.3 26.2 20.45 26.15 20.5 26.1 20.8 26.1 20.7 26.0 20.35 25.85 20.3 25.85 20.2 26.0 20.35 26.2 20.3 26.2 20.45 M34.4 22.75 L34.0 23.0 34.6 23.0 34.4 22.85 34.4 22.75 34.4 22.6 34.55 22.6 34.55 22.65 34.8 22.45 33.6 22.45 33.6 22.05 35.05 22.3 Q35.6 22.5 35.6 23.25 L35.6 23.7 35.5 24.05 35.45 23.9 35.35 23.8 35.35 23.25 35.2 23.25 Q35.05 24.15 34.4 24.2 L34.35 24.2 Q34.05 24.2 33.85 23.9 L33.75 23.75 33.75 24.6 M34.55 22.65 L34.6 23.0 34.65 23.4 34.6 23.75 34.4 24.2 M34.55 22.65 L34.4 22.75 M33.75 23.25 L33.75 23.75 M4.95 20.3 L5.35 20.6 5.35 20.2 5.35 19.85 5.25 19.85 4.8 19.75 4.95 20.3 M4.8 19.55 L4.55 19.5 4.4 19.65 4.8 19.75 4.8 19.65 4.8 19.55 Q4.85 19.2 5.2 19.1 L5.45 19.1 5.7 18.85 Q5.95 18.65 6.3 18.85 L6.35 18.95 6.4 19.2 6.55 19.25 6.55 19.3 6.8 19.3 7.5 19.4 7.35 19.4 6.55 19.3 6.55 19.8 7.5 19.5 7.5 19.65 7.45 19.65 Q6.05 21.25 5.6 21.25 L5.35 21.2 5.35 20.6 6.2 20.05 6.45 19.9 6.25 19.9 6.2 19.9 6.0 19.95 5.85 19.9 5.35 20.2 M6.4 19.2 L6.4 19.25 6.45 19.3 6.55 19.3 M5.35 20.6 Q5.95 20.75 6.3 20.35 L6.55 19.9 6.45 19.9 6.55 19.8 6.55 19.9 6.75 19.85 7.45 19.65 M5.45 19.1 L5.75 19.1 6.05 19.1 6.15 19.15 6.4 19.2 M5.45 19.1 L5.35 19.25 6.0 19.25 6.05 19.15 6.05 19.1 M5.35 19.25 L5.35 19.45 5.65 19.65 5.95 19.85 6.4 19.25 6.05 19.25 6.0 19.25 M5.35 19.25 L5.1 19.25 5.35 19.45 5.35 19.7 5.45 19.7 5.95 19.85 6.05 19.9 6.2 19.9 M5.35 19.7 L5.35 19.85 5.85 19.9 5.95 19.85 M6.4 19.25 L6.05 19.15 M4.8 19.55 L5.35 19.7 M19.8 22.4 L19.9 22.45 19.8 22.35 19.8 22.4 M19.95 22.2 L19.95 22.45 19.9 22.45 19.95 22.6 19.95 23.0 19.65 22.5 19.4 23.15 19.4 22.35 19.6 22.45 19.8 22.2 19.05 22.1 18.45 22.85 18.5 22.6 18.35 22.6 18.15 22.4 17.95 22.05 18.6 22.05 18.85 22.05 19.05 22.1 Q19.45 21.45 19.8 21.4 L19.8 22.2 19.95 22.2 19.65 22.45 19.65 22.5 19.6 22.45 19.55 22.6 19.65 22.5 M19.6 22.45 L19.65 22.45 M18.55 22.35 L18.5 22.6 18.6 22.6 18.6 22.05 18.55 22.35 M-2.55 25.8 L-2.6 26.35 -2.45 26.35 -1.85 26.4 -1.45 26.75 -1.55 26.9 -1.35 26.9 -1.25 27.15 -1.2 27.55 Q-1.2 27.9 -1.35 28.0 L-1.35 28.35 M-1.55 26.9 L-1.7 27.05 -1.8 27.2 -1.65 27.3 -1.6 27.15 -1.45 27.15 -1.45 27.25 -1.35 27.4 -1.35 28.0 -1.45 28.1 -1.75 28.1 -1.75 28.25 -1.6 28.5 M-2.4 27.05 L-2.6 27.05 -2.25 27.4 -2.25 27.3 -2.35 27.05 -2.4 27.05 M-2.35 27.05 L-2.3 27.1 -2.4 26.75 -2.35 27.05 M-2.0 27.4 L-1.8 27.2 -2.25 27.1 -2.25 27.15 -2.15 27.4 -2.0 27.4 M-2.25 27.1 L-2.3 27.1 -2.25 27.15 -2.25 27.3 M-2.6 27.05 L-2.65 27.05 -2.65 27.3 -2.7 27.4 -2.65 27.6 -2.2 28.0 -1.85 28.1 -2.05 27.65 -2.15 27.4 -2.25 27.4 M-1.65 27.3 L-1.45 27.4 -1.7 28.0 -1.75 28.1 -1.8 28.1 -1.8 28.15 -1.75 28.25 -1.85 28.2 -2.15 28.45 -2.65 28.7 -2.6 29.0 -2.4 29.15 -2.55 29.15 -2.55 29.05 -2.6 29.05 -2.8 28.9 -2.6 29.0 -2.6 29.05 M-2.25 27.1 L-2.15 26.9 -1.55 26.9 M-2.6 27.05 L-2.65 27.0 -2.65 27.05 -3.3 26.9 -3.4 27.45 -3.6 28.35 Q-3.6 28.7 -3.25 28.75 L-2.9 28.75 -2.65 28.7 -2.7 28.4 -2.8 27.7 -2.8 27.4 -2.65 27.3 M-3.3 26.9 L-3.45 26.9 -3.2 26.55 -3.2 26.25 -3.1 26.45 -3.0 26.45 -2.6 26.35 -2.6 26.5 -2.65 27.0 -3.1 26.45 -3.2 26.55 -3.3 26.9 M-2.8 27.4 L-2.65 27.6 -2.4 27.95 -1.85 28.2 -1.8 28.15 M-1.85 28.1 L-1.8 28.1 -1.7 28.0 -1.65 27.3 M-2.55 29.05 L-2.4 29.15" fill="none" stroke="#000000" stroke-linecap="round" stroke-linejoin="round" stroke-opacity="0.94509804" stroke-width="0.05"/>
  </g>
</svg>
