<?xml version="1.0" encoding="UTF-8" standalone="no"?>
<svg xmlns:xlink="http://www.w3.org/1999/xlink" height="34.6px" width="29.5px" xmlns="http://www.w3.org/2000/svg">
  <g transform="matrix(1.0, 0.0, 0.0, 1.0, -0.4, 5.25)">
    <path d="M2.95 -3.2 L3.15 -3.45 3.2 -3.6 3.2 -3.5 3.15 -3.45 3.0 -3.15 3.5 -3.05 3.7 -3.25 3.8 -3.3 3.8 -3.35 3.85 -3.4 3.25 -4.0 Q2.95 -4.0 2.6 -3.45 L2.6 -3.4 2.6 -3.35 2.95 -3.2 3.0 -3.15 2.9 -2.95 2.9 -2.35 3.5 -2.9 3.8 -3.3 M4.45 -4.05 L4.3 -3.9 4.8 -3.85 4.85 -4.05 4.45 -4.05 M3.85 -3.4 L3.95 -3.5 3.85 -3.5 3.85 -3.4 3.95 -3.2 Q4.35 -2.35 4.7 -2.35 L5.55 -2.95 6.0 -3.25 5.95 -3.3 6.1 -3.3 6.8 -3.5 6.9 -3.25 7.8 -3.25 8.25 -3.1 9.3 -3.25 9.4 -3.3 9.6 -3.3 9.8 -3.3 11.4 -3.45 11.55 -3.65 10.45 -3.6 9.25 -3.5 10.75 -3.65 7.85 -3.8 5.85 -3.9 5.1 -3.6 4.3 -3.1 4.3 -3.25 4.6 -3.6 4.8 -3.85 M2.95 -3.2 L2.5 -2.65 1.45 -1.8 1.4 -1.9 1.35 -1.9 1.35 -2.45 M1.75 -2.85 L2.15 -2.55 2.6 -3.4 1.9 -3.7 M9.3 -3.25 L9.05 -3.0 9.55 -2.95 9.65 -2.95 9.6 -3.3 9.3 -3.25 M6.65 -3.1 L6.6 -2.95 6.95 -2.95 6.9 -3.25 6.7 -3.25 6.65 -3.1 M6.0 -3.25 L6.1 -3.3 7.0 -2.65 6.95 -2.95 7.4 -2.95 8.25 -3.1 8.65 -3.05 8.75 -3.05 9.0 -3.15 9.0 -3.0 9.05 -3.0 9.05 -2.95 9.1 -2.25 9.1 -1.7 8.55 -2.0 8.4 -1.7 8.15 -1.4 7.4 -2.05 7.25 -2.0 7.05 -2.0 7.0 -2.1 7.0 -2.35 6.0 -3.25 M7.0 -2.65 L7.5 -2.45 7.85 -2.3 8.15 -2.55 8.75 -3.05 9.0 -3.0 9.05 -2.95 9.0 -2.85 8.65 -2.15 8.55 -2.0 7.85 -2.3 7.4 -2.05 7.1 -2.25 7.0 -2.35 7.0 -2.65 M9.75 -2.15 L9.5 -1.5 9.55 -1.45 9.7 -1.4 9.85 -1.45 9.75 -1.95 9.75 -2.15 9.65 -2.95 10.9 -3.0 11.4 -3.45 12.15 -3.5 12.3 -3.75 12.55 -4.05 12.5 -3.75 12.7 -3.8 13.1 -3.6 13.15 -3.6 Q15.85 -3.95 16.25 -4.7 L16.8 -3.95 16.9 -3.95 17.1 -4.0 17.15 -3.9 17.45 -3.9 19.1 -4.55 20.8 -5.25 21.65 -4.7 Q22.6 -4.15 23.1 -4.15 L23.25 -4.25 23.2 -4.45 23.35 -4.15 23.35 -3.75 22.15 -3.75 21.2 -4.1 20.25 -4.3 20.1 -4.3 21.6 -3.6 21.6 -3.8 21.8 -3.45 22.2 -3.3 22.4 -3.3 22.65 -3.25 22.75 -3.2 22.75 -3.0 23.1 -2.85 23.3 -2.95 23.75 -3.45 24.45 -4.05 25.5 -3.7 25.7 -3.6 26.4 -3.35 26.7 -3.6 26.95 -4.15 27.5 -4.0 28.0 -3.65 28.15 -4.05 28.9 -4.1 M9.75 -2.15 L9.85 -2.35 Q10.15 -2.75 10.45 -2.75 L10.95 -2.55 11.1 -2.45 11.7 -3.05 12.15 -3.5 12.25 -3.5 12.5 -3.75 12.5 -3.55 12.55 -3.55 13.15 -3.6 13.3 -3.3 13.4 -2.7 13.3 -2.15 13.3 -2.1 13.4 -2.25 14.85 -3.9 Q14.8 -2.45 14.55 -2.15 14.8 -2.15 15.75 -3.1 L15.8 -3.1 15.8 -3.2 15.85 -3.15 Q16.5 -3.8 16.9 -3.95 L17.15 -3.9 17.15 -3.7 17.2 -3.25 17.15 -2.7 17.05 -2.1 18.35 -3.4 18.55 -3.4 18.65 -2.6 18.65 -2.3 18.8 -2.15 20.05 -2.15 20.0 -2.5 20.0 -2.6 19.95 -2.75 19.7 -3.4 19.8 -3.3 20.0 -3.05 20.1 -3.2 20.1 -3.3 20.45 -2.85 20.45 -2.0 20.35 -2.0 20.35 -1.8 21.55 -3.15 21.55 -3.25 21.6 -3.6 21.8 -3.45 21.95 -3.2 22.2 -3.3 22.75 -3.0 22.75 -2.75 22.45 -2.2 22.75 -2.3 22.9 -2.65 23.1 -2.85 23.15 -2.85 23.3 -2.95 23.7 -3.05 23.75 -3.05 23.9 -3.0 24.25 -2.95 24.7 -3.35 25.05 -3.8 25.1 -3.35 25.1 -2.95 25.25 -3.1 25.7 -3.6 M12.5 -3.55 L12.15 -2.25 12.15 -1.8 13.3 -3.2 13.3 -3.3 M12.5 -3.55 L12.25 -3.5 11.9 -3.05 11.4 -2.0 11.1 -2.45 10.5 -1.9 9.85 -1.45 Q10.05 -0.85 10.5 -0.85 10.95 -0.85 12.0 -1.65 L12.15 -1.8 12.15 -1.4 12.2 -1.35 12.4 -1.3 13.2 -2.0 13.2 -2.15 13.3 -3.2 M13.3 -2.1 L13.2 -1.65 13.2 -2.0 13.3 -2.1 M15.8 -3.1 Q16.0 -2.6 16.6 -2.25 L15.85 -3.15 15.8 -3.1 M29.2 -3.8 L28.8 -2.9 28.5 -2.35 28.5 -1.9 29.3 -3.15 Q29.3 -3.05 29.5 -3.05 L29.1 -1.95 28.55 -1.15 28.55 -1.2 28.5 -1.9 28.0 -0.95 Q27.3 0.4 26.65 0.4 L25.9 0.35 25.8 0.3 25.4 0.85 25.1 0.15 25.05 -0.3 24.75 -0.55 23.95 -1.45 23.9 -1.3 23.9 -1.4 23.95 -1.45 23.75 -1.65 23.3 -0.85 23.3 -1.9 23.75 -1.65 23.8 -1.7 24.0 -1.55 24.75 -2.5 24.7 -2.6 24.0 -2.0 24.0 -2.8 23.4 -2.55 22.8 -2.35 22.7 -2.2 22.5 -1.75 22.1 -0.85 21.5 -0.45 20.4 -1.05 20.1 -0.95 20.1 -1.05 19.3 -1.65 19.2 -1.75 18.7 -2.0 18.75 -1.9 18.55 -1.9 18.1 -1.9 17.75 -1.3 16.7 -2.15 16.6 -2.25 16.95 -2.15 17.05 -2.1 18.1 -1.9 18.1 -1.95 18.15 -2.65 18.65 -2.3 18.7 -2.15 18.8 -2.15 19.2 -1.75 20.2 -1.2 20.9 -2.25 21.5 -2.85 21.55 -3.15 21.8 -3.4 21.8 -3.1 21.95 -3.2 22.0 -2.85 21.8 -2.0 21.8 -3.1 21.5 -2.85 21.3 -2.45 20.6 -1.5 20.3 -1.15 20.4 -1.05 21.7 -1.9 22.45 -2.2 21.9 -1.6 21.85 -1.5 22.45 -2.0 22.7 -2.2 22.75 -2.3 22.8 -2.35 23.05 -2.6 23.7 -3.05 M20.0 -2.5 L20.1 -2.15 20.1 -2.1 20.35 -2.0 20.25 -2.5 20.0 -3.05 20.0 -2.95 20.0 -2.65 20.0 -2.6 M20.05 -2.15 L20.1 -2.1 M18.7 -2.15 L18.7 -2.0 18.45 -2.1 18.55 -2.15 18.7 -2.15 M19.8 -0.8 L19.8 -0.95 19.7 -0.95 19.7 -0.85 19.8 -0.8 19.75 -0.7 19.75 -0.65 19.75 -0.5 19.8 -0.45 19.75 -0.45 19.7 -0.15 19.7 -0.45 19.65 -0.45 19.6 -0.35 19.6 -0.45 19.65 -0.45 19.7 -0.55 19.7 -0.6 19.7 -0.85 M20.1 -1.05 L20.3 -1.15 20.2 -1.2 20.1 -1.05 M19.75 -0.45 L19.7 -0.45 19.7 -0.55 M19.75 -0.5 L19.75 -0.45 M19.75 -0.5 L19.7 -0.6 19.75 -0.65 M21.85 -1.5 L21.8 -1.5 21.2 -0.95 21.1 -0.85 21.05 -0.85 21.2 -0.95 M24.75 -2.35 L24.6 -2.1 24.0 -1.55 24.6 -0.75 Q24.75 -0.5 25.05 -0.4 L25.15 -1.0 25.4 -1.3 Q25.85 -1.75 26.0 -2.95 L25.5 -2.3 25.05 -1.6 25.05 -2.65 25.05 -2.9 24.75 -2.55 24.75 -2.5 24.75 -2.35 M25.05 -2.9 L25.1 -2.95 24.85 -2.75 24.7 -2.6 24.45 -2.85 24.25 -2.95 24.0 -2.8 24.0 -2.95 23.9 -3.0 M24.0 -1.55 L24.0 -1.5 23.95 -1.45 M25.05 -0.3 L25.8 0.3 26.3 -0.65 25.4 -0.35 25.05 -0.4 25.05 -0.3 M26.7 -3.6 L26.8 -2.6 26.8 -2.25 26.75 -0.95 27.2 -1.2 27.5 -2.05 27.75 -3.05 27.7 -3.5 27.8 -3.5 27.75 -3.05 27.85 -2.75 28.0 -2.15 28.15 -2.75 28.35 -3.4 28.45 -3.5 28.5 -2.35 27.9 -1.7 27.2 -1.2 26.75 -0.55 26.75 -0.95 26.3 -0.65 26.55 -1.45 26.8 -2.6 M25.7 4.75 Q26.3 5.1 26.45 5.6 L26.55 6.65 26.5 6.7 26.3 6.75 26.05 6.5 Q25.85 6.3 25.95 6.05 L25.85 6.05 25.85 6.65 26.2 7.35 26.25 7.5 26.7 8.05 27.0 8.15 26.9 8.15 26.7 8.05 26.15 8.15 26.0 8.35 26.25 9.0 26.15 8.9 25.95 8.4 25.7 8.6 25.7 8.65 25.6 8.65 25.3 8.3 24.85 8.05 24.75 8.05 24.75 8.0 24.65 7.95 24.65 7.3 24.75 8.0 24.85 8.05 25.2 7.4 25.25 7.3 25.2 7.1 25.2 6.85 24.95 7.2 24.9 7.15 24.85 7.1 24.75 6.55 24.65 6.9 24.55 6.9 24.55 6.35 24.65 6.0 24.75 5.6 24.75 6.55 24.95 6.0 25.1 5.2 25.2 5.8 25.2 6.0 25.2 6.8 25.25 6.85 25.6 6.05 25.7 4.75 M29.3 4.55 L29.5 4.15 29.5 4.1 29.6 3.8 29.65 3.95 29.7 4.25 29.75 4.1 29.9 3.85 29.8 3.2 29.2 3.7 M25.2 6.8 L25.2 6.85 25.25 6.85 25.3 7.1 25.3 7.0 25.35 7.05 25.5 6.75 25.5 6.8 25.5 7.3 25.7 7.8 25.75 7.95 25.8 7.6 26.15 7.95 26.2 7.7 26.25 7.5 M25.25 7.3 L25.3 7.2 25.3 7.1 25.2 7.1 M20.55 6.05 L20.4 6.35 Q20.25 6.6 20.25 6.8 L20.5 6.65 20.65 6.45 20.75 6.4 20.75 6.6 20.8 6.55 20.85 6.35 20.85 6.85 20.8 6.65 20.75 6.6 M25.8 6.75 L25.75 7.05 25.7 7.4 25.8 7.3 25.85 6.75 25.85 6.7 25.8 6.75 M25.85 6.7 L25.85 6.65 M25.5 7.3 L25.5 7.6 25.7 7.9 25.75 7.95 25.8 8.05 26.0 8.35 25.95 8.4 25.8 8.05 M25.35 7.05 L25.5 7.3 M25.75 7.95 L25.75 8.15 25.7 8.6 25.6 8.65 25.5 7.6 25.3 7.2 25.35 7.05 M22.05 15.3 L22.15 15.4 22.05 15.4 22.05 15.3 M29.0 19.85 L29.0 19.95 28.95 19.95 29.0 19.8 29.0 19.85 29.1 19.7 29.1 19.45 29.0 19.3 28.7 19.45 M29.1 20.85 L29.6 20.7 29.8 20.65 29.4 21.15 M15.3 4.65 L15.35 5.05 15.5 5.15 15.6 5.3 15.65 4.8 15.65 4.75 15.75 5.25 15.75 5.55 15.85 5.9 15.75 5.8 15.75 5.55 15.6 5.3 15.5 5.7 15.45 5.6 15.4 5.6 15.4 5.8 15.3 5.8 15.3 6.0 15.0 5.7 14.6 5.3 14.35 5.7 14.25 5.7 14.2 5.45 14.15 5.2 M15.35 5.05 L15.0 4.8 14.9 4.85 14.8 4.7 14.55 4.35 14.4 4.55 14.25 4.75 Q14.75 4.8 14.95 5.15 L15.3 5.8 15.4 5.3 15.35 5.05 M15.4 5.6 L15.4 5.45 15.4 5.3 M13.85 0.75 L13.95 1.15 14.15 0.9 14.25 0.6 14.25 1.15 14.65 0.95 M18.15 11.4 L18.15 10.85 M7.4 4.45 L7.85 4.45 8.2 4.2 8.1 4.05 8.15 4.05 8.2 4.15 8.3 4.15 8.4 4.05 8.4 4.15 8.4 4.65 8.55 5.0 8.6 5.0 8.8 4.8 9.0 4.8 9.0 5.5 8.8 5.7 8.8 5.8 9.25 5.5 9.3 5.1 9.25 5.0 9.0 4.75 9.0 4.3 8.7 4.05 7.95 3.8 7.55 3.8 Q7.4 3.95 7.4 4.45 M9.3 5.1 L9.3 4.75 9.25 4.65 9.2 4.6 9.0 4.3 9.0 4.25 9.1 4.25 9.2 4.6 M8.4 4.15 L8.3 4.15 8.2 4.2 8.4 4.65 8.35 5.0 8.55 5.0 8.55 5.1 8.6 5.0 8.7 5.0 8.7 5.5 8.8 5.7 8.7 5.8 8.6 5.8 8.7 5.5 8.55 5.1 8.35 5.3 8.35 5.0 7.75 5.0 7.65 5.15 7.5 5.4 M9.3 5.1 L9.35 5.2 9.4 5.25 9.45 5.3 9.3 4.75 M0.6 1.05 Q1.25 1.2 1.1 1.65 L0.75 1.65 0.7 1.7 0.65 1.65 0.5 1.65 0.4 1.65 0.4 1.45 0.4 1.35 0.5 1.55 0.65 1.65 0.75 1.65 0.95 1.45 1.0 1.35 0.85 1.2 0.6 1.05 M0.4 1.45 L0.45 1.5 0.5 1.55 0.5 1.65 0.45 1.5 M3.2 4.05 L3.15 4.2 3.0 4.45 3.1 4.75 3.1 4.8 3.2 4.05 M5.3 9.3 L5.2 8.65 5.2 8.6 5.3 8.15 M10.3 12.7 L10.45 13.1 10.35 13.1 10.3 12.85 10.25 12.75 10.15 12.85 10.25 12.65 10.25 12.75 10.3 12.7 10.15 12.45 9.95 12.8 9.85 13.2 M1.6 20.25 L1.65 19.9 1.75 20.0 1.6 20.25 1.55 20.65 M18.25 22.4 L18.6 22.45 19.65 22.2 19.4 22.05 18.8 21.85 18.55 21.9 18.45 21.9 18.8 21.85 19.0 21.8 19.0 21.7 18.55 21.4 M19.55 27.6 L19.7 27.35 M2.15 25.95 L2.55 26.15 2.65 25.75 2.6 25.5 2.7 25.5 2.7 25.85 2.55 26.15 M2.7 25.85 L2.65 25.75 M1.85 25.35 L1.85 25.8 M27.2 25.8 L27.0 25.55 27.0 25.6 27.2 25.8 27.4 26.0 M27.0 25.55 L26.95 25.55 27.0 25.85 27.0 25.6 M27.0 25.55 L26.95 25.4 26.95 25.55 Q26.8 25.4 26.65 25.35 M27.0 26.45 L27.0 25.85 M26.55 28.75 L26.6 29.05 26.7 29.35 M20.7 26.0 L20.75 26.25 20.7 26.1 20.7 26.0 M22.5 26.2 L22.75 25.6 22.35 25.8 22.35 26.0 22.1 26.0 22.35 25.8 M20.2 27.25 L20.25 27.55" fill="none" stroke="#000000" stroke-linecap="round" stroke-linejoin="round" stroke-opacity="0.94509804" stroke-width="0.05"/>
  </g>
</svg>
