<?xml version="1.0" encoding="UTF-8" standalone="no"?>
<svg xmlns:xlink="http://www.w3.org/1999/xlink" height="8.6px" width="42.05px" xmlns="http://www.w3.org/2000/svg">
  <g transform="matrix(1.0, 0.0, 0.0, 1.0, 0.0, -20.3)">
    <path d="M39.75 27.15 Q39.8 27.85 40.0 28.2 40.2 28.5 40.5 28.5 L41.0 28.2 41.25 27.55 41.35 27.45 41.65 28.1 41.85 27.7 42.05 27.15 Q42.05 26.7 41.25 26.2 L40.85 25.95 40.85 26.1 40.75 26.1 40.6 26.5 40.45 27.15 40.45 27.3 40.65 27.05 40.9 26.85 41.35 26.6 41.3 27.0 40.65 27.05 M40.85 25.95 L40.05 25.7 40.05 26.6 40.75 26.1 40.85 25.95 M20.65 23.15 L20.45 23.0 20.45 23.4 20.6 23.3 20.6 23.15 20.65 23.15 20.75 23.0 20.85 23.3 20.9 23.4 20.65 23.15 M28.5 20.6 L28.3 20.55 28.25 20.45 28.1 20.3 28.5 20.6 28.65 20.5 29.05 20.45 28.9 20.55 28.55 20.6 28.5 20.6 M32.9 25.7 L32.9 24.9 32.2 25.7 31.9 25.6 31.85 25.55 31.9 25.0 31.85 25.0 31.35 24.15 31.35 23.95 31.2 23.95 31.35 23.8 31.3 23.45 31.45 22.85 31.8 22.45 31.85 22.45 31.85 22.35 Q32.5 22.3 32.6 22.65 L32.65 22.9 32.8 23.05 33.45 24.0 33.6 23.8 33.75 23.8 33.65 24.3 33.6 24.75 Q34.35 24.8 34.75 24.2 L35.2 23.0 34.65 22.8 34.05 22.75 33.65 22.8 33.2 23.0 M32.4 22.7 L32.45 22.75 32.4 22.6 32.4 22.7 31.85 22.45 31.85 23.4 31.95 23.55 32.25 23.55 32.3 23.6 32.4 23.7 32.25 23.95 32.55 23.95 32.45 24.2 32.4 24.2 32.25 23.95 32.05 24.45 31.9 24.95 32.4 24.4 32.65 23.45 32.65 23.4 32.4 22.75 32.4 22.7 M32.65 22.9 L32.45 22.75 32.65 23.15 32.65 22.9 M31.35 23.8 L31.6 23.55 31.95 23.55 32.15 23.8 32.25 23.95 31.35 23.95 31.35 23.8 M32.65 23.15 L32.75 23.4 33.3 24.3 33.45 24.0 33.45 24.5 33.35 24.35 33.3 24.3 32.95 24.9 32.9 24.9 32.65 23.4 32.65 23.15 M2.0 24.6 L1.55 24.45 1.35 24.4 1.4 24.5 1.6 25.05 1.55 25.45 1.5 25.7 0.8 25.7 0.8 25.65 0.65 25.7 0.25 25.55 0.15 24.95 0.15 24.75 0.0 24.75 0.0 24.45 0.0 24.1 0.4 23.4 0.4 23.55 0.35 23.65 0.15 24.25 0.0 24.45 0.35 23.65 M0.95 24.6 Q0.8 24.6 0.8 24.75 L0.4 24.75 0.4 25.25 0.8 25.65 1.15 25.15 1.2 24.35 1.35 24.4 1.2 23.7 Q0.75 23.55 0.45 24.05 L0.15 24.75 0.4 24.75 0.4 24.2 0.8 24.2 0.9 24.4 0.95 24.6 M4.65 22.65 Q4.65 22.3 5.1 22.2 L5.55 22.2 Q5.95 22.2 6.15 22.45 L6.15 22.2 6.2 22.4 6.35 22.3 6.95 22.2 6.95 22.85 6.95 23.15 6.45 24.25 6.75 24.3 6.85 24.2 7.35 23.8 7.5 23.8 6.95 24.35 6.7 24.65 6.6 24.75 6.35 24.9 6.3 24.9 6.2 24.75 6.15 24.5 6.1 24.25 5.45 24.2 5.45 23.95 5.2 24.5 4.9 24.05 4.8 23.55 5.55 23.4 5.6 23.25 5.6 23.4 5.8 23.35 5.85 23.35 5.85 23.0 4.8 23.0 4.7 22.9 4.65 22.65 M6.4 22.6 L6.2 22.4 6.15 22.45 6.3 23.0 6.3 23.2 6.95 22.85 6.4 22.6 M6.15 22.45 L5.85 23.0 6.15 23.0 6.15 22.45 M6.15 23.55 L6.15 23.7 6.25 23.4 6.3 23.2 6.15 23.25 6.05 23.45 6.15 23.55 M6.05 23.45 L6.0 23.4 6.05 23.8 6.15 23.7 6.15 24.25 6.45 24.25 6.3 24.75 6.75 24.3 6.95 24.35 6.6 24.75 M6.15 23.25 L5.85 23.35 5.85 23.8 6.05 23.8 6.05 24.05 6.1 24.25 6.15 24.25 6.15 24.5 M5.6 23.4 L5.55 23.4 5.45 23.95 5.5 23.85 5.6 23.4 M6.15 23.25 L6.15 23.0 M12.6 23.55 L12.95 23.95 13.25 24.05 13.25 23.95 13.3 24.05 13.35 23.95 13.35 23.85 13.25 23.4 13.25 23.25 13.4 23.6 13.5 23.75 13.5 23.7 13.4 23.3 12.85 22.2 12.7 22.35 12.65 22.75 12.55 23.2 12.6 23.55 M13.35 23.95 L13.45 24.15 13.5 24.1 13.5 23.75 13.35 23.95 M14.05 24.35 L13.8 24.3 13.8 24.5 13.5 24.2 13.45 24.55 13.4 24.75 13.4 24.6 13.35 24.25 13.35 24.2 13.15 24.4 13.1 24.45 12.95 24.75 12.85 24.75 13.1 24.45 13.3 24.1 13.25 24.1 13.25 24.05 13.3 24.1 13.3 24.05 13.35 24.1 13.45 24.15 13.5 24.2 13.5 24.1 13.8 24.1 13.5 23.75 M13.5 24.2 L13.8 24.3 13.8 24.1 13.8 23.7 M13.5 24.2 L13.4 24.15 13.35 24.2 13.35 24.15 13.3 24.1 13.35 24.1 13.35 24.15 13.4 24.15 13.45 24.15 M5.4 27.8 L5.2 28.1 5.6 28.25 5.85 28.15 5.85 28.1 5.6 27.8 5.85 27.8 5.85 28.1 6.05 28.25 6.75 28.5 7.35 28.1 6.4 27.8 Q5.85 27.7 5.45 27.4 L5.4 27.8 M5.1 27.95 L4.8 27.8 5.2 28.1 5.1 27.95 M4.95 28.5 Q4.8 28.25 4.8 27.8 M31.9 25.0 L31.9 24.95 M28.1 27.55 L27.7 27.75 27.55 27.8 28.1 27.8 28.5 27.95 28.5 28.35 28.35 28.4 28.5 28.9 27.8 28.55 Q27.3 28.3 27.15 28.1 L27.35 28.0 27.3 27.8 27.55 27.8 27.35 28.0 27.35 28.05 27.45 28.1 Q27.8 27.9 28.1 28.1 L28.25 28.25 28.35 28.4 28.25 28.45 27.85 28.5 28.2 28.25 28.25 28.25 M24.4 25.5 L24.9 25.7" fill="none" stroke="#000000" stroke-linecap="round" stroke-linejoin="round" stroke-opacity="0.94509804" stroke-width="0.05"/>
  </g>
</svg>
