<?xml version="1.0" encoding="UTF-8" standalone="no"?>
<svg xmlns:xlink="http://www.w3.org/1999/xlink" height="1.35px" width="1.1px" xmlns="http://www.w3.org/2000/svg">
  <g transform="matrix(1.0, 0.0, 0.0, 1.0, -10.35, 12.5)">
    <path d="M11.45 -11.9 L11.3 -11.95 11.3 -11.7 11.4 -11.8 11.45 -11.9 M10.95 -11.45 L10.6 -11.15 10.6 -11.5 10.55 -11.45 10.35 -11.4 10.35 -11.8 Q10.65 -11.7 10.9 -11.95 L10.95 -11.95 11.0 -12.2 11.0 -12.35 11.05 -12.3 11.15 -12.5 11.1 -12.3 11.2 -12.25 11.3 -12.3 11.3 -11.95 11.2 -11.95 10.95 -11.8 10.85 -11.7 10.95 -11.95 11.1 -12.3 11.05 -12.3 11.0 -12.2" fill="none" stroke="#000000" stroke-linecap="round" stroke-linejoin="round" stroke-opacity="0.94509804" stroke-width="0.05"/>
  </g>
</svg>
