<?xml version="1.0" encoding="UTF-8" standalone="no"?>
<svg xmlns:xlink="http://www.w3.org/1999/xlink" height="85.3px" width="77.2px" xmlns="http://www.w3.org/2000/svg">
  <g transform="matrix(1.0, 0.0, 0.0, 1.0, -0.6, 3.8)">
    <path d="M10.15 -0.8 L69.35 -0.8 74.8 74.55 69.35 76.4 Q62.85 78.5 56.75 78.5 L54.95 78.5 Q49.85 78.5 45.15 77.1 43.7 76.75 42.3 76.05 L42.3 68.45 Q39.75 67.0 36.9 68.45 L36.9 76.4 Q35.05 76.75 33.25 77.45 L32.85 77.45 Q20.25 80.35 8.65 75.35 L8.65 74.95 4.0 72.75 3.6 72.4 5.4 49.7 5.8 49.7 10.15 -0.8" fill="#560000" fill-rule="evenodd" stroke="none"/>
    <path d="M10.15 -0.8 L5.8 49.7 5.4 49.7 3.6 72.4 4.0 72.75 8.65 74.95 8.65 75.35 Q20.25 80.35 32.85 77.45 L33.25 77.45 Q35.05 76.75 36.9 76.4 L36.9 68.45 Q39.75 67.0 42.3 68.45 L42.3 76.05 Q43.7 76.75 45.15 77.1 49.85 78.5 54.95 78.5 L56.75 78.5 Q62.85 78.5 69.35 76.4 L74.8 74.55 69.35 -0.8 10.15 -0.8 Z" fill="none" stroke="#202235" stroke-linecap="round" stroke-linejoin="round" stroke-width="6.0"/>
    <path d="M9.05 11.45 L10.15 -0.8 14.5 -0.8 12.3 12.55 Q11.95 12.15 11.55 12.15 L9.05 11.45 M64.65 -0.8 L69.35 -0.8 70.5 12.15 66.85 13.25 64.65 -0.8" fill="#042772" fill-rule="evenodd" stroke="none"/>
    <path d="M14.5 -0.8 L64.65 -0.8 66.85 13.25 Q37.6 19.4 12.3 12.55 L14.5 -0.8" fill="#09348e" fill-rule="evenodd" stroke="none"/>
    <path d="M69.75 41.75 L42.3 43.2 Q16.65 44.3 9.05 42.1 10.85 23.7 12.3 12.55 37.6 19.4 66.85 13.25 68.7 26.55 69.75 41.75" fill="#1447b2" fill-rule="evenodd" stroke="none"/>
    <path d="M70.5 12.15 L72.25 41.35 69.75 41.75 Q68.7 26.55 66.85 13.25 L70.5 12.15 M9.05 42.1 L6.55 41.35 9.05 11.45 11.55 12.15 Q11.95 12.15 12.3 12.55 10.85 23.7 9.05 42.1" fill="#083593" fill-rule="evenodd" stroke="none"/>
    <path d="M8.65 50.4 L14.5 51.1 17.75 51.5 23.15 51.85 34.7 52.2 56.75 51.5 57.1 51.5 62.85 51.1 65.45 50.8 66.1 50.8 70.1 50.4 Q70.1 52.6 70.5 54.7 71.15 69.9 69.35 76.4 62.85 78.5 56.75 78.5 L54.95 78.5 Q49.85 78.5 45.15 77.1 44.1 69.5 46.3 63.4 38.65 65.6 31.45 63.0 34.35 71.0 32.85 77.45 20.25 80.35 8.65 75.35 L8.65 74.95 Q6.15 69.5 8.3 53.25 8.3 51.85 8.65 50.4" fill="#990000" fill-rule="evenodd" stroke="none"/>
    <path d="M8.65 50.4 Q8.3 51.85 8.3 53.25 6.15 69.5 8.65 74.95 L4.0 72.75 3.6 72.4 5.4 49.7 8.3 50.0 8.65 50.4 M32.85 77.45 Q34.35 71.0 31.45 63.0 38.65 65.6 46.3 63.4 44.1 69.5 45.15 77.1 43.7 76.75 42.3 76.05 L42.3 68.45 Q39.75 67.0 36.9 68.45 L36.9 76.4 Q35.05 76.75 33.25 77.45 L32.85 77.45 M69.35 76.4 Q71.15 69.9 70.5 54.7 70.1 52.6 70.1 50.4 L73.0 49.7 74.8 74.55 69.35 76.4" fill="#700000" fill-rule="evenodd" stroke="none"/>
    <path d="M57.1 51.5 L56.75 51.5" fill="none" stroke="#e73535" stroke-linecap="round" stroke-linejoin="round" stroke-width="0.2"/>
    <path d="M65.8 52.6 L63.25 52.95 Q63.25 48.25 62.85 42.1 L65.05 41.75 65.8 52.6 M18.05 53.25 L14.8 52.95 15.9 42.1 18.05 42.1 Q17.0 48.95 18.05 53.25" fill="#7b0101" fill-rule="evenodd" stroke="none"/>
    <path d="M63.25 52.95 L57.45 53.25 57.45 42.1 62.85 42.1 Q63.25 48.25 63.25 52.95 M23.15 53.65 L18.05 53.25 Q17.0 48.95 18.05 42.1 L23.9 42.45 23.15 53.65" fill="#b60d0d" fill-rule="evenodd" stroke="none"/>
    <path d="M70.5 41.05 L72.65 41.05 73.35 51.85 70.5 52.2 Q71.15 48.6 70.5 41.05 M8.65 51.85 L5.8 51.5 6.85 41.05 9.4 41.35 Q8.3 47.15 8.65 51.85" fill="#d7c64b" fill-rule="evenodd" stroke="none"/>
    <path d="M65.05 41.75 L70.5 41.05 Q71.15 48.6 70.5 52.2 L66.5 52.6 Q66.1 52.6 65.8 52.95 L65.8 52.6 65.05 41.75 M57.45 53.25 L57.1 53.25 35.05 54.35 Q25.3 53.65 23.5 54.05 L23.15 54.05 23.15 53.65 23.9 42.45 Q40.15 43.5 57.45 42.1 L57.45 53.25 M14.8 52.95 L9.05 52.2 8.65 51.85 Q8.3 47.15 9.4 41.35 L15.9 42.1 14.8 52.95" fill="#f2f567" fill-rule="evenodd" stroke="none"/>
    <path d="M39.05 47.15 Q38.15 46.35 36.95 46.35 35.8 46.35 34.95 47.15 34.15 47.95 34.15 49.15 34.15 50.3 34.95 51.1 35.8 52.0 36.95 52.0 38.15 52.0 39.05 51.1 39.85 50.3 39.85 49.15 39.85 47.95 39.05 47.15 M32.55 50.95 Q32.55 47.95 34.7 45.8 36.75 43.7 39.85 43.7 42.85 43.7 45.0 45.8 47.15 47.95 47.15 50.95 47.15 54.0 45.0 56.1 42.85 58.25 39.85 58.25 36.75 58.25 34.7 56.1 32.55 54.0 32.55 50.95 M39.2 53.2 Q38.8 52.8 38.2 52.8 37.65 52.8 37.2 53.2 36.75 53.6 36.75 54.2 36.75 54.8 37.2 55.25 L38.2 55.6 Q38.8 55.6 39.2 55.25 39.6 54.8 39.6 54.2 39.6 53.6 39.2 53.2" fill="#d7c64b" fill-rule="evenodd" stroke="none"/>
    <path d="M39.05 47.15 Q39.85 47.95 39.85 49.15 39.85 50.3 39.05 51.1 38.15 52.0 36.95 52.0 35.8 52.0 34.95 51.1 34.15 50.3 34.15 49.15 34.15 47.95 34.95 47.15 35.8 46.35 36.95 46.35 38.15 46.35 39.05 47.15 M39.2 53.2 Q39.6 53.6 39.6 54.2 39.6 54.8 39.2 55.25 38.8 55.6 38.2 55.6 L37.2 55.25 Q36.75 54.8 36.75 54.2 36.75 53.6 37.2 53.2 37.65 52.8 38.2 52.8 38.8 52.8 39.2 53.2" fill="#f5f7d3" fill-rule="evenodd" stroke="none"/>
    <path d="M32.55 50.95 Q32.55 54.0 34.7 56.1 36.75 58.25 39.85 58.25 42.85 58.25 45.0 56.1 47.15 54.0 47.15 50.95 47.15 47.95 45.0 45.8 42.85 43.7 39.85 43.7 36.75 43.7 34.7 45.8 32.55 47.95 32.55 50.95 M30.25 50.95 Q30.25 47.0 33.05 44.2 35.85 41.5 39.85 41.5 43.75 41.5 46.55 44.2 49.4 47.0 49.4 50.95 49.4 54.95 46.55 57.65 43.75 60.45 39.85 60.45 35.85 60.45 33.05 57.65 30.25 54.95 30.25 50.95" fill="#b8a832" fill-rule="evenodd" stroke="none"/>
    <path d="M47.7 17.95 Q48.75 18.25 49.15 19.0 50.2 19.75 49.85 20.05 L48.4 22.95 Q51.7 25.9 51.7 29.45 51.7 33.85 48.1 37.05 44.45 39.95 39.4 39.95 34.7 39.95 31.05 37.05 27.8 33.85 27.8 29.45 27.8 25.5 31.05 22.25 34.7 19.4 39.4 19.4 L40.85 19.4 41.9 17.2 Q42.3 16.5 43.7 16.85 L45.5 17.2 Q47.35 16.1 49.55 15.4 L50.6 16.85 Q48.75 17.2 47.7 17.95" fill="#f8fa8e" fill-rule="evenodd" stroke="none"/>
    <path d="M47.7 17.95 Q48.75 18.25 49.15 19.0 50.2 19.75 49.85 20.05 L48.4 22.95 Q51.7 25.9 51.7 29.45 51.7 33.85 48.1 37.05 44.45 39.95 39.4 39.95 34.7 39.95 31.05 37.05 27.8 33.85 27.8 29.45 27.8 25.5 31.05 22.25 34.7 19.4 39.4 19.4 L40.85 19.4 41.9 17.2 Q42.3 16.5 43.7 16.85 L45.5 17.2 Q47.35 16.1 49.55 15.4 L50.6 16.85 Q48.75 17.2 47.7 17.95 Z" fill="none" stroke="#d92525" stroke-linecap="round" stroke-linejoin="round" stroke-width="0.2"/>
    <path d="M48.1 24.35 L48.4 25.5 Q48.4 26.95 46.95 28.0 L45.15 28.75 45.5 28.75 Q45.9 29.15 46.3 29.15 L48.4 29.8 Q49.85 30.95 49.85 33.05 49.85 35.25 48.1 36.3 L47.7 37.05 Q45.15 38.5 39.4 38.9 L32.2 38.9 35.05 38.15 32.55 22.65 31.05 22.25 40.85 22.25 46.65 22.95 48.1 24.35 M41.9 25.5 L41.9 25.15 40.85 24.35 Q39.75 23.7 38.0 23.7 L38.3 27.35 Q40.15 27.35 41.2 26.55 41.9 26.2 41.9 25.5 M41.2 31.25 L40.15 31.25 39.05 31.25 Q38.65 31.25 38.0 31.65 L37.6 35.95 40.45 33.85 Q41.55 33.05 41.55 32.0 L41.2 31.25" fill="#d92525" fill-rule="evenodd" stroke="none"/>
  </g>
</svg>
