<?xml version="1.0" encoding="UTF-8" standalone="no"?>
<svg xmlns:xlink="http://www.w3.org/1999/xlink" height="91.85px" width="81.95px" xmlns="http://www.w3.org/2000/svg">
  <g transform="matrix(1.0, 0.0, 0.0, 1.0, 1.55, 5.8)">
    <path d="M19.55 -2.1 L37.95 -2.8 39.35 -2.8 40.85 -2.8 Q58.5 -2.5 66.5 -1.05 72.6 0.1 73.0 1.9 L75.2 48.0 74.8 48.4 75.85 66.85 75.85 68.95 77.4 69.05 77.4 72.2 77.4 78.7 77.4 79.85 Q73.75 80.55 71.95 81.25 L69.35 81.6 66.5 81.95 64.35 82.3 Q57.45 83.0 49.55 82.7 L48.45 82.3 42.3 81.6 41.95 78.7 41.2 74.4 40.85 71.5 40.15 75.15 39.75 78.7 39.35 81.6 Q37.95 82.7 33.25 83.0 L32.85 83.0 Q22.8 83.4 9.4 81.25 L6.9 80.9 Q3.25 80.15 1.45 79.05 L1.45 78.7 2.55 71.9 2.9 69.3 4.35 69.3 4.35 66.85 Q5.1 61.75 5.1 59.95 L6.5 49.1 6.15 49.1 10.15 4.0 9.75 0.45 Q9.75 -1.35 19.55 -2.1 M43.4 52.35 L41.95 52.05 42.3 52.35 43.4 52.35" fill="#3b77b8" fill-rule="evenodd" stroke="none"/>
    <path d="M19.55 -2.1 Q9.75 -1.35 9.75 0.45 L10.15 4.0 6.15 49.1 6.5 49.1 5.1 59.95 Q5.1 61.75 4.35 66.85 L4.35 69.3 2.9 69.3 2.55 71.9 1.45 78.7 1.45 79.05 Q3.25 80.15 6.9 80.9 L9.4 81.25 Q22.8 83.4 32.85 83.0 L33.25 83.0 Q37.95 82.7 39.35 81.6 L39.75 78.7 40.15 75.15 40.85 71.5 41.2 74.4 41.95 78.7 42.3 81.6 48.45 82.3 49.55 82.7 Q57.45 83.0 64.35 82.3 L66.5 81.95 69.35 81.6 71.95 81.25 Q73.75 80.55 77.4 79.85 L77.4 78.7 77.4 72.2 77.4 69.05 75.85 68.95 75.85 66.85 74.8 48.4 75.2 48.0 73.0 1.9 Q72.6 0.1 66.5 -1.05 58.5 -2.5 40.85 -2.8 L39.35 -2.8 37.95 -2.8 19.55 -2.1 Z" fill="none" stroke="#283757" stroke-linecap="round" stroke-linejoin="round" stroke-width="6.0"/>
    <path d="M69.75 48.25 Q71.2 47.45 74.85 46.75 L75.9 66.65 75.9 69.15 69.0 70.95 69.75 73.85 45.9 74.6 Q45.55 73.1 45.55 71.65 L57.5 72.0 67.25 71.35 68.7 70.95 Q69.75 69.15 70.5 66.65 71.6 60.45 69.75 48.25 M77.3 72.4 L77.3 78.5 77.3 79.6 71.95 81.05 69.4 81.4 69.75 78.5 Q70.15 76.35 69.75 73.85 L77.3 72.4 M48.45 82.45 L42.3 81.4 41.95 78.5 41.2 74.2 45.9 74.6 Q45.9 77.8 46.6 79.3 47.0 80.7 48.45 82.45 M40.15 74.95 L39.8 78.5 39.4 81.75 Q37.95 82.85 33.3 83.25 L34.7 79.3 Q35.5 77.1 35.5 75.25 22.05 76.05 9.4 73.85 8.7 76.05 9.05 78.5 9.05 80.0 9.4 81.05 L6.9 80.7 Q3.3 80.0 1.5 78.9 L1.5 78.5 2.55 72.0 9.4 73.85 Q10.1 72.0 10.9 70.95 L4.35 69.15 4.35 66.65 Q5.05 61.9 5.05 59.8 L6.55 47.85 11.55 48.55 Q9.4 60.85 10.1 66.65 10.9 70.6 12.7 70.95 13.35 70.95 13.75 71.35 L35.75 72.0 Q35.5 69.85 34.7 66.95 37.2 68.1 40.85 68.1 L46.3 67.35 Q45.55 69.85 45.55 71.65 L40.85 71.65 35.75 72.0 35.5 75.25 40.15 74.95" fill="#2774b4" fill-rule="evenodd" stroke="none"/>
    <path d="M69.4 81.4 Q66.85 82.15 64.35 82.15 57.5 83.25 49.55 82.45 L48.45 82.45 Q47.0 80.7 46.6 79.3 45.9 77.8 45.9 74.6 L69.75 73.85 Q70.15 76.35 69.75 78.5 L69.4 81.4 M33.3 83.25 L32.9 83.25 Q22.8 83.6 9.4 81.05 9.05 80.0 9.05 78.5 8.7 76.05 9.4 73.85 22.05 76.05 35.5 75.25 35.5 77.1 34.7 79.3 L33.3 83.25 M11.55 48.55 Q23.5 51.8 35.75 51.8 L35.75 60.85 Q35.75 64.45 36.9 65.5 37.2 66.3 38.75 66.65 39.8 66.95 40.85 66.65 L42.3 66.65 42.3 52.2 57.1 51.1 Q63.25 50.4 69.75 48.25 71.6 60.45 70.5 66.65 69.75 69.15 68.7 70.95 L67.25 71.35 57.5 72.0 45.55 71.65 Q45.55 69.85 46.3 67.35 L40.85 68.1 Q37.2 68.1 34.7 66.95 35.5 69.85 35.75 72.0 L13.75 71.35 Q13.35 70.95 12.7 70.95 10.9 70.6 10.1 66.65 9.4 60.85 11.55 48.55" fill="#3f96f5" fill-rule="evenodd" stroke="none"/>
    <path d="M35.75 51.8 L42.3 52.2 42.3 66.65 40.85 66.65 Q39.8 66.95 38.75 66.65 37.2 66.3 36.9 65.5 35.75 64.45 35.75 60.85 L35.75 51.8" fill="#307fc2" fill-rule="evenodd" stroke="none"/>
    <path d="M75.9 69.15 Q77.3 69.55 77.3 69.15 L77.3 72.4 69.75 73.85 69.0 70.95 75.9 69.15 M41.2 74.2 L40.85 71.65 40.15 74.95 35.5 75.25 35.75 72.0 40.85 71.65 45.55 71.65 Q45.55 73.1 45.9 74.6 L41.2 74.2 M2.55 72.0 L2.9 69.15 4.35 69.15 10.9 70.95 Q10.1 72.0 9.4 73.85 L2.55 72.0" fill="#165d98" fill-rule="evenodd" stroke="none"/>
    <path d="M10.9 -0.85 Q12.7 -1.6 19.6 -2.3 L27.15 -3.05 37.95 -3.05 39.4 -3.05 40.85 -3.05 56.05 -2.3 Q72.25 -1.25 73.0 1.65 64.7 7.45 53.1 11.4 40.5 16.1 28.95 11.4 18.45 7.05 10.9 -0.85" fill="#4a86c6" fill-rule="evenodd" stroke="none"/>
    <path d="M73.0 1.65 L73.0 3.85 69.4 7.05 Q58.55 15.7 47.35 17.2 L47.0 16.8 46.6 16.8 Q46.3 16.8 46.3 17.2 L46.3 17.55 Q30.05 19.7 13.75 6.7 L12.7 6.0 Q12.7 5.65 12.3 5.65 L10.1 3.45 9.8 0.2 Q9.8 -0.1 10.9 -0.85 18.45 7.05 28.95 11.4 40.5 16.1 53.1 11.4 64.7 7.45 73.0 1.65" fill="#5798de" fill-rule="evenodd" stroke="none"/>
    <path d="M73.0 3.85 L75.2 44.6 69.75 45.7 Q71.95 31.65 69.4 7.05 L73.0 3.85 M6.55 45.0 L10.1 3.45 12.3 5.65 Q12.7 5.65 12.7 6.0 L13.75 6.7 Q10.5 37.4 11.55 46.05 L10.1 45.7 6.55 45.0 M47.35 17.2 L47.0 17.9 46.3 17.55 46.3 17.2 Q46.3 16.8 46.6 16.8 L47.0 16.8 47.35 17.2" fill="#73aae5" fill-rule="evenodd" stroke="none"/>
    <path d="M46.3 17.55 L47.0 17.9 47.35 17.2 Q58.55 15.7 69.4 7.05 71.95 31.65 69.75 45.7 40.15 50.7 11.55 46.05 10.5 37.4 13.75 6.7 30.05 19.7 46.3 17.55" fill="#92c5fc" fill-rule="evenodd" stroke="none"/>
    <path d="M75.2 44.6 L75.2 48.25 70.15 49.65 Q58.55 52.2 44.1 52.2 L40.5 52.2 35.5 52.2 Q23.5 51.8 11.55 50.0 L10.5 50.0 6.15 48.95 6.55 45.0 10.1 45.7 11.55 46.05 Q40.15 50.7 69.75 45.7 L75.2 44.6" fill="#b0d3fa" fill-rule="evenodd" stroke="none"/>
    <path d="M64.0 46.05 L54.9 28.05 25.7 26.9 15.55 46.05 12.3 46.05 22.05 24.8 58.15 25.45 66.5 46.05 64.0 46.05" fill="#b0d3fa" fill-rule="evenodd" stroke="none"/>
    <path d="M15.55 46.05 L25.7 26.9 54.9 28.05 64.0 46.05 Q51.35 47.85 39.0 47.85 26.8 47.85 15.55 46.05" fill="#6ca7e7" fill-rule="evenodd" stroke="none"/>
    <path d="M50.1 34.0 Q50.15 35.2 48.1 36.5 L44.35 38.6 46.3 41.85 Q48.05 45.3 46.85 46.3 45.7 47.25 42.75 44.65 L40.05 41.85 37.6 44.65 Q34.95 47.3 33.5 46.55 32.15 45.75 33.7 42.2 L35.6 38.75 Q33.85 38.15 32.2 37.25 28.9 35.4 29.1 34.1 29.3 32.8 33.25 33.1 L37.15 33.7 37.6 30.7 Q38.4 27.75 39.6 27.7 40.8 27.65 41.8 30.55 L42.5 33.55 46.45 32.9 Q50.05 32.75 50.1 34.0" fill="#d8de67" fill-rule="evenodd" stroke="none"/>
  </g>
</svg>
