<?xml version="1.0" encoding="UTF-8" standalone="no"?>
<svg xmlns:xlink="http://www.w3.org/1999/xlink" height="13.8px" width="23.4px" xmlns="http://www.w3.org/2000/svg">
  <g transform="matrix(1.0, 0.0, 0.0, 1.0, -14.3, 0.0)">
    <path d="M32.55 2.95 L32.55 10.6 18.65 10.6 18.65 2.95 32.55 2.95" fill="#b7b7b7" fill-rule="evenodd" stroke="none"/>
    <path d="M32.55 2.85 L32.55 4.8 18.65 4.8 18.65 2.85 32.55 2.85" fill="#cccccc" fill-rule="evenodd" stroke="none"/>
    <path d="M32.55 8.8 L32.55 10.6 18.65 10.6 18.65 8.8 32.55 8.8" fill="#959595" fill-rule="evenodd" stroke="none"/>
    <path d="M33.0 2.7 L33.0 10.55 31.35 10.55 31.35 2.7 33.0 2.7" fill="#000000" fill-opacity="0.29803923" fill-rule="evenodd" stroke="none"/>
    <path d="M32.15 4.7 L33.5 4.85 37.45 6.75 37.55 6.7 37.65 6.65 37.7 6.7 37.6 6.8 37.45 6.75 33.6 8.55 32.15 8.5 32.15 4.7" fill="#ff952b" fill-rule="evenodd" stroke="none"/>
    <path d="M37.6 6.8 L33.15 11.25 32.15 11.4 32.15 8.5 33.6 8.55 37.45 6.75 37.6 6.8" fill="#ff7011" fill-rule="evenodd" stroke="none"/>
    <path d="M32.15 4.7 L32.15 2.9 33.0 3.05 37.55 6.7 37.45 6.75 33.5 4.85 32.15 4.7" fill="#ffbf2b" fill-rule="evenodd" stroke="none"/>
    <path d="M37.55 6.7 L33.0 3.05 32.15 2.9 32.15 1.5 33.1 1.7 37.65 6.65 37.55 6.7" fill="#fed370" fill-rule="evenodd" stroke="none"/>
    <path d="M21.45 1.95 L17.95 2.1 17.9 2.0 14.3 0.3 20.5 0.3 21.45 1.95" fill="#b7b7b7" fill-rule="evenodd" stroke="none"/>
    <path d="M21.45 1.95 L22.55 4.0 18.7 4.05 17.95 2.1 21.45 1.95" fill="#aaaaaa" fill-rule="evenodd" stroke="none"/>
    <path d="M14.4 0.35 L14.35 0.0 20.45 0.0 20.5 0.4 14.4 0.35" fill="#cccccc" fill-rule="evenodd" stroke="none"/>
    <path d="M21.45 11.85 L17.95 11.7 17.9 11.8 14.3 13.5 20.5 13.5 21.45 11.85" fill="#b7b7b7" fill-rule="evenodd" stroke="none"/>
    <path d="M17.95 11.7 L21.45 11.85 22.55 9.8 18.7 9.75 17.95 11.7" fill="#aaaaaa" fill-rule="evenodd" stroke="none"/>
    <path d="M14.4 13.45 L14.35 13.8 20.45 13.8 20.5 13.4 14.4 13.45" fill="#cccccc" fill-rule="evenodd" stroke="none"/>
    <path d="M27.9 10.9 Q27.0 6.75 27.85 2.65 28.2 2.65 28.3 2.9 27.55 6.4 28.4 10.6 L27.9 10.9" fill="#ff952b" fill-rule="evenodd" stroke="none"/>
    <path d="M27.85 2.65 Q27.0 6.75 27.9 10.9 L27.2 10.65 Q26.45 6.8 27.2 2.9 27.5 2.6 27.85 2.65" fill="#ec7702" fill-rule="evenodd" stroke="none"/>
  </g>
</svg>
