<?xml version="1.0" encoding="UTF-8" standalone="no"?>
<svg xmlns:xlink="http://www.w3.org/1999/xlink" height="6.25px" width="11.3px" xmlns="http://www.w3.org/2000/svg">
  <g transform="matrix(1.0, 0.0, 0.0, 1.0, -12.7, -37.35)">
    <path d="M19.7 38.55 Q20.4 37.75 21.35 37.75 22.3 37.75 22.95 38.55 23.65 39.4 23.65 40.5 L23.65 41.0 Q23.5 41.85 22.95 42.45 22.3 43.25 21.35 43.25 20.4 43.25 19.7 42.45 19.2 41.8 19.1 40.95 L19.05 40.6 19.05 40.5 Q19.05 39.4 19.7 38.55" fill="#3ebbeb" fill-rule="evenodd" stroke="none"/>
    <path d="M19.7 38.55 Q20.4 37.75 21.35 37.75 22.3 37.75 22.95 38.55 23.65 39.4 23.65 40.5 L23.65 41.0 Q23.5 41.85 22.95 42.45 22.3 43.25 21.35 43.25 20.4 43.25 19.7 42.45 19.2 41.8 19.1 40.95 L19.05 40.6 19.05 40.5 Q19.05 39.4 19.7 38.55 Z" fill="none" stroke="#283757" stroke-linecap="round" stroke-linejoin="round" stroke-width="0.75"/>
    <path d="M23.65 41.0 Q23.5 41.85 22.95 42.45 22.3 43.25 21.35 43.25 20.4 43.25 19.7 42.45 19.2 41.8 19.1 40.95 L19.05 40.6 Q19.45 38.15 21.15 38.1 22.95 38.0 23.65 41.0" fill="#3ebbeb" fill-rule="evenodd" stroke="none"/>
    <path d="M19.05 40.6 L19.05 40.5 Q19.05 39.4 19.7 38.55 20.4 37.75 21.35 37.75 22.3 37.75 22.95 38.55 23.65 39.4 23.65 40.5 L23.65 41.0 Q22.95 38.0 21.15 38.1 19.45 38.15 19.05 40.6" fill="#1e82a8" fill-rule="evenodd" stroke="none"/>
    <path d="M16.95 38.5 Q17.65 39.35 17.65 40.45 L17.65 40.95 Q17.5 41.8 16.95 42.4 16.3 43.2 15.35 43.2 14.4 43.2 13.7 42.4 13.2 41.75 13.1 40.9 L13.05 40.55 13.05 40.45 Q13.05 39.35 13.7 38.5 14.4 37.7 15.35 37.7 16.3 37.7 16.95 38.5" fill="#3ebbeb" fill-rule="evenodd" stroke="none"/>
    <path d="M16.95 38.5 Q17.65 39.35 17.65 40.45 L17.65 40.95 Q17.5 41.8 16.95 42.4 16.3 43.2 15.35 43.2 14.4 43.2 13.7 42.4 13.2 41.75 13.1 40.9 L13.05 40.55 13.05 40.45 Q13.05 39.35 13.7 38.5 14.4 37.7 15.35 37.7 16.3 37.7 16.95 38.5 Z" fill="none" stroke="#283757" stroke-linecap="round" stroke-linejoin="round" stroke-width="0.75"/>
    <path d="M13.05 40.55 L13.05 40.45 Q13.05 39.35 13.7 38.5 14.4 37.7 15.35 37.7 16.3 37.7 16.95 38.5 17.65 39.35 17.65 40.45 L17.65 40.95 Q16.95 37.95 15.15 38.05 13.45 38.1 13.05 40.55" fill="#1e82a8" fill-rule="evenodd" stroke="none"/>
    <path d="M17.65 40.95 Q17.5 41.8 16.95 42.4 16.3 43.2 15.35 43.2 14.4 43.2 13.7 42.4 13.2 41.75 13.1 40.9 L13.05 40.55 Q13.45 38.1 15.15 38.05 16.95 37.95 17.65 40.95" fill="#3ebbeb" fill-rule="evenodd" stroke="none"/>
  </g>
</svg>
