<?xml version="1.0" encoding="UTF-8" standalone="no"?>
<svg xmlns:xlink="http://www.w3.org/1999/xlink" height="7.3px" width="76.1px" xmlns="http://www.w3.org/2000/svg">
  <g transform="matrix(1.0, 0.0, 0.0, 1.0, 76.4, 4.2)">
    <path d="M-75.8 -1.5 Q-76.15 -1.75 -76.3 -2.3 L-76.3 -3.35 -75.75 -4.1 -75.05 -4.05 -72.25 -2.25 -70.1 -3.65 -69.7 -4.1 -69.0 -4.05 -66.2 -2.25 -63.95 -3.75 -63.3 -3.8 -63.1 -3.95 -62.4 -3.9 -59.55 -2.05 -57.55 -3.35 -57.05 -3.95 -56.35 -3.9 -53.5 -2.05 -51.3 -3.5 -51.2 -3.55 -50.8 -3.95 -50.1 -3.9 -47.25 -2.05 -45.25 -3.35 -44.75 -3.95 -44.05 -3.9 -41.2 -2.05 -39.0 -3.5 -38.7 -3.6 -38.35 -3.95 -37.65 -3.9 -34.8 -2.05 -32.8 -3.35 -32.3 -3.95 -31.6 -3.9 -28.75 -2.05 -26.55 -3.5 -26.0 -3.55 -25.7 -3.85 -25.0 -3.8 -22.1 -1.95 -20.15 -3.2 -19.65 -3.85 -18.95 -3.8 -16.05 -1.95 -13.9 -3.35 -13.85 -3.35 -13.4 -3.85 -12.7 -3.8 -9.8 -1.95 -7.85 -3.2 -7.35 -3.85 -6.65 -3.8 -3.75 -1.95 -1.6 -3.35 Q-1.25 -3.55 -0.9 -3.35 -0.5 -3.15 -0.35 -2.65 -0.2 -2.1 -0.35 -1.55 -0.5 -1.0 -0.85 -0.75 L-1.35 -0.4 -0.85 -0.1 Q-0.5 0.15 -0.35 0.7 -0.2 1.25 -0.35 1.8 -0.5 2.3 -0.9 2.5 -1.25 2.7 -1.6 2.5 L-3.75 1.1 -6.65 2.95 -7.35 3.0 -7.85 2.35 -9.8 1.1 -12.7 2.95 -13.4 3.0 -13.85 2.55 -13.9 2.5 -16.05 1.1 -18.95 2.95 -19.65 3.0 -20.15 2.35 -22.1 1.1 -25.0 2.95 -25.7 3.0 -26.15 2.5 -26.55 2.4 -28.75 1.0 -31.6 2.8 -32.3 2.85 -32.8 2.3 -34.8 1.0 -37.65 2.8 -38.35 2.85 -38.7 2.5 -39.0 2.4 -41.2 1.0 -44.05 2.8 -44.75 2.85 -45.25 2.3 -47.25 1.0 -50.1 2.8 -50.8 2.85 -51.2 2.45 -51.3 2.4 -53.5 1.0 -56.35 2.8 -57.05 2.85 -57.55 2.3 -59.55 1.0 -62.4 2.8 -63.1 2.85 -63.55 2.35 -63.95 2.25 -66.2 0.8 -69.0 2.55 -69.7 2.6 -70.1 2.2 -72.25 0.8 -75.05 2.55 -75.75 2.6 -76.3 1.85 -76.3 0.8 Q-76.15 0.25 -75.8 0.0 L-74.65 -0.75 -75.8 -1.5 M-69.25 -1.15 L-69.85 -0.75 -69.25 -0.35 -69.2 -0.3 -68.55 -0.75 -69.2 -1.15 -69.25 -1.15 M-63.8 -0.75 L-63.2 -0.35 -62.85 0.05 -61.9 -0.55 -63.05 -1.25 -63.2 -1.15 -63.8 -0.75 M-56.6 -0.9 L-57.15 -0.55 -56.6 -0.2 -56.5 -0.1 -55.85 -0.55 -56.5 -0.95 -56.6 -0.9 M-50.35 -0.05 L-49.6 -0.55 -50.35 -1.05 -50.55 -0.9 -51.1 -0.55 -50.55 -0.2 -50.35 -0.05 M-44.85 -0.55 L-44.3 -0.2 -44.2 -0.1 -43.55 -0.55 -44.2 -0.95 -44.3 -0.9 -44.85 -0.55 M-38.25 -0.2 L-38.0 0.05 -37.15 -0.55 -38.0 -1.1 -38.25 -0.9 -38.8 -0.55 -38.25 -0.2 M-32.4 -0.55 L-31.85 -0.2 -31.75 -0.1 Q-31.4 -0.3 -31.1 -0.55 L-31.75 -0.95 -31.85 -0.9 -32.4 -0.55 M-26.35 -0.55 L-25.8 -0.2 -25.45 0.2 -24.45 -0.4 -25.55 -1.1 -25.8 -0.9 -26.35 -0.55 M-19.2 -0.75 L-19.7 -0.4 -19.2 -0.1 -19.05 0.0 -18.4 -0.4 -19.05 -0.85 -19.2 -0.75 M-13.15 -0.1 L-12.95 0.1 -12.15 -0.4 -12.95 -0.9 -13.15 -0.75 -13.65 -0.4 -13.15 -0.1 M-6.75 -0.85 L-6.9 -0.75 -7.4 -0.4 -6.9 -0.1 -6.75 0.0 -6.1 -0.4 -6.75 -0.85" fill="#0c100f" fill-rule="evenodd" stroke="none"/>
    <path d="M-75.05 -3.8 L-72.25 -2.0 -70.1 -3.4 -69.7 -3.85 -69.0 -3.8 -66.2 -2.0 -63.95 -3.5 -63.3 -3.55 -63.1 -3.7 -62.4 -3.65 -59.55 -1.8 -57.55 -3.1 -57.05 -3.7 -56.35 -3.65 -53.5 -1.8 -51.3 -3.25 -51.2 -3.3 -50.8 -3.7 -50.1 -3.65 -47.25 -1.8 -45.25 -3.1 -44.75 -3.7 -44.05 -3.65 -41.2 -1.8 -39.0 -3.25 -38.7 -3.35 -38.35 -3.7 -37.65 -3.65 -34.8 -1.8 -32.8 -3.1 -32.3 -3.7 -31.6 -3.65 -28.75 -1.8 -26.55 -3.25 -26.0 -3.3 -25.7 -3.6 -25.0 -3.55 -22.1 -1.7 -20.15 -2.95 -19.65 -3.6 -18.95 -3.55 -16.05 -1.7 -13.9 -3.1 -13.85 -3.1 -13.4 -3.6 -12.7 -3.55 -9.8 -1.7 -7.85 -2.95 -7.35 -3.6 -6.65 -3.55 -3.75 -1.7 -1.6 -3.1 Q-1.25 -3.3 -0.9 -3.1 -0.5 -2.9 -0.35 -2.4 -0.2 -1.85 -0.35 -1.3 L-0.65 -0.65 -25.2 -0.65 -25.55 -0.85 -25.8 -0.65 -31.6 -0.65 -31.75 -0.7 -31.85 -0.65 -37.7 -0.65 -38.0 -0.85 -38.25 -0.65 -44.05 -0.65 -44.2 -0.7 -44.3 -0.65 -50.15 -0.65 -50.35 -0.8 -50.55 -0.65 -56.35 -0.65 -56.5 -0.7 -56.6 -0.65 -62.45 -0.65 -63.05 -1.0 -63.2 -0.9 -63.6 -0.65 -68.8 -0.65 -69.2 -0.9 -69.25 -0.9 -69.65 -0.65 -74.85 -0.65 -75.8 -1.25 Q-76.15 -1.5 -76.3 -2.05 L-76.3 -3.1 -75.75 -3.85 -75.05 -3.8" fill="#4f5b56" fill-rule="evenodd" stroke="none"/>
  </g>
</svg>
