<?xml version="1.0" encoding="UTF-8" standalone="no"?>
<svg xmlns:xlink="http://www.w3.org/1999/xlink" height="7.25px" width="79.25px" xmlns="http://www.w3.org/2000/svg">
  <g transform="matrix(1.0, 0.0, 0.0, 1.0, 79.55, 3.55)">
    <path d="M-77.7 -0.05 L-78.95 -0.85 Q-79.3 -1.1 -79.45 -1.65 L-79.45 -2.7 -78.9 -3.45 -78.15 -3.4 -75.2 -1.6 -73.0 -2.95 -72.6 -3.45 -71.85 -3.4 -68.9 -1.6 -66.6 -3.05 -65.95 -3.1 -65.7 -3.3 -64.95 -3.25 -62.0 -1.45 -59.8 -2.8 -59.4 -3.3 -58.65 -3.25 -55.7 -1.45 -53.4 -2.9 -53.25 -2.95 -52.9 -3.3 -52.15 -3.25 -49.2 -1.45 -47.0 -2.8 -46.6 -3.3 -45.85 -3.25 -42.9 -1.45 -40.6 -2.9 -40.25 -3.0 -39.95 -3.3 -39.2 -3.25 -36.25 -1.45 -34.05 -2.8 -33.65 -3.3 -32.9 -3.25 -29.95 -1.45 -27.65 -2.9 -27.0 -2.95 -26.8 -3.15 -26.05 -3.1 -23.1 -1.3 -20.9 -2.65 -20.5 -3.15 -19.75 -3.1 -16.8 -1.3 -14.5 -2.75 -14.35 -2.8 -14.0 -3.15 -13.25 -3.1 -10.3 -1.3 -8.1 -2.65 -7.7 -3.15 -6.95 -3.1 -4.0 -1.3 -1.7 -2.75 Q-1.3 -2.95 -0.95 -2.75 L-0.4 -2.05 -0.35 -0.95 Q-0.5 -0.4 -0.95 -0.15 L-1.55 0.25 -0.95 0.6 Q-0.5 0.85 -0.35 1.4 L-0.4 2.5 -0.95 3.2 Q-1.3 3.4 -1.7 3.2 L-4.0 1.75 -6.95 3.55 -7.7 3.6 -8.1 3.15 -10.3 1.75 -13.25 3.55 -14.0 3.6 -14.35 3.25 -14.5 3.2 -16.8 1.75 -19.75 3.55 -20.5 3.6 -20.9 3.15 -23.1 1.75 -26.05 3.55 -26.8 3.6 -27.2 3.15 -27.65 3.05 -29.95 1.6 -32.9 3.4 -33.65 3.45 -34.05 3.0 -36.25 1.6 -39.2 3.4 -39.95 3.45 -40.25 3.15 -40.6 3.05 -42.9 1.6 -45.85 3.4 -46.6 3.45 -47.0 3.0 -49.2 1.6 -52.15 3.4 -52.9 3.45 -53.25 3.1 -53.4 3.05 -55.7 1.6 -58.65 3.4 -59.4 3.45 -59.8 3.0 -62.0 1.6 -64.95 3.4 -65.7 3.45 -66.1 3.0 -66.6 2.9 -68.9 1.45 -71.85 3.25 -72.6 3.3 -73.0 2.85 -75.2 1.45 -78.15 3.25 -78.9 3.3 -79.45 2.55 -79.45 1.5 Q-79.3 0.95 -78.95 0.7 L-77.7 -0.05 M-72.05 -0.5 L-72.15 -0.45 -72.75 -0.05 -72.15 0.3 -72.05 0.35 -71.4 -0.05 -72.05 -0.5 M-66.45 -0.05 L-65.85 0.3 -65.45 0.7 -64.5 0.1 -65.6 -0.6 -65.85 -0.45 -66.45 -0.05 M-52.45 -0.4 L-52.65 -0.3 -53.25 0.1 -52.65 0.45 -52.45 0.55 -51.7 0.1 -52.45 -0.4 M-58.85 -0.35 L-58.95 -0.3 -59.55 0.1 -58.95 0.45 -58.85 0.5 -58.2 0.1 -58.85 -0.35 M-46.15 -0.3 L-46.75 0.1 -46.15 0.45 -46.05 0.5 -45.4 0.1 -46.05 -0.35 -46.15 -0.3 M-33.1 -0.35 L-33.2 -0.3 -33.8 0.1 -33.2 0.45 -33.1 0.5 -32.45 0.1 -33.1 -0.35 M-39.85 -0.3 L-40.45 0.1 -39.85 0.45 Q-39.7 0.5 -39.6 0.65 L-38.75 0.1 -39.6 -0.45 -39.85 -0.3 M-26.65 -0.45 L-26.9 -0.3 -27.5 0.1 -26.9 0.45 -26.5 0.8 -25.6 0.25 -26.65 -0.45 M-13.75 -0.15 L-14.35 0.25 -13.75 0.6 -13.55 0.7 -12.8 0.25 -13.55 -0.25 -13.75 -0.15 M-19.95 -0.2 L-20.05 -0.15 -20.65 0.25 -20.05 0.6 -19.95 0.65 -19.3 0.25 -19.95 -0.2 M-7.25 -0.15 L-7.85 0.25 -7.25 0.6 -7.15 0.65 -6.5 0.25 -7.15 -0.2 -7.25 -0.15" fill="#0c100f" fill-rule="evenodd" stroke="none"/>
    <path d="M-78.9 -3.3 L-78.15 -3.25 -75.2 -1.45 -73.0 -2.8 -72.6 -3.3 -71.85 -3.25 -68.9 -1.45 -66.6 -2.9 -65.95 -2.95 -65.7 -3.15 -64.95 -3.1 -62.0 -1.3 -59.8 -2.65 -59.4 -3.15 -58.65 -3.1 -55.7 -1.3 -53.4 -2.75 -53.25 -2.8 -52.9 -3.15 -52.15 -3.1 -49.2 -1.3 -47.0 -2.65 -46.6 -3.15 -45.85 -3.1 -42.9 -1.3 -40.6 -2.75 -40.25 -2.85 -39.95 -3.15 -39.2 -3.1 -36.25 -1.3 -34.05 -2.65 -33.65 -3.15 -32.9 -3.1 -29.95 -1.3 -27.65 -2.75 -27.0 -2.8 -26.8 -3.0 -26.05 -2.95 -23.1 -1.15 -20.9 -2.5 -20.5 -3.0 -19.75 -2.95 -16.8 -1.15 -14.5 -2.6 -14.35 -2.65 -14.0 -3.0 -13.25 -2.95 -10.3 -1.15 -8.1 -2.5 -7.7 -3.0 -6.95 -2.95 -4.0 -1.15 -1.7 -2.6 Q-1.3 -2.8 -0.95 -2.6 L-0.4 -1.9 -0.35 -0.8 -0.45 -0.5 -0.95 0.0 -1.35 0.25 -6.7 0.25 -7.15 -0.05 -7.25 0.0 -7.65 0.25 -13.0 0.25 -13.55 -0.1 -13.75 0.0 -14.15 0.25 -19.5 0.25 -19.95 -0.05 -20.05 0.0 -20.45 0.25 -25.8 0.25 -26.65 -0.3 -26.9 -0.15 -27.5 0.25 -32.45 0.25 -33.1 -0.2 -33.2 -0.15 -33.8 0.25 -38.75 0.25 -39.6 -0.3 -39.85 -0.15 -40.45 0.25 -45.4 0.25 -46.05 -0.2 -46.15 -0.15 -46.75 0.25 -51.7 0.25 -52.45 -0.25 -52.65 -0.15 -53.25 0.25 -58.2 0.25 -58.85 -0.2 -58.95 -0.15 -59.55 0.25 -64.5 0.25 -65.6 -0.45 -65.85 -0.3 -66.45 0.1 -66.15 0.25 -71.65 0.25 -71.4 0.1 -72.05 -0.35 -72.15 -0.3 -72.75 0.1 -72.45 0.25 -77.95 0.25 -77.7 0.1 -78.95 -0.7 Q-79.3 -0.95 -79.45 -1.5 L-79.45 -2.55 -78.9 -3.3" fill="#4f5b56" fill-rule="evenodd" stroke="none"/>
  </g>
</svg>
