<?xml version="1.0" encoding="UTF-8" standalone="no"?>
<svg xmlns:xlink="http://www.w3.org/1999/xlink" height="8.0px" width="79.25px" xmlns="http://www.w3.org/2000/svg">
  <g transform="matrix(1.0, 0.0, 0.0, 1.0, 79.55, 4.05)">
    <path d="M-79.45 -3.1 L-78.9 -3.9 Q-78.5 -4.15 -78.15 -3.9 L-75.5 -2.05 -72.9 -3.85 -72.45 -3.95 -71.85 -3.9 -69.2 -2.05 -66.6 -3.85 Q-66.2 -4.1 -65.85 -3.85 L-65.5 -3.5 -64.95 -3.4 -62.2 -1.5 -59.7 -3.2 -59.55 -3.25 -59.4 -3.4 Q-59.0 -3.65 -58.65 -3.4 L-55.9 -1.5 -53.4 -3.2 -53.0 -3.3 -52.9 -3.4 Q-52.5 -3.65 -52.15 -3.4 L-49.4 -1.5 -46.9 -3.2 -46.75 -3.25 -46.6 -3.4 Q-46.2 -3.65 -45.85 -3.4 L-43.1 -1.5 -40.6 -3.2 -40.05 -3.3 -39.95 -3.4 Q-39.55 -3.65 -39.2 -3.4 L-36.45 -1.5 -33.95 -3.2 -33.8 -3.25 -33.65 -3.4 Q-33.25 -3.65 -32.9 -3.4 L-30.15 -1.5 -27.65 -3.2 -26.95 -3.25 -26.8 -3.4 Q-26.4 -3.65 -26.05 -3.4 L-23.3 -1.5 -20.8 -3.2 -20.65 -3.25 -20.5 -3.4 Q-20.1 -3.65 -19.75 -3.4 L-17.0 -1.5 -14.5 -3.2 -14.1 -3.3 -14.0 -3.4 Q-13.6 -3.65 -13.25 -3.4 L-10.5 -1.5 -8.0 -3.2 -7.85 -3.25 -7.7 -3.4 Q-7.3 -3.65 -6.95 -3.4 L-4.2 -1.5 -1.7 -3.2 Q-1.3 -3.45 -0.95 -3.2 -0.55 -2.95 -0.4 -2.4 L-0.35 -1.2 Q-0.5 -0.6 -0.95 -0.3 L-1.7 0.25 -0.95 0.75 Q-0.5 1.05 -0.35 1.65 L-0.4 2.85 Q-0.55 3.4 -0.95 3.65 -1.3 3.9 -1.7 3.65 L-4.2 1.95 -6.95 3.85 Q-7.3 4.1 -7.7 3.85 L-7.85 3.75 -8.0 3.65 -10.5 1.95 -13.25 3.85 Q-13.6 4.1 -14.0 3.85 L-14.1 3.8 -14.5 3.65 -17.0 1.95 -19.75 3.85 Q-20.1 4.1 -20.5 3.85 L-20.65 3.75 -20.8 3.65 -23.3 1.95 -26.05 3.85 Q-26.4 4.1 -26.8 3.85 L-26.95 3.7 -27.65 3.65 -30.15 1.95 -32.9 3.85 Q-33.25 4.1 -33.65 3.85 L-33.8 3.75 -33.95 3.65 -36.45 1.95 -39.2 3.85 Q-39.55 4.1 -39.95 3.85 L-40.05 3.75 -40.6 3.65 -43.1 1.95 -45.85 3.85 Q-46.2 4.1 -46.6 3.85 L-46.75 3.75 -46.9 3.65 -49.4 1.95 -52.15 3.85 Q-52.5 4.1 -52.9 3.85 L-53.0 3.8 -53.4 3.65 -55.9 1.95 -58.65 3.85 Q-59.0 4.1 -59.4 3.85 L-59.55 3.75 -59.7 3.65 -62.2 1.95 -64.95 3.85 Q-65.3 4.1 -65.7 3.85 L-66.15 3.3 -66.6 3.15 -69.2 1.4 -71.85 3.2 -72.45 3.3 -72.9 3.15 -75.5 1.4 -78.15 3.2 Q-78.5 3.45 -78.9 3.2 L-79.45 2.4 -79.45 1.2 Q-79.3 0.55 -78.95 0.3 L-78.0 -0.35 -78.95 -1.0 Q-79.3 -1.25 -79.45 -1.9 L-79.45 -3.1 M-72.35 -0.8 L-73.0 -0.35 -72.35 0.1 -71.7 -0.35 -72.35 -0.8 M-66.0 -0.8 L-66.7 -0.35 -65.85 0.25 -65.4 0.75 -64.7 0.25 -65.75 -0.5 -66.0 -0.8 M-39.85 -0.3 L-40.6 0.25 -39.85 0.75 -39.75 0.8 -38.95 0.25 -39.75 -0.35 -39.85 -0.3 M-26.9 -0.3 Q-27.25 0.0 -27.65 0.25 L-26.9 0.75 -26.75 0.9 -25.8 0.25 -26.75 -0.4 -26.9 -0.3 M-8.0 0.25 L-7.35 0.7 -6.7 0.25 -7.35 -0.2 -8.0 0.25 M-13.75 0.75 L-13.0 0.25 -13.75 -0.3 -14.5 0.25 -13.75 0.75 M-33.3 0.7 L-32.65 0.25 -33.3 -0.2 -33.95 0.25 -33.3 0.7 M-20.15 0.7 L-19.5 0.25 -20.15 -0.2 -20.8 0.25 -20.15 0.7 M-45.6 0.25 L-46.25 -0.2 -46.9 0.25 -46.25 0.7 -45.6 0.25 M-52.65 0.75 L-51.9 0.25 -52.65 -0.3 -53.4 0.25 -52.65 0.75 M-59.05 0.7 L-58.4 0.25 -59.05 -0.2 -59.7 0.25 -59.05 0.7" fill="#0c100f" fill-rule="evenodd" stroke="none"/>
    <path d="M-78.15 -3.65 L-75.5 -1.8 -72.9 -3.6 -72.45 -3.7 -71.85 -3.65 -69.2 -1.8 -66.6 -3.6 Q-66.2 -3.85 -65.85 -3.6 L-65.5 -3.25 -64.95 -3.15 -62.2 -1.25 -59.7 -2.95 -59.55 -3.0 -59.4 -3.15 Q-59.0 -3.4 -58.65 -3.15 L-55.9 -1.25 -53.4 -2.95 -53.0 -3.05 -52.9 -3.15 Q-52.5 -3.4 -52.15 -3.15 L-49.4 -1.25 -46.9 -2.95 -46.75 -3.0 -46.6 -3.15 Q-46.2 -3.4 -45.85 -3.15 L-43.1 -1.25 -40.6 -2.95 -40.05 -3.05 -39.95 -3.15 Q-39.55 -3.4 -39.2 -3.15 L-36.45 -1.25 -33.95 -2.95 -33.8 -3.0 -33.65 -3.15 Q-33.25 -3.4 -32.9 -3.15 L-30.15 -1.25 -27.65 -2.95 -26.95 -3.0 -26.8 -3.15 Q-26.4 -3.4 -26.05 -3.15 L-23.3 -1.25 -20.8 -2.95 -20.65 -3.0 -20.5 -3.15 Q-20.1 -3.4 -19.75 -3.15 L-17.0 -1.25 -14.5 -2.95 -14.1 -3.05 -14.0 -3.15 Q-13.6 -3.4 -13.25 -3.15 L-10.5 -1.25 -8.0 -2.95 -7.85 -3.0 -7.7 -3.15 Q-7.3 -3.4 -6.95 -3.15 L-4.2 -1.25 -1.7 -2.95 Q-1.3 -3.2 -0.95 -2.95 -0.55 -2.7 -0.4 -2.15 L-0.35 -0.95 Q-0.5 -0.35 -0.95 -0.05 L-1.0 0.0 -13.65 0.0 -13.75 -0.05 -13.8 0.0 -26.5 0.0 -26.75 -0.15 -26.9 -0.05 -26.95 0.0 -39.6 0.0 -39.75 -0.1 -39.85 -0.05 -39.9 0.0 -52.55 0.0 -52.65 -0.05 -52.7 0.0 -65.4 0.0 -65.75 -0.25 -66.0 -0.55 -66.7 -0.1 -66.55 0.0 -71.85 0.0 -71.7 -0.1 -72.35 -0.55 -73.0 -0.1 -72.85 0.0 -78.15 0.0 -78.0 -0.1 -78.95 -0.75 Q-79.3 -1.0 -79.45 -1.65 L-79.45 -2.85 -78.9 -3.65 Q-78.5 -3.9 -78.15 -3.65" fill="#4f5b56" fill-rule="evenodd" stroke="none"/>
  </g>
</svg>
