<?xml version="1.0" encoding="UTF-8" standalone="no"?>
<svg xmlns:xlink="http://www.w3.org/1999/xlink" height="15.85px" width="14.35px" xmlns="http://www.w3.org/2000/svg">
  <g transform="matrix(1.0, 0.0, 0.0, 1.0, 0.35, 0.5)">
    <path d="M11.1 1.0 L12.0 1.0 12.0 2.55 12.05 2.55 12.35 2.6 12.9 3.0 13.3 3.7 13.25 8.85 13.5 9.3 13.25 9.75 13.2 13.25 Q13.1 14.3 12.05 14.7 L8.5 14.55 Q7.65 14.35 7.6 13.3 L6.8 13.4 6.75 13.4 6.65 13.4 6.55 13.4 Q6.4 14.3 5.65 14.45 L5.15 14.6 4.9 14.7 1.35 14.55 Q0.4 14.35 0.45 12.95 L0.5 9.8 0.3 9.65 0.3 9.7 0.3 9.65 0.15 9.3 Q0.15 9.0 0.5 8.75 L0.5 3.65 0.95 3.05 1.45 2.65 1.75 2.5 2.0 2.5 2.0 1.0 2.9 1.0 2.9 0.1 3.1 0.1 3.1 0.0 4.1 0.0 4.1 0.9 5.0 0.9 5.0 2.45 5.7 2.7 6.4 3.25 6.45 3.25 6.65 3.2 6.7 3.2 6.8 3.2 7.75 3.4 Q7.9 2.9 8.45 2.7 L9.15 2.45 9.15 0.9 10.05 0.9 10.05 0.0 11.1 0.0 11.1 1.0" fill="#ffcccc" fill-rule="evenodd" stroke="none"/>
    <path d="M11.1 1.0 L12.0 1.0 12.0 2.55 12.05 2.55 12.35 2.6 12.9 3.0 13.3 3.7 13.25 8.85 13.5 9.3 13.25 9.75 13.2 13.25 Q13.1 14.3 12.05 14.7 L8.5 14.55 Q7.65 14.35 7.6 13.3 L6.8 13.4 6.75 13.4 6.65 13.4 6.55 13.4 Q6.4 14.3 5.65 14.45 L5.15 14.6 4.9 14.7 1.35 14.55 Q0.4 14.35 0.45 12.95 L0.5 9.8 0.3 9.65 0.3 9.7 0.3 9.65 0.15 9.3 Q0.15 9.0 0.5 8.75 L0.5 3.65 0.95 3.05 1.45 2.65 1.75 2.5 2.0 2.5 2.0 1.0 2.9 1.0 2.9 0.1 3.1 0.1 3.1 0.0 4.1 0.0 4.1 0.9 5.0 0.9 5.0 2.45 5.7 2.7 6.4 3.25 6.45 3.25 6.65 3.2 6.7 3.2 6.8 3.2 7.75 3.4 Q7.9 2.9 8.45 2.7 L9.15 2.45 9.15 0.9 10.05 0.9 10.05 0.0 11.1 0.0 11.1 1.0 Z" fill="none" stroke="#351e1a" stroke-linecap="round" stroke-linejoin="round" stroke-width="1.0"/>
    <path d="M2.0 1.0 L2.9 1.0 2.9 0.1 3.9 0.1 3.9 1.0 4.85 1.0 4.85 2.6 5.1 2.65 Q6.0 2.95 6.15 3.7 L6.05 13.25 Q5.95 14.3 4.9 14.7 L1.35 14.55 Q0.4 14.35 0.45 12.95 L0.5 3.65 Q0.7 3.05 1.3 2.8 L2.0 2.55 2.0 1.0" fill="#ee0000" fill-rule="evenodd" stroke="none"/>
    <path d="M9.15 1.0 L10.05 1.0 10.05 0.1 11.05 0.1 11.05 1.0 12.0 1.0 12.0 2.6 12.25 2.65 Q13.15 2.95 13.3 3.7 L13.2 13.25 Q13.1 14.3 12.05 14.7 L8.5 14.55 Q7.55 14.35 7.6 12.95 L7.65 3.65 Q7.85 3.05 8.45 2.8 L9.15 2.55 9.15 1.0" fill="#ee0000" fill-rule="evenodd" stroke="none"/>
    <path d="M11.1 2.45 Q10.7 2.5 10.35 2.7 9.75 2.9 9.6 3.5 L9.55 12.85 Q9.45 14.25 10.4 14.45 L11.55 14.75 8.5 14.45 Q7.55 14.25 7.6 12.85 L7.7 3.5 Q7.85 2.9 8.45 2.7 L9.15 2.45 9.15 0.9 10.05 0.9 10.05 0.0 11.1 0.0 11.1 2.45" fill="#c10202" fill-rule="evenodd" stroke="none"/>
    <path d="M5.7 2.7 Q6.3 2.9 6.5 3.5 L6.55 12.85 Q6.6 14.25 5.65 14.45 L2.6 14.75 3.75 14.45 Q4.7 14.25 4.65 12.85 L4.6 3.5 Q4.4 2.9 3.8 2.7 3.45 2.5 3.1 2.45 L3.1 0.0 4.1 0.0 4.1 0.9 5.0 0.9 5.0 2.45 5.7 2.7" fill="#c10202" fill-rule="evenodd" stroke="none"/>
    <path d="M6.8 13.4 Q5.8 13.4 5.05 12.6 4.3 11.9 4.3 10.9 L4.3 5.7 Q4.3 4.65 5.05 3.9 5.8 3.2 6.8 3.2 7.85 3.2 8.55 3.9 9.3 4.65 9.3 5.7 L9.3 10.9 Q9.3 11.9 8.55 12.6 7.85 13.4 6.8 13.4" fill="#fe4545" fill-rule="evenodd" stroke="none"/>
    <path d="M0.7 3.45 Q0.9 2.85 1.45 2.65 L1.75 2.5 2.5 2.5 2.2 2.65 Q1.6 2.85 1.4 3.45 L1.35 12.75 Q1.3 14.2 2.25 14.4 L3.9 14.75 1.55 14.4 Q0.6 14.2 0.65 12.75 L0.7 3.45" fill="#760101" fill-rule="evenodd" stroke="none"/>
    <path d="M13.1 3.45 L13.15 12.8 Q13.25 14.2 12.25 14.4 L9.9 14.75 11.55 14.4 Q12.5 14.2 12.45 12.8 L12.4 3.45 Q12.2 2.85 11.6 2.6 L11.35 2.55 12.05 2.55 12.35 2.6 Q12.95 2.85 13.1 3.45" fill="#760101" fill-rule="evenodd" stroke="none"/>
    <path d="M6.65 13.4 Q5.95 13.4 5.45 12.6 4.95 11.9 4.95 10.9 L4.95 5.7 Q4.95 4.65 5.45 3.9 5.95 3.2 6.65 3.2 7.3 3.2 7.8 3.9 8.3 4.65 8.3 5.7 L8.3 10.9 Q8.3 11.9 7.8 12.6 7.3 13.4 6.65 13.4" fill="#ffcccc" fill-rule="evenodd" stroke="none"/>
    <path d="M13.0 9.85 L12.0 10.15 1.65 10.15 0.6 9.85 Q0.15 9.65 0.15 9.3 0.15 8.95 0.6 8.65 L1.65 8.45 12.0 8.45 13.0 8.65 Q13.5 8.95 13.5 9.3 L13.0 9.85" fill="#3c0000" fill-rule="evenodd" stroke="none"/>
    <path d="M12.7 8.6 Q13.2 8.95 13.2 9.4 L13.15 9.7 12.7 9.15 Q12.35 8.85 11.75 8.85 L1.7 8.85 Q1.1 8.85 0.65 9.15 L0.3 9.7 0.25 9.4 Q0.25 8.95 0.65 8.6 1.1 8.3 1.7 8.3 L11.75 8.3 Q12.35 8.3 12.7 8.6" fill="#626262" fill-rule="evenodd" stroke="none"/>
  </g>
</svg>
