<?xml version="1.0" encoding="UTF-8" standalone="no"?>
<svg xmlns:xlink="http://www.w3.org/1999/xlink" height="36.65px" width="18.1px" xmlns="http://www.w3.org/2000/svg">
  <g transform="matrix(1.0, 0.0, 0.0, 1.0, 0.45, 1.3)">
    <path d="M11.45 18.3 L11.55 33.1 5.45 33.15 5.35 18.35 11.45 18.3" fill="#9e6720" fill-rule="evenodd" stroke="none"/>
    <path d="M10.85 34.15 Q9.9 34.85 8.65 34.9 7.4 34.9 6.45 34.2 5.55 33.5 5.55 32.55 5.55 31.6 6.4 30.95 7.35 30.25 8.6 30.25 9.85 30.2 10.8 30.9 11.75 31.55 11.75 32.5 11.75 33.45 10.85 34.15" fill="#9e6720" fill-rule="evenodd" stroke="none"/>
    <path d="M10.8 20.5 Q9.85 21.2 8.6 21.25 7.35 21.25 6.4 20.55 5.5 19.85 5.5 18.9 5.5 17.95 6.35 17.3 7.3 16.6 8.55 16.6 9.8 16.55 10.75 17.25 11.7 17.9 11.7 18.85 11.7 19.8 10.8 20.5" fill="#9e6720" fill-rule="evenodd" stroke="none"/>
    <path d="M9.4 16.6 Q9.05 16.25 8.55 16.15 9.65 16.2 10.6 16.9 L11.45 17.75 11.45 18.0 11.55 18.5 11.55 19.1 11.55 31.6 11.65 32.2 Q11.6 33.2 10.75 33.95 9.8 34.55 8.55 34.5 L6.85 34.25 7.35 34.25 Q8.55 34.25 9.55 33.7 10.4 32.95 10.45 31.95 L10.3 31.35 10.35 18.9 10.35 18.25 10.2 17.75 10.2 17.55 9.4 16.6" fill="#724416" fill-rule="evenodd" stroke="none"/>
    <path d="M7.25 17.6 Q6.75 18.1 6.65 18.6 L6.4 18.6 6.45 33.4 6.7 33.4 7.2 34.35 6.35 34.0 Q5.7 33.5 5.6 32.8 L5.35 32.75 5.3 17.9 5.55 17.9 6.15 17.0 Q7.15 16.25 8.4 16.2 9.6 16.2 10.55 16.9 L10.65 17.05 9.45 16.8 Q8.25 16.85 7.25 17.6" fill="#aa8052" fill-rule="evenodd" stroke="none"/>
    <path d="M16.35 20.4 Q15.55 14.45 15.5 12.25 L15.85 7.2 Q15.95 3.55 15.65 2.9 15.2 1.35 13.2 0.25 11.2 -0.8 8.4 -0.8 5.65 -0.8 3.75 0.3 2.05 1.35 1.5 3.0 L1.45 3.45 Q1.25 4.0 1.35 6.35 L1.3 11.2 0.85 18.75 Q0.6 22.85 0.95 23.65 L16.6 25.7 Q16.9 24.9 16.35 20.4" fill="#ceb27a" fill-rule="evenodd" stroke="none"/>
    <path d="M13.15 21.95 Q11.9 21.35 8.65 21.15 L7.55 -0.85 11.0 -0.55 12.5 -0.15 12.25 10.05 13.15 21.95" fill="#aa8052" fill-rule="evenodd" stroke="none"/>
    <path d="M3.95 0.05 Q5.1 -0.45 6.95 -0.75 L8.7 -0.85 8.3 9.2 8.8 21.75 3.9 22.3 3.95 0.05" fill="#9e6720" fill-rule="evenodd" stroke="none"/>
    <path d="M4.4 -0.35 L4.35 21.8 0.15 24.5 0.55 20.25 0.65 19.25 1.2 11.1 Q1.0 9.95 0.95 7.25 L0.85 4.5 Q1.65 2.0 2.25 1.15 L4.4 -0.35" fill="#7f4f08" fill-rule="evenodd" stroke="none"/>
    <path d="M3.45 14.65 Q5.8 13.55 8.65 13.55 11.4 13.55 13.65 14.55 15.75 15.4 16.8 17.05 L17.15 18.9 16.95 20.15 Q17.0 17.9 13.8 17.25 L7.3 17.05 Q5.15 17.05 2.6 19.2 L0.55 21.4 Q0.25 19.6 0.4 17.4 1.1 15.7 3.45 14.65" fill="#e2e2e2" fill-rule="evenodd" stroke="none"/>
    <path d="M15.9 6.1 Q15.9 3.95 13.1 3.5 11.15 3.2 7.05 3.4 4.8 3.4 2.6 5.45 L0.9 7.5 Q0.8 6.75 1.35 3.6 3.0 0.05 8.3 0.0 13.95 0.1 15.9 3.2 L16.1 5.0 15.9 6.1" fill="#e2e2e2" fill-rule="evenodd" stroke="none"/>
    <path d="M17.0 19.6 L16.85 20.9 15.0 19.3 Q12.65 17.6 10.2 17.5 L5.2 17.85 Q2.9 18.55 0.45 21.7 0.15 19.0 0.3 18.2 1.05 16.45 3.35 15.35 5.7 14.2 8.55 14.2 11.35 14.25 13.55 15.25 15.65 16.2 16.65 17.75 L17.0 19.6" fill="#bcbcbc" fill-rule="evenodd" stroke="none"/>
    <path d="M8.5 28.95 Q5.05 28.9 2.55 27.65 0.1 26.35 0.1 24.6 0.15 22.75 2.65 21.4 5.1 20.15 8.6 20.2 12.05 20.3 14.45 21.6 16.75 22.9 16.8 24.7 16.75 26.5 14.35 27.75 11.95 29.05 8.5 28.95" fill="#7f4f08" fill-rule="evenodd" stroke="none"/>
    <path d="M14.3 14.5 Q15.45 8.25 14.8 5.65 14.2 3.0 12.5 2.15 13.4 4.05 13.9 7.5 14.4 10.85 14.3 14.5" fill="#ffffff" fill-rule="evenodd" stroke="none"/>
    <path d="M15.9 3.75 L16.4 5.6 Q16.5 7.15 16.05 8.15 L16.05 7.4 15.95 6.75 Q13.95 3.6 8.75 3.6 6.2 3.55 3.85 5.05 1.65 6.45 0.9 8.15 0.85 4.95 1.1 4.15 1.9 2.55 3.85 1.6 5.85 0.6 8.55 0.65 13.9 0.6 15.9 3.75" fill="#bcbcbc" fill-rule="evenodd" stroke="none"/>
    <path d="M16.3 8.15 L16.2 8.15 Q15.75 6.8 13.95 5.8 11.55 4.45 8.6 4.4 6.0 4.4 3.7 5.65 1.75 6.7 0.9 8.2 L1.0 7.3 Q1.7 5.7 3.9 4.6 6.15 3.55 8.8 3.55 13.95 3.55 16.0 6.7 L16.3 8.0 16.3 8.15" fill="#7f4f08" fill-rule="evenodd" stroke="none"/>
    <path d="M3.5 19.25 Q1.4 20.25 0.5 21.55 0.35 20.65 0.5 20.85 1.1 19.25 3.65 18.3 5.95 17.35 8.7 17.35 11.35 17.35 13.6 18.3 16.0 19.3 16.8 20.75 17.05 21.1 16.8 21.7 L16.65 22.3 Q16.45 22.6 16.45 22.4 16.4 20.8 13.95 19.45 11.5 18.15 8.45 18.2 5.85 18.2 3.5 19.25" fill="#7f4f08" fill-rule="evenodd" stroke="none"/>
    <path d="M16.85 20.9 Q16.2 19.05 13.2 18.05 L13.2 15.05 Q14.7 15.6 16.3 17.25 17.45 18.55 16.85 20.9" fill="#ffffff" fill-rule="evenodd" stroke="none"/>
    <path d="M16.2 7.0 Q15.55 5.15 13.3 4.4 L13.2 1.4 14.45 2.1 15.6 3.4 Q16.35 4.15 16.35 5.65 L16.2 7.0" fill="#ffffff" fill-rule="evenodd" stroke="none"/>
    <path d="M0.3 21.05 Q1.15 19.25 3.5 18.35 L5.65 17.8 5.9 14.65 Q3.05 15.1 1.55 16.45 0.65 17.35 0.4 18.25 0.1 18.95 0.3 21.05" fill="#6d6d6d" fill-rule="evenodd" stroke="none"/>
    <path d="M0.8 20.35 L0.55 21.45 0.35 17.85 1.0 17.0 1.75 16.25 2.55 15.8 2.55 18.95 0.8 20.35" fill="#474747" fill-rule="evenodd" stroke="none"/>
    <path d="M13.95 4.35 L14.0 3.35 14.85 2.9 15.65 3.45 15.65 4.4 14.8 4.85 13.95 4.35" fill="#000000" fill-rule="evenodd" stroke="none"/>
    <path d="M0.85 7.9 Q0.9 5.05 1.1 4.4 2.25 1.5 6.35 0.8 L6.3 3.8 4.05 4.45 Q1.7 5.65 0.85 7.9" fill="#6d6d6d" fill-rule="evenodd" stroke="none"/>
    <path d="M2.45 2.3 L3.05 2.0 2.9 5.15 2.05 5.8 1.25 6.8 0.85 7.9 1.2 3.85 2.45 2.3" fill="#474747" fill-rule="evenodd" stroke="none"/>
    <path d="M7.65 1.9 L8.0 0.95 9.1 0.8 9.75 1.65 9.35 2.65 8.3 2.75 7.65 1.9" fill="#000000" fill-rule="evenodd" stroke="none"/>
    <path d="M4.45 1.3 Q4.3 2.85 4.3 4.35 L3.6 4.65 3.7 1.6 4.45 1.3" fill="#474747" fill-rule="evenodd" stroke="none"/>
    <path d="M12.75 14.9 L12.7 17.95 11.8 17.7 11.85 14.6 12.75 14.9" fill="#ffffff" fill-rule="evenodd" stroke="none"/>
    <path d="M12.8 1.3 L12.8 4.25 11.9 3.9 11.85 1.05 12.8 1.3" fill="#ffffff" fill-rule="evenodd" stroke="none"/>
    <path d="M11.15 14.5 L11.1 17.55 10.35 17.4 10.4 14.35 11.15 14.5" fill="#ffffff" fill-rule="evenodd" stroke="none"/>
    <path d="M11.2 0.85 L11.2 3.75 10.45 3.65 10.55 0.7 11.2 0.85" fill="#ffffff" fill-rule="evenodd" stroke="none"/>
    <path d="M7.05 14.3 L6.45 14.4 6.4 17.55 7.1 17.55 7.05 14.3" fill="#6d6d6d" fill-rule="evenodd" stroke="none"/>
    <path d="M7.6 0.65 L7.5 3.6 6.8 3.7 6.9 0.75 7.6 0.65" fill="#6d6d6d" fill-rule="evenodd" stroke="none"/>
    <path d="M3.85 15.1 L3.75 18.45 3.05 18.9 3.15 15.4 Q3.45 15.2 3.85 15.1" fill="#474747" fill-rule="evenodd" stroke="none"/>
    <path d="M14.8 18.55 L14.85 17.6 15.65 17.2 16.5 17.7 16.45 18.6 15.6 19.05 14.8 18.55" fill="#000000" fill-rule="evenodd" stroke="none"/>
    <path d="M7.8 15.65 L8.2 14.7 9.25 14.65 9.85 15.45 9.5 16.4 8.45 16.5 7.8 15.65" fill="#000000" fill-rule="evenodd" stroke="none"/>
    <path d="M1.45 17.2 L2.05 17.85 1.95 18.95 1.35 19.35 0.8 18.8 0.85 17.7 1.45 17.2" fill="#000000" fill-rule="evenodd" stroke="none"/>
    <path d="M1.95 3.35 L2.55 4.0 2.45 5.1 1.85 5.5 1.3 4.95 1.35 3.85 1.95 3.35" fill="#000000" fill-rule="evenodd" stroke="none"/>
    <path d="M12.35 -0.35 Q13.95 -0.1 15.25 1.6 16.1 2.75 16.0 6.7 L15.8 7.55 15.75 7.5 15.45 12.25 15.75 15.8 16.8 17.05 17.15 18.9 17.1 19.2 16.85 20.9 16.8 21.7 16.65 22.3 16.55 22.45 16.65 23.9 16.8 24.65 16.6 25.6 16.55 25.7 Q16.0 26.8 14.35 27.7 13.1 28.4 11.5 28.7 L11.55 31.7 11.6 31.85 11.8 32.5 Q11.8 33.45 10.85 34.1 9.9 34.8 8.65 34.85 7.4 34.85 6.5 34.15 5.85 33.75 5.65 33.15 L5.5 33.15 5.5 32.75 5.4 32.75 5.4 28.6 2.55 27.6 Q0.05 26.3 0.05 24.55 L0.05 24.5 0.15 24.05 0.45 21.4 0.4 20.9 0.3 21.05 Q0.15 19.5 0.3 18.75 L0.3 18.1 0.35 18.0 0.35 17.85 0.4 17.8 0.4 17.4 0.85 16.65 1.2 11.1 Q1.0 10.15 0.95 8.05 L0.9 8.2 0.9 7.8 0.85 7.9 0.9 7.15 0.9 6.65 0.8 4.5 Q0.75 2.5 2.15 1.05 3.15 0.1 4.4 -0.4 8.25 -1.25 12.35 -0.35 M16.0 6.7 L15.75 7.5" fill="none" stroke="#453129" stroke-linecap="round" stroke-linejoin="round" stroke-width="1.0"/>
  </g>
</svg>
