<?xml version="1.0" encoding="UTF-8" standalone="no"?>
<svg xmlns:xlink="http://www.w3.org/1999/xlink" height="5.75px" width="22.55px" xmlns="http://www.w3.org/2000/svg">
  <g transform="matrix(1.0, 0.0, 0.0, 1.0, -4.1, 11.0)">
    <path d="M5.85 -10.25 L7.0 -10.6 7.4 -10.65 8.45 -10.1 8.55 -9.95 8.6 -9.8 8.75 -9.4 8.9 -9.15 9.1 -8.65 Q9.45 -7.7 8.95 -6.8 8.45 -5.95 7.5 -5.7 L5.7 -5.9 Q4.9 -6.35 4.55 -7.35 4.3 -8.25 4.8 -9.1 5.1 -9.75 5.85 -10.2 L5.85 -10.25" fill="#cf72f0" fill-rule="evenodd" stroke="none"/>
    <path d="M5.85 -10.25 L7.0 -10.6 7.4 -10.65 8.45 -10.1 8.55 -9.95 8.6 -9.8 8.75 -9.4 8.9 -9.15 9.1 -8.65 Q9.45 -7.7 8.95 -6.8 8.45 -5.95 7.5 -5.7 L5.7 -5.9 Q4.9 -6.35 4.55 -7.35 4.3 -8.25 4.8 -9.1 5.1 -9.75 5.85 -10.2" fill="none" stroke="#283757" stroke-linecap="round" stroke-linejoin="round" stroke-width="0.75"/>
    <path d="M8.6 -9.8 L8.65 -9.4 8.6 -9.2 8.55 -8.8 8.55 -8.55 8.2 -8.55 7.75 -8.6 Q7.5 -8.7 7.15 -8.9 L6.8 -9.05 6.6 -9.15 6.65 -9.25 6.3 -9.65 6.15 -9.75 6.4 -10.0 6.45 -10.05 6.8 -10.2 Q7.1 -10.4 7.1 -10.2 L7.2 -10.15 7.4 -10.65 8.45 -10.1 8.55 -9.95 8.6 -9.8" fill="#c8c8c8" fill-rule="evenodd" stroke="none"/>
    <path d="M8.55 -8.55 L8.55 -8.8 8.6 -9.2 8.65 -9.4 8.6 -9.8 8.9 -8.65 8.55 -8.55 M7.75 -8.6 L8.2 -8.55 8.15 -8.4 7.75 -8.6" fill="#e6e6e6" fill-rule="evenodd" stroke="none"/>
    <path d="M7.4 -10.65 L7.2 -10.15 7.1 -10.2 Q7.1 -10.4 6.8 -10.2 L6.45 -10.05 6.4 -10.0 6.15 -9.75 5.85 -10.2 5.85 -10.25 7.0 -10.6 7.4 -10.65 M6.3 -9.65 L6.65 -9.25 6.6 -9.15 6.15 -9.4 6.3 -9.65" fill="#a2a2a2" fill-rule="evenodd" stroke="none"/>
    <path d="M8.0 -10.05 L8.6 -9.6 8.9 -9.15 9.1 -8.65 Q9.45 -7.7 8.95 -6.8 8.45 -5.95 7.5 -5.7 L5.7 -5.9 Q4.9 -6.35 4.55 -7.35 4.3 -8.25 4.8 -9.1 5.25 -9.95 6.25 -10.25 L6.65 -10.35 7.25 -10.3 8.0 -10.05" fill="#3ebbeb" fill-rule="evenodd" stroke="none"/>
    <path d="M5.2 -8.25 Q5.05 -8.95 5.25 -9.55 5.55 -10.2 6.25 -10.35 L7.7 -10.25 Q8.45 -9.9 8.65 -9.2 8.8 -8.45 8.45 -7.85 8.1 -7.2 7.4 -7.0 L6.05 -7.15 Q5.4 -7.55 5.2 -8.25" fill="#56d0ff" fill-rule="evenodd" stroke="none"/>
    <path d="M6.7 -8.05 L6.75 -8.65 6.4 -9.1 5.75 -9.2 5.3 -8.8 Q5.1 -8.55 5.2 -8.25 5.25 -7.9 5.6 -7.75 L6.2 -7.65 6.7 -8.05" fill="#7edbff" fill-rule="evenodd" stroke="none"/>
    <path d="M24.55 -10.3 Q25.4 -10.0 25.85 -9.4 26.4 -8.7 26.3 -7.75 26.2 -6.7 25.45 -6.15 24.7 -5.5 23.7 -5.6 22.75 -5.7 22.1 -6.45 21.45 -7.25 21.6 -8.25 L21.75 -8.75 21.8 -9.05 21.9 -9.4 21.95 -9.6 22.05 -9.8 22.95 -10.5 23.35 -10.5 24.5 -10.35 24.55 -10.3" fill="#cf72f0" fill-rule="evenodd" stroke="none"/>
    <path d="M24.5 -10.35 L23.35 -10.5 22.95 -10.5 22.05 -9.8 21.95 -9.6 21.9 -9.4 21.8 -9.05 21.75 -8.75 21.6 -8.25 Q21.45 -7.25 22.1 -6.45 22.75 -5.7 23.7 -5.6 24.7 -5.5 25.45 -6.15 26.2 -6.7 26.3 -7.75 26.4 -8.7 25.85 -9.4 25.4 -10.0 24.55 -10.3" fill="none" stroke="#283757" stroke-linecap="round" stroke-linejoin="round" stroke-width="0.75"/>
    <path d="M22.95 -10.5 L23.2 -10.0 23.3 -10.1 23.6 -10.15 24.0 -10.05 24.05 -10.05 24.35 -9.8 24.2 -9.7 23.95 -9.25 24.0 -9.15 23.8 -9.0 23.5 -8.85 22.95 -8.45 22.55 -8.35 22.25 -8.25 22.15 -8.45 22.0 -8.85 21.95 -9.0 21.9 -9.4 21.95 -9.6 22.05 -9.8 22.95 -10.5" fill="#c8c8c8" fill-rule="evenodd" stroke="none"/>
    <path d="M24.35 -9.8 L24.05 -10.05 24.0 -10.05 23.6 -10.15 23.3 -10.1 23.2 -10.0 22.95 -10.5 23.35 -10.5 24.5 -10.35 24.55 -10.3 24.35 -9.8 M24.0 -9.15 L23.95 -9.25 24.2 -9.7 24.45 -9.45 24.0 -9.15" fill="#a2a2a2" fill-rule="evenodd" stroke="none"/>
    <path d="M21.9 -9.4 L21.95 -9.0 22.0 -8.85 22.15 -8.45 22.25 -8.25 21.8 -8.3 21.9 -9.4 M22.55 -8.35 L22.95 -8.45 22.6 -8.15 22.55 -8.35" fill="#e6e6e6" fill-rule="evenodd" stroke="none"/>
    <path d="M25.85 -9.4 Q26.4 -8.7 26.3 -7.75 26.2 -6.7 25.45 -6.15 24.7 -5.5 23.7 -5.6 22.75 -5.7 22.1 -6.45 21.45 -7.25 21.6 -8.25 L21.75 -8.75 21.95 -9.25 22.5 -9.8 Q22.8 -10.1 23.15 -10.2 L23.75 -10.35 24.15 -10.25 Q25.2 -10.2 25.85 -9.4" fill="#3ebbeb" fill-rule="evenodd" stroke="none"/>
    <path d="M25.55 -8.5 Q25.6 -9.25 25.25 -9.75 L24.2 -10.4 22.8 -10.05 Q22.05 -9.55 22.05 -8.85 21.95 -8.1 22.4 -7.55 22.9 -6.95 23.65 -6.9 24.4 -6.8 24.95 -7.3 25.5 -7.75 25.55 -8.5" fill="#56d0ff" fill-rule="evenodd" stroke="none"/>
    <path d="M24.05 -7.9 Q23.85 -8.15 23.9 -8.45 23.9 -8.8 24.15 -9.0 L24.75 -9.2 25.3 -8.9 25.45 -8.3 25.2 -7.8 Q24.9 -7.55 24.6 -7.6 24.25 -7.6 24.05 -7.9" fill="#7edbff" fill-rule="evenodd" stroke="none"/>
  </g>
</svg>
