<?xml version="1.0" encoding="UTF-8" standalone="no"?>
<svg xmlns:xlink="http://www.w3.org/1999/xlink" height="5.75px" width="22.55px" xmlns="http://www.w3.org/2000/svg">
  <g transform="matrix(1.0, 0.0, 0.0, 1.0, -4.1, 15.2)">
    <path d="M5.85 -14.4 L5.85 -14.45 7.0 -14.8 7.4 -14.85 8.45 -14.3 8.55 -14.15 8.6 -14.0 8.75 -13.6 8.9 -13.35 9.1 -12.85 Q9.45 -11.9 8.95 -11.0 8.45 -10.15 7.5 -9.9 L5.7 -10.1 Q4.9 -10.55 4.55 -11.55 4.3 -12.45 4.8 -13.3 5.1 -13.95 5.85 -14.4" fill="#cf72f0" fill-rule="evenodd" stroke="none"/>
    <path d="M5.85 -14.45 L7.0 -14.8 7.4 -14.85 8.45 -14.3 8.55 -14.15 8.6 -14.0 8.75 -13.6 8.9 -13.35 9.1 -12.85 Q9.45 -11.9 8.95 -11.0 8.45 -10.15 7.5 -9.9 L5.7 -10.1 Q4.9 -10.55 4.55 -11.55 4.3 -12.45 4.8 -13.3 5.1 -13.95 5.85 -14.4" fill="none" stroke="#283757" stroke-linecap="round" stroke-linejoin="round" stroke-width="0.75"/>
    <path d="M7.4 -14.85 L7.2 -14.35 7.1 -14.4 Q7.1 -14.6 6.8 -14.4 L6.45 -14.25 6.4 -14.2 6.15 -13.95 5.85 -14.4 5.85 -14.45 7.0 -14.8 7.4 -14.85 M6.3 -13.85 L6.65 -13.45 6.6 -13.35 6.15 -13.6 6.3 -13.85" fill="#a2a2a2" fill-rule="evenodd" stroke="none"/>
    <path d="M6.15 -13.95 L6.4 -14.2 6.45 -14.25 6.8 -14.4 Q7.1 -14.6 7.1 -14.4 L7.2 -14.35 7.4 -14.85 8.45 -14.3 8.55 -14.15 8.6 -14.0 8.65 -13.6 8.6 -13.4 8.55 -13.0 8.55 -12.75 8.2 -12.75 7.75 -12.8 Q7.5 -12.9 7.15 -13.1 L6.8 -13.25 6.6 -13.35 6.65 -13.45 6.3 -13.85 6.15 -13.95" fill="#c8c8c8" fill-rule="evenodd" stroke="none"/>
    <path d="M7.75 -12.8 L8.2 -12.75 8.15 -12.6 7.75 -12.8 M8.55 -12.75 L8.55 -13.0 8.6 -13.4 8.65 -13.6 8.6 -14.0 8.9 -12.85 8.55 -12.75" fill="#e6e6e6" fill-rule="evenodd" stroke="none"/>
    <path d="M7.25 -14.5 L8.0 -14.25 8.6 -13.8 8.9 -13.35 9.1 -12.85 Q9.45 -11.9 8.95 -11.0 8.45 -10.15 7.5 -9.9 L5.7 -10.1 Q4.9 -10.55 4.55 -11.55 4.3 -12.45 4.8 -13.3 5.25 -14.15 6.25 -14.45 L6.65 -14.55 7.25 -14.5" fill="#3ebbeb" fill-rule="evenodd" stroke="none"/>
    <path d="M5.2 -12.45 Q5.05 -13.15 5.25 -13.75 5.55 -14.4 6.25 -14.55 L7.7 -14.45 Q8.45 -14.1 8.65 -13.4 8.8 -12.65 8.45 -12.05 8.1 -11.4 7.4 -11.2 L6.05 -11.35 Q5.4 -11.75 5.2 -12.45" fill="#56d0ff" fill-rule="evenodd" stroke="none"/>
    <path d="M6.7 -12.25 L6.75 -12.85 6.4 -13.3 5.75 -13.4 5.3 -13.0 Q5.1 -12.75 5.2 -12.45 5.25 -12.1 5.6 -11.95 L6.2 -11.85 6.7 -12.25" fill="#7edbff" fill-rule="evenodd" stroke="none"/>
    <path d="M24.55 -14.5 Q25.4 -14.2 25.85 -13.6 26.4 -12.9 26.3 -11.95 26.2 -10.9 25.45 -10.35 24.7 -9.7 23.7 -9.8 22.75 -9.9 22.1 -10.65 21.45 -11.45 21.6 -12.45 L21.75 -12.95 21.8 -13.25 21.9 -13.6 21.95 -13.8 22.05 -14.0 22.95 -14.7 23.35 -14.7 24.5 -14.55 24.55 -14.5" fill="#cf72f0" fill-rule="evenodd" stroke="none"/>
    <path d="M24.5 -14.55 L23.35 -14.7 22.95 -14.7 22.05 -14.0 21.95 -13.8 21.9 -13.6 21.8 -13.25 21.75 -12.95 21.6 -12.45 Q21.45 -11.45 22.1 -10.65 22.75 -9.9 23.7 -9.8 24.7 -9.7 25.45 -10.35 26.2 -10.9 26.3 -11.95 26.4 -12.9 25.85 -13.6 25.4 -14.2 24.55 -14.5" fill="none" stroke="#283757" stroke-linecap="round" stroke-linejoin="round" stroke-width="0.75"/>
    <path d="M22.25 -12.45 L22.15 -12.65 22.0 -13.05 21.95 -13.2 21.9 -13.6 21.95 -13.8 22.05 -14.0 22.95 -14.7 23.2 -14.2 23.3 -14.3 23.6 -14.35 24.0 -14.25 24.05 -14.25 24.35 -14.0 24.2 -13.9 23.95 -13.45 24.0 -13.35 23.8 -13.2 23.5 -13.05 22.95 -12.65 22.55 -12.55 22.25 -12.45" fill="#c8c8c8" fill-rule="evenodd" stroke="none"/>
    <path d="M21.9 -13.6 L21.95 -13.2 22.0 -13.05 22.15 -12.65 22.25 -12.45 21.8 -12.5 21.9 -13.6 M22.55 -12.55 L22.95 -12.65 22.6 -12.35 22.55 -12.55" fill="#e6e6e6" fill-rule="evenodd" stroke="none"/>
    <path d="M24.0 -13.35 L23.95 -13.45 24.2 -13.9 24.45 -13.65 24.0 -13.35 M24.35 -14.0 L24.05 -14.25 24.0 -14.25 23.6 -14.35 23.3 -14.3 23.2 -14.2 22.95 -14.7 23.35 -14.7 24.5 -14.55 24.55 -14.5 24.35 -14.0" fill="#a2a2a2" fill-rule="evenodd" stroke="none"/>
    <path d="M23.15 -14.4 L23.75 -14.55 24.15 -14.45 Q25.2 -14.4 25.85 -13.6 26.4 -12.9 26.3 -11.95 26.2 -10.9 25.45 -10.35 24.7 -9.7 23.7 -9.8 22.75 -9.9 22.1 -10.65 21.45 -11.45 21.6 -12.45 L21.75 -12.95 21.95 -13.45 22.5 -14.0 Q22.8 -14.3 23.15 -14.4" fill="#3ebbeb" fill-rule="evenodd" stroke="none"/>
    <path d="M25.55 -12.7 Q25.6 -13.45 25.25 -13.95 L24.2 -14.6 22.8 -14.25 Q22.05 -13.75 22.05 -13.05 21.95 -12.3 22.4 -11.75 22.9 -11.15 23.65 -11.1 24.4 -11.0 24.95 -11.5 25.5 -11.95 25.55 -12.7" fill="#56d0ff" fill-rule="evenodd" stroke="none"/>
    <path d="M24.05 -12.1 Q23.85 -12.35 23.9 -12.65 23.9 -13.0 24.15 -13.2 L24.75 -13.4 25.3 -13.1 25.45 -12.5 25.2 -12.0 Q24.9 -11.75 24.6 -11.8 24.25 -11.8 24.05 -12.1" fill="#7edbff" fill-rule="evenodd" stroke="none"/>
  </g>
</svg>
