<?xml version="1.0" encoding="UTF-8" standalone="no"?>
<svg xmlns:xlink="http://www.w3.org/1999/xlink" height="5.75px" width="22.55px" xmlns="http://www.w3.org/2000/svg">
  <g transform="matrix(1.0, 0.0, 0.0, 1.0, -4.1, 10.7)">
    <path d="M5.85 -9.95 L7.0 -10.3 7.4 -10.35 8.45 -9.8 8.55 -9.65 8.6 -9.5 8.75 -9.1 8.9 -8.85 9.1 -8.35 Q9.45 -7.4 8.95 -6.5 8.45 -5.65 7.5 -5.4 L5.7 -5.6 Q4.9 -6.05 4.55 -7.05 4.3 -7.95 4.8 -8.8 5.1 -9.45 5.85 -9.9 L5.85 -9.95" fill="#cf72f0" fill-rule="evenodd" stroke="none"/>
    <path d="M5.85 -9.95 L7.0 -10.3 7.4 -10.35 8.45 -9.8 8.55 -9.65 8.6 -9.5 8.75 -9.1 8.9 -8.85 9.1 -8.35 Q9.45 -7.4 8.95 -6.5 8.45 -5.65 7.5 -5.4 L5.7 -5.6 Q4.9 -6.05 4.55 -7.05 4.3 -7.95 4.8 -8.8 5.1 -9.45 5.85 -9.9" fill="none" stroke="#283757" stroke-linecap="round" stroke-linejoin="round" stroke-width="0.75"/>
    <path d="M7.4 -10.35 L8.45 -9.8 8.55 -9.65 8.6 -9.5 8.65 -9.1 8.6 -8.9 8.55 -8.5 8.55 -8.25 8.2 -8.25 7.75 -8.3 Q7.5 -8.4 7.15 -8.6 L6.8 -8.75 6.6 -8.85 6.65 -8.95 6.3 -9.35 6.15 -9.45 6.4 -9.7 6.45 -9.75 6.8 -9.9 Q7.1 -10.1 7.1 -9.9 L7.2 -9.85 7.4 -10.35" fill="#c8c8c8" fill-rule="evenodd" stroke="none"/>
    <path d="M7.4 -10.35 L7.2 -9.85 7.1 -9.9 Q7.1 -10.1 6.8 -9.9 L6.45 -9.75 6.4 -9.7 6.15 -9.45 5.85 -9.9 5.85 -9.95 7.0 -10.3 7.4 -10.35 M6.3 -9.35 L6.65 -8.95 6.6 -8.85 6.15 -9.1 6.3 -9.35" fill="#a2a2a2" fill-rule="evenodd" stroke="none"/>
    <path d="M7.75 -8.3 L8.2 -8.25 8.15 -8.1 7.75 -8.3 M8.55 -8.25 L8.55 -8.5 8.6 -8.9 8.65 -9.1 8.6 -9.5 8.9 -8.35 8.55 -8.25" fill="#e6e6e6" fill-rule="evenodd" stroke="none"/>
    <path d="M8.0 -9.75 L8.6 -9.3 8.9 -8.85 9.1 -8.35 Q9.45 -7.4 8.95 -6.5 8.45 -5.65 7.5 -5.4 L5.7 -5.6 Q4.9 -6.05 4.55 -7.05 4.3 -7.95 4.8 -8.8 5.25 -9.65 6.25 -9.95 L6.65 -10.05 7.25 -10.0 8.0 -9.75" fill="#3ebbeb" fill-rule="evenodd" stroke="none"/>
    <path d="M5.2 -7.95 Q5.05 -8.65 5.25 -9.25 5.55 -9.9 6.25 -10.05 L7.7 -9.95 Q8.45 -9.6 8.65 -8.9 8.8 -8.15 8.45 -7.55 8.1 -6.9 7.4 -6.7 L6.05 -6.85 Q5.4 -7.25 5.2 -7.95" fill="#56d0ff" fill-rule="evenodd" stroke="none"/>
    <path d="M6.7 -7.75 L6.75 -8.35 6.4 -8.8 5.75 -8.9 5.3 -8.5 Q5.1 -8.25 5.2 -7.95 5.25 -7.6 5.6 -7.45 L6.2 -7.35 6.7 -7.75" fill="#7edbff" fill-rule="evenodd" stroke="none"/>
    <path d="M24.55 -10.0 Q25.4 -9.7 25.85 -9.1 26.4 -8.4 26.3 -7.45 26.2 -6.4 25.45 -5.85 24.7 -5.2 23.7 -5.3 22.75 -5.4 22.1 -6.15 21.45 -6.95 21.6 -7.95 L21.75 -8.45 21.8 -8.75 21.9 -9.1 21.95 -9.3 22.05 -9.5 22.95 -10.2 23.35 -10.2 24.5 -10.05 24.55 -10.0" fill="#cf72f0" fill-rule="evenodd" stroke="none"/>
    <path d="M24.5 -10.05 L23.35 -10.2 22.95 -10.2 22.05 -9.5 21.95 -9.3 21.9 -9.1 21.8 -8.75 21.75 -8.45 21.6 -7.95 Q21.45 -6.95 22.1 -6.15 22.75 -5.4 23.7 -5.3 24.7 -5.2 25.45 -5.85 26.2 -6.4 26.3 -7.45 26.4 -8.4 25.85 -9.1 25.4 -9.7 24.55 -10.0" fill="none" stroke="#283757" stroke-linecap="round" stroke-linejoin="round" stroke-width="0.75"/>
    <path d="M22.95 -10.2 L23.2 -9.7 23.3 -9.8 23.6 -9.85 24.0 -9.75 24.05 -9.75 24.35 -9.5 24.2 -9.4 23.95 -8.95 24.0 -8.85 23.8 -8.7 23.5 -8.55 22.95 -8.15 22.55 -8.05 22.25 -7.95 22.15 -8.15 22.0 -8.55 21.95 -8.7 21.9 -9.1 21.95 -9.3 22.05 -9.5 22.95 -10.2" fill="#c8c8c8" fill-rule="evenodd" stroke="none"/>
    <path d="M24.35 -9.5 L24.05 -9.75 24.0 -9.75 23.6 -9.85 23.3 -9.8 23.2 -9.7 22.95 -10.2 23.35 -10.2 24.5 -10.05 24.55 -10.0 24.35 -9.5 M24.0 -8.85 L23.95 -8.95 24.2 -9.4 24.45 -9.15 24.0 -8.85" fill="#a2a2a2" fill-rule="evenodd" stroke="none"/>
    <path d="M21.9 -9.1 L21.95 -8.7 22.0 -8.55 22.15 -8.15 22.25 -7.95 21.8 -8.0 21.9 -9.1 M22.55 -8.05 L22.95 -8.15 22.6 -7.85 22.55 -8.05" fill="#e6e6e6" fill-rule="evenodd" stroke="none"/>
    <path d="M25.85 -9.1 Q26.4 -8.4 26.3 -7.45 26.2 -6.4 25.45 -5.85 24.7 -5.2 23.7 -5.3 22.75 -5.4 22.1 -6.15 21.45 -6.95 21.6 -7.95 L21.75 -8.45 21.95 -8.95 22.5 -9.5 Q22.8 -9.8 23.15 -9.9 L23.75 -10.05 24.15 -9.95 Q25.2 -9.9 25.85 -9.1" fill="#3ebbeb" fill-rule="evenodd" stroke="none"/>
    <path d="M25.55 -8.2 Q25.6 -8.95 25.25 -9.45 L24.2 -10.1 22.8 -9.75 Q22.05 -9.25 22.05 -8.55 21.95 -7.8 22.4 -7.25 22.9 -6.65 23.65 -6.6 24.4 -6.5 24.95 -7.0 25.5 -7.45 25.55 -8.2" fill="#56d0ff" fill-rule="evenodd" stroke="none"/>
    <path d="M24.05 -7.6 Q23.85 -7.85 23.9 -8.15 23.9 -8.5 24.15 -8.7 L24.75 -8.9 25.3 -8.6 25.45 -8.0 25.2 -7.5 Q24.9 -7.25 24.6 -7.3 24.25 -7.3 24.05 -7.6" fill="#7edbff" fill-rule="evenodd" stroke="none"/>
  </g>
</svg>
