<?xml version="1.0" encoding="UTF-8" standalone="no"?>
<svg xmlns:xlink="http://www.w3.org/1999/xlink" height="5.75px" width="22.55px" xmlns="http://www.w3.org/2000/svg">
  <g transform="matrix(1.0, 0.0, 0.0, 1.0, -4.1, 9.2)">
    <path d="M5.85 -8.4 L5.85 -8.45 7.0 -8.8 7.4 -8.85 8.45 -8.3 8.55 -8.15 8.6 -8.0 8.75 -7.6 8.9 -7.35 9.1 -6.85 Q9.45 -5.9 8.95 -5.0 8.45 -4.15 7.5 -3.9 L5.7 -4.1 Q4.9 -4.55 4.55 -5.55 4.3 -6.45 4.8 -7.3 5.1 -7.95 5.85 -8.4" fill="#cf72f0" fill-rule="evenodd" stroke="none"/>
    <path d="M5.85 -8.45 L7.0 -8.8 7.4 -8.85 8.45 -8.3 8.55 -8.15 8.6 -8.0 8.75 -7.6 8.9 -7.35 9.1 -6.85 Q9.45 -5.9 8.95 -5.0 8.45 -4.15 7.5 -3.9 L5.7 -4.1 Q4.9 -4.55 4.55 -5.55 4.3 -6.45 4.8 -7.3 5.1 -7.95 5.85 -8.4" fill="none" stroke="#283757" stroke-linecap="round" stroke-linejoin="round" stroke-width="0.75"/>
    <path d="M7.4 -8.85 L7.2 -8.35 7.1 -8.4 Q7.1 -8.6 6.8 -8.4 L6.45 -8.25 6.4 -8.2 6.15 -7.95 5.85 -8.4 5.85 -8.45 7.0 -8.8 7.4 -8.85 M6.3 -7.85 L6.65 -7.45 6.6 -7.35 6.15 -7.6 6.3 -7.85" fill="#a2a2a2" fill-rule="evenodd" stroke="none"/>
    <path d="M6.15 -7.95 L6.4 -8.2 6.45 -8.25 6.8 -8.4 Q7.1 -8.6 7.1 -8.4 L7.2 -8.35 7.4 -8.85 8.45 -8.3 8.55 -8.15 8.6 -8.0 8.65 -7.6 8.6 -7.4 8.55 -7.0 8.55 -6.75 8.2 -6.75 7.75 -6.8 Q7.5 -6.9 7.15 -7.1 L6.8 -7.25 6.6 -7.35 6.65 -7.45 6.3 -7.85 6.15 -7.95" fill="#c8c8c8" fill-rule="evenodd" stroke="none"/>
    <path d="M7.75 -6.8 L8.2 -6.75 8.15 -6.6 7.75 -6.8 M8.55 -6.75 L8.55 -7.0 8.6 -7.4 8.65 -7.6 8.6 -8.0 8.9 -6.85 8.55 -6.75" fill="#e6e6e6" fill-rule="evenodd" stroke="none"/>
    <path d="M9.1 -6.85 Q9.45 -5.9 8.95 -5.0 8.45 -4.15 7.5 -3.9 L5.7 -4.1 Q4.9 -4.55 4.55 -5.55 4.3 -6.45 4.8 -7.3 5.25 -8.15 6.25 -8.45 L6.65 -8.55 7.25 -8.5 8.0 -8.25 8.6 -7.8 8.9 -7.35 9.1 -6.85" fill="#3ebbeb" fill-rule="evenodd" stroke="none"/>
    <path d="M5.2 -6.45 Q5.05 -7.15 5.25 -7.75 5.55 -8.4 6.25 -8.55 L7.7 -8.45 Q8.45 -8.1 8.65 -7.4 8.8 -6.65 8.45 -6.05 8.1 -5.4 7.4 -5.2 L6.05 -5.35 Q5.4 -5.75 5.2 -6.45" fill="#56d0ff" fill-rule="evenodd" stroke="none"/>
    <path d="M6.7 -6.25 L6.75 -6.85 6.4 -7.3 5.75 -7.4 5.3 -7.0 Q5.1 -6.75 5.2 -6.45 5.25 -6.1 5.6 -5.95 L6.2 -5.85 6.7 -6.25" fill="#7edbff" fill-rule="evenodd" stroke="none"/>
    <path d="M24.55 -8.5 Q25.4 -8.2 25.85 -7.6 26.4 -6.9 26.3 -5.95 26.2 -4.9 25.45 -4.35 24.7 -3.7 23.7 -3.8 22.75 -3.9 22.1 -4.65 21.45 -5.45 21.6 -6.45 L21.75 -6.95 21.8 -7.25 21.9 -7.6 21.95 -7.8 22.05 -8.0 22.95 -8.7 23.35 -8.7 24.5 -8.55 24.55 -8.5" fill="#cf72f0" fill-rule="evenodd" stroke="none"/>
    <path d="M24.5 -8.55 L23.35 -8.7 22.95 -8.7 22.05 -8.0 21.95 -7.8 21.9 -7.6 21.8 -7.25 21.75 -6.95 21.6 -6.45 Q21.45 -5.45 22.1 -4.65 22.75 -3.9 23.7 -3.8 24.7 -3.7 25.45 -4.35 26.2 -4.9 26.3 -5.95 26.4 -6.9 25.85 -7.6 25.4 -8.2 24.55 -8.5" fill="none" stroke="#283757" stroke-linecap="round" stroke-linejoin="round" stroke-width="0.75"/>
    <path d="M21.9 -7.6 L21.95 -7.8 22.05 -8.0 22.95 -8.7 23.2 -8.2 23.3 -8.3 23.6 -8.35 24.0 -8.25 24.05 -8.25 24.35 -8.0 24.2 -7.9 23.95 -7.45 24.0 -7.35 23.8 -7.2 23.5 -7.05 22.95 -6.65 22.55 -6.55 22.25 -6.45 22.15 -6.65 22.0 -7.05 21.95 -7.2 21.9 -7.6" fill="#c8c8c8" fill-rule="evenodd" stroke="none"/>
    <path d="M22.95 -6.65 L22.6 -6.35 22.55 -6.55 22.95 -6.65 M22.25 -6.45 L21.8 -6.5 21.9 -7.6 21.95 -7.2 22.0 -7.05 22.15 -6.65 22.25 -6.45" fill="#e6e6e6" fill-rule="evenodd" stroke="none"/>
    <path d="M22.95 -8.7 L23.35 -8.7 24.5 -8.55 24.55 -8.5 24.35 -8.0 24.05 -8.25 24.0 -8.25 23.6 -8.35 23.3 -8.3 23.2 -8.2 22.95 -8.7 M24.2 -7.9 L24.45 -7.65 24.0 -7.35 23.95 -7.45 24.2 -7.9" fill="#a2a2a2" fill-rule="evenodd" stroke="none"/>
    <path d="M23.75 -8.55 L24.15 -8.45 Q25.2 -8.4 25.85 -7.6 26.4 -6.9 26.3 -5.95 26.2 -4.9 25.45 -4.35 24.7 -3.7 23.7 -3.8 22.75 -3.9 22.1 -4.65 21.45 -5.45 21.6 -6.45 L21.75 -6.95 21.95 -7.45 22.5 -8.0 Q22.8 -8.3 23.15 -8.4 L23.75 -8.55" fill="#3ebbeb" fill-rule="evenodd" stroke="none"/>
    <path d="M25.55 -6.7 Q25.6 -7.45 25.25 -7.95 L24.2 -8.6 22.8 -8.25 Q22.05 -7.75 22.05 -7.05 21.95 -6.3 22.4 -5.75 22.9 -5.15 23.65 -5.1 24.4 -5.0 24.95 -5.5 25.5 -5.95 25.55 -6.7" fill="#56d0ff" fill-rule="evenodd" stroke="none"/>
    <path d="M24.05 -6.1 Q23.85 -6.35 23.9 -6.65 23.9 -7.0 24.15 -7.2 L24.75 -7.4 25.3 -7.1 25.45 -6.5 25.2 -6.0 Q24.9 -5.75 24.6 -5.8 24.25 -5.8 24.05 -6.1" fill="#7edbff" fill-rule="evenodd" stroke="none"/>
  </g>
</svg>
