<?xml version="1.0" encoding="UTF-8" standalone="no"?>
<svg xmlns:xlink="http://www.w3.org/1999/xlink" height="5.75px" width="22.55px" xmlns="http://www.w3.org/2000/svg">
  <g transform="matrix(1.0, 0.0, 0.0, 1.0, -4.1, -4.0)">
    <path d="M5.85 4.8 L5.85 4.75 Q6.5 4.45 7.0 4.4 L7.4 4.35 Q8.05 4.4 8.45 4.9 L8.55 5.05 8.6 5.2 8.75 5.6 8.9 5.85 9.1 6.35 Q9.45 7.3 8.95 8.2 8.45 9.05 7.5 9.3 L5.7 9.1 Q4.9 8.65 4.55 7.65 4.3 6.75 4.8 5.9 5.1 5.25 5.85 4.8" fill="#cf72f0" fill-rule="evenodd" stroke="none"/>
    <path d="M5.85 4.75 Q6.5 4.45 7.0 4.4 L7.4 4.35 Q8.05 4.4 8.45 4.9 L8.55 5.05 8.6 5.2 8.75 5.6 8.9 5.85 9.1 6.35 Q9.45 7.3 8.95 8.2 8.45 9.05 7.5 9.3 L5.7 9.1 Q4.9 8.65 4.55 7.65 4.3 6.75 4.8 5.9 5.1 5.25 5.85 4.8" fill="none" stroke="#283757" stroke-linecap="round" stroke-linejoin="round" stroke-width="0.75"/>
    <path d="M6.15 5.25 L5.85 4.8 5.85 4.75 Q6.5 4.45 7.0 4.4 L7.4 4.35 7.2 4.85 7.1 4.8 Q7.1 4.6 6.8 4.8 L6.45 4.95 6.4 5.0 6.15 5.25 M6.6 5.85 L6.15 5.6 6.3 5.35 6.65 5.75 6.6 5.85" fill="#a2a2a2" fill-rule="evenodd" stroke="none"/>
    <path d="M6.15 5.25 L6.4 5.0 6.45 4.95 6.8 4.8 Q7.1 4.6 7.1 4.8 L7.2 4.85 7.4 4.35 Q8.05 4.4 8.45 4.9 L8.55 5.05 8.6 5.2 8.65 5.6 8.6 5.8 8.55 6.2 8.55 6.45 8.2 6.45 7.75 6.4 7.15 6.1 6.8 5.95 6.6 5.85 6.65 5.75 6.3 5.35 6.15 5.25" fill="#c8c8c8" fill-rule="evenodd" stroke="none"/>
    <path d="M8.6 5.2 Q8.85 5.6 8.9 6.35 L8.55 6.45 8.55 6.2 8.6 5.8 8.65 5.6 8.6 5.2 M8.2 6.45 L8.15 6.6 7.75 6.4 8.2 6.45" fill="#e6e6e6" fill-rule="evenodd" stroke="none"/>
    <path d="M8.9 5.85 L9.1 6.35 Q9.45 7.3 8.95 8.2 8.45 9.05 7.5 9.3 L5.7 9.1 Q4.9 8.65 4.55 7.65 4.3 6.75 4.8 5.9 5.25 5.05 6.25 4.75 L6.65 4.65 7.25 4.7 8.0 4.95 8.6 5.4 8.9 5.85" fill="#3ebbeb" fill-rule="evenodd" stroke="none"/>
    <path d="M5.2 6.75 Q5.05 6.05 5.25 5.45 5.55 4.8 6.25 4.65 L7.7 4.75 Q8.45 5.1 8.65 5.8 8.8 6.55 8.45 7.15 8.1 7.8 7.4 8.0 L6.05 7.85 Q5.4 7.45 5.2 6.75" fill="#56d0ff" fill-rule="evenodd" stroke="none"/>
    <path d="M6.7 6.95 L6.75 6.35 6.4 5.9 5.75 5.8 5.3 6.2 Q5.1 6.45 5.2 6.75 5.25 7.1 5.6 7.25 L6.2 7.35 6.7 6.95" fill="#7edbff" fill-rule="evenodd" stroke="none"/>
    <path d="M24.5 4.65 L24.55 4.7 Q25.4 5.0 25.85 5.6 26.4 6.3 26.3 7.25 26.2 8.3 25.45 8.85 24.7 9.5 23.7 9.4 22.75 9.3 22.1 8.55 21.45 7.75 21.6 6.75 L21.75 6.25 21.8 5.95 21.9 5.6 21.95 5.4 22.05 5.2 Q22.35 4.7 22.95 4.5 L23.35 4.5 24.5 4.65" fill="#cf72f0" fill-rule="evenodd" stroke="none"/>
    <path d="M24.5 4.65 L23.35 4.5 22.95 4.5 Q22.35 4.7 22.05 5.2 L21.95 5.4 21.9 5.6 21.8 5.95 21.75 6.25 21.6 6.75 Q21.45 7.75 22.1 8.55 22.75 9.3 23.7 9.4 24.7 9.5 25.45 8.85 26.2 8.3 26.3 7.25 26.4 6.3 25.85 5.6 25.4 5.0 24.55 4.7" fill="none" stroke="#283757" stroke-linecap="round" stroke-linejoin="round" stroke-width="0.75"/>
    <path d="M22.25 6.75 L22.15 6.55 22.0 6.15 21.95 6.0 21.9 5.6 21.95 5.4 22.05 5.2 Q22.35 4.7 22.95 4.5 L23.2 5.0 23.3 4.9 Q23.3 4.7 23.6 4.85 L24.0 4.95 24.05 4.95 24.35 5.2 24.2 5.3 23.95 5.75 24.0 5.85 23.8 6.0 23.5 6.15 22.95 6.55 22.55 6.65 22.25 6.75" fill="#c8c8c8" fill-rule="evenodd" stroke="none"/>
    <path d="M21.9 5.6 L21.95 6.0 22.0 6.15 22.15 6.55 22.25 6.75 21.8 6.7 21.9 5.6 M22.55 6.65 L22.95 6.55 22.6 6.85 22.55 6.65" fill="#e6e6e6" fill-rule="evenodd" stroke="none"/>
    <path d="M24.0 5.85 L23.95 5.75 24.2 5.3 24.45 5.55 24.0 5.85 M24.35 5.2 L24.05 4.95 24.0 4.95 23.6 4.85 Q23.3 4.7 23.3 4.9 L23.2 5.0 22.95 4.5 23.35 4.5 24.5 4.65 24.55 4.7 24.35 5.2" fill="#a2a2a2" fill-rule="evenodd" stroke="none"/>
    <path d="M23.15 4.8 L23.75 4.65 24.15 4.75 Q25.2 4.8 25.85 5.6 26.4 6.3 26.3 7.25 26.2 8.3 25.45 8.85 24.7 9.5 23.7 9.4 22.75 9.3 22.1 8.55 21.45 7.75 21.6 6.75 L21.75 6.25 21.95 5.75 22.5 5.2 Q22.8 4.9 23.15 4.8" fill="#3ebbeb" fill-rule="evenodd" stroke="none"/>
    <path d="M25.55 6.5 Q25.6 5.75 25.25 5.25 24.9 4.65 24.2 4.6 23.45 4.55 22.8 4.95 22.05 5.45 22.05 6.15 21.95 6.9 22.4 7.45 22.9 8.05 23.65 8.1 24.4 8.2 24.95 7.7 25.5 7.25 25.55 6.5" fill="#56d0ff" fill-rule="evenodd" stroke="none"/>
    <path d="M24.05 7.1 L23.9 6.55 Q23.9 6.2 24.15 6.0 L24.75 5.8 25.3 6.1 25.45 6.7 25.2 7.2 24.6 7.4 Q24.25 7.4 24.05 7.1" fill="#7edbff" fill-rule="evenodd" stroke="none"/>
  </g>
</svg>
