<?xml version="1.0" encoding="UTF-8" standalone="no"?>
<svg xmlns:xlink="http://www.w3.org/1999/xlink" height="5.75px" width="22.55px" xmlns="http://www.w3.org/2000/svg">
  <g transform="matrix(1.0, 0.0, 0.0, 1.0, -4.1, 12.65)">
    <path d="M5.85 -11.9 L7.0 -12.25 7.4 -12.3 8.45 -11.75 8.55 -11.6 8.6 -11.45 8.75 -11.05 8.9 -10.8 9.1 -10.3 Q9.45 -9.35 8.95 -8.45 8.45 -7.6 7.5 -7.35 L5.7 -7.55 Q4.9 -8.0 4.55 -9.0 4.3 -9.9 4.8 -10.75 5.1 -11.4 5.85 -11.85 L5.85 -11.9" fill="#cf72f0" fill-rule="evenodd" stroke="none"/>
    <path d="M5.85 -11.9 L7.0 -12.25 7.4 -12.3 8.45 -11.75 8.55 -11.6 8.6 -11.45 8.75 -11.05 8.9 -10.8 9.1 -10.3 Q9.45 -9.35 8.95 -8.45 8.45 -7.6 7.5 -7.35 L5.7 -7.55 Q4.9 -8.0 4.55 -9.0 4.3 -9.9 4.8 -10.75 5.1 -11.4 5.85 -11.85" fill="none" stroke="#283757" stroke-linecap="round" stroke-linejoin="round" stroke-width="0.75"/>
    <path d="M7.4 -12.3 L8.45 -11.75 8.55 -11.6 8.6 -11.45 8.65 -11.05 8.6 -10.85 8.55 -10.45 8.55 -10.2 8.2 -10.2 7.75 -10.25 Q7.5 -10.35 7.15 -10.55 L6.8 -10.7 6.6 -10.8 6.65 -10.9 6.3 -11.3 6.15 -11.4 6.4 -11.65 6.45 -11.7 6.8 -11.85 Q7.1 -12.05 7.1 -11.85 L7.2 -11.8 7.4 -12.3" fill="#c8c8c8" fill-rule="evenodd" stroke="none"/>
    <path d="M7.75 -10.25 L8.2 -10.2 8.15 -10.05 7.75 -10.25 M8.55 -10.2 L8.55 -10.45 8.6 -10.85 8.65 -11.05 8.6 -11.45 8.9 -10.3 8.55 -10.2" fill="#e6e6e6" fill-rule="evenodd" stroke="none"/>
    <path d="M7.4 -12.3 L7.2 -11.8 7.1 -11.85 Q7.1 -12.05 6.8 -11.85 L6.45 -11.7 6.4 -11.65 6.15 -11.4 5.85 -11.85 5.85 -11.9 7.0 -12.25 7.4 -12.3 M6.3 -11.3 L6.65 -10.9 6.6 -10.8 6.15 -11.05 6.3 -11.3" fill="#a2a2a2" fill-rule="evenodd" stroke="none"/>
    <path d="M9.1 -10.3 Q9.45 -9.35 8.95 -8.45 8.45 -7.6 7.5 -7.35 L5.7 -7.55 Q4.9 -8.0 4.55 -9.0 4.3 -9.9 4.8 -10.75 5.25 -11.6 6.25 -11.9 L6.65 -12.0 7.25 -11.95 8.0 -11.7 8.6 -11.25 8.9 -10.8 9.1 -10.3" fill="#3ebbeb" fill-rule="evenodd" stroke="none"/>
    <path d="M5.2 -9.9 Q5.05 -10.6 5.25 -11.2 5.55 -11.85 6.25 -12.0 L7.7 -11.9 Q8.45 -11.55 8.65 -10.85 8.8 -10.1 8.45 -9.5 8.1 -8.85 7.4 -8.65 L6.05 -8.8 Q5.4 -9.2 5.2 -9.9" fill="#56d0ff" fill-rule="evenodd" stroke="none"/>
    <path d="M6.7 -9.7 L6.75 -10.3 6.4 -10.75 5.75 -10.85 5.3 -10.45 Q5.1 -10.2 5.2 -9.9 5.25 -9.55 5.6 -9.4 L6.2 -9.3 6.7 -9.7" fill="#7edbff" fill-rule="evenodd" stroke="none"/>
    <path d="M24.55 -11.95 Q25.4 -11.65 25.85 -11.05 26.4 -10.35 26.3 -9.4 26.2 -8.35 25.45 -7.8 24.7 -7.15 23.7 -7.25 22.75 -7.35 22.1 -8.1 21.45 -8.9 21.6 -9.9 L21.75 -10.4 21.8 -10.7 21.9 -11.05 21.95 -11.25 22.05 -11.45 22.95 -12.15 23.35 -12.15 24.5 -12.0 24.55 -11.95" fill="#cf72f0" fill-rule="evenodd" stroke="none"/>
    <path d="M24.5 -12.0 L23.35 -12.15 22.95 -12.15 22.05 -11.45 21.95 -11.25 21.9 -11.05 21.8 -10.7 21.75 -10.4 21.6 -9.9 Q21.45 -8.9 22.1 -8.1 22.75 -7.35 23.7 -7.25 24.7 -7.15 25.45 -7.8 26.2 -8.35 26.3 -9.4 26.4 -10.35 25.85 -11.05 25.4 -11.65 24.55 -11.95" fill="none" stroke="#283757" stroke-linecap="round" stroke-linejoin="round" stroke-width="0.75"/>
    <path d="M22.95 -12.15 L23.35 -12.15 24.5 -12.0 24.55 -11.95 24.35 -11.45 24.05 -11.7 24.0 -11.7 23.6 -11.8 23.3 -11.75 23.2 -11.65 22.95 -12.15 M24.2 -11.35 L24.45 -11.1 24.0 -10.8 23.95 -10.9 24.2 -11.35" fill="#a2a2a2" fill-rule="evenodd" stroke="none"/>
    <path d="M24.35 -11.45 L24.2 -11.35 23.95 -10.9 24.0 -10.8 23.8 -10.65 23.5 -10.5 22.95 -10.1 22.55 -10.0 22.25 -9.9 22.15 -10.1 22.0 -10.5 21.95 -10.65 21.9 -11.05 21.95 -11.25 22.05 -11.45 22.95 -12.15 23.2 -11.65 23.3 -11.75 23.6 -11.8 24.0 -11.7 24.05 -11.7 24.35 -11.45" fill="#c8c8c8" fill-rule="evenodd" stroke="none"/>
    <path d="M22.95 -10.1 L22.6 -9.8 22.55 -10.0 22.95 -10.1 M22.25 -9.9 L21.8 -9.95 21.9 -11.05 21.95 -10.65 22.0 -10.5 22.15 -10.1 22.25 -9.9" fill="#e6e6e6" fill-rule="evenodd" stroke="none"/>
    <path d="M25.85 -11.05 Q26.4 -10.35 26.3 -9.4 26.2 -8.35 25.45 -7.8 24.7 -7.15 23.7 -7.25 22.75 -7.35 22.1 -8.1 21.45 -8.9 21.6 -9.9 L21.75 -10.4 21.95 -10.9 22.5 -11.45 Q22.8 -11.75 23.15 -11.85 L23.75 -12.0 24.15 -11.9 Q25.2 -11.85 25.85 -11.05" fill="#3ebbeb" fill-rule="evenodd" stroke="none"/>
    <path d="M25.55 -10.15 Q25.6 -10.9 25.25 -11.4 L24.2 -12.05 22.8 -11.7 Q22.05 -11.2 22.05 -10.5 21.95 -9.75 22.4 -9.2 22.9 -8.6 23.65 -8.55 24.4 -8.45 24.95 -8.95 25.5 -9.4 25.55 -10.15" fill="#56d0ff" fill-rule="evenodd" stroke="none"/>
    <path d="M24.05 -9.55 Q23.85 -9.8 23.9 -10.1 23.9 -10.45 24.15 -10.65 L24.75 -10.85 25.3 -10.55 25.45 -9.95 25.2 -9.45 Q24.9 -9.2 24.6 -9.25 24.25 -9.25 24.05 -9.55" fill="#7edbff" fill-rule="evenodd" stroke="none"/>
  </g>
</svg>
