<?xml version="1.0" encoding="UTF-8" standalone="no"?>
<svg xmlns:xlink="http://www.w3.org/1999/xlink" height="5.75px" width="22.55px" xmlns="http://www.w3.org/2000/svg">
  <g transform="matrix(1.0, 0.0, 0.0, 1.0, -4.55, 37.1)">
    <path d="M6.3 -36.35 L7.45 -36.7 7.85 -36.75 Q8.5 -36.7 8.9 -36.2 L9.0 -36.05 9.05 -35.9 9.2 -35.5 9.35 -35.25 9.55 -34.75 Q9.9 -33.8 9.4 -32.9 8.9 -32.05 7.95 -31.8 L6.15 -32.0 Q5.35 -32.45 5.0 -33.45 4.75 -34.35 5.25 -35.2 5.55 -35.85 6.3 -36.3 L6.3 -36.35" fill="#cf72f0" fill-rule="evenodd" stroke="none"/>
    <path d="M6.3 -36.35 L7.45 -36.7 7.85 -36.75 Q8.5 -36.7 8.9 -36.2 L9.0 -36.05 9.05 -35.9 9.2 -35.5 9.35 -35.25 9.55 -34.75 Q9.9 -33.8 9.4 -32.9 8.9 -32.05 7.95 -31.8 L6.15 -32.0 Q5.35 -32.45 5.0 -33.45 4.75 -34.35 5.25 -35.2 5.55 -35.85 6.3 -36.3" fill="none" stroke="#283757" stroke-linecap="round" stroke-linejoin="round" stroke-width="0.75"/>
    <path d="M7.85 -36.75 Q8.5 -36.7 8.9 -36.2 L9.0 -36.05 9.05 -35.9 9.1 -35.5 9.05 -35.3 9.0 -34.9 9.0 -34.65 8.65 -34.65 8.2 -34.7 7.6 -35.0 7.25 -35.15 7.05 -35.25 7.1 -35.35 6.75 -35.75 6.6 -35.85 6.85 -36.1 6.9 -36.15 7.25 -36.3 Q7.55 -36.5 7.55 -36.3 L7.65 -36.25 7.85 -36.75" fill="#c8c8c8" fill-rule="evenodd" stroke="none"/>
    <path d="M7.85 -36.75 L7.65 -36.25 7.55 -36.3 Q7.55 -36.5 7.25 -36.3 L6.9 -36.15 6.85 -36.1 6.6 -35.85 6.3 -36.3 6.3 -36.35 7.45 -36.7 7.85 -36.75 M6.75 -35.75 L7.1 -35.35 7.05 -35.25 6.6 -35.5 6.75 -35.75" fill="#a2a2a2" fill-rule="evenodd" stroke="none"/>
    <path d="M8.2 -34.7 L8.65 -34.65 8.6 -34.5 8.2 -34.7 M9.0 -34.65 L9.0 -34.9 9.05 -35.3 9.1 -35.5 9.05 -35.9 9.35 -34.75 9.0 -34.65" fill="#e6e6e6" fill-rule="evenodd" stroke="none"/>
    <path d="M9.05 -35.7 L9.35 -35.25 9.55 -34.75 Q9.9 -33.8 9.4 -32.9 8.9 -32.05 7.95 -31.8 L6.15 -32.0 Q5.35 -32.45 5.0 -33.45 4.75 -34.35 5.25 -35.2 5.7 -36.05 6.7 -36.35 L7.1 -36.45 7.7 -36.4 8.45 -36.15 9.05 -35.7" fill="#3ebbeb" fill-rule="evenodd" stroke="none"/>
    <path d="M5.65 -34.35 Q5.5 -35.05 5.7 -35.65 6.0 -36.3 6.7 -36.45 L8.15 -36.35 Q8.9 -36.0 9.1 -35.3 9.25 -34.55 8.9 -33.95 8.55 -33.3 7.85 -33.1 L6.5 -33.25 Q5.85 -33.65 5.65 -34.35" fill="#56d0ff" fill-rule="evenodd" stroke="none"/>
    <path d="M7.15 -34.15 L7.2 -34.75 6.85 -35.2 6.2 -35.3 5.75 -34.9 Q5.55 -34.65 5.65 -34.35 5.7 -34.0 6.05 -33.85 L6.65 -33.75 7.15 -34.15" fill="#7edbff" fill-rule="evenodd" stroke="none"/>
    <path d="M25.0 -36.4 Q25.85 -36.1 26.3 -35.5 26.85 -34.8 26.75 -33.85 26.65 -32.8 25.9 -32.25 25.15 -31.6 24.15 -31.7 23.2 -31.8 22.55 -32.55 21.9 -33.35 22.05 -34.35 L22.2 -34.85 22.25 -35.15 22.35 -35.5 22.4 -35.7 22.5 -35.9 23.4 -36.6 23.8 -36.6 24.95 -36.45 25.0 -36.4" fill="#cf72f0" fill-rule="evenodd" stroke="none"/>
    <path d="M24.95 -36.45 L23.8 -36.6 23.4 -36.6 22.5 -35.9 22.4 -35.7 22.35 -35.5 22.25 -35.15 22.2 -34.85 22.05 -34.35 Q21.9 -33.35 22.55 -32.55 23.2 -31.8 24.15 -31.7 25.15 -31.6 25.9 -32.25 26.65 -32.8 26.75 -33.85 26.85 -34.8 26.3 -35.5 25.85 -36.1 25.0 -36.4" fill="none" stroke="#283757" stroke-linecap="round" stroke-linejoin="round" stroke-width="0.75"/>
    <path d="M23.4 -36.6 L23.65 -36.1 23.75 -36.2 24.05 -36.25 24.45 -36.15 24.5 -36.15 Q24.6 -35.95 24.8 -35.9 L24.65 -35.8 24.4 -35.35 24.45 -35.25 24.25 -35.1 Q24.05 -34.95 23.95 -34.95 L23.4 -34.55 23.0 -34.45 22.7 -34.35 22.6 -34.55 22.45 -34.95 22.4 -35.1 22.35 -35.5 22.4 -35.7 22.5 -35.9 23.4 -36.6" fill="#c8c8c8" fill-rule="evenodd" stroke="none"/>
    <path d="M24.8 -35.9 Q24.6 -35.95 24.5 -36.15 L24.45 -36.15 24.05 -36.25 23.75 -36.2 23.65 -36.1 23.4 -36.6 23.8 -36.6 24.95 -36.45 25.0 -36.4 24.8 -35.9 M24.45 -35.25 L24.4 -35.35 24.65 -35.8 24.9 -35.55 24.45 -35.25" fill="#a2a2a2" fill-rule="evenodd" stroke="none"/>
    <path d="M22.35 -35.5 L22.4 -35.1 22.45 -34.95 22.6 -34.55 22.7 -34.35 22.25 -34.4 22.35 -35.5 M23.0 -34.45 L23.4 -34.55 23.05 -34.25 23.0 -34.45" fill="#e6e6e6" fill-rule="evenodd" stroke="none"/>
    <path d="M26.3 -35.5 Q26.85 -34.8 26.75 -33.85 26.65 -32.8 25.9 -32.25 25.15 -31.6 24.15 -31.7 23.2 -31.8 22.55 -32.55 21.9 -33.35 22.05 -34.35 L22.2 -34.85 22.4 -35.35 22.95 -35.9 23.6 -36.3 24.2 -36.45 24.6 -36.35 Q25.65 -36.3 26.3 -35.5" fill="#3ebbeb" fill-rule="evenodd" stroke="none"/>
    <path d="M26.0 -34.6 Q26.05 -35.35 25.7 -35.85 25.35 -36.45 24.65 -36.5 L23.25 -36.15 Q22.5 -35.65 22.5 -34.95 22.4 -34.2 22.85 -33.65 23.35 -33.05 24.1 -33.0 24.85 -32.9 25.4 -33.4 25.95 -33.85 26.0 -34.6" fill="#56d0ff" fill-rule="evenodd" stroke="none"/>
    <path d="M24.5 -34.0 Q24.3 -34.25 24.35 -34.55 L24.6 -35.1 25.2 -35.3 25.75 -35.0 25.9 -34.4 25.65 -33.9 Q25.35 -33.65 25.05 -33.7 L24.5 -34.0" fill="#7edbff" fill-rule="evenodd" stroke="none"/>
  </g>
</svg>
