<?xml version="1.0" encoding="UTF-8" standalone="no"?>
<svg xmlns:xlink="http://www.w3.org/1999/xlink" height="5.75px" width="22.55px" xmlns="http://www.w3.org/2000/svg">
  <g transform="matrix(1.0, 0.0, 0.0, 1.0, -4.1, 19.7)">
    <path d="M5.85 -18.9 L5.85 -18.95 7.0 -19.3 7.4 -19.35 8.45 -18.8 8.55 -18.65 8.6 -18.5 8.75 -18.1 8.9 -17.85 9.1 -17.35 Q9.45 -16.4 8.95 -15.5 8.45 -14.65 7.5 -14.4 L5.7 -14.6 Q4.9 -15.05 4.55 -16.05 4.3 -16.95 4.8 -17.8 5.1 -18.45 5.85 -18.9" fill="#cf72f0" fill-rule="evenodd" stroke="none"/>
    <path d="M5.85 -18.95 L7.0 -19.3 7.4 -19.35 8.45 -18.8 8.55 -18.65 8.6 -18.5 8.75 -18.1 8.9 -17.85 9.1 -17.35 Q9.45 -16.4 8.95 -15.5 8.45 -14.65 7.5 -14.4 L5.7 -14.6 Q4.9 -15.05 4.55 -16.05 4.3 -16.95 4.8 -17.8 5.1 -18.45 5.85 -18.9" fill="none" stroke="#283757" stroke-linecap="round" stroke-linejoin="round" stroke-width="0.75"/>
    <path d="M7.4 -19.35 L7.2 -18.85 7.1 -18.9 Q7.1 -19.1 6.8 -18.9 L6.45 -18.75 6.4 -18.7 6.15 -18.45 5.85 -18.9 5.85 -18.95 7.0 -19.3 7.4 -19.35 M6.3 -18.35 L6.65 -17.95 6.6 -17.85 6.15 -18.1 6.3 -18.35" fill="#a2a2a2" fill-rule="evenodd" stroke="none"/>
    <path d="M6.15 -18.45 L6.4 -18.7 6.45 -18.75 6.8 -18.9 Q7.1 -19.1 7.1 -18.9 L7.2 -18.85 7.4 -19.35 8.45 -18.8 8.55 -18.65 8.6 -18.5 8.65 -18.1 8.6 -17.9 8.55 -17.5 8.55 -17.25 8.2 -17.25 7.75 -17.3 Q7.5 -17.4 7.15 -17.6 L6.8 -17.75 6.6 -17.85 6.65 -17.95 6.3 -18.35 6.15 -18.45" fill="#c8c8c8" fill-rule="evenodd" stroke="none"/>
    <path d="M7.75 -17.3 L8.2 -17.25 8.15 -17.1 7.75 -17.3 M8.55 -17.25 L8.55 -17.5 8.6 -17.9 8.65 -18.1 8.6 -18.5 8.9 -17.35 8.55 -17.25" fill="#e6e6e6" fill-rule="evenodd" stroke="none"/>
    <path d="M6.65 -19.05 L7.25 -19.0 8.0 -18.75 8.6 -18.3 8.9 -17.85 9.1 -17.35 Q9.45 -16.4 8.95 -15.5 8.45 -14.65 7.5 -14.4 L5.7 -14.6 Q4.9 -15.05 4.55 -16.05 4.3 -16.95 4.8 -17.8 5.25 -18.65 6.25 -18.95 L6.65 -19.05" fill="#3ebbeb" fill-rule="evenodd" stroke="none"/>
    <path d="M5.2 -16.95 Q5.05 -17.65 5.25 -18.25 5.55 -18.9 6.25 -19.05 L7.7 -18.95 Q8.45 -18.6 8.65 -17.9 8.8 -17.15 8.45 -16.55 8.1 -15.9 7.4 -15.7 L6.05 -15.85 Q5.4 -16.25 5.2 -16.95" fill="#56d0ff" fill-rule="evenodd" stroke="none"/>
    <path d="M6.7 -16.75 L6.75 -17.35 6.4 -17.8 5.75 -17.9 5.3 -17.5 Q5.1 -17.25 5.2 -16.95 5.25 -16.6 5.6 -16.45 L6.2 -16.35 6.7 -16.75" fill="#7edbff" fill-rule="evenodd" stroke="none"/>
    <path d="M24.5 -19.05 L24.55 -19.0 Q25.4 -18.7 25.85 -18.1 26.4 -17.4 26.3 -16.45 26.2 -15.4 25.45 -14.85 24.7 -14.2 23.7 -14.3 22.75 -14.4 22.1 -15.15 21.45 -15.95 21.6 -16.95 L21.75 -17.45 21.8 -17.75 21.9 -18.1 21.95 -18.3 22.05 -18.5 22.95 -19.2 23.35 -19.2 24.5 -19.05" fill="#cf72f0" fill-rule="evenodd" stroke="none"/>
    <path d="M24.5 -19.05 L23.35 -19.2 22.95 -19.2 22.05 -18.5 21.95 -18.3 21.9 -18.1 21.8 -17.75 21.75 -17.45 21.6 -16.95 Q21.45 -15.95 22.1 -15.15 22.75 -14.4 23.7 -14.3 24.7 -14.2 25.45 -14.85 26.2 -15.4 26.3 -16.45 26.4 -17.4 25.85 -18.1 25.4 -18.7 24.55 -19.0" fill="none" stroke="#283757" stroke-linecap="round" stroke-linejoin="round" stroke-width="0.75"/>
    <path d="M22.95 -19.2 L23.2 -18.7 23.3 -18.8 23.6 -18.85 24.0 -18.75 24.05 -18.75 24.35 -18.5 24.2 -18.4 23.95 -17.95 24.0 -17.85 23.8 -17.7 23.5 -17.55 22.95 -17.15 22.55 -17.05 22.25 -16.95 22.15 -17.15 22.0 -17.55 21.95 -17.7 21.9 -18.1 21.95 -18.3 22.05 -18.5 22.95 -19.2" fill="#c8c8c8" fill-rule="evenodd" stroke="none"/>
    <path d="M24.35 -18.5 L24.05 -18.75 24.0 -18.75 23.6 -18.85 23.3 -18.8 23.2 -18.7 22.95 -19.2 23.35 -19.2 24.5 -19.05 24.55 -19.0 24.35 -18.5 M24.0 -17.85 L23.95 -17.95 24.2 -18.4 24.45 -18.15 24.0 -17.85" fill="#a2a2a2" fill-rule="evenodd" stroke="none"/>
    <path d="M21.9 -18.1 L21.95 -17.7 22.0 -17.55 22.15 -17.15 22.25 -16.95 21.8 -17.0 21.9 -18.1 M22.55 -17.05 L22.95 -17.15 22.6 -16.85 22.55 -17.05" fill="#e6e6e6" fill-rule="evenodd" stroke="none"/>
    <path d="M23.15 -18.9 L23.75 -19.05 24.15 -18.95 Q25.2 -18.9 25.85 -18.1 26.4 -17.4 26.3 -16.45 26.2 -15.4 25.45 -14.85 24.7 -14.2 23.7 -14.3 22.75 -14.4 22.1 -15.15 21.45 -15.95 21.6 -16.95 L21.75 -17.45 21.95 -17.95 22.5 -18.5 Q22.8 -18.8 23.15 -18.9" fill="#3ebbeb" fill-rule="evenodd" stroke="none"/>
    <path d="M25.55 -17.2 Q25.6 -17.95 25.25 -18.45 L24.2 -19.1 22.8 -18.75 Q22.05 -18.25 22.05 -17.55 21.95 -16.8 22.4 -16.25 22.9 -15.65 23.65 -15.6 24.4 -15.5 24.95 -16.0 25.5 -16.45 25.55 -17.2" fill="#56d0ff" fill-rule="evenodd" stroke="none"/>
    <path d="M24.05 -16.6 Q23.85 -16.85 23.9 -17.15 23.9 -17.5 24.15 -17.7 L24.75 -17.9 25.3 -17.6 25.45 -17.0 25.2 -16.5 Q24.9 -16.25 24.6 -16.3 24.25 -16.3 24.05 -16.6" fill="#7edbff" fill-rule="evenodd" stroke="none"/>
  </g>
</svg>
