<?xml version="1.0" encoding="UTF-8" standalone="no"?>
<svg xmlns:xlink="http://www.w3.org/1999/xlink" height="41.75px" width="41.7px" xmlns="http://www.w3.org/2000/svg">
  <g transform="matrix(1.0, 0.0, 0.0, 1.0, 0.0, 0.0)">
    <path d="M28.4 8.5 Q28.8 6.85 28.65 5.3 L28.4 4.35 28.05 3.55 27.8 3.2 28.55 3.75 28.15 2.95 28.95 3.8 28.95 3.75 28.85 3.05 29.45 3.95 29.45 3.2 29.95 4.05 29.9 3.75 29.95 3.75 29.9 3.35 30.25 4.05 30.25 3.65 30.55 4.2 31.05 4.05 30.7 4.5 30.4 5.1 30.4 5.8 Q30.4 7.7 28.65 8.25 31.4 10.4 31.95 11.8 32.45 13.2 31.8 14.2 L30.7 15.75 Q33.05 19.0 33.05 23.05 33.05 28.3 29.3 32.0 25.6 35.75 20.3 35.75 15.05 35.75 11.35 32.0 7.6 28.3 7.6 23.05 7.6 17.8 11.35 14.1 15.05 10.35 20.3 10.35 L23.25 10.7 24.45 9.1 Q25.0 8.45 26.15 8.25 L28.4 8.5" fill="#231916" fill-rule="evenodd" stroke="none"/>
    <path d="M28.4 8.5 L26.15 8.25 Q25.0 8.45 24.45 9.1 L23.25 10.7 20.3 10.35 Q15.05 10.35 11.35 14.1 7.6 17.8 7.6 23.05 7.6 28.3 11.35 32.0 15.05 35.75 20.3 35.75 25.6 35.75 29.3 32.0 33.05 28.3 33.05 23.05 33.05 19.0 30.7 15.75 L31.8 14.2 Q32.45 13.2 31.95 11.8 31.4 10.4 28.65 8.25" fill="none" stroke="#231916" stroke-linecap="butt" stroke-linejoin="miter" stroke-width="2.0"/>
    <path d="M33.1 23.05 Q33.1 28.35 29.4 32.05 25.7 35.75 20.4 35.75 15.1 35.75 11.4 32.05 7.7 28.35 7.7 23.05 7.7 17.85 11.4 14.1 15.1 10.35 20.4 10.35 25.7 10.35 29.4 14.1 33.1 17.85 33.1 23.05" fill="#747575" fill-rule="evenodd" stroke="none"/>
    <path d="M18.9 20.25 L17.05 20.3 Q16.05 19.9 15.65 19.0 15.2 18.05 15.6 17.05 15.95 16.1 16.85 15.7 L18.8 15.6 Q19.75 16.0 20.2 16.95 20.6 17.85 20.25 18.85 19.9 19.8 18.9 20.25" fill="#b4b4b4" fill-rule="evenodd" stroke="none"/>
    <path d="M17.2 10.85 L14.25 13.2 Q13.1 14.5 12.2 16.3 11.55 17.75 11.35 20.2 11.2 22.25 11.45 23.85 12.1 28.3 15.5 30.8 18.65 33.2 23.1 33.2 L26.85 32.6 Q28.8 32.1 30.25 31.25 28.5 33.35 26.0 34.5 23.4 35.75 20.55 35.75 15.3 35.75 11.55 32.05 7.85 28.35 7.85 23.05 7.85 19.6 9.6 16.65 10.65 14.8 12.4 13.25 14.65 11.3 17.2 10.85" fill="#494645" fill-rule="evenodd" stroke="none"/>
    <path d="M26.4 19.45 Q24.5 19.5 22.75 18.25 21.1 17.0 20.5 15.2 19.95 13.45 20.9 12.15 21.8 10.8 23.7 10.75 25.6 10.7 27.25 11.95 29.05 13.2 29.6 15.0 30.15 16.75 29.2 18.1 28.25 19.4 26.4 19.45" fill="#494645" fill-rule="evenodd" stroke="none"/>
    <path d="M31.6 14.5 L29.4 17.45 29.35 17.45 Q28.6 18.35 27.1 18.3 25.6 18.25 24.15 17.3 22.6 16.3 22.0 14.8 21.4 13.3 22.1 12.25 L22.2 12.1 24.4 9.15 31.6 14.5" fill="#666565" fill-rule="evenodd" stroke="none"/>
    <path d="M24.15 9.45 L26.5 11.4 22.85 16.15 Q21.65 14.8 21.75 13.4 L22.1 12.25 24.15 9.45" fill="#898989" fill-rule="evenodd" stroke="none"/>
    <path d="M31.75 14.25 Q31.05 15.35 29.45 15.4 27.85 15.4 26.3 14.4 24.75 13.35 24.15 11.9 23.55 10.45 24.25 9.35 25.0 8.3 26.55 8.25 28.15 8.2 29.7 9.2 31.25 10.2 31.85 11.7 32.45 13.2 31.75 14.25" fill="#aaabab" fill-rule="evenodd" stroke="none"/>
    <path d="M30.9 13.5 Q30.35 14.35 29.15 14.35 27.9 14.4 26.7 13.6 25.5 12.85 25.05 11.65 24.55 10.55 25.1 9.7 25.65 8.85 26.9 8.85 28.15 8.8 29.35 9.6 30.55 10.4 31.0 11.55 31.45 12.7 30.9 13.5" fill="#c9c9ca" fill-rule="evenodd" stroke="none"/>
    <path d="M30.1 13.7 Q29.7 14.35 28.7 14.3 27.65 14.25 26.65 13.55 25.6 12.9 25.15 12.0 24.75 11.1 25.1 10.45 25.5 9.85 26.55 9.9 27.55 9.95 28.6 10.65 29.6 11.3 30.05 12.2 30.5 13.1 30.1 13.7" fill="#2d2d2d" fill-rule="evenodd" stroke="none"/>
    <path d="M28.75 12.0 L28.35 12.4 27.65 12.4 Q27.3 12.35 27.05 12.05 26.8 11.8 26.9 11.55 L27.25 11.15 28.0 11.1 28.6 11.45 28.75 12.0" fill="#231916" fill-rule="evenodd" stroke="none"/>
    <path d="M28.5 4.9 L30.35 5.45 Q30.4 8.5 29.6 10.6 L28.75 12.05 26.9 11.55 Q28.4 9.65 28.6 7.1 L28.5 4.9" fill="#231916" fill-rule="evenodd" stroke="none"/>
    <path d="M28.5 4.85 Q29.2 4.75 30.35 5.2 L30.35 5.85 29.0 5.8 28.6 5.4 28.5 4.85" fill="#a00f16" fill-rule="evenodd" stroke="none"/>
    <path d="M28.4 4.6 Q28.85 4.3 30.4 4.95 L30.3 5.6 29.15 5.45 28.6 5.2 28.4 4.6" fill="#e60013" fill-rule="evenodd" stroke="none"/>
    <path d="M28.35 4.35 L28.05 3.6 27.75 3.25 28.5 3.8 28.15 3.0 28.9 3.85 28.8 3.1 29.45 3.95 29.45 3.25 29.9 4.05 29.85 3.35 30.2 4.1 30.2 3.65 30.5 4.25 31.05 4.1 30.45 4.8 30.0 4.7 30.05 4.45 29.7 4.65 29.5 4.25 29.1 4.6 28.85 4.35 28.85 4.65 28.35 4.35" fill="#fcc700" fill-rule="evenodd" stroke="none"/>
    <path d="M28.5 4.85 L28.3 3.9 28.9 4.15 28.85 3.65 29.25 4.2 29.55 3.9 29.95 4.4 29.85 3.75 30.25 4.55 30.75 4.35 30.35 5.15 29.25 5.05 28.5 4.85" fill="#eb6101" fill-rule="evenodd" stroke="none"/>
    <path d="M19.65 12.85 Q19.6 13.35 19.15 13.7 L18.1 13.95 Q17.5 13.85 17.15 13.45 16.8 13.05 16.85 12.55 16.9 12.0 17.35 11.65 L18.35 11.45 Q18.9 11.5 19.35 11.9 19.7 12.3 19.65 12.85" fill="#c4c4c4" fill-rule="evenodd" stroke="none"/>
    <path d="M35.55 6.1 Q41.7 12.25 41.7 20.85 41.7 29.5 35.55 35.6 29.45 41.75 20.85 41.75 12.25 41.75 6.1 35.6 0.0 29.5 0.0 20.85 0.0 12.25 6.1 6.1 12.25 0.0 20.85 0.0 29.45 0.0 35.55 6.1" fill="url(#gradient0)" fill-rule="evenodd" stroke="none"/>
    <path d="M21.4 0.3 Q26.9 0.3 30.8 2.6 34.75 4.95 34.75 8.25 34.75 11.5 30.8 13.85 26.9 16.15 21.4 16.15 15.9 16.15 12.0 13.85 8.1 11.5 8.1 8.25 8.1 4.95 12.0 2.6 15.9 0.3 21.4 0.3" fill="url(#gradient1)" fill-rule="evenodd" stroke="none"/>
  </g>
  <defs>
    <radialGradient cx="0" cy="0" gradientTransform="matrix(0.0261, 0.0, 0.0, 0.0261, 20.25, 19.45)" gradientUnits="userSpaceOnUse" id="gradient0" r="819.2" spreadMethod="pad">
      <stop offset="0.0" stop-color="#fbfbfb" stop-opacity="0.0"/>
      <stop offset="0.6" stop-color="#eff7fc" stop-opacity="0.105882354"/>
      <stop offset="0.8666666666666667" stop-color="#d6fefa" stop-opacity="0.6509804"/>
      <stop offset="1.0" stop-color="#b4feee" stop-opacity="0.8627451"/>
    </radialGradient>
    <linearGradient gradientTransform="matrix(2.0E-4, -0.0097, 0.0162, 1.0E-4, 21.45, 8.2)" gradientUnits="userSpaceOnUse" id="gradient1" spreadMethod="pad" x1="-819.2" x2="819.2">
      <stop offset="0.0" stop-color="#fbfbfb" stop-opacity="0.0"/>
      <stop offset="1.0" stop-color="#ffffff"/>
    </linearGradient>
  </defs>
</svg>
