<?xml version="1.0" encoding="UTF-8" standalone="no"?>
<svg xmlns:xlink="http://www.w3.org/1999/xlink" height="41.75px" width="41.7px" xmlns="http://www.w3.org/2000/svg">
  <g transform="matrix(1.0, 0.0, 0.0, 1.0, 0.0, 0.0)">
    <path d="M30.7 9.3 L30.8 9.4 31.2 9.9 31.3 10.1 31.35 10.4 30.1 12.1 30.5 12.6 Q31.35 13.8 30.95 14.55 L30.1 15.1 30.0 15.15 29.65 15.4 29.15 15.9 28.55 16.4 Q26.55 18.55 26.85 21.65 L27.1 26.2 Q27.2 28.5 26.9 29.85 26.4 32.35 23.9 33.8 21.15 35.35 17.95 34.4 11.7 32.7 10.7 28.0 9.9 24.65 11.7 21.75 12.6 20.2 15.8 18.6 L20.05 16.4 Q21.75 15.35 22.7 12.65 L22.85 12.05 22.85 12.0 23.05 11.3 Q22.75 10.55 23.0 10.0 23.3 9.5 24.15 9.45 L25.2 9.5 25.25 9.2 25.85 7.65 Q26.0 7.25 26.95 7.4 27.85 7.55 29.0 8.1 L30.4 9.05 30.7 9.3" fill="#382a25" fill-rule="evenodd" stroke="none"/>
    <path d="M30.7 9.3 L30.4 9.05 29.0 8.1 Q27.85 7.55 26.95 7.4 26.0 7.25 25.85 7.65 L25.25 9.2 25.2 9.5 24.15 9.45 Q23.3 9.5 23.0 10.0 22.75 10.55 23.05 11.3 L22.85 12.0 22.85 12.05 22.7 12.65 Q21.75 15.35 20.05 16.4 L15.8 18.6 Q12.6 20.2 11.7 21.75 9.9 24.65 10.7 28.0 11.7 32.7 17.95 34.4 21.15 35.35 23.9 33.8 26.4 32.35 26.9 29.85 27.2 28.5 27.1 26.2 L26.85 21.65 Q26.55 18.55 28.55 16.4 L29.15 15.9 29.65 15.4 30.0 15.15 30.1 15.1 30.95 14.55 Q31.35 13.8 30.5 12.6 L30.1 12.1 31.35 10.4 31.3 10.1 31.2 9.9 30.8 9.4 30.7 9.3 Z" fill="none" stroke="#702723" stroke-linecap="round" stroke-linejoin="round" stroke-width="2.0"/>
    <path d="M30.6 13.9 Q31.0 14.35 29.95 15.15 26.45 17.55 26.75 21.65 L27.05 26.2 Q27.15 28.5 26.85 29.8 26.35 32.35 23.85 33.8 21.1 35.35 17.9 34.4 11.65 32.7 10.65 28.0 9.9 24.65 11.6 21.75 12.55 20.2 15.7 18.6 L20.05 16.4 Q21.7 15.35 22.6 12.65 23.25 10.85 23.25 9.85 L30.6 13.9" fill="#c3d9c3" fill-rule="evenodd" stroke="none"/>
    <path d="M23.4 9.8 L30.8 13.85 Q31.2 14.3 30.15 15.05 28.95 15.9 28.2 16.9 26.45 16.6 25.0 15.2 23.7 13.9 23.0 11.95 L23.4 9.8" fill="#a6b6a4" fill-rule="evenodd" stroke="none"/>
    <path d="M26.05 22.05 L26.4 24.55 Q26.7 27.4 26.0 29.45 24.5 34.05 19.85 33.95 17.9 33.95 15.9 33.1 13.95 32.35 13.05 31.35 9.8 27.6 11.75 23.4 12.35 22.05 13.45 20.85 L14.45 19.95 Q16.15 19.95 26.05 22.05" fill="#e7303b" fill-rule="evenodd" stroke="none"/>
    <path d="M31.05 14.7 Q30.6 15.45 29.2 15.3 27.75 15.2 26.1 14.25 24.45 13.3 23.55 12.15 22.7 10.95 23.15 10.2 23.55 9.5 25.0 9.65 26.45 9.75 28.1 10.7 29.75 11.6 30.6 12.8 31.45 14.0 31.05 14.7" fill="#f2f2f2" fill-rule="evenodd" stroke="none"/>
    <path d="M15.85 19.35 Q17.4 19.0 20.1 19.4 22.75 19.75 24.3 20.75 25.85 21.65 25.8 22.3 25.7 22.9 23.9 23.2 22.05 23.5 19.85 23.2 17.6 22.8 15.75 21.75 13.95 20.65 14.15 20.05 14.3 19.6 15.85 19.35" fill="#f08989" fill-rule="evenodd" stroke="none"/>
    <path d="M14.65 19.8 Q15.4 21.25 18.75 22.25 22.7 23.4 26.1 22.1 L26.15 22.15 Q26.05 22.65 24.3 23.0 22.35 23.4 20.05 23.0 17.9 22.55 16.05 21.45 14.4 20.5 14.5 20.05 L14.65 19.8" fill="#ff9494" fill-rule="evenodd" stroke="none"/>
    <path d="M25.95 7.85 L31.45 10.6 29.35 13.4 Q28.45 13.75 26.6 12.7 25.25 11.95 24.9 10.9 L25.95 7.85" fill="#e6b03e" fill-rule="evenodd" stroke="none"/>
    <path d="M23.25 10.55 Q23.15 11.95 24.75 13.35 23.7 12.5 23.3 11.65 22.8 10.8 23.15 10.2 L23.7 9.75 Q23.3 10.2 23.25 10.55" fill="#f2f2f2" fill-rule="evenodd" stroke="none"/>
    <path d="M23.7 9.75 Q25.0 9.3 27.0 10.2 L28.3 13.05 27.15 12.5 25.6 12.3 24.8 12.35 Q24.65 12.65 25.15 13.2 26.45 14.6 29.8 15.25 27.1 15.25 24.7 13.25 22.6 11.4 23.1 10.4 L23.7 9.75" fill="#cccccc" fill-rule="evenodd" stroke="none"/>
    <path d="M29.85 13.45 Q29.55 13.9 28.7 13.85 27.75 13.75 26.7 13.15 L25.15 11.85 Q24.55 11.05 24.85 10.6 25.1 10.15 26.0 10.25 26.95 10.35 28.0 10.9 29.0 11.5 29.55 12.25 30.1 12.95 29.85 13.45" fill="#949494" fill-rule="evenodd" stroke="none"/>
    <path d="M26.3 8.05 L31.45 10.6 29.6 13.05 Q27.85 12.4 27.0 11.1 26.15 9.8 26.3 8.05" fill="#e6b03e" fill-rule="evenodd" stroke="none"/>
    <path d="M26.3 8.05 Q26.15 9.8 27.0 11.1 27.85 12.4 29.6 13.05 L29.35 13.4 Q28.45 13.75 26.6 12.7 25.25 11.95 24.9 10.9 L25.95 7.85 26.3 8.05" fill="#bf9334" fill-rule="evenodd" stroke="none"/>
    <path d="M31.4 10.7 Q31.2 11.05 30.25 11.0 29.2 10.9 28.15 10.4 L26.4 9.0 Q25.75 8.25 25.95 7.85 26.15 7.45 27.1 7.65 28.0 7.75 29.1 8.3 30.25 8.9 30.9 9.6 31.6 10.3 31.4 10.7" fill="#e6bb61" fill-rule="evenodd" stroke="none"/>
    <path d="M26.4 9.0 Q25.75 8.25 25.95 7.85 L26.05 7.8 Q25.9 8.15 26.55 8.9 L28.25 10.2 30.2 10.85 31.45 10.65 31.4 10.7 Q31.2 11.05 30.25 11.0 29.2 10.9 28.15 10.4 L26.4 9.0" fill="#f0e2c5" fill-rule="evenodd" stroke="none"/>
    <path d="M29.1 8.3 Q30.2 8.85 30.9 9.55 31.55 10.25 31.45 10.65 L30.2 10.85 28.25 10.2 26.55 8.9 Q25.9 8.15 26.05 7.8 L27.2 7.65 Q28.1 7.8 29.1 8.3" fill="#ffd785" fill-rule="evenodd" stroke="none"/>
    <path d="M28.25 10.2 L30.2 10.85 31.45 10.65 31.4 10.7 Q31.2 11.05 30.25 11.0 29.2 10.9 28.15 10.4 26.8 9.65 26.1 8.65 L26.3 8.65 Q27.0 9.65 28.25 10.2" fill="#f0e2c5" fill-rule="evenodd" stroke="none"/>
    <path d="M26.05 7.8 Q25.9 8.05 26.3 8.65 L26.1 8.65 Q25.8 8.05 25.95 7.85 L26.05 7.8" fill="#f0e2c5" fill-rule="evenodd" stroke="none"/>
    <path d="M30.5 9.2 Q31.55 10.05 31.45 10.65 L30.2 10.85 28.25 10.2 Q27.0 9.65 26.3 8.65 29.2 8.65 30.5 9.2" fill="#ffd785" fill-rule="evenodd" stroke="none"/>
    <path d="M29.1 8.3 L30.5 9.2 Q29.2 8.65 26.3 8.65 25.9 8.05 26.05 7.8 L27.2 7.65 Q28.1 7.8 29.1 8.3" fill="#dbb972" fill-rule="evenodd" stroke="none"/>
    <path d="M24.8 29.6 L24.6 30.25 Q23.8 32.6 21.4 33.15 19.2 33.5 17.35 32.25 19.4 32.2 21.15 31.35 23.65 30.1 25.1 27.8 L24.8 29.6" fill="#e27163" fill-rule="evenodd" stroke="none"/>
    <path d="M30.75 13.25 L30.6 13.45 30.4 13.25 30.6 13.05 30.75 13.25" fill="#ffffff" fill-rule="evenodd" stroke="none"/>
    <path d="M30.75 13.65 Q31.1 13.75 31.0 14.15 L30.6 14.5 Q30.35 14.4 30.4 14.0 30.5 13.6 30.75 13.65" fill="#ffffff" fill-rule="evenodd" stroke="none"/>
    <path d="M21.35 18.85 L21.1 19.15 20.9 19.45 Q15.85 25.5 15.2 31.6 12.2 29.35 12.0 27.0 11.7 24.65 13.1 22.35 14.35 20.05 18.75 18.65 L18.95 18.65 19.35 18.4 Q21.55 17.45 23.2 14.0 22.8 16.45 21.35 18.85" fill="#ffffff" fill-opacity="0.23137255" fill-rule="evenodd" stroke="none"/>
    <path d="M26.9 17.0 L27.15 16.85 27.3 16.9 26.8 18.1 Q26.3 19.35 26.15 20.7 25.95 22.05 26.0 25.4 L25.55 24.6 25.55 21.5 Q25.6 20.2 26.25 18.45 L26.9 17.0" fill="#ffffff" fill-opacity="0.69411767" fill-rule="evenodd" stroke="none"/>
    <path d="M19.2 28.1 L17.15 25.45 22.6 21.35 19.1 25.45 21.8 28.2 15.4 31.4 19.2 28.1" fill="#ffffff" fill-rule="evenodd" stroke="none"/>
    <path d="M35.55 6.1 Q41.7 12.25 41.7 20.85 41.7 29.5 35.55 35.6 29.45 41.75 20.85 41.75 12.25 41.75 6.1 35.6 0.0 29.5 0.0 20.85 0.0 12.25 6.1 6.1 12.25 0.0 20.85 0.0 29.45 0.0 35.55 6.1" fill="url(#gradient0)" fill-rule="evenodd" stroke="none"/>
    <path d="M21.4 0.3 Q26.9 0.3 30.8 2.6 34.75 4.95 34.75 8.25 34.75 11.5 30.8 13.85 26.9 16.15 21.4 16.15 15.9 16.15 12.0 13.85 8.1 11.5 8.1 8.25 8.1 4.95 12.0 2.6 15.9 0.3 21.4 0.3" fill="url(#gradient1)" fill-rule="evenodd" stroke="none"/>
  </g>
  <defs>
    <radialGradient cx="0" cy="0" gradientTransform="matrix(0.0261, 0.0, 0.0, 0.0261, 20.25, 19.45)" gradientUnits="userSpaceOnUse" id="gradient0" r="819.2" spreadMethod="pad">
      <stop offset="0.0" stop-color="#fbfbfb" stop-opacity="0.0"/>
      <stop offset="0.6" stop-color="#eff7fc" stop-opacity="0.101960786"/>
      <stop offset="0.8666666666666667" stop-color="#d6fefa" stop-opacity="0.6509804"/>
      <stop offset="1.0" stop-color="#b4feee" stop-opacity="0.8627451"/>
    </radialGradient>
    <linearGradient gradientTransform="matrix(2.0E-4, -0.0097, 0.0162, 1.0E-4, 21.45, 8.2)" gradientUnits="userSpaceOnUse" id="gradient1" spreadMethod="pad" x1="-819.2" x2="819.2">
      <stop offset="0.0" stop-color="#fbfbfb" stop-opacity="0.0"/>
      <stop offset="1.0" stop-color="#ffffff"/>
    </linearGradient>
  </defs>
</svg>
