<?xml version="1.0" encoding="UTF-8" standalone="no"?>
<svg xmlns:xlink="http://www.w3.org/1999/xlink" height="41.75px" width="41.7px" xmlns="http://www.w3.org/2000/svg">
  <g transform="matrix(1.0, 0.0, 0.0, 1.0, 0.0, 0.0)">
    <path d="M28.75 9.6 L28.05 8.95 34.65 5.6 28.75 9.6" fill="#28374f" fill-rule="evenodd" stroke="none"/>
    <path d="M29.55 12.95 L28.8 12.4 35.45 9.05 29.55 12.95" fill="#28374f" fill-rule="evenodd" stroke="none"/>
    <path d="M39.35 10.6 L33.4 14.5 32.7 13.95 39.35 10.6" fill="#28374f" fill-rule="evenodd" stroke="none"/>
    <path d="M32.75 17.95 L32.1 17.4 38.7 14.05 32.75 17.95" fill="#28374f" fill-rule="evenodd" stroke="none"/>
    <path d="M31.95 20.85 L38.5 17.55 32.6 21.45 31.95 20.85" fill="#28374f" fill-rule="evenodd" stroke="none"/>
    <path d="M26.9 9.9 Q27.25 7.5 28.25 7.35 29.0 7.15 29.85 8.25 L30.0 8.45 Q30.5 9.1 30.75 10.55 30.95 12.2 30.6 14.1 L30.8 13.9 30.85 13.8 Q32.05 12.65 33.25 13.8 33.7 14.25 33.55 15.8 33.5 17.35 32.85 18.6 L33.0 18.75 33.5 19.65 Q33.85 20.85 32.7 22.15 L31.4 23.25 Q31.55 24.95 30.3 26.15 L30.1 26.4 29.45 26.95 Q26.95 29.15 22.8 31.4 18.1 34.1 15.4 34.65 L15.0 34.7 12.1 34.8 Q10.6 34.6 9.75 33.5 L9.65 33.5 8.9 32.4 7.75 30.25 7.4 29.4 Q6.8 27.6 7.0 26.35 7.25 24.25 7.65 23.5 L7.9 23.3 Q9.15 21.5 12.9 21.15 L12.95 21.15 13.3 21.15 13.35 21.15 13.35 20.75 13.35 20.5 13.1 18.9 12.5 17.65 12.25 17.0 Q11.85 15.8 12.25 15.35 13.85 13.2 19.25 11.5 22.35 10.5 23.75 10.5 L24.05 10.45 Q25.05 10.4 25.5 10.85 25.95 11.1 26.05 11.6 L26.4 12.4 26.9 9.9" fill="#7f796c" fill-rule="evenodd" stroke="none"/>
    <path d="M26.9 9.9 L26.4 12.4 26.05 11.6 Q25.95 11.1 25.5 10.85 25.05 10.4 24.05 10.45 L23.75 10.5 Q22.35 10.5 19.25 11.5 13.85 13.2 12.25 15.35 11.85 15.8 12.25 17.0 L12.5 17.65 13.1 18.9 13.35 20.5 13.35 20.75 13.35 21.15 13.3 21.15 12.95 21.15 12.9 21.15 Q9.15 21.5 7.9 23.3 L7.65 23.5 Q7.25 24.25 7.0 26.35 6.8 27.6 7.4 29.4 L7.75 30.25 8.9 32.4 9.65 33.5 9.75 33.5 Q10.6 34.6 12.1 34.8 L15.0 34.7 15.4 34.65 Q18.1 34.1 22.8 31.4 26.95 29.15 29.45 26.95 L30.1 26.4 30.3 26.15 Q31.55 24.95 31.4 23.25 L32.7 22.15 Q33.85 20.85 33.5 19.65 L33.0 18.75 32.85 18.6 Q33.5 17.35 33.55 15.8 33.7 14.25 33.25 13.8 32.05 12.65 30.85 13.8 L30.8 13.9 30.6 14.1 Q30.95 12.2 30.75 10.55 30.5 9.1 30.0 8.45 L29.85 8.25 Q29.0 7.15 28.25 7.35 27.25 7.5 26.9 9.9 Z" fill="none" stroke="#28374f" stroke-linecap="round" stroke-linejoin="round" stroke-width="2.0"/>
    <path d="M30.15 19.8 Q32.5 24.15 30.3 26.3 27.85 28.65 22.1 31.75 16.65 34.7 14.9 34.85 L12.0 34.9 Q10.6 34.7 9.7 33.6 L8.15 31.4 Q6.7 28.65 7.1 26.55 7.4 24.05 7.75 23.55 9.0 21.6 12.9 21.3 L20.15 20.6 23.8 19.8 Q24.6 19.4 26.0 17.6 L27.25 15.9 30.15 19.8" fill="#6888c0" fill-rule="evenodd" stroke="none"/>
    <path d="M23.85 19.75 Q20.65 25.3 17.3 27.8 12.9 31.05 7.5 29.95 6.75 27.9 6.95 26.45 7.2 24.4 7.65 23.65 9.0 21.6 12.9 21.3 L20.15 20.6 23.8 19.8 23.85 19.75" fill="#89b3eb" fill-rule="evenodd" stroke="none"/>
    <path d="M21.75 23.4 Q19.5 24.45 17.35 23.95 14.95 23.4 13.3 21.25 L20.25 20.55 23.8 19.8 23.85 19.75 22.85 21.65 21.75 23.4" fill="#6888c0" fill-rule="evenodd" stroke="none"/>
    <path d="M27.25 15.9 L30.15 19.8 Q32.5 24.15 30.3 26.3 27.85 28.65 22.1 31.75 16.65 34.7 14.9 34.85 L12.0 34.9 Q10.6 34.7 9.7 33.6 8.3 32.0 7.5 29.95 12.9 31.05 17.3 27.8 20.65 25.3 23.85 19.75 24.65 19.35 26.0 17.55 L27.25 15.9" fill="#6888c0" fill-rule="evenodd" stroke="none"/>
    <path d="M31.25 22.75 Q31.65 24.9 30.3 26.3 27.65 28.85 22.75 31.65 17.7 34.45 14.9 34.85 L12.05 34.95 Q10.6 34.75 9.7 33.6 L8.5 31.95 Q12.45 34.3 21.3 30.15 29.45 26.2 31.25 22.75" fill="#c8c8d6" fill-rule="evenodd" stroke="none"/>
    <path d="M31.25 22.75 L31.35 23.45 Q29.3 26.9 21.4 30.7 12.9 34.7 8.9 32.6 L8.5 31.95 Q12.45 34.3 21.3 30.15 29.45 26.2 31.25 22.75" fill="#fcfcfc" fill-rule="evenodd" stroke="none"/>
    <path d="M12.3 15.7 Q14.0 13.4 19.45 11.65 L23.25 10.7 Q25.6 10.4 26.0 11.7 L27.8 16.15 Q28.25 17.35 25.25 19.6 22.1 22.1 18.6 22.55 16.25 22.85 14.65 22.15 L13.45 21.45 Q13.25 21.4 13.25 20.75 13.3 19.75 13.0 19.05 L12.3 17.2 Q11.95 16.15 12.3 15.7" fill="#c2c2c2" fill-rule="evenodd" stroke="none"/>
    <path d="M12.2 17.15 Q11.85 15.9 12.2 15.5 13.8 13.35 19.2 11.65 22.3 10.7 23.7 10.65 24.95 10.6 25.55 11.05 L25.7 11.25 Q25.95 11.6 25.75 12.2 L25.25 13.2 Q24.8 14.05 20.6 16.8 17.3 18.95 18.1 20.95 18.45 21.7 20.1 21.85 L18.0 22.4 15.5 22.45 Q14.0 22.1 13.45 21.45 13.25 21.4 13.25 20.75 13.3 19.75 13.0 19.05 L12.2 17.15" fill="#f6f6f6" fill-rule="evenodd" stroke="none"/>
    <path d="M14.15 18.1 L17.95 17.7 Q20.35 17.05 21.65 16.15 L19.95 17.8 Q18.95 18.9 18.8 19.8 18.7 20.45 18.85 20.75 L19.15 21.2 Q19.5 21.6 20.05 21.7 L18.35 21.9 Q16.7 21.8 15.4 21.1 L14.5 19.85 14.2 19.15 14.15 18.1" fill="#e2e2e9" fill-rule="evenodd" stroke="none"/>
    <path d="M15.5 22.45 L23.2 21.3 Q20.75 22.25 18.65 22.55 L15.5 22.45" fill="#f6f6f6" fill-rule="evenodd" stroke="none"/>
    <path d="M24.2 12.6 Q24.2 13.05 22.4 14.25 20.6 15.45 18.4 16.2 L14.9 16.85 Q13.6 16.8 13.5 16.3 13.25 15.5 14.2 14.75 15.1 14.05 17.45 13.1 24.3 10.45 24.2 12.6" fill="#686870" fill-rule="evenodd" stroke="none"/>
    <path d="M11.55 25.5 Q11.3 26.05 10.35 26.2 L8.75 26.0 Q8.1 25.65 8.05 24.95 7.95 24.45 8.25 23.75 8.5 23.25 9.25 23.1 L10.6 23.35 11.55 24.35 Q11.85 24.95 11.55 25.5" fill="#c0e0f8" fill-rule="evenodd" stroke="none"/>
    <path d="M33.45 19.75 Q33.85 21.0 32.7 22.25 31.8 23.3 30.25 23.95 L28.2 24.2 Q26.75 24.15 25.5 23.45 L25.4 23.65 25.2 23.25 24.55 22.7 24.4 21.95 22.65 19.15 25.3 15.5 Q26.3 13.6 26.85 10.1 27.2 7.7 28.25 7.5 29.1 7.3 30.0 8.6 30.5 9.25 30.65 10.7 30.85 12.35 30.5 14.2 31.85 12.6 33.2 13.95 33.65 14.4 33.55 15.9 33.45 17.5 32.8 18.8 L33.45 19.75" fill="#f8f9fc" fill-rule="evenodd" stroke="none"/>
    <path d="M29.2 7.75 L30.0 8.6 Q30.5 9.25 30.65 10.7 30.85 12.35 30.5 14.2 31.1 13.5 31.7 13.4 30.95 16.75 29.95 18.3 29.4 19.9 30.25 20.75 L31.0 21.4 Q29.55 22.1 28.3 21.8 26.8 21.35 26.45 19.85 28.35 17.35 29.05 13.95 29.65 10.85 29.2 7.75" fill="#a7adb6" fill-rule="evenodd" stroke="none"/>
    <path d="M32.85 18.8 Q33.2 19.1 33.2 19.8 L33.1 20.75 32.6 21.6 30.8 22.35 29.1 22.55 Q28.75 23.6 28.1 23.95 L27.25 24.1 Q26.85 24.0 27.0 22.8 27.05 21.5 26.6 21.35 28.9 21.8 30.1 21.4 31.6 20.85 32.85 18.8" fill="#a7adb6" fill-rule="evenodd" stroke="none"/>
    <path d="M26.2 19.9 Q27.15 19.95 27.65 20.95 28.45 22.45 27.9 23.5 27.45 24.45 26.25 24.85 L24.25 24.9 Q23.15 24.55 22.5 23.7 21.65 22.75 21.8 21.6 22.0 19.85 23.0 18.65 L24.8 16.3 25.7 14.9 26.0 14.1 26.2 19.9" fill="#ffffff" fill-rule="evenodd" stroke="none"/>
    <path d="M30.55 14.25 L30.2 15.75 Q29.8 17.4 29.15 18.05 L29.05 18.1 29.0 18.05 28.95 17.9 30.0 15.7 30.35 14.2 Q30.35 14.1 30.45 14.15 L30.55 14.25" fill="#323946" fill-rule="evenodd" stroke="none"/>
    <path d="M33.0 19.0 L32.5 19.8 30.8 21.2 30.65 21.15 30.75 21.05 32.3 19.65 32.75 18.9 32.95 18.85 33.0 19.0" fill="#323946" fill-rule="evenodd" stroke="none"/>
    <path d="M26.75 20.05 L25.0 20.15 Q24.4 20.45 24.2 21.15 24.0 21.75 24.35 22.3 24.7 22.95 25.4 22.95 L26.1 22.75 26.55 22.25 26.2 23.1 Q25.9 23.65 25.3 23.65 23.85 23.7 23.55 22.4 23.35 21.85 23.7 21.15 23.85 20.5 24.35 20.15 24.85 19.75 25.55 19.65 26.35 19.55 26.75 20.05" fill="#a7adb6" fill-rule="evenodd" stroke="none"/>
    <path d="M26.2 12.7 Q26.2 12.6 26.35 12.6 L26.45 12.75 26.05 13.95 24.9 16.45 23.4 18.4 Q22.1 19.95 21.9 21.15 L21.9 21.85 Q22.1 24.15 24.25 24.75 L24.6 24.85 26.45 24.65 Q27.45 24.3 27.8 23.45 L27.9 23.0 Q28.1 22.1 27.6 21.0 27.15 20.2 26.3 20.05 L24.95 20.25 Q24.25 20.6 24.15 21.2 24.1 21.65 24.3 22.0 24.55 22.6 25.1 22.7 25.85 22.85 26.15 22.3 L26.3 22.3 Q26.5 22.35 26.3 22.4 25.95 23.05 25.05 22.9 24.3 22.8 24.05 22.1 L23.95 21.2 Q24.1 20.45 24.85 20.1 25.55 19.7 26.35 19.85 27.3 20.0 27.8 20.85 28.3 22.0 28.1 23.05 L27.95 23.6 Q27.55 24.5 26.55 24.95 L24.55 25.05 24.15 24.95 Q23.2 24.7 22.5 23.9 21.8 23.05 21.7 21.85 L21.7 21.1 Q21.95 19.7 23.25 18.3 L24.65 16.3 25.85 13.95 26.2 12.7" fill="#4a5569" fill-rule="evenodd" stroke="none"/>
    <path d="M35.55 6.1 Q41.7 12.25 41.7 20.85 41.7 29.5 35.55 35.6 29.45 41.75 20.85 41.75 12.25 41.75 6.1 35.6 0.0 29.5 0.0 20.85 0.0 12.25 6.1 6.1 12.25 0.0 20.85 0.0 29.45 0.0 35.55 6.1" fill="url(#gradient0)" fill-rule="evenodd" stroke="none"/>
    <path d="M21.4 0.3 Q26.9 0.3 30.8 2.6 34.75 4.95 34.75 8.25 34.75 11.5 30.8 13.85 26.9 16.15 21.4 16.15 15.9 16.15 12.0 13.85 8.1 11.5 8.1 8.25 8.1 4.95 12.0 2.6 15.9 0.3 21.4 0.3" fill="url(#gradient1)" fill-rule="evenodd" stroke="none"/>
  </g>
  <defs>
    <radialGradient cx="0" cy="0" gradientTransform="matrix(0.0261, 0.0, 0.0, 0.0261, 20.25, 19.45)" gradientUnits="userSpaceOnUse" id="gradient0" r="819.2" spreadMethod="pad">
      <stop offset="0.0" stop-color="#fbfbfb" stop-opacity="0.0"/>
      <stop offset="0.6" stop-color="#eff7fc" stop-opacity="0.09411765"/>
      <stop offset="0.8666666666666667" stop-color="#d6fefa" stop-opacity="0.6509804"/>
      <stop offset="1.0" stop-color="#b4feee" stop-opacity="0.8627451"/>
    </radialGradient>
    <linearGradient gradientTransform="matrix(2.0E-4, -0.0097, 0.0162, 1.0E-4, 21.45, 8.2)" gradientUnits="userSpaceOnUse" id="gradient1" spreadMethod="pad" x1="-819.2" x2="819.2">
      <stop offset="0.0" stop-color="#fbfbfb" stop-opacity="0.0"/>
      <stop offset="1.0" stop-color="#ffffff"/>
    </linearGradient>
  </defs>
</svg>
