<?xml version="1.0" encoding="UTF-8" standalone="no"?>
<svg xmlns:xlink="http://www.w3.org/1999/xlink" height="41.75px" width="41.7px" xmlns="http://www.w3.org/2000/svg">
  <g transform="matrix(1.0, 0.0, 0.0, 1.0, 0.0, -1.6)">
    <path d="M28.35 12.8 L28.7 12.9 28.7 12.3 32.3 12.35 32.3 14.5 32.85 15.05 33.85 16.85 36.3 16.8 36.45 20.85 34.4 20.85 34.25 22.25 Q33.65 26.8 27.55 32.45 L21.6 37.2 17.75 34.7 Q13.4 31.55 10.5 28.3 4.5 21.45 8.45 16.05 11.45 11.9 16.5 13.7 19.05 14.55 20.95 16.3 21.6 15.4 22.85 14.45 25.35 12.65 28.35 12.8" fill="#7f796c" fill-rule="evenodd" stroke="none"/>
    <path d="M28.35 12.8 Q25.35 12.65 22.85 14.45 21.6 15.4 20.95 16.3 19.05 14.55 16.5 13.7 11.45 11.9 8.45 16.05 4.5 21.45 10.5 28.3 13.4 31.55 17.75 34.7 L21.6 37.2 27.55 32.45 Q33.65 26.8 34.25 22.25 L34.4 20.85 36.45 20.85 36.3 16.8 33.85 16.85 32.85 15.05 32.3 14.5 32.3 12.35 28.7 12.3 28.7 12.9 28.35 12.8 Z" fill="none" stroke="#a63636" stroke-linecap="round" stroke-linejoin="miter" stroke-width="2.0"/>
    <path d="M32.8 15.1 Q34.9 17.65 34.25 22.25 33.65 26.85 27.5 32.5 24.45 35.25 21.55 37.2 L17.75 34.75 Q13.4 31.6 10.45 28.35 4.45 21.5 8.45 16.05 11.45 12.0 16.5 13.75 19.0 14.6 20.9 16.35 21.55 15.4 22.8 14.5 25.3 12.7 28.3 12.85 31.05 13.05 32.8 15.1" fill="url(#gradient0)" fill-rule="evenodd" stroke="none"/>
    <path d="M16.2 17.35 Q15.1 18.3 13.5 18.85 L10.35 19.4 Q8.8 19.35 8.6 18.3 8.4 17.25 9.65 15.75 10.9 14.25 12.75 13.95 L15.9 14.15 Q17.2 14.7 17.25 15.55 17.25 16.4 16.2 17.35" fill="url(#gradient1)" fill-rule="evenodd" stroke="none"/>
    <path d="M32.3 12.3 L32.3 16.85 36.35 16.8 36.45 20.9 32.45 20.9 32.45 25.05 28.5 25.05 28.5 20.6 24.25 20.55 24.3 16.85 28.7 16.8 28.75 12.3 32.3 12.3" fill="#ffe14f" fill-rule="evenodd" stroke="none"/>
    <path d="M36.35 16.75 L36.5 20.85 32.45 20.85 32.45 25.0 28.5 25.0 28.5 22.85 Q29.55 19.45 32.3 15.5 L32.3 16.8 36.35 16.75" fill="#d4be4e" fill-rule="evenodd" stroke="none"/>
    <path d="M29.1 12.25 L28.95 16.7 28.7 16.75 28.75 12.25 29.1 12.25" fill="#eae3c1" fill-rule="evenodd" stroke="none"/>
    <path d="M24.35 16.8 L24.45 16.8 24.55 20.5 24.25 20.5 24.35 16.8" fill="#eae3c1" fill-rule="evenodd" stroke="none"/>
    <path d="M28.5 20.6 L28.7 20.6 28.8 25.0 28.5 25.0 28.5 20.6" fill="#eae3c1" fill-rule="evenodd" stroke="none"/>
    <path d="M35.55 7.7 Q41.7 13.85 41.7 22.45 41.7 31.1 35.55 37.2 29.45 43.35 20.85 43.35 12.25 43.35 6.1 37.2 0.0 31.1 0.0 22.45 0.0 13.85 6.1 7.7 12.25 1.6 20.85 1.6 29.45 1.6 35.55 7.7" fill="url(#gradient2)" fill-rule="evenodd" stroke="none"/>
    <path d="M21.4 1.9 Q26.9 1.9 30.8 4.2 34.75 6.55 34.75 9.85 34.75 13.1 30.8 15.45 26.9 17.75 21.4 17.75 15.9 17.75 12.0 15.45 8.1 13.1 8.1 9.85 8.1 6.55 12.0 4.2 15.9 1.9 21.4 1.9" fill="url(#gradient3)" fill-rule="evenodd" stroke="none"/>
  </g>
  <defs>
    <linearGradient gradientTransform="matrix(0.0, 0.0168, -0.0149, 0.0, 20.6, 25.0)" gradientUnits="userSpaceOnUse" id="gradient0" spreadMethod="pad" x1="-819.2" x2="819.2">
      <stop offset="0.18823529411764706" stop-color="#e70000"/>
      <stop offset="0.615686274509804" stop-color="#f46969" stop-opacity="0.9764706"/>
      <stop offset="1.0" stop-color="#ffc2c2" stop-opacity="0.9137255"/>
    </linearGradient>
    <radialGradient cx="0" cy="0" gradientTransform="matrix(0.0074, -0.0033, 0.0025, 0.0056, 11.85, 14.45)" gradientUnits="userSpaceOnUse" id="gradient1" r="819.2" spreadMethod="pad">
      <stop offset="0.10196078431372549" stop-color="#ffffff" stop-opacity="0.7254902"/>
      <stop offset="1.0" stop-color="#ffffff" stop-opacity="0.0"/>
    </radialGradient>
    <radialGradient cx="0" cy="0" gradientTransform="matrix(0.0261, 0.0, 0.0, 0.0261, 20.25, 21.05)" gradientUnits="userSpaceOnUse" id="gradient2" r="819.2" spreadMethod="pad">
      <stop offset="0.0" stop-color="#fbfbfb" stop-opacity="0.0"/>
      <stop offset="0.6" stop-color="#eff7fc" stop-opacity="0.09411765"/>
      <stop offset="0.8666666666666667" stop-color="#d6fefa" stop-opacity="0.6509804"/>
      <stop offset="1.0" stop-color="#b4feee" stop-opacity="0.8627451"/>
    </radialGradient>
    <linearGradient gradientTransform="matrix(2.0E-4, -0.0097, 0.0162, 1.0E-4, 21.45, 9.8)" gradientUnits="userSpaceOnUse" id="gradient3" spreadMethod="pad" x1="-819.2" x2="819.2">
      <stop offset="0.0" stop-color="#fbfbfb" stop-opacity="0.0"/>
      <stop offset="1.0" stop-color="#ffffff"/>
    </linearGradient>
  </defs>
</svg>
