<?xml version="1.0" encoding="UTF-8" standalone="no"?>
<svg xmlns:xlink="http://www.w3.org/1999/xlink" height="6.35px" width="21.7px" xmlns="http://www.w3.org/2000/svg">
  <g transform="matrix(1.0, 0.0, 0.0, 1.0, -5.4, -28.7)">
    <path d="M5.75 32.5 L5.55 32.5 5.4 32.0 Q5.4 30.65 8.55 29.7 11.75 28.7 16.25 28.7 20.75 28.7 23.9 29.7 27.1 30.65 27.1 32.0 L27.1 32.3 5.65 32.3 5.75 32.5" fill="url(#gradient0)" fill-rule="evenodd" stroke="none"/>
    <path d="M27.1 32.3 L27.05 32.45 27.0 32.5 Q26.35 33.4 24.0 34.15 20.85 35.05 16.35 35.05 11.85 35.05 8.65 34.15 6.35 33.45 5.75 32.5 L5.65 32.3 27.1 32.3" fill="url(#gradient1)" fill-rule="evenodd" stroke="none"/>
  </g>
  <defs>
    <radialGradient cx="0" cy="0" gradientTransform="matrix(-1.0E-4, -0.0046, 0.0116, -4.0E-4, 16.25, 32.0)" gradientUnits="userSpaceOnUse" id="gradient0" r="819.2" spreadMethod="pad">
      <stop offset="0.0" stop-color="#000000" stop-opacity="0.42745098"/>
      <stop offset="1.0" stop-color="#000000" stop-opacity="0.0"/>
    </radialGradient>
    <radialGradient cx="0" cy="0" gradientTransform="matrix(-1.0E-4, -0.0046, 0.0116, -4.0E-4, 16.35, 31.8)" gradientUnits="userSpaceOnUse" id="gradient1" r="819.2" spreadMethod="pad">
      <stop offset="0.0" stop-color="#000000" stop-opacity="0.42745098"/>
      <stop offset="1.0" stop-color="#000000" stop-opacity="0.0"/>
    </radialGradient>
  </defs>
</svg>
