<?xml version="1.0" encoding="UTF-8" standalone="no"?>
<svg xmlns:xlink="http://www.w3.org/1999/xlink" height="6.3px" width="21.2px" xmlns="http://www.w3.org/2000/svg">
  <g transform="matrix(1.0, 0.0, 0.0, 1.0, -5.65, -28.95)">
    <path d="M5.8 32.5 L5.7 32.5 5.65 32.15 Q5.65 30.8 8.7 29.85 11.85 28.95 16.25 28.95 20.7 28.95 23.75 29.85 26.85 30.8 26.85 32.15 L26.85 32.4 5.75 32.4 5.8 32.5" fill="url(#gradient0)" fill-rule="evenodd" stroke="none"/>
    <path d="M26.85 32.4 Q26.45 33.5 23.8 34.3 20.75 35.25 16.3 35.25 11.9 35.25 8.75 34.3 6.2 33.55 5.8 32.5 L5.75 32.4 26.85 32.4" fill="url(#gradient1)" fill-rule="evenodd" stroke="none"/>
  </g>
  <defs>
    <radialGradient cx="0" cy="0" gradientTransform="matrix(-1.0E-4, -0.0045, 0.0114, -3.0E-4, 16.25, 32.15)" gradientUnits="userSpaceOnUse" id="gradient0" r="819.2" spreadMethod="pad">
      <stop offset="0.0" stop-color="#000000" stop-opacity="0.40392157"/>
      <stop offset="1.0" stop-color="#000000" stop-opacity="0.0"/>
    </radialGradient>
    <radialGradient cx="0" cy="0" gradientTransform="matrix(-1.0E-4, -0.0045, 0.0114, -3.0E-4, 16.3, 32.05)" gradientUnits="userSpaceOnUse" id="gradient1" r="819.2" spreadMethod="pad">
      <stop offset="0.0" stop-color="#000000" stop-opacity="0.40392157"/>
      <stop offset="1.0" stop-color="#000000" stop-opacity="0.0"/>
    </radialGradient>
  </defs>
</svg>
