<?xml version="1.0" encoding="UTF-8" standalone="no"?>
<svg xmlns:xlink="http://www.w3.org/1999/xlink" height="6.15px" width="21.8px" xmlns="http://www.w3.org/2000/svg">
  <g transform="matrix(1.0, 0.0, 0.0, 1.0, -5.8, -29.1)">
    <path d="M6.85 32.5 L5.85 32.5 5.8 32.25 Q5.8 31.0 8.85 30.05 11.95 29.1 16.25 29.1 20.55 29.1 23.6 30.05 26.65 31.0 26.65 32.25 L26.65 32.35 6.8 32.35 6.85 32.5" fill="url(#gradient0)" fill-rule="evenodd" stroke="none"/>
    <path d="M26.65 32.35 L27.6 32.35 Q27.3 33.5 24.55 34.35 21.5 35.25 17.2 35.25 12.9 35.25 9.8 34.35 7.25 33.55 6.85 32.5 L6.8 32.35 26.65 32.35" fill="url(#gradient1)" fill-rule="evenodd" stroke="none"/>
  </g>
  <defs>
    <radialGradient cx="0" cy="0" gradientTransform="matrix(-1.0E-4, -0.0044, 0.0112, -3.0E-4, 16.25, 32.25)" gradientUnits="userSpaceOnUse" id="gradient0" r="819.2" spreadMethod="pad">
      <stop offset="0.0" stop-color="#000000" stop-opacity="0.30588236"/>
      <stop offset="1.0" stop-color="#000000" stop-opacity="0.0"/>
    </radialGradient>
    <radialGradient cx="0" cy="0" gradientTransform="matrix(-1.0E-4, -0.0044, 0.0112, -3.0E-4, 17.2, 32.1)" gradientUnits="userSpaceOnUse" id="gradient1" r="819.2" spreadMethod="pad">
      <stop offset="0.0" stop-color="#000000" stop-opacity="0.30588236"/>
      <stop offset="1.0" stop-color="#000000" stop-opacity="0.0"/>
    </radialGradient>
  </defs>
</svg>
