<?xml version="1.0" encoding="UTF-8" standalone="no"?>
<svg xmlns:xlink="http://www.w3.org/1999/xlink" height="6.05px" width="20.95px" xmlns="http://www.w3.org/2000/svg">
  <g transform="matrix(1.0, 0.0, 0.0, 1.0, -6.25, -29.5)">
    <path d="M7.25 32.5 L6.25 32.5 Q6.3 31.3 9.15 30.4 12.1 29.5 16.25 29.5 20.4 29.5 23.25 30.4 26.15 31.3 26.2 32.5 L7.25 32.5" fill="url(#gradient0)" fill-rule="evenodd" stroke="none"/>
    <path d="M26.2 32.5 L27.2 32.5 27.2 32.55 Q27.2 33.8 24.25 34.7 21.4 35.55 17.25 35.55 13.1 35.55 10.15 34.7 7.25 33.8 7.25 32.55 L7.25 32.5 26.2 32.5" fill="url(#gradient1)" fill-rule="evenodd" stroke="none"/>
  </g>
  <defs>
    <radialGradient cx="0" cy="0" gradientTransform="matrix(-1.0E-4, -0.0043, 0.0107, -3.0E-4, 16.25, 32.55)" gradientUnits="userSpaceOnUse" id="gradient0" r="819.2" spreadMethod="pad">
      <stop offset="0.0" stop-color="#000000" stop-opacity="0.29803923"/>
      <stop offset="1.0" stop-color="#000000" stop-opacity="0.0"/>
    </radialGradient>
    <radialGradient cx="0" cy="0" gradientTransform="matrix(-1.0E-4, -0.0043, 0.0107, -3.0E-4, 17.25, 32.55)" gradientUnits="userSpaceOnUse" id="gradient1" r="819.2" spreadMethod="pad">
      <stop offset="0.0" stop-color="#000000" stop-opacity="0.29803923"/>
      <stop offset="1.0" stop-color="#000000" stop-opacity="0.0"/>
    </radialGradient>
  </defs>
</svg>
