<?xml version="1.0" encoding="UTF-8" standalone="no"?>
<svg xmlns:xlink="http://www.w3.org/1999/xlink" height="6.1px" width="21.25px" xmlns="http://www.w3.org/2000/svg">
  <g transform="matrix(1.0, 0.0, 0.0, 1.0, -5.85, -29.15)">
    <path d="M6.45 32.5 L5.9 32.5 5.85 32.25 Q5.85 31.0 8.85 30.1 11.95 29.15 16.25 29.15 20.55 29.15 23.55 30.1 26.6 31.0 26.6 32.25 L26.6 32.35 6.4 32.35 6.45 32.5" fill="url(#gradient0)" fill-rule="evenodd" stroke="none"/>
    <path d="M26.6 32.35 L27.1 32.35 Q26.8 33.5 24.05 34.35 21.05 35.25 16.75 35.25 12.45 35.25 9.35 34.35 6.85 33.55 6.45 32.5 L6.4 32.35 26.6 32.35" fill="url(#gradient1)" fill-rule="evenodd" stroke="none"/>
  </g>
  <defs>
    <radialGradient cx="0" cy="0" gradientTransform="matrix(-1.0E-4, -0.0044, 0.0111, -3.0E-4, 16.25, 32.25)" gradientUnits="userSpaceOnUse" id="gradient0" r="819.2" spreadMethod="pad">
      <stop offset="0.0" stop-color="#000000" stop-opacity="0.3019608"/>
      <stop offset="1.0" stop-color="#000000" stop-opacity="0.0"/>
    </radialGradient>
    <radialGradient cx="0" cy="0" gradientTransform="matrix(-1.0E-4, -0.0044, 0.0111, -3.0E-4, 16.75, 32.1)" gradientUnits="userSpaceOnUse" id="gradient1" r="819.2" spreadMethod="pad">
      <stop offset="0.0" stop-color="#000000" stop-opacity="0.3019608"/>
      <stop offset="1.0" stop-color="#000000" stop-opacity="0.0"/>
    </radialGradient>
  </defs>
</svg>
