<?xml version="1.0" encoding="UTF-8" standalone="no"?>
<svg xmlns:xlink="http://www.w3.org/1999/xlink" height="6.65px" width="22.0px" xmlns="http://www.w3.org/2000/svg">
  <g transform="matrix(1.0, 0.0, 0.0, 1.0, -5.25, -28.55)">
    <path d="M5.55 32.5 L5.4 32.5 5.25 31.9 Q5.25 30.5 8.45 29.55 11.7 28.55 16.25 28.55 20.8 28.55 24.0 29.55 27.25 30.5 27.25 31.9 L27.1 32.5 5.55 32.5" fill="url(#gradient0)" fill-rule="evenodd" stroke="none"/>
    <path d="M27.1 32.5 L27.25 32.5 Q26.7 33.5 24.15 34.25 20.95 35.2 16.4 35.2 11.85 35.2 8.6 34.25 6.1 33.5 5.55 32.5 L27.1 32.5" fill="url(#gradient1)" fill-rule="evenodd" stroke="none"/>
  </g>
  <defs>
    <radialGradient cx="0" cy="0" gradientTransform="matrix(-1.0E-4, -0.0047, 0.0118, -4.0E-4, 16.25, 31.9)" gradientUnits="userSpaceOnUse" id="gradient0" r="819.2" spreadMethod="pad">
      <stop offset="0.0" stop-color="#000000" stop-opacity="0.44705883"/>
      <stop offset="1.0" stop-color="#000000" stop-opacity="0.0"/>
    </radialGradient>
    <radialGradient cx="0" cy="0" gradientTransform="matrix(-1.0E-4, -0.0047, 0.0118, -4.0E-4, 16.4, 31.9)" gradientUnits="userSpaceOnUse" id="gradient1" r="819.2" spreadMethod="pad">
      <stop offset="0.0" stop-color="#000000" stop-opacity="0.44705883"/>
      <stop offset="1.0" stop-color="#000000" stop-opacity="0.0"/>
    </radialGradient>
  </defs>
</svg>
