<?xml version="1.0" encoding="UTF-8" standalone="no"?>
<svg xmlns:xlink="http://www.w3.org/1999/xlink" height="41.75px" width="41.7px" xmlns="http://www.w3.org/2000/svg">
  <g transform="matrix(1.0, 0.0, 0.0, 1.0, 0.0, 0.0)">
    <path d="M26.35 13.95 L32.45 15.85 33.75 15.25 38.25 16.45 36.25 18.55 33.65 17.8 32.25 18.9 33.85 19.35 33.85 20.45 36.85 20.65 Q37.95 23.65 36.7 25.45 L36.55 25.8 35.15 26.85 34.5 27.15 32.2 25.25 31.75 25.75 31.5 26.2 30.15 25.75 30.45 33.45 31.85 34.35 Q32.05 35.45 30.75 35.4 L27.75 34.9 24.9 34.05 23.7 33.25 23.55 32.75 23.55 28.5 18.75 26.75 18.05 26.1 17.8 25.3 17.65 21.3 16.95 21.0 16.8 21.6 15.95 21.6 15.4 21.1 16.2 19.2 15.4 19.0 15.05 20.1 14.2 20.05 Q13.9 20.05 13.75 19.6 L14.05 18.45 13.2 18.1 13.15 18.15 7.9 20.2 Q7.9 17.15 8.7 14.55 L7.6 14.15 7.2 14.25 Q6.6 14.7 6.1 14.45 5.45 14.25 5.4 13.75 5.05 13.25 5.2 12.65 5.35 12.1 5.95 11.85 L7.05 11.8 7.85 12.4 7.9 12.9 9.25 13.35 Q9.85 11.85 10.65 10.65 L10.95 10.25 11.85 9.25 14.65 14.1 Q14.5 14.1 14.65 14.15 L15.6 14.5 15.55 14.4 15.95 13.0 16.8 13.0 Q17.15 13.05 17.35 13.5 L16.85 14.95 17.55 15.15 18.15 13.5 18.95 13.35 19.55 13.95 19.45 14.25 26.2 16.65 27.55 16.15 25.85 15.55 Q25.75 14.8 25.95 14.25 L26.35 13.95 M19.35 25.0 L23.55 26.55 23.65 23.45 19.35 22.0 19.35 25.0" fill="url(#gradient0)" fill-rule="evenodd" stroke="none"/>
    <path d="M26.35 13.95 L32.45 15.85 33.75 15.25 38.25 16.45 36.25 18.55 33.65 17.8 32.25 18.9 33.85 19.35 33.85 20.45 36.85 20.65 Q37.95 23.65 36.7 25.45 L36.55 25.8 35.15 26.85 34.5 27.15 32.2 25.25 31.75 25.75 31.5 26.2 30.15 25.75 30.45 33.45 31.85 34.35 Q32.05 35.45 30.75 35.4 L27.75 34.9 24.9 34.05 23.7 33.25 23.55 32.75 23.55 28.5 18.75 26.75 18.05 26.1 17.8 25.3 17.65 21.3 16.95 21.0 16.8 21.6 15.95 21.6 15.4 21.1 16.2 19.2 15.4 19.0 15.05 20.1 14.2 20.05 Q13.9 20.05 13.75 19.6 L14.05 18.45 13.2 18.1 13.15 18.15 7.9 20.2 Q7.9 17.15 8.7 14.55 L7.6 14.15 7.2 14.25 Q6.6 14.7 6.1 14.45 5.45 14.25 5.4 13.75 5.05 13.25 5.2 12.65 5.35 12.1 5.95 11.85 L7.05 11.8 7.85 12.4 7.9 12.9 9.25 13.35 Q9.85 11.85 10.65 10.65 L10.95 10.25 11.85 9.25 14.65 14.1 Q14.5 14.1 14.65 14.15 L15.6 14.5 15.55 14.4 15.95 13.0 16.8 13.0 Q17.15 13.05 17.35 13.5 L16.85 14.95 17.55 15.15 18.15 13.5 18.95 13.35 19.55 13.95 19.45 14.25 26.2 16.65 27.55 16.15 25.85 15.55 Q25.75 14.8 25.95 14.25 L26.35 13.95 M19.35 25.0 L23.55 26.55 23.65 23.45 19.35 22.0 19.35 25.0" fill="none" stroke="#4f281e" stroke-linecap="round" stroke-linejoin="round" stroke-width="2.0"/>
    <path d="M24.15 27.6 L23.95 28.6 18.75 26.75 18.05 26.1 17.8 25.3 17.65 20.15 18.6 20.5 18.4 24.75 Q18.6 25.45 19.55 25.9 L19.5 25.95 24.15 27.6" fill="url(#gradient1)" fill-rule="evenodd" stroke="none"/>
    <path d="M18.6 20.5 L19.3 20.8 19.35 25.0 24.15 26.75 24.15 27.6 19.5 25.95 19.55 25.9 Q18.6 25.45 18.4 24.75 L18.6 20.5" fill="url(#gradient2)" fill-rule="evenodd" stroke="none"/>
    <path d="M23.65 24.6 L23.55 22.9 29.5 24.95 29.85 33.45 31.45 34.65 27.75 34.9 24.9 34.05 23.7 33.25 23.55 32.75 24.95 33.45 27.7 34.3 28.15 34.35 28.75 34.3 28.5 33.95 Q27.7 33.05 28.35 32.15 L28.6 31.65 28.35 31.3 Q27.45 30.05 28.2 28.9 L28.55 28.5 28.3 28.3 Q27.45 27.3 28.35 26.1 L27.9 25.95 Q25.3 25.65 23.65 24.6" fill="url(#gradient3)" fill-rule="evenodd" stroke="none"/>
    <path d="M29.5 24.95 L30.25 25.2 30.45 33.45 31.85 34.35 Q32.05 35.45 30.75 35.4 L27.75 34.9 31.45 34.65 29.85 33.45 29.5 24.95" fill="url(#gradient4)" fill-rule="evenodd" stroke="none"/>
    <path d="M23.55 32.75 L23.65 32.15 24.0 32.7 24.9 33.15 26.65 33.7 27.65 34.15 27.45 33.75 Q27.3 33.15 27.55 32.55 L27.7 32.2 27.85 32.15 28.35 32.15 Q27.7 33.05 28.5 33.95 L28.75 34.3 28.15 34.35 27.7 34.3 24.95 33.45 23.55 32.75 M23.7 30.35 L23.7 29.65 24.0 30.35 25.3 30.9 26.5 31.3 27.25 31.5 27.1 31.15 27.25 29.65 27.4 29.15 27.65 28.9 28.2 28.9 Q27.45 30.05 28.35 31.3 L28.6 31.65 27.35 31.65 25.45 31.25 25.25 31.2 23.7 30.35 M23.7 27.35 L23.55 25.75 23.7 26.5 24.1 27.3 25.95 28.15 26.4 28.15 27.35 28.45 27.6 28.5 27.45 27.75 Q27.4 27.1 27.6 26.65 L27.9 25.95 28.35 26.1 Q27.45 27.3 28.3 28.3 L28.55 28.5 27.7 28.6 25.85 28.25 25.55 28.15 23.7 27.35" fill="url(#gradient5)" fill-rule="evenodd" stroke="none"/>
    <path d="M23.65 32.15 L23.7 30.85 Q24.4 31.3 25.15 31.55 L25.45 31.65 Q26.55 32.1 27.85 32.15 L27.7 32.2 27.55 32.55 Q27.3 33.15 27.45 33.75 L27.65 34.15 26.65 33.7 24.9 33.15 24.0 32.7 23.65 32.15 M23.7 29.65 L23.7 29.4 23.55 27.75 25.45 28.6 25.75 28.65 27.65 28.9 27.4 29.15 27.25 29.65 27.1 31.15 27.25 31.5 26.5 31.3 25.3 30.9 24.0 30.35 23.7 29.65 M23.55 25.75 L23.65 24.6 Q25.3 25.65 27.9 25.95 L27.6 26.65 Q27.4 27.1 27.45 27.75 L27.6 28.5 27.35 28.45 26.4 28.15 25.95 28.15 24.1 27.3 23.7 26.5 23.55 25.75" fill="url(#gradient6)" fill-rule="evenodd" stroke="none"/>
    <path d="M23.7 30.85 L23.7 30.35 25.25 31.2 25.45 31.25 27.35 31.65 28.6 31.65 28.35 32.15 27.85 32.15 Q26.55 32.1 25.45 31.65 L25.15 31.55 Q24.4 31.3 23.7 30.85 M23.55 27.75 L23.7 27.35 25.55 28.15 25.85 28.25 27.7 28.6 28.55 28.5 28.2 28.9 27.65 28.9 25.75 28.65 25.45 28.6 23.55 27.75" fill="#983b00" fill-rule="evenodd" stroke="none"/>
    <path d="M33.15 21.05 L33.35 20.5 36.85 20.65 Q37.95 23.65 36.7 25.45 37.25 22.3 36.05 21.4 L33.15 21.05" fill="url(#gradient7)" fill-rule="evenodd" stroke="none"/>
    <path d="M36.7 25.45 L36.55 25.8 35.15 26.85 Q36.6 24.7 35.7 22.3 L35.7 22.2 32.95 21.75 33.15 21.05 36.05 21.4 Q37.25 22.3 36.7 25.45" fill="url(#gradient8)" fill-rule="evenodd" stroke="none"/>
    <path d="M35.15 26.85 L34.5 27.15 31.75 24.95 32.95 21.75 35.7 22.2 35.7 22.3 Q36.6 24.7 35.15 26.85" fill="url(#gradient9)" fill-rule="evenodd" stroke="none"/>
    <path d="M33.05 18.3 L31.9 19.2 26.25 17.2 27.65 16.9 29.55 17.05 31.35 17.55 33.05 18.3" fill="#e86000" fill-rule="evenodd" stroke="none"/>
    <path d="M26.25 17.2 L25.5 16.9 28.45 15.6 33.9 17.45 33.05 18.3 31.35 17.55 29.55 17.05 27.65 16.9 26.25 17.2" fill="#d94700" fill-rule="evenodd" stroke="none"/>
    <path d="M19.05 14.85 L19.3 14.2 33.85 19.35 33.9 20.75 33.25 23.45 31.75 25.75 Q32.65 24.35 32.85 23.15 L33.05 22.3 Q33.4 21.4 33.25 20.65 33.1 19.9 32.15 19.55 L19.15 14.95 19.05 14.85" fill="url(#gradient10)" fill-rule="evenodd" stroke="none"/>
    <path d="M31.75 25.75 L31.5 26.2 16.85 20.95 17.05 20.5 31.75 25.75 M19.15 14.95 L32.15 19.55 Q33.1 19.9 33.25 20.65 33.4 21.4 33.05 22.3 L32.85 23.15 Q32.25 24.45 30.05 23.95 L18.65 19.9 Q18.15 18.3 19.15 14.95" fill="url(#gradient11)" fill-rule="evenodd" stroke="none"/>
    <path d="M17.05 20.5 L19.05 14.85 19.15 14.95 Q18.15 18.3 18.65 19.9 L30.05 23.95 Q32.25 24.45 32.85 23.15 32.65 24.35 31.75 25.75 L17.05 20.5" fill="url(#gradient12)" fill-rule="evenodd" stroke="none"/>
    <path d="M9.7 14.8 L6.75 13.85 7.05 12.6 10.05 13.65 9.7 14.8" fill="url(#gradient13)" fill-rule="evenodd" stroke="none"/>
    <path d="M6.1 14.45 Q5.45 14.25 5.4 13.75 5.05 13.25 5.2 12.65 5.35 12.1 5.95 11.85 L7.05 11.8 7.85 12.4 7.9 13.6 7.2 14.25 Q6.6 14.7 6.1 14.45" fill="url(#gradient14)" fill-rule="evenodd" stroke="none"/>
    <path d="M16.05 14.65 L17.5 15.1 16.95 16.35 16.8 16.55 15.15 16.65 15.65 15.55 16.05 14.65 M14.8 14.2 L15.3 14.35 15.05 15.05 14.4 16.0 14.1 16.15 14.05 16.0 14.05 15.85 14.35 15.3 14.25 15.3 14.8 14.2" fill="#ff7e00" fill-rule="evenodd" stroke="none"/>
    <path d="M17.5 15.1 L18.0 15.3 17.1 17.4 15.0 17.55 Q13.6 17.1 12.6 16.05 L12.55 15.95 13.35 13.65 14.8 14.2 14.25 15.3 14.35 15.3 14.05 15.85 14.05 16.0 14.1 16.15 14.4 16.0 15.05 15.05 15.3 14.35 16.05 14.65 15.65 15.55 15.15 16.65 16.8 16.55 16.95 16.35 17.5 15.1" fill="#e96200" fill-rule="evenodd" stroke="none"/>
    <path d="M17.1 17.4 L16.45 19.3 11.85 17.7 12.55 15.95 12.6 16.05 Q13.6 17.1 15.0 17.55 L17.1 17.4" fill="#b94400" fill-rule="evenodd" stroke="none"/>
    <path d="M17.85 14.45 L18.05 14.15 Q18.85 13.3 19.35 13.9 L19.55 14.1 17.95 18.45 17.65 19.15 16.85 20.75 16.25 20.85 Q16.0 20.55 16.45 19.05 L16.75 17.55 16.75 17.5 17.8 14.55 17.85 14.45" fill="url(#gradient15)" fill-rule="evenodd" stroke="none"/>
    <path d="M19.55 14.1 L19.35 13.9 Q18.85 13.3 18.05 14.15 L17.85 14.45 18.15 13.5 18.95 13.35 19.55 13.95 19.55 14.1" fill="url(#gradient16)" fill-rule="evenodd" stroke="none"/>
    <path d="M16.75 17.55 L16.45 19.05 Q16.0 20.55 16.25 20.85 L16.85 20.75 17.65 19.15 17.95 18.45 16.8 21.6 15.95 21.6 15.4 21.1 16.75 17.55" fill="url(#gradient17)" fill-rule="evenodd" stroke="none"/>
    <path d="M15.55 14.4 L15.95 13.0 16.8 13.0 Q17.15 13.05 17.35 13.5 L17.35 13.75 17.15 13.6 16.6 13.3 Q16.35 13.25 16.05 13.55 L15.55 14.4" fill="url(#gradient18)" fill-rule="evenodd" stroke="none"/>
    <path d="M15.55 14.4 L16.05 13.55 Q16.35 13.25 16.6 13.3 L17.15 13.6 17.35 13.75 15.95 17.35 15.6 18.05 Q15.05 18.45 14.7 18.05 14.45 17.95 14.55 17.65 L14.65 17.25 14.7 16.85 14.75 16.55 Q14.8 16.35 14.95 16.3 L14.95 16.0 15.0 15.85 15.55 14.4" fill="url(#gradient19)" fill-rule="evenodd" stroke="none"/>
    <path d="M15.95 17.35 L15.05 20.1 14.2 20.05 Q13.9 20.05 13.75 19.6 L14.7 16.85 14.65 17.25 14.55 17.65 Q14.45 17.95 14.7 18.05 15.05 18.45 15.6 18.05 L15.95 17.35" fill="url(#gradient20)" fill-rule="evenodd" stroke="none"/>
    <path d="M10.95 10.25 L11.85 9.25 14.65 14.1 14.2 14.7 13.3 12.9 Q12.55 11.2 11.95 10.65 L11.25 10.3 10.95 10.25" fill="url(#gradient21)" fill-rule="evenodd" stroke="none"/>
    <path d="M10.65 10.65 L10.95 10.25 11.25 10.3 11.95 10.65 Q12.55 11.2 13.3 12.9 L14.2 14.7 13.65 15.6 12.6 17.2 Q12.05 17.8 10.75 18.45 L8.75 18.65 8.75 18.55 Q8.55 18.4 8.65 18.1 L8.65 17.7 8.75 16.85 Q8.7 16.2 8.95 14.95 9.25 13.75 9.65 12.9 9.9 12.1 10.65 10.65" fill="url(#gradient22)" fill-rule="evenodd" stroke="none"/>
    <path d="M14.2 14.75 Q13.5 16.45 13.15 18.15 L7.9 20.2 Q7.95 14.45 10.65 10.65 9.9 12.1 9.65 12.9 9.25 13.75 8.95 14.95 8.7 16.2 8.75 16.85 L8.65 17.7 8.65 18.1 Q8.55 18.4 8.75 18.55 L8.75 18.65 10.75 18.45 Q12.05 17.8 12.6 17.2 L13.65 15.6 14.2 14.7 14.2 14.75" fill="url(#gradient23)" fill-rule="evenodd" stroke="none"/>
    <path d="M14.65 14.1 L14.2 14.75 14.2 14.7 14.65 14.1" fill="url(#gradient24)" fill-rule="evenodd" stroke="none"/>
    <path d="M36.05 18.45 L25.85 15.55 26.25 14.65 26.5 14.4 32.45 16.05 33.1 15.95 36.9 17.05 Q37.15 17.2 36.75 17.65 L36.05 18.45" fill="#fd8700" fill-rule="evenodd" stroke="none"/>
    <path d="M25.85 15.55 Q25.75 14.8 25.95 14.25 L26.35 13.95 32.45 15.85 33.75 15.25 38.25 16.45 38.1 16.6 33.95 15.55 33.1 15.95 32.45 16.05 26.5 14.4 26.25 14.65 25.85 15.55" fill="#ffc431" fill-rule="evenodd" stroke="none"/>
    <path d="M38.1 16.6 L36.25 18.55 36.05 18.45 36.75 17.65 Q37.15 17.2 36.9 17.05 L33.1 15.95 33.95 15.55 38.1 16.6" fill="#ffa800" fill-rule="evenodd" stroke="none"/>
    <path d="M33.15 17.15 L33.7 16.75 36.4 17.55 35.8 18.0 33.15 17.15" fill="#f97600" fill-rule="evenodd" stroke="none"/>
    <path d="M36.4 17.55 L33.7 16.75 33.15 17.15 32.8 17.1 33.65 16.35 36.7 17.35 36.4 17.55" fill="#d46400" fill-rule="evenodd" stroke="none"/>
    <path d="M31.35 23.5 L30.35 23.35 29.75 21.35 31.25 20.45 32.25 21.0 31.5 20.7 30.1 21.4 30.25 21.9 30.55 23.25 31.35 23.5" fill="#fea500" fill-rule="evenodd" stroke="none"/>
    <path d="M30.25 21.9 L30.1 21.4 31.5 20.7 32.25 21.0 32.05 21.15 31.35 21.0 30.25 21.9" fill="#7e3100" fill-rule="evenodd" stroke="none"/>
    <path d="M31.35 23.5 L30.55 23.25 30.25 21.9 31.35 21.0 32.05 21.15 31.15 21.95 31.35 23.5" fill="#983b00" fill-rule="evenodd" stroke="none"/>
    <path d="M28.05 21.0 L27.95 20.65 29.35 19.9 30.1 20.2 30.15 20.15 30.15 20.2 29.75 20.45 29.35 20.1 28.05 21.0" fill="#7e3100" fill-rule="evenodd" stroke="none"/>
    <path d="M30.1 20.2 L29.35 19.9 27.95 20.65 28.05 21.0 28.35 22.45 29.25 22.75 28.2 22.5 27.55 20.55 29.1 19.65 30.1 20.2" fill="#fea500" fill-rule="evenodd" stroke="none"/>
    <path d="M28.05 21.0 L29.35 20.1 29.75 20.45 29.05 21.1 29.25 22.75 28.35 22.45 28.05 21.0" fill="#983b00" fill-rule="evenodd" stroke="none"/>
    <path d="M27.7 19.3 L27.45 19.45 26.85 19.3 25.65 20.15 25.55 19.8 26.85 18.95 27.7 19.3" fill="#7e3100" fill-rule="evenodd" stroke="none"/>
    <path d="M27.7 19.3 L26.85 18.95 25.55 19.8 25.65 20.15 25.95 21.45 26.75 21.85 25.8 21.6 25.2 19.75 26.8 18.7 27.7 19.3" fill="#fea500" fill-rule="evenodd" stroke="none"/>
    <path d="M25.65 20.15 L26.85 19.3 27.45 19.45 26.55 20.25 26.85 21.75 26.75 21.85 25.95 21.45 25.65 20.15" fill="#983b00" fill-rule="evenodd" stroke="none"/>
    <path d="M35.55 20.95 Q35.75 20.85 35.95 21.15 L35.95 21.45 35.7 21.85 35.25 21.85 34.95 21.45 35.05 21.15 Q34.95 20.95 35.2 20.85 L35.55 20.95" fill="#ffeec6" fill-rule="evenodd" stroke="none"/>
    <path d="M35.75 21.7 L35.45 22.0 35.2 22.0 34.75 21.75 34.85 21.3 35.05 21.05 35.45 21.05 35.75 21.25 Q35.95 21.45 35.75 21.7" fill="#983b00" fill-rule="evenodd" stroke="none"/>
    <path d="M35.55 23.15 L35.7 23.5 35.5 23.75 35.05 23.85 Q34.75 23.8 34.8 23.5 34.65 23.35 34.75 23.2 L34.95 22.85 35.4 22.9 35.55 23.15" fill="#fea500" fill-rule="evenodd" stroke="none"/>
    <path d="M35.5 23.35 L35.65 23.75 35.35 24.05 34.9 24.05 34.6 23.85 34.65 23.4 Q34.65 23.2 34.8 23.15 L35.25 23.05 35.5 23.35" fill="#983b00" fill-rule="evenodd" stroke="none"/>
    <path d="M34.2 25.35 L33.95 25.65 33.7 25.8 33.3 25.45 33.35 25.05 33.6 24.7 34.0 24.7 34.25 24.95 Q34.45 25.25 34.2 25.35" fill="#fea500" fill-rule="evenodd" stroke="none"/>
    <path d="M34.05 25.6 L33.85 25.85 33.6 25.85 33.25 25.6 Q33.1 25.45 33.3 25.25 33.3 25.0 33.45 24.9 L33.85 24.9 34.15 25.15 34.05 25.6" fill="#983b00" fill-rule="evenodd" stroke="none"/>
    <path d="M35.55 6.1 Q41.7 12.25 41.7 20.85 41.7 29.5 35.55 35.6 29.45 41.75 20.85 41.75 12.25 41.75 6.1 35.6 0.0 29.5 0.0 20.85 0.0 12.25 6.1 6.1 12.25 0.0 20.85 0.0 29.45 0.0 35.55 6.1" fill="url(#gradient25)" fill-rule="evenodd" stroke="none"/>
    <path d="M21.4 0.3 Q26.9 0.3 30.8 2.6 34.75 4.95 34.75 8.25 34.75 11.5 30.8 13.85 26.9 16.15 21.4 16.15 15.9 16.15 12.0 13.85 8.1 11.5 8.1 8.25 8.1 4.95 12.0 2.6 15.9 0.3 21.4 0.3" fill="url(#gradient26)" fill-rule="evenodd" stroke="none"/>
  </g>
  <defs>
    <linearGradient gradientTransform="matrix(-9.0E-4, 0.0024, -0.0027, -0.001, 34.8, 25.05)" gradientUnits="userSpaceOnUse" id="gradient0" spreadMethod="pad" x1="-819.2" x2="819.2">
      <stop offset="0.0" stop-color="#ff7e00"/>
      <stop offset="1.0" stop-color="#e05600"/>
    </linearGradient>
    <linearGradient gradientTransform="matrix(3.0E-4, -0.0022, 0.001, -1.0E-4, 23.8, 25.05)" gradientUnits="userSpaceOnUse" id="gradient1" spreadMethod="pad" x1="-819.2" x2="819.2">
      <stop offset="0.0" stop-color="#e35a00"/>
      <stop offset="1.0" stop-color="#b44700"/>
    </linearGradient>
    <linearGradient gradientTransform="matrix(3.0E-4, -0.0022, 0.001, -1.0E-4, 23.8, 25.05)" gradientUnits="userSpaceOnUse" id="gradient2" spreadMethod="pad" x1="-819.2" x2="819.2">
      <stop offset="0.0" stop-color="#bd4b00"/>
      <stop offset="1.0" stop-color="#8e3800"/>
    </linearGradient>
    <linearGradient gradientTransform="matrix(0.0015, -0.0056, 0.006, 0.0016, 27.65, 30.05)" gradientUnits="userSpaceOnUse" id="gradient3" spreadMethod="pad" x1="-819.2" x2="819.2">
      <stop offset="0.0" stop-color="#e35a00"/>
      <stop offset="1.0" stop-color="#b44700"/>
    </linearGradient>
    <linearGradient gradientTransform="matrix(0.0015, -0.0056, 0.006, 0.0016, 27.65, 30.05)" gradientUnits="userSpaceOnUse" id="gradient4" spreadMethod="pad" x1="-819.2" x2="819.2">
      <stop offset="0.0" stop-color="#9c3e00"/>
      <stop offset="1.0" stop-color="#b44700"/>
    </linearGradient>
    <linearGradient gradientTransform="matrix(0.0015, -0.0056, 0.006, 0.0016, 27.65, 30.05)" gradientUnits="userSpaceOnUse" id="gradient5" spreadMethod="pad" x1="-819.2" x2="819.2">
      <stop offset="0.0" stop-color="#ff6500"/>
      <stop offset="1.0" stop-color="#ff6300"/>
    </linearGradient>
    <linearGradient gradientTransform="matrix(0.0015, -0.0056, 0.006, 0.0016, 27.65, 30.05)" gradientUnits="userSpaceOnUse" id="gradient6" spreadMethod="pad" x1="-819.2" x2="819.2">
      <stop offset="0.0" stop-color="#ff6500"/>
      <stop offset="1.0" stop-color="#d75400"/>
    </linearGradient>
    <linearGradient gradientTransform="matrix(-9.0E-4, 0.0024, -0.0027, -0.001, 34.8, 25.05)" gradientUnits="userSpaceOnUse" id="gradient7" spreadMethod="pad" x1="-819.2" x2="819.2">
      <stop offset="0.0" stop-color="#ffc63a"/>
      <stop offset="1.0" stop-color="#ff8c00"/>
    </linearGradient>
    <linearGradient gradientTransform="matrix(-9.0E-4, 0.0024, -0.0027, -0.001, 34.8, 25.05)" gradientUnits="userSpaceOnUse" id="gradient8" spreadMethod="pad" x1="-819.2" x2="819.2">
      <stop offset="0.0" stop-color="#ffa800"/>
      <stop offset="1.0" stop-color="#e07b00"/>
    </linearGradient>
    <linearGradient gradientTransform="matrix(-9.0E-4, 0.0024, -0.0027, -0.001, 34.8, 25.05)" gradientUnits="userSpaceOnUse" id="gradient9" spreadMethod="pad" x1="-819.2" x2="819.2">
      <stop offset="0.0" stop-color="#ff7e00"/>
      <stop offset="1.0" stop-color="#e05600"/>
    </linearGradient>
    <linearGradient gradientTransform="matrix(-0.0015, 0.0041, -0.0041, -0.0015, 26.35, 20.5)" gradientUnits="userSpaceOnUse" id="gradient10" spreadMethod="pad" x1="-819.2" x2="819.2">
      <stop offset="0.0" stop-color="#ffa800"/>
      <stop offset="1.0" stop-color="#fc6100"/>
    </linearGradient>
    <linearGradient gradientTransform="matrix(-0.0015, 0.0041, -0.0041, -0.0015, 26.35, 20.5)" gradientUnits="userSpaceOnUse" id="gradient11" spreadMethod="pad" x1="-819.2" x2="819.2">
      <stop offset="0.0" stop-color="#ff7e00"/>
      <stop offset="1.0" stop-color="#e05600"/>
    </linearGradient>
    <linearGradient gradientTransform="matrix(-0.0015, 0.0041, -0.0041, -0.0015, 26.35, 20.5)" gradientUnits="userSpaceOnUse" id="gradient12" spreadMethod="pad" x1="-819.2" x2="819.2">
      <stop offset="0.0" stop-color="#bf3f00"/>
      <stop offset="1.0" stop-color="#b84600"/>
    </linearGradient>
    <linearGradient gradientTransform="matrix(-0.0018, -7.0E-4, 3.0E-4, -7.0E-4, 8.45, 13.65)" gradientUnits="userSpaceOnUse" id="gradient13" spreadMethod="pad" x1="-819.2" x2="819.2">
      <stop offset="0.0" stop-color="#514941"/>
      <stop offset="1.0" stop-color="#d4d4d4"/>
    </linearGradient>
    <radialGradient cx="0" cy="0" gradientTransform="matrix(0.0023, 8.0E-4, -8.0E-4, 0.0023, 6.85, 12.7)" gradientUnits="userSpaceOnUse" id="gradient14" r="819.2" spreadMethod="pad">
      <stop offset="0.0" stop-color="#d4d4d4"/>
      <stop offset="1.0" stop-color="#514941"/>
    </radialGradient>
    <linearGradient gradientTransform="matrix(-0.0016, 0.0046, -0.0045, -0.0016, 17.5, 17.5)" gradientUnits="userSpaceOnUse" id="gradient15" spreadMethod="pad" x1="-819.2" x2="819.2">
      <stop offset="0.0" stop-color="#ff4600"/>
      <stop offset="1.0" stop-color="#e03100"/>
    </linearGradient>
    <linearGradient gradientTransform="matrix(-0.0016, 0.0046, -0.0045, -0.0016, 17.5, 17.5)" gradientUnits="userSpaceOnUse" id="gradient16" spreadMethod="pad" x1="-819.2" x2="819.2">
      <stop offset="0.0" stop-color="#ff6200"/>
      <stop offset="1.0" stop-color="#e03100"/>
    </linearGradient>
    <linearGradient gradientTransform="matrix(-0.0016, 0.0046, -0.0045, -0.0016, 17.5, 17.5)" gradientUnits="userSpaceOnUse" id="gradient17" spreadMethod="pad" x1="-819.2" x2="819.2">
      <stop offset="0.0" stop-color="#ff4600"/>
      <stop offset="1.0" stop-color="#c02a00"/>
    </linearGradient>
    <linearGradient gradientTransform="matrix(-0.0014, 0.004, -0.0045, -0.0016, 15.6, 16.55)" gradientUnits="userSpaceOnUse" id="gradient18" spreadMethod="pad" x1="-819.2" x2="819.2">
      <stop offset="0.0" stop-color="#fe6100"/>
      <stop offset="1.0" stop-color="#e03100"/>
    </linearGradient>
    <linearGradient gradientTransform="matrix(-0.0014, 0.004, -0.0045, -0.0016, 15.6, 16.55)" gradientUnits="userSpaceOnUse" id="gradient19" spreadMethod="pad" x1="-819.2" x2="819.2">
      <stop offset="0.0" stop-color="#ff4600"/>
      <stop offset="1.0" stop-color="#e03100"/>
    </linearGradient>
    <linearGradient gradientTransform="matrix(-0.0014, 0.004, -0.0045, -0.0016, 15.6, 16.55)" gradientUnits="userSpaceOnUse" id="gradient20" spreadMethod="pad" x1="-819.2" x2="819.2">
      <stop offset="0.0" stop-color="#ff4600"/>
      <stop offset="1.0" stop-color="#c12a00"/>
    </linearGradient>
    <linearGradient gradientTransform="matrix(-0.0014, 0.0042, -0.0054, -0.0019, 10.9, 15.85)" gradientUnits="userSpaceOnUse" id="gradient21" spreadMethod="pad" x1="-819.2" x2="819.2">
      <stop offset="0.0" stop-color="#ffffff"/>
      <stop offset="1.0" stop-color="#c4bfbb"/>
    </linearGradient>
    <linearGradient gradientTransform="matrix(-0.0014, 0.0042, -0.0054, -0.0019, 11.85, 13.6)" gradientUnits="userSpaceOnUse" id="gradient22" spreadMethod="pad" x1="-819.2" x2="819.2">
      <stop offset="0.0" stop-color="#ececec"/>
      <stop offset="1.0" stop-color="#c4bfbb"/>
    </linearGradient>
    <linearGradient gradientTransform="matrix(-0.0014, 0.0042, -0.0054, -0.0019, 10.9, 15.85)" gradientUnits="userSpaceOnUse" id="gradient23" spreadMethod="pad" x1="-819.2" x2="819.2">
      <stop offset="0.0" stop-color="#c9c9c9"/>
      <stop offset="1.0" stop-color="#8a8887"/>
    </linearGradient>
    <linearGradient gradientTransform="matrix(-0.0014, 0.0042, -0.0054, -0.0019, 10.9, 15.85)" gradientUnits="userSpaceOnUse" id="gradient24" spreadMethod="pad" x1="-819.2" x2="819.2">
      <stop offset="0.0" stop-color="#ffffff"/>
      <stop offset="1.0" stop-color="#8a8887"/>
    </linearGradient>
    <radialGradient cx="0" cy="0" gradientTransform="matrix(0.0261, 0.0, 0.0, 0.0261, 20.25, 19.45)" gradientUnits="userSpaceOnUse" id="gradient25" r="819.2" spreadMethod="pad">
      <stop offset="0.0" stop-color="#fbfbfb" stop-opacity="0.0"/>
      <stop offset="0.6" stop-color="#eff7fc" stop-opacity="0.08627451"/>
      <stop offset="0.8666666666666667" stop-color="#d6fefa" stop-opacity="0.6509804"/>
      <stop offset="1.0" stop-color="#b4feee" stop-opacity="0.8627451"/>
    </radialGradient>
    <linearGradient gradientTransform="matrix(2.0E-4, -0.0097, 0.0162, 1.0E-4, 21.45, 8.2)" gradientUnits="userSpaceOnUse" id="gradient26" spreadMethod="pad" x1="-819.2" x2="819.2">
      <stop offset="0.0" stop-color="#fbfbfb" stop-opacity="0.0"/>
      <stop offset="1.0" stop-color="#ffffff"/>
    </linearGradient>
  </defs>
</svg>
