<?xml version="1.0" encoding="UTF-8" standalone="no"?>
<svg xmlns:xlink="http://www.w3.org/1999/xlink" height="41.75px" width="41.7px" xmlns="http://www.w3.org/2000/svg">
  <g transform="matrix(1.0, 0.0, 0.0, 1.0, 0.0, 0.0)">
    <path d="M28.75 25.2 L28.2 27.35 27.6 28.85 Q26.6 31.0 24.9 32.45 23.1 33.95 20.7 34.55 16.6 35.5 12.65 33.3 8.65 31.1 7.25 27.25 5.75 23.15 7.95 19.1 10.35 14.75 15.1 12.7 18.2 11.3 20.85 11.65 L21.35 10.9 22.45 9.6 22.6 9.3 Q23.05 8.85 24.0 9.0 L26.45 6.2 26.5 6.1 26.65 6.0 26.65 5.95 28.1 6.0 Q29.35 6.35 30.6 7.4 31.9 8.45 32.5 9.55 32.95 10.4 32.85 10.9 L32.85 10.95 32.7 11.15 32.55 11.3 30.6 13.8 30.85 14.0 Q35.5 17.85 36.55 19.7 36.9 20.4 36.55 21.45 35.95 23.1 33.5 26.2 30.85 29.65 27.8 32.05 L25.3 33.8 28.75 29.9 Q32.45 25.4 33.4 22.2 33.75 21.1 31.25 17.95 L30.9 17.25 30.15 16.35 29.75 16.0 28.1 18.15 28.55 19.95 Q29.0 22.2 28.8 24.3 L28.7 25.1 28.7 25.2 28.75 25.2 M28.25 15.65 L26.25 14.7 26.3 14.75 Q27.95 15.8 29.75 16.0 L29.6 15.85 28.25 15.65 M31.4 18.4 Q32.05 19.55 32.05 20.2 32.05 22.7 30.4 24.5 29.8 25.1 29.35 24.8 L30.1 24.05 Q31.6 22.45 31.6 20.15 L31.4 18.4" fill="#517558" fill-rule="evenodd" stroke="none"/>
    <path d="M28.75 25.2 L28.2 27.35 27.6 28.85 Q26.6 31.0 24.9 32.45 23.1 33.95 20.7 34.55 16.6 35.5 12.65 33.3 8.65 31.1 7.25 27.25 5.75 23.15 7.95 19.1 10.35 14.75 15.1 12.7 18.2 11.3 20.85 11.65 L21.35 10.9 22.45 9.6 22.6 9.3 Q23.05 8.85 24.0 9.0 L26.45 6.2 26.5 6.1 26.65 6.0 26.65 5.95 28.1 6.0 Q29.35 6.35 30.6 7.4 31.9 8.45 32.5 9.55 32.95 10.4 32.85 10.9 L32.85 10.95 32.7 11.15 32.55 11.3 30.6 13.8 30.85 14.0 Q35.5 17.85 36.55 19.7 36.9 20.4 36.55 21.45 35.95 23.1 33.5 26.2 30.85 29.65 27.8 32.05 L25.3 33.8 28.75 29.9 Q32.45 25.4 33.4 22.2 33.75 21.1 31.25 17.95 L30.15 16.35 M29.75 16.0 L28.1 18.15 28.55 19.95 Q29.0 22.2 28.8 24.3 L28.75 25.2 28.7 25.2 28.7 25.1 28.8 24.3" fill="none" stroke="#000000" stroke-linecap="round" stroke-linejoin="round" stroke-width="2.0"/>
    <path d="M27.25 29.45 Q25.0 33.5 20.7 34.55 16.6 35.5 12.65 33.3 8.65 31.1 7.25 27.25 5.75 23.15 7.95 19.1 10.35 14.75 15.1 12.7 20.0 10.5 23.7 12.55 27.5 14.6 28.55 19.95 29.55 25.15 27.25 29.45" fill="#3c5741" fill-rule="evenodd" stroke="none"/>
    <path d="M22.75 13.0 Q26.55 15.45 27.4 19.9 28.3 24.7 24.65 28.0 20.2 30.35 16.15 29.8 12.0 29.2 9.55 25.95 7.75 23.85 8.05 21.2 8.4 18.65 10.8 16.0 16.35 10.95 22.75 13.0" fill="#5f8a68" fill-rule="evenodd" stroke="none"/>
    <path d="M23.1 33.6 Q20.35 35.2 16.45 34.4 13.05 33.7 10.25 31.6 13.55 33.4 15.8 33.75 21.25 34.35 24.75 31.15 28.45 27.85 28.75 21.5 28.95 25.9 27.6 28.85 26.1 32.05 23.1 33.6" fill="#72a2d7" fill-rule="evenodd" stroke="none"/>
    <path d="M25.7 26.2 Q22.05 26.2 18.25 23.55 15.5 21.6 13.75 17.9 L12.5 14.65 12.7 14.4 Q12.9 14.4 12.9 14.55 L14.1 17.75 Q15.8 21.3 18.45 23.2 22.1 25.8 25.7 25.8 L28.25 25.35 Q28.45 25.25 28.55 25.45 L28.45 25.75 25.7 26.2" fill="#6d9474" fill-rule="evenodd" stroke="none"/>
    <path d="M22.5 31.5 Q18.2 31.5 14.8 29.15 11.0 26.55 9.4 23.05 8.45 20.9 8.45 18.95 L8.5 18.6 8.7 18.4 8.9 18.65 8.9 18.95 Q8.9 20.85 9.8 22.85 11.35 26.25 15.05 28.8 18.3 31.1 22.5 31.1 24.25 31.1 25.6 30.55 L25.85 30.7 25.75 30.95 Q24.5 31.5 22.5 31.5" fill="#6d9474" fill-rule="evenodd" stroke="none"/>
    <path d="M26.0 25.8 Q22.45 25.8 18.6 23.1 15.8 21.15 14.1 17.5 L12.9 14.25 13.05 14.0 Q13.25 14.0 13.3 14.15 L14.45 17.35 Q16.15 20.9 18.85 22.8 22.5 25.4 26.0 25.4 L28.45 25.0 28.7 25.1 28.6 25.35 26.0 25.8" fill="#231815" fill-rule="evenodd" stroke="none"/>
    <path d="M23.05 31.0 Q18.6 31.0 15.2 28.7 11.45 26.1 9.85 22.7 8.85 20.55 8.85 18.55 L8.9 18.1 9.1 17.9 9.3 18.1 9.3 18.55 Q9.3 20.5 10.25 22.5 11.75 25.8 15.45 28.35 18.75 30.6 23.05 30.6 24.85 30.6 26.2 30.05 L26.45 30.15 26.35 30.45 23.05 31.0" fill="#231815" fill-rule="evenodd" stroke="none"/>
    <path d="M20.95 15.1 Q19.65 15.25 17.8 16.05 14.2 17.65 11.7 20.65 8.4 24.65 8.4 27.75 L8.4 28.15 8.4 28.3 8.25 28.4 8.2 28.4 8.0 28.2 8.0 27.75 Q8.0 24.4 11.35 20.4 13.95 17.3 17.65 15.7 L20.85 14.7 Q21.1 14.6 21.1 14.85 L20.95 15.1" fill="#6b7d5c" fill-rule="evenodd" stroke="none"/>
    <path d="M23.05 28.15 Q21.5 30.75 19.25 32.6 17.4 34.15 16.15 34.35 L15.95 34.2 Q15.85 33.95 16.1 33.95 17.15 33.75 19.0 32.25 21.2 30.45 22.7 27.95 24.1 25.65 24.7 21.95 L25.0 18.75 25.2 18.5 25.4 18.75 25.1 22.05 Q24.5 25.8 23.05 28.15" fill="#527058" fill-rule="evenodd" stroke="none"/>
    <path d="M21.35 15.45 Q20.05 15.6 18.25 16.4 14.65 17.95 12.1 21.0 8.7 25.1 8.7 28.55 L8.7 28.9 8.5 29.1 8.3 28.95 8.25 28.55 Q8.25 24.95 11.8 20.75 14.35 17.6 18.05 16.05 19.95 15.25 21.3 15.05 L21.5 15.2 21.5 15.35 21.35 15.45" fill="#231815" fill-rule="evenodd" stroke="none"/>
    <path d="M22.55 27.85 Q20.7 30.45 18.6 32.3 16.65 33.95 15.5 34.15 L15.5 34.2 15.3 34.0 15.45 33.75 Q16.4 33.6 18.3 31.95 20.45 30.1 22.2 27.6 24.55 24.3 24.55 18.45 L24.55 18.3 24.75 18.1 24.95 18.3 24.95 18.45 Q24.95 24.35 22.55 27.85" fill="#231815" fill-rule="evenodd" stroke="none"/>
    <path d="M22.55 9.5 L23.05 11.05 Q23.85 12.8 25.2 13.9 27.35 15.75 29.75 16.0 28.2 18.5 27.05 18.8 26.1 19.0 24.55 18.25 23.0 17.55 22.0 16.35 20.15 14.05 20.3 12.8 20.35 12.25 21.35 10.9 L22.55 9.5" fill="#303030" fill-rule="evenodd" stroke="none"/>
    <path d="M30.2 15.5 L28.25 15.65 Q26.75 15.15 25.2 13.9 23.65 12.65 22.85 11.3 22.1 9.95 22.6 9.3 L24.6 9.15 Q26.1 9.65 27.65 10.9 29.25 12.2 30.0 13.5 30.75 14.85 30.2 15.5" fill="#5e5e5e" fill-rule="evenodd" stroke="none"/>
    <path d="M25.95 12.3 L26.4 10.5 30.85 14.0 Q35.5 17.85 36.55 19.7 36.9 20.4 36.55 21.45 35.95 23.1 33.5 26.2 30.85 29.65 27.8 32.05 L25.3 33.8 28.75 29.9 Q32.45 25.4 33.4 22.2 34.2 19.75 25.95 12.3" fill="#a8a8a8" fill-rule="evenodd" stroke="none"/>
    <path d="M31.55 14.6 L32.5 15.45 31.95 18.25 30.9 17.0 31.55 14.6" fill="#616161" fill-rule="evenodd" stroke="none"/>
    <path d="M35.85 18.95 L36.2 19.3 36.65 20.4 Q36.7 20.95 36.0 22.45 L33.4 22.8 33.55 21.4 Q33.5 21.05 33.6 21.0 L33.65 21.0 Q35.6 20.4 35.85 18.95" fill="#616161" fill-rule="evenodd" stroke="none"/>
    <path d="M21.1 22.1 Q20.65 22.5 19.55 21.9 18.55 21.4 17.8 20.55 17.15 19.8 17.05 18.95 16.9 18.1 17.4 17.7 17.95 17.25 19.25 17.2 20.7 17.15 21.3 17.85 21.9 18.55 21.75 20.15 21.6 21.65 21.1 22.1" fill="#7fba8b" fill-rule="evenodd" stroke="none"/>
    <path d="M12.0 23.8 Q11.25 23.0 12.45 21.85 13.75 20.6 14.0 21.45 14.3 22.75 13.55 23.45 L12.7 24.1 Q12.4 24.2 12.0 23.8" fill="#71a67b" fill-rule="evenodd" stroke="none"/>
    <path d="M16.65 15.2 Q15.85 15.5 15.65 14.85 L15.7 14.35 Q15.85 14.05 16.2 13.95 L16.8 13.95 17.2 14.3 Q17.45 14.95 16.65 15.2" fill="#88c493" fill-rule="evenodd" stroke="none"/>
    <path d="M30.25 14.2 L28.65 14.35 Q27.4 13.95 26.1 12.9 24.8 11.85 24.15 10.7 23.55 9.6 23.95 9.05 L26.65 5.95 32.85 10.9 30.25 14.2" fill="#303030" fill-rule="evenodd" stroke="none"/>
    <path d="M32.7 11.15 L31.1 11.3 Q29.9 10.9 28.6 9.85 27.3 8.85 26.7 7.75 26.1 6.65 26.5 6.1 L28.1 6.0 Q29.35 6.35 30.6 7.4 31.9 8.45 32.5 9.55 33.1 10.65 32.7 11.15" fill="#6e6e6e" fill-rule="evenodd" stroke="none"/>
    <path d="M21.3 20.15 Q21.3 22.85 23.4 24.6 21.1 22.95 21.1 19.95 21.1 17.65 22.6 16.05 24.1 14.4 26.25 14.4 27.95 14.4 29.3 15.5 28.0 14.6 26.45 14.6 24.3 14.6 22.8 16.2 21.3 17.85 21.3 20.15" fill="#a8a8a8" fill-rule="evenodd" stroke="none"/>
    <path d="M29.5 15.2 Q32.05 16.95 32.05 20.2 32.05 22.7 30.4 24.5 28.75 26.25 26.45 26.25 24.6 26.25 23.1 25.05 24.5 26.05 26.2 26.05 28.5 26.05 30.15 24.3 31.8 22.55 31.8 20.05 31.8 17.0 29.5 15.2" fill="#a8a8a8" fill-rule="evenodd" stroke="none"/>
    <path d="M29.5 15.2 Q31.8 17.0 31.8 20.05 31.8 22.55 30.15 24.3 28.5 26.05 26.2 26.05 24.5 26.05 23.1 25.05 20.85 23.2 20.85 20.2 20.85 17.7 22.5 15.95 24.15 14.2 26.45 14.2 28.2 14.2 29.5 15.2 M22.6 16.05 Q21.1 17.65 21.1 19.95 21.1 22.95 23.4 24.6 24.85 25.7 26.45 25.7 28.6 25.7 30.1 24.05 31.6 22.45 31.6 20.15 31.6 17.15 29.3 15.5 27.95 14.4 26.25 14.4 24.1 14.4 22.6 16.05" fill="#ffffff" fill-rule="evenodd" stroke="none"/>
    <path d="M26.3 7.6 L27.1 8.7 26.7 9.35 26.25 10.15 Q25.75 11.35 25.8 12.4 L24.95 11.45 Q24.4 10.65 24.4 10.45 L26.3 7.6" fill="#4d4d4d" fill-rule="evenodd" stroke="none"/>
    <path d="M21.55 20.1 Q21.55 22.7 23.55 24.35 21.35 22.8 21.35 19.9 21.35 17.7 22.8 16.2 24.2 14.6 26.25 14.6 27.9 14.6 29.2 15.65 27.95 14.8 26.45 14.8 24.4 14.8 22.95 16.35 21.55 17.9 21.55 20.1" fill="#a8a8a8" fill-rule="evenodd" stroke="none"/>
    <path d="M29.35 15.35 Q31.8 17.05 31.8 20.15 31.8 22.55 30.25 24.25 28.65 25.95 26.45 25.95 24.7 25.95 23.25 24.8 24.6 25.75 26.2 25.75 28.4 25.75 30.0 24.05 31.55 22.4 31.55 20.0 31.55 17.1 29.35 15.35" fill="#a8a8a8" fill-rule="evenodd" stroke="none"/>
    <path d="M26.25 14.6 Q24.2 14.6 22.8 16.2 21.35 17.7 21.35 19.9 21.35 22.8 23.55 24.35 24.95 25.4 26.45 25.4 28.5 25.4 29.95 23.85 31.4 22.3 31.4 20.1 31.4 17.25 29.2 15.65 27.9 14.6 26.25 14.6 M29.35 15.35 Q31.55 17.1 31.55 20.0 31.55 22.4 30.0 24.05 28.4 25.75 26.2 25.75 24.6 25.75 23.25 24.8 21.1 23.0 21.1 20.15 21.1 17.75 22.7 16.1 24.25 14.4 26.45 14.4 28.15 14.4 29.35 15.35" fill="#ffffff" fill-rule="evenodd" stroke="none"/>
    <path d="M35.55 6.1 Q41.7 12.25 41.7 20.85 41.7 29.5 35.55 35.6 29.45 41.75 20.85 41.75 12.25 41.75 6.1 35.6 0.0 29.5 0.0 20.85 0.0 12.25 6.1 6.1 12.25 0.0 20.85 0.0 29.45 0.0 35.55 6.1" fill="url(#gradient0)" fill-rule="evenodd" stroke="none"/>
    <path d="M21.4 0.3 Q26.9 0.3 30.8 2.6 34.75 4.95 34.75 8.25 34.75 11.5 30.8 13.85 26.9 16.15 21.4 16.15 15.9 16.15 12.0 13.85 8.1 11.5 8.1 8.25 8.1 4.95 12.0 2.6 15.9 0.3 21.4 0.3" fill="url(#gradient1)" fill-rule="evenodd" stroke="none"/>
  </g>
  <defs>
    <radialGradient cx="0" cy="0" gradientTransform="matrix(0.0261, 0.0, 0.0, 0.0261, 20.25, 19.45)" gradientUnits="userSpaceOnUse" id="gradient0" r="819.2" spreadMethod="pad">
      <stop offset="0.0" stop-color="#fbfbfb" stop-opacity="0.0"/>
      <stop offset="0.6" stop-color="#eff7fc" stop-opacity="0.08627451"/>
      <stop offset="0.8666666666666667" stop-color="#d6fefa" stop-opacity="0.6509804"/>
      <stop offset="1.0" stop-color="#b4feee" stop-opacity="0.8627451"/>
    </radialGradient>
    <linearGradient gradientTransform="matrix(2.0E-4, -0.0097, 0.0162, 1.0E-4, 21.45, 8.2)" gradientUnits="userSpaceOnUse" id="gradient1" spreadMethod="pad" x1="-819.2" x2="819.2">
      <stop offset="0.0" stop-color="#fbfbfb" stop-opacity="0.0"/>
      <stop offset="1.0" stop-color="#ffffff"/>
    </linearGradient>
  </defs>
</svg>
