<?xml version="1.0" encoding="UTF-8" standalone="no"?>
<svg xmlns:xlink="http://www.w3.org/1999/xlink" height="23.45px" width="23.2px" xmlns="http://www.w3.org/2000/svg">
  <g transform="matrix(1.0, 0.0, 0.0, 1.0, 1.0, 1.0)">
    <path d="M11.3 0.05 Q15.25 0.25 18.15 3.15 21.2 6.3 21.2 10.75 21.2 15.2 18.15 18.35 16.6 19.9 14.75 20.7 12.85 21.45 10.6 21.45 L10.5 21.45 10.35 21.45 Q7.9 21.4 5.9 20.4 4.4 19.65 3.1 18.35 0.0 15.2 0.0 10.75 0.0 6.3 3.1 3.15 5.5 0.7 8.7 0.15 L9.15 0.1 10.5 0.0 10.6 0.0 11.3 0.05" fill="#000000" fill-rule="evenodd" stroke="none"/>
    <path d="M11.3 0.05 Q15.25 0.25 18.15 3.15 21.2 6.3 21.2 10.75 21.2 15.2 18.15 18.35 16.6 19.9 14.75 20.7 12.85 21.45 10.6 21.45 L10.5 21.45 10.35 21.45 Q7.9 21.4 5.9 20.4 4.4 19.65 3.1 18.35 0.0 15.2 0.0 10.75 0.0 6.3 3.1 3.15 5.5 0.7 8.7 0.15 L9.15 0.1 10.5 0.0 10.6 0.0 11.3 0.05 Z" fill="none" stroke="#000000" stroke-linecap="round" stroke-linejoin="round" stroke-width="2.0"/>
    <path d="M3.15 3.15 Q6.25 0.0 10.65 0.0 15.05 0.0 18.15 3.15 21.25 6.3 21.25 10.75 21.25 15.2 18.15 18.35 15.05 21.45 10.65 21.45 6.25 21.45 3.15 18.35 0.05 15.2 0.05 10.75 0.05 6.3 3.15 3.15" fill="url(#gradient0)" fill-rule="evenodd" stroke="none"/>
    <path d="M15.35 8.4 Q13.35 9.85 10.55 9.85 7.75 9.85 5.8 8.4 3.8 6.95 3.8 4.95 3.8 2.9 5.8 1.5 7.75 0.05 10.55 0.05 13.35 0.05 15.35 1.5 17.3 2.9 17.3 4.95 17.3 6.95 15.35 8.4" fill="url(#gradient1)" fill-rule="evenodd" stroke="none"/>
    <path d="M16.0 20.0 Q13.75 21.5 10.6 21.5 7.5 21.5 5.25 20.0 3.05 18.5 3.05 16.45 3.05 14.35 5.25 12.85 7.5 11.35 10.6 11.35 13.75 11.35 16.0 12.85 18.2 14.35 18.2 16.45 18.2 18.5 16.0 20.0" fill="url(#gradient2)" fill-rule="evenodd" stroke="none"/>
    <path d="M11.75 3.05 L10.45 3.35 9.1 3.05 Q8.55 2.75 8.55 2.3 8.55 1.9 9.1 1.6 L10.45 1.3 Q11.25 1.3 11.75 1.6 12.35 1.9 12.35 2.3 12.35 2.75 11.75 3.05" fill="#e6e6e6" fill-rule="evenodd" stroke="none"/>
    <path d="M11.65 2.55 L10.45 2.8 9.25 2.55 Q8.75 2.3 8.75 1.9 8.75 1.55 9.25 1.25 L10.45 1.0 11.65 1.25 12.15 1.9 11.65 2.55" fill="url(#gradient3)" fill-rule="evenodd" stroke="none"/>
    <path d="M11.4 2.9 L10.35 3.1 9.2 2.9 Q8.75 2.65 8.75 2.3 8.75 1.95 9.2 1.7 L10.35 1.45 11.4 1.7 11.9 2.3 11.4 2.9" fill="url(#gradient4)" fill-rule="evenodd" stroke="none"/>
    <path d="M8.85 6.25 L7.55 6.55 6.2 6.25 Q5.65 5.95 5.65 5.5 5.65 5.1 6.2 4.8 6.75 4.5 7.55 4.5 L8.85 4.8 Q9.45 5.1 9.45 5.5 9.45 5.95 8.85 6.25" fill="#e6e6e6" fill-rule="evenodd" stroke="none"/>
    <path d="M8.8 5.8 L7.6 6.05 6.4 5.8 Q5.9 5.55 5.9 5.15 5.9 4.8 6.4 4.5 L7.6 4.25 8.8 4.5 9.3 5.15 8.8 5.8" fill="url(#gradient5)" fill-rule="evenodd" stroke="none"/>
    <path d="M8.5 6.1 L7.45 6.3 6.3 6.1 5.85 5.5 Q5.85 5.15 6.3 4.9 L7.45 4.65 8.5 4.9 Q9.0 5.15 9.0 5.5 L8.5 6.1" fill="url(#gradient6)" fill-rule="evenodd" stroke="none"/>
    <path d="M14.85 6.25 L13.55 6.55 12.2 6.25 Q11.65 5.95 11.65 5.5 11.65 5.1 12.2 4.8 L13.55 4.5 14.85 4.8 Q15.45 5.1 15.45 5.5 15.45 5.95 14.85 6.25" fill="#e6e6e6" fill-rule="evenodd" stroke="none"/>
    <path d="M14.75 5.8 L13.55 6.05 12.35 5.8 Q11.85 5.55 11.85 5.15 11.85 4.8 12.35 4.5 L13.55 4.25 14.75 4.5 15.25 5.15 14.75 5.8" fill="url(#gradient7)" fill-rule="evenodd" stroke="none"/>
    <path d="M14.45 6.1 L13.4 6.3 12.25 6.1 Q11.8 5.85 11.8 5.5 11.8 5.15 12.25 4.9 L13.4 4.65 14.45 4.9 14.95 5.5 14.45 6.1" fill="url(#gradient8)" fill-rule="evenodd" stroke="none"/>
  </g>
  <defs>
    <radialGradient cx="0" cy="0" gradientTransform="matrix(0.0132, 0.0, 0.0, 0.0132, 10.65, 8.65)" gradientUnits="userSpaceOnUse" id="gradient0" r="819.2" spreadMethod="pad">
      <stop offset="0.12549019607843137" stop-color="#645f57"/>
      <stop offset="0.25098039215686274" stop-color="#68615b"/>
      <stop offset="0.4117647058823529" stop-color="#5a5450"/>
      <stop offset="0.7529411764705882" stop-color="#1e1d18"/>
      <stop offset="0.9254901960784314" stop-color="#070704"/>
      <stop offset="1.0" stop-color="#0e0d0c"/>
    </radialGradient>
    <linearGradient gradientTransform="matrix(2.0E-4, 0.0058, -0.006, 2.0E-4, 10.85, 4.1)" gradientUnits="userSpaceOnUse" id="gradient1" spreadMethod="pad" x1="-819.2" x2="819.2">
      <stop offset="0.0" stop-color="#ffffff" stop-opacity="0.69411767"/>
      <stop offset="1.0" stop-color="#ffffff" stop-opacity="0.0"/>
    </linearGradient>
    <linearGradient gradientTransform="matrix(1.0E-4, -0.0074, 0.0067, 0.0, 10.85, 19.55)" gradientUnits="userSpaceOnUse" id="gradient2" spreadMethod="pad" x1="-819.2" x2="819.2">
      <stop offset="0.0" stop-color="#ffffff" stop-opacity="0.69411767"/>
      <stop offset="1.0" stop-color="#ffffff" stop-opacity="0.0"/>
    </linearGradient>
    <linearGradient gradientTransform="matrix(6.0E-4, -0.0014, 0.001, 4.0E-4, 10.85, 1.4)" gradientUnits="userSpaceOnUse" id="gradient3" spreadMethod="pad" x1="-819.2" x2="819.2">
      <stop offset="0.0" stop-color="#9a938f"/>
      <stop offset="1.0" stop-color="#000000"/>
    </linearGradient>
    <linearGradient gradientTransform="matrix(1.0E-4, 0.001, -0.001, 1.0E-4, 10.35, 2.3)" gradientUnits="userSpaceOnUse" id="gradient4" spreadMethod="pad" x1="-819.2" x2="819.2">
      <stop offset="0.0" stop-color="#363230"/>
      <stop offset="1.0" stop-color="#000000"/>
    </linearGradient>
    <linearGradient gradientTransform="matrix(6.0E-4, -0.0014, 0.001, 4.0E-4, 8.0, 4.65)" gradientUnits="userSpaceOnUse" id="gradient5" spreadMethod="pad" x1="-819.2" x2="819.2">
      <stop offset="0.0" stop-color="#9a938f"/>
      <stop offset="1.0" stop-color="#000000"/>
    </linearGradient>
    <linearGradient gradientTransform="matrix(1.0E-4, 0.001, -0.001, 1.0E-4, 7.45, 5.5)" gradientUnits="userSpaceOnUse" id="gradient6" spreadMethod="pad" x1="-819.2" x2="819.2">
      <stop offset="0.0" stop-color="#363230"/>
      <stop offset="1.0" stop-color="#000000"/>
    </linearGradient>
    <linearGradient gradientTransform="matrix(6.0E-4, -0.0014, 0.001, 4.0E-4, 13.95, 4.65)" gradientUnits="userSpaceOnUse" id="gradient7" spreadMethod="pad" x1="-819.2" x2="819.2">
      <stop offset="0.0" stop-color="#9a938f"/>
      <stop offset="1.0" stop-color="#000000"/>
    </linearGradient>
    <linearGradient gradientTransform="matrix(1.0E-4, 0.001, -0.001, 1.0E-4, 13.4, 5.5)" gradientUnits="userSpaceOnUse" id="gradient8" spreadMethod="pad" x1="-819.2" x2="819.2">
      <stop offset="0.0" stop-color="#363230"/>
      <stop offset="1.0" stop-color="#000000"/>
    </linearGradient>
  </defs>
</svg>
