<?xml version="1.0" encoding="UTF-8" standalone="no"?>
<svg xmlns:xlink="http://www.w3.org/1999/xlink" height="28.85px" width="26.95px" xmlns="http://www.w3.org/2000/svg">
  <g transform="matrix(1.0, 0.0, 0.0, 1.0, 2.5, 3.8)">
    <path d="M4.55 -1.2 L4.8 -2.15 5.0 -2.7 5.1 -2.8 6.15 -1.55 6.3 -1.45 6.35 -1.3 6.55 -1.0 7.5 -0.75 7.8 -0.65 Q8.9 -0.3 9.6 0.55 L9.65 0.65 Q10.85 2.2 11.0 4.25 L11.05 6.2 10.95 7.0 10.85 7.6 11.15 8.1 Q11.75 9.2 14.45 10.05 L15.8 9.85 17.2 10.1 17.3 10.1 Q18.0 10.35 18.55 10.9 L18.65 11.0 Q19.05 11.35 19.25 11.85 19.55 11.5 20.55 11.3 21.5 11.15 21.95 11.3 23.05 11.7 23.35 13.2 23.6 14.45 23.2 15.6 L22.35 16.95 Q21.6 18.1 21.4 18.75 20.8 20.45 22.1 20.9 L22.9 20.9 Q23.3 20.7 23.25 19.95 L23.45 20.7 23.45 21.05 23.3 21.6 22.05 22.6 20.3 22.8 Q17.65 21.85 18.7 18.9 L19.4 17.6 20.2 16.1 Q20.75 14.55 20.25 13.45 L20.25 13.4 19.8 13.3 Q20.25 15.0 19.55 16.15 L17.95 18.35 Q17.1 19.35 15.55 19.45 L15.55 19.5 15.45 20.0 Q15.35 20.4 15.5 20.6 L15.65 21.05 15.65 21.35 15.6 22.0 15.0 22.4 14.25 22.65 14.1 23.15 14.05 23.1 13.7 24.05 13.25 24.05 12.2 23.8 11.25 23.4 10.1 22.9 10.1 22.85 10.1 22.55 10.1 22.5 10.25 22.0 10.45 21.55 10.45 21.4 10.75 21.0 10.8 20.85 11.0 20.7 12.4 20.4 12.7 20.35 12.65 20.15 12.85 19.7 11.95 18.95 11.9 18.95 11.7 19.05 Q11.4 19.15 11.4 19.2 L11.4 19.5 11.35 19.95 10.75 20.5 10.05 20.8 9.7 21.7 Q9.6 22.05 9.0 22.1 L7.45 21.55 Q6.45 21.15 6.6 20.95 7.0 19.85 7.9 19.35 8.55 19.0 9.7 18.85 L9.65 18.6 9.9 18.3 Q9.45 17.55 9.85 16.5 L9.2 16.2 Q8.45 15.9 8.05 15.6 L7.9 15.4 7.7 15.45 7.6 15.55 7.4 15.65 Q7.1 15.75 6.85 16.05 6.45 16.4 6.2 16.9 L6.15 17.15 6.1 17.4 6.05 17.55 6.0 18.0 6.0 18.25 5.95 18.7 5.35 19.15 4.55 19.35 4.3 20.1 4.35 20.15 4.15 20.8 3.55 20.75 2.75 20.6 2.6 20.5 1.6 20.1 0.45 19.65 0.45 19.6 0.45 19.3 0.45 19.15 0.55 18.8 0.6 18.7 0.65 18.5 0.95 17.8 1.05 17.75 0.6 16.25 Q0.2 14.5 0.35 14.05 0.45 13.7 1.5 12.9 L2.55 12.0 3.85 10.05 3.85 10.15 3.9 10.05 4.05 9.55 4.15 9.5 4.25 9.3 4.55 8.95 4.55 8.75 4.65 8.75 4.7 8.7 4.8 8.0 4.45 8.15 3.6 8.65 Q2.45 9.4 1.95 9.3 L1.15 8.8 0.95 8.35 1.05 7.95 0.45 8.0 Q-0.45 7.65 -1.05 7.05 L-1.1 6.95 Q-1.6 6.35 -1.45 5.35 -1.3 4.3 0.05 2.75 L1.55 1.3 1.85 1.15 2.0 1.0 2.1 0.75 2.4 0.25 Q1.7 0.0 1.4 -0.55 L1.65 -0.4 2.55 -0.35 3.1 -0.55 4.55 -1.2 M4.15 14.5 L4.1 13.95 3.5 14.15 Q2.8 14.5 2.65 14.9 2.6 15.1 3.2 15.75 L3.65 16.2 3.8 16.05 3.9 15.95 4.15 14.5" fill="#000000" fill-rule="evenodd" stroke="none"/>
    <path d="M4.55 -1.2 L3.1 -0.55 2.55 -0.35 1.65 -0.4 1.4 -0.55 Q1.7 0.0 2.4 0.25 L2.1 0.75 2.0 1.0 1.85 1.15 1.55 1.3 0.05 2.75 Q-1.3 4.3 -1.45 5.35 -1.6 6.35 -1.1 6.95 L-1.05 7.05 Q-0.45 7.65 0.45 8.0 L1.05 7.95 0.95 8.35 1.15 8.8 1.95 9.3 Q2.45 9.4 3.6 8.65 L4.45 8.15 4.8 8.0 4.7 8.7 4.65 8.75 4.55 8.75 4.55 8.95 4.25 9.3 4.15 9.5 4.05 9.55 3.9 10.05 3.85 10.15 3.85 10.05 2.55 12.0 1.5 12.9 Q0.45 13.7 0.35 14.05 0.2 14.5 0.6 16.25 L1.05 17.75 0.95 17.8 0.65 18.5 0.6 18.7 0.55 18.8 0.45 19.15 0.45 19.3 0.45 19.6 0.45 19.65 1.6 20.1 2.6 20.5 2.75 20.6 3.55 20.75 4.15 20.8 4.35 20.15 4.3 20.1 4.55 19.35 5.35 19.15 5.95 18.7 6.0 18.25 6.0 18.0 6.05 17.55 6.1 17.4 6.15 17.15 6.2 16.9 Q6.45 16.4 6.85 16.05 7.1 15.75 7.4 15.65 L7.6 15.55 7.7 15.45 7.9 15.4 8.05 15.6 Q8.45 15.9 9.2 16.2 L9.85 16.5 Q9.45 17.55 9.9 18.3 L9.65 18.6 9.7 18.85 Q8.55 19.0 7.9 19.35 7.0 19.85 6.6 20.95 6.45 21.15 7.45 21.55 L9.0 22.1 Q9.6 22.05 9.7 21.7 L10.05 20.8 10.75 20.5 11.35 19.95 11.4 19.5 11.4 19.2 Q11.4 19.15 11.7 19.05 L11.9 18.95 11.95 18.95 12.85 19.7 12.65 20.15 12.7 20.35 12.4 20.4 11.0 20.7 10.8 20.85 10.75 21.0 10.45 21.4 10.45 21.55 10.25 22.0 10.1 22.5 10.1 22.55 10.1 22.85 10.1 22.9 11.25 23.4 12.2 23.8 13.25 24.05 13.7 24.05 14.05 23.1 14.1 23.15 14.25 22.65 15.0 22.4 15.6 22.0 15.65 21.35 15.65 21.05 15.5 20.6 Q15.35 20.4 15.45 20.0 L15.55 19.5 15.55 19.45 Q17.1 19.35 17.95 18.35 L19.55 16.15 Q20.25 15.0 19.8 13.3 L20.25 13.4 20.25 13.45 Q20.75 14.55 20.2 16.1 L19.4 17.6 18.7 18.9 Q17.65 21.85 20.3 22.8 L22.05 22.6 23.3 21.6 23.45 21.05 23.45 20.7 23.25 19.95 Q23.3 20.7 22.9 20.9 L22.1 20.9 Q20.8 20.45 21.4 18.75 21.6 18.1 22.35 16.95 L23.2 15.6 Q23.6 14.45 23.35 13.2 23.05 11.7 21.95 11.3 21.5 11.15 20.55 11.3 19.55 11.5 19.25 11.85 19.05 11.35 18.65 11.0 L18.55 10.9 Q18.0 10.35 17.3 10.1 L17.2 10.1 15.8 9.85 14.45 10.05 Q11.75 9.2 11.15 8.1 L10.85 7.6 10.95 7.0 11.05 6.2 11.0 4.25 Q10.85 2.2 9.65 0.65 L9.6 0.55 Q8.9 -0.3 7.8 -0.65 L7.5 -0.75 6.55 -1.0 6.35 -1.3 6.3 -1.45 6.15 -1.55 5.1 -2.8 5.0 -2.7 4.8 -2.15 4.55 -1.2" fill="none" stroke="#000000" stroke-linecap="round" stroke-linejoin="round" stroke-width="2.0"/>
    <path d="M4.15 14.5 L3.9 15.95 3.8 16.05 3.65 16.2 3.2 15.75 Q2.6 15.1 2.65 14.9 2.8 14.5 3.5 14.15 L4.1 13.95 4.15 14.5" fill="none" stroke="#000000" stroke-linecap="round" stroke-linejoin="round" stroke-width="1.0"/>
    <path d="M1.65 -0.4 L1.9 -0.25 2.4 -0.05 2.75 0.05 3.15 0.0 3.1 0.05 Q2.7 0.2 2.5 0.9 2.4 1.15 2.45 1.4 L2.55 1.8 2.75 1.4 3.1 1.2 3.3 1.75 3.65 2.2 Q3.5 1.9 3.65 1.4 3.85 0.75 4.3 0.4 L4.3 0.6 4.3 0.9 3.9 1.5 3.9 2.2 4.05 2.7 Q3.1 2.5 2.95 1.85 L2.8 1.9 2.75 2.3 3.0 3.05 2.25 2.15 2.2 2.1 Q1.95 1.55 2.0 1.0 L2.1 0.75 2.4 0.25 Q1.7 0.0 1.4 -0.55 L1.65 -0.4 M6.55 -1.0 L7.05 -0.85 7.75 -0.3 Q8.05 -0.05 7.85 0.55 L7.65 1.1 Q7.4 1.8 7.55 2.3 L8.15 3.4 8.05 2.55 Q9.1 3.25 9.65 4.35 L9.7 4.5 9.9 4.8 Q10.45 6.15 10.05 7.25 L9.6 8.15 9.7 7.0 9.65 7.1 9.5 7.8 8.95 9.15 9.5 8.6 9.5 8.65 Q9.4 9.5 9.6 10.5 9.7 11.1 9.4 12.0 L9.15 12.25 8.9 12.4 8.3 13.0 8.8 12.1 9.0 10.6 Q8.95 9.85 9.05 9.4 L8.85 9.85 8.5 10.7 Q8.4 10.0 8.8 8.9 L9.1 8.0 9.05 8.0 9.15 7.75 8.65 8.2 8.55 8.2 8.8 7.85 8.85 7.7 8.95 7.5 8.95 7.45 9.25 5.8 9.25 5.7 9.25 5.3 Q9.15 4.35 8.35 3.25 L8.4 3.4 8.55 5.05 8.55 5.1 8.45 5.05 8.45 5.0 8.35 4.35 8.3 4.1 8.1 3.75 7.6 3.0 Q7.1 2.6 7.1 2.15 L7.4 0.85 7.45 0.0 7.25 -0.2 6.55 -1.0 M23.45 21.05 L23.3 21.6 22.05 22.6 20.3 22.8 Q17.65 21.85 18.7 18.9 L19.4 17.6 20.2 16.1 Q20.75 14.55 20.25 13.45 L20.25 13.4 19.8 13.3 19.75 12.95 19.6 12.5 19.95 12.45 20.5 12.5 Q21.25 12.8 21.35 13.75 21.5 14.45 21.25 15.2 L20.25 17.1 19.15 19.3 Q18.85 20.2 19.05 20.95 19.3 21.75 20.15 22.05 L22.0 21.9 23.45 21.05" fill="#c3a668" fill-rule="evenodd" stroke="none"/>
    <path d="M4.3 0.4 Q3.85 0.75 3.65 1.4 3.5 1.9 3.65 2.2 L3.3 1.75 3.1 1.2 2.75 1.4 2.55 1.8 2.45 1.4 Q2.4 1.15 2.5 0.9 2.7 0.2 3.1 0.05 L3.15 0.0 2.75 0.05 2.4 -0.05 1.9 -0.25 1.65 -0.4 2.55 -0.35 2.85 -0.25 3.35 -0.2 3.95 -0.35 3.7 -0.15 3.65 0.15 Q3.4 0.85 3.5 1.05 L4.4 -0.25 4.4 0.0 4.3 0.4 M7.05 -0.85 L7.5 -0.75 7.8 -0.65 Q8.15 -0.25 8.1 0.45 L7.95 1.95 7.95 2.0 8.25 1.35 Q9.25 2.35 9.75 3.75 L9.8 3.65 9.85 3.8 10.35 5.25 Q10.7 7.4 9.95 9.4 L10.25 8.9 10.4 8.65 10.05 9.65 Q9.8 10.5 9.95 11.15 L9.95 11.2 9.95 11.25 9.4 12.0 Q9.7 11.1 9.6 10.5 9.4 9.5 9.5 8.65 L9.5 8.6 8.95 9.15 9.5 7.8 9.65 7.1 9.7 7.0 9.6 8.15 10.05 7.25 Q10.45 6.15 9.9 4.8 L9.7 4.5 9.65 4.35 Q9.1 3.25 8.05 2.55 L8.15 3.4 7.55 2.3 Q7.4 1.8 7.65 1.1 L7.85 0.55 Q8.05 -0.05 7.75 -0.3 L7.05 -0.85 M23.45 20.7 L23.45 21.05 22.0 21.9 20.15 22.05 Q19.3 21.75 19.05 20.95 18.85 20.2 19.15 19.3 L20.25 17.1 21.25 15.2 Q21.5 14.45 21.35 13.75 21.25 12.8 20.5 12.5 L19.95 12.45 19.6 12.5 19.35 12.05 19.6 11.8 19.85 11.75 20.0 11.75 20.1 11.7 21.65 12.2 Q22.15 12.4 21.9 14.15 L21.35 16.3 Q21.9 16.2 22.25 15.2 L22.35 14.4 22.4 14.25 22.3 15.35 21.25 17.05 Q20.4 18.25 20.05 19.25 L19.85 20.25 20.1 21.1 20.15 20.85 20.3 19.95 20.35 19.75 Q20.3 20.25 20.6 20.75 20.9 21.3 21.45 21.5 L22.55 21.2 23.45 20.7" fill="#ded1b3" fill-rule="evenodd" stroke="none"/>
    <path d="M4.3 0.4 L4.4 0.0 4.4 -0.25 4.55 -1.2 4.8 -2.15 5.0 -2.7 5.95 -0.15 6.1 0.3 6.2 0.55 6.2 0.7 6.2 0.75 Q6.05 1.1 5.55 1.2 L4.7 1.1 4.3 0.9 4.3 0.6 4.3 0.4" fill="#af817a" fill-rule="evenodd" stroke="none"/>
    <path d="M4.4 -0.25 L3.5 1.05 Q3.4 0.85 3.65 0.15 L3.7 -0.15 3.95 -0.35 3.35 -0.2 2.85 -0.25 2.55 -0.35 3.1 -0.55 4.55 -1.2 4.4 -0.25 M7.8 -0.65 Q8.9 -0.3 9.6 0.55 L9.65 0.65 Q10.85 2.2 11.0 4.25 L11.05 6.2 10.95 7.0 10.85 7.6 10.45 9.75 9.95 11.15 Q9.8 10.5 10.05 9.65 L10.4 8.65 10.25 8.9 9.95 9.4 Q10.7 7.4 10.35 5.25 L9.85 3.8 9.8 3.65 9.75 3.75 Q9.25 2.35 8.25 1.35 L7.95 2.0 7.95 1.95 8.1 0.45 Q8.15 -0.25 7.8 -0.65 M19.25 11.85 Q19.55 11.5 20.55 11.3 21.5 11.15 21.95 11.3 23.05 11.7 23.35 13.2 23.6 14.45 23.2 15.6 L22.35 16.95 Q21.6 18.1 21.4 18.75 20.8 20.45 22.1 20.9 L22.9 20.9 Q23.3 20.7 23.25 19.95 L23.45 20.7 22.55 21.2 21.45 21.5 Q20.9 21.3 20.6 20.75 20.3 20.25 20.35 19.75 L20.3 19.95 20.15 20.85 20.1 21.1 19.85 20.25 20.05 19.25 Q20.4 18.25 21.25 17.05 L22.3 15.35 22.4 14.25 22.35 14.4 22.25 15.2 Q21.9 16.2 21.35 16.3 L21.9 14.15 Q22.15 12.4 21.65 12.2 L20.1 11.7 20.0 11.75 19.85 11.75 19.6 11.8 19.35 12.05 19.25 11.85" fill="#ede6d6" fill-rule="evenodd" stroke="none"/>
    <path d="M2.2 2.1 L2.25 2.15 3.0 3.05 2.75 2.3 2.8 1.9 2.95 1.85 Q3.1 2.5 4.05 2.7 L3.9 2.2 3.9 1.5 4.3 0.9 4.7 1.1 5.55 1.2 Q6.05 1.1 6.2 0.75 L6.2 0.7 6.2 0.55 6.1 0.3 5.95 -0.15 5.0 -2.7 5.1 -2.8 6.15 -1.55 6.3 -1.45 6.35 -1.3 6.5 -0.75 6.85 0.1 6.9 1.0 6.7 2.1 Q6.6 2.8 7.35 3.7 L8.45 5.0 8.45 5.05 8.55 5.1 8.55 5.05 8.4 3.4 8.35 3.25 Q9.15 4.35 9.25 5.3 L9.25 5.7 9.25 5.8 8.95 7.45 8.95 7.5 8.85 7.7 8.8 7.85 8.55 8.2 8.65 8.2 9.15 7.75 9.05 8.0 9.1 8.0 8.8 8.9 Q8.4 10.0 8.5 10.7 L8.85 9.85 9.05 9.4 Q8.95 9.85 9.0 10.6 L8.8 12.1 8.3 13.0 8.9 12.4 9.15 12.25 9.4 12.0 9.95 11.25 9.95 11.2 11.05 11.9 12.65 12.45 14.3 13.1 15.35 13.85 16.3 14.55 Q16.65 14.65 17.05 14.2 L17.6 13.3 17.55 11.5 17.2 10.1 17.3 10.1 Q18.0 10.35 18.55 10.9 L18.65 11.0 19.05 12.75 Q19.15 13.65 18.8 14.6 18.25 16.2 16.85 17.15 15.2 18.25 13.75 17.75 13.2 17.55 12.95 17.05 12.7 16.6 12.9 16.15 L13.15 15.7 13.7 15.35 12.8 15.55 12.7 15.6 12.2 15.6 12.75 15.4 12.55 15.35 11.8 15.45 10.95 15.55 9.3 15.35 8.5 14.95 8.75 14.75 8.95 14.55 9.05 14.3 8.9 14.35 8.85 14.4 7.45 14.75 6.15 14.85 Q5.85 14.75 4.7 13.65 L4.05 12.35 4.2 11.05 Q4.45 10.35 5.55 9.9 L6.8 8.85 7.05 7.9 7.1 7.85 7.3 7.75 Q7.95 7.3 8.2 6.5 L8.25 5.55 8.15 5.1 8.1 5.0 8.05 4.95 7.6 4.2 6.85 3.75 6.5 3.7 Q6.9 4.65 6.55 5.9 L5.9 6.7 4.9 6.75 4.4 6.5 4.0 6.15 3.95 6.25 Q3.8 6.75 4.0 7.4 4.15 8.0 4.45 8.15 L3.6 8.65 Q2.45 9.4 1.95 9.3 L1.15 8.8 0.95 8.35 2.1 7.95 3.05 7.4 3.05 7.3 2.95 6.95 2.8 6.95 2.75 7.1 2.75 7.15 1.95 7.8 1.1 8.0 1.05 7.95 0.45 8.0 Q-0.45 7.65 -1.05 7.05 L-1.1 6.95 -1.1 6.7 -1.0 5.9 Q-0.55 4.35 2.2 2.1 M6.0 18.25 L5.95 18.7 5.35 19.15 4.55 19.35 4.5 19.6 4.25 19.8 3.95 20.15 3.85 19.3 3.9 19.25 3.1 19.4 2.95 19.4 Q3.25 19.35 3.55 19.1 L4.35 18.2 4.45 17.7 Q4.35 17.45 4.0 17.3 L3.45 17.25 2.95 17.1 3.0 17.05 3.0 16.9 Q3.75 16.6 4.55 16.9 L5.75 17.65 5.95 18.1 6.0 18.25 M5.2 4.6 L5.15 3.85 4.75 3.3 4.4 3.15 4.15 3.05 3.85 3.1 Q3.5 3.15 3.35 3.45 L3.2 3.65 3.15 4.0 Q3.05 4.35 3.25 4.7 L3.9 5.35 4.65 5.25 5.2 4.6 M0.45 6.1 L0.1 5.85 0.15 6.55 Q0.05 6.85 -0.35 6.8 L0.15 6.85 0.45 6.45 0.45 6.1 M6.85 11.0 L6.8 10.95 6.15 10.5 5.55 10.5 Q5.05 10.65 4.85 11.25 4.6 11.85 4.9 12.75 5.3 13.75 6.35 14.1 L7.3 14.1 Q8.05 13.95 8.2 13.65 8.4 13.1 7.9 12.1 L7.55 11.6 6.85 11.0" fill="#9e4729" fill-rule="evenodd" stroke="none"/>
    <path d="M6.35 -1.3 L6.55 -1.0 7.25 -0.2 7.45 0.0 7.4 0.85 7.1 2.15 Q7.1 2.6 7.6 3.0 L8.1 3.75 8.3 4.1 8.35 4.35 8.45 5.0 7.35 3.7 Q6.6 2.8 6.7 2.1 L6.9 1.0 6.85 0.1 6.5 -0.75 6.35 -1.3 M18.65 11.0 Q19.05 11.35 19.25 11.85 L19.35 12.05 19.6 12.5 19.75 12.95 19.8 13.3 Q20.25 15.0 19.55 16.15 L17.95 18.35 Q17.1 19.35 15.55 19.45 L15.55 19.5 15.45 20.0 Q15.35 20.4 15.5 20.6 L15.65 21.05 15.65 21.35 15.6 22.0 15.0 22.4 14.25 22.65 14.1 23.15 14.05 23.1 13.95 23.35 13.8 23.0 13.3 22.5 13.05 23.05 13.0 23.0 Q13.0 22.4 12.65 22.1 L12.45 22.4 12.1 22.6 12.3 21.75 11.7 21.85 11.25 22.1 11.65 21.5 Q12.0 21.2 12.6 21.0 L13.7 20.7 Q14.15 19.35 12.85 18.55 11.6 17.85 12.05 16.55 L12.7 15.6 12.8 15.55 13.7 15.35 13.15 15.7 12.9 16.15 Q12.7 16.6 12.95 17.05 13.2 17.55 13.75 17.75 15.2 18.25 16.85 17.15 18.25 16.2 18.8 14.6 19.15 13.65 19.05 12.75 L18.65 11.0 M7.7 15.45 L7.6 15.55 7.4 15.65 6.3 15.7 Q5.75 15.75 5.55 16.4 5.45 16.65 5.75 17.0 L6.1 17.4 6.05 17.55 6.0 18.0 6.0 18.25 5.95 18.1 5.75 17.65 4.55 16.9 Q3.75 16.6 3.0 16.9 2.95 16.6 3.3 16.4 L3.45 16.3 3.5 16.25 3.7 16.25 3.8 16.2 Q4.45 16.05 4.65 15.6 4.8 15.2 4.45 14.45 L4.2 13.9 4.0 13.55 4.0 13.4 4.05 12.35 4.7 13.65 Q5.85 14.75 6.15 14.85 L7.45 14.75 8.85 14.4 8.3 14.95 7.7 15.45" fill="#803422" fill-rule="evenodd" stroke="none"/>
    <path d="M10.85 7.6 L11.15 8.1 Q11.75 9.2 14.45 10.05 L15.8 9.85 17.2 10.1 17.55 11.5 17.6 13.3 17.05 14.2 Q16.65 14.65 16.3 14.55 L15.35 13.85 14.3 13.1 12.65 12.45 11.05 11.9 9.95 11.2 9.95 11.15 10.45 9.75 10.85 7.6 M0.95 17.8 L1.05 17.75 1.35 17.5 2.95 17.1 3.45 17.25 4.0 17.3 Q4.35 17.45 4.45 17.7 L4.35 18.2 3.55 19.1 Q3.25 19.35 2.95 19.4 L2.5 19.4 2.35 19.45 2.35 19.4 2.9 19.0 2.9 18.95 2.8 18.9 1.4 18.95 1.45 18.85 1.9 18.3 1.75 18.25 1.3 18.3 0.75 18.55 0.9 18.25 1.0 18.0 0.95 17.8 M4.8 8.0 L4.45 8.15 Q4.15 8.0 4.0 7.4 3.8 6.75 3.95 6.25 L4.0 6.15 4.4 6.5 4.9 6.75 5.9 6.7 6.55 5.9 Q6.9 4.65 6.5 3.7 L6.85 3.75 7.6 4.2 8.05 4.95 8.0 4.9 7.95 6.15 Q7.7 6.85 7.0 7.25 6.35 7.75 5.3 7.85 L5.25 7.85 Q5.05 7.8 4.8 8.0 M6.85 11.0 L7.55 11.6 7.9 12.1 Q8.4 13.1 8.2 13.65 8.05 13.95 7.3 14.1 L6.35 14.1 Q5.3 13.75 4.9 12.75 4.6 11.85 4.85 11.25 5.05 10.65 5.55 10.5 L6.15 10.5 6.8 10.95 6.85 11.0" fill="#a75130" fill-rule="evenodd" stroke="none"/>
    <path d="M5.2 4.6 L4.65 5.25 3.9 5.35 3.25 4.7 Q3.05 4.35 3.15 4.0 L3.2 3.65 3.35 3.45 Q3.5 3.15 3.85 3.1 L4.15 3.05 4.4 3.15 4.75 3.3 5.15 3.85 5.2 4.6 M4.45 3.55 L4.4 3.45 4.25 3.4 3.95 3.35 3.8 3.35 3.45 3.75 3.45 4.3 3.45 4.45 3.95 4.9 Q4.6 5.1 4.85 4.4 L4.85 4.3 4.8 3.9 4.65 3.7 4.5 3.55 4.45 3.55 M4.45 3.8 L4.5 3.85 4.5 4.0 4.45 4.05 4.0 4.35 3.8 4.2 3.75 4.15 3.75 3.75 3.9 3.55 4.0 3.5 4.15 3.55 4.25 3.6 4.3 3.6 4.45 3.8" fill="#ffffff" fill-rule="evenodd" stroke="none"/>
    <path d="M10.75 21.0 L10.8 20.85 11.0 20.7 12.4 20.4 12.7 20.35 12.65 20.15 12.85 19.7 11.95 18.95 11.9 18.95 11.8 18.85 11.8 18.8 11.5 18.3 11.3 17.0 Q11.35 16.2 11.8 15.75 L12.15 15.65 11.8 15.45 12.55 15.35 12.75 15.4 12.2 15.6 12.7 15.6 12.05 16.55 Q11.6 17.85 12.85 18.55 14.15 19.35 13.7 20.7 L12.6 21.0 Q12.0 21.2 11.65 21.5 L10.65 21.75 10.75 21.2 10.75 21.0 M7.4 15.65 Q7.1 15.75 6.85 16.05 6.45 16.4 6.2 16.9 L6.15 17.15 6.1 17.4 5.75 17.0 Q5.45 16.65 5.55 16.4 5.75 15.75 6.3 15.7 L7.4 15.65 M4.7 8.7 L4.8 8.0 Q5.05 7.8 5.25 7.85 L5.3 7.85 Q6.35 7.75 7.0 7.25 7.7 6.85 7.95 6.15 L8.0 4.9 8.05 4.95 8.1 5.0 8.15 5.1 8.25 5.55 8.2 6.5 Q7.95 7.3 7.3 7.75 L7.1 7.85 7.05 7.9 6.75 7.95 6.2 8.15 6.15 8.2 6.05 8.15 Q5.1 8.5 4.7 8.75 L4.7 8.7 M0.95 8.35 L1.05 7.95 1.1 8.0 1.95 7.8 2.75 7.15 2.75 7.1 2.8 6.95 2.95 6.95 3.05 7.3 3.05 7.4 2.1 7.95 0.95 8.35 M0.45 6.1 L0.45 6.45 0.15 6.85 -0.35 6.8 Q0.05 6.85 0.15 6.55 L0.1 5.85 0.45 6.1 M3.65 16.2 L3.8 16.05 3.9 15.95 4.15 14.5 4.1 13.95 4.0 13.55 4.2 13.9 4.45 14.45 Q4.8 15.2 4.65 15.6 4.45 16.05 3.8 16.2 L3.7 16.25 3.5 16.25 3.65 16.2" fill="#793120" fill-rule="evenodd" stroke="none"/>
    <path d="M2.0 1.0 Q1.95 1.55 2.2 2.1 -0.55 4.35 -1.0 5.9 L-1.1 6.7 -1.1 6.95 Q-1.6 6.35 -1.45 5.35 -1.3 4.3 0.05 2.75 L1.55 1.3 1.85 1.15 2.0 1.0" fill="#cc583c" fill-rule="evenodd" stroke="none"/>
    <path d="M4.45 3.55 L4.5 3.55 4.65 3.7 4.8 3.9 4.85 4.3 4.85 4.4 Q4.6 5.1 3.95 4.9 L3.45 4.45 3.45 4.3 3.45 3.75 3.8 3.35 3.95 3.35 4.25 3.4 4.4 3.45 4.45 3.55 M4.45 3.8 L4.3 3.6 4.25 3.6 4.15 3.55 4.0 3.5 3.9 3.55 3.75 3.75 3.75 4.15 3.8 4.2 4.0 4.35 4.45 4.05 4.5 4.0 4.5 3.85 4.45 3.8" fill="#000000" fill-rule="evenodd" stroke="none"/>
    <path d="M3.85 10.15 L3.9 10.05 4.05 9.55 4.15 9.5 4.25 9.3 4.55 8.95 4.55 8.75 4.65 8.75 4.7 8.7 4.7 8.75 Q5.1 8.5 6.05 8.15 L6.15 8.2 6.2 8.15 6.75 7.95 7.05 7.9 6.8 8.85 5.55 9.9 Q4.45 10.35 4.2 11.05 L4.05 12.35 4.0 13.4 3.95 12.95 Q3.5 11.15 3.85 10.15" fill="#8d3925" fill-rule="evenodd" stroke="none"/>
    <path d="M11.9 18.95 L11.7 19.05 Q11.4 19.15 11.4 19.2 L11.4 19.5 11.35 19.95 10.75 20.5 10.05 20.8 9.7 21.7 Q9.6 22.05 9.0 22.1 L7.45 21.55 Q6.45 21.15 6.6 20.95 7.0 19.85 7.9 19.35 8.55 19.0 9.7 18.85 L9.65 18.6 9.9 18.3 Q9.45 17.55 9.85 16.5 L10.35 16.65 10.45 16.7 10.95 16.85 11.3 17.0 11.5 18.3 11.8 18.8 11.8 18.85 11.9 18.95 M1.05 17.75 L0.6 16.25 Q0.2 14.5 0.35 14.05 0.45 13.7 1.5 12.9 L2.55 12.0 3.85 10.05 3.85 10.15 Q3.5 11.15 3.95 12.95 L4.0 13.4 4.0 13.55 4.1 13.95 3.5 14.15 Q2.8 14.5 2.65 14.9 2.6 15.1 3.2 15.75 L3.65 16.2 3.5 16.25 3.45 16.3 3.3 16.4 Q2.95 16.6 3.0 16.9 L3.0 17.05 2.95 17.1 1.35 17.5 1.05 17.75" fill="#6e1302" fill-rule="evenodd" stroke="none"/>
    <path d="M9.85 16.5 L9.2 16.2 Q8.45 15.9 8.05 15.6 L7.9 15.4 7.7 15.45 8.3 14.95 8.85 14.4 8.9 14.35 9.05 14.3 8.95 14.55 8.75 14.75 8.5 14.95 9.3 15.35 10.95 15.55 11.8 15.45 12.15 15.65 11.8 15.75 Q11.35 16.2 11.3 17.0 L10.95 16.85 10.45 16.7 10.35 16.65 9.85 16.5" fill="#731802" fill-rule="evenodd" stroke="none"/>
    <path d="M13.95 23.35 L13.85 23.55 13.4 22.75 12.95 23.4 12.85 22.95 12.7 22.5 11.9 22.8 12.05 22.05 12.1 21.95 10.9 22.35 11.0 22.15 11.3 21.75 11.3 21.7 Q10.7 21.8 10.45 22.15 L10.45 21.55 10.45 21.4 10.75 21.0 10.75 21.2 10.65 21.75 11.65 21.5 11.25 22.1 11.7 21.85 12.3 21.75 12.1 22.6 12.45 22.4 12.65 22.1 Q13.0 22.4 13.0 23.0 L13.05 23.05 13.3 22.5 13.8 23.0 13.95 23.35 M4.5 19.6 L4.35 19.95 3.85 20.45 Q3.6 20.15 3.7 19.6 L2.0 19.6 2.0 19.5 2.45 19.05 1.8 19.0 1.1 19.25 1.1 19.1 1.3 18.8 1.55 18.5 1.05 18.65 Q0.75 18.75 0.6 18.95 L0.6 18.7 0.65 18.5 0.95 17.8 1.0 18.0 0.9 18.25 0.75 18.55 1.3 18.3 1.75 18.25 1.9 18.3 1.45 18.85 1.4 18.95 2.8 18.9 2.9 18.95 2.9 19.0 2.35 19.4 2.35 19.45 2.5 19.4 2.95 19.4 3.1 19.4 3.9 19.25 3.85 19.3 3.95 20.15 4.25 19.8 4.5 19.6" fill="#2b2b2b" fill-rule="evenodd" stroke="none"/>
    <path d="M13.85 23.55 L13.7 24.05 13.25 24.05 12.2 23.8 11.25 23.4 10.1 22.9 10.1 22.85 10.1 22.55 10.1 22.5 10.25 22.0 10.45 21.55 10.45 22.15 Q10.7 21.8 11.3 21.7 L11.3 21.75 11.0 22.15 10.9 22.35 12.1 21.95 12.05 22.05 11.9 22.8 12.7 22.5 12.85 22.95 12.95 23.4 13.4 22.75 13.85 23.55 M4.35 19.95 L4.3 20.1 4.35 20.15 4.15 20.8 3.55 20.75 2.75 20.6 2.6 20.5 1.6 20.1 0.45 19.65 0.45 19.6 0.45 19.3 0.45 19.15 0.55 18.8 0.6 18.7 0.6 18.95 Q0.75 18.75 1.05 18.65 L1.55 18.5 1.3 18.8 1.1 19.1 1.1 19.25 1.8 19.0 2.45 19.05 2.0 19.5 2.0 19.6 3.7 19.6 Q3.6 20.15 3.85 20.45 L4.35 19.95" fill="#aeaeae" fill-rule="evenodd" stroke="none"/>
  </g>
</svg>
