<?xml version="1.0" encoding="UTF-8" standalone="no"?>
<svg xmlns:xlink="http://www.w3.org/1999/xlink" height="481.75px" width="699.95px" xmlns="http://www.w3.org/2000/svg">
  <g transform="matrix(1.0, 0.0, 0.0, 1.0, -1.85, -84.75)">
    <path d="M656.2 104.65 L654.7 105.05 652.9 105.55 652.6 104.35 651.8 103.3 Q647.15 105.0 644.2 104.45 L641.85 103.8 640.25 103.15 640.5 103.1 642.95 102.85 645.05 102.35 Q647.9 101.2 649.1 99.3 650.4 97.35 649.75 95.1 649.4 93.75 648.05 92.8 646.7 91.8 644.9 91.5 L642.1 91.35 641.3 91.5 643.2 90.6 644.6 90.4 Q647.15 90.2 650.0 91.75 652.9 93.3 653.4 95.4 654.0 97.95 653.0 100.25 653.9 100.55 654.95 101.75 655.8 102.95 656.2 104.65 M619.85 98.25 L620.85 99.8 Q617.85 100.65 616.2 102.85 614.55 105.05 615.65 107.55 L614.75 106.55 Q614.25 105.95 614.1 105.35 613.45 102.95 616.35 100.4 617.8 99.15 619.3 98.5 L619.85 98.25" fill="#dde7e6" fill-rule="evenodd" stroke="none"/>
    <path d="M644.6 90.4 L643.2 90.6 641.3 91.5 642.1 91.35 644.9 91.5 Q646.7 91.8 648.05 92.8 649.4 93.75 649.75 95.1 650.4 97.35 649.1 99.3 647.9 101.2 645.05 102.35 L642.95 102.85 640.5 103.1 640.25 103.15 641.85 103.8 644.2 104.45 Q647.15 105.0 651.8 103.3 L652.6 104.35 652.9 105.55 654.7 105.05 656.2 104.65 Q660.75 104.35 664.1 105.9 667.8 107.6 668.8 111.05 669.55 113.7 667.75 116.7 666.95 118.2 664.35 121.0 667.45 119.3 669.6 117.25 L669.65 117.25 669.7 117.2 669.75 117.15 670.45 116.35 671.8 114.55 Q672.45 113.6 672.75 112.35 675.05 112.5 677.0 113.7 L678.55 114.95 Q679.4 115.75 679.7 116.8 681.25 122.35 669.35 128.55 662.75 131.85 655.75 134.0 L653.35 134.15 Q648.45 134.6 644.55 134.35 632.15 133.85 630.55 128.25 629.85 125.65 631.15 123.95 631.9 122.95 634.35 120.8 631.65 121.6 629.65 124.4 628.7 125.7 628.3 126.8 623.2 127.35 618.75 125.1 620.35 126.9 622.7 127.85 624.9 128.7 627.9 128.95 L628.0 129.4 624.6 131.3 Q622.4 132.5 620.75 132.9 613.95 134.65 608.55 132.95 602.15 130.95 600.4 124.65 599.65 122.1 599.9 119.05 600.15 115.95 601.35 114.55 L602.85 115.95 605.05 117.45 Q604.8 117.0 604.1 114.55 602.5 108.8 604.35 104.65 606.5 100.0 612.75 98.4 L614.35 98.1 617.55 97.8 619.3 98.5 Q617.8 99.15 616.35 100.4 613.45 102.95 614.1 105.35 614.25 105.95 614.75 106.55 L615.65 107.55 Q614.55 105.05 616.2 102.85 617.85 100.65 620.85 99.8 L619.85 98.25 619.4 97.15 Q618.8 92.85 622.55 89.2 625.6 86.4 629.8 85.3 634.1 84.2 638.25 85.25 642.95 86.45 644.45 90.05 L644.6 90.4" fill="#ffffff" fill-rule="evenodd" stroke="none"/>
    <path d="M617.55 97.8 L614.35 98.1 612.75 98.4 Q606.5 100.0 604.35 104.65 602.5 108.8 604.1 114.55 604.8 117.0 605.05 117.45 L602.85 115.95 601.35 114.55 Q600.15 115.95 599.9 119.05 599.65 122.1 600.4 124.65 602.15 130.95 608.55 132.95 613.95 134.65 620.75 132.9 622.4 132.5 624.6 131.3 L628.0 129.4 627.9 128.95 Q624.9 128.7 622.7 127.85 620.35 126.9 618.75 125.1 623.2 127.35 628.3 126.8 628.7 125.7 629.65 124.4 631.65 121.6 634.35 120.8 631.9 122.95 631.15 123.95 629.85 125.65 630.55 128.25 632.15 133.85 644.55 134.35 648.45 134.6 653.35 134.15 L655.75 134.0 Q662.75 131.85 669.35 128.55 681.25 122.35 679.7 116.8 679.4 115.75 678.55 114.95 L677.0 113.7 Q675.05 112.5 672.75 112.35 672.45 113.6 671.8 114.55 L670.45 116.35 669.95 116.9 669.75 117.15 669.7 117.2 669.65 117.25 669.6 117.25 Q667.45 119.3 664.35 121.0 666.95 118.2 667.75 116.7 669.55 113.7 668.8 111.05 667.8 107.6 664.1 105.9 660.75 104.35 656.2 104.65 663.05 103.0 666.15 103.45 670.55 104.15 672.35 108.55 672.8 109.7 672.8 111.5 677.65 111.85 680.05 113.4 683.6 115.7 683.7 118.5 683.85 123.2 673.95 128.3 666.85 131.95 659.3 133.85 652.5 135.65 646.45 136.15 L641.7 136.25 Q630.8 136.15 629.1 131.75 L626.65 133.5 624.0 135.1 621.35 136.2 616.85 137.2 607.35 136.85 Q601.25 135.85 597.9 130.6 595.65 127.05 596.3 122.05 597.0 116.75 601.0 114.1 600.1 113.0 599.8 111.7 598.2 106.25 601.75 102.4 604.6 99.25 610.0 97.85 L615.75 97.5 617.55 97.8" fill="#c0d0ce" fill-rule="evenodd" stroke="none"/>
    <path d="M42.95 192.0 L36.8 192.6 33.8 193.15 Q21.75 196.2 17.6 205.15 14.0 213.1 17.1 224.15 18.5 228.9 19.0 229.75 L14.75 226.9 Q13.0 225.6 11.85 224.2 9.55 226.9 9.05 232.8 8.5 238.65 9.95 243.65 13.35 255.7 25.65 259.5 36.1 262.75 49.15 259.45 52.25 258.65 56.55 256.35 57.9 255.75 63.05 252.75 62.9 252.3 62.9 251.85 57.1 251.35 52.85 249.7 48.4 247.9 45.25 244.45 53.85 248.75 63.6 247.7 64.4 245.6 66.2 243.15 70.1 237.7 75.3 236.2 70.55 240.3 69.1 242.25 66.65 245.5 68.0 250.5 71.05 261.25 94.85 262.25 102.4 262.7 111.85 261.9 L116.4 261.55 Q129.9 257.4 142.6 251.05 165.5 239.15 162.45 228.55 161.9 226.45 160.2 224.95 L157.25 222.55 Q153.55 220.25 149.1 219.95 148.5 222.35 147.3 224.15 L144.7 227.7 143.7 228.7 143.55 228.9 143.3 229.1 143.25 229.25 143.1 229.35 143.05 229.35 Q138.9 233.3 132.9 236.55 138.0 231.15 139.5 228.35 142.95 222.55 141.5 217.45 139.55 210.8 132.5 207.55 126.0 204.55 117.35 205.15 130.45 201.95 136.45 202.85 144.85 204.15 148.35 212.65 149.25 214.85 149.15 218.3 158.5 219.0 163.15 221.95 169.95 226.4 170.2 231.7 170.45 240.8 151.4 250.55 137.75 257.65 123.25 261.3 110.2 264.7 98.55 265.65 94.0 265.95 89.45 265.85 68.45 265.65 65.2 257.2 L60.5 260.6 55.4 263.65 Q52.15 265.45 50.25 265.8 L41.6 267.7 Q34.8 269.2 23.3 267.05 11.65 265.1 5.2 255.05 0.85 248.2 2.15 238.6 3.45 228.4 11.1 223.25 9.45 221.2 8.8 218.65 5.8 208.2 12.55 200.8 18.05 194.75 28.45 192.1 33.5 190.85 39.5 191.45 L42.95 192.0" fill="#c0d0ce" fill-rule="evenodd" stroke="none"/>
    <path d="M144.7 227.7 L147.3 224.15 Q148.5 222.35 149.1 219.95 153.55 220.25 157.25 222.55 L160.2 224.95 Q161.9 226.45 162.45 228.55 165.5 239.15 142.6 251.05 129.9 257.4 116.4 261.55 L111.85 261.9 Q102.4 262.7 94.85 262.25 71.05 261.25 68.0 250.5 66.65 245.5 69.1 242.25 70.55 240.3 75.3 236.2 70.1 237.7 66.2 243.15 64.4 245.6 63.6 247.7 53.85 248.75 45.25 244.45 48.4 247.9 52.85 249.7 57.1 251.35 62.9 251.85 62.9 252.3 63.05 252.75 57.9 255.75 56.55 256.35 52.25 258.65 49.15 259.45 36.1 262.75 25.65 259.5 13.35 255.7 9.95 243.65 8.5 238.65 9.05 232.8 9.55 226.9 11.85 224.2 13.0 225.6 14.75 226.9 L19.0 229.75 Q18.5 228.9 17.1 224.15 14.0 213.1 17.6 205.15 21.75 196.2 33.8 193.15 L36.8 192.6 42.95 192.0 Q44.9 192.5 46.35 193.3 43.45 194.55 40.65 197.0 35.1 201.85 36.4 206.5 36.7 207.6 37.6 208.85 L39.35 210.7 Q37.25 205.85 40.35 201.7 43.55 197.45 49.3 195.75 48.1 194.6 47.35 192.8 46.7 191.7 46.5 190.7 45.4 182.4 52.55 175.5 58.5 170.05 66.5 167.95 74.8 165.8 82.75 167.8 91.85 170.15 94.75 177.05 L94.95 177.7 92.25 178.15 Q90.7 178.6 88.65 179.8 L90.2 179.5 95.5 179.8 Q99.05 180.45 101.65 182.35 104.2 184.2 104.9 186.8 106.15 191.05 103.7 194.85 101.3 198.5 95.8 200.75 L91.75 201.7 87.15 202.1 86.65 202.25 89.65 203.5 Q92.05 204.35 94.2 204.8 99.95 205.8 108.8 202.55 L110.4 204.55 Q110.95 205.5 110.95 206.9 L114.35 205.85 117.35 205.15 Q126.0 204.55 132.5 207.55 139.55 210.8 141.5 217.45 142.95 222.55 139.5 228.35 138.0 231.15 132.9 236.55 138.9 233.3 143.05 229.35 L143.1 229.35 143.25 229.25 143.3 229.1 143.55 228.9 144.7 227.7" fill="#ffffff" fill-rule="evenodd" stroke="none"/>
    <path d="M117.35 205.15 L114.35 205.85 110.95 206.9 Q110.95 205.5 110.4 204.55 L108.8 202.55 Q99.95 205.8 94.2 204.8 92.05 204.35 89.65 203.5 L86.65 202.25 87.15 202.1 91.75 201.7 95.8 200.75 Q101.3 198.5 103.7 194.85 106.15 191.05 104.9 186.8 104.2 184.2 101.65 182.35 99.05 180.45 95.5 179.8 L90.2 179.5 88.65 179.8 Q90.7 178.6 92.25 178.15 L94.95 177.7 Q99.85 177.35 105.35 180.3 110.9 183.35 111.9 187.3 113.05 192.25 111.1 196.65 112.85 197.2 114.85 199.6 116.55 201.9 117.35 205.15 M47.35 192.8 Q48.1 194.6 49.3 195.75 43.55 197.45 40.35 201.7 37.25 205.85 39.35 210.7 L37.6 208.85 Q36.7 207.6 36.4 206.5 35.1 201.85 40.65 197.0 43.45 194.55 46.35 193.3 46.85 193.15 47.35 192.8" fill="#dde7e6" fill-rule="evenodd" stroke="none"/>
    <path d="M91.7 467.75 Q96.0 491.8 95.65 498.7 97.3 499.7 99.05 502.1 103.3 507.9 104.35 513.8 L105.8 522.5 Q106.95 530.5 106.25 532.75 L94.2 539.95 Q63.15 548.65 44.5 548.3 31.6 548.45 21.75 543.7 L14.45 538.9 11.0 468.5 27.3 430.5 44.3 425.7 71.2 431.4 87.25 445.05 91.7 467.75" fill="#bd9542" fill-rule="evenodd" stroke="none"/>
    <path d="M91.7 467.75 Q96.0 491.8 95.65 498.7 97.3 499.7 99.05 502.1 103.3 507.9 104.35 513.8 L105.8 522.5 Q106.95 530.5 106.25 532.75 L94.2 539.95 Q63.15 548.65 44.5 548.3 31.6 548.45 21.75 543.7 L14.45 538.9 11.0 468.5 27.3 430.5 44.3 425.7 71.2 431.4 87.25 445.05 91.7 467.75 Z" fill="none" stroke="#84612e" stroke-linecap="round" stroke-linejoin="round" stroke-width="4.0"/>
    <path d="M80.4 443.4 L87.25 459.75 Q93.85 479.05 94.7 493.6 96.4 540.25 94.25 539.9 63.15 548.65 44.4 548.35 31.55 548.5 21.75 543.7 L14.4 538.9 Q12.9 503.7 11.0 468.55 L80.4 443.4" fill="#936b34" fill-rule="evenodd" stroke="none"/>
    <path d="M27.3 430.5 L32.6 442.5 34.9 455.7 34.95 466.1 Q34.9 477.95 33.8 486.0 32.35 494.15 27.3 491.85 24.15 490.25 21.3 486.45 L12.6 467.55 27.3 430.5" fill="#c6a473" fill-rule="evenodd" stroke="none"/>
    <path d="M27.3 430.5 Q35.8 428.3 44.3 425.7 L71.15 431.4 88.05 446.0 72.65 472.4 Q69.8 476.85 67.8 473.25 L55.05 454.0 47.1 453.55 29.75 444.4 27.3 430.5" fill="#e5d3ad" fill-rule="evenodd" stroke="none"/>
    <path d="M45.1 458.55 L54.65 455.85 54.5 471.3 32.3 493.8 49.45 546.4 28.95 490.85 41.7 467.75 45.1 458.55" fill="#c6a473" fill-rule="evenodd" stroke="none"/>
    <path d="M32.85 454.25 Q33.55 452.0 34.75 450.75 L35.7 449.85 48.4 456.95 47.8 473.85 35.95 490.0 41.2 503.75 Q38.05 506.1 34.45 508.15 L29.25 494.7 32.85 454.25" fill="#e0c48f" fill-rule="evenodd" stroke="none"/>
    <path d="M60.75 465.85 Q59.35 460.0 62.7 460.9 65.3 461.1 69.15 464.7 69.65 465.4 78.7 455.45 87.75 445.5 88.0 445.95 91.05 461.1 97.05 498.3 L79.25 523.55 Q61.6 548.1 62.85 544.75 63.3 543.6 56.0 516.2 L69.9 497.2 68.25 467.45 60.75 465.85" fill="#ad9065" fill-rule="evenodd" stroke="none"/>
    <path d="M28.45 437.1 L29.75 444.4 47.1 453.55 54.15 452.65 60.65 460.15 71.3 461.5 85.05 448.4 71.6 467.6 58.8 462.65 54.7 455.85 48.35 457.5 29.15 447.4 28.45 437.1" fill="#fdfcfb" fill-rule="evenodd" stroke="none"/>
    <path d="M58.7 462.65 L71.1 467.65 70.2 495.05 54.0 488.6 58.7 462.65" fill="#c6a473" fill-rule="evenodd" stroke="none"/>
    <path d="M102.6 512.3 Q104.05 516.35 105.15 520.45 107.35 529.0 106.2 532.8 101.05 535.9 99.25 535.85 97.4 535.8 96.4 532.0 L89.9 523.5 Q84.75 516.85 86.2 508.7 88.4 506.9 95.6 509.2 99.45 510.7 102.6 512.3" fill="#c6a473" fill-rule="evenodd" stroke="none"/>
    <path d="M90.3 521.65 L92.2 522.4 Q94.15 523.45 95.15 525.05 96.05 526.0 101.9 528.55 103.65 530.4 101.2 532.6 L97.95 536.8 Q95.8 538.9 94.5 537.4 86.95 527.25 87.15 526.45 L90.3 521.65" fill="#e5d3ad" fill-rule="evenodd" stroke="none"/>
    <path d="M89.75 514.55 Q86.3 513.4 85.85 508.75 85.35 503.85 89.95 499.45 94.3 495.5 99.0 502.15 103.25 507.85 104.3 513.75 105.0 517.6 103.05 519.05 L99.5 518.95 Q98.55 517.65 93.9 515.95 L89.75 514.55" fill="#d9bc88" fill-rule="evenodd" stroke="none"/>
    <path d="M61.8 555.65 L42.25 563.7 40.15 561.85 34.25 565.15 40.35 560.75 41.75 561.8 61.8 555.65" fill="#ffffff" fill-rule="evenodd" stroke="none"/>
    <path d="M34.25 565.15 L32.35 566.35 37.7 559.85 38.4 559.2 32.65 554.95 18.1 554.3 32.25 551.3 43.95 557.6 62.95 555.3 63.25 555.35 61.8 555.65 41.75 561.8 40.35 560.75 34.25 565.15" fill="#a05b10" fill-rule="evenodd" stroke="none"/>
    <path d="M43.65 536.15 Q53.0 537.6 52.65 537.85 L49.15 545.1 55.0 554.65 Q55.25 555.0 54.95 555.7 L40.05 558.3 43.65 536.15" fill="#a27f46" fill-rule="evenodd" stroke="none"/>
    <path d="M60.25 533.85 L61.95 539.95 Q63.75 546.65 63.05 549.75 59.7 552.15 58.45 552.0 57.2 552.0 56.45 549.0 L51.75 542.15 Q48.1 536.8 49.1 530.6 50.5 529.1 55.45 531.35 57.95 532.35 60.25 533.85" fill="#c6a473" fill-rule="evenodd" stroke="none"/>
    <path d="M34.35 535.05 L44.2 535.85 45.1 537.55 Q46.0 540.05 45.1 544.4 43.55 551.05 45.8 553.2 L43.0 556.15 40.05 558.3 36.75 554.8 34.35 535.05" fill="#e0c48f" fill-rule="evenodd" stroke="none"/>
    <path d="M52.55 555.1 L51.35 554.25 Q50.6 553.35 48.2 552.75 45.8 551.9 45.7 549.05 L46.0 546.1 47.3 544.0 Q48.55 541.85 49.45 541.1 50.45 540.5 51.7 540.7 L52.6 540.95 58.6 552.8 Q55.3 556.45 52.55 555.1" fill="#84612e" fill-rule="evenodd" stroke="none"/>
    <path d="M59.65 549.45 L57.7 552.55 Q56.15 554.25 55.3 552.95 49.85 545.6 50.05 544.35 L51.9 540.65 53.3 541.45 Q54.65 542.3 55.3 543.4 56.65 545.25 59.95 546.5 61.2 547.55 59.65 549.45" fill="#e5d3ad" fill-rule="evenodd" stroke="none"/>
    <path d="M27.95 529.55 Q27.55 526.1 31.9 530.75 L36.15 535.95 36.15 543.05 Q36.4 550.45 38.0 553.5 41.1 559.4 38.25 558.65 35.2 557.95 33.8 555.7 33.25 555.0 30.25 553.2 27.3 551.65 27.1 550.65 26.8 548.85 26.8 544.25 26.95 539.1 27.7 537.45 28.5 536.1 28.25 532.6 L27.95 529.55" fill="#c6a473" fill-rule="evenodd" stroke="none"/>
    <path d="M57.85 525.95 Q60.65 530.2 61.45 534.85 62.0 537.85 60.75 538.9 59.5 540.15 58.35 538.7 57.4 537.85 54.5 536.5 L51.55 535.15 Q49.3 534.05 48.9 530.65 48.45 526.8 51.35 523.55 54.35 520.55 57.85 525.95" fill="#d9bc88" fill-rule="evenodd" stroke="none"/>
    <path d="M34.7 521.95 L43.15 520.45 55.0 523.1 51.25 532.25 48.2 537.4 46.35 533.95 33.45 533.55 27.95 528.3 34.7 521.95" fill="#e5d3ad" fill-rule="evenodd" stroke="none"/>
    <path d="M49.75 537.95 L44.45 536.2 36.15 535.95 31.45 531.85 35.75 533.75 43.8 533.4 48.25 534.25 54.5 524.9 49.75 537.95" fill="#f2ede4" fill-rule="evenodd" stroke="none"/>
    <path d="M697.75 438.35 Q701.6 445.45 698.75 458.55 L698.7 458.7 697.3 464.25 696.75 466.0 Q689.05 491.65 678.1 493.8 L677.75 509.05 681.0 506.35 683.7 503.7 Q683.65 503.3 683.95 502.8 684.55 501.8 685.3 501.05 L686.3 500.15 686.4 500.1 Q686.75 500.15 686.75 501.4 L686.75 501.75 Q688.15 501.2 688.65 502.15 689.7 503.6 688.15 507.45 L687.55 508.6 687.45 508.7 685.05 513.0 Q684.2 514.65 682.2 517.0 679.95 520.0 677.45 521.85 L677.45 535.1 Q677.2 538.0 674.1 540.8 L672.85 541.75 Q669.9 543.8 666.3 544.25 661.65 544.65 655.2 542.95 648.0 541.05 645.95 535.8 644.7 532.25 645.3 523.55 639.25 523.65 636.05 520.65 632.95 517.85 631.5 511.45 629.9 503.0 631.05 494.3 632.75 481.3 640.3 467.95 644.7 463.0 644.2 470.85 L643.05 477.75 Q642.75 482.55 643.45 485.45 L643.85 485.0 Q644.75 484.05 645.0 484.15 L645.0 484.25 645.25 485.75 645.0 488.3 645.0 488.65 Q646.45 490.3 648.85 490.25 650.8 473.7 655.6 455.55 L656.1 454.05 Q659.5 440.6 664.95 437.95 666.8 436.85 669.2 437.4 L670.3 437.7 Q675.2 439.75 677.25 450.1 677.95 449.5 678.25 449.65 L678.25 449.8 678.3 451.05 678.25 453.25 677.95 454.0 Q678.65 459.35 678.75 466.55 683.95 465.8 688.3 451.9 687.55 451.7 687.6 450.9 687.65 449.25 688.35 448.0 688.85 446.95 689.2 447.0 L689.2 447.2 689.5 447.85 690.9 442.25 691.9 439.45 Q694.2 433.65 697.75 438.35" fill="#5b9311" fill-rule="evenodd" stroke="none"/>
    <path d="M697.75 438.35 Q701.6 445.45 698.75 458.55 L698.7 458.7 697.3 464.25 696.75 466.0 Q689.05 491.65 678.1 493.8 L677.75 509.05 681.0 506.35 683.7 503.7 Q683.65 503.3 683.95 502.8 684.55 501.8 685.3 501.05 L686.3 500.15 686.4 500.1 Q686.75 500.15 686.75 501.4 L686.75 501.75 Q688.15 501.2 688.65 502.15 689.7 503.6 688.15 507.45 L687.55 508.6 687.45 508.7 685.05 513.0 Q684.2 514.65 682.2 517.0 679.95 520.0 677.45 521.85 L677.45 535.1 Q677.2 538.0 674.1 540.8 L672.85 541.75 Q669.9 543.8 666.3 544.25 661.65 544.65 655.2 542.95 648.0 541.05 645.95 535.8 644.7 532.25 645.3 523.55 639.25 523.65 636.05 520.65 632.95 517.85 631.5 511.45 629.9 503.0 631.05 494.3 632.75 481.3 640.3 467.95 644.7 463.0 644.2 470.85 L643.05 477.75 Q642.75 482.55 643.45 485.45 L643.85 485.0 Q644.75 484.05 645.0 484.15 L645.0 484.25 645.25 485.75 645.0 488.3 645.0 488.65 Q646.45 490.3 648.85 490.25 650.8 473.7 655.6 455.55 L656.1 454.05 Q659.5 440.6 664.95 437.95 666.8 436.85 669.2 437.4 L670.3 437.7 Q675.2 439.75 677.25 450.1 677.95 449.5 678.25 449.65 L678.25 449.8 678.3 451.05 678.25 453.25 677.95 454.0 Q678.65 459.35 678.75 466.55 683.95 465.8 688.3 451.9 687.55 451.7 687.6 450.9 687.65 449.25 688.35 448.0 688.85 446.95 689.2 447.0 L689.2 447.2 689.5 447.85 690.9 442.25 691.9 439.45 Q694.2 433.65 697.75 438.35 Z" fill="none" stroke="#305400" stroke-linecap="round" stroke-linejoin="round" stroke-width="3.5"/>
    <path d="M678.8 466.55 Q685.55 465.6 690.9 442.15 L691.9 439.4 Q694.15 437.4 695.15 438.9 697.4 442.15 696.5 450.35 696.15 461.05 688.15 473.35 682.35 478.65 678.85 474.65 L678.8 466.55 M693.0 443.95 L692.45 444.75 692.05 445.6 Q691.1 447.95 689.65 453.9 688.0 459.8 686.4 461.55 688.95 462.1 690.6 459.15 L692.2 455.4 Q692.95 453.55 693.4 450.0 693.75 446.9 693.55 445.4 L693.4 444.15 693.0 443.95" fill="#86c740" fill-rule="evenodd" stroke="none"/>
    <path d="M691.9 439.4 Q694.25 433.65 697.75 438.35 701.7 445.45 698.8 458.55 L698.7 458.7 Q695.3 470.2 691.45 476.45 683.9 489.05 678.5 488.65 L678.85 474.65 Q682.35 478.65 688.15 473.35 696.15 461.05 696.5 450.35 697.4 442.15 695.15 438.9 694.15 437.4 691.9 439.4" fill="#559109" fill-rule="evenodd" stroke="none"/>
    <path d="M693.0 443.95 L693.4 444.15 693.55 445.4 Q693.75 446.9 693.4 450.0 692.95 453.55 692.2 455.4 L690.6 459.15 Q688.95 462.1 686.4 461.55 688.0 459.8 689.65 453.9 691.1 447.95 692.05 445.6 L692.45 444.75 693.0 443.95" fill="#98d951" fill-rule="evenodd" stroke="none"/>
    <path d="M678.15 493.8 L677.75 509.05 Q676.65 509.85 675.15 510.25 L670.7 510.8 670.0 510.5 667.55 510.35 666.35 510.25 666.05 510.25 663.65 510.75 Q662.15 511.5 661.2 513.5 659.65 516.45 660.5 520.45 660.85 523.0 662.0 524.5 663.05 525.75 664.75 526.65 667.5 527.85 670.75 526.35 672.95 525.45 677.5 521.85 L677.5 535.05 Q677.25 538.0 674.15 540.8 L672.9 541.75 668.2 541.5 Q660.6 539.0 658.05 527.45 655.0 503.45 655.95 475.7 656.8 448.95 665.0 437.95 666.9 436.85 669.25 437.4 L670.35 437.7 Q678.25 441.05 678.8 466.55 L678.85 474.65 678.5 488.65 Q678.25 491.05 678.15 493.7 L678.15 493.8 M672.55 453.25 Q670.55 443.65 667.9 445.75 665.85 447.25 665.25 455.0 664.55 462.15 665.0 471.55 665.45 481.05 666.9 487.8 668.25 495.25 670.3 495.95 671.25 496.3 672.05 495.25 L673.3 492.95 Q674.75 488.75 674.65 477.35 L674.1 464.7 Q673.85 459.65 672.55 453.25" fill="#7eba2f" fill-rule="evenodd" stroke="none"/>
    <path d="M672.55 456.75 Q673.45 462.05 673.45 466.0 L673.4 476.1 Q673.15 485.35 671.9 488.6 L670.8 490.4 Q670.1 491.25 669.3 490.95 667.7 490.2 666.9 484.25 666.1 478.8 666.05 471.2 665.85 463.55 666.7 458.0 667.45 451.8 669.0 450.7 671.4 449.15 672.55 456.75" fill="#a0e05e" fill-rule="evenodd" stroke="none"/>
    <path d="M672.55 456.75 Q671.4 449.15 669.0 450.7 667.45 451.8 666.7 458.0 665.85 463.55 666.05 471.2 666.1 478.8 666.9 484.25 667.7 490.2 669.3 490.95 670.1 491.25 670.8 490.4 L671.9 488.6 Q673.15 485.35 673.4 476.1 L673.45 466.0 Q673.45 462.05 672.55 456.75 M672.55 453.25 Q673.85 459.65 674.1 464.7 L674.65 477.35 Q674.75 488.75 673.3 492.95 L672.05 495.25 Q671.25 496.3 670.3 495.95 668.25 495.25 666.9 487.8 665.45 481.05 665.0 471.55 664.55 462.15 665.25 455.0 665.85 447.25 667.9 445.75 670.55 443.65 672.55 453.25" fill="#94d455" fill-rule="evenodd" stroke="none"/>
    <path d="M672.9 541.75 Q669.9 543.75 666.35 544.25 661.7 544.65 655.25 542.95 648.05 541.05 646.0 535.8 644.75 532.25 645.35 523.55 645.45 520.6 645.9 517.05 646.25 512.45 646.9 507.05 L648.35 494.7 648.85 490.25 Q650.85 473.7 655.6 455.55 L656.15 454.0 Q659.55 440.6 665.0 437.95 656.8 448.95 655.95 475.7 655.0 503.45 658.05 527.45 660.6 539.0 668.2 541.5 L672.9 541.75" fill="#467f09" fill-rule="evenodd" stroke="none"/>
    <path d="M644.2 470.85 Q644.0 473.55 643.1 477.75 642.2 490.45 648.85 490.25 L648.35 494.7 Q644.75 502.6 641.25 501.1 637.9 499.65 636.85 496.5 635.65 492.95 636.75 487.45 638.25 478.45 643.25 470.3 643.9 469.7 644.2 470.85" fill="#81ad26" fill-rule="evenodd" stroke="none"/>
    <path d="M698.7 458.7 L697.3 464.2 696.8 466.0 Q689.05 491.65 678.15 493.8 L678.15 493.7 Q678.25 491.05 678.5 488.65 683.9 489.05 691.45 476.45 695.3 470.2 698.7 458.7" fill="#3c6b00" fill-rule="evenodd" stroke="none"/>
    <path d="M677.75 509.05 L681.0 506.35 681.65 506.35 682.2 507.0 681.85 508.65 Q680.75 511.25 676.85 513.5 672.8 515.8 670.1 514.8 669.0 514.45 668.7 514.05 668.25 513.5 668.6 512.45 668.9 511.65 670.7 510.8 L675.15 510.25 Q676.65 509.85 677.75 509.05" fill="#b1d943" fill-rule="evenodd" stroke="none"/>
    <path d="M681.0 506.35 L683.95 503.5 Q687.7 500.4 688.7 502.15 689.7 503.6 688.15 507.45 L687.55 508.6 687.5 508.7 Q685.9 511.3 680.85 516.5 675.7 521.6 670.45 521.15 665.1 520.65 664.15 518.5 663.3 516.3 663.5 514.65 663.4 513.7 664.1 512.7 664.7 511.7 666.05 510.25 L666.35 510.25 667.55 510.35 670.0 510.5 670.7 510.8 Q668.9 511.65 668.6 512.45 668.25 513.5 668.7 514.05 669.0 514.45 670.1 514.8 672.8 515.8 676.85 513.5 680.75 511.25 681.85 508.65 L682.2 507.0 681.65 506.35 681.0 506.35" fill="#85b424" fill-rule="evenodd" stroke="none"/>
    <path d="M687.5 508.7 L685.05 513.0 Q684.3 514.65 682.25 517.0 680.0 519.85 677.5 521.85 672.95 525.45 670.75 526.35 667.5 527.85 664.75 526.65 663.05 525.75 662.0 524.5 660.85 523.0 660.5 520.45 659.65 516.45 661.2 513.5 662.15 511.5 663.65 510.75 L666.05 510.25 Q664.7 511.7 664.1 512.7 663.4 513.7 663.5 514.65 663.3 516.3 664.15 518.5 665.1 520.65 670.45 521.15 675.7 521.6 680.85 516.5 685.9 511.3 687.5 508.7" fill="#538710" fill-rule="evenodd" stroke="none"/>
    <path d="M631.1 494.3 Q632.75 481.25 640.3 467.9 644.75 462.95 644.2 470.85 643.9 469.7 643.25 470.3 638.25 478.45 636.75 487.45 635.65 492.95 636.85 496.5 637.9 499.65 641.25 501.1 644.75 502.6 648.35 494.7 L646.9 507.05 Q646.25 512.45 645.9 517.05 632.1 521.2 631.1 494.3" fill="#477005" fill-rule="evenodd" stroke="none"/>
    <path d="M645.35 523.55 Q639.25 523.6 636.1 520.65 633.0 517.85 631.5 511.45 629.9 503.0 631.1 494.3 632.1 521.2 645.9 517.05 645.45 520.6 645.35 523.55" fill="#365800" fill-rule="evenodd" stroke="none"/>
    <path d="M642.45 505.25 L642.55 506.6 642.45 507.35 642.45 507.15 Q642.15 507.15 642.2 506.35 L642.45 505.25" fill="#3c8009" fill-rule="evenodd" stroke="none"/>
    <path d="M639.0 515.75 L638.75 515.75 Q638.0 516.0 637.6 514.95 637.3 513.3 637.55 512.0 637.8 510.75 638.1 510.8 L638.2 510.9 Q638.05 510.85 637.95 512.05 637.9 513.15 638.25 514.4 638.5 515.55 639.0 515.75" fill="#1a3f00" fill-rule="evenodd" stroke="none"/>
    <path d="M638.2 510.9 L639.0 512.0 639.95 514.0 Q640.35 515.05 639.3 515.55 L639.0 515.75 Q638.5 515.55 638.25 514.4 637.9 513.15 637.95 512.05 638.05 510.85 638.2 510.9" fill="#275b00" fill-rule="evenodd" stroke="none"/>
    <path d="M660.6 489.0 L660.05 489.1 Q658.7 489.45 658.15 487.85 657.6 485.1 658.15 483.0 658.45 480.85 659.0 480.9 L659.15 481.1 658.75 482.95 Q658.55 484.85 659.15 486.95 659.6 488.75 660.6 489.0" fill="#255800" fill-rule="evenodd" stroke="none"/>
    <path d="M659.15 481.1 L660.5 482.65 Q661.6 484.15 662.15 486.1 662.85 487.9 661.25 488.65 L660.6 489.0 Q659.6 488.75 659.15 486.95 658.55 484.85 658.75 482.95 L659.15 481.1 M660.7 485.45 L661.35 487.2 Q661.25 486.85 661.55 486.7 661.9 486.7 660.95 484.8 L659.9 482.6 660.7 485.45" fill="#3d8e01" fill-rule="evenodd" stroke="none"/>
    <path d="M660.7 485.45 L659.9 482.6 660.95 484.8 Q661.9 486.7 661.55 486.7 661.25 486.85 661.35 487.2 L660.7 485.45" fill="#69cd1e" fill-rule="evenodd" stroke="none"/>
    <path d="M652.35 516.75 L652.0 516.85 Q651.0 517.05 650.8 516.1 650.45 514.45 650.75 513.05 651.0 511.8 651.35 512.0 L651.4 512.0 Q651.3 512.05 651.3 513.05 651.05 514.4 651.4 515.55 651.7 516.65 652.35 516.75" fill="#1a3f00" fill-rule="evenodd" stroke="none"/>
    <path d="M651.4 512.0 L652.2 512.95 653.25 514.95 Q653.7 516.1 652.65 516.65 L652.35 516.75 Q651.7 516.65 651.4 515.55 651.05 514.4 651.3 513.05 651.3 512.05 651.4 512.0 M652.85 515.35 Q653.15 515.35 652.5 514.25 652.0 513.05 651.7 512.9 L652.35 514.65 652.75 515.55 652.85 515.35" fill="#275b00" fill-rule="evenodd" stroke="none"/>
    <path d="M652.85 515.35 L652.75 515.55 652.35 514.65 651.7 512.9 Q652.0 513.05 652.5 514.25 653.15 515.35 652.85 515.35" fill="#3c8009" fill-rule="evenodd" stroke="none"/>
    <path d="M642.55 520.65 L642.6 519.55 Q642.6 520.4 642.75 520.95 L642.65 521.55 642.55 521.5 642.55 520.65" fill="#3c8009" fill-rule="evenodd" stroke="none"/>
    <path d="M633.45 505.95 L633.45 506.0 632.95 506.0 Q632.3 505.9 632.2 505.0 L632.45 503.6 632.75 502.7 633.2 503.45 633.45 504.95 633.45 505.95 M632.75 504.65 L632.7 503.35 632.5 504.4 Q632.5 505.3 632.65 505.3 L632.7 505.35 632.75 504.65" fill="#275b00" fill-rule="evenodd" stroke="none"/>
    <path d="M632.75 504.65 L632.7 505.35 632.65 505.3 Q632.5 505.3 632.5 504.4 L632.7 503.35 632.75 504.65" fill="#3c8009" fill-rule="evenodd" stroke="none"/>
    <path d="M632.75 502.7 Q633.05 502.45 633.45 503.3 633.95 504.05 634.05 505.3 634.05 505.95 633.45 505.95 L633.45 504.95 633.2 503.45 632.75 502.7" fill="#1a3f00" fill-rule="evenodd" stroke="none"/>
    <path d="M652.0 533.2 L651.5 533.35 Q650.0 533.7 649.5 532.1 648.9 529.35 649.45 527.1 649.85 525.05 650.45 525.05 L650.5 525.1 Q650.35 525.05 650.2 527.1 650.0 529.15 650.5 531.0 651.0 533.05 652.0 533.2" fill="#1a3f00" fill-rule="evenodd" stroke="none"/>
    <path d="M650.5 525.1 L651.9 526.9 Q652.95 528.4 653.7 530.3 654.35 532.15 652.75 533.0 L652.0 533.2 Q651.0 533.05 650.5 531.0 650.0 529.15 650.2 527.1 650.35 525.05 650.5 525.1 M652.35 528.95 L651.2 526.55 652.15 529.65 652.8 531.35 Q652.65 531.0 652.95 530.9 653.3 530.9 652.35 528.95" fill="#275b00" fill-rule="evenodd" stroke="none"/>
    <path d="M652.35 528.95 Q653.3 530.9 652.95 530.9 652.65 531.0 652.8 531.35 L652.15 529.65 651.2 526.55 652.35 528.95" fill="#3c8009" fill-rule="evenodd" stroke="none"/>
    <path d="M663.65 540.65 L663.15 540.4 Q661.3 539.65 661.9 537.8 662.4 535.8 663.35 534.3 664.35 532.5 664.65 532.45 L665.2 534.35 Q665.35 536.3 665.0 538.3 664.75 540.3 663.65 540.65 M664.05 534.0 Q663.75 534.35 663.0 536.3 662.3 538.35 662.65 538.35 L662.95 538.6 Q663.05 537.75 663.35 537.05 L664.05 534.0" fill="#275b00" fill-rule="evenodd" stroke="none"/>
    <path d="M663.65 540.65 Q664.75 540.3 665.0 538.3 665.35 536.3 665.2 534.35 L664.65 532.45 664.75 532.25 Q665.3 532.2 665.85 534.25 666.55 536.45 666.2 539.2 665.85 540.9 664.25 540.75 L663.65 540.65" fill="#1a3f00" fill-rule="evenodd" stroke="none"/>
    <path d="M664.05 534.0 L663.35 537.05 Q663.05 537.75 662.95 538.6 L662.65 538.35 Q662.3 538.35 663.0 536.3 663.75 534.35 664.05 534.0" fill="#3c8009" fill-rule="evenodd" stroke="none"/>
    <path d="M670.25 521.0 Q670.7 519.7 670.9 519.5 L670.5 521.35 670.15 522.4 Q670.15 522.3 670.0 522.3 669.7 522.3 670.25 521.0" fill="#3c8009" fill-rule="evenodd" stroke="none"/>
    <path d="M674.2 485.65 Q675.35 485.4 675.65 483.05 676.05 480.9 675.85 478.55 L675.25 476.45 675.4 476.25 Q675.9 476.2 676.5 478.45 677.3 480.95 676.9 484.1 676.45 485.95 674.8 485.7 L674.2 485.65" fill="#2d6d00" fill-rule="evenodd" stroke="none"/>
    <path d="M673.4 480.85 Q672.55 483.05 672.95 483.2 673.3 483.15 673.3 483.6 L673.85 481.65 674.6 478.1 673.4 480.85 M674.2 485.65 L673.55 485.4 Q671.5 484.6 672.1 482.5 672.75 480.3 673.65 478.45 674.95 476.55 675.2 476.45 L675.25 476.45 675.85 478.55 Q676.05 480.9 675.65 483.05 675.35 485.4 674.2 485.65" fill="#5fa32b" fill-rule="evenodd" stroke="none"/>
    <path d="M673.4 480.85 L674.6 478.1 673.85 481.65 673.3 483.6 Q673.3 483.15 672.95 483.2 672.55 483.05 673.4 480.85" fill="#92d95d" fill-rule="evenodd" stroke="none"/>
    <path d="M684.8 477.75 Q685.15 477.65 685.45 479.0 685.9 480.15 685.65 481.75 685.4 482.8 684.55 482.7 L684.15 482.6 Q684.85 482.6 685.0 481.35 685.2 480.2 685.0 478.95 L684.8 477.75" fill="#1a3f00" fill-rule="evenodd" stroke="none"/>
    <path d="M684.15 482.6 L683.95 482.6 Q682.8 482.05 683.15 481.05 L684.05 478.85 684.8 477.75 685.0 478.95 Q685.2 480.2 685.0 481.35 684.85 482.6 684.15 482.6 M683.6 481.4 L683.7 481.55 683.95 480.55 684.45 478.7 683.8 480.15 Q683.4 481.35 683.6 481.4" fill="#275b00" fill-rule="evenodd" stroke="none"/>
    <path d="M683.6 481.4 Q683.4 481.35 683.8 480.15 L684.45 478.7 683.95 480.55 683.7 481.55 683.6 481.4" fill="#3c8009" fill-rule="evenodd" stroke="none"/>
    <path d="M661.85 471.2 L661.3 472.2 Q660.9 473.4 660.85 474.6 660.95 475.85 661.45 476.05 L661.2 476.05 Q660.25 475.95 660.25 474.95 660.25 473.3 660.85 472.15 661.45 471.05 661.65 471.15 L661.85 471.2" fill="#5ea11f" fill-rule="evenodd" stroke="none"/>
    <path d="M661.85 471.2 L662.3 472.35 662.8 474.6 Q662.95 475.75 661.85 476.05 L661.45 476.05 Q660.95 475.85 660.85 474.6 660.9 473.4 661.3 472.2 L661.85 471.2 M662.1 475.15 Q662.15 474.85 662.4 474.9 L662.2 473.65 662.05 472.25 662.1 474.05 662.1 475.15" fill="#94d455" fill-rule="evenodd" stroke="none"/>
    <path d="M662.1 475.15 L662.1 474.05 662.05 472.25 662.2 473.65 662.4 474.9 Q662.15 474.85 662.1 475.15" fill="#cdf5af" fill-rule="evenodd" stroke="none"/>
    <path d="M686.95 463.05 L687.0 462.95 Q687.45 462.95 687.75 464.2 688.1 465.65 687.9 467.5 687.65 468.5 686.65 468.45 L686.35 468.4 Q687.05 468.25 687.25 466.95 687.45 465.65 687.25 464.35 L686.95 463.05" fill="#518322" fill-rule="evenodd" stroke="none"/>
    <path d="M686.95 463.05 L687.25 464.35 Q687.45 465.65 687.25 466.95 687.05 468.25 686.35 468.4 L685.95 468.25 Q684.95 467.85 685.15 466.6 685.55 465.25 686.15 464.3 L686.95 463.05 M685.7 466.95 L685.75 467.3 686.2 466.05 686.65 464.0 685.95 465.6 Q685.55 466.95 685.7 466.95" fill="#78af41" fill-rule="evenodd" stroke="none"/>
    <path d="M685.7 466.95 Q685.55 466.95 685.95 465.6 L686.65 464.0 686.2 466.05 685.75 467.3 685.7 466.95" fill="#cdf5af" fill-rule="evenodd" stroke="none"/>
    <path d="M645.15 484.25 L644.25 485.2 Q643.55 486.35 643.15 487.6 642.85 488.9 643.35 489.45 L642.95 489.3 Q642.0 489.0 642.35 487.9 642.9 486.15 643.95 485.0 644.85 484.0 645.15 484.15 L645.15 484.25" fill="#518322" fill-rule="evenodd" stroke="none"/>
    <path d="M643.35 489.45 Q642.85 488.9 643.15 487.6 643.55 486.35 644.25 485.2 L645.15 484.25 645.35 485.75 Q645.45 486.95 645.15 488.3 644.9 489.45 643.8 489.45 L643.35 489.45 M644.7 488.35 L644.85 487.05 645.1 485.45 644.6 487.4 644.25 488.55 644.7 488.35" fill="#78af41" fill-rule="evenodd" stroke="none"/>
    <path d="M644.7 488.35 L644.25 488.55 644.6 487.4 645.1 485.45 644.85 487.05 644.7 488.35" fill="#cdf5af" fill-rule="evenodd" stroke="none"/>
    <path d="M636.8 494.15 L636.55 494.15 Q635.5 494.15 635.3 492.9 635.5 490.95 636.25 489.6 636.8 488.25 637.3 488.35 L637.4 488.55 Q637.3 488.4 636.75 489.7 636.2 491.05 636.2 492.45 636.2 493.8 636.8 494.15" fill="#255800" fill-rule="evenodd" stroke="none"/>
    <path d="M637.4 488.55 L637.9 489.85 638.5 492.55 Q638.65 493.8 637.35 494.15 L636.8 494.15 Q636.2 493.8 636.2 492.45 636.2 491.05 636.75 489.7 637.3 488.4 637.4 488.55 M637.6 491.9 L637.7 493.0 637.9 492.85 Q638.1 492.85 637.95 491.4 L637.55 489.65 637.6 491.9" fill="#3d8e01" fill-rule="evenodd" stroke="none"/>
    <path d="M637.6 491.9 L637.55 489.65 637.95 491.4 Q638.1 492.85 637.9 492.85 L637.7 493.0 637.6 491.9" fill="#69cd1e" fill-rule="evenodd" stroke="none"/>
    <path d="M662.75 508.1 L662.05 508.1 Q659.8 507.75 659.9 505.5 659.9 503.1 660.5 501.0 661.15 498.8 661.35 498.7 661.55 498.4 662.5 500.65 663.4 502.85 663.6 505.15 663.95 507.5 662.75 508.1 M661.25 504.2 L661.25 500.6 Q661.0 501.05 660.8 503.6 660.55 506.0 660.85 505.85 661.3 505.85 661.3 506.3 L661.25 504.2" fill="#3d8e01" fill-rule="evenodd" stroke="none"/>
    <path d="M661.35 498.7 Q661.25 498.4 661.55 498.4 662.05 498.25 663.15 500.3 664.7 502.6 665.0 505.8 665.25 507.75 663.4 508.05 L662.75 508.1 Q663.95 507.5 663.6 505.15 663.4 502.85 662.5 500.65 661.55 498.4 661.35 498.7" fill="#255800" fill-rule="evenodd" stroke="none"/>
    <path d="M661.25 504.2 L661.3 506.3 Q661.3 505.85 660.85 505.85 660.55 506.0 660.8 503.6 661.0 501.05 661.25 500.6 L661.25 504.2" fill="#69cd1e" fill-rule="evenodd" stroke="none"/>
    <path d="M672.0 490.95 L672.1 490.8 Q672.55 490.75 673.2 492.65 673.7 494.75 673.4 497.45 672.95 499.0 671.55 498.75 L671.05 498.65 Q672.0 498.4 672.5 496.55 672.75 494.7 672.35 492.65 L672.0 490.95" fill="#255800" fill-rule="evenodd" stroke="none"/>
    <path d="M670.5 494.7 Q669.7 496.5 670.1 496.45 670.3 496.55 670.3 496.95 L670.75 495.25 671.45 492.35 Q671.1 492.8 670.5 494.7 M671.05 498.65 L670.5 498.4 Q668.9 497.7 669.4 496.05 669.95 494.15 670.8 492.55 L672.0 490.95 672.35 492.65 Q672.75 494.7 672.5 496.55 672.0 498.4 671.05 498.65" fill="#3d8e01" fill-rule="evenodd" stroke="none"/>
    <path d="M670.5 494.7 Q671.1 492.8 671.45 492.35 L670.75 495.25 670.3 496.95 Q670.3 496.55 670.1 496.45 669.7 496.5 670.5 494.7" fill="#69cd1e" fill-rule="evenodd" stroke="none"/>
    <path d="M676.75 454.35 L676.45 454.25 Q675.55 454.0 675.85 453.0 676.4 451.35 677.05 450.35 678.05 449.45 678.3 449.6 L678.3 449.8 Q678.25 449.6 677.65 450.55 L676.6 452.75 Q676.3 453.9 676.75 454.35" fill="#5ea11f" fill-rule="evenodd" stroke="none"/>
    <path d="M678.3 449.8 L678.5 451.05 678.3 453.25 Q678.15 454.25 677.0 454.45 L676.75 454.35 Q676.3 453.9 676.6 452.75 L677.65 450.55 Q678.25 449.6 678.3 449.8 M677.6 453.55 Q677.65 453.3 677.9 453.45 L678.15 452.2 678.15 450.7 677.75 452.6 677.6 453.55" fill="#94d455" fill-rule="evenodd" stroke="none"/>
    <path d="M677.6 453.55 L677.75 452.6 678.15 450.7 678.15 452.2 677.9 453.45 Q677.65 453.3 677.6 453.55" fill="#cdf5af" fill-rule="evenodd" stroke="none"/>
    <path d="M689.0 451.95 L688.75 451.95 Q687.65 451.9 687.7 450.85 687.85 449.25 688.45 448.0 688.95 446.95 689.3 447.0 L689.3 447.15 Q689.25 446.95 688.75 448.15 688.45 449.3 688.45 450.55 688.4 451.7 689.0 451.95" fill="#5ea11f" fill-rule="evenodd" stroke="none"/>
    <path d="M689.3 447.15 L689.9 448.3 690.3 450.55 Q690.4 451.7 689.35 451.95 L689.0 451.95 Q688.4 451.7 688.45 450.55 688.45 449.3 688.75 448.15 689.25 446.95 689.3 447.15 M689.8 450.8 L689.75 449.6 Q689.7 448.35 689.45 448.15 L689.55 449.8 689.65 450.9 689.8 450.8" fill="#94d455" fill-rule="evenodd" stroke="none"/>
    <path d="M689.8 450.8 L689.65 450.9 689.55 449.8 689.45 448.15 Q689.7 448.35 689.75 449.6 L689.8 450.8" fill="#cdf5af" fill-rule="evenodd" stroke="none"/>
    <path d="M657.95 455.95 L658.5 457.15 659.0 459.35 Q659.0 460.4 658.0 460.7 L657.65 460.7 Q657.1 460.45 657.15 459.3 L657.4 456.9 Q657.85 455.8 657.95 455.95 M658.15 458.7 L658.2 459.8 Q658.3 459.5 658.5 459.5 L658.5 458.35 658.15 456.9 658.15 458.7" fill="#94d455" fill-rule="evenodd" stroke="none"/>
    <path d="M657.65 460.7 L657.3 460.7 Q656.35 460.75 656.3 459.65 656.5 458.1 656.95 456.9 657.6 455.75 657.95 455.85 L657.95 455.95 Q657.85 455.8 657.4 456.9 L657.15 459.3 Q657.1 460.45 657.65 460.7" fill="#5ea11f" fill-rule="evenodd" stroke="none"/>
    <path d="M658.15 458.7 L658.15 456.9 658.5 458.35 658.5 459.5 Q658.3 459.5 658.2 459.8 L658.15 458.7" fill="#cdf5af" fill-rule="evenodd" stroke="none"/>
    <path d="M675.9 512.1 Q675.35 511.65 675.65 510.45 676.0 509.4 676.6 508.4 L677.35 507.55 677.6 508.8 677.4 511.1 Q677.3 512.2 676.1 512.1 L675.9 512.1 M677.25 508.45 L676.9 510.35 676.6 511.4 676.9 511.1 677.3 509.95 677.25 508.45" fill="#94d455" fill-rule="evenodd" stroke="none"/>
    <path d="M677.25 508.45 L677.3 509.95 676.9 511.1 676.6 511.4 676.9 510.35 677.25 508.45" fill="#cdf5af" fill-rule="evenodd" stroke="none"/>
    <path d="M677.35 507.55 L676.6 508.4 Q676.0 509.4 675.65 510.45 675.35 511.65 675.9 512.1 L675.5 512.05 Q674.65 511.7 674.8 510.75 675.25 509.05 676.3 508.1 677.0 507.15 677.35 507.35 L677.35 507.55" fill="#5ea11f" fill-rule="evenodd" stroke="none"/>
    <path d="M684.8 504.65 L684.4 504.5 Q683.5 503.8 684.1 502.8 L685.4 501.0 686.35 500.15 Q686.6 500.15 686.35 501.35 686.25 502.7 685.75 503.65 685.35 504.65 684.8 504.65 M684.4 503.25 L684.55 503.5 Q684.65 503.0 685.0 502.6 L685.95 500.95 Q685.6 501.2 684.95 502.2 684.2 503.25 684.4 503.25" fill="#94d455" fill-rule="evenodd" stroke="none"/>
    <path d="M686.35 500.15 L686.6 500.1 Q686.9 500.15 686.9 501.35 686.85 502.75 686.25 504.25 685.75 505.25 684.85 504.7 L684.8 504.65 Q685.35 504.65 685.75 503.65 686.25 502.7 686.35 501.35 686.6 500.15 686.35 500.15" fill="#5ea11f" fill-rule="evenodd" stroke="none"/>
    <path d="M684.4 503.25 Q684.2 503.25 684.95 502.2 685.6 501.2 685.95 500.95 L685.0 502.6 Q684.65 503.0 684.55 503.5 L684.4 503.25" fill="#cdf5af" fill-rule="evenodd" stroke="none"/>
    <path d="M649.65 502.4 L649.35 502.4 Q648.2 502.75 647.85 501.55 647.5 499.65 647.9 498.15 648.15 496.8 648.5 496.8 L648.6 496.9 Q648.5 496.8 648.3 498.25 648.2 499.55 648.6 500.95 648.85 502.35 649.65 502.4" fill="#255800" fill-rule="evenodd" stroke="none"/>
    <path d="M648.6 496.9 L649.55 498.15 Q650.35 499.05 650.75 500.35 651.2 501.75 650.05 502.25 L649.65 502.4 Q648.85 502.35 648.6 500.95 648.2 499.55 648.3 498.25 648.5 496.8 648.6 496.9 M649.15 498.0 L649.8 499.95 Q649.8 500.6 650.1 501.2 650.0 500.85 650.2 500.85 650.55 500.85 649.85 499.55 L649.15 498.0" fill="#3d8e01" fill-rule="evenodd" stroke="none"/>
    <path d="M649.15 498.0 L649.85 499.55 Q650.55 500.85 650.2 500.85 650.0 500.85 650.1 501.2 649.8 500.6 649.8 499.95 L649.15 498.0" fill="#69cd1e" fill-rule="evenodd" stroke="none"/>
    <path d="M669.0 443.6 L669.55 444.65 670.1 446.95 Q670.15 448.0 669.0 448.3 L668.7 448.25 Q668.1 448.0 668.1 446.8 L668.6 444.55 Q668.95 443.35 669.0 443.6 M669.25 446.45 L669.35 447.35 Q669.4 447.1 669.55 447.15 669.7 447.1 669.45 446.0 L669.2 444.45 669.25 446.45" fill="#94d455" fill-rule="evenodd" stroke="none"/>
    <path d="M668.7 448.25 L668.35 448.3 Q667.5 448.3 667.4 447.35 667.5 445.55 668.1 444.35 668.7 443.3 668.95 443.3 L669.0 443.6 Q668.95 443.35 668.6 444.55 L668.1 446.8 Q668.1 448.0 668.7 448.25" fill="#5ea11f" fill-rule="evenodd" stroke="none"/>
    <path d="M669.25 446.45 L669.2 444.45 669.45 446.0 Q669.7 447.1 669.55 447.15 669.4 447.1 669.35 447.35 L669.25 446.45" fill="#cdf5af" fill-rule="evenodd" stroke="none"/>
    <path d="M697.75 520.3 L697.75 520.4 698.1 520.8 697.85 521.1 Q698.6 527.1 698.25 536.3 697.95 542.55 697.3 545.4 698.0 545.95 698.6 547.25 700.05 550.2 700.05 552.95 L699.75 554.6 699.9 556.05 Q700.2 560.15 699.4 561.8 696.8 562.75 695.95 562.6 L695.75 562.55 695.65 562.6 Q694.4 563.5 693.9 563.15 L693.35 564.05 Q678.5 565.55 670.0 563.9 664.15 562.9 660.05 560.0 L657.1 557.2 657.35 555.15 Q656.6 555.7 655.95 555.75 L655.85 555.9 649.15 555.9 649.0 555.7 Q648.9 556.15 648.35 555.9 647.1 555.4 646.65 554.3 L645.3 552.95 Q644.1 552.05 644.1 551.6 644.1 550.75 644.45 548.75 644.9 546.5 645.35 545.9 645.8 545.35 646.0 543.8 L646.1 542.45 Q646.1 542.1 646.25 541.95 L646.2 541.9 649.6 539.65 653.4 539.65 657.5 541.35 Q658.3 541.25 659.0 542.35 L661.2 524.9 661.25 524.9 671.65 508.9 679.8 508.05 691.55 512.8 697.7 520.3 697.75 520.3 M653.0 546.7 L652.7 546.4 652.8 546.65 653.0 546.7 M649.0 544.8 L649.15 544.9 650.2 545.05 649.0 544.8 M654.55 547.25 L654.85 547.35 654.85 546.9 654.55 547.25 M673.65 518.6 L673.1 518.2 673.1 519.0 673.45 518.7 673.65 518.6" fill="#d29d38" fill-rule="evenodd" stroke="none"/>
    <path d="M697.75 520.3 L697.7 520.3 691.55 512.8 679.8 508.05 671.65 508.9 661.25 524.9 661.2 524.9 659.0 542.35 Q658.3 541.25 657.5 541.35 L653.4 539.65 649.6 539.65 646.2 541.9 646.25 541.95 Q646.1 542.1 646.1 542.45 L646.0 543.8 Q645.8 545.35 645.35 545.9 644.9 546.5 644.45 548.75 644.1 550.75 644.1 551.6 644.1 552.05 645.3 552.95 L646.65 554.3 Q647.1 555.4 648.35 555.9 648.9 556.15 649.0 555.7 L649.15 555.9 655.85 555.9 655.95 555.75 Q656.6 555.7 657.35 555.15 L657.1 557.2 660.05 560.0 Q664.15 562.9 670.0 563.9 678.5 565.55 693.35 564.05 L693.9 563.15 Q694.4 563.5 695.65 562.6 L695.75 562.55 695.95 562.6 Q696.8 562.75 699.4 561.8 700.2 560.15 699.9 556.05 L699.75 554.6 700.05 552.95 Q700.05 550.2 698.6 547.25 698.0 545.95 697.3 545.4 697.95 542.55 698.25 536.3 698.6 527.1 697.85 521.1 L698.1 520.8 697.75 520.4 697.75 520.3 Z" fill="none" stroke="#834f0f" stroke-linecap="round" stroke-linejoin="round" stroke-width="3.5"/>
    <path d="M652.4 546.5 Q656.4 547.85 656.2 547.95 L654.15 550.85 655.95 555.45 655.85 555.9 649.15 555.9 652.4 546.5" fill="#a27f46" fill-rule="evenodd" stroke="none"/>
    <path d="M659.85 546.8 L660.1 549.6 Q660.4 552.65 659.85 553.95 658.2 554.75 657.65 554.55 657.1 554.45 657.05 553.1 L655.5 549.75 Q654.3 547.15 655.25 544.5 655.95 544.0 657.95 545.35 658.95 545.95 659.85 546.8" fill="#c6a473" fill-rule="evenodd" stroke="none"/>
    <path d="M648.45 545.35 L652.7 546.4 652.95 547.25 Q653.15 548.4 652.4 550.2 651.25 553.0 652.05 554.1 L650.6 555.2 649.15 555.9 648.0 554.1 648.45 545.35" fill="#e0c48f" fill-rule="evenodd" stroke="none"/>
    <path d="M654.85 555.45 L654.4 555.0 653.15 554.1 Q652.15 553.55 652.35 552.3 L652.7 551.05 653.4 550.2 654.6 549.15 Q655.05 548.95 655.6 549.15 L655.95 549.3 657.65 554.9 Q655.95 556.3 654.85 555.45" fill="#84612e" fill-rule="evenodd" stroke="none"/>
    <path d="M658.4 553.55 L657.3 554.75 Q656.5 555.4 656.2 554.75 654.4 551.15 654.6 550.6 L655.7 549.15 656.2 549.6 656.95 550.6 Q657.4 551.5 658.75 552.3 659.2 552.85 658.4 553.55" fill="#e5d3ad" fill-rule="evenodd" stroke="none"/>
    <path d="M646.1 542.45 Q646.2 540.9 647.7 543.25 L649.15 545.9 648.6 548.95 Q648.15 552.2 648.6 553.65 649.55 556.45 648.35 555.9 647.1 555.4 646.65 554.3 L645.3 552.95 Q644.1 552.05 644.1 551.6 644.1 550.75 644.45 548.75 644.9 546.5 645.35 545.9 645.8 545.35 646.0 543.8 L646.1 542.45" fill="#c6a473" fill-rule="evenodd" stroke="none"/>
    <path d="M659.4 543.15 Q660.3 545.25 660.3 547.35 660.3 548.7 659.65 549.05 659.0 549.5 658.65 548.75 658.3 548.3 657.1 547.5 L655.95 546.7 Q655.05 546.05 655.15 544.5 655.25 542.8 656.75 541.65 658.3 540.55 659.4 543.15" fill="#d9bc88" fill-rule="evenodd" stroke="none"/>
    <path d="M649.6 539.65 L653.4 539.65 658.4 541.7 656.05 545.45 654.3 547.4 653.8 545.8 648.15 544.6 646.2 541.9 649.6 539.65" fill="#e5d3ad" fill-rule="evenodd" stroke="none"/>
    <path d="M647.45 543.7 L649.15 544.9 652.7 545.35 654.6 546.05 657.05 544.05 654.05 547.85 652.7 546.4 649.15 545.9 647.45 543.7" fill="#f2ede4" fill-rule="evenodd" stroke="none"/>
    <path d="M694.8 519.0 L696.6 527.0 Q698.1 536.3 697.25 543.0 694.35 564.4 693.35 564.05 678.5 565.55 670.0 563.9 664.15 562.9 660.05 560.0 L657.1 557.2 661.2 524.9 694.8 519.0" fill="#936b34" fill-rule="evenodd" stroke="none"/>
    <path d="M673.1 514.75 L673.1 520.95 672.3 525.7 Q671.3 531.1 670.15 534.7 668.85 538.25 666.75 536.8 665.45 535.8 664.45 533.85 L661.25 524.9 671.65 508.9 673.1 514.75" fill="#c6a473" fill-rule="evenodd" stroke="none"/>
    <path d="M671.65 515.4 L671.65 508.9 679.8 508.05 691.55 512.8 698.1 520.8 688.95 531.6 Q687.3 533.35 686.65 531.6 L682.4 521.8 678.8 520.95 671.65 515.4" fill="#e5d3ad" fill-rule="evenodd" stroke="none"/>
    <path d="M677.5 523.1 L682.1 522.6 680.8 529.6 668.85 538.1 672.45 563.4 667.55 536.45 675.25 527.0 677.5 523.1" fill="#c6a473" fill-rule="evenodd" stroke="none"/>
    <path d="M672.3 520.15 Q672.8 519.15 673.45 518.7 L673.95 518.35 679.15 522.6 677.5 530.25 670.8 536.65 672.15 543.35 668.7 544.8 667.4 538.25 672.3 520.15" fill="#e0c48f" fill-rule="evenodd" stroke="none"/>
    <path d="M687.3 528.95 L684.05 527.65 Q683.9 524.9 685.35 525.55 686.5 525.85 687.95 527.8 688.15 528.15 692.85 524.05 L697.75 520.3 Q698.6 526.5 698.25 536.3 697.75 546.6 696.3 547.55 L686.15 557.05 Q678.0 565.05 678.65 563.75 679.0 563.25 677.85 550.2 L685.7 542.7 687.3 528.95" fill="#ad9065" fill-rule="evenodd" stroke="none"/>
    <path d="M671.65 512.0 L671.65 515.4 678.8 520.95 682.1 521.15 Q682.4 521.15 684.05 524.7 684.85 525.55 686.8 526.7 688.45 527.8 688.6 529.45 685.7 528.45 683.4 526.0 682.6 522.6 682.1 522.6 L679.0 522.6 671.15 516.7 671.65 512.0" fill="#fdfcfb" fill-rule="evenodd" stroke="none"/>
    <path d="M683.4 526.0 L688.6 529.3 686.0 541.7 679.15 537.45 683.4 526.0" fill="#c6a473" fill-rule="evenodd" stroke="none"/>
    <path d="M699.4 552.15 L699.9 556.05 Q700.2 560.15 699.4 561.8 696.8 562.75 695.95 562.6 695.15 562.45 695.0 560.65 L692.7 556.25 Q690.9 552.8 692.2 549.2 693.35 548.55 696.45 550.2 698.1 551.15 699.4 552.15" fill="#c6a473" fill-rule="evenodd" stroke="none"/>
    <path d="M693.05 555.4 L693.85 555.9 Q694.65 556.55 695.0 557.35 L697.75 559.5 Q698.1 560.0 697.1 561.3 L695.65 562.6 Q694.1 563.7 693.7 562.9 691.05 557.7 691.25 557.35 L693.05 555.4" fill="#e5d3ad" fill-rule="evenodd" stroke="none"/>
    <path d="M693.35 552.15 Q691.9 551.35 692.05 549.2 692.2 546.9 694.65 545.3 696.95 543.8 698.6 547.25 700.05 550.2 700.05 552.95 700.05 554.75 699.05 555.25 698.1 555.75 697.45 554.9 697.1 554.25 695.15 553.1 L693.35 552.15" fill="#d9bc88" fill-rule="evenodd" stroke="none"/>
  </g>
</svg>
