<?xml version="1.0" encoding="UTF-8" standalone="no"?>
<svg xmlns:xlink="http://www.w3.org/1999/xlink" height="27.0px" width="26.1px" xmlns="http://www.w3.org/2000/svg">
  <g transform="matrix(1.0, 0.0, 0.0, 1.0, 2.15, 2.05)">
    <path d="M8.1 -1.05 L9.25 -0.35 9.4 0.0 9.4 0.15 9.15 1.3 8.6 2.45 8.7 2.5 19.9 10.25 20.05 10.2 20.25 10.45 20.3 10.55 21.4 11.3 21.6 11.4 22.25 11.95 22.4 12.2 Q22.85 12.95 22.95 14.05 L22.95 14.1 22.95 14.15 22.35 16.2 22.2 16.6 21.85 17.45 Q20.95 19.3 19.45 20.85 L18.65 21.55 17.4 22.5 Q15.85 24.45 13.25 23.8 L-0.05 14.65 Q-1.3 13.65 -1.1 12.6 L-1.1 12.5 -0.85 12.05 Q0.4 8.1 3.0 5.1 L3.05 4.5 Q3.2 3.0 4.25 1.45 5.1 0.2 6.15 -0.45 L6.65 -0.75 8.1 -1.05 M7.75 -0.45 L7.7 -0.5 7.0 -0.4 6.5 -0.15 Q5.35 0.45 4.45 1.75 3.55 3.05 3.4 4.35 L3.35 4.7 3.6 4.45 4.95 3.15 4.75 2.8 Q4.75 2.55 4.9 2.35 5.25 1.8 5.7 2.05 L6.2 1.7 7.75 -0.45 M8.6 1.55 Q9.0 0.65 8.75 0.2 L7.8 1.55 8.3 2.3 8.6 1.55" fill="#000000" fill-rule="evenodd" stroke="none"/>
    <path d="M7.75 -0.45 L6.2 1.7 5.7 2.05 Q5.25 1.8 4.9 2.35 4.75 2.55 4.75 2.8 L4.95 3.15 3.6 4.45 3.35 4.7 3.4 4.35 Q3.55 3.05 4.45 1.75 5.35 0.45 6.5 -0.15 L7.0 -0.4 7.7 -0.5 7.75 -0.45 M8.6 1.55 Q9.0 0.65 8.75 0.2 L7.8 1.55 8.3 2.3 8.6 1.55" fill="none" stroke="#000000" stroke-linecap="round" stroke-linejoin="round" stroke-width="1.0"/>
    <path d="M8.1 -1.05 L6.65 -0.75 6.15 -0.45 Q5.1 0.2 4.25 1.45 3.2 3.0 3.05 4.5 L3.0 5.1 Q0.4 8.1 -0.85 12.05 L-1.1 12.5 -1.1 12.6 Q-1.3 13.65 -0.05 14.65 L13.25 23.8 Q15.85 24.45 17.4 22.5 L18.65 21.55 19.45 20.85 Q20.95 19.3 21.85 17.45 L22.2 16.6 22.35 16.2 22.95 14.15 22.95 14.1 22.95 14.05 Q22.85 12.95 22.4 12.2 L22.25 11.95 21.6 11.4 21.4 11.3 20.3 10.55 20.25 10.45 20.05 10.2 19.9 10.25 8.7 2.5 8.6 2.45 9.15 1.3 9.4 0.15 9.4 0.0 9.25 -0.35 8.1 -1.05" fill="none" stroke="#000000" stroke-linecap="round" stroke-linejoin="round" stroke-width="2.0"/>
    <path d="M20.55 12.15 Q21.05 11.85 21.45 11.85 L21.75 11.8 21.85 12.15 21.65 12.15 20.6 12.5 20.6 12.25 20.55 12.15 M20.45 14.6 L21.1 15.05 21.6 15.7 21.65 15.7 21.4 16.0 21.25 16.25 20.85 15.8 20.2 15.3 20.45 14.6 M17.65 18.5 L18.15 18.1 18.2 18.05 18.2 18.1 18.7 18.45 19.2 19.15 18.6 19.75 18.15 19.0 17.65 18.5 M11.3 17.0 L11.35 17.0 11.8 17.35 10.4 18.55 9.95 18.2 11.3 17.0 M14.45 19.1 L14.9 19.25 14.3 20.8 13.8 20.55 14.45 19.1" fill="#2f2f2f" fill-rule="evenodd" stroke="none"/>
    <path d="M21.75 11.8 L21.45 11.85 Q21.05 11.85 20.55 12.15 L20.3 10.5 21.35 11.25 21.6 11.4 21.75 11.8 M20.6 12.5 L21.65 12.15 21.85 12.15 22.05 12.55 Q22.25 13.3 22.1 14.25 L21.65 15.7 21.6 15.7 21.1 15.05 21.1 15.0 Q21.3 14.05 20.7 13.1 L20.65 12.65 20.6 12.5 M20.85 15.8 L21.25 16.25 20.3 17.75 19.2 19.15 18.7 18.45 19.05 18.2 20.2 16.95 20.85 15.8 M14.95 19.3 L15.0 19.35 15.35 19.4 Q15.9 19.85 16.6 19.85 17.35 19.8 17.9 19.2 L18.15 19.0 18.6 19.75 Q17.0 21.25 15.35 21.05 L14.3 20.8 14.9 19.25 14.95 19.3 M10.7 16.6 L10.8 16.55 11.3 17.0 9.95 18.2 9.55 17.95 7.25 16.2 7.3 16.15 7.45 16.1 7.75 16.1 10.6 16.65 10.7 16.6 M11.8 17.35 L14.3 19.05 14.45 19.1 13.8 20.55 Q12.45 19.95 10.4 18.55 L11.8 17.35" fill="#666666" fill-rule="evenodd" stroke="none"/>
    <path d="M20.55 12.15 L20.6 12.25 20.6 12.5 20.65 12.65 20.7 13.1 20.75 13.45 20.45 14.55 20.45 14.6 20.2 15.3 19.9 15.85 Q20.15 14.95 20.05 13.5 L20.0 12.95 20.0 12.65 19.65 10.8 20.2 10.4 20.3 10.5 20.55 12.15 M17.1 13.15 L16.9 14.2 Q16.55 15.95 16.0 16.75 L15.35 17.55 15.5 16.5 Q15.95 14.85 17.0 13.3 L17.1 13.15" fill="#444444" fill-rule="evenodd" stroke="none"/>
    <path d="M21.75 11.8 L21.6 11.4 22.15 11.95 21.75 11.8 M21.85 12.15 L22.35 12.2 Q22.75 12.9 22.95 14.0 L22.9 14.1 22.35 16.15 22.15 16.5 21.65 15.7 22.1 14.25 Q22.25 13.3 22.05 12.55 L21.85 12.15 M21.75 17.2 L21.55 17.45 19.45 19.85 19.3 19.35 19.2 19.15 20.3 17.75 21.25 16.25 21.55 16.75 21.75 17.2 M6.7 16.0 L5.55 16.95 4.9 16.35 4.8 16.25 4.05 15.75 3.65 15.4 3.85 15.5 5.6 15.85 6.7 16.0 M5.95 17.25 L7.25 16.2 9.55 17.95 9.95 18.2 9.6 18.75 9.1 19.35 6.5 17.75 5.95 17.3 5.95 17.25 M9.55 19.55 L10.0 19.05 10.4 18.55 Q12.45 19.95 13.8 20.55 L13.25 21.5 10.7 20.2 9.55 19.55 M18.75 20.35 L18.05 20.85 Q15.85 22.35 14.45 22.05 L13.9 21.8 14.3 20.8 15.35 21.05 Q17.0 21.25 18.6 19.75 L18.75 20.35" fill="#404040" fill-rule="evenodd" stroke="none"/>
    <path d="M21.85 12.15 L21.75 11.8 22.15 11.95 22.35 12.2 21.85 12.15 M21.65 15.7 L22.15 16.5 22.2 16.55 22.15 16.55 21.8 17.4 21.75 17.2 21.55 16.75 21.25 16.25 21.4 16.0 21.65 15.7 M6.9 16.0 L7.1 16.0 7.45 16.1 7.3 16.15 7.25 16.2 5.95 17.25 5.9 17.25 5.55 16.95 6.7 16.0 6.9 16.0 M9.1 19.35 L9.6 18.75 9.95 18.2 10.4 18.55 10.0 19.05 9.55 19.55 9.1 19.35 M19.2 19.15 L19.3 19.35 19.45 19.85 18.75 20.35 18.6 19.75 19.2 19.15 M13.8 20.55 L14.3 20.8 13.9 21.8 13.25 21.5 13.8 20.55" fill="#1a1a1a" fill-rule="evenodd" stroke="none"/>
    <path d="M20.45 14.6 L20.45 14.55 20.75 13.45 20.7 13.1 Q21.3 14.05 21.1 15.0 L21.1 15.05 20.45 14.6 M20.2 15.3 L20.85 15.8 20.2 16.95 19.05 18.2 18.7 18.45 18.2 18.1 18.2 18.05 18.25 18.05 19.45 16.7 19.9 15.85 20.2 15.3 M15.5 19.4 Q16.45 19.5 17.15 18.9 L17.3 18.75 17.6 18.6 17.65 18.5 18.15 19.0 17.9 19.2 Q17.35 19.8 16.6 19.85 15.9 19.85 15.35 19.4 L15.5 19.4" fill="#848484" fill-rule="evenodd" stroke="none"/>
    <path d="M22.15 16.5 L22.35 16.15 22.2 16.55 22.15 16.5 M21.8 17.4 Q20.9 19.35 19.4 20.8 L19.45 19.85 21.55 17.45 21.75 17.2 21.8 17.4 M18.6 21.5 L17.35 22.5 Q15.75 24.45 13.2 23.8 L12.75 23.45 12.85 23.35 13.5 22.5 13.9 21.8 14.45 22.05 Q15.85 22.35 18.05 20.85 L18.75 20.35 18.6 21.5 M12.15 23.05 L8.75 20.7 9.55 19.55 10.7 20.2 13.25 21.5 12.8 22.3 12.15 23.05 M8.35 20.45 L5.0 18.1 5.9 17.25 5.95 17.25 5.95 17.3 6.5 17.75 9.1 19.35 8.35 20.45 M4.6 17.85 L1.65 15.8 2.05 15.5 2.55 15.0 2.65 15.1 3.65 15.4 4.05 15.75 4.8 16.25 4.9 16.35 5.55 16.95 5.35 17.2 4.6 17.85 M1.25 15.5 L-0.05 14.6 Q-1.35 13.6 -1.1 12.55 L0.7 14.05 2.2 14.85 1.25 15.5" fill="#2b2b2b" fill-rule="evenodd" stroke="none"/>
    <path d="M9.75 4.8 L11.05 5.05 12.35 5.75 13.65 6.5 15.05 7.4 17.25 9.05 19.2 10.65 18.75 11.0 18.25 10.65 Q17.15 9.2 14.95 7.7 L13.4 6.8 12.05 6.4 9.75 4.8 M2.75 10.9 L2.85 10.95 3.3 11.5 4.25 12.1 Q4.8 13.7 5.8 14.35 6.5 14.85 7.7 15.25 L9.35 15.65 10.7 16.6 10.6 16.65 7.75 16.1 7.45 16.1 7.1 16.0 6.9 16.0 Q6.1 15.65 5.05 14.9 3.95 14.15 3.15 13.2 2.0 11.9 2.5 11.15 L2.75 10.9" fill="#fc5858" fill-rule="evenodd" stroke="none"/>
    <path d="M3.25 4.7 L3.55 4.4 5.75 2.4 5.8 2.35 8.7 2.5 19.85 10.2 Q19.7 10.35 19.5 10.45 L19.45 10.5 19.2 10.65 17.25 9.05 15.05 7.4 13.65 6.5 12.35 5.75 11.05 5.05 9.75 4.8 8.7 4.1 8.05 3.7 7.65 3.55 6.5 3.75 6.5 3.65 5.75 4.05 5.15 4.65 3.95 6.05 2.65 8.15 Q2.2 9.15 2.35 9.8 L2.4 10.1 2.75 10.9 2.5 11.15 Q2.0 11.9 3.15 13.2 3.95 14.15 5.05 14.9 6.1 15.65 6.9 16.0 L6.7 16.0 5.6 15.85 3.85 15.5 1.95 13.75 Q0.75 12.45 0.4 10.9 0.15 9.7 1.4 7.6 L3.25 4.7" fill="#fd0202" fill-rule="evenodd" stroke="none"/>
    <path d="M12.05 6.4 L13.4 6.8 14.95 7.7 Q17.15 9.2 18.25 10.65 L12.05 6.4" fill="#fe9292" fill-rule="evenodd" stroke="none"/>
    <path d="M19.85 10.2 L20.05 10.2 20.2 10.4 19.65 10.8 19.5 10.9 Q19.25 11.1 18.95 11.4 L18.7 11.6 18.4 11.8 18.2 12.05 17.1 13.15 17.0 13.3 Q15.95 14.85 15.5 16.5 L15.35 17.55 Q15.25 18.55 15.5 19.4 L15.35 19.4 15.0 19.35 14.95 19.3 14.95 17.45 Q15.35 14.85 17.1 12.65 L17.1 12.6 18.1 11.5 18.75 11.0 19.2 10.65 19.45 10.5 19.5 10.45 Q19.7 10.35 19.85 10.2" fill="#919191" fill-rule="evenodd" stroke="none"/>
    <path d="M9.75 4.8 L12.05 6.4 18.25 10.65 18.75 11.0 18.1 11.5 16.25 10.5 8.9 5.15 Q7.8 4.4 6.9 4.35 L5.75 4.5 6.5 3.75 7.65 3.55 8.05 3.7 8.7 4.1 9.75 4.8" fill="#540101" fill-rule="evenodd" stroke="none"/>
    <path d="M17.1 13.15 L18.2 12.05 18.4 11.8 18.7 11.6 18.95 11.4 Q19.4 12.25 19.2 14.25 19.0 16.4 18.25 18.05 L18.2 18.05 18.15 18.1 17.65 18.5 17.6 18.6 17.3 18.75 17.15 18.9 Q16.45 19.5 15.5 19.4 15.25 18.55 15.35 17.55 L16.0 16.75 Q16.55 15.95 16.9 14.2 L17.1 13.15" fill="#000000" fill-rule="evenodd" stroke="none"/>
    <path d="M19.65 10.8 L20.0 12.65 20.0 12.95 20.05 13.5 Q20.15 14.95 19.9 15.85 L19.45 16.7 18.25 18.05 Q19.0 16.4 19.2 14.25 19.4 12.25 18.95 11.4 19.25 11.1 19.5 10.9 L19.65 10.8" fill="#1e1e1e" fill-rule="evenodd" stroke="none"/>
    <path d="M18.1 11.5 L17.1 12.6 17.1 12.65 8.0 6.4 7.5 6.05 Q5.65 5.6 3.85 6.55 L5.75 4.5 6.9 4.35 Q7.8 4.4 8.9 5.15 L16.25 10.5 18.1 11.5" fill="#800000" fill-rule="evenodd" stroke="none"/>
    <path d="M5.75 4.5 L3.85 6.55 3.1 8.1 2.45 9.65 2.35 9.8 Q2.2 9.15 2.65 8.15 L3.95 6.05 5.15 4.65 5.75 4.05 6.5 3.65 6.5 3.75 5.75 4.5" fill="#fe8181" fill-rule="evenodd" stroke="none"/>
    <path d="M3.85 6.55 Q5.65 5.6 7.5 6.05 L8.0 6.4 5.55 6.5 Q4.15 6.95 3.1 8.1 L3.85 6.55" fill="#c10202" fill-rule="evenodd" stroke="none"/>
    <path d="M17.1 12.65 Q15.35 14.85 14.95 17.45 L14.95 19.3 14.9 19.25 14.45 19.1 14.3 19.05 11.8 17.35 11.35 17.0 11.3 17.0 10.8 16.55 10.7 16.6 9.35 15.65 4.25 12.1 3.3 11.5 2.85 10.95 2.75 10.9 2.4 10.1 2.35 9.8 2.45 9.65 3.1 8.1 Q4.15 6.95 5.55 6.5 L8.0 6.4 17.1 12.65" fill="#990000" fill-rule="evenodd" stroke="none"/>
    <path d="M-1.1 12.55 L-1.15 12.5 -0.9 12.05 Q0.45 7.8 3.25 4.7 L1.4 7.6 Q0.15 9.7 0.4 10.9 0.75 12.45 1.95 13.75 L3.85 15.5 3.65 15.4 2.65 15.1 2.55 15.0 2.2 14.85 0.7 14.05 -1.1 12.55" fill="#ca0202" fill-rule="evenodd" stroke="none"/>
    <path d="M19.4 20.8 L18.6 21.5 18.75 20.35 19.45 19.85 19.4 20.8 M12.75 23.45 L12.15 23.05 12.8 22.3 13.25 21.5 13.9 21.8 13.5 22.5 12.85 23.35 12.75 23.45 M8.75 20.7 L8.35 20.45 9.1 19.35 9.55 19.55 8.75 20.7 M5.0 18.1 L4.6 17.85 5.35 17.2 5.55 16.95 5.9 17.25 5.0 18.1 M1.65 15.8 L1.25 15.5 2.2 14.85 2.55 15.0 2.05 15.5 1.65 15.8" fill="#111111" fill-rule="evenodd" stroke="none"/>
    <path d="M4.25 12.1 L9.35 15.65 7.7 15.25 Q6.5 14.85 5.8 14.35 4.8 13.7 4.25 12.1" fill="#fe9a9a" fill-rule="evenodd" stroke="none"/>
    <path d="M3.2 6.0 L3.15 6.0 Q2.9 5.4 3.0 4.5 3.15 3.0 4.2 1.45 5.1 0.2 6.15 -0.5 L6.65 -0.75 8.05 -1.15 9.25 -0.35 9.35 -0.05 9.3 -0.1 Q8.55 -0.6 6.7 2.2 4.8 5.2 3.2 6.0 M6.2 1.65 L7.75 -0.5 7.7 -0.55 7.0 -0.45 6.45 -0.2 Q5.3 0.4 4.4 1.7 3.5 3.0 3.35 4.25 L3.5 5.5 4.9 3.5 6.2 1.65" fill="#fe7070" fill-rule="evenodd" stroke="none"/>
    <path d="M3.2 6.0 Q4.8 5.2 6.7 2.2 8.55 -0.6 9.3 -0.1 L9.35 -0.05 9.4 0.1 9.15 1.25 8.5 2.65 8.25 2.3 8.65 1.5 Q8.95 0.65 8.75 0.2 L7.85 1.55 7.55 1.95 7.45 2.05 6.4 3.75 6.25 4.0 5.25 5.15 4.85 5.55 Q4.15 6.15 3.55 6.25 L3.2 6.0 M6.2 1.65 L4.9 3.5 4.95 3.1 5.0 2.95 5.3 2.45 5.75 2.0 6.2 1.65" fill="#d20202" fill-rule="evenodd" stroke="none"/>
    <path d="M8.5 2.65 Q8.7 3.85 7.95 5.35 L5.95 10.2 4.75 9.95 6.45 6.5 Q7.7 3.5 7.45 2.05 L7.55 1.95 7.85 1.55 8.25 2.3 8.5 2.65 M3.2 9.0 L2.85 8.8 Q3.25 7.6 3.8 6.85 L4.85 5.55 5.25 5.15 6.25 4.0 4.55 7.15 3.65 8.45 3.2 9.0" fill="#800000" fill-rule="evenodd" stroke="none"/>
    <path d="M4.95 3.1 L4.8 2.75 4.9 2.35 Q5.3 1.8 5.75 2.0 L5.3 2.45 5.0 2.95 4.95 3.1" fill="#fd7979" fill-rule="evenodd" stroke="none"/>
    <path d="M4.75 9.95 Q3.85 9.65 3.2 9.0 L3.65 8.45 4.55 7.15 6.25 4.0 6.4 3.75 7.45 2.05 Q7.7 3.5 6.45 6.5 L4.75 9.95" fill="#540101" fill-rule="evenodd" stroke="none"/>
  </g>
</svg>
