<?xml version="1.0" encoding="UTF-8" standalone="no"?>
<svg xmlns:xlink="http://www.w3.org/1999/xlink" height="18.8px" width="14.05px" xmlns="http://www.w3.org/2000/svg">
  <g transform="matrix(1.0, 0.0, 0.0, 1.0, 0.5, 0.5)">
    <path d="M13.05 8.3 Q12.3 9.35 10.4 10.05 L9.95 10.2 8.55 10.45 Q7.0 10.55 5.6 9.9 3.5 9.35 2.0 10.5 L2.0 17.2 1.6 17.8 1.05 17.75 0.65 17.2 0.65 2.4 0.3 2.15 Q0.0 1.85 0.0 1.35 0.0 0.85 0.3 0.5 L0.45 0.4 0.6 0.2 1.15 0.0 1.65 0.15 Q1.9 0.15 2.05 0.3 L2.2 0.7 2.2 0.75 2.35 1.35 Q2.35 1.85 2.0 2.15 L2.2 2.15 2.6 2.15 2.95 2.15 Q4.15 2.15 5.2 2.75 L5.25 2.75 5.4 2.85 Q7.5 4.4 8.5 6.25 L8.6 6.5 8.95 7.05 Q9.95 8.3 12.3 8.35 L13.05 8.3" fill="#000000" fill-rule="evenodd" stroke="none"/>
    <path d="M13.05 8.3 Q12.3 9.35 10.4 10.05 L9.95 10.2 8.55 10.45 Q7.0 10.55 5.6 9.9 3.5 9.35 2.0 10.5 L2.0 17.2 1.6 17.8 1.05 17.75 0.65 17.2 0.65 2.4 0.3 2.15 Q0.0 1.85 0.0 1.35 0.0 0.85 0.3 0.5 L0.45 0.4 0.6 0.2 1.15 0.0 1.65 0.15 Q1.9 0.15 2.05 0.3 L2.2 0.7 2.2 0.75 2.35 1.35 Q2.35 1.85 2.0 2.15 L2.2 2.15 2.6 2.15 2.95 2.15 Q4.15 2.15 5.2 2.75 L5.25 2.75 5.4 2.85 Q7.5 4.4 8.5 6.25 L8.6 6.5 8.95 7.05 Q9.95 8.3 12.3 8.35 L13.05 8.3 Z" fill="none" stroke="#350000" stroke-linecap="round" stroke-linejoin="round" stroke-width="1.0"/>
    <path d="M1.6 17.8 L1.05 17.75 1.0 1.35 1.6 1.35 1.6 17.8" fill="#fa1919" fill-rule="evenodd" stroke="none"/>
    <path d="M1.05 17.75 L0.65 17.2 0.65 1.35 1.0 1.35 1.05 17.75" fill="#d50000" fill-rule="evenodd" stroke="none"/>
    <path d="M1.6 1.35 L2.0 1.35 2.0 17.2 1.6 17.8 1.6 1.35" fill="#9f0202" fill-rule="evenodd" stroke="none"/>
    <path d="M8.95 7.05 Q9.95 8.3 12.3 8.35 L10.9 9.15 Q9.6 9.15 8.95 7.05" fill="#f04f00" fill-rule="evenodd" stroke="none"/>
    <path d="M12.3 8.35 L13.05 8.3 Q12.3 9.35 10.4 10.05 L9.6 9.7 Q8.05 8.5 7.65 8.5 L6.85 8.7 6.1 8.85 Q5.3 8.85 4.4 8.35 3.4 7.8 3.4 7.2 L3.6 5.5 3.45 3.7 Q3.4 2.6 2.95 2.15 4.15 2.15 5.2 2.75 L5.25 2.75 5.4 2.85 5.7 5.2 Q5.95 7.6 6.6 7.6 7.1 7.6 7.6 7.05 L8.5 6.25 8.6 6.5 8.95 7.05 Q9.6 9.15 10.9 9.15 L12.3 8.35" fill="#ff5400" fill-rule="evenodd" stroke="none"/>
    <path d="M5.4 2.85 Q7.5 4.4 8.5 6.25 L7.6 7.05 Q7.1 7.6 6.6 7.6 5.95 7.6 5.7 5.2 L5.4 2.85" fill="#ff661c" fill-rule="evenodd" stroke="none"/>
    <path d="M10.4 10.05 L9.95 10.2 8.55 10.45 6.85 9.85 4.25 9.05 Q3.4 9.05 2.9 9.4 L1.75 10.3 1.75 9.3 2.6 7.5 Q3.0 6.35 2.9 5.45 L2.65 3.8 2.2 2.15 2.6 2.15 2.95 2.15 Q3.4 2.6 3.45 3.7 L3.6 5.5 3.4 7.2 Q3.4 7.8 4.4 8.35 5.3 8.85 6.1 8.85 L6.85 8.7 7.65 8.5 Q8.05 8.5 9.6 9.7 L10.4 10.05" fill="#f75100" fill-rule="evenodd" stroke="none"/>
    <path d="M1.75 9.3 L1.75 2.2 2.2 2.15 2.65 3.8 2.9 5.45 Q3.0 6.35 2.6 7.5 L1.75 9.3" fill="#db4800" fill-rule="evenodd" stroke="none"/>
    <path d="M8.55 10.45 Q7.0 10.55 5.6 9.9 3.3 9.3 1.75 10.7 L1.75 10.3 2.9 9.4 Q3.4 9.05 4.25 9.05 L6.85 9.85 8.55 10.45" fill="#e54b00" fill-rule="evenodd" stroke="none"/>
    <path d="M0.3 2.15 Q0.0 1.85 0.0 1.35 0.0 0.85 0.3 0.5 0.65 0.15 1.15 0.15 1.65 0.15 2.0 0.5 2.35 0.85 2.35 1.35 2.35 1.85 2.0 2.15 1.65 2.5 1.15 2.5 0.65 2.5 0.3 2.15" fill="#fa1919" fill-rule="evenodd" stroke="none"/>
    <path d="M1.15 0.0 L1.7 0.2 1.9 0.75 1.7 1.3 1.15 1.55 0.6 1.3 0.35 0.75 Q0.35 0.4 0.6 0.2 L1.15 0.0" fill="#ff4343" fill-rule="evenodd" stroke="none"/>
    <path d="M2.05 0.3 L2.2 0.7 2.05 1.05 1.65 1.2 1.3 1.05 1.15 0.7 Q1.15 0.45 1.3 0.3 1.45 0.15 1.65 0.15 1.9 0.15 2.05 0.3" fill="#ff9595" fill-rule="evenodd" stroke="none"/>
  </g>
</svg>
