<?xml version="1.0" encoding="UTF-8" standalone="no"?>
<svg xmlns:xlink="http://www.w3.org/1999/xlink" height="319.75px" width="668.65px" xmlns="http://www.w3.org/2000/svg">
  <g transform="matrix(1.0, 0.0, 0.0, 1.0, 24.95, 127.5)">
    <path d="M8.55 96.1 Q17.05 92.8 26.9 92.8 L26.9 102.05 Q34.7 102.05 41.25 104.7 L41.65 104.8 45.25 96.1 Q53.75 99.65 60.75 106.55 L60.55 106.8 54.1 113.1 54.85 114.1 55.75 115.0 Q60.15 119.65 62.3 125.15 L71.2 121.55 Q74.75 129.7 74.75 139.5 L65.05 139.5 65.05 139.8 65.05 140.2 Q56.6 137.5 47.55 138.55 L42.8 139.0 Q42.75 136.55 41.9 134.85 40.65 131.7 38.1 129.35 35.85 126.85 32.85 125.6 29.65 124.45 26.3 124.45 22.9 124.45 19.95 125.6 16.95 126.85 14.35 129.35 L14.3 129.35 Q11.95 131.7 10.7 134.85 10.05 136.3 9.55 138.05 L9.5 140.8 9.55 143.35 Q-0.55 143.35 -7.6 135.9 L-8.85 134.85 -10.6 132.45 -10.6 132.35 Q-10.25 129.45 -9.1 126.85 L-8.45 125.15 -17.25 121.75 -17.4 121.55 -17.25 121.55 -16.0 118.9 Q-13.5 114.1 -9.45 109.3 L-7.25 106.8 Q-7.25 106.55 -6.8 106.55 L-6.6 106.55 -1.45 111.7 -0.05 113.1 1.45 111.95 Q5.0 108.3 9.3 106.3 L10.5 105.65 12.3 105.05 12.3 104.8 8.55 96.1" fill="#ecf9ff" fill-rule="evenodd" stroke="none"/>
    <path d="M60.55 106.8 L59.35 111.7 55.75 115.0 54.85 114.1 54.1 113.1 60.55 106.8 M74.75 139.5 L74.75 143.35 66.45 143.35 65.05 139.8 65.05 139.5 74.75 139.5 M60.15 177.9 L54.5 172.15 54.1 166.2 54.1 165.85 60.55 172.4 60.15 177.9 M24.9 192.25 L24.9 184.7 24.5 184.7 26.9 177.2 26.9 186.25 24.9 192.25 M8.55 182.85 L5.75 188.65 Q-2.95 185.25 -10.35 178.2 L-6.6 172.55 -5.85 173.65 Q0.5 179.6 8.55 182.85 M-13.9 159.3 L-13.9 159.15 -14.1 159.15 -21.05 162.1 -17.4 157.5 -8.45 153.85 -13.9 159.3 M-13.9 127.7 L-21.4 124.55 -21.4 124.45 -17.25 121.75 -8.45 125.15 -13.9 127.7 M9.0 105.45 L6.0 99.1 8.55 96.1 12.3 104.8 12.3 105.05 9.0 105.45" fill="#9cbfcb" fill-rule="evenodd" stroke="none"/>
    <path d="M9.55 143.35 L9.5 140.8 9.55 138.05 Q10.05 136.3 10.7 134.85 11.95 131.7 14.3 129.35 L14.35 129.35 Q16.95 126.85 19.95 125.6 22.9 124.45 26.3 124.45 29.65 124.45 32.85 125.6 35.85 126.85 38.1 129.35 40.65 131.7 41.9 134.85 42.75 136.55 42.8 139.0 43.15 139.9 43.15 140.8 43.15 144.3 41.9 147.35 41.1 149.45 39.4 151.4 L38.1 152.75 Q35.85 155.15 32.95 156.25 30.3 157.5 27.3 157.5 L26.3 157.5 Q22.9 157.5 19.95 156.5 16.95 155.3 14.3 152.75 12.9 151.4 12.3 150.25 11.3 148.85 10.7 147.35 10.05 145.45 9.55 143.35 M38.25 148.45 Q39.6 146.8 40.15 144.95 41.35 142.55 41.35 139.5 41.35 136.55 40.15 134.4 39.15 131.7 37.1 129.6 35.3 127.55 32.35 126.6 29.95 125.4 26.9 125.4 24.15 125.4 21.5 126.6 18.85 127.55 16.95 129.6 14.7 131.7 13.7 134.4 13.05 135.65 12.9 137.15 L12.8 139.5 Q12.8 141.55 13.05 143.35 L13.7 144.95 14.95 147.5 Q15.85 148.75 16.95 149.45 18.85 151.75 21.5 152.75 24.15 153.65 26.9 153.65 L27.8 153.65 Q30.3 153.5 32.35 152.65 35.3 151.5 37.1 149.45 L38.25 148.45" fill="#e7f8ff" fill-rule="evenodd" stroke="none"/>
    <path d="M65.05 155.15 L71.2 157.5 Q70.1 159.7 69.55 161.2 L67.45 164.7 Q64.45 168.9 60.75 172.4 L60.55 172.4 54.1 165.85 54.1 166.2 Q48.55 171.6 41.65 174.3 L44.25 180.05 45.25 182.85 42.25 184.2 40.75 184.7 Q34.1 186.25 26.9 186.25 L26.9 177.2 Q19.2 177.2 12.3 174.3 L9.0 181.8 8.55 182.85 Q0.5 179.6 -5.85 173.65 L-6.6 172.55 -5.8 171.85 -0.05 165.85 Q-4.45 161.95 -7.05 157.25 L-8.45 153.85 -17.4 157.5 Q-18.4 155.3 -19.2 152.75 -20.4 148.25 -20.8 143.35 L-20.95 139.5 -16.8 139.5 -11.25 139.5 Q-11.25 135.9 -10.6 132.45 L-8.85 134.85 -7.6 135.9 Q-0.55 143.35 9.55 143.35 10.05 145.45 10.7 147.35 11.3 148.85 12.3 150.25 12.9 151.4 14.3 152.75 16.95 155.3 19.95 156.5 22.9 157.5 26.3 157.5 L27.3 157.5 Q30.3 157.5 32.95 156.25 35.85 155.15 38.1 152.75 L39.4 151.4 Q41.1 149.45 41.9 147.35 43.15 144.3 43.15 140.8 43.15 139.9 42.8 139.0 L47.55 138.55 Q56.6 137.5 65.05 140.2 L65.05 142.9 65.05 143.35 64.95 145.3 63.75 150.25 62.55 153.85 65.05 155.15 M12.9 137.15 Q13.05 135.65 13.7 134.4 14.7 131.7 16.95 129.6 18.85 127.55 21.5 126.6 24.15 125.4 26.9 125.4 29.95 125.4 32.35 126.6 35.3 127.55 37.1 129.6 39.15 131.7 40.15 134.4 41.35 136.55 41.35 139.5 41.35 142.55 40.15 144.95 39.6 146.8 38.25 148.45 L38.25 146.05 Q38.25 143.35 37.2 140.45 L37.1 140.2 Q35.95 138.0 34.1 136.15 31.95 134.1 29.4 133.0 26.9 132.0 24.15 132.0 21.2 132.0 18.45 133.0 15.85 134.1 13.8 136.15 13.2 136.55 12.9 137.15" fill="#cbe4ee" fill-rule="evenodd" stroke="none"/>
    <path d="M66.45 143.35 L66.45 143.45 Q66.45 149.2 65.2 154.25 65.05 154.5 65.05 155.15 L62.55 153.85 63.75 150.25 64.95 145.3 65.05 143.35 65.05 142.9 65.05 140.2 65.05 139.8 66.45 143.35 M71.2 157.5 L71.2 161.95 Q68.8 167.45 65.05 172.4 L63.15 174.8 60.15 177.9 60.55 172.4 60.75 172.4 Q64.45 168.9 67.45 164.7 L69.55 161.2 Q70.1 159.7 71.2 157.5 M54.5 172.15 L54.5 172.25 54.2 172.4 53.85 173.05 Q49.15 177.2 44.25 180.05 L41.65 174.3 Q48.55 171.6 54.1 166.2 L54.5 172.15 M45.25 182.85 L44.05 188.1 44.25 188.5 Q37.35 191.5 29.7 192.05 L27.5 192.25 24.9 192.25 26.9 186.25 Q34.1 186.25 40.75 184.7 L42.25 184.2 45.25 182.85 M24.5 184.7 Q16.35 184.7 9.0 181.8 L12.3 174.3 Q19.2 177.2 26.9 177.2 L24.5 184.7 M-5.8 171.85 Q-8.25 169.25 -10.25 166.25 -12.6 162.85 -13.9 159.3 L-8.45 153.85 -7.05 157.25 Q-4.45 161.95 -0.05 165.85 L-5.8 171.85 M-21.05 162.1 L-21.4 162.1 Q-24.95 153.65 -24.95 143.7 L-24.95 143.35 -24.85 143.35 -20.95 139.5 -20.8 143.35 Q-20.4 148.25 -19.2 152.75 -18.4 155.3 -17.4 157.5 L-21.05 162.1 M-16.8 139.5 L-16.5 136.55 Q-15.9 132.6 -14.1 128.55 L-13.9 127.85 -13.9 127.7 -8.45 125.15 -9.1 126.85 Q-10.25 129.45 -10.6 132.35 L-10.6 132.45 Q-11.25 135.9 -11.25 139.5 L-16.8 139.5 M-21.4 124.45 L-20.2 121.75 -19.3 120.4 Q-16.0 114.45 -10.6 109.05 L-10.5 108.95 -10.35 108.95 -7.25 106.8 -9.45 109.3 Q-13.5 114.1 -16.0 118.9 L-17.25 121.55 -17.4 121.55 -17.25 121.75 -21.4 124.45 M-1.45 111.7 Q3.2 107.8 8.4 105.65 8.55 105.45 9.0 105.45 L12.3 105.05 10.5 105.65 9.3 106.3 Q5.0 108.3 1.45 111.95 L-0.05 113.1 -1.45 111.7" fill="#b3c8d0" fill-rule="evenodd" stroke="none"/>
    <path d="M629.5 29.95 L623.05 36.25 623.8 37.25 624.7 38.15 Q629.1 42.8 631.25 48.3 L640.15 44.7 Q643.7 52.85 643.7 62.65 L634.0 62.65 634.0 62.95 634.0 63.35 Q625.55 60.65 616.5 61.7 L611.75 62.15 Q611.7 59.7 610.85 58.0 609.6 54.85 607.05 52.5 604.8 50.0 601.8 48.75 598.6 47.6 595.25 47.6 591.85 47.6 588.9 48.75 585.9 50.0 583.3 52.5 L583.25 52.5 Q580.9 54.85 579.65 58.0 579.0 59.45 578.5 61.2 L578.45 63.95 578.5 66.5 Q568.4 66.5 561.35 59.05 L560.1 58.0 558.35 55.6 558.35 55.5 Q558.7 52.6 559.85 50.0 L560.5 48.3 551.7 44.9 551.55 44.7 551.7 44.7 Q552.15 43.4 552.95 42.05 555.45 37.25 559.5 32.45 L561.7 29.95 Q561.7 29.7 562.15 29.7 L562.35 29.7 567.5 34.85 568.9 36.25 570.4 35.1 Q573.95 31.45 578.25 29.45 L579.45 28.8 581.25 28.2 581.25 27.95 577.5 19.25 Q586.0 15.95 595.85 15.95 L595.85 25.2 Q603.65 25.2 610.2 27.85 L610.6 27.95 614.2 19.25 Q622.7 22.8 629.7 29.7 L629.5 29.95" fill="#ecf9ff" fill-rule="evenodd" stroke="none"/>
    <path d="M624.7 38.15 L623.8 37.25 623.05 36.25 629.5 29.95 628.3 34.85 624.7 38.15 M577.5 19.25 L581.25 27.95 581.25 28.2 577.95 28.6 574.95 22.25 577.5 19.25 M551.7 44.9 L560.5 48.3 555.05 50.85 547.55 47.7 547.55 47.6 551.7 44.9 M634.0 62.95 L634.0 62.65 643.7 62.65 643.7 66.5 635.4 66.5 634.0 62.95 M629.1 101.05 L623.45 95.3 623.05 89.35 623.05 89.0 629.5 95.55 629.1 101.05 M593.85 115.4 L593.85 107.85 593.45 107.85 595.85 100.35 595.85 109.4 593.85 115.4 M577.5 106.0 L574.7 111.8 Q566.0 108.4 558.6 101.35 L562.35 95.7 563.1 96.8 Q569.45 102.75 577.5 106.0 M555.05 82.45 L555.05 82.3 554.85 82.3 547.9 85.25 551.55 80.65 560.5 77.0 555.05 82.45" fill="#9cbfcb" fill-rule="evenodd" stroke="none"/>
    <path d="M581.25 28.2 L579.45 28.8 578.25 29.45 Q573.95 31.45 570.4 35.1 L568.9 36.25 567.5 34.85 Q572.15 30.95 577.35 28.8 577.5 28.6 577.95 28.6 L581.25 28.2 M561.7 29.95 L559.5 32.45 Q555.45 37.25 552.95 42.05 552.15 43.4 551.7 44.7 L551.55 44.7 551.7 44.9 547.55 47.6 548.75 44.9 549.65 43.55 Q552.95 37.6 558.35 32.2 L558.45 32.1 558.6 32.1 561.7 29.95 M560.5 48.3 L559.85 50.0 Q558.7 52.6 558.35 55.5 L558.35 55.6 Q557.7 59.05 557.7 62.65 L552.15 62.65 Q552.15 61.15 552.45 59.7 553.05 55.75 554.85 51.7 L555.05 51.0 555.05 50.85 560.5 48.3 M634.0 63.35 L634.0 62.95 635.4 66.5 635.4 66.6 Q635.4 72.35 634.15 77.4 634.0 77.65 634.0 78.3 L631.5 77.0 632.7 73.4 633.9 68.45 634.0 66.5 634.0 66.05 634.0 63.35 M640.15 80.65 L640.15 85.1 Q637.75 90.6 634.0 95.55 L632.1 97.95 629.1 101.05 629.5 95.55 629.7 95.55 Q633.4 92.05 636.4 87.85 L638.5 84.35 Q639.05 82.85 640.15 80.65 M623.45 95.3 L623.45 95.4 623.15 95.55 622.8 96.2 Q618.1 100.35 613.2 103.2 L610.6 97.45 Q617.5 94.75 623.05 89.35 L623.45 95.3 M614.2 106.0 L613.0 111.25 613.2 111.65 Q606.3 114.65 598.65 115.2 L596.45 115.4 593.85 115.4 595.85 109.4 Q603.05 109.4 609.7 107.85 L611.2 107.35 614.2 106.0 M593.45 107.85 Q585.3 107.85 577.95 104.95 L581.25 97.45 Q588.15 100.35 595.85 100.35 L593.45 107.85 M563.15 95.0 Q560.7 92.4 558.7 89.4 556.35 86.0 555.05 82.45 L560.5 77.0 561.9 80.4 Q564.5 85.1 568.9 89.0 L563.15 95.0 M547.9 85.25 L547.55 85.25 Q544.0 76.8 544.0 66.85 L544.0 66.5 544.1 66.5 548.0 62.65 548.15 66.5 Q548.55 71.4 549.75 75.9 550.55 78.45 551.55 80.65 L547.9 85.25" fill="#b3c8d0" fill-rule="evenodd" stroke="none"/>
    <path d="M578.5 66.5 L578.45 63.95 578.5 61.2 Q579.0 59.45 579.65 58.0 580.9 54.85 583.25 52.5 L583.3 52.5 Q585.9 50.0 588.9 48.75 591.85 47.6 595.25 47.6 598.6 47.6 601.8 48.75 604.8 50.0 607.05 52.5 609.6 54.85 610.85 58.0 611.7 59.7 611.75 62.15 L612.1 63.95 Q612.1 67.45 610.85 70.5 610.05 72.6 608.35 74.55 L607.05 75.9 Q604.8 78.3 601.9 79.4 599.25 80.65 596.25 80.65 L595.25 80.65 Q591.85 80.65 588.9 79.65 585.9 78.45 583.25 75.9 581.85 74.55 581.25 73.4 L579.65 70.5 578.5 66.5 M607.2 71.6 Q608.55 69.95 609.1 68.1 610.3 65.7 610.3 62.65 610.3 59.7 609.1 57.55 608.1 54.85 606.05 52.75 604.25 50.7 601.3 49.75 598.9 48.55 595.85 48.55 593.1 48.55 590.45 49.75 587.8 50.7 585.9 52.75 583.65 54.85 582.65 57.55 582.0 58.8 581.85 60.3 L581.75 62.65 Q581.75 64.7 582.0 66.5 L582.65 68.1 583.9 70.65 Q584.8 71.9 585.9 72.6 587.8 74.9 590.45 75.9 593.1 76.8 595.85 76.8 L596.75 76.8 Q599.25 76.65 601.3 75.8 604.25 74.65 606.05 72.6 L607.2 71.6" fill="#e7f8ff" fill-rule="evenodd" stroke="none"/>
    <path d="M558.35 55.6 L560.1 58.0 561.35 59.05 Q568.4 66.5 578.5 66.5 L579.65 70.5 581.25 73.4 Q581.85 74.55 583.25 75.9 585.9 78.45 588.9 79.65 591.85 80.65 595.25 80.65 L596.25 80.65 Q599.25 80.65 601.9 79.4 604.8 78.3 607.05 75.9 L608.35 74.55 Q610.05 72.6 610.85 70.5 612.1 67.45 612.1 63.95 L611.75 62.15 616.5 61.7 Q625.55 60.65 634.0 63.35 L634.0 66.05 634.0 66.5 633.9 68.45 632.7 73.4 631.5 77.0 634.0 78.3 640.15 80.65 Q639.05 82.85 638.5 84.35 L636.4 87.85 Q633.4 92.05 629.7 95.55 L629.5 95.55 623.05 89.0 623.05 89.35 Q617.5 94.75 610.6 97.45 L613.2 103.2 614.2 106.0 611.2 107.35 609.7 107.85 Q603.05 109.4 595.85 109.4 L595.85 100.35 Q588.15 100.35 581.25 97.45 L577.95 104.95 577.5 106.0 Q569.45 102.75 563.1 96.8 L562.35 95.7 563.15 95.0 568.9 89.0 Q564.5 85.1 561.9 80.4 L560.5 77.0 551.55 80.65 Q550.55 78.45 549.75 75.9 548.55 71.4 548.15 66.5 L548.0 62.65 552.15 62.65 557.7 62.65 Q557.7 59.05 558.35 55.6 M607.2 71.6 L607.2 69.2 Q607.2 66.5 606.15 63.6 L606.05 63.35 Q604.9 61.15 603.05 59.3 600.9 57.25 598.35 56.15 595.85 55.15 593.1 55.15 590.15 55.15 587.4 56.15 584.8 57.25 582.75 59.3 582.15 59.7 581.85 60.3 582.0 58.8 582.65 57.55 583.65 54.85 585.9 52.75 587.8 50.7 590.45 49.75 593.1 48.55 595.85 48.55 598.9 48.55 601.3 49.75 604.25 50.7 606.05 52.75 608.1 54.85 609.1 57.55 610.3 59.7 610.3 62.65 610.3 65.7 609.1 68.1 608.55 69.95 607.2 71.6" fill="#cbe4ee" fill-rule="evenodd" stroke="none"/>
    <path d="M99.75 -118.85 L100.5 -125.5 Q107.0 -124.7 113.15 -121.3 L113.1 -121.15 113.2 -117.55 111.45 -114.6 Q115.3 -112.15 117.85 -108.8 L123.25 -112.95 Q127.15 -107.85 129.0 -101.3 L128.95 -101.3 129.75 -98.65 124.2 -97.15 124.25 -97.1 Q125.35 -93.25 125.5 -89.5 L125.5 -88.9 130.15 -88.45 130.1 -88.2 131.0 -85.25 Q130.4 -81.05 128.85 -76.9 L128.0 -74.95 126.5 -72.35 121.55 -75.15 121.45 -74.95 121.2 -74.6 Q118.9 -70.8 116.0 -67.95 L117.35 -66.25 117.3 -66.1 117.5 -62.4 117.65 -62.2 Q113.6 -58.95 108.55 -57.05 L107.0 -56.45 105.25 -55.95 105.2 -55.95 103.7 -61.3 103.55 -61.25 103.5 -61.25 Q97.9 -59.75 92.3 -60.2 L92.3 -59.35 91.45 -55.0 Q84.8 -55.7 78.45 -59.2 L78.4 -59.25 78.6 -59.6 79.75 -63.5 80.25 -64.3 Q78.1 -65.55 76.25 -67.2 74.0 -69.25 72.3 -71.35 L72.25 -71.4 72.15 -71.4 67.95 -68.15 67.8 -68.1 Q63.55 -73.2 61.6 -80.05 L61.55 -80.2 61.7 -80.25 63.65 -83.65 66.45 -84.4 66.15 -86.35 Q65.8 -89.2 66.2 -92.25 L66.2 -92.9 66.2 -93.05 66.15 -93.05 60.4 -93.75 60.5 -93.9 60.85 -95.9 61.05 -97.0 Q62.15 -101.75 64.85 -106.4 L64.95 -106.6 65.0 -106.6 66.7 -108.65 66.85 -108.85 66.95 -108.85 71.55 -106.3 Q74.05 -109.75 77.2 -112.1 L77.6 -112.4 74.4 -116.3 75.5 -118.75 Q80.65 -122.55 87.35 -124.4 L89.15 -118.1 Q94.45 -119.55 99.45 -118.85 L99.75 -118.85 M102.75 -84.6 Q104.35 -85.7 105.25 -87.45 L105.85 -88.4 105.45 -90.1 Q104.9 -92.0 103.7 -93.65 L103.45 -93.9 Q102.35 -95.15 100.7 -96.05 98.8 -97.05 96.9 -97.3 L92.95 -97.05 Q90.95 -96.5 89.4 -95.25 87.8 -94.1 86.85 -92.3 L86.4 -91.35 Q86.45 -90.55 86.65 -89.85 87.05 -88.4 87.65 -87.25 L88.45 -86.2 89.85 -84.85 91.4 -83.75 Q93.25 -82.65 95.25 -82.45 L99.1 -82.85 99.7 -83.0 Q101.35 -83.5 102.75 -84.6" fill="#b1c4cb" fill-rule="evenodd" stroke="none"/>
    <path d="M99.75 -118.85 L100.5 -125.5 Q107.0 -124.7 113.15 -121.3 L113.1 -121.15 113.2 -117.55 111.45 -114.6 Q115.3 -112.15 117.85 -108.8 L123.25 -112.95 Q127.15 -107.85 129.0 -101.3 L128.95 -101.3 129.75 -98.65 124.2 -97.15 124.25 -97.1 Q125.35 -93.25 125.5 -89.5 L125.5 -88.9 130.15 -88.45 130.1 -88.2 131.0 -85.25 Q130.4 -81.05 128.85 -76.9 L128.0 -74.95 126.5 -72.35 121.55 -75.15 121.45 -74.95 121.2 -74.6 Q118.9 -70.8 116.0 -67.95 L117.35 -66.25 117.3 -66.1 117.5 -62.4 117.65 -62.2 Q113.6 -58.95 108.55 -57.05 L107.0 -56.45 105.25 -55.95 105.2 -55.95 103.7 -61.3 103.55 -61.25 103.5 -61.25 Q97.9 -59.75 92.3 -60.2 L92.3 -59.35 91.45 -55.0 Q84.8 -55.7 78.45 -59.2 L78.4 -59.25 78.6 -59.6 79.75 -63.5 80.25 -64.3 Q78.1 -65.55 76.25 -67.2 74.0 -69.25 72.3 -71.35 L72.25 -71.4 72.15 -71.4 67.95 -68.15 67.8 -68.1 Q63.55 -73.2 61.6 -80.05 L61.55 -80.2 61.7 -80.25 63.65 -83.65 66.45 -84.4 66.15 -86.35 Q65.8 -89.2 66.2 -92.25 L66.2 -92.9 66.2 -93.05 66.15 -93.05 60.4 -93.75 60.5 -93.9 60.85 -95.9 61.05 -97.0 Q62.15 -101.75 64.85 -106.4 L64.95 -106.6 65.0 -106.6 66.7 -108.65 66.85 -108.85 66.95 -108.85 71.55 -106.3 Q74.05 -109.75 77.2 -112.1 L77.6 -112.4 74.4 -116.3 75.5 -118.75 Q80.65 -122.55 87.35 -124.4 L89.15 -118.1 Q94.45 -119.55 99.45 -118.85 L99.75 -118.85 M102.75 -84.6 Q101.35 -83.5 99.7 -83.0 L99.1 -82.85 95.25 -82.45 Q93.25 -82.65 91.4 -83.75 L89.85 -84.85 88.45 -86.2 87.65 -87.25 Q87.05 -88.4 86.65 -89.85 86.45 -90.55 86.4 -91.35 L86.85 -92.3 Q87.8 -94.1 89.4 -95.25 90.95 -96.5 92.95 -97.05 L96.9 -97.3 Q98.8 -97.05 100.7 -96.05 102.35 -95.15 103.45 -93.9 L103.7 -93.65 Q104.9 -92.0 105.45 -90.1 L105.85 -88.4 105.25 -87.45 Q104.35 -85.7 102.75 -84.6" fill="none" stroke="#005c8e" stroke-linecap="round" stroke-linejoin="round" stroke-width="4.0"/>
    <path d="M86.45 -91.3 Q86.25 -92.45 86.4 -93.55 86.55 -95.45 87.55 -97.3 88.65 -99.15 90.25 -100.2 91.7 -101.5 93.65 -102.0 L97.75 -102.2 Q99.7 -102.05 101.4 -101.0 103.25 -99.95 104.6 -98.5 105.7 -97.05 106.25 -95.1 L106.25 -95.0 Q106.85 -92.95 106.65 -91.1 106.5 -89.75 105.85 -88.35 L105.45 -90.0 Q104.9 -91.9 103.7 -93.6 L103.5 -93.8 Q102.35 -95.1 100.75 -95.95 98.85 -96.95 96.95 -97.25 L92.95 -96.95 Q90.95 -96.4 89.45 -95.2 87.85 -94.0 86.9 -92.2 86.5 -91.8 86.45 -91.3" fill="#83979f" fill-rule="evenodd" stroke="none"/>
    <path d="M105.85 -88.35 Q106.5 -89.75 106.65 -91.1 106.85 -92.95 106.25 -95.0 L106.25 -95.1 Q105.7 -97.05 104.6 -98.5 103.25 -99.95 101.4 -101.0 99.7 -102.05 97.75 -102.2 L93.65 -102.0 Q91.7 -101.5 90.25 -100.2 88.65 -99.15 87.55 -97.3 86.55 -95.45 86.4 -93.55 86.25 -92.45 86.45 -91.3 86.5 -90.45 86.7 -89.75 87.1 -88.3 87.7 -87.2 L88.45 -86.15 89.85 -84.75 91.4 -83.65 Q93.3 -82.6 95.25 -82.35 97.15 -82.2 99.15 -82.8 L99.75 -82.95 Q101.4 -83.4 102.8 -84.5 104.35 -85.6 105.25 -87.35 L105.85 -88.35 M85.35 -86.6 L84.75 -88.25 Q84.5 -89.15 84.4 -90.1 84.25 -91.4 84.5 -92.7 84.7 -95.0 85.75 -97.1 L85.8 -97.1 Q87.0 -99.25 88.85 -100.55 90.7 -101.95 93.05 -102.55 L97.75 -103.0 Q100.05 -102.7 102.05 -101.5 104.25 -100.25 105.75 -98.45 106.7 -97.3 107.3 -95.65 L107.7 -94.5 Q108.4 -92.0 108.15 -89.85 108.0 -88.25 107.3 -86.55 L106.55 -85.45 Q105.55 -83.4 103.75 -82.05 102.1 -80.85 100.15 -80.15 L99.5 -79.95 94.75 -79.55 Q92.5 -79.8 90.25 -81.05 89.25 -81.6 88.45 -82.45 L86.9 -84.05 Q86.0 -85.2 85.35 -86.6" fill="#d5eef7" fill-rule="evenodd" stroke="none"/>
    <path d="M75.55 -118.7 Q80.7 -122.5 87.4 -124.35 L89.2 -118.0 Q94.5 -119.45 99.45 -118.75 L99.8 -118.8 100.55 -125.45 Q107.05 -124.6 113.2 -121.2 L113.15 -121.05 109.85 -115.5 110.7 -115.05 111.45 -114.55 Q115.3 -112.05 117.85 -108.75 L123.25 -112.85 Q127.2 -107.8 129.05 -101.2 L129.0 -101.2 122.5 -99.45 122.55 -99.35 122.65 -98.95 Q116.3 -99.2 110.35 -96.8 L107.3 -95.65 Q106.7 -97.3 105.75 -98.45 104.25 -100.25 102.05 -101.5 100.05 -102.7 97.75 -103.0 L93.05 -102.55 Q90.7 -101.95 88.85 -100.55 87.0 -99.25 85.8 -97.1 L85.75 -97.1 Q84.7 -95.0 84.5 -92.7 84.25 -91.4 84.4 -90.1 84.5 -89.15 84.75 -88.25 L85.35 -86.6 Q78.35 -84.75 72.05 -88.45 71.55 -88.7 71.05 -89.05 L69.45 -90.3 69.4 -90.4 Q69.15 -92.45 69.3 -94.45 L69.45 -95.6 62.7 -96.45 62.65 -96.45 62.75 -96.55 63.1 -98.55 Q63.85 -102.3 65.65 -106.25 L66.75 -108.55 66.9 -108.75 67.0 -108.75 71.55 -106.2 72.85 -105.5 73.65 -106.55 Q75.4 -109.65 77.9 -111.8 L78.75 -112.4 79.75 -113.3 79.75 -113.4 75.55 -118.7" fill="#bbd4de" fill-rule="evenodd" stroke="none"/>
    <path d="M79.75 -113.3 L78.75 -112.4 77.9 -111.8 Q75.4 -109.65 73.65 -106.55 L72.85 -105.5 71.55 -106.2 Q74.1 -109.65 77.25 -112.0 L77.6 -112.3 79.75 -113.3 M66.75 -108.55 L65.65 -106.25 Q63.85 -102.3 63.1 -98.55 L62.75 -96.55 62.65 -96.45 62.7 -96.45 60.5 -93.8 60.85 -95.8 Q60.9 -96.4 61.1 -96.9 62.2 -101.65 64.85 -106.3 L65.0 -106.5 65.05 -106.5 66.75 -108.55 M69.45 -95.6 L69.3 -94.45 Q69.15 -92.45 69.4 -90.4 L69.45 -90.3 Q69.6 -87.9 70.3 -85.35 L66.5 -84.3 Q66.25 -85.25 66.15 -86.3 65.85 -89.15 66.25 -92.2 L66.2 -92.8 66.25 -92.95 66.2 -92.95 69.45 -95.6 M122.65 -98.95 L122.55 -99.35 124.25 -97.1 124.25 -97.0 Q125.4 -93.15 125.5 -89.4 L125.5 -88.85 123.5 -89.2 123.7 -92.0 123.45 -95.4 123.25 -96.8 123.15 -97.15 122.65 -98.95 M111.45 -114.55 L110.7 -115.05 109.85 -115.5 113.15 -121.05 113.2 -117.45 111.45 -114.55 M63.7 -83.55 L64.55 -80.95 Q65.75 -77.75 67.45 -74.85 L69.6 -71.8 68.0 -68.05 67.85 -68.0 Q63.6 -73.15 61.65 -80.0 L61.6 -80.15 61.75 -80.2 63.7 -83.55 M75.0 -76.05 L76.65 -74.05 Q79.35 -71.2 83.0 -69.3 L80.3 -64.25 Q78.1 -65.45 76.3 -67.15 74.0 -69.15 72.35 -71.25 L75.0 -76.05 M92.35 -60.15 L93.1 -65.85 Q98.35 -65.2 103.65 -66.7 L103.65 -66.65 103.55 -61.15 103.5 -61.15 Q97.9 -59.65 92.35 -60.15 M105.45 -60.35 Q110.4 -61.7 114.6 -64.1 L115.55 -64.75 117.3 -66.05 117.5 -62.3 117.65 -62.1 Q113.6 -58.9 108.55 -57.0 L107.05 -56.4 105.3 -55.9 105.45 -60.35 M116.05 -67.85 L113.25 -71.3 Q117.4 -74.5 120.1 -79.2 L121.55 -74.95 121.45 -74.9 121.25 -74.5 Q118.9 -70.75 116.05 -67.85 M125.8 -76.05 L126.0 -76.0 Q127.8 -79.2 128.95 -82.6 L129.65 -85.4 130.1 -88.25 130.15 -88.15 130.15 -88.1 131.0 -85.2 Q130.4 -80.95 128.85 -76.85 L128.0 -74.85 126.55 -72.25 125.8 -76.05" fill="#6f8891" fill-rule="evenodd" stroke="none"/>
    <path d="M75.55 -118.7 L79.75 -113.4 79.75 -113.3 77.6 -112.3 74.4 -116.2 75.55 -118.7 M62.7 -96.45 L69.45 -95.6 66.2 -92.95 60.45 -93.65 60.5 -93.8 62.7 -96.45 M122.55 -99.35 L122.5 -99.45 129.0 -101.2 129.8 -98.6 124.25 -97.1 122.55 -99.35 M68.0 -68.05 L69.6 -71.8 75.0 -76.05 72.35 -71.25 72.3 -71.3 Q72.2 -71.25 72.15 -71.35 L68.0 -68.05 M79.8 -63.45 L80.5 -63.05 Q86.15 -60.1 92.3 -59.35 L92.3 -59.3 91.5 -54.95 Q84.85 -55.6 78.5 -59.15 L78.4 -59.15 78.65 -59.55 79.8 -63.45 M103.65 -66.65 L105.45 -60.35 105.3 -55.9 105.25 -55.9 103.7 -61.2 103.55 -61.15 103.65 -66.65 M120.1 -79.2 L120.05 -79.3 125.8 -76.05 126.55 -72.25 121.55 -75.1 121.55 -74.95 120.1 -79.2" fill="#516870" fill-rule="evenodd" stroke="none"/>
    <path d="M69.45 -90.3 L71.05 -89.05 Q71.55 -88.7 72.05 -88.45 78.35 -84.75 85.35 -86.6 86.0 -85.2 86.9 -84.05 L88.45 -82.45 Q89.25 -81.6 90.25 -81.05 92.5 -79.8 94.75 -79.55 L99.5 -79.95 100.15 -80.15 Q102.1 -80.85 103.75 -82.05 105.55 -83.4 106.55 -85.45 L107.3 -86.55 Q108.0 -88.25 108.15 -89.85 108.4 -92.0 107.7 -94.5 L107.3 -95.65 110.35 -96.8 Q116.3 -99.2 122.65 -98.95 L123.15 -97.15 123.25 -96.8 123.45 -95.4 123.7 -92.0 123.5 -89.2 125.5 -88.85 130.15 -88.4 130.15 -88.15 130.1 -88.25 129.65 -85.4 128.95 -82.6 Q127.8 -79.2 126.0 -76.0 L125.8 -76.05 120.05 -79.3 120.1 -79.2 Q117.4 -74.5 113.25 -71.3 L116.05 -67.85 117.4 -66.15 117.3 -66.05 115.55 -64.75 114.6 -64.1 Q110.4 -61.7 105.45 -60.35 L103.65 -66.65 103.65 -66.7 Q98.35 -65.2 93.1 -65.85 L92.35 -60.15 92.3 -59.35 Q86.15 -60.1 80.5 -63.05 L79.8 -63.45 80.3 -64.25 83.0 -69.3 Q79.35 -71.2 76.65 -74.05 L75.0 -76.05 69.6 -71.8 67.45 -74.85 Q65.75 -77.75 64.55 -80.95 L63.7 -83.55 66.5 -84.3 70.3 -85.35 Q69.6 -87.9 69.45 -90.3" fill="#b1c4cb" fill-rule="evenodd" stroke="none"/>
  </g>
</svg>
