<?xml version="1.0" encoding="UTF-8" standalone="no"?>
<svg xmlns:xlink="http://www.w3.org/1999/xlink" height="8.2px" width="8.2px" xmlns="http://www.w3.org/2000/svg">
  <g transform="matrix(1.0, 0.0, 0.0, 1.0, 0.0, 0.0)">
    <path d="M1.2 7.0 Q0.0 5.8 0.0 4.1 0.0 2.4 1.2 1.2 2.4 0.0 4.1 0.0 5.8 0.0 7.0 1.2 8.2 2.4 8.2 4.1 8.2 5.8 7.0 7.0 5.8 8.2 4.1 8.2 2.4 8.2 1.2 7.0" fill="url(#gradient0)" fill-rule="evenodd" stroke="none"/>
    <path d="M5.9 1.45 Q5.9 2.0 5.35 2.4 4.75 2.8 4.0 2.8 3.25 2.8 2.65 2.4 2.05 2.0 2.05 1.4 2.05 0.85 2.65 0.45 3.25 0.1 4.0 0.1 L5.35 0.45 Q5.9 0.85 5.9 1.45" fill="url(#gradient1)" fill-rule="evenodd" stroke="none"/>
    <path d="M0.9 6.65 L6.65 0.95 7.25 1.5 1.55 7.3 0.9 6.65" fill="#4e4f51" fill-rule="evenodd" stroke="none"/>
    <path d="M5.1 5.1 Q4.7 5.5 4.1 5.5 3.5 5.5 3.1 5.1 2.7 4.7 2.7 4.1 2.7 3.5 3.1 3.1 3.5 2.7 4.1 2.7 4.7 2.7 5.1 3.1 5.5 3.5 5.5 4.1 5.5 4.7 5.1 5.1" fill="#303938" fill-rule="evenodd" stroke="none"/>
  </g>
  <defs>
    <linearGradient gradientTransform="matrix(0.0034, 0.0059, -0.0043, 0.0025, 5.1, 5.5)" gradientUnits="userSpaceOnUse" id="gradient0" spreadMethod="pad" x1="-819.2" x2="819.2">
      <stop offset="0.0" stop-color="#b7c2be"/>
      <stop offset="1.0" stop-color="#868781"/>
    </linearGradient>
    <linearGradient gradientTransform="matrix(0.0, 0.0015, -0.0016, 0.0, 3.95, 1.85)" gradientUnits="userSpaceOnUse" id="gradient1" spreadMethod="pad" x1="-819.2" x2="819.2">
      <stop offset="0.0" stop-color="#ffffff" stop-opacity="0.6"/>
      <stop offset="1.0" stop-color="#ffffff" stop-opacity="0.0"/>
    </linearGradient>
  </defs>
</svg>
