<?xml version="1.0" encoding="UTF-8" standalone="no"?>
<svg xmlns:xlink="http://www.w3.org/1999/xlink" height="30.05px" width="30.0px" xmlns="http://www.w3.org/2000/svg">
  <g transform="matrix(1.0, 0.0, 0.0, 1.0, 0.0, 0.0)">
    <path d="M20.3 23.45 L20.7 21.2 18.6 21.35 16.65 21.75 Q16.1 21.75 15.2 21.25 L14.2 20.55 Q13.2 20.65 12.55 20.25 L11.1 19.45 11.05 19.4 10.95 19.35 7.8 19.2 6.1 18.3 Q4.45 17.05 3.95 14.25 3.65 12.45 4.35 10.75 4.9 9.1 6.25 7.8 7.9 6.0 9.2 5.2 11.1 4.1 13.2 3.9 15.1 3.75 16.8 4.35 17.55 4.55 18.1 5.15 L19.55 6.3 20.5 7.55 20.9 8.35 21.3 9.2 21.55 10.5 21.65 11.75 21.55 13.05 21.5 14.1 22.05 15.25 22.15 15.5 22.3 17.2 22.25 17.4 22.05 18.0 21.65 20.4 24.1 20.25 24.1 20.4 23.6 22.3 25.0 22.1 25.0 22.2 25.05 22.65 23.45 22.95 22.95 24.75 22.45 24.6 22.8 23.1 20.35 23.55 20.4 23.45 20.3 23.45 M21.15 22.7 L22.95 22.45 23.35 21.1 21.45 21.15 21.15 22.7 M20.95 19.75 L20.55 20.15 20.2 20.45 20.85 20.45 20.95 19.75" fill="#7f796c" fill-rule="evenodd" stroke="none"/>
    <path d="M20.3 23.45 L20.7 21.2 18.6 21.35 16.65 21.75 Q16.1 21.75 15.2 21.25 L14.2 20.55 Q13.2 20.65 12.55 20.25 L11.1 19.45 11.05 19.4 10.95 19.35 7.8 19.2 6.1 18.3 Q4.45 17.05 3.95 14.25 3.65 12.45 4.35 10.75 4.9 9.1 6.25 7.8 7.9 6.0 9.2 5.2 11.1 4.1 13.2 3.9 15.1 3.75 16.8 4.35 17.55 4.55 18.1 5.15 L19.55 6.3 20.5 7.55 20.9 8.35 21.3 9.2 21.55 10.5 21.65 11.75 21.55 13.05 21.5 14.1 22.05 15.25 22.15 15.5 22.3 17.2 22.25 17.4 22.05 18.0 21.65 20.4 24.1 20.25 M24.1 20.4 L23.6 22.3 25.0 22.1 25.0 22.2 25.05 22.65 23.45 22.95 22.95 24.75 22.45 24.6 22.8 23.1 20.35 23.55" fill="none" stroke="#552b2d" stroke-linecap="round" stroke-linejoin="miter" stroke-width="2.0"/>
    <path d="M20.45 23.5 L20.6 22.8 25.05 22.05 25.15 22.6 20.45 23.5" fill="#8a8484" fill-rule="evenodd" stroke="none"/>
    <path d="M25.05 22.25 L25.1 22.35 20.5 23.05 20.55 22.95 25.05 22.25" fill="#e9e9e9" fill-rule="evenodd" stroke="none"/>
    <path d="M21.45 17.15 L22.25 17.25 21.1 23.35 20.4 23.4 21.45 17.15" fill="#afafaf" fill-rule="evenodd" stroke="none"/>
    <path d="M24.2 20.25 L24.0 21.0 18.5 21.3 18.45 20.5 24.2 20.25" fill="#7b7575" fill-rule="evenodd" stroke="none"/>
    <path d="M23.55 20.35 L24.2 20.35 23.05 24.75 22.45 24.55 23.55 20.35" fill="#b4b4b4" fill-rule="evenodd" stroke="none"/>
    <path d="M24.15 20.55 L24.1 20.75 18.5 20.95 18.45 20.75 24.15 20.55" fill="#c9c9c9" fill-rule="evenodd" stroke="none"/>
    <path d="M18.3 20.75 L18.45 20.75 18.5 20.95 18.35 20.95 18.3 20.75" fill="#c9c9c9" fill-rule="evenodd" stroke="none"/>
    <path d="M19.5 15.9 L20.35 14.95 Q21.4 16.4 22.05 18.2 L21.7 18.7 21.55 19.05 Q20.7 17.25 19.5 15.9" fill="#d0d0d0" fill-rule="evenodd" stroke="none"/>
    <path d="M21.55 19.05 L20.6 20.15 Q19.25 21.5 17.35 21.45 16.8 21.45 16.05 21.05 15.1 20.65 14.7 19.85 L14.15 19.5 Q15.15 19.55 16.3 18.7 L18.15 17.15 19.5 15.9 Q20.7 17.25 21.55 19.05 M20.35 14.95 Q21.1 13.95 21.1 13.35 L22.15 15.25 Q22.55 16.45 22.35 17.4 L22.05 18.2 Q21.4 16.4 20.35 14.95" fill="#9f9f9f" fill-rule="evenodd" stroke="none"/>
    <path d="M16.75 21.7 Q16.1 21.7 15.3 21.2 14.15 20.7 13.75 19.75 L13.1 19.25 13.9 19.2 Q14.8 20.8 16.75 21.7" fill="#a3a3a3" fill-rule="evenodd" stroke="none"/>
    <path d="M16.75 21.7 Q14.8 20.8 13.9 19.2 14.9 18.95 16.0 17.85 16.7 20.05 18.8 21.2 L16.75 21.7" fill="#797979" fill-rule="evenodd" stroke="none"/>
    <path d="M11.0 19.3 L9.25 18.15 8.75 17.6 Q8.75 15.3 9.2 12.9 10.05 8.25 12.3 7.95 13.9 7.7 16.25 6.1 17.8 5.0 18.8 5.9 20.6 7.7 21.4 10.8 22.0 13.6 21.1 15.8 16.8 20.65 11.0 19.3" fill="#7b1d20" fill-rule="evenodd" stroke="none"/>
    <path d="M21.1 15.8 L20.95 16.2 20.4 17.1 Q19.0 19.05 16.3 20.0 L12.65 20.25 11.95 19.85 11.0 19.3 Q16.8 20.65 21.1 15.8" fill="#a6292d" fill-rule="evenodd" stroke="none"/>
    <path d="M9.95 18.85 L12.95 18.15 15.9 16.75 Q14.65 18.65 11.8 19.9 L9.95 18.85" fill="#6d2a2c" fill-rule="evenodd" stroke="none"/>
    <path d="M18.2 12.25 Q17.25 14.35 15.1 16.7 12.95 18.95 11.6 19.3 L7.85 19.4 Q7.05 19.1 6.2 18.4 4.5 17.2 4.05 14.35 3.75 12.6 4.45 10.85 5.0 9.25 6.3 7.9 7.95 6.15 9.3 5.35 11.2 4.25 13.3 4.05 L16.85 4.45 Q18.55 5.05 19.0 6.8 19.65 8.9 18.2 12.25" fill="#c92122" fill-rule="evenodd" stroke="none"/>
    <path d="M11.15 19.4 L12.8 18.95 Q14.35 18.3 16.1 16.55 17.8 14.85 18.0 13.7" fill="none" stroke="#552b2d" stroke-linecap="round" stroke-linejoin="miter" stroke-width="0.25"/>
    <path d="M14.4 7.2 Q15.15 8.35 14.25 10.7 13.25 13.0 11.25 14.55 7.05 18.0 4.75 14.7 3.7 13.25 4.35 11.2 5.1 9.0 7.15 7.55 9.3 6.05 11.4 5.95 13.4 5.85 14.4 7.2" fill="#fc4c4d" fill-rule="evenodd" stroke="none"/>
    <path d="M15.7 15.15 L15.55 14.75 Q15.45 14.0 16.1 13.15 L14.65 10.8 16.3 11.75 15.9 9.25 15.35 7.35 16.85 9.95 17.15 7.7 17.3 10.45 17.7 10.25 18.55 10.0 Q18.95 10.0 19.05 10.7 L19.25 12.25 18.4 14.3 17.05 15.8 Q16.35 16.45 15.95 15.7 L15.7 15.15" fill="#722629" fill-rule="evenodd" stroke="none"/>
    <path d="M16.5 4.45 L17.05 4.65 Q18.85 5.5 20.05 7.0 L20.75 8.0 Q21.65 9.55 21.4 11.3 L21.4 11.35 Q21.25 14.1 19.85 15.25 18.5 16.35 17.6 16.4 16.7 16.4 16.4 15.85 15.9 14.95 16.25 14.05 L16.95 12.75 17.3 11.6 17.1 10.35 17.3 8.75 17.3 8.7 17.6 7.9 18.05 7.0 18.25 6.75 16.5 4.45" fill="#c92122" fill-rule="evenodd" stroke="none"/>
    <path d="M21.5 12.0 Q21.2 14.2 19.65 15.6 18.95 16.2 17.85 16.3 16.75 16.4 16.45 15.85 16.0 14.9 16.3 14.05 L17.0 12.75 17.35 11.55 Q17.45 10.85 17.15 10.35" fill="none" stroke="#552b2d" stroke-linecap="round" stroke-linejoin="miter" stroke-width="0.25"/>
    <path d="M20.7 11.8 L20.9 12.15 Q21.05 12.65 20.55 13.85 19.9 15.25 18.9 15.45 18.0 15.6 18.25 14.05 18.4 12.7 18.85 12.15 L19.65 11.55 Q20.2 11.35 20.7 11.8" fill="#e53c3f" fill-rule="evenodd" stroke="none"/>
    <path d="M25.6 4.4 Q30.0 8.8 30.0 15.0 30.0 21.2 25.6 25.6 21.2 30.05 15.0 30.05 8.8 30.05 4.4 25.6 0.0 21.2 0.0 15.0 0.0 8.8 4.4 4.4 8.8 0.0 15.0 0.0 21.2 0.0 25.6 4.4" fill="url(#gradient0)" fill-rule="evenodd" stroke="none"/>
    <path d="M15.45 0.2 Q19.4 0.2 22.2 1.9 25.0 3.55 25.0 5.95 25.0 8.3 22.2 9.95 19.4 11.65 15.45 11.65 11.45 11.65 8.65 9.95 5.85 8.3 5.85 5.95 5.85 3.55 8.65 1.9 11.45 0.2 15.45 0.2" fill="url(#gradient1)" fill-rule="evenodd" stroke="none"/>
  </g>
  <defs>
    <radialGradient cx="0" cy="0" gradientTransform="matrix(0.0188, 0.0, 0.0, 0.0188, 14.55, 14.0)" gradientUnits="userSpaceOnUse" id="gradient0" r="819.2" spreadMethod="pad">
      <stop offset="0.0" stop-color="#fbfbfb" stop-opacity="0.0"/>
      <stop offset="0.6" stop-color="#eff7fc" stop-opacity="0.08627451"/>
      <stop offset="0.8666666666666667" stop-color="#d6fefa" stop-opacity="0.6509804"/>
      <stop offset="1.0" stop-color="#b4feee" stop-opacity="0.8627451"/>
    </radialGradient>
    <linearGradient gradientTransform="matrix(2.0E-4, -0.007, 0.0117, 1.0E-4, 15.45, 5.9)" gradientUnits="userSpaceOnUse" id="gradient1" spreadMethod="pad" x1="-819.2" x2="819.2">
      <stop offset="0.0" stop-color="#fbfbfb" stop-opacity="0.0"/>
      <stop offset="1.0" stop-color="#ffffff"/>
    </linearGradient>
  </defs>
</svg>
