<?xml version="1.0" encoding="UTF-8" standalone="no"?>
<svg xmlns:xlink="http://www.w3.org/1999/xlink" height="71.1px" width="71.15px" xmlns="http://www.w3.org/2000/svg">
  <g transform="matrix(1.0, 0.0, 0.0, 1.0, -474.55, 124.1)">
    <path d="M482.8 -106.2 L487.15 -103.8 Q489.5 -107.05 492.55 -109.3 L492.95 -109.6 489.85 -113.35 490.9 -115.65 Q495.8 -119.25 502.2 -120.95 L503.9 -115.0 Q508.9 -116.35 513.7 -115.75 L513.95 -115.75 514.7 -122.1 Q520.9 -121.25 526.75 -118.1 L526.7 -117.95 526.8 -114.5 525.1 -111.65 Q528.75 -109.35 531.2 -106.15 L536.35 -110.15 Q540.05 -105.3 541.85 -99.05 L541.8 -99.05 542.55 -96.5 537.25 -95.05 537.3 -95.0 Q538.3 -91.35 538.45 -87.8 L538.45 -87.25 542.95 -86.8 542.9 -86.55 543.7 -83.75 Q543.15 -79.75 541.7 -75.85 L540.85 -74.0 539.4 -71.5 534.7 -74.15 534.6 -74.0 534.4 -73.65 Q532.2 -70.0 529.45 -67.25 L530.75 -65.7 530.7 -65.55 530.85 -62.0 531.0 -61.8 Q527.2 -58.75 522.35 -56.9 L520.9 -56.4 519.2 -55.9 519.15 -55.9 517.75 -61.0 517.6 -60.95 517.55 -60.95 Q512.25 -59.5 506.9 -60.0 L506.9 -59.1 506.1 -55.0 Q499.75 -55.65 493.7 -58.95 L493.65 -59.0 493.85 -59.35 494.95 -63.05 495.45 -63.8 Q493.4 -65.0 491.65 -66.6 489.45 -68.5 487.9 -70.55 L487.85 -70.6 487.75 -70.6 483.7 -67.45 483.55 -67.4 Q479.55 -72.25 477.7 -78.8 L477.65 -78.95 477.8 -79.0 479.6 -82.25 482.3 -82.95 Q482.05 -83.85 482.05 -84.85 481.7 -87.5 482.05 -90.4 L482.05 -91.05 482.05 -91.15 476.55 -91.85 476.65 -92.0 477.0 -93.9 477.15 -94.95 Q478.25 -99.5 480.8 -103.9 L480.85 -104.1 480.9 -104.1 482.55 -106.0 482.7 -106.2 482.8 -106.2 M517.75 -91.75 L517.5 -92.0 Q516.45 -93.2 514.9 -94.05 513.1 -95.0 511.3 -95.2 L507.55 -95.0 Q505.6 -94.5 504.1 -93.3 502.65 -92.2 501.7 -90.45 L501.3 -89.6 Q501.35 -88.8 501.55 -88.1 501.9 -86.75 502.5 -85.7 L503.25 -84.7 504.55 -83.4 506.05 -82.35 Q507.8 -81.25 509.7 -81.05 L513.35 -81.45 513.9 -81.55 516.85 -83.15 Q518.35 -84.15 519.2 -85.85 L519.8 -86.75 519.4 -88.35 Q518.85 -90.2 517.75 -91.75" fill="#b1c4cb" fill-rule="evenodd" stroke="none"/>
    <path d="M482.8 -106.2 L487.15 -103.8 Q489.5 -107.05 492.55 -109.3 L492.95 -109.6 489.85 -113.35 490.9 -115.65 Q495.8 -119.25 502.2 -120.95 L503.9 -115.0 Q508.9 -116.35 513.7 -115.75 L513.95 -115.75 514.7 -122.1 Q520.9 -121.25 526.75 -118.1 L526.7 -117.95 526.8 -114.5 525.1 -111.65 Q528.75 -109.35 531.2 -106.15 L536.35 -110.15 Q540.05 -105.3 541.85 -99.05 L541.8 -99.05 542.55 -96.5 537.25 -95.05 537.3 -95.0 Q538.3 -91.35 538.45 -87.8 L538.45 -87.25 542.95 -86.8 542.9 -86.55 543.7 -83.75 Q543.15 -79.75 541.7 -75.85 L540.85 -74.0 539.4 -71.5 534.7 -74.15 534.6 -74.0 534.4 -73.65 Q532.2 -70.0 529.45 -67.25 L530.75 -65.7 530.7 -65.55 530.85 -62.0 531.0 -61.8 Q527.2 -58.75 522.35 -56.9 L520.9 -56.4 519.2 -55.9 519.15 -55.9 517.75 -61.0 517.6 -60.95 517.55 -60.95 Q512.25 -59.5 506.9 -60.0 L506.9 -59.1 506.1 -55.0 Q499.75 -55.65 493.7 -58.95 L493.65 -59.0 493.85 -59.35 494.95 -63.05 495.45 -63.8 Q493.4 -65.0 491.65 -66.6 489.45 -68.5 487.9 -70.55 L487.85 -70.6 487.75 -70.6 483.7 -67.45 483.55 -67.4 Q479.55 -72.25 477.7 -78.8 L477.65 -78.95 477.8 -79.0 479.6 -82.25 482.3 -82.95 Q482.05 -83.85 482.05 -84.85 481.7 -87.5 482.05 -90.4 L482.05 -91.05 482.05 -91.15 476.55 -91.85 476.65 -92.0 477.0 -93.9 477.15 -94.95 Q478.25 -99.5 480.8 -103.9 L480.85 -104.1 480.9 -104.1 482.55 -106.0 482.7 -106.2 482.8 -106.2 M517.75 -91.75 Q518.85 -90.2 519.4 -88.35 L519.8 -86.75 519.2 -85.85 Q518.35 -84.15 516.85 -83.15 L513.9 -81.55 513.35 -81.45 509.7 -81.05 Q507.8 -81.25 506.05 -82.35 L504.55 -83.4 503.25 -84.7 502.5 -85.7 Q501.9 -86.75 501.55 -88.1 501.35 -88.8 501.3 -89.6 L501.7 -90.45 Q502.65 -92.2 504.1 -93.3 505.6 -94.5 507.55 -95.0 L511.3 -95.2 Q513.1 -95.0 514.9 -94.05 516.45 -93.2 517.5 -92.0 L517.75 -91.75" fill="none" stroke="#005c8e" stroke-linecap="round" stroke-linejoin="round" stroke-width="4.0"/>
    <path d="M476.65 -91.9 L477.0 -93.8 477.2 -94.85 Q478.3 -99.4 480.8 -103.8 L480.9 -104.0 480.95 -104.0 482.6 -105.9 481.55 -103.75 Q479.8 -100.0 479.1 -96.4 L478.75 -94.55 478.65 -94.45 478.7 -94.45 476.65 -91.9 M487.15 -103.7 Q489.55 -106.95 492.6 -109.2 L492.95 -109.5 494.95 -110.4 494.0 -109.6 493.2 -109.0 Q490.8 -106.95 489.15 -104.05 L488.4 -103.05 487.15 -103.7 M526.75 -117.85 L526.8 -114.4 525.1 -111.6 524.4 -112.1 Q523.95 -112.35 523.55 -112.55 L526.75 -117.85 M537.3 -95.0 L537.3 -94.95 Q538.35 -91.25 538.45 -87.7 L538.45 -87.2 536.6 -87.5 536.8 -90.2 536.55 -93.45 536.35 -94.75 536.25 -95.05 535.75 -96.8 535.7 -97.15 537.3 -95.0 M542.95 -86.5 L542.95 -86.45 543.7 -83.7 Q543.15 -79.65 541.7 -75.8 L540.85 -73.9 539.45 -71.4 538.75 -75.0 538.95 -74.95 Q540.65 -78.0 541.8 -81.2 L542.45 -83.9 542.9 -86.6 542.95 -86.5 M534.7 -74.0 L534.6 -73.95 534.45 -73.55 Q532.2 -69.95 529.5 -67.15 L526.85 -70.5 Q530.8 -73.55 533.3 -78.0 L534.7 -74.0 M530.7 -65.5 L530.85 -61.9 531.0 -61.7 Q527.2 -58.7 522.35 -56.85 L520.95 -56.35 519.25 -55.85 519.4 -60.1 Q524.1 -61.35 528.15 -63.6 L529.0 -64.25 530.7 -65.5 M517.6 -60.85 L517.55 -60.85 Q512.25 -59.4 506.95 -59.95 L507.65 -65.3 Q512.65 -64.75 517.7 -66.1 L517.7 -66.05 517.6 -60.85 M495.45 -63.75 Q493.4 -64.9 491.7 -66.55 489.45 -68.4 487.95 -70.45 L490.45 -75.0 492.0 -73.1 Q494.55 -70.4 498.05 -68.55 L495.45 -63.75 M483.75 -67.35 L483.6 -67.3 Q479.6 -72.2 477.75 -78.75 L477.7 -78.9 477.85 -78.95 479.65 -82.15 480.5 -79.65 Q481.65 -76.6 483.25 -73.9 484.2 -72.35 485.3 -71.0 L483.75 -67.35 M482.35 -82.85 L482.05 -84.8 Q481.75 -87.5 482.1 -90.35 L482.05 -90.95 482.1 -91.1 482.05 -91.1 485.15 -93.6 485.0 -92.5 Q484.85 -90.6 485.1 -88.7 L485.15 -88.55 Q485.3 -86.25 485.95 -83.85 L482.35 -82.85" fill="#6f8891" fill-rule="evenodd" stroke="none"/>
    <path d="M482.6 -105.9 L482.75 -106.1 482.85 -106.1 487.15 -103.7 488.4 -103.05 489.15 -104.05 Q490.8 -106.95 493.2 -109.0 L494.0 -109.6 494.95 -110.4 494.95 -110.5 490.95 -115.6 Q495.85 -119.2 502.25 -120.95 L503.95 -114.95 Q508.95 -116.25 513.7 -115.65 L514.0 -115.7 514.75 -122.05 Q520.95 -121.15 526.8 -118.0 L526.75 -117.85 523.55 -112.55 Q523.95 -112.35 524.4 -112.1 L525.1 -111.6 Q528.75 -109.25 531.2 -106.1 L536.35 -110.05 Q540.1 -105.25 541.85 -98.95 L535.65 -97.25 535.7 -97.15 535.75 -96.8 Q529.7 -97.05 524.05 -94.75 L521.15 -93.65 Q520.6 -95.2 519.7 -96.3 518.3 -98.05 516.2 -99.25 514.25 -100.4 512.1 -100.65 L507.65 -100.25 Q505.35 -99.65 503.6 -98.3 501.85 -97.1 500.7 -95.0 L500.65 -95.0 Q499.65 -93.0 499.45 -90.8 499.2 -89.65 499.35 -88.35 499.45 -87.5 499.7 -86.6 L500.3 -85.1 Q493.6 -83.3 487.65 -86.8 487.15 -87.05 486.7 -87.4 L485.15 -88.55 485.1 -88.7 Q484.85 -90.6 485.0 -92.5 L485.15 -93.6 478.7 -94.45 478.65 -94.45 478.75 -94.55 479.1 -96.4 Q479.8 -100.0 481.55 -103.75 L482.6 -105.9" fill="#bbd4de" fill-rule="evenodd" stroke="none"/>
    <path d="M492.95 -109.5 L489.85 -113.25 490.95 -115.6 494.95 -110.5 494.95 -110.4 492.95 -109.5 M541.85 -98.95 L542.6 -96.45 537.3 -95.0 535.7 -97.15 535.65 -97.25 541.85 -98.95 M539.45 -71.4 L534.7 -74.1 534.7 -74.0 533.3 -78.0 533.3 -78.1 538.75 -75.0 539.45 -71.4 M519.25 -55.85 L519.2 -55.85 517.75 -60.9 517.6 -60.85 517.7 -66.05 519.4 -60.1 519.25 -55.85 M506.9 -59.1 L506.9 -59.05 506.15 -54.95 Q499.8 -55.55 493.75 -58.9 L493.65 -58.9 493.9 -59.3 495.0 -63.0 495.65 -62.6 Q501.05 -59.85 506.9 -59.1 M487.95 -70.45 L487.9 -70.5 Q487.8 -70.45 487.75 -70.55 L483.75 -67.35 485.3 -71.0 490.45 -75.0 487.95 -70.45 M482.05 -91.1 L476.6 -91.75 476.65 -91.9 478.7 -94.45 485.15 -93.6 482.05 -91.1" fill="#516870" fill-rule="evenodd" stroke="none"/>
    <path d="M538.45 -87.2 L542.95 -86.75 542.95 -86.5 542.9 -86.6 542.45 -83.9 541.8 -81.2 Q540.65 -78.0 538.95 -74.95 L538.75 -75.0 533.3 -78.1 533.3 -78.0 Q530.8 -73.55 526.85 -70.5 L529.5 -67.15 530.8 -65.6 530.7 -65.5 529.0 -64.25 528.15 -63.6 Q524.1 -61.35 519.4 -60.1 L517.7 -66.05 517.7 -66.1 Q512.65 -64.75 507.65 -65.3 L506.95 -59.95 506.9 -59.1 Q501.05 -59.85 495.65 -62.6 L495.0 -63.0 495.45 -63.75 498.05 -68.55 Q494.55 -70.4 492.0 -73.1 L490.45 -75.0 485.3 -71.0 Q484.2 -72.35 483.25 -73.9 481.65 -76.6 480.5 -79.65 L479.65 -82.15 482.35 -82.85 485.95 -83.85 Q485.3 -86.25 485.15 -88.55 L486.7 -87.4 Q487.15 -87.05 487.65 -86.8 493.6 -83.3 500.3 -85.1 500.9 -83.7 501.75 -82.65 L503.25 -81.05 504.95 -79.75 Q507.1 -78.6 509.2 -78.35 L513.75 -78.75 514.35 -78.9 Q516.2 -79.55 517.8 -80.75 519.5 -81.95 520.45 -83.9 L521.15 -85.05 Q521.85 -86.6 522.0 -88.1 522.25 -90.2 521.55 -92.55 L521.15 -93.65 524.05 -94.75 Q529.7 -97.05 535.75 -96.8 L536.25 -95.05 536.35 -94.75 536.55 -93.45 536.8 -90.2 536.6 -87.5 538.45 -87.2" fill="#b1c4cb" fill-rule="evenodd" stroke="none"/>
    <path d="M501.35 -89.55 Q501.15 -90.6 501.3 -91.65 501.45 -93.5 502.4 -95.2 503.4 -97.0 504.95 -98.0 506.35 -99.25 508.2 -99.7 L512.1 -99.9 Q513.9 -99.75 515.55 -98.75 517.35 -97.75 518.6 -96.35 519.65 -95.0 520.15 -93.15 L520.15 -93.05 Q520.75 -91.1 520.55 -89.35 L519.8 -86.7 519.4 -88.25 Q518.85 -90.1 517.75 -91.7 L517.55 -91.9 Q516.45 -93.15 514.95 -93.95 513.15 -94.9 511.35 -95.15 L507.55 -94.9 Q505.6 -94.4 504.15 -93.25 502.7 -92.1 501.75 -90.35 L501.35 -89.55" fill="#83979f" fill-rule="evenodd" stroke="none"/>
    <path d="M500.3 -85.1 L499.7 -86.6 Q499.45 -87.5 499.35 -88.35 499.2 -89.65 499.45 -90.8 499.65 -93.0 500.65 -95.0 L500.7 -95.0 Q501.85 -97.1 503.6 -98.3 505.35 -99.65 507.65 -100.25 L512.1 -100.65 Q514.25 -100.4 516.2 -99.25 518.3 -98.05 519.7 -96.3 520.6 -95.2 521.15 -93.65 L521.55 -92.55 Q522.25 -90.2 522.0 -88.1 521.85 -86.6 521.15 -85.05 L520.45 -83.9 Q519.5 -81.95 517.8 -80.75 516.2 -79.55 514.35 -78.9 L513.75 -78.75 509.2 -78.35 Q507.1 -78.6 504.95 -79.75 L503.25 -81.05 501.75 -82.65 Q500.9 -83.7 500.3 -85.1 M519.8 -86.7 L520.55 -89.35 Q520.75 -91.1 520.15 -93.05 L520.15 -93.15 Q519.65 -95.0 518.6 -96.35 517.35 -97.75 515.55 -98.75 513.9 -99.75 512.1 -99.9 L508.2 -99.7 Q506.35 -99.25 504.95 -98.0 503.4 -97.0 502.4 -95.2 501.45 -93.5 501.3 -91.65 501.15 -90.6 501.35 -89.55 L501.55 -88.05 502.55 -85.65 503.25 -84.65 504.55 -83.3 506.05 -82.25 Q507.85 -81.2 509.7 -81.05 L513.4 -81.4 513.95 -81.5 Q515.55 -82.0 516.9 -83.05 518.35 -84.05 519.2 -85.75 L519.8 -86.7" fill="#d5eef7" fill-rule="evenodd" stroke="none"/>
  </g>
</svg>
