<?xml version="1.0" encoding="UTF-8" standalone="no"?>
<svg xmlns:xlink="http://www.w3.org/1999/xlink" height="41.6px" width="41.5px" xmlns="http://www.w3.org/2000/svg">
  <g transform="matrix(1.0, 0.0, 0.0, 1.0, -0.5, 4.95)">
    <path d="M35.9 1.15 Q42.0 7.25 42.0 15.85 42.0 24.45 35.9 30.5 29.85 36.65 21.25 36.65 12.65 36.65 6.55 30.5 0.5 24.45 0.5 15.85 0.5 7.25 6.55 1.15 12.65 -4.95 21.25 -4.95 29.85 -4.95 35.9 1.15" fill="url(#gradient0)" fill-rule="evenodd" stroke="none"/>
    <path d="M21.85 -4.65 Q27.3 -4.65 31.2 -2.35 35.1 0.0 35.1 3.25 35.1 6.55 31.2 8.85 27.3 11.15 21.85 11.15 16.35 11.15 12.45 8.85 8.55 6.55 8.55 3.25 8.55 0.0 12.45 -2.35 16.35 -4.65 21.85 -4.65" fill="url(#gradient1)" fill-rule="evenodd" stroke="none"/>
    <path d="M32.25 7.9 L32.4 8.1 32.65 8.5 Q35.2 11.9 35.4 15.3 36.05 17.95 33.5 21.15 30.7 24.55 25.55 26.6 20.4 28.7 15.9 28.1 12.1 27.6 10.65 25.35 7.75 21.9 7.8 17.95 L7.95 17.9 Q7.75 15.55 9.85 12.7 12.65 9.2 17.85 7.15 22.95 5.05 27.4 5.75 30.75 6.25 32.25 7.9" fill="#2c5926" fill-rule="evenodd" stroke="none"/>
    <path d="M32.25 7.9 L32.4 8.1 32.65 8.5 Q35.2 11.9 35.4 15.3 36.05 17.95 33.5 21.15 30.7 24.55 25.55 26.6 20.4 28.7 15.9 28.1 12.1 27.6 10.65 25.35 7.75 21.9 7.8 17.95 L7.95 17.9 Q7.75 15.55 9.85 12.7 12.65 9.2 17.85 7.15 22.95 5.05 27.4 5.75 30.75 6.25 32.25 7.9 Z" fill="none" stroke="#2c5926" stroke-linecap="round" stroke-linejoin="round" stroke-width="0.75"/>
    <path d="M12.05 18.2 Q14.9 14.75 20.05 12.7 25.2 10.65 29.65 11.2 34.15 11.8 35.25 14.65 36.45 17.55 33.6 21.05 30.75 24.55 25.6 26.6 20.45 28.65 16.0 28.05 11.55 27.45 10.35 24.55 9.25 21.7 12.05 18.2" fill="#2c5926" fill-rule="evenodd" stroke="none"/>
    <path d="M32.25 7.9 Q36.0 12.55 35.3 17.35 L11.8 26.55 Q7.75 22.65 7.85 17.9 L32.25 7.9" fill="#2c5926" fill-rule="evenodd" stroke="none"/>
    <path d="M9.95 12.75 Q12.8 9.2 17.95 7.15 23.05 5.1 27.5 5.75 32.0 6.4 33.2 9.4 34.4 12.4 31.6 15.95 28.75 19.5 23.65 21.55 18.5 23.6 14.05 22.95 9.55 22.3 8.35 19.3 7.15 16.3 9.95 12.75" fill="#b1dbac" fill-rule="evenodd" stroke="none"/>
    <path d="M11.75 12.6 Q14.15 9.75 18.4 8.05 22.65 6.35 26.3 6.8 30.05 7.3 31.0 9.7 31.95 12.1 29.55 14.95 27.25 17.9 23.0 19.6 18.75 21.3 15.0 20.75 11.35 20.3 10.4 17.9 9.45 15.5 11.75 12.6" fill="#4d4400" fill-rule="evenodd" stroke="none"/>
    <path d="M10.7 12.55 Q13.3 9.3 18.05 7.45 22.8 5.55 26.95 6.1 31.05 6.7 32.15 9.45 33.25 12.15 30.65 15.45 28.05 18.75 23.3 20.65 18.55 22.5 14.4 21.9 10.3 21.3 9.2 18.6 8.1 15.85 10.7 12.55" fill="#4fa045" fill-rule="evenodd" stroke="none"/>
    <path d="M12.1 12.5 Q14.4 9.7 18.6 8.05 22.7 6.4 26.25 6.85 29.9 7.3 30.8 9.6 31.7 11.95 29.45 14.75 27.2 17.6 23.05 19.2 18.85 20.9 15.3 20.45 11.75 19.95 10.85 17.6 9.85 15.35 12.1 12.5" fill="#fef189" fill-rule="evenodd" stroke="none"/>
    <path d="M18.6 7.85 L23.15 19.3 22.65 19.5 18.1 8.05 18.6 7.85" fill="#4d4400" fill-rule="evenodd" stroke="none"/>
    <path d="M10.3 17.0 L30.6 8.9 30.8 9.4 10.5 17.5 10.3 17.0" fill="#4d4400" fill-rule="evenodd" stroke="none"/>
    <path d="M17.55 16.05 Q15.9 15.85 15.5 14.85 15.1 13.8 16.15 12.55 17.25 11.25 19.2 10.45 21.15 9.7 22.8 9.9 24.5 10.05 24.9 11.1 25.3 12.1 24.2 13.4 23.15 14.65 21.2 15.4 19.25 16.2 17.55 16.05" fill="#aa6600" fill-rule="evenodd" stroke="none"/>
    <path d="M17.65 15.25 Q16.05 14.95 15.6 13.75 15.1 12.55 16.0 11.2 16.95 9.9 18.7 9.2 20.5 8.5 22.05 8.8 23.65 9.1 24.15 10.3 24.6 11.5 23.7 12.85 22.8 14.2 21.0 14.9 L17.65 15.25" fill="#ff5209" fill-rule="evenodd" stroke="none"/>
    <path d="M18.5 13.2 Q17.5 12.9 17.15 12.1 16.85 11.25 17.4 10.4 17.95 9.5 19.1 9.05 L21.3 8.85 Q22.35 9.1 22.65 9.95 23.0 10.75 22.4 11.65 21.85 12.6 20.7 13.05 L18.5 13.2" fill="#ff8b6f" fill-rule="evenodd" stroke="none"/>
    <path d="M19.35 11.3 L18.65 10.65 Q18.45 10.25 18.75 9.75 L19.5 9.05 20.6 9.0 21.3 9.6 Q21.45 10.05 21.2 10.55 L20.35 11.2 19.35 11.3" fill="#ffe6d5" fill-rule="evenodd" stroke="none"/>
  </g>
  <defs>
    <radialGradient cx="0" cy="0" gradientTransform="matrix(0.026, 0.0, 0.0, 0.026, 20.65, 14.45)" gradientUnits="userSpaceOnUse" id="gradient0" r="819.2" spreadMethod="pad">
      <stop offset="0.0" stop-color="#fbfbfb" stop-opacity="0.0"/>
      <stop offset="0.6" stop-color="#eff7fc" stop-opacity="0.10980392"/>
      <stop offset="0.8666666666666667" stop-color="#d6fefa" stop-opacity="0.6509804"/>
      <stop offset="1.0" stop-color="#b4feee" stop-opacity="0.8627451"/>
    </radialGradient>
    <linearGradient gradientTransform="matrix(2.0E-4, -0.0096, 0.0162, 1.0E-4, 21.85, 3.25)" gradientUnits="userSpaceOnUse" id="gradient1" spreadMethod="pad" x1="-819.2" x2="819.2">
      <stop offset="0.0" stop-color="#fbfbfb" stop-opacity="0.0"/>
      <stop offset="1.0" stop-color="#ffffff"/>
    </linearGradient>
  </defs>
</svg>
