<?xml version="1.0" encoding="UTF-8" standalone="no"?>
<svg xmlns:xlink="http://www.w3.org/1999/xlink" height="64.55px" width="250.5px" xmlns="http://www.w3.org/2000/svg">
  <g transform="matrix(1.0, 0.0, 0.0, 1.0, 3.0, -7.4)">
    <path d="M132.5 12.95 Q134.7 14.05 135.85 16.0 136.35 16.8 136.65 17.75 137.9 21.95 135.5 29.0 140.45 24.05 147.75 20.8 L148.95 20.3 Q150.9 19.6 152.85 19.4 160.45 18.4 167.45 23.7 173.6 28.4 166.45 35.35 161.35 41.45 153.45 46.85 L156.7 45.05 156.75 45.0 Q166.5 38.15 174.45 34.6 185.95 29.4 201.15 33.55 L206.5 35.05 214.35 36.4 222.1 35.8 228.35 34.15 226.15 38.65 225.05 40.35 225.15 40.35 Q229.95 38.75 234.6 39.9 L235.75 40.2 Q239.85 41.5 241.9 44.6 L242.7 46.25 Q244.05 49.2 244.4 52.05 244.8 55.8 243.3 58.75 L242.7 59.8 241.15 61.8 240.45 62.55 Q238.35 64.35 235.75 65.55 229.55 68.4 220.4 67.6 211.2 65.9 201.95 62.8 183.75 56.9 162.85 56.3 L162.55 56.3 155.8 56.3 151.5 57.45 150.6 57.6 146.7 58.4 Q140.15 63.45 134.8 65.4 129.4 67.3 123.05 67.45 116.7 67.55 111.35 65.6 106.45 63.85 98.85 58.85 93.2 58.55 89.1 57.35 L88.15 57.0 67.3 57.9 67.1 57.9 66.95 57.9 66.8 57.95 66.35 58.0 66.05 58.05 65.8 58.05 65.05 58.15 64.85 58.15 Q49.4 59.95 37.75 65.8 20.3 71.9 9.4 66.25 L4.6 63.1 4.0 62.2 3.45 62.05 Q-2.35 56.35 1.6 49.0 L1.85 48.55 3.75 46.55 Q9.15 41.65 18.45 41.65 15.65 38.75 14.45 33.95 20.3 37.65 28.45 36.5 33.6 36.0 38.15 33.85 47.75 31.05 57.0 32.0 L58.0 32.05 Q69.15 32.9 83.55 43.55 L84.15 43.8 Q86.2 45.3 88.25 46.35 L90.7 47.5 91.65 47.95 92.8 48.3 Q81.35 42.15 74.2 32.85 L73.7 31.8 Q70.95 25.6 79.15 19.4 80.9 18.35 82.6 17.75 86.05 16.5 89.25 17.0 L92.35 17.75 Q96.75 19.25 101.85 23.35 L102.0 23.5 102.45 23.9 103.2 24.6 104.9 26.3 Q104.35 22.95 104.65 20.35 104.8 18.95 105.2 17.75 105.5 16.8 105.95 16.0 107.0 14.15 108.8 12.95 111.0 11.5 114.35 11.0 119.9 9.9 125.5 10.9 L125.5 12.95 132.5 12.95 M31.25 59.15 L31.7 58.8 28.65 60.4 31.25 59.15 M35.2 49.95 Q38.35 52.6 34.45 56.55 L33.6 57.4 Q42.0 51.6 51.75 51.2 42.35 51.35 35.2 49.95 M219.05 59.8 L220.9 60.05 218.15 59.6 219.05 59.8 M210.25 49.35 L210.25 49.2 209.0 49.35 188.9 50.75 Q194.0 50.85 198.4 51.95 202.45 53.0 206.95 55.25 L215.45 58.65 Q210.05 56.0 210.25 49.35" fill="#49c4ec" fill-rule="evenodd" stroke="none"/>
    <path d="M132.5 12.95 Q134.7 14.05 135.85 16.0 136.35 16.8 136.65 17.75 137.9 21.95 135.5 29.0 140.45 24.05 147.75 20.8 L148.95 20.3 Q150.9 19.6 152.85 19.4 160.45 18.4 167.45 23.7 173.6 28.4 166.45 35.35 161.35 41.45 153.45 46.85 L156.7 45.05 156.75 45.0 Q166.5 38.15 174.45 34.6 185.95 29.4 201.15 33.55 L206.5 35.05 214.35 36.4 222.1 35.8 228.35 34.15 226.15 38.65 225.05 40.35 225.15 40.35 Q229.95 38.75 234.6 39.9 L235.75 40.2 Q239.85 41.5 241.9 44.6 L242.7 46.25 Q244.05 49.2 244.4 52.05 244.8 55.8 243.3 58.75 L242.7 59.8 241.15 61.8 240.45 62.55 Q238.35 64.35 235.75 65.55 229.55 68.4 220.4 67.6 211.2 65.9 201.95 62.8 183.75 56.9 162.85 56.3 L162.55 56.3 155.8 56.3 151.5 57.45 150.6 57.6 146.7 58.4 Q140.15 63.45 134.8 65.4 129.4 67.3 123.05 67.45 116.7 67.55 111.35 65.6 106.45 63.85 98.85 58.85 93.2 58.55 89.1 57.35 L88.15 57.0 67.3 57.9 67.1 57.9 66.95 57.9 66.8 57.95 66.35 58.0 66.05 58.05 65.8 58.05 65.05 58.15 64.85 58.15 Q49.4 59.95 37.75 65.8 20.3 71.9 9.4 66.25 L4.6 63.1 4.0 62.2 3.45 62.05 Q-2.35 56.35 1.6 49.0 L1.85 48.55 3.75 46.55 Q9.15 41.65 18.45 41.65 15.65 38.75 14.45 33.95 20.3 37.65 28.45 36.5 33.6 36.0 38.15 33.85 47.75 31.05 57.0 32.0 L58.0 32.05 Q69.15 32.9 83.55 43.55 L84.15 43.8 Q86.2 45.3 88.25 46.35 L90.7 47.5 91.65 47.95 92.8 48.3 Q81.35 42.15 74.2 32.85 L73.7 31.8 Q70.95 25.6 79.15 19.4 80.9 18.35 82.6 17.75 86.05 16.5 89.25 17.0 L92.35 17.75 Q96.75 19.25 101.85 23.35 L102.0 23.5 102.45 23.9 103.2 24.6 104.9 26.3 Q104.35 22.95 104.65 20.35 104.8 18.95 105.2 17.75 105.5 16.8 105.95 16.0 107.0 14.15 108.8 12.95 111.0 11.5 114.35 11.0 119.9 9.9 125.5 10.9 128.45 11.4 131.45 12.5 L132.5 12.95 Z" fill="none" stroke="#007eaf" stroke-linecap="round" stroke-linejoin="round" stroke-width="6.0"/>
    <path d="M10.15 49.2 Q10.95 49.9 10.95 50.9 10.95 51.85 10.15 52.55 9.4 53.25 8.3 53.25 7.2 53.25 6.4 52.55 5.65 51.85 5.65 50.9 5.65 49.9 6.4 49.2 7.2 48.55 8.3 48.55 9.4 48.55 10.15 49.2" fill="#61e6fc" fill-rule="evenodd" stroke="none"/>
    <path d="M77.0 31.9 Q77.0 31.1 77.65 30.5 78.3 29.95 79.2 29.95 80.15 29.95 80.75 30.5 81.4 31.1 81.4 31.9 81.4 32.7 80.75 33.3 80.15 33.9 79.2 33.9 78.3 33.9 77.65 33.3 77.0 32.7 77.0 31.9" fill="#79ecff" fill-rule="evenodd" stroke="none"/>
    <path d="M101.75 51.3 Q101.75 50.3 102.5 49.6 103.3 48.9 104.4 48.9 105.5 48.9 106.25 49.6 107.05 50.3 107.05 51.3 107.05 52.2 106.25 52.95 105.5 53.65 104.4 53.65 103.3 53.65 102.5 52.95 101.75 52.2 101.75 51.3" fill="#79ecff" fill-rule="evenodd" stroke="none"/>
    <path d="M141.9 49.45 Q142.7 50.15 142.7 51.15 142.7 52.05 141.9 52.8 141.15 53.5 140.05 53.5 138.95 53.5 138.15 52.8 137.4 52.05 137.4 51.15 137.4 50.15 138.15 49.45 138.95 48.75 140.05 48.75 141.15 48.75 141.9 49.45" fill="#61e6fc" fill-rule="evenodd" stroke="none"/>
    <path d="M209.45 41.05 Q210.25 41.75 210.25 42.75 210.25 43.7 209.45 44.4 208.7 45.1 207.6 45.1 206.5 45.1 205.7 44.4 204.95 43.7 204.95 42.75 204.95 41.75 205.7 41.05 206.5 40.4 207.6 40.4 208.7 40.4 209.45 41.05" fill="#61e6fc" fill-rule="evenodd" stroke="none"/>
    <path d="M156.7 45.05 L156.75 45.0 Q166.5 38.15 174.45 34.6 185.95 29.4 201.15 33.55 L206.5 35.05 214.35 36.4 222.1 35.8 228.35 34.15 226.15 38.65 226.0 39.0 225.05 40.35 225.15 40.35 227.45 38.8 Q230.05 38.8 234.6 39.9 L235.75 40.2 Q239.85 41.5 241.9 44.6 L242.7 46.25 Q244.05 49.2 244.4 52.05 244.8 55.8 243.3 58.75 L242.95 56.2 242.7 55.25 Q241.55 51.45 238.4 49.25 237.1 48.35 235.75 47.75 231.5 45.7 226.95 46.25 221.0 46.25 216.6 50.5 L216.05 51.05 Q213.25 55.0 216.7 58.55 L220.2 58.3 Q228.05 56.5 229.75 49.9 232.5 54.85 229.0 57.8 226.15 60.3 220.9 60.05 L218.15 59.6 218.05 59.6 209.1 57.1 Q200.75 54.6 188.2 52.6 180.25 51.55 169.2 52.55 L161.05 54.55 155.8 56.3 151.5 57.45 150.6 57.6 Q166.65 50.45 178.5 48.75 187.85 46.8 202.4 47.3 209.9 47.05 214.8 44.45 218.4 42.5 223.55 37.45 215.8 39.2 202.05 37.6 L201.4 37.6 Q187.95 34.6 177.4 36.85 L176.55 37.05 Q166.2 39.9 156.7 45.05 M98.85 58.85 Q93.2 58.55 89.1 57.35 L88.15 57.0 85.85 56.3 Q70.25 53.15 56.3 53.0 L55.55 52.95 Q43.05 53.35 31.7 58.8 L28.65 60.4 28.05 60.6 26.65 60.95 21.8 61.55 Q16.2 61.7 14.65 58.25 13.95 56.8 14.15 54.85 14.0 53.05 15.15 51.55 15.4 59.45 22.9 60.1 25.4 60.6 27.85 59.4 29.45 58.0 29.85 55.7 30.35 50.6 21.55 48.7 12.85 47.0 5.8 51.7 L5.2 52.25 Q4.75 52.65 3.7 54.8 2.6 56.9 3.15 59.7 3.55 61.8 3.85 62.15 L3.45 62.05 Q-2.35 56.35 1.6 49.0 L1.85 48.55 3.75 46.55 Q9.0 41.8 17.5 41.95 18.15 41.65 18.45 41.65 15.65 38.75 14.45 33.95 20.3 37.65 28.45 36.5 33.6 36.0 38.15 33.85 47.75 31.05 57.0 32.0 L58.0 32.05 Q69.15 32.9 83.55 43.55 L84.15 43.8 Q86.2 45.3 88.25 46.35 L74.05 39.65 Q65.05 34.85 57.05 34.95 48.55 35.05 38.7 37.0 27.95 39.75 20.5 37.9 22.35 42.1 30.75 45.2 37.85 47.55 48.35 48.05 59.1 47.7 68.3 49.9 84.45 53.45 98.85 58.85 M210.1 49.25 L209.0 49.35 188.9 50.75 Q194.0 50.85 198.4 51.95 202.45 53.0 206.95 55.25 L215.45 58.65 Q210.05 56.0 210.25 49.35 L210.25 49.2 210.1 49.25 Q219.25 46.85 227.45 38.8 219.25 46.85 210.1 49.25 M223.55 44.35 L223.6 44.5 225.75 44.4 228.4 43.9 233.65 44.3 235.9 45.3 238.0 46.45 239.7 48.1 241.1 49.65 241.8 50.45 Q242.4 49.7 242.15 48.8 241.15 45.0 238.3 43.2 236.2 41.9 233.35 41.25 L229.9 40.9 Q226.5 41.1 224.75 42.4 223.4 43.4 223.55 44.35 M8.2 47.7 L10.15 46.65 Q12.45 45.85 14.95 45.95 L17.4 46.25 19.35 46.2 19.35 46.05 Q19.45 45.15 18.15 44.35 16.45 43.3 13.35 43.3 L10.2 43.9 Q7.65 44.65 5.85 46.0 3.35 47.8 2.65 51.35 2.55 52.2 3.15 52.85 L3.75 52.05 4.9 50.6 6.3 48.9 Q7.15 48.25 8.2 47.7 M35.25 50.0 Q38.3 52.65 34.45 56.55 L33.6 57.4 Q42.0 51.6 51.75 51.2 42.35 51.35 35.2 49.95 L35.25 50.0 Q25.3 48.6 17.5 41.95 25.3 48.6 35.25 50.0" fill="#4ad7ee" fill-rule="evenodd" stroke="none"/>
    <path d="M150.6 57.6 L146.7 58.4 137.75 59.25 133.2 59.05 Q129.7 57.7 127.55 55.6 125.3 53.4 124.95 50.9 L124.95 50.6 Q124.95 46.15 131.95 44.25 L132.45 44.2 132.6 44.15 Q137.95 42.85 140.9 46.15 142.8 49.2 140.9 51.6 138.25 53.8 135.7 52.45 133.1 51.05 132.35 48.75 132.1 57.95 142.15 55.6 L144.25 54.8 Q152.5 55.15 168.3 47.6 L168.8 47.4 Q174.25 44.45 185.6 43.65 L195.55 43.15 Q202.9 42.45 205.8 41.1 L203.4 41.1 Q192.0 40.0 178.75 41.1 165.65 42.7 152.3 47.6 L153.45 46.85 156.7 45.05 Q166.2 39.9 176.55 37.05 L177.4 36.85 Q187.95 34.6 201.4 37.6 L202.05 37.6 Q215.8 39.2 223.55 37.45 218.4 42.5 214.8 44.45 209.9 47.05 202.4 47.3 187.85 46.8 178.5 48.75 166.65 50.45 150.6 57.6 M133.4 42.1 L129.8 42.55 Q130.65 39.35 132.4 36.3 133.5 34.45 134.95 32.6 137.25 29.8 140.4 27.15 L141.65 26.3 Q144.8 24.15 147.75 23.25 150.4 22.35 152.85 22.45 L154.95 22.7 Q158.25 23.45 158.55 25.55 158.8 27.65 159.7 27.65 L161.1 27.65 161.75 27.6 Q165.4 27.15 166.15 29.2 166.25 31.65 163.5 33.85 154.1 43.75 147.6 46.75 L146.4 45.45 Q150.8 43.35 156.5 37.65 161.75 31.35 158.15 30.6 L154.85 30.95 Q153.65 31.35 152.85 31.85 152.4 32.1 152.1 32.4 L152.7 30.05 Q152.75 28.6 151.6 28.05 149.7 27.25 147.75 27.5 143.9 28.05 139.75 32.6 L138.9 33.55 Q137.8 34.85 136.8 36.3 L134.9 39.3 133.4 42.1 M111.1 34.35 L110.0 32.6 107.6 29.35 Q106.1 19.0 111.25 16.0 L111.7 15.75 113.0 15.0 Q114.25 14.5 115.6 14.45 117.1 14.4 118.65 15.05 119.6 15.45 120.35 16.0 L120.95 16.5 121.5 16.0 Q122.1 15.6 123.3 15.3 L126.4 14.85 Q128.75 15.0 130.65 16.0 L132.2 17.05 Q133.6 18.25 135.1 20.5 136.75 24.35 135.0 29.5 133.55 30.95 132.35 32.6 131.0 34.4 129.95 36.3 L128.9 38.35 129.55 36.3 130.3 32.6 Q130.9 28.95 130.6 25.25 130.5 21.15 126.4 18.85 120.2 15.75 114.45 19.9 110.4 22.9 111.0 32.6 L111.1 34.35 M115.5 40.1 L115.0 36.3 115.0 32.6 Q115.15 29.25 116.05 26.0 L116.5 25.1 Q118.05 22.2 120.35 22.6 125.75 21.9 126.15 27.45 126.55 30.0 126.55 32.6 L126.35 36.3 125.5 41.5 Q124.65 42.4 123.45 42.4 121.8 42.4 121.3 40.9 121.0 40.05 121.0 37.45 L121.2 33.6 120.9 36.3 120.6 38.4 Q119.75 42.55 118.1 42.55 116.65 42.55 115.5 40.1 M147.05 42.5 L145.7 42.65 Q143.4 42.65 143.4 41.65 143.4 40.85 144.25 39.75 L145.35 38.2 145.25 38.2 143.45 39.6 Q141.9 40.65 140.9 40.65 139.15 40.65 139.15 38.8 L139.15 38.55 140.95 36.3 Q143.15 33.75 144.85 32.6 146.05 31.8 147.0 31.7 L147.75 31.65 Q149.65 31.7 150.15 33.5 152.0 33.45 152.85 33.95 154.3 34.75 152.7 37.1 149.6 40.8 147.05 42.5 M95.6 45.8 Q94.8 46.75 94.6 48.0 84.8 41.6 80.55 34.0 76.05 27.25 79.4 25.85 L81.35 25.65 Q82.35 25.65 82.8 25.25 83.2 24.9 83.25 23.7 83.3 22.45 83.9 21.8 85.05 20.6 87.45 20.0 L92.85 20.2 Q97.95 21.9 102.0 26.0 L103.2 27.3 Q105.05 29.35 106.65 32.0 L107.05 32.6 109.25 36.3 Q111.15 39.85 111.9 42.5 L109.8 42.35 107.3 37.9 106.25 36.3 Q104.5 33.85 102.0 31.55 L100.25 29.95 Q95.3 25.85 92.05 26.7 89.35 27.45 89.55 30.3 88.0 28.85 86.2 29.05 84.0 29.3 83.85 32.5 83.7 35.4 89.65 40.9 92.6 43.65 95.6 45.8 M95.15 42.5 L95.05 42.45 95.0 42.45 Q91.4 39.5 89.75 37.0 L89.4 36.55 Q87.25 33.3 91.85 33.05 91.6 30.95 94.0 30.65 96.9 30.3 100.1 33.85 L101.7 35.9 102.75 37.6 103.25 39.9 Q103.25 40.65 102.7 41.2 102.15 41.7 101.4 41.7 99.65 41.7 96.85 38.1 L98.1 40.15 Q98.75 41.15 98.75 42.1 L98.55 43.1 97.5 43.3 Q96.4 43.3 95.15 42.5 M88.25 46.35 L90.7 47.5 91.65 47.95 Q88.1 47.8 81.05 45.5 70.1 40.9 58.75 40.4 L39.1 41.3 Q54.05 41.1 64.45 43.95 73.35 45.85 80.3 49.3 90.95 53.95 97.05 53.9 99.3 55.45 103.65 55.75 111.65 54.9 109.3 49.65 105.85 53.85 102.15 51.85 98.55 48.95 102.15 46.05 109.3 42.35 116.1 48.25 L116.75 49.55 Q117.35 51.1 117.25 52.55 117.05 57.15 110.0 58.6 L108.9 58.8 Q103.35 59.15 98.85 58.85 84.45 53.45 68.3 49.9 59.1 47.7 48.35 48.05 37.85 47.55 30.75 45.2 22.35 42.1 20.5 37.9 27.95 39.75 38.7 37.0 48.55 35.05 57.05 34.95 65.05 34.85 74.05 39.65 L88.25 46.35 M119.65 60.9 L119.9 60.8 120.65 60.25 121.15 59.4 Q121.4 58.9 122.05 58.9 122.4 58.9 123.15 59.6 L124.15 60.35 125.55 60.5 Q126.35 60.65 126.55 61.3 126.75 61.95 124.55 62.3 L121.1 62.5 119.0 62.15 Q117.85 61.9 117.85 61.45 117.85 60.9 118.65 60.95 L118.95 61.0 119.25 61.0 119.65 60.9" fill="#40bae2" fill-rule="evenodd" stroke="none"/>
    <path d="M243.3 58.75 L242.7 59.8 241.15 61.8 240.45 62.55 Q238.35 64.35 235.75 65.55 229.55 68.4 220.4 67.6 211.2 65.9 201.95 62.8 183.75 56.9 162.85 56.3 170.9 55.15 183.9 55.8 195.9 55.6 208.85 60.4 219.15 63.6 227.2 64.5 232.05 64.85 235.75 63.2 239.95 61.25 242.7 56.65 L242.95 56.2 243.3 58.75 M146.7 58.4 Q140.15 63.45 134.8 65.4 129.4 67.3 123.05 67.45 116.7 67.55 111.35 65.6 106.45 63.85 98.85 58.85 103.35 59.15 108.9 58.8 L110.0 58.6 Q114.75 57.8 117.45 55.55 120.5 53.0 120.25 49.35 L120.25 48.75 Q119.25 45.7 116.5 44.1 L115.5 40.1 Q116.65 42.55 118.1 42.55 119.75 42.55 120.6 38.4 L120.9 36.3 121.2 33.6 121.0 37.45 Q121.0 40.05 121.3 40.9 121.8 42.4 123.45 42.4 124.65 42.4 125.5 41.5 L124.1 46.05 Q122.5 47.6 122.35 49.55 122.1 52.05 123.9 54.6 126.9 58.2 133.2 59.05 L137.75 59.25 146.7 58.4 M66.95 57.9 L66.8 57.95 66.35 58.0 66.05 58.05 65.8 58.05 65.05 58.15 64.85 58.15 Q49.4 59.95 37.75 65.8 20.3 71.9 9.4 66.25 L4.6 63.1 4.0 62.2 Q10.3 65.9 15.15 66.1 24.7 66.7 37.65 62.0 49.1 58.7 66.95 57.9 M152.3 47.6 Q165.65 42.7 178.75 41.1 192.0 40.0 203.4 41.1 L205.8 41.1 Q202.9 42.45 195.55 43.15 L185.6 43.65 Q174.25 44.45 168.8 47.4 L168.3 47.6 Q152.5 55.15 144.25 54.8 147.8 52.95 147.95 49.35 149.65 49.25 152.3 47.6 M144.35 43.85 Q141.25 42.1 136.65 42.0 137.95 40.05 139.15 38.55 L139.15 38.8 Q139.15 40.65 140.9 40.65 141.9 40.65 143.45 39.6 L145.25 38.2 145.35 38.2 144.25 39.75 Q143.4 40.85 143.4 41.65 143.4 42.65 145.7 42.65 L147.05 42.5 Q145.6 43.5 144.35 43.85 M105.2 42.4 L103.25 42.6 Q99.6 43.1 97.45 44.3 L95.15 42.5 Q96.4 43.3 97.5 43.3 L98.55 43.1 98.75 42.1 Q98.75 41.15 98.1 40.15 L96.85 38.1 Q99.65 41.7 101.4 41.7 102.15 41.7 102.7 41.2 103.25 40.65 103.25 39.9 L102.75 37.6 105.2 42.4 M91.65 47.95 L92.8 48.3 94.55 48.75 Q94.5 49.65 94.8 50.7 95.25 52.7 97.05 53.9 90.95 53.95 80.3 49.3 73.35 45.85 64.45 43.95 54.05 41.1 39.1 41.3 L58.75 40.4 Q70.1 40.9 81.05 45.5 88.1 47.8 91.65 47.95 M137.1 61.35 Q127.0 60.95 121.65 56.95 117.5 61.9 109.55 61.9 115.5 65.4 123.4 65.35 132.05 64.6 137.1 61.35" fill="#0688a8" fill-rule="evenodd" stroke="none"/>
    <path d="M223.55 44.35 Q223.4 43.4 224.75 42.4 226.5 41.1 229.9 40.9 L233.35 41.25 Q236.2 41.9 238.3 43.2 241.15 45.0 242.15 48.8 242.4 49.7 241.8 50.45 L241.1 49.65 239.7 48.1 238.0 46.45 235.9 45.3 233.65 44.3 228.4 43.9 225.75 44.4 223.6 44.5 223.55 44.35 M8.2 47.7 Q7.15 48.25 6.3 48.9 L4.9 50.6 3.75 52.05 3.15 52.85 Q2.55 52.2 2.65 51.35 3.35 47.8 5.85 46.0 7.65 44.65 10.2 43.9 L13.35 43.3 Q16.45 43.3 18.15 44.35 19.45 45.15 19.35 46.05 L19.35 46.2 17.4 46.25 14.95 45.95 Q12.45 45.85 10.15 46.65 L8.2 47.7" fill="#81ebfc" fill-rule="evenodd" stroke="none"/>
    <path d="M162.85 56.3 L162.55 56.3 155.8 56.3 161.05 54.55 169.2 52.55 Q180.25 51.55 188.2 52.6 200.75 54.6 209.1 57.1 L218.05 59.6 218.15 59.6 219.05 59.8 220.9 60.05 Q226.15 60.3 229.0 57.8 232.5 54.85 229.75 49.9 228.05 56.5 220.2 58.3 L216.7 58.55 Q213.25 55.0 216.05 51.05 L216.6 50.5 Q221.0 46.25 226.95 46.25 231.5 45.7 235.75 47.75 237.1 48.35 238.4 49.25 241.55 51.45 242.7 55.25 L242.95 56.2 242.7 56.65 Q239.95 61.25 235.75 63.2 232.05 64.85 227.2 64.5 219.15 63.6 208.85 60.4 195.9 55.6 183.9 55.8 170.9 55.15 162.85 56.3 M88.15 57.0 L67.3 57.9 67.1 57.9 66.95 57.9 Q49.1 58.7 37.65 62.0 24.7 66.7 15.15 66.1 10.3 65.9 4.0 62.2 L3.85 62.15 Q3.55 61.8 3.15 59.7 2.6 56.9 3.7 54.8 4.75 52.65 5.2 52.25 L5.8 51.7 Q12.85 47.0 21.55 48.7 30.35 50.6 29.85 55.7 29.45 58.0 27.85 59.4 25.4 60.6 22.9 60.1 15.4 59.45 15.15 51.55 14.0 53.05 14.15 54.85 13.95 56.8 14.65 58.25 16.2 61.7 21.8 61.55 L26.65 60.95 28.05 60.6 28.65 60.4 31.25 59.15 31.7 58.8 Q43.05 53.35 55.55 52.95 L56.3 53.0 Q70.25 53.15 85.85 56.3 L88.15 57.0" fill="#32acd4" fill-rule="evenodd" stroke="none"/>
    <path d="M144.25 54.8 L142.15 55.6 Q132.1 57.95 132.35 48.75 133.1 51.05 135.7 52.45 138.25 53.8 140.9 51.6 142.8 49.2 140.9 46.15 137.95 42.85 132.6 44.15 L132.45 44.2 131.95 44.25 Q124.95 46.15 124.95 50.6 L124.95 50.9 Q125.3 53.4 127.55 55.6 129.7 57.7 133.2 59.05 126.9 58.2 123.9 54.6 122.1 52.05 122.35 49.55 122.5 47.6 124.1 46.05 125.1 44.95 126.75 44.05 127.6 41.05 128.9 38.35 L129.95 36.3 Q131.0 34.4 132.35 32.6 133.55 30.95 135.0 29.5 136.75 24.35 135.1 20.5 133.6 18.25 132.2 17.05 L130.65 16.0 Q128.75 15.0 126.4 14.85 L123.3 15.3 Q122.1 15.6 121.5 16.0 L120.95 16.5 120.35 16.0 Q119.6 15.45 118.65 15.05 117.1 14.4 115.6 14.45 114.25 14.5 113.0 15.0 L111.7 15.75 111.25 16.0 Q106.1 19.0 107.6 29.35 L110.0 32.6 111.1 34.35 112.2 36.3 Q113.9 39.7 115.0 43.35 115.8 43.65 116.5 44.1 119.25 45.7 120.25 48.75 L120.25 49.35 Q120.5 53.0 117.45 55.55 114.75 57.8 110.0 58.6 117.05 57.15 117.25 52.55 117.35 51.1 116.75 49.55 L116.1 48.25 Q109.3 42.35 102.15 46.05 98.55 48.95 102.15 51.85 105.85 53.85 109.3 49.65 111.65 54.9 103.65 55.75 99.3 55.45 97.05 53.9 95.25 52.7 94.8 50.7 94.5 49.65 94.55 48.75 L92.8 48.3 Q81.35 42.15 74.2 32.85 L73.7 31.8 Q70.95 25.6 79.15 19.4 84.45 16.25 89.25 17.0 94.95 17.8 101.85 23.35 L102.0 23.5 102.45 23.9 103.2 24.6 104.9 26.3 Q103.8 19.8 105.95 16.0 108.25 11.9 114.35 11.0 122.8 9.3 131.45 12.5 134.45 13.65 135.85 16.0 138.45 20.4 135.5 29.0 140.45 24.05 147.75 20.8 L148.95 20.3 Q150.9 19.6 152.85 19.4 160.45 18.4 167.45 23.7 173.6 28.4 166.45 35.35 161.35 41.45 153.45 46.85 L152.3 47.6 Q149.65 49.25 147.95 49.35 147.8 52.95 144.25 54.8 M146.4 45.45 L147.6 46.75 Q154.1 43.75 163.5 33.85 166.25 31.65 166.15 29.2 165.4 27.15 161.75 27.6 L161.1 27.65 159.7 27.65 Q158.8 27.65 158.55 25.55 158.25 23.45 154.95 22.7 L152.85 22.45 Q150.4 22.35 147.75 23.25 144.8 24.15 141.65 26.3 L140.4 27.15 Q137.25 29.8 134.95 32.6 133.5 34.45 132.4 36.3 130.65 39.35 129.8 42.55 L133.4 42.1 136.65 42.0 Q141.25 42.1 144.35 43.85 L146.4 45.45 M109.8 42.35 L111.9 42.5 Q111.15 39.85 109.25 36.3 L107.05 32.6 106.65 32.0 Q105.05 29.35 103.2 27.3 L102.0 26.0 Q97.95 21.9 92.85 20.2 L87.45 20.0 Q85.05 20.6 83.9 21.8 83.3 22.45 83.25 23.7 83.2 24.9 82.8 25.25 82.35 25.65 81.35 25.65 L79.4 25.85 Q76.05 27.25 80.55 34.0 84.8 41.6 94.6 48.0 94.8 46.75 95.6 45.8 L97.45 44.3 Q99.6 43.1 103.25 42.6 L105.2 42.4 Q107.7 42.2 109.8 42.35" fill="#4ae0ee" fill-rule="evenodd" stroke="none"/>
    <path d="M146.4 45.45 L144.35 43.85 Q145.6 43.5 147.05 42.5 149.6 40.8 152.7 37.1 154.3 34.75 152.85 33.95 152.0 33.45 150.15 33.5 149.65 31.7 147.75 31.65 L147.0 31.7 Q146.05 31.8 144.85 32.6 143.15 33.75 140.95 36.3 L139.15 38.55 Q137.95 40.05 136.65 42.0 L133.4 42.1 134.9 39.3 136.8 36.3 Q137.8 34.85 138.9 33.55 L139.75 32.6 Q143.9 28.05 147.75 27.5 149.7 27.25 151.6 28.05 152.75 28.6 152.7 30.05 L152.1 32.4 Q152.4 32.1 152.85 31.85 153.65 31.35 154.85 30.95 L158.15 30.6 Q161.75 31.35 156.5 37.65 150.8 43.35 146.4 45.45 M128.9 38.35 Q127.6 41.05 126.75 44.05 125.1 44.95 124.1 46.05 L125.5 41.5 126.35 36.3 126.55 32.6 Q126.55 30.0 126.15 27.45 125.75 21.9 120.35 22.6 118.05 22.2 116.5 25.1 L116.05 26.0 Q115.15 29.25 115.0 32.6 L115.0 36.3 115.5 40.1 116.5 44.1 Q115.8 43.65 115.0 43.35 113.9 39.7 112.2 36.3 L111.1 34.35 111.0 32.6 Q110.4 22.9 114.45 19.9 120.2 15.75 126.4 18.85 130.5 21.15 130.6 25.25 130.9 28.95 130.3 32.6 L129.55 36.3 128.9 38.35 M109.8 42.35 Q107.7 42.2 105.2 42.4 L102.75 37.6 101.7 35.9 100.1 33.85 Q96.9 30.3 94.0 30.65 91.6 30.95 91.85 33.05 87.25 33.3 89.4 36.55 L89.75 37.0 Q91.4 39.5 95.0 42.45 L95.05 42.45 95.15 42.5 97.45 44.3 95.6 45.8 Q92.6 43.65 89.65 40.9 83.7 35.4 83.85 32.5 84.0 29.3 86.2 29.05 88.0 28.85 89.55 30.3 89.35 27.45 92.05 26.7 95.3 25.85 100.25 29.95 L102.0 31.55 Q104.5 33.85 106.25 36.3 L107.3 37.9 109.8 42.35 M119.65 60.9 L119.25 61.0 118.95 61.0 118.65 60.95 Q117.85 60.9 117.85 61.45 117.85 61.9 119.0 62.15 L121.1 62.5 124.55 62.3 Q126.75 61.95 126.55 61.3 126.35 60.65 125.55 60.5 L124.15 60.35 123.15 59.6 Q122.4 58.9 122.05 58.9 121.4 58.9 121.15 59.4 L120.65 60.25 119.9 60.8 119.65 60.9 M137.1 61.35 Q132.05 64.6 123.4 65.35 115.5 65.4 109.55 61.9 117.5 61.9 121.65 56.95 127.0 60.95 137.1 61.35" fill="#2ba5cd" fill-rule="evenodd" stroke="none"/>
    <path d="M17.5 41.95 L14.45 40.0 M210.1 49.25 L210.25 49.2 210.25 49.35 Q210.05 56.0 215.45 58.65 L206.95 55.25 Q202.45 53.0 198.4 51.95 194.0 50.85 188.9 50.75 L209.0 49.35 210.1 49.25 Q219.25 46.85 227.45 38.8 M35.25 50.0 L35.2 49.95 Q42.35 51.35 51.75 51.2 42.0 51.6 33.6 57.4 L34.45 56.55 Q38.3 52.65 35.25 50.0 25.3 48.6 17.5 41.95 M35.25 50.0 L36.1 50.4" fill="none" stroke="#007eaf" stroke-linecap="round" stroke-linejoin="round" stroke-width="2.0"/>
    <path d="M10.15 49.2 Q10.95 49.9 10.95 50.9 10.95 51.85 10.15 52.55 9.4 53.25 8.3 53.25 7.2 53.25 6.4 52.55 5.65 51.85 5.65 50.9 5.65 49.9 6.4 49.2 7.2 48.55 8.3 48.55 9.4 48.55 10.15 49.2" fill="#61e6fc" fill-rule="evenodd" stroke="none"/>
    <path d="M77.0 31.9 Q77.0 31.1 77.65 30.5 78.3 29.95 79.2 29.95 80.15 29.95 80.75 30.5 81.4 31.1 81.4 31.9 81.4 32.7 80.75 33.3 80.15 33.9 79.2 33.9 78.3 33.9 77.65 33.3 77.0 32.7 77.0 31.9" fill="#79ecff" fill-rule="evenodd" stroke="none"/>
    <path d="M101.75 51.3 Q101.75 50.3 102.5 49.6 103.3 48.9 104.4 48.9 105.5 48.9 106.25 49.6 107.05 50.3 107.05 51.3 107.05 52.2 106.25 52.95 105.5 53.65 104.4 53.65 103.3 53.65 102.5 52.95 101.75 52.2 101.75 51.3" fill="#79ecff" fill-rule="evenodd" stroke="none"/>
    <path d="M141.9 49.45 Q142.7 50.15 142.7 51.15 142.7 52.05 141.9 52.8 141.15 53.5 140.05 53.5 138.95 53.5 138.15 52.8 137.4 52.05 137.4 51.15 137.4 50.15 138.15 49.45 138.95 48.75 140.05 48.75 141.15 48.75 141.9 49.45" fill="#61e6fc" fill-rule="evenodd" stroke="none"/>
    <path d="M207.6 40.4 Q208.7 40.4 209.45 41.05 210.25 41.75 210.25 42.75 210.25 43.7 209.45 44.4 208.7 45.1 207.6 45.1 206.5 45.1 205.7 44.4 204.95 43.7 204.95 42.75 204.95 41.75 205.7 41.05 206.5 40.4 207.6 40.4" fill="#61e6fc" fill-rule="evenodd" stroke="none"/>
  </g>
</svg>
