<?xml version="1.0" encoding="UTF-8" standalone="no"?>
<svg xmlns:xlink="http://www.w3.org/1999/xlink" height="20.6px" width="27.1px" xmlns="http://www.w3.org/2000/svg">
  <g transform="matrix(1.0, 0.0, 0.0, 1.0, -5.9, -10.6)">
    <path d="M29.05 11.2 Q30.4 11.2 31.5 12.65 32.5 14.05 32.5 16.1 L32.5 25.8 Q32.5 27.8 31.5 29.25 30.4 30.7 29.05 30.7 L18.2 30.7 17.05 30.5 15.1 30.0 12.75 29.25 Q10.8 28.35 10.0 27.65 8.05 25.7 7.1 23.1 L6.7 22.1 6.6 21.4 6.4 19.9 6.4 19.8 6.4 19.7 6.6 18.0 6.85 17.1 7.35 16.15 Q8.5 14.7 9.9 14.0 L12.65 12.65 15.45 11.7 16.45 11.7 16.2 12.25 Q17.05 11.2 18.2 11.2 L18.5 11.2 19.3 11.1 27.95 11.1 28.75 11.2 29.05 11.2" fill="#e83c25" fill-rule="evenodd" stroke="none"/>
    <path d="M29.05 11.2 Q30.4 11.2 31.5 12.65 32.5 14.05 32.5 16.1 L32.5 25.8 Q32.5 27.8 31.5 29.25 30.4 30.7 29.05 30.7 L18.2 30.7 17.05 30.5 15.1 30.0 12.75 29.25 Q10.8 28.35 10.0 27.65 8.05 25.7 7.1 23.1 L6.7 22.1 6.6 21.4 6.4 19.9 6.4 19.8 6.4 19.7 6.6 18.0 6.85 17.1 7.35 16.15 Q8.5 14.7 9.9 14.0 L12.65 12.65 15.45 11.7 16.45 11.7 16.2 12.25 Q17.05 11.2 18.2 11.2 L18.5 11.2 19.3 11.1 27.95 11.1 28.75 11.2 29.05 11.2 Z" fill="none" stroke="#541f1c" stroke-linecap="round" stroke-linejoin="round" stroke-width="1.0"/>
  </g>
</svg>
