<?xml version="1.0" encoding="UTF-8" standalone="no"?>
<svg xmlns:xlink="http://www.w3.org/1999/xlink" height="19.65px" width="25.65px" xmlns="http://www.w3.org/2000/svg">
  <g transform="matrix(1.0, 0.0, 0.0, 1.0, -6.4, -11.05)">
    <path d="M28.65 11.2 Q30.05 11.2 31.05 12.65 32.05 14.05 32.05 16.1 L32.05 25.8 Q32.05 27.8 31.05 29.3 30.05 30.7 28.65 30.7 L17.8 30.7 Q16.4 30.7 15.45 29.3 14.4 27.8 14.4 25.8 L14.4 16.1 Q14.4 14.05 15.45 12.65 16.4 11.2 17.8 11.2 L28.65 11.2" fill="#e83c25" fill-rule="evenodd" stroke="none"/>
    <path d="M29.8 12.35 Q30.75 13.6 30.75 15.35 L30.75 21.3 Q30.75 23.05 29.8 24.3 28.8 25.6 27.5 25.6 L18.75 25.6 Q17.4 25.6 16.4 24.3 15.5 23.05 15.5 21.3 L15.5 15.35 Q15.5 13.6 16.4 12.35 17.4 11.05 18.75 11.05 L27.5 11.05 Q28.8 11.05 29.8 12.35" fill="#ffd6d4" fill-rule="evenodd" stroke="none"/>
    <path d="M18.6 15.35 Q18.6 13.7 19.45 12.45 20.3 11.25 21.35 11.25 L28.65 11.25 Q29.75 11.25 30.55 12.45 31.3 13.65 31.3 15.35 L31.3 21.0 Q31.3 22.8 30.55 23.9 29.75 25.2 28.65 25.2 L21.35 25.2 Q20.3 25.2 19.45 23.9 18.6 22.8 18.6 21.0 L18.6 15.35" fill="#ff7761" fill-rule="evenodd" stroke="none"/>
    <path d="M25.6 11.35 L27.15 11.35 27.55 13.2 27.0 13.1 25.85 13.1 25.6 11.35 M28.8 11.4 L29.5 11.7 30.35 12.55 Q30.45 12.55 30.6 12.7 L29.3 15.1 28.8 14.05 28.65 13.95 28.8 11.4 M31.3 15.1 L31.3 15.35 31.3 17.55 29.5 17.65 29.5 16.45 31.3 15.1 M31.3 19.2 L31.3 21.05 29.5 20.8 29.5 18.85 31.3 19.2 M31.1 22.9 L30.35 24.05 29.2 25.1 28.4 22.95 28.8 22.65 29.1 22.35 29.3 21.9 31.1 22.9 M27.55 25.3 L25.8 25.3 25.6 23.25 27.0 23.25 27.35 23.25 27.55 25.3 M24.25 25.3 L22.7 25.3 22.7 23.25 24.25 23.25 24.25 25.3 M21.25 25.3 L19.35 25.3 18.6 25.1 19.8 23.25 20.25 23.25 21.55 23.25 21.25 25.3 M17.05 23.9 Q16.5 23.25 16.25 22.35 16.1 21.9 16.1 21.25 L17.8 21.05 18.05 21.9 18.4 22.35 18.6 22.55 17.05 23.9 M16.1 19.7 L16.1 18.2 17.8 18.35 17.8 19.8 16.1 19.7 M16.1 16.95 L16.1 15.35 16.1 15.1 17.8 15.6 17.8 16.2 17.8 17.05 16.1 16.95 M16.45 13.75 Q16.7 13.0 17.05 12.55 L17.35 12.25 18.85 13.6 18.45 14.05 18.0 14.75 16.45 13.75 M18.9 11.35 L19.35 11.35 20.65 11.35 21.1 13.1 20.25 13.1 19.8 13.1 18.9 11.35 M22.15 11.35 L24.05 11.35 24.35 13.1 22.75 13.1 22.15 11.35" fill="#eff268" fill-rule="evenodd" stroke="none"/>
    <path d="M24.05 11.35 L25.6 11.35 25.85 13.1 24.35 13.1 24.05 11.35 M27.15 11.35 L28.15 11.35 28.8 11.4 28.65 13.95 Q28.2 13.35 27.55 13.2 L27.15 11.35 M30.6 12.7 Q31.2 13.7 31.3 15.1 L29.5 16.45 29.5 16.2 29.3 15.1 30.6 12.7 M31.3 17.55 L31.3 19.2 29.5 18.85 29.5 17.65 31.3 17.55 M31.3 21.05 L31.1 22.9 29.3 21.9 29.5 21.2 29.5 20.8 31.3 21.05 M29.2 25.1 L28.15 25.3 27.55 25.3 27.35 23.25 28.4 22.95 29.2 25.1 M25.8 25.3 L24.25 25.3 24.25 23.25 25.6 23.25 25.8 25.3 M22.7 25.3 L21.25 25.3 21.55 23.25 22.7 23.25 22.7 25.3 M18.6 25.1 Q17.8 24.9 17.05 24.05 L17.05 23.9 18.6 22.55 18.7 22.75 19.8 23.25 18.6 25.1 M16.1 21.25 L16.1 21.05 16.1 19.7 17.8 19.8 17.8 20.3 17.8 21.05 16.1 21.25 M16.1 18.2 L16.1 16.95 17.8 17.05 17.8 18.35 16.1 18.2 M16.1 15.1 Q16.1 14.4 16.45 13.75 L18.0 14.75 17.8 15.6 16.1 15.1 M17.35 12.25 Q18.0 11.5 18.9 11.35 L19.8 13.1 Q19.3 13.2 18.85 13.6 L17.35 12.25 M20.65 11.35 L22.15 11.35 22.75 13.1 21.1 13.1 20.65 11.35" fill="#191919" fill-rule="evenodd" stroke="none"/>
    <path d="M29.85 16.05 L29.85 20.2 Q29.85 21.45 29.3 22.3 28.8 23.2 28.0 23.2 L23.0 23.2 Q22.25 23.2 21.7 22.3 21.15 21.45 21.15 20.2 L21.15 16.05 Q21.15 14.8 21.7 13.95 22.25 13.0 23.0 13.0 L28.0 13.0 Q28.75 13.0 29.3 13.95 29.85 14.8 29.85 16.05" fill="#c11e0e" fill-rule="evenodd" stroke="none"/>
    <path d="M29.75 16.15 L29.75 20.3 Q29.75 21.55 29.0 22.4 28.25 23.3 27.2 23.3 L20.25 23.3 Q19.15 23.3 18.45 22.4 17.65 21.55 17.65 20.3 L17.65 16.15 Q17.65 14.9 18.45 14.05 19.2 13.1 20.25 13.1 L27.2 13.1 Q28.25 13.1 29.0 14.05 29.75 14.9 29.75 16.15" fill="#c11e0e" fill-rule="evenodd" stroke="none"/>
    <path d="M29.85 17.7 L29.85 21.0 Q29.85 21.95 29.15 22.7 28.55 23.35 27.6 23.35 L21.5 23.35 Q20.55 23.35 19.95 22.7 19.25 21.95 19.25 21.0 L19.25 17.7 Q19.25 16.7 19.95 16.0 20.55 15.3 21.5 15.3 L27.6 15.3 Q28.55 15.3 29.15 16.0 29.85 16.7 29.85 17.7" fill="#e83c25" fill-rule="evenodd" stroke="none"/>
    <path d="M19.9 25.85 L28.55 25.95 Q30.3 30.0 29.55 30.35 L24.65 30.65 19.3 30.45 Q18.55 30.35 19.1 28.1 L19.9 25.85" fill="#c11e0e" fill-rule="evenodd" stroke="none"/>
    <path d="M22.85 19.75 Q22.8 16.75 23.35 16.1 24.1 15.25 26.95 15.55 L28.9 22.8 26.25 23.2 23.55 23.1 Q22.95 22.8 22.85 19.75" fill="#878787" fill-rule="evenodd" stroke="none"/>
    <path d="M27.15 15.65 Q24.35 15.35 23.6 16.3 23.05 16.9 23.1 19.9 23.15 22.9 23.8 23.25 L26.5 23.35 29.1 22.9" fill="none" stroke="#515151" stroke-linecap="round" stroke-linejoin="round" stroke-width="0.75"/>
    <path d="M30.65 12.45 L30.9 20.5 29.05 22.9 29.15 21.05 27.55 22.95 27.5 14.95 29.45 12.3 30.65 12.45" fill="#cecece" fill-rule="evenodd" stroke="none"/>
    <path d="M29.6 20.45 L30.9 20.5 29.05 22.9 27.55 22.95 29.6 20.45" fill="#595959" fill-rule="evenodd" stroke="none"/>
    <path d="M27.5 14.85 L29.45 12.45 29.7 20.1 27.65 22.55 27.5 14.85" fill="#727272" fill-rule="evenodd" stroke="none"/>
    <path d="M29.1 22.8 L30.9 20.5 30.65 12.45 29.5 12.3 29.6 20.3 27.55 22.85 27.5 15.45 29.45 12.3 29.5 12.3" fill="none" stroke="#515151" stroke-linecap="round" stroke-linejoin="round" stroke-width="0.75"/>
    <path d="M15.45 11.7 L16.45 11.7 Q16.3 11.8 15.9 12.95 15.6 13.35 15.55 14.9 L15.55 14.95 15.45 15.7 15.4 15.7 13.85 15.75 12.1 16.0 10.6 16.25 8.7 16.95 7.45 17.5 6.6 18.0 6.85 17.1 7.35 16.15 Q8.5 14.7 9.9 14.0 L12.65 12.65 15.45 11.7 M6.45 19.8 L6.7 19.8 7.95 20.1 9.45 20.3 10.95 20.35 12.65 20.5 14.25 20.35 15.45 20.3 Q15.45 22.1 15.85 23.4 L15.1 25.3 14.6 25.8 10.15 24.3 9.55 24.05 8.6 23.4 Q7.3 22.3 6.6 20.3 L6.45 19.8" fill="#ec4f3a" fill-rule="evenodd" stroke="none"/>
    <path d="M15.9 25.95 L15.8 26.25 15.1 26.2 14.45 26.15 Q11.9 25.55 10.2 24.75 L9.4 24.3 8.2 23.4 8.0 23.2 Q7.1 22.15 6.55 20.5 L6.4 19.9 6.4 19.8 6.4 19.7 6.45 19.8 6.6 20.3 Q7.3 22.3 8.6 23.4 L9.55 24.05 10.15 24.3 14.6 25.8 15.1 25.85 15.9 25.95" fill="#ff7a69" fill-rule="evenodd" stroke="none"/>
    <path d="M15.8 26.25 L17.95 26.4 20.25 26.4 Q25.65 30.75 18.15 30.65 L15.1 30.0 12.75 29.25 Q10.8 28.35 10.0 27.65 8.05 25.7 7.1 23.1 L6.7 22.1 6.6 21.4 6.4 19.9 6.55 20.5 Q7.1 22.15 8.0 23.2 L8.2 23.4 9.4 24.3 10.2 24.75 Q11.9 25.55 14.45 26.15 L15.1 26.2 15.8 26.25" fill="#c11e0e" fill-rule="evenodd" stroke="none"/>
    <path d="M15.85 23.4 Q16.3 25.1 17.15 26.15 L15.9 25.95 15.1 25.85 14.6 25.8 15.1 25.3 15.85 23.4" fill="#e83c25" fill-rule="evenodd" stroke="none"/>
    <path d="M7.45 17.5 L8.7 16.95 Q8.2 18.4 7.95 20.1 L6.7 19.8 7.45 17.5 M10.6 16.25 L12.1 16.0 Q11.3 18.2 10.95 20.35 L9.45 20.3 10.6 16.25 M13.85 15.75 L15.4 15.7 Q14.6 18.0 14.25 20.35 L12.65 20.5 13.85 15.75" fill="#eff268" fill-rule="evenodd" stroke="none"/>
    <path d="M8.7 16.95 L10.6 16.25 9.45 20.3 7.95 20.1 Q8.2 18.4 8.7 16.95 M12.1 16.0 L13.85 15.75 12.65 20.5 10.95 20.35 Q11.3 18.2 12.1 16.0 M15.4 15.7 L15.45 15.7 15.45 19.1 15.45 20.3 14.25 20.35 Q14.6 18.0 15.4 15.7 M6.7 19.8 L6.45 19.8 6.4 19.7 6.6 18.0 7.45 17.5 6.7 19.8" fill="#191919" fill-rule="evenodd" stroke="none"/>
  </g>
</svg>
