<?xml version="1.0" encoding="UTF-8" standalone="no"?>
<svg xmlns:xlink="http://www.w3.org/1999/xlink" height="41.75px" width="41.7px" xmlns="http://www.w3.org/2000/svg">
  <g transform="matrix(1.0, 0.0, 0.0, 1.0, 0.0, 0.0)">
    <path d="M23.4 5.0 L22.85 6.35 Q22.55 7.4 22.65 8.0 24.15 8.2 25.55 9.05 L25.55 8.95 25.7 9.15 Q26.9 9.8 27.95 11.05 28.5 10.65 28.75 11.45 29.1 11.9 29.25 12.65 L29.35 12.8 29.7 12.8 29.85 12.85 29.85 12.95 30.55 12.95 30.95 13.0 31.8 13.05 33.3 13.25 33.45 13.3 32.35 17.3 34.7 20.15 32.7 22.65 33.45 24.1 Q32.85 24.35 32.3 24.75 33.9 26.5 34.1 29.3 L34.65 29.5 Q35.25 29.85 35.3 30.95 L34.8 31.3 Q34.1 31.55 33.35 30.7 L33.45 31.3 Q33.3 32.0 32.3 32.6 31.1 32.25 31.15 31.1 30.5 32.45 29.4 32.0 L29.25 31.55 Q29.15 30.85 29.7 30.15 L29.7 29.9 27.85 31.25 Q25.05 36.2 21.05 36.2 16.65 36.2 13.65 30.95 L13.15 30.2 12.35 29.65 12.35 29.8 Q13.2 30.85 12.6 31.6 11.9 31.9 11.3 31.3 L10.85 30.7 10.85 30.85 10.85 30.95 Q10.8 31.9 9.75 32.25 8.7 31.6 8.6 30.95 L8.65 30.35 Q7.95 31.1 7.25 30.95 L6.75 30.55 Q6.85 29.5 7.4 29.15 L8.0 29.0 Q8.1 25.7 10.1 24.1 L7.7 22.95 8.75 21.65 9.35 20.65 7.7 18.4 10.5 16.6 9.8 12.45 12.75 12.8 Q12.85 11.85 13.25 11.2 L13.5 10.9 14.25 10.95 14.65 11.45 15.65 10.4 16.55 9.15 17.1 9.35 Q18.6 8.35 20.15 8.15 L20.35 7.65 Q20.85 6.5 21.65 5.75 22.8 4.75 23.4 5.0" fill="#9c9689" fill-rule="evenodd" stroke="none"/>
    <path d="M23.4 5.0 L22.85 6.35 Q22.55 7.4 22.65 8.0 24.15 8.2 25.55 9.05 L25.55 8.95 25.7 9.15 Q26.9 9.8 27.95 11.05 28.5 10.65 28.75 11.45 29.1 11.9 29.25 12.65 L29.35 12.8 29.7 12.8 29.85 12.85 29.85 12.95 30.55 12.95 30.95 13.0 31.8 13.05 33.3 13.25 33.45 13.3 32.35 17.3 34.7 20.15 32.7 22.65 33.45 24.1 Q32.85 24.35 32.3 24.75 33.9 26.5 34.1 29.3 L34.65 29.5 Q35.25 29.85 35.3 30.95 L34.8 31.3 Q34.1 31.55 33.35 30.7 L33.45 31.3 Q33.3 32.0 32.3 32.6 31.1 32.25 31.15 31.1 30.5 32.45 29.4 32.0 L29.25 31.55 Q29.15 30.85 29.7 30.15 L29.7 29.9 27.85 31.25 Q25.05 36.2 21.05 36.2 16.65 36.2 13.65 30.95 L13.15 30.2 12.35 29.65 12.35 29.8 Q13.2 30.85 12.6 31.6 11.9 31.9 11.3 31.3 L10.85 30.7 10.85 30.85 10.85 30.95 Q10.8 31.9 9.75 32.25 8.7 31.6 8.6 30.95 L8.65 30.35 Q7.95 31.1 7.25 30.95 L6.75 30.55 Q6.85 29.5 7.4 29.15 L8.0 29.0 Q8.1 25.7 10.1 24.1 L7.7 22.95 8.75 21.65 9.35 20.65 7.7 18.4 10.5 16.6 9.8 12.45 12.75 12.8 Q12.85 11.85 13.25 11.2 L13.5 10.9 14.25 10.95 14.65 11.45 15.65 10.4 16.55 9.15 17.1 9.35 Q18.6 8.35 20.15 8.15 L20.35 7.65 Q20.85 6.5 21.65 5.75 22.8 4.75 23.4 5.0 Z" fill="none" stroke="#4a2213" stroke-linecap="round" stroke-linejoin="round" stroke-width="2.0"/>
    <path d="M23.1 6.15 Q22.7 7.65 22.9 8.2 23.15 8.75 22.6 8.75 L21.9 8.65 20.25 8.5 20.55 7.5 Q21.05 6.35 21.9 5.55 23.0 4.6 23.6 4.85 L23.1 6.15" fill="#f0af61" fill-rule="evenodd" stroke="none"/>
    <path d="M22.1 6.2 L23.0 5.5 22.75 6.15 22.45 8.05 21.4 8.1 21.3 7.9 Q21.2 7.05 22.1 6.2" fill="#eecc78" fill-rule="evenodd" stroke="none"/>
    <path d="M6.85 30.55 L7.2 30.05 7.85 29.65 Q8.4 29.35 8.6 28.7 L9.05 27.25 9.8 25.7 Q10.2 24.85 11.1 24.1 10.35 23.45 10.4 22.5 12.9 21.6 14.15 23.95 15.2 25.95 14.9 28.85 L12.3 26.55 12.4 30.0 Q13.25 31.05 12.65 31.8 11.95 32.1 11.35 31.5 L10.9 30.9 Q10.95 32.05 9.8 32.45 8.75 31.8 8.65 31.1 L8.7 30.5 Q7.95 31.3 7.35 31.1 L6.8 30.75 6.85 30.55" fill="#e9aa5e" fill-rule="evenodd" stroke="none"/>
    <path d="M10.4 22.5 Q10.35 23.45 11.1 24.1 10.2 24.85 9.8 25.7 L9.05 27.25 8.6 28.7 Q8.4 29.35 7.85 29.65 L7.2 30.05 6.85 30.55 Q6.95 29.65 7.5 29.35 7.75 29.15 8.0 29.2 8.15 25.65 10.45 23.95 L10.2 22.55 10.4 22.5" fill="#ffdbb1" fill-rule="evenodd" stroke="none"/>
    <path d="M29.6 22.8 Q29.75 23.95 30.7 24.7 L32.2 26.25 33.3 27.85 Q33.65 28.45 33.8 29.8 L34.0 29.75 Q34.6 29.75 35.05 30.35 L35.3 30.7 35.35 31.1 35.35 31.15 35.3 31.25 35.25 31.3 34.85 31.5 Q34.2 31.7 33.45 30.9 L33.5 31.5 Q33.4 32.2 32.35 32.85 31.1 32.45 31.2 31.3 30.55 32.65 29.5 32.2 L29.3 31.7 Q29.2 31.05 29.75 30.35 29.6 28.55 29.8 26.95 L27.25 29.25 Q26.95 26.4 27.95 24.35 28.6 23.2 29.6 22.8" fill="#e9aa5e" fill-rule="evenodd" stroke="none"/>
    <path d="M29.6 22.8 L31.95 22.95 31.7 24.35 Q34.0 26.2 34.15 29.55 L34.65 29.7 35.3 30.7 35.05 30.35 Q34.6 29.75 34.0 29.75 L33.8 29.8 Q33.65 28.45 33.3 27.85 L32.2 26.25 30.7 24.7 Q29.75 23.95 29.6 22.8" fill="#ffdbb1" fill-rule="evenodd" stroke="none"/>
    <path d="M32.4 21.25 Q30.15 21.75 29.15 24.3 28.25 26.6 28.65 29.4 25.6 31.4 21.65 31.4 18.4 31.4 14.95 28.75 15.25 25.8 14.15 23.85 12.9 21.4 10.25 22.4 L10.2 21.75 Q10.2 17.35 13.6 12.9 17.2 8.05 21.7 8.05 26.05 8.05 29.3 12.65 32.25 16.75 32.4 21.25" fill="#a6671a" fill-rule="evenodd" stroke="none"/>
    <path d="M32.4 21.25 Q32.25 16.75 29.3 12.65 26.05 8.05 21.7 8.05 17.2 8.05 13.6 12.9 10.2 17.35 10.2 21.75 L10.25 22.4 Q12.9 21.4 14.15 23.85 15.25 25.8 14.95 28.75 18.4 31.4 21.65 31.4 25.6 31.4 28.65 29.4 28.25 26.6 29.15 24.3 30.15 21.75 32.4 21.25 Z" fill="none" stroke="#4a2213" stroke-linecap="round" stroke-linejoin="round" stroke-width="0.05"/>
    <path d="M22.5 13.15 L22.25 17.3 20.95 17.3 20.75 13.15 22.5 13.15" fill="#79844c" fill-rule="evenodd" stroke="none"/>
    <path d="M22.5 8.7 Q24.0 8.95 25.15 9.8 26.2 10.65 26.2 11.4 26.2 12.2 25.05 12.7 L22.2 13.35 21.45 13.4 20.6 13.35 Q18.95 13.25 17.85 12.65 16.75 12.15 16.75 11.4 16.75 10.65 17.75 9.8 18.9 8.95 20.4 8.7 L21.1 8.65 21.35 8.6 21.65 8.6 22.5 8.7" fill="#ad7114" fill-rule="evenodd" stroke="none"/>
    <path d="M12.3 22.35 L12.85 22.55 14.45 27.2 14.3 28.4 12.3 26.55 12.4 30.0 Q13.25 31.05 12.65 31.8 11.95 32.1 11.35 31.5 L10.9 30.9 Q10.95 31.85 9.9 32.4 L10.1 31.85 10.05 30.05 11.15 28.7 Q11.9 27.15 12.05 25.2 L12.3 22.35" fill="#c98539" fill-rule="evenodd" stroke="none"/>
    <path d="M30.05 22.7 L30.45 22.65 Q30.45 27.3 30.7 28.45 L31.1 30.45 30.8 30.85 30.3 31.65 30.05 32.25 29.5 32.2 29.3 31.7 Q29.2 31.05 29.75 30.35 29.6 28.55 29.8 26.95 L28.4 28.25 30.05 22.7" fill="#c98539" fill-rule="evenodd" stroke="none"/>
    <path d="M13.55 30.55 L13.55 30.5 Q13.45 30.25 13.75 29.75 15.55 26.75 20.65 26.75 24.95 26.75 27.15 29.35 L28.25 30.95 28.0 31.1 Q25.15 36.15 21.2 36.15 16.9 36.15 14.0 31.25 L13.75 30.85 13.6 30.6 13.55 30.55" fill="#c48930" fill-rule="evenodd" stroke="none"/>
    <path d="M13.55 30.55 L13.35 30.2 13.25 30.1 11.6 28.95 11.65 27.15 9.45 26.25 10.35 24.0 7.8 22.9 8.9 21.55 9.45 20.55 7.8 18.3 10.65 16.5 9.9 12.35 14.1 12.95 16.75 9.2 Q17.2 9.25 21.95 12.55 L25.65 9.05 26.65 10.6 28.25 12.75 30.7 12.85 33.55 13.15 32.45 17.2 Q32.85 17.35 34.8 20.0 L32.8 22.55 32.85 22.6 33.55 24.0 Q32.55 24.35 31.75 25.25 L32.15 26.8 30.1 27.8 29.85 29.8 29.8 29.8 28.25 30.95 27.15 29.35 Q24.95 26.75 20.65 26.75 15.55 26.75 13.75 29.75 13.45 30.25 13.55 30.5 L13.55 30.55" fill="url(#gradient0)" fill-rule="evenodd" stroke="none"/>
    <path d="M29.85 12.85 L29.95 12.95 29.85 13.1 28.15 13.0 28.1 13.2 25.75 9.6 21.95 12.7 16.65 9.7 14.2 13.15 14.05 13.2 14.0 13.2 13.95 13.0 16.7 9.2 21.9 12.1 25.7 9.05 28.3 12.75 29.85 12.85" fill="#4a2213" fill-rule="evenodd" stroke="none"/>
    <path d="M22.15 12.55 L22.05 12.95 16.55 9.9 16.8 9.55 22.15 12.55" fill="#f5d687" fill-rule="evenodd" stroke="none"/>
    <path d="M27.75 12.6 L27.4 13.2 25.75 9.7 Q26.8 11.45 27.75 12.6" fill="#fff5db" fill-rule="evenodd" stroke="none"/>
    <path d="M28.2 13.1 L28.35 13.25 30.65 13.35 33.55 13.65 27.65 13.4 28.2 13.1" fill="#ffb600" fill-rule="evenodd" stroke="none"/>
    <path d="M28.0 12.8 L28.2 13.1 27.65 13.4 28.0 12.8" fill="#ffb600" fill-rule="evenodd" stroke="none"/>
    <path d="M10.0 12.25 L11.35 16.0 10.75 16.4 10.0 12.25" fill="#ffb600" fill-rule="evenodd" stroke="none"/>
    <path d="M28.6 20.8 Q29.1 22.15 29.1 23.15 29.1 26.25 27.55 29.8 25.25 35.05 21.1 34.8 16.45 34.55 14.2 29.75 12.85 26.75 12.75 23.65 12.75 22.2 13.4 20.65 14.15 19.0 15.2 18.45 L17.25 17.1 Q18.5 16.3 19.8 16.1 20.55 17.45 20.55 20.25 L20.7 20.7 21.15 21.05 Q21.75 21.05 21.8 20.15 L22.0 17.9 Q22.05 16.65 22.3 16.15 23.8 16.4 25.15 17.3 L27.25 18.85 Q28.05 19.35 28.6 20.8" fill="#ffb600" fill-rule="evenodd" stroke="none"/>
    <path d="M20.8 20.65 L20.65 20.2 Q20.65 17.4 19.9 16.0 L21.05 15.9 22.45 16.05 Q22.2 16.6 22.15 17.85 L21.95 20.1 Q21.85 21.0 21.25 21.0 L20.8 20.65" fill="#ff9100" fill-rule="evenodd" stroke="none"/>
    <path d="M19.9 16.0 L19.55 15.55 22.7 15.5 22.45 16.05 21.05 15.9 19.9 16.0" fill="#ff4e00" fill-rule="evenodd" stroke="none"/>
    <path d="M18.95 26.85 Q18.6 28.8 16.65 28.2 L14.8 27.25 Q12.75 25.5 13.25 24.1 L14.15 23.05 Q16.85 22.65 18.2 24.7 18.85 25.75 18.95 26.85" fill="#b45a13" fill-rule="evenodd" stroke="none"/>
    <path d="M23.2 26.8 L24.0 24.7 Q25.25 22.65 28.0 23.0 L28.85 24.0 Q29.4 25.45 27.4 27.2 L25.45 28.15 Q23.5 28.75 23.2 26.8" fill="#b45a13" fill-rule="evenodd" stroke="none"/>
    <path d="M18.3 27.15 Q17.95 27.75 17.1 27.7 16.3 27.7 15.5 27.15 L14.4 25.85 Q14.1 25.1 14.4 24.55 14.8 24.0 15.55 24.0 16.4 24.05 17.25 24.6 18.05 25.15 18.35 25.95 18.65 26.6 18.3 27.15" fill="#ffffff" fill-rule="evenodd" stroke="none"/>
    <path d="M27.95 24.5 Q28.3 25.05 28.0 25.85 L26.8 27.1 Q26.0 27.7 25.15 27.7 24.3 27.75 23.95 27.15 23.55 26.6 23.9 25.9 24.25 25.1 25.05 24.55 25.9 23.95 26.7 23.95 27.6 23.9 27.95 24.5" fill="#ffffff" fill-rule="evenodd" stroke="none"/>
    <path d="M17.3 27.2 Q17.3 27.75 16.7 27.75 16.1 27.75 16.1 27.2 16.1 26.65 16.7 26.65 17.2 26.65 17.3 27.2" fill="#401919" fill-rule="evenodd" stroke="none"/>
    <path d="M26.05 27.1 Q26.05 27.65 25.45 27.65 24.85 27.65 24.85 27.1 24.85 26.55 25.45 26.55 26.05 26.55 26.05 27.1" fill="#401919" fill-rule="evenodd" stroke="none"/>
    <path d="M18.75 33.05 L18.0 32.05 18.4 32.05 Q18.8 32.2 18.75 33.05" fill="#ff7900" fill-rule="evenodd" stroke="none"/>
    <path d="M23.5 33.05 Q23.45 32.2 23.85 32.05 L24.25 32.05 23.5 33.05" fill="#ff7900" fill-rule="evenodd" stroke="none"/>
    <path d="M16.95 19.95 L18.05 21.25 Q19.2 22.85 19.35 24.55 19.05 23.7 18.3 22.75 16.85 20.85 14.95 20.25 14.2 20.0 15.05 19.6 15.85 19.2 16.95 19.95" fill="#ffce00" fill-rule="evenodd" stroke="none"/>
    <path d="M25.6 19.95 Q26.7 19.2 27.5 19.55 28.4 19.95 27.6 20.2 25.7 20.85 24.2 22.75 L23.15 24.55 Q23.3 22.8 24.45 21.25 L25.6 19.95" fill="#ffce00" fill-rule="evenodd" stroke="none"/>
    <path d="M25.6 19.95 Q26.7 19.2 27.5 19.6 28.35 20.0 27.6 20.25 L26.4 20.75 25.4 20.2 25.6 19.95" fill="#ffdf57" fill-rule="evenodd" stroke="none"/>
    <path d="M16.95 19.95 L17.15 20.2 Q16.65 20.5 16.1 20.75 L14.95 20.25 Q14.2 20.0 15.05 19.6 15.85 19.2 16.95 19.95" fill="#ffdf57" fill-rule="evenodd" stroke="none"/>
    <path d="M28.15 18.55 L25.4 18.45 Q23.35 17.5 23.75 16.6 24.55 14.85 26.35 12.75 L28.05 11.0 Q28.7 10.4 29.0 11.25 29.8 12.5 29.4 15.05 29.1 17.4 28.15 18.55" fill="#ece9c7" fill-rule="evenodd" stroke="none"/>
    <path d="M28.45 11.3 L28.75 11.25 Q29.7 13.0 28.9 15.85 L27.8 18.4 Q27.4 18.7 26.35 18.4 L25.4 18.1 Q24.95 17.85 25.85 15.85 L26.6 15.9 Q27.4 15.95 27.65 15.45 27.85 15.05 27.15 14.85 L26.45 14.6 27.1 13.35 27.95 13.4 Q28.7 13.5 28.75 13.1 L28.2 12.65 27.7 12.2 Q28.1 11.5 28.45 11.3" fill="#ffffff" fill-rule="evenodd" stroke="none"/>
    <path d="M29.0 12.3 Q28.65 12.6 28.35 12.1 L28.25 11.75 Q28.25 11.55 28.4 11.5 L29.05 11.6 Q29.3 12.1 29.0 12.3" fill="#ffffff" fill-rule="evenodd" stroke="none"/>
    <path d="M14.25 18.35 Q13.35 17.2 13.0 14.85 12.65 12.3 13.5 11.05 L13.75 10.7 14.45 10.8 16.1 12.55 Q17.9 14.7 18.65 16.45 19.05 17.3 17.0 18.3 L14.25 18.35" fill="#e7e4c3" fill-rule="evenodd" stroke="none"/>
    <path d="M14.1 11.1 L14.8 12.0 14.3 12.4 13.75 12.9 Q13.8 13.25 14.55 13.2 L15.4 13.15 15.95 14.4 15.35 14.7 Q14.65 14.85 14.8 15.25 15.05 15.75 15.85 15.7 L16.6 15.7 Q17.5 17.7 17.0 17.9 15.25 18.65 14.6 18.2 14.0 17.15 13.55 15.65 12.75 12.75 13.8 11.0 L14.1 11.1" fill="#ffffff" fill-rule="evenodd" stroke="none"/>
    <path d="M13.5 12.1 Q13.2 11.85 13.45 11.45 13.8 11.0 14.15 11.25 14.5 11.5 14.15 11.9 13.85 12.4 13.5 12.1" fill="#ffffff" fill-rule="evenodd" stroke="none"/>
    <path d="M18.65 32.15 Q18.35 31.6 19.2 30.6 L20.85 28.3 21.0 28.25 Q21.25 28.15 21.4 28.4 L22.95 30.85 23.5 31.75 Q23.7 32.3 23.1 32.9 22.35 33.5 21.4 33.6 L19.8 33.25 Q19.0 32.9 18.65 32.15" fill="#f0edcb" fill-rule="evenodd" stroke="none"/>
    <path d="M20.6 30.35 L20.15 29.85 21.15 28.9 Q22.0 29.55 21.85 30.15 21.7 30.55 21.85 30.65 L22.35 30.6 Q22.55 30.6 22.55 31.05 L22.1 31.15 Q22.0 31.15 22.05 31.35 L22.1 31.55 22.65 31.55 22.7 31.85 Q22.4 32.5 21.3 32.65 20.05 32.7 19.4 31.75 19.25 31.6 19.4 31.55 L19.5 31.5 20.05 31.55 20.15 31.35 20.05 31.25 19.65 30.95 19.95 30.6 20.3 30.65 20.6 30.35" fill="#ffffff" fill-rule="evenodd" stroke="none"/>
    <path d="M20.85 29.4 Q20.7 29.25 21.0 29.0 L21.4 28.95 21.25 29.3 20.85 29.4" fill="#ffffff" fill-rule="evenodd" stroke="none"/>
    <path d="M26.05 10.45 Q26.05 10.95 25.6 10.95 25.1 10.95 25.1 10.45 25.1 9.95 25.6 9.95 26.05 9.95 26.05 10.45" fill="#fff5db" fill-rule="evenodd" stroke="none"/>
    <path d="M33.4 13.6 Q33.4 14.05 32.9 14.05 32.45 14.05 32.45 13.6 32.45 13.1 32.9 13.1 33.4 13.1 33.4 13.6" fill="#fff5db" fill-rule="evenodd" stroke="none"/>
    <path d="M34.35 20.25 Q34.35 20.7 33.95 20.7 33.45 20.7 33.45 20.25 33.45 19.75 33.95 19.75 34.35 19.75 34.35 20.25" fill="#fff5db" fill-rule="evenodd" stroke="none"/>
    <path d="M32.8 23.55 Q32.8 24.05 32.3 24.05 31.85 24.05 31.85 23.55 31.85 23.1 32.3 23.1 32.8 23.1 32.8 23.55" fill="#fff5db" fill-rule="evenodd" stroke="none"/>
    <path d="M17.45 11.0 Q17.45 11.5 17.0 11.5 16.55 11.5 16.55 11.0 16.55 10.5 17.0 10.5 17.45 10.5 17.45 11.0" fill="#fff5db" fill-rule="evenodd" stroke="none"/>
    <path d="M11.45 13.55 Q11.45 14.05 10.95 14.05 10.5 14.05 10.5 13.55 10.5 13.05 10.95 13.05 11.45 13.05 11.45 13.55" fill="#fff5db" fill-rule="evenodd" stroke="none"/>
    <path d="M9.65 18.4 Q9.65 18.9 9.2 18.9 8.75 18.9 8.75 18.4 8.75 18.0 9.2 18.0 L9.65 18.4" fill="#fff5db" fill-rule="evenodd" stroke="none"/>
    <path d="M9.8 22.6 L9.35 23.05 Q8.9 23.05 8.9 22.6 8.9 22.1 9.35 22.1 9.8 22.1 9.8 22.6" fill="#fff5db" fill-rule="evenodd" stroke="none"/>
    <path d="M35.55 6.1 Q41.7 12.25 41.7 20.85 41.7 29.5 35.55 35.6 29.45 41.75 20.85 41.75 12.25 41.75 6.1 35.6 0.0 29.5 0.0 20.85 0.0 12.25 6.1 6.1 12.25 0.0 20.85 0.0 29.45 0.0 35.55 6.1" fill="url(#gradient1)" fill-rule="evenodd" stroke="none"/>
    <path d="M21.4 0.3 Q26.9 0.3 30.8 2.6 34.75 4.95 34.75 8.25 34.75 11.5 30.8 13.85 26.9 16.15 21.4 16.15 15.9 16.15 12.0 13.85 8.1 11.5 8.1 8.25 8.1 4.95 12.0 2.6 15.9 0.3 21.4 0.3" fill="url(#gradient2)" fill-rule="evenodd" stroke="none"/>
  </g>
  <defs>
    <linearGradient gradientTransform="matrix(-1.0E-4, -0.012, 0.0134, -1.0E-4, 21.8, 20.25)" gradientUnits="userSpaceOnUse" id="gradient0" spreadMethod="pad" x1="-819.2" x2="819.2">
      <stop offset="0.0" stop-color="#643022"/>
      <stop offset="1.0" stop-color="#fab632"/>
    </linearGradient>
    <radialGradient cx="0" cy="0" gradientTransform="matrix(0.0261, 0.0, 0.0, 0.0261, 20.25, 19.45)" gradientUnits="userSpaceOnUse" id="gradient1" r="819.2" spreadMethod="pad">
      <stop offset="0.0" stop-color="#fbfbfb" stop-opacity="0.0"/>
      <stop offset="0.6" stop-color="#eff7fc" stop-opacity="0.08627451"/>
      <stop offset="0.8666666666666667" stop-color="#d6fefa" stop-opacity="0.6509804"/>
      <stop offset="1.0" stop-color="#b4feee" stop-opacity="0.8627451"/>
    </radialGradient>
    <linearGradient gradientTransform="matrix(2.0E-4, -0.0097, 0.0162, 1.0E-4, 21.45, 8.2)" gradientUnits="userSpaceOnUse" id="gradient2" spreadMethod="pad" x1="-819.2" x2="819.2">
      <stop offset="0.0" stop-color="#fbfbfb" stop-opacity="0.0"/>
      <stop offset="1.0" stop-color="#ffffff"/>
    </linearGradient>
  </defs>
</svg>
