<?xml version="1.0" encoding="UTF-8" standalone="no"?>
<svg xmlns:xlink="http://www.w3.org/1999/xlink" height="408.25px" width="615.4px" xmlns="http://www.w3.org/2000/svg">
  <g transform="matrix(1.0, 0.0, 0.0, 1.0, 2.15, 106.75)">
    <path d="M606.25 281.85 L606.25 281.8 597.2 281.15 597.1 281.3 595.05 279.55 595.15 279.25 607.8 280.15 607.85 280.25 606.25 281.85" fill="#03429e" fill-rule="evenodd" stroke="none"/>
    <path d="M597.1 281.3 L597.2 281.15 606.25 281.8 606.25 281.85 610.05 289.55 610.1 289.7 605.1 297.05 605.05 297.05 596.1 296.35 592.15 288.6 592.1 288.45 597.1 281.3" fill="url(#gradient0)" fill-rule="evenodd" stroke="none"/>
    <path d="M595.05 279.55 L597.1 281.3 592.1 288.45 592.15 288.6 588.2 289.55 588.15 289.45 595.05 279.55" fill="#44c1f7" fill-rule="evenodd" stroke="none"/>
    <path d="M592.15 288.6 L596.1 296.35 593.8 300.5 593.6 300.5 588.2 289.55 592.15 288.6" fill="#0993ee" fill-rule="evenodd" stroke="none"/>
    <path d="M606.25 281.85 L607.85 280.25 613.25 291.2 606.2 301.45 605.05 297.05 605.1 297.05 610.1 289.7 610.05 289.55 606.25 281.85" fill="#0d206a" fill-rule="evenodd" stroke="none"/>
    <path d="M596.1 296.35 L605.05 297.05 606.2 301.45 606.15 301.5 593.8 300.5 596.1 296.35" fill="#054e94" fill-rule="evenodd" stroke="none"/>
    <path d="M16.0 281.0 L16.0 280.9 6.95 280.25 6.8 280.4 4.8 278.7 4.9 278.35 17.55 279.3 17.6 279.4 16.0 281.0" fill="#03429e" fill-rule="evenodd" stroke="none"/>
    <path d="M16.0 281.0 L17.6 279.4 23.0 290.35 15.95 300.55 14.75 296.15 14.85 296.15 19.85 288.8 16.0 281.0" fill="#0d206a" fill-rule="evenodd" stroke="none"/>
    <path d="M6.8 280.4 L6.95 280.25 16.0 280.9 16.0 281.0 19.85 288.8 14.85 296.15 14.75 296.15 5.8 295.5 1.9 287.7 1.85 287.55 6.8 280.4" fill="url(#gradient1)" fill-rule="evenodd" stroke="none"/>
    <path d="M4.8 278.7 L6.8 280.4 1.85 287.55 1.9 287.7 -2.1 288.7 -2.15 288.6 4.8 278.7" fill="#44c1f7" fill-rule="evenodd" stroke="none"/>
    <path d="M1.9 287.7 L5.8 295.5 3.55 299.65 3.3 299.65 -2.1 288.7 1.9 287.7" fill="#0993ee" fill-rule="evenodd" stroke="none"/>
    <path d="M5.8 295.5 L14.75 296.15 15.95 300.55 15.9 300.6 3.55 299.65 5.8 295.5" fill="#054e94" fill-rule="evenodd" stroke="none"/>
    <path d="M98.3 -99.2 L98.35 -99.2 100.45 -97.15 Q102.4 -98.6 104.55 -99.5 L104.8 -99.6 103.65 -102.2 104.65 -103.45 Q108.1 -104.75 112.1 -104.75 L112.1 -101.05 Q115.3 -101.05 117.95 -99.9 L118.15 -99.85 119.65 -103.45 Q123.1 -101.95 125.95 -99.2 L125.95 -99.15 125.35 -97.15 123.95 -95.75 Q125.7 -93.8 126.65 -91.5 L130.25 -93.05 Q131.6 -89.65 131.6 -85.7 L131.6 -84.05 128.35 -84.05 Q128.35 -81.75 127.8 -79.6 L127.7 -79.35 130.25 -78.4 130.25 -78.25 130.25 -76.5 Q129.3 -74.2 127.7 -72.2 L126.95 -71.25 125.7 -69.95 123.35 -72.25 123.3 -72.2 123.15 -72.05 Q121.25 -70.2 119.2 -69.1 L119.7 -67.95 119.65 -67.95 119.1 -65.75 119.2 -65.65 Q116.4 -64.5 113.3 -64.2 L112.4 -64.05 111.3 -64.05 111.3 -67.25 111.15 -67.25 Q107.8 -67.25 104.8 -68.35 L103.55 -65.55 Q99.95 -67.05 96.9 -69.85 L96.9 -69.9 97.05 -70.05 98.35 -72.1 98.7 -72.45 Q97.7 -73.5 96.95 -74.65 96.0 -76.15 95.4 -77.55 L95.35 -77.6 95.35 -77.65 92.45 -76.45 92.35 -76.45 Q90.8 -79.95 90.8 -84.0 L90.8 -84.05 90.9 -84.05 92.55 -85.7 94.2 -85.7 94.3 -86.85 Q94.65 -88.5 95.3 -90.1 L95.35 -90.45 95.4 -90.55 95.35 -90.55 92.35 -91.75 92.35 -91.85 92.9 -92.95 93.2 -93.5 Q94.55 -96.0 96.75 -98.2 L96.8 -98.3 96.9 -98.3 98.2 -99.15 98.3 -99.2 M115.05 -87.05 Q114.2 -87.95 113.2 -88.3 L110.95 -88.75 108.65 -88.3 Q107.6 -87.95 106.75 -87.05 L106.4 -86.6 106.3 -85.7 Q106.3 -84.85 106.45 -84.05 L106.7 -83.4 107.25 -82.45 108.0 -81.6 Q108.9 -80.65 109.95 -80.3 L112.1 -79.95 112.5 -79.95 114.45 -80.35 Q115.45 -80.75 116.25 -81.6 L116.75 -82.0 116.8 -83.0 116.35 -85.25 116.3 -85.4 115.05 -87.05" fill="#b1c4cb" fill-rule="evenodd" stroke="none"/>
    <path d="M98.3 -99.2 L98.35 -99.2 100.45 -97.15 Q102.4 -98.6 104.55 -99.5 L104.8 -99.6 103.65 -102.2 104.65 -103.45 Q108.1 -104.75 112.1 -104.75 L112.1 -101.05 Q115.3 -101.05 117.95 -99.9 L118.15 -99.85 119.65 -103.45 Q123.1 -101.95 125.95 -99.2 L125.95 -99.15 125.35 -97.15 123.95 -95.75 Q125.7 -93.8 126.65 -91.5 L130.25 -93.05 Q131.6 -89.65 131.6 -85.7 L131.6 -84.05 128.35 -84.05 Q128.35 -81.75 127.8 -79.6 L127.7 -79.35 130.25 -78.4 130.25 -78.25 130.25 -76.5 Q129.3 -74.2 127.7 -72.2 L126.95 -71.25 125.7 -69.95 123.35 -72.25 123.3 -72.2 123.15 -72.05 Q121.25 -70.2 119.2 -69.1 L119.7 -67.95 119.65 -67.95 119.1 -65.75 119.2 -65.65 Q116.4 -64.5 113.3 -64.2 L112.4 -64.05 111.3 -64.05 111.3 -67.25 111.15 -67.25 Q107.8 -67.25 104.8 -68.35 L103.55 -65.55 Q99.95 -67.05 96.9 -69.85 L96.9 -69.9 97.05 -70.05 98.35 -72.1 98.7 -72.45 Q97.7 -73.5 96.95 -74.65 96.0 -76.15 95.4 -77.55 L95.35 -77.6 95.35 -77.65 92.45 -76.45 92.35 -76.45 Q90.8 -79.95 90.8 -84.0 L90.8 -84.05 90.9 -84.05 92.55 -85.7 94.2 -85.7 94.3 -86.85 Q94.65 -88.5 95.3 -90.1 L95.35 -90.45 95.4 -90.55 95.35 -90.55 92.35 -91.75 92.35 -91.85 92.9 -92.95 93.2 -93.5 Q94.55 -96.0 96.75 -98.2 L96.8 -98.3 96.9 -98.3 98.2 -99.15 98.3 -99.2 M115.05 -87.05 L116.3 -85.4 116.35 -85.25 116.8 -83.0 116.75 -82.0 116.25 -81.6 Q115.45 -80.75 114.45 -80.35 L112.5 -79.95 112.1 -79.95 109.95 -80.3 Q108.9 -80.65 108.0 -81.6 L107.25 -82.45 106.7 -83.4 106.45 -84.05 Q106.3 -84.85 106.3 -85.7 L106.4 -86.6 106.75 -87.05 Q107.6 -87.95 108.65 -88.3 L110.95 -88.75 113.2 -88.3 Q114.2 -87.95 115.05 -87.05" fill="none" stroke="#005c8e" stroke-linecap="round" stroke-linejoin="round" stroke-width="4.0"/>
    <path d="M98.2 -99.1 L98.3 -99.2 98.35 -99.2 100.45 -97.05 101.1 -96.5 101.7 -96.95 Q103.15 -98.4 104.9 -99.25 L105.4 -99.5 106.15 -99.75 106.15 -99.85 104.65 -103.45 Q108.1 -104.75 112.1 -104.75 L112.1 -101.0 Q115.3 -101.0 117.95 -99.9 L118.15 -99.85 119.65 -103.45 Q123.1 -101.95 125.95 -99.2 L125.95 -99.1 123.2 -96.5 123.6 -96.1 123.95 -95.7 Q125.7 -93.8 126.65 -91.5 L130.25 -93.05 Q131.6 -89.65 131.6 -85.7 L127.7 -85.7 127.7 -85.6 127.7 -85.4 Q124.2 -86.45 120.55 -86.05 L118.7 -85.8 118.25 -87.65 Q117.75 -88.85 116.7 -89.9 115.75 -90.85 114.55 -91.35 L111.85 -91.85 109.2 -91.35 107.0 -89.9 106.85 -89.9 Q105.95 -88.85 105.5 -87.65 L105.05 -86.2 104.95 -85.15 105.05 -84.15 Q100.9 -84.15 97.95 -87.15 L97.5 -87.65 96.8 -88.55 96.8 -88.6 Q96.95 -89.8 97.4 -90.85 L97.65 -91.5 94.05 -93.0 94.0 -93.05 94.05 -93.05 94.55 -94.1 Q95.6 -96.1 97.2 -98.0 L98.2 -99.1" fill="#bbd4de" fill-rule="evenodd" stroke="none"/>
    <path d="M100.45 -97.05 Q102.4 -98.6 104.55 -99.5 L104.8 -99.6 106.15 -99.75 105.4 -99.5 104.9 -99.25 Q103.15 -98.4 101.7 -96.95 L101.1 -96.5 100.45 -97.05 M125.95 -99.1 L125.35 -97.05 123.95 -95.7 123.6 -96.1 123.2 -96.5 125.95 -99.1 M128.35 -84.05 L128.35 -84.0 Q128.35 -81.75 127.8 -79.6 L127.7 -79.35 126.7 -79.75 127.2 -81.3 127.65 -83.35 127.7 -84.05 127.7 -84.35 127.7 -85.4 127.7 -85.6 128.35 -84.05 M130.25 -78.35 L130.25 -76.5 Q129.3 -74.2 127.7 -72.15 L126.95 -71.25 125.7 -69.9 125.9 -72.15 125.95 -72.15 Q127.5 -73.65 128.7 -75.3 L129.55 -76.75 130.25 -78.35 M123.35 -72.25 L123.35 -72.2 123.3 -72.15 123.15 -71.95 Q121.25 -70.2 119.2 -69.1 L118.15 -71.4 Q120.95 -72.55 123.2 -74.8 L123.35 -72.25 M119.65 -67.9 L119.1 -65.75 119.2 -65.6 Q116.4 -64.5 113.3 -64.15 L112.4 -64.05 111.3 -64.05 112.1 -66.5 117.8 -67.2 118.35 -67.4 119.65 -67.9 M111.2 -67.2 L111.15 -67.2 Q107.8 -67.2 104.8 -68.35 L106.15 -71.4 Q108.95 -70.25 112.1 -70.25 L112.1 -70.2 111.2 -67.2 M98.7 -72.4 L96.95 -74.65 Q96.0 -76.15 95.4 -77.5 L97.65 -79.75 98.3 -78.45 Q99.3 -76.5 101.05 -74.85 L98.7 -72.4 M92.45 -76.4 L92.35 -76.4 Q90.8 -79.9 90.8 -84.0 L90.8 -84.05 90.9 -84.05 92.55 -85.7 92.55 -84.05 Q92.75 -82.1 93.3 -80.3 L94.0 -78.3 92.45 -76.4 M94.2 -85.7 L94.3 -86.85 Q94.65 -88.5 95.3 -90.1 L95.35 -90.45 95.4 -90.5 95.35 -90.5 97.65 -91.5 97.4 -90.85 Q96.95 -89.8 96.8 -88.6 L96.8 -88.55 Q96.5 -87.2 96.5 -85.7 L94.2 -85.7 M92.35 -91.85 L92.9 -92.95 93.2 -93.45 Q94.55 -95.95 96.75 -98.2 L96.8 -98.25 96.9 -98.25 98.2 -99.1 97.2 -98.0 Q95.6 -96.1 94.55 -94.1 L94.05 -93.05 94.0 -93.05 94.05 -93.0 92.35 -91.85" fill="#6f8891" fill-rule="evenodd" stroke="none"/>
    <path d="M104.8 -99.6 L103.65 -102.2 104.65 -103.45 106.15 -99.85 106.15 -99.75 104.8 -99.6 M131.6 -85.7 L131.6 -84.05 128.35 -84.05 127.7 -85.6 127.7 -85.7 131.6 -85.7 M125.7 -69.9 L123.35 -72.25 123.2 -74.8 123.2 -74.85 125.9 -72.15 125.7 -69.9 M111.3 -64.05 L111.3 -67.2 111.2 -67.2 112.1 -70.2 112.1 -66.5 111.3 -64.05 M104.65 -67.9 L103.55 -65.55 Q99.95 -67.0 96.9 -69.85 L96.9 -69.9 97.05 -70.05 98.35 -72.05 98.7 -71.75 Q101.3 -69.25 104.65 -67.95 L104.65 -67.9 M95.4 -77.5 L95.35 -77.6 95.35 -77.65 92.45 -76.4 94.0 -78.3 97.65 -79.75 95.4 -77.5 M95.35 -90.5 L92.35 -91.75 92.35 -91.85 94.05 -93.0 97.65 -91.5 95.35 -90.5" fill="#516870" fill-rule="evenodd" stroke="none"/>
    <path d="M127.7 -79.35 L130.25 -78.35 129.55 -76.75 128.7 -75.3 Q127.5 -73.65 125.95 -72.15 L125.9 -72.15 123.2 -74.85 123.2 -74.8 Q120.95 -72.55 118.15 -71.4 L119.2 -69.1 119.7 -67.95 119.65 -67.9 118.35 -67.4 117.8 -67.2 112.1 -66.5 112.1 -70.2 112.1 -70.25 Q108.95 -70.25 106.15 -71.4 L104.8 -68.35 104.65 -67.9 104.65 -67.95 Q101.3 -69.25 98.7 -71.75 L98.35 -72.05 98.7 -72.4 101.05 -74.85 Q99.3 -76.5 98.3 -78.45 L97.65 -79.75 94.0 -78.3 93.3 -80.3 Q92.75 -82.1 92.55 -84.05 L92.55 -85.7 94.2 -85.7 96.5 -85.7 Q96.5 -87.2 96.8 -88.55 L97.5 -87.65 97.95 -87.15 Q100.9 -84.15 105.05 -84.15 L105.5 -82.5 Q105.75 -81.85 106.15 -81.3 L106.85 -80.3 Q108.0 -79.25 109.2 -78.75 L111.85 -78.35 112.3 -78.35 Q113.5 -78.4 114.6 -78.8 115.75 -79.3 116.7 -80.3 L117.2 -80.8 Q117.95 -81.6 118.25 -82.5 118.75 -83.65 118.75 -85.15 L118.7 -85.8 120.55 -86.05 Q124.2 -86.45 127.7 -85.4 L127.7 -84.35 127.7 -84.05 127.65 -83.35 127.2 -81.3 126.7 -79.75 127.7 -79.35" fill="#b1c4cb" fill-rule="evenodd" stroke="none"/>
    <path d="M105.05 -84.15 L104.95 -85.15 105.05 -86.2 105.5 -87.65 Q105.95 -88.85 106.85 -89.9 L107.0 -89.9 109.2 -91.35 111.85 -91.85 114.55 -91.35 Q115.75 -90.85 116.7 -89.9 117.75 -88.85 118.25 -87.65 L118.7 -85.8 118.75 -85.15 Q118.75 -83.65 118.25 -82.5 117.95 -81.6 117.2 -80.8 L116.7 -80.3 Q115.75 -79.3 114.6 -78.8 113.5 -78.4 112.3 -78.35 L111.85 -78.35 109.2 -78.75 Q108.0 -79.25 106.85 -80.3 L106.15 -81.3 Q105.75 -81.85 105.5 -82.5 L105.05 -84.15 M116.75 -82.0 L117.6 -83.4 Q118.0 -84.45 118.0 -85.7 118.0 -86.9 117.6 -87.85 L116.25 -89.75 Q115.45 -90.55 114.45 -90.9 113.4 -91.45 112.1 -91.45 110.95 -91.45 109.95 -90.9 108.9 -90.55 108.0 -89.75 107.15 -88.85 106.7 -87.85 L106.4 -86.6 106.3 -85.7 Q106.3 -84.8 106.45 -84.05 L106.7 -83.4 107.25 -82.45 108.0 -81.6 Q108.9 -80.65 109.95 -80.3 L112.1 -79.9 112.5 -79.9 Q113.5 -79.95 114.45 -80.35 115.45 -80.75 116.25 -81.6 L116.75 -82.0" fill="#d5eef7" fill-rule="evenodd" stroke="none"/>
    <path d="M106.4 -86.6 L106.7 -87.85 Q107.15 -88.85 108.0 -89.75 108.9 -90.55 109.95 -90.9 110.95 -91.45 112.1 -91.45 113.4 -91.45 114.45 -90.9 115.45 -90.55 116.25 -89.75 L117.6 -87.85 Q118.0 -86.9 118.0 -85.7 118.0 -84.45 117.6 -83.4 L116.75 -82.0 116.8 -83.0 116.35 -85.25 116.3 -85.4 115.05 -87.05 Q114.2 -87.9 113.2 -88.25 L110.95 -88.75 108.65 -88.25 106.75 -87.05 106.4 -86.6" fill="#83979f" fill-rule="evenodd" stroke="none"/>
  </g>
  <defs>
    <linearGradient gradientTransform="matrix(0.0047, 0.0088, -0.0097, 0.005, 601.05, 289.1)" gradientUnits="userSpaceOnUse" id="gradient0" spreadMethod="pad" x1="-819.2" x2="819.2">
      <stop offset="0.0" stop-color="#6fa9ff"/>
      <stop offset="1.0" stop-color="#465bb0"/>
    </linearGradient>
    <linearGradient gradientTransform="matrix(0.0047, 0.0088, -0.0097, 0.005, 10.8, 288.25)" gradientUnits="userSpaceOnUse" id="gradient1" spreadMethod="pad" x1="-819.2" x2="819.2">
      <stop offset="0.0" stop-color="#6fa9ff"/>
      <stop offset="1.0" stop-color="#465bb0"/>
    </linearGradient>
  </defs>
</svg>
