<?xml version="1.0" encoding="UTF-8" standalone="no"?>
<svg xmlns:xlink="http://www.w3.org/1999/xlink" height="6.45px" width="25.45px" xmlns="http://www.w3.org/2000/svg">
  <g transform="matrix(1.0, 0.0, 0.0, 1.0, -2.4, -3.65)">
    <path d="M4.3 4.6 Q5.0 4.25 5.55 4.2 L6.0 4.15 Q6.7 4.2 7.15 4.75 L7.25 4.95 7.3 5.1 7.45 5.55 7.65 5.8 7.85 6.35 Q8.25 7.4 7.7 8.4 7.15 9.35 6.1 9.6 L4.1 9.4 Q3.25 8.9 2.85 7.8 2.55 6.8 3.1 5.85 3.45 5.15 4.3 4.65 L4.3 4.6" fill="#cf72f0" fill-rule="evenodd" stroke="none"/>
    <path d="M4.3 4.6 Q5.0 4.25 5.55 4.2 L6.0 4.15 Q6.7 4.2 7.15 4.75 L7.25 4.95 7.3 5.1 7.45 5.55 7.65 5.8 7.85 6.35 Q8.25 7.4 7.7 8.4 7.15 9.35 6.1 9.6 L4.1 9.4 Q3.25 8.9 2.85 7.8 2.55 6.8 3.1 5.85 3.45 5.15 4.3 4.65" fill="none" stroke="#411d14" stroke-linecap="round" stroke-linejoin="round" stroke-width="0.75"/>
    <path d="M4.6 5.15 L4.3 4.65 4.3 4.6 Q5.0 4.25 5.55 4.2 L6.0 4.15 5.75 4.7 5.65 4.65 Q5.65 4.45 5.3 4.65 L4.95 4.8 4.9 4.9 4.6 5.15 M5.1 5.8 L4.6 5.55 4.75 5.25 5.15 5.7 5.1 5.8" fill="#a2a2a2" fill-rule="evenodd" stroke="none"/>
    <path d="M4.6 5.15 L4.9 4.9 4.95 4.8 5.3 4.65 Q5.65 4.45 5.65 4.65 L5.75 4.7 6.0 4.15 Q6.7 4.2 7.15 4.75 L7.25 4.95 7.3 5.1 7.35 5.55 7.3 5.75 7.25 6.2 7.25 6.45 6.85 6.45 6.35 6.4 5.7 6.1 5.3 5.9 5.1 5.8 5.15 5.7 4.75 5.25 4.6 5.15" fill="#c8c8c8" fill-rule="evenodd" stroke="none"/>
    <path d="M7.3 5.1 L7.65 6.35 7.25 6.45 7.25 6.2 7.3 5.75 7.35 5.55 7.3 5.1 M6.85 6.45 L6.8 6.65 6.35 6.4 6.85 6.45" fill="#e6e6e6" fill-rule="evenodd" stroke="none"/>
    <path d="M7.65 5.8 L7.85 6.35 Q8.25 7.4 7.7 8.4 7.15 9.35 6.1 9.6 L4.1 9.4 Q3.25 8.9 2.85 7.8 2.55 6.8 3.1 5.85 3.6 4.95 4.7 4.6 L5.15 4.5 5.8 4.55 6.65 4.8 7.3 5.3 7.65 5.8" fill="#ffa31a" fill-rule="evenodd" stroke="none"/>
    <path d="M3.6 6.75 Q3.4 6.0 3.65 5.35 3.95 4.65 4.75 4.45 L6.35 4.6 Q7.2 4.95 7.4 5.75 7.6 6.5 7.2 7.2 6.8 7.9 6.0 8.15 L4.5 7.95 Q3.8 7.55 3.6 6.75" fill="#febe5f" fill-rule="evenodd" stroke="none"/>
    <path d="M5.2 7.0 L5.3 6.35 4.9 5.8 4.2 5.75 Q3.85 5.8 3.7 6.15 3.5 6.45 3.6 6.8 L4.0 7.35 4.65 7.45 5.2 7.0" fill="#ffe3bb" fill-rule="evenodd" stroke="none"/>
    <path d="M25.95 4.45 L25.95 4.5 27.15 5.7 Q27.7 6.65 27.4 7.65 27.0 8.75 26.15 9.25 L24.15 9.45 Q23.1 9.2 22.55 8.25 22.0 7.25 22.4 6.2 L22.6 5.65 22.8 5.4 22.95 4.95 23.0 4.8 23.1 4.6 Q23.55 4.05 24.25 4.0 L24.7 4.05 Q25.25 4.1 25.95 4.45" fill="#cf72f0" fill-rule="evenodd" stroke="none"/>
    <path d="M25.95 4.45 Q25.25 4.1 24.7 4.05 L24.25 4.0 Q23.55 4.05 23.1 4.6 L23.0 4.8 22.95 4.95 22.8 5.4 22.6 5.65 22.4 6.2 Q22.0 7.25 22.55 8.25 23.1 9.2 24.15 9.45 L26.15 9.25 Q27.0 8.75 27.4 7.65 27.7 6.65 27.15 5.7 L25.95 4.5" fill="none" stroke="#411d14" stroke-linecap="round" stroke-linejoin="round" stroke-width="0.75"/>
    <path d="M24.25 4.0 L24.5 4.55 24.6 4.5 Q24.6 4.3 24.95 4.5 L25.3 4.65 25.35 4.75 25.65 5.0 25.5 5.1 25.1 5.55 25.15 5.65 24.95 5.75 24.55 5.95 Q24.15 6.15 23.9 6.25 L23.4 6.3 23.0 6.3 23.0 6.05 22.95 5.6 22.9 5.4 22.95 4.95 23.0 4.8 23.1 4.6 Q23.55 4.05 24.25 4.0" fill="#c8c8c8" fill-rule="evenodd" stroke="none"/>
    <path d="M25.65 5.0 L25.35 4.75 25.3 4.65 24.95 4.5 Q24.6 4.3 24.6 4.5 L24.5 4.55 24.25 4.0 24.7 4.05 Q25.25 4.1 25.95 4.45 L25.95 4.5 25.65 5.0 M25.15 5.65 L25.1 5.55 25.5 5.1 25.65 5.4 25.15 5.65" fill="#a2a2a2" fill-rule="evenodd" stroke="none"/>
    <path d="M22.95 4.95 L22.9 5.4 22.95 5.6 23.0 6.05 23.0 6.3 22.6 6.2 Q22.65 5.4 22.95 4.95 M23.4 6.3 L23.9 6.25 23.45 6.5 23.4 6.3" fill="#e6e6e6" fill-rule="evenodd" stroke="none"/>
    <path d="M25.55 4.45 Q26.65 4.8 27.15 5.7 27.7 6.65 27.4 7.65 27.0 8.75 26.15 9.25 L24.15 9.45 Q23.1 9.2 22.55 8.25 22.0 7.25 22.4 6.2 L22.6 5.65 22.95 5.15 23.6 4.65 24.45 4.4 25.1 4.35 25.55 4.45" fill="#ffa31a" fill-rule="evenodd" stroke="none"/>
    <path d="M26.65 6.6 Q26.85 5.85 26.6 5.2 26.3 4.5 25.5 4.3 L23.9 4.45 Q23.05 4.8 22.85 5.6 22.65 6.35 23.05 7.05 23.45 7.75 24.25 8.0 L25.75 7.8 Q26.45 7.4 26.65 6.6" fill="#febe5f" fill-rule="evenodd" stroke="none"/>
    <path d="M25.05 6.85 Q24.85 6.55 24.95 6.2 L25.35 5.65 26.05 5.6 Q26.4 5.65 26.55 6.0 L26.65 6.65 26.25 7.2 25.6 7.3 25.05 6.85" fill="#ffe3bb" fill-rule="evenodd" stroke="none"/>
  </g>
</svg>
