<?xml version="1.0" encoding="UTF-8" standalone="no"?>
<svg xmlns:xlink="http://www.w3.org/1999/xlink" height="6.45px" width="25.45px" xmlns="http://www.w3.org/2000/svg">
  <g transform="matrix(1.0, 0.0, 0.0, 1.0, -2.4, 11.5)">
    <path d="M4.3 -10.55 L5.55 -10.95 6.0 -11.0 Q6.7 -10.95 7.15 -10.4 L7.25 -10.2 7.3 -10.05 7.45 -9.6 7.65 -9.35 7.85 -8.8 Q8.25 -7.75 7.7 -6.75 7.15 -5.8 6.1 -5.55 L4.1 -5.75 Q3.25 -6.25 2.85 -7.35 2.55 -8.35 3.1 -9.3 3.45 -10.0 4.3 -10.5 L4.3 -10.55" fill="#cf72f0" fill-rule="evenodd" stroke="none"/>
    <path d="M4.3 -10.55 L5.55 -10.95 6.0 -11.0 Q6.7 -10.95 7.15 -10.4 L7.25 -10.2 7.3 -10.05 7.45 -9.6 7.65 -9.35 7.85 -8.8 Q8.25 -7.75 7.7 -6.75 7.15 -5.8 6.1 -5.55 L4.1 -5.75 Q3.25 -6.25 2.85 -7.35 2.55 -8.35 3.1 -9.3 3.45 -10.0 4.3 -10.5" fill="none" stroke="#411d14" stroke-linecap="round" stroke-linejoin="round" stroke-width="0.75"/>
    <path d="M4.6 -10.0 L4.3 -10.5 4.3 -10.55 5.55 -10.95 6.0 -11.0 5.75 -10.45 5.65 -10.5 Q5.65 -10.7 5.3 -10.5 L4.95 -10.35 4.9 -10.25 4.6 -10.0 M5.1 -9.35 L4.6 -9.6 4.75 -9.9 5.15 -9.45 5.1 -9.35" fill="#a2a2a2" fill-rule="evenodd" stroke="none"/>
    <path d="M4.6 -10.0 L4.9 -10.25 4.95 -10.35 5.3 -10.5 Q5.65 -10.7 5.65 -10.5 L5.75 -10.45 6.0 -11.0 Q6.7 -10.95 7.15 -10.4 L7.25 -10.2 7.3 -10.05 7.35 -9.6 7.3 -9.4 7.25 -8.95 7.25 -8.7 6.85 -8.7 6.35 -8.75 5.7 -9.05 5.3 -9.25 5.1 -9.35 5.15 -9.45 4.75 -9.9 4.6 -10.0" fill="#c8c8c8" fill-rule="evenodd" stroke="none"/>
    <path d="M7.3 -10.05 L7.65 -8.8 Q7.45 -8.6 7.25 -8.7 L7.25 -8.95 7.3 -9.4 7.35 -9.6 7.3 -10.05 M6.85 -8.7 L6.8 -8.5 Q6.6 -8.6 6.35 -8.75 L6.85 -8.7" fill="#e6e6e6" fill-rule="evenodd" stroke="none"/>
    <path d="M7.85 -8.8 Q8.25 -7.75 7.7 -6.75 7.15 -5.8 6.1 -5.55 L4.1 -5.75 Q3.25 -6.25 2.85 -7.35 2.55 -8.35 3.1 -9.3 3.6 -10.2 4.7 -10.55 L5.15 -10.65 5.8 -10.6 6.65 -10.35 7.3 -9.85 7.65 -9.35 7.85 -8.8" fill="#ffa31a" fill-rule="evenodd" stroke="none"/>
    <path d="M3.6 -8.4 Q3.4 -9.15 3.65 -9.8 3.95 -10.5 4.75 -10.7 L6.35 -10.55 Q7.2 -10.2 7.4 -9.4 7.6 -8.65 7.2 -7.95 6.8 -7.25 6.0 -7.0 L4.5 -7.2 Q3.8 -7.6 3.6 -8.4" fill="#febe5f" fill-rule="evenodd" stroke="none"/>
    <path d="M5.2 -8.15 L5.3 -8.8 4.9 -9.35 4.2 -9.4 Q3.85 -9.35 3.7 -9.0 3.5 -8.7 3.6 -8.35 3.7 -8.0 4.0 -7.8 L4.65 -7.7 5.2 -8.15" fill="#ffe3bb" fill-rule="evenodd" stroke="none"/>
    <path d="M25.95 -10.65 L27.15 -9.45 Q27.7 -8.5 27.4 -7.5 27.0 -6.4 26.15 -5.9 25.2 -5.35 24.15 -5.7 23.1 -5.95 22.55 -6.9 22.0 -7.9 22.4 -8.95 L22.6 -9.5 22.8 -9.75 22.95 -10.2 23.0 -10.35 23.1 -10.55 Q23.55 -11.1 24.25 -11.15 L24.7 -11.1 25.95 -10.7 25.95 -10.65" fill="#cf72f0" fill-rule="evenodd" stroke="none"/>
    <path d="M25.95 -10.7 L24.7 -11.1 24.25 -11.15 Q23.55 -11.1 23.1 -10.55 L23.0 -10.35 22.95 -10.2 22.8 -9.75 22.6 -9.5 22.4 -8.95 Q22.0 -7.9 22.55 -6.9 23.1 -5.95 24.15 -5.7 25.2 -5.35 26.15 -5.9 27.0 -6.4 27.4 -7.5 27.7 -8.5 27.15 -9.45 L25.95 -10.65" fill="none" stroke="#411d14" stroke-linecap="round" stroke-linejoin="round" stroke-width="0.75"/>
    <path d="M24.25 -11.15 L24.5 -10.6 24.6 -10.65 Q24.6 -10.85 24.95 -10.65 L25.3 -10.5 25.35 -10.4 25.65 -10.15 25.5 -10.05 25.1 -9.6 25.15 -9.5 24.95 -9.4 24.55 -9.2 23.9 -8.9 23.4 -8.85 23.0 -8.85 23.0 -9.1 22.95 -9.55 22.9 -9.75 22.95 -10.2 23.0 -10.35 23.1 -10.55 Q23.55 -11.1 24.25 -11.15" fill="#c8c8c8" fill-rule="evenodd" stroke="none"/>
    <path d="M25.65 -10.15 L25.35 -10.4 25.3 -10.5 24.95 -10.65 Q24.6 -10.85 24.6 -10.65 L24.5 -10.6 24.25 -11.15 24.7 -11.1 25.95 -10.7 25.95 -10.65 25.65 -10.15 M25.15 -9.5 L25.1 -9.6 25.5 -10.05 25.65 -9.75 25.15 -9.5" fill="#a2a2a2" fill-rule="evenodd" stroke="none"/>
    <path d="M22.95 -10.2 L22.9 -9.75 22.95 -9.55 23.0 -9.1 23.0 -8.85 22.6 -8.95 Q22.65 -9.75 22.95 -10.2 M23.4 -8.85 L23.9 -8.9 23.45 -8.65 23.4 -8.85" fill="#e6e6e6" fill-rule="evenodd" stroke="none"/>
    <path d="M25.55 -10.7 Q26.65 -10.35 27.15 -9.45 27.7 -8.5 27.4 -7.5 27.0 -6.4 26.15 -5.9 25.2 -5.35 24.15 -5.7 23.1 -5.95 22.55 -6.9 22.0 -7.9 22.4 -8.95 L22.6 -9.5 22.95 -10.0 23.6 -10.5 24.45 -10.75 25.1 -10.8 25.55 -10.7" fill="#ffa31a" fill-rule="evenodd" stroke="none"/>
    <path d="M26.65 -8.55 Q26.85 -9.3 26.6 -9.95 26.3 -10.65 25.5 -10.85 L23.9 -10.7 Q23.05 -10.35 22.85 -9.55 22.65 -8.8 23.05 -8.1 23.45 -7.4 24.25 -7.15 L25.75 -7.35 Q26.45 -7.75 26.65 -8.55" fill="#febe5f" fill-rule="evenodd" stroke="none"/>
    <path d="M25.05 -8.3 Q24.85 -8.6 24.95 -8.95 L25.35 -9.5 26.05 -9.55 Q26.4 -9.5 26.55 -9.15 L26.65 -8.5 Q26.55 -8.15 26.25 -7.95 L25.6 -7.85 25.05 -8.3" fill="#ffe3bb" fill-rule="evenodd" stroke="none"/>
  </g>
</svg>
