<?xml version="1.0" encoding="UTF-8" standalone="no"?>
<svg xmlns:xlink="http://www.w3.org/1999/xlink" height="6.45px" width="25.45px" xmlns="http://www.w3.org/2000/svg">
  <g transform="matrix(1.0, 0.0, 0.0, 1.0, -2.4, 15.85)">
    <path d="M4.3 -14.9 L5.55 -15.3 6.0 -15.35 Q6.7 -15.3 7.15 -14.75 L7.25 -14.55 7.3 -14.4 7.45 -13.95 7.65 -13.7 7.85 -13.15 Q8.25 -12.1 7.7 -11.1 7.15 -10.15 6.1 -9.9 L4.1 -10.1 Q3.25 -10.6 2.85 -11.7 2.55 -12.7 3.1 -13.65 3.45 -14.35 4.3 -14.85 L4.3 -14.9" fill="#cf72f0" fill-rule="evenodd" stroke="none"/>
    <path d="M4.3 -14.9 L5.55 -15.3 6.0 -15.35 Q6.7 -15.3 7.15 -14.75 L7.25 -14.55 7.3 -14.4 7.45 -13.95 7.65 -13.7 7.85 -13.15 Q8.25 -12.1 7.7 -11.1 7.15 -10.15 6.1 -9.9 L4.1 -10.1 Q3.25 -10.6 2.85 -11.7 2.55 -12.7 3.1 -13.65 3.45 -14.35 4.3 -14.85" fill="none" stroke="#411d14" stroke-linecap="round" stroke-linejoin="round" stroke-width="0.75"/>
    <path d="M4.75 -14.25 L4.6 -14.35 4.9 -14.6 4.95 -14.7 5.3 -14.85 Q5.65 -15.05 5.65 -14.85 L5.75 -14.8 6.0 -15.35 Q6.7 -15.3 7.15 -14.75 L7.25 -14.55 7.3 -14.4 7.35 -13.95 7.3 -13.75 7.25 -13.3 7.25 -13.05 6.85 -13.05 6.35 -13.1 5.7 -13.4 5.3 -13.6 5.1 -13.7 5.15 -13.8 4.75 -14.25" fill="#c8c8c8" fill-rule="evenodd" stroke="none"/>
    <path d="M4.75 -14.25 L5.15 -13.8 5.1 -13.7 4.6 -13.95 4.75 -14.25 M6.0 -15.35 L5.75 -14.8 5.65 -14.85 Q5.65 -15.05 5.3 -14.85 L4.95 -14.7 4.9 -14.6 4.6 -14.35 4.3 -14.85 4.3 -14.9 5.55 -15.3 6.0 -15.35" fill="#a2a2a2" fill-rule="evenodd" stroke="none"/>
    <path d="M6.35 -13.1 L6.85 -13.05 6.8 -12.85 Q6.6 -12.95 6.35 -13.1 M7.25 -13.05 L7.25 -13.3 7.3 -13.75 7.35 -13.95 7.3 -14.4 7.65 -13.15 Q7.45 -12.95 7.25 -13.05" fill="#e6e6e6" fill-rule="evenodd" stroke="none"/>
    <path d="M7.3 -14.2 L7.65 -13.7 7.85 -13.15 Q8.25 -12.1 7.7 -11.1 7.15 -10.15 6.1 -9.9 L4.1 -10.1 Q3.25 -10.6 2.85 -11.7 2.55 -12.7 3.1 -13.65 3.6 -14.55 4.7 -14.9 L5.15 -15.0 5.8 -14.95 6.65 -14.7 7.3 -14.2" fill="#ffa31a" fill-rule="evenodd" stroke="none"/>
    <path d="M3.6 -12.75 Q3.4 -13.5 3.65 -14.15 3.95 -14.85 4.75 -15.05 L6.35 -14.9 Q7.2 -14.55 7.4 -13.75 7.6 -13.0 7.2 -12.3 6.8 -11.6 6.0 -11.35 L4.5 -11.55 Q3.8 -11.95 3.6 -12.75" fill="#febe5f" fill-rule="evenodd" stroke="none"/>
    <path d="M5.2 -12.5 L5.3 -13.15 4.9 -13.7 4.2 -13.75 Q3.85 -13.7 3.7 -13.35 3.5 -13.05 3.6 -12.7 3.7 -12.35 4.0 -12.15 L4.65 -12.05 5.2 -12.5" fill="#ffe3bb" fill-rule="evenodd" stroke="none"/>
    <path d="M25.95 -15.0 L27.15 -13.8 Q27.7 -12.85 27.4 -11.85 27.0 -10.75 26.15 -10.25 25.2 -9.7 24.15 -10.05 23.1 -10.3 22.55 -11.25 22.0 -12.25 22.4 -13.3 L22.6 -13.85 22.8 -14.1 22.95 -14.55 23.0 -14.7 23.1 -14.9 Q23.55 -15.45 24.25 -15.5 L24.7 -15.45 25.95 -15.05 25.95 -15.0" fill="#cf72f0" fill-rule="evenodd" stroke="none"/>
    <path d="M25.95 -15.05 L24.7 -15.45 24.25 -15.5 Q23.55 -15.45 23.1 -14.9 L23.0 -14.7 22.95 -14.55 22.8 -14.1 22.6 -13.85 22.4 -13.3 Q22.0 -12.25 22.55 -11.25 23.1 -10.3 24.15 -10.05 25.2 -9.7 26.15 -10.25 27.0 -10.75 27.4 -11.85 27.7 -12.85 27.15 -13.8 L25.95 -15.0" fill="none" stroke="#411d14" stroke-linecap="round" stroke-linejoin="round" stroke-width="0.75"/>
    <path d="M24.25 -15.5 L24.5 -14.95 24.6 -15.0 Q24.6 -15.2 24.95 -15.0 L25.3 -14.85 25.35 -14.75 25.65 -14.5 25.5 -14.4 25.1 -13.95 25.15 -13.85 24.95 -13.75 24.55 -13.55 23.9 -13.25 23.4 -13.2 23.0 -13.2 23.0 -13.45 22.95 -13.9 22.9 -14.1 22.95 -14.55 23.0 -14.7 23.1 -14.9 Q23.55 -15.45 24.25 -15.5" fill="#c8c8c8" fill-rule="evenodd" stroke="none"/>
    <path d="M25.65 -14.5 L25.35 -14.75 25.3 -14.85 24.95 -15.0 Q24.6 -15.2 24.6 -15.0 L24.5 -14.95 24.25 -15.5 24.7 -15.45 25.95 -15.05 25.95 -15.0 25.65 -14.5 M25.15 -13.85 L25.1 -13.95 25.5 -14.4 25.65 -14.1 25.15 -13.85" fill="#a2a2a2" fill-rule="evenodd" stroke="none"/>
    <path d="M22.95 -14.55 L22.9 -14.1 22.95 -13.9 23.0 -13.45 23.0 -13.2 22.6 -13.3 Q22.65 -14.1 22.95 -14.55 M23.4 -13.2 L23.9 -13.25 23.45 -13.0 23.4 -13.2" fill="#e6e6e6" fill-rule="evenodd" stroke="none"/>
    <path d="M22.4 -13.3 L22.6 -13.85 22.95 -14.35 23.6 -14.85 24.45 -15.1 25.1 -15.15 25.55 -15.05 Q26.65 -14.7 27.15 -13.8 27.7 -12.85 27.4 -11.85 27.0 -10.75 26.15 -10.25 25.2 -9.7 24.15 -10.05 23.1 -10.3 22.55 -11.25 22.0 -12.25 22.4 -13.3" fill="#ffa31a" fill-rule="evenodd" stroke="none"/>
    <path d="M26.65 -12.9 Q26.85 -13.65 26.6 -14.3 26.3 -15.0 25.5 -15.2 L23.9 -15.05 Q23.05 -14.7 22.85 -13.9 22.65 -13.15 23.05 -12.45 23.45 -11.75 24.25 -11.5 L25.75 -11.7 Q26.45 -12.1 26.65 -12.9" fill="#febe5f" fill-rule="evenodd" stroke="none"/>
    <path d="M25.05 -12.65 Q24.85 -12.95 24.95 -13.3 L25.35 -13.85 26.05 -13.9 Q26.4 -13.85 26.55 -13.5 L26.65 -12.85 Q26.55 -12.5 26.25 -12.3 L25.6 -12.2 25.05 -12.65" fill="#ffe3bb" fill-rule="evenodd" stroke="none"/>
  </g>
</svg>
