<?xml version="1.0" encoding="UTF-8" standalone="no"?>
<svg xmlns:xlink="http://www.w3.org/1999/xlink" height="6.45px" width="25.45px" xmlns="http://www.w3.org/2000/svg">
  <g transform="matrix(1.0, 0.0, 0.0, 1.0, -2.4, 11.45)">
    <path d="M4.3 -10.5 L5.55 -10.9 6.0 -10.95 Q6.7 -10.9 7.15 -10.35 L7.25 -10.15 7.3 -10.0 7.45 -9.55 7.65 -9.3 7.85 -8.75 Q8.25 -7.7 7.7 -6.7 7.15 -5.75 6.1 -5.5 L4.1 -5.7 Q3.25 -6.2 2.85 -7.3 2.55 -8.3 3.1 -9.25 3.45 -9.95 4.3 -10.45 L4.3 -10.5" fill="#cf72f0" fill-rule="evenodd" stroke="none"/>
    <path d="M4.3 -10.5 L5.55 -10.9 6.0 -10.95 Q6.7 -10.9 7.15 -10.35 L7.25 -10.15 7.3 -10.0 7.45 -9.55 7.65 -9.3 7.85 -8.75 Q8.25 -7.7 7.7 -6.7 7.15 -5.75 6.1 -5.5 L4.1 -5.7 Q3.25 -6.2 2.85 -7.3 2.55 -8.3 3.1 -9.25 3.45 -9.95 4.3 -10.45" fill="none" stroke="#411d14" stroke-linecap="round" stroke-linejoin="round" stroke-width="0.75"/>
    <path d="M4.6 -9.95 L4.3 -10.45 4.3 -10.5 5.55 -10.9 6.0 -10.95 5.75 -10.4 5.65 -10.45 Q5.65 -10.65 5.3 -10.45 L4.95 -10.3 4.9 -10.2 4.6 -9.95 M5.1 -9.3 L4.6 -9.55 4.75 -9.85 5.15 -9.4 5.1 -9.3" fill="#a2a2a2" fill-rule="evenodd" stroke="none"/>
    <path d="M4.6 -9.95 L4.9 -10.2 4.95 -10.3 5.3 -10.45 Q5.65 -10.65 5.65 -10.45 L5.75 -10.4 6.0 -10.95 Q6.7 -10.9 7.15 -10.35 L7.25 -10.15 7.3 -10.0 7.35 -9.55 7.3 -9.35 7.25 -8.9 7.25 -8.65 6.85 -8.65 6.35 -8.7 5.7 -9.0 5.3 -9.2 5.1 -9.3 5.15 -9.4 4.75 -9.85 4.6 -9.95" fill="#c8c8c8" fill-rule="evenodd" stroke="none"/>
    <path d="M7.3 -10.0 L7.65 -8.75 Q7.45 -8.55 7.25 -8.65 L7.25 -8.9 7.3 -9.35 7.35 -9.55 7.3 -10.0 M6.85 -8.65 L6.8 -8.45 Q6.6 -8.55 6.35 -8.7 L6.85 -8.65" fill="#e6e6e6" fill-rule="evenodd" stroke="none"/>
    <path d="M7.85 -8.75 Q8.25 -7.7 7.7 -6.7 7.15 -5.75 6.1 -5.5 L4.1 -5.7 Q3.25 -6.2 2.85 -7.3 2.55 -8.3 3.1 -9.25 3.6 -10.15 4.7 -10.5 L5.15 -10.6 5.8 -10.55 6.65 -10.3 7.3 -9.8 7.65 -9.3 7.85 -8.75" fill="#ffa31a" fill-rule="evenodd" stroke="none"/>
    <path d="M3.6 -8.35 Q3.4 -9.1 3.65 -9.75 3.95 -10.45 4.75 -10.65 L6.35 -10.5 Q7.2 -10.15 7.4 -9.35 7.6 -8.6 7.2 -7.9 6.8 -7.2 6.0 -6.95 L4.5 -7.15 Q3.8 -7.55 3.6 -8.35" fill="#febe5f" fill-rule="evenodd" stroke="none"/>
    <path d="M5.2 -8.1 L5.3 -8.75 4.9 -9.3 4.2 -9.35 Q3.85 -9.3 3.7 -8.95 3.5 -8.65 3.6 -8.3 3.7 -7.95 4.0 -7.75 L4.65 -7.65 5.2 -8.1" fill="#ffe3bb" fill-rule="evenodd" stroke="none"/>
    <path d="M25.95 -10.6 L27.15 -9.4 Q27.7 -8.45 27.4 -7.45 27.0 -6.35 26.15 -5.85 25.2 -5.3 24.15 -5.65 23.1 -5.9 22.55 -6.85 22.0 -7.85 22.4 -8.9 L22.6 -9.45 22.8 -9.7 22.95 -10.15 23.0 -10.3 23.1 -10.5 Q23.55 -11.05 24.25 -11.1 L24.7 -11.05 25.95 -10.65 25.95 -10.6" fill="#cf72f0" fill-rule="evenodd" stroke="none"/>
    <path d="M25.95 -10.65 L24.7 -11.05 24.25 -11.1 Q23.55 -11.05 23.1 -10.5 L23.0 -10.3 22.95 -10.15 22.8 -9.7 22.6 -9.45 22.4 -8.9 Q22.0 -7.85 22.55 -6.85 23.1 -5.9 24.15 -5.65 25.2 -5.3 26.15 -5.85 27.0 -6.35 27.4 -7.45 27.7 -8.45 27.15 -9.4 L25.95 -10.6" fill="none" stroke="#411d14" stroke-linecap="round" stroke-linejoin="round" stroke-width="0.75"/>
    <path d="M24.25 -11.1 L24.5 -10.55 24.6 -10.6 Q24.6 -10.8 24.95 -10.6 L25.3 -10.45 25.35 -10.35 25.65 -10.1 25.5 -10.0 25.1 -9.55 25.15 -9.45 24.95 -9.35 24.55 -9.15 23.9 -8.85 23.4 -8.8 23.0 -8.8 23.0 -9.05 22.95 -9.5 22.9 -9.7 22.95 -10.15 23.0 -10.3 23.1 -10.5 Q23.55 -11.05 24.25 -11.1" fill="#c8c8c8" fill-rule="evenodd" stroke="none"/>
    <path d="M25.65 -10.1 L25.35 -10.35 25.3 -10.45 24.95 -10.6 Q24.6 -10.8 24.6 -10.6 L24.5 -10.55 24.25 -11.1 24.7 -11.05 25.95 -10.65 25.95 -10.6 25.65 -10.1 M25.15 -9.45 L25.1 -9.55 25.5 -10.0 25.65 -9.7 25.15 -9.45" fill="#a2a2a2" fill-rule="evenodd" stroke="none"/>
    <path d="M22.95 -10.15 L22.9 -9.7 22.95 -9.5 23.0 -9.05 23.0 -8.8 22.6 -8.9 Q22.65 -9.7 22.95 -10.15 M23.4 -8.8 L23.9 -8.85 23.45 -8.6 23.4 -8.8" fill="#e6e6e6" fill-rule="evenodd" stroke="none"/>
    <path d="M25.55 -10.65 Q26.65 -10.3 27.15 -9.4 27.7 -8.45 27.4 -7.45 27.0 -6.35 26.15 -5.85 25.2 -5.3 24.15 -5.65 23.1 -5.9 22.55 -6.85 22.0 -7.85 22.4 -8.9 L22.6 -9.45 22.95 -9.95 23.6 -10.45 24.45 -10.7 25.1 -10.75 25.55 -10.65" fill="#ffa31a" fill-rule="evenodd" stroke="none"/>
    <path d="M26.65 -8.5 Q26.85 -9.25 26.6 -9.9 26.3 -10.6 25.5 -10.8 L23.9 -10.65 Q23.05 -10.3 22.85 -9.5 22.65 -8.75 23.05 -8.05 23.45 -7.35 24.25 -7.1 L25.75 -7.3 Q26.45 -7.7 26.65 -8.5" fill="#febe5f" fill-rule="evenodd" stroke="none"/>
    <path d="M25.05 -8.25 Q24.85 -8.55 24.95 -8.9 L25.35 -9.45 26.05 -9.5 Q26.4 -9.45 26.55 -9.1 L26.65 -8.45 Q26.55 -8.1 26.25 -7.9 L25.6 -7.8 25.05 -8.25" fill="#ffe3bb" fill-rule="evenodd" stroke="none"/>
  </g>
</svg>
