<?xml version="1.0" encoding="UTF-8" standalone="no"?>
<svg xmlns:xlink="http://www.w3.org/1999/xlink" height="6.45px" width="25.45px" xmlns="http://www.w3.org/2000/svg">
  <g transform="matrix(1.0, 0.0, 0.0, 1.0, -2.4, 9.75)">
    <path d="M4.3 -8.8 L5.55 -9.2 6.0 -9.25 Q6.7 -9.2 7.15 -8.65 L7.25 -8.45 7.3 -8.3 7.45 -7.85 7.65 -7.6 7.85 -7.05 Q8.25 -6.0 7.7 -5.0 7.15 -4.05 6.1 -3.8 L4.1 -4.0 Q3.25 -4.5 2.85 -5.6 2.55 -6.6 3.1 -7.55 3.45 -8.25 4.3 -8.75 L4.3 -8.8" fill="#cf72f0" fill-rule="evenodd" stroke="none"/>
    <path d="M4.3 -8.8 L5.55 -9.2 6.0 -9.25 Q6.7 -9.2 7.15 -8.65 L7.25 -8.45 7.3 -8.3 7.45 -7.85 7.65 -7.6 7.85 -7.05 Q8.25 -6.0 7.7 -5.0 7.15 -4.05 6.1 -3.8 L4.1 -4.0 Q3.25 -4.5 2.85 -5.6 2.55 -6.6 3.1 -7.55 3.45 -8.25 4.3 -8.75" fill="none" stroke="#411d14" stroke-linecap="round" stroke-linejoin="round" stroke-width="0.75"/>
    <path d="M7.3 -8.3 L7.35 -7.85 7.3 -7.65 7.25 -7.2 7.25 -6.95 6.85 -6.95 6.35 -7.0 5.7 -7.3 5.3 -7.5 5.1 -7.6 5.15 -7.7 4.75 -8.15 4.6 -8.25 4.9 -8.5 4.95 -8.6 5.3 -8.75 Q5.65 -8.95 5.65 -8.75 L5.75 -8.7 6.0 -9.25 Q6.7 -9.2 7.15 -8.65 L7.25 -8.45 7.3 -8.3" fill="#c8c8c8" fill-rule="evenodd" stroke="none"/>
    <path d="M7.25 -6.95 L7.25 -7.2 7.3 -7.65 7.35 -7.85 7.3 -8.3 7.65 -7.05 Q7.45 -6.85 7.25 -6.95 M6.35 -7.0 L6.85 -6.95 6.8 -6.75 Q6.6 -6.85 6.35 -7.0" fill="#e6e6e6" fill-rule="evenodd" stroke="none"/>
    <path d="M6.0 -9.25 L5.75 -8.7 5.65 -8.75 Q5.65 -8.95 5.3 -8.75 L4.95 -8.6 4.9 -8.5 4.6 -8.25 4.3 -8.75 4.3 -8.8 5.55 -9.2 6.0 -9.25 M4.75 -8.15 L5.15 -7.7 5.1 -7.6 4.6 -7.85 4.75 -8.15" fill="#a2a2a2" fill-rule="evenodd" stroke="none"/>
    <path d="M6.65 -8.6 L7.3 -8.1 7.65 -7.6 7.85 -7.05 Q8.25 -6.0 7.7 -5.0 7.15 -4.05 6.1 -3.8 L4.1 -4.0 Q3.25 -4.5 2.85 -5.6 2.55 -6.6 3.1 -7.55 3.6 -8.45 4.7 -8.8 L5.15 -8.9 5.8 -8.85 6.65 -8.6" fill="#ffa31a" fill-rule="evenodd" stroke="none"/>
    <path d="M3.6 -6.65 Q3.4 -7.4 3.65 -8.05 3.95 -8.75 4.75 -8.95 L6.35 -8.8 Q7.2 -8.45 7.4 -7.65 7.6 -6.9 7.2 -6.2 6.8 -5.5 6.0 -5.25 L4.5 -5.45 Q3.8 -5.85 3.6 -6.65" fill="#febe5f" fill-rule="evenodd" stroke="none"/>
    <path d="M5.2 -6.4 L5.3 -7.05 4.9 -7.6 4.2 -7.65 Q3.85 -7.6 3.7 -7.25 3.5 -6.95 3.6 -6.6 3.7 -6.25 4.0 -6.05 L4.65 -5.95 5.2 -6.4" fill="#ffe3bb" fill-rule="evenodd" stroke="none"/>
    <path d="M25.95 -8.9 L27.15 -7.7 Q27.7 -6.75 27.4 -5.75 27.0 -4.65 26.15 -4.15 25.2 -3.6 24.15 -3.95 23.1 -4.2 22.55 -5.15 22.0 -6.15 22.4 -7.2 L22.6 -7.75 22.8 -8.0 22.95 -8.45 23.0 -8.6 23.1 -8.8 Q23.55 -9.35 24.25 -9.4 L24.7 -9.35 25.95 -8.95 25.95 -8.9" fill="#cf72f0" fill-rule="evenodd" stroke="none"/>
    <path d="M25.95 -8.95 L24.7 -9.35 24.25 -9.4 Q23.55 -9.35 23.1 -8.8 L23.0 -8.6 22.95 -8.45 22.8 -8.0 22.6 -7.75 22.4 -7.2 Q22.0 -6.15 22.55 -5.15 23.1 -4.2 24.15 -3.95 25.2 -3.6 26.15 -4.15 27.0 -4.65 27.4 -5.75 27.7 -6.75 27.15 -7.7 L25.95 -8.9" fill="none" stroke="#411d14" stroke-linecap="round" stroke-linejoin="round" stroke-width="0.75"/>
    <path d="M24.25 -9.4 L24.5 -8.85 24.6 -8.9 Q24.6 -9.1 24.95 -8.9 L25.3 -8.75 25.35 -8.65 25.65 -8.4 25.5 -8.3 25.1 -7.85 25.15 -7.75 24.95 -7.65 24.55 -7.45 23.9 -7.15 23.4 -7.1 23.0 -7.1 23.0 -7.35 22.95 -7.8 22.9 -8.0 22.95 -8.45 23.0 -8.6 23.1 -8.8 Q23.55 -9.35 24.25 -9.4" fill="#c8c8c8" fill-rule="evenodd" stroke="none"/>
    <path d="M25.65 -8.4 L25.35 -8.65 25.3 -8.75 24.95 -8.9 Q24.6 -9.1 24.6 -8.9 L24.5 -8.85 24.25 -9.4 24.7 -9.35 25.95 -8.95 25.95 -8.9 25.65 -8.4 M25.15 -7.75 L25.1 -7.85 25.5 -8.3 25.65 -8.0 25.15 -7.75" fill="#a2a2a2" fill-rule="evenodd" stroke="none"/>
    <path d="M22.95 -8.45 L22.9 -8.0 22.95 -7.8 23.0 -7.35 23.0 -7.1 22.6 -7.2 Q22.65 -8.0 22.95 -8.45 M23.4 -7.1 L23.9 -7.15 23.45 -6.9 23.4 -7.1" fill="#e6e6e6" fill-rule="evenodd" stroke="none"/>
    <path d="M25.55 -8.95 Q26.65 -8.6 27.15 -7.7 27.7 -6.75 27.4 -5.75 27.0 -4.65 26.15 -4.15 25.2 -3.6 24.15 -3.95 23.1 -4.2 22.55 -5.15 22.0 -6.15 22.4 -7.2 L22.6 -7.75 22.95 -8.25 23.6 -8.75 24.45 -9.0 25.1 -9.05 25.55 -8.95" fill="#ffa31a" fill-rule="evenodd" stroke="none"/>
    <path d="M26.65 -6.8 Q26.85 -7.55 26.6 -8.2 26.3 -8.9 25.5 -9.1 L23.9 -8.95 Q23.05 -8.6 22.85 -7.8 22.65 -7.05 23.05 -6.35 23.45 -5.65 24.25 -5.4 L25.75 -5.6 Q26.45 -6.0 26.65 -6.8" fill="#febe5f" fill-rule="evenodd" stroke="none"/>
    <path d="M25.05 -6.55 Q24.85 -6.85 24.95 -7.2 L25.35 -7.75 26.05 -7.8 Q26.4 -7.75 26.55 -7.4 L26.65 -6.75 Q26.55 -6.4 26.25 -6.2 L25.6 -6.1 25.05 -6.55" fill="#ffe3bb" fill-rule="evenodd" stroke="none"/>
  </g>
</svg>
