<?xml version="1.0" encoding="UTF-8" standalone="no"?>
<svg xmlns:xlink="http://www.w3.org/1999/xlink" height="6.45px" width="25.45px" xmlns="http://www.w3.org/2000/svg">
  <g transform="matrix(1.0, 0.0, 0.0, 1.0, -2.4, -3.55)">
    <path d="M4.3 4.5 Q5.0 4.15 5.55 4.1 L6.0 4.05 Q6.7 4.1 7.15 4.65 L7.25 4.85 7.3 5.0 7.45 5.45 7.65 5.7 7.85 6.25 Q8.25 7.3 7.7 8.3 7.15 9.25 6.1 9.5 L4.1 9.3 Q3.25 8.8 2.85 7.7 2.55 6.7 3.1 5.75 3.45 5.05 4.3 4.55 L4.3 4.5" fill="#cf72f0" fill-rule="evenodd" stroke="none"/>
    <path d="M4.3 4.5 Q5.0 4.15 5.55 4.1 L6.0 4.05 Q6.7 4.1 7.15 4.65 L7.25 4.85 7.3 5.0 7.45 5.45 7.65 5.7 7.85 6.25 Q8.25 7.3 7.7 8.3 7.15 9.25 6.1 9.5 L4.1 9.3 Q3.25 8.8 2.85 7.7 2.55 6.7 3.1 5.75 3.45 5.05 4.3 4.55" fill="none" stroke="#411d14" stroke-linecap="round" stroke-linejoin="round" stroke-width="0.75"/>
    <path d="M6.0 4.05 L5.75 4.6 5.65 4.55 Q5.65 4.35 5.3 4.55 L4.95 4.7 4.9 4.8 4.6 5.05 4.3 4.55 4.3 4.5 Q5.0 4.15 5.55 4.1 L6.0 4.05 M4.75 5.15 L5.15 5.6 5.1 5.7 4.6 5.45 4.75 5.15" fill="#a2a2a2" fill-rule="evenodd" stroke="none"/>
    <path d="M4.6 5.05 L4.9 4.8 4.95 4.7 5.3 4.55 Q5.65 4.35 5.65 4.55 L5.75 4.6 6.0 4.05 Q6.7 4.1 7.15 4.65 L7.25 4.85 7.3 5.0 7.35 5.45 7.3 5.65 7.25 6.1 7.25 6.35 6.85 6.35 6.35 6.3 5.7 6.0 5.3 5.8 5.1 5.7 5.15 5.6 4.75 5.15 4.6 5.05" fill="#c8c8c8" fill-rule="evenodd" stroke="none"/>
    <path d="M6.35 6.3 L6.85 6.35 6.8 6.55 6.35 6.3 M7.25 6.35 L7.25 6.1 7.3 5.65 7.35 5.45 7.3 5.0 7.65 6.25 7.25 6.35" fill="#e6e6e6" fill-rule="evenodd" stroke="none"/>
    <path d="M7.65 5.7 L7.85 6.25 Q8.25 7.3 7.7 8.3 7.15 9.25 6.1 9.5 L4.1 9.3 Q3.25 8.8 2.85 7.7 2.55 6.7 3.1 5.75 3.6 4.85 4.7 4.5 L5.15 4.4 5.8 4.45 6.65 4.7 7.3 5.2 7.65 5.7" fill="#ffa31a" fill-rule="evenodd" stroke="none"/>
    <path d="M3.6 6.65 Q3.4 5.9 3.65 5.25 3.95 4.55 4.75 4.35 L6.35 4.5 Q7.2 4.85 7.4 5.65 7.6 6.4 7.2 7.1 6.8 7.8 6.0 8.05 L4.5 7.85 Q3.8 7.45 3.6 6.65" fill="#febe5f" fill-rule="evenodd" stroke="none"/>
    <path d="M5.2 6.9 L5.3 6.25 4.9 5.7 4.2 5.65 Q3.85 5.7 3.7 6.05 3.5 6.35 3.6 6.7 L4.0 7.25 4.65 7.35 5.2 6.9" fill="#ffe3bb" fill-rule="evenodd" stroke="none"/>
    <path d="M25.95 4.35 L25.95 4.4 27.15 5.6 Q27.7 6.55 27.4 7.55 27.0 8.65 26.15 9.15 L24.15 9.35 Q23.1 9.1 22.55 8.15 22.0 7.15 22.4 6.1 L22.6 5.55 22.8 5.3 22.95 4.85 23.0 4.7 23.1 4.5 Q23.55 3.95 24.25 3.9 L24.7 3.95 Q25.25 4.0 25.95 4.35" fill="#cf72f0" fill-rule="evenodd" stroke="none"/>
    <path d="M25.95 4.35 Q25.25 4.0 24.7 3.95 L24.25 3.9 Q23.55 3.95 23.1 4.5 L23.0 4.7 22.95 4.85 22.8 5.3 22.6 5.55 22.4 6.1 Q22.0 7.15 22.55 8.15 23.1 9.1 24.15 9.35 L26.15 9.15 Q27.0 8.65 27.4 7.55 27.7 6.55 27.15 5.6 L25.95 4.4" fill="none" stroke="#411d14" stroke-linecap="round" stroke-linejoin="round" stroke-width="0.75"/>
    <path d="M24.25 3.9 L24.5 4.45 24.6 4.4 Q24.6 4.2 24.95 4.4 L25.3 4.55 25.35 4.65 25.65 4.9 25.5 5.0 25.1 5.45 25.15 5.55 24.95 5.65 24.55 5.85 Q24.15 6.05 23.9 6.15 L23.4 6.2 23.0 6.2 23.0 5.95 22.95 5.5 22.9 5.3 22.95 4.85 23.0 4.7 23.1 4.5 Q23.55 3.95 24.25 3.9" fill="#c8c8c8" fill-rule="evenodd" stroke="none"/>
    <path d="M25.65 4.9 L25.35 4.65 25.3 4.55 24.95 4.4 Q24.6 4.2 24.6 4.4 L24.5 4.45 24.25 3.9 24.7 3.95 Q25.25 4.0 25.95 4.35 L25.95 4.4 25.65 4.9 M25.15 5.55 L25.1 5.45 25.5 5.0 25.65 5.3 25.15 5.55" fill="#a2a2a2" fill-rule="evenodd" stroke="none"/>
    <path d="M22.95 4.85 L22.9 5.3 22.95 5.5 23.0 5.95 23.0 6.2 22.6 6.1 Q22.65 5.3 22.95 4.85 M23.4 6.2 L23.9 6.15 23.45 6.4 23.4 6.2" fill="#e6e6e6" fill-rule="evenodd" stroke="none"/>
    <path d="M25.55 4.35 Q26.65 4.7 27.15 5.6 27.7 6.55 27.4 7.55 27.0 8.65 26.15 9.15 L24.15 9.35 Q23.1 9.1 22.55 8.15 22.0 7.15 22.4 6.1 L22.6 5.55 22.95 5.05 23.6 4.55 24.45 4.3 25.1 4.25 25.55 4.35" fill="#ffa31a" fill-rule="evenodd" stroke="none"/>
    <path d="M26.65 6.5 Q26.85 5.75 26.6 5.1 26.3 4.4 25.5 4.2 L23.9 4.35 Q23.05 4.7 22.85 5.5 22.65 6.25 23.05 6.95 23.45 7.65 24.25 7.9 L25.75 7.7 Q26.45 7.3 26.65 6.5" fill="#febe5f" fill-rule="evenodd" stroke="none"/>
    <path d="M25.05 6.75 Q24.85 6.45 24.95 6.1 L25.35 5.55 26.05 5.5 Q26.4 5.55 26.55 5.9 L26.65 6.55 26.25 7.1 25.6 7.2 25.05 6.75" fill="#ffe3bb" fill-rule="evenodd" stroke="none"/>
  </g>
</svg>
