<?xml version="1.0" encoding="UTF-8" standalone="no"?>
<svg xmlns:xlink="http://www.w3.org/1999/xlink" height="41.55px" width="41.6px" xmlns="http://www.w3.org/2000/svg">
  <g transform="matrix(1.0, 0.0, 0.0, 1.0, -487.0, 109.1)">
    <path d="M494.5 -101.2 L495.7 -101.95 495.9 -101.95 497.85 -100.05 Q499.65 -101.5 501.6 -102.25 L501.8 -102.35 500.7 -104.8 501.7 -105.9 Q504.85 -107.1 508.6 -107.1 L508.6 -103.7 Q511.5 -103.7 514.0 -102.6 L514.15 -102.55 515.55 -105.9 Q518.75 -104.5 521.4 -101.95 L521.3 -101.95 520.85 -100.05 519.5 -98.8 Q521.15 -97.05 522.0 -94.95 L525.35 -96.35 Q526.6 -93.15 526.6 -89.55 L526.6 -88.05 523.55 -88.05 Q523.55 -85.85 523.05 -83.95 L523.0 -83.6 525.35 -82.75 525.35 -82.65 525.35 -81.0 Q524.45 -78.9 523.0 -77.05 L522.3 -76.2 521.15 -75.05 519.0 -77.15 518.9 -77.05 518.8 -76.9 515.1 -74.2 515.55 -73.1 515.05 -71.15 515.1 -71.05 Q512.6 -69.85 509.65 -69.65 L508.8 -69.55 507.85 -69.55 507.85 -72.5 507.7 -72.5 Q504.65 -72.5 501.8 -73.55 L501.7 -73.1 500.6 -71.0 Q497.3 -72.3 494.5 -74.9 L494.7 -75.1 495.9 -77.0 496.25 -77.3 494.55 -79.35 493.15 -82.0 493.15 -82.05 493.05 -82.05 490.5 -81.0 490.3 -81.0 Q489.0 -84.15 489.0 -88.0 L489.0 -88.05 489.05 -88.05 490.55 -89.55 492.05 -89.55 492.15 -90.55 Q492.45 -92.1 493.05 -93.65 L493.15 -93.9 493.15 -94.05 490.3 -95.15 490.3 -95.2 490.8 -96.25 491.1 -96.8 Q492.4 -99.1 494.4 -101.05 L494.45 -101.2 494.5 -101.2 M512.85 -87.0 Q512.85 -88.1 512.45 -89.15 L512.4 -89.25 511.3 -90.8 509.55 -91.95 507.55 -92.35 505.35 -91.95 Q504.4 -91.55 503.65 -90.8 L503.3 -90.35 503.25 -89.55 503.35 -88.05 503.6 -87.45 504.1 -86.5 504.8 -85.75 Q505.6 -84.9 506.6 -84.5 L508.6 -84.15 508.9 -84.15 Q509.9 -84.2 510.7 -84.55 511.75 -84.95 512.4 -85.75 L512.85 -86.15 512.85 -87.0" fill="#b1c4cb" fill-rule="evenodd" stroke="none"/>
    <path d="M494.5 -101.2 L495.7 -101.95 495.9 -101.95 497.85 -100.05 Q499.65 -101.5 501.6 -102.25 L501.8 -102.35 500.7 -104.8 501.7 -105.9 Q504.85 -107.1 508.6 -107.1 L508.6 -103.7 Q511.5 -103.7 514.0 -102.6 L514.15 -102.55 515.55 -105.9 Q518.75 -104.5 521.4 -101.95 L521.3 -101.95 520.85 -100.05 519.5 -98.8 Q521.15 -97.05 522.0 -94.95 L525.35 -96.35 Q526.6 -93.15 526.6 -89.55 L526.6 -88.05 523.55 -88.05 Q523.55 -85.85 523.05 -83.95 L523.0 -83.6 525.35 -82.75 525.35 -82.65 525.35 -81.0 Q524.45 -78.9 523.0 -77.05 L522.3 -76.2 521.15 -75.05 519.0 -77.15 518.9 -77.05 518.8 -76.9 515.1 -74.2 515.55 -73.1 515.05 -71.15 515.1 -71.05 Q512.6 -69.85 509.65 -69.65 L508.8 -69.55 507.85 -69.55 507.85 -72.5 507.7 -72.5 Q504.65 -72.5 501.8 -73.55 L501.7 -73.1 500.6 -71.0 Q497.3 -72.3 494.5 -74.9 L494.7 -75.1 495.9 -77.0 496.25 -77.3 494.55 -79.35 493.15 -82.0 493.15 -82.05 493.05 -82.05 490.5 -81.0 490.3 -81.0 Q489.0 -84.15 489.0 -88.0 L489.0 -88.05 489.05 -88.05 490.55 -89.55 492.05 -89.55 492.15 -90.55 Q492.45 -92.1 493.05 -93.65 L493.15 -93.9 493.15 -94.05 490.3 -95.15 490.3 -95.2 490.8 -96.25 491.1 -96.8 Q492.4 -99.1 494.4 -101.05 L494.45 -101.2 494.5 -101.2 M512.85 -87.0 L512.85 -86.15 512.4 -85.75 Q511.75 -84.95 510.7 -84.55 509.9 -84.2 508.9 -84.15 L508.6 -84.15 506.6 -84.5 Q505.6 -84.9 504.8 -85.75 L504.1 -86.5 503.6 -87.45 503.35 -88.05 503.25 -89.55 503.3 -90.35 503.65 -90.8 Q504.4 -91.55 505.35 -91.95 L507.55 -92.35 509.55 -91.95 511.3 -90.8 512.4 -89.25 512.45 -89.15 Q512.85 -88.1 512.85 -87.0" fill="none" stroke="#005c8e" stroke-linecap="round" stroke-linejoin="round" stroke-width="4.0"/>
    <path d="M491.9 -96.25 L491.85 -96.35 491.9 -96.35 492.4 -97.3 Q493.35 -99.15 494.8 -100.85 L495.7 -101.9 495.85 -101.95 495.9 -101.95 497.85 -100.0 498.45 -99.5 498.95 -99.9 Q500.35 -101.3 501.95 -102.05 L502.4 -102.25 503.05 -102.5 503.05 -102.55 501.7 -105.9 Q504.85 -107.1 508.6 -107.1 L508.6 -103.6 Q511.5 -103.6 514.0 -102.6 L514.15 -102.55 515.55 -105.9 Q518.75 -104.5 521.4 -101.95 L521.3 -101.9 518.85 -99.5 519.2 -99.15 519.5 -98.8 Q521.15 -97.05 522.0 -94.95 L525.35 -96.35 Q526.6 -93.15 526.6 -89.55 L523.0 -89.55 523.0 -89.45 523.0 -89.25 Q519.8 -90.25 516.4 -89.85 L514.65 -89.65 514.3 -91.3 Q513.75 -92.45 512.8 -93.4 511.95 -94.35 510.85 -94.75 L508.4 -95.2 505.9 -94.75 Q504.8 -94.35 503.85 -93.4 L503.8 -93.4 Q502.95 -92.45 502.45 -91.3 L502.05 -90.05 502.0 -89.0 502.05 -88.05 Q498.2 -88.05 495.5 -90.9 L495.05 -91.3 494.4 -92.2 494.4 -92.25 494.95 -94.35 495.25 -94.95 491.9 -96.25" fill="#bbd4de" fill-rule="evenodd" stroke="none"/>
    <path d="M495.7 -101.9 L494.8 -100.85 Q493.35 -99.15 492.4 -97.3 L491.9 -96.35 491.85 -96.35 491.9 -96.25 490.3 -95.2 490.8 -96.25 491.1 -96.7 Q492.4 -99.0 494.4 -101.05 L494.45 -101.1 494.5 -101.1 495.7 -101.9 M495.25 -94.95 L494.95 -94.35 494.4 -92.25 494.4 -92.2 494.2 -89.55 492.05 -89.55 492.15 -90.55 Q492.45 -92.1 493.05 -93.65 L493.15 -93.9 493.15 -94.0 495.25 -94.95 M523.0 -89.25 L523.0 -89.45 523.55 -88.05 Q523.55 -85.85 523.05 -83.95 L523.0 -83.6 522.05 -84.1 522.55 -85.5 522.95 -87.3 523.0 -88.05 523.0 -88.25 523.0 -89.25 M519.5 -98.8 L519.2 -99.15 518.85 -99.5 521.3 -101.9 520.85 -100.0 519.5 -98.8 M503.05 -102.5 L502.4 -102.25 501.95 -102.05 Q500.35 -101.3 498.95 -99.9 L498.45 -99.5 497.85 -100.0 Q499.65 -101.5 501.6 -102.25 L501.8 -102.35 503.05 -102.5 M525.35 -82.7 L525.35 -81.0 Q524.45 -78.9 523.0 -77.05 L522.3 -76.2 521.15 -74.95 521.3 -77.05 521.4 -77.05 523.9 -79.95 524.65 -81.3 525.35 -82.7 M519.0 -77.15 L519.0 -77.1 518.9 -77.05 518.8 -76.8 Q517.0 -75.3 515.1 -74.15 L514.15 -76.35 Q516.7 -77.4 518.85 -79.4 L519.0 -77.15 M515.55 -73.1 L515.05 -71.15 515.1 -71.05 Q512.6 -69.85 509.65 -69.65 L508.8 -69.55 507.85 -69.55 508.6 -71.85 513.8 -72.45 514.4 -72.6 Q514.95 -72.95 515.55 -73.1 M507.7 -72.45 Q504.65 -72.45 501.8 -73.55 L503.05 -76.35 Q505.7 -75.3 508.6 -75.3 L507.7 -72.45 M496.25 -77.25 L494.55 -79.35 493.15 -82.0 495.25 -84.1 495.8 -82.8 Q496.8 -81.0 498.45 -79.5 L496.25 -77.25 M490.5 -80.95 L490.3 -80.95 Q489.0 -84.15 489.0 -88.0 L489.0 -88.05 489.05 -88.05 490.55 -89.55 490.6 -88.05 Q490.75 -86.2 491.15 -84.5 L491.85 -82.7 490.5 -80.95" fill="#6f8891" fill-rule="evenodd" stroke="none"/>
    <path d="M490.3 -95.2 L491.9 -96.25 495.25 -94.95 493.15 -94.0 490.3 -95.15 490.3 -95.2 M523.0 -89.45 L523.0 -89.55 526.6 -89.55 526.6 -88.05 523.55 -88.05 523.0 -89.45 M501.7 -105.9 L503.05 -102.55 503.05 -102.5 501.8 -102.35 500.7 -104.8 501.7 -105.9 M521.15 -74.95 L519.0 -77.15 518.85 -79.4 518.85 -79.5 521.3 -77.05 521.15 -74.95 M507.85 -69.55 L507.85 -72.45 507.7 -72.45 508.6 -75.3 508.6 -71.85 507.85 -69.55 M501.7 -73.1 L500.6 -71.0 Q497.3 -72.2 494.5 -74.9 L494.7 -75.1 495.9 -77.0 496.2 -76.6 Q498.65 -74.3 501.7 -73.1 M493.15 -82.0 L493.15 -82.05 493.05 -82.05 490.5 -80.95 491.85 -82.7 495.25 -84.1 493.15 -82.0" fill="#516870" fill-rule="evenodd" stroke="none"/>
    <path d="M494.4 -92.2 L495.05 -91.3 495.5 -90.9 Q498.2 -88.05 502.05 -88.05 L502.45 -86.55 503.05 -85.5 503.8 -84.5 Q504.8 -83.55 505.9 -83.15 L508.4 -82.7 508.7 -82.7 Q509.9 -82.75 510.9 -83.25 511.95 -83.6 512.8 -84.5 L513.3 -85.0 514.3 -86.55 Q514.7 -87.7 514.7 -89.0 L514.65 -89.65 516.4 -89.85 Q519.8 -90.25 523.0 -89.25 L523.0 -88.25 523.0 -88.05 522.95 -87.3 522.55 -85.5 522.05 -84.1 523.0 -83.6 525.35 -82.75 525.35 -82.7 524.65 -81.3 523.9 -79.95 521.4 -77.05 521.3 -77.05 518.85 -79.5 518.85 -79.4 Q516.7 -77.4 514.15 -76.35 L515.1 -74.15 515.55 -73.1 Q514.95 -72.95 514.4 -72.6 L513.8 -72.45 508.6 -71.85 508.6 -75.3 Q505.7 -75.3 503.05 -76.35 L501.8 -73.55 501.7 -73.1 Q498.65 -74.3 496.2 -76.6 L495.9 -77.0 496.25 -77.25 498.45 -79.5 Q496.8 -81.0 495.8 -82.8 L495.25 -84.1 491.85 -82.7 491.15 -84.5 Q490.75 -86.2 490.6 -88.05 L490.55 -89.55 492.05 -89.55 494.2 -89.55 494.4 -92.2" fill="#b1c4cb" fill-rule="evenodd" stroke="none"/>
    <path d="M502.05 -88.05 L502.0 -89.0 502.05 -90.05 502.45 -91.3 Q502.95 -92.45 503.8 -93.4 L503.85 -93.4 Q504.8 -94.35 505.9 -94.75 L508.4 -95.2 510.85 -94.75 Q511.95 -94.35 512.8 -93.4 513.75 -92.45 514.3 -91.3 L514.65 -89.65 514.7 -89.0 Q514.7 -87.7 514.3 -86.55 L513.3 -85.0 512.8 -84.5 Q511.95 -83.6 510.9 -83.25 509.9 -82.75 508.7 -82.7 L508.4 -82.7 505.9 -83.15 Q504.8 -83.55 503.8 -84.5 L503.05 -85.5 502.45 -86.55 502.05 -88.05 M512.85 -86.15 L513.65 -87.45 Q514.05 -88.35 514.05 -89.55 514.05 -90.55 513.65 -91.45 513.2 -92.45 512.4 -93.25 511.75 -94.05 510.7 -94.4 L508.6 -94.85 Q507.55 -94.85 506.6 -94.4 505.6 -94.05 504.8 -93.25 503.95 -92.45 503.6 -91.45 L503.3 -90.35 503.25 -89.55 503.35 -88.05 503.6 -87.45 504.1 -86.5 504.8 -85.75 Q505.6 -84.9 506.6 -84.5 L508.6 -84.15 508.9 -84.15 Q509.9 -84.2 510.7 -84.55 511.75 -84.95 512.4 -85.75 L512.85 -86.15" fill="#d5eef7" fill-rule="evenodd" stroke="none"/>
    <path d="M503.3 -90.35 L503.6 -91.45 Q503.95 -92.45 504.8 -93.25 505.6 -94.05 506.6 -94.4 507.55 -94.85 508.6 -94.85 L510.7 -94.4 Q511.75 -94.05 512.4 -93.25 513.2 -92.45 513.65 -91.45 514.05 -90.55 514.05 -89.55 514.05 -88.35 513.65 -87.45 L512.85 -86.15 512.85 -87.0 Q512.85 -88.05 512.45 -89.15 L512.4 -89.25 511.3 -90.8 509.55 -91.95 507.55 -92.35 505.35 -91.95 503.65 -90.8 503.3 -90.35" fill="#83979f" fill-rule="evenodd" stroke="none"/>
  </g>
</svg>
