<?xml version="1.0" encoding="UTF-8" standalone="no"?>
<svg xmlns:xlink="http://www.w3.org/1999/xlink" height="6.45px" width="25.45px" xmlns="http://www.w3.org/2000/svg">
  <g transform="matrix(1.0, 0.0, 0.0, 1.0, -2.4, 13.25)">
    <path d="M4.3 -12.3 L5.55 -12.7 6.0 -12.75 Q6.7 -12.7 7.15 -12.15 L7.25 -11.95 7.3 -11.8 7.45 -11.35 7.65 -11.1 7.85 -10.55 Q8.25 -9.5 7.7 -8.5 7.15 -7.55 6.1 -7.3 L4.1 -7.5 Q3.25 -8.0 2.85 -9.1 2.55 -10.1 3.1 -11.05 3.45 -11.75 4.3 -12.25 L4.3 -12.3" fill="#cf72f0" fill-rule="evenodd" stroke="none"/>
    <path d="M4.3 -12.3 L5.55 -12.7 6.0 -12.75 Q6.7 -12.7 7.15 -12.15 L7.25 -11.95 7.3 -11.8 7.45 -11.35 7.65 -11.1 7.85 -10.55 Q8.25 -9.5 7.7 -8.5 7.15 -7.55 6.1 -7.3 L4.1 -7.5 Q3.25 -8.0 2.85 -9.1 2.55 -10.1 3.1 -11.05 3.45 -11.75 4.3 -12.25" fill="none" stroke="#411d14" stroke-linecap="round" stroke-linejoin="round" stroke-width="0.75"/>
    <path d="M4.6 -11.75 L4.3 -12.25 4.3 -12.3 5.55 -12.7 6.0 -12.75 5.75 -12.2 5.65 -12.25 Q5.65 -12.45 5.3 -12.25 L4.95 -12.1 4.9 -12.0 4.6 -11.75 M5.1 -11.1 L4.6 -11.35 4.75 -11.65 5.15 -11.2 5.1 -11.1" fill="#a2a2a2" fill-rule="evenodd" stroke="none"/>
    <path d="M4.6 -11.75 L4.9 -12.0 4.95 -12.1 5.3 -12.25 Q5.65 -12.45 5.65 -12.25 L5.75 -12.2 6.0 -12.75 Q6.7 -12.7 7.15 -12.15 L7.25 -11.95 7.3 -11.8 7.35 -11.35 7.3 -11.15 7.25 -10.7 7.25 -10.45 6.85 -10.45 6.35 -10.5 5.7 -10.8 5.3 -11.0 5.1 -11.1 5.15 -11.2 4.75 -11.65 4.6 -11.75" fill="#c8c8c8" fill-rule="evenodd" stroke="none"/>
    <path d="M7.3 -11.8 L7.65 -10.55 Q7.45 -10.35 7.25 -10.45 L7.25 -10.7 7.3 -11.15 7.35 -11.35 7.3 -11.8 M6.85 -10.45 L6.8 -10.25 Q6.6 -10.35 6.35 -10.5 L6.85 -10.45" fill="#e6e6e6" fill-rule="evenodd" stroke="none"/>
    <path d="M7.85 -10.55 Q8.25 -9.5 7.7 -8.5 7.15 -7.55 6.1 -7.3 L4.1 -7.5 Q3.25 -8.0 2.85 -9.1 2.55 -10.1 3.1 -11.05 3.6 -11.95 4.7 -12.3 L5.15 -12.4 5.8 -12.35 6.65 -12.1 7.3 -11.6 7.65 -11.1 7.85 -10.55" fill="#ffa31a" fill-rule="evenodd" stroke="none"/>
    <path d="M3.6 -10.15 Q3.4 -10.9 3.65 -11.55 3.95 -12.25 4.75 -12.45 L6.35 -12.3 Q7.2 -11.95 7.4 -11.15 7.6 -10.4 7.2 -9.7 6.8 -9.0 6.0 -8.75 L4.5 -8.95 Q3.8 -9.35 3.6 -10.15" fill="#febe5f" fill-rule="evenodd" stroke="none"/>
    <path d="M5.2 -9.9 L5.3 -10.55 4.9 -11.1 4.2 -11.15 Q3.85 -11.1 3.7 -10.75 3.5 -10.45 3.6 -10.1 3.7 -9.75 4.0 -9.55 L4.65 -9.45 5.2 -9.9" fill="#ffe3bb" fill-rule="evenodd" stroke="none"/>
    <path d="M25.95 -12.4 L27.15 -11.2 Q27.7 -10.25 27.4 -9.25 27.0 -8.15 26.15 -7.65 25.2 -7.1 24.15 -7.45 23.1 -7.7 22.55 -8.65 22.0 -9.65 22.4 -10.7 L22.6 -11.25 22.8 -11.5 22.95 -11.95 23.0 -12.1 23.1 -12.3 Q23.55 -12.85 24.25 -12.9 L24.7 -12.85 25.95 -12.45 25.95 -12.4" fill="#cf72f0" fill-rule="evenodd" stroke="none"/>
    <path d="M25.95 -12.45 L24.7 -12.85 24.25 -12.9 Q23.55 -12.85 23.1 -12.3 L23.0 -12.1 22.95 -11.95 22.8 -11.5 22.6 -11.25 22.4 -10.7 Q22.0 -9.65 22.55 -8.65 23.1 -7.7 24.15 -7.45 25.2 -7.1 26.15 -7.65 27.0 -8.15 27.4 -9.25 27.7 -10.25 27.15 -11.2 L25.95 -12.4" fill="none" stroke="#411d14" stroke-linecap="round" stroke-linejoin="round" stroke-width="0.75"/>
    <path d="M25.65 -11.9 L25.5 -11.8 25.1 -11.35 25.15 -11.25 24.95 -11.15 24.55 -10.95 23.9 -10.65 23.4 -10.6 23.0 -10.6 23.0 -10.85 22.95 -11.3 22.9 -11.5 22.95 -11.95 23.0 -12.1 23.1 -12.3 Q23.55 -12.85 24.25 -12.9 L24.5 -12.35 24.6 -12.4 Q24.6 -12.6 24.95 -12.4 L25.3 -12.25 25.35 -12.15 25.65 -11.9" fill="#c8c8c8" fill-rule="evenodd" stroke="none"/>
    <path d="M24.25 -12.9 L24.7 -12.85 25.95 -12.45 25.95 -12.4 25.65 -11.9 25.35 -12.15 25.3 -12.25 24.95 -12.4 Q24.6 -12.6 24.6 -12.4 L24.5 -12.35 24.25 -12.9 M25.5 -11.8 L25.65 -11.5 25.15 -11.25 25.1 -11.35 25.5 -11.8" fill="#a2a2a2" fill-rule="evenodd" stroke="none"/>
    <path d="M23.9 -10.65 L23.45 -10.4 23.4 -10.6 23.9 -10.65 M23.0 -10.6 L22.6 -10.7 Q22.65 -11.5 22.95 -11.95 L22.9 -11.5 22.95 -11.3 23.0 -10.85 23.0 -10.6" fill="#e6e6e6" fill-rule="evenodd" stroke="none"/>
    <path d="M24.45 -12.5 L25.1 -12.55 25.55 -12.45 Q26.65 -12.1 27.15 -11.2 27.7 -10.25 27.4 -9.25 27.0 -8.15 26.15 -7.65 25.2 -7.1 24.15 -7.45 23.1 -7.7 22.55 -8.65 22.0 -9.65 22.4 -10.7 L22.6 -11.25 22.95 -11.75 23.6 -12.25 24.45 -12.5" fill="#ffa31a" fill-rule="evenodd" stroke="none"/>
    <path d="M26.65 -10.3 Q26.85 -11.05 26.6 -11.7 26.3 -12.4 25.5 -12.6 L23.9 -12.45 Q23.05 -12.1 22.85 -11.3 22.65 -10.55 23.05 -9.85 23.45 -9.15 24.25 -8.9 L25.75 -9.1 Q26.45 -9.5 26.65 -10.3" fill="#febe5f" fill-rule="evenodd" stroke="none"/>
    <path d="M25.05 -10.05 Q24.85 -10.35 24.95 -10.7 L25.35 -11.25 26.05 -11.3 Q26.4 -11.25 26.55 -10.9 L26.65 -10.25 Q26.55 -9.9 26.25 -9.7 L25.6 -9.6 25.05 -10.05" fill="#ffe3bb" fill-rule="evenodd" stroke="none"/>
  </g>
</svg>
