<?xml version="1.0" encoding="UTF-8" standalone="no"?>
<svg xmlns:xlink="http://www.w3.org/1999/xlink" height="6.45px" width="25.45px" xmlns="http://www.w3.org/2000/svg">
  <g transform="matrix(1.0, 0.0, 0.0, 1.0, -2.4, 37.55)">
    <path d="M4.3 -36.6 L5.55 -37.0 6.0 -37.05 Q6.7 -37.0 7.15 -36.45 L7.25 -36.25 7.3 -36.1 7.45 -35.65 7.65 -35.4 7.85 -34.85 Q8.25 -33.8 7.7 -32.8 7.15 -31.85 6.1 -31.6 L4.1 -31.8 Q3.25 -32.3 2.85 -33.4 2.55 -34.4 3.1 -35.35 3.45 -36.05 4.3 -36.55 L4.3 -36.6" fill="#cf72f0" fill-rule="evenodd" stroke="none"/>
    <path d="M4.3 -36.6 L5.55 -37.0 6.0 -37.05 Q6.7 -37.0 7.15 -36.45 L7.25 -36.25 7.3 -36.1 7.45 -35.65 7.65 -35.4 7.85 -34.85 Q8.25 -33.8 7.7 -32.8 7.15 -31.85 6.1 -31.6 L4.1 -31.8 Q3.25 -32.3 2.85 -33.4 2.55 -34.4 3.1 -35.35 3.45 -36.05 4.3 -36.55" fill="none" stroke="#411d14" stroke-linecap="round" stroke-linejoin="round" stroke-width="0.75"/>
    <path d="M7.3 -36.1 L7.35 -35.65 7.3 -35.45 7.25 -35.0 7.25 -34.75 6.85 -34.75 6.35 -34.8 5.7 -35.1 5.3 -35.3 5.1 -35.4 5.15 -35.5 4.75 -35.95 4.6 -36.05 4.9 -36.3 4.95 -36.4 5.3 -36.55 Q5.65 -36.75 5.65 -36.55 L5.75 -36.5 6.0 -37.05 Q6.7 -37.0 7.15 -36.45 L7.25 -36.25 7.3 -36.1" fill="#c8c8c8" fill-rule="evenodd" stroke="none"/>
    <path d="M7.25 -34.75 L7.25 -35.0 7.3 -35.45 7.35 -35.65 7.3 -36.1 7.65 -34.85 Q7.45 -34.65 7.25 -34.75 M6.35 -34.8 L6.85 -34.75 6.8 -34.55 Q6.6 -34.65 6.35 -34.8" fill="#e6e6e6" fill-rule="evenodd" stroke="none"/>
    <path d="M6.0 -37.05 L5.75 -36.5 5.65 -36.55 Q5.65 -36.75 5.3 -36.55 L4.95 -36.4 4.9 -36.3 4.6 -36.05 4.3 -36.55 4.3 -36.6 5.55 -37.0 6.0 -37.05 M4.75 -35.95 L5.15 -35.5 5.1 -35.4 4.6 -35.65 4.75 -35.95" fill="#a2a2a2" fill-rule="evenodd" stroke="none"/>
    <path d="M7.85 -34.85 Q8.25 -33.8 7.7 -32.8 7.15 -31.85 6.1 -31.6 L4.1 -31.8 Q3.25 -32.3 2.85 -33.4 2.55 -34.4 3.1 -35.35 3.6 -36.25 4.7 -36.6 L5.15 -36.7 5.8 -36.65 6.65 -36.4 7.3 -35.9 7.65 -35.4 7.85 -34.85" fill="#ffa31a" fill-rule="evenodd" stroke="none"/>
    <path d="M3.6 -34.45 Q3.4 -35.2 3.65 -35.85 3.95 -36.55 4.75 -36.75 L6.35 -36.6 Q7.2 -36.25 7.4 -35.45 7.6 -34.7 7.2 -34.0 6.8 -33.3 6.0 -33.05 L4.5 -33.25 Q3.8 -33.65 3.6 -34.45" fill="#febe5f" fill-rule="evenodd" stroke="none"/>
    <path d="M5.2 -34.2 L5.3 -34.85 4.9 -35.4 4.2 -35.45 Q3.85 -35.4 3.7 -35.05 3.5 -34.75 3.6 -34.4 3.7 -34.05 4.0 -33.85 L4.65 -33.75 5.2 -34.2" fill="#ffe3bb" fill-rule="evenodd" stroke="none"/>
    <path d="M25.95 -36.7 L27.15 -35.5 Q27.7 -34.55 27.4 -33.55 27.0 -32.45 26.15 -31.95 25.2 -31.4 24.15 -31.75 23.1 -32.0 22.55 -32.95 22.0 -33.95 22.4 -35.0 L22.6 -35.55 22.8 -35.8 22.95 -36.25 23.0 -36.4 23.1 -36.6 Q23.55 -37.15 24.25 -37.2 L24.7 -37.15 25.95 -36.75 25.95 -36.7" fill="#cf72f0" fill-rule="evenodd" stroke="none"/>
    <path d="M25.95 -36.75 L24.7 -37.15 24.25 -37.2 Q23.55 -37.15 23.1 -36.6 L23.0 -36.4 22.95 -36.25 22.8 -35.8 22.6 -35.55 22.4 -35.0 Q22.0 -33.95 22.55 -32.95 23.1 -32.0 24.15 -31.75 25.2 -31.4 26.15 -31.95 27.0 -32.45 27.4 -33.55 27.7 -34.55 27.15 -35.5 L25.95 -36.7" fill="none" stroke="#411d14" stroke-linecap="round" stroke-linejoin="round" stroke-width="0.75"/>
    <path d="M24.25 -37.2 L24.7 -37.15 25.95 -36.75 25.95 -36.7 25.65 -36.2 25.35 -36.45 25.3 -36.55 24.95 -36.7 Q24.6 -36.9 24.6 -36.7 L24.5 -36.65 24.25 -37.2 M25.5 -36.1 L25.65 -35.8 25.15 -35.55 25.1 -35.65 25.5 -36.1" fill="#a2a2a2" fill-rule="evenodd" stroke="none"/>
    <path d="M25.65 -36.2 L25.5 -36.1 25.1 -35.65 25.15 -35.55 24.95 -35.45 24.55 -35.25 23.9 -34.95 23.4 -34.9 23.0 -34.9 23.0 -35.15 22.95 -35.6 22.9 -35.8 22.95 -36.25 23.0 -36.4 23.1 -36.6 Q23.55 -37.15 24.25 -37.2 L24.5 -36.65 24.6 -36.7 Q24.6 -36.9 24.95 -36.7 L25.3 -36.55 25.35 -36.45 25.65 -36.2" fill="#c8c8c8" fill-rule="evenodd" stroke="none"/>
    <path d="M23.9 -34.95 L23.45 -34.7 23.4 -34.9 23.9 -34.95 M23.0 -34.9 L22.6 -35.0 Q22.65 -35.8 22.95 -36.25 L22.9 -35.8 22.95 -35.6 23.0 -35.15 23.0 -34.9" fill="#e6e6e6" fill-rule="evenodd" stroke="none"/>
    <path d="M27.15 -35.5 Q27.7 -34.55 27.4 -33.55 27.0 -32.45 26.15 -31.95 25.2 -31.4 24.15 -31.75 23.1 -32.0 22.55 -32.95 22.0 -33.95 22.4 -35.0 L22.6 -35.55 22.95 -36.05 23.6 -36.55 24.45 -36.8 25.1 -36.85 25.55 -36.75 Q26.65 -36.4 27.15 -35.5" fill="#ffa31a" fill-rule="evenodd" stroke="none"/>
    <path d="M26.65 -34.6 Q26.85 -35.35 26.6 -36.0 26.3 -36.7 25.5 -36.9 L23.9 -36.75 Q23.05 -36.4 22.85 -35.6 22.65 -34.85 23.05 -34.15 23.45 -33.45 24.25 -33.2 L25.75 -33.4 Q26.45 -33.8 26.65 -34.6" fill="#febe5f" fill-rule="evenodd" stroke="none"/>
    <path d="M25.05 -34.35 Q24.85 -34.65 24.95 -35.0 L25.35 -35.55 26.05 -35.6 Q26.4 -35.55 26.55 -35.2 L26.65 -34.55 Q26.55 -34.2 26.25 -34.0 L25.6 -33.9 25.05 -34.35" fill="#ffe3bb" fill-rule="evenodd" stroke="none"/>
  </g>
</svg>
