<?xml version="1.0" encoding="UTF-8" standalone="no"?>
<svg xmlns:xlink="http://www.w3.org/1999/xlink" height="6.45px" width="25.45px" xmlns="http://www.w3.org/2000/svg">
  <g transform="matrix(1.0, 0.0, 0.0, 1.0, -2.4, 20.35)">
    <path d="M4.3 -19.4 L5.55 -19.8 6.0 -19.85 Q6.7 -19.8 7.15 -19.25 L7.25 -19.05 7.3 -18.9 7.45 -18.45 7.65 -18.2 7.85 -17.65 Q8.25 -16.6 7.7 -15.6 7.15 -14.65 6.1 -14.4 L4.1 -14.6 Q3.25 -15.1 2.85 -16.2 2.55 -17.2 3.1 -18.15 3.45 -18.85 4.3 -19.35 L4.3 -19.4" fill="#cf72f0" fill-rule="evenodd" stroke="none"/>
    <path d="M4.3 -19.4 L5.55 -19.8 6.0 -19.85 Q6.7 -19.8 7.15 -19.25 L7.25 -19.05 7.3 -18.9 7.45 -18.45 7.65 -18.2 7.85 -17.65 Q8.25 -16.6 7.7 -15.6 7.15 -14.65 6.1 -14.4 L4.1 -14.6 Q3.25 -15.1 2.85 -16.2 2.55 -17.2 3.1 -18.15 3.45 -18.85 4.3 -19.35" fill="none" stroke="#411d14" stroke-linecap="round" stroke-linejoin="round" stroke-width="0.75"/>
    <path d="M6.0 -19.85 Q6.7 -19.8 7.15 -19.25 L7.25 -19.05 7.3 -18.9 7.35 -18.45 7.3 -18.25 7.25 -17.8 7.25 -17.55 6.85 -17.55 6.35 -17.6 5.7 -17.9 5.3 -18.1 5.1 -18.2 5.15 -18.3 4.75 -18.75 4.6 -18.85 4.9 -19.1 4.95 -19.2 5.3 -19.35 Q5.65 -19.55 5.65 -19.35 L5.75 -19.3 6.0 -19.85" fill="#c8c8c8" fill-rule="evenodd" stroke="none"/>
    <path d="M6.0 -19.85 L5.75 -19.3 5.65 -19.35 Q5.65 -19.55 5.3 -19.35 L4.95 -19.2 4.9 -19.1 4.6 -18.85 4.3 -19.35 4.3 -19.4 5.55 -19.8 6.0 -19.85 M4.75 -18.75 L5.15 -18.3 5.1 -18.2 4.6 -18.45 4.75 -18.75" fill="#a2a2a2" fill-rule="evenodd" stroke="none"/>
    <path d="M6.35 -17.6 L6.85 -17.55 6.8 -17.35 Q6.6 -17.45 6.35 -17.6 M7.25 -17.55 L7.25 -17.8 7.3 -18.25 7.35 -18.45 7.3 -18.9 7.65 -17.65 Q7.45 -17.45 7.25 -17.55" fill="#e6e6e6" fill-rule="evenodd" stroke="none"/>
    <path d="M5.8 -19.45 L6.65 -19.2 7.3 -18.7 7.65 -18.2 7.85 -17.65 Q8.25 -16.6 7.7 -15.6 7.15 -14.65 6.1 -14.4 L4.1 -14.6 Q3.25 -15.1 2.85 -16.2 2.55 -17.2 3.1 -18.15 3.6 -19.05 4.7 -19.4 L5.15 -19.5 5.8 -19.45" fill="#ffa31a" fill-rule="evenodd" stroke="none"/>
    <path d="M3.6 -17.25 Q3.4 -18.0 3.65 -18.65 3.95 -19.35 4.75 -19.55 L6.35 -19.4 Q7.2 -19.05 7.4 -18.25 7.6 -17.5 7.2 -16.8 6.8 -16.1 6.0 -15.85 L4.5 -16.05 Q3.8 -16.45 3.6 -17.25" fill="#febe5f" fill-rule="evenodd" stroke="none"/>
    <path d="M5.2 -17.0 L5.3 -17.65 4.9 -18.2 4.2 -18.25 Q3.85 -18.2 3.7 -17.85 3.5 -17.55 3.6 -17.2 3.7 -16.85 4.0 -16.65 L4.65 -16.55 5.2 -17.0" fill="#ffe3bb" fill-rule="evenodd" stroke="none"/>
    <path d="M25.95 -19.55 L25.95 -19.5 27.15 -18.3 Q27.7 -17.35 27.4 -16.35 27.0 -15.25 26.15 -14.75 25.2 -14.2 24.15 -14.55 23.1 -14.8 22.55 -15.75 22.0 -16.75 22.4 -17.8 L22.6 -18.35 22.8 -18.6 22.95 -19.05 23.0 -19.2 23.1 -19.4 Q23.55 -19.95 24.25 -20.0 L24.7 -19.95 25.95 -19.55" fill="#cf72f0" fill-rule="evenodd" stroke="none"/>
    <path d="M25.95 -19.55 L24.7 -19.95 24.25 -20.0 Q23.55 -19.95 23.1 -19.4 L23.0 -19.2 22.95 -19.05 22.8 -18.6 22.6 -18.35 22.4 -17.8 Q22.0 -16.75 22.55 -15.75 23.1 -14.8 24.15 -14.55 25.2 -14.2 26.15 -14.75 27.0 -15.25 27.4 -16.35 27.7 -17.35 27.15 -18.3 L25.95 -19.5" fill="none" stroke="#411d14" stroke-linecap="round" stroke-linejoin="round" stroke-width="0.75"/>
    <path d="M25.5 -18.9 L25.65 -18.6 25.15 -18.35 25.1 -18.45 25.5 -18.9 M24.25 -20.0 L24.7 -19.95 25.95 -19.55 25.95 -19.5 25.65 -19.0 25.35 -19.25 25.3 -19.35 24.95 -19.5 Q24.6 -19.7 24.6 -19.5 L24.5 -19.45 24.25 -20.0" fill="#a2a2a2" fill-rule="evenodd" stroke="none"/>
    <path d="M25.15 -18.35 L24.95 -18.25 24.55 -18.05 23.9 -17.75 23.4 -17.7 23.0 -17.7 23.0 -17.95 22.95 -18.4 22.9 -18.6 22.95 -19.05 23.0 -19.2 23.1 -19.4 Q23.55 -19.95 24.25 -20.0 L24.5 -19.45 24.6 -19.5 Q24.6 -19.7 24.95 -19.5 L25.3 -19.35 25.35 -19.25 25.65 -19.0 25.5 -18.9 25.1 -18.45 25.15 -18.35" fill="#c8c8c8" fill-rule="evenodd" stroke="none"/>
    <path d="M23.9 -17.75 L23.45 -17.5 23.4 -17.7 23.9 -17.75 M23.0 -17.7 L22.6 -17.8 Q22.65 -18.6 22.95 -19.05 L22.9 -18.6 22.95 -18.4 23.0 -17.95 23.0 -17.7" fill="#e6e6e6" fill-rule="evenodd" stroke="none"/>
    <path d="M24.45 -19.6 L25.1 -19.65 25.55 -19.55 Q26.65 -19.2 27.15 -18.3 27.7 -17.35 27.4 -16.35 27.0 -15.25 26.15 -14.75 25.2 -14.2 24.15 -14.55 23.1 -14.8 22.55 -15.75 22.0 -16.75 22.4 -17.8 L22.6 -18.35 22.95 -18.85 23.6 -19.35 24.45 -19.6" fill="#ffa31a" fill-rule="evenodd" stroke="none"/>
    <path d="M26.65 -17.4 Q26.85 -18.15 26.6 -18.8 26.3 -19.5 25.5 -19.7 L23.9 -19.55 Q23.05 -19.2 22.85 -18.4 22.65 -17.65 23.05 -16.95 23.45 -16.25 24.25 -16.0 L25.75 -16.2 Q26.45 -16.6 26.65 -17.4" fill="#febe5f" fill-rule="evenodd" stroke="none"/>
    <path d="M25.05 -17.15 Q24.85 -17.45 24.95 -17.8 L25.35 -18.35 26.05 -18.4 Q26.4 -18.35 26.55 -18.0 L26.65 -17.35 Q26.55 -17.0 26.25 -16.8 L25.6 -16.7 25.05 -17.15" fill="#ffe3bb" fill-rule="evenodd" stroke="none"/>
  </g>
</svg>
