<?xml version="1.0" encoding="UTF-8" standalone="no"?>
<svg xmlns:xlink="http://www.w3.org/1999/xlink" height="6.45px" width="25.45px" xmlns="http://www.w3.org/2000/svg">
  <g transform="matrix(1.0, 0.0, 0.0, 1.0, -2.4, 12.05)">
    <path d="M4.3 -11.1 L5.55 -11.5 6.0 -11.55 Q6.7 -11.5 7.15 -10.95 L7.25 -10.75 7.3 -10.6 7.45 -10.15 7.65 -9.9 7.85 -9.35 Q8.25 -8.3 7.7 -7.3 7.15 -6.35 6.1 -6.1 L4.1 -6.3 Q3.25 -6.8 2.85 -7.9 2.55 -8.9 3.1 -9.85 3.45 -10.55 4.3 -11.05 L4.3 -11.1" fill="#cf72f0" fill-rule="evenodd" stroke="none"/>
    <path d="M4.3 -11.1 L5.55 -11.5 6.0 -11.55 Q6.7 -11.5 7.15 -10.95 L7.25 -10.75 7.3 -10.6 7.45 -10.15 7.65 -9.9 7.85 -9.35 Q8.25 -8.3 7.7 -7.3 7.15 -6.35 6.1 -6.1 L4.1 -6.3 Q3.25 -6.8 2.85 -7.9 2.55 -8.9 3.1 -9.85 3.45 -10.55 4.3 -11.05" fill="none" stroke="#411d14" stroke-linecap="round" stroke-linejoin="round" stroke-width="0.75"/>
    <path d="M6.0 -11.55 L5.75 -11.0 5.65 -11.05 Q5.65 -11.25 5.3 -11.05 L4.95 -10.9 4.9 -10.8 4.6 -10.55 4.3 -11.05 4.3 -11.1 5.55 -11.5 6.0 -11.55 M4.75 -10.45 L5.15 -10.0 5.1 -9.9 4.6 -10.15 4.75 -10.45" fill="#a2a2a2" fill-rule="evenodd" stroke="none"/>
    <path d="M4.6 -10.55 L4.9 -10.8 4.95 -10.9 5.3 -11.05 Q5.65 -11.25 5.65 -11.05 L5.75 -11.0 6.0 -11.55 Q6.7 -11.5 7.15 -10.95 L7.25 -10.75 7.3 -10.6 7.35 -10.15 7.3 -9.95 7.25 -9.5 7.25 -9.25 6.85 -9.25 6.35 -9.3 5.7 -9.6 5.3 -9.8 5.1 -9.9 5.15 -10.0 4.75 -10.45 4.6 -10.55" fill="#c8c8c8" fill-rule="evenodd" stroke="none"/>
    <path d="M6.35 -9.3 L6.85 -9.25 6.8 -9.05 Q6.6 -9.15 6.35 -9.3 M7.25 -9.25 L7.25 -9.5 7.3 -9.95 7.35 -10.15 7.3 -10.6 7.65 -9.35 Q7.45 -9.15 7.25 -9.25" fill="#e6e6e6" fill-rule="evenodd" stroke="none"/>
    <path d="M7.85 -9.35 Q8.25 -8.3 7.7 -7.3 7.15 -6.35 6.1 -6.1 L4.1 -6.3 Q3.25 -6.8 2.85 -7.9 2.55 -8.9 3.1 -9.85 3.6 -10.75 4.7 -11.1 L5.15 -11.2 5.8 -11.15 6.65 -10.9 7.3 -10.4 7.65 -9.9 7.85 -9.35" fill="#ffa31a" fill-rule="evenodd" stroke="none"/>
    <path d="M3.6 -8.95 Q3.4 -9.7 3.65 -10.35 3.95 -11.05 4.75 -11.25 L6.35 -11.1 Q7.2 -10.75 7.4 -9.95 7.6 -9.2 7.2 -8.5 6.8 -7.8 6.0 -7.55 L4.5 -7.75 Q3.8 -8.15 3.6 -8.95" fill="#febe5f" fill-rule="evenodd" stroke="none"/>
    <path d="M5.2 -8.7 L5.3 -9.35 4.9 -9.9 4.2 -9.95 Q3.85 -9.9 3.7 -9.55 3.5 -9.25 3.6 -8.9 3.7 -8.55 4.0 -8.35 L4.65 -8.25 5.2 -8.7" fill="#ffe3bb" fill-rule="evenodd" stroke="none"/>
    <path d="M25.95 -11.2 L27.15 -10.0 Q27.7 -9.05 27.4 -8.05 27.0 -6.95 26.15 -6.45 25.2 -5.9 24.15 -6.25 23.1 -6.5 22.55 -7.45 22.0 -8.45 22.4 -9.5 L22.6 -10.05 22.8 -10.3 22.95 -10.75 23.0 -10.9 23.1 -11.1 Q23.55 -11.65 24.25 -11.7 L24.7 -11.65 25.95 -11.25 25.95 -11.2" fill="#cf72f0" fill-rule="evenodd" stroke="none"/>
    <path d="M25.95 -11.25 L24.7 -11.65 24.25 -11.7 Q23.55 -11.65 23.1 -11.1 L23.0 -10.9 22.95 -10.75 22.8 -10.3 22.6 -10.05 22.4 -9.5 Q22.0 -8.45 22.55 -7.45 23.1 -6.5 24.15 -6.25 25.2 -5.9 26.15 -6.45 27.0 -6.95 27.4 -8.05 27.7 -9.05 27.15 -10.0 L25.95 -11.2" fill="none" stroke="#411d14" stroke-linecap="round" stroke-linejoin="round" stroke-width="0.75"/>
    <path d="M24.25 -11.7 L24.5 -11.15 24.6 -11.2 Q24.6 -11.4 24.95 -11.2 L25.3 -11.05 25.35 -10.95 25.65 -10.7 25.5 -10.6 25.1 -10.15 25.15 -10.05 24.95 -9.95 24.55 -9.75 23.9 -9.45 23.4 -9.4 23.0 -9.4 23.0 -9.65 22.95 -10.1 22.9 -10.3 22.95 -10.75 23.0 -10.9 23.1 -11.1 Q23.55 -11.65 24.25 -11.7" fill="#c8c8c8" fill-rule="evenodd" stroke="none"/>
    <path d="M25.65 -10.7 L25.35 -10.95 25.3 -11.05 24.95 -11.2 Q24.6 -11.4 24.6 -11.2 L24.5 -11.15 24.25 -11.7 24.7 -11.65 25.95 -11.25 25.95 -11.2 25.65 -10.7 M25.15 -10.05 L25.1 -10.15 25.5 -10.6 25.65 -10.3 25.15 -10.05" fill="#a2a2a2" fill-rule="evenodd" stroke="none"/>
    <path d="M22.95 -10.75 L22.9 -10.3 22.95 -10.1 23.0 -9.65 23.0 -9.4 22.6 -9.5 Q22.65 -10.3 22.95 -10.75 M23.4 -9.4 L23.9 -9.45 23.45 -9.2 23.4 -9.4" fill="#e6e6e6" fill-rule="evenodd" stroke="none"/>
    <path d="M25.55 -11.25 Q26.65 -10.9 27.15 -10.0 27.7 -9.05 27.4 -8.05 27.0 -6.95 26.15 -6.45 25.2 -5.9 24.15 -6.25 23.1 -6.5 22.55 -7.45 22.0 -8.45 22.4 -9.5 L22.6 -10.05 22.95 -10.55 23.6 -11.05 24.45 -11.3 25.1 -11.35 25.55 -11.25" fill="#ffa31a" fill-rule="evenodd" stroke="none"/>
    <path d="M26.65 -9.1 Q26.85 -9.85 26.6 -10.5 26.3 -11.2 25.5 -11.4 L23.9 -11.25 Q23.05 -10.9 22.85 -10.1 22.65 -9.35 23.05 -8.65 23.45 -7.95 24.25 -7.7 L25.75 -7.9 Q26.45 -8.3 26.65 -9.1" fill="#febe5f" fill-rule="evenodd" stroke="none"/>
    <path d="M25.05 -8.85 Q24.85 -9.15 24.95 -9.5 L25.35 -10.05 26.05 -10.1 Q26.4 -10.05 26.55 -9.7 L26.65 -9.05 Q26.55 -8.7 26.25 -8.5 L25.6 -8.4 25.05 -8.85" fill="#ffe3bb" fill-rule="evenodd" stroke="none"/>
  </g>
</svg>
