<?xml version="1.0" encoding="UTF-8" standalone="no"?>
<svg xmlns:xlink="http://www.w3.org/1999/xlink" height="37.4px" width="37.45px" xmlns="http://www.w3.org/2000/svg">
  <g transform="matrix(1.0, 0.0, 0.0, 1.0, -585.75, 79.5)">
    <path d="M621.2 -61.9 L621.2 -60.6 618.45 -60.6 Q618.45 -58.6 618.05 -56.9 L617.95 -56.65 620.05 -55.85 620.05 -55.75 620.05 -54.3 Q619.25 -52.45 617.95 -50.75 L617.35 -50.0 616.35 -49.0 614.4 -50.85 614.3 -50.75 614.2 -50.65 611.0 -48.25 611.35 -47.3 610.9 -45.55 611.0 -45.45 Q608.7 -44.45 606.15 -44.25 L605.35 -44.1 604.5 -44.1 604.5 -46.8 604.4 -46.8 Q601.65 -46.8 599.15 -47.7 L599.05 -47.3 598.1 -45.4 Q595.2 -46.55 592.7 -48.9 L592.85 -49.05 593.9 -50.7 594.25 -51.0 592.75 -52.85 591.45 -55.15 591.45 -55.2 591.4 -55.2 589.1 -54.3 589.0 -54.3 Q587.75 -57.1 587.75 -60.45 L587.75 -60.6 587.8 -60.6 589.15 -61.9 590.5 -61.9 590.6 -62.8 Q590.85 -64.2 591.4 -65.5 L591.45 -65.8 591.45 -65.9 589.0 -66.85 589.0 -66.9 589.4 -67.85 589.65 -68.3 Q590.8 -70.35 592.6 -72.1 L592.65 -72.2 592.7 -72.2 593.75 -72.9 593.85 -72.95 593.9 -72.95 595.65 -71.25 Q597.25 -72.45 599.0 -73.2 L599.15 -73.25 598.2 -75.45 599.05 -76.4 Q601.85 -77.5 605.2 -77.5 L605.2 -74.45 Q607.8 -74.45 609.95 -73.5 L610.15 -73.45 611.35 -76.4 Q614.15 -75.2 616.55 -72.95 L616.5 -72.9 616.05 -71.25 614.9 -70.1 Q616.35 -68.55 617.05 -66.65 L620.05 -67.9 Q621.2 -65.1 621.2 -61.9 M608.65 -61.55 L608.6 -61.65 607.6 -62.95 Q606.9 -63.7 606.05 -64.0 L604.25 -64.35 602.35 -64.0 600.8 -62.95 600.5 -62.6 600.45 -61.9 600.55 -60.6 600.75 -60.0 601.15 -59.2 601.8 -58.5 Q602.5 -57.7 603.4 -57.4 L605.2 -57.1 605.45 -57.1 607.05 -57.45 Q607.95 -57.75 608.6 -58.5 L608.95 -58.9 608.95 -59.65 608.65 -61.55" fill="#b1c4cb" fill-rule="evenodd" stroke="none"/>
    <path d="M621.2 -61.9 L621.2 -60.6 618.45 -60.6 Q618.45 -58.6 618.05 -56.9 L617.95 -56.65 620.05 -55.85 620.05 -55.75 620.05 -54.3 Q619.25 -52.45 617.95 -50.75 L617.35 -50.0 616.35 -49.0 614.4 -50.85 614.3 -50.75 614.2 -50.65 611.0 -48.25 611.35 -47.3 610.9 -45.55 611.0 -45.45 Q608.7 -44.45 606.15 -44.25 L605.35 -44.1 604.5 -44.1 604.5 -46.8 604.4 -46.8 Q601.65 -46.8 599.15 -47.7 L599.05 -47.3 598.1 -45.4 Q595.2 -46.55 592.7 -48.9 L592.85 -49.05 593.9 -50.7 594.25 -51.0 592.75 -52.85 591.45 -55.15 591.45 -55.2 591.4 -55.2 589.1 -54.3 589.0 -54.3 Q587.75 -57.1 587.75 -60.45 L587.75 -60.6 587.8 -60.6 589.15 -61.9 590.5 -61.9 590.6 -62.8 Q590.85 -64.2 591.4 -65.5 L591.45 -65.8 591.45 -65.9 589.0 -66.85 589.0 -66.9 589.4 -67.85 589.65 -68.3 Q590.8 -70.35 592.6 -72.1 L592.65 -72.2 592.7 -72.2 593.75 -72.9 593.85 -72.95 593.9 -72.95 595.65 -71.25 Q597.25 -72.45 599.0 -73.2 L599.15 -73.25 598.2 -75.45 599.05 -76.4 Q601.85 -77.5 605.2 -77.5 L605.2 -74.45 Q607.8 -74.45 609.95 -73.5 L610.15 -73.45 611.35 -76.4 Q614.15 -75.2 616.55 -72.95 L616.5 -72.9 616.05 -71.25 614.9 -70.1 Q616.35 -68.55 617.05 -66.65 L620.05 -67.9 Q621.2 -65.1 621.2 -61.9 M608.65 -61.55 L608.95 -59.65 608.95 -58.9 608.6 -58.5 Q607.95 -57.75 607.05 -57.45 L605.45 -57.1 605.2 -57.1 603.4 -57.4 Q602.5 -57.7 601.8 -58.5 L601.15 -59.2 600.75 -60.0 600.55 -60.6 600.45 -61.9 600.5 -62.6 600.8 -62.95 602.35 -64.0 604.25 -64.35 606.05 -64.0 Q606.9 -63.7 607.6 -62.95 L608.6 -61.65 608.65 -61.55" fill="none" stroke="#005c8e" stroke-linecap="round" stroke-linejoin="round" stroke-width="4.0"/>
    <path d="M614.9 -70.1 Q616.35 -68.55 617.05 -66.65 L620.05 -67.9 Q621.2 -65.1 621.2 -61.9 L617.95 -61.9 617.95 -61.8 617.95 -61.65 612.1 -62.1 610.55 -61.95 610.25 -63.45 608.9 -65.3 Q608.15 -66.15 607.15 -66.5 L605.0 -66.9 602.8 -66.5 600.95 -65.3 600.9 -65.3 Q600.15 -64.45 599.75 -63.45 L599.35 -62.25 599.3 -61.4 599.35 -60.6 Q596.0 -60.6 593.6 -63.05 L593.15 -63.45 592.6 -64.25 592.6 -64.3 593.05 -66.15 593.35 -66.65 590.35 -67.85 590.3 -67.9 590.35 -67.9 590.8 -68.8 Q591.65 -70.4 592.95 -71.95 L593.75 -72.85 593.85 -72.95 593.9 -72.95 595.65 -71.2 596.15 -70.7 596.6 -71.15 599.25 -73.0 599.7 -73.2 600.25 -73.4 600.25 -73.45 599.05 -76.4 Q601.85 -77.5 605.2 -77.5 L605.2 -74.35 Q607.8 -74.35 609.95 -73.5 L610.15 -73.45 611.35 -76.4 Q614.15 -75.2 616.55 -72.95 L616.5 -72.85 614.25 -70.7 614.6 -70.4 614.9 -70.1" fill="#bbd4de" fill-rule="evenodd" stroke="none"/>
    <path d="M621.2 -61.9 L621.2 -60.6 618.45 -60.6 617.95 -61.8 617.95 -61.9 621.2 -61.9 M616.35 -48.95 L614.4 -50.85 614.25 -52.9 614.25 -53.0 616.5 -50.75 616.35 -48.95 M604.5 -44.1 L604.5 -46.7 604.4 -46.7 605.2 -49.2 605.2 -46.15 604.5 -44.1 M599.05 -47.3 L598.1 -45.4 Q595.2 -46.5 592.7 -48.9 L592.85 -49.05 593.9 -50.7 594.15 -50.4 Q596.35 -48.35 599.05 -47.3 M591.45 -55.15 L591.45 -55.2 591.4 -55.2 589.1 -54.25 590.3 -55.8 593.35 -57.05 591.45 -55.15 M591.45 -65.85 L589.0 -66.85 589.0 -66.9 590.35 -67.85 593.35 -66.65 591.45 -65.85 M599.15 -73.25 L598.2 -75.45 599.05 -76.4 600.25 -73.45 600.25 -73.4 599.15 -73.25" fill="#516870" fill-rule="evenodd" stroke="none"/>
    <path d="M618.45 -60.6 L618.45 -60.5 Q618.45 -58.6 618.05 -56.9 L617.95 -56.65 617.1 -57.05 617.55 -58.3 617.9 -59.9 617.95 -60.6 617.95 -60.75 617.95 -61.65 617.95 -61.8 618.45 -60.6 M620.05 -55.8 L620.05 -54.3 Q619.25 -52.45 617.95 -50.75 L617.35 -50.0 616.35 -48.95 616.5 -50.75 616.55 -50.75 618.75 -53.35 619.45 -54.6 620.05 -55.8 M614.4 -50.85 L614.4 -50.8 614.3 -50.75 614.2 -50.6 611.0 -48.2 610.15 -50.15 Q612.4 -51.1 614.25 -52.9 L614.4 -50.85 M611.35 -47.3 L610.9 -45.55 611.0 -45.45 Q608.7 -44.45 606.15 -44.25 L605.35 -44.1 604.5 -44.1 605.2 -46.15 Q607.6 -46.15 609.8 -46.7 L610.35 -46.9 611.35 -47.3 M604.4 -46.7 Q601.65 -46.7 599.15 -47.7 L600.25 -50.15 Q602.6 -49.2 605.2 -49.2 L604.4 -46.7 M594.25 -50.95 L592.75 -52.85 591.45 -55.15 593.35 -57.05 593.8 -55.9 Q594.7 -54.3 596.15 -53.0 L594.25 -50.95 M589.1 -54.25 L589.0 -54.25 Q587.75 -57.1 587.75 -60.45 L587.75 -60.6 587.8 -60.6 589.15 -61.9 589.2 -60.6 589.7 -57.4 590.3 -55.8 589.1 -54.25 M590.5 -61.9 L590.6 -62.8 Q590.85 -64.2 591.4 -65.5 L591.45 -65.8 591.45 -65.85 593.35 -66.65 593.05 -66.15 592.6 -64.3 592.6 -64.25 592.35 -61.9 590.5 -61.9 M589.0 -66.9 L589.4 -67.85 589.65 -68.25 Q590.8 -70.3 592.6 -72.1 L592.65 -72.15 592.7 -72.15 593.75 -72.85 592.95 -71.95 Q591.65 -70.4 590.8 -68.8 L590.35 -67.9 590.3 -67.9 590.35 -67.85 589.0 -66.9 M595.65 -71.2 Q597.25 -72.45 599.0 -73.2 L599.15 -73.25 600.25 -73.4 599.7 -73.2 599.25 -73.0 596.6 -71.15 596.15 -70.7 595.65 -71.2 M616.5 -72.85 L616.05 -71.2 614.9 -70.1 614.6 -70.4 614.25 -70.7 616.5 -72.85" fill="#6f8891" fill-rule="evenodd" stroke="none"/>
    <path d="M600.5 -62.6 L600.75 -63.6 Q601.05 -64.45 601.8 -65.2 L603.4 -66.2 605.2 -66.6 607.05 -66.2 608.6 -65.2 609.65 -63.6 Q610.0 -62.8 610.0 -61.9 610.0 -60.85 609.65 -60.0 609.45 -59.4 608.95 -58.9 L608.95 -59.65 608.65 -61.55 608.6 -61.65 607.6 -62.95 Q606.9 -63.65 606.05 -64.0 L604.25 -64.35 602.35 -64.0 600.8 -62.95 600.5 -62.6" fill="#83979f" fill-rule="evenodd" stroke="none"/>
    <path d="M599.35 -60.6 L599.3 -61.4 599.35 -62.25 599.75 -63.45 Q600.15 -64.45 600.9 -65.3 L600.95 -65.3 602.8 -66.5 605.0 -66.9 607.15 -66.5 Q608.15 -66.15 608.9 -65.3 L610.25 -63.45 610.55 -61.95 610.6 -61.4 Q610.6 -60.2 610.25 -59.25 L609.4 -57.8 608.9 -57.4 Q608.15 -56.65 607.2 -56.3 L605.3 -55.8 605.0 -55.8 602.8 -56.15 Q601.8 -56.6 600.9 -57.4 L600.25 -58.3 599.75 -59.25 599.35 -60.6 M608.95 -58.9 Q609.45 -59.4 609.65 -60.0 610.0 -60.85 610.0 -61.9 610.0 -62.8 609.65 -63.6 L608.6 -65.2 607.05 -66.2 605.2 -66.6 603.4 -66.2 601.8 -65.2 Q601.05 -64.45 600.75 -63.6 L600.5 -62.6 600.45 -61.9 600.55 -60.6 600.75 -60.0 601.15 -59.2 601.8 -58.5 Q602.5 -57.7 603.4 -57.4 L605.2 -57.1 605.45 -57.1 607.05 -57.45 Q607.95 -57.75 608.6 -58.5 L608.95 -58.9" fill="#d5eef7" fill-rule="evenodd" stroke="none"/>
    <path d="M617.95 -56.65 L620.05 -55.85 620.05 -55.8 619.45 -54.6 618.75 -53.35 616.55 -50.75 616.5 -50.75 614.25 -53.0 614.25 -52.9 Q612.4 -51.1 610.15 -50.15 L611.0 -48.2 611.35 -47.3 610.35 -46.9 609.8 -46.7 Q607.6 -46.15 605.2 -46.15 L605.2 -49.2 Q602.6 -49.2 600.25 -50.15 L599.15 -47.7 599.05 -47.3 Q596.35 -48.35 594.15 -50.4 L593.9 -50.7 594.25 -50.95 596.15 -53.0 Q594.7 -54.3 593.8 -55.9 L593.35 -57.05 590.3 -55.8 589.7 -57.4 589.2 -60.6 589.15 -61.9 590.5 -61.9 592.35 -61.9 592.6 -64.25 593.15 -63.45 593.6 -63.05 Q596.0 -60.6 599.35 -60.6 L599.75 -59.25 600.25 -58.3 600.9 -57.4 Q601.8 -56.6 602.8 -56.15 L605.0 -55.8 605.3 -55.8 607.2 -56.3 Q608.15 -56.65 608.9 -57.4 L609.4 -57.8 610.25 -59.25 Q610.6 -60.2 610.6 -61.4 L610.55 -61.95 612.1 -62.1 617.95 -61.65 617.95 -60.75 617.95 -60.6 617.9 -59.9 617.55 -58.3 617.1 -57.05 617.95 -56.65" fill="#b1c4cb" fill-rule="evenodd" stroke="none"/>
  </g>
</svg>
