<?xml version="1.0" encoding="UTF-8" standalone="no"?>
<svg xmlns:xlink="http://www.w3.org/1999/xlink" height="18.95px" width="10.5px" xmlns="http://www.w3.org/2000/svg">
  <g transform="matrix(1.0, 0.0, 0.0, 1.0, 3.65, 1.55)">
    <path d="M-2.65 6.05 L-3.35 5.75 Q-3.75 3.55 -3.35 1.35 L-2.55 -0.7 -1.7 -1.45 -1.5 -1.45 -1.3 -1.35 -1.2 -1.3 -0.9 -1.0 Q-0.35 -0.5 0.05 1.1 0.45 2.8 0.1 5.75 L-0.25 5.9 -0.9 6.1 -2.1 6.15 -2.65 6.05" fill="#000000" fill-rule="evenodd" stroke="none"/>
    <path d="M-2.65 6.05 L-3.35 5.75 Q-3.75 3.55 -3.35 1.35 L-2.55 -0.7 -1.7 -1.45 -1.5 -1.45 -1.3 -1.35 -1.2 -1.3 -0.9 -1.0 Q-0.35 -0.5 0.05 1.1 0.45 2.8 0.1 5.75 L-0.25 5.9 -0.9 6.1 -2.1 6.15 -2.65 6.05 Z" fill="none" stroke="#773c00" stroke-linecap="round" stroke-linejoin="round" stroke-width="0.2"/>
    <path d="M-1.5 -1.45 L-1.25 -1.3 Q-0.15 2.15 -0.85 6.1 L-2.05 6.2 Q-2.7 2.2 -1.5 -1.45" fill="#bd8839" fill-rule="evenodd" stroke="none"/>
    <path d="M-1.65 -1.45 L-1.5 -1.45 Q-2.7 2.2 -2.05 6.2 L-2.6 6.05 Q-3.35 1.85 -1.65 -1.45" fill="#dbb935" fill-rule="evenodd" stroke="none"/>
    <path d="M-2.6 6.05 L-3.35 5.75 Q-3.7 3.6 -3.35 1.4 L-2.5 -0.65 -1.7 -1.45 -1.65 -1.45 Q-3.35 1.85 -2.6 6.05" fill="#fade9e" fill-rule="evenodd" stroke="none"/>
    <path d="M-1.25 -1.3 L-1.2 -1.25 Q0.7 2.3 -0.2 5.95 L-0.85 6.1 Q-0.15 2.15 -1.25 -1.3" fill="#c8a048" fill-rule="evenodd" stroke="none"/>
    <path d="M-1.2 -1.25 L-0.85 -0.95 Q-0.35 -0.5 0.1 1.15 0.5 2.8 0.15 5.75 L-0.2 5.95 Q0.7 2.3 -1.2 -1.25" fill="#bf7a15" fill-rule="evenodd" stroke="none"/>
    <path d="M-3.2 6.5 L-2.85 6.5 -2.85 12.25 -3.2 12.25 -3.2 6.5" fill="#f73100" fill-rule="evenodd" stroke="none"/>
    <path d="M-2.1 6.65 L-1.75 6.65 -1.75 15.8 -2.1 15.8 -2.1 6.65" fill="#ffb300" fill-rule="evenodd" stroke="none"/>
    <path d="M-0.45 6.65 L-0.1 6.65 -0.1 10.1 -0.45 10.1 -0.45 6.65" fill="#ffb366" fill-rule="evenodd" stroke="none"/>
    <path d="M-1.35 7.5 L-1.0 7.5 -1.0 13.25 -1.35 13.25 -1.35 7.5" fill="#ff8b6f" fill-rule="evenodd" stroke="none"/>
    <path d="M3.85 7.7 L3.15 7.4 Q2.75 5.2 3.15 3.0 3.5 1.7 3.95 0.95 4.45 0.25 4.8 0.2 L5.0 0.2 5.2 0.3 5.3 0.35 5.6 0.65 Q6.15 1.15 6.55 2.75 6.95 4.45 6.6 7.4 6.45 7.45 6.25 7.55 L5.6 7.75 4.4 7.8 3.85 7.7" fill="#000000" fill-rule="evenodd" stroke="none"/>
    <path d="M3.85 7.7 L3.15 7.4 Q2.75 5.2 3.15 3.0 3.5 1.7 3.95 0.95 4.45 0.25 4.8 0.2 L5.0 0.2 5.2 0.3 5.3 0.35 5.6 0.65 Q6.15 1.15 6.55 2.75 6.95 4.45 6.6 7.4 6.45 7.45 6.25 7.55 L5.6 7.75 4.4 7.8 3.85 7.7 Z" fill="none" stroke="#773c00" stroke-linecap="round" stroke-linejoin="round" stroke-width="0.2"/>
    <path d="M5.0 0.15 L5.25 0.3 Q6.35 3.75 5.65 7.7 L4.45 7.8 Q3.8 3.8 5.0 0.15" fill="#bd8839" fill-rule="evenodd" stroke="none"/>
    <path d="M4.85 0.15 L5.0 0.15 Q3.8 3.8 4.45 7.8 L3.9 7.65 Q3.15 3.45 4.85 0.15" fill="#dbb935" fill-rule="evenodd" stroke="none"/>
    <path d="M3.9 7.65 L3.15 7.35 Q2.8 5.2 3.15 3.0 3.55 1.65 4.0 0.95 4.5 0.2 4.8 0.15 L4.85 0.15 Q3.15 3.45 3.9 7.65" fill="#fade9e" fill-rule="evenodd" stroke="none"/>
    <path d="M5.25 0.3 L5.3 0.35 Q7.2 3.9 6.3 7.55 L5.65 7.7 Q6.35 3.75 5.25 0.3" fill="#c8a048" fill-rule="evenodd" stroke="none"/>
    <path d="M5.3 0.35 L5.65 0.65 Q6.15 1.1 6.6 2.75 7.0 4.4 6.65 7.35 6.45 7.4 6.3 7.55 7.2 3.9 5.3 0.35" fill="#bf7a15" fill-rule="evenodd" stroke="none"/>
    <path d="M3.5 8.1 L3.85 8.1 3.85 13.85 3.5 13.85 3.5 8.1" fill="#f73100" fill-rule="evenodd" stroke="none"/>
    <path d="M4.4 8.25 L4.75 8.25 4.75 17.4 4.4 17.4 4.4 8.25" fill="#ffb300" fill-rule="evenodd" stroke="none"/>
    <path d="M6.05 8.25 L6.4 8.25 6.4 11.7 6.05 11.7 6.05 8.25" fill="#ffb366" fill-rule="evenodd" stroke="none"/>
    <path d="M5.15 9.15 L5.5 9.15 5.5 14.9 5.15 14.9 5.15 9.15" fill="#ff8b6f" fill-rule="evenodd" stroke="none"/>
  </g>
</svg>
