<?xml version="1.0" encoding="UTF-8" standalone="no"?>
<svg xmlns:xlink="http://www.w3.org/1999/xlink" height="37.4px" width="37.45px" xmlns="http://www.w3.org/2000/svg">
  <g transform="matrix(1.0, 0.0, 0.0, 1.0, -581.25, -268.45)">
    <path d="M600.7 270.45 L600.7 273.55 Q603.3 273.55 605.5 274.45 L605.65 274.5 606.85 271.55 Q609.65 272.75 612.05 275.0 L612.0 275.05 611.55 276.75 610.4 277.9 Q611.85 279.45 612.6 281.35 L615.55 280.05 Q616.7 282.85 616.7 286.05 L616.7 287.4 613.95 287.4 Q613.95 289.35 613.55 291.05 L613.5 291.3 615.55 292.1 615.55 292.2 615.55 293.65 613.5 297.2 612.85 297.95 611.85 298.95 609.95 297.1 609.8 297.2 609.7 297.3 606.5 299.7 606.85 300.65 606.45 302.4 606.5 302.5 Q604.2 303.5 601.65 303.75 L600.85 303.85 600.0 303.85 600.0 301.2 599.9 301.2 Q597.15 301.2 594.65 300.3 L594.55 300.65 593.6 302.55 Q590.7 301.4 588.2 299.05 L588.35 298.9 589.4 297.25 589.75 296.95 588.25 295.15 587.0 292.8 587.0 292.75 586.95 292.75 584.6 293.65 584.5 293.65 Q583.25 290.85 583.25 287.5 L583.25 287.4 583.3 287.4 584.65 286.05 586.05 286.05 586.15 285.15 Q586.35 283.8 586.95 282.45 L587.0 282.2 587.0 282.1 584.5 281.1 584.5 281.05 584.9 280.1 585.2 279.65 Q586.3 277.6 588.1 275.85 L588.15 275.75 588.2 275.75 589.25 275.05 589.35 275.0 589.4 275.0 591.15 276.75 Q592.75 275.5 594.5 274.75 L594.65 274.7 593.7 272.55 594.55 271.55 Q597.35 270.45 600.7 270.45 M599.75 283.6 Q598.75 283.6 597.85 283.95 597.0 284.25 596.3 285.0 L596.0 285.35 595.95 286.05 596.05 287.4 596.25 287.95 596.7 288.75 597.3 289.45 598.9 290.55 600.7 290.85 600.95 290.85 602.55 290.5 604.1 289.45 604.45 289.1 604.45 288.35 604.15 286.45 604.1 286.35 603.1 285.0 Q602.4 284.25 601.55 283.95 600.7 283.6 599.75 283.6" fill="#b1c4cb" fill-rule="evenodd" stroke="none"/>
    <path d="M600.7 270.45 L600.7 273.55 Q603.3 273.55 605.5 274.45 L605.65 274.5 606.85 271.55 Q609.65 272.75 612.05 275.0 L612.0 275.05 611.55 276.75 610.4 277.9 Q611.85 279.45 612.6 281.35 L615.55 280.05 Q616.7 282.85 616.7 286.05 L616.7 287.4 613.95 287.4 Q613.95 289.35 613.55 291.05 L613.5 291.3 615.55 292.1 615.55 292.2 615.55 293.65 613.5 297.2 612.85 297.95 611.85 298.95 609.95 297.1 609.8 297.2 609.7 297.3 606.5 299.7 606.85 300.65 606.45 302.4 606.5 302.5 Q604.2 303.5 601.65 303.75 L600.85 303.85 600.0 303.85 600.0 301.2 599.9 301.2 Q597.15 301.2 594.65 300.3 L594.55 300.65 593.6 302.55 Q590.7 301.4 588.2 299.05 L588.35 298.9 589.4 297.25 589.75 296.95 588.25 295.15 587.0 292.8 587.0 292.75 586.95 292.75 584.6 293.65 584.5 293.65 Q583.25 290.85 583.25 287.5 L583.25 287.4 583.3 287.4 584.65 286.05 586.05 286.05 586.15 285.15 Q586.35 283.8 586.95 282.45 L587.0 282.2 587.0 282.1 584.5 281.1 584.5 281.05 584.9 280.1 585.2 279.65 Q586.3 277.6 588.1 275.85 L588.15 275.75 588.2 275.75 589.25 275.05 589.35 275.0 589.4 275.0 591.15 276.75 Q592.75 275.5 594.5 274.75 L594.65 274.7 593.7 272.55 594.55 271.55 Q597.35 270.45 600.7 270.45 M599.75 283.6 Q600.7 283.6 601.55 283.95 602.4 284.25 603.1 285.0 L604.1 286.35 604.15 286.45 604.45 288.35 604.45 289.1 604.1 289.45 602.55 290.5 600.95 290.85 600.7 290.85 598.9 290.55 597.3 289.45 596.7 288.75 596.25 287.95 596.05 287.4 595.95 286.05 596.0 285.35 596.3 285.0 Q597.0 284.25 597.85 283.95 598.75 283.6 599.75 283.6" fill="none" stroke="#005c8e" stroke-linecap="round" stroke-linejoin="round" stroke-width="4.0"/>
    <path d="M594.55 271.55 Q597.35 270.45 600.7 270.45 L600.7 273.6 Q603.3 273.6 605.5 274.45 L605.65 274.5 606.85 271.55 Q609.65 272.75 612.05 275.0 L612.0 275.15 609.75 277.25 610.1 277.55 610.4 277.9 Q611.85 279.45 612.6 281.35 L615.55 280.05 Q616.7 282.85 616.7 286.05 L613.5 286.05 613.5 286.15 613.5 286.35 Q610.6 285.45 607.6 285.85 L606.05 286.0 605.75 284.5 Q605.25 283.5 604.4 282.65 603.7 281.8 602.65 281.45 L600.5 281.05 598.3 281.45 Q597.3 281.8 596.45 282.65 L596.4 282.65 Q595.65 283.5 595.25 284.5 L594.9 285.7 594.8 286.55 594.9 287.4 Q591.5 287.4 589.1 284.9 L588.7 284.5 588.1 283.75 588.1 283.7 Q588.25 282.7 588.55 281.8 L588.85 281.35 585.85 280.1 585.8 280.05 585.85 280.05 586.3 279.15 Q587.15 277.55 588.45 276.05 L589.25 275.15 589.35 275.0 589.4 275.0 591.15 276.75 591.65 277.25 592.1 276.85 Q593.35 275.65 594.75 274.95 L595.2 274.75 595.8 274.55 595.8 274.5 594.55 271.55" fill="#bbd4de" fill-rule="evenodd" stroke="none"/>
    <path d="M612.0 275.15 L611.55 276.75 610.4 277.9 610.1 277.55 609.75 277.25 612.0 275.15 M613.95 287.4 L613.95 287.45 Q613.95 289.35 613.55 291.05 L613.5 291.3 612.65 290.9 613.05 289.65 613.45 288.1 613.5 287.4 613.5 287.25 613.5 286.35 613.5 286.15 613.95 287.4 M615.55 292.15 L615.55 293.65 613.5 297.2 612.85 297.95 611.85 299.0 612.0 297.2 612.05 297.2 614.3 294.6 614.95 293.4 615.55 292.15 M609.95 297.1 L609.95 297.15 609.8 297.2 609.7 297.35 606.5 299.75 605.65 297.8 Q607.9 296.9 609.75 295.1 L609.95 297.1 M606.85 300.65 L606.45 302.4 606.5 302.5 Q604.2 303.5 601.65 303.75 L600.85 303.85 600.0 303.85 600.7 301.8 605.3 301.25 605.85 301.1 Q606.35 300.8 606.85 300.65 M599.9 301.25 Q597.15 301.25 594.65 300.3 L595.8 297.8 Q598.1 298.75 600.7 298.75 L599.9 301.25 M589.75 297.0 L588.25 295.15 587.0 292.8 588.85 290.9 589.3 292.05 Q590.2 293.65 591.65 294.95 L589.75 297.0 M584.6 293.7 L584.5 293.7 Q583.25 290.85 583.25 287.5 L583.25 287.4 583.3 287.4 584.65 286.05 584.7 287.4 Q584.85 289.05 585.25 290.55 L585.8 292.15 584.6 293.7 M586.05 286.05 L586.15 285.15 Q586.35 283.8 586.95 282.45 L587.0 282.2 587.0 282.15 588.85 281.35 588.55 281.8 Q588.25 282.7 588.1 283.7 L588.1 283.75 587.9 286.05 586.05 286.05 M584.5 281.05 L584.9 280.1 585.2 279.7 Q586.3 277.65 588.1 275.85 L588.15 275.8 588.2 275.8 589.25 275.15 588.45 276.05 Q587.15 277.55 586.3 279.15 L585.85 280.05 585.8 280.05 585.85 280.1 584.5 281.05 M591.15 276.75 Q592.75 275.5 594.5 274.75 L594.65 274.7 595.8 274.55 595.2 274.75 594.75 274.95 Q593.35 275.65 592.1 276.85 L591.65 277.25 591.15 276.75" fill="#6f8891" fill-rule="evenodd" stroke="none"/>
    <path d="M616.7 286.05 L616.7 287.4 613.95 287.4 613.5 286.15 613.5 286.05 616.7 286.05 M611.85 299.0 L609.95 297.1 609.75 295.1 609.75 294.95 612.0 297.2 611.85 299.0 M600.0 303.85 L600.0 301.25 599.9 301.25 600.7 298.75 600.7 301.8 600.0 303.85 M594.55 300.65 L593.6 302.55 Q590.7 301.45 588.2 299.05 L588.35 298.9 589.4 297.25 589.7 297.55 Q591.85 299.6 594.55 300.65 M587.0 292.8 L587.0 292.75 586.95 292.75 584.6 293.7 585.8 292.15 588.85 290.9 587.0 292.8 M587.0 282.15 L584.5 281.1 584.5 281.05 585.85 280.1 588.85 281.35 587.0 282.15 M594.65 274.7 L593.7 272.55 594.55 271.55 595.8 274.5 595.8 274.55 594.65 274.7" fill="#516870" fill-rule="evenodd" stroke="none"/>
    <path d="M613.5 291.3 L615.55 292.1 615.55 292.15 614.95 293.4 614.3 294.6 612.05 297.2 612.0 297.2 609.75 294.95 609.75 295.1 Q607.9 296.9 605.65 297.8 L606.5 299.75 606.85 300.65 Q606.35 300.8 605.85 301.1 L605.3 301.25 600.7 301.8 600.7 298.75 Q598.1 298.75 595.8 297.8 L594.65 300.3 594.55 300.65 Q591.85 299.6 589.7 297.55 L589.4 297.25 589.75 297.0 591.65 294.95 Q590.2 293.65 589.3 292.05 L588.85 290.9 585.8 292.15 585.25 290.55 Q584.85 289.05 584.7 287.4 L584.65 286.05 586.05 286.05 587.9 286.05 588.1 283.75 588.7 284.5 589.1 284.9 Q591.5 287.4 594.9 287.4 L595.25 288.7 595.8 289.65 596.4 290.55 598.3 291.8 600.5 292.15 600.8 292.15 602.7 291.7 Q603.7 291.3 604.4 290.55 L604.9 290.15 605.75 288.7 Q606.1 287.75 606.1 286.55 L606.05 286.0 607.6 285.85 Q610.6 285.45 613.5 286.35 L613.5 287.25 613.5 287.4 613.45 288.1 613.05 289.65 612.65 290.9 613.5 291.3" fill="#b1c4cb" fill-rule="evenodd" stroke="none"/>
    <path d="M596.0 285.35 L596.25 284.35 Q596.55 283.5 597.3 282.75 L598.9 281.75 Q599.75 281.4 600.7 281.4 L602.55 281.75 Q603.45 282.1 604.1 282.75 L605.15 284.35 Q605.55 285.15 605.55 286.05 605.55 287.1 605.15 287.95 L604.45 289.1 604.45 288.35 604.15 286.45 604.1 286.35 603.1 285.0 Q602.4 284.3 601.55 283.95 600.7 283.6 599.75 283.6 598.75 283.6 597.85 283.95 597.0 284.3 596.3 285.0 L596.0 285.35" fill="#83979f" fill-rule="evenodd" stroke="none"/>
    <path d="M594.9 287.4 L594.8 286.55 594.9 285.7 595.25 284.5 Q595.65 283.5 596.4 282.65 L596.45 282.65 Q597.3 281.8 598.3 281.45 L600.5 281.05 602.65 281.45 Q603.7 281.8 604.4 282.65 605.25 283.5 605.75 284.5 L606.05 286.0 606.1 286.55 Q606.1 287.75 605.75 288.7 L604.9 290.15 604.4 290.55 Q603.7 291.3 602.7 291.7 L600.8 292.15 600.5 292.15 598.3 291.8 596.4 290.55 595.8 289.65 595.25 288.7 594.9 287.4 M604.45 289.1 L605.15 287.95 Q605.55 287.1 605.55 286.05 605.55 285.15 605.15 284.35 L604.1 282.75 Q603.45 282.1 602.55 281.75 L600.7 281.4 Q599.75 281.4 598.9 281.75 L597.3 282.75 Q596.55 283.5 596.25 284.35 L596.0 285.35 595.95 286.05 596.05 287.4 596.25 287.95 596.7 288.75 597.3 289.45 598.9 290.55 600.7 290.85 600.95 290.85 602.55 290.5 604.1 289.45 604.45 289.1" fill="#d5eef7" fill-rule="evenodd" stroke="none"/>
  </g>
</svg>
