<?xml version="1.0" encoding="UTF-8" standalone="no"?>
<svg xmlns:xlink="http://www.w3.org/1999/xlink" height="7.8px" width="79.3px" xmlns="http://www.w3.org/2000/svg">
  <g transform="matrix(1.0, 0.0, 0.0, 1.0, -0.65, 3.9)">
    <path d="M0.7 -1.75 L1.25 -2.5 Q1.6 -2.7 2.0 -2.5 L4.35 -1.05 7.25 -2.9 8.0 -2.95 8.4 -2.55 10.65 -1.2 13.55 -3.0 14.3 -3.05 14.65 -2.7 14.8 -2.65 17.15 -1.25 20.05 -3.15 20.8 -3.2 21.2 -2.75 23.45 -1.35 26.35 -3.2 27.1 -3.3 27.5 -2.85 27.95 -2.75 30.3 -1.35 33.2 -3.15 33.95 -3.25 34.35 -2.8 36.6 -1.45 39.5 -3.3 40.25 -3.35 40.55 -3.05 40.9 -2.95 43.25 -1.55 46.15 -3.4 46.9 -3.45 47.3 -3.05 49.55 -1.65 52.45 -3.5 53.2 -3.55 53.55 -3.2 53.7 -3.15 56.05 -1.75 58.95 -3.6 59.7 -3.65 60.1 -3.2 62.35 -1.85 65.25 -3.7 66.0 -3.8 66.4 -3.3 66.9 -3.2 69.25 -1.8 72.15 -3.65 72.9 -3.75 73.3 -3.3 75.55 -1.9 78.45 -3.75 79.2 -3.85 79.75 -3.1 79.8 -2.05 79.3 -1.25 78.05 -0.45 79.35 0.3 Q79.7 0.55 79.85 1.1 L79.9 2.15 79.35 2.9 Q78.95 3.15 78.6 2.9 L75.6 1.15 73.45 2.5 73.05 3.0 Q72.65 3.2 72.3 3.0 L69.3 1.25 67.05 2.75 66.4 2.8 66.15 2.95 Q65.75 3.15 65.4 2.95 L62.4 1.2 60.25 2.6 59.85 3.1 59.1 3.05 56.1 1.3 53.85 2.8 53.7 2.85 53.35 3.2 52.6 3.15 49.6 1.4 47.45 2.75 47.05 3.3 46.3 3.25 43.3 1.5 41.05 3.0 40.7 3.1 40.4 3.4 39.65 3.35 36.65 1.6 34.5 3.0 34.1 3.5 Q33.7 3.7 33.35 3.5 L30.35 1.7 28.1 3.2 27.45 3.25 27.25 3.45 Q26.85 3.65 26.5 3.45 L23.5 1.7 21.35 3.05 20.95 3.55 20.2 3.5 17.2 1.8 14.95 3.3 14.8 3.35 14.45 3.7 13.7 3.65 10.7 1.85 8.55 3.25 8.15 3.8 7.4 3.75 4.4 2.0 2.15 3.45 Q1.75 3.65 1.4 3.45 L0.8 2.8 Q0.65 2.25 0.75 1.7 0.9 1.15 1.35 0.85 L1.9 0.45 1.3 0.1 Q0.85 -0.1 0.7 -0.65 L0.7 -1.75 M13.9 -0.15 L13.15 0.3 13.95 0.8 14.15 0.7 14.7 0.3 14.1 -0.05 13.9 -0.15 M27.25 -0.15 L26.85 -0.5 25.95 0.1 27.05 0.75 Q27.2 0.65 27.3 0.6 L27.85 0.2 27.25 -0.15 M20.4 -0.2 L20.3 -0.25 19.65 0.15 20.35 0.6 20.45 0.55 21.0 0.15 20.4 -0.2 M39.95 -0.5 L39.1 0.0 40.0 0.6 40.25 0.45 40.8 0.0 40.2 -0.3 39.95 -0.5 M33.55 -0.25 L33.45 -0.3 32.8 0.15 33.5 0.55 33.6 0.5 34.15 0.1 33.55 -0.25 M46.4 -0.5 L45.75 -0.1 46.45 0.35 46.55 0.3 47.1 -0.15 46.5 -0.45 46.4 -0.5 M59.9 -0.3 L59.3 -0.65 59.2 -0.7 58.55 -0.3 59.25 0.15 59.35 0.1 59.9 -0.3 M52.8 -0.65 L52.05 -0.2 52.85 0.3 53.05 0.2 53.6 -0.2 53.0 -0.55 52.8 -0.65 M64.85 -0.4 L66.0 0.25 66.25 0.1 66.8 -0.25 66.2 -0.65 65.8 -1.05 64.85 -0.4 M72.5 -0.75 L72.4 -0.8 71.75 -0.35 72.45 0.05 72.55 0.0 73.1 -0.4 72.5 -0.75 M7.5 0.0 L6.85 0.4 7.55 0.85 7.65 0.8 8.2 0.35 7.6 0.05 7.5 0.0" fill="#0c100f" fill-rule="evenodd" stroke="none"/>
    <path d="M39.1 -0.15 L40.0 0.45 40.25 0.3 40.8 -0.15 45.75 -0.25 46.45 0.2 46.55 0.15 47.1 -0.3 52.05 -0.35 52.85 0.15 53.05 0.05 53.6 -0.35 58.55 -0.45 59.25 0.0 59.35 -0.05 59.9 -0.45 64.85 -0.55 66.0 0.1 66.25 -0.05 66.8 -0.4 66.5 -0.55 72.0 -0.65 71.75 -0.5 72.45 -0.1 72.55 -0.15 73.1 -0.55 72.8 -0.7 78.3 -0.75 78.05 -0.6 79.35 0.15 Q79.7 0.4 79.85 0.95 L79.9 2.0 79.35 2.75 Q78.95 3.0 78.6 2.75 L75.6 1.0 73.45 2.35 73.05 2.85 Q72.65 3.05 72.3 2.85 L69.3 1.1 67.05 2.6 66.4 2.65 66.15 2.8 Q65.75 3.0 65.4 2.8 L62.4 1.05 60.25 2.45 59.85 2.95 59.1 2.9 56.1 1.15 53.85 2.65 53.7 2.7 53.35 3.05 52.6 3.0 49.6 1.25 47.45 2.6 47.05 3.15 46.3 3.1 43.3 1.35 41.05 2.85 40.7 2.95 40.4 3.25 39.65 3.2 36.65 1.45 34.5 2.85 34.1 3.35 Q33.7 3.55 33.35 3.35 L30.35 1.55 28.1 3.05 27.45 3.1 27.25 3.3 Q26.85 3.5 26.5 3.3 L23.5 1.55 21.35 2.9 20.95 3.4 20.2 3.35 17.2 1.65 14.95 3.15 14.8 3.2 14.45 3.55 13.7 3.5 10.7 1.7 8.55 3.1 8.15 3.65 7.4 3.6 4.4 1.85 2.15 3.3 Q1.75 3.5 1.4 3.3 L0.8 2.65 Q0.65 2.1 0.75 1.55 L0.85 1.25 1.3 0.7 1.7 0.45 7.05 0.4 7.5 0.7 7.6 0.65 8.0 0.4 13.35 0.3 13.9 0.65 14.1 0.55 14.5 0.3 19.85 0.15 20.3 0.45 20.4 0.4 20.8 0.15 26.15 0.1 27.05 0.6 Q27.2 0.5 27.3 0.45 L27.85 0.05 32.8 0.0 33.5 0.4 33.6 0.35 34.15 -0.05 39.1 -0.15" fill="#4f5b56" fill-rule="evenodd" stroke="none"/>
  </g>
</svg>
