<?xml version="1.0" encoding="UTF-8" standalone="no"?>
<svg xmlns:xlink="http://www.w3.org/1999/xlink" height="8.45px" width="79.35px" xmlns="http://www.w3.org/2000/svg">
  <g transform="matrix(1.0, 0.0, 0.0, 1.0, -0.6, 4.3)">
    <path d="M2.0 -2.95 L4.55 -1.25 7.25 -3.2 Q7.6 -3.45 8.0 -3.2 L8.15 -3.15 8.3 -3.05 10.85 -1.4 13.55 -3.3 Q13.9 -3.55 14.3 -3.3 L14.4 -3.25 14.8 -3.1 17.35 -1.5 20.05 -3.45 Q20.4 -3.7 20.8 -3.45 L20.95 -3.35 21.1 -3.25 23.65 -1.55 26.35 -3.5 27.1 -3.55 27.25 -3.4 27.95 -3.35 30.5 -1.7 33.2 -3.6 33.95 -3.65 34.1 -3.55 34.25 -3.45 36.8 -1.8 39.5 -3.75 Q39.85 -3.95 40.25 -3.75 L40.35 -3.65 40.9 -3.55 43.45 -1.9 46.15 -3.85 Q46.5 -4.1 46.9 -3.85 L47.05 -3.8 47.2 -3.7 49.75 -2.0 52.45 -3.95 Q52.8 -4.2 53.2 -3.95 L53.3 -3.9 53.7 -3.75 56.25 -2.15 58.95 -4.05 Q59.35 -4.3 59.7 -4.05 L59.85 -3.95 60.0 -3.85 62.55 -2.2 65.25 -4.15 66.0 -4.2 66.45 -3.6 66.9 -3.45 69.55 -1.75 72.15 -3.6 72.75 -3.75 73.2 -3.6 75.85 -1.85 78.45 -3.7 79.2 -3.75 79.75 -2.95 79.8 -1.75 Q79.65 -1.1 79.3 -0.85 L78.4 -0.15 79.35 0.45 79.85 1.35 79.9 2.55 Q79.7 3.15 79.35 3.35 L78.6 3.4 75.9 1.6 73.35 3.4 72.9 3.5 72.3 3.5 69.6 1.7 67.05 3.55 Q66.65 3.8 66.3 3.55 L65.95 3.15 65.4 3.1 62.6 1.25 60.15 3.0 60.0 3.05 59.85 3.2 Q59.45 3.45 59.1 3.2 L56.3 1.3 53.85 3.1 53.45 3.2 53.35 3.3 Q52.95 3.55 52.6 3.3 L49.8 1.45 47.35 3.15 47.2 3.2 47.05 3.4 Q46.65 3.65 46.3 3.4 L43.5 1.55 41.05 3.3 40.5 3.4 40.4 3.5 Q40.0 3.8 39.65 3.5 L36.85 1.65 34.4 3.4 34.25 3.45 34.1 3.6 33.35 3.65 30.55 1.75 28.1 3.5 27.4 3.55 27.25 3.7 26.5 3.75 23.7 1.9 21.25 3.6 21.1 3.65 20.95 3.8 Q20.55 4.05 20.2 3.8 L17.4 1.95 14.95 3.75 14.55 3.85 14.45 3.95 Q14.05 4.2 13.7 3.95 L10.9 2.05 8.45 3.8 8.3 3.85 8.15 4.05 Q7.7 4.3 7.4 4.05 L4.6 2.2 2.15 3.9 Q1.75 4.15 1.4 3.9 L0.8 3.15 Q0.65 2.55 0.75 1.95 0.9 1.35 1.35 1.0 L2.05 0.45 1.3 -0.05 Q0.85 -0.3 0.7 -0.9 0.55 -1.5 0.7 -2.1 0.85 -2.65 1.25 -2.95 1.6 -3.2 2.0 -2.95 M27.1 -0.6 L26.15 0.1 27.15 0.7 27.3 0.6 28.0 0.05 27.25 -0.45 27.1 -0.6 M34.3 -0.05 L33.65 -0.5 33.0 0.0 33.7 0.4 34.3 -0.05 M39.3 -0.15 L40.15 0.5 40.25 0.45 40.95 -0.15 40.2 -0.6 40.1 -0.65 39.3 -0.15 M45.95 -0.25 L46.65 0.2 47.25 -0.3 46.6 -0.7 45.95 -0.25 M52.25 -0.35 L53.05 0.2 53.75 -0.35 53.0 -0.85 52.25 -0.35 M59.4 -0.9 L58.75 -0.45 59.45 0.0 60.05 -0.45 59.4 -0.9 M65.75 -1.1 L65.05 -0.55 66.15 0.15 66.4 0.5 67.1 0.05 66.2 -0.6 65.75 -1.1 M72.1 -0.05 L72.75 0.35 73.4 -0.1 72.7 -0.55 72.1 -0.05 M20.55 0.6 L21.15 0.15 20.5 -0.3 19.85 0.15 20.55 0.6 M14.15 0.85 L14.85 0.3 14.1 -0.2 13.35 0.3 14.15 0.85 M7.05 0.4 L7.75 0.85 8.35 0.35 7.7 -0.05 7.05 0.4" fill="#0c100f" fill-rule="evenodd" stroke="none"/>
    <path d="M53.0 -0.05 L53.05 -0.1 65.75 -0.35 66.15 -0.1 66.4 0.25 67.05 -0.2 66.9 -0.3 72.2 -0.4 72.05 -0.3 72.75 0.1 73.35 -0.35 73.2 -0.45 78.5 -0.5 78.35 -0.4 79.35 0.2 79.85 1.1 79.9 2.3 Q79.7 2.9 79.35 3.1 L78.6 3.15 75.9 1.35 73.35 3.15 72.9 3.25 72.3 3.25 69.6 1.45 67.05 3.3 Q66.65 3.55 66.3 3.3 L65.95 2.9 65.4 2.85 62.6 1.0 60.15 2.75 60.0 2.8 59.85 2.95 Q59.45 3.2 59.1 2.95 L56.3 1.05 53.85 2.85 53.45 2.95 53.35 3.05 Q52.95 3.3 52.6 3.05 L49.8 1.2 47.35 2.9 47.2 2.95 47.05 3.15 Q46.65 3.4 46.3 3.15 L43.5 1.3 41.05 3.05 40.5 3.15 40.4 3.25 Q40.0 3.55 39.65 3.25 L36.85 1.4 34.4 3.15 34.25 3.2 34.1 3.35 33.35 3.4 30.55 1.5 28.1 3.25 27.4 3.3 27.25 3.45 26.5 3.5 23.7 1.65 21.25 3.35 21.1 3.4 20.95 3.55 Q20.55 3.8 20.2 3.55 L17.4 1.7 14.95 3.5 14.55 3.6 14.45 3.7 Q14.05 3.95 13.7 3.7 L10.9 1.8 8.45 3.55 8.3 3.6 8.15 3.8 Q7.75 4.05 7.4 3.8 L4.6 1.95 2.15 3.65 Q1.75 3.9 1.4 3.65 L0.8 2.9 Q0.65 2.3 0.75 1.7 0.9 1.1 1.3 0.75 L1.35 0.7 14.0 0.55 14.1 0.6 14.15 0.55 26.85 0.3 27.15 0.45 27.25 0.35 27.3 0.3 39.95 0.15 40.1 0.25 40.2 0.2 40.25 0.1 52.9 -0.1 53.0 -0.05" fill="#4f5b56" fill-rule="evenodd" stroke="none"/>
  </g>
</svg>
