<?xml version="1.0" encoding="UTF-8" standalone="no"?>
<svg xmlns:xlink="http://www.w3.org/1999/xlink" height="7.7px" width="76.05px" xmlns="http://www.w3.org/2000/svg">
  <g transform="matrix(1.0, 0.0, 0.0, 1.0, -1.1, 3.85)">
    <path d="M1.15 -1.75 Q1.3 -2.3 1.7 -2.5 2.05 -2.7 2.4 -2.5 L4.65 -1.05 7.45 -2.9 8.15 -3.0 8.6 -2.5 10.7 -1.2 13.5 -3.0 14.2 -3.05 14.55 -2.75 14.75 -2.65 17.0 -1.25 19.8 -3.15 20.5 -3.2 20.95 -2.75 23.1 -1.35 25.9 -3.2 26.6 -3.3 27.05 -2.85 27.3 -2.75 29.55 -1.35 32.35 -3.15 33.05 -3.2 33.45 -2.85 35.7 -1.45 38.5 -3.3 39.2 -3.35 39.55 -3.05 39.8 -2.9 42.05 -1.5 44.85 -3.4 45.55 -3.45 46.0 -2.95 48.1 -1.65 50.9 -3.45 51.6 -3.5 52.0 -3.15 54.25 -1.75 57.05 -3.6 Q57.4 -3.85 57.75 -3.6 L58.15 -3.25 58.2 -3.2 60.45 -1.8 63.25 -3.7 63.95 -3.75 64.4 -3.25 65.1 -3.2 67.4 -1.75 70.15 -3.65 70.85 -3.7 71.4 -2.95 71.45 -2.75 72.85 -1.9 75.65 -3.7 76.35 -3.75 76.9 -3.05 76.95 -2.0 Q76.8 -1.4 76.45 -1.15 L75.25 -0.4 76.5 0.4 77.0 1.15 77.05 2.2 76.5 3.0 75.8 2.95 72.9 1.15 71.6 2.1 71.55 2.3 71.0 3.05 70.3 3.0 67.45 1.3 65.25 2.75 Q64.9 2.95 64.55 2.75 L64.45 2.7 64.1 3.0 63.4 2.95 60.5 1.25 58.35 2.75 58.3 2.75 57.9 3.15 57.2 3.05 54.3 1.3 52.15 2.8 51.75 3.25 51.05 3.2 48.15 1.4 46.15 2.8 45.7 3.3 45.0 3.25 42.1 1.55 39.95 3.05 39.7 3.1 39.35 3.4 38.65 3.35 35.75 1.6 33.6 3.1 33.2 3.55 32.5 3.5 29.6 1.7 27.45 3.2 26.95 3.3 26.75 3.45 Q26.4 3.7 26.05 3.45 L23.15 1.7 21.1 3.1 20.65 3.55 19.95 3.5 17.05 1.8 14.9 3.3 14.7 3.35 14.35 3.7 13.65 3.65 10.75 1.85 8.75 3.25 8.3 3.75 Q7.95 4.0 7.6 3.75 L4.7 2.0 2.55 3.45 Q2.2 3.65 1.85 3.45 L1.25 2.8 Q1.1 2.25 1.25 1.7 1.4 1.1 1.75 0.85 L2.25 0.45 1.7 0.1 Q1.35 -0.15 1.2 -0.65 L1.15 -1.75 M20.05 -0.25 L19.4 0.2 20.1 0.6 20.2 0.55 20.7 0.15 20.15 -0.2 20.05 -0.25 M13.9 -0.2 L13.1 0.25 13.95 0.8 14.1 0.7 14.6 0.3 14.05 -0.05 13.9 -0.2 M26.6 -0.15 L26.3 -0.4 25.5 0.1 26.5 0.75 26.65 0.6 27.15 0.2 26.6 -0.15 M32.65 -0.3 L31.95 0.15 32.7 0.6 32.8 0.55 33.3 0.15 32.75 -0.2 32.65 -0.3 M39.1 -0.35 L38.9 -0.5 38.1 0.0 38.95 0.55 39.15 0.4 39.65 0.0 39.1 -0.35 M45.15 -0.45 L45.1 -0.5 44.45 -0.05 45.15 0.35 45.2 0.3 45.7 -0.1 45.15 -0.45 M51.3 -0.5 L51.2 -0.6 50.5 -0.15 51.25 0.3 51.35 0.25 51.85 -0.2 51.3 -0.5 M57.5 -0.6 L57.35 -0.75 56.65 -0.3 57.4 0.2 57.55 0.15 58.05 -0.25 57.5 -0.6 M64.0 -1.15 L62.85 -0.35 64.1 0.4 64.15 0.45 64.45 0.15 65.0 -0.25 64.4 -0.6 64.0 -1.15 M70.45 -0.35 L70.1 -0.55 69.75 -0.3 70.15 -0.1 70.45 -0.35 M7.7 0.0 L7.05 0.4 7.75 0.85 7.8 0.8 8.3 0.35 7.75 0.05 7.7 0.0" fill="#0c100f" fill-rule="evenodd" stroke="none"/>
    <path d="M69.75 -0.45 L70.2 -0.25 70.55 -0.5 75.3 -0.55 76.55 0.25 77.05 1.0 77.1 2.05 76.55 2.85 75.85 2.8 73.0 1.0 71.6 1.95 71.6 2.15 71.05 2.9 70.35 2.85 67.45 1.15 65.3 2.6 Q64.95 2.8 64.6 2.6 L64.5 2.55 64.15 2.85 63.45 2.8 60.6 1.1 58.4 2.6 58.35 2.6 57.95 3.0 57.25 2.9 54.4 1.15 52.2 2.65 51.8 3.05 Q51.45 3.3 51.1 3.05 L48.2 1.25 46.2 2.65 45.75 3.15 45.05 3.1 42.15 1.4 40.0 2.9 39.75 3.0 39.4 3.25 38.7 3.2 35.85 1.45 33.65 2.95 33.25 3.4 32.55 3.35 29.7 1.55 27.5 3.05 27.0 3.15 26.8 3.3 Q26.45 3.55 26.1 3.3 L23.2 1.55 21.15 2.95 20.7 3.4 20.0 3.35 17.15 1.65 14.95 3.15 14.75 3.2 14.4 3.55 13.7 3.5 10.8 1.7 8.8 3.1 8.35 3.6 Q8.0 3.85 7.65 3.6 L4.75 1.85 2.6 3.3 Q2.25 3.5 1.9 3.3 1.45 3.1 1.3 2.6 1.15 2.1 1.3 1.5 1.45 0.95 1.75 0.7 L1.9 0.6 7.5 0.55 7.75 0.7 7.8 0.65 7.95 0.55 13.6 0.45 13.95 0.65 14.1 0.55 14.25 0.45 19.9 0.3 20.1 0.45 20.2 0.4 20.35 0.3 25.95 0.25 26.55 0.55 26.7 0.45 27.05 0.2 32.2 0.15 32.75 0.45 32.85 0.4 33.2 0.15 38.35 0.0 39.0 0.4 39.2 0.25 39.5 0.0 44.7 -0.05 45.2 0.2 45.25 0.15 45.55 -0.1 50.75 -0.15 51.3 0.15 51.4 0.1 51.75 -0.2 56.9 -0.3 57.45 0.1 57.6 0.0 57.95 -0.25 63.1 -0.35 64.15 0.25 64.2 0.3 64.5 0.0 65.0 -0.4 69.75 -0.45" fill="#4f5b56" fill-rule="evenodd" stroke="none"/>
  </g>
</svg>
