<?xml version="1.0" encoding="UTF-8" standalone="no"?>
<svg xmlns:xlink="http://www.w3.org/1999/xlink" height="105.0px" width="89.7px" xmlns="http://www.w3.org/2000/svg">
  <g transform="matrix(1.0, 0.0, 0.0, 1.0, 0.0, 0.0)">
    <path d="M19.6 63.55 Q21.3 63.4 22.15 65.4 23.0 67.35 22.1 67.4 L17.45 66.85 12.75 65.95 8.85 66.15 Q6.5 66.75 5.35 68.3 3.8 70.4 4.25 72.45 4.7 74.85 7.65 76.1 8.2 76.3 8.15 77.65 8.15 79.05 7.3 78.75 L4.05 77.4 Q0.3 75.8 0.0 71.45 -0.25 67.15 3.15 64.85 6.35 62.75 11.25 63.05 L19.6 63.55" fill="#002f40" fill-rule="evenodd" stroke="none"/>
    <path d="M16.5 104.95 L11.15 104.45 Q7.55 103.5 4.8 100.15 1.7 96.35 5.6 94.2 7.05 93.4 8.0 94.4 8.9 95.4 7.25 96.3 6.8 96.55 8.3 98.4 L10.15 100.35 Q12.5 102.1 15.85 102.25 L19.75 102.0 Q21.75 101.55 23.2 100.3 L26.7 95.9 Q29.3 92.35 30.35 91.6 L31.7 93.95 Q32.9 93.15 32.65 94.7 32.4 96.2 30.85 97.25 L26.55 101.05 Q24.0 103.45 21.8 104.1 L16.5 104.95" fill="#002f40" fill-rule="evenodd" stroke="none"/>
    <path d="M21.75 12.6 Q18.3 8.05 16.5 6.55 14.35 4.7 10.8 3.6 6.3 2.2 5.85 5.1 5.65 6.35 3.7 6.6 1.8 6.8 2.0 5.45 2.65 1.3 7.5 0.7 11.4 0.2 15.4 1.85 19.1 3.4 23.2 8.6 27.85 14.5 30.25 16.15 31.55 17.0 29.95 18.05 28.35 19.05 27.3 18.35 24.85 16.7 21.75 12.6" fill="#002f40" fill-rule="evenodd" stroke="none"/>
    <path d="M70.15 62.9 L78.55 62.4 Q83.4 62.1 86.6 64.25 90.0 66.5 89.7 70.85 89.4 75.2 85.7 76.8 L82.4 78.15 Q81.6 78.45 81.6 77.05 81.6 75.7 82.1 75.5 85.05 74.2 85.5 71.85 85.9 69.8 84.35 67.7 83.2 66.1 80.9 65.55 L76.95 65.3 72.3 66.2 67.65 66.8 Q66.75 66.7 67.6 64.75 68.45 62.8 70.15 62.9" fill="#002f40" fill-rule="evenodd" stroke="none"/>
    <path d="M58.5 93.3 L59.9 91.0 Q60.95 91.7 63.55 95.25 L67.05 99.65 Q68.5 100.9 70.5 101.35 L74.35 101.6 Q77.75 101.5 80.05 99.7 83.75 96.1 83.0 95.65 81.3 94.75 82.25 93.8 83.15 92.8 84.6 93.6 88.5 95.75 85.4 99.55 82.7 102.85 79.05 103.8 L73.75 104.35 68.45 103.5 Q66.25 102.8 63.65 100.45 L59.35 96.65 Q57.85 95.6 57.6 94.1 57.35 92.55 58.5 93.3" fill="#002f40" fill-rule="evenodd" stroke="none"/>
    <path d="M84.35 4.45 Q83.9 1.6 79.4 3.0 75.9 4.05 73.7 5.9 71.9 7.45 68.5 12.0 65.4 16.05 62.95 17.75 61.9 18.45 60.3 17.45 58.7 16.4 59.95 15.55 62.4 13.9 67.05 7.95 71.15 2.8 74.85 1.25 78.8 -0.4 82.75 0.1 87.6 0.7 88.25 4.8 88.45 6.2 86.55 6.0 84.6 5.75 84.35 4.45" fill="#002f40" fill-rule="evenodd" stroke="none"/>
  </g>
</svg>
