<?xml version="1.0" encoding="UTF-8" standalone="no"?>
<svg xmlns:xlink="http://www.w3.org/1999/xlink" height="40.5px" width="40.45px" xmlns="http://www.w3.org/2000/svg">
  <g transform="matrix(1.0, 0.0, 0.0, 1.0, 0.5, 0.5)">
    <path d="M33.8 5.1 Q34.55 4.95 35.05 5.75 35.75 5.85 36.45 6.7 38.15 8.8 37.15 10.65 35.95 12.9 36.35 14.1 L38.55 16.65 Q39.85 17.95 39.25 18.95 38.75 20.1 37.15 20.9 35.8 21.55 35.45 23.1 35.0 24.8 36.15 25.85 37.6 27.2 37.85 28.5 38.0 29.8 36.95 30.75 36.05 31.5 34.85 31.65 L31.05 31.6 Q28.95 31.55 27.4 32.45 25.7 33.45 26.9 34.95 28.3 36.75 27.75 37.6 L26.65 38.85 19.3 39.3 Q14.25 38.65 10.1 35.55 L9.65 36.35 8.25 36.3 Q7.65 35.2 7.5 33.9 L7.2 33.65 6.0 32.65 Q2.2 29.65 0.75 24.95 -0.3 21.75 0.1 18.2 L1.15 16.9 3.75 17.05 4.05 17.15 Q5.4 17.55 6.05 15.9 6.7 14.3 6.35 12.45 L5.75 9.05 Q5.7 7.9 6.35 6.9 7.1 5.7 8.3 5.5 L8.95 5.5 Q10.25 5.55 11.8 6.6 L11.95 6.7 Q12.75 6.75 13.7 6.25 15.1 5.55 15.55 4.15 16.1 2.55 17.1 1.75 L19.35 1.85 19.4 1.9 20.5 2.35 21.45 2.95 22.05 3.1 Q23.6 3.2 24.8 1.4 25.95 -0.25 27.1 0.05 28.45 0.4 28.85 1.05 31.25 1.85 30.95 3.35 30.7 4.8 30.95 5.65 L32.25 5.75 33.8 5.1 Z" fill="none" stroke="#002837" stroke-linecap="round" stroke-linejoin="round" stroke-width="1.0"/>
    <path d="M28.75 1.0 Q31.25 1.8 30.95 3.35 30.6 5.4 31.2 6.25 31.65 6.95 32.6 6.75 33.0 6.7 34.1 5.85 35.3 5.3 36.45 6.7 38.15 8.8 37.15 10.65 35.95 12.9 36.35 14.1 L38.55 16.65 Q39.85 17.95 39.25 18.95 38.75 20.1 37.15 20.9 35.8 21.55 35.45 23.1 35.0 24.8 36.15 25.85 37.6 27.2 37.85 28.5 38.0 29.8 36.95 30.75 36.05 31.5 34.85 31.65 L31.05 31.6 Q28.95 31.55 27.4 32.45 25.7 33.45 26.9 34.95 28.3 36.75 27.75 37.6 L26.65 38.85 19.3 39.3 Q13.9 38.6 9.5 35.1 L8.15 34.0 Q3.8 30.6 1.9 25.55 0.6 21.9 0.8 18.4 1.1 17.65 1.8 17.1 2.55 16.45 4.65 17.4 6.4 18.2 7.05 16.35 7.65 14.7 7.15 12.7 L6.25 9.05 Q6.1 7.9 6.75 6.85 7.45 5.65 8.75 5.5 10.1 5.45 11.8 6.6 L14.7 6.65 Q16.15 6.0 16.55 4.55 17.0 2.9 18.05 2.15 18.9 1.4 20.5 2.35 22.7 3.75 23.5 3.9 25.2 4.1 26.4 2.25 27.5 0.6 28.75 1.0" fill="#002f40" fill-rule="evenodd" stroke="none"/>
    <path d="M29.0 2.15 Q28.55 4.05 30.0 5.1 31.15 6.0 32.25 5.75 L33.8 5.1 Q34.9 4.9 35.35 6.55 35.65 7.65 34.3 9.1 32.95 10.55 33.35 12.05 33.6 12.75 35.15 14.35 36.3 15.5 35.75 16.5 35.2 17.65 33.7 18.45 32.4 19.2 31.95 20.65 31.4 22.35 32.4 23.25 33.7 24.5 33.85 25.7 33.9 26.9 32.85 27.85 31.95 28.7 30.85 28.85 L27.3 29.0 Q25.4 29.05 23.9 30.05 22.25 31.1 23.25 32.45 24.5 34.1 23.95 34.95 L22.85 36.2 Q19.4 37.25 16.0 37.05 11.1 36.65 7.2 33.65 L6.0 32.65 Q2.2 29.65 0.75 24.95 -0.3 21.75 0.1 18.2 L1.15 16.9 3.75 17.05 Q5.35 17.7 6.05 15.9 6.7 14.3 6.35 12.45 L5.75 9.05 Q5.7 7.9 6.35 6.9 7.1 5.7 8.3 5.5 9.55 5.35 11.0 6.35 L13.7 6.25 Q15.1 5.55 15.55 4.15 16.1 2.55 17.1 1.75 L19.35 1.85 Q21.3 3.0 22.05 3.1 23.6 3.2 24.8 1.4 25.95 -0.25 27.1 0.05 28.45 0.4 28.85 1.05 29.15 1.45 29.0 2.15" fill="#00435b" fill-rule="evenodd" stroke="none"/>
    <path d="M25.55 14.75 Q24.65 15.7 24.9 16.7 L26.1 18.25 Q26.85 19.0 26.45 19.6 26.1 20.35 25.1 20.9 24.25 21.35 24.0 22.35 23.65 23.45 24.3 24.05 25.15 24.8 25.25 25.6 25.3 26.4 24.6 27.05 24.0 27.55 23.25 27.7 L20.95 27.8 Q19.7 27.85 18.75 28.45 17.7 29.15 18.35 30.05 19.1 31.1 18.75 31.65 L18.05 32.5 13.55 33.05 Q10.25 32.75 7.8 30.8 L7.0 30.2 Q4.55 28.2 3.6 25.15 2.9 23.0 3.2 20.75 3.45 20.2 3.85 19.9 L5.55 19.95 Q6.6 20.4 7.05 19.25 7.5 18.2 7.3 16.95 L6.9 14.75 Q6.85 14.0 7.3 13.3 7.75 12.55 8.55 12.4 9.35 12.35 10.35 13.0 L12.1 12.9 Q13.0 12.45 13.3 11.55 13.65 10.5 14.3 9.95 L15.75 10.05 Q17.0 10.8 17.5 10.85 18.55 10.9 19.35 9.7 20.1 8.65 20.8 8.85 22.35 9.25 22.05 10.2 21.8 11.45 22.7 12.15 23.5 12.75 24.2 12.55 L25.2 12.15 Q25.9 12.05 26.2 13.1 26.4 13.85 25.55 14.75" fill="#005370" fill-rule="evenodd" stroke="none"/>
    <path d="M8.65 27.75 Q9.3 24.85 11.0 21.6 14.45 15.05 19.8 13.1 L15.95 17.9 Q11.95 24.1 11.05 31.15 10.55 35.05 9.65 36.35 L8.25 36.3 Q6.45 33.1 8.65 27.75" fill="#002f40" fill-rule="evenodd" stroke="none"/>
  </g>
</svg>
