<?xml version="1.0" encoding="UTF-8" standalone="no"?>
<svg xmlns:xlink="http://www.w3.org/1999/xlink" height="37.3px" width="37.45px" xmlns="http://www.w3.org/2000/svg">
  <g transform="matrix(1.0, 0.0, 0.0, 1.0, 7.8, 79.45)">
    <path d="M11.6 -77.45 L11.6 -74.45 Q14.2 -74.45 16.4 -73.5 L16.55 -73.45 17.75 -76.4 Q20.6 -75.2 22.95 -72.9 L22.9 -72.85 22.5 -71.2 21.3 -70.05 Q22.75 -68.5 23.5 -66.65 L26.45 -67.85 Q27.65 -65.1 27.65 -61.85 L27.65 -60.6 24.85 -60.6 Q24.85 -58.55 24.45 -56.9 L24.4 -56.6 Q25.45 -56.2 26.45 -55.85 L26.45 -55.75 26.45 -54.3 Q25.65 -52.4 24.4 -50.75 L23.75 -50.0 22.75 -48.95 20.85 -50.9 20.75 -50.75 20.65 -50.65 Q19.05 -49.2 17.4 -48.3 L17.75 -47.25 17.35 -45.5 17.4 -45.4 Q15.1 -44.4 12.55 -44.25 L11.8 -44.15 10.95 -44.15 10.95 -46.75 10.8 -46.75 Q8.05 -46.75 5.6 -47.65 L5.45 -47.25 4.5 -45.35 Q1.6 -46.6 -0.9 -48.9 L-0.75 -49.0 0.35 -50.7 0.65 -51.05 Q-0.2 -51.85 -0.85 -52.85 -1.65 -54.0 -2.1 -55.2 L-2.1 -55.25 -2.15 -55.25 -4.5 -54.3 -4.6 -54.3 Q-5.8 -57.1 -5.8 -60.5 L-5.8 -60.6 -5.75 -60.6 -4.45 -61.85 -3.05 -61.85 -2.95 -62.8 Q-2.75 -64.15 -2.15 -65.45 L-2.1 -65.75 -2.1 -65.85 -4.6 -66.85 -4.6 -66.9 -4.2 -67.8 -3.9 -68.3 Q-2.8 -70.3 -1.0 -72.1 L-0.95 -72.2 -0.9 -72.2 0.15 -72.85 0.3 -72.9 0.35 -72.9 2.1 -71.2 Q3.65 -72.45 5.4 -73.15 L5.6 -73.2 4.6 -75.4 5.45 -76.4 Q8.3 -77.45 11.6 -77.45 M14.0 -62.95 L12.45 -64.0 10.65 -64.35 8.75 -64.0 Q7.9 -63.65 7.2 -62.95 L6.9 -62.6 6.85 -61.85 6.95 -60.6 7.15 -60.0 7.6 -59.15 8.25 -58.45 Q8.9 -57.7 9.8 -57.4 L11.6 -57.1 11.9 -57.1 13.45 -57.45 Q14.35 -57.8 15.0 -58.45 L15.4 -58.85 15.4 -59.65 15.05 -61.5 15.0 -61.6 14.0 -62.95" fill="#b1c4cb" fill-rule="evenodd" stroke="none"/>
    <path d="M11.6 -77.45 L11.6 -74.45 Q14.2 -74.45 16.4 -73.5 L16.55 -73.45 17.75 -76.4 Q20.6 -75.2 22.95 -72.9 L22.9 -72.85 22.5 -71.2 21.3 -70.05 Q22.75 -68.5 23.5 -66.65 L26.45 -67.85 Q27.65 -65.1 27.65 -61.85 L27.65 -60.6 24.85 -60.6 Q24.85 -58.55 24.45 -56.9 L24.4 -56.6 Q25.45 -56.2 26.45 -55.85 L26.45 -55.75 26.45 -54.3 Q25.65 -52.4 24.4 -50.75 L23.75 -50.0 22.75 -48.95 20.85 -50.9 20.75 -50.75 20.65 -50.65 Q19.05 -49.2 17.4 -48.3 L17.75 -47.25 17.35 -45.5 17.4 -45.4 Q15.1 -44.4 12.55 -44.25 L11.8 -44.15 10.95 -44.15 10.95 -46.75 10.8 -46.75 Q8.05 -46.75 5.6 -47.65 L5.45 -47.25 4.5 -45.35 Q1.6 -46.6 -0.9 -48.9 L-0.75 -49.0 0.35 -50.7 0.65 -51.05 Q-0.2 -51.85 -0.85 -52.85 -1.65 -54.0 -2.1 -55.2 L-2.1 -55.25 -2.15 -55.25 -4.5 -54.3 -4.6 -54.3 Q-5.8 -57.1 -5.8 -60.5 L-5.8 -60.6 -5.75 -60.6 -4.45 -61.85 -3.05 -61.85 -2.95 -62.8 Q-2.75 -64.15 -2.15 -65.45 L-2.1 -65.75 -2.1 -65.85 -4.6 -66.85 -4.6 -66.9 -4.2 -67.8 -3.9 -68.3 Q-2.8 -70.3 -1.0 -72.1 L-0.95 -72.2 -0.9 -72.2 0.15 -72.85 0.3 -72.9 0.35 -72.9 2.1 -71.2 Q3.65 -72.45 5.4 -73.15 L5.6 -73.2 4.6 -75.4 5.45 -76.4 Q8.3 -77.45 11.6 -77.45 M14.0 -62.95 L15.0 -61.6 15.05 -61.5 15.4 -59.65 15.4 -58.85 15.0 -58.45 Q14.35 -57.8 13.45 -57.45 L11.9 -57.1 11.6 -57.1 9.8 -57.4 Q8.9 -57.7 8.25 -58.45 L7.6 -59.15 7.15 -60.0 6.95 -60.6 6.85 -61.85 6.9 -62.6 7.2 -62.95 Q7.9 -63.65 8.75 -64.0 L10.65 -64.35 12.45 -64.0 14.0 -62.95" fill="none" stroke="#005c8e" stroke-linecap="round" stroke-linejoin="round" stroke-width="4.0"/>
    <path d="M5.6 -73.2 L4.6 -75.4 5.45 -76.4 6.7 -73.45 6.7 -73.4 5.6 -73.2 M27.65 -61.85 L27.65 -60.6 24.85 -60.6 24.4 -61.75 24.4 -61.85 27.65 -61.85 M22.75 -48.95 L20.85 -50.9 20.7 -52.9 20.7 -53.0 22.9 -50.75 22.75 -48.95 M10.95 -44.15 L10.95 -46.7 10.8 -46.7 11.6 -49.2 11.6 -46.15 10.95 -44.15 M5.45 -47.25 L4.5 -45.35 Q1.6 -46.55 -0.9 -48.9 L-0.75 -49.0 0.35 -50.7 0.6 -50.4 Q2.75 -48.4 5.45 -47.25 M-2.1 -55.2 L-2.1 -55.25 -2.15 -55.25 -4.5 -54.2 -3.3 -55.8 -0.25 -57.05 -2.1 -55.2 M-2.1 -65.8 L-4.6 -66.85 -4.6 -66.9 -3.2 -67.8 -0.25 -66.65 -2.1 -65.8" fill="#516870" fill-rule="evenodd" stroke="none"/>
    <path d="M5.45 -76.4 Q8.3 -77.45 11.6 -77.45 L11.6 -74.4 Q14.2 -74.4 16.4 -73.5 L16.55 -73.45 17.75 -76.4 Q20.6 -75.2 22.95 -72.9 L22.9 -72.8 20.7 -70.65 21.0 -70.35 21.3 -70.05 Q22.75 -68.5 23.5 -66.65 L26.45 -67.85 Q27.65 -65.1 27.65 -61.85 L24.4 -61.85 24.4 -61.75 24.4 -61.6 Q21.55 -62.5 18.5 -62.15 L16.95 -61.95 16.65 -63.4 Q16.2 -64.45 15.35 -65.25 L13.6 -66.5 11.4 -66.9 9.25 -66.5 Q8.25 -66.1 7.4 -65.25 L7.35 -65.25 Q6.6 -64.45 6.15 -63.4 L5.8 -62.3 5.75 -61.4 5.8 -60.6 Q2.4 -60.6 0.0 -63.05 L-0.4 -63.4 -1.0 -64.2 -1.0 -64.25 -0.5 -66.1 -0.25 -66.65 -3.2 -67.8 -3.3 -67.85 -3.2 -67.85 -2.8 -68.75 -0.65 -71.95 0.15 -72.8 0.3 -72.9 0.35 -72.9 2.1 -71.15 2.55 -70.65 3.05 -71.1 Q4.25 -72.25 5.7 -72.95 L6.1 -73.15 6.7 -73.4 6.7 -73.45 5.45 -76.4" fill="#bbd4de" fill-rule="evenodd" stroke="none"/>
    <path d="M15.4 -58.85 L15.4 -59.65 15.05 -61.5 15.0 -61.6 14.0 -62.95 12.45 -64.0 10.65 -64.35 8.75 -64.0 Q7.9 -63.6 7.2 -62.95 L6.9 -62.6 7.15 -63.55 8.25 -65.2 Q8.9 -65.85 9.8 -66.15 L11.6 -66.6 13.45 -66.15 Q14.35 -65.85 15.0 -65.2 L16.05 -63.55 Q16.45 -62.8 16.45 -61.85 16.45 -60.8 16.05 -60.0 L15.4 -58.85" fill="#83979f" fill-rule="evenodd" stroke="none"/>
    <path d="M15.4 -58.85 L16.05 -60.0 Q16.45 -60.8 16.45 -61.85 16.45 -62.8 16.05 -63.55 L15.0 -65.2 Q14.35 -65.85 13.45 -66.15 L11.6 -66.6 9.8 -66.15 Q8.9 -65.85 8.25 -65.2 L7.15 -63.55 6.9 -62.6 6.85 -61.85 6.95 -60.6 7.15 -60.0 7.6 -59.15 8.25 -58.45 Q8.9 -57.7 9.8 -57.4 L11.6 -57.1 11.9 -57.1 13.45 -57.45 Q14.35 -57.8 15.0 -58.45 L15.4 -58.85 M5.8 -60.6 L5.75 -61.4 5.8 -62.3 6.15 -63.4 Q6.6 -64.45 7.35 -65.25 L7.4 -65.25 Q8.25 -66.1 9.25 -66.5 L11.4 -66.9 13.6 -66.5 15.35 -65.25 Q16.2 -64.45 16.65 -63.4 L16.95 -61.95 17.0 -61.4 Q17.0 -60.2 16.65 -59.2 L15.8 -57.85 15.35 -57.4 13.65 -56.25 11.7 -55.8 11.4 -55.8 9.25 -56.15 Q8.25 -56.55 7.35 -57.4 L6.7 -58.25 6.15 -59.2 5.8 -60.6" fill="#d5eef7" fill-rule="evenodd" stroke="none"/>
    <path d="M24.4 -56.6 Q25.45 -56.2 26.45 -55.85 L26.45 -55.8 25.9 -54.55 25.2 -53.35 22.95 -50.75 22.9 -50.75 20.7 -53.0 20.7 -52.9 Q18.85 -51.1 16.55 -50.15 L17.4 -48.2 17.75 -47.25 16.75 -46.85 16.25 -46.7 11.6 -46.15 11.6 -49.2 Q9.0 -49.2 6.7 -50.15 L5.6 -47.65 5.45 -47.25 Q2.75 -48.4 0.6 -50.4 L0.35 -50.7 0.65 -51.0 2.55 -53.0 Q1.1 -54.3 0.2 -55.9 L-0.25 -57.05 -3.3 -55.8 -3.85 -57.4 -4.4 -60.6 -4.45 -61.85 -3.05 -61.85 -1.2 -61.85 -1.0 -64.2 -0.4 -63.4 0.0 -63.05 Q2.4 -60.6 5.8 -60.6 L6.15 -59.2 6.7 -58.25 7.35 -57.4 Q8.25 -56.55 9.25 -56.15 L11.4 -55.8 11.7 -55.8 13.65 -56.25 15.35 -57.4 15.8 -57.85 16.65 -59.2 Q17.0 -60.2 17.0 -61.4 L16.95 -61.95 18.5 -62.15 Q21.55 -62.5 24.4 -61.6 L24.4 -60.7 24.4 -60.6 24.35 -59.9 23.95 -58.25 23.55 -57.05 24.4 -56.6" fill="#b1c4cb" fill-rule="evenodd" stroke="none"/>
    <path d="M22.9 -72.8 L22.5 -71.15 21.3 -70.05 21.0 -70.35 20.7 -70.65 22.9 -72.8 M24.85 -60.6 L24.85 -60.55 Q24.85 -58.55 24.45 -56.9 L24.4 -56.6 23.55 -57.05 23.95 -58.25 24.35 -59.9 24.4 -60.6 24.4 -60.7 24.4 -61.6 24.4 -61.75 24.85 -60.6 M26.45 -55.8 L26.45 -54.3 Q25.65 -52.4 24.4 -50.75 L23.75 -50.0 22.75 -48.95 22.9 -50.75 22.95 -50.75 25.2 -53.35 25.9 -54.55 26.45 -55.8 M20.85 -50.9 L20.85 -50.8 20.75 -50.75 20.65 -50.6 Q19.05 -49.2 17.4 -48.2 L16.55 -50.15 Q18.85 -51.1 20.7 -52.9 L20.85 -50.9 M17.75 -47.25 L17.35 -45.5 17.4 -45.4 Q15.1 -44.4 12.55 -44.25 L11.8 -44.15 10.95 -44.15 11.6 -46.15 16.25 -46.7 16.75 -46.85 17.75 -47.25 M10.8 -46.7 Q8.05 -46.7 5.6 -47.65 L6.7 -50.15 Q9.0 -49.2 11.6 -49.2 L10.8 -46.7 M0.65 -51.0 Q-0.2 -51.85 -0.85 -52.85 -1.65 -54.0 -2.1 -55.2 L-0.25 -57.05 0.2 -55.9 Q1.1 -54.3 2.55 -53.0 L0.65 -51.0 M-4.5 -54.2 L-4.6 -54.2 Q-5.8 -57.1 -5.8 -60.5 L-5.8 -60.6 -5.75 -60.6 -4.45 -61.85 -4.4 -60.6 -3.85 -57.4 -3.3 -55.8 -4.5 -54.2 M-3.05 -61.85 L-2.95 -62.8 Q-2.75 -64.15 -2.15 -65.45 L-2.1 -65.75 -2.1 -65.8 -0.25 -66.65 -0.5 -66.1 -1.0 -64.25 -1.0 -64.2 -1.2 -61.85 -3.05 -61.85 M-4.6 -66.9 L-4.2 -67.8 -3.9 -68.25 Q-2.8 -70.25 -1.0 -72.1 L-0.95 -72.15 -0.9 -72.15 0.15 -72.8 -0.65 -71.95 -2.8 -68.75 -3.2 -67.85 -3.3 -67.85 -3.2 -67.8 -4.6 -66.9 M2.1 -71.15 Q3.65 -72.45 5.4 -73.15 L5.6 -73.2 6.7 -73.4 6.1 -73.15 5.7 -72.95 Q4.25 -72.25 3.05 -71.1 L2.55 -70.65 2.1 -71.15" fill="#6f8891" fill-rule="evenodd" stroke="none"/>
  </g>
</svg>
