<?xml version="1.0" encoding="UTF-8" standalone="no"?>
<svg xmlns:xlink="http://www.w3.org/1999/xlink" height="40.5px" width="40.45px" xmlns="http://www.w3.org/2000/svg">
  <g transform="matrix(1.0, 0.0, 0.0, 1.0, 0.5, 0.5)">
    <path d="M30.5 5.5 Q29.2 5.55 27.65 6.6 L27.5 6.7 Q26.7 6.75 25.75 6.25 24.35 5.55 23.9 4.15 23.35 2.55 22.35 1.75 L20.1 1.85 20.05 1.9 18.95 2.35 18.0 2.95 17.4 3.1 Q15.85 3.2 14.65 1.4 13.5 -0.25 12.35 0.05 11.0 0.4 10.6 1.05 8.2 1.85 8.5 3.35 8.75 4.8 8.5 5.65 L7.2 5.75 5.65 5.1 Q4.9 4.95 4.4 5.75 3.7 5.85 3.0 6.7 1.3 8.8 2.3 10.65 3.5 12.9 3.1 14.1 2.8 14.8 0.9 16.65 -0.4 17.95 0.2 18.95 0.7 20.1 2.3 20.9 3.65 21.55 4.0 23.1 4.45 24.8 3.3 25.85 1.85 27.2 1.6 28.5 1.45 29.8 2.5 30.75 3.4 31.5 4.6 31.65 L8.4 31.6 Q10.5 31.55 12.05 32.45 13.75 33.45 12.55 34.95 11.15 36.75 11.7 37.6 L12.8 38.85 20.15 39.3 Q25.2 38.65 29.35 35.55 L29.8 36.35 31.2 36.3 Q31.8 35.2 31.95 33.9 L32.25 33.65 33.45 32.65 Q37.25 29.65 38.7 24.95 39.75 21.75 39.35 18.2 L38.3 16.9 35.7 17.05 35.4 17.15 Q34.05 17.55 33.4 15.9 32.75 14.3 33.1 12.45 L33.7 9.05 Q33.75 7.9 33.1 6.9 32.35 5.7 31.15 5.5 L30.5 5.5 Z" fill="none" stroke="#002837" stroke-linecap="round" stroke-linejoin="round" stroke-width="1.0"/>
    <path d="M10.7 1.0 Q8.2 1.8 8.5 3.35 8.85 5.4 8.25 6.25 7.8 6.95 6.85 6.75 6.45 6.7 5.35 5.85 4.15 5.3 3.0 6.7 1.3 8.8 2.3 10.65 3.5 12.9 3.1 14.1 2.8 14.8 0.9 16.65 -0.4 17.95 0.2 18.95 0.7 20.1 2.3 20.9 3.65 21.55 4.0 23.1 4.45 24.8 3.3 25.85 1.85 27.2 1.6 28.5 1.45 29.8 2.5 30.75 3.4 31.5 4.6 31.65 L8.4 31.6 Q10.5 31.55 12.05 32.45 13.75 33.45 12.55 34.95 11.15 36.75 11.7 37.6 L12.8 38.85 20.15 39.3 Q25.55 38.6 29.95 35.1 L31.3 34.0 Q35.65 30.6 37.55 25.55 38.85 21.9 38.65 18.4 38.35 17.65 37.65 17.1 36.9 16.45 34.8 17.4 33.05 18.2 32.4 16.35 31.8 14.7 32.3 12.7 L33.2 9.05 Q33.35 7.9 32.7 6.85 32.0 5.65 30.7 5.5 29.35 5.45 27.65 6.6 L24.75 6.65 Q23.3 6.0 22.9 4.55 22.45 2.9 21.4 2.15 20.55 1.4 18.95 2.35 16.75 3.75 15.95 3.9 14.25 4.1 13.05 2.25 11.95 0.6 10.7 1.0" fill="#002f40" fill-rule="evenodd" stroke="none"/>
    <path d="M10.45 2.15 Q10.9 4.05 9.45 5.1 8.3 6.0 7.2 5.75 L5.65 5.1 Q4.55 4.9 4.1 6.55 3.8 7.65 5.15 9.1 6.5 10.55 6.1 12.05 L4.3 14.35 Q3.15 15.5 3.7 16.5 4.25 17.65 5.75 18.45 7.05 19.2 7.5 20.65 8.05 22.35 7.05 23.25 5.75 24.5 5.6 25.7 5.55 26.9 6.6 27.85 7.5 28.7 8.6 28.85 L12.15 29.0 Q14.05 29.05 15.55 30.05 17.2 31.1 16.2 32.45 14.95 34.1 15.5 34.95 L16.6 36.2 Q20.05 37.25 23.45 37.05 28.35 36.65 32.25 33.65 L33.45 32.65 Q37.25 29.65 38.7 24.95 39.75 21.75 39.35 18.2 L38.3 16.9 35.7 17.05 Q34.1 17.7 33.4 15.9 32.75 14.3 33.1 12.45 L33.7 9.05 Q33.75 7.9 33.1 6.9 32.35 5.7 31.15 5.5 29.9 5.35 28.45 6.35 L25.75 6.25 Q24.35 5.55 23.9 4.15 23.35 2.55 22.35 1.75 L20.1 1.85 Q18.15 3.0 17.4 3.1 15.85 3.2 14.65 1.4 13.5 -0.25 12.35 0.05 11.0 0.4 10.6 1.05 10.3 1.45 10.45 2.15" fill="#00435b" fill-rule="evenodd" stroke="none"/>
    <path d="M13.9 14.75 Q14.8 15.7 14.55 16.7 L13.35 18.25 Q12.6 19.0 13.0 19.6 13.35 20.35 14.35 20.9 15.2 21.35 15.45 22.35 15.8 23.45 15.15 24.05 14.3 24.8 14.2 25.6 14.15 26.4 14.85 27.05 15.45 27.55 16.2 27.7 L18.5 27.8 Q19.75 27.85 20.7 28.45 21.75 29.15 21.1 30.05 20.35 31.1 20.7 31.65 L21.4 32.5 25.9 33.05 Q29.2 32.75 31.65 30.8 L32.45 30.2 Q34.9 28.2 35.85 25.15 36.55 23.0 36.25 20.75 L35.6 19.9 33.9 19.95 Q32.85 20.4 32.4 19.25 31.95 18.2 32.15 16.95 L32.55 14.75 Q32.6 14.0 32.15 13.3 31.7 12.55 30.9 12.4 30.1 12.35 29.1 13.0 L27.35 12.9 Q26.45 12.45 26.15 11.55 25.8 10.5 25.15 9.95 L23.7 10.05 21.95 10.85 Q20.9 10.9 20.1 9.7 19.35 8.65 18.65 8.85 17.1 9.25 17.4 10.2 17.65 11.45 16.75 12.15 15.95 12.75 15.25 12.55 L14.25 12.15 Q13.55 12.05 13.25 13.1 13.05 13.85 13.9 14.75" fill="#005370" fill-rule="evenodd" stroke="none"/>
    <path d="M30.8 27.75 Q30.15 24.85 28.45 21.6 25.0 15.05 19.65 13.1 L23.5 17.9 Q27.5 24.1 28.4 31.15 28.9 35.05 29.8 36.35 L31.2 36.3 Q33.0 33.1 30.8 27.75" fill="#002f40" fill-rule="evenodd" stroke="none"/>
  </g>
</svg>
