<?xml version="1.0" encoding="UTF-8" standalone="no"?>
<svg xmlns:xlink="http://www.w3.org/1999/xlink" height="41.45px" width="39.15px" xmlns="http://www.w3.org/2000/svg">
  <g transform="matrix(1.0, 0.0, 0.0, 1.0, 0.5, 0.5)">
    <path d="M22.2 0.35 Q18.9 -0.35 15.65 0.3 14.9 0.8 14.45 1.45 13.85 2.25 14.75 4.1 L14.85 4.4 Q15.4 5.75 13.85 6.55 12.35 7.35 10.5 7.15 L7.15 6.8 Q6.05 6.85 5.1 7.6 4.0 8.4 3.9 9.7 L3.95 10.3 Q4.05 11.6 5.25 13.15 L5.35 13.3 Q5.5 14.1 5.05 15.15 4.5 16.65 3.15 17.2 1.65 17.9 1.0 18.95 0.3 19.9 1.25 21.25 L1.25 21.3 1.85 22.35 2.4 23.2 2.7 23.9 Q2.9 25.5 1.25 26.9 -0.3 28.2 0.1 29.3 0.55 30.65 1.2 31.05 L1.25 31.1 Q1.8 32.45 2.45 32.9 L3.65 33.0 5.85 32.75 Q6.2 33.45 6.1 34.1 L5.55 35.75 Q5.5 36.55 6.3 36.95 6.45 37.65 7.4 38.35 9.55 39.9 11.25 38.75 13.35 37.3 14.55 37.6 15.3 37.85 17.25 39.65 18.6 40.9 19.5 40.2 20.55 39.55 21.2 37.9 21.75 36.5 23.25 36.0 24.9 35.35 26.0 36.45 27.45 37.85 28.7 38.0 30.0 38.05 30.8 36.9 31.5 35.9 31.5 34.65 L31.15 30.75 Q30.95 28.65 31.7 27.0 32.5 25.15 34.05 26.25 35.95 27.55 36.75 26.95 L37.85 25.7 Q38.5 22.2 37.7 18.15 36.6 13.0 33.3 9.05 L34.05 8.55 Q35.05 7.7 33.85 7.1 32.75 6.55 31.45 6.55 L31.2 6.25 30.15 5.1 Q26.85 1.45 22.2 0.35 Z" fill="none" stroke="#002837" stroke-linecap="round" stroke-linejoin="round" stroke-width="1.0"/>
    <path d="M10.8 7.9 L7.2 7.3 Q6.05 7.25 5.1 8.0 4.0 8.8 3.95 10.15 4.0 11.5 5.25 13.15 6.25 14.4 5.55 16.1 5.05 17.65 3.65 18.2 2.1 18.8 1.45 19.9 0.75 20.85 1.85 22.35 3.4 24.5 3.6 25.35 3.9 27.05 2.25 28.4 0.7 29.7 1.2 30.95 1.75 32.45 2.45 32.9 L3.65 33.0 Q7.3 32.05 7.1 34.4 L6.35 36.0 Q5.9 37.25 7.4 38.35 9.55 39.9 11.25 38.75 13.35 37.3 14.55 37.6 15.3 37.85 17.25 39.65 18.6 40.9 19.5 40.2 20.55 39.55 21.2 37.9 21.75 36.5 23.25 36.0 24.9 35.35 26.0 36.45 27.45 37.85 28.7 38.0 30.0 38.05 30.8 36.9 31.5 35.9 31.5 34.65 L31.15 30.75 Q30.95 28.65 31.7 27.0 32.5 25.15 34.05 26.25 35.95 27.55 36.75 26.95 L37.85 25.7 Q38.5 22.2 37.7 18.15 36.5 12.65 32.85 8.5 L31.65 7.2 Q28.05 3.05 22.9 1.55 19.35 0.5 15.85 0.95 15.1 1.45 14.65 2.1 14.05 2.95 15.2 5.0 16.1 6.7 14.4 7.5 12.8 8.25 10.8 7.9" fill="#002f40" fill-rule="evenodd" stroke="none"/>
    <path d="M15.65 0.3 Q14.9 0.8 14.45 1.45 13.85 2.25 14.75 4.1 15.55 5.65 13.85 6.55 12.35 7.35 10.5 7.15 L7.15 6.8 Q6.05 6.85 5.1 7.6 4.0 8.4 3.9 9.7 3.9 10.95 4.95 12.4 5.8 13.5 5.05 15.15 4.5 16.65 3.15 17.2 1.65 17.9 1.0 18.95 0.3 19.9 1.25 21.25 2.55 23.15 2.7 23.9 2.9 25.5 1.25 26.9 -0.3 28.2 0.1 29.3 0.55 30.65 1.2 31.05 L2.3 31.1 Q4.1 30.5 5.3 31.85 6.25 33.0 6.1 34.1 L5.55 35.75 Q5.5 36.9 7.15 37.2 8.25 37.4 9.55 35.9 10.8 34.4 12.3 34.7 13.0 34.9 14.7 36.4 15.95 37.5 16.85 36.8 17.85 36.1 18.55 34.55 19.2 33.15 20.6 32.6 22.2 31.9 23.15 32.85 24.45 34.05 25.6 34.1 26.8 34.05 27.65 32.95 28.35 32.0 28.45 30.8 L28.35 27.2 Q28.25 25.2 29.05 23.6 29.95 21.85 31.35 22.75 33.05 23.85 33.8 23.25 L34.95 22.05 Q35.75 18.65 35.2 15.0 34.4 9.9 31.2 6.25 L30.15 5.1 Q26.85 1.45 22.2 0.35 18.9 -0.35 15.65 0.3" fill="#00435b" fill-rule="evenodd" stroke="none"/>
    <path d="M11.4 12.95 Q11.0 13.9 10.15 14.3 9.2 14.7 8.75 15.4 8.3 16.05 8.9 16.9 L9.9 18.65 Q10.0 19.65 8.9 20.6 7.95 21.45 8.2 22.2 8.7 23.65 9.6 23.35 10.8 22.95 11.55 23.85 12.2 24.6 12.1 25.35 L11.75 26.4 Q11.7 27.15 12.75 27.35 13.5 27.5 14.35 26.5 15.2 25.5 16.15 25.7 L17.7 26.8 Q18.5 27.5 19.1 27.1 19.8 26.65 20.25 25.6 20.65 24.7 21.55 24.35 L23.25 24.5 Q24.1 25.3 24.85 25.35 L26.2 24.55 Q26.65 23.9 26.7 23.15 L26.6 20.8 Q26.55 19.5 27.1 18.45 27.65 17.35 28.6 17.95 29.7 18.65 30.2 18.25 L30.95 17.45 Q31.45 15.2 31.15 12.8 30.55 9.45 28.5 7.15 L27.8 6.35 Q25.7 4.0 22.65 3.25 20.5 2.8 18.3 3.25 17.8 3.55 17.55 4.0 17.15 4.5 17.75 5.7 18.3 6.7 17.15 7.3 16.15 7.85 14.95 7.7 L12.75 7.5 Q12.05 7.5 11.45 8.0 10.7 8.5 10.65 9.35 10.65 10.15 11.35 11.15 11.9 11.85 11.4 12.95" fill="#005370" fill-rule="evenodd" stroke="none"/>
    <path d="M25.6 8.2 L19.8 11.15 Q13.7 15.2 12.25 20.8 13.75 18.8 16.6 16.5 22.3 11.9 29.1 10.4 32.85 9.55 34.05 8.55 35.05 7.7 33.85 7.1 30.65 5.55 25.6 8.2" fill="#002f40" fill-rule="evenodd" stroke="none"/>
  </g>
</svg>
