<?xml version="1.0" encoding="UTF-8" standalone="no"?>
<svg xmlns:xlink="http://www.w3.org/1999/xlink" height="40.3px" width="34.2px" xmlns="http://www.w3.org/2000/svg">
  <g transform="matrix(1.0, 0.0, 0.0, 1.0, 0.0, 0.0)">
    <path d="M0.0 11.85 Q0.0 11.3 0.45 10.85 0.9 10.45 1.55 10.45 2.45 10.45 2.85 11.1 5.15 7.0 8.75 4.6 12.45 2.15 16.7 2.15 L18.4 2.25 18.25 1.7 Q18.25 1.0 18.9 0.5 19.55 0.0 20.45 0.0 21.35 0.0 22.0 0.5 22.65 1.0 22.65 1.7 22.65 2.5 21.8 3.1 25.4 4.5 28.15 7.65 30.9 10.8 32.3 15.1 L33.0 14.85 Q33.5 14.85 33.85 15.25 34.2 15.65 34.2 16.15 L33.85 17.05 33.0 17.4 32.9 17.4 Q33.4 19.7 33.4 22.45 33.4 25.25 32.25 29.45 31.15 33.3 30.6 33.7 29.8 34.3 29.95 31.75 30.05 29.1 29.5 29.2 28.35 29.5 27.15 33.0 25.95 36.55 24.1 37.2 22.65 37.7 22.65 34.9 L22.85 32.9 Q22.4 35.05 19.85 37.65 L16.7 40.3 Q13.8 38.1 12.2 34.85 L11.15 32.0 Q10.0 33.65 10.1 37.75 7.45 36.2 5.7 33.65 L4.5 31.4 Q4.25 33.55 3.75 34.1 L3.05 34.05 Q1.2 32.2 0.5 28.85 0.0 26.4 0.0 22.45 0.0 17.55 1.8 13.25 L1.55 13.3 Q0.9 13.3 0.45 12.9 0.0 12.45 0.0 11.85" fill="#aa005d" fill-rule="evenodd" stroke="none"/>
    <path d="M11.55 36.85 L10.0 36.9 Q7.35 35.35 5.7 33.0 L4.55 30.95 Q4.5 31.25 4.2 30.55 L3.95 30.1 Q1.85 22.4 4.55 14.6 7.6 5.65 15.1 5.65 25.2 5.65 28.1 13.95 29.7 18.5 29.25 29.5 26.4 37.5 24.35 36.35 23.05 35.65 22.8 33.3 L22.85 31.35 Q22.75 33.7 19.75 36.75 L16.6 39.4 Q13.7 37.2 11.55 36.85" fill="#e52096" fill-rule="evenodd" stroke="none"/>
    <path d="M10.95 23.45 Q11.55 23.45 12.0 23.05 12.45 22.6 12.45 22.0 12.45 21.45 12.0 21.0 11.55 20.6 10.95 20.6 10.3 20.6 9.85 21.0 9.4 21.45 9.4 22.0 9.4 22.6 9.85 23.05 10.3 23.45 10.95 23.45 M16.3 13.7 Q15.85 13.4 15.25 13.4 14.65 13.4 14.25 13.7 13.8 14.0 13.8 14.4 13.8 14.8 14.25 15.1 L15.25 15.4 16.3 15.1 Q16.7 14.8 16.7 14.4 16.7 14.0 16.3 13.7 M23.85 13.75 L22.4 13.4 Q21.2 13.4 20.35 14.2 19.5 14.95 19.5 16.05 19.5 17.15 20.35 17.9 21.2 18.7 22.4 18.7 23.6 18.7 24.45 17.9 25.3 17.15 25.3 16.05 L25.25 15.65 Q26.75 18.1 27.3 22.5 L28.15 30.2 Q27.6 30.9 26.6 33.25 26.0 34.8 25.3 34.5 23.9 33.95 23.3 31.7 L23.0 29.55 Q23.0 32.05 19.9 35.2 L16.75 37.85 Q13.85 35.65 11.7 35.3 L10.1 35.35 Q7.25 33.6 5.25 29.75 5.55 18.6 9.05 13.7 12.9 8.25 20.25 11.25 22.3 12.2 23.85 13.75" fill="#ff43d3" fill-rule="evenodd" stroke="none"/>
  </g>
</svg>
