<?xml version="1.0" encoding="UTF-8" standalone="no"?>
<svg xmlns:xlink="http://www.w3.org/1999/xlink" height="91.7px" width="560.25px" xmlns="http://www.w3.org/2000/svg">
  <g transform="matrix(1.0, 0.0, 0.0, 1.0, -24.9, -217.45)">
    <path d="M89.1 269.55 L87.75 260.55 74.55 266.55 75.35 276.45 89.1 269.55 M130.5 227.05 Q131.3 228.75 130.75 230.45 129.9 232.2 128.25 233.05 L124.9 233.2 123.75 232.75 120.3 234.15 Q123.65 242.0 124.6 251.2 L106.95 246.3 104.25 247.5 106.5 251.85 Q106.0 253.3 105.05 253.9 L102.15 254.0 100.0 249.35 97.3 250.6 100.1 256.6 Q99.8 258.15 98.35 258.55 L95.7 258.65 95.1 257.25 93.1 258.15 93.85 270.55 93.1 273.25 91.2 274.95 75.95 281.9 77.1 297.8 Q73.65 301.4 64.55 304.5 L54.95 306.9 Q50.75 307.25 51.0 303.65 L54.7 300.75 53.85 275.8 49.9 277.9 48.5 276.8 46.9 275.0 40.3 281.1 38.45 280.45 Q35.5 279.0 33.6 277.25 28.0 271.65 31.1 261.1 L40.3 260.0 Q39.95 258.45 40.15 257.25 L45.55 254.65 40.5 251.25 32.3 254.15 24.9 248.2 38.9 242.95 43.7 244.45 63.35 237.05 64.1 237.9 Q65.3 239.45 65.2 241.65 L59.55 243.85 65.1 245.6 85.25 236.55 84.8 235.45 Q85.3 233.95 86.55 233.35 87.65 233.15 89.15 233.7 L91.35 238.3 94.1 237.15 92.6 233.8 Q93.15 232.4 94.25 231.85 L97.0 231.6 98.45 235.05 101.35 233.9 101.05 233.65 108.2 217.45 Q114.7 222.95 118.9 230.55 L121.8 229.05 Q121.65 228.5 121.9 227.4 122.75 225.75 124.45 225.05 125.9 224.2 128.0 224.65 129.8 225.6 130.5 227.05" fill="#35b6e0" fill-rule="evenodd" stroke="none"/>
    <path d="M577.7 270.1 Q579.05 280.15 573.2 284.45 571.15 285.9 568.2 286.8 L566.35 287.3 561.2 280.75 559.5 282.15 Q558.7 282.45 558.0 282.9 L554.7 280.55 550.45 303.4 553.4 306.55 Q553.15 309.85 549.35 309.0 544.55 307.35 540.85 305.55 532.9 301.45 530.15 297.6 L533.5 283.2 520.3 274.75 518.9 272.85 518.5 270.35 520.9 258.95 519.25 257.9 518.5 259.1 Q517.0 259.25 516.05 258.65 514.75 258.1 514.65 256.6 L518.15 251.45 515.85 249.9 513.2 253.9 510.6 253.45 Q509.8 252.8 509.45 251.45 L512.2 247.65 509.9 246.25 492.95 248.4 Q495.1 240.05 499.2 233.3 L496.35 231.5 495.1 231.75 Q493.3 232.1 492.15 231.1 490.65 230.1 490.15 228.5 489.85 226.8 490.75 225.3 491.7 224.05 493.5 223.5 495.45 223.3 496.7 224.25 498.2 225.15 498.65 226.8 498.8 227.85 498.55 228.35 L501.05 230.05 Q505.9 223.7 512.75 219.45 L517.1 235.35 516.75 235.55 519.25 236.9 521.05 234.0 Q522.55 233.9 523.55 234.65 524.45 235.25 524.8 236.55 L522.95 239.45 525.3 240.9 528.0 236.95 530.45 237.0 Q531.45 237.75 531.85 239.15 L531.2 240.1 548.5 251.2 553.85 250.35 549.0 247.55 Q549.2 245.45 550.5 244.2 L551.35 243.45 568.4 252.95 573.0 252.25 585.15 258.9 577.55 263.4 570.4 259.65 565.3 262.05 569.9 265.2 Q569.9 266.35 569.35 267.75 L577.7 270.1 M523.05 270.05 L534.75 278.2 536.85 269.2 525.6 261.85 523.05 270.05" fill="#35b6e0" fill-rule="evenodd" stroke="none"/>
  </g>
</svg>
