<?xml version="1.0" encoding="UTF-8" standalone="no"?>
<svg xmlns:xlink="http://www.w3.org/1999/xlink" height="32.2px" width="43.6px" xmlns="http://www.w3.org/2000/svg">
  <g transform="matrix(1.0, 0.0, 0.0, 1.0, 0.0, 0.0)">
    <path d="M41.5 0.95 L42.8 0.15 Q44.0 -0.1 43.45 2.9 L40.9 5.3 Q37.8 7.85 35.0 8.65 L33.4 9.75 Q31.5 11.55 30.2 15.1 L29.85 19.3 Q30.25 23.8 34.25 25.15 L37.75 27.45 Q40.95 30.1 39.4 32.15 L38.35 32.05 Q37.1 31.6 36.2 29.85 34.55 29.35 32.7 28.4 29.1 26.55 28.3 24.35 24.4 23.3 21.8 23.3 L18.3 23.65 16.8 23.95 Q16.0 26.15 11.45 27.7 L7.05 28.8 Q5.65 31.65 4.2 32.05 2.65 30.0 6.3 27.3 L10.25 24.95 Q14.25 23.6 14.35 19.15 L13.6 14.95 Q12.3 11.4 10.3 9.65 L8.6 8.55 Q5.8 7.75 2.7 5.2 L0.15 2.8 Q-0.4 -0.25 0.8 0.0 1.4 0.15 2.1 0.85 2.35 2.75 5.1 4.1 6.65 4.85 11.75 6.35 14.1 7.1 17.5 9.6 20.45 11.8 21.8 11.8 24.8 11.8 27.15 9.65 30.0 7.0 31.85 6.45 L38.5 4.2 Q41.25 2.9 41.5 0.95" fill="#008c6c" fill-rule="evenodd" stroke="none"/>
    <path d="M27.4 24.75 Q27.4 26.65 25.95 28.0 24.55 29.35 22.5 29.35 20.45 29.35 19.0 28.0 17.55 26.65 17.55 24.75 L16.45 19.5 Q16.45 17.6 18.45 15.8 20.45 14.05 22.5 14.05 24.6 14.05 26.5 15.6 28.45 17.25 28.45 19.1 L27.4 24.75" fill="#007556" fill-rule="evenodd" stroke="none"/>
    <path d="M17.75 10.95 Q18.85 12.45 18.8 13.65 18.35 14.7 16.75 13.35 L15.25 11.8 Q13.65 8.95 11.7 7.35 L10.05 6.35 Q15.6 7.95 17.75 10.95" fill="#00a585" fill-rule="evenodd" stroke="none"/>
    <path d="M25.65 12.65 Q26.2 11.55 27.2 10.4 29.2 8.1 31.5 7.9 L29.45 10.35 Q27.4 12.9 27.4 13.65 L26.3 14.0 Q25.3 14.05 25.65 12.65" fill="#00a585" fill-rule="evenodd" stroke="none"/>
    <path d="M22.8 16.1 L24.15 16.2 Q25.6 16.6 26.05 18.35 L25.55 25.7 23.2 25.5 22.8 16.1" fill="#00a585" fill-rule="evenodd" stroke="none"/>
  </g>
</svg>
