<?xml version="1.0" encoding="UTF-8" standalone="no"?>
<svg xmlns:xlink="http://www.w3.org/1999/xlink" height="34.2px" width="38.85px" xmlns="http://www.w3.org/2000/svg">
  <g transform="matrix(1.0, 0.0, 0.0, 1.0, 0.0, 0.0)">
    <path d="M19.35 3.5 Q22.25 1.65 23.75 3.15 24.95 4.35 24.05 5.8 23.25 7.05 24.45 7.6 25.35 8.0 27.0 7.2 28.55 6.45 29.7 7.2 31.05 8.05 30.2 10.7 29.25 13.45 29.65 13.85 30.45 14.7 32.15 13.2 33.95 11.7 34.6 12.3 36.8 14.35 35.4 16.05 33.9 17.85 34.2 18.25 34.85 18.95 36.25 18.45 37.55 17.95 38.4 19.2 39.75 21.2 36.85 23.65 34.05 26.0 34.5 26.35 35.3 27.05 35.8 26.95 36.65 26.7 37.95 24.25 L37.1 26.1 35.9 27.75 Q32.75 32.3 27.6 32.4 23.2 32.55 16.55 29.4 L16.4 30.15 Q16.15 30.55 15.65 30.6 15.2 30.65 14.8 30.35 14.4 30.05 14.3 29.6 14.2 29.15 14.45 28.75 L14.8 28.45 12.7 27.1 Q8.55 24.0 6.15 19.85 L4.25 19.95 Q3.75 19.6 3.65 18.9 3.55 18.25 3.9 17.7 L4.85 17.1 Q3.35 13.35 3.5 9.6 L2.7 9.5 Q2.35 9.3 2.35 8.8 2.3 8.35 2.6 7.95 3.05 7.25 3.75 7.45 L3.75 5.5 Q3.7 4.8 4.4 3.8 5.6 2.05 6.75 1.2 L7.4 1.15 5.8 3.15 Q4.35 5.3 5.2 5.7 5.55 5.85 9.65 2.45 13.7 -0.85 15.45 0.3 16.25 0.8 15.35 2.45 14.45 4.15 15.75 5.05 16.35 5.45 19.35 3.5" fill="#e0d900" fill-rule="evenodd" stroke="none"/>
    <path d="M22.15 5.05 Q23.35 6.25 22.45 7.7 21.65 8.95 22.85 9.5 23.75 9.9 25.35 9.1 26.9 8.35 28.05 9.1 29.4 10.0 28.55 12.6 27.65 15.35 28.05 15.75 28.85 16.6 30.55 15.1 32.3 13.6 32.95 14.2 35.2 16.25 33.75 17.95 32.3 19.75 32.6 20.1 33.25 20.85 34.6 20.35 35.9 19.85 36.75 21.1 38.15 23.1 35.2 25.55 32.45 27.9 32.9 28.25 33.65 28.95 34.15 28.85 35.05 28.6 36.35 26.15 L35.6 28.2 Q35.1 29.25 34.25 29.65 28.15 32.55 25.2 33.05 20.4 33.85 14.95 31.25 15.05 31.7 14.75 32.05 14.5 32.45 14.05 32.5 13.55 32.55 13.15 32.25 12.75 31.95 12.7 31.5 12.6 31.0 12.85 30.65 L13.15 30.35 11.1 29.0 Q6.95 25.95 4.55 21.7 3.65 22.5 2.65 21.85 2.2 21.5 2.35 20.95 L2.95 19.85 3.05 19.3 Q3.0 19.0 3.2 18.95 1.75 15.2 1.9 11.5 L1.1 11.4 1.85 11.35 3.2 11.1 Q3.35 10.9 3.15 10.65 3.05 10.5 3.2 10.55 3.35 9.75 2.9 8.2 2.55 7.0 3.2 6.05 L4.05 4.45 Q4.5 3.6 5.15 3.1 L5.75 3.0 4.15 5.05 Q2.75 7.2 3.6 7.6 3.9 7.75 8.05 4.35 12.1 1.05 13.85 2.15 14.6 2.65 13.7 4.35 12.85 6.05 14.15 6.95 14.75 7.35 17.75 5.4 20.65 3.55 22.15 5.05" fill="#fc9800" fill-rule="evenodd" stroke="none"/>
    <path d="M3.7 4.45 Q5.0 2.55 6.75 1.25 L7.4 1.2 5.45 3.5 Q3.65 5.9 4.5 6.3 4.85 6.45 6.5 5.65 8.05 4.9 9.8 6.05 10.55 6.55 9.1 8.8 7.65 11.05 8.95 11.95 9.55 12.35 11.35 11.65 13.0 11.05 14.5 12.55 15.75 13.8 15.1 15.55 14.55 17.05 15.8 17.65 16.7 18.1 18.2 17.2 L20.8 17.15 Q22.15 18.05 21.6 19.9 21.0 21.9 21.4 22.35 22.2 23.2 24.1 22.1 26.05 20.9 26.75 21.45 27.65 22.1 27.0 23.4 26.35 24.85 26.9 25.5 27.6 26.3 29.55 24.85 31.75 23.15 33.1 23.6 34.05 23.9 33.55 25.25 33.05 26.8 33.7 27.35 L35.35 27.45 Q36.65 26.75 37.95 24.25 37.35 26.3 36.1 28.05 32.8 32.8 26.65 33.9 20.55 35.0 14.4 32.05 14.5 32.5 14.2 32.85 L13.5 33.3 12.6 33.05 Q12.2 32.75 12.1 32.25 12.0 31.8 12.25 31.4 L12.6 31.1 10.5 29.75 Q6.35 26.7 3.9 22.45 L1.95 22.55 Q1.45 22.2 1.35 21.5 1.25 20.85 1.6 20.3 1.95 19.85 2.55 19.65 1.05 16.05 1.15 12.15 L0.35 12.05 Q0.0 11.85 0.0 11.35 -0.05 10.9 0.2 10.5 0.7 9.85 1.4 10.0 1.95 6.85 3.7 4.45" fill="#aa005d" fill-rule="evenodd" stroke="none"/>
    <path d="M5.6 7.85 Q7.05 6.6 7.8 7.2 8.45 7.75 7.45 9.8 6.45 11.8 8.3 13.1 9.05 13.6 10.9 12.8 12.6 12.05 13.5 13.25 14.05 13.95 13.6 16.3 13.2 18.35 14.6 19.0 15.55 19.45 17.1 18.75 L19.3 18.85 Q20.05 19.55 19.8 21.3 19.55 22.9 20.6 23.6 21.55 24.25 23.55 23.05 25.45 21.9 26.1 22.55 26.7 23.15 26.2 24.45 25.7 25.75 26.4 26.4 L28.8 26.35 Q30.75 25.2 31.95 25.45 33.15 25.65 32.55 26.65 L30.4 29.8 Q27.45 32.15 22.9 32.05 19.0 32.0 14.9 30.2 8.75 27.7 5.25 21.25 1.6 14.5 4.25 9.1 L4.3 9.25 5.6 7.85" fill="#e50089" fill-rule="evenodd" stroke="none"/>
    <path d="M12.0 20.75 L11.25 20.8 Q10.9 21.15 11.45 21.55 L12.2 21.5 Q12.5 21.15 12.0 20.75 M11.3 16.5 Q10.3 15.9 9.65 16.8 9.4 17.2 9.45 17.7 9.55 18.2 9.9 18.5 L10.8 18.65 11.55 18.2 11.75 17.3 11.3 16.5 M10.4 14.15 Q11.45 13.75 12.2 14.65 12.7 15.25 12.4 17.35 12.1 19.2 13.5 19.9 L15.7 19.95 Q16.85 19.6 17.7 20.2 18.5 20.7 18.3 22.35 18.15 23.9 19.7 24.65 L22.9 24.9 24.55 24.65 Q25.3 25.2 25.05 25.45 24.65 25.85 24.9 26.75 25.25 27.8 26.1 27.8 24.2 29.0 20.5 28.4 17.15 27.85 14.55 26.3 10.85 24.0 8.95 20.9 6.8 17.3 7.95 13.9 L8.1 14.35 10.4 14.15" fill="#ff43d3" fill-rule="evenodd" stroke="none"/>
  </g>
</svg>
