<?xml version="1.0" encoding="UTF-8" standalone="no"?>
<svg xmlns:xlink="http://www.w3.org/1999/xlink" height="328.75px" width="565.5px" xmlns="http://www.w3.org/2000/svg">
  <g transform="matrix(1.0, 0.0, 0.0, 1.0, -66.9, -111.35)">
    <path d="M632.4 129.0 L632.4 236.8 Q632.4 254.5 614.05 254.5 L85.2 254.5 Q66.9 254.5 66.9 236.8 L66.9 129.0 Q66.9 111.35 85.2 111.35 L614.05 111.35 Q632.4 111.35 632.4 129.0" fill="#f5dcca" fill-rule="evenodd" stroke="none"/>
    <path d="M209.7 290.0 L74.5 290.0 74.5 257.0 209.7 257.0 209.7 290.0" fill="#e7fdff" fill-rule="evenodd" stroke="none"/>
    <path d="M198.15 258.5 Q207.65 258.5 207.65 267.65 L207.65 279.4 Q207.65 288.5 198.15 288.5 L86.05 288.5 Q76.55 288.5 76.55 279.4 L76.55 267.65 Q76.55 258.5 86.05 258.5 L198.15 258.5" fill="#f5dcca" fill-rule="evenodd" stroke="none"/>
    <path d="M74.5 294.0 L209.7 294.0 209.7 327.0 74.5 327.0 74.5 294.0" fill="#e7fdff" fill-rule="evenodd" stroke="none"/>
    <path d="M198.15 295.5 Q207.65 295.5 207.65 304.65 L207.65 316.4 Q207.65 325.5 198.15 325.5 L86.05 325.5 Q76.55 325.5 76.55 316.4 L76.55 304.65 Q76.55 295.5 86.05 295.5 L198.15 295.5" fill="#f5dcca" fill-rule="evenodd" stroke="none"/>
    <path d="M74.5 331.7 L209.7 331.7 209.7 364.7 74.5 364.7 74.5 331.7" fill="#e7fdff" fill-rule="evenodd" stroke="none"/>
    <path d="M198.15 333.2 Q207.65 333.2 207.65 342.35 L207.65 354.1 Q207.65 363.2 198.15 363.2 L86.05 363.2 Q76.55 363.2 76.55 354.1 L76.55 342.35 Q76.55 333.2 86.05 333.2 L198.15 333.2" fill="#f5dcca" fill-rule="evenodd" stroke="none"/>
    <path d="M74.5 369.4 L209.7 369.4 209.7 402.4 74.5 402.4 74.5 369.4" fill="#e7fdff" fill-rule="evenodd" stroke="none"/>
    <path d="M76.55 380.05 Q76.55 370.9 86.05 370.9 L198.15 370.9 Q207.65 370.9 207.65 380.05 L207.65 391.8 Q207.65 400.9 198.15 400.9 L86.05 400.9 Q76.55 400.9 76.55 391.8 L76.55 380.05" fill="#f5dcca" fill-rule="evenodd" stroke="none"/>
    <path d="M74.5 407.1 L209.7 407.1 209.7 440.1 74.5 440.1 74.5 407.1" fill="#e7fdff" fill-rule="evenodd" stroke="none"/>
    <path d="M207.65 417.75 L207.65 429.5 Q207.65 438.6 198.15 438.6 L86.05 438.6 Q76.55 438.6 76.55 429.5 L76.55 417.75 Q76.55 408.6 86.05 408.6 L198.15 408.6 Q207.65 408.6 207.65 417.75" fill="#f5dcca" fill-rule="evenodd" stroke="none"/>
  </g>
</svg>
