<?xml version="1.0" encoding="UTF-8" standalone="no"?>
<svg xmlns:xlink="http://www.w3.org/1999/xlink" height="37.45px" width="47.8px" xmlns="http://www.w3.org/2000/svg">
  <g transform="matrix(1.0, 0.0, 0.0, 1.0, 0.0, 0.0)">
    <path d="M8.55 16.05 L10.75 22.75 Q5.95 22.8 4.45 25.4 3.7 26.7 3.9 27.95 2.75 30.3 1.5 28.95 L0.45 27.1 Q-1.25 20.45 3.45 17.65 4.9 16.8 6.9 16.35 L8.55 16.05" fill="#00a37e" fill-rule="evenodd" stroke="none"/>
    <path d="M9.9 16.35 L12.05 23.05 Q7.25 23.1 5.35 25.35 4.35 26.45 4.35 27.55 3.2 29.85 2.4 28.85 L1.8 27.4 Q0.05 20.75 4.8 17.95 6.25 17.1 8.2 16.65 L9.9 16.35" fill="#007057" fill-rule="evenodd" stroke="none"/>
    <path d="M39.25 15.8 L40.95 16.1 Q42.9 16.55 44.35 17.4 49.1 20.2 47.35 26.85 L46.3 28.7 Q45.05 30.05 43.9 27.7 44.1 26.45 43.35 25.15 41.9 22.55 37.1 22.5 L39.25 15.8" fill="#00a37e" fill-rule="evenodd" stroke="none"/>
    <path d="M37.9 16.1 L39.6 16.4 Q41.6 16.85 43.05 17.7 47.75 20.5 46.05 27.15 L45.45 28.6 Q44.6 29.6 43.45 27.3 43.45 26.2 42.45 25.1 40.55 22.85 35.75 22.8 L37.9 16.1" fill="#007057" fill-rule="evenodd" stroke="none"/>
    <path d="M8.95 23.55 L5.5 19.65 Q5.45 17.7 5.75 15.35 6.25 10.7 7.75 8.9 9.35 7.0 10.75 8.5 12.75 10.65 13.15 10.65 14.1 10.75 14.05 6.9 14.05 3.75 14.2 3.35 14.85 1.75 18.1 0.35 19.95 -0.4 20.55 0.6 20.95 1.3 21.0 3.4 21.15 8.0 23.6 7.85 25.4 7.75 26.55 4.5 27.85 1.05 29.8 0.35 32.95 -0.7 34.25 1.6 35.35 3.5 34.6 5.85 33.2 10.25 34.0 11.1 34.75 11.95 37.1 8.75 38.05 7.45 39.5 10.2 40.9 12.85 40.8 15.2 L40.6 16.35 40.8 16.85 Q31.65 36.15 17.65 29.8 13.3 27.85 8.95 23.55" fill="#d2de4b" fill-rule="evenodd" stroke="none"/>
    <path d="M9.55 25.5 L6.3 21.6 Q6.25 19.65 6.5 17.35 7.0 12.7 8.45 10.9 9.9 9.05 11.2 10.5 L13.5 12.65 Q14.35 12.75 14.35 8.9 14.35 5.75 14.5 5.35 15.1 3.75 18.15 2.35 20.8 1.15 20.9 5.35 21.05 10.0 23.3 9.85 25.0 9.7 26.1 6.5 27.35 3.0 29.2 2.35 32.15 1.3 33.4 3.6 34.4 5.5 33.7 7.8 32.35 12.25 33.1 13.1 33.8 13.9 36.0 10.75 36.95 9.45 38.3 12.2 39.6 14.85 39.5 17.2 L39.45 17.8 39.35 18.35 39.5 18.8 Q30.9 38.1 17.75 31.75 13.65 29.8 9.55 25.5" fill="#fc9800" fill-rule="evenodd" stroke="none"/>
    <path d="M8.0 15.35 Q9.55 13.7 11.0 15.0 11.7 15.65 10.85 19.5 10.15 22.95 13.05 24.1 13.95 24.45 14.75 22.2 15.55 19.85 18.35 20.65 21.3 21.5 21.45 24.6 21.6 27.3 23.85 27.3 26.75 27.3 27.5 24.4 28.3 21.15 30.1 20.65 32.75 19.85 33.6 23.15 L34.05 25.2 Q34.35 26.0 34.9 25.5 36.75 23.85 36.3 20.55 35.85 17.05 37.35 15.25 38.3 14.1 39.75 16.55 41.15 18.9 41.05 21.0 L40.85 22.05 Q40.05 26.0 37.9 29.3 35.75 32.5 32.65 34.55 L32.95 35.6 Q32.95 36.35 32.45 36.9 31.9 37.45 31.15 37.45 29.95 37.45 29.5 36.2 26.45 37.45 23.3 37.45 16.4 37.45 11.25 32.4 10.55 33.8 9.15 33.8 8.15 33.8 7.45 33.05 6.75 32.3 6.75 31.25 6.75 30.4 7.2 29.75 7.65 29.05 8.35 28.8 6.1 25.25 5.5 20.9 L5.85 19.1 Q6.5 17.0 8.0 15.35" fill="#aa005d" fill-rule="evenodd" stroke="none"/>
    <path d="M7.6 24.95 Q6.45 22.05 7.5 18.15 8.5 14.35 9.45 15.35 10.15 16.1 9.7 20.15 9.25 23.9 12.3 25.7 13.25 26.25 14.5 23.65 15.75 20.9 17.85 21.7 19.3 22.25 19.95 25.85 20.6 29.15 23.25 29.4 27.7 29.85 28.25 26.45 L28.75 23.7 Q29.25 22.25 30.7 21.8 33.15 21.05 33.9 24.2 34.65 27.05 35.3 26.5 36.9 25.25 37.15 24.2 37.4 23.1 37.15 17.9 37.1 17.25 37.7 16.25 38.35 15.2 38.7 15.85 41.5 20.8 37.7 26.8 33.85 32.85 26.95 34.25 21.25 35.45 15.75 32.85 10.15 30.2 7.6 24.95" fill="#e50089" fill-rule="evenodd" stroke="none"/>
    <path d="M33.65 27.4 L32.35 28.8 Q30.35 30.3 28.0 30.75 L29.3 26.55 Q30.0 24.1 31.45 23.55 32.45 23.15 32.85 23.8 33.25 24.5 33.65 27.4" fill="#ff43d3" fill-rule="evenodd" stroke="none"/>
    <path d="M14.05 27.0 Q15.05 24.9 15.4 24.5 16.25 23.45 17.45 23.8 18.65 24.15 18.9 25.8 19.35 28.8 20.0 30.4 16.3 29.45 14.05 27.0" fill="#ff43d3" fill-rule="evenodd" stroke="none"/>
  </g>
</svg>
