<?xml version="1.0" encoding="UTF-8" standalone="no"?>
<svg xmlns:xlink="http://www.w3.org/1999/xlink" height="32.55px" width="42.35px" xmlns="http://www.w3.org/2000/svg">
  <g transform="matrix(1.0, 0.0, 0.0, 1.0, 0.0, 0.0)">
    <path d="M9.6 2.6 Q12.2 3.55 14.1 5.55 L10.6 11.6 Q7.4 7.95 4.55 8.45 L2.3 9.7 Q-0.15 10.35 0.0 8.45 L0.65 6.45 Q4.45 0.75 9.6 2.6" fill="#00c79a" fill-rule="evenodd" stroke="none"/>
    <path d="M11.25 12.8 Q8.05 9.15 5.15 9.1 L2.9 9.8 Q0.45 10.45 0.6 9.15 L1.3 7.7 Q5.05 2.05 10.25 3.85 12.85 4.75 14.75 6.75 L11.25 12.8" fill="#007057" fill-rule="evenodd" stroke="none"/>
    <path d="M32.7 2.35 Q37.9 0.55 41.65 6.25 L42.35 8.25 Q42.5 10.1 40.05 9.45 39.25 8.45 37.8 8.2 34.9 7.7 31.7 11.35 L28.2 5.3 29.5 4.2 Q31.15 2.9 32.7 2.35" fill="#00c296" fill-rule="evenodd" stroke="none"/>
    <path d="M32.1 3.6 Q37.25 1.8 41.0 7.45 L41.7 8.9 Q41.9 10.2 39.4 9.55 38.6 8.85 37.15 8.85 34.25 8.9 31.1 12.55 L27.55 6.5 28.9 5.4 Q30.55 4.15 32.1 3.6" fill="#007057" fill-rule="evenodd" stroke="none"/>
    <path d="M21.0 4.05 L21.15 4.05 21.0 3.1 Q21.0 1.8 21.8 0.9 22.65 0.0 23.8 0.0 25.0 0.0 25.85 0.9 26.65 1.8 26.65 3.1 26.65 4.0 26.15 4.85 32.7 7.0 36.3 13.3 L36.75 13.25 Q37.7 13.25 38.35 13.7 39.0 14.15 39.0 14.8 39.0 15.8 37.65 16.15 39.0 19.8 39.0 23.65 L38.75 26.8 Q37.75 26.7 37.25 23.25 36.8 20.2 36.15 20.95 35.8 21.4 36.25 24.35 36.2 27.45 33.3 28.95 31.55 29.85 30.35 28.05 29.0 26.1 27.85 26.3 26.1 26.65 25.2 29.75 24.4 32.6 21.0 32.55 17.95 32.5 17.35 29.9 16.65 26.8 15.35 26.3 13.25 25.5 12.6 27.3 12.0 29.15 11.15 28.9 6.4 27.55 6.65 24.15 7.7 21.1 7.05 21.1 6.95 21.1 6.3 24.05 5.65 26.95 3.2 26.7 L3.0 23.65 Q3.0 19.65 4.4 16.05 5.8 12.5 8.3 9.8 7.2 9.15 7.2 7.95 7.2 7.0 7.95 6.35 8.7 5.7 9.8 5.7 11.2 5.7 11.95 6.7 16.2 4.05 21.0 4.05" fill="#aa005d" fill-rule="evenodd" stroke="none"/>
    <path d="M12.5 25.8 Q11.75 27.75 11.15 27.65 8.35 27.25 7.65 25.85 7.2 24.85 7.55 22.0 L7.85 21.0 Q7.95 20.35 7.25 20.1 6.4 19.8 5.75 21.5 5.15 23.25 4.25 22.95 3.95 22.85 4.5 20.5 5.1 17.8 6.45 15.2 10.6 7.35 18.55 6.15 24.9 5.2 30.15 8.75 35.3 12.2 37.05 18.15 38.55 23.5 38.05 22.55 36.5 19.8 35.85 19.9 34.85 20.05 35.1 23.3 35.35 26.75 33.75 27.4 31.6 28.35 30.6 26.8 29.35 24.9 27.55 25.0 25.8 25.1 24.7 28.35 23.55 31.55 21.3 31.55 19.15 31.55 17.85 28.6 16.45 25.25 15.35 24.85 13.2 24.0 12.5 25.8" fill="#e50089" fill-rule="evenodd" stroke="none"/>
    <path d="M20.0 17.3 Q20.0 17.9 20.65 17.9 21.3 17.9 21.3 17.3 21.3 16.75 20.65 16.75 20.0 16.75 20.0 17.3 M18.3 11.5 Q17.6 11.5 17.05 11.95 16.55 12.4 16.55 13.0 16.55 13.65 17.05 14.05 17.6 14.5 18.3 14.5 19.0 14.5 19.5 14.05 20.0 13.65 20.0 13.0 20.0 12.4 19.5 11.95 19.0 11.5 18.3 11.5 M12.5 23.75 Q11.2 26.25 10.2 26.0 8.25 25.5 8.7 22.6 9.0 20.9 10.55 16.9 12.25 12.55 15.65 10.85 18.5 9.4 22.25 9.9 21.55 11.0 21.55 12.3 21.55 14.15 22.95 15.45 24.3 16.75 26.25 16.85 28.9 17.05 29.8 15.5 30.5 14.3 29.95 12.9 31.8 13.55 32.8 15.7 33.6 17.45 34.35 21.4 34.75 23.75 34.6 24.75 34.35 26.2 32.85 26.55 31.8 26.8 30.45 24.4 29.05 21.85 27.45 21.95 25.45 22.1 24.55 24.95 23.7 27.7 21.3 27.65 18.5 27.65 17.65 25.15 16.7 22.3 15.85 22.0 13.75 21.25 12.5 23.75" fill="#ff43d3" fill-rule="evenodd" stroke="none"/>
  </g>
</svg>
