<?xml version="1.0" encoding="UTF-8" standalone="no"?>
<svg xmlns:xlink="http://www.w3.org/1999/xlink" height="47.85px" width="32.0px" xmlns="http://www.w3.org/2000/svg">
  <g transform="matrix(1.0, 0.0, 0.0, 1.0, 1.0, 17.0)">
    <path d="M28.55 -14.5 Q30.0 -13.05 30.0 -11.05 L30.0 14.25 Q30.0 16.25 28.55 17.65 L28.0 18.15 26.65 25.25 Q26.65 27.15 25.2 28.5 23.7 29.85 21.6 29.85 L8.95 29.85 Q6.85 29.85 5.4 28.5 4.15 27.35 3.95 25.85 L3.5 24.3 2.15 18.15 1.5 17.65 Q0.55 16.75 0.2 15.65 L0.05 15.2 0.05 15.0 0.0 14.25 0.0 -11.05 Q0.0 -13.05 1.5 -14.5 2.35 -15.3 3.4 -15.65 L5.45 -16.0 24.25 -16.0 25.5 -15.85 Q27.25 -15.7 28.55 -14.5 Z" fill="none" stroke="#2a1d0e" stroke-linecap="round" stroke-linejoin="round" stroke-width="2.0"/>
    <path d="M5.4 28.5 Q3.9 27.15 3.9 25.25 L1.6 16.05 Q1.6 13.3 8.95 13.3 L21.6 13.3 26.05 13.65 Q28.4 14.2 28.4 15.9 L26.65 25.25 Q26.65 27.15 25.2 28.5 23.7 29.85 21.6 29.85 L8.95 29.85 Q6.85 29.85 5.4 28.5" fill="#422613" fill-rule="evenodd" stroke="none"/>
    <path d="M5.3 27.5 Q3.85 26.15 3.85 24.25 L1.55 15.05 Q1.55 12.3 8.85 12.3 L21.55 12.3 25.95 12.65 Q28.3 13.2 28.3 14.9 L26.55 24.25 Q26.55 26.15 25.1 27.5 23.6 28.85 21.55 28.85 L8.85 28.85 Q6.8 28.85 5.3 27.5" fill="#563417" fill-rule="evenodd" stroke="none"/>
    <path d="M26.15 7.45 Q27.8 8.8 27.8 10.7 L27.8 18.05 Q27.8 19.95 26.15 21.3 24.5 22.65 22.15 22.65 L7.85 22.65 Q5.5 22.65 3.85 21.3 2.2 19.95 2.2 18.05 L2.2 10.7 Q2.2 8.8 3.85 7.45 5.5 6.1 7.85 6.1 L22.15 6.1 Q24.5 6.1 26.15 7.45" fill="#3d2411" fill-rule="evenodd" stroke="none"/>
    <path d="M30.0 -11.05 L30.0 14.25 Q30.0 16.25 28.55 17.65 27.05 19.05 24.95 19.05 L5.1 19.05 Q3.0 19.05 1.5 17.65 0.0 16.25 0.0 14.25 L0.0 -11.05 Q0.0 -13.05 1.5 -14.5 3.0 -15.9 5.1 -15.9 L24.95 -15.9 Q27.05 -15.9 28.55 -14.5 30.0 -13.05 30.0 -11.05" fill="#7e582a" fill-rule="evenodd" stroke="none"/>
    <path d="M29.2 -11.4 L29.2 10.75 Q29.2 12.5 27.8 13.75 26.35 15.0 24.35 15.0 L5.55 15.0 Q3.55 15.0 2.15 13.75 0.75 12.5 0.75 10.75 L0.75 -11.4 Q0.75 -13.15 2.15 -14.4 3.55 -15.65 5.55 -15.65 L24.35 -15.65 Q26.35 -15.65 27.8 -14.4 29.2 -13.15 29.2 -11.4" fill="#b87e47" fill-rule="evenodd" stroke="none"/>
    <path d="M29.45 -11.4 L29.45 10.75 Q29.45 12.65 27.9 14.0 26.4 15.35 24.25 15.35 L5.45 15.35 Q3.3 15.35 1.8 14.0 0.3 12.65 0.3 10.75 L0.3 -11.4 Q0.3 -13.3 1.8 -14.65 3.3 -16.0 5.45 -16.0 L24.25 -16.0 Q26.4 -16.0 27.9 -14.65 29.45 -13.3 29.45 -11.4 M24.25 -15.3 L5.45 -15.3 Q3.6 -15.3 2.3 -14.15 1.0 -13.0 1.0 -11.4 L1.0 10.75 Q1.0 12.35 2.3 13.5 3.6 14.6 5.45 14.6 L24.25 14.6 Q26.1 14.6 27.4 13.5 28.7 12.35 28.7 10.75 L28.7 -11.4 Q28.7 -13.0 27.4 -14.15 26.1 -15.3 24.25 -15.3" fill="#ef9d59" fill-rule="evenodd" stroke="none"/>
    <path d="M26.85 7.95 Q26.85 9.4 25.65 10.45 24.5 11.5 22.8 11.5 L7.0 11.5 Q5.3 11.5 4.15 10.45 2.95 9.4 2.95 7.95 L2.95 -10.7 Q2.95 -12.2 4.15 -13.25 5.3 -14.3 7.0 -14.3 L22.8 -14.3 Q24.5 -14.3 25.65 -13.25 26.85 -12.2 26.85 -10.7 L26.85 7.95" fill="#874f21" fill-rule="evenodd" stroke="none"/>
    <path d="M26.25 -9.75 L26.25 8.1 Q26.25 9.5 25.15 10.5 24.0 11.5 22.4 11.5 L7.25 11.5 Q5.65 11.5 4.5 10.5 3.35 9.5 3.35 8.1 L3.35 -9.75 Q3.35 -11.15 4.5 -12.2 5.65 -13.2 7.25 -13.2 L22.4 -13.2 Q24.0 -13.2 25.15 -12.2 26.25 -11.2 26.25 -9.75" fill="url(#gradient0)" fill-rule="evenodd" stroke="none"/>
    <path d="M5.8 22.4 L6.25 25.35 Q6.95 28.45 8.1 29.05 7.1 28.85 6.0 28.2 3.85 26.8 3.5 24.3 L2.45 19.1 3.45 20.55 Q4.7 22.05 5.8 22.4" fill="#492b17" fill-rule="evenodd" stroke="none"/>
    <path d="M24.5 22.4 Q26.15 21.55 27.6 19.2 L26.55 24.4 Q26.2 26.85 24.05 28.25 L21.95 29.1 Q23.1 28.5 23.9 25.4 L24.5 22.4" fill="#492b17" fill-rule="evenodd" stroke="none"/>
    <path d="M5.3 15.6 L4.6 17.0 Q4.0 18.45 4.6 18.8 L2.7 18.3 Q0.7 17.4 0.05 15.2 L0.15 11.6 1.0 13.45 Q2.45 15.35 5.3 15.6" fill="#a16b35" fill-rule="evenodd" stroke="none"/>
    <path d="M25.55 15.65 Q27.55 15.45 28.85 13.55 L29.7 11.75 29.75 15.35 Q29.15 17.55 27.15 18.45 L25.25 18.95 Q26.25 18.35 25.55 15.65" fill="#a16b35" fill-rule="evenodd" stroke="none"/>
  </g>
  <defs>
    <linearGradient gradientTransform="matrix(0.0, 0.0126, 0.0126, 0.0, 14.8, 0.0)" gradientUnits="userSpaceOnUse" id="gradient0" spreadMethod="pad" x1="-819.2" x2="819.2">
      <stop offset="0.0" stop-color="#6b411d"/>
      <stop offset="1.0" stop-color="#451d00"/>
    </linearGradient>
  </defs>
</svg>
