<?xml version="1.0" encoding="UTF-8" standalone="no"?>
<svg xmlns:xlink="http://www.w3.org/1999/xlink" height="22.45px" width="22.25px" xmlns="http://www.w3.org/2000/svg">
  <g transform="matrix(1.0, 0.0, 0.0, 1.0, -3.8, 11.1)">
    <path d="M25.9 0.9 L26.05 8.9 25.8 9.85 Q25.2 10.9 23.3 11.25 L6.05 11.35 Q5.45 11.15 4.85 10.6 3.65 9.45 3.85 7.65 L3.85 -0.65 Q4.05 -1.8 4.55 -2.95 5.6 -5.2 7.3 -5.05 7.5 -5.8 8.2 -6.5 9.65 -7.85 12.25 -7.5 L14.95 -8.7 Q17.95 -9.45 19.55 -7.1 L21.25 -7.05 Q22.95 -6.55 22.85 -4.5 L23.7 -4.0 25.35 -1.85 25.7 -1.1 Q26.05 -0.15 25.9 0.9" fill="#451d00" fill-rule="evenodd" stroke="none"/>
    <path d="M24.4 7.9 L24.2 8.7 Q23.65 9.55 22.05 9.85 20.4 8.75 18.85 8.75 18.3 8.75 17.45 9.35 L16.4 9.9 12.55 9.5 10.85 9.0 7.5 10.0 Q6.65 10.05 6.1 9.35 5.4 8.45 5.65 6.85 L6.45 3.1 Q5.65 0.7 5.65 -0.15 5.55 -1.4 6.2 -2.55 7.0 -4.0 8.55 -3.85 L9.35 -5.1 Q10.55 -6.25 12.75 -5.95 L15.0 -6.95 Q17.55 -7.55 18.9 -5.6 L20.35 -5.55 Q21.75 -5.15 21.7 -3.4 L22.4 -3.0 Q23.2 -2.35 23.8 -1.2 L24.1 -0.55 24.25 1.15 24.4 7.9" fill="#5b2500" fill-rule="evenodd" stroke="none"/>
    <path d="M12.1 -2.4 Q12.1 -1.9 11.55 -1.55 11.0 -1.2 10.2 -1.2 9.4 -1.2 8.8 -1.55 8.25 -1.9 8.25 -2.4 8.25 -2.9 8.8 -3.3 L10.2 -3.65 11.55 -3.3 Q12.1 -2.9 12.1 -2.4" fill="#662a01" fill-rule="evenodd" stroke="none"/>
    <path d="M17.2 1.9 Q17.2 2.55 16.5 3.05 L14.75 3.5 13.0 3.05 Q12.25 2.6 12.25 1.9 12.25 1.2 13.05 0.55 13.9 -0.2 14.85 -0.2 15.85 -0.2 16.55 0.55 17.2 1.2 17.2 1.9" fill="#3f1900" fill-rule="evenodd" stroke="none"/>
    <path d="M15.1 -3.8 L15.3 -3.9 15.2 -4.05 15.1 -3.8 M20.5 -8.7 Q21.4 -7.85 21.35 -6.5 21.3 -5.15 20.35 -4.05 19.5 -3.1 18.35 -2.85 L16.35 -3.0 Q17.3 -1.6 16.9 0.15 L16.35 1.65 15.8 2.4 Q15.05 3.1 14.15 2.7 13.3 2.35 13.2 1.55 L13.3 0.8 Q14.9 -0.85 14.0 -2.75 12.7 -2.0 11.1 -2.3 9.5 -2.65 8.35 -3.95 7.0 -5.45 6.95 -7.3 6.85 -9.1 8.1 -10.2 9.35 -11.3 11.15 -11.05 13.0 -10.8 14.3 -9.35 15.05 -8.6 15.4 -7.45 L15.85 -8.05 Q16.85 -9.15 18.2 -9.35 19.55 -9.5 20.5 -8.7" fill="#18a86c" fill-rule="evenodd" stroke="none"/>
    <path d="M13.35 -9.65 Q14.35 -8.6 14.4 -7.25 14.45 -5.85 13.5 -5.05 12.6 -4.2 11.25 -4.4 9.95 -4.6 8.95 -5.7 7.95 -6.8 7.9 -8.15 7.85 -9.45 8.8 -10.3 9.7 -11.1 11.05 -10.95 12.4 -10.75 13.35 -9.65" fill="#16d37d" fill-rule="evenodd" stroke="none"/>
    <path d="M16.45 -7.9 Q17.1 -8.6 17.95 -8.7 18.8 -8.85 19.4 -8.3 19.95 -7.75 19.95 -6.9 19.9 -6.05 19.3 -5.35 18.65 -4.65 17.8 -4.55 16.95 -4.45 16.35 -4.95 15.8 -5.45 15.8 -6.35 15.85 -7.2 16.45 -7.9" fill="#16d37d" fill-rule="evenodd" stroke="none"/>
    <path d="M11.55 -9.1 Q11.55 -8.2 10.6 -8.2 10.2 -8.2 9.9 -8.45 9.65 -8.7 9.65 -9.1 9.65 -10.0 10.6 -10.0 11.55 -10.0 11.55 -9.1" fill="#40ffa4" fill-rule="evenodd" stroke="none"/>
    <path d="M19.55 -7.45 Q19.55 -6.85 18.95 -6.85 18.3 -6.85 18.3 -7.45 18.3 -8.05 18.95 -8.05 19.55 -8.05 19.55 -7.45" fill="#40ffa4" fill-rule="evenodd" stroke="none"/>
    <path d="M11.4 7.25 Q11.4 7.75 10.85 8.1 L9.5 8.45 8.15 8.1 Q7.55 7.75 7.55 7.25 7.55 6.75 8.15 6.35 8.7 6.0 9.5 6.0 10.3 6.0 10.85 6.35 11.4 6.75 11.4 7.25" fill="#732f01" fill-rule="evenodd" stroke="none"/>
    <path d="M22.6 5.25 L22.15 5.85 21.05 6.15 20.0 5.85 Q19.55 5.6 19.55 5.25 19.55 4.9 20.0 4.6 L21.05 4.35 22.15 4.6 22.6 5.25" fill="#853701" fill-rule="evenodd" stroke="none"/>
    <path d="M21.5 -0.4 Q21.5 -0.1 20.75 -0.1 19.95 -0.1 19.95 -0.4 19.95 -0.75 20.75 -0.75 21.5 -0.75 21.5 -0.4" fill="#662a01" fill-rule="evenodd" stroke="none"/>
    <path d="M17.05 5.55 Q17.05 6.25 15.95 6.25 L15.2 6.05 Q14.85 5.85 14.85 5.55 14.85 5.3 15.2 5.1 L15.95 4.9 Q17.05 4.9 17.05 5.55" fill="#662a01" fill-rule="evenodd" stroke="none"/>
  </g>
</svg>
