<?xml version="1.0" encoding="UTF-8" standalone="no"?>
<svg xmlns:xlink="http://www.w3.org/1999/xlink" height="47.4px" width="32.0px" xmlns="http://www.w3.org/2000/svg">
  <g transform="matrix(1.0, 0.0, 0.0, 1.0, -43.75, 0.5)">
    <path d="M74.15 2.85 Q74.15 3.4 73.75 3.85 L73.35 4.15 73.35 4.45 73.5 4.6 Q74.75 6.0 74.75 8.05 L74.75 39.0 74.55 41.0 74.75 40.4 Q74.55 43.3 72.25 44.9 L71.6 45.35 70.0 45.9 69.9 45.9 69.65 45.4 68.95 44.5 59.55 44.2 50.25 44.5 49.1 45.9 Q48.35 45.75 47.55 45.25 L47.05 44.9 Q44.95 43.3 44.75 40.4 L44.9 40.65 44.75 39.0 44.75 8.05 Q44.75 6.15 45.9 4.75 L45.9 4.25 45.45 3.95 Q45.1 3.6 45.1 3.05 45.1 2.5 45.45 2.1 45.85 1.75 46.4 1.75 46.95 1.75 47.3 2.1 47.7 2.5 47.7 3.05 L47.65 3.4 49.05 3.15 57.3 3.15 Q57.3 2.1 58.1 1.3 58.85 0.5 59.95 0.5 61.1 0.5 61.85 1.3 62.65 2.1 62.65 3.15 L70.45 3.15 71.5 3.3 71.4 2.85 Q71.4 2.3 71.8 1.85 72.25 1.45 72.8 1.45 73.35 1.45 73.75 1.85 74.15 2.3 74.15 2.85 Z" fill="none" stroke="#480000" stroke-linecap="round" stroke-linejoin="round" stroke-width="2.0"/>
    <path d="M74.75 8.05 L74.75 39.0 74.45 41.3 73.6 43.3 Q71.6 45.9 69.9 45.9 L68.8 43.9 50.75 43.9 49.1 45.9 Q48.25 45.9 47.25 45.0 46.25 44.15 45.7 43.1 44.75 41.35 44.75 39.0 L44.75 8.05 Q44.75 6.05 46.0 4.6 47.3 3.15 49.05 3.15 L70.45 3.15 Q72.25 3.15 73.5 4.6 74.75 6.0 74.75 8.05" fill="#b79400" fill-rule="evenodd" stroke="none"/>
    <path d="M72.75 4.5 Q73.95 5.85 73.95 7.7 L73.95 36.5 Q73.95 38.4 72.75 39.7 71.55 41.05 69.85 41.05 L49.4 41.05 Q47.7 41.05 46.5 39.7 45.3 38.4 45.3 36.5 L45.3 7.7 Q45.3 5.85 46.5 4.5 47.7 3.15 49.4 3.15 L69.85 3.15 Q71.55 3.15 72.75 4.5" fill="#f3b100" fill-rule="evenodd" stroke="none"/>
    <path d="M73.15 8.3 L73.15 35.45 Q73.15 37.2 72.0 38.45 70.9 39.7 69.3 39.7 L50.15 39.7 Q48.55 39.7 47.4 38.45 46.3 37.2 46.3 35.45 L46.3 8.3 Q46.3 6.55 47.4 5.3 48.55 4.05 50.15 4.05 L69.3 4.05 Q70.9 4.05 72.0 5.3 73.15 6.55 73.15 8.3" fill="#560400" fill-rule="evenodd" stroke="none"/>
    <path d="M71.8 7.95 L71.8 32.85 Q71.8 34.5 70.75 35.65 69.7 36.8 68.25 36.8 L50.65 36.8 Q49.2 36.8 48.15 35.65 47.15 34.5 47.15 32.85 L47.15 7.95 Q47.15 6.35 48.15 5.2 49.2 4.05 50.65 4.05 L68.25 4.05 Q69.7 4.05 70.75 5.2 71.8 6.35 71.8 7.95" fill="#820c00" fill-rule="evenodd" stroke="none"/>
    <path d="M71.15 9.6 L71.15 31.25 Q71.15 32.65 70.15 33.65 69.2 34.65 67.8 34.65 L51.15 34.65 Q49.75 34.65 48.8 33.65 47.8 32.65 47.8 31.25 L47.8 9.6 Q47.8 8.2 48.8 7.2 49.75 6.2 51.15 6.2 L67.8 6.2 Q69.2 6.2 70.15 7.2 71.15 8.2 71.15 9.6" fill="#660000" fill-rule="evenodd" stroke="none"/>
    <path d="M59.7 43.15 Q62.55 43.05 66.25 43.25 L69.4 43.4 Q72.35 43.25 73.85 41.8 74.6 41.1 74.75 40.4 74.55 43.3 72.25 44.9 71.1 45.7 70.0 45.9 L68.95 44.5 59.55 44.2 50.1 44.5 49.1 45.9 Q48.1 45.7 47.05 44.9 44.95 43.3 44.75 40.4 L45.5 41.8 Q46.85 43.25 49.7 43.4 L53.0 43.25 Q56.85 43.05 59.7 43.15" fill="#8e3a67" fill-rule="evenodd" stroke="none"/>
    <path d="M47.3 39.05 Q47.3 39.75 46.6 39.75 L46.15 39.55 45.95 39.05 45.95 36.9 Q45.95 36.2 46.6 36.2 47.3 36.2 47.3 36.9 L47.3 39.05" fill="#b77500" fill-rule="evenodd" stroke="none"/>
    <path d="M48.3 35.45 Q48.3 36.2 47.8 36.75 47.3 37.25 46.55 37.25 45.85 37.25 45.3 36.75 44.8 36.2 44.8 35.45 44.8 34.75 45.3 34.2 45.85 33.7 46.55 33.7 47.3 33.7 47.8 34.2 48.3 34.75 48.3 35.45" fill="#f3b100" fill-rule="evenodd" stroke="none"/>
    <path d="M47.8 34.9 L47.45 35.5 46.6 35.75 45.7 35.5 Q45.35 35.25 45.35 34.9 45.35 34.05 46.6 34.05 47.1 34.05 47.45 34.3 47.8 34.55 47.8 34.9" fill="#fff10e" fill-rule="evenodd" stroke="none"/>
    <path d="M46.9 5.65 Q46.9 6.15 46.4 6.15 45.9 6.15 45.9 5.65 L45.9 4.05 Q45.9 3.55 46.4 3.55 46.9 3.55 46.9 4.05 L46.9 5.65" fill="#b77500" fill-rule="evenodd" stroke="none"/>
    <path d="M47.7 3.05 Q47.7 3.6 47.3 3.95 46.95 4.35 46.4 4.35 45.85 4.35 45.45 3.95 45.1 3.6 45.1 3.05 45.1 2.5 45.45 2.1 45.85 1.75 46.4 1.75 46.95 1.75 47.3 2.1 47.7 2.5 47.7 3.05" fill="#f3b100" fill-rule="evenodd" stroke="none"/>
    <path d="M47.3 2.6 Q47.3 3.25 46.4 3.25 45.5 3.25 45.5 2.6 45.5 2.0 46.4 2.0 47.3 2.0 47.3 2.6" fill="#fff10e" fill-rule="evenodd" stroke="none"/>
    <path d="M73.35 5.65 Q73.35 6.15 72.85 6.15 72.3 6.15 72.3 5.65 L72.3 3.95 Q72.3 3.4 72.85 3.4 73.35 3.4 73.35 3.95 L73.35 5.65" fill="#b77500" fill-rule="evenodd" stroke="none"/>
    <path d="M74.15 2.85 Q74.15 3.4 73.75 3.85 73.35 4.25 72.8 4.25 72.25 4.25 71.8 3.85 71.4 3.4 71.4 2.85 71.4 2.3 71.8 1.85 72.25 1.45 72.8 1.45 73.35 1.45 73.75 1.85 74.15 2.3 74.15 2.85" fill="#f3b100" fill-rule="evenodd" stroke="none"/>
    <path d="M73.75 2.4 Q73.75 3.05 72.8 3.05 71.85 3.05 71.85 2.4 71.85 1.75 72.8 1.75 73.75 1.75 73.75 2.4" fill="#fff10e" fill-rule="evenodd" stroke="none"/>
    <path d="M73.1 39.05 Q73.1 39.75 72.4 39.75 72.15 39.75 71.95 39.55 L71.75 39.05 71.75 36.9 Q71.75 36.2 72.4 36.2 73.1 36.2 73.1 36.9 L73.1 39.05" fill="#b77500" fill-rule="evenodd" stroke="none"/>
    <path d="M74.15 35.45 Q74.15 36.2 73.65 36.75 73.1 37.25 72.35 37.25 71.65 37.25 71.1 36.75 70.6 36.2 70.6 35.45 70.6 34.75 71.1 34.2 71.65 33.7 72.35 33.7 73.1 33.7 73.65 34.2 74.15 34.75 74.15 35.45" fill="#f3b100" fill-rule="evenodd" stroke="none"/>
    <path d="M73.6 34.9 Q73.6 35.25 73.25 35.5 L72.4 35.75 71.5 35.5 Q71.15 35.25 71.15 34.9 71.15 34.05 72.4 34.05 L73.25 34.3 Q73.6 34.55 73.6 34.9" fill="#fff10e" fill-rule="evenodd" stroke="none"/>
    <path d="M61.85 5.3 L61.25 5.75 61.7 5.85 61.85 5.85 Q63.9 6.15 64.9 7.0 65.7 7.7 66.1 8.7 L66.2 8.8 66.6 9.1 67.45 9.25 Q68.25 9.25 68.95 9.7 69.25 9.4 69.7 9.4 70.15 9.4 70.45 9.7 L70.75 10.45 70.6 11.1 Q71.75 12.35 72.3 14.0 72.85 14.0 73.2 14.35 73.6 14.75 73.6 15.3 73.6 15.85 73.2 16.2 L72.75 16.55 73.15 19.25 73.3 21.1 73.5 21.3 Q73.9 21.65 73.9 22.2 73.9 22.75 73.5 23.15 L72.95 23.45 71.9 25.7 70.95 26.8 70.85 26.9 Q70.6 30.1 70.15 31.05 68.25 35.55 62.8 36.45 L61.65 37.7 61.2 37.7 61.25 37.9 61.15 37.7 58.1 37.7 57.05 36.55 55.8 36.35 Q53.3 35.8 51.55 34.55 L50.4 33.6 Q49.35 32.6 48.75 31.3 L48.35 30.25 48.1 27.1 47.25 25.85 47.1 25.55 Q46.5 24.4 46.2 23.1 L45.5 22.65 Q45.15 22.25 45.2 21.7 L45.35 21.2 45.65 20.8 45.9 20.65 Q45.85 19.65 45.95 18.55 L46.45 15.9 46.35 15.8 Q46.0 15.4 46.05 14.85 46.1 14.3 46.5 13.95 46.8 13.7 47.2 13.65 47.7 12.55 48.35 11.6 48.75 11.05 49.3 10.65 L49.25 10.25 49.6 9.55 Q49.95 9.25 50.4 9.3 50.8 9.3 51.1 9.65 L51.15 9.7 51.6 9.65 51.7 9.6 53.0 8.85 53.1 8.6 53.15 8.6 53.8 7.7 55.15 6.7 Q56.65 5.9 58.65 5.75 L58.1 5.3 Q57.3 4.55 57.3 3.45 57.3 2.35 58.1 1.55 58.85 0.75 59.95 0.75 61.1 0.75 61.85 1.55 62.65 2.35 62.65 3.45 62.65 4.55 61.85 5.3 Z" fill="none" stroke="#390900" stroke-linecap="round" stroke-linejoin="round" stroke-width="1.0"/>
    <path d="M70.75 10.45 L70.45 11.25 69.7 11.55 Q69.25 11.55 68.95 11.25 68.65 10.9 68.65 10.45 68.65 10.05 68.95 9.7 69.25 9.4 69.7 9.4 70.15 9.4 70.45 9.7 L70.75 10.45" fill="#ffd675" fill-rule="evenodd" stroke="none"/>
    <path d="M73.6 15.3 Q73.6 15.85 73.2 16.2 72.85 16.6 72.3 16.6 71.75 16.6 71.35 16.2 70.95 15.85 70.95 15.3 70.95 14.75 71.35 14.35 71.75 14.0 72.3 14.0 72.85 14.0 73.2 14.35 73.6 14.75 73.6 15.3" fill="#ffd675" fill-rule="evenodd" stroke="none"/>
    <path d="M73.9 22.2 Q73.9 22.75 73.5 23.15 L72.55 23.5 71.65 23.15 Q71.25 22.75 71.25 22.2 71.25 21.7 71.65 21.3 72.05 20.9 72.55 20.9 73.1 20.9 73.5 21.3 73.9 21.65 73.9 22.2" fill="#ffd675" fill-rule="evenodd" stroke="none"/>
    <path d="M70.3 9.8 L69.95 10.1 Q69.55 10.1 69.55 9.8 69.55 9.5 69.95 9.5 70.3 9.5 70.3 9.8" fill="#fffefd" fill-rule="evenodd" stroke="none"/>
    <path d="M73.25 14.75 L72.7 14.85 Q72.35 14.7 72.45 14.4 72.65 14.1 73.0 14.25 73.35 14.4 73.25 14.75" fill="#fffefd" fill-rule="evenodd" stroke="none"/>
    <path d="M73.65 22.15 L73.25 21.9 Q73.15 21.6 73.35 21.5 73.65 21.3 73.75 21.7 73.9 22.0 73.65 22.15" fill="#fffefd" fill-rule="evenodd" stroke="none"/>
    <path d="M49.25 10.25 L49.6 9.55 Q49.95 9.25 50.4 9.3 50.8 9.3 51.1 9.65 L51.35 10.4 51.0 11.15 50.2 11.4 49.5 11.05 Q49.2 10.7 49.25 10.25" fill="#ffd675" fill-rule="evenodd" stroke="none"/>
    <path d="M46.5 13.95 Q46.9 13.6 47.45 13.65 48.0 13.7 48.35 14.1 48.7 14.5 48.65 15.05 48.6 15.6 48.2 15.95 47.8 16.3 47.25 16.25 46.75 16.2 46.35 15.8 46.0 15.4 46.05 14.85 46.1 14.3 46.5 13.95" fill="#ffd675" fill-rule="evenodd" stroke="none"/>
    <path d="M46.6 20.5 Q47.15 20.55 47.5 20.95 47.9 21.4 47.8 21.9 47.75 22.45 47.35 22.8 46.95 23.15 46.4 23.1 45.85 23.05 45.5 22.65 45.15 22.25 45.2 21.7 45.25 21.2 45.65 20.8 46.1 20.45 46.6 20.5" fill="#ffd675" fill-rule="evenodd" stroke="none"/>
    <path d="M49.75 9.65 Q49.75 9.3 50.15 9.4 L50.5 9.7 Q50.5 10.05 50.1 9.95 49.75 9.95 49.75 9.65" fill="#fffefd" fill-rule="evenodd" stroke="none"/>
    <path d="M46.45 14.3 Q46.35 14.0 46.75 13.85 47.2 13.75 47.25 14.05 47.35 14.3 46.95 14.5 46.5 14.6 46.45 14.3" fill="#fffefd" fill-rule="evenodd" stroke="none"/>
    <path d="M45.45 21.65 Q45.25 21.6 45.35 21.2 45.55 20.9 45.8 21.05 46.0 21.15 45.85 21.5 45.65 21.85 45.45 21.65" fill="#fffefd" fill-rule="evenodd" stroke="none"/>
    <path d="M48.05 26.5 Q56.55 14.9 64.6 18.85 68.65 20.85 70.95 25.15 70.7 29.85 70.15 31.05 67.85 36.4 60.55 36.65 53.85 36.95 50.4 33.6 49.35 32.6 48.75 31.3 L48.35 30.25 48.05 26.5" fill="#ffb000" fill-rule="evenodd" stroke="none"/>
    <path d="M73.15 19.25 Q73.75 23.4 71.55 26.1 69.7 28.4 65.65 29.9 67.0 28.7 66.8 27.5 66.4 25.2 58.6 25.4 55.15 25.5 54.65 28.2 54.5 28.85 54.5 29.9 54.4 30.65 54.0 30.55 49.8 29.45 47.75 26.6 45.5 23.5 45.95 18.55 46.35 14.5 48.35 11.6 49.25 10.3 51.05 9.8 52.75 9.35 53.0 8.85 53.55 7.6 55.15 6.7 57.0 5.7 59.6 5.7 63.4 5.7 64.9 7.0 65.7 7.7 66.1 8.75 66.6 9.25 67.45 9.25 68.35 9.25 69.1 9.8 71.55 11.5 72.35 14.2 L73.15 19.25" fill="#d41e00" fill-rule="evenodd" stroke="none"/>
    <path d="M55.2 12.45 Q54.4 12.2 52.95 12.95 51.45 13.75 50.35 15.1 49.05 16.75 48.55 18.8 47.95 21.3 48.75 23.6 49.25 24.9 50.75 25.8 52.9 27.15 54.65 24.45 55.2 23.65 56.8 22.7 58.1 21.95 58.45 20.5 59.3 17.15 58.95 15.65 L58.2 14.35 Q57.8 13.5 56.85 13.05 L55.2 12.45 M69.8 13.4 Q71.65 15.7 71.75 18.7 71.85 21.55 70.4 26.65 L67.25 28.4 60.4 24.8 52.5 27.9 52.2 27.7 50.5 27.95 Q49.6 28.1 49.65 28.4 L48.1 27.0 Q46.65 21.9 46.75 19.05 46.85 16.05 48.7 13.75 51.0 10.85 54.3 10.65 L54.3 10.6 Q52.7 9.55 51.65 9.6 52.55 9.5 53.0 8.85 L53.1 8.6 53.75 8.7 Q54.55 8.85 55.1 9.2 L56.7 7.55 Q57.9 6.65 59.85 6.8 62.65 7.0 63.4 7.8 L64.15 9.3 Q65.35 8.45 65.8 8.45 L66.2 8.8 67.15 9.4 Q65.65 9.75 64.85 10.4 67.95 11.15 69.8 13.4 M69.85 22.6 Q70.65 20.4 70.0 17.9 69.45 15.8 68.25 14.3 67.35 13.15 66.05 12.6 L63.9 12.4 62.25 12.85 Q61.15 13.3 60.6 14.45 59.8 15.95 60.9 20.2 L61.55 21.55 Q62.15 22.55 62.45 22.6 63.7 22.8 65.0 24.2 L66.6 26.1 Q67.4 26.8 68.45 25.4 69.25 24.3 69.85 22.6" fill="#ba1a00" fill-rule="evenodd" stroke="none"/>
    <path d="M64.4 10.15 Q64.4 11.35 63.05 12.2 61.75 13.05 59.85 13.05 57.95 13.05 56.65 12.2 55.3 11.35 55.3 10.15 55.3 8.95 56.75 8.05 58.15 7.2 60.05 7.2 61.95 7.2 63.2 8.05 64.4 8.9 64.4 10.15" fill="#9e1600" fill-rule="evenodd" stroke="none"/>
    <path d="M72.85 23.25 Q72.2 25.7 70.95 26.8 67.4 30.3 65.4 30.55 65.7 29.35 65.2 28.15 64.1 25.7 59.85 25.75 56.45 25.75 55.2 27.45 54.45 28.5 54.5 30.55 L52.5 30.1 Q50.2 29.3 48.65 27.7 47.05 26.1 46.4 23.75 L45.9 20.8 Q46.75 24.15 47.25 23.15 47.7 22.4 48.8 24.45 49.85 26.3 51.65 27.2 53.5 28.1 54.2 26.8 54.95 25.3 55.8 24.8 57.1 23.95 59.85 24.1 L62.85 24.4 Q64.8 24.95 65.85 26.8 L66.7 27.0 Q67.9 26.8 69.6 24.8 70.7 23.35 71.1 24.0 71.55 24.85 72.35 23.45 L73.25 21.0 72.85 23.25" fill="#b01a00" fill-rule="evenodd" stroke="none"/>
    <path d="M66.1 32.5 Q67.05 32.3 67.35 31.9 L67.65 33.6 65.9 35.0 Q63.4 36.35 59.65 36.35 54.4 36.35 51.35 33.55 L51.25 30.55 Q54.65 32.75 55.65 31.9 55.85 31.7 55.25 30.25 55.3 29.3 55.9 28.4 57.05 26.5 59.8 26.5 62.1 26.5 63.2 27.5 64.25 28.35 64.5 30.25 L64.4 31.25 64.4 32.35 66.1 32.5" fill="#fffffb" fill-rule="evenodd" stroke="none"/>
    <path d="M64.8 31.65 Q65.4 32.0 67.1 30.5 L68.95 28.55 67.65 33.95 Q67.15 34.65 65.9 35.3 63.4 36.65 59.65 36.65 53.85 36.65 51.25 34.3 L50.5 29.2 52.35 30.6 Q54.35 31.9 54.95 31.35 L55.25 30.55 Q55.3 29.6 55.9 28.7 57.05 26.8 59.8 26.8 62.1 26.8 63.2 27.8 64.25 28.65 64.5 30.55 L64.6 31.05 64.8 31.65" fill="#b78300" fill-rule="evenodd" stroke="none"/>
    <path d="M64.75 32.25 Q65.3 32.65 66.9 31.25 L68.65 29.45 68.0 32.45 66.05 33.85 Q63.4 35.25 59.6 35.25 54.25 35.25 51.25 32.5 L50.55 30.0 52.35 31.3 Q54.25 32.55 54.85 32.0 L55.2 31.2 Q55.25 30.25 55.85 29.35 57.0 27.45 59.75 27.45 64.0 27.45 64.4 31.2 L64.5 31.7 64.75 32.25" fill="#fff10e" fill-rule="evenodd" stroke="none"/>
    <path d="M53.8 7.7 Q57.85 5.05 61.85 5.85 63.9 6.25 65.1 7.2 L64.4 7.75 Q61.6 5.55 58.15 6.5 L55.3 7.85 53.8 7.7" fill="#fc673f" fill-rule="evenodd" stroke="none"/>
    <path d="M59.15 5.4 L60.9 5.4 61.3 6.65 62.3 8.8 Q63.75 9.55 63.45 10.85 63.3 11.6 62.3 12.1 L59.95 12.6 Q58.65 12.6 57.75 12.05 56.8 11.55 56.7 10.8 56.55 9.85 57.1 9.3 L58.25 8.65 Q59.05 7.4 59.15 5.4" fill="#c68900" fill-rule="evenodd" stroke="none"/>
    <path d="M58.1 37.7 L55.55 34.9 55.55 31.0 58.1 28.2 61.65 28.2 64.15 31.0 64.15 34.9 61.65 37.7 58.1 37.7" fill="#a56e00" fill-rule="evenodd" stroke="none"/>
    <path d="M58.7 30.25 L57.0 32.15 57.0 34.8 58.7 36.7 61.05 36.7 62.75 34.8 62.75 32.15 61.05 30.25 58.7 30.25 M63.75 35.2 L61.5 37.7 58.25 37.7 56.0 35.2 56.0 31.75 58.25 29.25 61.5 29.25 63.75 31.75 63.75 35.2" fill="#7f007b" fill-rule="evenodd" stroke="none"/>
    <path d="M58.45 37.7 L56.5 35.5 56.5 32.45 58.45 30.25 61.25 30.25 63.25 32.45 63.25 35.5 61.25 37.7 58.45 37.7" fill="#ff7df3" fill-rule="evenodd" stroke="none"/>
    <path d="M59.15 36.75 L58.1 35.6 58.1 34.0 59.15 32.85 60.6 32.85 61.6 34.0 61.6 35.6 60.6 36.75 59.15 36.75" fill="#b700b7" fill-rule="evenodd" stroke="none"/>
    <path d="M59.25 36.4 L58.4 35.45 58.4 34.95 61.3 34.5 61.3 35.45 60.45 36.4 59.25 36.4" fill="#ff00f3" fill-rule="evenodd" stroke="none"/>
    <path d="M60.6 32.85 L59.15 32.85 58.45 30.25 61.25 30.25 60.6 32.85" fill="#f1c7ff" fill-rule="evenodd" stroke="none"/>
    <path d="M59.15 32.85 L58.1 34.0 56.5 32.45 58.45 30.25 59.15 32.85" fill="#ff00f3" fill-rule="evenodd" stroke="none"/>
    <path d="M58.1 34.0 L58.1 35.6 56.5 35.5 56.5 32.45 58.1 34.0" fill="#f72df7" fill-rule="evenodd" stroke="none"/>
    <path d="M60.6 32.85 L61.25 30.25 63.25 32.4 61.6 34.0 60.6 32.85" fill="#ff00f3" fill-rule="evenodd" stroke="none"/>
    <path d="M56.65 32.25 L58.1 33.6 59.05 32.6 59.15 33.1 58.1 34.0 56.5 32.55 56.65 32.25" fill="#f04dff" fill-rule="evenodd" stroke="none"/>
    <path d="M61.6 34.0 L63.25 32.5 63.25 35.5 61.6 35.6 61.6 34.0" fill="#ec2df7" fill-rule="evenodd" stroke="none"/>
    <path d="M59.0 36.6 L59.4 36.75 58.45 37.7 59.0 36.6" fill="#b500e2" fill-rule="evenodd" stroke="none"/>
    <path d="M60.9 36.4 L61.25 37.9 60.6 36.75 60.9 36.4" fill="#e200cb" fill-rule="evenodd" stroke="none"/>
    <path d="M57.3 18.8 Q56.3 20.55 54.4 21.5 52.35 22.5 50.95 21.7 49.55 20.95 49.4 19.15 49.2 17.45 50.2 15.7 51.15 13.95 53.05 13.05 L56.45 12.85 Q57.85 13.65 58.1 15.4 58.25 17.05 57.3 18.8" fill="#ff391f" fill-rule="evenodd" stroke="none"/>
    <path d="M56.65 17.2 Q56.0 18.35 54.7 19.0 L52.4 19.15 Q51.5 18.6 51.4 17.4 51.3 16.25 51.95 15.1 52.6 13.95 53.85 13.35 L56.1 13.25 Q57.05 13.75 57.2 14.95 57.3 16.05 56.65 17.2" fill="#fc673f" fill-rule="evenodd" stroke="none"/>
    <path d="M62.3 18.8 Q61.35 17.05 61.55 15.4 61.75 13.65 63.15 12.85 64.55 12.1 66.5 13.05 68.45 13.95 69.4 15.7 70.4 17.45 70.25 19.15 70.05 20.95 68.65 21.7 67.25 22.5 65.2 21.5 63.3 20.55 62.3 18.8" fill="#ff391f" fill-rule="evenodd" stroke="none"/>
    <path d="M62.9 17.2 Q62.3 16.05 62.4 14.95 62.55 13.75 63.5 13.25 L65.75 13.35 Q67.0 13.95 67.65 15.1 68.3 16.25 68.2 17.4 68.1 18.6 67.15 19.15 L64.85 19.0 Q63.55 18.35 62.9 17.2" fill="#fc673f" fill-rule="evenodd" stroke="none"/>
    <path d="M52.95 20.8 L52.05 21.7 Q51.5 21.95 50.95 21.7 50.45 21.45 50.25 20.8 50.1 20.2 50.4 19.55 50.75 18.9 51.35 18.65 51.95 18.4 52.45 18.65 53.0 18.9 53.15 19.55 53.3 20.15 52.95 20.8" fill="#d81e00" fill-rule="evenodd" stroke="none"/>
    <path d="M53.2 19.55 Q53.2 20.1 52.8 20.45 52.45 20.85 51.9 20.85 51.4 20.85 51.0 20.45 50.65 20.1 50.65 19.55 50.65 19.05 51.0 18.65 51.4 18.3 51.9 18.3 52.45 18.3 52.8 18.65 53.2 19.05 53.2 19.55" fill="#ffd675" fill-rule="evenodd" stroke="none"/>
    <path d="M52.6 19.0 Q52.6 19.5 51.9 19.5 51.25 19.5 51.25 19.0 51.25 18.55 51.9 18.55 52.6 18.55 52.6 19.0" fill="#fffefd" fill-rule="evenodd" stroke="none"/>
    <path d="M52.85 26.5 L52.6 27.15 51.95 27.4 51.3 27.15 Q51.05 26.9 51.05 26.5 51.05 26.15 51.3 25.85 51.6 25.6 51.95 25.6 L52.6 25.85 52.85 26.5" fill="#ffd675" fill-rule="evenodd" stroke="none"/>
    <path d="M52.4 26.1 Q52.4 26.45 51.95 26.45 51.45 26.45 51.45 26.1 51.45 25.75 51.95 25.75 52.4 25.75 52.4 26.1" fill="#fffefd" fill-rule="evenodd" stroke="none"/>
    <path d="M55.75 15.3 L55.45 15.85 54.65 16.05 53.9 15.85 53.55 15.3 Q53.55 15.0 53.9 14.8 54.2 14.55 54.65 14.55 L55.45 14.8 55.75 15.3" fill="#d81e00" fill-rule="evenodd" stroke="none"/>
    <path d="M55.55 14.8 L55.3 15.45 54.65 15.7 54.0 15.45 Q53.75 15.2 53.75 14.8 53.75 14.45 54.0 14.15 54.3 13.9 54.65 13.9 55.05 13.9 55.3 14.15 L55.55 14.8" fill="#ffd675" fill-rule="evenodd" stroke="none"/>
    <path d="M55.15 14.4 Q55.15 14.75 54.65 14.75 54.2 14.75 54.2 14.4 54.2 14.1 54.65 14.1 L55.15 14.4" fill="#fffefd" fill-rule="evenodd" stroke="none"/>
    <path d="M66.05 20.85 Q65.75 20.2 65.9 19.55 66.1 18.9 66.6 18.65 67.15 18.4 67.7 18.65 L68.65 19.55 68.8 20.85 Q68.65 21.5 68.1 21.75 L67.0 21.7 66.05 20.85" fill="#d81e00" fill-rule="evenodd" stroke="none"/>
    <path d="M65.85 19.6 Q65.85 19.05 66.2 18.7 66.6 18.3 67.1 18.3 67.65 18.3 68.0 18.7 68.4 19.1 68.4 19.6 68.4 20.1 68.0 20.5 L67.1 20.85 Q66.6 20.85 66.2 20.5 65.85 20.15 65.85 19.6" fill="#ffd675" fill-rule="evenodd" stroke="none"/>
    <path d="M66.45 19.05 Q66.45 18.55 67.1 18.55 67.8 18.55 67.8 19.05 L67.1 19.5 Q66.45 19.5 66.45 19.05" fill="#fffefd" fill-rule="evenodd" stroke="none"/>
    <path d="M66.2 26.5 L66.45 25.85 Q66.75 25.6 67.1 25.6 67.5 25.6 67.75 25.85 L68.0 26.5 67.75 27.15 67.1 27.4 66.45 27.15 66.2 26.5" fill="#ffd675" fill-rule="evenodd" stroke="none"/>
    <path d="M66.6 26.1 Q66.6 25.8 67.1 25.8 67.6 25.8 67.6 26.1 67.6 26.45 67.1 26.45 66.6 26.45 66.6 26.1" fill="#fffefd" fill-rule="evenodd" stroke="none"/>
    <path d="M63.25 15.3 Q63.25 14.6 64.35 14.6 65.45 14.6 65.45 15.3 L65.15 15.85 64.35 16.05 63.6 15.85 Q63.25 15.6 63.25 15.3" fill="#d81e00" fill-rule="evenodd" stroke="none"/>
    <path d="M63.45 14.8 L63.7 14.15 Q64.0 13.9 64.35 13.9 64.75 13.9 65.0 14.15 L65.25 14.8 65.0 15.45 64.35 15.7 63.7 15.45 63.45 14.8" fill="#ffd675" fill-rule="evenodd" stroke="none"/>
    <path d="M63.9 14.45 Q63.9 14.1 64.35 14.1 64.85 14.1 64.85 14.45 64.85 14.75 64.35 14.75 L63.9 14.45" fill="#fffefd" fill-rule="evenodd" stroke="none"/>
    <path d="M62.65 3.45 Q62.65 4.55 61.85 5.3 61.05 6.1 59.95 6.1 58.85 6.1 58.1 5.3 57.3 4.55 57.3 3.45 57.3 2.35 58.1 1.55 58.85 0.75 59.95 0.75 61.1 0.75 61.85 1.55 62.65 2.35 62.65 3.45" fill="#f3b100" fill-rule="evenodd" stroke="none"/>
    <path d="M61.7 2.35 Q61.7 2.85 61.2 3.2 L59.95 3.55 58.75 3.2 Q58.25 2.85 58.25 2.35 58.25 1.85 58.75 1.5 59.25 1.15 59.95 1.15 60.65 1.15 61.2 1.5 61.7 1.85 61.7 2.35" fill="#fff10e" fill-rule="evenodd" stroke="none"/>
    <path d="M63.1 10.35 L62.7 11.4 Q61.9 12.5 59.85 12.4 L58.4 12.2 Q57.0 11.75 57.05 10.3 L57.8 11.2 Q58.75 12.05 59.85 12.05 60.95 12.05 62.0 11.45 63.1 10.85 63.1 10.35" fill="#fff10e" fill-rule="evenodd" stroke="none"/>
    <path d="M67.15 9.4 Q69.95 9.6 71.5 12.7 72.25 14.2 72.45 15.7 72.0 13.1 68.85 11.35 L65.85 10.15 67.15 9.4" fill="#fc673f" fill-rule="evenodd" stroke="none"/>
    <path d="M46.75 14.75 Q48.05 11.3 50.1 10.1 51.15 9.55 51.9 9.65 53.45 10.75 51.9 10.45 L51.7 10.45 Q50.7 10.5 48.65 12.65 L46.75 14.75" fill="#fc673f" fill-rule="evenodd" stroke="none"/>
  </g>
</svg>
