<?xml version="1.0" encoding="UTF-8" standalone="no"?>
<svg xmlns:xlink="http://www.w3.org/1999/xlink" height="76.1px" width="7.3px" xmlns="http://www.w3.org/2000/svg">
  <g transform="matrix(1.0, 0.0, 0.0, 1.0, 3.15, -0.2)">
    <path d="M0.7 69.8 L1.1 69.2 1.1 69.15 0.7 68.5 0.25 69.15 0.3 69.2 0.7 69.8 M0.3 63.15 L0.7 63.75 1.1 63.15 1.2 63.0 0.5 61.85 -0.1 62.8 0.3 63.15 M0.5 57.1 L0.85 56.55 0.9 56.45 0.5 55.8 0.05 56.45 0.15 56.55 0.5 57.1 M0.5 51.05 L0.85 50.5 1.0 50.3 0.5 49.55 0.0 50.3 0.15 50.5 0.5 51.05 M0.5 44.8 L0.85 44.25 0.9 44.15 0.5 43.5 0.05 44.15 0.15 44.25 0.5 44.8 M0.5 38.75 L0.85 38.2 1.05 37.95 0.5 37.1 -0.1 37.95 0.15 38.2 0.5 38.75 M0.5 32.35 L0.85 31.8 0.9 31.7 0.5 31.05 0.05 31.7 0.15 31.8 0.5 32.35 M0.85 25.75 L1.05 25.5 0.35 24.4 -0.25 25.4 0.15 25.75 0.5 26.3 0.85 25.75 M0.35 19.65 L0.7 19.15 0.8 19.0 0.35 18.35 -0.05 19.0 0.05 19.15 0.35 19.65 M0.7 13.1 L0.85 12.9 0.35 12.1 -0.15 12.9 0.05 13.1 0.35 13.6 0.7 13.1 M0.35 7.35 L0.7 6.85 0.8 6.7 0.35 6.05 -0.05 6.7 0.05 6.85 0.35 7.35 M3.3 0.85 Q3.5 1.2 3.3 1.55 L1.9 3.7 3.75 6.6 Q4.0 6.95 3.8 7.3 L3.15 7.8 1.9 9.75 3.75 12.65 Q4.0 13.0 3.8 13.35 L3.3 13.8 3.3 13.85 1.9 16.0 3.75 18.9 Q4.0 19.25 3.8 19.6 L3.15 20.1 1.9 22.05 3.75 24.95 Q4.0 25.3 3.8 25.65 L3.5 25.95 3.45 26.5 2.0 28.7 3.85 31.55 3.9 32.25 Q3.75 32.6 3.3 32.75 L2.0 34.75 3.85 37.6 3.9 38.3 3.55 38.65 3.45 38.95 2.0 41.15 3.85 44.0 3.9 44.7 Q3.75 45.05 3.3 45.2 L2.0 47.2 3.85 50.05 3.9 50.75 3.5 51.15 3.45 51.25 2.0 53.45 3.85 56.3 3.9 57.0 Q3.75 57.35 3.3 57.5 L2.0 59.5 3.85 62.35 3.9 63.05 3.75 63.25 3.7 63.9 2.2 66.15 4.0 68.95 4.05 69.65 3.6 70.05 2.2 72.2 4.0 75.0 4.05 75.7 3.3 76.25 2.25 76.25 Q1.7 76.1 1.45 75.75 L0.7 74.6 -0.05 75.75 Q-0.3 76.1 -0.85 76.25 L-1.9 76.25 -2.65 75.7 -2.6 75.0 -0.85 72.2 -2.25 70.05 -2.65 69.65 -2.6 68.95 -0.85 66.15 -2.3 63.9 -2.4 63.5 -2.9 63.05 Q-3.1 62.7 -2.85 62.35 L-1.05 59.5 -2.35 57.5 -2.9 57.0 Q-3.1 56.65 -2.85 56.3 L-1.05 53.45 -2.45 51.25 -2.5 51.15 -2.9 50.75 Q-3.1 50.4 -2.85 50.05 L-1.05 47.2 -2.35 45.2 -2.9 44.7 Q-3.1 44.35 -2.85 44.0 L-1.05 41.15 -2.45 38.95 -2.55 38.65 -2.9 38.3 Q-3.1 37.95 -2.85 37.6 L-1.05 34.75 -2.35 32.75 -2.9 32.25 Q-3.1 31.9 -2.85 31.55 L-1.05 28.7 -2.45 26.5 -2.55 26.1 -3.05 25.65 Q-3.25 25.3 -3.0 24.95 L-1.15 22.05 -2.4 20.1 -3.05 19.6 Q-3.25 19.25 -3.0 18.9 L-1.15 16.0 -2.55 13.85 -2.6 13.8 -3.05 13.35 Q-3.25 13.0 -3.0 12.65 L-1.15 9.75 -2.4 7.8 -3.05 7.3 Q-3.25 6.95 -3.0 6.6 L-1.15 3.7 -2.55 1.55 Q-2.75 1.2 -2.55 0.85 L-1.85 0.3 Q-1.3 0.15 -0.75 0.3 -0.2 0.45 0.05 0.8 L0.35 1.3 0.7 0.8 Q0.95 0.45 1.5 0.3 2.05 0.15 2.6 0.3 L3.3 0.85" fill="#0c100f" fill-rule="evenodd" stroke="none"/>
    <path d="M2.35 0.3 L3.05 0.85 Q3.25 1.2 3.05 1.55 L1.65 3.7 3.5 6.6 Q3.75 6.95 3.55 7.3 L2.9 7.8 1.65 9.75 3.5 12.65 Q3.75 13.0 3.55 13.35 L3.05 13.8 3.05 13.85 1.65 16.0 3.5 18.9 Q3.75 19.25 3.55 19.6 L2.9 20.1 1.65 22.05 3.5 24.95 Q3.75 25.3 3.55 25.65 L3.25 25.95 3.2 26.5 1.75 28.7 3.6 31.55 Q3.85 31.9 3.65 32.25 3.5 32.6 3.05 32.75 L1.75 34.75 3.6 37.6 Q3.85 37.95 3.65 38.3 L3.3 38.65 3.2 38.95 1.75 41.15 3.6 44.0 Q3.85 44.35 3.65 44.7 3.5 45.05 3.05 45.2 L1.75 47.2 3.6 50.05 Q3.85 50.4 3.65 50.75 L3.25 51.15 3.2 51.25 1.75 53.45 3.6 56.3 Q3.85 56.65 3.65 57.0 3.5 57.35 3.05 57.5 L1.75 59.5 3.6 62.35 Q3.85 62.7 3.65 63.05 L3.5 63.25 3.45 63.9 1.95 66.15 3.75 68.95 Q4.0 69.3 3.8 69.65 L3.35 70.05 1.95 72.2 3.75 75.0 Q4.0 75.35 3.8 75.7 L3.05 76.25 2.0 76.25 Q1.45 76.1 1.2 75.75 L0.6 74.8 0.6 69.6 0.85 69.2 0.85 69.15 0.6 68.75 0.6 63.55 0.85 63.15 0.95 63.0 0.6 62.4 0.6 56.55 0.65 56.45 0.6 56.3 0.6 50.5 0.75 50.3 0.6 50.1 0.6 44.25 0.65 44.15 0.6 44.0 0.6 38.2 0.8 37.95 0.6 37.65 0.6 31.8 0.65 31.7 0.6 31.55 0.6 25.75 0.8 25.5 0.6 25.15 0.6 0.6 Q0.85 0.4 1.25 0.3 1.8 0.15 2.35 0.3" fill="#4f5b56" fill-rule="evenodd" stroke="none"/>
  </g>
</svg>
