<?xml version="1.0" encoding="UTF-8" standalone="no"?>
<svg xmlns:xlink="http://www.w3.org/1999/xlink" height="487.7px" width="692.8px" xmlns="http://www.w3.org/2000/svg">
  <g transform="matrix(1.0, 0.0, 0.0, 1.0, -7.45, -12.1)">
    <path d="M643.05 23.7 Q645.6 23.5 648.45 25.05 651.35 26.6 651.85 28.7 652.45 31.25 651.45 33.55 652.35 33.85 653.4 35.05 654.25 36.25 654.65 37.95 L653.15 38.35 651.35 38.85 651.05 37.65 650.25 36.6 Q645.6 38.3 642.65 37.75 L640.3 37.1 638.7 36.45 638.95 36.4 641.4 36.15 643.5 35.65 Q646.35 34.5 647.55 32.6 648.85 30.65 648.2 28.4 647.85 27.05 646.5 26.1 645.15 25.1 643.35 24.8 L640.55 24.65 639.75 24.8 Q640.8 24.15 641.65 23.9 L643.05 23.7 M617.75 31.8 L618.3 31.55 619.3 33.1 Q616.3 33.95 614.65 36.15 613.0 38.35 614.1 40.85 L613.2 39.85 Q612.7 39.25 612.55 38.65 611.9 36.25 614.8 33.7 616.25 32.45 617.75 31.8" fill="#dde7e6" fill-rule="evenodd" stroke="none"/>
    <path d="M616.0 31.1 L617.75 31.8 Q616.25 32.45 614.8 33.7 611.9 36.25 612.55 38.65 612.7 39.25 613.2 39.85 L614.1 40.85 Q613.0 38.35 614.65 36.15 616.3 33.95 619.3 33.1 L618.3 31.55 617.85 30.45 Q617.25 26.15 621.0 22.5 624.05 19.7 628.25 18.6 632.55 17.5 636.7 18.55 641.4 19.75 642.9 23.35 L643.05 23.7 641.65 23.9 Q640.8 24.15 639.75 24.8 L640.55 24.65 643.35 24.8 Q645.15 25.1 646.5 26.1 647.85 27.05 648.2 28.4 648.85 30.65 647.55 32.6 646.35 34.5 643.5 35.65 L641.4 36.15 638.95 36.4 638.7 36.45 640.3 37.1 642.65 37.75 Q645.6 38.3 650.25 36.6 L651.05 37.65 651.35 38.85 653.15 38.35 654.65 37.95 Q659.2 37.65 662.55 39.2 666.25 40.9 667.25 44.35 668.0 47.0 666.2 50.0 665.4 51.5 662.8 54.3 665.9 52.6 668.05 50.55 L668.1 50.55 668.15 50.5 668.2 50.45 668.9 49.65 670.25 47.85 Q670.9 46.9 671.2 45.65 673.5 45.8 675.45 47.0 L677.0 48.25 Q677.85 49.05 678.15 50.1 679.7 55.65 667.8 61.85 661.2 65.15 654.2 67.3 L651.8 67.45 Q646.9 67.9 643.0 67.65 630.6 67.15 629.0 61.55 628.3 58.95 629.6 57.25 L632.8 54.1 Q630.1 54.9 628.1 57.7 627.15 59.0 626.75 60.1 621.65 60.65 617.2 58.4 618.8 60.2 621.15 61.15 623.35 62.0 626.35 62.25 L626.45 62.7 623.05 64.6 Q620.85 65.8 619.2 66.2 612.4 67.95 607.0 66.25 600.6 64.25 598.85 57.95 598.1 55.4 598.35 52.35 598.6 49.25 599.8 47.85 L601.3 49.25 603.5 50.75 602.55 47.85 Q600.95 42.1 602.8 37.95 604.95 33.3 611.2 31.7 L612.8 31.4 616.0 31.1" fill="#ffffff" fill-rule="evenodd" stroke="none"/>
    <path d="M654.65 37.95 Q661.5 36.3 664.6 36.75 669.0 37.45 670.8 41.85 671.25 43.0 671.25 44.8 676.1 45.15 678.5 46.7 682.05 49.0 682.15 51.8 682.3 56.5 672.4 61.6 665.3 65.25 657.75 67.15 650.95 68.95 644.9 69.45 L640.15 69.55 Q629.25 69.45 627.55 65.05 L625.1 66.8 622.45 68.4 619.8 69.5 615.3 70.5 605.8 70.15 Q599.7 69.15 596.35 63.9 594.1 60.35 594.75 55.35 595.45 50.05 599.45 47.4 598.55 46.3 598.25 45.0 596.65 39.55 600.2 35.7 603.05 32.55 608.45 31.15 L614.2 30.8 616.0 31.1 612.8 31.4 611.2 31.7 Q604.95 33.3 602.8 37.95 600.95 42.1 602.55 47.85 L603.5 50.75 601.3 49.25 599.8 47.85 Q598.6 49.25 598.35 52.35 598.1 55.4 598.85 57.95 600.6 64.25 607.0 66.25 612.4 67.95 619.2 66.2 620.85 65.8 623.05 64.6 L626.45 62.7 626.35 62.25 Q623.35 62.0 621.15 61.15 618.8 60.2 617.2 58.4 621.65 60.65 626.75 60.1 627.15 59.0 628.1 57.7 630.1 54.9 632.8 54.1 L629.6 57.25 Q628.3 58.95 629.0 61.55 630.6 67.15 643.0 67.65 646.9 67.9 651.8 67.45 L654.2 67.3 Q661.2 65.15 667.8 61.85 679.7 55.65 678.15 50.1 677.85 49.05 677.0 48.25 L675.45 47.0 Q673.5 45.8 671.2 45.65 670.9 46.9 670.25 47.85 L668.9 49.65 668.4 50.2 668.2 50.45 668.15 50.5 668.1 50.55 668.05 50.55 Q665.9 52.6 662.8 54.3 665.4 51.5 666.2 50.0 668.0 47.0 667.25 44.35 666.25 40.9 662.55 39.2 659.2 37.65 654.65 37.95" fill="#c0d0ce" fill-rule="evenodd" stroke="none"/>
    <path d="M50.55 37.25 Q52.5 37.75 53.95 38.55 51.05 39.8 48.25 42.25 42.7 47.1 44.0 51.75 44.3 52.85 45.2 54.1 L46.95 55.95 Q44.85 51.1 47.95 46.95 51.15 42.7 56.9 41.0 55.7 39.85 54.95 38.05 54.3 36.95 54.1 35.95 53.0 27.65 60.15 20.75 66.1 15.3 74.1 13.2 82.4 11.05 90.35 13.05 99.45 15.4 102.35 22.3 L102.55 22.95 99.85 23.4 Q98.3 23.85 96.25 25.05 L97.8 24.75 103.1 25.05 Q106.65 25.7 109.25 27.6 111.8 29.45 112.5 32.05 113.75 36.3 111.3 40.1 108.9 43.75 103.4 46.0 L99.35 46.95 94.75 47.35 94.25 47.5 97.25 48.75 Q99.65 49.6 101.8 50.05 107.55 51.05 116.4 47.8 L118.0 49.8 Q118.55 50.75 118.55 52.15 119.85 51.65 121.95 51.1 L124.95 50.4 Q133.6 49.8 140.1 52.8 147.15 56.05 149.1 62.7 150.55 67.8 147.1 73.6 145.6 76.4 140.5 81.8 146.5 78.55 150.65 74.6 L150.7 74.6 150.85 74.5 150.9 74.35 151.15 74.15 152.3 72.95 154.9 69.4 Q156.1 67.6 156.7 65.2 161.15 65.5 164.85 67.8 L167.8 70.2 Q169.5 71.7 170.05 73.8 173.1 84.4 150.2 96.3 137.5 102.65 124.0 106.8 L119.45 107.15 Q110.0 107.95 102.45 107.5 78.65 106.5 75.6 95.75 74.25 90.75 76.7 87.5 78.15 85.55 82.9 81.45 77.7 82.95 73.8 88.4 72.0 90.85 71.2 92.95 61.45 94.0 52.85 89.7 56.0 93.15 60.45 94.95 64.7 96.6 70.5 97.1 L70.65 98.0 64.15 101.6 Q59.85 103.9 56.75 104.7 43.7 108.0 33.25 104.75 20.95 100.95 17.55 88.9 16.1 83.9 16.65 78.05 17.15 72.15 19.45 69.45 L22.35 72.15 26.6 75.0 Q26.1 74.15 24.7 69.4 21.6 58.35 25.2 50.4 29.35 41.45 41.4 38.4 L44.4 37.85 50.55 37.25" fill="#ffffff" fill-rule="evenodd" stroke="none"/>
    <path d="M124.95 50.4 Q138.05 47.2 144.05 48.1 152.45 49.4 155.95 57.9 156.85 60.1 156.75 63.55 166.1 64.25 170.75 67.2 177.55 71.65 177.8 76.95 178.05 86.05 159.0 95.8 145.35 102.9 130.85 106.55 117.8 109.95 106.15 110.9 101.6 111.2 97.05 111.1 76.05 110.9 72.8 102.45 L68.1 105.85 63.0 108.9 Q59.75 110.7 57.85 111.05 L49.2 112.95 Q42.4 114.45 30.9 112.3 19.25 110.35 12.8 100.3 8.45 93.45 9.75 83.85 11.05 73.65 18.7 68.5 17.05 66.45 16.4 63.9 13.4 53.45 20.15 46.05 25.65 40.0 36.05 37.35 41.1 36.1 47.1 36.7 L50.55 37.25 44.4 37.85 41.4 38.4 Q29.35 41.45 25.2 50.4 21.6 58.35 24.7 69.4 26.1 74.15 26.6 75.0 L22.35 72.15 19.45 69.45 Q17.15 72.15 16.65 78.05 16.1 83.9 17.55 88.9 20.95 100.95 33.25 104.75 43.7 108.0 56.75 104.7 59.85 103.9 64.15 101.6 L70.65 98.0 70.5 97.1 Q64.7 96.6 60.45 94.95 56.0 93.15 52.85 89.7 61.45 94.0 71.2 92.95 72.0 90.85 73.8 88.4 77.7 82.95 82.9 81.45 78.15 85.55 76.7 87.5 74.25 90.75 75.6 95.75 78.65 106.5 102.45 107.5 110.0 107.95 119.45 107.15 L124.0 106.8 Q137.5 102.65 150.2 96.3 173.1 84.4 170.05 73.8 169.5 71.7 167.8 70.2 L164.85 67.8 Q161.15 65.5 156.7 65.2 156.1 67.6 154.9 69.4 L152.3 72.95 151.3 73.95 151.15 74.15 150.9 74.35 150.85 74.5 150.7 74.6 150.65 74.6 Q146.5 78.55 140.5 81.8 145.6 76.4 147.1 73.6 150.55 67.8 149.1 62.7 147.15 56.05 140.1 52.8 133.6 49.8 124.95 50.4" fill="#c0d0ce" fill-rule="evenodd" stroke="none"/>
    <path d="M53.95 38.55 Q54.45 38.4 54.95 38.05 55.7 39.85 56.9 41.0 51.15 42.7 47.95 46.95 44.85 51.1 46.95 55.95 L45.2 54.1 Q44.3 52.85 44.0 51.75 42.7 47.1 48.25 42.25 51.05 39.8 53.95 38.55 M102.55 22.95 Q107.45 22.6 112.95 25.55 118.5 28.6 119.5 32.55 120.65 37.5 118.7 41.9 120.45 42.45 122.45 44.85 124.15 47.15 124.95 50.4 L121.95 51.1 Q119.85 51.65 118.55 52.15 118.55 50.75 118.0 49.8 L116.4 47.8 Q107.55 51.05 101.8 50.05 99.65 49.6 97.25 48.75 L94.25 47.5 94.75 47.35 99.35 46.95 103.4 46.0 Q108.9 43.75 111.3 40.1 113.75 36.3 112.5 32.05 111.8 29.45 109.25 27.6 106.65 25.7 103.1 25.05 L97.8 24.75 96.25 25.05 Q98.3 23.85 99.85 23.4 L102.55 22.95" fill="#dde7e6" fill-rule="evenodd" stroke="none"/>
    <path d="M69.65 364.7 L85.7 378.35 90.15 401.05 Q94.45 425.1 94.1 432.0 95.75 433.0 97.5 435.4 101.75 441.2 102.8 447.1 L104.25 455.8 Q105.4 463.8 104.7 466.05 L92.65 473.25 Q61.6 481.95 42.95 481.6 30.05 481.75 20.2 477.0 L12.9 472.2 9.45 401.8 25.75 363.8 42.75 359.0 69.65 364.7" fill="#bd9542" fill-rule="evenodd" stroke="none"/>
    <path d="M69.65 364.7 L85.7 378.35 90.15 401.05 Q94.45 425.1 94.1 432.0 95.75 433.0 97.5 435.4 101.75 441.2 102.8 447.1 L104.25 455.8 Q105.4 463.8 104.7 466.05 L92.65 473.25 Q61.6 481.95 42.95 481.6 30.05 481.75 20.2 477.0 L12.9 472.2 9.45 401.8 25.75 363.8 42.75 359.0 69.65 364.7 Z" fill="none" stroke="#84612e" stroke-linecap="round" stroke-linejoin="round" stroke-width="4.0"/>
    <path d="M78.85 376.7 L85.7 393.05 Q92.3 412.35 93.15 426.9 94.85 473.55 92.7 473.2 61.6 481.95 42.85 481.65 30.0 481.8 20.2 477.0 16.55 474.8 12.85 472.2 11.35 437.0 9.45 401.85 L78.85 376.7" fill="#936b34" fill-rule="evenodd" stroke="none"/>
    <path d="M25.75 363.8 L31.05 375.8 33.35 389.0 33.4 399.4 Q33.35 411.25 32.25 419.3 30.8 427.45 25.75 425.15 22.6 423.55 19.75 419.75 L11.05 400.85 25.75 363.8" fill="#c6a473" fill-rule="evenodd" stroke="none"/>
    <path d="M25.75 363.8 Q34.25 361.6 42.75 359.0 56.25 362.05 69.6 364.7 L86.5 379.3 71.1 405.7 Q68.25 410.15 66.25 406.55 L53.5 387.3 45.55 386.85 28.2 377.7 25.75 363.8" fill="#e5d3ad" fill-rule="evenodd" stroke="none"/>
    <path d="M43.55 391.85 L53.1 389.15 52.95 404.6 30.75 427.1 47.9 479.7 27.4 424.15 40.15 401.05 43.55 391.85" fill="#c6a473" fill-rule="evenodd" stroke="none"/>
    <path d="M31.3 387.55 Q32.0 385.3 33.2 384.05 L34.15 383.15 46.85 390.25 46.25 407.15 34.4 423.3 39.65 437.05 32.9 441.45 27.7 428.0 31.3 387.55" fill="#e0c48f" fill-rule="evenodd" stroke="none"/>
    <path d="M59.2 399.15 Q57.8 393.3 61.15 394.2 63.75 394.4 67.6 398.0 68.1 398.7 77.15 388.75 86.2 378.8 86.45 379.25 89.5 394.4 95.5 431.6 L77.7 456.85 Q60.05 481.4 61.3 478.05 61.75 476.9 54.45 449.5 L68.35 430.5 66.7 400.75 59.2 399.15" fill="#ad9065" fill-rule="evenodd" stroke="none"/>
    <path d="M26.9 370.4 L28.2 377.7 45.55 386.85 52.6 385.95 59.1 393.45 69.75 394.8 83.5 381.7 70.05 400.9 57.25 395.95 53.15 389.15 46.8 390.8 27.6 380.7 26.9 370.4" fill="#fdfcfb" fill-rule="evenodd" stroke="none"/>
    <path d="M57.15 395.95 L69.55 400.95 68.65 428.35 52.45 421.9 57.15 395.95" fill="#c6a473" fill-rule="evenodd" stroke="none"/>
    <path d="M101.05 445.6 Q102.5 449.65 103.6 453.75 105.8 462.3 104.65 466.1 99.5 469.2 97.7 469.15 95.85 469.1 94.85 465.3 L88.35 456.8 Q83.2 450.15 84.65 442.0 86.85 440.2 94.05 442.5 97.9 444.0 101.05 445.6" fill="#c6a473" fill-rule="evenodd" stroke="none"/>
    <path d="M88.75 454.95 L90.65 455.7 Q92.6 456.75 93.6 458.35 94.5 459.3 100.35 461.85 102.1 463.7 99.65 465.9 L96.4 470.1 Q94.25 472.2 92.95 470.7 85.4 460.55 85.6 459.75 L88.75 454.95" fill="#e5d3ad" fill-rule="evenodd" stroke="none"/>
    <path d="M88.2 447.85 Q84.75 446.7 84.3 442.05 83.8 437.15 88.4 432.75 92.75 428.8 97.45 435.45 101.7 441.15 102.75 447.05 103.45 450.9 101.5 452.35 L97.95 452.25 Q97.0 450.95 92.35 449.25 90.45 448.5 88.2 447.85" fill="#d9bc88" fill-rule="evenodd" stroke="none"/>
    <path d="M32.7 498.45 L30.8 499.65 36.15 493.15 36.85 492.5 31.1 488.25 16.55 487.6 30.7 484.6 42.4 490.9 61.4 488.6 61.7 488.65 60.25 488.95 40.2 495.1 38.8 494.05 32.7 498.45" fill="#a05b10" fill-rule="evenodd" stroke="none"/>
    <path d="M60.25 488.95 L40.7 497.0 38.6 495.15 32.7 498.45 38.8 494.05 40.2 495.1 60.25 488.95" fill="#ffffff" fill-rule="evenodd" stroke="none"/>
    <path d="M42.1 469.45 Q51.45 470.9 51.1 471.15 L47.6 478.4 53.45 487.95 Q53.7 488.3 53.4 489.0 L38.5 491.6 42.1 469.45" fill="#a27f46" fill-rule="evenodd" stroke="none"/>
    <path d="M58.7 467.15 L60.4 473.25 Q62.2 479.95 61.5 483.05 58.15 485.45 56.9 485.3 55.65 485.3 54.9 482.3 L50.2 475.45 Q46.55 470.1 47.55 463.9 48.95 462.4 53.9 464.65 56.4 465.65 58.7 467.15" fill="#c6a473" fill-rule="evenodd" stroke="none"/>
    <path d="M32.8 468.35 L42.65 469.15 43.55 470.85 Q44.45 473.35 43.55 477.7 42.0 484.35 44.25 486.5 L41.45 489.45 38.5 491.6 35.2 488.1 32.8 468.35" fill="#e0c48f" fill-rule="evenodd" stroke="none"/>
    <path d="M51.0 488.4 L49.8 487.55 Q49.05 486.65 46.65 486.05 44.25 485.2 44.15 482.35 L44.45 479.4 45.75 477.3 Q47.0 475.15 47.9 474.4 48.9 473.8 50.15 474.0 L51.05 474.25 57.05 486.1 Q53.75 489.75 51.0 488.4" fill="#84612e" fill-rule="evenodd" stroke="none"/>
    <path d="M58.1 482.75 L56.15 485.85 Q54.6 487.55 53.75 486.25 48.3 478.9 48.5 477.65 L50.35 473.95 51.75 474.75 Q53.1 475.6 53.75 476.7 55.1 478.55 58.4 479.8 59.65 480.85 58.1 482.75" fill="#e5d3ad" fill-rule="evenodd" stroke="none"/>
    <path d="M26.4 462.85 Q26.0 459.4 30.35 464.05 L34.6 469.25 34.6 476.35 Q34.85 483.75 36.45 486.8 39.55 492.7 36.7 491.95 33.65 491.25 32.25 489.0 31.7 488.3 28.7 486.5 25.75 484.95 25.55 483.95 25.25 482.15 25.25 477.55 25.4 472.4 26.15 470.75 26.95 469.4 26.7 465.9 L26.4 462.85" fill="#c6a473" fill-rule="evenodd" stroke="none"/>
    <path d="M56.3 459.25 Q59.1 463.5 59.9 468.15 60.45 471.15 59.2 472.2 57.95 473.45 56.8 472.0 55.85 471.15 52.95 469.8 L50.0 468.45 Q47.75 467.35 47.35 463.95 46.9 460.1 49.8 456.85 52.8 453.85 56.3 459.25" fill="#d9bc88" fill-rule="evenodd" stroke="none"/>
    <path d="M33.15 455.25 L41.6 453.75 53.45 456.4 49.7 465.55 46.65 470.7 44.8 467.25 31.9 466.85 26.4 461.6 33.15 455.25" fill="#e5d3ad" fill-rule="evenodd" stroke="none"/>
    <path d="M48.2 471.25 L42.9 469.5 34.6 469.25 29.9 465.15 34.2 467.05 42.25 466.7 46.7 467.55 52.95 458.2 48.2 471.25" fill="#f2ede4" fill-rule="evenodd" stroke="none"/>
    <path d="M654.55 387.35 Q657.95 373.9 663.4 371.25 665.25 370.15 667.65 370.7 L668.75 371.0 Q673.65 373.05 675.7 383.4 676.4 382.8 676.7 382.95 L676.7 383.1 676.75 384.35 676.7 386.55 676.4 387.3 Q677.1 392.65 677.2 399.85 682.4 399.1 686.75 385.2 686.0 385.0 686.05 384.2 686.1 382.55 686.8 381.3 687.3 380.25 687.65 380.3 L687.65 380.5 687.95 381.15 689.35 375.55 Q689.75 373.95 690.35 372.75 692.65 366.95 696.2 371.65 700.05 378.75 697.2 391.85 L697.15 392.0 695.75 397.55 695.2 399.3 Q687.5 424.95 676.55 427.1 L676.2 442.35 Q677.4 441.55 679.45 439.65 L682.15 437.0 Q682.1 436.6 682.4 436.1 683.0 435.1 683.75 434.35 L684.75 433.45 684.85 433.4 Q685.2 433.45 685.2 434.7 L685.2 435.05 Q686.6 434.5 687.1 435.45 688.15 436.9 686.6 440.75 L686.0 441.9 685.9 442.0 Q684.8 444.4 683.5 446.3 682.65 447.95 680.65 450.3 678.4 453.3 675.9 455.15 L675.9 468.4 Q675.65 471.3 672.55 474.1 L671.3 475.05 Q668.35 477.1 664.75 477.55 660.1 477.95 653.65 476.25 646.45 474.35 644.4 469.1 643.15 465.55 643.75 456.85 637.7 456.95 634.5 453.95 631.4 451.15 629.95 444.75 628.35 436.3 629.5 427.6 631.2 414.6 638.75 401.25 643.15 396.3 642.65 404.15 L641.5 411.05 Q641.2 415.85 641.9 418.75 L642.3 418.3 Q643.2 417.35 643.45 417.45 L643.45 417.55 643.7 419.05 643.45 421.6 643.45 421.95 Q644.9 423.6 647.3 423.55 649.25 407.0 654.05 388.85 L654.55 387.35" fill="#5b9311" fill-rule="evenodd" stroke="none"/>
    <path d="M654.55 387.35 Q657.95 373.9 663.4 371.25 665.25 370.15 667.65 370.7 L668.75 371.0 Q673.65 373.05 675.7 383.4 676.4 382.8 676.7 382.95 L676.7 383.1 676.75 384.35 676.7 386.55 676.4 387.3 Q677.1 392.65 677.2 399.85 682.4 399.1 686.75 385.2 686.0 385.0 686.05 384.2 686.1 382.55 686.8 381.3 687.3 380.25 687.65 380.3 L687.65 380.5 687.95 381.15 689.35 375.55 Q689.75 373.95 690.35 372.75 692.65 366.95 696.2 371.65 700.05 378.75 697.2 391.85 L697.15 392.0 695.75 397.55 695.2 399.3 Q687.5 424.95 676.55 427.1 L676.2 442.35 Q677.4 441.55 679.45 439.65 L682.15 437.0 Q682.1 436.6 682.4 436.1 683.0 435.1 683.75 434.35 L684.75 433.45 684.85 433.4 Q685.2 433.45 685.2 434.7 L685.2 435.05 Q686.6 434.5 687.1 435.45 688.15 436.9 686.6 440.75 L686.0 441.9 685.9 442.0 Q684.8 444.4 683.5 446.3 682.65 447.95 680.65 450.3 678.4 453.3 675.9 455.15 L675.9 468.4 Q675.65 471.3 672.55 474.1 L671.3 475.05 Q668.35 477.1 664.75 477.55 660.1 477.95 653.65 476.25 646.45 474.35 644.4 469.1 643.15 465.55 643.75 456.85 637.7 456.95 634.5 453.95 631.4 451.15 629.95 444.75 628.35 436.3 629.5 427.6 631.2 414.6 638.75 401.25 643.15 396.3 642.65 404.15 L641.5 411.05 Q641.2 415.85 641.9 418.75 L642.3 418.3 Q643.2 417.35 643.45 417.45 L643.45 417.55 643.7 419.05 643.45 421.6 643.45 421.95 Q644.9 423.6 647.3 423.55 649.25 407.0 654.05 388.85 L654.55 387.35 Z" fill="none" stroke="#305400" stroke-linecap="round" stroke-linejoin="round" stroke-width="3.5"/>
    <path d="M665.15 391.3 Q665.9 385.1 667.45 384.0 669.85 382.45 671.0 390.05 671.9 395.35 671.9 399.3 L671.85 409.4 Q671.6 418.65 670.35 421.9 L669.25 423.7 Q668.55 424.55 667.75 424.25 666.15 423.5 665.35 417.55 664.55 412.1 664.5 404.5 664.3 396.85 665.15 391.3" fill="#a0e05e" fill-rule="evenodd" stroke="none"/>
    <path d="M665.15 391.3 Q664.3 396.85 664.5 404.5 664.55 412.1 665.35 417.55 666.15 423.5 667.75 424.25 668.55 424.55 669.25 423.7 L670.35 421.9 Q671.6 418.65 671.85 409.4 L671.9 399.3 Q671.9 395.35 671.0 390.05 669.85 382.45 667.45 384.0 665.9 385.1 665.15 391.3 M663.7 388.3 Q664.3 380.55 666.35 379.05 669.0 376.95 671.0 386.55 672.3 392.95 672.55 398.0 L673.1 410.65 Q673.2 422.05 671.75 426.25 L670.5 428.55 Q669.7 429.6 668.75 429.25 666.7 428.55 665.35 421.1 663.9 414.35 663.45 404.85 663.0 395.45 663.7 388.3" fill="#94d455" fill-rule="evenodd" stroke="none"/>
    <path d="M663.7 388.3 Q663.0 395.45 663.45 404.85 663.9 414.35 665.35 421.1 666.7 428.55 668.75 429.25 669.7 429.6 670.5 428.55 L671.75 426.25 Q673.2 422.05 673.1 410.65 L672.55 398.0 Q672.3 392.95 671.0 386.55 669.0 376.95 666.35 379.05 664.3 380.55 663.7 388.3 M663.45 371.25 Q665.35 370.15 667.7 370.7 L668.8 371.0 Q676.7 374.35 677.25 399.85 L677.3 407.95 676.95 421.95 Q676.7 424.35 676.6 427.0 L676.6 427.1 676.2 442.35 Q675.1 443.15 673.6 443.55 L669.15 444.1 668.45 443.8 666.0 443.65 664.8 443.55 664.5 443.55 662.1 444.05 Q660.6 444.8 659.65 446.8 658.1 449.75 658.95 453.75 659.3 456.3 660.45 457.8 661.5 459.05 663.2 459.95 665.95 461.15 669.2 459.65 671.4 458.75 675.95 455.15 L675.95 468.35 Q675.7 471.3 672.6 474.1 L671.35 475.05 666.65 474.8 Q659.05 472.3 656.5 460.75 653.45 436.75 654.4 409.0 655.25 382.25 663.45 371.25" fill="#7eba2f" fill-rule="evenodd" stroke="none"/>
    <path d="M647.3 423.55 Q649.3 407.0 654.05 388.85 L654.6 387.3 Q658.0 373.9 663.45 371.25 655.25 382.25 654.4 409.0 653.45 436.75 656.5 460.75 659.05 472.3 666.65 474.8 L671.35 475.05 Q668.35 477.05 664.8 477.55 660.15 477.95 653.7 476.25 646.5 474.35 644.45 469.1 643.2 465.55 643.8 456.85 643.9 453.9 644.35 450.35 644.7 445.75 645.35 440.35 L646.8 428.0 647.3 423.55" fill="#467f09" fill-rule="evenodd" stroke="none"/>
    <path d="M684.85 394.85 Q686.45 393.1 688.1 387.2 689.55 381.25 690.5 378.9 L690.9 378.05 691.45 377.25 691.85 377.45 692.0 378.7 Q692.2 380.2 691.85 383.3 691.4 386.85 690.65 388.7 689.8 391.25 689.05 392.45 687.4 395.4 684.85 394.85" fill="#98d951" fill-rule="evenodd" stroke="none"/>
    <path d="M677.25 399.85 Q684.0 398.9 689.35 375.45 L690.35 372.7 Q692.6 370.7 693.6 372.2 695.85 375.45 694.95 383.65 694.6 394.35 686.6 406.65 680.8 411.95 677.3 407.95 L677.25 399.85 M684.85 394.85 Q687.4 395.4 689.05 392.45 689.8 391.25 690.65 388.7 691.4 386.85 691.85 383.3 692.2 380.2 692.0 378.7 L691.85 377.45 691.45 377.25 690.9 378.05 690.5 378.9 Q689.55 381.25 688.1 387.2 686.45 393.1 684.85 394.85" fill="#86c740" fill-rule="evenodd" stroke="none"/>
    <path d="M690.35 372.7 Q692.7 366.95 696.2 371.65 700.15 378.75 697.25 391.85 L697.15 392.0 Q693.75 403.5 689.9 409.75 682.35 422.35 676.95 421.95 L677.3 407.95 Q680.8 411.95 686.6 406.65 694.6 394.35 694.95 383.65 695.85 375.45 693.6 372.2 692.6 370.7 690.35 372.7" fill="#559109" fill-rule="evenodd" stroke="none"/>
    <path d="M697.15 392.0 L695.75 397.5 695.25 399.3 Q687.5 424.95 676.6 427.1 L676.6 427.0 Q676.7 424.35 676.95 421.95 682.35 422.35 689.9 409.75 693.75 403.5 697.15 392.0" fill="#3c6b00" fill-rule="evenodd" stroke="none"/>
    <path d="M679.45 439.65 L682.4 436.8 Q686.15 433.7 687.15 435.45 688.15 436.9 686.6 440.75 L686.0 441.9 685.95 442.0 Q684.35 444.6 679.3 449.8 674.15 454.9 668.9 454.45 663.55 453.95 662.6 451.8 661.75 449.6 661.95 447.95 661.85 447.0 662.55 446.0 663.15 445.0 664.5 443.55 L664.8 443.55 666.0 443.65 668.45 443.8 669.15 444.1 Q667.35 444.95 667.05 445.75 666.7 446.8 667.15 447.35 L668.55 448.1 Q671.25 449.1 675.3 446.8 679.2 444.55 680.3 441.95 L680.65 440.3 Q680.6 439.9 680.1 439.65 L679.45 439.65" fill="#85b424" fill-rule="evenodd" stroke="none"/>
    <path d="M685.95 442.0 L683.5 446.3 Q682.75 447.95 680.7 450.3 678.45 453.15 675.95 455.15 671.4 458.75 669.2 459.65 665.95 461.15 663.2 459.95 661.5 459.05 660.45 457.8 659.3 456.3 658.95 453.75 658.1 449.75 659.65 446.8 660.6 444.8 662.1 444.05 L664.5 443.55 Q663.15 445.0 662.55 446.0 661.85 447.0 661.95 447.95 661.75 449.6 662.6 451.8 663.55 453.95 668.9 454.45 674.15 454.9 679.3 449.8 684.35 444.6 685.95 442.0" fill="#538710" fill-rule="evenodd" stroke="none"/>
    <path d="M676.2 442.35 Q677.45 441.55 679.45 439.65 L680.1 439.65 Q680.6 439.9 680.65 440.3 L680.3 441.95 Q679.2 444.55 675.3 446.8 671.25 449.1 668.55 448.1 L667.15 447.35 Q666.7 446.8 667.05 445.75 667.35 444.95 669.15 444.1 L673.6 443.55 Q675.1 443.15 676.2 442.35" fill="#b1d943" fill-rule="evenodd" stroke="none"/>
    <path d="M629.55 427.6 Q631.2 414.55 638.75 401.2 643.2 396.25 642.65 404.15 642.35 403.0 641.7 403.6 636.7 411.75 635.2 420.75 634.1 426.25 635.3 429.8 636.35 432.95 639.7 434.4 643.2 435.9 646.8 428.0 L645.35 440.35 Q644.7 445.75 644.35 450.35 630.55 454.5 629.55 427.6" fill="#477005" fill-rule="evenodd" stroke="none"/>
    <path d="M642.65 404.15 Q642.45 406.85 641.55 411.05 640.65 423.75 647.3 423.55 L646.8 428.0 Q643.2 435.9 639.7 434.4 636.35 432.95 635.3 429.8 634.1 426.25 635.2 420.75 636.7 411.75 641.7 403.6 642.35 403.0 642.65 404.15" fill="#81ad26" fill-rule="evenodd" stroke="none"/>
    <path d="M643.8 456.85 Q637.7 456.9 634.55 453.95 631.45 451.15 629.95 444.75 628.35 436.3 629.55 427.6 630.55 454.5 644.35 450.35 643.9 453.9 643.8 456.85" fill="#365800" fill-rule="evenodd" stroke="none"/>
    <path d="M640.9 438.55 L641.0 439.9 640.9 440.65 640.9 440.45 Q640.6 440.45 640.65 439.65 L640.9 438.55" fill="#3c8009" fill-rule="evenodd" stroke="none"/>
    <path d="M636.65 444.2 Q636.5 444.15 636.4 445.35 636.35 446.45 636.7 447.7 636.95 448.85 637.45 449.05 L637.2 449.05 Q636.45 449.3 636.05 448.25 635.75 446.6 636.0 445.3 636.25 444.05 636.55 444.1 L636.65 444.2" fill="#1a3f00" fill-rule="evenodd" stroke="none"/>
    <path d="M636.65 444.2 L637.45 445.3 638.4 447.3 Q638.8 448.35 637.75 448.85 L637.45 449.05 Q636.95 448.85 636.7 447.7 636.35 446.45 636.4 445.35 636.5 444.15 636.65 444.2" fill="#275b00" fill-rule="evenodd" stroke="none"/>
    <path d="M657.6 414.4 L658.95 415.95 Q660.05 417.45 660.6 419.4 661.3 421.2 659.7 421.95 L659.05 422.3 Q658.05 422.05 657.6 420.25 657.0 418.15 657.2 416.25 L657.6 414.4 M659.15 418.75 L659.8 420.5 Q659.7 420.15 660.0 420.0 660.35 420.0 659.4 418.1 L658.35 415.9 659.15 418.75" fill="#3d8e01" fill-rule="evenodd" stroke="none"/>
    <path d="M659.05 422.3 L658.5 422.4 Q657.15 422.75 656.6 421.15 656.05 418.4 656.6 416.3 656.9 414.15 657.45 414.2 L657.6 414.4 657.2 416.25 Q657.0 418.15 657.6 420.25 658.05 422.05 659.05 422.3" fill="#255800" fill-rule="evenodd" stroke="none"/>
    <path d="M659.15 418.75 L658.35 415.9 659.4 418.1 Q660.35 420.0 660.0 420.0 659.7 420.15 659.8 420.5 L659.15 418.75" fill="#69cd1e" fill-rule="evenodd" stroke="none"/>
    <path d="M650.8 450.05 L650.45 450.15 Q649.45 450.35 649.25 449.4 648.9 447.75 649.2 446.35 649.45 445.1 649.8 445.3 L649.85 445.3 649.75 446.35 Q649.5 447.7 649.85 448.85 650.15 449.95 650.8 450.05" fill="#1a3f00" fill-rule="evenodd" stroke="none"/>
    <path d="M649.85 445.3 L650.65 446.25 651.7 448.25 Q652.15 449.4 651.1 449.95 L650.8 450.05 Q650.15 449.95 649.85 448.85 649.5 447.7 649.75 446.35 L649.85 445.3 M651.2 448.85 L651.3 448.65 Q651.6 448.65 650.95 447.55 L650.15 446.2 650.8 447.95 651.2 448.85" fill="#275b00" fill-rule="evenodd" stroke="none"/>
    <path d="M651.2 448.85 L650.8 447.95 650.15 446.2 650.95 447.55 Q651.6 448.65 651.3 448.65 L651.2 448.85" fill="#3c8009" fill-rule="evenodd" stroke="none"/>
    <path d="M641.0 453.95 L641.05 452.85 Q641.05 453.7 641.2 454.25 L641.1 454.85 Q641.1 454.75 641.0 454.8 L641.0 453.95" fill="#3c8009" fill-rule="evenodd" stroke="none"/>
    <path d="M630.95 437.7 L631.15 436.65 631.2 437.95 631.15 438.65 631.1 438.6 Q630.95 438.6 630.95 437.7" fill="#3c8009" fill-rule="evenodd" stroke="none"/>
    <path d="M630.95 437.7 Q630.95 438.6 631.1 438.6 L631.15 438.65 631.2 437.95 631.15 436.65 630.95 437.7 M631.9 439.25 L631.9 439.3 631.4 439.3 Q630.75 439.2 630.65 438.3 L630.9 436.9 631.2 436.0 631.65 436.75 631.9 438.25 631.9 439.25" fill="#275b00" fill-rule="evenodd" stroke="none"/>
    <path d="M631.2 436.0 Q631.5 435.75 631.9 436.6 632.4 437.35 632.5 438.6 632.5 439.25 631.9 439.25 L631.9 438.25 631.65 436.75 631.2 436.0" fill="#1a3f00" fill-rule="evenodd" stroke="none"/>
    <path d="M650.45 466.5 L649.95 466.65 Q648.45 467.0 647.95 465.4 647.35 462.65 647.9 460.4 648.3 458.35 648.9 458.35 L648.95 458.4 Q648.8 458.35 648.65 460.4 648.45 462.45 648.95 464.3 649.45 466.35 650.45 466.5" fill="#1a3f00" fill-rule="evenodd" stroke="none"/>
    <path d="M648.95 458.4 L650.35 460.2 Q651.4 461.7 652.15 463.6 652.8 465.45 651.2 466.3 L650.45 466.5 Q649.45 466.35 648.95 464.3 648.45 462.45 648.65 460.4 648.8 458.35 648.95 458.4 M650.8 462.25 L649.65 459.85 650.6 462.95 651.25 464.65 Q651.1 464.3 651.4 464.2 651.75 464.2 650.8 462.25" fill="#275b00" fill-rule="evenodd" stroke="none"/>
    <path d="M650.8 462.25 Q651.75 464.2 651.4 464.2 651.1 464.3 651.25 464.65 L650.6 462.95 649.65 459.85 650.8 462.25" fill="#3c8009" fill-rule="evenodd" stroke="none"/>
    <path d="M662.1 473.95 L661.6 473.7 Q659.75 472.95 660.35 471.1 660.85 469.1 661.8 467.6 662.8 465.8 663.1 465.75 L663.65 467.65 Q663.8 469.6 663.45 471.6 663.2 473.6 662.1 473.95 M661.45 469.6 Q660.75 471.65 661.1 471.65 L661.4 471.9 661.8 470.35 662.5 467.3 Q662.2 467.65 661.45 469.6" fill="#275b00" fill-rule="evenodd" stroke="none"/>
    <path d="M661.45 469.6 Q662.2 467.65 662.5 467.3 L661.8 470.35 661.4 471.9 661.1 471.65 Q660.75 471.65 661.45 469.6" fill="#3c8009" fill-rule="evenodd" stroke="none"/>
    <path d="M662.1 473.95 Q663.2 473.6 663.45 471.6 663.8 469.6 663.65 467.65 L663.1 465.75 663.2 465.55 Q663.75 465.5 664.3 467.55 665.0 469.75 664.65 472.5 664.3 474.2 662.7 474.05 L662.1 473.95" fill="#1a3f00" fill-rule="evenodd" stroke="none"/>
    <path d="M668.7 454.3 Q669.15 453.0 669.35 452.8 L668.95 454.65 668.6 455.7 668.45 455.6 Q668.15 455.6 668.7 454.3" fill="#3c8009" fill-rule="evenodd" stroke="none"/>
    <path d="M673.7 409.75 L673.85 409.55 Q674.35 409.5 674.95 411.75 675.75 414.25 675.35 417.4 674.9 419.25 673.25 419.0 L672.65 418.95 Q673.8 418.7 674.1 416.35 674.5 414.2 674.3 411.85 L673.7 409.75" fill="#2d6d00" fill-rule="evenodd" stroke="none"/>
    <path d="M673.7 409.75 L674.3 411.85 Q674.5 414.2 674.1 416.35 673.8 418.7 672.65 418.95 L672.0 418.7 Q669.95 417.9 670.55 415.8 671.2 413.6 672.1 411.75 673.4 409.85 673.65 409.75 L673.7 409.75 M671.85 414.15 Q671.0 416.35 671.4 416.5 671.75 416.45 671.75 416.9 L672.3 414.95 673.05 411.4 Q672.65 411.95 671.85 414.15" fill="#5fa32b" fill-rule="evenodd" stroke="none"/>
    <path d="M671.85 414.15 Q672.65 411.95 673.05 411.4 L672.3 414.95 671.75 416.9 Q671.75 416.45 671.4 416.5 671.0 416.35 671.85 414.15" fill="#92d95d" fill-rule="evenodd" stroke="none"/>
    <path d="M682.25 413.45 L682.9 412.0 682.4 413.85 682.15 414.85 682.05 414.7 Q681.85 414.65 682.25 413.45" fill="#3c8009" fill-rule="evenodd" stroke="none"/>
    <path d="M682.25 413.45 Q681.85 414.65 682.05 414.7 L682.15 414.85 682.4 413.85 682.9 412.0 682.25 413.45 M682.6 415.9 L682.4 415.9 Q681.25 415.35 681.6 414.35 L682.5 412.15 683.25 411.05 683.45 412.25 Q683.65 413.5 683.45 414.65 683.3 415.9 682.6 415.9" fill="#275b00" fill-rule="evenodd" stroke="none"/>
    <path d="M683.25 411.05 Q683.6 410.95 683.9 412.3 684.35 413.45 684.1 415.05 683.85 416.1 683.0 416.0 L682.6 415.9 Q683.3 415.9 683.45 414.65 683.65 413.5 683.45 412.25 L683.25 411.05" fill="#1a3f00" fill-rule="evenodd" stroke="none"/>
    <path d="M659.9 409.35 L659.65 409.35 Q658.7 409.25 658.7 408.25 658.7 406.6 659.3 405.45 659.9 404.35 660.1 404.45 L660.3 404.5 659.75 405.5 Q659.35 406.7 659.3 407.9 659.4 409.15 659.9 409.35" fill="#5ea11f" fill-rule="evenodd" stroke="none"/>
    <path d="M660.3 404.5 L660.75 405.65 661.25 407.9 Q661.4 409.05 660.3 409.35 L659.9 409.35 Q659.4 409.15 659.3 407.9 659.35 406.7 659.75 405.5 L660.3 404.5 M660.5 405.55 L660.55 407.35 660.55 408.45 Q660.6 408.15 660.85 408.2 L660.65 406.95 660.5 405.55" fill="#94d455" fill-rule="evenodd" stroke="none"/>
    <path d="M660.5 405.55 L660.65 406.95 660.85 408.2 Q660.6 408.15 660.55 408.45 L660.55 407.35 660.5 405.55" fill="#cdf5af" fill-rule="evenodd" stroke="none"/>
    <path d="M684.8 401.7 Q685.5 401.55 685.7 400.25 685.9 398.95 685.7 397.65 L685.4 396.35 685.45 396.25 Q685.9 396.25 686.2 397.5 686.55 398.95 686.35 400.8 686.1 401.8 685.1 401.75 L684.8 401.7" fill="#518322" fill-rule="evenodd" stroke="none"/>
    <path d="M684.4 398.9 L685.1 397.3 684.65 399.35 684.2 400.6 684.15 400.25 Q684.0 400.25 684.4 398.9" fill="#cdf5af" fill-rule="evenodd" stroke="none"/>
    <path d="M684.8 401.7 L684.4 401.55 Q683.4 401.15 683.6 399.9 684.0 398.55 684.6 397.6 L685.4 396.35 685.7 397.65 Q685.9 398.95 685.7 400.25 685.5 401.55 684.8 401.7 M684.4 398.9 Q684.0 400.25 684.15 400.25 L684.2 400.6 684.65 399.35 685.1 397.3 684.4 398.9" fill="#78af41" fill-rule="evenodd" stroke="none"/>
    <path d="M641.8 422.75 L641.4 422.6 Q640.45 422.3 640.8 421.2 641.35 419.45 642.4 418.3 643.3 417.3 643.6 417.45 L643.6 417.55 642.7 418.5 Q642.0 419.65 641.6 420.9 641.3 422.2 641.8 422.75" fill="#518322" fill-rule="evenodd" stroke="none"/>
    <path d="M643.6 417.55 L643.8 419.05 Q643.9 420.25 643.6 421.6 643.35 422.75 642.25 422.75 L641.8 422.75 Q641.3 422.2 641.6 420.9 642.0 419.65 642.7 418.5 L643.6 417.55 M643.55 418.75 L643.05 420.7 642.7 421.85 643.15 421.65 Q643.3 421.85 643.3 420.35 L643.55 418.75" fill="#78af41" fill-rule="evenodd" stroke="none"/>
    <path d="M643.55 418.75 L643.3 420.35 Q643.3 421.85 643.15 421.65 L642.7 421.85 643.05 420.7 643.55 418.75" fill="#cdf5af" fill-rule="evenodd" stroke="none"/>
    <path d="M635.85 421.85 L636.35 423.15 636.95 425.85 Q637.1 427.1 635.8 427.45 L635.25 427.45 Q634.65 427.1 634.65 425.75 634.65 424.35 635.2 423.0 635.75 421.7 635.85 421.85 M636.35 426.15 Q636.55 426.15 636.4 424.7 L636.0 422.95 636.05 425.2 636.15 426.3 Q636.15 426.15 636.35 426.15" fill="#3d8e01" fill-rule="evenodd" stroke="none"/>
    <path d="M635.25 427.45 L635.0 427.45 Q633.95 427.45 633.75 426.2 633.95 424.25 634.7 422.9 635.25 421.55 635.75 421.65 L635.85 421.85 Q635.75 421.7 635.2 423.0 634.65 424.35 634.65 425.75 634.65 427.1 635.25 427.45" fill="#255800" fill-rule="evenodd" stroke="none"/>
    <path d="M636.35 426.15 Q636.15 426.15 636.15 426.3 L636.05 425.2 636.0 422.95 636.4 424.7 Q636.55 426.15 636.35 426.15" fill="#69cd1e" fill-rule="evenodd" stroke="none"/>
    <path d="M659.8 432.0 Q659.7 431.7 660.0 431.7 660.5 431.55 661.6 433.6 663.15 435.9 663.45 439.1 663.7 441.05 661.85 441.35 L661.2 441.4 Q662.4 440.8 662.05 438.45 661.85 436.15 660.95 433.95 660.0 431.7 659.8 432.0" fill="#255800" fill-rule="evenodd" stroke="none"/>
    <path d="M661.2 441.4 L660.5 441.4 Q658.25 441.05 658.35 438.8 658.35 436.4 658.95 434.3 659.6 432.1 659.8 432.0 660.0 431.7 660.95 433.95 661.85 436.15 662.05 438.45 662.4 440.8 661.2 441.4 M659.3 439.15 Q659.75 439.15 659.75 439.6 L659.7 437.5 659.7 433.9 Q659.45 434.35 659.25 436.9 659.0 439.3 659.3 439.15" fill="#3d8e01" fill-rule="evenodd" stroke="none"/>
    <path d="M659.3 439.15 Q659.0 439.3 659.25 436.9 659.45 434.35 659.7 433.9 L659.7 437.5 659.75 439.6 Q659.75 439.15 659.3 439.15" fill="#69cd1e" fill-rule="evenodd" stroke="none"/>
    <path d="M669.5 431.95 Q670.45 431.7 670.95 429.85 671.2 428.0 670.8 425.95 L670.45 424.25 670.55 424.1 Q671.0 424.05 671.65 425.95 672.15 428.05 671.85 430.75 671.4 432.3 670.0 432.05 L669.5 431.95" fill="#255800" fill-rule="evenodd" stroke="none"/>
    <path d="M670.45 424.25 L670.8 425.95 Q671.2 428.0 670.95 429.85 670.45 431.7 669.5 431.95 L668.95 431.7 Q667.35 431.0 667.85 429.35 668.4 427.45 669.25 425.85 670.3 424.3 670.45 424.25 M669.2 428.55 L669.9 425.65 Q669.55 426.1 668.95 428.0 668.15 429.8 668.55 429.75 L668.75 430.25 669.2 428.55" fill="#3d8e01" fill-rule="evenodd" stroke="none"/>
    <path d="M669.2 428.55 L668.75 430.25 668.55 429.75 Q668.15 429.8 668.95 428.0 669.55 426.1 669.9 425.65 L669.2 428.55" fill="#69cd1e" fill-rule="evenodd" stroke="none"/>
    <path d="M675.2 387.65 L674.9 387.55 Q674.0 387.3 674.3 386.3 674.85 384.65 675.5 383.65 676.5 382.75 676.75 382.9 L676.75 383.1 Q676.7 382.9 676.1 383.85 L675.05 386.05 Q674.75 387.2 675.2 387.65" fill="#5ea11f" fill-rule="evenodd" stroke="none"/>
    <path d="M676.75 383.1 L676.95 384.35 676.75 386.55 Q676.6 387.55 675.45 387.75 L675.2 387.65 Q674.75 387.2 675.05 386.05 L676.1 383.85 Q676.7 382.9 676.75 383.1 M676.6 384.0 L676.2 385.9 676.05 386.85 Q676.1 386.6 676.35 386.75 L676.6 385.5 676.6 384.0" fill="#94d455" fill-rule="evenodd" stroke="none"/>
    <path d="M676.6 384.0 L676.6 385.5 676.35 386.75 Q676.1 386.6 676.05 386.85 L676.2 385.9 676.6 384.0" fill="#cdf5af" fill-rule="evenodd" stroke="none"/>
    <path d="M687.75 380.45 Q687.7 380.25 687.2 381.45 686.9 382.6 686.9 383.85 686.85 385.0 687.45 385.25 L687.2 385.25 Q686.1 385.2 686.15 384.15 686.3 382.55 686.9 381.3 687.4 380.25 687.75 380.3 L687.75 380.45" fill="#5ea11f" fill-rule="evenodd" stroke="none"/>
    <path d="M687.9 381.45 L688.0 383.1 688.1 384.2 Q688.15 384.1 688.25 384.1 L688.2 382.9 Q688.15 381.65 687.9 381.45 M687.75 380.45 L688.35 381.6 688.75 383.85 Q688.85 385.0 687.8 385.25 L687.45 385.25 Q686.85 385.0 686.9 383.85 686.9 382.6 687.2 381.45 687.7 380.25 687.75 380.45" fill="#94d455" fill-rule="evenodd" stroke="none"/>
    <path d="M687.9 381.45 Q688.15 381.65 688.2 382.9 L688.25 384.1 Q688.15 384.1 688.1 384.2 L688.0 383.1 687.9 381.45" fill="#cdf5af" fill-rule="evenodd" stroke="none"/>
    <path d="M656.1 394.0 L655.75 394.0 Q654.8 394.05 654.75 392.95 654.95 391.4 655.4 390.2 656.05 389.05 656.4 389.15 L656.4 389.25 Q656.3 389.1 655.85 390.2 L655.6 392.6 Q655.55 393.75 656.1 394.0" fill="#5ea11f" fill-rule="evenodd" stroke="none"/>
    <path d="M656.4 389.25 L656.95 390.45 657.45 392.65 Q657.45 393.7 656.45 394.0 L656.1 394.0 Q655.55 393.75 655.6 392.6 L655.85 390.2 Q656.3 389.1 656.4 389.25 M656.95 392.8 L656.95 391.65 656.6 390.2 656.6 392.0 656.65 393.1 Q656.75 392.8 656.95 392.8" fill="#94d455" fill-rule="evenodd" stroke="none"/>
    <path d="M656.95 392.8 Q656.75 392.8 656.65 393.1 L656.6 392.0 656.6 390.2 656.95 391.65 656.95 392.8" fill="#cdf5af" fill-rule="evenodd" stroke="none"/>
    <path d="M674.35 445.4 L673.95 445.35 Q673.1 445.0 673.25 444.05 673.7 442.35 674.75 441.4 675.45 440.45 675.8 440.65 L675.8 440.85 675.05 441.7 674.1 443.75 Q673.8 444.95 674.35 445.4" fill="#5ea11f" fill-rule="evenodd" stroke="none"/>
    <path d="M675.8 440.85 L676.05 442.1 675.85 444.4 Q675.75 445.5 674.55 445.4 L674.35 445.4 Q673.8 444.95 674.1 443.75 L675.05 441.7 675.8 440.85 M675.05 444.7 L675.35 444.4 675.75 443.25 675.7 441.75 675.35 443.65 675.05 444.7" fill="#94d455" fill-rule="evenodd" stroke="none"/>
    <path d="M675.05 444.7 L675.35 443.65 675.7 441.75 675.75 443.25 675.35 444.4 675.05 444.7" fill="#cdf5af" fill-rule="evenodd" stroke="none"/>
    <path d="M683.25 437.95 L682.85 437.8 Q681.95 437.1 682.55 436.1 L683.85 434.3 684.8 433.45 Q685.05 433.45 684.8 434.65 684.7 436.0 684.2 436.95 683.8 437.95 683.25 437.95 M684.4 434.25 L683.4 435.5 Q682.65 436.55 682.85 436.55 L683.0 436.8 683.45 435.9 684.4 434.25" fill="#94d455" fill-rule="evenodd" stroke="none"/>
    <path d="M684.4 434.25 L683.45 435.9 683.0 436.8 682.85 436.55 Q682.65 436.55 683.4 435.5 L684.4 434.25" fill="#cdf5af" fill-rule="evenodd" stroke="none"/>
    <path d="M684.8 433.45 L685.05 433.4 Q685.35 433.45 685.35 434.65 685.3 436.05 684.7 437.55 684.2 438.55 683.3 438.0 L683.25 437.95 Q683.8 437.95 684.2 436.95 684.7 436.0 684.8 434.65 685.05 433.45 684.8 433.45" fill="#5ea11f" fill-rule="evenodd" stroke="none"/>
    <path d="M648.65 434.15 Q649.0 434.15 648.3 432.85 L647.6 431.3 648.25 433.25 Q648.25 433.9 648.55 434.5 648.45 434.15 648.65 434.15 M647.05 430.2 L648.0 431.45 Q648.8 432.35 649.2 433.65 649.65 435.05 648.5 435.55 L648.1 435.7 Q647.3 435.65 647.05 434.25 646.65 432.85 646.75 431.55 646.95 430.1 647.05 430.2" fill="#3d8e01" fill-rule="evenodd" stroke="none"/>
    <path d="M648.65 434.15 Q648.45 434.15 648.55 434.5 648.25 433.9 648.25 433.25 L647.6 431.3 648.3 432.85 Q649.0 434.15 648.65 434.15" fill="#69cd1e" fill-rule="evenodd" stroke="none"/>
    <path d="M648.1 435.7 L647.8 435.7 Q646.65 436.05 646.3 434.85 645.95 432.95 646.35 431.45 646.6 430.1 646.95 430.1 L647.05 430.2 Q646.95 430.1 646.75 431.55 646.65 432.85 647.05 434.25 647.3 435.65 648.1 435.7" fill="#255800" fill-rule="evenodd" stroke="none"/>
    <path d="M667.15 381.55 L666.8 381.6 Q665.95 381.6 665.85 380.65 665.95 378.85 666.55 377.65 667.15 376.6 667.4 376.6 L667.45 376.9 Q667.4 376.65 667.05 377.85 L666.55 380.1 Q666.55 381.3 667.15 381.55" fill="#5ea11f" fill-rule="evenodd" stroke="none"/>
    <path d="M667.45 376.9 L668.0 377.95 668.55 380.25 Q668.6 381.3 667.45 381.6 L667.15 381.55 Q666.55 381.3 666.55 380.1 L667.05 377.85 Q667.4 376.65 667.45 376.9 M667.65 377.75 L667.7 379.75 667.8 380.65 Q667.85 380.4 668.0 380.45 668.15 380.4 667.9 379.3 L667.65 377.75" fill="#94d455" fill-rule="evenodd" stroke="none"/>
    <path d="M667.65 377.75 L667.9 379.3 Q668.15 380.4 668.0 380.45 667.85 380.4 667.8 380.65 L667.7 379.75 667.65 377.75" fill="#cdf5af" fill-rule="evenodd" stroke="none"/>
    <path d="M670.1 442.2 L678.25 441.35 690.0 446.1 696.15 453.6 696.2 453.6 696.2 453.7 696.55 454.1 696.3 454.4 Q697.05 460.4 696.7 469.6 696.4 475.85 695.75 478.7 696.45 479.25 697.05 480.55 698.5 483.5 698.5 486.25 L698.2 487.9 698.35 489.35 Q698.65 493.45 697.85 495.1 695.25 496.05 694.4 495.9 L694.2 495.85 694.1 495.9 Q692.85 496.8 692.35 496.45 L691.8 497.35 Q676.95 498.85 668.45 497.2 662.6 496.2 658.5 493.3 L655.55 490.5 655.8 488.45 Q655.05 489.0 654.4 489.05 L654.3 489.2 647.6 489.2 647.45 489.0 Q647.35 489.45 646.8 489.2 645.55 488.7 645.1 487.6 L643.75 486.25 Q642.55 485.35 642.55 484.9 642.55 484.05 642.9 482.05 643.35 479.8 643.8 479.2 644.25 478.65 644.45 477.1 L644.55 475.75 Q644.55 475.4 644.7 475.25 L644.65 475.2 648.05 472.95 651.85 472.95 655.95 474.65 Q656.75 474.55 657.45 475.65 L659.65 458.2 659.7 458.2 670.1 442.2 M647.45 478.1 L647.6 478.2 648.65 478.35 647.45 478.1 M653.3 480.65 L653.3 480.2 653.0 480.55 653.3 480.65 M651.45 480.0 L651.15 479.7 651.25 479.95 651.45 480.0 M672.1 451.9 L671.55 451.5 671.55 452.3 671.9 452.0 672.1 451.9" fill="#d29d38" fill-rule="evenodd" stroke="none"/>
    <path d="M670.1 442.2 L659.7 458.2 659.65 458.2 657.45 475.65 Q656.75 474.55 655.95 474.65 L651.85 472.95 648.05 472.95 644.65 475.2 644.7 475.25 Q644.55 475.4 644.55 475.75 L644.45 477.1 Q644.25 478.65 643.8 479.2 643.35 479.8 642.9 482.05 642.55 484.05 642.55 484.9 642.55 485.35 643.75 486.25 L645.1 487.6 Q645.55 488.7 646.8 489.2 647.35 489.45 647.45 489.0 L647.6 489.2 654.3 489.2 654.4 489.05 Q655.05 489.0 655.8 488.45 L655.55 490.5 658.5 493.3 Q662.6 496.2 668.45 497.2 676.95 498.85 691.8 497.35 L692.35 496.45 Q692.85 496.8 694.1 495.9 L694.2 495.85 694.4 495.9 Q695.25 496.05 697.85 495.1 698.65 493.45 698.35 489.35 L698.2 487.9 698.5 486.25 Q698.5 483.5 697.05 480.55 696.45 479.25 695.75 478.7 696.4 475.85 696.7 469.6 697.05 460.4 696.3 454.4 L696.55 454.1 696.2 453.7 696.2 453.6 696.15 453.6 690.0 446.1 678.25 441.35 670.1 442.2 Z" fill="none" stroke="#834f0f" stroke-linecap="round" stroke-linejoin="round" stroke-width="3.5"/>
    <path d="M650.85 479.8 Q654.85 481.15 654.65 481.25 L652.6 484.15 654.4 488.75 654.3 489.2 647.6 489.2 650.85 479.8" fill="#a27f46" fill-rule="evenodd" stroke="none"/>
    <path d="M658.3 480.1 L658.55 482.9 Q658.85 485.95 658.3 487.25 656.65 488.05 656.1 487.85 655.55 487.75 655.5 486.4 L653.95 483.05 Q652.75 480.45 653.7 477.8 654.4 477.3 656.4 478.65 L658.3 480.1" fill="#c6a473" fill-rule="evenodd" stroke="none"/>
    <path d="M646.9 478.65 L651.15 479.7 651.4 480.55 Q651.6 481.7 650.85 483.5 649.7 486.3 650.5 487.4 L649.05 488.5 647.6 489.2 646.45 487.4 646.9 478.65" fill="#e0c48f" fill-rule="evenodd" stroke="none"/>
    <path d="M653.3 488.75 L652.85 488.3 651.6 487.4 Q650.6 486.85 650.8 485.6 L651.15 484.35 651.85 483.5 653.05 482.45 Q653.5 482.25 654.05 482.45 L654.4 482.6 656.1 488.2 Q654.4 489.6 653.3 488.75" fill="#84612e" fill-rule="evenodd" stroke="none"/>
    <path d="M656.85 486.85 L655.75 488.05 Q654.95 488.7 654.65 488.05 652.85 484.45 653.05 483.9 L654.15 482.45 654.65 482.9 655.4 483.9 Q655.85 484.8 657.2 485.6 657.65 486.15 656.85 486.85" fill="#e5d3ad" fill-rule="evenodd" stroke="none"/>
    <path d="M644.55 475.75 Q644.65 474.2 646.15 476.55 L647.6 479.2 647.05 482.25 Q646.6 485.5 647.05 486.95 648.0 489.75 646.8 489.2 645.55 488.7 645.1 487.6 L643.75 486.25 Q642.55 485.35 642.55 484.9 642.55 484.05 642.9 482.05 643.35 479.8 643.8 479.2 644.25 478.65 644.45 477.1 L644.55 475.75" fill="#c6a473" fill-rule="evenodd" stroke="none"/>
    <path d="M657.85 476.45 Q658.75 478.55 658.75 480.65 658.75 482.0 658.1 482.35 657.45 482.8 657.1 482.05 L655.55 480.8 654.4 480.0 Q653.5 479.35 653.6 477.8 653.7 476.1 655.2 474.95 656.75 473.85 657.85 476.45" fill="#d9bc88" fill-rule="evenodd" stroke="none"/>
    <path d="M648.05 472.95 L651.85 472.95 656.85 475.0 654.5 478.75 652.75 480.7 652.25 479.1 646.6 477.9 644.65 475.2 648.05 472.95" fill="#e5d3ad" fill-rule="evenodd" stroke="none"/>
    <path d="M645.9 477.0 L647.6 478.2 651.15 478.65 653.05 479.35 655.5 477.35 652.5 481.15 651.15 479.7 647.6 479.2 645.9 477.0" fill="#f2ede4" fill-rule="evenodd" stroke="none"/>
    <path d="M693.25 452.3 L695.05 460.3 Q696.55 469.6 695.7 476.3 692.8 497.7 691.8 497.35 676.95 498.85 668.45 497.2 662.6 496.2 658.5 493.3 L655.55 490.5 659.65 458.2 693.25 452.3" fill="#936b34" fill-rule="evenodd" stroke="none"/>
    <path d="M671.55 448.05 L671.55 454.25 670.75 459.0 Q669.75 464.4 668.6 468.0 667.3 471.55 665.2 470.1 663.9 469.1 662.9 467.15 L659.7 458.2 670.1 442.2 671.55 448.05" fill="#c6a473" fill-rule="evenodd" stroke="none"/>
    <path d="M670.1 448.7 L670.1 442.2 678.25 441.35 690.0 446.1 696.55 454.1 687.4 464.9 Q685.75 466.65 685.1 464.9 L680.85 455.1 677.25 454.25 670.1 448.7" fill="#e5d3ad" fill-rule="evenodd" stroke="none"/>
    <path d="M675.95 456.4 L680.55 455.9 679.25 462.9 667.3 471.4 670.9 496.7 666.0 469.75 673.7 460.3 675.95 456.4" fill="#c6a473" fill-rule="evenodd" stroke="none"/>
    <path d="M670.75 453.45 Q671.25 452.45 671.9 452.0 L672.4 451.65 677.6 455.9 675.95 463.55 669.25 469.95 670.6 476.65 667.15 478.1 665.85 471.55 670.75 453.45" fill="#e0c48f" fill-rule="evenodd" stroke="none"/>
    <path d="M685.75 462.25 L682.5 460.95 Q682.35 458.2 683.8 458.85 684.95 459.15 686.4 461.1 686.6 461.45 691.3 457.35 696.2 453.45 696.2 453.6 697.05 459.8 696.7 469.6 696.2 479.9 694.75 480.85 L684.6 490.35 Q676.45 498.35 677.1 497.05 677.45 496.55 676.3 483.5 L684.15 476.0 685.75 462.25" fill="#ad9065" fill-rule="evenodd" stroke="none"/>
    <path d="M670.1 445.3 L670.1 448.7 677.25 454.25 680.55 454.45 Q680.85 454.45 682.5 458.0 L685.25 460.0 Q686.9 461.1 687.05 462.75 684.15 461.75 681.85 459.3 681.05 455.9 680.55 455.9 L677.45 455.9 669.6 450.0 670.1 445.3" fill="#fdfcfb" fill-rule="evenodd" stroke="none"/>
    <path d="M681.85 459.3 L687.05 462.6 684.45 475.0 677.6 470.75 681.85 459.3" fill="#c6a473" fill-rule="evenodd" stroke="none"/>
    <path d="M697.85 485.45 L698.35 489.35 Q698.65 493.45 697.85 495.1 695.25 496.05 694.4 495.9 693.6 495.75 693.45 493.95 L691.15 489.55 Q689.35 486.1 690.65 482.5 691.8 481.85 694.9 483.5 L697.85 485.45" fill="#c6a473" fill-rule="evenodd" stroke="none"/>
    <path d="M691.5 488.7 L692.3 489.2 693.45 490.65 696.2 492.8 Q696.55 493.3 695.55 494.6 L694.1 495.9 Q692.55 497.0 692.15 496.2 689.5 491.0 689.7 490.65 L691.5 488.7" fill="#e5d3ad" fill-rule="evenodd" stroke="none"/>
    <path d="M691.8 485.45 Q690.35 484.65 690.5 482.5 690.65 480.2 693.1 478.6 695.4 477.1 697.05 480.55 698.5 483.5 698.5 486.25 698.5 488.05 697.5 488.55 696.55 489.05 695.9 488.2 695.55 487.55 693.6 486.4 L691.8 485.45" fill="#d9bc88" fill-rule="evenodd" stroke="none"/>
    <path d="M619.7 163.35 Q628.2 160.15 638.05 160.15 L638.05 169.15 Q645.85 169.15 652.4 171.7 L652.8 171.8 656.4 163.35 Q664.9 166.8 671.9 173.5 L671.7 173.75 665.25 179.85 666.0 180.85 666.9 181.7 Q671.3 186.2 673.45 191.55 L682.35 188.05 Q685.9 196.0 685.9 205.5 L676.2 205.5 676.2 205.8 676.2 206.2 Q667.75 203.55 658.7 204.6 L653.95 205.0 Q653.9 202.65 653.05 201.0 651.8 197.9 649.25 195.65 647.0 193.2 644.0 192.0 640.8 190.9 637.45 190.9 634.05 190.9 631.1 192.0 628.1 193.2 625.5 195.65 L625.45 195.65 Q623.1 197.9 621.85 201.0 621.2 202.4 620.7 204.1 L620.65 206.75 620.7 209.25 Q610.6 209.25 603.55 202.0 L602.3 201.0 600.55 198.65 600.55 198.55 Q600.9 195.75 602.05 193.2 L602.7 191.55 593.9 188.25 593.75 188.05 593.9 188.05 Q594.35 186.8 595.15 185.5 597.65 180.85 601.7 176.15 L603.9 173.75 Q603.9 173.5 604.35 173.5 L604.55 173.5 609.7 178.5 611.1 179.85 612.6 178.75 Q616.15 175.2 620.45 173.25 L621.65 172.6 623.45 172.05 623.45 171.8 619.7 163.35 M50.75 238.0 Q59.25 234.8 69.1 234.8 L69.1 243.75 Q76.9 243.75 83.45 246.35 L83.85 246.45 87.45 238.0 Q95.95 241.45 102.95 248.15 L102.75 248.4 96.3 254.5 97.05 255.45 97.95 256.35 Q102.35 260.85 104.5 266.2 L113.4 262.7 Q116.95 270.6 116.95 280.15 L107.25 280.15 107.25 280.45 107.25 280.8 Q98.8 278.2 89.75 279.2 L85.0 279.65 Q84.95 277.25 84.1 275.6 82.85 272.55 80.3 270.3 78.05 267.85 75.05 266.65 71.85 265.5 68.5 265.5 65.1 265.5 62.15 266.65 59.15 267.85 56.55 270.3 L56.5 270.3 Q54.15 272.55 52.9 275.6 52.25 277.05 51.75 278.75 L51.7 281.4 51.75 283.9 Q41.65 283.9 34.6 276.65 L33.35 275.6 31.6 273.3 31.6 273.2 Q31.95 270.4 33.1 267.85 L33.75 266.2 24.95 262.9 24.8 262.7 24.95 262.7 Q25.4 261.45 26.2 260.15 28.7 255.45 32.75 250.8 L34.95 248.4 Q34.95 248.15 35.4 248.15 L35.6 248.15 40.75 253.15 42.15 254.5 Q42.7 253.9 43.65 253.4 47.2 249.85 51.5 247.9 L52.7 247.25 54.5 246.7 54.5 246.45 50.75 238.0" fill="#ecf9ff" fill-rule="evenodd" stroke="none"/>
    <path d="M619.7 163.35 L623.45 171.8 623.45 172.05 620.15 172.45 617.15 166.25 619.7 163.35 M593.9 188.25 L602.7 191.55 597.25 194.05 589.75 191.0 589.75 190.9 593.9 188.25 M676.2 205.8 L676.2 205.5 685.9 205.5 685.9 209.25 677.6 209.25 676.2 205.8 M666.9 181.7 L666.0 180.85 665.25 179.85 671.7 173.75 670.5 178.5 666.9 181.7 M671.3 242.8 L665.65 237.2 665.25 231.45 665.25 231.1 671.7 237.45 671.3 242.8 M636.05 256.75 L636.05 249.4 635.65 249.4 638.05 242.1 638.05 250.9 636.05 256.75 M619.7 247.6 L616.9 253.25 Q608.2 249.95 600.8 243.1 L604.55 237.6 605.3 238.65 Q611.65 244.45 619.7 247.6 M597.25 224.75 L597.25 224.6 597.05 224.6 Q593.6 226.05 590.1 227.45 L593.75 223.0 602.7 219.45 597.25 224.75 M102.75 248.4 L101.55 253.15 97.95 256.35 97.05 255.45 96.3 254.5 102.75 248.4 M116.95 280.15 L116.95 283.9 108.65 283.9 107.25 280.45 107.25 280.15 116.95 280.15 M102.35 317.45 L96.7 311.85 96.3 306.05 96.3 305.75 102.75 312.1 102.35 317.45 M67.1 331.35 L67.1 324.05 66.7 324.05 69.1 316.75 69.1 325.55 67.1 331.35 M50.75 322.25 L47.95 327.85 Q39.25 324.55 31.85 317.7 L35.6 312.25 36.35 313.3 Q42.7 319.1 50.75 322.25 M28.3 299.35 L28.3 299.2 28.1 299.2 21.15 302.1 24.8 297.6 33.75 294.05 28.3 299.35 M28.3 268.7 L20.8 265.6 20.8 265.5 24.95 262.9 33.75 266.2 28.3 268.7 M51.2 247.05 L48.2 240.9 50.75 238.0 54.5 246.45 54.5 246.7 51.2 247.05" fill="#9cbfcb" fill-rule="evenodd" stroke="none"/>
    <path d="M623.45 172.05 L621.65 172.6 620.45 173.25 Q616.15 175.2 612.6 178.75 L611.1 179.85 609.7 178.5 Q614.35 174.7 619.55 172.6 619.7 172.45 620.15 172.45 L623.45 172.05 M603.9 173.75 L601.7 176.15 Q597.65 180.85 595.15 185.5 594.35 186.8 593.9 188.05 L593.75 188.05 593.9 188.25 589.75 190.9 590.95 188.25 591.85 186.95 Q595.15 181.15 600.55 175.9 L600.65 175.85 600.8 175.85 603.9 173.75 M602.7 191.55 L602.05 193.2 Q600.9 195.75 600.55 198.55 L600.55 198.65 Q599.9 202.0 599.9 205.5 L594.35 205.5 Q594.35 204.05 594.65 202.65 595.25 198.8 597.05 194.85 L597.25 194.2 597.25 194.05 602.7 191.55 M676.2 206.2 L676.2 205.8 677.6 209.25 677.6 209.35 Q677.6 214.9 676.35 219.8 676.2 220.05 676.2 220.7 L673.7 219.45 674.9 215.95 676.1 211.15 676.2 209.25 676.2 208.8 676.2 206.2 M682.35 223.0 L682.35 227.3 Q679.95 232.65 676.2 237.45 L674.3 239.8 671.3 242.8 671.7 237.45 671.9 237.45 Q675.6 234.05 678.6 229.95 L680.7 226.55 Q681.25 225.1 682.35 223.0 M665.65 237.2 L665.65 237.3 665.35 237.45 665.0 238.1 Q660.3 242.1 655.4 244.9 L652.8 239.3 Q659.7 236.65 665.25 231.45 L665.65 237.2 M656.4 247.6 L655.2 252.7 655.4 253.1 Q648.5 256.0 640.85 256.55 L638.65 256.75 636.05 256.75 638.05 250.9 Q645.25 250.9 651.9 249.4 L653.4 248.9 656.4 247.6 M635.65 249.4 Q627.5 249.4 620.15 246.6 L623.45 239.3 Q630.35 242.1 638.05 242.1 L635.65 249.4 M605.35 236.9 Q602.9 234.4 600.9 231.5 598.55 228.2 597.25 224.75 L602.7 219.45 604.1 222.75 Q606.7 227.3 611.1 231.1 L605.35 236.9 M590.1 227.45 L589.75 227.45 Q586.2 219.25 586.2 209.6 L586.2 209.25 586.3 209.25 590.2 205.5 590.35 209.25 Q590.75 214.0 591.95 218.35 L593.75 223.0 590.1 227.45 M108.65 283.9 L108.65 283.95 108.6 286.05 Q108.4 290.45 107.4 294.45 107.25 294.7 107.25 295.35 L104.75 294.05 105.95 290.6 107.15 285.75 107.15 285.25 107.25 283.9 107.25 283.45 107.25 280.8 107.25 280.45 108.65 283.9 M113.4 297.6 L113.4 301.95 Q111.0 307.3 107.25 312.1 L105.35 314.4 102.35 317.45 102.75 312.1 102.95 312.1 Q106.65 308.7 109.65 304.6 L111.75 301.2 113.4 297.6 M96.7 311.85 L96.7 311.95 96.4 312.1 96.05 312.7 Q91.35 316.75 86.45 319.5 L83.85 313.95 Q90.75 311.3 96.3 306.05 L96.7 311.85 M87.45 322.25 L86.25 327.35 86.45 327.75 83.65 328.85 Q78.0 330.75 71.9 331.2 L69.7 331.35 67.1 331.35 69.1 325.55 79.7 324.7 82.95 324.05 84.45 323.55 87.45 322.25 M66.7 324.05 Q58.55 324.05 51.2 321.2 L54.5 313.95 Q61.4 316.75 69.1 316.75 L66.7 324.05 M36.4 311.55 Q33.95 309.05 31.95 306.1 29.6 302.8 28.3 299.35 L33.75 294.05 35.15 297.4 Q37.75 301.95 42.15 305.75 L36.4 311.55 M21.15 302.1 L20.8 302.1 Q17.25 293.9 17.25 284.2 L17.25 283.9 17.35 283.9 21.25 280.15 21.4 283.9 Q21.8 288.65 23.0 293.0 23.8 295.5 24.8 297.6 L21.15 302.1 M25.4 280.15 Q25.4 278.7 25.7 277.25 26.3 273.45 28.1 269.5 L28.3 268.8 28.3 268.7 33.75 266.2 33.1 267.85 Q31.95 270.4 31.6 273.2 L31.6 273.3 Q30.95 276.65 30.95 280.15 L25.4 280.15 M20.8 265.5 L22.0 262.9 22.9 261.6 Q26.2 255.8 31.6 250.55 L31.7 250.45 31.85 250.45 34.95 248.4 32.75 250.8 Q28.7 255.45 26.2 260.15 25.4 261.45 24.95 262.7 L24.8 262.7 24.95 262.9 20.8 265.5 M40.75 253.15 Q45.4 249.35 50.6 247.25 L51.2 247.05 54.5 246.7 52.7 247.25 51.5 247.9 Q47.2 249.85 43.65 253.4 42.7 253.9 42.15 254.5 L40.75 253.15" fill="#b3c8d0" fill-rule="evenodd" stroke="none"/>
    <path d="M600.55 198.65 L602.3 201.0 603.55 202.0 Q610.6 209.25 620.7 209.25 621.2 211.3 621.85 213.1 622.45 214.6 623.45 215.95 624.05 217.05 625.45 218.35 628.1 220.85 631.1 222.0 634.05 223.0 637.45 223.0 L638.45 223.0 Q641.45 223.0 644.1 221.75 647.0 220.7 649.25 218.35 L650.55 217.05 Q652.25 215.15 653.05 213.1 654.3 210.15 654.3 206.75 L653.95 205.0 658.7 204.6 Q667.75 203.55 676.2 206.2 L676.2 208.8 676.2 209.25 676.1 211.15 674.9 215.95 673.7 219.45 676.2 220.7 682.35 223.0 Q681.25 225.1 680.7 226.55 L678.6 229.95 Q675.6 234.05 671.9 237.45 L671.7 237.45 665.25 231.1 665.25 231.45 Q659.7 236.65 652.8 239.3 L655.4 244.9 656.4 247.6 653.4 248.9 651.9 249.4 Q645.25 250.9 638.05 250.9 L638.05 242.1 Q630.35 242.1 623.45 239.3 L620.15 246.6 619.7 247.6 Q611.65 244.45 605.3 238.65 L604.55 237.6 605.35 236.9 611.1 231.1 Q606.7 227.3 604.1 222.75 L602.7 219.45 593.75 223.0 591.95 218.35 Q590.75 214.0 590.35 209.25 L590.2 205.5 594.35 205.5 599.9 205.5 Q599.9 202.0 600.55 198.65 M624.05 203.2 Q624.2 201.75 624.85 200.55 625.85 197.9 628.1 195.9 630.0 193.9 632.65 192.95 635.3 191.8 638.05 191.8 641.1 191.8 643.5 192.95 646.45 193.9 648.25 195.9 650.3 197.9 651.3 200.55 652.5 202.65 652.5 205.5 652.5 208.45 651.3 210.8 650.75 212.6 649.4 214.2 L649.4 211.85 Q649.4 209.25 648.35 206.4 L648.25 206.2 Q647.1 204.05 645.25 202.25 643.1 200.25 640.55 199.2 638.05 198.2 635.3 198.2 632.35 198.2 629.6 199.2 627.0 200.25 624.95 202.25 624.35 202.65 624.05 203.2 M107.25 295.35 L113.4 297.6 111.75 301.2 109.65 304.6 Q106.65 308.7 102.95 312.1 L102.75 312.1 96.3 305.75 96.3 306.05 Q90.75 311.3 83.85 313.95 L86.45 319.5 87.45 322.25 84.45 323.55 82.95 324.05 79.7 324.7 69.1 325.55 69.1 316.75 Q61.4 316.75 54.5 313.95 L51.2 321.2 50.75 322.25 Q42.7 319.1 36.35 313.3 L35.6 312.25 36.4 311.55 42.15 305.75 Q37.75 301.95 35.15 297.4 L33.75 294.05 24.8 297.6 Q23.8 295.5 23.0 293.0 21.8 288.65 21.4 283.9 L21.25 280.15 25.4 280.15 30.95 280.15 Q30.95 276.65 31.6 273.3 L33.35 275.6 34.6 276.65 Q41.65 283.9 51.75 283.9 L52.9 287.75 Q53.5 289.2 54.5 290.6 55.1 291.7 56.5 293.0 59.15 295.5 62.15 296.65 65.1 297.6 68.5 297.6 L69.5 297.6 Q72.5 297.6 75.15 296.4 L75.4 296.35 Q78.15 295.25 80.3 293.0 L81.6 291.7 81.75 291.55 Q83.35 289.7 84.1 287.75 85.35 284.8 85.35 281.4 85.35 280.55 85.0 279.65 L89.75 279.2 Q98.8 278.2 107.25 280.8 L107.25 283.45 107.25 283.9 107.15 285.25 107.15 285.75 105.95 290.6 104.75 294.05 107.25 295.35 M55.1 277.85 Q55.25 276.4 55.9 275.2 56.9 272.55 59.15 270.5 61.05 268.55 63.7 267.6 66.35 266.45 69.1 266.45 72.15 266.45 74.55 267.6 77.5 268.55 79.3 270.5 81.35 272.55 82.35 275.2 83.55 277.25 83.55 280.15 83.55 283.1 82.35 285.45 81.8 287.25 80.45 288.85 L80.45 286.5 Q80.45 283.9 79.4 281.05 L79.3 280.8 Q78.15 278.7 76.3 276.9 74.15 274.9 71.6 273.8 69.1 272.85 66.35 272.85 63.4 272.85 60.65 273.8 58.05 274.9 56.0 276.9 55.4 277.25 55.1 277.85" fill="#cbe4ee" fill-rule="evenodd" stroke="none"/>
    <path d="M620.7 209.25 L620.65 206.75 620.7 204.1 Q621.2 202.4 621.85 201.0 623.1 197.9 625.45 195.65 L625.5 195.65 Q628.1 193.2 631.1 192.0 634.05 190.9 637.45 190.9 640.8 190.9 644.0 192.0 647.0 193.2 649.25 195.65 651.8 197.9 653.05 201.0 653.9 202.65 653.95 205.0 L654.3 206.75 Q654.3 210.15 653.05 213.1 652.25 215.15 650.55 217.05 L649.25 218.35 Q647.0 220.7 644.1 221.75 641.45 223.0 638.45 223.0 L637.45 223.0 Q634.05 223.0 631.1 222.0 628.1 220.85 625.45 218.35 624.05 217.05 623.45 215.95 622.45 214.6 621.85 213.1 621.2 211.3 620.7 209.25 M649.4 214.2 Q650.75 212.6 651.3 210.8 652.5 208.45 652.5 205.5 652.5 202.65 651.3 200.55 650.3 197.9 648.25 195.9 646.45 193.9 643.5 192.95 641.1 191.8 638.05 191.8 635.3 191.8 632.65 192.95 630.0 193.9 628.1 195.9 625.85 197.9 624.85 200.55 624.2 201.75 624.05 203.2 L623.95 205.5 Q623.95 207.5 624.2 209.25 L624.85 210.8 626.1 213.25 Q627.0 214.5 628.1 215.15 630.0 217.4 632.65 218.35 635.3 219.25 638.05 219.25 L638.95 219.25 Q641.45 219.1 643.5 218.25 646.45 217.15 648.25 215.15 L649.4 214.2 M80.45 288.85 Q81.8 287.25 82.35 285.45 83.55 283.1 83.55 280.15 83.55 277.25 82.35 275.2 81.35 272.55 79.3 270.5 77.5 268.55 74.55 267.6 72.15 266.45 69.1 266.45 66.35 266.45 63.7 267.6 61.05 268.55 59.15 270.5 56.9 272.55 55.9 275.2 55.25 276.4 55.1 277.85 L55.0 280.15 Q55.0 282.15 55.25 283.9 L55.9 285.45 57.15 287.9 59.15 289.8 Q61.05 292.05 63.7 293.0 66.35 293.9 69.1 293.9 L70.0 293.9 Q72.5 293.75 74.55 292.9 77.5 291.8 79.3 289.8 L80.45 288.85 M85.0 279.65 Q85.35 280.55 85.35 281.4 85.35 284.8 84.1 287.75 83.35 289.7 81.75 291.55 L81.6 291.7 80.3 293.0 Q78.15 295.25 75.4 296.35 L75.15 296.4 Q72.5 297.6 69.5 297.6 L68.5 297.6 Q65.1 297.6 62.15 296.65 59.15 295.5 56.5 293.0 55.1 291.7 54.5 290.6 53.5 289.2 52.9 287.75 L51.75 283.9 51.7 281.4 51.75 278.75 Q52.25 277.05 52.9 275.6 54.15 272.55 56.5 270.3 L56.55 270.3 Q59.15 267.85 62.15 266.65 65.1 265.5 68.5 265.5 71.85 265.5 75.05 266.65 78.05 267.85 80.3 270.3 82.85 272.55 84.1 275.6 84.95 277.25 85.0 279.65" fill="#e7f8ff" fill-rule="evenodd" stroke="none"/>
    <path d="M171.2 46.25 L171.15 46.25 171.95 48.85 166.4 50.3 166.45 50.35 Q167.55 54.1 167.7 57.7 L167.7 58.3 172.35 58.75 172.3 59.0 173.2 61.85 Q172.6 65.95 171.05 69.95 L170.2 71.85 168.7 74.4 163.75 71.65 163.65 71.85 163.4 72.2 Q161.1 75.9 158.2 78.65 L159.55 80.3 159.5 80.45 159.7 84.05 159.85 84.25 Q155.8 87.4 150.75 89.25 L149.2 89.8 147.45 90.3 147.4 90.3 145.9 85.1 145.75 85.15 145.7 85.15 Q140.1 86.6 134.5 86.2 L134.5 87.0 133.65 91.25 Q127.0 90.55 120.65 87.15 L120.6 87.1 120.8 86.75 121.95 83.0 122.45 82.2 Q120.3 81.0 118.45 79.4 116.2 77.4 114.5 75.35 L114.45 75.3 114.35 75.3 110.15 78.45 110.0 78.5 Q105.75 73.55 103.8 66.9 L103.75 66.75 103.9 66.7 105.85 63.4 108.65 62.7 108.35 60.8 Q108.0 58.0 108.4 55.05 L108.4 54.4 108.4 54.3 108.35 54.3 102.6 53.6 102.7 53.45 Q102.75 52.45 103.05 51.5 L103.25 50.45 Q104.35 45.85 107.05 41.3 L107.15 41.1 107.2 41.1 108.9 39.15 109.05 38.95 109.15 38.95 113.75 41.4 Q116.25 38.05 119.4 35.75 L119.8 35.5 116.6 31.7 117.7 29.3 Q122.85 25.6 129.55 23.85 L131.35 29.95 Q136.65 28.55 141.65 29.2 L141.95 29.2 142.7 22.75 Q149.2 23.55 155.35 26.85 L155.3 27.0 155.4 30.5 153.65 33.35 Q157.5 35.75 160.05 39.0 L165.45 34.95 Q169.35 39.9 171.2 46.25 M145.65 53.45 Q144.55 52.25 142.9 51.35 141.0 50.4 139.1 50.15 L135.15 50.4 Q133.15 50.95 131.6 52.15 130.0 53.25 129.05 55.0 128.7 55.45 128.6 55.95 128.65 56.7 128.85 57.4 L129.85 59.9 130.65 60.95 132.05 62.25 Q132.75 62.85 133.6 63.3 135.45 64.4 137.45 64.55 L141.3 64.2 141.9 64.05 Q143.55 63.55 144.95 62.5 146.55 61.4 147.45 59.7 L148.05 58.8 147.65 57.15 Q147.1 55.3 145.9 53.7 L145.65 53.45" fill="#b1c4cb" fill-rule="evenodd" stroke="none"/>
    <path d="M171.2 46.25 L171.15 46.25 171.95 48.85 166.4 50.3 166.45 50.35 Q167.55 54.1 167.7 57.7 L167.7 58.3 172.35 58.75 172.3 59.0 173.2 61.85 Q172.6 65.95 171.05 69.95 L170.2 71.85 168.7 74.4 163.75 71.65 163.65 71.85 163.4 72.2 Q161.1 75.9 158.2 78.65 L159.55 80.3 159.5 80.45 159.7 84.05 159.85 84.25 Q155.8 87.4 150.75 89.25 L149.2 89.8 147.45 90.3 147.4 90.3 145.9 85.1 145.75 85.15 145.7 85.15 Q140.1 86.6 134.5 86.2 L134.5 87.0 133.65 91.25 Q127.0 90.55 120.65 87.15 L120.6 87.1 120.8 86.75 121.95 83.0 122.45 82.2 Q120.3 81.0 118.45 79.4 116.2 77.4 114.5 75.35 L114.45 75.3 114.35 75.3 110.15 78.45 110.0 78.5 Q105.75 73.55 103.8 66.9 L103.75 66.75 103.9 66.7 105.85 63.4 108.65 62.7 108.35 60.8 Q108.0 58.0 108.4 55.05 L108.4 54.4 108.4 54.3 108.35 54.3 102.6 53.6 102.7 53.45 Q102.75 52.45 103.05 51.5 L103.25 50.45 Q104.35 45.85 107.05 41.3 L107.15 41.1 107.2 41.1 108.9 39.15 109.05 38.95 109.15 38.95 113.75 41.4 Q116.25 38.05 119.4 35.75 L119.8 35.5 116.6 31.7 117.7 29.3 Q122.85 25.6 129.55 23.85 L131.35 29.95 Q136.65 28.55 141.65 29.2 L141.95 29.2 142.7 22.75 Q149.2 23.55 155.35 26.85 L155.3 27.0 155.4 30.5 153.65 33.35 Q157.5 35.75 160.05 39.0 L165.45 34.95 Q169.35 39.9 171.2 46.25 M145.65 53.45 L145.9 53.7 Q147.1 55.3 147.65 57.15 L148.05 58.8 147.45 59.7 Q146.55 61.4 144.95 62.5 143.55 63.55 141.9 64.05 L141.3 64.2 137.45 64.55 Q135.45 64.4 133.6 63.3 132.75 62.85 132.05 62.25 L130.65 60.95 129.85 59.9 128.85 57.4 Q128.65 56.7 128.6 55.95 128.7 55.45 129.05 55.0 130.0 53.25 131.6 52.15 133.15 50.95 135.15 50.4 L139.1 50.15 Q141.0 50.4 142.9 51.35 144.55 52.25 145.65 53.45" fill="none" stroke="#005c8e" stroke-linecap="round" stroke-linejoin="round" stroke-width="4.0"/>
    <path d="M117.75 29.35 L121.95 34.5 121.95 34.6 119.8 35.6 116.6 31.8 117.75 29.35 M104.9 50.95 L111.65 51.8 108.4 54.35 102.65 53.7 102.7 53.55 104.9 50.95 M164.75 48.15 L164.7 48.05 171.2 46.35 172.0 48.9 166.45 50.35 164.75 48.15 M168.75 74.5 L163.75 71.7 163.75 71.85 162.3 67.75 162.25 67.65 168.0 70.8 168.75 74.5 M147.5 90.35 L147.45 90.35 145.9 85.2 145.75 85.25 145.85 79.9 147.65 86.05 147.5 90.35 M134.5 87.0 L134.5 87.05 133.7 91.3 Q127.05 90.65 120.7 87.2 L120.6 87.2 120.85 86.8 122.0 83.05 122.7 83.4 Q128.35 86.3 134.5 87.0 M114.55 75.45 L114.5 75.4 114.35 75.35 110.2 78.55 111.8 74.9 117.2 70.8 114.55 75.45" fill="#516870" fill-rule="evenodd" stroke="none"/>
    <path d="M153.65 33.4 Q157.5 35.8 160.05 39.05 L165.45 35.05 Q169.4 39.95 171.25 46.35 L171.2 46.35 164.7 48.05 164.75 48.15 164.85 48.55 Q158.5 48.3 152.55 50.65 L149.5 51.75 Q148.9 50.15 147.95 49.05 146.45 47.3 144.25 46.05 142.25 44.9 139.95 44.6 137.6 44.35 135.25 45.05 132.9 45.65 131.05 47.0 129.2 48.25 128.0 50.35 L127.95 50.35 Q126.9 52.4 126.7 54.6 126.45 55.9 126.6 57.15 126.7 58.05 126.95 58.95 L127.55 60.55 Q120.55 62.35 114.25 58.75 L113.25 58.15 111.65 56.95 111.6 56.85 Q111.35 54.85 111.5 52.9 L111.65 51.8 104.9 50.95 104.85 50.95 104.95 50.9 105.3 48.95 Q106.05 45.3 107.85 41.45 L108.95 39.2 109.1 39.05 109.2 39.05 113.75 41.5 115.05 42.2 115.85 41.15 Q117.6 38.15 120.1 36.05 L120.95 35.5 121.95 34.6 121.95 34.5 117.75 29.35 Q122.9 25.65 129.6 23.9 L131.4 30.05 Q136.7 28.65 141.65 29.3 L142.0 29.25 142.75 22.8 Q149.25 23.65 155.4 26.95 L155.35 27.1 152.05 32.45 152.9 32.9 153.65 33.4" fill="#bbd4de" fill-rule="evenodd" stroke="none"/>
    <path d="M153.65 33.4 L152.9 32.9 152.05 32.45 155.35 27.1 155.4 30.6 153.65 33.4 M121.95 34.6 L120.95 35.5 120.1 36.05 Q117.6 38.15 115.85 41.15 L115.05 42.2 113.75 41.5 Q116.3 38.15 119.45 35.85 L119.8 35.6 121.95 34.6 M108.95 39.2 L107.85 41.45 Q106.05 45.3 105.3 48.95 L104.95 50.9 104.85 50.95 104.9 50.95 102.7 53.55 Q102.8 52.55 103.05 51.6 103.1 51.0 103.3 50.55 104.4 45.9 107.05 41.4 L107.2 41.2 107.25 41.2 108.95 39.2 M111.65 51.8 L111.5 52.9 Q111.35 54.85 111.6 56.85 L111.65 56.95 Q111.8 59.3 112.5 61.75 L108.7 62.75 Q108.45 61.85 108.35 60.85 108.05 58.05 108.45 55.1 L108.4 54.5 108.45 54.35 108.4 54.35 111.65 51.8 M164.85 48.55 L164.75 48.15 166.45 50.35 166.45 50.45 Q167.6 54.2 167.7 57.8 L167.7 58.35 165.7 58.0 165.9 55.3 165.65 52.0 165.45 50.65 165.35 50.3 164.85 48.55 M172.35 59.05 L172.35 59.1 173.2 61.9 Q172.6 66.05 171.05 70.0 L170.2 71.95 168.75 74.5 168.0 70.8 168.2 70.85 Q170.0 67.75 171.15 64.45 L171.85 61.7 172.3 58.95 172.35 59.05 M163.75 71.85 L163.65 71.9 163.45 72.3 Q161.1 75.95 158.25 78.75 L155.45 75.4 Q159.6 72.3 162.3 67.75 L163.75 71.85 M159.5 80.5 L159.7 84.15 159.85 84.35 Q155.8 87.45 150.75 89.3 L149.25 89.85 147.5 90.35 147.65 86.05 Q152.6 84.7 156.8 82.4 L157.75 81.75 159.5 80.5 M145.75 85.25 L145.7 85.25 Q140.1 86.7 134.55 86.25 L135.3 80.7 Q140.55 81.35 145.85 79.85 L145.85 79.9 145.75 85.25 M122.5 82.25 Q120.3 81.1 118.5 79.45 116.2 77.5 114.55 75.45 L117.2 70.8 118.85 72.75 Q121.55 75.5 125.2 77.35 L122.5 82.25 M110.2 78.55 L110.05 78.6 Q105.8 73.6 103.85 66.95 L103.8 66.8 103.95 66.75 105.9 63.5 106.75 66.05 Q107.95 69.15 109.65 71.95 L111.8 74.9 110.2 78.55" fill="#6f8891" fill-rule="evenodd" stroke="none"/>
    <path d="M111.65 56.95 L113.25 58.15 114.25 58.75 Q120.55 62.35 127.55 60.55 L129.1 63.0 130.65 64.55 132.45 65.95 Q134.7 67.15 136.95 67.4 L141.7 67.0 142.35 66.8 Q144.3 66.15 145.95 64.95 147.75 63.65 148.75 61.65 L149.5 60.6 Q150.2 58.95 150.35 57.4 150.6 55.3 149.9 52.85 L149.5 51.75 152.55 50.65 Q158.5 48.3 164.85 48.55 L165.35 50.3 165.45 50.65 165.65 52.0 165.9 55.3 165.7 58.0 167.7 58.35 172.35 58.8 172.35 59.05 172.3 58.95 171.85 61.7 171.15 64.45 Q170.0 67.75 168.2 70.85 L168.0 70.8 162.25 67.65 162.3 67.75 Q159.6 72.3 155.45 75.4 L158.25 78.75 159.6 80.4 159.5 80.5 157.75 81.75 156.8 82.4 Q152.6 84.7 147.65 86.05 L145.85 79.9 145.85 79.85 Q140.55 81.35 135.3 80.7 L134.55 86.25 134.5 87.0 Q128.35 86.3 122.7 83.4 L122.0 83.05 122.5 82.25 125.2 77.35 Q121.55 75.5 118.85 72.75 L117.2 70.8 111.8 74.9 109.65 71.95 Q107.95 69.15 106.75 66.05 L105.9 63.5 108.7 62.75 112.5 61.75 Q111.8 59.3 111.65 56.95" fill="#b1c4cb" fill-rule="evenodd" stroke="none"/>
    <path d="M127.55 60.55 L126.95 58.95 Q126.7 58.05 126.6 57.15 126.45 55.9 126.7 54.6 126.9 52.4 127.95 50.35 L128.0 50.35 Q129.2 48.25 131.05 47.0 132.9 45.65 135.25 45.05 137.6 44.35 139.95 44.6 142.25 44.9 144.25 46.05 146.45 47.3 147.95 49.05 148.9 50.15 149.5 51.75 L149.9 52.85 Q150.6 55.3 150.35 57.4 150.2 58.95 149.5 60.6 L148.75 61.65 Q147.75 63.65 145.95 64.95 144.3 66.15 142.35 66.8 L141.7 67.0 136.95 67.4 Q134.7 67.15 132.45 65.95 L130.65 64.55 129.1 63.0 127.55 60.55 M148.05 58.85 Q148.7 57.5 148.85 56.15 149.05 54.35 148.45 52.4 L148.45 52.3 Q147.9 50.4 146.8 49.0 145.45 47.55 143.6 46.55 141.9 45.55 139.95 45.4 L135.85 45.6 Q133.9 46.05 132.45 47.35 130.85 48.35 129.75 50.15 128.75 51.95 128.6 53.8 128.45 54.85 128.65 56.0 L128.9 57.5 129.9 59.95 130.65 61.0 132.05 62.35 133.6 63.4 Q135.5 64.45 137.45 64.65 L141.35 64.25 141.95 64.1 Q143.6 63.65 145.0 62.6 146.55 61.5 147.45 59.8 L148.05 58.85" fill="#d5eef7" fill-rule="evenodd" stroke="none"/>
    <path d="M128.65 56.0 Q128.45 54.85 128.6 53.8 128.75 51.95 129.75 50.15 130.85 48.35 132.45 47.35 133.9 46.05 135.85 45.6 L139.95 45.4 Q141.9 45.55 143.6 46.55 145.45 47.55 146.8 49.0 147.9 50.4 148.45 52.3 L148.45 52.4 Q149.05 54.35 148.85 56.15 148.7 57.5 148.05 58.85 L147.65 57.25 Q147.1 55.4 145.9 53.75 L145.7 53.55 Q144.55 52.3 142.95 51.45 141.05 50.5 139.15 50.2 L135.15 50.5 Q133.15 51.0 131.65 52.2 130.05 53.35 129.1 55.1 128.7 55.5 128.65 56.0" fill="#83979f" fill-rule="evenodd" stroke="none"/>
  </g>
</svg>
