<?xml version="1.0" encoding="UTF-8" standalone="no"?>
<svg xmlns:xlink="http://www.w3.org/1999/xlink" height="69.2px" width="71.15px" xmlns="http://www.w3.org/2000/svg">
  <g transform="matrix(1.0, 0.0, 0.0, 1.0, -516.75, -24.05)">
    <path d="M584.05 48.45 L584.0 48.45 584.75 50.95 579.45 52.35 579.5 52.4 Q580.5 55.95 580.65 59.4 L580.65 59.9 585.15 60.35 585.1 60.6 585.9 63.3 Q585.35 67.2 583.9 71.0 L583.05 72.8 581.6 75.2 576.9 72.65 576.8 72.8 576.6 73.1 Q574.4 76.65 571.65 79.35 L572.95 80.85 572.9 81.0 573.05 84.45 573.2 84.65 Q569.4 87.6 564.55 89.4 L563.1 89.85 561.4 90.35 561.35 90.35 559.95 85.4 559.8 85.45 559.75 85.45 Q554.45 86.85 549.1 86.4 L549.1 87.25 548.3 91.25 Q541.95 90.6 535.9 87.4 L535.85 87.35 536.05 87.0 537.15 83.4 537.65 82.7 Q535.6 81.5 533.85 79.95 531.65 78.1 530.1 76.15 L530.05 76.1 529.95 76.1 525.9 79.15 525.75 79.2 Q521.75 74.5 519.9 68.1 L519.85 67.95 520.0 67.9 521.8 64.75 524.5 64.1 524.25 62.25 Q523.9 59.65 524.25 56.85 L524.25 56.2 524.25 56.1 518.75 55.45 518.85 55.3 Q518.9 54.35 519.2 53.45 L519.35 52.45 Q520.45 48.0 523.0 43.75 L523.05 43.55 523.1 43.55 524.75 41.7 524.9 41.5 525.0 41.5 529.35 43.85 Q531.7 40.7 534.75 38.5 L535.15 38.2 532.05 34.55 533.1 32.35 Q538.0 28.85 544.4 27.2 L546.1 32.95 Q551.1 31.65 555.9 32.25 L556.15 32.25 556.9 26.05 Q563.1 26.9 568.95 29.95 L568.9 30.1 569.0 33.45 567.3 36.2 Q570.95 38.45 573.4 41.55 L578.55 37.65 Q582.25 42.4 584.05 48.45 M561.6 58.85 Q561.05 57.05 559.95 55.55 L559.7 55.3 Q558.65 54.15 557.1 53.3 555.3 52.4 553.5 52.2 L549.75 52.4 Q547.8 52.85 546.3 54.05 544.85 55.1 543.9 56.8 L543.5 57.65 543.75 59.1 Q544.1 60.4 544.7 61.4 L545.45 62.4 546.75 63.65 548.25 64.65 Q550.0 65.75 551.9 65.95 L555.55 65.55 556.1 65.45 Q557.7 64.9 559.05 63.9 560.55 62.9 561.4 61.25 L562.0 60.4 561.6 58.85" fill="#b1c4cb" fill-rule="evenodd" stroke="none"/>
    <path d="M584.05 48.45 L584.0 48.45 584.75 50.95 579.45 52.35 579.5 52.4 Q580.5 55.95 580.65 59.4 L580.65 59.9 585.15 60.35 585.1 60.6 585.9 63.3 Q585.35 67.2 583.9 71.0 L583.05 72.8 581.6 75.2 576.9 72.65 576.8 72.8 576.6 73.1 Q574.4 76.65 571.65 79.35 L572.95 80.85 572.9 81.0 573.05 84.45 573.2 84.65 Q569.4 87.6 564.55 89.4 L563.1 89.85 561.4 90.35 561.35 90.35 559.95 85.4 559.8 85.45 559.75 85.45 Q554.45 86.85 549.1 86.4 L549.1 87.25 548.3 91.25 Q541.95 90.6 535.9 87.4 L535.85 87.35 536.05 87.0 537.15 83.4 537.65 82.7 Q535.6 81.5 533.85 79.95 531.65 78.1 530.1 76.15 L530.05 76.1 529.95 76.1 525.9 79.15 525.75 79.2 Q521.75 74.5 519.9 68.1 L519.85 67.95 520.0 67.9 521.8 64.75 524.5 64.1 524.25 62.25 Q523.9 59.65 524.25 56.85 L524.25 56.2 524.25 56.1 518.75 55.45 518.85 55.3 Q518.9 54.35 519.2 53.45 L519.35 52.45 Q520.45 48.0 523.0 43.75 L523.05 43.55 523.1 43.55 524.75 41.7 524.9 41.5 525.0 41.5 529.35 43.85 Q531.7 40.7 534.75 38.5 L535.15 38.2 532.05 34.55 533.1 32.35 Q538.0 28.85 544.4 27.2 L546.1 32.95 Q551.1 31.65 555.9 32.25 L556.15 32.25 556.9 26.05 Q563.1 26.9 568.95 29.95 L568.9 30.1 569.0 33.45 567.3 36.2 Q570.95 38.45 573.4 41.55 L578.55 37.65 Q582.25 42.4 584.05 48.45 M561.6 58.85 L562.0 60.4 561.4 61.25 Q560.55 62.9 559.05 63.9 557.7 64.9 556.1 65.45 L555.55 65.55 551.9 65.95 Q550.0 65.75 548.25 64.65 L546.75 63.65 545.45 62.4 544.7 61.4 Q544.1 60.4 543.75 59.1 L543.5 57.65 543.9 56.8 Q544.85 55.1 546.3 54.05 547.8 52.85 549.75 52.4 L553.5 52.2 Q555.3 52.4 557.1 53.3 558.65 54.15 559.7 55.3 L559.95 55.55 Q561.05 57.05 561.6 58.85" fill="none" stroke="#005c8e" stroke-linecap="round" stroke-linejoin="round" stroke-width="4.0"/>
    <path d="M579.5 52.4 L579.5 52.45 Q580.55 56.0 580.65 59.45 L580.65 59.95 578.8 59.65 579.0 57.05 578.75 53.9 578.55 52.65 578.45 52.35 577.95 50.65 577.9 50.3 579.5 52.4 M585.15 60.65 L585.15 60.7 585.9 63.35 Q585.35 67.3 583.9 71.05 L583.05 72.9 581.65 75.3 580.95 71.8 581.15 71.85 Q582.85 68.9 584.0 65.8 L584.65 63.15 585.1 60.55 585.15 60.65 M576.9 72.8 L576.8 72.85 576.65 73.2 Q574.4 76.7 571.7 79.45 L569.05 76.2 Q573.0 73.2 575.5 68.9 L576.9 72.8 M572.9 81.05 L573.05 84.55 573.2 84.7 Q569.4 87.65 564.55 89.45 L563.15 89.9 561.45 90.4 561.6 86.3 Q566.3 85.05 570.35 82.9 L571.2 82.25 572.9 81.05 M559.8 85.55 L559.75 85.55 Q554.45 86.95 549.15 86.4 L549.85 81.25 Q554.85 81.75 559.9 80.45 L559.9 80.5 559.8 85.55 M537.65 82.75 Q535.6 81.6 533.9 80.0 531.65 78.2 530.15 76.25 L532.65 71.8 534.2 73.65 Q536.75 76.25 540.25 78.05 L537.65 82.75 M525.95 79.25 L525.8 79.3 Q521.8 74.55 519.95 68.15 L519.9 68.0 520.05 67.95 521.85 64.85 522.7 67.3 Q523.85 70.25 525.45 72.9 526.4 74.4 527.5 75.7 L525.95 79.25 M524.55 64.2 L524.25 62.3 Q523.95 59.65 524.3 56.9 L524.25 56.3 524.3 56.15 524.25 56.15 527.35 53.75 Q527.2 54.3 527.2 54.8 527.05 56.65 527.3 58.5 L527.35 58.65 Q527.5 60.9 528.15 63.2 L524.55 64.2 M518.85 55.4 Q518.95 54.45 519.2 53.55 L519.4 52.55 Q520.5 48.1 523.0 43.85 L523.1 43.65 523.15 43.65 524.8 41.8 523.75 43.9 Q522.0 47.55 521.3 51.0 L520.95 52.8 520.85 52.9 520.9 52.9 518.85 55.4 M529.35 43.95 Q531.75 40.8 534.8 38.6 L535.15 38.3 537.15 37.45 536.2 38.2 535.4 38.8 Q533.0 40.8 531.35 43.6 L530.6 44.55 529.35 43.95 M568.95 30.2 L569.0 33.55 567.3 36.25 566.6 35.75 565.75 35.35 568.95 30.2" fill="#6f8891" fill-rule="evenodd" stroke="none"/>
    <path d="M567.3 36.25 Q570.95 38.55 573.4 41.6 L578.55 37.75 Q582.3 42.45 584.05 48.55 L577.85 50.2 577.9 50.3 577.95 50.65 Q571.9 50.4 566.25 52.65 L563.35 53.7 Q562.8 52.2 561.9 51.1 560.5 49.4 558.4 48.25 556.45 47.15 554.3 46.9 L549.85 47.3 Q547.55 47.85 545.8 49.2 544.05 50.35 542.9 52.4 L542.85 52.4 Q541.85 54.3 541.65 56.45 541.4 57.6 541.55 58.85 L541.9 60.55 542.5 62.0 Q535.8 63.75 529.85 60.35 L528.9 59.75 527.35 58.65 527.3 58.5 Q527.05 56.65 527.2 54.8 527.2 54.3 527.35 53.75 L520.9 52.9 520.85 52.9 520.95 52.8 521.3 51.0 Q522.0 47.55 523.75 43.9 L524.8 41.8 524.95 41.6 525.05 41.6 529.35 43.95 530.6 44.55 531.35 43.6 Q533.0 40.8 535.4 38.8 L536.2 38.2 537.15 37.45 537.15 37.35 533.15 32.35 Q538.05 28.9 544.45 27.2 L546.15 33.0 Q551.15 31.75 555.9 32.35 L556.2 32.3 556.95 26.1 Q563.15 27.0 569.0 30.05 L568.95 30.2 565.75 35.35 566.6 35.75 567.3 36.25" fill="#bbd4de" fill-rule="evenodd" stroke="none"/>
    <path d="M584.05 48.55 L584.8 50.95 579.5 52.4 577.9 50.3 577.85 50.2 584.05 48.55 M581.65 75.3 L576.9 72.7 576.9 72.8 575.5 68.9 575.5 68.8 580.95 71.8 581.65 75.3 M561.45 90.4 L561.4 90.4 559.95 85.5 559.8 85.55 559.9 80.5 561.6 86.3 561.45 90.4 M549.1 87.25 L549.1 87.3 548.35 91.3 Q542.0 90.7 535.95 87.45 L535.85 87.45 536.1 87.05 537.2 83.45 537.85 83.85 Q543.25 86.5 549.1 87.25 M530.15 76.25 L530.1 76.2 529.95 76.15 525.95 79.25 527.5 75.7 532.65 71.8 530.15 76.25 M524.25 56.15 L518.8 55.55 518.85 55.4 520.9 52.9 527.35 53.75 524.25 56.15 M535.15 38.3 L532.05 34.65 533.15 32.35 537.15 37.35 537.15 37.45 535.15 38.3" fill="#516870" fill-rule="evenodd" stroke="none"/>
    <path d="M580.65 59.95 L585.15 60.4 585.15 60.65 585.1 60.55 584.65 63.15 584.0 65.8 Q582.85 68.9 581.15 71.85 L580.95 71.8 575.5 68.8 575.5 68.9 Q573.0 73.2 569.05 76.2 L571.7 79.45 573.0 80.95 572.9 81.05 571.2 82.25 570.35 82.9 Q566.3 85.05 561.6 86.3 L559.9 80.5 559.9 80.45 Q554.85 81.75 549.85 81.25 L549.15 86.4 549.1 87.25 Q543.25 86.5 537.85 83.85 L537.2 83.45 537.65 82.75 540.25 78.05 Q536.75 76.25 534.2 73.65 L532.65 71.8 527.5 75.7 Q526.4 74.4 525.45 72.9 523.85 70.25 522.7 67.3 L521.85 64.85 524.55 64.2 528.15 63.2 Q527.5 60.9 527.35 58.65 L528.9 59.75 529.85 60.35 Q535.8 63.75 542.5 62.0 543.1 63.35 543.95 64.4 L545.45 65.95 547.15 67.2 Q549.3 68.3 551.4 68.55 L555.95 68.15 556.55 68.0 Q558.4 67.4 560.0 66.2 561.7 65.05 562.65 63.15 L563.35 62.05 Q564.05 60.55 564.2 59.1 564.45 57.05 563.75 54.75 L563.35 53.7 566.25 52.65 Q571.9 50.4 577.95 50.65 L578.45 52.35 578.55 52.65 578.75 53.9 579.0 57.05 578.8 59.65 580.65 59.95" fill="#b1c4cb" fill-rule="evenodd" stroke="none"/>
    <path d="M562.0 60.45 L562.75 57.85 Q562.95 56.15 562.35 54.3 L562.35 54.2 Q561.85 52.4 560.8 51.05 559.55 49.7 557.75 48.75 556.1 47.75 554.3 47.6 L550.4 47.8 Q548.55 48.25 547.15 49.45 545.6 50.45 544.6 52.2 543.65 53.85 543.5 55.65 543.35 56.65 543.55 57.7 L543.75 59.15 Q544.15 60.5 544.75 61.45 L545.45 62.45 546.75 63.75 548.25 64.75 Q550.05 65.8 551.9 65.95 L555.6 65.6 556.15 65.5 Q557.75 65.0 559.1 64.0 560.55 63.0 561.4 61.35 L562.0 60.45 M542.5 62.0 L541.9 60.55 541.55 58.85 Q541.4 57.6 541.65 56.45 541.85 54.3 542.85 52.4 L542.9 52.4 Q544.05 50.35 545.8 49.2 547.55 47.85 549.85 47.3 L554.3 46.9 Q556.45 47.15 558.4 48.25 560.5 49.4 561.9 51.1 562.8 52.2 563.35 53.7 L563.75 54.75 Q564.45 57.05 564.2 59.1 564.05 60.55 563.35 62.05 L562.65 63.15 Q561.7 65.05 560.0 66.2 558.4 67.4 556.55 68.0 L555.95 68.15 551.4 68.55 Q549.3 68.3 547.15 67.2 L545.45 65.95 543.95 64.4 Q543.1 63.35 542.5 62.0" fill="#d5eef7" fill-rule="evenodd" stroke="none"/>
    <path d="M543.55 57.7 Q543.35 56.65 543.5 55.65 543.65 53.85 544.6 52.2 545.6 50.45 547.15 49.45 548.55 48.25 550.4 47.8 L554.3 47.6 Q556.1 47.75 557.75 48.75 559.55 49.7 560.8 51.05 561.85 52.4 562.35 54.2 L562.35 54.3 Q562.95 56.15 562.75 57.85 L562.0 60.45 561.6 58.95 Q561.05 57.15 559.95 55.6 L559.75 55.4 Q558.65 54.2 557.15 53.4 555.35 52.5 553.55 52.25 L549.75 52.5 Q547.8 52.95 546.35 54.1 544.9 55.2 543.95 56.9 543.6 57.25 543.55 57.7" fill="#83979f" fill-rule="evenodd" stroke="none"/>
  </g>
</svg>
