<?xml version="1.0" encoding="UTF-8" standalone="no"?>
<svg xmlns:xlink="http://www.w3.org/1999/xlink" height="396.6px" width="615.4px" xmlns="http://www.w3.org/2000/svg">
  <g transform="matrix(1.0, 0.0, 0.0, 1.0, -40.05, -40.9)">
    <path d="M637.25 416.15 L637.35 415.85 650.0 416.75 650.05 416.85 648.45 418.4 648.45 418.35 639.4 417.7 639.3 417.85 637.25 416.15" fill="#03429e" fill-rule="evenodd" stroke="none"/>
    <path d="M650.05 416.85 L655.45 427.45 648.4 437.45 647.25 433.15 647.3 433.15 652.3 426.0 652.25 425.85 648.45 418.4 650.05 416.85" fill="#0d206a" fill-rule="evenodd" stroke="none"/>
    <path d="M648.45 418.4 L652.25 425.85 652.3 426.0 647.3 433.15 647.25 433.15 638.3 432.5 634.35 424.95 634.3 424.8 639.3 417.85 639.4 417.7 648.45 418.35 648.45 418.4" fill="url(#gradient0)" fill-rule="evenodd" stroke="none"/>
    <path d="M648.4 437.45 L648.35 437.5 636.0 436.5 638.3 432.5 647.25 433.15 648.4 437.45" fill="#054e94" fill-rule="evenodd" stroke="none"/>
    <path d="M630.4 425.85 L630.35 425.75 637.25 416.15 639.3 417.85 634.3 424.8 634.35 424.95 630.4 425.85" fill="#44c1f7" fill-rule="evenodd" stroke="none"/>
    <path d="M636.0 436.5 L635.8 436.5 630.4 425.85 634.35 424.95 638.3 432.5 636.0 436.5" fill="#0993ee" fill-rule="evenodd" stroke="none"/>
    <path d="M47.0 415.35 L47.1 415.0 59.75 415.9 59.8 416.0 58.2 417.55 58.2 417.45 49.15 416.85 49.0 417.0 47.0 415.35" fill="#03429e" fill-rule="evenodd" stroke="none"/>
    <path d="M49.0 417.0 L49.15 416.85 58.2 417.45 58.2 417.55 62.05 425.15 57.05 432.3 56.95 432.3 48.0 431.65 44.1 424.05 44.05 423.95 49.0 417.0" fill="url(#gradient1)" fill-rule="evenodd" stroke="none"/>
    <path d="M40.1 425.05 L40.05 424.95 47.0 415.35 49.0 417.0 44.05 423.95 44.1 424.05 40.1 425.05" fill="#44c1f7" fill-rule="evenodd" stroke="none"/>
    <path d="M59.8 416.0 L65.2 426.65 58.15 436.55 56.95 432.3 57.05 432.3 62.05 425.15 58.2 417.55 59.8 416.0" fill="#0d206a" fill-rule="evenodd" stroke="none"/>
    <path d="M45.75 435.7 L45.5 435.7 40.1 425.05 44.1 424.05 48.0 431.65 45.75 435.7" fill="#0993ee" fill-rule="evenodd" stroke="none"/>
    <path d="M58.15 436.55 L58.1 436.6 45.75 435.7 48.0 431.65 56.95 432.3 58.15 436.55" fill="#054e94" fill-rule="evenodd" stroke="none"/>
    <path d="M168.15 48.35 L167.55 50.3 166.15 51.65 Q167.9 53.55 168.85 55.8 L172.45 54.3 Q173.8 57.6 173.8 61.4 L173.8 63.0 170.55 63.0 Q170.55 65.25 170.0 67.35 L169.9 67.6 172.45 68.5 172.45 68.65 172.45 70.35 Q171.5 72.6 169.9 74.55 L169.15 75.45 167.9 76.7 165.55 74.5 165.5 74.55 165.35 74.65 Q163.45 76.45 161.4 77.55 L161.9 78.65 161.85 78.65 161.3 80.8 161.4 80.9 Q158.6 82.0 155.5 82.3 L154.6 82.45 153.5 82.45 153.5 79.35 153.35 79.35 Q150.0 79.35 147.0 78.25 L145.75 81.0 Q142.15 79.55 139.1 76.8 L139.1 76.75 139.25 76.6 140.55 74.6 140.9 74.3 139.15 72.15 137.6 69.35 137.55 69.3 137.55 69.25 134.65 70.4 134.55 70.4 Q133.0 67.0 133.0 63.05 L133.0 63.0 133.1 63.0 134.75 61.4 136.4 61.4 136.5 60.3 Q136.85 58.7 137.5 57.15 L137.55 56.8 137.6 56.7 137.55 56.7 134.55 55.55 134.55 55.45 135.1 54.35 135.4 53.85 Q136.75 51.4 138.95 49.25 L139.0 49.2 139.1 49.2 140.4 48.35 140.5 48.3 140.55 48.3 142.65 50.3 Q144.6 48.9 146.75 48.0 L147.0 47.9 145.85 45.4 146.85 44.2 Q150.3 42.9 154.3 42.9 L154.3 46.5 Q157.5 46.5 160.15 47.6 L160.35 47.65 161.85 44.2 Q165.3 45.65 168.15 48.3 L168.15 48.35 M157.25 60.1 Q156.4 59.25 155.4 58.9 L153.15 58.45 Q151.95 58.45 150.85 58.9 149.8 59.25 148.95 60.1 L148.6 60.55 148.5 61.4 148.65 63.0 148.9 63.65 149.45 64.55 150.2 65.4 Q151.1 66.3 152.15 66.65 L154.3 67.0 154.7 67.0 156.65 66.6 158.45 65.4 158.95 65.0 159.0 64.05 Q159.0 62.85 158.55 61.85 L158.5 61.7 157.25 60.1" fill="#b1c4cb" fill-rule="evenodd" stroke="none"/>
    <path d="M168.15 48.35 L167.55 50.3 166.15 51.65 Q167.9 53.55 168.85 55.8 L172.45 54.3 Q173.8 57.6 173.8 61.4 L173.8 63.0 170.55 63.0 Q170.55 65.25 170.0 67.35 L169.9 67.6 172.45 68.5 172.45 68.65 172.45 70.35 Q171.5 72.6 169.9 74.55 L169.15 75.45 167.9 76.7 165.55 74.5 165.5 74.55 165.35 74.65 Q163.45 76.45 161.4 77.55 L161.9 78.65 161.85 78.65 161.3 80.8 161.4 80.9 Q158.6 82.0 155.5 82.3 L154.6 82.45 153.5 82.45 153.5 79.35 153.35 79.35 Q150.0 79.35 147.0 78.25 L145.75 81.0 Q142.15 79.55 139.1 76.8 L139.1 76.75 139.25 76.6 140.55 74.6 140.9 74.3 139.15 72.15 137.6 69.35 137.55 69.3 137.55 69.25 134.65 70.4 134.55 70.4 Q133.0 67.0 133.0 63.05 L133.0 63.0 133.1 63.0 134.75 61.4 136.4 61.4 136.5 60.3 Q136.85 58.7 137.5 57.15 L137.55 56.8 137.6 56.7 137.55 56.7 134.55 55.55 134.55 55.45 135.1 54.35 135.4 53.85 Q136.75 51.4 138.95 49.25 L139.0 49.2 139.1 49.2 140.4 48.35 140.5 48.3 140.55 48.3 142.65 50.3 Q144.6 48.9 146.75 48.0 L147.0 47.9 145.85 45.4 146.85 44.2 Q150.3 42.9 154.3 42.9 L154.3 46.5 Q157.5 46.5 160.15 47.6 L160.35 47.65 161.85 44.2 Q165.3 45.65 168.15 48.3 L168.15 48.35 M157.25 60.1 L158.5 61.7 158.55 61.85 Q159.0 62.85 159.0 64.05 L158.95 65.0 158.45 65.4 156.65 66.6 154.7 67.0 154.3 67.0 152.15 66.65 Q151.1 66.3 150.2 65.4 L149.45 64.55 148.9 63.65 148.65 63.0 148.5 61.4 148.6 60.55 148.95 60.1 Q149.8 59.25 150.85 58.9 151.95 58.45 153.15 58.45 L155.4 58.9 Q156.4 59.25 157.25 60.1" fill="none" stroke="#005c8e" stroke-linecap="round" stroke-linejoin="round" stroke-width="4.0"/>
    <path d="M146.85 44.2 Q150.3 42.9 154.3 42.9 L154.3 46.55 Q157.5 46.55 160.15 47.6 L160.35 47.65 161.85 44.2 Q165.3 45.65 168.15 48.3 L168.15 48.4 165.4 50.95 165.8 51.3 166.15 51.7 Q167.9 53.55 168.85 55.8 L172.45 54.3 Q173.8 57.6 173.8 61.4 L169.9 61.4 169.9 61.5 169.9 61.7 Q166.4 60.7 162.75 61.1 L160.9 61.3 Q160.85 60.3 160.45 59.5 159.95 58.35 158.9 57.35 157.95 56.4 156.75 55.95 L154.05 55.45 Q152.65 55.45 151.4 55.95 150.2 56.4 149.2 57.35 L149.05 57.35 Q148.15 58.35 147.7 59.5 L147.25 60.95 147.15 61.95 147.25 62.9 Q143.1 62.9 140.15 60.0 L139.7 59.5 139.0 58.65 139.0 58.6 Q139.15 57.45 139.6 56.4 L139.85 55.8 136.25 54.3 136.75 53.25 Q137.8 51.3 139.4 49.45 L140.4 48.4 140.5 48.3 140.55 48.3 142.65 50.4 143.3 50.95 143.9 50.5 Q145.35 49.1 147.1 48.25 L147.6 48.0 148.35 47.75 148.35 47.65 146.85 44.2" fill="#bbd4de" fill-rule="evenodd" stroke="none"/>
    <path d="M168.15 48.4 L167.55 50.4 166.15 51.7 165.8 51.3 165.4 50.95 168.15 48.4 M170.55 63.0 L170.55 63.05 Q170.55 65.25 170.0 67.35 L169.9 67.6 168.9 67.2 169.4 65.7 169.85 63.7 169.9 63.0 169.9 62.75 169.9 61.7 169.9 61.5 170.55 63.0 M172.45 68.55 L172.45 70.35 Q171.5 72.6 169.9 74.6 L169.15 75.45 167.9 76.75 168.1 74.6 168.15 74.6 170.9 71.5 171.75 70.1 172.45 68.55 M165.55 74.5 L165.55 74.55 165.5 74.6 165.35 74.75 Q163.45 76.45 161.4 77.55 L160.35 75.3 Q163.15 74.2 165.4 72.0 L165.55 74.5 M161.85 78.7 L161.3 80.8 161.4 80.95 Q158.6 82.0 155.5 82.35 L154.6 82.45 153.5 82.45 154.3 80.05 160.0 79.4 160.55 79.2 161.85 78.7 M153.4 79.4 L153.35 79.4 Q150.0 79.4 147.0 78.25 L148.35 75.3 Q151.15 76.4 154.3 76.4 L154.3 76.45 153.4 79.4 M140.9 74.35 L139.15 72.15 137.6 69.4 139.85 67.2 140.5 68.45 Q141.5 70.35 143.25 71.95 L140.9 74.35 M134.65 70.45 L134.55 70.45 Q133.0 67.05 133.0 63.05 L133.0 63.0 133.1 63.0 134.75 61.4 134.75 63.0 Q134.95 64.9 135.5 66.65 L136.2 68.6 134.65 70.45 M136.4 61.4 L136.5 60.3 Q136.85 58.7 137.5 57.15 L137.55 56.8 137.6 56.75 137.55 56.75 139.85 55.8 139.6 56.4 Q139.15 57.45 139.0 58.6 L139.0 58.65 Q138.7 59.95 138.7 61.4 L136.4 61.4 M134.55 55.45 L135.1 54.35 135.4 53.9 Q136.75 51.45 138.95 49.25 L139.1 49.25 140.4 48.4 139.4 49.45 Q137.8 51.3 136.75 53.25 L136.25 54.3 134.55 55.45 M142.65 50.4 Q144.6 48.9 146.75 48.0 L147.0 47.9 148.35 47.75 147.6 48.0 147.1 48.25 Q145.35 49.1 143.9 50.5 L143.3 50.95 142.65 50.4" fill="#6f8891" fill-rule="evenodd" stroke="none"/>
    <path d="M173.8 61.4 L173.8 63.0 170.55 63.0 169.9 61.5 169.9 61.4 173.8 61.4 M167.9 76.75 L165.55 74.5 165.4 72.0 165.4 71.95 168.1 74.6 167.9 76.75 M153.5 82.45 L153.5 79.4 153.4 79.4 154.3 76.45 154.3 80.05 153.5 82.45 M146.85 78.7 L145.75 81.0 Q142.15 79.6 139.1 76.8 L139.1 76.75 139.25 76.6 140.55 74.65 140.9 74.95 Q143.5 77.4 146.85 78.65 L146.85 78.7 M137.6 69.4 L137.55 69.3 137.55 69.25 134.65 70.45 136.2 68.6 139.85 67.2 137.6 69.4 M137.55 56.75 L134.55 55.55 134.55 55.45 136.25 54.3 139.85 55.8 137.55 56.75 M147.0 47.9 L145.85 45.4 146.85 44.2 148.35 47.65 148.35 47.75 147.0 47.9" fill="#516870" fill-rule="evenodd" stroke="none"/>
    <path d="M169.9 67.6 L172.45 68.55 171.75 70.1 170.9 71.5 168.15 74.6 168.1 74.6 165.4 71.95 165.4 72.0 Q163.15 74.2 160.35 75.3 L161.4 77.55 161.9 78.65 161.85 78.7 160.55 79.2 160.0 79.4 154.3 80.05 154.3 76.45 154.3 76.4 Q151.15 76.4 148.35 75.3 L147.0 78.25 146.85 78.7 146.85 78.65 Q143.5 77.4 140.9 74.95 L140.55 74.65 140.9 74.35 143.25 71.95 Q141.5 70.35 140.5 68.45 L139.85 67.2 136.2 68.6 135.5 66.65 Q134.95 64.9 134.75 63.0 L134.75 61.4 136.4 61.4 138.7 61.4 Q138.7 59.95 139.0 58.65 L139.7 59.5 140.15 60.0 Q143.1 62.9 147.25 62.9 L147.7 64.5 148.35 65.7 149.05 66.65 Q150.2 67.7 151.4 68.15 L154.05 68.55 154.5 68.55 156.8 68.1 Q157.95 67.65 158.9 66.65 L159.4 66.15 160.45 64.5 Q160.95 63.4 160.95 61.95 L160.9 61.3 162.75 61.1 Q166.4 60.7 169.9 61.7 L169.9 62.75 169.9 63.0 169.85 63.7 169.4 65.7 168.9 67.2 169.9 67.6" fill="#b1c4cb" fill-rule="evenodd" stroke="none"/>
    <path d="M148.6 60.55 L148.9 59.35 Q149.35 58.35 150.2 57.5 151.1 56.7 152.15 56.35 153.15 55.85 154.3 55.85 155.6 55.85 156.65 56.35 157.65 56.7 158.45 57.5 159.3 58.35 159.8 59.35 160.2 60.25 160.2 61.4 160.2 62.65 159.8 63.65 L158.95 65.0 159.0 64.05 Q159.0 62.9 158.55 61.85 L158.5 61.7 157.25 60.1 155.4 58.95 153.15 58.45 Q151.95 58.45 150.85 58.95 149.8 59.3 148.95 60.1 L148.6 60.55" fill="#83979f" fill-rule="evenodd" stroke="none"/>
    <path d="M158.95 65.0 L159.8 63.65 Q160.2 62.65 160.2 61.4 160.2 60.25 159.8 59.35 159.3 58.35 158.45 57.5 157.65 56.7 156.65 56.35 155.6 55.85 154.3 55.85 153.15 55.85 152.15 56.35 151.1 56.7 150.2 57.5 149.35 58.35 148.9 59.35 L148.6 60.55 148.5 61.4 Q148.5 62.3 148.65 63.0 L148.9 63.65 149.45 64.55 150.2 65.4 Q151.1 66.3 152.15 66.65 L154.3 67.05 154.7 67.05 156.65 66.6 158.45 65.4 158.95 65.0 M147.25 62.9 L147.15 61.95 147.25 60.95 147.7 59.5 Q148.15 58.35 149.05 57.35 L149.2 57.35 Q150.2 56.4 151.4 55.95 152.65 55.45 154.05 55.45 L156.75 55.95 Q157.95 56.4 158.9 57.35 159.95 58.35 160.45 59.5 160.85 60.3 160.9 61.3 L160.95 61.95 Q160.95 63.4 160.45 64.5 L159.4 66.15 158.9 66.65 Q157.95 67.65 156.8 68.1 L154.5 68.55 154.05 68.55 151.4 68.15 Q150.2 67.7 149.05 66.65 L148.35 65.7 147.7 64.5 147.25 62.9" fill="#d5eef7" fill-rule="evenodd" stroke="none"/>
  </g>
  <defs>
    <linearGradient gradientTransform="matrix(0.0047, 0.0085, -0.0097, 0.0048, 643.25, 425.45)" gradientUnits="userSpaceOnUse" id="gradient0" spreadMethod="pad" x1="-819.2" x2="819.2">
      <stop offset="0.0" stop-color="#6fa9ff"/>
      <stop offset="1.0" stop-color="#465bb0"/>
    </linearGradient>
    <linearGradient gradientTransform="matrix(0.0047, 0.0085, -0.0097, 0.0048, 53.0, 424.6)" gradientUnits="userSpaceOnUse" id="gradient1" spreadMethod="pad" x1="-819.2" x2="819.2">
      <stop offset="0.0" stop-color="#6fa9ff"/>
      <stop offset="1.0" stop-color="#465bb0"/>
    </linearGradient>
  </defs>
</svg>
