<?xml version="1.0" encoding="UTF-8" standalone="no"?>
<svg xmlns:xlink="http://www.w3.org/1999/xlink" height="36.4px" width="37.45px" xmlns="http://www.w3.org/2000/svg">
  <g transform="matrix(1.0, 0.0, 0.0, 1.0, -627.95, -67.4)">
    <path d="M658.7 73.85 L658.25 75.45 657.1 76.55 Q658.55 78.05 659.25 79.9 L662.25 78.7 Q663.4 81.4 663.4 84.55 L663.4 85.8 660.65 85.8 Q660.65 87.75 660.25 89.4 L660.15 89.65 662.25 90.4 662.25 90.5 662.25 91.9 660.15 95.35 659.55 96.1 658.55 97.05 656.6 95.25 656.5 95.35 656.4 95.45 653.2 97.8 653.55 98.7 653.1 100.4 653.2 100.5 Q650.9 101.5 648.35 101.65 L647.55 101.8 646.7 101.8 646.7 99.2 646.6 99.2 Q643.85 99.2 641.35 98.3 L641.25 98.7 640.3 100.55 Q637.4 99.45 634.9 97.15 L635.05 97.0 636.1 95.4 636.45 95.1 634.95 93.3 633.65 91.1 633.65 91.05 633.6 91.05 631.3 91.9 631.2 91.9 Q629.95 89.2 629.95 85.95 L629.95 85.8 630.0 85.8 631.35 84.55 632.7 84.55 632.8 83.65 Q633.05 82.3 633.6 81.05 L633.65 80.75 633.65 80.65 631.2 79.7 631.2 79.65 631.6 78.75 631.85 78.3 Q633.0 76.3 634.8 74.6 L634.85 74.55 634.9 74.55 635.95 73.85 636.05 73.8 636.1 73.8 637.85 75.45 Q639.45 74.3 641.2 73.55 L641.35 73.5 640.4 71.35 641.25 70.45 Q644.05 69.4 647.4 69.4 L647.4 72.35 Q650.0 72.35 652.15 73.25 L652.35 73.3 653.55 70.45 Q656.35 71.6 658.75 73.8 L658.7 73.85 M650.85 84.85 L650.8 84.75 649.8 83.5 Q649.1 82.8 648.25 82.5 L646.45 82.15 644.55 82.5 Q643.7 82.8 643.0 83.5 L642.7 83.85 642.65 84.55 642.75 85.8 642.95 86.4 643.35 87.15 644.0 87.85 Q644.7 88.6 645.6 88.9 L647.4 89.2 647.65 89.2 649.25 88.85 Q650.15 88.55 650.8 87.85 L651.15 87.45 651.15 86.7 650.85 84.85" fill="#b1c4cb" fill-rule="evenodd" stroke="none"/>
    <path d="M658.7 73.85 L658.25 75.45 657.1 76.55 Q658.55 78.05 659.25 79.9 L662.25 78.7 Q663.4 81.4 663.4 84.55 L663.4 85.8 660.65 85.8 Q660.65 87.75 660.25 89.4 L660.15 89.65 662.25 90.4 662.25 90.5 662.25 91.9 660.15 95.35 659.55 96.1 658.55 97.05 656.6 95.25 656.5 95.35 656.4 95.45 653.2 97.8 653.55 98.7 653.1 100.4 653.2 100.5 Q650.9 101.5 648.35 101.65 L647.55 101.8 646.7 101.8 646.7 99.2 646.6 99.2 Q643.85 99.2 641.35 98.3 L641.25 98.7 640.3 100.55 Q637.4 99.45 634.9 97.15 L635.05 97.0 636.1 95.4 636.45 95.1 634.95 93.3 633.65 91.1 633.65 91.05 633.6 91.05 631.3 91.9 631.2 91.9 Q629.95 89.2 629.95 85.95 L629.95 85.8 630.0 85.8 631.35 84.55 632.7 84.55 632.8 83.65 Q633.05 82.3 633.6 81.05 L633.65 80.75 633.65 80.65 631.2 79.7 631.2 79.65 631.6 78.75 631.85 78.3 Q633.0 76.3 634.8 74.6 L634.85 74.55 634.9 74.55 635.95 73.85 636.05 73.8 636.1 73.8 637.85 75.45 Q639.45 74.3 641.2 73.55 L641.35 73.5 640.4 71.35 641.25 70.45 Q644.05 69.4 647.4 69.4 L647.4 72.35 Q650.0 72.35 652.15 73.25 L652.35 73.3 653.55 70.45 Q656.35 71.6 658.75 73.8 L658.7 73.85 M650.85 84.85 L651.15 86.7 651.15 87.45 650.8 87.85 Q650.15 88.55 649.25 88.85 L647.65 89.2 647.4 89.2 645.6 88.9 Q644.7 88.6 644.0 87.85 L643.35 87.15 642.95 86.4 642.75 85.8 642.65 84.55 642.7 83.85 643.0 83.5 Q643.7 82.8 644.55 82.5 L646.45 82.15 648.25 82.5 Q649.1 82.8 649.8 83.5 L650.8 84.75 650.85 84.85" fill="none" stroke="#005c8e" stroke-linecap="round" stroke-linejoin="round" stroke-width="4.0"/>
    <path d="M641.25 70.45 Q644.05 69.4 647.4 69.4 L647.4 72.45 Q650.0 72.45 652.15 73.25 L652.35 73.3 653.55 70.45 Q656.35 71.6 658.75 73.8 L658.7 73.9 656.45 76.0 656.8 76.25 657.1 76.55 Q658.55 78.05 659.25 79.9 L662.25 78.7 Q663.4 81.4 663.4 84.55 L660.15 84.55 660.15 84.65 660.15 84.75 654.3 84.35 652.75 84.5 652.45 83.05 651.1 81.25 Q650.35 80.4 649.35 80.05 L647.2 79.65 645.0 80.05 Q644.0 80.4 643.15 81.25 L643.1 81.25 Q642.35 82.05 641.95 83.05 L641.55 84.2 641.5 85.0 641.55 85.8 Q638.2 85.8 635.8 83.4 L635.35 83.05 634.8 82.25 634.8 82.2 635.25 80.4 635.55 79.9 632.55 78.75 632.5 78.7 632.55 78.7 633.0 77.85 Q633.85 76.25 635.15 74.75 L635.95 73.9 636.05 73.8 636.1 73.8 637.85 75.5 638.35 76.0 638.8 75.55 641.45 73.75 641.9 73.55 642.45 73.35 642.45 73.3 641.25 70.45" fill="#bbd4de" fill-rule="evenodd" stroke="none"/>
    <path d="M658.7 73.9 L658.25 75.5 657.1 76.55 656.8 76.25 656.45 76.0 658.7 73.9 M660.65 85.8 L660.65 85.9 Q660.65 87.75 660.25 89.4 L660.15 89.65 659.3 89.25 659.75 88.05 660.1 86.45 660.15 85.8 660.15 85.65 660.15 84.75 660.15 84.65 660.65 85.8 M662.25 90.45 L662.25 91.9 660.15 95.35 659.55 96.1 658.55 97.1 658.7 95.35 658.75 95.35 660.95 92.85 661.65 91.6 662.25 90.45 M656.6 95.25 L656.6 95.3 656.5 95.35 656.4 95.5 653.2 97.85 652.35 95.95 Q654.6 95.0 656.45 93.25 L656.6 95.25 M653.55 98.7 L653.1 100.4 653.2 100.5 Q650.9 101.5 648.35 101.65 L647.55 101.8 646.7 101.8 647.4 99.85 652.0 99.3 Q652.25 99.15 652.55 99.1 L653.55 98.7 M646.6 99.3 Q643.85 99.3 641.35 98.3 L642.45 95.95 Q644.8 96.85 647.4 96.85 L646.6 99.3 M636.45 95.15 L634.95 93.3 633.65 91.1 635.55 89.25 636.0 90.35 Q636.9 91.9 638.35 93.15 L636.45 95.15 M631.3 91.95 L631.2 91.95 Q629.95 89.2 629.95 85.95 L629.95 85.8 630.0 85.8 631.35 84.55 631.4 85.8 631.9 88.9 632.5 90.45 631.3 91.95 M632.7 84.55 L632.8 83.65 Q633.05 82.3 633.6 81.05 L633.65 80.75 633.65 80.7 635.55 79.9 635.25 80.4 634.8 82.2 634.8 82.25 634.55 84.55 632.7 84.55 M631.2 79.65 L631.6 78.75 631.85 78.35 Q633.0 76.35 634.8 74.6 L634.9 74.6 635.95 73.9 635.15 74.75 Q633.85 76.25 633.0 77.85 L632.55 78.7 632.5 78.7 632.55 78.75 631.2 79.65 M637.85 75.5 Q639.45 74.3 641.2 73.55 L641.35 73.5 642.45 73.35 641.9 73.55 641.45 73.75 638.8 75.55 638.35 76.0 637.85 75.5" fill="#6f8891" fill-rule="evenodd" stroke="none"/>
    <path d="M663.4 84.55 L663.4 85.8 660.65 85.8 660.15 84.65 660.15 84.55 663.4 84.55 M658.55 97.1 L656.6 95.25 656.45 93.25 656.45 93.15 658.7 95.35 658.55 97.1 M646.7 101.8 L646.7 99.3 646.6 99.3 647.4 96.85 647.4 99.85 646.7 101.8 M641.25 98.7 L640.3 100.55 Q637.4 99.5 634.9 97.15 L635.05 97.0 636.1 95.4 636.35 95.7 Q638.55 97.7 641.25 98.7 M633.65 91.1 L633.65 91.05 633.6 91.05 631.3 91.95 632.5 90.45 635.55 89.25 633.65 91.1 M633.65 80.7 L631.2 79.7 631.2 79.65 632.55 78.75 635.55 79.9 633.65 80.7 M641.35 73.5 L640.4 71.35 641.25 70.45 642.45 73.3 642.45 73.35 641.35 73.5" fill="#516870" fill-rule="evenodd" stroke="none"/>
    <path d="M660.15 89.65 L662.25 90.4 662.25 90.45 661.65 91.6 660.95 92.85 658.75 95.35 658.7 95.35 656.45 93.15 656.45 93.25 Q654.6 95.0 652.35 95.95 L653.2 97.85 653.55 98.7 652.55 99.1 Q652.25 99.15 652.0 99.3 L647.4 99.85 647.4 96.85 Q644.8 96.85 642.45 95.95 L641.35 98.3 641.25 98.7 Q638.55 97.7 636.35 95.7 L636.1 95.4 636.45 95.15 638.35 93.15 Q636.9 91.9 636.0 90.35 L635.55 89.25 632.5 90.45 631.9 88.9 631.4 85.8 631.35 84.55 632.7 84.55 634.55 84.55 634.8 82.25 635.35 83.05 635.8 83.4 Q638.2 85.8 641.55 85.8 L641.95 87.1 642.45 88.05 643.1 88.9 Q644.0 89.7 645.0 90.1 L647.2 90.45 647.5 90.45 Q648.5 90.4 649.4 89.95 L651.1 88.9 651.6 88.5 652.45 87.1 Q652.8 86.2 652.8 85.0 L652.75 84.5 654.3 84.35 660.15 84.75 660.15 85.65 660.15 85.8 660.1 86.45 659.75 88.05 659.3 89.25 660.15 89.65" fill="#b1c4cb" fill-rule="evenodd" stroke="none"/>
    <path d="M652.75 84.5 L652.8 85.0 Q652.8 86.2 652.45 87.1 L651.6 88.5 651.1 88.9 649.4 89.95 Q648.5 90.4 647.5 90.45 L647.2 90.45 645.0 90.1 Q644.0 89.7 643.1 88.9 L642.45 88.05 641.95 87.1 641.55 85.8 641.5 85.0 641.55 84.2 641.95 83.05 Q642.35 82.05 643.1 81.25 L643.15 81.25 Q644.0 80.4 645.0 80.05 L647.2 79.65 649.35 80.05 Q650.35 80.4 651.1 81.25 L652.45 83.05 652.75 84.5 M651.15 87.45 L651.85 86.4 Q652.2 85.55 652.2 84.55 652.2 83.65 651.85 82.9 651.5 82.05 650.8 81.35 650.15 80.65 649.25 80.35 L647.4 79.95 645.6 80.35 Q644.7 80.65 644.0 81.35 643.25 82.05 642.95 82.9 642.75 83.35 642.7 83.85 L642.65 84.55 642.75 85.8 642.95 86.4 643.35 87.15 644.0 87.85 Q644.7 88.6 645.6 88.9 L647.4 89.2 647.65 89.2 649.25 88.85 Q650.15 88.55 650.8 87.85 L651.15 87.45" fill="#d5eef7" fill-rule="evenodd" stroke="none"/>
    <path d="M642.7 83.85 Q642.75 83.35 642.95 82.9 643.25 82.05 644.0 81.35 644.7 80.65 645.6 80.35 L647.4 79.95 649.25 80.35 Q650.15 80.65 650.8 81.35 651.5 82.05 651.85 82.9 652.2 83.65 652.2 84.55 652.2 85.55 651.85 86.4 L651.15 87.45 651.15 86.7 650.85 84.85 650.8 84.75 649.8 83.5 Q649.1 82.85 648.25 82.5 L646.45 82.15 644.55 82.5 Q643.7 82.85 643.0 83.5 L642.7 83.85" fill="#83979f" fill-rule="evenodd" stroke="none"/>
  </g>
</svg>
