<?xml version="1.0" encoding="UTF-8" standalone="no"?>
<svg xmlns:xlink="http://www.w3.org/1999/xlink" height="36.45px" width="37.45px" xmlns="http://www.w3.org/2000/svg">
  <g transform="matrix(1.0, 0.0, 0.0, 1.0, -623.45, -405.3)">
    <path d="M652.6 414.55 Q654.05 416.05 654.8 417.9 L657.75 416.65 Q658.9 419.35 658.9 422.45 L658.9 423.8 656.15 423.8 Q656.15 425.7 655.75 427.35 L655.7 427.55 657.75 428.35 657.75 428.45 657.75 429.85 655.7 433.3 655.05 434.05 654.05 435.0 652.15 433.2 652.0 433.3 651.9 433.4 648.7 435.75 649.05 436.65 648.65 438.35 648.7 438.45 Q646.4 439.4 643.85 439.65 L643.05 439.75 642.2 439.75 642.2 437.2 642.1 437.2 Q639.35 437.2 636.85 436.3 L636.75 436.65 635.8 438.5 Q632.9 437.4 630.4 435.1 L630.55 434.95 631.6 433.35 631.95 433.05 630.45 431.3 629.2 429.05 629.2 429.0 629.15 429.0 626.8 429.85 626.7 429.85 Q625.45 427.15 625.45 423.9 L625.45 423.8 625.5 423.8 626.85 422.45 628.25 422.45 628.35 421.6 Q628.55 420.3 629.15 419.0 L629.2 418.75 629.2 418.65 626.7 417.65 626.7 417.6 627.1 416.7 627.4 416.25 Q628.5 414.25 630.3 412.55 L630.35 412.45 630.4 412.45 631.45 411.8 631.55 411.75 631.6 411.75 633.35 413.45 Q634.95 412.25 636.7 411.5 L636.85 411.45 635.9 409.35 636.75 408.4 Q639.55 407.3 642.9 407.3 L642.9 410.35 Q645.5 410.35 647.7 411.2 L647.85 411.25 649.05 408.4 Q651.85 409.55 654.25 411.75 L654.2 411.8 653.75 413.45 652.6 414.55 M643.75 420.45 L641.95 420.1 640.05 420.45 Q639.2 420.7 638.5 421.45 L638.2 421.8 638.15 422.45 638.25 423.8 638.45 424.3 638.9 425.1 639.5 425.75 Q640.2 426.55 641.1 426.85 L642.9 427.15 643.15 427.15 644.75 426.8 646.3 425.75 646.65 425.45 646.65 424.7 646.35 422.85 646.3 422.75 645.3 421.45 Q644.6 420.7 643.75 420.45" fill="#b1c4cb" fill-rule="evenodd" stroke="none"/>
    <path d="M652.6 414.55 Q654.05 416.05 654.8 417.9 L657.75 416.65 Q658.9 419.35 658.9 422.45 L658.9 423.8 656.15 423.8 Q656.15 425.7 655.75 427.35 L655.7 427.55 657.75 428.35 657.75 428.45 657.75 429.85 655.7 433.3 655.05 434.05 654.05 435.0 652.15 433.2 652.0 433.3 651.9 433.4 648.7 435.75 649.05 436.65 648.65 438.35 648.7 438.45 Q646.4 439.4 643.85 439.65 L643.05 439.75 642.2 439.75 642.2 437.2 642.1 437.2 Q639.35 437.2 636.85 436.3 L636.75 436.65 635.8 438.5 Q632.9 437.4 630.4 435.1 L630.55 434.95 631.6 433.35 631.95 433.05 630.45 431.3 629.2 429.05 629.2 429.0 629.15 429.0 626.8 429.85 626.7 429.85 Q625.45 427.15 625.45 423.9 L625.45 423.8 625.5 423.8 626.85 422.45 628.25 422.45 628.35 421.6 Q628.55 420.3 629.15 419.0 L629.2 418.75 629.2 418.65 626.7 417.65 626.7 417.6 627.1 416.7 627.4 416.25 Q628.5 414.25 630.3 412.55 L630.35 412.45 630.4 412.45 631.45 411.8 631.55 411.75 631.6 411.75 633.35 413.45 Q634.95 412.25 636.7 411.5 L636.85 411.45 635.9 409.35 636.75 408.4 Q639.55 407.3 642.9 407.3 L642.9 410.35 Q645.5 410.35 647.7 411.2 L647.85 411.25 649.05 408.4 Q651.85 409.55 654.25 411.75 L654.2 411.8 653.75 413.45 652.6 414.55 M643.75 420.45 Q644.6 420.7 645.3 421.45 L646.3 422.75 646.35 422.85 646.65 424.7 646.65 425.45 646.3 425.75 644.75 426.8 643.15 427.15 642.9 427.15 641.1 426.85 Q640.2 426.55 639.5 425.75 L638.9 425.1 638.45 424.3 638.25 423.8 638.15 422.45 638.2 421.8 638.5 421.45 Q639.2 420.7 640.05 420.45 L641.95 420.1 643.75 420.45" fill="none" stroke="#005c8e" stroke-linecap="round" stroke-linejoin="round" stroke-width="4.0"/>
    <path d="M654.2 411.9 L653.75 413.45 652.6 414.55 652.3 414.2 651.95 413.95 654.2 411.9 M656.15 423.8 L656.15 423.85 Q656.15 425.7 655.75 427.35 L655.7 427.55 654.85 427.2 655.25 425.95 655.65 424.45 655.7 423.8 655.7 423.65 655.7 422.75 655.7 422.55 656.15 423.8 M657.75 428.4 L657.75 429.85 655.7 433.3 655.05 434.05 654.05 435.05 654.2 433.3 654.25 433.3 656.5 430.8 657.15 429.6 657.75 428.4 M652.15 433.2 L652.15 433.25 652.0 433.3 651.9 433.45 648.7 435.8 647.85 433.9 Q650.1 433.0 651.95 431.25 L652.15 433.2 M649.05 436.65 L648.65 438.35 648.7 438.45 Q646.4 439.4 643.85 439.65 L643.05 439.75 642.2 439.75 642.9 437.75 647.5 437.25 648.05 437.1 Q648.55 436.8 649.05 436.65 M642.1 437.25 Q639.35 437.25 636.85 436.3 L638.0 433.9 Q640.3 434.8 642.9 434.8 L642.1 437.25 M631.95 433.1 L630.45 431.3 629.2 429.05 631.05 427.2 631.5 428.3 Q632.4 429.85 633.85 431.1 L631.95 433.1 M626.8 429.9 L626.7 429.9 Q625.45 427.15 625.45 423.9 L625.45 423.8 625.5 423.8 626.85 422.45 626.9 423.8 Q627.05 425.4 627.45 426.85 L628.0 428.4 626.8 429.9 M628.25 422.45 L628.35 421.6 Q628.55 420.3 629.15 419.0 L629.2 418.75 629.2 418.7 631.05 417.9 630.75 418.35 Q630.45 419.2 630.3 420.2 L630.3 420.25 630.1 422.45 628.25 422.45 M626.7 417.6 L627.1 416.7 627.4 416.3 Q628.5 414.3 630.3 412.55 L630.35 412.5 630.4 412.5 631.45 411.9 630.65 412.75 Q629.35 414.2 628.5 415.75 L628.05 416.65 628.0 416.65 628.05 416.7 626.7 417.6 M633.35 413.45 Q634.95 412.25 636.7 411.5 L636.85 411.45 638.0 411.3 637.4 411.5 636.95 411.7 Q635.55 412.35 634.3 413.55 L633.85 413.95 633.35 413.45" fill="#6f8891" fill-rule="evenodd" stroke="none"/>
    <path d="M654.2 411.9 L651.95 413.95 652.3 414.2 652.6 414.55 Q654.05 416.05 654.8 417.9 L657.75 416.65 Q658.9 419.35 658.9 422.45 L655.7 422.45 655.7 422.55 655.7 422.75 649.8 422.3 648.25 422.4 647.95 420.95 646.6 419.15 Q645.9 418.35 644.85 418.0 L642.7 417.6 640.5 418.0 Q639.5 418.35 638.65 419.15 L638.6 419.15 Q637.85 420.0 637.45 420.95 L637.1 422.15 637.0 422.95 637.1 423.8 Q633.7 423.8 631.3 421.35 L630.9 420.95 630.3 420.25 630.3 420.2 Q630.45 419.2 630.75 418.35 L631.05 417.9 628.05 416.7 628.0 416.65 628.05 416.65 628.5 415.75 Q629.35 414.2 630.65 412.75 L631.45 411.9 631.55 411.75 631.6 411.75 633.35 413.45 633.85 413.95 634.3 413.55 Q635.55 412.35 636.95 411.7 L637.4 411.5 638.0 411.3 638.0 411.25 636.75 408.4 Q639.55 407.3 642.9 407.3 L642.9 410.4 Q645.5 410.4 647.7 411.2 L647.85 411.25 649.05 408.4 Q651.85 409.55 654.25 411.75 L654.2 411.9" fill="#bbd4de" fill-rule="evenodd" stroke="none"/>
    <path d="M658.9 422.45 L658.9 423.8 656.15 423.8 655.7 422.55 655.7 422.45 658.9 422.45 M654.05 435.05 L652.15 433.2 651.95 431.25 651.95 431.1 654.2 433.3 654.05 435.05 M642.2 439.75 L642.2 437.25 642.1 437.25 642.9 434.8 642.9 437.75 642.2 439.75 M636.75 436.65 L635.8 438.5 Q632.9 437.45 630.4 435.1 L630.55 434.95 631.6 433.35 631.9 433.65 Q634.05 435.65 636.75 436.65 M629.2 429.05 L629.2 429.0 629.15 429.0 626.8 429.9 628.0 428.4 631.05 427.2 629.2 429.05 M629.2 418.7 L626.7 417.65 626.7 417.6 628.05 416.7 631.05 417.9 629.2 418.7 M636.85 411.45 L635.9 409.35 636.75 408.4 638.0 411.25 638.0 411.3 636.85 411.45" fill="#516870" fill-rule="evenodd" stroke="none"/>
    <path d="M655.7 427.55 L657.75 428.35 657.75 428.4 657.15 429.6 656.5 430.8 654.25 433.3 654.2 433.3 651.95 431.1 651.95 431.25 Q650.1 433.0 647.85 433.9 L648.7 435.8 649.05 436.65 Q648.55 436.8 648.05 437.1 L647.5 437.25 642.9 437.75 642.9 434.8 Q640.3 434.8 638.0 433.9 L636.85 436.3 636.75 436.65 Q634.05 435.65 631.9 433.65 L631.6 433.35 631.95 433.1 633.85 431.1 Q632.4 429.85 631.5 428.3 L631.05 427.2 628.0 428.4 627.45 426.85 Q627.05 425.4 626.9 423.8 L626.85 422.45 628.25 422.45 630.1 422.45 630.3 420.25 630.9 420.95 631.3 421.35 Q633.7 423.8 637.1 423.8 L637.45 425.05 Q637.65 425.6 638.0 425.95 L638.6 426.85 640.5 428.05 642.7 428.4 643.0 428.4 644.9 427.95 646.6 426.85 647.1 426.45 647.95 425.05 Q648.3 424.1 648.3 422.95 L648.25 422.4 649.8 422.3 655.7 422.75 655.7 423.65 655.7 423.8 655.65 424.45 655.25 425.95 654.85 427.2 655.7 427.55" fill="#b1c4cb" fill-rule="evenodd" stroke="none"/>
    <path d="M648.25 422.4 L648.3 422.95 Q648.3 424.1 647.95 425.05 L647.1 426.45 646.6 426.85 644.9 427.95 643.0 428.4 642.7 428.4 640.5 428.05 638.6 426.85 638.0 425.95 Q637.65 425.6 637.45 425.05 L637.1 423.8 637.0 422.95 637.1 422.15 637.45 420.95 Q637.85 420.0 638.6 419.15 L638.65 419.15 Q639.5 418.35 640.5 418.0 L642.7 417.6 644.85 418.0 Q645.9 418.35 646.6 419.15 L647.95 420.95 648.25 422.4 M646.65 425.45 L647.35 424.3 Q647.75 423.5 647.75 422.45 647.75 421.6 647.35 420.8 647.0 420.0 646.3 419.25 L644.75 418.3 642.9 417.95 641.1 418.3 Q640.2 418.65 639.5 419.25 638.75 420.0 638.45 420.8 L638.2 421.8 638.15 422.45 638.25 423.8 638.45 424.3 638.9 425.1 639.5 425.75 Q640.2 426.55 641.1 426.85 L642.9 427.15 643.15 427.15 644.75 426.8 646.3 425.75 646.65 425.45" fill="#d5eef7" fill-rule="evenodd" stroke="none"/>
    <path d="M638.2 421.8 L638.45 420.8 Q638.75 420.0 639.5 419.25 640.2 418.65 641.1 418.3 L642.9 417.95 644.75 418.3 646.3 419.25 Q647.0 420.0 647.35 420.8 647.75 421.6 647.75 422.45 647.75 423.5 647.35 424.3 L646.65 425.45 646.65 424.7 646.35 422.85 646.3 422.75 645.3 421.45 643.75 420.45 641.95 420.1 640.05 420.45 Q639.2 420.75 638.5 421.45 L638.2 421.8" fill="#83979f" fill-rule="evenodd" stroke="none"/>
  </g>
</svg>
