<?xml version="1.0" encoding="UTF-8" standalone="no"?>
<svg xmlns:xlink="http://www.w3.org/1999/xlink" height="36.4px" width="37.45px" xmlns="http://www.w3.org/2000/svg">
  <g transform="matrix(1.0, 0.0, 0.0, 1.0, -32.65, -406.05)">
    <path d="M61.75 415.3 Q63.2 416.8 63.95 418.6 L66.9 417.4 Q68.1 420.1 68.1 423.25 L68.1 424.5 65.3 424.5 Q65.3 426.4 64.9 428.05 L64.85 428.35 66.9 429.15 66.9 430.6 Q66.1 432.4 64.85 434.0 L64.2 434.75 63.2 435.75 61.3 433.9 61.2 434.0 61.1 434.15 57.85 436.4 58.2 437.4 57.8 439.1 57.85 439.25 Q55.55 440.2 53.0 440.4 L52.25 440.45 51.4 440.45 51.4 437.9 51.25 437.9 Q48.5 437.9 46.05 437.05 L44.95 439.25 Q42.05 438.1 39.55 435.9 L40.8 434.05 41.1 433.75 39.6 432.0 Q38.8 430.85 38.35 429.7 L38.35 429.65 38.3 429.65 35.95 430.6 35.85 430.6 Q34.65 427.85 34.65 424.6 L34.65 424.5 34.7 424.5 36.0 423.25 37.4 423.25 37.5 422.35 Q37.7 421.0 38.3 419.7 L38.35 419.45 38.35 419.35 35.85 418.4 35.85 418.35 36.25 417.45 36.55 417.0 Q37.65 415.05 39.45 413.35 L39.5 413.25 39.55 413.25 40.6 412.55 40.75 412.5 40.8 412.5 42.55 414.15 Q44.1 412.95 45.85 412.25 L46.05 412.2 45.05 410.1 45.9 409.1 Q48.75 408.05 52.05 408.05 L52.05 411.05 Q54.65 411.05 56.85 411.95 L57.0 412.0 58.2 409.1 Q61.05 410.3 63.4 412.5 L63.35 412.55 62.95 414.15 61.75 415.3 M55.85 426.15 L55.85 425.4 Q55.85 424.45 55.5 423.6 L55.45 423.5 54.45 422.2 52.9 421.15 51.1 420.8 49.2 421.15 Q48.35 421.45 47.65 422.2 L47.35 422.5 47.3 423.25 47.4 424.5 47.6 425.05 48.05 425.85 48.7 426.5 Q49.35 427.25 50.25 427.55 L52.05 427.85 52.35 427.85 53.9 427.5 Q54.85 427.2 55.45 426.5 L55.85 426.15" fill="#b1c4cb" fill-rule="evenodd" stroke="none"/>
    <path d="M61.75 415.3 Q63.2 416.8 63.95 418.6 L66.9 417.4 Q68.1 420.1 68.1 423.25 L68.1 424.5 65.3 424.5 Q65.3 426.4 64.9 428.05 L64.85 428.35 66.9 429.15 66.9 430.6 Q66.1 432.4 64.85 434.0 L64.2 434.75 63.2 435.75 61.3 433.9 61.2 434.0 61.1 434.15 57.85 436.4 58.2 437.4 57.8 439.1 57.85 439.25 Q55.55 440.2 53.0 440.4 L52.25 440.45 51.4 440.45 51.4 437.9 51.25 437.9 Q48.5 437.9 46.05 437.05 L44.95 439.25 Q42.05 438.1 39.55 435.9 L40.8 434.05 41.1 433.75 39.6 432.0 Q38.8 430.85 38.35 429.7 L38.35 429.65 38.3 429.65 35.95 430.6 35.85 430.6 Q34.65 427.85 34.65 424.6 L34.65 424.5 34.7 424.5 36.0 423.25 37.4 423.25 37.5 422.35 Q37.7 421.0 38.3 419.7 L38.35 419.45 38.35 419.35 35.85 418.4 35.85 418.35 36.25 417.45 36.55 417.0 Q37.65 415.05 39.45 413.35 L39.5 413.25 39.55 413.25 40.6 412.55 40.75 412.5 40.8 412.5 42.55 414.15 Q44.1 412.95 45.85 412.25 L46.05 412.2 45.05 410.1 45.9 409.1 Q48.75 408.05 52.05 408.05 L52.05 411.05 Q54.65 411.05 56.85 411.95 L57.0 412.0 58.2 409.1 Q61.05 410.3 63.4 412.5 L63.35 412.55 62.95 414.15 61.75 415.3 M55.85 426.15 L55.45 426.5 Q54.85 427.2 53.9 427.5 L52.35 427.85 52.05 427.85 50.25 427.55 Q49.35 427.25 48.7 426.5 L48.05 425.85 47.6 425.05 47.4 424.5 47.3 423.25 47.35 422.5 47.65 422.2 Q48.35 421.45 49.2 421.15 L51.1 420.8 52.9 421.15 54.45 422.2 55.45 423.5 55.5 423.6 Q55.85 424.45 55.85 425.4 L55.85 426.15" fill="none" stroke="#005c8e" stroke-linecap="round" stroke-linejoin="round" stroke-width="4.0"/>
    <path d="M63.35 412.6 L61.15 414.65 61.45 415.0 61.75 415.3 Q63.2 416.8 63.95 418.6 L66.9 417.4 Q68.1 420.1 68.1 423.25 L64.85 423.25 64.85 423.35 64.85 423.5 Q62.0 422.6 58.95 422.95 L57.4 423.1 57.1 421.75 Q56.65 420.7 55.8 419.95 55.05 419.1 54.05 418.75 L51.85 418.35 49.7 418.75 Q48.7 419.1 47.85 419.95 L47.8 419.95 Q47.05 420.7 46.6 421.75 L46.25 422.8 46.2 423.7 46.25 424.5 Q42.85 424.5 40.45 422.1 L40.05 421.75 39.45 420.95 39.45 420.9 39.95 419.1 40.2 418.6 37.25 417.45 37.2 417.4 37.25 417.4 37.65 416.55 Q38.5 415.0 39.85 413.45 L40.6 412.6 Q40.6 412.5 40.75 412.5 L40.8 412.5 42.55 414.2 43.0 414.65 43.5 414.25 Q44.7 413.1 46.15 412.45 L46.55 412.25 47.15 412.05 47.15 412.0 45.9 409.1 Q48.75 408.05 52.05 408.05 L52.05 411.05 Q54.65 411.05 56.85 411.95 L57.0 412.0 58.2 409.1 Q61.05 410.3 63.4 412.5 L63.35 412.6" fill="#bbd4de" fill-rule="evenodd" stroke="none"/>
    <path d="M61.75 415.3 L61.45 415.0 61.15 414.65 63.35 412.6 62.95 414.2 61.75 415.3 M47.15 412.05 L46.55 412.25 46.15 412.45 Q44.7 413.1 43.5 414.25 L43.0 414.65 42.55 414.2 Q44.1 412.95 45.85 412.25 L46.05 412.2 47.15 412.05 M40.6 412.6 L39.85 413.45 Q38.5 415.0 37.65 416.55 L37.25 417.4 37.2 417.4 37.25 417.45 35.85 418.35 36.25 417.45 36.55 417.05 Q37.65 415.1 39.45 413.35 L39.5 413.3 39.55 413.3 40.6 412.6 M40.2 418.6 L39.95 419.1 39.45 420.9 39.45 420.95 39.25 423.25 37.4 423.25 37.5 422.35 Q37.7 421.0 38.3 419.7 L38.35 419.45 38.35 419.4 40.2 418.6 M64.85 423.5 L64.85 423.35 65.3 424.5 65.3 424.55 Q65.3 426.4 64.9 428.05 L64.85 428.35 64.0 427.9 64.4 426.75 64.8 425.15 64.85 424.5 64.85 424.35 64.85 423.5 M40.2 427.9 L40.65 429.05 Q41.55 430.6 43.0 431.85 L41.1 433.8 39.6 432.0 Q38.8 430.85 38.35 429.7 L40.2 427.9 M46.05 437.05 L47.15 434.6 Q49.45 435.55 52.05 435.55 L51.25 437.95 Q48.5 437.95 46.05 437.05 M52.05 438.5 L56.7 437.95 57.2 437.8 58.2 437.4 57.8 439.1 57.85 439.25 Q55.55 440.2 53.0 440.4 L52.25 440.45 51.4 440.45 52.05 438.5 M57.85 436.45 L57.0 434.6 Q59.3 433.7 61.15 431.95 L61.3 433.9 61.3 433.95 61.2 434.0 61.1 434.2 57.85 436.45 M63.35 434.0 L63.4 434.0 65.65 431.45 66.35 430.35 66.9 429.15 66.9 430.6 Q66.1 432.4 64.85 434.0 L64.2 434.75 63.2 435.8 63.35 434.0 M36.0 423.25 L36.05 424.5 Q36.2 426.1 36.6 427.55 L37.2 429.15 35.95 430.65 35.85 430.65 Q34.65 427.85 34.65 424.6 L34.65 424.5 34.7 424.5 36.0 423.25" fill="#6f8891" fill-rule="evenodd" stroke="none"/>
    <path d="M45.9 409.1 L47.15 412.0 47.15 412.05 46.05 412.2 45.05 410.1 45.9 409.1 M37.25 417.45 L40.2 418.6 38.35 419.4 35.85 418.4 35.85 418.35 37.25 417.45 M64.85 423.35 L64.85 423.25 68.1 423.25 68.1 424.5 65.3 424.5 64.85 423.35 M40.8 434.05 L41.05 434.35 Q43.2 436.3 45.9 437.4 L44.95 439.25 Q42.05 438.15 39.55 435.9 L40.8 434.05 M52.05 435.55 L52.05 438.5 51.4 440.45 51.4 437.95 51.25 437.95 52.05 435.55 M61.15 431.95 L61.15 431.85 63.35 434.0 63.2 435.8 61.3 433.9 61.15 431.95 M37.2 429.15 L40.2 427.9 38.35 429.7 38.35 429.65 38.3 429.65 35.95 430.65 37.2 429.15" fill="#516870" fill-rule="evenodd" stroke="none"/>
    <path d="M46.25 424.5 L46.2 423.7 46.25 422.8 46.6 421.75 Q47.05 420.7 47.8 419.95 L47.85 419.95 Q48.7 419.1 49.7 418.75 L51.85 418.35 54.05 418.75 Q55.05 419.1 55.8 419.95 56.65 420.7 57.1 421.75 L57.4 423.1 57.5 423.7 Q57.5 424.8 57.1 425.8 L56.25 427.15 55.8 427.55 54.1 428.7 52.2 429.15 51.85 429.15 49.7 428.8 Q48.7 428.4 47.8 427.55 L47.15 426.75 46.6 425.8 46.25 424.5 M55.85 426.15 L56.5 425.05 Q56.9 424.25 56.9 423.25 56.9 422.35 56.5 421.6 56.15 420.7 55.45 420.05 54.85 419.35 53.9 419.05 L52.05 418.65 50.25 419.05 Q49.35 419.35 48.7 420.05 47.95 420.7 47.6 421.6 L47.35 422.5 47.3 423.25 47.4 424.5 47.6 425.05 48.05 425.85 48.7 426.5 Q49.35 427.25 50.25 427.55 L52.05 427.85 52.35 427.85 53.9 427.5 Q54.85 427.2 55.45 426.5 L55.85 426.15" fill="#d5eef7" fill-rule="evenodd" stroke="none"/>
    <path d="M47.35 422.5 L47.6 421.6 Q47.95 420.7 48.7 420.05 49.35 419.35 50.25 419.05 L52.05 418.65 53.9 419.05 Q54.85 419.35 55.45 420.05 56.15 420.7 56.5 421.6 56.9 422.35 56.9 423.25 56.9 424.25 56.5 425.05 L55.85 426.15 55.85 425.4 55.5 423.6 55.45 423.5 54.45 422.2 52.9 421.15 51.1 420.8 49.2 421.15 Q48.35 421.5 47.65 422.2 L47.35 422.5" fill="#83979f" fill-rule="evenodd" stroke="none"/>
    <path d="M39.45 420.95 L40.05 421.75 40.45 422.1 Q42.85 424.5 46.25 424.5 L46.6 425.8 47.15 426.75 47.8 427.55 Q48.7 428.4 49.7 428.8 L51.85 429.15 52.2 429.15 54.1 428.7 55.8 427.55 56.25 427.15 57.1 425.8 Q57.5 424.8 57.5 423.7 L57.4 423.1 58.95 422.95 Q62.0 422.6 64.85 423.5 L64.85 424.35 64.85 424.5 64.8 425.15 64.4 426.75 64.0 427.9 64.85 428.35 66.9 429.15 66.35 430.35 65.65 431.45 63.4 434.0 63.35 434.0 61.15 431.85 61.15 431.95 Q59.3 433.7 57.0 434.6 L57.85 436.45 58.2 437.4 57.2 437.8 56.7 437.95 52.05 438.5 52.05 435.55 Q49.45 435.55 47.15 434.6 L46.05 437.05 45.9 437.4 Q43.2 436.3 41.05 434.35 L40.8 434.05 41.1 433.8 43.0 431.85 Q41.55 430.6 40.65 429.05 L40.2 427.9 37.2 429.15 36.6 427.55 Q36.2 426.1 36.05 424.5 L36.0 423.25 37.4 423.25 39.25 423.25 39.45 420.95" fill="#b1c4cb" fill-rule="evenodd" stroke="none"/>
  </g>
</svg>
