<?xml version="1.0" encoding="UTF-8" standalone="no"?>
<svg xmlns:xlink="http://www.w3.org/1999/xlink" height="36.3px" width="37.45px" xmlns="http://www.w3.org/2000/svg">
  <g transform="matrix(1.0, 0.0, 0.0, 1.0, -34.4, -67.45)">
    <path d="M38.3 78.3 Q39.4 76.35 41.2 74.6 L41.25 74.55 41.3 74.55 42.35 73.9 42.5 73.85 42.55 73.85 44.3 75.5 Q45.85 74.3 47.6 73.6 L47.8 73.55 46.8 71.4 47.65 70.45 Q50.5 69.45 53.8 69.45 L53.8 72.35 Q56.4 72.35 58.6 73.25 L58.75 73.3 59.95 70.45 Q62.8 71.6 65.15 73.85 L65.1 73.9 64.7 75.5 63.5 76.6 Q64.95 78.1 65.7 79.9 L68.65 78.75 Q69.85 81.4 69.85 84.6 L69.85 85.8 67.05 85.8 Q67.05 87.8 66.65 89.4 L66.6 89.7 68.65 90.4 68.65 90.5 68.65 91.9 66.6 95.35 65.95 96.1 64.95 97.1 63.05 95.2 62.95 95.35 62.85 95.45 59.6 97.75 59.95 98.75 59.55 100.45 59.6 100.55 Q57.3 101.55 54.75 101.65 L54.0 101.75 53.15 101.75 53.15 99.25 53.0 99.25 Q50.25 99.25 47.8 98.35 L47.65 98.75 46.7 100.6 Q43.8 99.4 41.3 97.15 L41.45 97.05 42.55 95.4 42.85 95.05 41.35 93.3 Q40.55 92.2 40.1 91.05 L40.1 91.0 40.05 91.0 37.7 91.9 37.6 91.9 Q36.4 89.2 36.4 85.9 L36.4 85.8 36.45 85.8 37.75 84.6 39.15 84.6 39.25 83.65 Q39.45 82.35 40.05 81.1 L40.1 80.8 40.1 80.7 37.6 79.7 37.6 79.65 38.0 78.8 38.3 78.3 M52.85 82.15 L50.95 82.5 Q50.1 82.85 49.4 83.5 L49.1 83.85 49.05 84.6 49.15 85.8 49.35 86.4 49.8 87.2 50.45 87.9 Q51.1 88.6 52.0 88.9 L53.8 89.2 54.1 89.2 55.65 88.85 57.2 87.9 57.6 87.5 57.6 86.7 57.25 84.9 57.2 84.8 56.2 83.5 Q55.5 82.85 54.65 82.5 L52.85 82.15" fill="#b1c4cb" fill-rule="evenodd" stroke="none"/>
    <path d="M38.3 78.3 Q39.4 76.35 41.2 74.6 L41.25 74.55 41.3 74.55 42.35 73.9 42.5 73.85 42.55 73.85 44.3 75.5 Q45.85 74.3 47.6 73.6 L47.8 73.55 46.8 71.4 47.65 70.45 Q50.5 69.45 53.8 69.45 L53.8 72.35 Q56.4 72.35 58.6 73.25 L58.75 73.3 59.95 70.45 Q62.8 71.6 65.15 73.85 L65.1 73.9 64.7 75.5 63.5 76.6 Q64.95 78.1 65.7 79.9 L68.65 78.75 Q69.85 81.4 69.85 84.6 L69.85 85.8 67.05 85.8 Q67.05 87.8 66.65 89.4 L66.6 89.7 68.65 90.4 68.65 90.5 68.65 91.9 66.6 95.35 65.95 96.1 64.95 97.1 63.05 95.2 62.95 95.35 62.85 95.45 59.6 97.75 59.95 98.75 59.55 100.45 59.6 100.55 Q57.3 101.55 54.75 101.65 L54.0 101.75 53.15 101.75 53.15 99.25 53.0 99.25 Q50.25 99.25 47.8 98.35 L47.65 98.75 46.7 100.6 Q43.8 99.4 41.3 97.15 L41.45 97.05 42.55 95.4 42.85 95.05 41.35 93.3 Q40.55 92.2 40.1 91.05 L40.1 91.0 40.05 91.0 37.7 91.9 37.6 91.9 Q36.4 89.2 36.4 85.9 L36.4 85.8 36.45 85.8 37.75 84.6 39.15 84.6 39.25 83.65 Q39.45 82.35 40.05 81.1 L40.1 80.8 40.1 80.7 37.6 79.7 37.6 79.65 38.0 78.8 38.3 78.3 M52.85 82.15 L54.65 82.5 Q55.5 82.85 56.2 83.5 L57.2 84.8 57.25 84.9 57.6 86.7 57.6 87.5 57.2 87.9 55.65 88.85 54.1 89.2 53.8 89.2 52.0 88.9 Q51.1 88.6 50.45 87.9 L49.8 87.2 49.35 86.4 49.15 85.8 49.05 84.6 49.1 83.85 49.4 83.5 Q50.1 82.85 50.95 82.5 L52.85 82.15" fill="none" stroke="#005c8e" stroke-linecap="round" stroke-linejoin="round" stroke-width="4.0"/>
    <path d="M37.6 79.65 L38.0 78.8 38.3 78.35 Q39.4 76.4 41.2 74.6 L41.3 74.6 42.35 73.95 41.55 74.75 Q40.25 76.3 39.4 77.9 L39.0 78.75 38.9 78.75 39.0 78.8 37.6 79.65 M44.3 75.55 Q45.85 74.3 47.6 73.6 L47.8 73.55 48.9 73.35 48.3 73.6 47.9 73.8 Q46.45 74.5 45.25 75.6 L44.75 76.05 44.3 75.55 M65.1 73.95 L64.7 75.55 63.5 76.6 63.2 76.3 62.9 76.05 65.1 73.95 M67.05 85.8 L67.05 85.85 Q67.05 87.8 66.65 89.4 L66.6 89.7 65.75 89.25 66.15 88.1 66.55 86.45 66.6 85.8 66.6 85.7 66.6 84.8 66.6 84.7 67.05 85.8 M68.65 90.45 L68.65 91.9 66.6 95.35 65.95 96.1 64.95 97.1 65.1 95.35 65.15 95.35 67.4 92.85 68.1 91.65 68.65 90.45 M63.05 95.2 L63.05 95.3 62.95 95.35 62.85 95.5 59.6 97.85 58.75 95.95 Q61.05 95.0 62.9 93.25 L63.05 95.2 M59.95 98.75 L59.55 100.45 59.6 100.55 Q57.3 101.55 54.75 101.65 L54.0 101.75 53.15 101.75 53.8 99.85 58.45 99.3 58.95 99.15 59.95 98.75 M53.0 99.3 Q50.25 99.3 47.8 98.35 L48.9 95.95 Q51.2 96.85 53.8 96.85 L53.0 99.3 M42.85 95.1 L41.35 93.3 Q40.55 92.2 40.1 91.05 L41.95 89.25 42.4 90.35 Q43.3 91.9 44.75 93.15 L42.85 95.1 M37.7 92.0 L37.6 92.0 Q36.4 89.2 36.4 85.9 L36.4 85.8 36.45 85.8 37.75 84.6 37.8 85.8 Q37.95 87.45 38.35 88.9 L38.9 90.45 37.7 92.0 M39.15 84.6 L39.25 83.65 Q39.45 82.35 40.05 81.1 L40.1 80.8 40.1 80.75 41.95 79.9 41.7 80.45 41.2 82.25 41.2 82.3 41.0 84.6 39.15 84.6" fill="#6f8891" fill-rule="evenodd" stroke="none"/>
    <path d="M39.0 78.8 L38.9 78.75 39.0 78.75 39.4 77.9 Q40.25 76.3 41.55 74.75 L42.35 73.95 Q42.35 73.85 42.5 73.85 L42.55 73.85 44.3 75.55 44.75 76.05 45.25 75.6 Q46.45 74.5 47.9 73.8 L48.3 73.6 48.9 73.35 48.9 73.3 47.65 70.45 Q50.5 69.45 53.8 69.45 L53.8 72.4 Q56.4 72.4 58.6 73.25 L58.75 73.3 59.95 70.45 Q62.8 71.6 65.15 73.85 L65.1 73.95 62.9 76.05 63.2 76.3 63.5 76.6 Q64.95 78.1 65.7 79.9 L68.65 78.75 Q69.85 81.4 69.85 84.6 L66.6 84.6 66.6 84.7 66.6 84.8 Q63.75 83.95 60.7 84.3 L59.15 84.5 58.85 83.05 Q58.4 82.05 57.55 81.3 56.8 80.45 55.8 80.05 L53.6 79.65 51.45 80.05 Q50.45 80.45 49.6 81.3 L49.55 81.3 Q48.8 82.05 48.35 83.05 L48.0 84.15 47.95 85.0 48.0 85.8 Q44.6 85.8 42.2 83.4 L41.8 83.05 41.2 82.3 41.2 82.25 41.7 80.45 41.95 79.9 39.0 78.8" fill="#bbd4de" fill-rule="evenodd" stroke="none"/>
    <path d="M37.6 79.65 L39.0 78.8 41.95 79.9 40.1 80.75 37.6 79.7 37.6 79.65 M47.8 73.55 L46.8 71.4 47.65 70.45 48.9 73.3 48.9 73.35 47.8 73.55 M69.85 84.6 L69.85 85.8 67.05 85.8 66.6 84.7 66.6 84.6 69.85 84.6 M64.95 97.1 L63.05 95.2 62.9 93.25 62.9 93.15 65.1 95.35 64.95 97.1 M53.15 101.75 L53.15 99.3 53.0 99.3 53.8 96.85 53.8 99.85 53.15 101.75 M47.65 98.75 L46.7 100.6 Q43.8 99.45 41.3 97.15 L41.45 97.05 42.55 95.4 42.8 95.7 Q44.95 97.65 47.65 98.75 M40.1 91.05 L40.1 91.0 40.05 91.0 37.7 92.0 38.9 90.45 41.95 89.25 40.1 91.05" fill="#516870" fill-rule="evenodd" stroke="none"/>
    <path d="M66.6 89.7 L68.65 90.4 68.65 90.45 68.1 91.65 67.4 92.85 65.15 95.35 65.1 95.35 62.9 93.15 62.9 93.25 Q61.05 95.0 58.75 95.95 L59.6 97.85 59.95 98.75 58.95 99.15 58.45 99.3 53.8 99.85 53.8 96.85 Q51.2 96.85 48.9 95.95 L47.8 98.35 47.65 98.75 Q44.95 97.65 42.8 95.7 L42.55 95.4 42.85 95.1 44.75 93.15 Q43.3 91.9 42.4 90.35 L41.95 89.25 38.9 90.45 38.35 88.9 Q37.95 87.45 37.8 85.8 L37.75 84.6 39.15 84.6 41.0 84.6 41.2 82.3 41.8 83.05 42.2 83.4 Q44.6 85.8 48.0 85.8 L48.35 87.15 48.9 88.1 49.55 88.9 51.45 90.1 53.6 90.45 53.9 90.45 55.85 90.0 57.55 88.9 58.0 88.45 58.85 87.15 Q59.2 86.2 59.2 85.0 L59.15 84.5 60.7 84.3 Q63.75 83.95 66.6 84.8 L66.6 85.7 66.6 85.8 66.55 86.45 66.15 88.1 65.75 89.25 66.6 89.7" fill="#b1c4cb" fill-rule="evenodd" stroke="none"/>
    <path d="M49.1 83.85 Q49.15 83.35 49.35 82.95 49.7 82.05 50.45 81.35 51.1 80.7 52.0 80.4 52.85 79.95 53.8 79.95 L55.65 80.4 Q56.55 80.7 57.2 81.35 L58.25 82.95 Q58.65 83.65 58.65 84.6 58.65 85.6 58.25 86.4 L57.6 87.5 57.6 86.7 57.25 84.9 57.2 84.8 56.2 83.5 Q55.5 82.9 54.65 82.5 L52.85 82.15 50.95 82.5 Q50.1 82.9 49.4 83.5 L49.1 83.85" fill="#83979f" fill-rule="evenodd" stroke="none"/>
    <path d="M48.0 85.8 L47.95 85.0 48.0 84.15 48.35 83.05 Q48.8 82.05 49.55 81.3 L49.6 81.3 Q50.45 80.45 51.45 80.05 L53.6 79.65 55.8 80.05 Q56.8 80.45 57.55 81.3 58.4 82.05 58.85 83.05 L59.15 84.5 59.2 85.0 Q59.2 86.2 58.85 87.15 L58.0 88.45 57.55 88.9 55.85 90.0 53.9 90.45 53.6 90.45 51.45 90.1 49.55 88.9 48.9 88.1 48.35 87.15 48.0 85.8 M57.6 87.5 L58.25 86.4 Q58.65 85.6 58.65 84.6 58.65 83.65 58.25 82.95 L57.2 81.35 Q56.55 80.7 55.65 80.4 L53.8 79.95 Q52.85 79.95 52.0 80.4 51.1 80.7 50.45 81.35 49.7 82.05 49.35 82.95 49.15 83.35 49.1 83.85 L49.05 84.6 49.15 85.8 49.35 86.4 49.8 87.2 50.45 87.9 Q51.1 88.6 52.0 88.9 L53.8 89.2 54.1 89.2 55.65 88.85 57.2 87.9 57.6 87.5" fill="#d5eef7" fill-rule="evenodd" stroke="none"/>
  </g>
</svg>
