<?xml version="1.0" encoding="UTF-8" standalone="no"?>
<svg xmlns:xlink="http://www.w3.org/1999/xlink" height="308.75px" width="560.25px" xmlns="http://www.w3.org/2000/svg">
  <g transform="matrix(1.0, 0.0, 0.0, 1.0, -67.1, -136.2)">
    <path d="M131.3 406.45 L129.95 397.7 116.75 403.55 117.55 413.15 131.3 406.45 M74.5 391.5 L67.1 385.7 81.1 380.6 85.9 382.05 105.55 374.9 106.3 375.7 Q107.5 377.2 107.4 379.35 L101.75 381.5 107.3 383.2 127.45 374.4 127.0 373.35 Q127.5 371.85 128.75 371.3 L131.35 371.65 133.55 376.1 136.3 375.0 134.8 371.75 Q135.35 370.35 136.45 369.85 L139.2 369.6 140.65 372.95 143.55 371.8 143.25 371.6 150.4 355.85 Q156.9 361.2 161.1 368.55 L164.0 367.1 Q163.85 366.6 164.1 365.5 164.95 363.9 166.65 363.25 168.1 362.4 170.2 362.85 172.0 363.75 172.7 365.15 173.5 366.8 172.95 368.45 172.1 370.15 170.45 371.0 L167.1 371.15 165.95 370.7 162.5 372.05 Q165.85 379.7 166.8 388.6 L149.15 383.85 146.45 385.05 148.7 389.25 Q148.2 390.65 147.25 391.25 L144.35 391.35 142.2 386.85 139.5 388.05 142.3 393.85 Q142.0 395.35 140.55 395.75 L137.9 395.85 137.3 394.5 135.3 395.35 136.05 407.4 135.3 410.05 133.4 411.7 118.15 418.45 119.3 433.9 Q115.85 437.4 106.75 440.4 L97.15 442.7 Q92.95 443.05 93.2 439.55 L96.9 436.75 96.05 412.5 92.1 414.55 90.7 413.5 89.1 411.75 82.5 417.65 80.65 417.05 Q77.7 415.65 75.8 413.95 70.2 408.5 73.3 398.25 L82.5 397.15 Q82.15 395.65 82.35 394.5 L87.75 392.0 82.7 388.65 74.5 391.5" fill="#35b6e0" fill-rule="evenodd" stroke="none"/>
    <path d="M535.7 361.7 Q537.65 361.55 538.9 362.45 540.4 363.3 540.85 364.95 541.0 365.95 540.75 366.45 L543.25 368.1 Q548.1 361.9 554.95 357.8 L559.3 373.25 558.95 373.4 561.45 374.75 563.25 371.9 Q564.75 371.8 565.75 372.55 566.65 373.15 567.0 374.4 L565.15 377.2 567.5 378.6 570.2 374.8 572.65 374.85 Q573.65 375.55 574.05 376.9 L573.4 377.85 590.7 388.6 596.05 387.8 591.2 385.1 Q591.4 383.05 592.7 381.85 L593.55 381.1 610.6 390.3 615.2 389.65 627.35 396.1 619.75 400.45 612.6 396.85 607.5 399.15 612.1 402.2 Q612.1 403.35 611.55 404.7 L619.9 407.0 Q621.25 416.75 615.4 420.9 613.35 422.35 610.4 423.2 L608.55 423.7 603.4 417.3 601.7 418.7 Q600.9 419.0 600.2 419.4 L596.9 417.15 592.65 439.3 595.6 442.4 Q595.35 445.6 591.55 444.75 586.75 443.15 583.05 441.4 575.1 437.45 572.35 433.7 L575.7 419.7 562.5 411.5 561.1 409.65 560.7 407.2 563.1 396.15 561.45 395.15 560.7 396.3 Q559.2 396.45 558.25 395.85 556.95 395.35 556.85 393.85 L560.35 388.85 558.05 387.35 555.4 391.25 Q553.85 391.35 552.8 390.8 552.0 390.2 551.65 388.85 L554.4 385.2 552.1 383.8 535.15 385.9 Q537.3 377.8 541.4 371.25 L538.55 369.5 537.3 369.75 Q535.5 370.05 534.35 369.1 532.85 368.15 532.35 366.6 532.05 364.95 532.95 363.45 533.9 362.25 535.7 361.7 M579.05 406.1 L567.8 398.95 565.25 406.95 576.95 414.85 579.05 406.1" fill="#35b6e0" fill-rule="evenodd" stroke="none"/>
    <path d="M95.25 192.5 L98.4 195.75 Q101.05 193.1 104.15 191.7 L104.45 191.65 102.65 187.4 Q106.8 185.75 111.45 185.75 L111.55 185.85 111.45 190.15 112.1 190.25 112.7 190.25 Q115.8 190.4 118.45 191.45 L120.2 187.2 Q124.2 188.8 127.55 192.15 L124.2 195.45 124.35 195.6 124.45 195.75 125.35 196.65 125.5 196.8 126.15 197.55 127.4 199.6 128.3 201.2 129.5 200.85 132.45 199.55 133.2 201.35 133.65 203.25 Q134.1 205.8 134.0 208.2 L133.95 208.25 129.45 208.2 129.6 208.3 Q129.45 212.1 128.15 215.35 L132.25 217.05 131.7 218.5 131.35 219.25 Q129.65 222.0 127.15 224.5 L124.1 221.4 Q121.45 224.05 118.1 225.45 L119.75 229.6 118.3 230.15 Q115.05 231.25 111.65 231.4 L111.05 231.25 110.95 226.7 105.65 226.15 104.0 225.5 102.2 229.8 100.05 228.8 96.2 226.15 94.85 224.9 98.2 221.55 95.95 218.95 95.9 218.9 94.5 216.5 94.2 215.7 90.0 217.5 89.95 217.5 90.0 217.45 89.4 216.1 Q88.7 213.7 88.45 210.6 L88.35 209.05 88.4 208.75 92.95 208.75 93.05 207.8 Q93.05 205.3 93.85 203.2 L94.0 202.55 94.45 201.7 94.35 201.65 90.05 199.9 Q91.9 195.9 95.25 192.5" fill="#e7fff8" fill-rule="evenodd" stroke="none"/>
    <path d="M80.35 171.95 L78.9 168.55 Q82.2 167.25 85.9 167.25 L86.0 167.4 85.9 170.8 86.45 170.9 86.9 170.9 Q89.35 170.95 91.5 171.85 L92.9 168.45 Q96.05 169.75 98.75 172.4 L96.05 175.0 96.2 175.1 96.25 175.25 97.0 175.95 97.1 176.1 97.6 176.65 98.6 178.3 99.35 179.55 100.3 179.3 102.65 178.25 103.25 179.7 103.6 181.25 Q103.95 183.25 103.85 185.2 L100.25 185.2 100.35 185.25 Q100.25 188.25 99.2 190.85 L102.5 192.25 102.05 193.4 101.75 193.95 Q100.4 196.15 98.4 198.1 L96.0 195.7 Q93.85 197.8 91.2 198.9 L92.5 202.2 91.35 202.6 Q88.8 203.55 86.05 203.6 L85.6 203.55 85.5 199.9 81.3 199.45 79.95 198.9 78.55 202.35 76.85 201.55 73.75 199.45 72.7 198.45 75.35 195.75 73.55 193.7 73.5 193.65 72.4 191.8 72.15 191.1 68.8 192.6 68.8 192.55 68.35 191.45 Q67.8 189.5 67.6 187.1 L67.5 185.8 67.55 185.6 71.15 185.6 71.25 184.8 Q71.25 182.85 71.9 181.15 L72.0 180.65 72.35 180.0 72.3 179.95 68.85 178.55 Q70.35 175.35 73.0 172.65 L75.5 175.25 Q77.65 173.15 80.1 172.0 L80.35 171.95 M80.35 185.4 Q80.3 186.6 80.75 187.65 L81.3 188.6 81.85 189.25 82.95 190.25 83.65 190.5 Q84.1 190.55 84.6 190.85 L85.75 190.8 87.85 190.5 89.55 189.25 89.75 189.0 90.75 187.45 Q91.25 186.4 91.15 185.35 L91.25 184.75 90.8 183.25 Q90.5 182.3 89.7 181.45 88.9 180.65 87.9 180.45 86.9 179.95 85.75 179.95 84.75 179.9 83.7 180.45 82.7 180.65 81.85 181.55 81.05 182.3 80.75 183.4 80.3 184.4 80.35 185.4" fill="#e7fff8" fill-rule="evenodd" stroke="none"/>
    <path d="M609.5 198.55 Q603.35 204.7 594.65 204.7 L108.5 204.7 Q99.8 204.7 93.65 198.55 87.5 192.4 87.5 183.7 L87.5 158.7 Q87.5 150.0 93.65 143.85 99.8 137.7 108.5 137.7 L594.65 137.7 Q603.35 137.7 609.5 143.85 615.65 150.0 615.65 158.7 L615.65 183.7 Q615.65 192.4 609.5 198.55" fill="#f5dcca" fill-rule="evenodd" stroke="none"/>
    <path d="M609.5 198.55 Q615.65 192.4 615.65 183.7 L615.65 158.7 Q615.65 150.0 609.5 143.85 603.35 137.7 594.65 137.7 L108.5 137.7 Q99.8 137.7 93.65 143.85 87.5 150.0 87.5 158.7 L87.5 183.7 Q87.5 192.4 93.65 198.55 99.8 204.7 108.5 204.7 L594.65 204.7 Q603.35 204.7 609.5 198.55 Z" fill="none" stroke="#fff9f5" stroke-linecap="round" stroke-linejoin="round" stroke-width="3.0"/>
    <path d="M613.1 239.25 L613.15 239.4 613.9 240.1 614.0 240.25 614.5 240.8 615.5 242.45 616.25 243.7 617.2 243.45 619.55 242.4 620.15 243.85 620.5 245.4 Q620.85 247.4 620.75 249.35 L617.15 249.35 617.25 249.4 Q617.15 252.4 616.1 255.0 L619.4 256.4 618.95 257.55 618.65 258.1 Q617.3 260.3 615.3 262.25 L612.9 259.85 Q610.75 261.95 608.1 263.05 L609.4 266.35 608.25 266.75 Q605.7 267.7 602.95 267.75 L602.5 267.7 602.4 264.05 598.2 263.6 596.85 263.05 595.45 266.5 593.75 265.7 590.65 263.6 589.6 262.6 592.25 259.9 590.45 257.85 590.4 257.8 589.3 255.95 589.05 255.25 585.7 256.75 585.7 256.7 585.25 255.6 Q584.7 253.65 584.5 251.25 L584.4 249.95 584.45 249.75 588.05 249.75 588.15 248.95 Q588.15 247.0 588.8 245.3 L588.9 244.8 589.25 244.15 589.2 244.1 585.75 242.7 Q587.25 239.5 589.9 236.8 L592.4 239.4 Q594.55 237.3 597.0 236.15 L597.25 236.1 595.8 232.7 Q599.1 231.4 602.8 231.4 L602.9 231.55 602.8 234.95 603.35 235.05 603.8 235.05 Q606.25 235.1 608.4 236.0 L609.8 232.6 Q612.95 233.9 615.65 236.55 L612.95 239.15 613.1 239.25 M598.75 245.7 Q597.95 246.45 597.65 247.55 597.2 248.55 597.25 249.55 597.2 250.75 597.65 251.8 L598.2 252.75 598.75 253.4 599.85 254.4 600.55 254.65 601.5 255.0 602.65 254.95 604.75 254.65 Q605.7 254.2 606.45 253.4 L606.65 253.15 607.65 251.6 Q608.15 250.55 608.05 249.5 L608.15 248.9 607.7 247.4 Q607.4 246.45 606.6 245.6 605.8 244.8 604.8 244.6 603.8 244.1 602.65 244.1 601.65 244.05 600.6 244.6 599.6 244.8 598.75 245.7" fill="#e7fff8" fill-rule="evenodd" stroke="none"/>
  </g>
</svg>
