<?xml version="1.0" encoding="UTF-8" standalone="no"?>
<svg xmlns:xlink="http://www.w3.org/1999/xlink" height="57.85px" width="173.85px" xmlns="http://www.w3.org/2000/svg">
  <g transform="matrix(1.0, 0.0, 0.0, 1.0, 3.8, 9.1)">
    <path d="M29.65 -4.55 Q30.25 -4.75 30.6 -4.2 L43.85 9.5 Q44.35 9.95 44.2 10.6 L34.85 39.95 Q34.7 40.6 34.05 40.7 L15.25 44.25 14.7 44.2 14.2 43.9 0.95 30.25 Q0.55 29.6 0.75 29.05 L10.0 -0.25 Q10.2 -0.9 10.85 -0.95 L29.65 -4.55 M23.65 20.1 L26.9 19.75 25.45 18.3 22.6 17.0 19.5 16.8 18.6 17.0 Q20.55 19.15 22.75 19.8 L23.65 20.1" fill="#181218" fill-rule="evenodd" stroke="none"/>
    <path d="M29.65 -4.55 Q30.25 -4.75 30.6 -4.2 L43.85 9.5 Q44.35 9.95 44.2 10.6 L34.85 39.95 Q34.7 40.6 34.05 40.7 L15.25 44.25 14.7 44.2 14.2 43.9 0.95 30.25 Q0.55 29.6 0.75 29.05 L10.0 -0.25 Q10.2 -0.9 10.85 -0.95 L29.65 -4.55 M23.65 20.1 L26.9 19.75 25.45 18.3 22.6 17.0 19.5 16.8 18.6 17.0 Q20.55 19.15 22.75 19.8 L23.65 20.1" fill="none" stroke="#ffffff" stroke-linecap="round" stroke-linejoin="round" stroke-width="9.0"/>
    <path d="M164.2 10.45 Q170.05 16.3 170.05 24.55 170.05 32.8 164.2 38.65 158.35 44.5 150.15 44.5 L42.5 44.5 Q34.25 44.5 28.4 38.65 22.55 32.8 22.55 24.55 22.55 16.3 28.35 10.45 L28.4 10.45 Q34.25 4.6 42.5 4.6 L150.15 4.6 Q158.35 4.6 164.2 10.45" fill="#ffffff" fill-rule="evenodd" stroke="none"/>
    <path d="M162.4 12.25 Q167.55 17.4 167.55 24.55 167.55 31.7 162.45 36.8 L162.4 36.85 Q157.3 41.95 150.15 41.95 L42.5 41.95 Q35.3 41.95 30.2 36.8 25.1 31.7 25.1 24.55 25.1 17.4 30.2 12.25 35.3 7.15 42.5 7.15 L150.15 7.15 Q157.3 7.15 162.4 12.25" fill="#663311" fill-rule="evenodd" stroke="none"/>
    <path d="M150.15 8.45 Q156.8 8.45 161.5 13.15 166.25 17.9 166.25 24.55 166.25 31.2 161.5 35.9 156.8 40.65 150.15 40.65 L42.45 40.65 Q35.8 40.65 31.05 35.9 26.35 31.2 26.35 24.55 26.35 17.9 31.05 13.15 35.8 8.45 42.45 8.45 L150.15 8.45" fill="url(#gradient0)" fill-rule="evenodd" stroke="none"/>
    <path d="M150.1 8.45 Q156.75 8.45 161.45 13.15 166.2 17.9 166.2 24.55 L166.2 24.95 26.35 24.95 26.35 24.55 Q26.35 17.9 31.05 13.15 35.8 8.45 42.45 8.45 L150.1 8.45" fill="url(#gradient1)" fill-rule="evenodd" stroke="none"/>
    <path d="M44.15 10.55 L34.85 39.95 Q34.7 40.55 34.05 40.7 L15.25 44.25 14.7 44.25 14.2 43.95 0.95 30.2 Q0.5 29.6 0.7 29.05 L9.95 -0.25 Q10.15 -0.85 10.8 -1.0 L29.6 -4.55 Q30.25 -4.65 30.65 -4.2 L43.9 9.5 Q44.35 9.95 44.15 10.55 M15.8 16.6 Q15.85 16.15 16.2 15.9 17.55 14.85 19.25 14.55 L22.9 14.9 23.2 15.0 26.4 16.35 26.6 16.4 Q28.4 17.65 29.45 19.75 29.85 20.65 29.0 21.15 26.4 22.75 23.25 22.2 L22.1 21.95 22.05 21.95 Q18.55 20.85 15.95 17.45 15.7 17.05 15.8 16.6 M19.5 16.85 L18.55 17.05 Q20.5 19.15 22.7 19.85 L23.6 20.05 26.85 19.8 Q26.2 18.8 25.45 18.3 L22.55 17.05 19.5 16.85 M11.9 1.1 L3.05 29.15 15.4 42.05 32.9 38.65 41.8 10.6 29.45 -2.35 11.9 1.1" fill="#4f394d" fill-rule="evenodd" stroke="none"/>
    <path d="M29.9 19.9 Q29.4 18.05 27.85 16.55 26.3 15.1 24.2 14.4 L19.9 14.05 Q17.85 14.4 16.25 15.6 16.9 17.45 18.35 18.95 19.9 20.45 22.05 21.1 L26.3 21.45 Q28.45 21.1 29.9 19.9 M26.85 5.9 L40.15 19.75 33.8 39.65 15.05 43.25 1.8 29.5 8.15 9.5 26.85 5.9" fill="#938292" fill-rule="evenodd" stroke="none"/>
    <path d="M29.9 19.9 Q29.4 18.05 27.85 16.55 26.3 15.1 24.2 14.4 L19.9 14.05 Q17.85 14.4 16.25 15.6 16.9 17.45 18.35 18.95 19.9 20.45 22.05 21.1 L26.3 21.45 Q28.45 21.1 29.9 19.9 M29.8 -3.45 L43.15 10.35 37.6 27.7 18.85 31.3 5.6 17.6 11.1 0.2 29.8 -3.45" fill="#e5dae3" fill-rule="evenodd" stroke="none"/>
    <path d="M16.0 14.25 Q15.85 12.45 16.2 11.3 17.15 8.3 20.25 6.9 23.3 5.55 26.65 6.6 30.0 7.65 31.7 10.5 33.4 13.4 32.45 16.4 32.1 17.5 30.95 19.15 L28.85 21.4 Q27.55 17.45 23.6 16.2 19.2 14.8 16.65 17.0 16.05 16.1 16.0 14.25" fill="#938292" fill-rule="evenodd" stroke="none"/>
    <path d="M18.85 31.3 L37.6 27.7 33.8 39.65 15.05 43.25 18.85 31.3" fill="#775f74" fill-rule="evenodd" stroke="none"/>
    <path d="M43.15 10.35 L29.6 -2.5 12.1 0.85 6.9 17.2 18.85 31.3 5.6 17.6 11.1 0.2 29.8 -3.45 43.15 10.35" fill="#ffffff" fill-rule="evenodd" stroke="none"/>
    <path d="M43.15 10.35 L37.6 27.7 18.85 31.3 19.2 30.1 36.75 26.7 42.1 10.1 43.15 10.35" fill="#b2a8b2" fill-rule="evenodd" stroke="none"/>
    <path d="M32.35 11.75 L33.15 15.15 Q33.2 19.0 29.3 21.35 25.05 23.9 20.6 21.25 16.7 18.85 16.35 16.0 L18.2 18.35 Q20.65 20.7 23.5 21.25 25.95 21.65 28.1 20.5 29.95 19.45 31.05 17.55 31.9 16.05 32.25 13.7 L32.35 11.75" fill="#ffffff" fill-rule="evenodd" stroke="none"/>
    <path d="M17.45 10.25 Q17.15 9.75 17.65 9.45 22.05 6.7 26.45 8.1 28.15 8.6 29.35 9.6 31.55 11.35 32.35 13.65 32.55 14.15 31.95 14.4 31.45 14.6 31.2 14.0 L30.55 12.85 Q29.9 11.6 28.55 10.45 27.4 9.65 26.1 9.25 22.25 8.0 18.3 10.45 L17.85 10.5 17.45 10.25" fill="#4f394d" fill-rule="evenodd" stroke="none"/>
    <path d="M25.55 10.95 Q30.25 12.45 31.35 16.65 31.55 17.3 30.9 17.4 30.25 17.6 30.15 16.95 29.1 13.3 25.1 12.0 L25.0 11.95 Q20.65 10.6 17.35 13.4 L16.85 13.85 16.2 14.05 16.0 13.9 Q15.6 13.55 15.9 13.05 L18.45 11.2 Q21.6 9.7 25.35 10.85 L25.55 10.95" fill="#4f394d" fill-rule="evenodd" stroke="none"/>
    <path d="M16.35 15.45 Q16.1 14.95 16.5 14.65 20.1 12.0 24.65 13.45 L24.9 13.55 Q28.65 14.75 30.2 18.05 30.35 18.55 29.9 18.8 29.45 19.05 29.1 18.55 27.85 15.85 24.5 14.65 L24.3 14.6 Q20.35 13.35 17.2 15.6 L16.65 15.7 16.35 15.45" fill="#4f394d" fill-rule="evenodd" stroke="none"/>
  </g>
  <defs>
    <linearGradient gradientTransform="matrix(1.0E-4, 0.0197, -0.0197, 1.0E-4, 96.3, 24.55)" gradientUnits="userSpaceOnUse" id="gradient0" spreadMethod="pad" x1="-819.2" x2="819.2">
      <stop offset="0.0" stop-color="#ff3c9d"/>
      <stop offset="0.7137254901960784" stop-color="#ff8855"/>
      <stop offset="0.9333333333333333" stop-color="#fdb5a4"/>
    </linearGradient>
    <linearGradient gradientTransform="matrix(1.0E-4, 0.0151, -0.0197, 1.0E-4, 95.25, 16.0)" gradientUnits="userSpaceOnUse" id="gradient1" spreadMethod="pad" x1="-819.2" x2="819.2">
      <stop offset="0.0" stop-color="#ffffff"/>
      <stop offset="1.0" stop-color="#ffffff" stop-opacity="0.0"/>
    </linearGradient>
  </defs>
</svg>
