<?xml version="1.0" encoding="UTF-8" standalone="no"?>
<svg xmlns:xlink="http://www.w3.org/1999/xlink" height="175.2px" width="132.85px" xmlns="http://www.w3.org/2000/svg">
  <g transform="matrix(1.0, 0.0, 0.0, 1.0, 1.85, -8.2)">
    <path d="M126.3 50.7 Q127.15 56.3 127.15 62.5 L127.15 156.1 Q127.15 166.0 120.15 172.95 113.2 180.0 103.3 180.1 L25.9 180.4 Q16.0 180.45 8.95 173.5 1.95 166.55 1.95 156.6 L1.95 62.7 Q1.95 56.4 2.9 50.7 L126.3 50.7" fill="#faebe1" fill-rule="evenodd" stroke="none"/>
    <path d="M64.75 157.55 L64.7 159.7 65.0 159.75 65.3 159.75 68.2 160.4 69.05 158.25 Q71.1 159.05 72.75 160.75 L71.1 162.4 71.15 162.45 71.2 162.55 71.65 163.0 71.75 163.05 72.05 163.45 72.7 164.45 73.15 165.25 73.75 165.1 75.2 164.45 75.6 165.35 75.8 166.3 76.0 168.75 75.95 168.8 73.7 168.75 73.8 168.8 Q73.7 170.7 73.05 172.35 L75.1 173.2 74.85 173.95 74.65 174.3 Q73.8 175.7 72.55 176.95 L71.05 175.4 Q69.7 176.7 68.0 177.4 L68.85 179.5 68.1 179.75 64.8 180.4 64.5 180.3 64.45 178.05 61.8 177.75 60.95 177.45 60.05 179.6 59.0 179.1 Q57.95 178.5 57.05 177.75 L56.35 177.15 58.05 175.45 56.9 174.15 56.2 172.95 56.05 172.55 53.95 173.45 53.9 173.45 53.95 173.4 53.65 172.75 53.15 169.95 53.1 169.2 Q53.05 169.1 53.15 169.05 L55.4 169.05 55.45 168.55 Q55.45 167.3 55.85 166.25 L55.95 165.95 56.15 165.5 56.1 165.5 53.95 164.6 Q54.9 162.6 56.55 160.9 L58.15 162.55 Q59.5 161.2 61.05 160.5 L61.2 160.5 60.3 158.35 Q62.35 157.5 64.7 157.5 L64.75 157.55 M65.95 165.8 L64.6 165.5 63.3 165.8 Q62.65 165.95 62.15 166.5 61.65 166.95 61.45 167.65 61.15 168.25 61.2 168.9 61.15 169.7 61.45 170.35 L61.8 170.9 62.15 171.35 62.85 171.95 63.25 172.15 63.85 172.35 64.6 172.35 65.9 172.1 66.95 171.35 67.1 171.2 67.75 170.2 Q68.05 169.55 67.95 168.9 L68.05 168.5 67.75 167.6 67.05 166.45 Q66.55 165.95 65.95 165.8" fill="#f5dcca" fill-rule="evenodd" stroke="none"/>
    <path d="M73.5 155.95 L73.6 156.0 73.65 156.15 74.25 156.75 74.4 156.8 74.8 157.35 75.7 158.75 76.3 159.8 77.1 159.6 79.1 158.75 79.65 159.95 79.9 161.25 Q80.25 162.95 80.15 164.6 L80.1 164.65 77.05 164.6 77.2 164.65 Q77.05 167.25 76.15 169.45 L78.95 170.65 78.6 171.65 78.35 172.15 Q77.2 174.05 75.5 175.75 L73.45 173.6 Q71.6 175.4 69.3 176.35 L70.45 179.2 69.45 179.55 Q67.25 180.3 64.95 180.4 L64.55 180.3 64.45 177.25 60.85 176.8 59.7 176.4 58.5 179.35 57.05 178.65 Q55.6 177.85 54.4 176.8 L53.45 176.0 55.75 173.7 Q54.85 172.9 54.2 171.9 L53.25 170.3 53.05 169.75 50.2 170.95 50.1 170.95 50.2 170.9 49.75 170.0 Q49.3 168.4 49.1 166.2 L49.05 165.2 Q48.95 165.05 49.1 165.0 L52.15 165.0 52.2 164.3 Q52.2 162.6 52.75 161.2 L52.9 160.75 53.15 160.15 53.1 160.15 50.2 158.95 Q51.45 156.2 53.7 153.9 L55.9 156.15 Q57.75 154.3 59.85 153.35 L60.05 153.35 58.8 150.45 Q61.6 149.3 64.8 149.3 L64.85 149.35 64.8 152.25 65.2 152.35 65.6 152.35 Q67.75 152.45 69.55 153.2 L70.7 150.3 Q73.5 151.4 75.75 153.7 L73.5 155.95 M64.65 160.15 Q63.8 160.1 62.9 160.55 62.0 160.75 61.35 161.5 60.65 162.15 60.4 163.1 60.0 163.9 60.05 164.8 60.0 165.85 60.4 166.75 L60.85 167.5 61.35 168.1 62.3 168.95 Q62.65 169.0 62.85 169.2 L63.65 169.45 64.65 169.45 66.45 169.15 67.85 168.1 68.05 167.9 68.95 166.55 Q69.35 165.65 69.2 164.8 L69.35 164.25 68.95 163.0 Q68.7 162.15 68.0 161.45 67.3 160.75 66.5 160.55 L64.65 160.15" fill="#fff9f5" fill-rule="evenodd" stroke="none"/>
    <path d="M67.25 165.75 L67.85 164.15 Q69.35 164.75 70.55 166.0 L69.35 167.2 69.4 167.25 69.45 167.3 69.75 167.65 69.85 167.65 70.05 167.95 70.55 168.7 70.85 169.3 71.3 169.2 72.35 168.7 72.65 169.35 72.8 170.05 72.95 171.85 72.9 171.9 71.25 171.85 71.35 171.9 Q71.25 173.3 70.8 174.5 L72.3 175.1 72.1 175.65 71.95 175.9 70.4 177.85 69.3 176.75 67.1 178.2 67.7 179.75 67.15 179.9 64.75 180.4 64.5 180.35 64.5 178.7 62.55 178.45 61.9 178.25 61.25 179.8 60.5 179.45 59.05 178.45 58.55 178.0 59.8 176.75 58.95 175.8 58.4 174.95 58.3 174.65 56.75 175.3 56.75 175.25 56.55 174.8 56.2 172.75 56.15 172.2 Q56.1 172.1 56.2 172.05 L57.85 172.05 57.85 171.7 Q57.85 170.8 58.15 170.0 L58.25 169.8 58.4 169.45 58.35 169.45 56.75 168.8 Q57.45 167.35 58.7 166.1 L59.85 167.3 Q60.85 166.3 62.0 165.8 L62.1 165.8 61.45 164.2 64.65 163.6 64.7 163.65 64.65 165.2 64.9 165.25 65.1 165.25 67.25 165.75 M62.1 171.95 Q62.05 172.55 62.3 173.05 L62.55 173.45 62.8 173.75 63.3 174.2 63.6 174.35 64.05 174.5 64.6 174.5 65.55 174.3 66.3 173.75 66.4 173.65 66.9 172.9 67.05 171.95 67.1 171.65 66.9 171.0 66.4 170.15 65.6 169.7 64.6 169.45 Q64.1 169.45 63.65 169.7 63.15 169.8 62.8 170.2 62.4 170.55 62.3 171.05 62.05 171.5 62.1 171.95" fill="#fff9f5" fill-rule="evenodd" stroke="none"/>
    <path d="M124.4 14.6 L127.25 17.95 Q128.6 19.85 129.4 21.95 130.8 25.5 130.8 29.6 L130.8 162.05 130.6 165.35 129.9 168.35 128.85 171.15 Q127.25 174.45 124.4 177.2 118.15 183.4 109.2 183.4 L19.55 183.4 Q10.7 183.4 4.35 177.2 1.6 174.45 0.1 171.15 L-0.95 168.35 Q-1.7 165.95 -1.8 163.35 L-1.85 162.05 -1.85 29.6 Q-1.85 25.85 -0.7 22.55 L-0.5 21.95 Q1.05 17.9 4.35 14.6 L4.4 14.55 Q10.75 8.25 19.55 8.25 L109.2 8.25 Q118.15 8.25 124.4 14.6 M125.25 32.45 Q125.25 25.8 121.35 20.7 L119.55 18.6 118.85 17.95 Q113.55 13.2 105.75 13.2 L23.15 13.2 Q15.65 13.2 10.3 17.95 L9.2 19.0 7.65 20.7 Q6.9 21.6 6.3 22.55 3.3 27.05 3.3 32.85 L3.3 158.9 Q3.3 161.2 3.8 163.35 4.55 166.7 6.5 169.6 L7.65 171.15 9.2 172.85 Q14.85 178.6 23.15 178.6 L105.75 178.6 Q113.75 178.6 119.45 173.05 L121.15 171.15 122.25 169.6 Q123.55 167.6 124.3 165.35 125.25 162.45 125.25 159.1 L125.25 124.85 125.25 47.95 125.25 32.45" fill="url(#gradient0)" fill-rule="evenodd" stroke="none"/>
    <path d="M92.25 178.35 Q89.9 179.25 88.0 180.45 L87.95 180.45 Q86.25 181.6 85.45 182.8 L85.25 183.0 84.9 183.3 83.8 183.3 84.7 182.8 Q85.55 181.5 87.25 180.3 89.0 179.05 91.35 178.2 L92.25 178.35" fill="#ffcea1" fill-rule="evenodd" stroke="none"/>
    <path d="M92.25 178.35 L92.95 178.35 93.7 178.4 Q91.05 179.4 89.4 180.6 L89.3 180.7 Q87.75 181.7 86.85 182.9 L86.55 183.3 85.65 183.3 84.9 183.3 85.25 183.0 85.45 182.8 Q86.25 181.6 87.95 180.45 L88.0 180.45 Q89.9 179.25 92.25 178.35" fill="url(#gradient1)" fill-rule="evenodd" stroke="none"/>
    <path d="M71.55 178.35 L72.3 178.35 73.0 178.4 Q70.35 179.4 68.7 180.6 L68.6 180.7 Q67.1 181.7 66.25 182.9 L65.85 183.3 64.95 183.3 64.15 183.3 64.65 183.0 64.75 182.8 Q65.55 181.6 67.2 180.45 L67.4 180.45 Q69.1 179.25 71.55 178.35" fill="url(#gradient2)" fill-rule="evenodd" stroke="none"/>
    <path d="M71.55 178.35 Q69.1 179.25 67.4 180.45 L67.2 180.45 Q65.55 181.6 64.75 182.8 L64.65 183.0 64.15 183.3 63.2 183.3 64.05 182.8 Q64.85 181.5 66.5 180.3 68.3 179.05 70.75 178.2 L71.55 178.35" fill="#ffcea1" fill-rule="evenodd" stroke="none"/>
    <path d="M50.05 178.35 L50.8 178.35 51.4 178.4 Q48.85 179.4 47.2 180.6 L47.1 180.7 Q45.5 181.7 44.65 182.9 L44.35 183.3 43.35 183.3 42.65 183.3 43.05 183.0 43.25 182.8 Q44.05 181.6 45.7 180.45 L45.8 180.45 Q47.6 179.25 50.05 178.35" fill="url(#gradient3)" fill-rule="evenodd" stroke="none"/>
    <path d="M50.05 178.35 Q47.6 179.25 45.8 180.45 L45.7 180.45 Q44.05 181.6 43.25 182.8 L43.05 183.0 42.65 183.3 41.6 183.3 42.45 182.8 Q43.35 181.5 44.95 180.3 46.7 179.05 49.15 178.2 L50.05 178.35" fill="#ffcea1" fill-rule="evenodd" stroke="none"/>
    <path d="M21.35 183.3 L20.4 183.3 21.15 182.8 Q22.05 181.5 23.7 180.3 25.4 179.05 27.85 178.2 L28.75 178.35 Q26.3 179.25 24.5 180.45 L24.3 180.45 Q22.75 181.6 21.95 182.8 L21.75 183.0 21.35 183.3" fill="#ffcea1" fill-rule="evenodd" stroke="none"/>
    <path d="M21.35 183.3 L21.75 183.0 21.95 182.8 Q22.75 181.6 24.3 180.45 L24.5 180.45 Q26.3 179.25 28.75 178.35 L29.5 178.35 30.1 178.4 Q27.55 179.4 25.9 180.6 L25.8 180.7 Q24.2 181.7 23.35 182.9 L23.05 183.3 22.15 183.3 21.35 183.3" fill="url(#gradient4)" fill-rule="evenodd" stroke="none"/>
    <path d="M4.5 178.0 L4.85 177.75 4.95 177.7 Q5.75 176.4 7.35 175.65 7.25 175.4 7.5 175.65 9.2 174.75 11.65 174.45 L12.35 174.9 12.9 175.25 Q10.35 175.4 8.8 176.4 L8.7 176.4 Q7.25 177.1 6.35 178.35 L6.15 178.65 5.25 178.35 4.5 178.0" fill="url(#gradient5)" fill-rule="evenodd" stroke="none"/>
    <path d="M4.5 178.0 L3.5 177.7 4.3 177.35 Q5.05 176.0 6.75 175.1 8.4 174.2 10.75 173.95 L11.65 174.45 Q9.2 174.75 7.5 175.65 7.25 175.4 7.35 175.65 5.75 176.4 4.95 177.7 L4.85 177.75 4.5 178.0" fill="#ffcea1" fill-rule="evenodd" stroke="none"/>
    <path d="M4.1 160.9 Q3.0 158.5 1.7 156.75 1.75 156.45 1.6 156.55 0.4 154.9 -1.0 154.15 -1.15 153.95 -1.15 154.05 L-1.55 153.55 -1.55 152.55 -1.0 153.45 Q0.55 154.2 1.85 155.85 3.25 157.6 4.2 160.05 L4.1 160.9" fill="#ffcea1" fill-rule="evenodd" stroke="none"/>
    <path d="M-1.55 153.55 L-1.15 154.05 Q-1.15 153.95 -1.0 154.15 0.4 154.9 1.6 156.55 1.75 156.45 1.7 156.75 3.0 158.5 4.1 160.9 L4.05 161.7 3.9 162.35 Q2.9 159.65 1.45 158.0 0.3 156.45 -1.1 155.6 L-1.55 155.2 -1.55 154.3 -1.55 153.55" fill="url(#gradient6)" fill-rule="evenodd" stroke="none"/>
    <path d="M-1.55 133.55 L-1.25 134.05 Q-1.15 133.95 -1.1 134.15 0.2 134.9 1.3 136.55 L1.3 136.75 Q2.5 138.5 3.4 140.95 L3.4 141.7 3.3 142.4 Q2.35 139.75 1.05 138.0 0.15 136.45 -1.15 135.6 L-1.55 135.2 -1.55 134.35 -1.55 133.55" fill="url(#gradient7)" fill-rule="evenodd" stroke="none"/>
    <path d="M-1.55 133.55 L-1.55 132.5 -1.1 133.35 Q0.2 134.25 1.45 135.9 2.65 137.65 3.55 140.05 L3.4 140.95 Q2.5 138.5 1.3 136.75 L1.3 136.55 Q0.2 134.9 -1.1 134.15 -1.15 133.95 -1.25 134.05 L-1.55 133.55" fill="#ffcea1" fill-rule="evenodd" stroke="none"/>
    <path d="M-1.55 67.35 L-1.25 67.75 -1.1 67.95 Q0.2 68.75 1.3 70.4 L1.3 70.5 Q2.5 72.3 3.4 74.75 L3.4 75.5 3.3 76.1 Q2.35 73.5 1.05 71.85 0.15 70.2 -1.15 69.4 L-1.55 69.0 -1.55 68.15 -1.55 67.35" fill="url(#gradient8)" fill-rule="evenodd" stroke="none"/>
    <path d="M-1.55 67.35 L-1.55 66.4 -1.1 67.3 Q0.2 68.05 1.45 69.7 2.65 71.45 3.55 73.85 L3.4 74.75 Q2.5 72.3 1.3 70.5 L1.3 70.4 Q0.2 68.75 -1.1 67.95 L-1.25 67.75 -1.55 67.35" fill="#ffcea1" fill-rule="evenodd" stroke="none"/>
    <path d="M-1.55 44.95 L-1.55 44.0 -0.45 45.25 1.45 47.3 2.6 48.95 Q3.3 49.9 3.65 51.0 L3.55 52.45 Q2.75 50.3 1.3 48.15 L-1.55 44.95" fill="#ffcea1" fill-rule="evenodd" stroke="none"/>
    <path d="M3.55 52.45 L3.55 54.1 Q3.0 52.35 1.95 50.7 L1.05 49.45 -0.75 47.1 -1.5 46.3 -1.55 45.75 -1.55 44.95 1.3 48.15 Q2.75 50.3 3.55 52.45" fill="url(#gradient9)" fill-rule="evenodd" stroke="none"/>
    <path d="M3.55 32.45 L3.55 34.0 Q3.0 32.25 1.95 30.6 L1.05 29.35 -0.75 27.1 -1.5 26.25 -1.55 25.75 -1.55 25.0 1.3 28.1 Q2.75 30.2 3.55 32.45" fill="url(#gradient10)" fill-rule="evenodd" stroke="none"/>
    <path d="M-1.55 25.0 L-1.55 24.0 -0.45 25.2 1.45 27.3 2.6 28.85 3.65 30.9 3.55 32.45 Q2.75 30.2 1.3 28.1 L-1.55 25.0" fill="#ffcea1" fill-rule="evenodd" stroke="none"/>
    <path d="M19.85 13.5 L18.2 13.5 21.65 11.85 22.9 10.9 25.15 9.0 25.95 8.25 26.55 8.25 27.35 8.25 24.2 11.15 19.85 13.5" fill="url(#gradient11)" fill-rule="evenodd" stroke="none"/>
    <path d="M27.35 8.25 L28.3 8.2 27.15 9.45 24.95 11.25 23.3 12.5 21.45 13.55 19.85 13.5 24.2 11.15 27.35 8.25" fill="#ffcea1" fill-rule="evenodd" stroke="none"/>
    <path d="M51.3 8.25 L52.35 8.2 51.0 9.45 48.95 11.25 47.25 12.5 45.3 13.55 43.8 13.5 Q46.0 12.65 48.15 11.15 L51.3 8.25" fill="#ffcea1" fill-rule="evenodd" stroke="none"/>
    <path d="M43.8 13.5 L42.15 13.5 45.6 11.85 46.75 10.9 49.1 9.0 49.9 8.25 50.5 8.25 51.3 8.25 48.15 11.15 Q46.0 12.65 43.8 13.5" fill="url(#gradient12)" fill-rule="evenodd" stroke="none"/>
    <path d="M71.7 8.25 L72.7 8.2 71.5 9.45 69.35 11.25 67.7 12.5 65.8 13.55 64.25 13.5 Q66.5 12.65 68.55 11.15 L71.7 8.25" fill="#ffcea1" fill-rule="evenodd" stroke="none"/>
    <path d="M64.25 13.5 L62.55 13.5 66.0 11.85 67.3 10.9 69.55 9.0 70.45 8.25 70.9 8.25 71.7 8.25 68.55 11.15 Q66.5 12.65 64.25 13.5" fill="url(#gradient13)" fill-rule="evenodd" stroke="none"/>
    <path d="M86.15 13.5 L84.55 13.5 87.9 11.85 89.2 10.9 91.55 9.0 92.3 8.25 92.8 8.25 93.6 8.25 90.45 11.15 Q88.4 12.65 86.15 13.5" fill="url(#gradient14)" fill-rule="evenodd" stroke="none"/>
    <path d="M93.6 8.25 L94.65 8.2 93.4 9.45 91.35 11.25 89.65 12.5 87.7 13.55 86.15 13.5 Q88.4 12.65 90.45 11.15 L93.6 8.25" fill="#ffcea1" fill-rule="evenodd" stroke="none"/>
    <path d="M112.15 8.25 L113.15 8.2 111.85 9.45 109.8 11.25 108.1 12.5 106.15 13.55 104.7 13.5 Q106.85 12.65 108.9 11.15 L112.15 8.25" fill="#ffcea1" fill-rule="evenodd" stroke="none"/>
    <path d="M104.7 13.5 L103.0 13.5 Q104.8 12.8 106.45 11.85 L107.75 10.9 110.0 9.0 110.75 8.25 111.35 8.25 112.15 8.25 108.9 11.15 Q106.85 12.65 104.7 13.5" fill="url(#gradient15)" fill-rule="evenodd" stroke="none"/>
    <path d="M131.0 35.35 L131.0 36.35 129.45 35.05 127.3 32.95 125.7 31.2 Q124.95 30.2 124.55 29.25 L124.55 27.6 Q125.6 29.95 127.4 32.05 L131.0 35.35" fill="#ffcea1" fill-rule="evenodd" stroke="none"/>
    <path d="M124.55 27.6 L124.55 25.95 Q125.35 27.8 126.5 29.55 L127.8 30.8 130.05 33.15 130.9 34.0 131.0 34.5 131.0 35.35 127.4 32.05 Q125.6 29.95 124.55 27.6" fill="url(#gradient16)" fill-rule="evenodd" stroke="none"/>
    <path d="M125.25 47.7 L125.25 46.05 Q125.95 47.9 127.0 49.55 L128.1 50.9 130.15 53.3 130.9 54.2 131.0 54.65 131.0 55.45 127.75 52.15 Q126.2 50.0 125.25 47.7" fill="url(#gradient17)" fill-rule="evenodd" stroke="none"/>
    <path d="M131.0 55.45 L131.0 56.5 129.6 55.15 127.7 53.0 126.3 51.25 Q125.6 50.3 125.25 49.35 L125.25 47.7 Q126.2 50.0 127.75 52.15 L131.0 55.45" fill="#ffcea1" fill-rule="evenodd" stroke="none"/>
    <path d="M131.0 76.2 L131.0 77.25 129.6 75.9 127.7 73.85 126.3 72.15 Q125.6 71.15 125.25 70.1 L125.25 68.55 Q126.2 70.75 127.75 73.0 L131.0 76.2" fill="#ffcea1" fill-rule="evenodd" stroke="none"/>
    <path d="M125.25 68.55 L125.25 66.8 Q125.95 68.65 127.0 70.3 L128.1 71.65 130.15 73.95 130.9 74.95 131.0 75.4 131.0 76.2 127.75 73.0 Q126.2 70.75 125.25 68.55" fill="url(#gradient18)" fill-rule="evenodd" stroke="none"/>
    <path d="M109.8 178.35 L110.5 178.35 111.2 178.4 Q108.55 179.4 106.85 180.6 L106.85 180.7 Q105.3 181.7 104.4 182.9 L104.0 183.3 103.15 183.3 102.35 183.3 102.85 183.0 102.95 182.8 Q103.75 181.6 105.4 180.45 L105.5 180.45 Q107.35 179.25 109.8 178.35" fill="url(#gradient19)" fill-rule="evenodd" stroke="none"/>
    <path d="M109.8 178.35 Q107.35 179.25 105.5 180.45 L105.4 180.45 Q103.75 181.6 102.95 182.8 L102.85 183.0 102.35 183.3 101.35 183.3 102.25 182.8 Q103.05 181.5 104.7 180.3 106.5 179.05 108.95 178.2 L109.8 178.35" fill="#ffcea1" fill-rule="evenodd" stroke="none"/>
    <path d="M125.25 133.55 Q126.2 135.9 127.75 138.0 L131.0 141.3 131.0 142.4 129.6 141.05 127.7 138.9 126.3 137.15 Q125.6 136.2 125.25 135.1 L125.25 133.55" fill="#ffcea1" fill-rule="evenodd" stroke="none"/>
    <path d="M125.25 133.55 L125.25 131.9 Q125.95 133.75 127.0 135.4 L128.1 136.75 130.15 139.1 130.9 139.95 131.0 140.45 131.0 141.3 127.75 138.0 Q126.2 135.9 125.25 133.55" fill="url(#gradient20)" fill-rule="evenodd" stroke="none"/>
    <path d="M125.25 153.15 L125.25 151.6 Q125.95 153.35 127.0 155.1 L128.1 156.35 130.15 158.8 130.9 159.55 131.0 160.15 131.0 161.0 127.75 157.7 Q126.2 155.6 125.25 153.15" fill="url(#gradient21)" fill-rule="evenodd" stroke="none"/>
    <path d="M131.0 161.0 L131.0 162.0 129.6 160.65 127.7 158.6 126.3 156.85 Q125.6 155.8 125.25 154.8 L125.25 153.15 Q126.2 155.6 127.75 157.7 L131.0 161.0" fill="#ffcea1" fill-rule="evenodd" stroke="none"/>
    <path d="M121.9 180.35 L121.4 181.1 120.7 179.5 Q119.95 177.75 119.85 176.95 L119.45 175.1 Q119.25 174.1 119.35 173.15 L120.2 172.0 Q119.95 174.1 120.4 176.4 L121.9 180.35" fill="#ffcea1" fill-rule="evenodd" stroke="none"/>
    <path d="M120.2 172.0 L121.0 170.75 Q120.7 172.4 121.0 174.2 L121.4 175.65 122.2 178.35 122.5 179.3 122.3 179.7 121.9 180.35 120.4 176.4 Q119.95 174.1 120.2 172.0" fill="url(#gradient22)" fill-rule="evenodd" stroke="none"/>
    <path d="M8.2 20.0 L7.0 21.15 8.1 17.6 8.2 16.05 8.3 13.15 8.2 11.95 8.6 11.7 9.15 11.15 9.35 15.45 Q9.15 17.95 8.2 20.0" fill="url(#gradient23)" fill-rule="evenodd" stroke="none"/>
    <path d="M9.15 11.15 L9.95 10.5 10.05 12.3 10.15 15.05 9.95 17.0 Q9.75 18.2 9.35 19.0 8.85 19.35 8.2 20.0 9.15 17.95 9.35 15.45 L9.15 11.15" fill="#ffcea1" fill-rule="evenodd" stroke="none"/>
    <path d="M120.35 19.8 L119.3 18.65 Q120.9 19.35 122.65 19.6 L124.15 19.8 126.95 19.9 128.0 19.8 128.3 20.2 128.8 20.8 124.8 21.0 Q122.4 20.7 120.35 19.8" fill="url(#gradient24)" fill-rule="evenodd" stroke="none"/>
    <path d="M128.8 20.8 L129.5 21.45 127.75 21.65 125.15 21.75 123.3 21.55 121.3 21.0 120.35 19.8 Q122.4 20.7 124.8 21.0 L128.8 20.8" fill="#ffcea1" fill-rule="evenodd" stroke="none"/>
    <path d="M-1.6 112.35 L-1.25 112.85 Q-1.15 112.75 -1.1 112.95 0.2 113.7 1.3 115.35 L1.3 115.55 Q2.5 117.3 3.4 119.75 L3.4 120.5 3.3 121.2 Q2.3 118.55 1.05 116.8 0.1 115.25 -1.15 114.4 L-1.6 114.0 -1.6 113.15 -1.6 112.35" fill="url(#gradient25)" fill-rule="evenodd" stroke="none"/>
    <path d="M-1.6 112.35 L-1.6 111.3 -1.1 112.15 Q0.2 113.05 1.45 114.7 2.65 116.45 3.55 118.85 L3.4 119.75 Q2.5 117.3 1.3 115.55 L1.3 115.35 Q0.2 113.7 -1.1 112.95 -1.15 112.75 -1.25 112.85 L-1.6 112.35" fill="#ffcea1" fill-rule="evenodd" stroke="none"/>
    <path d="M-1.6 91.15 L-1.6 90.1 -1.1 90.95 Q0.2 91.85 1.45 93.5 2.65 95.25 3.55 97.65 L3.4 98.55 Q2.5 96.1 1.3 94.35 L1.3 94.15 Q0.2 92.5 -1.1 91.75 -1.15 91.55 -1.25 91.65 L-1.6 91.15" fill="#ffcea1" fill-rule="evenodd" stroke="none"/>
    <path d="M-1.6 91.15 L-1.25 91.65 Q-1.15 91.55 -1.1 91.75 0.2 92.5 1.3 94.15 L1.3 94.35 Q2.5 96.1 3.4 98.55 L3.4 99.3 3.3 100.0 Q2.3 97.35 1.05 95.6 0.1 94.05 -1.15 93.2 L-1.6 92.8 -1.6 91.95 -1.6 91.15" fill="url(#gradient26)" fill-rule="evenodd" stroke="none"/>
    <path d="M131.0 98.2 L131.0 99.25 129.6 97.9 127.7 95.85 126.25 94.15 125.25 92.1 125.25 90.55 Q126.2 92.75 127.8 95.0 L131.0 98.2" fill="#ffcea1" fill-rule="evenodd" stroke="none"/>
    <path d="M125.25 90.55 L125.25 88.8 Q125.95 90.65 127.0 92.3 L128.15 93.65 130.15 95.95 130.9 96.95 131.0 97.4 131.0 98.2 127.8 95.0 Q126.2 92.75 125.25 90.55" fill="url(#gradient27)" fill-rule="evenodd" stroke="none"/>
    <path d="M125.25 113.15 L125.25 111.4 Q125.95 113.25 127.0 114.9 L128.15 116.25 130.15 118.55 130.9 119.55 131.0 120.0 131.0 120.8 127.8 117.6 Q126.2 115.35 125.25 113.15" fill="url(#gradient28)" fill-rule="evenodd" stroke="none"/>
    <path d="M131.0 120.8 L131.0 121.85 129.6 120.5 127.7 118.45 126.25 116.75 125.25 114.7 125.25 113.15 Q126.2 115.35 127.8 117.6 L131.0 120.8" fill="#ffcea1" fill-rule="evenodd" stroke="none"/>
  </g>
  <defs>
    <linearGradient gradientTransform="matrix(0.021, -0.0773, 0.0787, 0.0208, 64.4, 117.45)" gradientUnits="userSpaceOnUse" id="gradient0" spreadMethod="pad" x1="-819.2" x2="819.2">
      <stop offset="0.0" stop-color="#f74300"/>
      <stop offset="1.0" stop-color="#fc8930"/>
    </linearGradient>
    <linearGradient gradientTransform="matrix(0.0163, -0.0016, -0.0067, -0.0115, 87.75, 182.4)" gradientUnits="userSpaceOnUse" id="gradient1" spreadMethod="pad" x1="-819.2" x2="819.2">
      <stop offset="0.0" stop-color="#936132"/>
      <stop offset="1.0" stop-color="#703f11"/>
    </linearGradient>
    <linearGradient gradientTransform="matrix(0.0163, -0.0016, -0.0067, -0.0115, 67.1, 182.4)" gradientUnits="userSpaceOnUse" id="gradient2" spreadMethod="pad" x1="-819.2" x2="819.2">
      <stop offset="0.0" stop-color="#936132"/>
      <stop offset="1.0" stop-color="#703f11"/>
    </linearGradient>
    <linearGradient gradientTransform="matrix(0.0163, -0.0016, -0.0067, -0.0115, 45.6, 182.4)" gradientUnits="userSpaceOnUse" id="gradient3" spreadMethod="pad" x1="-819.2" x2="819.2">
      <stop offset="0.0" stop-color="#936132"/>
      <stop offset="1.0" stop-color="#703f11"/>
    </linearGradient>
    <linearGradient gradientTransform="matrix(0.0163, -0.0016, -0.0067, -0.0115, 24.3, 182.4)" gradientUnits="userSpaceOnUse" id="gradient4" spreadMethod="pad" x1="-819.2" x2="819.2">
      <stop offset="0.0" stop-color="#936132"/>
      <stop offset="1.0" stop-color="#703f11"/>
    </linearGradient>
    <linearGradient gradientTransform="matrix(0.0157, 0.0045, -0.0064, -0.0176, 7.25, 178.0)" gradientUnits="userSpaceOnUse" id="gradient5" spreadMethod="pad" x1="-819.2" x2="819.2">
      <stop offset="0.0" stop-color="#936132"/>
      <stop offset="1.0" stop-color="#703f11"/>
    </linearGradient>
    <linearGradient gradientTransform="matrix(0.0018, 0.0162, 0.0129, -0.0066, -0.5, 156.45)" gradientUnits="userSpaceOnUse" id="gradient6" spreadMethod="pad" x1="-819.2" x2="819.2">
      <stop offset="0.0" stop-color="#936132"/>
      <stop offset="1.0" stop-color="#703f11"/>
    </linearGradient>
    <linearGradient gradientTransform="matrix(0.0016, 0.0162, 0.0114, -0.0066, -0.6, 136.45)" gradientUnits="userSpaceOnUse" id="gradient7" spreadMethod="pad" x1="-819.2" x2="819.2">
      <stop offset="0.0" stop-color="#936132"/>
      <stop offset="1.0" stop-color="#703f11"/>
    </linearGradient>
    <linearGradient gradientTransform="matrix(0.0016, 0.0162, 0.0114, -0.0066, -0.6, 70.3)" gradientUnits="userSpaceOnUse" id="gradient8" spreadMethod="pad" x1="-819.2" x2="819.2">
      <stop offset="0.0" stop-color="#936132"/>
      <stop offset="1.0" stop-color="#703f11"/>
    </linearGradient>
    <linearGradient gradientTransform="matrix(0.0016, 0.0162, 0.0114, -0.0066, -0.6, 47.9)" gradientUnits="userSpaceOnUse" id="gradient9" spreadMethod="pad" x1="-819.2" x2="819.2">
      <stop offset="0.0" stop-color="#936132"/>
      <stop offset="1.0" stop-color="#703f11"/>
    </linearGradient>
    <linearGradient gradientTransform="matrix(0.0016, 0.0162, 0.0114, -0.0066, -0.6, 27.9)" gradientUnits="userSpaceOnUse" id="gradient10" spreadMethod="pad" x1="-819.2" x2="819.2">
      <stop offset="0.0" stop-color="#936132"/>
      <stop offset="1.0" stop-color="#703f11"/>
    </linearGradient>
    <linearGradient gradientTransform="matrix(-0.0163, 0.0016, 0.0067, 0.0117, 24.4, 9.2)" gradientUnits="userSpaceOnUse" id="gradient11" spreadMethod="pad" x1="-819.2" x2="819.2">
      <stop offset="0.0" stop-color="#936132"/>
      <stop offset="1.0" stop-color="#703f11"/>
    </linearGradient>
    <linearGradient gradientTransform="matrix(-0.0163, 0.0016, 0.0067, 0.0117, 48.35, 9.2)" gradientUnits="userSpaceOnUse" id="gradient12" spreadMethod="pad" x1="-819.2" x2="819.2">
      <stop offset="0.0" stop-color="#936132"/>
      <stop offset="1.0" stop-color="#703f11"/>
    </linearGradient>
    <linearGradient gradientTransform="matrix(-0.0163, 0.0016, 0.0067, 0.0117, 68.75, 9.2)" gradientUnits="userSpaceOnUse" id="gradient13" spreadMethod="pad" x1="-819.2" x2="819.2">
      <stop offset="0.0" stop-color="#936132"/>
      <stop offset="1.0" stop-color="#703f11"/>
    </linearGradient>
    <linearGradient gradientTransform="matrix(-0.0163, 0.0016, 0.0067, 0.0117, 90.75, 9.2)" gradientUnits="userSpaceOnUse" id="gradient14" spreadMethod="pad" x1="-819.2" x2="819.2">
      <stop offset="0.0" stop-color="#936132"/>
      <stop offset="1.0" stop-color="#703f11"/>
    </linearGradient>
    <linearGradient gradientTransform="matrix(-0.0163, 0.0016, 0.0067, 0.0117, 109.2, 9.2)" gradientUnits="userSpaceOnUse" id="gradient15" spreadMethod="pad" x1="-819.2" x2="819.2">
      <stop offset="0.0" stop-color="#936132"/>
      <stop offset="1.0" stop-color="#703f11"/>
    </linearGradient>
    <linearGradient gradientTransform="matrix(-0.002, -0.0168, -0.0143, 0.0069, 129.85, 32.35)" gradientUnits="userSpaceOnUse" id="gradient16" spreadMethod="pad" x1="-819.2" x2="819.2">
      <stop offset="0.0" stop-color="#936132"/>
      <stop offset="1.0" stop-color="#703f11"/>
    </linearGradient>
    <linearGradient gradientTransform="matrix(-0.0018, -0.0168, -0.0128, 0.0069, 129.95, 52.45)" gradientUnits="userSpaceOnUse" id="gradient17" spreadMethod="pad" x1="-819.2" x2="819.2">
      <stop offset="0.0" stop-color="#936132"/>
      <stop offset="1.0" stop-color="#703f11"/>
    </linearGradient>
    <linearGradient gradientTransform="matrix(-0.0018, -0.0168, -0.0128, 0.0069, 129.95, 73.2)" gradientUnits="userSpaceOnUse" id="gradient18" spreadMethod="pad" x1="-819.2" x2="819.2">
      <stop offset="0.0" stop-color="#936132"/>
      <stop offset="1.0" stop-color="#703f11"/>
    </linearGradient>
    <linearGradient gradientTransform="matrix(0.0163, -0.0016, -0.0067, -0.0115, 105.3, 182.4)" gradientUnits="userSpaceOnUse" id="gradient19" spreadMethod="pad" x1="-819.2" x2="819.2">
      <stop offset="0.0" stop-color="#936132"/>
      <stop offset="1.0" stop-color="#703f11"/>
    </linearGradient>
    <linearGradient gradientTransform="matrix(-0.0018, -0.0168, -0.0128, 0.0069, 129.95, 138.2)" gradientUnits="userSpaceOnUse" id="gradient20" spreadMethod="pad" x1="-819.2" x2="819.2">
      <stop offset="0.0" stop-color="#936132"/>
      <stop offset="1.0" stop-color="#703f11"/>
    </linearGradient>
    <linearGradient gradientTransform="matrix(-0.0018, -0.0168, -0.0128, 0.0069, 129.95, 157.9)" gradientUnits="userSpaceOnUse" id="gradient21" spreadMethod="pad" x1="-819.2" x2="819.2">
      <stop offset="0.0" stop-color="#936132"/>
      <stop offset="1.0" stop-color="#703f11"/>
    </linearGradient>
    <linearGradient gradientTransform="matrix(0.0068, -0.013, -0.0159, -0.001, 122.4, 177.6)" gradientUnits="userSpaceOnUse" id="gradient22" spreadMethod="pad" x1="-819.2" x2="819.2">
      <stop offset="0.0" stop-color="#936132"/>
      <stop offset="1.0" stop-color="#703f11"/>
    </linearGradient>
    <linearGradient gradientTransform="matrix(-0.011, 0.0118, 0.0156, 0.0046, 7.8, 13.8)" gradientUnits="userSpaceOnUse" id="gradient23" spreadMethod="pad" x1="-819.2" x2="819.2">
      <stop offset="0.0" stop-color="#936132"/>
      <stop offset="1.0" stop-color="#703f11"/>
    </linearGradient>
    <linearGradient gradientTransform="matrix(-0.0112, -0.0109, -0.0044, 0.0155, 126.3, 19.4)" gradientUnits="userSpaceOnUse" id="gradient24" spreadMethod="pad" x1="-819.2" x2="819.2">
      <stop offset="0.0" stop-color="#936132"/>
      <stop offset="1.0" stop-color="#703f11"/>
    </linearGradient>
    <linearGradient gradientTransform="matrix(0.0016, 0.0162, 0.0114, -0.0066, -0.65, 115.25)" gradientUnits="userSpaceOnUse" id="gradient25" spreadMethod="pad" x1="-819.2" x2="819.2">
      <stop offset="0.0" stop-color="#936132"/>
      <stop offset="1.0" stop-color="#703f11"/>
    </linearGradient>
    <linearGradient gradientTransform="matrix(0.0016, 0.0162, 0.0114, -0.0066, -0.65, 94.05)" gradientUnits="userSpaceOnUse" id="gradient26" spreadMethod="pad" x1="-819.2" x2="819.2">
      <stop offset="0.0" stop-color="#936132"/>
      <stop offset="1.0" stop-color="#703f11"/>
    </linearGradient>
    <linearGradient gradientTransform="matrix(-0.0018, -0.0168, -0.0128, 0.0069, 129.95, 95.2)" gradientUnits="userSpaceOnUse" id="gradient27" spreadMethod="pad" x1="-819.2" x2="819.2">
      <stop offset="0.0" stop-color="#936132"/>
      <stop offset="1.0" stop-color="#703f11"/>
    </linearGradient>
    <linearGradient gradientTransform="matrix(-0.0018, -0.0168, -0.0128, 0.0069, 129.95, 117.8)" gradientUnits="userSpaceOnUse" id="gradient28" spreadMethod="pad" x1="-819.2" x2="819.2">
      <stop offset="0.0" stop-color="#936132"/>
      <stop offset="1.0" stop-color="#703f11"/>
    </linearGradient>
  </defs>
</svg>
