<?xml version="1.0" encoding="UTF-8" standalone="no"?>
<svg xmlns:xlink="http://www.w3.org/1999/xlink" height="68.3px" width="67.65px" xmlns="http://www.w3.org/2000/svg">
  <g transform="matrix(1.0, 0.0, 0.0, 1.0, 0.0, 0.0)">
    <path d="M56.55 0.3 Q61.1 0.3 64.3 3.55 67.55 6.75 67.55 11.3 L67.55 57.3 Q67.55 61.9 64.3 65.1 61.1 68.3 56.55 68.3 L10.9 68.3 Q6.4 68.3 3.15 65.1 0.0 61.9 0.0 57.3 L0.0 11.3 Q0.0 6.75 3.15 3.55 6.4 0.3 10.9 0.3 L56.55 0.3 M54.45 3.55 L13.1 3.55 Q8.95 3.55 6.1 6.5 3.15 9.35 3.15 13.5 L3.15 55.1 Q3.15 59.25 6.1 62.2 8.95 65.1 13.1 65.1 L54.45 65.1 Q58.45 65.1 61.3 62.3 64.2 59.35 64.2 55.2 L64.2 13.3 Q64.2 9.2 61.35 6.3 58.6 3.55 54.45 3.55" fill="url(#gradient0)" fill-rule="evenodd" stroke="none"/>
    <path d="M47.9 64.95 L48.25 64.95 48.65 65.0 Q47.3 65.6 46.45 66.35 L46.4 66.4 Q45.6 67.0 45.15 67.75 L45.0 68.0 44.55 68.0 44.15 68.0 44.35 67.8 44.45 67.7 Q44.85 66.95 45.7 66.25 L45.75 66.25 Q46.7 65.5 47.9 64.95" fill="url(#gradient1)" fill-rule="evenodd" stroke="none"/>
    <path d="M47.9 64.95 Q46.7 65.5 45.75 66.25 L45.7 66.25 Q44.85 66.95 44.45 67.7 L44.35 67.8 44.15 68.0 43.6 68.0 44.05 67.7 45.35 66.15 47.45 64.85 47.9 64.95" fill="#ffcea1" fill-rule="evenodd" stroke="none"/>
    <path d="M33.6 68.0 L33.1 68.0 33.55 67.7 Q33.95 66.9 34.8 66.15 35.7 65.4 36.95 64.85 L37.35 64.95 35.25 66.25 35.15 66.25 33.9 67.7 33.85 67.8 33.6 68.0" fill="#ffcea1" fill-rule="evenodd" stroke="none"/>
    <path d="M33.6 68.0 L33.85 67.8 33.9 67.7 35.15 66.25 35.25 66.25 37.35 64.95 37.75 64.95 38.1 65.0 Q36.75 65.6 35.9 66.35 L35.85 66.4 Q35.1 67.0 34.65 67.75 L34.45 68.0 34.0 68.0 33.6 68.0" fill="url(#gradient2)" fill-rule="evenodd" stroke="none"/>
    <path d="M26.4 64.95 L26.8 64.95 27.1 65.0 Q25.8 65.6 24.95 66.35 L24.9 66.4 Q24.1 67.0 23.65 67.75 L23.5 68.0 23.0 68.0 22.65 68.0 22.85 67.8 22.95 67.7 24.2 66.25 24.25 66.25 26.4 64.95" fill="url(#gradient3)" fill-rule="evenodd" stroke="none"/>
    <path d="M26.4 64.95 L24.25 66.25 24.2 66.25 22.95 67.7 22.85 67.8 22.65 68.0 22.1 68.0 22.55 67.7 Q23.0 66.9 23.8 66.15 L25.95 64.85 26.4 64.95" fill="#ffcea1" fill-rule="evenodd" stroke="none"/>
    <path d="M15.55 64.95 L15.95 64.95 16.25 65.0 Q14.95 65.6 14.1 66.35 L14.05 66.4 Q13.25 67.0 12.8 67.75 L12.65 68.0 12.2 68.0 11.8 68.0 12.0 67.8 12.1 67.7 13.3 66.25 13.4 66.25 15.55 64.95" fill="url(#gradient4)" fill-rule="evenodd" stroke="none"/>
    <path d="M15.55 64.95 L13.4 66.25 13.3 66.25 12.1 67.7 12.0 67.8 11.8 68.0 11.3 68.0 11.7 67.7 13.0 66.15 15.1 64.85 15.55 64.95" fill="#ffcea1" fill-rule="evenodd" stroke="none"/>
    <path d="M6.85 62.55 L7.2 62.85 7.5 63.05 Q6.2 63.15 5.4 63.75 L5.35 63.75 Q4.6 64.2 4.15 64.95 L4.05 65.15 3.6 64.95 3.2 64.75 3.4 64.6 3.45 64.55 Q3.85 63.75 4.65 63.3 4.6 63.15 4.75 63.3 5.6 62.75 6.85 62.55" fill="url(#gradient5)" fill-rule="evenodd" stroke="none"/>
    <path d="M6.85 62.55 Q5.6 62.75 4.75 63.3 4.6 63.15 4.65 63.3 3.85 63.75 3.45 64.55 L3.4 64.6 3.2 64.75 2.7 64.55 3.1 64.35 Q3.5 63.5 4.35 62.95 5.2 62.4 6.4 62.25 L6.85 62.55" fill="#ffcea1" fill-rule="evenodd" stroke="none"/>
    <path d="M0.1 54.1 L0.1 53.6 0.45 54.05 Q1.4 54.45 2.2 55.3 3.05 56.2 3.65 57.45 L3.6 57.9 2.1 55.75 2.05 55.65 0.45 54.4 0.35 54.35 0.1 54.1" fill="#ffcea1" fill-rule="evenodd" stroke="none"/>
    <path d="M0.1 54.1 L0.35 54.35 0.45 54.4 2.05 55.65 2.1 55.75 3.6 57.9 3.55 58.3 3.45 58.65 Q2.85 57.25 1.95 56.4 1.25 55.6 0.4 55.15 L0.1 54.95 0.1 54.5 0.1 54.1" fill="url(#gradient6)" fill-rule="evenodd" stroke="none"/>
    <path d="M3.15 47.6 L3.15 48.0 3.1 48.35 Q2.5 47.0 1.7 46.1 1.15 45.3 0.35 44.85 L0.1 44.65 0.1 44.2 0.1 43.8 0.3 44.05 Q0.35 44.0 0.4 44.1 L1.85 45.35 1.85 45.45 Q2.6 46.35 3.15 47.6" fill="url(#gradient7)" fill-rule="evenodd" stroke="none"/>
    <path d="M3.15 47.6 Q2.6 46.35 1.85 45.45 L1.85 45.35 0.4 44.1 Q0.35 44.0 0.3 44.05 L0.1 43.8 0.1 43.25 0.4 43.7 1.95 45.0 Q2.7 45.9 3.25 47.15 L3.15 47.6" fill="#ffcea1" fill-rule="evenodd" stroke="none"/>
    <path d="M0.1 31.95 L0.1 31.45 0.4 31.9 Q1.2 32.3 1.95 33.15 2.7 34.05 3.25 35.3 L3.15 35.75 Q2.6 34.5 1.85 33.55 L1.85 33.5 0.4 32.25 0.3 32.15 0.1 31.95" fill="#ffcea1" fill-rule="evenodd" stroke="none"/>
    <path d="M0.1 31.95 L0.3 32.15 0.4 32.25 1.85 33.5 1.85 33.55 Q2.6 34.5 3.15 35.75 L3.15 36.15 3.1 36.45 Q2.5 35.1 1.7 34.25 1.15 33.4 0.35 33.0 L0.1 32.8 0.1 32.35 0.1 31.95" fill="url(#gradient8)" fill-rule="evenodd" stroke="none"/>
    <path d="M3.25 24.25 L3.25 25.1 2.25 23.35 1.7 22.7 0.6 21.5 0.15 21.1 0.1 20.8 0.1 20.4 1.85 22.05 3.25 24.25" fill="url(#gradient9)" fill-rule="evenodd" stroke="none"/>
    <path d="M0.1 20.4 L0.1 19.9 0.8 20.55 1.95 21.6 2.65 22.45 3.3 23.5 3.25 24.25 1.85 22.05 0.1 20.4" fill="#ffcea1" fill-rule="evenodd" stroke="none"/>
    <path d="M3.25 13.95 L3.25 14.75 2.25 13.0 1.7 12.35 0.6 11.2 0.15 10.75 0.1 10.5 0.1 10.1 1.85 11.7 Q2.75 12.8 3.25 13.95" fill="url(#gradient10)" fill-rule="evenodd" stroke="none"/>
    <path d="M0.1 10.1 L0.1 9.6 0.8 10.2 1.95 11.3 2.65 12.1 3.3 13.15 3.25 13.95 Q2.75 12.8 1.85 11.7 L0.1 10.1" fill="#ffcea1" fill-rule="evenodd" stroke="none"/>
    <path d="M15.55 0.05 L16.05 0.0 15.45 0.75 14.35 1.85 13.5 2.6 12.55 3.25 11.75 3.2 Q12.85 2.7 13.95 1.8 L15.55 0.05" fill="#ffcea1" fill-rule="evenodd" stroke="none"/>
    <path d="M11.75 3.2 L10.9 3.2 12.65 2.2 13.3 1.65 14.45 0.5 14.85 0.05 15.15 0.05 15.55 0.05 13.95 1.8 Q12.85 2.7 11.75 3.2" fill="url(#gradient11)" fill-rule="evenodd" stroke="none"/>
    <path d="M23.95 3.2 L23.1 3.2 24.85 2.2 25.45 1.65 26.65 0.5 27.05 0.05 27.35 0.05 27.75 0.05 26.15 1.8 23.95 3.2" fill="url(#gradient12)" fill-rule="evenodd" stroke="none"/>
    <path d="M27.75 0.05 L28.3 0.0 27.6 0.75 26.55 1.85 25.7 2.6 24.7 3.25 23.95 3.2 26.15 1.8 27.75 0.05" fill="#ffcea1" fill-rule="evenodd" stroke="none"/>
    <path d="M38.15 0.05 L38.65 0.0 38.05 0.75 36.95 1.85 36.1 2.6 35.15 3.25 34.35 3.2 36.55 1.8 38.15 0.05" fill="#ffcea1" fill-rule="evenodd" stroke="none"/>
    <path d="M34.35 3.2 L33.5 3.2 35.25 2.2 35.9 1.65 37.05 0.5 37.5 0.05 37.75 0.05 38.15 0.05 36.55 1.8 34.35 3.2" fill="url(#gradient13)" fill-rule="evenodd" stroke="none"/>
    <path d="M49.3 0.05 L49.85 0.0 49.2 0.75 48.15 1.85 47.3 2.6 46.3 3.25 45.5 3.2 Q46.65 2.7 47.7 1.8 L49.3 0.05" fill="#ffcea1" fill-rule="evenodd" stroke="none"/>
    <path d="M45.5 3.2 L44.7 3.2 46.4 2.2 47.05 1.65 48.25 0.5 48.65 0.05 48.9 0.05 49.3 0.05 47.7 1.8 Q46.65 2.7 45.5 3.2" fill="url(#gradient14)" fill-rule="evenodd" stroke="none"/>
    <path d="M54.95 3.2 L54.1 3.2 55.85 2.2 56.5 1.65 57.65 0.5 58.05 0.05 58.35 0.05 58.75 0.05 57.1 1.8 Q56.05 2.7 54.95 3.2" fill="url(#gradient15)" fill-rule="evenodd" stroke="none"/>
    <path d="M58.75 0.05 L59.25 0.0 58.6 0.75 57.55 1.85 Q57.25 2.15 56.7 2.6 L55.7 3.25 54.95 3.2 Q56.05 2.7 57.1 1.8 L58.75 0.05" fill="#ffcea1" fill-rule="evenodd" stroke="none"/>
    <path d="M64.35 11.45 Q64.9 12.65 65.8 13.75 L67.65 15.45 67.65 15.95 66.85 15.3 65.75 14.2 64.95 13.3 64.35 12.3 64.35 11.45" fill="#ffcea1" fill-rule="evenodd" stroke="none"/>
    <path d="M64.35 11.45 L64.35 10.6 65.35 12.45 66.0 13.1 67.15 14.3 67.6 14.75 67.65 15.0 67.65 15.45 65.8 13.75 Q64.9 12.65 64.35 11.45" fill="url(#gradient16)" fill-rule="evenodd" stroke="none"/>
    <path d="M67.65 25.8 L67.65 26.35 66.85 25.65 65.75 24.55 64.95 23.65 64.35 22.65 64.35 21.8 Q64.9 23.0 65.8 24.1 L67.65 25.8" fill="#ffcea1" fill-rule="evenodd" stroke="none"/>
    <path d="M64.35 21.8 L64.35 20.95 65.35 22.75 66.0 23.45 67.15 24.7 67.6 25.15 67.65 25.4 67.65 25.8 65.8 24.1 Q64.9 23.0 64.35 21.8" fill="url(#gradient17)" fill-rule="evenodd" stroke="none"/>
    <path d="M67.65 36.5 L67.65 37.05 66.85 36.35 65.75 35.3 64.95 34.4 64.35 33.35 64.35 32.55 Q64.9 33.7 65.8 34.85 L67.65 36.5" fill="#ffcea1" fill-rule="evenodd" stroke="none"/>
    <path d="M64.35 32.55 L64.35 31.65 65.35 33.45 66.0 34.15 67.15 35.35 67.6 35.85 67.65 36.1 67.65 36.5 65.8 34.85 Q64.9 33.7 64.35 32.55" fill="url(#gradient18)" fill-rule="evenodd" stroke="none"/>
    <path d="M53.05 68.0 L52.55 68.0 53.0 67.7 Q53.4 66.9 54.25 66.15 L56.4 64.85 56.85 64.95 54.65 66.25 54.6 66.25 Q53.75 66.95 53.35 67.7 L53.3 67.8 53.05 68.0" fill="#ffcea1" fill-rule="evenodd" stroke="none"/>
    <path d="M53.05 68.0 L53.3 67.8 53.35 67.7 Q53.75 66.95 54.6 66.25 L54.65 66.25 56.85 64.95 57.2 64.95 57.55 65.0 Q56.2 65.6 55.35 66.35 L55.35 66.4 Q54.55 67.0 54.1 67.75 L53.9 68.0 53.45 68.0 53.05 68.0" fill="url(#gradient19)" fill-rule="evenodd" stroke="none"/>
    <path d="M67.65 47.8 L67.65 48.35 66.85 47.65 65.75 46.55 64.95 45.65 64.35 44.6 64.35 43.8 Q64.9 45.0 65.8 46.1 L67.65 47.8" fill="#ffcea1" fill-rule="evenodd" stroke="none"/>
    <path d="M64.35 43.8 L64.35 42.95 65.35 44.75 66.0 45.45 67.15 46.65 67.6 47.1 67.65 47.35 67.65 47.8 65.8 46.1 Q64.9 45.0 64.35 43.8" fill="url(#gradient20)" fill-rule="evenodd" stroke="none"/>
    <path d="M67.65 57.95 L67.65 58.45 66.85 57.75 65.75 56.7 64.95 55.8 64.35 54.75 64.35 53.9 Q64.9 55.15 65.8 56.25 L67.65 57.95" fill="#ffcea1" fill-rule="evenodd" stroke="none"/>
    <path d="M64.35 53.9 L64.35 53.1 65.35 54.9 66.0 55.55 67.15 56.8 67.6 57.2 67.65 57.5 67.65 57.95 65.8 56.25 Q64.9 55.15 64.35 53.9" fill="url(#gradient21)" fill-rule="evenodd" stroke="none"/>
    <path d="M63.0 66.2 L62.75 66.65 62.4 65.65 61.95 64.1 61.75 62.95 61.7 61.75 62.15 61.05 Q62.0 62.35 62.25 63.75 L63.0 66.2" fill="#ffcea1" fill-rule="evenodd" stroke="none"/>
    <path d="M62.15 61.05 L62.55 60.3 Q62.4 61.3 62.55 62.4 L62.75 63.3 63.15 64.95 63.3 65.55 63.2 65.8 63.0 66.2 62.25 63.75 Q62.0 62.35 62.15 61.05" fill="url(#gradient22)" fill-rule="evenodd" stroke="none"/>
    <path d="M6.3 1.0 L6.7 0.6 6.75 1.7 6.8 3.35 6.7 4.55 6.4 5.75 5.8 6.35 Q6.3 5.1 6.4 3.6 L6.3 1.0" fill="#ffcea1" fill-rule="evenodd" stroke="none"/>
    <path d="M5.8 6.35 L5.2 7.05 5.75 4.9 5.8 3.95 5.85 2.2 5.8 1.5 6.0 1.35 6.3 1.0 6.4 3.6 Q6.3 5.1 5.8 6.35" fill="url(#gradient23)" fill-rule="evenodd" stroke="none"/>
    <path d="M67.15 6.8 L67.6 7.15 66.5 7.25 64.85 7.3 63.7 7.2 62.45 6.9 61.85 6.3 64.65 6.9 67.15 6.8" fill="#ffcea1" fill-rule="evenodd" stroke="none"/>
    <path d="M61.85 6.3 L61.2 5.7 63.3 6.2 64.25 6.3 66.0 6.35 66.65 6.3 66.85 6.5 67.15 6.8 64.65 6.9 61.85 6.3" fill="url(#gradient24)" fill-rule="evenodd" stroke="none"/>
  </g>
  <defs>
    <linearGradient gradientTransform="matrix(0.0107, -0.0398, 0.0401, 0.0107, 33.75, 34.3)" gradientUnits="userSpaceOnUse" id="gradient0" spreadMethod="pad" x1="-819.2" x2="819.2">
      <stop offset="0.0" stop-color="#d45100"/>
      <stop offset="0.9921568627450981" stop-color="#ffa215"/>
    </linearGradient>
    <linearGradient gradientTransform="matrix(0.0083, -0.001, -0.0034, -0.0071, 45.6, 67.45)" gradientUnits="userSpaceOnUse" id="gradient1" spreadMethod="pad" x1="-819.2" x2="819.2">
      <stop offset="0.0" stop-color="#936132"/>
      <stop offset="1.0" stop-color="#703f11"/>
    </linearGradient>
    <linearGradient gradientTransform="matrix(0.0083, -0.001, -0.0034, -0.0071, 35.1, 67.45)" gradientUnits="userSpaceOnUse" id="gradient2" spreadMethod="pad" x1="-819.2" x2="819.2">
      <stop offset="0.0" stop-color="#936132"/>
      <stop offset="1.0" stop-color="#703f11"/>
    </linearGradient>
    <linearGradient gradientTransform="matrix(0.0083, -0.001, -0.0034, -0.0071, 24.15, 67.45)" gradientUnits="userSpaceOnUse" id="gradient3" spreadMethod="pad" x1="-819.2" x2="819.2">
      <stop offset="0.0" stop-color="#936132"/>
      <stop offset="1.0" stop-color="#703f11"/>
    </linearGradient>
    <linearGradient gradientTransform="matrix(0.0083, -0.001, -0.0034, -0.0071, 13.3, 67.45)" gradientUnits="userSpaceOnUse" id="gradient4" spreadMethod="pad" x1="-819.2" x2="819.2">
      <stop offset="0.0" stop-color="#936132"/>
      <stop offset="1.0" stop-color="#703f11"/>
    </linearGradient>
    <linearGradient gradientTransform="matrix(0.008, 0.0027, -0.0033, -0.0108, 4.6, 64.75)" gradientUnits="userSpaceOnUse" id="gradient5" spreadMethod="pad" x1="-819.2" x2="819.2">
      <stop offset="0.0" stop-color="#936132"/>
      <stop offset="1.0" stop-color="#703f11"/>
    </linearGradient>
    <linearGradient gradientTransform="matrix(0.0011, 0.0084, 0.0079, -0.0034, 0.75, 55.6)" gradientUnits="userSpaceOnUse" id="gradient6" spreadMethod="pad" x1="-819.2" x2="819.2">
      <stop offset="0.0" stop-color="#936132"/>
      <stop offset="1.0" stop-color="#703f11"/>
    </linearGradient>
    <linearGradient gradientTransform="matrix(0.001, 0.0084, 0.007, -0.0034, 0.7, 45.3)" gradientUnits="userSpaceOnUse" id="gradient7" spreadMethod="pad" x1="-819.2" x2="819.2">
      <stop offset="0.0" stop-color="#936132"/>
      <stop offset="1.0" stop-color="#703f11"/>
    </linearGradient>
    <linearGradient gradientTransform="matrix(0.001, 0.0084, 0.007, -0.0034, 0.7, 33.45)" gradientUnits="userSpaceOnUse" id="gradient8" spreadMethod="pad" x1="-819.2" x2="819.2">
      <stop offset="0.0" stop-color="#936132"/>
      <stop offset="1.0" stop-color="#703f11"/>
    </linearGradient>
    <linearGradient gradientTransform="matrix(0.001, 0.0084, 0.007, -0.0034, 0.7, 21.9)" gradientUnits="userSpaceOnUse" id="gradient9" spreadMethod="pad" x1="-819.2" x2="819.2">
      <stop offset="0.0" stop-color="#936132"/>
      <stop offset="1.0" stop-color="#703f11"/>
    </linearGradient>
    <linearGradient gradientTransform="matrix(0.001, 0.0084, 0.007, -0.0034, 0.7, 11.6)" gradientUnits="userSpaceOnUse" id="gradient10" spreadMethod="pad" x1="-819.2" x2="819.2">
      <stop offset="0.0" stop-color="#936132"/>
      <stop offset="1.0" stop-color="#703f11"/>
    </linearGradient>
    <linearGradient gradientTransform="matrix(-0.0083, 0.001, 0.0034, 0.0071, 14.05, 0.6)" gradientUnits="userSpaceOnUse" id="gradient11" spreadMethod="pad" x1="-819.2" x2="819.2">
      <stop offset="0.0" stop-color="#936132"/>
      <stop offset="1.0" stop-color="#703f11"/>
    </linearGradient>
    <linearGradient gradientTransform="matrix(-0.0083, 0.001, 0.0034, 0.0071, 26.25, 0.6)" gradientUnits="userSpaceOnUse" id="gradient12" spreadMethod="pad" x1="-819.2" x2="819.2">
      <stop offset="0.0" stop-color="#936132"/>
      <stop offset="1.0" stop-color="#703f11"/>
    </linearGradient>
    <linearGradient gradientTransform="matrix(-0.0083, 0.001, 0.0034, 0.0071, 36.65, 0.6)" gradientUnits="userSpaceOnUse" id="gradient13" spreadMethod="pad" x1="-819.2" x2="819.2">
      <stop offset="0.0" stop-color="#936132"/>
      <stop offset="1.0" stop-color="#703f11"/>
    </linearGradient>
    <linearGradient gradientTransform="matrix(-0.0083, 0.001, 0.0034, 0.0071, 47.85, 0.6)" gradientUnits="userSpaceOnUse" id="gradient14" spreadMethod="pad" x1="-819.2" x2="819.2">
      <stop offset="0.0" stop-color="#936132"/>
      <stop offset="1.0" stop-color="#703f11"/>
    </linearGradient>
    <linearGradient gradientTransform="matrix(-0.0083, 0.001, 0.0034, 0.0071, 57.25, 0.6)" gradientUnits="userSpaceOnUse" id="gradient15" spreadMethod="pad" x1="-819.2" x2="819.2">
      <stop offset="0.0" stop-color="#936132"/>
      <stop offset="1.0" stop-color="#703f11"/>
    </linearGradient>
    <linearGradient gradientTransform="matrix(-0.001, -0.0087, -0.0073, 0.0035, 67.05, 13.9)" gradientUnits="userSpaceOnUse" id="gradient16" spreadMethod="pad" x1="-819.2" x2="819.2">
      <stop offset="0.0" stop-color="#936132"/>
      <stop offset="1.0" stop-color="#703f11"/>
    </linearGradient>
    <linearGradient gradientTransform="matrix(-0.001, -0.0087, -0.0073, 0.0035, 67.05, 24.25)" gradientUnits="userSpaceOnUse" id="gradient17" spreadMethod="pad" x1="-819.2" x2="819.2">
      <stop offset="0.0" stop-color="#936132"/>
      <stop offset="1.0" stop-color="#703f11"/>
    </linearGradient>
    <linearGradient gradientTransform="matrix(-0.001, -0.0087, -0.0073, 0.0035, 67.05, 34.95)" gradientUnits="userSpaceOnUse" id="gradient18" spreadMethod="pad" x1="-819.2" x2="819.2">
      <stop offset="0.0" stop-color="#936132"/>
      <stop offset="1.0" stop-color="#703f11"/>
    </linearGradient>
    <linearGradient gradientTransform="matrix(0.0083, -0.001, -0.0034, -0.0071, 54.55, 67.45)" gradientUnits="userSpaceOnUse" id="gradient19" spreadMethod="pad" x1="-819.2" x2="819.2">
      <stop offset="0.0" stop-color="#936132"/>
      <stop offset="1.0" stop-color="#703f11"/>
    </linearGradient>
    <linearGradient gradientTransform="matrix(-0.001, -0.0087, -0.0073, 0.0035, 67.05, 46.2)" gradientUnits="userSpaceOnUse" id="gradient20" spreadMethod="pad" x1="-819.2" x2="819.2">
      <stop offset="0.0" stop-color="#936132"/>
      <stop offset="1.0" stop-color="#703f11"/>
    </linearGradient>
    <linearGradient gradientTransform="matrix(-0.001, -0.0087, -0.0073, 0.0035, 67.05, 56.35)" gradientUnits="userSpaceOnUse" id="gradient21" spreadMethod="pad" x1="-819.2" x2="819.2">
      <stop offset="0.0" stop-color="#936132"/>
      <stop offset="1.0" stop-color="#703f11"/>
    </linearGradient>
    <linearGradient gradientTransform="matrix(0.0034, -0.008, -0.0081, -6.0E-4, 63.25, 64.5)" gradientUnits="userSpaceOnUse" id="gradient22" spreadMethod="pad" x1="-819.2" x2="819.2">
      <stop offset="0.0" stop-color="#936132"/>
      <stop offset="1.0" stop-color="#703f11"/>
    </linearGradient>
    <linearGradient gradientTransform="matrix(-0.0056, 0.0071, 0.0079, 0.0028, 5.6, 2.6)" gradientUnits="userSpaceOnUse" id="gradient23" spreadMethod="pad" x1="-819.2" x2="819.2">
      <stop offset="0.0" stop-color="#936132"/>
      <stop offset="1.0" stop-color="#703f11"/>
    </linearGradient>
    <linearGradient gradientTransform="matrix(-0.0071, -0.0056, -0.0028, 0.008, 65.6, 6.1)" gradientUnits="userSpaceOnUse" id="gradient24" spreadMethod="pad" x1="-819.2" x2="819.2">
      <stop offset="0.0" stop-color="#936132"/>
      <stop offset="1.0" stop-color="#703f11"/>
    </linearGradient>
  </defs>
</svg>
