<?xml version="1.0" encoding="UTF-8" standalone="no"?>
<svg xmlns:xlink="http://www.w3.org/1999/xlink" height="65.45px" width="64.9px" xmlns="http://www.w3.org/2000/svg">
  <g transform="matrix(1.0, 0.0, 0.0, 1.0, -2.2, -4.0)">
    <path d="M53.6 4.0 Q67.1 4.0 67.1 17.5 L67.1 55.95 Q67.1 69.45 53.6 69.45 L15.7 69.45 Q2.2 69.45 2.2 55.95 L2.2 17.5 Q2.2 4.0 15.7 4.0 L53.6 4.0" fill="#f3b88e" fill-rule="evenodd" stroke="none"/>
    <path d="M53.6 4.0 L15.7 4.0 Q2.2 4.0 2.2 17.5 L2.2 55.95 Q2.2 69.45 15.7 69.45 L53.6 69.45 Q67.1 69.45 67.1 55.95 L67.1 17.5 Q67.1 4.0 53.6 4.0 Z" fill="none" stroke="#000000" stroke-linecap="round" stroke-linejoin="round" stroke-opacity="0.9019608" stroke-width="0.05"/>
  </g>
</svg>
