<?xml version="1.0" encoding="UTF-8" standalone="no"?>
<svg xmlns:xlink="http://www.w3.org/1999/xlink" height="6.3px" width="23.2px" xmlns="http://www.w3.org/2000/svg">
  <g transform="matrix(1.0, 0.0, 0.0, 1.0, -3.6, 10.5)">
    <path d="M5.5 -9.7 L6.75 -10.1 7.2 -10.15 Q7.9 -10.1 8.35 -9.55 L8.45 -9.4 8.55 -9.2 8.7 -8.8 8.85 -8.5 9.1 -7.95 Q9.45 -6.9 8.9 -5.9 8.35 -4.95 7.3 -4.65 6.25 -4.35 5.3 -4.9 4.4 -5.4 4.05 -6.5 3.75 -7.5 4.3 -8.45 4.65 -9.15 5.45 -9.65 L5.5 -9.7" fill="#cf72f0" fill-rule="evenodd" stroke="none"/>
    <path d="M5.5 -9.7 L6.75 -10.1 7.2 -10.15 Q7.9 -10.1 8.35 -9.55 L8.45 -9.4 8.55 -9.2 8.7 -8.8 8.85 -8.5 9.1 -7.95 Q9.45 -6.9 8.9 -5.9 8.35 -4.95 7.3 -4.65 6.25 -4.35 5.3 -4.9 4.4 -5.4 4.05 -6.5 3.75 -7.5 4.3 -8.45 4.65 -9.15 5.45 -9.65" fill="none" stroke="#a90156" stroke-linecap="round" stroke-linejoin="round" stroke-width="0.75"/>
    <path d="M7.2 -10.15 Q7.9 -10.1 8.35 -9.55 L8.45 -9.4 8.55 -9.2 8.6 -8.75 8.55 -8.55 8.5 -8.1 8.45 -7.85 8.1 -7.85 7.6 -7.9 6.9 -8.2 6.55 -8.4 6.3 -8.5 6.35 -8.6 5.95 -9.05 5.8 -9.15 6.1 -9.45 6.15 -9.5 6.55 -9.65 Q6.85 -9.9 6.85 -9.65 L7.0 -9.6 7.2 -10.15" fill="#c8c8c8" fill-rule="evenodd" stroke="none"/>
    <path d="M7.2 -10.15 L7.0 -9.6 6.85 -9.65 Q6.85 -9.9 6.55 -9.65 L6.15 -9.5 6.1 -9.45 5.8 -9.15 5.45 -9.65 5.5 -9.7 6.75 -10.1 7.2 -10.15 M5.95 -9.05 L6.35 -8.6 6.3 -8.5 5.8 -8.75 5.95 -9.05" fill="#a2a2a2" fill-rule="evenodd" stroke="none"/>
    <path d="M7.6 -7.9 L8.1 -7.85 8.05 -7.65 7.6 -7.9 M8.45 -7.85 L8.5 -8.1 8.55 -8.55 8.6 -8.75 8.55 -9.2 8.85 -7.95 8.45 -7.85" fill="#e6e6e6" fill-rule="evenodd" stroke="none"/>
    <path d="M8.55 -9.0 L8.85 -8.5 9.1 -7.95 Q9.45 -6.9 8.9 -5.9 8.35 -4.95 7.3 -4.65 6.25 -4.35 5.3 -4.9 4.4 -5.4 4.05 -6.5 3.75 -7.5 4.3 -8.45 4.8 -9.4 5.9 -9.7 L6.35 -9.85 7.05 -9.8 7.85 -9.5 8.55 -9.0" fill="#c7175e" fill-rule="evenodd" stroke="none"/>
    <path d="M4.75 -7.5 Q4.55 -8.3 4.8 -8.95 5.1 -9.65 5.9 -9.85 L7.5 -9.7 Q8.35 -9.35 8.55 -8.55 8.75 -7.75 8.35 -7.05 7.95 -6.35 7.15 -6.1 L5.65 -6.3 Q4.95 -6.7 4.75 -7.5" fill="#eb3e83" fill-rule="evenodd" stroke="none"/>
    <path d="M6.35 -7.2 L6.45 -7.85 6.0 -8.4 5.35 -8.5 Q5.0 -8.4 4.8 -8.1 4.65 -7.75 4.75 -7.4 4.8 -7.05 5.15 -6.9 L5.8 -6.8 Q6.15 -6.9 6.35 -7.2" fill="#f59fc1" fill-rule="evenodd" stroke="none"/>
    <path d="M24.5 -9.95 L25.9 -8.95 Q26.55 -8.15 26.4 -7.1 26.3 -5.95 25.5 -5.3 24.65 -4.6 23.55 -4.7 22.5 -4.8 21.75 -5.65 21.05 -6.55 21.2 -7.65 L21.35 -8.2 21.45 -8.55 21.55 -8.95 21.6 -9.15 21.7 -9.35 Q22.05 -9.95 22.7 -10.15 L23.15 -10.15 24.45 -10.0 24.5 -9.95" fill="#cf72f0" fill-rule="evenodd" stroke="none"/>
    <path d="M24.45 -10.0 L23.15 -10.15 22.7 -10.15 Q22.05 -9.95 21.7 -9.35 L21.6 -9.15 21.55 -8.95 21.45 -8.55 21.35 -8.2 21.2 -7.65 Q21.05 -6.55 21.75 -5.65 22.5 -4.8 23.55 -4.7 24.65 -4.6 25.5 -5.3 26.3 -5.95 26.4 -7.1 26.55 -8.15 25.9 -8.95 L24.5 -9.95" fill="none" stroke="#a90156" stroke-linecap="round" stroke-linejoin="round" stroke-width="0.75"/>
    <path d="M24.25 -9.4 L23.9 -9.65 23.85 -9.65 23.4 -9.75 23.1 -9.7 23.0 -9.6 22.7 -10.15 23.15 -10.15 24.45 -10.0 24.5 -9.95 24.25 -9.4 M23.85 -8.65 L23.8 -8.75 24.1 -9.25 24.35 -9.0 23.85 -8.65" fill="#a2a2a2" fill-rule="evenodd" stroke="none"/>
    <path d="M22.7 -10.15 L23.0 -9.6 23.1 -9.7 23.4 -9.75 23.85 -9.65 23.9 -9.65 24.25 -9.4 24.1 -9.25 23.8 -8.75 23.85 -8.65 23.65 -8.5 23.3 -8.3 22.7 -7.85 22.25 -7.75 21.9 -7.65 21.8 -7.9 21.65 -8.3 21.6 -8.5 21.55 -8.95 21.6 -9.15 21.7 -9.35 Q22.05 -9.95 22.7 -10.15" fill="#c8c8c8" fill-rule="evenodd" stroke="none"/>
    <path d="M21.55 -8.95 L21.6 -8.5 21.65 -8.3 21.8 -7.9 21.9 -7.65 21.45 -7.7 21.55 -8.95 M22.25 -7.75 L22.7 -7.85 22.3 -7.55 22.25 -7.75" fill="#e6e6e6" fill-rule="evenodd" stroke="none"/>
    <path d="M25.9 -8.95 Q26.55 -8.15 26.4 -7.1 26.3 -5.95 25.5 -5.3 24.65 -4.6 23.55 -4.7 22.5 -4.8 21.75 -5.65 21.05 -6.55 21.2 -7.65 L21.35 -8.2 21.6 -8.75 22.2 -9.4 22.9 -9.8 23.6 -10.0 24.05 -9.9 Q25.2 -9.8 25.9 -8.95" fill="#c7175e" fill-rule="evenodd" stroke="none"/>
    <path d="M25.6 -7.95 Q25.65 -8.75 25.3 -9.35 24.85 -10.0 24.05 -10.05 23.2 -10.15 22.5 -9.65 21.7 -9.15 21.65 -8.3 21.6 -7.5 22.1 -6.9 22.65 -6.25 23.45 -6.15 24.25 -6.1 24.9 -6.6 25.55 -7.15 25.6 -7.95" fill="#eb3e83" fill-rule="evenodd" stroke="none"/>
    <path d="M23.95 -7.25 Q23.7 -7.55 23.75 -7.9 L24.05 -8.5 24.65 -8.7 25.3 -8.4 25.5 -7.7 25.2 -7.15 Q24.85 -6.9 24.5 -6.95 L23.95 -7.25" fill="#f59fc1" fill-rule="evenodd" stroke="none"/>
  </g>
</svg>
