<?xml version="1.0" encoding="UTF-8" standalone="no"?>
<svg xmlns:xlink="http://www.w3.org/1999/xlink" height="6.3px" width="23.2px" xmlns="http://www.w3.org/2000/svg">
  <g transform="matrix(1.0, 0.0, 0.0, 1.0, -3.6, 14.8)">
    <path d="M5.5 -14.0 L6.75 -14.4 7.2 -14.45 Q7.9 -14.4 8.35 -13.85 L8.45 -13.7 8.55 -13.5 8.7 -13.1 8.85 -12.8 9.1 -12.25 Q9.45 -11.2 8.9 -10.2 8.35 -9.25 7.3 -8.95 6.25 -8.65 5.3 -9.2 4.4 -9.7 4.05 -10.8 3.75 -11.8 4.3 -12.75 4.65 -13.45 5.45 -13.95 L5.5 -14.0" fill="#cf72f0" fill-rule="evenodd" stroke="none"/>
    <path d="M5.5 -14.0 L6.75 -14.4 7.2 -14.45 Q7.9 -14.4 8.35 -13.85 L8.45 -13.7 8.55 -13.5 8.7 -13.1 8.85 -12.8 9.1 -12.25 Q9.45 -11.2 8.9 -10.2 8.35 -9.25 7.3 -8.95 6.25 -8.65 5.3 -9.2 4.4 -9.7 4.05 -10.8 3.75 -11.8 4.3 -12.75 4.65 -13.45 5.45 -13.95" fill="none" stroke="#a90156" stroke-linecap="round" stroke-linejoin="round" stroke-width="0.75"/>
    <path d="M5.8 -13.45 L5.45 -13.95 5.5 -14.0 6.75 -14.4 7.2 -14.45 7.0 -13.9 6.85 -13.95 Q6.85 -14.2 6.55 -13.95 L6.15 -13.8 6.1 -13.75 5.8 -13.45 M6.3 -12.8 L5.8 -13.05 5.95 -13.35 6.35 -12.9 6.3 -12.8" fill="#a2a2a2" fill-rule="evenodd" stroke="none"/>
    <path d="M5.8 -13.45 L6.1 -13.75 6.15 -13.8 6.55 -13.95 Q6.85 -14.2 6.85 -13.95 L7.0 -13.9 7.2 -14.45 Q7.9 -14.4 8.35 -13.85 L8.45 -13.7 8.55 -13.5 8.6 -13.05 8.55 -12.85 8.5 -12.4 8.45 -12.15 8.1 -12.15 7.6 -12.2 6.9 -12.5 6.55 -12.7 6.3 -12.8 6.35 -12.9 5.95 -13.35 5.8 -13.45" fill="#c8c8c8" fill-rule="evenodd" stroke="none"/>
    <path d="M8.55 -13.5 L8.85 -12.25 8.45 -12.15 8.5 -12.4 8.55 -12.85 8.6 -13.05 8.55 -13.5 M8.1 -12.15 L8.05 -11.95 7.6 -12.2 8.1 -12.15" fill="#e6e6e6" fill-rule="evenodd" stroke="none"/>
    <path d="M7.85 -13.8 L8.55 -13.3 8.85 -12.8 9.1 -12.25 Q9.45 -11.2 8.9 -10.2 8.35 -9.25 7.3 -8.95 6.25 -8.65 5.3 -9.2 4.4 -9.7 4.05 -10.8 3.75 -11.8 4.3 -12.75 4.8 -13.7 5.9 -14.0 L6.35 -14.15 7.05 -14.1 7.85 -13.8" fill="#c7175e" fill-rule="evenodd" stroke="none"/>
    <path d="M4.75 -11.8 Q4.55 -12.6 4.8 -13.25 5.1 -13.95 5.9 -14.15 L7.5 -14.0 Q8.35 -13.65 8.55 -12.85 8.75 -12.05 8.35 -11.35 7.95 -10.65 7.15 -10.4 L5.65 -10.6 Q4.95 -11.0 4.75 -11.8" fill="#eb3e83" fill-rule="evenodd" stroke="none"/>
    <path d="M6.35 -11.5 L6.45 -12.15 6.0 -12.7 5.35 -12.8 Q5.0 -12.7 4.8 -12.4 4.65 -12.05 4.75 -11.7 4.8 -11.35 5.15 -11.2 L5.8 -11.1 Q6.15 -11.2 6.35 -11.5" fill="#f59fc1" fill-rule="evenodd" stroke="none"/>
    <path d="M24.45 -14.3 L24.5 -14.25 25.9 -13.25 Q26.55 -12.45 26.4 -11.4 26.3 -10.25 25.5 -9.6 24.65 -8.9 23.55 -9.0 22.5 -9.1 21.75 -9.95 21.05 -10.85 21.2 -11.95 L21.35 -12.5 21.45 -12.85 21.55 -13.25 21.6 -13.45 21.7 -13.65 Q22.05 -14.25 22.7 -14.45 L23.15 -14.45 24.45 -14.3" fill="#cf72f0" fill-rule="evenodd" stroke="none"/>
    <path d="M24.45 -14.3 L23.15 -14.45 22.7 -14.45 Q22.05 -14.25 21.7 -13.65 L21.6 -13.45 21.55 -13.25 21.45 -12.85 21.35 -12.5 21.2 -11.95 Q21.05 -10.85 21.75 -9.95 22.5 -9.1 23.55 -9.0 24.65 -8.9 25.5 -9.6 26.3 -10.25 26.4 -11.4 26.55 -12.45 25.9 -13.25 L24.5 -14.25" fill="none" stroke="#a90156" stroke-linecap="round" stroke-linejoin="round" stroke-width="0.75"/>
    <path d="M21.55 -13.25 L21.6 -13.45 21.7 -13.65 Q22.05 -14.25 22.7 -14.45 L23.0 -13.9 23.1 -14.0 23.4 -14.05 23.85 -13.95 23.9 -13.95 24.25 -13.7 24.1 -13.55 23.8 -13.05 23.85 -12.95 23.65 -12.8 23.3 -12.6 22.7 -12.15 22.25 -12.05 21.9 -11.95 21.8 -12.2 21.65 -12.6 21.6 -12.8 21.55 -13.25" fill="#c8c8c8" fill-rule="evenodd" stroke="none"/>
    <path d="M22.7 -12.15 L22.3 -11.85 22.25 -12.05 22.7 -12.15 M21.9 -11.95 L21.45 -12.0 21.55 -13.25 21.6 -12.8 21.65 -12.6 21.8 -12.2 21.9 -11.95" fill="#e6e6e6" fill-rule="evenodd" stroke="none"/>
    <path d="M22.7 -14.45 L23.15 -14.45 24.45 -14.3 24.5 -14.25 24.25 -13.7 23.9 -13.95 23.85 -13.95 23.4 -14.05 23.1 -14.0 23.0 -13.9 22.7 -14.45 M24.1 -13.55 L24.35 -13.3 23.85 -12.95 23.8 -13.05 24.1 -13.55" fill="#a2a2a2" fill-rule="evenodd" stroke="none"/>
    <path d="M22.2 -13.7 L22.9 -14.1 23.6 -14.3 24.05 -14.2 Q25.2 -14.1 25.9 -13.25 26.55 -12.45 26.4 -11.4 26.3 -10.25 25.5 -9.6 24.65 -8.9 23.55 -9.0 22.5 -9.1 21.75 -9.95 21.05 -10.85 21.2 -11.95 L21.35 -12.5 21.6 -13.05 22.2 -13.7" fill="#c7175e" fill-rule="evenodd" stroke="none"/>
    <path d="M25.6 -12.25 Q25.65 -13.05 25.3 -13.65 24.85 -14.3 24.05 -14.35 23.2 -14.45 22.5 -13.95 21.7 -13.45 21.65 -12.6 21.6 -11.8 22.1 -11.2 22.65 -10.55 23.45 -10.45 24.25 -10.4 24.9 -10.9 25.55 -11.45 25.6 -12.25" fill="#eb3e83" fill-rule="evenodd" stroke="none"/>
    <path d="M23.95 -11.55 Q23.7 -11.85 23.75 -12.2 L24.05 -12.8 24.65 -13.0 25.3 -12.7 25.5 -12.0 25.2 -11.45 Q24.85 -11.2 24.5 -11.25 L23.95 -11.55" fill="#f59fc1" fill-rule="evenodd" stroke="none"/>
  </g>
</svg>
