<?xml version="1.0" encoding="UTF-8" standalone="no"?>
<svg xmlns:xlink="http://www.w3.org/1999/xlink" height="6.3px" width="23.2px" xmlns="http://www.w3.org/2000/svg">
  <g transform="matrix(1.0, 0.0, 0.0, 1.0, -3.6, 8.7)">
    <path d="M5.45 -7.85 L5.5 -7.9 6.75 -8.3 7.2 -8.35 Q7.9 -8.3 8.35 -7.75 L8.45 -7.6 8.55 -7.4 8.7 -7.0 8.85 -6.7 9.1 -6.15 Q9.45 -5.1 8.9 -4.1 8.35 -3.15 7.3 -2.85 6.25 -2.55 5.3 -3.1 4.4 -3.6 4.05 -4.7 3.75 -5.7 4.3 -6.65 4.65 -7.35 5.45 -7.85" fill="#cf72f0" fill-rule="evenodd" stroke="none"/>
    <path d="M5.5 -7.9 L6.75 -8.3 7.2 -8.35 Q7.9 -8.3 8.35 -7.75 L8.45 -7.6 8.55 -7.4 8.7 -7.0 8.85 -6.7 9.1 -6.15 Q9.45 -5.1 8.9 -4.1 8.35 -3.15 7.3 -2.85 6.25 -2.55 5.3 -3.1 4.4 -3.6 4.05 -4.7 3.75 -5.7 4.3 -6.65 4.65 -7.35 5.45 -7.85" fill="none" stroke="#a90156" stroke-linecap="round" stroke-linejoin="round" stroke-width="0.75"/>
    <path d="M7.2 -8.35 L7.0 -7.8 6.85 -7.85 Q6.85 -8.1 6.55 -7.85 L6.15 -7.7 6.1 -7.65 5.8 -7.35 5.45 -7.85 5.5 -7.9 6.75 -8.3 7.2 -8.35 M5.95 -7.25 L6.35 -6.8 6.3 -6.7 5.8 -6.95 5.95 -7.25" fill="#a2a2a2" fill-rule="evenodd" stroke="none"/>
    <path d="M5.8 -7.35 L6.1 -7.65 6.15 -7.7 6.55 -7.85 Q6.85 -8.1 6.85 -7.85 L7.0 -7.8 7.2 -8.35 Q7.9 -8.3 8.35 -7.75 L8.45 -7.6 8.55 -7.4 8.6 -6.95 8.55 -6.75 8.5 -6.3 8.45 -6.05 8.1 -6.05 7.6 -6.1 6.9 -6.4 6.55 -6.6 6.3 -6.7 6.35 -6.8 5.95 -7.25 5.8 -7.35" fill="#c8c8c8" fill-rule="evenodd" stroke="none"/>
    <path d="M7.6 -6.1 L8.1 -6.05 8.05 -5.85 7.6 -6.1 M8.45 -6.05 L8.5 -6.3 8.55 -6.75 8.6 -6.95 8.55 -7.4 8.85 -6.15 8.45 -6.05" fill="#e6e6e6" fill-rule="evenodd" stroke="none"/>
    <path d="M8.85 -6.7 L9.1 -6.15 Q9.45 -5.1 8.9 -4.1 8.35 -3.15 7.3 -2.85 6.25 -2.55 5.3 -3.1 4.4 -3.6 4.05 -4.7 3.75 -5.7 4.3 -6.65 4.8 -7.6 5.9 -7.9 L6.35 -8.05 7.05 -8.0 7.85 -7.7 8.55 -7.2 8.85 -6.7" fill="#c7175e" fill-rule="evenodd" stroke="none"/>
    <path d="M4.75 -5.7 Q4.55 -6.5 4.8 -7.15 5.1 -7.85 5.9 -8.05 L7.5 -7.9 Q8.35 -7.55 8.55 -6.75 8.75 -5.95 8.35 -5.25 7.95 -4.55 7.15 -4.3 L5.65 -4.5 Q4.95 -4.9 4.75 -5.7" fill="#eb3e83" fill-rule="evenodd" stroke="none"/>
    <path d="M6.35 -5.4 L6.45 -6.05 6.0 -6.6 5.35 -6.7 Q5.0 -6.6 4.8 -6.3 4.65 -5.95 4.75 -5.6 4.8 -5.25 5.15 -5.1 L5.8 -5.0 Q6.15 -5.1 6.35 -5.4" fill="#f59fc1" fill-rule="evenodd" stroke="none"/>
    <path d="M24.45 -8.2 L24.5 -8.15 25.9 -7.15 Q26.55 -6.35 26.4 -5.3 26.3 -4.15 25.5 -3.5 24.65 -2.8 23.55 -2.9 22.5 -3.0 21.75 -3.85 21.05 -4.75 21.2 -5.85 L21.35 -6.4 21.45 -6.75 21.55 -7.15 21.6 -7.35 21.7 -7.55 Q22.05 -8.15 22.7 -8.35 L23.15 -8.35 24.45 -8.2" fill="#cf72f0" fill-rule="evenodd" stroke="none"/>
    <path d="M24.45 -8.2 L23.15 -8.35 22.7 -8.35 Q22.05 -8.15 21.7 -7.55 L21.6 -7.35 21.55 -7.15 21.45 -6.75 21.35 -6.4 21.2 -5.85 Q21.05 -4.75 21.75 -3.85 22.5 -3.0 23.55 -2.9 24.65 -2.8 25.5 -3.5 26.3 -4.15 26.4 -5.3 26.55 -6.35 25.9 -7.15 L24.5 -8.15" fill="none" stroke="#a90156" stroke-linecap="round" stroke-linejoin="round" stroke-width="0.75"/>
    <path d="M21.55 -7.15 L21.6 -7.35 21.7 -7.55 Q22.05 -8.15 22.7 -8.35 L23.0 -7.8 23.1 -7.9 23.4 -7.95 23.85 -7.85 23.9 -7.85 24.25 -7.6 24.1 -7.45 23.8 -6.95 23.85 -6.85 23.65 -6.7 23.3 -6.5 22.7 -6.05 22.25 -5.95 21.9 -5.85 21.8 -6.1 21.65 -6.5 21.6 -6.7 21.55 -7.15" fill="#c8c8c8" fill-rule="evenodd" stroke="none"/>
    <path d="M22.7 -6.05 L22.3 -5.75 22.25 -5.95 22.7 -6.05 M21.9 -5.85 L21.45 -5.9 21.55 -7.15 21.6 -6.7 21.65 -6.5 21.8 -6.1 21.9 -5.85" fill="#e6e6e6" fill-rule="evenodd" stroke="none"/>
    <path d="M22.7 -8.35 L23.15 -8.35 24.45 -8.2 24.5 -8.15 24.25 -7.6 23.9 -7.85 23.85 -7.85 23.4 -7.95 23.1 -7.9 23.0 -7.8 22.7 -8.35 M24.1 -7.45 L24.35 -7.2 23.85 -6.85 23.8 -6.95 24.1 -7.45" fill="#a2a2a2" fill-rule="evenodd" stroke="none"/>
    <path d="M23.6 -8.2 L24.05 -8.1 Q25.2 -8.0 25.9 -7.15 26.55 -6.35 26.4 -5.3 26.3 -4.15 25.5 -3.5 24.65 -2.8 23.55 -2.9 22.5 -3.0 21.75 -3.85 21.05 -4.75 21.2 -5.85 L21.35 -6.4 21.6 -6.95 22.2 -7.6 22.9 -8.0 23.6 -8.2" fill="#c7175e" fill-rule="evenodd" stroke="none"/>
    <path d="M25.6 -6.15 Q25.65 -6.95 25.3 -7.55 24.85 -8.2 24.05 -8.25 23.2 -8.35 22.5 -7.85 21.7 -7.35 21.65 -6.5 21.6 -5.7 22.1 -5.1 22.65 -4.45 23.45 -4.35 24.25 -4.3 24.9 -4.8 25.55 -5.35 25.6 -6.15" fill="#eb3e83" fill-rule="evenodd" stroke="none"/>
    <path d="M23.95 -5.45 Q23.7 -5.75 23.75 -6.1 L24.05 -6.7 24.65 -6.9 25.3 -6.6 25.5 -5.9 25.2 -5.35 Q24.85 -5.1 24.5 -5.15 L23.95 -5.45" fill="#f59fc1" fill-rule="evenodd" stroke="none"/>
  </g>
</svg>
