<?xml version="1.0" encoding="UTF-8" standalone="no"?>
<svg xmlns:xlink="http://www.w3.org/1999/xlink" height="6.3px" width="23.2px" xmlns="http://www.w3.org/2000/svg">
  <g transform="matrix(1.0, 0.0, 0.0, 1.0, -3.6, -4.5)">
    <path d="M5.45 5.35 L5.5 5.3 6.75 4.9 7.2 4.85 Q7.9 4.9 8.35 5.45 L8.45 5.6 8.55 5.8 8.7 6.2 8.85 6.5 9.1 7.05 Q9.45 8.1 8.9 9.1 8.35 10.05 7.3 10.35 L5.3 10.1 Q4.4 9.6 4.05 8.5 3.75 7.5 4.3 6.55 4.65 5.85 5.45 5.35" fill="#cf72f0" fill-rule="evenodd" stroke="none"/>
    <path d="M5.5 5.3 L6.75 4.9 7.2 4.85 Q7.9 4.9 8.35 5.45 L8.45 5.6 8.55 5.8 8.7 6.2 8.85 6.5 9.1 7.05 Q9.45 8.1 8.9 9.1 8.35 10.05 7.3 10.35 L5.3 10.1 Q4.4 9.6 4.05 8.5 3.75 7.5 4.3 6.55 4.65 5.85 5.45 5.35" fill="none" stroke="#a90156" stroke-linecap="round" stroke-linejoin="round" stroke-width="0.75"/>
    <path d="M5.95 5.95 L5.8 5.85 6.1 5.55 6.15 5.5 6.55 5.35 Q6.85 5.1 6.85 5.35 L7.0 5.4 7.2 4.85 Q7.9 4.9 8.35 5.45 L8.45 5.6 8.55 5.8 8.6 6.25 8.55 6.45 8.5 6.9 8.45 7.15 8.1 7.15 7.6 7.1 6.9 6.8 6.55 6.6 6.3 6.5 6.35 6.4 5.95 5.95" fill="#c8c8c8" fill-rule="evenodd" stroke="none"/>
    <path d="M5.95 5.95 L6.35 6.4 6.3 6.5 5.8 6.25 5.95 5.95 M7.2 4.85 L7.0 5.4 6.85 5.35 Q6.85 5.1 6.55 5.35 L6.15 5.5 6.1 5.55 5.8 5.85 5.45 5.35 5.5 5.3 6.75 4.9 7.2 4.85" fill="#a2a2a2" fill-rule="evenodd" stroke="none"/>
    <path d="M7.6 7.1 L8.1 7.15 8.05 7.35 7.6 7.1 M8.45 7.15 L8.5 6.9 8.55 6.45 8.6 6.25 8.55 5.8 8.85 7.05 8.45 7.15" fill="#e6e6e6" fill-rule="evenodd" stroke="none"/>
    <path d="M6.35 5.15 L7.05 5.2 7.85 5.5 8.55 6.0 8.85 6.5 9.1 7.05 Q9.45 8.1 8.9 9.1 8.35 10.05 7.3 10.35 L5.3 10.1 Q4.4 9.6 4.05 8.5 3.75 7.5 4.3 6.55 4.8 5.6 5.9 5.3 L6.35 5.15" fill="#c7175e" fill-rule="evenodd" stroke="none"/>
    <path d="M4.75 7.5 Q4.55 6.7 4.8 6.05 5.1 5.35 5.9 5.15 L7.5 5.3 Q8.35 5.65 8.55 6.45 8.75 7.25 8.35 7.95 7.95 8.65 7.15 8.9 L5.65 8.7 Q4.95 8.3 4.75 7.5" fill="#eb3e83" fill-rule="evenodd" stroke="none"/>
    <path d="M6.35 7.8 L6.45 7.15 6.0 6.6 5.35 6.5 Q5.0 6.6 4.8 6.9 4.65 7.25 4.75 7.6 4.8 7.95 5.15 8.1 L5.8 8.2 Q6.15 8.1 6.35 7.8" fill="#f59fc1" fill-rule="evenodd" stroke="none"/>
    <path d="M24.45 5.0 L24.5 5.05 Q25.4 5.4 25.9 6.05 26.55 6.85 26.4 7.9 26.3 9.05 25.5 9.7 24.65 10.4 23.55 10.3 22.5 10.2 21.75 9.35 21.05 8.45 21.2 7.35 21.2 7.1 21.35 6.8 L21.45 6.45 21.55 6.05 21.6 5.85 21.7 5.65 Q22.05 5.05 22.7 4.85 L23.15 4.85 24.45 5.0" fill="#cf72f0" fill-rule="evenodd" stroke="none"/>
    <path d="M24.45 5.0 L23.15 4.85 22.7 4.85 Q22.05 5.05 21.7 5.65 L21.6 5.85 21.55 6.05 21.45 6.45 21.35 6.8 Q21.2 7.1 21.2 7.35 21.05 8.45 21.75 9.35 22.5 10.2 23.55 10.3 24.65 10.4 25.5 9.7 26.3 9.05 26.4 7.9 26.55 6.85 25.9 6.05 25.4 5.4 24.5 5.05" fill="none" stroke="#a90156" stroke-linecap="round" stroke-linejoin="round" stroke-width="0.75"/>
    <path d="M21.55 6.05 L21.6 5.85 21.7 5.65 Q22.05 5.05 22.7 4.85 L23.0 5.4 23.1 5.3 23.4 5.25 23.85 5.35 23.9 5.35 24.25 5.6 24.1 5.75 23.8 6.25 23.85 6.35 23.65 6.5 23.3 6.7 22.7 7.15 22.25 7.25 21.9 7.35 21.8 7.1 21.65 6.7 21.6 6.5 21.55 6.05" fill="#c8c8c8" fill-rule="evenodd" stroke="none"/>
    <path d="M22.7 4.85 L23.15 4.85 24.45 5.0 24.5 5.05 24.25 5.6 23.9 5.35 23.85 5.35 23.4 5.25 23.1 5.3 23.0 5.4 22.7 4.85 M24.1 5.75 L24.35 6.0 23.85 6.35 23.8 6.25 24.1 5.75" fill="#a2a2a2" fill-rule="evenodd" stroke="none"/>
    <path d="M22.7 7.15 L22.3 7.45 22.25 7.25 22.7 7.15 M21.9 7.35 L21.45 7.3 21.55 6.05 21.6 6.5 21.65 6.7 21.8 7.1 21.9 7.35" fill="#e6e6e6" fill-rule="evenodd" stroke="none"/>
    <path d="M23.6 5.0 L24.05 5.1 Q25.2 5.2 25.9 6.05 26.55 6.85 26.4 7.9 26.3 9.05 25.5 9.7 24.65 10.4 23.55 10.3 22.5 10.2 21.75 9.35 21.05 8.45 21.2 7.35 21.2 7.1 21.35 6.8 L21.6 6.25 22.2 5.6 22.9 5.2 23.6 5.0" fill="#c7175e" fill-rule="evenodd" stroke="none"/>
    <path d="M25.6 7.05 Q25.65 6.25 25.3 5.65 24.85 5.0 24.05 4.95 23.2 4.85 22.5 5.35 21.7 5.85 21.65 6.7 21.6 7.5 22.1 8.1 22.65 8.75 23.45 8.85 24.25 8.9 24.9 8.4 25.55 7.85 25.6 7.05" fill="#eb3e83" fill-rule="evenodd" stroke="none"/>
    <path d="M23.95 7.75 Q23.7 7.45 23.75 7.1 L24.05 6.5 Q24.3 6.25 24.65 6.3 L25.3 6.6 25.5 7.3 25.2 7.85 24.5 8.05 23.95 7.75" fill="#f59fc1" fill-rule="evenodd" stroke="none"/>
  </g>
</svg>
