<?xml version="1.0" encoding="UTF-8" standalone="no"?>
<svg xmlns:xlink="http://www.w3.org/1999/xlink" height="6.3px" width="23.2px" xmlns="http://www.w3.org/2000/svg">
  <g transform="matrix(1.0, 0.0, 0.0, 1.0, -3.6, 12.1)">
    <path d="M5.5 -11.3 L6.75 -11.7 7.2 -11.75 Q7.9 -11.7 8.35 -11.15 L8.45 -11.0 8.55 -10.8 8.7 -10.4 8.85 -10.1 9.1 -9.55 Q9.45 -8.5 8.9 -7.5 8.35 -6.55 7.3 -6.25 6.25 -5.95 5.3 -6.5 4.4 -7.0 4.05 -8.1 3.75 -9.1 4.3 -10.05 4.65 -10.75 5.45 -11.25 L5.5 -11.3" fill="#cf72f0" fill-rule="evenodd" stroke="none"/>
    <path d="M5.5 -11.3 L6.75 -11.7 7.2 -11.75 Q7.9 -11.7 8.35 -11.15 L8.45 -11.0 8.55 -10.8 8.7 -10.4 8.85 -10.1 9.1 -9.55 Q9.45 -8.5 8.9 -7.5 8.35 -6.55 7.3 -6.25 6.25 -5.95 5.3 -6.5 4.4 -7.0 4.05 -8.1 3.75 -9.1 4.3 -10.05 4.65 -10.75 5.45 -11.25" fill="none" stroke="#a90156" stroke-linecap="round" stroke-linejoin="round" stroke-width="0.75"/>
    <path d="M7.2 -11.75 Q7.9 -11.7 8.35 -11.15 L8.45 -11.0 8.55 -10.8 8.6 -10.35 8.55 -10.15 8.5 -9.7 8.45 -9.45 8.1 -9.45 7.6 -9.5 6.9 -9.8 6.55 -10.0 6.3 -10.1 6.35 -10.2 5.95 -10.65 5.8 -10.75 6.1 -11.05 6.15 -11.1 6.55 -11.25 Q6.85 -11.5 6.85 -11.25 L7.0 -11.2 7.2 -11.75" fill="#c8c8c8" fill-rule="evenodd" stroke="none"/>
    <path d="M7.6 -9.5 L8.1 -9.45 8.05 -9.25 7.6 -9.5 M8.45 -9.45 L8.5 -9.7 8.55 -10.15 8.6 -10.35 8.55 -10.8 8.85 -9.55 8.45 -9.45" fill="#e6e6e6" fill-rule="evenodd" stroke="none"/>
    <path d="M7.2 -11.75 L7.0 -11.2 6.85 -11.25 Q6.85 -11.5 6.55 -11.25 L6.15 -11.1 6.1 -11.05 5.8 -10.75 5.45 -11.25 5.5 -11.3 6.75 -11.7 7.2 -11.75 M5.95 -10.65 L6.35 -10.2 6.3 -10.1 5.8 -10.35 5.95 -10.65" fill="#a2a2a2" fill-rule="evenodd" stroke="none"/>
    <path d="M7.05 -11.4 L7.85 -11.1 8.55 -10.6 8.85 -10.1 9.1 -9.55 Q9.45 -8.5 8.9 -7.5 8.35 -6.55 7.3 -6.25 6.25 -5.95 5.3 -6.5 4.4 -7.0 4.05 -8.1 3.75 -9.1 4.3 -10.05 4.8 -11.0 5.9 -11.3 L6.35 -11.45 7.05 -11.4" fill="#c7175e" fill-rule="evenodd" stroke="none"/>
    <path d="M4.75 -9.1 Q4.55 -9.9 4.8 -10.55 5.1 -11.25 5.9 -11.45 L7.5 -11.3 Q8.35 -10.95 8.55 -10.15 8.75 -9.35 8.35 -8.65 7.95 -7.95 7.15 -7.7 L5.65 -7.9 Q4.95 -8.3 4.75 -9.1" fill="#eb3e83" fill-rule="evenodd" stroke="none"/>
    <path d="M6.35 -8.8 L6.45 -9.45 6.0 -10.0 5.35 -10.1 Q5.0 -10.0 4.8 -9.7 4.65 -9.35 4.75 -9.0 4.8 -8.65 5.15 -8.5 L5.8 -8.4 Q6.15 -8.5 6.35 -8.8" fill="#f59fc1" fill-rule="evenodd" stroke="none"/>
    <path d="M24.5 -11.55 L25.9 -10.55 Q26.55 -9.75 26.4 -8.7 26.3 -7.55 25.5 -6.9 24.65 -6.2 23.55 -6.3 22.5 -6.4 21.75 -7.25 21.05 -8.15 21.2 -9.25 L21.35 -9.8 21.45 -10.15 21.55 -10.55 21.6 -10.75 21.7 -10.95 Q22.05 -11.55 22.7 -11.75 L23.15 -11.75 24.45 -11.6 24.5 -11.55" fill="#cf72f0" fill-rule="evenodd" stroke="none"/>
    <path d="M24.45 -11.6 L23.15 -11.75 22.7 -11.75 Q22.05 -11.55 21.7 -10.95 L21.6 -10.75 21.55 -10.55 21.45 -10.15 21.35 -9.8 21.2 -9.25 Q21.05 -8.15 21.75 -7.25 22.5 -6.4 23.55 -6.3 24.65 -6.2 25.5 -6.9 26.3 -7.55 26.4 -8.7 26.55 -9.75 25.9 -10.55 L24.5 -11.55" fill="none" stroke="#a90156" stroke-linecap="round" stroke-linejoin="round" stroke-width="0.75"/>
    <path d="M22.7 -11.75 L23.15 -11.75 24.45 -11.6 24.5 -11.55 24.25 -11.0 23.9 -11.25 23.85 -11.25 23.4 -11.35 23.1 -11.3 23.0 -11.2 22.7 -11.75 M24.1 -10.85 L24.35 -10.6 23.85 -10.25 23.8 -10.35 24.1 -10.85" fill="#a2a2a2" fill-rule="evenodd" stroke="none"/>
    <path d="M24.25 -11.0 L24.1 -10.85 23.8 -10.35 23.85 -10.25 23.65 -10.1 23.3 -9.9 22.7 -9.45 22.25 -9.35 21.9 -9.25 21.8 -9.5 21.65 -9.9 21.6 -10.1 21.55 -10.55 21.6 -10.75 21.7 -10.95 Q22.05 -11.55 22.7 -11.75 L23.0 -11.2 23.1 -11.3 23.4 -11.35 23.85 -11.25 23.9 -11.25 24.25 -11.0" fill="#c8c8c8" fill-rule="evenodd" stroke="none"/>
    <path d="M22.7 -9.45 L22.3 -9.15 22.25 -9.35 22.7 -9.45 M21.9 -9.25 L21.45 -9.3 21.55 -10.55 21.6 -10.1 21.65 -9.9 21.8 -9.5 21.9 -9.25" fill="#e6e6e6" fill-rule="evenodd" stroke="none"/>
    <path d="M25.9 -10.55 Q26.55 -9.75 26.4 -8.7 26.3 -7.55 25.5 -6.9 24.65 -6.2 23.55 -6.3 22.5 -6.4 21.75 -7.25 21.05 -8.15 21.2 -9.25 L21.35 -9.8 21.6 -10.35 22.2 -11.0 22.9 -11.4 23.6 -11.6 24.05 -11.5 Q25.2 -11.4 25.9 -10.55" fill="#c7175e" fill-rule="evenodd" stroke="none"/>
    <path d="M25.6 -9.55 Q25.65 -10.35 25.3 -10.95 24.85 -11.6 24.05 -11.65 23.2 -11.75 22.5 -11.25 21.7 -10.75 21.65 -9.9 21.6 -9.1 22.1 -8.5 22.65 -7.85 23.45 -7.75 24.25 -7.7 24.9 -8.2 25.55 -8.75 25.6 -9.55" fill="#eb3e83" fill-rule="evenodd" stroke="none"/>
    <path d="M23.95 -8.85 Q23.7 -9.15 23.75 -9.5 L24.05 -10.1 24.65 -10.3 25.3 -10.0 25.5 -9.3 25.2 -8.75 Q24.85 -8.5 24.5 -8.55 L23.95 -8.85" fill="#f59fc1" fill-rule="evenodd" stroke="none"/>
  </g>
</svg>
