<?xml version="1.0" encoding="UTF-8" standalone="no"?>
<svg xmlns:xlink="http://www.w3.org/1999/xlink" height="6.3px" width="23.2px" xmlns="http://www.w3.org/2000/svg">
  <g transform="matrix(1.0, 0.0, 0.0, 1.0, -3.6, 36.6)">
    <path d="M5.5 -35.8 L6.75 -36.2 7.2 -36.25 Q7.9 -36.2 8.35 -35.65 L8.45 -35.5 8.55 -35.3 8.7 -34.9 8.85 -34.6 9.1 -34.05 Q9.45 -33.0 8.9 -32.0 8.35 -31.05 7.3 -30.75 6.25 -30.45 5.3 -31.0 4.4 -31.5 4.05 -32.6 3.75 -33.6 4.3 -34.55 4.65 -35.25 5.45 -35.75 L5.5 -35.8" fill="#cf72f0" fill-rule="evenodd" stroke="none"/>
    <path d="M5.5 -35.8 L6.75 -36.2 7.2 -36.25 Q7.9 -36.2 8.35 -35.65 L8.45 -35.5 8.55 -35.3 8.7 -34.9 8.85 -34.6 9.1 -34.05 Q9.45 -33.0 8.9 -32.0 8.35 -31.05 7.3 -30.75 6.25 -30.45 5.3 -31.0 4.4 -31.5 4.05 -32.6 3.75 -33.6 4.3 -34.55 4.65 -35.25 5.45 -35.75" fill="none" stroke="#a90156" stroke-linecap="round" stroke-linejoin="round" stroke-width="0.75"/>
    <path d="M8.45 -33.95 L8.5 -34.2 8.55 -34.65 8.6 -34.85 8.55 -35.3 8.85 -34.05 8.45 -33.95 M7.6 -34.0 L8.1 -33.95 8.05 -33.75 7.6 -34.0" fill="#e6e6e6" fill-rule="evenodd" stroke="none"/>
    <path d="M8.55 -35.3 L8.6 -34.85 8.55 -34.65 8.5 -34.2 8.45 -33.95 8.1 -33.95 7.6 -34.0 6.9 -34.3 6.55 -34.5 6.3 -34.6 6.35 -34.7 5.95 -35.15 5.8 -35.25 6.1 -35.55 6.15 -35.6 6.55 -35.75 Q6.85 -36.0 6.85 -35.75 L7.0 -35.7 7.2 -36.25 Q7.9 -36.2 8.35 -35.65 L8.45 -35.5 8.55 -35.3" fill="#c8c8c8" fill-rule="evenodd" stroke="none"/>
    <path d="M7.2 -36.25 L7.0 -35.7 6.85 -35.75 Q6.85 -36.0 6.55 -35.75 L6.15 -35.6 6.1 -35.55 5.8 -35.25 5.45 -35.75 5.5 -35.8 6.75 -36.2 7.2 -36.25 M5.95 -35.15 L6.35 -34.7 6.3 -34.6 5.8 -34.85 5.95 -35.15" fill="#a2a2a2" fill-rule="evenodd" stroke="none"/>
    <path d="M7.05 -35.9 L7.85 -35.6 8.55 -35.1 8.85 -34.6 9.1 -34.05 Q9.45 -33.0 8.9 -32.0 8.35 -31.05 7.3 -30.75 6.25 -30.45 5.3 -31.0 4.4 -31.5 4.05 -32.6 3.75 -33.6 4.3 -34.55 4.8 -35.5 5.9 -35.8 L6.35 -35.95 7.05 -35.9" fill="#c7175e" fill-rule="evenodd" stroke="none"/>
    <path d="M4.75 -33.6 Q4.55 -34.4 4.8 -35.05 5.1 -35.75 5.9 -35.95 L7.5 -35.8 Q8.35 -35.45 8.55 -34.65 8.75 -33.85 8.35 -33.15 7.95 -32.45 7.15 -32.2 L5.65 -32.4 Q4.95 -32.8 4.75 -33.6" fill="#eb3e83" fill-rule="evenodd" stroke="none"/>
    <path d="M6.35 -33.3 L6.45 -33.95 6.0 -34.5 5.35 -34.6 Q5.0 -34.5 4.8 -34.2 4.65 -33.85 4.75 -33.5 4.8 -33.15 5.15 -33.0 L5.8 -32.9 Q6.15 -33.0 6.35 -33.3" fill="#f59fc1" fill-rule="evenodd" stroke="none"/>
    <path d="M24.5 -36.05 L25.9 -35.05 Q26.55 -34.25 26.4 -33.2 26.3 -32.05 25.5 -31.4 24.65 -30.7 23.55 -30.8 22.5 -30.9 21.75 -31.75 21.05 -32.65 21.2 -33.75 L21.35 -34.3 21.45 -34.65 21.55 -35.05 21.6 -35.25 21.7 -35.45 Q22.05 -36.05 22.7 -36.25 L23.15 -36.25 24.45 -36.1 24.5 -36.05" fill="#cf72f0" fill-rule="evenodd" stroke="none"/>
    <path d="M24.45 -36.1 L23.15 -36.25 22.7 -36.25 Q22.05 -36.05 21.7 -35.45 L21.6 -35.25 21.55 -35.05 21.45 -34.65 21.35 -34.3 21.2 -33.75 Q21.05 -32.65 21.75 -31.75 22.5 -30.9 23.55 -30.8 24.65 -30.7 25.5 -31.4 26.3 -32.05 26.4 -33.2 26.55 -34.25 25.9 -35.05 L24.5 -36.05" fill="none" stroke="#a90156" stroke-linecap="round" stroke-linejoin="round" stroke-width="0.75"/>
    <path d="M22.7 -36.25 L23.15 -36.25 24.45 -36.1 24.5 -36.05 24.25 -35.5 23.9 -35.75 23.85 -35.75 23.4 -35.85 23.1 -35.8 23.0 -35.7 22.7 -36.25 M24.1 -35.35 L24.35 -35.1 23.85 -34.75 23.8 -34.85 24.1 -35.35" fill="#a2a2a2" fill-rule="evenodd" stroke="none"/>
    <path d="M24.25 -35.5 L24.1 -35.35 23.8 -34.85 23.85 -34.75 23.65 -34.6 23.3 -34.4 22.7 -33.95 22.25 -33.85 21.9 -33.75 21.8 -34.0 21.65 -34.4 21.6 -34.6 21.55 -35.05 21.6 -35.25 21.7 -35.45 Q22.05 -36.05 22.7 -36.25 L23.0 -35.7 23.1 -35.8 23.4 -35.85 23.85 -35.75 23.9 -35.75 24.25 -35.5" fill="#c8c8c8" fill-rule="evenodd" stroke="none"/>
    <path d="M22.7 -33.95 L22.3 -33.65 22.25 -33.85 22.7 -33.95 M21.9 -33.75 L21.45 -33.8 21.55 -35.05 21.6 -34.6 21.65 -34.4 21.8 -34.0 21.9 -33.75" fill="#e6e6e6" fill-rule="evenodd" stroke="none"/>
    <path d="M25.9 -35.05 Q26.55 -34.25 26.4 -33.2 26.3 -32.05 25.5 -31.4 24.65 -30.7 23.55 -30.8 22.5 -30.9 21.75 -31.75 21.05 -32.65 21.2 -33.75 L21.35 -34.3 21.6 -34.85 22.2 -35.5 22.9 -35.9 23.6 -36.1 24.05 -36.0 Q25.2 -35.9 25.9 -35.05" fill="#c7175e" fill-rule="evenodd" stroke="none"/>
    <path d="M25.6 -34.05 Q25.65 -34.85 25.3 -35.45 24.85 -36.1 24.05 -36.15 23.2 -36.25 22.5 -35.75 21.7 -35.25 21.65 -34.4 21.6 -33.6 22.1 -33.0 22.65 -32.35 23.45 -32.25 24.25 -32.2 24.9 -32.7 25.55 -33.25 25.6 -34.05" fill="#eb3e83" fill-rule="evenodd" stroke="none"/>
    <path d="M23.95 -33.35 Q23.7 -33.65 23.75 -34.0 L24.05 -34.6 24.65 -34.8 25.3 -34.5 25.5 -33.8 25.2 -33.25 Q24.85 -33.0 24.5 -33.05 L23.95 -33.35" fill="#f59fc1" fill-rule="evenodd" stroke="none"/>
  </g>
</svg>
