<?xml version="1.0" encoding="UTF-8" standalone="no"?>
<svg xmlns:xlink="http://www.w3.org/1999/xlink" height="6.3px" width="23.2px" xmlns="http://www.w3.org/2000/svg">
  <g transform="matrix(1.0, 0.0, 0.0, 1.0, -3.6, 19.2)">
    <path d="M5.5 -18.4 L6.75 -18.8 7.2 -18.85 Q7.9 -18.8 8.35 -18.25 L8.45 -18.1 8.55 -17.9 8.7 -17.5 8.85 -17.2 9.1 -16.65 Q9.45 -15.6 8.9 -14.6 8.35 -13.65 7.3 -13.35 6.25 -13.05 5.3 -13.6 4.4 -14.1 4.05 -15.2 3.75 -16.2 4.3 -17.15 4.65 -17.85 5.45 -18.35 L5.5 -18.4" fill="#cf72f0" fill-rule="evenodd" stroke="none"/>
    <path d="M5.5 -18.4 L6.75 -18.8 7.2 -18.85 Q7.9 -18.8 8.35 -18.25 L8.45 -18.1 8.55 -17.9 8.7 -17.5 8.85 -17.2 9.1 -16.65 Q9.45 -15.6 8.9 -14.6 8.35 -13.65 7.3 -13.35 6.25 -13.05 5.3 -13.6 4.4 -14.1 4.05 -15.2 3.75 -16.2 4.3 -17.15 4.65 -17.85 5.45 -18.35" fill="none" stroke="#a90156" stroke-linecap="round" stroke-linejoin="round" stroke-width="0.75"/>
    <path d="M5.8 -17.85 L5.45 -18.35 5.5 -18.4 6.75 -18.8 7.2 -18.85 7.0 -18.3 6.85 -18.35 Q6.85 -18.6 6.55 -18.35 L6.15 -18.2 6.1 -18.15 5.8 -17.85 M6.3 -17.2 L5.8 -17.45 5.95 -17.75 6.35 -17.3 6.3 -17.2" fill="#a2a2a2" fill-rule="evenodd" stroke="none"/>
    <path d="M5.8 -17.85 L6.1 -18.15 6.15 -18.2 6.55 -18.35 Q6.85 -18.6 6.85 -18.35 L7.0 -18.3 7.2 -18.85 Q7.9 -18.8 8.35 -18.25 L8.45 -18.1 8.55 -17.9 8.6 -17.45 8.55 -17.25 8.5 -16.8 8.45 -16.55 8.1 -16.55 7.6 -16.6 6.9 -16.9 6.55 -17.1 6.3 -17.2 6.35 -17.3 5.95 -17.75 5.8 -17.85" fill="#c8c8c8" fill-rule="evenodd" stroke="none"/>
    <path d="M8.55 -17.9 L8.85 -16.65 8.45 -16.55 8.5 -16.8 8.55 -17.25 8.6 -17.45 8.55 -17.9 M8.1 -16.55 L8.05 -16.35 7.6 -16.6 8.1 -16.55" fill="#e6e6e6" fill-rule="evenodd" stroke="none"/>
    <path d="M4.3 -17.15 Q4.8 -18.1 5.9 -18.4 L6.35 -18.55 7.05 -18.5 7.85 -18.2 8.55 -17.7 8.85 -17.2 9.1 -16.65 Q9.45 -15.6 8.9 -14.6 8.35 -13.65 7.3 -13.35 6.25 -13.05 5.3 -13.6 4.4 -14.1 4.05 -15.2 3.75 -16.2 4.3 -17.15" fill="#c7175e" fill-rule="evenodd" stroke="none"/>
    <path d="M4.75 -16.2 Q4.55 -17.0 4.8 -17.65 5.1 -18.35 5.9 -18.55 L7.5 -18.4 Q8.35 -18.05 8.55 -17.25 8.75 -16.45 8.35 -15.75 7.95 -15.05 7.15 -14.8 L5.65 -15.0 Q4.95 -15.4 4.75 -16.2" fill="#eb3e83" fill-rule="evenodd" stroke="none"/>
    <path d="M6.35 -15.9 L6.45 -16.55 6.0 -17.1 5.35 -17.2 Q5.0 -17.1 4.8 -16.8 4.65 -16.45 4.75 -16.1 4.8 -15.75 5.15 -15.6 L5.8 -15.5 Q6.15 -15.6 6.35 -15.9" fill="#f59fc1" fill-rule="evenodd" stroke="none"/>
    <path d="M24.45 -18.7 L24.5 -18.65 25.9 -17.65 Q26.55 -16.85 26.4 -15.8 26.3 -14.65 25.5 -14.0 24.65 -13.3 23.55 -13.4 22.5 -13.5 21.75 -14.35 21.05 -15.25 21.2 -16.35 L21.35 -16.9 21.45 -17.25 21.55 -17.65 21.6 -17.85 21.7 -18.05 Q22.05 -18.65 22.7 -18.85 L23.15 -18.85 24.45 -18.7" fill="#cf72f0" fill-rule="evenodd" stroke="none"/>
    <path d="M24.45 -18.7 L23.15 -18.85 22.7 -18.85 Q22.05 -18.65 21.7 -18.05 L21.6 -17.85 21.55 -17.65 21.45 -17.25 21.35 -16.9 21.2 -16.35 Q21.05 -15.25 21.75 -14.35 22.5 -13.5 23.55 -13.4 24.65 -13.3 25.5 -14.0 26.3 -14.65 26.4 -15.8 26.55 -16.85 25.9 -17.65 L24.5 -18.65" fill="none" stroke="#a90156" stroke-linecap="round" stroke-linejoin="round" stroke-width="0.75"/>
    <path d="M22.7 -18.85 L23.15 -18.85 24.45 -18.7 24.5 -18.65 24.25 -18.1 23.9 -18.35 23.85 -18.35 23.4 -18.45 23.1 -18.4 23.0 -18.3 22.7 -18.85 M24.1 -17.95 L24.35 -17.7 23.85 -17.35 23.8 -17.45 24.1 -17.95" fill="#a2a2a2" fill-rule="evenodd" stroke="none"/>
    <path d="M24.25 -18.1 L24.1 -17.95 23.8 -17.45 23.85 -17.35 23.65 -17.2 23.3 -17.0 22.7 -16.55 22.25 -16.45 21.9 -16.35 21.8 -16.6 21.65 -17.0 21.6 -17.2 21.55 -17.65 21.6 -17.85 21.7 -18.05 Q22.05 -18.65 22.7 -18.85 L23.0 -18.3 23.1 -18.4 23.4 -18.45 23.85 -18.35 23.9 -18.35 24.25 -18.1" fill="#c8c8c8" fill-rule="evenodd" stroke="none"/>
    <path d="M22.7 -16.55 L22.3 -16.25 22.25 -16.45 22.7 -16.55 M21.9 -16.35 L21.45 -16.4 21.55 -17.65 21.6 -17.2 21.65 -17.0 21.8 -16.6 21.9 -16.35" fill="#e6e6e6" fill-rule="evenodd" stroke="none"/>
    <path d="M23.6 -18.7 L24.05 -18.6 Q25.2 -18.5 25.9 -17.65 26.55 -16.85 26.4 -15.8 26.3 -14.65 25.5 -14.0 24.65 -13.3 23.55 -13.4 22.5 -13.5 21.75 -14.35 21.05 -15.25 21.2 -16.35 L21.35 -16.9 21.6 -17.45 22.2 -18.1 22.9 -18.5 23.6 -18.7" fill="#c7175e" fill-rule="evenodd" stroke="none"/>
    <path d="M25.6 -16.65 Q25.65 -17.45 25.3 -18.05 24.85 -18.7 24.05 -18.75 23.2 -18.85 22.5 -18.35 21.7 -17.85 21.65 -17.0 21.6 -16.2 22.1 -15.6 22.65 -14.95 23.45 -14.85 24.25 -14.8 24.9 -15.3 25.55 -15.85 25.6 -16.65" fill="#eb3e83" fill-rule="evenodd" stroke="none"/>
    <path d="M23.95 -15.95 Q23.7 -16.25 23.75 -16.6 L24.05 -17.2 24.65 -17.4 25.3 -17.1 25.5 -16.4 25.2 -15.85 Q24.85 -15.6 24.5 -15.65 L23.95 -15.95" fill="#f59fc1" fill-rule="evenodd" stroke="none"/>
  </g>
</svg>
