<?xml version="1.0" encoding="UTF-8" standalone="no"?>
<svg xmlns:xlink="http://www.w3.org/1999/xlink" height="6.3px" width="23.2px" xmlns="http://www.w3.org/2000/svg">
  <g transform="matrix(1.0, 0.0, 0.0, 1.0, -3.6, 10.9)">
    <path d="M5.5 -10.1 L6.75 -10.5 7.2 -10.55 Q7.9 -10.5 8.35 -9.95 L8.45 -9.8 8.55 -9.6 8.7 -9.2 8.85 -8.9 9.1 -8.35 Q9.45 -7.3 8.9 -6.3 8.35 -5.35 7.3 -5.05 6.25 -4.75 5.3 -5.3 4.4 -5.8 4.05 -6.9 3.75 -7.9 4.3 -8.85 4.65 -9.55 5.45 -10.05 L5.5 -10.1" fill="#cf72f0" fill-rule="evenodd" stroke="none"/>
    <path d="M5.5 -10.1 L6.75 -10.5 7.2 -10.55 Q7.9 -10.5 8.35 -9.95 L8.45 -9.8 8.55 -9.6 8.7 -9.2 8.85 -8.9 9.1 -8.35 Q9.45 -7.3 8.9 -6.3 8.35 -5.35 7.3 -5.05 6.25 -4.75 5.3 -5.3 4.4 -5.8 4.05 -6.9 3.75 -7.9 4.3 -8.85 4.65 -9.55 5.45 -10.05" fill="none" stroke="#a90156" stroke-linecap="round" stroke-linejoin="round" stroke-width="0.75"/>
    <path d="M7.2 -10.55 Q7.9 -10.5 8.35 -9.95 L8.45 -9.8 8.55 -9.6 8.6 -9.15 8.55 -8.95 8.5 -8.5 8.45 -8.25 8.1 -8.25 7.6 -8.3 6.9 -8.6 6.55 -8.8 6.3 -8.9 6.35 -9.0 5.95 -9.45 5.8 -9.55 6.1 -9.85 6.15 -9.9 6.55 -10.05 Q6.85 -10.3 6.85 -10.05 L7.0 -10.0 7.2 -10.55" fill="#c8c8c8" fill-rule="evenodd" stroke="none"/>
    <path d="M7.2 -10.55 L7.0 -10.0 6.85 -10.05 Q6.85 -10.3 6.55 -10.05 L6.15 -9.9 6.1 -9.85 5.8 -9.55 5.45 -10.05 5.5 -10.1 6.75 -10.5 7.2 -10.55 M5.95 -9.45 L6.35 -9.0 6.3 -8.9 5.8 -9.15 5.95 -9.45" fill="#a2a2a2" fill-rule="evenodd" stroke="none"/>
    <path d="M7.6 -8.3 L8.1 -8.25 8.05 -8.05 7.6 -8.3 M8.45 -8.25 L8.5 -8.5 8.55 -8.95 8.6 -9.15 8.55 -9.6 8.85 -8.35 8.45 -8.25" fill="#e6e6e6" fill-rule="evenodd" stroke="none"/>
    <path d="M7.05 -10.2 L7.85 -9.9 8.55 -9.4 8.85 -8.9 9.1 -8.35 Q9.45 -7.3 8.9 -6.3 8.35 -5.35 7.3 -5.05 6.25 -4.75 5.3 -5.3 4.4 -5.8 4.05 -6.9 3.75 -7.9 4.3 -8.85 4.8 -9.8 5.9 -10.1 L6.35 -10.25 7.05 -10.2" fill="#c7175e" fill-rule="evenodd" stroke="none"/>
    <path d="M4.75 -7.9 Q4.55 -8.7 4.8 -9.35 5.1 -10.05 5.9 -10.25 L7.5 -10.1 Q8.35 -9.75 8.55 -8.95 8.75 -8.15 8.35 -7.45 7.95 -6.75 7.15 -6.5 L5.65 -6.7 Q4.95 -7.1 4.75 -7.9" fill="#eb3e83" fill-rule="evenodd" stroke="none"/>
    <path d="M6.35 -7.6 L6.45 -8.25 6.0 -8.8 5.35 -8.9 Q5.0 -8.8 4.8 -8.5 4.65 -8.15 4.75 -7.8 4.8 -7.45 5.15 -7.3 L5.8 -7.2 Q6.15 -7.3 6.35 -7.6" fill="#f59fc1" fill-rule="evenodd" stroke="none"/>
    <path d="M24.5 -10.35 L25.9 -9.35 Q26.55 -8.55 26.4 -7.5 26.3 -6.35 25.5 -5.7 24.65 -5.0 23.55 -5.1 22.5 -5.2 21.75 -6.05 21.05 -6.95 21.2 -8.05 L21.35 -8.6 21.45 -8.95 21.55 -9.35 21.6 -9.55 21.7 -9.75 Q22.05 -10.35 22.7 -10.55 L23.15 -10.55 24.45 -10.4 24.5 -10.35" fill="#cf72f0" fill-rule="evenodd" stroke="none"/>
    <path d="M24.45 -10.4 L23.15 -10.55 22.7 -10.55 Q22.05 -10.35 21.7 -9.75 L21.6 -9.55 21.55 -9.35 21.45 -8.95 21.35 -8.6 21.2 -8.05 Q21.05 -6.95 21.75 -6.05 22.5 -5.2 23.55 -5.1 24.65 -5.0 25.5 -5.7 26.3 -6.35 26.4 -7.5 26.55 -8.55 25.9 -9.35 L24.5 -10.35" fill="none" stroke="#a90156" stroke-linecap="round" stroke-linejoin="round" stroke-width="0.75"/>
    <path d="M22.7 -10.55 L23.0 -10.0 23.1 -10.1 23.4 -10.15 23.85 -10.05 23.9 -10.05 24.25 -9.8 24.1 -9.65 23.8 -9.15 23.85 -9.05 23.65 -8.9 23.3 -8.7 22.7 -8.25 22.25 -8.15 21.9 -8.05 21.8 -8.3 21.65 -8.7 21.6 -8.9 21.55 -9.35 21.6 -9.55 21.7 -9.75 Q22.05 -10.35 22.7 -10.55" fill="#c8c8c8" fill-rule="evenodd" stroke="none"/>
    <path d="M24.25 -9.8 L23.9 -10.05 23.85 -10.05 23.4 -10.15 23.1 -10.1 23.0 -10.0 22.7 -10.55 23.15 -10.55 24.45 -10.4 24.5 -10.35 24.25 -9.8 M23.85 -9.05 L23.8 -9.15 24.1 -9.65 24.35 -9.4 23.85 -9.05" fill="#a2a2a2" fill-rule="evenodd" stroke="none"/>
    <path d="M21.55 -9.35 L21.6 -8.9 21.65 -8.7 21.8 -8.3 21.9 -8.05 21.45 -8.1 21.55 -9.35 M22.25 -8.15 L22.7 -8.25 22.3 -7.95 22.25 -8.15" fill="#e6e6e6" fill-rule="evenodd" stroke="none"/>
    <path d="M25.9 -9.35 Q26.55 -8.55 26.4 -7.5 26.3 -6.35 25.5 -5.7 24.65 -5.0 23.55 -5.1 22.5 -5.2 21.75 -6.05 21.05 -6.95 21.2 -8.05 L21.35 -8.6 21.6 -9.15 22.2 -9.8 22.9 -10.2 23.6 -10.4 24.05 -10.3 Q25.2 -10.2 25.9 -9.35" fill="#c7175e" fill-rule="evenodd" stroke="none"/>
    <path d="M25.6 -8.35 Q25.65 -9.15 25.3 -9.75 24.85 -10.4 24.05 -10.45 23.2 -10.55 22.5 -10.05 21.7 -9.55 21.65 -8.7 21.6 -7.9 22.1 -7.3 22.65 -6.65 23.45 -6.55 24.25 -6.5 24.9 -7.0 25.55 -7.55 25.6 -8.35" fill="#eb3e83" fill-rule="evenodd" stroke="none"/>
    <path d="M23.95 -7.65 Q23.7 -7.95 23.75 -8.3 L24.05 -8.9 24.65 -9.1 25.3 -8.8 25.5 -8.1 25.2 -7.55 Q24.85 -7.3 24.5 -7.35 L23.95 -7.65" fill="#f59fc1" fill-rule="evenodd" stroke="none"/>
  </g>
</svg>
