<?xml version="1.0" encoding="UTF-8" standalone="no"?>
<svg xmlns:xlink="http://www.w3.org/1999/xlink" height="30.65px" width="30.55px" xmlns="http://www.w3.org/2000/svg">
  <g transform="matrix(1.0, 0.0, 0.0, 1.0, 0.0, 0.0)">
    <path d="M0.0 10.0 L0.0 0.0 30.55 0.0 30.55 30.65 29.0 30.65 28.3 30.65 24.4 30.65 23.25 30.65 22.75 30.65 22.15 30.65 19.85 30.65 19.5 30.65 17.6 30.65 15.5 30.65 15.35 30.65 15.25 30.65 15.1 30.65 13.7 30.6 10.05 30.6 7.3 30.6 6.6 30.6 6.15 30.6 5.0 30.6 0.0 30.55 0.0 27.1 0.0 23.75 0.0 15.2 0.0 14.3 0.0 10.0" fill="#874e1f" fill-rule="evenodd" stroke="none"/>
    <path d="M15.55 29.55 L15.55 14.35 22.8 14.35 22.8 29.55 15.55 29.55" fill="#8a5428" fill-rule="evenodd" stroke="none"/>
    <path d="M10.0 14.3 L7.5 14.3 7.5 0.0 14.75 0.0 14.75 14.35 14.65 14.35 14.5 14.35 13.25 14.3 10.0 14.3" fill="#7e471b" fill-rule="evenodd" stroke="none"/>
    <path d="M7.25 30.65 L0.0 30.4 0.25 14.35 7.5 14.6 7.25 30.65" fill="#8a5428" fill-rule="evenodd" stroke="none"/>
    <path d="M29.0 22.95 L25.6 22.95 23.0 22.95 23.0 4.9 30.55 4.9 30.55 23.0 30.45 23.0 30.3 23.0 29.0 22.95" fill="#7e471b" fill-rule="evenodd" stroke="none"/>
  </g>
</svg>
