<?xml version="1.0" encoding="UTF-8" standalone="no"?>
<svg xmlns:xlink="http://www.w3.org/1999/xlink" height="30.0px" width="30.0px" xmlns="http://www.w3.org/2000/svg">
  <g transform="matrix(1.0, 0.0, 0.0, 1.0, 0.0, 0.0)">
    <path d="M2.6 30.0 Q1.5 30.0 0.75 29.2 0.0 28.45 0.0 27.35 L0.0 2.7 Q0.0 1.6 0.75 0.75 1.5 0.0 2.6 0.0 L27.05 0.0 Q28.1 0.0 28.9 0.75 29.65 1.6 29.65 2.7 L29.65 27.35 Q29.65 28.45 28.9 29.2 28.1 30.0 27.05 30.0 L2.6 30.0" fill="#28303a" fill-rule="evenodd" stroke="none"/>
    <path d="M4.1 29.4 Q3.05 29.4 2.3 28.65 1.55 27.85 1.55 26.8 L1.55 3.15 Q1.55 2.1 2.3 1.4 3.05 0.6 4.1 0.6 L27.45 0.6 Q28.5 0.6 29.25 1.4 30.0 2.1 30.0 3.15 L30.0 26.8 Q30.0 27.9 29.25 28.65 28.5 29.4 27.45 29.4 L4.1 29.4" fill="#384451" fill-rule="evenodd" stroke="none"/>
    <path d="M12.65 6.15 L16.15 2.55 28.7 15.3 16.3 28.5 12.8 24.3 21.1 15.45 12.65 6.15" fill="#262e35" fill-rule="evenodd" stroke="none"/>
    <path d="M3.2 6.85 L6.45 3.5 18.05 15.4 6.25 27.8 3.2 23.75 10.85 15.45 3.2 6.85" fill="#262e35" fill-rule="evenodd" stroke="none"/>
    <path d="M13.5 24.35 L22.05 15.25 13.65 6.05 16.25 3.45 27.8 15.25 16.25 27.45 13.5 24.35" fill="#a4f6ff" fill-rule="evenodd" stroke="none"/>
    <path d="M6.3 26.95 L4.1 23.8 11.75 15.4 3.85 6.75 6.3 4.3 17.15 15.4 6.3 26.95" fill="#77aaff" fill-rule="evenodd" stroke="none"/>
  </g>
</svg>
