<?xml version="1.0" encoding="UTF-8" standalone="no"?>
<svg xmlns:xlink="http://www.w3.org/1999/xlink" height="41.9px" width="32.0px" xmlns="http://www.w3.org/2000/svg">
  <g transform="matrix(1.0, 0.0, 0.0, 1.0, 1.0, 11.0)">
    <path d="M29.0 -10.0 L29.7 -9.75 30.0 -9.05 30.0 13.05 29.7 13.85 29.0 14.15 27.05 14.15 27.05 28.45 Q27.05 29.05 26.65 29.5 26.3 29.9 25.75 29.9 L20.35 29.9 Q19.8 29.9 19.45 29.5 19.05 29.05 19.05 28.45 L19.05 14.15 10.25 14.15 10.25 28.3 9.9 29.35 Q9.6 29.75 9.1 29.75 L4.0 29.75 Q3.5 29.75 3.2 29.35 2.85 28.9 2.85 28.3 L2.85 14.15 1.0 14.15 Q0.6 14.15 0.3 13.85 0.0 13.5 0.0 13.05 L0.0 -9.05 Q0.0 -9.45 0.3 -9.75 L1.0 -10.0 29.0 -10.0" fill="#343a62" fill-opacity="0.98039216" fill-rule="evenodd" stroke="none"/>
    <path d="M29.0 -10.0 L29.7 -9.75 30.0 -9.05 30.0 13.05 29.7 13.85 29.0 14.15 27.05 14.15 27.05 28.45 Q27.05 29.05 26.65 29.5 26.3 29.9 25.75 29.9 L20.35 29.9 Q19.8 29.9 19.45 29.5 19.05 29.05 19.05 28.45 L19.05 14.15 10.25 14.15 10.25 28.3 9.9 29.35 Q9.6 29.75 9.1 29.75 L4.0 29.75 Q3.5 29.75 3.2 29.35 2.85 28.9 2.85 28.3 L2.85 14.15 1.0 14.15 Q0.6 14.15 0.3 13.85 0.0 13.5 0.0 13.05 L0.0 -9.05 Q0.0 -9.45 0.3 -9.75 L1.0 -10.0 29.0 -10.0 Z" fill="none" stroke="#090e31" stroke-linecap="round" stroke-linejoin="round" stroke-width="2.0"/>
    <path d="M19.45 10.65 Q19.8 10.2 20.35 10.2 L25.75 10.2 Q26.3 10.2 26.65 10.65 27.05 11.05 27.05 11.65 L27.05 28.45 Q27.05 29.05 26.65 29.5 26.3 29.9 25.75 29.9 L20.35 29.9 Q19.8 29.9 19.45 29.5 19.05 29.05 19.05 28.45 L19.05 11.65 Q19.05 11.05 19.45 10.65" fill="#5f6185" fill-rule="evenodd" stroke="none"/>
    <path d="M26.65 10.9 L26.65 26.45 Q26.65 27.0 26.3 27.35 25.95 27.75 25.45 27.75 L20.45 27.75 Q19.95 27.75 19.6 27.35 19.25 27.0 19.25 26.45 L19.25 10.9 Q19.25 10.35 19.6 9.95 19.95 9.55 20.45 9.55 L25.45 9.55 Q25.95 9.55 26.3 9.95 26.65 10.35 26.65 10.9" fill="#bbbcbc" fill-rule="evenodd" stroke="none"/>
    <path d="M3.2 10.35 Q3.5 9.9 4.0 9.9 L9.1 9.9 Q9.6 9.9 9.9 10.35 10.25 10.75 10.25 11.35 L10.25 28.3 9.9 29.35 Q9.6 29.75 9.1 29.75 L4.0 29.75 Q3.5 29.75 3.2 29.35 2.85 28.9 2.85 28.3 L2.85 11.35 Q2.85 10.75 3.2 10.35" fill="#5f6185" fill-rule="evenodd" stroke="none"/>
    <path d="M10.0 10.75 L10.0 26.45 9.7 27.4 Q9.35 27.8 8.9 27.8 L4.2 27.8 3.45 27.4 Q3.1 27.0 3.1 26.45 L3.1 10.75 Q3.1 10.2 3.45 9.8 3.75 9.4 4.2 9.4 L8.9 9.4 Q9.35 9.4 9.7 9.8 L10.0 10.75" fill="#bdbebf" fill-rule="evenodd" stroke="none"/>
    <path d="M3.55 25.45 L4.35 25.8 5.8 25.8 5.8 27.6 4.4 27.6 3.7 27.35 3.55 27.15 3.55 25.45" fill="url(#gradient0)" fill-rule="evenodd" stroke="none"/>
    <path d="M9.65 25.45 L9.65 27.15 Q9.55 27.55 8.8 27.6 L7.45 27.6 7.45 25.8 8.9 25.8 9.65 25.45" fill="url(#gradient1)" fill-rule="evenodd" stroke="none"/>
    <path d="M20.65 25.8 L22.2 25.8 22.2 27.6 20.7 27.6 19.95 27.35 19.8 27.15 19.8 25.45 20.65 25.8" fill="url(#gradient2)" fill-rule="evenodd" stroke="none"/>
    <path d="M26.3 25.35 L26.3 27.05 Q26.15 27.45 25.4 27.5 L23.95 27.5 23.95 25.7 25.45 25.7 26.3 25.35" fill="url(#gradient3)" fill-rule="evenodd" stroke="none"/>
    <path d="M9.4 9.55 L9.65 24.35 9.35 25.25 Q9.05 25.65 8.65 25.65 L4.45 25.65 3.75 25.25 Q3.45 24.9 3.45 24.35 L3.75 9.55 9.4 9.55" fill="#eeeeef" fill-rule="evenodd" stroke="none"/>
    <path d="M20.7 25.55 Q20.25 25.55 19.95 25.2 19.65 24.85 19.65 24.3 L19.95 9.45 26.0 9.45 26.3 24.3 26.0 25.2 25.25 25.55 20.7 25.55" fill="#e0e1e2" fill-rule="evenodd" stroke="none"/>
    <path d="M9.4 12.4 L9.4 23.9 9.15 24.6 8.5 24.9 4.65 24.9 4.0 24.6 3.75 23.9 3.75 12.4 Q3.75 12.0 4.0 11.7 4.3 11.4 4.65 11.4 L8.5 11.4 Q8.9 11.4 9.15 11.7 L9.4 12.4" fill="url(#gradient4)" fill-rule="evenodd" stroke="none"/>
    <path d="M26.05 12.4 L26.05 23.9 25.8 24.6 25.1 24.9 21.0 24.9 20.3 24.6 Q20.0 24.3 20.0 23.9 L20.0 12.4 Q20.0 12.0 20.3 11.7 20.6 11.4 21.0 11.4 L25.1 11.4 Q25.5 11.4 25.8 11.7 L26.05 12.4" fill="url(#gradient5)" fill-rule="evenodd" stroke="none"/>
    <path d="M30.0 12.4 L29.7 13.1 29.0 13.4 1.0 13.4 Q0.6 13.4 0.3 13.1 0.0 12.8 0.0 12.4 L0.0 -9.05 Q0.0 -9.45 0.3 -9.75 L1.0 -10.0 29.0 -10.0 29.7 -9.75 30.0 -9.05 30.0 12.4" fill="#dddede" fill-rule="evenodd" stroke="none"/>
    <path d="M8.6 8.15 L8.6 21.45 8.4 22.25 7.95 22.6 5.15 22.6 4.7 22.25 4.5 21.45 4.5 8.15 4.7 7.35 5.15 7.0 7.95 7.0 Q8.2 7.0 8.4 7.35 L8.6 8.15" fill="#949f9f" fill-rule="evenodd" stroke="none"/>
    <path d="M5.4 13.5 L7.7 13.5 7.7 20.8 7.5 21.6 7.1 21.75 6.0 21.75 Q5.7 21.75 5.5 21.45 L5.4 21.05 5.4 13.5" fill="#7f8b8b" fill-rule="evenodd" stroke="none"/>
    <path d="M8.4 9.45 L8.6 10.35 8.6 18.45 4.5 18.45 4.5 10.35 4.7 9.45 5.15 9.05 7.95 9.05 8.4 9.45" fill="#1c2020" fill-rule="evenodd" stroke="none"/>
    <path d="M5.4 18.5 L5.4 10.5 7.7 10.5 7.7 18.5 5.4 18.5" fill="#2e3535" fill-rule="evenodd" stroke="none"/>
    <path d="M7.4 18.7 L7.4 21.15 7.15 21.35 5.95 21.35 5.7 21.15 5.7 18.7 Q5.7 18.45 5.95 18.45 L7.15 18.45 7.4 18.7" fill="#b8c6c6" fill-rule="evenodd" stroke="none"/>
    <path d="M25.1 8.15 L25.1 21.45 24.9 22.25 24.45 22.6 21.65 22.6 Q21.4 22.6 21.2 22.25 L21.0 21.45 21.0 8.15 21.2 7.35 Q21.4 7.0 21.65 7.0 L24.45 7.0 24.9 7.35 25.1 8.15" fill="#949f9f" fill-rule="evenodd" stroke="none"/>
    <path d="M21.9 13.5 L24.2 13.5 24.2 20.8 24.0 21.6 23.6 21.75 22.5 21.75 Q22.2 21.75 22.0 21.45 L21.9 21.05 21.9 13.5" fill="#7f8b8b" fill-rule="evenodd" stroke="none"/>
    <path d="M24.9 9.45 L25.1 10.35 25.1 18.45 21.0 18.45 21.0 10.35 21.2 9.45 Q21.4 9.05 21.65 9.05 L24.45 9.05 24.9 9.45" fill="#1c2020" fill-rule="evenodd" stroke="none"/>
    <path d="M21.9 18.5 L21.9 10.5 24.2 10.5 24.2 18.5 21.9 18.5" fill="#2e3535" fill-rule="evenodd" stroke="none"/>
    <path d="M23.9 18.7 L23.9 21.15 23.65 21.35 22.45 21.35 22.2 21.15 22.2 18.7 Q22.2 18.45 22.45 18.45 L23.65 18.45 23.9 18.7" fill="#b8c6c6" fill-rule="evenodd" stroke="none"/>
    <path d="M30.0 10.4 L29.7 11.05 29.0 11.3 1.0 11.3 0.3 11.05 Q0.0 10.8 0.0 10.4 L0.0 -8.45 0.3 -9.1 1.0 -9.35 29.0 -9.35 29.7 -9.1 30.0 -8.45 30.0 10.4" fill="#ecf7f7" fill-rule="evenodd" stroke="none"/>
    <path d="M5.85 -2.0 L2.75 -2.0 2.75 -9.35 5.85 -9.35 5.85 -2.0" fill="#d8e5e4" fill-rule="evenodd" stroke="none"/>
    <path d="M2.75 -9.35 L2.75 -2.0 0.05 -2.0 0.05 -8.35 Q0.05 -8.75 0.35 -9.05 L1.05 -9.35 2.75 -9.35" fill="#b9cac9" fill-rule="evenodd" stroke="none"/>
    <path d="M30.0 -2.0 L26.45 -2.0 26.45 -9.35 29.0 -9.35 29.7 -9.05 30.0 -8.35 30.0 -2.0" fill="#b9cac9" fill-rule="evenodd" stroke="none"/>
    <path d="M26.45 -2.0 L22.8 -2.0 22.8 -9.35 26.45 -9.35 26.45 -2.0" fill="#d8e5e4" fill-rule="evenodd" stroke="none"/>
    <path d="M9.2 -2.0 L5.85 -2.0 5.85 -9.35 9.2 -9.35 9.2 -2.0" fill="#f4f4f1" fill-rule="evenodd" stroke="none"/>
    <path d="M30.0 10.55 L29.7 11.25 29.0 11.5 1.0 11.5 0.3 11.25 Q0.0 10.95 0.0 10.55 L0.0 -5.9 Q0.0 -6.3 0.3 -6.6 0.6 -6.9 1.0 -6.9 L29.0 -6.9 29.7 -6.6 30.0 -5.9 30.0 10.55" fill="#ffffff" fill-rule="evenodd" stroke="none"/>
    <path d="M30.0 13.05 L29.7 13.85 29.0 14.15 1.0 14.15 Q0.6 14.15 0.3 13.85 0.0 13.5 0.0 13.05 L0.0 -5.2 Q0.0 -5.65 0.3 -5.95 0.6 -6.25 1.0 -6.25 L29.0 -6.25 29.7 -5.95 30.0 -5.2 30.0 13.05" fill="url(#gradient6)" fill-rule="evenodd" stroke="none"/>
    <path d="M28.35 11.95 L28.35 -3.75 28.1 -4.25 27.5 -4.5 2.7 -4.5 2.0 -4.25 1.75 -3.75 1.75 11.95 1.75 12.4 1.85 12.8 Q1.2 12.65 1.2 12.05 L1.2 -4.35 1.45 -4.85 2.15 -5.1 27.9 -5.1 28.55 -4.85 28.65 -4.75 28.8 -4.35 28.8 12.05 28.55 12.6 28.25 12.75 28.35 12.4 28.35 11.95" fill="#2c2c2c" fill-rule="evenodd" stroke="none"/>
    <path d="M28.35 11.95 L28.35 12.4 28.25 12.75 27.9 12.8 2.15 12.8 1.85 12.8 1.75 12.4 1.75 11.95 2.45 12.1 27.8 12.1 28.35 11.95" fill="#bbbbbb" fill-rule="evenodd" stroke="none"/>
    <path d="M1.75 11.95 L1.75 -3.75 2.0 -4.25 2.7 -4.5 27.5 -4.5 28.1 -4.25 28.35 -3.75 28.35 11.95 27.8 12.1 2.45 12.1 1.75 11.95" fill="#5b5b5b" fill-rule="evenodd" stroke="none"/>
    <path d="M27.9 -0.55 L27.9 5.65 27.65 6.7 Q27.4 7.1 27.0 7.1 L3.0 7.1 2.4 6.7 Q2.15 6.25 2.15 5.65 L2.15 -0.55 Q2.15 -2.0 3.0 -2.0 L27.0 -2.0 27.65 -1.55 27.9 -0.55" fill="#000000" fill-rule="evenodd" stroke="none"/>
    <path d="M6.2 1.1 Q6.65 0.4 7.4 0.4 8.2 0.4 8.65 1.1 9.05 1.65 9.05 2.6 9.05 3.6 8.65 4.15 8.2 4.8 7.4 4.8 6.65 4.8 6.2 4.15 5.75 3.55 5.75 2.6 5.75 1.7 6.2 1.1 M7.95 1.9 L7.85 1.2 Q7.7 0.85 7.4 0.85 7.15 0.85 7.0 1.2 L6.9 1.9 6.9 3.35 7.0 4.05 Q7.15 4.4 7.4 4.4 7.7 4.4 7.85 4.05 L7.95 3.35 7.95 1.9" fill="#00cd56" fill-rule="evenodd" stroke="none"/>
    <path d="M11.6 1.85 Q11.6 1.1 10.9 1.1 L10.0 1.5 9.75 1.15 Q10.45 0.4 11.35 0.4 12.0 0.4 12.35 0.7 12.75 1.0 12.75 1.55 L12.05 2.85 10.85 3.9 12.05 3.9 12.55 3.55 13.0 3.55 12.55 4.75 9.75 4.75 9.75 4.3 10.3 3.8 11.1 2.9 11.6 1.85" fill="#00cd56" fill-rule="evenodd" stroke="none"/>
    <path d="M14.35 3.65 L14.8 3.8 14.95 4.25 14.8 4.65 14.35 4.8 13.95 4.65 13.8 4.25 13.95 3.8 Q14.2 3.65 14.35 3.65 M13.95 2.05 Q14.2 1.9 14.35 1.9 L14.8 2.05 14.95 2.45 14.8 2.9 14.35 3.05 13.95 2.9 13.8 2.45 13.95 2.05" fill="#00cd56" fill-rule="evenodd" stroke="none"/>
    <path d="M16.15 1.1 Q16.6 0.4 17.35 0.4 18.15 0.4 18.6 1.1 19.0 1.65 19.0 2.6 19.0 3.6 18.6 4.15 18.15 4.8 17.35 4.8 16.6 4.8 16.15 4.15 15.7 3.55 15.7 2.6 15.7 1.7 16.15 1.1 M17.9 1.9 L17.8 1.2 Q17.65 0.85 17.35 0.85 17.1 0.85 16.95 1.2 L16.85 1.9 16.85 3.35 16.95 4.05 17.35 4.4 Q17.65 4.4 17.8 4.05 L17.9 3.35 17.9 1.9" fill="#00cd56" fill-rule="evenodd" stroke="none"/>
    <path d="M21.35 0.4 Q22.15 0.4 22.6 1.1 23.0 1.65 23.0 2.6 23.0 3.6 22.6 4.15 22.15 4.8 21.35 4.8 20.6 4.8 20.15 4.15 19.7 3.55 19.7 2.6 19.7 1.7 20.15 1.1 20.6 0.4 21.35 0.4 M21.9 1.9 L21.8 1.2 Q21.65 0.85 21.35 0.85 21.1 0.85 20.95 1.2 L20.85 1.9 20.85 3.35 20.95 4.05 21.35 4.4 21.8 4.05 21.9 3.35 21.9 1.9" fill="#00cd56" fill-rule="evenodd" stroke="none"/>
    <path d="M4.6 11.15 L4.25 11.35 2.8 11.35 2.45 11.15 2.45 8.65 Q2.45 8.45 2.8 8.45 L4.25 8.45 4.6 8.65 4.6 11.15" fill="#838485" fill-rule="evenodd" stroke="none"/>
    <path d="M7.65 11.15 L7.3 11.35 5.8 11.35 5.45 11.15 5.45 8.65 Q5.45 8.45 5.8 8.45 L7.3 8.45 Q7.65 8.45 7.65 8.65 L7.65 11.15" fill="#838485" fill-rule="evenodd" stroke="none"/>
    <path d="M11.0 8.65 L11.0 11.15 10.65 11.35 9.2 11.35 8.85 11.15 8.85 8.65 Q8.85 8.45 9.2 8.45 L10.65 8.45 11.0 8.65" fill="#838485" fill-rule="evenodd" stroke="none"/>
    <path d="M26.65 11.15 L26.3 11.35 24.85 11.35 Q24.5 11.35 24.5 11.15 L24.5 8.65 Q24.5 8.45 24.85 8.45 L26.3 8.45 Q26.65 8.45 26.65 8.65 L26.65 11.15" fill="#838485" fill-rule="evenodd" stroke="none"/>
  </g>
  <defs>
    <linearGradient gradientTransform="matrix(-0.0013, 0.0, 0.0, 0.0013, 4.5, 26.55)" gradientUnits="userSpaceOnUse" id="gradient0" spreadMethod="pad" x1="-819.2" x2="819.2">
      <stop offset="0.03529411764705882" stop-color="#bdbebf"/>
      <stop offset="1.0" stop-color="#f2f3f5"/>
    </linearGradient>
    <linearGradient gradientTransform="matrix(8.0E-4, 0.0, 0.0, -8.0E-4, 8.5, 26.5)" gradientUnits="userSpaceOnUse" id="gradient1" spreadMethod="pad" x1="-819.2" x2="819.2">
      <stop offset="0.03529411764705882" stop-color="#bdbebf"/>
      <stop offset="1.0" stop-color="#f2f3f5"/>
    </linearGradient>
    <linearGradient gradientTransform="matrix(-0.0014, 0.0, 0.0, 0.0014, 20.85, 26.55)" gradientUnits="userSpaceOnUse" id="gradient2" spreadMethod="pad" x1="-819.2" x2="819.2">
      <stop offset="0.03529411764705882" stop-color="#bdbebf"/>
      <stop offset="1.0" stop-color="#f2f3f5"/>
    </linearGradient>
    <linearGradient gradientTransform="matrix(9.0E-4, 0.0, 0.0, -9.0E-4, 25.05, 26.45)" gradientUnits="userSpaceOnUse" id="gradient3" spreadMethod="pad" x1="-819.2" x2="819.2">
      <stop offset="0.03529411764705882" stop-color="#bdbebf"/>
      <stop offset="1.0" stop-color="#f2f3f5"/>
    </linearGradient>
    <linearGradient gradientTransform="matrix(0.0, -0.0038, 0.0082, 1.0E-4, 5.6, 18.95)" gradientUnits="userSpaceOnUse" id="gradient4" spreadMethod="pad" x1="-819.2" x2="819.2">
      <stop offset="0.0" stop-color="#bbbbbb"/>
      <stop offset="1.0" stop-color="#434343"/>
    </linearGradient>
    <linearGradient gradientTransform="matrix(0.0, -0.0038, 0.0082, 1.0E-4, 5.6, 18.95)" gradientUnits="userSpaceOnUse" id="gradient5" spreadMethod="pad" x1="-819.2" x2="819.2">
      <stop offset="0.0" stop-color="#bbbbbb"/>
      <stop offset="1.0" stop-color="#434343"/>
    </linearGradient>
    <linearGradient gradientTransform="matrix(0.0058, -0.0137, 0.0115, 0.0048, 15.6, 5.05)" gradientUnits="userSpaceOnUse" id="gradient6" spreadMethod="pad" x1="-819.2" x2="819.2">
      <stop offset="0.0" stop-color="#8e8e8e"/>
      <stop offset="1.0" stop-color="#666666"/>
    </linearGradient>
  </defs>
</svg>
