<?xml version="1.0" encoding="UTF-8" standalone="no"?>
<svg xmlns:xlink="http://www.w3.org/1999/xlink" height="42.0px" width="30.15px" xmlns="http://www.w3.org/2000/svg">
  <g transform="matrix(1.0, 0.0, 0.0, 1.0, 1.0, 11.0)">
    <path d="M10.75 20.15 L10.65 20.2 10.55 19.95 10.7 19.95 10.8 20.05 10.75 20.15" fill="#81f7e3" fill-rule="evenodd" stroke="none"/>
    <path d="M6.1 -9.9 L22.1 -10.0 Q24.5 -10.05 26.15 -8.55 27.75 -7.05 27.6 -5.0 L27.15 1.85 Q27.3 3.45 26.6 4.2 L26.6 7.5 Q27.9 8.45 27.95 9.7 L28.15 17.25 27.95 18.35 27.95 19.05 Q28.0 20.35 26.55 21.35 L26.55 26.6 27.0 26.6 27.0 26.65 27.05 27.25 27.0 27.25 27.05 30.0 21.5 30.0 21.5 26.65 22.1 26.65 22.1 24.5 6.3 24.5 6.3 26.6 6.85 26.6 6.85 26.65 6.9 27.25 6.85 27.25 6.9 30.0 0.85 30.0 0.85 26.65 1.45 26.65 1.45 21.0 Q0.2 20.05 0.2 18.8 L0.2 18.05 0.0 17.0 0.05 9.4 Q0.05 7.95 1.8 6.9 L2.05 6.75 2.05 4.65 1.95 4.55 Q1.35 4.05 1.1 3.0 L0.95 2.05 0.6 -4.85 Q0.5 -6.9 2.1 -8.35 3.7 -9.9 6.1 -9.9 M22.95 6.15 L22.95 3.9 5.95 3.7 5.7 5.95 5.95 5.95 22.05 6.1 22.95 6.15 M22.1 22.45 L6.3 22.35 6.3 23.6 22.1 23.6 22.1 22.45" fill="#996600" fill-rule="evenodd" stroke="none"/>
    <path d="M6.1 -9.9 Q3.7 -9.9 2.1 -8.35 0.5 -6.9 0.6 -4.85 L0.95 2.05 1.1 3.0 Q1.35 4.05 1.95 4.55 L2.05 4.65 2.05 6.75 1.8 6.9 Q0.05 7.95 0.05 9.4 L0.0 17.0 0.2 18.05 0.2 18.8 Q0.2 20.05 1.45 21.0 L1.45 26.65 0.85 26.65 0.85 30.0 6.9 30.0 6.85 27.25 6.9 27.25 6.85 26.65 6.85 26.6 6.3 26.6 6.3 24.5 22.1 24.5 22.1 26.65 21.5 26.65 21.5 30.0 27.05 30.0 27.0 27.25 27.05 27.25 27.0 26.65 27.0 26.6 26.55 26.6 26.55 21.35 Q28.0 20.35 27.95 19.05 L27.95 18.35 28.15 17.25 27.95 9.7 Q27.9 8.45 26.6 7.5 L26.6 4.2 Q27.3 3.45 27.15 1.85 L27.6 -5.0 Q27.75 -7.05 26.15 -8.55 24.5 -10.05 22.1 -10.0 L6.1 -9.9 M22.95 6.15 L22.95 3.9 5.95 3.7 5.7 5.95 5.95 5.95 22.05 6.1 22.95 6.15 M22.1 22.45 L6.3 22.35 6.3 23.6 22.1 23.6 22.1 22.45" fill="none" stroke="#3a270e" stroke-linecap="round" stroke-linejoin="round" stroke-width="2.0"/>
    <path d="M24.65 23.5 Q24.65 23.95 23.8 23.95 L4.35 23.95 Q3.5 23.95 3.5 23.5 L3.75 23.15 4.35 23.05 23.8 23.05 Q24.65 23.05 24.65 23.5" fill="url(#gradient0)" fill-rule="evenodd" stroke="none"/>
    <path d="M25.9 19.1 Q26.55 19.65 26.55 20.35 L26.55 28.1 Q26.55 28.8 25.9 29.35 25.2 29.9 24.3 29.9 23.4 29.9 22.75 29.35 22.1 28.85 22.1 28.1 L22.1 20.35 Q22.1 19.65 22.75 19.1 23.4 18.6 24.3 18.6 25.2 18.6 25.9 19.1" fill="#743107" fill-rule="evenodd" stroke="none"/>
    <path d="M23.5 20.6 Q23.85 20.25 24.3 20.25 24.8 20.25 25.1 20.6 25.45 21.0 25.45 21.5 L25.45 26.95 Q25.45 27.5 25.1 27.85 24.8 28.2 24.3 28.2 23.8 28.2 23.5 27.85 23.2 27.5 23.2 26.95 L23.2 21.5 Q23.2 21.0 23.5 20.6" fill="url(#gradient1)" fill-rule="evenodd" stroke="none"/>
    <path d="M5.6 19.1 Q6.3 19.65 6.3 20.35 L6.3 28.1 Q6.3 28.85 5.6 29.35 4.9 29.9 3.85 29.9 2.85 29.9 2.2 29.35 1.45 28.85 1.45 28.1 L1.45 20.35 Q1.45 19.65 2.2 19.1 2.85 18.6 3.85 18.6 4.9 18.6 5.6 19.1" fill="#622907" fill-rule="evenodd" stroke="none"/>
    <path d="M3.0 20.6 Q3.4 20.25 3.85 20.25 4.4 20.25 4.7 20.6 5.1 21.0 5.1 21.5 L5.1 26.95 Q5.1 27.5 4.7 27.85 L3.85 28.2 Q3.3 28.2 3.0 27.85 2.65 27.5 2.65 26.95 L2.65 21.5 Q2.65 21.0 3.0 20.6" fill="url(#gradient2)" fill-rule="evenodd" stroke="none"/>
    <path d="M5.65 2.05 L5.65 7.65 Q5.65 8.2 5.15 8.6 L3.85 9.0 Q3.1 9.0 2.55 8.6 2.0 8.2 2.0 7.65 L2.0 2.05 Q2.0 1.45 2.55 1.1 3.1 0.7 3.85 0.7 L5.15 1.1 Q5.65 1.45 5.65 2.05" fill="#661f00" fill-rule="evenodd" stroke="none"/>
    <path d="M4.85 2.8 L4.85 6.75 4.6 7.4 Q4.35 7.7 3.95 7.7 3.55 7.7 3.3 7.4 3.05 7.15 3.05 6.75 L3.05 2.8 Q3.05 2.45 3.3 2.15 L3.95 1.9 Q4.35 1.9 4.6 2.15 L4.85 2.8" fill="#a14900" fill-rule="evenodd" stroke="none"/>
    <path d="M26.55 2.5 L26.55 8.15 Q26.55 8.65 26.05 9.05 25.5 9.45 24.75 9.45 L23.45 9.05 Q22.9 8.65 22.9 8.15 L22.9 2.5 Q22.9 1.95 23.45 1.6 L24.75 1.2 Q25.5 1.2 26.05 1.6 26.55 1.95 26.55 2.5" fill="#661f00" fill-rule="evenodd" stroke="none"/>
    <path d="M25.75 3.1 L25.75 7.05 25.5 7.75 24.85 8.0 24.2 7.75 23.95 7.05 23.95 3.1 24.2 2.45 Q24.5 2.2 24.85 2.2 25.25 2.2 25.5 2.45 L25.75 3.1" fill="#a14900" fill-rule="evenodd" stroke="none"/>
    <path d="M26.45 -2.65 Q14.0 1.45 1.7 -2.55 L1.55 -5.45 Q1.65 -6.7 2.75 -7.75 3.8 -8.75 5.3 -9.0 L22.7 -9.1 Q25.5 -8.75 26.65 -6.25 L26.45 -2.65" fill="#ffd11c" fill-rule="evenodd" stroke="none"/>
    <path d="M1.7 -2.55 L0.75 -2.9 0.6 -5.4 Q0.5 -7.1 2.1 -8.35 3.7 -9.65 6.1 -9.65 L22.1 -9.75 Q24.5 -9.8 26.15 -8.5 27.75 -7.25 27.6 -5.5 L27.4 -3.0 26.45 -2.65 26.65 -6.25 Q25.5 -8.75 22.7 -9.1 L5.3 -9.0 Q3.8 -8.75 2.75 -7.75 1.65 -6.7 1.55 -5.45 L1.7 -2.55" fill="#fff895" fill-rule="evenodd" stroke="none"/>
    <path d="M6.2 3.0 Q2.5 2.65 1.95 1.5 L1.7 -2.55 Q14.0 1.45 26.45 -2.65 L26.15 1.5 Q25.35 2.85 21.7 2.95 L6.2 3.0" fill="#f7b000" fill-rule="evenodd" stroke="none"/>
    <path d="M1.7 -2.55 L1.95 1.5 Q2.5 2.65 6.2 3.0 L4.9 3.0 Q2.7 3.1 1.95 2.55 1.35 2.15 1.1 1.25 L0.95 0.45 0.75 -2.9 1.7 -2.55 M21.7 2.95 Q25.35 2.85 26.15 1.5 L26.45 -2.65 27.4 -3.0 27.15 0.25 Q27.3 1.85 26.35 2.4 L24.8 2.95 21.7 2.95" fill="#e58a00" fill-rule="evenodd" stroke="none"/>
    <path d="M25.55 -5.8 L25.1 -0.95 Q25.2 0.35 24.4 0.85 L23.1 1.25 22.4 1.35 6.35 1.35 Q4.45 1.45 3.8 0.95 3.3 0.6 3.1 -0.15 L2.95 -0.75 2.6 -5.7 Q2.5 -7.2 3.85 -8.3 5.2 -9.4 7.25 -9.4 L20.9 -9.5 Q23.0 -9.5 24.35 -8.4 25.7 -7.35 25.55 -5.8" fill="#1f877a" fill-rule="evenodd" stroke="none"/>
    <path d="M4.25 -1.2 L4.25 -1.45 Q4.3 -2.2 4.9 -3.5 L6.2 -5.25 8.95 -6.65 14.05 -7.4 Q19.6 -7.1 22.5 -5.1 23.1 -4.7 23.55 -3.7 L24.05 -2.05 Q23.65 -0.9 22.75 0.05 L21.85 0.75 Q21.05 1.35 18.95 1.45 L14.05 1.5 9.55 1.35 Q7.5 1.1 6.1 0.25 4.55 -0.75 4.25 -1.2" fill="#38dbc0" fill-rule="evenodd" stroke="none"/>
    <path d="M4.25 -0.95 L3.9 -4.15 Q3.8 -5.5 5.0 -6.45 6.2 -7.45 8.05 -7.5 L15.75 -7.5 14.05 -7.4 8.95 -6.65 6.2 -5.25 4.9 -3.5 Q4.3 -2.2 4.25 -1.45 L4.25 -1.2 4.25 -0.95" fill="#98f7e7" fill-rule="evenodd" stroke="none"/>
    <path d="M4.25 -0.95 L4.25 -1.2 Q4.55 -0.75 6.1 0.25 7.5 1.1 9.55 1.35 L14.05 1.5 18.95 1.45 Q21.05 1.35 21.85 0.75 L22.75 0.05 Q23.65 -0.9 24.05 -2.05 L24.15 -1.7 24.0 0.1 23.95 0.85 23.35 1.7 22.2 2.1 21.6 2.15 7.3 2.15 5.05 1.8 4.55 1.2 4.45 0.9 4.4 0.85 4.25 -0.95" fill="#026d5b" fill-rule="evenodd" stroke="none"/>
    <path d="M14.05 -7.4 L15.75 -7.5 20.3 -7.55 Q22.15 -7.55 23.4 -6.6 24.6 -5.6 24.45 -4.25 L24.15 -1.7 24.05 -2.05 23.55 -3.7 Q23.1 -4.7 22.5 -5.1 19.6 -7.1 14.05 -7.4" fill="#d0faf3" fill-rule="evenodd" stroke="none"/>
    <path d="M0.85 26.9 L6.85 26.9 6.9 30.25 0.85 30.25 0.85 26.9" fill="#989891" fill-rule="evenodd" stroke="none"/>
    <path d="M1.95 26.05 L5.85 26.05 5.9 29.4 1.95 29.4 1.95 26.05" fill="#c9d4e2" fill-rule="evenodd" stroke="none"/>
    <path d="M2.8 26.05 L5.0 26.05 5.05 29.4 2.8 29.4 2.8 26.05" fill="#edf2f8" fill-rule="evenodd" stroke="none"/>
    <path d="M0.85 26.05 L6.85 26.05 6.9 26.7 0.95 26.75 0.85 26.1 0.85 26.05" fill="url(#gradient3)" fill-rule="evenodd" stroke="none"/>
    <path d="M0.85 28.75 L6.9 28.7 6.9 29.35 0.95 29.4 0.95 28.8 0.85 28.75" fill="url(#gradient4)" fill-rule="evenodd" stroke="none"/>
    <path d="M21.5 26.9 L27.0 26.9 27.05 30.25 21.5 30.25 21.5 26.9" fill="#9a9a96" fill-rule="evenodd" stroke="none"/>
    <path d="M22.5 26.05 L26.05 26.05 26.15 29.4 22.5 29.4 22.5 26.05" fill="#c9d4e2" fill-rule="evenodd" stroke="none"/>
    <path d="M23.25 26.05 L25.3 26.05 25.35 29.4 23.25 29.4 23.25 26.05" fill="#edf2f8" fill-rule="evenodd" stroke="none"/>
    <path d="M21.5 26.05 L27.0 26.05 27.05 26.7 21.5 26.75 21.5 26.05" fill="url(#gradient5)" fill-rule="evenodd" stroke="none"/>
    <path d="M21.5 28.75 L27.05 28.7 27.05 29.35 21.55 29.4 21.5 28.8 21.5 28.75" fill="url(#gradient6)" fill-rule="evenodd" stroke="none"/>
    <path d="M27.9 12.1 L28.15 19.15 Q28.2 20.55 26.5 21.5 24.8 22.5 22.35 22.45 L6.0 22.35 Q3.5 22.3 1.8 21.35 0.0 20.3 0.0 18.9 L0.1 11.85 Q0.1 10.45 1.85 9.55 3.55 8.5 6.0 8.55 L22.05 8.75 Q24.4 8.75 26.15 9.8 27.85 10.7 27.9 12.1" fill="#db7118" fill-rule="evenodd" stroke="none"/>
    <path d="M27.55 15.2 L27.6 17.8 Q26.05 20.1 22.75 20.2 L6.55 20.15 Q2.25 20.0 0.55 17.65 L0.5 15.3 Q13.5 7.9 27.55 15.2" fill="#ffcc00" fill-rule="evenodd" stroke="none"/>
    <path d="M0.0 15.6 L0.05 11.15 Q13.3 7.6 28.0 11.15 L28.1 15.5 27.55 15.2 Q13.5 7.9 0.5 15.3 L0.0 15.6" fill="#d78e00" fill-rule="evenodd" stroke="none"/>
    <path d="M0.05 11.15 L0.05 9.95 Q0.05 8.55 1.8 7.6 3.5 6.6 5.95 6.65 L22.05 6.85 Q24.45 6.85 26.2 7.85 27.9 8.85 27.95 10.25 L28.0 11.15 Q13.3 7.6 0.05 11.15" fill="#bb4700" fill-rule="evenodd" stroke="none"/>
    <path d="M28.1 15.5 L28.15 17.4 Q28.2 18.8 26.5 19.8 24.8 20.8 22.35 20.75 L6.0 20.7 Q3.5 20.65 1.75 19.65 0.0 18.6 0.0 17.15 L0.0 15.6 0.5 15.3 0.55 17.65 Q2.25 20.0 6.55 20.15 L22.75 20.2 Q26.05 20.1 27.6 17.8 L27.55 15.2 28.1 15.5" fill="#f6ffa6" fill-rule="evenodd" stroke="none"/>
    <path d="M25.1 18.85 Q23.65 19.75 21.45 19.75 L6.9 19.65 Q4.7 19.65 3.15 18.75 1.6 17.8 1.65 16.55 L1.85 10.2 Q1.9 9.05 3.4 8.2 4.9 7.35 7.0 7.35 L20.95 7.45 Q23.0 7.5 24.55 8.35 26.1 9.25 26.15 10.45 L26.5 16.7 Q26.6 17.95 25.1 18.85" fill="url(#gradient7)" fill-rule="evenodd" stroke="none"/>
    <path d="M23.9 15.8 Q22.9 16.75 21.2 17.3 14.9 17.9 8.45 17.2 6.05 16.6 4.55 15.75 L4.9 12.25 Q5.2 10.8 7.45 9.6 9.65 8.35 13.75 8.3 17.85 8.25 20.1 9.25 22.3 10.2 23.25 11.35 24.15 12.45 23.9 15.8" fill="#3acdb4" fill-rule="evenodd" stroke="none"/>
    <path d="M25.8 12.1 L26.0 15.4 Q26.1 16.55 24.7 17.4 23.25 18.25 21.15 18.2 L7.1 18.1 Q4.95 18.05 3.5 17.2 2.1 16.35 2.15 15.2 L2.4 11.15 Q2.35 13.75 4.55 15.75 6.05 16.6 8.45 17.2 14.9 17.9 21.2 17.3 22.9 16.75 23.9 15.8 25.2 14.15 25.8 12.1" fill="#98fceb" fill-rule="evenodd" stroke="none"/>
    <path d="M2.4 11.15 L2.5 9.35 Q2.6 8.3 4.05 7.55 5.5 6.8 7.5 6.85 L20.6 6.95 Q22.55 7.0 24.0 7.75 25.5 8.55 25.55 9.65 L25.8 12.1 Q25.2 14.15 23.9 15.8 24.15 12.45 23.25 11.35 22.3 10.2 20.1 9.25 17.85 8.25 13.75 8.3 9.65 8.35 7.45 9.6 5.2 10.8 4.9 12.25 L4.55 15.75 Q2.35 13.75 2.4 11.15" fill="#0c7967" fill-rule="evenodd" stroke="none"/>
  </g>
  <defs>
    <linearGradient gradientTransform="matrix(0.0, 4.0E-4, 5.0E-4, 0.0, 14.1, 23.55)" gradientUnits="userSpaceOnUse" id="gradient0" spreadMethod="pad" x1="-819.2" x2="819.2">
      <stop offset="0.00392156862745098" stop-color="#dfbd32"/>
      <stop offset="1.0" stop-color="#9e5324"/>
    </linearGradient>
    <linearGradient gradientTransform="matrix(0.0, -0.0042, -0.0058, 0.0, 24.3, 26.05)" gradientUnits="userSpaceOnUse" id="gradient1" spreadMethod="pad" x1="-819.2" x2="819.2">
      <stop offset="0.00392156862745098" stop-color="#dfbd32"/>
      <stop offset="1.0" stop-color="#6b2b02"/>
    </linearGradient>
    <linearGradient gradientTransform="matrix(2.0E-4, -0.0042, -0.0063, -1.0E-4, 3.85, 25.6)" gradientUnits="userSpaceOnUse" id="gradient2" spreadMethod="pad" x1="-819.2" x2="819.2">
      <stop offset="0.00392156862745098" stop-color="#dfbd32"/>
      <stop offset="1.0" stop-color="#77340a"/>
    </linearGradient>
    <linearGradient gradientTransform="matrix(0.0037, 0.0, 0.0, -0.0025, 3.85, 26.4)" gradientUnits="userSpaceOnUse" id="gradient3" spreadMethod="pad" x1="-819.2" x2="819.2">
      <stop offset="0.0" stop-color="#ced9e5"/>
      <stop offset="0.4588235294117647" stop-color="#eff3f9"/>
      <stop offset="1.0" stop-color="#94a2a7"/>
    </linearGradient>
    <linearGradient gradientTransform="matrix(0.0037, 0.0, 0.0, -0.0025, 3.9, 29.05)" gradientUnits="userSpaceOnUse" id="gradient4" spreadMethod="pad" x1="-819.2" x2="819.2">
      <stop offset="0.0" stop-color="#ced9e5"/>
      <stop offset="0.4588235294117647" stop-color="#eff3f9"/>
      <stop offset="1.0" stop-color="#94a2a7"/>
    </linearGradient>
    <linearGradient gradientTransform="matrix(0.0034, 0.0, 0.0, -0.0025, 24.25, 26.4)" gradientUnits="userSpaceOnUse" id="gradient5" spreadMethod="pad" x1="-819.2" x2="819.2">
      <stop offset="0.0" stop-color="#ced9e5"/>
      <stop offset="0.4588235294117647" stop-color="#eff3f9"/>
      <stop offset="1.0" stop-color="#94a2a7"/>
    </linearGradient>
    <linearGradient gradientTransform="matrix(0.0034, 0.0, 0.0, -0.0025, 24.3, 29.05)" gradientUnits="userSpaceOnUse" id="gradient6" spreadMethod="pad" x1="-819.2" x2="819.2">
      <stop offset="0.0" stop-color="#ced9e5"/>
      <stop offset="0.4588235294117647" stop-color="#eff3f9"/>
      <stop offset="1.0" stop-color="#94a2a7"/>
    </linearGradient>
    <linearGradient gradientTransform="matrix(-1.0E-4, 0.008, 0.0094, 1.0E-4, 14.15, 13.25)" gradientUnits="userSpaceOnUse" id="gradient7" spreadMethod="pad" x1="-819.2" x2="819.2">
      <stop offset="0.0" stop-color="#013f34"/>
      <stop offset="1.0" stop-color="#177b63"/>
    </linearGradient>
  </defs>
</svg>
