<?xml version="1.0" encoding="UTF-8" standalone="no"?>
<svg xmlns:xlink="http://www.w3.org/1999/xlink" height="49.15px" width="50.5px" xmlns="http://www.w3.org/2000/svg">
  <g transform="matrix(1.0, 0.0, 0.0, 1.0, 3.5, 3.45)">
    <path d="M42.7 27.05 L32.55 25.7 Q31.3 28.65 28.9 30.45 L32.75 39.85 27.05 42.2 23.2 32.8 Q20.2 33.2 17.25 31.95 L11.05 40.0 6.15 36.25 12.35 28.2 Q11.5 26.95 10.9 25.5 10.3 24.05 10.1 22.65 L0.0 21.3 0.85 15.15 10.9 16.5 Q12.15 13.55 14.6 11.75 L10.75 2.4 16.45 0.05 20.3 9.4 Q23.25 9.0 26.2 10.25 L32.5 2.2 37.35 5.95 31.15 14.0 32.65 16.6 Q33.25 18.1 33.45 19.55 L43.5 20.9 42.7 27.05" fill="#02e3e3" fill-rule="evenodd" stroke="none"/>
    <path d="M42.7 27.05 L32.55 25.7 Q31.3 28.65 28.9 30.45 L32.75 39.85 27.05 42.2 23.2 32.8 Q20.2 33.2 17.25 31.95 L11.05 40.0 6.15 36.25 12.35 28.2 Q11.5 26.95 10.9 25.5 10.3 24.05 10.1 22.65 L0.0 21.3 0.85 15.15 10.9 16.5 Q12.15 13.55 14.6 11.75 L10.75 2.4 16.45 0.05 20.3 9.4 Q23.25 9.0 26.2 10.25 L32.5 2.2 37.35 5.95 31.15 14.0 32.65 16.6 Q33.25 18.1 33.45 19.55 L43.5 20.9 42.7 27.05 Z" fill="none" stroke="#e6f8ff" stroke-linecap="round" stroke-linejoin="round" stroke-width="7.0"/>
    <path d="M42.65 27.0 L32.55 25.65 Q31.25 28.65 28.9 30.45 L32.75 39.85 27.0 42.15 23.15 32.75 Q20.2 33.15 17.2 31.95 L11.0 40.0 6.1 36.2 12.35 28.15 10.85 25.5 Q10.25 24.05 10.05 22.6 L0.0 21.25 0.8 15.15 10.9 16.5 Q12.2 13.5 14.55 11.7 L10.7 2.35 16.45 0.05 20.3 9.4 Q23.2 9.0 26.25 10.2 L32.45 2.15 37.35 5.95 31.15 14.0 32.6 16.6 33.45 19.55 43.45 20.9 42.65 27.0" fill="#02e3e3" fill-rule="evenodd" stroke="none"/>
    <path d="M42.65 27.0 L32.55 25.65 Q31.25 28.65 28.9 30.45 L32.75 39.85 27.0 42.15 23.15 32.75 Q20.2 33.15 17.2 31.95 L11.0 40.0 6.1 36.2 12.35 28.15 10.85 25.5 Q10.25 24.05 10.05 22.6 L0.0 21.25 0.8 15.15 10.9 16.5 Q12.2 13.5 14.55 11.7 L10.7 2.35 16.45 0.05 20.3 9.4 Q23.2 9.0 26.25 10.2 L32.45 2.15 37.35 5.95 31.15 14.0 32.6 16.6 33.45 19.55 43.45 20.9 42.65 27.0 Z" fill="none" stroke="#a02e12" stroke-linecap="round" stroke-linejoin="round" stroke-width="3.0"/>
    <path d="M32.65 16.65 Q34.5 21.15 32.65 25.65 30.75 30.15 26.25 32.0 21.75 33.85 17.25 31.95 12.8 30.05 10.95 25.55 9.1 21.05 10.95 16.55 12.85 12.1 17.35 10.25 21.85 8.4 26.35 10.25 30.8 12.15 32.65 16.65" fill="#ffbb77" fill-rule="evenodd" stroke="none"/>
    <path d="M16.5 0.0 L32.8 39.8 27.05 42.15 10.75 2.35 16.5 0.0" fill="#ffbb77" fill-rule="evenodd" stroke="none"/>
    <path d="M37.3 6.0 L11.0 40.05 6.1 36.25 32.4 2.2 37.3 6.0" fill="#ffbb77" fill-rule="evenodd" stroke="none"/>
    <path d="M0.85 15.15 L43.5 20.95 42.65 27.1 0.0 21.3 0.85 15.15" fill="#ffbb77" fill-rule="evenodd" stroke="none"/>
    <path d="M28.7 18.25 Q29.9 21.15 28.65 24.05 27.5 26.95 24.6 28.15 21.7 29.3 18.8 28.1 16.0 26.9 14.8 24.0 13.6 21.15 14.75 18.25 16.0 15.35 18.9 14.2 21.8 13.0 24.6 14.2 27.5 15.4 28.7 18.25" fill="#bb5b44" fill-rule="evenodd" stroke="none"/>
  </g>
</svg>
