<?xml version="1.0" encoding="UTF-8" standalone="no"?>
<svg xmlns:xlink="http://www.w3.org/1999/xlink" height="362.25px" width="590.4px" xmlns="http://www.w3.org/2000/svg">
  <g transform="matrix(1.0, 0.0, 0.0, 1.0, 2.35, 1.35)">
    <path d="M507.9 0.0 L580.6 0.0 Q586.7 0.0 586.7 8.8 L586.7 46.15 579.85 46.15 579.85 15.2 Q579.85 7.3 574.05 7.3 L507.9 7.3 507.9 0.0" fill="url(#gradient0)" fill-rule="evenodd" stroke="none"/>
    <path d="M579.85 46.15 L586.7 46.15 586.7 310.2 579.85 310.2 579.85 46.15" fill="url(#gradient1)" fill-rule="evenodd" stroke="none"/>
    <path d="M507.9 0.0 L507.9 7.3 40.95 7.3 40.95 0.0 507.9 0.0" fill="url(#gradient2)" fill-rule="evenodd" stroke="none"/>
    <path d="M0.0 29.15 L0.0 8.8 Q0.0 0.0 6.05 0.0 L40.95 0.0 40.95 7.3 12.55 7.3 Q6.9 7.3 6.9 15.2 L6.9 29.15 0.0 29.15" fill="url(#gradient3)" fill-rule="evenodd" stroke="none"/>
    <path d="M0.0 304.15 L0.0 29.15 6.9 29.15 6.9 304.15 0.0 304.15" fill="url(#gradient4)" fill-rule="evenodd" stroke="none"/>
    <path d="M49.95 360.7 L6.05 360.7 Q0.0 360.7 0.0 352.0 L0.0 304.15 6.9 304.15 6.9 345.7 Q6.9 353.5 12.55 353.5 L49.95 353.5 49.95 360.7" fill="url(#gradient5)" fill-rule="evenodd" stroke="none"/>
    <path d="M519.9 360.7 L49.95 360.7 49.95 353.5 519.9 353.5 519.9 360.7" fill="url(#gradient6)" fill-rule="evenodd" stroke="none"/>
    <path d="M586.7 310.2 L586.7 352.0 Q586.7 360.7 580.6 360.7 L519.9 360.7 519.9 353.5 574.05 353.5 Q579.85 353.5 579.85 345.7 L579.85 310.2 586.7 310.2" fill="url(#gradient7)" fill-rule="evenodd" stroke="none"/>
    <path d="M58.55 -0.85 L59.7 -1.1 Q60.9 -1.1 61.75 -0.3 62.6 0.65 62.6 1.9 62.6 3.15 61.75 4.0 60.9 4.9 59.7 4.9 58.5 4.9 57.6 4.0 56.75 3.15 56.75 1.9 56.75 0.95 57.25 0.2 L57.6 -0.3 58.55 -0.85" fill="#ffe979" fill-rule="evenodd" stroke="none"/>
    <path d="M57.25 0.2 Q56.75 0.95 56.75 1.9 56.75 3.15 57.6 4.0 58.5 4.9 59.7 4.9 60.9 4.9 61.75 4.0 62.6 3.15 62.6 1.9 62.6 0.65 61.75 -0.3 60.9 -1.1 59.7 -1.1 L58.55 -0.85 60.5 -1.35 Q62.3 -1.35 63.5 -0.1 64.75 1.15 64.75 2.95 64.75 4.8 63.5 6.05 62.3 7.3 60.5 7.3 58.7 7.3 57.5 6.05 56.3 4.8 56.3 2.95 56.3 1.4 57.25 0.2" fill="#8c5103" fill-rule="evenodd" stroke="none"/>
    <path d="M95.85 -0.85 Q96.75 -1.35 97.8 -1.35 99.6 -1.35 100.8 -0.1 102.05 1.15 102.05 2.95 102.05 4.8 100.8 6.05 99.6 7.3 97.8 7.3 96.0 7.3 94.8 6.05 93.6 4.8 93.6 2.95 93.6 1.4 94.55 0.2 94.05 0.95 94.05 1.9 94.05 3.15 94.9 4.0 95.8 4.9 97.0 4.9 98.2 4.9 99.05 4.0 99.9 3.15 99.9 1.9 99.9 0.65 99.05 -0.3 98.2 -1.1 97.0 -1.1 L95.85 -0.85" fill="#8c5103" fill-rule="evenodd" stroke="none"/>
    <path d="M94.55 0.2 L94.9 -0.3 Q95.3 -0.7 95.85 -0.85 L97.0 -1.1 Q98.2 -1.1 99.05 -0.3 99.9 0.65 99.9 1.9 99.9 3.15 99.05 4.0 98.2 4.9 97.0 4.9 95.8 4.9 94.9 4.0 94.05 3.15 94.05 1.9 94.05 0.95 94.55 0.2" fill="#ffe979" fill-rule="evenodd" stroke="none"/>
    <path d="M133.15 -0.85 Q134.05 -1.35 135.1 -1.35 136.9 -1.35 138.1 -0.1 139.35 1.15 139.35 2.95 139.35 4.8 138.1 6.05 136.9 7.3 135.1 7.3 133.3 7.3 132.1 6.05 130.9 4.8 130.9 2.95 130.9 1.4 131.85 0.2 131.35 0.95 131.35 1.9 131.35 3.15 132.2 4.0 133.1 4.9 134.3 4.9 135.5 4.9 136.35 4.0 137.2 3.15 137.2 1.9 137.2 0.65 136.35 -0.3 135.5 -1.1 134.3 -1.1 L133.15 -0.85" fill="#8c5103" fill-rule="evenodd" stroke="none"/>
    <path d="M131.85 0.2 L132.2 -0.3 133.15 -0.85 134.3 -1.1 Q135.5 -1.1 136.35 -0.3 137.2 0.65 137.2 1.9 137.2 3.15 136.35 4.0 135.5 4.9 134.3 4.9 133.1 4.9 132.2 4.0 131.35 3.15 131.35 1.9 131.35 0.95 131.85 0.2" fill="#ffe979" fill-rule="evenodd" stroke="none"/>
    <path d="M170.45 -0.85 L171.6 -1.1 Q172.8 -1.1 173.65 -0.3 174.5 0.65 174.5 1.9 174.5 3.15 173.65 4.0 172.8 4.9 171.6 4.9 170.4 4.9 169.5 4.0 168.65 3.15 168.65 1.9 168.65 0.95 169.15 0.2 L169.5 -0.3 Q169.9 -0.7 170.45 -0.85" fill="#ffe979" fill-rule="evenodd" stroke="none"/>
    <path d="M169.15 0.2 Q168.65 0.95 168.65 1.9 168.65 3.15 169.5 4.0 170.4 4.9 171.6 4.9 172.8 4.9 173.65 4.0 174.5 3.15 174.5 1.9 174.5 0.65 173.65 -0.3 172.8 -1.1 171.6 -1.1 L170.45 -0.85 172.4 -1.35 Q174.2 -1.35 175.4 -0.1 176.65 1.15 176.65 2.95 176.65 4.8 175.4 6.05 174.2 7.3 172.4 7.3 170.6 7.3 169.4 6.05 168.2 4.8 168.2 2.95 168.2 1.4 169.15 0.2" fill="#8c5103" fill-rule="evenodd" stroke="none"/>
    <path d="M21.25 -0.85 Q22.15 -1.35 23.2 -1.35 25.0 -1.35 26.2 -0.1 27.45 1.15 27.45 2.95 27.45 4.8 26.2 6.05 25.0 7.3 23.2 7.3 21.4 7.3 20.2 6.05 19.0 4.8 19.0 2.95 19.0 1.4 19.95 0.2 19.45 0.95 19.45 1.9 19.45 3.15 20.3 4.0 21.2 4.9 22.4 4.9 23.6 4.9 24.45 4.0 25.3 3.15 25.3 1.9 25.3 0.65 24.45 -0.3 23.6 -1.1 22.4 -1.1 L21.25 -0.85" fill="#8c5103" fill-rule="evenodd" stroke="none"/>
    <path d="M19.95 0.2 L20.3 -0.3 Q20.7 -0.7 21.25 -0.85 L22.4 -1.1 Q23.6 -1.1 24.45 -0.3 25.3 0.65 25.3 1.9 25.3 3.15 24.45 4.0 23.6 4.9 22.4 4.9 21.2 4.9 20.3 4.0 19.45 3.15 19.45 1.9 19.45 0.95 19.95 0.2" fill="#ffe979" fill-rule="evenodd" stroke="none"/>
    <path d="M281.05 0.2 L281.4 -0.3 282.35 -0.85 283.5 -1.1 Q284.7 -1.1 285.55 -0.3 286.4 0.65 286.4 1.9 286.4 3.15 285.55 4.0 284.7 4.9 283.5 4.9 282.3 4.9 281.4 4.0 280.55 3.15 280.55 1.9 280.55 0.95 281.05 0.2" fill="#ffe979" fill-rule="evenodd" stroke="none"/>
    <path d="M282.35 -0.85 L284.3 -1.35 Q286.1 -1.35 287.3 -0.1 288.55 1.15 288.55 2.95 288.55 4.8 287.3 6.05 286.1 7.3 284.3 7.3 282.5 7.3 281.3 6.05 280.1 4.8 280.1 2.95 280.1 1.4 281.05 0.2 280.55 0.95 280.55 1.9 280.55 3.15 281.4 4.0 282.3 4.9 283.5 4.9 284.7 4.9 285.55 4.0 286.4 3.15 286.4 1.9 286.4 0.65 285.55 -0.3 284.7 -1.1 283.5 -1.1 L282.35 -0.85" fill="#8c5103" fill-rule="evenodd" stroke="none"/>
    <path d="M319.65 -0.85 L320.8 -1.1 Q322.0 -1.1 322.85 -0.3 323.7 0.65 323.7 1.9 323.7 3.15 322.85 4.0 322.0 4.9 320.8 4.9 319.6 4.9 318.7 4.0 317.85 3.15 317.85 1.9 317.85 0.95 318.35 0.2 L318.7 -0.3 319.65 -0.85" fill="#ffe979" fill-rule="evenodd" stroke="none"/>
    <path d="M318.35 0.2 Q317.85 0.95 317.85 1.9 317.85 3.15 318.7 4.0 319.6 4.9 320.8 4.9 322.0 4.9 322.85 4.0 323.7 3.15 323.7 1.9 323.7 0.65 322.85 -0.3 322.0 -1.1 320.8 -1.1 L319.65 -0.85 Q320.55 -1.35 321.6 -1.35 323.4 -1.35 324.6 -0.1 325.85 1.15 325.85 2.95 325.85 4.8 324.6 6.05 323.4 7.3 321.6 7.3 319.8 7.3 318.6 6.05 317.4 4.8 317.4 2.95 317.4 1.4 318.35 0.2" fill="#8c5103" fill-rule="evenodd" stroke="none"/>
    <path d="M207.75 -0.85 L208.9 -1.1 Q210.1 -1.1 210.95 -0.3 211.8 0.65 211.8 1.9 211.8 3.15 210.95 4.0 210.1 4.9 208.9 4.9 207.7 4.9 206.8 4.0 205.95 3.15 205.95 1.9 205.95 0.95 206.45 0.2 L206.8 -0.3 Q207.2 -0.7 207.75 -0.85" fill="#ffe979" fill-rule="evenodd" stroke="none"/>
    <path d="M206.45 0.2 Q205.95 0.95 205.95 1.9 205.95 3.15 206.8 4.0 207.7 4.9 208.9 4.9 210.1 4.9 210.95 4.0 211.8 3.15 211.8 1.9 211.8 0.65 210.95 -0.3 210.1 -1.1 208.9 -1.1 L207.75 -0.85 Q208.65 -1.35 209.7 -1.35 211.5 -1.35 212.7 -0.1 213.95 1.15 213.95 2.95 213.95 4.8 212.7 6.05 211.5 7.3 209.7 7.3 207.9 7.3 206.7 6.05 205.5 4.8 205.5 2.95 205.5 1.4 206.45 0.2" fill="#8c5103" fill-rule="evenodd" stroke="none"/>
    <path d="M245.05 -0.85 L246.2 -1.1 Q247.4 -1.1 248.25 -0.3 249.1 0.65 249.1 1.9 249.1 3.15 248.25 4.0 247.4 4.9 246.2 4.9 245.0 4.9 244.1 4.0 243.25 3.15 243.25 1.9 243.25 0.95 243.75 0.2 L244.1 -0.3 245.05 -0.85" fill="#ffe979" fill-rule="evenodd" stroke="none"/>
    <path d="M243.75 0.2 Q243.25 0.95 243.25 1.9 243.25 3.15 244.1 4.0 245.0 4.9 246.2 4.9 247.4 4.9 248.25 4.0 249.1 3.15 249.1 1.9 249.1 0.65 248.25 -0.3 247.4 -1.1 246.2 -1.1 L245.05 -0.85 Q245.95 -1.35 247.0 -1.35 248.8 -1.35 250.0 -0.1 251.25 1.15 251.25 2.95 251.25 4.8 250.0 6.05 248.8 7.3 247.0 7.3 245.2 7.3 244.0 6.05 242.8 4.8 242.8 2.95 242.8 1.4 243.75 0.2" fill="#8c5103" fill-rule="evenodd" stroke="none"/>
    <path d="M356.95 -0.85 Q357.85 -1.35 358.9 -1.35 360.7 -1.35 361.9 -0.1 363.15 1.15 363.15 2.95 363.15 4.8 361.9 6.05 360.7 7.3 358.9 7.3 357.1 7.3 355.9 6.05 354.7 4.8 354.7 2.95 354.7 1.4 355.65 0.2 355.15 0.95 355.15 1.9 355.15 3.15 356.0 4.0 356.9 4.9 358.1 4.9 359.3 4.9 360.15 4.0 361.0 3.15 361.0 1.9 361.0 0.65 360.15 -0.3 359.3 -1.1 358.1 -1.1 L356.95 -0.85" fill="#8c5103" fill-rule="evenodd" stroke="none"/>
    <path d="M355.65 0.2 L356.0 -0.3 Q356.4 -0.7 356.95 -0.85 L358.1 -1.1 Q359.3 -1.1 360.15 -0.3 361.0 0.65 361.0 1.9 361.0 3.15 360.15 4.0 359.3 4.9 358.1 4.9 356.9 4.9 356.0 4.0 355.15 3.15 355.15 1.9 355.15 0.95 355.65 0.2" fill="#ffe979" fill-rule="evenodd" stroke="none"/>
    <path d="M431.55 -0.85 L432.7 -1.1 Q433.9 -1.1 434.75 -0.3 435.6 0.65 435.6 1.9 435.6 3.15 434.75 4.0 433.9 4.9 432.7 4.9 431.5 4.9 430.6 4.0 429.75 3.15 429.75 1.9 429.75 0.95 430.25 0.2 L430.6 -0.3 Q431.0 -0.7 431.55 -0.85" fill="#ffe979" fill-rule="evenodd" stroke="none"/>
    <path d="M430.25 0.2 Q429.75 0.95 429.75 1.9 429.75 3.15 430.6 4.0 431.5 4.9 432.7 4.9 433.9 4.9 434.75 4.0 435.6 3.15 435.6 1.9 435.6 0.65 434.75 -0.3 433.9 -1.1 432.7 -1.1 L431.55 -0.85 Q432.45 -1.35 433.5 -1.35 435.3 -1.35 436.5 -0.1 437.75 1.15 437.75 2.95 437.75 4.8 436.5 6.05 435.3 7.3 433.5 7.3 431.7 7.3 430.5 6.05 429.3 4.8 429.3 2.95 429.3 1.4 430.25 0.2" fill="#8c5103" fill-rule="evenodd" stroke="none"/>
    <path d="M468.85 -0.85 L470.8 -1.35 Q472.6 -1.35 473.8 -0.1 475.05 1.15 475.05 2.95 475.05 4.8 473.8 6.05 472.6 7.3 470.8 7.3 469.0 7.3 467.8 6.05 466.6 4.8 466.6 2.95 466.6 1.4 467.55 0.2 467.05 0.95 467.05 1.9 467.05 3.15 467.9 4.0 468.8 4.9 470.0 4.9 471.2 4.9 472.05 4.0 472.9 3.15 472.9 1.9 472.9 0.65 472.05 -0.3 471.2 -1.1 470.0 -1.1 L468.85 -0.85" fill="#8c5103" fill-rule="evenodd" stroke="none"/>
    <path d="M467.55 0.2 L467.9 -0.3 468.85 -0.85 470.0 -1.1 Q471.2 -1.1 472.05 -0.3 472.9 0.65 472.9 1.9 472.9 3.15 472.05 4.0 471.2 4.9 470.0 4.9 468.8 4.9 467.9 4.0 467.05 3.15 467.05 1.9 467.05 0.95 467.55 0.2" fill="#ffe979" fill-rule="evenodd" stroke="none"/>
    <path d="M542.35 -0.8 L543.5 -1.05 Q544.7 -1.05 545.55 -0.25 546.4 0.7 546.4 1.95 546.4 3.2 545.55 4.05 544.7 4.95 543.5 4.95 542.3 4.95 541.4 4.05 540.55 3.2 540.55 1.95 540.55 1.0 541.05 0.25 L541.4 -0.25 Q541.8 -0.65 542.35 -0.8" fill="#ffe979" fill-rule="evenodd" stroke="none"/>
    <path d="M541.05 0.25 Q540.55 1.0 540.55 1.95 540.55 3.2 541.4 4.05 542.3 4.95 543.5 4.95 544.7 4.95 545.55 4.05 546.4 3.2 546.4 1.95 546.4 0.7 545.55 -0.25 544.7 -1.05 543.5 -1.05 L542.35 -0.8 544.3 -1.3 Q546.1 -1.3 547.3 -0.05 548.55 1.2 548.55 3.0 548.55 4.85 547.3 6.1 546.1 7.35 544.3 7.35 542.5 7.35 541.3 6.1 540.1 4.85 540.1 3.0 540.1 1.45 541.05 0.25" fill="#8c5103" fill-rule="evenodd" stroke="none"/>
    <path d="M394.25 -0.85 Q395.15 -1.35 396.2 -1.35 398.0 -1.35 399.2 -0.1 400.45 1.15 400.45 2.95 400.45 4.8 399.2 6.05 398.0 7.3 396.2 7.3 394.4 7.3 393.2 6.05 392.0 4.8 392.0 2.95 392.0 1.4 392.95 0.2 392.45 0.95 392.45 1.9 392.45 3.15 393.3 4.0 394.2 4.9 395.4 4.9 396.6 4.9 397.45 4.0 398.3 3.15 398.3 1.9 398.3 0.65 397.45 -0.3 396.6 -1.1 395.4 -1.1 L394.25 -0.85" fill="#8c5103" fill-rule="evenodd" stroke="none"/>
    <path d="M392.95 0.2 L393.3 -0.3 394.25 -0.85 395.4 -1.1 Q396.6 -1.1 397.45 -0.3 398.3 0.65 398.3 1.9 398.3 3.15 397.45 4.0 396.6 4.9 395.4 4.9 394.2 4.9 393.3 4.0 392.45 3.15 392.45 1.9 392.45 0.95 392.95 0.2" fill="#ffe979" fill-rule="evenodd" stroke="none"/>
    <path d="M506.15 -0.85 L507.3 -1.1 Q508.5 -1.1 509.35 -0.3 510.2 0.65 510.2 1.9 510.2 3.15 509.35 4.0 508.5 4.9 507.3 4.9 506.1 4.9 505.2 4.0 504.35 3.15 504.35 1.9 504.35 0.95 504.85 0.2 L505.2 -0.3 Q505.6 -0.7 506.15 -0.85" fill="#ffe979" fill-rule="evenodd" stroke="none"/>
    <path d="M504.85 0.2 Q504.35 0.95 504.35 1.9 504.35 3.15 505.2 4.0 506.1 4.9 507.3 4.9 508.5 4.9 509.35 4.0 510.2 3.15 510.2 1.9 510.2 0.65 509.35 -0.3 508.5 -1.1 507.3 -1.1 L506.15 -0.85 Q507.05 -1.35 508.1 -1.35 509.9 -1.35 511.1 -0.1 512.35 1.15 512.35 2.95 512.35 4.8 511.1 6.05 509.9 7.3 508.1 7.3 506.3 7.3 505.1 6.05 503.9 4.8 503.9 2.95 503.9 1.4 504.85 0.2" fill="#8c5103" fill-rule="evenodd" stroke="none"/>
    <path d="M57.25 353.75 Q56.75 354.5 56.75 355.45 56.75 356.7 57.6 357.55 58.5 358.45 59.7 358.45 60.9 358.45 61.75 357.55 62.6 356.7 62.6 355.45 62.6 354.2 61.75 353.25 60.9 352.45 59.7 352.45 59.05 352.45 58.55 352.7 59.45 352.2 60.5 352.2 62.3 352.2 63.5 353.45 64.75 354.7 64.75 356.5 64.75 358.35 63.5 359.6 62.3 360.85 60.5 360.85 58.7 360.85 57.5 359.6 56.3 358.35 56.3 356.5 56.3 354.95 57.25 353.75" fill="#8c5103" fill-rule="evenodd" stroke="none"/>
    <path d="M58.55 352.7 Q59.05 352.45 59.7 352.45 60.9 352.45 61.75 353.25 62.6 354.2 62.6 355.45 62.6 356.7 61.75 357.55 60.9 358.45 59.7 358.45 58.5 358.45 57.6 357.55 56.75 356.7 56.75 355.45 56.75 354.5 57.25 353.75 L57.6 353.25 58.55 352.7" fill="#ffe979" fill-rule="evenodd" stroke="none"/>
    <path d="M94.55 353.75 Q94.05 354.5 94.05 355.45 94.05 356.7 94.9 357.55 95.8 358.45 97.0 358.45 98.2 358.45 99.05 357.55 99.9 356.7 99.9 355.45 99.9 354.2 99.05 353.25 98.2 352.45 97.0 352.45 L95.85 352.7 Q96.75 352.2 97.8 352.2 99.6 352.2 100.8 353.45 102.05 354.7 102.05 356.5 102.05 358.35 100.8 359.6 99.6 360.85 97.8 360.85 96.0 360.85 94.8 359.6 93.6 358.35 93.6 356.5 93.6 354.95 94.55 353.75" fill="#8c5103" fill-rule="evenodd" stroke="none"/>
    <path d="M95.85 352.7 L97.0 352.45 Q98.2 352.45 99.05 353.25 99.9 354.2 99.9 355.45 99.9 356.7 99.05 357.55 98.2 358.45 97.0 358.45 95.8 358.45 94.9 357.55 94.05 356.7 94.05 355.45 94.05 354.5 94.55 353.75 L94.9 353.25 Q95.3 352.85 95.85 352.7" fill="#ffe979" fill-rule="evenodd" stroke="none"/>
    <path d="M131.85 353.75 Q131.35 354.5 131.35 355.45 131.35 356.7 132.2 357.55 133.1 358.45 134.3 358.45 135.5 358.45 136.35 357.55 137.2 356.7 137.2 355.45 137.2 354.2 136.35 353.25 135.5 352.45 134.3 352.45 L133.15 352.7 Q134.05 352.2 135.1 352.2 136.9 352.2 138.1 353.45 139.35 354.7 139.35 356.5 139.35 358.35 138.1 359.6 136.9 360.85 135.1 360.85 133.3 360.85 132.1 359.6 130.9 358.35 130.9 356.5 130.9 354.95 131.85 353.75" fill="#8c5103" fill-rule="evenodd" stroke="none"/>
    <path d="M133.15 352.7 L134.3 352.45 Q135.5 352.45 136.35 353.25 137.2 354.2 137.2 355.45 137.2 356.7 136.35 357.55 135.5 358.45 134.3 358.45 133.1 358.45 132.2 357.55 131.35 356.7 131.35 355.45 131.35 354.5 131.85 353.75 L132.2 353.25 133.15 352.7" fill="#ffe979" fill-rule="evenodd" stroke="none"/>
    <path d="M170.45 352.7 Q171.35 352.2 172.4 352.2 174.2 352.2 175.4 353.45 176.65 354.7 176.65 356.5 176.65 358.35 175.4 359.6 174.2 360.85 172.4 360.85 170.6 360.85 169.4 359.6 168.2 358.35 168.2 356.5 168.2 354.95 169.15 353.75 168.65 354.5 168.65 355.45 168.65 356.7 169.5 357.55 170.4 358.45 171.6 358.45 172.8 358.45 173.65 357.55 174.5 356.7 174.5 355.45 174.5 354.2 173.65 353.25 172.8 352.45 171.6 352.45 L170.45 352.7" fill="#8c5103" fill-rule="evenodd" stroke="none"/>
    <path d="M169.15 353.75 L169.5 353.25 Q169.9 352.85 170.45 352.7 L171.6 352.45 Q172.8 352.45 173.65 353.25 174.5 354.2 174.5 355.45 174.5 356.7 173.65 357.55 172.8 358.45 171.6 358.45 170.4 358.45 169.5 357.55 168.65 356.7 168.65 355.45 168.65 354.5 169.15 353.75" fill="#ffe979" fill-rule="evenodd" stroke="none"/>
    <path d="M19.95 353.75 Q19.45 354.5 19.45 355.45 19.45 356.7 20.3 357.55 21.2 358.45 22.4 358.45 23.6 358.45 24.45 357.55 25.3 356.7 25.3 355.45 25.3 354.2 24.45 353.25 23.6 352.45 22.4 352.45 L21.25 352.7 Q22.15 352.2 23.2 352.2 25.0 352.2 26.2 353.45 27.45 354.7 27.45 356.5 27.45 358.35 26.2 359.6 25.0 360.85 23.2 360.85 21.4 360.85 20.2 359.6 19.0 358.35 19.0 356.5 19.0 354.95 19.95 353.75" fill="#8c5103" fill-rule="evenodd" stroke="none"/>
    <path d="M21.25 352.7 L22.4 352.45 Q23.6 352.45 24.45 353.25 25.3 354.2 25.3 355.45 25.3 356.7 24.45 357.55 23.6 358.45 22.4 358.45 21.2 358.45 20.3 357.55 19.45 356.7 19.45 355.45 19.45 354.5 19.95 353.75 L20.3 353.25 Q20.7 352.85 21.25 352.7" fill="#ffe979" fill-rule="evenodd" stroke="none"/>
    <path d="M282.35 352.7 L283.5 352.45 Q284.7 352.45 285.55 353.25 286.4 354.2 286.4 355.45 286.4 356.7 285.55 357.55 284.7 358.45 283.5 358.45 282.3 358.45 281.4 357.55 280.55 356.7 280.55 355.45 280.55 354.5 281.05 353.75 L281.4 353.25 Q281.8 352.85 282.35 352.7" fill="#ffe979" fill-rule="evenodd" stroke="none"/>
    <path d="M282.35 352.7 Q283.25 352.2 284.3 352.2 286.1 352.2 287.3 353.45 288.55 354.7 288.55 356.5 288.55 358.35 287.3 359.6 286.1 360.85 284.3 360.85 282.5 360.85 281.3 359.6 280.1 358.35 280.1 356.5 280.1 354.95 281.05 353.75 280.55 354.5 280.55 355.45 280.55 356.7 281.4 357.55 282.3 358.45 283.5 358.45 284.7 358.45 285.55 357.55 286.4 356.7 286.4 355.45 286.4 354.2 285.55 353.25 284.7 352.45 283.5 352.45 L282.35 352.7" fill="#8c5103" fill-rule="evenodd" stroke="none"/>
    <path d="M319.65 352.7 Q320.55 352.2 321.6 352.2 323.4 352.2 324.6 353.45 325.85 354.7 325.85 356.5 325.85 358.35 324.6 359.6 323.4 360.85 321.6 360.85 319.8 360.85 318.6 359.6 317.4 358.35 317.4 356.5 317.4 354.95 318.35 353.75 317.85 354.5 317.85 355.45 317.85 356.7 318.7 357.55 319.6 358.45 320.8 358.45 322.0 358.45 322.85 357.55 323.7 356.7 323.7 355.45 323.7 354.2 322.85 353.25 322.0 352.45 320.8 352.45 L319.65 352.7" fill="#8c5103" fill-rule="evenodd" stroke="none"/>
    <path d="M318.35 353.75 L318.7 353.25 Q319.1 352.85 319.65 352.7 L320.8 352.45 Q322.0 352.45 322.85 353.25 323.7 354.2 323.7 355.45 323.7 356.7 322.85 357.55 322.0 358.45 320.8 358.45 319.6 358.45 318.7 357.55 317.85 356.7 317.85 355.45 317.85 354.5 318.35 353.75" fill="#ffe979" fill-rule="evenodd" stroke="none"/>
    <path d="M207.75 352.7 Q208.65 352.2 209.7 352.2 211.5 352.2 212.7 353.45 213.95 354.7 213.95 356.5 213.95 358.35 212.7 359.6 211.5 360.85 209.7 360.85 207.9 360.85 206.7 359.6 205.5 358.35 205.5 356.5 205.5 354.95 206.45 353.75 205.95 354.5 205.95 355.45 205.95 356.7 206.8 357.55 207.7 358.45 208.9 358.45 210.1 358.45 210.95 357.55 211.8 356.7 211.8 355.45 211.8 354.2 210.95 353.25 210.1 352.45 208.9 352.45 L207.75 352.7" fill="#8c5103" fill-rule="evenodd" stroke="none"/>
    <path d="M206.45 353.75 L206.8 353.25 Q207.2 352.85 207.75 352.7 L208.9 352.45 Q210.1 352.45 210.95 353.25 211.8 354.2 211.8 355.45 211.8 356.7 210.95 357.55 210.1 358.45 208.9 358.45 207.7 358.45 206.8 357.55 205.95 356.7 205.95 355.45 205.95 354.5 206.45 353.75" fill="#ffe979" fill-rule="evenodd" stroke="none"/>
    <path d="M243.75 353.75 Q243.25 354.5 243.25 355.45 243.25 356.7 244.1 357.55 245.0 358.45 246.2 358.45 247.4 358.45 248.25 357.55 249.1 356.7 249.1 355.45 249.1 354.2 248.25 353.25 247.4 352.45 246.2 352.45 L245.05 352.7 Q245.95 352.2 247.0 352.2 248.8 352.2 250.0 353.45 251.25 354.7 251.25 356.5 251.25 358.35 250.0 359.6 248.8 360.85 247.0 360.85 245.2 360.85 244.0 359.6 242.8 358.35 242.8 356.5 242.8 354.95 243.75 353.75" fill="#8c5103" fill-rule="evenodd" stroke="none"/>
    <path d="M245.05 352.7 L246.2 352.45 Q247.4 352.45 248.25 353.25 249.1 354.2 249.1 355.45 249.1 356.7 248.25 357.55 247.4 358.45 246.2 358.45 245.0 358.45 244.1 357.55 243.25 356.7 243.25 355.45 243.25 354.5 243.75 353.75 L244.1 353.25 Q244.5 352.85 245.05 352.7" fill="#ffe979" fill-rule="evenodd" stroke="none"/>
    <path d="M355.65 353.75 Q355.15 354.5 355.15 355.45 355.15 356.7 356.0 357.55 356.9 358.45 358.1 358.45 359.3 358.45 360.15 357.55 361.0 356.7 361.0 355.45 361.0 354.2 360.15 353.25 359.3 352.45 358.1 352.45 L356.95 352.7 Q357.85 352.2 358.9 352.2 360.7 352.2 361.9 353.45 363.15 354.7 363.15 356.5 363.15 358.35 361.9 359.6 360.7 360.85 358.9 360.85 357.1 360.85 355.9 359.6 354.7 358.35 354.7 356.5 354.7 354.95 355.65 353.75" fill="#8c5103" fill-rule="evenodd" stroke="none"/>
    <path d="M356.95 352.7 L358.1 352.45 Q359.3 352.45 360.15 353.25 361.0 354.2 361.0 355.45 361.0 356.7 360.15 357.55 359.3 358.45 358.1 358.45 356.9 358.45 356.0 357.55 355.15 356.7 355.15 355.45 355.15 354.5 355.65 353.75 L356.0 353.25 Q356.4 352.85 356.95 352.7" fill="#ffe979" fill-rule="evenodd" stroke="none"/>
    <path d="M431.55 352.7 Q432.45 352.2 433.5 352.2 435.3 352.2 436.5 353.45 437.75 354.7 437.75 356.5 437.75 358.35 436.5 359.6 435.3 360.85 433.5 360.85 431.7 360.85 430.5 359.6 429.3 358.35 429.3 356.5 429.3 354.95 430.25 353.75 429.75 354.5 429.75 355.45 429.75 356.7 430.6 357.55 431.5 358.45 432.7 358.45 433.9 358.45 434.75 357.55 435.6 356.7 435.6 355.45 435.6 354.2 434.75 353.25 433.9 352.45 432.7 352.45 L431.55 352.7" fill="#8c5103" fill-rule="evenodd" stroke="none"/>
    <path d="M430.25 353.75 L430.6 353.25 Q431.0 352.85 431.55 352.7 L432.7 352.45 Q433.9 352.45 434.75 353.25 435.6 354.2 435.6 355.45 435.6 356.7 434.75 357.55 433.9 358.45 432.7 358.45 431.5 358.45 430.6 357.55 429.75 356.7 429.75 355.45 429.75 354.5 430.25 353.75" fill="#ffe979" fill-rule="evenodd" stroke="none"/>
    <path d="M467.55 353.75 Q467.05 354.5 467.05 355.45 467.05 356.7 467.9 357.55 468.8 358.45 470.0 358.45 471.2 358.45 472.05 357.55 472.9 356.7 472.9 355.45 472.9 354.2 472.05 353.25 471.2 352.45 470.0 352.45 L468.85 352.7 Q469.75 352.2 470.8 352.2 472.6 352.2 473.8 353.45 475.05 354.7 475.05 356.5 475.05 358.35 473.8 359.6 472.6 360.85 470.8 360.85 469.0 360.85 467.8 359.6 466.6 358.35 466.6 356.5 466.6 354.95 467.55 353.75" fill="#8c5103" fill-rule="evenodd" stroke="none"/>
    <path d="M468.85 352.7 L470.0 352.45 Q471.2 352.45 472.05 353.25 472.9 354.2 472.9 355.45 472.9 356.7 472.05 357.55 471.2 358.45 470.0 358.45 468.8 358.45 467.9 357.55 467.05 356.7 467.05 355.45 467.05 354.5 467.55 353.75 L467.9 353.25 468.85 352.7" fill="#ffe979" fill-rule="evenodd" stroke="none"/>
    <path d="M542.35 352.75 Q543.25 352.25 544.3 352.25 546.1 352.25 547.3 353.5 548.55 354.75 548.55 356.55 548.55 358.4 547.3 359.65 546.1 360.9 544.3 360.9 542.5 360.9 541.3 359.65 540.1 358.4 540.1 356.55 540.1 355.0 541.05 353.8 540.55 354.55 540.55 355.5 540.55 356.75 541.4 357.6 542.3 358.5 543.5 358.5 544.7 358.5 545.55 357.6 546.4 356.75 546.4 355.5 546.4 354.25 545.55 353.3 544.7 352.5 543.5 352.5 L542.35 352.75" fill="#8c5103" fill-rule="evenodd" stroke="none"/>
    <path d="M541.05 353.8 L541.4 353.3 Q541.8 352.9 542.35 352.75 L543.5 352.5 Q544.7 352.5 545.55 353.3 546.4 354.25 546.4 355.5 546.4 356.75 545.55 357.6 544.7 358.5 543.5 358.5 542.3 358.5 541.4 357.6 540.55 356.75 540.55 355.5 540.55 354.55 541.05 353.8" fill="#ffe979" fill-rule="evenodd" stroke="none"/>
    <path d="M392.95 353.75 Q392.45 354.5 392.45 355.45 392.45 356.7 393.3 357.55 394.2 358.45 395.4 358.45 396.6 358.45 397.45 357.55 398.3 356.7 398.3 355.45 398.3 354.2 397.45 353.25 396.6 352.45 395.4 352.45 L394.25 352.7 Q395.15 352.2 396.2 352.2 398.0 352.2 399.2 353.45 400.45 354.7 400.45 356.5 400.45 358.35 399.2 359.6 398.0 360.85 396.2 360.85 394.4 360.85 393.2 359.6 392.0 358.35 392.0 356.5 392.0 354.95 392.95 353.75" fill="#8c5103" fill-rule="evenodd" stroke="none"/>
    <path d="M394.25 352.7 L395.4 352.45 Q396.6 352.45 397.45 353.25 398.3 354.2 398.3 355.45 398.3 356.7 397.45 357.55 396.6 358.45 395.4 358.45 394.2 358.45 393.3 357.55 392.45 356.7 392.45 355.45 392.45 354.5 392.95 353.75 L393.3 353.25 394.25 352.7" fill="#ffe979" fill-rule="evenodd" stroke="none"/>
    <path d="M506.15 352.7 Q507.05 352.2 508.1 352.2 509.9 352.2 511.1 353.45 512.35 354.7 512.35 356.5 512.35 358.35 511.1 359.6 509.9 360.85 508.1 360.85 506.3 360.85 505.1 359.6 503.9 358.35 503.9 356.5 503.9 354.95 504.85 353.75 504.35 354.5 504.35 355.45 504.35 356.7 505.2 357.55 506.1 358.45 507.3 358.45 508.5 358.45 509.35 357.55 510.2 356.7 510.2 355.45 510.2 354.2 509.35 353.25 508.5 352.45 507.3 352.45 L506.15 352.7" fill="#8c5103" fill-rule="evenodd" stroke="none"/>
    <path d="M506.15 352.7 L507.3 352.45 Q508.5 352.45 509.35 353.25 510.2 354.2 510.2 355.45 510.2 356.7 509.35 357.55 508.5 358.45 507.3 358.45 506.1 358.45 505.2 357.55 504.35 356.7 504.35 355.45 504.35 354.5 504.85 353.75 L505.2 353.25 Q505.6 352.85 506.15 352.7" fill="#ffe979" fill-rule="evenodd" stroke="none"/>
    <path d="M-0.8 48.75 Q0.4 47.8 1.95 47.8 3.8 47.8 5.05 49.0 6.3 50.2 6.3 52.0 6.3 53.8 5.05 55.0 3.8 56.25 1.95 56.25 0.15 56.25 -1.1 55.0 -2.35 53.8 -2.35 52.0 -2.35 50.95 -1.85 50.05 L-2.1 51.2 Q-2.1 52.4 -1.3 53.25 -0.35 54.1 0.9 54.1 2.15 54.1 3.0 53.25 3.9 52.4 3.9 51.2 3.9 50.0 3.0 49.1 2.15 48.25 0.9 48.25 -0.05 48.25 -0.8 48.75" fill="#8c5103" fill-rule="evenodd" stroke="none"/>
    <path d="M-0.8 48.75 Q-0.05 48.25 0.9 48.25 2.15 48.25 3.0 49.1 3.9 50.0 3.9 51.2 3.9 52.4 3.0 53.25 2.15 54.1 0.9 54.1 -0.35 54.1 -1.3 53.25 -2.1 52.4 -2.1 51.2 L-1.85 50.05 -1.3 49.1 -0.8 48.75" fill="#ffe979" fill-rule="evenodd" stroke="none"/>
    <path d="M-1.85 87.35 L-1.3 86.4 -0.8 86.05 Q-0.05 85.55 0.9 85.55 2.15 85.55 3.0 86.4 3.9 87.3 3.9 88.5 3.9 89.7 3.0 90.55 2.15 91.4 0.9 91.4 -0.35 91.4 -1.3 90.55 -2.1 89.7 -2.1 88.5 L-1.85 87.35" fill="#ffe979" fill-rule="evenodd" stroke="none"/>
    <path d="M-0.8 86.05 Q0.4 85.1 1.95 85.1 3.8 85.1 5.05 86.3 6.3 87.5 6.3 89.3 6.3 91.1 5.05 92.3 3.8 93.55 1.95 93.55 0.15 93.55 -1.1 92.3 -2.35 91.1 -2.35 89.3 -2.35 88.25 -1.85 87.35 L-2.1 88.5 Q-2.1 89.7 -1.3 90.55 -0.35 91.4 0.9 91.4 2.15 91.4 3.0 90.55 3.9 89.7 3.9 88.5 3.9 87.3 3.0 86.4 2.15 85.55 0.9 85.55 -0.05 85.55 -0.8 86.05" fill="#8c5103" fill-rule="evenodd" stroke="none"/>
    <path d="M-1.85 124.65 L-1.3 123.7 -0.8 123.35 Q-0.05 122.85 0.9 122.85 2.15 122.85 3.0 123.7 3.9 124.6 3.9 125.8 3.9 127.0 3.0 127.85 2.15 128.7 0.9 128.7 -0.35 128.7 -1.3 127.85 -2.1 127.0 -2.1 125.8 L-1.85 124.65" fill="#ffe979" fill-rule="evenodd" stroke="none"/>
    <path d="M-0.8 123.35 Q0.4 122.4 1.95 122.4 3.8 122.4 5.05 123.6 6.3 124.8 6.3 126.6 6.3 128.4 5.05 129.6 3.8 130.85 1.95 130.85 0.15 130.85 -1.1 129.6 -2.35 128.4 -2.35 126.6 -2.35 125.55 -1.85 124.65 L-2.1 125.8 Q-2.1 127.0 -1.3 127.85 -0.35 128.7 0.9 128.7 2.15 128.7 3.0 127.85 3.9 127.0 3.9 125.8 3.9 124.6 3.0 123.7 2.15 122.85 0.9 122.85 -0.05 122.85 -0.8 123.35" fill="#8c5103" fill-rule="evenodd" stroke="none"/>
    <path d="M-0.8 160.65 Q0.4 159.7 1.95 159.7 3.8 159.7 5.05 160.9 6.3 162.1 6.3 163.9 6.3 165.7 5.05 166.9 3.8 168.15 1.95 168.15 0.15 168.15 -1.1 166.9 -2.35 165.7 -2.35 163.9 -2.35 162.85 -1.85 161.95 L-2.1 163.1 Q-2.1 164.3 -1.3 165.15 -0.35 166.0 0.9 166.0 2.15 166.0 3.0 165.15 3.9 164.3 3.9 163.1 3.9 161.9 3.0 161.0 2.15 160.15 0.9 160.15 -0.05 160.15 -0.8 160.65" fill="#8c5103" fill-rule="evenodd" stroke="none"/>
    <path d="M-0.8 160.65 Q-0.05 160.15 0.9 160.15 2.15 160.15 3.0 161.0 3.9 161.9 3.9 163.1 3.9 164.3 3.0 165.15 2.15 166.0 0.9 166.0 -0.35 166.0 -1.3 165.15 -2.1 164.3 -2.1 163.1 L-1.85 161.95 -1.3 161.0 -0.8 160.65" fill="#ffe979" fill-rule="evenodd" stroke="none"/>
    <path d="M-1.85 12.75 L-1.3 11.8 -0.8 11.45 Q-0.05 10.95 0.9 10.95 2.15 10.95 3.0 11.8 3.9 12.7 3.9 13.9 3.9 15.1 3.0 15.95 2.15 16.8 0.9 16.8 -0.35 16.8 -1.3 15.95 -2.1 15.1 -2.1 13.9 L-1.85 12.75" fill="#ffe979" fill-rule="evenodd" stroke="none"/>
    <path d="M-0.8 11.45 Q0.4 10.5 1.95 10.5 3.8 10.5 5.05 11.7 6.3 12.9 6.3 14.7 6.3 16.5 5.05 17.7 3.8 18.95 1.95 18.95 0.15 18.95 -1.1 17.7 -2.35 16.5 -2.35 14.7 -2.35 13.65 -1.85 12.75 L-2.1 13.9 Q-2.1 15.1 -1.3 15.95 -0.35 16.8 0.9 16.8 2.15 16.8 3.0 15.95 3.9 15.1 3.9 13.9 3.9 12.7 3.0 11.8 2.15 10.95 0.9 10.95 -0.05 10.95 -0.8 11.45" fill="#8c5103" fill-rule="evenodd" stroke="none"/>
    <path d="M-1.85 273.85 L-1.3 272.9 -0.8 272.55 Q-0.05 272.05 0.9 272.05 2.15 272.05 3.0 272.9 3.9 273.8 3.9 275.0 3.9 276.2 3.0 277.05 2.15 277.9 0.9 277.9 -0.35 277.9 -1.3 277.05 -2.1 276.2 -2.1 275.0 L-1.85 273.85" fill="#ffe979" fill-rule="evenodd" stroke="none"/>
    <path d="M-0.8 272.55 Q0.4 271.6 1.95 271.6 3.8 271.6 5.05 272.8 6.3 274.0 6.3 275.8 6.3 277.6 5.05 278.8 3.8 280.05 1.95 280.05 0.15 280.05 -1.1 278.8 -2.35 277.6 -2.35 275.8 -2.35 274.75 -1.85 273.85 L-2.1 275.0 Q-2.1 276.2 -1.3 277.05 -0.35 277.9 0.9 277.9 2.15 277.9 3.0 277.05 3.9 276.2 3.9 275.0 3.9 273.8 3.0 272.9 2.15 272.05 0.9 272.05 -0.05 272.05 -0.8 272.55" fill="#8c5103" fill-rule="evenodd" stroke="none"/>
    <path d="M-0.8 309.85 Q0.4 308.9 1.95 308.9 3.8 308.9 5.05 310.1 6.3 311.3 6.3 313.1 6.3 314.9 5.05 316.1 3.8 317.35 1.95 317.35 0.15 317.35 -1.1 316.1 -2.35 314.9 -2.35 313.1 -2.35 312.05 -1.85 311.15 L-2.1 312.3 Q-2.1 313.5 -1.3 314.35 -0.35 315.2 0.9 315.2 2.15 315.2 3.0 314.35 3.9 313.5 3.9 312.3 3.9 311.1 3.0 310.2 2.15 309.35 0.9 309.35 -0.05 309.35 -0.8 309.85" fill="#8c5103" fill-rule="evenodd" stroke="none"/>
    <path d="M-0.8 309.85 Q-0.05 309.35 0.9 309.35 2.15 309.35 3.0 310.2 3.9 311.1 3.9 312.3 3.9 313.5 3.0 314.35 2.15 315.2 0.9 315.2 -0.35 315.2 -1.3 314.35 -2.1 313.5 -2.1 312.3 L-1.85 311.15 -1.3 310.2 -0.8 309.85" fill="#ffe979" fill-rule="evenodd" stroke="none"/>
    <path d="M-0.8 197.95 Q0.4 197.0 1.95 197.0 3.8 197.0 5.05 198.2 6.3 199.4 6.3 201.2 6.3 203.0 5.05 204.2 3.8 205.45 1.95 205.45 0.15 205.45 -1.1 204.2 -2.35 203.0 -2.35 201.2 -2.35 200.15 -1.85 199.25 L-2.1 200.4 Q-2.1 201.6 -1.3 202.45 -0.35 203.3 0.9 203.3 2.15 203.3 3.0 202.45 3.9 201.6 3.9 200.4 3.9 199.2 3.0 198.3 2.15 197.45 0.9 197.45 -0.05 197.45 -0.8 197.95" fill="#8c5103" fill-rule="evenodd" stroke="none"/>
    <path d="M-0.8 197.95 Q-0.05 197.45 0.9 197.45 2.15 197.45 3.0 198.3 3.9 199.2 3.9 200.4 3.9 201.6 3.0 202.45 2.15 203.3 0.9 203.3 -0.35 203.3 -1.3 202.45 -2.1 201.6 -2.1 200.4 L-1.85 199.25 -1.3 198.3 -0.8 197.95" fill="#ffe979" fill-rule="evenodd" stroke="none"/>
    <path d="M-0.8 235.25 Q0.4 234.3 1.95 234.3 3.8 234.3 5.05 235.5 6.3 236.7 6.3 238.5 6.3 240.3 5.05 241.5 3.8 242.75 1.95 242.75 0.15 242.75 -1.1 241.5 -2.35 240.3 -2.35 238.5 -2.35 237.45 -1.85 236.55 L-2.1 237.7 Q-2.1 238.9 -1.3 239.75 -0.35 240.6 0.9 240.6 2.15 240.6 3.0 239.75 3.9 238.9 3.9 237.7 3.9 236.5 3.0 235.6 2.15 234.75 0.9 234.75 -0.05 234.75 -0.8 235.25" fill="#8c5103" fill-rule="evenodd" stroke="none"/>
    <path d="M-0.8 235.25 Q-0.05 234.75 0.9 234.75 2.15 234.75 3.0 235.6 3.9 236.5 3.9 237.7 3.9 238.9 3.0 239.75 2.15 240.6 0.9 240.6 -0.35 240.6 -1.3 239.75 -2.1 238.9 -2.1 237.7 L-1.85 236.55 -1.3 235.6 -0.8 235.25" fill="#ffe979" fill-rule="evenodd" stroke="none"/>
    <path d="M-1.85 348.45 L-1.3 347.5 -0.8 347.15 Q-0.05 346.65 0.9 346.65 2.15 346.65 3.0 347.5 3.9 348.4 3.9 349.6 3.9 350.8 3.0 351.65 2.15 352.5 0.9 352.5 -0.35 352.5 -1.3 351.65 -2.1 350.8 -2.1 349.6 L-1.85 348.45" fill="#ffe979" fill-rule="evenodd" stroke="none"/>
    <path d="M-0.8 347.15 Q0.4 346.2 1.95 346.2 3.8 346.2 5.05 347.4 6.3 348.6 6.3 350.4 6.3 352.2 5.05 353.4 3.8 354.65 1.95 354.65 0.15 354.65 -1.1 353.4 -2.35 352.2 -2.35 350.4 -2.35 349.35 -1.85 348.45 L-2.1 349.6 Q-2.1 350.8 -1.3 351.65 -0.35 352.5 0.9 352.5 2.15 352.5 3.0 351.65 3.9 350.8 3.9 349.6 3.9 348.4 3.0 347.5 2.15 346.65 0.9 346.65 -0.05 346.65 -0.8 347.15" fill="#8c5103" fill-rule="evenodd" stroke="none"/>
    <path d="M579.9 50.05 Q580.05 49.5 580.45 49.1 L580.95 48.75 Q581.7 48.25 582.65 48.25 583.9 48.25 584.75 49.1 585.65 50.0 585.65 51.2 585.65 52.4 584.75 53.25 583.9 54.1 582.65 54.1 581.4 54.1 580.45 53.25 579.65 52.4 579.65 51.2 579.65 50.55 579.9 50.05" fill="#ffe979" fill-rule="evenodd" stroke="none"/>
    <path d="M580.95 48.75 Q582.15 47.8 583.7 47.8 585.55 47.8 586.8 49.0 588.05 50.2 588.05 52.0 588.05 53.8 586.8 55.0 585.55 56.25 583.7 56.25 581.9 56.25 580.65 55.0 579.4 53.8 579.4 52.0 579.4 50.95 579.9 50.05 579.65 50.55 579.65 51.2 579.65 52.4 580.45 53.25 581.4 54.1 582.65 54.1 583.9 54.1 584.75 53.25 585.65 52.4 585.65 51.2 585.65 50.0 584.75 49.1 583.9 48.25 582.65 48.25 581.7 48.25 580.95 48.75" fill="#8c5103" fill-rule="evenodd" stroke="none"/>
    <path d="M580.95 86.05 Q581.7 85.55 582.65 85.55 583.9 85.55 584.75 86.4 585.65 87.3 585.65 88.5 585.65 89.7 584.75 90.55 583.9 91.4 582.65 91.4 581.4 91.4 580.45 90.55 579.65 89.7 579.65 88.5 579.65 87.85 579.9 87.35 580.05 86.8 580.45 86.4 L580.95 86.05" fill="#ffe979" fill-rule="evenodd" stroke="none"/>
    <path d="M579.9 87.35 Q579.65 87.85 579.65 88.5 579.65 89.7 580.45 90.55 581.4 91.4 582.65 91.4 583.9 91.4 584.75 90.55 585.65 89.7 585.65 88.5 585.65 87.3 584.75 86.4 583.9 85.55 582.65 85.55 581.7 85.55 580.95 86.05 582.15 85.1 583.7 85.1 585.55 85.1 586.8 86.3 588.05 87.5 588.05 89.3 588.05 91.1 586.8 92.3 585.55 93.55 583.7 93.55 581.9 93.55 580.65 92.3 579.4 91.1 579.4 89.3 579.4 88.25 579.9 87.35" fill="#8c5103" fill-rule="evenodd" stroke="none"/>
    <path d="M580.95 123.35 Q582.15 122.4 583.7 122.4 585.55 122.4 586.8 123.6 588.05 124.8 588.05 126.6 588.05 128.4 586.8 129.6 585.55 130.85 583.7 130.85 581.9 130.85 580.65 129.6 579.4 128.4 579.4 126.6 579.4 125.55 579.9 124.65 579.65 125.15 579.65 125.8 579.65 127.0 580.45 127.85 581.4 128.7 582.65 128.7 583.9 128.7 584.75 127.85 585.65 127.0 585.65 125.8 585.65 124.6 584.75 123.7 583.9 122.85 582.65 122.85 581.7 122.85 580.95 123.35" fill="#8c5103" fill-rule="evenodd" stroke="none"/>
    <path d="M580.95 123.35 Q581.7 122.85 582.65 122.85 583.9 122.85 584.75 123.7 585.65 124.6 585.65 125.8 585.65 127.0 584.75 127.85 583.9 128.7 582.65 128.7 581.4 128.7 580.45 127.85 579.65 127.0 579.65 125.8 579.65 125.15 579.9 124.65 580.05 124.1 580.45 123.7 L580.95 123.35" fill="#ffe979" fill-rule="evenodd" stroke="none"/>
    <path d="M579.9 161.95 Q580.05 161.4 580.45 161.0 L580.95 160.65 Q581.7 160.15 582.65 160.15 583.9 160.15 584.75 161.0 585.65 161.9 585.65 163.1 585.65 164.3 584.75 165.15 583.9 166.0 582.65 166.0 581.4 166.0 580.45 165.15 579.65 164.3 579.65 163.1 579.65 162.45 579.9 161.95" fill="#ffe979" fill-rule="evenodd" stroke="none"/>
    <path d="M580.95 160.65 Q582.15 159.7 583.7 159.7 585.55 159.7 586.8 160.9 588.05 162.1 588.05 163.9 588.05 165.7 586.8 166.9 585.55 168.15 583.7 168.15 581.9 168.15 580.65 166.9 579.4 165.7 579.4 163.9 579.4 162.85 579.9 161.95 579.65 162.45 579.65 163.1 579.65 164.3 580.45 165.15 581.4 166.0 582.65 166.0 583.9 166.0 584.75 165.15 585.65 164.3 585.65 163.1 585.65 161.9 584.75 161.0 583.9 160.15 582.65 160.15 581.7 160.15 580.95 160.65" fill="#8c5103" fill-rule="evenodd" stroke="none"/>
    <path d="M580.95 11.45 Q581.7 10.95 582.65 10.95 583.9 10.95 584.75 11.8 585.65 12.7 585.65 13.9 585.65 15.1 584.75 15.95 583.9 16.8 582.65 16.8 581.4 16.8 580.45 15.95 579.65 15.1 579.65 13.9 579.65 13.25 579.9 12.75 580.05 12.2 580.45 11.8 L580.95 11.45" fill="#ffe979" fill-rule="evenodd" stroke="none"/>
    <path d="M579.9 12.75 Q579.65 13.25 579.65 13.9 579.65 15.1 580.45 15.95 581.4 16.8 582.65 16.8 583.9 16.8 584.75 15.95 585.65 15.1 585.65 13.9 585.65 12.7 584.75 11.8 583.9 10.95 582.65 10.95 581.7 10.95 580.95 11.45 582.15 10.5 583.7 10.5 585.55 10.5 586.8 11.7 588.05 12.9 588.05 14.7 588.05 16.5 586.8 17.7 585.55 18.95 583.7 18.95 581.9 18.95 580.65 17.7 579.4 16.5 579.4 14.7 579.4 13.65 579.9 12.75" fill="#8c5103" fill-rule="evenodd" stroke="none"/>
    <path d="M580.95 272.55 Q581.7 272.05 582.65 272.05 583.9 272.05 584.75 272.9 585.65 273.8 585.65 275.0 585.65 276.2 584.75 277.05 583.9 277.9 582.65 277.9 581.4 277.9 580.45 277.05 579.65 276.2 579.65 275.0 579.65 274.35 579.9 273.85 580.05 273.3 580.45 272.9 L580.95 272.55" fill="#ffe979" fill-rule="evenodd" stroke="none"/>
    <path d="M579.9 273.85 Q579.65 274.35 579.65 275.0 579.65 276.2 580.45 277.05 581.4 277.9 582.65 277.9 583.9 277.9 584.75 277.05 585.65 276.2 585.65 275.0 585.65 273.8 584.75 272.9 583.9 272.05 582.65 272.05 581.7 272.05 580.95 272.55 582.15 271.6 583.7 271.6 585.55 271.6 586.8 272.8 588.05 274.0 588.05 275.8 588.05 277.6 586.8 278.8 585.55 280.05 583.7 280.05 581.9 280.05 580.65 278.8 579.4 277.6 579.4 275.8 579.4 274.75 579.9 273.85" fill="#8c5103" fill-rule="evenodd" stroke="none"/>
    <path d="M580.95 309.85 Q581.7 309.35 582.65 309.35 583.9 309.35 584.75 310.2 585.65 311.1 585.65 312.3 585.65 313.5 584.75 314.35 583.9 315.2 582.65 315.2 581.4 315.2 580.45 314.35 579.65 313.5 579.65 312.3 579.65 311.65 579.9 311.15 580.05 310.6 580.45 310.2 L580.95 309.85" fill="#ffe979" fill-rule="evenodd" stroke="none"/>
    <path d="M579.9 311.15 Q579.65 311.65 579.65 312.3 579.65 313.5 580.45 314.35 581.4 315.2 582.65 315.2 583.9 315.2 584.75 314.35 585.65 313.5 585.65 312.3 585.65 311.1 584.75 310.2 583.9 309.35 582.65 309.35 581.7 309.35 580.95 309.85 582.15 308.9 583.7 308.9 585.55 308.9 586.8 310.1 588.05 311.3 588.05 313.1 588.05 314.9 586.8 316.1 585.55 317.35 583.7 317.35 581.9 317.35 580.65 316.1 579.4 314.9 579.4 313.1 579.4 312.05 579.9 311.15" fill="#8c5103" fill-rule="evenodd" stroke="none"/>
    <path d="M579.9 199.25 Q580.05 198.7 580.45 198.3 L580.95 197.95 Q581.7 197.45 582.65 197.45 583.9 197.45 584.75 198.3 585.65 199.2 585.65 200.4 585.65 201.6 584.75 202.45 583.9 203.3 582.65 203.3 581.4 203.3 580.45 202.45 579.65 201.6 579.65 200.4 579.65 199.75 579.9 199.25" fill="#ffe979" fill-rule="evenodd" stroke="none"/>
    <path d="M580.95 197.95 Q582.15 197.0 583.7 197.0 585.55 197.0 586.8 198.2 588.05 199.4 588.05 201.2 588.05 203.0 586.8 204.2 585.55 205.45 583.7 205.45 581.9 205.45 580.65 204.2 579.4 203.0 579.4 201.2 579.4 200.15 579.9 199.25 579.65 199.75 579.65 200.4 579.65 201.6 580.45 202.45 581.4 203.3 582.65 203.3 583.9 203.3 584.75 202.45 585.65 201.6 585.65 200.4 585.65 199.2 584.75 198.3 583.9 197.45 582.65 197.45 581.7 197.45 580.95 197.95" fill="#8c5103" fill-rule="evenodd" stroke="none"/>
    <path d="M580.95 235.25 Q581.7 234.75 582.65 234.75 583.9 234.75 584.75 235.6 585.65 236.5 585.65 237.7 585.65 238.9 584.75 239.75 583.9 240.6 582.65 240.6 581.4 240.6 580.45 239.75 579.65 238.9 579.65 237.7 579.65 237.05 579.9 236.55 580.05 236.0 580.45 235.6 L580.95 235.25" fill="#ffe979" fill-rule="evenodd" stroke="none"/>
    <path d="M579.9 236.55 Q579.65 237.05 579.65 237.7 579.65 238.9 580.45 239.75 581.4 240.6 582.65 240.6 583.9 240.6 584.75 239.75 585.65 238.9 585.65 237.7 585.65 236.5 584.75 235.6 583.9 234.75 582.65 234.75 581.7 234.75 580.95 235.25 582.15 234.3 583.7 234.3 585.55 234.3 586.8 235.5 588.05 236.7 588.05 238.5 588.05 240.3 586.8 241.5 585.55 242.75 583.7 242.75 581.9 242.75 580.65 241.5 579.4 240.3 579.4 238.5 579.4 237.45 579.9 236.55" fill="#8c5103" fill-rule="evenodd" stroke="none"/>
    <path d="M580.95 347.15 Q581.7 346.65 582.65 346.65 583.9 346.65 584.75 347.5 585.65 348.4 585.65 349.6 585.65 350.8 584.75 351.65 583.9 352.5 582.65 352.5 581.4 352.5 580.45 351.65 579.65 350.8 579.65 349.6 579.65 348.95 579.9 348.45 580.05 347.9 580.45 347.5 L580.95 347.15" fill="#ffe979" fill-rule="evenodd" stroke="none"/>
    <path d="M579.9 348.45 Q579.65 348.95 579.65 349.6 579.65 350.8 580.45 351.65 581.4 352.5 582.65 352.5 583.9 352.5 584.75 351.65 585.65 350.8 585.65 349.6 585.65 348.4 584.75 347.5 583.9 346.65 582.65 346.65 581.7 346.65 580.95 347.15 582.15 346.2 583.7 346.2 585.55 346.2 586.8 347.4 588.05 348.6 588.05 350.4 588.05 352.2 586.8 353.4 585.55 354.65 583.7 354.65 581.9 354.65 580.65 353.4 579.4 352.2 579.4 350.4 579.4 349.35 579.9 348.45" fill="#8c5103" fill-rule="evenodd" stroke="none"/>
  </g>
  <defs>
    <linearGradient gradientTransform="matrix(0.1155, 0.0, 0.0, 0.0887, 492.05, 72.6)" gradientUnits="userSpaceOnUse" id="gradient0" spreadMethod="pad" x1="-819.2" x2="819.2">
      <stop offset="0.0" stop-color="#eada61"/>
      <stop offset="1.0" stop-color="#9f5c16"/>
    </linearGradient>
    <linearGradient gradientTransform="matrix(0.1155, 0.0, 0.0, 0.6154, 492.05, 229.7)" gradientUnits="userSpaceOnUse" id="gradient1" spreadMethod="pad" x1="-819.2" x2="819.2">
      <stop offset="0.0" stop-color="#eada61"/>
      <stop offset="1.0" stop-color="#9f5c16"/>
    </linearGradient>
    <linearGradient gradientTransform="matrix(0.857, 0.0, 0.0, 0.0886, 439.3, 72.6)" gradientUnits="userSpaceOnUse" id="gradient2" spreadMethod="pad" x1="-819.2" x2="819.2">
      <stop offset="0.0" stop-color="#eada61"/>
      <stop offset="1.0" stop-color="#9f5c16"/>
    </linearGradient>
    <linearGradient gradientTransform="matrix(0.1155, 0.0, 0.0, 0.0886, 94.65, 72.6)" gradientUnits="userSpaceOnUse" id="gradient3" spreadMethod="pad" x1="-819.2" x2="819.2">
      <stop offset="0.0" stop-color="#eada61"/>
      <stop offset="1.0" stop-color="#9f5c16"/>
    </linearGradient>
    <linearGradient gradientTransform="matrix(0.1155, 0.0, 0.0, 0.6415, 94.65, 343.6)" gradientUnits="userSpaceOnUse" id="gradient4" spreadMethod="pad" x1="-819.2" x2="819.2">
      <stop offset="0.0" stop-color="#eada61"/>
      <stop offset="1.0" stop-color="#9f5c16"/>
    </linearGradient>
    <linearGradient gradientTransform="matrix(0.1155, 0.0, 0.0, 0.0886, 94.65, 288.15)" gradientUnits="userSpaceOnUse" id="gradient5" spreadMethod="pad" x1="-819.2" x2="819.2">
      <stop offset="0.0" stop-color="#eada61"/>
      <stop offset="1.0" stop-color="#9f5c16"/>
    </linearGradient>
    <linearGradient gradientTransform="matrix(0.9211, 0.0, 0.0, 0.0886, 406.3, 288.15)" gradientUnits="userSpaceOnUse" id="gradient6" spreadMethod="pad" x1="-819.2" x2="819.2">
      <stop offset="0.0" stop-color="#eada61"/>
      <stop offset="1.0" stop-color="#9f5c16"/>
    </linearGradient>
    <linearGradient gradientTransform="matrix(0.1155, 0.0, 0.0, 0.0886, 492.05, 288.15)" gradientUnits="userSpaceOnUse" id="gradient7" spreadMethod="pad" x1="-819.2" x2="819.2">
      <stop offset="0.0" stop-color="#eada61"/>
      <stop offset="1.0" stop-color="#9f5c16"/>
    </linearGradient>
  </defs>
</svg>
