<?xml version="1.0" encoding="UTF-8" standalone="no"?>
<svg xmlns:xlink="http://www.w3.org/1999/xlink" height="46.1px" width="39.5px" xmlns="http://www.w3.org/2000/svg">
  <g transform="matrix(1.0, 0.0, 0.0, 1.0, 0.0, 0.0)">
    <path d="M2.9 29.3 Q4.5 27.3 7.3 24.8 L14.5 18.0 Q16.6 15.5 18.6 11.3 20.9 6.7 21.1 5.1 21.3 3.5 21.1 2.4 20.8 1.3 20.3 0.8 L24.0 0.2 Q27.3 5.9 26.7 8.4 26.1 10.8 26.1 15.1 L25.8 20.1 Q25.4 22.2 24.0 24.6 22.6 27.0 18.7 27.2 L14.1 27.5 Q15.5 28.2 16.7 29.4 19.0 31.7 19.5 34.6 17.9 31.8 13.6 31.2 6.8 30.3 6.8 36.7 6.8 38.1 7.5 39.2 8.7 41.2 11.9 41.2 15.7 41.2 15.7 37.9 15.7 37.2 15.1 36.3 14.3 35.0 12.8 35.0 12.0 35.0 11.3 35.7 10.5 36.4 10.5 37.1 L10.6 37.7 Q10.9 38.2 11.6 38.2 12.1 38.2 12.0 38.0 11.5 37.6 11.5 37.1 L11.9 36.6 12.8 36.1 13.9 36.7 Q14.8 37.4 14.8 37.9 14.4 40.3 11.9 40.3 9.5 40.3 8.4 38.8 7.7 37.9 7.7 36.7 7.7 32.1 12.5 32.1 15.7 32.1 17.8 34.7 19.4 36.7 19.4 38.2 L19.4 38.4 19.1 39.5 Q18.6 40.7 17.0 42.5 L15.6 44.2 Q15.0 44.6 16.6 45.0 L9.8 46.1 Q5.7 46.1 2.8 43.2 0.0 40.4 0.0 36.3 0.0 32.3 2.8 29.4 L2.9 29.3 M17.3 28.4 L18.8 28.9 Q20.2 29.5 21.8 29.7 L24.3 29.5 26.6 28.8 Q29.0 28.0 30.1 27.1 L31.8 25.0 32.9 22.8 33.1 20.2 36.8 19.6 Q37.7 23.9 37.3 24.8 36.8 25.7 36.4 27.1 L35.5 29.7 Q35.0 31.2 34.0 32.5 33.1 33.8 31.8 34.7 L28.5 35.8 Q25.8 35.8 24.4 35.2 22.9 34.6 20.9 33.0 L19.6 31.7 17.3 28.4 M20.8 36.2 L24.2 35.5 Q25.5 40.3 29.4 40.3 L33.5 39.4 34.5 39.4 34.9 39.5 Q31.1 43.8 31.7 44.6 26.9 46.0 25.7 46.0 22.6 46.0 21.3 41.5 L20.6 36.7 Q20.6 36.1 20.8 36.2" fill="#919191" fill-rule="evenodd" stroke="none"/>
    <path d="M22.2 31.6 L22.9 33.8 Q21.3 31.0 17.0 30.4 10.2 29.5 10.2 35.9 10.2 37.3 10.9 38.4 12.1 40.4 15.3 40.4 19.1 40.4 19.1 37.1 19.1 36.4 18.5 35.5 17.7 34.2 16.2 34.2 15.4 34.2 14.7 34.9 13.9 35.6 13.9 36.3 L14.0 36.9 Q14.3 37.4 15.0 37.4 15.5 37.4 15.4 37.2 14.9 36.8 14.9 36.3 L15.3 35.8 Q15.8 35.3 16.2 35.3 L17.3 35.9 Q18.2 36.6 18.2 37.1 17.8 39.5 15.3 39.5 12.9 39.5 11.8 38.0 11.1 37.1 11.1 35.9 11.1 31.3 15.9 31.3 19.1 31.3 21.2 33.9 22.8 35.9 22.8 37.4 L22.8 37.6 22.5 38.7 Q22.0 39.9 20.4 41.7 L19.0 43.4 Q16.5 45.3 13.2 45.3 9.1 45.3 6.2 42.4 3.4 39.6 3.4 35.5 3.4 31.5 6.2 28.6 L6.3 28.5 Q7.9 26.5 10.7 24.0 L17.9 17.2 Q20.0 14.7 22.0 10.5 24.3 5.9 24.5 4.3 24.7 2.7 24.5 1.6 24.2 0.5 23.7 0.0 24.7 0.4 25.6 1.2 26.5 2.0 27.3 3.3 28.5 6.4 28.5 10.1 28.5 19.0 24.6 22.9 23.7 23.8 21.4 24.3 L18.1 25.1 Q13.8 26.5 12.3 27.8 L14.1 27.6 Q17.6 27.6 20.2 29.6 L22.2 31.6 M28.6 34.7 L27.8 34.4 Q26.3 33.8 24.3 32.2 L23.0 30.9 20.7 27.6 22.2 28.1 Q23.6 28.7 25.2 28.9 L27.7 28.7 Q28.8 28.3 30.0 28.0 32.4 27.2 33.5 26.3 L35.2 24.2 36.3 22.0 36.5 19.4 37.2 20.3 37.7 22.0 Q38.3 24.1 38.3 25.3 38.3 29.2 34.7 32.1 31.7 34.4 28.6 34.7 M25.1 42.0 L24.7 40.7 24.0 35.9 Q24.0 35.3 24.2 35.4 24.7 35.4 26.9 37.5 28.9 39.5 32.8 39.5 L36.9 38.6 37.9 38.6 38.1 38.7 Q33.8 42.6 28.3 42.6 26.2 42.6 25.1 42.0" fill="#ffffff" fill-rule="evenodd" stroke="none"/>
    <path d="M27.3 3.3 L28.4 6.3 Q29.5 10.0 29.5 14.3 L29.2 19.3 Q28.8 21.4 27.4 23.8 26.0 26.2 22.1 26.4 L17.5 26.7 Q18.9 27.4 20.1 28.6 21.5 30.0 22.2 31.6 L20.2 29.6 Q17.6 27.6 14.1 27.6 L12.3 27.8 Q13.8 26.5 18.1 25.1 L21.4 24.3 Q23.7 23.8 24.6 22.9 28.5 19.0 28.5 10.1 28.5 6.4 27.3 3.3 M28.6 34.7 Q31.7 34.4 34.7 32.1 38.3 29.2 38.3 25.3 38.3 24.1 37.7 22.0 L37.2 20.3 37.9 21.2 39.0 23.3 39.5 26.3 38.9 28.9 Q38.4 30.4 37.4 31.7 36.5 33.0 35.2 33.9 L31.9 35.0 28.6 34.7 M38.1 38.7 L38.3 38.7 Q32.6 45.2 29.1 45.2 26.5 45.2 25.1 42.0 26.2 42.6 28.3 42.6 33.8 42.6 38.1 38.7" fill="#a6a6a6" fill-rule="evenodd" stroke="none"/>
  </g>
</svg>
