<?xml version="1.0" encoding="UTF-8" standalone="no"?>
<svg xmlns:xlink="http://www.w3.org/1999/xlink" height="144.5px" width="143.55px" xmlns="http://www.w3.org/2000/svg">
  <g transform="matrix(1.0, 0.0, 0.0, 1.0, 4.7, 3.9)">
    <path d="M-1.2 100.05 L2.6 100.05 Q2.9 97.7 4.65 95.9 6.85 93.75 9.9 93.75 12.95 93.75 15.1 95.9 16.5 97.3 17.05 99.1 17.5 97.3 18.9 95.9 21.1 93.75 24.15 93.75 27.2 93.75 29.35 95.9 30.75 97.3 31.3 99.1 31.75 97.3 33.15 95.9 35.35 93.75 38.4 93.75 41.45 93.75 43.6 95.9 45.0 97.3 45.55 99.1 46.0 97.3 47.4 95.9 49.6 93.75 52.65 93.75 55.7 93.75 57.85 95.9 59.25 97.3 59.8 99.1 60.25 97.3 61.65 95.9 63.85 93.75 66.9 93.75 69.95 93.75 72.1 95.9 73.5 97.3 74.05 99.1 74.5 97.3 75.9 95.9 78.1 93.75 81.15 93.75 84.2 93.75 86.35 95.9 87.75 97.3 88.3 99.1 88.75 97.3 90.15 95.9 92.35 93.75 95.4 93.75 98.45 93.75 100.6 95.9 102.0 97.3 102.55 99.1 103.0 97.3 104.4 95.9 106.6 93.75 109.65 93.75 112.7 93.75 114.85 95.9 116.5 97.55 116.95 99.75 117.3 97.55 118.95 95.9 121.15 93.75 124.2 93.75 127.25 93.75 129.4 95.9 131.2 97.7 131.55 100.05 L134.2 100.05 134.2 137.4 -1.2 137.4 -1.2 100.05" fill="#2c97c9" fill-rule="evenodd" stroke="none"/>
    <path d="M-1.2 100.05 L2.6 100.05 Q2.9 97.7 4.65 95.9 6.85 93.75 9.9 93.75 12.95 93.75 15.1 95.9 16.5 97.3 17.05 99.1 17.5 97.3 18.9 95.9 21.1 93.75 24.15 93.75 27.2 93.75 29.35 95.9 30.75 97.3 31.3 99.1 31.75 97.3 33.15 95.9 35.35 93.75 38.4 93.75 41.45 93.75 43.6 95.9 45.0 97.3 45.55 99.1 46.0 97.3 47.4 95.9 49.6 93.75 52.65 93.75 55.7 93.75 57.85 95.9 59.25 97.3 59.8 99.1 60.25 97.3 61.65 95.9 63.85 93.75 66.9 93.75 69.95 93.75 72.1 95.9 73.5 97.3 74.05 99.1 74.5 97.3 75.9 95.9 78.1 93.75 81.15 93.75 84.2 93.75 86.35 95.9 87.75 97.3 88.3 99.1 88.75 97.3 90.15 95.9 92.35 93.75 95.4 93.75 98.45 93.75 100.6 95.9 102.0 97.3 102.55 99.1 103.0 97.3 104.4 95.9 106.6 93.75 109.65 93.75 112.7 93.75 114.85 95.9 116.5 97.55 116.95 99.75 117.3 97.55 118.95 95.9 121.15 93.75 124.2 93.75 127.25 93.75 129.4 95.9 131.2 97.7 131.55 100.05 L134.2 100.05" fill="none" stroke="#55b0e2" stroke-linecap="butt" stroke-linejoin="round" stroke-width="3.0"/>
    <path d="M18.5 -3.7 L115.35 -3.7 Q125.0 -3.7 131.75 3.15 138.65 9.95 138.65 19.65 L138.65 117.2 Q138.65 126.95 131.75 133.75 125.0 140.6 115.35 140.6 L18.5 140.6 Q8.85 140.6 2.05 133.75 -4.7 126.95 -4.7 117.2 L-4.7 19.65 Q-4.7 9.95 2.05 3.15 8.85 -3.7 18.5 -3.7 M125.45 8.95 Q119.7 3.15 110.85 3.15 L23.1 3.15 Q14.35 3.15 8.25 9.4 2.05 15.5 2.05 24.3 L2.05 112.55 Q2.05 121.4 8.25 127.6 14.35 133.75 23.1 133.75 L110.85 133.75 Q119.35 133.75 125.35 127.8 131.5 121.6 131.5 112.8 L131.55 23.9 Q131.55 15.1 125.45 8.95" fill="url(#gradient0)" fill-rule="evenodd" stroke="none"/>
    <path d="M88.95 140.35 L89.45 139.95 89.6 139.75 Q90.45 138.1 92.25 136.7 92.1 136.55 92.4 136.65 94.35 135.05 96.95 133.85 L97.7 133.9 98.5 134.0 Q95.65 135.25 93.85 136.9 L93.75 137.0 Q92.05 138.2 91.15 139.8 L90.75 140.35 89.8 140.35 88.95 140.35" fill="url(#gradient1)" fill-rule="evenodd" stroke="none"/>
    <path d="M88.95 140.35 L87.85 140.4 88.8 139.7 Q89.7 138.0 91.5 136.4 93.4 134.85 96.0 133.65 L96.95 133.85 Q94.35 135.05 92.4 136.65 92.1 136.55 92.25 136.7 90.45 138.1 89.6 139.75 L89.45 139.95 88.95 140.35" fill="#ffcea1" fill-rule="evenodd" stroke="none"/>
    <path d="M74.6 133.85 Q71.95 135.05 70.05 136.65 L69.85 136.7 Q68.1 138.1 67.25 139.75 67.0 139.9 67.1 139.95 L66.65 140.35 65.55 140.4 66.5 139.7 Q67.35 138.0 69.15 136.4 71.0 134.85 73.7 133.65 L74.6 133.85" fill="#ffcea1" fill-rule="evenodd" stroke="none"/>
    <path d="M74.6 133.85 L75.4 133.9 76.1 134.0 Q73.3 135.25 71.5 136.9 L71.4 137.0 Q69.75 138.2 68.8 139.8 L68.4 140.35 67.45 140.35 66.65 140.35 67.1 139.95 Q67.0 139.9 67.25 139.75 68.1 138.1 69.85 136.7 L70.05 136.65 Q71.95 135.05 74.6 133.85" fill="url(#gradient2)" fill-rule="evenodd" stroke="none"/>
    <path d="M51.3 133.85 L52.15 133.9 52.85 134.0 Q50.05 135.25 48.25 136.9 L48.15 137.0 Q46.45 138.2 45.5 139.8 L45.15 140.35 44.15 140.35 43.35 140.35 43.8 139.95 44.0 139.75 Q44.8 138.1 46.6 136.7 46.5 136.55 46.75 136.65 48.7 135.05 51.3 133.85" fill="url(#gradient3)" fill-rule="evenodd" stroke="none"/>
    <path d="M51.3 133.85 Q48.7 135.05 46.75 136.65 46.5 136.55 46.6 136.7 44.8 138.1 44.0 139.75 L43.8 139.95 43.35 140.35 42.2 140.4 43.15 139.7 Q44.1 138.0 45.85 136.4 47.75 134.85 50.35 133.65 L51.3 133.85" fill="#ffcea1" fill-rule="evenodd" stroke="none"/>
    <path d="M20.35 140.35 L19.25 140.4 20.15 139.7 Q21.05 138.0 22.85 136.4 24.7 134.85 27.35 133.65 L28.3 133.85 Q25.65 135.05 23.7 136.65 23.5 136.55 23.55 136.7 21.8 138.1 20.95 139.75 20.65 139.9 20.8 139.95 L20.35 140.35" fill="#ffcea1" fill-rule="evenodd" stroke="none"/>
    <path d="M20.35 140.35 L20.8 139.95 Q20.65 139.9 20.95 139.75 21.8 138.1 23.55 136.7 23.5 136.55 23.7 136.65 25.65 135.05 28.3 133.85 L29.1 133.9 29.8 134.0 Q27.0 135.25 25.2 136.9 L25.1 137.0 Q23.45 138.2 22.45 139.8 L22.1 140.35 21.15 140.35 20.35 140.35" fill="url(#gradient4)" fill-rule="evenodd" stroke="none"/>
    <path d="M9.8 128.85 L10.55 129.4 11.25 129.9 Q8.5 130.1 6.8 131.4 L6.7 131.4 Q5.05 132.25 4.1 133.85 L3.85 134.35 2.9 133.9 2.05 133.5 2.55 133.2 Q2.45 133.05 2.65 133.0 3.5 131.3 5.2 130.35 5.1 130.05 5.4 130.35 7.2 129.2 9.8 128.85" fill="url(#gradient5)" fill-rule="evenodd" stroke="none"/>
    <path d="M9.8 128.85 Q7.2 129.2 5.4 130.35 5.1 130.05 5.2 130.35 3.5 131.3 2.65 133.0 2.45 133.05 2.55 133.2 L2.05 133.5 Q1.6 133.2 1.0 133.05 L1.9 132.6 Q2.75 130.8 4.5 129.65 6.3 128.5 8.85 128.15 L9.8 128.85" fill="#ffcea1" fill-rule="evenodd" stroke="none"/>
    <path d="M-4.45 110.9 L-4.0 111.35 Q-3.95 111.3 -3.75 111.5 -1.9 112.35 -0.35 114.2 -0.15 114.1 -0.2 114.35 1.5 116.3 2.9 118.95 L2.85 119.75 2.65 120.5 Q1.3 117.6 -0.55 115.8 L-0.6 115.7 Q-2.05 114.05 -3.8 113.1 L-4.45 112.7 -4.45 111.75 -4.45 110.9" fill="url(#gradient6)" fill-rule="evenodd" stroke="none"/>
    <path d="M-4.45 110.9 L-4.5 109.8 -3.7 110.75 Q-1.75 111.65 -0.05 113.4 1.8 115.35 3.1 118.0 L2.9 118.95 Q1.5 116.3 -0.2 114.35 -0.15 114.1 -0.35 114.2 -1.9 112.35 -3.75 111.5 -3.95 111.3 -4.0 111.35 L-4.45 110.9" fill="#ffcea1" fill-rule="evenodd" stroke="none"/>
    <path d="M-4.45 89.05 L-4.05 89.55 Q-4.0 89.4 -3.85 89.65 -2.2 90.55 -0.8 92.3 -0.65 92.2 -0.75 92.5 0.8 94.45 2.0 97.05 L1.95 97.9 1.85 98.65 Q0.6 95.8 -1.05 93.95 L-1.1 93.85 Q-2.3 92.15 -3.95 91.2 L-4.45 90.8 -4.45 89.85 -4.45 89.05" fill="url(#gradient7)" fill-rule="evenodd" stroke="none"/>
    <path d="M-4.45 89.05 L-4.5 87.9 -3.8 88.85 Q-2.1 89.75 -0.55 91.6 1.0 93.5 2.2 96.1 L2.0 97.05 Q0.8 94.45 -0.75 92.5 -0.65 92.2 -0.8 92.3 -2.2 90.55 -3.85 89.65 -4.0 89.4 -4.05 89.55 L-4.45 89.05" fill="#ffcea1" fill-rule="evenodd" stroke="none"/>
    <path d="M2.0 71.95 Q0.8 69.25 -0.75 67.3 -0.65 67.05 -0.8 67.15 -2.2 65.35 -3.85 64.5 -4.0 64.25 -4.05 64.35 L-4.45 63.9 -4.5 62.8 -3.8 63.75 Q-2.1 64.65 -0.55 66.4 1.0 68.3 2.2 71.0 L2.0 71.95" fill="#ffcea1" fill-rule="evenodd" stroke="none"/>
    <path d="M2.0 71.95 L1.95 72.75 1.85 73.45 Q0.6 70.6 -1.05 68.8 L-1.1 68.7 Q-2.3 67.0 -3.95 66.05 L-4.45 65.7 -4.45 64.75 -4.45 63.9 -4.05 64.35 Q-4.0 64.25 -3.85 64.5 -2.2 65.35 -0.8 67.15 -0.65 67.05 -0.75 67.3 0.8 69.25 2.0 71.95" fill="url(#gradient8)" fill-rule="evenodd" stroke="none"/>
    <path d="M2.2 47.55 L2.2 49.35 Q1.45 47.4 0.1 45.6 L-1.1 44.25 -3.45 41.75 -4.35 40.85 -4.45 40.25 -4.45 39.4 -0.75 42.85 Q1.1 45.15 2.2 47.55" fill="url(#gradient9)" fill-rule="evenodd" stroke="none"/>
    <path d="M-4.45 39.4 L-4.5 38.3 -2.95 39.7 -0.55 41.95 0.95 43.75 Q1.85 44.8 2.3 45.9 L2.2 47.55 Q1.1 45.15 -0.75 42.85 L-4.45 39.4" fill="#ffcea1" fill-rule="evenodd" stroke="none"/>
    <path d="M-4.45 17.5 L-4.5 16.4 -2.95 17.75 -0.55 20.05 0.95 21.8 Q1.85 22.9 2.3 23.95 L2.2 25.65 Q1.1 23.2 -0.75 20.95 -0.8 20.75 -4.45 17.5" fill="#ffcea1" fill-rule="evenodd" stroke="none"/>
    <path d="M2.2 25.65 L2.2 27.4 Q1.45 25.5 0.1 23.7 L-1.1 22.3 -3.45 19.8 -4.35 18.9 -4.45 18.35 -4.45 17.5 Q-0.8 20.75 -0.75 20.95 1.1 23.2 2.2 25.65" fill="url(#gradient10)" fill-rule="evenodd" stroke="none"/>
    <path d="M20.2 2.9 L18.45 2.9 22.15 0.75 23.5 -0.45 26.0 -2.85 26.85 -3.8 27.5 -3.85 28.3 -3.85 24.9 -0.1 Q22.6 1.8 20.2 2.9" fill="url(#gradient11)" fill-rule="evenodd" stroke="none"/>
    <path d="M28.3 -3.85 L29.4 -3.9 28.05 -2.3 Q26.6 -0.55 25.75 0.05 L24.0 1.6 21.9 2.95 20.2 2.9 Q22.6 1.8 24.9 -0.1 L28.3 -3.85" fill="#ffcea1" fill-rule="evenodd" stroke="none"/>
    <path d="M46.1 2.9 L44.3 2.9 48.05 0.75 49.35 -0.45 51.85 -2.85 52.75 -3.8 53.35 -3.85 54.2 -3.85 50.75 -0.1 Q48.5 1.8 46.1 2.9" fill="url(#gradient12)" fill-rule="evenodd" stroke="none"/>
    <path d="M54.2 -3.85 L55.3 -3.9 53.9 -2.3 51.65 0.05 49.85 1.6 47.75 2.95 46.1 2.9 Q48.5 1.8 50.75 -0.1 L54.2 -3.85" fill="#ffcea1" fill-rule="evenodd" stroke="none"/>
    <path d="M68.15 2.9 Q70.6 1.8 72.85 -0.1 L76.25 -3.85 77.35 -3.9 76.0 -2.3 73.75 0.05 71.95 1.6 Q70.9 2.45 69.85 2.95 L68.15 2.9" fill="#ffcea1" fill-rule="evenodd" stroke="none"/>
    <path d="M76.25 -3.85 L72.85 -0.1 Q70.6 1.8 68.15 2.9 L66.4 2.9 Q68.3 2.05 70.1 0.75 L71.45 -0.45 73.95 -2.85 74.85 -3.8 75.4 -3.85 76.25 -3.85" fill="url(#gradient13)" fill-rule="evenodd" stroke="none"/>
    <path d="M91.85 2.9 Q94.3 1.8 96.55 -0.1 L99.95 -3.85 101.05 -3.9 99.7 -2.3 97.45 0.05 95.65 1.6 93.55 2.95 91.85 2.9" fill="#ffcea1" fill-rule="evenodd" stroke="none"/>
    <path d="M99.95 -3.85 L96.55 -0.1 Q94.3 1.8 91.85 2.9 L90.15 2.9 Q92.0 2.05 93.8 0.75 L95.15 -0.45 97.65 -2.85 98.55 -3.8 99.1 -3.85 99.95 -3.85" fill="url(#gradient14)" fill-rule="evenodd" stroke="none"/>
    <path d="M111.85 2.9 L110.05 2.9 Q112.0 2.05 113.8 0.75 L115.15 -0.45 117.6 -2.85 118.5 -3.8 119.1 -3.85 119.95 -3.85 116.5 -0.1 Q114.25 1.8 111.85 2.9" fill="url(#gradient15)" fill-rule="evenodd" stroke="none"/>
    <path d="M119.95 -3.85 L121.05 -3.9 119.65 -2.3 Q118.2 -0.55 117.4 0.05 L115.6 1.6 Q114.55 2.45 113.5 2.95 L111.85 2.9 Q114.25 1.8 116.5 -0.1 L119.95 -3.85" fill="#ffcea1" fill-rule="evenodd" stroke="none"/>
    <path d="M138.8 28.85 L138.85 29.95 137.2 28.55 134.8 26.25 133.15 24.35 Q132.3 23.25 131.8 22.15 L131.85 20.4 Q133.0 22.9 134.95 25.3 L138.8 28.85" fill="#ffcea1" fill-rule="evenodd" stroke="none"/>
    <path d="M131.85 20.4 L131.85 18.55 Q132.65 20.6 134.0 22.45 L135.3 23.85 137.75 26.45 138.75 27.4 138.8 27.95 138.8 28.85 134.95 25.3 Q133.0 22.9 131.85 20.4" fill="url(#gradient16)" fill-rule="evenodd" stroke="none"/>
    <path d="M131.85 42.35 L131.85 40.5 Q132.65 42.55 134.0 44.35 L135.3 45.8 137.75 48.45 138.75 49.4 138.8 49.95 138.8 50.85 134.95 47.25 Q133.0 44.85 131.85 42.35" fill="url(#gradient17)" fill-rule="evenodd" stroke="none"/>
    <path d="M138.8 50.85 L138.85 51.95 137.2 50.5 134.8 48.2 133.15 46.3 131.8 44.15 131.85 42.35 Q133.0 44.85 134.95 47.25 L138.8 50.85" fill="#ffcea1" fill-rule="evenodd" stroke="none"/>
    <path d="M138.8 73.55 L138.85 74.7 137.2 73.25 134.8 70.95 133.15 69.05 Q132.3 68.0 131.8 66.85 L131.85 65.1 Q133.0 67.6 134.95 70.0 L138.8 73.55" fill="#ffcea1" fill-rule="evenodd" stroke="none"/>
    <path d="M131.85 65.1 L131.85 63.25 Q132.65 65.25 134.0 67.1 L135.3 68.55 137.75 71.1 138.75 72.1 138.8 72.65 138.8 73.55 134.95 70.0 Q133.0 67.6 131.85 65.1" fill="url(#gradient18)" fill-rule="evenodd" stroke="none"/>
    <path d="M115.9 133.85 Q113.25 135.05 111.3 136.65 111.05 136.55 111.15 136.7 109.35 138.1 108.5 139.75 L108.35 139.95 107.9 140.35 106.8 140.4 107.75 139.7 Q108.65 138.0 110.4 136.4 112.3 134.85 114.95 133.65 L115.9 133.85" fill="#ffcea1" fill-rule="evenodd" stroke="none"/>
    <path d="M115.9 133.85 L116.65 133.9 117.4 134.0 Q114.55 135.25 112.8 136.9 L112.7 137.0 Q111.0 138.2 110.05 139.8 L109.7 140.35 108.75 140.35 107.9 140.35 108.35 139.95 108.5 139.75 Q109.35 138.1 111.15 136.7 111.05 136.55 111.3 136.65 113.25 135.05 115.9 133.85" fill="url(#gradient19)" fill-rule="evenodd" stroke="none"/>
    <path d="M138.8 97.5 L138.85 98.65 137.2 97.2 134.8 94.85 133.15 92.95 Q132.3 91.9 131.8 90.75 L131.85 89.05 Q133.0 91.55 134.95 93.9 L138.8 97.5" fill="#ffcea1" fill-rule="evenodd" stroke="none"/>
    <path d="M131.85 89.05 L131.85 87.2 Q132.65 89.2 134.0 91.05 L135.3 92.5 137.75 95.05 138.75 96.0 138.8 96.6 138.8 97.5 134.95 93.9 Q133.0 91.55 131.85 89.05" fill="url(#gradient20)" fill-rule="evenodd" stroke="none"/>
    <path d="M131.85 110.5 L131.85 108.7 Q132.65 110.7 134.0 112.55 L135.3 114.0 137.75 116.55 138.75 117.5 138.8 118.1 138.8 119.0 134.95 115.45 Q133.0 113.05 131.85 110.5" fill="url(#gradient21)" fill-rule="evenodd" stroke="none"/>
    <path d="M138.8 119.0 L138.85 120.1 137.2 118.65 134.8 116.4 133.15 114.45 131.8 112.3 131.85 110.5 Q133.0 113.05 134.95 115.45 L138.8 119.0" fill="#ffcea1" fill-rule="evenodd" stroke="none"/>
    <path d="M127.15 125.65 L128.0 124.05 Q127.7 126.15 128.0 128.45 L128.4 130.35 129.25 133.85 129.65 135.15 129.4 135.7 128.95 136.5 127.4 131.4 Q126.85 128.4 127.15 125.65" fill="url(#gradient22)" fill-rule="evenodd" stroke="none"/>
    <path d="M128.95 136.5 L128.4 137.45 127.75 135.4 Q126.85 133.15 126.75 132.1 L126.35 129.7 Q126.1 128.35 126.2 127.1 L127.15 125.65 Q126.85 128.4 127.4 131.4 L128.95 136.5" fill="#ffcea1" fill-rule="evenodd" stroke="none"/>
    <path d="M8.7 -1.75 L9.5 -2.65 9.65 -0.35 9.75 3.2 9.55 5.7 8.9 8.3 7.65 9.6 Q8.65 6.9 8.9 3.7 L8.7 -1.75" fill="#ffcea1" fill-rule="evenodd" stroke="none"/>
    <path d="M7.65 9.6 L6.3 11.0 Q7.1 8.85 7.5 6.45 L7.65 4.5 7.7 0.75 7.65 -0.7 8.05 -1.05 8.7 -1.75 8.9 3.7 Q8.65 6.9 7.65 9.6" fill="url(#gradient23)" fill-rule="evenodd" stroke="none"/>
    <path d="M126.55 9.45 Q129.25 10.45 132.45 10.7 L137.8 10.5 138.7 11.3 136.45 11.45 132.9 11.55 130.45 11.35 127.8 10.7 126.55 9.45" fill="#ffcea1" fill-rule="evenodd" stroke="none"/>
    <path d="M137.8 10.5 L132.45 10.7 Q129.25 10.45 126.55 9.45 L125.2 8.15 Q127.3 8.9 129.65 9.25 L131.6 9.45 135.35 9.5 136.75 9.45 137.15 9.85 137.8 10.5" fill="url(#gradient24)" fill-rule="evenodd" stroke="none"/>
  </g>
  <defs>
    <linearGradient gradientTransform="matrix(0.0146, -0.086, 0.0866, 0.0147, 67.0, 68.45)" gradientUnits="userSpaceOnUse" id="gradient0" spreadMethod="pad" x1="-819.2" x2="819.2">
      <stop offset="0.0" stop-color="#f78802"/>
      <stop offset="1.0" stop-color="#e2c700"/>
    </linearGradient>
    <linearGradient gradientTransform="matrix(0.0176, -0.002, -0.0072, -0.015, 92.1, 139.15)" gradientUnits="userSpaceOnUse" id="gradient1" spreadMethod="pad" x1="-819.2" x2="819.2">
      <stop offset="0.0" stop-color="#936132"/>
      <stop offset="1.0" stop-color="#703f11"/>
    </linearGradient>
    <linearGradient gradientTransform="matrix(0.0176, -0.002, -0.0072, -0.015, 69.8, 139.15)" gradientUnits="userSpaceOnUse" id="gradient2" spreadMethod="pad" x1="-819.2" x2="819.2">
      <stop offset="0.0" stop-color="#936132"/>
      <stop offset="1.0" stop-color="#703f11"/>
    </linearGradient>
    <linearGradient gradientTransform="matrix(0.0176, -0.002, -0.0072, -0.015, 46.5, 139.15)" gradientUnits="userSpaceOnUse" id="gradient3" spreadMethod="pad" x1="-819.2" x2="819.2">
      <stop offset="0.0" stop-color="#936132"/>
      <stop offset="1.0" stop-color="#703f11"/>
    </linearGradient>
    <linearGradient gradientTransform="matrix(0.0176, -0.002, -0.0072, -0.015, 23.5, 139.15)" gradientUnits="userSpaceOnUse" id="gradient4" spreadMethod="pad" x1="-819.2" x2="819.2">
      <stop offset="0.0" stop-color="#936132"/>
      <stop offset="1.0" stop-color="#703f11"/>
    </linearGradient>
    <linearGradient gradientTransform="matrix(0.017, 0.0058, -0.0069, -0.023, 5.1, 133.45)" gradientUnits="userSpaceOnUse" id="gradient5" spreadMethod="pad" x1="-819.2" x2="819.2">
      <stop offset="0.0" stop-color="#936132"/>
      <stop offset="1.0" stop-color="#703f11"/>
    </linearGradient>
    <linearGradient gradientTransform="matrix(0.0023, 0.0177, 0.0169, -0.0072, -3.1, 114.1)" gradientUnits="userSpaceOnUse" id="gradient6" spreadMethod="pad" x1="-819.2" x2="819.2">
      <stop offset="0.0" stop-color="#936132"/>
      <stop offset="1.0" stop-color="#703f11"/>
    </linearGradient>
    <linearGradient gradientTransform="matrix(0.002, 0.0177, 0.0149, -0.0072, -3.25, 92.2)" gradientUnits="userSpaceOnUse" id="gradient7" spreadMethod="pad" x1="-819.2" x2="819.2">
      <stop offset="0.0" stop-color="#936132"/>
      <stop offset="1.0" stop-color="#703f11"/>
    </linearGradient>
    <linearGradient gradientTransform="matrix(0.002, 0.0177, 0.0149, -0.0072, -3.25, 67.05)" gradientUnits="userSpaceOnUse" id="gradient8" spreadMethod="pad" x1="-819.2" x2="819.2">
      <stop offset="0.0" stop-color="#936132"/>
      <stop offset="1.0" stop-color="#703f11"/>
    </linearGradient>
    <linearGradient gradientTransform="matrix(0.002, 0.0177, 0.0149, -0.0072, -3.25, 42.6)" gradientUnits="userSpaceOnUse" id="gradient9" spreadMethod="pad" x1="-819.2" x2="819.2">
      <stop offset="0.0" stop-color="#936132"/>
      <stop offset="1.0" stop-color="#703f11"/>
    </linearGradient>
    <linearGradient gradientTransform="matrix(0.002, 0.0177, 0.0149, -0.0072, -3.25, 20.65)" gradientUnits="userSpaceOnUse" id="gradient10" spreadMethod="pad" x1="-819.2" x2="819.2">
      <stop offset="0.0" stop-color="#936132"/>
      <stop offset="1.0" stop-color="#703f11"/>
    </linearGradient>
    <linearGradient gradientTransform="matrix(-0.0176, 0.0021, 0.0072, 0.015, 25.15, -2.65)" gradientUnits="userSpaceOnUse" id="gradient11" spreadMethod="pad" x1="-819.2" x2="819.2">
      <stop offset="0.0" stop-color="#936132"/>
      <stop offset="1.0" stop-color="#703f11"/>
    </linearGradient>
    <linearGradient gradientTransform="matrix(-0.0176, 0.0021, 0.0072, 0.015, 51.0, -2.65)" gradientUnits="userSpaceOnUse" id="gradient12" spreadMethod="pad" x1="-819.2" x2="819.2">
      <stop offset="0.0" stop-color="#936132"/>
      <stop offset="1.0" stop-color="#703f11"/>
    </linearGradient>
    <linearGradient gradientTransform="matrix(-0.0176, 0.0021, 0.0072, 0.015, 73.05, -2.65)" gradientUnits="userSpaceOnUse" id="gradient13" spreadMethod="pad" x1="-819.2" x2="819.2">
      <stop offset="0.0" stop-color="#936132"/>
      <stop offset="1.0" stop-color="#703f11"/>
    </linearGradient>
    <linearGradient gradientTransform="matrix(-0.0176, 0.0021, 0.0072, 0.015, 96.8, -2.65)" gradientUnits="userSpaceOnUse" id="gradient14" spreadMethod="pad" x1="-819.2" x2="819.2">
      <stop offset="0.0" stop-color="#936132"/>
      <stop offset="1.0" stop-color="#703f11"/>
    </linearGradient>
    <linearGradient gradientTransform="matrix(-0.0176, 0.0021, 0.0072, 0.015, 116.75, -2.65)" gradientUnits="userSpaceOnUse" id="gradient15" spreadMethod="pad" x1="-819.2" x2="819.2">
      <stop offset="0.0" stop-color="#936132"/>
      <stop offset="1.0" stop-color="#703f11"/>
    </linearGradient>
    <linearGradient gradientTransform="matrix(-0.0021, -0.0184, -0.0155, 0.0075, 137.55, 25.55)" gradientUnits="userSpaceOnUse" id="gradient16" spreadMethod="pad" x1="-819.2" x2="819.2">
      <stop offset="0.0" stop-color="#936132"/>
      <stop offset="1.0" stop-color="#703f11"/>
    </linearGradient>
    <linearGradient gradientTransform="matrix(-0.0021, -0.0184, -0.0155, 0.0075, 137.55, 47.5)" gradientUnits="userSpaceOnUse" id="gradient17" spreadMethod="pad" x1="-819.2" x2="819.2">
      <stop offset="0.0" stop-color="#936132"/>
      <stop offset="1.0" stop-color="#703f11"/>
    </linearGradient>
    <linearGradient gradientTransform="matrix(-0.0021, -0.0184, -0.0155, 0.0075, 137.55, 70.2)" gradientUnits="userSpaceOnUse" id="gradient18" spreadMethod="pad" x1="-819.2" x2="819.2">
      <stop offset="0.0" stop-color="#936132"/>
      <stop offset="1.0" stop-color="#703f11"/>
    </linearGradient>
    <linearGradient gradientTransform="matrix(0.0176, -0.002, -0.0072, -0.015, 111.05, 139.15)" gradientUnits="userSpaceOnUse" id="gradient19" spreadMethod="pad" x1="-819.2" x2="819.2">
      <stop offset="0.0" stop-color="#936132"/>
      <stop offset="1.0" stop-color="#703f11"/>
    </linearGradient>
    <linearGradient gradientTransform="matrix(-0.0021, -0.0184, -0.0155, 0.0075, 137.55, 94.15)" gradientUnits="userSpaceOnUse" id="gradient20" spreadMethod="pad" x1="-819.2" x2="819.2">
      <stop offset="0.0" stop-color="#936132"/>
      <stop offset="1.0" stop-color="#703f11"/>
    </linearGradient>
    <linearGradient gradientTransform="matrix(-0.0021, -0.0184, -0.0155, 0.0075, 137.55, 115.65)" gradientUnits="userSpaceOnUse" id="gradient21" spreadMethod="pad" x1="-819.2" x2="819.2">
      <stop offset="0.0" stop-color="#936132"/>
      <stop offset="1.0" stop-color="#703f11"/>
    </linearGradient>
    <linearGradient gradientTransform="matrix(0.0073, -0.017, -0.0171, -0.0013, 129.5, 132.95)" gradientUnits="userSpaceOnUse" id="gradient22" spreadMethod="pad" x1="-819.2" x2="819.2">
      <stop offset="0.0" stop-color="#936132"/>
      <stop offset="1.0" stop-color="#703f11"/>
    </linearGradient>
    <linearGradient gradientTransform="matrix(-0.0119, 0.0151, 0.0169, 0.0059, 7.15, 1.6)" gradientUnits="userSpaceOnUse" id="gradient23" spreadMethod="pad" x1="-819.2" x2="819.2">
      <stop offset="0.0" stop-color="#936132"/>
      <stop offset="1.0" stop-color="#703f11"/>
    </linearGradient>
    <linearGradient gradientTransform="matrix(-0.015, -0.0119, -0.0058, 0.017, 134.5, 9.0)" gradientUnits="userSpaceOnUse" id="gradient24" spreadMethod="pad" x1="-819.2" x2="819.2">
      <stop offset="0.0" stop-color="#936132"/>
      <stop offset="1.0" stop-color="#703f11"/>
    </linearGradient>
  </defs>
</svg>
