<?xml version="1.0" encoding="UTF-8" standalone="no"?>
<svg xmlns:xlink="http://www.w3.org/1999/xlink" height="93.8px" width="125.35px" xmlns="http://www.w3.org/2000/svg">
  <g transform="matrix(1.0, 0.0, 0.0, 1.0, -33.05, -231.15)">
    <path d="M42.6 312.35 L35.55 323.7 41.7 323.7 42.6 323.6 42.6 324.75 33.05 324.75 33.05 323.55 40.05 312.25 34.0 312.25 33.05 312.35 33.05 311.2 42.6 311.2 42.6 312.35" fill="#bc0000" fill-rule="evenodd" stroke="none"/>
    <path d="M50.65 323.7 L51.35 323.6 51.35 324.75 44.45 324.75 44.55 324.15 44.55 311.85 44.45 311.2 46.9 311.2 46.8 311.85 46.8 323.7 50.65 323.7" fill="#bc0000" fill-rule="evenodd" stroke="none"/>
    <path d="M65.05 317.95 Q65.05 321.3 63.2 323.25 61.5 324.95 58.3 324.95 55.0 324.95 53.35 323.15 51.65 321.25 51.65 317.85 51.65 315.7 52.45 314.15 54.05 311.1 58.35 311.0 61.4 311.0 63.1 312.65 65.05 314.55 65.05 317.95 M62.6 318.0 Q62.6 312.15 58.35 312.05 56.1 312.05 55.05 313.75 54.05 315.35 54.05 317.9 54.05 323.9 58.35 323.9 60.55 323.9 61.6 322.25 L62.4 320.4 62.6 318.0" fill="#bc0000" fill-rule="evenodd" stroke="none"/>
    <path d="M75.9 324.25 L68.35 313.7 68.35 324.1 68.45 324.75 67.25 324.75 67.3 324.1 67.3 311.85 67.25 311.2 69.4 311.2 69.65 311.65 77.05 322.05 77.05 311.85 76.95 311.2 78.15 311.2 78.1 311.85 78.1 324.15 78.2 324.75 76.2 324.75 75.9 324.25" fill="#bc0000" fill-rule="evenodd" stroke="none"/>
    <path d="M91.1 313.4 Q89.25 312.15 87.4 312.15 85.4 312.15 84.2 313.5 83.45 314.3 83.15 315.35 82.8 316.85 82.8 318.05 82.8 321.15 84.2 322.6 85.3 323.85 87.2 323.85 88.4 323.85 89.3 323.3 L89.3 318.0 89.25 317.35 91.6 317.35 91.5 318.0 91.5 323.2 Q91.5 323.7 91.65 324.05 L89.0 324.8 86.95 324.95 Q84.85 324.95 83.5 324.2 81.9 323.3 81.1 321.55 80.4 320.15 80.4 318.05 80.4 314.45 82.6 312.55 84.45 311.0 87.3 311.0 89.1 311.0 91.1 311.75 L91.1 313.4" fill="#bc0000" fill-rule="evenodd" stroke="none"/>
    <path d="M109.85 311.75 L109.85 313.4 Q108.0 312.15 106.15 312.15 104.15 312.15 102.95 313.5 102.15 314.3 101.9 315.35 101.55 316.55 101.55 318.05 101.55 321.1 102.9 322.6 104.1 323.85 105.95 323.85 107.1 323.85 108.05 323.3 L108.05 318.0 107.95 317.35 110.35 317.35 110.25 318.0 110.25 323.2 Q110.25 323.7 110.4 324.05 L107.7 324.8 105.7 324.95 Q103.6 324.95 102.25 324.2 100.6 323.3 99.8 321.55 99.1 320.0 99.1 318.05 99.1 314.5 101.3 312.55 103.15 311.0 106.05 311.0 107.85 311.0 109.85 311.75" fill="#bc0000" fill-rule="evenodd" stroke="none"/>
    <path d="M114.2 320.5 L112.85 324.2 112.8 324.75 111.5 324.75 111.8 324.2 116.25 311.7 116.3 311.2 118.3 311.2 118.4 311.65 122.95 324.2 123.3 324.75 120.65 324.75 120.55 324.2 119.25 320.5 114.2 320.5 M114.55 319.55 L118.85 319.55 116.65 313.4 114.55 319.55" fill="#bc0000" fill-rule="evenodd" stroke="none"/>
    <path d="M137.45 311.7 L139.25 324.2 139.4 324.75 136.95 324.75 137.0 324.45 137.0 324.2 135.55 314.1 132.1 324.2 132.0 324.65 132.0 324.75 130.1 324.75 130.1 324.65 130.0 324.25 126.6 314.35 125.0 324.2 125.0 324.3 125.05 324.75 123.8 324.75 124.0 324.15 125.9 311.8 125.95 311.6 125.9 311.2 127.95 311.2 128.05 311.7 131.65 322.25 135.4 311.35 135.4 311.2 137.45 311.2 137.4 311.5 137.45 311.7" fill="#bc0000" fill-rule="evenodd" stroke="none"/>
    <path d="M148.45 312.3 L147.8 312.2 143.75 312.2 143.75 317.4 147.7 317.4 148.45 317.3 148.45 318.4 143.75 318.35 143.75 323.7 147.65 323.7 148.45 323.6 148.45 324.75 141.4 324.75 141.5 324.15 141.5 311.85 141.4 311.2 148.45 311.2 148.45 312.3" fill="#bc0000" fill-rule="evenodd" stroke="none"/>
    <path d="M152.75 312.75 Q152.2 313.3 152.2 314.1 152.2 314.9 152.75 315.45 153.3 316.0 155.0 316.75 156.9 317.65 157.55 318.45 158.4 319.55 158.4 320.85 158.4 322.05 157.8 323.0 156.55 324.95 153.7 324.95 L151.85 324.75 149.95 323.95 150.4 322.3 151.3 323.05 Q152.45 323.8 153.65 323.8 154.95 323.8 155.6 323.05 156.25 322.4 156.25 321.45 156.25 320.35 155.35 319.65 155.0 319.35 153.3 318.55 151.6 317.75 150.9 316.95 150.05 315.95 150.05 314.75 150.05 313.65 150.65 312.75 151.95 311.0 154.55 311.0 156.15 311.0 157.7 311.75 L157.3 313.15 Q155.75 312.1 154.45 312.1 153.35 312.1 152.75 312.75" fill="#bc0000" fill-rule="evenodd" stroke="none"/>
    <path d="M114.05 252.75 L114.05 264.9 120.15 264.9 120.15 270.0 108.55 270.0 108.55 252.75 114.05 252.75" fill="#313829" fill-rule="evenodd" stroke="none"/>
    <path d="M70.75 254.35 Q72.6 252.65 75.75 252.65 L78.6 253.05 Q79.8 253.35 81.15 254.05 L79.55 257.85 78.05 257.05 76.15 256.7 74.95 256.95 Q74.45 257.3 74.45 257.9 74.45 258.9 77.3 259.55 L77.95 259.7 Q79.65 260.1 80.55 261.2 81.5 262.3 81.5 264.0 81.5 266.75 79.55 268.4 77.55 270.15 74.4 270.15 L71.05 269.65 Q69.7 269.3 68.05 268.4 L69.75 264.25 71.8 265.4 73.9 265.9 Q74.7 265.9 75.1 265.55 75.65 265.25 75.65 264.6 75.65 263.55 73.5 263.15 L73.2 263.05 72.6 262.95 Q70.8 262.5 69.85 261.4 68.9 260.3 68.9 258.6 68.9 256.0 70.75 254.35" fill="#313829" fill-rule="evenodd" stroke="none"/>
    <path d="M98.7 269.65 L100.75 253.0 106.45 253.0 104.4 269.65 98.7 269.65" fill="#ff811b" fill-rule="evenodd" stroke="none"/>
    <path d="M98.7 269.65 L100.75 253.0 106.45 253.0 104.4 269.65 98.7 269.65 Z" fill="none" stroke="#ff811b" stroke-linecap="butt" stroke-linejoin="miter" stroke-width="1.0"/>
    <path d="M96.25 254.25 Q98.0 255.7 98.0 258.95 98.0 261.95 96.45 263.3 94.9 264.65 91.35 264.65 L88.95 264.65 88.95 269.9 83.3 269.9 83.3 252.8 90.6 252.8 Q94.6 252.8 96.25 254.25 M90.35 257.0 L89.0 257.0 89.0 260.75 90.35 260.75 92.0 260.3 Q92.6 259.8 92.6 258.9 92.6 258.05 92.0 257.5 91.45 257.0 90.35 257.0" fill="#313829" fill-rule="evenodd" stroke="none"/>
    <path d="M126.75 231.65 Q128.3 231.65 129.4 232.75 130.5 233.8 130.5 235.35 130.5 236.9 129.4 238.0 128.3 239.1 126.75 239.1 125.2 239.1 124.1 238.0 123.0 236.9 123.0 235.35 123.0 233.8 124.1 232.75 125.2 231.65 126.75 231.65" fill="#ff811b" fill-rule="evenodd" stroke="none"/>
    <path d="M126.75 231.65 Q125.2 231.65 124.1 232.75 123.0 233.8 123.0 235.35 123.0 236.9 124.1 238.0 125.2 239.1 126.75 239.1 128.3 239.1 129.4 238.0 130.5 236.9 130.5 235.35 130.5 233.8 129.4 232.75 128.3 231.65 126.75 231.65 Z" fill="none" stroke="#ff811b" stroke-linecap="butt" stroke-linejoin="miter" stroke-width="1.0"/>
    <path d="M121.15 235.7 L121.45 236.8 122.15 237.65 Q113.95 238.7 108.05 245.25 105.1 248.55 103.75 251.65 L101.5 249.1 Q98.8 246.45 96.25 245.95 94.4 245.6 91.9 247.45 89.8 249.0 87.65 251.75 85.2 248.35 81.35 246.65 79.45 245.8 78.05 245.65 L81.2 246.2 Q84.9 247.3 87.6 250.15 90.15 247.2 91.9 245.9 94.0 244.4 95.95 244.6 97.9 244.75 99.9 246.4 101.1 247.4 103.5 250.15 105.05 247.25 107.5 244.65 112.25 239.65 121.15 235.7" fill="#ff811b" fill-opacity="0.4" fill-rule="evenodd" stroke="none"/>
    <path d="M73.35 271.45 L73.15 272.25 71.7 271.95 Q70.5 271.95 69.8 272.8 69.05 273.65 69.05 275.15 69.05 276.65 69.75 277.5 70.45 278.35 71.6 278.35 L72.75 278.15 72.75 275.75 71.4 275.75 71.4 274.95 73.55 274.95 73.55 278.8 71.55 279.2 Q69.95 279.2 69.05 278.15 68.1 277.05 68.1 275.2 68.15 273.35 69.1 272.25 70.1 271.05 71.7 271.05 L73.35 271.45" fill="#313829" fill-rule="evenodd" stroke="none"/>
    <path d="M83.3 271.15 L85.55 279.15 84.65 279.15 83.95 276.6 81.6 276.6 80.9 279.15 80.0 279.15 82.25 271.15 83.3 271.15 M82.75 272.05 L81.75 275.8 83.75 275.8 82.75 272.05" fill="#313829" fill-rule="evenodd" stroke="none"/>
    <path d="M98.3 271.15 L98.75 279.15 97.9 279.15 97.75 275.65 97.65 272.2 97.6 272.2 95.6 279.1 94.95 279.1 93.1 272.2 92.8 279.15 91.95 279.15 92.4 271.15 93.5 271.15 94.65 275.0 95.3 277.7 95.35 277.7 96.05 275.0 97.25 271.15 98.3 271.15" fill="#313829" fill-rule="evenodd" stroke="none"/>
    <path d="M105.7 271.15 L109.25 271.15 109.25 272.0 106.55 272.0 106.55 274.55 109.15 274.55 109.15 275.4 106.55 275.4 106.55 278.25 109.4 278.25 109.4 279.15 105.7 279.15 105.7 271.15" fill="#313829" fill-rule="evenodd" stroke="none"/>
    <path d="M119.6 271.4 L119.35 272.25 Q118.8 271.85 118.1 271.85 116.85 271.85 116.85 273.05 116.85 274.0 118.15 274.6 119.85 275.4 119.85 276.95 119.85 277.95 119.3 278.55 118.65 279.25 117.55 279.25 116.45 279.25 115.85 278.75 L116.05 277.9 Q116.85 278.4 117.6 278.4 118.25 278.4 118.6 278.05 119.0 277.65 119.0 277.05 119.0 276.05 117.7 275.45 115.95 274.7 115.95 273.2 115.95 272.25 116.55 271.65 117.15 271.0 118.1 271.0 L119.6 271.4" fill="#313829" fill-rule="evenodd" stroke="none"/>
    <path d="M121.5 271.0 Q121.95 271.0 122.3 271.3 L122.6 272.05 122.3 272.85 Q121.95 273.15 121.5 273.15 121.05 273.15 120.75 272.85 120.4 272.5 120.4 272.05 120.4 271.6 120.75 271.3 121.05 271.0 121.5 271.0 M120.95 271.45 Q120.7 271.7 120.7 272.05 120.7 272.9 121.5 272.9 122.3 272.9 122.3 272.05 122.3 271.2 121.5 271.2 121.15 271.2 120.95 271.45 M121.85 271.6 L121.95 271.85 121.75 272.1 121.95 272.35 122.05 272.6 121.75 272.6 121.7 272.35 121.45 272.2 121.35 272.2 121.35 272.6 121.1 272.6 121.1 271.55 121.5 271.5 121.85 271.6 M121.35 272.0 L121.45 272.0 121.7 271.85 121.5 271.7 121.35 271.7 121.35 272.0" fill="#313829" fill-rule="evenodd" stroke="none"/>
  </g>
</svg>
