<?xml version="1.0" encoding="UTF-8" standalone="no"?>
<svg xmlns:xlink="http://www.w3.org/1999/xlink" height="162.75px" width="645.4px" xmlns="http://www.w3.org/2000/svg">
  <g transform="matrix(1.0, 0.0, 0.0, 1.0, -39.05, -221.9)">
    <path d="M73.65 321.25 L76.15 321.4 82.55 324.85 84.85 324.9 90.3 328.0 92.95 327.85 98.45 331.2 101.05 331.1 108.95 335.45 111.8 335.25 120.2 340.0 122.95 339.55 130.7 344.15 126.5 347.1 126.15 347.35 124.95 348.2 124.9 348.25 123.8 349.05 123.7 349.0 123.35 349.3 123.0 349.55 117.45 353.4 113.9 355.85 112.75 356.7 112.1 357.1 110.9 357.95 110.2 358.4 102.95 363.45 41.05 382.65 43.55 372.65 44.75 371.1 46.6 362.25 48.15 360.55 49.85 352.4 51.3 350.7 52.15 344.85 53.65 343.05 54.6 337.4 56.05 335.8 57.2 329.15 58.7 327.5 62.1 316.75 62.15 316.7 73.65 321.25" fill="#e2a83a" fill-rule="evenodd" stroke="none"/>
    <path d="M73.65 321.25 L76.15 321.4 82.55 324.85 84.85 324.9 90.3 328.0 92.95 327.85 98.45 331.2 101.05 331.1 108.95 335.45 111.8 335.25 120.2 340.0 122.95 339.55 130.7 344.15 126.5 347.1 126.15 347.35 124.95 348.2 124.9 348.25 123.8 349.05 123.7 349.0 123.35 349.3 123.0 349.55 117.45 353.4 113.9 355.85 112.75 356.7 112.1 357.1 110.9 357.95 110.2 358.4 102.95 363.45 41.05 382.65 43.55 372.65 44.75 371.1 46.6 362.25 48.15 360.55 49.85 352.4 51.3 350.7 52.15 344.85 53.65 343.05 54.6 337.4 56.05 335.8 57.2 329.15 58.7 327.5 62.1 316.75 62.15 316.7 73.65 321.25 Z" fill="none" stroke="#936102" stroke-linecap="round" stroke-linejoin="round" stroke-width="4.0"/>
    <path d="M62.1 316.75 L62.15 316.7 73.65 321.25 68.65 324.2 62.1 316.75 M76.15 321.4 L82.55 324.85 78.0 327.55 72.6 323.35 76.15 321.4 M84.85 324.9 L90.3 328.0 87.8 329.4 82.1 326.55 84.85 324.9 M92.95 327.85 L98.45 331.2 89.35 336.5 84.55 332.7 92.95 327.85 M101.05 331.1 L108.95 335.45 104.65 337.9 96.45 333.8 101.05 331.1 M111.8 335.25 L120.2 340.0 117.3 341.65 112.15 338.55 100.65 345.4 97.95 343.25 111.8 335.25 M122.95 339.55 L130.7 344.15 126.5 347.1 118.4 342.2 122.95 339.55 M110.2 358.4 L102.95 363.45 95.8 355.4 102.35 351.55 110.2 358.4 M69.5 325.15 L71.55 324.0 76.8 328.2 73.85 329.9 73.65 329.9 69.5 325.15 M74.4 330.85 L80.9 327.2 86.6 330.1 78.2 334.95 78.05 335.0 74.4 330.85 M78.9 335.95 L79.0 335.9 83.35 333.35 88.15 337.15 82.75 340.3 82.7 340.3 78.9 335.95 M83.5 341.2 L95.2 334.45 103.4 338.7 88.8 347.1 88.6 347.15 83.5 341.2 M89.45 348.1 L96.65 343.95 99.4 346.1 97.45 347.3 101.45 350.75 95.25 354.35 95.0 354.45 89.45 348.1" fill="#f5bc51" fill-rule="evenodd" stroke="none"/>
    <path d="M73.65 321.25 L76.15 321.4 72.6 323.35 78.0 327.55 82.55 324.85 84.85 324.9 82.1 326.55 87.8 329.4 90.3 328.0 92.95 327.85 84.55 332.7 89.35 336.5 98.45 331.2 101.05 331.1 96.45 333.8 104.65 337.9 108.95 335.45 111.8 335.25 97.95 343.25 100.65 345.4 99.4 346.1 96.65 343.95 89.45 348.1 88.6 347.15 88.8 347.1 103.4 338.7 95.2 334.45 83.5 341.2 82.7 340.3 82.75 340.3 88.15 337.15 83.35 333.35 79.0 335.9 78.9 335.95 78.05 335.0 78.2 334.95 86.6 330.1 80.9 327.2 74.4 330.85 73.65 329.9 73.85 329.9 76.8 328.2 71.55 324.0 69.5 325.15 69.45 325.1 68.65 324.2 73.65 321.25 M120.2 340.0 L122.95 339.55 118.4 342.2 117.3 341.65 120.2 340.0 M102.35 351.55 L95.8 355.4 95.0 354.45 95.25 354.35 101.45 350.75 102.35 351.55" fill="#ffd583" fill-rule="evenodd" stroke="none"/>
    <path d="M85.0 369.05 L83.6 369.5 80.05 360.6 54.1 369.2 52.55 379.15 50.95 379.55 52.6 369.7 43.55 372.65 44.75 371.1 65.9 364.05 65.15 356.15 46.6 362.25 48.15 360.55 54.6 358.4 55.95 350.35 49.85 352.4 51.3 350.7 64.2 346.4 63.7 341.0 52.15 344.85 53.65 343.05 57.4 341.85 58.4 336.15 54.6 337.4 56.05 335.8 62.95 333.45 62.35 327.5 57.2 329.15 58.7 327.5 68.65 324.2 69.45 325.1 63.6 327.05 64.2 333.1 73.65 329.9 74.4 330.85 69.7 332.4 71.7 337.15 78.05 335.0 78.9 335.95 65.0 340.6 65.5 346.0 82.7 340.3 83.5 341.2 74.6 344.2 77.45 350.85 88.6 347.15 89.45 348.1 66.45 355.7 67.3 363.6 95.0 354.45 95.8 355.4 81.3 360.2 85.0 369.05 M59.2 335.95 L58.35 341.55 70.65 337.45 68.75 332.65 59.2 335.95 M57.0 350.0 L55.8 358.0 76.25 351.25 73.55 344.5 57.0 350.0" fill="#f5c463" fill-rule="evenodd" stroke="none"/>
    <path d="M126.5 347.1 L126.15 347.35 117.9 342.5 117.9 342.55 116.9 341.9 116.85 341.9 112.0 339.05 98.4 347.3 110.9 357.95 110.2 358.4 102.35 351.55 101.45 350.75 97.45 347.3 99.4 346.1 100.65 345.4 112.15 338.55 117.3 341.65 118.4 342.2 126.5 347.1 M102.95 363.45 L85.0 369.05 81.3 360.2 95.8 355.4 102.95 363.45 M83.6 369.5 L52.55 379.15 54.1 369.2 80.05 360.6 83.6 369.5 M50.95 379.55 L41.05 382.65 43.55 372.65 52.6 369.7 50.95 379.55 M44.75 371.1 L46.6 362.25 65.15 356.15 65.9 364.05 44.75 371.1 M48.15 360.55 L49.85 352.4 55.95 350.35 54.6 358.4 48.15 360.55 M51.3 350.7 L52.15 344.85 63.7 341.0 64.2 346.4 51.3 350.7 M53.65 343.05 L54.6 337.4 58.4 336.15 57.4 341.85 53.65 343.05 M56.05 335.8 L57.2 329.15 62.35 327.5 62.95 333.45 56.05 335.8 M58.7 327.5 L62.1 316.75 68.65 324.2 58.7 327.5 M59.2 335.95 L68.75 332.65 70.65 337.45 58.35 341.55 59.2 335.95 M69.5 325.15 L73.65 329.9 64.2 333.1 63.6 327.05 69.45 325.1 69.5 325.15 M82.7 340.3 L65.5 346.0 65.0 340.6 78.9 335.95 82.7 340.3 M78.05 335.0 L71.7 337.15 69.7 332.4 74.4 330.85 78.05 335.0 M95.0 354.45 L67.3 363.6 66.45 355.7 89.45 348.1 95.0 354.45 M57.0 350.0 L73.55 344.5 76.25 351.25 55.8 358.0 57.0 350.0 M88.6 347.15 L77.45 350.85 74.6 344.2 83.5 341.2 88.6 347.15" fill="#e2a83a" fill-rule="evenodd" stroke="none"/>
    <path d="M126.15 347.35 L124.95 348.2 111.9 340.1 111.8 340.2 100.15 347.4 100.9 348.0 105.95 352.15 112.1 357.1 110.9 357.95 98.4 347.3 112.0 339.05 116.85 341.9 116.9 341.9 117.9 342.55 117.9 342.5 126.15 347.35" fill="#fcd994" fill-rule="evenodd" stroke="none"/>
    <path d="M124.95 348.2 L124.9 348.25 123.8 349.05 123.7 349.0 111.8 341.15 111.8 341.1 111.75 341.1 111.8 340.2 111.9 340.1 124.95 348.2" fill="#bf8f34" fill-rule="evenodd" stroke="none"/>
    <path d="M123.7 349.0 L123.35 349.3 123.0 349.55 111.75 341.8 111.8 341.15 123.7 349.0" fill="#795002" fill-rule="evenodd" stroke="none"/>
    <path d="M111.8 341.15 L111.75 341.8 105.95 352.15 100.9 348.0 111.8 341.15" fill="url(#gradient0)" fill-rule="evenodd" stroke="none"/>
    <path d="M111.8 340.2 L111.75 341.1 111.8 341.1 111.8 341.15 100.9 348.0 100.15 347.4 111.8 340.2" fill="#91691a" fill-rule="evenodd" stroke="none"/>
    <path d="M123.0 349.55 L117.45 353.4 113.9 355.85 112.75 356.7 112.1 357.1 105.95 352.15 111.75 341.8 123.0 349.55" fill="url(#gradient1)" fill-rule="evenodd" stroke="none"/>
    <path d="M663.15 308.15 L670.8 324.85 675.6 327.3 682.45 343.1 672.7 342.95 671.85 342.85 669.0 342.9 668.9 342.9 666.35 342.9 666.25 342.85 665.35 342.85 664.5 342.8 651.65 342.6 643.35 342.45 640.6 342.45 639.15 342.4 636.45 342.3 634.85 342.3 617.8 342.05 500.5 302.6 515.55 289.9 519.2 288.8 531.9 277.15 536.15 276.2 547.95 265.45 552.05 264.5 560.0 256.4 564.3 255.3 572.05 247.55 576.05 246.7 585.3 237.7 589.5 236.8 606.85 224.0 606.95 223.9 619.65 243.85 623.4 246.75 629.45 259.35 632.9 262.05 637.95 272.85 642.25 275.65 646.95 286.95 651.15 289.7 658.5 305.25 663.15 308.15" fill="#e2a83a" fill-rule="evenodd" stroke="none"/>
    <path d="M663.15 308.15 L670.8 324.85 675.6 327.3 682.45 343.1 672.7 342.95 671.85 342.85 669.0 342.9 668.9 342.9 666.35 342.9 666.25 342.85 665.35 342.85 664.5 342.8 651.65 342.6 643.35 342.45 640.6 342.45 639.15 342.4 636.45 342.3 634.85 342.3 617.8 342.05 500.5 302.6 515.55 289.9 519.2 288.8 531.9 277.15 536.15 276.2 547.95 265.45 552.05 264.5 560.0 256.4 564.3 255.3 572.05 247.55 576.05 246.7 585.3 237.7 589.5 236.8 606.85 224.0 606.95 223.9 619.65 243.85 623.4 246.75 629.45 259.35 632.9 262.05 637.95 272.85 642.25 275.65 646.95 286.95 651.15 289.7 658.5 305.25 663.15 308.15 Z" fill="none" stroke="#936102" stroke-linecap="round" stroke-linejoin="round" stroke-width="4.0"/>
    <path d="M655.8 318.2 L656.5 317.25 656.5 317.2 666.25 342.85 665.35 342.85 664.5 342.8 655.8 318.2" fill="#795002" fill-rule="evenodd" stroke="none"/>
    <path d="M656.5 317.25 L655.8 318.2 635.2 327.75 631.95 315.7 656.5 317.25" fill="url(#gradient2)" fill-rule="evenodd" stroke="none"/>
    <path d="M656.5 317.2 L656.5 317.25 631.95 315.7 631.5 313.95 657.6 315.8 656.5 317.2" fill="#91691a" fill-rule="evenodd" stroke="none"/>
    <path d="M666.25 342.85 L656.5 317.2 657.6 315.8 657.8 315.8 669.0 342.9 668.9 342.9 666.35 342.9 666.25 342.85" fill="#bf8f34" fill-rule="evenodd" stroke="none"/>
    <path d="M631.95 315.7 L635.2 327.75 639.15 342.4 636.45 342.3 628.9 311.85 659.3 314.25 663.6 324.1 663.55 324.15 664.45 326.25 664.55 326.3 671.85 342.85 669.0 342.9 657.8 315.8 657.6 315.8 631.5 313.95 631.95 315.7" fill="#fcd994" fill-rule="evenodd" stroke="none"/>
    <path d="M651.15 289.7 L640.9 288.7 649.05 304.3 658.5 305.25 663.15 308.15 632.7 305.0 634.55 311.45 631.8 311.15 629.95 304.7 614.65 303.2 614.2 303.05 613.95 300.65 614.2 300.8 646.35 304.05 638.35 288.4 612.6 285.8 612.55 285.8 612.35 283.4 612.55 283.5 624.4 284.65 621.2 273.45 611.55 272.55 611.3 272.45 611.1 270.05 611.35 270.15 629.95 272.0 624.3 261.1 610.45 259.6 610.15 259.5 609.95 257.25 610.35 257.4 616.8 258.1 613.35 245.7 608.9 245.15 608.8 245.1 608.6 242.85 619.65 243.85 623.4 246.75 615.75 245.95 619.35 258.4 629.45 259.35 632.9 262.05 626.8 261.4 632.4 272.25 637.95 272.85 642.25 275.65 623.75 273.75 627.0 284.95 646.95 286.95 651.15 289.7 M665.5 326.3 L664.5 324.2 670.8 324.85 675.6 327.3 665.5 326.3 M615.9 321.45 L615.7 319.15 616.2 319.3 629.8 320.65 630.35 322.85 615.9 321.45" fill="#ffd583" fill-rule="evenodd" stroke="none"/>
    <path d="M658.5 305.25 L649.05 304.3 640.9 288.7 651.15 289.7 658.5 305.25 M646.95 286.95 L627.0 284.95 623.75 273.75 642.25 275.65 646.95 286.95 M637.95 272.85 L632.4 272.25 626.8 261.4 632.9 262.05 637.95 272.85 M629.45 259.35 L619.35 258.4 615.75 245.95 623.4 246.75 629.45 259.35 M619.65 243.85 L608.6 242.85 606.85 224.0 606.95 223.9 619.65 243.85 M608.8 245.1 L608.9 245.15 613.35 245.7 616.8 258.1 610.35 257.4 609.95 257.25 608.8 245.1 M610.15 259.5 L610.45 259.6 624.3 261.1 629.95 272.0 611.35 270.15 611.1 270.05 610.15 259.5 M611.3 272.45 L611.55 272.55 621.2 273.45 624.4 284.65 612.55 283.5 612.35 283.4 611.3 272.45 M612.55 285.8 L612.6 285.8 638.35 288.4 646.35 304.05 614.2 300.8 613.95 300.65 612.55 285.8 M614.2 303.05 L614.65 303.2 629.95 304.7 631.8 311.15 627.45 310.8 629.8 320.65 616.2 319.3 615.7 319.15 614.2 303.05 M634.55 311.45 L632.7 305.0 663.15 308.15 670.8 324.85 664.5 324.2 660.05 313.65 634.55 311.45 M665.5 326.3 L675.6 327.3 682.45 343.1 672.7 342.95 665.5 326.3 M634.85 342.3 L617.8 342.05 615.9 321.45 630.35 322.85 634.85 342.3" fill="#f5bc51" fill-rule="evenodd" stroke="none"/>
    <path d="M631.8 311.15 L634.55 311.45 660.05 313.65 664.5 324.2 665.5 326.3 672.7 342.95 671.85 342.85 664.55 326.3 664.45 326.25 663.55 324.15 663.6 324.1 659.3 314.25 628.9 311.85 636.45 342.3 634.85 342.3 630.35 322.85 629.8 320.65 627.45 310.8 631.8 311.15 M576.05 246.7 L585.3 237.7 595.2 240.85 589.35 250.8 576.05 246.7 M589.5 236.8 L606.85 224.0 608.6 242.85 589.5 236.8 M572.05 247.55 L579.35 249.9 571.4 257.55 564.3 255.3 572.05 247.55 M560.0 256.4 L582.2 263.3 576.9 272.25 552.05 264.5 560.0 256.4 M547.95 265.45 L559.75 269.1 548.55 280.1 536.15 276.2 547.95 265.45 M531.9 277.15 L567.5 288.4 559.8 301.55 519.2 288.8 531.9 277.15 M515.55 289.9 L532.95 295.4 519.25 308.85 500.5 302.6 515.55 289.9 M522.25 309.9 L535.7 296.3 585.55 312.0 581.15 329.75 522.25 309.9 M583.85 330.6 L588.05 312.7 615.9 321.45 617.8 342.05 583.85 330.6 M615.7 319.15 L562.45 302.4 570.05 289.15 614.2 303.05 615.7 319.15 M611.1 270.05 L598.9 266.25 601.1 256.7 610.15 259.5 611.1 270.05 M596.95 265.6 L573.2 258.15 580.85 250.4 599.3 256.1 596.95 265.6 M590.2 293.25 L550.85 280.85 561.75 269.75 593.45 279.75 590.2 293.25 M613.95 300.65 L592.4 293.95 595.55 280.4 612.55 285.8 613.95 300.65 M612.35 283.4 L579.35 273.05 584.55 264.1 611.3 272.45 612.35 283.4 M609.95 257.25 L591.8 251.55 597.55 241.55 608.8 245.1 609.95 257.25" fill="#e2a83a" fill-rule="evenodd" stroke="none"/>
    <path d="M655.8 318.2 L664.5 342.8 651.65 342.6 643.35 342.45 640.6 342.45 639.15 342.4 635.2 327.75 655.8 318.2" fill="url(#gradient3)" fill-rule="evenodd" stroke="none"/>
    <path d="M608.6 242.85 L608.8 245.1 597.55 241.55 591.8 251.55 609.95 257.25 610.15 259.5 601.1 256.7 598.9 266.25 611.1 270.05 611.3 272.45 584.55 264.1 579.35 273.05 612.35 283.4 612.55 285.8 595.55 280.4 592.4 293.95 613.95 300.65 614.2 303.05 570.05 289.15 562.45 302.4 615.7 319.15 615.9 321.45 588.05 312.7 583.85 330.6 581.15 329.75 585.55 312.0 535.7 296.3 522.25 309.9 519.25 308.85 532.95 295.4 515.55 289.9 519.2 288.8 559.8 301.55 567.5 288.4 531.9 277.15 536.15 276.2 548.55 280.1 559.75 269.1 547.95 265.45 552.05 264.5 576.9 272.25 582.2 263.3 560.0 256.4 564.3 255.3 571.4 257.55 579.35 249.9 572.05 247.55 576.05 246.7 589.35 250.8 595.2 240.85 585.3 237.7 589.5 236.8 608.6 242.85 M590.2 293.25 L593.45 279.75 561.75 269.75 550.85 280.85 590.2 293.25 M596.95 265.6 L599.3 256.1 580.85 250.4 573.2 258.15 596.95 265.6" fill="#f5c463" fill-rule="evenodd" stroke="none"/>
    <path d="M123.2 324.0 Q123.35 326.1 122.65 327.25 122.0 328.45 120.1 329.0 121.1 331.65 121.05 332.85 120.9 334.65 118.85 335.9 117.0 337.05 115.55 337.35 L113.3 337.2 112.8 337.05 Q111.6 336.45 111.25 335.55 L110.0 331.5 Q109.05 331.15 108.1 330.4 L106.85 329.5 105.7 328.4 105.65 328.35 105.4 328.05 Q104.5 327.05 104.7 326.45 104.8 326.1 105.25 326.15 L105.25 326.1 Q105.1 325.7 105.25 325.65 L105.65 325.8 106.25 326.25 106.4 326.5 107.45 327.05 108.75 327.55 107.2 322.9 Q103.6 323.25 98.85 316.05 L98.5 315.6 97.55 314.0 Q95.4 310.2 95.95 307.65 96.6 305.85 97.85 307.45 L98.45 308.2 99.35 309.8 99.45 309.6 99.4 309.5 99.75 309.75 100.25 310.55 100.15 310.95 Q102.75 314.8 104.45 314.55 103.8 312.35 103.5 310.6 L103.35 310.4 103.15 309.75 103.05 309.35 103.0 309.3 103.35 309.4 Q103.05 306.0 104.35 304.9 L104.65 304.7 Q105.35 304.3 106.05 304.45 107.95 304.75 110.25 308.6 L110.55 309.0 Q113.75 314.15 115.85 319.05 116.65 318.85 116.95 318.25 L116.9 318.15 116.6 317.35 116.5 316.9 116.5 316.85 116.95 317.0 117.1 317.1 116.5 314.65 115.5 312.65 Q114.65 310.3 116.45 311.4 120.0 314.8 121.75 318.65 122.9 321.25 123.2 324.0" fill="#5b9311" fill-rule="evenodd" stroke="none"/>
    <path d="M123.2 324.0 Q122.9 321.25 121.75 318.65 120.0 314.8 116.45 311.4 114.65 310.3 115.5 312.65 L116.5 314.65 117.1 317.1 116.95 317.0 116.5 316.85 116.5 316.9 116.6 317.35 116.9 318.15 116.95 318.25 Q116.65 318.85 115.85 319.05 113.75 314.15 110.55 309.0 L110.25 308.6 Q107.95 304.75 106.05 304.45 105.35 304.3 104.65 304.7 L104.35 304.9 Q103.05 306.0 103.35 309.4 L103.0 309.3 103.05 309.35 103.15 309.75 103.35 310.4 103.5 310.6 Q103.8 312.35 104.45 314.55 102.75 314.8 100.15 310.95 L100.25 310.55 99.75 309.75 99.4 309.5 99.45 309.6 99.35 309.8 98.45 308.2 97.85 307.45 Q96.6 305.85 95.95 307.65 95.4 310.2 97.55 314.0 L98.5 315.6 98.85 316.05 Q103.6 323.25 107.2 322.9 L108.75 327.55 107.45 327.05 106.4 326.5 106.25 326.25 105.65 325.8 105.25 325.65 Q105.1 325.7 105.25 326.1 L105.25 326.15 Q104.8 326.1 104.7 326.45 104.5 327.05 105.4 328.05 L105.65 328.35 105.7 328.4 106.85 329.5 108.1 330.4 Q109.05 331.15 110.0 331.5 L111.25 335.55 Q111.6 336.45 112.8 337.05 L113.3 337.2 115.55 337.35 Q117.0 337.05 118.85 335.9 120.9 334.65 121.05 332.85 121.1 331.65 120.1 329.0 122.0 328.45 122.65 327.25 123.35 326.1 123.2 324.0 Z" fill="none" stroke="#305400" stroke-linecap="round" stroke-linejoin="round" stroke-width="3.5"/>
    <path d="M121.75 318.7 Q122.9 321.25 123.2 324.0 123.35 326.1 122.65 327.25 122.0 328.45 120.05 329.05 L119.3 327.05 Q123.95 327.05 121.75 318.7" fill="#365800" fill-rule="evenodd" stroke="none"/>
    <path d="M113.3 337.2 L112.8 337.05 Q111.6 336.45 111.25 335.55 L110.0 331.5 112.5 332.25 Q113.65 332.4 114.4 331.8 L115.0 330.85 Q115.25 330.3 115.15 329.5 115.0 328.2 114.25 327.4 113.75 326.9 113.25 326.8 L112.45 326.85 112.35 326.9 112.0 327.05 111.25 327.3 111.1 327.45 109.65 327.7 108.75 327.55 107.2 322.9 106.6 321.4 105.2 317.1 104.45 314.6 Q102.2 306.65 104.35 304.9 L104.65 304.7 Q105.3 304.3 106.0 304.45 109.55 307.1 112.3 315.25 115.2 323.7 116.55 331.4 116.8 335.2 114.7 336.7 L113.3 337.2 M109.15 314.8 Q108.4 311.85 107.5 309.75 106.6 307.45 105.85 307.15 104.8 306.7 105.1 309.9 L105.7 313.55 106.7 317.5 Q107.75 321.05 108.6 322.2 L109.2 322.75 109.8 322.85 Q110.35 322.4 110.1 320.0 109.9 317.75 109.15 314.8" fill="#7eba2f" fill-rule="evenodd" stroke="none"/>
    <path d="M120.05 329.05 Q121.05 331.65 121.0 332.85 120.9 334.65 118.85 335.9 117.0 337.05 115.55 337.35 L113.3 337.2 114.7 336.7 Q116.8 335.2 116.55 331.4 115.2 323.7 112.3 315.25 109.55 307.1 106.0 304.45 107.95 304.75 110.2 308.6 L110.55 309.0 Q113.75 314.15 115.85 319.05 L116.45 320.4 118.05 324.1 119.3 327.05 120.05 329.05" fill="#467f09" fill-rule="evenodd" stroke="none"/>
    <path d="M108.8 314.8 L107.35 310.8 Q106.55 308.95 105.95 308.8 105.1 308.5 105.45 310.95 L106.05 313.9 106.95 317.05 Q107.9 319.85 108.65 320.75 L109.15 321.15 109.65 321.25 Q110.1 320.8 109.75 318.95 L108.8 314.8 M109.15 314.8 Q109.9 317.75 110.1 320.0 110.35 322.4 109.8 322.85 L109.2 322.75 108.6 322.2 Q107.75 321.05 106.7 317.5 L105.7 313.55 105.1 309.9 Q104.8 306.7 105.85 307.15 106.6 307.45 107.5 309.75 108.4 311.85 109.15 314.8" fill="#94d455" fill-rule="evenodd" stroke="none"/>
    <path d="M108.8 314.8 L109.75 318.95 Q110.1 320.8 109.65 321.25 L109.15 321.15 108.65 320.75 Q107.9 319.85 106.95 317.05 L106.05 313.9 105.45 310.95 Q105.1 308.5 105.95 308.8 106.55 308.95 107.35 310.8 L108.8 314.8" fill="#a0e05e" fill-rule="evenodd" stroke="none"/>
    <path d="M97.55 314.0 L97.5 314.0 Q95.4 310.2 95.95 307.65 96.6 305.9 97.85 307.45 L96.8 307.55 Q96.4 308.8 97.45 311.25 98.55 314.5 102.2 317.55 104.45 318.65 105.2 317.1 L106.6 321.4 Q104.95 322.0 101.45 318.8 99.65 317.25 97.55 314.0" fill="#559109" fill-rule="evenodd" stroke="none"/>
    <path d="M97.85 307.45 L98.45 308.2 Q102.25 314.9 104.45 314.6 L105.2 317.1 Q104.45 318.65 102.2 317.55 98.55 314.5 97.45 311.25 96.4 308.8 96.8 307.55 L97.85 307.45 M97.95 308.95 L97.85 309.0 97.9 309.4 98.35 310.85 99.25 312.4 100.1 313.4 Q100.9 314.15 101.6 313.75 100.95 313.35 99.9 311.7 L98.4 309.4 98.2 309.15 97.95 308.95" fill="#86c740" fill-rule="evenodd" stroke="none"/>
    <path d="M107.2 322.9 Q103.6 323.25 98.8 316.1 L98.5 315.6 97.55 314.0 Q99.65 317.25 101.45 318.8 104.95 322.0 106.6 321.4 L107.2 322.9" fill="#3c6b00" fill-rule="evenodd" stroke="none"/>
    <path d="M115.85 319.05 Q117.95 318.5 116.45 314.7 L115.5 312.65 Q115.5 312.25 115.75 312.4 118.05 314.45 119.35 317.05 120.2 318.65 120.2 319.85 120.15 320.95 119.25 321.7 118.3 322.5 116.45 320.4 L115.85 319.05" fill="#81ad26" fill-rule="evenodd" stroke="none"/>
    <path d="M115.5 312.65 Q114.6 310.3 116.45 311.4 120.0 314.8 121.75 318.7 123.95 327.05 119.3 327.05 L118.05 324.1 116.45 320.4 Q118.3 322.5 119.25 321.7 120.15 320.95 120.2 319.85 120.2 318.65 119.35 317.05 118.05 314.45 115.75 312.4 115.5 312.25 115.5 312.65" fill="#477005" fill-rule="evenodd" stroke="none"/>
    <path d="M97.95 308.95 L98.2 309.15 98.4 309.4 99.9 311.7 Q100.95 313.35 101.6 313.75 100.9 314.15 100.1 313.4 L99.25 312.4 98.35 310.85 97.9 309.4 97.85 309.0 97.95 308.95" fill="#98d951" fill-rule="evenodd" stroke="none"/>
    <path d="M105.65 328.4 L105.65 328.35 105.4 328.05 Q104.5 327.05 104.7 326.45 104.85 325.85 106.3 326.45 L107.45 327.05 107.25 327.1 Q107.15 327.25 107.2 327.35 L107.4 327.8 Q108.0 328.55 109.45 328.85 110.9 329.2 111.65 328.6 L111.95 328.3 Q112.1 328.05 111.85 327.75 L111.1 327.45 111.25 327.3 112.0 327.05 112.35 326.9 112.45 326.85 113.25 327.4 113.65 327.95 113.8 329.2 Q113.7 329.95 112.1 330.65 110.5 331.25 108.5 330.15 L105.65 328.4" fill="#85b424" fill-rule="evenodd" stroke="none"/>
    <path d="M110.0 331.5 L108.1 330.45 106.85 329.5 105.65 328.4 108.5 330.15 Q110.5 331.25 112.1 330.65 113.7 329.95 113.8 329.2 L113.65 327.95 113.25 327.4 112.45 326.85 113.25 326.8 Q113.75 326.9 114.25 327.4 115.0 328.2 115.15 329.5 115.25 330.3 115.0 330.85 L114.4 331.8 Q113.65 332.4 112.5 332.25 L110.0 331.5" fill="#538710" fill-rule="evenodd" stroke="none"/>
    <path d="M107.45 327.05 L108.75 327.55 109.65 327.7 111.1 327.45 111.85 327.75 Q112.1 328.05 111.95 328.3 L111.65 328.6 Q110.9 329.2 109.45 328.85 108.0 328.55 107.4 327.8 L107.2 327.35 Q107.15 327.25 107.25 327.1 L107.45 327.05" fill="#b1d943" fill-rule="evenodd" stroke="none"/>
    <path d="M119.35 323.55 L119.25 323.1 119.45 323.4 119.45 323.7 119.45 323.75 119.35 323.55" fill="#3c8009" fill-rule="evenodd" stroke="none"/>
    <path d="M121.1 324.45 L121.15 324.4 121.4 324.7 121.65 325.65 121.4 326.0 121.3 326.0 121.4 325.5 121.3 324.8 121.1 324.45" fill="#1a3f00" fill-rule="evenodd" stroke="none"/>
    <path d="M121.1 324.45 L121.3 324.8 121.4 325.5 121.3 326.0 121.2 325.95 Q120.85 325.95 120.85 325.6 L120.95 324.85 121.1 324.45" fill="#275b00" fill-rule="evenodd" stroke="none"/>
    <path d="M111.65 318.5 L111.75 317.75 111.8 318.7 111.75 319.3 111.65 319.15 Q111.5 319.2 111.65 318.5" fill="#69cd1e" fill-rule="evenodd" stroke="none"/>
    <path d="M112.15 319.8 L111.9 319.75 Q111.35 319.65 111.4 319.05 L111.6 317.85 111.85 317.2 112.15 317.75 112.4 319.0 112.15 319.8 M111.65 318.5 Q111.5 319.2 111.65 319.15 L111.75 319.3 111.8 318.7 111.75 317.75 111.65 318.5" fill="#3d8e01" fill-rule="evenodd" stroke="none"/>
    <path d="M112.15 319.8 L112.4 319.0 112.15 317.75 111.85 317.2 111.9 317.15 Q112.05 317.05 112.3 317.7 112.7 318.3 112.75 319.2 112.75 319.75 112.3 319.75 L112.15 319.8" fill="#255800" fill-rule="evenodd" stroke="none"/>
    <path d="M117.15 326.0 L117.45 326.3 117.7 327.25 Q117.75 327.55 117.4 327.6 L117.3 327.6 117.45 327.1 117.25 326.35 117.15 326.0" fill="#1a3f00" fill-rule="evenodd" stroke="none"/>
    <path d="M117.15 326.0 L117.25 326.35 117.45 327.1 117.3 327.6 117.2 327.6 Q116.8 327.5 116.85 327.1 L117.0 326.35 117.15 326.0 M117.1 326.95 L117.15 326.35 117.0 326.8 117.0 327.15 117.05 327.25 117.1 326.95" fill="#275b00" fill-rule="evenodd" stroke="none"/>
    <path d="M117.1 326.95 L117.05 327.25 117.0 327.15 117.0 326.8 117.15 326.35 117.1 326.95" fill="#3c8009" fill-rule="evenodd" stroke="none"/>
    <path d="M120.65 327.85 L120.75 328.1 120.7 328.15 120.65 327.95 120.65 327.85" fill="#3c8009" fill-rule="evenodd" stroke="none"/>
    <path d="M122.1 322.45 Q121.95 322.55 121.85 322.3 L121.85 321.65 122.0 321.4 121.95 321.65 122.0 322.2 122.1 322.45" fill="#1a3f00" fill-rule="evenodd" stroke="none"/>
    <path d="M122.0 321.4 L122.2 321.65 122.4 322.05 122.25 322.45 122.1 322.5 122.1 322.45 122.0 322.2 121.95 321.65 122.0 321.4 M122.2 322.0 L122.3 322.2 122.25 321.9 122.2 321.75 122.2 322.0" fill="#275b00" fill-rule="evenodd" stroke="none"/>
    <path d="M122.2 322.0 L122.2 321.75 122.25 321.9 122.3 322.2 122.2 322.0" fill="#3c8009" fill-rule="evenodd" stroke="none"/>
    <path d="M118.95 332.6 Q119.25 332.5 119.2 331.8 L118.9 330.55 118.6 330.0 118.65 329.95 119.15 330.5 Q119.55 331.15 119.6 332.05 119.6 332.55 119.1 332.6 L118.95 332.6" fill="#1a3f00" fill-rule="evenodd" stroke="none"/>
    <path d="M118.95 332.6 L118.7 332.6 Q118.1 332.5 118.15 331.85 L118.4 330.65 118.6 330.0 118.9 330.55 119.2 331.8 Q119.25 332.5 118.95 332.6 M118.5 332.1 L118.55 331.5 118.55 330.5 118.45 331.35 Q118.3 332.0 118.45 332.0 L118.5 332.1" fill="#275b00" fill-rule="evenodd" stroke="none"/>
    <path d="M118.5 332.1 L118.45 332.0 Q118.3 332.0 118.45 331.35 L118.55 330.5 118.55 331.5 118.5 332.1" fill="#3c8009" fill-rule="evenodd" stroke="none"/>
    <path d="M115.0 333.55 L115.0 334.2 115.4 335.4 Q115.7 336.0 116.05 336.0 L115.85 336.1 Q115.35 336.3 115.15 335.8 114.75 335.0 114.75 334.25 114.75 333.55 114.9 333.5 L115.0 333.55" fill="#1a3f00" fill-rule="evenodd" stroke="none"/>
    <path d="M115.0 333.55 L115.55 334.05 116.3 334.95 Q116.65 335.5 116.15 335.85 L116.05 336.0 Q115.7 336.0 115.4 335.4 L115.0 334.2 115.0 333.55 M115.8 334.85 L116.05 335.3 116.15 335.2 115.85 334.6 115.3 334.0 115.8 334.85" fill="#275b00" fill-rule="evenodd" stroke="none"/>
    <path d="M115.8 334.85 L115.3 334.0 115.85 334.6 116.15 335.2 116.05 335.3 115.8 334.85" fill="#3c8009" fill-rule="evenodd" stroke="none"/>
    <path d="M112.1 330.7 L111.8 330.15 112.15 330.55 112.35 330.95 112.3 331.0 112.1 330.7" fill="#3c8009" fill-rule="evenodd" stroke="none"/>
    <path d="M106.45 317.25 L107.15 317.75 108.0 318.85 Q108.35 319.45 107.85 319.9 L107.6 320.0 Q107.25 320.1 106.95 319.35 L106.45 318.0 106.45 317.25 M107.4 318.5 L106.8 317.75 107.4 318.8 107.7 319.3 107.8 319.15 107.4 318.5" fill="#5fa32b" fill-rule="evenodd" stroke="none"/>
    <path d="M107.6 320.0 L107.45 320.1 Q106.95 320.3 106.65 319.8 106.25 318.85 106.25 318.0 106.2 317.25 106.4 317.25 L106.45 317.25 106.45 318.0 106.95 319.35 Q107.25 320.1 107.6 320.0" fill="#2d6d00" fill-rule="evenodd" stroke="none"/>
    <path d="M107.4 318.5 L107.8 319.15 107.7 319.3 107.4 318.8 106.8 317.75 107.4 318.5" fill="#92d95d" fill-rule="evenodd" stroke="none"/>
    <path d="M104.3 320.0 L104.15 320.1 Q103.9 320.25 103.75 319.9 103.5 319.45 103.55 319.05 L103.65 318.6 103.65 318.95 103.9 319.7 Q104.05 320.1 104.3 320.0" fill="#1a3f00" fill-rule="evenodd" stroke="none"/>
    <path d="M103.65 318.6 L103.95 318.85 104.45 319.45 Q104.65 319.7 104.35 320.0 L104.3 320.0 Q104.05 320.1 103.9 319.7 L103.65 318.95 103.65 318.6 M104.15 319.2 L103.8 318.85 104.15 319.35 104.3 319.65 104.35 319.6 104.15 319.2" fill="#275b00" fill-rule="evenodd" stroke="none"/>
    <path d="M104.15 319.2 L104.35 319.6 104.3 319.65 104.15 319.35 103.8 318.85 104.15 319.2" fill="#3c8009" fill-rule="evenodd" stroke="none"/>
    <path d="M110.65 315.9 L110.55 315.9 Q110.15 315.9 110.1 315.55 L110.05 314.8 110.1 314.45 110.35 314.65 110.7 315.4 110.65 315.9 M110.2 315.2 L110.25 315.6 110.35 315.65 110.3 315.3 110.15 314.8 110.2 315.2" fill="#94d455" fill-rule="evenodd" stroke="none"/>
    <path d="M110.2 315.2 L110.15 314.8 110.3 315.3 110.35 315.65 110.25 315.6 110.2 315.2" fill="#cdf5af" fill-rule="evenodd" stroke="none"/>
    <path d="M110.1 314.45 L110.15 314.35 110.5 314.6 110.95 315.45 Q111.05 315.75 110.75 315.85 L110.65 315.9 110.7 315.4 110.35 314.65 110.1 314.45" fill="#5ea11f" fill-rule="evenodd" stroke="none"/>
    <path d="M101.6 314.25 L101.95 314.6 102.5 315.2 Q102.65 315.55 102.4 315.75 L102.25 315.85 101.85 315.45 101.6 314.65 101.6 314.25 M102.35 315.45 L102.35 315.3 102.15 314.95 101.75 314.5 102.1 315.1 102.35 315.45" fill="#78af41" fill-rule="evenodd" stroke="none"/>
    <path d="M102.25 315.85 L102.2 315.9 Q101.9 316.0 101.7 315.7 L101.45 314.7 Q101.45 314.3 101.6 314.25 L101.6 314.65 101.85 315.45 102.25 315.85" fill="#518322" fill-rule="evenodd" stroke="none"/>
    <path d="M102.35 315.45 L102.1 315.1 101.75 314.5 102.15 314.95 102.35 315.3 102.35 315.45" fill="#cdf5af" fill-rule="evenodd" stroke="none"/>
    <path d="M116.45 316.9 L116.45 316.85 Q116.5 316.75 116.9 317.0 L117.65 317.75 Q117.9 318.05 117.6 318.2 L117.5 318.3 117.4 317.75 116.8 317.1 Q116.5 316.85 116.45 316.9" fill="#518322" fill-rule="evenodd" stroke="none"/>
    <path d="M116.45 316.9 Q116.5 316.85 116.8 317.1 L117.4 317.75 117.5 318.3 117.35 318.35 Q117.0 318.45 116.85 318.15 L116.55 317.35 116.45 316.9 M116.6 317.25 L116.8 317.7 117.0 318.1 117.15 318.15 116.95 317.8 116.6 317.25" fill="#78af41" fill-rule="evenodd" stroke="none"/>
    <path d="M116.6 317.25 L116.95 317.8 117.15 318.15 117.0 318.1 116.8 317.7 116.6 317.25" fill="#cdf5af" fill-rule="evenodd" stroke="none"/>
    <path d="M119.3 317.85 L119.35 318.4 119.5 318.85 119.6 318.85 119.5 318.5 119.3 317.85 M119.25 317.5 L119.55 317.75 120.0 318.55 119.95 319.15 119.75 319.2 Q119.35 319.2 119.25 318.8 L119.25 317.9 119.25 317.5" fill="#3d8e01" fill-rule="evenodd" stroke="none"/>
    <path d="M119.25 317.5 L119.25 317.4 119.7 317.7 120.3 318.65 Q120.35 319.0 120.05 319.15 L119.95 319.15 120.0 318.55 119.55 317.75 119.25 317.5" fill="#255800" fill-rule="evenodd" stroke="none"/>
    <path d="M119.3 317.85 L119.5 318.5 119.6 318.85 119.5 318.85 119.35 318.4 119.3 317.85" fill="#69cd1e" fill-rule="evenodd" stroke="none"/>
    <path d="M112.8 322.85 L113.3 323.5 113.9 324.8 Q114.15 325.5 113.5 325.8 L113.3 325.85 Q112.85 325.8 112.75 325.05 L112.65 323.55 Q112.75 322.75 112.8 322.85 M113.45 324.35 L113.05 323.4 113.35 324.55 113.55 325.15 113.6 325.0 113.45 324.35" fill="#3d8e01" fill-rule="evenodd" stroke="none"/>
    <path d="M113.3 325.85 L113.05 325.95 Q112.45 326.0 112.35 325.35 112.15 324.35 112.4 323.5 112.55 322.8 112.75 322.75 L112.8 322.85 Q112.75 322.75 112.65 323.55 L112.75 325.05 Q112.85 325.8 113.3 325.85" fill="#255800" fill-rule="evenodd" stroke="none"/>
    <path d="M113.45 324.35 L113.6 325.0 113.55 325.15 113.35 324.55 113.05 323.4 113.45 324.35" fill="#69cd1e" fill-rule="evenodd" stroke="none"/>
    <path d="M109.85 323.75 L109.7 323.85 Q109.3 324.05 109.0 323.6 108.65 322.75 108.65 322.1 L108.75 321.4 108.8 321.45 108.85 322.0 109.2 323.25 109.85 323.75" fill="#255800" fill-rule="evenodd" stroke="none"/>
    <path d="M108.8 321.45 L109.35 321.8 110.1 322.8 Q110.4 323.25 110.0 323.6 L109.85 323.75 109.2 323.25 108.85 322.0 108.8 321.45 M109.15 321.8 L109.6 322.65 109.9 323.15 109.95 323.0 109.65 322.45 109.15 321.8" fill="#3d8e01" fill-rule="evenodd" stroke="none"/>
    <path d="M109.15 321.8 L109.65 322.45 109.95 323.0 109.9 323.15 109.6 322.65 109.15 321.8" fill="#69cd1e" fill-rule="evenodd" stroke="none"/>
    <path d="M103.0 309.35 L103.0 309.3 103.45 309.4 104.05 310.1 Q104.25 310.4 104.0 310.55 L103.9 310.6 103.8 310.1 103.3 309.5 103.0 309.35" fill="#5ea11f" fill-rule="evenodd" stroke="none"/>
    <path d="M103.0 309.35 L103.3 309.5 103.8 310.1 103.9 310.6 103.85 310.7 103.35 310.4 103.05 309.75 103.0 309.35 M103.45 310.45 L103.6 310.45 103.45 310.2 103.15 309.65 103.3 310.1 103.45 310.45" fill="#94d455" fill-rule="evenodd" stroke="none"/>
    <path d="M103.45 310.45 L103.3 310.1 103.15 309.65 103.45 310.2 103.6 310.45 103.45 310.45" fill="#cdf5af" fill-rule="evenodd" stroke="none"/>
    <path d="M99.35 309.6 L99.65 309.8 99.95 310.55 99.95 311.05 99.8 311.05 99.35 310.7 99.3 310.0 99.35 309.6 M99.55 310.4 L99.45 309.9 99.45 310.35 99.55 310.75 99.6 310.75 99.55 310.4" fill="#94d455" fill-rule="evenodd" stroke="none"/>
    <path d="M99.35 309.6 L99.35 309.5 99.7 309.75 100.2 310.55 Q100.35 310.9 100.0 311.0 L99.95 311.05 99.95 310.55 99.65 309.8 99.35 309.6" fill="#5ea11f" fill-rule="evenodd" stroke="none"/>
    <path d="M99.55 310.4 L99.6 310.75 99.55 310.75 99.45 310.35 99.45 309.9 99.55 310.4" fill="#cdf5af" fill-rule="evenodd" stroke="none"/>
    <path d="M110.4 310.8 L110.3 310.85 Q109.95 310.85 109.85 310.5 L109.8 309.75 109.85 309.4 110.1 309.6 110.45 310.3 110.4 310.8 M109.85 309.65 L109.95 310.15 110.05 310.5 110.15 310.55 110.05 310.2 109.85 309.65" fill="#94d455" fill-rule="evenodd" stroke="none"/>
    <path d="M110.4 310.8 L110.45 310.3 110.1 309.6 109.85 309.4 109.85 309.3 110.25 309.5 110.75 310.3 Q110.8 310.7 110.5 310.75 L110.4 310.8" fill="#5ea11f" fill-rule="evenodd" stroke="none"/>
    <path d="M109.85 309.65 L110.05 310.2 110.15 310.55 110.05 310.5 109.95 310.15 109.85 309.65" fill="#cdf5af" fill-rule="evenodd" stroke="none"/>
    <path d="M108.95 327.8 L108.85 327.35 109.15 327.9 109.3 328.15 109.2 328.15 108.95 327.8" fill="#cdf5af" fill-rule="evenodd" stroke="none"/>
    <path d="M108.95 327.8 L109.2 328.15 109.3 328.15 109.15 327.9 108.85 327.35 108.95 327.8 M108.7 327.1 L109.0 327.3 109.5 327.8 109.55 328.35 109.5 328.35 Q109.2 328.5 109.05 328.2 L108.75 327.5 108.7 327.1" fill="#94d455" fill-rule="evenodd" stroke="none"/>
    <path d="M108.7 327.1 L108.7 327.05 109.1 327.15 Q109.5 327.3 109.8 327.8 109.95 328.1 109.7 328.3 L109.55 328.35 109.5 327.8 109.0 327.3 108.7 327.1" fill="#5ea11f" fill-rule="evenodd" stroke="none"/>
    <path d="M106.15 326.9 Q105.9 327.15 105.65 326.9 L105.2 326.05 105.15 325.65 105.25 325.65 105.35 326.0 105.75 326.65 106.15 326.9" fill="#5ea11f" fill-rule="evenodd" stroke="none"/>
    <path d="M105.25 325.65 L105.6 325.8 106.2 326.25 Q106.45 326.5 106.25 326.8 L106.15 326.9 105.75 326.65 105.35 326.0 105.25 325.65 M105.9 326.15 L105.45 325.85 105.9 326.25 106.1 326.5 106.15 326.4 105.9 326.15" fill="#94d455" fill-rule="evenodd" stroke="none"/>
    <path d="M105.9 326.15 L106.15 326.4 106.1 326.5 105.9 326.25 105.45 325.85 105.9 326.15" fill="#cdf5af" fill-rule="evenodd" stroke="none"/>
    <path d="M116.85 322.85 L116.8 322.9 116.65 322.9 Q116.2 322.85 116.25 322.4 116.25 321.9 116.4 321.6 L116.6 321.1 116.8 321.5 116.95 322.35 116.85 322.85 M116.5 322.15 L116.5 321.5 116.45 322.05 116.45 322.45 116.5 322.55 116.5 322.15" fill="#3d8e01" fill-rule="evenodd" stroke="none"/>
    <path d="M116.6 321.1 L116.9 321.45 117.25 322.45 Q117.25 322.9 116.85 322.85 L116.95 322.35 116.8 321.5 116.6 321.1" fill="#255800" fill-rule="evenodd" stroke="none"/>
    <path d="M116.5 322.15 L116.5 322.55 116.45 322.45 116.45 322.05 116.5 321.5 116.5 322.15" fill="#69cd1e" fill-rule="evenodd" stroke="none"/>
    <path d="M105.3 306.6 L105.5 306.85 105.9 307.5 105.8 308.0 105.75 308.05 Q105.35 308.05 105.3 307.7 L105.25 306.95 105.3 306.6 M105.5 307.45 L105.3 306.85 105.4 307.35 105.45 307.7 105.55 307.8 105.5 307.45" fill="#94d455" fill-rule="evenodd" stroke="none"/>
    <path d="M105.3 306.6 L105.3 306.5 105.65 306.75 106.15 307.55 105.95 308.0 105.8 308.0 105.9 307.5 105.5 306.85 105.3 306.6" fill="#5ea11f" fill-rule="evenodd" stroke="none"/>
    <path d="M105.5 307.45 L105.55 307.8 105.45 307.7 105.4 307.35 105.3 306.85 105.5 307.45" fill="#cdf5af" fill-rule="evenodd" stroke="none"/>
  </g>
  <defs>
    <linearGradient gradientTransform="matrix(0.0023, -0.0024, 0.004, 0.0036, 107.35, 347.2)" gradientUnits="userSpaceOnUse" id="gradient0" spreadMethod="pad" x1="-819.2" x2="819.2">
      <stop offset="0.0" stop-color="#513704"/>
      <stop offset="1.0" stop-color="#664506"/>
    </linearGradient>
    <linearGradient gradientTransform="matrix(0.0047, -0.0062, 0.0073, 0.0053, 112.25, 349.3)" gradientUnits="userSpaceOnUse" id="gradient1" spreadMethod="pad" x1="-819.2" x2="819.2">
      <stop offset="0.0" stop-color="#4d3100"/>
      <stop offset="1.0" stop-color="#8c6112"/>
    </linearGradient>
    <linearGradient gradientTransform="matrix(0.0062, -0.0012, 0.0022, 0.0099, 642.95, 321.7)" gradientUnits="userSpaceOnUse" id="gradient2" spreadMethod="pad" x1="-819.2" x2="819.2">
      <stop offset="0.0" stop-color="#513704"/>
      <stop offset="1.0" stop-color="#664506"/>
    </linearGradient>
    <linearGradient gradientTransform="matrix(0.0141, -0.0043, 0.0054, 0.0164, 648.2, 330.45)" gradientUnits="userSpaceOnUse" id="gradient3" spreadMethod="pad" x1="-819.2" x2="819.2">
      <stop offset="0.0" stop-color="#4d3100"/>
      <stop offset="1.0" stop-color="#8c6112"/>
    </linearGradient>
  </defs>
</svg>
