<?xml version="1.0" encoding="UTF-8" standalone="no"?>
<svg xmlns:xlink="http://www.w3.org/1999/xlink" height="142.45px" width="425.85px" xmlns="http://www.w3.org/2000/svg">
  <g transform="matrix(1.0, 0.0, 0.0, 1.0, -109.6, -360.5)">
    <path d="M114.2 484.1 L109.6 486.4 114.2 481.75 119.35 486.8 128.1 485.55 130.85 478.5 140.2 479.7 146.9 476.2 142.8 481.5 132.7 481.05 131.4 488.55 127.8 488.85 129.7 493.6 126.2 498.05 127.0 493.3 125.25 489.25 116.45 490.0 114.2 484.1" fill="#af691c" fill-rule="evenodd" stroke="none"/>
    <path d="M146.45 476.7 L143.4 482.75 133.2 483.05 132.25 490.65 129.7 490.65 130.9 494.95 125.7 498.5 129.2 494.05 127.4 489.3 130.9 489.0 132.25 481.6 142.5 481.6 146.45 476.7" fill="#ffffff" fill-rule="evenodd" stroke="none"/>
    <path d="M115.95 490.5 L124.8 489.75 125.7 492.25 115.95 491.65 114.0 486.65 114.15 486.05 115.95 490.5" fill="#ffffff" fill-rule="evenodd" stroke="none"/>
    <path d="M138.5 478.9 L145.25 479.2 137.3 480.1 138.5 478.9" fill="#ffffff" fill-rule="evenodd" stroke="none"/>
    <path d="M126.25 496.9 L128.5 497.05 126.85 502.95 126.25 496.9" fill="#af691c" fill-rule="evenodd" stroke="none"/>
    <path d="M117.9 468.35 L120.05 471.45" fill="none" stroke="#624729" stroke-linecap="round" stroke-linejoin="round" stroke-width="0.05"/>
    <path d="M118.15 468.6 L130.55 466.25 137.8 474.25 137.35 479.15 134.1 488.85 119.9 490.25 119.6 490.25 119.25 490.1 119.1 489.8 114.6 483.95 112.65 478.15 118.15 468.6" fill="#af691c" fill-rule="evenodd" stroke="none"/>
    <path d="M137.4 473.3 L136.95 478.0 133.7 487.6 119.65 489.05 114.6 482.9 112.9 477.1 137.4 473.3" fill="#d271ab" fill-rule="evenodd" stroke="none"/>
    <path d="M112.8 477.05 L118.15 467.8 130.25 465.65 137.35 473.3 133.45 484.8 118.95 486.35 112.8 477.05" fill="#f0a5d2" fill-rule="evenodd" stroke="none"/>
    <path d="M112.8 477.05 L118.15 467.8 130.25 465.65 137.35 473.3 112.8 477.05" fill="#ffc4e7" fill-rule="evenodd" stroke="none"/>
    <path d="M120.55 470.5 L128.65 468.75 132.8 473.65 129.9 479.75 121.35 480.7 117.65 475.3 120.55 470.5" fill="#fce3f2" fill-rule="evenodd" stroke="none"/>
    <path d="M121.55 480.05 L120.4 485.7 133.45 484.95 118.8 486.8 121.55 480.05" fill="#ffffff" fill-rule="evenodd" stroke="none"/>
    <path d="M118.95 486.35 L119.9 486.35 119.9 489.0 119.1 488.7 118.95 486.35" fill="#ffffff" fill-rule="evenodd" stroke="none"/>
    <path d="M113.3 477.65 L118.3 475.05 114.6 477.8 118.95 486.35 113.3 477.65" fill="#ffffff" fill-rule="evenodd" stroke="none"/>
    <path d="M128.15 468.75 L130.25 465.65 128.95 469.25 128.15 468.75" fill="#ffffff" fill-rule="evenodd" stroke="none"/>
    <path d="M132.65 473.95 L137.35 473.3 132.2 474.9 132.65 473.95" fill="#ffffff" fill-rule="evenodd" stroke="none"/>
    <path d="M130.55 478.8 L133.45 484.8 129.25 479.45 130.55 478.8" fill="#ffffff" fill-rule="evenodd" stroke="none"/>
    <path d="M133.45 484.8 L133.65 487.6 132.5 484.95 133.45 484.8" fill="#ffffff" fill-rule="evenodd" stroke="none"/>
    <path d="M128.95 469.25 L133.0 473.95 130.1 479.6 121.35 480.7 117.65 475.3 122.0 479.6 129.25 478.65 131.55 473.95 128.95 469.25" fill="#ffffff" fill-rule="evenodd" stroke="none"/>
    <path d="M120.55 470.5 L118.3 476.3 117.65 475.3 120.55 470.5" fill="#ffffff" fill-rule="evenodd" stroke="none"/>
    <path d="M119.45 471.2 L117.3 468.15 120.15 470.6 119.45 471.2" fill="#ffffff" fill-rule="evenodd" stroke="none"/>
    <path d="M134.45 398.8 Q130.2 400.3 124.2 400.3 118.15 400.3 113.9 398.8 109.6 397.35 109.6 395.3 109.6 393.2 113.9 391.7 118.15 390.25 124.2 390.25 130.2 390.25 134.45 391.7 138.75 393.2 138.75 395.3 138.75 397.35 134.45 398.8" fill="url(#gradient0)" fill-rule="evenodd" stroke="none"/>
    <path d="M119.5 382.85 L119.9 379.75 123.9 375.4 127.0 375.05 129.05 378.7 130.85 384.3 131.55 389.95 131.55 393.9 Q130.05 395.35 126.05 396.05 L124.9 395.95 Q121.25 395.7 118.4 394.25 L117.55 388.95 Q118.05 386.95 118.85 384.75 L119.5 382.85" fill="#d9bb7b" fill-rule="evenodd" stroke="none"/>
    <path d="M119.5 382.85 L118.85 384.75 Q118.05 386.95 117.55 388.95 L118.4 394.25 Q121.25 395.7 124.9 395.95 L126.05 396.05 Q130.05 395.35 131.55 393.9 L131.55 389.95 130.85 384.3 129.05 378.7 127.0 375.05 123.9 375.4 119.9 379.75 119.5 382.85 Z" fill="none" stroke="#834f0f" stroke-linecap="round" stroke-linejoin="round" stroke-width="2.0"/>
    <path d="M123.9 375.4 L127.0 375.05 129.05 378.9 130.5 385.5 130.7 394.1 118.4 394.25 117.55 388.95 Q118.05 386.95 118.85 384.75 L119.5 382.85 119.9 379.75 123.9 375.4" fill="#e5d3ad" fill-rule="evenodd" stroke="none"/>
    <path d="M125.95 375.75 L127.0 375.05 129.05 378.7 130.45 384.9 130.6 394.1 126.1 396.0 Q121.7 395.95 118.4 394.25 L120.6 394.0 121.5 392.45 126.0 386.8 126.55 386.45 125.85 386.1 125.65 383.35 124.9 382.6 126.6 382.0 126.15 381.9 124.55 380.3 122.55 379.6 123.55 377.35 125.95 375.75" fill="#c6a473" fill-rule="evenodd" stroke="none"/>
    <path d="M129.9 385.5 L129.05 378.7 130.85 384.3 131.55 389.95 131.55 393.9 Q130.05 395.35 126.05 396.05 121.7 395.75 119.7 394.8 L124.15 395.2 126.6 394.45 128.05 392.25 129.2 388.35 127.8 388.9 129.1 387.9 129.9 385.5" fill="#936b34" fill-rule="evenodd" stroke="none"/>
    <path d="M128.45 394.25 L130.25 392.65 130.65 393.45 128.45 394.25" fill="#c6a473" fill-rule="evenodd" stroke="none"/>
    <path d="M122.7 386.0 L123.8 386.3 123.2 388.0 122.55 388.05 122.7 386.0" fill="#c6a473" fill-rule="evenodd" stroke="none"/>
    <path d="M126.3 380.8 L127.8 379.5 128.55 380.4 126.3 380.8" fill="#e0c48f" fill-rule="evenodd" stroke="none"/>
    <path d="M117.95 389.4 L118.3 389.1 119.8 390.1 119.5 390.3 117.95 389.4" fill="#c6a473" fill-rule="evenodd" stroke="none"/>
    <path d="M121.8 393.85 L125.15 390.3 123.3 393.9 121.8 393.85" fill="#e0c48f" fill-rule="evenodd" stroke="none"/>
    <path d="M126.85 375.05 L123.45 377.2 122.55 379.6 124.9 380.45 125.95 381.65 126.6 382.0 125.25 382.6 125.65 383.45 125.85 386.1 125.5 383.65 124.7 382.55 126.0 382.1 124.6 380.55 122.35 379.65 123.4 377.0 126.85 375.05" fill="#fdfcfb" fill-rule="evenodd" stroke="none"/>
    <path d="M518.25 368.05 L509.4 369.3 508.75 368.3 506.0 369.05 508.95 367.85 509.4 368.45 518.25 368.05" fill="#ffffff" fill-rule="evenodd" stroke="none"/>
    <path d="M506.0 369.05 L505.05 369.35 507.95 367.2 508.3 367.05 506.4 364.65 500.5 362.9 506.6 363.15 510.75 366.95 518.8 368.0 518.9 368.05 518.25 368.05 509.4 368.45 508.95 367.85 506.0 369.05" fill="#a05b10" fill-rule="evenodd" stroke="none"/>
    <path d="M514.6 365.15 L513.7 367.3 513.7 367.4 513.6 367.5 513.5 367.55 508.95 368.35 507.0 365.6 506.45 364.1 508.0 361.0 512.05 360.65 514.65 363.15 514.6 365.15" fill="#af691c" fill-rule="evenodd" stroke="none"/>
    <path d="M506.5 363.85 L514.5 362.95 514.45 364.9 513.5 367.2 508.95 368.0 507.1 365.3 506.5 363.85" fill="#18a4c4" fill-rule="evenodd" stroke="none"/>
    <path d="M514.5 362.95 L513.5 366.35 508.75 367.1 506.5 363.85 508.0 360.85 512.0 360.5 514.5 362.95" fill="#57c0dd" fill-rule="evenodd" stroke="none"/>
    <path d="M506.5 363.85 L508.0 360.85 512.0 360.5 514.5 362.95 506.5 363.85" fill="#8cd9ea" fill-rule="evenodd" stroke="none"/>
    <path d="M511.5 361.55 L512.8 362.85 512.15 364.75 509.4 365.2 508.0 363.6 508.85 361.7 511.5 361.55" fill="#caf1ff" fill-rule="evenodd" stroke="none"/>
    <path d="M512.05 364.6 L513.5 366.5 508.75 367.15 512.95 366.3 512.05 364.6" fill="#ffffff" fill-rule="evenodd" stroke="none"/>
    <path d="M514.45 363.15 L513.5 366.35 514.0 363.3 512.6 362.75 514.45 363.15" fill="#ffffff" fill-rule="evenodd" stroke="none"/>
    <path d="M511.5 361.55 L512.0 360.5 513.8 362.25 512.1 360.85 511.5 361.55" fill="#ffffff" fill-rule="evenodd" stroke="none"/>
    <path d="M508.95 361.7 L508.75 361.8 508.0 360.85 508.95 361.7" fill="#ffffff" fill-rule="evenodd" stroke="none"/>
    <path d="M508.0 363.65 L508.3 363.9 506.5 363.85 508.0 363.65" fill="#ffffff" fill-rule="evenodd" stroke="none"/>
    <path d="M509.2 365.0 L509.6 365.1 508.75 367.1 509.2 365.0" fill="#ffffff" fill-rule="evenodd" stroke="none"/>
    <path d="M508.75 367.1 L509.1 367.05 508.95 368.0 508.75 367.1" fill="#ffffff" fill-rule="evenodd" stroke="none"/>
    <path d="M512.15 364.75 L509.4 365.2 507.95 363.65 508.75 361.8 508.35 363.55 509.5 364.85 511.9 364.5 512.8 362.85 512.15 364.75" fill="#ffffff" fill-rule="evenodd" stroke="none"/>
    <path d="M511.5 361.55 L512.8 362.85 512.7 363.15 511.5 361.55" fill="#ffffff" fill-rule="evenodd" stroke="none"/>
    <path d="M532.65 378.6 L535.35 377.2 533.7 379.35 529.65 379.15 529.1 382.2 527.65 382.3 528.4 384.2 527.05 386.0 527.3 384.1 526.65 382.45 523.1 382.75 522.15 380.4 520.3 381.3 522.15 379.45 524.25 381.5 527.8 380.95 528.9 378.15 532.65 378.6" fill="#af691c" fill-rule="evenodd" stroke="none"/>
    <path d="M535.45 377.25 L534.25 379.7 530.15 379.85 529.75 382.9 528.7 382.9 529.2 384.6 527.1 386.05 528.55 384.25 527.8 382.35 529.2 382.2 529.75 379.25 533.85 379.25 535.45 377.25" fill="#ffffff" fill-rule="evenodd" stroke="none"/>
    <path d="M523.2 382.8 L526.75 382.5 527.1 383.55 523.2 383.3 522.4 381.25 522.45 381.05 523.2 382.8" fill="#ffffff" fill-rule="evenodd" stroke="none"/>
    <path d="M532.3 378.15 L535.0 378.3 531.8 378.65 532.3 378.15" fill="#ffffff" fill-rule="evenodd" stroke="none"/>
    <path d="M527.35 385.65 L528.25 385.7 527.6 388.1 527.35 385.65" fill="#af691c" fill-rule="evenodd" stroke="none"/>
    <path d="M531.25 371.7 L534.05 376.3 533.3 378.65 530.65 383.1 523.6 382.35 523.6 382.4 523.55 382.35 523.4 382.35 523.35 382.25 523.2 382.15 523.25 381.95 521.6 378.75 521.3 375.75 524.95 371.6 531.25 371.7" fill="#af691c" fill-rule="evenodd" stroke="none"/>
    <path d="M533.95 376.0 L533.25 378.3 530.7 382.6 523.65 381.85 521.9 378.4 521.55 375.4 533.95 376.0" fill="#aebc2a" fill-rule="evenodd" stroke="none"/>
    <path d="M521.55 375.4 L525.1 371.4 531.3 371.55 533.95 376.0 530.9 381.2 523.6 380.5 521.55 375.4" fill="#cddd31" fill-rule="evenodd" stroke="none"/>
    <path d="M533.95 376.0 L521.55 375.4 525.1 371.4 531.3 371.55 533.95 376.0" fill="#efff92" fill-rule="evenodd" stroke="none"/>
    <path d="M526.05 373.0 L530.15 372.95 531.7 375.7 529.6 378.35 525.45 378.0 524.15 375.05 526.05 373.0" fill="#dcf451" fill-rule="evenodd" stroke="none"/>
    <path d="M525.5 377.7 L524.35 380.35 530.9 381.25 523.45 380.8 525.5 377.7" fill="#ffffff" fill-rule="evenodd" stroke="none"/>
    <path d="M521.7 375.7 L524.5 374.9 522.35 375.95 523.6 380.5 521.7 375.7" fill="#ffffff" fill-rule="evenodd" stroke="none"/>
    <path d="M526.05 373.0 L525.0 371.95 522.55 374.35 525.1 371.4 526.05 373.0" fill="#ffffff" fill-rule="evenodd" stroke="none"/>
    <path d="M529.95 372.9 L531.3 371.55 530.25 373.15 529.95 372.9" fill="#ffffff" fill-rule="evenodd" stroke="none"/>
    <path d="M530.05 378.0 L530.9 381.2 529.4 378.15 530.05 378.0" fill="#ffffff" fill-rule="evenodd" stroke="none"/>
    <path d="M530.25 373.15 L531.75 375.85 529.75 378.35 525.45 378.0 524.15 375.05 525.8 377.55 529.45 377.8 531.1 375.7 530.25 373.15" fill="#ffffff" fill-rule="evenodd" stroke="none"/>
    <path d="M234.85 487.15 Q230.6 488.65 224.6 488.65 218.55 488.65 214.3 487.15 210.0 485.7 210.0 483.65 210.0 481.55 214.3 480.05 218.55 478.6 224.6 478.6 230.6 478.6 234.85 480.05 239.15 481.55 239.15 483.65 239.15 485.7 234.85 487.15" fill="url(#gradient1)" fill-rule="evenodd" stroke="none"/>
    <path d="M221.45 469.5 L221.55 469.55 221.55 469.5 222.65 467.4 230.5 465.65 232.65 478.1 231.3 481.75 227.4 483.05 219.0 482.0 220.15 472.75 221.45 469.5" fill="#bda36d" fill-rule="evenodd" stroke="none"/>
    <path d="M221.45 469.5 L220.15 472.75 219.0 482.0 227.4 483.05 231.3 481.75 232.65 478.1 230.5 465.65 222.65 467.4 221.55 469.5 221.55 469.55 221.45 469.5 Z" fill="none" stroke="#834f0f" stroke-linecap="round" stroke-linejoin="round" stroke-width="2.0"/>
    <path d="M219.8 472.8 L221.4 469.9 222.4 476.6 230.15 465.75 232.3 478.15 231.0 481.8 227.05 483.15 218.65 482.1 219.8 472.8" fill="#a27f46" fill-rule="evenodd" stroke="none"/>
    <path d="M224.25 476.05 L224.15 476.05 222.75 478.95 222.9 478.55 219.8 472.8 221.15 471.35 221.25 469.5 222.3 467.45 230.15 465.75 227.9 473.3 224.25 476.05" fill="#e5d3ad" fill-rule="evenodd" stroke="none"/>
    <path d="M224.55 476.45 L221.5 473.05 219.8 472.8 221.15 469.5 228.15 472.8 224.55 476.45" fill="#c6a473" fill-rule="evenodd" stroke="none"/>
    <path d="M225.15 481.95 L224.5 477.5 227.9 481.95 225.15 481.95" fill="#936b34" fill-rule="evenodd" stroke="none"/>
  </g>
  <defs>
    <radialGradient cx="0" cy="0" gradientTransform="matrix(1.0E-4, -0.0069, 0.0211, 1.0E-4, 124.2, 395.3)" gradientUnits="userSpaceOnUse" id="gradient0" r="819.2" spreadMethod="pad">
      <stop offset="0.19607843137254902" stop-color="#875b26" stop-opacity="0.6784314"/>
      <stop offset="0.615686274509804" stop-color="#744c25" stop-opacity="0.29803923"/>
      <stop offset="0.8470588235294118" stop-color="#ad9065" stop-opacity="0.0"/>
    </radialGradient>
    <radialGradient cx="0" cy="0" gradientTransform="matrix(1.0E-4, -0.0069, 0.0211, 1.0E-4, 224.6, 483.65)" gradientUnits="userSpaceOnUse" id="gradient1" r="819.2" spreadMethod="pad">
      <stop offset="0.19607843137254902" stop-color="#875b26" stop-opacity="0.6784314"/>
      <stop offset="0.615686274509804" stop-color="#744c25" stop-opacity="0.29803923"/>
      <stop offset="0.8470588235294118" stop-color="#ad9065" stop-opacity="0.0"/>
    </radialGradient>
  </defs>
</svg>
