<?xml version="1.0" encoding="UTF-8" standalone="no"?>
<svg xmlns:xlink="http://www.w3.org/1999/xlink" height="24.0px" width="29.15px" xmlns="http://www.w3.org/2000/svg">
  <g transform="matrix(1.0, 0.0, 0.0, 1.0, -532.55, -468.75)">
    <path d="M557.4 491.25 Q553.15 492.75 547.15 492.75 541.1 492.75 536.85 491.25 532.55 489.8 532.55 487.75 532.55 485.65 536.85 484.15 541.1 482.7 547.15 482.7 553.15 482.7 557.4 484.15 561.7 485.65 561.7 487.75 561.7 489.8 557.4 491.25" fill="url(#gradient0)" fill-rule="evenodd" stroke="none"/>
    <path d="M544.1 473.6 L545.2 471.5 553.05 469.75 555.2 482.2 553.85 485.85 549.95 487.15 541.55 486.1 542.7 476.85 544.0 473.6 544.1 473.65 544.1 473.6" fill="#bda36d" fill-rule="evenodd" stroke="none"/>
    <path d="M544.1 473.6 L544.1 473.65 544.0 473.6 542.7 476.85 541.55 486.1 549.95 487.15 553.85 485.85 555.2 482.2 553.05 469.75 545.2 471.5 544.1 473.6 Z" fill="none" stroke="#834f0f" stroke-linecap="round" stroke-linejoin="round" stroke-width="2.0"/>
    <path d="M542.35 476.9 L543.95 474.0 544.95 480.7 552.7 469.85 554.85 482.25 553.55 485.9 549.6 487.25 541.2 486.2 542.35 476.9" fill="#a27f46" fill-rule="evenodd" stroke="none"/>
    <path d="M546.8 480.15 L546.7 480.15 545.3 483.05 545.45 482.65 542.35 476.9 543.7 475.45 543.8 473.6 544.85 471.55 552.7 469.85 550.45 477.4 546.8 480.15" fill="#e5d3ad" fill-rule="evenodd" stroke="none"/>
    <path d="M547.1 480.55 L544.05 477.15 542.35 476.9 543.7 473.6 550.7 476.9 547.1 480.55" fill="#c6a473" fill-rule="evenodd" stroke="none"/>
    <path d="M547.7 486.05 L547.05 481.6 550.45 486.05 547.7 486.05" fill="#936b34" fill-rule="evenodd" stroke="none"/>
  </g>
  <defs>
    <radialGradient cx="0" cy="0" gradientTransform="matrix(1.0E-4, -0.0069, 0.0211, 1.0E-4, 547.15, 487.75)" gradientUnits="userSpaceOnUse" id="gradient0" r="819.2" spreadMethod="pad">
      <stop offset="0.19607843137254902" stop-color="#875b26" stop-opacity="0.6784314"/>
      <stop offset="0.615686274509804" stop-color="#744c25" stop-opacity="0.29803923"/>
      <stop offset="0.8470588235294118" stop-color="#ad9065" stop-opacity="0.0"/>
    </radialGradient>
  </defs>
</svg>
