<?xml version="1.0" encoding="UTF-8" standalone="no"?>
<svg xmlns:xlink="http://www.w3.org/1999/xlink" height="38.35px" width="37.7px" xmlns="http://www.w3.org/2000/svg">
  <g transform="matrix(1.0, 0.0, 0.0, 1.0, 2.0, 2.0)">
    <path d="M32.7 11.8 L33.1 13.1 30.45 13.8 30.45 13.85 Q31.0 15.75 31.05 17.55 L31.05 17.85 33.3 18.05 33.25 18.2 33.7 19.65 32.65 23.7 32.25 24.65 31.55 25.9 29.15 24.55 29.15 24.65 29.0 24.8 26.5 28.05 27.15 28.9 27.25 30.8 27.3 30.9 Q25.4 32.45 23.0 33.4 L22.25 33.65 21.4 33.9 21.35 33.9 20.65 31.3 20.55 31.3 15.2 31.8 15.2 32.25 14.8 34.35 Q11.65 34.0 8.6 32.35 L8.6 32.3 9.25 30.25 9.45 29.85 7.55 28.4 5.7 26.4 5.6 26.4 3.6 27.95 3.5 28.0 Q1.5 25.5 0.6 22.15 L0.55 22.1 0.65 22.05 1.55 20.4 2.9 20.05 2.75 19.1 Q2.6 17.7 2.75 16.2 L2.75 15.9 2.75 15.8 0.0 15.5 0.05 15.4 0.2 14.45 0.3 13.9 Q0.85 11.6 2.1 9.3 L2.15 9.2 2.2 9.2 3.0 8.25 3.1 8.15 3.15 8.15 5.3 9.35 Q6.5 7.7 8.0 6.5 L8.2 6.4 6.65 4.5 7.2 3.3 Q9.65 1.45 12.85 0.55 L13.7 3.6 18.6 3.25 18.75 3.25 19.15 0.0 Q22.25 0.4 25.15 2.05 L25.2 3.85 24.35 5.3 Q26.2 6.5 27.4 8.15 L30.0 6.1 Q31.85 8.6 32.75 11.8 L32.7 11.8 M20.65 15.55 L20.55 15.4 Q20.0 14.8 19.2 14.35 18.35 13.85 17.4 13.75 L15.55 13.85 Q14.55 14.15 13.85 14.75 13.1 15.3 12.6 16.2 L12.4 16.65 12.55 17.4 13.0 18.65 13.4 19.15 14.05 19.8 14.8 20.35 Q15.7 20.9 16.6 21.0 L18.45 20.8 18.75 20.75 20.2 19.95 21.4 18.55 21.7 18.1 21.5 17.25 20.65 15.55" fill="#b1c4cb" fill-rule="evenodd" stroke="none"/>
    <path d="M32.7 11.8 L33.1 13.1 30.45 13.8 30.45 13.85 Q31.0 15.75 31.05 17.55 L31.05 17.85 33.3 18.05 33.25 18.2 33.7 19.65 32.65 23.7 32.25 24.65 31.55 25.9 29.15 24.55 29.15 24.65 29.0 24.8 26.5 28.05 27.15 28.9 27.25 30.8 27.3 30.9 Q25.4 32.45 23.0 33.4 L22.25 33.65 21.4 33.9 21.35 33.9 20.65 31.3 20.55 31.3 15.2 31.8 15.2 32.25 14.8 34.35 Q11.65 34.0 8.6 32.35 L8.6 32.3 9.25 30.25 9.45 29.85 7.55 28.4 5.7 26.4 5.6 26.4 3.6 27.95 3.5 28.0 Q1.5 25.5 0.6 22.15 L0.55 22.1 0.65 22.05 1.55 20.4 2.9 20.05 2.75 19.1 Q2.6 17.7 2.75 16.2 L2.75 15.9 2.75 15.8 0.0 15.5 0.05 15.4 0.2 14.45 0.3 13.9 Q0.85 11.6 2.1 9.3 L2.15 9.2 2.2 9.2 3.0 8.25 3.1 8.15 3.15 8.15 5.3 9.35 Q6.5 7.7 8.0 6.5 L8.2 6.4 6.65 4.5 7.2 3.3 Q9.65 1.45 12.85 0.55 L13.7 3.6 18.6 3.25 18.75 3.25 19.15 0.0 Q22.25 0.4 25.15 2.05 L25.2 3.85 24.35 5.3 Q26.2 6.5 27.4 8.15 L30.0 6.1 Q31.85 8.6 32.75 11.8 L32.7 11.8 M20.65 15.55 L21.5 17.25 21.7 18.1 21.4 18.55 20.2 19.95 18.75 20.75 18.45 20.8 16.6 21.0 Q15.7 20.9 14.8 20.35 L14.05 19.8 13.4 19.15 13.0 18.65 12.55 17.4 12.4 16.65 12.6 16.2 Q13.1 15.3 13.85 14.75 14.55 14.15 15.55 13.85 L17.4 13.75 Q18.35 13.85 19.2 14.35 20.0 14.8 20.55 15.4 L20.65 15.55" fill="none" stroke="#005c8e" stroke-linecap="round" stroke-linejoin="round" stroke-width="4.0"/>
    <path d="M24.35 5.35 Q26.2 6.55 27.4 8.2 L30.0 6.15 Q31.85 8.6 32.75 11.85 L29.65 12.7 29.65 12.75 29.7 12.95 Q26.65 12.85 23.85 14.0 L22.4 14.55 21.65 13.2 Q20.95 12.3 19.85 11.7 18.9 11.1 17.85 11.0 L15.6 11.15 Q14.45 11.5 13.55 12.15 12.7 12.8 12.1 13.85 11.6 14.9 11.5 16.0 11.35 16.6 11.45 17.25 L11.6 18.15 11.9 18.95 Q8.55 19.85 5.55 18.05 L5.1 17.75 4.3 17.15 4.3 17.1 4.25 15.15 4.3 14.55 1.1 14.15 1.05 14.15 1.1 14.1 1.3 13.15 Q1.65 11.3 2.5 9.4 L3.05 8.3 3.1 8.2 3.15 8.2 5.3 9.4 5.95 9.75 6.3 9.25 Q7.15 7.75 8.35 6.65 L8.75 6.4 9.25 5.95 9.25 5.9 7.25 3.3 Q9.7 1.45 12.9 0.55 L13.75 3.65 18.6 3.3 18.8 3.25 19.15 0.0 Q22.25 0.45 25.2 2.1 L25.15 2.15 23.6 4.9 24.0 5.1 24.35 5.35" fill="#bbd4de" fill-rule="evenodd" stroke="none"/>
    <path d="M30.45 13.85 L30.45 13.9 Q31.0 15.75 31.05 17.6 L31.05 17.85 30.1 17.7 30.2 16.35 30.1 14.65 30.0 14.0 29.95 13.8 29.7 12.95 29.65 12.75 30.45 13.85 M33.3 18.2 L33.3 18.25 33.7 19.65 Q33.4 21.75 32.65 23.7 L32.25 24.7 31.55 25.95 31.2 24.1 31.3 24.15 32.7 20.95 33.05 19.55 33.25 18.15 33.3 18.2 M29.15 24.65 L29.05 24.85 Q27.9 26.7 26.55 28.1 L25.2 26.4 Q27.2 24.85 28.45 22.55 L29.15 24.65 M27.15 29.0 L27.25 30.85 27.3 30.95 Q25.4 32.45 23.0 33.4 L22.25 33.65 21.4 33.9 21.5 31.75 Q23.85 31.1 25.85 29.95 26.05 29.75 26.3 29.65 26.7 29.25 27.15 29.0 M20.6 31.35 L20.55 31.35 15.25 31.85 15.6 29.05 20.65 28.65 20.65 28.7 20.6 31.35 M9.5 29.85 L7.6 28.45 5.7 26.45 6.95 24.1 7.75 25.1 Q9.05 26.45 10.8 27.4 L9.5 29.85 M3.6 28.0 L3.55 28.05 Q1.5 25.55 0.6 22.2 L0.6 22.1 0.65 22.1 1.55 20.45 1.95 21.75 3.35 24.7 4.4 26.15 3.6 28.0 M2.9 20.1 L2.75 19.1 Q2.6 17.75 2.8 16.25 L2.75 15.95 2.8 15.85 2.75 15.85 4.3 14.55 4.25 15.15 4.3 17.1 4.3 17.15 4.7 19.6 2.9 20.1 M0.05 15.45 L0.2 14.45 0.35 13.95 Q0.85 11.65 2.1 9.35 L2.2 9.25 3.05 8.3 2.5 9.4 Q1.65 11.3 1.3 13.15 L1.1 14.1 1.05 14.15 1.1 14.15 0.05 15.45 M5.3 9.4 Q6.55 7.75 8.05 6.55 L8.2 6.45 9.25 5.95 8.75 6.4 8.35 6.65 Q7.15 7.75 6.3 9.25 L5.95 9.75 5.3 9.4 M25.15 2.15 L25.2 3.9 24.35 5.35 24.0 5.1 23.6 4.9 25.15 2.15" fill="#6f8891" fill-rule="evenodd" stroke="none"/>
    <path d="M32.75 11.85 L33.1 13.1 30.45 13.85 29.65 12.75 29.65 12.7 32.75 11.85 M31.55 25.95 L29.15 24.55 29.15 24.65 28.45 22.55 28.45 22.5 31.2 24.1 31.55 25.95 M21.4 33.9 L20.65 31.35 20.6 31.35 20.65 28.7 21.5 31.75 21.4 33.9 M15.2 32.25 L15.2 32.3 14.85 34.4 Q11.65 34.05 8.6 32.35 L8.7 32.15 9.25 30.25 9.6 30.45 Q12.3 31.9 15.2 32.25 M5.7 26.45 L5.7 26.4 5.6 26.4 3.6 28.0 4.4 26.15 6.95 24.1 5.7 26.45 M2.75 15.85 L0.0 15.55 0.05 15.45 1.1 14.15 4.3 14.55 2.75 15.85 M8.2 6.45 L6.65 4.5 7.25 3.3 9.25 5.9 9.25 5.95 8.2 6.45" fill="#516870" fill-rule="evenodd" stroke="none"/>
    <path d="M31.05 17.85 L33.3 18.1 33.3 18.2 33.25 18.15 33.05 19.55 32.7 20.95 31.3 24.15 31.2 24.1 28.45 22.5 28.45 22.55 Q27.2 24.85 25.2 26.4 L26.55 28.1 27.2 28.95 27.15 29.0 Q26.7 29.25 26.3 29.65 26.05 29.75 25.85 29.95 23.85 31.1 21.5 31.75 L20.65 28.7 20.65 28.65 15.6 29.05 15.25 31.85 15.2 32.25 Q12.3 31.9 9.6 30.45 L9.25 30.25 9.5 29.85 10.8 27.4 Q9.05 26.45 7.75 25.1 L6.95 24.1 4.4 26.15 3.35 24.7 1.95 21.75 1.55 20.45 2.9 20.1 4.7 19.6 4.3 17.15 5.1 17.75 5.55 18.05 Q8.55 19.85 11.9 18.95 L12.65 20.2 13.4 21.0 14.25 21.7 Q15.3 22.3 16.4 22.4 L18.65 22.2 18.95 22.1 20.7 21.15 Q21.55 20.55 22.0 19.55 L22.4 19.0 22.8 17.4 22.55 15.1 22.4 14.55 23.85 14.0 Q26.65 12.85 29.7 12.95 L29.95 13.8 30.0 14.0 30.1 14.65 30.2 16.35 30.1 17.7 31.05 17.85" fill="#b1c4cb" fill-rule="evenodd" stroke="none"/>
    <path d="M22.4 14.55 L22.55 15.1 22.8 17.4 22.4 19.0 22.0 19.55 Q21.55 20.55 20.7 21.15 L18.95 22.1 18.65 22.2 16.4 22.4 Q15.3 22.3 14.25 21.7 L13.4 21.0 12.65 20.2 11.9 18.95 11.6 18.15 11.45 17.25 Q11.35 16.6 11.5 16.0 11.6 14.9 12.1 13.85 12.7 12.8 13.55 12.15 14.45 11.5 15.6 11.15 L17.85 11.0 Q18.9 11.1 19.85 11.7 20.95 12.3 21.65 13.2 L22.4 14.55 M21.7 18.1 L22.05 16.75 Q22.15 15.85 21.85 14.85 L21.85 14.8 21.1 13.15 19.55 11.95 Q18.75 11.4 17.85 11.35 L15.9 11.45 Q14.95 11.7 14.25 12.35 13.45 12.85 12.95 13.75 12.5 14.65 12.4 15.6 L12.45 16.65 12.55 17.45 13.05 18.65 13.4 19.15 14.05 19.85 14.8 20.4 Q15.7 20.95 16.6 21.05 L18.5 20.85 18.75 20.75 20.25 20.0 21.4 18.6 21.7 18.1" fill="#d5eef7" fill-rule="evenodd" stroke="none"/>
    <path d="M12.45 16.65 L12.4 15.6 Q12.5 14.65 12.95 13.75 13.45 12.85 14.25 12.35 14.95 11.7 15.9 11.45 L17.85 11.35 Q18.75 11.4 19.55 11.95 L21.1 13.15 21.85 14.8 21.85 14.85 Q22.15 15.85 22.05 16.75 L21.7 18.1 21.5 17.3 20.65 15.55 20.55 15.45 19.25 14.4 Q18.35 13.9 17.45 13.8 L15.55 13.9 Q14.55 14.2 13.85 14.75 13.1 15.35 12.65 16.25 L12.45 16.65" fill="#83979f" fill-rule="evenodd" stroke="none"/>
  </g>
</svg>
