<?xml version="1.0" encoding="UTF-8" standalone="no"?>
<svg xmlns:xlink="http://www.w3.org/1999/xlink" height="12.0px" width="23.75px" xmlns="http://www.w3.org/2000/svg">
  <g transform="matrix(1.0, 0.0, 0.0, 1.0, 43.65, 5.65)">
    <path d="M-43.55 -0.5 L-43.6 -3.2 -42.65 -2.8 -39.4 -2.8 -39.45 -5.65 -38.1 -5.05 -38.4 -4.65 -38.4 -2.8 -35.15 -2.8 -34.7 -3.3 -33.75 -2.55 -34.15 -2.15 -34.15 0.65 -34.1 1.85 -35.1 2.2 -35.1 1.25 -38.4 1.25 -38.35 6.0 -39.45 6.35 -39.4 1.25 -42.6 1.25 -42.6 1.85 -43.65 2.2 -43.6 1.55 -43.55 -0.5 M-30.8 -2.2 L-31.3 -2.85 -21.9 -2.85 -21.05 -3.65 -19.9 -2.35 -23.05 -2.35 Q-23.7 1.15 -25.1 2.85 -23.2 4.5 -19.95 4.75 L-19.95 5.2 Q-21.15 5.2 -21.2 5.85 -24.2 5.15 -25.7 3.5 -27.65 5.45 -31.5 6.2 L-31.6 5.8 Q-27.95 4.7 -26.3 2.9 -27.7 1.1 -28.15 -2.35 L-29.8 -2.35 -30.8 -2.2 M-26.6 -5.45 Q-25.6 -4.9 -25.15 -4.35 -24.75 -3.85 -25.3 -3.2 -25.9 -2.55 -26.05 -3.4 -26.2 -4.2 -26.9 -5.2 L-26.6 -5.45 M-35.1 -2.3 L-38.4 -2.3 -38.4 0.75 -35.1 0.75 -35.1 -2.3 M-24.15 -2.35 L-27.65 -2.35 Q-27.05 0.45 -25.75 2.25 -24.6 0.4 -24.15 -2.35 M-39.4 -2.3 L-42.6 -2.3 -42.6 0.75 -39.4 0.75 -39.4 -2.3" fill="#000000" fill-rule="evenodd" stroke="none"/>
  </g>
</svg>
