<?xml version="1.0" encoding="UTF-8" standalone="no"?>
<svg xmlns:xlink="http://www.w3.org/1999/xlink" height="14.9px" width="22.35px" xmlns="http://www.w3.org/2000/svg">
  <g transform="matrix(1.0, 0.0, 0.0, 1.0, 0.0, 0.0)">
    <path d="M21.5 0.0 L22.15 0.2 22.35 0.85 21.5 0.85 21.5 0.0 M22.35 14.05 L22.15 14.7 21.5 14.9 21.5 14.05 22.35 14.05 M0.85 14.9 L0.2 14.7 0.0 14.05 0.85 14.05 0.85 14.9 M0.0 0.85 L0.0 0.0 0.85 0.0 0.85 0.85 0.0 0.85" fill="#007632" fill-opacity="0.827451" fill-rule="evenodd" stroke="none"/>
    <path d="M21.5 14.9 L20.7 14.9 20.7 14.05 21.5 14.05 21.5 14.9 M1.65 14.9 L0.85 14.9 0.85 14.05 1.65 14.05 1.65 14.9 M0.85 0.0 L1.65 0.0 1.65 0.85 0.85 0.85 0.85 0.0 M20.7 0.0 L21.5 0.0 21.5 0.85 20.7 0.85 20.7 0.0" fill="#008639" fill-opacity="0.91764706" fill-rule="evenodd" stroke="none"/>
    <path d="M20.7 0.85 L21.5 0.85 21.5 1.65 21.5 2.5 21.5 4.15 21.5 4.95 20.7 4.95 19.85 4.95 19.65 4.35 19.05 4.15 18.85 3.5 18.2 3.3 17.4 3.3 17.15 2.7 16.55 2.5 16.35 1.85 15.7 1.65 14.9 1.65 14.9 0.85 19.85 0.85 20.7 0.85 M21.5 9.95 L21.5 11.6 21.5 12.4 21.5 13.25 21.5 14.05 20.7 14.05 19.85 14.05 15.7 14.05 15.7 13.25 16.35 13.05 16.55 12.4 17.4 12.4 18.0 12.2 18.2 11.6 18.85 11.4 19.05 10.75 19.85 10.75 20.5 10.55 20.7 9.95 21.5 9.95 M7.45 1.65 L6.6 1.65 6.6 2.5 5.8 2.5 4.95 2.5 4.95 3.3 4.15 3.3 3.3 3.3 3.3 4.15 2.5 4.15 2.5 4.95 1.65 4.95 0.85 4.95 0.85 4.15 0.85 2.5 0.85 1.65 0.85 0.85 1.65 0.85 6.6 0.85 7.45 0.85 7.45 1.65 M2.5 10.75 L3.3 10.75 3.5 11.4 Q3.7 11.6 4.15 11.6 L4.35 12.2 4.95 12.4 5.8 12.4 6.0 13.05 6.6 13.25 7.45 13.25 7.45 14.05 6.6 14.05 1.65 14.05 0.85 14.05 0.85 13.25 0.85 12.4 0.85 11.6 0.85 9.95 1.65 9.95 1.85 10.55 2.5 10.75" fill="#00913e" fill-rule="evenodd" stroke="none"/>
    <path d="M22.35 2.5 L22.35 4.95 22.35 5.8 21.5 5.8 21.5 4.95 21.5 4.15 21.5 2.5 22.35 2.5 M22.35 9.1 L22.35 11.6 22.35 12.4 21.5 12.4 21.5 11.6 21.5 9.95 21.5 9.1 22.35 9.1 M20.7 14.9 L19.85 14.9 14.05 14.9 14.05 14.05 14.9 14.05 15.7 14.05 19.85 14.05 20.7 14.05 20.7 14.9 M8.3 14.9 L7.45 14.9 1.65 14.9 1.65 14.05 6.6 14.05 7.45 14.05 8.3 14.05 8.3 14.9 M0.0 12.4 L0.0 11.6 0.0 9.1 0.85 9.1 0.85 9.95 0.85 11.6 0.85 12.4 0.0 12.4 M0.0 5.8 L0.0 4.95 0.0 2.5 0.85 2.5 0.85 4.15 0.85 4.95 0.85 5.8 0.0 5.8 M1.65 0.0 L8.3 0.0 9.1 0.0 9.1 0.85 8.3 0.85 7.45 0.85 6.6 0.85 1.65 0.85 1.65 0.0 M14.05 0.0 L19.85 0.0 20.7 0.0 20.7 0.85 19.85 0.85 14.9 0.85 14.05 0.85 14.05 0.0" fill="#008338" fill-opacity="0.9019608" fill-rule="evenodd" stroke="none"/>
    <path d="M22.35 1.65 L22.35 2.5 21.5 2.5 21.5 1.65 22.35 1.65 M22.35 12.4 L22.35 13.25 21.5 13.25 21.5 12.4 22.35 12.4 M0.0 13.25 L0.0 12.4 0.85 12.4 0.85 13.25 0.0 13.25 M0.0 2.5 L0.0 1.65 0.85 1.65 0.85 2.5 0.0 2.5" fill="#008237" fill-opacity="0.9019608" fill-rule="evenodd" stroke="none"/>
    <path d="M22.35 0.85 L22.35 1.65 21.5 1.65 21.5 0.85 22.35 0.85 M22.35 13.25 L22.35 14.05 21.5 14.05 21.5 13.25 22.35 13.25 M0.0 14.05 L0.0 13.25 0.85 13.25 0.85 14.05 0.0 14.05 M0.0 1.65 L0.0 0.85 0.85 0.85 0.85 1.65 0.0 1.65" fill="#008b3b" fill-opacity="0.9529412" fill-rule="evenodd" stroke="none"/>
    <path d="M14.9 0.85 L14.9 1.65 14.05 1.65 14.05 0.85 14.9 0.85 M15.7 1.65 L16.35 1.85 16.55 2.5 15.7 2.5 15.7 1.65 M18.2 3.3 L18.85 3.5 19.05 4.15 18.2 4.15 18.2 3.3 M20.7 4.95 L21.5 4.95 21.5 5.8 20.7 5.8 20.7 4.95 M20.7 9.95 L20.5 10.55 19.85 10.75 19.85 9.95 20.7 9.95 M18.2 11.6 L18.0 12.2 17.4 12.4 17.4 11.6 18.2 11.6 M16.55 12.4 L16.35 13.05 15.7 13.25 15.7 14.05 14.9 14.05 14.05 14.05 14.05 13.25 14.9 13.25 15.7 13.25 15.7 12.4 16.55 12.4 M8.3 0.85 L8.3 1.65 7.45 1.65 7.45 2.5 6.6 2.5 6.6 1.65 7.45 1.65 7.45 0.85 8.3 0.85 M0.85 4.95 L1.65 4.95 1.65 5.8 0.85 5.8 0.85 4.95 M3.3 4.15 L3.3 3.3 4.15 3.3 4.15 4.15 3.3 4.15 M4.95 3.3 L4.95 2.5 5.8 2.5 5.8 3.3 4.95 3.3 M3.3 10.75 L4.15 10.75 4.15 11.6 4.95 11.6 4.95 12.4 4.35 12.2 4.15 11.6 Q3.7 11.6 3.5 11.4 L3.3 10.75 M1.65 9.1 L1.65 9.95 2.5 9.95 2.5 10.75 1.85 10.55 1.65 9.95 0.85 9.95 0.85 9.1 1.65 9.1 M6.6 13.25 L6.0 13.05 5.8 12.4 6.6 12.4 6.6 13.25" fill="#00923d" fill-rule="evenodd" stroke="none"/>
    <path d="M20.7 5.8 L21.5 5.8 21.5 6.6 20.7 6.6 20.7 5.8 M9.1 13.25 L9.1 14.05 8.3 14.05 8.3 13.25 9.1 13.25 M8.3 1.65 L8.3 2.5 7.45 2.5 7.45 1.65 8.3 1.65" fill="#00874a" fill-rule="evenodd" stroke="none"/>
    <path d="M19.85 4.95 L20.7 4.95 20.7 5.8 19.85 5.8 19.85 4.95 M19.85 9.95 L19.85 10.75 19.05 10.75 19.05 9.95 19.85 9.95" fill="#009040" fill-rule="evenodd" stroke="none"/>
    <path d="M22.35 5.8 L22.35 6.6 21.5 6.6 21.5 5.8 22.35 5.8 M14.05 14.9 L13.25 14.9 13.25 14.05 14.05 14.05 14.05 14.9 M9.1 14.9 L8.3 14.9 8.3 14.05 9.1 14.05 9.1 14.9 M0.0 9.1 L0.0 8.3 0.85 8.3 0.85 9.1 0.0 9.1 M0.0 6.6 L0.0 5.8 0.85 5.8 0.85 6.6 0.0 6.6 M9.1 0.0 L9.95 0.0 9.95 0.85 9.1 0.85 9.1 0.0 M12.4 0.0 L13.25 0.0 14.05 0.0 14.05 0.85 13.25 0.85 12.4 0.85 12.4 0.0" fill="#008437" fill-opacity="0.9019608" fill-rule="evenodd" stroke="none"/>
    <path d="M22.35 6.6 L22.35 7.45 21.5 7.45 21.5 6.6 22.35 6.6" fill="#00803d" fill-opacity="0.9019608" fill-rule="evenodd" stroke="none"/>
    <path d="M20.7 6.6 L21.5 6.6 21.5 7.45 20.7 7.45 20.7 6.6" fill="#51a02a" fill-rule="evenodd" stroke="none"/>
    <path d="M20.7 6.6 L20.7 7.45 19.85 7.45 19.85 6.6 20.7 6.6 M16.55 9.1 L17.4 9.1 17.4 9.95 16.55 9.95 16.55 9.1 M3.3 7.45 L3.3 8.3 2.5 8.3 2.5 7.45 3.3 7.45" fill="#ffc800" fill-rule="evenodd" stroke="none"/>
    <path d="M20.7 7.45 L21.5 7.45 21.5 8.3 20.7 8.3 20.7 7.45" fill="#d8bd08" fill-rule="evenodd" stroke="none"/>
    <path d="M20.7 9.1 L20.7 8.3 21.5 8.3 21.5 9.1 20.7 9.1" fill="#008052" fill-rule="evenodd" stroke="none"/>
    <path d="M20.7 8.3 L20.7 9.1 19.85 9.1 19.85 8.3 20.7 8.3" fill="#199538" fill-rule="evenodd" stroke="none"/>
    <path d="M20.7 9.1 L21.5 9.1 21.5 9.95 20.7 9.95 20.7 9.1 M8.3 13.25 L8.3 14.05 7.45 14.05 7.45 13.25 8.3 13.25" fill="#00933d" fill-rule="evenodd" stroke="none"/>
    <path d="M22.35 8.3 L22.35 9.1 21.5 9.1 21.5 8.3 22.35 8.3" fill="#008439" fill-opacity="0.9019608" fill-rule="evenodd" stroke="none"/>
    <path d="M20.7 7.45 L20.7 8.3 19.85 8.3 19.85 7.45 20.7 7.45 M15.7 10.75 L15.7 11.6 14.9 11.6 14.9 10.75 15.7 10.75" fill="#ffd800" fill-rule="evenodd" stroke="none"/>
    <path d="M22.35 7.45 L22.35 8.3 21.5 8.3 21.5 7.45 22.35 7.45" fill="#007d3f" fill-opacity="0.9019608" fill-rule="evenodd" stroke="none"/>
    <path d="M20.7 9.95 L19.85 9.95 19.85 9.1 20.7 9.1 20.7 9.95" fill="#008849" fill-rule="evenodd" stroke="none"/>
    <path d="M20.7 5.8 L20.7 6.6 19.85 6.6 19.85 5.8 20.7 5.8 M19.05 9.1 L19.85 9.1 19.85 9.95 19.05 9.95 19.05 9.1" fill="#00834f" fill-rule="evenodd" stroke="none"/>
    <path d="M16.55 2.5 L17.15 2.7 17.4 3.3 16.55 3.3 16.55 2.5 M19.05 4.15 L19.65 4.35 19.85 4.95 19.05 4.95 19.05 4.15 M19.05 10.75 L18.85 11.4 18.2 11.6 18.2 10.75 19.05 10.75 M2.5 4.95 L2.5 4.15 3.3 4.15 3.3 4.95 2.5 4.95" fill="#00923c" fill-rule="evenodd" stroke="none"/>
    <path d="M14.9 1.65 L15.7 1.65 15.7 2.5 14.9 2.5 14.9 1.65 M4.15 3.3 L4.95 3.3 4.95 4.15 4.15 4.15 4.15 3.3 M4.95 12.4 L4.95 11.6 5.8 11.6 5.8 12.4 4.95 12.4" fill="#00923f" fill-rule="evenodd" stroke="none"/>
    <path d="M15.7 2.5 L16.55 2.5 16.55 3.3 15.7 3.3 15.7 2.5" fill="#008c47" fill-rule="evenodd" stroke="none"/>
    <path d="M16.55 3.3 L17.4 3.3 17.4 4.15 16.55 4.15 16.55 3.3 M16.55 11.6 L16.55 12.4 15.7 12.4 15.7 11.6 16.55 11.6" fill="#008450" fill-rule="evenodd" stroke="none"/>
    <path d="M15.7 3.3 L16.55 3.3 16.55 4.15 15.7 4.15 15.7 3.3 M3.3 5.8 L3.3 4.95 4.15 4.95 4.15 5.8 3.3 5.8" fill="#008d41" fill-rule="evenodd" stroke="none"/>
    <path d="M16.55 4.15 L17.4 4.15 17.4 4.95 16.55 4.95 16.55 4.15" fill="#6ca522" fill-rule="evenodd" stroke="none"/>
    <path d="M17.4 3.3 L18.2 3.3 18.2 4.15 17.4 4.15 17.4 3.3 M17.4 12.4 L16.55 12.4 16.55 11.6 17.4 11.6 17.4 12.4 M1.65 4.95 L2.5 4.95 2.5 5.8 1.65 5.8 1.65 4.95 M1.65 8.3 L2.5 8.3 2.5 9.1 1.65 9.1 1.65 8.3 M2.5 9.95 L3.3 9.95 3.3 10.75 2.5 10.75 2.5 9.95" fill="#00903f" fill-rule="evenodd" stroke="none"/>
    <path d="M15.7 3.3 L15.7 4.15 14.9 4.15 14.9 3.3 15.7 3.3" fill="#e3bb05" fill-rule="evenodd" stroke="none"/>
    <path d="M15.7 5.8 L15.7 4.95 16.55 4.95 16.55 5.8 15.7 5.8 M9.95 12.4 L9.95 13.25 9.1 13.25 9.1 12.4 9.95 12.4 M5.8 9.95 L5.8 9.1 6.6 9.1 6.6 9.95 5.8 9.95" fill="#ffd700" fill-rule="evenodd" stroke="none"/>
    <path d="M18.2 7.45 L18.2 8.3 17.4 8.3 17.4 7.45 18.2 7.45 M15.7 4.95 L15.7 5.8 14.9 5.8 14.9 4.95 15.7 4.95" fill="#f7c100" fill-rule="evenodd" stroke="none"/>
    <path d="M19.85 6.6 L19.85 7.45 19.05 7.45 19.05 6.6 19.85 6.6 M16.55 4.95 L17.4 4.95 17.4 5.8 16.55 5.8 16.55 4.95 M18.2 8.3 L19.05 8.3 19.05 9.1 18.2 9.1 18.2 8.3 M5.8 10.75 L5.8 9.95 6.6 9.95 6.6 10.75 7.45 10.75 7.45 11.6 6.6 11.6 6.6 10.75 5.8 10.75" fill="#ffd000" fill-rule="evenodd" stroke="none"/>
    <path d="M17.4 4.95 L18.2 4.95 18.2 5.8 17.4 5.8 17.4 4.95" fill="#fac500" fill-rule="evenodd" stroke="none"/>
    <path d="M16.55 5.8 L17.4 5.8 17.4 6.6 16.55 6.6 16.55 5.8" fill="#f2be00" fill-rule="evenodd" stroke="none"/>
    <path d="M15.7 5.8 L16.55 5.8 16.55 6.6 15.7 6.6 15.7 5.8 M5.8 7.45 L6.6 7.45 6.6 8.3 5.8 8.3 5.8 7.45" fill="#ffee00" fill-rule="evenodd" stroke="none"/>
    <path d="M15.7 4.15 L16.55 4.15 16.55 4.95 15.7 4.95 15.7 4.15 M4.15 5.8 L4.95 5.8 4.95 6.6 4.15 6.6 4.15 5.8" fill="#ffcd00" fill-rule="evenodd" stroke="none"/>
    <path d="M15.7 4.15 L15.7 4.95 14.9 4.95 14.9 4.15 15.7 4.15" fill="#fff800" fill-rule="evenodd" stroke="none"/>
    <path d="M17.4 4.15 L18.2 4.15 18.2 4.95 17.4 4.95 17.4 4.15 M4.95 4.15 L4.95 4.95 4.15 4.95 4.15 4.15 4.95 4.15 M2.5 9.1 L3.3 9.1 3.3 9.95 2.5 9.95 2.5 9.1" fill="#008251" fill-rule="evenodd" stroke="none"/>
    <path d="M18.2 5.8 L18.2 4.95 19.05 4.95 19.05 5.8 18.2 5.8" fill="#0d923a" fill-rule="evenodd" stroke="none"/>
    <path d="M19.05 4.95 L19.85 4.95 19.85 5.8 19.05 5.8 19.05 4.95" fill="#008252" fill-rule="evenodd" stroke="none"/>
    <path d="M19.05 5.8 L19.85 5.8 19.85 6.6 19.05 6.6 19.05 5.8" fill="#94ae17" fill-rule="evenodd" stroke="none"/>
    <path d="M18.2 6.6 L18.2 5.8 19.05 5.8 19.05 6.6 18.2 6.6 M5.8 4.95 L5.8 5.8 4.95 5.8 4.95 4.95 5.8 4.95" fill="#ffd300" fill-rule="evenodd" stroke="none"/>
    <path d="M18.2 4.95 L18.2 4.15 19.05 4.15 19.05 4.95 18.2 4.95" fill="#008a48" fill-rule="evenodd" stroke="none"/>
    <path d="M15.7 2.5 L15.7 3.3 14.9 3.3 14.9 2.5 15.7 2.5" fill="#007f51" fill-rule="evenodd" stroke="none"/>
    <path d="M19.05 8.3 L19.85 8.3 19.85 9.1 19.05 9.1 19.05 8.3 M17.4 5.8 L18.2 5.8 18.2 6.6 17.4 6.6 17.4 5.8" fill="#ffc900" fill-rule="evenodd" stroke="none"/>
    <path d="M13.25 2.5 L13.25 1.65 14.05 1.65 14.05 2.5 13.25 2.5 M6.6 11.6 L7.45 11.6 7.45 12.4 6.6 12.4 6.6 11.6" fill="#008649" fill-rule="evenodd" stroke="none"/>
    <path d="M13.25 1.65 L13.25 2.5 12.4 2.5 12.4 1.65 13.25 1.65" fill="#c7b90c" fill-rule="evenodd" stroke="none"/>
    <path d="M14.05 13.25 L14.05 14.05 13.25 14.05 13.25 13.25 14.05 13.25 M14.05 1.65 L14.9 1.65 14.9 2.5 14.05 2.5 14.05 1.65 M5.8 3.3 L5.8 4.15 4.95 4.15 4.95 3.3 5.8 3.3 M6.6 11.6 L6.6 12.4 5.8 12.4 5.8 11.6 6.6 11.6" fill="#00854e" fill-rule="evenodd" stroke="none"/>
    <path d="M14.05 2.5 L14.9 2.5 14.9 3.3 14.05 3.3 14.05 2.5" fill="#4e9e2a" fill-rule="evenodd" stroke="none"/>
    <path d="M14.05 0.85 L14.05 1.65 13.25 1.65 13.25 0.85 14.05 0.85 M6.6 2.5 L6.6 3.3 5.8 3.3 5.8 2.5 6.6 2.5" fill="#008c43" fill-rule="evenodd" stroke="none"/>
    <path d="M13.25 2.5 L14.05 2.5 14.05 3.3 13.25 3.3 13.25 2.5 M6.6 4.15 L7.45 4.15 7.45 4.95 6.6 4.95 6.6 4.15" fill="#ffed00" fill-rule="evenodd" stroke="none"/>
    <path d="M13.25 0.85 L13.25 1.65 12.4 1.65 12.4 0.85 13.25 0.85" fill="#008154" fill-rule="evenodd" stroke="none"/>
    <path d="M11.6 0.0 L12.4 0.0 12.4 0.85 11.6 0.85 11.6 0.0" fill="#007d42" fill-opacity="0.9019608" fill-rule="evenodd" stroke="none"/>
    <path d="M10.75 0.0 L11.6 0.0 11.6 0.85 10.75 0.85 10.75 0.0" fill="#007a43" fill-opacity="0.9019608" fill-rule="evenodd" stroke="none"/>
    <path d="M12.4 0.85 L12.4 1.65 11.6 1.65 11.6 0.85 12.4 0.85" fill="#429d2c" fill-rule="evenodd" stroke="none"/>
    <path d="M9.95 0.0 L10.75 0.0 10.75 0.85 9.95 0.85 9.95 0.0" fill="#007d41" fill-opacity="0.9019608" fill-rule="evenodd" stroke="none"/>
    <path d="M11.6 1.65 L12.4 1.65 12.4 2.5 11.6 2.5 10.75 2.5 9.95 2.5 9.95 1.65 10.75 1.65 11.6 1.65" fill="#ffdf00" fill-rule="evenodd" stroke="none"/>
    <path d="M11.6 2.5 L12.4 2.5 12.4 3.3 11.6 3.3 11.6 2.5" fill="#fec400" fill-rule="evenodd" stroke="none"/>
    <path d="M10.75 2.5 L11.6 2.5 11.6 3.3 10.75 3.3 10.75 2.5" fill="#e3b20a" fill-rule="evenodd" stroke="none"/>
    <path d="M10.75 0.85 L11.6 0.85 11.6 1.65 10.75 1.65 10.75 0.85 M5.8 5.8 L6.6 5.8 6.6 6.6 5.8 6.6 5.8 5.8" fill="#ffc500" fill-rule="evenodd" stroke="none"/>
    <path d="M10.75 0.85 L10.75 1.65 9.95 1.65 9.95 0.85 10.75 0.85" fill="#1c9734" fill-rule="evenodd" stroke="none"/>
    <path d="M12.4 3.3 L13.25 3.3 13.25 4.15 12.4 4.15 12.4 3.3" fill="#25156d" fill-rule="evenodd" stroke="none"/>
    <path d="M11.6 3.3 L12.4 3.3 12.4 4.15 11.6 4.15 10.75 4.15 9.95 4.15 9.95 3.3 10.75 3.3 11.6 3.3" fill="#000086" fill-rule="evenodd" stroke="none"/>
    <path d="M11.6 4.15 L12.4 4.15 12.4 4.95 11.6 4.95 11.6 4.15" fill="#251671" fill-rule="evenodd" stroke="none"/>
    <path d="M10.75 5.8 L10.75 4.95 11.6 4.95 11.6 5.8 10.75 5.8" fill="#09005a" fill-rule="evenodd" stroke="none"/>
    <path d="M10.75 4.95 L10.75 5.8 9.95 5.8 9.95 4.95 10.75 4.95" fill="#28136f" fill-rule="evenodd" stroke="none"/>
    <path d="M12.4 4.95 L13.25 4.95 13.25 5.8 12.4 5.8 12.4 4.95" fill="#1a0361" fill-rule="evenodd" stroke="none"/>
    <path d="M11.6 5.8 L11.6 4.95 12.4 4.95 12.4 5.8 11.6 5.8" fill="#050058" fill-rule="evenodd" stroke="none"/>
    <path d="M11.6 5.8 L12.4 5.8 12.4 6.6 11.6 6.6 11.6 5.8" fill="#96b7b4" fill-rule="evenodd" stroke="none"/>
    <path d="M11.6 4.95 L10.75 4.95 10.75 4.15 11.6 4.15 11.6 4.95" fill="#24146e" fill-rule="evenodd" stroke="none"/>
    <path d="M10.75 5.8 L11.6 5.8 11.6 6.6 10.75 6.6 10.75 5.8" fill="#d4f6de" fill-rule="evenodd" stroke="none"/>
    <path d="M10.75 4.15 L10.75 4.95 9.95 4.95 9.95 4.15 10.75 4.15" fill="#170669" fill-rule="evenodd" stroke="none"/>
    <path d="M12.4 4.15 L13.25 4.15 13.25 4.95 12.4 4.95 12.4 4.15" fill="#0d007f" fill-rule="evenodd" stroke="none"/>
    <path d="M14.05 4.15 L14.05 3.3 14.9 3.3 14.9 4.15 14.05 4.15 M14.05 11.6 L14.05 12.4 13.25 12.4 13.25 11.6 14.05 11.6 M7.45 10.75 L8.3 10.75 8.3 11.6 9.1 11.6 9.1 12.4 8.3 12.4 8.3 11.6 7.45 11.6 7.45 10.75" fill="#ffff00" fill-rule="evenodd" stroke="none"/>
    <path d="M14.9 4.15 L14.9 4.95 14.05 4.95 14.05 4.15 14.9 4.15" fill="#b48722" fill-rule="evenodd" stroke="none"/>
    <path d="M13.25 3.3 L14.05 3.3 14.05 4.15 13.25 4.15 13.25 3.3" fill="#e6a70f" fill-rule="evenodd" stroke="none"/>
    <path d="M13.25 4.95 L14.05 4.95 14.05 5.8 13.25 5.8 13.25 4.95" fill="#221373" fill-rule="evenodd" stroke="none"/>
    <path d="M14.05 4.95 L14.9 4.95 14.9 5.8 14.05 5.8 14.05 4.95" fill="#000093" fill-rule="evenodd" stroke="none"/>
    <path d="M14.05 5.8 L14.9 5.8 14.9 6.6 14.05 6.6 14.05 5.8" fill="#00007d" fill-rule="evenodd" stroke="none"/>
    <path d="M13.25 5.8 L14.05 5.8 14.05 6.6 13.25 6.6 13.25 5.8" fill="#010050" fill-rule="evenodd" stroke="none"/>
    <path d="M13.25 4.15 L14.05 4.15 14.05 4.95 13.25 4.95 13.25 4.15" fill="#00009a" fill-rule="evenodd" stroke="none"/>
    <path d="M10.75 3.3 L9.95 3.3 9.95 2.5 10.75 2.5 10.75 3.3" fill="#ffca00" fill-rule="evenodd" stroke="none"/>
    <path d="M12.4 2.5 L13.25 2.5 13.25 3.3 12.4 3.3 12.4 2.5 M6.6 10.75 L6.6 9.95 7.45 9.95 7.45 10.75 6.6 10.75" fill="#fff700" fill-rule="evenodd" stroke="none"/>
    <path d="M12.4 5.8 L13.25 5.8 13.25 6.6 12.4 6.6 12.4 5.8" fill="#4f4088" fill-rule="evenodd" stroke="none"/>
    <path d="M14.05 6.6 L14.9 6.6 14.9 7.45 14.05 7.45 14.05 6.6" fill="#1c0a7f" fill-rule="evenodd" stroke="none"/>
    <path d="M13.25 6.6 L14.05 6.6 14.05 7.45 13.25 7.45 13.25 6.6" fill="#b5e4c4" fill-rule="evenodd" stroke="none"/>
    <path d="M14.05 7.45 L14.9 7.45 14.9 8.3 14.05 8.3 14.05 7.45" fill="#cbffe8" fill-rule="evenodd" stroke="none"/>
    <path d="M14.9 6.6 L15.7 6.6 15.7 7.45 14.9 7.45 14.9 6.6" fill="#000057" fill-rule="evenodd" stroke="none"/>
    <path d="M13.25 6.6 L13.25 7.45 12.4 7.45 12.4 6.6 13.25 6.6" fill="#c7f4d4" fill-rule="evenodd" stroke="none"/>
    <path d="M13.25 9.1 L13.25 8.3 14.05 8.3 14.05 9.1 13.25 9.1" fill="#0a0058" fill-rule="evenodd" stroke="none"/>
    <path d="M13.25 8.3 L13.25 9.1 13.25 9.95 12.4 9.95 12.4 9.1 12.4 8.3 13.25 8.3" fill="#24126b" fill-rule="evenodd" stroke="none"/>
    <path d="M14.05 8.3 L14.9 8.3 14.9 9.1 14.05 9.1 14.05 8.3" fill="#000078" fill-rule="evenodd" stroke="none"/>
    <path d="M14.05 9.1 L14.9 9.1 14.9 9.95 14.05 9.95 14.05 9.1" fill="#0200ae" fill-rule="evenodd" stroke="none"/>
    <path d="M14.9 8.3 L15.7 8.3 15.7 9.1 14.9 9.1 14.9 8.3" fill="#c3c8b2" fill-rule="evenodd" stroke="none"/>
    <path d="M13.25 9.95 L13.25 9.1 14.05 9.1 14.05 9.95 13.25 9.95" fill="#32216e" fill-rule="evenodd" stroke="none"/>
    <path d="M13.25 7.45 L14.05 7.45 14.05 8.3 13.25 8.3 13.25 7.45" fill="#514b87" fill-rule="evenodd" stroke="none"/>
    <path d="M13.25 8.3 L12.4 8.3 12.4 7.45 13.25 7.45 13.25 8.3" fill="#010056" fill-rule="evenodd" stroke="none"/>
    <path d="M14.9 7.45 L15.7 7.45 15.7 8.3 14.9 8.3 14.9 7.45" fill="#717bac" fill-rule="evenodd" stroke="none"/>
    <path d="M12.4 6.6 L12.4 7.45 11.6 7.45 11.6 6.6 12.4 6.6" fill="#747aa0" fill-rule="evenodd" stroke="none"/>
    <path d="M10.75 6.6 L11.6 6.6 11.6 7.45 10.75 7.45 10.75 6.6" fill="#291371" fill-rule="evenodd" stroke="none"/>
    <path d="M12.4 7.45 L12.4 8.3 11.6 8.3 11.6 7.45 12.4 7.45" fill="#09005b" fill-rule="evenodd" stroke="none"/>
    <path d="M10.75 6.6 L10.75 7.45 9.95 7.45 9.95 6.6 10.75 6.6 M8.3 6.6 L9.1 6.6 9.1 7.45 8.3 7.45 8.3 6.6" fill="#0c005a" fill-rule="evenodd" stroke="none"/>
    <path d="M11.6 8.3 L11.6 9.1 11.6 9.95 10.75 9.95 10.75 9.1 10.75 8.3 11.6 8.3" fill="#3f2f7d" fill-rule="evenodd" stroke="none"/>
    <path d="M10.75 8.3 L10.75 9.1 9.95 9.1 9.95 8.3 10.75 8.3" fill="#2a1870" fill-rule="evenodd" stroke="none"/>
    <path d="M12.4 8.3 L12.4 9.1 11.6 9.1 11.6 8.3 12.4 8.3" fill="#332274" fill-rule="evenodd" stroke="none"/>
    <path d="M12.4 9.1 L12.4 9.95 11.6 9.95 11.6 9.1 12.4 9.1" fill="#26146e" fill-rule="evenodd" stroke="none"/>
    <path d="M11.6 7.45 L11.6 8.3 10.75 8.3 9.95 8.3 9.95 7.45 10.75 7.45 11.6 7.45" fill="#21106a" fill-rule="evenodd" stroke="none"/>
    <path d="M12.4 9.95 L13.25 9.95 13.25 10.75 12.4 10.75 12.4 9.95" fill="#423181" fill-rule="evenodd" stroke="none"/>
    <path d="M11.6 9.95 L12.4 9.95 12.4 10.75 11.6 10.75 11.6 9.95" fill="#342171" fill-rule="evenodd" stroke="none"/>
    <path d="M10.75 9.95 L11.6 9.95 11.6 10.75 10.75 10.75 10.75 9.95" fill="#251369" fill-rule="evenodd" stroke="none"/>
    <path d="M11.6 10.75 L12.4 10.75 12.4 11.6 11.6 11.6 10.75 11.6 10.75 10.75 11.6 10.75 M9.1 10.75 L9.95 10.75 9.95 11.6 9.1 11.6 9.1 10.75" fill="#000088" fill-rule="evenodd" stroke="none"/>
    <path d="M10.75 9.95 L10.75 10.75 9.95 10.75 9.95 9.95 10.75 9.95" fill="#2a176b" fill-rule="evenodd" stroke="none"/>
    <path d="M12.4 11.6 L12.4 12.4 11.6 12.4 11.6 11.6 12.4 11.6" fill="#9e782d" fill-rule="evenodd" stroke="none"/>
    <path d="M11.6 11.6 L11.6 12.4 10.75 12.4 10.75 11.6 11.6 11.6" fill="#85603b" fill-rule="evenodd" stroke="none"/>
    <path d="M9.1 4.15 L9.1 4.95 8.3 4.95 8.3 4.15 9.1 4.15 M9.95 10.75 L10.75 10.75 10.75 11.6 9.95 11.6 9.95 10.75" fill="#00008c" fill-rule="evenodd" stroke="none"/>
    <path d="M13.25 10.75 L13.25 11.6 12.4 11.6 12.4 10.75 13.25 10.75" fill="#00008e" fill-rule="evenodd" stroke="none"/>
    <path d="M15.7 9.95 L15.7 10.75 14.9 10.75 14.9 11.6 14.05 11.6 14.05 10.75 14.9 10.75 14.9 9.95 15.7 9.95" fill="#fff500" fill-rule="evenodd" stroke="none"/>
    <path d="M14.9 9.95 L14.9 10.75 14.05 10.75 14.05 9.95 14.9 9.95" fill="#463055" fill-rule="evenodd" stroke="none"/>
    <path d="M14.05 9.95 L14.05 10.75 13.25 10.75 13.25 9.95 14.05 9.95" fill="#0000a8" fill-rule="evenodd" stroke="none"/>
    <path d="M14.9 11.6 L14.9 12.4 14.05 12.4 14.05 11.6 14.9 11.6" fill="#ddc206" fill-rule="evenodd" stroke="none"/>
    <path d="M14.05 10.75 L14.05 11.6 13.25 11.6 13.25 10.75 14.05 10.75" fill="#65494f" fill-rule="evenodd" stroke="none"/>
    <path d="M10.75 9.1 L10.75 9.95 9.95 9.95 9.95 9.1 10.75 9.1" fill="#1e0d68" fill-rule="evenodd" stroke="none"/>
    <path d="M13.25 11.6 L13.25 12.4 12.4 12.4 12.4 11.6 13.25 11.6 M4.15 6.6 L4.15 7.45 3.3 7.45 3.3 6.6 4.15 6.6 M4.15 8.3 L4.95 8.3 4.95 9.1 4.15 9.1 4.15 8.3" fill="#ffc400" fill-rule="evenodd" stroke="none"/>
    <path d="M14.9 9.1 L15.7 9.1 15.7 9.95 14.9 9.95 14.9 9.1" fill="#a26c05" fill-rule="evenodd" stroke="none"/>
    <path d="M19.05 6.6 L19.05 7.45 18.2 7.45 18.2 6.6 19.05 6.6" fill="#fcc300" fill-rule="evenodd" stroke="none"/>
    <path d="M19.85 7.45 L19.85 8.3 19.05 8.3 19.05 7.45 19.85 7.45" fill="#ffc700" fill-rule="evenodd" stroke="none"/>
    <path d="M17.4 6.6 L18.2 6.6 18.2 7.45 17.4 7.45 17.4 6.6 M4.95 6.6 L5.8 6.6 5.8 7.45 4.95 7.45 4.15 7.45 4.15 6.6 4.95 6.6" fill="#f5c100" fill-rule="evenodd" stroke="none"/>
    <path d="M17.4 8.3 L18.2 8.3 18.2 9.1 17.4 9.1 17.4 8.3" fill="#fdc300" fill-rule="evenodd" stroke="none"/>
    <path d="M18.2 9.1 L19.05 9.1 19.05 9.95 18.2 9.95 18.2 9.1" fill="#8cac19" fill-rule="evenodd" stroke="none"/>
    <path d="M19.05 7.45 L19.05 8.3 18.2 8.3 18.2 7.45 19.05 7.45 M4.15 7.45 L4.15 8.3 3.3 8.3 3.3 7.45 4.15 7.45" fill="#f4c100" fill-rule="evenodd" stroke="none"/>
    <path d="M16.55 7.45 L16.55 6.6 17.4 6.6 17.4 7.45 16.55 7.45" fill="#fcc700" fill-rule="evenodd" stroke="none"/>
    <path d="M17.4 7.45 L17.4 8.3 16.55 8.3 16.55 7.45 17.4 7.45" fill="#fec900" fill-rule="evenodd" stroke="none"/>
    <path d="M15.7 6.6 L16.55 6.6 16.55 7.45 15.7 7.45 15.7 6.6" fill="#ffe700" fill-rule="evenodd" stroke="none"/>
    <path d="M15.7 8.3 L16.55 8.3 16.55 9.1 15.7 9.1 15.7 8.3 M2.5 7.45 L2.5 8.3 1.65 8.3 1.65 7.45 2.5 7.45" fill="#ffd900" fill-rule="evenodd" stroke="none"/>
    <path d="M16.55 8.3 L17.4 8.3 17.4 9.1 16.55 9.1 16.55 8.3" fill="#f4bf00" fill-rule="evenodd" stroke="none"/>
    <path d="M15.7 7.45 L16.55 7.45 16.55 8.3 15.7 8.3 15.7 7.45" fill="#ffbe00" fill-rule="evenodd" stroke="none"/>
    <path d="M15.7 9.1 L16.55 9.1 16.55 9.95 15.7 9.95 15.7 9.1" fill="#ffe200" fill-rule="evenodd" stroke="none"/>
    <path d="M18.2 9.95 L18.2 10.75 17.4 10.75 17.4 9.95 18.2 9.95" fill="#008f40" fill-rule="evenodd" stroke="none"/>
    <path d="M17.4 9.95 L17.4 10.75 16.55 10.75 16.55 9.95 17.4 9.95" fill="#f2c102" fill-rule="evenodd" stroke="none"/>
    <path d="M16.55 9.95 L16.55 10.75 15.7 10.75 15.7 9.95 16.55 9.95 M3.3 5.8 L4.15 5.8 4.15 6.6 3.3 6.6 3.3 7.45 2.5 7.45 2.5 6.6 3.3 6.6 3.3 5.8 M4.15 9.1 L4.95 9.1 4.95 9.95 4.15 9.95 4.15 9.1" fill="#ffd100" fill-rule="evenodd" stroke="none"/>
    <path d="M19.05 9.95 L19.05 10.75 18.2 10.75 18.2 9.95 19.05 9.95 M17.4 10.75 L17.4 11.6 16.55 11.6 16.55 10.75 17.4 10.75" fill="#008351" fill-rule="evenodd" stroke="none"/>
    <path d="M16.55 10.75 L16.55 11.6 15.7 11.6 15.7 10.75 16.55 10.75" fill="#70a620" fill-rule="evenodd" stroke="none"/>
    <path d="M18.2 10.75 L18.2 11.6 17.4 11.6 17.4 10.75 18.2 10.75 M4.15 4.15 L4.15 4.95 3.3 4.95 3.3 4.15 4.15 4.15 M1.65 9.1 L2.5 9.1 2.5 9.95 1.65 9.95 1.65 9.1" fill="#008b47" fill-rule="evenodd" stroke="none"/>
    <path d="M17.4 9.1 L18.2 9.1 18.2 9.95 17.4 9.95 17.4 9.1 M3.3 9.1 L3.3 8.3 4.15 8.3 4.15 9.1 3.3 9.1 M9.1 11.6 L9.95 11.6 9.95 12.4 9.1 12.4 9.1 11.6" fill="#ffd200" fill-rule="evenodd" stroke="none"/>
    <path d="M9.95 5.8 L10.75 5.8 10.75 6.6 9.95 6.6 9.95 5.8" fill="#e7fded" fill-rule="evenodd" stroke="none"/>
    <path d="M14.9 5.8 L15.7 5.8 15.7 6.6 14.9 6.6 14.9 5.8" fill="#674d4d" fill-rule="evenodd" stroke="none"/>
    <path d="M15.7 11.6 L15.7 12.4 14.9 12.4 14.9 11.6 15.7 11.6" fill="#008845" fill-rule="evenodd" stroke="none"/>
    <path d="M9.1 0.85 L9.95 0.85 9.95 1.65 9.1 1.65 9.1 0.85 M1.65 5.8 L2.5 5.8 2.5 6.6 1.65 6.6 1.65 5.8 M4.95 11.6 L4.95 10.75 5.8 10.75 5.8 11.6 4.95 11.6" fill="#008051" fill-rule="evenodd" stroke="none"/>
    <path d="M8.3 1.65 L9.1 1.65 9.1 2.5 8.3 2.5 8.3 1.65 M0.85 9.1 L0.85 8.3 1.65 8.3 1.65 9.1 0.85 9.1" fill="#00824f" fill-rule="evenodd" stroke="none"/>
    <path d="M9.1 1.65 L9.95 1.65 9.95 2.5 9.1 2.5 9.1 1.65" fill="#a3b114" fill-rule="evenodd" stroke="none"/>
    <path d="M9.1 2.5 L9.95 2.5 9.95 3.3 9.1 3.3 9.1 2.5" fill="#fffc00" fill-rule="evenodd" stroke="none"/>
    <path d="M8.3 2.5 L9.1 2.5 9.1 3.3 8.3 3.3 8.3 2.5" fill="#ffe300" fill-rule="evenodd" stroke="none"/>
    <path d="M9.1 0.85 L9.1 1.65 8.3 1.65 8.3 0.85 9.1 0.85" fill="#008f42" fill-rule="evenodd" stroke="none"/>
    <path d="M6.6 2.5 L7.45 2.5 7.45 3.3 6.6 3.3 6.6 2.5" fill="#008153" fill-rule="evenodd" stroke="none"/>
    <path d="M7.45 4.15 L7.45 3.3 8.3 3.3 8.3 4.15 7.45 4.15" fill="#fffe00" fill-rule="evenodd" stroke="none"/>
    <path d="M6.6 3.3 L7.45 3.3 7.45 4.15 6.6 4.15 6.6 3.3" fill="#c1b40e" fill-rule="evenodd" stroke="none"/>
    <path d="M6.6 3.3 L6.6 4.15 5.8 4.15 5.8 3.3 6.6 3.3" fill="#008b45" fill-rule="evenodd" stroke="none"/>
    <path d="M5.8 4.15 L6.6 4.15 6.6 4.95 6.6 5.8 5.8 5.8 5.8 4.95 5.8 4.15" fill="#ffcc00" fill-rule="evenodd" stroke="none"/>
    <path d="M6.6 5.8 L6.6 4.95 7.45 4.95 7.45 5.8 6.6 5.8" fill="#ffce00" fill-rule="evenodd" stroke="none"/>
    <path d="M7.45 4.95 L8.3 4.95 8.3 5.8 7.45 5.8 7.45 4.95" fill="#060697" fill-rule="evenodd" stroke="none"/>
    <path d="M6.6 5.8 L7.45 5.8 7.45 6.6 6.6 6.6 6.6 5.8" fill="#e1d270" fill-rule="evenodd" stroke="none"/>
    <path d="M5.8 4.15 L5.8 4.95 4.95 4.95 4.95 4.15 5.8 4.15" fill="#4aa02b" fill-rule="evenodd" stroke="none"/>
    <path d="M8.3 4.15 L8.3 4.95 7.45 4.95 7.45 4.15 8.3 4.15" fill="#cd9106" fill-rule="evenodd" stroke="none"/>
    <path d="M9.95 3.3 L9.95 4.15 9.1 4.15 9.1 3.3 9.95 3.3" fill="#362365" fill-rule="evenodd" stroke="none"/>
    <path d="M9.95 4.15 L9.95 4.95 9.1 4.95 9.1 4.15 9.95 4.15" fill="#00007a" fill-rule="evenodd" stroke="none"/>
    <path d="M8.3 3.3 L9.1 3.3 9.1 4.15 8.3 4.15 8.3 3.3" fill="#ffc001" fill-rule="evenodd" stroke="none"/>
    <path d="M8.3 4.95 L9.1 4.95 9.1 5.8 8.3 5.8 8.3 4.95" fill="#322e8a" fill-rule="evenodd" stroke="none"/>
    <path d="M9.1 4.95 L9.95 4.95 9.95 5.8 9.1 5.8 9.1 4.95" fill="#423678" fill-rule="evenodd" stroke="none"/>
    <path d="M9.1 5.8 L9.95 5.8 9.95 6.6 9.1 6.6 9.1 5.8" fill="#afd6c4" fill-rule="evenodd" stroke="none"/>
    <path d="M8.3 5.8 L9.1 5.8 9.1 6.6 8.3 6.6 8.3 5.8" fill="#a0c4b2" fill-rule="evenodd" stroke="none"/>
    <path d="M7.45 3.3 L7.45 2.5 8.3 2.5 8.3 3.3 7.45 3.3" fill="#2d9733" fill-rule="evenodd" stroke="none"/>
    <path d="M7.45 5.8 L8.3 5.8 8.3 6.6 7.45 6.6 7.45 5.8" fill="#9ad2f7" fill-rule="evenodd" stroke="none"/>
    <path d="M2.5 5.8 L2.5 4.95 3.3 4.95 3.3 5.8 2.5 5.8" fill="#008350" fill-rule="evenodd" stroke="none"/>
    <path d="M0.85 5.8 L1.65 5.8 1.65 6.6 0.85 6.6 0.85 5.8" fill="#008a49" fill-rule="evenodd" stroke="none"/>
    <path d="M4.15 4.95 L4.95 4.95 4.95 5.8 4.15 5.8 4.15 4.95" fill="#dfbd05" fill-rule="evenodd" stroke="none"/>
    <path d="M2.5 5.8 L3.3 5.8 3.3 6.6 2.5 6.6 2.5 5.8" fill="#72a920" fill-rule="evenodd" stroke="none"/>
    <path d="M4.15 7.45 L4.95 7.45 4.95 8.3 4.15 8.3 4.15 7.45" fill="#f7c200" fill-rule="evenodd" stroke="none"/>
    <path d="M3.3 8.3 L3.3 9.1 2.5 9.1 2.5 8.3 3.3 8.3" fill="#f8c300" fill-rule="evenodd" stroke="none"/>
    <path d="M4.95 9.1 L4.95 8.3 5.8 8.3 5.8 9.1 4.95 9.1" fill="#f3bf00" fill-rule="evenodd" stroke="none"/>
    <path d="M3.3 9.1 L4.15 9.1 4.15 9.95 3.3 9.95 3.3 9.1" fill="#6da722" fill-rule="evenodd" stroke="none"/>
    <path d="M4.95 7.45 L5.8 7.45 5.8 8.3 4.95 8.3 4.95 7.45" fill="#f8c000" fill-rule="evenodd" stroke="none"/>
    <path d="M2.5 7.45 L1.65 7.45 1.65 6.6 2.5 6.6 2.5 7.45" fill="#fdc400" fill-rule="evenodd" stroke="none"/>
    <path d="M0.85 6.6 L1.65 6.6 1.65 7.45 0.85 7.45 0.85 6.6" fill="#3d9c2e" fill-rule="evenodd" stroke="none"/>
    <path d="M0.0 7.45 L0.0 6.6 0.85 6.6 0.85 7.45 0.0 7.45" fill="#007f3d" fill-opacity="0.9019608" fill-rule="evenodd" stroke="none"/>
    <path d="M0.0 8.3 L0.0 7.45 0.85 7.45 0.85 8.3 0.0 8.3" fill="#007c41" fill-opacity="0.9019608" fill-rule="evenodd" stroke="none"/>
    <path d="M1.65 7.45 L1.65 8.3 0.85 8.3 0.85 7.45 1.65 7.45" fill="#adb412" fill-rule="evenodd" stroke="none"/>
    <path d="M4.95 10.75 L4.95 9.95 5.8 9.95 5.8 10.75 4.95 10.75" fill="#d5bc09" fill-rule="evenodd" stroke="none"/>
    <path d="M4.15 9.95 L4.95 9.95 4.95 10.75 4.15 10.75 4.15 9.95" fill="#008a45" fill-rule="evenodd" stroke="none"/>
    <path d="M3.3 9.95 L4.15 9.95 4.15 10.75 3.3 10.75 3.3 9.95" fill="#00844f" fill-rule="evenodd" stroke="none"/>
    <path d="M15.7 12.4 L15.7 13.25 14.9 13.25 14.9 12.4 15.7 12.4 M4.15 10.75 L4.95 10.75 4.95 11.6 4.15 11.6 4.15 10.75" fill="#008c44" fill-rule="evenodd" stroke="none"/>
    <path d="M4.95 9.1 L5.8 9.1 5.8 9.95 4.95 9.95 4.95 9.1" fill="#ffcb00" fill-rule="evenodd" stroke="none"/>
    <path d="M9.1 6.6 L9.95 6.6 9.95 7.45 9.1 7.45 9.1 6.6" fill="#0a005b" fill-rule="evenodd" stroke="none"/>
    <path d="M9.1 7.45 L9.95 7.45 9.95 8.3 9.1 8.3 9.1 7.45" fill="#382779" fill-rule="evenodd" stroke="none"/>
    <path d="M7.45 7.45 L7.45 6.6 8.3 6.6 8.3 7.45 7.45 7.45" fill="#000076" fill-rule="evenodd" stroke="none"/>
    <path d="M8.3 8.3 L9.1 8.3 9.1 9.1 8.3 9.1 8.3 8.3" fill="#362573" fill-rule="evenodd" stroke="none"/>
    <path d="M7.45 9.1 L7.45 8.3 8.3 8.3 8.3 9.1 7.45 9.1" fill="#19119a" fill-rule="evenodd" stroke="none"/>
    <path d="M9.1 8.3 L9.95 8.3 9.95 9.1 9.1 9.1 9.1 8.3" fill="#1e0c67" fill-rule="evenodd" stroke="none"/>
    <path d="M9.1 9.1 L9.95 9.1 9.95 9.95 9.1 9.95 9.1 9.1" fill="#382878" fill-rule="evenodd" stroke="none"/>
    <path d="M8.3 9.1 L9.1 9.1 9.1 9.95 8.3 9.95 8.3 9.1" fill="#3e2d7c" fill-rule="evenodd" stroke="none"/>
    <path d="M8.3 7.45 L9.1 7.45 9.1 8.3 8.3 8.3 8.3 7.45" fill="#26156b" fill-rule="evenodd" stroke="none"/>
    <path d="M7.45 8.3 L7.45 7.45 8.3 7.45 8.3 8.3 7.45 8.3" fill="#070079" fill-rule="evenodd" stroke="none"/>
    <path d="M6.6 7.45 L6.6 6.6 7.45 6.6 7.45 7.45 6.6 7.45" fill="#42285a" fill-rule="evenodd" stroke="none"/>
    <path d="M6.6 8.3 L6.6 7.45 7.45 7.45 7.45 8.3 6.6 8.3" fill="#37225f" fill-rule="evenodd" stroke="none"/>
    <path d="M5.8 6.6 L6.6 6.6 6.6 7.45 5.8 7.45 5.8 6.6" fill="#ffea00" fill-rule="evenodd" stroke="none"/>
    <path d="M11.6 12.4 L11.6 13.25 10.75 13.25 10.75 12.4 11.6 12.4 M5.8 8.3 L6.6 8.3 6.6 9.1 5.8 9.1 5.8 8.3" fill="#ffeb00" fill-rule="evenodd" stroke="none"/>
    <path d="M6.6 9.1 L6.6 8.3 7.45 8.3 7.45 9.1 6.6 9.1" fill="#694c46" fill-rule="evenodd" stroke="none"/>
    <path d="M6.6 9.95 L6.6 9.1 7.45 9.1 7.45 9.95 6.6 9.95" fill="#eab609" fill-rule="evenodd" stroke="none"/>
    <path d="M8.3 9.95 L8.3 10.75 7.45 10.75 7.45 9.95 8.3 9.95" fill="#775640" fill-rule="evenodd" stroke="none"/>
    <path d="M5.8 11.6 L5.8 10.75 6.6 10.75 6.6 11.6 5.8 11.6" fill="#509f29" fill-rule="evenodd" stroke="none"/>
    <path d="M9.95 9.95 L9.95 10.75 9.1 10.75 9.1 9.95 9.95 9.95" fill="#2e1d79" fill-rule="evenodd" stroke="none"/>
    <path d="M9.1 9.95 L9.1 10.75 8.3 10.75 8.3 9.95 9.1 9.95" fill="#000095" fill-rule="evenodd" stroke="none"/>
    <path d="M8.3 10.75 L9.1 10.75 9.1 11.6 8.3 11.6 8.3 10.75" fill="#85613c" fill-rule="evenodd" stroke="none"/>
    <path d="M7.45 9.95 L7.45 9.1 8.3 9.1 8.3 9.95 7.45 9.95" fill="#000090" fill-rule="evenodd" stroke="none"/>
    <path d="M7.45 11.6 L8.3 11.6 8.3 12.4 7.45 12.4 7.45 11.6" fill="#b9b60f" fill-rule="evenodd" stroke="none"/>
    <path d="M4.95 5.8 L5.8 5.8 5.8 6.6 4.95 6.6 4.95 5.8" fill="#f6c000" fill-rule="evenodd" stroke="none"/>
    <path d="M10.75 12.4 L10.75 13.25 9.95 13.25 9.95 12.4 10.75 12.4" fill="#fff100" fill-rule="evenodd" stroke="none"/>
    <path d="M9.95 13.25 L9.95 14.05 9.1 14.05 9.1 13.25 9.95 13.25" fill="#00834e" fill-rule="evenodd" stroke="none"/>
    <path d="M9.1 12.4 L9.1 13.25 8.3 13.25 8.3 12.4 9.1 12.4" fill="#289633" fill-rule="evenodd" stroke="none"/>
    <path d="M14.9 13.25 L14.05 13.25 14.05 12.4 14.9 12.4 14.9 13.25 M8.3 12.4 L8.3 13.25 7.45 13.25 7.45 12.4 8.3 12.4" fill="#007f53" fill-rule="evenodd" stroke="none"/>
    <path d="M9.95 14.9 L9.1 14.9 9.1 14.05 9.95 14.05 9.95 14.9" fill="#00823a" fill-opacity="0.9019608" fill-rule="evenodd" stroke="none"/>
    <path d="M10.75 14.9 L9.95 14.9 9.95 14.05 10.75 14.05 10.75 14.9" fill="#007945" fill-opacity="0.9019608" fill-rule="evenodd" stroke="none"/>
    <path d="M10.75 13.25 L10.75 14.05 9.95 14.05 9.95 13.25 10.75 13.25" fill="#9daf15" fill-rule="evenodd" stroke="none"/>
    <path d="M7.45 12.4 L7.45 13.25 6.6 13.25 6.6 12.4 7.45 12.4" fill="#008f43" fill-rule="evenodd" stroke="none"/>
    <path d="M14.05 12.4 L14.05 13.25 13.25 13.25 13.25 12.4 14.05 12.4" fill="#4b9d2c" fill-rule="evenodd" stroke="none"/>
    <path d="M13.25 12.4 L13.25 13.25 12.4 13.25 12.4 12.4 13.25 12.4" fill="#ffdd00" fill-rule="evenodd" stroke="none"/>
    <path d="M13.25 14.9 L12.4 14.9 12.4 14.05 13.25 14.05 13.25 14.9" fill="#00803c" fill-opacity="0.9019608" fill-rule="evenodd" stroke="none"/>
    <path d="M13.25 13.25 L13.25 14.05 12.4 14.05 12.4 13.25 13.25 13.25" fill="#00884a" fill-rule="evenodd" stroke="none"/>
    <path d="M12.4 12.4 L12.4 13.25 11.6 13.25 11.6 12.4 12.4 12.4" fill="#fff000" fill-rule="evenodd" stroke="none"/>
    <path d="M12.4 13.25 L12.4 14.05 11.6 14.05 11.6 13.25 12.4 13.25" fill="#c0b40f" fill-rule="evenodd" stroke="none"/>
    <path d="M11.6 14.9 L10.75 14.9 10.75 14.05 11.6 14.05 11.6 14.9" fill="#008438" fill-opacity="0.9019608" fill-rule="evenodd" stroke="none"/>
    <path d="M12.4 14.9 L11.6 14.9 11.6 14.05 12.4 14.05 12.4 14.9" fill="#007944" fill-opacity="0.9019608" fill-rule="evenodd" stroke="none"/>
    <path d="M11.6 13.25 L11.6 14.05 10.75 14.05 10.75 13.25 11.6 13.25" fill="#ffd400" fill-rule="evenodd" stroke="none"/>
    <path d="M10.75 11.6 L10.75 12.4 9.95 12.4 9.95 11.6 10.75 11.6" fill="#a67e28" fill-rule="evenodd" stroke="none"/>
  </g>
</svg>
