<?xml version="1.0" encoding="UTF-8" standalone="no"?>
<svg xmlns:xlink="http://www.w3.org/1999/xlink" height="14.9px" width="22.4px" xmlns="http://www.w3.org/2000/svg">
  <g transform="matrix(1.0, 0.0, 0.0, 1.0, 0.0, 0.0)">
    <path d="M22.4 14.9 L0.0 14.9 0.0 0.0 22.4 0.0 22.4 14.9 M12.45 4.95 L12.45 5.8 13.3 5.8 14.1 5.8 14.1 4.95 13.3 4.95 13.3 4.15 12.45 4.15 11.65 4.15 11.65 4.95 12.45 4.95 M9.95 3.3 L10.8 3.3 10.8 1.65 9.95 1.65 9.95 2.5 9.1 2.5 9.1 3.3 9.95 3.3 M13.3 7.45 L12.45 7.45 12.45 9.1 13.3 9.1 13.3 8.3 14.1 8.3 14.1 7.45 13.3 7.45 M2.5 8.3 L3.3 8.3 3.3 7.45 4.95 7.45 4.95 8.3 5.8 8.3 5.8 9.1 6.6 9.1 6.6 8.3 5.8 8.3 5.8 5.8 6.6 5.8 6.6 4.95 4.95 4.95 4.95 3.3 3.3 3.3 3.3 4.95 1.65 4.95 1.65 5.8 2.5 5.8 2.5 8.3 1.65 8.3 1.65 9.1 2.5 9.1 2.5 8.3 M10.8 11.6 L10.8 9.95 9.1 9.95 9.1 11.6 10.8 11.6" fill="#ff0000" fill-rule="evenodd" stroke="none"/>
    <path d="M12.45 4.15 L12.45 4.95 11.65 4.95 11.65 4.15 12.45 4.15" fill="#ffce00" fill-rule="evenodd" stroke="none"/>
    <path d="M13.3 4.95 L12.45 4.95 12.45 4.15 13.3 4.15 13.3 4.95 M9.95 2.5 L9.95 1.65 10.8 1.65 10.8 3.3 9.95 3.3 9.95 2.5 M13.3 8.3 L13.3 9.1 12.45 9.1 12.45 7.45 13.3 7.45 13.3 8.3 M10.8 11.6 L9.1 11.6 9.1 9.95 10.8 9.95 10.8 11.6 M2.5 8.3 L2.5 5.8 1.65 5.8 1.65 4.95 3.3 4.95 3.3 3.3 4.95 3.3 4.95 4.95 6.6 4.95 6.6 5.8 5.8 5.8 5.8 8.3 6.6 8.3 6.6 9.1 5.8 9.1 5.8 8.3 4.95 8.3 4.95 7.45 3.3 7.45 3.3 8.3 2.5 8.3" fill="#ffff00" fill-rule="evenodd" stroke="none"/>
    <path d="M13.3 5.8 L12.45 5.8 12.45 4.95 13.3 4.95 13.3 5.8" fill="#ffdf00" fill-rule="evenodd" stroke="none"/>
    <path d="M13.3 5.8 L13.3 4.95 14.1 4.95 14.1 5.8 13.3 5.8" fill="#ff2300" fill-rule="evenodd" stroke="none"/>
    <path d="M13.3 7.45 L14.1 7.45 14.1 8.3 13.3 8.3 13.3 7.45" fill="#ff6d00" fill-rule="evenodd" stroke="none"/>
    <path d="M9.95 2.5 L9.95 3.3 9.1 3.3 9.1 2.5 9.95 2.5" fill="#ff8c00" fill-rule="evenodd" stroke="none"/>
    <path d="M2.5 8.3 L2.5 9.1 1.65 9.1 1.65 8.3 2.5 8.3" fill="#ffeb00" fill-rule="evenodd" stroke="none"/>
  </g>
</svg>
