<?xml version="1.0" encoding="UTF-8" standalone="no"?>
<svg xmlns:xlink="http://www.w3.org/1999/xlink" height="14.9px" width="22.4px" xmlns="http://www.w3.org/2000/svg">
  <g transform="matrix(1.0, 0.0, 0.0, 1.0, 0.0, 0.0)">
    <path d="M21.55 0.85 L21.55 0.0 22.4 0.0 22.4 0.85 21.55 0.85 M0.85 0.0 L0.85 0.85 0.0 0.85 0.0 0.0 0.85 0.0 M22.4 14.05 L22.4 14.9 21.55 14.9 21.55 14.05 22.4 14.05 M0.85 14.9 L0.0 14.9 0.0 14.05 0.85 14.05 0.85 14.9" fill="#b60d1e" fill-opacity="0.8666667" fill-rule="evenodd" stroke="none"/>
    <path d="M21.55 0.0 L21.55 0.85 0.85 0.85 0.85 0.0 21.55 0.0 M21.55 1.65 L22.4 1.65 22.4 2.5 21.55 2.5 21.55 1.65 M22.4 12.4 L22.4 13.25 21.55 13.25 21.55 12.4 22.4 12.4 M21.55 14.9 L0.85 14.9 0.85 14.05 21.55 14.05 21.55 14.9 M0.0 13.25 L0.0 12.4 0.85 12.4 0.85 13.25 0.0 13.25 M0.0 2.5 L0.0 1.65 0.85 1.65 0.85 2.5 0.0 2.5" fill="#c40e20" fill-opacity="0.91764706" fill-rule="evenodd" stroke="none"/>
    <path d="M21.55 0.85 L22.4 0.85 22.4 1.65 21.55 1.65 21.55 0.85 M22.4 13.25 L22.4 14.05 21.55 14.05 21.55 13.25 22.4 13.25 M0.0 14.05 L0.0 13.25 0.85 13.25 0.85 14.05 0.0 14.05 M0.0 1.65 L0.0 0.85 0.85 0.85 0.85 1.65 0.0 1.65" fill="#c80f21" fill-opacity="0.9372549" fill-rule="evenodd" stroke="none"/>
    <path d="M21.55 2.5 L22.4 2.5 22.4 3.3 21.55 3.3 21.55 2.5 M22.4 11.6 L22.4 12.4 21.55 12.4 21.55 11.6 22.4 11.6 M0.0 12.4 L0.0 11.6 0.85 11.6 0.85 12.4 0.0 12.4 M0.0 3.3 L0.0 2.5 0.85 2.5 0.85 3.3 0.0 3.3" fill="#c00322" fill-opacity="0.91764706" fill-rule="evenodd" stroke="none"/>
    <path d="M0.85 0.85 L21.55 0.85 21.55 1.65 21.55 2.5 0.85 2.5 0.85 1.65 0.85 0.85 M21.55 12.4 L21.55 13.25 21.55 14.05 0.85 14.05 0.85 13.25 0.85 12.4 21.55 12.4" fill="#d41023" fill-rule="evenodd" stroke="none"/>
    <path d="M21.55 4.15 L22.4 4.15 22.4 4.95 21.55 4.95 21.55 4.15 M22.4 9.95 L22.4 10.75 21.55 10.75 21.55 9.95 22.4 9.95 M0.0 10.75 L0.0 9.95 0.85 9.95 0.85 10.75 0.0 10.75 M0.0 4.95 L0.0 4.15 0.85 4.15 0.85 4.95 0.0 4.95" fill="#eccd03" fill-opacity="0.91764706" fill-rule="evenodd" stroke="none"/>
    <path d="M21.55 4.15 L21.55 4.95 0.85 4.95 0.85 4.15 21.55 4.15 M21.55 9.95 L21.55 10.75 0.85 10.75 0.85 9.95 21.55 9.95" fill="#ffde04" fill-rule="evenodd" stroke="none"/>
    <path d="M21.55 3.3 L22.4 3.3 22.4 4.15 21.55 4.15 21.55 3.3 M22.4 10.75 L22.4 11.6 21.55 11.6 21.55 10.75 22.4 10.75 M0.0 11.6 L0.0 10.75 0.85 10.75 0.85 11.6 0.0 11.6 M0.0 4.15 L0.0 3.3 0.85 3.3 0.85 4.15 0.0 4.15" fill="#e06711" fill-opacity="0.91764706" fill-rule="evenodd" stroke="none"/>
    <path d="M21.55 3.3 L21.55 4.15 0.85 4.15 0.85 3.3 21.55 3.3 M21.55 10.75 L21.55 11.6 0.85 11.6 0.85 10.75 21.55 10.75" fill="#f27013" fill-rule="evenodd" stroke="none"/>
    <path d="M22.4 4.95 L22.4 9.95 21.55 9.95 21.55 4.95 22.4 4.95 M0.0 9.95 L0.0 4.95 0.85 4.95 0.85 9.95 0.0 9.95" fill="#ecc203" fill-opacity="0.91764706" fill-rule="evenodd" stroke="none"/>
    <path d="M21.55 2.5 L21.55 3.3 0.85 3.3 0.85 2.5 21.55 2.5 M21.55 11.6 L21.55 12.4 0.85 12.4 0.85 11.6 21.55 11.6" fill="#d00425" fill-rule="evenodd" stroke="none"/>
    <path d="M21.55 4.95 L21.55 9.95 0.85 9.95 0.85 4.95 21.55 4.95" fill="#ffd204" fill-rule="evenodd" stroke="none"/>
  </g>
</svg>
