<?xml version="1.0" encoding="UTF-8" standalone="no"?>
<svg xmlns:xlink="http://www.w3.org/1999/xlink" height="14.9px" width="22.4px" xmlns="http://www.w3.org/2000/svg">
  <g transform="matrix(1.0, 0.0, 0.0, 1.0, 0.0, 0.0)">
    <path d="M21.55 0.0 L22.4 0.0 22.4 0.85 21.55 0.85 21.55 0.0 M0.0 0.85 L0.0 0.0 0.85 0.0 0.85 0.85 0.0 0.85" fill="#d17c29" fill-opacity="0.827451" fill-rule="evenodd" stroke="none"/>
    <path d="M21.55 0.0 L21.55 0.85 20.75 0.85 20.75 0.0 21.55 0.0 M0.85 0.0 L1.65 0.0 1.65 0.85 0.85 0.85 0.85 0.0" fill="#ec8c2e" fill-opacity="0.91764706" fill-rule="evenodd" stroke="none"/>
    <path d="M21.55 0.85 L22.4 0.85 22.4 1.65 21.55 1.65 21.55 0.85 M0.0 1.65 L0.0 0.85 0.85 0.85 0.85 1.65 0.0 1.65" fill="#f59230" fill-opacity="0.9529412" fill-rule="evenodd" stroke="none"/>
    <path d="M1.65 0.0 L20.75 0.0 20.75 0.85 1.65 0.85 1.65 0.0" fill="#e88a2d" fill-opacity="0.9019608" fill-rule="evenodd" stroke="none"/>
    <path d="M22.4 1.65 L22.4 2.5 21.55 2.5 21.55 1.65 22.4 1.65 M0.0 2.5 L0.0 1.65 0.85 1.65 0.85 2.5 0.0 2.5" fill="#e6892e" fill-opacity="0.9019608" fill-rule="evenodd" stroke="none"/>
    <path d="M22.4 2.5 L22.4 3.3 21.55 3.3 21.55 2.5 22.4 2.5 M0.0 3.3 L0.0 2.5 0.85 2.5 0.85 3.3 0.0 3.3" fill="#e8892a" fill-opacity="0.9019608" fill-rule="evenodd" stroke="none"/>
    <path d="M20.75 0.85 L21.55 0.85 21.55 1.65 21.55 2.5 12.45 2.5 9.1 2.5 0.85 2.5 0.85 1.65 0.85 0.85 1.65 0.85 20.75 0.85" fill="#ff9832" fill-rule="evenodd" stroke="none"/>
    <path d="M22.4 4.15 L22.4 4.95 21.55 4.95 21.55 4.15 22.4 4.15 M0.0 4.95 L0.0 4.15 0.85 4.15 0.85 4.95 0.0 4.95" fill="#e8e4df" fill-opacity="0.9019608" fill-rule="evenodd" stroke="none"/>
    <path d="M21.55 4.15 L21.55 4.95 14.1 4.95 14.1 4.15 21.55 4.15" fill="#fffaf6" fill-rule="evenodd" stroke="none"/>
    <path d="M22.4 3.3 L22.4 4.15 21.55 4.15 21.55 3.3 22.4 3.3 M0.0 4.15 L0.0 3.3 0.85 3.3 0.85 4.15 0.0 4.15" fill="#e8780a" fill-opacity="0.9019608" fill-rule="evenodd" stroke="none"/>
    <path d="M21.55 3.3 L21.55 4.15 14.1 4.15 14.1 3.3 21.55 3.3 M8.3 4.15 L7.45 4.15 0.85 4.15 0.85 3.3 8.3 3.3 8.3 4.15" fill="#ff840b" fill-rule="evenodd" stroke="none"/>
    <path d="M22.4 4.95 L22.4 9.95 21.55 9.95 21.55 4.95 22.4 4.95 M0.0 9.95 L0.0 4.95 0.85 4.95 0.85 9.95 0.0 9.95" fill="#e8e8e8" fill-opacity="0.9019608" fill-rule="evenodd" stroke="none"/>
    <path d="M21.55 2.5 L21.55 3.3 14.1 3.3 13.3 3.3 12.45 3.3 12.45 2.5 21.55 2.5" fill="#ff962f" fill-rule="evenodd" stroke="none"/>
    <path d="M22.4 9.95 L22.4 10.75 21.55 10.75 21.55 9.95 22.4 9.95 M0.0 10.75 L0.0 9.95 0.85 9.95 0.85 10.75 0.0 10.75" fill="#dee3de" fill-opacity="0.9019608" fill-rule="evenodd" stroke="none"/>
    <path d="M21.55 9.95 L21.55 10.75 14.1 10.75 14.1 9.95 21.55 9.95 M7.45 10.75 L0.85 10.75 0.85 9.95 7.45 9.95 7.45 10.75" fill="#f5faf5" fill-rule="evenodd" stroke="none"/>
    <path d="M22.4 10.75 L22.4 11.6 21.55 11.6 21.55 10.75 22.4 10.75 M0.0 11.6 L0.0 10.75 0.85 10.75 0.85 11.6 0.0 11.6" fill="#006500" fill-opacity="0.9019608" fill-rule="evenodd" stroke="none"/>
    <path d="M21.55 10.75 L21.55 11.6 12.45 11.6 12.45 10.75 13.3 10.75 14.1 10.75 21.55 10.75 M0.85 11.6 L0.85 10.75 7.45 10.75 8.3 10.75 8.3 11.6 0.85 11.6" fill="#006f00" fill-rule="evenodd" stroke="none"/>
    <path d="M22.4 11.6 L22.4 12.4 21.55 12.4 21.55 11.6 22.4 11.6 M0.0 12.4 L0.0 11.6 0.85 11.6 0.85 12.4 0.0 12.4" fill="#0e7904" fill-opacity="0.9019608" fill-rule="evenodd" stroke="none"/>
    <path d="M21.55 4.95 L21.55 9.95 14.1 9.95 13.3 9.95 13.3 9.1 14.1 9.1 14.1 8.3 14.1 7.45 14.1 6.6 14.1 5.8 13.3 5.8 13.3 4.95 14.1 4.95 21.55 4.95 M13.3 10.75 L12.45 10.75 12.45 9.95 13.3 9.95 13.3 10.75 M12.45 4.95 L12.45 4.15 13.3 4.15 13.3 4.95 12.45 4.95 M9.1 5.8 L9.95 5.8 9.95 6.6 9.1 6.6 9.1 5.8 M13.3 6.6 L13.3 7.45 13.3 8.3 12.45 8.3 12.45 7.45 12.45 6.6 13.3 6.6 M7.45 4.95 L8.3 4.95 8.3 4.15 9.1 4.15 9.1 4.95 8.3 4.95 8.3 5.8 8.3 6.6 7.45 6.6 7.45 7.45 7.45 8.3 8.3 8.3 8.3 9.1 8.3 9.95 9.1 9.95 9.1 10.75 8.3 10.75 8.3 9.95 7.45 9.95 0.85 9.95 0.85 4.95 7.45 4.95 M9.1 8.3 L9.95 8.3 9.95 9.1 9.1 9.1 9.1 8.3" fill="#ffffff" fill-rule="evenodd" stroke="none"/>
    <path d="M22.4 12.4 L22.4 13.25 21.55 13.25 21.55 12.4 22.4 12.4 M0.0 13.25 L0.0 12.4 0.85 12.4 0.85 13.25 0.0 13.25" fill="#117908" fill-opacity="0.9019608" fill-rule="evenodd" stroke="none"/>
    <path d="M21.55 12.4 L21.55 13.25 21.55 14.05 20.75 14.05 1.65 14.05 0.85 14.05 0.85 13.25 0.85 12.4 9.1 12.4 9.95 12.4 11.65 12.4 12.45 12.4 21.55 12.4" fill="#138708" fill-rule="evenodd" stroke="none"/>
    <path d="M22.4 13.25 L22.4 14.05 21.55 14.05 21.55 13.25 22.4 13.25 M0.0 14.05 L0.0 13.25 0.85 13.25 0.85 14.05 0.0 14.05" fill="#128107" fill-opacity="0.9529412" fill-rule="evenodd" stroke="none"/>
    <path d="M21.55 14.9 L20.75 14.9 20.75 14.05 21.55 14.05 21.55 14.9 M1.65 14.9 L0.85 14.9 0.85 14.05 1.65 14.05 1.65 14.9" fill="#117c07" fill-opacity="0.91764706" fill-rule="evenodd" stroke="none"/>
    <path d="M20.75 14.9 L1.65 14.9 1.65 14.05 20.75 14.05 20.75 14.9" fill="#117a07" fill-opacity="0.9019608" fill-rule="evenodd" stroke="none"/>
    <path d="M22.4 14.05 L22.4 14.9 21.55 14.9 21.55 14.05 22.4 14.05 M0.85 14.9 L0.0 14.9 0.0 14.05 0.85 14.05 0.85 14.9" fill="#0f6e06" fill-opacity="0.827451" fill-rule="evenodd" stroke="none"/>
    <path d="M12.45 11.6 L21.55 11.6 21.55 12.4 12.45 12.4 12.45 11.6" fill="#108505" fill-rule="evenodd" stroke="none"/>
    <path d="M12.45 4.15 L12.45 3.3 13.3 3.3 13.3 4.15 12.45 4.15" fill="#ff860c" fill-rule="evenodd" stroke="none"/>
    <path d="M12.45 4.15 L11.65 4.15 11.65 3.3 12.45 3.3 12.45 4.15" fill="#ffa21b" fill-rule="evenodd" stroke="none"/>
    <path d="M11.65 3.3 L11.65 4.15 10.8 4.15 9.95 4.15 9.95 3.3 11.65 3.3" fill="#ffa81f" fill-rule="evenodd" stroke="none"/>
    <path d="M12.45 3.3 L11.65 3.3 9.95 3.3 9.1 3.3 9.1 2.5 12.45 2.5 12.45 3.3" fill="#ff942e" fill-rule="evenodd" stroke="none"/>
    <path d="M11.65 4.15 L12.45 4.15 12.45 4.95 11.65 4.95 11.65 4.15" fill="#b0a8c4" fill-rule="evenodd" stroke="none"/>
    <path d="M10.8 4.95 L10.8 5.8 9.95 5.8 9.95 4.95 10.8 4.95" fill="#d3defa" fill-rule="evenodd" stroke="none"/>
    <path d="M10.8 5.8 L10.8 4.95 11.65 4.95 11.65 5.8 10.8 5.8" fill="#e3eeff" fill-rule="evenodd" stroke="none"/>
    <path d="M11.65 4.95 L12.45 4.95 12.45 5.8 11.65 5.8 11.65 4.95" fill="#8792cd" fill-rule="evenodd" stroke="none"/>
    <path d="M12.45 5.8 L12.45 4.95 13.3 4.95 13.3 5.8 12.45 5.8" fill="#313c9a" fill-rule="evenodd" stroke="none"/>
    <path d="M11.65 5.8 L12.45 5.8 12.45 6.6 11.65 6.6 11.65 5.8" fill="#fdfcfc" fill-rule="evenodd" stroke="none"/>
    <path d="M11.65 4.15 L11.65 4.95 10.8 4.95 10.8 4.15 11.65 4.15" fill="#8c84aa" fill-rule="evenodd" stroke="none"/>
    <path d="M10.8 4.95 L9.95 4.95 9.95 4.15 10.8 4.15 10.8 4.95" fill="#9088af" fill-rule="evenodd" stroke="none"/>
    <path d="M10.8 5.8 L11.65 5.8 11.65 6.6 10.8 6.6 10.8 5.8" fill="#8988b6" fill-rule="evenodd" stroke="none"/>
    <path d="M14.1 3.3 L14.1 4.15 13.3 4.15 13.3 3.3 14.1 3.3" fill="#ff830a" fill-rule="evenodd" stroke="none"/>
    <path d="M13.3 4.95 L13.3 4.15 14.1 4.15 14.1 4.95 13.3 4.95" fill="#fffff9" fill-rule="evenodd" stroke="none"/>
    <path d="M13.3 5.8 L14.1 5.8 14.1 6.6 13.3 6.6 13.3 5.8" fill="#7f7eb0" fill-rule="evenodd" stroke="none"/>
    <path d="M12.45 5.8 L13.3 5.8 13.3 6.6 12.45 6.6 12.45 5.8" fill="#8b8ab8" fill-rule="evenodd" stroke="none"/>
    <path d="M14.1 6.6 L14.1 7.45 13.3 7.45 13.3 6.6 14.1 6.6" fill="#42428f" fill-rule="evenodd" stroke="none"/>
    <path d="M12.45 8.3 L13.3 8.3 13.3 9.1 12.45 9.1 12.45 8.3" fill="#8485b4" fill-rule="evenodd" stroke="none"/>
    <path d="M14.1 8.3 L14.1 9.1 13.3 9.1 13.3 8.3 14.1 8.3" fill="#7d7eb0" fill-rule="evenodd" stroke="none"/>
    <path d="M14.1 7.45 L14.1 8.3 13.3 8.3 13.3 7.45 14.1 7.45" fill="#43438e" fill-rule="evenodd" stroke="none"/>
    <path d="M12.45 6.6 L12.45 7.45 11.65 7.45 11.65 6.6 12.45 6.6" fill="#5f5f9d" fill-rule="evenodd" stroke="none"/>
    <path d="M12.45 7.45 L12.45 8.3 11.65 8.3 11.65 7.45 12.45 7.45" fill="#6767a4" fill-rule="evenodd" stroke="none"/>
    <path d="M11.65 7.45 L11.65 8.3 10.8 8.3 10.8 7.45 10.8 6.6 11.65 6.6 11.65 7.45" fill="#000058" fill-rule="evenodd" stroke="none"/>
    <path d="M9.95 6.6 L10.8 6.6 10.8 7.45 9.95 7.45 9.95 6.6" fill="#141471" fill-rule="evenodd" stroke="none"/>
    <path d="M10.8 8.3 L10.8 9.1 9.95 9.1 9.95 8.3 10.8 8.3" fill="#afb0d0" fill-rule="evenodd" stroke="none"/>
    <path d="M10.8 9.1 L10.8 8.3 11.65 8.3 11.65 9.1 10.8 9.1" fill="#8e8fba" fill-rule="evenodd" stroke="none"/>
    <path d="M11.65 8.3 L12.45 8.3 12.45 9.1 11.65 9.1 11.65 8.3" fill="#f7f8f9" fill-rule="evenodd" stroke="none"/>
    <path d="M12.45 9.1 L12.45 9.95 11.65 9.95 11.65 9.1 12.45 9.1" fill="#a196d4" fill-rule="evenodd" stroke="none"/>
    <path d="M11.65 9.1 L11.65 9.95 10.8 9.95 10.8 9.1 11.65 9.1" fill="#eaddfc" fill-rule="evenodd" stroke="none"/>
    <path d="M10.8 7.45 L10.8 8.3 9.95 8.3 9.95 7.45 10.8 7.45" fill="#151572" fill-rule="evenodd" stroke="none"/>
    <path d="M11.65 9.95 L12.45 9.95 12.45 10.75 11.65 10.75 11.65 9.95" fill="#a9adc5" fill-rule="evenodd" stroke="none"/>
    <path d="M11.65 9.95 L11.65 10.75 10.8 10.75 10.8 9.95 11.65 9.95" fill="#6c739c" fill-rule="evenodd" stroke="none"/>
    <path d="M12.45 10.75 L12.45 11.6 11.65 11.6 11.65 10.75 12.45 10.75" fill="#028d00" fill-rule="evenodd" stroke="none"/>
    <path d="M10.8 9.95 L10.8 10.75 9.95 10.75 9.95 9.95 10.8 9.95" fill="#7980aa" fill-rule="evenodd" stroke="none"/>
    <path d="M11.65 11.6 L12.45 11.6 12.45 12.4 11.65 12.4 11.65 11.6" fill="#0e8304" fill-rule="evenodd" stroke="none"/>
    <path d="M11.65 10.75 L11.65 11.6 10.8 11.6 10.8 10.75 11.65 10.75" fill="#0c9700" fill-rule="evenodd" stroke="none"/>
    <path d="M10.8 11.6 L11.65 11.6 11.65 12.4 9.95 12.4 9.95 11.6 10.8 11.6" fill="#0d8303" fill-rule="evenodd" stroke="none"/>
    <path d="M10.8 10.75 L10.8 11.6 9.95 11.6 9.95 10.75 10.8 10.75" fill="#0b9600" fill-rule="evenodd" stroke="none"/>
    <path d="M14.1 10.75 L13.3 10.75 13.3 9.95 14.1 9.95 14.1 10.75" fill="#f9fff7" fill-rule="evenodd" stroke="none"/>
    <path d="M13.3 9.1 L13.3 9.95 12.45 9.95 12.45 9.1 13.3 9.1" fill="#5145a3" fill-rule="evenodd" stroke="none"/>
    <path d="M10.8 9.1 L10.8 9.95 9.95 9.95 9.95 9.1 10.8 9.1" fill="#ded1f5" fill-rule="evenodd" stroke="none"/>
    <path d="M9.95 5.8 L10.8 5.8 10.8 6.6 9.95 6.6 9.95 5.8" fill="#aeadcd" fill-rule="evenodd" stroke="none"/>
    <path d="M7.45 4.95 L7.45 4.15 8.3 4.15 8.3 4.95 7.45 4.95" fill="#fff9f5" fill-rule="evenodd" stroke="none"/>
    <path d="M7.45 4.15 L7.45 4.95 0.85 4.95 0.85 4.15 7.45 4.15" fill="#fffbf6" fill-rule="evenodd" stroke="none"/>
    <path d="M9.1 3.3 L9.95 3.3 9.95 4.15 9.1 4.15 9.1 3.3" fill="#ff9313" fill-rule="evenodd" stroke="none"/>
    <path d="M9.1 3.3 L9.1 4.15 8.3 4.15 8.3 3.3 9.1 3.3" fill="#ff8109" fill-rule="evenodd" stroke="none"/>
    <path d="M9.95 4.15 L9.95 4.95 9.1 4.95 9.1 4.15 9.95 4.15" fill="#f5eded" fill-rule="evenodd" stroke="none"/>
    <path d="M9.1 4.95 L9.1 5.8 8.3 5.8 8.3 4.95 9.1 4.95" fill="#bfcbf0" fill-rule="evenodd" stroke="none"/>
    <path d="M9.95 4.95 L9.95 5.8 9.1 5.8 9.1 4.95 9.95 4.95" fill="#1f288e" fill-rule="evenodd" stroke="none"/>
    <path d="M9.1 2.5 L9.1 3.3 8.3 3.3 0.85 3.3 0.85 2.5 9.1 2.5" fill="#ff972f" fill-rule="evenodd" stroke="none"/>
    <path d="M8.3 5.8 L9.1 5.8 9.1 6.6 8.3 6.6 8.3 5.8" fill="#222177" fill-rule="evenodd" stroke="none"/>
    <path d="M9.1 6.6 L9.95 6.6 9.95 7.45 9.1 7.45 9.1 6.6" fill="#d7d7e9" fill-rule="evenodd" stroke="none"/>
    <path d="M9.1 6.6 L9.1 7.45 8.3 7.45 8.3 6.6 9.1 6.6" fill="#8f8fbc" fill-rule="evenodd" stroke="none"/>
    <path d="M9.95 7.45 L9.95 8.3 9.1 8.3 9.1 7.45 9.95 7.45" fill="#e6e6ef" fill-rule="evenodd" stroke="none"/>
    <path d="M8.3 6.6 L8.3 7.45 7.45 7.45 7.45 6.6 8.3 6.6" fill="#ababcd" fill-rule="evenodd" stroke="none"/>
    <path d="M8.3 9.1 L8.3 8.3 9.1 8.3 9.1 9.1 8.3 9.1" fill="#1e1f76" fill-rule="evenodd" stroke="none"/>
    <path d="M9.95 9.1 L9.95 9.95 9.1 9.95 9.1 9.1 9.95 9.1" fill="#45399a" fill-rule="evenodd" stroke="none"/>
    <path d="M9.1 7.45 L9.1 8.3 8.3 8.3 8.3 7.45 9.1 7.45" fill="#9595c0" fill-rule="evenodd" stroke="none"/>
    <path d="M9.1 9.1 L9.1 9.95 8.3 9.95 8.3 9.1 9.1 9.1" fill="#d9ccf5" fill-rule="evenodd" stroke="none"/>
    <path d="M8.3 7.45 L8.3 8.3 7.45 8.3 7.45 7.45 8.3 7.45" fill="#aaaacc" fill-rule="evenodd" stroke="none"/>
    <path d="M8.3 10.75 L7.45 10.75 7.45 9.95 8.3 9.95 8.3 10.75" fill="#f3f9f4" fill-rule="evenodd" stroke="none"/>
    <path d="M9.1 9.95 L9.95 9.95 9.95 10.75 9.1 10.75 9.1 9.95" fill="#f4faf3" fill-rule="evenodd" stroke="none"/>
    <path d="M9.1 10.75 L9.95 10.75 9.95 11.6 9.1 11.6 9.1 10.75" fill="#007b00" fill-rule="evenodd" stroke="none"/>
    <path d="M9.95 11.6 L9.95 12.4 9.1 12.4 9.1 11.6 9.95 11.6" fill="#0f8504" fill-rule="evenodd" stroke="none"/>
    <path d="M8.3 11.6 L8.3 10.75 9.1 10.75 9.1 11.6 8.3 11.6" fill="#006d00" fill-rule="evenodd" stroke="none"/>
    <path d="M0.85 11.6 L8.3 11.6 9.1 11.6 9.1 12.4 0.85 12.4 0.85 11.6" fill="#108605" fill-rule="evenodd" stroke="none"/>
  </g>
</svg>
