<?xml version="1.0" encoding="UTF-8" standalone="no"?>
<svg xmlns:xlink="http://www.w3.org/1999/xlink" height="14.9px" width="22.4px" xmlns="http://www.w3.org/2000/svg">
  <g transform="matrix(1.0, 0.0, 0.0, 1.0, 0.0, 0.0)">
    <path d="M21.55 0.85 L20.75 0.85 20.75 0.0 21.55 0.0 21.55 0.85 M20.75 14.05 L21.55 14.05 21.55 14.9 20.75 14.9 20.75 14.05" fill="#c22733" fill-opacity="0.9372549" fill-rule="evenodd" stroke="none"/>
    <path d="M21.55 0.85 L21.55 0.0 22.4 0.0 22.4 0.85 21.55 0.85 M22.4 14.05 L22.4 14.9 21.55 14.9 21.55 14.05 22.4 14.05" fill="#b1242e" fill-opacity="0.8666667" fill-rule="evenodd" stroke="none"/>
    <path d="M20.75 0.0 L20.75 0.85 16.6 0.85 16.6 0.0 20.75 0.0 M16.6 14.05 L20.75 14.05 20.75 14.9 16.6 14.9 16.6 14.05 M21.55 14.05 L21.55 0.85 22.4 0.85 22.4 14.05 21.55 14.05" fill="#be2631" fill-opacity="0.91764706" fill-rule="evenodd" stroke="none"/>
    <path d="M20.75 0.85 L21.55 0.85 21.55 14.05 20.75 14.05 16.6 14.05 16.6 0.85 20.75 0.85" fill="#ce2a36" fill-rule="evenodd" stroke="none"/>
    <path d="M16.6 14.9 L15.75 14.9 15.75 14.05 16.6 14.05 16.6 14.9 M15.75 0.0 L16.6 0.0 16.6 0.85 15.75 0.85 15.75 0.0" fill="#bc1c28" fill-opacity="0.91764706" fill-rule="evenodd" stroke="none"/>
    <path d="M15.75 14.9 L14.95 14.9 14.95 14.05 15.75 14.05 15.75 14.9 M14.95 0.0 L15.75 0.0 15.75 0.85 14.95 0.85 14.95 0.0" fill="#c96067" fill-opacity="0.9019608" fill-rule="evenodd" stroke="none"/>
    <path d="M16.6 0.85 L16.6 14.05 15.75 14.05 15.75 13.25 15.75 1.65 15.75 0.85 16.6 0.85" fill="#cc1f2c" fill-rule="evenodd" stroke="none"/>
    <path d="M15.75 0.85 L15.75 1.65 14.95 1.65 14.95 0.85 15.75 0.85 M15.75 13.25 L15.75 14.05 14.95 14.05 14.95 13.25 15.75 13.25" fill="#d8676f" fill-opacity="0.9882353" fill-rule="evenodd" stroke="none"/>
    <path d="M14.95 14.9 L14.1 14.9 14.1 14.05 14.95 14.05 14.95 14.9 M14.1 0.0 L14.95 0.0 14.95 0.85 14.1 0.85 14.1 0.0" fill="#ebebeb" fill-opacity="0.9137255" fill-rule="evenodd" stroke="none"/>
    <path d="M14.1 14.9 L8.3 14.9 8.3 14.05 14.1 14.05 14.1 14.9 M8.3 0.0 L14.1 0.0 14.1 0.85 8.3 0.85 8.3 0.0" fill="#ececec" fill-opacity="0.91764706" fill-rule="evenodd" stroke="none"/>
    <path d="M14.1 0.85 L14.95 0.85 14.95 1.65 14.95 13.25 14.95 14.05 14.1 14.05 14.1 0.85" fill="#fdfdfd" fill-rule="evenodd" stroke="none"/>
    <path d="M15.75 1.65 L15.75 13.25 14.95 13.25 14.95 1.65 15.75 1.65" fill="#d7676f" fill-opacity="0.9843137" fill-rule="evenodd" stroke="none"/>
    <path d="M8.3 14.9 L7.45 14.9 7.45 14.05 8.3 14.05 8.3 14.9 M7.45 0.0 L8.3 0.0 8.3 0.85 7.45 0.85 7.45 0.0" fill="#e2e6e4" fill-opacity="0.90588236" fill-rule="evenodd" stroke="none"/>
    <path d="M7.45 14.9 L6.6 14.9 6.6 14.05 7.45 14.05 7.45 14.9 M6.6 0.0 L7.45 0.0 7.45 0.85 6.6 0.85 6.6 0.0" fill="#219157" fill-opacity="0.9019608" fill-rule="evenodd" stroke="none"/>
    <path d="M6.6 14.05 L6.6 0.85 7.45 0.85 7.45 14.05 6.6 14.05" fill="#249d5e" fill-opacity="0.9843137" fill-rule="evenodd" stroke="none"/>
    <path d="M6.6 14.9 L5.8 14.9 5.8 14.05 6.6 14.05 6.6 14.9 M5.8 0.0 L6.6 0.0 6.6 0.85 5.8 0.85 5.8 0.0" fill="#00843a" fill-opacity="0.92156863" fill-rule="evenodd" stroke="none"/>
    <path d="M5.8 14.9 L1.65 14.9 1.65 14.05 5.8 14.05 5.8 14.9 M0.0 14.05 L0.0 0.85 0.85 0.85 0.85 14.05 0.0 14.05 M1.65 0.0 L5.8 0.0 5.8 0.85 1.65 0.85 1.65 0.0" fill="#00863f" fill-opacity="0.91764706" fill-rule="evenodd" stroke="none"/>
    <path d="M5.8 0.85 L6.6 0.85 6.6 14.05 5.8 14.05 5.8 0.85" fill="#008e3f" fill-rule="evenodd" stroke="none"/>
    <path d="M7.45 0.85 L8.3 0.85 8.3 14.05 7.45 14.05 7.45 0.85" fill="#f4f8f6" fill-opacity="0.99215686" fill-rule="evenodd" stroke="none"/>
    <path d="M0.85 14.9 L0.0 14.9 0.0 14.05 0.85 14.05 0.85 14.9 M0.0 0.85 L0.0 0.0 0.85 0.0 0.85 0.85 0.0 0.85" fill="#007c3b" fill-opacity="0.8666667" fill-rule="evenodd" stroke="none"/>
    <path d="M1.65 14.9 L0.85 14.9 0.85 14.05 1.65 14.05 1.65 14.9 M0.85 0.0 L1.65 0.0 1.65 0.85 0.85 0.85 0.85 0.0" fill="#008941" fill-opacity="0.9372549" fill-rule="evenodd" stroke="none"/>
    <path d="M5.8 0.85 L5.8 14.05 1.65 14.05 0.85 14.05 0.85 0.85 1.65 0.85 5.8 0.85" fill="#009145" fill-rule="evenodd" stroke="none"/>
    <path d="M14.1 0.85 L14.1 14.05 8.3 14.05 8.3 0.85 14.1 0.85" fill="#ffffff" fill-rule="evenodd" stroke="none"/>
  </g>
</svg>
