<?xml version="1.0" encoding="UTF-8" standalone="no"?>
<svg xmlns:xlink="http://www.w3.org/1999/xlink" height="14.9px" width="22.4px" xmlns="http://www.w3.org/2000/svg">
  <g transform="matrix(1.0, 0.0, 0.0, 1.0, 0.0, 0.0)">
    <path d="M21.55 0.85 L21.55 0.0 22.4 0.0 22.4 0.85 21.55 0.85 M0.85 0.0 L0.85 0.85 0.0 0.85 0.0 0.0 0.85 0.0 M21.55 14.9 L21.55 14.05 22.4 14.05 22.4 14.9 21.55 14.9 M0.0 14.05 L0.85 14.05 0.85 14.9 0.0 14.9 0.0 14.05" fill="#dbdbdb" fill-opacity="0.8666667" fill-rule="evenodd" stroke="none"/>
    <path d="M21.55 0.85 L22.4 0.85 22.4 1.65 21.55 1.65 21.55 0.85 M22.4 14.05 L21.55 14.05 21.55 13.25 22.4 13.25 22.4 14.05 M0.0 0.85 L0.85 0.85 0.85 1.65 0.0 1.65 0.0 0.85 M0.85 13.25 L0.85 14.05 0.0 14.05 0.0 13.25 0.85 13.25" fill="#f1f1f1" fill-opacity="0.9372549" fill-rule="evenodd" stroke="none"/>
    <path d="M21.55 0.0 L21.55 0.85 0.85 0.85 0.85 0.0 21.55 0.0 M21.55 1.65 L22.4 1.65 22.4 13.25 21.55 13.25 21.55 1.65 M21.55 14.05 L21.55 14.9 0.85 14.9 0.85 14.05 21.55 14.05 M0.85 1.65 L0.85 13.25 0.0 13.25 0.0 1.65 0.85 1.65" fill="#ececec" fill-opacity="0.91764706" fill-rule="evenodd" stroke="none"/>
    <path d="M0.85 0.85 L21.55 0.85 21.55 1.65 21.55 13.25 21.55 14.05 0.85 14.05 0.85 13.25 0.85 1.65 0.85 0.85 M15.75 4.95 L15.75 4.15 14.95 4.15 14.95 3.3 14.1 3.3 13.3 3.3 13.3 2.5 12.45 2.5 11.65 2.5 10.8 2.5 9.95 2.5 9.1 2.5 9.1 3.3 8.3 3.3 7.45 3.3 7.45 4.15 6.6 4.15 6.6 4.95 6.6 5.8 5.8 5.8 5.8 6.6 5.8 8.3 5.8 9.1 6.6 9.1 6.6 9.95 6.6 10.75 7.45 10.75 7.45 11.6 8.3 11.6 9.1 11.6 9.1 12.4 9.95 12.4 10.8 12.4 11.65 12.4 12.45 12.4 13.3 12.4 13.3 11.6 14.1 11.6 14.95 11.6 14.95 10.75 15.75 10.75 15.75 9.95 15.75 9.1 16.6 9.1 16.6 8.3 16.6 6.6 16.6 5.8 15.75 5.8 15.75 4.95" fill="#ffffff" fill-rule="evenodd" stroke="none"/>
    <path d="M15.75 4.95 L15.75 5.8 14.95 5.8 14.95 4.95 15.75 4.95" fill="#e08697" fill-rule="evenodd" stroke="none"/>
    <path d="M14.95 4.15 L15.75 4.15 15.75 4.95 14.95 4.95 14.95 4.15" fill="#fdf6f7" fill-rule="evenodd" stroke="none"/>
    <path d="M15.75 5.8 L16.6 5.8 16.6 6.6 15.75 6.6 15.75 5.8" fill="#fef9fb" fill-rule="evenodd" stroke="none"/>
    <path d="M10.8 2.5 L11.65 2.5 11.65 3.3 10.8 3.3 10.8 2.5" fill="#dd7e8e" fill-rule="evenodd" stroke="none"/>
    <path d="M11.65 2.5 L12.45 2.5 12.45 3.3 11.65 3.3 11.65 2.5" fill="#e2909e" fill-rule="evenodd" stroke="none"/>
    <path d="M12.45 3.3 L12.45 4.15 9.95 4.15 9.95 3.3 10.8 3.3 11.65 3.3 12.45 3.3 M11.65 11.6 L10.8 11.6 9.95 11.6 9.95 10.75 12.45 10.75 12.45 11.6 11.65 11.6" fill="#b90017" fill-rule="evenodd" stroke="none"/>
    <path d="M13.3 4.95 L12.45 4.95 12.45 4.15 13.3 4.15 13.3 4.95 M9.1 9.95 L9.95 9.95 9.95 10.75 9.1 10.75 9.1 9.95" fill="#bc0023" fill-rule="evenodd" stroke="none"/>
    <path d="M12.45 4.15 L12.45 4.95 13.3 4.95 14.1 4.95 14.1 5.8 14.1 6.6 14.1 8.3 14.1 9.1 14.1 9.95 13.3 9.95 13.3 10.75 12.45 10.75 9.95 10.75 9.95 9.95 9.1 9.95 8.3 9.95 8.3 9.1 8.3 8.3 8.3 6.6 8.3 5.8 8.3 4.95 9.1 4.95 9.95 4.95 9.95 4.15 12.45 4.15" fill="#bd0024" fill-rule="evenodd" stroke="none"/>
    <path d="M13.3 4.15 L12.45 4.15 12.45 3.3 13.3 3.3 13.3 4.15" fill="#bc0222" fill-rule="evenodd" stroke="none"/>
    <path d="M14.1 3.3 L14.95 3.3 14.95 4.15 14.1 4.15 14.1 3.3" fill="#fbeef1" fill-rule="evenodd" stroke="none"/>
    <path d="M13.3 3.3 L14.1 3.3 14.1 4.15 13.3 4.15 13.3 3.3" fill="#d55d72" fill-rule="evenodd" stroke="none"/>
    <path d="M14.95 4.15 L14.95 4.95 14.1 4.95 14.1 4.15 14.95 4.15" fill="#ce3f5a" fill-rule="evenodd" stroke="none"/>
    <path d="M13.3 4.95 L13.3 4.15 14.1 4.15 14.1 4.95 14.95 4.95 14.95 5.8 14.1 5.8 14.1 4.95 13.3 4.95 M14.1 9.95 L14.1 10.75 13.3 10.75 13.3 9.95 14.1 9.95" fill="#b80014" fill-rule="evenodd" stroke="none"/>
    <path d="M14.1 5.8 L14.95 5.8 14.95 6.6 14.1 6.6 14.1 5.8 M14.1 8.3 L14.95 8.3 14.95 9.1 14.1 9.1 14.1 8.3" fill="#bb001d" fill-rule="evenodd" stroke="none"/>
    <path d="M12.45 2.5 L13.3 2.5 13.3 3.3 12.45 3.3 12.45 2.5" fill="#f2ccd3" fill-rule="evenodd" stroke="none"/>
    <path d="M9.95 2.5 L10.8 2.5 10.8 3.3 9.95 3.3 9.95 2.5" fill="#e393a1" fill-rule="evenodd" stroke="none"/>
    <path d="M14.95 8.3 L15.75 8.3 15.75 9.1 14.95 9.1 14.95 8.3" fill="#c82546" fill-rule="evenodd" stroke="none"/>
    <path d="M14.95 6.6 L15.75 6.6 15.75 8.3 14.95 8.3 14.95 6.6" fill="#c00b2f" fill-rule="evenodd" stroke="none"/>
    <path d="M14.1 6.6 L14.95 6.6 14.95 8.3 14.1 8.3 14.1 6.6 M9.1 4.15 L9.95 4.15 9.95 4.95 9.1 4.95 9.1 4.15" fill="#bc0022" fill-rule="evenodd" stroke="none"/>
    <path d="M14.95 9.1 L14.95 9.95 14.1 9.95 14.1 9.1 14.95 9.1 M8.3 9.1 L8.3 9.95 7.45 9.95 7.45 9.1 8.3 9.1" fill="#b80015" fill-rule="evenodd" stroke="none"/>
    <path d="M12.45 12.4 L11.65 12.4 11.65 11.6 12.45 11.6 12.45 12.4" fill="#e08897" fill-rule="evenodd" stroke="none"/>
    <path d="M11.65 12.4 L10.8 12.4 10.8 11.6 11.65 11.6 11.65 12.4" fill="#db7586" fill-rule="evenodd" stroke="none"/>
    <path d="M12.45 11.6 L12.45 10.75 13.3 10.75 13.3 11.6 12.45 11.6" fill="#bb001f" fill-rule="evenodd" stroke="none"/>
    <path d="M14.1 9.95 L14.95 9.95 14.95 10.75 14.1 10.75 14.1 9.95" fill="#cd3956" fill-rule="evenodd" stroke="none"/>
    <path d="M15.75 9.95 L15.75 10.75 14.95 10.75 14.95 9.95 15.75 9.95" fill="#fcf5f6" fill-rule="evenodd" stroke="none"/>
    <path d="M14.95 10.75 L14.95 11.6 14.1 11.6 14.1 10.75 14.95 10.75" fill="#faeaee" fill-rule="evenodd" stroke="none"/>
    <path d="M14.1 11.6 L13.3 11.6 13.3 10.75 14.1 10.75 14.1 11.6" fill="#d3556c" fill-rule="evenodd" stroke="none"/>
    <path d="M13.3 11.6 L13.3 12.4 12.45 12.4 12.45 11.6 13.3 11.6" fill="#f0c4cd" fill-rule="evenodd" stroke="none"/>
    <path d="M15.75 9.1 L15.75 9.95 14.95 9.95 14.95 9.1 15.75 9.1" fill="#df8194" fill-rule="evenodd" stroke="none"/>
    <path d="M16.6 6.6 L16.6 8.3 15.75 8.3 15.75 6.6 16.6 6.6" fill="#f8e4e8" fill-rule="evenodd" stroke="none"/>
    <path d="M16.6 8.3 L16.6 9.1 15.75 9.1 15.75 8.3 16.6 8.3" fill="#fdf9fa" fill-rule="evenodd" stroke="none"/>
    <path d="M14.95 5.8 L15.75 5.8 15.75 6.6 14.95 6.6 14.95 5.8" fill="#c82747" fill-rule="evenodd" stroke="none"/>
    <path d="M9.1 3.3 L9.1 2.5 9.95 2.5 9.95 3.3 9.1 3.3" fill="#f3d1d7" fill-rule="evenodd" stroke="none"/>
    <path d="M7.45 4.15 L7.45 3.3 8.3 3.3 8.3 4.15 7.45 4.15" fill="#fcf4f5" fill-rule="evenodd" stroke="none"/>
    <path d="M6.6 4.95 L6.6 4.15 7.45 4.15 7.45 4.95 6.6 4.95" fill="#fefbfb" fill-rule="evenodd" stroke="none"/>
    <path d="M6.6 5.8 L6.6 4.95 7.45 4.95 7.45 5.8 6.6 5.8" fill="#e597a6" fill-rule="evenodd" stroke="none"/>
    <path d="M6.6 5.8 L7.45 5.8 7.45 6.6 6.6 6.6 6.6 5.8" fill="#cb3452" fill-rule="evenodd" stroke="none"/>
    <path d="M7.45 5.8 L7.45 4.95 8.3 4.95 8.3 5.8 7.45 5.8" fill="#b80016" fill-rule="evenodd" stroke="none"/>
    <path d="M8.3 4.95 L7.45 4.95 7.45 4.15 8.3 4.15 8.3 4.95" fill="#d24c67" fill-rule="evenodd" stroke="none"/>
    <path d="M6.6 9.1 L5.8 9.1 5.8 8.3 6.6 8.3 6.6 9.1 M5.8 6.6 L5.8 5.8 6.6 5.8 6.6 6.6 5.8 6.6" fill="#fefdfd" fill-rule="evenodd" stroke="none"/>
    <path d="M9.95 3.3 L9.95 4.15 9.1 4.15 9.1 3.3 9.95 3.3" fill="#bd0524" fill-rule="evenodd" stroke="none"/>
    <path d="M8.3 3.3 L9.1 3.3 9.1 4.15 8.3 4.15 8.3 3.3" fill="#d8687c" fill-rule="evenodd" stroke="none"/>
    <path d="M9.1 4.95 L8.3 4.95 8.3 4.15 9.1 4.15 9.1 4.95" fill="#b70013" fill-rule="evenodd" stroke="none"/>
    <path d="M7.45 5.8 L8.3 5.8 8.3 6.6 7.45 6.6 7.45 5.8 M8.3 8.3 L8.3 9.1 7.45 9.1 7.45 8.3 8.3 8.3" fill="#ba001b" fill-rule="evenodd" stroke="none"/>
    <path d="M7.45 6.6 L8.3 6.6 8.3 8.3 7.45 8.3 7.45 7.45 7.45 6.6" fill="#bc0020" fill-rule="evenodd" stroke="none"/>
    <path d="M7.45 6.6 L7.45 7.45 6.6 7.45 6.6 6.6 7.45 6.6" fill="#c21437" fill-rule="evenodd" stroke="none"/>
    <path d="M5.8 8.3 L5.8 6.6 6.6 6.6 6.6 7.45 6.6 8.3 5.8 8.3" fill="#fbeff2" fill-rule="evenodd" stroke="none"/>
    <path d="M6.6 7.45 L7.45 7.45 7.45 8.3 6.6 8.3 6.6 7.45" fill="#c21336" fill-rule="evenodd" stroke="none"/>
    <path d="M7.45 8.3 L7.45 9.1 6.6 9.1 6.6 8.3 7.45 8.3" fill="#cb3251" fill-rule="evenodd" stroke="none"/>
    <path d="M6.6 9.95 L6.6 9.1 7.45 9.1 7.45 9.95 6.6 9.95" fill="#e493a3" fill-rule="evenodd" stroke="none"/>
    <path d="M7.45 10.75 L6.6 10.75 6.6 9.95 7.45 9.95 7.45 10.75" fill="#fefafa" fill-rule="evenodd" stroke="none"/>
    <path d="M7.45 9.95 L8.3 9.95 8.3 10.75 7.45 10.75 7.45 9.95" fill="#d04662" fill-rule="evenodd" stroke="none"/>
    <path d="M8.3 11.6 L7.45 11.6 7.45 10.75 8.3 10.75 8.3 11.6" fill="#fbf1f3" fill-rule="evenodd" stroke="none"/>
    <path d="M8.3 9.95 L9.1 9.95 9.1 10.75 8.3 10.75 8.3 9.95" fill="#b80013" fill-rule="evenodd" stroke="none"/>
    <path d="M9.95 10.75 L9.95 11.6 9.1 11.6 9.1 10.75 9.95 10.75" fill="#bc0221" fill-rule="evenodd" stroke="none"/>
    <path d="M9.95 12.4 L9.1 12.4 9.1 11.6 9.95 11.6 9.95 12.4" fill="#f1cad1" fill-rule="evenodd" stroke="none"/>
    <path d="M9.1 11.6 L8.3 11.6 8.3 10.75 9.1 10.75 9.1 11.6" fill="#d66075" fill-rule="evenodd" stroke="none"/>
    <path d="M10.8 12.4 L9.95 12.4 9.95 11.6 10.8 11.6 10.8 12.4" fill="#e18b9a" fill-rule="evenodd" stroke="none"/>
  </g>
</svg>
