<?xml version="1.0" encoding="UTF-8" standalone="no"?>
<svg xmlns:xlink="http://www.w3.org/1999/xlink" height="14.9px" width="22.4px" xmlns="http://www.w3.org/2000/svg">
  <g transform="matrix(1.0, 0.0, 0.0, 1.0, 0.0, 0.0)">
    <path d="M21.55 0.85 L21.55 0.0 22.4 0.0 22.4 0.85 21.55 0.85 M22.4 14.05 L22.4 14.9 21.55 14.9 21.55 14.05 22.4 14.05 M0.85 14.9 L0.0 14.9 0.0 14.05 0.85 14.05 0.85 14.9" fill="#bb242d" fill-opacity="0.9843137" fill-rule="evenodd" stroke="none"/>
    <path d="M21.55 0.0 L21.55 0.85 12.45 0.85 12.45 0.0 21.55 0.0 M21.55 14.9 L0.85 14.9 0.85 14.05 21.55 14.05 21.55 14.9" fill="#cb2326" fill-rule="evenodd" stroke="none"/>
    <path d="M21.55 0.85 L22.4 0.85 22.4 1.65 21.55 1.65 21.55 0.85" fill="#ce191a" fill-rule="evenodd" stroke="none"/>
    <path d="M22.4 2.5 L21.55 2.5 21.55 1.65 22.4 1.65 22.4 2.5" fill="#e2abb1" fill-rule="evenodd" stroke="none"/>
    <path d="M21.55 2.5 L22.4 2.5 22.4 3.3 21.55 3.3 21.55 2.5 M22.4 6.6 L22.4 8.3 21.55 8.3 21.55 6.6 22.4 6.6 M22.4 11.6 L22.4 12.4 21.55 12.4 21.55 11.6 22.4 11.6 M0.0 12.4 L0.0 11.6 0.85 11.6 0.85 12.4 0.0 12.4" fill="#ecf0f8" fill-rule="evenodd" stroke="none"/>
    <path d="M21.55 1.65 L21.55 2.5 12.45 2.5 12.45 1.65 21.55 1.65" fill="#f4b6b4" fill-rule="evenodd" stroke="none"/>
    <path d="M12.45 0.85 L21.55 0.85 21.55 1.65 12.45 1.65 12.45 0.85" fill="#da1914" fill-rule="evenodd" stroke="none"/>
    <path d="M21.55 3.3 L22.4 3.3 22.4 4.15 21.55 4.15 21.55 3.3" fill="#e8d9e1" fill-rule="evenodd" stroke="none"/>
    <path d="M21.55 3.3 L21.55 4.15 12.45 4.15 12.45 3.3 21.55 3.3" fill="#fbe7e7" fill-rule="evenodd" stroke="none"/>
    <path d="M22.4 4.15 L22.4 4.95 21.55 4.95 21.55 4.15 22.4 4.15" fill="#cd2d31" fill-rule="evenodd" stroke="none"/>
    <path d="M22.4 4.95 L22.4 5.8 21.55 5.8 21.55 4.95 22.4 4.95" fill="#c91418" fill-rule="evenodd" stroke="none"/>
    <path d="M22.4 5.8 L22.4 6.6 21.55 6.6 21.55 5.8 22.4 5.8" fill="#d77176" fill-rule="evenodd" stroke="none"/>
    <path d="M21.55 4.95 L21.55 5.8 12.45 5.8 12.45 4.95 21.55 4.95" fill="#d9130f" fill-rule="evenodd" stroke="none"/>
    <path d="M21.55 4.15 L21.55 4.95 12.45 4.95 12.45 4.15 21.55 4.15" fill="#de2e29" fill-rule="evenodd" stroke="none"/>
    <path d="M21.55 2.5 L21.55 3.3 12.45 3.3 11.65 3.3 11.65 2.5 12.45 2.5 21.55 2.5 M21.55 8.3 L11.65 8.3 11.65 7.45 11.65 6.6 12.45 6.6 21.55 6.6 21.55 8.3 M21.55 11.6 L21.55 12.4 0.85 12.4 0.85 11.6 21.55 11.6" fill="#ffffff" fill-rule="evenodd" stroke="none"/>
    <path d="M22.4 8.3 L22.4 9.1 21.55 9.1 21.55 8.3 22.4 8.3" fill="#d35357" fill-rule="evenodd" stroke="none"/>
    <path d="M21.55 8.3 L21.55 9.1 11.65 9.1 11.65 8.3 21.55 8.3" fill="#e45652" fill-rule="evenodd" stroke="none"/>
    <path d="M22.4 9.1 L22.4 9.95 21.55 9.95 21.55 9.1 22.4 9.1" fill="#c91417" fill-rule="evenodd" stroke="none"/>
    <path d="M22.4 9.95 L22.4 10.75 21.55 10.75 21.55 9.95 22.4 9.95 M0.0 10.75 L0.0 9.95 0.85 9.95 0.85 10.75 0.0 10.75" fill="#d04246" fill-rule="evenodd" stroke="none"/>
    <path d="M21.55 9.95 L21.55 10.75 0.85 10.75 0.85 9.95 10.8 9.95 11.65 9.95 21.55 9.95" fill="#e14440" fill-rule="evenodd" stroke="none"/>
    <path d="M22.4 10.75 L22.4 11.6 21.55 11.6 21.55 10.75 22.4 10.75 M0.0 11.6 L0.0 10.75 0.85 10.75 0.85 11.6 0.0 11.6" fill="#ebebf2" fill-rule="evenodd" stroke="none"/>
    <path d="M21.55 10.75 L21.55 11.6 0.85 11.6 0.85 10.75 21.55 10.75" fill="#fefaf9" fill-rule="evenodd" stroke="none"/>
    <path d="M21.55 9.1 L21.55 9.95 11.65 9.95 11.65 9.1 21.55 9.1" fill="#d9130e" fill-rule="evenodd" stroke="none"/>
    <path d="M21.55 5.8 L21.55 6.6 12.45 6.6 12.45 5.8 21.55 5.8" fill="#e97673" fill-rule="evenodd" stroke="none"/>
    <path d="M22.4 12.4 L22.4 13.25 21.55 13.25 21.55 12.4 22.4 12.4 M0.0 13.25 L0.0 12.4 0.85 12.4 0.85 13.25 0.0 13.25" fill="#dd949a" fill-rule="evenodd" stroke="none"/>
    <path d="M21.55 12.4 L21.55 13.25 0.85 13.25 0.85 12.4 21.55 12.4" fill="#ef9d9b" fill-rule="evenodd" stroke="none"/>
    <path d="M22.4 13.25 L22.4 14.05 21.55 14.05 21.55 13.25 22.4 13.25 M0.0 14.05 L0.0 13.25 0.85 13.25 0.85 14.05 0.0 14.05" fill="#ce1617" fill-rule="evenodd" stroke="none"/>
    <path d="M0.85 13.25 L21.55 13.25 21.55 14.05 0.85 14.05 0.85 13.25" fill="#da1612" fill-rule="evenodd" stroke="none"/>
    <path d="M12.45 0.0 L12.45 0.85 11.65 0.85 11.65 0.0 12.45 0.0" fill="#d52221" fill-rule="evenodd" stroke="none"/>
    <path d="M11.65 0.85 L12.45 0.85 12.45 1.65 11.65 1.65 11.65 0.85" fill="#e5180f" fill-rule="evenodd" stroke="none"/>
    <path d="M10.8 0.0 L11.65 0.0 11.65 0.85 10.8 0.85 10.8 0.0" fill="#262f8b" fill-opacity="0.972549" fill-rule="evenodd" stroke="none"/>
    <path d="M9.95 0.0 L10.8 0.0 10.8 0.85 9.95 0.85 9.95 0.0" fill="#0032a8" fill-opacity="0.9882353" fill-rule="evenodd" stroke="none"/>
    <path d="M11.65 1.65 L11.65 2.5 10.8 2.5 10.8 1.65 11.65 1.65" fill="#2f4eae" fill-rule="evenodd" stroke="none"/>
    <path d="M10.8 1.65 L10.8 2.5 9.95 2.5 9.95 1.65 10.8 1.65" fill="#0132ac" fill-rule="evenodd" stroke="none"/>
    <path d="M12.45 1.65 L12.45 2.5 11.65 2.5 11.65 1.65 12.45 1.65" fill="#f7b6b2" fill-rule="evenodd" stroke="none"/>
    <path d="M11.65 0.85 L11.65 1.65 10.8 1.65 10.8 0.85 11.65 0.85" fill="#292f8e" fill-rule="evenodd" stroke="none"/>
    <path d="M10.8 1.65 L9.95 1.65 9.1 1.65 9.1 0.85 9.95 0.85 10.8 0.85 10.8 1.65 M1.65 7.45 L2.5 7.45 2.5 8.3 0.85 8.3 0.85 7.45 1.65 7.45" fill="#0034ac" fill-rule="evenodd" stroke="none"/>
    <path d="M10.8 2.5 L11.65 2.5 11.65 3.3 10.8 3.3 10.8 2.5" fill="#315fc0" fill-rule="evenodd" stroke="none"/>
    <path d="M11.65 3.3 L12.45 3.3 12.45 4.15 11.65 4.15 11.65 3.3" fill="#fce7e6" fill-rule="evenodd" stroke="none"/>
    <path d="M11.65 3.3 L11.65 4.15 10.8 4.15 10.8 3.3 11.65 3.3" fill="#3057b8" fill-rule="evenodd" stroke="none"/>
    <path d="M12.45 4.15 L12.45 4.95 11.65 4.95 11.65 4.15 12.45 4.15" fill="#e72d23" fill-rule="evenodd" stroke="none"/>
    <path d="M10.8 3.3 L10.8 4.15 9.95 4.15 9.95 3.3 10.8 3.3" fill="#1b3da0" fill-rule="evenodd" stroke="none"/>
    <path d="M10.8 4.95 L10.8 5.8 9.95 5.8 9.95 4.95 10.8 4.95" fill="#002eb3" fill-rule="evenodd" stroke="none"/>
    <path d="M10.8 4.95 L11.65 4.95 11.65 5.8 10.8 5.8 10.8 4.95" fill="#292e8d" fill-rule="evenodd" stroke="none"/>
    <path d="M11.65 4.95 L12.45 4.95 12.45 5.8 11.65 5.8 11.65 4.95" fill="#e41309" fill-rule="evenodd" stroke="none"/>
    <path d="M12.45 5.8 L12.45 6.6 11.65 6.6 11.65 5.8 12.45 5.8" fill="#f0756f" fill-rule="evenodd" stroke="none"/>
    <path d="M11.65 4.15 L11.65 4.95 10.8 4.95 10.8 4.15 11.65 4.15" fill="#2b3392" fill-rule="evenodd" stroke="none"/>
    <path d="M10.8 4.15 L10.8 4.95 9.95 4.95 9.95 4.15 10.8 4.15" fill="#0e35a9" fill-rule="evenodd" stroke="none"/>
    <path d="M11.65 5.8 L11.65 6.6 10.8 6.6 10.8 5.8 11.65 5.8" fill="#2d41a1" fill-rule="evenodd" stroke="none"/>
    <path d="M9.95 2.5 L10.8 2.5 10.8 3.3 9.95 3.3 9.95 2.5" fill="#002eb2" fill-rule="evenodd" stroke="none"/>
    <path d="M10.8 6.6 L11.65 6.6 11.65 7.45 10.8 7.45 10.8 6.6" fill="#2e5cbe" fill-rule="evenodd" stroke="none"/>
    <path d="M9.95 6.6 L10.8 6.6 10.8 7.45 9.95 7.45 9.95 6.6 M4.95 4.15 L4.95 4.95 4.15 4.95 4.15 4.15 4.95 4.15" fill="#0032af" fill-rule="evenodd" stroke="none"/>
    <path d="M10.8 8.3 L10.8 9.1 9.95 9.1 9.95 8.3 10.8 8.3" fill="#9e2947" fill-rule="evenodd" stroke="none"/>
    <path d="M11.65 8.3 L11.65 9.1 10.8 9.1 10.8 8.3 11.65 8.3" fill="#b83949" fill-rule="evenodd" stroke="none"/>
    <path d="M10.8 9.1 L11.65 9.1 11.65 9.95 10.8 9.95 10.8 9.1" fill="#e01811" fill-rule="evenodd" stroke="none"/>
    <path d="M11.65 7.45 L11.65 8.3 10.8 8.3 10.8 7.45 11.65 7.45" fill="#335fbf" fill-rule="evenodd" stroke="none"/>
    <path d="M10.8 7.45 L10.8 8.3 9.95 8.3 6.6 8.3 6.6 7.45 7.45 7.45 8.3 7.45 9.1 7.45 9.95 7.45 10.8 7.45" fill="#0033ac" fill-rule="evenodd" stroke="none"/>
    <path d="M10.8 9.1 L10.8 9.95 0.85 9.95 0.85 9.1 9.95 9.1 10.8 9.1" fill="#e41b12" fill-rule="evenodd" stroke="none"/>
    <path d="M10.8 5.8 L10.8 6.6 9.95 6.6 9.95 5.8 10.8 5.8" fill="#0335ab" fill-rule="evenodd" stroke="none"/>
    <path d="M9.1 0.0 L9.95 0.0 9.95 0.85 9.1 0.85 9.1 0.0" fill="#0032a7" fill-opacity="0.98039216" fill-rule="evenodd" stroke="none"/>
    <path d="M6.6 0.0 L7.45 0.0 7.45 0.85 6.6 0.85 6.6 0.0 M8.3 0.0 L9.1 0.0 9.1 0.85 8.3 0.85 8.3 0.0" fill="#0033a6" fill-opacity="0.98039216" fill-rule="evenodd" stroke="none"/>
    <path d="M7.45 0.0 L8.3 0.0 8.3 0.85 7.45 0.85 7.45 0.0" fill="#0031a8" fill-opacity="0.98039216" fill-rule="evenodd" stroke="none"/>
    <path d="M8.3 1.65 L8.3 2.5 7.45 2.5 7.45 1.65 8.3 1.65" fill="#2e528f" fill-rule="evenodd" stroke="none"/>
    <path d="M8.3 2.5 L8.3 1.65 9.1 1.65 9.1 2.5 8.3 2.5" fill="#0b3aa6" fill-rule="evenodd" stroke="none"/>
    <path d="M9.95 1.65 L9.95 2.5 9.1 2.5 9.1 1.65 9.95 1.65 M3.3 7.45 L3.3 8.3 2.5 8.3 2.5 7.45 3.3 7.45" fill="#002fb1" fill-rule="evenodd" stroke="none"/>
    <path d="M9.1 2.5 L9.95 2.5 9.95 3.3 9.1 3.3 9.1 2.5" fill="#2f508f" fill-rule="evenodd" stroke="none"/>
    <path d="M9.1 0.85 L9.1 1.65 8.3 1.65 8.3 0.85 9.1 0.85 M5.8 2.5 L5.8 1.65 6.6 1.65 6.6 2.5 5.8 2.5" fill="#002bb5" fill-rule="evenodd" stroke="none"/>
    <path d="M8.3 0.85 L8.3 1.65 7.45 1.65 7.45 0.85 8.3 0.85" fill="#002db3" fill-rule="evenodd" stroke="none"/>
    <path d="M8.3 2.5 L9.1 2.5 9.1 3.3 8.3 3.3 8.3 2.5" fill="#a4993f" fill-rule="evenodd" stroke="none"/>
    <path d="M7.45 0.85 L7.45 1.65 6.6 1.65 6.6 0.85 7.45 0.85" fill="#0023be" fill-rule="evenodd" stroke="none"/>
    <path d="M5.8 0.0 L6.6 0.0 6.6 0.85 5.8 0.85 5.8 0.0" fill="#002dad" fill-opacity="0.98039216" fill-rule="evenodd" stroke="none"/>
    <path d="M4.15 0.0 L5.8 0.0 5.8 0.85 4.95 0.85 4.15 0.85 4.15 0.0" fill="#002faa" fill-opacity="0.98039216" fill-rule="evenodd" stroke="none"/>
    <path d="M5.8 1.65 L5.8 2.5 4.95 2.5 4.95 1.65 5.8 1.65" fill="#0024bd" fill-rule="evenodd" stroke="none"/>
    <path d="M6.6 1.65 L7.45 1.65 7.45 2.5 6.6 2.5 6.6 1.65" fill="#113da1" fill-rule="evenodd" stroke="none"/>
    <path d="M6.6 2.5 L7.45 2.5 7.45 3.3 6.6 3.3 6.6 2.5" fill="#818359" fill-rule="evenodd" stroke="none"/>
    <path d="M5.8 0.85 L6.6 0.85 6.6 1.65 5.8 1.65 5.8 0.85" fill="#30508f" fill-rule="evenodd" stroke="none"/>
    <path d="M5.8 0.85 L5.8 1.65 4.95 1.65 4.95 0.85 5.8 0.85" fill="#797f5f" fill-rule="evenodd" stroke="none"/>
    <path d="M5.8 2.5 L6.6 2.5 6.6 3.3 5.8 3.3 5.8 2.5" fill="#204698" fill-rule="evenodd" stroke="none"/>
    <path d="M6.6 3.3 L7.45 3.3 7.45 4.15 6.6 4.15 6.6 3.3" fill="#ffdc00" fill-rule="evenodd" stroke="none"/>
    <path d="M6.6 4.15 L7.45 4.15 7.45 4.95 6.6 4.95 6.6 4.15" fill="#ffec00" fill-rule="evenodd" stroke="none"/>
    <path d="M6.6 3.3 L6.6 4.15 5.8 4.15 5.8 3.3 6.6 3.3" fill="#526877" fill-rule="evenodd" stroke="none"/>
    <path d="M7.45 3.3 L8.3 3.3 8.3 4.15 7.45 4.15 7.45 3.3" fill="#fff000" fill-rule="evenodd" stroke="none"/>
    <path d="M5.8 3.3 L5.8 4.15 4.95 4.15 4.95 3.3 5.8 3.3" fill="#133ba6" fill-rule="evenodd" stroke="none"/>
    <path d="M5.8 5.8 L5.8 4.95 6.6 4.95 6.6 5.8 5.8 5.8" fill="#2d5091" fill-rule="evenodd" stroke="none"/>
    <path d="M5.8 4.95 L5.8 5.8 4.95 5.8 4.95 4.95 5.8 4.95 M5.8 2.5 L5.8 3.3 4.95 3.3 4.95 2.5 5.8 2.5" fill="#002cb5" fill-rule="evenodd" stroke="none"/>
    <path d="M6.6 4.95 L7.45 4.95 7.45 5.8 6.6 5.8 6.6 4.95" fill="#a29941" fill-rule="evenodd" stroke="none"/>
    <path d="M7.45 5.8 L7.45 4.95 8.3 4.95 8.3 5.8 7.45 5.8" fill="#ffd800" fill-rule="evenodd" stroke="none"/>
    <path d="M7.45 5.8 L7.45 6.6 6.6 6.6 6.6 5.8 7.45 5.8" fill="#1f4899" fill-rule="evenodd" stroke="none"/>
    <path d="M5.8 4.15 L6.6 4.15 6.6 4.95 5.8 4.95 5.8 4.15" fill="#576c75" fill-rule="evenodd" stroke="none"/>
    <path d="M5.8 4.15 L5.8 4.95 4.95 4.95 4.95 4.15 5.8 4.15" fill="#052fb0" fill-rule="evenodd" stroke="none"/>
    <path d="M5.8 5.8 L6.6 5.8 6.6 6.6 5.8 6.6 5.8 5.8" fill="#0027b8" fill-rule="evenodd" stroke="none"/>
    <path d="M7.45 4.95 L7.45 4.15 8.3 4.15 8.3 4.95 7.45 4.95" fill="#ffe600" fill-rule="evenodd" stroke="none"/>
    <path d="M9.95 3.3 L9.95 4.15 9.1 4.15 9.1 3.3 9.95 3.3" fill="#707a65" fill-rule="evenodd" stroke="none"/>
    <path d="M8.3 3.3 L9.1 3.3 9.1 4.15 8.3 4.15 8.3 3.3" fill="#ffee00" fill-rule="evenodd" stroke="none"/>
    <path d="M9.1 4.15 L9.95 4.15 9.95 4.95 9.1 4.95 9.1 4.15" fill="#808558" fill-rule="evenodd" stroke="none"/>
    <path d="M8.3 4.95 L9.1 4.95 9.1 5.8 8.3 5.8 8.3 4.95" fill="#cbb123" fill-rule="evenodd" stroke="none"/>
    <path d="M9.1 4.95 L9.95 4.95 9.95 5.8 9.1 5.8 9.1 4.95" fill="#3e5987" fill-rule="evenodd" stroke="none"/>
    <path d="M9.95 5.8 L9.95 6.6 9.1 6.6 9.1 5.8 9.95 5.8" fill="#0132ad" fill-rule="evenodd" stroke="none"/>
    <path d="M8.3 4.15 L9.1 4.15 9.1 4.95 8.3 4.95 8.3 4.15" fill="#fff400" fill-rule="evenodd" stroke="none"/>
    <path d="M9.1 5.8 L9.1 6.6 8.3 6.6 8.3 5.8 9.1 5.8" fill="#1f469b" fill-rule="evenodd" stroke="none"/>
    <path d="M7.45 2.5 L8.3 2.5 8.3 3.3 7.45 3.3 7.45 2.5" fill="#e4c213" fill-rule="evenodd" stroke="none"/>
    <path d="M8.3 5.8 L8.3 6.6 7.45 6.6 7.45 5.8 8.3 5.8" fill="#45607f" fill-rule="evenodd" stroke="none"/>
    <path d="M4.95 0.85 L4.95 1.65 4.15 1.65 4.15 0.85 4.95 0.85" fill="#cdb526" fill-rule="evenodd" stroke="none"/>
    <path d="M3.3 0.0 L4.15 0.0 4.15 0.85 3.3 0.85 3.3 0.0" fill="#001cbe" fill-opacity="0.98039216" fill-rule="evenodd" stroke="none"/>
    <path d="M2.5 0.0 L3.3 0.0 3.3 0.85 2.5 0.85 2.5 0.0" fill="#0021b8" fill-opacity="0.98039216" fill-rule="evenodd" stroke="none"/>
    <path d="M3.3 1.65 L3.3 2.5 2.5 2.5 2.5 1.65 3.3 1.65 M1.65 2.5 L2.5 2.5 2.5 3.3 2.5 4.15 1.65 4.15 1.65 3.3 1.65 2.5 M1.65 4.95 L2.5 4.95 2.5 5.8 3.3 5.8 3.3 6.6 4.15 6.6 4.15 7.45 3.3 7.45 3.3 6.6 2.5 6.6 2.5 5.8 1.65 5.8 1.65 4.95" fill="#ffff00" fill-rule="evenodd" stroke="none"/>
    <path d="M3.3 2.5 L3.3 1.65 4.15 1.65 4.15 2.5 3.3 2.5" fill="#14409e" fill-rule="evenodd" stroke="none"/>
    <path d="M4.15 1.65 L4.95 1.65 4.95 2.5 4.15 2.5 4.15 1.65" fill="#000fd5" fill-rule="evenodd" stroke="none"/>
    <path d="M4.95 2.5 L4.95 3.3 4.15 3.3 4.15 2.5 4.95 2.5" fill="#0037a7" fill-rule="evenodd" stroke="none"/>
    <path d="M4.15 0.85 L4.15 1.65 3.3 1.65 3.3 0.85 4.15 0.85" fill="#fff100" fill-rule="evenodd" stroke="none"/>
    <path d="M3.3 0.85 L3.3 1.65 2.5 1.65 2.5 0.85 3.3 0.85" fill="#4a6479" fill-rule="evenodd" stroke="none"/>
    <path d="M4.15 2.5 L4.15 3.3 3.3 3.3 3.3 2.5 4.15 2.5" fill="#0007de" fill-rule="evenodd" stroke="none"/>
    <path d="M1.65 0.0 L2.5 0.0 2.5 0.85 1.65 0.85 1.65 0.0" fill="#0035a4" fill-opacity="0.98039216" fill-rule="evenodd" stroke="none"/>
    <path d="M2.5 0.85 L2.5 1.65 1.65 1.65 1.65 0.85 2.5 0.85" fill="#0006e1" fill-rule="evenodd" stroke="none"/>
    <path d="M0.85 0.0 L1.65 0.0 1.65 0.85 0.85 0.85 0.85 0.0" fill="#0032a6" fill-opacity="0.9764706" fill-rule="evenodd" stroke="none"/>
    <path d="M0.0 0.85 L0.0 0.0 0.85 0.0 0.85 0.85 0.0 0.85" fill="#002c93" fill-opacity="0.8666667" fill-rule="evenodd" stroke="none"/>
    <path d="M0.0 1.65 L0.0 0.85 0.85 0.85 0.85 1.65 0.0 1.65" fill="#0031a2" fill-opacity="0.9372549" fill-rule="evenodd" stroke="none"/>
    <path d="M0.0 8.3 L0.0 1.65 0.85 1.65 0.85 2.5 0.85 3.3 0.85 4.15 0.85 4.95 0.85 5.8 0.85 6.6 0.85 7.45 0.85 8.3 0.0 8.3" fill="#00309f" fill-opacity="0.91764706" fill-rule="evenodd" stroke="none"/>
    <path d="M0.85 1.65 L1.65 1.65 1.65 2.5 0.85 2.5 0.85 1.65" fill="#001bc7" fill-rule="evenodd" stroke="none"/>
    <path d="M1.65 1.65 L2.5 1.65 2.5 2.5 1.65 2.5 1.65 1.65" fill="#868a4f" fill-rule="evenodd" stroke="none"/>
    <path d="M1.65 0.85 L1.65 1.65 0.85 1.65 0.85 0.85 1.65 0.85" fill="#0035ab" fill-rule="evenodd" stroke="none"/>
    <path d="M0.85 2.5 L1.65 2.5 1.65 3.3 0.85 3.3 0.85 2.5" fill="#002ab9" fill-rule="evenodd" stroke="none"/>
    <path d="M2.5 3.3 L3.3 3.3 3.3 4.15 2.5 4.15 2.5 3.3" fill="#000cdc" fill-rule="evenodd" stroke="none"/>
    <path d="M2.5 4.15 L2.5 4.95 1.65 4.95 1.65 4.15 2.5 4.15" fill="#fffa00" fill-rule="evenodd" stroke="none"/>
    <path d="M1.65 3.3 L1.65 4.15 0.85 4.15 0.85 3.3 1.65 3.3" fill="#3b5587" fill-rule="evenodd" stroke="none"/>
    <path d="M0.85 5.8 L0.85 4.95 1.65 4.95 1.65 5.8 0.85 5.8" fill="#0031af" fill-rule="evenodd" stroke="none"/>
    <path d="M2.5 4.95 L3.3 4.95 3.3 5.8 2.5 5.8 2.5 4.95" fill="#002db1" fill-rule="evenodd" stroke="none"/>
    <path d="M1.65 5.8 L2.5 5.8 2.5 6.6 1.65 6.6 1.65 5.8" fill="#d4b81b" fill-rule="evenodd" stroke="none"/>
    <path d="M0.85 4.15 L1.65 4.15 1.65 4.95 0.85 4.95 0.85 4.15" fill="#435b82" fill-rule="evenodd" stroke="none"/>
    <path d="M0.85 5.8 L1.65 5.8 1.65 6.6 0.85 6.6 0.85 5.8" fill="#0019ca" fill-rule="evenodd" stroke="none"/>
    <path d="M3.3 4.15 L3.3 4.95 2.5 4.95 2.5 4.15 3.3 4.15" fill="#000ed9" fill-rule="evenodd" stroke="none"/>
    <path d="M4.15 3.3 L4.95 3.3 4.95 4.15 4.15 4.15 4.15 3.3" fill="#002fb2" fill-rule="evenodd" stroke="none"/>
    <path d="M3.3 3.3 L4.15 3.3 4.15 4.15 3.3 4.15 3.3 3.3" fill="#0031ad" fill-rule="evenodd" stroke="none"/>
    <path d="M3.3 4.95 L4.15 4.95 4.15 5.8 3.3 5.8 3.3 4.95" fill="#0017cd" fill-rule="evenodd" stroke="none"/>
    <path d="M4.15 4.95 L4.95 4.95 4.95 5.8 4.15 5.8 4.15 4.95" fill="#0039a7" fill-rule="evenodd" stroke="none"/>
    <path d="M4.15 5.8 L4.95 5.8 4.95 6.6 4.15 6.6 4.15 5.8" fill="#000cd8" fill-rule="evenodd" stroke="none"/>
    <path d="M9.95 7.45 L9.1 7.45 9.1 6.6 9.95 6.6 9.95 7.45 M4.15 4.15 L4.15 4.95 3.3 4.95 3.3 4.15 4.15 4.15" fill="#0033ae" fill-rule="evenodd" stroke="none"/>
    <path d="M3.3 5.8 L4.15 5.8 4.15 6.6 3.3 6.6 3.3 5.8" fill="#0010d4" fill-rule="evenodd" stroke="none"/>
    <path d="M2.5 2.5 L3.3 2.5 3.3 3.3 2.5 3.3 2.5 2.5" fill="#244c91" fill-rule="evenodd" stroke="none"/>
    <path d="M4.15 7.45 L4.95 7.45 4.95 8.3 4.15 8.3 4.15 7.45" fill="#0536aa" fill-rule="evenodd" stroke="none"/>
    <path d="M4.15 6.6 L4.95 6.6 4.95 7.45 4.15 7.45 4.15 6.6" fill="#aba239" fill-rule="evenodd" stroke="none"/>
    <path d="M4.95 6.6 L5.8 6.6 5.8 7.45 4.95 7.45 4.95 6.6" fill="#6d7765" fill-rule="evenodd" stroke="none"/>
    <path d="M2.5 6.6 L3.3 6.6 3.3 7.45 2.5 7.45 2.5 6.6" fill="#a49b3e" fill-rule="evenodd" stroke="none"/>
    <path d="M6.6 8.3 L9.95 8.3 9.95 9.1 0.85 9.1 0.85 8.3 2.5 8.3 3.3 8.3 4.15 8.3 4.95 8.3 5.8 8.3 6.6 8.3" fill="#9e2b48" fill-rule="evenodd" stroke="none"/>
    <path d="M3.3 7.45 L4.15 7.45 4.15 8.3 3.3 8.3 3.3 7.45 M1.65 6.6 L1.65 7.45 0.85 7.45 0.85 6.6 1.65 6.6" fill="#0032ae" fill-rule="evenodd" stroke="none"/>
    <path d="M4.95 7.45 L5.8 7.45 5.8 8.3 4.95 8.3 4.95 7.45" fill="#0336aa" fill-rule="evenodd" stroke="none"/>
    <path d="M2.5 6.6 L2.5 7.45 1.65 7.45 1.65 6.6 2.5 6.6" fill="#0006e0" fill-rule="evenodd" stroke="none"/>
    <path d="M0.0 9.1 L0.0 8.3 0.85 8.3 0.85 9.1 0.0 9.1" fill="#922a4c" fill-opacity="0.99215686" fill-rule="evenodd" stroke="none"/>
    <path d="M0.0 9.95 L0.0 9.1 0.85 9.1 0.85 9.95 0.0 9.95" fill="#d71b17" fill-rule="evenodd" stroke="none"/>
    <path d="M9.1 7.45 L8.3 7.45 8.3 6.6 9.1 6.6 9.1 7.45" fill="#002ab7" fill-rule="evenodd" stroke="none"/>
    <path d="M8.3 7.45 L7.45 7.45 7.45 6.6 8.3 6.6 8.3 7.45" fill="#0030af" fill-rule="evenodd" stroke="none"/>
    <path d="M7.45 7.45 L6.6 7.45 6.6 6.6 7.45 6.6 7.45 7.45" fill="#0020bf" fill-rule="evenodd" stroke="none"/>
    <path d="M5.8 6.6 L6.6 6.6 6.6 7.45 5.8 7.45 5.8 6.6" fill="#33508d" fill-rule="evenodd" stroke="none"/>
    <path d="M6.6 7.45 L6.6 8.3 5.8 8.3 5.8 7.45 6.6 7.45" fill="#0033ad" fill-rule="evenodd" stroke="none"/>
    <path d="M4.95 5.8 L5.8 5.8 5.8 6.6 4.95 6.6 4.95 5.8" fill="#0020c1" fill-rule="evenodd" stroke="none"/>
  </g>
</svg>
