<?xml version="1.0" encoding="UTF-8" standalone="no"?>
<svg xmlns:xlink="http://www.w3.org/1999/xlink" height="14.9px" width="22.4px" xmlns="http://www.w3.org/2000/svg">
  <g transform="matrix(1.0, 0.0, 0.0, 1.0, 0.0, 0.0)">
    <path d="M21.55 0.85 L21.55 0.0 22.4 0.0 22.4 0.85 21.55 0.85" fill="#002d88" fill-opacity="0.827451" fill-rule="evenodd" stroke="none"/>
    <path d="M21.55 0.0 L21.55 0.85 20.75 0.85 20.75 0.0 21.55 0.0" fill="#0034a0" fill-opacity="0.9529412" fill-rule="evenodd" stroke="none"/>
    <path d="M21.55 0.85 L22.4 0.85 22.4 1.65 21.55 1.65 21.55 0.85" fill="#00329a" fill-opacity="0.91764706" fill-rule="evenodd" stroke="none"/>
    <path d="M20.75 0.0 L20.75 0.85 19.9 0.85 19.9 0.0 20.75 0.0" fill="#003196" fill-opacity="0.9019608" fill-rule="evenodd" stroke="none"/>
    <path d="M21.55 1.65 L22.4 1.65 22.4 5.8 21.55 5.8 21.55 1.65 M4.95 0.0 L19.9 0.0 19.9 0.85 5.8 0.85 4.95 0.85 4.95 0.0" fill="#003297" fill-opacity="0.9019608" fill-rule="evenodd" stroke="none"/>
    <path d="M20.75 0.85 L21.55 0.85 21.55 1.65 21.55 5.8 14.1 5.8 13.3 5.8 13.3 4.95 12.45 4.95 11.65 4.95 11.65 4.15 10.8 4.15 10.8 3.3 9.95 3.3 9.1 3.3 9.1 2.5 7.45 2.5 7.45 1.65 6.6 1.65 5.8 1.65 5.8 0.85 19.9 0.85 20.75 0.85" fill="#0037a7" fill-rule="evenodd" stroke="none"/>
    <path d="M21.55 5.8 L22.4 5.8 22.4 6.6 21.55 6.6 21.55 5.8" fill="#00339c" fill-opacity="0.9019608" fill-rule="evenodd" stroke="none"/>
    <path d="M21.55 6.6 L22.4 6.6 22.4 7.45 21.55 7.45 21.55 6.6" fill="#0037aa" fill-opacity="0.9019608" fill-rule="evenodd" stroke="none"/>
    <path d="M21.55 6.6 L21.55 7.45 14.95 7.45 14.95 6.6 21.55 6.6" fill="#003dbb" fill-rule="evenodd" stroke="none"/>
    <path d="M21.55 7.45 L22.4 7.45 22.4 8.3 21.55 8.3 21.55 7.45" fill="#c90c19" fill-opacity="0.9019608" fill-rule="evenodd" stroke="none"/>
    <path d="M22.4 8.3 L22.4 9.1 21.55 9.1 21.55 8.3 22.4 8.3" fill="#c70d1a" fill-opacity="0.9019608" fill-rule="evenodd" stroke="none"/>
    <path d="M22.4 9.1 L22.4 9.95 21.55 9.95 21.55 9.1 22.4 9.1" fill="#ba0f22" fill-opacity="0.9019608" fill-rule="evenodd" stroke="none"/>
    <path d="M21.55 8.3 L21.55 9.1 14.1 9.1 14.1 8.3 14.95 8.3 21.55 8.3" fill="#db0f1d" fill-rule="evenodd" stroke="none"/>
    <path d="M21.55 7.45 L21.55 8.3 14.95 8.3 14.95 7.45 21.55 7.45" fill="#dd0e1c" fill-rule="evenodd" stroke="none"/>
    <path d="M22.4 9.95 L22.4 13.25 21.55 13.25 21.55 9.95 22.4 9.95 M19.9 14.9 L4.95 14.9 4.95 14.05 5.8 14.05 6.6 14.05 19.9 14.05 19.9 14.9" fill="#bb0f21" fill-opacity="0.9019608" fill-rule="evenodd" stroke="none"/>
    <path d="M21.55 9.1 L21.55 9.95 13.3 9.95 13.3 9.1 14.1 9.1 21.55 9.1" fill="#cd1126" fill-rule="evenodd" stroke="none"/>
    <path d="M21.55 5.8 L21.55 6.6 14.95 6.6 14.1 6.6 14.1 5.8 21.55 5.8" fill="#0039ac" fill-rule="evenodd" stroke="none"/>
    <path d="M22.4 13.25 L22.4 14.05 21.55 14.05 21.55 13.25 22.4 13.25" fill="#be0f22" fill-opacity="0.91764706" fill-rule="evenodd" stroke="none"/>
    <path d="M21.55 14.9 L20.75 14.9 20.75 14.05 21.55 14.05 21.55 14.9" fill="#c51023" fill-opacity="0.9529412" fill-rule="evenodd" stroke="none"/>
    <path d="M20.75 14.9 L19.9 14.9 19.9 14.05 20.75 14.05 20.75 14.9" fill="#b90f21" fill-opacity="0.9019608" fill-rule="evenodd" stroke="none"/>
    <path d="M22.4 14.05 L22.4 14.9 21.55 14.9 21.55 14.05 22.4 14.05" fill="#a80d1e" fill-opacity="0.827451" fill-rule="evenodd" stroke="none"/>
    <path d="M21.55 13.25 L21.55 14.05 20.75 14.05 19.9 14.05 6.6 14.05 6.6 13.25 7.45 13.25 8.3 13.25 8.3 12.4 9.1 12.4 9.1 11.6 9.95 11.6 10.8 11.6 10.8 10.75 11.65 10.75 12.45 10.75 12.45 9.95 13.3 9.95 21.55 9.95 21.55 13.25" fill="#ce1125" fill-rule="evenodd" stroke="none"/>
    <path d="M9.95 3.3 L10.8 3.3 10.8 4.15 9.95 4.15 9.95 3.3" fill="#0039a8" fill-rule="evenodd" stroke="none"/>
    <path d="M10.8 5.8 L10.8 4.95 11.65 4.95 11.65 5.8 10.8 5.8" fill="#000390" fill-rule="evenodd" stroke="none"/>
    <path d="M10.8 4.95 L10.8 5.8 9.95 5.8 9.95 4.95 10.8 4.95" fill="#001497" fill-rule="evenodd" stroke="none"/>
    <path d="M11.65 4.95 L12.45 4.95 12.45 5.8 11.65 5.8 11.65 4.95 M6.6 1.65 L6.6 2.5 5.8 2.5 5.8 1.65 6.6 1.65" fill="#0033a6" fill-rule="evenodd" stroke="none"/>
    <path d="M12.45 4.95 L13.3 4.95 13.3 5.8 12.45 5.8 12.45 4.95" fill="#003ba8" fill-rule="evenodd" stroke="none"/>
    <path d="M11.65 5.8 L12.45 5.8 12.45 6.6 11.65 6.6 11.65 5.8" fill="#00018a" fill-rule="evenodd" stroke="none"/>
    <path d="M9.95 3.3 L9.95 4.15 9.1 4.15 9.1 3.3 9.95 3.3 M10.8 4.15 L11.65 4.15 11.65 4.95 10.8 4.95 10.8 4.15 M5.8 0.85 L5.8 1.65 4.95 1.65 4.95 0.85 5.8 0.85" fill="#003ca9" fill-rule="evenodd" stroke="none"/>
    <path d="M9.95 4.15 L10.8 4.15 10.8 4.95 9.95 4.95 9.95 4.15 M4.95 0.85 L4.95 1.65 4.15 1.65 4.15 0.85 4.95 0.85" fill="#0029a0" fill-rule="evenodd" stroke="none"/>
    <path d="M10.8 5.8 L11.65 5.8 11.65 6.6 10.8 6.6 10.8 5.8" fill="#6a92ea" fill-rule="evenodd" stroke="none"/>
    <path d="M13.3 5.8 L14.1 5.8 14.1 6.6 13.3 6.6 13.3 5.8" fill="#003dad" fill-rule="evenodd" stroke="none"/>
    <path d="M12.45 5.8 L13.3 5.8 13.3 6.6 12.45 6.6 12.45 5.8" fill="#000f95" fill-rule="evenodd" stroke="none"/>
    <path d="M14.1 6.6 L14.95 6.6 14.95 7.45 14.1 7.45 14.1 6.6" fill="#003bbb" fill-rule="evenodd" stroke="none"/>
    <path d="M13.3 6.6 L14.1 6.6 14.1 7.45 13.3 7.45 13.3 6.6" fill="#0027af" fill-rule="evenodd" stroke="none"/>
    <path d="M14.1 7.45 L14.95 7.45 14.95 8.3 14.1 8.3 14.1 7.45" fill="#db0d1b" fill-rule="evenodd" stroke="none"/>
    <path d="M13.3 6.6 L13.3 7.45 12.45 7.45 12.45 6.6 13.3 6.6" fill="#2e8de8" fill-rule="evenodd" stroke="none"/>
    <path d="M13.3 8.3 L13.3 9.1 12.45 9.1 11.65 9.1 11.65 8.3 12.45 8.3 13.3 8.3 M6.6 11.6 L7.45 11.6 7.45 12.4 6.6 12.4 6.6 11.6" fill="#c10000" fill-rule="evenodd" stroke="none"/>
    <path d="M13.3 9.1 L13.3 8.3 14.1 8.3 14.1 9.1 13.3 9.1" fill="#dd1020" fill-rule="evenodd" stroke="none"/>
    <path d="M12.45 7.45 L13.3 7.45 13.3 8.3 12.45 8.3 12.45 7.45" fill="#ff8277" fill-rule="evenodd" stroke="none"/>
    <path d="M13.3 7.45 L14.1 7.45 14.1 8.3 13.3 8.3 13.3 7.45" fill="#d20005" fill-rule="evenodd" stroke="none"/>
    <path d="M12.45 6.6 L12.45 7.45 12.45 8.3 11.65 8.3 11.65 7.45 11.65 6.6 12.45 6.6 M10.8 6.6 L9.95 6.6 9.95 7.45 9.95 8.3 10.8 8.3 10.8 9.1 9.95 9.1 9.1 9.1 9.1 9.95 8.3 9.95 8.3 10.75 7.45 10.75 6.6 10.75 6.6 11.6 5.8 11.6 4.95 11.6 4.95 12.4 4.15 12.4 3.3 12.4 3.3 13.25 2.5 13.25 2.5 14.05 1.65 14.05 1.65 13.25 1.65 12.4 0.85 12.4 0.85 8.3 1.65 8.3 1.65 9.1 1.65 9.95 2.5 9.95 3.3 9.95 3.3 10.75 4.15 10.75 4.95 10.75 4.95 9.95 5.8 9.95 6.6 9.95 6.6 9.1 6.6 8.3 7.45 8.3 7.45 7.45 7.45 6.6 6.6 6.6 6.6 5.8 6.6 4.95 5.8 4.95 5.8 5.8 4.95 5.8 4.95 4.95 4.95 4.15 4.15 4.15 3.3 4.15 3.3 4.95 2.5 4.95 1.65 4.95 1.65 5.8 1.65 6.6 0.85 6.6 0.85 2.5 1.65 2.5 1.65 1.65 2.5 1.65 3.3 1.65 3.3 2.5 4.15 2.5 4.95 2.5 4.95 3.3 5.8 3.3 6.6 3.3 6.6 4.15 7.45 4.15 7.45 4.95 8.3 4.95 9.1 4.95 9.1 5.8 9.95 5.8 10.8 5.8 10.8 6.6" fill="#ffffff" fill-rule="evenodd" stroke="none"/>
    <path d="M11.65 6.6 L11.65 7.45 10.8 7.45 10.8 6.6 11.65 6.6" fill="#ffffa5" fill-rule="evenodd" stroke="none"/>
    <path d="M10.8 6.6 L10.8 7.45 9.95 7.45 9.95 6.6 10.8 6.6" fill="#ffea66" fill-rule="evenodd" stroke="none"/>
    <path d="M10.8 9.1 L10.8 8.3 11.65 8.3 11.65 9.1 10.8 9.1" fill="#eca2c0" fill-rule="evenodd" stroke="none"/>
    <path d="M11.65 9.1 L12.45 9.1 12.45 9.95 11.65 9.95 11.65 9.1 M6.6 12.4 L6.6 13.25 5.8 13.25 5.8 12.4 6.6 12.4" fill="#cc051b" fill-rule="evenodd" stroke="none"/>
    <path d="M11.65 7.45 L11.65 8.3 10.8 8.3 10.8 7.45 11.65 7.45" fill="#ffffb1" fill-rule="evenodd" stroke="none"/>
    <path d="M10.8 9.1 L11.65 9.1 11.65 9.95 10.8 9.95 10.8 9.1 M7.45 10.75 L8.3 10.75 8.3 11.6 7.45 11.6 7.45 10.75" fill="#bf0000" fill-rule="evenodd" stroke="none"/>
    <path d="M9.95 7.45 L10.8 7.45 10.8 8.3 9.95 8.3 9.95 7.45" fill="#fde04a" fill-rule="evenodd" stroke="none"/>
    <path d="M12.45 9.95 L12.45 10.75 11.65 10.75 11.65 9.95 12.45 9.95 M6.6 13.25 L6.6 14.05 5.8 14.05 5.8 13.25 6.6 13.25" fill="#ce1326" fill-rule="evenodd" stroke="none"/>
    <path d="M11.65 10.75 L10.8 10.75 10.8 9.95 11.65 9.95 11.65 10.75" fill="#cf162a" fill-rule="evenodd" stroke="none"/>
    <path d="M10.8 9.95 L10.8 10.75 9.95 10.75 9.95 9.95 10.8 9.95" fill="#c90010" fill-rule="evenodd" stroke="none"/>
    <path d="M10.8 10.75 L10.8 11.6 9.95 11.6 9.95 10.75 10.8 10.75" fill="#cf1327" fill-rule="evenodd" stroke="none"/>
    <path d="M13.3 9.95 L12.45 9.95 12.45 9.1 13.3 9.1 13.3 9.95 M7.45 13.25 L6.6 13.25 6.6 12.4 7.45 12.4 7.45 13.25" fill="#cf152a" fill-rule="evenodd" stroke="none"/>
    <path d="M9.95 9.1 L10.8 9.1 10.8 9.95 9.95 9.95 9.95 9.1" fill="#cb0014" fill-rule="evenodd" stroke="none"/>
    <path d="M5.8 1.65 L5.8 2.5 4.95 2.5 4.95 1.65 5.8 1.65" fill="#00028f" fill-rule="evenodd" stroke="none"/>
    <path d="M6.6 2.5 L6.6 1.65 7.45 1.65 7.45 2.5 6.6 2.5" fill="#003ba9" fill-rule="evenodd" stroke="none"/>
    <path d="M6.6 2.5 L7.45 2.5 7.45 3.3 6.6 3.3 6.6 2.5" fill="#000f96" fill-rule="evenodd" stroke="none"/>
    <path d="M6.6 3.3 L5.8 3.3 5.8 2.5 6.6 2.5 6.6 3.3" fill="#000290" fill-rule="evenodd" stroke="none"/>
    <path d="M7.45 4.15 L7.45 3.3 8.3 3.3 8.3 4.15 7.45 4.15" fill="#00008b" fill-rule="evenodd" stroke="none"/>
    <path d="M7.45 4.15 L6.6 4.15 6.6 3.3 7.45 3.3 7.45 4.15" fill="#2e62b9" fill-rule="evenodd" stroke="none"/>
    <path d="M5.8 5.8 L5.8 4.95 6.6 4.95 6.6 5.8 5.8 5.8" fill="#fcd525" fill-rule="evenodd" stroke="none"/>
    <path d="M6.6 5.8 L6.6 6.6 5.8 6.6 5.8 5.8 6.6 5.8" fill="#ffea96" fill-rule="evenodd" stroke="none"/>
    <path d="M8.3 4.95 L7.45 4.95 7.45 4.15 8.3 4.15 8.3 4.95" fill="#ecf2f9" fill-rule="evenodd" stroke="none"/>
    <path d="M8.3 4.15 L8.3 3.3 9.1 3.3 9.1 4.15 8.3 4.15" fill="#001d9b" fill-rule="evenodd" stroke="none"/>
    <path d="M9.1 4.15 L9.95 4.15 9.95 4.95 9.1 4.95 9.1 4.15 M4.15 0.85 L4.15 1.65 3.3 1.65 3.3 0.85 4.15 0.85" fill="#00008c" fill-rule="evenodd" stroke="none"/>
    <path d="M9.95 5.8 L9.1 5.8 9.1 4.95 9.95 4.95 9.95 5.8" fill="#aac1e4" fill-rule="evenodd" stroke="none"/>
    <path d="M7.45 3.3 L7.45 2.5 9.1 2.5 9.1 3.3 8.3 3.3 7.45 3.3" fill="#003aa8" fill-rule="evenodd" stroke="none"/>
    <path d="M9.1 4.95 L8.3 4.95 8.3 4.15 9.1 4.15 9.1 4.95" fill="#0036a8" fill-rule="evenodd" stroke="none"/>
    <path d="M5.8 3.3 L4.95 3.3 4.95 2.5 5.8 2.5 5.8 3.3" fill="#7297d1" fill-rule="evenodd" stroke="none"/>
    <path d="M4.15 0.0 L4.95 0.0 4.95 0.85 4.15 0.85 4.15 0.0" fill="#003398" fill-opacity="0.9019608" fill-rule="evenodd" stroke="none"/>
    <path d="M3.3 0.0 L4.15 0.0 4.15 0.85 3.3 0.85 3.3 0.0" fill="#003699" fill-opacity="0.9019608" fill-rule="evenodd" stroke="none"/>
    <path d="M2.5 0.0 L3.3 0.0 3.3 0.85 2.5 0.85 2.5 0.0" fill="#001b8d" fill-opacity="0.9019608" fill-rule="evenodd" stroke="none"/>
    <path d="M4.15 2.5 L3.3 2.5 3.3 1.65 4.15 1.65 4.15 2.5" fill="#afc4e6" fill-rule="evenodd" stroke="none"/>
    <path d="M4.95 2.5 L4.15 2.5 4.15 1.65 4.95 1.65 4.95 2.5" fill="#00199a" fill-rule="evenodd" stroke="none"/>
    <path d="M3.3 1.65 L2.5 1.65 2.5 0.85 3.3 0.85 3.3 1.65" fill="#003ca8" fill-rule="evenodd" stroke="none"/>
    <path d="M1.65 0.0 L2.5 0.0 2.5 0.85 1.65 0.85 1.65 0.0" fill="#00007a" fill-opacity="0.9019608" fill-rule="evenodd" stroke="none"/>
    <path d="M2.5 1.65 L1.65 1.65 1.65 0.85 2.5 0.85 2.5 1.65" fill="#f1f7ff" fill-rule="evenodd" stroke="none"/>
    <path d="M0.85 0.0 L1.65 0.0 1.65 0.85 0.85 0.85 0.85 0.0" fill="#1951cd" fill-opacity="0.9529412" fill-rule="evenodd" stroke="none"/>
    <path d="M0.85 14.9 L0.0 14.9 0.0 14.05 0.85 14.05 0.85 14.9 M0.0 0.85 L0.0 0.0 0.85 0.0 0.85 0.85 0.0 0.85" fill="#d1d1d1" fill-opacity="0.827451" fill-rule="evenodd" stroke="none"/>
    <path d="M0.0 1.65 L0.0 0.85 0.85 0.85 0.85 1.65 0.0 1.65" fill="#ece7a0" fill-opacity="0.91764706" fill-rule="evenodd" stroke="none"/>
    <path d="M0.0 2.5 L0.0 1.65 0.85 1.65 0.85 2.5 0.0 2.5" fill="#e7d078" fill-opacity="0.9019608" fill-rule="evenodd" stroke="none"/>
    <path d="M0.0 12.4 L0.0 2.5 0.85 2.5 0.85 6.6 0.85 7.45 0.85 8.3 0.85 12.4 0.0 12.4" fill="#e8e8e8" fill-opacity="0.9019608" fill-rule="evenodd" stroke="none"/>
    <path d="M1.65 1.65 L1.65 2.5 0.85 2.5 0.85 1.65 1.65 1.65" fill="#fdd93e" fill-rule="evenodd" stroke="none"/>
    <path d="M0.85 1.65 L0.85 0.85 1.65 0.85 1.65 1.65 0.85 1.65" fill="#ffff88" fill-rule="evenodd" stroke="none"/>
    <path d="M1.65 5.8 L1.65 4.95 2.5 4.95 2.5 5.8 1.65 5.8" fill="#feda40" fill-rule="evenodd" stroke="none"/>
    <path d="M2.5 4.95 L3.3 4.95 3.3 5.8 2.5 5.8 2.5 4.95" fill="#fef4c5" fill-rule="evenodd" stroke="none"/>
    <path d="M1.65 6.6 L1.65 5.8 2.5 5.8 2.5 6.6 1.65 6.6" fill="#fef8de" fill-rule="evenodd" stroke="none"/>
    <path d="M4.15 4.15 L4.95 4.15 4.95 4.95 4.15 4.95 4.15 4.15" fill="#fee36e" fill-rule="evenodd" stroke="none"/>
    <path d="M3.3 5.8 L3.3 4.95 4.15 4.95 4.15 5.8 3.3 5.8" fill="#fff1b0" fill-rule="evenodd" stroke="none"/>
    <path d="M4.95 4.95 L4.95 5.8 4.15 5.8 4.15 4.95 4.95 4.95" fill="#fddf5e" fill-rule="evenodd" stroke="none"/>
    <path d="M4.15 5.8 L4.95 5.8 4.95 6.6 4.15 6.6 4.15 5.8" fill="#fcd118" fill-rule="evenodd" stroke="none"/>
    <path d="M3.3 4.95 L3.3 4.15 4.15 4.15 4.15 4.95 3.3 4.95" fill="#feefaf" fill-rule="evenodd" stroke="none"/>
    <path d="M3.3 5.8 L4.15 5.8 4.15 6.6 3.3 6.6 3.3 5.8" fill="#fbd31e" fill-rule="evenodd" stroke="none"/>
    <path d="M2.5 5.8 L3.3 5.8 3.3 6.6 2.5 6.6 2.5 5.8" fill="#fdd62a" fill-rule="evenodd" stroke="none"/>
    <path d="M4.95 6.6 L4.95 7.45 4.15 7.45 4.15 6.6 4.95 6.6" fill="#fccc02" fill-rule="evenodd" stroke="none"/>
    <path d="M3.3 6.6 L4.15 6.6 4.15 7.45 4.15 8.3 3.3 8.3 3.3 7.45 3.3 6.6" fill="#fccb00" fill-rule="evenodd" stroke="none"/>
    <path d="M4.95 6.6 L5.8 6.6 5.8 7.45 4.95 7.45 4.95 6.6" fill="#fccd01" fill-rule="evenodd" stroke="none"/>
    <path d="M6.6 9.1 L6.6 9.95 5.8 9.95 5.8 9.1 6.6 9.1 M4.15 7.45 L4.95 7.45 4.95 8.3 4.15 8.3 4.15 7.45" fill="#fccf09" fill-rule="evenodd" stroke="none"/>
    <path d="M3.3 6.6 L3.3 7.45 2.5 7.45 2.5 6.6 3.3 6.6" fill="#fdd52c" fill-rule="evenodd" stroke="none"/>
    <path d="M3.3 8.3 L3.3 9.1 2.5 9.1 2.5 8.3 3.3 8.3" fill="#fdd52b" fill-rule="evenodd" stroke="none"/>
    <path d="M3.3 8.3 L4.15 8.3 4.15 9.1 3.3 9.1 3.3 8.3" fill="#fbd00a" fill-rule="evenodd" stroke="none"/>
    <path d="M4.15 9.1 L4.15 8.3 4.95 8.3 4.95 9.1 4.15 9.1" fill="#fccd0a" fill-rule="evenodd" stroke="none"/>
    <path d="M4.95 9.1 L4.95 8.3 5.8 8.3 5.8 9.1 4.95 9.1" fill="#fbd319" fill-rule="evenodd" stroke="none"/>
    <path d="M4.15 9.1 L4.95 9.1 4.95 9.95 4.15 9.95 4.15 9.1" fill="#fde265" fill-rule="evenodd" stroke="none"/>
    <path d="M3.3 9.1 L4.15 9.1 4.15 9.95 3.3 9.95 3.3 9.1" fill="#fff0b7" fill-rule="evenodd" stroke="none"/>
    <path d="M2.5 7.45 L3.3 7.45 3.3 8.3 2.5 8.3 2.5 7.45" fill="#fbd425" fill-rule="evenodd" stroke="none"/>
    <path d="M4.95 7.45 L5.8 7.45 5.8 8.3 4.95 8.3 4.95 7.45" fill="#fcce05" fill-rule="evenodd" stroke="none"/>
    <path d="M2.5 6.6 L2.5 7.45 1.65 7.45 1.65 6.6 2.5 6.6" fill="#ffec9c" fill-rule="evenodd" stroke="none"/>
    <path d="M0.85 6.6 L1.65 6.6 1.65 7.45 0.85 7.45 0.85 6.6" fill="#feeca2" fill-rule="evenodd" stroke="none"/>
    <path d="M1.65 7.45 L2.5 7.45 2.5 8.3 1.65 8.3 1.65 7.45" fill="#fde168" fill-rule="evenodd" stroke="none"/>
    <path d="M1.65 9.1 L1.65 8.3 2.5 8.3 2.5 9.1 1.65 9.1" fill="#fffefa" fill-rule="evenodd" stroke="none"/>
    <path d="M2.5 9.95 L1.65 9.95 1.65 9.1 2.5 9.1 2.5 9.95" fill="#fcd731" fill-rule="evenodd" stroke="none"/>
    <path d="M1.65 8.3 L0.85 8.3 0.85 7.45 1.65 7.45 1.65 8.3" fill="#fee988" fill-rule="evenodd" stroke="none"/>
    <path d="M4.15 10.75 L3.3 10.75 3.3 9.95 4.15 9.95 4.15 10.75" fill="#feeda3" fill-rule="evenodd" stroke="none"/>
    <path d="M4.95 9.95 L4.95 10.75 4.15 10.75 4.15 9.95 4.95 9.95" fill="#fedf5b" fill-rule="evenodd" stroke="none"/>
    <path d="M3.3 9.95 L2.5 9.95 2.5 9.1 3.3 9.1 3.3 9.95" fill="#feefad" fill-rule="evenodd" stroke="none"/>
    <path d="M5.8 9.95 L4.95 9.95 4.95 9.1 5.8 9.1 5.8 9.95" fill="#fffcf3" fill-rule="evenodd" stroke="none"/>
    <path d="M9.1 9.95 L9.1 9.1 9.95 9.1 9.95 9.95 9.1 9.95" fill="#f6dadc" fill-rule="evenodd" stroke="none"/>
    <path d="M6.6 6.6 L7.45 6.6 7.45 7.45 6.6 7.45 6.6 6.6" fill="#fee888" fill-rule="evenodd" stroke="none"/>
    <path d="M7.45 7.45 L7.45 8.3 6.6 8.3 6.6 7.45 7.45 7.45" fill="#fee05f" fill-rule="evenodd" stroke="none"/>
    <path d="M5.8 7.45 L5.8 6.6 6.6 6.6 6.6 7.45 5.8 7.45" fill="#fdeea3" fill-rule="evenodd" stroke="none"/>
    <path d="M6.6 8.3 L6.6 9.1 5.8 9.1 5.8 8.3 6.6 8.3" fill="#fff4c4" fill-rule="evenodd" stroke="none"/>
    <path d="M5.8 8.3 L5.8 7.45 6.6 7.45 6.6 8.3 5.8 8.3" fill="#fde57b" fill-rule="evenodd" stroke="none"/>
    <path d="M6.6 11.6 L6.6 10.75 7.45 10.75 7.45 11.6 6.6 11.6" fill="#e06975" fill-rule="evenodd" stroke="none"/>
    <path d="M5.8 11.6 L6.6 11.6 6.6 12.4 5.8 12.4 5.8 11.6" fill="#c40000" fill-rule="evenodd" stroke="none"/>
    <path d="M9.95 10.75 L9.1 10.75 9.1 9.95 9.95 9.95 9.95 10.75 M5.8 12.4 L5.8 13.25 4.95 13.25 4.95 12.4 5.8 12.4" fill="#be0000" fill-rule="evenodd" stroke="none"/>
    <path d="M8.3 10.75 L8.3 9.95 9.1 9.95 9.1 10.75 8.3 10.75" fill="#d32c3e" fill-rule="evenodd" stroke="none"/>
    <path d="M9.95 11.6 L9.1 11.6 9.1 10.75 9.95 10.75 9.95 11.6" fill="#cf1428" fill-rule="evenodd" stroke="none"/>
    <path d="M9.1 10.75 L9.1 11.6 8.3 11.6 8.3 10.75 9.1 10.75" fill="#c40002" fill-rule="evenodd" stroke="none"/>
    <path d="M9.1 11.6 L9.1 12.4 8.3 12.4 8.3 11.6 9.1 11.6" fill="#cf1429" fill-rule="evenodd" stroke="none"/>
    <path d="M8.3 11.6 L8.3 12.4 7.45 12.4 7.45 11.6 8.3 11.6" fill="#cd0f23" fill-rule="evenodd" stroke="none"/>
    <path d="M4.95 5.8 L5.8 5.8 5.8 6.6 4.95 6.6 4.95 5.8" fill="#fdd428" fill-rule="evenodd" stroke="none"/>
    <path d="M4.95 12.4 L4.95 11.6 5.8 11.6 5.8 12.4 4.95 12.4" fill="#eea8b0" fill-rule="evenodd" stroke="none"/>
    <path d="M8.3 12.4 L8.3 13.25 7.45 13.25 7.45 12.4 8.3 12.4" fill="#ce1226" fill-rule="evenodd" stroke="none"/>
    <path d="M5.8 13.25 L5.8 14.05 4.95 14.05 4.95 13.25 5.8 13.25" fill="#cf162b" fill-rule="evenodd" stroke="none"/>
    <path d="M4.15 12.4 L4.95 12.4 4.95 13.25 4.15 13.25 4.15 12.4" fill="#cb041a" fill-rule="evenodd" stroke="none"/>
    <path d="M4.95 13.25 L4.95 14.05 4.15 14.05 4.15 13.25 4.95 13.25" fill="#c9000d" fill-rule="evenodd" stroke="none"/>
    <path d="M3.3 13.25 L3.3 12.4 4.15 12.4 4.15 13.25 3.3 13.25" fill="#f8dee0" fill-rule="evenodd" stroke="none"/>
    <path d="M4.95 14.9 L3.3 14.9 3.3 14.05 4.15 14.05 4.95 14.05 4.95 14.9" fill="#bc1124" fill-opacity="0.9019608" fill-rule="evenodd" stroke="none"/>
    <path d="M3.3 14.9 L2.5 14.9 2.5 14.05 3.3 14.05 3.3 14.9" fill="#b20000" fill-opacity="0.9019608" fill-rule="evenodd" stroke="none"/>
    <path d="M4.15 13.25 L4.15 14.05 3.3 14.05 3.3 13.25 4.15 13.25" fill="#bd0000" fill-rule="evenodd" stroke="none"/>
    <path d="M2.5 14.05 L2.5 13.25 3.3 13.25 3.3 14.05 2.5 14.05" fill="#d73748" fill-rule="evenodd" stroke="none"/>
    <path d="M0.85 12.4 L1.65 12.4 1.65 13.25 0.85 13.25 0.85 12.4" fill="#fbd123" fill-rule="evenodd" stroke="none"/>
    <path d="M0.0 13.25 L0.0 12.4 0.85 12.4 0.85 13.25 0.0 13.25" fill="#e7cc65" fill-opacity="0.9019608" fill-rule="evenodd" stroke="none"/>
    <path d="M0.0 14.05 L0.0 13.25 0.85 13.25 0.85 14.05 0.0 14.05" fill="#ece7b8" fill-opacity="0.91764706" fill-rule="evenodd" stroke="none"/>
    <path d="M1.65 14.9 L0.85 14.9 0.85 14.05 1.65 14.05 1.65 14.9" fill="#d24e78" fill-opacity="0.9529412" fill-rule="evenodd" stroke="none"/>
    <path d="M2.5 14.9 L1.65 14.9 1.65 14.05 2.5 14.05 2.5 14.9" fill="#ab0000" fill-opacity="0.9019608" fill-rule="evenodd" stroke="none"/>
    <path d="M1.65 13.25 L1.65 14.05 0.85 14.05 0.85 13.25 1.65 13.25" fill="#ffffd2" fill-rule="evenodd" stroke="none"/>
  </g>
</svg>
