<?xml version="1.0" encoding="UTF-8" standalone="no"?>
<svg xmlns:xlink="http://www.w3.org/1999/xlink" height="14.9px" width="22.4px" xmlns="http://www.w3.org/2000/svg">
  <g transform="matrix(1.0, 0.0, 0.0, 1.0, 0.0, 0.0)">
    <path d="M21.55 0.0 L22.4 0.0 22.4 0.85 21.55 0.85 21.55 0.0 M22.4 14.05 L22.4 14.9 21.55 14.9 21.55 14.05 22.4 14.05" fill="#d10000" fill-opacity="0.827451" fill-rule="evenodd" stroke="none"/>
    <path d="M22.4 0.85 L22.4 1.65 21.55 1.65 21.55 0.85 22.4 0.85 M22.4 13.25 L22.4 14.05 21.55 14.05 21.55 13.25 22.4 13.25" fill="#f50000" fill-opacity="0.9529412" fill-rule="evenodd" stroke="none"/>
    <path d="M21.55 14.9 L20.75 14.9 20.75 14.05 21.55 14.05 21.55 14.9 M20.75 0.0 L21.55 0.0 21.55 0.85 20.75 0.85 20.75 0.0" fill="#ec0000" fill-opacity="0.91764706" fill-rule="evenodd" stroke="none"/>
    <path d="M22.4 2.5 L22.4 12.4 21.55 12.4 21.55 2.5 22.4 2.5 M20.75 14.9 L9.95 14.9 9.95 14.05 10.8 14.05 11.65 14.05 20.75 14.05 20.75 14.9 M9.95 0.0 L20.75 0.0 20.75 0.85 11.65 0.85 10.8 0.85 9.95 0.85 9.95 0.0" fill="#e80000" fill-opacity="0.9019608" fill-rule="evenodd" stroke="none"/>
    <path d="M22.4 1.65 L22.4 2.5 21.55 2.5 21.55 1.65 22.4 1.65 M22.4 12.4 L22.4 13.25 21.55 13.25 21.55 12.4 22.4 12.4" fill="#e60000" fill-opacity="0.9019608" fill-rule="evenodd" stroke="none"/>
    <path d="M21.55 1.65 L21.55 2.5 21.55 12.4 21.55 13.25 21.55 14.05 20.75 14.05 11.65 14.05 11.65 13.25 12.45 13.25 13.3 13.25 13.3 12.4 14.1 12.4 14.1 11.6 14.95 11.6 14.95 10.75 15.75 10.75 15.75 9.95 15.75 9.1 15.75 8.3 15.75 7.45 15.75 6.6 15.75 5.8 15.75 4.95 14.95 4.95 14.95 4.15 14.95 3.3 14.1 3.3 14.1 2.5 13.3 2.5 12.45 2.5 12.45 1.65 11.65 1.65 11.65 0.85 20.75 0.85 21.55 0.85 21.55 1.65 M13.3 5.8 L14.1 5.8 14.1 6.6 13.3 6.6 13.3 5.8 M10.8 10.75 L10.8 11.6 9.95 11.6 9.1 11.6 8.3 11.6 8.3 10.75 9.1 10.75 9.95 10.75 10.8 10.75" fill="#fe0000" fill-rule="evenodd" stroke="none"/>
    <path d="M14.95 4.95 L15.75 4.95 15.75 5.8 14.95 5.8 14.95 4.95" fill="#e94400" fill-rule="evenodd" stroke="none"/>
    <path d="M13.3 2.5 L14.1 2.5 14.1 3.3 13.3 3.3 13.3 2.5" fill="#fb0f00" fill-rule="evenodd" stroke="none"/>
    <path d="M10.8 1.65 L10.8 2.5 9.95 2.5 9.95 1.65 10.8 1.65" fill="#dd9200" fill-rule="evenodd" stroke="none"/>
    <path d="M10.8 2.5 L10.8 1.65 11.65 1.65 11.65 2.5 10.8 2.5" fill="#cdec00" fill-rule="evenodd" stroke="none"/>
    <path d="M11.65 1.65 L12.45 1.65 12.45 2.5 11.65 2.5 11.65 1.65" fill="#dfbf00" fill-rule="evenodd" stroke="none"/>
    <path d="M11.65 2.5 L12.45 2.5 12.45 3.3 11.65 3.3 11.65 2.5" fill="#ec5f15" fill-rule="evenodd" stroke="none"/>
    <path d="M11.65 0.85 L11.65 1.65 10.8 1.65 10.8 0.85 11.65 0.85" fill="#fc0000" fill-rule="evenodd" stroke="none"/>
    <path d="M10.8 1.65 L9.95 1.65 9.95 0.85 10.8 0.85 10.8 1.65" fill="#f83d00" fill-rule="evenodd" stroke="none"/>
    <path d="M10.8 2.5 L11.65 2.5 11.65 3.3 10.8 3.3 10.8 2.5" fill="#f10014" fill-rule="evenodd" stroke="none"/>
    <path d="M11.65 3.3 L12.45 3.3 12.45 4.15 11.65 4.15 11.65 3.3" fill="#a04026" fill-rule="evenodd" stroke="none"/>
    <path d="M11.65 3.3 L11.65 4.15 10.8 4.15 10.8 3.3 11.65 3.3" fill="#fd0e20" fill-rule="evenodd" stroke="none"/>
    <path d="M12.45 3.3 L13.3 3.3 13.3 4.15 12.45 4.15 12.45 3.3" fill="#b5845f" fill-rule="evenodd" stroke="none"/>
    <path d="M11.65 4.15 L12.45 4.15 12.45 4.95 11.65 4.95 11.65 4.15" fill="#a1ab00" fill-rule="evenodd" stroke="none"/>
    <path d="M9.95 3.3 L10.8 3.3 10.8 4.15 9.95 4.15 9.95 3.3" fill="#fb1220" fill-rule="evenodd" stroke="none"/>
    <path d="M11.65 5.8 L10.8 5.8 10.8 4.95 11.65 4.95 11.65 5.8" fill="#f3ffff" fill-rule="evenodd" stroke="none"/>
    <path d="M10.8 4.95 L10.8 5.8 11.65 5.8 11.65 6.6 10.8 6.6 9.95 6.6 9.95 5.8 9.95 4.95 10.8 4.95 M10.8 8.3 L11.65 8.3 11.65 9.1 10.8 9.1 10.8 9.95 9.95 9.95 9.95 9.1 9.95 8.3 10.8 8.3 M7.45 8.3 L8.3 8.3 8.3 9.1 7.45 9.1 7.45 8.3" fill="#ffffff" fill-rule="evenodd" stroke="none"/>
    <path d="M10.8 4.15 L11.65 4.15 11.65 4.95 12.45 4.95 12.45 5.8 11.65 5.8 11.65 4.95 10.8 4.95 9.95 4.95 9.95 4.15 10.8 4.15 M11.65 8.3 L12.45 8.3 12.45 9.1 11.65 9.1 11.65 8.3 M7.45 4.15 L8.3 4.15 8.3 4.95 7.45 4.95 7.45 4.15 M6.6 4.95 L6.6 5.8 5.8 5.8 5.8 4.95 6.6 4.95 M5.8 8.3 L6.6 8.3 6.6 9.1 5.8 9.1 5.8 8.3" fill="#ff0000" fill-rule="evenodd" stroke="none"/>
    <path d="M12.45 5.8 L12.45 4.95 13.3 4.95 13.3 5.8 12.45 5.8" fill="#e94040" fill-rule="evenodd" stroke="none"/>
    <path d="M11.65 6.6 L11.65 5.8 12.45 5.8 12.45 6.6 11.65 6.6" fill="#f70000" fill-rule="evenodd" stroke="none"/>
    <path d="M12.45 4.95 L12.45 4.15 13.3 4.15 13.3 4.95 12.45 4.95" fill="#bf6e3c" fill-rule="evenodd" stroke="none"/>
    <path d="M14.1 3.3 L14.95 3.3 14.95 4.15 14.1 4.15 14.1 3.3" fill="#f50000" fill-rule="evenodd" stroke="none"/>
    <path d="M13.3 4.15 L13.3 3.3 14.1 3.3 14.1 4.15 13.3 4.15" fill="#cfff00" fill-rule="evenodd" stroke="none"/>
    <path d="M14.95 4.15 L14.95 4.95 14.1 4.95 14.1 4.15 14.95 4.15" fill="#aefa00" fill-rule="evenodd" stroke="none"/>
    <path d="M13.3 5.8 L13.3 4.95 14.1 4.95 14.1 5.8 13.3 5.8" fill="#ea3600" fill-rule="evenodd" stroke="none"/>
    <path d="M14.1 4.95 L14.95 4.95 14.95 5.8 14.1 5.8 14.1 4.95" fill="#dbc500" fill-rule="evenodd" stroke="none"/>
    <path d="M14.1 5.8 L14.95 5.8 14.95 6.6 14.1 6.6 14.1 5.8" fill="#f22000" fill-rule="evenodd" stroke="none"/>
    <path d="M13.3 4.95 L13.3 4.15 14.1 4.15 14.1 4.95 13.3 4.95" fill="#c3ea00" fill-rule="evenodd" stroke="none"/>
    <path d="M12.45 2.5 L13.3 2.5 13.3 3.3 12.45 3.3 12.45 2.5" fill="#d3ff08" fill-rule="evenodd" stroke="none"/>
    <path d="M9.95 2.5 L10.8 2.5 10.8 3.3 9.95 3.3 9.95 2.5" fill="#ff0016" fill-rule="evenodd" stroke="none"/>
    <path d="M13.3 5.8 L13.3 6.6 12.45 6.6 12.45 5.8 13.3 5.8" fill="#e13b40" fill-rule="evenodd" stroke="none"/>
    <path d="M14.1 7.45 L14.1 6.6 14.95 6.6 14.95 7.45 14.1 7.45" fill="#cfc300" fill-rule="evenodd" stroke="none"/>
    <path d="M13.3 6.6 L14.1 6.6 14.1 7.45 13.3 7.45 13.3 6.6" fill="#e69b00" fill-rule="evenodd" stroke="none"/>
    <path d="M15.75 6.6 L15.75 7.45 14.95 7.45 14.95 6.6 15.75 6.6" fill="#c7ba00" fill-rule="evenodd" stroke="none"/>
    <path d="M14.1 7.45 L14.95 7.45 14.95 8.3 14.1 8.3 14.1 7.45" fill="#d0cd00" fill-rule="evenodd" stroke="none"/>
    <path d="M13.3 6.6 L13.3 7.45 12.45 7.45 12.45 6.6 13.3 6.6" fill="#b08e3f" fill-rule="evenodd" stroke="none"/>
    <path d="M13.3 8.3 L13.3 9.1 12.45 9.1 12.45 8.3 13.3 8.3" fill="#d45d3a" fill-rule="evenodd" stroke="none"/>
    <path d="M13.3 9.1 L13.3 8.3 14.1 8.3 14.1 9.1 13.3 9.1" fill="#cd6b00" fill-rule="evenodd" stroke="none"/>
    <path d="M14.1 8.3 L14.95 8.3 14.95 9.1 14.1 9.1 14.1 8.3" fill="#f32800" fill-rule="evenodd" stroke="none"/>
    <path d="M15.75 8.3 L15.75 9.1 14.95 9.1 14.95 8.3 15.75 8.3" fill="#dbc900" fill-rule="evenodd" stroke="none"/>
    <path d="M14.1 9.1 L14.95 9.1 14.95 9.95 14.1 9.95 14.1 9.1" fill="#cf8400" fill-rule="evenodd" stroke="none"/>
    <path d="M13.3 9.1 L14.1 9.1 14.1 9.95 13.3 9.95 13.3 9.1" fill="#ffed00" fill-rule="evenodd" stroke="none"/>
    <path d="M13.3 7.45 L14.1 7.45 14.1 8.3 13.3 8.3 13.3 7.45" fill="#e44c00" fill-rule="evenodd" stroke="none"/>
    <path d="M13.3 7.45 L13.3 8.3 12.45 8.3 12.45 7.45 13.3 7.45" fill="#dc3a40" fill-rule="evenodd" stroke="none"/>
    <path d="M15.75 7.45 L15.75 8.3 14.95 8.3 14.95 7.45 15.75 7.45" fill="#bac700" fill-rule="evenodd" stroke="none"/>
    <path d="M12.45 6.6 L12.45 7.45 11.65 7.45 11.65 6.6 12.45 6.6" fill="#87b000" fill-rule="evenodd" stroke="none"/>
    <path d="M12.45 7.45 L12.45 8.3 11.65 8.3 11.65 7.45 12.45 7.45" fill="#ff2d00" fill-rule="evenodd" stroke="none"/>
    <path d="M10.8 6.6 L11.65 6.6 11.65 7.45 10.8 7.45 10.8 6.6" fill="#bc97da" fill-rule="evenodd" stroke="none"/>
    <path d="M9.95 6.6 L10.8 6.6 10.8 7.45 9.95 7.45 9.95 6.6" fill="#acb7ef" fill-rule="evenodd" stroke="none"/>
    <path d="M11.65 9.1 L12.45 9.1 12.45 9.95 11.65 9.95 11.65 9.1" fill="#d90000" fill-rule="evenodd" stroke="none"/>
    <path d="M11.65 7.45 L11.65 8.3 10.8 8.3 10.8 7.45 11.65 7.45" fill="#6e66c2" fill-rule="evenodd" stroke="none"/>
    <path d="M10.8 7.45 L10.8 8.3 9.95 8.3 9.95 7.45 10.8 7.45" fill="#3f52cc" fill-rule="evenodd" stroke="none"/>
    <path d="M10.8 9.95 L10.8 9.1 11.65 9.1 11.65 9.95 10.8 9.95" fill="#c17e39" fill-rule="evenodd" stroke="none"/>
    <path d="M11.65 9.95 L12.45 9.95 12.45 10.75 11.65 10.75 11.65 9.95" fill="#95673b" fill-rule="evenodd" stroke="none"/>
    <path d="M11.65 9.95 L11.65 10.75 10.8 10.75 10.8 9.95 11.65 9.95" fill="#ac5a00" fill-rule="evenodd" stroke="none"/>
    <path d="M12.45 9.95 L13.3 9.95 13.3 10.75 12.45 10.75 12.45 9.95" fill="#ecff13" fill-rule="evenodd" stroke="none"/>
    <path d="M11.65 10.75 L12.45 10.75 12.45 11.6 11.65 11.6 11.65 10.75" fill="#ccdb23" fill-rule="evenodd" stroke="none"/>
    <path d="M10.8 9.95 L10.8 10.75 9.95 10.75 9.95 9.95 10.8 9.95" fill="#ff081a" fill-rule="evenodd" stroke="none"/>
    <path d="M11.65 11.6 L12.45 11.6 12.45 12.4 11.65 12.4 11.65 11.6" fill="#fb1500" fill-rule="evenodd" stroke="none"/>
    <path d="M11.65 10.75 L11.65 11.6 10.8 11.6 10.8 10.75 11.65 10.75" fill="#e45a40" fill-rule="evenodd" stroke="none"/>
    <path d="M10.8 11.6 L11.65 11.6 11.65 12.4 10.8 12.4 10.8 11.6" fill="#ea170a" fill-rule="evenodd" stroke="none"/>
    <path d="M12.45 10.75 L13.3 10.75 13.3 11.6 12.45 11.6 12.45 10.75" fill="#dacd00" fill-rule="evenodd" stroke="none"/>
    <path d="M14.1 10.75 L14.1 9.95 14.95 9.95 14.95 10.75 14.1 10.75" fill="#dfff00" fill-rule="evenodd" stroke="none"/>
    <path d="M13.3 9.95 L14.1 9.95 14.1 10.75 13.3 10.75 13.3 9.95" fill="#f7ff00" fill-rule="evenodd" stroke="none"/>
    <path d="M15.75 9.95 L15.75 10.75 14.95 10.75 14.95 9.95 15.75 9.95" fill="#f00000" fill-rule="evenodd" stroke="none"/>
    <path d="M14.95 10.75 L14.95 11.6 14.1 11.6 14.1 10.75 14.95 10.75" fill="#db4100" fill-rule="evenodd" stroke="none"/>
    <path d="M13.3 10.75 L14.1 10.75 14.1 11.6 13.3 11.6 13.3 10.75" fill="#b9ff00" fill-rule="evenodd" stroke="none"/>
    <path d="M14.1 11.6 L14.1 12.4 13.3 12.4 13.3 11.6 14.1 11.6" fill="#eb7f00" fill-rule="evenodd" stroke="none"/>
    <path d="M12.45 9.1 L13.3 9.1 13.3 9.95 12.45 9.95 12.45 9.1" fill="#ecb138" fill-rule="evenodd" stroke="none"/>
    <path d="M12.45 12.4 L12.45 11.6 13.3 11.6 13.3 12.4 12.45 12.4" fill="#d3eb00" fill-rule="evenodd" stroke="none"/>
    <path d="M15.75 9.1 L15.75 9.95 14.95 9.95 14.95 9.1 15.75 9.1" fill="#e76b00" fill-rule="evenodd" stroke="none"/>
    <path d="M15.75 5.8 L15.75 6.6 14.95 6.6 14.95 5.8 15.75 5.8" fill="#dcbf00" fill-rule="evenodd" stroke="none"/>
    <path d="M9.1 0.0 L9.95 0.0 9.95 0.85 9.1 0.85 9.1 0.0" fill="#a60000" fill-opacity="0.9019608" fill-rule="evenodd" stroke="none"/>
    <path d="M9.95 0.85 L9.95 1.65 9.1 1.65 9.1 0.85 9.95 0.85" fill="#b75a00" fill-rule="evenodd" stroke="none"/>
    <path d="M8.3 0.0 L9.1 0.0 9.1 0.85 8.3 0.85 8.3 0.0" fill="#006500" fill-opacity="0.9019608" fill-rule="evenodd" stroke="none"/>
    <path d="M7.45 0.0 L8.3 0.0 8.3 0.85 7.45 0.85 7.45 0.0" fill="#005300" fill-opacity="0.9019608" fill-rule="evenodd" stroke="none"/>
    <path d="M9.1 1.65 L9.1 2.5 8.3 2.5 8.3 1.65 9.1 1.65" fill="#93bf00" fill-rule="evenodd" stroke="none"/>
    <path d="M8.3 1.65 L8.3 2.5 7.45 2.5 7.45 1.65 8.3 1.65" fill="#cdcd00" fill-rule="evenodd" stroke="none"/>
    <path d="M9.95 1.65 L9.95 2.5 9.1 2.5 9.1 1.65 9.95 1.65" fill="#f3ef00" fill-rule="evenodd" stroke="none"/>
    <path d="M9.1 2.5 L9.95 2.5 9.95 3.3 9.1 3.3 9.1 2.5" fill="#ffb316" fill-rule="evenodd" stroke="none"/>
    <path d="M9.1 0.85 L9.1 1.65 8.3 1.65 8.3 0.85 9.1 0.85" fill="#359a00" fill-rule="evenodd" stroke="none"/>
    <path d="M8.3 0.85 L8.3 1.65 7.45 1.65 7.45 0.85 8.3 0.85 M2.5 7.45 L3.3 7.45 3.3 8.3 2.5 8.3 2.5 7.45" fill="#136d00" fill-rule="evenodd" stroke="none"/>
    <path d="M8.3 2.5 L9.1 2.5 9.1 3.3 8.3 3.3 8.3 2.5" fill="#008216" fill-rule="evenodd" stroke="none"/>
    <path d="M9.1 14.9 L8.3 14.9 8.3 14.05 9.1 14.05 9.1 14.9 M6.6 0.0 L7.45 0.0 7.45 0.85 6.6 0.85 6.6 0.0" fill="#005d00" fill-opacity="0.9019608" fill-rule="evenodd" stroke="none"/>
    <path d="M7.45 0.85 L7.45 1.65 6.6 1.65 6.6 0.85 7.45 0.85" fill="#004600" fill-rule="evenodd" stroke="none"/>
    <path d="M5.8 14.9 L1.65 14.9 1.65 14.05 4.15 14.05 4.95 14.05 5.8 14.05 5.8 14.9 M0.0 12.4 L0.0 2.5 0.85 2.5 0.85 12.4 0.0 12.4 M1.65 0.0 L6.6 0.0 6.6 0.85 5.8 0.85 4.95 0.85 1.65 0.85 1.65 0.0" fill="#005b00" fill-opacity="0.9019608" fill-rule="evenodd" stroke="none"/>
    <path d="M6.6 1.65 L6.6 2.5 5.8 2.5 5.8 1.65 6.6 1.65" fill="#2f8000" fill-rule="evenodd" stroke="none"/>
    <path d="M5.8 1.65 L5.8 2.5 4.95 2.5 4.95 1.65 5.8 1.65" fill="#003f00" fill-rule="evenodd" stroke="none"/>
    <path d="M7.45 1.65 L7.45 2.5 6.6 2.5 6.6 1.65 7.45 1.65" fill="#ede700" fill-rule="evenodd" stroke="none"/>
    <path d="M6.6 2.5 L7.45 2.5 7.45 3.3 6.6 3.3 6.6 2.5" fill="#017c17" fill-rule="evenodd" stroke="none"/>
    <path d="M6.6 0.85 L6.6 1.65 5.8 1.65 5.8 0.85 6.6 0.85" fill="#005400" fill-rule="evenodd" stroke="none"/>
    <path d="M5.8 0.85 L5.8 1.65 4.95 1.65 4.95 0.85 5.8 0.85 M2.5 4.15 L2.5 3.3 3.3 3.3 3.3 4.15 2.5 4.15" fill="#006800" fill-rule="evenodd" stroke="none"/>
    <path d="M5.8 2.5 L6.6 2.5 6.6 3.3 5.8 3.3 5.8 2.5" fill="#f9f616" fill-rule="evenodd" stroke="none"/>
    <path d="M7.45 3.3 L8.3 3.3 8.3 4.15 7.45 4.15 7.45 3.3" fill="#ff041e" fill-rule="evenodd" stroke="none"/>
    <path d="M6.6 3.3 L7.45 3.3 7.45 4.15 6.6 4.15 6.6 3.3" fill="#d2382a" fill-rule="evenodd" stroke="none"/>
    <path d="M5.8 3.3 L6.6 3.3 6.6 4.15 5.8 4.15 5.8 3.3" fill="#8b4543" fill-rule="evenodd" stroke="none"/>
    <path d="M6.6 4.15 L7.45 4.15 7.45 4.95 6.6 4.95 6.6 4.15" fill="#d74300" fill-rule="evenodd" stroke="none"/>
    <path d="M5.8 3.3 L5.8 4.15 4.95 4.15 4.95 3.3 5.8 3.3" fill="#ffeb1a" fill-rule="evenodd" stroke="none"/>
    <path d="M5.8 4.95 L5.8 5.8 4.95 5.8 4.95 4.95 5.8 4.95" fill="#dbff1d" fill-rule="evenodd" stroke="none"/>
    <path d="M7.45 4.95 L7.45 5.8 6.6 5.8 6.6 4.95 7.45 4.95" fill="#fe1129" fill-rule="evenodd" stroke="none"/>
    <path d="M8.3 4.95 L8.3 5.8 8.3 6.6 7.45 6.6 7.45 5.8 7.45 4.95 8.3 4.95" fill="#feffff" fill-rule="evenodd" stroke="none"/>
    <path d="M7.45 5.8 L7.45 6.6 6.6 6.6 6.6 5.8 7.45 5.8" fill="#f01321" fill-rule="evenodd" stroke="none"/>
    <path d="M5.8 4.15 L6.6 4.15 6.6 4.95 5.8 4.95 5.8 4.15" fill="#9f7700" fill-rule="evenodd" stroke="none"/>
    <path d="M5.8 4.15 L5.8 4.95 4.95 4.95 4.95 4.15 5.8 4.15" fill="#e5d31b" fill-rule="evenodd" stroke="none"/>
    <path d="M5.8 5.8 L6.6 5.8 6.6 6.6 5.8 6.6 5.8 5.8" fill="#f30000" fill-rule="evenodd" stroke="none"/>
    <path d="M9.1 3.3 L9.95 3.3 9.95 4.15 9.1 4.15 9.1 3.3" fill="#90711e" fill-rule="evenodd" stroke="none"/>
    <path d="M8.3 3.3 L9.1 3.3 9.1 4.15 8.3 4.15 8.3 3.3" fill="#ff1d1f" fill-rule="evenodd" stroke="none"/>
    <path d="M9.1 4.15 L9.95 4.15 9.95 4.95 9.1 4.95 9.1 4.15" fill="#aeda00" fill-rule="evenodd" stroke="none"/>
    <path d="M9.1 4.95 L9.1 5.8 8.3 5.8 8.3 4.95 9.1 4.95" fill="#e7ffff" fill-rule="evenodd" stroke="none"/>
    <path d="M9.95 4.95 L9.95 5.8 9.1 5.8 9.1 4.95 9.95 4.95" fill="#8077ea" fill-rule="evenodd" stroke="none"/>
    <path d="M9.95 5.8 L9.95 6.6 9.1 6.6 9.1 5.8 9.95 5.8" fill="#0107a1" fill-rule="evenodd" stroke="none"/>
    <path d="M8.3 4.15 L9.1 4.15 9.1 4.95 8.3 4.95 8.3 4.15" fill="#f20b00" fill-rule="evenodd" stroke="none"/>
    <path d="M8.3 5.8 L9.1 5.8 9.1 6.6 8.3 6.6 8.3 5.8" fill="#f1f9ff" fill-rule="evenodd" stroke="none"/>
    <path d="M7.45 2.5 L8.3 2.5 8.3 3.3 7.45 3.3 7.45 2.5" fill="#005d16" fill-rule="evenodd" stroke="none"/>
    <path d="M4.95 2.5 L5.8 2.5 5.8 3.3 4.95 3.3 4.95 2.5" fill="#8cb900" fill-rule="evenodd" stroke="none"/>
    <path d="M4.95 1.65 L4.95 2.5 4.15 2.5 4.15 3.3 3.3 3.3 2.5 3.3 2.5 4.15 2.5 4.95 1.65 4.95 1.65 5.8 1.65 6.6 1.65 8.3 1.65 9.1 2.5 9.1 2.5 9.95 1.65 9.95 1.65 10.75 2.5 10.75 3.3 10.75 3.3 11.6 3.3 12.4 3.3 13.25 4.15 13.25 4.15 14.05 1.65 14.05 0.85 14.05 0.85 13.25 0.85 12.4 0.85 2.5 0.85 1.65 0.85 0.85 1.65 0.85 4.95 0.85 4.95 1.65 M3.3 8.3 L3.3 9.1 2.5 9.1 2.5 8.3 3.3 8.3" fill="#006500" fill-rule="evenodd" stroke="none"/>
    <path d="M4.15 3.3 L4.15 2.5 4.95 2.5 4.95 3.3 4.15 3.3 M5.8 12.4 L5.8 13.25 4.95 13.25 4.95 12.4 5.8 12.4" fill="#004200" fill-rule="evenodd" stroke="none"/>
    <path d="M1.65 14.9 L0.85 14.9 0.85 14.05 1.65 14.05 1.65 14.9 M0.85 0.0 L1.65 0.0 1.65 0.85 0.85 0.85 0.85 0.0" fill="#005d00" fill-opacity="0.91764706" fill-rule="evenodd" stroke="none"/>
    <path d="M0.85 14.9 L0.0 14.9 0.0 14.05 0.85 14.05 0.85 14.9 M0.0 0.85 L0.0 0.0 0.85 0.0 0.85 0.85 0.0 0.85" fill="#005200" fill-opacity="0.827451" fill-rule="evenodd" stroke="none"/>
    <path d="M0.0 14.05 L0.0 13.25 0.85 13.25 0.85 14.05 0.0 14.05 M0.0 1.65 L0.0 0.85 0.85 0.85 0.85 1.65 0.0 1.65" fill="#006100" fill-opacity="0.9529412" fill-rule="evenodd" stroke="none"/>
    <path d="M0.0 13.25 L0.0 12.4 0.85 12.4 0.85 13.25 0.0 13.25 M0.0 2.5 L0.0 1.65 0.85 1.65 0.85 2.5 0.0 2.5" fill="#005b00" fill-opacity="0.9019608" fill-rule="evenodd" stroke="none"/>
    <path d="M4.15 14.05 L4.15 13.25 3.3 13.25 3.3 12.4 4.15 12.4 4.15 13.25 4.95 13.25 4.95 14.05 4.15 14.05 M2.5 10.75 L1.65 10.75 1.65 9.95 2.5 9.95 2.5 10.75 M1.65 5.8 L1.65 4.95 2.5 4.95 2.5 5.8 1.65 5.8" fill="#006700" fill-rule="evenodd" stroke="none"/>
    <path d="M2.5 4.95 L2.5 4.15 3.3 4.15 3.3 4.95 2.5 4.95" fill="#005700" fill-rule="evenodd" stroke="none"/>
    <path d="M3.3 3.3 L4.15 3.3 4.15 4.15 3.3 4.15 3.3 3.3 M2.5 5.8 L2.5 4.95 3.3 4.95 3.3 5.8 2.5 5.8" fill="#004700" fill-rule="evenodd" stroke="none"/>
    <path d="M1.65 6.6 L1.65 5.8 2.5 5.8 2.5 6.6 1.65 6.6 M5.8 14.05 L4.95 14.05 4.95 13.25 5.8 13.25 5.8 14.05" fill="#006200" fill-rule="evenodd" stroke="none"/>
    <path d="M4.15 3.3 L4.95 3.3 4.95 4.15 4.15 4.15 4.15 3.3" fill="#569100" fill-rule="evenodd" stroke="none"/>
    <path d="M4.95 4.95 L4.95 5.8 4.15 5.8 4.15 4.95 4.15 4.15 4.95 4.15 4.95 4.95 M4.15 10.75 L4.15 9.95 4.95 9.95 4.95 10.75 4.15 10.75" fill="#ffff00" fill-rule="evenodd" stroke="none"/>
    <path d="M3.3 5.8 L3.3 4.95 4.15 4.95 4.15 5.8 3.3 5.8" fill="#9dab00" fill-rule="evenodd" stroke="none"/>
    <path d="M4.15 5.8 L4.95 5.8 4.95 6.6 4.15 6.6 4.15 5.8" fill="#4f9400" fill-rule="evenodd" stroke="none"/>
    <path d="M3.3 4.95 L3.3 4.15 4.15 4.15 4.15 4.95 3.3 4.95" fill="#0d6400" fill-rule="evenodd" stroke="none"/>
    <path d="M3.3 5.8 L4.15 5.8 4.15 6.6 3.3 6.6 3.3 5.8" fill="#b9c400" fill-rule="evenodd" stroke="none"/>
    <path d="M3.3 12.4 L3.3 11.6 4.15 11.6 4.15 12.4 3.3 12.4 M2.5 5.8 L3.3 5.8 3.3 6.6 2.5 6.6 2.5 5.8" fill="#005e00" fill-rule="evenodd" stroke="none"/>
    <path d="M4.15 6.6 L4.95 6.6 4.95 7.45 4.15 7.45 4.15 6.6" fill="#70a600" fill-rule="evenodd" stroke="none"/>
    <path d="M4.95 6.6 L5.8 6.6 5.8 7.45 4.95 7.45 4.95 6.6" fill="#687d1c" fill-rule="evenodd" stroke="none"/>
    <path d="M4.15 7.45 L4.95 7.45 4.95 8.3 4.15 8.3 4.15 7.45" fill="#8cb700" fill-rule="evenodd" stroke="none"/>
    <path d="M4.15 6.6 L4.15 7.45 3.3 7.45 3.3 6.6 4.15 6.6" fill="#f6e000" fill-rule="evenodd" stroke="none"/>
    <path d="M3.3 6.6 L3.3 7.45 2.5 7.45 2.5 6.6 3.3 6.6" fill="#0b6800" fill-rule="evenodd" stroke="none"/>
    <path d="M3.3 9.1 L3.3 8.3 4.15 8.3 4.15 9.1 3.3 9.1" fill="#ddd900" fill-rule="evenodd" stroke="none"/>
    <path d="M4.15 8.3 L4.95 8.3 4.95 9.1 4.15 9.1 4.15 8.3" fill="#026b00" fill-rule="evenodd" stroke="none"/>
    <path d="M4.95 8.3 L5.8 8.3 5.8 9.1 4.95 9.1 4.95 8.3" fill="#52af1e" fill-rule="evenodd" stroke="none"/>
    <path d="M3.3 10.75 L2.5 10.75 2.5 9.95 3.3 9.95 3.3 10.75 M4.15 9.1 L4.95 9.1 4.95 9.95 4.15 9.95 4.15 9.1" fill="#004f00" fill-rule="evenodd" stroke="none"/>
    <path d="M4.15 7.45 L4.15 8.3 3.3 8.3 3.3 7.45 4.15 7.45" fill="#ffe600" fill-rule="evenodd" stroke="none"/>
    <path d="M3.3 9.1 L4.15 9.1 4.15 9.95 3.3 9.95 3.3 9.1" fill="#e4dc00" fill-rule="evenodd" stroke="none"/>
    <path d="M4.95 7.45 L5.8 7.45 5.8 8.3 4.95 8.3 4.95 7.45" fill="#458b1b" fill-rule="evenodd" stroke="none"/>
    <path d="M1.65 8.3 L1.65 6.6 2.5 6.6 2.5 7.45 2.5 8.3 1.65 8.3" fill="#005c00" fill-rule="evenodd" stroke="none"/>
    <path d="M2.5 9.1 L1.65 9.1 1.65 8.3 2.5 8.3 2.5 9.1" fill="#005f00" fill-rule="evenodd" stroke="none"/>
    <path d="M4.15 9.95 L4.15 10.75 3.3 10.75 3.3 9.95 4.15 9.95" fill="#3c8300" fill-rule="evenodd" stroke="none"/>
    <path d="M4.95 9.95 L5.8 9.95 5.8 10.75 4.95 10.75 4.95 9.95" fill="#96c800" fill-rule="evenodd" stroke="none"/>
    <path d="M4.15 10.75 L4.95 10.75 4.95 11.6 4.15 11.6 4.15 10.75" fill="#d2d400" fill-rule="evenodd" stroke="none"/>
    <path d="M4.15 11.6 L4.95 11.6 4.95 12.4 4.15 12.4 4.15 11.6" fill="#004900" fill-rule="evenodd" stroke="none"/>
    <path d="M3.3 11.6 L3.3 10.75 4.15 10.75 4.15 11.6 3.3 11.6" fill="#004100" fill-rule="evenodd" stroke="none"/>
    <path d="M4.95 11.6 L4.95 10.75 5.8 10.75 5.8 11.6 4.95 11.6" fill="#dbd100" fill-rule="evenodd" stroke="none"/>
    <path d="M2.5 9.95 L2.5 9.1 3.3 9.1 3.3 9.95 2.5 9.95" fill="#004b00" fill-rule="evenodd" stroke="none"/>
    <path d="M4.95 9.1 L5.8 9.1 5.8 9.95 4.95 9.95 4.95 9.1" fill="#00930a" fill-rule="evenodd" stroke="none"/>
    <path d="M9.1 6.6 L9.95 6.6 9.95 7.45 9.1 7.45 9.1 6.6" fill="#b8b7e3" fill-rule="evenodd" stroke="none"/>
    <path d="M8.3 7.45 L8.3 6.6 9.1 6.6 9.1 7.45 8.3 7.45" fill="#c4c4e7" fill-rule="evenodd" stroke="none"/>
    <path d="M9.1 7.45 L9.95 7.45 9.95 8.3 9.1 8.3 9.1 7.45" fill="#6968bf" fill-rule="evenodd" stroke="none"/>
    <path d="M7.45 6.6 L8.3 6.6 8.3 7.45 7.45 7.45 7.45 6.6" fill="#a3a9ff" fill-rule="evenodd" stroke="none"/>
    <path d="M8.3 9.1 L8.3 8.3 9.1 8.3 9.1 9.1 8.3 9.1" fill="#fcfbfe" fill-rule="evenodd" stroke="none"/>
    <path d="M9.1 8.3 L9.95 8.3 9.95 9.1 9.1 9.1 9.1 8.3" fill="#645ebb" fill-rule="evenodd" stroke="none"/>
    <path d="M9.95 9.1 L9.95 9.95 9.1 9.95 9.1 9.1 9.95 9.1" fill="#083ad4" fill-rule="evenodd" stroke="none"/>
    <path d="M8.3 9.95 L8.3 9.1 9.1 9.1 9.1 9.95 8.3 9.95" fill="#e1ffff" fill-rule="evenodd" stroke="none"/>
    <path d="M8.3 8.3 L8.3 7.45 9.1 7.45 9.1 8.3 8.3 8.3" fill="#7e7ec9" fill-rule="evenodd" stroke="none"/>
    <path d="M7.45 7.45 L8.3 7.45 8.3 8.3 7.45 8.3 7.45 7.45" fill="#0e39dc" fill-rule="evenodd" stroke="none"/>
    <path d="M6.6 6.6 L7.45 6.6 7.45 7.45 6.6 7.45 6.6 6.6" fill="#c5a826" fill-rule="evenodd" stroke="none"/>
    <path d="M6.6 7.45 L7.45 7.45 7.45 8.3 6.6 8.3 6.6 7.45" fill="#ff7937" fill-rule="evenodd" stroke="none"/>
    <path d="M5.8 6.6 L6.6 6.6 6.6 7.45 5.8 7.45 5.8 6.6" fill="#969400" fill-rule="evenodd" stroke="none"/>
    <path d="M6.6 8.3 L7.45 8.3 7.45 9.1 6.6 9.1 6.6 8.3" fill="#ff0008" fill-rule="evenodd" stroke="none"/>
    <path d="M6.6 9.1 L7.45 9.1 7.45 9.95 6.6 9.95 6.6 9.1" fill="#bf0000" fill-rule="evenodd" stroke="none"/>
    <path d="M5.8 7.45 L6.6 7.45 6.6 8.3 5.8 8.3 5.8 7.45" fill="#ff0600" fill-rule="evenodd" stroke="none"/>
    <path d="M5.8 9.1 L6.6 9.1 6.6 9.95 5.8 9.95 5.8 9.1" fill="#ff3230" fill-rule="evenodd" stroke="none"/>
    <path d="M5.8 9.95 L6.6 9.95 6.6 10.75 5.8 10.75 5.8 9.95" fill="#2e582f" fill-rule="evenodd" stroke="none"/>
    <path d="M6.6 9.95 L7.45 9.95 7.45 10.75 6.6 10.75 6.6 9.95" fill="#9b8e0c" fill-rule="evenodd" stroke="none"/>
    <path d="M7.45 9.95 L8.3 9.95 8.3 10.75 7.45 10.75 7.45 9.95" fill="#d70f00" fill-rule="evenodd" stroke="none"/>
    <path d="M6.6 10.75 L7.45 10.75 7.45 11.6 6.6 11.6 6.6 10.75" fill="#f3c439" fill-rule="evenodd" stroke="none"/>
    <path d="M6.6 11.6 L7.45 11.6 7.45 12.4 6.6 12.4 6.6 11.6" fill="#006b00" fill-rule="evenodd" stroke="none"/>
    <path d="M5.8 10.75 L6.6 10.75 6.6 11.6 5.8 11.6 5.8 10.75" fill="#59b800" fill-rule="evenodd" stroke="none"/>
    <path d="M5.8 11.6 L6.6 11.6 6.6 12.4 5.8 12.4 5.8 11.6" fill="#a4b600" fill-rule="evenodd" stroke="none"/>
    <path d="M7.45 10.75 L8.3 10.75 8.3 11.6 7.45 11.6 7.45 10.75" fill="#ff0023" fill-rule="evenodd" stroke="none"/>
    <path d="M9.95 9.95 L9.95 10.75 9.1 10.75 9.1 9.95 9.95 9.95" fill="#ffd0b6" fill-rule="evenodd" stroke="none"/>
    <path d="M9.1 9.95 L9.1 10.75 8.3 10.75 8.3 9.95 9.1 9.95" fill="#ff596c" fill-rule="evenodd" stroke="none"/>
    <path d="M9.1 11.6 L9.95 11.6 9.95 12.4 9.1 12.4 9.1 11.6" fill="#e99842" fill-rule="evenodd" stroke="none"/>
    <path d="M8.3 11.6 L9.1 11.6 9.1 12.4 8.3 12.4 8.3 11.6" fill="#1b7130" fill-rule="evenodd" stroke="none"/>
    <path d="M7.45 9.1 L8.3 9.1 8.3 9.95 7.45 9.95 7.45 9.1" fill="#f7f9cc" fill-rule="evenodd" stroke="none"/>
    <path d="M7.45 11.6 L8.3 11.6 8.3 12.4 7.45 12.4 7.45 11.6" fill="#007417" fill-rule="evenodd" stroke="none"/>
    <path d="M4.95 5.8 L5.8 5.8 5.8 6.6 4.95 6.6 4.95 5.8" fill="#ffff1b" fill-rule="evenodd" stroke="none"/>
    <path d="M4.95 12.4 L4.95 11.6 5.8 11.6 5.8 12.4 4.95 12.4" fill="#fff800" fill-rule="evenodd" stroke="none"/>
    <path d="M9.1 13.25 L9.1 12.4 9.95 12.4 9.95 13.25 9.1 13.25" fill="#fceb00" fill-rule="evenodd" stroke="none"/>
    <path d="M8.3 12.4 L9.1 12.4 9.1 13.25 8.3 13.25 8.3 12.4" fill="#19a400" fill-rule="evenodd" stroke="none"/>
    <path d="M9.95 13.25 L9.95 12.4 10.8 12.4 10.8 13.25 9.95 13.25" fill="#fa2700" fill-rule="evenodd" stroke="none"/>
    <path d="M9.1 14.05 L9.1 13.25 9.95 13.25 9.95 14.05 9.1 14.05" fill="#c1a600" fill-rule="evenodd" stroke="none"/>
    <path d="M7.45 12.4 L8.3 12.4 8.3 13.25 7.45 13.25 7.45 12.4" fill="#679a00" fill-rule="evenodd" stroke="none"/>
    <path d="M8.3 14.9 L7.45 14.9 7.45 14.05 8.3 14.05 8.3 14.9" fill="#004600" fill-opacity="0.9019608" fill-rule="evenodd" stroke="none"/>
    <path d="M9.95 14.9 L9.1 14.9 9.1 14.05 9.95 14.05 9.95 14.9" fill="#a20000" fill-opacity="0.9019608" fill-rule="evenodd" stroke="none"/>
    <path d="M8.3 13.25 L9.1 13.25 9.1 14.05 8.3 14.05 8.3 13.25" fill="#9cc100" fill-rule="evenodd" stroke="none"/>
    <path d="M7.45 13.25 L8.3 13.25 8.3 14.05 7.45 14.05 7.45 13.25" fill="#81a800" fill-rule="evenodd" stroke="none"/>
    <path d="M10.8 13.25 L10.8 14.05 9.95 14.05 9.95 13.25 10.8 13.25" fill="#e59d00" fill-rule="evenodd" stroke="none"/>
    <path d="M6.6 12.4 L7.45 12.4 7.45 13.25 6.6 13.25 6.6 12.4" fill="#ebe000" fill-rule="evenodd" stroke="none"/>
    <path d="M6.6 13.25 L7.45 13.25 7.45 14.05 6.6 14.05 6.6 13.25" fill="#056500" fill-rule="evenodd" stroke="none"/>
    <path d="M5.8 12.4 L6.6 12.4 6.6 13.25 5.8 13.25 5.8 12.4" fill="#b1c400" fill-rule="evenodd" stroke="none"/>
    <path d="M6.6 14.9 L5.8 14.9 5.8 14.05 6.6 14.05 6.6 14.9" fill="#005e00" fill-opacity="0.9019608" fill-rule="evenodd" stroke="none"/>
    <path d="M7.45 14.9 L6.6 14.9 6.6 14.05 7.45 14.05 7.45 14.9" fill="#005500" fill-opacity="0.9019608" fill-rule="evenodd" stroke="none"/>
    <path d="M5.8 13.25 L6.6 13.25 6.6 14.05 5.8 14.05 5.8 13.25" fill="#004300" fill-rule="evenodd" stroke="none"/>
    <path d="M4.15 12.4 L4.95 12.4 4.95 13.25 4.15 13.25 4.15 12.4" fill="#005b00" fill-rule="evenodd" stroke="none"/>
    <path d="M13.3 12.4 L13.3 13.25 12.45 13.25 12.45 12.4 13.3 12.4" fill="#f04800" fill-rule="evenodd" stroke="none"/>
    <path d="M12.45 13.25 L11.65 13.25 11.65 12.4 12.45 12.4 12.45 13.25" fill="#d0fb00" fill-rule="evenodd" stroke="none"/>
    <path d="M10.8 12.4 L11.65 12.4 11.65 13.25 10.8 13.25 10.8 12.4" fill="#e29700" fill-rule="evenodd" stroke="none"/>
    <path d="M11.65 13.25 L11.65 14.05 10.8 14.05 10.8 13.25 11.65 13.25" fill="#e85b00" fill-rule="evenodd" stroke="none"/>
    <path d="M9.95 11.6 L10.8 11.6 10.8 12.4 9.95 12.4 9.95 11.6" fill="#e30029" fill-rule="evenodd" stroke="none"/>
  </g>
</svg>
