<?xml version="1.0" encoding="UTF-8" standalone="no"?>
<svg xmlns:xlink="http://www.w3.org/1999/xlink" height="14.9px" width="22.4px" xmlns="http://www.w3.org/2000/svg">
  <g transform="matrix(1.0, 0.0, 0.0, 1.0, 0.0, 0.0)">
    <path d="M22.4 14.9 L0.0 14.9 0.0 0.0 22.4 0.0 22.4 14.9 M17.0 4.4 L17.0 3.5 16.15 3.5 14.35 3.5 12.55 3.5 9.85 3.5 8.95 3.5 8.95 4.4 8.05 4.4 8.05 3.5 6.25 3.5 6.25 4.4 5.4 4.4 5.4 5.25 6.25 5.25 6.25 7.9 7.15 7.9 9.85 7.9 9.85 7.0 10.75 7.0 10.75 7.9 11.65 7.9 11.65 7.0 12.55 7.0 12.55 7.9 14.35 7.9 14.35 7.0 15.25 7.0 15.25 7.9 17.0 7.9 17.0 7.0 17.0 4.4 M13.45 11.4 L15.25 11.4 15.25 10.5 13.45 10.5 7.15 10.5 7.15 11.4 13.45 11.4" fill="#00942f" fill-rule="evenodd" stroke="none"/>
    <path d="M17.0 4.4 L17.0 7.0 15.25 7.0 14.35 7.0 14.35 6.15 15.25 6.15 16.15 6.15 16.15 5.25 15.25 5.25 14.35 5.25 14.35 3.5 16.15 3.5 16.15 4.4 17.0 4.4" fill="#69c085" fill-rule="evenodd" stroke="none"/>
    <path d="M15.25 6.15 L15.25 5.25 16.15 5.25 16.15 6.15 15.25 6.15" fill="#a3dab5" fill-rule="evenodd" stroke="none"/>
    <path d="M16.15 3.5 L17.0 3.5 17.0 4.4 16.15 4.4 16.15 3.5" fill="#42b065" fill-rule="evenodd" stroke="none"/>
    <path d="M14.35 7.0 L14.35 7.9 12.55 7.9 12.55 7.0 12.55 6.15 13.45 6.15 13.45 4.4 12.55 4.4 12.55 3.5 14.35 3.5 14.35 5.25 15.25 5.25 15.25 6.15 14.35 6.15 14.35 7.0" fill="#4ab36c" fill-rule="evenodd" stroke="none"/>
    <path d="M12.55 7.0 L11.65 7.0 10.75 7.0 9.85 7.0 8.95 7.0 8.95 6.15 8.05 6.15 8.05 5.25 9.85 5.25 9.85 3.5 12.55 3.5 12.55 4.4 13.45 4.4 13.45 6.15 12.55 6.15 12.55 7.0" fill="#7cc895" fill-rule="evenodd" stroke="none"/>
    <path d="M11.65 7.0 L11.65 7.9 10.75 7.9 10.75 7.0 11.65 7.0" fill="#2da755" fill-rule="evenodd" stroke="none"/>
    <path d="M13.45 11.4 L13.45 10.5 15.25 10.5 15.25 11.4 13.45 11.4" fill="#98d5ab" fill-rule="evenodd" stroke="none"/>
    <path d="M13.45 10.5 L13.45 11.4 7.15 11.4 7.15 10.5 13.45 10.5" fill="#61bc7e" fill-rule="evenodd" stroke="none"/>
    <path d="M17.0 7.0 L17.0 7.9 15.25 7.9 15.25 7.0 17.0 7.0" fill="#33aa59" fill-rule="evenodd" stroke="none"/>
    <path d="M6.25 4.4 L7.15 4.4 7.15 5.25 6.25 5.25 6.25 4.4" fill="#d3eddb" fill-rule="evenodd" stroke="none"/>
    <path d="M7.15 7.9 L6.25 7.9 6.25 5.25 7.15 5.25 7.15 7.0 7.15 7.9" fill="#71c38b" fill-rule="evenodd" stroke="none"/>
    <path d="M6.25 5.25 L5.4 5.25 5.4 4.4 6.25 4.4 6.25 5.25" fill="#5cbb7a" fill-rule="evenodd" stroke="none"/>
    <path d="M6.25 4.4 L6.25 3.5 8.05 3.5 8.05 4.4 8.05 5.25 7.15 5.25 7.15 4.4 6.25 4.4" fill="#6ec289" fill-rule="evenodd" stroke="none"/>
    <path d="M8.05 4.4 L8.95 4.4 8.95 3.5 9.85 3.5 9.85 5.25 8.05 5.25 8.05 4.4" fill="#41af64" fill-rule="evenodd" stroke="none"/>
    <path d="M7.15 5.25 L8.05 5.25 8.05 6.15 8.05 7.0 7.15 7.0 7.15 5.25" fill="#b5e1c3" fill-rule="evenodd" stroke="none"/>
    <path d="M9.85 7.0 L9.85 7.9 7.15 7.9 7.15 7.0 8.05 7.0 8.05 6.15 8.95 6.15 8.95 7.0 9.85 7.0" fill="#44b067" fill-rule="evenodd" stroke="none"/>
  </g>
</svg>
