<?xml version="1.0" encoding="UTF-8" standalone="no"?>
<svg xmlns:xlink="http://www.w3.org/1999/xlink" height="14.9px" width="22.4px" xmlns="http://www.w3.org/2000/svg">
  <g transform="matrix(1.0, 0.0, 0.0, 1.0, -0.05, 0.0)">
    <path d="M22.45 4.55 L22.45 4.9 22.45 4.95 11.9 4.95 0.05 4.95 0.05 4.9 0.05 4.55 11.9 4.55 22.45 4.55" fill="#9bccfa" fill-rule="evenodd" stroke="none"/>
    <path d="M0.05 4.55 L0.05 4.45 0.05 0.0 11.9 0.0 22.45 0.0 22.45 4.45 22.45 4.55 11.9 4.55 0.05 4.55" fill="#99ccff" fill-rule="evenodd" stroke="none"/>
    <path d="M22.45 4.95 L22.45 9.9 22.45 9.95 11.9 9.95 0.05 9.95 0.05 9.9 0.05 4.95 11.9 4.95 22.45 4.95 M12.1 5.9 L12.1 6.0 Q11.9 6.55 11.75 6.25 L11.85 6.15 Q11.65 6.4 11.55 6.1 L11.55 5.85 11.35 6.4 Q11.25 5.2 11.15 6.25 11.1 6.75 11.0 6.2 10.9 5.5 10.9 6.1 L10.95 6.25 Q10.55 5.65 10.65 6.2 L10.65 6.3 Q10.2 5.85 10.35 6.35 L10.45 6.4 10.5 6.55 10.1 6.35 Q10.65 6.85 10.1 6.65 L9.85 6.55 10.3 6.9 10.3 6.95 Q9.5 6.65 10.05 7.0 L10.1 7.05 9.45 7.1 10.3 7.45 10.0 7.55 9.85 7.5 9.85 7.55 9.45 7.85 9.5 7.85 Q10.65 7.7 9.7 8.05 9.45 8.2 9.75 8.1 10.35 7.85 10.1 8.1 L9.9 8.3 9.85 8.35 10.35 8.25 10.35 8.3 Q9.8 8.95 10.45 8.3 L10.5 8.3 Q10.3 8.7 10.5 8.75 L10.55 8.6 10.55 8.5 10.65 9.0 Q10.95 8.0 10.9 9.05 L10.85 9.1 10.85 9.15 11.15 8.5 11.15 8.6 Q11.2 9.85 11.3 8.65 L11.3 8.55 11.5 9.15 11.5 9.2 11.55 8.6 11.75 8.7 Q11.8 8.5 11.95 8.65 L12.0 8.7 12.0 8.4 12.05 8.4 Q12.6 8.9 12.0 8.25 L12.0 8.15 12.5 8.4 12.5 8.35 Q11.9 7.85 12.65 8.1 L12.55 7.95 12.45 7.9 12.7 7.7 Q12.1 7.65 12.45 7.55 L12.9 7.45 12.85 7.4 Q12.05 7.35 13.0 7.15 L13.0 7.1 Q11.95 7.2 12.6 6.95 L12.6 6.9 Q12.0 7.0 12.45 6.65 L12.5 6.6 Q12.0 6.8 12.3 6.35 L12.4 6.3 Q12.15 6.35 11.85 6.75 L11.85 6.7 Q12.15 6.3 12.1 5.9" fill="#fdfefd" fill-rule="evenodd" stroke="none"/>
    <path d="M22.45 9.95 L22.45 10.05 22.45 14.9 11.9 14.9 0.05 14.9 0.05 14.85 0.05 9.95 11.9 9.95 22.45 9.95" fill="#99ccfe" fill-rule="evenodd" stroke="none"/>
    <path d="M12.1 5.9 Q12.15 6.3 11.85 6.7 L11.85 6.75 Q12.15 6.35 12.4 6.3 L12.3 6.35 Q12.0 6.8 12.5 6.6 L12.45 6.65 Q12.0 7.0 12.6 6.9 L12.6 6.95 Q11.95 7.2 13.0 7.1 L13.0 7.15 Q12.05 7.35 12.85 7.4 L12.9 7.45 12.45 7.55 Q12.1 7.65 12.7 7.7 L12.45 7.9 12.55 7.95 12.65 8.1 Q11.9 7.85 12.5 8.35 L12.5 8.4 12.0 8.15 12.0 8.25 Q12.6 8.9 12.05 8.4 L12.0 8.4 12.0 8.7 11.95 8.65 Q11.8 8.5 11.75 8.7 L11.55 8.6 11.5 9.2 11.5 9.15 11.3 8.55 11.3 8.65 Q11.2 9.85 11.15 8.6 L11.15 8.5 10.85 9.15 10.85 9.1 10.9 9.05 Q10.95 8.0 10.65 9.0 L10.55 8.5 10.55 8.6 10.5 8.75 Q10.3 8.7 10.5 8.3 L10.45 8.3 Q9.8 8.95 10.35 8.3 L10.35 8.25 9.85 8.35 9.9 8.3 10.1 8.1 Q10.35 7.85 9.75 8.1 9.45 8.2 9.7 8.05 10.65 7.7 9.5 7.85 L9.45 7.85 9.85 7.55 9.85 7.5 10.0 7.55 10.3 7.45 9.45 7.1 10.1 7.05 10.05 7.0 Q9.5 6.65 10.3 6.95 L10.3 6.9 9.85 6.55 10.1 6.65 Q10.65 6.85 10.1 6.35 L10.5 6.55 10.45 6.4 10.35 6.35 Q10.2 5.85 10.65 6.3 L10.65 6.2 Q10.55 5.65 10.95 6.25 L10.9 6.1 Q10.9 5.5 11.0 6.2 11.1 6.75 11.15 6.25 11.25 5.2 11.35 6.4 L11.55 5.85 11.55 6.1 Q11.65 6.4 11.85 6.15 L11.75 6.25 Q11.9 6.55 12.1 6.0 L12.1 5.9" fill="#ac974e" fill-rule="evenodd" stroke="none"/>
  </g>
</svg>
