<?xml version="1.0" encoding="UTF-8" standalone="no"?>
<svg xmlns:xlink="http://www.w3.org/1999/xlink" height="34.6px" width="129.6px" xmlns="http://www.w3.org/2000/svg">
  <g transform="matrix(1.0, 0.0, 0.0, 1.0, 30.8, 0.0)">
    <path d="M92.7 0.25 L92.7 3.05 92.7 3.3 92.6 3.3 92.6 3.05 89.25 3.05 89.25 0.0 92.65 0.0 92.65 0.25 92.7 0.25 M95.65 3.8 L98.8 3.8 98.8 7.4 95.65 7.4 95.65 3.8 M98.8 11.55 L98.8 16.45 95.65 16.45 95.65 11.55 98.8 11.55 M98.8 21.2 L98.8 26.25 95.65 26.25 95.65 21.2 98.8 21.2 M98.8 30.0 L98.8 34.35 92.9 34.35 92.9 34.6 92.7 34.6 92.7 31.6 92.9 31.6 92.9 31.35 95.65 31.35 95.65 30.0 98.8 30.0 M89.25 34.35 L84.55 34.35 84.55 31.35 89.25 31.35 89.25 34.35 M79.1 34.35 L73.6 34.35 73.6 31.35 79.1 31.35 79.1 34.35 M68.1 34.35 L64.7 34.35 64.7 31.35 68.1 31.35 68.1 34.35 M84.55 0.0 L84.55 3.05 79.1 3.05 79.1 0.0 84.55 0.0 M73.6 0.0 L73.6 3.05 68.1 3.05 68.1 0.0 73.6 0.0 M63.6 0.0 L63.6 3.05 59.5 3.05 59.5 0.0 63.6 0.0 M54.8 0.0 L54.8 3.05 49.35 3.05 49.35 0.0 54.8 0.0 M43.85 0.0 L43.85 3.05 38.35 3.05 38.35 0.0 43.85 0.0 M54.8 34.35 L54.8 31.35 59.5 31.35 59.5 34.35 54.8 34.35 M49.35 31.35 L49.35 34.35 43.85 34.35 43.85 31.35 49.35 31.35 M38.35 31.35 L38.35 34.35 32.5 34.35 32.5 31.35 38.35 31.35 M32.5 0.0 L32.5 3.05 27.35 3.05 27.35 0.0 32.5 0.0 M22.0 0.0 L22.0 3.05 16.55 3.05 16.55 0.0 22.0 0.0 M10.6 0.0 L10.6 3.05 5.8 3.05 5.8 0.1 5.75 0.1 5.75 0.0 10.6 0.0 M-0.05 0.1 L-0.05 3.15 -5.2 3.15 -5.2 0.1 -0.05 0.1 M-10.55 3.15 L-16.0 3.15 -16.0 0.1 -10.55 0.1 -10.55 3.15 M-21.95 3.15 L-24.9 3.15 -24.9 0.1 -21.95 0.1 -21.95 3.15 M16.55 31.35 L16.55 34.35 10.6 34.35 10.6 31.35 16.55 31.35 M22.0 34.35 L22.0 31.35 27.35 31.35 27.35 34.35 22.0 34.35 M1.85 31.5 L5.5 31.5 5.5 34.5 1.85 34.5 1.85 31.5 M-3.3 34.5 L-8.65 34.5 -8.65 31.5 -3.3 31.5 -3.3 34.5 M-14.1 34.5 L-20.05 34.5 -20.05 31.5 -14.1 31.5 -14.1 34.5 M-25.1 3.15 L-25.1 0.1 -25.05 0.1 -25.05 3.15 -25.1 3.15 M-30.8 3.9 L-27.1 3.9 -27.1 7.5 -30.8 7.5 -30.8 3.9 M-27.1 11.65 L-27.1 16.55 -30.8 16.55 -30.8 11.65 -27.1 11.65 M-27.1 21.3 L-27.1 26.35 -30.8 26.35 -30.8 21.3 -27.1 21.3 M-27.1 30.1 L-27.1 31.45 -25.1 31.45 -25.1 34.45 -30.8 34.45 -30.8 30.1 -27.1 30.1" fill="#ffffff" fill-rule="evenodd" stroke="none"/>
    <path d="M92.7 0.25 L92.7 0.0 98.8 0.0 98.8 3.8 95.65 3.8 95.65 3.05 92.7 3.05 92.7 0.25 M98.8 7.4 L98.8 11.55 95.65 11.55 95.65 7.4 98.8 7.4 M98.8 16.45 L98.8 21.2 95.65 21.2 95.65 16.45 98.8 16.45 M98.8 26.25 L98.8 30.0 95.65 30.0 95.65 26.25 98.8 26.25 M92.7 34.6 L92.6 34.6 92.6 34.35 89.25 34.35 89.25 31.35 92.65 31.35 92.65 31.6 92.7 31.6 92.7 34.6 M84.55 34.35 L79.1 34.35 79.1 31.35 84.55 31.35 84.55 34.35 M73.6 34.35 L68.1 34.35 68.1 31.35 73.6 31.35 73.6 34.35 M89.25 0.0 L89.25 3.05 84.55 3.05 84.55 0.0 89.25 0.0 M79.1 0.0 L79.1 3.05 73.6 3.05 73.6 0.0 79.1 0.0 M63.6 3.05 L63.6 0.0 68.1 0.0 68.1 3.05 63.6 3.05 M59.5 0.0 L59.5 3.05 54.8 3.05 54.8 0.0 59.5 0.0 M43.85 3.05 L43.85 0.0 49.35 0.0 49.35 3.05 43.85 3.05 M38.35 0.0 L38.35 3.05 32.5 3.05 32.5 0.0 38.35 0.0 M54.8 31.35 L54.8 34.35 49.35 34.35 49.35 31.35 54.8 31.35 M59.5 34.35 L59.5 31.35 64.6 31.35 64.6 34.35 59.5 34.35 M43.85 31.35 L43.85 34.35 38.35 34.35 38.35 31.35 43.85 31.35 M27.35 0.0 L27.35 3.05 22.0 3.05 22.0 0.0 27.35 0.0 M10.6 0.0 L16.55 0.0 16.55 3.05 10.6 3.05 10.6 0.0 M5.75 0.1 L5.8 0.1 5.8 3.05 5.8 3.15 -0.05 3.15 -0.05 0.1 5.75 0.1 M-5.2 3.15 L-10.55 3.15 -10.55 0.1 -5.2 0.1 -5.2 3.15 M-16.0 3.15 L-21.95 3.15 -21.95 0.1 -16.0 0.1 -16.0 3.15 M16.55 34.35 L16.55 31.35 22.0 31.35 22.0 34.35 16.55 34.35 M10.6 31.35 L10.6 34.35 5.75 34.35 5.75 31.35 10.6 31.35 M1.85 34.5 L-3.3 34.5 -3.3 31.5 1.85 31.5 1.85 34.5 M-8.65 34.5 L-14.1 34.5 -14.1 31.5 -8.65 31.5 -8.65 34.5 M-20.05 34.5 L-24.9 34.5 -24.9 31.5 -20.05 31.5 -20.05 34.5 M32.5 34.35 L27.35 34.35 27.35 31.35 32.5 31.35 32.5 34.35 M-25.1 0.1 L-25.1 3.15 -27.1 3.15 -27.1 3.9 -30.8 3.9 -30.8 0.1 -25.1 0.1 M-27.1 7.5 L-27.1 11.65 -30.8 11.65 -30.8 7.5 -27.1 7.5 M-27.1 16.55 L-27.1 21.3 -30.8 21.3 -30.8 16.55 -27.1 16.55 M-27.1 26.35 L-27.1 30.1 -30.8 30.1 -30.8 26.35 -27.1 26.35 M-25.1 31.45 L-25.05 31.45 -25.05 34.45 -25.1 34.45 -25.1 31.45" fill="#3c9dff" fill-rule="evenodd" stroke="none"/>
  </g>
</svg>
