<?xml version="1.0" encoding="UTF-8" standalone="no"?>
<svg xmlns:xlink="http://www.w3.org/1999/xlink" height="68.1px" width="389.9px" xmlns="http://www.w3.org/2000/svg">
  <g transform="matrix(1.0, 0.0, 0.0, 1.0, -6.05, -7.55)">
    <path d="M281.75 52.85 Q281.55 49.2 279.05 49.2 276.9 49.05 276.45 54.65 L276.35 55.05 276.35 55.7 Q276.4 61.4 278.75 61.5 281.35 61.6 281.65 57.95 L287.25 58.2 Q286.6 65.3 278.6 65.15 270.9 64.6 270.5 55.2 271.5 45.9 279.0 45.5 287.1 46.05 287.35 53.0 L281.75 52.85 M303.65 55.55 Q304.0 49.2 299.8 49.1 295.85 49.05 295.65 55.45 295.6 61.45 299.55 61.55 303.65 61.65 303.65 55.55 M299.8 45.45 Q309.25 46.1 309.45 55.7 308.8 65.15 299.4 65.25 289.95 64.75 289.7 55.4 290.4 45.65 299.8 45.45 M369.2 57.95 L374.8 58.0 Q374.4 65.2 366.5 65.3 358.65 65.05 357.95 55.45 358.75 46.05 366.35 45.6 374.4 45.85 374.85 52.7 L369.25 52.65 Q368.9 49.1 366.35 49.15 364.3 49.1 363.8 54.7 L363.75 55.3 363.8 55.8 Q364.25 61.8 366.5 61.75 369.1 61.75 369.2 57.95 M390.1 53.5 Q390.3 49.1 387.0 49.15 384.05 49.45 383.4 53.65 L383.5 64.85 377.95 64.85 378.15 45.8 383.65 46.0 383.55 48.25 383.75 48.15 Q385.2 45.45 389.35 45.35 394.45 46.1 395.6 49.7 396.15 51.35 395.85 64.9 L390.1 64.85 390.1 53.5 M343.45 49.1 Q344.05 50.55 344.0 53.65 L343.95 65.0 338.3 65.0 338.35 53.65 Q338.5 49.2 335.1 49.15 332.15 49.45 331.65 53.6 L331.55 64.95 326.0 64.9 326.05 53.5 Q326.1 49.15 322.85 49.2 319.55 49.35 319.35 53.45 L319.3 64.8 313.5 64.85 313.65 45.9 319.35 45.95 319.3 48.25 319.45 48.2 Q321.25 45.45 325.1 45.45 329.75 45.95 331.05 49.05 333.35 45.5 337.5 45.55 341.8 45.95 343.45 49.1" fill="#000000" fill-rule="evenodd" stroke="none"/>
    <path d="M234.15 20.9 Q232.35 18.2 228.55 18.05 224.2 18.2 222.2 20.9 220.3 23.55 220.15 27.75 L235.9 27.75 Q236.05 23.65 234.15 20.9 M254.4 36.0 L254.4 37.45 219.6 37.45 Q219.65 42.8 222.9 45.95 226.1 48.95 231.3 49.05 234.75 48.95 237.85 47.0 240.95 45.2 242.6 41.65 L254.4 46.95 Q249.7 53.75 243.35 57.05 236.85 60.55 227.9 60.55 219.9 60.4 214.05 57.45 207.95 54.25 204.55 48.4 201.25 42.6 201.1 34.15 201.25 26.4 204.45 20.45 207.45 14.6 213.65 11.05 219.5 7.7 227.9 7.55 235.4 7.55 241.4 10.6 247.4 13.7 250.75 19.85 254.25 26.15 254.4 36.0" fill="#000000" fill-rule="evenodd" stroke="none"/>
    <path d="M183.25 8.9 Q188.1 9.0 191.3 11.0 194.35 13.15 195.75 16.4 197.15 19.55 197.15 23.15 L197.15 60.55 179.5 60.55 179.5 28.65 Q179.65 26.05 178.5 23.65 177.45 21.55 174.05 21.45 171.55 21.55 169.45 22.85 167.35 24.15 166.5 25.6 L166.5 60.55 148.75 60.55 148.75 28.65 Q148.85 25.8 147.85 23.65 146.75 21.55 143.4 21.45 140.75 21.55 138.7 22.85 136.65 24.15 135.75 25.6 L135.75 60.55 118.05 60.55 118.05 10.2 135.75 10.2 135.75 17.35 140.5 13.4 Q142.85 11.6 145.9 10.2 148.65 9.0 152.35 8.9 157.2 8.9 160.65 11.1 164.1 13.4 165.8 18.0 168.25 15.35 170.95 13.25 173.5 11.1 176.45 10.05 179.35 8.9 183.25 8.9" fill="#000000" fill-rule="evenodd" stroke="none"/>
    <path d="M93.95 37.45 Q91.0 37.8 88.4 38.45 85.45 39.15 83.45 40.8 81.35 42.35 81.25 45.35 81.35 47.2 82.25 48.45 83.3 49.75 84.45 50.25 85.7 50.85 86.7 50.85 88.75 50.85 90.35 50.05 L93.95 48.0 93.95 37.45 M102.75 10.9 Q107.7 13.0 109.4 16.15 111.25 19.7 111.15 23.55 L111.15 50.5 111.2 53.25 Q111.35 55.4 111.8 57.1 112.25 59.1 113.1 60.45 L94.9 60.45 Q94.5 59.4 94.45 58.3 L94.1 55.95 Q91.05 58.65 87.15 60.2 83.35 61.65 78.9 61.75 77.1 61.85 74.55 61.15 72.2 60.6 69.7 58.9 67.3 57.35 65.75 54.45 64.1 51.5 64.1 46.85 64.25 41.65 66.8 38.3 69.3 34.8 73.6 32.8 78.25 30.65 83.2 29.9 L94.0 28.95 94.0 24.85 Q94.0 21.9 92.3 20.9 90.5 19.7 88.15 19.8 85.0 19.8 83.45 21.45 81.8 23.05 81.15 25.95 L66.45 22.8 Q67.7 17.35 71.05 14.35 74.35 11.35 79.1 10.05 83.55 8.8 88.75 8.8 97.95 8.9 102.75 10.9" fill="#000000" fill-rule="evenodd" stroke="none"/>
    <path d="M37.4 58.7 L28.9 58.4 Q24.45 58.25 21.6 59.0 19.05 59.85 19.05 62.2 18.95 63.45 19.9 64.45 20.85 65.4 23.85 66.0 L32.6 66.55 38.85 66.25 Q42.55 65.85 44.35 65.15 46.55 64.2 46.65 62.7 46.55 60.7 43.95 59.9 41.55 58.95 37.4 58.7 M37.5 18.7 Q35.55 16.7 32.6 16.6 29.5 16.7 27.3 18.7 24.95 20.65 24.85 23.9 24.95 27.3 27.05 29.3 29.15 31.4 32.3 31.4 35.4 31.4 37.45 29.2 39.45 27.15 39.6 23.8 39.6 20.7 37.5 18.7 M62.5 8.05 L62.5 18.85 Q61.45 18.25 59.75 17.7 58.1 17.1 56.45 17.2 54.85 17.2 54.05 18.55 54.7 19.4 55.1 20.9 L55.45 23.1 Q55.35 30.65 49.75 35.1 44.2 39.3 33.45 39.4 L29.25 39.4 Q26.1 39.55 25.4 40.05 24.55 40.75 24.7 41.7 24.55 43.05 25.55 43.4 26.65 43.9 29.1 44.05 L38.55 44.7 46.7 45.6 Q50.6 46.25 54.25 47.9 57.75 49.45 59.75 52.1 61.85 55.0 61.95 59.35 62.1 63.15 59.1 66.8 56.15 70.55 49.55 73.0 42.85 75.55 31.7 75.65 L18.65 74.65 Q12.8 73.7 9.5 71.6 6.2 69.55 6.05 65.9 6.2 63.35 7.55 61.6 8.75 60.0 11.0 58.85 13.15 57.75 15.1 57.1 L15.1 57.0 Q12.25 56.15 10.25 54.1 8.15 52.15 8.0 48.85 8.15 45.85 10.0 43.65 11.6 41.6 14.4 39.95 16.8 38.55 19.5 37.75 L19.5 37.55 Q14.9 35.9 12.05 32.35 9.2 28.8 9.05 23.8 9.05 20.25 11.35 16.65 13.65 13.2 18.55 10.65 23.4 8.15 30.95 8.05 35.7 7.9 40.9 9.05 45.8 10.1 49.95 13.2 52.4 10.35 55.6 9.2 58.75 8.05 62.5 8.05" fill="#000000" fill-rule="evenodd" stroke="none"/>
  </g>
</svg>
