<?xml version="1.0" encoding="UTF-8" standalone="no"?>
<svg xmlns:xlink="http://www.w3.org/1999/xlink" height="7.0px" width="7.0px" xmlns="http://www.w3.org/2000/svg">
  <g transform="matrix(1.0, 0.0, 0.0, 1.0, 0.0, 0.0)">
    <path d="M5.95 1.0 Q7.0 2.05 7.0 3.5 7.0 4.95 5.95 5.95 4.95 7.0 3.5 7.0 2.05 7.0 1.0 5.95 0.0 4.95 0.0 3.5 0.0 2.05 1.0 1.0 1.7 0.3 2.65 0.1 L3.5 0.0 4.4 0.1 Q5.25 0.3 5.95 1.0" fill="#000000" fill-rule="evenodd" stroke="none"/>
    <path d="M3.0 1.15 Q3.45 1.6 3.45 2.15 L3.0 3.1 Q2.65 3.55 2.1 3.55 1.5 3.55 1.1 3.1 0.7 2.75 0.7 2.15 0.7 1.6 1.1 1.15 1.2 1.0 1.4 0.95 L2.1 0.75 2.75 0.95 3.0 1.15" fill="#ffffff" fill-rule="evenodd" stroke="none"/>
  </g>
</svg>
